{"header":{"PPQ":384,"bpm":117.000117000117,"name":""},"startTime":0,"duration":128.17294874999942,"tracks":[{"startTime":0,"duration":128.17294874999942,"length":679,"notes":[{"name":"C4","midi":70,"time":126.35716644526669,"velocity":0.365808675608297,"duration":4.683501503685086},{"name":"C4","midi":70,"time":126.35716644526669,"velocity":0.365808675608297,"duration":4.424783375551191},{"name":"C4","midi":70,"time":126.35716644526669,"velocity":0.3460152867272144,"duration":4.429571438909034},{"name":"C4","midi":70,"time":119.36975557441326,"velocity":0.346381600447527,"duration":4.428566985226975},{"name":"C4","midi":69,"time":119.49907069507466,"velocity":0.34630475410326256,"duration":4.513997722594898},{"name":"C2","midi":69,"time":119.47194259768189,"velocity":0.3528406554319727,"duration":4.50342409878287},{"name":"C2","midi":69,"time":121.77922955442442,"velocity":0.35203174343259314,"duration":4.514408161152169},{"name":"C2","midi":69,"time":121.49366953577443,"velocity":0.35287208585288576,"duration":4.485708380301945},{"name":"C3","midi":69,"time":121.79032504019915,"velocity":0.3506763915377339,"duration":4.492258778707957},{"name":"C3","midi":69,"time":121.01520672069668,"velocity":0.35117753378049593,"duration":4.484793975757216},{"name":"C3","midi":69,"time":121.19211865709916,"velocity":0.35060646402554246,"duration":4.495167790968389},{"name":"C2","midi":69,"time":120.9905210914801,"velocity":0.3514000895455127,"duration":4.491536839701383},{"name":"C3","midi":69,"time":121.27068471676647,"velocity":0.35112230139454514,"duration":4.495407020221638},{"name":"C2","midi":69,"time":121.17262066328242,"velocity":0.3514183919260821,"duration":4.491425534329919},{"name":"C3","midi":69,"time":121.27714577574535,"velocity":0.3511137859089168,"duration":4.4932999477035205},{"name":"C3","midi":69,"time":121.16961454860403,"velocity":0.35125718905231146,"duration":4.491465727936282},{"name":"C3","midi":69,"time":121.22023835481986,"velocity":0.3511168609453937,"duration":4.49307424514472},{"name":"C3","midi":69,"time":121.17070009001567,"velocity":0.3512399215397872,"duration":4.492154429922211},{"name":"C3","midi":69,"time":121.21414262227758,"velocity":0.3511695505127193,"duration":4.492991539070091},{"name":"C3","midi":69,"time":121.18930042458817,"velocity":0.3512335940608828,"duration":4.492315590824642},{"name":"C3","midi":69,"time":121.21190891206517,"velocity":0.35118188022628544,"duration":4.492752309816842},{"name":"C3","midi":69,"time":121.19365302813291,"velocity":0.35121529168031346,"duration":4.492376654188153},{"name":"C3","midi":69,"time":121.20544785308628,"velocity":0.35118655191631765,"duration":4.492668057834275},{"name":"C3","midi":69,"time":121.19530221604674,"velocity":0.3512088459307753,"duration":4.492465157417546},{"name":"C3","midi":69,"time":121.20317239128113,"velocity":0.3511933229100986,"duration":4.492632888428709},{"name":"C3","midi":69,"time":121.19769249473198,"velocity":0.351206155273858,"duration":4.4925049645469235},{"name":"C3","midi":69,"time":121.20222254254594,"velocity":0.35119636837891705,"duration":4.492597719023142},{"name":"C3","midi":69,"time":121.19876759824544,"velocity":0.3512034646169407,"duration":4.492523515442167},{"name":"C3","midi":69,"time":121.20127269381075,"velocity":0.35119778762652176,"duration":4.492579941081868},{"name":"C3","midi":69,"time":121.1992686173585,"velocity":0.35120210450465283,"duration":4.492537815090584},{"name":"C3","midi":69,"time":121.20079255049407,"velocity":0.3511988816298838,"duration":4.49257105211123},{"name":"C3","midi":69,"time":121.19965481959149,"velocity":0.3512014244485089,"duration":4.49254554463027},{"name":"C3","midi":69,"time":121.20055247883573,"velocity":0.3511994729830524,"duration":4.492564868479482},{"name":"C3","midi":69,"time":121.19986357755526,"velocity":0.3512009217983156,"duration":4.492549795877096},{"name":"C3","midi":69,"time":121.20037503456652,"velocity":0.35119979822729513,"duration":4.492561390186624},{"name":"C3","midi":69,"time":121.19997839443535,"velocity":0.3512006556893897,"duration":4.492552501215986},{"name":"C3","midi":69,"time":121.20028109348281,"velocity":0.35120000520090416,"duration":4.492559457801702},{"name":"C3","midi":69,"time":121.20005145972266,"velocity":0.35120053741875595,"duration":4.492554047123923},{"name":"C3","midi":69,"time":121.20023934189007,"velocity":0.3512001234715379,"duration":4.4925579118937655},{"name":"C3","midi":69,"time":121.20009321131542,"velocity":0.3512004191481222,"duration":4.492554820077891},{"name":"C3","midi":69,"time":121.20019759029731,"velocity":0.35120018260685476,"duration":4.492557138939796},{"name":"C3","midi":69,"time":121.2001140871118,"velocity":0.35120036001280536,"duration":4.492555206554876},{"name":"C3","midi":69,"time":121.20017671450093,"velocity":0.3512002417421716,"duration":4.492557138939796},{"name":"C3","midi":69,"time":121.20013496290818,"velocity":0.35120036001280536,"duration":4.4925555930318595},{"name":"C3","midi":69,"time":121.20017671450093,"velocity":0.3512002417421716,"duration":4.4925567524628125},{"name":"C3","midi":69,"time":121.20013496290818,"velocity":0.3512003304451469,"duration":4.492555979508844},{"name":"C3","midi":69,"time":121.20016627660274,"velocity":0.3512003008774885,"duration":4.4925567524628125},{"name":"C3","midi":69,"time":121.20015583870455,"velocity":0.3512003304451469,"duration":4.492556365985828},{"name":"C3","midi":69,"time":121.20016627660274,"velocity":0.3512003008774885,"duration":4.492556365985828},{"name":"C3","midi":69,"time":121.20015583870455,"velocity":0.3512003008774885,"duration":4.492556365985828}],"controlChanges":{"64":[]},"id":0,"name":"","channelNumber":0,"isPercussion":false}]}