{"header":{"PPQ":240,"timeSignature":[12,8],"bpm":105.99995053335641,"name":"--------"},"startTime":0,"duration":72.67927919999953,"tracks":[{"startTime":0,"duration":0,"length":0,"notes":[],"controlChanges":{},"id":0,"name":"--------"},{"startTime":0,"duration":72.67927919999953,"length":408,"notes":[{"name":"A4","midi":69,"time":0,"velocity":0.7637795275590551,"duration":0.12971704166666667},{"name":"G#4","midi":68,"time":0.07075475,"velocity":0.7637795275590551,"duration":0.12971704166666667},{"name":"A4","midi":69,"time":0.1415095,"velocity":0.7637795275590551,"duration":0.39150961666666667},{"name":"A4","midi":69,"time":0.566038,"velocity":0.7637795275590551,"duration":0.21226425000000004},{"name":"A4","midi":69,"time":0.8490570000000001,"velocity":0.7637795275590551,"duration":0.12971704166666664},{"name":"G#4","midi":68,"time":0.91981175,"velocity":0.7637795275590551,"duration":0.12971704166666664},{"name":"A4","midi":69,"time":0.9905665,"velocity":0.7637795275590551,"duration":0.3915096166666666},{"name":"A4","midi":69,"time":1.415095,"velocity":0.7637795275590551,"duration":0.21226425000000004},{"name":"B4","midi":71,"time":1.6981140000000001,"velocity":0.7637795275590551,"duration":0.08726419166666677},{"name":"A4","midi":69,"time":1.7924536666666668,"velocity":0.7637795275590551,"duration":0.08726419166666677},{"name":"B4","midi":71,"time":1.8867933333333335,"velocity":0.7637795275590551,"duration":0.08726419166666677},{"name":"C#5","midi":73,"time":1.9811330000000003,"velocity":0.7637795275590551,"duration":0.08726419166666677},{"name":"B4","midi":71,"time":2.075472666666667,"velocity":0.7637795275590551,"duration":0.08726419166666677},{"name":"C#5","midi":73,"time":2.169812333333334,"velocity":0.7637795275590551,"duration":0.08726419166666677},{"name":"B4","midi":71,"time":2.264152000000001,"velocity":0.7637795275590551,"duration":0.08726419166666677},{"name":"C#5","midi":73,"time":2.358491666666668,"velocity":0.7637795275590551,"duration":0.08726419166666677},{"name":"B4","midi":71,"time":2.452831333333335,"velocity":0.7637795275590551,"duration":0.08726419166666677},{"name":"C#5","midi":73,"time":2.547171000000002,"velocity":0.7637795275590551,"duration":0.08726419166666677},{"name":"B4","midi":71,"time":2.641510666666669,"velocity":0.7637795275590551,"duration":0.08726419166666677},{"name":"C#5","midi":73,"time":2.7358503333333357,"velocity":0.7637795275590551,"duration":0.08726419166666677},{"name":"B4","midi":71,"time":2.8301900000000026,"velocity":0.7637795275590551,"duration":0.08726419166666677},{"name":"C#5","midi":73,"time":2.9245296666666696,"velocity":0.7637795275590551,"duration":0.08726419166666677},{"name":"B4","midi":71,"time":3.0188693333333365,"velocity":0.7637795275590551,"duration":0.5070757083333333},{"name":"A4","midi":69,"time":3.537737500000003,"velocity":0.7637795275590551,"duration":0.12971704166666687},{"name":"G#4","midi":68,"time":3.6792470000000033,"velocity":0.7637795275590551,"duration":0.12971704166666687},{"name":"A4","midi":69,"time":3.8207565000000034,"velocity":0.7637795275590551,"duration":0.12971704166666687},{"name":"B4","midi":71,"time":3.9622660000000036,"velocity":0.7637795275590551,"duration":0.12971704166666642},{"name":"C#5","midi":73,"time":4.103775500000004,"velocity":0.7637795275590551,"duration":0.12971704166666687},{"name":"D5","midi":74,"time":4.245285000000004,"velocity":0.7637795275590551,"duration":0.12971704166666687},{"name":"C#5","midi":73,"time":4.386794500000005,"velocity":0.7637795275590551,"duration":0.12971704166666687},{"name":"D5","midi":74,"time":4.528304000000006,"velocity":0.7637795275590551,"duration":0.12971704166666687},{"name":"F#5","midi":78,"time":4.669813500000006,"velocity":0.7637795275590551,"duration":0.12971704166666687},{"name":"E5","midi":76,"time":4.811323000000007,"velocity":0.7637795275590551,"duration":0.12971704166666687},{"name":"D5","midi":74,"time":4.9528325000000075,"velocity":0.7637795275590551,"duration":0.12971704166666687},{"name":"C#5","midi":73,"time":5.094342000000008,"velocity":0.7637795275590551,"duration":0.12971704166666687},{"name":"A4","midi":69,"time":5.235851500000009,"velocity":0.7637795275590551,"duration":0.12971704166666687},{"name":"C#5","midi":73,"time":5.377361000000009,"velocity":0.7637795275590551,"duration":0.12971704166666687},{"name":"E5","midi":76,"time":5.51887050000001,"velocity":0.7637795275590551,"duration":0.12971704166666687},{"name":"A5","midi":81,"time":5.660380000000011,"velocity":0.7637795275590551,"duration":0.12971704166666687},{"name":"F#5","midi":78,"time":5.801889500000011,"velocity":0.7637795275590551,"duration":0.12971704166666687},{"name":"D#5","midi":75,"time":5.943399000000012,"velocity":0.7637795275590551,"duration":0.12971704166666687},{"name":"B4","midi":71,"time":6.0849085000000125,"velocity":0.7637795275590551,"duration":0.12971704166666687},{"name":"D#5","midi":75,"time":6.226418000000013,"velocity":0.7637795275590551,"duration":0.12971704166666687},{"name":"F#5","midi":78,"time":6.367927500000014,"velocity":0.7637795275590551,"duration":0.12971704166666687},{"name":"A5","midi":81,"time":6.509437000000014,"velocity":0.7637795275590551,"duration":0.12971704166666687},{"name":"F#5","midi":78,"time":6.650946500000015,"velocity":0.7637795275590551,"duration":0.12971704166666687},{"name":"G#5","midi":80,"time":6.792456000000016,"velocity":0.7637795275590551,"duration":0.12971704166666687},{"name":"A5","midi":81,"time":6.933965500000016,"velocity":0.7637795275590551,"duration":0.12971704166666687},{"name":"G#5","midi":80,"time":7.075475000000017,"velocity":0.7637795275590551,"duration":0.12971704166666687},{"name":"F#5","midi":78,"time":7.2169845000000175,"velocity":0.7637795275590551,"duration":0.12971704166666687},{"name":"E5","midi":76,"time":7.358494000000018,"velocity":0.7637795275590551,"duration":0.12971704166666687},{"name":"D#5","midi":75,"time":7.500003500000019,"velocity":0.7637795275590551,"duration":0.12971704166666687},{"name":"C#5","midi":73,"time":7.641513000000019,"velocity":0.7637795275590551,"duration":0.12971704166666687},{"name":"D#5","midi":75,"time":7.78302250000002,"velocity":0.7637795275590551,"duration":0.12971704166666687},{"name":"E5","midi":76,"time":7.924532000000021,"velocity":0.7637795275590551,"duration":0.12971704166666598},{"name":"D#5","midi":75,"time":8.06604150000002,"velocity":0.7637795275590551,"duration":0.12971704166666598},{"name":"C#5","midi":73,"time":8.20755100000002,"velocity":0.7637795275590551,"duration":0.12971704166666598},{"name":"B4","midi":71,"time":8.34906050000002,"velocity":0.7637795275590551,"duration":0.12971704166666598},{"name":"A4","midi":69,"time":8.49057000000002,"velocity":0.7637795275590551,"duration":0.12971704166666598},{"name":"C#5","midi":73,"time":8.63207950000002,"velocity":0.7637795275590551,"duration":0.12971704166666598},{"name":"E5","midi":76,"time":8.773589000000019,"velocity":0.7637795275590551,"duration":0.12971704166666598},{"name":"C#5","midi":73,"time":8.915098500000019,"velocity":0.7637795275590551,"duration":0.12971704166666598},{"name":"A4","midi":69,"time":9.056608000000018,"velocity":0.7637795275590551,"duration":0.12971704166666598},{"name":"C#5","midi":73,"time":9.198117500000018,"velocity":0.7637795275590551,"duration":0.12971704166666598},{"name":"F#4","midi":66,"time":9.339627000000018,"velocity":0.7637795275590551,"duration":0.12971704166666598},{"name":"A4","midi":69,"time":9.481136500000018,"velocity":0.7637795275590551,"duration":0.12971704166666598},{"name":"C#5","midi":73,"time":9.622646000000017,"velocity":0.7637795275590551,"duration":0.12971704166666598},{"name":"A4","midi":69,"time":9.764155500000017,"velocity":0.7637795275590551,"duration":0.12971704166666598},{"name":"F#4","midi":66,"time":9.905665000000017,"velocity":0.7637795275590551,"duration":0.12971704166666598},{"name":"A4","midi":69,"time":10.047174500000017,"velocity":0.7637795275590551,"duration":0.12971704166666598},{"name":"D#4","midi":63,"time":10.188684000000016,"velocity":0.7637795275590551,"duration":0.22641519999999993},{"name":"F#4","midi":66,"time":10.471703000000016,"velocity":0.7637795275590551,"duration":0.22641519999999993},{"name":"D#4","midi":63,"time":10.754722000000015,"velocity":0.7637795275590551,"duration":0.22641519999999993},{"name":"B3","midi":59,"time":11.037741000000015,"velocity":0.7637795275590551,"duration":0.12971704166666598},{"name":"D#4","midi":63,"time":11.179250500000014,"velocity":0.7637795275590551,"duration":0.12971704166666598},{"name":"F#4","midi":66,"time":11.320760000000014,"velocity":0.7637795275590551,"duration":0.12971704166666598},{"name":"A4","midi":69,"time":11.462269500000014,"velocity":0.7637795275590551,"duration":0.12971704166666598},{"name":"G#4","midi":68,"time":11.603779000000014,"velocity":0.7637795275590551,"duration":0.12971704166666598},{"name":"F#4","midi":66,"time":11.745288500000013,"velocity":0.7637795275590551,"duration":0.12971704166666598},{"name":"E4","midi":64,"time":11.886798000000013,"velocity":0.7637795275590551,"duration":0.12971704166666598},{"name":"G#4","midi":68,"time":12.028307500000013,"velocity":0.7637795275590551,"duration":0.12971704166666598},{"name":"B4","midi":71,"time":12.169817000000013,"velocity":0.7637795275590551,"duration":0.12971704166666598},{"name":"E5","midi":76,"time":12.311326500000012,"velocity":0.7637795275590551,"duration":0.12971704166666598},{"name":"B4","midi":71,"time":12.452836000000012,"velocity":0.7637795275590551,"duration":0.12971704166666598},{"name":"G#4","midi":68,"time":12.594345500000012,"velocity":0.7637795275590551,"duration":0.12971704166666598},{"name":"E4","midi":64,"time":12.735855000000011,"velocity":0.7637795275590551,"duration":0.7806607416666669},{"name":"E5","midi":76,"time":13.584912000000012,"velocity":0.7637795275590551,"duration":0.12971704166666775},{"name":"D#5","midi":75,"time":13.655666750000012,"velocity":0.7637795275590551,"duration":0.12971704166666775},{"name":"E5","midi":76,"time":13.726421500000013,"velocity":0.7637795275590551,"duration":0.39150961666666717},{"name":"E5","midi":76,"time":14.150950000000014,"velocity":0.7637795275590551,"duration":0.22641519999999993},{"name":"E5","midi":76,"time":14.433969000000014,"velocity":0.7637795275590551,"duration":0.12971704166666775},{"name":"D#5","midi":75,"time":14.504723750000014,"velocity":0.7637795275590551,"duration":0.12971704166666775},{"name":"E5","midi":76,"time":14.575478500000015,"velocity":0.7637795275590551,"duration":0.39150961666666717},{"name":"E5","midi":76,"time":15.000007000000016,"velocity":0.7637795275590551,"duration":0.22641519999999993},{"name":"E5","midi":76,"time":15.283026000000016,"velocity":0.7637795275590551,"duration":0.12971704166666598},{"name":"A5","midi":81,"time":15.424535500000015,"velocity":0.7637795275590551,"duration":0.12971704166666598},{"name":"E5","midi":76,"time":15.566045000000015,"velocity":0.7637795275590551,"duration":0.12971704166666598},{"name":"C#5","midi":73,"time":15.707554500000015,"velocity":0.7637795275590551,"duration":0.12971704166666598},{"name":"A4","midi":69,"time":15.849064000000014,"velocity":0.7637795275590551,"duration":0.12971704166666598},{"name":"C#5","midi":73,"time":15.990573500000014,"velocity":0.7637795275590551,"duration":0.12971704166666598},{"name":"E5","midi":76,"time":16.132083000000012,"velocity":0.7637795275590551,"duration":0.12971704166666598},{"name":"A5","midi":81,"time":16.27359250000001,"velocity":0.7637795275590551,"duration":0.12971704166666598},{"name":"E5","midi":76,"time":16.415102000000008,"velocity":0.7637795275590551,"duration":0.12971704166666598},{"name":"C#5","midi":73,"time":16.556611500000006,"velocity":0.7637795275590551,"duration":0.12971704166666598},{"name":"A4","midi":69,"time":16.698121000000004,"velocity":0.7637795275590551,"duration":0.12971704166666598},{"name":"C#5","midi":73,"time":16.839630500000002,"velocity":0.7637795275590551,"duration":0.12971704166666598},{"name":"D5","midi":74,"time":16.98114,"velocity":0.7637795275590551,"duration":0.12971704166666598},{"name":"C#5","midi":73,"time":17.05189475,"velocity":0.7637795275590551,"duration":0.12971704166666598},{"name":"D5","midi":74,"time":17.122649499999998,"velocity":0.7637795275590551,"duration":0.39150961666666717},{"name":"D5","midi":74,"time":17.547178,"velocity":0.7637795275590551,"duration":0.2264152000000017},{"name":"D5","midi":74,"time":17.830197000000002,"velocity":0.7637795275590551,"duration":0.12971704166666598},{"name":"C#5","midi":73,"time":17.90095175,"velocity":0.7637795275590551,"duration":0.12971704166666598},{"name":"D5","midi":74,"time":17.9717065,"velocity":0.7637795275590551,"duration":0.39150961666666717},{"name":"D5","midi":74,"time":18.396235,"velocity":0.7637795275590551,"duration":0.2264152000000017},{"name":"D5","midi":74,"time":18.679254000000004,"velocity":0.7637795275590551,"duration":0.12971704166666598},{"name":"B5","midi":83,"time":18.8207635,"velocity":0.7637795275590551,"duration":0.12971704166666598},{"name":"G#5","midi":80,"time":18.962273,"velocity":0.7637795275590551,"duration":0.12971704166666598},{"name":"D5","midi":74,"time":19.103782499999998,"velocity":0.7637795275590551,"duration":0.12971704166666598},{"name":"B4","midi":71,"time":19.245291999999996,"velocity":0.7637795275590551,"duration":0.12971704166666598},{"name":"D5","midi":74,"time":19.386801499999994,"velocity":0.7637795275590551,"duration":0.12971704166666598},{"name":"G#5","midi":80,"time":19.52831099999999,"velocity":0.7637795275590551,"duration":0.12971704166666598},{"name":"B5","midi":83,"time":19.66982049999999,"velocity":0.7637795275590551,"duration":0.12971704166666598},{"name":"G#5","midi":80,"time":19.811329999999987,"velocity":0.7637795275590551,"duration":0.12971704166666598},{"name":"D5","midi":74,"time":19.952839499999985,"velocity":0.7637795275590551,"duration":0.12971704166666598},{"name":"B4","midi":71,"time":20.094348999999983,"velocity":0.7637795275590551,"duration":0.12971704166666598},{"name":"D5","midi":74,"time":20.23585849999998,"velocity":0.7637795275590551,"duration":0.12971704166666598},{"name":"C#5","midi":73,"time":20.37736799999998,"velocity":0.7637795275590551,"duration":0.5212266583333331},{"name":"D4","midi":62,"time":21.36793449999998,"velocity":0.7637795275590551,"duration":0.12971704166666598},{"name":"F#4","midi":66,"time":21.509443999999977,"velocity":0.7637795275590551,"duration":0.12971704166666598},{"name":"A4","midi":69,"time":21.650953499999975,"velocity":0.7637795275590551,"duration":0.12971704166666598},{"name":"D5","midi":74,"time":21.792462999999973,"velocity":0.7637795275590551,"duration":0.12971704166666598},{"name":"C#5","midi":73,"time":21.93397249999997,"velocity":0.7637795275590551,"duration":0.12971704166666598},{"name":"B4","midi":71,"time":22.07548199999997,"velocity":0.7637795275590551,"duration":0.5212266583333331},{"name":"C#4","midi":61,"time":23.06604849999997,"velocity":0.7637795275590551,"duration":0.12971704166666598},{"name":"F4","midi":65,"time":23.207557999999967,"velocity":0.7637795275590551,"duration":0.12971704166666598},{"name":"G#4","midi":68,"time":23.349067499999965,"velocity":0.7637795275590551,"duration":0.12971704166666598},{"name":"C#5","midi":73,"time":23.490576999999963,"velocity":0.7637795275590551,"duration":0.12971704166666598},{"name":"B4","midi":71,"time":23.63208649999996,"velocity":0.7637795275590551,"duration":0.12971704166666598},{"name":"A4","midi":69,"time":23.77359599999996,"velocity":0.7637795275590551,"duration":0.5212266583333331},{"name":"B3","midi":59,"time":24.76416249999996,"velocity":0.7637795275590551,"duration":0.12971704166666598},{"name":"D4","midi":62,"time":24.905671999999957,"velocity":0.7637795275590551,"duration":0.12971704166666598},{"name":"F#4","midi":66,"time":25.047181499999954,"velocity":0.7637795275590551,"duration":0.12971704166666598},{"name":"B4","midi":71,"time":25.188690999999952,"velocity":0.7637795275590551,"duration":0.12971704166666598},{"name":"A4","midi":69,"time":25.33020049999995,"velocity":0.7637795275590551,"duration":0.12971704166666598},{"name":"G#4","midi":68,"time":25.47170999999995,"velocity":0.7637795275590551,"duration":0.12971704166666598},{"name":"F#4","midi":66,"time":25.613219499999946,"velocity":0.7637795275590551,"duration":0.12971704166666598},{"name":"B4","midi":71,"time":25.754728999999944,"velocity":0.7637795275590551,"duration":0.12971704166666598},{"name":"A4","midi":69,"time":25.896238499999942,"velocity":0.7637795275590551,"duration":0.12971704166666598},{"name":"G#4","midi":68,"time":26.03774799999994,"velocity":0.7637795275590551,"duration":0.12971704166666598},{"name":"F#4","midi":66,"time":26.179257499999938,"velocity":0.7637795275590551,"duration":0.12971704166666598},{"name":"F4","midi":65,"time":26.320766999999936,"velocity":0.7637795275590551,"duration":0.12971704166666598},{"name":"G#4","midi":68,"time":26.462276499999934,"velocity":0.7637795275590551,"duration":0.12971704166666598},{"name":"C#5","midi":73,"time":26.603785999999932,"velocity":0.7637795275590551,"duration":0.12971704166666598},{"name":"B4","midi":71,"time":26.74529549999993,"velocity":0.7637795275590551,"duration":0.12971704166666598},{"name":"A4","midi":69,"time":26.886804999999928,"velocity":0.7637795275590551,"duration":0.12971704166666598},{"name":"G#4","midi":68,"time":27.028314499999926,"velocity":0.7637795275590551,"duration":0.12971704166666598},{"name":"F#4","midi":66,"time":27.169823999999924,"velocity":0.7637795275590551,"duration":0.25943408333333196},{"name":"F#5","midi":78,"time":27.452842999999923,"velocity":0.7637795275590551,"duration":0.25943408333333196},{"name":"F#4","midi":66,"time":27.735861999999923,"velocity":0.7637795275590551,"duration":0.25943408333333196},{"name":"F#4","midi":66,"time":28.018880999999922,"velocity":0.7637795275590551,"duration":0.25943408333333196},{"name":"C#4","midi":61,"time":28.30189999999992,"velocity":0.7637795275590551,"duration":0.25943408333333196},{"name":"F#4","midi":66,"time":28.58491899999992,"velocity":0.7637795275590551,"duration":0.25943408333333196},{"name":"G#4","midi":68,"time":28.86793799999992,"velocity":0.7637795275590551,"duration":0.08726419166666588},{"name":"F#4","midi":66,"time":28.962277666666587,"velocity":0.7637795275590551,"duration":0.08726419166666588},{"name":"G#4","midi":68,"time":29.056617333333254,"velocity":0.7637795275590551,"duration":0.08726419166666588},{"name":"A4","midi":69,"time":29.15095699999992,"velocity":0.7637795275590551,"duration":0.08726419166666588},{"name":"G#4","midi":68,"time":29.245296666666587,"velocity":0.7637795275590551,"duration":0.08726419166666588},{"name":"A4","midi":69,"time":29.339636333333253,"velocity":0.7637795275590551,"duration":0.08726419166666588},{"name":"G#4","midi":68,"time":29.43397599999992,"velocity":0.7637795275590551,"duration":0.08726419166666588},{"name":"A4","midi":69,"time":29.528315666666586,"velocity":0.7637795275590551,"duration":0.08726419166666588},{"name":"G#4","midi":68,"time":29.622655333333253,"velocity":0.7637795275590551,"duration":0.08726419166666588},{"name":"A4","midi":69,"time":29.71699499999992,"velocity":0.7637795275590551,"duration":0.08726419166666588},{"name":"G#4","midi":68,"time":29.811334666666585,"velocity":0.7637795275590551,"duration":0.08726419166666588},{"name":"A4","midi":69,"time":29.905674333333252,"velocity":0.7637795275590551,"duration":0.08726419166666588},{"name":"G#4","midi":68,"time":30.00001399999992,"velocity":0.7637795275590551,"duration":0.08726419166666588},{"name":"A4","midi":69,"time":30.094353666666585,"velocity":0.7637795275590551,"duration":0.08726419166666588},{"name":"G#4","midi":68,"time":30.18869333333325,"velocity":0.7637795275590551,"duration":0.08726419166666588},{"name":"A4","midi":69,"time":30.283032999999918,"velocity":0.7637795275590551,"duration":0.08726419166666588},{"name":"G#4","midi":68,"time":30.377372666666584,"velocity":0.7637795275590551,"duration":0.31839637499999895},{"name":"F#4","midi":66,"time":30.707561499999915,"velocity":0.7637795275590551,"duration":0.12971704166666598},{"name":"F4","midi":65,"time":30.849070999999913,"velocity":0.7637795275590551,"duration":0.12971704166666598},{"name":"F#4","midi":66,"time":30.99058049999991,"velocity":0.7637795275590551,"duration":0.12971704166666598},{"name":"G#4","midi":68,"time":31.13208999999991,"velocity":0.7637795275590551,"duration":0.12971704166666598},{"name":"A4","midi":69,"time":31.273599499999907,"velocity":0.7637795275590551,"duration":0.12971704166666598},{"name":"B4","midi":71,"time":31.415108999999905,"velocity":0.7637795275590551,"duration":0.12971704166666598},{"name":"A4","midi":69,"time":31.556618499999903,"velocity":0.7637795275590551,"duration":0.12971704166666598},{"name":"B4","midi":71,"time":31.6981279999999,"velocity":0.7637795275590551,"duration":0.12971704166666598},{"name":"D5","midi":74,"time":31.8396374999999,"velocity":0.7637795275590551,"duration":0.12971704166666598},{"name":"C#5","midi":73,"time":31.981146999999897,"velocity":0.7637795275590551,"duration":0.12971704166666953},{"name":"B4","midi":71,"time":32.1226564999999,"velocity":0.7637795275590551,"duration":0.12971704166666598},{"name":"A4","midi":69,"time":32.264165999999896,"velocity":0.7637795275590551,"duration":0.12971704166666598},{"name":"F#4","midi":66,"time":32.405675499999894,"velocity":0.7637795275590551,"duration":0.12971704166666598},{"name":"A4","midi":69,"time":32.54718499999989,"velocity":0.7637795275590551,"duration":0.12971704166666598},{"name":"C#5","midi":73,"time":32.68869449999989,"velocity":0.7637795275590551,"duration":0.12971704166666598},{"name":"F#5","midi":78,"time":32.83020399999989,"velocity":0.7637795275590551,"duration":0.12971704166666598},{"name":"D#5","midi":75,"time":32.971713499999886,"velocity":0.7637795275590551,"duration":0.12971704166666598},{"name":"C5","midi":72,"time":33.113222999999884,"velocity":0.7637795275590551,"duration":0.12971704166666598},{"name":"G#4","midi":68,"time":33.25473249999988,"velocity":0.7637795275590551,"duration":0.12971704166666598},{"name":"C5","midi":72,"time":33.39624199999988,"velocity":0.7637795275590551,"duration":0.12971704166666598},{"name":"D#5","midi":75,"time":33.53775149999988,"velocity":0.7637795275590551,"duration":0.12971704166666598},{"name":"F#5","midi":78,"time":33.679260999999876,"velocity":0.7637795275590551,"duration":0.12971704166666598},{"name":"D#5","midi":75,"time":33.820770499999874,"velocity":0.7637795275590551,"duration":0.12971704166666598},{"name":"E5","midi":76,"time":33.96227999999987,"velocity":0.7637795275590551,"duration":0.12971704166666598},{"name":"F#5","midi":78,"time":34.10378949999987,"velocity":0.7637795275590551,"duration":0.12971704166666598},{"name":"E5","midi":76,"time":34.24529899999987,"velocity":0.7637795275590551,"duration":0.12971704166666598},{"name":"D#5","midi":75,"time":34.386808499999866,"velocity":0.7637795275590551,"duration":0.12971704166666598},{"name":"C#5","midi":73,"time":34.528317999999864,"velocity":0.7637795275590551,"duration":0.12971704166666598},{"name":"B4","midi":71,"time":34.66982749999986,"velocity":0.7637795275590551,"duration":0.12971704166666598},{"name":"A4","midi":69,"time":34.81133699999986,"velocity":0.7637795275590551,"duration":0.12971704166666598},{"name":"B4","midi":71,"time":34.95284649999986,"velocity":0.7637795275590551,"duration":0.12971704166666598},{"name":"C#5","midi":73,"time":35.094355999999856,"velocity":0.7637795275590551,"duration":0.12971704166666598},{"name":"B4","midi":71,"time":35.23586549999985,"velocity":0.7637795275590551,"duration":0.12971704166666598},{"name":"A4","midi":69,"time":35.37737499999985,"velocity":0.7637795275590551,"duration":0.12971704166666598},{"name":"G#4","midi":68,"time":35.51888449999985,"velocity":0.7637795275590551,"duration":0.12971704166666598},{"name":"F#4","midi":66,"time":35.66039399999985,"velocity":0.7637795275590551,"duration":0.12971704166666598},{"name":"A4","midi":69,"time":35.801903499999845,"velocity":0.7637795275590551,"duration":0.12971704166666598},{"name":"C#5","midi":73,"time":35.94341299999984,"velocity":0.7637795275590551,"duration":0.12971704166666598},{"name":"A4","midi":69,"time":36.08492249999984,"velocity":0.7637795275590551,"duration":0.12971704166666598},{"name":"F#4","midi":66,"time":36.22643199999984,"velocity":0.7637795275590551,"duration":0.12971704166666598},{"name":"A4","midi":69,"time":36.36794149999984,"velocity":0.7637795275590551,"duration":0.12971704166666598},{"name":"D#4","midi":63,"time":36.509450999999835,"velocity":0.7637795275590551,"duration":0.12971704166666598},{"name":"F#4","midi":66,"time":36.65096049999983,"velocity":0.7637795275590551,"duration":0.12971704166666598},{"name":"A4","midi":69,"time":36.79246999999983,"velocity":0.7637795275590551,"duration":0.12971704166666598},{"name":"F#4","midi":66,"time":36.93397949999983,"velocity":0.7637795275590551,"duration":0.12971704166666598},{"name":"D#4","midi":63,"time":37.07548899999983,"velocity":0.7637795275590551,"duration":0.12971704166666598},{"name":"F#4","midi":66,"time":37.216998499999825,"velocity":0.7637795275590551,"duration":0.12971704166666598},{"name":"C4","midi":60,"time":37.35850799999982,"velocity":0.7637795275590551,"duration":0.22641519999999815},{"name":"D#4","midi":63,"time":37.64152699999982,"velocity":0.7637795275590551,"duration":0.22641519999999815},{"name":"F#4","midi":66,"time":37.924545999999815,"velocity":0.7637795275590551,"duration":0.22641519999999815},{"name":"A4","midi":69,"time":38.20756499999981,"velocity":0.7637795275590551,"duration":0.22641519999999815},{"name":"G#4","midi":68,"time":38.49058399999981,"velocity":0.7637795275590551,"duration":0.22641519999999815},{"name":"C5","midi":72,"time":38.7736029999998,"velocity":0.7637795275590551,"duration":0.22641519999999815},{"name":"C#5","midi":73,"time":39.0566219999998,"velocity":0.7637795275590551,"duration":0.12971704166666598},{"name":"E5","midi":76,"time":39.198131499999796,"velocity":0.7637795275590551,"duration":0.12971704166666598},{"name":"G#5","midi":80,"time":39.339640999999794,"velocity":0.7637795275590551,"duration":0.12971704166666598},{"name":"E5","midi":76,"time":39.48115049999979,"velocity":0.7637795275590551,"duration":0.12971704166666598},{"name":"C#5","midi":73,"time":39.62265999999979,"velocity":0.7637795275590551,"duration":0.12971704166666598},{"name":"E5","midi":76,"time":39.76416949999979,"velocity":0.7637795275590551,"duration":0.12971704166666598},{"name":"G#5","midi":80,"time":39.905678999999786,"velocity":0.7637795275590551,"duration":0.12971704166666598},{"name":"E5","midi":76,"time":40.047188499999784,"velocity":0.7637795275590551,"duration":0.12971704166666598},{"name":"C#5","midi":73,"time":40.18869799999978,"velocity":0.7637795275590551,"duration":0.12971704166666598},{"name":"E5","midi":76,"time":40.33020749999978,"velocity":0.7637795275590551,"duration":0.12971704166666598},{"name":"G#5","midi":80,"time":40.47171699999978,"velocity":0.7637795275590551,"duration":0.12971704166666598},{"name":"E5","midi":76,"time":40.613226499999776,"velocity":0.7637795275590551,"duration":0.12971704166666598},{"name":"C#5","midi":73,"time":40.754735999999774,"velocity":0.7637795275590551,"duration":0.12971704166666598},{"name":"E5","midi":76,"time":40.89624549999977,"velocity":0.7637795275590551,"duration":0.12971704166666598},{"name":"F#5","midi":78,"time":41.03775499999977,"velocity":0.7637795275590551,"duration":0.12971704166666598},{"name":"E5","midi":76,"time":41.17926449999977,"velocity":0.7637795275590551,"duration":0.12971704166666598},{"name":"C#5","midi":73,"time":41.320773999999766,"velocity":0.7637795275590551,"duration":0.12971704166666598},{"name":"E5","midi":76,"time":41.462283499999764,"velocity":0.7637795275590551,"duration":0.12971704166666598},{"name":"F#5","midi":78,"time":41.60379299999976,"velocity":0.7637795275590551,"duration":0.12971704166666598},{"name":"E5","midi":76,"time":41.74530249999976,"velocity":0.7637795275590551,"duration":0.12971704166666598},{"name":"C#5","midi":73,"time":41.88681199999976,"velocity":0.7637795275590551,"duration":0.12971704166666598},{"name":"E5","midi":76,"time":42.028321499999755,"velocity":0.7637795275590551,"duration":0.12971704166666598},{"name":"F#5","midi":78,"time":42.16983099999975,"velocity":0.7637795275590551,"duration":0.12971704166666598},{"name":"A#4","midi":70,"time":42.31134049999975,"velocity":0.7637795275590551,"duration":0.12971704166666598},{"name":"B4","midi":71,"time":42.45284999999975,"velocity":0.7637795275590551,"duration":0.12971704166666598},{"name":"D5","midi":74,"time":42.59435949999975,"velocity":0.7637795275590551,"duration":0.12971704166666598},{"name":"F#5","midi":78,"time":42.735868999999745,"velocity":0.7637795275590551,"duration":0.12971704166666598},{"name":"D5","midi":74,"time":42.87737849999974,"velocity":0.7637795275590551,"duration":0.12971704166666598},{"name":"B4","midi":71,"time":43.01888799999974,"velocity":0.7637795275590551,"duration":0.12971704166666598},{"name":"D5","midi":74,"time":43.16039749999974,"velocity":0.7637795275590551,"duration":0.12971704166666598},{"name":"F#5","midi":78,"time":43.30190699999974,"velocity":0.7637795275590551,"duration":0.12971704166666598},{"name":"D5","midi":74,"time":43.443416499999735,"velocity":0.7637795275590551,"duration":0.12971704166666598},{"name":"B4","midi":71,"time":43.58492599999973,"velocity":0.7637795275590551,"duration":0.12971704166666598},{"name":"D5","midi":74,"time":43.72643549999973,"velocity":0.7637795275590551,"duration":0.12971704166666598},{"name":"F#5","midi":78,"time":43.86794499999973,"velocity":0.7637795275590551,"duration":0.12971704166666598},{"name":"D5","midi":74,"time":44.00945449999973,"velocity":0.7637795275590551,"duration":0.12971704166666598},{"name":"B4","midi":71,"time":44.150963999999725,"velocity":0.7637795275590551,"duration":0.12971704166666598},{"name":"D5","midi":74,"time":44.29247349999972,"velocity":0.7637795275590551,"duration":0.12971704166666598},{"name":"E5","midi":76,"time":44.43398299999972,"velocity":0.7637795275590551,"duration":0.12971704166666598},{"name":"D5","midi":74,"time":44.57549249999972,"velocity":0.7637795275590551,"duration":0.12971704166666598},{"name":"B4","midi":71,"time":44.71700199999972,"velocity":0.7637795275590551,"duration":0.12971704166666598},{"name":"D5","midi":74,"time":44.858511499999715,"velocity":0.7637795275590551,"duration":0.12971704166666598},{"name":"E5","midi":76,"time":45.00002099999971,"velocity":0.7637795275590551,"duration":0.12971704166666598},{"name":"D5","midi":74,"time":45.14153049999971,"velocity":0.7637795275590551,"duration":0.12971704166666598},{"name":"B4","midi":71,"time":45.28303999999971,"velocity":0.7637795275590551,"duration":0.12971704166666598},{"name":"D5","midi":74,"time":45.424549499999706,"velocity":0.7637795275590551,"duration":0.12971704166666598},{"name":"E5","midi":76,"time":45.566058999999704,"velocity":0.7637795275590551,"duration":0.12971704166666598},{"name":"G#4","midi":68,"time":45.7075684999997,"velocity":0.7637795275590551,"duration":0.12971704166666598},{"name":"A4","midi":69,"time":45.8490779999997,"velocity":0.7637795275590551,"duration":0.12971704166666598},{"name":"G#4","midi":68,"time":45.9198327499997,"velocity":0.7637795275590551,"duration":0.12971704166666598},{"name":"A4","midi":69,"time":45.9905874999997,"velocity":0.7637795275590551,"duration":0.39150961666666717},{"name":"A4","midi":69,"time":46.4151159999997,"velocity":0.7637795275590551,"duration":0.22641519999999815},{"name":"A4","midi":69,"time":46.698134999999695,"velocity":0.7637795275590551,"duration":0.12971704166666598},{"name":"G#4","midi":68,"time":46.768889749999694,"velocity":0.7637795275590551,"duration":0.12971704166666598},{"name":"A4","midi":69,"time":46.83964449999969,"velocity":0.7637795275590551,"duration":0.39150961666666717},{"name":"A4","midi":69,"time":47.264172999999694,"velocity":0.7637795275590551,"duration":0.22641519999999815},{"name":"A4","midi":69,"time":47.54719199999969,"velocity":0.7637795275590551,"duration":0.12971704166666598},{"name":"D#5","midi":75,"time":47.68870149999969,"velocity":0.7637795275590551,"duration":0.12971704166666598},{"name":"B4","midi":71,"time":47.830210999999686,"velocity":0.7637795275590551,"duration":0.12971704166666598},{"name":"A4","midi":69,"time":47.971720499999684,"velocity":0.7637795275590551,"duration":0.12971704166666598},{"name":"F#4","midi":66,"time":48.11322999999968,"velocity":0.7637795275590551,"duration":0.12971704166666598},{"name":"A4","midi":69,"time":48.25473949999968,"velocity":0.7637795275590551,"duration":0.12971704166666598},{"name":"B4","midi":71,"time":48.39624899999968,"velocity":0.7637795275590551,"duration":0.12971704166666598},{"name":"D#5","midi":75,"time":48.537758499999676,"velocity":0.7637795275590551,"duration":0.12971704166666598},{"name":"B4","midi":71,"time":48.679267999999674,"velocity":0.7637795275590551,"duration":0.12971704166666598},{"name":"A4","midi":69,"time":48.82077749999967,"velocity":0.7637795275590551,"duration":0.12971704166666598},{"name":"F#4","midi":66,"time":48.96228699999967,"velocity":0.7637795275590551,"duration":0.12971704166666598},{"name":"A4","midi":69,"time":49.10379649999967,"velocity":0.7637795275590551,"duration":0.12971704166666598},{"name":"G4","midi":67,"time":49.245305999999665,"velocity":0.7637795275590551,"duration":0.12971704166666598},{"name":"F#4","midi":66,"time":49.316060749999664,"velocity":0.7637795275590551,"duration":0.12971704166666598},{"name":"G4","midi":67,"time":49.38681549999966,"velocity":0.7637795275590551,"duration":0.39150961666666717},{"name":"G4","midi":67,"time":49.811343999999664,"velocity":0.7637795275590551,"duration":0.22641519999999815},{"name":"G4","midi":67,"time":50.09436299999966,"velocity":0.7637795275590551,"duration":0.12971704166666598},{"name":"F#4","midi":66,"time":50.16511774999966,"velocity":0.7637795275590551,"duration":0.12971704166666598},{"name":"G4","midi":67,"time":50.23587249999966,"velocity":0.7637795275590551,"duration":0.39150961666666717},{"name":"G4","midi":67,"time":50.66040099999966,"velocity":0.7637795275590551,"duration":0.22641519999999815},{"name":"G4","midi":67,"time":50.943419999999655,"velocity":0.7637795275590551,"duration":0.12971704166666598},{"name":"E5","midi":76,"time":51.08492949999965,"velocity":0.7637795275590551,"duration":0.12971704166666598},{"name":"C#5","midi":73,"time":51.22643899999965,"velocity":0.7637795275590551,"duration":0.12971704166666598},{"name":"G4","midi":67,"time":51.36794849999965,"velocity":0.7637795275590551,"duration":0.12971704166666598},{"name":"E4","midi":64,"time":51.50945799999965,"velocity":0.7637795275590551,"duration":0.12971704166666598},{"name":"G4","midi":67,"time":51.650967499999645,"velocity":0.7637795275590551,"duration":0.12971704166666598},{"name":"C#5","midi":73,"time":51.79247699999964,"velocity":0.7637795275590551,"duration":0.12971704166666598},{"name":"E5","midi":76,"time":51.93398649999964,"velocity":0.7637795275590551,"duration":0.12971704166666598},{"name":"C#5","midi":73,"time":52.07549599999964,"velocity":0.7637795275590551,"duration":0.12971704166666598},{"name":"G4","midi":67,"time":52.21700549999964,"velocity":0.7637795275590551,"duration":0.12971704166666598},{"name":"E4","midi":64,"time":52.358514999999635,"velocity":0.7637795275590551,"duration":0.12971704166666598},{"name":"G4","midi":67,"time":52.50002449999963,"velocity":0.7637795275590551,"duration":0.12971704166666598},{"name":"F#4","midi":66,"time":52.64153399999963,"velocity":0.7637795275590551,"duration":0.5212266583333331},{"name":"G#3","midi":56,"time":53.63210049999963,"velocity":0.7637795275590551,"duration":0.12971704166666598},{"name":"B3","midi":59,"time":53.77360999999963,"velocity":0.7637795275590551,"duration":0.12971704166666598},{"name":"D4","midi":62,"time":53.915119499999626,"velocity":0.7637795275590551,"duration":0.12971704166666598},{"name":"G#4","midi":68,"time":54.056628999999624,"velocity":0.7637795275590551,"duration":0.12971704166666598},{"name":"F#4","midi":66,"time":54.19813849999962,"velocity":0.7637795275590551,"duration":0.12971704166666598},{"name":"E4","midi":64,"time":54.33964799999962,"velocity":0.7637795275590551,"duration":0.5212266583333331},{"name":"F#3","midi":54,"time":55.33021449999962,"velocity":0.7637795275590551,"duration":0.12971704166666598},{"name":"A3","midi":57,"time":55.47172399999962,"velocity":0.7637795275590551,"duration":0.12971704166666598},{"name":"C#4","midi":61,"time":55.613233499999616,"velocity":0.7637795275590551,"duration":0.12971704166666598},{"name":"F#4","midi":66,"time":55.754742999999614,"velocity":0.7637795275590551,"duration":0.12971704166666598},{"name":"E4","midi":64,"time":55.89625249999961,"velocity":0.7637795275590551,"duration":0.12971704166666598},{"name":"D4","midi":62,"time":56.03776199999961,"velocity":0.7637795275590551,"duration":0.5212266583333331},{"name":"E3","midi":52,"time":57.02832849999961,"velocity":0.7637795275590551,"duration":0.12971704166666598},{"name":"G#3","midi":56,"time":57.16983799999961,"velocity":0.7637795275590551,"duration":0.12971704166666598},{"name":"B3","midi":59,"time":57.311347499999606,"velocity":0.7637795275590551,"duration":0.12971704166666598},{"name":"E4","midi":64,"time":57.452856999999604,"velocity":0.7637795275590551,"duration":0.12971704166666598},{"name":"D4","midi":62,"time":57.5943664999996,"velocity":0.7637795275590551,"duration":0.12971704166666598},{"name":"C#4","midi":61,"time":57.7358759999996,"velocity":0.7637795275590551,"duration":0.12971704166666598},{"name":"A3","midi":57,"time":57.8773854999996,"velocity":0.7637795275590551,"duration":0.12971704166666598},{"name":"C#4","midi":61,"time":58.018894999999596,"velocity":0.7637795275590551,"duration":0.12971704166666598},{"name":"E4","midi":64,"time":58.16040449999959,"velocity":0.7637795275590551,"duration":0.12971704166666598},{"name":"A4","midi":69,"time":58.30191399999959,"velocity":0.7637795275590551,"duration":0.12971704166666598},{"name":"E4","midi":64,"time":58.44342349999959,"velocity":0.7637795275590551,"duration":0.12971704166666598},{"name":"C#5","midi":73,"time":58.58493299999959,"velocity":0.7637795275590551,"duration":0.12971704166666598},{"name":"A4","midi":69,"time":58.726442499999585,"velocity":0.7637795275590551,"duration":0.12971704166666598},{"name":"C#5","midi":73,"time":58.86795199999958,"velocity":0.7637795275590551,"duration":0.12971704166666598},{"name":"E5","midi":76,"time":59.00946149999958,"velocity":0.7637795275590551,"duration":0.12971704166666598},{"name":"A5","midi":81,"time":59.15097099999958,"velocity":0.7637795275590551,"duration":0.12971704166666598},{"name":"C#5","midi":73,"time":59.29248049999958,"velocity":0.7637795275590551,"duration":0.12971704166666598},{"name":"D5","midi":74,"time":59.433989999999575,"velocity":0.7637795275590551,"duration":0.12971704166666598},{"name":"F#5","midi":78,"time":59.57549949999957,"velocity":0.7637795275590551,"duration":0.12971704166666598},{"name":"A5","midi":81,"time":59.71700899999957,"velocity":0.7637795275590551,"duration":0.12971704166666598},{"name":"F#5","midi":78,"time":59.85851849999957,"velocity":0.7637795275590551,"duration":0.12971704166666598},{"name":"D5","midi":74,"time":60.00002799999957,"velocity":0.7637795275590551,"duration":0.12971704166666598},{"name":"F#5","midi":78,"time":60.141537499999565,"velocity":0.7637795275590551,"duration":0.12971704166666598},{"name":"B4","midi":71,"time":60.28304699999956,"velocity":0.7637795275590551,"duration":0.12971704166666598},{"name":"D5","midi":74,"time":60.42455649999956,"velocity":0.7637795275590551,"duration":0.12971704166666598},{"name":"F#5","midi":78,"time":60.56606599999956,"velocity":0.7637795275590551,"duration":0.12971704166666598},{"name":"D5","midi":74,"time":60.70757549999956,"velocity":0.7637795275590551,"duration":0.12971704166666598},{"name":"B4","midi":71,"time":60.849084999999555,"velocity":0.7637795275590551,"duration":0.12971704166666598},{"name":"D5","midi":74,"time":60.99059449999955,"velocity":0.7637795275590551,"duration":0.12971704166666598},{"name":"G#4","midi":68,"time":61.13210399999955,"velocity":0.7637795275590551,"duration":0.21226424999999693},{"name":"B4","midi":71,"time":61.41512299999955,"velocity":0.7637795275590551,"duration":0.21226424999999693},{"name":"D5","midi":74,"time":61.69814199999954,"velocity":0.7637795275590551,"duration":0.21226424999999693},{"name":"F#5","midi":78,"time":61.98116099999954,"velocity":0.7637795275590551,"duration":0.27830201666666454},{"name":"E5","midi":76,"time":62.264179999999534,"velocity":0.7637795275590551,"duration":0.25943408333333196},{"name":"B4","midi":71,"time":62.54719899999953,"velocity":0.7637795275590551,"duration":0.21226424999999693},{"name":"F#5","midi":78,"time":62.830217999999526,"velocity":0.7637795275590551,"duration":0.27830201666666454},{"name":"E5","midi":76,"time":63.11323699999952,"velocity":0.7637795275590551,"duration":0.25943408333333196},{"name":"A4","midi":69,"time":63.39625599999952,"velocity":0.7637795275590551,"duration":0.21226424999999693},{"name":"E5","midi":76,"time":63.679274999999514,"velocity":0.7637795275590551,"duration":0.27830201666666454},{"name":"D5","midi":74,"time":63.96229399999951,"velocity":0.7637795275590551,"duration":0.25943408333333906},{"name":"G#4","midi":68,"time":64.24531299999951,"velocity":0.7637795275590551,"duration":0.21226425000000404},{"name":"D5","midi":74,"time":64.52833199999952,"velocity":0.7637795275590551,"duration":0.27830201666667165},{"name":"C#5","midi":73,"time":64.81135099999953,"velocity":0.7637795275590551,"duration":0.25943408333333196},{"name":"E4","midi":64,"time":65.09436999999953,"velocity":0.7637795275590551,"duration":0.21226425000000404},{"name":"F#4","midi":66,"time":65.37738899999954,"velocity":0.7637795275590551,"duration":0.12971704166666598},{"name":"G#4","midi":68,"time":65.51889849999954,"velocity":0.7637795275590551,"duration":0.12971704166666598},{"name":"A4","midi":69,"time":65.66040799999953,"velocity":0.7637795275590551,"duration":0.12971704166666598},{"name":"B4","midi":71,"time":65.80191749999953,"velocity":0.7637795275590551,"duration":0.12971704166666598},{"name":"C#5","midi":73,"time":65.94342699999953,"velocity":0.7637795275590551,"duration":0.12971704166666598},{"name":"D5","midi":74,"time":66.08493649999953,"velocity":0.7637795275590551,"duration":0.12971704166666598},{"name":"G#4","midi":68,"time":66.22644599999953,"velocity":0.7637795275590551,"duration":0.12971704166666598},{"name":"E4","midi":64,"time":66.36795549999952,"velocity":0.7637795275590551,"duration":0.12971704166666598},{"name":"G#4","midi":68,"time":66.50946499999952,"velocity":0.7637795275590551,"duration":0.12971704166666598},{"name":"B4","midi":71,"time":66.65097449999952,"velocity":0.7637795275590551,"duration":0.12971704166666598},{"name":"E5","midi":76,"time":66.79248399999952,"velocity":0.7637795275590551,"duration":0.12971704166666598},{"name":"B4","midi":71,"time":66.93399349999952,"velocity":0.7637795275590551,"duration":0.12971704166666598},{"name":"G#5","midi":80,"time":67.07550299999951,"velocity":0.7637795275590551,"duration":0.12971704166666598},{"name":"E5","midi":76,"time":67.21701249999951,"velocity":0.7637795275590551,"duration":0.12971704166666598},{"name":"B5","midi":83,"time":67.35852199999951,"velocity":0.7637795275590551,"duration":0.12971704166666598},{"name":"G#5","midi":80,"time":67.50003149999951,"velocity":0.7637795275590551,"duration":0.12971704166666598},{"name":"E5","midi":76,"time":67.6415409999995,"velocity":0.7637795275590551,"duration":0.12971704166666598},{"name":"G#5","midi":80,"time":67.7830504999995,"velocity":0.7637795275590551,"duration":0.12971704166666598},{"name":"A5","midi":81,"time":67.9245599999995,"velocity":0.7637795275590551,"duration":0.21226425000000404},{"name":"E5","midi":76,"time":68.20757899999951,"velocity":0.7637795275590551,"duration":0.21226425000000404},{"name":"C#5","midi":73,"time":68.49059799999952,"velocity":0.7637795275590551,"duration":0.21226425000000404},{"name":"A4","midi":69,"time":68.77361699999953,"velocity":0.7637795275590551,"duration":0.12971704166666598},{"name":"D5","midi":74,"time":68.91512649999953,"velocity":0.7637795275590551,"duration":0.12971704166666598},{"name":"C#5","midi":73,"time":69.05663599999953,"velocity":0.7637795275590551,"duration":0.12971704166666598},{"name":"B4","midi":71,"time":69.19814549999953,"velocity":0.7637795275590551,"duration":0.12971704166666598},{"name":"E5","midi":76,"time":69.33965499999952,"velocity":0.7637795275590551,"duration":0.4127360416666619},{"name":"F#5","midi":78,"time":69.76418349999952,"velocity":0.7637795275590551,"duration":0.12971704166666598},{"name":"C#5","midi":73,"time":69.90569299999952,"velocity":0.7637795275590551,"duration":0.21226425000000404},{"name":"B4","midi":71,"time":70.18871199999953,"velocity":0.7637795275590551,"duration":0.10613212500000202},{"name":"A4","midi":69,"time":70.33022149999952,"velocity":0.7637795275590551,"duration":0.10613212500000202},{"name":"A4","midi":69,"time":70.47173099999952,"velocity":0.7637795275590551,"duration":2.207548200000005}],"controlChanges":{"7":[{"number":7,"time":0,"value":0.8661417322834646}],"10":[{"number":10,"time":0,"value":0.6220472440944882}]},"id":1,"name":"Harpsichord RH","instrumentNumber":6,"instrument":"harpsichord","instrumentFamily":"piano","channelNumber":0,"isPercussion":false},{"startTime":0,"duration":72.67927919999944,"length":405,"notes":[{"name":"A3","midi":57,"time":0,"velocity":0.7637795275590551,"duration":0.12971704166666667},{"name":"B3","midi":59,"time":0.1415095,"velocity":0.7637795275590551,"duration":0.1297170416666667},{"name":"C#4","midi":61,"time":0.283019,"velocity":0.7637795275590551,"duration":0.12971704166666664},{"name":"B3","midi":59,"time":0.4245285,"velocity":0.7637795275590551,"duration":0.12971704166666664},{"name":"A3","midi":57,"time":0.5660379999999999,"velocity":0.7637795275590551,"duration":0.12971704166666664},{"name":"G#3","midi":56,"time":0.7075474999999999,"velocity":0.7637795275590551,"duration":0.12971704166666664},{"name":"F#3","midi":54,"time":0.8490569999999998,"velocity":0.7637795275590551,"duration":0.12971704166666664},{"name":"G#3","midi":56,"time":0.9905664999999998,"velocity":0.7637795275590551,"duration":0.12971704166666675},{"name":"A3","midi":57,"time":1.1320759999999999,"velocity":0.7637795275590551,"duration":0.12971704166666664},{"name":"G#3","midi":56,"time":1.2735854999999998,"velocity":0.7637795275590551,"duration":0.12971704166666664},{"name":"F#3","midi":54,"time":1.4150949999999998,"velocity":0.7637795275590551,"duration":0.12971704166666664},{"name":"E3","midi":52,"time":1.5566044999999997,"velocity":0.7637795275590551,"duration":0.12971704166666664},{"name":"D3","midi":50,"time":1.6981139999999997,"velocity":0.7637795275590551,"duration":0.12971704166666664},{"name":"F#3","midi":54,"time":1.8396234999999996,"velocity":0.7637795275590551,"duration":0.12971704166666664},{"name":"A3","midi":57,"time":1.9811329999999996,"velocity":0.7637795275590551,"duration":0.12971704166666664},{"name":"F#3","midi":54,"time":2.1226424999999995,"velocity":0.7637795275590551,"duration":0.12971704166666687},{"name":"D3","midi":50,"time":2.2641519999999997,"velocity":0.7637795275590551,"duration":0.12971704166666687},{"name":"F#3","midi":54,"time":2.4056615,"velocity":0.7637795275590551,"duration":0.12971704166666687},{"name":"B2","midi":47,"time":2.547171,"velocity":0.7637795275590551,"duration":0.12971704166666687},{"name":"D3","midi":50,"time":2.6886805000000003,"velocity":0.7637795275590551,"duration":0.12971704166666687},{"name":"F#3","midi":54,"time":2.8301900000000004,"velocity":0.7637795275590551,"duration":0.12971704166666687},{"name":"D3","midi":50,"time":2.9716995000000006,"velocity":0.7637795275590551,"duration":0.12971704166666687},{"name":"B2","midi":47,"time":3.113209000000001,"velocity":0.7637795275590551,"duration":0.12971704166666687},{"name":"D3","midi":50,"time":3.254718500000001,"velocity":0.7637795275590551,"duration":0.12971704166666687},{"name":"G#2","midi":44,"time":3.396228000000001,"velocity":0.7637795275590551,"duration":0.22641519999999993},{"name":"B2","midi":47,"time":3.679247000000001,"velocity":0.7637795275590551,"duration":0.22641519999999993},{"name":"G#2","midi":44,"time":3.962266000000001,"velocity":0.7637795275590551,"duration":0.22641520000000037},{"name":"E2","midi":40,"time":4.245285000000002,"velocity":0.7637795275590551,"duration":0.22641519999999993},{"name":"F#2","midi":42,"time":4.528304000000002,"velocity":0.7637795275590551,"duration":0.22641519999999993},{"name":"G#2","midi":44,"time":4.8113230000000025,"velocity":0.7637795275590551,"duration":0.22641519999999993},{"name":"A2","midi":45,"time":5.094342000000003,"velocity":0.7637795275590551,"duration":0.7806607416666669},{"name":"E3","midi":52,"time":6.792456000000003,"velocity":0.7637795275590551,"duration":0.12971704166666687},{"name":"D#3","midi":51,"time":6.863210750000003,"velocity":0.7637795275590551,"duration":0.12971704166666775},{"name":"E3","midi":52,"time":6.933965500000004,"velocity":0.7637795275590551,"duration":0.39150961666666717},{"name":"E3","midi":52,"time":7.358494000000004,"velocity":0.7637795275590551,"duration":0.22641519999999993},{"name":"E3","midi":52,"time":7.641513000000004,"velocity":0.7637795275590551,"duration":0.12971704166666687},{"name":"D#3","midi":51,"time":7.712267750000004,"velocity":0.7637795275590551,"duration":0.12971704166666775},{"name":"E3","midi":52,"time":7.783022500000005,"velocity":0.7637795275590551,"duration":0.39150961666666717},{"name":"E3","midi":52,"time":8.207551000000006,"velocity":0.7637795275590551,"duration":0.22641519999999993},{"name":"F#3","midi":54,"time":8.490570000000005,"velocity":0.7637795275590551,"duration":0.0919811750000008},{"name":"E3","midi":52,"time":8.584909666666674,"velocity":0.7637795275590551,"duration":0.0919811750000008},{"name":"F#3","midi":54,"time":8.679249333333342,"velocity":0.7637795275590551,"duration":0.0919811750000008},{"name":"G#3","midi":56,"time":8.77358900000001,"velocity":0.7637795275590551,"duration":0.0919811750000008},{"name":"F#3","midi":54,"time":8.867928666666678,"velocity":0.7637795275590551,"duration":0.0919811750000008},{"name":"G#3","midi":56,"time":8.962268333333347,"velocity":0.7637795275590551,"duration":0.0919811750000008},{"name":"F#3","midi":54,"time":9.056608000000015,"velocity":0.7637795275590551,"duration":0.0919811750000008},{"name":"G#3","midi":56,"time":9.150947666666683,"velocity":0.7637795275590551,"duration":0.0919811750000008},{"name":"F#3","midi":54,"time":9.245287333333351,"velocity":0.7637795275590551,"duration":0.0919811750000008},{"name":"G#3","midi":56,"time":9.33962700000002,"velocity":0.7637795275590551,"duration":0.0919811750000008},{"name":"F#3","midi":54,"time":9.433966666666688,"velocity":0.7637795275590551,"duration":0.0919811750000008},{"name":"G#3","midi":56,"time":9.528306333333356,"velocity":0.7637795275590551,"duration":0.0919811750000008},{"name":"F#3","midi":54,"time":9.622646000000024,"velocity":0.7637795275590551,"duration":0.0919811750000008},{"name":"G#3","midi":56,"time":9.716985666666693,"velocity":0.7637795275590551,"duration":0.0919811750000008},{"name":"F#3","midi":54,"time":9.811325333333361,"velocity":0.7637795275590551,"duration":0.0919811750000008},{"name":"G#3","midi":56,"time":9.90566500000003,"velocity":0.7637795275590551,"duration":0.0919811750000008},{"name":"F#3","midi":54,"time":10.000004666666698,"velocity":0.7637795275590551,"duration":0.31839637500000073},{"name":"E3","midi":52,"time":10.330193500000032,"velocity":0.7637795275590551,"duration":0.12971704166666598},{"name":"D#3","midi":51,"time":10.471703000000032,"velocity":0.7637795275590551,"duration":0.12971704166666598},{"name":"E3","midi":52,"time":10.613212500000031,"velocity":0.7637795275590551,"duration":0.12971704166666598},{"name":"F#3","midi":54,"time":10.754722000000031,"velocity":0.7637795275590551,"duration":0.12971704166666598},{"name":"G#3","midi":56,"time":10.896231500000031,"velocity":0.7637795275590551,"duration":0.12971704166666598},{"name":"A3","midi":57,"time":11.03774100000003,"velocity":0.7637795275590551,"duration":0.12971704166666598},{"name":"G#3","midi":56,"time":11.17925050000003,"velocity":0.7637795275590551,"duration":0.12971704166666598},{"name":"A3","midi":57,"time":11.32076000000003,"velocity":0.7637795275590551,"duration":0.12971704166666598},{"name":"C#4","midi":61,"time":11.46226950000003,"velocity":0.7637795275590551,"duration":0.12971704166666598},{"name":"B3","midi":59,"time":11.60377900000003,"velocity":0.7637795275590551,"duration":0.12971704166666598},{"name":"A3","midi":57,"time":11.74528850000003,"velocity":0.7637795275590551,"duration":0.12971704166666598},{"name":"G#3","midi":56,"time":11.886798000000029,"velocity":0.7637795275590551,"duration":0.12971704166666598},{"name":"E3","midi":52,"time":12.028307500000029,"velocity":0.7637795275590551,"duration":0.12971704166666598},{"name":"G#3","midi":56,"time":12.169817000000029,"velocity":0.7637795275590551,"duration":0.12971704166666598},{"name":"B3","midi":59,"time":12.311326500000028,"velocity":0.7637795275590551,"duration":0.12971704166666598},{"name":"E4","midi":64,"time":12.452836000000028,"velocity":0.7637795275590551,"duration":0.12971704166666598},{"name":"B3","midi":59,"time":12.594345500000028,"velocity":0.7637795275590551,"duration":0.12971704166666598},{"name":"G#3","midi":56,"time":12.735855000000027,"velocity":0.7637795275590551,"duration":0.12971704166666598},{"name":"E3","midi":52,"time":12.877364500000027,"velocity":0.7637795275590551,"duration":0.12971704166666598},{"name":"G#3","midi":56,"time":13.018874000000027,"velocity":0.7637795275590551,"duration":0.12971704166666598},{"name":"B3","midi":59,"time":13.160383500000027,"velocity":0.7637795275590551,"duration":0.12971704166666598},{"name":"D4","midi":62,"time":13.301893000000026,"velocity":0.7637795275590551,"duration":0.12971704166666598},{"name":"B3","midi":59,"time":13.443402500000026,"velocity":0.7637795275590551,"duration":0.12971704166666598},{"name":"C#4","midi":61,"time":13.584912000000026,"velocity":0.7637795275590551,"duration":0.12971704166666598},{"name":"D4","midi":62,"time":13.726421500000026,"velocity":0.7637795275590551,"duration":0.12971704166666598},{"name":"E4","midi":64,"time":13.867931000000025,"velocity":0.7637795275590551,"duration":0.12971704166666598},{"name":"D4","midi":62,"time":14.009440500000025,"velocity":0.7637795275590551,"duration":0.12971704166666598},{"name":"C#4","midi":61,"time":14.150950000000025,"velocity":0.7637795275590551,"duration":0.12971704166666598},{"name":"B3","midi":59,"time":14.292459500000025,"velocity":0.7637795275590551,"duration":0.12971704166666598},{"name":"A3","midi":57,"time":14.433969000000024,"velocity":0.7637795275590551,"duration":0.12971704166666598},{"name":"B3","midi":59,"time":14.575478500000024,"velocity":0.7637795275590551,"duration":0.12971704166666598},{"name":"C#4","midi":61,"time":14.716988000000024,"velocity":0.7637795275590551,"duration":0.12971704166666598},{"name":"B3","midi":59,"time":14.858497500000023,"velocity":0.7637795275590551,"duration":0.12971704166666598},{"name":"A3","midi":57,"time":15.000007000000023,"velocity":0.7637795275590551,"duration":0.12971704166666598},{"name":"G#3","midi":56,"time":15.141516500000023,"velocity":0.7637795275590551,"duration":0.12971704166666598},{"name":"F#3","midi":54,"time":15.283026000000023,"velocity":0.7637795275590551,"duration":0.25943408333333373},{"name":"F#4","midi":66,"time":15.566045000000024,"velocity":0.7637795275590551,"duration":0.25943408333333373},{"name":"C#4","midi":61,"time":15.849064000000025,"velocity":0.7637795275590551,"duration":0.25943408333333373},{"name":"A3","midi":57,"time":16.132083000000026,"velocity":0.7637795275590551,"duration":0.25943408333333196},{"name":"F#3","midi":54,"time":16.415102000000026,"velocity":0.7637795275590551,"duration":0.25943408333333196},{"name":"A3","midi":57,"time":16.698121000000025,"velocity":0.7637795275590551,"duration":0.25943408333333196},{"name":"B3","midi":59,"time":16.981140000000025,"velocity":0.7637795275590551,"duration":0.12971704166666598},{"name":"C#4","midi":61,"time":17.122649500000023,"velocity":0.7637795275590551,"duration":0.12971704166666598},{"name":"D4","midi":62,"time":17.26415900000002,"velocity":0.7637795275590551,"duration":0.12971704166666598},{"name":"C#4","midi":61,"time":17.40566850000002,"velocity":0.7637795275590551,"duration":0.12971704166666598},{"name":"B3","midi":59,"time":17.547178000000017,"velocity":0.7637795275590551,"duration":0.12971704166666598},{"name":"A3","midi":57,"time":17.688687500000015,"velocity":0.7637795275590551,"duration":0.12971704166666598},{"name":"G#3","midi":56,"time":17.830197000000013,"velocity":0.7637795275590551,"duration":0.12971704166666598},{"name":"A3","midi":57,"time":17.97170650000001,"velocity":0.7637795275590551,"duration":0.12971704166666598},{"name":"B3","midi":59,"time":18.11321600000001,"velocity":0.7637795275590551,"duration":0.12971704166666598},{"name":"A3","midi":57,"time":18.254725500000006,"velocity":0.7637795275590551,"duration":0.12971704166666598},{"name":"G#3","midi":56,"time":18.396235000000004,"velocity":0.7637795275590551,"duration":0.12971704166666598},{"name":"F#3","midi":54,"time":18.537744500000002,"velocity":0.7637795275590551,"duration":0.12971704166666598},{"name":"E3","midi":52,"time":18.679254,"velocity":0.7637795275590551,"duration":0.25943408333333196},{"name":"B2","midi":47,"time":18.962273,"velocity":0.7637795275590551,"duration":0.25943408333333196},{"name":"G#2","midi":44,"time":19.245292,"velocity":0.7637795275590551,"duration":0.25943408333333196},{"name":"E2","midi":40,"time":19.528311,"velocity":0.7637795275590551,"duration":0.7806607416666651},{"name":"A3","midi":57,"time":20.5188775,"velocity":0.7637795275590551,"duration":0.12971704166666598},{"name":"C#4","midi":61,"time":20.660386999999997,"velocity":0.7637795275590551,"duration":0.12971704166666598},{"name":"E4","midi":64,"time":20.801896499999994,"velocity":0.7637795275590551,"duration":0.12971704166666598},{"name":"A4","midi":69,"time":20.943405999999992,"velocity":0.7637795275590551,"duration":0.12971704166666598},{"name":"G#4","midi":68,"time":21.08491549999999,"velocity":0.7637795275590551,"duration":0.12971704166666598},{"name":"F#4","midi":66,"time":21.22642499999999,"velocity":0.7637795275590551,"duration":0.5212266583333331},{"name":"G#3","midi":56,"time":22.21699149999999,"velocity":0.7637795275590551,"duration":0.12971704166666598},{"name":"B3","midi":59,"time":22.358500999999986,"velocity":0.7637795275590551,"duration":0.12971704166666598},{"name":"D#4","midi":63,"time":22.500010499999984,"velocity":0.7637795275590551,"duration":0.12971704166666598},{"name":"G#4","midi":68,"time":22.641519999999982,"velocity":0.7637795275590551,"duration":0.12971704166666598},{"name":"F#4","midi":66,"time":22.78302949999998,"velocity":0.7637795275590551,"duration":0.12971704166666598},{"name":"F4","midi":65,"time":22.924538999999978,"velocity":0.7637795275590551,"duration":0.5212266583333331},{"name":"F#3","midi":54,"time":23.915105499999978,"velocity":0.7637795275590551,"duration":0.12971704166666598},{"name":"A3","midi":57,"time":24.056614999999976,"velocity":0.7637795275590551,"duration":0.12971704166666598},{"name":"C#4","midi":61,"time":24.198124499999974,"velocity":0.7637795275590551,"duration":0.12971704166666598},{"name":"F#4","midi":66,"time":24.339633999999972,"velocity":0.7637795275590551,"duration":0.12971704166666598},{"name":"E4","midi":64,"time":24.48114349999997,"velocity":0.7637795275590551,"duration":0.12971704166666598},{"name":"D4","midi":62,"time":24.622652999999968,"velocity":0.7637795275590551,"duration":0.5212266583333331},{"name":"B2","midi":47,"time":25.613219499999968,"velocity":0.7637795275590551,"duration":0.12971704166666598},{"name":"D3","midi":50,"time":25.754728999999966,"velocity":0.7637795275590551,"duration":0.12971704166666598},{"name":"F#3","midi":54,"time":25.896238499999964,"velocity":0.7637795275590551,"duration":0.12971704166666598},{"name":"B3","midi":59,"time":26.03774799999996,"velocity":0.7637795275590551,"duration":0.12971704166666598},{"name":"A3","midi":57,"time":26.17925749999996,"velocity":0.7637795275590551,"duration":0.12971704166666598},{"name":"G#3","midi":56,"time":26.320766999999957,"velocity":0.7637795275590551,"duration":0.12971704166666598},{"name":"C#3","midi":49,"time":26.462276499999955,"velocity":0.7637795275590551,"duration":0.12971704166666598},{"name":"F3","midi":53,"time":26.603785999999953,"velocity":0.7637795275590551,"duration":0.12971704166666598},{"name":"G#3","midi":56,"time":26.74529549999995,"velocity":0.7637795275590551,"duration":0.12971704166666598},{"name":"C#4","midi":61,"time":26.88680499999995,"velocity":0.7637795275590551,"duration":0.12971704166666598},{"name":"B3","midi":59,"time":27.028314499999947,"velocity":0.7637795275590551,"duration":0.12971704166666598},{"name":"A3","midi":57,"time":27.169823999999945,"velocity":0.7637795275590551,"duration":0.12971704166666598},{"name":"B3","midi":59,"time":27.311333499999943,"velocity":0.7637795275590551,"duration":0.12971704166666598},{"name":"A3","midi":57,"time":27.45284299999994,"velocity":0.7637795275590551,"duration":0.12971704166666598},{"name":"G#3","midi":56,"time":27.59435249999994,"velocity":0.7637795275590551,"duration":0.12971704166666598},{"name":"F#3","midi":54,"time":27.735861999999937,"velocity":0.7637795275590551,"duration":0.12971704166666598},{"name":"E3","midi":52,"time":27.877371499999935,"velocity":0.7637795275590551,"duration":0.12971704166666598},{"name":"D3","midi":50,"time":28.018880999999933,"velocity":0.7637795275590551,"duration":0.12971704166666598},{"name":"E3","midi":52,"time":28.16039049999993,"velocity":0.7637795275590551,"duration":0.12971704166666598},{"name":"F#3","midi":54,"time":28.30189999999993,"velocity":0.7637795275590551,"duration":0.12971704166666598},{"name":"E3","midi":52,"time":28.443409499999927,"velocity":0.7637795275590551,"duration":0.12971704166666598},{"name":"D3","midi":50,"time":28.584918999999925,"velocity":0.7637795275590551,"duration":0.12971704166666598},{"name":"C#3","midi":49,"time":28.726428499999923,"velocity":0.7637795275590551,"duration":0.12971704166666598},{"name":"B2","midi":47,"time":28.86793799999992,"velocity":0.7637795275590551,"duration":0.12971704166666598},{"name":"D3","midi":50,"time":29.00944749999992,"velocity":0.7637795275590551,"duration":0.12971704166666598},{"name":"F#3","midi":54,"time":29.150956999999917,"velocity":0.7637795275590551,"duration":0.12971704166666598},{"name":"D3","midi":50,"time":29.292466499999914,"velocity":0.7637795275590551,"duration":0.12971704166666598},{"name":"B2","midi":47,"time":29.433975999999912,"velocity":0.7637795275590551,"duration":0.12971704166666598},{"name":"D3","midi":50,"time":29.57548549999991,"velocity":0.7637795275590551,"duration":0.12971704166666598},{"name":"G#2","midi":44,"time":29.71699499999991,"velocity":0.7637795275590551,"duration":0.12971704166666598},{"name":"B2","midi":47,"time":29.858504499999906,"velocity":0.7637795275590551,"duration":0.12971704166666598},{"name":"D3","midi":50,"time":30.000013999999904,"velocity":0.7637795275590551,"duration":0.12971704166666598},{"name":"B2","midi":47,"time":30.141523499999902,"velocity":0.7637795275590551,"duration":0.12971704166666598},{"name":"G#2","midi":44,"time":30.2830329999999,"velocity":0.7637795275590551,"duration":0.12971704166666598},{"name":"B2","midi":47,"time":30.424542499999898,"velocity":0.7637795275590551,"duration":0.12971704166666598},{"name":"F2","midi":41,"time":30.566051999999896,"velocity":0.7637795275590551,"duration":0.25943408333333196},{"name":"G#2","midi":44,"time":30.849070999999896,"velocity":0.7637795275590551,"duration":0.25943408333333196},{"name":"F2","midi":41,"time":31.132089999999895,"velocity":0.7637795275590551,"duration":0.25943408333333196},{"name":"C#2","midi":37,"time":31.415108999999894,"velocity":0.7637795275590551,"duration":0.25943408333333196},{"name":"D#2","midi":39,"time":31.698127999999894,"velocity":0.7637795275590551,"duration":0.25943408333333196},{"name":"F2","midi":41,"time":31.981146999999893,"velocity":0.7637795275590551,"duration":0.25943408333333196},{"name":"F#2","midi":42,"time":32.26416599999989,"velocity":0.7637795275590551,"duration":0.25943408333333196},{"name":"F#3","midi":54,"time":32.547184999999885,"velocity":0.7637795275590551,"duration":0.25943408333333196},{"name":"D#3","midi":51,"time":32.83020399999988,"velocity":0.7637795275590551,"duration":0.25943408333333196},{"name":"G#3","midi":56,"time":33.11322299999988,"velocity":0.7637795275590551,"duration":0.25943408333333196},{"name":"F#3","midi":54,"time":33.39624199999987,"velocity":0.7637795275590551,"duration":0.25943408333333196},{"name":"G#3","midi":56,"time":33.67926099999987,"velocity":0.7637795275590551,"duration":0.25943408333333196},{"name":"C#3","midi":49,"time":33.962279999999865,"velocity":0.7637795275590551,"duration":0.12971704166666598},{"name":"C3","midi":48,"time":34.033034749999864,"velocity":0.7637795275590551,"duration":0.12971704166666598},{"name":"C#3","midi":49,"time":34.10378949999986,"velocity":0.7637795275590551,"duration":0.39150961666666717},{"name":"C#3","midi":49,"time":34.528317999999864,"velocity":0.7637795275590551,"duration":0.25943408333333196},{"name":"C#3","midi":49,"time":34.81133699999986,"velocity":0.7637795275590551,"duration":0.12971704166666598},{"name":"C3","midi":48,"time":34.88209174999986,"velocity":0.7637795275590551,"duration":0.12971704166666598},{"name":"C#3","midi":49,"time":34.95284649999986,"velocity":0.7637795275590551,"duration":0.39150961666666717},{"name":"C#3","midi":49,"time":35.37737499999986,"velocity":0.7637795275590551,"duration":0.25943408333333196},{"name":"D#3","midi":51,"time":35.660393999999854,"velocity":0.7637795275590551,"duration":0.08726419166666943},{"name":"C#3","midi":49,"time":35.754733666666525,"velocity":0.7637795275590551,"duration":0.08726419166666943},{"name":"D#3","midi":51,"time":35.849073333333195,"velocity":0.7637795275590551,"duration":0.08726419166666943},{"name":"E3","midi":52,"time":35.943412999999865,"velocity":0.7637795275590551,"duration":0.08726419166666943},{"name":"D#3","midi":51,"time":36.037752666666535,"velocity":0.7637795275590551,"duration":0.08726419166666943},{"name":"E3","midi":52,"time":36.132092333333205,"velocity":0.7637795275590551,"duration":0.08726419166666943},{"name":"D#3","midi":51,"time":36.226431999999875,"velocity":0.7637795275590551,"duration":0.08726419166666943},{"name":"E3","midi":52,"time":36.320771666666545,"velocity":0.7637795275590551,"duration":0.08726419166666943},{"name":"D#3","midi":51,"time":36.415111333333215,"velocity":0.7637795275590551,"duration":0.08726419166666943},{"name":"E3","midi":52,"time":36.509450999999885,"velocity":0.7637795275590551,"duration":0.08726419166666943},{"name":"D#3","midi":51,"time":36.603790666666555,"velocity":0.7637795275590551,"duration":0.08726419166666943},{"name":"E3","midi":52,"time":36.698130333333225,"velocity":0.7637795275590551,"duration":0.08726419166666943},{"name":"D#3","midi":51,"time":36.792469999999895,"velocity":0.7637795275590551,"duration":0.08726419166666943},{"name":"E3","midi":52,"time":36.886809666666565,"velocity":0.7637795275590551,"duration":0.08726419166666943},{"name":"D#3","midi":51,"time":36.981149333333235,"velocity":0.7637795275590551,"duration":0.08726419166666943},{"name":"E3","midi":52,"time":37.075488999999905,"velocity":0.7637795275590551,"duration":0.08726419166666943},{"name":"D#3","midi":51,"time":37.169828666666575,"velocity":0.7637795275590551,"duration":0.31839637499999895},{"name":"C#3","midi":49,"time":37.500017499999906,"velocity":0.7637795275590551,"duration":0.12971704166666598},{"name":"C3","midi":48,"time":37.641526999999904,"velocity":0.7637795275590551,"duration":0.12971704166666598},{"name":"C#3","midi":49,"time":37.7830364999999,"velocity":0.7637795275590551,"duration":0.12971704166666598},{"name":"D#3","midi":51,"time":37.9245459999999,"velocity":0.7637795275590551,"duration":0.12971704166666598},{"name":"E3","midi":52,"time":38.0660554999999,"velocity":0.7637795275590551,"duration":0.12971704166666598},{"name":"F#3","midi":54,"time":38.207564999999896,"velocity":0.7637795275590551,"duration":0.12971704166666598},{"name":"E3","midi":52,"time":38.349074499999894,"velocity":0.7637795275590551,"duration":0.12971704166666598},{"name":"F#3","midi":54,"time":38.49058399999989,"velocity":0.7637795275590551,"duration":0.12971704166666598},{"name":"A3","midi":57,"time":38.63209349999989,"velocity":0.7637795275590551,"duration":0.12971704166666598},{"name":"G#3","midi":56,"time":38.77360299999989,"velocity":0.7637795275590551,"duration":0.12971704166666598},{"name":"F#3","midi":54,"time":38.915112499999886,"velocity":0.7637795275590551,"duration":0.12971704166666598},{"name":"E3","midi":52,"time":39.056621999999884,"velocity":0.7637795275590551,"duration":0.12971704166666598},{"name":"C#3","midi":49,"time":39.19813149999988,"velocity":0.7637795275590551,"duration":0.12971704166666598},{"name":"E3","midi":52,"time":39.33964099999988,"velocity":0.7637795275590551,"duration":0.12971704166666598},{"name":"G#3","midi":56,"time":39.48115049999988,"velocity":0.7637795275590551,"duration":0.12971704166666598},{"name":"C#4","midi":61,"time":39.622659999999875,"velocity":0.7637795275590551,"duration":0.12971704166666598},{"name":"G#3","midi":56,"time":39.76416949999987,"velocity":0.7637795275590551,"duration":0.12971704166666598},{"name":"E3","midi":52,"time":39.90567899999987,"velocity":0.7637795275590551,"duration":0.12971704166666598},{"name":"C#3","midi":49,"time":40.04718849999987,"velocity":0.7637795275590551,"duration":0.12971704166666598},{"name":"E3","midi":52,"time":40.18869799999987,"velocity":0.7637795275590551,"duration":0.12971704166666598},{"name":"G#3","midi":56,"time":40.330207499999865,"velocity":0.7637795275590551,"duration":0.12971704166666598},{"name":"C#4","midi":61,"time":40.47171699999986,"velocity":0.7637795275590551,"duration":0.12971704166666598},{"name":"B3","midi":59,"time":40.61322649999986,"velocity":0.7637795275590551,"duration":0.12971704166666598},{"name":"A#3","midi":58,"time":40.75473599999986,"velocity":0.7637795275590551,"duration":0.12971704166666598},{"name":"F#3","midi":54,"time":40.89624549999986,"velocity":0.7637795275590551,"duration":0.12971704166666598},{"name":"A#3","midi":58,"time":41.037754999999855,"velocity":0.7637795275590551,"duration":0.12971704166666598},{"name":"C#4","midi":61,"time":41.17926449999985,"velocity":0.7637795275590551,"duration":0.12971704166666598},{"name":"F#4","midi":66,"time":41.32077399999985,"velocity":0.7637795275590551,"duration":0.12971704166666598},{"name":"C#4","midi":61,"time":41.46228349999985,"velocity":0.7637795275590551,"duration":0.12971704166666598},{"name":"A#3","midi":58,"time":41.60379299999985,"velocity":0.7637795275590551,"duration":0.12971704166666598},{"name":"F#3","midi":54,"time":41.745302499999845,"velocity":0.7637795275590551,"duration":0.12971704166666598},{"name":"A#3","midi":58,"time":41.88681199999984,"velocity":0.7637795275590551,"duration":0.12971704166666598},{"name":"C#4","midi":61,"time":42.02832149999984,"velocity":0.7637795275590551,"duration":0.12971704166666598},{"name":"F#4","midi":66,"time":42.16983099999984,"velocity":0.7637795275590551,"duration":0.12971704166666598},{"name":"E4","midi":64,"time":42.31134049999984,"velocity":0.7637795275590551,"duration":0.12971704166666598},{"name":"D#4","midi":63,"time":42.452849999999835,"velocity":0.7637795275590551,"duration":0.12971704166666598},{"name":"B2","midi":47,"time":42.59435949999983,"velocity":0.7637795275590551,"duration":0.12971704166666598},{"name":"D3","midi":50,"time":42.73586899999983,"velocity":0.7637795275590551,"duration":0.12971704166666598},{"name":"F#3","midi":54,"time":42.87737849999983,"velocity":0.7637795275590551,"duration":0.12971704166666598},{"name":"B3","midi":59,"time":43.018887999999826,"velocity":0.7637795275590551,"duration":0.12971704166666598},{"name":"F#3","midi":54,"time":43.160397499999824,"velocity":0.7637795275590551,"duration":0.12971704166666598},{"name":"D3","midi":50,"time":43.30190699999982,"velocity":0.7637795275590551,"duration":0.12971704166666598},{"name":"B2","midi":47,"time":43.44341649999982,"velocity":0.7637795275590551,"duration":0.12971704166666598},{"name":"D3","midi":50,"time":43.58492599999982,"velocity":0.7637795275590551,"duration":0.12971704166666598},{"name":"F#3","midi":54,"time":43.726435499999816,"velocity":0.7637795275590551,"duration":0.12971704166666598},{"name":"B3","midi":59,"time":43.867944999999814,"velocity":0.7637795275590551,"duration":0.12971704166666598},{"name":"A3","midi":57,"time":44.00945449999981,"velocity":0.7637795275590551,"duration":0.12971704166666598},{"name":"G#3","midi":56,"time":44.15096399999981,"velocity":0.7637795275590551,"duration":0.12971704166666598},{"name":"E3","midi":52,"time":44.29247349999981,"velocity":0.7637795275590551,"duration":0.12971704166666598},{"name":"G#3","midi":56,"time":44.433982999999806,"velocity":0.7637795275590551,"duration":0.12971704166666598},{"name":"B3","midi":59,"time":44.575492499999804,"velocity":0.7637795275590551,"duration":0.12971704166666598},{"name":"E4","midi":64,"time":44.7170019999998,"velocity":0.7637795275590551,"duration":0.12971704166666598},{"name":"B3","midi":59,"time":44.8585114999998,"velocity":0.7637795275590551,"duration":0.12971704166666598},{"name":"G#3","midi":56,"time":45.0000209999998,"velocity":0.7637795275590551,"duration":0.12971704166666598},{"name":"E3","midi":52,"time":45.141530499999796,"velocity":0.7637795275590551,"duration":0.12971704166666598},{"name":"G#3","midi":56,"time":45.283039999999794,"velocity":0.7637795275590551,"duration":0.12971704166666598},{"name":"B3","midi":59,"time":45.42454949999979,"velocity":0.7637795275590551,"duration":0.12971704166666598},{"name":"E4","midi":64,"time":45.56605899999979,"velocity":0.7637795275590551,"duration":0.12971704166666598},{"name":"D4","midi":62,"time":45.70756849999979,"velocity":0.7637795275590551,"duration":0.12971704166666598},{"name":"C#4","midi":61,"time":45.849077999999786,"velocity":0.7637795275590551,"duration":0.12971704166666598},{"name":"D4","midi":62,"time":45.99058749999978,"velocity":0.7637795275590551,"duration":0.12971704166666598},{"name":"E4","midi":64,"time":46.13209699999978,"velocity":0.7637795275590551,"duration":0.12971704166666598},{"name":"D4","midi":62,"time":46.27360649999978,"velocity":0.7637795275590551,"duration":0.12971704166666598},{"name":"C#4","midi":61,"time":46.41511599999978,"velocity":0.7637795275590551,"duration":0.12971704166666598},{"name":"B3","midi":59,"time":46.556625499999775,"velocity":0.7637795275590551,"duration":0.12971704166666598},{"name":"A3","midi":57,"time":46.69813499999977,"velocity":0.7637795275590551,"duration":0.12971704166666598},{"name":"B3","midi":59,"time":46.83964449999977,"velocity":0.7637795275590551,"duration":0.12971704166666598},{"name":"C#4","midi":61,"time":46.98115399999977,"velocity":0.7637795275590551,"duration":0.12971704166666598},{"name":"B3","midi":59,"time":47.12266349999977,"velocity":0.7637795275590551,"duration":0.12971704166666598},{"name":"A3","midi":57,"time":47.264172999999765,"velocity":0.7637795275590551,"duration":0.12971704166666598},{"name":"G#3","midi":56,"time":47.40568249999976,"velocity":0.7637795275590551,"duration":0.12971704166666598},{"name":"F#3","midi":54,"time":47.54719199999976,"velocity":0.7637795275590551,"duration":0.25943408333333196},{"name":"A3","midi":57,"time":47.83021099999976,"velocity":0.7637795275590551,"duration":0.22641519999999815},{"name":"D#4","midi":63,"time":48.11322999999975,"velocity":0.7637795275590551,"duration":0.542453083333335},{"name":"C#4","midi":61,"time":48.67926799999975,"velocity":0.7637795275590551,"duration":0.25943408333333196},{"name":"B3","midi":59,"time":48.96228699999975,"velocity":0.7637795275590551,"duration":0.25943408333333196},{"name":"E4","midi":64,"time":49.245305999999744,"velocity":0.7637795275590551,"duration":0.12971704166666598},{"name":"F#4","midi":66,"time":49.38681549999974,"velocity":0.7637795275590551,"duration":0.12971704166666598},{"name":"G4","midi":67,"time":49.52832499999974,"velocity":0.7637795275590551,"duration":0.12971704166666598},{"name":"F#4","midi":66,"time":49.66983449999974,"velocity":0.7637795275590551,"duration":0.12971704166666598},{"name":"E4","midi":64,"time":49.811343999999735,"velocity":0.7637795275590551,"duration":0.12971704166666598},{"name":"D4","midi":62,"time":49.95285349999973,"velocity":0.7637795275590551,"duration":0.12971704166666598},{"name":"C#4","midi":61,"time":50.09436299999973,"velocity":0.7637795275590551,"duration":0.12971704166666598},{"name":"D4","midi":62,"time":50.23587249999973,"velocity":0.7637795275590551,"duration":0.12971704166666598},{"name":"E4","midi":64,"time":50.37738199999973,"velocity":0.7637795275590551,"duration":0.12971704166666598},{"name":"D4","midi":62,"time":50.518891499999725,"velocity":0.7637795275590551,"duration":0.12971704166666598},{"name":"C#4","midi":61,"time":50.66040099999972,"velocity":0.7637795275590551,"duration":0.12971704166666598},{"name":"B3","midi":59,"time":50.80191049999972,"velocity":0.7637795275590551,"duration":0.12971704166666598},{"name":"A3","midi":57,"time":50.94341999999972,"velocity":0.7637795275590551,"duration":0.25943408333333196},{"name":"E3","midi":52,"time":51.226438999999715,"velocity":0.7637795275590551,"duration":0.25943408333333196},{"name":"C#3","midi":49,"time":51.50945799999971,"velocity":0.7637795275590551,"duration":0.25943408333333196},{"name":"A2","midi":45,"time":51.79247699999971,"velocity":0.7637795275590551,"duration":0.7806607416666651},{"name":"D3","midi":50,"time":52.78304349999971,"velocity":0.7637795275590551,"duration":0.12971704166666598},{"name":"F#3","midi":54,"time":52.924552999999705,"velocity":0.7637795275590551,"duration":0.12971704166666598},{"name":"A3","midi":57,"time":53.0660624999997,"velocity":0.7637795275590551,"duration":0.12971704166666598},{"name":"D4","midi":62,"time":53.2075719999997,"velocity":0.7637795275590551,"duration":0.12971704166666598},{"name":"C#4","midi":61,"time":53.3490814999997,"velocity":0.7637795275590551,"duration":0.12971704166666598},{"name":"B3","midi":59,"time":53.4905909999997,"velocity":0.7637795275590551,"duration":0.5212266583333331},{"name":"C#3","midi":49,"time":54.481157499999696,"velocity":0.7637795275590551,"duration":0.12971704166666598},{"name":"E3","midi":52,"time":54.622666999999694,"velocity":0.7637795275590551,"duration":0.12971704166666598},{"name":"G#3","midi":56,"time":54.76417649999969,"velocity":0.7637795275590551,"duration":0.12971704166666598},{"name":"C#4","midi":61,"time":54.90568599999969,"velocity":0.7637795275590551,"duration":0.12971704166666598},{"name":"B3","midi":59,"time":55.04719549999969,"velocity":0.7637795275590551,"duration":0.12971704166666598},{"name":"A3","midi":57,"time":55.188704999999686,"velocity":0.7637795275590551,"duration":0.5212266583333331},{"name":"B2","midi":47,"time":56.179271499999686,"velocity":0.7637795275590551,"duration":0.12971704166666598},{"name":"D3","midi":50,"time":56.320780999999684,"velocity":0.7637795275590551,"duration":0.12971704166666598},{"name":"F#3","midi":54,"time":56.46229049999968,"velocity":0.7637795275590551,"duration":0.12971704166666598},{"name":"B3","midi":59,"time":56.60379999999968,"velocity":0.7637795275590551,"duration":0.12971704166666598},{"name":"A3","midi":57,"time":56.74530949999968,"velocity":0.7637795275590551,"duration":0.12971704166666598},{"name":"G#3","midi":56,"time":56.886818999999676,"velocity":0.7637795275590551,"duration":0.5212266583333331},{"name":"A2","midi":45,"time":57.73587599999968,"velocity":0.7637795275590551,"duration":0.12971704166666598},{"name":"G#2","midi":44,"time":57.80663074999968,"velocity":0.7637795275590551,"duration":0.12971704166666598},{"name":"A2","midi":45,"time":57.877385499999676,"velocity":0.7637795275590551,"duration":0.39150961666666717},{"name":"A2","midi":45,"time":58.30191399999968,"velocity":0.7637795275590551,"duration":0.21226424999999693},{"name":"A2","midi":45,"time":58.58493299999967,"velocity":0.7637795275590551,"duration":0.12971704166666598},{"name":"G#2","midi":44,"time":58.65568774999967,"velocity":0.7637795275590551,"duration":0.12971704166666598},{"name":"A2","midi":45,"time":58.72644249999967,"velocity":0.7637795275590551,"duration":0.39150961666666717},{"name":"A2","midi":45,"time":59.15097099999967,"velocity":0.7637795275590551,"duration":0.21226424999999693},{"name":"B2","midi":47,"time":59.43398999999967,"velocity":0.7637795275590551,"duration":0.08726419166666943},{"name":"A2","midi":45,"time":59.52832966666634,"velocity":0.7637795275590551,"duration":0.08726419166666943},{"name":"B2","midi":47,"time":59.62266933333301,"velocity":0.7637795275590551,"duration":0.08726419166666943},{"name":"C#3","midi":49,"time":59.71700899999968,"velocity":0.7637795275590551,"duration":0.08726419166666943},{"name":"B2","midi":47,"time":59.81134866666635,"velocity":0.7637795275590551,"duration":0.08726419166666943},{"name":"C#3","midi":49,"time":59.90568833333302,"velocity":0.7637795275590551,"duration":0.08726419166666943},{"name":"B2","midi":47,"time":60.00002799999969,"velocity":0.7637795275590551,"duration":0.08726419166666943},{"name":"C#3","midi":49,"time":60.09436766666636,"velocity":0.7637795275590551,"duration":0.08726419166666943},{"name":"B2","midi":47,"time":60.18870733333303,"velocity":0.7637795275590551,"duration":0.08726419166666943},{"name":"C#3","midi":49,"time":60.2830469999997,"velocity":0.7637795275590551,"duration":0.08726419166666943},{"name":"B2","midi":47,"time":60.37738666666637,"velocity":0.7637795275590551,"duration":0.08726419166666943},{"name":"C#3","midi":49,"time":60.47172633333304,"velocity":0.7637795275590551,"duration":0.08726419166666943},{"name":"B2","midi":47,"time":60.56606599999971,"velocity":0.7637795275590551,"duration":0.08726419166666943},{"name":"C#3","midi":49,"time":60.66040566666638,"velocity":0.7637795275590551,"duration":0.08726419166666943},{"name":"B2","midi":47,"time":60.75474533333305,"velocity":0.7637795275590551,"duration":0.08726419166666943},{"name":"C#3","midi":49,"time":60.84908499999972,"velocity":0.7637795275590551,"duration":0.08726419166666943},{"name":"B2","midi":47,"time":60.94342466666639,"velocity":0.7637795275590551,"duration":0.31839637499999895},{"name":"A2","midi":45,"time":61.27361349999972,"velocity":0.7637795275590551,"duration":0.12971704166666598},{"name":"G#2","midi":44,"time":61.41512299999972,"velocity":0.7637795275590551,"duration":0.12971704166666598},{"name":"A2","midi":45,"time":61.556632499999715,"velocity":0.7637795275590551,"duration":0.12971704166666598},{"name":"B2","midi":47,"time":61.69814199999971,"velocity":0.7637795275590551,"duration":0.12971704166666598},{"name":"C#3","midi":49,"time":61.83965149999971,"velocity":0.7637795275590551,"duration":0.12971704166666598},{"name":"D3","midi":50,"time":61.98116099999971,"velocity":0.7637795275590551,"duration":0.12971704166666598},{"name":"C#3","midi":49,"time":62.12267049999971,"velocity":0.7637795275590551,"duration":0.12971704166666598},{"name":"D3","midi":50,"time":62.264179999999705,"velocity":0.7637795275590551,"duration":0.12971704166666598},{"name":"F#3","midi":54,"time":62.4056894999997,"velocity":0.7637795275590551,"duration":0.12971704166666598},{"name":"E3","midi":52,"time":62.5471989999997,"velocity":0.7637795275590551,"duration":0.12971704166666598},{"name":"D3","midi":50,"time":62.6887084999997,"velocity":0.7637795275590551,"duration":0.12971704166666598},{"name":"C#3","midi":49,"time":62.8302179999997,"velocity":0.7637795275590551,"duration":0.12971704166666598},{"name":"B2","midi":47,"time":62.971727499999695,"velocity":0.7637795275590551,"duration":0.12971704166666598},{"name":"C#3","midi":49,"time":63.11323699999969,"velocity":0.7637795275590551,"duration":0.12971704166666598},{"name":"E3","midi":52,"time":63.25474649999969,"velocity":0.7637795275590551,"duration":0.12971704166666598},{"name":"D3","midi":50,"time":63.39625599999969,"velocity":0.7637795275590551,"duration":0.12971704166666598},{"name":"C#3","midi":49,"time":63.537765499999686,"velocity":0.7637795275590551,"duration":0.12971704166666598},{"name":"B2","midi":47,"time":63.679274999999684,"velocity":0.7637795275590551,"duration":0.12971704166666598},{"name":"A2","midi":45,"time":63.82078449999968,"velocity":0.7637795275590551,"duration":0.12971704166666598},{"name":"B2","midi":47,"time":63.96229399999968,"velocity":0.7637795275590551,"duration":0.12971704166667308},{"name":"D3","midi":50,"time":64.10380349999969,"velocity":0.7637795275590551,"duration":0.12971704166666598},{"name":"C#3","midi":49,"time":64.24531299999968,"velocity":0.7637795275590551,"duration":0.12971704166666598},{"name":"B2","midi":47,"time":64.38682249999968,"velocity":0.7637795275590551,"duration":0.12971704166666598},{"name":"A2","midi":45,"time":64.52833199999968,"velocity":0.7637795275590551,"duration":0.12971704166666598},{"name":"G#2","midi":44,"time":64.66984149999968,"velocity":0.7637795275590551,"duration":0.12971704166666598},{"name":"A2","midi":45,"time":64.81135099999968,"velocity":0.7637795275590551,"duration":0.12971704166666598},{"name":"B2","midi":47,"time":64.95286049999967,"velocity":0.7637795275590551,"duration":0.12971704166666598},{"name":"C#3","midi":49,"time":65.09436999999967,"velocity":0.7637795275590551,"duration":0.12971704166666598},{"name":"A2","midi":45,"time":65.23587949999967,"velocity":0.7637795275590551,"duration":0.12971704166666598},{"name":"D3","midi":50,"time":65.37738899999967,"velocity":0.7637795275590551,"duration":0.12971704166666598},{"name":"C#3","midi":49,"time":65.44814374999967,"velocity":0.7637795275590551,"duration":0.12971704166665177},{"name":"D3","midi":50,"time":65.51889849999966,"velocity":0.7637795275590551,"duration":0.39150961666665296},{"name":"D3","midi":50,"time":65.94342699999964,"velocity":0.7637795275590551,"duration":0.25943408333333196},{"name":"C#3","midi":49,"time":66.22644599999964,"velocity":0.7637795275590551,"duration":0.08726419166666233},{"name":"D3","midi":50,"time":66.3207856666663,"velocity":0.7637795275590551,"duration":0.08726419166666233},{"name":"E3","midi":52,"time":66.41512533333295,"velocity":0.7637795275590551,"duration":0.08726419166666233},{"name":"D3","midi":50,"time":66.50946499999961,"velocity":0.7637795275590551,"duration":0.08726419166666233},{"name":"E3","midi":52,"time":66.60380466666626,"velocity":0.7637795275590551,"duration":0.08726419166666233},{"name":"D3","midi":50,"time":66.69814433333292,"velocity":0.7637795275590551,"duration":0.08726419166666233},{"name":"E3","midi":52,"time":66.79248399999958,"velocity":0.7637795275590551,"duration":0.08726419166666233},{"name":"D3","midi":50,"time":66.88682366666623,"velocity":0.7637795275590551,"duration":0.08726419166666233},{"name":"E3","midi":52,"time":66.98116333333289,"velocity":0.7637795275590551,"duration":0.08726419166666233},{"name":"D3","midi":50,"time":67.07550299999954,"velocity":0.7637795275590551,"duration":0.08726419166666233},{"name":"E3","midi":52,"time":67.1698426666662,"velocity":0.7637795275590551,"duration":0.08726419166666233},{"name":"D3","midi":50,"time":67.26418233333285,"velocity":0.7637795275590551,"duration":0.08726419166666233},{"name":"E3","midi":52,"time":67.35852199999951,"velocity":0.7637795275590551,"duration":0.08726419166666233},{"name":"D3","midi":50,"time":67.45286166666617,"velocity":0.7637795275590551,"duration":0.08726419166666233},{"name":"E3","midi":52,"time":67.54720133333282,"velocity":0.7637795275590551,"duration":0.08726419166666233},{"name":"D3","midi":50,"time":67.64154099999948,"velocity":0.7637795275590551,"duration":0.08726419166666233},{"name":"E3","midi":52,"time":67.73588066666613,"velocity":0.7637795275590551,"duration":0.17452838333333887},{"name":"C#3","midi":49,"time":67.92455999999947,"velocity":0.7637795275590551,"duration":0.12971704166666598},{"name":"D3","midi":50,"time":68.06606949999947,"velocity":0.7637795275590551,"duration":0.12971704166666598},{"name":"C#3","midi":49,"time":68.20757899999947,"velocity":0.7637795275590551,"duration":0.12971704166666598},{"name":"B2","midi":47,"time":68.34908849999947,"velocity":0.7637795275590551,"duration":0.12971704166666598},{"name":"A2","midi":45,"time":68.49059799999947,"velocity":0.7637795275590551,"duration":0.12971704166666598},{"name":"G#2","midi":44,"time":68.63210749999946,"velocity":0.7637795275590551,"duration":0.12971704166666598},{"name":"F#2","midi":42,"time":68.77361699999946,"velocity":0.7637795275590551,"duration":0.12971704166666598},{"name":"F#3","midi":54,"time":68.91512649999946,"velocity":0.7637795275590551,"duration":0.12971704166666598},{"name":"E3","midi":52,"time":69.05663599999946,"velocity":0.7637795275590551,"duration":0.12971704166666598},{"name":"D3","midi":50,"time":69.19814549999946,"velocity":0.7637795275590551,"duration":0.12971704166666598},{"name":"C#3","midi":49,"time":69.33965499999945,"velocity":0.7637795275590551,"duration":0.12971704166666598},{"name":"B2","midi":47,"time":69.48116449999945,"velocity":0.7637795275590551,"duration":0.12971704166666598},{"name":"C#3","midi":49,"time":69.62267399999945,"velocity":0.7637795275590551,"duration":0.12971704166666598},{"name":"D3","midi":50,"time":69.76418349999945,"velocity":0.7637795275590551,"duration":0.12971704166666598},{"name":"E3","midi":52,"time":69.90569299999945,"velocity":0.7637795275590551,"duration":0.25943408333333196},{"name":"E2","midi":40,"time":70.18871199999944,"velocity":0.7637795275590551,"duration":0.25943408333333196},{"name":"A2","midi":45,"time":70.47173099999944,"velocity":0.7637795275590551,"duration":2.207548200000005}],"controlChanges":{"7":[{"number":7,"time":0,"value":0.8661417322834646}],"10":[{"number":10,"time":0,"value":0.3779527559055118}]},"id":2,"name":"Harpsichord LH","instrumentNumber":6,"instrument":"harpsichord","instrumentFamily":"piano","channelNumber":0,"isPercussion":false}]}