{"header":{"PPQ":384,"timeSignature":[6,8],"bpm":65.99999340000066,"name":"--------"},"startTime":0,"duration":484.59995376302726,"tracks":[{"startTime":0,"duration":0,"length":0,"notes":[],"controlChanges":{},"id":0,"name":"--------"},{"startTime":0.22727275,"duration":484.59995376302726,"length":3043,"notes":[{"name":"F#4","midi":66,"time":0.22727275,"velocity":0.8031496062992126,"duration":0.22490532552083334},{"name":"B4","midi":71,"time":0.4545455,"velocity":0.8031496062992126,"duration":0.22490532552083337},{"name":"A#4","midi":70,"time":0.6818182500000001,"velocity":0.8031496062992126,"duration":0.2249053255208333},{"name":"B4","midi":71,"time":0.9090910000000001,"velocity":0.8031496062992126,"duration":0.1112689505208333},{"name":"A#4","midi":70,"time":1.022727375,"velocity":0.8031496062992126,"duration":0.1112689505208333},{"name":"F#3","midi":54,"time":1.1363637500000001,"velocity":0.8031496062992126,"duration":0.2249053255208333},{"name":"B4","midi":71,"time":1.1363637500000001,"velocity":0.8031496062992126,"duration":0.45217807552083333},{"name":"B3","midi":59,"time":1.3636365000000001,"velocity":0.8031496062992126,"duration":0.2249053255208333},{"name":"A#3","midi":58,"time":1.5909092500000002,"velocity":0.8031496062992126,"duration":0.2249053255208333},{"name":"C#5","midi":73,"time":1.5909092500000002,"velocity":0.8031496062992126,"duration":0.2249053255208333},{"name":"B3","midi":59,"time":1.8181820000000002,"velocity":0.8031496062992126,"duration":0.45217807552083356},{"name":"D5","midi":74,"time":1.8181820000000002,"velocity":0.8031496062992126,"duration":0.22490532552083353},{"name":"B4","midi":71,"time":2.04545475,"velocity":0.8031496062992126,"duration":0.22490532552083353},{"name":"C#4","midi":61,"time":2.2727275000000002,"velocity":0.8031496062992126,"duration":0.45217807552083356},{"name":"E5","midi":76,"time":2.2727275000000002,"velocity":0.8031496062992126,"duration":0.22490532552083353},{"name":"B4","midi":71,"time":2.5000002500000003,"velocity":0.8031496062992126,"duration":0.22490532552083353},{"name":"D4","midi":62,"time":2.7272730000000003,"velocity":0.8031496062992126,"duration":0.22490532552083353},{"name":"F#5","midi":78,"time":2.7272730000000003,"velocity":0.8031496062992126,"duration":0.45217807552083356},{"name":"B3","midi":59,"time":2.9545457500000003,"velocity":0.8031496062992126,"duration":0.22490532552083353},{"name":"G4","midi":67,"time":3.1818185000000003,"velocity":0.8031496062992126,"duration":0.22490532552083353},{"name":"B4","midi":71,"time":3.1818185000000003,"velocity":0.8031496062992126,"duration":0.5918561197916667},{"name":"F#4","midi":66,"time":3.4090912500000004,"velocity":0.8031496062992126,"duration":0.22490532552083353},{"name":"G4","midi":67,"time":3.6363640000000004,"velocity":0.8031496062992126,"duration":0.11126895052083352},{"name":"F#4","midi":66,"time":3.7500003750000004,"velocity":0.8031496062992126,"duration":0.11126895052083352},{"name":"G4","midi":67,"time":3.8636367500000004,"velocity":0.8031496062992126,"duration":0.4521780755208331},{"name":"B4","midi":71,"time":3.8636367500000004,"velocity":0.8031496062992126,"duration":0.2249053255208331},{"name":"E5","midi":76,"time":4.0909095,"velocity":0.8031496062992126,"duration":0.2249053255208331},{"name":"F#4","midi":66,"time":4.31818225,"velocity":0.8031496062992126,"duration":0.2249053255208331},{"name":"D5","midi":74,"time":4.31818225,"velocity":0.8031496062992126,"duration":0.2249053255208331},{"name":"E4","midi":64,"time":4.5454550000000005,"velocity":0.8031496062992126,"duration":0.4521780755208331},{"name":"G5","midi":79,"time":4.5454550000000005,"velocity":0.8031496062992126,"duration":0.2249053255208331},{"name":"E5","midi":76,"time":4.7727277500000005,"velocity":0.8031496062992126,"duration":0.2249053255208331},{"name":"C#4","midi":61,"time":5.0000005000000005,"velocity":0.8031496062992126,"duration":0.4521780755208331},{"name":"A#5","midi":82,"time":5.0000005000000005,"velocity":0.8031496062992126,"duration":0.2249053255208331},{"name":"B5","midi":83,"time":5.2272732500000005,"velocity":0.8031496062992126,"duration":0.2249053255208331},{"name":"F#4","midi":66,"time":5.454546000000001,"velocity":0.8031496062992126,"duration":0.4521780755208331},{"name":"C#5","midi":73,"time":5.454546000000001,"velocity":0.8031496062992126,"duration":0.2249053255208331},{"name":"G5","midi":79,"time":5.681818750000001,"velocity":0.8031496062992126,"duration":0.2249053255208331},{"name":"F#3","midi":54,"time":5.909091500000001,"velocity":0.8031496062992126,"duration":0.4521780755208331},{"name":"F#5","midi":78,"time":5.909091500000001,"velocity":0.8031496062992126,"duration":0.2249053255208331},{"name":"E5","midi":76,"time":6.136364250000001,"velocity":0.8031496062992126,"duration":0.2249053255208331},{"name":"B3","midi":59,"time":6.363637000000001,"velocity":0.8031496062992126,"duration":0.4521780755208331},{"name":"D5","midi":74,"time":6.363637000000001,"velocity":0.8031496062992126,"duration":0.2249053255208331},{"name":"F#5","midi":78,"time":6.590909750000001,"velocity":0.8031496062992126,"duration":0.2249053255208331},{"name":"C#4","midi":61,"time":6.818182500000001,"velocity":0.8031496062992126,"duration":0.4521780755208331},{"name":"B4","midi":71,"time":6.818182500000001,"velocity":0.8031496062992126,"duration":0.2249053255208331},{"name":"A#4","midi":70,"time":7.045455250000001,"velocity":0.8031496062992126,"duration":0.2249053255208331},{"name":"D4","midi":62,"time":7.272728000000001,"velocity":0.8031496062992126,"duration":0.4521780755208331},{"name":"B4","midi":71,"time":7.272728000000001,"velocity":0.8031496062992126,"duration":0.2249053255208331},{"name":"D5","midi":74,"time":7.500000750000001,"velocity":0.8031496062992126,"duration":0.2249053255208331},{"name":"B3","midi":59,"time":7.727273500000001,"velocity":0.8031496062992126,"duration":0.452178075520834},{"name":"G4","midi":67,"time":7.727273500000001,"velocity":0.8031496062992126,"duration":0.2249053255208331},{"name":"F#4","midi":66,"time":7.954546250000001,"velocity":0.8031496062992126,"duration":0.22490532552083398},{"name":"E3","midi":52,"time":8.181819,"velocity":0.8031496062992126,"duration":0.2249053255208331},{"name":"G4","midi":67,"time":8.181819,"velocity":0.8031496062992126,"duration":0.33143942708333185},{"name":"B3","midi":59,"time":8.40909175,"velocity":0.8031496062992126,"duration":0.2249053255208331},{"name":"E4","midi":64,"time":8.636364499999999,"velocity":0.8031496062992126,"duration":0.2249053255208331},{"name":"B5","midi":83,"time":8.636364499999999,"velocity":0.8031496062992126,"duration":0.6794508255208314},{"name":"D4","midi":62,"time":8.863637249999998,"velocity":0.8031496062992126,"duration":0.2249053255208331},{"name":"C#4","midi":61,"time":9.090909999999997,"velocity":0.8031496062992126,"duration":0.4521780755208322},{"name":"G5","midi":79,"time":9.318182749999997,"velocity":0.8031496062992126,"duration":0.2249053255208331},{"name":"B3","midi":59,"time":9.545455499999996,"velocity":0.8031496062992126,"duration":0.4521780755208322},{"name":"E5","midi":76,"time":9.545455499999996,"velocity":0.8031496062992126,"duration":0.2249053255208331},{"name":"D5","midi":74,"time":9.772728249999995,"velocity":0.8031496062992126,"duration":0.2249053255208331},{"name":"A3","midi":57,"time":10.000000999999994,"velocity":0.8031496062992126,"duration":0.4521780755208322},{"name":"C#5","midi":73,"time":10.000000999999994,"velocity":0.8031496062992126,"duration":0.2249053255208331},{"name":"E5","midi":76,"time":10.227273749999993,"velocity":0.8031496062992126,"duration":0.2249053255208331},{"name":"G3","midi":55,"time":10.454546499999992,"velocity":0.8031496062992126,"duration":0.4521780755208322},{"name":"A4","midi":69,"time":10.454546499999992,"velocity":0.8031496062992126,"duration":0.2249053255208331},{"name":"G4","midi":67,"time":10.681819249999991,"velocity":0.8031496062992126,"duration":0.2249053255208331},{"name":"F#3","midi":54,"time":10.90909199999999,"velocity":0.8031496062992126,"duration":0.4521780755208322},{"name":"A4","midi":69,"time":10.90909199999999,"velocity":0.8031496062992126,"duration":0.2249053255208331},{"name":"C#5","midi":73,"time":11.13636474999999,"velocity":0.8031496062992126,"duration":0.2249053255208331},{"name":"E3","midi":52,"time":11.363637499999989,"velocity":0.8031496062992126,"duration":0.4521780755208322},{"name":"F#4","midi":66,"time":11.363637499999989,"velocity":0.8031496062992126,"duration":0.2249053255208331},{"name":"E4","midi":64,"time":11.590910249999988,"velocity":0.8031496062992126,"duration":0.2249053255208331},{"name":"D3","midi":50,"time":11.818182999999987,"velocity":0.8031496062992126,"duration":0.2249053255208331},{"name":"F#4","midi":66,"time":11.818182999999987,"velocity":0.8031496062992126,"duration":0.33143942708333185},{"name":"A3","midi":57,"time":12.045455749999986,"velocity":0.8031496062992126,"duration":0.2249053255208331},{"name":"D4","midi":62,"time":12.272728499999985,"velocity":0.8031496062992126,"duration":0.2249053255208331},{"name":"A5","midi":81,"time":12.272728499999985,"velocity":0.8031496062992126,"duration":0.6794508255208314},{"name":"C#4","midi":61,"time":12.500001249999984,"velocity":0.8031496062992126,"duration":0.2249053255208331},{"name":"B3","midi":59,"time":12.727273999999984,"velocity":0.8031496062992126,"duration":0.4521780755208322},{"name":"F#5","midi":78,"time":12.954546749999983,"velocity":0.8031496062992126,"duration":0.2249053255208331},{"name":"A3","midi":57,"time":13.181819499999982,"velocity":0.8031496062992126,"duration":0.4521780755208322},{"name":"D5","midi":74,"time":13.181819499999982,"velocity":0.8031496062992126,"duration":0.2249053255208331},{"name":"C#5","midi":73,"time":13.409092249999981,"velocity":0.8031496062992126,"duration":0.2249053255208331},{"name":"G3","midi":55,"time":13.63636499999998,"velocity":0.8031496062992126,"duration":0.4521780755208322},{"name":"B4","midi":71,"time":13.63636499999998,"velocity":0.8031496062992126,"duration":0.2249053255208331},{"name":"D5","midi":74,"time":13.86363774999998,"velocity":0.8031496062992126,"duration":0.2249053255208331},{"name":"F#3","midi":54,"time":14.090910499999978,"velocity":0.8031496062992126,"duration":0.4521780755208322},{"name":"G4","midi":67,"time":14.090910499999978,"velocity":0.8031496062992126,"duration":0.2249053255208331},{"name":"F#4","midi":66,"time":14.318183249999977,"velocity":0.8031496062992126,"duration":0.2249053255208331},{"name":"E3","midi":52,"time":14.545455999999977,"velocity":0.8031496062992126,"duration":0.4521780755208322},{"name":"G4","midi":67,"time":14.545455999999977,"velocity":0.8031496062992126,"duration":0.2249053255208331},{"name":"B4","midi":71,"time":14.772728749999976,"velocity":0.8031496062992126,"duration":0.2249053255208331},{"name":"D3","midi":50,"time":15.000001499999975,"velocity":0.8031496062992126,"duration":0.4521780755208322},{"name":"E5","midi":76,"time":15.000001499999975,"velocity":0.8031496062992126,"duration":0.2249053255208331},{"name":"D5","midi":74,"time":15.227274249999974,"velocity":0.8031496062992126,"duration":0.2249053255208331},{"name":"C#3","midi":49,"time":15.454546999999973,"velocity":0.8031496062992126,"duration":0.2249053255208331},{"name":"E5","midi":76,"time":15.454546999999973,"velocity":0.8031496062992126,"duration":0.6155303645833321},{"name":"E3","midi":52,"time":15.681819749999972,"velocity":0.8031496062992126,"duration":0.2249053255208331},{"name":"A3","midi":57,"time":15.909092499999971,"velocity":0.8031496062992126,"duration":0.2249053255208331},{"name":"G3","midi":55,"time":16.136365249999972,"velocity":0.8031496062992126,"duration":0.2249053255208331},{"name":"E4","midi":64,"time":16.136365249999972,"velocity":0.8031496062992126,"duration":0.2249053255208331},{"name":"A3","midi":57,"time":16.363637999999973,"velocity":0.8031496062992126,"duration":0.6794508255208349},{"name":"F#4","midi":66,"time":16.363637999999973,"velocity":0.8031496062992126,"duration":0.2249053255208331},{"name":"A4","midi":69,"time":16.590910749999974,"velocity":0.8031496062992126,"duration":0.2249053255208331},{"name":"D5","midi":74,"time":16.818183499999975,"velocity":0.8031496062992126,"duration":0.2249053255208331},{"name":"F#3","midi":54,"time":17.045456249999976,"velocity":0.8031496062992126,"duration":0.2249053255208331},{"name":"C#5","midi":73,"time":17.045456249999976,"velocity":0.8031496062992126,"duration":0.2249053255208331},{"name":"B2","midi":47,"time":17.272728999999977,"velocity":0.8031496062992126,"duration":0.2249053255208331},{"name":"D5","midi":74,"time":17.272728999999977,"velocity":0.8031496062992126,"duration":0.6392046093750032},{"name":"F#3","midi":54,"time":17.500001749999978,"velocity":0.8031496062992126,"duration":0.2249053255208331},{"name":"B3","midi":59,"time":17.72727449999998,"velocity":0.8031496062992126,"duration":0.2249053255208331},{"name":"A3","midi":57,"time":17.95454724999998,"velocity":0.8031496062992126,"duration":0.2249053255208331},{"name":"B4","midi":71,"time":17.95454724999998,"velocity":0.8031496062992126,"duration":0.2249053255208331},{"name":"G3","midi":55,"time":18.18181999999998,"velocity":0.8031496062992126,"duration":0.452178075520834},{"name":"E5","midi":76,"time":18.18181999999998,"velocity":0.8031496062992126,"duration":0.2249053255208331},{"name":"G5","midi":79,"time":18.40909274999998,"velocity":0.8031496062992126,"duration":0.2249053255208331},{"name":"A3","midi":57,"time":18.636365499999982,"velocity":0.8031496062992126,"duration":0.452178075520834},{"name":"B5","midi":83,"time":18.636365499999982,"velocity":0.8031496062992126,"duration":0.2249053255208331},{"name":"C#5","midi":73,"time":18.863638249999983,"velocity":0.8031496062992126,"duration":0.2249053255208331},{"name":"D3","midi":50,"time":19.090910999999984,"velocity":0.8031496062992126,"duration":1.0416667708333378},{"name":"D5","midi":74,"time":19.090910999999984,"velocity":0.8031496062992126,"duration":0.1515151666666661},{"name":"F#4","midi":66,"time":19.318183749999985,"velocity":0.8031496062992126,"duration":0.2249053255208331},{"name":"B4","midi":71,"time":19.545456499999986,"velocity":0.8031496062992126,"duration":0.2249053255208331},{"name":"A#4","midi":70,"time":19.772729249999987,"velocity":0.8031496062992126,"duration":0.2249053255208331},{"name":"B4","midi":71,"time":20.000001999999988,"velocity":0.8031496062992126,"duration":1.0416667708333378},{"name":"B2","midi":47,"time":20.22727474999999,"velocity":0.8031496062992126,"duration":0.2249053255208331},{"name":"G3","midi":55,"time":20.45454749999999,"velocity":0.8031496062992126,"duration":0.2249053255208331},{"name":"F#3","midi":54,"time":20.68182024999999,"velocity":0.8031496062992126,"duration":0.2249053255208331},{"name":"G3","midi":55,"time":20.90909299999999,"velocity":0.8031496062992126,"duration":0.452178075520834},{"name":"A#4","midi":70,"time":21.136365749999992,"velocity":0.8031496062992126,"duration":0.2249053255208331},{"name":"C#3","midi":49,"time":21.363638499999993,"velocity":0.8031496062992126,"duration":0.6155303645833357},{"name":"E5","midi":76,"time":21.363638499999993,"velocity":0.8031496062992126,"duration":0.2249053255208331},{"name":"D5","midi":74,"time":21.590911249999994,"velocity":0.8031496062992126,"duration":0.2249053255208331},{"name":"E5","midi":76,"time":21.818183999999995,"velocity":0.8031496062992126,"duration":1.0416667708333378},{"name":"F#3","midi":54,"time":22.045456749999996,"velocity":0.8031496062992126,"duration":0.2249053255208331},{"name":"B3","midi":59,"time":22.272729499999997,"velocity":0.8031496062992126,"duration":0.2249053255208331},{"name":"A#3","midi":58,"time":22.500002249999998,"velocity":0.8031496062992126,"duration":0.2249053255208331},{"name":"B3","midi":59,"time":22.727275,"velocity":0.8031496062992126,"duration":0.452178075520834},{"name":"D5","midi":74,"time":22.95454775,"velocity":0.8031496062992126,"duration":0.2249053255208331},{"name":"B2","midi":47,"time":23.1818205,"velocity":0.8031496062992126,"duration":0.6155303645833357},{"name":"G#5","midi":80,"time":23.1818205,"velocity":0.8031496062992126,"duration":0.2249053255208331},{"name":"F#5","midi":78,"time":23.40909325,"velocity":0.8031496062992126,"duration":0.2249053255208331},{"name":"G#5","midi":80,"time":23.636366000000002,"velocity":0.8031496062992126,"duration":1.0416667708333378},{"name":"F3","midi":53,"time":23.863638750000003,"velocity":0.8031496062992126,"duration":0.2249053255208331},{"name":"A3","midi":57,"time":24.090911500000004,"velocity":0.8031496062992126,"duration":0.2249053255208331},{"name":"G#3","midi":56,"time":24.318184250000005,"velocity":0.8031496062992126,"duration":0.2249053255208331},{"name":"A3","midi":57,"time":24.545457000000006,"velocity":0.8031496062992126,"duration":1.124526627604169},{"name":"C#5","midi":73,"time":24.772729750000007,"velocity":0.8031496062992126,"duration":0.2249053255208331},{"name":"F#5","midi":78,"time":25.000002500000008,"velocity":0.8031496062992126,"duration":0.2249053255208331},{"name":"F5","midi":77,"time":25.22727525000001,"velocity":0.8031496062992126,"duration":0.2249053255208331},{"name":"F#5","midi":78,"time":25.45454800000001,"velocity":0.8031496062992126,"duration":0.23910987239582937},{"name":"F#3","midi":54,"time":25.681820750000007,"velocity":0.8031496062992126,"duration":0.2249053255208331},{"name":"A5","midi":81,"time":25.681820750000007,"velocity":0.8031496062992126,"duration":0.2249053255208331},{"name":"B3","midi":59,"time":25.909093500000008,"velocity":0.8031496062992126,"duration":0.2249053255208331},{"name":"G#5","midi":80,"time":25.909093500000008,"velocity":0.8031496062992126,"duration":0.2249053255208331},{"name":"A3","midi":57,"time":26.13636625000001,"velocity":0.8031496062992126,"duration":0.2249053255208331},{"name":"F#5","midi":78,"time":26.13636625000001,"velocity":0.8031496062992126,"duration":0.2249053255208331},{"name":"B3","midi":59,"time":26.36363900000001,"velocity":0.8031496062992126,"duration":0.2249053255208331},{"name":"F5","midi":77,"time":26.36363900000001,"velocity":0.8031496062992126,"duration":0.42613640625000215},{"name":"D4","midi":62,"time":26.59091175000001,"velocity":0.8031496062992126,"duration":0.2249053255208331},{"name":"C#4","midi":61,"time":26.81818450000001,"velocity":0.8031496062992126,"duration":0.2249053255208331},{"name":"C#5","midi":73,"time":26.81818450000001,"velocity":0.8031496062992126,"duration":0.3551136718749994},{"name":"B3","midi":59,"time":27.045457250000013,"velocity":0.8031496062992126,"duration":0.2249053255208331},{"name":"A3","midi":57,"time":27.272730000000013,"velocity":0.8031496062992126,"duration":0.2249053255208331},{"name":"F#5","midi":78,"time":27.272730000000013,"velocity":0.8031496062992126,"duration":0.6794508255208349},{"name":"F#3","midi":54,"time":27.500002750000014,"velocity":0.8031496062992126,"duration":0.2249053255208331},{"name":"B3","midi":59,"time":27.727275500000015,"velocity":0.8031496062992126,"duration":0.2249053255208331},{"name":"A#3","midi":58,"time":27.954548250000016,"velocity":0.8031496062992126,"duration":0.2249053255208331},{"name":"E5","midi":76,"time":27.954548250000016,"velocity":0.8031496062992126,"duration":0.2249053255208331},{"name":"B3","midi":59,"time":28.181821000000017,"velocity":0.8031496062992126,"duration":0.452178075520834},{"name":"D5","midi":74,"time":28.181821000000017,"velocity":0.8031496062992126,"duration":0.2249053255208331},{"name":"F#4","midi":66,"time":28.409093750000018,"velocity":0.8031496062992126,"duration":0.2249053255208331},{"name":"A3","midi":57,"time":28.63636650000002,"velocity":0.8031496062992126,"duration":0.452178075520834},{"name":"B4","midi":71,"time":28.63636650000002,"velocity":0.8031496062992126,"duration":0.2249053255208331},{"name":"A4","midi":69,"time":28.86363925000002,"velocity":0.8031496062992126,"duration":0.2249053255208331},{"name":"G#3","midi":56,"time":29.09091200000002,"velocity":0.8031496062992126,"duration":0.2249053255208331},{"name":"B4","midi":71,"time":29.09091200000002,"velocity":0.8031496062992126,"duration":1.0416667708333378},{"name":"F3","midi":53,"time":29.31818475000002,"velocity":0.8031496062992126,"duration":0.2249053255208331},{"name":"D4","midi":62,"time":29.545457500000023,"velocity":0.8031496062992126,"duration":0.2249053255208331},{"name":"C#4","midi":61,"time":29.772730250000023,"velocity":0.8031496062992126,"duration":0.2249053255208331},{"name":"D4","midi":62,"time":30.000003000000024,"velocity":0.8031496062992126,"duration":0.452178075520834},{"name":"A4","midi":69,"time":30.227275750000025,"velocity":0.8031496062992126,"duration":0.2249053255208331},{"name":"B3","midi":59,"time":30.454548500000026,"velocity":0.8031496062992126,"duration":0.452178075520834},{"name":"G#4","midi":68,"time":30.454548500000026,"velocity":0.8031496062992126,"duration":0.2249053255208331},{"name":"B4","midi":71,"time":30.681821250000027,"velocity":0.8031496062992126,"duration":0.2249053255208331},{"name":"G#3","midi":56,"time":30.909094000000028,"velocity":0.8031496062992126,"duration":0.452178075520834},{"name":"F4","midi":65,"time":30.909094000000028,"velocity":0.8031496062992126,"duration":0.2249053255208331},{"name":"D5","midi":74,"time":31.13636675000003,"velocity":0.8031496062992126,"duration":0.2249053255208331},{"name":"F3","midi":53,"time":31.36363950000003,"velocity":0.8031496062992126,"duration":0.452178075520834},{"name":"C#5","midi":73,"time":31.36363950000003,"velocity":0.8031496062992126,"duration":0.2249053255208331},{"name":"B4","midi":71,"time":31.59091225000003,"velocity":0.8031496062992126,"duration":0.2249053255208331},{"name":"F#3","midi":54,"time":31.81818500000003,"velocity":0.8031496062992126,"duration":0.45217807552083755},{"name":"A4","midi":69,"time":31.81818500000003,"velocity":0.8031496062992126,"duration":0.2249053255208331},{"name":"F4","midi":65,"time":32.04545775000003,"velocity":0.8031496062992126,"duration":0.22490532552083664},{"name":"B2","midi":47,"time":32.27273050000004,"velocity":0.8031496062992126,"duration":0.4521780755208411},{"name":"F#4","midi":66,"time":32.27273050000004,"velocity":0.8031496062992126,"duration":0.22490532552083664},{"name":"B4","midi":71,"time":32.50000325000004,"velocity":0.8031496062992126,"duration":0.22490532552083664},{"name":"C#3","midi":49,"time":32.727276000000046,"velocity":0.8031496062992126,"duration":0.4521780755208269},{"name":"B4","midi":71,"time":32.727276000000046,"velocity":0.8031496062992126,"duration":0.11126895052083086},{"name":"A4","midi":69,"time":32.840912375000045,"velocity":0.8031496062992126,"duration":0.11126895052083086},{"name":"B4","midi":71,"time":32.95454875000004,"velocity":0.8031496062992126,"duration":0.11126895052083086},{"name":"A4","midi":69,"time":33.06818512500004,"velocity":0.8031496062992126,"duration":0.11126895052083086},{"name":"C#2","midi":37,"time":33.18182150000004,"velocity":0.8031496062992126,"duration":0.4521780755208411},{"name":"G#4","midi":68,"time":33.18182150000004,"velocity":0.8031496062992126,"duration":0.22490532552083664},{"name":"F#4","midi":66,"time":33.409094250000045,"velocity":0.8031496062992126,"duration":0.22490532552083664},{"name":"F#2","midi":42,"time":33.63636700000005,"velocity":0.8031496062992126,"duration":0.22490532552083664},{"name":"F#4","midi":66,"time":33.63636700000005,"velocity":0.8031496062992126,"duration":1.815814575520868},{"name":"F#3","midi":54,"time":33.863639750000054,"velocity":0.8031496062992126,"duration":0.22490532552083664},{"name":"E4","midi":64,"time":34.09091250000006,"velocity":0.8031496062992126,"duration":0.22490532552083664},{"name":"D4","midi":62,"time":34.31818525000006,"velocity":0.8031496062992126,"duration":0.22490532552083664},{"name":"E4","midi":64,"time":34.54545800000007,"velocity":0.8031496062992126,"duration":0.22490532552083664},{"name":"F#3","midi":54,"time":34.77273075000007,"velocity":0.8031496062992126,"duration":0.22490532552083664},{"name":"D4","midi":62,"time":35.000003500000076,"velocity":0.8031496062992126,"duration":0.22490532552083664},{"name":"C#4","midi":61,"time":35.22727625000008,"velocity":0.8031496062992126,"duration":0.22490532552083664},{"name":"D4","midi":62,"time":35.454549000000085,"velocity":0.8031496062992126,"duration":0.22490532552083664},{"name":"F#3","midi":54,"time":35.68182175000009,"velocity":0.8031496062992126,"duration":0.22490532552083664},{"name":"B4","midi":71,"time":35.68182175000009,"velocity":0.8031496062992126,"duration":0.22490532552083664},{"name":"C#4","midi":61,"time":35.909094500000094,"velocity":0.8031496062992126,"duration":0.22490532552083664},{"name":"E5","midi":76,"time":35.909094500000094,"velocity":0.8031496062992126,"duration":0.22490532552083664},{"name":"B3","midi":59,"time":36.1363672500001,"velocity":0.8031496062992126,"duration":0.22490532552083664},{"name":"D5","midi":74,"time":36.1363672500001,"velocity":0.8031496062992126,"duration":0.22490532552083664},{"name":"C#4","midi":61,"time":36.3636400000001,"velocity":0.8031496062992126,"duration":0.22490532552083664},{"name":"E5","midi":76,"time":36.3636400000001,"velocity":0.8031496062992126,"duration":0.42613640625000215},{"name":"F#3","midi":54,"time":36.59091275000011,"velocity":0.8031496062992126,"duration":0.22490532552082954},{"name":"A#4","midi":70,"time":36.59091275000011,"velocity":0.8031496062992126,"duration":0.22490532552082954},{"name":"B3","midi":59,"time":36.818185500000105,"velocity":0.8031496062992126,"duration":0.22490532552083664},{"name":"D5","midi":74,"time":36.818185500000105,"velocity":0.8031496062992126,"duration":0.22490532552083664},{"name":"A#3","midi":58,"time":37.04545825000011,"velocity":0.8031496062992126,"duration":0.22490532552083664},{"name":"C#5","midi":73,"time":37.04545825000011,"velocity":0.8031496062992126,"duration":0.22490532552083664},{"name":"B3","midi":59,"time":37.272731000000114,"velocity":0.8031496062992126,"duration":1.1339963255208474},{"name":"D5","midi":74,"time":37.272731000000114,"velocity":0.8031496062992126,"duration":0.402462161458331},{"name":"G#4","midi":68,"time":37.50000375000011,"velocity":0.8031496062992126,"duration":0.22490532552083664},{"name":"C#5","midi":73,"time":37.727276500000116,"velocity":0.8031496062992126,"duration":0.22490532552083664},{"name":"B4","midi":71,"time":37.95454925000012,"velocity":0.8031496062992126,"duration":0.22490532552083664},{"name":"C#5","midi":73,"time":38.181822000000125,"velocity":0.8031496062992126,"duration":1.0890152604166872},{"name":"F3","midi":53,"time":38.40909475000013,"velocity":0.8031496062992126,"duration":0.22490532552083664},{"name":"A3","midi":57,"time":38.636367500000134,"velocity":0.8031496062992126,"duration":0.22490532552083664},{"name":"G#3","midi":56,"time":38.86364025000014,"velocity":0.8031496062992126,"duration":0.22490532552083664},{"name":"A3","midi":57,"time":39.09091300000014,"velocity":0.8031496062992126,"duration":0.4521780755208411},{"name":"F#4","midi":66,"time":39.31818575000015,"velocity":0.8031496062992126,"duration":0.22490532552083664},{"name":"F#3","midi":54,"time":39.54545850000015,"velocity":0.8031496062992126,"duration":0.4521780755208411},{"name":"D5","midi":74,"time":39.54545850000015,"velocity":0.8031496062992126,"duration":0.22490532552083664},{"name":"C#5","midi":73,"time":39.772731250000156,"velocity":0.8031496062992126,"duration":0.22490532552083664},{"name":"C#4","midi":61,"time":40.00000400000016,"velocity":0.8031496062992126,"duration":0.4521780755208269},{"name":"F#4","midi":66,"time":40.00000400000016,"velocity":0.8031496062992126,"duration":0.11126895052083086},{"name":"F4","midi":65,"time":40.11364037500016,"velocity":0.8031496062992126,"duration":0.11126895052083086},{"name":"F#4","midi":66,"time":40.22727675000016,"velocity":0.8031496062992126,"duration":0.11126895052083086},{"name":"F4","midi":65,"time":40.34091312500016,"velocity":0.8031496062992126,"duration":0.3385417005208353},{"name":"C#3","midi":49,"time":40.454549500000155,"velocity":0.8031496062992126,"duration":0.4521780755208411},{"name":"F#4","midi":66,"time":40.68182225000016,"velocity":0.8031496062992126,"duration":0.22490532552083664},{"name":"F#3","midi":54,"time":40.909095000000164,"velocity":0.8031496062992126,"duration":2.7225381510416966},{"name":"F#4","midi":66,"time":40.909095000000164,"velocity":0.8031496062992126,"duration":2.7225381510416966},{"name":"E4","midi":64,"time":41.13636775000016,"velocity":0.8031496062992126,"duration":0.22490532552083664},{"name":"A#3","midi":58,"time":41.363640500000166,"velocity":0.8031496062992126,"duration":0.6794508255208456},{"name":"D4","midi":62,"time":41.363640500000166,"velocity":0.8031496062992126,"duration":0.22490532552083664},{"name":"C#4","midi":61,"time":41.59091325000017,"velocity":0.8031496062992126,"duration":0.22490532552083664},{"name":"D4","midi":62,"time":41.818186000000175,"velocity":0.8031496062992126,"duration":0.4521780755208411},{"name":"B3","midi":59,"time":42.04545875000018,"velocity":0.8031496062992126,"duration":0.22490532552083664},{"name":"A#3","midi":58,"time":42.272731500000184,"velocity":0.8031496062992126,"duration":0.22490532552083664},{"name":"C#4","midi":61,"time":42.272731500000184,"velocity":0.8031496062992126,"duration":0.22490532552083664},{"name":"G#3","midi":56,"time":42.50000425000019,"velocity":0.8031496062992126,"duration":0.22490532552083664},{"name":"B3","midi":59,"time":42.50000425000019,"velocity":0.8031496062992126,"duration":0.22490532552083664},{"name":"A#3","midi":58,"time":42.72727700000019,"velocity":0.8031496062992126,"duration":0.8996213020833324},{"name":"C#4","midi":61,"time":42.72727700000019,"velocity":0.8031496062992126,"duration":0.8996213020833324},{"name":"C#5","midi":73,"time":43.863640750000194,"velocity":0.8031496062992126,"duration":0.22490532552083664},{"name":"G#4","midi":68,"time":44.0909135000002,"velocity":0.8031496062992126,"duration":0.22490532552083664},{"name":"B4","midi":71,"time":44.3181862500002,"velocity":0.8031496062992126,"duration":0.22490532552083664},{"name":"A#4","midi":70,"time":44.54545900000021,"velocity":0.8031496062992126,"duration":0.6392046093749997},{"name":"F#4","midi":66,"time":44.772731750000204,"velocity":0.8031496062992126,"duration":0.22490532552083664},{"name":"C#4","midi":61,"time":45.00000450000021,"velocity":0.8031496062992126,"duration":0.22490532552082954},{"name":"E4","midi":64,"time":45.227277250000206,"velocity":0.8031496062992126,"duration":0.22490532552083664},{"name":"C#5","midi":73,"time":45.227277250000206,"velocity":0.8031496062992126,"duration":0.22490532552083664},{"name":"D4","midi":62,"time":45.45455000000021,"velocity":0.8031496062992126,"duration":0.4521780755208411},{"name":"F#4","midi":66,"time":45.45455000000021,"velocity":0.8031496062992126,"duration":0.22490532552083664},{"name":"F#5","midi":78,"time":45.681822750000215,"velocity":0.8031496062992126,"duration":0.22490532552083664},{"name":"A#3","midi":58,"time":45.90909550000022,"velocity":0.8031496062992126,"duration":0.4498106510416733},{"name":"C#5","midi":73,"time":45.90909550000022,"velocity":0.8031496062992126,"duration":0.22490532552083664},{"name":"E5","midi":76,"time":46.136368250000224,"velocity":0.8031496062992126,"duration":0.22490532552083664},{"name":"D5","midi":74,"time":46.36364100000023,"velocity":0.8031496062992126,"duration":0.6392046093749997},{"name":"B3","midi":59,"time":46.590913750000226,"velocity":0.8031496062992126,"duration":0.22490532552083664},{"name":"F#3","midi":54,"time":46.81818650000023,"velocity":0.8031496062992126,"duration":0.22490532552082954},{"name":"A3","midi":57,"time":47.04545925000023,"velocity":0.8031496062992126,"duration":0.22490532552083664},{"name":"F#5","midi":78,"time":47.04545925000023,"velocity":0.8031496062992126,"duration":0.22490532552083664},{"name":"G3","midi":55,"time":47.27273200000023,"velocity":0.8031496062992126,"duration":0.4521780755208411},{"name":"B4","midi":71,"time":47.27273200000023,"velocity":0.8031496062992126,"duration":0.22490532552083664},{"name":"B5","midi":83,"time":47.50000475000024,"velocity":0.8031496062992126,"duration":0.22490532552083664},{"name":"D#3","midi":51,"time":47.72727750000024,"velocity":0.8031496062992126,"duration":0.4521780755208411},{"name":"F#5","midi":78,"time":47.72727750000024,"velocity":0.8031496062992126,"duration":0.22490532552083664},{"name":"A5","midi":81,"time":47.954550250000246,"velocity":0.8031496062992126,"duration":0.22490532552083664},{"name":"E3","midi":52,"time":48.18182300000025,"velocity":0.8031496062992126,"duration":0.4521780755208411},{"name":"G5","midi":79,"time":48.18182300000025,"velocity":0.8031496062992126,"duration":0.22490532552083664},{"name":"E5","midi":76,"time":48.409095750000255,"velocity":0.8031496062992126,"duration":0.22490532552083664},{"name":"G3","midi":55,"time":48.63636850000026,"velocity":0.8031496062992126,"duration":0.4521780755208411},{"name":"B4","midi":71,"time":48.63636850000026,"velocity":0.8031496062992126,"duration":0.22490532552083664},{"name":"D5","midi":74,"time":48.86364125000026,"velocity":0.8031496062992126,"duration":0.22490532552083664},{"name":"A3","midi":57,"time":49.09091400000027,"velocity":0.8031496062992126,"duration":0.4521780755208411},{"name":"C5","midi":72,"time":49.09091400000027,"velocity":0.8031496062992126,"duration":0.22490532552083664},{"name":"G5","midi":79,"time":49.31818675000027,"velocity":0.8031496062992126,"duration":0.22490532552083664},{"name":"C4","midi":60,"time":49.54545950000028,"velocity":0.8031496062992126,"duration":0.40246216145833813},{"name":"F#5","midi":78,"time":49.54545950000028,"velocity":0.8031496062992126,"duration":0.22490532552083664},{"name":"A5","midi":81,"time":49.77273225000028,"velocity":0.8031496062992126,"duration":0.22490532552083664},{"name":"E5","midi":76,"time":50.000005000000286,"velocity":0.8031496062992126,"duration":0.22490532552083664},{"name":"B3","midi":59,"time":50.22727775000029,"velocity":0.8031496062992126,"duration":0.22490532552083664},{"name":"D#5","midi":75,"time":50.22727775000029,"velocity":0.8031496062992126,"duration":0.22490532552083664},{"name":"F#3","midi":54,"time":50.454550500000295,"velocity":0.8031496062992126,"duration":0.22490532552083664},{"name":"C#5","midi":73,"time":50.454550500000295,"velocity":0.8031496062992126,"duration":0.22490532552083664},{"name":"A3","midi":57,"time":50.6818232500003,"velocity":0.8031496062992126,"duration":0.22490532552083664},{"name":"B4","midi":71,"time":50.6818232500003,"velocity":0.8031496062992126,"duration":0.2604166927083398},{"name":"G3","midi":55,"time":50.909096000000304,"velocity":0.8031496062992126,"duration":0.4521780755208411},{"name":"E5","midi":76,"time":51.13636875000031,"velocity":0.8031496062992126,"duration":0.22490532552083664},{"name":"E3","midi":52,"time":51.36364150000031,"velocity":0.8031496062992126,"duration":0.4521780755208411},{"name":"B4","midi":71,"time":51.36364150000031,"velocity":0.8031496062992126,"duration":0.22490532552083664},{"name":"D5","midi":74,"time":51.59091425000032,"velocity":0.8031496062992126,"duration":0.22490532552083664},{"name":"A3","midi":57,"time":51.81818700000032,"velocity":0.8031496062992126,"duration":0.452178075520834},{"name":"C5","midi":72,"time":51.81818700000032,"velocity":0.8031496062992126,"duration":0.2604166927083327},{"name":"E5","midi":76,"time":52.04545975000032,"velocity":0.8031496062992126,"duration":0.22490532552083664},{"name":"F#3","midi":54,"time":52.27273250000032,"velocity":0.8031496062992126,"duration":0.4521780755208411},{"name":"A4","midi":69,"time":52.27273250000032,"velocity":0.8031496062992126,"duration":0.22490532552083664},{"name":"C5","midi":72,"time":52.50000525000033,"velocity":0.8031496062992126,"duration":0.22490532552083664},{"name":"G3","midi":55,"time":52.72727800000033,"velocity":0.8031496062992126,"duration":0.452178075520834},{"name":"B4","midi":71,"time":52.72727800000033,"velocity":0.8031496062992126,"duration":0.2604166927083327},{"name":"E5","midi":76,"time":52.95455075000033,"velocity":0.8031496062992126,"duration":0.22490532552083664},{"name":"E3","midi":52,"time":53.181823500000334,"velocity":0.8031496062992126,"duration":0.4521780755208411},{"name":"G4","midi":67,"time":53.181823500000334,"velocity":0.8031496062992126,"duration":0.22490532552083664},{"name":"B4","midi":71,"time":53.40909625000034,"velocity":0.8031496062992126,"duration":0.22490532552083664},{"name":"C4","midi":60,"time":53.63636900000034,"velocity":0.8031496062992126,"duration":0.452178075520834},{"name":"A4","midi":69,"time":53.63636900000034,"velocity":0.8031496062992126,"duration":0.2604166927083327},{"name":"E5","midi":76,"time":53.86364175000034,"velocity":0.8031496062992126,"duration":0.22490532552083664},{"name":"A3","midi":57,"time":54.090914500000345,"velocity":0.8031496062992126,"duration":0.4521780755208411},{"name":"F#4","midi":66,"time":54.090914500000345,"velocity":0.8031496062992126,"duration":0.22490532552083664},{"name":"A4","midi":69,"time":54.31818725000035,"velocity":0.8031496062992126,"duration":0.22490532552083664},{"name":"B3","midi":59,"time":54.545460000000354,"velocity":0.8031496062992126,"duration":0.452178075520834},{"name":"G4","midi":67,"time":54.545460000000354,"velocity":0.8031496062992126,"duration":0.2604166927083327},{"name":"E5","midi":76,"time":54.77273275000035,"velocity":0.8031496062992126,"duration":0.22490532552083664},{"name":"G3","midi":55,"time":55.000005500000356,"velocity":0.8031496062992126,"duration":0.4521780755208411},{"name":"E4","midi":64,"time":55.000005500000356,"velocity":0.8031496062992126,"duration":0.22490532552083664},{"name":"G4","midi":67,"time":55.22727825000036,"velocity":0.8031496062992126,"duration":0.22490532552083664},{"name":"A3","midi":57,"time":55.454551000000365,"velocity":0.8031496062992126,"duration":0.4521780755208411},{"name":"F#4","midi":66,"time":55.454551000000365,"velocity":0.8031496062992126,"duration":0.22490532552083664},{"name":"E5","midi":76,"time":55.68182375000037,"velocity":0.8031496062992126,"duration":0.22490532552083664},{"name":"F#3","midi":54,"time":55.90909650000037,"velocity":0.8031496062992126,"duration":0.4521780755208411},{"name":"D#5","midi":75,"time":55.90909650000037,"velocity":0.8031496062992126,"duration":0.22490532552083664},{"name":"A5","midi":81,"time":56.13636925000038,"velocity":0.8031496062992126,"duration":0.22490532552083664},{"name":"B2","midi":47,"time":56.36364200000038,"velocity":0.8031496062992126,"duration":0.22490532552082954},{"name":"E5","midi":76,"time":56.36364200000038,"velocity":0.8031496062992126,"duration":0.11126895052083086},{"name":"F#5","midi":78,"time":56.47727837500038,"velocity":0.8031496062992126,"duration":0.11126895052083086},{"name":"B3","midi":59,"time":56.59091475000038,"velocity":0.8031496062992126,"duration":0.22490532552082954},{"name":"G5","midi":79,"time":56.59091475000038,"velocity":0.8031496062992126,"duration":0.11126895052083086},{"name":"F#5","midi":78,"time":56.70455112500038,"velocity":0.8031496062992126,"duration":0.11126895052083086},{"name":"F#3","midi":54,"time":56.81818750000038,"velocity":0.8031496062992126,"duration":0.22490532552082954},{"name":"G5","midi":79,"time":56.81818750000038,"velocity":0.8031496062992126,"duration":0.11126895052083086},{"name":"F#5","midi":78,"time":56.931823875000376,"velocity":0.8031496062992126,"duration":0.11126895052083086},{"name":"A3","midi":57,"time":57.045460250000374,"velocity":0.8031496062992126,"duration":0.22490532552083664},{"name":"E5","midi":76,"time":57.045460250000374,"velocity":0.8031496062992126,"duration":0.22490532552083664},{"name":"G3","midi":55,"time":57.27273300000038,"velocity":0.8031496062992126,"duration":0.22490532552083664},{"name":"E5","midi":76,"time":57.27273300000038,"velocity":0.8031496062992126,"duration":0.6628788541666779},{"name":"B3","midi":59,"time":57.50000575000038,"velocity":0.8031496062992126,"duration":0.22490532552083664},{"name":"D#3","midi":51,"time":57.72727850000039,"velocity":0.8031496062992126,"duration":0.22490532552083664},{"name":"F#3","midi":54,"time":57.95455125000039,"velocity":0.8031496062992126,"duration":0.22490532552083664},{"name":"E3","midi":52,"time":58.1818240000004,"velocity":0.8031496062992126,"duration":0.452178075520834},{"name":"G5","midi":79,"time":58.409096750000394,"velocity":0.8031496062992126,"duration":0.22490532552083664},{"name":"G3","midi":55,"time":58.6363695000004,"velocity":0.8031496062992126,"duration":0.4521780755208411},{"name":"B4","midi":71,"time":58.6363695000004,"velocity":0.8031496062992126,"duration":0.22490532552083664},{"name":"D5","midi":74,"time":58.8636422500004,"velocity":0.8031496062992126,"duration":0.22490532552083664},{"name":"A3","midi":57,"time":59.09091500000041,"velocity":0.8031496062992126,"duration":0.22490532552083664},{"name":"C#5","midi":73,"time":59.09091500000041,"velocity":0.8031496062992126,"duration":0.6628788541666779},{"name":"A4","midi":69,"time":59.31818775000041,"velocity":0.8031496062992126,"duration":0.22490532552083664},{"name":"E4","midi":64,"time":59.54546050000042,"velocity":0.8031496062992126,"duration":0.22490532552083664},{"name":"G4","midi":67,"time":59.77273325000042,"velocity":0.8031496062992126,"duration":0.22490532552083664},{"name":"E5","midi":76,"time":59.77273325000042,"velocity":0.8031496062992126,"duration":0.22490532552083664},{"name":"F#4","midi":66,"time":60.000006000000425,"velocity":0.8031496062992126,"duration":0.4521780755208411},{"name":"A4","midi":69,"time":60.000006000000425,"velocity":0.8031496062992126,"duration":0.22490532552083664},{"name":"A5","midi":81,"time":60.22727875000043,"velocity":0.8031496062992126,"duration":0.22490532552083664},{"name":"C#4","midi":61,"time":60.454551500000434,"velocity":0.8031496062992126,"duration":0.4498106510416733},{"name":"E5","midi":76,"time":60.454551500000434,"velocity":0.8031496062992126,"duration":0.22490532552083664},{"name":"G5","midi":79,"time":60.68182425000044,"velocity":0.8031496062992126,"duration":0.22490532552083664},{"name":"F#5","midi":78,"time":60.90909700000044,"velocity":0.8031496062992126,"duration":1.017992526041681},{"name":"D4","midi":62,"time":61.13636975000044,"velocity":0.8031496062992126,"duration":0.22490532552083664},{"name":"A#3","midi":58,"time":61.363642500000445,"velocity":0.8031496062992126,"duration":0.22490532552083664},{"name":"C#4","midi":61,"time":61.59091525000045,"velocity":0.8031496062992126,"duration":0.22490532552083664},{"name":"B3","midi":59,"time":61.818188000000454,"velocity":0.8031496062992126,"duration":0.4521780755208411},{"name":"D5","midi":74,"time":62.04546075000046,"velocity":0.8031496062992126,"duration":0.22490532552083664},{"name":"F#3","midi":54,"time":62.27273350000046,"velocity":0.8031496062992126,"duration":0.4521780755208411},{"name":"A#4","midi":70,"time":62.27273350000046,"velocity":0.8031496062992126,"duration":0.22490532552083664},{"name":"C#5","midi":73,"time":62.50000625000047,"velocity":0.8031496062992126,"duration":0.22490532552083664},{"name":"G3","midi":55,"time":62.72727900000047,"velocity":0.8031496062992126,"duration":0.22490532552083664},{"name":"B4","midi":71,"time":62.72727900000047,"velocity":0.8031496062992126,"duration":0.6628788541666779},{"name":"G4","midi":67,"time":62.954551750000476,"velocity":0.8031496062992126,"duration":0.22490532552083664},{"name":"D4","midi":62,"time":63.18182450000048,"velocity":0.8031496062992126,"duration":0.22490532552083664},{"name":"F#4","midi":66,"time":63.409097250000485,"velocity":0.8031496062992126,"duration":0.22490532552083664},{"name":"D5","midi":74,"time":63.409097250000485,"velocity":0.8031496062992126,"duration":0.22490532552083664},{"name":"E4","midi":64,"time":63.63637000000049,"velocity":0.8031496062992126,"duration":0.4521780755208411},{"name":"G4","midi":67,"time":63.63637000000049,"velocity":0.8031496062992126,"duration":0.22490532552083664},{"name":"G5","midi":79,"time":63.863642750000494,"velocity":0.8031496062992126,"duration":0.22490532552083664},{"name":"B3","midi":59,"time":64.09091550000049,"velocity":0.8031496062992126,"duration":0.44981065104165907},{"name":"D5","midi":74,"time":64.09091550000049,"velocity":0.8031496062992126,"duration":0.22490532552083664},{"name":"F#5","midi":78,"time":64.31818825000049,"velocity":0.8031496062992126,"duration":0.22490532552082243},{"name":"E5","midi":76,"time":64.54546100000047,"velocity":0.8031496062992126,"duration":1.0179925260416525},{"name":"C#4","midi":61,"time":64.77273375000047,"velocity":0.8031496062992126,"duration":0.22490532552083664},{"name":"G#3","midi":56,"time":65.00000650000047,"velocity":0.8031496062992126,"duration":0.22490532552083664},{"name":"B3","midi":59,"time":65.22727925000046,"velocity":0.8031496062992126,"duration":0.22490532552083664},{"name":"A#3","midi":58,"time":65.45455200000046,"velocity":0.8031496062992126,"duration":0.452178075520834},{"name":"C#5","midi":73,"time":65.68182475000046,"velocity":0.8031496062992126,"duration":0.22490532552083664},{"name":"F3","midi":53,"time":65.90909750000046,"velocity":0.8031496062992126,"duration":0.452178075520834},{"name":"G#4","midi":68,"time":65.90909750000046,"velocity":0.8031496062992126,"duration":0.22490532552083664},{"name":"B4","midi":71,"time":66.13637025000045,"velocity":0.8031496062992126,"duration":0.22490532552083664},{"name":"F#3","midi":54,"time":66.36364300000045,"velocity":0.8031496062992126,"duration":0.22490532552083664},{"name":"A#4","midi":70,"time":66.36364300000045,"velocity":0.8031496062992126,"duration":0.6628788541666637},{"name":"F#4","midi":66,"time":66.59091575000045,"velocity":0.8031496062992126,"duration":0.22490532552083664},{"name":"C#4","midi":61,"time":66.81818850000045,"velocity":0.8031496062992126,"duration":0.22490532552083664},{"name":"E4","midi":64,"time":67.04546125000044,"velocity":0.8031496062992126,"duration":0.22490532552083664},{"name":"C#5","midi":73,"time":67.04546125000044,"velocity":0.8031496062992126,"duration":0.22490532552083664},{"name":"D4","midi":62,"time":67.27273400000044,"velocity":0.8031496062992126,"duration":0.452178075520834},{"name":"F#4","midi":66,"time":67.27273400000044,"velocity":0.8031496062992126,"duration":0.22490532552083664},{"name":"F#5","midi":78,"time":67.50000675000044,"velocity":0.8031496062992126,"duration":0.22490532552083664},{"name":"A#3","midi":58,"time":67.72727950000044,"velocity":0.8031496062992126,"duration":0.44981065104165907},{"name":"C#5","midi":73,"time":67.72727950000044,"velocity":0.8031496062992126,"duration":0.22490532552083664},{"name":"E5","midi":76,"time":67.95455225000043,"velocity":0.8031496062992126,"duration":0.22490532552082243},{"name":"D5","midi":74,"time":68.18182500000042,"velocity":0.8031496062992126,"duration":1.0653410156249947},{"name":"B3","midi":59,"time":68.40909775000041,"velocity":0.8031496062992126,"duration":0.22490532552083664},{"name":"F#3","midi":54,"time":68.63637050000041,"velocity":0.8031496062992126,"duration":0.22490532552083664},{"name":"A3","midi":57,"time":68.86364325000041,"velocity":0.8031496062992126,"duration":0.22490532552083664},{"name":"G3","midi":55,"time":69.0909160000004,"velocity":0.8031496062992126,"duration":0.4521780755208482},{"name":"B4","midi":71,"time":69.31818875000042,"velocity":0.8031496062992126,"duration":0.22490532552083664},{"name":"D#3","midi":51,"time":69.54546150000041,"velocity":0.8031496062992126,"duration":0.452178075520834},{"name":"F#4","midi":66,"time":69.54546150000041,"velocity":0.8031496062992126,"duration":0.22490532552083664},{"name":"A4","midi":69,"time":69.77273425000041,"velocity":0.8031496062992126,"duration":0.22490532552083664},{"name":"E3","midi":52,"time":70.00000700000041,"velocity":0.8031496062992126,"duration":0.452178075520834},{"name":"G4","midi":67,"time":70.00000700000041,"velocity":0.8031496062992126,"duration":0.22490532552083664},{"name":"B4","midi":71,"time":70.2272797500004,"velocity":0.8031496062992126,"duration":0.22490532552083664},{"name":"D3","midi":50,"time":70.4545525000004,"velocity":0.8031496062992126,"duration":0.452178075520834},{"name":"E4","midi":64,"time":70.4545525000004,"velocity":0.8031496062992126,"duration":0.22490532552083664},{"name":"D5","midi":74,"time":70.6818252500004,"velocity":0.8031496062992126,"duration":0.22490532552083664},{"name":"E3","midi":52,"time":70.9090980000004,"velocity":0.8031496062992126,"duration":0.452178075520834},{"name":"C#5","midi":73,"time":70.9090980000004,"velocity":0.8031496062992126,"duration":0.22490532552083664},{"name":"E5","midi":76,"time":71.1363707500004,"velocity":0.8031496062992126,"duration":0.22490532552083664},{"name":"C#3","midi":49,"time":71.36364350000039,"velocity":0.8031496062992126,"duration":0.44981065104165907},{"name":"G5","midi":79,"time":71.36364350000039,"velocity":0.8031496062992126,"duration":0.22490532552083664},{"name":"B4","midi":71,"time":71.59091625000039,"velocity":0.8031496062992126,"duration":0.22490532552082243},{"name":"A#4","midi":70,"time":71.81818900000037,"velocity":0.8031496062992126,"duration":0.22490532552083664},{"name":"F#3","midi":54,"time":72.04546175000037,"velocity":0.8031496062992126,"duration":0.22490532552083664},{"name":"C#5","midi":73,"time":72.04546175000037,"velocity":0.8031496062992126,"duration":0.22490532552083664},{"name":"C#3","midi":49,"time":72.27273450000037,"velocity":0.8031496062992126,"duration":0.22490532552083664},{"name":"F#4","midi":66,"time":72.27273450000037,"velocity":0.8031496062992126,"duration":0.44981065104165907},{"name":"E3","midi":52,"time":72.50000725000037,"velocity":0.8031496062992126,"duration":0.22490532552082243},{"name":"D3","midi":50,"time":72.72728000000035,"velocity":0.8031496062992126,"duration":0.452178075520834},{"name":"B4","midi":71,"time":72.95455275000035,"velocity":0.8031496062992126,"duration":0.22490532552083664},{"name":"B2","midi":47,"time":73.18182550000034,"velocity":0.8031496062992126,"duration":0.452178075520834},{"name":"F#4","midi":66,"time":73.18182550000034,"velocity":0.8031496062992126,"duration":0.22490532552083664},{"name":"A4","midi":69,"time":73.40909825000034,"velocity":0.8031496062992126,"duration":0.22490532552083664},{"name":"E3","midi":52,"time":73.63637100000034,"velocity":0.8031496062992126,"duration":0.452178075520834},{"name":"G4","midi":67,"time":73.63637100000034,"velocity":0.8031496062992126,"duration":0.2604166927083327},{"name":"B4","midi":71,"time":73.86364375000034,"velocity":0.8031496062992126,"duration":0.22490532552083664},{"name":"C#3","midi":49,"time":74.09091650000033,"velocity":0.8031496062992126,"duration":0.452178075520834},{"name":"E4","midi":64,"time":74.09091650000033,"velocity":0.8031496062992126,"duration":0.22490532552083664},{"name":"G4","midi":67,"time":74.31818925000033,"velocity":0.8031496062992126,"duration":0.22490532552083664},{"name":"D3","midi":50,"time":74.54546200000033,"velocity":0.8031496062992126,"duration":0.452178075520834},{"name":"F#4","midi":66,"time":74.54546200000033,"velocity":0.8031496062992126,"duration":0.2604166927083327},{"name":"B4","midi":71,"time":74.77273475000032,"velocity":0.8031496062992126,"duration":0.22490532552083664},{"name":"B2","midi":47,"time":75.00000750000032,"velocity":0.8031496062992126,"duration":0.452178075520834},{"name":"D4","midi":62,"time":75.00000750000032,"velocity":0.8031496062992126,"duration":0.22490532552083664},{"name":"F#4","midi":66,"time":75.22728025000032,"velocity":0.8031496062992126,"duration":0.22490532552083664},{"name":"G3","midi":55,"time":75.45455300000032,"velocity":0.8031496062992126,"duration":0.452178075520834},{"name":"E4","midi":64,"time":75.45455300000032,"velocity":0.8031496062992126,"duration":0.2604166927083327},{"name":"B4","midi":71,"time":75.68182575000031,"velocity":0.8031496062992126,"duration":0.22490532552083664},{"name":"E3","midi":52,"time":75.90909850000031,"velocity":0.8031496062992126,"duration":0.452178075520834},{"name":"C#4","midi":61,"time":75.90909850000031,"velocity":0.8031496062992126,"duration":0.22490532552083664},{"name":"E4","midi":64,"time":76.13637125000031,"velocity":0.8031496062992126,"duration":0.22490532552083664},{"name":"F#3","midi":54,"time":76.3636440000003,"velocity":0.8031496062992126,"duration":0.452178075520834},{"name":"D4","midi":62,"time":76.3636440000003,"velocity":0.8031496062992126,"duration":0.2604166927083327},{"name":"B4","midi":71,"time":76.5909167500003,"velocity":0.8031496062992126,"duration":0.22490532552083664},{"name":"D3","midi":50,"time":76.8181895000003,"velocity":0.8031496062992126,"duration":0.452178075520834},{"name":"B3","midi":59,"time":76.8181895000003,"velocity":0.8031496062992126,"duration":0.22490532552083664},{"name":"D4","midi":62,"time":77.0454622500003,"velocity":0.8031496062992126,"duration":0.22490532552083664},{"name":"E3","midi":52,"time":77.2727350000003,"velocity":0.8031496062992126,"duration":0.452178075520834},{"name":"C#4","midi":61,"time":77.2727350000003,"velocity":0.8031496062992126,"duration":0.22490532552083664},{"name":"B4","midi":71,"time":77.5000077500003,"velocity":0.8031496062992126,"duration":0.22490532552083664},{"name":"C#3","midi":49,"time":77.72728050000029,"velocity":0.8031496062992126,"duration":0.452178075520834},{"name":"A#4","midi":70,"time":77.72728050000029,"velocity":0.8031496062992126,"duration":0.22490532552083664},{"name":"E5","midi":76,"time":77.95455325000029,"velocity":0.8031496062992126,"duration":0.22490532552083664},{"name":"F#3","midi":54,"time":78.18182600000029,"velocity":0.8031496062992126,"duration":0.452178075520834},{"name":"D5","midi":74,"time":78.18182600000029,"velocity":0.8031496062992126,"duration":0.11126895052083796},{"name":"C#5","midi":73,"time":78.29546237500028,"velocity":0.8031496062992126,"duration":0.11126895052083796},{"name":"D5","midi":74,"time":78.40909875000028,"velocity":0.8031496062992126,"duration":0.11126895052083796},{"name":"C#5","midi":73,"time":78.52273512500028,"velocity":0.8031496062992126,"duration":0.11126895052083796},{"name":"F#2","midi":42,"time":78.63637150000028,"velocity":0.8031496062992126,"duration":0.452178075520834},{"name":"D5","midi":74,"time":78.63637150000028,"velocity":0.8031496062992126,"duration":0.11126895052083796},{"name":"C#5","midi":73,"time":78.75000787500028,"velocity":0.8031496062992126,"duration":0.11126895052083796},{"name":"B4","midi":71,"time":78.86364425000028,"velocity":0.8031496062992126,"duration":0.22490532552083664},{"name":"G2","midi":43,"time":79.09091700000027,"velocity":0.8031496062992126,"duration":1.0890152604166587},{"name":"B4","midi":71,"time":79.09091700000027,"velocity":0.8031496062992126,"duration":0.17755683593749438},{"name":"G4","midi":67,"time":79.31818975000027,"velocity":0.8031496062992126,"duration":0.22490532552083664},{"name":"F#5","midi":78,"time":79.54546250000027,"velocity":0.8031496062992126,"duration":0.22490532552083664},{"name":"D#5","midi":75,"time":79.77273525000027,"velocity":0.8031496062992126,"duration":0.22490532552083664},{"name":"E5","midi":76,"time":80.00000800000026,"velocity":0.8031496062992126,"duration":1.0653410156249947},{"name":"E2","midi":40,"time":80.22728075000026,"velocity":0.8031496062992126,"duration":0.22490532552083664},{"name":"C#3","midi":49,"time":80.45455350000026,"velocity":0.8031496062992126,"duration":0.22490532552083664},{"name":"A#2","midi":46,"time":80.68182625000026,"velocity":0.8031496062992126,"duration":0.22490532552083664},{"name":"B2","midi":47,"time":80.90909900000025,"velocity":0.8031496062992126,"duration":1.089015260416673},{"name":"B4","midi":71,"time":81.13637175000027,"velocity":0.8031496062992126,"duration":0.22490532552083664},{"name":"G#5","midi":80,"time":81.36364450000026,"velocity":0.8031496062992126,"duration":0.22490532552083664},{"name":"F5","midi":77,"time":81.59091725000026,"velocity":0.8031496062992126,"duration":0.22490532552083664},{"name":"F#5","midi":78,"time":81.81819000000026,"velocity":0.8031496062992126,"duration":0.6628788541666637},{"name":"A#2","midi":46,"time":82.04546275000025,"velocity":0.8031496062992126,"duration":0.22490532552083664},{"name":"E3","midi":52,"time":82.27273550000025,"velocity":0.8031496062992126,"duration":0.22490532552083664},{"name":"C#3","midi":49,"time":82.50000825000025,"velocity":0.8031496062992126,"duration":0.22490532552083664},{"name":"E5","midi":76,"time":82.50000825000025,"velocity":0.8031496062992126,"duration":0.22490532552083664},{"name":"G3","midi":55,"time":82.72728100000025,"velocity":0.8031496062992126,"duration":0.4758523203124838},{"name":"D5","midi":74,"time":82.72728100000025,"velocity":0.8031496062992126,"duration":0.23437502343749372},{"name":"C#5","midi":73,"time":82.9640234479169,"velocity":0.8031496062992126,"duration":0.23437502343749372},{"name":"E3","midi":52,"time":83.20550074479189,"velocity":0.8031496062992126,"duration":0.4758523203124838},{"name":"D5","midi":74,"time":83.20550074479189,"velocity":0.8031496062992126,"duration":0.23437502343749372},{"name":"B4","midi":71,"time":83.44697804166688,"velocity":0.8031496062992126,"duration":0.23437502343749372},{"name":"F#3","midi":54,"time":83.68845533854187,"velocity":0.8031496062992126,"duration":0.47585232031252644},{"name":"B4","midi":71,"time":83.68845533854187,"velocity":0.8031496062992126,"duration":0.11600379947917361},{"name":"A#4","midi":70,"time":83.80919398697938,"velocity":0.8031496062992126,"duration":0.11600379947917361},{"name":"B4","midi":71,"time":83.92993263541689,"velocity":0.8031496062992126,"duration":0.11600379947917361},{"name":"A#4","midi":70,"time":84.0506712838544,"velocity":0.8031496062992126,"duration":0.1160037994791594},{"name":"F#2","midi":42,"time":84.1714099322919,"velocity":0.8031496062992126,"duration":0.47585232031251223},{"name":"B4","midi":71,"time":84.1714099322919,"velocity":0.8031496062992126,"duration":0.11600379947917361},{"name":"A#4","midi":70,"time":84.2921485807294,"velocity":0.8031496062992126,"duration":0.11600379947917361},{"name":"B4","midi":71,"time":84.41288722916691,"velocity":0.8031496062992126,"duration":0.23437502343749372},{"name":"B4","midi":71,"time":84.6543645260419,"velocity":0.8031496062992126,"duration":3.4872162578125057},{"name":"B2","midi":47,"time":84.6543645260419,"velocity":0.8031496062992126,"duration":3.517992776041666},{"name":"A3","midi":57,"time":84.89820924739607,"velocity":0.8031496062992126,"duration":0.23910987239582937},{"name":"D#4","midi":63,"time":85.14678881770857,"velocity":0.8031496062992126,"duration":0.7386364375000056},{"name":"G3","midi":55,"time":85.14678881770857,"velocity":0.8031496062992126,"duration":0.23910987239582937},{"name":"F#3","midi":54,"time":85.39536838802107,"velocity":0.8031496062992126,"duration":0.23910987239582937},{"name":"G3","midi":55,"time":85.64394795833357,"velocity":0.8031496062992126,"duration":0.5184659609375046},{"name":"E4","midi":64,"time":85.9043646510419,"velocity":0.8031496062992126,"duration":0.2533144192708363},{"name":"D#4","midi":63,"time":86.16951619270857,"velocity":0.8031496062992126,"duration":0.2533144192708363},{"name":"F#3","midi":54,"time":86.16951619270857,"velocity":0.8031496062992126,"duration":0.2533144192708363},{"name":"C#4","midi":61,"time":86.43230030989608,"velocity":0.8031496062992126,"duration":0.2533144192708363},{"name":"E3","midi":52,"time":86.43230030989608,"velocity":0.8031496062992126,"duration":0.2533144192708363},{"name":"F#3","midi":54,"time":86.74243291666691,"velocity":0.8031496062992126,"duration":1.4109849895833264},{"name":"D#4","midi":63,"time":86.74243291666691,"velocity":0.8031496062992126,"duration":1.4086175651041657},{"name":"F#5","midi":78,"time":90.90910000000024,"velocity":0.8031496062992126,"duration":0.20123108072917262},{"name":"F#5","midi":78,"time":91.13637275000025,"velocity":0.8031496062992126,"duration":1.5625001562499818},{"name":"D5","midi":74,"time":91.13637275000025,"velocity":0.8031496062992126,"duration":1.3446971041666558},{"name":"B4","midi":71,"time":91.13637275000025,"velocity":0.8031496062992126,"duration":1.3446971041666558},{"name":"E4","midi":64,"time":91.36364550000025,"velocity":0.8031496062992126,"duration":0.22490532552083664},{"name":"D4","midi":62,"time":91.59091825000024,"velocity":0.8031496062992126,"duration":0.22490532552083664},{"name":"C#4","midi":61,"time":91.81819100000024,"velocity":0.8031496062992126,"duration":0.22490532552083664},{"name":"D4","midi":62,"time":92.04546375000024,"velocity":0.8031496062992126,"duration":0.22490532552083664},{"name":"B3","midi":59,"time":92.27273650000024,"velocity":0.8031496062992126,"duration":0.220170476562501},{"name":"A#3","midi":58,"time":92.50000925000023,"velocity":0.8031496062992126,"duration":0.452178075520834},{"name":"G5","midi":79,"time":92.72728200000023,"velocity":0.8031496062992126,"duration":0.22490532552083664},{"name":"F#5","midi":78,"time":92.95455475000023,"velocity":0.8031496062992126,"duration":0.22490532552083664},{"name":"C#4","midi":61,"time":92.95455475000023,"velocity":0.8031496062992126,"duration":0.452178075520834},{"name":"E5","midi":76,"time":93.18182750000022,"velocity":0.8031496062992126,"duration":0.22490532552083664},{"name":"F#5","midi":78,"time":93.40910025000022,"velocity":0.8031496062992126,"duration":0.22490532552083664},{"name":"F#3","midi":54,"time":93.40910025000022,"velocity":0.8031496062992126,"duration":0.452178075520834},{"name":"C#5","midi":73,"time":93.63637300000022,"velocity":0.8031496062992126,"duration":0.22490532552083664},{"name":"D5","midi":74,"time":93.86364575000022,"velocity":0.8031496062992126,"duration":1.5625001562499818},{"name":"B3","midi":59,"time":93.86364575000022,"velocity":0.8031496062992126,"duration":0.452178075520834},{"name":"C#5","midi":73,"time":94.09091850000021,"velocity":0.8031496062992126,"duration":0.22490532552083664},{"name":"B4","midi":71,"time":94.31819125000021,"velocity":0.8031496062992126,"duration":0.22490532552083664},{"name":"D4","midi":62,"time":94.31819125000021,"velocity":0.8031496062992126,"duration":0.452178075520834},{"name":"A#4","midi":70,"time":94.54546400000021,"velocity":0.8031496062992126,"duration":0.22490532552083664},{"name":"B4","midi":71,"time":94.7727367500002,"velocity":0.8031496062992126,"duration":0.22490532552083664},{"name":"B3","midi":59,"time":94.7727367500002,"velocity":0.8031496062992126,"duration":0.452178075520834},{"name":"F#4","midi":66,"time":95.0000095000002,"velocity":0.8031496062992126,"duration":0.22490532552083664},{"name":"G4","midi":67,"time":95.2272822500002,"velocity":0.8031496062992126,"duration":1.5885418255208208},{"name":"E3","midi":52,"time":95.2272822500002,"velocity":0.8031496062992126,"duration":0.452178075520834},{"name":"D5","midi":74,"time":95.4545550000002,"velocity":0.8031496062992126,"duration":0.22490532552083664},{"name":"C#5","midi":73,"time":95.6818277500002,"velocity":0.8031496062992126,"duration":0.22490532552083664},{"name":"G3","midi":55,"time":95.6818277500002,"velocity":0.8031496062992126,"duration":0.452178075520834},{"name":"B4","midi":71,"time":95.90910050000019,"velocity":0.8031496062992126,"duration":0.22490532552083664},{"name":"C#5","midi":73,"time":96.13637325000019,"velocity":0.8031496062992126,"duration":0.22490532552083664},{"name":"E3","midi":52,"time":96.13637325000019,"velocity":0.8031496062992126,"duration":0.452178075520834},{"name":"E5","midi":76,"time":96.36364600000019,"velocity":0.8031496062992126,"duration":0.22490532552083664},{"name":"A#4","midi":70,"time":96.59091875000018,"velocity":0.8031496062992126,"duration":1.1363637499999868},{"name":"F#3","midi":54,"time":96.59091875000018,"velocity":0.8031496062992126,"duration":0.6628788541666637},{"name":"G4","midi":67,"time":96.81819150000018,"velocity":0.8031496062992126,"duration":0.22490532552083664},{"name":"F#4","midi":66,"time":97.04546425000018,"velocity":0.8031496062992126,"duration":0.22490532552083664},{"name":"E4","midi":64,"time":97.27273700000018,"velocity":0.8031496062992126,"duration":0.22490532552083664},{"name":"F#4","midi":66,"time":97.50000975000017,"velocity":0.8031496062992126,"duration":0.22490532552083664},{"name":"C#4","midi":61,"time":97.72728250000017,"velocity":0.8031496062992126,"duration":0.22490532552083664},{"name":"B4","midi":71,"time":97.95455525000017,"velocity":0.8031496062992126,"duration":0.452178075520834},{"name":"D4","midi":62,"time":97.95455525000017,"velocity":0.8031496062992126,"duration":0.22490532552083664},{"name":"E4","midi":64,"time":98.18182800000017,"velocity":0.8031496062992126,"duration":0.22490532552083664},{"name":"C#5","midi":73,"time":98.40910075000016,"velocity":0.8031496062992126,"duration":0.11126895052083796},{"name":"D4","midi":62,"time":98.40910075000016,"velocity":0.8031496062992126,"duration":0.22490532552083664},{"name":"B4","midi":71,"time":98.52273712500016,"velocity":0.8031496062992126,"duration":0.11126895052083796},{"name":"C#5","midi":73,"time":98.63637350000016,"velocity":0.8031496062992126,"duration":0.11126895052083796},{"name":"C#4","midi":61,"time":98.63637350000016,"velocity":0.8031496062992126,"duration":0.22490532552083664},{"name":"B4","midi":71,"time":98.75000987500016,"velocity":0.8031496062992126,"duration":0.11126895052083796},{"name":"C#5","midi":73,"time":98.86364625000016,"velocity":0.8031496062992126,"duration":0.11126895052083796},{"name":"D4","midi":62,"time":98.86364625000016,"velocity":0.8031496062992126,"duration":0.22490532552083664},{"name":"B4","midi":71,"time":98.97728262500016,"velocity":0.8031496062992126,"duration":0.11126895052083796},{"name":"A#4","midi":70,"time":99.09091900000016,"velocity":0.8031496062992126,"duration":0.11126895052083796},{"name":"B3","midi":59,"time":99.09091900000016,"velocity":0.8031496062992126,"duration":0.22490532552083664},{"name":"B4","midi":71,"time":99.20455537500015,"velocity":0.8031496062992126,"duration":0.11126895052083796},{"name":"B4","midi":71,"time":99.31819175000015,"velocity":0.8031496062992126,"duration":0.2604166927083327},{"name":"C#4","midi":61,"time":99.31819175000015,"velocity":0.8031496062992126,"duration":0.22490532552083664},{"name":"E5","midi":76,"time":99.54546450000015,"velocity":0.8031496062992126,"duration":0.42613640624999505},{"name":"B3","midi":59,"time":99.54546450000015,"velocity":0.8031496062992126,"duration":0.22490532552083664},{"name":"C#5","midi":73,"time":99.77273725000015,"velocity":0.8031496062992126,"duration":0.6628788541666637},{"name":"A#3","midi":58,"time":99.77273725000015,"velocity":0.8031496062992126,"duration":0.22490532552083664},{"name":"F#5","midi":78,"time":100.00001000000015,"velocity":0.8031496062992126,"duration":0.22490532552083664},{"name":"G#3","midi":56,"time":100.00001000000015,"velocity":0.8031496062992126,"duration":0.22490532552083664},{"name":"D5","midi":74,"time":100.22728275000014,"velocity":0.8031496062992126,"duration":0.22490532552083664},{"name":"A#3","midi":58,"time":100.22728275000014,"velocity":0.8031496062992126,"duration":0.22490532552083664},{"name":"C#5","midi":73,"time":100.45455550000014,"velocity":0.8031496062992126,"duration":0.22490532552083664},{"name":"F#3","midi":54,"time":100.45455550000014,"velocity":0.8031496062992126,"duration":0.22490532552083664},{"name":"B4","midi":71,"time":100.68182825000014,"velocity":0.8031496062992126,"duration":0.44981065104165907},{"name":"D5","midi":74,"time":100.68182825000014,"velocity":0.8031496062992126,"duration":0.22490532552083664},{"name":"B3","midi":59,"time":100.68182825000014,"velocity":0.8031496062992126,"duration":0.22490532552083664},{"name":"E5","midi":76,"time":100.90910100000013,"velocity":0.8031496062992126,"duration":0.22490532552082243},{"name":"E3","midi":52,"time":100.90910100000013,"velocity":0.8031496062992126,"duration":0.22490532552082243},{"name":"A#4","midi":70,"time":101.13637375000012,"velocity":0.8031496062992126,"duration":0.8996213020833324},{"name":"D5","midi":74,"time":101.13637375000012,"velocity":0.8031496062992126,"duration":0.11363637499999868},{"name":"F#3","midi":54,"time":101.13637375000012,"velocity":0.8031496062992126,"duration":0.452178075520834},{"name":"C#5","midi":73,"time":101.25001012500012,"velocity":0.8031496062992126,"duration":0.11363637499999868},{"name":"D5","midi":74,"time":101.36364650000012,"velocity":0.8031496062992126,"duration":0.11363637499999868},{"name":"C#5","midi":73,"time":101.47728287500011,"velocity":0.8031496062992126,"duration":0.32196972916666766},{"name":"F#2","midi":42,"time":101.59091925000011,"velocity":0.8031496062992126,"duration":0.452178075520834},{"name":"F#5","midi":78,"time":101.81819200000011,"velocity":0.8031496062992126,"duration":0.22490532552083664},{"name":"B4","midi":71,"time":102.04546475000011,"velocity":0.8031496062992126,"duration":0.6794508255208171},{"name":"D5","midi":74,"time":102.04546475000011,"velocity":0.8031496062992126,"duration":0.6155303645833214},{"name":"B2","midi":47,"time":102.04546475000011,"velocity":0.8031496062992126,"duration":0.22490532552083664},{"name":"G4","midi":67,"time":102.2727375000001,"velocity":0.8031496062992126,"duration":0.22490532552083664},{"name":"F#4","midi":66,"time":102.5000102500001,"velocity":0.8031496062992126,"duration":0.22490532552082243},{"name":"C#5","midi":73,"time":102.72728300000009,"velocity":0.8031496062992126,"duration":0.22490532552083664},{"name":"E4","midi":64,"time":102.72728300000009,"velocity":0.8031496062992126,"duration":0.22490532552083664},{"name":"B4","midi":71,"time":102.95455575000008,"velocity":0.8031496062992126,"duration":0.22490532552083664},{"name":"F#4","midi":66,"time":102.95455575000008,"velocity":0.8031496062992126,"duration":0.22490532552083664},{"name":"C#5","midi":73,"time":103.18182850000008,"velocity":0.8031496062992126,"duration":0.22490532552083664},{"name":"D4","midi":62,"time":103.18182850000008,"velocity":0.8031496062992126,"duration":0.22490532552083664},{"name":"D5","midi":74,"time":103.40910125000008,"velocity":0.8031496062992126,"duration":0.22490532552083664},{"name":"B3","midi":59,"time":103.40910125000008,"velocity":0.8031496062992126,"duration":0.22490532552083664},{"name":"G5","midi":79,"time":103.63637400000007,"velocity":0.8031496062992126,"duration":0.22490532552083664},{"name":"E4","midi":64,"time":103.63637400000007,"velocity":0.8031496062992126,"duration":0.22490532552083664},{"name":"F#5","midi":78,"time":103.86364675000007,"velocity":0.8031496062992126,"duration":0.22490532552083664},{"name":"D4","midi":62,"time":103.86364675000007,"velocity":0.8031496062992126,"duration":0.22490532552083664},{"name":"E5","midi":76,"time":104.09091950000007,"velocity":0.8031496062992126,"duration":0.22490532552083664},{"name":"C#4","midi":61,"time":104.09091950000007,"velocity":0.8031496062992126,"duration":0.22490532552083664},{"name":"F#5","midi":78,"time":104.31819225000007,"velocity":0.8031496062992126,"duration":0.22490532552083664},{"name":"D4","midi":62,"time":104.31819225000007,"velocity":0.8031496062992126,"duration":0.22490532552083664},{"name":"D5","midi":74,"time":104.54546500000006,"velocity":0.8031496062992126,"duration":0.22490532552083664},{"name":"B3","midi":59,"time":104.54546500000006,"velocity":0.8031496062992126,"duration":0.22490532552083664},{"name":"A5","midi":81,"time":104.77273775000006,"velocity":0.8031496062992126,"duration":1.3423296796874808},{"name":"F#3","midi":54,"time":104.77273775000006,"velocity":0.8031496062992126,"duration":0.22490532552083664},{"name":"G5","midi":79,"time":105.00001050000006,"velocity":0.8031496062992126,"duration":0.22490532552083664},{"name":"B3","midi":59,"time":105.00001050000006,"velocity":0.8031496062992126,"duration":0.22490532552083664},{"name":"F#5","midi":78,"time":105.22728325000006,"velocity":0.8031496062992126,"duration":0.22490532552083664},{"name":"A3","midi":57,"time":105.22728325000006,"velocity":0.8031496062992126,"duration":0.22490532552083664},{"name":"E5","midi":76,"time":105.45455600000005,"velocity":0.8031496062992126,"duration":0.22490532552083664},{"name":"G3","midi":55,"time":105.45455600000005,"velocity":0.8031496062992126,"duration":0.22490532552083664},{"name":"D5","midi":74,"time":105.68182875000005,"velocity":0.8031496062992126,"duration":0.22490532552083664},{"name":"A3","midi":57,"time":105.68182875000005,"velocity":0.8031496062992126,"duration":0.22490532552083664},{"name":"C#5","midi":73,"time":105.90910150000005,"velocity":0.8031496062992126,"duration":0.22490532552082243},{"name":"F#3","midi":54,"time":105.90910150000005,"velocity":0.8031496062992126,"duration":0.22490532552082243},{"name":"D5","midi":74,"time":106.13637425000003,"velocity":0.8031496062992126,"duration":0.23910987239582937},{"name":"B2","midi":47,"time":106.13637425000003,"velocity":0.8031496062992126,"duration":1.3612690755208234},{"name":"E5","midi":76,"time":106.36364700000003,"velocity":0.8031496062992126,"duration":0.22490532552083664},{"name":"D5","midi":74,"time":106.59091975000003,"velocity":0.8031496062992126,"duration":0.22490532552083664},{"name":"A3","midi":57,"time":106.59091975000003,"velocity":0.8031496062992126,"duration":0.452178075520834},{"name":"C#5","midi":73,"time":106.81819250000002,"velocity":0.8031496062992126,"duration":0.22490532552083664},{"name":"D5","midi":74,"time":107.04546525000002,"velocity":0.8031496062992126,"duration":0.22490532552083664},{"name":"G#3","midi":56,"time":107.04546525000002,"velocity":0.8031496062992126,"duration":0.42613640624999505},{"name":"B5","midi":83,"time":107.27273800000002,"velocity":0.8031496062992126,"duration":0.22490532552083664},{"name":"D5","midi":74,"time":107.50001075000002,"velocity":0.8031496062992126,"duration":0.452178075520834},{"name":"A3","midi":57,"time":107.50001075000002,"velocity":0.8031496062992126,"duration":1.3328599817708238},{"name":"F#3","midi":54,"time":107.72728350000001,"velocity":0.8031496062992126,"duration":0.22490532552083664},{"name":"C#5","midi":73,"time":107.95455625000001,"velocity":0.8031496062992126,"duration":0.7102273437499917},{"name":"E3","midi":52,"time":107.95455625000001,"velocity":0.8031496062992126,"duration":0.22490532552083664},{"name":"D3","midi":50,"time":108.18182900000001,"velocity":0.8031496062992126,"duration":0.22490532552083664},{"name":"E3","midi":52,"time":108.40910175,"velocity":0.8031496062992126,"duration":0.22490532552083664},{"name":"C#3","midi":49,"time":108.6363745,"velocity":0.8031496062992126,"duration":0.21306820312500463},{"name":"F#5","midi":78,"time":108.86364725000001,"velocity":0.8031496062992126,"duration":0.452178075520834},{"name":"C#5","midi":73,"time":108.86364725000001,"velocity":0.8031496062992126,"duration":0.452178075520834},{"name":"F#4","midi":66,"time":108.86364725000001,"velocity":0.8031496062992126,"duration":0.452178075520834},{"name":"A#2","midi":46,"time":108.86364725000001,"velocity":0.8031496062992126,"duration":0.22490532552083664},{"name":"G3","midi":55,"time":109.09092000000001,"velocity":0.8031496062992126,"duration":0.22490532552083664},{"name":"E5","midi":76,"time":109.31819275000001,"velocity":0.8031496062992126,"duration":0.11126895052083796},{"name":"B4","midi":71,"time":109.31819275000001,"velocity":0.8031496062992126,"duration":0.6628788541666637},{"name":"F#3","midi":54,"time":109.31819275000001,"velocity":0.8031496062992126,"duration":0.22490532552083664},{"name":"D5","midi":74,"time":109.43182912500001,"velocity":0.8031496062992126,"duration":0.11126895052083796},{"name":"E5","midi":76,"time":109.5454655,"velocity":0.8031496062992126,"duration":0.11126895052083796},{"name":"E3","midi":52,"time":109.5454655,"velocity":0.8031496062992126,"duration":0.22490532552083664},{"name":"D5","midi":74,"time":109.659101875,"velocity":0.8031496062992126,"duration":0.3385417005208353},{"name":"F#3","midi":54,"time":109.77273825,"velocity":0.8031496062992126,"duration":0.22490532552083664},{"name":"A#4","midi":70,"time":110.000011,"velocity":0.8031496062992126,"duration":0.22490532552083664},{"name":"C#5","midi":73,"time":110.000011,"velocity":0.8031496062992126,"duration":0.22490532552083664},{"name":"D3","midi":50,"time":110.000011,"velocity":0.8031496062992126,"duration":0.22490532552083664},{"name":"D5","midi":74,"time":110.22728375,"velocity":0.8031496062992126,"duration":0.6794508255208314},{"name":"B4","midi":71,"time":110.22728375,"velocity":0.8031496062992126,"duration":0.8996213020833324},{"name":"B2","midi":47,"time":110.22728375,"velocity":0.8031496062992126,"duration":0.22490532552083664},{"name":"A3","midi":57,"time":110.4545565,"velocity":0.8031496062992126,"duration":0.22490532552083664},{"name":"G#3","midi":56,"time":110.68182924999999,"velocity":0.8031496062992126,"duration":0.22490532552083664},{"name":"C#5","midi":73,"time":110.90910199999999,"velocity":0.8031496062992126,"duration":0.22490532552083664},{"name":"F#3","midi":54,"time":110.90910199999999,"velocity":0.8031496062992126,"duration":0.22490532552083664},{"name":"B4","midi":71,"time":111.13637474999999,"velocity":0.8031496062992126,"duration":0.6392046093749997},{"name":"G#3","midi":56,"time":111.13637474999999,"velocity":0.8031496062992126,"duration":0.22490532552083664},{"name":"B3","midi":59,"time":111.36364749999998,"velocity":0.8031496062992126,"duration":0.22490532552083664},{"name":"F3","midi":53,"time":111.59092024999998,"velocity":0.8031496062992126,"duration":0.22490532552083664},{"name":"A4","midi":69,"time":111.81819299999998,"velocity":0.8031496062992126,"duration":0.22490532552083664},{"name":"C#4","midi":61,"time":111.81819299999998,"velocity":0.8031496062992126,"duration":0.22490532552083664},{"name":"G#4","midi":68,"time":112.04546574999998,"velocity":0.8031496062992126,"duration":0.22490532552083664},{"name":"B3","midi":59,"time":112.04546574999998,"velocity":0.8031496062992126,"duration":0.22490532552083664},{"name":"F#4","midi":66,"time":112.27273849999997,"velocity":0.8031496062992126,"duration":0.22490532552083664},{"name":"A3","midi":57,"time":112.27273849999997,"velocity":0.8031496062992126,"duration":0.22490532552083664},{"name":"G#4","midi":68,"time":112.50001124999997,"velocity":0.8031496062992126,"duration":0.22490532552083664},{"name":"B3","midi":59,"time":112.50001124999997,"velocity":0.8031496062992126,"duration":0.22490532552083664},{"name":"B4","midi":71,"time":112.72728399999997,"velocity":0.8031496062992126,"duration":0.22490532552083664},{"name":"D4","midi":62,"time":112.72728399999997,"velocity":0.8031496062992126,"duration":0.22490532552083664},{"name":"C#4","midi":61,"time":112.95455674999997,"velocity":0.8031496062992126,"duration":1.231060729166657},{"name":"F4","midi":65,"time":112.95455674999997,"velocity":0.8031496062992126,"duration":1.1363637499999868},{"name":"C#3","midi":49,"time":113.18182949999996,"velocity":0.8031496062992126,"duration":0.22490532552083664},{"name":"B2","midi":47,"time":113.40910224999996,"velocity":0.8031496062992126,"duration":0.22490532552083664},{"name":"A2","midi":45,"time":113.63637499999996,"velocity":0.8031496062992126,"duration":0.22490532552083664},{"name":"B2","midi":47,"time":113.86364774999996,"velocity":0.8031496062992126,"duration":0.22490532552083664},{"name":"G#2","midi":44,"time":114.09092049999995,"velocity":0.8031496062992126,"duration":0.22490532552083664},{"name":"C#4","midi":61,"time":114.31819324999995,"velocity":0.8031496062992126,"duration":0.452178075520834},{"name":"F#4","midi":66,"time":114.31819324999995,"velocity":0.8031496062992126,"duration":0.452178075520834},{"name":"C#5","midi":73,"time":114.31819324999995,"velocity":0.8031496062992126,"duration":0.452178075520834},{"name":"A2","midi":45,"time":114.31819324999995,"velocity":0.8031496062992126,"duration":0.22490532552083664},{"name":"B2","midi":47,"time":114.54546599999995,"velocity":0.8031496062992126,"duration":0.22490532552083664},{"name":"D5","midi":74,"time":114.77273874999995,"velocity":0.8031496062992126,"duration":0.11126895052083796},{"name":"A2","midi":45,"time":114.77273874999995,"velocity":0.8031496062992126,"duration":0.22490532552083664},{"name":"C#5","midi":73,"time":114.88637512499994,"velocity":0.8031496062992126,"duration":0.11126895052083796},{"name":"D5","midi":74,"time":115.00001149999994,"velocity":0.8031496062992126,"duration":0.11126895052083796},{"name":"G#2","midi":44,"time":115.00001149999994,"velocity":0.8031496062992126,"duration":0.22490532552083664},{"name":"C#5","midi":73,"time":115.11364787499994,"velocity":0.8031496062992126,"duration":0.11126895052083796},{"name":"D5","midi":74,"time":115.22728424999994,"velocity":0.8031496062992126,"duration":0.11126895052083796},{"name":"A2","midi":45,"time":115.22728424999994,"velocity":0.8031496062992126,"duration":0.22490532552083664},{"name":"C#5","midi":73,"time":115.34092062499994,"velocity":0.8031496062992126,"duration":0.11126895052083796},{"name":"C5","midi":72,"time":115.45455699999994,"velocity":0.8031496062992126,"duration":0.11126895052083796},{"name":"F#2","midi":42,"time":115.45455699999994,"velocity":0.8031496062992126,"duration":0.22490532552083664},{"name":"C#5","midi":73,"time":115.56819337499994,"velocity":0.8031496062992126,"duration":1.8158145755208182},{"name":"G#5","midi":80,"time":115.68182974999993,"velocity":0.8031496062992126,"duration":0.6794508255208314},{"name":"F2","midi":41,"time":115.68182974999993,"velocity":0.8031496062992126,"duration":0.22490532552083664},{"name":"F#2","midi":42,"time":115.90910249999993,"velocity":0.8031496062992126,"duration":0.22490532552083664},{"name":"F2","midi":41,"time":116.13637524999993,"velocity":0.8031496062992126,"duration":0.22490532552083664},{"name":"B5","midi":83,"time":116.36364799999993,"velocity":0.8031496062992126,"duration":0.22490532552083664},{"name":"D#2","midi":39,"time":116.36364799999993,"velocity":0.8031496062992126,"duration":0.22490532552083664},{"name":"A5","midi":81,"time":116.59092074999992,"velocity":0.8031496062992126,"duration":0.22490532552083664},{"name":"F2","midi":41,"time":116.59092074999992,"velocity":0.8031496062992126,"duration":0.22490532552083664},{"name":"G#5","midi":80,"time":116.81819349999992,"velocity":0.8031496062992126,"duration":0.22490532552083664},{"name":"C#2","midi":37,"time":116.81819349999992,"velocity":0.8031496062992126,"duration":0.22490532552083664},{"name":"A5","midi":81,"time":117.04546624999992,"velocity":0.8031496062992126,"duration":0.22490532552083664},{"name":"F#2","midi":42,"time":117.04546624999992,"velocity":0.8031496062992126,"duration":0.22490532552083664},{"name":"B5","midi":83,"time":117.27273899999992,"velocity":0.8031496062992126,"duration":0.22490532552083664},{"name":"E3","midi":52,"time":117.27273899999992,"velocity":0.8031496062992126,"duration":0.22490532552083664},{"name":"B4","midi":71,"time":117.50001174999991,"velocity":0.8031496062992126,"duration":0.6794508255208314},{"name":"A5","midi":81,"time":117.50001174999991,"velocity":0.8031496062992126,"duration":0.11363637499999868},{"name":"D3","midi":50,"time":117.50001174999991,"velocity":0.8031496062992126,"duration":0.22490532552083664},{"name":"G#5","midi":80,"time":117.61364812499991,"velocity":0.8031496062992126,"duration":0.11363637499999868},{"name":"A5","midi":81,"time":117.72728449999991,"velocity":0.8031496062992126,"duration":0.11363637499999868},{"name":"C#3","midi":49,"time":117.72728449999991,"velocity":0.8031496062992126,"duration":0.22490532552083664},{"name":"G#5","midi":80,"time":117.84092087499991,"velocity":0.8031496062992126,"duration":0.32196972916666766},{"name":"D3","midi":50,"time":117.95455724999991,"velocity":0.8031496062992126,"duration":0.22490532552083664},{"name":"F#5","midi":78,"time":118.1818299999999,"velocity":0.8031496062992126,"duration":0.22490532552083664},{"name":"A4","midi":69,"time":118.1818299999999,"velocity":0.8031496062992126,"duration":0.22490532552083664},{"name":"A2","midi":45,"time":118.1818299999999,"velocity":0.8031496062992126,"duration":0.22490532552083664},{"name":"G#4","midi":68,"time":118.4091027499999,"velocity":0.8031496062992126,"duration":0.6794508255208171},{"name":"F5","midi":77,"time":118.4091027499999,"velocity":0.8031496062992126,"duration":0.5918561197916574},{"name":"B2","midi":47,"time":118.4091027499999,"velocity":0.8031496062992126,"duration":0.22490532552083664},{"name":"B3","midi":59,"time":118.6363754999999,"velocity":0.8031496062992126,"duration":0.22490532552083664},{"name":"A3","midi":57,"time":118.8636482499999,"velocity":0.8031496062992126,"duration":0.22490532552082243},{"name":"F5","midi":77,"time":119.09092099999988,"velocity":0.8031496062992126,"duration":0.22490532552083664},{"name":"G#3","midi":56,"time":119.09092099999988,"velocity":0.8031496062992126,"duration":0.22490532552083664},{"name":"C#5","midi":73,"time":119.31819374999988,"velocity":0.8031496062992126,"duration":0.6794508255208314},{"name":"F#4","midi":66,"time":119.31819374999988,"velocity":0.8031496062992126,"duration":0.6794508255208314},{"name":"F#5","midi":78,"time":119.31819374999988,"velocity":0.8031496062992126,"duration":0.6510417317708317},{"name":"A3","midi":57,"time":119.31819374999988,"velocity":0.8031496062992126,"duration":0.22490532552083664},{"name":"F#3","midi":54,"time":119.54546649999988,"velocity":0.8031496062992126,"duration":0.22490532552083664},{"name":"D4","midi":62,"time":119.77273924999987,"velocity":0.8031496062992126,"duration":0.22490532552083664},{"name":"G#5","midi":80,"time":120.00001199999987,"velocity":0.8031496062992126,"duration":0.22490532552083664},{"name":"B3","midi":59,"time":120.00001199999987,"velocity":0.8031496062992126,"duration":0.22490532552083664},{"name":"A5","midi":81,"time":120.22728474999987,"velocity":0.8031496062992126,"duration":0.11126895052083796},{"name":"F5","midi":77,"time":120.22728474999987,"velocity":0.8031496062992126,"duration":0.6628788541666637},{"name":"C#4","midi":61,"time":120.22728474999987,"velocity":0.8031496062992126,"duration":0.452178075520834},{"name":"G#5","midi":80,"time":120.34092112499987,"velocity":0.8031496062992126,"duration":0.11126895052083796},{"name":"A5","midi":81,"time":120.45455749999986,"velocity":0.8031496062992126,"duration":0.11126895052083796},{"name":"G#5","midi":80,"time":120.56819387499986,"velocity":0.8031496062992126,"duration":0.3385417005208353},{"name":"C#3","midi":49,"time":120.68183024999986,"velocity":0.8031496062992126,"duration":0.452178075520834},{"name":"F#5","midi":78,"time":120.90910299999986,"velocity":0.8031496062992126,"duration":0.22490532552083664},{"name":"F#5","midi":78,"time":121.13637574999986,"velocity":0.8031496062992126,"duration":2.320075989583316},{"name":"F#3","midi":54,"time":121.13637574999986,"velocity":0.8031496062992126,"duration":1.3612690755208234},{"name":"F#2","midi":42,"time":121.59092124999985,"velocity":0.8031496062992126,"duration":1.8158145755208182},{"name":"C#3","midi":49,"time":122.04546674999985,"velocity":0.8031496062992126,"duration":0.452178075520834},{"name":"C#5","midi":73,"time":122.50001224999984,"velocity":0.8031496062992126,"duration":0.8996213020833324},{"name":"F#4","midi":66,"time":122.50001224999984,"velocity":0.8031496062992126,"duration":0.8996213020833324},{"name":"A#4","midi":70,"time":122.50001224999984,"velocity":0.8031496062992126,"duration":0.8996213020833324},{"name":"F#3","midi":54,"time":122.50001224999984,"velocity":0.8031496062992126,"duration":0.8996213020833324},{"name":"C#5","midi":73,"time":123.63637599999984,"velocity":0.8031496062992126,"duration":0.20123108072917262},{"name":"C#5","midi":73,"time":123.86364874999985,"velocity":0.8031496062992126,"duration":1.5885418255208208},{"name":"F#3","midi":54,"time":123.86364874999985,"velocity":0.8031496062992126,"duration":0.452178075520834},{"name":"B4","midi":71,"time":124.09092149999985,"velocity":0.8031496062992126,"duration":0.22490532552083664},{"name":"A#4","midi":70,"time":124.31819424999985,"velocity":0.8031496062992126,"duration":0.22490532552083664},{"name":"F#2","midi":42,"time":124.31819424999985,"velocity":0.8031496062992126,"duration":0.452178075520834},{"name":"G#4","midi":68,"time":124.54546699999985,"velocity":0.8031496062992126,"duration":0.22490532552083664},{"name":"A#4","midi":70,"time":124.77273974999984,"velocity":0.8031496062992126,"duration":0.22490532552083664},{"name":"F#3","midi":54,"time":124.77273974999984,"velocity":0.8031496062992126,"duration":0.452178075520834},{"name":"F#4","midi":66,"time":125.00001249999984,"velocity":0.8031496062992126,"duration":0.452178075520834},{"name":"A#3","midi":58,"time":125.22728524999984,"velocity":0.8031496062992126,"duration":0.8996213020833324},{"name":"E3","midi":52,"time":125.22728524999984,"velocity":0.8031496062992126,"duration":0.22490532552083664},{"name":"D5","midi":74,"time":125.45455799999984,"velocity":0.8031496062992126,"duration":0.22490532552083664},{"name":"F#3","midi":54,"time":125.45455799999984,"velocity":0.8031496062992126,"duration":0.22490532552083664},{"name":"C#5","midi":73,"time":125.68183074999983,"velocity":0.8031496062992126,"duration":0.22490532552083664},{"name":"E3","midi":52,"time":125.68183074999983,"velocity":0.8031496062992126,"duration":0.22490532552083664},{"name":"B4","midi":71,"time":125.90910349999983,"velocity":0.8031496062992126,"duration":0.22490532552083664},{"name":"D3","midi":50,"time":125.90910349999983,"velocity":0.8031496062992126,"duration":0.22490532552083664},{"name":"C#5","midi":73,"time":126.13637624999983,"velocity":0.8031496062992126,"duration":0.22490532552083664},{"name":"E3","midi":52,"time":126.13637624999983,"velocity":0.8031496062992126,"duration":0.22490532552083664},{"name":"A#4","midi":70,"time":126.36364899999982,"velocity":0.8031496062992126,"duration":0.22490532552083664},{"name":"C#3","midi":49,"time":126.36364899999982,"velocity":0.8031496062992126,"duration":0.22490532552083664},{"name":"B4","midi":71,"time":126.59092174999982,"velocity":0.8031496062992126,"duration":0.6794508255208314},{"name":"D3","midi":50,"time":126.59092174999982,"velocity":0.8031496062992126,"duration":0.6628788541666637},{"name":"F#3","midi":54,"time":126.81819449999982,"velocity":0.8031496062992126,"duration":0.22490532552083664},{"name":"B3","midi":59,"time":127.04546724999982,"velocity":0.8031496062992126,"duration":0.44981065104165907},{"name":"C#5","midi":73,"time":127.27273999999981,"velocity":0.8031496062992126,"duration":0.22490532552082243},{"name":"C#3","midi":49,"time":127.27273999999981,"velocity":0.8031496062992126,"duration":0.22490532552082243},{"name":"D5","midi":74,"time":127.5000127499998,"velocity":0.8031496062992126,"duration":0.22490532552083664},{"name":"B2","midi":47,"time":127.5000127499998,"velocity":0.8031496062992126,"duration":0.22490532552083664},{"name":"E5","midi":76,"time":127.7272854999998,"velocity":0.8031496062992126,"duration":0.22490532552083664},{"name":"F#3","midi":54,"time":127.7272854999998,"velocity":0.8031496062992126,"duration":0.22490532552083664},{"name":"D5","midi":74,"time":127.95455824999979,"velocity":0.8031496062992126,"duration":0.22490532552083664},{"name":"B3","midi":59,"time":127.95455824999979,"velocity":0.8031496062992126,"duration":0.22490532552083664},{"name":"C#5","midi":73,"time":128.1818309999998,"velocity":0.8031496062992126,"duration":0.22490532552083664},{"name":"A3","midi":57,"time":128.1818309999998,"velocity":0.8031496062992126,"duration":0.22490532552083664},{"name":"D5","midi":74,"time":128.4091037499998,"velocity":0.8031496062992126,"duration":0.22490532552083664},{"name":"G#3","midi":56,"time":128.4091037499998,"velocity":0.8031496062992126,"duration":0.22490532552083664},{"name":"B4","midi":71,"time":128.63637649999978,"velocity":0.8031496062992126,"duration":0.22490532552083664},{"name":"F#3","midi":54,"time":128.63637649999978,"velocity":0.8031496062992126,"duration":0.22490532552083664},{"name":"E5","midi":76,"time":128.86364924999978,"velocity":0.8031496062992126,"duration":0.452178075520834},{"name":"G#3","midi":56,"time":128.86364924999978,"velocity":0.8031496062992126,"duration":0.22490532552083664},{"name":"E3","midi":52,"time":129.09092199999978,"velocity":0.8031496062992126,"duration":0.22490532552083664},{"name":"D5","midi":74,"time":129.31819474999978,"velocity":0.8031496062992126,"duration":0.11126895052083796},{"name":"A2","midi":45,"time":129.31819474999978,"velocity":0.8031496062992126,"duration":0.22490532552083664},{"name":"C#5","midi":73,"time":129.43183112499977,"velocity":0.8031496062992126,"duration":0.11126895052083796},{"name":"D5","midi":74,"time":129.54546749999977,"velocity":0.8031496062992126,"duration":0.11126895052083796},{"name":"E3","midi":52,"time":129.54546749999977,"velocity":0.8031496062992126,"duration":0.22490532552083664},{"name":"C#5","midi":73,"time":129.65910387499977,"velocity":0.8031496062992126,"duration":0.11126895052083796},{"name":"D5","midi":74,"time":129.77274024999977,"velocity":0.8031496062992126,"duration":0.11126895052083796},{"name":"A3","midi":57,"time":129.77274024999977,"velocity":0.8031496062992126,"duration":0.22490532552083664},{"name":"C#5","midi":73,"time":129.88637662499977,"velocity":0.8031496062992126,"duration":0.11126895052083796},{"name":"B4","midi":71,"time":130.00001299999977,"velocity":0.8031496062992126,"duration":0.22490532552083664},{"name":"G3","midi":55,"time":130.00001299999977,"velocity":0.8031496062992126,"duration":0.22490532552083664},{"name":"A4","midi":69,"time":130.22728574999977,"velocity":0.8031496062992126,"duration":0.5681818749999934},{"name":"F#3","midi":54,"time":130.22728574999977,"velocity":0.8031496062992126,"duration":0.22490532552083664},{"name":"E3","midi":52,"time":130.45455849999976,"velocity":0.8031496062992126,"duration":0.22490532552083664},{"name":"F#3","midi":54,"time":130.68183124999976,"velocity":0.8031496062992126,"duration":0.22490532552083664},{"name":"B5","midi":83,"time":130.90910399999976,"velocity":0.8031496062992126,"duration":0.22490532552083664},{"name":"D3","midi":50,"time":130.90910399999976,"velocity":0.8031496062992126,"duration":0.22490532552083664},{"name":"A5","midi":81,"time":131.13637674999976,"velocity":0.8031496062992126,"duration":0.22490532552083664},{"name":"D4","midi":62,"time":131.13637674999976,"velocity":0.8031496062992126,"duration":0.6794508255208314},{"name":"G5","midi":79,"time":131.36364949999975,"velocity":0.8031496062992126,"duration":0.22490532552083664},{"name":"A5","midi":81,"time":131.59092224999975,"velocity":0.8031496062992126,"duration":0.22490532552083664},{"name":"F#5","midi":78,"time":131.81819499999975,"velocity":0.8031496062992126,"duration":0.22490532552083664},{"name":"D3","midi":50,"time":131.81819499999975,"velocity":0.8031496062992126,"duration":0.22490532552083664},{"name":"B5","midi":83,"time":132.04546774999974,"velocity":0.8031496062992126,"duration":0.6794508255208314},{"name":"G3","midi":55,"time":132.04546774999974,"velocity":0.8031496062992126,"duration":0.22490532552083664},{"name":"F#3","midi":54,"time":132.27274049999974,"velocity":0.8031496062992126,"duration":0.22490532552083664},{"name":"G3","midi":55,"time":132.50001324999974,"velocity":0.8031496062992126,"duration":0.22490532552083664},{"name":"A5","midi":81,"time":132.72728599999974,"velocity":0.8031496062992126,"duration":0.22490532552083664},{"name":"A3","midi":57,"time":132.72728599999974,"velocity":0.8031496062992126,"duration":0.22490532552083664},{"name":"G5","midi":79,"time":132.95455874999973,"velocity":0.8031496062992126,"duration":0.42613640625000926},{"name":"B3","midi":59,"time":132.95455874999973,"velocity":0.8031496062992126,"duration":0.22490532552083664},{"name":"G3","midi":55,"time":133.18183149999973,"velocity":0.8031496062992126,"duration":0.22490532552083664},{"name":"F#5","midi":78,"time":133.40910424999973,"velocity":0.8031496062992126,"duration":0.22490532552083664},{"name":"C4","midi":60,"time":133.40910424999973,"velocity":0.8031496062992126,"duration":0.6794508255208314},{"name":"E5","midi":76,"time":133.63637699999973,"velocity":0.8031496062992126,"duration":0.22490532552083664},{"name":"D#5","midi":75,"time":133.86364974999972,"velocity":0.8031496062992126,"duration":0.6794508255208314},{"name":"F#5","midi":78,"time":133.86364974999972,"velocity":0.8031496062992126,"duration":0.6794508255208314},{"name":"B3","midi":59,"time":134.09092249999972,"velocity":0.8031496062992126,"duration":0.22490532552083664},{"name":"A3","midi":57,"time":134.31819524999972,"velocity":0.8031496062992126,"duration":0.22490532552083664},{"name":"G5","midi":79,"time":134.54546799999972,"velocity":0.8031496062992126,"duration":0.22490532552083664},{"name":"E5","midi":76,"time":134.54546799999972,"velocity":0.8031496062992126,"duration":0.22490532552083664},{"name":"G3","midi":55,"time":134.54546799999972,"velocity":0.8031496062992126,"duration":0.22490532552083664},{"name":"A5","midi":81,"time":134.7727407499997,"velocity":0.8031496062992126,"duration":0.6794508255208314},{"name":"F#5","midi":78,"time":134.7727407499997,"velocity":0.8031496062992126,"duration":0.6155303645833214},{"name":"F#3","midi":54,"time":134.7727407499997,"velocity":0.8031496062992126,"duration":0.22490532552083664},{"name":"G3","midi":55,"time":135.0000134999997,"velocity":0.8031496062992126,"duration":0.22490532552083664},{"name":"A3","midi":57,"time":135.2272862499997,"velocity":0.8031496062992126,"duration":0.22490532552083664},{"name":"D#5","midi":75,"time":135.4545589999997,"velocity":0.8031496062992126,"duration":0.22490532552083664},{"name":"F#3","midi":54,"time":135.4545589999997,"velocity":0.8031496062992126,"duration":0.22490532552083664},{"name":"E5","midi":76,"time":135.6818317499997,"velocity":0.8031496062992126,"duration":0.22490532552083664},{"name":"G3","midi":55,"time":135.6818317499997,"velocity":0.8031496062992126,"duration":0.22490532552083664},{"name":"F#5","midi":78,"time":135.9091044999997,"velocity":0.8031496062992126,"duration":0.22490532552083664},{"name":"C4","midi":60,"time":135.9091044999997,"velocity":0.8031496062992126,"duration":0.22490532552083664},{"name":"E5","midi":76,"time":136.1363772499997,"velocity":0.8031496062992126,"duration":0.22490532552083664},{"name":"B3","midi":59,"time":136.1363772499997,"velocity":0.8031496062992126,"duration":0.22490532552083664},{"name":"F#5","midi":78,"time":136.3636499999997,"velocity":0.8031496062992126,"duration":0.22490532552083664},{"name":"A3","midi":57,"time":136.3636499999997,"velocity":0.8031496062992126,"duration":0.22490532552083664},{"name":"G5","midi":79,"time":136.5909227499997,"velocity":0.8031496062992126,"duration":0.11126895052083796},{"name":"B3","midi":59,"time":136.5909227499997,"velocity":0.8031496062992126,"duration":0.22490532552083664},{"name":"F#5","midi":78,"time":136.7045591249997,"velocity":0.8031496062992126,"duration":0.11126895052083796},{"name":"G5","midi":79,"time":136.8181954999997,"velocity":0.8031496062992126,"duration":0.11126895052083796},{"name":"C#4","midi":61,"time":136.8181954999997,"velocity":0.8031496062992126,"duration":0.22490532552083664},{"name":"F#5","midi":78,"time":136.9318318749997,"velocity":0.8031496062992126,"duration":0.11126895052083796},{"name":"G5","midi":79,"time":137.0454682499997,"velocity":0.8031496062992126,"duration":0.11126895052083796},{"name":"D#4","midi":63,"time":137.0454682499997,"velocity":0.8031496062992126,"duration":0.22490532552083664},{"name":"F#5","midi":78,"time":137.15910462499969,"velocity":0.8031496062992126,"duration":0.11126895052083796},{"name":"E5","midi":76,"time":137.27274099999968,"velocity":0.8031496062992126,"duration":0.11126895052083796},{"name":"B3","midi":59,"time":137.27274099999968,"velocity":0.8031496062992126,"duration":0.22490532552083664},{"name":"F#5","midi":78,"time":137.38637737499968,"velocity":0.8031496062992126,"duration":0.11126895052083796},{"name":"G5","midi":79,"time":137.50001374999968,"velocity":0.8031496062992126,"duration":0.22490532552083664},{"name":"E4","midi":64,"time":137.50001374999968,"velocity":0.8031496062992126,"duration":0.6510417317708175},{"name":"A5","midi":81,"time":137.72728649999968,"velocity":0.8031496062992126,"duration":0.22490532552083664},{"name":"G5","midi":79,"time":137.95455924999968,"velocity":0.8031496062992126,"duration":0.22490532552083664},{"name":"F#5","midi":78,"time":138.18183199999967,"velocity":0.8031496062992126,"duration":0.22490532552083664},{"name":"D4","midi":62,"time":138.18183199999967,"velocity":0.8031496062992126,"duration":0.22490532552083664},{"name":"G5","midi":79,"time":138.40910474999967,"velocity":0.8031496062992126,"duration":0.22490532552083664},{"name":"C4","midi":60,"time":138.40910474999967,"velocity":0.8031496062992126,"duration":0.22490532552083664},{"name":"E5","midi":76,"time":138.63637749999967,"velocity":0.8031496062992126,"duration":0.22490532552083664},{"name":"B3","midi":59,"time":138.63637749999967,"velocity":0.8031496062992126,"duration":0.22490532552083664},{"name":"F#5","midi":78,"time":138.86365024999967,"velocity":0.8031496062992126,"duration":0.452178075520834},{"name":"C4","midi":60,"time":138.86365024999967,"velocity":0.8031496062992126,"duration":0.22490532552083664},{"name":"A3","midi":57,"time":139.09092299999966,"velocity":0.8031496062992126,"duration":0.22490532552083664},{"name":"E5","midi":76,"time":139.31819574999966,"velocity":0.8031496062992126,"duration":0.11126895052083796},{"name":"B3","midi":59,"time":139.31819574999966,"velocity":0.8031496062992126,"duration":0.452178075520834},{"name":"D#5","midi":75,"time":139.43183212499966,"velocity":0.8031496062992126,"duration":0.11126895052083796},{"name":"E5","midi":76,"time":139.54546849999966,"velocity":0.8031496062992126,"duration":0.11126895052083796},{"name":"D#5","midi":75,"time":139.65910487499966,"velocity":0.8031496062992126,"duration":0.11126895052083796},{"name":"E5","midi":76,"time":139.77274124999965,"velocity":0.8031496062992126,"duration":0.11126895052083796},{"name":"B2","midi":47,"time":139.77274124999965,"velocity":0.8031496062992126,"duration":0.452178075520834},{"name":"D#5","midi":75,"time":139.88637762499965,"velocity":0.8031496062992126,"duration":0.11126895052083796},{"name":"E5","midi":76,"time":140.00001399999965,"velocity":0.8031496062992126,"duration":0.22490532552083664},{"name":"B4","midi":71,"time":140.22728674999965,"velocity":0.8031496062992126,"duration":1.3257577083333274},{"name":"E5","midi":76,"time":140.22728674999965,"velocity":0.8031496062992126,"duration":1.3612690755208234},{"name":"G4","midi":67,"time":140.22728674999965,"velocity":0.8031496062992126,"duration":1.3257577083333274},{"name":"E3","midi":52,"time":140.22728674999965,"velocity":0.8031496062992126,"duration":0.22490532552083664},{"name":"A3","midi":57,"time":140.45455949999965,"velocity":0.8031496062992126,"duration":0.22490532552083664},{"name":"G3","midi":55,"time":140.68183224999964,"velocity":0.8031496062992126,"duration":0.22490532552083664},{"name":"F#3","midi":54,"time":140.90910499999964,"velocity":0.8031496062992126,"duration":0.22490532552083664},{"name":"G3","midi":55,"time":141.13637774999964,"velocity":0.8031496062992126,"duration":0.22490532552083664},{"name":"E3","midi":52,"time":141.36365049999964,"velocity":0.8031496062992126,"duration":0.22490532552083664},{"name":"C#4","midi":61,"time":141.59092324999963,"velocity":0.8031496062992126,"duration":0.22490532552083664},{"name":"F#5","midi":78,"time":141.81819599999963,"velocity":0.8031496062992126,"duration":0.22490532552083664},{"name":"D4","midi":62,"time":141.81819599999963,"velocity":0.8031496062992126,"duration":0.22490532552083664},{"name":"E5","midi":76,"time":142.04546874999963,"velocity":0.8031496062992126,"duration":0.22490532552083664},{"name":"C#4","midi":61,"time":142.04546874999963,"velocity":0.8031496062992126,"duration":0.22490532552083664},{"name":"D5","midi":74,"time":142.27274149999963,"velocity":0.8031496062992126,"duration":0.22490532552083664},{"name":"B3","midi":59,"time":142.27274149999963,"velocity":0.8031496062992126,"duration":0.22490532552083664},{"name":"E5","midi":76,"time":142.50001424999962,"velocity":0.8031496062992126,"duration":0.22490532552083664},{"name":"C#4","midi":61,"time":142.50001424999962,"velocity":0.8031496062992126,"duration":0.22490532552083664},{"name":"G5","midi":79,"time":142.72728699999962,"velocity":0.8031496062992126,"duration":0.22490532552083664},{"name":"A3","midi":57,"time":142.72728699999962,"velocity":0.8031496062992126,"duration":0.22490532552083664},{"name":"C#5","midi":73,"time":142.95455974999962,"velocity":0.8031496062992126,"duration":0.6534091562500066},{"name":"G4","midi":67,"time":142.95455974999962,"velocity":0.8031496062992126,"duration":0.22490532552083664},{"name":"A4","midi":69,"time":143.18183249999962,"velocity":0.8031496062992126,"duration":0.22490532552083664},{"name":"G4","midi":67,"time":143.4091052499996,"velocity":0.8031496062992126,"duration":0.22490532552083664},{"name":"D5","midi":74,"time":143.6363779999996,"velocity":0.8031496062992126,"duration":0.22490532552083664},{"name":"F#4","midi":66,"time":143.6363779999996,"velocity":0.8031496062992126,"duration":0.22490532552083664},{"name":"E5","midi":76,"time":143.8636507499996,"velocity":0.8031496062992126,"duration":0.6155303645833214},{"name":"G4","midi":67,"time":143.8636507499996,"velocity":0.8031496062992126,"duration":0.22490532552083664},{"name":"E4","midi":64,"time":144.0909234999996,"velocity":0.8031496062992126,"duration":0.22490532552083664},{"name":"F#4","midi":66,"time":144.3181962499996,"velocity":0.8031496062992126,"duration":1.5885418255208208},{"name":"D5","midi":74,"time":144.5454689999996,"velocity":0.8031496062992126,"duration":0.22490532552083664},{"name":"C#5","midi":73,"time":144.7727417499996,"velocity":0.8031496062992126,"duration":0.22490532552083664},{"name":"B4","midi":71,"time":145.0000144999996,"velocity":0.8031496062992126,"duration":0.22490532552083664},{"name":"C#5","midi":73,"time":145.2272872499996,"velocity":0.8031496062992126,"duration":0.22490532552083664},{"name":"E5","midi":76,"time":145.4545599999996,"velocity":0.8031496062992126,"duration":0.22490532552083664},{"name":"A4","midi":69,"time":145.6818327499996,"velocity":0.8031496062992126,"duration":0.6628788541666495},{"name":"B3","midi":59,"time":145.90910549999958,"velocity":0.8031496062992126,"duration":0.22490532552083664},{"name":"A3","midi":57,"time":146.13637824999958,"velocity":0.8031496062992126,"duration":0.22490532552080822},{"name":"B4","midi":71,"time":146.36365099999955,"velocity":0.8031496062992126,"duration":0.22490532552083664},{"name":"G3","midi":55,"time":146.36365099999955,"velocity":0.8031496062992126,"duration":0.22490532552083664},{"name":"C5","midi":72,"time":146.59092374999955,"velocity":0.8031496062992126,"duration":0.22490532552083664},{"name":"A3","midi":57,"time":146.59092374999955,"velocity":0.8031496062992126,"duration":0.22490532552083664},{"name":"D5","midi":74,"time":146.81819649999954,"velocity":0.8031496062992126,"duration":0.22490532552083664},{"name":"F#3","midi":54,"time":146.81819649999954,"velocity":0.8031496062992126,"duration":0.22490532552083664},{"name":"C5","midi":72,"time":147.04546924999954,"velocity":0.8031496062992126,"duration":0.22490532552083664},{"name":"D4","midi":62,"time":147.04546924999954,"velocity":0.8031496062992126,"duration":0.22490532552083664},{"name":"B4","midi":71,"time":147.27274199999954,"velocity":0.8031496062992126,"duration":0.22490532552083664},{"name":"G3","midi":55,"time":147.27274199999954,"velocity":0.8031496062992126,"duration":0.22490532552083664},{"name":"C5","midi":72,"time":147.50001474999954,"velocity":0.8031496062992126,"duration":0.22490532552083664},{"name":"F#3","midi":54,"time":147.50001474999954,"velocity":0.8031496062992126,"duration":0.22490532552083664},{"name":"A4","midi":69,"time":147.72728749999953,"velocity":0.8031496062992126,"duration":0.22490532552083664},{"name":"E3","midi":52,"time":147.72728749999953,"velocity":0.8031496062992126,"duration":0.22490532552083664},{"name":"D5","midi":74,"time":147.95456024999953,"velocity":0.8031496062992126,"duration":0.452178075520834},{"name":"F#3","midi":54,"time":147.95456024999953,"velocity":0.8031496062992126,"duration":0.22490532552083664},{"name":"D3","midi":50,"time":148.18183299999953,"velocity":0.8031496062992126,"duration":0.22490532552083664},{"name":"B4","midi":71,"time":148.40910574999953,"velocity":0.8031496062992126,"duration":0.6155303645833214},{"name":"G3","midi":55,"time":148.40910574999953,"velocity":0.8031496062992126,"duration":0.22490532552083664},{"name":"B3","midi":59,"time":148.63637849999952,"velocity":0.8031496062992126,"duration":0.22490532552083664},{"name":"A3","midi":57,"time":148.86365124999952,"velocity":0.8031496062992126,"duration":0.22490532552083664},{"name":"C#5","midi":73,"time":149.09092399999952,"velocity":0.8031496062992126,"duration":0.22490532552083664},{"name":"G3","midi":55,"time":149.09092399999952,"velocity":0.8031496062992126,"duration":0.22490532552083664},{"name":"D#5","midi":75,"time":149.31819674999952,"velocity":0.8031496062992126,"duration":0.22490532552083664},{"name":"F#3","midi":54,"time":149.31819674999952,"velocity":0.8031496062992126,"duration":0.22490532552083664},{"name":"E5","midi":76,"time":149.5454694999995,"velocity":0.8031496062992126,"duration":0.22490532552083664},{"name":"E3","midi":52,"time":149.5454694999995,"velocity":0.8031496062992126,"duration":0.22490532552083664},{"name":"F#5","midi":78,"time":149.7727422499995,"velocity":0.8031496062992126,"duration":0.22490532552083664},{"name":"D#3","midi":51,"time":149.7727422499995,"velocity":0.8031496062992126,"duration":0.22490532552083664},{"name":"G5","midi":79,"time":150.0000149999995,"velocity":0.8031496062992126,"duration":0.22490532552083664},{"name":"E3","midi":52,"time":150.0000149999995,"velocity":0.8031496062992126,"duration":0.22490532552083664},{"name":"F#5","midi":78,"time":150.2272877499995,"velocity":0.8031496062992126,"duration":0.22490532552083664},{"name":"D#3","midi":51,"time":150.2272877499995,"velocity":0.8031496062992126,"duration":0.22490532552083664},{"name":"B4","midi":71,"time":150.4545604999995,"velocity":0.8031496062992126,"duration":0.22490532552083664},{"name":"C#3","midi":49,"time":150.4545604999995,"velocity":0.8031496062992126,"duration":0.22490532552083664},{"name":"A5","midi":81,"time":150.6818332499995,"velocity":0.8031496062992126,"duration":0.4024621614583168},{"name":"D#3","midi":51,"time":150.6818332499995,"velocity":0.8031496062992126,"duration":0.22490532552083664},{"name":"B2","midi":47,"time":150.9091059999995,"velocity":0.8031496062992126,"duration":0.22490532552080822},{"name":"G5","midi":79,"time":151.13637874999947,"velocity":0.8031496062992126,"duration":0.6794508255208314},{"name":"E3","midi":52,"time":151.13637874999947,"velocity":0.8031496062992126,"duration":0.22490532552083664},{"name":"D#3","midi":51,"time":151.36365149999946,"velocity":0.8031496062992126,"duration":0.22490532552083664},{"name":"E3","midi":52,"time":151.59092424999946,"velocity":0.8031496062992126,"duration":0.22490532552083664},{"name":"F#5","midi":78,"time":151.81819699999946,"velocity":0.8031496062992126,"duration":0.22490532552083664},{"name":"F#3","midi":54,"time":151.81819699999946,"velocity":0.8031496062992126,"duration":0.22490532552083664},{"name":"E5","midi":76,"time":152.04546974999946,"velocity":0.8031496062992126,"duration":0.452178075520834},{"name":"G3","midi":55,"time":152.04546974999946,"velocity":0.8031496062992126,"duration":0.22490532552083664},{"name":"E3","midi":52,"time":152.27274249999945,"velocity":0.8031496062992126,"duration":0.22490532552083664},{"name":"D5","midi":74,"time":152.50001524999945,"velocity":0.8031496062992126,"duration":0.22490532552083664},{"name":"A3","midi":57,"time":152.50001524999945,"velocity":0.8031496062992126,"duration":0.6794508255208314},{"name":"C#5","midi":73,"time":152.72728799999945,"velocity":0.8031496062992126,"duration":0.22490532552083664},{"name":"B4","midi":71,"time":152.95456074999944,"velocity":0.8031496062992126,"duration":0.6794508255208314},{"name":"D5","midi":74,"time":152.95456074999944,"velocity":0.8031496062992126,"duration":0.6794508255208314},{"name":"G3","midi":55,"time":153.18183349999944,"velocity":0.8031496062992126,"duration":0.22490532552083664},{"name":"F#3","midi":54,"time":153.40910624999944,"velocity":0.8031496062992126,"duration":0.22490532552083664},{"name":"E5","midi":76,"time":153.63637899999944,"velocity":0.8031496062992126,"duration":0.22490532552083664},{"name":"C#5","midi":73,"time":153.63637899999944,"velocity":0.8031496062992126,"duration":0.22490532552083664},{"name":"E3","midi":52,"time":153.63637899999944,"velocity":0.8031496062992126,"duration":0.22490532552083664},{"name":"F#5","midi":78,"time":153.86365174999943,"velocity":0.8031496062992126,"duration":0.6794508255208314},{"name":"D5","midi":74,"time":153.86365174999943,"velocity":0.8031496062992126,"duration":0.6155303645833214},{"name":"D3","midi":50,"time":153.86365174999943,"velocity":0.8031496062992126,"duration":0.22490532552083664},{"name":"E3","midi":52,"time":154.09092449999943,"velocity":0.8031496062992126,"duration":0.22490532552083664},{"name":"D3","midi":50,"time":154.31819724999943,"velocity":0.8031496062992126,"duration":0.22490532552083664},{"name":"A#4","midi":70,"time":154.54546999999943,"velocity":0.8031496062992126,"duration":0.22490532552083664},{"name":"C#3","midi":49,"time":154.54546999999943,"velocity":0.8031496062992126,"duration":0.22490532552083664},{"name":"B4","midi":71,"time":154.77274274999942,"velocity":0.8031496062992126,"duration":0.22490532552083664},{"name":"D3","midi":50,"time":154.77274274999942,"velocity":0.8031496062992126,"duration":0.22490532552083664},{"name":"C#5","midi":73,"time":155.00001549999942,"velocity":0.8031496062992126,"duration":0.22490532552083664},{"name":"B2","midi":47,"time":155.00001549999942,"velocity":0.8031496062992126,"duration":0.22490532552083664},{"name":"B4","midi":71,"time":155.22728824999942,"velocity":0.8031496062992126,"duration":0.22490532552083664},{"name":"G3","midi":55,"time":155.22728824999942,"velocity":0.8031496062992126,"duration":0.22490532552083664},{"name":"C#5","midi":73,"time":155.45456099999942,"velocity":0.8031496062992126,"duration":0.22490532552083664},{"name":"F#3","midi":54,"time":155.45456099999942,"velocity":0.8031496062992126,"duration":0.22490532552083664},{"name":"D5","midi":74,"time":155.6818337499994,"velocity":0.8031496062992126,"duration":0.11126895052083796},{"name":"E3","midi":52,"time":155.6818337499994,"velocity":0.8031496062992126,"duration":0.22490532552083664},{"name":"C#5","midi":73,"time":155.7954701249994,"velocity":0.8031496062992126,"duration":0.11126895052083796},{"name":"D5","midi":74,"time":155.9091064999994,"velocity":0.8031496062992126,"duration":0.11126895052083796},{"name":"D3","midi":50,"time":155.9091064999994,"velocity":0.8031496062992126,"duration":0.22490532552083664},{"name":"C#5","midi":73,"time":156.0227428749994,"velocity":0.8031496062992126,"duration":0.11126895052083796},{"name":"D5","midi":74,"time":156.1363792499994,"velocity":0.8031496062992126,"duration":0.11126895052083796},{"name":"E3","midi":52,"time":156.1363792499994,"velocity":0.8031496062992126,"duration":0.22490532552083664},{"name":"C#5","midi":73,"time":156.2500156249994,"velocity":0.8031496062992126,"duration":0.11126895052083796},{"name":"B4","midi":71,"time":156.3636519999994,"velocity":0.8031496062992126,"duration":0.11126895052083796},{"name":"F#3","midi":54,"time":156.3636519999994,"velocity":0.8031496062992126,"duration":0.22490532552083664},{"name":"C#5","midi":73,"time":156.4772883749994,"velocity":0.8031496062992126,"duration":0.11126895052083796},{"name":"D5","midi":74,"time":156.5909247499994,"velocity":0.8031496062992126,"duration":0.22490532552083664},{"name":"B2","midi":47,"time":156.5909247499994,"velocity":0.8031496062992126,"duration":0.22490532552083664},{"name":"E5","midi":76,"time":156.8181974999994,"velocity":0.8031496062992126,"duration":0.22490532552083664},{"name":"F#3","midi":54,"time":156.8181974999994,"velocity":0.8031496062992126,"duration":0.22490532552083664},{"name":"D5","midi":74,"time":157.0454702499994,"velocity":0.8031496062992126,"duration":0.22490532552083664},{"name":"B3","midi":59,"time":157.0454702499994,"velocity":0.8031496062992126,"duration":0.22490532552083664},{"name":"C#5","midi":73,"time":157.2727429999994,"velocity":0.8031496062992126,"duration":0.22490532552083664},{"name":"A3","midi":57,"time":157.2727429999994,"velocity":0.8031496062992126,"duration":0.22490532552083664},{"name":"D5","midi":74,"time":157.5000157499994,"velocity":0.8031496062992126,"duration":0.22490532552083664},{"name":"G3","midi":55,"time":157.5000157499994,"velocity":0.8031496062992126,"duration":0.22490532552083664},{"name":"B4","midi":71,"time":157.7272884999994,"velocity":0.8031496062992126,"duration":0.22490532552083664},{"name":"F#3","midi":54,"time":157.7272884999994,"velocity":0.8031496062992126,"duration":0.22490532552083664},{"name":"C#5","midi":73,"time":157.9545612499994,"velocity":0.8031496062992126,"duration":0.3787879166666528},{"name":"E3","midi":52,"time":157.9545612499994,"velocity":0.8031496062992126,"duration":0.22490532552083664},{"name":"C#3","midi":49,"time":158.18183399999938,"velocity":0.8031496062992126,"duration":0.22490532552080822},{"name":"B4","midi":71,"time":158.40910674999935,"velocity":0.8031496062992126,"duration":0.11126895052083796},{"name":"F#3","midi":54,"time":158.40910674999935,"velocity":0.8031496062992126,"duration":0.22490532552083664},{"name":"A#4","midi":70,"time":158.52274312499935,"velocity":0.8031496062992126,"duration":0.11126895052083796},{"name":"B4","midi":71,"time":158.63637949999935,"velocity":0.8031496062992126,"duration":0.11126895052083796},{"name":"E3","midi":52,"time":158.63637949999935,"velocity":0.8031496062992126,"duration":0.22490532552083664},{"name":"A#4","midi":70,"time":158.75001587499935,"velocity":0.8031496062992126,"duration":0.11126895052083796},{"name":"B4","midi":71,"time":158.86365224999935,"velocity":0.8031496062992126,"duration":0.11126895052083796},{"name":"F#3","midi":54,"time":158.86365224999935,"velocity":0.8031496062992126,"duration":0.22490532552083664},{"name":"A#4","midi":70,"time":158.97728862499935,"velocity":0.8031496062992126,"duration":0.11126895052083796},{"name":"B4","midi":71,"time":159.09092499999934,"velocity":0.8031496062992126,"duration":0.22490532552083664},{"name":"F#2","midi":42,"time":159.09092499999934,"velocity":0.8031496062992126,"duration":0.22490532552083664},{"name":"B4","midi":71,"time":159.31819774999934,"velocity":0.8031496062992126,"duration":1.8158145755208182},{"name":"G2","midi":43,"time":159.31819774999934,"velocity":0.8031496062992126,"duration":0.22490532552083664},{"name":"B2","midi":47,"time":159.54547049999934,"velocity":0.8031496062992126,"duration":0.22490532552083664},{"name":"C#3","midi":49,"time":159.77274324999934,"velocity":0.8031496062992126,"duration":0.22490532552083664},{"name":"A4","midi":69,"time":160.00001599999933,"velocity":0.8031496062992126,"duration":0.22490532552083664},{"name":"D#3","midi":51,"time":160.00001599999933,"velocity":0.8031496062992126,"duration":0.22490532552083664},{"name":"G4","midi":67,"time":160.22728874999933,"velocity":0.8031496062992126,"duration":0.22490532552083664},{"name":"E3","midi":52,"time":160.22728874999933,"velocity":0.8031496062992126,"duration":0.6794508255208314},{"name":"F#4","midi":66,"time":160.45456149999933,"velocity":0.8031496062992126,"duration":0.22490532552083664},{"name":"G4","midi":67,"time":160.68183424999933,"velocity":0.8031496062992126,"duration":0.22490532552083664},{"name":"E4","midi":64,"time":160.90910699999932,"velocity":0.8031496062992126,"duration":1.1363637499999868},{"name":"F#3","midi":54,"time":160.90910699999932,"velocity":0.8031496062992126,"duration":0.22490532552083664},{"name":"C#5","midi":73,"time":161.13637974999932,"velocity":0.8031496062992126,"duration":0.452178075520834},{"name":"E3","midi":52,"time":161.13637974999932,"velocity":0.8031496062992126,"duration":0.22490532552083664},{"name":"D3","midi":50,"time":161.36365249999932,"velocity":0.8031496062992126,"duration":0.22490532552083664},{"name":"D5","midi":74,"time":161.59092524999932,"velocity":0.8031496062992126,"duration":0.22490532552083664},{"name":"E3","midi":52,"time":161.59092524999932,"velocity":0.8031496062992126,"duration":0.22490532552083664},{"name":"C#3","midi":49,"time":161.8181979999993,"velocity":0.8031496062992126,"duration":0.22964017447915808},{"name":"E5","midi":76,"time":161.8181979999993,"velocity":0.8031496062992126,"duration":0.22964017447915808},{"name":"A#3","midi":58,"time":162.05020559895763,"velocity":0.8031496062992126,"duration":0.4640151979166376},{"name":"F#4","midi":66,"time":162.05020559895763,"velocity":0.8031496062992126,"duration":0.22964017447915808},{"name":"E5","midi":76,"time":162.2845806223951,"velocity":0.8031496062992126,"duration":0.22964017447915808},{"name":"F#3","midi":54,"time":162.5189556458326,"velocity":0.8031496062992126,"duration":0.4640151979166376},{"name":"D5","midi":74,"time":162.5189556458326,"velocity":0.8031496062992126,"duration":0.22964017447915808},{"name":"C#5","midi":73,"time":162.75333066927007,"velocity":0.8031496062992126,"duration":0.2343750234374795},{"name":"D5","midi":74,"time":162.99244054166587,"velocity":0.8031496062992126,"duration":0.23437502343750793},{"name":"B3","midi":59,"time":162.99244054166587,"velocity":0.8031496062992126,"duration":0.47585232031252644},{"name":"B4","midi":71,"time":163.2339178385409,"velocity":0.8031496062992126,"duration":0.4734848958333657},{"name":"G5","midi":79,"time":163.4753951354159,"velocity":0.8031496062992126,"duration":0.47585232031252644},{"name":"E3","midi":52,"time":163.4753951354159,"velocity":0.8031496062992126,"duration":0.47585232031252644},{"name":"F#3","midi":54,"time":163.96308457812427,"velocity":0.8031496062992126,"duration":0.4900568671874339},{"name":"D5","midi":74,"time":163.96308457812427,"velocity":0.8031496062992126,"duration":0.11837122395832012},{"name":"A#4","midi":70,"time":163.96308457812427,"velocity":0.8031496062992126,"duration":0.7196970416666204},{"name":"C#5","midi":73,"time":164.0861906510409,"velocity":0.8031496062992126,"duration":0.11837122395832012},{"name":"D5","midi":74,"time":164.21166414843674,"velocity":0.8031496062992126,"duration":0.11837122395832012},{"name":"C#5","midi":73,"time":164.33477022135338,"velocity":0.8031496062992126,"duration":0.3669507942708492},{"name":"F#2","midi":42,"time":164.4602437187492,"velocity":0.8031496062992126,"duration":0.4900568671875192},{"name":"B4","midi":71,"time":164.70882328906174,"velocity":0.8031496062992126,"duration":0.2533144192708221},{"name":"B2","midi":47,"time":164.96687255729088,"velocity":0.8031496062992126,"duration":3.1747162265625377},{"name":"B4","midi":71,"time":164.96687255729088,"velocity":0.8031496062992126,"duration":3.1747162265625377},{"name":"D3","midi":50,"time":165.49480821614506,"velocity":0.8031496062992126,"duration":0.5184659609375046},{"name":"F#3","midi":54,"time":166.02274387499924,"velocity":0.8031496062992126,"duration":0.5184659609375046},{"name":"B3","midi":59,"time":166.5506795338534,"velocity":0.8031496062992126,"duration":1.6595645598958413},{"name":"F#4","midi":66,"time":166.5506795338534,"velocity":0.8031496062992126,"duration":1.5601327317708353},{"name":"D4","midi":62,"time":166.5506795338534,"velocity":0.8031496062992126,"duration":1.5293562135416607},{"name":"B4","midi":71,"time":172.72728999999924,"velocity":0.8031496062992126,"duration":0.452178075520834},{"name":"B3","midi":59,"time":172.72728999999924,"velocity":0.8031496062992126,"duration":1.8158145755208182},{"name":"D4","midi":62,"time":172.72728999999924,"velocity":0.8031496062992126,"duration":1.8158145755208182},{"name":"D5","midi":74,"time":173.18183549999924,"velocity":0.8031496062992126,"duration":0.452178075520834},{"name":"F#5","midi":78,"time":173.63638099999923,"velocity":0.8031496062992126,"duration":0.452178075520834},{"name":"B5","midi":83,"time":174.09092649999923,"velocity":0.8031496062992126,"duration":0.757575833333334},{"name":"E4","midi":64,"time":174.54547199999922,"velocity":0.8031496062992126,"duration":0.9067235755208287},{"name":"C#4","midi":61,"time":174.54547199999922,"velocity":0.8031496062992126,"duration":0.9067235755208287},{"name":"A#5","midi":82,"time":175.00001749999922,"velocity":0.8031496062992126,"duration":0.452178075520834},{"name":"B5","midi":83,"time":175.4545629999992,"velocity":0.8031496062992126,"duration":0.452178075520834},{"name":"D4","midi":62,"time":175.4545629999992,"velocity":0.8031496062992126,"duration":1.8158145755208182},{"name":"F#4","midi":66,"time":175.4545629999992,"velocity":0.8031496062992126,"duration":1.8158145755208182},{"name":"F#5","midi":78,"time":175.9091084999992,"velocity":0.8031496062992126,"duration":0.452178075520834},{"name":"E5","midi":76,"time":176.3636539999992,"velocity":0.8031496062992126,"duration":0.22490532552083664},{"name":"D5","midi":74,"time":176.5909267499992,"velocity":0.8031496062992126,"duration":0.22490532552083664},{"name":"C#5","midi":73,"time":176.8181994999992,"velocity":0.8031496062992126,"duration":0.22490532552083664},{"name":"B4","midi":71,"time":177.0454722499992,"velocity":0.8031496062992126,"duration":0.5681818749999934},{"name":"C#4","midi":61,"time":177.2727449999992,"velocity":0.8031496062992126,"duration":0.9067235755208287},{"name":"E4","midi":64,"time":177.2727449999992,"velocity":0.8031496062992126,"duration":0.9067235755208287},{"name":"A#4","midi":70,"time":177.72729049999919,"velocity":0.8031496062992126,"duration":0.452178075520834},{"name":"B4","midi":71,"time":178.18183599999918,"velocity":0.8031496062992126,"duration":0.42613640625000926},{"name":"B3","midi":59,"time":178.18183599999918,"velocity":0.8031496062992126,"duration":0.9067235755208571},{"name":"D4","midi":62,"time":178.18183599999918,"velocity":0.8031496062992126,"duration":0.9067235755208571},{"name":"G5","midi":79,"time":178.6363814999992,"velocity":0.8031496062992126,"duration":0.6392046093749855},{"name":"A3","midi":57,"time":179.0909269999992,"velocity":0.8031496062992126,"duration":0.9067235755208287},{"name":"C#4","midi":61,"time":179.0909269999992,"velocity":0.8031496062992126,"duration":0.9067235755208287},{"name":"F#5","midi":78,"time":179.3181997499992,"velocity":0.8031496062992126,"duration":0.22490532552083664},{"name":"E5","midi":76,"time":179.5454724999992,"velocity":0.8031496062992126,"duration":0.22490532552083664},{"name":"F#5","midi":78,"time":179.7727452499992,"velocity":0.8031496062992126,"duration":0.42613640625000926},{"name":"G3","midi":55,"time":180.0000179999992,"velocity":0.8031496062992126,"duration":0.9067235755208571},{"name":"B3","midi":59,"time":180.0000179999992,"velocity":0.8031496062992126,"duration":1.3612690755208519},{"name":"E5","midi":76,"time":180.2272907499992,"velocity":0.8031496062992126,"duration":0.22490532552083664},{"name":"D5","midi":74,"time":180.4545634999992,"velocity":0.8031496062992126,"duration":0.22490532552083664},{"name":"E5","midi":76,"time":180.6818362499992,"velocity":0.8031496062992126,"duration":0.22490532552083664},{"name":"E5","midi":76,"time":180.9091089999992,"velocity":0.8031496062992126,"duration":2.7225381510416184},{"name":"F#3","midi":54,"time":180.9091089999992,"velocity":0.8031496062992126,"duration":1.8158145755208182},{"name":"A#3","midi":58,"time":181.3636544999992,"velocity":0.8031496062992126,"duration":0.452178075520834},{"name":"C#4","midi":61,"time":181.8181999999992,"velocity":0.8031496062992126,"duration":0.452178075520834},{"name":"F#4","midi":66,"time":182.2727454999992,"velocity":0.8031496062992126,"duration":0.8996213020833181},{"name":"A#3","midi":58,"time":182.72729099999918,"velocity":0.8031496062992126,"duration":0.8996213020833181},{"name":"F#4","midi":66,"time":183.18183649999918,"velocity":0.8031496062992126,"duration":0.8996213020832897},{"name":"B3","midi":59,"time":183.63638199999914,"velocity":0.8031496062992126,"duration":0.8996213020833181},{"name":"D5","midi":74,"time":183.86365474999914,"velocity":0.8031496062992126,"duration":0.22490532552083664},{"name":"C#5","midi":73,"time":184.09092749999914,"velocity":0.8031496062992126,"duration":0.22490532552083664},{"name":"G4","midi":67,"time":184.09092749999914,"velocity":0.8031496062992126,"duration":0.8996213020833181},{"name":"B4","midi":71,"time":184.31820024999914,"velocity":0.8031496062992126,"duration":0.22490532552083664},{"name":"C#5","midi":73,"time":184.54547299999913,"velocity":0.8031496062992126,"duration":0.22490532552083664},{"name":"A3","midi":57,"time":184.54547299999913,"velocity":0.8031496062992126,"duration":0.8996213020833181},{"name":"A4","midi":69,"time":184.77274574999913,"velocity":0.8031496062992126,"duration":0.22490532552083664},{"name":"G4","midi":67,"time":185.00001849999913,"velocity":0.8031496062992126,"duration":0.22490532552083664},{"name":"F#4","midi":66,"time":185.00001849999913,"velocity":0.8031496062992126,"duration":0.8996213020833181},{"name":"A4","midi":69,"time":185.22729124999913,"velocity":0.8031496062992126,"duration":0.22490532552083664},{"name":"B4","midi":71,"time":185.45456399999912,"velocity":0.8031496062992126,"duration":0.22490532552083664},{"name":"G3","midi":55,"time":185.45456399999912,"velocity":0.8031496062992126,"duration":0.8996213020833181},{"name":"C#5","midi":73,"time":185.68183674999912,"velocity":0.8031496062992126,"duration":0.22490532552083664},{"name":"D5","midi":74,"time":185.90910949999912,"velocity":0.8031496062992126,"duration":0.22490532552083664},{"name":"E4","midi":64,"time":185.90910949999912,"velocity":0.8031496062992126,"duration":0.8996213020833466},{"name":"E5","midi":76,"time":186.13638224999912,"velocity":0.8031496062992126,"duration":0.22490532552083664},{"name":"A4","midi":69,"time":186.3636549999991,"velocity":0.8031496062992126,"duration":0.1988636562500119},{"name":"F#3","midi":54,"time":186.3636549999991,"velocity":0.8031496062992126,"duration":0.8996213020833466},{"name":"F#4","midi":66,"time":186.59092774999914,"velocity":0.8031496062992126,"duration":0.22490532552083664},{"name":"E4","midi":64,"time":186.81820049999914,"velocity":0.8031496062992126,"duration":0.22490532552083664},{"name":"D4","midi":62,"time":186.81820049999914,"velocity":0.8031496062992126,"duration":0.8996213020833181},{"name":"F#4","midi":66,"time":187.04547324999913,"velocity":0.8031496062992126,"duration":0.22490532552083664},{"name":"G4","midi":67,"time":187.27274599999913,"velocity":0.8031496062992126,"duration":0.22490532552083664},{"name":"E3","midi":52,"time":187.27274599999913,"velocity":0.8031496062992126,"duration":0.8996213020833181},{"name":"A4","midi":69,"time":187.50001874999913,"velocity":0.8031496062992126,"duration":0.22490532552083664},{"name":"B4","midi":71,"time":187.72729149999913,"velocity":0.8031496062992126,"duration":0.22490532552083664},{"name":"C#4","midi":61,"time":187.72729149999913,"velocity":0.8031496062992126,"duration":0.8996213020833181},{"name":"C#5","midi":73,"time":187.95456424999912,"velocity":0.8031496062992126,"duration":0.22490532552083664},{"name":"D5","midi":74,"time":188.18183699999912,"velocity":0.8031496062992126,"duration":0.22490532552083664},{"name":"F#3","midi":54,"time":188.18183699999912,"velocity":0.8031496062992126,"duration":0.8996213020833181},{"name":"E5","midi":76,"time":188.40910974999912,"velocity":0.8031496062992126,"duration":0.22490532552083664},{"name":"F#5","midi":78,"time":188.63638249999912,"velocity":0.8031496062992126,"duration":0.22490532552083664},{"name":"D4","midi":62,"time":188.63638249999912,"velocity":0.8031496062992126,"duration":0.8996213020833181},{"name":"G5","midi":79,"time":188.8636552499991,"velocity":0.8031496062992126,"duration":0.22490532552083664},{"name":"A5","midi":81,"time":189.0909279999991,"velocity":0.8031496062992126,"duration":0.22490532552083664},{"name":"G3","midi":55,"time":189.0909279999991,"velocity":0.8031496062992126,"duration":0.8996213020833181},{"name":"B5","midi":83,"time":189.3182007499991,"velocity":0.8031496062992126,"duration":0.20123108072917262},{"name":"C#5","midi":73,"time":189.5454734999991,"velocity":0.8031496062992126,"duration":0.22490532552083664},{"name":"E4","midi":64,"time":189.5454734999991,"velocity":0.8031496062992126,"duration":0.452178075520834},{"name":"D5","midi":74,"time":189.7727462499991,"velocity":0.8031496062992126,"duration":0.20359850520833334},{"name":"F#4","midi":66,"time":190.0000189999991,"velocity":0.8031496062992126,"duration":0.22490532552083664},{"name":"A3","midi":57,"time":190.0000189999991,"velocity":0.8031496062992126,"duration":0.452178075520834},{"name":"C#4","midi":61,"time":190.0000189999991,"velocity":0.8031496062992126,"duration":0.452178075520834},{"name":"E4","midi":64,"time":190.2272917499991,"velocity":0.8031496062992126,"duration":0.22490532552083664},{"name":"F#4","midi":66,"time":190.4545644999991,"velocity":0.8031496062992126,"duration":0.22490532552083664},{"name":"D4","midi":62,"time":190.4545644999991,"velocity":0.8031496062992126,"duration":0.8996213020833181},{"name":"G3","midi":55,"time":190.4545644999991,"velocity":0.8031496062992126,"duration":0.452178075520834},{"name":"D5","midi":74,"time":190.6818372499991,"velocity":0.8031496062992126,"duration":0.20359850520833334},{"name":"G4","midi":67,"time":190.9091099999991,"velocity":0.8031496062992126,"duration":0.22490532552083664},{"name":"A3","midi":57,"time":190.9091099999991,"velocity":0.8031496062992126,"duration":0.8996213020833181},{"name":"F#4","midi":66,"time":191.1363827499991,"velocity":0.8031496062992126,"duration":0.22490532552083664},{"name":"G4","midi":67,"time":191.36365549999908,"velocity":0.8031496062992126,"duration":0.22490532552083664},{"name":"C#4","midi":61,"time":191.36365549999908,"velocity":0.8031496062992126,"duration":0.452178075520834},{"name":"E4","midi":64,"time":191.59092824999908,"velocity":0.8031496062992126,"duration":0.22490532552083664},{"name":"D4","midi":62,"time":191.81820099999908,"velocity":0.8031496062992126,"duration":0.6794508255208314},{"name":"D3","midi":50,"time":191.81820099999908,"velocity":0.8031496062992126,"duration":1.58617440104166},{"name":"E3","midi":52,"time":192.04547374999908,"velocity":0.8031496062992126,"duration":0.22490532552083664},{"name":"F#3","midi":54,"time":192.27274649999907,"velocity":0.8031496062992126,"duration":0.8996213020833181},{"name":"A3","midi":57,"time":192.50001924999907,"velocity":0.8031496062992126,"duration":0.22490532552083664},{"name":"D4","midi":62,"time":192.72729199999907,"velocity":0.8031496062992126,"duration":1.6571971354166521},{"name":"A3","midi":57,"time":192.95456474999907,"velocity":0.8031496062992126,"duration":1.4654357526041508},{"name":"F#3","midi":54,"time":193.18183749999906,"velocity":0.8031496062992126,"duration":1.2665720963541673},{"name":"D3","midi":50,"time":193.40911024999906,"velocity":0.8031496062992126,"duration":0.22490532552083664},{"name":"A2","midi":45,"time":193.63638299999906,"velocity":0.8031496062992126,"duration":0.22490532552083664},{"name":"F#2","midi":42,"time":193.86365574999905,"velocity":0.8031496062992126,"duration":0.22490532552083664},{"name":"D2","midi":38,"time":194.09092849999905,"velocity":0.8031496062992126,"duration":0.4498106510416733},{"name":"F#4","midi":66,"time":194.54547399999905,"velocity":0.8031496062992126,"duration":0.11126895052083796},{"name":"D3","midi":50,"time":194.54547399999905,"velocity":0.8031496062992126,"duration":1.8158145755208182},{"name":"E4","midi":64,"time":194.65911037499905,"velocity":0.8031496062992126,"duration":0.11126895052083796},{"name":"F#4","midi":66,"time":194.77274674999904,"velocity":0.8031496062992126,"duration":1.6571971354166521},{"name":"F#3","midi":54,"time":195.00001949999904,"velocity":0.8031496062992126,"duration":0.452178075520834},{"name":"A3","midi":57,"time":195.45456499999904,"velocity":0.8031496062992126,"duration":0.452178075520834},{"name":"D4","midi":62,"time":195.90911049999903,"velocity":0.8031496062992126,"duration":0.8996213020833181},{"name":"E3","midi":52,"time":196.36365599999903,"velocity":0.8031496062992126,"duration":0.8996213020833181},{"name":"G4","midi":67,"time":196.47729237499902,"velocity":0.8031496062992126,"duration":0.11126895052083796},{"name":"A4","midi":69,"time":196.59092874999902,"velocity":0.8031496062992126,"duration":0.11126895052083796},{"name":"G4","midi":67,"time":196.70456512499902,"velocity":0.8031496062992126,"duration":0.11126895052083796},{"name":"A4","midi":69,"time":196.81820149999902,"velocity":0.8031496062992126,"duration":0.11126895052083796},{"name":"C#4","midi":61,"time":196.81820149999902,"velocity":0.8031496062992126,"duration":0.452178075520834},{"name":"G4","midi":67,"time":196.93183787499902,"velocity":0.8031496062992126,"duration":0.11126895052083796},{"name":"F#4","midi":66,"time":197.04547424999902,"velocity":0.8031496062992126,"duration":0.11126895052083796},{"name":"G4","midi":67,"time":197.15911062499902,"velocity":0.8031496062992126,"duration":0.11126895052083796},{"name":"A4","midi":69,"time":197.27274699999901,"velocity":0.8031496062992126,"duration":1.3375948307291594},{"name":"F#3","midi":54,"time":197.27274699999901,"velocity":0.8031496062992126,"duration":0.8996213020833181},{"name":"D4","midi":62,"time":197.727292499999,"velocity":0.8031496062992126,"duration":1.8158145755208182},{"name":"A3","midi":57,"time":198.181837999999,"velocity":0.8031496062992126,"duration":0.452178075520834},{"name":"B4","midi":71,"time":198.636383499999,"velocity":0.8031496062992126,"duration":0.22490532552083664},{"name":"F#3","midi":54,"time":198.636383499999,"velocity":0.8031496062992126,"duration":0.452178075520834},{"name":"C#5","midi":73,"time":198.863656249999,"velocity":0.8031496062992126,"duration":0.22490532552083664},{"name":"D5","midi":74,"time":199.090928999999,"velocity":0.8031496062992126,"duration":0.22490532552083664},{"name":"E3","midi":52,"time":199.090928999999,"velocity":0.8031496062992126,"duration":0.8996213020833181},{"name":"E5","midi":76,"time":199.318201749999,"velocity":0.8031496062992126,"duration":0.22490532552083664},{"name":"F#5","midi":78,"time":199.545474499999,"velocity":0.8031496062992126,"duration":0.22490532552083664},{"name":"C#4","midi":61,"time":199.545474499999,"velocity":0.8031496062992126,"duration":0.452178075520834},{"name":"E5","midi":76,"time":199.772747249999,"velocity":0.8031496062992126,"duration":0.22490532552083664},{"name":"F#5","midi":78,"time":200.00001999999898,"velocity":0.8031496062992126,"duration":0.4498106510416733},{"name":"D3","midi":50,"time":200.00001999999898,"velocity":0.8031496062992126,"duration":0.452178075520834},{"name":"D5","midi":74,"time":200.22729274999898,"velocity":0.8031496062992126,"duration":0.22490532552083664},{"name":"C#5","midi":73,"time":200.45456549999898,"velocity":0.8031496062992126,"duration":0.22490532552083664},{"name":"D4","midi":62,"time":200.45456549999898,"velocity":0.8031496062992126,"duration":0.6794508255208314},{"name":"B4","midi":71,"time":200.68183824999898,"velocity":0.8031496062992126,"duration":0.22490532552083664},{"name":"E5","midi":76,"time":200.90911099999897,"velocity":0.8031496062992126,"duration":0.4498106510416733},{"name":"A4","midi":69,"time":201.13638374999897,"velocity":0.8031496062992126,"duration":0.22490532552083664},{"name":"C#4","midi":61,"time":201.13638374999897,"velocity":0.8031496062992126,"duration":0.22490532552083664},{"name":"G#4","midi":68,"time":201.36365649999897,"velocity":0.8031496062992126,"duration":0.22490532552083664},{"name":"B3","midi":59,"time":201.36365649999897,"velocity":0.8031496062992126,"duration":0.22490532552083664},{"name":"A4","midi":69,"time":201.59092924999896,"velocity":0.8031496062992126,"duration":0.22490532552083664},{"name":"C#4","midi":61,"time":201.59092924999896,"velocity":0.8031496062992126,"duration":0.452178075520834},{"name":"D5","midi":74,"time":201.81820199999896,"velocity":0.8031496062992126,"duration":0.4498106510416733},{"name":"G#4","midi":68,"time":202.04547474999896,"velocity":0.8031496062992126,"duration":0.22490532552083664},{"name":"B3","midi":59,"time":202.04547474999896,"velocity":0.8031496062992126,"duration":0.22490532552083664},{"name":"F#4","midi":66,"time":202.27274749999896,"velocity":0.8031496062992126,"duration":0.22490532552083664},{"name":"A3","midi":57,"time":202.27274749999896,"velocity":0.8031496062992126,"duration":0.22490532552083664},{"name":"G#4","midi":68,"time":202.50002024999895,"velocity":0.8031496062992126,"duration":0.22490532552083664},{"name":"B3","midi":59,"time":202.50002024999895,"velocity":0.8031496062992126,"duration":0.22490532552083664},{"name":"E4","midi":64,"time":202.72729299999895,"velocity":0.8031496062992126,"duration":2.485795703124978},{"name":"A3","midi":57,"time":202.72729299999895,"velocity":0.8031496062992126,"duration":1.3612690755208234},{"name":"G#4","midi":68,"time":202.95456574999895,"velocity":0.8031496062992126,"duration":0.22490532552083664},{"name":"B4","midi":71,"time":203.18183849999895,"velocity":0.8031496062992126,"duration":0.22490532552083664},{"name":"D5","midi":74,"time":203.40911124999894,"velocity":0.8031496062992126,"duration":0.22490532552083664},{"name":"A4","midi":69,"time":203.63638399999894,"velocity":0.8031496062992126,"duration":1.8158145755208182},{"name":"C#5","midi":73,"time":203.63638399999894,"velocity":0.8031496062992126,"duration":1.8158145755208182},{"name":"G#3","midi":56,"time":204.09092949999894,"velocity":0.8031496062992126,"duration":0.22490532552083664},{"name":"A3","midi":57,"time":204.31820224999893,"velocity":0.8031496062992126,"duration":0.22490532552083664},{"name":"B3","midi":59,"time":204.54547499999893,"velocity":0.8031496062992126,"duration":0.22490532552083664},{"name":"G#3","midi":56,"time":204.77274774999893,"velocity":0.8031496062992126,"duration":0.22490532552083664},{"name":"A3","midi":57,"time":205.00002049999893,"velocity":0.8031496062992126,"duration":0.22490532552083664},{"name":"F#3","midi":54,"time":205.22729324999892,"velocity":0.8031496062992126,"duration":0.22490532552083664},{"name":"D5","midi":74,"time":205.45456599999892,"velocity":0.8031496062992126,"duration":1.8158145755208182},{"name":"F3","midi":53,"time":205.45456599999892,"velocity":0.8031496062992126,"duration":0.22490532552083664},{"name":"G#3","midi":56,"time":205.68183874999892,"velocity":0.8031496062992126,"duration":0.22490532552083664},{"name":"A3","midi":57,"time":205.90911149999891,"velocity":0.8031496062992126,"duration":0.22490532552083664},{"name":"B3","midi":59,"time":206.1363842499989,"velocity":0.8031496062992126,"duration":0.22490532552083664},{"name":"B5","midi":83,"time":206.3636569999989,"velocity":0.8031496062992126,"duration":0.9067235755208287},{"name":"A3","midi":57,"time":206.3636569999989,"velocity":0.8031496062992126,"duration":0.22490532552083664},{"name":"G#3","midi":56,"time":206.5909297499989,"velocity":0.8031496062992126,"duration":0.22490532552083664},{"name":"F#3","midi":54,"time":206.8182024999989,"velocity":0.8031496062992126,"duration":0.22490532552083664},{"name":"F3","midi":53,"time":207.0454752499989,"velocity":0.8031496062992126,"duration":0.22490532552083664},{"name":"C#5","midi":73,"time":207.2727479999989,"velocity":0.8031496062992126,"duration":0.8285985677083261},{"name":"A5","midi":81,"time":207.2727479999989,"velocity":0.8031496062992126,"duration":0.9469697916666462},{"name":"F#3","midi":54,"time":207.2727479999989,"velocity":0.8031496062992126,"duration":0.22490532552083664},{"name":"G#3","midi":56,"time":207.5000207499989,"velocity":0.8031496062992126,"duration":0.22490532552083664},{"name":"A3","midi":57,"time":207.7272934999989,"velocity":0.8031496062992126,"duration":0.22490532552083664},{"name":"F#3","midi":54,"time":207.9545662499989,"velocity":0.8031496062992126,"duration":0.22490532552083664},{"name":"B4","midi":71,"time":208.1818389999989,"velocity":0.8031496062992126,"duration":1.8158145755208182},{"name":"C#3","midi":49,"time":208.1818389999989,"velocity":0.8031496062992126,"duration":0.22490532552083664},{"name":"F3","midi":53,"time":208.40911174999889,"velocity":0.8031496062992126,"duration":0.22490532552083664},{"name":"F#3","midi":54,"time":208.63638449999888,"velocity":0.8031496062992126,"duration":0.22490532552083664},{"name":"G#3","midi":56,"time":208.86365724999888,"velocity":0.8031496062992126,"duration":0.22490532552083664},{"name":"G#5","midi":80,"time":209.09092999999888,"velocity":0.8031496062992126,"duration":0.9067235755208287},{"name":"F#3","midi":54,"time":209.09092999999888,"velocity":0.8031496062992126,"duration":0.22490532552083664},{"name":"F3","midi":53,"time":209.31820274999887,"velocity":0.8031496062992126,"duration":0.22490532552083664},{"name":"D#3","midi":51,"time":209.54547549999887,"velocity":0.8031496062992126,"duration":0.22490532552083664},{"name":"C#3","midi":49,"time":209.77274824999887,"velocity":0.8031496062992126,"duration":0.22490532552083664},{"name":"A4","midi":69,"time":210.00002099999887,"velocity":0.8031496062992126,"duration":0.8285985677083261},{"name":"F#5","midi":78,"time":210.00002099999887,"velocity":0.8031496062992126,"duration":0.9469697916666462},{"name":"D3","midi":50,"time":210.00002099999887,"velocity":0.8031496062992126,"duration":0.22490532552083664},{"name":"E3","midi":52,"time":210.22729374999886,"velocity":0.8031496062992126,"duration":0.22490532552083664},{"name":"F#3","midi":54,"time":210.45456649999886,"velocity":0.8031496062992126,"duration":0.22490532552083664},{"name":"D3","midi":50,"time":210.68183924999886,"velocity":0.8031496062992126,"duration":0.22490532552083664},{"name":"G#4","midi":68,"time":210.90911199999886,"velocity":0.8031496062992126,"duration":2.72253815104159},{"name":"B2","midi":47,"time":210.90911199999886,"velocity":0.8031496062992126,"duration":0.452178075520834},{"name":"C#3","midi":49,"time":211.36365749999885,"velocity":0.8031496062992126,"duration":0.22490532552083664},{"name":"D3","midi":50,"time":211.59093024999885,"velocity":0.8031496062992126,"duration":0.22490532552083664},{"name":"F#5","midi":78,"time":211.81820299999885,"velocity":0.8031496062992126,"duration":0.9067235755208287},{"name":"C#3","midi":49,"time":211.81820299999885,"velocity":0.8031496062992126,"duration":0.22490532552083664},{"name":"B2","midi":47,"time":212.04547574999884,"velocity":0.8031496062992126,"duration":0.22490532552083664},{"name":"A2","midi":45,"time":212.27274849999884,"velocity":0.8031496062992126,"duration":0.22490532552083664},{"name":"G#2","midi":44,"time":212.50002124999884,"velocity":0.8031496062992126,"duration":0.22490532552083664},{"name":"F#5","midi":78,"time":212.72729399999884,"velocity":0.8031496062992126,"duration":0.14914774218749471},{"name":"C#3","midi":49,"time":212.72729399999884,"velocity":0.8031496062992126,"duration":0.4521780755208056},{"name":"F5","midi":77,"time":212.8788091666655,"velocity":0.8031496062992126,"duration":0.14914774218749471},{"name":"F#5","midi":78,"time":213.03032433333215,"velocity":0.8031496062992126,"duration":0.14914774218749471},{"name":"F5","midi":77,"time":213.1818394999988,"velocity":0.8031496062992126,"duration":0.14914774218749471},{"name":"C#2","midi":37,"time":213.1818394999988,"velocity":0.8031496062992126,"duration":0.4521780755208056},{"name":"D#5","midi":75,"time":213.33335466666546,"velocity":0.8031496062992126,"duration":0.14914774218749471},{"name":"F5","midi":77,"time":213.4848698333321,"velocity":0.8031496062992126,"duration":0.14914774218749471},{"name":"A4","midi":69,"time":213.63638499999877,"velocity":0.8031496062992126,"duration":1.8158145755208182},{"name":"F#5","midi":78,"time":213.63638499999877,"velocity":0.8031496062992126,"duration":1.8158145755208182},{"name":"F#2","midi":42,"time":213.63638499999877,"velocity":0.8031496062992126,"duration":0.8996213020833181},{"name":"A2","midi":45,"time":214.09093049999876,"velocity":0.8031496062992126,"duration":0.452178075520834},{"name":"C#3","midi":49,"time":214.54547599999876,"velocity":0.8031496062992126,"duration":0.452178075520834},{"name":"F#3","midi":54,"time":215.00002149999875,"velocity":0.8031496062992126,"duration":0.8996213020833181},{"name":"E3","midi":52,"time":215.45456699999875,"velocity":0.8031496062992126,"duration":0.8996213020833181},{"name":"G3","midi":55,"time":215.90911249999874,"velocity":0.8031496062992126,"duration":0.452178075520834},{"name":"C5","midi":72,"time":216.36365799999874,"velocity":0.8031496062992126,"duration":0.22490532552083664},{"name":"A3","midi":57,"time":216.36365799999874,"velocity":0.8031496062992126,"duration":0.9067235755208287},{"name":"D#3","midi":51,"time":216.36365799999874,"velocity":0.8031496062992126,"duration":2.722538151041647},{"name":"B4","midi":71,"time":216.59093074999873,"velocity":0.8031496062992126,"duration":0.22490532552083664},{"name":"C5","midi":72,"time":216.81820349999873,"velocity":0.8031496062992126,"duration":0.22490532552083664},{"name":"F#5","midi":78,"time":217.04547624999873,"velocity":0.8031496062992126,"duration":0.22490532552083664},{"name":"A5","midi":81,"time":217.27274899999873,"velocity":0.8031496062992126,"duration":0.22490532552083664},{"name":"B3","midi":59,"time":217.27274899999873,"velocity":0.8031496062992126,"duration":0.9067235755208287},{"name":"G5","midi":79,"time":217.50002174999872,"velocity":0.8031496062992126,"duration":0.22490532552083664},{"name":"A5","midi":81,"time":217.72729449999872,"velocity":0.8031496062992126,"duration":0.22490532552083664},{"name":"C6","midi":84,"time":217.95456724999872,"velocity":0.8031496062992126,"duration":0.22490532552083664},{"name":"B5","midi":83,"time":218.18183999999872,"velocity":0.8031496062992126,"duration":0.22490532552083664},{"name":"C4","midi":60,"time":218.18183999999872,"velocity":0.8031496062992126,"duration":1.8158145755208182},{"name":"A5","midi":81,"time":218.4091127499987,"velocity":0.8031496062992126,"duration":0.22490532552083664},{"name":"G5","midi":79,"time":218.6363854999987,"velocity":0.8031496062992126,"duration":0.22490532552083664},{"name":"F#5","midi":78,"time":218.8636582499987,"velocity":0.8031496062992126,"duration":0.22490532552083664},{"name":"E5","midi":76,"time":219.0909309999987,"velocity":0.8031496062992126,"duration":0.22490532552083664},{"name":"E3","midi":52,"time":219.0909309999987,"velocity":0.8031496062992126,"duration":2.2727274999999736},{"name":"D#5","midi":75,"time":219.3182037499987,"velocity":0.8031496062992126,"duration":0.4498106510416733},{"name":"F#5","midi":78,"time":219.5454764999987,"velocity":0.8031496062992126,"duration":0.4498106510416733},{"name":"A5","midi":81,"time":219.7727492499987,"velocity":0.8031496062992126,"duration":0.22490532552083664},{"name":"E5","midi":76,"time":220.0000219999987,"velocity":0.8031496062992126,"duration":1.609848645833324},{"name":"G5","midi":79,"time":220.0000219999987,"velocity":0.8031496062992126,"duration":1.609848645833324},{"name":"B3","midi":59,"time":220.0000219999987,"velocity":0.8031496062992126,"duration":0.22490532552083664},{"name":"A3","midi":57,"time":220.2272947499987,"velocity":0.8031496062992126,"duration":0.22490532552083664},{"name":"C4","midi":60,"time":220.4545674999987,"velocity":0.8031496062992126,"duration":0.22490532552083664},{"name":"B3","midi":59,"time":220.6818402499987,"velocity":0.8031496062992126,"duration":0.22490532552083664},{"name":"A3","midi":57,"time":220.90911299999868,"velocity":0.8031496062992126,"duration":0.22490532552083664},{"name":"G3","midi":55,"time":221.13638574999868,"velocity":0.8031496062992126,"duration":0.22490532552083664},{"name":"F#3","midi":54,"time":221.36365849999868,"velocity":0.8031496062992126,"duration":0.22490532552083664},{"name":"E3","midi":52,"time":221.59093124999868,"velocity":0.8031496062992126,"duration":0.22490532552083664},{"name":"B4","midi":71,"time":221.81820399999867,"velocity":0.8031496062992126,"duration":0.9067235755208287},{"name":"F#5","midi":78,"time":221.81820399999867,"velocity":0.8031496062992126,"duration":0.9067235755208287},{"name":"D3","midi":50,"time":221.81820399999867,"velocity":0.8031496062992126,"duration":0.22490532552083664},{"name":"C#3","midi":49,"time":222.04547674999867,"velocity":0.8031496062992126,"duration":0.22490532552083664},{"name":"D3","midi":50,"time":222.27274949999867,"velocity":0.8031496062992126,"duration":0.22490532552083664},{"name":"F#3","midi":54,"time":222.50002224999866,"velocity":0.8031496062992126,"duration":0.22490532552083664},{"name":"C#5","midi":73,"time":222.72729499999866,"velocity":0.8031496062992126,"duration":0.9067235755208287},{"name":"F5","midi":77,"time":222.72729499999866,"velocity":0.8031496062992126,"duration":0.9067235755208287},{"name":"B3","midi":59,"time":222.72729499999866,"velocity":0.8031496062992126,"duration":0.22490532552083664},{"name":"A#3","midi":58,"time":222.95456774999866,"velocity":0.8031496062992126,"duration":0.22490532552083664},{"name":"B3","midi":59,"time":223.18184049999866,"velocity":0.8031496062992126,"duration":0.22490532552083664},{"name":"D4","midi":62,"time":223.40911324999865,"velocity":0.8031496062992126,"duration":0.22490532552083664},{"name":"D5","midi":74,"time":223.63638599999865,"velocity":0.8031496062992126,"duration":1.8158145755208182},{"name":"F#5","midi":78,"time":223.63638599999865,"velocity":0.8031496062992126,"duration":0.9067235755208287},{"name":"C#4","midi":61,"time":223.63638599999865,"velocity":0.8031496062992126,"duration":0.22490532552083664},{"name":"B3","midi":59,"time":223.86365874999865,"velocity":0.8031496062992126,"duration":0.22490532552083664},{"name":"A3","midi":57,"time":224.09093149999865,"velocity":0.8031496062992126,"duration":0.22490532552083664},{"name":"G#3","midi":56,"time":224.31820424999864,"velocity":0.8031496062992126,"duration":0.22490532552083664},{"name":"G#5","midi":80,"time":224.54547699999864,"velocity":0.8031496062992126,"duration":1.1363637499999868},{"name":"F#3","midi":54,"time":224.54547699999864,"velocity":0.8031496062992126,"duration":0.22490532552083664},{"name":"F3","midi":53,"time":224.77274974999864,"velocity":0.8031496062992126,"duration":0.22490532552083664},{"name":"G#3","midi":56,"time":225.00002249999864,"velocity":0.8031496062992126,"duration":0.22490532552083664},{"name":"B3","midi":59,"time":225.22729524999863,"velocity":0.8031496062992126,"duration":0.6628788541666495},{"name":"C#5","midi":73,"time":225.45456799999863,"velocity":0.8031496062992126,"duration":1.361269075520795},{"name":"F#3","midi":54,"time":225.45456799999863,"velocity":0.8031496062992126,"duration":1.8158145755207897},{"name":"F#5","midi":78,"time":225.68184074999863,"velocity":0.8031496062992126,"duration":0.22490532552080822},{"name":"F5","midi":77,"time":225.9091134999986,"velocity":0.8031496062992126,"duration":0.22490532552083664},{"name":"B3","midi":59,"time":225.9091134999986,"velocity":0.8031496062992126,"duration":0.452178075520834},{"name":"G#5","midi":80,"time":226.1363862499986,"velocity":0.8031496062992126,"duration":0.22490532552083664},{"name":"F#5","midi":78,"time":226.3636589999986,"velocity":0.8031496062992126,"duration":0.22490532552083664},{"name":"A#3","midi":58,"time":226.3636589999986,"velocity":0.8031496062992126,"duration":0.8522728124999901},{"name":"E5","midi":76,"time":226.5909317499986,"velocity":0.8031496062992126,"duration":0.22490532552083664},{"name":"D5","midi":74,"time":226.8182044999986,"velocity":0.8031496062992126,"duration":0.22490532552083664},{"name":"C#5","midi":73,"time":227.04547724999858,"velocity":0.8031496062992126,"duration":0.22490532552083664},{"name":"D5","midi":74,"time":227.27274999999858,"velocity":0.8031496062992126,"duration":0.22490532552083664},{"name":"B2","midi":47,"time":227.27274999999858,"velocity":0.8031496062992126,"duration":1.8158145755208182},{"name":"B4","midi":71,"time":227.50002274999858,"velocity":0.8031496062992126,"duration":0.22490532552083664},{"name":"A#4","midi":70,"time":227.72729549999858,"velocity":0.8031496062992126,"duration":0.22490532552083664},{"name":"D3","midi":50,"time":227.72729549999858,"velocity":0.8031496062992126,"duration":0.452178075520834},{"name":"B4","midi":71,"time":227.95456824999857,"velocity":0.8031496062992126,"duration":0.22490532552083664},{"name":"F#4","midi":66,"time":228.18184099999857,"velocity":0.8031496062992126,"duration":0.22490532552083664},{"name":"F#3","midi":54,"time":228.18184099999857,"velocity":0.8031496062992126,"duration":0.452178075520834},{"name":"B4","midi":71,"time":228.40911374999857,"velocity":0.8031496062992126,"duration":0.22490532552083664},{"name":"C#5","midi":73,"time":228.63638649999857,"velocity":0.8031496062992126,"duration":0.22490532552083664},{"name":"B3","midi":59,"time":228.63638649999857,"velocity":0.8031496062992126,"duration":0.8996213020833181},{"name":"D5","midi":74,"time":228.86365924999856,"velocity":0.8031496062992126,"duration":0.4498106510416733},{"name":"E4","midi":64,"time":229.09093199999856,"velocity":0.8031496062992126,"duration":0.2604166927083327},{"name":"C#3","midi":49,"time":229.09093199999856,"velocity":0.8031496062992126,"duration":0.8996213020833181},{"name":"C#5","midi":73,"time":229.31820474999856,"velocity":0.8031496062992126,"duration":0.22490532552083664},{"name":"D5","midi":74,"time":229.54547749999855,"velocity":0.8031496062992126,"duration":0.22490532552083664},{"name":"A#3","midi":58,"time":229.54547749999855,"velocity":0.8031496062992126,"duration":0.452178075520834},{"name":"E5","midi":76,"time":229.77275024999855,"velocity":0.8031496062992126,"duration":0.4498106510416733},{"name":"F#4","midi":66,"time":230.00002299999855,"velocity":0.8031496062992126,"duration":0.2604166927083327},{"name":"D3","midi":50,"time":230.00002299999855,"velocity":0.8031496062992126,"duration":1.3612690755208234},{"name":"D5","midi":74,"time":230.22729574999855,"velocity":0.8031496062992126,"duration":0.22490532552083664},{"name":"E5","midi":76,"time":230.45456849999854,"velocity":0.8031496062992126,"duration":0.22490532552083664},{"name":"B3","midi":59,"time":230.45456849999854,"velocity":0.8031496062992126,"duration":0.452178075520834},{"name":"F#5","midi":78,"time":230.68184124999854,"velocity":0.8031496062992126,"duration":0.4498106510416733},{"name":"G#4","midi":68,"time":230.90911399999854,"velocity":0.8031496062992126,"duration":0.2604166927083327},{"name":"F#3","midi":54,"time":230.90911399999854,"velocity":0.8031496062992126,"duration":0.8996213020833181},{"name":"E5","midi":76,"time":231.13638674999854,"velocity":0.8031496062992126,"duration":0.22490532552083664},{"name":"F#5","midi":78,"time":231.36365949999853,"velocity":0.8031496062992126,"duration":0.22490532552083664},{"name":"B2","midi":47,"time":231.36365949999853,"velocity":0.8031496062992126,"duration":0.8996213020833181},{"name":"G5","midi":79,"time":231.59093224999853,"velocity":0.8031496062992126,"duration":0.42613640625000926},{"name":"C#5","midi":73,"time":231.81820499999853,"velocity":0.8031496062992126,"duration":0.22490532552083664},{"name":"G3","midi":55,"time":231.81820499999853,"velocity":0.8031496062992126,"duration":0.8996213020833181},{"name":"G5","midi":79,"time":232.04547774999853,"velocity":0.8031496062992126,"duration":0.22490532552083664},{"name":"F#5","midi":78,"time":232.27275049999852,"velocity":0.8031496062992126,"duration":0.22490532552083664},{"name":"A#2","midi":46,"time":232.27275049999852,"velocity":0.8031496062992126,"duration":0.452178075520834},{"name":"E5","midi":76,"time":232.50002324999852,"velocity":0.8031496062992126,"duration":0.22490532552083664},{"name":"F#3","midi":54,"time":232.72729599999852,"velocity":0.8031496062992126,"duration":0.4640151979166376},{"name":"B2","midi":47,"time":232.72729599999852,"velocity":0.8031496062992126,"duration":0.4640151979166376},{"name":"D5","midi":74,"time":232.72729599999852,"velocity":0.8031496062992126,"duration":0.22964017447915808},{"name":"B5","midi":83,"time":232.95930359895684,"velocity":0.8031496062992126,"duration":0.22964017447915808},{"name":"C#3","midi":49,"time":233.19367862239432,"velocity":0.8031496062992126,"duration":0.4640151979166376},{"name":"A#3","midi":58,"time":233.19367862239432,"velocity":0.8031496062992126,"duration":0.4640151979166376},{"name":"G5","midi":79,"time":233.19367862239432,"velocity":0.8031496062992126,"duration":0.22964017447915808},{"name":"E5","midi":76,"time":233.4280536458318,"velocity":0.8031496062992126,"duration":0.22964017447915808},{"name":"D3","midi":50,"time":233.66242866926927,"velocity":0.8031496062992126,"duration":0.4640151979166376},{"name":"B3","midi":59,"time":233.66242866926927,"velocity":0.8031496062992126,"duration":0.4640151979166376},{"name":"F#5","midi":78,"time":233.66242866926927,"velocity":0.8031496062992126,"duration":0.22964017447915808},{"name":"B4","midi":71,"time":233.89680369270675,"velocity":0.8031496062992126,"duration":0.22964017447915808},{"name":"E3","midi":52,"time":234.13117871614423,"velocity":0.8031496062992126,"duration":0.4640151979166376},{"name":"C#4","midi":61,"time":234.13117871614423,"velocity":0.8031496062992126,"duration":0.4640151979166376},{"name":"A#4","midi":70,"time":234.13117871614423,"velocity":0.8031496062992126,"duration":0.22964017447915808},{"name":"B4","midi":71,"time":234.3655537395817,"velocity":0.8031496062992126,"duration":0.22964017447915808},{"name":"F#4","midi":66,"time":234.5999287630192,"velocity":0.8031496062992126,"duration":0.23437502343750793},{"name":"D4","midi":62,"time":234.5999287630192,"velocity":0.8031496062992126,"duration":0.475852320312498},{"name":"F#3","midi":54,"time":234.5999287630192,"velocity":0.8031496062992126,"duration":0.9517046406250245},{"name":"B4","midi":71,"time":234.83667121093586,"velocity":0.8031496062992126,"duration":0.23437502343750793},{"name":"C#5","midi":73,"time":235.07814850781085,"velocity":0.8031496062992126,"duration":0.23437502343750793},{"name":"E4","midi":64,"time":235.07814850781085,"velocity":0.8031496062992126,"duration":0.7007576458333631},{"name":"A#4","midi":70,"time":235.31962580468587,"velocity":0.8031496062992126,"duration":0.23437502343750793},{"name":"B3","midi":59,"time":235.5611031015609,"velocity":0.8031496062992126,"duration":1.4843751484375218},{"name":"B4","midi":71,"time":235.5611031015609,"velocity":0.8031496062992126,"duration":0.9801137343750099},{"name":"C#4","midi":61,"time":235.80731524739423,"velocity":0.8031496062992126,"duration":0.23910987239582937},{"name":"D4","midi":62,"time":236.05589481770673,"velocity":0.8031496062992126,"duration":0.9801137343750099},{"name":"F#4","midi":66,"time":236.3068418124984,"velocity":0.8031496062992126,"duration":0.23910987239582937},{"name":"B4","midi":71,"time":236.5554213828109,"velocity":0.8031496062992126,"duration":2.7225381510416753},{"name":"F#4","midi":66,"time":236.81347065104006,"velocity":0.8031496062992126,"duration":1.832386546875},{"name":"D4","midi":62,"time":237.07625476822759,"velocity":0.8031496062992126,"duration":1.571969854166639},{"name":"B3","midi":59,"time":237.33903888541508,"velocity":0.8031496062992126,"duration":0.2533144192708221},{"name":"F#3","midi":54,"time":237.60419042708173,"velocity":0.8031496062992126,"duration":0.2604166927083327},{"name":"D3","midi":50,"time":237.87407681770674,"velocity":0.8031496062992126,"duration":0.2604166927083327},{"name":"B2","midi":47,"time":238.14396320833174,"velocity":0.8031496062992126,"duration":1.609848645833324},{"name":"F#4","midi":66,"time":243.6363879999984,"velocity":0.8031496062992126,"duration":0.452178075520834},{"name":"D4","midi":62,"time":243.6363879999984,"velocity":0.8031496062992126,"duration":0.452178075520834},{"name":"B3","midi":59,"time":243.6363879999984,"velocity":0.8031496062992126,"duration":2.7249055755208076},{"name":"B4","midi":71,"time":244.09093349999839,"velocity":0.8031496062992126,"duration":0.22490532552083664},{"name":"C#4","midi":61,"time":244.09093349999839,"velocity":0.8031496062992126,"duration":0.4498106510416733},{"name":"A#4","midi":70,"time":244.31820624999838,"velocity":0.8031496062992126,"duration":0.22490532552083664},{"name":"B4","midi":71,"time":244.54547899999838,"velocity":0.8031496062992126,"duration":0.22490532552083664},{"name":"D4","midi":62,"time":244.54547899999838,"velocity":0.8031496062992126,"duration":0.4498106510416733},{"name":"C#5","midi":73,"time":244.77275174999838,"velocity":0.8031496062992126,"duration":0.22490532552083664},{"name":"D5","midi":74,"time":245.00002449999837,"velocity":0.8031496062992126,"duration":0.22490532552083664},{"name":"F#4","midi":66,"time":245.00002449999837,"velocity":0.8031496062992126,"duration":0.4498106510416733},{"name":"B4","midi":71,"time":245.22729724999837,"velocity":0.8031496062992126,"duration":0.22490532552083664},{"name":"G5","midi":79,"time":245.45456999999837,"velocity":0.8031496062992126,"duration":0.40246216145834524},{"name":"E4","midi":64,"time":245.45456999999837,"velocity":0.8031496062992126,"duration":0.452178075520834},{"name":"G5","midi":79,"time":245.90911549999836,"velocity":0.8031496062992126,"duration":0.22490532552083664},{"name":"D4","midi":62,"time":245.90911549999836,"velocity":0.8031496062992126,"duration":0.4498106510416733},{"name":"F#5","midi":78,"time":246.13638824999836,"velocity":0.8031496062992126,"duration":0.22490532552083664},{"name":"E5","midi":76,"time":246.36366099999836,"velocity":0.8031496062992126,"duration":0.452178075520834},{"name":"C#4","midi":61,"time":246.36366099999836,"velocity":0.8031496062992126,"duration":0.452178075520834},{"name":"G3","midi":55,"time":246.36366099999836,"velocity":0.8031496062992126,"duration":1.3612690755208234},{"name":"D5","midi":74,"time":246.81820649999835,"velocity":0.8031496062992126,"duration":0.42613640625000926},{"name":"B3","midi":59,"time":246.81820649999835,"velocity":0.8031496062992126,"duration":0.452178075520834},{"name":"C#5","midi":73,"time":247.27275199999835,"velocity":0.8031496062992126,"duration":0.452178075520834},{"name":"E4","midi":64,"time":247.27275199999835,"velocity":0.8031496062992126,"duration":0.8996213020833181},{"name":"B4","midi":71,"time":247.72729749999834,"velocity":0.8031496062992126,"duration":0.22490532552083664},{"name":"F#3","midi":54,"time":247.72729749999834,"velocity":0.8031496062992126,"duration":0.22490532552083664},{"name":"A#4","midi":70,"time":247.95457024999834,"velocity":0.8031496062992126,"duration":0.22490532552083664},{"name":"E3","midi":52,"time":247.95457024999834,"velocity":0.8031496062992126,"duration":0.22490532552083664},{"name":"B4","midi":71,"time":248.18184299999834,"velocity":0.8031496062992126,"duration":0.22490532552083664},{"name":"D3","midi":50,"time":248.18184299999834,"velocity":0.8031496062992126,"duration":0.452178075520834},{"name":"F#3","midi":54,"time":248.18184299999834,"velocity":0.8031496062992126,"duration":0.8996213020833181},{"name":"C#5","midi":73,"time":248.40911574999834,"velocity":0.8031496062992126,"duration":0.22490532552083664},{"name":"D5","midi":74,"time":248.63638849999833,"velocity":0.8031496062992126,"duration":0.22490532552083664},{"name":"C#3","midi":49,"time":248.63638849999833,"velocity":0.8031496062992126,"duration":0.452178075520834},{"name":"E5","midi":76,"time":248.86366124999833,"velocity":0.8031496062992126,"duration":0.22490532552083664},{"name":"F#5","midi":78,"time":249.09093399999833,"velocity":0.8031496062992126,"duration":0.452178075520834},{"name":"B3","midi":59,"time":249.09093399999833,"velocity":0.8031496062992126,"duration":0.8996213020833181},{"name":"D3","midi":50,"time":249.09093399999833,"velocity":0.8031496062992126,"duration":0.452178075520834},{"name":"E5","midi":76,"time":249.54547949999832,"velocity":0.8031496062992126,"duration":0.22490532552083664},{"name":"E3","midi":52,"time":249.54547949999832,"velocity":0.8031496062992126,"duration":0.452178075520834},{"name":"D5","midi":74,"time":249.77275224999832,"velocity":0.8031496062992126,"duration":0.22490532552083664},{"name":"E5","midi":76,"time":250.00002499999832,"velocity":0.8031496062992126,"duration":0.22490532552083664},{"name":"A#3","midi":58,"time":250.00002499999832,"velocity":0.8031496062992126,"duration":0.452178075520834},{"name":"F#3","midi":54,"time":250.00002499999832,"velocity":0.8031496062992126,"duration":0.452178075520834},{"name":"D5","midi":74,"time":250.2272977499983,"velocity":0.8031496062992126,"duration":0.22490532552083664},{"name":"C#5","midi":73,"time":250.4545704999983,"velocity":0.8031496062992126,"duration":0.22490532552083664},{"name":"B3","midi":59,"time":250.4545704999983,"velocity":0.8031496062992126,"duration":0.452178075520834},{"name":"B2","midi":47,"time":250.4545704999983,"velocity":0.8031496062992126,"duration":0.452178075520834},{"name":"B4","midi":71,"time":250.6818432499983,"velocity":0.8031496062992126,"duration":0.20123108072917262},{"name":"D5","midi":74,"time":250.9091159999983,"velocity":0.8031496062992126,"duration":0.22490532552083664},{"name":"B3","midi":59,"time":250.9091159999983,"velocity":0.8031496062992126,"duration":2.722538151041647},{"name":"C#5","midi":73,"time":251.1363887499983,"velocity":0.8031496062992126,"duration":0.22490532552083664},{"name":"B4","midi":71,"time":251.3636614999983,"velocity":0.8031496062992126,"duration":0.22490532552083664},{"name":"C#4","midi":61,"time":251.3636614999983,"velocity":0.8031496062992126,"duration":0.452178075520834},{"name":"A#4","midi":70,"time":251.5909342499983,"velocity":0.8031496062992126,"duration":0.22490532552083664},{"name":"B4","midi":71,"time":251.8182069999983,"velocity":0.8031496062992126,"duration":0.22490532552083664},{"name":"D4","midi":62,"time":251.8182069999983,"velocity":0.8031496062992126,"duration":0.452178075520834},{"name":"C#5","midi":73,"time":252.0454797499983,"velocity":0.8031496062992126,"duration":0.22490532552083664},{"name":"D5","midi":74,"time":252.2727524999983,"velocity":0.8031496062992126,"duration":0.22490532552083664},{"name":"F#4","midi":66,"time":252.2727524999983,"velocity":0.8031496062992126,"duration":0.452178075520834},{"name":"B4","midi":71,"time":252.5000252499983,"velocity":0.8031496062992126,"duration":0.22490532552083664},{"name":"G5","midi":79,"time":252.72729799999829,"velocity":0.8031496062992126,"duration":0.40246216145834524},{"name":"E4","midi":64,"time":252.72729799999829,"velocity":0.8031496062992126,"duration":0.452178075520834},{"name":"G5","midi":79,"time":253.18184349999828,"velocity":0.8031496062992126,"duration":0.22490532552083664},{"name":"D4","midi":62,"time":253.18184349999828,"velocity":0.8031496062992126,"duration":0.452178075520834},{"name":"F#5","midi":78,"time":253.40911624999828,"velocity":0.8031496062992126,"duration":0.22490532552083664},{"name":"E5","midi":76,"time":253.63638899999827,"velocity":0.8031496062992126,"duration":0.452178075520834},{"name":"C#4","midi":61,"time":253.63638899999827,"velocity":0.8031496062992126,"duration":1.3612690755208234},{"name":"F#5","midi":78,"time":254.09093449999827,"velocity":0.8031496062992126,"duration":0.22490532552083664},{"name":"A3","midi":57,"time":254.09093449999827,"velocity":0.8031496062992126,"duration":0.22490532552083664},{"name":"G5","midi":79,"time":254.31820724999827,"velocity":0.8031496062992126,"duration":0.22490532552083664},{"name":"G3","midi":55,"time":254.31820724999827,"velocity":0.8031496062992126,"duration":0.22490532552083664},{"name":"A5","midi":81,"time":254.54547999999826,"velocity":0.8031496062992126,"duration":0.452178075520834},{"name":"F#3","midi":54,"time":254.54547999999826,"velocity":0.8031496062992126,"duration":0.452178075520834},{"name":"C#5","midi":73,"time":255.00002549999826,"velocity":0.8031496062992126,"duration":0.42613640625000926},{"name":"E4","midi":64,"time":255.00002549999826,"velocity":0.8031496062992126,"duration":0.452178075520834},{"name":"E3","midi":52,"time":255.00002549999826,"velocity":0.8031496062992126,"duration":0.452178075520834},{"name":"D5","midi":74,"time":255.45457099999825,"velocity":0.8031496062992126,"duration":0.22490532552083664},{"name":"D4","midi":62,"time":255.45457099999825,"velocity":0.8031496062992126,"duration":1.3612690755208234},{"name":"F#3","midi":54,"time":255.45457099999825,"velocity":0.8031496062992126,"duration":0.452178075520834},{"name":"C#5","midi":73,"time":255.68184374999825,"velocity":0.8031496062992126,"duration":0.22490532552083664},{"name":"B4","midi":71,"time":255.90911649999825,"velocity":0.8031496062992126,"duration":0.22490532552083664},{"name":"G3","midi":55,"time":255.90911649999825,"velocity":0.8031496062992126,"duration":0.452178075520834},{"name":"A4","midi":69,"time":256.1363892499983,"velocity":0.8031496062992126,"duration":0.2130682031249762},{"name":"G5","midi":79,"time":256.36366199999827,"velocity":0.8031496062992126,"duration":0.22490532552080822},{"name":"A3","midi":57,"time":256.36366199999827,"velocity":0.8031496062992126,"duration":0.8996213020833466},{"name":"F#5","midi":78,"time":256.59093474999827,"velocity":0.8031496062992126,"duration":0.22490532552080822},{"name":"E5","midi":76,"time":256.81820749999827,"velocity":0.8031496062992126,"duration":0.22490532552080822},{"name":"C#4","midi":61,"time":256.81820749999827,"velocity":0.8031496062992126,"duration":0.4521780755208624},{"name":"F#5","midi":78,"time":257.04548024999826,"velocity":0.8031496062992126,"duration":0.22490532552086506},{"name":"D5","midi":74,"time":257.2727529999983,"velocity":0.8031496062992126,"duration":0.6628788541666495},{"name":"D4","midi":62,"time":257.2727529999983,"velocity":0.8031496062992126,"duration":0.8049243229166336},{"name":"D3","midi":50,"time":257.7272984999983,"velocity":0.8031496062992126,"duration":0.4521780755208056},{"name":"A4","midi":69,"time":258.1818439999983,"velocity":0.8031496062992126,"duration":0.4521780755208056},{"name":"D3","midi":50,"time":258.1818439999983,"velocity":0.8031496062992126,"duration":0.4521780755208056},{"name":"F#3","midi":54,"time":258.1818439999983,"velocity":0.8031496062992126,"duration":0.4521780755208056},{"name":"D5","midi":74,"time":258.6363894999983,"velocity":0.8031496062992126,"duration":0.22490532552080822},{"name":"E3","midi":52,"time":258.6363894999983,"velocity":0.8031496062992126,"duration":0.4521780755208056},{"name":"G3","midi":55,"time":258.6363894999983,"velocity":0.8031496062992126,"duration":0.4521780755208056},{"name":"C#5","midi":73,"time":258.8636622499983,"velocity":0.8031496062992126,"duration":0.22490532552080822},{"name":"D5","midi":74,"time":259.0909349999983,"velocity":0.8031496062992126,"duration":0.22490532552080822},{"name":"A3","midi":57,"time":259.0909349999983,"velocity":0.8031496062992126,"duration":0.8996213020833466},{"name":"F#3","midi":54,"time":259.0909349999983,"velocity":0.8031496062992126,"duration":0.4521780755208056},{"name":"E5","midi":76,"time":259.3182077499983,"velocity":0.8031496062992126,"duration":0.22490532552080822},{"name":"F#5","midi":78,"time":259.5454804999983,"velocity":0.8031496062992126,"duration":0.22490532552080822},{"name":"D3","midi":50,"time":259.5454804999983,"velocity":0.8031496062992126,"duration":0.8996213020834034},{"name":"D5","midi":74,"time":259.7727532499983,"velocity":0.8031496062992126,"duration":0.22490532552086506},{"name":"G4","midi":67,"time":260.00002599999834,"velocity":0.8031496062992126,"duration":0.4521780755208624},{"name":"B3","midi":59,"time":260.00002599999834,"velocity":0.8031496062992126,"duration":0.8996213020834034},{"name":"G4","midi":67,"time":260.4545714999984,"velocity":0.8031496062992126,"duration":0.22490532552080822},{"name":"D3","midi":50,"time":260.4545714999984,"velocity":0.8031496062992126,"duration":0.6628788541667063},{"name":"F#4","midi":66,"time":260.6818442499984,"velocity":0.8031496062992126,"duration":0.22490532552086506},{"name":"G4","midi":67,"time":260.90911699999845,"velocity":0.8031496062992126,"duration":0.4521780755208056},{"name":"A3","midi":57,"time":260.90911699999845,"velocity":0.8031496062992126,"duration":1.361269075520795},{"name":"C#3","midi":49,"time":261.13638974999844,"velocity":0.8031496062992126,"duration":0.22490532552080822},{"name":"E5","midi":76,"time":261.36366249999844,"velocity":0.8031496062992126,"duration":0.4521780755208056},{"name":"B2","midi":47,"time":261.36366249999844,"velocity":0.8031496062992126,"duration":0.22490532552080822},{"name":"A2","midi":45,"time":261.59093524999844,"velocity":0.8031496062992126,"duration":0.22490532552080822},{"name":"G4","midi":67,"time":261.81820799999844,"velocity":0.8031496062992126,"duration":0.22490532552080822},{"name":"D3","midi":50,"time":261.81820799999844,"velocity":0.8031496062992126,"duration":1.361269075520795},{"name":"F#4","midi":66,"time":262.04548074999843,"velocity":0.8031496062992126,"duration":0.22490532552080822},{"name":"E4","midi":64,"time":262.27275349999843,"velocity":0.8031496062992126,"duration":0.22490532552080822},{"name":"A3","midi":57,"time":262.27275349999843,"velocity":0.8031496062992126,"duration":0.4521780755208056},{"name":"F#4","midi":66,"time":262.5000262499984,"velocity":0.8031496062992126,"duration":0.22490532552080822},{"name":"G#4","midi":68,"time":262.7272989999984,"velocity":0.8031496062992126,"duration":0.22490532552080822},{"name":"B3","midi":59,"time":262.7272989999984,"velocity":0.8031496062992126,"duration":0.4521780755208056},{"name":"A4","midi":69,"time":262.9545717499984,"velocity":0.8031496062992126,"duration":0.22490532552080822},{"name":"B4","midi":71,"time":263.1818444999984,"velocity":0.8031496062992126,"duration":0.22490532552080822},{"name":"A3","midi":57,"time":263.1818444999984,"velocity":0.8031496062992126,"duration":0.8996213020833466},{"name":"C#3","midi":49,"time":263.1818444999984,"velocity":0.8031496062992126,"duration":0.4521780755208056},{"name":"C#5","midi":73,"time":263.4091172499984,"velocity":0.8031496062992126,"duration":0.22490532552080822},{"name":"D5","midi":74,"time":263.6363899999984,"velocity":0.8031496062992126,"duration":0.22490532552080822},{"name":"B2","midi":47,"time":263.6363899999984,"velocity":0.8031496062992126,"duration":0.4521780755208624},{"name":"C#5","midi":73,"time":263.8636627499984,"velocity":0.8031496062992126,"duration":0.22490532552086506},{"name":"B4","midi":71,"time":264.09093549999847,"velocity":0.8031496062992126,"duration":0.22490532552080822},{"name":"E3","midi":52,"time":264.09093549999847,"velocity":0.8031496062992126,"duration":0.4521780755208056},{"name":"G#3","midi":56,"time":264.09093549999847,"velocity":0.8031496062992126,"duration":0.4521780755208056},{"name":"E5","midi":76,"time":264.31820824999846,"velocity":0.8031496062992126,"duration":0.22490532552080822},{"name":"D5","midi":74,"time":264.54548099999846,"velocity":0.8031496062992126,"duration":0.22490532552080822},{"name":"A3","midi":57,"time":264.54548099999846,"velocity":0.8031496062992126,"duration":0.4521780755208056},{"name":"A2","midi":45,"time":264.54548099999846,"velocity":0.8031496062992126,"duration":0.8996213020832897},{"name":"C#5","midi":73,"time":264.77275374999846,"velocity":0.8031496062992126,"duration":0.22490532552080822},{"name":"B4","midi":71,"time":265.00002649999846,"velocity":0.8031496062992126,"duration":0.22490532552080822},{"name":"E3","midi":52,"time":265.00002649999846,"velocity":0.8031496062992126,"duration":0.4521780755208056},{"name":"A4","midi":69,"time":265.22729924999845,"velocity":0.8031496062992126,"duration":0.18939395833331218},{"name":"C#5","midi":73,"time":265.45457199999845,"velocity":0.8031496062992126,"duration":0.4521780755208056},{"name":"A3","midi":57,"time":265.45457199999845,"velocity":0.8031496062992126,"duration":0.4521780755208056},{"name":"F#5","midi":78,"time":265.90911749999844,"velocity":0.8031496062992126,"duration":0.22490532552080822},{"name":"G#3","midi":56,"time":265.90911749999844,"velocity":0.8031496062992126,"duration":0.4521780755208056},{"name":"B3","midi":59,"time":265.90911749999844,"velocity":0.8031496062992126,"duration":0.4521780755208056},{"name":"F5","midi":77,"time":266.13639024999844,"velocity":0.8031496062992126,"duration":0.22490532552080822},{"name":"F#5","midi":78,"time":266.36366299999844,"velocity":0.8031496062992126,"duration":0.22490532552080822},{"name":"A3","midi":57,"time":266.36366299999844,"velocity":0.8031496062992126,"duration":0.4521780755208056},{"name":"C#4","midi":61,"time":266.36366299999844,"velocity":0.8031496062992126,"duration":0.8996213020833466},{"name":"G#5","midi":80,"time":266.59093574999844,"velocity":0.8031496062992126,"duration":0.22490532552080822},{"name":"A5","midi":81,"time":266.81820849999843,"velocity":0.8031496062992126,"duration":0.22490532552080822},{"name":"F#3","midi":54,"time":266.81820849999843,"velocity":0.8031496062992126,"duration":0.4521780755208624},{"name":"G#5","midi":80,"time":267.04548124999843,"velocity":0.8031496062992126,"duration":0.22490532552086506},{"name":"B5","midi":83,"time":267.2727539999985,"velocity":0.8031496062992126,"duration":0.22490532552080822},{"name":"D3","midi":50,"time":267.2727539999985,"velocity":0.8031496062992126,"duration":0.8996213020833466},{"name":"F#3","midi":54,"time":267.2727539999985,"velocity":0.8031496062992126,"duration":0.4521780755208056},{"name":"A5","midi":81,"time":267.5000267499985,"velocity":0.8031496062992126,"duration":0.22490532552080822},{"name":"G#5","midi":80,"time":267.7272994999985,"velocity":0.8031496062992126,"duration":0.22490532552080822},{"name":"B3","midi":59,"time":267.7272994999985,"velocity":0.8031496062992126,"duration":0.8996213020834034},{"name":"F#5","midi":78,"time":267.9545722499985,"velocity":0.8031496062992126,"duration":0.22490532552086506},{"name":"F5","midi":77,"time":268.18184499999853,"velocity":0.8031496062992126,"duration":0.22490532552080822},{"name":"C#3","midi":49,"time":268.18184499999853,"velocity":0.8031496062992126,"duration":0.4521780755208624},{"name":"D#5","midi":75,"time":268.40911774999853,"velocity":0.8031496062992126,"duration":0.22490532552086506},{"name":"F#5","midi":78,"time":268.6363904999986,"velocity":0.8031496062992126,"duration":0.22490532552080822},{"name":"B2","midi":47,"time":268.6363904999986,"velocity":0.8031496062992126,"duration":0.8996213020833466},{"name":"G#3","midi":56,"time":268.6363904999986,"velocity":0.8031496062992126,"duration":0.4521780755208056},{"name":"F5","midi":77,"time":268.8636632499986,"velocity":0.8031496062992126,"duration":0.22490532552080822},{"name":"D#5","midi":75,"time":269.0909359999986,"velocity":0.8031496062992126,"duration":0.22490532552080822},{"name":"F3","midi":53,"time":269.0909359999986,"velocity":0.8031496062992126,"duration":0.4521780755208624},{"name":"C#5","midi":73,"time":269.3182087499986,"velocity":0.8031496062992126,"duration":0.22490532552086506},{"name":"F#5","midi":78,"time":269.54548149999863,"velocity":0.8031496062992126,"duration":0.4521780755208056},{"name":"A2","midi":45,"time":269.54548149999863,"velocity":0.8031496062992126,"duration":0.22490532552080822},{"name":"F#3","midi":54,"time":269.54548149999863,"velocity":0.8031496062992126,"duration":0.8996213020833466},{"name":"B2","midi":47,"time":269.7727542499986,"velocity":0.8031496062992126,"duration":0.22490532552080822},{"name":"B4","midi":71,"time":270.0000269999986,"velocity":0.8031496062992126,"duration":0.22490532552080822},{"name":"C#3","midi":49,"time":270.0000269999986,"velocity":0.8031496062992126,"duration":0.8996213020834034},{"name":"A4","midi":69,"time":270.2272997499986,"velocity":0.8031496062992126,"duration":0.22490532552086506},{"name":"G#4","midi":68,"time":270.4545724999987,"velocity":0.8031496062992126,"duration":0.22490532552080822},{"name":"F3","midi":53,"time":270.4545724999987,"velocity":0.8031496062992126,"duration":0.4521780755208624},{"name":"A4","midi":69,"time":270.6818452499987,"velocity":0.8031496062992126,"duration":0.22490532552086506},{"name":"F#4","midi":66,"time":270.9091179999987,"velocity":0.8031496062992126,"duration":1.361269075520795},{"name":"F#2","midi":42,"time":270.9091179999987,"velocity":0.8031496062992126,"duration":0.4521780755208056},{"name":"F#3","midi":54,"time":271.3636634999987,"velocity":0.8031496062992126,"duration":0.22490532552080822},{"name":"E3","midi":52,"time":271.5909362499987,"velocity":0.8031496062992126,"duration":0.22490532552080822},{"name":"F#3","midi":54,"time":271.8182089999987,"velocity":0.8031496062992126,"duration":0.22490532552080822},{"name":"G#3","midi":56,"time":272.0454817499987,"velocity":0.8031496062992126,"duration":0.22490532552080822},{"name":"A3","midi":57,"time":272.2727544999987,"velocity":0.8031496062992126,"duration":0.22490532552080822},{"name":"F#3","midi":54,"time":272.5000272499987,"velocity":0.8031496062992126,"duration":0.22490532552080822},{"name":"A5","midi":81,"time":272.7272999999987,"velocity":0.8031496062992126,"duration":0.4521780755208056},{"name":"D#3","midi":51,"time":272.7272999999987,"velocity":0.8031496062992126,"duration":0.4521780755208056},{"name":"D#5","midi":75,"time":273.1818454999987,"velocity":0.8031496062992126,"duration":0.22490532552080822},{"name":"F#3","midi":54,"time":273.1818454999987,"velocity":0.8031496062992126,"duration":0.4521780755208056},{"name":"C#5","midi":73,"time":273.4091182499987,"velocity":0.8031496062992126,"duration":0.22490532552080822},{"name":"D#5","midi":75,"time":273.6363909999987,"velocity":0.8031496062992126,"duration":0.22490532552080822},{"name":"B3","midi":59,"time":273.6363909999987,"velocity":0.8031496062992126,"duration":0.4521780755208056},{"name":"E5","midi":76,"time":273.8636637499987,"velocity":0.8031496062992126,"duration":0.22490532552080822},{"name":"F#5","midi":78,"time":274.0909364999987,"velocity":0.8031496062992126,"duration":0.22490532552080822},{"name":"A3","midi":57,"time":274.0909364999987,"velocity":0.8031496062992126,"duration":0.4521780755208056},{"name":"D#5","midi":75,"time":274.3182092499987,"velocity":0.8031496062992126,"duration":0.22490532552080822},{"name":"B5","midi":83,"time":274.5454819999987,"velocity":0.8031496062992126,"duration":0.22490532552080822},{"name":"G3","midi":55,"time":274.5454819999987,"velocity":0.8031496062992126,"duration":0.22490532552080822},{"name":"A5","midi":81,"time":274.7727547499987,"velocity":0.8031496062992126,"duration":0.22490532552080822},{"name":"F#3","midi":54,"time":274.7727547499987,"velocity":0.8031496062992126,"duration":0.22490532552080822},{"name":"G5","midi":79,"time":275.0000274999987,"velocity":0.8031496062992126,"duration":0.22490532552080822},{"name":"E3","midi":52,"time":275.0000274999987,"velocity":0.8031496062992126,"duration":0.22490532552080822},{"name":"A5","midi":81,"time":275.2273002499987,"velocity":0.8031496062992126,"duration":0.22490532552080822},{"name":"F#3","midi":54,"time":275.2273002499987,"velocity":0.8031496062992126,"duration":0.22490532552080822},{"name":"B5","midi":83,"time":275.4545729999987,"velocity":0.8031496062992126,"duration":1.1363637499999868},{"name":"G3","midi":55,"time":275.4545729999987,"velocity":0.8031496062992126,"duration":0.22490532552080822},{"name":"F#3","midi":54,"time":275.6818457499987,"velocity":0.8031496062992126,"duration":0.22490532552080822},{"name":"E3","midi":52,"time":275.90911849999867,"velocity":0.8031496062992126,"duration":0.22490532552080822},{"name":"D3","midi":50,"time":276.13639124999867,"velocity":0.8031496062992126,"duration":0.22490532552080822},{"name":"C#3","midi":49,"time":276.36366399999866,"velocity":0.8031496062992126,"duration":0.4521780755208056},{"name":"C#5","midi":73,"time":276.81820949999866,"velocity":0.8031496062992126,"duration":0.22490532552080822},{"name":"E3","midi":52,"time":276.81820949999866,"velocity":0.8031496062992126,"duration":0.4521780755208056},{"name":"B4","midi":71,"time":277.04548224999866,"velocity":0.8031496062992126,"duration":0.22490532552080822},{"name":"C#5","midi":73,"time":277.27275499999865,"velocity":0.8031496062992126,"duration":0.22490532552080822},{"name":"A3","midi":57,"time":277.27275499999865,"velocity":0.8031496062992126,"duration":0.4521780755208056},{"name":"D5","midi":74,"time":277.50002774999865,"velocity":0.8031496062992126,"duration":0.22490532552080822},{"name":"E5","midi":76,"time":277.72730049999865,"velocity":0.8031496062992126,"duration":0.22490532552080822},{"name":"G3","midi":55,"time":277.72730049999865,"velocity":0.8031496062992126,"duration":0.4521780755208056},{"name":"C#5","midi":73,"time":277.95457324999865,"velocity":0.8031496062992126,"duration":0.22490532552080822},{"name":"A5","midi":81,"time":278.18184599999864,"velocity":0.8031496062992126,"duration":0.22490532552080822},{"name":"F#3","midi":54,"time":278.18184599999864,"velocity":0.8031496062992126,"duration":0.22490532552080822},{"name":"G5","midi":79,"time":278.40911874999864,"velocity":0.8031496062992126,"duration":0.22490532552080822},{"name":"E3","midi":52,"time":278.40911874999864,"velocity":0.8031496062992126,"duration":0.22490532552080822},{"name":"F#5","midi":78,"time":278.63639149999864,"velocity":0.8031496062992126,"duration":0.22490532552080822},{"name":"D3","midi":50,"time":278.63639149999864,"velocity":0.8031496062992126,"duration":0.22490532552080822},{"name":"G5","midi":79,"time":278.86366424999864,"velocity":0.8031496062992126,"duration":0.22490532552080822},{"name":"E3","midi":52,"time":278.86366424999864,"velocity":0.8031496062992126,"duration":0.22490532552080822},{"name":"A5","midi":81,"time":279.09093699999863,"velocity":0.8031496062992126,"duration":1.2310607291666429},{"name":"F#3","midi":54,"time":279.09093699999863,"velocity":0.8031496062992126,"duration":0.22490532552080822},{"name":"E3","midi":52,"time":279.31820974999863,"velocity":0.8031496062992126,"duration":0.22490532552080822},{"name":"D3","midi":50,"time":279.5454824999986,"velocity":0.8031496062992126,"duration":0.22490532552080822},{"name":"C#3","midi":49,"time":279.7727552499986,"velocity":0.8031496062992126,"duration":0.22490532552080822},{"name":"B2","midi":47,"time":280.0000279999986,"velocity":0.8031496062992126,"duration":0.22490532552080822},{"name":"D3","midi":50,"time":280.2273007499986,"velocity":0.8031496062992126,"duration":0.22490532552080822},{"name":"B4","midi":71,"time":280.4545734999986,"velocity":0.8031496062992126,"duration":0.22490532552080822},{"name":"G3","midi":55,"time":280.4545734999986,"velocity":0.8031496062992126,"duration":0.22490532552080822},{"name":"A#4","midi":70,"time":280.6818462499986,"velocity":0.8031496062992126,"duration":0.22490532552080822},{"name":"F#3","midi":54,"time":280.6818462499986,"velocity":0.8031496062992126,"duration":0.22490532552080822},{"name":"B4","midi":71,"time":280.9091189999986,"velocity":0.8031496062992126,"duration":0.42613640625000926},{"name":"E3","midi":52,"time":280.9091189999986,"velocity":0.8031496062992126,"duration":0.22490532552080822},{"name":"D3","midi":50,"time":281.1363917499986,"velocity":0.8031496062992126,"duration":0.22490532552086506},{"name":"G5","midi":79,"time":281.36366449999866,"velocity":0.8031496062992126,"duration":0.42613640625000926},{"name":"C#3","midi":49,"time":281.36366449999866,"velocity":0.8031496062992126,"duration":0.22490532552080822},{"name":"B2","midi":47,"time":281.59093724999866,"velocity":0.8031496062992126,"duration":0.22490532552086506},{"name":"A#4","midi":70,"time":281.8182099999987,"velocity":0.8031496062992126,"duration":0.22490532552080822},{"name":"C#3","midi":49,"time":281.8182099999987,"velocity":0.8031496062992126,"duration":0.22490532552080822},{"name":"B4","midi":71,"time":282.0454827499987,"velocity":0.8031496062992126,"duration":0.22490532552080822},{"name":"D3","midi":50,"time":282.0454827499987,"velocity":0.8031496062992126,"duration":0.22490532552080822},{"name":"C#5","midi":73,"time":282.2727554999987,"velocity":0.8031496062992126,"duration":0.22490532552080822},{"name":"E3","midi":52,"time":282.2727554999987,"velocity":0.8031496062992126,"duration":0.22490532552080822},{"name":"D5","midi":74,"time":282.5000282499987,"velocity":0.8031496062992126,"duration":0.22490532552080822},{"name":"F#3","midi":54,"time":282.5000282499987,"velocity":0.8031496062992126,"duration":0.22490532552080822},{"name":"E5","midi":76,"time":282.7273009999987,"velocity":0.8031496062992126,"duration":0.42613640625000926},{"name":"G#3","midi":56,"time":282.7273009999987,"velocity":0.8031496062992126,"duration":0.22490532552080822},{"name":"A#3","midi":58,"time":282.9545737499987,"velocity":0.8031496062992126,"duration":0.22490532552086506},{"name":"G4","midi":67,"time":283.18184649999876,"velocity":0.8031496062992126,"duration":0.6770834010416706},{"name":"B3","midi":59,"time":283.18184649999876,"velocity":0.8031496062992126,"duration":0.22490532552080822},{"name":"A#3","midi":58,"time":283.40911924999875,"velocity":0.8031496062992126,"duration":0.22490532552080822},{"name":"B3","midi":59,"time":283.63639199999875,"velocity":0.8031496062992126,"duration":0.4521780755208056},{"name":"F#4","midi":66,"time":283.86366474999875,"velocity":0.8031496062992126,"duration":0.22490532552080822},{"name":"E4","midi":64,"time":284.09093749999874,"velocity":0.8031496062992126,"duration":0.22490532552080822},{"name":"A#3","midi":58,"time":284.09093749999874,"velocity":0.8031496062992126,"duration":0.4521780755208056},{"name":"F#4","midi":66,"time":284.31821024999874,"velocity":0.8031496062992126,"duration":0.22490532552080822},{"name":"D5","midi":74,"time":284.54548299999874,"velocity":0.8031496062992126,"duration":0.22490532552080822},{"name":"B3","midi":59,"time":284.54548299999874,"velocity":0.8031496062992126,"duration":0.4521780755208056},{"name":"B4","midi":71,"time":284.77275574999874,"velocity":0.8031496062992126,"duration":0.22490532552080822},{"name":"A#4","midi":70,"time":285.00002849999873,"velocity":0.8031496062992126,"duration":0.22490532552080822},{"name":"G3","midi":55,"time":285.00002849999873,"velocity":0.8031496062992126,"duration":0.4521780755208056},{"name":"B4","midi":71,"time":285.22730124999873,"velocity":0.8031496062992126,"duration":0.22490532552080822},{"name":"E5","midi":76,"time":285.45457399999873,"velocity":0.8031496062992126,"duration":0.22490532552080822},{"name":"F#3","midi":54,"time":285.45457399999873,"velocity":0.8031496062992126,"duration":1.3612690755208519},{"name":"D5","midi":74,"time":285.6818467499987,"velocity":0.8031496062992126,"duration":0.22490532552080822},{"name":"C#5","midi":73,"time":285.9091194999987,"velocity":0.8031496062992126,"duration":0.22490532552080822},{"name":"B3","midi":59,"time":285.9091194999987,"velocity":0.8031496062992126,"duration":0.4521780755208056},{"name":"B4","midi":71,"time":286.1363922499987,"velocity":0.8031496062992126,"duration":0.22490532552080822},{"name":"C#5","midi":73,"time":286.3636649999987,"velocity":0.8031496062992126,"duration":0.40246216145834524},{"name":"A#3","midi":58,"time":286.3636649999987,"velocity":0.8031496062992126,"duration":0.8996213020834034},{"name":"F#4","midi":66,"time":286.81821049999877,"velocity":0.8031496062992126,"duration":0.8925190286458928},{"name":"E3","midi":52,"time":286.81821049999877,"velocity":0.8031496062992126,"duration":0.4521780755208624},{"name":"D3","midi":50,"time":287.2727559999988,"velocity":0.8031496062992126,"duration":1.361269075520795},{"name":"B4","midi":71,"time":287.7273014999988,"velocity":0.8031496062992126,"duration":0.22490532552080822},{"name":"F#3","midi":54,"time":287.7273014999988,"velocity":0.8031496062992126,"duration":0.4521780755208056},{"name":"A#4","midi":70,"time":287.9545742499988,"velocity":0.8031496062992126,"duration":0.22490532552080822},{"name":"B4","midi":71,"time":288.1818469999988,"velocity":0.8031496062992126,"duration":0.22490532552080822},{"name":"B3","midi":59,"time":288.1818469999988,"velocity":0.8031496062992126,"duration":1.361269075520795},{"name":"C#5","midi":73,"time":288.4091197499988,"velocity":0.8031496062992126,"duration":0.22490532552080822},{"name":"D5","midi":74,"time":288.6363924999988,"velocity":0.8031496062992126,"duration":0.22490532552080822},{"name":"B2","midi":47,"time":288.6363924999988,"velocity":0.8031496062992126,"duration":0.4521780755208056},{"name":"B4","midi":71,"time":288.8636652499988,"velocity":0.8031496062992126,"duration":0.22490532552080822},{"name":"G5","midi":79,"time":289.0909379999988,"velocity":0.8031496062992126,"duration":0.4521780755208056},{"name":"C#3","midi":49,"time":289.0909379999988,"velocity":0.8031496062992126,"duration":1.3612690755208519},{"name":"G5","midi":79,"time":289.5454834999988,"velocity":0.8031496062992126,"duration":0.22490532552080822},{"name":"E3","midi":52,"time":289.5454834999988,"velocity":0.8031496062992126,"duration":0.4521780755208056},{"name":"F#5","midi":78,"time":289.7727562499988,"velocity":0.8031496062992126,"duration":0.22490532552080822},{"name":"E5","midi":76,"time":290.0000289999988,"velocity":0.8031496062992126,"duration":0.42613640625000926},{"name":"A#3","midi":58,"time":290.0000289999988,"velocity":0.8031496062992126,"duration":0.4521780755208624},{"name":"D5","midi":74,"time":290.45457449999884,"velocity":0.8031496062992126,"duration":0.42613640625000926},{"name":"D3","midi":50,"time":290.45457449999884,"velocity":0.8031496062992126,"duration":0.4521780755208624},{"name":"B3","midi":59,"time":290.45457449999884,"velocity":0.8031496062992126,"duration":0.4521780755208624},{"name":"C#5","midi":73,"time":290.9091199999989,"velocity":0.8031496062992126,"duration":0.4521780755208056},{"name":"E3","midi":52,"time":290.9091199999989,"velocity":0.8031496062992126,"duration":0.4521780755208056},{"name":"C#4","midi":61,"time":290.9091199999989,"velocity":0.8031496062992126,"duration":0.8996213020833466},{"name":"B4","midi":71,"time":291.3636654999989,"velocity":0.8031496062992126,"duration":0.22490532552080822},{"name":"F#3","midi":54,"time":291.3636654999989,"velocity":0.8031496062992126,"duration":0.4521780755208624},{"name":"A#4","midi":70,"time":291.5909382499989,"velocity":0.8031496062992126,"duration":0.22490532552086506},{"name":"B4","midi":71,"time":291.81821099999894,"velocity":0.8031496062992126,"duration":0.22490532552080822},{"name":"B3","midi":59,"time":291.81821099999894,"velocity":0.8031496062992126,"duration":1.361269075520795},{"name":"G3","midi":55,"time":291.81821099999894,"velocity":0.8031496062992126,"duration":0.4521780755208056},{"name":"C#5","midi":73,"time":292.04548374999894,"velocity":0.8031496062992126,"duration":0.22490532552080822},{"name":"D5","midi":74,"time":292.27275649999893,"velocity":0.8031496062992126,"duration":0.22490532552080822},{"name":"F#3","midi":54,"time":292.27275649999893,"velocity":0.8031496062992126,"duration":0.22490532552080822},{"name":"E5","midi":76,"time":292.50002924999893,"velocity":0.8031496062992126,"duration":0.22490532552080822},{"name":"E3","midi":52,"time":292.50002924999893,"velocity":0.8031496062992126,"duration":0.22490532552080822},{"name":"F#5","midi":78,"time":292.72730199999893,"velocity":0.8031496062992126,"duration":0.22490532552080822},{"name":"D3","midi":50,"time":292.72730199999893,"velocity":0.8031496062992126,"duration":0.4521780755208056},{"name":"E5","midi":76,"time":292.9545747499989,"velocity":0.8031496062992126,"duration":0.22490532552080822},{"name":"D5","midi":74,"time":293.1818474999989,"velocity":0.8031496062992126,"duration":0.22490532552080822},{"name":"A#3","midi":58,"time":293.1818474999989,"velocity":0.8031496062992126,"duration":0.4521780755208056},{"name":"F#3","midi":54,"time":293.1818474999989,"velocity":0.8031496062992126,"duration":0.4521780755208056},{"name":"C#5","midi":73,"time":293.4091202499989,"velocity":0.8031496062992126,"duration":0.22490532552080822},{"name":"E5","midi":76,"time":293.6363929999989,"velocity":0.8031496062992126,"duration":0.22490532552080822},{"name":"B3","midi":59,"time":293.6363929999989,"velocity":0.8031496062992126,"duration":0.4521780755208056},{"name":"D5","midi":74,"time":293.8636657499989,"velocity":0.8031496062992126,"duration":0.22490532552080822},{"name":"C#5","midi":73,"time":294.0909384999989,"velocity":0.8031496062992126,"duration":0.22490532552080822},{"name":"A3","midi":57,"time":294.0909384999989,"velocity":0.8031496062992126,"duration":0.4521780755208056},{"name":"B4","midi":71,"time":294.3182112499989,"velocity":0.8031496062992126,"duration":0.22490532552080822},{"name":"D5","midi":74,"time":294.5454839999989,"velocity":0.8031496062992126,"duration":0.22490532552080822},{"name":"G3","midi":55,"time":294.5454839999989,"velocity":0.8031496062992126,"duration":0.4521780755208056},{"name":"C#5","midi":73,"time":294.7727567499989,"velocity":0.8031496062992126,"duration":0.22490532552080822},{"name":"B4","midi":71,"time":295.0000294999989,"velocity":0.8031496062992126,"duration":0.22490532552080822},{"name":"F#3","midi":54,"time":295.0000294999989,"velocity":0.8031496062992126,"duration":0.4521780755208056},{"name":"A#4","midi":70,"time":295.2273022499989,"velocity":0.8031496062992126,"duration":0.22490532552080822},{"name":"G5","midi":79,"time":295.4545749999989,"velocity":0.8031496062992126,"duration":0.22490532552080822},{"name":"E3","midi":52,"time":295.4545749999989,"velocity":0.8031496062992126,"duration":0.4521780755208056},{"name":"F#5","midi":78,"time":295.6818477499989,"velocity":0.8031496062992126,"duration":0.22490532552080822},{"name":"E5","midi":76,"time":295.9091204999989,"velocity":0.8031496062992126,"duration":0.22490532552080822},{"name":"G3","midi":55,"time":295.9091204999989,"velocity":0.8031496062992126,"duration":0.4521780755208056},{"name":"D#5","midi":75,"time":296.1363932499989,"velocity":0.8031496062992126,"duration":0.22490532552080822},{"name":"C#3","midi":49,"time":296.3636659999989,"velocity":0.8031496062992126,"duration":0.4640151979167513},{"name":"A5","midi":81,"time":296.3636659999989,"velocity":0.8031496062992126,"duration":0.2296401744791865},{"name":"G5","midi":79,"time":296.59567359895726,"velocity":0.8031496062992126,"duration":0.2296401744791865},{"name":"G3","midi":55,"time":296.8300486223948,"velocity":0.8031496062992126,"duration":0.46401519791669443},{"name":"F#5","midi":78,"time":296.8300486223948,"velocity":0.8031496062992126,"duration":0.2296401744791865},{"name":"E5","midi":76,"time":297.06442364583233,"velocity":0.8031496062992126,"duration":0.2296401744791865},{"name":"B5","midi":83,"time":297.29879866926984,"velocity":0.8031496062992126,"duration":0.23437502343750793},{"name":"F#3","midi":54,"time":297.29879866926984,"velocity":0.8031496062992126,"duration":0.47585232031252644},{"name":"A#5","midi":82,"time":297.5379085416657,"velocity":0.8031496062992126,"duration":0.23437502343750793},{"name":"G#5","midi":80,"time":297.7793858385407,"velocity":0.8031496062992126,"duration":0.23437502343750793},{"name":"E3","midi":52,"time":297.7793858385407,"velocity":0.8031496062992126,"duration":0.47585232031252644},{"name":"F#5","midi":78,"time":298.0208631354157,"velocity":0.8031496062992126,"duration":0.23437502343750793},{"name":"E4","midi":64,"time":298.2623404322907,"velocity":0.8031496062992126,"duration":0.23910987239582937},{"name":"B5","midi":83,"time":298.2623404322907,"velocity":0.8031496062992126,"duration":0.49005686718749075},{"name":"D4","midi":62,"time":298.50855257812407,"velocity":0.8031496062992126,"duration":0.23910987239582937},{"name":"C#4","midi":61,"time":298.75713214843654,"velocity":0.8031496062992126,"duration":0.23910987239582937},{"name":"F#5","midi":78,"time":298.75713214843654,"velocity":0.8031496062992126,"duration":0.49005686718749075},{"name":"B3","midi":59,"time":299.005711718749,"velocity":0.8031496062992126,"duration":0.23910987239582937},{"name":"E5","midi":76,"time":299.25429128906154,"velocity":0.8031496062992126,"duration":0.24621214583333995},{"name":"F#4","midi":66,"time":299.25429128906154,"velocity":0.8031496062992126,"duration":0.5042614140625119},{"name":"D5","midi":74,"time":299.5076057083324,"velocity":0.8031496062992126,"duration":0.24621214583333995},{"name":"C#5","midi":73,"time":299.7632875520824,"velocity":0.8031496062992126,"duration":0.24621214583333995},{"name":"F#3","midi":54,"time":299.7632875520824,"velocity":0.8031496062992126,"duration":0.5042614140625119},{"name":"B4","midi":71,"time":300.02133682031155,"velocity":0.8031496062992126,"duration":0.24621214583333995},{"name":"B4","midi":71,"time":300.27701866406153,"velocity":0.8031496062992126,"duration":2.7225381510417037},{"name":"B3","midi":59,"time":300.27701866406153,"velocity":0.8031496062992126,"duration":0.8143940208333902},{"name":"F#4","midi":66,"time":300.5421702057282,"velocity":0.8031496062992126,"duration":1.8868373098958386},{"name":"D4","midi":62,"time":300.8144240208324,"velocity":0.8031496062992126,"duration":1.6169509192708347},{"name":"F#3","midi":54,"time":301.0866778359366,"velocity":0.8031496062992126,"duration":0.29119321093747885},{"name":"B2","midi":47,"time":301.40628014062406,"velocity":0.8031496062992126,"duration":1.609848645833324},{"name":"D5","midi":74,"time":305.45457599999907,"velocity":0.8031496062992126,"duration":0.6628788541666495},{"name":"B2","midi":47,"time":305.45457599999907,"velocity":0.8031496062992126,"duration":0.4545454999999947},{"name":"F#5","midi":78,"time":305.68184874999906,"velocity":0.8031496062992126,"duration":0.22490532552080822},{"name":"B3","midi":59,"time":305.90912149999906,"velocity":0.8031496062992126,"duration":0.42613640625000926},{"name":"B5","midi":83,"time":305.90912149999906,"velocity":0.8031496062992126,"duration":0.22490532552080822},{"name":"F#5","midi":78,"time":306.13639424999906,"velocity":0.8031496062992126,"duration":0.22490532552086506},{"name":"A#3","midi":58,"time":306.3636669999991,"velocity":0.8031496062992126,"duration":0.42613640625000926},{"name":"C#5","midi":73,"time":306.3636669999991,"velocity":0.8031496062992126,"duration":0.22490532552080822},{"name":"F#5","midi":78,"time":306.5909397499991,"velocity":0.8031496062992126,"duration":0.22490532552086506},{"name":"B3","midi":59,"time":306.81821249999916,"velocity":0.8031496062992126,"duration":0.4521780755208056},{"name":"D5","midi":74,"time":306.81821249999916,"velocity":0.8031496062992126,"duration":0.22490532552080822},{"name":"F#5","midi":78,"time":307.04548524999916,"velocity":0.8031496062992126,"duration":0.22490532552080822},{"name":"D4","midi":62,"time":307.27275799999916,"velocity":0.8031496062992126,"duration":0.42613640625000926},{"name":"B4","midi":71,"time":307.27275799999916,"velocity":0.8031496062992126,"duration":0.22490532552080822},{"name":"F#5","midi":78,"time":307.50003074999915,"velocity":0.8031496062992126,"duration":0.22490532552086506},{"name":"F#4","midi":66,"time":307.7273034999992,"velocity":0.8031496062992126,"duration":0.42613640625000926},{"name":"A#4","midi":70,"time":307.7273034999992,"velocity":0.8031496062992126,"duration":0.22490532552080822},{"name":"F#5","midi":78,"time":307.9545762499992,"velocity":0.8031496062992126,"duration":0.22490532552086506},{"name":"D4","midi":62,"time":308.18184899999926,"velocity":0.8031496062992126,"duration":0.4521780755208056},{"name":"B4","midi":71,"time":308.18184899999926,"velocity":0.8031496062992126,"duration":0.6628788541666495},{"name":"F#5","midi":78,"time":308.40912174999926,"velocity":0.8031496062992126,"duration":0.22490532552080822},{"name":"B3","midi":59,"time":308.63639449999926,"velocity":0.8031496062992126,"duration":0.42613640625000926},{"name":"B5","midi":83,"time":308.63639449999926,"velocity":0.8031496062992126,"duration":0.22490532552080822},{"name":"F#5","midi":78,"time":308.86366724999925,"velocity":0.8031496062992126,"duration":0.22490532552086506},{"name":"A#3","midi":58,"time":309.0909399999993,"velocity":0.8031496062992126,"duration":0.42613640625000926},{"name":"C#5","midi":73,"time":309.0909399999993,"velocity":0.8031496062992126,"duration":0.22490532552080822},{"name":"F#5","midi":78,"time":309.3182127499993,"velocity":0.8031496062992126,"duration":0.22490532552086506},{"name":"B3","midi":59,"time":309.54548549999936,"velocity":0.8031496062992126,"duration":0.4521780755208056},{"name":"D5","midi":74,"time":309.54548549999936,"velocity":0.8031496062992126,"duration":0.22490532552080822},{"name":"F#5","midi":78,"time":309.77275824999936,"velocity":0.8031496062992126,"duration":0.22490532552080822},{"name":"D3","midi":50,"time":310.00003099999935,"velocity":0.8031496062992126,"duration":0.42613640625000926},{"name":"B4","midi":71,"time":310.00003099999935,"velocity":0.8031496062992126,"duration":0.22490532552080822},{"name":"F#5","midi":78,"time":310.22730374999935,"velocity":0.8031496062992126,"duration":0.22490532552086506},{"name":"F#3","midi":54,"time":310.4545764999994,"velocity":0.8031496062992126,"duration":0.42613640625000926},{"name":"A#4","midi":70,"time":310.4545764999994,"velocity":0.8031496062992126,"duration":0.22490532552080822},{"name":"F#5","midi":78,"time":310.6818492499994,"velocity":0.8031496062992126,"duration":0.22490532552086506},{"name":"B2","midi":47,"time":310.90912199999946,"velocity":0.8031496062992126,"duration":0.4521780755208624},{"name":"D5","midi":74,"time":310.90912199999946,"velocity":0.8031496062992126,"duration":0.4498106510416733},{"name":"F#5","midi":78,"time":311.13639474999945,"velocity":0.8031496062992126,"duration":0.22490532552086506},{"name":"B3","midi":59,"time":311.3636674999995,"velocity":0.8031496062992126,"duration":0.42613640625000926},{"name":"D5","midi":74,"time":311.3636674999995,"velocity":0.8031496062992126,"duration":0.22490532552080822},{"name":"B4","midi":71,"time":311.5909402499995,"velocity":0.8031496062992126,"duration":0.22490532552086506},{"name":"E3","midi":52,"time":311.81821299999956,"velocity":0.8031496062992126,"duration":0.42613640625000926},{"name":"G5","midi":79,"time":311.81821299999956,"velocity":0.8031496062992126,"duration":0.22490532552080822},{"name":"E5","midi":76,"time":312.04548574999956,"velocity":0.8031496062992126,"duration":0.22490532552086506},{"name":"A2","midi":45,"time":312.2727584999996,"velocity":0.8031496062992126,"duration":0.4521780755208624},{"name":"C#5","midi":73,"time":312.2727584999996,"velocity":0.8031496062992126,"duration":0.4498106510416733},{"name":"E5","midi":76,"time":312.5000312499996,"velocity":0.8031496062992126,"duration":0.22490532552086506},{"name":"A3","midi":57,"time":312.72730399999966,"velocity":0.8031496062992126,"duration":0.42613640625000926},{"name":"C#5","midi":73,"time":312.72730399999966,"velocity":0.8031496062992126,"duration":0.22490532552080822},{"name":"A4","midi":69,"time":312.95457674999966,"velocity":0.8031496062992126,"duration":0.22490532552086506},{"name":"D3","midi":50,"time":313.1818494999997,"velocity":0.8031496062992126,"duration":0.42613640625000926},{"name":"F#5","midi":78,"time":313.1818494999997,"velocity":0.8031496062992126,"duration":0.22490532552080822},{"name":"D5","midi":74,"time":313.4091222499997,"velocity":0.8031496062992126,"duration":0.22490532552086506},{"name":"G2","midi":43,"time":313.63639499999977,"velocity":0.8031496062992126,"duration":0.4521780755208624},{"name":"B4","midi":71,"time":313.63639499999977,"velocity":0.8031496062992126,"duration":0.4498106510416733},{"name":"F#5","midi":78,"time":313.86366774999976,"velocity":0.8031496062992126,"duration":0.22490532552086506},{"name":"G3","midi":55,"time":314.0909404999998,"velocity":0.8031496062992126,"duration":0.42613640625000926},{"name":"E5","midi":76,"time":314.0909404999998,"velocity":0.8031496062992126,"duration":0.22490532552080822},{"name":"D5","midi":74,"time":314.3182132499998,"velocity":0.8031496062992126,"duration":0.22490532552086506},{"name":"E3","midi":52,"time":314.54548599999987,"velocity":0.8031496062992126,"duration":0.42613640625000926},{"name":"C#5","midi":73,"time":314.54548599999987,"velocity":0.8031496062992126,"duration":0.22490532552080822},{"name":"B4","midi":71,"time":314.77275874999987,"velocity":0.8031496062992126,"duration":0.22490532552086506},{"name":"F#3","midi":54,"time":315.0000314999999,"velocity":0.8031496062992126,"duration":0.22490532552080822},{"name":"A#4","midi":70,"time":315.0000314999999,"velocity":0.8031496062992126,"duration":0.26041669270830425},{"name":"G3","midi":55,"time":315.2273042499999,"velocity":0.8031496062992126,"duration":0.22490532552080822},{"name":"F#4","midi":66,"time":315.2273042499999,"velocity":0.8031496062992126,"duration":0.22490532552080822},{"name":"F#3","midi":54,"time":315.4545769999999,"velocity":0.8031496062992126,"duration":0.22490532552080822},{"name":"A#4","midi":70,"time":315.4545769999999,"velocity":0.8031496062992126,"duration":0.22490532552080822},{"name":"E3","midi":52,"time":315.6818497499999,"velocity":0.8031496062992126,"duration":0.2130682031249762},{"name":"C#5","midi":73,"time":315.6818497499999,"velocity":0.8031496062992126,"duration":0.22490532552080822},{"name":"D3","midi":50,"time":315.9091224999999,"velocity":0.8031496062992126,"duration":0.2130682031249762},{"name":"F#5","midi":78,"time":315.9091224999999,"velocity":0.8031496062992126,"duration":0.22490532552080822},{"name":"C#3","midi":49,"time":316.1363952499999,"velocity":0.8031496062992126,"duration":0.2130682031249762},{"name":"E5","midi":76,"time":316.1363952499999,"velocity":0.8031496062992126,"duration":0.22490532552080822},{"name":"B2","midi":47,"time":316.3636679999999,"velocity":0.8031496062992126,"duration":0.4521780755208056},{"name":"D5","midi":74,"time":316.3636679999999,"velocity":0.8031496062992126,"duration":0.6628788541666495},{"name":"F#5","midi":78,"time":316.5909407499999,"velocity":0.8031496062992126,"duration":0.22490532552080822},{"name":"B3","midi":59,"time":316.8182134999999,"velocity":0.8031496062992126,"duration":0.42613640625000926},{"name":"B5","midi":83,"time":316.8182134999999,"velocity":0.8031496062992126,"duration":0.22490532552080822},{"name":"F#5","midi":78,"time":317.0454862499999,"velocity":0.8031496062992126,"duration":0.22490532552086506},{"name":"A#3","midi":58,"time":317.27275899999995,"velocity":0.8031496062992126,"duration":0.42613640625000926},{"name":"C#5","midi":73,"time":317.27275899999995,"velocity":0.8031496062992126,"duration":0.22490532552080822},{"name":"F#5","midi":78,"time":317.50003174999995,"velocity":0.8031496062992126,"duration":0.22490532552086506},{"name":"B3","midi":59,"time":317.7273045,"velocity":0.8031496062992126,"duration":0.4521780755208056},{"name":"D5","midi":74,"time":317.7273045,"velocity":0.8031496062992126,"duration":0.22490532552080822},{"name":"F#5","midi":78,"time":317.95457725,"velocity":0.8031496062992126,"duration":0.22490532552080822},{"name":"D4","midi":62,"time":318.18185,"velocity":0.8031496062992126,"duration":0.42613640625000926},{"name":"B4","midi":71,"time":318.18185,"velocity":0.8031496062992126,"duration":0.22490532552080822},{"name":"F#5","midi":78,"time":318.40912275,"velocity":0.8031496062992126,"duration":0.22490532552086506},{"name":"F#4","midi":66,"time":318.63639550000005,"velocity":0.8031496062992126,"duration":0.42613640625000926},{"name":"A#4","midi":70,"time":318.63639550000005,"velocity":0.8031496062992126,"duration":0.22490532552080822},{"name":"F#5","midi":78,"time":318.86366825000005,"velocity":0.8031496062992126,"duration":0.22490532552086506},{"name":"D4","midi":62,"time":319.0909410000001,"velocity":0.8031496062992126,"duration":0.4521780755208056},{"name":"B4","midi":71,"time":319.0909410000001,"velocity":0.8031496062992126,"duration":0.6628788541666495},{"name":"F#5","midi":78,"time":319.3182137500001,"velocity":0.8031496062992126,"duration":0.22490532552080822},{"name":"B3","midi":59,"time":319.5454865000001,"velocity":0.8031496062992126,"duration":0.42613640625000926},{"name":"B5","midi":83,"time":319.5454865000001,"velocity":0.8031496062992126,"duration":0.22490532552080822},{"name":"F#5","midi":78,"time":319.7727592500001,"velocity":0.8031496062992126,"duration":0.22490532552086506},{"name":"A#3","midi":58,"time":320.00003200000015,"velocity":0.8031496062992126,"duration":0.42613640625000926},{"name":"C#5","midi":73,"time":320.00003200000015,"velocity":0.8031496062992126,"duration":0.22490532552080822},{"name":"F#5","midi":78,"time":320.22730475000014,"velocity":0.8031496062992126,"duration":0.22490532552086506},{"name":"B3","midi":59,"time":320.4545775000002,"velocity":0.8031496062992126,"duration":0.4521780755208056},{"name":"D5","midi":74,"time":320.4545775000002,"velocity":0.8031496062992126,"duration":0.22490532552080822},{"name":"F#5","midi":78,"time":320.6818502500002,"velocity":0.8031496062992126,"duration":0.22490532552080822},{"name":"D3","midi":50,"time":320.9091230000002,"velocity":0.8031496062992126,"duration":0.42613640625000926},{"name":"B4","midi":71,"time":320.9091230000002,"velocity":0.8031496062992126,"duration":0.22490532552080822},{"name":"F#5","midi":78,"time":321.1363957500002,"velocity":0.8031496062992126,"duration":0.22490532552086506},{"name":"F#3","midi":54,"time":321.36366850000024,"velocity":0.8031496062992126,"duration":0.42613640625000926},{"name":"A#4","midi":70,"time":321.36366850000024,"velocity":0.8031496062992126,"duration":0.22490532552080822},{"name":"F#5","midi":78,"time":321.59094125000024,"velocity":0.8031496062992126,"duration":0.22490532552086506},{"name":"B2","midi":47,"time":321.8182140000003,"velocity":0.8031496062992126,"duration":0.4521780755208624},{"name":"D5","midi":74,"time":321.8182140000003,"velocity":0.8031496062992126,"duration":0.4498106510416733},{"name":"F#5","midi":78,"time":322.0454867500003,"velocity":0.8031496062992126,"duration":0.22490532552086506},{"name":"B3","midi":59,"time":322.27275950000035,"velocity":0.8031496062992126,"duration":0.42613640625000926},{"name":"D5","midi":74,"time":322.27275950000035,"velocity":0.8031496062992126,"duration":0.22490532552080822},{"name":"B4","midi":71,"time":322.50003225000034,"velocity":0.8031496062992126,"duration":0.22490532552086506},{"name":"E3","midi":52,"time":322.7273050000004,"velocity":0.8031496062992126,"duration":0.42613640625000926},{"name":"G5","midi":79,"time":322.7273050000004,"velocity":0.8031496062992126,"duration":0.22490532552080822},{"name":"E5","midi":76,"time":322.9545777500004,"velocity":0.8031496062992126,"duration":0.22490532552086506},{"name":"A2","midi":45,"time":323.18185050000045,"velocity":0.8031496062992126,"duration":0.4521780755208624},{"name":"C#5","midi":73,"time":323.18185050000045,"velocity":0.8031496062992126,"duration":0.4498106510416733},{"name":"E5","midi":76,"time":323.40912325000045,"velocity":0.8031496062992126,"duration":0.22490532552086506},{"name":"A3","midi":57,"time":323.6363960000005,"velocity":0.8031496062992126,"duration":0.42613640625000926},{"name":"C#5","midi":73,"time":323.6363960000005,"velocity":0.8031496062992126,"duration":0.22490532552080822},{"name":"A4","midi":69,"time":323.8636687500005,"velocity":0.8031496062992126,"duration":0.22490532552086506},{"name":"C#3","midi":49,"time":324.09094150000055,"velocity":0.8031496062992126,"duration":0.42613640625000926},{"name":"A5","midi":81,"time":324.09094150000055,"velocity":0.8031496062992126,"duration":0.22490532552080822},{"name":"E5","midi":76,"time":324.31821425000055,"velocity":0.8031496062992126,"duration":0.22490532552086506},{"name":"D3","midi":50,"time":324.5454870000006,"velocity":0.8031496062992126,"duration":0.4521780755208624},{"name":"F#5","midi":78,"time":324.5454870000006,"velocity":0.8031496062992126,"duration":0.4498106510416733},{"name":"A5","midi":81,"time":324.7727597500006,"velocity":0.8031496062992126,"duration":0.22490532552086506},{"name":"F#3","midi":54,"time":325.00003250000066,"velocity":0.8031496062992126,"duration":0.42613640625000926},{"name":"F#5","midi":78,"time":325.00003250000066,"velocity":0.8031496062992126,"duration":0.22490532552080822},{"name":"D5","midi":74,"time":325.22730525000065,"velocity":0.8031496062992126,"duration":0.22490532552086506},{"name":"A3","midi":57,"time":325.4545780000007,"velocity":0.8031496062992126,"duration":0.42613640625000926},{"name":"A4","midi":69,"time":325.4545780000007,"velocity":0.8031496062992126,"duration":0.22490532552080822},{"name":"C#5","midi":73,"time":325.6818507500007,"velocity":0.8031496062992126,"duration":0.22490532552086506},{"name":"D3","midi":50,"time":325.90912350000076,"velocity":0.8031496062992126,"duration":0.4521780755208056},{"name":"D5","midi":74,"time":325.90912350000076,"velocity":0.8031496062992126,"duration":0.8996213020833466},{"name":"A2","midi":45,"time":326.36366900000075,"velocity":0.8031496062992126,"duration":0.42613640625000926},{"name":"D2","midi":38,"time":326.81821450000075,"velocity":0.8031496062992126,"duration":0.42613640625000926},{"name":"F#3","midi":54,"time":327.27276000000074,"velocity":0.8031496062992126,"duration":0.4498106510416733},{"name":"A5","midi":81,"time":327.27276000000074,"velocity":0.8031496062992126,"duration":0.22490532552080822},{"name":"A3","midi":57,"time":327.50003275000074,"velocity":0.8031496062992126,"duration":0.22490532552086506},{"name":"G5","midi":79,"time":327.50003275000074,"velocity":0.8031496062992126,"duration":0.22490532552086506},{"name":"D4","midi":62,"time":327.7273055000008,"velocity":0.8031496062992126,"duration":0.22490532552080822},{"name":"F#5","midi":78,"time":327.7273055000008,"velocity":0.8031496062992126,"duration":0.22490532552080822},{"name":"A3","midi":57,"time":327.9545782500008,"velocity":0.8031496062992126,"duration":0.22490532552080822},{"name":"E5","midi":76,"time":327.9545782500008,"velocity":0.8031496062992126,"duration":0.22490532552080822},{"name":"E3","midi":52,"time":328.1818510000008,"velocity":0.8031496062992126,"duration":0.22490532552080822},{"name":"D5","midi":74,"time":328.1818510000008,"velocity":0.8031496062992126,"duration":0.22490532552080822},{"name":"A3","midi":57,"time":328.4091237500008,"velocity":0.8031496062992126,"duration":0.22490532552080822},{"name":"C#5","midi":73,"time":328.4091237500008,"velocity":0.8031496062992126,"duration":0.22490532552080822},{"name":"F#3","midi":54,"time":328.6363965000008,"velocity":0.8031496062992126,"duration":0.22490532552080822},{"name":"D5","midi":74,"time":328.6363965000008,"velocity":0.8031496062992126,"duration":0.22490532552080822},{"name":"A3","midi":57,"time":328.8636692500008,"velocity":0.8031496062992126,"duration":0.22490532552080822},{"name":"E5","midi":76,"time":328.8636692500008,"velocity":0.8031496062992126,"duration":0.22490532552080822},{"name":"D3","midi":50,"time":329.0909420000008,"velocity":0.8031496062992126,"duration":0.22490532552080822},{"name":"F#5","midi":78,"time":329.0909420000008,"velocity":0.8031496062992126,"duration":0.22490532552080822},{"name":"A3","midi":57,"time":329.3182147500008,"velocity":0.8031496062992126,"duration":0.22490532552080822},{"name":"D5","midi":74,"time":329.3182147500008,"velocity":0.8031496062992126,"duration":0.22490532552080822},{"name":"C#3","midi":49,"time":329.5454875000008,"velocity":0.8031496062992126,"duration":0.22490532552080822},{"name":"E5","midi":76,"time":329.5454875000008,"velocity":0.8031496062992126,"duration":0.22490532552080822},{"name":"A3","midi":57,"time":329.7727602500008,"velocity":0.8031496062992126,"duration":0.22490532552080822},{"name":"G5","midi":79,"time":329.7727602500008,"velocity":0.8031496062992126,"duration":0.22490532552080822},{"name":"D3","midi":50,"time":330.00003300000077,"velocity":0.8031496062992126,"duration":0.4498106510416733},{"name":"F#5","midi":78,"time":330.00003300000077,"velocity":0.8031496062992126,"duration":0.22490532552080822},{"name":"A3","midi":57,"time":330.22730575000077,"velocity":0.8031496062992126,"duration":0.22490532552086506},{"name":"G5","midi":79,"time":330.22730575000077,"velocity":0.8031496062992126,"duration":0.22490532552086506},{"name":"D4","midi":62,"time":330.4545785000008,"velocity":0.8031496062992126,"duration":0.22490532552080822},{"name":"A5","midi":81,"time":330.4545785000008,"velocity":0.8031496062992126,"duration":0.33143942708335317},{"name":"A3","midi":57,"time":330.6818512500008,"velocity":0.8031496062992126,"duration":0.22490532552086506},{"name":"E3","midi":52,"time":330.9091240000009,"velocity":0.8031496062992126,"duration":0.22490532552080822},{"name":"C#5","midi":73,"time":330.9091240000009,"velocity":0.8031496062992126,"duration":0.33143942708335317},{"name":"A3","midi":57,"time":331.13639675000087,"velocity":0.8031496062992126,"duration":0.22490532552086506},{"name":"F#3","midi":54,"time":331.3636695000009,"velocity":0.8031496062992126,"duration":0.22490532552080822},{"name":"D5","midi":74,"time":331.3636695000009,"velocity":0.8031496062992126,"duration":0.22490532552080822},{"name":"A3","midi":57,"time":331.5909422500009,"velocity":0.8031496062992126,"duration":0.22490532552080822},{"name":"E5","midi":76,"time":331.5909422500009,"velocity":0.8031496062992126,"duration":0.22490532552080822},{"name":"D3","midi":50,"time":331.8182150000009,"velocity":0.8031496062992126,"duration":0.22490532552080822},{"name":"F#5","midi":78,"time":331.8182150000009,"velocity":0.8031496062992126,"duration":0.3787879166666812},{"name":"A3","midi":57,"time":332.0454877500009,"velocity":0.8031496062992126,"duration":0.22490532552086506},{"name":"C#3","midi":49,"time":332.27276050000097,"velocity":0.8031496062992126,"duration":0.22490532552080822},{"name":"E5","midi":76,"time":332.27276050000097,"velocity":0.8031496062992126,"duration":0.3787879166666812},{"name":"A3","midi":57,"time":332.50003325000097,"velocity":0.8031496062992126,"duration":0.22490532552086506},{"name":"D3","midi":50,"time":332.727306000001,"velocity":0.8031496062992126,"duration":0.33143942708335317},{"name":"F#5","midi":78,"time":332.727306000001,"velocity":0.8031496062992126,"duration":0.4521780755208624},{"name":"F#3","midi":54,"time":332.954578750001,"velocity":0.8031496062992126,"duration":0.22490532552086506},{"name":"D3","midi":50,"time":333.1818515000011,"velocity":0.8031496062992126,"duration":0.22490532552080822},{"name":"B5","midi":83,"time":333.1818515000011,"velocity":0.8031496062992126,"duration":0.33143942708335317},{"name":"B2","midi":47,"time":333.40912425000107,"velocity":0.8031496062992126,"duration":0.22490532552086506},{"name":"B3","midi":59,"time":333.6363970000011,"velocity":0.8031496062992126,"duration":0.22490532552080822},{"name":"G#5","midi":80,"time":333.6363970000011,"velocity":0.8031496062992126,"duration":0.33143942708335317},{"name":"G#3","midi":56,"time":333.8636697500011,"velocity":0.8031496062992126,"duration":0.22490532552086506},{"name":"F3","midi":53,"time":334.0909425000012,"velocity":0.8031496062992126,"duration":0.33143942708335317},{"name":"B4","midi":71,"time":334.0909425000012,"velocity":0.8031496062992126,"duration":0.22490532552080822},{"name":"G#3","midi":56,"time":334.3182152500012,"velocity":0.8031496062992126,"duration":0.22490532552086506},{"name":"C#5","midi":73,"time":334.3182152500012,"velocity":0.8031496062992126,"duration":0.22490532552086506},{"name":"C#3","midi":49,"time":334.5454880000012,"velocity":0.8031496062992126,"duration":0.22490532552080822},{"name":"D5","midi":74,"time":334.5454880000012,"velocity":0.8031496062992126,"duration":0.33143942708335317},{"name":"G#3","midi":56,"time":334.7727607500012,"velocity":0.8031496062992126,"duration":0.22490532552086506},{"name":"F3","midi":53,"time":335.0000335000013,"velocity":0.8031496062992126,"duration":0.22490532552080822},{"name":"C#5","midi":73,"time":335.0000335000013,"velocity":0.8031496062992126,"duration":0.33143942708335317},{"name":"G#3","midi":56,"time":335.2273062500013,"velocity":0.8031496062992126,"duration":0.22490532552086506},{"name":"F#3","midi":54,"time":335.45457900000133,"velocity":0.8031496062992126,"duration":0.4521780755208056},{"name":"B4","midi":71,"time":335.45457900000133,"velocity":0.8031496062992126,"duration":0.22490532552080822},{"name":"A4","midi":69,"time":335.68185175000133,"velocity":0.8031496062992126,"duration":0.22490532552080822},{"name":"C#4","midi":61,"time":335.9091245000013,"velocity":0.8031496062992126,"duration":0.42613640625000926},{"name":"G#4","midi":68,"time":335.9091245000013,"velocity":0.8031496062992126,"duration":0.22490532552080822},{"name":"F#4","midi":66,"time":336.1363972500013,"velocity":0.8031496062992126,"duration":0.22490532552086506},{"name":"C#3","midi":49,"time":336.3636700000014,"velocity":0.8031496062992126,"duration":0.42613640625000926},{"name":"G#4","midi":68,"time":336.3636700000014,"velocity":0.8031496062992126,"duration":0.22490532552080822},{"name":"F4","midi":65,"time":336.5909427500014,"velocity":0.8031496062992126,"duration":0.22490532552086506},{"name":"F#3","midi":54,"time":336.81821550000143,"velocity":0.8031496062992126,"duration":0.33143942708335317},{"name":"F#4","midi":66,"time":336.81821550000143,"velocity":0.8031496062992126,"duration":0.8996213020834034},{"name":"A3","midi":57,"time":337.0454882500014,"velocity":0.8031496062992126,"duration":0.22490532552086506},{"name":"C#4","midi":61,"time":337.2727610000015,"velocity":0.8031496062992126,"duration":0.22490532552080822},{"name":"A3","midi":57,"time":337.5000337500015,"velocity":0.8031496062992126,"duration":0.22490532552086506},{"name":"E3","midi":52,"time":337.72730650000153,"velocity":0.8031496062992126,"duration":0.22490532552080822},{"name":"A3","midi":57,"time":337.95457925000153,"velocity":0.8031496062992126,"duration":0.22490532552080822},{"name":"D#3","midi":51,"time":338.1818520000015,"velocity":0.8031496062992126,"duration":0.22490532552080822},{"name":"A4","midi":69,"time":338.1818520000015,"velocity":0.8031496062992126,"duration":0.6794508255208029},{"name":"F#3","midi":54,"time":338.4091247500015,"velocity":0.8031496062992126,"duration":0.22490532552080822},{"name":"B2","midi":47,"time":338.6363975000015,"velocity":0.8031496062992126,"duration":0.22490532552080822},{"name":"F#3","midi":54,"time":338.8636702500015,"velocity":0.8031496062992126,"duration":0.22490532552080822},{"name":"B4","midi":71,"time":338.8636702500015,"velocity":0.8031496062992126,"duration":0.11126895052080954},{"name":"C5","midi":72,"time":338.9773066250015,"velocity":0.8031496062992126,"duration":0.11126895052080954},{"name":"D#3","midi":51,"time":339.0909430000015,"velocity":0.8031496062992126,"duration":0.22490532552080822},{"name":"B4","midi":71,"time":339.0909430000015,"velocity":0.8031496062992126,"duration":0.33143942708335317},{"name":"F#3","midi":54,"time":339.3182157500015,"velocity":0.8031496062992126,"duration":0.22490532552086506},{"name":"E3","midi":52,"time":339.54548850000157,"velocity":0.8031496062992126,"duration":0.4521780755208056},{"name":"A4","midi":69,"time":339.54548850000157,"velocity":0.8031496062992126,"duration":0.22490532552080822},{"name":"G4","midi":67,"time":339.77276125000157,"velocity":0.8031496062992126,"duration":0.22490532552080822},{"name":"B2","midi":47,"time":340.00003400000156,"velocity":0.8031496062992126,"duration":0.42613640625000926},{"name":"A4","midi":69,"time":340.00003400000156,"velocity":0.8031496062992126,"duration":0.22490532552080822},{"name":"F#4","midi":66,"time":340.22730675000156,"velocity":0.8031496062992126,"duration":0.22490532552086506},{"name":"E2","midi":40,"time":340.4545795000016,"velocity":0.8031496062992126,"duration":0.42613640625000926},{"name":"G4","midi":67,"time":340.4545795000016,"velocity":0.8031496062992126,"duration":0.22490532552080822},{"name":"E4","midi":64,"time":340.6818522500016,"velocity":0.8031496062992126,"duration":0.22490532552086506},{"name":"F3","midi":53,"time":340.90912500000167,"velocity":0.8031496062992126,"duration":0.22490532552080822},{"name":"B4","midi":71,"time":340.90912500000167,"velocity":0.8031496062992126,"duration":0.6794508255208029},{"name":"G#3","midi":56,"time":341.13639775000166,"velocity":0.8031496062992126,"duration":0.22490532552080822},{"name":"C#3","midi":49,"time":341.36367050000166,"velocity":0.8031496062992126,"duration":0.22490532552080822},{"name":"G#3","midi":56,"time":341.59094325000166,"velocity":0.8031496062992126,"duration":0.22490532552080822},{"name":"C#5","midi":73,"time":341.59094325000166,"velocity":0.8031496062992126,"duration":0.11126895052080954},{"name":"D5","midi":74,"time":341.70457962500166,"velocity":0.8031496062992126,"duration":0.11126895052080954},{"name":"F3","midi":53,"time":341.81821600000166,"velocity":0.8031496062992126,"duration":0.22490532552080822},{"name":"C#5","midi":73,"time":341.81821600000166,"velocity":0.8031496062992126,"duration":0.33143942708335317},{"name":"G#3","midi":56,"time":342.04548875000165,"velocity":0.8031496062992126,"duration":0.22490532552086506},{"name":"F#3","midi":54,"time":342.2727615000017,"velocity":0.8031496062992126,"duration":0.4521780755208056},{"name":"B4","midi":71,"time":342.2727615000017,"velocity":0.8031496062992126,"duration":0.22490532552080822},{"name":"A#4","midi":70,"time":342.5000342500017,"velocity":0.8031496062992126,"duration":0.22490532552080822},{"name":"C#3","midi":49,"time":342.7273070000017,"velocity":0.8031496062992126,"duration":0.42613640625000926},{"name":"B4","midi":71,"time":342.7273070000017,"velocity":0.8031496062992126,"duration":0.22490532552080822},{"name":"G#4","midi":68,"time":342.9545797500017,"velocity":0.8031496062992126,"duration":0.22490532552086506},{"name":"F#2","midi":42,"time":343.18185250000175,"velocity":0.8031496062992126,"duration":0.42613640625000926},{"name":"A#4","midi":70,"time":343.18185250000175,"velocity":0.8031496062992126,"duration":0.22490532552080822},{"name":"F#4","midi":66,"time":343.40912525000175,"velocity":0.8031496062992126,"duration":0.22490532552086506},{"name":"F#3","midi":54,"time":343.6363980000018,"velocity":0.8031496062992126,"duration":0.4521780755208056},{"name":"C#5","midi":73,"time":343.6363980000018,"velocity":0.8031496062992126,"duration":0.6628788541666495},{"name":"A#4","midi":70,"time":343.8636707500018,"velocity":0.8031496062992126,"duration":0.22490532552080822},{"name":"C#3","midi":49,"time":344.0909435000018,"velocity":0.8031496062992126,"duration":0.42613640625000926},{"name":"F#4","midi":66,"time":344.0909435000018,"velocity":0.8031496062992126,"duration":0.22490532552080822},{"name":"A#4","midi":70,"time":344.3182162500018,"velocity":0.8031496062992126,"duration":0.22490532552086506},{"name":"A#2","midi":46,"time":344.54548900000185,"velocity":0.8031496062992126,"duration":0.42613640625000926},{"name":"C#5","midi":73,"time":344.54548900000185,"velocity":0.8031496062992126,"duration":0.22490532552080822},{"name":"E5","midi":76,"time":344.77276175000185,"velocity":0.8031496062992126,"duration":0.22490532552086506},{"name":"F#2","midi":42,"time":345.0000345000019,"velocity":0.8031496062992126,"duration":0.4521780755208056},{"name":"G5","midi":79,"time":345.0000345000019,"velocity":0.8031496062992126,"duration":0.26041669270830425},{"name":"C#5","midi":73,"time":345.2273072500019,"velocity":0.8031496062992126,"duration":0.22490532552080822},{"name":"G#2","midi":44,"time":345.4545800000019,"velocity":0.8031496062992126,"duration":0.4261364062499524},{"name":"F#5","midi":78,"time":345.4545800000019,"velocity":0.8031496062992126,"duration":0.26041669270830425},{"name":"C#5","midi":73,"time":345.6818527500019,"velocity":0.8031496062992126,"duration":0.22490532552080822},{"name":"A#2","midi":46,"time":345.9091255000019,"velocity":0.8031496062992126,"duration":0.42613640625000926},{"name":"E5","midi":76,"time":345.9091255000019,"velocity":0.8031496062992126,"duration":0.22490532552080822},{"name":"C#5","midi":73,"time":346.1363982500019,"velocity":0.8031496062992126,"duration":0.22490532552086506},{"name":"B2","midi":47,"time":346.36367100000194,"velocity":0.8031496062992126,"duration":0.4521780755208056},{"name":"D5","midi":74,"time":346.36367100000194,"velocity":0.8031496062992126,"duration":0.6628788541666495},{"name":"C#5","midi":73,"time":346.59094375000194,"velocity":0.8031496062992126,"duration":0.22490532552080822},{"name":"F#3","midi":54,"time":346.81821650000194,"velocity":0.8031496062992126,"duration":0.42613640625000926},{"name":"B4","midi":71,"time":346.81821650000194,"velocity":0.8031496062992126,"duration":0.22490532552080822},{"name":"D5","midi":74,"time":347.04548925000194,"velocity":0.8031496062992126,"duration":0.22490532552086506},{"name":"B3","midi":59,"time":347.272762000002,"velocity":0.8031496062992126,"duration":0.42613640625000926},{"name":"F#5","midi":78,"time":347.272762000002,"velocity":0.8031496062992126,"duration":0.22490532552080822},{"name":"B5","midi":83,"time":347.500034750002,"velocity":0.8031496062992126,"duration":0.22490532552086506},{"name":"D4","midi":62,"time":347.72730750000204,"velocity":0.8031496062992126,"duration":0.4521780755208056},{"name":"F#5","midi":78,"time":347.72730750000204,"velocity":0.8031496062992126,"duration":0.26041669270830425},{"name":"B4","midi":71,"time":347.95458025000204,"velocity":0.8031496062992126,"duration":0.22490532552080822},{"name":"C#4","midi":61,"time":348.18185300000204,"velocity":0.8031496062992126,"duration":0.4261364062499524},{"name":"E5","midi":76,"time":348.18185300000204,"velocity":0.8031496062992126,"duration":0.26041669270830425},{"name":"B4","midi":71,"time":348.40912575000203,"velocity":0.8031496062992126,"duration":0.22490532552080822},{"name":"B3","midi":59,"time":348.63639850000203,"velocity":0.8031496062992126,"duration":0.42613640625000926},{"name":"D5","midi":74,"time":348.63639850000203,"velocity":0.8031496062992126,"duration":0.22490532552080822},{"name":"B4","midi":71,"time":348.863671250002,"velocity":0.8031496062992126,"duration":0.22490532552086506},{"name":"E3","midi":52,"time":349.0909440000021,"velocity":0.8031496062992126,"duration":0.4521780755208624},{"name":"C#5","midi":73,"time":349.0909440000021,"velocity":0.8031496062992126,"duration":0.2840909375000251},{"name":"B4","midi":71,"time":349.3182167500021,"velocity":0.8031496062992126,"duration":0.22490532552086506},{"name":"F#3","midi":54,"time":349.54548950000213,"velocity":0.8031496062992126,"duration":0.4261364062499524},{"name":"D5","midi":74,"time":349.54548950000213,"velocity":0.8031496062992126,"duration":0.26041669270830425},{"name":"B4","midi":71,"time":349.77276225000213,"velocity":0.8031496062992126,"duration":0.22490532552080822},{"name":"G3","midi":55,"time":350.00003500000213,"velocity":0.8031496062992126,"duration":0.42613640625000926},{"name":"E5","midi":76,"time":350.00003500000213,"velocity":0.8031496062992126,"duration":0.22490532552080822},{"name":"B4","midi":71,"time":350.2273077500021,"velocity":0.8031496062992126,"duration":0.22490532552086506},{"name":"D3","midi":50,"time":350.4545805000022,"velocity":0.8031496062992126,"duration":0.4521780755208624},{"name":"F#5","midi":78,"time":350.4545805000022,"velocity":0.8031496062992126,"duration":0.2840909375000251},{"name":"B4","midi":71,"time":350.6818532500022,"velocity":0.8031496062992126,"duration":0.22490532552086506},{"name":"E3","midi":52,"time":350.90912600000223,"velocity":0.8031496062992126,"duration":0.4261364062499524},{"name":"G5","midi":79,"time":350.90912600000223,"velocity":0.8031496062992126,"duration":0.26041669270830425},{"name":"B4","midi":71,"time":351.13639875000223,"velocity":0.8031496062992126,"duration":0.22490532552080822},{"name":"C#3","midi":49,"time":351.3636715000022,"velocity":0.8031496062992126,"duration":0.42613640625000926},{"name":"E5","midi":76,"time":351.3636715000022,"velocity":0.8031496062992126,"duration":0.22490532552080822},{"name":"B4","midi":71,"time":351.5909442500022,"velocity":0.8031496062992126,"duration":0.22490532552086506},{"name":"D3","midi":50,"time":351.8182170000023,"velocity":0.8031496062992126,"duration":0.4521780755208056},{"name":"F#5","midi":78,"time":351.8182170000023,"velocity":0.8031496062992126,"duration":0.4521780755208056},{"name":"E3","midi":52,"time":352.2727625000023,"velocity":0.8031496062992126,"duration":0.42613640625000926},{"name":"E5","midi":76,"time":352.2727625000023,"velocity":0.8031496062992126,"duration":0.22490532552080822},{"name":"D5","midi":74,"time":352.50003525000227,"velocity":0.8031496062992126,"duration":0.22490532552086506},{"name":"F#3","midi":54,"time":352.7273080000023,"velocity":0.8031496062992126,"duration":0.42613640625000926},{"name":"C#5","midi":73,"time":352.7273080000023,"velocity":0.8031496062992126,"duration":0.22490532552080822},{"name":"D5","midi":74,"time":352.9545807500023,"velocity":0.8031496062992126,"duration":0.22490532552086506},{"name":"B3","midi":59,"time":353.1818535000024,"velocity":0.8031496062992126,"duration":0.4521780755208056},{"name":"B4","midi":71,"time":353.1818535000024,"velocity":0.8031496062992126,"duration":0.8996213020833466},{"name":"F#3","midi":54,"time":353.63639900000237,"velocity":0.8031496062992126,"duration":0.42613640625000926},{"name":"B2","midi":47,"time":354.09094450000237,"velocity":0.8031496062992126,"duration":0.42613640625000926},{"name":"B3","midi":59,"time":354.54549000000236,"velocity":0.8031496062992126,"duration":1.3612690755209087},{"name":"D4","midi":62,"time":354.54549000000236,"velocity":0.8031496062992126,"duration":0.4498106510416733},{"name":"F#4","midi":66,"time":354.54549000000236,"velocity":0.8031496062992126,"duration":0.22490532552080822},{"name":"G4","midi":67,"time":354.77276275000236,"velocity":0.8031496062992126,"duration":0.22490532552086506},{"name":"A4","midi":69,"time":355.0000355000024,"velocity":0.8031496062992126,"duration":0.4521780755208056},{"name":"D#4","midi":63,"time":355.0000355000024,"velocity":0.8031496062992126,"duration":0.4521780755208056},{"name":"G4","midi":67,"time":355.4545810000024,"velocity":0.8031496062992126,"duration":0.42613640625000926},{"name":"E4","midi":64,"time":355.4545810000024,"velocity":0.8031496062992126,"duration":0.4521780755208624},{"name":"D#3","midi":51,"time":355.90912650000246,"velocity":0.8031496062992126,"duration":1.3612690755208519},{"name":"A4","midi":69,"time":355.90912650000246,"velocity":0.8031496062992126,"duration":0.11126895052080954},{"name":"F#4","midi":66,"time":355.90912650000246,"velocity":0.8031496062992126,"duration":1.3612690755208519},{"name":"B4","midi":71,"time":356.02276287500246,"velocity":0.8031496062992126,"duration":0.11126895052080954},{"name":"C5","midi":72,"time":356.13639925000246,"velocity":0.8031496062992126,"duration":0.22490532552080822},{"name":"B4","midi":71,"time":356.36367200000245,"velocity":0.8031496062992126,"duration":0.4521780755208056},{"name":"A4","midi":69,"time":356.81821750000245,"velocity":0.8031496062992126,"duration":0.42613640625000926},{"name":"E3","midi":52,"time":357.2727630000025,"velocity":0.8031496062992126,"duration":0.4521780755208056},{"name":"G4","midi":67,"time":357.2727630000025,"velocity":0.8031496062992126,"duration":0.4521780755208056},{"name":"E4","midi":64,"time":357.2727630000025,"velocity":0.8031496062992126,"duration":0.8996213020833466},{"name":"A2","midi":45,"time":357.7273085000025,"velocity":0.8031496062992126,"duration":0.42613640625000926},{"name":"B4","midi":71,"time":357.7273085000025,"velocity":0.8031496062992126,"duration":0.22490532552080822},{"name":"A4","midi":69,"time":357.9545812500025,"velocity":0.8031496062992126,"duration":0.22490532552086506},{"name":"B2","midi":47,"time":358.18185400000255,"velocity":0.8031496062992126,"duration":0.42613640625000926},{"name":"D#4","midi":63,"time":358.18185400000255,"velocity":0.8031496062992126,"duration":0.4498106510416733},{"name":"G4","midi":67,"time":358.18185400000255,"velocity":0.8031496062992126,"duration":0.22490532552080822},{"name":"F#4","midi":66,"time":358.40912675000254,"velocity":0.8031496062992126,"duration":0.22490532552086506},{"name":"E2","midi":40,"time":358.6363995000026,"velocity":0.8031496062992126,"duration":0.4521780755208056},{"name":"A4","midi":69,"time":358.6363995000026,"velocity":0.8031496062992126,"duration":0.22490532552080822},{"name":"E4","midi":64,"time":358.6363995000026,"velocity":0.8031496062992126,"duration":0.8996213020833466},{"name":"G4","midi":67,"time":358.8636722500026,"velocity":0.8031496062992126,"duration":0.22490532552080822},{"name":"B2","midi":47,"time":359.0909450000026,"velocity":0.8031496062992126,"duration":0.42613640625000926},{"name":"F#4","midi":66,"time":359.0909450000026,"velocity":0.8031496062992126,"duration":0.22490532552080822},{"name":"G4","midi":67,"time":359.3182177500026,"velocity":0.8031496062992126,"duration":0.22490532552086506},{"name":"E3","midi":52,"time":359.54549050000264,"velocity":0.8031496062992126,"duration":0.42613640625000926},{"name":"E4","midi":64,"time":359.54549050000264,"velocity":0.8031496062992126,"duration":0.4498106510416733},{"name":"G4","midi":67,"time":359.77276325000264,"velocity":0.8031496062992126,"duration":0.21306820312503305},{"name":"G3","midi":55,"time":360.00003600000264,"velocity":0.8031496062992126,"duration":1.361269075520795},{"name":"A#4","midi":70,"time":360.00003600000264,"velocity":0.8031496062992126,"duration":0.22490532552080822},{"name":"B4","midi":71,"time":360.22730875000263,"velocity":0.8031496062992126,"duration":0.22490532552080822},{"name":"E4","midi":64,"time":360.45458150000263,"velocity":0.8031496062992126,"duration":0.4521780755208056},{"name":"C#5","midi":73,"time":360.45458150000263,"velocity":0.8031496062992126,"duration":0.22490532552080822},{"name":"A#4","midi":70,"time":360.68185425000263,"velocity":0.8031496062992126,"duration":0.22490532552080822},{"name":"D4","midi":62,"time":360.9091270000026,"velocity":0.8031496062992126,"duration":0.4521780755208056},{"name":"B4","midi":71,"time":360.9091270000026,"velocity":0.8031496062992126,"duration":0.2130682031249762},{"name":"D5","midi":74,"time":361.1363997500026,"velocity":0.8031496062992126,"duration":0.22490532552080822},{"name":"A#2","midi":46,"time":361.3636725000026,"velocity":0.8031496062992126,"duration":1.3612690755208519},{"name":"E5","midi":76,"time":361.3636725000026,"velocity":0.8031496062992126,"duration":0.11126895052080954},{"name":"F#5","midi":78,"time":361.4773088750026,"velocity":0.8031496062992126,"duration":0.11126895052080954},{"name":"G5","midi":79,"time":361.5909452500026,"velocity":0.8031496062992126,"duration":0.22490532552080822},{"name":"F#5","midi":78,"time":361.8182180000026,"velocity":0.8031496062992126,"duration":0.6392046093749855},{"name":"C#5","midi":73,"time":362.0454907500026,"velocity":0.8031496062992126,"duration":0.22490532552080822},{"name":"F#4","midi":66,"time":362.2727635000026,"velocity":0.8031496062992126,"duration":0.4498106510416733},{"name":"E5","midi":76,"time":362.5000362500026,"velocity":0.8031496062992126,"duration":0.22490532552086506},{"name":"B2","midi":47,"time":362.72730900000266,"velocity":0.8031496062992126,"duration":0.4521780755208056},{"name":"D5","midi":74,"time":362.72730900000266,"velocity":0.8031496062992126,"duration":0.22490532552080822},{"name":"B4","midi":71,"time":362.72730900000266,"velocity":0.8031496062992126,"duration":0.8996213020833466},{"name":"C#5","midi":73,"time":362.95458175000266,"velocity":0.8031496062992126,"duration":0.22490532552080822},{"name":"A2","midi":45,"time":363.18185450000266,"velocity":0.8031496062992126,"duration":0.42613640625000926},{"name":"E5","midi":76,"time":363.18185450000266,"velocity":0.8031496062992126,"duration":0.22490532552080822},{"name":"D5","midi":74,"time":363.40912725000265,"velocity":0.8031496062992126,"duration":0.22490532552086506},{"name":"G2","midi":43,"time":363.6364000000027,"velocity":0.8031496062992126,"duration":0.42613640625000926},{"name":"C#5","midi":73,"time":363.6364000000027,"velocity":0.8031496062992126,"duration":0.22490532552080822},{"name":"B4","midi":71,"time":363.8636727500027,"velocity":0.8031496062992126,"duration":0.22490532552086506},{"name":"F#2","midi":42,"time":364.09094550000276,"velocity":0.8031496062992126,"duration":1.3612690755208519},{"name":"A#4","midi":70,"time":364.09094550000276,"velocity":0.8031496062992126,"duration":0.8996213020833466},{"name":"F#5","midi":78,"time":364.09094550000276,"velocity":0.8031496062992126,"duration":0.8996213020833466},{"name":"F#3","midi":54,"time":365.4545820000028,"velocity":0.8031496062992126,"duration":0.22490532552080822},{"name":"C5","midi":72,"time":365.4545820000028,"velocity":0.8031496062992126,"duration":0.4521780755208056},{"name":"A5","midi":81,"time":365.4545820000028,"velocity":0.8031496062992126,"duration":0.4521780755208056},{"name":"G3","midi":55,"time":365.6818547500028,"velocity":0.8031496062992126,"duration":0.22490532552080822},{"name":"A3","midi":57,"time":365.9091275000028,"velocity":0.8031496062992126,"duration":0.42613640625000926},{"name":"F#5","midi":78,"time":365.9091275000028,"velocity":0.8031496062992126,"duration":0.4521780755208624},{"name":"C5","midi":72,"time":365.9091275000028,"velocity":0.8031496062992126,"duration":0.4521780755208624},{"name":"G3","midi":55,"time":366.36367300000285,"velocity":0.8031496062992126,"duration":0.42613640625000926},{"name":"B4","midi":71,"time":366.36367300000285,"velocity":0.8031496062992126,"duration":0.4521780755208624},{"name":"E5","midi":76,"time":366.36367300000285,"velocity":0.8031496062992126,"duration":0.4521780755208624},{"name":"C4","midi":60,"time":366.8182185000029,"velocity":0.8031496062992126,"duration":0.4521780755208056},{"name":"B4","midi":71,"time":366.8182185000029,"velocity":0.8031496062992126,"duration":0.22490532552080822},{"name":"D#5","midi":75,"time":366.8182185000029,"velocity":0.8031496062992126,"duration":1.1363637500000436},{"name":"A4","midi":69,"time":367.0454912500029,"velocity":0.8031496062992126,"duration":0.22490532552080822},{"name":"B3","midi":59,"time":367.2727640000029,"velocity":0.8031496062992126,"duration":0.42613640625000926},{"name":"A4","midi":69,"time":367.2727640000029,"velocity":0.8031496062992126,"duration":0.22490532552080822},{"name":"G4","midi":67,"time":367.5000367500029,"velocity":0.8031496062992126,"duration":0.22490532552086506},{"name":"A3","midi":57,"time":367.72730950000295,"velocity":0.8031496062992126,"duration":0.42613640625000926},{"name":"G4","midi":67,"time":367.72730950000295,"velocity":0.8031496062992126,"duration":0.22490532552080822},{"name":"F#4","midi":66,"time":367.95458225000294,"velocity":0.8031496062992126,"duration":0.22490532552086506},{"name":"G3","midi":55,"time":368.181855000003,"velocity":0.8031496062992126,"duration":0.22490532552080822},{"name":"B4","midi":71,"time":368.181855000003,"velocity":0.8031496062992126,"duration":1.3612690755208519},{"name":"E5","midi":76,"time":368.181855000003,"velocity":0.8031496062992126,"duration":0.4521780755208056},{"name":"F#3","midi":54,"time":368.409127750003,"velocity":0.8031496062992126,"duration":0.22490532552080822},{"name":"A3","midi":57,"time":368.636400500003,"velocity":0.8031496062992126,"duration":0.22490532552080822},{"name":"F#5","midi":78,"time":368.636400500003,"velocity":0.8031496062992126,"duration":0.4521780755208056},{"name":"G3","midi":55,"time":368.863673250003,"velocity":0.8031496062992126,"duration":0.22490532552080822},{"name":"F#3","midi":54,"time":369.090946000003,"velocity":0.8031496062992126,"duration":0.22490532552080822},{"name":"G5","midi":79,"time":369.090946000003,"velocity":0.8031496062992126,"duration":0.42613640625000926},{"name":"E3","midi":52,"time":369.318218750003,"velocity":0.8031496062992126,"duration":0.22490532552086506},{"name":"A3","midi":57,"time":369.54549150000304,"velocity":0.8031496062992126,"duration":2.722538151041647},{"name":"C#5","midi":73,"time":369.54549150000304,"velocity":0.8031496062992126,"duration":0.22490532552080822},{"name":"B4","midi":71,"time":369.77276425000304,"velocity":0.8031496062992126,"duration":0.22490532552080822},{"name":"E4","midi":64,"time":370.00003700000303,"velocity":0.8031496062992126,"duration":0.4521780755208056},{"name":"D5","midi":74,"time":370.00003700000303,"velocity":0.8031496062992126,"duration":0.22490532552080822},{"name":"C#5","midi":73,"time":370.22730975000303,"velocity":0.8031496062992126,"duration":0.22490532552080822},{"name":"G4","midi":67,"time":370.454582500003,"velocity":0.8031496062992126,"duration":0.4521780755208056},{"name":"B4","midi":71,"time":370.454582500003,"velocity":0.8031496062992126,"duration":0.22490532552080822},{"name":"A4","midi":69,"time":370.681855250003,"velocity":0.8031496062992126,"duration":0.22490532552080822},{"name":"F#4","midi":66,"time":370.909128000003,"velocity":0.8031496062992126,"duration":0.22490532552080822},{"name":"D5","midi":74,"time":370.909128000003,"velocity":0.8031496062992126,"duration":0.22490532552080822},{"name":"G4","midi":67,"time":371.136400750003,"velocity":0.8031496062992126,"duration":0.22490532552080822},{"name":"E5","midi":76,"time":371.136400750003,"velocity":0.8031496062992126,"duration":0.22490532552080822},{"name":"A4","midi":69,"time":371.363673500003,"velocity":0.8031496062992126,"duration":0.4521780755208056},{"name":"F#5","midi":78,"time":371.363673500003,"velocity":0.8031496062992126,"duration":0.22490532552080822},{"name":"D5","midi":74,"time":371.590946250003,"velocity":0.8031496062992126,"duration":0.22490532552080822},{"name":"G4","midi":67,"time":371.818219000003,"velocity":0.8031496062992126,"duration":0.9067235755208571},{"name":"E5","midi":76,"time":371.818219000003,"velocity":0.8031496062992126,"duration":0.22490532552080822},{"name":"G5","midi":79,"time":372.045491750003,"velocity":0.8031496062992126,"duration":0.22490532552086506},{"name":"B5","midi":83,"time":372.27276450000306,"velocity":0.8031496062992126,"duration":0.4521780755208056},{"name":"F#4","midi":66,"time":372.72731000000306,"velocity":0.8031496062992126,"duration":0.4521780755208624},{"name":"B3","midi":59,"time":372.72731000000306,"velocity":0.8031496062992126,"duration":0.42613640625000926},{"name":"A5","midi":81,"time":372.72731000000306,"velocity":0.8031496062992126,"duration":0.40246216145834524},{"name":"E4","midi":64,"time":373.1818555000031,"velocity":0.8031496062992126,"duration":0.4521780755208624},{"name":"C#4","midi":61,"time":373.1818555000031,"velocity":0.8031496062992126,"duration":0.42613640625000926},{"name":"G5","midi":79,"time":373.1818555000031,"velocity":0.8031496062992126,"duration":0.40246216145834524},{"name":"D4","midi":62,"time":373.63640100000316,"velocity":0.8031496062992126,"duration":0.4521780755208056},{"name":"F#5","midi":78,"time":373.63640100000316,"velocity":0.8031496062992126,"duration":0.22490532552080822},{"name":"E5","midi":76,"time":373.86367375000316,"velocity":0.8031496062992126,"duration":0.22490532552080822},{"name":"G3","midi":55,"time":374.09094650000316,"velocity":0.8031496062992126,"duration":0.42613640625000926},{"name":"D5","midi":74,"time":374.09094650000316,"velocity":0.8031496062992126,"duration":0.4498106510416733},{"name":"G5","midi":79,"time":374.09094650000316,"velocity":0.8031496062992126,"duration":0.22490532552080822},{"name":"F#5","midi":78,"time":374.31821925000315,"velocity":0.8031496062992126,"duration":0.22490532552086506},{"name":"A3","midi":57,"time":374.5454920000032,"velocity":0.8031496062992126,"duration":0.42613640625000926},{"name":"E5","midi":76,"time":374.5454920000032,"velocity":0.8031496062992126,"duration":0.22490532552080822},{"name":"C#5","midi":73,"time":374.5454920000032,"velocity":0.8031496062992126,"duration":0.4498106510416733},{"name":"F#5","midi":78,"time":374.7727647500032,"velocity":0.8031496062992126,"duration":0.22490532552086506},{"name":"D3","midi":50,"time":375.00003750000326,"velocity":0.8031496062992126,"duration":0.4521780755208056},{"name":"D5","midi":74,"time":375.00003750000326,"velocity":0.8031496062992126,"duration":0.8996213020833466},{"name":"A2","midi":45,"time":375.45458300000325,"velocity":0.8031496062992126,"duration":0.42613640625000926},{"name":"D2","midi":38,"time":375.90912850000325,"velocity":0.8031496062992126,"duration":0.42613640625000926},{"name":"D3","midi":50,"time":376.36367400000324,"velocity":0.8031496062992126,"duration":0.22490532552080822},{"name":"A5","midi":81,"time":376.36367400000324,"velocity":0.8031496062992126,"duration":0.22490532552080822},{"name":"F#5","midi":78,"time":376.36367400000324,"velocity":0.8031496062992126,"duration":0.22490532552080822},{"name":"E3","midi":52,"time":376.59094675000324,"velocity":0.8031496062992126,"duration":0.22490532552080822},{"name":"E5","midi":76,"time":376.59094675000324,"velocity":0.8031496062992126,"duration":0.22490532552080822},{"name":"G5","midi":79,"time":376.59094675000324,"velocity":0.8031496062992126,"duration":0.22490532552080822},{"name":"F#3","midi":54,"time":376.81821950000324,"velocity":0.8031496062992126,"duration":0.22490532552080822},{"name":"F#5","midi":78,"time":376.81821950000324,"velocity":0.8031496062992126,"duration":0.4521780755208624},{"name":"D5","midi":74,"time":376.81821950000324,"velocity":0.8031496062992126,"duration":0.42613640625000926},{"name":"E3","midi":52,"time":377.04549225000324,"velocity":0.8031496062992126,"duration":0.22490532552086506},{"name":"F#3","midi":54,"time":377.2727650000033,"velocity":0.8031496062992126,"duration":0.22490532552080822},{"name":"E5","midi":76,"time":377.2727650000033,"velocity":0.8031496062992126,"duration":0.42613640625000926},{"name":"G5","midi":79,"time":377.2727650000033,"velocity":0.8031496062992126,"duration":0.4521780755208624},{"name":"G3","midi":55,"time":377.5000377500033,"velocity":0.8031496062992126,"duration":0.22490532552086506},{"name":"A3","midi":57,"time":377.72731050000334,"velocity":0.8031496062992126,"duration":0.22490532552080822},{"name":"E5","midi":76,"time":377.72731050000334,"velocity":0.8031496062992126,"duration":0.4521780755208056},{"name":"C#5","midi":73,"time":377.72731050000334,"velocity":0.8031496062992126,"duration":0.4521780755208056},{"name":"B3","midi":59,"time":377.95458325000334,"velocity":0.8031496062992126,"duration":0.22490532552080822},{"name":"C#4","midi":61,"time":378.18185600000334,"velocity":0.8031496062992126,"duration":0.22490532552080822},{"name":"D5","midi":74,"time":378.18185600000334,"velocity":0.8031496062992126,"duration":0.42613640625000926},{"name":"F#5","midi":78,"time":378.18185600000334,"velocity":0.8031496062992126,"duration":0.4521780755208624},{"name":"B3","midi":59,"time":378.40912875000333,"velocity":0.8031496062992126,"duration":0.22490532552086506},{"name":"A#3","midi":58,"time":378.6364015000034,"velocity":0.8031496062992126,"duration":0.22490532552080822},{"name":"E5","midi":76,"time":378.6364015000034,"velocity":0.8031496062992126,"duration":0.4498106510416733},{"name":"G5","midi":79,"time":378.6364015000034,"velocity":0.8031496062992126,"duration":0.42613640625000926},{"name":"C#4","midi":61,"time":378.8636742500034,"velocity":0.8031496062992126,"duration":0.22490532552086506},{"name":"D3","midi":50,"time":379.09094700000344,"velocity":0.8031496062992126,"duration":0.4521780755208624},{"name":"F#5","midi":78,"time":379.09094700000344,"velocity":0.8031496062992126,"duration":0.4498106510416733},{"name":"D5","midi":74,"time":379.31821975000344,"velocity":0.8031496062992126,"duration":0.22490532552086506},{"name":"G3","midi":55,"time":379.5454925000035,"velocity":0.8031496062992126,"duration":0.42613640625000926},{"name":"C#5","midi":73,"time":379.5454925000035,"velocity":0.8031496062992126,"duration":0.2130682031249762},{"name":"E5","midi":76,"time":379.5454925000035,"velocity":0.8031496062992126,"duration":0.22490532552080822},{"name":"D5","midi":74,"time":379.7727652500035,"velocity":0.8031496062992126,"duration":0.22490532552086506},{"name":"B4","midi":71,"time":379.7727652500035,"velocity":0.8031496062992126,"duration":0.21306820312503305},{"name":"E3","midi":52,"time":380.00003800000354,"velocity":0.8031496062992126,"duration":0.42613640625000926},{"name":"C#5","midi":73,"time":380.00003800000354,"velocity":0.8031496062992126,"duration":0.22490532552080822},{"name":"A#4","midi":70,"time":380.00003800000354,"velocity":0.8031496062992126,"duration":0.2130682031249762},{"name":"B4","midi":71,"time":380.22731075000354,"velocity":0.8031496062992126,"duration":0.21306820312503305},{"name":"B4","midi":71,"time":380.4545835000036,"velocity":0.8031496062992126,"duration":0.2296401744791865},{"name":"F#3","midi":54,"time":380.4545835000036,"velocity":0.8031496062992126,"duration":2.682291934896},{"name":"A#4","midi":70,"time":380.68659109896197,"velocity":0.8031496062992126,"duration":0.2296401744791865},{"name":"G#4","midi":68,"time":380.9209661223995,"velocity":0.8031496062992126,"duration":0.2296401744791865},{"name":"B3","midi":59,"time":380.9209661223995,"velocity":0.8031496062992126,"duration":0.43797352864584127},{"name":"A#4","midi":70,"time":381.155341145837,"velocity":0.8031496062992126,"duration":0.2296401744791865},{"name":"F#4","midi":66,"time":381.3897161692745,"velocity":0.8031496062992126,"duration":0.2296401744791865},{"name":"A#3","midi":58,"time":381.3897161692745,"velocity":0.8031496062992126,"duration":0.5847538463542037},{"name":"A#4","midi":70,"time":381.624091192712,"velocity":0.8031496062992126,"duration":0.21543562760416535},{"name":"C#5","midi":73,"time":381.8584662161495,"velocity":0.8031496062992126,"duration":0.23437502343750793},{"name":"B3","midi":59,"time":382.09757608854534,"velocity":0.8031496062992126,"duration":0.23437502343750793},{"name":"D5","midi":74,"time":382.09757608854534,"velocity":0.8031496062992126,"duration":0.23437502343750793},{"name":"C#4","midi":61,"time":382.33905338542036,"velocity":0.8031496062992126,"duration":0.23437502343750793},{"name":"E5","midi":76,"time":382.33905338542036,"velocity":0.8031496062992126,"duration":0.23437502343750793},{"name":"A#3","midi":58,"time":382.5805306822954,"velocity":0.8031496062992126,"duration":0.23437502343750793},{"name":"C#5","midi":73,"time":382.5805306822954,"velocity":0.8031496062992126,"duration":0.23437502343750793},{"name":"B3","midi":59,"time":382.8220079791704,"velocity":0.8031496062992126,"duration":0.23437502343750793},{"name":"D5","midi":74,"time":382.8220079791704,"velocity":0.8031496062992126,"duration":0.23437502343750793},{"name":"D4","midi":62,"time":383.0634852760454,"velocity":0.8031496062992126,"duration":0.23437502343750793},{"name":"F#5","midi":78,"time":383.0634852760454,"velocity":0.8031496062992126,"duration":0.23437502343750793},{"name":"G5","midi":79,"time":383.30496257292043,"velocity":0.8031496062992126,"duration":0.49005686718749075},{"name":"E4","midi":64,"time":383.30496257292043,"velocity":0.8031496062992126,"duration":0.49005686718749075},{"name":"F#5","midi":78,"time":383.79975428906624,"velocity":0.8031496062992126,"duration":0.4616477734375053},{"name":"G#3","midi":56,"time":383.79975428906624,"velocity":0.8031496062992126,"duration":0.4616477734375053},{"name":"D4","midi":62,"time":383.79975428906624,"velocity":0.8031496062992126,"duration":0.4616477734375053},{"name":"E5","midi":76,"time":384.29691342969124,"velocity":0.8031496062992126,"duration":0.4616477734375053},{"name":"C#4","midi":61,"time":384.29691342969124,"velocity":0.8031496062992126,"duration":0.4616477734375053},{"name":"A#3","midi":58,"time":384.29691342969124,"velocity":0.8031496062992126,"duration":0.4616477734375053},{"name":"D5","midi":74,"time":384.79407257031625,"velocity":0.8031496062992126,"duration":0.2533144192708505},{"name":"B3","midi":59,"time":384.79407257031625,"velocity":0.8031496062992126,"duration":0.518465960937533},{"name":"C#5","midi":73,"time":385.0521218385454,"velocity":0.8031496062992126,"duration":0.2533144192708505},{"name":"B4","midi":71,"time":385.31490595573297,"velocity":0.8031496062992126,"duration":0.48768944270835846},{"name":"E5","midi":76,"time":385.31490595573297,"velocity":0.8031496062992126,"duration":0.2533144192708505},{"name":"E3","midi":52,"time":385.31490595573297,"velocity":0.8031496062992126,"duration":0.48768944270835846},{"name":"D5","midi":74,"time":385.58005749739965,"velocity":0.8031496062992126,"duration":0.2533144192708505},{"name":"C#5","midi":73,"time":385.84284161458714,"velocity":0.8031496062992126,"duration":0.2533144192708505},{"name":"A#4","midi":70,"time":385.84284161458714,"velocity":0.8031496062992126,"duration":0.4876894427083016},{"name":"F#3","midi":54,"time":385.84284161458714,"velocity":0.8031496062992126,"duration":0.5137311119791548},{"name":"D5","midi":74,"time":386.10562573177464,"velocity":0.8031496062992126,"duration":0.2533144192708505},{"name":"B2","midi":47,"time":386.3873492447955,"velocity":0.8031496062992126,"duration":1.8158145755208466},{"name":"B4","midi":71,"time":386.3873492447955,"velocity":0.8031496062992126,"duration":1.8158145755208466},{"name":"B4","midi":71,"time":390.0000390000038,"velocity":0.8031496062992126,"duration":0.33143942708335317},{"name":"F#4","midi":66,"time":390.4545845000038,"velocity":0.8031496062992126,"duration":0.9067235755208571},{"name":"B4","midi":71,"time":391.36367550000386,"velocity":0.8031496062992126,"duration":0.11126895052080954},{"name":"B3","midi":59,"time":391.36367550000386,"velocity":0.8031496062992126,"duration":0.33143942708335317},{"name":"C#5","midi":73,"time":391.47731187500386,"velocity":0.8031496062992126,"duration":0.11126895052080954},{"name":"D5","midi":74,"time":391.59094825000386,"velocity":0.8031496062992126,"duration":0.22490532552086506},{"name":"C#5","midi":73,"time":391.8182210000039,"velocity":0.8031496062992126,"duration":0.9067235755208571},{"name":"F#3","midi":54,"time":391.8182210000039,"velocity":0.8031496062992126,"duration":0.9067235755208571},{"name":"F#5","midi":78,"time":392.72731200000396,"velocity":0.8031496062992126,"duration":0.4521780755208624},{"name":"D4","midi":62,"time":392.72731200000396,"velocity":0.8031496062992126,"duration":0.33143942708335317},{"name":"E5","midi":76,"time":393.181857500004,"velocity":0.8031496062992126,"duration":0.4521780755208056},{"name":"C#4","midi":61,"time":393.181857500004,"velocity":0.8031496062992126,"duration":0.9067235755208003},{"name":"F#5","midi":78,"time":393.636403000004,"velocity":0.8031496062992126,"duration":0.22490532552080822},{"name":"E5","midi":76,"time":393.863675750004,"velocity":0.8031496062992126,"duration":0.22490532552080822},{"name":"D5","midi":74,"time":394.090948500004,"velocity":0.8031496062992126,"duration":0.22490532552080822},{"name":"F#4","midi":66,"time":394.090948500004,"velocity":0.8031496062992126,"duration":0.33143942708335317},{"name":"C#5","midi":73,"time":394.318221250004,"velocity":0.8031496062992126,"duration":0.22490532552086506},{"name":"D5","midi":74,"time":394.54549400000406,"velocity":0.8031496062992126,"duration":0.22490532552080822},{"name":"B3","midi":59,"time":394.54549400000406,"velocity":0.8031496062992126,"duration":0.8996213020833466},{"name":"C#5","midi":73,"time":394.77276675000405,"velocity":0.8031496062992126,"duration":0.22490532552080822},{"name":"B4","midi":71,"time":395.00003950000405,"velocity":0.8031496062992126,"duration":0.22490532552080822},{"name":"D5","midi":74,"time":395.22731225000405,"velocity":0.8031496062992126,"duration":0.22490532552086506},{"name":"F#5","midi":78,"time":395.4545850000041,"velocity":0.8031496062992126,"duration":0.22490532552080822},{"name":"D5","midi":74,"time":395.6818577500041,"velocity":0.8031496062992126,"duration":0.22490532552080822},{"name":"B5","midi":83,"time":395.9091305000041,"velocity":0.8031496062992126,"duration":0.4498106510416733},{"name":"F#5","midi":78,"time":396.1364032500041,"velocity":0.8031496062992126,"duration":0.22490532552086506},{"name":"D5","midi":74,"time":396.36367600000415,"velocity":0.8031496062992126,"duration":0.22490532552080822},{"name":"B4","midi":71,"time":396.59094875000415,"velocity":0.8031496062992126,"duration":0.22490532552080822},{"name":"B3","midi":59,"time":396.59094875000415,"velocity":0.8031496062992126,"duration":0.22490532552080822},{"name":"F#5","midi":78,"time":396.81822150000414,"velocity":0.8031496062992126,"duration":0.22490532552080822},{"name":"D4","midi":62,"time":396.81822150000414,"velocity":0.8031496062992126,"duration":0.22490532552080822},{"name":"D5","midi":74,"time":397.04549425000414,"velocity":0.8031496062992126,"duration":0.22490532552080822},{"name":"B3","midi":59,"time":397.04549425000414,"velocity":0.8031496062992126,"duration":0.22490532552080822},{"name":"G5","midi":79,"time":397.27276700000414,"velocity":0.8031496062992126,"duration":0.4498106510416733},{"name":"E4","midi":64,"time":397.27276700000414,"velocity":0.8031496062992126,"duration":0.22490532552080822},{"name":"E5","midi":76,"time":397.50003975000413,"velocity":0.8031496062992126,"duration":0.22490532552086506},{"name":"B3","midi":59,"time":397.50003975000413,"velocity":0.8031496062992126,"duration":0.22490532552086506},{"name":"B4","midi":71,"time":397.7273125000042,"velocity":0.8031496062992126,"duration":0.22490532552080822},{"name":"G3","midi":55,"time":397.7273125000042,"velocity":0.8031496062992126,"duration":0.22490532552080822},{"name":"E5","midi":76,"time":397.9545852500042,"velocity":0.8031496062992126,"duration":0.22490532552080822},{"name":"E3","midi":52,"time":397.9545852500042,"velocity":0.8031496062992126,"duration":0.22490532552080822},{"name":"G5","midi":79,"time":398.1818580000042,"velocity":0.8031496062992126,"duration":0.22490532552080822},{"name":"B3","midi":59,"time":398.1818580000042,"velocity":0.8031496062992126,"duration":0.22490532552080822},{"name":"E5","midi":76,"time":398.4091307500042,"velocity":0.8031496062992126,"duration":0.22490532552080822},{"name":"G3","midi":55,"time":398.4091307500042,"velocity":0.8031496062992126,"duration":0.22490532552080822},{"name":"A5","midi":81,"time":398.6364035000042,"velocity":0.8031496062992126,"duration":0.4498106510416733},{"name":"C#4","midi":61,"time":398.6364035000042,"velocity":0.8031496062992126,"duration":0.22490532552080822},{"name":"E5","midi":76,"time":398.8636762500042,"velocity":0.8031496062992126,"duration":0.22490532552086506},{"name":"A3","midi":57,"time":398.8636762500042,"velocity":0.8031496062992126,"duration":0.22490532552086506},{"name":"C#5","midi":73,"time":399.09094900000423,"velocity":0.8031496062992126,"duration":0.22490532552080822},{"name":"E3","midi":52,"time":399.09094900000423,"velocity":0.8031496062992126,"duration":0.22490532552080822},{"name":"A4","midi":69,"time":399.3182217500042,"velocity":0.8031496062992126,"duration":0.22490532552080822},{"name":"A3","midi":57,"time":399.3182217500042,"velocity":0.8031496062992126,"duration":0.22490532552080822},{"name":"E5","midi":76,"time":399.5454945000042,"velocity":0.8031496062992126,"duration":0.22490532552080822},{"name":"C#4","midi":61,"time":399.5454945000042,"velocity":0.8031496062992126,"duration":0.22490532552080822},{"name":"C#5","midi":73,"time":399.7727672500042,"velocity":0.8031496062992126,"duration":0.22490532552080822},{"name":"A3","midi":57,"time":399.7727672500042,"velocity":0.8031496062992126,"duration":0.22490532552080822},{"name":"F#5","midi":78,"time":400.0000400000042,"velocity":0.8031496062992126,"duration":0.4498106510416733},{"name":"D4","midi":62,"time":400.0000400000042,"velocity":0.8031496062992126,"duration":0.22490532552080822},{"name":"D5","midi":74,"time":400.2273127500042,"velocity":0.8031496062992126,"duration":0.22490532552086506},{"name":"A3","midi":57,"time":400.2273127500042,"velocity":0.8031496062992126,"duration":0.22490532552086506},{"name":"A4","midi":69,"time":400.45458550000427,"velocity":0.8031496062992126,"duration":0.22490532552080822},{"name":"F#3","midi":54,"time":400.45458550000427,"velocity":0.8031496062992126,"duration":0.22490532552080822},{"name":"D5","midi":74,"time":400.68185825000427,"velocity":0.8031496062992126,"duration":0.22490532552080822},{"name":"D3","midi":50,"time":400.68185825000427,"velocity":0.8031496062992126,"duration":0.22490532552080822},{"name":"F#5","midi":78,"time":400.90913100000427,"velocity":0.8031496062992126,"duration":0.22490532552080822},{"name":"A3","midi":57,"time":400.90913100000427,"velocity":0.8031496062992126,"duration":0.22490532552080822},{"name":"D5","midi":74,"time":401.13640375000426,"velocity":0.8031496062992126,"duration":0.22490532552080822},{"name":"F#3","midi":54,"time":401.13640375000426,"velocity":0.8031496062992126,"duration":0.22490532552080822},{"name":"G5","midi":79,"time":401.36367650000426,"velocity":0.8031496062992126,"duration":0.2840909375000251},{"name":"B3","midi":59,"time":401.36367650000426,"velocity":0.8031496062992126,"duration":0.4521780755208624},{"name":"D5","midi":74,"time":401.59094925000426,"velocity":0.8031496062992126,"duration":0.22490532552086506},{"name":"F#5","midi":78,"time":401.8182220000043,"velocity":0.8031496062992126,"duration":0.2840909375000251},{"name":"A3","midi":57,"time":401.8182220000043,"velocity":0.8031496062992126,"duration":0.40246216145834524},{"name":"D5","midi":74,"time":402.0454947500043,"velocity":0.8031496062992126,"duration":0.22490532552086506},{"name":"E5","midi":76,"time":402.27276750000436,"velocity":0.8031496062992126,"duration":0.22490532552080822},{"name":"G3","midi":55,"time":402.27276750000436,"velocity":0.8031496062992126,"duration":0.40246216145834524},{"name":"D5","midi":74,"time":402.50004025000436,"velocity":0.8031496062992126,"duration":0.22490532552086506},{"name":"A5","midi":81,"time":402.7273130000044,"velocity":0.8031496062992126,"duration":0.2840909375000251},{"name":"F#3","midi":54,"time":402.7273130000044,"velocity":0.8031496062992126,"duration":0.4521780755208624},{"name":"D5","midi":74,"time":402.9545857500044,"velocity":0.8031496062992126,"duration":0.22490532552086506},{"name":"G5","midi":79,"time":403.18185850000447,"velocity":0.8031496062992126,"duration":0.2840909375000251},{"name":"E3","midi":52,"time":403.18185850000447,"velocity":0.8031496062992126,"duration":0.40246216145834524},{"name":"D5","midi":74,"time":403.40913125000446,"velocity":0.8031496062992126,"duration":0.22490532552086506},{"name":"F#5","midi":78,"time":403.6364040000045,"velocity":0.8031496062992126,"duration":0.22490532552080822},{"name":"D3","midi":50,"time":403.6364040000045,"velocity":0.8031496062992126,"duration":0.40246216145834524},{"name":"D5","midi":74,"time":403.8636767500045,"velocity":0.8031496062992126,"duration":0.22490532552086506},{"name":"B5","midi":83,"time":404.09094950000457,"velocity":0.8031496062992126,"duration":0.4521780755208056},{"name":"G3","midi":55,"time":404.09094950000457,"velocity":0.8031496062992126,"duration":0.26041669270830425},{"name":"D4","midi":62,"time":404.31822225000457,"velocity":0.8031496062992126,"duration":0.22490532552080822},{"name":"A5","midi":81,"time":404.54549500000456,"velocity":0.8031496062992126,"duration":0.3314394270832963},{"name":"F#3","midi":54,"time":404.54549500000456,"velocity":0.8031496062992126,"duration":0.26041669270830425},{"name":"D4","midi":62,"time":404.77276775000456,"velocity":0.8031496062992126,"duration":0.22490532552080822},{"name":"G5","midi":79,"time":405.00004050000456,"velocity":0.8031496062992126,"duration":0.33143942708335317},{"name":"E3","midi":52,"time":405.00004050000456,"velocity":0.8031496062992126,"duration":0.22490532552080822},{"name":"D4","midi":62,"time":405.22731325000456,"velocity":0.8031496062992126,"duration":0.22490532552086506},{"name":"F#5","midi":78,"time":405.4545860000046,"velocity":0.8031496062992126,"duration":0.4521780755208056},{"name":"A3","midi":57,"time":405.4545860000046,"velocity":0.8031496062992126,"duration":0.26041669270830425},{"name":"D4","midi":62,"time":405.6818587500046,"velocity":0.8031496062992126,"duration":0.22490532552080822},{"name":"E5","midi":76,"time":405.9091315000046,"velocity":0.8031496062992126,"duration":0.3314394270832963},{"name":"G3","midi":55,"time":405.9091315000046,"velocity":0.8031496062992126,"duration":0.26041669270830425},{"name":"D4","midi":62,"time":406.1364042500046,"velocity":0.8031496062992126,"duration":0.22490532552080822},{"name":"D5","midi":74,"time":406.3636770000046,"velocity":0.8031496062992126,"duration":0.33143942708335317},{"name":"F#3","midi":54,"time":406.3636770000046,"velocity":0.8031496062992126,"duration":0.22490532552080822},{"name":"D4","midi":62,"time":406.5909497500046,"velocity":0.8031496062992126,"duration":0.22490532552086506},{"name":"E5","midi":76,"time":406.81822250000465,"velocity":0.8031496062992126,"duration":0.22490532552080822},{"name":"G3","midi":55,"time":406.81822250000465,"velocity":0.8031496062992126,"duration":0.22490532552080822},{"name":"D5","midi":74,"time":407.04549525000465,"velocity":0.8031496062992126,"duration":0.22490532552080822},{"name":"F#3","midi":54,"time":407.04549525000465,"velocity":0.8031496062992126,"duration":0.22490532552080822},{"name":"C#5","midi":73,"time":407.27276800000465,"velocity":0.8031496062992126,"duration":0.2840909374999683},{"name":"E3","midi":52,"time":407.27276800000465,"velocity":0.8031496062992126,"duration":0.26041669270830425},{"name":"E5","midi":76,"time":407.50004075000464,"velocity":0.8031496062992126,"duration":0.22490532552080822},{"name":"G3","midi":55,"time":407.50004075000464,"velocity":0.8031496062992126,"duration":0.22490532552080822},{"name":"B4","midi":71,"time":407.72731350000464,"velocity":0.8031496062992126,"duration":0.22490532552080822},{"name":"D3","midi":50,"time":407.72731350000464,"velocity":0.8031496062992126,"duration":0.22490532552080822},{"name":"E5","midi":76,"time":407.95458625000464,"velocity":0.8031496062992126,"duration":0.22490532552080822},{"name":"G3","midi":55,"time":407.95458625000464,"velocity":0.8031496062992126,"duration":0.22490532552080822},{"name":"A4","midi":69,"time":408.18185900000464,"velocity":0.8031496062992126,"duration":0.2840909374999683},{"name":"C#3","midi":49,"time":408.18185900000464,"velocity":0.8031496062992126,"duration":0.26041669270830425},{"name":"E5","midi":76,"time":408.40913175000463,"velocity":0.8031496062992126,"duration":0.22490532552080822},{"name":"G3","midi":55,"time":408.40913175000463,"velocity":0.8031496062992126,"duration":0.22490532552080822},{"name":"G4","midi":67,"time":408.63640450000463,"velocity":0.8031496062992126,"duration":0.2840909374999683},{"name":"B2","midi":47,"time":408.63640450000463,"velocity":0.8031496062992126,"duration":0.26041669270830425},{"name":"E5","midi":76,"time":408.8636772500046,"velocity":0.8031496062992126,"duration":0.22490532552080822},{"name":"G3","midi":55,"time":408.8636772500046,"velocity":0.8031496062992126,"duration":0.22490532552080822},{"name":"F#4","midi":66,"time":409.0909500000046,"velocity":0.8031496062992126,"duration":0.22490532552080822},{"name":"A2","midi":45,"time":409.0909500000046,"velocity":0.8031496062992126,"duration":0.22490532552080822},{"name":"D5","midi":74,"time":409.3182227500046,"velocity":0.8031496062992126,"duration":0.22490532552080822},{"name":"F#3","midi":54,"time":409.3182227500046,"velocity":0.8031496062992126,"duration":0.22490532552080822},{"name":"E4","midi":64,"time":409.5454955000046,"velocity":0.8031496062992126,"duration":0.2840909374999683},{"name":"G2","midi":43,"time":409.5454955000046,"velocity":0.8031496062992126,"duration":0.26041669270830425},{"name":"D5","midi":74,"time":409.7727682500046,"velocity":0.8031496062992126,"duration":0.22490532552080822},{"name":"E3","midi":52,"time":409.7727682500046,"velocity":0.8031496062992126,"duration":0.22490532552080822},{"name":"C#5","midi":73,"time":410.0000410000046,"velocity":0.8031496062992126,"duration":0.22490532552080822},{"name":"A2","midi":45,"time":410.0000410000046,"velocity":0.8031496062992126,"duration":0.40246216145834524},{"name":"B4","midi":71,"time":410.2273137500046,"velocity":0.8031496062992126,"duration":0.22490532552086506},{"name":"A4","midi":69,"time":410.45458650000467,"velocity":0.8031496062992126,"duration":0.22490532552080822},{"name":"C#3","midi":49,"time":410.45458650000467,"velocity":0.8031496062992126,"duration":0.40246216145834524},{"name":"G4","midi":67,"time":410.68185925000466,"velocity":0.8031496062992126,"duration":0.22490532552086506},{"name":"F#4","midi":66,"time":410.9091320000047,"velocity":0.8031496062992126,"duration":0.22490532552080822},{"name":"D3","midi":50,"time":410.9091320000047,"velocity":0.8031496062992126,"duration":0.4521780755208056},{"name":"E4","midi":64,"time":411.1364047500047,"velocity":0.8031496062992126,"duration":0.22490532552080822},{"name":"D4","midi":62,"time":411.3636775000047,"velocity":0.8031496062992126,"duration":0.22490532552080822},{"name":"D2","midi":38,"time":411.3636775000047,"velocity":0.8031496062992126,"duration":0.40246216145834524},{"name":"E4","midi":64,"time":411.5909502500047,"velocity":0.8031496062992126,"duration":0.22490532552086506},{"name":"F#4","midi":66,"time":411.81822300000476,"velocity":0.8031496062992126,"duration":0.22490532552080822},{"name":"G2","midi":43,"time":411.81822300000476,"velocity":0.8031496062992126,"duration":0.40246216145834524},{"name":"G4","midi":67,"time":412.04549575000476,"velocity":0.8031496062992126,"duration":0.22490532552086506},{"name":"A4","midi":69,"time":412.2727685000048,"velocity":0.8031496062992126,"duration":0.22490532552080822},{"name":"F#2","midi":42,"time":412.2727685000048,"velocity":0.8031496062992126,"duration":0.8759470572916825},{"name":"D4","midi":62,"time":412.5000412500048,"velocity":0.8031496062992126,"duration":0.22490532552080822},{"name":"F#4","midi":66,"time":412.7273140000048,"velocity":0.8031496062992126,"duration":0.22490532552080822},{"name":"A4","midi":69,"time":412.9545867500048,"velocity":0.8031496062992126,"duration":0.22490532552086506},{"name":"D5","midi":74,"time":413.18185950000486,"velocity":0.8031496062992126,"duration":0.6794508255208029},{"name":"B2","midi":47,"time":413.18185950000486,"velocity":0.8031496062992126,"duration":0.22490532552080822},{"name":"C#3","midi":49,"time":413.40913225000486,"velocity":0.8031496062992126,"duration":0.11126895052080954},{"name":"D3","midi":50,"time":413.52276862500486,"velocity":0.8031496062992126,"duration":0.11126895052080954},{"name":"G#2","midi":44,"time":413.63640500000486,"velocity":0.8031496062992126,"duration":0.8759470572916825},{"name":"B4","midi":71,"time":413.86367775000485,"velocity":0.8031496062992126,"duration":0.22490532552080822},{"name":"G#4","midi":68,"time":414.09095050000485,"velocity":0.8031496062992126,"duration":0.22490532552080822},{"name":"E4","midi":64,"time":414.31822325000485,"velocity":0.8031496062992126,"duration":0.22490532552086506},{"name":"C#5","midi":73,"time":414.5454960000049,"velocity":0.8031496062992126,"duration":0.22490532552080822},{"name":"E3","midi":52,"time":414.5454960000049,"velocity":0.8031496062992126,"duration":0.4521780755208056},{"name":"A4","midi":69,"time":414.7727687500049,"velocity":0.8031496062992126,"duration":0.22490532552080822},{"name":"F#5","midi":78,"time":415.0000415000049,"velocity":0.8031496062992126,"duration":0.22490532552080822},{"name":"D3","midi":50,"time":415.0000415000049,"velocity":0.8031496062992126,"duration":0.4521780755208056},{"name":"D5","midi":74,"time":415.2273142500049,"velocity":0.8031496062992126,"duration":0.22490532552080822},{"name":"A5","midi":81,"time":415.4545870000049,"velocity":0.8031496062992126,"duration":0.14914774218749471},{"name":"E3","midi":52,"time":415.4545870000049,"velocity":0.8031496062992126,"duration":0.22490532552086506},{"name":"G#5","midi":80,"time":415.6061021666716,"velocity":0.8031496062992126,"duration":0.14914774218755156},{"name":"D3","midi":50,"time":415.68185975000495,"velocity":0.8031496062992126,"duration":0.22490532552086506},{"name":"A5","midi":81,"time":415.7576173333383,"velocity":0.8031496062992126,"duration":0.14914774218749471},{"name":"G#5","midi":80,"time":415.909132500005,"velocity":0.8031496062992126,"duration":0.14914774218749471},{"name":"C#3","midi":49,"time":415.909132500005,"velocity":0.8031496062992126,"duration":0.22490532552086506},{"name":"F#5","midi":78,"time":416.0606476666717,"velocity":0.8031496062992126,"duration":0.14914774218755156},{"name":"B2","midi":47,"time":416.13640525000505,"velocity":0.8031496062992126,"duration":0.22490532552086506},{"name":"G#5","midi":80,"time":416.2121628333384,"velocity":0.8031496062992126,"duration":0.14914774218749471},{"name":"A5","midi":81,"time":416.3636780000051,"velocity":0.8031496062992126,"duration":0.8996213020833466},{"name":"C#3","midi":49,"time":416.3636780000051,"velocity":0.8031496062992126,"duration":0.22490532552080822},{"name":"B2","midi":47,"time":416.5909507500051,"velocity":0.8031496062992126,"duration":0.22490532552080822},{"name":"A4","midi":69,"time":416.8182235000051,"velocity":0.8031496062992126,"duration":0.4521780755208624},{"name":"A2","midi":45,"time":416.8182235000051,"velocity":0.8031496062992126,"duration":0.22490532552080822},{"name":"B2","midi":47,"time":417.0454962500051,"velocity":0.8031496062992126,"duration":0.22490532552086506},{"name":"A5","midi":81,"time":417.27276900000516,"velocity":0.8031496062992126,"duration":0.8996213020833466},{"name":"C#3","midi":49,"time":417.27276900000516,"velocity":0.8031496062992126,"duration":0.22490532552080822},{"name":"A2","midi":45,"time":417.50004175000515,"velocity":0.8031496062992126,"duration":0.22490532552080822},{"name":"B4","midi":71,"time":417.72731450000515,"velocity":0.8031496062992126,"duration":0.6628788541667063},{"name":"D3","midi":50,"time":417.72731450000515,"velocity":0.8031496062992126,"duration":0.22490532552080822},{"name":"B2","midi":47,"time":417.95458725000515,"velocity":0.8031496062992126,"duration":0.22490532552086506},{"name":"A5","midi":81,"time":418.1818600000052,"velocity":0.8031496062992126,"duration":0.22490532552080822},{"name":"F#2","midi":42,"time":418.1818600000052,"velocity":0.8031496062992126,"duration":0.22490532552080822},{"name":"G#5","midi":80,"time":418.4091327500052,"velocity":0.8031496062992126,"duration":0.22490532552080822},{"name":"D2","midi":38,"time":418.4091327500052,"velocity":0.8031496062992126,"duration":0.22490532552080822},{"name":"A5","midi":81,"time":418.6364055000052,"velocity":0.8031496062992126,"duration":0.22490532552080822},{"name":"D3","midi":50,"time":418.6364055000052,"velocity":0.8031496062992126,"duration":0.22490532552080822},{"name":"B5","midi":83,"time":418.8636782500052,"velocity":0.8031496062992126,"duration":0.22490532552080822},{"name":"B2","midi":47,"time":418.8636782500052,"velocity":0.8031496062992126,"duration":0.22490532552080822},{"name":"G#5","midi":80,"time":419.0909510000052,"velocity":0.8031496062992126,"duration":1.361269075520795},{"name":"E3","midi":52,"time":419.0909510000052,"velocity":0.8031496062992126,"duration":0.22490532552080822},{"name":"B2","midi":47,"time":419.3182237500052,"velocity":0.8031496062992126,"duration":0.22490532552080822},{"name":"G#2","midi":44,"time":419.5454965000052,"velocity":0.8031496062992126,"duration":0.22490532552080822},{"name":"E2","midi":40,"time":419.7727692500052,"velocity":0.8031496062992126,"duration":0.22490532552080822},{"name":"D3","midi":50,"time":420.0000420000052,"velocity":0.8031496062992126,"duration":0.22490532552080822},{"name":"B2","midi":47,"time":420.2273147500052,"velocity":0.8031496062992126,"duration":0.22490532552080822},{"name":"C#3","midi":49,"time":420.4545875000052,"velocity":0.8031496062992126,"duration":0.22490532552080822},{"name":"A2","midi":45,"time":420.6818602500052,"velocity":0.8031496062992126,"duration":0.22490532552080822},{"name":"A4","midi":69,"time":420.90913300000517,"velocity":0.8031496062992126,"duration":0.22490532552080822},{"name":"C#3","midi":49,"time":420.90913300000517,"velocity":0.8031496062992126,"duration":0.22490532552080822},{"name":"G#5","midi":80,"time":421.13640575000517,"velocity":0.8031496062992126,"duration":0.22490532552080822},{"name":"E3","midi":52,"time":421.13640575000517,"velocity":0.8031496062992126,"duration":0.22490532552080822},{"name":"A5","midi":81,"time":421.36367850000516,"velocity":0.8031496062992126,"duration":0.22490532552080822},{"name":"A3","midi":57,"time":421.36367850000516,"velocity":0.8031496062992126,"duration":0.22490532552080822},{"name":"G#5","midi":80,"time":421.59095125000516,"velocity":0.8031496062992126,"duration":0.22490532552080822},{"name":"C#3","midi":49,"time":421.59095125000516,"velocity":0.8031496062992126,"duration":0.22490532552080822},{"name":"F#5","midi":78,"time":421.81822400000516,"velocity":0.8031496062992126,"duration":0.22490532552080822},{"name":"D3","midi":50,"time":421.81822400000516,"velocity":0.8031496062992126,"duration":0.22490532552080822},{"name":"F5","midi":77,"time":422.04549675000516,"velocity":0.8031496062992126,"duration":0.22490532552080822},{"name":"A2","midi":45,"time":422.04549675000516,"velocity":0.8031496062992126,"duration":0.22490532552080822},{"name":"F#5","midi":78,"time":422.27276950000515,"velocity":0.8031496062992126,"duration":1.0416667708333307},{"name":"D3","midi":50,"time":422.27276950000515,"velocity":0.8031496062992126,"duration":0.22490532552080822},{"name":"F#3","midi":54,"time":422.50004225000515,"velocity":0.8031496062992126,"duration":0.22490532552080822},{"name":"A3","midi":57,"time":422.72731500000515,"velocity":0.8031496062992126,"duration":0.22490532552080822},{"name":"F#3","midi":54,"time":422.95458775000515,"velocity":0.8031496062992126,"duration":0.22490532552080822},{"name":"B3","midi":59,"time":423.18186050000514,"velocity":0.8031496062992126,"duration":0.22490532552086506},{"name":"A5","midi":81,"time":423.4091332500052,"velocity":0.8031496062992126,"duration":0.22490532552080822},{"name":"A3","midi":57,"time":423.4091332500052,"velocity":0.8031496062992126,"duration":0.22490532552080822},{"name":"G#5","midi":80,"time":423.6364060000052,"velocity":0.8031496062992126,"duration":0.22490532552080822},{"name":"B3","midi":59,"time":423.6364060000052,"velocity":0.8031496062992126,"duration":0.22490532552080822},{"name":"F#5","midi":78,"time":423.8636787500052,"velocity":0.8031496062992126,"duration":0.22490532552080822},{"name":"C#4","midi":61,"time":423.8636787500052,"velocity":0.8031496062992126,"duration":0.22490532552080822},{"name":"F5","midi":77,"time":424.0909515000052,"velocity":0.8031496062992126,"duration":0.22490532552080822},{"name":"D4","midi":62,"time":424.0909515000052,"velocity":0.8031496062992126,"duration":0.22490532552080822},{"name":"F#5","midi":78,"time":424.3182242500052,"velocity":0.8031496062992126,"duration":0.22490532552080822},{"name":"B3","midi":59,"time":424.3182242500052,"velocity":0.8031496062992126,"duration":0.22490532552080822},{"name":"F5","midi":77,"time":424.5454970000052,"velocity":0.8031496062992126,"duration":0.2840909375000251},{"name":"C#4","midi":61,"time":424.5454970000052,"velocity":0.8031496062992126,"duration":0.22490532552080822},{"name":"G#5","midi":80,"time":424.7727697500052,"velocity":0.8031496062992126,"duration":0.22490532552086506},{"name":"B3","midi":59,"time":424.7727697500052,"velocity":0.8031496062992126,"duration":0.22490532552086506},{"name":"C#5","midi":73,"time":425.00004250000524,"velocity":0.8031496062992126,"duration":0.22490532552080822},{"name":"A3","midi":57,"time":425.00004250000524,"velocity":0.8031496062992126,"duration":0.22490532552080822},{"name":"B4","midi":71,"time":425.22731525000523,"velocity":0.8031496062992126,"duration":0.22490532552080822},{"name":"C#4","midi":61,"time":425.22731525000523,"velocity":0.8031496062992126,"duration":0.22490532552080822},{"name":"A4","midi":69,"time":425.45458800000523,"velocity":0.8031496062992126,"duration":0.2840909375000251},{"name":"F#3","midi":54,"time":425.45458800000523,"velocity":0.8031496062992126,"duration":0.22490532552080822},{"name":"F#5","midi":78,"time":425.6818607500052,"velocity":0.8031496062992126,"duration":0.22490532552086506},{"name":"A3","midi":57,"time":425.6818607500052,"velocity":0.8031496062992126,"duration":0.22490532552086506},{"name":"D5","midi":74,"time":425.9091335000053,"velocity":0.8031496062992126,"duration":0.4521780755208056},{"name":"B3","midi":59,"time":425.9091335000053,"velocity":0.8031496062992126,"duration":0.22490532552080822},{"name":"F#3","midi":54,"time":426.1364062500053,"velocity":0.8031496062992126,"duration":0.22490532552080822},{"name":"C#5","midi":73,"time":426.3636790000053,"velocity":0.8031496062992126,"duration":0.33143942708335317},{"name":"A3","midi":57,"time":426.3636790000053,"velocity":0.8031496062992126,"duration":0.22490532552080822},{"name":"F#3","midi":54,"time":426.5909517500053,"velocity":0.8031496062992126,"duration":0.22490532552086506},{"name":"B4","midi":71,"time":426.81822450000533,"velocity":0.8031496062992126,"duration":0.33143942708335317},{"name":"G#3","midi":56,"time":426.81822450000533,"velocity":0.8031496062992126,"duration":0.22490532552080822},{"name":"F#3","midi":54,"time":427.0454972500053,"velocity":0.8031496062992126,"duration":0.22490532552086506},{"name":"A4","midi":69,"time":427.2727700000054,"velocity":0.8031496062992126,"duration":0.4521780755208056},{"name":"C#4","midi":61,"time":427.2727700000054,"velocity":0.8031496062992126,"duration":0.22490532552080822},{"name":"F#3","midi":54,"time":427.5000427500054,"velocity":0.8031496062992126,"duration":0.22490532552080822},{"name":"G#4","midi":68,"time":427.7273155000054,"velocity":0.8031496062992126,"duration":0.33143942708335317},{"name":"B3","midi":59,"time":427.7273155000054,"velocity":0.8031496062992126,"duration":0.22490532552080822},{"name":"F#3","midi":54,"time":427.9545882500054,"velocity":0.8031496062992126,"duration":0.22490532552086506},{"name":"F#4","midi":66,"time":428.1818610000054,"velocity":0.8031496062992126,"duration":0.33143942708335317},{"name":"A3","midi":57,"time":428.1818610000054,"velocity":0.8031496062992126,"duration":0.22490532552080822},{"name":"F#3","midi":54,"time":428.4091337500054,"velocity":0.8031496062992126,"duration":0.22490532552086506},{"name":"B4","midi":71,"time":428.6364065000055,"velocity":0.8031496062992126,"duration":0.22490532552080822},{"name":"D4","midi":62,"time":428.6364065000055,"velocity":0.8031496062992126,"duration":0.4521780755208056},{"name":"F#5","midi":78,"time":428.8636792500055,"velocity":0.8031496062992126,"duration":0.22490532552080822},{"name":"A4","midi":69,"time":429.0909520000055,"velocity":0.8031496062992126,"duration":0.22490532552080822},{"name":"C#4","midi":61,"time":429.0909520000055,"velocity":0.8031496062992126,"duration":0.40246216145834524},{"name":"F#5","midi":78,"time":429.31822475000547,"velocity":0.8031496062992126,"duration":0.22490532552086506},{"name":"G#4","midi":68,"time":429.5454975000055,"velocity":0.8031496062992126,"duration":0.22490532552080822},{"name":"B3","midi":59,"time":429.5454975000055,"velocity":0.8031496062992126,"duration":0.40246216145834524},{"name":"F#5","midi":78,"time":429.7727702500055,"velocity":0.8031496062992126,"duration":0.22490532552086506},{"name":"C#5","midi":73,"time":430.0000430000056,"velocity":0.8031496062992126,"duration":0.22490532552080822},{"name":"A3","midi":57,"time":430.0000430000056,"velocity":0.8031496062992126,"duration":0.4521780755208056},{"name":"F#5","midi":78,"time":430.2273157500056,"velocity":0.8031496062992126,"duration":0.22490532552080822},{"name":"B4","midi":71,"time":430.45458850000557,"velocity":0.8031496062992126,"duration":0.22490532552080822},{"name":"G#3","midi":56,"time":430.45458850000557,"velocity":0.8031496062992126,"duration":0.40246216145834524},{"name":"F#5","midi":78,"time":430.68186125000557,"velocity":0.8031496062992126,"duration":0.22490532552086506},{"name":"A4","midi":69,"time":430.9091340000056,"velocity":0.8031496062992126,"duration":0.22490532552080822},{"name":"F#3","midi":54,"time":430.9091340000056,"velocity":0.8031496062992126,"duration":0.40246216145834524},{"name":"F#5","midi":78,"time":431.1364067500056,"velocity":0.8031496062992126,"duration":0.22490532552086506},{"name":"B5","midi":83,"time":431.3636795000057,"velocity":0.8031496062992126,"duration":0.22490532552080822},{"name":"G#3","midi":56,"time":431.3636795000057,"velocity":0.8031496062992126,"duration":0.22490532552080822},{"name":"A5","midi":81,"time":431.59095225000567,"velocity":0.8031496062992126,"duration":0.22490532552080822},{"name":"F#3","midi":54,"time":431.59095225000567,"velocity":0.8031496062992126,"duration":0.22490532552080822},{"name":"G#5","midi":80,"time":431.81822500000567,"velocity":0.8031496062992126,"duration":0.2840909374999683},{"name":"F3","midi":53,"time":431.81822500000567,"velocity":0.8031496062992126,"duration":0.26041669270830425},{"name":"B5","midi":83,"time":432.04549775000567,"velocity":0.8031496062992126,"duration":0.22490532552080822},{"name":"G#3","midi":56,"time":432.04549775000567,"velocity":0.8031496062992126,"duration":0.22490532552080822},{"name":"F#5","midi":78,"time":432.27277050000566,"velocity":0.8031496062992126,"duration":0.2840909374999683},{"name":"D3","midi":50,"time":432.27277050000566,"velocity":0.8031496062992126,"duration":0.26041669270830425},{"name":"B5","midi":83,"time":432.50004325000566,"velocity":0.8031496062992126,"duration":0.22490532552080822},{"name":"G#3","midi":56,"time":432.50004325000566,"velocity":0.8031496062992126,"duration":0.22490532552080822},{"name":"F5","midi":77,"time":432.72731600000566,"velocity":0.8031496062992126,"duration":0.2840909374999683},{"name":"C#3","midi":49,"time":432.72731600000566,"velocity":0.8031496062992126,"duration":0.26041669270830425},{"name":"B5","midi":83,"time":432.95458875000566,"velocity":0.8031496062992126,"duration":0.22490532552080822},{"name":"G#3","midi":56,"time":432.95458875000566,"velocity":0.8031496062992126,"duration":0.22490532552080822},{"name":"D5","midi":74,"time":433.18186150000565,"velocity":0.8031496062992126,"duration":0.2840909374999683},{"name":"B2","midi":47,"time":433.18186150000565,"velocity":0.8031496062992126,"duration":0.26041669270830425},{"name":"B5","midi":83,"time":433.40913425000565,"velocity":0.8031496062992126,"duration":0.22490532552080822},{"name":"G#3","midi":56,"time":433.40913425000565,"velocity":0.8031496062992126,"duration":0.22490532552080822},{"name":"C#5","midi":73,"time":433.63640700000565,"velocity":0.8031496062992126,"duration":0.2840909374999683},{"name":"A2","midi":45,"time":433.63640700000565,"velocity":0.8031496062992126,"duration":0.26041669270830425},{"name":"A5","midi":81,"time":433.86367975000564,"velocity":0.8031496062992126,"duration":0.22490532552080822},{"name":"F#3","midi":54,"time":433.86367975000564,"velocity":0.8031496062992126,"duration":0.22490532552080822},{"name":"B4","midi":71,"time":434.09095250000564,"velocity":0.8031496062992126,"duration":0.2840909375000251},{"name":"D3","midi":50,"time":434.09095250000564,"velocity":0.8031496062992126,"duration":0.22490532552080822},{"name":"G#5","midi":80,"time":434.31822525000564,"velocity":0.8031496062992126,"duration":0.22490532552086506},{"name":"B2","midi":47,"time":434.31822525000564,"velocity":0.8031496062992126,"duration":0.22490532552086506},{"name":"C#5","midi":73,"time":434.5454980000057,"velocity":0.8031496062992126,"duration":0.4521780755208624},{"name":"C#3","midi":49,"time":434.5454980000057,"velocity":0.8031496062992126,"duration":0.40246216145834524},{"name":"F5","midi":77,"time":435.00004350000575,"velocity":0.8031496062992126,"duration":0.33143942708335317},{"name":"C#2","midi":37,"time":435.00004350000575,"velocity":0.8031496062992126,"duration":0.40246216145834524},{"name":"F#5","midi":78,"time":435.45458900000574,"velocity":0.8031496062992126,"duration":0.9067235755208571},{"name":"F#2","midi":42,"time":435.45458900000574,"velocity":0.8031496062992126,"duration":0.8996213020833466},{"name":"C#5","midi":73,"time":436.3636800000058,"velocity":0.8031496062992126,"duration":0.33143942708335317},{"name":"B4","midi":71,"time":436.8182255000058,"velocity":0.8031496062992126,"duration":0.22490532552080822},{"name":"A#4","midi":70,"time":437.0454982500058,"velocity":0.8031496062992126,"duration":0.22490532552080822},{"name":"G#4","midi":68,"time":437.2727710000058,"velocity":0.8031496062992126,"duration":0.22490532552080822},{"name":"F#4","midi":66,"time":437.5000437500058,"velocity":0.8031496062992126,"duration":0.22490532552080822},{"name":"F#5","midi":78,"time":437.72731650000577,"velocity":0.8031496062992126,"duration":0.22490532552080822},{"name":"F#3","midi":54,"time":437.72731650000577,"velocity":0.8031496062992126,"duration":0.40246216145834524},{"name":"A#4","midi":70,"time":437.95458925000577,"velocity":0.8031496062992126,"duration":0.22490532552086506},{"name":"B4","midi":71,"time":438.1818620000058,"velocity":0.8031496062992126,"duration":0.22490532552080822},{"name":"E3","midi":52,"time":438.1818620000058,"velocity":0.8031496062992126,"duration":0.22490532552080822},{"name":"C#5","midi":73,"time":438.4091347500058,"velocity":0.8031496062992126,"duration":0.22490532552080822},{"name":"D3","midi":50,"time":438.4091347500058,"velocity":0.8031496062992126,"duration":0.22490532552080822},{"name":"D5","midi":74,"time":438.6364075000058,"velocity":0.8031496062992126,"duration":0.8996213020833466},{"name":"C#3","midi":49,"time":438.6364075000058,"velocity":0.8031496062992126,"duration":0.22490532552080822},{"name":"B2","midi":47,"time":438.8636802500058,"velocity":0.8031496062992126,"duration":0.22490532552080822},{"name":"B3","midi":59,"time":439.0909530000058,"velocity":0.8031496062992126,"duration":0.22490532552080822},{"name":"D3","midi":50,"time":439.3182257500058,"velocity":0.8031496062992126,"duration":0.22490532552086506},{"name":"E3","midi":52,"time":439.54549850000586,"velocity":0.8031496062992126,"duration":0.22490532552080822},{"name":"C#5","midi":73,"time":439.77277125000586,"velocity":0.8031496062992126,"duration":0.22490532552080822},{"name":"F#3","midi":54,"time":439.77277125000586,"velocity":0.8031496062992126,"duration":0.22490532552080822},{"name":"B4","midi":71,"time":440.00004400000586,"velocity":0.8031496062992126,"duration":0.22490532552080822},{"name":"G#3","midi":56,"time":440.00004400000586,"velocity":0.8031496062992126,"duration":0.7575758333333056},{"name":"A4","midi":69,"time":440.22731675000585,"velocity":0.8031496062992126,"duration":0.22490532552080822},{"name":"E5","midi":76,"time":440.45458950000585,"velocity":0.8031496062992126,"duration":0.22490532552080822},{"name":"B4","midi":71,"time":440.68186225000585,"velocity":0.8031496062992126,"duration":0.22490532552080822},{"name":"C#5","midi":73,"time":440.90913500000585,"velocity":0.8031496062992126,"duration":0.4521780755208056},{"name":"A3","midi":57,"time":440.90913500000585,"velocity":0.8031496062992126,"duration":0.22490532552080822},{"name":"G3","midi":55,"time":441.13640775000584,"velocity":0.8031496062992126,"duration":0.22490532552080822},{"name":"A4","midi":69,"time":441.36368050000584,"velocity":0.8031496062992126,"duration":0.33143942708335317},{"name":"F#3","midi":54,"time":441.36368050000584,"velocity":0.8031496062992126,"duration":0.22490532552080822},{"name":"E3","midi":52,"time":441.59095325000584,"velocity":0.8031496062992126,"duration":0.22490532552086506},{"name":"C#5","midi":73,"time":441.8182260000059,"velocity":0.8031496062992126,"duration":0.33143942708335317},{"name":"A3","midi":57,"time":441.8182260000059,"velocity":0.8031496062992126,"duration":0.22490532552080822},{"name":"E3","midi":52,"time":442.0454987500059,"velocity":0.8031496062992126,"duration":0.22490532552086506},{"name":"D5","midi":74,"time":442.27277150000594,"velocity":0.8031496062992126,"duration":0.4498106510416733},{"name":"F#3","midi":54,"time":442.27277150000594,"velocity":0.8031496062992126,"duration":0.22490532552080822},{"name":"A4","midi":69,"time":442.50004425000594,"velocity":0.8031496062992126,"duration":0.22490532552086506},{"name":"D3","midi":50,"time":442.50004425000594,"velocity":0.8031496062992126,"duration":0.22490532552086506},{"name":"F#4","midi":66,"time":442.727317000006,"velocity":0.8031496062992126,"duration":0.22490532552080822},{"name":"F#3","midi":54,"time":442.727317000006,"velocity":0.8031496062992126,"duration":0.22490532552080822},{"name":"D4","midi":62,"time":442.954589750006,"velocity":0.8031496062992126,"duration":0.22490532552080822},{"name":"A3","midi":57,"time":442.954589750006,"velocity":0.8031496062992126,"duration":0.22490532552080822},{"name":"A4","midi":69,"time":443.181862500006,"velocity":0.8031496062992126,"duration":0.22490532552080822},{"name":"D4","midi":62,"time":443.181862500006,"velocity":0.8031496062992126,"duration":0.22490532552080822},{"name":"F#4","midi":66,"time":443.409135250006,"velocity":0.8031496062992126,"duration":0.22490532552080822},{"name":"A3","midi":57,"time":443.409135250006,"velocity":0.8031496062992126,"duration":0.22490532552080822},{"name":"B4","midi":71,"time":443.636408000006,"velocity":0.8031496062992126,"duration":0.22490532552080822},{"name":"G3","midi":55,"time":443.636408000006,"velocity":0.8031496062992126,"duration":0.22490532552080822},{"name":"G4","midi":67,"time":443.863680750006,"velocity":0.8031496062992126,"duration":0.22490532552080822},{"name":"D3","midi":50,"time":443.863680750006,"velocity":0.8031496062992126,"duration":0.22490532552080822},{"name":"D5","midi":74,"time":444.090953500006,"velocity":0.8031496062992126,"duration":0.22490532552080822},{"name":"G3","midi":55,"time":444.090953500006,"velocity":0.8031496062992126,"duration":0.22490532552080822},{"name":"B4","midi":71,"time":444.318226250006,"velocity":0.8031496062992126,"duration":0.22490532552080822},{"name":"B3","midi":59,"time":444.318226250006,"velocity":0.8031496062992126,"duration":0.22490532552080822},{"name":"G5","midi":79,"time":444.545499000006,"velocity":0.8031496062992126,"duration":0.22490532552080822},{"name":"D4","midi":62,"time":444.545499000006,"velocity":0.8031496062992126,"duration":0.22490532552080822},{"name":"D5","midi":74,"time":444.772771750006,"velocity":0.8031496062992126,"duration":0.22490532552080822},{"name":"B3","midi":59,"time":444.772771750006,"velocity":0.8031496062992126,"duration":0.22490532552080822},{"name":"E5","midi":76,"time":445.00004450000597,"velocity":0.8031496062992126,"duration":0.4498106510416733},{"name":"G#3","midi":56,"time":445.00004450000597,"velocity":0.8031496062992126,"duration":0.22490532552080822},{"name":"B4","midi":71,"time":445.22731725000597,"velocity":0.8031496062992126,"duration":0.22490532552086506},{"name":"E3","midi":52,"time":445.22731725000597,"velocity":0.8031496062992126,"duration":0.22490532552086506},{"name":"G#4","midi":68,"time":445.454590000006,"velocity":0.8031496062992126,"duration":0.22490532552080822},{"name":"G#3","midi":56,"time":445.454590000006,"velocity":0.8031496062992126,"duration":0.22490532552080822},{"name":"E4","midi":64,"time":445.681862750006,"velocity":0.8031496062992126,"duration":0.22490532552080822},{"name":"B3","midi":59,"time":445.681862750006,"velocity":0.8031496062992126,"duration":0.22490532552080822},{"name":"B4","midi":71,"time":445.909135500006,"velocity":0.8031496062992126,"duration":0.22490532552080822},{"name":"E4","midi":64,"time":445.909135500006,"velocity":0.8031496062992126,"duration":0.22490532552080822},{"name":"G#4","midi":68,"time":446.136408250006,"velocity":0.8031496062992126,"duration":0.22490532552080822},{"name":"B3","midi":59,"time":446.136408250006,"velocity":0.8031496062992126,"duration":0.22490532552080822},{"name":"C#5","midi":73,"time":446.363681000006,"velocity":0.8031496062992126,"duration":0.22490532552080822},{"name":"A3","midi":57,"time":446.363681000006,"velocity":0.8031496062992126,"duration":0.22490532552080822},{"name":"A4","midi":69,"time":446.590953750006,"velocity":0.8031496062992126,"duration":0.22490532552080822},{"name":"E3","midi":52,"time":446.590953750006,"velocity":0.8031496062992126,"duration":0.22490532552080822},{"name":"E5","midi":76,"time":446.818226500006,"velocity":0.8031496062992126,"duration":0.22490532552080822},{"name":"A3","midi":57,"time":446.818226500006,"velocity":0.8031496062992126,"duration":0.22490532552080822},{"name":"C#5","midi":73,"time":447.045499250006,"velocity":0.8031496062992126,"duration":0.22490532552080822},{"name":"C#4","midi":61,"time":447.045499250006,"velocity":0.8031496062992126,"duration":0.22490532552080822},{"name":"A5","midi":81,"time":447.272772000006,"velocity":0.8031496062992126,"duration":0.22490532552080822},{"name":"E4","midi":64,"time":447.272772000006,"velocity":0.8031496062992126,"duration":0.22490532552080822},{"name":"E5","midi":76,"time":447.500044750006,"velocity":0.8031496062992126,"duration":0.22490532552080822},{"name":"C#4","midi":61,"time":447.500044750006,"velocity":0.8031496062992126,"duration":0.22490532552080822},{"name":"F#5","midi":78,"time":447.727317500006,"velocity":0.8031496062992126,"duration":0.4498106510416733},{"name":"A#3","midi":58,"time":447.727317500006,"velocity":0.8031496062992126,"duration":0.22490532552080822},{"name":"C#5","midi":73,"time":447.954590250006,"velocity":0.8031496062992126,"duration":0.22490532552086506},{"name":"F#3","midi":54,"time":447.954590250006,"velocity":0.8031496062992126,"duration":0.22490532552086506},{"name":"A#4","midi":70,"time":448.18186300000605,"velocity":0.8031496062992126,"duration":0.22490532552080822},{"name":"A#3","midi":58,"time":448.18186300000605,"velocity":0.8031496062992126,"duration":0.22490532552080822},{"name":"F#4","midi":66,"time":448.40913575000604,"velocity":0.8031496062992126,"duration":0.22490532552080822},{"name":"C#4","midi":61,"time":448.40913575000604,"velocity":0.8031496062992126,"duration":0.22490532552080822},{"name":"C#5","midi":73,"time":448.63640850000604,"velocity":0.8031496062992126,"duration":0.22490532552080822},{"name":"F#4","midi":66,"time":448.63640850000604,"velocity":0.8031496062992126,"duration":0.22490532552080822},{"name":"A#4","midi":70,"time":448.86368125000604,"velocity":0.8031496062992126,"duration":0.22490532552080822},{"name":"C#4","midi":61,"time":448.86368125000604,"velocity":0.8031496062992126,"duration":0.22490532552080822},{"name":"D5","midi":74,"time":449.09095400000604,"velocity":0.8031496062992126,"duration":0.22490532552080822},{"name":"B3","midi":59,"time":449.09095400000604,"velocity":0.8031496062992126,"duration":0.22490532552080822},{"name":"B4","midi":71,"time":449.31822675000603,"velocity":0.8031496062992126,"duration":0.22490532552080822},{"name":"D4","midi":62,"time":449.31822675000603,"velocity":0.8031496062992126,"duration":0.22490532552080822},{"name":"F#5","midi":78,"time":449.54549950000603,"velocity":0.8031496062992126,"duration":0.22490532552080822},{"name":"C#4","midi":61,"time":449.54549950000603,"velocity":0.8031496062992126,"duration":0.22490532552080822},{"name":"D5","midi":74,"time":449.772772250006,"velocity":0.8031496062992126,"duration":0.22490532552080822},{"name":"B3","midi":59,"time":449.772772250006,"velocity":0.8031496062992126,"duration":0.22490532552080822},{"name":"B5","midi":83,"time":450.000045000006,"velocity":0.8031496062992126,"duration":0.22490532552080822},{"name":"A3","midi":57,"time":450.000045000006,"velocity":0.8031496062992126,"duration":0.22490532552080822},{"name":"D#5","midi":75,"time":450.227317750006,"velocity":0.8031496062992126,"duration":0.22490532552080822},{"name":"G3","midi":55,"time":450.227317750006,"velocity":0.8031496062992126,"duration":0.22490532552080822},{"name":"A5","midi":81,"time":450.454590500006,"velocity":0.8031496062992126,"duration":0.26041669270830425},{"name":"C4","midi":60,"time":450.454590500006,"velocity":0.8031496062992126,"duration":0.4521780755208056},{"name":"E5","midi":76,"time":450.681863250006,"velocity":0.8031496062992126,"duration":0.22490532552080822},{"name":"G5","midi":79,"time":450.909136000006,"velocity":0.8031496062992126,"duration":0.26041669270830425},{"name":"B3","midi":59,"time":450.909136000006,"velocity":0.8031496062992126,"duration":0.4024621614582884},{"name":"E5","midi":76,"time":451.136408750006,"velocity":0.8031496062992126,"duration":0.22490532552080822},{"name":"F#5","midi":78,"time":451.363681500006,"velocity":0.8031496062992126,"duration":0.22490532552080822},{"name":"A3","midi":57,"time":451.363681500006,"velocity":0.8031496062992126,"duration":0.40246216145834524},{"name":"E5","midi":76,"time":451.590954250006,"velocity":0.8031496062992126,"duration":0.22490532552086506},{"name":"B5","midi":83,"time":451.81822700000606,"velocity":0.8031496062992126,"duration":0.26041669270830425},{"name":"G3","midi":55,"time":451.81822700000606,"velocity":0.8031496062992126,"duration":0.4521780755208056},{"name":"E5","midi":76,"time":452.04549975000606,"velocity":0.8031496062992126,"duration":0.22490532552080822},{"name":"A5","midi":81,"time":452.27277250000606,"velocity":0.8031496062992126,"duration":0.26041669270830425},{"name":"F#3","midi":54,"time":452.27277250000606,"velocity":0.8031496062992126,"duration":0.4024621614582884},{"name":"E5","midi":76,"time":452.50004525000605,"velocity":0.8031496062992126,"duration":0.22490532552080822},{"name":"G5","midi":79,"time":452.72731800000605,"velocity":0.8031496062992126,"duration":0.22490532552080822},{"name":"E3","midi":52,"time":452.72731800000605,"velocity":0.8031496062992126,"duration":0.40246216145834524},{"name":"E5","midi":76,"time":452.95459075000605,"velocity":0.8031496062992126,"duration":0.22490532552086506},{"name":"C6","midi":84,"time":453.1818635000061,"velocity":0.8031496062992126,"duration":0.4521780755208056},{"name":"A3","midi":57,"time":453.1818635000061,"velocity":0.8031496062992126,"duration":0.26041669270830425},{"name":"E4","midi":64,"time":453.4091362500061,"velocity":0.8031496062992126,"duration":0.22490532552080822},{"name":"B5","midi":83,"time":453.6364090000061,"velocity":0.8031496062992126,"duration":0.3314394270832963},{"name":"G3","midi":55,"time":453.6364090000061,"velocity":0.8031496062992126,"duration":0.26041669270830425},{"name":"E4","midi":64,"time":453.8636817500061,"velocity":0.8031496062992126,"duration":0.22490532552080822},{"name":"A5","midi":81,"time":454.0909545000061,"velocity":0.8031496062992126,"duration":0.22490532552080822},{"name":"F#3","midi":54,"time":454.0909545000061,"velocity":0.8031496062992126,"duration":0.22490532552080822},{"name":"E4","midi":64,"time":454.3182272500061,"velocity":0.8031496062992126,"duration":0.22490532552080822},{"name":"G5","midi":79,"time":454.5455000000061,"velocity":0.8031496062992126,"duration":0.4521780755208056},{"name":"B3","midi":59,"time":454.5455000000061,"velocity":0.8031496062992126,"duration":0.26041669270830425},{"name":"E4","midi":64,"time":454.7727727500061,"velocity":0.8031496062992126,"duration":0.22490532552080822},{"name":"F#5","midi":78,"time":455.0000455000061,"velocity":0.8031496062992126,"duration":0.3314394270832963},{"name":"A3","midi":57,"time":455.0000455000061,"velocity":0.8031496062992126,"duration":0.26041669270830425},{"name":"E4","midi":64,"time":455.2273182500061,"velocity":0.8031496062992126,"duration":0.22490532552080822},{"name":"E5","midi":76,"time":455.4545910000061,"velocity":0.8031496062992126,"duration":0.22490532552080822},{"name":"G3","midi":55,"time":455.4545910000061,"velocity":0.8031496062992126,"duration":0.22490532552080822},{"name":"E4","midi":64,"time":455.6818637500061,"velocity":0.8031496062992126,"duration":0.22490532552080822},{"name":"F#5","midi":78,"time":455.90913650000607,"velocity":0.8031496062992126,"duration":0.22490532552080822},{"name":"A3","midi":57,"time":455.90913650000607,"velocity":0.8031496062992126,"duration":0.22490532552080822},{"name":"E5","midi":76,"time":456.13640925000607,"velocity":0.8031496062992126,"duration":0.22490532552080822},{"name":"G3","midi":55,"time":456.13640925000607,"velocity":0.8031496062992126,"duration":0.22490532552080822},{"name":"D#5","midi":75,"time":456.36368200000607,"velocity":0.8031496062992126,"duration":0.22490532552080822},{"name":"F#3","midi":54,"time":456.36368200000607,"velocity":0.8031496062992126,"duration":0.22490532552080822},{"name":"F#5","midi":78,"time":456.59095475000606,"velocity":0.8031496062992126,"duration":0.22490532552080822},{"name":"A3","midi":57,"time":456.59095475000606,"velocity":0.8031496062992126,"duration":0.22490532552080822},{"name":"C5","midi":72,"time":456.81822750000606,"velocity":0.8031496062992126,"duration":0.22490532552080822},{"name":"E3","midi":52,"time":456.81822750000606,"velocity":0.8031496062992126,"duration":0.22490532552080822},{"name":"F#5","midi":78,"time":457.04550025000606,"velocity":0.8031496062992126,"duration":0.22490532552080822},{"name":"A3","midi":57,"time":457.04550025000606,"velocity":0.8031496062992126,"duration":0.22490532552080822},{"name":"B4","midi":71,"time":457.27277300000605,"velocity":0.8031496062992126,"duration":0.22490532552080822},{"name":"D#3","midi":51,"time":457.27277300000605,"velocity":0.8031496062992126,"duration":0.22490532552080822},{"name":"F#5","midi":78,"time":457.50004575000605,"velocity":0.8031496062992126,"duration":0.22490532552080822},{"name":"A3","midi":57,"time":457.50004575000605,"velocity":0.8031496062992126,"duration":0.22490532552080822},{"name":"A4","midi":69,"time":457.72731850000605,"velocity":0.8031496062992126,"duration":0.22490532552080822},{"name":"C3","midi":48,"time":457.72731850000605,"velocity":0.8031496062992126,"duration":0.22490532552080822},{"name":"F#5","midi":78,"time":457.95459125000605,"velocity":0.8031496062992126,"duration":0.22490532552080822},{"name":"A3","midi":57,"time":457.95459125000605,"velocity":0.8031496062992126,"duration":0.22490532552080822},{"name":"G4","midi":67,"time":458.18186400000604,"velocity":0.8031496062992126,"duration":0.22490532552080822},{"name":"B2","midi":47,"time":458.18186400000604,"velocity":0.8031496062992126,"duration":0.22490532552080822},{"name":"E5","midi":76,"time":458.40913675000604,"velocity":0.8031496062992126,"duration":0.22490532552080822},{"name":"G3","midi":55,"time":458.40913675000604,"velocity":0.8031496062992126,"duration":0.22490532552080822},{"name":"F#4","midi":66,"time":458.63640950000604,"velocity":0.8031496062992126,"duration":0.22490532552080822},{"name":"A2","midi":45,"time":458.63640950000604,"velocity":0.8031496062992126,"duration":0.22490532552080822},{"name":"A4","midi":69,"time":458.86368225000604,"velocity":0.8031496062992126,"duration":0.22490532552080822},{"name":"F#3","midi":54,"time":458.86368225000604,"velocity":0.8031496062992126,"duration":0.22490532552080822},{"name":"E5","midi":76,"time":459.09095500000603,"velocity":0.8031496062992126,"duration":0.22490532552080822},{"name":"B2","midi":47,"time":459.09095500000603,"velocity":0.8031496062992126,"duration":0.22490532552080822},{"name":"D#5","midi":75,"time":459.31822775000603,"velocity":0.8031496062992126,"duration":0.22490532552080822},{"name":"G3","midi":55,"time":459.31822775000603,"velocity":0.8031496062992126,"duration":0.22490532552080822},{"name":"C#5","midi":73,"time":459.545500500006,"velocity":0.8031496062992126,"duration":0.22490532552080822},{"name":"B2","midi":47,"time":459.545500500006,"velocity":0.8031496062992126,"duration":0.22490532552080822},{"name":"D#5","midi":75,"time":459.772773250006,"velocity":0.8031496062992126,"duration":0.22490532552080822},{"name":"A3","midi":57,"time":459.772773250006,"velocity":0.8031496062992126,"duration":0.22490532552080822},{"name":"E5","midi":76,"time":460.000046000006,"velocity":0.8031496062992126,"duration":0.6628788541666495},{"name":"E3","midi":52,"time":460.000046000006,"velocity":0.8031496062992126,"duration":0.22490532552080822},{"name":"A3","midi":57,"time":460.227318750006,"velocity":0.8031496062992126,"duration":0.22490532552080822},{"name":"G3","midi":55,"time":460.454591500006,"velocity":0.8031496062992126,"duration":0.22490532552080822},{"name":"F#3","midi":54,"time":460.681864250006,"velocity":0.8031496062992126,"duration":0.22490532552080822},{"name":"E5","midi":76,"time":460.909137000006,"velocity":0.8031496062992126,"duration":0.33143942708335317},{"name":"G3","midi":55,"time":460.909137000006,"velocity":0.8031496062992126,"duration":0.22490532552080822},{"name":"E3","midi":52,"time":461.136409750006,"velocity":0.8031496062992126,"duration":0.22490532552086506},{"name":"D5","midi":74,"time":461.36368250000606,"velocity":0.8031496062992126,"duration":0.22490532552080822},{"name":"A3","midi":57,"time":461.36368250000606,"velocity":0.8031496062992126,"duration":0.5208333854166654},{"name":"C#5","midi":73,"time":461.59095525000606,"velocity":0.8031496062992126,"duration":0.22490532552080822},{"name":"B4","midi":71,"time":461.81822800000606,"velocity":0.8031496062992126,"duration":0.22490532552086506},{"name":"A2","midi":45,"time":461.81822800000606,"velocity":0.8031496062992126,"duration":0.4024621614584021},{"name":"A4","midi":69,"time":462.0455007500061,"velocity":0.8031496062992126,"duration":0.22490532552086506},{"name":"A5","midi":81,"time":462.27277350000617,"velocity":0.8031496062992126,"duration":0.22490532552080822},{"name":"A3","midi":57,"time":462.27277350000617,"velocity":0.8031496062992126,"duration":0.40246216145834524},{"name":"C#5","midi":73,"time":462.50004625000616,"velocity":0.8031496062992126,"duration":0.22490532552086506},{"name":"D5","midi":74,"time":462.7273190000062,"velocity":0.8031496062992126,"duration":0.22490532552080822},{"name":"G3","midi":55,"time":462.7273190000062,"velocity":0.8031496062992126,"duration":0.22490532552080822},{"name":"E5","midi":76,"time":462.9545917500062,"velocity":0.8031496062992126,"duration":0.22490532552080822},{"name":"F#3","midi":54,"time":462.9545917500062,"velocity":0.8031496062992126,"duration":0.22490532552080822},{"name":"F#5","midi":78,"time":463.1818645000062,"velocity":0.8031496062992126,"duration":0.8996213020833466},{"name":"E3","midi":52,"time":463.1818645000062,"velocity":0.8031496062992126,"duration":0.22490532552080822},{"name":"D3","midi":50,"time":463.4091372500062,"velocity":0.8031496062992126,"duration":0.22490532552080822},{"name":"D4","midi":62,"time":463.6364100000062,"velocity":0.8031496062992126,"duration":0.22490532552080822},{"name":"F#3","midi":54,"time":463.8636827500062,"velocity":0.8031496062992126,"duration":0.22490532552086506},{"name":"G3","midi":55,"time":464.09095550000626,"velocity":0.8031496062992126,"duration":0.22490532552080822},{"name":"D5","midi":74,"time":464.31822825000626,"velocity":0.8031496062992126,"duration":0.22490532552080822},{"name":"A3","midi":57,"time":464.31822825000626,"velocity":0.8031496062992126,"duration":0.22490532552080822},{"name":"C#5","midi":73,"time":464.54550100000625,"velocity":0.8031496062992126,"duration":0.22490532552080822},{"name":"B3","midi":59,"time":464.54550100000625,"velocity":0.8031496062992126,"duration":1.0416667708333307},{"name":"B4","midi":71,"time":464.77277375000625,"velocity":0.8031496062992126,"duration":0.22490532552080822},{"name":"G5","midi":79,"time":465.00004650000625,"velocity":0.8031496062992126,"duration":0.22490532552080822},{"name":"B4","midi":71,"time":465.22731925000625,"velocity":0.8031496062992126,"duration":0.22490532552080822},{"name":"C#5","midi":73,"time":465.45459200000624,"velocity":0.8031496062992126,"duration":0.22490532552086506},{"name":"D5","midi":74,"time":465.6818647500063,"velocity":0.8031496062992126,"duration":0.22490532552080822},{"name":"G3","midi":55,"time":465.6818647500063,"velocity":0.8031496062992126,"duration":0.22490532552080822},{"name":"E5","midi":76,"time":465.9091375000063,"velocity":0.8031496062992126,"duration":0.9469697916666746},{"name":"F#3","midi":54,"time":465.9091375000063,"velocity":0.8031496062992126,"duration":0.22490532552080822},{"name":"E3","midi":52,"time":466.1364102500063,"velocity":0.8031496062992126,"duration":0.22490532552080822},{"name":"C#4","midi":61,"time":466.3636830000063,"velocity":0.8031496062992126,"duration":0.22490532552080822},{"name":"E3","midi":52,"time":466.5909557500063,"velocity":0.8031496062992126,"duration":0.22490532552080822},{"name":"F#3","midi":54,"time":466.8182285000063,"velocity":0.8031496062992126,"duration":0.22490532552086506},{"name":"C#5","midi":73,"time":467.04550125000634,"velocity":0.8031496062992126,"duration":0.22490532552080822},{"name":"G3","midi":55,"time":467.04550125000634,"velocity":0.8031496062992126,"duration":0.22490532552080822},{"name":"B4","midi":71,"time":467.27277400000634,"velocity":0.8031496062992126,"duration":0.22490532552080822},{"name":"F#3","midi":54,"time":467.27277400000634,"velocity":0.8031496062992126,"duration":0.22490532552080822},{"name":"A#4","midi":70,"time":467.50004675000633,"velocity":0.8031496062992126,"duration":0.22490532552080822},{"name":"E3","midi":52,"time":467.50004675000633,"velocity":0.8031496062992126,"duration":0.22490532552080822},{"name":"F#5","midi":78,"time":467.72731950000633,"velocity":0.8031496062992126,"duration":0.22490532552080822},{"name":"D3","midi":50,"time":467.72731950000633,"velocity":0.8031496062992126,"duration":0.22490532552080822},{"name":"A#4","midi":70,"time":467.9545922500063,"velocity":0.8031496062992126,"duration":0.22490532552080822},{"name":"C#3","midi":49,"time":467.9545922500063,"velocity":0.8031496062992126,"duration":0.22490532552080822},{"name":"B4","midi":71,"time":468.1818650000063,"velocity":0.8031496062992126,"duration":0.22490532552080822},{"name":"D3","midi":50,"time":468.1818650000063,"velocity":0.8031496062992126,"duration":0.22490532552080822},{"name":"C#5","midi":73,"time":468.4091377500063,"velocity":0.8031496062992126,"duration":0.22490532552080822},{"name":"E3","midi":52,"time":468.4091377500063,"velocity":0.8031496062992126,"duration":0.22490532552080822},{"name":"D5","midi":74,"time":468.6364105000063,"velocity":0.8031496062992126,"duration":0.9943182812500027},{"name":"D3","midi":50,"time":468.6364105000063,"velocity":0.8031496062992126,"duration":0.22490532552080822},{"name":"C#3","midi":49,"time":468.8636832500063,"velocity":0.8031496062992126,"duration":0.22490532552080822},{"name":"B2","midi":47,"time":469.0909560000063,"velocity":0.8031496062992126,"duration":0.22490532552080822},{"name":"A2","midi":45,"time":469.3182287500063,"velocity":0.8031496062992126,"duration":0.22490532552080822},{"name":"G2","midi":43,"time":469.5455015000063,"velocity":0.8031496062992126,"duration":0.4521780755208056},{"name":"G4","midi":67,"time":469.7727742500063,"velocity":0.8031496062992126,"duration":0.22490532552080822},{"name":"F#4","midi":66,"time":470.0000470000063,"velocity":0.8031496062992126,"duration":0.22490532552080822},{"name":"B2","midi":47,"time":470.0000470000063,"velocity":0.8031496062992126,"duration":0.40246216145834524},{"name":"E4","midi":64,"time":470.2273197500063,"velocity":0.8031496062992126,"duration":0.22490532552086506},{"name":"D5","midi":74,"time":470.45459250000636,"velocity":0.8031496062992126,"duration":0.22490532552080822},{"name":"E3","midi":52,"time":470.45459250000636,"velocity":0.8031496062992126,"duration":0.40246216145834524},{"name":"C#5","midi":73,"time":470.68186525000635,"velocity":0.8031496062992126,"duration":0.22490532552086506},{"name":"B4","midi":71,"time":470.9091380000064,"velocity":0.8031496062992126,"duration":0.22490532552080822},{"name":"F#2","midi":42,"time":470.9091380000064,"velocity":0.8031496062992126,"duration":0.22490532552080822},{"name":"A#4","midi":70,"time":471.1364107500064,"velocity":0.8031496062992126,"duration":0.22490532552080822},{"name":"F#3","midi":54,"time":471.1364107500064,"velocity":0.8031496062992126,"duration":0.22490532552080822},{"name":"G#4","midi":68,"time":471.3636835000064,"velocity":0.8031496062992126,"duration":0.22490532552080822},{"name":"E3","midi":52,"time":471.3636835000064,"velocity":0.8031496062992126,"duration":0.22490532552080822},{"name":"F#4","midi":66,"time":471.5909562500064,"velocity":0.8031496062992126,"duration":0.22490532552080822},{"name":"D3","midi":50,"time":471.5909562500064,"velocity":0.8031496062992126,"duration":0.22490532552080822},{"name":"C#3","midi":49,"time":471.8182290000064,"velocity":0.8031496062992126,"duration":0.2296401744791865},{"name":"G#4","midi":68,"time":471.8182290000064,"velocity":0.8031496062992126,"duration":0.2296401744791865},{"name":"B2","midi":47,"time":472.0502365989648,"velocity":0.8031496062992126,"duration":0.2296401744791865},{"name":"A#4","midi":70,"time":472.0502365989648,"velocity":0.8031496062992126,"duration":0.2296401744791865},{"name":"G3","midi":55,"time":472.2846116224023,"velocity":0.8031496062992126,"duration":0.46401519791669443},{"name":"B4","midi":71,"time":472.2846116224023,"velocity":0.8031496062992126,"duration":0.2296401744791865},{"name":"E5","midi":76,"time":472.5189866458398,"velocity":0.8031496062992126,"duration":0.2296401744791865},{"name":"F#3","midi":54,"time":472.7533616692773,"velocity":0.8031496062992126,"duration":0.41429928385417725},{"name":"B4","midi":71,"time":472.7533616692773,"velocity":0.8031496062992126,"duration":0.2296401744791865},{"name":"D5","midi":74,"time":472.9877366927148,"velocity":0.8031496062992126,"duration":0.2296401744791865},{"name":"E3","midi":52,"time":473.2221117161523,"velocity":0.8031496062992126,"duration":0.41429928385417725},{"name":"B4","midi":71,"time":473.2221117161523,"velocity":0.8031496062992126,"duration":0.2296401744791865},{"name":"C#5","midi":73,"time":473.4564867395898,"velocity":0.8031496062992126,"duration":0.2296401744791865},{"name":"D3","midi":50,"time":473.6908617630273,"velocity":0.8031496062992126,"duration":0.4640151979167513},{"name":"B4","midi":71,"time":473.6908617630273,"velocity":0.8031496062992126,"duration":0.2296401744791865},{"name":"F#5","midi":78,"time":473.9228693619857,"velocity":0.8031496062992126,"duration":0.2296401744791865},{"name":"C#3","midi":49,"time":474.15724438542327,"velocity":0.8031496062992126,"duration":0.41429928385417725},{"name":"B4","midi":71,"time":474.15724438542327,"velocity":0.8031496062992126,"duration":0.2296401744791865},{"name":"E5","midi":76,"time":474.3916194088608,"velocity":0.8031496062992126,"duration":0.2296401744791865},{"name":"B4","midi":71,"time":474.6259944322983,"velocity":0.8031496062992126,"duration":0.23437502343750793},{"name":"B2","midi":47,"time":474.6259944322983,"velocity":0.8031496062992126,"duration":0.42613640625000926},{"name":"D5","midi":74,"time":474.8651043046941,"velocity":0.8031496062992126,"duration":0.23437502343750793},{"name":"G5","midi":79,"time":475.10658160156913,"velocity":0.8031496062992126,"duration":0.47585232031252644},{"name":"E3","midi":52,"time":475.10658160156913,"velocity":0.8031496062992126,"duration":0.23437502343750793},{"name":"B3","midi":59,"time":475.34805889844415,"velocity":0.8031496062992126,"duration":0.23437502343750793},{"name":"F#5","midi":78,"time":475.58953619531917,"velocity":0.8031496062992126,"duration":0.35037882291669575},{"name":"D3","midi":50,"time":475.58953619531917,"velocity":0.8031496062992126,"duration":0.23437502343750793},{"name":"B3","midi":59,"time":475.8310134921942,"velocity":0.8031496062992126,"duration":0.23437502343750793},{"name":"E5","midi":76,"time":476.0724907890692,"velocity":0.8031496062992126,"duration":0.35037882291669575},{"name":"C#3","midi":49,"time":476.0724907890692,"velocity":0.8031496062992126,"duration":0.23437502343750793},{"name":"B3","midi":59,"time":476.3139680859442,"velocity":0.8031496062992126,"duration":0.23437502343750793},{"name":"D5","midi":74,"time":476.55544538281924,"velocity":0.8031496062992126,"duration":0.47585232031252644},{"name":"F#3","midi":54,"time":476.55544538281924,"velocity":0.8031496062992126,"duration":0.23437502343750793},{"name":"B3","midi":59,"time":476.7945552552151,"velocity":0.8031496062992126,"duration":0.23437502343750793},{"name":"C#5","midi":73,"time":477.0360325520901,"velocity":0.8031496062992126,"duration":0.35037882291669575},{"name":"E3","midi":52,"time":477.0360325520901,"velocity":0.8031496062992126,"duration":0.23437502343750793},{"name":"B3","midi":59,"time":477.2775098489651,"velocity":0.8031496062992126,"duration":0.23437502343750793},{"name":"B4","midi":71,"time":477.51898714584013,"velocity":0.8031496062992126,"duration":0.3693182187499815},{"name":"D3","midi":50,"time":477.51898714584013,"velocity":0.8031496062992126,"duration":0.24621214583333995},{"name":"B3","midi":59,"time":477.7699341406318,"velocity":0.8031496062992126,"duration":0.24621214583333995},{"name":"E5","midi":76,"time":478.0256159843818,"velocity":0.8031496062992126,"duration":0.24621214583333995},{"name":"C#4","midi":61,"time":478.0256159843818,"velocity":0.8031496062992126,"duration":0.24621214583333995},{"name":"D5","midi":74,"time":478.28129782813176,"velocity":0.8031496062992126,"duration":0.24621214583333995},{"name":"B3","midi":59,"time":478.28129782813176,"velocity":0.8031496062992126,"duration":0.24621214583333995},{"name":"C#5","midi":73,"time":478.53697967188174,"velocity":0.8031496062992126,"duration":0.2888257864582897},{"name":"A#3","midi":58,"time":478.53697967188174,"velocity":0.8031496062992126,"duration":0.2888257864582897},{"name":"E5","midi":76,"time":478.7926615156317,"velocity":0.8031496062992126,"duration":0.2462121458332831},{"name":"C#4","midi":61,"time":478.7926615156317,"velocity":0.8031496062992126,"duration":0.2462121458332831},{"name":"B4","midi":71,"time":479.04834335938165,"velocity":0.8031496062992126,"duration":0.24621214583333995},{"name":"G3","midi":55,"time":479.04834335938165,"velocity":0.8031496062992126,"duration":0.24621214583333995},{"name":"E5","midi":76,"time":479.3063926276108,"velocity":0.8031496062992126,"duration":0.24621214583333995},{"name":"C#4","midi":61,"time":479.3063926276108,"velocity":0.8031496062992126,"duration":0.24621214583333995},{"name":"A#4","midi":70,"time":479.5620744713608,"velocity":0.8031496062992126,"duration":0.2888257864582897},{"name":"F#3","midi":54,"time":479.5620744713608,"velocity":0.8031496062992126,"duration":0.2888257864582897},{"name":"E5","midi":76,"time":479.8177563151108,"velocity":0.8031496062992126,"duration":0.2462121458332831},{"name":"C#4","midi":61,"time":479.8177563151108,"velocity":0.8031496062992126,"duration":0.2462121458332831},{"name":"G4","midi":67,"time":480.0734381588607,"velocity":0.8031496062992126,"duration":0.2888257864582897},{"name":"E3","midi":52,"time":480.0734381588607,"velocity":0.8031496062992126,"duration":0.2888257864582897},{"name":"E5","midi":76,"time":480.3291200026107,"velocity":0.8031496062992126,"duration":0.2462121458332831},{"name":"C#4","midi":61,"time":480.3291200026107,"velocity":0.8031496062992126,"duration":0.2462121458332831},{"name":"D3","midi":50,"time":480.5848018463606,"velocity":0.8031496062992126,"duration":0.2533144192708505},{"name":"F#4","midi":66,"time":480.5848018463606,"velocity":0.8031496062992126,"duration":0.2533144192708505},{"name":"B3","midi":59,"time":480.8475859635481,"velocity":0.8031496062992126,"duration":0.2533144192708505},{"name":"D5","midi":74,"time":480.8475859635481,"velocity":0.8031496062992126,"duration":0.2533144192708505},{"name":"G3","midi":55,"time":481.1103700807356,"velocity":0.8031496062992126,"duration":0.2533144192708505},{"name":"E4","midi":64,"time":481.1103700807356,"velocity":0.8031496062992126,"duration":0.2959280598958003},{"name":"E3","midi":52,"time":481.3731541979231,"velocity":0.8031496062992126,"duration":0.2533144192707937},{"name":"C#5","midi":73,"time":481.3731541979231,"velocity":0.8031496062992126,"duration":0.2533144192707937},{"name":"F#3","midi":54,"time":481.63593831511054,"velocity":0.8031496062992126,"duration":0.4616477734375053},{"name":"F#4","midi":66,"time":481.63593831511054,"velocity":0.8031496062992126,"duration":0.3787879166666812},{"name":"F#2","midi":42,"time":482.1662413984439,"velocity":0.8031496062992126,"duration":0.4734848958333373},{"name":"A#4","midi":70,"time":482.1662413984439,"velocity":0.8031496062992126,"duration":0.4734848958333373},{"name":"B2","midi":47,"time":482.7841391875064,"velocity":0.8031496062992126,"duration":1.8158145755208466},{"name":"B4","midi":71,"time":482.7841391875064,"velocity":0.8031496062992126,"duration":1.8158145755208466}],"controlChanges":{"7":[{"number":7,"time":0,"value":0.7874015748031497}]},"id":1,"name":"Ger.8l","instrumentNumber":7,"instrument":"clavi","instrumentFamily":"piano","channelNumber":0,"isPercussion":false}]}