{"header":{"PPQ":384,"timeSignature":[4,4],"bpm":120,"name":"--------"},"startTime":0,"duration":896.2200520833475,"tracks":[{"startTime":0,"duration":0,"length":0,"notes":[],"controlChanges":{},"id":0,"name":"--------"},{"startTime":0.4049479166666667,"duration":896.2200520833475,"length":6799,"notes":[{"name":"B4","midi":71,"time":0.4049479166666667,"velocity":0.8031496062992126,"duration":0.6041666666666665},{"name":"B4","midi":71,"time":1.01171875,"velocity":0.8031496062992126,"duration":0.19921875},{"name":"E4","midi":64,"time":1.21484375,"velocity":0.8031496062992126,"duration":0.40234375},{"name":"C5","midi":72,"time":1.6197916666666667,"velocity":0.8031496062992126,"duration":0.19921875},{"name":"B4","midi":71,"time":1.8216145833333335,"velocity":0.8031496062992126,"duration":0.19921875},{"name":"C5","midi":72,"time":2.0247395833333335,"velocity":0.8031496062992126,"duration":0.19921875},{"name":"A4","midi":69,"time":2.2265625,"velocity":0.8031496062992126,"duration":0.19921875},{"name":"D#4","midi":63,"time":2.4296875,"velocity":0.8031496062992126,"duration":0.40234375},{"name":"F#4","midi":66,"time":2.8346354166666665,"velocity":0.8031496062992126,"duration":0.6041666666666665},{"name":"F#4","midi":66,"time":3.4414062499999996,"velocity":0.8031496062992126,"duration":0.19921875},{"name":"B3","midi":59,"time":3.6445312499999996,"velocity":0.8031496062992126,"duration":0.40234375000000044},{"name":"B4","midi":71,"time":4.049479166666667,"velocity":0.8031496062992126,"duration":0.19921875},{"name":"A4","midi":69,"time":4.251302083333334,"velocity":0.8031496062992126,"duration":0.19921875},{"name":"B4","midi":71,"time":4.454427083333334,"velocity":0.8031496062992126,"duration":0.19921875},{"name":"F#4","midi":66,"time":4.656250000000001,"velocity":0.8031496062992126,"duration":0.19921875},{"name":"G4","midi":67,"time":4.859375000000001,"velocity":0.8031496062992126,"duration":0.19921875},{"name":"F#4","midi":66,"time":5.062500000000001,"velocity":0.8031496062992126,"duration":0.19921875},{"name":"G4","midi":67,"time":5.264322916666668,"velocity":0.8031496062992126,"duration":0.19921875},{"name":"E5","midi":76,"time":5.264322916666668,"velocity":0.8031496062992126,"duration":0.604166666666667},{"name":"A4","midi":69,"time":5.467447916666668,"velocity":0.8031496062992126,"duration":0.19921875},{"name":"G4","midi":67,"time":5.669270833333335,"velocity":0.8031496062992126,"duration":0.19921875},{"name":"F#4","midi":66,"time":5.872395833333335,"velocity":0.8031496062992126,"duration":0.19921875},{"name":"E5","midi":76,"time":5.872395833333335,"velocity":0.8031496062992126,"duration":0.19921875},{"name":"E4","midi":64,"time":6.074218750000002,"velocity":0.8031496062992126,"duration":0.19921875},{"name":"B4","midi":71,"time":6.074218750000002,"velocity":0.8031496062992126,"duration":0.40234375},{"name":"D4","midi":62,"time":6.277343750000002,"velocity":0.8031496062992126,"duration":0.19921875},{"name":"E4","midi":64,"time":6.479166666666669,"velocity":0.8031496062992126,"duration":0.19921875},{"name":"G5","midi":79,"time":6.479166666666669,"velocity":0.8031496062992126,"duration":0.19921875},{"name":"F#4","midi":66,"time":6.682291666666669,"velocity":0.8031496062992126,"duration":0.19921875},{"name":"F#5","midi":78,"time":6.682291666666669,"velocity":0.8031496062992126,"duration":0.19921875},{"name":"E4","midi":64,"time":6.884114583333336,"velocity":0.8031496062992126,"duration":0.19921875},{"name":"G5","midi":79,"time":6.884114583333336,"velocity":0.8031496062992126,"duration":0.19921875},{"name":"D4","midi":62,"time":7.087239583333336,"velocity":0.8031496062992126,"duration":0.19921875},{"name":"E5","midi":76,"time":7.087239583333336,"velocity":0.8031496062992126,"duration":0.19921875},{"name":"C#4","midi":61,"time":7.289062500000003,"velocity":0.8031496062992126,"duration":0.19921875},{"name":"A#4","midi":70,"time":7.289062500000003,"velocity":0.8031496062992126,"duration":0.40234375},{"name":"B3","midi":59,"time":7.492187500000003,"velocity":0.8031496062992126,"duration":0.19921875},{"name":"C#4","midi":61,"time":7.69401041666667,"velocity":0.8031496062992126,"duration":0.19921875},{"name":"C#5","midi":73,"time":7.69401041666667,"velocity":0.8031496062992126,"duration":0.6041666666666661},{"name":"D4","midi":62,"time":7.89713541666667,"velocity":0.8031496062992126,"duration":0.19921875},{"name":"C#4","midi":61,"time":8.098958333333336,"velocity":0.8031496062992126,"duration":0.19921875},{"name":"B3","midi":59,"time":8.302083333333336,"velocity":0.8031496062992126,"duration":0.19921875},{"name":"C#5","midi":73,"time":8.302083333333336,"velocity":0.8031496062992126,"duration":0.19921875},{"name":"A#3","midi":58,"time":8.503906250000002,"velocity":0.8031496062992126,"duration":0.19921875},{"name":"F#4","midi":66,"time":8.503906250000002,"velocity":0.8031496062992126,"duration":0.40234375},{"name":"G#3","midi":56,"time":8.707031250000002,"velocity":0.8031496062992126,"duration":0.19921875},{"name":"A#3","midi":58,"time":8.908854166666668,"velocity":0.8031496062992126,"duration":0.19921875},{"name":"F#5","midi":78,"time":8.908854166666668,"velocity":0.8031496062992126,"duration":0.19921875},{"name":"B3","midi":59,"time":9.111979166666668,"velocity":0.8031496062992126,"duration":0.19921875},{"name":"E5","midi":76,"time":9.111979166666668,"velocity":0.8031496062992126,"duration":0.19921875},{"name":"G#3","midi":56,"time":9.313802083333334,"velocity":0.8031496062992126,"duration":0.19921875},{"name":"F#5","midi":78,"time":9.313802083333334,"velocity":0.8031496062992126,"duration":0.19921875},{"name":"A#3","midi":58,"time":9.516927083333334,"velocity":0.8031496062992126,"duration":0.19921875},{"name":"C#5","midi":73,"time":9.516927083333334,"velocity":0.8031496062992126,"duration":0.19921875},{"name":"B3","midi":59,"time":9.71875,"velocity":0.8031496062992126,"duration":0.40234375},{"name":"D5","midi":74,"time":9.71875,"velocity":0.8031496062992126,"duration":0.19921875},{"name":"C#5","midi":73,"time":9.921875,"velocity":0.8031496062992126,"duration":0.19921875},{"name":"B4","midi":71,"time":10.125,"velocity":0.8031496062992126,"duration":0.6041666666666661},{"name":"D5","midi":74,"time":10.125,"velocity":0.8031496062992126,"duration":0.19921875},{"name":"E5","midi":76,"time":10.326822916666666,"velocity":0.8031496062992126,"duration":0.19921875},{"name":"D5","midi":74,"time":10.529947916666666,"velocity":0.8031496062992126,"duration":0.19921875},{"name":"A4","midi":69,"time":10.731770833333332,"velocity":0.8031496062992126,"duration":0.19921875},{"name":"C5","midi":72,"time":10.731770833333332,"velocity":0.8031496062992126,"duration":0.19921875},{"name":"G4","midi":67,"time":10.934895833333332,"velocity":0.8031496062992126,"duration":0.19921875},{"name":"B4","midi":71,"time":10.934895833333332,"velocity":0.8031496062992126,"duration":0.40234375},{"name":"F#4","midi":66,"time":11.136718749999998,"velocity":0.8031496062992126,"duration":0.19921875},{"name":"G4","midi":67,"time":11.339843749999998,"velocity":0.8031496062992126,"duration":0.19921875},{"name":"E5","midi":76,"time":11.339843749999998,"velocity":0.8031496062992126,"duration":0.6041666666666661},{"name":"A4","midi":69,"time":11.541666666666664,"velocity":0.8031496062992126,"duration":0.19921875},{"name":"G4","midi":67,"time":11.744791666666664,"velocity":0.8031496062992126,"duration":0.19921875},{"name":"F#4","midi":66,"time":11.94661458333333,"velocity":0.8031496062992126,"duration":0.19921875},{"name":"D5","midi":74,"time":11.94661458333333,"velocity":0.8031496062992126,"duration":0.19921875},{"name":"E4","midi":64,"time":12.14973958333333,"velocity":0.8031496062992126,"duration":0.40234375},{"name":"C5","midi":72,"time":12.14973958333333,"velocity":0.8031496062992126,"duration":0.19921875},{"name":"B4","midi":71,"time":12.351562499999996,"velocity":0.8031496062992126,"duration":0.19921875},{"name":"A4","midi":69,"time":12.554687499999996,"velocity":0.8031496062992126,"duration":0.6041666666666661},{"name":"C5","midi":72,"time":12.554687499999996,"velocity":0.8031496062992126,"duration":0.19921875},{"name":"D5","midi":74,"time":12.756510416666663,"velocity":0.8031496062992126,"duration":0.19921875},{"name":"C5","midi":72,"time":12.959635416666663,"velocity":0.8031496062992126,"duration":0.19921875},{"name":"G4","midi":67,"time":13.161458333333329,"velocity":0.8031496062992126,"duration":0.19921875},{"name":"B4","midi":71,"time":13.161458333333329,"velocity":0.8031496062992126,"duration":0.19921875},{"name":"F#4","midi":66,"time":13.364583333333329,"velocity":0.8031496062992126,"duration":0.19921875},{"name":"A4","midi":69,"time":13.364583333333329,"velocity":0.8031496062992126,"duration":0.40234375},{"name":"E4","midi":64,"time":13.566406249999995,"velocity":0.8031496062992126,"duration":0.19921875},{"name":"F#4","midi":66,"time":13.769531249999995,"velocity":0.8031496062992126,"duration":0.19921875},{"name":"A5","midi":81,"time":13.769531249999995,"velocity":0.8031496062992126,"duration":0.6041666666666661},{"name":"G4","midi":67,"time":13.97135416666666,"velocity":0.8031496062992126,"duration":0.19921875},{"name":"F#4","midi":66,"time":14.17447916666666,"velocity":0.8031496062992126,"duration":0.19921875},{"name":"E4","midi":64,"time":14.376302083333327,"velocity":0.8031496062992126,"duration":0.19921875},{"name":"A5","midi":81,"time":14.376302083333327,"velocity":0.8031496062992126,"duration":0.19921875},{"name":"D#4","midi":63,"time":14.579427083333327,"velocity":0.8031496062992126,"duration":0.40234375},{"name":"A5","midi":81,"time":14.579427083333327,"velocity":0.8031496062992126,"duration":0.19921875},{"name":"G5","midi":79,"time":14.781249999999993,"velocity":0.8031496062992126,"duration":0.19921875},{"name":"B3","midi":59,"time":14.984374999999993,"velocity":0.8031496062992126,"duration":0.6041666666666661},{"name":"D#4","midi":63,"time":14.984374999999993,"velocity":0.8031496062992126,"duration":0.6041666666666661},{"name":"A5","midi":81,"time":14.984374999999993,"velocity":0.8031496062992126,"duration":0.19921875},{"name":"C6","midi":84,"time":15.187499999999993,"velocity":0.8031496062992126,"duration":0.19921875},{"name":"B5","midi":83,"time":15.389322916666659,"velocity":0.8031496062992126,"duration":0.19921875},{"name":"B3","midi":59,"time":15.592447916666659,"velocity":0.8031496062992126,"duration":0.19921875},{"name":"D#4","midi":63,"time":15.592447916666659,"velocity":0.8031496062992126,"duration":0.19921875},{"name":"A5","midi":81,"time":15.592447916666659,"velocity":0.8031496062992126,"duration":0.19921875},{"name":"E3","midi":52,"time":15.794270833333325,"velocity":0.8031496062992126,"duration":0.40234375},{"name":"E4","midi":64,"time":15.794270833333325,"velocity":0.8031496062992126,"duration":0.80078125},{"name":"G5","midi":79,"time":15.794270833333325,"velocity":0.8031496062992126,"duration":0.19921875},{"name":"F#5","midi":78,"time":15.997395833333325,"velocity":0.8031496062992126,"duration":0.19921875},{"name":"C4","midi":60,"time":16.199218749999993,"velocity":0.8031496062992126,"duration":0.19921875},{"name":"G5","midi":79,"time":16.199218749999993,"velocity":0.8031496062992126,"duration":0.19921875},{"name":"B3","midi":59,"time":16.402343749999993,"velocity":0.8031496062992126,"duration":0.19921875},{"name":"B5","midi":83,"time":16.402343749999993,"velocity":0.8031496062992126,"duration":0.19921875},{"name":"C4","midi":60,"time":16.60416666666666,"velocity":0.8031496062992126,"duration":0.19921875},{"name":"A5","midi":81,"time":16.60416666666666,"velocity":0.8031496062992126,"duration":0.19921875},{"name":"A3","midi":57,"time":16.80729166666666,"velocity":0.8031496062992126,"duration":0.19921875},{"name":"G5","midi":79,"time":16.80729166666666,"velocity":0.8031496062992126,"duration":0.19921875},{"name":"D#3","midi":51,"time":17.00911458333333,"velocity":0.8031496062992126,"duration":0.40234375},{"name":"F#5","midi":78,"time":17.00911458333333,"velocity":0.8031496062992126,"duration":0.19921875},{"name":"E5","midi":76,"time":17.21223958333333,"velocity":0.8031496062992126,"duration":0.19921875},{"name":"F#3","midi":54,"time":17.414062499999996,"velocity":0.8031496062992126,"duration":0.6041666666666679},{"name":"A3","midi":57,"time":17.414062499999996,"velocity":0.8031496062992126,"duration":0.6041666666666679},{"name":"F#5","midi":78,"time":17.414062499999996,"velocity":0.8031496062992126,"duration":0.19921875},{"name":"G5","midi":79,"time":17.617187499999996,"velocity":0.8031496062992126,"duration":0.19921875},{"name":"F#5","midi":78,"time":17.819010416666664,"velocity":0.8031496062992126,"duration":0.19921875},{"name":"F#3","midi":54,"time":18.022135416666664,"velocity":0.8031496062992126,"duration":0.19921875},{"name":"A3","midi":57,"time":18.022135416666664,"velocity":0.8031496062992126,"duration":0.19921875},{"name":"E5","midi":76,"time":18.022135416666664,"velocity":0.8031496062992126,"duration":0.19921875},{"name":"B2","midi":47,"time":18.223958333333332,"velocity":0.8031496062992126,"duration":0.40234375},{"name":"A3","midi":57,"time":18.223958333333332,"velocity":0.8031496062992126,"duration":0.39973958333333215},{"name":"D#5","midi":75,"time":18.223958333333332,"velocity":0.8031496062992126,"duration":0.19921875},{"name":"C#5","midi":73,"time":18.427083333333332,"velocity":0.8031496062992126,"duration":0.19921875},{"name":"B3","midi":59,"time":18.62890625,"velocity":0.8031496062992126,"duration":0.19921875},{"name":"D#5","midi":75,"time":18.62890625,"velocity":0.8031496062992126,"duration":0.19921875},{"name":"A3","midi":57,"time":18.83203125,"velocity":0.8031496062992126,"duration":0.19921875},{"name":"E5","midi":76,"time":18.83203125,"velocity":0.8031496062992126,"duration":0.19921875},{"name":"B3","midi":59,"time":19.033854166666668,"velocity":0.8031496062992126,"duration":0.19921875},{"name":"C#5","midi":73,"time":19.033854166666668,"velocity":0.8031496062992126,"duration":0.19921875},{"name":"F#3","midi":54,"time":19.236979166666668,"velocity":0.8031496062992126,"duration":0.19921875},{"name":"D#5","midi":75,"time":19.236979166666668,"velocity":0.8031496062992126,"duration":0.19921875},{"name":"G3","midi":55,"time":19.438802083333336,"velocity":0.8031496062992126,"duration":0.19921875},{"name":"E5","midi":76,"time":19.438802083333336,"velocity":0.8031496062992126,"duration":0.19921875},{"name":"A3","midi":57,"time":19.641927083333336,"velocity":0.8031496062992126,"duration":0.19921875},{"name":"D#5","midi":75,"time":19.641927083333336,"velocity":0.8031496062992126,"duration":0.19921875},{"name":"G3","midi":55,"time":19.843750000000004,"velocity":0.8031496062992126,"duration":0.19921875},{"name":"E5","midi":76,"time":19.843750000000004,"velocity":0.8031496062992126,"duration":0.19921875},{"name":"F#3","midi":54,"time":20.046875000000004,"velocity":0.8031496062992126,"duration":0.19921875},{"name":"F#5","midi":78,"time":20.046875000000004,"velocity":0.8031496062992126,"duration":0.19921875},{"name":"E3","midi":52,"time":20.250000000000004,"velocity":0.8031496062992126,"duration":0.19921875},{"name":"G5","midi":79,"time":20.250000000000004,"velocity":0.8031496062992126,"duration":0.19921875},{"name":"G3","midi":55,"time":20.45182291666667,"velocity":0.8031496062992126,"duration":0.19921875},{"name":"E5","midi":76,"time":20.45182291666667,"velocity":0.8031496062992126,"duration":0.19921875},{"name":"A3","midi":57,"time":20.65494791666667,"velocity":0.8031496062992126,"duration":0.19921875},{"name":"C#5","midi":73,"time":20.65494791666667,"velocity":0.8031496062992126,"duration":0.19921875},{"name":"G#3","midi":56,"time":20.85677083333334,"velocity":0.8031496062992126,"duration":0.19921875},{"name":"D5","midi":74,"time":20.85677083333334,"velocity":0.8031496062992126,"duration":0.19921875},{"name":"A3","midi":57,"time":21.05989583333334,"velocity":0.8031496062992126,"duration":0.19921875},{"name":"C#5","midi":73,"time":21.05989583333334,"velocity":0.8031496062992126,"duration":0.19921875},{"name":"B3","midi":59,"time":21.261718750000007,"velocity":0.8031496062992126,"duration":0.19921875},{"name":"B4","midi":71,"time":21.261718750000007,"velocity":0.8031496062992126,"duration":0.19921875},{"name":"C#4","midi":61,"time":21.464843750000007,"velocity":0.8031496062992126,"duration":0.19921875},{"name":"A4","midi":69,"time":21.464843750000007,"velocity":0.8031496062992126,"duration":0.19921875},{"name":"A3","midi":57,"time":21.666666666666675,"velocity":0.8031496062992126,"duration":0.19921875},{"name":"C#5","midi":73,"time":21.666666666666675,"velocity":0.8031496062992126,"duration":0.19921875},{"name":"F#3","midi":54,"time":21.869791666666675,"velocity":0.8031496062992126,"duration":0.19921875},{"name":"D5","midi":74,"time":21.869791666666675,"velocity":0.8031496062992126,"duration":0.19921875},{"name":"G3","midi":55,"time":22.071614583333343,"velocity":0.8031496062992126,"duration":0.19921875},{"name":"C#5","midi":73,"time":22.071614583333343,"velocity":0.8031496062992126,"duration":0.19921875},{"name":"F#3","midi":54,"time":22.274739583333343,"velocity":0.8031496062992126,"duration":0.19921875},{"name":"D5","midi":74,"time":22.274739583333343,"velocity":0.8031496062992126,"duration":0.19921875},{"name":"E3","midi":52,"time":22.47656250000001,"velocity":0.8031496062992126,"duration":0.19921875},{"name":"E5","midi":76,"time":22.47656250000001,"velocity":0.8031496062992126,"duration":0.19921875},{"name":"D3","midi":50,"time":22.67968750000001,"velocity":0.8031496062992126,"duration":0.19921875},{"name":"F#5","midi":78,"time":22.67968750000001,"velocity":0.8031496062992126,"duration":0.19921875},{"name":"F#3","midi":54,"time":22.88151041666668,"velocity":0.8031496062992126,"duration":0.19921875},{"name":"D5","midi":74,"time":22.88151041666668,"velocity":0.8031496062992126,"duration":0.19921875},{"name":"G3","midi":55,"time":23.08463541666668,"velocity":0.8031496062992126,"duration":0.19921875},{"name":"B4","midi":71,"time":23.08463541666668,"velocity":0.8031496062992126,"duration":0.19921875},{"name":"F#3","midi":54,"time":23.286458333333346,"velocity":0.8031496062992126,"duration":0.19921875},{"name":"C5","midi":72,"time":23.286458333333346,"velocity":0.8031496062992126,"duration":0.19921875},{"name":"G3","midi":55,"time":23.489583333333346,"velocity":0.8031496062992126,"duration":0.19921875},{"name":"B4","midi":71,"time":23.489583333333346,"velocity":0.8031496062992126,"duration":0.19921875},{"name":"A3","midi":57,"time":23.691406250000014,"velocity":0.8031496062992126,"duration":0.19921875},{"name":"A4","midi":69,"time":23.691406250000014,"velocity":0.8031496062992126,"duration":0.19921875},{"name":"B3","midi":59,"time":23.894531250000014,"velocity":0.8031496062992126,"duration":0.19921875},{"name":"G4","midi":67,"time":23.894531250000014,"velocity":0.8031496062992126,"duration":0.19921875},{"name":"G3","midi":55,"time":24.096354166666682,"velocity":0.8031496062992126,"duration":0.19921875},{"name":"B4","midi":71,"time":24.096354166666682,"velocity":0.8031496062992126,"duration":0.19921875},{"name":"E3","midi":52,"time":24.299479166666682,"velocity":0.8031496062992126,"duration":0.19921875},{"name":"C#5","midi":73,"time":24.299479166666682,"velocity":0.8031496062992126,"duration":0.19921875},{"name":"F#3","midi":54,"time":24.50130208333335,"velocity":0.8031496062992126,"duration":0.19921875},{"name":"B4","midi":71,"time":24.50130208333335,"velocity":0.8031496062992126,"duration":0.19921875},{"name":"E3","midi":52,"time":24.70442708333335,"velocity":0.8031496062992126,"duration":0.19921875},{"name":"C#5","midi":73,"time":24.70442708333335,"velocity":0.8031496062992126,"duration":0.19921875},{"name":"D3","midi":50,"time":24.906250000000018,"velocity":0.8031496062992126,"duration":0.19921875},{"name":"D5","midi":74,"time":24.906250000000018,"velocity":0.8031496062992126,"duration":0.19921875},{"name":"C#3","midi":49,"time":25.109375000000018,"velocity":0.8031496062992126,"duration":0.19921875},{"name":"E5","midi":76,"time":25.109375000000018,"velocity":0.8031496062992126,"duration":0.19921875},{"name":"E3","midi":52,"time":25.312500000000018,"velocity":0.8031496062992126,"duration":0.19921875},{"name":"C#5","midi":73,"time":25.312500000000018,"velocity":0.8031496062992126,"duration":0.19921875},{"name":"F#3","midi":54,"time":25.514322916666686,"velocity":0.8031496062992126,"duration":0.19921875},{"name":"A#4","midi":70,"time":25.514322916666686,"velocity":0.8031496062992126,"duration":0.19921875},{"name":"G3","midi":55,"time":25.717447916666686,"velocity":0.8031496062992126,"duration":0.19921875},{"name":"B4","midi":71,"time":25.717447916666686,"velocity":0.8031496062992126,"duration":0.19921875},{"name":"F#3","midi":54,"time":25.919270833333353,"velocity":0.8031496062992126,"duration":0.19921875},{"name":"A#4","midi":70,"time":25.919270833333353,"velocity":0.8031496062992126,"duration":0.19921875},{"name":"E3","midi":52,"time":26.122395833333353,"velocity":0.8031496062992126,"duration":0.19921875},{"name":"G#4","midi":68,"time":26.122395833333353,"velocity":0.8031496062992126,"duration":0.19921875},{"name":"D3","midi":50,"time":26.32421875000002,"velocity":0.8031496062992126,"duration":0.19921875},{"name":"F#4","midi":66,"time":26.32421875000002,"velocity":0.8031496062992126,"duration":0.19921875},{"name":"C#3","midi":49,"time":26.52734375000002,"velocity":0.8031496062992126,"duration":0.19921875},{"name":"A#4","midi":70,"time":26.52734375000002,"velocity":0.8031496062992126,"duration":0.19921875},{"name":"D3","midi":50,"time":26.72916666666669,"velocity":0.8031496062992126,"duration":0.19921875},{"name":"B4","midi":71,"time":26.72916666666669,"velocity":0.8031496062992126,"duration":0.19921875},{"name":"E3","midi":52,"time":26.93229166666669,"velocity":0.8031496062992126,"duration":0.19921875},{"name":"A#4","midi":70,"time":26.93229166666669,"velocity":0.8031496062992126,"duration":0.19921875},{"name":"D3","midi":50,"time":27.134114583333357,"velocity":0.8031496062992126,"duration":0.19921875},{"name":"F#4","midi":66,"time":27.134114583333357,"velocity":0.8031496062992126,"duration":0.6041666666666679},{"name":"B4","midi":71,"time":27.134114583333357,"velocity":0.8031496062992126,"duration":0.19921875},{"name":"C#3","midi":49,"time":27.337239583333357,"velocity":0.8031496062992126,"duration":0.19921875},{"name":"C#5","midi":73,"time":27.337239583333357,"velocity":0.8031496062992126,"duration":0.19921875},{"name":"B2","midi":47,"time":27.539062500000025,"velocity":0.8031496062992126,"duration":0.19921875},{"name":"D5","midi":74,"time":27.539062500000025,"velocity":0.8031496062992126,"duration":0.19921875},{"name":"D3","midi":50,"time":27.742187500000025,"velocity":0.8031496062992126,"duration":0.19921875},{"name":"F#4","midi":66,"time":27.742187500000025,"velocity":0.8031496062992126,"duration":0.19921875},{"name":"B4","midi":71,"time":27.742187500000025,"velocity":0.8031496062992126,"duration":0.19921875},{"name":"E3","midi":52,"time":27.944010416666693,"velocity":0.8031496062992126,"duration":0.19921875},{"name":"B3","midi":59,"time":27.944010416666693,"velocity":0.8031496062992126,"duration":0.40234375},{"name":"G4","midi":67,"time":27.944010416666693,"velocity":0.8031496062992126,"duration":0.39973958333333215},{"name":"D3","midi":50,"time":28.147135416666693,"velocity":0.8031496062992126,"duration":0.19921875},{"name":"E3","midi":52,"time":28.34895833333336,"velocity":0.8031496062992126,"duration":0.19921875},{"name":"G4","midi":67,"time":28.34895833333336,"velocity":0.8031496062992126,"duration":0.19921875},{"name":"F#3","midi":54,"time":28.55208333333336,"velocity":0.8031496062992126,"duration":0.19921875},{"name":"F#4","midi":66,"time":28.55208333333336,"velocity":0.8031496062992126,"duration":0.19921875},{"name":"E3","midi":52,"time":28.75390625000003,"velocity":0.8031496062992126,"duration":0.19921875},{"name":"G4","midi":67,"time":28.75390625000003,"velocity":0.8031496062992126,"duration":0.58984375},{"name":"D3","midi":50,"time":28.95703125000003,"velocity":0.8031496062992126,"duration":0.19921875},{"name":"E4","midi":64,"time":28.95703125000003,"velocity":0.8031496062992126,"duration":0.19921875},{"name":"C#3","midi":49,"time":29.158854166666696,"velocity":0.8031496062992126,"duration":0.19921875},{"name":"A#3","midi":58,"time":29.158854166666696,"velocity":0.8031496062992126,"duration":0.40234375},{"name":"B2","midi":47,"time":29.361979166666696,"velocity":0.8031496062992126,"duration":0.19921875},{"name":"C#3","midi":49,"time":29.563802083333364,"velocity":0.8031496062992126,"duration":0.19921875},{"name":"C#4","midi":61,"time":29.563802083333364,"velocity":0.8031496062992126,"duration":0.6041666666666679},{"name":"E4","midi":64,"time":29.563802083333364,"velocity":0.8031496062992126,"duration":0.6041666666666679},{"name":"D3","midi":50,"time":29.766927083333364,"velocity":0.8031496062992126,"duration":0.19921875},{"name":"C#3","midi":49,"time":29.968750000000032,"velocity":0.8031496062992126,"duration":0.19921875},{"name":"B2","midi":47,"time":30.171875000000032,"velocity":0.8031496062992126,"duration":0.19921875},{"name":"C#4","midi":61,"time":30.171875000000032,"velocity":0.8031496062992126,"duration":0.19921875},{"name":"E4","midi":64,"time":30.171875000000032,"velocity":0.8031496062992126,"duration":0.19921875},{"name":"A#2","midi":46,"time":30.375000000000032,"velocity":0.8031496062992126,"duration":0.19921875},{"name":"F#3","midi":54,"time":30.375000000000032,"velocity":0.8031496062992126,"duration":1.2122395833333357},{"name":"E4","midi":64,"time":30.375000000000032,"velocity":0.8031496062992126,"duration":0.3997395833333357},{"name":"G#2","midi":44,"time":30.5768229166667,"velocity":0.8031496062992126,"duration":0.19921875},{"name":"A#2","midi":46,"time":30.7799479166667,"velocity":0.8031496062992126,"duration":0.19921875},{"name":"F#4","midi":66,"time":30.7799479166667,"velocity":0.8031496062992126,"duration":0.19921875},{"name":"B2","midi":47,"time":30.981770833333368,"velocity":0.8031496062992126,"duration":0.19921875},{"name":"E4","midi":64,"time":30.981770833333368,"velocity":0.8031496062992126,"duration":0.19921875},{"name":"G#2","midi":44,"time":31.184895833333368,"velocity":0.8031496062992126,"duration":0.19921875},{"name":"F#4","midi":66,"time":31.184895833333368,"velocity":0.8031496062992126,"duration":0.19921875},{"name":"A#2","midi":46,"time":31.386718750000036,"velocity":0.8031496062992126,"duration":0.19921875},{"name":"C#4","midi":61,"time":31.386718750000036,"velocity":0.8031496062992126,"duration":0.19921875},{"name":"B2","midi":47,"time":31.589843750000036,"velocity":0.8031496062992126,"duration":0.40234375},{"name":"D4","midi":62,"time":31.589843750000036,"velocity":0.8031496062992126,"duration":0.6041666666666643},{"name":"F#4","midi":66,"time":31.791666666666703,"velocity":0.8031496062992126,"duration":0.19921875},{"name":"B3","midi":59,"time":31.994791666666703,"velocity":0.8031496062992126,"duration":0.40234374999999645},{"name":"B4","midi":71,"time":31.994791666666703,"velocity":0.8031496062992126,"duration":1.009114583333325},{"name":"F#4","midi":66,"time":32.196614583333364,"velocity":0.8031496062992126,"duration":0.19921875},{"name":"B2","midi":47,"time":32.399739583333364,"velocity":0.8031496062992126,"duration":0.40234375},{"name":"E4","midi":64,"time":32.399739583333364,"velocity":0.8031496062992126,"duration":0.19921875},{"name":"D4","midi":62,"time":32.60156250000003,"velocity":0.8031496062992126,"duration":0.19921875},{"name":"B2","midi":47,"time":32.80468750000003,"velocity":0.8031496062992126,"duration":0.40234375},{"name":"E4","midi":64,"time":32.80468750000003,"velocity":0.8031496062992126,"duration":0.6041666666666643},{"name":"A#4","midi":70,"time":33.00651041666669,"velocity":0.8031496062992126,"duration":0.0989583333333357},{"name":"B4","midi":71,"time":33.10807291666669,"velocity":0.8031496062992126,"duration":0.0989583333333357},{"name":"B3","midi":59,"time":33.20963541666669,"velocity":0.8031496062992126,"duration":0.40234375},{"name":"C#5","midi":73,"time":33.20963541666669,"velocity":0.8031496062992126,"duration":1.0091145833333286},{"name":"G4","midi":67,"time":33.41145833333336,"velocity":0.8031496062992126,"duration":0.19921875},{"name":"B2","midi":47,"time":33.61458333333336,"velocity":0.8031496062992126,"duration":0.40234375},{"name":"F#4","midi":66,"time":33.61458333333336,"velocity":0.8031496062992126,"duration":0.19921875},{"name":"E4","midi":64,"time":33.81640625000002,"velocity":0.8031496062992126,"duration":0.19921875},{"name":"B2","midi":47,"time":34.01953125000002,"velocity":0.8031496062992126,"duration":0.40234375},{"name":"F#4","midi":66,"time":34.01953125000002,"velocity":0.8031496062992126,"duration":0.6041666666666643},{"name":"B4","midi":71,"time":34.221354166666686,"velocity":0.8031496062992126,"duration":0.0989583333333357},{"name":"C#5","midi":73,"time":34.322916666666686,"velocity":0.8031496062992126,"duration":0.0989583333333357},{"name":"B3","midi":59,"time":34.424479166666686,"velocity":0.8031496062992126,"duration":0.40234375},{"name":"D5","midi":74,"time":34.424479166666686,"velocity":0.8031496062992126,"duration":1.0091145833333286},{"name":"A4","midi":69,"time":34.62630208333335,"velocity":0.8031496062992126,"duration":0.19921875},{"name":"B2","midi":47,"time":34.82942708333335,"velocity":0.8031496062992126,"duration":0.40234375},{"name":"G4","midi":67,"time":34.82942708333335,"velocity":0.8031496062992126,"duration":0.19921875},{"name":"F#4","midi":66,"time":35.031250000000014,"velocity":0.8031496062992126,"duration":0.19921875},{"name":"B2","midi":47,"time":35.234375000000014,"velocity":0.8031496062992126,"duration":0.4023437500000071},{"name":"G4","midi":67,"time":35.234375000000014,"velocity":0.8031496062992126,"duration":0.6041666666666714},{"name":"C#5","midi":73,"time":35.437500000000014,"velocity":0.8031496062992126,"duration":0.0989583333333357},{"name":"D5","midi":74,"time":35.537760416666686,"velocity":0.8031496062992126,"duration":0.0989583333333357},{"name":"B3","midi":59,"time":35.639322916666686,"velocity":0.8031496062992126,"duration":0.40234375},{"name":"E5","midi":76,"time":35.639322916666686,"velocity":0.8031496062992126,"duration":1.0091145833333286},{"name":"D5","midi":74,"time":35.842447916666686,"velocity":0.8031496062992126,"duration":0.19921875},{"name":"B2","midi":47,"time":36.04427083333335,"velocity":0.8031496062992126,"duration":0.40234375},{"name":"C#5","midi":73,"time":36.04427083333335,"velocity":0.8031496062992126,"duration":0.19921875},{"name":"B4","midi":71,"time":36.24739583333335,"velocity":0.8031496062992126,"duration":0.19921875},{"name":"B2","midi":47,"time":36.449218750000014,"velocity":0.8031496062992126,"duration":0.40234375},{"name":"A#4","midi":70,"time":36.449218750000014,"velocity":0.8031496062992126,"duration":0.80078125},{"name":"C#5","midi":73,"time":36.652343750000014,"velocity":0.8031496062992126,"duration":0.19921875},{"name":"B3","midi":59,"time":36.85416666666668,"velocity":0.8031496062992126,"duration":0.40234375},{"name":"E5","midi":76,"time":36.85416666666668,"velocity":0.8031496062992126,"duration":0.19921875},{"name":"G5","midi":79,"time":37.05729166666668,"velocity":0.8031496062992126,"duration":0.19921875},{"name":"B2","midi":47,"time":37.25911458333334,"velocity":0.8031496062992126,"duration":0.40234375},{"name":"F#5","midi":78,"time":37.25911458333334,"velocity":0.8031496062992126,"duration":0.19921875},{"name":"E5","midi":76,"time":37.46223958333334,"velocity":0.8031496062992126,"duration":0.19921875},{"name":"B3","midi":59,"time":37.66406250000001,"velocity":0.8031496062992126,"duration":0.19921875},{"name":"D5","midi":74,"time":37.66406250000001,"velocity":0.8031496062992126,"duration":1.4153645833333286},{"name":"A#3","midi":58,"time":37.86718750000001,"velocity":0.8031496062992126,"duration":0.19921875},{"name":"C#5","midi":73,"time":37.86718750000001,"velocity":0.8031496062992126,"duration":0.19921875},{"name":"B3","midi":59,"time":38.06901041666667,"velocity":0.8031496062992126,"duration":0.19921875},{"name":"B4","midi":71,"time":38.06901041666667,"velocity":0.8031496062992126,"duration":0.19921875},{"name":"C#4","midi":61,"time":38.27213541666667,"velocity":0.8031496062992126,"duration":0.19921875},{"name":"A#4","midi":70,"time":38.27213541666667,"velocity":0.8031496062992126,"duration":0.19921875},{"name":"D4","midi":62,"time":38.473958333333336,"velocity":0.8031496062992126,"duration":0.19921875},{"name":"B4","midi":71,"time":38.473958333333336,"velocity":0.8031496062992126,"duration":0.19921875},{"name":"B3","midi":59,"time":38.677083333333336,"velocity":0.8031496062992126,"duration":0.19921875},{"name":"F#4","midi":66,"time":38.677083333333336,"velocity":0.8031496062992126,"duration":0.19921875},{"name":"E4","midi":64,"time":38.87890625,"velocity":0.8031496062992126,"duration":0.19921875},{"name":"G#4","midi":68,"time":38.87890625,"velocity":0.8031496062992126,"duration":0.80078125},{"name":"F4","midi":65,"time":39.08203125,"velocity":0.8031496062992126,"duration":0.19921875},{"name":"B4","midi":71,"time":39.08203125,"velocity":0.8031496062992126,"duration":0.19921875},{"name":"E4","midi":64,"time":39.283854166666664,"velocity":0.8031496062992126,"duration":0.19921875},{"name":"D5","midi":74,"time":39.283854166666664,"velocity":0.8031496062992126,"duration":0.19921875},{"name":"D4","midi":62,"time":39.486979166666664,"velocity":0.8031496062992126,"duration":0.19921875},{"name":"F5","midi":77,"time":39.486979166666664,"velocity":0.8031496062992126,"duration":0.19921875},{"name":"C4","midi":60,"time":39.68880208333333,"velocity":0.8031496062992126,"duration":0.19921875},{"name":"E5","midi":76,"time":39.68880208333333,"velocity":0.8031496062992126,"duration":0.19921875},{"name":"B3","midi":59,"time":39.89192708333333,"velocity":0.8031496062992126,"duration":0.19921875},{"name":"D5","midi":74,"time":39.89192708333333,"velocity":0.8031496062992126,"duration":0.19921875},{"name":"A3","midi":57,"time":40.09374999999999,"velocity":0.8031496062992126,"duration":0.19921875},{"name":"C5","midi":72,"time":40.09374999999999,"velocity":0.8031496062992126,"duration":1.4153645833333286},{"name":"G#3","midi":56,"time":40.29687499999999,"velocity":0.8031496062992126,"duration":0.19921875},{"name":"B4","midi":71,"time":40.29687499999999,"velocity":0.8031496062992126,"duration":0.19921875},{"name":"A3","midi":57,"time":40.49999999999999,"velocity":0.8031496062992126,"duration":0.19921875},{"name":"A4","midi":69,"time":40.49999999999999,"velocity":0.8031496062992126,"duration":0.19921875},{"name":"B3","midi":59,"time":40.70182291666666,"velocity":0.8031496062992126,"duration":0.19921875},{"name":"G#4","midi":68,"time":40.70182291666666,"velocity":0.8031496062992126,"duration":0.19921875},{"name":"C4","midi":60,"time":40.90494791666666,"velocity":0.8031496062992126,"duration":0.19921875},{"name":"A4","midi":69,"time":40.90494791666666,"velocity":0.8031496062992126,"duration":0.19921875},{"name":"A3","midi":57,"time":41.10677083333332,"velocity":0.8031496062992126,"duration":0.19921875},{"name":"E4","midi":64,"time":41.10677083333332,"velocity":0.8031496062992126,"duration":0.19921875},{"name":"D4","midi":62,"time":41.30989583333332,"velocity":0.8031496062992126,"duration":0.19921875},{"name":"F#4","midi":66,"time":41.30989583333332,"velocity":0.8031496062992126,"duration":0.8007812499999929},{"name":"E4","midi":64,"time":41.511718749999986,"velocity":0.8031496062992126,"duration":0.19921875},{"name":"A4","midi":69,"time":41.511718749999986,"velocity":0.8031496062992126,"duration":0.19921875},{"name":"D4","midi":62,"time":41.714843749999986,"velocity":0.8031496062992126,"duration":0.19921875},{"name":"C5","midi":72,"time":41.714843749999986,"velocity":0.8031496062992126,"duration":0.19921875},{"name":"C4","midi":60,"time":41.91666666666665,"velocity":0.8031496062992126,"duration":0.19921875},{"name":"E5","midi":76,"time":41.91666666666665,"velocity":0.8031496062992126,"duration":0.19921875},{"name":"B3","midi":59,"time":42.11979166666665,"velocity":0.8031496062992126,"duration":0.19921875},{"name":"D5","midi":74,"time":42.11979166666665,"velocity":0.8031496062992126,"duration":0.19921875},{"name":"A3","midi":57,"time":42.321614583333314,"velocity":0.8031496062992126,"duration":0.19921875},{"name":"C5","midi":72,"time":42.321614583333314,"velocity":0.8031496062992126,"duration":0.19921875},{"name":"G3","midi":55,"time":42.524739583333314,"velocity":0.8031496062992126,"duration":0.19921875},{"name":"B4","midi":71,"time":42.524739583333314,"velocity":0.8031496062992126,"duration":1.4153645833333286},{"name":"F#3","midi":54,"time":42.72656249999998,"velocity":0.8031496062992126,"duration":0.19921875},{"name":"A4","midi":69,"time":42.72656249999998,"velocity":0.8031496062992126,"duration":0.19921875},{"name":"G3","midi":55,"time":42.92968749999998,"velocity":0.8031496062992126,"duration":0.19921875},{"name":"G4","midi":67,"time":42.92968749999998,"velocity":0.8031496062992126,"duration":0.19921875},{"name":"A3","midi":57,"time":43.13151041666664,"velocity":0.8031496062992126,"duration":0.19921875},{"name":"F#4","midi":66,"time":43.13151041666664,"velocity":0.8031496062992126,"duration":0.19921875},{"name":"B3","midi":59,"time":43.33463541666664,"velocity":0.8031496062992126,"duration":0.19921875},{"name":"G4","midi":67,"time":43.33463541666664,"velocity":0.8031496062992126,"duration":0.19921875},{"name":"G3","midi":55,"time":43.53645833333331,"velocity":0.8031496062992126,"duration":0.19921875},{"name":"D#4","midi":63,"time":43.53645833333331,"velocity":0.8031496062992126,"duration":0.19921875},{"name":"C4","midi":60,"time":43.73958333333331,"velocity":0.8031496062992126,"duration":0.19921875},{"name":"E4","midi":64,"time":43.73958333333331,"velocity":0.8031496062992126,"duration":0.80078125},{"name":"D4","midi":62,"time":43.94140624999998,"velocity":0.8031496062992126,"duration":0.19921875},{"name":"G4","midi":67,"time":43.94140624999998,"velocity":0.8031496062992126,"duration":0.19921875},{"name":"C4","midi":60,"time":44.14453124999998,"velocity":0.8031496062992126,"duration":0.19921875},{"name":"B4","midi":71,"time":44.14453124999998,"velocity":0.8031496062992126,"duration":0.19921875},{"name":"B3","midi":59,"time":44.34635416666664,"velocity":0.8031496062992126,"duration":0.19921875},{"name":"D5","midi":74,"time":44.34635416666664,"velocity":0.8031496062992126,"duration":0.19921875},{"name":"A3","midi":57,"time":44.54947916666664,"velocity":0.8031496062992126,"duration":0.19921875},{"name":"C5","midi":72,"time":44.54947916666664,"velocity":0.8031496062992126,"duration":0.19921875},{"name":"G3","midi":55,"time":44.75130208333331,"velocity":0.8031496062992126,"duration":0.19921875},{"name":"B4","midi":71,"time":44.75130208333331,"velocity":0.8031496062992126,"duration":0.19921875},{"name":"F#3","midi":54,"time":44.95442708333331,"velocity":0.8031496062992126,"duration":0.19921875},{"name":"A4","midi":69,"time":44.95442708333331,"velocity":0.8031496062992126,"duration":1.617187499999993},{"name":"E3","midi":52,"time":45.15624999999997,"velocity":0.8031496062992126,"duration":0.19921875},{"name":"G4","midi":67,"time":45.15624999999997,"velocity":0.8031496062992126,"duration":0.19921875},{"name":"F#3","midi":54,"time":45.35937499999997,"velocity":0.8031496062992126,"duration":0.19921875},{"name":"F#4","midi":66,"time":45.35937499999997,"velocity":0.8031496062992126,"duration":0.19921875},{"name":"G3","midi":55,"time":45.56249999999997,"velocity":0.8031496062992126,"duration":0.19921875},{"name":"E4","midi":64,"time":45.56249999999997,"velocity":0.8031496062992126,"duration":0.19921875},{"name":"A3","midi":57,"time":45.764322916666636,"velocity":0.8031496062992126,"duration":0.19921875},{"name":"F#4","midi":66,"time":45.764322916666636,"velocity":0.8031496062992126,"duration":0.19921875},{"name":"F#3","midi":54,"time":45.967447916666636,"velocity":0.8031496062992126,"duration":0.19921875},{"name":"C#4","midi":61,"time":45.967447916666636,"velocity":0.8031496062992126,"duration":0.19921875},{"name":"B3","midi":59,"time":46.1692708333333,"velocity":0.8031496062992126,"duration":0.19921875},{"name":"D#4","midi":63,"time":46.1692708333333,"velocity":0.8031496062992126,"duration":0.40234375},{"name":"F#3","midi":54,"time":46.3723958333333,"velocity":0.8031496062992126,"duration":0.19921875},{"name":"A3","midi":57,"time":46.574218749999964,"velocity":0.8031496062992126,"duration":0.19921875},{"name":"D#5","midi":75,"time":46.574218749999964,"velocity":0.8031496062992126,"duration":0.6041666666666643},{"name":"F#5","midi":78,"time":46.574218749999964,"velocity":0.8031496062992126,"duration":0.6041666666666643},{"name":"B5","midi":83,"time":46.574218749999964,"velocity":0.8031496062992126,"duration":0.6041666666666643},{"name":"C4","midi":60,"time":46.777343749999964,"velocity":0.8031496062992126,"duration":0.19921875},{"name":"B3","midi":59,"time":46.97916666666663,"velocity":0.8031496062992126,"duration":0.19921875},{"name":"A3","midi":57,"time":47.18229166666663,"velocity":0.8031496062992126,"duration":0.19921875},{"name":"D#5","midi":75,"time":47.18229166666663,"velocity":0.8031496062992126,"duration":0.19921875},{"name":"F#5","midi":78,"time":47.18229166666663,"velocity":0.8031496062992126,"duration":0.19921875},{"name":"B5","midi":83,"time":47.18229166666663,"velocity":0.8031496062992126,"duration":0.19921875},{"name":"G3","midi":55,"time":47.38411458333329,"velocity":0.8031496062992126,"duration":0.19921875},{"name":"B4","midi":71,"time":47.38411458333329,"velocity":0.8031496062992126,"duration":0.40234375},{"name":"E5","midi":76,"time":47.38411458333329,"velocity":0.8031496062992126,"duration":0.40234375},{"name":"F#3","midi":54,"time":47.58723958333329,"velocity":0.8031496062992126,"duration":0.19921875},{"name":"G3","midi":55,"time":47.78906249999996,"velocity":0.8031496062992126,"duration":0.19921875},{"name":"E5","midi":76,"time":47.78906249999996,"velocity":0.8031496062992126,"duration":0.80078125},{"name":"A5","midi":81,"time":47.78906249999996,"velocity":0.8031496062992126,"duration":0.58984375},{"name":"C6","midi":84,"time":47.78906249999996,"velocity":0.8031496062992126,"duration":0.19921875},{"name":"B3","midi":59,"time":47.99218749999996,"velocity":0.8031496062992126,"duration":0.19921875},{"name":"B5","midi":83,"time":47.99218749999996,"velocity":0.8031496062992126,"duration":0.19921875},{"name":"A3","midi":57,"time":48.19401041666662,"velocity":0.8031496062992126,"duration":0.19921875},{"name":"C6","midi":84,"time":48.19401041666662,"velocity":0.8031496062992126,"duration":0.19921875},{"name":"G3","midi":55,"time":48.39713541666662,"velocity":0.8031496062992126,"duration":0.19921875},{"name":"A5","midi":81,"time":48.39713541666662,"velocity":0.8031496062992126,"duration":0.19921875},{"name":"F#3","midi":54,"time":48.598958333333286,"velocity":0.8031496062992126,"duration":0.19921875},{"name":"D#5","midi":75,"time":48.598958333333286,"velocity":0.8031496062992126,"duration":0.40234375},{"name":"E3","midi":52,"time":48.802083333333286,"velocity":0.8031496062992126,"duration":0.19921875},{"name":"F#3","midi":54,"time":49.00390624999995,"velocity":0.8031496062992126,"duration":0.19921875},{"name":"C5","midi":72,"time":49.00390624999995,"velocity":0.8031496062992126,"duration":0.80078125},{"name":"A4","midi":69,"time":49.00390624999995,"velocity":0.8031496062992126,"duration":0.80078125},{"name":"F#5","midi":78,"time":49.00390624999995,"velocity":0.8031496062992126,"duration":0.6041666666666643},{"name":"G3","midi":55,"time":49.20703124999995,"velocity":0.8031496062992126,"duration":0.19921875},{"name":"F#3","midi":54,"time":49.408854166666615,"velocity":0.8031496062992126,"duration":0.19921875},{"name":"E3","midi":52,"time":49.611979166666615,"velocity":0.8031496062992126,"duration":0.19921875},{"name":"F#5","midi":78,"time":49.611979166666615,"velocity":0.8031496062992126,"duration":0.19921875},{"name":"D#3","midi":51,"time":49.81380208333328,"velocity":0.8031496062992126,"duration":0.19921875},{"name":"B4","midi":71,"time":49.81380208333328,"velocity":0.8031496062992126,"duration":0.40234375},{"name":"C#3","midi":49,"time":50.01692708333328,"velocity":0.8031496062992126,"duration":0.19921875},{"name":"D#3","midi":51,"time":50.21874999999994,"velocity":0.8031496062992126,"duration":0.19921875},{"name":"F#5","midi":78,"time":50.21874999999994,"velocity":0.8031496062992126,"duration":0.58984375},{"name":"B4","midi":71,"time":50.21874999999994,"velocity":0.8031496062992126,"duration":0.80078125},{"name":"B5","midi":83,"time":50.21874999999994,"velocity":0.8031496062992126,"duration":0.19921875},{"name":"E3","midi":52,"time":50.42187499999994,"velocity":0.8031496062992126,"duration":0.19921875},{"name":"A5","midi":81,"time":50.42187499999994,"velocity":0.8031496062992126,"duration":0.19921875},{"name":"C#3","midi":49,"time":50.62499999999994,"velocity":0.8031496062992126,"duration":0.19921875},{"name":"B5","midi":83,"time":50.62499999999994,"velocity":0.8031496062992126,"duration":0.19921875},{"name":"D#3","midi":51,"time":50.82682291666661,"velocity":0.8031496062992126,"duration":0.19921875},{"name":"F#5","midi":78,"time":50.82682291666661,"velocity":0.8031496062992126,"duration":0.19921875},{"name":"E3","midi":52,"time":51.02994791666661,"velocity":0.8031496062992126,"duration":0.19921875},{"name":"G5","midi":79,"time":51.02994791666661,"velocity":0.8031496062992126,"duration":0.19921875},{"name":"B2","midi":47,"time":51.23177083333327,"velocity":0.8031496062992126,"duration":0.19921875},{"name":"A5","midi":81,"time":51.23177083333327,"velocity":0.8031496062992126,"duration":0.19921875},{"name":"E3","midi":52,"time":51.43489583333327,"velocity":0.8031496062992126,"duration":0.19921875},{"name":"G5","midi":79,"time":51.43489583333327,"velocity":0.8031496062992126,"duration":0.19921875},{"name":"F#3","midi":54,"time":51.636718749999936,"velocity":0.8031496062992126,"duration":0.19921875},{"name":"F#5","midi":78,"time":51.636718749999936,"velocity":0.8031496062992126,"duration":0.19921875},{"name":"G3","midi":55,"time":51.839843749999936,"velocity":0.8031496062992126,"duration":0.19921875},{"name":"E5","midi":76,"time":51.839843749999936,"velocity":0.8031496062992126,"duration":0.19921875},{"name":"E3","midi":52,"time":52.0416666666666,"velocity":0.8031496062992126,"duration":0.19921875},{"name":"G5","midi":79,"time":52.0416666666666,"velocity":0.8031496062992126,"duration":0.19921875},{"name":"C3","midi":48,"time":52.2447916666666,"velocity":0.8031496062992126,"duration":0.19921875},{"name":"A5","midi":81,"time":52.2447916666666,"velocity":0.8031496062992126,"duration":0.19921875},{"name":"D3","midi":50,"time":52.446614583333265,"velocity":0.8031496062992126,"duration":0.19921875},{"name":"G5","midi":79,"time":52.446614583333265,"velocity":0.8031496062992126,"duration":0.19921875},{"name":"C3","midi":48,"time":52.649739583333265,"velocity":0.8031496062992126,"duration":0.19921875},{"name":"A5","midi":81,"time":52.649739583333265,"velocity":0.8031496062992126,"duration":0.19921875},{"name":"B2","midi":47,"time":52.85156249999993,"velocity":0.8031496062992126,"duration":0.19921875},{"name":"B5","midi":83,"time":52.85156249999993,"velocity":0.8031496062992126,"duration":0.19921875},{"name":"A2","midi":45,"time":53.05468749999993,"velocity":0.8031496062992126,"duration":0.19921875},{"name":"C6","midi":84,"time":53.05468749999993,"velocity":0.8031496062992126,"duration":0.19921875},{"name":"C3","midi":48,"time":53.25651041666659,"velocity":0.8031496062992126,"duration":0.19921875},{"name":"A5","midi":81,"time":53.25651041666659,"velocity":0.8031496062992126,"duration":0.19921875},{"name":"D3","midi":50,"time":53.45963541666659,"velocity":0.8031496062992126,"duration":0.19921875},{"name":"F#5","midi":78,"time":53.45963541666659,"velocity":0.8031496062992126,"duration":0.19921875},{"name":"A2","midi":45,"time":53.66145833333326,"velocity":0.8031496062992126,"duration":0.19921875},{"name":"G5","midi":79,"time":53.66145833333326,"velocity":0.8031496062992126,"duration":0.19921875},{"name":"D3","midi":50,"time":53.86458333333326,"velocity":0.8031496062992126,"duration":0.19921875},{"name":"F#5","midi":78,"time":53.86458333333326,"velocity":0.8031496062992126,"duration":0.19921875},{"name":"E3","midi":52,"time":54.06640624999992,"velocity":0.8031496062992126,"duration":0.19921875},{"name":"E5","midi":76,"time":54.06640624999992,"velocity":0.8031496062992126,"duration":0.19921875},{"name":"F#3","midi":54,"time":54.26953124999992,"velocity":0.8031496062992126,"duration":0.19921875},{"name":"D5","midi":74,"time":54.26953124999992,"velocity":0.8031496062992126,"duration":0.19921875},{"name":"D3","midi":50,"time":54.471354166666586,"velocity":0.8031496062992126,"duration":0.19921875},{"name":"F#5","midi":78,"time":54.471354166666586,"velocity":0.8031496062992126,"duration":0.19921875},{"name":"B2","midi":47,"time":54.674479166666586,"velocity":0.8031496062992126,"duration":0.19921875},{"name":"G5","midi":79,"time":54.674479166666586,"velocity":0.8031496062992126,"duration":0.19921875},{"name":"C3","midi":48,"time":54.87630208333325,"velocity":0.8031496062992126,"duration":0.19921875},{"name":"F#5","midi":78,"time":54.87630208333325,"velocity":0.8031496062992126,"duration":0.19921875},{"name":"B2","midi":47,"time":55.07942708333325,"velocity":0.8031496062992126,"duration":0.19921875},{"name":"G5","midi":79,"time":55.07942708333325,"velocity":0.8031496062992126,"duration":0.19921875},{"name":"A2","midi":45,"time":55.281249999999915,"velocity":0.8031496062992126,"duration":0.19921875},{"name":"A5","midi":81,"time":55.281249999999915,"velocity":0.8031496062992126,"duration":0.19921875},{"name":"G2","midi":43,"time":55.484374999999915,"velocity":0.8031496062992126,"duration":0.19921875},{"name":"B5","midi":83,"time":55.484374999999915,"velocity":0.8031496062992126,"duration":0.19921875},{"name":"B2","midi":47,"time":55.687499999999915,"velocity":0.8031496062992126,"duration":0.19921875},{"name":"G5","midi":79,"time":55.687499999999915,"velocity":0.8031496062992126,"duration":0.19921875},{"name":"C3","midi":48,"time":55.88932291666658,"velocity":0.8031496062992126,"duration":0.19921875},{"name":"E5","midi":76,"time":55.88932291666658,"velocity":0.8031496062992126,"duration":0.19921875},{"name":"G2","midi":43,"time":56.09244791666658,"velocity":0.8031496062992126,"duration":0.19921875},{"name":"F#5","midi":78,"time":56.09244791666658,"velocity":0.8031496062992126,"duration":0.19921875},{"name":"C3","midi":48,"time":56.29427083333324,"velocity":0.8031496062992126,"duration":0.19921875},{"name":"E5","midi":76,"time":56.29427083333324,"velocity":0.8031496062992126,"duration":0.19921875},{"name":"D3","midi":50,"time":56.49739583333324,"velocity":0.8031496062992126,"duration":0.19921875},{"name":"D5","midi":74,"time":56.49739583333324,"velocity":0.8031496062992126,"duration":0.19921875},{"name":"E3","midi":52,"time":56.69921874999991,"velocity":0.8031496062992126,"duration":0.19921875},{"name":"C5","midi":72,"time":56.69921874999991,"velocity":0.8031496062992126,"duration":0.19921875},{"name":"C3","midi":48,"time":56.90234374999991,"velocity":0.8031496062992126,"duration":0.19921875},{"name":"E5","midi":76,"time":56.90234374999991,"velocity":0.8031496062992126,"duration":0.19921875},{"name":"A2","midi":45,"time":57.10416666666657,"velocity":0.8031496062992126,"duration":0.19921875},{"name":"F#5","midi":78,"time":57.10416666666657,"velocity":0.8031496062992126,"duration":0.19921875},{"name":"B2","midi":47,"time":57.30729166666657,"velocity":0.8031496062992126,"duration":0.19921875},{"name":"E5","midi":76,"time":57.30729166666657,"velocity":0.8031496062992126,"duration":0.19921875},{"name":"A2","midi":45,"time":57.509114583333236,"velocity":0.8031496062992126,"duration":0.19921875},{"name":"F#5","midi":78,"time":57.509114583333236,"velocity":0.8031496062992126,"duration":0.19921875},{"name":"G2","midi":43,"time":57.712239583333236,"velocity":0.8031496062992126,"duration":0.19921875},{"name":"G5","midi":79,"time":57.712239583333236,"velocity":0.8031496062992126,"duration":0.19921875},{"name":"F#2","midi":42,"time":57.9140624999999,"velocity":0.8031496062992126,"duration":0.19921875},{"name":"A5","midi":81,"time":57.9140624999999,"velocity":0.8031496062992126,"duration":0.19921875},{"name":"A2","midi":45,"time":58.1171874999999,"velocity":0.8031496062992126,"duration":0.19921875},{"name":"F#5","midi":78,"time":58.1171874999999,"velocity":0.8031496062992126,"duration":0.19921875},{"name":"B2","midi":47,"time":58.319010416666565,"velocity":0.8031496062992126,"duration":0.19921875},{"name":"D#5","midi":75,"time":58.319010416666565,"velocity":0.8031496062992126,"duration":0.40234375},{"name":"F#2","midi":42,"time":58.522135416666565,"velocity":0.8031496062992126,"duration":0.19921875},{"name":"A2","midi":45,"time":58.72395833333323,"velocity":0.8031496062992126,"duration":0.19921875},{"name":"B4","midi":71,"time":58.72395833333323,"velocity":0.8031496062992126,"duration":0.6041666666666643},{"name":"D#5","midi":75,"time":58.72395833333323,"velocity":0.8031496062992126,"duration":0.6041666666666643},{"name":"C3","midi":48,"time":58.92708333333323,"velocity":0.8031496062992126,"duration":0.19921875},{"name":"B2","midi":47,"time":59.12890624999989,"velocity":0.8031496062992126,"duration":0.19921875},{"name":"A2","midi":45,"time":59.33203124999989,"velocity":0.8031496062992126,"duration":0.19921875},{"name":"B4","midi":71,"time":59.33203124999989,"velocity":0.8031496062992126,"duration":0.19921875},{"name":"D#5","midi":75,"time":59.33203124999989,"velocity":0.8031496062992126,"duration":0.19921875},{"name":"G2","midi":43,"time":59.53385416666656,"velocity":0.8031496062992126,"duration":0.19921875},{"name":"E4","midi":64,"time":59.53385416666656,"velocity":0.8031496062992126,"duration":0.40234375},{"name":"E5","midi":76,"time":59.53385416666656,"velocity":0.8031496062992126,"duration":1.011718749999993},{"name":"F#2","midi":42,"time":59.73697916666656,"velocity":0.8031496062992126,"duration":0.19921875},{"name":"G2","midi":43,"time":59.93880208333322,"velocity":0.8031496062992126,"duration":0.19921875},{"name":"C5","midi":72,"time":59.93880208333322,"velocity":0.8031496062992126,"duration":0.19921875},{"name":"B2","midi":47,"time":60.14192708333322,"velocity":0.8031496062992126,"duration":0.19921875},{"name":"B4","midi":71,"time":60.14192708333322,"velocity":0.8031496062992126,"duration":0.19921875},{"name":"A2","midi":45,"time":60.343749999999886,"velocity":0.8031496062992126,"duration":0.19921875},{"name":"C5","midi":72,"time":60.343749999999886,"velocity":0.8031496062992126,"duration":0.19921875},{"name":"G2","midi":43,"time":60.546874999999886,"velocity":0.8031496062992126,"duration":0.19921875},{"name":"A4","midi":69,"time":60.546874999999886,"velocity":0.8031496062992126,"duration":0.19921875},{"name":"F#2","midi":42,"time":60.749999999999886,"velocity":0.8031496062992126,"duration":0.19921875},{"name":"D#4","midi":63,"time":60.749999999999886,"velocity":0.8031496062992126,"duration":0.40234375},{"name":"E2","midi":40,"time":60.95182291666655,"velocity":0.8031496062992126,"duration":0.19921875},{"name":"F#2","midi":42,"time":61.15494791666655,"velocity":0.8031496062992126,"duration":0.19921875},{"name":"F#4","midi":66,"time":61.15494791666655,"velocity":0.8031496062992126,"duration":0.6041666666666643},{"name":"A4","midi":69,"time":61.15494791666655,"velocity":0.8031496062992126,"duration":0.6041666666666643},{"name":"G2","midi":43,"time":61.356770833333215,"velocity":0.8031496062992126,"duration":0.19921875},{"name":"F#2","midi":42,"time":61.559895833333215,"velocity":0.8031496062992126,"duration":0.19921875},{"name":"E2","midi":40,"time":61.76171874999988,"velocity":0.8031496062992126,"duration":0.19921875},{"name":"F#4","midi":66,"time":61.76171874999988,"velocity":0.8031496062992126,"duration":0.19921875},{"name":"A4","midi":69,"time":61.76171874999988,"velocity":0.8031496062992126,"duration":0.19921875},{"name":"D#2","midi":39,"time":61.96484374999988,"velocity":0.8031496062992126,"duration":0.19921875},{"name":"F#4","midi":66,"time":61.96484374999988,"velocity":0.8031496062992126,"duration":0.9947916666666643},{"name":"B3","midi":59,"time":61.96484374999988,"velocity":0.8031496062992126,"duration":0.40234375},{"name":"A4","midi":69,"time":61.96484374999988,"velocity":0.8031496062992126,"duration":0.3997395833333286},{"name":"C#2","midi":37,"time":62.16666666666654,"velocity":0.8031496062992126,"duration":0.19921875},{"name":"D#2","midi":39,"time":62.36979166666654,"velocity":0.8031496062992126,"duration":0.19921875},{"name":"B4","midi":71,"time":62.36979166666654,"velocity":0.8031496062992126,"duration":0.19921875},{"name":"E2","midi":40,"time":62.57161458333321,"velocity":0.8031496062992126,"duration":0.19921875},{"name":"A4","midi":69,"time":62.57161458333321,"velocity":0.8031496062992126,"duration":0.19921875},{"name":"C#2","midi":37,"time":62.77473958333321,"velocity":0.8031496062992126,"duration":0.19921875},{"name":"B4","midi":71,"time":62.77473958333321,"velocity":0.8031496062992126,"duration":0.19921875},{"name":"D#2","midi":39,"time":62.97656249999987,"velocity":0.8031496062992126,"duration":0.19921875},{"name":"F#4","midi":66,"time":62.97656249999987,"velocity":0.8031496062992126,"duration":0.19921875},{"name":"E2","midi":40,"time":63.17968749999987,"velocity":0.8031496062992126,"duration":0.40234375},{"name":"G4","midi":67,"time":63.17968749999987,"velocity":0.8031496062992126,"duration":0.6041666666666643},{"name":"B4","midi":71,"time":63.381510416666536,"velocity":0.8031496062992126,"duration":0.19921875},{"name":"E3","midi":52,"time":63.584635416666536,"velocity":0.8031496062992126,"duration":0.40234375},{"name":"E5","midi":76,"time":63.584635416666536,"velocity":0.8031496062992126,"duration":1.0091145833333357},{"name":"B4","midi":71,"time":63.7864583333332,"velocity":0.8031496062992126,"duration":0.19921875},{"name":"E2","midi":40,"time":63.9895833333332,"velocity":0.8031496062992126,"duration":0.40234375},{"name":"A4","midi":69,"time":63.9895833333332,"velocity":0.8031496062992126,"duration":0.19921875},{"name":"G4","midi":67,"time":64.19140624999987,"velocity":0.8031496062992126,"duration":0.19921875},{"name":"E2","midi":40,"time":64.39453124999987,"velocity":0.8031496062992126,"duration":0.40234375},{"name":"A4","midi":69,"time":64.39453124999987,"velocity":0.8031496062992126,"duration":0.6041666666666714},{"name":"D#5","midi":75,"time":64.59635416666654,"velocity":0.8031496062992126,"duration":0.0989583333333286},{"name":"E5","midi":76,"time":64.69791666666654,"velocity":0.8031496062992126,"duration":0.0989583333333286},{"name":"E3","midi":52,"time":64.79947916666654,"velocity":0.8031496062992126,"duration":0.40234375},{"name":"F#5","midi":78,"time":64.79947916666654,"velocity":0.8031496062992126,"duration":1.0091145833333428},{"name":"C5","midi":72,"time":65.00130208333321,"velocity":0.8031496062992126,"duration":0.19921875},{"name":"E2","midi":40,"time":65.20442708333321,"velocity":0.8031496062992126,"duration":0.40234375},{"name":"B4","midi":71,"time":65.20442708333321,"velocity":0.8031496062992126,"duration":0.19921875},{"name":"A4","midi":69,"time":65.40624999999989,"velocity":0.8031496062992126,"duration":0.19921875},{"name":"E2","midi":40,"time":65.60937499999989,"velocity":0.8031496062992126,"duration":0.4023437499999858},{"name":"B4","midi":71,"time":65.60937499999989,"velocity":0.8031496062992126,"duration":0.6041666666666572},{"name":"E5","midi":76,"time":65.81249999999989,"velocity":0.8031496062992126,"duration":0.0989583333333286},{"name":"F#5","midi":78,"time":65.91276041666654,"velocity":0.8031496062992126,"duration":0.0989583333333286},{"name":"E3","midi":52,"time":66.01432291666654,"velocity":0.8031496062992126,"duration":0.40234375},{"name":"G5","midi":79,"time":66.01432291666654,"velocity":0.8031496062992126,"duration":1.0091145833333428},{"name":"D5","midi":74,"time":66.21744791666654,"velocity":0.8031496062992126,"duration":0.19921875},{"name":"E2","midi":40,"time":66.41927083333321,"velocity":0.8031496062992126,"duration":0.40234375},{"name":"C5","midi":72,"time":66.41927083333321,"velocity":0.8031496062992126,"duration":0.19921875},{"name":"B4","midi":71,"time":66.62239583333321,"velocity":0.8031496062992126,"duration":0.19921875},{"name":"E2","midi":40,"time":66.82421874999989,"velocity":0.8031496062992126,"duration":0.4023437499999858},{"name":"C5","midi":72,"time":66.82421874999989,"velocity":0.8031496062992126,"duration":0.6041666666666572},{"name":"F#5","midi":78,"time":67.02734374999989,"velocity":0.8031496062992126,"duration":0.0989583333333286},{"name":"G5","midi":79,"time":67.12760416666654,"velocity":0.8031496062992126,"duration":0.0989583333333286},{"name":"E3","midi":52,"time":67.22916666666654,"velocity":0.8031496062992126,"duration":0.40234375},{"name":"A5","midi":81,"time":67.22916666666654,"velocity":0.8031496062992126,"duration":1.0091145833333428},{"name":"G5","midi":79,"time":67.43229166666654,"velocity":0.8031496062992126,"duration":0.19921875},{"name":"E2","midi":40,"time":67.63411458333321,"velocity":0.8031496062992126,"duration":0.40234375},{"name":"F#5","midi":78,"time":67.63411458333321,"velocity":0.8031496062992126,"duration":0.19921875},{"name":"E5","midi":76,"time":67.83723958333321,"velocity":0.8031496062992126,"duration":0.19921875},{"name":"E2","midi":40,"time":68.03906249999989,"velocity":0.8031496062992126,"duration":0.40234375},{"name":"D#5","midi":75,"time":68.03906249999989,"velocity":0.8031496062992126,"duration":0.80078125},{"name":"F#5","midi":78,"time":68.24218749999989,"velocity":0.8031496062992126,"duration":0.19921875},{"name":"E3","midi":52,"time":68.44401041666656,"velocity":0.8031496062992126,"duration":0.40234375},{"name":"A5","midi":81,"time":68.44401041666656,"velocity":0.8031496062992126,"duration":0.19921875},{"name":"C6","midi":84,"time":68.64713541666656,"velocity":0.8031496062992126,"duration":0.19921875},{"name":"E2","midi":40,"time":68.84895833333323,"velocity":0.8031496062992126,"duration":0.40234375},{"name":"B5","midi":83,"time":68.84895833333323,"velocity":0.8031496062992126,"duration":0.19921875},{"name":"A5","midi":81,"time":69.05208333333323,"velocity":0.8031496062992126,"duration":0.19921875},{"name":"E3","midi":52,"time":69.2539062499999,"velocity":0.8031496062992126,"duration":0.19921875},{"name":"G5","midi":79,"time":69.2539062499999,"velocity":0.8031496062992126,"duration":0.19921875},{"name":"D#3","midi":51,"time":69.4570312499999,"velocity":0.8031496062992126,"duration":0.19921875},{"name":"F#5","midi":78,"time":69.4570312499999,"velocity":0.8031496062992126,"duration":0.19921875},{"name":"E3","midi":52,"time":69.65885416666657,"velocity":0.8031496062992126,"duration":0.19921875},{"name":"E5","midi":76,"time":69.65885416666657,"velocity":0.8031496062992126,"duration":0.19921875},{"name":"F#3","midi":54,"time":69.86197916666657,"velocity":0.8031496062992126,"duration":0.19921875},{"name":"D#5","midi":75,"time":69.86197916666657,"velocity":0.8031496062992126,"duration":0.19921875},{"name":"G3","midi":55,"time":70.06380208333324,"velocity":0.8031496062992126,"duration":0.19921875},{"name":"E5","midi":76,"time":70.06380208333324,"velocity":0.8031496062992126,"duration":0.19921875},{"name":"E3","midi":52,"time":70.26692708333324,"velocity":0.8031496062992126,"duration":0.19921875},{"name":"B4","midi":71,"time":70.26692708333324,"velocity":0.8031496062992126,"duration":0.19921875},{"name":"A3","midi":57,"time":70.46874999999991,"velocity":0.8031496062992126,"duration":0.19921875},{"name":"C5","midi":72,"time":70.46874999999991,"velocity":0.8031496062992126,"duration":1.4153645833333428},{"name":"B3","midi":59,"time":70.67187499999991,"velocity":0.8031496062992126,"duration":0.19921875},{"name":"E4","midi":64,"time":70.67187499999991,"velocity":0.8031496062992126,"duration":0.19921875},{"name":"A3","midi":57,"time":70.87499999999991,"velocity":0.8031496062992126,"duration":0.19921875},{"name":"G4","midi":67,"time":70.87499999999991,"velocity":0.8031496062992126,"duration":0.19921875},{"name":"G3","midi":55,"time":71.07682291666659,"velocity":0.8031496062992126,"duration":0.19921875},{"name":"B4","midi":71,"time":71.07682291666659,"velocity":0.8031496062992126,"duration":0.19921875},{"name":"F#3","midi":54,"time":71.27994791666659,"velocity":0.8031496062992126,"duration":0.19921875},{"name":"A4","midi":69,"time":71.27994791666659,"velocity":0.8031496062992126,"duration":0.19921875},{"name":"E3","midi":52,"time":71.48177083333326,"velocity":0.8031496062992126,"duration":0.19921875},{"name":"G4","midi":67,"time":71.48177083333326,"velocity":0.8031496062992126,"duration":0.19921875},{"name":"D3","midi":50,"time":71.68489583333326,"velocity":0.8031496062992126,"duration":0.19921875},{"name":"F#4","midi":66,"time":71.68489583333326,"velocity":0.8031496062992126,"duration":1.4153645833333428},{"name":"C3","midi":48,"time":71.88671874999993,"velocity":0.8031496062992126,"duration":0.19921875},{"name":"E5","midi":76,"time":71.88671874999993,"velocity":0.8031496062992126,"duration":0.19921875},{"name":"D3","midi":50,"time":72.08984374999993,"velocity":0.8031496062992126,"duration":0.19921875},{"name":"D5","midi":74,"time":72.08984374999993,"velocity":0.8031496062992126,"duration":0.19921875},{"name":"E3","midi":52,"time":72.2916666666666,"velocity":0.8031496062992126,"duration":0.19921875},{"name":"C5","midi":72,"time":72.2916666666666,"velocity":0.8031496062992126,"duration":0.19921875},{"name":"F#3","midi":54,"time":72.4947916666666,"velocity":0.8031496062992126,"duration":0.19921875},{"name":"D5","midi":74,"time":72.4947916666666,"velocity":0.8031496062992126,"duration":0.19921875},{"name":"D3","midi":50,"time":72.69661458333327,"velocity":0.8031496062992126,"duration":0.19921875},{"name":"A4","midi":69,"time":72.69661458333327,"velocity":0.8031496062992126,"duration":0.19921875},{"name":"G3","midi":55,"time":72.89973958333327,"velocity":0.8031496062992126,"duration":0.19921875},{"name":"B4","midi":71,"time":72.89973958333327,"velocity":0.8031496062992126,"duration":1.4153645833333286},{"name":"A3","midi":57,"time":73.10156249999993,"velocity":0.8031496062992126,"duration":0.19921875},{"name":"D4","midi":62,"time":73.10156249999993,"velocity":0.8031496062992126,"duration":0.19921875},{"name":"G3","midi":55,"time":73.30468749999993,"velocity":0.8031496062992126,"duration":0.19921875},{"name":"F4","midi":65,"time":73.30468749999993,"velocity":0.8031496062992126,"duration":0.19921875},{"name":"F3","midi":53,"time":73.5065104166666,"velocity":0.8031496062992126,"duration":0.19921875},{"name":"A4","midi":69,"time":73.5065104166666,"velocity":0.8031496062992126,"duration":0.19921875},{"name":"E3","midi":52,"time":73.7096354166666,"velocity":0.8031496062992126,"duration":0.19921875},{"name":"G4","midi":67,"time":73.7096354166666,"velocity":0.8031496062992126,"duration":0.19921875},{"name":"D3","midi":50,"time":73.91145833333327,"velocity":0.8031496062992126,"duration":0.19921875},{"name":"F4","midi":65,"time":73.91145833333327,"velocity":0.8031496062992126,"duration":0.19921875},{"name":"C3","midi":48,"time":74.11458333333327,"velocity":0.8031496062992126,"duration":0.19921875},{"name":"E4","midi":64,"time":74.11458333333327,"velocity":0.8031496062992126,"duration":1.4153645833333286},{"name":"B2","midi":47,"time":74.31640624999993,"velocity":0.8031496062992126,"duration":0.19921875},{"name":"D5","midi":74,"time":74.31640624999993,"velocity":0.8031496062992126,"duration":0.19921875},{"name":"C3","midi":48,"time":74.51953124999993,"velocity":0.8031496062992126,"duration":0.19921875},{"name":"C5","midi":72,"time":74.51953124999993,"velocity":0.8031496062992126,"duration":0.19921875},{"name":"D3","midi":50,"time":74.7213541666666,"velocity":0.8031496062992126,"duration":0.19921875},{"name":"B4","midi":71,"time":74.7213541666666,"velocity":0.8031496062992126,"duration":0.19921875},{"name":"E3","midi":52,"time":74.9244791666666,"velocity":0.8031496062992126,"duration":0.19921875},{"name":"C5","midi":72,"time":74.9244791666666,"velocity":0.8031496062992126,"duration":0.19921875},{"name":"C3","midi":48,"time":75.12630208333327,"velocity":0.8031496062992126,"duration":0.19921875},{"name":"G4","midi":67,"time":75.12630208333327,"velocity":0.8031496062992126,"duration":0.19921875},{"name":"F#3","midi":54,"time":75.32942708333327,"velocity":0.8031496062992126,"duration":0.19921875},{"name":"A4","midi":69,"time":75.32942708333327,"velocity":0.8031496062992126,"duration":1.4153645833333286},{"name":"G3","midi":55,"time":75.53124999999993,"velocity":0.8031496062992126,"duration":0.19921875},{"name":"D#4","midi":63,"time":75.53124999999993,"velocity":0.8031496062992126,"duration":0.19921875},{"name":"F#3","midi":54,"time":75.73437499999993,"velocity":0.8031496062992126,"duration":0.19921875},{"name":"E4","midi":64,"time":75.73437499999993,"velocity":0.8031496062992126,"duration":0.19921875},{"name":"E3","midi":52,"time":75.93749999999993,"velocity":0.8031496062992126,"duration":0.19921875},{"name":"G4","midi":67,"time":75.93749999999993,"velocity":0.8031496062992126,"duration":0.19921875},{"name":"D#3","midi":51,"time":76.1393229166666,"velocity":0.8031496062992126,"duration":0.19921875},{"name":"F#4","midi":66,"time":76.1393229166666,"velocity":0.8031496062992126,"duration":0.19921875},{"name":"C#3","midi":49,"time":76.3424479166666,"velocity":0.8031496062992126,"duration":0.19921875},{"name":"E4","midi":64,"time":76.3424479166666,"velocity":0.8031496062992126,"duration":0.19921875},{"name":"B2","midi":47,"time":76.54427083333327,"velocity":0.8031496062992126,"duration":0.80078125},{"name":"D#4","midi":63,"time":76.54427083333327,"velocity":0.8031496062992126,"duration":0.80078125},{"name":"C5","midi":72,"time":76.74739583333327,"velocity":0.8031496062992126,"duration":0.19921875},{"name":"B3","midi":59,"time":76.94921874999994,"velocity":0.8031496062992126,"duration":1.2122395833333428},{"name":"B4","midi":71,"time":76.94921874999994,"velocity":0.8031496062992126,"duration":0.19921875},{"name":"A4","midi":69,"time":77.15234374999994,"velocity":0.8031496062992126,"duration":0.19921875},{"name":"B2","midi":47,"time":77.35416666666661,"velocity":0.8031496062992126,"duration":0.40234375},{"name":"B4","midi":71,"time":77.35416666666661,"velocity":0.8031496062992126,"duration":0.19921875},{"name":"F#4","midi":66,"time":77.55729166666661,"velocity":0.8031496062992126,"duration":0.19921875},{"name":"B2","midi":47,"time":77.75911458333329,"velocity":0.8031496062992126,"duration":0.80078125},{"name":"G4","midi":67,"time":77.75911458333329,"velocity":0.8031496062992126,"duration":1.4153645833333428},{"name":"F#4","midi":66,"time":77.96223958333329,"velocity":0.8031496062992126,"duration":0.19921875},{"name":"B3","midi":59,"time":78.16406249999996,"velocity":0.8031496062992126,"duration":0.80078125},{"name":"E4","midi":64,"time":78.16406249999996,"velocity":0.8031496062992126,"duration":0.19921875},{"name":"D#4","midi":63,"time":78.36718749999996,"velocity":0.8031496062992126,"duration":0.19921875},{"name":"B2","midi":47,"time":78.56901041666663,"velocity":0.8031496062992126,"duration":0.40234375},{"name":"E4","midi":64,"time":78.56901041666663,"velocity":0.8031496062992126,"duration":0.19921875},{"name":"C#4","midi":61,"time":78.77213541666663,"velocity":0.8031496062992126,"duration":0.19921875},{"name":"B2","midi":47,"time":78.9739583333333,"velocity":0.8031496062992126,"duration":0.80078125},{"name":"A#3","midi":58,"time":78.9739583333333,"velocity":0.8031496062992126,"duration":0.3997395833333286},{"name":"G4","midi":67,"time":79.1770833333333,"velocity":0.8031496062992126,"duration":0.19921875},{"name":"A#3","midi":58,"time":79.37890624999997,"velocity":0.8031496062992126,"duration":0.80078125},{"name":"F#4","midi":66,"time":79.37890624999997,"velocity":0.8031496062992126,"duration":0.19921875},{"name":"E4","midi":64,"time":79.58203124999997,"velocity":0.8031496062992126,"duration":0.19921875},{"name":"B2","midi":47,"time":79.78385416666664,"velocity":0.8031496062992126,"duration":0.40234375},{"name":"F#4","midi":66,"time":79.78385416666664,"velocity":0.8031496062992126,"duration":0.19921875},{"name":"C#4","midi":61,"time":79.98697916666664,"velocity":0.8031496062992126,"duration":0.19921875},{"name":"B2","midi":47,"time":80.18880208333331,"velocity":0.8031496062992126,"duration":5.019531250000057},{"name":"D#4","midi":63,"time":80.18880208333331,"velocity":0.8031496062992126,"duration":1.4205729166666856},{"name":"C4","midi":60,"time":80.39192708333331,"velocity":0.8031496062992126,"duration":0.19921875},{"name":"B3","midi":59,"time":80.59374999999999,"velocity":0.8031496062992126,"duration":0.19921875},{"name":"A3","midi":57,"time":80.79687499999999,"velocity":0.8031496062992126,"duration":0.19921875},{"name":"B3","midi":59,"time":80.99999999999999,"velocity":0.8031496062992126,"duration":0.2018229166666714},{"name":"F#3","midi":54,"time":81.20442708333333,"velocity":0.8031496062992126,"duration":0.2018229166666714},{"name":"G3","midi":55,"time":81.40885416666667,"velocity":0.8031496062992126,"duration":1.8750000000000142},{"name":"B3","midi":59,"time":81.61328125,"velocity":0.8031496062992126,"duration":0.2018229166666714},{"name":"E4","midi":64,"time":81.81770833333334,"velocity":0.8031496062992126,"duration":0.2057291666666714},{"name":"F#4","midi":66,"time":82.02604166666669,"velocity":0.8031496062992126,"duration":0.2057291666666714},{"name":"G4","midi":67,"time":82.23567708333336,"velocity":0.8031496062992126,"duration":2.54296875},{"name":"C#4","midi":61,"time":82.44401041666669,"velocity":0.8031496062992126,"duration":0.2057291666666714},{"name":"E4","midi":64,"time":82.65364583333336,"velocity":0.8031496062992126,"duration":1.6927083333333286},{"name":"A#3","midi":58,"time":82.86458333333336,"velocity":0.8031496062992126,"duration":2.341145833333343},{"name":"C#4","midi":61,"time":83.07552083333336,"velocity":0.8031496062992126,"duration":1.2708333333333286},{"name":"E3","midi":52,"time":83.28645833333336,"velocity":0.8031496062992126,"duration":0.2083333333333286},{"name":"G3","midi":55,"time":83.49739583333336,"velocity":0.8031496062992126,"duration":0.2109375},{"name":"C#3","midi":49,"time":83.70963541666669,"velocity":0.8031496062992126,"duration":0.2109375},{"name":"E3","midi":52,"time":83.92317708333336,"velocity":0.8031496062992126,"duration":0.2109375},{"name":"G3","midi":55,"time":84.13541666666669,"velocity":0.8031496062992126,"duration":1.079427083333357},{"name":"C#4","midi":61,"time":84.34895833333336,"velocity":0.8031496062992126,"duration":0.21484375},{"name":"E4","midi":64,"time":84.56640625000003,"velocity":0.8031496062992126,"duration":0.21484375},{"name":"G4","midi":67,"time":84.7838541666667,"velocity":0.8031496062992126,"duration":0.21484375},{"name":"A#4","midi":70,"time":85.00130208333337,"velocity":0.8031496062992126,"duration":0.21484375},{"name":"F#3","midi":54,"time":85.21875000000004,"velocity":0.8031496062992126,"duration":0.4192708333333428},{"name":"B4","midi":71,"time":85.21875000000004,"velocity":0.8031496062992126,"duration":0.4166666666666714},{"name":"D#4","midi":63,"time":85.21875000000004,"velocity":0.8031496062992126,"duration":0.2083333333333286},{"name":"F#4","midi":66,"time":85.21875000000004,"velocity":0.8031496062992126,"duration":0.4166666666666714},{"name":"B3","midi":59,"time":85.42968750000004,"velocity":0.8031496062992126,"duration":0.2083333333333428},{"name":"B3","midi":59,"time":85.64062500000006,"velocity":0.8031496062992126,"duration":0.6236979166666714},{"name":"C#4","midi":61,"time":85.64062500000006,"velocity":0.8031496062992126,"duration":0.2083333333333286},{"name":"D#4","midi":63,"time":85.85156250000006,"velocity":0.8031496062992126,"duration":0.2083333333333286},{"name":"E4","midi":64,"time":86.06250000000006,"velocity":0.8031496062992126,"duration":0.2018229166666714},{"name":"B3","midi":59,"time":86.2669270833334,"velocity":0.8031496062992126,"duration":0.2018229166666714},{"name":"F#4","midi":66,"time":86.2669270833334,"velocity":0.8031496062992126,"duration":0.2018229166666714},{"name":"E3","midi":52,"time":86.47135416666674,"velocity":0.8031496062992126,"duration":0.4062500000000142},{"name":"G4","midi":67,"time":86.47135416666674,"velocity":0.8031496062992126,"duration":0.2018229166666714},{"name":"E4","midi":64,"time":86.67578125000009,"velocity":0.8031496062992126,"duration":0.2018229166666714},{"name":"C4","midi":60,"time":86.88020833333343,"velocity":0.8031496062992126,"duration":0.2018229166666714},{"name":"F#4","midi":66,"time":86.88020833333343,"velocity":0.8031496062992126,"duration":0.2018229166666714},{"name":"B3","midi":59,"time":87.08463541666677,"velocity":0.8031496062992126,"duration":0.2018229166666714},{"name":"G4","midi":67,"time":87.08463541666677,"velocity":0.8031496062992126,"duration":0.2018229166666714},{"name":"C4","midi":60,"time":87.28906250000011,"velocity":0.8031496062992126,"duration":0.2018229166666714},{"name":"A4","midi":69,"time":87.28906250000011,"velocity":0.8031496062992126,"duration":0.2018229166666714},{"name":"A3","midi":57,"time":87.49348958333346,"velocity":0.8031496062992126,"duration":0.2018229166666714},{"name":"B4","midi":71,"time":87.49348958333346,"velocity":0.8031496062992126,"duration":0.2018229166666714},{"name":"D#3","midi":51,"time":87.69921875000013,"velocity":0.8031496062992126,"duration":0.40625},{"name":"C5","midi":72,"time":87.69921875000013,"velocity":0.8031496062992126,"duration":1.4296875000000426},{"name":"B4","midi":71,"time":87.90364583333346,"velocity":0.8031496062992126,"duration":0.2018229166666714},{"name":"F#3","midi":54,"time":88.1080729166668,"velocity":0.8031496062992126,"duration":0.610677083333357},{"name":"A4","midi":69,"time":88.1080729166668,"velocity":0.8031496062992126,"duration":0.2018229166666714},{"name":"G4","midi":67,"time":88.31250000000014,"velocity":0.8031496062992126,"duration":0.2018229166666714},{"name":"F#4","midi":66,"time":88.51692708333348,"velocity":0.8031496062992126,"duration":0.2018229166666714},{"name":"F#3","midi":54,"time":88.72135416666683,"velocity":0.8031496062992126,"duration":0.2018229166666714},{"name":"E4","midi":64,"time":88.72135416666683,"velocity":0.8031496062992126,"duration":0.2018229166666714},{"name":"B2","midi":47,"time":88.92578125000017,"velocity":0.8031496062992126,"duration":0.40625},{"name":"D#4","midi":63,"time":88.92578125000017,"velocity":0.8031496062992126,"duration":0.8098958333333428},{"name":"F#4","midi":66,"time":89.13151041666684,"velocity":0.8031496062992126,"duration":0.2018229166666572},{"name":"B3","midi":59,"time":89.33593750000017,"velocity":0.8031496062992126,"duration":0.2018229166666714},{"name":"A4","midi":69,"time":89.33593750000017,"velocity":0.8031496062992126,"duration":0.2018229166666714},{"name":"A3","midi":57,"time":89.54036458333351,"velocity":0.8031496062992126,"duration":0.2018229166666714},{"name":"C5","midi":72,"time":89.54036458333351,"velocity":0.8031496062992126,"duration":0.2018229166666714},{"name":"B3","midi":59,"time":89.74479166666686,"velocity":0.8031496062992126,"duration":0.2018229166666714},{"name":"D#4","midi":63,"time":89.74479166666686,"velocity":0.8031496062992126,"duration":0.4049479166666714},{"name":"F#3","midi":54,"time":89.9492187500002,"velocity":0.8031496062992126,"duration":0.2018229166666572},{"name":"F#4","midi":66,"time":89.9492187500002,"velocity":0.8031496062992126,"duration":0.2018229166666572},{"name":"G3","midi":55,"time":90.15364583333353,"velocity":0.8031496062992126,"duration":0.40625},{"name":"E4","midi":64,"time":90.15364583333353,"velocity":0.8031496062992126,"duration":0.5989583333333428},{"name":"G4","midi":67,"time":90.35807291666686,"velocity":0.8031496062992126,"duration":0.2018229166666714},{"name":"A3","midi":57,"time":90.56380208333353,"velocity":0.8031496062992126,"duration":0.1002604166666714},{"name":"B4","midi":71,"time":90.56380208333353,"velocity":0.8031496062992126,"duration":0.2044270833333428},{"name":"G#3","midi":56,"time":90.66666666666687,"velocity":0.8031496062992126,"duration":0.1002604166666714},{"name":"A3","midi":57,"time":90.7695312500002,"velocity":0.8031496062992126,"duration":0.1002604166666714},{"name":"E5","midi":76,"time":90.7695312500002,"velocity":0.8031496062992126,"duration":0.40625},{"name":"G#3","midi":56,"time":90.87369791666687,"velocity":0.8031496062992126,"duration":0.3046875},{"name":"E4","midi":64,"time":90.9765625000002,"velocity":0.8031496062992126,"duration":0.2018229166666714},{"name":"G#3","midi":56,"time":91.18098958333354,"velocity":0.8031496062992126,"duration":0.2018229166666714},{"name":"D5","midi":74,"time":91.18098958333354,"velocity":0.8031496062992126,"duration":0.2018229166666714},{"name":"A3","midi":57,"time":91.38541666666688,"velocity":0.8031496062992126,"duration":0.40625},{"name":"C5","midi":72,"time":91.38541666666688,"velocity":0.8031496062992126,"duration":0.8098958333333428},{"name":"E5","midi":76,"time":91.59114583333356,"velocity":0.8031496062992126,"duration":0.2018229166666572},{"name":"C4","midi":60,"time":91.79557291666688,"velocity":0.8031496062992126,"duration":0.610677083333357},{"name":"A5","midi":81,"time":91.79557291666688,"velocity":0.8031496062992126,"duration":0.2018229166666714},{"name":"C6","midi":84,"time":92.00000000000023,"velocity":0.8031496062992126,"duration":0.2018229166666714},{"name":"F#5","midi":78,"time":92.20442708333357,"velocity":0.8031496062992126,"duration":0.2018229166666714},{"name":"C4","midi":60,"time":92.40885416666691,"velocity":0.8031496062992126,"duration":0.2018229166666714},{"name":"A5","midi":81,"time":92.40885416666691,"velocity":0.8031496062992126,"duration":0.2018229166666714},{"name":"B3","midi":59,"time":92.61328125000026,"velocity":0.8031496062992126,"duration":0.2018229166666714},{"name":"D#5","midi":75,"time":92.61328125000026,"velocity":0.8031496062992126,"duration":0.2018229166666714},{"name":"C4","midi":60,"time":92.8177083333336,"velocity":0.8031496062992126,"duration":0.2018229166666714},{"name":"F#5","midi":78,"time":92.8177083333336,"velocity":0.8031496062992126,"duration":0.2018229166666714},{"name":"B3","midi":59,"time":93.02343750000027,"velocity":0.8031496062992126,"duration":0.2018229166666714},{"name":"B4","midi":71,"time":93.02343750000027,"velocity":0.8031496062992126,"duration":0.2018229166666714},{"name":"A3","midi":57,"time":93.22786458333361,"velocity":0.8031496062992126,"duration":0.2018229166666714},{"name":"D#5","midi":75,"time":93.22786458333361,"velocity":0.8031496062992126,"duration":0.2018229166666714},{"name":"G3","midi":55,"time":93.43229166666696,"velocity":0.8031496062992126,"duration":0.2018229166666714},{"name":"E5","midi":76,"time":93.43229166666696,"velocity":0.8031496062992126,"duration":0.610677083333357},{"name":"F#3","midi":54,"time":93.6367187500003,"velocity":0.8031496062992126,"duration":0.2018229166666714},{"name":"A4","midi":69,"time":93.6367187500003,"velocity":0.8031496062992126,"duration":0.2018229166666714},{"name":"E3","midi":52,"time":93.84114583333364,"velocity":0.8031496062992126,"duration":0.2018229166666714},{"name":"G4","midi":67,"time":93.84114583333364,"velocity":0.8031496062992126,"duration":0.2018229166666714},{"name":"A3","midi":57,"time":94.04557291666698,"velocity":0.8031496062992126,"duration":0.2018229166666714},{"name":"E5","midi":76,"time":94.04557291666698,"velocity":0.8031496062992126,"duration":0.2018229166666714},{"name":"F#5","midi":78,"time":94.04557291666698,"velocity":0.8031496062992126,"duration":0.2018229166666714},{"name":"B3","midi":59,"time":94.25000000000033,"velocity":0.8031496062992126,"duration":0.4049479166666856},{"name":"D#5","midi":75,"time":94.25000000000033,"velocity":0.8031496062992126,"duration":0.8072916666666998},{"name":"G5","midi":79,"time":94.25000000000033,"velocity":0.8031496062992126,"duration":0.1341145833333286},{"name":"F#5","midi":78,"time":94.38802083333366,"velocity":0.8031496062992126,"duration":0.0651041666666714},{"name":"G5","midi":79,"time":94.45442708333366,"velocity":0.8031496062992126,"duration":0.0651041666666714},{"name":"F#5","midi":78,"time":94.522135416667,"velocity":0.8031496062992126,"duration":0.0651041666666714},{"name":"G5","midi":79,"time":94.58984375000034,"velocity":0.8031496062992126,"duration":0.0651041666666714},{"name":"B2","midi":47,"time":94.65755208333368,"velocity":0.8031496062992126,"duration":0.4062500000000142},{"name":"F#5","midi":78,"time":94.65755208333368,"velocity":0.8031496062992126,"duration":0.2018229166666714},{"name":"E5","midi":76,"time":94.86197916666703,"velocity":0.8031496062992126,"duration":0.2018229166666714},{"name":"E2","midi":40,"time":95.06640625000037,"velocity":0.8031496062992126,"duration":1.2122395833333428},{"name":"E5","midi":76,"time":95.06640625000037,"velocity":0.8031496062992126,"duration":0.19921875},{"name":"D#5","midi":75,"time":95.26953125000037,"velocity":0.8031496062992126,"duration":0.19921875},{"name":"E5","midi":76,"time":95.47135416666704,"velocity":0.8031496062992126,"duration":0.19921875},{"name":"G5","midi":79,"time":95.67447916666704,"velocity":0.8031496062992126,"duration":0.19921875},{"name":"B5","midi":83,"time":95.87630208333371,"velocity":0.8031496062992126,"duration":0.19921875},{"name":"G5","midi":79,"time":96.07942708333371,"velocity":0.8031496062992126,"duration":0.19921875},{"name":"E5","midi":76,"time":96.28125000000038,"velocity":0.8031496062992126,"duration":0.19921875},{"name":"B5","midi":83,"time":96.48437500000038,"velocity":0.8031496062992126,"duration":0.19921875},{"name":"E3","midi":52,"time":96.68619791666706,"velocity":0.8031496062992126,"duration":0.40234375},{"name":"G3","midi":55,"time":96.68619791666706,"velocity":0.8031496062992126,"duration":0.40234375},{"name":"G5","midi":79,"time":96.68619791666706,"velocity":0.8031496062992126,"duration":0.19921875},{"name":"E5","midi":76,"time":96.88932291666706,"velocity":0.8031496062992126,"duration":0.19921875},{"name":"F#3","midi":54,"time":97.09114583333373,"velocity":0.8031496062992126,"duration":0.40234375},{"name":"A3","midi":57,"time":97.09114583333373,"velocity":0.8031496062992126,"duration":0.40234375},{"name":"B4","midi":71,"time":97.09114583333373,"velocity":0.8031496062992126,"duration":0.19921875},{"name":"C5","midi":72,"time":97.29427083333373,"velocity":0.8031496062992126,"duration":0.19921875},{"name":"B3","midi":59,"time":97.49739583333373,"velocity":0.8031496062992126,"duration":0.8007812500000142},{"name":"G#3","midi":56,"time":97.49739583333373,"velocity":0.8031496062992126,"duration":0.8007812500000142},{"name":"D5","midi":74,"time":97.49739583333373,"velocity":0.8031496062992126,"duration":0.19921875},{"name":"C5","midi":72,"time":97.6992187500004,"velocity":0.8031496062992126,"duration":0.19921875},{"name":"D5","midi":74,"time":97.9023437500004,"velocity":0.8031496062992126,"duration":0.19921875},{"name":"F5","midi":77,"time":98.10416666666707,"velocity":0.8031496062992126,"duration":0.19921875},{"name":"B5","midi":83,"time":98.30729166666707,"velocity":0.8031496062992126,"duration":0.19921875},{"name":"F5","midi":77,"time":98.50911458333374,"velocity":0.8031496062992126,"duration":0.19921875},{"name":"D5","midi":74,"time":98.71223958333374,"velocity":0.8031496062992126,"duration":0.19921875},{"name":"B5","midi":83,"time":98.91406250000041,"velocity":0.8031496062992126,"duration":0.19921875},{"name":"G#3","midi":56,"time":99.11718750000041,"velocity":0.8031496062992126,"duration":0.40234375},{"name":"B3","midi":59,"time":99.11718750000041,"velocity":0.8031496062992126,"duration":0.40234375},{"name":"F5","midi":77,"time":99.11718750000041,"velocity":0.8031496062992126,"duration":0.19921875},{"name":"D5","midi":74,"time":99.31901041666708,"velocity":0.8031496062992126,"duration":0.19921875},{"name":"E3","midi":52,"time":99.52213541666708,"velocity":0.8031496062992126,"duration":0.40234375},{"name":"G#3","midi":56,"time":99.52213541666708,"velocity":0.8031496062992126,"duration":0.40234375},{"name":"B4","midi":71,"time":99.52213541666708,"velocity":0.8031496062992126,"duration":0.19921875},{"name":"D5","midi":74,"time":99.72395833333375,"velocity":0.8031496062992126,"duration":0.19921875},{"name":"A3","midi":57,"time":99.92708333333375,"velocity":0.8031496062992126,"duration":0.19921875},{"name":"C5","midi":72,"time":99.92708333333375,"velocity":0.8031496062992126,"duration":1.2122395833333428},{"name":"A4","midi":69,"time":99.92708333333375,"velocity":0.8031496062992126,"duration":1.2122395833333428},{"name":"G#3","midi":56,"time":100.12890625000043,"velocity":0.8031496062992126,"duration":0.19921875},{"name":"A3","midi":57,"time":100.33203125000043,"velocity":0.8031496062992126,"duration":0.19921875},{"name":"C4","midi":60,"time":100.5338541666671,"velocity":0.8031496062992126,"duration":0.19921875},{"name":"E4","midi":64,"time":100.7369791666671,"velocity":0.8031496062992126,"duration":0.19921875},{"name":"C4","midi":60,"time":100.93880208333377,"velocity":0.8031496062992126,"duration":0.19921875},{"name":"A3","midi":57,"time":101.14192708333377,"velocity":0.8031496062992126,"duration":0.19921875},{"name":"E4","midi":64,"time":101.34375000000044,"velocity":0.8031496062992126,"duration":0.19921875},{"name":"C4","midi":60,"time":101.54687500000044,"velocity":0.8031496062992126,"duration":0.19921875},{"name":"A4","midi":69,"time":101.54687500000044,"velocity":0.8031496062992126,"duration":0.40234375},{"name":"E4","midi":64,"time":101.54687500000044,"velocity":0.8031496062992126,"duration":0.40234375},{"name":"A3","midi":57,"time":101.74869791666711,"velocity":0.8031496062992126,"duration":0.19921875},{"name":"E3","midi":52,"time":101.95182291666711,"velocity":0.8031496062992126,"duration":0.19921875},{"name":"G#4","midi":68,"time":101.95182291666711,"velocity":0.8031496062992126,"duration":0.40234375},{"name":"E4","midi":64,"time":101.95182291666711,"velocity":0.8031496062992126,"duration":0.40234375},{"name":"B4","midi":71,"time":101.95182291666711,"velocity":0.8031496062992126,"duration":0.40234375},{"name":"F#3","midi":54,"time":102.15364583333378,"velocity":0.8031496062992126,"duration":0.19921875},{"name":"G3","midi":55,"time":102.35677083333378,"velocity":0.8031496062992126,"duration":0.19921875},{"name":"E4","midi":64,"time":102.35677083333378,"velocity":0.8031496062992126,"duration":0.80078125},{"name":"C#5","midi":73,"time":102.35677083333378,"velocity":0.8031496062992126,"duration":1.2122395833333428},{"name":"A4","midi":69,"time":102.35677083333378,"velocity":0.8031496062992126,"duration":1.2122395833333428},{"name":"F#3","midi":54,"time":102.55989583333378,"velocity":0.8031496062992126,"duration":0.19921875},{"name":"G3","midi":55,"time":102.76171875000045,"velocity":0.8031496062992126,"duration":0.19921875},{"name":"A#3","midi":58,"time":102.96484375000045,"velocity":0.8031496062992126,"duration":0.19921875},{"name":"E4","midi":64,"time":103.16666666666713,"velocity":0.8031496062992126,"duration":0.3997395833333286},{"name":"A#3","midi":58,"time":103.36979166666713,"velocity":0.8031496062992126,"duration":0.19921875},{"name":"G3","midi":55,"time":103.5716145833338,"velocity":0.8031496062992126,"duration":0.19921875},{"name":"E4","midi":64,"time":103.7747395833338,"velocity":0.8031496062992126,"duration":0.19921875},{"name":"A#3","midi":58,"time":103.97656250000047,"velocity":0.8031496062992126,"duration":0.19921875},{"name":"E4","midi":64,"time":103.97656250000047,"velocity":0.8031496062992126,"duration":0.40234375},{"name":"C#5","midi":73,"time":103.97656250000047,"velocity":0.8031496062992126,"duration":0.40234375},{"name":"G4","midi":67,"time":103.97656250000047,"velocity":0.8031496062992126,"duration":0.40234375},{"name":"E5","midi":76,"time":103.97656250000047,"velocity":0.8031496062992126,"duration":0.40234375},{"name":"G3","midi":55,"time":104.17968750000047,"velocity":0.8031496062992126,"duration":0.19921875},{"name":"E3","midi":52,"time":104.38151041666714,"velocity":0.8031496062992126,"duration":0.19921875},{"name":"E4","midi":64,"time":104.38151041666714,"velocity":0.8031496062992126,"duration":0.40234375},{"name":"A4","midi":69,"time":104.38151041666714,"velocity":0.8031496062992126,"duration":0.40234375},{"name":"G4","midi":67,"time":104.38151041666714,"velocity":0.8031496062992126,"duration":0.40234375},{"name":"C#5","midi":73,"time":104.38151041666714,"velocity":0.8031496062992126,"duration":0.40234375},{"name":"G3","midi":55,"time":104.58463541666714,"velocity":0.8031496062992126,"duration":0.19921875},{"name":"F#3","midi":54,"time":104.78645833333381,"velocity":0.8031496062992126,"duration":0.80078125},{"name":"D4","midi":62,"time":104.78645833333381,"velocity":0.8031496062992126,"duration":0.80078125},{"name":"A3","midi":57,"time":104.78645833333381,"velocity":0.8031496062992126,"duration":0.80078125},{"name":"D5","midi":74,"time":104.78645833333381,"velocity":0.8031496062992126,"duration":0.19921875},{"name":"C#5","midi":73,"time":104.98958333333381,"velocity":0.8031496062992126,"duration":0.19921875},{"name":"D5","midi":74,"time":105.19140625000048,"velocity":0.8031496062992126,"duration":0.19921875},{"name":"F#5","midi":78,"time":105.39453125000048,"velocity":0.8031496062992126,"duration":0.19921875},{"name":"A5","midi":81,"time":105.59635416666715,"velocity":0.8031496062992126,"duration":0.19921875},{"name":"F#5","midi":78,"time":105.79947916666715,"velocity":0.8031496062992126,"duration":0.19921875},{"name":"D5","midi":74,"time":106.00130208333383,"velocity":0.8031496062992126,"duration":0.19921875},{"name":"A5","midi":81,"time":106.20442708333383,"velocity":0.8031496062992126,"duration":0.19921875},{"name":"D3","midi":50,"time":106.4062500000005,"velocity":0.8031496062992126,"duration":0.40234375},{"name":"F#3","midi":54,"time":106.4062500000005,"velocity":0.8031496062992126,"duration":0.40234375},{"name":"F#5","midi":78,"time":106.4062500000005,"velocity":0.8031496062992126,"duration":0.19921875},{"name":"D5","midi":74,"time":106.6093750000005,"velocity":0.8031496062992126,"duration":0.19921875},{"name":"E3","midi":52,"time":106.81119791666717,"velocity":0.8031496062992126,"duration":0.40234375},{"name":"G3","midi":55,"time":106.81119791666717,"velocity":0.8031496062992126,"duration":0.40234375},{"name":"A4","midi":69,"time":106.81119791666717,"velocity":0.8031496062992126,"duration":0.19921875},{"name":"B4","midi":71,"time":107.01432291666717,"velocity":0.8031496062992126,"duration":0.19921875},{"name":"A3","midi":57,"time":107.21614583333384,"velocity":0.8031496062992126,"duration":0.80078125},{"name":"F#3","midi":54,"time":107.21614583333384,"velocity":0.8031496062992126,"duration":0.80078125},{"name":"C5","midi":72,"time":107.21614583333384,"velocity":0.8031496062992126,"duration":0.19921875},{"name":"B4","midi":71,"time":107.41927083333384,"velocity":0.8031496062992126,"duration":0.19921875},{"name":"C5","midi":72,"time":107.62239583333384,"velocity":0.8031496062992126,"duration":0.19921875},{"name":"D#5","midi":75,"time":107.82421875000051,"velocity":0.8031496062992126,"duration":0.19921875},{"name":"A5","midi":81,"time":108.02734375000051,"velocity":0.8031496062992126,"duration":0.19921875},{"name":"D#5","midi":75,"time":108.22916666666718,"velocity":0.8031496062992126,"duration":0.19921875},{"name":"C5","midi":72,"time":108.43229166666718,"velocity":0.8031496062992126,"duration":0.19921875},{"name":"A5","midi":81,"time":108.63411458333385,"velocity":0.8031496062992126,"duration":0.19921875},{"name":"F#3","midi":54,"time":108.83723958333385,"velocity":0.8031496062992126,"duration":0.40234375},{"name":"A3","midi":57,"time":108.83723958333385,"velocity":0.8031496062992126,"duration":0.40234375},{"name":"D#5","midi":75,"time":108.83723958333385,"velocity":0.8031496062992126,"duration":0.19921875},{"name":"C5","midi":72,"time":109.03906250000053,"velocity":0.8031496062992126,"duration":0.19921875},{"name":"F#3","midi":54,"time":109.24218750000053,"velocity":0.8031496062992126,"duration":0.40234375},{"name":"D3","midi":50,"time":109.24218750000053,"velocity":0.8031496062992126,"duration":0.40234375},{"name":"A4","midi":69,"time":109.24218750000053,"velocity":0.8031496062992126,"duration":0.19921875},{"name":"C5","midi":72,"time":109.4440104166672,"velocity":0.8031496062992126,"duration":0.19921875},{"name":"G3","midi":55,"time":109.6471354166672,"velocity":0.8031496062992126,"duration":0.19921875},{"name":"B4","midi":71,"time":109.6471354166672,"velocity":0.8031496062992126,"duration":1.2122395833333428},{"name":"G4","midi":67,"time":109.6471354166672,"velocity":0.8031496062992126,"duration":1.6171875000000142},{"name":"F#3","midi":54,"time":109.84895833333387,"velocity":0.8031496062992126,"duration":0.19921875},{"name":"G3","midi":55,"time":110.05208333333387,"velocity":0.8031496062992126,"duration":0.19921875},{"name":"B3","midi":59,"time":110.25390625000054,"velocity":0.8031496062992126,"duration":0.19921875},{"name":"D4","midi":62,"time":110.45703125000054,"velocity":0.8031496062992126,"duration":0.19921875},{"name":"B3","midi":59,"time":110.65885416666721,"velocity":0.8031496062992126,"duration":0.19921875},{"name":"G3","midi":55,"time":110.86197916666721,"velocity":0.8031496062992126,"duration":0.19921875},{"name":"D4","midi":62,"time":111.06380208333388,"velocity":0.8031496062992126,"duration":0.19921875},{"name":"B3","midi":59,"time":111.26692708333388,"velocity":0.8031496062992126,"duration":0.19921875},{"name":"G4","midi":67,"time":111.26692708333388,"velocity":0.8031496062992126,"duration":0.40234375},{"name":"D4","midi":62,"time":111.26692708333388,"velocity":0.8031496062992126,"duration":0.40234375},{"name":"G3","midi":55,"time":111.46875000000055,"velocity":0.8031496062992126,"duration":0.19921875},{"name":"D3","midi":50,"time":111.67187500000055,"velocity":0.8031496062992126,"duration":0.19921875},{"name":"F#4","midi":66,"time":111.67187500000055,"velocity":0.8031496062992126,"duration":0.40234375},{"name":"A4","midi":69,"time":111.67187500000055,"velocity":0.8031496062992126,"duration":0.40234375},{"name":"D4","midi":62,"time":111.67187500000055,"velocity":0.8031496062992126,"duration":0.40234375},{"name":"E3","midi":52,"time":111.87369791666723,"velocity":0.8031496062992126,"duration":0.19921875},{"name":"F3","midi":53,"time":112.07682291666723,"velocity":0.8031496062992126,"duration":0.19921875},{"name":"G4","midi":67,"time":112.07682291666723,"velocity":0.8031496062992126,"duration":1.2122395833333428},{"name":"D4","midi":62,"time":112.07682291666723,"velocity":0.8031496062992126,"duration":0.80078125},{"name":"B4","midi":71,"time":112.07682291666723,"velocity":0.8031496062992126,"duration":1.6171875000000142},{"name":"E3","midi":52,"time":112.2786458333339,"velocity":0.8031496062992126,"duration":0.19921875},{"name":"F3","midi":53,"time":112.4817708333339,"velocity":0.8031496062992126,"duration":0.19921875},{"name":"G#3","midi":56,"time":112.6848958333339,"velocity":0.8031496062992126,"duration":0.19921875},{"name":"D4","midi":62,"time":112.88671875000057,"velocity":0.8031496062992126,"duration":0.19921875},{"name":"G#3","midi":56,"time":113.08984375000057,"velocity":0.8031496062992126,"duration":0.19921875},{"name":"F3","midi":53,"time":113.29166666666724,"velocity":0.8031496062992126,"duration":0.19921875},{"name":"D4","midi":62,"time":113.49479166666724,"velocity":0.8031496062992126,"duration":0.19921875},{"name":"G#3","midi":56,"time":113.69661458333391,"velocity":0.8031496062992126,"duration":0.19921875},{"name":"F4","midi":65,"time":113.69661458333391,"velocity":0.8031496062992126,"duration":0.40234375},{"name":"D4","midi":62,"time":113.69661458333391,"velocity":0.8031496062992126,"duration":0.40234375},{"name":"D5","midi":74,"time":113.69661458333391,"velocity":0.8031496062992126,"duration":0.40234375},{"name":"B4","midi":71,"time":113.69661458333391,"velocity":0.8031496062992126,"duration":0.40234375},{"name":"F3","midi":53,"time":113.89973958333391,"velocity":0.8031496062992126,"duration":0.19921875},{"name":"D3","midi":50,"time":114.10156250000058,"velocity":0.8031496062992126,"duration":0.19921875},{"name":"F4","midi":65,"time":114.10156250000058,"velocity":0.8031496062992126,"duration":0.40234375},{"name":"D4","midi":62,"time":114.10156250000058,"velocity":0.8031496062992126,"duration":0.40234375},{"name":"B4","midi":71,"time":114.10156250000058,"velocity":0.8031496062992126,"duration":0.40234375},{"name":"G4","midi":67,"time":114.10156250000058,"velocity":0.8031496062992126,"duration":0.40234375},{"name":"F3","midi":53,"time":114.30468750000058,"velocity":0.8031496062992126,"duration":0.19921875},{"name":"E3","midi":52,"time":114.50651041666725,"velocity":0.8031496062992126,"duration":1.0117187500000142},{"name":"G3","midi":55,"time":114.50651041666725,"velocity":0.8031496062992126,"duration":1.0117187500000142},{"name":"C4","midi":60,"time":114.50651041666725,"velocity":0.8031496062992126,"duration":0.80078125},{"name":"C5","midi":72,"time":114.50651041666725,"velocity":0.8031496062992126,"duration":0.19921875},{"name":"G4","midi":67,"time":114.50651041666725,"velocity":0.8031496062992126,"duration":0.3997395833333286},{"name":"E5","midi":76,"time":114.70963541666725,"velocity":0.8031496062992126,"duration":0.19921875},{"name":"G4","midi":67,"time":114.91145833333393,"velocity":0.8031496062992126,"duration":0.19921875},{"name":"B4","midi":71,"time":115.11458333333393,"velocity":0.8031496062992126,"duration":0.19921875},{"name":"C5","midi":72,"time":115.3164062500006,"velocity":0.8031496062992126,"duration":0.19921875},{"name":"E5","midi":76,"time":115.5195312500006,"velocity":0.8031496062992126,"duration":0.19921875},{"name":"C5","midi":72,"time":115.72135416666727,"velocity":0.8031496062992126,"duration":0.19921875},{"name":"E5","midi":76,"time":115.92447916666727,"velocity":0.8031496062992126,"duration":0.19921875},{"name":"G3","midi":55,"time":116.12630208333394,"velocity":0.8031496062992126,"duration":0.40234375},{"name":"E3","midi":52,"time":116.12630208333394,"velocity":0.8031496062992126,"duration":0.40234375},{"name":"C4","midi":60,"time":116.12630208333394,"velocity":0.8031496062992126,"duration":0.40234375},{"name":"G4","midi":67,"time":116.12630208333394,"velocity":0.8031496062992126,"duration":0.19921875},{"name":"B4","midi":71,"time":116.32942708333394,"velocity":0.8031496062992126,"duration":0.19921875},{"name":"G3","midi":55,"time":116.53125000000061,"velocity":0.8031496062992126,"duration":0.40234375},{"name":"E3","midi":52,"time":116.53125000000061,"velocity":0.8031496062992126,"duration":0.40234375},{"name":"C4","midi":60,"time":116.53125000000061,"velocity":0.8031496062992126,"duration":0.40234375},{"name":"C5","midi":72,"time":116.53125000000061,"velocity":0.8031496062992126,"duration":0.19921875},{"name":"E5","midi":76,"time":116.73437500000061,"velocity":0.8031496062992126,"duration":0.19921875},{"name":"D#3","midi":51,"time":116.93619791666728,"velocity":0.8031496062992126,"duration":1.2122395833333428},{"name":"A3","midi":57,"time":116.93619791666728,"velocity":0.8031496062992126,"duration":1.2122395833333428},{"name":"C4","midi":60,"time":116.93619791666728,"velocity":0.8031496062992126,"duration":0.8854166666666714},{"name":"C5","midi":72,"time":116.93619791666728,"velocity":0.8031496062992126,"duration":0.19921875},{"name":"F#5","midi":78,"time":117.13932291666728,"velocity":0.8031496062992126,"duration":0.19921875},{"name":"A4","midi":69,"time":117.34114583333395,"velocity":0.8031496062992126,"duration":0.19921875},{"name":"B4","midi":71,"time":117.54427083333395,"velocity":0.8031496062992126,"duration":0.19921875},{"name":"C5","midi":72,"time":117.74739583333395,"velocity":0.8031496062992126,"duration":0.19921875},{"name":"F#5","midi":78,"time":117.94921875000063,"velocity":0.8031496062992126,"duration":0.19921875},{"name":"C5","midi":72,"time":118.15234375000063,"velocity":0.8031496062992126,"duration":0.19921875},{"name":"F#5","midi":78,"time":118.3541666666673,"velocity":0.8031496062992126,"duration":0.19921875},{"name":"D#3","midi":51,"time":118.5572916666673,"velocity":0.8031496062992126,"duration":0.40234375},{"name":"A3","midi":57,"time":118.5572916666673,"velocity":0.8031496062992126,"duration":0.40234375},{"name":"C4","midi":60,"time":118.5572916666673,"velocity":0.8031496062992126,"duration":0.40234375},{"name":"A4","midi":69,"time":118.5572916666673,"velocity":0.8031496062992126,"duration":0.19921875},{"name":"B4","midi":71,"time":118.75911458333397,"velocity":0.8031496062992126,"duration":0.19921875},{"name":"D#3","midi":51,"time":118.96223958333397,"velocity":0.8031496062992126,"duration":0.40234375},{"name":"A3","midi":57,"time":118.96223958333397,"velocity":0.8031496062992126,"duration":0.40234375},{"name":"C4","midi":60,"time":118.96223958333397,"velocity":0.8031496062992126,"duration":0.40234375},{"name":"C5","midi":72,"time":118.96223958333397,"velocity":0.8031496062992126,"duration":0.19921875},{"name":"F#5","midi":78,"time":119.16406250000064,"velocity":0.8031496062992126,"duration":0.19921875},{"name":"D3","midi":50,"time":119.36718750000064,"velocity":0.8031496062992126,"duration":1.4127604166666856},{"name":"B3","midi":59,"time":119.36718750000064,"velocity":0.8031496062992126,"duration":1.4127604166666856},{"name":"G3","midi":55,"time":119.36718750000064,"velocity":0.8031496062992126,"duration":1.4127604166666856},{"name":"D5","midi":74,"time":119.36718750000064,"velocity":0.8031496062992126,"duration":0.19921875},{"name":"G5","midi":79,"time":119.56901041666731,"velocity":0.8031496062992126,"duration":0.19921875},{"name":"B4","midi":71,"time":119.77213541666731,"velocity":0.8031496062992126,"duration":0.19921875},{"name":"C5","midi":72,"time":119.97395833333398,"velocity":0.8031496062992126,"duration":0.19921875},{"name":"D5","midi":74,"time":120.17708333333398,"velocity":0.8031496062992126,"duration":0.19921875},{"name":"G5","midi":79,"time":120.37890625000065,"velocity":0.8031496062992126,"duration":0.19921875},{"name":"D5","midi":74,"time":120.58203125000065,"velocity":0.8031496062992126,"duration":0.19921875},{"name":"G5","midi":79,"time":120.78385416666733,"velocity":0.8031496062992126,"duration":0.19921875},{"name":"G3","midi":55,"time":120.98697916666733,"velocity":0.8031496062992126,"duration":0.40234375},{"name":"D3","midi":50,"time":120.98697916666733,"velocity":0.8031496062992126,"duration":0.40234375},{"name":"B3","midi":59,"time":120.98697916666733,"velocity":0.8031496062992126,"duration":0.40234375},{"name":"B4","midi":71,"time":120.98697916666733,"velocity":0.8031496062992126,"duration":0.19921875},{"name":"C5","midi":72,"time":121.188802083334,"velocity":0.8031496062992126,"duration":0.19921875},{"name":"G3","midi":55,"time":121.391927083334,"velocity":0.8031496062992126,"duration":0.40234375},{"name":"D3","midi":50,"time":121.391927083334,"velocity":0.8031496062992126,"duration":0.40234375},{"name":"B3","midi":59,"time":121.391927083334,"velocity":0.8031496062992126,"duration":0.40234375},{"name":"D5","midi":74,"time":121.391927083334,"velocity":0.8031496062992126,"duration":0.19921875},{"name":"G5","midi":79,"time":121.59375000000067,"velocity":0.8031496062992126,"duration":0.19921875},{"name":"A#3","midi":58,"time":121.79687500000067,"velocity":0.8031496062992126,"duration":1.6171875000000142},{"name":"G3","midi":55,"time":121.79687500000067,"velocity":0.8031496062992126,"duration":1.6171875000000142},{"name":"C#3","midi":49,"time":121.79687500000067,"velocity":0.8031496062992126,"duration":1.6171875000000142},{"name":"E5","midi":76,"time":121.79687500000067,"velocity":0.8031496062992126,"duration":0.19921875},{"name":"G5","midi":79,"time":121.99869791666734,"velocity":0.8031496062992126,"duration":0.19921875},{"name":"C#5","midi":73,"time":122.20182291666734,"velocity":0.8031496062992126,"duration":0.19921875},{"name":"D5","midi":74,"time":122.40364583333401,"velocity":0.8031496062992126,"duration":0.19921875},{"name":"E5","midi":76,"time":122.60677083333401,"velocity":0.8031496062992126,"duration":0.19921875},{"name":"G5","midi":79,"time":122.80989583333401,"velocity":0.8031496062992126,"duration":0.19921875},{"name":"E5","midi":76,"time":123.01171875000068,"velocity":0.8031496062992126,"duration":0.19921875},{"name":"G5","midi":79,"time":123.21484375000068,"velocity":0.8031496062992126,"duration":0.19921875},{"name":"C#3","midi":49,"time":123.41666666666735,"velocity":0.8031496062992126,"duration":0.40234375},{"name":"A3","midi":57,"time":123.41666666666735,"velocity":0.8031496062992126,"duration":0.40234375},{"name":"E3","midi":52,"time":123.41666666666735,"velocity":0.8031496062992126,"duration":0.40234375},{"name":"C#5","midi":73,"time":123.41666666666735,"velocity":0.8031496062992126,"duration":0.19921875},{"name":"D5","midi":74,"time":123.61979166666735,"velocity":0.8031496062992126,"duration":0.19921875},{"name":"A2","midi":45,"time":123.82161458333402,"velocity":0.8031496062992126,"duration":0.40234375},{"name":"E3","midi":52,"time":123.82161458333402,"velocity":0.8031496062992126,"duration":0.40234375},{"name":"C#3","midi":49,"time":123.82161458333402,"velocity":0.8031496062992126,"duration":0.40234375},{"name":"A3","midi":57,"time":123.82161458333402,"velocity":0.8031496062992126,"duration":0.40234375},{"name":"E5","midi":76,"time":123.82161458333402,"velocity":0.8031496062992126,"duration":0.19921875},{"name":"G5","midi":79,"time":124.02473958333402,"velocity":0.8031496062992126,"duration":0.19921875},{"name":"A3","midi":57,"time":124.2265625000007,"velocity":0.8031496062992126,"duration":0.19921875},{"name":"D3","midi":50,"time":124.2265625000007,"velocity":0.8031496062992126,"duration":0.19921875},{"name":"F#5","midi":78,"time":124.2265625000007,"velocity":0.8031496062992126,"duration":0.40234375},{"name":"D5","midi":74,"time":124.2265625000007,"velocity":0.8031496062992126,"duration":0.40234375},{"name":"C#3","midi":49,"time":124.4296875000007,"velocity":0.8031496062992126,"duration":0.19921875},{"name":"D3","midi":50,"time":124.63151041666737,"velocity":0.8031496062992126,"duration":0.19921875},{"name":"A4","midi":69,"time":124.63151041666737,"velocity":0.8031496062992126,"duration":0.6041666666666714},{"name":"F#4","midi":66,"time":124.63151041666737,"velocity":0.8031496062992126,"duration":0.6041666666666714},{"name":"D5","midi":74,"time":124.63151041666737,"velocity":0.8031496062992126,"duration":0.6041666666666714},{"name":"E3","midi":52,"time":124.83463541666737,"velocity":0.8031496062992126,"duration":0.19921875},{"name":"D3","midi":50,"time":125.03645833333404,"velocity":0.8031496062992126,"duration":0.19921875},{"name":"C3","midi":48,"time":125.23958333333404,"velocity":0.8031496062992126,"duration":0.19921875},{"name":"F#4","midi":66,"time":125.23958333333404,"velocity":0.8031496062992126,"duration":0.19921875},{"name":"A4","midi":69,"time":125.23958333333404,"velocity":0.8031496062992126,"duration":0.19921875},{"name":"D5","midi":74,"time":125.23958333333404,"velocity":0.8031496062992126,"duration":0.19921875},{"name":"B2","midi":47,"time":125.44140625000071,"velocity":0.8031496062992126,"duration":0.19921875},{"name":"D4","midi":62,"time":125.44140625000071,"velocity":0.8031496062992126,"duration":0.40234375},{"name":"G4","midi":67,"time":125.44140625000071,"velocity":0.8031496062992126,"duration":0.40234375},{"name":"A2","midi":45,"time":125.64453125000071,"velocity":0.8031496062992126,"duration":0.19921875},{"name":"B2","midi":47,"time":125.84635416666738,"velocity":0.8031496062992126,"duration":0.19921875},{"name":"C5","midi":72,"time":125.84635416666738,"velocity":0.8031496062992126,"duration":0.19921875},{"name":"G4","midi":67,"time":125.84635416666738,"velocity":0.8031496062992126,"duration":0.80078125},{"name":"E5","midi":76,"time":125.84635416666738,"velocity":0.8031496062992126,"duration":0.19921875},{"name":"D3","midi":50,"time":126.04947916666738,"velocity":0.8031496062992126,"duration":0.19921875},{"name":"D5","midi":74,"time":126.04947916666738,"velocity":0.8031496062992126,"duration":0.19921875},{"name":"C3","midi":48,"time":126.25130208333405,"velocity":0.8031496062992126,"duration":0.19921875},{"name":"E5","midi":76,"time":126.25130208333405,"velocity":0.8031496062992126,"duration":0.19921875},{"name":"B2","midi":47,"time":126.45442708333405,"velocity":0.8031496062992126,"duration":0.19921875},{"name":"C5","midi":72,"time":126.45442708333405,"velocity":0.8031496062992126,"duration":0.19921875},{"name":"A2","midi":45,"time":126.65625000000072,"velocity":0.8031496062992126,"duration":0.19921875},{"name":"F#4","midi":66,"time":126.65625000000072,"velocity":0.8031496062992126,"duration":0.40234375},{"name":"G2","midi":43,"time":126.85937500000072,"velocity":0.8031496062992126,"duration":0.19921875},{"name":"A2","midi":45,"time":127.0611979166674,"velocity":0.8031496062992126,"duration":0.19921875},{"name":"F#4","midi":66,"time":127.0611979166674,"velocity":0.8031496062992126,"duration":0.6041666666666714},{"name":"C4","midi":60,"time":127.0611979166674,"velocity":0.8031496062992126,"duration":0.6041666666666714},{"name":"A4","midi":69,"time":127.0611979166674,"velocity":0.8031496062992126,"duration":0.6041666666666714},{"name":"B2","midi":47,"time":127.2643229166674,"velocity":0.8031496062992126,"duration":0.19921875},{"name":"A2","midi":45,"time":127.46614583333407,"velocity":0.8031496062992126,"duration":0.19921875},{"name":"G2","midi":43,"time":127.66927083333407,"velocity":0.8031496062992126,"duration":0.19921875},{"name":"F#4","midi":66,"time":127.66927083333407,"velocity":0.8031496062992126,"duration":0.19921875},{"name":"C4","midi":60,"time":127.66927083333407,"velocity":0.8031496062992126,"duration":0.19921875},{"name":"A4","midi":69,"time":127.66927083333407,"velocity":0.8031496062992126,"duration":0.19921875},{"name":"F#2","midi":42,"time":127.87239583333407,"velocity":0.8031496062992126,"duration":0.1992187499999858},{"name":"C4","midi":60,"time":127.87239583333407,"velocity":0.8031496062992126,"duration":0.4023437499999858},{"name":"D4","midi":62,"time":127.87239583333407,"velocity":0.8031496062992126,"duration":1.2122395833333002},{"name":"E2","midi":40,"time":128.0742187500007,"velocity":0.8031496062992126,"duration":0.19921875},{"name":"F#2","midi":42,"time":128.2773437500007,"velocity":0.8031496062992126,"duration":0.19921875},{"name":"D5","midi":74,"time":128.2773437500007,"velocity":0.8031496062992126,"duration":0.19921875},{"name":"G2","midi":43,"time":128.47916666666737,"velocity":0.8031496062992126,"duration":0.19921875},{"name":"C5","midi":72,"time":128.47916666666737,"velocity":0.8031496062992126,"duration":0.19921875},{"name":"E2","midi":40,"time":128.68229166666737,"velocity":0.8031496062992126,"duration":0.19921875},{"name":"D5","midi":74,"time":128.68229166666737,"velocity":0.8031496062992126,"duration":0.19921875},{"name":"F#2","midi":42,"time":128.88411458333402,"velocity":0.8031496062992126,"duration":0.19921875},{"name":"A4","midi":69,"time":128.88411458333402,"velocity":0.8031496062992126,"duration":0.19921875},{"name":"G2","midi":43,"time":129.08723958333402,"velocity":0.8031496062992126,"duration":0.40234375},{"name":"B4","midi":71,"time":129.08723958333402,"velocity":0.8031496062992126,"duration":0.19921875},{"name":"A4","midi":69,"time":129.28906250000068,"velocity":0.8031496062992126,"duration":0.19921875},{"name":"G3","midi":55,"time":129.49218750000068,"velocity":0.8031496062992126,"duration":0.6041666666666572},{"name":"G4","midi":67,"time":129.49218750000068,"velocity":0.8031496062992126,"duration":0.19921875},{"name":"A4","midi":69,"time":129.69401041666734,"velocity":0.8031496062992126,"duration":0.19921875},{"name":"B4","midi":71,"time":129.89713541666734,"velocity":0.8031496062992126,"duration":0.19921875},{"name":"G3","midi":55,"time":130.098958333334,"velocity":0.8031496062992126,"duration":0.19921875},{"name":"C#5","midi":73,"time":130.098958333334,"velocity":0.8031496062992126,"duration":0.19921875},{"name":"D3","midi":50,"time":130.302083333334,"velocity":0.8031496062992126,"duration":0.40234375},{"name":"D5","midi":74,"time":130.302083333334,"velocity":0.8031496062992126,"duration":0.19921875},{"name":"E5","midi":76,"time":130.50390625000065,"velocity":0.8031496062992126,"duration":0.19921875},{"name":"B3","midi":59,"time":130.70703125000065,"velocity":0.8031496062992126,"duration":0.19921875},{"name":"F#5","midi":78,"time":130.70703125000065,"velocity":0.8031496062992126,"duration":0.19921875},{"name":"A3","midi":57,"time":130.9088541666673,"velocity":0.8031496062992126,"duration":0.19921875},{"name":"A5","midi":81,"time":130.9088541666673,"velocity":0.8031496062992126,"duration":0.19921875},{"name":"B3","midi":59,"time":131.1119791666673,"velocity":0.8031496062992126,"duration":0.19921875},{"name":"G5","midi":79,"time":131.1119791666673,"velocity":0.8031496062992126,"duration":0.19921875},{"name":"G3","midi":55,"time":131.31380208333397,"velocity":0.8031496062992126,"duration":0.19921875},{"name":"F#5","midi":78,"time":131.31380208333397,"velocity":0.8031496062992126,"duration":0.19921875},{"name":"C#3","midi":49,"time":131.51692708333397,"velocity":0.8031496062992126,"duration":0.40234375},{"name":"E5","midi":76,"time":131.51692708333397,"velocity":0.8031496062992126,"duration":0.19921875},{"name":"D5","midi":74,"time":131.71875000000063,"velocity":0.8031496062992126,"duration":0.19921875},{"name":"E3","midi":52,"time":131.92187500000063,"velocity":0.8031496062992126,"duration":0.6041666666666572},{"name":"C#5","midi":73,"time":131.92187500000063,"velocity":0.8031496062992126,"duration":0.19921875},{"name":"B4","midi":71,"time":132.12369791666728,"velocity":0.8031496062992126,"duration":0.19921875},{"name":"A4","midi":69,"time":132.32682291666728,"velocity":0.8031496062992126,"duration":0.19921875},{"name":"E3","midi":52,"time":132.52864583333394,"velocity":0.8031496062992126,"duration":0.19921875},{"name":"B4","midi":71,"time":132.52864583333394,"velocity":0.8031496062992126,"duration":0.19921875},{"name":"A2","midi":45,"time":132.73177083333394,"velocity":0.8031496062992126,"duration":0.40234375},{"name":"C#5","midi":73,"time":132.73177083333394,"velocity":0.8031496062992126,"duration":0.19921875},{"name":"D5","midi":74,"time":132.93489583333394,"velocity":0.8031496062992126,"duration":0.19921875},{"name":"A3","midi":57,"time":133.1367187500006,"velocity":0.8031496062992126,"duration":0.19921875},{"name":"E5","midi":76,"time":133.1367187500006,"velocity":0.8031496062992126,"duration":0.19921875},{"name":"G3","midi":55,"time":133.3398437500006,"velocity":0.8031496062992126,"duration":0.19921875},{"name":"G5","midi":79,"time":133.3398437500006,"velocity":0.8031496062992126,"duration":0.19921875},{"name":"A3","midi":57,"time":133.54166666666725,"velocity":0.8031496062992126,"duration":0.19921875},{"name":"F#5","midi":78,"time":133.54166666666725,"velocity":0.8031496062992126,"duration":0.19921875},{"name":"E3","midi":52,"time":133.74479166666725,"velocity":0.8031496062992126,"duration":0.19921875},{"name":"E5","midi":76,"time":133.74479166666725,"velocity":0.8031496062992126,"duration":0.19921875},{"name":"F#3","midi":54,"time":133.9466145833339,"velocity":0.8031496062992126,"duration":0.3997395833333428},{"name":"A5","midi":81,"time":133.9466145833339,"velocity":0.8031496062992126,"duration":0.19921875},{"name":"F#5","midi":78,"time":134.1497395833339,"velocity":0.8031496062992126,"duration":0.19921875},{"name":"D5","midi":74,"time":134.35156250000057,"velocity":0.8031496062992126,"duration":0.19921875},{"name":"D3","midi":50,"time":134.55468750000057,"velocity":0.8031496062992126,"duration":0.19921875},{"name":"A4","midi":69,"time":134.55468750000057,"velocity":0.8031496062992126,"duration":0.19921875},{"name":"E3","midi":52,"time":134.75651041666723,"velocity":0.8031496062992126,"duration":0.19921875},{"name":"C5","midi":72,"time":134.75651041666723,"velocity":0.8031496062992126,"duration":0.5052083333333144},{"name":"F#3","midi":54,"time":134.95963541666723,"velocity":0.8031496062992126,"duration":0.19921875},{"name":"G3","midi":55,"time":135.16145833333388,"velocity":0.8031496062992126,"duration":0.19921875},{"name":"F#3","midi":54,"time":135.36458333333388,"velocity":0.8031496062992126,"duration":0.19921875},{"name":"E5","midi":76,"time":135.36458333333388,"velocity":0.8031496062992126,"duration":0.19921875},{"name":"G3","midi":55,"time":135.56640625000054,"velocity":0.8031496062992126,"duration":0.19921875},{"name":"D5","midi":74,"time":135.56640625000054,"velocity":0.8031496062992126,"duration":0.19921875},{"name":"A3","midi":57,"time":135.76953125000054,"velocity":0.8031496062992126,"duration":0.19921875},{"name":"C5","midi":72,"time":135.76953125000054,"velocity":0.8031496062992126,"duration":0.19921875},{"name":"B3","midi":59,"time":135.9713541666672,"velocity":0.8031496062992126,"duration":0.19921875},{"name":"B4","midi":71,"time":135.9713541666672,"velocity":0.8031496062992126,"duration":0.19921875},{"name":"C4","midi":60,"time":136.1744791666672,"velocity":0.8031496062992126,"duration":0.19921875},{"name":"A4","midi":69,"time":136.1744791666672,"velocity":0.8031496062992126,"duration":0.19921875},{"name":"D4","midi":62,"time":136.37630208333385,"velocity":0.8031496062992126,"duration":0.19921875},{"name":"B4","midi":71,"time":136.37630208333385,"velocity":0.8031496062992126,"duration":0.3997395833333428},{"name":"B3","midi":59,"time":136.57942708333385,"velocity":0.8031496062992126,"duration":0.19921875},{"name":"G3","midi":55,"time":136.7812500000005,"velocity":0.8031496062992126,"duration":0.19921875},{"name":"D3","midi":50,"time":136.9843750000005,"velocity":0.8031496062992126,"duration":0.19921875},{"name":"G4","midi":67,"time":136.9843750000005,"velocity":0.8031496062992126,"duration":0.19921875},{"name":"F3","midi":53,"time":137.18619791666717,"velocity":0.8031496062992126,"duration":0.5481770833333144},{"name":"A4","midi":69,"time":137.18619791666717,"velocity":0.8031496062992126,"duration":0.19921875},{"name":"B4","midi":71,"time":137.38932291666717,"velocity":0.8031496062992126,"duration":0.19921875},{"name":"C5","midi":72,"time":137.59114583333383,"velocity":0.8031496062992126,"duration":0.19921875},{"name":"A3","midi":57,"time":137.79427083333383,"velocity":0.8031496062992126,"duration":0.19921875},{"name":"B4","midi":71,"time":137.79427083333383,"velocity":0.8031496062992126,"duration":0.19921875},{"name":"G3","midi":55,"time":137.99739583333383,"velocity":0.8031496062992126,"duration":0.19921875},{"name":"C5","midi":72,"time":137.99739583333383,"velocity":0.8031496062992126,"duration":0.19921875},{"name":"F3","midi":53,"time":138.19921875000048,"velocity":0.8031496062992126,"duration":0.19921875},{"name":"D5","midi":74,"time":138.19921875000048,"velocity":0.8031496062992126,"duration":0.19921875},{"name":"E3","midi":52,"time":138.40234375000048,"velocity":0.8031496062992126,"duration":0.19921875},{"name":"E5","midi":76,"time":138.40234375000048,"velocity":0.8031496062992126,"duration":0.19921875},{"name":"D3","midi":50,"time":138.60416666666714,"velocity":0.8031496062992126,"duration":0.19921875},{"name":"F5","midi":77,"time":138.60416666666714,"velocity":0.8031496062992126,"duration":0.19921875},{"name":"E3","midi":52,"time":138.80729166666714,"velocity":0.8031496062992126,"duration":0.6028645833333144},{"name":"G5","midi":79,"time":138.80729166666714,"velocity":0.8031496062992126,"duration":0.19921875},{"name":"E5","midi":76,"time":139.0091145833338,"velocity":0.8031496062992126,"duration":0.19921875},{"name":"C5","midi":72,"time":139.2122395833338,"velocity":0.8031496062992126,"duration":0.19921875},{"name":"F3","midi":53,"time":139.41406250000045,"velocity":0.8031496062992126,"duration":0.19921875},{"name":"G4","midi":67,"time":139.41406250000045,"velocity":0.8031496062992126,"duration":0.19921875},{"name":"E3","midi":52,"time":139.61718750000045,"velocity":0.8031496062992126,"duration":0.19921875},{"name":"A#4","midi":70,"time":139.61718750000045,"velocity":0.8031496062992126,"duration":0.55859375},{"name":"D3","midi":50,"time":139.8190104166671,"velocity":0.8031496062992126,"duration":0.19921875},{"name":"C#3","midi":49,"time":140.0221354166671,"velocity":0.8031496062992126,"duration":0.19921875},{"name":"D3","midi":50,"time":140.22395833333377,"velocity":0.8031496062992126,"duration":0.19921875},{"name":"A4","midi":69,"time":140.22395833333377,"velocity":0.8031496062992126,"duration":0.19921875},{"name":"E3","midi":52,"time":140.42708333333377,"velocity":0.8031496062992126,"duration":0.19921875},{"name":"G4","midi":67,"time":140.42708333333377,"velocity":0.8031496062992126,"duration":0.19921875},{"name":"F#3","midi":54,"time":140.62890625000043,"velocity":0.8031496062992126,"duration":0.19921875},{"name":"A#4","midi":70,"time":140.62890625000043,"velocity":0.8031496062992126,"duration":0.19921875},{"name":"G3","midi":55,"time":140.83203125000043,"velocity":0.8031496062992126,"duration":0.19921875},{"name":"A4","midi":69,"time":140.83203125000043,"velocity":0.8031496062992126,"duration":0.19921875},{"name":"A3","midi":57,"time":141.03385416666708,"velocity":0.8031496062992126,"duration":0.19921875},{"name":"G4","midi":67,"time":141.03385416666708,"velocity":0.8031496062992126,"duration":0.19921875},{"name":"D3","midi":50,"time":141.23697916666708,"velocity":0.8031496062992126,"duration":0.19921875},{"name":"F#4","midi":66,"time":141.23697916666708,"velocity":0.8031496062992126,"duration":0.19921875},{"name":"A3","midi":57,"time":141.43880208333374,"velocity":0.8031496062992126,"duration":0.19921875},{"name":"E4","midi":64,"time":141.43880208333374,"velocity":0.8031496062992126,"duration":0.19921875},{"name":"F#3","midi":54,"time":141.64192708333374,"velocity":0.8031496062992126,"duration":0.19921875},{"name":"D4","midi":62,"time":141.64192708333374,"velocity":0.8031496062992126,"duration":0.19921875},{"name":"D3","midi":50,"time":141.8437500000004,"velocity":0.8031496062992126,"duration":0.19921875},{"name":"E4","midi":64,"time":141.8437500000004,"velocity":0.8031496062992126,"duration":0.19921875},{"name":"C4","midi":60,"time":142.0468750000004,"velocity":0.8031496062992126,"duration":0.6041666666666572},{"name":"F#4","midi":66,"time":142.0468750000004,"velocity":0.8031496062992126,"duration":0.19921875},{"name":"G4","midi":67,"time":142.24869791666706,"velocity":0.8031496062992126,"duration":0.19921875},{"name":"A4","midi":69,"time":142.45182291666706,"velocity":0.8031496062992126,"duration":0.19921875},{"name":"E4","midi":64,"time":142.6536458333337,"velocity":0.8031496062992126,"duration":0.19921875},{"name":"B4","midi":71,"time":142.6536458333337,"velocity":0.8031496062992126,"duration":0.19921875},{"name":"D4","midi":62,"time":142.8567708333337,"velocity":0.8031496062992126,"duration":0.19921875},{"name":"C5","midi":72,"time":142.8567708333337,"velocity":0.8031496062992126,"duration":0.19921875},{"name":"C4","midi":60,"time":143.0598958333337,"velocity":0.8031496062992126,"duration":0.19921875},{"name":"D5","midi":74,"time":143.0598958333337,"velocity":0.8031496062992126,"duration":0.19921875},{"name":"B3","midi":59,"time":143.26171875000037,"velocity":0.8031496062992126,"duration":0.19921875},{"name":"E5","midi":76,"time":143.26171875000037,"velocity":0.8031496062992126,"duration":0.19921875},{"name":"A3","midi":57,"time":143.46484375000037,"velocity":0.8031496062992126,"duration":0.19921875},{"name":"F#5","midi":78,"time":143.46484375000037,"velocity":0.8031496062992126,"duration":0.19921875},{"name":"B3","midi":59,"time":143.66666666666703,"velocity":0.8031496062992126,"duration":0.19921875},{"name":"G5","midi":79,"time":143.66666666666703,"velocity":0.8031496062992126,"duration":0.80078125},{"name":"D4","midi":62,"time":143.86979166666703,"velocity":0.8031496062992126,"duration":0.19921875},{"name":"G4","midi":67,"time":144.07161458333368,"velocity":0.8031496062992126,"duration":0.19921875},{"name":"B4","midi":71,"time":144.07161458333368,"velocity":0.8031496062992126,"duration":0.80078125},{"name":"D4","midi":62,"time":144.27473958333368,"velocity":0.8031496062992126,"duration":0.19921875},{"name":"C4","midi":60,"time":144.47656250000034,"velocity":0.8031496062992126,"duration":0.19921875},{"name":"G5","midi":79,"time":144.47656250000034,"velocity":0.8031496062992126,"duration":0.40234375},{"name":"B3","midi":59,"time":144.67968750000034,"velocity":0.8031496062992126,"duration":0.19921875},{"name":"C4","midi":60,"time":144.881510416667,"velocity":0.8031496062992126,"duration":0.19921875},{"name":"G5","midi":79,"time":144.881510416667,"velocity":0.8031496062992126,"duration":0.80078125},{"name":"E4","midi":64,"time":145.084635416667,"velocity":0.8031496062992126,"duration":0.19921875},{"name":"A4","midi":69,"time":145.28645833333366,"velocity":0.8031496062992126,"duration":0.19921875},{"name":"C5","midi":72,"time":145.28645833333366,"velocity":0.8031496062992126,"duration":0.58984375},{"name":"E4","midi":64,"time":145.48958333333366,"velocity":0.8031496062992126,"duration":0.19921875},{"name":"D4","midi":62,"time":145.6914062500003,"velocity":0.8031496062992126,"duration":0.19921875},{"name":"G5","midi":79,"time":145.6914062500003,"velocity":0.8031496062992126,"duration":0.40234375},{"name":"C4","midi":60,"time":145.8945312500003,"velocity":0.8031496062992126,"duration":0.19921875},{"name":"D4","midi":62,"time":146.09635416666697,"velocity":0.8031496062992126,"duration":0.19921875},{"name":"G5","midi":79,"time":146.09635416666697,"velocity":0.8031496062992126,"duration":0.80078125},{"name":"F4","midi":65,"time":146.29947916666697,"velocity":0.8031496062992126,"duration":0.19921875},{"name":"B4","midi":71,"time":146.50130208333363,"velocity":0.8031496062992126,"duration":0.19921875},{"name":"D5","midi":74,"time":146.50130208333363,"velocity":0.8031496062992126,"duration":0.58984375},{"name":"F4","midi":65,"time":146.70442708333363,"velocity":0.8031496062992126,"duration":0.19921875},{"name":"E4","midi":64,"time":146.90625000000028,"velocity":0.8031496062992126,"duration":0.19921875},{"name":"G5","midi":79,"time":146.90625000000028,"velocity":0.8031496062992126,"duration":0.40234375},{"name":"D4","midi":62,"time":147.10937500000028,"velocity":0.8031496062992126,"duration":0.19921875},{"name":"E4","midi":64,"time":147.31119791666694,"velocity":0.8031496062992126,"duration":0.19921875},{"name":"G5","midi":79,"time":147.31119791666694,"velocity":0.8031496062992126,"duration":0.58984375},{"name":"G4","midi":67,"time":147.51432291666694,"velocity":0.8031496062992126,"duration":0.19921875},{"name":"C5","midi":72,"time":147.7161458333336,"velocity":0.8031496062992126,"duration":0.19921875},{"name":"E5","midi":76,"time":147.7161458333336,"velocity":0.8031496062992126,"duration":0.40234375},{"name":"B4","midi":71,"time":147.9192708333336,"velocity":0.8031496062992126,"duration":0.19921875},{"name":"A4","midi":69,"time":148.1223958333336,"velocity":0.8031496062992126,"duration":0.19921875},{"name":"G5","midi":79,"time":148.1223958333336,"velocity":0.8031496062992126,"duration":0.40234375},{"name":"G4","midi":67,"time":148.32421875000026,"velocity":0.8031496062992126,"duration":0.19921875},{"name":"F#4","midi":66,"time":148.52734375000026,"velocity":0.8031496062992126,"duration":0.19921875},{"name":"A5","midi":81,"time":148.52734375000026,"velocity":0.8031496062992126,"duration":0.3997395833333144},{"name":"A4","midi":69,"time":148.7291666666669,"velocity":0.8031496062992126,"duration":0.19921875},{"name":"C6","midi":84,"time":148.7291666666669,"velocity":0.8031496062992126,"duration":0.19921875},{"name":"C5","midi":72,"time":148.9322916666669,"velocity":0.8031496062992126,"duration":0.19921875},{"name":"A5","midi":81,"time":148.9322916666669,"velocity":0.8031496062992126,"duration":0.19921875},{"name":"E5","midi":76,"time":149.13411458333357,"velocity":0.8031496062992126,"duration":0.19921875},{"name":"G5","midi":79,"time":149.13411458333357,"velocity":0.8031496062992126,"duration":0.19921875},{"name":"D5","midi":74,"time":149.33723958333357,"velocity":0.8031496062992126,"duration":0.19921875},{"name":"F#5","midi":78,"time":149.33723958333357,"velocity":0.8031496062992126,"duration":0.19921875},{"name":"C5","midi":72,"time":149.53906250000023,"velocity":0.8031496062992126,"duration":0.19921875},{"name":"E5","midi":76,"time":149.53906250000023,"velocity":0.8031496062992126,"duration":0.19921875},{"name":"B4","midi":71,"time":149.74218750000023,"velocity":0.8031496062992126,"duration":0.19921875},{"name":"D5","midi":74,"time":149.74218750000023,"velocity":0.8031496062992126,"duration":1.2122395833333144},{"name":"C5","midi":72,"time":149.94401041666688,"velocity":0.8031496062992126,"duration":0.19921875},{"name":"B4","midi":71,"time":150.14713541666688,"velocity":0.8031496062992126,"duration":0.19921875},{"name":"G5","midi":79,"time":150.14713541666688,"velocity":0.8031496062992126,"duration":0.40234375},{"name":"A4","midi":69,"time":150.34895833333354,"velocity":0.8031496062992126,"duration":0.19921875},{"name":"G4","midi":67,"time":150.55208333333354,"velocity":0.8031496062992126,"duration":0.19921875},{"name":"B5","midi":83,"time":150.55208333333354,"velocity":0.8031496062992126,"duration":0.40234375},{"name":"F#4","midi":66,"time":150.7539062500002,"velocity":0.8031496062992126,"duration":0.19921875},{"name":"E4","midi":64,"time":150.9570312500002,"velocity":0.8031496062992126,"duration":0.19921875},{"name":"C5","midi":72,"time":150.9570312500002,"velocity":0.8031496062992126,"duration":0.40234375},{"name":"G4","midi":67,"time":151.15885416666686,"velocity":0.8031496062992126,"duration":0.19921875},{"name":"B4","midi":71,"time":151.36197916666686,"velocity":0.8031496062992126,"duration":0.19921875},{"name":"G5","midi":79,"time":151.36197916666686,"velocity":0.8031496062992126,"duration":0.40234375},{"name":"D5","midi":74,"time":151.5638020833335,"velocity":0.8031496062992126,"duration":0.19921875},{"name":"C5","midi":72,"time":151.7669270833335,"velocity":0.8031496062992126,"duration":0.19921875},{"name":"B5","midi":83,"time":151.7669270833335,"velocity":0.8031496062992126,"duration":0.40234375},{"name":"B4","midi":71,"time":151.96875000000017,"velocity":0.8031496062992126,"duration":0.19921875},{"name":"A4","midi":69,"time":152.17187500000017,"velocity":0.8031496062992126,"duration":0.19921875},{"name":"C5","midi":72,"time":152.17187500000017,"velocity":0.8031496062992126,"duration":0.8007812499999716},{"name":"B4","midi":71,"time":152.37369791666683,"velocity":0.8031496062992126,"duration":0.19921875},{"name":"A4","midi":69,"time":152.57682291666683,"velocity":0.8031496062992126,"duration":0.19921875},{"name":"F#5","midi":78,"time":152.57682291666683,"velocity":0.8031496062992126,"duration":0.40234375},{"name":"G4","midi":67,"time":152.77864583333348,"velocity":0.8031496062992126,"duration":0.19921875},{"name":"F#4","midi":66,"time":152.98177083333348,"velocity":0.8031496062992126,"duration":0.19921875},{"name":"A5","midi":81,"time":152.98177083333348,"velocity":0.8031496062992126,"duration":0.40234375},{"name":"E4","midi":64,"time":153.18489583333348,"velocity":0.8031496062992126,"duration":0.19921875},{"name":"D4","midi":62,"time":153.38671875000014,"velocity":0.8031496062992126,"duration":0.19921875},{"name":"B4","midi":71,"time":153.38671875000014,"velocity":0.8031496062992126,"duration":0.40234375},{"name":"F#4","midi":66,"time":153.58984375000014,"velocity":0.8031496062992126,"duration":0.19921875},{"name":"A4","midi":69,"time":153.7916666666668,"velocity":0.8031496062992126,"duration":0.19921875},{"name":"F#5","midi":78,"time":153.7916666666668,"velocity":0.8031496062992126,"duration":0.40234375},{"name":"C5","midi":72,"time":153.9947916666668,"velocity":0.8031496062992126,"duration":0.19921875},{"name":"B4","midi":71,"time":154.19661458333346,"velocity":0.8031496062992126,"duration":0.19921875},{"name":"A5","midi":81,"time":154.19661458333346,"velocity":0.8031496062992126,"duration":0.40234375},{"name":"A4","midi":69,"time":154.39973958333346,"velocity":0.8031496062992126,"duration":0.19921875},{"name":"G4","midi":67,"time":154.6015625000001,"velocity":0.8031496062992126,"duration":0.19921875},{"name":"B4","midi":71,"time":154.6015625000001,"velocity":0.8031496062992126,"duration":0.80078125},{"name":"A4","midi":69,"time":154.8046875000001,"velocity":0.8031496062992126,"duration":0.19921875},{"name":"G4","midi":67,"time":155.00651041666677,"velocity":0.8031496062992126,"duration":0.19921875},{"name":"E5","midi":76,"time":155.00651041666677,"velocity":0.8031496062992126,"duration":0.40234375},{"name":"F#4","midi":66,"time":155.20963541666677,"velocity":0.8031496062992126,"duration":0.19921875},{"name":"E4","midi":64,"time":155.41145833333343,"velocity":0.8031496062992126,"duration":0.19921875},{"name":"G5","midi":79,"time":155.41145833333343,"velocity":0.8031496062992126,"duration":0.40234375},{"name":"D4","midi":62,"time":155.61458333333343,"velocity":0.8031496062992126,"duration":0.19921875},{"name":"C4","midi":60,"time":155.81640625000009,"velocity":0.8031496062992126,"duration":0.19921875},{"name":"A4","midi":69,"time":155.81640625000009,"velocity":0.8031496062992126,"duration":0.40234375},{"name":"E4","midi":64,"time":156.01953125000009,"velocity":0.8031496062992126,"duration":0.19921875},{"name":"G4","midi":67,"time":156.22135416666674,"velocity":0.8031496062992126,"duration":0.19921875},{"name":"E5","midi":76,"time":156.22135416666674,"velocity":0.8031496062992126,"duration":0.40234375},{"name":"B4","midi":71,"time":156.42447916666674,"velocity":0.8031496062992126,"duration":0.19921875},{"name":"A4","midi":69,"time":156.6263020833334,"velocity":0.8031496062992126,"duration":0.19921875},{"name":"G5","midi":79,"time":156.6263020833334,"velocity":0.8031496062992126,"duration":0.40234375},{"name":"G4","midi":67,"time":156.8294270833334,"velocity":0.8031496062992126,"duration":0.19921875},{"name":"F#4","midi":66,"time":157.03125000000006,"velocity":0.8031496062992126,"duration":0.19921875},{"name":"A4","midi":69,"time":157.03125000000006,"velocity":0.8031496062992126,"duration":0.80078125},{"name":"G4","midi":67,"time":157.23437500000006,"velocity":0.8031496062992126,"duration":0.19921875},{"name":"F#4","midi":66,"time":157.4361979166667,"velocity":0.8031496062992126,"duration":0.19921875},{"name":"D5","midi":74,"time":157.4361979166667,"velocity":0.8031496062992126,"duration":0.40234375},{"name":"E4","midi":64,"time":157.6393229166667,"velocity":0.8031496062992126,"duration":0.19921875},{"name":"D4","midi":62,"time":157.84114583333337,"velocity":0.8031496062992126,"duration":0.19921875},{"name":"F#5","midi":78,"time":157.84114583333337,"velocity":0.8031496062992126,"duration":0.40234375},{"name":"C4","midi":60,"time":158.04427083333337,"velocity":0.8031496062992126,"duration":0.19921875},{"name":"B3","midi":59,"time":158.24739583333337,"velocity":0.8031496062992126,"duration":0.19921875},{"name":"G5","midi":79,"time":158.24739583333337,"velocity":0.8031496062992126,"duration":0.6041666666666572},{"name":"C4","midi":60,"time":158.44921875000003,"velocity":0.8031496062992126,"duration":0.19921875},{"name":"B4","midi":71,"time":158.44921875000003,"velocity":0.8031496062992126,"duration":0.19921875},{"name":"D4","midi":62,"time":158.65234375000003,"velocity":0.8031496062992126,"duration":0.6041666666666572},{"name":"A4","midi":69,"time":158.65234375000003,"velocity":0.8031496062992126,"duration":0.58984375},{"name":"F#5","midi":78,"time":158.85416666666669,"velocity":0.8031496062992126,"duration":0.19921875},{"name":"G5","midi":79,"time":159.05729166666669,"velocity":0.8031496062992126,"duration":0.19921875},{"name":"D4","midi":62,"time":159.25911458333334,"velocity":0.8031496062992126,"duration":0.19921875},{"name":"A5","midi":81,"time":159.25911458333334,"velocity":0.8031496062992126,"duration":0.19921875},{"name":"G3","midi":55,"time":159.46223958333334,"velocity":0.8031496062992126,"duration":0.40234375},{"name":"B5","midi":83,"time":159.46223958333334,"velocity":0.8031496062992126,"duration":1.2122395833333144},{"name":"A5","midi":81,"time":159.6640625,"velocity":0.8031496062992126,"duration":0.19921875},{"name":"E4","midi":64,"time":159.8671875,"velocity":0.8031496062992126,"duration":0.19921875},{"name":"G5","midi":79,"time":159.8671875,"velocity":0.8031496062992126,"duration":0.19921875},{"name":"D4","midi":62,"time":160.06901041666666,"velocity":0.8031496062992126,"duration":0.19921875},{"name":"F#5","midi":78,"time":160.06901041666666,"velocity":0.8031496062992126,"duration":0.19921875},{"name":"E4","midi":64,"time":160.27213541666666,"velocity":0.8031496062992126,"duration":0.19921875},{"name":"G5","midi":79,"time":160.27213541666666,"velocity":0.8031496062992126,"duration":0.19921875},{"name":"C4","midi":60,"time":160.47395833333331,"velocity":0.8031496062992126,"duration":0.19921875},{"name":"E5","midi":76,"time":160.47395833333331,"velocity":0.8031496062992126,"duration":0.8072916666666572},{"name":"F#3","midi":54,"time":160.67708333333331,"velocity":0.8031496062992126,"duration":0.40234375},{"name":"A5","midi":81,"time":160.67708333333331,"velocity":0.8031496062992126,"duration":0.19921875},{"name":"G5","midi":79,"time":160.87890624999997,"velocity":0.8031496062992126,"duration":0.19921875},{"name":"B3","midi":59,"time":161.08203124999997,"velocity":0.8031496062992126,"duration":0.09895833333334281},{"name":"F#5","midi":78,"time":161.08203124999997,"velocity":0.8031496062992126,"duration":0.6041666666666856},{"name":"A3","midi":57,"time":161.18359374999997,"velocity":0.8031496062992126,"duration":0.09895833333334281},{"name":"B3","midi":59,"time":161.28385416666666,"velocity":0.8031496062992126,"duration":0.40234375},{"name":"E5","midi":76,"time":161.28385416666666,"velocity":0.8031496062992126,"duration":0.19921875},{"name":"D5","midi":74,"time":161.48697916666666,"velocity":0.8031496062992126,"duration":0.6041666666666572},{"name":"B3","midi":59,"time":161.68880208333331,"velocity":0.8031496062992126,"duration":0.19921875},{"name":"F#5","midi":78,"time":161.68880208333331,"velocity":0.8031496062992126,"duration":0.19921875},{"name":"E3","midi":52,"time":161.89192708333331,"velocity":0.8031496062992126,"duration":0.40234375},{"name":"G5","midi":79,"time":161.89192708333331,"velocity":0.8031496062992126,"duration":1.2122395833333144},{"name":"F#5","midi":78,"time":162.09374999999997,"velocity":0.8031496062992126,"duration":0.19921875},{"name":"C4","midi":60,"time":162.29687499999997,"velocity":0.8031496062992126,"duration":0.19921875},{"name":"E5","midi":76,"time":162.29687499999997,"velocity":0.8031496062992126,"duration":0.19921875},{"name":"B3","midi":59,"time":162.49869791666663,"velocity":0.8031496062992126,"duration":0.19921875},{"name":"D5","midi":74,"time":162.49869791666663,"velocity":0.8031496062992126,"duration":0.19921875},{"name":"C4","midi":60,"time":162.70182291666663,"velocity":0.8031496062992126,"duration":0.19921875},{"name":"E5","midi":76,"time":162.70182291666663,"velocity":0.8031496062992126,"duration":0.19921875},{"name":"A3","midi":57,"time":162.9036458333333,"velocity":0.8031496062992126,"duration":0.19921875},{"name":"C5","midi":72,"time":162.9036458333333,"velocity":0.8031496062992126,"duration":0.8072916666666572},{"name":"D3","midi":50,"time":163.1067708333333,"velocity":0.8031496062992126,"duration":0.40234375},{"name":"F#5","midi":78,"time":163.1067708333333,"velocity":0.8031496062992126,"duration":0.19921875},{"name":"E5","midi":76,"time":163.3098958333333,"velocity":0.8031496062992126,"duration":0.19921875},{"name":"G3","midi":55,"time":163.51171874999994,"velocity":0.8031496062992126,"duration":0.09895833333334281},{"name":"D5","midi":74,"time":163.51171874999994,"velocity":0.8031496062992126,"duration":0.6041666666666572},{"name":"F#3","midi":54,"time":163.61328124999994,"velocity":0.8031496062992126,"duration":0.09895833333334281},{"name":"G3","midi":55,"time":163.71484374999994,"velocity":0.8031496062992126,"duration":0.40234375},{"name":"C5","midi":72,"time":163.71484374999994,"velocity":0.8031496062992126,"duration":0.19921875},{"name":"B4","midi":71,"time":163.9166666666666,"velocity":0.8031496062992126,"duration":0.6041666666666572},{"name":"G3","midi":55,"time":164.1197916666666,"velocity":0.8031496062992126,"duration":0.19921875},{"name":"F5","midi":77,"time":164.1197916666666,"velocity":0.8031496062992126,"duration":0.19921875},{"name":"C3","midi":48,"time":164.32161458333326,"velocity":0.8031496062992126,"duration":0.40234375},{"name":"E5","midi":76,"time":164.32161458333326,"velocity":0.8031496062992126,"duration":1.2122395833333144},{"name":"D5","midi":74,"time":164.52473958333326,"velocity":0.8031496062992126,"duration":0.19921875},{"name":"A3","midi":57,"time":164.72656249999991,"velocity":0.8031496062992126,"duration":0.19921875},{"name":"C5","midi":72,"time":164.72656249999991,"velocity":0.8031496062992126,"duration":0.19921875},{"name":"G3","midi":55,"time":164.92968749999991,"velocity":0.8031496062992126,"duration":0.19921875},{"name":"B4","midi":71,"time":164.92968749999991,"velocity":0.8031496062992126,"duration":0.19921875},{"name":"A3","midi":57,"time":165.13151041666657,"velocity":0.8031496062992126,"duration":0.19921875},{"name":"C5","midi":72,"time":165.13151041666657,"velocity":0.8031496062992126,"duration":0.19921875},{"name":"F#3","midi":54,"time":165.33463541666657,"velocity":0.8031496062992126,"duration":0.19921875},{"name":"A4","midi":69,"time":165.33463541666657,"velocity":0.8031496062992126,"duration":0.8072916666666572},{"name":"B2","midi":47,"time":165.53645833333323,"velocity":0.8031496062992126,"duration":0.40234375},{"name":"D5","midi":74,"time":165.53645833333323,"velocity":0.8031496062992126,"duration":0.19921875},{"name":"C5","midi":72,"time":165.73958333333323,"velocity":0.8031496062992126,"duration":0.19921875},{"name":"E3","midi":52,"time":165.9414062499999,"velocity":0.8031496062992126,"duration":0.09895833333334281},{"name":"B4","midi":71,"time":165.9414062499999,"velocity":0.8031496062992126,"duration":0.6041666666666572},{"name":"D3","midi":50,"time":166.0429687499999,"velocity":0.8031496062992126,"duration":0.09895833333334281},{"name":"E3","midi":52,"time":166.1445312499999,"velocity":0.8031496062992126,"duration":0.40234375},{"name":"A4","midi":69,"time":166.1445312499999,"velocity":0.8031496062992126,"duration":0.19921875},{"name":"G4","midi":67,"time":166.34635416666654,"velocity":0.8031496062992126,"duration":0.6041666666666572},{"name":"E3","midi":52,"time":166.54947916666654,"velocity":0.8031496062992126,"duration":0.19921875},{"name":"D5","midi":74,"time":166.54947916666654,"velocity":0.8031496062992126,"duration":0.19921875},{"name":"A2","midi":45,"time":166.7513020833332,"velocity":0.8031496062992126,"duration":0.40234375},{"name":"C5","midi":72,"time":166.7513020833332,"velocity":0.8031496062992126,"duration":1.4166666666666288},{"name":"B4","midi":71,"time":166.9544270833332,"velocity":0.8031496062992126,"duration":0.19921875},{"name":"F#3","midi":54,"time":167.15624999999986,"velocity":0.8031496062992126,"duration":0.19921875},{"name":"A4","midi":69,"time":167.15624999999986,"velocity":0.8031496062992126,"duration":0.19921875},{"name":"E3","midi":52,"time":167.35937499999986,"velocity":0.8031496062992126,"duration":0.19921875},{"name":"G4","midi":67,"time":167.35937499999986,"velocity":0.8031496062992126,"duration":0.19921875},{"name":"F#3","midi":54,"time":167.56119791666652,"velocity":0.8031496062992126,"duration":0.19921875},{"name":"A4","midi":69,"time":167.56119791666652,"velocity":0.8031496062992126,"duration":0.19921875},{"name":"D3","midi":50,"time":167.76432291666652,"velocity":0.8031496062992126,"duration":0.19921875},{"name":"F#4","midi":66,"time":167.76432291666652,"velocity":0.8031496062992126,"duration":0.19921875},{"name":"G2","midi":43,"time":167.96614583333317,"velocity":0.8031496062992126,"duration":0.6106770833333144},{"name":"D4","midi":62,"time":167.96614583333317,"velocity":0.8031496062992126,"duration":1.6341145833332291},{"name":"C5","midi":72,"time":168.17187499999983,"velocity":0.8031496062992126,"duration":0.2018229166666572},{"name":"B4","midi":71,"time":168.37630208333314,"velocity":0.8031496062992126,"duration":0.20182291666668561},{"name":"A2","midi":45,"time":168.5807291666665,"velocity":0.8031496062992126,"duration":0.2018229166666572},{"name":"A4","midi":69,"time":168.5807291666665,"velocity":0.8031496062992126,"duration":0.2018229166666572},{"name":"B2","midi":47,"time":168.7851562499998,"velocity":0.8031496062992126,"duration":0.610677083333286},{"name":"G4","midi":67,"time":168.7851562499998,"velocity":0.8031496062992126,"duration":0.2018229166666572},{"name":"F#4","midi":66,"time":168.98958333333312,"velocity":0.8031496062992126,"duration":0.2018229166666572},{"name":"G4","midi":67,"time":169.19401041666643,"velocity":0.8031496062992126,"duration":0.2018229166666572},{"name":"C3","midi":48,"time":169.39843749999974,"velocity":0.8031496062992126,"duration":0.2018229166666572},{"name":"A4","midi":69,"time":169.39843749999974,"velocity":0.8031496062992126,"duration":0.2018229166666572},{"name":"D3","midi":50,"time":169.6041666666664,"velocity":0.8031496062992126,"duration":0.20442708333331439},{"name":"F#4","midi":66,"time":169.6041666666664,"velocity":0.8031496062992126,"duration":0.8177083333332575},{"name":"B4","midi":71,"time":169.6041666666664,"velocity":0.8031496062992126,"duration":0.10026041666665719},{"name":"A4","midi":69,"time":169.70703124999972,"velocity":0.8031496062992126,"duration":0.10026041666665719},{"name":"C3","midi":48,"time":169.80989583333306,"velocity":0.8031496062992126,"duration":0.20442708333331439},{"name":"B4","midi":71,"time":169.80989583333306,"velocity":0.8031496062992126,"duration":0.10026041666665719},{"name":"A4","midi":69,"time":169.91406249999972,"velocity":0.8031496062992126,"duration":0.10026041666665719},{"name":"D3","midi":50,"time":170.01692708333303,"velocity":0.8031496062992126,"duration":0.20442708333331439},{"name":"B4","midi":71,"time":170.01692708333303,"velocity":0.8031496062992126,"duration":0.10026041666665719},{"name":"A4","midi":69,"time":170.1210937499997,"velocity":0.8031496062992126,"duration":0.10026041666665719},{"name":"D2","midi":38,"time":170.223958333333,"velocity":0.8031496062992126,"duration":0.2044270833333428},{"name":"G4","midi":67,"time":170.223958333333,"velocity":0.8031496062992126,"duration":0.10026041666665719},{"name":"A4","midi":69,"time":170.32682291666632,"velocity":0.8031496062992126,"duration":0.10026041666668561},{"name":"G2","midi":43,"time":170.430989583333,"velocity":0.8031496062992126,"duration":0.4153645833333428},{"name":"B4","midi":71,"time":170.430989583333,"velocity":0.8031496062992126,"duration":1.0416666666666572},{"name":"F#4","midi":66,"time":170.63932291666634,"velocity":0.8031496062992126,"duration":0.2057291666666572},{"name":"G3","midi":55,"time":170.8476562499997,"velocity":0.8031496062992126,"duration":0.6236979166666288},{"name":"G4","midi":67,"time":170.8476562499997,"velocity":0.8031496062992126,"duration":0.2057291666666572},{"name":"D#4","midi":63,"time":171.05729166666634,"velocity":0.8031496062992126,"duration":0.2057291666666572},{"name":"E4","midi":64,"time":171.26562499999966,"velocity":0.8031496062992126,"duration":0.8320312499999432},{"name":"F#3","midi":54,"time":171.47526041666632,"velocity":0.8031496062992126,"duration":0.2057291666666572},{"name":"A#4","midi":70,"time":171.47526041666632,"velocity":0.8031496062992126,"duration":0.2057291666666572},{"name":"G3","midi":55,"time":171.68359374999963,"velocity":0.8031496062992126,"duration":0.2057291666666572},{"name":"B4","midi":71,"time":171.68359374999963,"velocity":0.8031496062992126,"duration":0.2057291666666572},{"name":"E3","midi":52,"time":171.89192708333294,"velocity":0.8031496062992126,"duration":0.2057291666666572},{"name":"C#5","midi":73,"time":171.89192708333294,"velocity":0.8031496062992126,"duration":0.2057291666666572},{"name":"F#3","midi":54,"time":172.1015624999996,"velocity":0.8031496062992126,"duration":0.20442708333331439},{"name":"A#4","midi":70,"time":172.1015624999996,"velocity":0.8031496062992126,"duration":0.8177083333332575},{"name":"D5","midi":74,"time":172.1015624999996,"velocity":0.8031496062992126,"duration":0.10026041666665719},{"name":"C#5","midi":73,"time":172.20442708333292,"velocity":0.8031496062992126,"duration":0.10026041666665719},{"name":"E3","midi":52,"time":172.30729166666626,"velocity":0.8031496062992126,"duration":0.20442708333331439},{"name":"D5","midi":74,"time":172.30729166666626,"velocity":0.8031496062992126,"duration":0.10026041666665719},{"name":"C#5","midi":73,"time":172.41145833333292,"velocity":0.8031496062992126,"duration":0.10026041666665719},{"name":"F#3","midi":54,"time":172.51432291666623,"velocity":0.8031496062992126,"duration":0.20442708333331439},{"name":"D5","midi":74,"time":172.51432291666623,"velocity":0.8031496062992126,"duration":0.10026041666665719},{"name":"C#5","midi":73,"time":172.6184895833329,"velocity":0.8031496062992126,"duration":0.10026041666665719},{"name":"F#2","midi":42,"time":172.7213541666662,"velocity":0.8031496062992126,"duration":0.2044270833333428},{"name":"B4","midi":71,"time":172.7213541666662,"velocity":0.8031496062992126,"duration":0.10026041666665719},{"name":"C#5","midi":73,"time":172.82421874999952,"velocity":0.8031496062992126,"duration":0.10026041666668561},{"name":"B2","midi":47,"time":172.9283854166662,"velocity":0.8031496062992126,"duration":0.4153645833333428},{"name":"D5","midi":74,"time":172.9283854166662,"velocity":0.8031496062992126,"duration":1.0416666666666572},{"name":"A#4","midi":70,"time":173.13671874999955,"velocity":0.8031496062992126,"duration":0.2057291666666572},{"name":"B3","midi":59,"time":173.3450520833329,"velocity":0.8031496062992126,"duration":0.6236979166666288},{"name":"B4","midi":71,"time":173.3450520833329,"velocity":0.8031496062992126,"duration":0.2057291666666572},{"name":"F#4","midi":66,"time":173.55468749999955,"velocity":0.8031496062992126,"duration":0.2057291666666572},{"name":"G4","midi":67,"time":173.76302083333286,"velocity":0.8031496062992126,"duration":0.8320312499999432},{"name":"A3","midi":57,"time":173.97265624999952,"velocity":0.8031496062992126,"duration":0.2057291666666572},{"name":"C#5","midi":73,"time":173.97265624999952,"velocity":0.8031496062992126,"duration":0.2057291666666572},{"name":"B3","midi":59,"time":174.18098958333283,"velocity":0.8031496062992126,"duration":0.2057291666666572},{"name":"D5","midi":74,"time":174.18098958333283,"velocity":0.8031496062992126,"duration":0.2057291666666572},{"name":"G3","midi":55,"time":174.38932291666615,"velocity":0.8031496062992126,"duration":0.2057291666666572},{"name":"E5","midi":76,"time":174.38932291666615,"velocity":0.8031496062992126,"duration":0.2057291666666572},{"name":"A3","midi":57,"time":174.5989583333328,"velocity":0.8031496062992126,"duration":0.20442708333331439},{"name":"C#5","midi":73,"time":174.5989583333328,"velocity":0.8031496062992126,"duration":0.8177083333332575},{"name":"F#5","midi":78,"time":174.5989583333328,"velocity":0.8031496062992126,"duration":0.10026041666665719},{"name":"E5","midi":76,"time":174.70182291666612,"velocity":0.8031496062992126,"duration":0.10026041666665719},{"name":"G3","midi":55,"time":174.80598958333277,"velocity":0.8031496062992126,"duration":0.20442708333331439},{"name":"F#5","midi":78,"time":174.80598958333277,"velocity":0.8031496062992126,"duration":0.10026041666665719},{"name":"E5","midi":76,"time":174.9088541666661,"velocity":0.8031496062992126,"duration":0.10026041666665719},{"name":"A3","midi":57,"time":175.01171874999943,"velocity":0.8031496062992126,"duration":0.20442708333331439},{"name":"F#5","midi":78,"time":175.01171874999943,"velocity":0.8031496062992126,"duration":0.10026041666665719},{"name":"E5","midi":76,"time":175.1158854166661,"velocity":0.8031496062992126,"duration":0.10026041666665719},{"name":"A2","midi":45,"time":175.2187499999994,"velocity":0.8031496062992126,"duration":0.2044270833333428},{"name":"D5","midi":74,"time":175.2187499999994,"velocity":0.8031496062992126,"duration":0.10026041666665719},{"name":"E5","midi":76,"time":175.32161458333272,"velocity":0.8031496062992126,"duration":0.10026041666668561},{"name":"D3","midi":50,"time":175.4257812499994,"velocity":0.8031496062992126,"duration":0.4153645833333428},{"name":"F#5","midi":78,"time":175.4257812499994,"velocity":0.8031496062992126,"duration":1.0416666666666288},{"name":"C#5","midi":73,"time":175.63411458333275,"velocity":0.8031496062992126,"duration":0.2057291666666572},{"name":"D4","midi":62,"time":175.8437499999994,"velocity":0.8031496062992126,"duration":0.6236979166666288},{"name":"D5","midi":74,"time":175.8437499999994,"velocity":0.8031496062992126,"duration":0.2057291666666572},{"name":"A#4","midi":70,"time":176.05208333333272,"velocity":0.8031496062992126,"duration":0.2057291666666572},{"name":"B4","midi":71,"time":176.26041666666603,"velocity":0.8031496062992126,"duration":1.0390624999999147},{"name":"B3","midi":59,"time":176.4700520833327,"velocity":0.8031496062992126,"duration":0.2057291666666572},{"name":"D5","midi":74,"time":176.4700520833327,"velocity":0.8031496062992126,"duration":0.2057291666666572},{"name":"E4","midi":64,"time":176.678385416666,"velocity":0.8031496062992126,"duration":0.10026041666665719},{"name":"C#5","midi":73,"time":176.678385416666,"velocity":0.8031496062992126,"duration":0.20442708333331439},{"name":"D4","midi":62,"time":176.78124999999932,"velocity":0.8031496062992126,"duration":0.10026041666665719},{"name":"E4","midi":64,"time":176.88541666666598,"velocity":0.8031496062992126,"duration":0.4153645833333144},{"name":"D5","midi":74,"time":176.88541666666598,"velocity":0.8031496062992126,"duration":0.2057291666666572},{"name":"E5","midi":76,"time":177.0937499999993,"velocity":0.8031496062992126,"duration":1.0429687499999432},{"name":"G4","midi":67,"time":177.30338541666595,"velocity":0.8031496062992126,"duration":0.2057291666666572},{"name":"D5","midi":74,"time":177.30338541666595,"velocity":0.8031496062992126,"duration":0.2057291666666572},{"name":"E4","midi":64,"time":177.51171874999926,"velocity":0.8031496062992126,"duration":0.2057291666666572},{"name":"C#5","midi":73,"time":177.51171874999926,"velocity":0.8031496062992126,"duration":0.2057291666666572},{"name":"C#4","midi":61,"time":177.72005208333258,"velocity":0.8031496062992126,"duration":0.2057291666666572},{"name":"B4","midi":71,"time":177.72005208333258,"velocity":0.8031496062992126,"duration":0.2057291666666572},{"name":"F#4","midi":66,"time":177.92968749999923,"velocity":0.8031496062992126,"duration":0.8346354166666572},{"name":"A#4","midi":70,"time":177.92968749999923,"velocity":0.8031496062992126,"duration":0.6302083333333428},{"name":"C#5","midi":73,"time":178.14062499999923,"velocity":0.8031496062992126,"duration":0.10286458333334281},{"name":"D5","midi":74,"time":178.24609374999923,"velocity":0.8031496062992126,"duration":0.10286458333334281},{"name":"F#3","midi":54,"time":178.35156249999923,"velocity":0.8031496062992126,"duration":0.4192708333333144},{"name":"E5","midi":76,"time":178.35156249999923,"velocity":0.8031496062992126,"duration":1.0520833333333144},{"name":"C#5","midi":73,"time":178.56249999999923,"velocity":0.8031496062992126,"duration":0.20833333333331439},{"name":"F#4","midi":66,"time":178.7734374999992,"velocity":0.8031496062992126,"duration":0.4192708333333428},{"name":"B4","midi":71,"time":178.7734374999992,"velocity":0.8031496062992126,"duration":0.2083333333333428},{"name":"A#4","midi":70,"time":178.9843749999992,"velocity":0.8031496062992126,"duration":0.2083333333333428},{"name":"F#4","midi":66,"time":179.1953124999992,"velocity":0.8031496062992126,"duration":0.8346354166666572},{"name":"B4","midi":71,"time":179.1953124999992,"velocity":0.8031496062992126,"duration":0.6302083333333428},{"name":"D5","midi":74,"time":179.4062499999992,"velocity":0.8031496062992126,"duration":0.10286458333334281},{"name":"E5","midi":76,"time":179.5117187499992,"velocity":0.8031496062992126,"duration":0.10286458333334281},{"name":"F#3","midi":54,"time":179.6171874999992,"velocity":0.8031496062992126,"duration":0.4192708333333144},{"name":"F#5","midi":78,"time":179.6171874999992,"velocity":0.8031496062992126,"duration":1.0520833333333144},{"name":"D5","midi":74,"time":179.8281249999992,"velocity":0.8031496062992126,"duration":0.20833333333331439},{"name":"F#4","midi":66,"time":180.03906249999918,"velocity":0.8031496062992126,"duration":0.4192708333333428},{"name":"C#5","midi":73,"time":180.03906249999918,"velocity":0.8031496062992126,"duration":0.2083333333333428},{"name":"B4","midi":71,"time":180.24999999999918,"velocity":0.8031496062992126,"duration":0.2083333333333428},{"name":"F#4","midi":66,"time":180.46093749999918,"velocity":0.8031496062992126,"duration":0.8346354166666572},{"name":"C#5","midi":73,"time":180.46093749999918,"velocity":0.8031496062992126,"duration":0.6302083333333428},{"name":"E5","midi":76,"time":180.67187499999918,"velocity":0.8031496062992126,"duration":0.2083333333333428},{"name":"F#3","midi":54,"time":180.88281249999918,"velocity":0.8031496062992126,"duration":0.4192708333333144},{"name":"A#5","midi":82,"time":180.88281249999918,"velocity":0.8031496062992126,"duration":1.0520833333333144},{"name":"E5","midi":76,"time":181.09374999999918,"velocity":0.8031496062992126,"duration":0.20833333333331439},{"name":"F#4","midi":66,"time":181.30468749999915,"velocity":0.8031496062992126,"duration":0.4192708333333428},{"name":"D5","midi":74,"time":181.30468749999915,"velocity":0.8031496062992126,"duration":0.2083333333333428},{"name":"C#5","midi":73,"time":181.51562499999915,"velocity":0.8031496062992126,"duration":0.2083333333333428},{"name":"F#4","midi":66,"time":181.72656249999915,"velocity":0.8031496062992126,"duration":0.8346354166666572},{"name":"D5","midi":74,"time":181.72656249999915,"velocity":0.8031496062992126,"duration":0.6302083333333428},{"name":"F#5","midi":78,"time":181.93749999999915,"velocity":0.8031496062992126,"duration":0.2083333333333428},{"name":"F#3","midi":54,"time":182.14843749999915,"velocity":0.8031496062992126,"duration":0.4192708333333144},{"name":"B5","midi":83,"time":182.14843749999915,"velocity":0.8031496062992126,"duration":0.8346354166666288},{"name":"A5","midi":81,"time":182.35937499999915,"velocity":0.8031496062992126,"duration":0.20833333333331439},{"name":"F#4","midi":66,"time":182.57031249999912,"velocity":0.8031496062992126,"duration":0.4192708333333144},{"name":"G#5","midi":80,"time":182.57031249999912,"velocity":0.8031496062992126,"duration":0.2083333333333428},{"name":"F#5","midi":78,"time":182.78124999999912,"velocity":0.8031496062992126,"duration":0.20833333333331439},{"name":"F#4","midi":66,"time":182.9921874999991,"velocity":0.8031496062992126,"duration":0.6158854166666572},{"name":"F5","midi":77,"time":182.9921874999991,"velocity":0.8031496062992126,"duration":0.2083333333333428},{"name":"G#5","midi":80,"time":183.2031249999991,"velocity":0.8031496062992126,"duration":0.2083333333333428},{"name":"F#3","midi":54,"time":183.4140624999991,"velocity":0.8031496062992126,"duration":0.4192708333333144},{"name":"B4","midi":71,"time":183.4140624999991,"velocity":0.8031496062992126,"duration":0.20833333333331439},{"name":"D5","midi":74,"time":183.62499999999906,"velocity":0.8031496062992126,"duration":0.2083333333333428},{"name":"F#4","midi":66,"time":183.83593749999906,"velocity":0.8031496062992126,"duration":0.4192708333333428},{"name":"C#5","midi":73,"time":183.83593749999906,"velocity":0.8031496062992126,"duration":0.2083333333333428},{"name":"B4","midi":71,"time":184.04687499999906,"velocity":0.8031496062992126,"duration":0.2083333333333428},{"name":"F#4","midi":66,"time":184.25781249999906,"velocity":0.8031496062992126,"duration":0.2083333333333428},{"name":"A#4","midi":70,"time":184.25781249999906,"velocity":0.8031496062992126,"duration":0.2083333333333428},{"name":"G4","midi":67,"time":184.46874999999906,"velocity":0.8031496062992126,"duration":0.2083333333333428},{"name":"C#5","midi":73,"time":184.46874999999906,"velocity":0.8031496062992126,"duration":0.2083333333333428},{"name":"F#4","midi":66,"time":184.67968749999906,"velocity":0.8031496062992126,"duration":0.2083333333333428},{"name":"E5","midi":76,"time":184.67968749999906,"velocity":0.8031496062992126,"duration":0.2083333333333428},{"name":"E4","midi":64,"time":184.89062499999906,"velocity":0.8031496062992126,"duration":0.2083333333333428},{"name":"G5","midi":79,"time":184.89062499999906,"velocity":0.8031496062992126,"duration":0.2083333333333428},{"name":"D4","midi":62,"time":185.10156249999906,"velocity":0.8031496062992126,"duration":0.2083333333333428},{"name":"F#5","midi":78,"time":185.10156249999906,"velocity":0.8031496062992126,"duration":0.2083333333333428},{"name":"C#4","midi":61,"time":185.31249999999906,"velocity":0.8031496062992126,"duration":0.2083333333333428},{"name":"E5","midi":76,"time":185.31249999999906,"velocity":0.8031496062992126,"duration":0.2083333333333428},{"name":"B3","midi":59,"time":185.52343749999906,"velocity":0.8031496062992126,"duration":0.2083333333333428},{"name":"D5","midi":74,"time":185.52343749999906,"velocity":0.8031496062992126,"duration":1.4739583333333428},{"name":"C#4","midi":61,"time":185.73437499999906,"velocity":0.8031496062992126,"duration":0.2083333333333428},{"name":"F#5","midi":78,"time":185.73437499999906,"velocity":0.8031496062992126,"duration":0.2083333333333428},{"name":"B3","midi":59,"time":185.94531249999906,"velocity":0.8031496062992126,"duration":0.2083333333333428},{"name":"A5","midi":81,"time":185.94531249999906,"velocity":0.8031496062992126,"duration":0.2083333333333428},{"name":"A3","midi":57,"time":186.15624999999906,"velocity":0.8031496062992126,"duration":0.2083333333333428},{"name":"C6","midi":84,"time":186.15624999999906,"velocity":0.8031496062992126,"duration":0.2083333333333428},{"name":"G3","midi":55,"time":186.36718749999906,"velocity":0.8031496062992126,"duration":0.2083333333333428},{"name":"B5","midi":83,"time":186.36718749999906,"velocity":0.8031496062992126,"duration":0.2083333333333428},{"name":"F#3","midi":54,"time":186.57812499999906,"velocity":0.8031496062992126,"duration":0.2083333333333428},{"name":"A5","midi":81,"time":186.57812499999906,"velocity":0.8031496062992126,"duration":0.2083333333333428},{"name":"E3","midi":52,"time":186.78906249999906,"velocity":0.8031496062992126,"duration":0.2083333333333428},{"name":"G5","midi":79,"time":186.78906249999906,"velocity":0.8031496062992126,"duration":1.4739583333333428},{"name":"D3","midi":50,"time":186.99999999999906,"velocity":0.8031496062992126,"duration":0.2083333333333428},{"name":"F#5","midi":78,"time":186.99999999999906,"velocity":0.8031496062992126,"duration":0.2083333333333428},{"name":"E3","midi":52,"time":187.21093749999906,"velocity":0.8031496062992126,"duration":0.2083333333333428},{"name":"E5","midi":76,"time":187.21093749999906,"velocity":0.8031496062992126,"duration":0.2083333333333428},{"name":"F#3","midi":54,"time":187.42187499999906,"velocity":0.8031496062992126,"duration":0.2083333333333428},{"name":"D5","midi":74,"time":187.42187499999906,"velocity":0.8031496062992126,"duration":0.2083333333333428},{"name":"G3","midi":55,"time":187.63281249999906,"velocity":0.8031496062992126,"duration":0.2083333333333428},{"name":"E5","midi":76,"time":187.63281249999906,"velocity":0.8031496062992126,"duration":0.2083333333333428},{"name":"E3","midi":52,"time":187.84374999999906,"velocity":0.8031496062992126,"duration":0.2083333333333428},{"name":"B4","midi":71,"time":187.84374999999906,"velocity":0.8031496062992126,"duration":0.2083333333333428},{"name":"A3","midi":57,"time":188.05468749999906,"velocity":0.8031496062992126,"duration":0.2083333333333428},{"name":"C#5","midi":73,"time":188.05468749999906,"velocity":0.8031496062992126,"duration":1.4739583333333428},{"name":"B3","midi":59,"time":188.26562499999906,"velocity":0.8031496062992126,"duration":0.2083333333333428},{"name":"E5","midi":76,"time":188.26562499999906,"velocity":0.8031496062992126,"duration":0.2083333333333428},{"name":"A3","midi":57,"time":188.47656249999906,"velocity":0.8031496062992126,"duration":0.2083333333333428},{"name":"G5","midi":79,"time":188.47656249999906,"velocity":0.8031496062992126,"duration":0.2083333333333428},{"name":"G3","midi":55,"time":188.68749999999906,"velocity":0.8031496062992126,"duration":0.2083333333333428},{"name":"B5","midi":83,"time":188.68749999999906,"velocity":0.8031496062992126,"duration":0.2083333333333428},{"name":"F#3","midi":54,"time":188.89843749999906,"velocity":0.8031496062992126,"duration":0.2083333333333428},{"name":"A5","midi":81,"time":188.89843749999906,"velocity":0.8031496062992126,"duration":0.2083333333333428},{"name":"E3","midi":52,"time":189.10937499999906,"velocity":0.8031496062992126,"duration":0.2083333333333428},{"name":"G5","midi":79,"time":189.10937499999906,"velocity":0.8031496062992126,"duration":0.2083333333333428},{"name":"D3","midi":50,"time":189.32031249999906,"velocity":0.8031496062992126,"duration":0.2083333333333428},{"name":"F#5","midi":78,"time":189.32031249999906,"velocity":0.8031496062992126,"duration":1.4739583333333428},{"name":"C#3","midi":49,"time":189.53124999999906,"velocity":0.8031496062992126,"duration":0.2083333333333428},{"name":"E5","midi":76,"time":189.53124999999906,"velocity":0.8031496062992126,"duration":0.2083333333333428},{"name":"D3","midi":50,"time":189.74218749999906,"velocity":0.8031496062992126,"duration":0.2083333333333428},{"name":"D5","midi":74,"time":189.74218749999906,"velocity":0.8031496062992126,"duration":0.2083333333333428},{"name":"E3","midi":52,"time":189.95312499999906,"velocity":0.8031496062992126,"duration":0.2083333333333428},{"name":"C#5","midi":73,"time":189.95312499999906,"velocity":0.8031496062992126,"duration":0.2083333333333428},{"name":"F#3","midi":54,"time":190.16406249999906,"velocity":0.8031496062992126,"duration":0.2083333333333428},{"name":"D5","midi":74,"time":190.16406249999906,"velocity":0.8031496062992126,"duration":0.2083333333333428},{"name":"D3","midi":50,"time":190.37499999999906,"velocity":0.8031496062992126,"duration":0.2083333333333428},{"name":"A#4","midi":70,"time":190.37499999999906,"velocity":0.8031496062992126,"duration":0.2083333333333428},{"name":"G3","midi":55,"time":190.58593749999906,"velocity":0.8031496062992126,"duration":0.2083333333333428},{"name":"B4","midi":71,"time":190.58593749999906,"velocity":0.8031496062992126,"duration":1.4739583333333428},{"name":"A3","midi":57,"time":190.79687499999906,"velocity":0.8031496062992126,"duration":0.2083333333333428},{"name":"D5","midi":74,"time":190.79687499999906,"velocity":0.8031496062992126,"duration":0.2083333333333428},{"name":"G3","midi":55,"time":191.00781249999906,"velocity":0.8031496062992126,"duration":0.2083333333333428},{"name":"F#5","midi":78,"time":191.00781249999906,"velocity":0.8031496062992126,"duration":0.2083333333333428},{"name":"F#3","midi":54,"time":191.21874999999906,"velocity":0.8031496062992126,"duration":0.2083333333333428},{"name":"A5","midi":81,"time":191.21874999999906,"velocity":0.8031496062992126,"duration":0.2083333333333428},{"name":"E3","midi":52,"time":191.42968749999906,"velocity":0.8031496062992126,"duration":0.2083333333333428},{"name":"G5","midi":79,"time":191.42968749999906,"velocity":0.8031496062992126,"duration":0.2083333333333428},{"name":"D3","midi":50,"time":191.64062499999906,"velocity":0.8031496062992126,"duration":0.2083333333333428},{"name":"F#5","midi":78,"time":191.64062499999906,"velocity":0.8031496062992126,"duration":0.2083333333333428},{"name":"C#3","midi":49,"time":191.85156249999906,"velocity":0.8031496062992126,"duration":0.2083333333333428},{"name":"E5","midi":76,"time":191.85156249999906,"velocity":0.8031496062992126,"duration":1.6848958333333144},{"name":"B2","midi":47,"time":192.06249999999906,"velocity":0.8031496062992126,"duration":0.2083333333333428},{"name":"D5","midi":74,"time":192.06249999999906,"velocity":0.8031496062992126,"duration":0.2083333333333428},{"name":"C#3","midi":49,"time":192.27343749999906,"velocity":0.8031496062992126,"duration":0.2083333333333428},{"name":"C#5","midi":73,"time":192.27343749999906,"velocity":0.8031496062992126,"duration":0.2083333333333428},{"name":"D3","midi":50,"time":192.48437499999906,"velocity":0.8031496062992126,"duration":0.2083333333333428},{"name":"B4","midi":71,"time":192.48437499999906,"velocity":0.8031496062992126,"duration":0.2083333333333428},{"name":"E3","midi":52,"time":192.69531249999906,"velocity":0.8031496062992126,"duration":0.2083333333333428},{"name":"A#4","midi":70,"time":192.69531249999906,"velocity":0.8031496062992126,"duration":0.2083333333333428},{"name":"C#3","midi":49,"time":192.90624999999906,"velocity":0.8031496062992126,"duration":0.2083333333333428},{"name":"B4","midi":71,"time":192.90624999999906,"velocity":0.8031496062992126,"duration":0.2083333333333428},{"name":"F#3","midi":54,"time":193.11718749999906,"velocity":0.8031496062992126,"duration":0.2083333333333428},{"name":"A#4","midi":70,"time":193.11718749999906,"velocity":0.8031496062992126,"duration":0.4166666666666572},{"name":"E3","midi":52,"time":193.32812499999906,"velocity":0.8031496062992126,"duration":0.20833333333331439},{"name":"F#3","midi":54,"time":193.53906249999903,"velocity":0.8031496062992126,"duration":0.2083333333333428},{"name":"G5","midi":79,"time":193.53906249999903,"velocity":0.8031496062992126,"duration":0.4192708333333428},{"name":"E5","midi":76,"time":193.53906249999903,"velocity":0.8031496062992126,"duration":0.4192708333333428},{"name":"A#3","midi":58,"time":193.74999999999903,"velocity":0.8031496062992126,"duration":0.2083333333333428},{"name":"C#4","midi":61,"time":193.96093749999903,"velocity":0.8031496062992126,"duration":0.2083333333333428},{"name":"E5","midi":76,"time":193.96093749999903,"velocity":0.8031496062992126,"duration":0.4192708333333428},{"name":"C#5","midi":73,"time":193.96093749999903,"velocity":0.8031496062992126,"duration":0.4192708333333428},{"name":"A#3","midi":58,"time":194.17187499999903,"velocity":0.8031496062992126,"duration":0.2083333333333428},{"name":"F#3","midi":54,"time":194.38281249999903,"velocity":0.8031496062992126,"duration":0.2083333333333428},{"name":"C#5","midi":73,"time":194.38281249999903,"velocity":0.8031496062992126,"duration":0.4192708333333428},{"name":"A#4","midi":70,"time":194.38281249999903,"velocity":0.8031496062992126,"duration":0.4192708333333428},{"name":"C#4","midi":61,"time":194.59374999999903,"velocity":0.8031496062992126,"duration":0.2083333333333428},{"name":"A#3","midi":58,"time":194.80468749999903,"velocity":0.8031496062992126,"duration":0.2083333333333428},{"name":"E5","midi":76,"time":194.80468749999903,"velocity":0.8031496062992126,"duration":0.4192708333333428},{"name":"C#5","midi":73,"time":194.80468749999903,"velocity":0.8031496062992126,"duration":0.4192708333333428},{"name":"F#3","midi":54,"time":195.01562499999903,"velocity":0.8031496062992126,"duration":0.2083333333333428},{"name":"C#3","midi":49,"time":195.22656249999903,"velocity":0.8031496062992126,"duration":0.2083333333333428},{"name":"C#5","midi":73,"time":195.22656249999903,"velocity":0.8031496062992126,"duration":0.4192708333333428},{"name":"A#4","midi":70,"time":195.22656249999903,"velocity":0.8031496062992126,"duration":0.4192708333333428},{"name":"D3","midi":50,"time":195.43749999999903,"velocity":0.8031496062992126,"duration":0.2083333333333428},{"name":"E3","midi":52,"time":195.64843749999903,"velocity":0.8031496062992126,"duration":0.2083333333333428},{"name":"A#4","midi":70,"time":195.64843749999903,"velocity":0.8031496062992126,"duration":0.8346354166666572},{"name":"F#4","midi":66,"time":195.64843749999903,"velocity":0.8031496062992126,"duration":0.8346354166666572},{"name":"D3","midi":50,"time":195.85937499999903,"velocity":0.8031496062992126,"duration":0.2083333333333428},{"name":"E3","midi":52,"time":196.07031249999903,"velocity":0.8031496062992126,"duration":0.2083333333333428},{"name":"G3","midi":55,"time":196.28124999999903,"velocity":0.8031496062992126,"duration":0.20833333333331439},{"name":"C#4","midi":61,"time":196.492187499999,"velocity":0.8031496062992126,"duration":0.2083333333333428},{"name":"G3","midi":55,"time":196.703124999999,"velocity":0.8031496062992126,"duration":0.2083333333333428},{"name":"E3","midi":52,"time":196.914062499999,"velocity":0.8031496062992126,"duration":0.2083333333333428},{"name":"C#4","midi":61,"time":197.124999999999,"velocity":0.8031496062992126,"duration":0.2083333333333428},{"name":"G3","midi":55,"time":197.335937499999,"velocity":0.8031496062992126,"duration":0.2083333333333428},{"name":"C#5","midi":73,"time":197.335937499999,"velocity":0.8031496062992126,"duration":0.4192708333333428},{"name":"C#4","midi":61,"time":197.335937499999,"velocity":0.8031496062992126,"duration":0.4192708333333428},{"name":"E4","midi":64,"time":197.335937499999,"velocity":0.8031496062992126,"duration":0.4192708333333428},{"name":"G4","midi":67,"time":197.335937499999,"velocity":0.8031496062992126,"duration":0.4192708333333428},{"name":"E3","midi":52,"time":197.546874999999,"velocity":0.8031496062992126,"duration":0.2083333333333428},{"name":"C#3","midi":49,"time":197.757812499999,"velocity":0.8031496062992126,"duration":0.2083333333333428},{"name":"A#4","midi":70,"time":197.757812499999,"velocity":0.8031496062992126,"duration":0.4192708333333428},{"name":"F#4","midi":66,"time":197.757812499999,"velocity":0.8031496062992126,"duration":0.4192708333333428},{"name":"C#4","midi":61,"time":197.757812499999,"velocity":0.8031496062992126,"duration":0.4192708333333428},{"name":"E4","midi":64,"time":197.757812499999,"velocity":0.8031496062992126,"duration":0.4192708333333428},{"name":"E3","midi":52,"time":197.968749999999,"velocity":0.8031496062992126,"duration":0.2083333333333428},{"name":"F#3","midi":54,"time":198.179687499999,"velocity":0.8031496062992126,"duration":0.8346354166666572},{"name":"D3","midi":50,"time":198.179687499999,"velocity":0.8031496062992126,"duration":0.8346354166666572},{"name":"B3","midi":59,"time":198.179687499999,"velocity":0.8031496062992126,"duration":0.8346354166666572},{"name":"B4","midi":71,"time":198.179687499999,"velocity":0.8031496062992126,"duration":0.2083333333333428},{"name":"A#4","midi":70,"time":198.390624999999,"velocity":0.8031496062992126,"duration":0.2083333333333428},{"name":"B4","midi":71,"time":198.601562499999,"velocity":0.8031496062992126,"duration":0.2083333333333428},{"name":"D5","midi":74,"time":198.812499999999,"velocity":0.8031496062992126,"duration":0.20833333333331439},{"name":"F#5","midi":78,"time":199.02343749999898,"velocity":0.8031496062992126,"duration":0.2083333333333428},{"name":"D5","midi":74,"time":199.23437499999898,"velocity":0.8031496062992126,"duration":0.2083333333333428},{"name":"B4","midi":71,"time":199.44531249999898,"velocity":0.8031496062992126,"duration":0.2083333333333428},{"name":"F#5","midi":78,"time":199.65624999999898,"velocity":0.8031496062992126,"duration":0.2083333333333428},{"name":"B2","midi":47,"time":199.86718749999898,"velocity":0.8031496062992126,"duration":0.4192708333333428},{"name":"D3","midi":50,"time":199.86718749999898,"velocity":0.8031496062992126,"duration":0.4192708333333428},{"name":"D5","midi":74,"time":199.86718749999898,"velocity":0.8031496062992126,"duration":0.2083333333333428},{"name":"B4","midi":71,"time":200.07812499999898,"velocity":0.8031496062992126,"duration":0.2083333333333428},{"name":"E3","midi":52,"time":200.28906249999898,"velocity":0.8031496062992126,"duration":0.4192708333333428},{"name":"C#3","midi":49,"time":200.28906249999898,"velocity":0.8031496062992126,"duration":0.4192708333333428},{"name":"F#4","midi":66,"time":200.28906249999898,"velocity":0.8031496062992126,"duration":0.2083333333333428},{"name":"G4","midi":67,"time":200.49999999999898,"velocity":0.8031496062992126,"duration":0.2083333333333428},{"name":"F#3","midi":54,"time":200.71093749999898,"velocity":0.8031496062992126,"duration":0.8346354166666572},{"name":"D#3","midi":51,"time":200.71093749999898,"velocity":0.8031496062992126,"duration":0.8346354166666572},{"name":"A4","midi":69,"time":200.71093749999898,"velocity":0.8031496062992126,"duration":0.2083333333333428},{"name":"G4","midi":67,"time":200.92187499999898,"velocity":0.8031496062992126,"duration":0.2083333333333428},{"name":"A4","midi":69,"time":201.13281249999898,"velocity":0.8031496062992126,"duration":0.2083333333333428},{"name":"C5","midi":72,"time":201.34374999999898,"velocity":0.8031496062992126,"duration":0.20833333333331439},{"name":"F#5","midi":78,"time":201.55468749999895,"velocity":0.8031496062992126,"duration":0.2083333333333428},{"name":"C5","midi":72,"time":201.76562499999895,"velocity":0.8031496062992126,"duration":0.2083333333333428},{"name":"A4","midi":69,"time":201.97656249999895,"velocity":0.8031496062992126,"duration":0.2083333333333428},{"name":"F#5","midi":78,"time":202.18749999999895,"velocity":0.8031496062992126,"duration":0.2083333333333428},{"name":"D#3","midi":51,"time":202.39843749999895,"velocity":0.8031496062992126,"duration":0.4192708333333428},{"name":"F#3","midi":54,"time":202.39843749999895,"velocity":0.8031496062992126,"duration":0.4192708333333428},{"name":"C5","midi":72,"time":202.39843749999895,"velocity":0.8031496062992126,"duration":0.2083333333333428},{"name":"A4","midi":69,"time":202.60937499999895,"velocity":0.8031496062992126,"duration":0.2083333333333428},{"name":"D#3","midi":51,"time":202.82031249999895,"velocity":0.8031496062992126,"duration":0.4192708333333428},{"name":"B2","midi":47,"time":202.82031249999895,"velocity":0.8031496062992126,"duration":0.4192708333333428},{"name":"F#4","midi":66,"time":202.82031249999895,"velocity":0.8031496062992126,"duration":0.2083333333333428},{"name":"A4","midi":69,"time":203.03124999999895,"velocity":0.8031496062992126,"duration":0.2083333333333428},{"name":"E3","midi":52,"time":203.24218749999895,"velocity":0.8031496062992126,"duration":0.2083333333333428},{"name":"G4","midi":67,"time":203.24218749999895,"velocity":0.8031496062992126,"duration":1.2630208333333428},{"name":"E4","midi":64,"time":203.24218749999895,"velocity":0.8031496062992126,"duration":1.2630208333333428},{"name":"D#3","midi":51,"time":203.45312499999895,"velocity":0.8031496062992126,"duration":0.2083333333333428},{"name":"E3","midi":52,"time":203.66406249999895,"velocity":0.8031496062992126,"duration":0.2083333333333428},{"name":"G3","midi":55,"time":203.87499999999895,"velocity":0.8031496062992126,"duration":0.2083333333333428},{"name":"B3","midi":59,"time":204.08593749999895,"velocity":0.8031496062992126,"duration":0.2083333333333428},{"name":"G3","midi":55,"time":204.29687499999895,"velocity":0.8031496062992126,"duration":0.2083333333333428},{"name":"E3","midi":52,"time":204.50781249999895,"velocity":0.8031496062992126,"duration":0.2083333333333428},{"name":"B3","midi":59,"time":204.71874999999895,"velocity":0.8031496062992126,"duration":0.2083333333333428},{"name":"G3","midi":55,"time":204.92968749999895,"velocity":0.8031496062992126,"duration":0.2083333333333428},{"name":"B3","midi":59,"time":204.92968749999895,"velocity":0.8031496062992126,"duration":0.4192708333333428},{"name":"E4","midi":64,"time":204.92968749999895,"velocity":0.8031496062992126,"duration":0.4192708333333428},{"name":"E3","midi":52,"time":205.14062499999895,"velocity":0.8031496062992126,"duration":0.2083333333333428},{"name":"B2","midi":47,"time":205.35156249999895,"velocity":0.8031496062992126,"duration":0.2083333333333428},{"name":"B3","midi":59,"time":205.35156249999895,"velocity":0.8031496062992126,"duration":0.4192708333333428},{"name":"F#4","midi":66,"time":205.35156249999895,"velocity":0.8031496062992126,"duration":0.4192708333333428},{"name":"D#4","midi":63,"time":205.35156249999895,"velocity":0.8031496062992126,"duration":0.4192708333333428},{"name":"C3","midi":48,"time":205.56249999999895,"velocity":0.8031496062992126,"duration":0.2083333333333428},{"name":"D3","midi":50,"time":205.77343749999895,"velocity":0.8031496062992126,"duration":0.2083333333333428},{"name":"B3","midi":59,"time":205.77343749999895,"velocity":0.8031496062992126,"duration":0.8346354166666572},{"name":"G#4","midi":68,"time":205.77343749999895,"velocity":0.8031496062992126,"duration":1.2630208333333144},{"name":"E4","midi":64,"time":205.77343749999895,"velocity":0.8031496062992126,"duration":1.2630208333333144},{"name":"C#3","midi":49,"time":205.98437499999895,"velocity":0.8031496062992126,"duration":0.2083333333333428},{"name":"D3","midi":50,"time":206.19531249999895,"velocity":0.8031496062992126,"duration":0.2083333333333428},{"name":"F3","midi":53,"time":206.40624999999895,"velocity":0.8031496062992126,"duration":0.20833333333331439},{"name":"B3","midi":59,"time":206.61718749999892,"velocity":0.8031496062992126,"duration":0.2083333333333428},{"name":"F3","midi":53,"time":206.82812499999892,"velocity":0.8031496062992126,"duration":0.2083333333333428},{"name":"D3","midi":50,"time":207.03906249999892,"velocity":0.8031496062992126,"duration":0.2083333333333428},{"name":"B3","midi":59,"time":207.24999999999892,"velocity":0.8031496062992126,"duration":0.2083333333333428},{"name":"F3","midi":53,"time":207.46093749999892,"velocity":0.8031496062992126,"duration":0.2083333333333428},{"name":"F4","midi":65,"time":207.46093749999892,"velocity":0.8031496062992126,"duration":0.4192708333333428},{"name":"D4","midi":62,"time":207.46093749999892,"velocity":0.8031496062992126,"duration":0.4192708333333428},{"name":"B3","midi":59,"time":207.46093749999892,"velocity":0.8031496062992126,"duration":0.4192708333333428},{"name":"B4","midi":71,"time":207.46093749999892,"velocity":0.8031496062992126,"duration":0.4192708333333428},{"name":"D3","midi":50,"time":207.67187499999892,"velocity":0.8031496062992126,"duration":0.2083333333333428},{"name":"B2","midi":47,"time":207.88281249999892,"velocity":0.8031496062992126,"duration":0.2083333333333428},{"name":"D4","midi":62,"time":207.88281249999892,"velocity":0.8031496062992126,"duration":0.4192708333333428},{"name":"B3","midi":59,"time":207.88281249999892,"velocity":0.8031496062992126,"duration":0.4192708333333428},{"name":"G#4","midi":68,"time":207.88281249999892,"velocity":0.8031496062992126,"duration":0.4192708333333428},{"name":"E4","midi":64,"time":207.88281249999892,"velocity":0.8031496062992126,"duration":0.4192708333333428},{"name":"D3","midi":50,"time":208.09374999999892,"velocity":0.8031496062992126,"duration":0.2083333333333428},{"name":"C#3","midi":49,"time":208.30468749999892,"velocity":0.8031496062992126,"duration":0.8346354166666572},{"name":"E3","midi":52,"time":208.30468749999892,"velocity":0.8031496062992126,"duration":0.8346354166666572},{"name":"A3","midi":57,"time":208.30468749999892,"velocity":0.8031496062992126,"duration":0.8346354166666572},{"name":"A4","midi":69,"time":208.30468749999892,"velocity":0.8031496062992126,"duration":0.2083333333333428},{"name":"G#4","midi":68,"time":208.51562499999892,"velocity":0.8031496062992126,"duration":0.2083333333333428},{"name":"A4","midi":69,"time":208.72656249999892,"velocity":0.8031496062992126,"duration":0.2083333333333428},{"name":"C#5","midi":73,"time":208.93749999999892,"velocity":0.8031496062992126,"duration":0.20833333333331439},{"name":"E5","midi":76,"time":209.1484374999989,"velocity":0.8031496062992126,"duration":0.2083333333333428},{"name":"C#5","midi":73,"time":209.3593749999989,"velocity":0.8031496062992126,"duration":0.2083333333333428},{"name":"A4","midi":69,"time":209.5703124999989,"velocity":0.8031496062992126,"duration":0.2083333333333428},{"name":"E5","midi":76,"time":209.7812499999989,"velocity":0.8031496062992126,"duration":0.2083333333333428},{"name":"C#3","midi":49,"time":209.9921874999989,"velocity":0.8031496062992126,"duration":0.4192708333333428},{"name":"A2","midi":45,"time":209.9921874999989,"velocity":0.8031496062992126,"duration":0.4192708333333428},{"name":"C#5","midi":73,"time":209.9921874999989,"velocity":0.8031496062992126,"duration":0.2083333333333428},{"name":"A4","midi":69,"time":210.2031249999989,"velocity":0.8031496062992126,"duration":0.2083333333333428},{"name":"D3","midi":50,"time":210.4140624999989,"velocity":0.8031496062992126,"duration":0.4192708333333428},{"name":"B2","midi":47,"time":210.4140624999989,"velocity":0.8031496062992126,"duration":0.4192708333333428},{"name":"E4","midi":64,"time":210.4140624999989,"velocity":0.8031496062992126,"duration":0.2083333333333428},{"name":"F#4","midi":66,"time":210.6249999999989,"velocity":0.8031496062992126,"duration":0.2083333333333428},{"name":"C#3","midi":49,"time":210.8359374999989,"velocity":0.8031496062992126,"duration":0.8346354166666572},{"name":"E3","midi":52,"time":210.8359374999989,"velocity":0.8031496062992126,"duration":0.8346354166666572},{"name":"G4","midi":67,"time":210.8359374999989,"velocity":0.8031496062992126,"duration":0.2083333333333428},{"name":"F#4","midi":66,"time":211.0468749999989,"velocity":0.8031496062992126,"duration":0.2083333333333428},{"name":"G4","midi":67,"time":211.2578124999989,"velocity":0.8031496062992126,"duration":0.2083333333333428},{"name":"A#4","midi":70,"time":211.4687499999989,"velocity":0.8031496062992126,"duration":0.20833333333331439},{"name":"E5","midi":76,"time":211.67968749999886,"velocity":0.8031496062992126,"duration":0.2083333333333428},{"name":"A#4","midi":70,"time":211.89062499999886,"velocity":0.8031496062992126,"duration":0.2083333333333428},{"name":"G4","midi":67,"time":212.10156249999886,"velocity":0.8031496062992126,"duration":0.2083333333333428},{"name":"E5","midi":76,"time":212.31249999999886,"velocity":0.8031496062992126,"duration":0.2083333333333428},{"name":"E3","midi":52,"time":212.52343749999886,"velocity":0.8031496062992126,"duration":0.4192708333333428},{"name":"C#3","midi":49,"time":212.52343749999886,"velocity":0.8031496062992126,"duration":0.4192708333333428},{"name":"A#4","midi":70,"time":212.52343749999886,"velocity":0.8031496062992126,"duration":0.2083333333333428},{"name":"G4","midi":67,"time":212.73437499999886,"velocity":0.8031496062992126,"duration":0.2083333333333428},{"name":"C#3","midi":49,"time":212.94531249999886,"velocity":0.8031496062992126,"duration":0.4192708333333428},{"name":"A2","midi":45,"time":212.94531249999886,"velocity":0.8031496062992126,"duration":0.4192708333333428},{"name":"E4","midi":64,"time":212.94531249999886,"velocity":0.8031496062992126,"duration":0.2083333333333428},{"name":"G4","midi":67,"time":213.15624999999886,"velocity":0.8031496062992126,"duration":0.2083333333333428},{"name":"D3","midi":50,"time":213.36718749999886,"velocity":0.8031496062992126,"duration":0.2057291666666572},{"name":"F#4","midi":66,"time":213.36718749999886,"velocity":0.8031496062992126,"duration":0.4127604166666572},{"name":"F#3","midi":54,"time":213.57552083333218,"velocity":0.8031496062992126,"duration":0.20572916666668561},{"name":"A4","midi":69,"time":213.57552083333218,"velocity":0.8031496062992126,"duration":0.20572916666668561},{"name":"A2","midi":45,"time":213.78515624999886,"velocity":0.8031496062992126,"duration":0.2057291666666572},{"name":"D4","midi":62,"time":213.78515624999886,"velocity":0.8031496062992126,"duration":0.2057291666666572},{"name":"C#3","midi":49,"time":213.99348958333218,"velocity":0.8031496062992126,"duration":0.2057291666666572},{"name":"E4","midi":64,"time":213.99348958333218,"velocity":0.8031496062992126,"duration":0.2057291666666572},{"name":"D3","midi":50,"time":214.2018229166655,"velocity":0.8031496062992126,"duration":0.2057291666666572},{"name":"F#4","midi":66,"time":214.2018229166655,"velocity":0.8031496062992126,"duration":0.2057291666666572},{"name":"F#3","midi":54,"time":214.41145833333215,"velocity":0.8031496062992126,"duration":0.2057291666666572},{"name":"A4","midi":69,"time":214.41145833333215,"velocity":0.8031496062992126,"duration":0.2057291666666572},{"name":"D3","midi":50,"time":214.61979166666546,"velocity":0.8031496062992126,"duration":0.2057291666666572},{"name":"F#4","midi":66,"time":214.61979166666546,"velocity":0.8031496062992126,"duration":0.4127604166666572},{"name":"F#3","midi":54,"time":214.82812499999878,"velocity":0.8031496062992126,"duration":0.20572916666668561},{"name":"A4","midi":69,"time":214.82812499999878,"velocity":0.8031496062992126,"duration":0.20572916666668561},{"name":"A2","midi":45,"time":215.03776041666546,"velocity":0.8031496062992126,"duration":0.2057291666666572},{"name":"D4","midi":62,"time":215.03776041666546,"velocity":0.8031496062992126,"duration":0.2057291666666572},{"name":"C#3","midi":49,"time":215.24609374999878,"velocity":0.8031496062992126,"duration":0.2057291666666572},{"name":"E4","midi":64,"time":215.24609374999878,"velocity":0.8031496062992126,"duration":0.2057291666666572},{"name":"D3","midi":50,"time":215.45572916666544,"velocity":0.8031496062992126,"duration":0.2057291666666572},{"name":"F#4","midi":66,"time":215.45572916666544,"velocity":0.8031496062992126,"duration":0.2057291666666572},{"name":"F#3","midi":54,"time":215.66406249999875,"velocity":0.8031496062992126,"duration":0.2057291666666572},{"name":"A4","midi":69,"time":215.66406249999875,"velocity":0.8031496062992126,"duration":0.2057291666666572},{"name":"D#3","midi":51,"time":215.87239583333206,"velocity":0.8031496062992126,"duration":0.2057291666666572},{"name":"F#4","midi":66,"time":215.87239583333206,"velocity":0.8031496062992126,"duration":0.4127604166666572},{"name":"F#3","midi":54,"time":216.08203124999872,"velocity":0.8031496062992126,"duration":0.2057291666666572},{"name":"A4","midi":69,"time":216.08203124999872,"velocity":0.8031496062992126,"duration":0.2057291666666572},{"name":"B2","midi":47,"time":216.29036458333204,"velocity":0.8031496062992126,"duration":0.2057291666666572},{"name":"D#4","midi":63,"time":216.29036458333204,"velocity":0.8031496062992126,"duration":0.2057291666666572},{"name":"C#3","midi":49,"time":216.49869791666535,"velocity":0.8031496062992126,"duration":0.2057291666666572},{"name":"E4","midi":64,"time":216.49869791666535,"velocity":0.8031496062992126,"duration":0.2057291666666572},{"name":"D#3","midi":51,"time":216.708333333332,"velocity":0.8031496062992126,"duration":0.2057291666666572},{"name":"F#4","midi":66,"time":216.708333333332,"velocity":0.8031496062992126,"duration":0.2057291666666572},{"name":"F#3","midi":54,"time":216.91666666666532,"velocity":0.8031496062992126,"duration":0.2057291666666572},{"name":"A4","midi":69,"time":216.91666666666532,"velocity":0.8031496062992126,"duration":0.2057291666666572},{"name":"D#3","midi":51,"time":217.12630208333198,"velocity":0.8031496062992126,"duration":0.2057291666666572},{"name":"F#4","midi":66,"time":217.12630208333198,"velocity":0.8031496062992126,"duration":0.4127604166666572},{"name":"F#3","midi":54,"time":217.3346354166653,"velocity":0.8031496062992126,"duration":0.20572916666668561},{"name":"A4","midi":69,"time":217.3346354166653,"velocity":0.8031496062992126,"duration":0.20572916666668561},{"name":"B2","midi":47,"time":217.54296874999864,"velocity":0.8031496062992126,"duration":0.2057291666666572},{"name":"D#4","midi":63,"time":217.54296874999864,"velocity":0.8031496062992126,"duration":0.2057291666666572},{"name":"C#3","midi":49,"time":217.7526041666653,"velocity":0.8031496062992126,"duration":0.2057291666666572},{"name":"E4","midi":64,"time":217.7526041666653,"velocity":0.8031496062992126,"duration":0.2057291666666572},{"name":"D#3","midi":51,"time":217.9609374999986,"velocity":0.8031496062992126,"duration":0.2057291666666572},{"name":"F#4","midi":66,"time":217.9609374999986,"velocity":0.8031496062992126,"duration":0.2057291666666572},{"name":"F#3","midi":54,"time":218.16927083333192,"velocity":0.8031496062992126,"duration":0.2057291666666572},{"name":"A4","midi":69,"time":218.16927083333192,"velocity":0.8031496062992126,"duration":0.2057291666666572},{"name":"E3","midi":52,"time":218.37890624999858,"velocity":0.8031496062992126,"duration":0.2018229166666572},{"name":"G4","midi":67,"time":218.37890624999858,"velocity":0.8031496062992126,"duration":0.4049479166666572},{"name":"G3","midi":55,"time":218.5833333333319,"velocity":0.8031496062992126,"duration":0.20182291666668561},{"name":"B4","midi":71,"time":218.5833333333319,"velocity":0.8031496062992126,"duration":0.20182291666668561},{"name":"B2","midi":47,"time":218.78776041666524,"velocity":0.8031496062992126,"duration":0.2018229166666572},{"name":"E4","midi":64,"time":218.78776041666524,"velocity":0.8031496062992126,"duration":0.2018229166666572},{"name":"D#3","midi":51,"time":218.99218749999855,"velocity":0.8031496062992126,"duration":0.2018229166666572},{"name":"F#4","midi":66,"time":218.99218749999855,"velocity":0.8031496062992126,"duration":0.2018229166666572},{"name":"E3","midi":52,"time":219.19661458333186,"velocity":0.8031496062992126,"duration":0.2018229166666572},{"name":"G4","midi":67,"time":219.19661458333186,"velocity":0.8031496062992126,"duration":0.2018229166666572},{"name":"G3","midi":55,"time":219.40234374999852,"velocity":0.8031496062992126,"duration":0.2018229166666572},{"name":"B4","midi":71,"time":219.40234374999852,"velocity":0.8031496062992126,"duration":0.2018229166666572},{"name":"E3","midi":52,"time":219.60677083333184,"velocity":0.8031496062992126,"duration":0.2018229166666572},{"name":"G4","midi":67,"time":219.60677083333184,"velocity":0.8031496062992126,"duration":0.4049479166666572},{"name":"G3","midi":55,"time":219.81119791666515,"velocity":0.8031496062992126,"duration":0.20182291666668561},{"name":"B4","midi":71,"time":219.81119791666515,"velocity":0.8031496062992126,"duration":0.20182291666668561},{"name":"B2","midi":47,"time":220.0156249999985,"velocity":0.8031496062992126,"duration":0.2018229166666572},{"name":"E4","midi":64,"time":220.0156249999985,"velocity":0.8031496062992126,"duration":0.2018229166666572},{"name":"D#3","midi":51,"time":220.2200520833318,"velocity":0.8031496062992126,"duration":0.2018229166666572},{"name":"F#4","midi":66,"time":220.2200520833318,"velocity":0.8031496062992126,"duration":0.2018229166666572},{"name":"E3","midi":52,"time":220.42447916666512,"velocity":0.8031496062992126,"duration":0.2018229166666572},{"name":"G4","midi":67,"time":220.42447916666512,"velocity":0.8031496062992126,"duration":0.2018229166666572},{"name":"G3","midi":55,"time":220.62890624999844,"velocity":0.8031496062992126,"duration":0.2018229166666572},{"name":"B4","midi":71,"time":220.62890624999844,"velocity":0.8031496062992126,"duration":0.2018229166666572},{"name":"D3","midi":50,"time":220.8346354166651,"velocity":0.8031496062992126,"duration":0.2018229166666572},{"name":"G#4","midi":68,"time":220.8346354166651,"velocity":0.8031496062992126,"duration":0.4049479166666572},{"name":"F3","midi":53,"time":221.0390624999984,"velocity":0.8031496062992126,"duration":0.20182291666668561},{"name":"B4","midi":71,"time":221.0390624999984,"velocity":0.8031496062992126,"duration":0.20182291666668561},{"name":"G#2","midi":44,"time":221.24348958333175,"velocity":0.8031496062992126,"duration":0.2018229166666572},{"name":"E4","midi":64,"time":221.24348958333175,"velocity":0.8031496062992126,"duration":0.2018229166666572},{"name":"A2","midi":45,"time":221.44791666666507,"velocity":0.8031496062992126,"duration":0.2018229166666572},{"name":"F#4","midi":66,"time":221.44791666666507,"velocity":0.8031496062992126,"duration":0.2018229166666572},{"name":"B2","midi":47,"time":221.65234374999838,"velocity":0.8031496062992126,"duration":0.2018229166666572},{"name":"G#4","midi":68,"time":221.65234374999838,"velocity":0.8031496062992126,"duration":0.2018229166666572},{"name":"D3","midi":50,"time":221.8567708333317,"velocity":0.8031496062992126,"duration":0.2018229166666572},{"name":"B4","midi":71,"time":221.8567708333317,"velocity":0.8031496062992126,"duration":0.2018229166666572},{"name":"B2","midi":47,"time":222.061197916665,"velocity":0.8031496062992126,"duration":0.2018229166666572},{"name":"G#4","midi":68,"time":222.061197916665,"velocity":0.8031496062992126,"duration":0.4049479166666572},{"name":"D3","midi":50,"time":222.26692708333167,"velocity":0.8031496062992126,"duration":0.2018229166666572},{"name":"B4","midi":71,"time":222.26692708333167,"velocity":0.8031496062992126,"duration":0.2018229166666572},{"name":"G#2","midi":44,"time":222.47135416666498,"velocity":0.8031496062992126,"duration":0.2018229166666572},{"name":"E4","midi":64,"time":222.47135416666498,"velocity":0.8031496062992126,"duration":0.2018229166666572},{"name":"A2","midi":45,"time":222.6757812499983,"velocity":0.8031496062992126,"duration":0.2018229166666572},{"name":"F#4","midi":66,"time":222.6757812499983,"velocity":0.8031496062992126,"duration":0.2018229166666572},{"name":"B2","midi":47,"time":222.8802083333316,"velocity":0.8031496062992126,"duration":0.2018229166666572},{"name":"G#4","midi":68,"time":222.8802083333316,"velocity":0.8031496062992126,"duration":0.2018229166666572},{"name":"D3","midi":50,"time":223.08463541666492,"velocity":0.8031496062992126,"duration":0.2018229166666572},{"name":"B4","midi":71,"time":223.08463541666492,"velocity":0.8031496062992126,"duration":0.2018229166666572},{"name":"C3","midi":48,"time":223.28906249999824,"velocity":0.8031496062992126,"duration":0.2018229166666572},{"name":"A4","midi":69,"time":223.28906249999824,"velocity":0.8031496062992126,"duration":0.4062499999999716},{"name":"E3","midi":52,"time":223.49348958333155,"velocity":0.8031496062992126,"duration":0.2018229166666572},{"name":"A2","midi":45,"time":223.6992187499982,"velocity":0.8031496062992126,"duration":0.2018229166666572},{"name":"E4","midi":64,"time":223.6992187499982,"velocity":0.8031496062992126,"duration":0.610677083333286},{"name":"C5","midi":72,"time":223.6992187499982,"velocity":0.8031496062992126,"duration":0.610677083333286},{"name":"A4","midi":69,"time":223.6992187499982,"velocity":0.8031496062992126,"duration":0.610677083333286},{"name":"E5","midi":76,"time":223.6992187499982,"velocity":0.8031496062992126,"duration":0.610677083333286},{"name":"B2","midi":47,"time":223.90364583333152,"velocity":0.8031496062992126,"duration":0.2018229166666572},{"name":"C3","midi":48,"time":224.10807291666484,"velocity":0.8031496062992126,"duration":0.2018229166666572},{"name":"E3","midi":52,"time":224.31249999999815,"velocity":0.8031496062992126,"duration":0.2018229166666572},{"name":"E5","midi":76,"time":224.31249999999815,"velocity":0.8031496062992126,"duration":0.2018229166666572},{"name":"C3","midi":48,"time":224.51692708333147,"velocity":0.8031496062992126,"duration":0.2018229166666572},{"name":"A4","midi":69,"time":224.51692708333147,"velocity":0.8031496062992126,"duration":0.4062499999999716},{"name":"F3","midi":53,"time":224.72135416666478,"velocity":0.8031496062992126,"duration":0.2018229166666572},{"name":"A2","midi":45,"time":224.9257812499981,"velocity":0.8031496062992126,"duration":0.2018229166666572},{"name":"F5","midi":77,"time":224.9257812499981,"velocity":0.8031496062992126,"duration":0.2018229166666572},{"name":"B2","midi":47,"time":225.1302083333314,"velocity":0.8031496062992126,"duration":0.2018229166666572},{"name":"E5","midi":76,"time":225.1302083333314,"velocity":0.8031496062992126,"duration":0.2018229166666572},{"name":"C3","midi":48,"time":225.33593749999807,"velocity":0.8031496062992126,"duration":0.2018229166666572},{"name":"F5","midi":77,"time":225.33593749999807,"velocity":0.8031496062992126,"duration":0.2018229166666572},{"name":"F3","midi":53,"time":225.54036458333138,"velocity":0.8031496062992126,"duration":0.2018229166666572},{"name":"D5","midi":74,"time":225.54036458333138,"velocity":0.8031496062992126,"duration":0.2018229166666572},{"name":"D3","midi":50,"time":225.7447916666647,"velocity":0.8031496062992126,"duration":0.2018229166666572},{"name":"G#4","midi":68,"time":225.7447916666647,"velocity":0.8031496062992126,"duration":0.4062499999999716},{"name":"F3","midi":53,"time":225.949218749998,"velocity":0.8031496062992126,"duration":0.2018229166666572},{"name":"B2","midi":47,"time":226.15364583333132,"velocity":0.8031496062992126,"duration":0.2018229166666572},{"name":"B4","midi":71,"time":226.15364583333132,"velocity":0.8031496062992126,"duration":0.610677083333286},{"name":"C3","midi":48,"time":226.35807291666464,"velocity":0.8031496062992126,"duration":0.2018229166666572},{"name":"D3","midi":50,"time":226.56249999999795,"velocity":0.8031496062992126,"duration":0.2018229166666572},{"name":"F3","midi":53,"time":226.7682291666646,"velocity":0.8031496062992126,"duration":0.2018229166666572},{"name":"B4","midi":71,"time":226.7682291666646,"velocity":0.8031496062992126,"duration":0.2018229166666572},{"name":"G#3","midi":56,"time":226.97265624999793,"velocity":0.8031496062992126,"duration":0.2018229166666572},{"name":"E4","midi":64,"time":226.97265624999793,"velocity":0.8031496062992126,"duration":0.4062499999999716},{"name":"B3","midi":59,"time":227.17708333333124,"velocity":0.8031496062992126,"duration":0.2018229166666572},{"name":"E3","midi":52,"time":227.38151041666455,"velocity":0.8031496062992126,"duration":0.2018229166666572},{"name":"E5","midi":76,"time":227.38151041666455,"velocity":0.8031496062992126,"duration":0.2018229166666572},{"name":"F#3","midi":54,"time":227.58593749999787,"velocity":0.8031496062992126,"duration":0.2018229166666572},{"name":"D5","midi":74,"time":227.58593749999787,"velocity":0.8031496062992126,"duration":0.2018229166666572},{"name":"G#3","midi":56,"time":227.79036458333118,"velocity":0.8031496062992126,"duration":0.2018229166666572},{"name":"E5","midi":76,"time":227.79036458333118,"velocity":0.8031496062992126,"duration":0.2018229166666572},{"name":"E3","midi":52,"time":227.9947916666645,"velocity":0.8031496062992126,"duration":0.2018229166666572},{"name":"B4","midi":71,"time":227.9947916666645,"velocity":0.8031496062992126,"duration":0.2018229166666572},{"name":"A3","midi":57,"time":228.20052083333115,"velocity":0.8031496062992126,"duration":0.4062499999999716},{"name":"C5","midi":72,"time":228.20052083333115,"velocity":0.8031496062992126,"duration":0.2018229166666572},{"name":"E5","midi":76,"time":228.40494791666447,"velocity":0.8031496062992126,"duration":0.2018229166666572},{"name":"A3","midi":57,"time":228.60937499999778,"velocity":0.8031496062992126,"duration":0.10026041666665719},{"name":"A4","midi":69,"time":228.60937499999778,"velocity":0.8031496062992126,"duration":0.20442708333331439},{"name":"G#3","midi":56,"time":228.7122395833311,"velocity":0.8031496062992126,"duration":0.10026041666665719},{"name":"A3","midi":57,"time":228.81640624999775,"velocity":0.8031496062992126,"duration":0.4062499999999716},{"name":"B4","midi":71,"time":228.81640624999775,"velocity":0.8031496062992126,"duration":0.2018229166666572},{"name":"C5","midi":72,"time":229.02083333333107,"velocity":0.8031496062992126,"duration":0.2018229166666572},{"name":"A3","midi":57,"time":229.22526041666438,"velocity":0.8031496062992126,"duration":0.2018229166666572},{"name":"E5","midi":76,"time":229.22526041666438,"velocity":0.8031496062992126,"duration":0.2018229166666572},{"name":"E3","midi":52,"time":229.4296874999977,"velocity":0.8031496062992126,"duration":0.4062499999999716},{"name":"C5","midi":72,"time":229.4296874999977,"velocity":0.8031496062992126,"duration":0.2018229166666572},{"name":"E5","midi":76,"time":229.634114583331,"velocity":0.8031496062992126,"duration":0.2018229166666572},{"name":"C4","midi":60,"time":229.83854166666433,"velocity":0.8031496062992126,"duration":0.2018229166666572},{"name":"F#4","midi":66,"time":229.83854166666433,"velocity":0.8031496062992126,"duration":0.2018229166666572},{"name":"B3","midi":59,"time":230.04296874999764,"velocity":0.8031496062992126,"duration":0.2018229166666572},{"name":"G4","midi":67,"time":230.04296874999764,"velocity":0.8031496062992126,"duration":0.2018229166666572},{"name":"C4","midi":60,"time":230.2486979166643,"velocity":0.8031496062992126,"duration":0.2018229166666572},{"name":"A4","midi":69,"time":230.2486979166643,"velocity":0.8031496062992126,"duration":0.2018229166666572},{"name":"A3","midi":57,"time":230.4531249999976,"velocity":0.8031496062992126,"duration":0.2018229166666572},{"name":"C5","midi":72,"time":230.4531249999976,"velocity":0.8031496062992126,"duration":0.2018229166666572},{"name":"D#3","midi":51,"time":230.65755208333093,"velocity":0.8031496062992126,"duration":0.4062499999999716},{"name":"A4","midi":69,"time":230.65755208333093,"velocity":0.8031496062992126,"duration":0.2018229166666572},{"name":"C5","midi":72,"time":230.86197916666424,"velocity":0.8031496062992126,"duration":0.2018229166666572},{"name":"F#3","midi":54,"time":231.06640624999756,"velocity":0.8031496062992126,"duration":0.10026041666665719},{"name":"D#4","midi":63,"time":231.06640624999756,"velocity":0.8031496062992126,"duration":0.20442708333331439},{"name":"E3","midi":52,"time":231.1705729166642,"velocity":0.8031496062992126,"duration":0.10026041666665719},{"name":"F#3","midi":54,"time":231.27343749999753,"velocity":0.8031496062992126,"duration":0.4062499999999716},{"name":"E4","midi":64,"time":231.27343749999753,"velocity":0.8031496062992126,"duration":0.2018229166666572},{"name":"F#4","midi":66,"time":231.47786458333084,"velocity":0.8031496062992126,"duration":0.2018229166666572},{"name":"F#3","midi":54,"time":231.68229166666416,"velocity":0.8031496062992126,"duration":0.2018229166666572},{"name":"A4","midi":69,"time":231.68229166666416,"velocity":0.8031496062992126,"duration":0.2018229166666572},{"name":"B2","midi":47,"time":231.88671874999747,"velocity":0.8031496062992126,"duration":0.4062499999999716},{"name":"F#4","midi":66,"time":231.88671874999747,"velocity":0.8031496062992126,"duration":0.2018229166666572},{"name":"A4","midi":69,"time":232.09114583333078,"velocity":0.8031496062992126,"duration":0.2018229166666572},{"name":"B3","midi":59,"time":232.29687499999744,"velocity":0.8031496062992126,"duration":0.2018229166666572},{"name":"D#4","midi":63,"time":232.29687499999744,"velocity":0.8031496062992126,"duration":0.2018229166666572},{"name":"A3","midi":57,"time":232.50130208333076,"velocity":0.8031496062992126,"duration":0.2018229166666572},{"name":"F#4","midi":66,"time":232.50130208333076,"velocity":0.8031496062992126,"duration":0.2018229166666572},{"name":"B3","midi":59,"time":232.70572916666407,"velocity":0.8031496062992126,"duration":0.2018229166666572},{"name":"G4","midi":67,"time":232.70572916666407,"velocity":0.8031496062992126,"duration":0.2018229166666572},{"name":"F#3","midi":54,"time":232.91015624999739,"velocity":0.8031496062992126,"duration":0.2018229166666572},{"name":"A4","midi":69,"time":232.91015624999739,"velocity":0.8031496062992126,"duration":0.2018229166666572},{"name":"G#3","midi":56,"time":233.1145833333307,"velocity":0.8031496062992126,"duration":0.4049479166666572},{"name":"B4","midi":71,"time":233.1145833333307,"velocity":0.8031496062992126,"duration":0.2018229166666572},{"name":"G#4","midi":68,"time":233.319010416664,"velocity":0.8031496062992126,"duration":0.20182291666668561},{"name":"E4","midi":64,"time":233.52343749999736,"velocity":0.8031496062992126,"duration":0.2018229166666572},{"name":"A3","midi":57,"time":233.729166666664,"velocity":0.8031496062992126,"duration":0.2018229166666572},{"name":"B3","midi":59,"time":233.729166666664,"velocity":0.8031496062992126,"duration":0.2018229166666572},{"name":"G#3","midi":56,"time":233.93359374999733,"velocity":0.8031496062992126,"duration":0.2018229166666572},{"name":"D4","midi":62,"time":233.93359374999733,"velocity":0.8031496062992126,"duration":0.5546874999999716},{"name":"F#3","midi":54,"time":234.13802083333064,"velocity":0.8031496062992126,"duration":0.2018229166666572},{"name":"E3","midi":52,"time":234.34244791666396,"velocity":0.8031496062992126,"duration":0.20182291666668561},{"name":"D3","midi":50,"time":234.5468749999973,"velocity":0.8031496062992126,"duration":0.2018229166666572},{"name":"F4","midi":65,"time":234.5468749999973,"velocity":0.8031496062992126,"duration":0.2018229166666572},{"name":"C3","midi":48,"time":234.75130208333061,"velocity":0.8031496062992126,"duration":0.2018229166666572},{"name":"E4","midi":64,"time":234.75130208333061,"velocity":0.8031496062992126,"duration":0.2018229166666572},{"name":"B2","midi":47,"time":234.95572916666393,"velocity":0.8031496062992126,"duration":0.2018229166666572},{"name":"D4","midi":62,"time":234.95572916666393,"velocity":0.8031496062992126,"duration":0.2018229166666572},{"name":"A2","midi":45,"time":235.1614583333306,"velocity":0.8031496062992126,"duration":0.2018229166666572},{"name":"C4","midi":60,"time":235.1614583333306,"velocity":0.8031496062992126,"duration":0.2018229166666572},{"name":"G#2","midi":44,"time":235.3658854166639,"velocity":0.8031496062992126,"duration":0.2018229166666572},{"name":"B3","midi":59,"time":235.3658854166639,"velocity":0.8031496062992126,"duration":0.2018229166666572},{"name":"A2","midi":45,"time":235.57031249999721,"velocity":0.8031496062992126,"duration":0.2018229166666572},{"name":"C4","midi":60,"time":235.57031249999721,"velocity":0.8031496062992126,"duration":0.5117187499999716},{"name":"C3","midi":48,"time":235.77473958333053,"velocity":0.8031496062992126,"duration":0.2018229166666572},{"name":"E3","midi":52,"time":235.97916666666384,"velocity":0.8031496062992126,"duration":0.2044270833333428},{"name":"A3","midi":57,"time":236.18619791666384,"velocity":0.8031496062992126,"duration":0.2018229166666572},{"name":"C4","midi":60,"time":236.18619791666384,"velocity":0.8031496062992126,"duration":0.2018229166666572},{"name":"D#3","midi":51,"time":236.39062499999716,"velocity":0.8031496062992126,"duration":0.610677083333286},{"name":"B3","midi":59,"time":236.39062499999716,"velocity":0.8031496062992126,"duration":0.2018229166666572},{"name":"A3","midi":57,"time":236.59505208333047,"velocity":0.8031496062992126,"duration":0.2018229166666572},{"name":"F#4","midi":66,"time":236.7994791666638,"velocity":0.8031496062992126,"duration":0.5117187499999716},{"name":"B2","midi":47,"time":237.0039062499971,"velocity":0.8031496062992126,"duration":0.2018229166666572},{"name":"C#3","midi":49,"time":237.20963541666376,"velocity":0.8031496062992126,"duration":0.2044270833333428},{"name":"D#3","midi":51,"time":237.41536458333044,"velocity":0.8031496062992126,"duration":0.2018229166666572},{"name":"F#4","midi":66,"time":237.41536458333044,"velocity":0.8031496062992126,"duration":0.2018229166666572},{"name":"E3","midi":52,"time":237.6210937499971,"velocity":0.8031496062992126,"duration":0.2018229166666572},{"name":"E4","midi":64,"time":237.6210937499971,"velocity":0.8031496062992126,"duration":0.2018229166666572},{"name":"F#3","midi":54,"time":237.82552083333042,"velocity":0.8031496062992126,"duration":0.2018229166666572},{"name":"D#4","midi":63,"time":237.82552083333042,"velocity":0.8031496062992126,"duration":0.2018229166666572},{"name":"G3","midi":55,"time":238.02994791666373,"velocity":0.8031496062992126,"duration":0.2018229166666572},{"name":"B4","midi":71,"time":238.02994791666373,"velocity":0.8031496062992126,"duration":0.5117187499999716},{"name":"E3","midi":52,"time":238.23437499999704,"velocity":0.8031496062992126,"duration":0.2018229166666572},{"name":"F#3","midi":54,"time":238.43880208333036,"velocity":0.8031496062992126,"duration":0.2044270833333428},{"name":"G3","midi":55,"time":238.64583333333036,"velocity":0.8031496062992126,"duration":0.2018229166666572},{"name":"A4","midi":69,"time":238.64583333333036,"velocity":0.8031496062992126,"duration":0.2018229166666572},{"name":"A3","midi":57,"time":238.85026041666367,"velocity":0.8031496062992126,"duration":0.2018229166666572},{"name":"G4","midi":67,"time":238.85026041666367,"velocity":0.8031496062992126,"duration":0.2018229166666572},{"name":"B3","midi":59,"time":239.054687499997,"velocity":0.8031496062992126,"duration":0.2018229166666572},{"name":"F#4","midi":66,"time":239.054687499997,"velocity":0.8031496062992126,"duration":0.2018229166666572},{"name":"C4","midi":60,"time":239.2591145833303,"velocity":0.8031496062992126,"duration":0.5963541666666288},{"name":"E4","midi":64,"time":239.2591145833303,"velocity":0.8031496062992126,"duration":0.2018229166666572},{"name":"G4","midi":67,"time":239.46354166666362,"velocity":0.8031496062992126,"duration":0.2018229166666572},{"name":"B4","midi":71,"time":239.66927083333027,"velocity":0.8031496062992126,"duration":0.2018229166666572},{"name":"C#4","midi":61,"time":239.8736979166636,"velocity":0.8031496062992126,"duration":0.2018229166666572},{"name":"E5","midi":76,"time":239.8736979166636,"velocity":0.8031496062992126,"duration":0.2018229166666572},{"name":"D4","midi":62,"time":240.0781249999969,"velocity":0.8031496062992126,"duration":0.2018229166666572},{"name":"A#4","midi":70,"time":240.0781249999969,"velocity":0.8031496062992126,"duration":0.610677083333286},{"name":"E4","midi":64,"time":240.28255208333022,"velocity":0.8031496062992126,"duration":0.2018229166666572},{"name":"F#3","midi":54,"time":240.48697916666353,"velocity":0.8031496062992126,"duration":0.610677083333286},{"name":"F#4","midi":66,"time":240.69140624999685,"velocity":0.8031496062992126,"duration":0.2018229166666572},{"name":"G#4","midi":68,"time":240.89583333333016,"velocity":0.8031496062992126,"duration":0.2018229166666572},{"name":"F#3","midi":54,"time":241.10156249999682,"velocity":0.8031496062992126,"duration":0.2018229166666572},{"name":"A#4","midi":70,"time":241.10156249999682,"velocity":0.8031496062992126,"duration":0.2018229166666572},{"name":"G#3","midi":56,"time":241.30598958333013,"velocity":0.8031496062992126,"duration":0.2018229166666572},{"name":"B4","midi":71,"time":241.30598958333013,"velocity":0.8031496062992126,"duration":0.2018229166666572},{"name":"A#3","midi":58,"time":241.51041666666345,"velocity":0.8031496062992126,"duration":0.2018229166666572},{"name":"C#5","midi":73,"time":241.51041666666345,"velocity":0.8031496062992126,"duration":0.2018229166666572},{"name":"B2","midi":47,"time":241.71484374999676,"velocity":0.8031496062992126,"duration":0.610677083333286},{"name":"D#5","midi":75,"time":241.71484374999676,"velocity":0.8031496062992126,"duration":0.2018229166666572},{"name":"B4","midi":71,"time":241.91927083333007,"velocity":0.8031496062992126,"duration":0.2018229166666572},{"name":"C#5","midi":73,"time":242.1236979166634,"velocity":0.8031496062992126,"duration":0.2018229166666572},{"name":"B2","midi":47,"time":242.3281249999967,"velocity":0.8031496062992126,"duration":0.2018229166666572},{"name":"D#5","midi":75,"time":242.3281249999967,"velocity":0.8031496062992126,"duration":0.2018229166666572},{"name":"C#3","midi":49,"time":242.53255208333002,"velocity":0.8031496062992126,"duration":0.2018229166666572},{"name":"E5","midi":76,"time":242.53255208333002,"velocity":0.8031496062992126,"duration":0.2018229166666572},{"name":"D#3","midi":51,"time":242.73828124999667,"velocity":0.8031496062992126,"duration":0.2018229166666572},{"name":"F#5","midi":78,"time":242.73828124999667,"velocity":0.8031496062992126,"duration":0.2018229166666572},{"name":"E2","midi":40,"time":242.94270833333,"velocity":0.8031496062992126,"duration":0.4062499999999716},{"name":"G5","midi":79,"time":242.94270833333,"velocity":0.8031496062992126,"duration":0.2018229166666572},{"name":"E5","midi":76,"time":243.1471354166633,"velocity":0.8031496062992126,"duration":0.2018229166666572},{"name":"E4","midi":64,"time":243.35156249999662,"velocity":0.8031496062992126,"duration":0.10026041666665719},{"name":"F#5","midi":78,"time":243.35156249999662,"velocity":0.8031496062992126,"duration":0.20442708333331439},{"name":"D4","midi":62,"time":243.45442708332993,"velocity":0.8031496062992126,"duration":0.10026041666665719},{"name":"E4","midi":64,"time":243.5585937499966,"velocity":0.8031496062992126,"duration":0.4062499999999716},{"name":"G5","midi":79,"time":243.5585937499966,"velocity":0.8031496062992126,"duration":0.2018229166666572},{"name":"A5","midi":81,"time":243.7630208333299,"velocity":0.8031496062992126,"duration":0.2018229166666572},{"name":"E4","midi":64,"time":243.96744791666322,"velocity":0.8031496062992126,"duration":0.2018229166666572},{"name":"B5","midi":83,"time":243.96744791666322,"velocity":0.8031496062992126,"duration":0.2018229166666572},{"name":"A3","midi":57,"time":244.17187499999653,"velocity":0.8031496062992126,"duration":0.40625},{"name":"C6","midi":84,"time":244.17187499999653,"velocity":0.8031496062992126,"duration":1.2252604166666003},{"name":"B5","midi":83,"time":244.37630208332988,"velocity":0.8031496062992126,"duration":0.2018229166666572},{"name":"F#4","midi":66,"time":244.58203124999653,"velocity":0.8031496062992126,"duration":0.2018229166666572},{"name":"A5","midi":81,"time":244.58203124999653,"velocity":0.8031496062992126,"duration":0.2018229166666572},{"name":"E4","midi":64,"time":244.78645833332985,"velocity":0.8031496062992126,"duration":0.2018229166666572},{"name":"G5","midi":79,"time":244.78645833332985,"velocity":0.8031496062992126,"duration":0.2018229166666572},{"name":"F#4","midi":66,"time":244.99088541666316,"velocity":0.8031496062992126,"duration":0.2018229166666572},{"name":"A5","midi":81,"time":244.99088541666316,"velocity":0.8031496062992126,"duration":0.2018229166666572},{"name":"D4","midi":62,"time":245.19531249999648,"velocity":0.8031496062992126,"duration":0.2018229166666572},{"name":"F#5","midi":78,"time":245.19531249999648,"velocity":0.8031496062992126,"duration":0.8111979166666003},{"name":"G3","midi":55,"time":245.3997395833298,"velocity":0.8031496062992126,"duration":0.4062499999999716},{"name":"B5","midi":83,"time":245.3997395833298,"velocity":0.8031496062992126,"duration":0.2018229166666572},{"name":"A5","midi":81,"time":245.6041666666631,"velocity":0.8031496062992126,"duration":0.2018229166666572},{"name":"C4","midi":60,"time":245.80859374999642,"velocity":0.8031496062992126,"duration":0.10026041666665719},{"name":"G5","midi":79,"time":245.80859374999642,"velocity":0.8031496062992126,"duration":0.598958333333286},{"name":"B3","midi":59,"time":245.91276041666308,"velocity":0.8031496062992126,"duration":0.10026041666665719},{"name":"C4","midi":60,"time":246.0156249999964,"velocity":0.8031496062992126,"duration":0.4062499999999716},{"name":"F#5","midi":78,"time":246.0156249999964,"velocity":0.8031496062992126,"duration":0.2018229166666572},{"name":"E5","midi":76,"time":246.2200520833297,"velocity":0.8031496062992126,"duration":0.5963541666666288},{"name":"C4","midi":60,"time":246.42447916666302,"velocity":0.8031496062992126,"duration":0.2018229166666572},{"name":"B5","midi":83,"time":246.42447916666302,"velocity":0.8031496062992126,"duration":0.2018229166666572},{"name":"F#3","midi":54,"time":246.63020833332968,"velocity":0.8031496062992126,"duration":0.4062499999999716},{"name":"A5","midi":81,"time":246.63020833332968,"velocity":0.8031496062992126,"duration":1.225260416666572},{"name":"G5","midi":79,"time":246.834635416663,"velocity":0.8031496062992126,"duration":0.2018229166666572},{"name":"D4","midi":62,"time":247.0390624999963,"velocity":0.8031496062992126,"duration":0.2018229166666572},{"name":"F#5","midi":78,"time":247.0390624999963,"velocity":0.8031496062992126,"duration":0.2018229166666572},{"name":"C4","midi":60,"time":247.24348958332962,"velocity":0.8031496062992126,"duration":0.2018229166666572},{"name":"E5","midi":76,"time":247.24348958332962,"velocity":0.8031496062992126,"duration":0.2018229166666572},{"name":"D4","midi":62,"time":247.44791666666293,"velocity":0.8031496062992126,"duration":0.2018229166666572},{"name":"F#5","midi":78,"time":247.44791666666293,"velocity":0.8031496062992126,"duration":0.2018229166666572},{"name":"B3","midi":59,"time":247.65234374999625,"velocity":0.8031496062992126,"duration":0.2018229166666572},{"name":"D5","midi":74,"time":247.65234374999625,"velocity":0.8031496062992126,"duration":0.8111979166666572},{"name":"E3","midi":52,"time":247.8567708333296,"velocity":0.8031496062992126,"duration":0.40625},{"name":"G5","midi":79,"time":247.8567708333296,"velocity":0.8031496062992126,"duration":0.2018229166666572},{"name":"F#5","midi":78,"time":248.06249999999625,"velocity":0.8031496062992126,"duration":0.20182291666668561},{"name":"A3","midi":57,"time":248.2669270833296,"velocity":0.8031496062992126,"duration":0.10026041666665719},{"name":"E5","midi":76,"time":248.2669270833296,"velocity":0.8031496062992126,"duration":0.598958333333286},{"name":"G3","midi":55,"time":248.3697916666629,"velocity":0.8031496062992126,"duration":0.10026041666665719},{"name":"A3","midi":57,"time":248.47265624999622,"velocity":0.8031496062992126,"duration":0.40625},{"name":"D5","midi":74,"time":248.47265624999622,"velocity":0.8031496062992126,"duration":0.2018229166666572},{"name":"C5","midi":72,"time":248.67838541666288,"velocity":0.8031496062992126,"duration":0.5963541666666572},{"name":"A3","midi":57,"time":248.88281249999622,"velocity":0.8031496062992126,"duration":0.2018229166666572},{"name":"G5","midi":79,"time":248.88281249999622,"velocity":0.8031496062992126,"duration":0.2018229166666572},{"name":"D3","midi":50,"time":249.08723958332953,"velocity":0.8031496062992126,"duration":0.40625},{"name":"F#5","midi":78,"time":249.08723958332953,"velocity":0.8031496062992126,"duration":1.2252604166666003},{"name":"E5","midi":76,"time":249.29166666666288,"velocity":0.8031496062992126,"duration":0.2018229166666572},{"name":"B3","midi":59,"time":249.4960937499962,"velocity":0.8031496062992126,"duration":0.2018229166666572},{"name":"D5","midi":74,"time":249.4960937499962,"velocity":0.8031496062992126,"duration":0.2018229166666572},{"name":"A3","midi":57,"time":249.7005208333295,"velocity":0.8031496062992126,"duration":0.2018229166666572},{"name":"C5","midi":72,"time":249.7005208333295,"velocity":0.8031496062992126,"duration":0.2018229166666572},{"name":"B3","midi":59,"time":249.90494791666282,"velocity":0.8031496062992126,"duration":0.2018229166666572},{"name":"D5","midi":74,"time":249.90494791666282,"velocity":0.8031496062992126,"duration":0.2018229166666572},{"name":"G3","midi":55,"time":250.11067708332948,"velocity":0.8031496062992126,"duration":0.2018229166666572},{"name":"B4","midi":71,"time":250.11067708332948,"velocity":0.8031496062992126,"duration":0.8111979166666003},{"name":"C#3","midi":49,"time":250.3151041666628,"velocity":0.8031496062992126,"duration":0.4062499999999716},{"name":"E5","midi":76,"time":250.3151041666628,"velocity":0.8031496062992126,"duration":0.2018229166666572},{"name":"D5","midi":74,"time":250.5195312499961,"velocity":0.8031496062992126,"duration":0.2018229166666572},{"name":"F#3","midi":54,"time":250.72395833332942,"velocity":0.8031496062992126,"duration":0.10026041666665719},{"name":"C#5","midi":73,"time":250.72395833332942,"velocity":0.8031496062992126,"duration":0.5989583333333144},{"name":"E3","midi":52,"time":250.82682291666273,"velocity":0.8031496062992126,"duration":0.10026041666668561},{"name":"F#3","midi":54,"time":250.93098958332942,"velocity":0.8031496062992126,"duration":0.4062499999999716},{"name":"B4","midi":71,"time":250.93098958332942,"velocity":0.8031496062992126,"duration":0.2018229166666572},{"name":"A4","midi":69,"time":251.13541666666273,"velocity":0.8031496062992126,"duration":0.5963541666666288},{"name":"F#3","midi":54,"time":251.33984374999605,"velocity":0.8031496062992126,"duration":0.2018229166666572},{"name":"E5","midi":76,"time":251.33984374999605,"velocity":0.8031496062992126,"duration":0.2018229166666572},{"name":"B2","midi":47,"time":251.54427083332936,"velocity":0.8031496062992126,"duration":0.4062500000000284},{"name":"D#5","midi":75,"time":251.54427083332936,"velocity":0.8031496062992126,"duration":0.4049479166666856},{"name":"C5","midi":72,"time":251.7486979166627,"velocity":0.8031496062992126,"duration":0.20182291666668561},{"name":"G#3","midi":56,"time":251.95312499999605,"velocity":0.8031496062992126,"duration":0.2018229166666572},{"name":"B4","midi":71,"time":251.95312499999605,"velocity":0.8031496062992126,"duration":0.2018229166666572},{"name":"D5","midi":74,"time":251.95312499999605,"velocity":0.8031496062992126,"duration":1.0221354166666003},{"name":"F#3","midi":54,"time":252.1588541666627,"velocity":0.8031496062992126,"duration":0.2018229166666572},{"name":"A4","midi":69,"time":252.1588541666627,"velocity":0.8031496062992126,"duration":0.2018229166666572},{"name":"G#3","midi":56,"time":252.36328124999602,"velocity":0.8031496062992126,"duration":0.2018229166666572},{"name":"B4","midi":71,"time":252.36328124999602,"velocity":0.8031496062992126,"duration":0.2018229166666572},{"name":"E3","midi":52,"time":252.56770833332934,"velocity":0.8031496062992126,"duration":0.2018229166666572},{"name":"G#4","midi":68,"time":252.56770833332934,"velocity":0.8031496062992126,"duration":0.2018229166666572},{"name":"A2","midi":45,"time":252.77213541666265,"velocity":0.8031496062992126,"duration":0.6106770833333144},{"name":"E4","midi":64,"time":252.77213541666265,"velocity":0.8031496062992126,"duration":1.6341145833332291},{"name":"D5","midi":74,"time":252.976562499996,"velocity":0.8031496062992126,"duration":0.2018229166666572},{"name":"C5","midi":72,"time":253.1809895833293,"velocity":0.8031496062992126,"duration":0.2018229166666572},{"name":"B2","midi":47,"time":253.38541666666262,"velocity":0.8031496062992126,"duration":0.2018229166666572},{"name":"B4","midi":71,"time":253.38541666666262,"velocity":0.8031496062992126,"duration":0.2018229166666572},{"name":"C3","midi":48,"time":253.59114583332928,"velocity":0.8031496062992126,"duration":0.610677083333286},{"name":"A4","midi":69,"time":253.59114583332928,"velocity":0.8031496062992126,"duration":0.2018229166666572},{"name":"G#4","midi":68,"time":253.7955729166626,"velocity":0.8031496062992126,"duration":0.2018229166666572},{"name":"A4","midi":69,"time":253.9999999999959,"velocity":0.8031496062992126,"duration":0.2018229166666572},{"name":"D3","midi":50,"time":254.20442708332922,"velocity":0.8031496062992126,"duration":0.2018229166666572},{"name":"B4","midi":71,"time":254.20442708332922,"velocity":0.8031496062992126,"duration":0.2018229166666572},{"name":"E3","midi":52,"time":254.40885416666254,"velocity":0.8031496062992126,"duration":0.20442708333331439},{"name":"C5","midi":72,"time":254.40885416666254,"velocity":0.8031496062992126,"duration":0.10026041666665719},{"name":"G#4","midi":68,"time":254.40885416666254,"velocity":0.8031496062992126,"duration":0.6028645833332575},{"name":"B4","midi":71,"time":254.51171874999585,"velocity":0.8031496062992126,"duration":0.10026041666665719},{"name":"D3","midi":50,"time":254.6158854166625,"velocity":0.8031496062992126,"duration":0.20442708333331439},{"name":"C5","midi":72,"time":254.6158854166625,"velocity":0.8031496062992126,"duration":0.10026041666665719},{"name":"B4","midi":71,"time":254.71874999999582,"velocity":0.8031496062992126,"duration":0.10026041666665719},{"name":"E3","midi":52,"time":254.82291666666248,"velocity":0.8031496062992126,"duration":0.20442708333331439},{"name":"C5","midi":72,"time":254.82291666666248,"velocity":0.8031496062992126,"duration":0.10026041666665719},{"name":"B4","midi":71,"time":254.9257812499958,"velocity":0.8031496062992126,"duration":0.10026041666665719},{"name":"E2","midi":40,"time":255.02864583332914,"velocity":0.8031496062992126,"duration":0.20442708333331439},{"name":"A4","midi":69,"time":255.02864583332914,"velocity":0.8031496062992126,"duration":0.10026041666665719},{"name":"B4","midi":71,"time":255.1328124999958,"velocity":0.8031496062992126,"duration":0.10026041666665719},{"name":"A2","midi":45,"time":255.2356770833291,"velocity":0.8031496062992126,"duration":0.40625},{"name":"C5","midi":72,"time":255.2356770833291,"velocity":0.8031496062992126,"duration":0.8098958333333144},{"name":"G#4","midi":68,"time":255.44010416666245,"velocity":0.8031496062992126,"duration":0.2018229166666572},{"name":"A3","midi":57,"time":255.64453124999577,"velocity":0.8031496062992126,"duration":0.6106770833333428},{"name":"A4","midi":69,"time":255.64453124999577,"velocity":0.8031496062992126,"duration":0.2018229166666572},{"name":"E4","midi":64,"time":255.85026041666242,"velocity":0.8031496062992126,"duration":0.20182291666668561},{"name":"G4","midi":67,"time":256.0546874999958,"velocity":0.8031496062992126,"duration":0.40494791666662877},{"name":"G3","midi":55,"time":256.2591145833291,"velocity":0.8031496062992126,"duration":0.20182291666662877},{"name":"C#5","midi":73,"time":256.2591145833291,"velocity":0.8031496062992126,"duration":0.20182291666662877},{"name":"F#3","midi":54,"time":256.4635416666624,"velocity":0.8031496062992126,"duration":0.20182291666668561},{"name":"D5","midi":74,"time":256.4635416666624,"velocity":0.8031496062992126,"duration":0.20182291666668561},{"name":"G3","midi":55,"time":256.6679687499958,"velocity":0.8031496062992126,"duration":0.20182291666668561},{"name":"E5","midi":76,"time":256.6679687499958,"velocity":0.8031496062992126,"duration":0.20182291666668561},{"name":"A3","midi":57,"time":256.87239583332916,"velocity":0.8031496062992126,"duration":0.20442708333337123},{"name":"F#5","midi":78,"time":256.87239583332916,"velocity":0.8031496062992126,"duration":0.10026041666668561},{"name":"C#5","midi":73,"time":256.87239583332916,"velocity":0.8031496062992126,"duration":0.8177083333335418},{"name":"E5","midi":76,"time":256.97656249999585,"velocity":0.8031496062992126,"duration":0.10026041666668561},{"name":"G3","midi":55,"time":257.0794270833292,"velocity":0.8031496062992126,"duration":0.20442708333337123},{"name":"F#5","midi":78,"time":257.0794270833292,"velocity":0.8031496062992126,"duration":0.10026041666668561},{"name":"E5","midi":76,"time":257.1822916666626,"velocity":0.8031496062992126,"duration":0.10026041666668561},{"name":"A3","midi":57,"time":257.2864583333293,"velocity":0.8031496062992126,"duration":0.20442708333337123},{"name":"F#5","midi":78,"time":257.2864583333293,"velocity":0.8031496062992126,"duration":0.10026041666668561},{"name":"E5","midi":76,"time":257.38932291666265,"velocity":0.8031496062992126,"duration":0.10026041666668561},{"name":"A2","midi":45,"time":257.49348958332934,"velocity":0.8031496062992126,"duration":0.20442708333337123},{"name":"D5","midi":74,"time":257.49348958332934,"velocity":0.8031496062992126,"duration":0.10026041666668561},{"name":"E5","midi":76,"time":257.5963541666627,"velocity":0.8031496062992126,"duration":0.10026041666668561},{"name":"D3","midi":50,"time":257.699218749996,"velocity":0.8031496062992126,"duration":0.40625},{"name":"F#5","midi":78,"time":257.699218749996,"velocity":0.8031496062992126,"duration":0.8098958333333712},{"name":"C#5","midi":73,"time":257.90364583332934,"velocity":0.8031496062992126,"duration":0.20182291666668561},{"name":"D4","midi":62,"time":258.109374999996,"velocity":0.8031496062992126,"duration":0.6106770833334281},{"name":"D5","midi":74,"time":258.109374999996,"velocity":0.8031496062992126,"duration":0.20182291666668561},{"name":"A4","midi":69,"time":258.3138020833294,"velocity":0.8031496062992126,"duration":0.20182291666668561},{"name":"C5","midi":72,"time":258.51822916666276,"velocity":0.8031496062992126,"duration":0.4049479166666856},{"name":"C4","midi":60,"time":258.72265624999613,"velocity":0.8031496062992126,"duration":0.20182291666662877},{"name":"F#5","midi":78,"time":258.72265624999613,"velocity":0.8031496062992126,"duration":0.20182291666662877},{"name":"B3","midi":59,"time":258.92708333332945,"velocity":0.8031496062992126,"duration":0.20182291666668561},{"name":"G5","midi":79,"time":258.92708333332945,"velocity":0.8031496062992126,"duration":0.20182291666668561},{"name":"C4","midi":60,"time":259.1315104166628,"velocity":0.8031496062992126,"duration":0.20182291666668561},{"name":"A5","midi":81,"time":259.1315104166628,"velocity":0.8031496062992126,"duration":0.20182291666668561},{"name":"D4","midi":62,"time":259.3359374999962,"velocity":0.8031496062992126,"duration":0.20442708333337123},{"name":"F#5","midi":78,"time":259.3359374999962,"velocity":0.8031496062992126,"duration":0.8177083333335418},{"name":"B5","midi":83,"time":259.3359374999962,"velocity":0.8031496062992126,"duration":0.10026041666668561},{"name":"A5","midi":81,"time":259.4401041666629,"velocity":0.8031496062992126,"duration":0.10026041666668561},{"name":"C4","midi":60,"time":259.54296874999625,"velocity":0.8031496062992126,"duration":0.20442708333337123},{"name":"B5","midi":83,"time":259.54296874999625,"velocity":0.8031496062992126,"duration":0.10026041666668561},{"name":"A5","midi":81,"time":259.64713541666293,"velocity":0.8031496062992126,"duration":0.10026041666668561},{"name":"D4","midi":62,"time":259.7499999999963,"velocity":0.8031496062992126,"duration":0.20442708333337123},{"name":"B5","midi":83,"time":259.7499999999963,"velocity":0.8031496062992126,"duration":0.10026041666668561},{"name":"A5","midi":81,"time":259.8528645833297,"velocity":0.8031496062992126,"duration":0.10026041666668561},{"name":"D3","midi":50,"time":259.95703124999636,"velocity":0.8031496062992126,"duration":0.20442708333337123},{"name":"G5","midi":79,"time":259.95703124999636,"velocity":0.8031496062992126,"duration":0.10026041666668561},{"name":"A5","midi":81,"time":260.05989583332973,"velocity":0.8031496062992126,"duration":0.10026041666668561},{"name":"G3","midi":55,"time":260.16276041666305,"velocity":0.8031496062992126,"duration":0.20182291666668561},{"name":"B5","midi":83,"time":260.16276041666305,"velocity":0.8031496062992126,"duration":0.4049479166666856},{"name":"A3","midi":57,"time":260.36848958332973,"velocity":0.8031496062992126,"duration":0.20182291666668561},{"name":"F#5","midi":78,"time":260.36848958332973,"velocity":0.8031496062992126,"duration":0.20182291666668561},{"name":"B3","midi":59,"time":260.5729166666631,"velocity":0.8031496062992126,"duration":0.20182291666668561},{"name":"G5","midi":79,"time":260.5729166666631,"velocity":0.8031496062992126,"duration":0.5963541666667425},{"name":"F#3","midi":54,"time":260.7773437499965,"velocity":0.8031496062992126,"duration":0.20182291666668561},{"name":"D#5","midi":75,"time":260.7773437499965,"velocity":0.8031496062992126,"duration":0.20182291666668561},{"name":"G3","midi":55,"time":260.98177083332985,"velocity":0.8031496062992126,"duration":0.20182291666668561},{"name":"E5","midi":76,"time":260.98177083332985,"velocity":0.8031496062992126,"duration":0.20182291666668561},{"name":"E3","midi":52,"time":261.1861979166632,"velocity":0.8031496062992126,"duration":0.20182291666668561},{"name":"G5","midi":79,"time":261.1861979166632,"velocity":0.8031496062992126,"duration":0.20182291666668561},{"name":"C4","midi":60,"time":261.3906249999966,"velocity":0.8031496062992126,"duration":0.6106770833333712},{"name":"A4","midi":69,"time":261.3906249999966,"velocity":0.8031496062992126,"duration":0.5963541666666856},{"name":"C5","midi":72,"time":261.5950520833299,"velocity":0.8031496062992126,"duration":0.20182291666668561},{"name":"D#5","midi":75,"time":261.8007812499966,"velocity":0.8031496062992126,"duration":0.20182291666668561},{"name":"C4","midi":60,"time":262.00520833332996,"velocity":0.8031496062992126,"duration":0.20182291666668561},{"name":"E5","midi":76,"time":262.00520833332996,"velocity":0.8031496062992126,"duration":0.20182291666668561},{"name":"A3","midi":57,"time":262.20963541666333,"velocity":0.8031496062992126,"duration":0.20182291666668561},{"name":"F#5","midi":78,"time":262.20963541666333,"velocity":0.8031496062992126,"duration":0.20182291666668561},{"name":"F#3","midi":54,"time":262.4140624999967,"velocity":0.8031496062992126,"duration":0.20182291666668561},{"name":"G5","midi":79,"time":262.4140624999967,"velocity":0.8031496062992126,"duration":0.20182291666668561},{"name":"D#3","midi":51,"time":262.6184895833301,"velocity":0.8031496062992126,"duration":0.20182291666668561},{"name":"A5","midi":81,"time":262.6184895833301,"velocity":0.8031496062992126,"duration":0.8098958333334281},{"name":"F#3","midi":54,"time":262.82291666666345,"velocity":0.8031496062992126,"duration":0.20182291666668561},{"name":"B3","midi":59,"time":263.0273437499968,"velocity":0.8031496062992126,"duration":0.20182291666668561},{"name":"B4","midi":71,"time":263.0273437499968,"velocity":0.8031496062992126,"duration":0.8098958333334281},{"name":"F#3","midi":54,"time":263.2330729166635,"velocity":0.8031496062992126,"duration":0.20182291666668561},{"name":"E3","midi":52,"time":263.4374999999969,"velocity":0.8031496062992126,"duration":0.20182291666668561},{"name":"A5","midi":81,"time":263.4374999999969,"velocity":0.8031496062992126,"duration":0.40625000000005684},{"name":"D#3","midi":51,"time":263.64192708333024,"velocity":0.8031496062992126,"duration":0.20182291666668561},{"name":"E3","midi":52,"time":263.8463541666636,"velocity":0.8031496062992126,"duration":0.20182291666668561},{"name":"G5","midi":79,"time":263.8463541666636,"velocity":0.8031496062992126,"duration":0.8098958333334281},{"name":"G3","midi":55,"time":264.050781249997,"velocity":0.8031496062992126,"duration":0.20182291666668561},{"name":"C#4","midi":61,"time":264.25520833333036,"velocity":0.8031496062992126,"duration":0.20182291666668561},{"name":"B4","midi":71,"time":264.25520833333036,"velocity":0.8031496062992126,"duration":0.8098958333333712},{"name":"G3","midi":55,"time":264.45963541666373,"velocity":0.8031496062992126,"duration":0.20182291666662877},{"name":"F#3","midi":54,"time":264.66536458333036,"velocity":0.8031496062992126,"duration":0.20182291666668561},{"name":"G5","midi":79,"time":264.66536458333036,"velocity":0.8031496062992126,"duration":0.40625000000005684},{"name":"E3","midi":52,"time":264.86979166666373,"velocity":0.8031496062992126,"duration":0.20182291666668561},{"name":"F#3","midi":54,"time":265.0742187499971,"velocity":0.8031496062992126,"duration":0.20182291666668561},{"name":"F#5","midi":78,"time":265.0742187499971,"velocity":0.8031496062992126,"duration":0.8098958333334281},{"name":"A3","midi":57,"time":265.2786458333305,"velocity":0.8031496062992126,"duration":0.20182291666668561},{"name":"D#4","midi":63,"time":265.48307291666384,"velocity":0.8031496062992126,"duration":0.20182291666668561},{"name":"A4","midi":69,"time":265.48307291666384,"velocity":0.8031496062992126,"duration":0.5963541666666856},{"name":"A3","midi":57,"time":265.6874999999972,"velocity":0.8031496062992126,"duration":0.20182291666662877},{"name":"G3","midi":55,"time":265.89192708333053,"velocity":0.8031496062992126,"duration":0.20182291666668561},{"name":"F#5","midi":78,"time":265.89192708333053,"velocity":0.8031496062992126,"duration":0.40625},{"name":"F#3","midi":54,"time":266.0976562499972,"velocity":0.8031496062992126,"duration":0.20182291666662877},{"name":"G3","midi":55,"time":266.30208333333053,"velocity":0.8031496062992126,"duration":0.20182291666668561},{"name":"E5","midi":76,"time":266.30208333333053,"velocity":0.8031496062992126,"duration":0.5963541666667425},{"name":"B3","midi":59,"time":266.5065104166639,"velocity":0.8031496062992126,"duration":0.20182291666668561},{"name":"E4","midi":64,"time":266.71093749999727,"velocity":0.8031496062992126,"duration":0.20182291666668561},{"name":"G4","midi":67,"time":266.71093749999727,"velocity":0.8031496062992126,"duration":0.40625000000005684},{"name":"D4","midi":62,"time":266.91536458333064,"velocity":0.8031496062992126,"duration":0.20182291666668561},{"name":"C#4","midi":61,"time":267.119791666664,"velocity":0.8031496062992126,"duration":0.20182291666668561},{"name":"E5","midi":76,"time":267.119791666664,"velocity":0.8031496062992126,"duration":0.40625000000005684},{"name":"B3","midi":59,"time":267.3242187499974,"velocity":0.8031496062992126,"duration":0.20182291666668561},{"name":"A#3","midi":58,"time":267.52864583333076,"velocity":0.8031496062992126,"duration":0.20182291666668561},{"name":"F#4","midi":66,"time":267.52864583333076,"velocity":0.8031496062992126,"duration":0.20182291666668561},{"name":"C#4","midi":61,"time":267.73437499999744,"velocity":0.8031496062992126,"duration":0.20182291666668561},{"name":"A#4","midi":70,"time":267.73437499999744,"velocity":0.8031496062992126,"duration":0.20182291666668561},{"name":"E4","midi":64,"time":267.9388020833308,"velocity":0.8031496062992126,"duration":0.20182291666668561},{"name":"C#5","midi":73,"time":267.9388020833308,"velocity":0.8031496062992126,"duration":0.20182291666668561},{"name":"G4","midi":67,"time":268.1432291666642,"velocity":0.8031496062992126,"duration":0.20182291666668561},{"name":"E5","midi":76,"time":268.1432291666642,"velocity":0.8031496062992126,"duration":0.20182291666668561},{"name":"F#4","midi":66,"time":268.34765624999756,"velocity":0.8031496062992126,"duration":0.20182291666668561},{"name":"D#5","midi":75,"time":268.34765624999756,"velocity":0.8031496062992126,"duration":0.20182291666668561},{"name":"E4","midi":64,"time":268.5520833333309,"velocity":0.8031496062992126,"duration":0.20182291666668561},{"name":"C#5","midi":73,"time":268.5520833333309,"velocity":0.8031496062992126,"duration":0.20182291666668561},{"name":"D#4","midi":63,"time":268.7565104166643,"velocity":0.8031496062992126,"duration":0.20182291666668561},{"name":"B4","midi":71,"time":268.7565104166643,"velocity":0.8031496062992126,"duration":0.20182291666668561},{"name":"F#4","midi":66,"time":268.96093749999767,"velocity":0.8031496062992126,"duration":0.20182291666668561},{"name":"D#5","midi":75,"time":268.96093749999767,"velocity":0.8031496062992126,"duration":0.20182291666668561},{"name":"A4","midi":69,"time":269.16666666666436,"velocity":0.8031496062992126,"duration":0.20182291666668561},{"name":"F#5","midi":78,"time":269.16666666666436,"velocity":0.8031496062992126,"duration":0.20182291666668561},{"name":"C5","midi":72,"time":269.3710937499977,"velocity":0.8031496062992126,"duration":0.20182291666668561},{"name":"A5","midi":81,"time":269.3710937499977,"velocity":0.8031496062992126,"duration":0.20182291666668561},{"name":"B4","midi":71,"time":269.5755208333311,"velocity":0.8031496062992126,"duration":0.20182291666668561},{"name":"G5","midi":79,"time":269.5755208333311,"velocity":0.8031496062992126,"duration":0.20182291666668561},{"name":"A4","midi":69,"time":269.77994791666447,"velocity":0.8031496062992126,"duration":0.20182291666668561},{"name":"F#5","midi":78,"time":269.77994791666447,"velocity":0.8031496062992126,"duration":0.20182291666668561},{"name":"G4","midi":67,"time":269.98437499999784,"velocity":0.8031496062992126,"duration":0.20182291666668561},{"name":"B5","midi":83,"time":269.98437499999784,"velocity":0.8031496062992126,"duration":0.20182291666668561},{"name":"F#4","midi":66,"time":270.1888020833312,"velocity":0.8031496062992126,"duration":0.20182291666668561},{"name":"A5","midi":81,"time":270.1888020833312,"velocity":0.8031496062992126,"duration":0.20182291666668561},{"name":"E4","midi":64,"time":270.3932291666646,"velocity":0.8031496062992126,"duration":0.20182291666668561},{"name":"G5","midi":79,"time":270.3932291666646,"velocity":0.8031496062992126,"duration":0.20182291666668561},{"name":"D4","midi":62,"time":270.59895833333127,"velocity":0.8031496062992126,"duration":0.20182291666668561},{"name":"F#5","midi":78,"time":270.59895833333127,"velocity":0.8031496062992126,"duration":0.20182291666668561},{"name":"C4","midi":60,"time":270.80338541666464,"velocity":0.8031496062992126,"duration":0.20182291666668561},{"name":"E5","midi":76,"time":270.80338541666464,"velocity":0.8031496062992126,"duration":0.20182291666668561},{"name":"B3","midi":59,"time":271.007812499998,"velocity":0.8031496062992126,"duration":0.20182291666668561},{"name":"D5","midi":74,"time":271.007812499998,"velocity":0.8031496062992126,"duration":0.20182291666668561},{"name":"A3","midi":57,"time":271.2122395833314,"velocity":0.8031496062992126,"duration":0.20182291666668561},{"name":"C5","midi":72,"time":271.2122395833314,"velocity":0.8031496062992126,"duration":0.20182291666668561},{"name":"G3","midi":55,"time":271.41666666666475,"velocity":0.8031496062992126,"duration":0.20182291666668561},{"name":"B4","midi":71,"time":271.41666666666475,"velocity":0.8031496062992126,"duration":0.20182291666668561},{"name":"F#3","midi":54,"time":271.6210937499981,"velocity":0.8031496062992126,"duration":0.20182291666668561},{"name":"A4","midi":69,"time":271.6210937499981,"velocity":0.8031496062992126,"duration":0.20182291666668561},{"name":"E3","midi":52,"time":271.8255208333315,"velocity":0.8031496062992126,"duration":0.20182291666668561},{"name":"G4","midi":67,"time":271.8255208333315,"velocity":0.8031496062992126,"duration":0.20182291666668561},{"name":"D#3","midi":51,"time":272.0312499999982,"velocity":0.8031496062992126,"duration":0.20182291666668561},{"name":"F#4","midi":66,"time":272.0312499999982,"velocity":0.8031496062992126,"duration":0.20182291666668561},{"name":"C#3","midi":49,"time":272.23567708333155,"velocity":0.8031496062992126,"duration":0.20182291666668561},{"name":"E4","midi":64,"time":272.23567708333155,"velocity":0.8031496062992126,"duration":0.20182291666668561},{"name":"B2","midi":47,"time":272.4401041666649,"velocity":0.8031496062992126,"duration":0.40624999999994316},{"name":"D#4","midi":63,"time":272.4401041666649,"velocity":0.8031496062992126,"duration":0.40494791666662877},{"name":"F#4","midi":66,"time":272.64453124999824,"velocity":0.8031496062992126,"duration":0.20182291666662877},{"name":"D#3","midi":51,"time":272.84895833333155,"velocity":0.8031496062992126,"duration":0.40625000000005684},{"name":"B3","midi":59,"time":272.84895833333155,"velocity":0.8031496062992126,"duration":0.20182291666668561},{"name":"C#4","midi":61,"time":273.0533854166649,"velocity":0.8031496062992126,"duration":0.20182291666668561},{"name":"F#3","midi":54,"time":273.2578124999983,"velocity":0.8031496062992126,"duration":0.40625},{"name":"D#4","midi":63,"time":273.2578124999983,"velocity":0.8031496062992126,"duration":0.20182291666668561},{"name":"F#4","midi":66,"time":273.463541666665,"velocity":0.8031496062992126,"duration":0.20182291666662877},{"name":"A3","midi":57,"time":273.6679687499983,"velocity":0.8031496062992126,"duration":0.40624999999994316},{"name":"D#4","midi":63,"time":273.6679687499983,"velocity":0.8031496062992126,"duration":0.40494791666662877},{"name":"F#4","midi":66,"time":273.8723958333316,"velocity":0.8031496062992126,"duration":0.20182291666662877},{"name":"F#3","midi":54,"time":274.0768229166649,"velocity":0.8031496062992126,"duration":0.40625000000005684},{"name":"B3","midi":59,"time":274.0768229166649,"velocity":0.8031496062992126,"duration":0.20182291666668561},{"name":"C#4","midi":61,"time":274.2812499999983,"velocity":0.8031496062992126,"duration":0.20182291666668561},{"name":"D#3","midi":51,"time":274.48567708333167,"velocity":0.8031496062992126,"duration":0.40625000000005684},{"name":"D#4","midi":63,"time":274.48567708333167,"velocity":0.8031496062992126,"duration":0.20182291666668561},{"name":"F#4","midi":66,"time":274.69010416666504,"velocity":0.8031496062992126,"duration":0.20182291666668561},{"name":"B2","midi":47,"time":274.8958333333317,"velocity":0.8031496062992126,"duration":0.40624999999994316},{"name":"E4","midi":64,"time":274.8958333333317,"velocity":0.8031496062992126,"duration":0.40494791666662877},{"name":"G4","midi":67,"time":275.10026041666504,"velocity":0.8031496062992126,"duration":0.20182291666662877},{"name":"E3","midi":52,"time":275.30468749999835,"velocity":0.8031496062992126,"duration":0.40625000000005684},{"name":"B3","midi":59,"time":275.30468749999835,"velocity":0.8031496062992126,"duration":0.20182291666668561},{"name":"D#4","midi":63,"time":275.5091145833317,"velocity":0.8031496062992126,"duration":0.20182291666668561},{"name":"G3","midi":55,"time":275.7135416666651,"velocity":0.8031496062992126,"duration":0.40625000000005684},{"name":"E4","midi":64,"time":275.7135416666651,"velocity":0.8031496062992126,"duration":0.20182291666668561},{"name":"G4","midi":67,"time":275.91796874999847,"velocity":0.8031496062992126,"duration":0.20182291666668561},{"name":"B3","midi":59,"time":276.12239583333184,"velocity":0.8031496062992126,"duration":0.40625},{"name":"E4","midi":64,"time":276.12239583333184,"velocity":0.8031496062992126,"duration":0.4049479166666856},{"name":"G4","midi":67,"time":276.3281249999985,"velocity":0.8031496062992126,"duration":0.20182291666662877},{"name":"G3","midi":55,"time":276.53255208333184,"velocity":0.8031496062992126,"duration":0.40625000000005684},{"name":"B3","midi":59,"time":276.53255208333184,"velocity":0.8031496062992126,"duration":0.20182291666668561},{"name":"D#4","midi":63,"time":276.7369791666652,"velocity":0.8031496062992126,"duration":0.20182291666668561},{"name":"E3","midi":52,"time":276.9414062499986,"velocity":0.8031496062992126,"duration":0.40625000000005684},{"name":"E4","midi":64,"time":276.9414062499986,"velocity":0.8031496062992126,"duration":0.20182291666668561},{"name":"G4","midi":67,"time":277.14583333333195,"velocity":0.8031496062992126,"duration":0.20182291666668561},{"name":"A3","midi":57,"time":277.3502604166653,"velocity":0.8031496062992126,"duration":0.40624999999994316},{"name":"F#4","midi":66,"time":277.3502604166653,"velocity":0.8031496062992126,"duration":0.40494791666662877},{"name":"A4","midi":69,"time":277.55468749999864,"velocity":0.8031496062992126,"duration":0.20182291666662877},{"name":"F#3","midi":54,"time":277.75911458333195,"velocity":0.8031496062992126,"duration":0.40625},{"name":"D#4","midi":63,"time":277.75911458333195,"velocity":0.8031496062992126,"duration":0.20182291666668561},{"name":"E4","midi":64,"time":277.96484374999864,"velocity":0.8031496062992126,"duration":0.20182291666662877},{"name":"D#3","midi":51,"time":278.16927083333195,"velocity":0.8031496062992126,"duration":0.40625000000005684},{"name":"F#4","midi":66,"time":278.16927083333195,"velocity":0.8031496062992126,"duration":0.20182291666668561},{"name":"A4","midi":69,"time":278.3736979166653,"velocity":0.8031496062992126,"duration":0.20182291666668561},{"name":"B2","midi":47,"time":278.5781249999987,"velocity":0.8031496062992126,"duration":0.40624999999994316},{"name":"F#4","midi":66,"time":278.5781249999987,"velocity":0.8031496062992126,"duration":0.40494791666662877},{"name":"A4","midi":69,"time":278.782552083332,"velocity":0.8031496062992126,"duration":0.20182291666662877},{"name":"A3","midi":57,"time":278.9869791666653,"velocity":0.8031496062992126,"duration":0.40625000000005684},{"name":"D#4","midi":63,"time":278.9869791666653,"velocity":0.8031496062992126,"duration":0.20182291666668561},{"name":"E4","midi":64,"time":279.1914062499987,"velocity":0.8031496062992126,"duration":0.20182291666668561},{"name":"F#3","midi":54,"time":279.3971354166654,"velocity":0.8031496062992126,"duration":0.40625000000005684},{"name":"F#4","midi":66,"time":279.3971354166654,"velocity":0.8031496062992126,"duration":0.20182291666668561},{"name":"A4","midi":69,"time":279.60156249999875,"velocity":0.8031496062992126,"duration":0.20182291666668561},{"name":"B3","midi":59,"time":279.8059895833321,"velocity":0.8031496062992126,"duration":0.40624999999994316},{"name":"G4","midi":67,"time":279.8059895833321,"velocity":0.8031496062992126,"duration":0.40494791666662877},{"name":"B4","midi":71,"time":280.01041666666544,"velocity":0.8031496062992126,"duration":0.20182291666662877},{"name":"G3","midi":55,"time":280.21484374999875,"velocity":0.8031496062992126,"duration":0.40625000000005684},{"name":"E4","midi":64,"time":280.21484374999875,"velocity":0.8031496062992126,"duration":0.20182291666668561},{"name":"F#4","midi":66,"time":280.4192708333321,"velocity":0.8031496062992126,"duration":0.20182291666668561},{"name":"E3","midi":52,"time":280.6236979166655,"velocity":0.8031496062992126,"duration":0.40625},{"name":"G4","midi":67,"time":280.6236979166655,"velocity":0.8031496062992126,"duration":0.20182291666668561},{"name":"B4","midi":71,"time":280.8294270833322,"velocity":0.8031496062992126,"duration":0.20182291666662877},{"name":"B2","midi":47,"time":281.0338541666655,"velocity":0.8031496062992126,"duration":0.40624999999994316},{"name":"G4","midi":67,"time":281.0338541666655,"velocity":0.8031496062992126,"duration":0.40494791666662877},{"name":"B4","midi":71,"time":281.2382812499988,"velocity":0.8031496062992126,"duration":0.20182291666662877},{"name":"G3","midi":55,"time":281.4427083333321,"velocity":0.8031496062992126,"duration":0.40625000000005684},{"name":"E4","midi":64,"time":281.4427083333321,"velocity":0.8031496062992126,"duration":0.20182291666668561},{"name":"F#4","midi":66,"time":281.6471354166655,"velocity":0.8031496062992126,"duration":0.20182291666668561},{"name":"E3","midi":52,"time":281.85156249999886,"velocity":0.8031496062992126,"duration":0.40625000000005684},{"name":"G4","midi":67,"time":281.85156249999886,"velocity":0.8031496062992126,"duration":0.20182291666668561},{"name":"B4","midi":71,"time":282.05598958333223,"velocity":0.8031496062992126,"duration":0.20182291666668561},{"name":"A#3","midi":58,"time":282.2617187499989,"velocity":0.8031496062992126,"duration":0.20182291666668561},{"name":"G4","midi":67,"time":282.2617187499989,"velocity":0.8031496062992126,"duration":0.20182291666668561},{"name":"E3","midi":52,"time":282.4661458333323,"velocity":0.8031496062992126,"duration":0.20182291666668561},{"name":"A#4","midi":70,"time":282.4661458333323,"velocity":0.8031496062992126,"duration":0.20182291666668561},{"name":"G3","midi":55,"time":282.67057291666566,"velocity":0.8031496062992126,"duration":0.20182291666668561},{"name":"E4","midi":64,"time":282.67057291666566,"velocity":0.8031496062992126,"duration":0.20182291666668561},{"name":"F#3","midi":54,"time":282.87499999999903,"velocity":0.8031496062992126,"duration":0.20182291666668561},{"name":"F#4","midi":66,"time":282.87499999999903,"velocity":0.8031496062992126,"duration":0.20182291666668561},{"name":"E3","midi":52,"time":283.0794270833324,"velocity":0.8031496062992126,"duration":0.20182291666668561},{"name":"G4","midi":67,"time":283.0794270833324,"velocity":0.8031496062992126,"duration":0.20182291666668561},{"name":"D3","midi":50,"time":283.2838541666658,"velocity":0.8031496062992126,"duration":0.20182291666668561},{"name":"A#4","midi":70,"time":283.2838541666658,"velocity":0.8031496062992126,"duration":0.20182291666668561},{"name":"C#3","midi":49,"time":283.48828124999915,"velocity":0.8031496062992126,"duration":0.20182291666668561},{"name":"G4","midi":67,"time":283.48828124999915,"velocity":0.8031496062992126,"duration":0.20182291666668561},{"name":"G3","midi":55,"time":283.69401041666583,"velocity":0.8031496062992126,"duration":0.20182291666668561},{"name":"A#4","midi":70,"time":283.69401041666583,"velocity":0.8031496062992126,"duration":0.20182291666668561},{"name":"F#3","midi":54,"time":283.8984374999992,"velocity":0.8031496062992126,"duration":0.20182291666668561},{"name":"E4","midi":64,"time":283.8984374999992,"velocity":0.8031496062992126,"duration":0.20182291666668561},{"name":"E3","midi":52,"time":284.1028645833326,"velocity":0.8031496062992126,"duration":0.20182291666668561},{"name":"F#4","midi":66,"time":284.1028645833326,"velocity":0.8031496062992126,"duration":0.20182291666668561},{"name":"D#3","midi":51,"time":284.30729166666595,"velocity":0.8031496062992126,"duration":0.20182291666668561},{"name":"G4","midi":67,"time":284.30729166666595,"velocity":0.8031496062992126,"duration":0.20182291666668561},{"name":"C#3","midi":49,"time":284.5117187499993,"velocity":0.8031496062992126,"duration":0.20182291666668561},{"name":"A#4","midi":70,"time":284.5117187499993,"velocity":0.8031496062992126,"duration":0.20182291666668561},{"name":"D#3","midi":51,"time":284.7161458333327,"velocity":0.8031496062992126,"duration":0.20182291666668561},{"name":"B4","midi":71,"time":284.7161458333327,"velocity":0.8031496062992126,"duration":0.40625000000005684},{"name":"F#3","midi":54,"time":284.92057291666606,"velocity":0.8031496062992126,"duration":0.20182291666668561},{"name":"A3","midi":57,"time":285.12630208333275,"velocity":0.8031496062992126,"duration":0.20182291666668561},{"name":"F#4","midi":66,"time":285.12630208333275,"velocity":0.8031496062992126,"duration":0.6106770833334281},{"name":"D#4","midi":63,"time":285.12630208333275,"velocity":0.8031496062992126,"duration":0.6106770833334281},{"name":"B4","midi":71,"time":285.12630208333275,"velocity":0.8031496062992126,"duration":0.6106770833334281},{"name":"C4","midi":60,"time":285.3307291666661,"velocity":0.8031496062992126,"duration":0.20182291666668561},{"name":"B3","midi":59,"time":285.5351562499995,"velocity":0.8031496062992126,"duration":0.20182291666668561},{"name":"A3","midi":57,"time":285.73958333333286,"velocity":0.8031496062992126,"duration":0.20182291666668561},{"name":"F#4","midi":66,"time":285.73958333333286,"velocity":0.8031496062992126,"duration":0.20182291666668561},{"name":"D#4","midi":63,"time":285.73958333333286,"velocity":0.8031496062992126,"duration":0.20182291666668561},{"name":"B4","midi":71,"time":285.73958333333286,"velocity":0.8031496062992126,"duration":0.20182291666668561},{"name":"G3","midi":55,"time":285.94401041666623,"velocity":0.8031496062992126,"duration":0.20182291666668561},{"name":"E4","midi":64,"time":285.94401041666623,"velocity":0.8031496062992126,"duration":0.40625000000005684},{"name":"B3","midi":59,"time":286.1484374999996,"velocity":0.8031496062992126,"duration":0.20182291666668561},{"name":"A3","midi":57,"time":286.352864583333,"velocity":0.8031496062992126,"duration":0.20182291666668561},{"name":"C5","midi":72,"time":286.352864583333,"velocity":0.8031496062992126,"duration":0.20182291666668561},{"name":"G3","midi":55,"time":286.55859374999966,"velocity":0.8031496062992126,"duration":0.20182291666668561},{"name":"B4","midi":71,"time":286.55859374999966,"velocity":0.8031496062992126,"duration":0.20182291666668561},{"name":"F#3","midi":54,"time":286.76302083333303,"velocity":0.8031496062992126,"duration":0.20182291666668561},{"name":"C5","midi":72,"time":286.76302083333303,"velocity":0.8031496062992126,"duration":0.20182291666668561},{"name":"E3","midi":52,"time":286.9674479166664,"velocity":0.8031496062992126,"duration":0.20182291666668561},{"name":"A4","midi":69,"time":286.9674479166664,"velocity":0.8031496062992126,"duration":0.20182291666668561},{"name":"C4","midi":60,"time":287.1718749999998,"velocity":0.8031496062992126,"duration":0.20182291666668561},{"name":"D#4","midi":63,"time":287.1718749999998,"velocity":0.8031496062992126,"duration":0.40625000000005684},{"name":"B3","midi":59,"time":287.37630208333314,"velocity":0.8031496062992126,"duration":0.20182291666668561},{"name":"A3","midi":57,"time":287.5807291666665,"velocity":0.8031496062992126,"duration":0.20182291666668561},{"name":"F#4","midi":66,"time":287.5807291666665,"velocity":0.8031496062992126,"duration":0.6106770833334281},{"name":"G3","midi":55,"time":287.7851562499999,"velocity":0.8031496062992126,"duration":0.20182291666668561},{"name":"F#3","midi":54,"time":287.98958333333326,"velocity":0.8031496062992126,"duration":0.20182291666668561},{"name":"E3","midi":52,"time":288.19531249999994,"velocity":0.8031496062992126,"duration":0.20182291666668561},{"name":"F#4","midi":66,"time":288.19531249999994,"velocity":0.8031496062992126,"duration":0.20182291666668561},{"name":"D#3","midi":51,"time":288.3997395833333,"velocity":0.8031496062992126,"duration":0.20182291666668561},{"name":"B3","midi":59,"time":288.3997395833333,"velocity":0.8031496062992126,"duration":0.40625000000005684},{"name":"C#3","midi":49,"time":288.6041666666667,"velocity":0.8031496062992126,"duration":0.20182291666668561},{"name":"B2","midi":47,"time":288.80859375000006,"velocity":0.8031496062992126,"duration":0.5963541666667425},{"name":"B4","midi":71,"time":288.80859375000006,"velocity":0.8031496062992126,"duration":0.20182291666668561},{"name":"A4","midi":69,"time":289.0130208333334,"velocity":0.8031496062992126,"duration":0.20182291666668561},{"name":"B4","midi":71,"time":289.2174479166668,"velocity":0.8031496062992126,"duration":0.20182291666668561},{"name":"F#4","midi":66,"time":289.42187500000017,"velocity":0.8031496062992126,"duration":0.20182291666668561},{"name":"G4","midi":67,"time":289.62760416666686,"velocity":0.8031496062992126,"duration":0.20182291666668561},{"name":"F#4","midi":66,"time":289.8320312500002,"velocity":0.8031496062992126,"duration":0.20182291666668561},{"name":"G4","midi":67,"time":290.0364583333336,"velocity":0.8031496062992126,"duration":0.20182291666668561},{"name":"E5","midi":76,"time":290.0364583333336,"velocity":0.8031496062992126,"duration":0.6106770833334281},{"name":"A4","midi":69,"time":290.24088541666697,"velocity":0.8031496062992126,"duration":0.20182291666668561},{"name":"G4","midi":67,"time":290.44531250000034,"velocity":0.8031496062992126,"duration":0.20182291666668561},{"name":"F#4","midi":66,"time":290.6497395833337,"velocity":0.8031496062992126,"duration":0.20182291666668561},{"name":"E5","midi":76,"time":290.6497395833337,"velocity":0.8031496062992126,"duration":0.20182291666668561},{"name":"E4","midi":64,"time":290.8541666666671,"velocity":0.8031496062992126,"duration":0.20182291666668561},{"name":"B4","midi":71,"time":290.8541666666671,"velocity":0.8031496062992126,"duration":0.40625},{"name":"D4","midi":62,"time":291.05989583333377,"velocity":0.8031496062992126,"duration":0.20182291666662877},{"name":"E4","midi":64,"time":291.2643229166671,"velocity":0.8031496062992126,"duration":0.20182291666668561},{"name":"G5","midi":79,"time":291.2643229166671,"velocity":0.8031496062992126,"duration":0.20182291666668561},{"name":"F#4","midi":66,"time":291.46875000000045,"velocity":0.8031496062992126,"duration":0.20182291666668561},{"name":"F#5","midi":78,"time":291.46875000000045,"velocity":0.8031496062992126,"duration":0.20182291666668561},{"name":"E4","midi":64,"time":291.6731770833338,"velocity":0.8031496062992126,"duration":0.20182291666668561},{"name":"G5","midi":79,"time":291.6731770833338,"velocity":0.8031496062992126,"duration":0.20182291666668561},{"name":"D4","midi":62,"time":291.8776041666672,"velocity":0.8031496062992126,"duration":0.20182291666668561},{"name":"E5","midi":76,"time":291.8776041666672,"velocity":0.8031496062992126,"duration":0.20182291666668561},{"name":"C#4","midi":61,"time":292.08203125000057,"velocity":0.8031496062992126,"duration":0.20182291666668561},{"name":"A#4","midi":70,"time":292.08203125000057,"velocity":0.8031496062992126,"duration":0.40625000000005684},{"name":"B3","midi":59,"time":292.28645833333394,"velocity":0.8031496062992126,"duration":0.20182291666668561},{"name":"C#4","midi":61,"time":292.4921875000006,"velocity":0.8031496062992126,"duration":0.20182291666668561},{"name":"C#5","midi":73,"time":292.4921875000006,"velocity":0.8031496062992126,"duration":0.6106770833334281},{"name":"D4","midi":62,"time":292.696614583334,"velocity":0.8031496062992126,"duration":0.20182291666668561},{"name":"C#4","midi":61,"time":292.90104166666737,"velocity":0.8031496062992126,"duration":0.20182291666668561},{"name":"B3","midi":59,"time":293.10546875000074,"velocity":0.8031496062992126,"duration":0.20182291666668561},{"name":"C#5","midi":73,"time":293.10546875000074,"velocity":0.8031496062992126,"duration":0.20182291666668561},{"name":"A#3","midi":58,"time":293.3098958333341,"velocity":0.8031496062992126,"duration":0.20182291666668561},{"name":"F#4","midi":66,"time":293.3098958333341,"velocity":0.8031496062992126,"duration":0.40625000000005684},{"name":"G#3","midi":56,"time":293.5143229166675,"velocity":0.8031496062992126,"duration":0.20182291666668561},{"name":"A#3","midi":58,"time":293.71875000000085,"velocity":0.8031496062992126,"duration":0.20182291666668561},{"name":"F#5","midi":78,"time":293.71875000000085,"velocity":0.8031496062992126,"duration":0.20182291666668561},{"name":"B3","midi":59,"time":293.92447916666754,"velocity":0.8031496062992126,"duration":0.20182291666668561},{"name":"E5","midi":76,"time":293.92447916666754,"velocity":0.8031496062992126,"duration":0.20182291666668561},{"name":"G#3","midi":56,"time":294.1289062500009,"velocity":0.8031496062992126,"duration":0.20182291666668561},{"name":"F#5","midi":78,"time":294.1289062500009,"velocity":0.8031496062992126,"duration":0.20182291666668561},{"name":"A#3","midi":58,"time":294.3333333333343,"velocity":0.8031496062992126,"duration":0.20182291666668561},{"name":"C#5","midi":73,"time":294.3333333333343,"velocity":0.8031496062992126,"duration":0.20182291666668561},{"name":"B3","midi":59,"time":294.53776041666765,"velocity":0.8031496062992126,"duration":0.40625000000005684},{"name":"D5","midi":74,"time":294.53776041666765,"velocity":0.8031496062992126,"duration":0.20182291666668561},{"name":"C#5","midi":73,"time":294.742187500001,"velocity":0.8031496062992126,"duration":0.20182291666668561},{"name":"B4","midi":71,"time":294.9466145833344,"velocity":0.8031496062992126,"duration":0.6106770833333712},{"name":"D5","midi":74,"time":294.9466145833344,"velocity":0.8031496062992126,"duration":0.20182291666668561},{"name":"E5","midi":76,"time":295.15104166666777,"velocity":0.8031496062992126,"duration":0.20182291666668561},{"name":"D5","midi":74,"time":295.35677083333445,"velocity":0.8031496062992126,"duration":0.20182291666662877},{"name":"A4","midi":69,"time":295.56119791666777,"velocity":0.8031496062992126,"duration":0.20182291666668561},{"name":"C5","midi":72,"time":295.56119791666777,"velocity":0.8031496062992126,"duration":0.20182291666668561},{"name":"G4","midi":67,"time":295.76562500000114,"velocity":0.8031496062992126,"duration":0.20182291666668561},{"name":"B4","midi":71,"time":295.76562500000114,"velocity":0.8031496062992126,"duration":0.40625000000005684},{"name":"F#4","midi":66,"time":295.9700520833345,"velocity":0.8031496062992126,"duration":0.20182291666668561},{"name":"G4","midi":67,"time":296.1744791666679,"velocity":0.8031496062992126,"duration":0.20182291666668561},{"name":"E5","midi":76,"time":296.1744791666679,"velocity":0.8031496062992126,"duration":0.6106770833334281},{"name":"A4","midi":69,"time":296.37890625000125,"velocity":0.8031496062992126,"duration":0.20182291666668561},{"name":"G4","midi":67,"time":296.5833333333346,"velocity":0.8031496062992126,"duration":0.20182291666668561},{"name":"F#4","midi":66,"time":296.7890625000013,"velocity":0.8031496062992126,"duration":0.20182291666668561},{"name":"D5","midi":74,"time":296.7890625000013,"velocity":0.8031496062992126,"duration":0.20182291666668561},{"name":"E4","midi":64,"time":296.9934895833347,"velocity":0.8031496062992126,"duration":0.40625000000005684},{"name":"C5","midi":72,"time":296.9934895833347,"velocity":0.8031496062992126,"duration":0.20182291666668561},{"name":"B4","midi":71,"time":297.19791666666805,"velocity":0.8031496062992126,"duration":0.20182291666668561},{"name":"A4","midi":69,"time":297.4023437500014,"velocity":0.8031496062992126,"duration":0.6106770833334281},{"name":"C5","midi":72,"time":297.4023437500014,"velocity":0.8031496062992126,"duration":0.20182291666668561},{"name":"D5","midi":74,"time":297.6067708333348,"velocity":0.8031496062992126,"duration":0.20182291666668561},{"name":"C5","midi":72,"time":297.81119791666816,"velocity":0.8031496062992126,"duration":0.20182291666668561},{"name":"G4","midi":67,"time":298.01562500000153,"velocity":0.8031496062992126,"duration":0.20182291666668561},{"name":"B4","midi":71,"time":298.01562500000153,"velocity":0.8031496062992126,"duration":0.20182291666668561},{"name":"F#4","midi":66,"time":298.2200520833349,"velocity":0.8031496062992126,"duration":0.20182291666668561},{"name":"A4","midi":69,"time":298.2200520833349,"velocity":0.8031496062992126,"duration":0.40625},{"name":"E4","midi":64,"time":298.4257812500016,"velocity":0.8031496062992126,"duration":0.20182291666662877},{"name":"F#4","midi":66,"time":298.6302083333349,"velocity":0.8031496062992126,"duration":0.20182291666668561},{"name":"A5","midi":81,"time":298.6302083333349,"velocity":0.8031496062992126,"duration":0.6106770833334281},{"name":"G4","midi":67,"time":298.8346354166683,"velocity":0.8031496062992126,"duration":0.20182291666668561},{"name":"F#4","midi":66,"time":299.03906250000165,"velocity":0.8031496062992126,"duration":0.20182291666668561},{"name":"E4","midi":64,"time":299.243489583335,"velocity":0.8031496062992126,"duration":0.20182291666668561},{"name":"A5","midi":81,"time":299.243489583335,"velocity":0.8031496062992126,"duration":0.20182291666668561},{"name":"D#4","midi":63,"time":299.4479166666684,"velocity":0.8031496062992126,"duration":0.40625000000005684},{"name":"A5","midi":81,"time":299.4479166666684,"velocity":0.8031496062992126,"duration":0.20182291666668561},{"name":"G5","midi":79,"time":299.65234375000176,"velocity":0.8031496062992126,"duration":0.20182291666668561},{"name":"D#4","midi":63,"time":299.85807291666845,"velocity":0.8031496062992126,"duration":0.6106770833334281},{"name":"B3","midi":59,"time":299.85807291666845,"velocity":0.8031496062992126,"duration":0.6106770833334281},{"name":"A5","midi":81,"time":299.85807291666845,"velocity":0.8031496062992126,"duration":0.20182291666668561},{"name":"C6","midi":84,"time":300.0625000000018,"velocity":0.8031496062992126,"duration":0.20182291666668561},{"name":"B5","midi":83,"time":300.2669270833352,"velocity":0.8031496062992126,"duration":0.20182291666668561},{"name":"B3","midi":59,"time":300.47135416666856,"velocity":0.8031496062992126,"duration":0.20182291666668561},{"name":"D#4","midi":63,"time":300.47135416666856,"velocity":0.8031496062992126,"duration":0.20182291666668561},{"name":"A5","midi":81,"time":300.47135416666856,"velocity":0.8031496062992126,"duration":0.20182291666668561},{"name":"E3","midi":52,"time":300.67578125000193,"velocity":0.8031496062992126,"duration":0.40625000000005684},{"name":"E4","midi":64,"time":300.67578125000193,"velocity":0.8031496062992126,"duration":0.8098958333334281},{"name":"G5","midi":79,"time":300.67578125000193,"velocity":0.8031496062992126,"duration":0.20182291666668561},{"name":"F#5","midi":78,"time":300.8802083333353,"velocity":0.8031496062992126,"duration":0.20182291666668561},{"name":"C4","midi":60,"time":301.0846354166687,"velocity":0.8031496062992126,"duration":0.20182291666668561},{"name":"G5","midi":79,"time":301.0846354166687,"velocity":0.8031496062992126,"duration":0.20182291666668561},{"name":"B3","midi":59,"time":301.29036458333536,"velocity":0.8031496062992126,"duration":0.20182291666668561},{"name":"B5","midi":83,"time":301.29036458333536,"velocity":0.8031496062992126,"duration":0.20182291666668561},{"name":"C4","midi":60,"time":301.49479166666873,"velocity":0.8031496062992126,"duration":0.20182291666668561},{"name":"A5","midi":81,"time":301.49479166666873,"velocity":0.8031496062992126,"duration":0.20182291666668561},{"name":"A3","midi":57,"time":301.6992187500021,"velocity":0.8031496062992126,"duration":0.20182291666668561},{"name":"G5","midi":79,"time":301.6992187500021,"velocity":0.8031496062992126,"duration":0.20182291666668561},{"name":"D#3","midi":51,"time":301.9036458333355,"velocity":0.8031496062992126,"duration":0.40625000000005684},{"name":"F#5","midi":78,"time":301.9036458333355,"velocity":0.8031496062992126,"duration":0.20182291666668561},{"name":"E5","midi":76,"time":302.10807291666885,"velocity":0.8031496062992126,"duration":0.20182291666668561},{"name":"A3","midi":57,"time":302.3125000000022,"velocity":0.8031496062992126,"duration":0.6106770833333712},{"name":"F#3","midi":54,"time":302.3125000000022,"velocity":0.8031496062992126,"duration":0.6106770833333712},{"name":"F#5","midi":78,"time":302.3125000000022,"velocity":0.8031496062992126,"duration":0.20182291666668561},{"name":"G5","midi":79,"time":302.5169270833356,"velocity":0.8031496062992126,"duration":0.20182291666668561},{"name":"F#5","midi":78,"time":302.7226562500023,"velocity":0.8031496062992126,"duration":0.20182291666662877},{"name":"F#3","midi":54,"time":302.9270833333356,"velocity":0.8031496062992126,"duration":0.20182291666668561},{"name":"A3","midi":57,"time":302.9270833333356,"velocity":0.8031496062992126,"duration":0.20182291666668561},{"name":"E5","midi":76,"time":302.9270833333356,"velocity":0.8031496062992126,"duration":0.20182291666668561},{"name":"B2","midi":47,"time":303.13151041666896,"velocity":0.8031496062992126,"duration":0.40625000000005684},{"name":"A3","midi":57,"time":303.13151041666896,"velocity":0.8031496062992126,"duration":0.40625000000005684},{"name":"F#3","midi":54,"time":303.13151041666896,"velocity":0.8031496062992126,"duration":0.40625000000005684},{"name":"D#5","midi":75,"time":303.13151041666896,"velocity":0.8031496062992126,"duration":0.20182291666668561},{"name":"C#5","midi":73,"time":303.33593750000233,"velocity":0.8031496062992126,"duration":0.20182291666668561},{"name":"B3","midi":59,"time":303.5403645833357,"velocity":0.8031496062992126,"duration":0.20182291666668561},{"name":"D#5","midi":75,"time":303.5403645833357,"velocity":0.8031496062992126,"duration":0.20182291666668561},{"name":"A3","midi":57,"time":303.7447916666691,"velocity":0.8031496062992126,"duration":0.20182291666668561},{"name":"E5","midi":76,"time":303.7447916666691,"velocity":0.8031496062992126,"duration":0.20182291666668561},{"name":"B3","midi":59,"time":303.94921875000244,"velocity":0.8031496062992126,"duration":0.20182291666668561},{"name":"C#5","midi":73,"time":303.94921875000244,"velocity":0.8031496062992126,"duration":0.20182291666668561},{"name":"F#3","midi":54,"time":304.15494791666913,"velocity":0.8031496062992126,"duration":0.20182291666668561},{"name":"D#5","midi":75,"time":304.15494791666913,"velocity":0.8031496062992126,"duration":0.20182291666668561},{"name":"G3","midi":55,"time":304.3593750000025,"velocity":0.8031496062992126,"duration":0.20182291666668561},{"name":"E5","midi":76,"time":304.3593750000025,"velocity":0.8031496062992126,"duration":0.20182291666668561},{"name":"A3","midi":57,"time":304.5638020833359,"velocity":0.8031496062992126,"duration":0.20182291666668561},{"name":"D#5","midi":75,"time":304.5638020833359,"velocity":0.8031496062992126,"duration":0.20182291666668561},{"name":"G3","midi":55,"time":304.76822916666924,"velocity":0.8031496062992126,"duration":0.20182291666668561},{"name":"E5","midi":76,"time":304.76822916666924,"velocity":0.8031496062992126,"duration":0.20182291666668561},{"name":"F#3","midi":54,"time":304.9726562500026,"velocity":0.8031496062992126,"duration":0.20182291666668561},{"name":"F#5","midi":78,"time":304.9726562500026,"velocity":0.8031496062992126,"duration":0.20182291666668561},{"name":"E3","midi":52,"time":305.177083333336,"velocity":0.8031496062992126,"duration":0.20182291666668561},{"name":"G5","midi":79,"time":305.177083333336,"velocity":0.8031496062992126,"duration":0.20182291666668561},{"name":"G3","midi":55,"time":305.38151041666936,"velocity":0.8031496062992126,"duration":0.20182291666668561},{"name":"E5","midi":76,"time":305.38151041666936,"velocity":0.8031496062992126,"duration":0.20182291666668561},{"name":"A3","midi":57,"time":305.58723958333604,"velocity":0.8031496062992126,"duration":0.20182291666668561},{"name":"C#5","midi":73,"time":305.58723958333604,"velocity":0.8031496062992126,"duration":0.20182291666668561},{"name":"G#3","midi":56,"time":305.7916666666694,"velocity":0.8031496062992126,"duration":0.20182291666668561},{"name":"D5","midi":74,"time":305.7916666666694,"velocity":0.8031496062992126,"duration":0.20182291666668561},{"name":"A3","midi":57,"time":305.9960937500028,"velocity":0.8031496062992126,"duration":0.20182291666668561},{"name":"C#5","midi":73,"time":305.9960937500028,"velocity":0.8031496062992126,"duration":0.20182291666668561},{"name":"B3","midi":59,"time":306.20052083333616,"velocity":0.8031496062992126,"duration":0.20182291666668561},{"name":"B4","midi":71,"time":306.20052083333616,"velocity":0.8031496062992126,"duration":0.20182291666668561},{"name":"C#4","midi":61,"time":306.4049479166695,"velocity":0.8031496062992126,"duration":0.20182291666668561},{"name":"A4","midi":69,"time":306.4049479166695,"velocity":0.8031496062992126,"duration":0.20182291666668561},{"name":"A3","midi":57,"time":306.6093750000029,"velocity":0.8031496062992126,"duration":0.20182291666668561},{"name":"C#5","midi":73,"time":306.6093750000029,"velocity":0.8031496062992126,"duration":0.20182291666668561},{"name":"F#3","midi":54,"time":306.81380208333627,"velocity":0.8031496062992126,"duration":0.20182291666668561},{"name":"D5","midi":74,"time":306.81380208333627,"velocity":0.8031496062992126,"duration":0.20182291666668561},{"name":"G3","midi":55,"time":307.01953125000296,"velocity":0.8031496062992126,"duration":0.20182291666668561},{"name":"C#5","midi":73,"time":307.01953125000296,"velocity":0.8031496062992126,"duration":0.20182291666668561},{"name":"F#3","midi":54,"time":307.2239583333363,"velocity":0.8031496062992126,"duration":0.20182291666668561},{"name":"D5","midi":74,"time":307.2239583333363,"velocity":0.8031496062992126,"duration":0.20182291666668561},{"name":"E3","midi":52,"time":307.4283854166697,"velocity":0.8031496062992126,"duration":0.20182291666668561},{"name":"E5","midi":76,"time":307.4283854166697,"velocity":0.8031496062992126,"duration":0.20182291666668561},{"name":"D3","midi":50,"time":307.63281250000307,"velocity":0.8031496062992126,"duration":0.20182291666668561},{"name":"F#5","midi":78,"time":307.63281250000307,"velocity":0.8031496062992126,"duration":0.20182291666668561},{"name":"F#3","midi":54,"time":307.83723958333644,"velocity":0.8031496062992126,"duration":0.20182291666668561},{"name":"D5","midi":74,"time":307.83723958333644,"velocity":0.8031496062992126,"duration":0.20182291666668561},{"name":"G3","midi":55,"time":308.0416666666698,"velocity":0.8031496062992126,"duration":0.20182291666668561},{"name":"B4","midi":71,"time":308.0416666666698,"velocity":0.8031496062992126,"duration":0.20182291666668561},{"name":"F#3","midi":54,"time":308.2460937500032,"velocity":0.8031496062992126,"duration":0.20182291666668561},{"name":"C5","midi":72,"time":308.2460937500032,"velocity":0.8031496062992126,"duration":0.20182291666668561},{"name":"G3","midi":55,"time":308.45052083333655,"velocity":0.8031496062992126,"duration":0.20182291666668561},{"name":"B4","midi":71,"time":308.45052083333655,"velocity":0.8031496062992126,"duration":0.20182291666668561},{"name":"A3","midi":57,"time":308.65625000000324,"velocity":0.8031496062992126,"duration":0.20182291666668561},{"name":"A4","midi":69,"time":308.65625000000324,"velocity":0.8031496062992126,"duration":0.20182291666668561},{"name":"B3","midi":59,"time":308.8606770833366,"velocity":0.8031496062992126,"duration":0.20182291666668561},{"name":"G4","midi":67,"time":308.8606770833366,"velocity":0.8031496062992126,"duration":0.20182291666668561},{"name":"G3","midi":55,"time":309.06510416667,"velocity":0.8031496062992126,"duration":0.20182291666668561},{"name":"B4","midi":71,"time":309.06510416667,"velocity":0.8031496062992126,"duration":0.20182291666668561},{"name":"E3","midi":52,"time":309.26953125000335,"velocity":0.8031496062992126,"duration":0.20182291666668561},{"name":"C#5","midi":73,"time":309.26953125000335,"velocity":0.8031496062992126,"duration":0.20182291666668561},{"name":"F#3","midi":54,"time":309.4739583333367,"velocity":0.8031496062992126,"duration":0.20182291666668561},{"name":"B4","midi":71,"time":309.4739583333367,"velocity":0.8031496062992126,"duration":0.20182291666668561},{"name":"E3","midi":52,"time":309.6783854166701,"velocity":0.8031496062992126,"duration":0.20182291666668561},{"name":"C#5","midi":73,"time":309.6783854166701,"velocity":0.8031496062992126,"duration":0.20182291666668561},{"name":"D3","midi":50,"time":309.88281250000347,"velocity":0.8031496062992126,"duration":0.20182291666668561},{"name":"D5","midi":74,"time":309.88281250000347,"velocity":0.8031496062992126,"duration":0.20182291666668561},{"name":"C#3","midi":49,"time":310.08854166667015,"velocity":0.8031496062992126,"duration":0.20182291666668561},{"name":"E5","midi":76,"time":310.08854166667015,"velocity":0.8031496062992126,"duration":0.20182291666668561},{"name":"E3","midi":52,"time":310.2929687500035,"velocity":0.8031496062992126,"duration":0.20182291666668561},{"name":"C#5","midi":73,"time":310.2929687500035,"velocity":0.8031496062992126,"duration":0.20182291666668561},{"name":"F#3","midi":54,"time":310.4973958333369,"velocity":0.8031496062992126,"duration":0.20182291666668561},{"name":"A#4","midi":70,"time":310.4973958333369,"velocity":0.8031496062992126,"duration":0.20182291666668561},{"name":"G3","midi":55,"time":310.70182291667027,"velocity":0.8031496062992126,"duration":0.20182291666668561},{"name":"B4","midi":71,"time":310.70182291667027,"velocity":0.8031496062992126,"duration":0.20182291666668561},{"name":"F#3","midi":54,"time":310.90625000000364,"velocity":0.8031496062992126,"duration":0.20182291666668561},{"name":"A#4","midi":70,"time":310.90625000000364,"velocity":0.8031496062992126,"duration":0.20182291666668561},{"name":"E3","midi":52,"time":311.110677083337,"velocity":0.8031496062992126,"duration":0.20182291666668561},{"name":"G#4","midi":68,"time":311.110677083337,"velocity":0.8031496062992126,"duration":0.20182291666668561},{"name":"D3","midi":50,"time":311.3151041666704,"velocity":0.8031496062992126,"duration":0.20182291666668561},{"name":"F#4","midi":66,"time":311.3151041666704,"velocity":0.8031496062992126,"duration":0.20182291666668561},{"name":"C#3","midi":49,"time":311.52083333333707,"velocity":0.8031496062992126,"duration":0.20182291666668561},{"name":"A#4","midi":70,"time":311.52083333333707,"velocity":0.8031496062992126,"duration":0.20182291666668561},{"name":"D3","midi":50,"time":311.72526041667044,"velocity":0.8031496062992126,"duration":0.20182291666668561},{"name":"B4","midi":71,"time":311.72526041667044,"velocity":0.8031496062992126,"duration":0.20182291666668561},{"name":"E3","midi":52,"time":311.9296875000038,"velocity":0.8031496062992126,"duration":0.20182291666668561},{"name":"A#4","midi":70,"time":311.9296875000038,"velocity":0.8031496062992126,"duration":0.20182291666668561},{"name":"D3","midi":50,"time":312.1341145833372,"velocity":0.8031496062992126,"duration":0.20182291666668561},{"name":"B4","midi":71,"time":312.1341145833372,"velocity":0.8031496062992126,"duration":0.20182291666668561},{"name":"F#4","midi":66,"time":312.1341145833372,"velocity":0.8031496062992126,"duration":0.5963541666667425},{"name":"C#3","midi":49,"time":312.33854166667055,"velocity":0.8031496062992126,"duration":0.20182291666668561},{"name":"C#5","midi":73,"time":312.33854166667055,"velocity":0.8031496062992126,"duration":0.20182291666668561},{"name":"B2","midi":47,"time":312.5429687500039,"velocity":0.8031496062992126,"duration":0.20182291666668561},{"name":"D5","midi":74,"time":312.5429687500039,"velocity":0.8031496062992126,"duration":0.20182291666668561},{"name":"D3","midi":50,"time":312.7473958333373,"velocity":0.8031496062992126,"duration":0.20182291666668561},{"name":"B4","midi":71,"time":312.7473958333373,"velocity":0.8031496062992126,"duration":0.20182291666668561},{"name":"F#4","midi":66,"time":312.7473958333373,"velocity":0.8031496062992126,"duration":0.20182291666668561},{"name":"E3","midi":52,"time":312.953125000004,"velocity":0.8031496062992126,"duration":0.20182291666668561},{"name":"G4","midi":67,"time":312.953125000004,"velocity":0.8031496062992126,"duration":0.40625000000005684},{"name":"B3","midi":59,"time":312.953125000004,"velocity":0.8031496062992126,"duration":0.8098958333334281},{"name":"D3","midi":50,"time":313.15755208333735,"velocity":0.8031496062992126,"duration":0.20182291666668561},{"name":"E3","midi":52,"time":313.3619791666707,"velocity":0.8031496062992126,"duration":0.20182291666668561},{"name":"G4","midi":67,"time":313.3619791666707,"velocity":0.8031496062992126,"duration":0.20182291666668561},{"name":"F#3","midi":54,"time":313.5664062500041,"velocity":0.8031496062992126,"duration":0.20182291666662877},{"name":"F#4","midi":66,"time":313.5664062500041,"velocity":0.8031496062992126,"duration":0.20182291666662877},{"name":"E3","midi":52,"time":313.7708333333374,"velocity":0.8031496062992126,"duration":0.20182291666668561},{"name":"G4","midi":67,"time":313.7708333333374,"velocity":0.8031496062992126,"duration":0.20182291666668561},{"name":"D3","midi":50,"time":313.9752604166708,"velocity":0.8031496062992126,"duration":0.20182291666668561},{"name":"E4","midi":64,"time":313.9752604166708,"velocity":0.8031496062992126,"duration":0.20182291666668561},{"name":"C#3","midi":49,"time":314.17968750000415,"velocity":0.8031496062992126,"duration":0.20182291666668561},{"name":"A#3","midi":58,"time":314.17968750000415,"velocity":0.8031496062992126,"duration":0.40625},{"name":"B2","midi":47,"time":314.38541666667084,"velocity":0.8031496062992126,"duration":0.20182291666662877},{"name":"C#3","midi":49,"time":314.58984375000415,"velocity":0.8031496062992126,"duration":0.20182291666668561},{"name":"E4","midi":64,"time":314.58984375000415,"velocity":0.8031496062992126,"duration":0.6106770833334281},{"name":"C#4","midi":61,"time":314.58984375000415,"velocity":0.8031496062992126,"duration":0.6106770833334281},{"name":"D3","midi":50,"time":314.7942708333375,"velocity":0.8031496062992126,"duration":0.20182291666668561},{"name":"C#3","midi":49,"time":314.9986979166709,"velocity":0.8031496062992126,"duration":0.20182291666668561},{"name":"B2","midi":47,"time":315.20312500000426,"velocity":0.8031496062992126,"duration":0.20182291666668561},{"name":"C#4","midi":61,"time":315.20312500000426,"velocity":0.8031496062992126,"duration":0.20182291666668561},{"name":"E4","midi":64,"time":315.20312500000426,"velocity":0.8031496062992126,"duration":0.20182291666668561},{"name":"A#2","midi":46,"time":315.40755208333763,"velocity":0.8031496062992126,"duration":0.20182291666668561},{"name":"C#4","midi":61,"time":315.40755208333763,"velocity":0.8031496062992126,"duration":0.40625000000005684},{"name":"F#3","midi":54,"time":315.40755208333763,"velocity":0.8031496062992126,"duration":1.0221354166667993},{"name":"E4","midi":64,"time":315.40755208333763,"velocity":0.8031496062992126,"duration":0.40625000000005684},{"name":"G#2","midi":44,"time":315.611979166671,"velocity":0.8031496062992126,"duration":0.20182291666668561},{"name":"A#2","midi":46,"time":315.8177083333377,"velocity":0.8031496062992126,"duration":0.20182291666668561},{"name":"F#4","midi":66,"time":315.8177083333377,"velocity":0.8031496062992126,"duration":0.20182291666668561},{"name":"B2","midi":47,"time":316.02213541667106,"velocity":0.8031496062992126,"duration":0.20182291666668561},{"name":"E4","midi":64,"time":316.02213541667106,"velocity":0.8031496062992126,"duration":0.20182291666668561},{"name":"G#2","midi":44,"time":316.22656250000443,"velocity":0.8031496062992126,"duration":0.20182291666668561},{"name":"F#4","midi":66,"time":316.22656250000443,"velocity":0.8031496062992126,"duration":0.20182291666668561},{"name":"A#2","midi":46,"time":316.43098958333775,"velocity":0.8031496062992126,"duration":0.20182291666668561},{"name":"C#4","midi":61,"time":316.43098958333775,"velocity":0.8031496062992126,"duration":0.20182291666668561},{"name":"B2","midi":47,"time":316.6354166666711,"velocity":0.8031496062992126,"duration":0.40625},{"name":"D4","midi":62,"time":316.6354166666711,"velocity":0.8031496062992126,"duration":0.5963541666666856},{"name":"F#4","midi":66,"time":316.83984375000443,"velocity":0.8031496062992126,"duration":0.20182291666668561},{"name":"B3","midi":59,"time":317.0442708333378,"velocity":0.8031496062992126,"duration":0.40625},{"name":"B4","midi":71,"time":317.0442708333378,"velocity":0.8031496062992126,"duration":0.5963541666666856},{"name":"F#4","midi":66,"time":317.2500000000045,"velocity":0.8031496062992126,"duration":0.20182291666662877},{"name":"B2","midi":47,"time":317.4544270833378,"velocity":0.8031496062992126,"duration":0.40625000000005684},{"name":"E4","midi":64,"time":317.4544270833378,"velocity":0.8031496062992126,"duration":0.20182291666668561},{"name":"D4","midi":62,"time":317.6588541666712,"velocity":0.8031496062992126,"duration":0.20182291666668561},{"name":"B2","midi":47,"time":317.86328125000455,"velocity":0.8031496062992126,"duration":0.4088541666666856},{"name":"E4","midi":64,"time":317.86328125000455,"velocity":0.8031496062992126,"duration":0.5989583333333712},{"name":"A#4","midi":70,"time":318.06770833333786,"velocity":0.8031496062992126,"duration":0.10026041666668561},{"name":"B4","midi":71,"time":318.17057291667123,"velocity":0.8031496062992126,"duration":0.10026041666668561},{"name":"B3","midi":59,"time":318.2747395833379,"velocity":0.8031496062992126,"duration":0.40625},{"name":"C#5","midi":73,"time":318.2747395833379,"velocity":0.8031496062992126,"duration":0.5963541666666856},{"name":"G4","midi":67,"time":318.47916666667123,"velocity":0.8031496062992126,"duration":0.20182291666668561},{"name":"B2","midi":47,"time":318.6835937500046,"velocity":0.8031496062992126,"duration":0.40625000000005684},{"name":"F#4","midi":66,"time":318.6835937500046,"velocity":0.8031496062992126,"duration":0.20182291666668561},{"name":"E4","midi":64,"time":318.888020833338,"velocity":0.8031496062992126,"duration":0.20182291666668561},{"name":"B2","midi":47,"time":319.09244791667135,"velocity":0.8031496062992126,"duration":0.40885416666674246},{"name":"F#4","midi":66,"time":319.09244791667135,"velocity":0.8031496062992126,"duration":0.5989583333334281},{"name":"B4","midi":71,"time":319.29817708333803,"velocity":0.8031496062992126,"duration":0.10026041666668561},{"name":"C#5","midi":73,"time":319.4010416666714,"velocity":0.8031496062992126,"duration":0.10026041666668561},{"name":"B3","midi":59,"time":319.5039062500048,"velocity":0.8031496062992126,"duration":0.40625},{"name":"D5","midi":74,"time":319.5039062500048,"velocity":0.8031496062992126,"duration":0.5963541666666856},{"name":"A4","midi":69,"time":319.7083333333381,"velocity":0.8031496062992126,"duration":0.20182291666668561},{"name":"B2","midi":47,"time":319.9140625000048,"velocity":0.8031496062992126,"duration":0.40625000000005684},{"name":"G4","midi":67,"time":319.9140625000048,"velocity":0.8031496062992126,"duration":0.20182291666668561},{"name":"F#4","midi":66,"time":320.11848958333815,"velocity":0.8031496062992126,"duration":0.20182291666668561},{"name":"B2","midi":47,"time":320.3229166666715,"velocity":0.8031496062992126,"duration":0.4088541666666856},{"name":"G4","midi":67,"time":320.3229166666715,"velocity":0.8031496062992126,"duration":0.5989583333333712},{"name":"C#5","midi":73,"time":320.52734375000483,"velocity":0.8031496062992126,"duration":0.10026041666668561},{"name":"D5","midi":74,"time":320.6302083333382,"velocity":0.8031496062992126,"duration":0.10026041666668561},{"name":"B3","midi":59,"time":320.7343750000049,"velocity":0.8031496062992126,"duration":0.40625},{"name":"E5","midi":76,"time":320.7343750000049,"velocity":0.8031496062992126,"duration":0.5963541666666856},{"name":"D5","midi":74,"time":320.9388020833382,"velocity":0.8031496062992126,"duration":0.20182291666668561},{"name":"B2","midi":47,"time":321.1432291666716,"velocity":0.8031496062992126,"duration":0.40625000000005684},{"name":"C#5","midi":73,"time":321.1432291666716,"velocity":0.8031496062992126,"duration":0.20182291666668561},{"name":"B4","midi":71,"time":321.34765625000495,"velocity":0.8031496062992126,"duration":0.20182291666668561},{"name":"B2","midi":47,"time":321.5520833333383,"velocity":0.8031496062992126,"duration":0.40625},{"name":"A#4","midi":70,"time":321.5520833333383,"velocity":0.8031496062992126,"duration":0.8098958333333712},{"name":"C#5","midi":73,"time":321.75651041667163,"velocity":0.8031496062992126,"duration":0.20182291666668561},{"name":"B3","midi":59,"time":321.9622395833383,"velocity":0.8031496062992126,"duration":0.40625000000005684},{"name":"E5","midi":76,"time":321.9622395833383,"velocity":0.8031496062992126,"duration":0.20182291666668561},{"name":"G5","midi":79,"time":322.1666666666717,"velocity":0.8031496062992126,"duration":0.20182291666668561},{"name":"B2","midi":47,"time":322.37109375000506,"velocity":0.8031496062992126,"duration":0.40625000000005684},{"name":"F#5","midi":78,"time":322.37109375000506,"velocity":0.8031496062992126,"duration":0.20182291666668561},{"name":"E5","midi":76,"time":322.57552083333843,"velocity":0.8031496062992126,"duration":0.20182291666668561},{"name":"B3","midi":59,"time":322.7799479166718,"velocity":0.8031496062992126,"duration":0.20182291666668561},{"name":"D5","midi":74,"time":322.7799479166718,"velocity":0.8031496062992126,"duration":1.2252604166668561},{"name":"A#3","midi":58,"time":322.9843750000052,"velocity":0.8031496062992126,"duration":0.20182291666668561},{"name":"C#5","midi":73,"time":322.9843750000052,"velocity":0.8031496062992126,"duration":0.20182291666668561},{"name":"B3","midi":59,"time":323.18880208333854,"velocity":0.8031496062992126,"duration":0.20182291666668561},{"name":"B4","midi":71,"time":323.18880208333854,"velocity":0.8031496062992126,"duration":0.20182291666668561},{"name":"C#4","midi":61,"time":323.39453125000523,"velocity":0.8031496062992126,"duration":0.20182291666668561},{"name":"A#4","midi":70,"time":323.39453125000523,"velocity":0.8031496062992126,"duration":0.20182291666668561},{"name":"D4","midi":62,"time":323.5989583333386,"velocity":0.8031496062992126,"duration":0.20182291666668561},{"name":"B4","midi":71,"time":323.5989583333386,"velocity":0.8031496062992126,"duration":0.20182291666668561},{"name":"B3","midi":59,"time":323.803385416672,"velocity":0.8031496062992126,"duration":0.20182291666668561},{"name":"F#4","midi":66,"time":323.803385416672,"velocity":0.8031496062992126,"duration":0.20182291666668561},{"name":"E4","midi":64,"time":324.00781250000534,"velocity":0.8031496062992126,"duration":0.20182291666668561},{"name":"G#4","midi":68,"time":324.00781250000534,"velocity":0.8031496062992126,"duration":0.8098958333334281},{"name":"F4","midi":65,"time":324.2122395833387,"velocity":0.8031496062992126,"duration":0.20182291666668561},{"name":"B4","midi":71,"time":324.2122395833387,"velocity":0.8031496062992126,"duration":0.20182291666668561},{"name":"E4","midi":64,"time":324.4166666666721,"velocity":0.8031496062992126,"duration":0.20182291666668561},{"name":"D5","midi":74,"time":324.4166666666721,"velocity":0.8031496062992126,"duration":0.20182291666668561},{"name":"D4","midi":62,"time":324.62109375000546,"velocity":0.8031496062992126,"duration":0.20182291666662877},{"name":"F5","midi":77,"time":324.62109375000546,"velocity":0.8031496062992126,"duration":0.20182291666662877},{"name":"C4","midi":60,"time":324.8268229166721,"velocity":0.8031496062992126,"duration":0.20182291666668561},{"name":"E5","midi":76,"time":324.8268229166721,"velocity":0.8031496062992126,"duration":0.20182291666668561},{"name":"B3","midi":59,"time":325.03125000000546,"velocity":0.8031496062992126,"duration":0.20182291666668561},{"name":"D5","midi":74,"time":325.03125000000546,"velocity":0.8031496062992126,"duration":0.20182291666668561},{"name":"A3","midi":57,"time":325.2356770833388,"velocity":0.8031496062992126,"duration":0.20182291666668561},{"name":"C5","midi":72,"time":325.2356770833388,"velocity":0.8031496062992126,"duration":1.2252604166668561},{"name":"G#3","midi":56,"time":325.4401041666722,"velocity":0.8031496062992126,"duration":0.20182291666668561},{"name":"B4","midi":71,"time":325.4401041666722,"velocity":0.8031496062992126,"duration":0.20182291666668561},{"name":"A3","midi":57,"time":325.64453125000557,"velocity":0.8031496062992126,"duration":0.20182291666668561},{"name":"A4","midi":69,"time":325.64453125000557,"velocity":0.8031496062992126,"duration":0.20182291666668561},{"name":"B3","midi":59,"time":325.84895833333894,"velocity":0.8031496062992126,"duration":0.20182291666668561},{"name":"G#4","midi":68,"time":325.84895833333894,"velocity":0.8031496062992126,"duration":0.20182291666668561},{"name":"C4","midi":60,"time":326.0533854166723,"velocity":0.8031496062992126,"duration":0.20182291666668561},{"name":"A4","midi":69,"time":326.0533854166723,"velocity":0.8031496062992126,"duration":0.20182291666668561},{"name":"A3","midi":57,"time":326.259114583339,"velocity":0.8031496062992126,"duration":0.20182291666668561},{"name":"E4","midi":64,"time":326.259114583339,"velocity":0.8031496062992126,"duration":0.20182291666668561},{"name":"D4","midi":62,"time":326.46354166667237,"velocity":0.8031496062992126,"duration":0.20182291666668561},{"name":"F#4","midi":66,"time":326.46354166667237,"velocity":0.8031496062992126,"duration":0.8098958333334281},{"name":"E4","midi":64,"time":326.66796875000574,"velocity":0.8031496062992126,"duration":0.20182291666668561},{"name":"A4","midi":69,"time":326.66796875000574,"velocity":0.8031496062992126,"duration":0.20182291666668561},{"name":"D4","midi":62,"time":326.8723958333391,"velocity":0.8031496062992126,"duration":0.20182291666668561},{"name":"C5","midi":72,"time":326.8723958333391,"velocity":0.8031496062992126,"duration":0.20182291666668561},{"name":"C4","midi":60,"time":327.0768229166725,"velocity":0.8031496062992126,"duration":0.20182291666662877},{"name":"E5","midi":76,"time":327.0768229166725,"velocity":0.8031496062992126,"duration":0.20182291666662877},{"name":"B3","midi":59,"time":327.2812500000058,"velocity":0.8031496062992126,"duration":0.20182291666668561},{"name":"D5","midi":74,"time":327.2812500000058,"velocity":0.8031496062992126,"duration":0.20182291666668561},{"name":"A3","midi":57,"time":327.48567708333917,"velocity":0.8031496062992126,"duration":0.20182291666668561},{"name":"C5","midi":72,"time":327.48567708333917,"velocity":0.8031496062992126,"duration":0.20182291666668561},{"name":"G3","midi":55,"time":327.69140625000585,"velocity":0.8031496062992126,"duration":0.20182291666668561},{"name":"B4","midi":71,"time":327.69140625000585,"velocity":0.8031496062992126,"duration":1.2252604166668561},{"name":"F#3","midi":54,"time":327.8958333333392,"velocity":0.8031496062992126,"duration":0.20182291666668561},{"name":"A4","midi":69,"time":327.8958333333392,"velocity":0.8031496062992126,"duration":0.20182291666668561},{"name":"G3","midi":55,"time":328.1002604166726,"velocity":0.8031496062992126,"duration":0.20182291666668561},{"name":"G4","midi":67,"time":328.1002604166726,"velocity":0.8031496062992126,"duration":0.20182291666668561},{"name":"A3","midi":57,"time":328.30468750000597,"velocity":0.8031496062992126,"duration":0.20182291666668561},{"name":"F#4","midi":66,"time":328.30468750000597,"velocity":0.8031496062992126,"duration":0.20182291666668561},{"name":"B3","midi":59,"time":328.50911458333934,"velocity":0.8031496062992126,"duration":0.20182291666668561},{"name":"G4","midi":67,"time":328.50911458333934,"velocity":0.8031496062992126,"duration":0.20182291666668561},{"name":"G3","midi":55,"time":328.7135416666727,"velocity":0.8031496062992126,"duration":0.20182291666668561},{"name":"D#4","midi":63,"time":328.7135416666727,"velocity":0.8031496062992126,"duration":0.20182291666668561},{"name":"C4","midi":60,"time":328.917968750006,"velocity":0.8031496062992126,"duration":0.20182291666668561},{"name":"E4","midi":64,"time":328.917968750006,"velocity":0.8031496062992126,"duration":0.8098958333334281},{"name":"D4","midi":62,"time":329.1223958333394,"velocity":0.8031496062992126,"duration":0.20182291666668561},{"name":"G4","midi":67,"time":329.1223958333394,"velocity":0.8031496062992126,"duration":0.20182291666668561},{"name":"C4","midi":60,"time":329.3281250000061,"velocity":0.8031496062992126,"duration":0.20182291666668561},{"name":"B4","midi":71,"time":329.3281250000061,"velocity":0.8031496062992126,"duration":0.20182291666668561},{"name":"B3","midi":59,"time":329.53255208333945,"velocity":0.8031496062992126,"duration":0.20182291666668561},{"name":"D5","midi":74,"time":329.53255208333945,"velocity":0.8031496062992126,"duration":0.20182291666668561},{"name":"A3","midi":57,"time":329.7369791666728,"velocity":0.8031496062992126,"duration":0.20182291666668561},{"name":"C5","midi":72,"time":329.7369791666728,"velocity":0.8031496062992126,"duration":0.20182291666668561},{"name":"G3","midi":55,"time":329.9414062500062,"velocity":0.8031496062992126,"duration":0.20182291666668561},{"name":"B4","midi":71,"time":329.9414062500062,"velocity":0.8031496062992126,"duration":0.20182291666668561},{"name":"F#3","midi":54,"time":330.14583333333957,"velocity":0.8031496062992126,"duration":0.20182291666668561},{"name":"A4","midi":69,"time":330.14583333333957,"velocity":0.8031496062992126,"duration":0.8098958333334281},{"name":"E3","midi":52,"time":330.35026041667294,"velocity":0.8031496062992126,"duration":0.20182291666668561},{"name":"G4","midi":67,"time":330.35026041667294,"velocity":0.8031496062992126,"duration":0.20182291666668561},{"name":"F#3","midi":54,"time":330.5546875000063,"velocity":0.8031496062992126,"duration":0.20182291666668561},{"name":"F#4","midi":66,"time":330.5546875000063,"velocity":0.8031496062992126,"duration":0.20182291666668561},{"name":"G3","midi":55,"time":330.760416666673,"velocity":0.8031496062992126,"duration":0.20182291666668561},{"name":"E4","midi":64,"time":330.760416666673,"velocity":0.8031496062992126,"duration":0.20182291666668561},{"name":"A3","midi":57,"time":330.96484375000637,"velocity":0.8031496062992126,"duration":0.20182291666668561},{"name":"F#4","midi":66,"time":330.96484375000637,"velocity":0.8031496062992126,"duration":0.20182291666668561},{"name":"F#3","midi":54,"time":331.16927083333974,"velocity":0.8031496062992126,"duration":0.20182291666668561},{"name":"C#4","midi":61,"time":331.16927083333974,"velocity":0.8031496062992126,"duration":0.20182291666668561},{"name":"B3","midi":59,"time":331.3736979166731,"velocity":0.8031496062992126,"duration":0.20182291666668561},{"name":"D#4","midi":63,"time":331.3736979166731,"velocity":0.8031496062992126,"duration":0.40625000000005684},{"name":"F#3","midi":54,"time":331.5781250000065,"velocity":0.8031496062992126,"duration":0.20182291666668561},{"name":"A3","midi":57,"time":331.78255208333985,"velocity":0.8031496062992126,"duration":0.20182291666668561},{"name":"D#5","midi":75,"time":331.78255208333985,"velocity":0.8031496062992126,"duration":0.8098958333333712},{"name":"B5","midi":83,"time":331.78255208333985,"velocity":0.8031496062992126,"duration":0.6106770833333712},{"name":"F#5","midi":78,"time":331.78255208333985,"velocity":0.8031496062992126,"duration":0.8098958333333712},{"name":"C4","midi":60,"time":331.9869791666732,"velocity":0.8031496062992126,"duration":0.20182291666668561},{"name":"B3","midi":59,"time":332.1927083333399,"velocity":0.8031496062992126,"duration":0.20182291666662877},{"name":"A3","midi":57,"time":332.3971354166732,"velocity":0.8031496062992126,"duration":0.20182291666668561},{"name":"B5","midi":83,"time":332.3971354166732,"velocity":0.8031496062992126,"duration":0.20182291666668561},{"name":"G3","midi":55,"time":332.6015625000066,"velocity":0.8031496062992126,"duration":0.20182291666668561},{"name":"B4","midi":71,"time":332.6015625000066,"velocity":0.8031496062992126,"duration":0.40625000000005684},{"name":"E5","midi":76,"time":332.6015625000066,"velocity":0.8031496062992126,"duration":0.40625000000005684},{"name":"F#3","midi":54,"time":332.80598958333997,"velocity":0.8031496062992126,"duration":0.20182291666668561},{"name":"G3","midi":55,"time":333.01041666667334,"velocity":0.8031496062992126,"duration":0.20182291666668561},{"name":"E5","midi":76,"time":333.01041666667334,"velocity":0.8031496062992126,"duration":0.8098958333334281},{"name":"C6","midi":84,"time":333.01041666667334,"velocity":0.8031496062992126,"duration":0.20182291666668561},{"name":"A5","midi":81,"time":333.01041666667334,"velocity":0.8031496062992126,"duration":0.20182291666668561},{"name":"B3","midi":59,"time":333.2148437500067,"velocity":0.8031496062992126,"duration":0.20182291666668561},{"name":"B5","midi":83,"time":333.2148437500067,"velocity":0.8031496062992126,"duration":0.20182291666668561},{"name":"A3","midi":57,"time":333.4192708333401,"velocity":0.8031496062992126,"duration":0.20182291666668561},{"name":"C6","midi":84,"time":333.4192708333401,"velocity":0.8031496062992126,"duration":0.20182291666668561},{"name":"G3","midi":55,"time":333.62500000000676,"velocity":0.8031496062992126,"duration":0.20182291666668561},{"name":"A5","midi":81,"time":333.62500000000676,"velocity":0.8031496062992126,"duration":0.20182291666668561},{"name":"F#3","midi":54,"time":333.82942708334014,"velocity":0.8031496062992126,"duration":0.20182291666668561},{"name":"D#5","midi":75,"time":333.82942708334014,"velocity":0.8031496062992126,"duration":0.40625000000005684},{"name":"E3","midi":52,"time":334.0338541666735,"velocity":0.8031496062992126,"duration":0.20182291666668561},{"name":"F#3","midi":54,"time":334.2382812500069,"velocity":0.8031496062992126,"duration":0.20182291666668561},{"name":"A4","midi":69,"time":334.2382812500069,"velocity":0.8031496062992126,"duration":0.8098958333334281},{"name":"F#5","midi":78,"time":334.2382812500069,"velocity":0.8031496062992126,"duration":0.6106770833334281},{"name":"C5","midi":72,"time":334.2382812500069,"velocity":0.8031496062992126,"duration":0.8098958333334281},{"name":"G3","midi":55,"time":334.44270833334025,"velocity":0.8031496062992126,"duration":0.20182291666668561},{"name":"F#3","midi":54,"time":334.6471354166736,"velocity":0.8031496062992126,"duration":0.20182291666668561},{"name":"E3","midi":52,"time":334.851562500007,"velocity":0.8031496062992126,"duration":0.20182291666662877},{"name":"F#5","midi":78,"time":334.851562500007,"velocity":0.8031496062992126,"duration":0.20182291666662877},{"name":"D#3","midi":51,"time":335.0572916666736,"velocity":0.8031496062992126,"duration":0.20182291666668561},{"name":"B4","midi":71,"time":335.0572916666736,"velocity":0.8031496062992126,"duration":0.40625000000005684},{"name":"C#3","midi":49,"time":335.261718750007,"velocity":0.8031496062992126,"duration":0.20182291666668561},{"name":"D#3","midi":51,"time":335.46614583334036,"velocity":0.8031496062992126,"duration":0.20182291666668561},{"name":"F#5","midi":78,"time":335.46614583334036,"velocity":0.8031496062992126,"duration":0.20182291666668561},{"name":"B4","midi":71,"time":335.46614583334036,"velocity":0.8031496062992126,"duration":0.8098958333334281},{"name":"B5","midi":83,"time":335.46614583334036,"velocity":0.8031496062992126,"duration":0.20182291666668561},{"name":"E3","midi":52,"time":335.67057291667373,"velocity":0.8031496062992126,"duration":0.20182291666668561},{"name":"A5","midi":81,"time":335.67057291667373,"velocity":0.8031496062992126,"duration":0.20182291666668561},{"name":"C#3","midi":49,"time":335.8750000000071,"velocity":0.8031496062992126,"duration":0.20182291666668561},{"name":"B5","midi":83,"time":335.8750000000071,"velocity":0.8031496062992126,"duration":0.20182291666668561},{"name":"D#3","midi":51,"time":336.0794270833405,"velocity":0.8031496062992126,"duration":0.20182291666662877},{"name":"F#5","midi":78,"time":336.0794270833405,"velocity":0.8031496062992126,"duration":0.20182291666662877},{"name":"E3","midi":52,"time":336.2838541666738,"velocity":0.8031496062992126,"duration":0.20182291666668561},{"name":"G5","midi":79,"time":336.2838541666738,"velocity":0.8031496062992126,"duration":0.20182291666668561},{"name":"B2","midi":47,"time":336.4895833333405,"velocity":0.8031496062992126,"duration":0.20182291666668561},{"name":"A5","midi":81,"time":336.4895833333405,"velocity":0.8031496062992126,"duration":0.20182291666668561},{"name":"E3","midi":52,"time":336.69401041667385,"velocity":0.8031496062992126,"duration":0.20182291666668561},{"name":"G5","midi":79,"time":336.69401041667385,"velocity":0.8031496062992126,"duration":0.20182291666668561},{"name":"F#3","midi":54,"time":336.8984375000072,"velocity":0.8031496062992126,"duration":0.20182291666668561},{"name":"F#5","midi":78,"time":336.8984375000072,"velocity":0.8031496062992126,"duration":0.20182291666668561},{"name":"G3","midi":55,"time":337.1028645833406,"velocity":0.8031496062992126,"duration":0.20182291666668561},{"name":"E5","midi":76,"time":337.1028645833406,"velocity":0.8031496062992126,"duration":0.20182291666668561},{"name":"E3","midi":52,"time":337.30729166667396,"velocity":0.8031496062992126,"duration":0.20182291666668561},{"name":"G5","midi":79,"time":337.30729166667396,"velocity":0.8031496062992126,"duration":0.20182291666668561},{"name":"C3","midi":48,"time":337.51171875000733,"velocity":0.8031496062992126,"duration":0.20182291666668561},{"name":"A5","midi":81,"time":337.51171875000733,"velocity":0.8031496062992126,"duration":0.20182291666668561},{"name":"D3","midi":50,"time":337.7161458333407,"velocity":0.8031496062992126,"duration":0.20182291666668561},{"name":"G5","midi":79,"time":337.7161458333407,"velocity":0.8031496062992126,"duration":0.20182291666668561},{"name":"C3","midi":48,"time":337.9218750000074,"velocity":0.8031496062992126,"duration":0.20182291666668561},{"name":"A5","midi":81,"time":337.9218750000074,"velocity":0.8031496062992126,"duration":0.20182291666668561},{"name":"B2","midi":47,"time":338.12630208334076,"velocity":0.8031496062992126,"duration":0.20182291666668561},{"name":"B5","midi":83,"time":338.12630208334076,"velocity":0.8031496062992126,"duration":0.20182291666668561},{"name":"A2","midi":45,"time":338.33072916667413,"velocity":0.8031496062992126,"duration":0.20182291666668561},{"name":"C6","midi":84,"time":338.33072916667413,"velocity":0.8031496062992126,"duration":0.20182291666668561},{"name":"C3","midi":48,"time":338.5351562500075,"velocity":0.8031496062992126,"duration":0.20182291666668561},{"name":"A5","midi":81,"time":338.5351562500075,"velocity":0.8031496062992126,"duration":0.20182291666668561},{"name":"D3","midi":50,"time":338.7395833333409,"velocity":0.8031496062992126,"duration":0.20182291666668561},{"name":"F#5","midi":78,"time":338.7395833333409,"velocity":0.8031496062992126,"duration":0.20182291666668561},{"name":"A2","midi":45,"time":338.94401041667425,"velocity":0.8031496062992126,"duration":0.20182291666668561},{"name":"G5","midi":79,"time":338.94401041667425,"velocity":0.8031496062992126,"duration":0.20182291666668561},{"name":"D3","midi":50,"time":339.1484375000076,"velocity":0.8031496062992126,"duration":0.20182291666668561},{"name":"F#5","midi":78,"time":339.1484375000076,"velocity":0.8031496062992126,"duration":0.20182291666668561},{"name":"E3","midi":52,"time":339.352864583341,"velocity":0.8031496062992126,"duration":0.20182291666668561},{"name":"E5","midi":76,"time":339.352864583341,"velocity":0.8031496062992126,"duration":0.20182291666668561},{"name":"F#3","midi":54,"time":339.5585937500077,"velocity":0.8031496062992126,"duration":0.20182291666668561},{"name":"D5","midi":74,"time":339.5585937500077,"velocity":0.8031496062992126,"duration":0.20182291666668561},{"name":"D3","midi":50,"time":339.76302083334105,"velocity":0.8031496062992126,"duration":0.20182291666668561},{"name":"F#5","midi":78,"time":339.76302083334105,"velocity":0.8031496062992126,"duration":0.20182291666668561},{"name":"B2","midi":47,"time":339.9674479166744,"velocity":0.8031496062992126,"duration":0.20182291666668561},{"name":"G5","midi":79,"time":339.9674479166744,"velocity":0.8031496062992126,"duration":0.20182291666668561},{"name":"C3","midi":48,"time":340.1718750000078,"velocity":0.8031496062992126,"duration":0.20182291666668561},{"name":"F#5","midi":78,"time":340.1718750000078,"velocity":0.8031496062992126,"duration":0.20182291666668561},{"name":"B2","midi":47,"time":340.37630208334116,"velocity":0.8031496062992126,"duration":0.20182291666668561},{"name":"G5","midi":79,"time":340.37630208334116,"velocity":0.8031496062992126,"duration":0.20182291666668561},{"name":"A2","midi":45,"time":340.58072916667453,"velocity":0.8031496062992126,"duration":0.20182291666668561},{"name":"A5","midi":81,"time":340.58072916667453,"velocity":0.8031496062992126,"duration":0.20182291666668561},{"name":"G2","midi":43,"time":340.7851562500079,"velocity":0.8031496062992126,"duration":0.20182291666668561},{"name":"B5","midi":83,"time":340.7851562500079,"velocity":0.8031496062992126,"duration":0.20182291666668561},{"name":"B2","midi":47,"time":340.9908854166746,"velocity":0.8031496062992126,"duration":0.20182291666668561},{"name":"G5","midi":79,"time":340.9908854166746,"velocity":0.8031496062992126,"duration":0.20182291666668561},{"name":"C3","midi":48,"time":341.19531250000796,"velocity":0.8031496062992126,"duration":0.20182291666668561},{"name":"E5","midi":76,"time":341.19531250000796,"velocity":0.8031496062992126,"duration":0.20182291666668561},{"name":"G2","midi":43,"time":341.39973958334133,"velocity":0.8031496062992126,"duration":0.20182291666668561},{"name":"F#5","midi":78,"time":341.39973958334133,"velocity":0.8031496062992126,"duration":0.20182291666668561},{"name":"C3","midi":48,"time":341.6041666666747,"velocity":0.8031496062992126,"duration":0.20182291666668561},{"name":"E5","midi":76,"time":341.6041666666747,"velocity":0.8031496062992126,"duration":0.20182291666668561},{"name":"D3","midi":50,"time":341.8085937500081,"velocity":0.8031496062992126,"duration":0.20182291666668561},{"name":"D5","midi":74,"time":341.8085937500081,"velocity":0.8031496062992126,"duration":0.20182291666668561},{"name":"E3","midi":52,"time":342.01302083334144,"velocity":0.8031496062992126,"duration":0.20182291666668561},{"name":"C5","midi":72,"time":342.01302083334144,"velocity":0.8031496062992126,"duration":0.20182291666668561},{"name":"C3","midi":48,"time":342.2174479166748,"velocity":0.8031496062992126,"duration":0.20182291666668561},{"name":"E5","midi":76,"time":342.2174479166748,"velocity":0.8031496062992126,"duration":0.20182291666668561},{"name":"A2","midi":45,"time":342.4231770833415,"velocity":0.8031496062992126,"duration":0.20182291666668561},{"name":"F#5","midi":78,"time":342.4231770833415,"velocity":0.8031496062992126,"duration":0.20182291666668561},{"name":"B2","midi":47,"time":342.62760416667487,"velocity":0.8031496062992126,"duration":0.20182291666668561},{"name":"E5","midi":76,"time":342.62760416667487,"velocity":0.8031496062992126,"duration":0.20182291666668561},{"name":"A2","midi":45,"time":342.83203125000824,"velocity":0.8031496062992126,"duration":0.20182291666668561},{"name":"F#5","midi":78,"time":342.83203125000824,"velocity":0.8031496062992126,"duration":0.20182291666668561},{"name":"G2","midi":43,"time":343.0364583333416,"velocity":0.8031496062992126,"duration":0.20182291666668561},{"name":"G5","midi":79,"time":343.0364583333416,"velocity":0.8031496062992126,"duration":0.20182291666668561},{"name":"F#2","midi":42,"time":343.240885416675,"velocity":0.8031496062992126,"duration":0.20182291666668561},{"name":"A5","midi":81,"time":343.240885416675,"velocity":0.8031496062992126,"duration":0.20182291666668561},{"name":"A2","midi":45,"time":343.44531250000836,"velocity":0.8031496062992126,"duration":0.20182291666668561},{"name":"F#5","midi":78,"time":343.44531250000836,"velocity":0.8031496062992126,"duration":0.20182291666668561},{"name":"B2","midi":47,"time":343.6497395833417,"velocity":0.8031496062992126,"duration":0.20182291666668561},{"name":"D#5","midi":75,"time":343.6497395833417,"velocity":0.8031496062992126,"duration":0.40625},{"name":"F#2","midi":42,"time":343.8554687500084,"velocity":0.8031496062992126,"duration":0.20182291666662877},{"name":"A2","midi":45,"time":344.0598958333417,"velocity":0.8031496062992126,"duration":0.20182291666668561},{"name":"D#5","midi":75,"time":344.0598958333417,"velocity":0.8031496062992126,"duration":0.6106770833334281},{"name":"B4","midi":71,"time":344.0598958333417,"velocity":0.8031496062992126,"duration":0.6106770833334281},{"name":"C3","midi":48,"time":344.2643229166751,"velocity":0.8031496062992126,"duration":0.20182291666668561},{"name":"B2","midi":47,"time":344.46875000000847,"velocity":0.8031496062992126,"duration":0.20182291666668561},{"name":"A2","midi":45,"time":344.67317708334184,"velocity":0.8031496062992126,"duration":0.20182291666668561},{"name":"B4","midi":71,"time":344.67317708334184,"velocity":0.8031496062992126,"duration":0.20182291666668561},{"name":"D#5","midi":75,"time":344.67317708334184,"velocity":0.8031496062992126,"duration":0.20182291666668561},{"name":"G2","midi":43,"time":344.8776041666752,"velocity":0.8031496062992126,"duration":0.20182291666668561},{"name":"E4","midi":64,"time":344.8776041666752,"velocity":0.8031496062992126,"duration":1.0221354166667993},{"name":"E5","midi":76,"time":344.8776041666752,"velocity":0.8031496062992126,"duration":0.40625000000005684},{"name":"B4","midi":71,"time":344.8776041666752,"velocity":0.8031496062992126,"duration":0.40625000000005684},{"name":"F#2","midi":42,"time":345.0820312500086,"velocity":0.8031496062992126,"duration":0.20182291666668561},{"name":"G2","midi":43,"time":345.28776041667527,"velocity":0.8031496062992126,"duration":0.20182291666668561},{"name":"C5","midi":72,"time":345.28776041667527,"velocity":0.8031496062992126,"duration":0.20182291666668561},{"name":"B2","midi":47,"time":345.49218750000864,"velocity":0.8031496062992126,"duration":0.20182291666668561},{"name":"B4","midi":71,"time":345.49218750000864,"velocity":0.8031496062992126,"duration":0.20182291666668561},{"name":"A2","midi":45,"time":345.696614583342,"velocity":0.8031496062992126,"duration":0.20182291666668561},{"name":"C5","midi":72,"time":345.696614583342,"velocity":0.8031496062992126,"duration":0.20182291666668561},{"name":"G2","midi":43,"time":345.9010416666753,"velocity":0.8031496062992126,"duration":0.20182291666668561},{"name":"A4","midi":69,"time":345.9010416666753,"velocity":0.8031496062992126,"duration":0.20182291666668561},{"name":"F#2","midi":42,"time":346.1054687500087,"velocity":0.8031496062992126,"duration":0.20182291666668561},{"name":"D#4","midi":63,"time":346.1054687500087,"velocity":0.8031496062992126,"duration":0.40625000000005684},{"name":"E2","midi":40,"time":346.30989583334207,"velocity":0.8031496062992126,"duration":0.20182291666668561},{"name":"F#2","midi":42,"time":346.51432291667544,"velocity":0.8031496062992126,"duration":0.20182291666668561},{"name":"F#4","midi":66,"time":346.51432291667544,"velocity":0.8031496062992126,"duration":0.6106770833333712},{"name":"A4","midi":69,"time":346.51432291667544,"velocity":0.8031496062992126,"duration":0.6106770833333712},{"name":"G2","midi":43,"time":346.7200520833421,"velocity":0.8031496062992126,"duration":0.20182291666668561},{"name":"F#2","midi":42,"time":346.9244791666755,"velocity":0.8031496062992126,"duration":0.20182291666662877},{"name":"E2","midi":40,"time":347.1289062500088,"velocity":0.8031496062992126,"duration":0.20182291666668561},{"name":"F#4","midi":66,"time":347.1289062500088,"velocity":0.8031496062992126,"duration":0.20182291666668561},{"name":"A4","midi":69,"time":347.1289062500088,"velocity":0.8031496062992126,"duration":0.20182291666668561},{"name":"D#2","midi":39,"time":347.3333333333422,"velocity":0.8031496062992126,"duration":0.20182291666668561},{"name":"F#4","midi":66,"time":347.3333333333422,"velocity":0.8031496062992126,"duration":0.8098958333334281},{"name":"B3","midi":59,"time":347.3333333333422,"velocity":0.8031496062992126,"duration":0.40625000000005684},{"name":"A4","midi":69,"time":347.3333333333422,"velocity":0.8031496062992126,"duration":0.40625000000005684},{"name":"C#2","midi":37,"time":347.53776041667555,"velocity":0.8031496062992126,"duration":0.20182291666668561},{"name":"D#2","midi":39,"time":347.7421875000089,"velocity":0.8031496062992126,"duration":0.20182291666668561},{"name":"B4","midi":71,"time":347.7421875000089,"velocity":0.8031496062992126,"duration":0.20182291666668561},{"name":"E2","midi":40,"time":347.9466145833423,"velocity":0.8031496062992126,"duration":0.20182291666662877},{"name":"A4","midi":69,"time":347.9466145833423,"velocity":0.8031496062992126,"duration":0.20182291666662877},{"name":"C#2","midi":37,"time":348.1523437500089,"velocity":0.8031496062992126,"duration":0.20182291666668561},{"name":"B4","midi":71,"time":348.1523437500089,"velocity":0.8031496062992126,"duration":0.20182291666668561},{"name":"D#2","midi":39,"time":348.3567708333423,"velocity":0.8031496062992126,"duration":0.20182291666668561},{"name":"F#4","midi":66,"time":348.3567708333423,"velocity":0.8031496062992126,"duration":0.20182291666668561},{"name":"E2","midi":40,"time":348.56119791667567,"velocity":0.8031496062992126,"duration":0.40625},{"name":"G4","midi":67,"time":348.56119791667567,"velocity":0.8031496062992126,"duration":0.5963541666666856},{"name":"B4","midi":71,"time":348.765625000009,"velocity":0.8031496062992126,"duration":0.20182291666668561},{"name":"E3","midi":52,"time":348.97005208334235,"velocity":0.8031496062992126,"duration":0.40625},{"name":"E5","midi":76,"time":348.97005208334235,"velocity":0.8031496062992126,"duration":1.0221354166667425},{"name":"B4","midi":71,"time":349.17447916667567,"velocity":0.8031496062992126,"duration":0.20182291666668561},{"name":"E2","midi":40,"time":349.37890625000904,"velocity":0.8031496062992126,"duration":0.40625000000005684},{"name":"A4","midi":69,"time":349.37890625000904,"velocity":0.8031496062992126,"duration":0.20182291666668561},{"name":"G4","midi":67,"time":349.5833333333424,"velocity":0.8031496062992126,"duration":0.20182291666668561},{"name":"E2","midi":40,"time":349.7890625000091,"velocity":0.8031496062992126,"duration":0.4088541666666856},{"name":"A4","midi":69,"time":349.7890625000091,"velocity":0.8031496062992126,"duration":0.5989583333333712},{"name":"D#5","midi":75,"time":349.9934895833424,"velocity":0.8031496062992126,"duration":0.10026041666668561},{"name":"E5","midi":76,"time":350.0963541666758,"velocity":0.8031496062992126,"duration":0.10026041666668561},{"name":"E3","midi":52,"time":350.20052083334247,"velocity":0.8031496062992126,"duration":0.40625},{"name":"F#5","midi":78,"time":350.20052083334247,"velocity":0.8031496062992126,"duration":1.0221354166667425},{"name":"C5","midi":72,"time":350.4049479166758,"velocity":0.8031496062992126,"duration":0.20182291666668561},{"name":"E2","midi":40,"time":350.60937500000915,"velocity":0.8031496062992126,"duration":0.40625000000005684},{"name":"B4","midi":71,"time":350.60937500000915,"velocity":0.8031496062992126,"duration":0.20182291666668561},{"name":"A4","midi":69,"time":350.8138020833425,"velocity":0.8031496062992126,"duration":0.20182291666668561},{"name":"E2","midi":40,"time":351.0182291666759,"velocity":0.8031496062992126,"duration":0.4088541666666856},{"name":"B4","midi":71,"time":351.0182291666759,"velocity":0.8031496062992126,"duration":0.5989583333333712},{"name":"E5","midi":76,"time":351.2226562500092,"velocity":0.8031496062992126,"duration":0.10026041666668561},{"name":"F#5","midi":78,"time":351.3268229166759,"velocity":0.8031496062992126,"duration":0.10026041666668561},{"name":"E3","midi":52,"time":351.42968750000927,"velocity":0.8031496062992126,"duration":0.40625},{"name":"G5","midi":79,"time":351.42968750000927,"velocity":0.8031496062992126,"duration":1.0221354166667425},{"name":"D5","midi":74,"time":351.6341145833426,"velocity":0.8031496062992126,"duration":0.20182291666668561},{"name":"E2","midi":40,"time":351.83854166667595,"velocity":0.8031496062992126,"duration":0.40625000000005684},{"name":"C5","midi":72,"time":351.83854166667595,"velocity":0.8031496062992126,"duration":0.20182291666668561},{"name":"B4","midi":71,"time":352.0429687500093,"velocity":0.8031496062992126,"duration":0.20182291666668561},{"name":"E2","midi":40,"time":352.248697916676,"velocity":0.8031496062992126,"duration":0.4088541666666856},{"name":"C5","midi":72,"time":352.248697916676,"velocity":0.8031496062992126,"duration":0.5989583333333144},{"name":"F#5","midi":78,"time":352.4531250000093,"velocity":0.8031496062992126,"duration":0.10026041666668561},{"name":"G5","midi":79,"time":352.5559895833427,"velocity":0.8031496062992126,"duration":0.10026041666668561},{"name":"E3","midi":52,"time":352.658854166676,"velocity":0.8031496062992126,"duration":0.40624999999994316},{"name":"A5","midi":81,"time":352.658854166676,"velocity":0.8031496062992126,"duration":1.2252604166666856},{"name":"G5","midi":79,"time":352.86458333334264,"velocity":0.8031496062992126,"duration":0.20182291666662877},{"name":"E2","midi":40,"time":353.06901041667595,"velocity":0.8031496062992126,"duration":0.40625000000005684},{"name":"F#5","midi":78,"time":353.06901041667595,"velocity":0.8031496062992126,"duration":0.20182291666668561},{"name":"E5","midi":76,"time":353.2734375000093,"velocity":0.8031496062992126,"duration":0.20182291666668561},{"name":"E2","midi":40,"time":353.4778645833427,"velocity":0.8031496062992126,"duration":0.40625},{"name":"D#5","midi":75,"time":353.4778645833427,"velocity":0.8031496062992126,"duration":0.8098958333333712},{"name":"F#5","midi":78,"time":353.682291666676,"velocity":0.8031496062992126,"duration":0.20182291666668561},{"name":"E3","midi":52,"time":353.8867187500094,"velocity":0.8031496062992126,"duration":0.40625},{"name":"A5","midi":81,"time":353.8867187500094,"velocity":0.8031496062992126,"duration":0.20182291666668561},{"name":"C6","midi":84,"time":354.09114583334275,"velocity":0.8031496062992126,"duration":0.20182291666662877},{"name":"E2","midi":40,"time":354.2968750000094,"velocity":0.8031496062992126,"duration":0.40625000000005684},{"name":"B5","midi":83,"time":354.2968750000094,"velocity":0.8031496062992126,"duration":0.20182291666668561},{"name":"A5","midi":81,"time":354.50130208334275,"velocity":0.8031496062992126,"duration":0.20182291666668561},{"name":"E3","midi":52,"time":354.7057291666761,"velocity":0.8031496062992126,"duration":0.20182291666668561},{"name":"G5","midi":79,"time":354.7057291666761,"velocity":0.8031496062992126,"duration":1.2252604166668561},{"name":"D#3","midi":51,"time":354.9101562500095,"velocity":0.8031496062992126,"duration":0.20182291666668561},{"name":"F#5","midi":78,"time":354.9101562500095,"velocity":0.8031496062992126,"duration":0.20182291666668561},{"name":"E3","midi":52,"time":355.11458333334286,"velocity":0.8031496062992126,"duration":0.20182291666668561},{"name":"E5","midi":76,"time":355.11458333334286,"velocity":0.8031496062992126,"duration":0.20182291666668561},{"name":"F#3","midi":54,"time":355.31901041667624,"velocity":0.8031496062992126,"duration":0.20182291666668561},{"name":"D#5","midi":75,"time":355.31901041667624,"velocity":0.8031496062992126,"duration":0.20182291666668561},{"name":"G3","midi":55,"time":355.5234375000096,"velocity":0.8031496062992126,"duration":0.20182291666668561},{"name":"E5","midi":76,"time":355.5234375000096,"velocity":0.8031496062992126,"duration":0.20182291666668561},{"name":"E3","midi":52,"time":355.7291666666763,"velocity":0.8031496062992126,"duration":0.20182291666668561},{"name":"B4","midi":71,"time":355.7291666666763,"velocity":0.8031496062992126,"duration":0.20182291666668561},{"name":"A3","midi":57,"time":355.93359375000966,"velocity":0.8031496062992126,"duration":0.20182291666668561},{"name":"C5","midi":72,"time":355.93359375000966,"velocity":0.8031496062992126,"duration":1.2252604166668561},{"name":"B3","midi":59,"time":356.13802083334303,"velocity":0.8031496062992126,"duration":0.20182291666668561},{"name":"E4","midi":64,"time":356.13802083334303,"velocity":0.8031496062992126,"duration":0.20182291666668561},{"name":"A3","midi":57,"time":356.3424479166764,"velocity":0.8031496062992126,"duration":0.20182291666668561},{"name":"G4","midi":67,"time":356.3424479166764,"velocity":0.8031496062992126,"duration":0.20182291666668561},{"name":"G3","midi":55,"time":356.5468750000098,"velocity":0.8031496062992126,"duration":0.20182291666668561},{"name":"B4","midi":71,"time":356.5468750000098,"velocity":0.8031496062992126,"duration":0.20182291666668561},{"name":"F#3","midi":54,"time":356.75130208334315,"velocity":0.8031496062992126,"duration":0.20182291666668561},{"name":"A4","midi":69,"time":356.75130208334315,"velocity":0.8031496062992126,"duration":0.20182291666668561},{"name":"E3","midi":52,"time":356.9557291666765,"velocity":0.8031496062992126,"duration":0.20182291666668561},{"name":"G4","midi":67,"time":356.9557291666765,"velocity":0.8031496062992126,"duration":0.20182291666668561},{"name":"D3","midi":50,"time":357.1614583333432,"velocity":0.8031496062992126,"duration":0.20182291666668561},{"name":"F#4","midi":66,"time":357.1614583333432,"velocity":0.8031496062992126,"duration":1.2252604166668561},{"name":"C3","midi":48,"time":357.3658854166766,"velocity":0.8031496062992126,"duration":0.20182291666668561},{"name":"E5","midi":76,"time":357.3658854166766,"velocity":0.8031496062992126,"duration":0.20182291666668561},{"name":"D3","midi":50,"time":357.57031250000995,"velocity":0.8031496062992126,"duration":0.20182291666668561},{"name":"D5","midi":74,"time":357.57031250000995,"velocity":0.8031496062992126,"duration":0.20182291666668561},{"name":"E3","midi":52,"time":357.7747395833433,"velocity":0.8031496062992126,"duration":0.20182291666668561},{"name":"C5","midi":72,"time":357.7747395833433,"velocity":0.8031496062992126,"duration":0.20182291666668561},{"name":"F#3","midi":54,"time":357.9791666666767,"velocity":0.8031496062992126,"duration":0.20182291666668561},{"name":"D5","midi":74,"time":357.9791666666767,"velocity":0.8031496062992126,"duration":0.20182291666668561},{"name":"D3","midi":50,"time":358.18359375001006,"velocity":0.8031496062992126,"duration":0.20182291666668561},{"name":"A4","midi":69,"time":358.18359375001006,"velocity":0.8031496062992126,"duration":0.20182291666668561},{"name":"G3","midi":55,"time":358.3880208333434,"velocity":0.8031496062992126,"duration":0.20182291666668561},{"name":"B4","midi":71,"time":358.3880208333434,"velocity":0.8031496062992126,"duration":1.2252604166668561},{"name":"A3","midi":57,"time":358.59375000001006,"velocity":0.8031496062992126,"duration":0.20182291666668561},{"name":"D4","midi":62,"time":358.59375000001006,"velocity":0.8031496062992126,"duration":0.20182291666668561},{"name":"G3","midi":55,"time":358.79817708334343,"velocity":0.8031496062992126,"duration":0.20182291666668561},{"name":"F4","midi":65,"time":358.79817708334343,"velocity":0.8031496062992126,"duration":0.20182291666668561},{"name":"F3","midi":53,"time":359.0026041666768,"velocity":0.8031496062992126,"duration":0.20182291666668561},{"name":"A4","midi":69,"time":359.0026041666768,"velocity":0.8031496062992126,"duration":0.20182291666668561},{"name":"E3","midi":52,"time":359.2070312500102,"velocity":0.8031496062992126,"duration":0.20182291666668561},{"name":"G4","midi":67,"time":359.2070312500102,"velocity":0.8031496062992126,"duration":0.20182291666668561},{"name":"D3","midi":50,"time":359.41145833334355,"velocity":0.8031496062992126,"duration":0.20182291666668561},{"name":"F4","midi":65,"time":359.41145833334355,"velocity":0.8031496062992126,"duration":0.20182291666668561},{"name":"C3","midi":48,"time":359.6158854166769,"velocity":0.8031496062992126,"duration":0.20182291666668561},{"name":"E4","midi":64,"time":359.6158854166769,"velocity":0.8031496062992126,"duration":1.2252604166668561},{"name":"B2","midi":47,"time":359.8203125000103,"velocity":0.8031496062992126,"duration":0.20182291666668561},{"name":"D5","midi":74,"time":359.8203125000103,"velocity":0.8031496062992126,"duration":0.20182291666668561},{"name":"C3","midi":48,"time":360.02473958334366,"velocity":0.8031496062992126,"duration":0.20182291666668561},{"name":"C5","midi":72,"time":360.02473958334366,"velocity":0.8031496062992126,"duration":0.20182291666668561},{"name":"D3","midi":50,"time":360.23046875001035,"velocity":0.8031496062992126,"duration":0.20182291666668561},{"name":"B4","midi":71,"time":360.23046875001035,"velocity":0.8031496062992126,"duration":0.20182291666668561},{"name":"E3","midi":52,"time":360.4348958333437,"velocity":0.8031496062992126,"duration":0.20182291666668561},{"name":"C5","midi":72,"time":360.4348958333437,"velocity":0.8031496062992126,"duration":0.20182291666668561},{"name":"C3","midi":48,"time":360.6393229166771,"velocity":0.8031496062992126,"duration":0.20182291666668561},{"name":"G4","midi":67,"time":360.6393229166771,"velocity":0.8031496062992126,"duration":0.20182291666668561},{"name":"F#3","midi":54,"time":360.84375000001046,"velocity":0.8031496062992126,"duration":0.20182291666668561},{"name":"A4","midi":69,"time":360.84375000001046,"velocity":0.8031496062992126,"duration":1.2252604166668561},{"name":"G3","midi":55,"time":361.04817708334383,"velocity":0.8031496062992126,"duration":0.20182291666668561},{"name":"D#4","midi":63,"time":361.04817708334383,"velocity":0.8031496062992126,"duration":0.20182291666668561},{"name":"F#3","midi":54,"time":361.2526041666772,"velocity":0.8031496062992126,"duration":0.20182291666668561},{"name":"E4","midi":64,"time":361.2526041666772,"velocity":0.8031496062992126,"duration":0.20182291666668561},{"name":"E3","midi":52,"time":361.4570312500106,"velocity":0.8031496062992126,"duration":0.20182291666668561},{"name":"G4","midi":67,"time":361.4570312500106,"velocity":0.8031496062992126,"duration":0.20182291666668561},{"name":"D#3","midi":51,"time":361.66276041667726,"velocity":0.8031496062992126,"duration":0.20182291666668561},{"name":"F#4","midi":66,"time":361.66276041667726,"velocity":0.8031496062992126,"duration":0.20182291666668561},{"name":"C#3","midi":49,"time":361.86718750001063,"velocity":0.8031496062992126,"duration":0.20182291666668561},{"name":"E4","midi":64,"time":361.86718750001063,"velocity":0.8031496062992126,"duration":0.20182291666668561},{"name":"B2","midi":47,"time":362.071614583344,"velocity":0.8031496062992126,"duration":0.4153645833333144},{"name":"D#4","midi":63,"time":362.071614583344,"velocity":0.8031496062992126,"duration":1.2500000000000568},{"name":"C5","midi":72,"time":362.2799479166773,"velocity":0.8031496062992126,"duration":0.20572916666668561},{"name":"B3","midi":59,"time":362.489583333344,"velocity":0.8031496062992126,"duration":0.41536458333337123},{"name":"B4","midi":71,"time":362.489583333344,"velocity":0.8031496062992126,"duration":0.20572916666668561},{"name":"A4","midi":69,"time":362.6979166666774,"velocity":0.8031496062992126,"duration":0.20572916666668561},{"name":"B2","midi":47,"time":362.9062500000107,"velocity":0.8031496062992126,"duration":0.41536458333337123},{"name":"B4","midi":71,"time":362.9062500000107,"velocity":0.8031496062992126,"duration":0.20572916666668561},{"name":"F#4","midi":66,"time":363.1158854166774,"velocity":0.8031496062992126,"duration":0.20572916666668561},{"name":"B2","midi":47,"time":363.32421875001074,"velocity":0.8031496062992126,"duration":0.41536458333337123},{"name":"G4","midi":67,"time":363.32421875001074,"velocity":0.8031496062992126,"duration":1.4570312500001137},{"name":"F#4","midi":66,"time":363.53385416667743,"velocity":0.8031496062992126,"duration":0.20572916666668561},{"name":"B3","midi":59,"time":363.7421875000108,"velocity":0.8031496062992126,"duration":0.41536458333337123},{"name":"E4","midi":64,"time":363.7421875000108,"velocity":0.8031496062992126,"duration":0.20572916666668561},{"name":"D#4","midi":63,"time":363.95052083334417,"velocity":0.8031496062992126,"duration":0.20572916666668561},{"name":"B2","midi":47,"time":364.16015625001086,"velocity":0.8031496062992126,"duration":0.41536458333337123},{"name":"E4","midi":64,"time":364.16015625001086,"velocity":0.8031496062992126,"duration":0.20572916666668561},{"name":"C#4","midi":61,"time":364.3684895833442,"velocity":0.8031496062992126,"duration":0.20572916666668561},{"name":"A#3","midi":58,"time":364.57682291667754,"velocity":0.8031496062992126,"duration":0.41276041666662877},{"name":"B2","midi":47,"time":364.57682291667754,"velocity":0.8031496062992126,"duration":0.8268229166666856},{"name":"G4","midi":67,"time":364.78645833334417,"velocity":0.8031496062992126,"duration":0.20572916666668561},{"name":"F#4","midi":66,"time":364.99479166667754,"velocity":0.8031496062992126,"duration":0.20572916666668561},{"name":"A#3","midi":58,"time":364.99479166667754,"velocity":0.8031496062992126,"duration":0.8268229166667425},{"name":"E4","midi":64,"time":365.2044270833442,"velocity":0.8031496062992126,"duration":0.20572916666668561},{"name":"B2","midi":47,"time":365.4127604166776,"velocity":0.8031496062992126,"duration":0.4153645833333144},{"name":"F#4","midi":66,"time":365.4127604166776,"velocity":0.8031496062992126,"duration":0.20572916666668561},{"name":"C#4","midi":61,"time":365.62109375001097,"velocity":0.8031496062992126,"duration":0.20572916666662877},{"name":"B2","midi":47,"time":365.8307291666776,"velocity":0.8031496062992126,"duration":5.145833333333485},{"name":"D#4","midi":63,"time":365.8307291666776,"velocity":0.8031496062992126,"duration":1.2630208333333144},{"name":"C4","midi":60,"time":366.0416666666776,"velocity":0.8031496062992126,"duration":0.20833333333331439},{"name":"B3","midi":59,"time":366.2526041666776,"velocity":0.8031496062992126,"duration":0.20833333333331439},{"name":"A3","midi":57,"time":366.4635416666776,"velocity":0.8031496062992126,"duration":0.20833333333331439},{"name":"B3","midi":59,"time":366.6744791666776,"velocity":0.8031496062992126,"duration":0.20833333333331439},{"name":"F#3","midi":54,"time":366.8854166666776,"velocity":0.8031496062992126,"duration":0.20833333333331439},{"name":"G3","midi":55,"time":367.0963541666776,"velocity":0.8031496062992126,"duration":2.1471354166667425},{"name":"B3","midi":59,"time":367.3085937500109,"velocity":0.8031496062992126,"duration":0.2109375},{"name":"E4","midi":64,"time":367.5221354166776,"velocity":0.8031496062992126,"duration":0.2109375},{"name":"F#4","midi":66,"time":367.7356770833443,"velocity":0.8031496062992126,"duration":0.2109375},{"name":"G4","midi":67,"time":367.9479166666776,"velocity":0.8031496062992126,"duration":2.5937500000001137},{"name":"C#4","midi":61,"time":368.1614583333443,"velocity":0.8031496062992126,"duration":0.2109375},{"name":"E4","midi":64,"time":368.3736979166776,"velocity":0.8031496062992126,"duration":1.735677083333428},{"name":"A#3","midi":58,"time":368.5911458333443,"velocity":0.8031496062992126,"duration":0.21484375},{"name":"C#4","midi":61,"time":368.80859375001097,"velocity":0.8031496062992126,"duration":0.8593750000000568},{"name":"E3","midi":52,"time":369.02604166667766,"velocity":0.8031496062992126,"duration":0.21484375},{"name":"G3","midi":55,"time":369.24348958334434,"velocity":0.8031496062992126,"duration":0.21484375},{"name":"C#3","midi":49,"time":369.460937500011,"velocity":0.8031496062992126,"duration":0.21484375},{"name":"E3","midi":52,"time":369.6783854166777,"velocity":0.8031496062992126,"duration":0.21484375},{"name":"G3","midi":55,"time":369.894531250011,"velocity":0.8031496062992126,"duration":0.8580729166666856},{"name":"C#4","midi":61,"time":370.1119791666777,"velocity":0.8031496062992126,"duration":0.6328125},{"name":"E4","midi":64,"time":370.3294270833444,"velocity":0.8031496062992126,"duration":0.4270833333333144},{"name":"G4","midi":67,"time":370.546875000011,"velocity":0.8031496062992126,"duration":0.21223958333337123},{"name":"A#4","midi":70,"time":370.7617187500111,"velocity":0.8031496062992126,"duration":0.21484375},{"name":"B2","midi":47,"time":370.97916666667777,"velocity":0.8031496062992126,"duration":0.4231770833333144},{"name":"D#4","midi":63,"time":370.97916666667777,"velocity":0.8031496062992126,"duration":0.2109375},{"name":"B4","midi":71,"time":370.97916666667777,"velocity":0.8031496062992126,"duration":0.421875},{"name":"F#4","midi":66,"time":370.97916666667777,"velocity":0.8031496062992126,"duration":0.2109375},{"name":"B3","midi":59,"time":371.19270833334446,"velocity":0.8031496062992126,"duration":0.21093749999994316},{"name":"B3","midi":59,"time":371.4049479166777,"velocity":0.8031496062992126,"duration":0.6328125000000568},{"name":"C#4","midi":61,"time":371.4049479166777,"velocity":0.8031496062992126,"duration":0.2109375},{"name":"D#4","midi":63,"time":371.6184895833444,"velocity":0.8031496062992126,"duration":0.2109375},{"name":"E4","midi":64,"time":371.8320312500111,"velocity":0.8031496062992126,"duration":0.20572916666668561},{"name":"B3","midi":59,"time":372.04036458334446,"velocity":0.8031496062992126,"duration":0.20572916666668561},{"name":"F#4","midi":66,"time":372.04036458334446,"velocity":0.8031496062992126,"duration":0.20572916666668561},{"name":"E3","midi":52,"time":372.2486979166778,"velocity":0.8031496062992126,"duration":0.41536458333337123},{"name":"G4","midi":67,"time":372.2486979166778,"velocity":0.8031496062992126,"duration":0.20572916666668561},{"name":"E4","midi":64,"time":372.4583333333445,"velocity":0.8031496062992126,"duration":0.20572916666668561},{"name":"C4","midi":60,"time":372.6666666666779,"velocity":0.8031496062992126,"duration":0.20572916666668561},{"name":"F#4","midi":66,"time":372.6666666666779,"velocity":0.8031496062992126,"duration":0.20572916666668561},{"name":"B3","midi":59,"time":372.87630208334457,"velocity":0.8031496062992126,"duration":0.20572916666668561},{"name":"G4","midi":67,"time":372.87630208334457,"velocity":0.8031496062992126,"duration":0.20572916666668561},{"name":"C4","midi":60,"time":373.08463541667794,"velocity":0.8031496062992126,"duration":0.20572916666668561},{"name":"A4","midi":69,"time":373.08463541667794,"velocity":0.8031496062992126,"duration":0.20572916666668561},{"name":"A3","midi":57,"time":373.2929687500113,"velocity":0.8031496062992126,"duration":0.20572916666668561},{"name":"B4","midi":71,"time":373.2929687500113,"velocity":0.8031496062992126,"duration":0.20572916666668561},{"name":"D#3","midi":51,"time":373.502604166678,"velocity":0.8031496062992126,"duration":0.4153645833333144},{"name":"C5","midi":72,"time":373.502604166678,"velocity":0.8031496062992126,"duration":1.4609375000000568},{"name":"B4","midi":71,"time":373.7109375000113,"velocity":0.8031496062992126,"duration":0.20572916666668561},{"name":"F#3","midi":54,"time":373.9192708333446,"velocity":0.8031496062992126,"duration":0.6236979166667425},{"name":"A4","midi":69,"time":373.9192708333446,"velocity":0.8031496062992126,"duration":0.20572916666668561},{"name":"G4","midi":67,"time":374.1289062500113,"velocity":0.8031496062992126,"duration":0.20572916666668561},{"name":"F#4","midi":66,"time":374.3372395833447,"velocity":0.8031496062992126,"duration":0.20572916666668561},{"name":"F#3","midi":54,"time":374.54687500001137,"velocity":0.8031496062992126,"duration":0.20572916666668561},{"name":"E4","midi":64,"time":374.54687500001137,"velocity":0.8031496062992126,"duration":0.20572916666668561},{"name":"B2","midi":47,"time":374.75520833334474,"velocity":0.8031496062992126,"duration":0.4153645833333144},{"name":"D#4","midi":63,"time":374.75520833334474,"velocity":0.8031496062992126,"duration":0.8268229166666856},{"name":"F#4","midi":66,"time":374.96354166667805,"velocity":0.8031496062992126,"duration":0.20572916666668561},{"name":"B3","midi":59,"time":375.17317708334474,"velocity":0.8031496062992126,"duration":0.20572916666668561},{"name":"A4","midi":69,"time":375.17317708334474,"velocity":0.8031496062992126,"duration":0.20572916666668561},{"name":"A3","midi":57,"time":375.3815104166781,"velocity":0.8031496062992126,"duration":0.20572916666662877},{"name":"C5","midi":72,"time":375.3815104166781,"velocity":0.8031496062992126,"duration":0.20572916666662877},{"name":"B3","midi":59,"time":375.5898437500114,"velocity":0.8031496062992126,"duration":0.20572916666668561},{"name":"D#4","midi":63,"time":375.5898437500114,"velocity":0.8031496062992126,"duration":0.4127604166666856},{"name":"F#3","midi":54,"time":375.7994791666781,"velocity":0.8031496062992126,"duration":0.20572916666668561},{"name":"F#4","midi":66,"time":375.7994791666781,"velocity":0.8031496062992126,"duration":0.20572916666668561},{"name":"G3","midi":55,"time":376.0078125000115,"velocity":0.8031496062992126,"duration":0.41536458333337123},{"name":"E4","midi":64,"time":376.0078125000115,"velocity":0.8031496062992126,"duration":0.8216145833334849},{"name":"G4","midi":67,"time":376.21744791667817,"velocity":0.8031496062992126,"duration":0.20572916666668561},{"name":"A3","midi":57,"time":376.42578125001154,"velocity":0.8031496062992126,"duration":0.10026041666668561},{"name":"B4","midi":71,"time":376.42578125001154,"velocity":0.8031496062992126,"duration":0.20442708333337123},{"name":"G#3","midi":56,"time":376.5286458333449,"velocity":0.8031496062992126,"duration":0.10026041666668561},{"name":"A3","midi":57,"time":376.6328125000116,"velocity":0.8031496062992126,"duration":0.10026041666668561},{"name":"E5","midi":76,"time":376.6328125000116,"velocity":0.8031496062992126,"duration":0.20442708333337123},{"name":"G#3","midi":56,"time":376.73567708334497,"velocity":0.8031496062992126,"duration":0.30989583333337123},{"name":"E4","midi":64,"time":376.83984375001165,"velocity":0.8031496062992126,"duration":0.4127604166666856},{"name":"G#3","midi":56,"time":377.048177083345,"velocity":0.8031496062992126,"duration":0.20572916666662877},{"name":"D5","midi":74,"time":377.048177083345,"velocity":0.8031496062992126,"duration":0.20572916666662877},{"name":"A3","midi":57,"time":377.25651041667834,"velocity":0.8031496062992126,"duration":0.41536458333337123},{"name":"C5","midi":72,"time":377.25651041667834,"velocity":0.8031496062992126,"duration":0.8242187500001137},{"name":"E5","midi":76,"time":377.466145833345,"velocity":0.8031496062992126,"duration":0.20572916666668561},{"name":"C4","midi":60,"time":377.6744791666784,"velocity":0.8031496062992126,"duration":0.10026041666668561},{"name":"A5","midi":81,"time":377.6744791666784,"velocity":0.8031496062992126,"duration":0.20442708333337123},{"name":"B3","midi":59,"time":377.77734375001177,"velocity":0.8031496062992126,"duration":0.10026041666668561},{"name":"C4","midi":60,"time":377.88151041667845,"velocity":0.8031496062992126,"duration":0.41536458333337123},{"name":"C6","midi":84,"time":377.88151041667845,"velocity":0.8031496062992126,"duration":0.20572916666668561},{"name":"F5","midi":77,"time":378.0898437500118,"velocity":0.8031496062992126,"duration":0.20572916666668561},{"name":"C4","midi":60,"time":378.2994791666785,"velocity":0.8031496062992126,"duration":0.20572916666668561},{"name":"A5","midi":81,"time":378.2994791666785,"velocity":0.8031496062992126,"duration":0.20572916666668561},{"name":"B3","midi":59,"time":378.5078125000119,"velocity":0.8031496062992126,"duration":0.21614583333331439},{"name":"D#5","midi":75,"time":378.5078125000119,"velocity":0.8031496062992126,"duration":0.640625},{"name":"C4","midi":60,"time":378.7265625000119,"velocity":0.8031496062992126,"duration":0.21614583333331439},{"name":"F#5","midi":78,"time":378.7265625000119,"velocity":0.8031496062992126,"duration":0.21614583333331439},{"name":"B3","midi":59,"time":378.9466145833452,"velocity":0.8031496062992126,"duration":0.21875},{"name":"B4","midi":71,"time":378.9466145833452,"velocity":0.8031496062992126,"duration":0.6575520833333712},{"name":"A3","midi":57,"time":379.1679687500119,"velocity":0.8031496062992126,"duration":0.21614583333331439},{"name":"D#5","midi":75,"time":379.1679687500119,"velocity":0.8031496062992126,"duration":0.21614583333331439},{"name":"G3","midi":55,"time":379.3867187500119,"velocity":0.8031496062992126,"duration":0.23307291666668561},{"name":"E5","midi":76,"time":379.3867187500119,"velocity":0.8031496062992126,"duration":0.69140625},{"name":"F#3","midi":54,"time":379.62369791667857,"velocity":0.8031496062992126,"duration":0.23567708333331439},{"name":"A4","midi":69,"time":379.62369791667857,"velocity":0.8031496062992126,"duration":0.23567708333331439},{"name":"E3","midi":52,"time":379.86197916667857,"velocity":0.8031496062992126,"duration":0.23307291666662877},{"name":"G4","midi":67,"time":379.86197916667857,"velocity":0.8031496062992126,"duration":0.23307291666662877},{"name":"A3","midi":57,"time":380.0976562500119,"velocity":0.8031496062992126,"duration":0.23567708333331439},{"name":"F#5","midi":78,"time":380.0976562500119,"velocity":0.8031496062992126,"duration":0.23567708333331439},{"name":"E5","midi":76,"time":380.0976562500119,"velocity":0.8031496062992126,"duration":0.23567708333331439},{"name":"B3","midi":59,"time":380.3359375000119,"velocity":0.8031496062992126,"duration":0.5286458333333144},{"name":"D#5","midi":75,"time":380.3359375000119,"velocity":0.8031496062992126,"duration":0.7760416666666288},{"name":"G5","midi":79,"time":380.3359375000119,"velocity":0.8031496062992126,"duration":0.13020833333331439},{"name":"F#5","midi":78,"time":380.4700520833452,"velocity":0.8031496062992126,"duration":0.13020833333331439},{"name":"G5","midi":79,"time":380.6028645833452,"velocity":0.8031496062992126,"duration":0.13020833333331439},{"name":"F#5","midi":78,"time":380.7356770833452,"velocity":0.8031496062992126,"duration":0.13020833333331439},{"name":"B2","midi":47,"time":380.8684895833452,"velocity":0.8031496062992126,"duration":0.53125},{"name":"G5","midi":79,"time":380.8684895833452,"velocity":0.8031496062992126,"duration":0.13020833333331439},{"name":"F#5","midi":78,"time":381.0013020833452,"velocity":0.8031496062992126,"duration":0.13020833333331439},{"name":"E5","midi":76,"time":381.1341145833452,"velocity":0.8031496062992126,"duration":0.265625},{"name":"E2","midi":40,"time":381.4023437500119,"velocity":0.8031496062992126,"duration":3.515625},{"name":"E5","midi":76,"time":381.4023437500119,"velocity":0.8031496062992126,"duration":3.515625},{"name":"E5","midi":76,"time":386.2981770833452,"velocity":0.8031496062992126,"duration":0.22916666666668561},{"name":"E3","midi":52,"time":386.5325520833452,"velocity":0.8031496062992126,"duration":0.45703125},{"name":"E5","midi":76,"time":386.5325520833452,"velocity":0.8031496062992126,"duration":0.6861979166666856},{"name":"G4","midi":67,"time":386.5325520833452,"velocity":0.8031496062992126,"duration":0.6861979166666856},{"name":"B4","midi":71,"time":386.5325520833452,"velocity":0.8031496062992126,"duration":0.6861979166666856},{"name":"E2","midi":40,"time":386.9921875000119,"velocity":0.8031496062992126,"duration":0.6901041666666856},{"name":"D5","midi":74,"time":387.2226562500119,"velocity":0.8031496062992126,"duration":0.22526041666668561},{"name":"C5","midi":72,"time":387.45182291667857,"velocity":0.8031496062992126,"duration":0.23307291666668561},{"name":"E3","midi":52,"time":387.68750000001194,"velocity":0.8031496062992126,"duration":0.22916666666668561},{"name":"B4","midi":71,"time":387.68750000001194,"velocity":0.8031496062992126,"duration":0.22916666666668561},{"name":"F#3","midi":54,"time":387.91406250001194,"velocity":0.8031496062992126,"duration":0.23177083333337123},{"name":"A4","midi":69,"time":387.91406250001194,"velocity":0.8031496062992126,"duration":0.23177083333337123},{"name":"G3","midi":55,"time":388.148437500012,"velocity":0.8031496062992126,"duration":0.23177083333331439},{"name":"G4","midi":67,"time":388.148437500012,"velocity":0.8031496062992126,"duration":0.23177083333331439},{"name":"A3","midi":57,"time":388.382812500012,"velocity":0.8031496062992126,"duration":0.4661458333333144},{"name":"F#4","midi":66,"time":388.382812500012,"velocity":0.8031496062992126,"duration":0.23177083333331439},{"name":"E5","midi":76,"time":388.617187500012,"velocity":0.8031496062992126,"duration":0.23177083333331439},{"name":"F#3","midi":54,"time":388.8502604166786,"velocity":0.8031496062992126,"duration":0.4661458333333144},{"name":"D#5","midi":75,"time":388.8502604166786,"velocity":0.8031496062992126,"duration":0.23177083333331439},{"name":"A5","midi":81,"time":389.0846354166786,"velocity":0.8031496062992126,"duration":0.23177083333331439},{"name":"B3","midi":59,"time":389.3190104166786,"velocity":0.8031496062992126,"duration":0.4661458333333144},{"name":"A5","midi":81,"time":389.3190104166786,"velocity":0.8031496062992126,"duration":0.23177083333331439},{"name":"G5","midi":79,"time":389.5533854166786,"velocity":0.8031496062992126,"duration":0.23177083333331439},{"name":"B2","midi":47,"time":389.7877604166786,"velocity":0.8031496062992126,"duration":0.46614583333325754},{"name":"A5","midi":81,"time":389.7877604166786,"velocity":0.8031496062992126,"duration":0.23177083333331439},{"name":"F#5","midi":78,"time":390.02083333334525,"velocity":0.8031496062992126,"duration":0.23177083333331439},{"name":"G3","midi":55,"time":390.2552083333452,"velocity":0.8031496062992126,"duration":0.69921875},{"name":"E3","midi":52,"time":390.2552083333452,"velocity":0.8031496062992126,"duration":0.69921875},{"name":"E4","midi":64,"time":390.2552083333452,"velocity":0.8031496062992126,"duration":0.69921875},{"name":"B3","midi":59,"time":390.2552083333452,"velocity":0.8031496062992126,"duration":0.69921875},{"name":"G5","midi":79,"time":390.2552083333452,"velocity":0.8031496062992126,"duration":0.23177083333331439},{"name":"F#5","midi":78,"time":390.4895833333452,"velocity":0.8031496062992126,"duration":0.23177083333331439},{"name":"E5","midi":76,"time":390.7239583333452,"velocity":0.8031496062992126,"duration":0.69921875},{"name":"D4","midi":62,"time":390.9583333333452,"velocity":0.8031496062992126,"duration":0.23177083333331439},{"name":"C4","midi":60,"time":391.1927083333452,"velocity":0.8031496062992126,"duration":0.23177083333331439},{"name":"B3","midi":59,"time":391.4257812500118,"velocity":0.8031496062992126,"duration":0.23177083333331439},{"name":"E5","midi":76,"time":391.4257812500118,"velocity":0.8031496062992126,"duration":0.23177083333331439},{"name":"A3","midi":57,"time":391.6601562500118,"velocity":0.8031496062992126,"duration":0.23177083333331439},{"name":"F#5","midi":78,"time":391.6601562500118,"velocity":0.8031496062992126,"duration":0.23177083333331439},{"name":"G3","midi":55,"time":391.8945312500118,"velocity":0.8031496062992126,"duration":0.23177083333331439},{"name":"G5","midi":79,"time":391.8945312500118,"velocity":0.8031496062992126,"duration":0.23177083333331439},{"name":"F#3","midi":54,"time":392.1289062500118,"velocity":0.8031496062992126,"duration":0.23177083333331439},{"name":"A5","midi":81,"time":392.1289062500118,"velocity":0.8031496062992126,"duration":0.23177083333331439},{"name":"E4","midi":64,"time":392.3632812500118,"velocity":0.8031496062992126,"duration":0.22916666666668561},{"name":"B5","midi":83,"time":392.3632812500118,"velocity":0.8031496062992126,"duration":0.11328125},{"name":"C6","midi":84,"time":392.4791666666785,"velocity":0.8031496062992126,"duration":0.11328125},{"name":"D#4","midi":63,"time":392.5950520833452,"velocity":0.8031496062992126,"duration":0.23177083333331439},{"name":"B5","midi":83,"time":392.5950520833452,"velocity":0.8031496062992126,"duration":0.23177083333331439},{"name":"A4","midi":69,"time":392.8294270833452,"velocity":0.8031496062992126,"duration":0.23177083333331439},{"name":"E5","midi":76,"time":392.8294270833452,"velocity":0.8031496062992126,"duration":0.23177083333331439},{"name":"A4","midi":69,"time":393.0638020833452,"velocity":0.8031496062992126,"duration":0.23177083333331439},{"name":"E5","midi":76,"time":393.0638020833452,"velocity":0.8031496062992126,"duration":0.15364583333331439},{"name":"D#5","midi":75,"time":393.2187500000118,"velocity":0.8031496062992126,"duration":0.08333333333331439},{"name":"G4","midi":67,"time":393.2968750000118,"velocity":0.8031496062992126,"duration":0.22656249999994316},{"name":"E5","midi":76,"time":393.30598958334514,"velocity":0.8031496062992126,"duration":0.08333333333331439},{"name":"D#5","midi":75,"time":393.39192708334514,"velocity":0.8031496062992126,"duration":0.08333333333331439},{"name":"E5","midi":76,"time":393.47916666667845,"velocity":0.8031496062992126,"duration":0.08333333333331439},{"name":"A4","midi":69,"time":393.52734375001177,"velocity":0.8031496062992126,"duration":0.22916666666668561},{"name":"D#5","midi":75,"time":393.56510416667845,"velocity":0.8031496062992126,"duration":0.20833333333337123},{"name":"F#4","midi":66,"time":393.75911458334514,"velocity":0.8031496062992126,"duration":0.23177083333337123},{"name":"E5","midi":76,"time":393.75911458334514,"velocity":0.8031496062992126,"duration":0.23177083333337123},{"name":"G4","midi":67,"time":393.9934895833452,"velocity":0.8031496062992126,"duration":0.23177083333331439},{"name":"E5","midi":76,"time":393.9934895833452,"velocity":0.8031496062992126,"duration":0.69921875},{"name":"F#4","midi":66,"time":394.2278645833452,"velocity":0.8031496062992126,"duration":0.23177083333331439},{"name":"E4","midi":64,"time":394.4622395833452,"velocity":0.8031496062992126,"duration":0.4661458333333144},{"name":"C6","midi":84,"time":394.6953125000119,"velocity":0.8031496062992126,"duration":0.23177083333331439},{"name":"F#4","midi":66,"time":394.9296875000118,"velocity":0.8031496062992126,"duration":0.4661458333333144},{"name":"D5","midi":74,"time":394.9296875000118,"velocity":0.8031496062992126,"duration":0.23177083333331439},{"name":"C6","midi":84,"time":395.1640625000118,"velocity":0.8031496062992126,"duration":0.23177083333331439},{"name":"G#4","midi":68,"time":395.3984375000118,"velocity":0.8031496062992126,"duration":0.4661458333333144},{"name":"D5","midi":74,"time":395.3984375000118,"velocity":0.8031496062992126,"duration":0.23177083333331439},{"name":"B5","midi":83,"time":395.6328125000118,"velocity":0.8031496062992126,"duration":0.23177083333331439},{"name":"A4","midi":69,"time":395.8671875000118,"velocity":0.8031496062992126,"duration":0.22916666666668561},{"name":"D5","midi":74,"time":395.8671875000118,"velocity":0.8031496062992126,"duration":0.11328125},{"name":"C5","midi":72,"time":395.9830729166785,"velocity":0.8031496062992126,"duration":0.11328125},{"name":"G4","midi":67,"time":396.0989583333452,"velocity":0.8031496062992126,"duration":0.23177083333331439},{"name":"B4","midi":71,"time":396.0989583333452,"velocity":0.8031496062992126,"duration":0.23177083333331439},{"name":"F#4","midi":66,"time":396.3333333333452,"velocity":0.8031496062992126,"duration":0.23177083333331439},{"name":"C5","midi":72,"time":396.3333333333452,"velocity":0.8031496062992126,"duration":0.23177083333331439},{"name":"E4","midi":64,"time":396.5664062500118,"velocity":0.8031496062992126,"duration":0.23177083333331439},{"name":"A5","midi":81,"time":396.5664062500118,"velocity":0.8031496062992126,"duration":0.23177083333331439},{"name":"D#4","midi":63,"time":396.8007812500118,"velocity":0.8031496062992126,"duration":0.4661458333333144},{"name":"B4","midi":71,"time":396.8007812500118,"velocity":0.8031496062992126,"duration":0.23177083333331439},{"name":"A5","midi":81,"time":397.0351562500118,"velocity":0.8031496062992126,"duration":0.23177083333331439},{"name":"E4","midi":64,"time":397.2695312500118,"velocity":0.8031496062992126,"duration":0.9322916666666288},{"name":"B4","midi":71,"time":397.2695312500118,"velocity":0.8031496062992126,"duration":0.23177083333331439},{"name":"G5","midi":79,"time":397.5039062500118,"velocity":0.8031496062992126,"duration":0.23177083333331439},{"name":"B4","midi":71,"time":397.73697916667845,"velocity":0.8031496062992126,"duration":0.11328125},{"name":"A4","midi":69,"time":397.85416666667845,"velocity":0.8031496062992126,"duration":0.11328125},{"name":"G4","midi":67,"time":397.97005208334514,"velocity":0.8031496062992126,"duration":0.23177083333331439},{"name":"D#4","midi":63,"time":398.20312500001177,"velocity":0.8031496062992126,"duration":0.4661458333333144},{"name":"A4","midi":69,"time":398.20312500001177,"velocity":0.8031496062992126,"duration":0.23177083333331439},{"name":"F#5","midi":78,"time":398.43750000001177,"velocity":0.8031496062992126,"duration":0.23177083333331439},{"name":"E4","midi":64,"time":398.67187500001177,"velocity":0.8031496062992126,"duration":0.4661458333333144},{"name":"G4","midi":67,"time":398.67187500001177,"velocity":0.8031496062992126,"duration":0.23177083333331439},{"name":"F#5","midi":78,"time":398.90625000001177,"velocity":0.8031496062992126,"duration":0.23177083333331439},{"name":"E3","midi":52,"time":399.14062500001177,"velocity":0.8031496062992126,"duration":0.4661458333333144},{"name":"G4","midi":67,"time":399.14062500001177,"velocity":0.8031496062992126,"duration":0.23177083333331439},{"name":"E5","midi":76,"time":399.37500000001177,"velocity":0.8031496062992126,"duration":0.23177083333331439},{"name":"B3","midi":59,"time":399.6080729166784,"velocity":0.8031496062992126,"duration":0.69921875},{"name":"F#4","midi":66,"time":399.6080729166784,"velocity":0.8031496062992126,"duration":0.23177083333331439},{"name":"E5","midi":76,"time":399.8424479166784,"velocity":0.8031496062992126,"duration":0.23177083333331439},{"name":"D#5","midi":75,"time":400.0768229166784,"velocity":0.8031496062992126,"duration":0.4661458333333144},{"name":"A3","midi":57,"time":400.3111979166784,"velocity":0.8031496062992126,"duration":0.23177083333331439},{"name":"G3","midi":55,"time":400.5455729166784,"velocity":0.8031496062992126,"duration":0.23177083333331439},{"name":"E5","midi":76,"time":400.5455729166784,"velocity":0.8031496062992126,"duration":1.1705729166666288},{"name":"F#3","midi":54,"time":400.778645833345,"velocity":0.8031496062992126,"duration":0.23177083333331439},{"name":"D5","midi":74,"time":400.778645833345,"velocity":0.8031496062992126,"duration":0.23177083333331439},{"name":"E3","midi":52,"time":401.013020833345,"velocity":0.8031496062992126,"duration":0.23177083333331439},{"name":"C#5","midi":73,"time":401.013020833345,"velocity":0.8031496062992126,"duration":0.23177083333331439},{"name":"D3","midi":50,"time":401.247395833345,"velocity":0.8031496062992126,"duration":0.23177083333331439},{"name":"B4","midi":71,"time":401.247395833345,"velocity":0.8031496062992126,"duration":0.23177083333331439},{"name":"C#3","midi":49,"time":401.481770833345,"velocity":0.8031496062992126,"duration":0.23177083333331439},{"name":"A#4","midi":70,"time":401.481770833345,"velocity":0.8031496062992126,"duration":0.6822916666666856},{"name":"B3","midi":59,"time":401.716145833345,"velocity":0.8031496062992126,"duration":0.23177083333331439},{"name":"G5","midi":79,"time":401.716145833345,"velocity":0.8031496062992126,"duration":0.23177083333331439},{"name":"A#3","midi":58,"time":401.950520833345,"velocity":0.8031496062992126,"duration":0.23177083333337123},{"name":"F#5","midi":78,"time":401.950520833345,"velocity":0.8031496062992126,"duration":0.23177083333337123},{"name":"E4","midi":64,"time":402.1835937500117,"velocity":0.8031496062992126,"duration":0.23177083333331439},{"name":"E5","midi":76,"time":402.1835937500117,"velocity":0.8031496062992126,"duration":0.23177083333331439},{"name":"C#5","midi":73,"time":402.1835937500117,"velocity":0.8031496062992126,"duration":0.23177083333331439},{"name":"E4","midi":64,"time":402.4179687500117,"velocity":0.8031496062992126,"duration":0.23177083333331439},{"name":"D5","midi":74,"time":402.4179687500117,"velocity":0.8031496062992126,"duration":0.4661458333333144},{"name":"B4","midi":71,"time":402.4179687500117,"velocity":0.8031496062992126,"duration":0.4661458333333144},{"name":"D4","midi":62,"time":402.6523437500117,"velocity":0.8031496062992126,"duration":0.23177083333331439},{"name":"E4","midi":64,"time":402.8867187500117,"velocity":0.8031496062992126,"duration":0.23177083333331439},{"name":"A#4","midi":70,"time":402.8867187500117,"velocity":0.8031496062992126,"duration":0.23177083333331439},{"name":"C#5","midi":73,"time":402.8867187500117,"velocity":0.8031496062992126,"duration":0.3098958333333144},{"name":"C#4","midi":61,"time":403.1210937500117,"velocity":0.8031496062992126,"duration":0.23177083333331439},{"name":"B4","midi":71,"time":403.1992187500117,"velocity":0.8031496062992126,"duration":0.15364583333331439},{"name":"D4","midi":62,"time":403.3554687500117,"velocity":0.8031496062992126,"duration":0.23177083333331439},{"name":"B4","midi":71,"time":403.3554687500117,"velocity":0.8031496062992126,"duration":0.6992187499999432},{"name":"B3","midi":59,"time":403.58854166667834,"velocity":0.8031496062992126,"duration":0.23177083333331439},{"name":"C#4","midi":61,"time":403.82291666667834,"velocity":0.8031496062992126,"duration":0.23177083333331439},{"name":"D4","midi":62,"time":404.05729166667834,"velocity":0.8031496062992126,"duration":0.23177083333331439},{"name":"A4","midi":69,"time":404.05729166667834,"velocity":0.8031496062992126,"duration":0.23177083333331439},{"name":"E4","midi":64,"time":404.29166666667834,"velocity":0.8031496062992126,"duration":0.4635416666666856},{"name":"G4","midi":67,"time":404.29166666667834,"velocity":0.8031496062992126,"duration":0.23177083333331439},{"name":"F#4","midi":66,"time":404.52604166667834,"velocity":0.8031496062992126,"duration":0.23177083333337123},{"name":"E4","midi":64,"time":404.759114583345,"velocity":0.8031496062992126,"duration":0.6822916666666856},{"name":"D4","midi":62,"time":404.993489583345,"velocity":0.8031496062992126,"duration":0.23177083333331439},{"name":"C#4","midi":61,"time":405.227864583345,"velocity":0.8031496062992126,"duration":0.23177083333337123},{"name":"D4","midi":62,"time":405.4622395833451,"velocity":0.8031496062992126,"duration":0.23177083333331439},{"name":"B4","midi":71,"time":405.4622395833451,"velocity":0.8031496062992126,"duration":0.23177083333331439},{"name":"C#4","midi":61,"time":405.6966145833451,"velocity":0.8031496062992126,"duration":0.23177083333331439},{"name":"A#4","midi":70,"time":405.6966145833451,"velocity":0.8031496062992126,"duration":0.23177083333331439},{"name":"B3","midi":59,"time":405.9309895833451,"velocity":0.8031496062992126,"duration":0.23177083333331439},{"name":"E5","midi":76,"time":405.9309895833451,"velocity":0.8031496062992126,"duration":0.23177083333331439},{"name":"B3","midi":59,"time":406.1640625000117,"velocity":0.8031496062992126,"duration":0.15494791666668561},{"name":"E5","midi":76,"time":406.1640625000117,"velocity":0.8031496062992126,"duration":0.23177083333337123},{"name":"A#3","midi":58,"time":406.3190104166784,"velocity":0.8031496062992126,"duration":0.11588541666674246},{"name":"D5","midi":74,"time":406.39843750001177,"velocity":0.8031496062992126,"duration":0.23307291666668561},{"name":"B3","midi":59,"time":406.42447916667845,"velocity":0.8031496062992126,"duration":0.11588541666668561},{"name":"A#3","midi":58,"time":406.52994791667845,"velocity":0.8031496062992126,"duration":0.11588541666668561},{"name":"B3","midi":59,"time":406.63541666667845,"velocity":0.8031496062992126,"duration":0.11588541666668561},{"name":"E5","midi":76,"time":406.63541666667845,"velocity":0.8031496062992126,"duration":0.23307291666668561},{"name":"A#3","midi":58,"time":406.74088541667845,"velocity":0.8031496062992126,"duration":0.12760416666668561},{"name":"A#3","midi":58,"time":406.8710937500118,"velocity":0.8031496062992126,"duration":0.23177083333331439},{"name":"C#5","midi":73,"time":406.8710937500118,"velocity":0.8031496062992126,"duration":0.23177083333331439},{"name":"B3","midi":59,"time":407.1054687500118,"velocity":0.8031496062992126,"duration":0.69921875},{"name":"D5","midi":74,"time":407.1054687500118,"velocity":0.8031496062992126,"duration":0.23177083333331439},{"name":"C#5","midi":73,"time":407.3398437500118,"velocity":0.8031496062992126,"duration":0.23177083333331439},{"name":"B4","midi":71,"time":407.5742187500118,"velocity":0.8031496062992126,"duration":0.4661458333333144},{"name":"G4","midi":67,"time":407.8072916666785,"velocity":0.8031496062992126,"duration":0.23177083333331439},{"name":"A3","midi":57,"time":408.04166666667845,"velocity":0.8031496062992126,"duration":0.22916666666668561},{"name":"C#5","midi":73,"time":408.04166666667845,"velocity":0.8031496062992126,"duration":0.11328125},{"name":"D#5","midi":75,"time":408.15755208334514,"velocity":0.8031496062992126,"duration":0.11328125},{"name":"G4","midi":67,"time":408.2734375000118,"velocity":0.8031496062992126,"duration":0.22916666666668561},{"name":"C#5","midi":73,"time":408.2734375000118,"velocity":0.8031496062992126,"duration":0.11328125},{"name":"D#5","midi":75,"time":408.3893229166785,"velocity":0.8031496062992126,"duration":0.11328125},{"name":"A3","midi":57,"time":408.5065104166785,"velocity":0.8031496062992126,"duration":0.22916666666668561},{"name":"E5","midi":76,"time":408.5065104166785,"velocity":0.8031496062992126,"duration":0.11328125},{"name":"D#5","midi":75,"time":408.6223958333452,"velocity":0.8031496062992126,"duration":0.11328125},{"name":"F#4","midi":66,"time":408.7382812500119,"velocity":0.8031496062992126,"duration":0.22916666666668561},{"name":"C#5","midi":73,"time":408.7382812500119,"velocity":0.8031496062992126,"duration":0.11328125},{"name":"D#5","midi":75,"time":408.85416666667857,"velocity":0.8031496062992126,"duration":0.11328125},{"name":"G3","midi":55,"time":408.97005208334525,"velocity":0.8031496062992126,"duration":0.23177083333331439},{"name":"E5","midi":76,"time":408.97005208334525,"velocity":0.8031496062992126,"duration":0.23177083333331439},{"name":"F#3","midi":54,"time":409.20442708334525,"velocity":0.8031496062992126,"duration":0.23177083333331439},{"name":"D5","midi":74,"time":409.20442708334525,"velocity":0.8031496062992126,"duration":0.23177083333331439},{"name":"G3","midi":55,"time":409.43880208334525,"velocity":0.8031496062992126,"duration":0.23177083333331439},{"name":"C#5","midi":73,"time":409.43880208334525,"velocity":0.8031496062992126,"duration":0.23177083333331439},{"name":"E4","midi":64,"time":409.6718750000119,"velocity":0.8031496062992126,"duration":0.23177083333331439},{"name":"B4","midi":71,"time":409.6718750000119,"velocity":0.8031496062992126,"duration":0.23177083333331439},{"name":"F#3","midi":54,"time":409.9062500000119,"velocity":0.8031496062992126,"duration":0.23177083333331439},{"name":"A#4","midi":70,"time":409.9062500000119,"velocity":0.8031496062992126,"duration":0.4661458333333144},{"name":"E4","midi":64,"time":410.1406250000119,"velocity":0.8031496062992126,"duration":0.23177083333331439},{"name":"F#3","midi":54,"time":410.3750000000119,"velocity":0.8031496062992126,"duration":0.23177083333331439},{"name":"B4","midi":71,"time":410.3750000000119,"velocity":0.8031496062992126,"duration":0.4661458333333144},{"name":"D4","midi":62,"time":410.6093750000119,"velocity":0.8031496062992126,"duration":0.23177083333331439},{"name":"E3","midi":52,"time":410.8437500000119,"velocity":0.8031496062992126,"duration":0.22916666666668561},{"name":"G5","midi":79,"time":410.8437500000119,"velocity":0.8031496062992126,"duration":0.11328125},{"name":"F#5","midi":78,"time":410.95963541667857,"velocity":0.8031496062992126,"duration":0.11328125},{"name":"D3","midi":50,"time":411.07552083334525,"velocity":0.8031496062992126,"duration":0.23177083333331439},{"name":"G5","midi":79,"time":411.07552083334525,"velocity":0.8031496062992126,"duration":0.4635416666666856},{"name":"E3","midi":52,"time":411.30989583334525,"velocity":0.8031496062992126,"duration":0.23177083333337123},{"name":"C#4","midi":61,"time":411.54296875001194,"velocity":0.8031496062992126,"duration":0.23177083333331439},{"name":"A5","midi":81,"time":411.54296875001194,"velocity":0.8031496062992126,"duration":0.23177083333331439},{"name":"D3","midi":50,"time":411.77734375001194,"velocity":0.8031496062992126,"duration":0.23177083333331439},{"name":"F#5","midi":78,"time":411.77734375001194,"velocity":0.8031496062992126,"duration":0.23177083333331439},{"name":"C#4","midi":61,"time":412.01171875001194,"velocity":0.8031496062992126,"duration":0.23177083333331439},{"name":"A#5","midi":82,"time":412.01171875001194,"velocity":0.8031496062992126,"duration":0.23177083333331439},{"name":"D3","midi":50,"time":412.24609375001194,"velocity":0.8031496062992126,"duration":0.23177083333331439},{"name":"B5","midi":83,"time":412.24609375001194,"velocity":0.8031496062992126,"duration":0.23177083333331439},{"name":"B3","midi":59,"time":412.48046875001194,"velocity":0.8031496062992126,"duration":0.23177083333331439},{"name":"G5","midi":79,"time":412.48046875001194,"velocity":0.8031496062992126,"duration":0.23177083333331439},{"name":"C#3","midi":49,"time":412.71354166667857,"velocity":0.8031496062992126,"duration":0.22916666666668561},{"name":"F#5","midi":78,"time":412.71354166667857,"velocity":0.8031496062992126,"duration":0.09375},{"name":"E5","midi":76,"time":412.81119791667857,"velocity":0.8031496062992126,"duration":0.09375},{"name":"F#5","midi":78,"time":412.90755208334525,"velocity":0.8031496062992126,"duration":0.09375},{"name":"B2","midi":47,"time":412.94661458334525,"velocity":0.8031496062992126,"duration":0.23177083333331439},{"name":"E5","midi":76,"time":413.00520833334525,"velocity":0.8031496062992126,"duration":0.40624999999994316},{"name":"C#3","midi":49,"time":413.1796875000119,"velocity":0.8031496062992126,"duration":0.23177083333331439},{"name":"B3","midi":59,"time":413.4140625000119,"velocity":0.8031496062992126,"duration":0.23177083333331439},{"name":"G5","midi":79,"time":413.4140625000119,"velocity":0.8031496062992126,"duration":0.23177083333331439},{"name":"A#3","midi":58,"time":413.6484375000119,"velocity":0.8031496062992126,"duration":0.23177083333331439},{"name":"F#5","midi":78,"time":413.6484375000119,"velocity":0.8031496062992126,"duration":0.23177083333331439},{"name":"G#3","midi":56,"time":413.8828125000119,"velocity":0.8031496062992126,"duration":0.23177083333331439},{"name":"E5","midi":76,"time":413.8828125000119,"velocity":0.8031496062992126,"duration":0.23177083333331439},{"name":"A#3","midi":58,"time":414.1171875000119,"velocity":0.8031496062992126,"duration":0.23177083333331439},{"name":"F#5","midi":78,"time":414.1171875000119,"velocity":0.8031496062992126,"duration":0.23177083333331439},{"name":"C#4","midi":61,"time":414.3515625000119,"velocity":0.8031496062992126,"duration":0.23177083333331439},{"name":"G5","midi":79,"time":414.3515625000119,"velocity":0.8031496062992126,"duration":0.23177083333331439},{"name":"E3","midi":52,"time":414.5846354166785,"velocity":0.8031496062992126,"duration":0.22916666666668561},{"name":"D5","midi":74,"time":414.5846354166785,"velocity":0.8031496062992126,"duration":0.11328125},{"name":"C#5","midi":73,"time":414.6822916666785,"velocity":0.8031496062992126,"duration":0.11328125},{"name":"D5","midi":74,"time":414.7786458333452,"velocity":0.8031496062992126,"duration":0.11328125},{"name":"D3","midi":50,"time":414.8177083333452,"velocity":0.8031496062992126,"duration":0.23177083333331439},{"name":"C#5","midi":73,"time":414.8763020833452,"velocity":0.8031496062992126,"duration":0.40624999999994316},{"name":"E3","midi":52,"time":415.0507812500118,"velocity":0.8031496062992126,"duration":0.23177083333331439},{"name":"B3","midi":59,"time":415.2851562500118,"velocity":0.8031496062992126,"duration":0.23177083333331439},{"name":"D5","midi":74,"time":415.2851562500118,"velocity":0.8031496062992126,"duration":0.23177083333331439},{"name":"A#3","midi":58,"time":415.5195312500118,"velocity":0.8031496062992126,"duration":0.23177083333331439},{"name":"C#5","midi":73,"time":415.5195312500118,"velocity":0.8031496062992126,"duration":0.23177083333331439},{"name":"G#3","midi":56,"time":415.7539062500118,"velocity":0.8031496062992126,"duration":0.23177083333331439},{"name":"B4","midi":71,"time":415.7539062500118,"velocity":0.8031496062992126,"duration":0.23177083333331439},{"name":"A#3","midi":58,"time":415.9882812500118,"velocity":0.8031496062992126,"duration":0.23177083333331439},{"name":"C#5","midi":73,"time":415.9882812500118,"velocity":0.8031496062992126,"duration":0.23177083333331439},{"name":"C#4","midi":61,"time":416.2226562500118,"velocity":0.8031496062992126,"duration":0.23177083333331439},{"name":"E5","midi":76,"time":416.2226562500118,"velocity":0.8031496062992126,"duration":0.23177083333331439},{"name":"G3","midi":55,"time":416.45572916667845,"velocity":0.8031496062992126,"duration":0.23177083333331439},{"name":"B4","midi":71,"time":416.45572916667845,"velocity":0.8031496062992126,"duration":0.11328125},{"name":"A#4","midi":70,"time":416.54947916667845,"velocity":0.8031496062992126,"duration":0.11328125},{"name":"B4","midi":71,"time":416.64192708334514,"velocity":0.8031496062992126,"duration":0.11328124999994316},{"name":"F#3","midi":54,"time":416.69010416667845,"velocity":0.8031496062992126,"duration":0.23177083333331439},{"name":"A#4","midi":70,"time":416.73437500001177,"velocity":0.8031496062992126,"duration":0.4127604166666856},{"name":"G3","midi":55,"time":416.92447916667845,"velocity":0.8031496062992126,"duration":0.22916666666668561},{"name":"B3","midi":59,"time":417.1562500000118,"velocity":0.8031496062992126,"duration":0.23177083333331439},{"name":"B4","midi":71,"time":417.1562500000118,"velocity":0.8031496062992126,"duration":0.23177083333331439},{"name":"A#3","midi":58,"time":417.3906250000118,"velocity":0.8031496062992126,"duration":0.23177083333331439},{"name":"C#5","midi":73,"time":417.3906250000118,"velocity":0.8031496062992126,"duration":0.23177083333331439},{"name":"G#3","midi":56,"time":417.6250000000118,"velocity":0.8031496062992126,"duration":0.23177083333331439},{"name":"D5","midi":74,"time":417.6250000000118,"velocity":0.8031496062992126,"duration":0.23177083333331439},{"name":"A#3","midi":58,"time":417.8593750000118,"velocity":0.8031496062992126,"duration":0.23177083333331439},{"name":"C#5","midi":73,"time":417.8593750000118,"velocity":0.8031496062992126,"duration":0.23177083333331439},{"name":"C#4","midi":61,"time":418.09244791667845,"velocity":0.8031496062992126,"duration":0.23177083333331439},{"name":"D5","midi":74,"time":418.09244791667845,"velocity":0.8031496062992126,"duration":0.23177083333331439},{"name":"F#3","midi":54,"time":418.32682291667845,"velocity":0.8031496062992126,"duration":3.7304687499998863},{"name":"E5","midi":76,"time":418.32682291667845,"velocity":0.8031496062992126,"duration":0.23177083333331439},{"name":"G5","midi":79,"time":418.56119791667845,"velocity":0.8031496062992126,"duration":0.23177083333331439},{"name":"A#3","midi":58,"time":418.79557291667845,"velocity":0.8031496062992126,"duration":0.4661458333333144},{"name":"F#5","midi":78,"time":418.79557291667845,"velocity":0.8031496062992126,"duration":0.23177083333331439},{"name":"E5","midi":76,"time":419.02994791667845,"velocity":0.8031496062992126,"duration":0.23177083333331439},{"name":"B3","midi":59,"time":419.26432291667845,"velocity":0.8031496062992126,"duration":0.46614583333325754},{"name":"D5","midi":74,"time":419.26432291667845,"velocity":0.8031496062992126,"duration":0.23177083333331439},{"name":"C#5","midi":73,"time":419.4973958333451,"velocity":0.8031496062992126,"duration":0.23177083333331439},{"name":"D4","midi":62,"time":419.731770833345,"velocity":0.8031496062992126,"duration":0.4661458333333144},{"name":"B4","midi":71,"time":419.731770833345,"velocity":0.8031496062992126,"duration":0.23177083333331439},{"name":"A4","midi":69,"time":419.966145833345,"velocity":0.8031496062992126,"duration":0.23177083333331439},{"name":"B3","midi":59,"time":420.200520833345,"velocity":0.8031496062992126,"duration":0.4661458333333144},{"name":"G#4","midi":68,"time":420.200520833345,"velocity":0.8031496062992126,"duration":0.23177083333331439},{"name":"F#5","midi":78,"time":420.434895833345,"velocity":0.8031496062992126,"duration":0.23177083333331439},{"name":"G#3","midi":56,"time":420.66796875001165,"velocity":0.8031496062992126,"duration":0.4661458333333144},{"name":"F5","midi":77,"time":420.66796875001165,"velocity":0.8031496062992126,"duration":0.23177083333331439},{"name":"B5","midi":83,"time":420.90234375001165,"velocity":0.8031496062992126,"duration":0.23177083333331439},{"name":"F#4","midi":66,"time":421.13671875001165,"velocity":0.8031496062992126,"duration":0.4661458333333144},{"name":"B5","midi":83,"time":421.13671875001165,"velocity":0.8031496062992126,"duration":0.23177083333331439},{"name":"A#5","midi":82,"time":421.37109375001165,"velocity":0.8031496062992126,"duration":0.23177083333331439},{"name":"F4","midi":65,"time":421.60546875001165,"velocity":0.8031496062992126,"duration":0.46614583333337123},{"name":"B5","midi":83,"time":421.60546875001165,"velocity":0.8031496062992126,"duration":0.23177083333331439},{"name":"G#5","midi":80,"time":421.83984375001165,"velocity":0.8031496062992126,"duration":0.23177083333337123},{"name":"F#4","midi":66,"time":422.07291666667834,"velocity":0.8031496062992126,"duration":0.69921875},{"name":"B5","midi":83,"time":422.07291666667834,"velocity":0.8031496062992126,"duration":0.23177083333331439},{"name":"A#5","midi":82,"time":422.30729166667834,"velocity":0.8031496062992126,"duration":0.23177083333331439},{"name":"G#5","midi":80,"time":422.54166666667834,"velocity":0.8031496062992126,"duration":0.23177083333331439},{"name":"E3","midi":52,"time":422.77604166667834,"velocity":0.8031496062992126,"duration":0.23177083333331439},{"name":"F#5","midi":78,"time":422.77604166667834,"velocity":0.8031496062992126,"duration":0.23177083333331439},{"name":"D3","midi":50,"time":423.01041666667834,"velocity":0.8031496062992126,"duration":0.23177083333331439},{"name":"B5","midi":83,"time":423.01041666667834,"velocity":0.8031496062992126,"duration":0.23177083333331439},{"name":"C#3","midi":49,"time":423.24348958334497,"velocity":0.8031496062992126,"duration":0.23177083333331439},{"name":"A5","midi":81,"time":423.24348958334497,"velocity":0.8031496062992126,"duration":0.23177083333331439},{"name":"B2","midi":47,"time":423.47786458334497,"velocity":0.8031496062992126,"duration":0.23177083333331439},{"name":"G5","midi":79,"time":423.47786458334497,"velocity":0.8031496062992126,"duration":0.23177083333331439},{"name":"A2","midi":45,"time":423.71223958334497,"velocity":0.8031496062992126,"duration":0.23177083333331439},{"name":"F#5","midi":78,"time":423.71223958334497,"velocity":0.8031496062992126,"duration":0.23177083333331439},{"name":"G2","midi":43,"time":423.94661458334497,"velocity":0.8031496062992126,"duration":0.23177083333331439},{"name":"E5","midi":76,"time":423.94661458334497,"velocity":0.8031496062992126,"duration":0.23177083333331439},{"name":"F#3","midi":54,"time":424.18098958334497,"velocity":0.8031496062992126,"duration":0.23177083333331439},{"name":"D5","midi":74,"time":424.18098958334497,"velocity":0.8031496062992126,"duration":0.23177083333331439},{"name":"E3","midi":52,"time":424.41536458334497,"velocity":0.8031496062992126,"duration":0.23177083333331439},{"name":"C#5","midi":73,"time":424.41536458334497,"velocity":0.8031496062992126,"duration":0.5833333333333144},{"name":"B3","midi":59,"time":424.6484375000116,"velocity":0.8031496062992126,"duration":0.23177083333331439},{"name":"D5","midi":74,"time":424.6484375000116,"velocity":0.8031496062992126,"duration":0.23177083333331439},{"name":"B3","midi":59,"time":424.8828125000116,"velocity":0.8031496062992126,"duration":0.22916666666668561},{"name":"E5","midi":76,"time":424.8828125000116,"velocity":0.8031496062992126,"duration":0.11328125},{"name":"D5","midi":74,"time":424.9986979166783,"velocity":0.8031496062992126,"duration":0.11328125},{"name":"A#3","midi":58,"time":425.11458333334497,"velocity":0.8031496062992126,"duration":0.23177083333331439},{"name":"E5","midi":76,"time":425.11458333334497,"velocity":0.8031496062992126,"duration":0.4661458333333144},{"name":"B3","midi":59,"time":425.34895833334497,"velocity":0.8031496062992126,"duration":0.23177083333331439},{"name":"G#3","midi":56,"time":425.58333333334497,"velocity":0.8031496062992126,"duration":0.23177083333331439},{"name":"E5","midi":76,"time":425.58333333334497,"velocity":0.8031496062992126,"duration":0.23177083333331439},{"name":"A#3","midi":58,"time":425.81770833334497,"velocity":0.8031496062992126,"duration":0.4635416666666856},{"name":"E5","midi":76,"time":425.81770833334497,"velocity":0.8031496062992126,"duration":0.23177083333331439},{"name":"C#5","midi":73,"time":425.81770833334497,"velocity":0.8031496062992126,"duration":0.4609375},{"name":"F#5","midi":78,"time":426.05208333334497,"velocity":0.8031496062992126,"duration":0.11328125},{"name":"E5","midi":76,"time":426.16796875001165,"velocity":0.8031496062992126,"duration":0.11328125},{"name":"B3","midi":59,"time":426.28385416667834,"velocity":0.8031496062992126,"duration":0.22916666666668561},{"name":"B4","midi":71,"time":426.28385416667834,"velocity":0.8031496062992126,"duration":0.46093750000005684},{"name":"D5","midi":74,"time":426.28385416667834,"velocity":0.8031496062992126,"duration":0.11328125},{"name":"E5","midi":76,"time":426.399739583345,"velocity":0.8031496062992126,"duration":0.11328125},{"name":"E3","midi":52,"time":426.5156250000117,"velocity":0.8031496062992126,"duration":0.23177083333337123},{"name":"F#5","midi":78,"time":426.5156250000117,"velocity":0.8031496062992126,"duration":0.23177083333337123},{"name":"F#3","midi":54,"time":426.75000000001177,"velocity":0.8031496062992126,"duration":0.4661458333333144},{"name":"D5","midi":74,"time":426.75000000001177,"velocity":0.8031496062992126,"duration":0.15364583333331439},{"name":"A#4","midi":70,"time":426.75000000001177,"velocity":0.8031496062992126,"duration":0.6809895833333144},{"name":"C#5","midi":73,"time":426.90625000001177,"velocity":0.8031496062992126,"duration":0.11328125},{"name":"D5","midi":74,"time":426.98437500001177,"velocity":0.8031496062992126,"duration":0.11328125},{"name":"C#5","midi":73,"time":427.06250000001177,"velocity":0.8031496062992126,"duration":0.11328125},{"name":"D5","midi":74,"time":427.14062500001177,"velocity":0.8031496062992126,"duration":0.11328125},{"name":"F#2","midi":42,"time":427.21875000001177,"velocity":0.8031496062992126,"duration":0.46354166666662877},{"name":"C#5","midi":73,"time":427.21875000001177,"velocity":0.8031496062992126,"duration":0.22916666666662877},{"name":"B4","midi":71,"time":427.4505208333451,"velocity":0.8031496062992126,"duration":0.23177083333331439},{"name":"B2","midi":47,"time":427.6848958333451,"velocity":0.8031496062992126,"duration":3.730468749999943},{"name":"B4","midi":71,"time":427.6848958333451,"velocity":0.8031496062992126,"duration":2.3411458333332575},{"name":"C#3","midi":49,"time":427.91796875001177,"velocity":0.8031496062992126,"duration":0.23177083333331439},{"name":"D#3","midi":51,"time":428.15234375001177,"velocity":0.8031496062992126,"duration":0.4661458333333144},{"name":"A4","midi":69,"time":428.38671875001177,"velocity":0.8031496062992126,"duration":0.23177083333331439},{"name":"E3","midi":52,"time":428.62109375001177,"velocity":0.8031496062992126,"duration":0.4661458333333144},{"name":"G4","midi":67,"time":428.62109375001177,"velocity":0.8031496062992126,"duration":0.23177083333331439},{"name":"F#4","midi":66,"time":428.85546875001177,"velocity":0.8031496062992126,"duration":0.23177083333331439},{"name":"F#3","midi":54,"time":429.08984375001177,"velocity":0.8031496062992126,"duration":0.46614583333325754},{"name":"E4","midi":64,"time":429.08984375001177,"velocity":0.8031496062992126,"duration":0.23177083333331439},{"name":"D4","midi":62,"time":429.3229166666784,"velocity":0.8031496062992126,"duration":0.23177083333331439},{"name":"G3","midi":55,"time":429.55729166667834,"velocity":0.8031496062992126,"duration":0.4661458333333144},{"name":"C#4","midi":61,"time":429.55729166667834,"velocity":0.8031496062992126,"duration":0.92578125},{"name":"E4","midi":64,"time":429.79166666667834,"velocity":0.8031496062992126,"duration":0.23177083333331439},{"name":"E3","midi":52,"time":430.02604166667834,"velocity":0.8031496062992126,"duration":0.4635416666666856},{"name":"B4","midi":71,"time":430.02604166667834,"velocity":0.8031496062992126,"duration":0.23177083333331439},{"name":"A#4","midi":70,"time":430.26041666667834,"velocity":0.8031496062992126,"duration":0.22916666666668561},{"name":"F#3","midi":54,"time":430.4921875000117,"velocity":0.8031496062992126,"duration":0.9361979166666288},{"name":"D#4","midi":63,"time":430.4921875000117,"velocity":0.8031496062992126,"duration":0.6848958333333144},{"name":"F#4","midi":66,"time":430.610677083345,"velocity":0.8031496062992126,"duration":0.5859375},{"name":"B4","midi":71,"time":430.727864583345,"velocity":0.8031496062992126,"duration":0.4661458333333144},{"name":"F#5","midi":78,"time":431.196614583345,"velocity":0.8031496062992126,"duration":0.23177083333331439},{"name":"B2","midi":47,"time":431.430989583345,"velocity":0.8031496062992126,"duration":0.69921875},{"name":"F#5","midi":78,"time":431.430989583345,"velocity":0.8031496062992126,"duration":0.9270833333333712},{"name":"D#5","midi":75,"time":431.665364583345,"velocity":0.8031496062992126,"duration":0.6822916666666856},{"name":"B4","midi":71,"time":431.8984375000117,"velocity":0.8031496062992126,"duration":0.6992187500000568},{"name":"C#3","midi":49,"time":432.1328125000117,"velocity":0.8031496062992126,"duration":0.23177083333337123},{"name":"D#3","midi":51,"time":432.36718750001177,"velocity":0.8031496062992126,"duration":0.23177083333331439},{"name":"E3","midi":52,"time":432.60156250001177,"velocity":0.8031496062992126,"duration":0.23177083333331439},{"name":"G5","midi":79,"time":432.60156250001177,"velocity":0.8031496062992126,"duration":0.23177083333331439},{"name":"F#3","midi":54,"time":432.83593750001177,"velocity":0.8031496062992126,"duration":0.23177083333331439},{"name":"F#5","midi":78,"time":432.83593750001177,"velocity":0.8031496062992126,"duration":0.23177083333331439},{"name":"G3","midi":55,"time":433.0690104166784,"velocity":0.8031496062992126,"duration":0.23177083333331439},{"name":"E5","midi":76,"time":433.0690104166784,"velocity":0.8031496062992126,"duration":0.23177083333331439},{"name":"A3","midi":57,"time":433.3033854166784,"velocity":0.8031496062992126,"duration":0.23177083333331439},{"name":"D#5","midi":75,"time":433.3033854166784,"velocity":0.8031496062992126,"duration":0.69921875},{"name":"D#3","midi":51,"time":433.5377604166784,"velocity":0.8031496062992126,"duration":0.23177083333331439},{"name":"F#3","midi":54,"time":433.7721354166784,"velocity":0.8031496062992126,"duration":0.23177083333331439},{"name":"A3","midi":57,"time":434.0065104166784,"velocity":0.8031496062992126,"duration":0.23177083333331439},{"name":"E5","midi":76,"time":434.0065104166784,"velocity":0.8031496062992126,"duration":0.23177083333331439},{"name":"C4","midi":60,"time":434.2408854166784,"velocity":0.8031496062992126,"duration":0.23177083333331439},{"name":"F#5","midi":78,"time":434.2408854166784,"velocity":0.8031496062992126,"duration":0.23177083333331439},{"name":"B3","midi":59,"time":434.473958333345,"velocity":0.8031496062992126,"duration":0.22916666666668561},{"name":"G5","midi":79,"time":434.473958333345,"velocity":0.8031496062992126,"duration":0.11328125},{"name":"A5","midi":81,"time":434.5898437500117,"velocity":0.8031496062992126,"duration":0.11328125},{"name":"E4","midi":64,"time":434.7070312500117,"velocity":0.8031496062992126,"duration":0.23177083333331439},{"name":"G5","midi":79,"time":434.7070312500117,"velocity":0.8031496062992126,"duration":0.23177083333331439},{"name":"D#4","midi":63,"time":434.94010416667834,"velocity":0.8031496062992126,"duration":0.23177083333331439},{"name":"F#5","midi":78,"time":434.94010416667834,"velocity":0.8031496062992126,"duration":0.23177083333331439},{"name":"E4","midi":64,"time":435.17447916667834,"velocity":0.8031496062992126,"duration":2.572916666666572},{"name":"G5","midi":79,"time":435.17447916667834,"velocity":0.8031496062992126,"duration":0.23177083333331439},{"name":"F#5","midi":78,"time":435.40885416667834,"velocity":0.8031496062992126,"duration":0.23177083333331439},{"name":"E5","midi":76,"time":435.64322916667834,"velocity":0.8031496062992126,"duration":0.23177083333331439},{"name":"F#4","midi":66,"time":435.87760416667834,"velocity":0.8031496062992126,"duration":0.23177083333331439},{"name":"G4","midi":67,"time":436.11067708334497,"velocity":0.8031496062992126,"duration":0.23177083333331439},{"name":"C6","midi":84,"time":436.34505208334497,"velocity":0.8031496062992126,"duration":0.23177083333331439},{"name":"A4","midi":69,"time":436.34505208334497,"velocity":0.8031496062992126,"duration":0.23177083333331439},{"name":"B4","midi":71,"time":436.57942708334497,"velocity":0.8031496062992126,"duration":0.23177083333331439},{"name":"B5","midi":83,"time":436.57942708334497,"velocity":0.8031496062992126,"duration":0.23177083333331439},{"name":"A5","midi":81,"time":436.81380208334497,"velocity":0.8031496062992126,"duration":0.23177083333331439},{"name":"C5","midi":72,"time":436.81380208334497,"velocity":0.8031496062992126,"duration":0.23177083333331439},{"name":"G#5","midi":80,"time":437.04817708334497,"velocity":0.8031496062992126,"duration":0.23177083333331439},{"name":"D5","midi":74,"time":437.04817708334497,"velocity":0.8031496062992126,"duration":0.6822916666666288},{"name":"B5","midi":83,"time":437.28255208334497,"velocity":0.8031496062992126,"duration":0.23177083333331439},{"name":"G#5","midi":80,"time":437.5156250000116,"velocity":0.8031496062992126,"duration":0.23177083333331439},{"name":"E4","midi":64,"time":437.7500000000116,"velocity":0.8031496062992126,"duration":0.23177083333331439},{"name":"E5","midi":76,"time":437.7500000000116,"velocity":0.8031496062992126,"duration":0.23177083333331439},{"name":"B3","midi":59,"time":437.9843750000116,"velocity":0.8031496062992126,"duration":0.23177083333331439},{"name":"F5","midi":77,"time":437.9843750000116,"velocity":0.8031496062992126,"duration":0.23177083333331439},{"name":"C4","midi":60,"time":438.2187500000116,"velocity":0.8031496062992126,"duration":0.11328125},{"name":"E5","midi":76,"time":438.2187500000116,"velocity":0.8031496062992126,"duration":0.22916666666668561},{"name":"D4","midi":62,"time":438.3346354166783,"velocity":0.8031496062992126,"duration":0.11328125},{"name":"C4","midi":60,"time":438.45052083334497,"velocity":0.8031496062992126,"duration":0.23177083333331439},{"name":"A5","midi":81,"time":438.45052083334497,"velocity":0.8031496062992126,"duration":0.23177083333331439},{"name":"B3","midi":59,"time":438.68489583334497,"velocity":0.8031496062992126,"duration":0.23177083333331439},{"name":"G#5","midi":80,"time":438.68489583334497,"velocity":0.8031496062992126,"duration":0.23177083333331439},{"name":"C4","midi":60,"time":438.91927083334497,"velocity":0.8031496062992126,"duration":0.23177083333331439},{"name":"A5","midi":81,"time":438.91927083334497,"velocity":0.8031496062992126,"duration":0.6992187499999432},{"name":"B3","midi":59,"time":439.15364583334497,"velocity":0.8031496062992126,"duration":0.23177083333331439},{"name":"A3","midi":57,"time":439.3867187500116,"velocity":0.8031496062992126,"duration":0.23177083333331439},{"name":"A2","midi":45,"time":439.6210937500116,"velocity":0.8031496062992126,"duration":0.23177083333331439},{"name":"G5","midi":79,"time":439.6210937500116,"velocity":0.8031496062992126,"duration":0.23177083333331439},{"name":"A3","midi":57,"time":439.8554687500116,"velocity":0.8031496062992126,"duration":0.23177083333331439},{"name":"F5","midi":77,"time":439.8554687500116,"velocity":0.8031496062992126,"duration":0.23177083333331439},{"name":"B2","midi":47,"time":440.0898437500116,"velocity":0.8031496062992126,"duration":0.23177083333331439},{"name":"E5","midi":76,"time":440.0898437500116,"velocity":0.8031496062992126,"duration":0.23177083333331439},{"name":"A3","midi":57,"time":440.3242187500116,"velocity":0.8031496062992126,"duration":0.23177083333331439},{"name":"G5","midi":79,"time":440.3242187500116,"velocity":0.8031496062992126,"duration":0.23177083333331439},{"name":"C#3","midi":49,"time":440.5572916666782,"velocity":0.8031496062992126,"duration":0.23177083333331439},{"name":"F5","midi":77,"time":440.5572916666782,"velocity":0.8031496062992126,"duration":0.23177083333331439},{"name":"A#3","midi":58,"time":440.7916666666782,"velocity":0.8031496062992126,"duration":0.23307291666662877},{"name":"F5","midi":77,"time":440.7916666666782,"velocity":0.8031496062992126,"duration":0.12760416666662877},{"name":"E5","midi":76,"time":440.91015625001154,"velocity":0.8031496062992126,"duration":0.11588541666662877},{"name":"C4","midi":60,"time":441.02864583334485,"velocity":0.8031496062992126,"duration":0.23177083333331439},{"name":"F5","midi":77,"time":441.02864583334485,"velocity":0.8031496062992126,"duration":0.4661458333333144},{"name":"A#3","midi":58,"time":441.26302083334485,"velocity":0.8031496062992126,"duration":0.23177083333331439},{"name":"C#3","midi":49,"time":441.4960937500115,"velocity":0.8031496062992126,"duration":0.23177083333331439},{"name":"E5","midi":76,"time":441.4960937500115,"velocity":0.8031496062992126,"duration":0.23177083333331439},{"name":"A#3","midi":58,"time":441.7304687500115,"velocity":0.8031496062992126,"duration":0.23177083333331439},{"name":"D5","midi":74,"time":441.7304687500115,"velocity":0.8031496062992126,"duration":0.23177083333331439},{"name":"D3","midi":50,"time":441.9648437500115,"velocity":0.8031496062992126,"duration":0.23177083333331439},{"name":"C5","midi":72,"time":441.9648437500115,"velocity":0.8031496062992126,"duration":0.23177083333331439},{"name":"C#4","midi":61,"time":442.1992187500115,"velocity":0.8031496062992126,"duration":0.23177083333331439},{"name":"A#4","midi":70,"time":442.1992187500115,"velocity":0.8031496062992126,"duration":0.23177083333331439},{"name":"E3","midi":52,"time":442.4335937500115,"velocity":0.8031496062992126,"duration":0.23177083333331439},{"name":"A4","midi":69,"time":442.4335937500115,"velocity":0.8031496062992126,"duration":0.23177083333331439},{"name":"D4","midi":62,"time":442.6666666666781,"velocity":0.8031496062992126,"duration":0.23177083333331439},{"name":"G#4","midi":68,"time":442.6666666666781,"velocity":0.8031496062992126,"duration":0.69921875},{"name":"E4","midi":64,"time":442.9010416666781,"velocity":0.8031496062992126,"duration":0.23177083333331439},{"name":"D4","midi":62,"time":443.1354166666781,"velocity":0.8031496062992126,"duration":0.23177083333331439},{"name":"E3","midi":52,"time":443.3697916666781,"velocity":0.8031496062992126,"duration":0.22916666666668561},{"name":"A4","midi":69,"time":443.3697916666781,"velocity":0.8031496062992126,"duration":0.11328125},{"name":"B4","midi":71,"time":443.4856770833448,"velocity":0.8031496062992126,"duration":0.11328125},{"name":"D4","midi":62,"time":443.6015625000115,"velocity":0.8031496062992126,"duration":0.23177083333331439},{"name":"A4","midi":69,"time":443.6015625000115,"velocity":0.8031496062992126,"duration":0.23177083333331439},{"name":"F#3","midi":54,"time":443.8359375000115,"velocity":0.8031496062992126,"duration":0.22916666666668561},{"name":"B4","midi":71,"time":443.8359375000115,"velocity":0.8031496062992126,"duration":0.11328125},{"name":"C5","midi":72,"time":443.95182291667817,"velocity":0.8031496062992126,"duration":0.11328125},{"name":"D4","midi":62,"time":444.06770833334485,"velocity":0.8031496062992126,"duration":0.23177083333331439},{"name":"B4","midi":71,"time":444.06770833334485,"velocity":0.8031496062992126,"duration":0.23177083333331439},{"name":"G#3","midi":56,"time":444.30208333334485,"velocity":0.8031496062992126,"duration":0.22916666666668561},{"name":"C5","midi":72,"time":444.30208333334485,"velocity":0.8031496062992126,"duration":0.11328125},{"name":"D5","midi":74,"time":444.41796875001154,"velocity":0.8031496062992126,"duration":0.11328125},{"name":"A3","midi":57,"time":444.5338541666782,"velocity":0.8031496062992126,"duration":0.46744791666662877},{"name":"C5","midi":72,"time":444.5338541666782,"velocity":0.8031496062992126,"duration":0.23177083333331439},{"name":"B4","midi":71,"time":444.7682291666782,"velocity":0.8031496062992126,"duration":0.12760416666662877},{"name":"A4","midi":69,"time":444.88671875001154,"velocity":0.8031496062992126,"duration":0.11588541666662877},{"name":"D3","midi":50,"time":445.0039062500115,"velocity":0.8031496062992126,"duration":0.4661458333333144},{"name":"F5","midi":77,"time":445.0039062500115,"velocity":0.8031496062992126,"duration":0.23177083333331439},{"name":"E5","midi":76,"time":445.2382812500115,"velocity":0.8031496062992126,"duration":0.23177083333331439},{"name":"E3","midi":52,"time":445.4726562500115,"velocity":0.8031496062992126,"duration":0.4661458333333144},{"name":"D5","midi":74,"time":445.4726562500115,"velocity":0.8031496062992126,"duration":0.23177083333331439},{"name":"C5","midi":72,"time":445.7070312500115,"velocity":0.8031496062992126,"duration":0.23177083333331439},{"name":"E2","midi":40,"time":445.9414062500115,"velocity":0.8031496062992126,"duration":0.4661458333333144},{"name":"B4","midi":71,"time":445.9414062500115,"velocity":0.8031496062992126,"duration":0.23177083333331439},{"name":"A4","midi":69,"time":446.1757812500115,"velocity":0.8031496062992126,"duration":0.23177083333331439},{"name":"A2","midi":45,"time":446.4088541666781,"velocity":0.8031496062992126,"duration":0.23177083333331439},{"name":"C4","midi":60,"time":446.4088541666781,"velocity":0.8031496062992126,"duration":0.6822916666666856},{"name":"E4","midi":64,"time":446.5273437500114,"velocity":0.8031496062992126,"duration":0.5833333333333712},{"name":"E3","midi":52,"time":446.6432291666781,"velocity":0.8031496062992126,"duration":0.23177083333331439},{"name":"A4","midi":69,"time":446.6432291666781,"velocity":0.8031496062992126,"duration":0.46614583333337123},{"name":"A3","midi":57,"time":446.8776041666781,"velocity":0.8031496062992126,"duration":0.69921875},{"name":"B3","midi":59,"time":447.1119791666781,"velocity":0.8031496062992126,"duration":0.23177083333331439},{"name":"C#4","midi":61,"time":447.3463541666781,"velocity":0.8031496062992126,"duration":0.23177083333331439},{"name":"A3","midi":57,"time":447.57942708334474,"velocity":0.8031496062992126,"duration":0.23177083333331439},{"name":"D4","midi":62,"time":447.57942708334474,"velocity":0.8031496062992126,"duration":0.23177083333331439},{"name":"G3","midi":55,"time":447.81380208334474,"velocity":0.8031496062992126,"duration":0.23177083333331439},{"name":"E4","midi":64,"time":447.81380208334474,"velocity":0.8031496062992126,"duration":0.23177083333331439},{"name":"F#3","midi":54,"time":448.04817708334474,"velocity":0.8031496062992126,"duration":0.23177083333331439},{"name":"F#4","midi":66,"time":448.04817708334474,"velocity":0.8031496062992126,"duration":0.23177083333331439},{"name":"E3","midi":52,"time":448.28255208334474,"velocity":0.8031496062992126,"duration":0.23177083333331439},{"name":"G4","midi":67,"time":448.28255208334474,"velocity":0.8031496062992126,"duration":0.23177083333331439},{"name":"G3","midi":55,"time":448.51692708334474,"velocity":0.8031496062992126,"duration":0.23177083333331439},{"name":"E4","midi":64,"time":448.51692708334474,"velocity":0.8031496062992126,"duration":0.23177083333331439},{"name":"E3","midi":52,"time":448.75130208334474,"velocity":0.8031496062992126,"duration":0.23177083333331439},{"name":"G4","midi":67,"time":448.75130208334474,"velocity":0.8031496062992126,"duration":0.23177083333331439},{"name":"C#3","midi":49,"time":448.98437500001137,"velocity":0.8031496062992126,"duration":0.23177083333331439},{"name":"A4","midi":69,"time":448.98437500001137,"velocity":0.8031496062992126,"duration":0.23177083333331439},{"name":"A2","midi":45,"time":449.21875000001137,"velocity":0.8031496062992126,"duration":0.23177083333331439},{"name":"C#5","midi":73,"time":449.21875000001137,"velocity":0.8031496062992126,"duration":0.23177083333331439},{"name":"C#3","midi":49,"time":449.45312500001137,"velocity":0.8031496062992126,"duration":0.23177083333331439},{"name":"E5","midi":76,"time":449.45312500001137,"velocity":0.8031496062992126,"duration":0.23177083333331439},{"name":"B2","midi":47,"time":449.68750000001137,"velocity":0.8031496062992126,"duration":0.23177083333331439},{"name":"G5","midi":79,"time":449.68750000001137,"velocity":0.8031496062992126,"duration":0.23177083333331439},{"name":"A2","midi":45,"time":449.92187500001137,"velocity":0.8031496062992126,"duration":0.23177083333331439},{"name":"F#5","midi":78,"time":449.92187500001137,"velocity":0.8031496062992126,"duration":0.23177083333331439},{"name":"D3","midi":50,"time":450.154947916678,"velocity":0.8031496062992126,"duration":0.69921875},{"name":"F#5","midi":78,"time":450.154947916678,"velocity":0.8031496062992126,"duration":0.23177083333331439},{"name":"E5","midi":76,"time":450.389322916678,"velocity":0.8031496062992126,"duration":0.23177083333331439},{"name":"D5","midi":74,"time":450.623697916678,"velocity":0.8031496062992126,"duration":0.69921875},{"name":"E3","midi":52,"time":450.858072916678,"velocity":0.8031496062992126,"duration":0.23177083333331439},{"name":"F#3","midi":54,"time":451.092447916678,"velocity":0.8031496062992126,"duration":0.23177083333331439},{"name":"G3","midi":55,"time":451.326822916678,"velocity":0.8031496062992126,"duration":0.23177083333331439},{"name":"E5","midi":76,"time":451.326822916678,"velocity":0.8031496062992126,"duration":0.23177083333331439},{"name":"A3","midi":57,"time":451.5598958333446,"velocity":0.8031496062992126,"duration":0.23177083333331439},{"name":"F#5","midi":78,"time":451.5598958333446,"velocity":0.8031496062992126,"duration":0.23177083333331439},{"name":"B3","midi":59,"time":451.7942708333446,"velocity":0.8031496062992126,"duration":0.23177083333331439},{"name":"G5","midi":79,"time":451.7942708333446,"velocity":0.8031496062992126,"duration":0.23177083333331439},{"name":"C4","midi":60,"time":452.0286458333446,"velocity":0.8031496062992126,"duration":0.23177083333331439},{"name":"A5","midi":81,"time":452.0286458333446,"velocity":0.8031496062992126,"duration":0.23177083333331439},{"name":"F#3","midi":54,"time":452.2630208333446,"velocity":0.8031496062992126,"duration":0.22916666666668561},{"name":"B5","midi":83,"time":452.2630208333446,"velocity":0.8031496062992126,"duration":0.11328125},{"name":"C6","midi":84,"time":452.3789062500113,"velocity":0.8031496062992126,"duration":0.11328125},{"name":"A3","midi":57,"time":452.494791666678,"velocity":0.8031496062992126,"duration":0.23177083333331439},{"name":"F#5","midi":78,"time":452.494791666678,"velocity":0.8031496062992126,"duration":0.23177083333331439},{"name":"C4","midi":60,"time":452.729166666678,"velocity":0.8031496062992126,"duration":0.22916666666668561},{"name":"G5","midi":79,"time":452.729166666678,"velocity":0.8031496062992126,"duration":0.11328125},{"name":"A5","midi":81,"time":452.8450520833447,"velocity":0.8031496062992126,"duration":0.11328125},{"name":"E4","midi":64,"time":452.96093750001137,"velocity":0.8031496062992126,"duration":0.23177083333331439},{"name":"D5","midi":74,"time":452.96093750001137,"velocity":0.8031496062992126,"duration":0.4661458333333144},{"name":"D4","midi":62,"time":453.19531250001137,"velocity":0.8031496062992126,"duration":0.23177083333331439},{"name":"G4","midi":67,"time":453.42968750001137,"velocity":0.8031496062992126,"duration":0.22916666666668561},{"name":"D5","midi":74,"time":453.42968750001137,"velocity":0.8031496062992126,"duration":0.11328125},{"name":"C5","midi":72,"time":453.54557291667805,"velocity":0.8031496062992126,"duration":0.11328125},{"name":"F#4","midi":66,"time":453.66145833334474,"velocity":0.8031496062992126,"duration":0.22916666666668561},{"name":"B4","midi":71,"time":453.66145833334474,"velocity":0.8031496062992126,"duration":0.11328125},{"name":"C5","midi":72,"time":453.7773437500114,"velocity":0.8031496062992126,"duration":0.11328125},{"name":"G4","midi":67,"time":453.8932291666781,"velocity":0.8031496062992126,"duration":0.69921875},{"name":"B4","midi":71,"time":453.8932291666781,"velocity":0.8031496062992126,"duration":0.23177083333331439},{"name":"D5","midi":74,"time":454.1276041666781,"velocity":0.8031496062992126,"duration":0.23177083333331439},{"name":"E5","midi":76,"time":454.3619791666781,"velocity":0.8031496062992126,"duration":0.23177083333331439},{"name":"F#4","midi":66,"time":454.5963541666781,"velocity":0.8031496062992126,"duration":0.23177083333331439},{"name":"F#5","midi":78,"time":454.5963541666781,"velocity":0.8031496062992126,"duration":0.23177083333331439},{"name":"E4","midi":64,"time":454.82942708334474,"velocity":0.8031496062992126,"duration":0.22916666666668561},{"name":"G5","midi":79,"time":454.82942708334474,"velocity":0.8031496062992126,"duration":0.11328125},{"name":"F#5","midi":78,"time":454.9453125000114,"velocity":0.8031496062992126,"duration":0.11328125},{"name":"D4","midi":62,"time":455.0625000000114,"velocity":0.8031496062992126,"duration":0.23177083333331439},{"name":"G5","midi":79,"time":455.0625000000114,"velocity":0.8031496062992126,"duration":0.46614583333325754},{"name":"C4","midi":60,"time":455.29557291667805,"velocity":0.8031496062992126,"duration":0.23177083333331439},{"name":"B3","midi":59,"time":455.529947916678,"velocity":0.8031496062992126,"duration":0.23177083333331439},{"name":"G5","midi":79,"time":455.529947916678,"velocity":0.8031496062992126,"duration":0.23177083333331439},{"name":"A3","midi":57,"time":455.764322916678,"velocity":0.8031496062992126,"duration":0.23177083333331439},{"name":"G5","midi":79,"time":455.764322916678,"velocity":0.8031496062992126,"duration":0.23177083333331439},{"name":"B3","midi":59,"time":455.998697916678,"velocity":0.8031496062992126,"duration":0.23177083333331439},{"name":"F#5","midi":78,"time":455.998697916678,"velocity":0.8031496062992126,"duration":0.23177083333331439},{"name":"C4","midi":60,"time":456.233072916678,"velocity":0.8031496062992126,"duration":0.23177083333331439},{"name":"A5","midi":81,"time":456.233072916678,"velocity":0.8031496062992126,"duration":0.23177083333331439},{"name":"B3","midi":59,"time":456.4661458333446,"velocity":0.8031496062992126,"duration":0.23177083333331439},{"name":"G5","midi":79,"time":456.4661458333446,"velocity":0.8031496062992126,"duration":0.23177083333331439},{"name":"A3","midi":57,"time":456.7005208333446,"velocity":0.8031496062992126,"duration":0.23177083333331439},{"name":"F#5","midi":78,"time":456.7005208333446,"velocity":0.8031496062992126,"duration":0.23177083333331439},{"name":"G3","midi":55,"time":456.9348958333446,"velocity":0.8031496062992126,"duration":0.23177083333331439},{"name":"E5","midi":76,"time":456.9348958333446,"velocity":0.8031496062992126,"duration":0.23177083333331439},{"name":"F#3","midi":54,"time":457.1692708333446,"velocity":0.8031496062992126,"duration":0.23177083333331439},{"name":"D#5","midi":75,"time":457.1692708333446,"velocity":0.8031496062992126,"duration":0.23177083333331439},{"name":"E3","midi":52,"time":457.4036458333446,"velocity":0.8031496062992126,"duration":0.23177083333331439},{"name":"E5","midi":76,"time":457.4036458333446,"velocity":0.8031496062992126,"duration":0.23177083333331439},{"name":"B3","midi":59,"time":457.6380208333446,"velocity":0.8031496062992126,"duration":0.6979166666666856},{"name":"G4","midi":67,"time":457.6380208333446,"velocity":0.8031496062992126,"duration":0.11328125},{"name":"F#4","midi":66,"time":457.7539062500113,"velocity":0.8031496062992126,"duration":0.11328125},{"name":"E4","midi":64,"time":457.869791666678,"velocity":0.8031496062992126,"duration":0.23177083333331439},{"name":"F#4","midi":66,"time":458.104166666678,"velocity":0.8031496062992126,"duration":0.46354166666662877},{"name":"C4","midi":60,"time":458.3372395833446,"velocity":0.8031496062992126,"duration":0.23177083333331439},{"name":"E5","midi":76,"time":458.3372395833446,"velocity":0.8031496062992126,"duration":0.23177083333331439},{"name":"B3","midi":59,"time":458.5716145833446,"velocity":0.8031496062992126,"duration":0.23177083333331439},{"name":"D#5","midi":75,"time":458.5716145833446,"velocity":0.8031496062992126,"duration":0.23177083333331439},{"name":"A3","midi":57,"time":458.8059895833446,"velocity":0.8031496062992126,"duration":0.23177083333331439},{"name":"C#5","midi":73,"time":458.8059895833446,"velocity":0.8031496062992126,"duration":0.23177083333331439},{"name":"B3","midi":59,"time":459.0403645833446,"velocity":0.8031496062992126,"duration":0.23177083333331439},{"name":"D#5","midi":75,"time":459.0403645833446,"velocity":0.8031496062992126,"duration":0.23177083333331439},{"name":"C4","midi":60,"time":459.2747395833446,"velocity":0.8031496062992126,"duration":0.23177083333331439},{"name":"F#5","midi":78,"time":459.2747395833446,"velocity":0.8031496062992126,"duration":0.23177083333331439},{"name":"F#3","midi":54,"time":459.5091145833446,"velocity":0.8031496062992126,"duration":0.6979166666666856},{"name":"B4","midi":71,"time":459.5091145833446,"velocity":0.8031496062992126,"duration":0.11328125},{"name":"A4","midi":69,"time":459.6250000000113,"velocity":0.8031496062992126,"duration":0.11328125},{"name":"G4","midi":67,"time":459.740885416678,"velocity":0.8031496062992126,"duration":0.23177083333331439},{"name":"A4","midi":69,"time":459.975260416678,"velocity":0.8031496062992126,"duration":0.46354166666662877},{"name":"G3","midi":55,"time":460.2083333333446,"velocity":0.8031496062992126,"duration":0.23177083333331439},{"name":"E5","midi":76,"time":460.2083333333446,"velocity":0.8031496062992126,"duration":0.23177083333331439},{"name":"F#3","midi":54,"time":460.4427083333446,"velocity":0.8031496062992126,"duration":0.23177083333331439},{"name":"D#5","midi":75,"time":460.4427083333446,"velocity":0.8031496062992126,"duration":0.23177083333331439},{"name":"E3","midi":52,"time":460.6770833333446,"velocity":0.8031496062992126,"duration":0.23177083333331439},{"name":"C#5","midi":73,"time":460.6770833333446,"velocity":0.8031496062992126,"duration":0.23177083333331439},{"name":"F#3","midi":54,"time":460.9114583333446,"velocity":0.8031496062992126,"duration":0.23177083333331439},{"name":"D#5","midi":75,"time":460.9114583333446,"velocity":0.8031496062992126,"duration":0.23177083333331439},{"name":"A3","midi":57,"time":461.1458333333446,"velocity":0.8031496062992126,"duration":0.23177083333331439},{"name":"F#5","midi":78,"time":461.1458333333446,"velocity":0.8031496062992126,"duration":0.23177083333331439},{"name":"D#3","midi":51,"time":461.37890625001125,"velocity":0.8031496062992126,"duration":0.6979166666666288},{"name":"D5","midi":74,"time":461.37890625001125,"velocity":0.8031496062992126,"duration":0.11328125},{"name":"C5","midi":72,"time":461.49609375001125,"velocity":0.8031496062992126,"duration":0.11328125},{"name":"B4","midi":71,"time":461.61197916667794,"velocity":0.8031496062992126,"duration":0.23177083333331439},{"name":"C5","midi":72,"time":461.84505208334457,"velocity":0.8031496062992126,"duration":0.23177083333331439},{"name":"E3","midi":52,"time":462.07942708334457,"velocity":0.8031496062992126,"duration":0.23177083333331439},{"name":"E5","midi":76,"time":462.07942708334457,"velocity":0.8031496062992126,"duration":0.23177083333331439},{"name":"F#3","midi":54,"time":462.31380208334457,"velocity":0.8031496062992126,"duration":0.23177083333331439},{"name":"D#5","midi":75,"time":462.31380208334457,"velocity":0.8031496062992126,"duration":0.23177083333331439},{"name":"G3","midi":55,"time":462.54817708334457,"velocity":0.8031496062992126,"duration":0.23177083333331439},{"name":"C#5","midi":73,"time":462.54817708334457,"velocity":0.8031496062992126,"duration":0.23177083333331439},{"name":"F#3","midi":54,"time":462.78255208334457,"velocity":0.8031496062992126,"duration":0.23177083333331439},{"name":"D#5","midi":75,"time":462.78255208334457,"velocity":0.8031496062992126,"duration":0.23177083333331439},{"name":"G3","midi":55,"time":463.01692708334457,"velocity":0.8031496062992126,"duration":0.23177083333331439},{"name":"F#5","midi":78,"time":463.01692708334457,"velocity":0.8031496062992126,"duration":0.23177083333331439},{"name":"A3","midi":57,"time":463.2500000000112,"velocity":0.8031496062992126,"duration":0.23177083333331439},{"name":"B4","midi":71,"time":463.2500000000112,"velocity":0.8031496062992126,"duration":1.40234375},{"name":"C4","midi":60,"time":463.4843750000112,"velocity":0.8031496062992126,"duration":0.23177083333331439},{"name":"B3","midi":59,"time":463.7187500000112,"velocity":0.8031496062992126,"duration":0.23177083333331439},{"name":"A3","midi":57,"time":463.9531250000112,"velocity":0.8031496062992126,"duration":0.23177083333331439},{"name":"D#5","midi":75,"time":463.9531250000112,"velocity":0.8031496062992126,"duration":0.23177083333331439},{"name":"G3","midi":55,"time":464.1875000000112,"velocity":0.8031496062992126,"duration":0.23177083333331439},{"name":"E5","midi":76,"time":464.1875000000112,"velocity":0.8031496062992126,"duration":0.23177083333331439},{"name":"F#3","midi":54,"time":464.4218750000112,"velocity":0.8031496062992126,"duration":0.23177083333331439},{"name":"F#5","midi":78,"time":464.4218750000112,"velocity":0.8031496062992126,"duration":0.23177083333331439},{"name":"E3","midi":52,"time":464.6549479166778,"velocity":0.8031496062992126,"duration":0.23177083333331439},{"name":"G5","midi":79,"time":464.6549479166778,"velocity":0.8031496062992126,"duration":0.6822916666666856},{"name":"D3","midi":50,"time":464.8893229166778,"velocity":0.8031496062992126,"duration":0.23177083333331439},{"name":"B4","midi":71,"time":464.8893229166778,"velocity":0.8031496062992126,"duration":0.23177083333331439},{"name":"C#3","midi":49,"time":465.1236979166778,"velocity":0.8031496062992126,"duration":0.23177083333337123},{"name":"E5","midi":76,"time":465.1236979166778,"velocity":0.8031496062992126,"duration":0.6822916666667425},{"name":"B3","midi":59,"time":465.3580729166779,"velocity":0.8031496062992126,"duration":0.23177083333331439},{"name":"F#5","midi":78,"time":465.3580729166779,"velocity":0.8031496062992126,"duration":0.23177083333331439},{"name":"A#3","midi":58,"time":465.5924479166779,"velocity":0.8031496062992126,"duration":0.23177083333337123},{"name":"G5","midi":79,"time":465.5924479166779,"velocity":0.8031496062992126,"duration":0.23177083333337123},{"name":"E4","midi":64,"time":465.82552083334457,"velocity":0.8031496062992126,"duration":0.23177083333331439},{"name":"E5","midi":76,"time":465.82552083334457,"velocity":0.8031496062992126,"duration":0.23177083333331439},{"name":"D5","midi":74,"time":465.82552083334457,"velocity":0.8031496062992126,"duration":0.23177083333331439},{"name":"E4","midi":64,"time":466.05989583334457,"velocity":0.8031496062992126,"duration":0.23177083333331439},{"name":"C5","midi":72,"time":466.05989583334457,"velocity":0.8031496062992126,"duration":0.92578125},{"name":"F#5","midi":78,"time":466.1783854166779,"velocity":0.8031496062992126,"duration":0.6809895833333712},{"name":"D#4","midi":63,"time":466.29427083334457,"velocity":0.8031496062992126,"duration":0.23177083333331439},{"name":"A5","midi":81,"time":466.29427083334457,"velocity":0.8031496062992126,"duration":0.4661458333333144},{"name":"E4","midi":64,"time":466.52864583334457,"velocity":0.8031496062992126,"duration":0.23177083333331439},{"name":"C#4","midi":61,"time":466.76302083334457,"velocity":0.8031496062992126,"duration":0.22916666666668561},{"name":"A5","midi":81,"time":466.76302083334457,"velocity":0.8031496062992126,"duration":0.22916666666668561},{"name":"D#4","midi":63,"time":466.99479166667794,"velocity":0.8031496062992126,"duration":0.4661458333333144},{"name":"F#5","midi":78,"time":466.99479166667794,"velocity":0.8031496062992126,"duration":0.23177083333331439},{"name":"B4","midi":71,"time":466.99479166667794,"velocity":0.8031496062992126,"duration":0.23177083333331439},{"name":"A5","midi":81,"time":466.99479166667794,"velocity":0.8031496062992126,"duration":0.23177083333331439},{"name":"C6","midi":84,"time":467.22916666667794,"velocity":0.8031496062992126,"duration":0.23177083333331439},{"name":"B3","midi":59,"time":467.46354166667794,"velocity":0.8031496062992126,"duration":0.5859374999999432},{"name":"B5","midi":83,"time":467.46354166667794,"velocity":0.8031496062992126,"duration":0.23177083333331439},{"name":"A5","midi":81,"time":467.69661458334457,"velocity":0.8031496062992126,"duration":0.23177083333331439},{"name":"G5","midi":79,"time":467.93098958334457,"velocity":0.8031496062992126,"duration":0.23177083333331439},{"name":"E4","midi":64,"time":468.16536458334457,"velocity":0.8031496062992126,"duration":0.23177083333331439},{"name":"F#5","midi":78,"time":468.16536458334457,"velocity":0.8031496062992126,"duration":0.23177083333331439},{"name":"F#4","midi":66,"time":468.39973958334457,"velocity":0.8031496062992126,"duration":0.23177083333331439},{"name":"E5","midi":76,"time":468.39973958334457,"velocity":0.8031496062992126,"duration":0.23177083333331439},{"name":"G4","midi":67,"time":468.63411458334457,"velocity":0.8031496062992126,"duration":0.23177083333331439},{"name":"D5","midi":74,"time":468.63411458334457,"velocity":0.8031496062992126,"duration":0.23177083333331439},{"name":"A4","midi":69,"time":468.8671875000112,"velocity":0.8031496062992126,"duration":0.69921875},{"name":"C5","midi":72,"time":468.8671875000112,"velocity":0.8031496062992126,"duration":0.23177083333331439},{"name":"B5","midi":83,"time":469.1015625000112,"velocity":0.8031496062992126,"duration":0.23177083333331439},{"name":"A5","midi":81,"time":469.3359375000112,"velocity":0.8031496062992126,"duration":0.23177083333331439},{"name":"G4","midi":67,"time":469.5703125000112,"velocity":0.8031496062992126,"duration":0.23177083333331439},{"name":"C6","midi":84,"time":469.5703125000112,"velocity":0.8031496062992126,"duration":0.23177083333331439},{"name":"F#4","midi":66,"time":469.8046875000112,"velocity":0.8031496062992126,"duration":0.23177083333331439},{"name":"E5","midi":76,"time":469.8046875000112,"velocity":0.8031496062992126,"duration":0.9257812499999432},{"name":"B3","midi":59,"time":470.0390625000112,"velocity":0.8031496062992126,"duration":0.23177083333331439},{"name":"D#5","midi":75,"time":470.0390625000112,"velocity":0.8031496062992126,"duration":0.23177083333331439},{"name":"C#4","midi":61,"time":470.2721354166778,"velocity":0.8031496062992126,"duration":0.23177083333331439},{"name":"C#5","midi":73,"time":470.2721354166778,"velocity":0.8031496062992126,"duration":0.23177083333331439},{"name":"D#4","midi":63,"time":470.5065104166778,"velocity":0.8031496062992126,"duration":0.22916666666662877},{"name":"B4","midi":71,"time":470.5065104166778,"velocity":0.8031496062992126,"duration":0.22916666666662877},{"name":"E4","midi":64,"time":470.73828125001114,"velocity":0.8031496062992126,"duration":0.47135416666662877},{"name":"B4","midi":71,"time":470.73828125001114,"velocity":0.8031496062992126,"duration":0.9401041666666288},{"name":"E5","midi":76,"time":470.85677083334446,"velocity":0.8031496062992126,"duration":0.6927083333333144},{"name":"G5","midi":79,"time":470.97526041667777,"velocity":0.8031496062992126,"duration":0.4739583333333144},{"name":"A3","midi":57,"time":471.21354166667777,"velocity":0.8031496062992126,"duration":0.4739583333333144},{"name":"A5","midi":81,"time":471.45182291667777,"velocity":0.8031496062992126,"duration":0.23567708333331439},{"name":"B3","midi":59,"time":471.69010416667777,"velocity":0.8031496062992126,"duration":0.4778645833333144},{"name":"G5","midi":79,"time":471.69010416667777,"velocity":0.8031496062992126,"duration":0.15755208333331439},{"name":"D#5","midi":75,"time":471.69010416667777,"velocity":0.8031496062992126,"duration":0.953125},{"name":"F#5","midi":78,"time":471.85026041667777,"velocity":0.8031496062992126,"duration":0.1171875},{"name":"G5","midi":79,"time":471.93098958334446,"velocity":0.8031496062992126,"duration":0.1171875},{"name":"F#5","midi":78,"time":472.01041666667777,"velocity":0.8031496062992126,"duration":0.1171875},{"name":"G5","midi":79,"time":472.09114583334446,"velocity":0.8031496062992126,"duration":0.1171875},{"name":"B2","midi":47,"time":472.17057291667777,"velocity":0.8031496062992126,"duration":0.48046875},{"name":"F#5","midi":78,"time":472.17057291667777,"velocity":0.8031496062992126,"duration":0.23828125},{"name":"E5","midi":76,"time":472.41145833334446,"velocity":0.8031496062992126,"duration":0.23958333333331439},{"name":"E3","midi":52,"time":472.65364583334446,"velocity":0.8031496062992126,"duration":6.148437500000114},{"name":"E5","midi":76,"time":472.65364583334446,"velocity":0.8031496062992126,"duration":1.4648437500001137},{"name":"F#3","midi":54,"time":472.89843750001114,"velocity":0.8031496062992126,"duration":0.2421875},{"name":"G#3","midi":56,"time":473.1432291666778,"velocity":0.8031496062992126,"duration":0.4869791666666856},{"name":"D5","midi":74,"time":473.3880208333445,"velocity":0.8031496062992126,"duration":0.2421875},{"name":"A3","midi":57,"time":473.6328125000112,"velocity":0.8031496062992126,"duration":0.4869791666666856},{"name":"C5","midi":72,"time":473.6328125000112,"velocity":0.8031496062992126,"duration":0.2421875},{"name":"B4","midi":71,"time":473.8776041666779,"velocity":0.8031496062992126,"duration":0.2421875},{"name":"B3","midi":59,"time":474.12239583334457,"velocity":0.8031496062992126,"duration":0.4869791666666856},{"name":"A4","midi":69,"time":474.12239583334457,"velocity":0.8031496062992126,"duration":0.2421875},{"name":"G4","midi":67,"time":474.36718750001125,"velocity":0.8031496062992126,"duration":0.2421875},{"name":"C4","midi":60,"time":474.61197916667794,"velocity":0.8031496062992126,"duration":0.5221354166666288},{"name":"F#4","midi":66,"time":474.61197916667794,"velocity":0.8031496062992126,"duration":1.0377604166666288},{"name":"A4","midi":69,"time":474.87500000001125,"velocity":0.8031496062992126,"duration":0.2591145833333144},{"name":"A3","midi":57,"time":475.13671875001125,"velocity":0.8031496062992126,"duration":0.5208333333333144},{"name":"E5","midi":76,"time":475.13671875001125,"velocity":0.8031496062992126,"duration":0.2591145833333144},{"name":"D#5","midi":75,"time":475.39843750001125,"velocity":0.8031496062992126,"duration":0.2591145833333144},{"name":"B3","midi":59,"time":475.66015625001125,"velocity":0.8031496062992126,"duration":4.135416666666629},{"name":"G#4","midi":68,"time":475.66015625001125,"velocity":0.8031496062992126,"duration":4.135416666666629},{"name":"B4","midi":71,"time":475.79036458334457,"velocity":0.8031496062992126,"duration":4.0234375},{"name":"E5","midi":76,"time":475.92187500001125,"velocity":0.8031496062992126,"duration":3.8893229166666288},{"name":"B4","midi":71,"time":480.55989583334457,"velocity":0.8031496062992126,"duration":0.24609375},{"name":"E3","midi":52,"time":480.80859375001125,"velocity":0.8031496062992126,"duration":0.4973958333333144},{"name":"E4","midi":64,"time":480.80859375001125,"velocity":0.8031496062992126,"duration":0.74609375},{"name":"G4","midi":67,"time":480.80859375001125,"velocity":0.8031496062992126,"duration":0.74609375},{"name":"B4","midi":71,"time":480.80859375001125,"velocity":0.8031496062992126,"duration":0.74609375},{"name":"E2","midi":40,"time":481.30859375001125,"velocity":0.8031496062992126,"duration":0.7265625},{"name":"C5","midi":72,"time":481.55729166667794,"velocity":0.8031496062992126,"duration":0.24609375},{"name":"B4","midi":71,"time":481.80729166667794,"velocity":0.8031496062992126,"duration":0.24869791666662877},{"name":"A4","midi":69,"time":482.0572916666779,"velocity":0.8031496062992126,"duration":0.24609375},{"name":"G4","midi":67,"time":482.30598958334457,"velocity":0.8031496062992126,"duration":0.24609375},{"name":"F#4","midi":66,"time":482.55598958334457,"velocity":0.8031496062992126,"duration":0.24609375},{"name":"E4","midi":64,"time":482.80468750001125,"velocity":0.8031496062992126,"duration":0.24609375},{"name":"D#4","midi":63,"time":483.05338541667794,"velocity":0.8031496062992126,"duration":0.7265625},{"name":"A4","midi":69,"time":483.3020833333446,"velocity":0.8031496062992126,"duration":0.4973958333333144},{"name":"C5","midi":72,"time":483.3020833333446,"velocity":0.8031496062992126,"duration":0.4973958333333144},{"name":"E4","midi":64,"time":483.8020833333446,"velocity":0.8031496062992126,"duration":0.7265625000000568},{"name":"G4","midi":67,"time":483.9270833333446,"velocity":0.8031496062992126,"duration":0.6236979166667425},{"name":"E3","midi":52,"time":484.0507812500113,"velocity":0.8031496062992126,"duration":0.24609375},{"name":"B4","midi":71,"time":484.0507812500113,"velocity":0.8031496062992126,"duration":0.49739583333337123},{"name":"F#3","midi":54,"time":484.299479166678,"velocity":0.8031496062992126,"duration":0.24869791666668561},{"name":"G3","midi":55,"time":484.55078125001137,"velocity":0.8031496062992126,"duration":0.24609375},{"name":"G5","midi":79,"time":484.55078125001137,"velocity":0.8031496062992126,"duration":0.24609375},{"name":"A3","midi":57,"time":484.79947916667805,"velocity":0.8031496062992126,"duration":0.24609375},{"name":"F#5","midi":78,"time":484.79947916667805,"velocity":0.8031496062992126,"duration":0.24609375},{"name":"B3","midi":59,"time":485.04817708334474,"velocity":0.8031496062992126,"duration":0.24609375},{"name":"E5","midi":76,"time":485.04817708334474,"velocity":0.8031496062992126,"duration":0.24609375},{"name":"C4","midi":60,"time":485.29817708334474,"velocity":0.8031496062992126,"duration":0.24609375},{"name":"D#5","midi":75,"time":485.29817708334474,"velocity":0.8031496062992126,"duration":0.24609375},{"name":"B3","midi":59,"time":485.5468750000114,"velocity":0.8031496062992126,"duration":0.24609375},{"name":"E5","midi":76,"time":485.5468750000114,"velocity":0.8031496062992126,"duration":0.24609375},{"name":"A3","midi":57,"time":485.7955729166781,"velocity":0.8031496062992126,"duration":0.24869791666668561},{"name":"F#5","midi":78,"time":485.7955729166781,"velocity":0.8031496062992126,"duration":0.1953125},{"name":"E5","midi":76,"time":485.9830729166781,"velocity":0.8031496062992126,"duration":0.12369791666674246},{"name":"G3","midi":55,"time":486.0468750000115,"velocity":0.8031496062992126,"duration":0.24869791666668561},{"name":"F#5","midi":78,"time":486.08854166667817,"velocity":0.8031496062992126,"duration":0.12369791666668561},{"name":"E5","midi":76,"time":486.19401041667817,"velocity":0.8031496062992126,"duration":0.12109375},{"name":"F#3","midi":54,"time":486.29817708334485,"velocity":0.8031496062992126,"duration":0.24609375},{"name":"F#5","midi":78,"time":486.29817708334485,"velocity":0.8031496062992126,"duration":0.12109375},{"name":"E5","midi":76,"time":486.42187500001154,"velocity":0.8031496062992126,"duration":0.12109375},{"name":"E3","midi":52,"time":486.54687500001154,"velocity":0.8031496062992126,"duration":0.24609375},{"name":"D#5","midi":75,"time":486.54687500001154,"velocity":0.8031496062992126,"duration":0.12109375},{"name":"E5","midi":76,"time":486.6705729166782,"velocity":0.8031496062992126,"duration":0.12109375},{"name":"B3","midi":59,"time":486.7955729166782,"velocity":0.8031496062992126,"duration":0.74609375},{"name":"F#5","midi":78,"time":486.7955729166782,"velocity":0.8031496062992126,"duration":0.4973958333333144},{"name":"B4","midi":71,"time":487.2955729166782,"velocity":0.8031496062992126,"duration":0.4947916666666856},{"name":"C4","midi":60,"time":487.5442708333449,"velocity":0.8031496062992126,"duration":0.24609375},{"name":"B3","midi":59,"time":487.7929687500116,"velocity":0.8031496062992126,"duration":0.24609375},{"name":"G4","midi":67,"time":487.7929687500116,"velocity":0.8031496062992126,"duration":0.7265625000000568},{"name":"B4","midi":71,"time":487.9179687500116,"velocity":0.8031496062992126,"duration":0.6236979166667425},{"name":"A3","midi":57,"time":488.0416666666783,"velocity":0.8031496062992126,"duration":0.24609375},{"name":"E5","midi":76,"time":488.0416666666783,"velocity":0.8031496062992126,"duration":0.49739583333337123},{"name":"G3","midi":55,"time":488.29036458334497,"velocity":0.8031496062992126,"duration":0.24869791666668561},{"name":"F#3","midi":54,"time":488.54166666667834,"velocity":0.8031496062992126,"duration":0.24609375},{"name":"F#5","midi":78,"time":488.54166666667834,"velocity":0.8031496062992126,"duration":0.24609375},{"name":"E3","midi":52,"time":488.790364583345,"velocity":0.8031496062992126,"duration":0.24609375},{"name":"G5","midi":79,"time":488.790364583345,"velocity":0.8031496062992126,"duration":0.16536458333331439},{"name":"F#5","midi":78,"time":488.95572916667834,"velocity":0.8031496062992126,"duration":0.11979166666668561},{"name":"D#3","midi":51,"time":489.040364583345,"velocity":0.8031496062992126,"duration":0.7252604166666856},{"name":"G5","midi":79,"time":489.06510416667834,"velocity":0.8031496062992126,"duration":0.12109375},{"name":"F#5","midi":78,"time":489.177083333345,"velocity":0.8031496062992126,"duration":0.12109374999994316},{"name":"C4","midi":60,"time":489.28906250001165,"velocity":0.8031496062992126,"duration":0.4947916666666856},{"name":"G5","midi":79,"time":489.28906250001165,"velocity":0.8031496062992126,"duration":0.12109375},{"name":"F#5","midi":78,"time":489.41276041667834,"velocity":0.8031496062992126,"duration":0.12109375},{"name":"E5","midi":76,"time":489.53776041667834,"velocity":0.8031496062992126,"duration":0.12109375},{"name":"F#5","midi":78,"time":489.661458333345,"velocity":0.8031496062992126,"duration":0.12109375},{"name":"E3","midi":52,"time":489.786458333345,"velocity":0.8031496062992126,"duration":0.74609375},{"name":"B3","midi":59,"time":489.786458333345,"velocity":0.8031496062992126,"duration":0.74609375},{"name":"G5","midi":79,"time":489.786458333345,"velocity":0.8031496062992126,"duration":0.4973958333333144},{"name":"B4","midi":71,"time":490.286458333345,"velocity":0.8031496062992126,"duration":0.4947916666666856},{"name":"F3","midi":53,"time":490.5351562500117,"velocity":0.8031496062992126,"duration":0.24609375},{"name":"E3","midi":52,"time":490.7838541666784,"velocity":0.8031496062992126,"duration":0.24609375},{"name":"E4","midi":64,"time":490.7838541666784,"velocity":0.8031496062992126,"duration":0.7265625},{"name":"G#4","midi":68,"time":490.9088541666784,"velocity":0.8031496062992126,"duration":0.62109375},{"name":"D3","midi":50,"time":491.0325520833451,"velocity":0.8031496062992126,"duration":0.24609375},{"name":"B4","midi":71,"time":491.0325520833451,"velocity":0.8031496062992126,"duration":0.4934895833333144},{"name":"E5","midi":76,"time":491.1575520833451,"velocity":0.8031496062992126,"duration":0.37109375},{"name":"C3","midi":48,"time":491.2825520833451,"velocity":0.8031496062992126,"duration":0.24609375},{"name":"B2","midi":47,"time":491.5312500000117,"velocity":0.8031496062992126,"duration":0.24609375},{"name":"D5","midi":74,"time":491.5312500000117,"velocity":0.8031496062992126,"duration":0.24609375},{"name":"A2","midi":45,"time":491.7799479166784,"velocity":0.8031496062992126,"duration":0.24609374999994316},{"name":"D5","midi":74,"time":491.7799479166784,"velocity":0.8031496062992126,"duration":0.18880208333331439},{"name":"C5","midi":72,"time":491.970052083345,"velocity":0.8031496062992126,"duration":0.12109375},{"name":"G#2","midi":44,"time":492.028645833345,"velocity":0.8031496062992126,"duration":0.7291666666665719},{"name":"D5","midi":74,"time":492.0820312500117,"velocity":0.8031496062992126,"duration":0.12109375},{"name":"C5","midi":72,"time":492.192708333345,"velocity":0.8031496062992126,"duration":0.12109375},{"name":"F3","midi":53,"time":492.2799479166784,"velocity":0.8031496062992126,"duration":0.4973958333332007},{"name":"D5","midi":74,"time":492.3046875000117,"velocity":0.8031496062992126,"duration":0.12109374999994316},{"name":"C5","midi":72,"time":492.41666666667834,"velocity":0.8031496062992126,"duration":0.12109374999994316},{"name":"B4","midi":71,"time":492.52864583334497,"velocity":0.8031496062992126,"duration":0.24869791666662877},{"name":"A2","midi":45,"time":492.7799479166783,"velocity":0.8031496062992126,"duration":0.49348958333337123},{"name":"C5","midi":72,"time":492.7799479166783,"velocity":0.8031496062992126,"duration":0.7434895833333712},{"name":"E3","midi":52,"time":493.02864583334497,"velocity":0.8031496062992126,"duration":0.24609375},{"name":"A3","midi":57,"time":493.27734375001165,"velocity":0.8031496062992126,"duration":0.24609375},{"name":"B3","midi":59,"time":493.52604166667834,"velocity":0.8031496062992126,"duration":0.24609375},{"name":"B4","midi":71,"time":493.52604166667834,"velocity":0.8031496062992126,"duration":0.24609375},{"name":"C4","midi":60,"time":493.774739583345,"velocity":0.8031496062992126,"duration":0.24609375},{"name":"A4","midi":69,"time":493.774739583345,"velocity":0.8031496062992126,"duration":0.24609375},{"name":"D4","midi":62,"time":494.024739583345,"velocity":0.8031496062992126,"duration":0.24609375},{"name":"G4","midi":67,"time":494.024739583345,"velocity":0.8031496062992126,"duration":0.24609375},{"name":"E4","midi":64,"time":494.2734375000117,"velocity":0.8031496062992126,"duration":0.24609375},{"name":"F#4","midi":66,"time":494.2734375000117,"velocity":0.8031496062992126,"duration":0.24609375},{"name":"D4","midi":62,"time":494.5221354166784,"velocity":0.8031496062992126,"duration":0.24609375},{"name":"G4","midi":67,"time":494.5221354166784,"velocity":0.8031496062992126,"duration":0.24609375},{"name":"C4","midi":60,"time":494.7708333333451,"velocity":0.8031496062992126,"duration":0.24609375},{"name":"A4","midi":69,"time":494.7708333333451,"velocity":0.8031496062992126,"duration":0.17057291666668561},{"name":"G4","midi":67,"time":494.94140625001177,"velocity":0.8031496062992126,"duration":0.12109375},{"name":"B3","midi":59,"time":495.01953125001177,"velocity":0.8031496062992126,"duration":0.24609375},{"name":"A4","midi":69,"time":495.0520833333451,"velocity":0.8031496062992126,"duration":0.12109375},{"name":"G4","midi":67,"time":495.1614583333451,"velocity":0.8031496062992126,"duration":0.11979166666668561},{"name":"A3","midi":57,"time":495.26822916667845,"velocity":0.8031496062992126,"duration":0.24609375},{"name":"A4","midi":69,"time":495.26822916667845,"velocity":0.8031496062992126,"duration":0.12109375},{"name":"G4","midi":67,"time":495.39322916667845,"velocity":0.8031496062992126,"duration":0.12109375},{"name":"G3","midi":55,"time":495.51822916667845,"velocity":0.8031496062992126,"duration":0.24609375},{"name":"F#4","midi":66,"time":495.51822916667845,"velocity":0.8031496062992126,"duration":0.12109375},{"name":"G4","midi":67,"time":495.64192708334514,"velocity":0.8031496062992126,"duration":0.12109375},{"name":"D4","midi":62,"time":495.76692708334514,"velocity":0.8031496062992126,"duration":0.4973958333333144},{"name":"F#4","midi":66,"time":495.76692708334514,"velocity":0.8031496062992126,"duration":0.74609375},{"name":"A4","midi":69,"time":495.76692708334514,"velocity":0.8031496062992126,"duration":0.74609375},{"name":"D3","midi":50,"time":496.26692708334514,"velocity":0.8031496062992126,"duration":0.9843750000000568},{"name":"A5","midi":81,"time":496.5156250000118,"velocity":0.8031496062992126,"duration":0.24609375},{"name":"G5","midi":79,"time":496.7643229166785,"velocity":0.8031496062992126,"duration":0.24609375},{"name":"F#5","midi":78,"time":497.0130208333452,"velocity":0.8031496062992126,"duration":0.24609375},{"name":"E5","midi":76,"time":497.2617187500119,"velocity":0.8031496062992126,"duration":0.24609375},{"name":"D5","midi":74,"time":497.51041666667857,"velocity":0.8031496062992126,"duration":0.24609375},{"name":"C5","midi":72,"time":497.76041666667857,"velocity":0.8031496062992126,"duration":0.24609375},{"name":"B4","midi":71,"time":498.00911458334525,"velocity":0.8031496062992126,"duration":0.3619791666666856},{"name":"D4","midi":62,"time":498.25781250001194,"velocity":0.8031496062992126,"duration":0.4947916666666856},{"name":"F#4","midi":66,"time":498.25781250001194,"velocity":0.8031496062992126,"duration":0.49348958333337123},{"name":"A4","midi":69,"time":498.38281250001194,"velocity":0.8031496062992126,"duration":0.38802083333337123},{"name":"C5","midi":72,"time":498.5065104166786,"velocity":0.8031496062992126,"duration":0.24609375},{"name":"A5","midi":81,"time":498.6315104166786,"velocity":0.8031496062992126,"duration":0.12109375},{"name":"D4","midi":62,"time":498.7552083333453,"velocity":0.8031496062992126,"duration":0.4947916666666856},{"name":"G4","midi":67,"time":498.7552083333453,"velocity":0.8031496062992126,"duration":0.49348958333337123},{"name":"C5","midi":72,"time":498.7552083333453,"velocity":0.8031496062992126,"duration":0.24609375},{"name":"B4","midi":71,"time":499.003906250012,"velocity":0.8031496062992126,"duration":0.4947916666666856},{"name":"D3","midi":50,"time":499.253906250012,"velocity":0.8031496062992126,"duration":1.4908854166667425},{"name":"G5","midi":79,"time":499.5026041666787,"velocity":0.8031496062992126,"duration":0.24609375},{"name":"F#5","midi":78,"time":499.75130208334537,"velocity":0.8031496062992126,"duration":0.24609375},{"name":"E5","midi":76,"time":500.00000000001205,"velocity":0.8031496062992126,"duration":0.24609375},{"name":"D5","midi":74,"time":500.24869791667874,"velocity":0.8031496062992126,"duration":0.24609375},{"name":"C5","midi":72,"time":500.4973958333454,"velocity":0.8031496062992126,"duration":0.24609375},{"name":"B4","midi":71,"time":500.7473958333454,"velocity":0.8031496062992126,"duration":0.24609375},{"name":"A4","midi":69,"time":500.9960937500121,"velocity":0.8031496062992126,"duration":0.24609375},{"name":"D4","midi":62,"time":501.2447916666788,"velocity":0.8031496062992126,"duration":0.49479166666662877},{"name":"G4","midi":67,"time":501.2447916666788,"velocity":0.8031496062992126,"duration":0.4934895833333144},{"name":"B4","midi":71,"time":501.3684895833455,"velocity":0.8031496062992126,"duration":0.3684895833333144},{"name":"G5","midi":79,"time":501.4934895833455,"velocity":0.8031496062992126,"duration":0.24609374999994316},{"name":"D4","midi":62,"time":501.7421875000121,"velocity":0.8031496062992126,"duration":0.4947916666666856},{"name":"B4","midi":71,"time":501.7421875000121,"velocity":0.8031496062992126,"duration":0.24609375},{"name":"F#4","midi":66,"time":501.7421875000121,"velocity":0.8031496062992126,"duration":0.49348958333337123},{"name":"A4","midi":69,"time":501.9908854166788,"velocity":0.8031496062992126,"duration":0.4947916666666856},{"name":"D3","midi":50,"time":502.2395833333455,"velocity":0.8031496062992126,"duration":1.4908854166667425},{"name":"C5","midi":72,"time":502.4895833333455,"velocity":0.8031496062992126,"duration":0.24609375},{"name":"B4","midi":71,"time":502.73828125001216,"velocity":0.8031496062992126,"duration":0.24609375},{"name":"A4","midi":69,"time":502.98697916667885,"velocity":0.8031496062992126,"duration":0.24609375},{"name":"G4","midi":67,"time":503.23567708334554,"velocity":0.8031496062992126,"duration":0.24609375},{"name":"F#4","midi":66,"time":503.4843750000122,"velocity":0.8031496062992126,"duration":0.24609375},{"name":"E4","midi":64,"time":503.7330729166789,"velocity":0.8031496062992126,"duration":0.24609375},{"name":"D3","midi":50,"time":503.9830729166789,"velocity":0.8031496062992126,"duration":0.24609375},{"name":"D4","midi":62,"time":503.9830729166789,"velocity":0.8031496062992126,"duration":0.24609375},{"name":"E3","midi":52,"time":504.2317708333456,"velocity":0.8031496062992126,"duration":0.24609375},{"name":"C5","midi":72,"time":504.2317708333456,"velocity":0.8031496062992126,"duration":0.4947916666666856},{"name":"F#3","midi":54,"time":504.4804687500123,"velocity":0.8031496062992126,"duration":0.24609375},{"name":"G3","midi":55,"time":504.72916666667896,"velocity":0.8031496062992126,"duration":0.24609375},{"name":"C5","midi":72,"time":504.72916666667896,"velocity":0.8031496062992126,"duration":0.26953125},{"name":"A3","midi":57,"time":504.97786458334565,"velocity":0.8031496062992126,"duration":0.24609374999994316},{"name":"B4","midi":71,"time":505.0039062500123,"velocity":0.8031496062992126,"duration":0.12109375},{"name":"C5","midi":72,"time":505.11588541667896,"velocity":0.8031496062992126,"duration":0.12109375},{"name":"G3","midi":55,"time":505.2265625000123,"velocity":0.8031496062992126,"duration":0.24609375},{"name":"B4","midi":71,"time":505.2265625000123,"velocity":0.8031496062992126,"duration":0.24609375},{"name":"F#3","midi":54,"time":505.4765625000123,"velocity":0.8031496062992126,"duration":0.24609375},{"name":"A4","midi":69,"time":505.4765625000123,"velocity":0.8031496062992126,"duration":0.24609375},{"name":"E3","midi":52,"time":505.72526041667896,"velocity":0.8031496062992126,"duration":0.24609375},{"name":"G4","midi":67,"time":505.72526041667896,"velocity":0.8031496062992126,"duration":0.24609375},{"name":"D3","midi":50,"time":505.97395833334565,"velocity":0.8031496062992126,"duration":0.24609375},{"name":"F#4","midi":66,"time":505.97395833334565,"velocity":0.8031496062992126,"duration":0.24609375},{"name":"E3","midi":52,"time":506.22265625001234,"velocity":0.8031496062992126,"duration":0.24609375},{"name":"G4","midi":67,"time":506.22265625001234,"velocity":0.8031496062992126,"duration":0.24609375},{"name":"C3","midi":48,"time":506.471354166679,"velocity":0.8031496062992126,"duration":0.24609375},{"name":"A4","midi":69,"time":506.471354166679,"velocity":0.8031496062992126,"duration":0.24609375},{"name":"D3","midi":50,"time":506.7200520833457,"velocity":0.8031496062992126,"duration":0.4973958333333144},{"name":"F#4","midi":66,"time":506.7200520833457,"velocity":0.8031496062992126,"duration":0.9869791666666856},{"name":"B4","midi":71,"time":506.7200520833457,"velocity":0.8031496062992126,"duration":0.3645833333333144},{"name":"A4","midi":69,"time":507.096354166679,"velocity":0.8031496062992126,"duration":0.12109375},{"name":"D2","midi":38,"time":507.2200520833457,"velocity":0.8031496062992126,"duration":0.4947916666666856},{"name":"B4","midi":71,"time":507.2200520833457,"velocity":0.8031496062992126,"duration":0.12109375},{"name":"A4","midi":69,"time":507.3450520833457,"velocity":0.8031496062992126,"duration":0.12109375},{"name":"G4","midi":67,"time":507.4687500000124,"velocity":0.8031496062992126,"duration":0.12109375},{"name":"A4","midi":69,"time":507.5937500000124,"velocity":0.8031496062992126,"duration":0.12369791666668561},{"name":"G2","midi":43,"time":507.7187500000124,"velocity":0.8031496062992126,"duration":0.4973958333333144},{"name":"G4","midi":67,"time":507.7187500000124,"velocity":0.8031496062992126,"duration":0.4973958333333144},{"name":"G3","midi":55,"time":508.2187500000124,"velocity":0.8031496062992126,"duration":0.24609375},{"name":"B4","midi":71,"time":508.2187500000124,"velocity":0.8031496062992126,"duration":0.4947916666666856},{"name":"A3","midi":57,"time":508.4674479166791,"velocity":0.8031496062992126,"duration":0.24609375},{"name":"G3","midi":55,"time":508.71614583334576,"velocity":0.8031496062992126,"duration":0.24609375},{"name":"E5","midi":76,"time":508.71614583334576,"velocity":0.8031496062992126,"duration":0.12109375},{"name":"D5","midi":74,"time":508.83984375001245,"velocity":0.8031496062992126,"duration":0.12109375},{"name":"F#3","midi":54,"time":508.96484375001245,"velocity":0.8031496062992126,"duration":0.24609375},{"name":"E5","midi":76,"time":508.96484375001245,"velocity":0.8031496062992126,"duration":0.4947916666666856},{"name":"E3","midi":52,"time":509.21354166667913,"velocity":0.8031496062992126,"duration":0.24609375},{"name":"D3","midi":50,"time":509.4622395833458,"velocity":0.8031496062992126,"duration":0.24609375},{"name":"F#5","midi":78,"time":509.4622395833458,"velocity":0.8031496062992126,"duration":0.24609375},{"name":"C#3","midi":49,"time":509.7122395833458,"velocity":0.8031496062992126,"duration":0.24609375},{"name":"G5","midi":79,"time":509.7122395833458,"velocity":0.8031496062992126,"duration":0.24609375},{"name":"B2","midi":47,"time":509.9609375000125,"velocity":0.8031496062992126,"duration":0.7265625000000568},{"name":"E5","midi":76,"time":509.9609375000125,"velocity":0.8031496062992126,"duration":0.24609375},{"name":"G3","midi":55,"time":510.2096354166792,"velocity":0.8031496062992126,"duration":0.49739583333337123},{"name":"C#5","midi":73,"time":510.2096354166792,"velocity":0.8031496062992126,"duration":0.24609375},{"name":"D5","midi":74,"time":510.4583333333459,"velocity":0.8031496062992126,"duration":0.24869791666668561},{"name":"F#3","midi":54,"time":510.70963541667925,"velocity":0.8031496062992126,"duration":1.4908854166667425},{"name":"A#2","midi":46,"time":510.70963541667925,"velocity":0.8031496062992126,"duration":0.4947916666666856},{"name":"E5","midi":76,"time":510.70963541667925,"velocity":0.8031496062992126,"duration":0.24609375},{"name":"G5","midi":79,"time":510.95833333334593,"velocity":0.8031496062992126,"duration":0.24609375},{"name":"F#2","midi":42,"time":511.2070312500126,"velocity":0.8031496062992126,"duration":0.4947916666666856},{"name":"F#5","midi":78,"time":511.2070312500126,"velocity":0.8031496062992126,"duration":0.24609375},{"name":"E5","midi":76,"time":511.4557291666793,"velocity":0.8031496062992126,"duration":0.24609375},{"name":"B2","midi":47,"time":511.704427083346,"velocity":0.8031496062992126,"duration":0.49479166666662877},{"name":"D5","midi":74,"time":511.704427083346,"velocity":0.8031496062992126,"duration":0.24609375},{"name":"C#5","midi":73,"time":511.954427083346,"velocity":0.8031496062992126,"duration":0.7265625},{"name":"E3","midi":52,"time":512.2031250000126,"velocity":0.8031496062992126,"duration":0.49739583333337123},{"name":"G3","midi":55,"time":512.2031250000126,"velocity":0.8031496062992126,"duration":0.49739583333337123},{"name":"B5","midi":83,"time":512.2031250000126,"velocity":0.8031496062992126,"duration":0.49739583333337123},{"name":"F#3","midi":54,"time":512.7031250000126,"velocity":0.8031496062992126,"duration":0.49869791666662877},{"name":"A#4","midi":70,"time":512.7031250000126,"velocity":0.8031496062992126,"duration":0.7317708333332575},{"name":"D5","midi":74,"time":512.7031250000126,"velocity":0.8031496062992126,"duration":0.1640625},{"name":"C#5","midi":73,"time":512.8697916666792,"velocity":0.8031496062992126,"duration":0.12109375},{"name":"D5","midi":74,"time":512.9518229166792,"velocity":0.8031496062992126,"duration":0.12369791666662877},{"name":"C#5","midi":73,"time":513.0364583333459,"velocity":0.8031496062992126,"duration":0.12369791666674246},{"name":"D5","midi":74,"time":513.1197916666792,"velocity":0.8031496062992126,"duration":0.12369791666662877},{"name":"F#2","midi":42,"time":513.2044270833459,"velocity":0.8031496062992126,"duration":0.49739583333325754},{"name":"C#5","midi":73,"time":513.2044270833459,"velocity":0.8031496062992126,"duration":0.24869791666662877},{"name":"B4","midi":71,"time":513.4557291666791,"velocity":0.8031496062992126,"duration":0.24609375},{"name":"B2","midi":47,"time":513.7044270833458,"velocity":0.8031496062992126,"duration":1.9973958333333712},{"name":"B4","midi":71,"time":513.7044270833458,"velocity":0.8031496062992126,"duration":1.9973958333333712},{"name":"D#3","midi":51,"time":514.2044270833458,"velocity":0.8031496062992126,"duration":0.49739583333337123},{"name":"F#3","midi":54,"time":514.7044270833458,"velocity":0.8031496062992126,"duration":0.49739583333337123},{"name":"B3","midi":59,"time":515.2044270833458,"velocity":0.8031496062992126,"duration":1.4947916666666288},{"name":"F#4","midi":66,"time":515.2044270833458,"velocity":0.8031496062992126,"duration":1.0416666666666288},{"name":"D#4","midi":63,"time":515.2044270833458,"velocity":0.8031496062992126,"duration":1.0416666666666288},{"name":"F#5","midi":78,"time":516.2044270833458,"velocity":0.8031496062992126,"duration":0.48828125},{"name":"B3","midi":59,"time":516.701822916679,"velocity":0.8031496062992126,"duration":0.74609375},{"name":"D#5","midi":75,"time":516.701822916679,"velocity":0.8031496062992126,"duration":0.49739583333337123},{"name":"B4","midi":71,"time":516.701822916679,"velocity":0.8031496062992126,"duration":0.49739583333337123},{"name":"F#5","midi":78,"time":516.701822916679,"velocity":0.8031496062992126,"duration":0.49739583333337123},{"name":"E5","midi":76,"time":517.201822916679,"velocity":0.8031496062992126,"duration":0.24609375},{"name":"B2","midi":47,"time":517.4505208333456,"velocity":0.8031496062992126,"duration":0.24609375},{"name":"D#5","midi":75,"time":517.4505208333456,"velocity":0.8031496062992126,"duration":0.24609375},{"name":"C#3","midi":49,"time":517.6992187500123,"velocity":0.8031496062992126,"duration":0.24609375},{"name":"C#5","midi":73,"time":517.6992187500123,"velocity":0.8031496062992126,"duration":0.24609375},{"name":"D#3","midi":51,"time":517.9492187500123,"velocity":0.8031496062992126,"duration":0.24609375},{"name":"B4","midi":71,"time":517.9492187500123,"velocity":0.8031496062992126,"duration":0.24609375},{"name":"E3","midi":52,"time":518.1979166666789,"velocity":0.8031496062992126,"duration":0.24609375},{"name":"C#5","midi":73,"time":518.1979166666789,"velocity":0.8031496062992126,"duration":0.24609375},{"name":"F#3","midi":54,"time":518.4466145833455,"velocity":0.8031496062992126,"duration":0.24609375},{"name":"D#5","midi":75,"time":518.4466145833455,"velocity":0.8031496062992126,"duration":0.24609375},{"name":"G3","midi":55,"time":518.6953125000122,"velocity":0.8031496062992126,"duration":0.24609375},{"name":"E5","midi":76,"time":518.6953125000122,"velocity":0.8031496062992126,"duration":0.24609375},{"name":"A3","midi":57,"time":518.9440104166788,"velocity":0.8031496062992126,"duration":0.7252604166666288},{"name":"F#5","midi":78,"time":518.9440104166788,"velocity":0.8031496062992126,"duration":0.24609375},{"name":"D#3","midi":51,"time":519.1927083333454,"velocity":0.8031496062992126,"duration":0.49479166666662877},{"name":"G5","midi":79,"time":519.1927083333454,"velocity":0.8031496062992126,"duration":0.12109375},{"name":"F#5","midi":78,"time":519.3177083333454,"velocity":0.8031496062992126,"duration":0.12109375},{"name":"E5","midi":76,"time":519.4427083333454,"velocity":0.8031496062992126,"duration":0.12109375},{"name":"F#5","midi":78,"time":519.566406250012,"velocity":0.8031496062992126,"duration":0.12109375},{"name":"E3","midi":52,"time":519.691406250012,"velocity":0.8031496062992126,"duration":0.24609375},{"name":"B4","midi":71,"time":519.691406250012,"velocity":0.8031496062992126,"duration":0.7265624999998863},{"name":"E5","midi":76,"time":519.8151041666787,"velocity":0.8031496062992126,"duration":0.6236979166666288},{"name":"F#3","midi":54,"time":519.9401041666787,"velocity":0.8031496062992126,"duration":0.24609375},{"name":"G5","midi":79,"time":519.9401041666787,"velocity":0.8031496062992126,"duration":0.49739583333325754},{"name":"E3","midi":52,"time":520.1888020833453,"velocity":0.8031496062992126,"duration":0.24869791666662877},{"name":"D3","midi":50,"time":520.4401041666787,"velocity":0.8031496062992126,"duration":0.24609375},{"name":"E4","midi":64,"time":520.4401041666787,"velocity":0.8031496062992126,"duration":0.24609375},{"name":"C3","midi":48,"time":520.6888020833453,"velocity":0.8031496062992126,"duration":0.24609375},{"name":"F#4","midi":66,"time":520.6888020833453,"velocity":0.8031496062992126,"duration":0.24609375},{"name":"B2","midi":47,"time":520.9375000000119,"velocity":0.8031496062992126,"duration":0.24609375},{"name":"G#4","midi":68,"time":520.9375000000119,"velocity":0.8031496062992126,"duration":0.24609375},{"name":"A2","midi":45,"time":521.1861979166786,"velocity":0.8031496062992126,"duration":0.24609375},{"name":"A4","midi":69,"time":521.1861979166786,"velocity":0.8031496062992126,"duration":0.24609375},{"name":"G#2","midi":44,"time":521.4348958333452,"velocity":0.8031496062992126,"duration":0.24609375},{"name":"B4","midi":71,"time":521.4348958333452,"velocity":0.8031496062992126,"duration":0.24609375},{"name":"F#2","midi":42,"time":521.6848958333452,"velocity":0.8031496062992126,"duration":0.24609375},{"name":"C5","midi":72,"time":521.6848958333452,"velocity":0.8031496062992126,"duration":0.24609375},{"name":"E2","midi":40,"time":521.9335937500118,"velocity":0.8031496062992126,"duration":0.7265624999998863},{"name":"D5","midi":74,"time":521.9335937500118,"velocity":0.8031496062992126,"duration":0.49348958333325754},{"name":"E3","midi":52,"time":522.1822916666785,"velocity":0.8031496062992126,"duration":0.7265624999998863},{"name":"G#4","midi":68,"time":522.1822916666785,"velocity":0.8031496062992126,"duration":0.49348958333325754},{"name":"D5","midi":74,"time":522.4309895833451,"velocity":0.8031496062992126,"duration":0.24609375},{"name":"A2","midi":45,"time":522.6796875000117,"velocity":0.8031496062992126,"duration":0.7291666666665151},{"name":"D5","midi":74,"time":522.6796875000117,"velocity":0.8031496062992126,"duration":0.24869791666662877},{"name":"A4","midi":69,"time":522.6796875000117,"velocity":0.8031496062992126,"duration":0.9882812499997726},{"name":"G#3","midi":56,"time":522.930989583345,"velocity":0.8031496062992126,"duration":0.24609375},{"name":"C5","midi":72,"time":522.930989583345,"velocity":0.8031496062992126,"duration":0.49739583333325754},{"name":"A3","midi":57,"time":523.1796875000116,"velocity":0.8031496062992126,"duration":1.4921874999997726},{"name":"B2","midi":47,"time":523.4309895833449,"velocity":0.8031496062992126,"duration":0.24609375},{"name":"D5","midi":74,"time":523.4309895833449,"velocity":0.8031496062992126,"duration":0.24609375},{"name":"C3","midi":48,"time":523.6796875000115,"velocity":0.8031496062992126,"duration":0.49479166666662877},{"name":"E5","midi":76,"time":523.6796875000115,"velocity":0.8031496062992126,"duration":0.24609375},{"name":"D5","midi":74,"time":523.9283854166781,"velocity":0.8031496062992126,"duration":0.24609375},{"name":"D3","midi":50,"time":524.1770833333447,"velocity":0.8031496062992126,"duration":0.49479166666662877},{"name":"E5","midi":76,"time":524.1770833333447,"velocity":0.8031496062992126,"duration":0.24609375},{"name":"F5","midi":77,"time":524.4270833333447,"velocity":0.8031496062992126,"duration":0.24609375},{"name":"E3","midi":52,"time":524.6757812500114,"velocity":0.8031496062992126,"duration":0.9869791666669698},{"name":"G#4","midi":68,"time":524.6757812500114,"velocity":0.8031496062992126,"duration":0.7265625000002274},{"name":"C5","midi":72,"time":524.6757812500114,"velocity":0.8031496062992126,"duration":0.15755208333337123},{"name":"B4","midi":71,"time":524.8385416666781,"velocity":0.8031496062992126,"duration":0.12109375},{"name":"C5","midi":72,"time":524.9492187500115,"velocity":0.8031496062992126,"duration":0.12109375},{"name":"B4","midi":71,"time":525.0611979166781,"velocity":0.8031496062992126,"duration":0.12109375000011369},{"name":"E2","midi":40,"time":525.1731770833449,"velocity":0.8031496062992126,"duration":0.4973958333334849},{"name":"C5","midi":72,"time":525.1731770833449,"velocity":0.8031496062992126,"duration":0.12109375000011369},{"name":"B4","midi":71,"time":525.2851562500116,"velocity":0.8031496062992126,"duration":0.13802083333337123},{"name":"A4","midi":69,"time":525.4244791666783,"velocity":0.8031496062992126,"duration":0.24609375},{"name":"A2","midi":45,"time":525.673177083345,"velocity":0.8031496062992126,"duration":0.49479166666662877},{"name":"C4","midi":60,"time":525.673177083345,"velocity":0.8031496062992126,"duration":0.7265624999998863},{"name":"E4","midi":64,"time":525.798177083345,"velocity":0.8031496062992126,"duration":0.6236979166665151},{"name":"A4","midi":69,"time":525.9218750000116,"velocity":0.8031496062992126,"duration":0.49739583333325754},{"name":"A3","midi":57,"time":526.1705729166782,"velocity":0.8031496062992126,"duration":0.49739583333325754},{"name":"B4","midi":71,"time":526.4218750000115,"velocity":0.8031496062992126,"duration":0.24609375},{"name":"G3","midi":55,"time":526.6705729166781,"velocity":0.8031496062992126,"duration":0.49479166666662877},{"name":"C#5","midi":73,"time":526.6705729166781,"velocity":0.8031496062992126,"duration":0.24609375},{"name":"D5","midi":74,"time":526.9192708333447,"velocity":0.8031496062992126,"duration":0.24609375},{"name":"F#3","midi":54,"time":527.1692708333447,"velocity":0.8031496062992126,"duration":0.49479166666662877},{"name":"E5","midi":76,"time":527.1692708333447,"velocity":0.8031496062992126,"duration":0.24609375},{"name":"F#5","midi":78,"time":527.4179687500114,"velocity":0.8031496062992126,"duration":0.24609375},{"name":"E3","midi":52,"time":527.666666666678,"velocity":0.8031496062992126,"duration":0.49479166666662877},{"name":"G5","midi":79,"time":527.666666666678,"velocity":0.8031496062992126,"duration":0.24609375},{"name":"A5","midi":81,"time":527.9153645833446,"velocity":0.8031496062992126,"duration":0.49348958333325754},{"name":"F#3","midi":54,"time":528.1640625000113,"velocity":0.8031496062992126,"duration":0.49479166666662877},{"name":"C5","midi":72,"time":528.1640625000113,"velocity":0.8031496062992126,"duration":0.49348958333325754},{"name":"D5","midi":74,"time":528.1640625000113,"velocity":0.8031496062992126,"duration":0.49348958333325754},{"name":"A5","midi":81,"time":528.4127604166779,"velocity":0.8031496062992126,"duration":0.24609375},{"name":"G3","midi":55,"time":528.6627604166779,"velocity":0.8031496062992126,"duration":0.7434895833332575},{"name":"B5","midi":83,"time":528.6627604166779,"velocity":0.8031496062992126,"duration":0.24609375},{"name":"C6","midi":84,"time":528.9114583333445,"velocity":0.8031496062992126,"duration":0.24609375},{"name":"B5","midi":83,"time":529.1601562500111,"velocity":0.8031496062992126,"duration":0.24609375},{"name":"A3","midi":57,"time":529.4088541666778,"velocity":0.8031496062992126,"duration":0.24609375},{"name":"A5","midi":81,"time":529.4088541666778,"velocity":0.8031496062992126,"duration":0.24609375},{"name":"B3","midi":59,"time":529.6575520833444,"velocity":0.8031496062992126,"duration":0.24609375},{"name":"G5","midi":79,"time":529.6575520833444,"velocity":0.8031496062992126,"duration":0.24609375},{"name":"A3","midi":57,"time":529.906250000011,"velocity":0.8031496062992126,"duration":0.24609375},{"name":"F#5","midi":78,"time":529.906250000011,"velocity":0.8031496062992126,"duration":0.24609375},{"name":"G3","midi":55,"time":530.156250000011,"velocity":0.8031496062992126,"duration":0.24609375},{"name":"E5","midi":76,"time":530.156250000011,"velocity":0.8031496062992126,"duration":0.24609375},{"name":"F#3","midi":54,"time":530.4049479166777,"velocity":0.8031496062992126,"duration":0.24609375},{"name":"D5","midi":74,"time":530.4049479166777,"velocity":0.8031496062992126,"duration":0.24609375},{"name":"E3","midi":52,"time":530.6536458333443,"velocity":0.8031496062992126,"duration":0.24609375},{"name":"C#5","midi":73,"time":530.6536458333443,"velocity":0.8031496062992126,"duration":0.24609375},{"name":"F#3","midi":54,"time":530.9023437500109,"velocity":0.8031496062992126,"duration":0.24609375},{"name":"D5","midi":74,"time":530.9023437500109,"velocity":0.8031496062992126,"duration":0.24609375},{"name":"E3","midi":52,"time":531.1510416666775,"velocity":0.8031496062992126,"duration":0.24609375},{"name":"E5","midi":76,"time":531.1510416666775,"velocity":0.8031496062992126,"duration":0.12109375},{"name":"D5","midi":74,"time":531.2760416666775,"velocity":0.8031496062992126,"duration":0.12109375},{"name":"D3","midi":50,"time":531.3997395833442,"velocity":0.8031496062992126,"duration":0.24609375},{"name":"C#5","midi":73,"time":531.3997395833442,"velocity":0.8031496062992126,"duration":0.12109375},{"name":"D5","midi":74,"time":531.5247395833442,"velocity":0.8031496062992126,"duration":0.12109375},{"name":"A3","midi":57,"time":531.6497395833442,"velocity":0.8031496062992126,"duration":0.7460937500001137},{"name":"E5","midi":76,"time":531.6497395833442,"velocity":0.8031496062992126,"duration":0.49739583333337123},{"name":"A4","midi":69,"time":532.1484375000109,"velocity":0.8031496062992126,"duration":7.464843749999432},{"name":"A2","midi":45,"time":532.3984375000109,"velocity":0.8031496062992126,"duration":0.24609375},{"name":"B4","midi":71,"time":532.4882812500109,"velocity":0.8031496062992126,"duration":0.12109375},{"name":"C#5","midi":73,"time":532.5963541666775,"velocity":0.8031496062992126,"duration":0.12109375},{"name":"B2","midi":47,"time":532.6471354166775,"velocity":0.8031496062992126,"duration":0.24609375},{"name":"D5","midi":74,"time":532.7317708333442,"velocity":0.8031496062992126,"duration":0.14453125},{"name":"C#5","midi":73,"time":532.8125000000108,"velocity":0.8031496062992126,"duration":0.12109375},{"name":"C#3","midi":49,"time":532.8958333333442,"velocity":0.8031496062992126,"duration":0.2460937499998863},{"name":"D5","midi":74,"time":532.9153645833442,"velocity":0.8031496062992126,"duration":0.12109374999988631},{"name":"C#5","midi":73,"time":533.0182291666774,"velocity":0.8031496062992126,"duration":0.12109375},{"name":"D5","midi":74,"time":533.1197916666774,"velocity":0.8031496062992126,"duration":0.12109375},{"name":"D3","midi":50,"time":533.1445312500107,"velocity":0.8031496062992126,"duration":0.24609375},{"name":"C#5","midi":73,"time":533.2239583333441,"velocity":0.8031496062992126,"duration":0.12109375},{"name":"D5","midi":74,"time":533.3268229166774,"velocity":0.8031496062992126,"duration":0.12109374999988631},{"name":"E3","midi":52,"time":533.3932291666773,"velocity":0.8031496062992126,"duration":0.2460937500001137},{"name":"C#5","midi":73,"time":533.430989583344,"velocity":0.8031496062992126,"duration":0.12109375000011369},{"name":"D5","midi":74,"time":533.5351562500107,"velocity":0.8031496062992126,"duration":0.12109375},{"name":"C#5","midi":73,"time":533.6380208333441,"velocity":0.8031496062992126,"duration":0.12109375},{"name":"F#3","midi":54,"time":533.6419270833441,"velocity":0.8031496062992126,"duration":0.24869791666662877},{"name":"D5","midi":74,"time":533.7421875000107,"velocity":0.8031496062992126,"duration":0.12109375},{"name":"C#5","midi":73,"time":533.8450520833441,"velocity":0.8031496062992126,"duration":0.12109374999988631},{"name":"G3","midi":55,"time":533.8932291666773,"velocity":0.8031496062992126,"duration":0.7252604166667425},{"name":"D5","midi":74,"time":533.9479166666773,"velocity":0.8031496062992126,"duration":0.12109375},{"name":"C#5","midi":73,"time":534.063802083344,"velocity":0.8031496062992126,"duration":0.12109375},{"name":"A2","midi":45,"time":534.141927083344,"velocity":0.8031496062992126,"duration":1.2434895833331439},{"name":"D5","midi":74,"time":534.1796875000106,"velocity":0.8031496062992126,"duration":0.12109375},{"name":"C#5","midi":73,"time":534.294270833344,"velocity":0.8031496062992126,"duration":0.12109375},{"name":"B4","midi":71,"time":534.4101562500106,"velocity":0.8031496062992126,"duration":0.12109375000011369},{"name":"C#5","midi":73,"time":534.5260416666773,"velocity":0.8031496062992126,"duration":0.12109375},{"name":"E5","midi":76,"time":534.6406250000107,"velocity":0.8031496062992126,"duration":0.22135416666662877},{"name":"G3","midi":55,"time":534.6406250000107,"velocity":0.8031496062992126,"duration":0.2460937499998863},{"name":"D5","midi":74,"time":534.872395833344,"velocity":0.8031496062992126,"duration":0.12109374999988631},{"name":"F#3","midi":54,"time":534.8893229166772,"velocity":0.8031496062992126,"duration":0.9843749999998863},{"name":"E5","midi":76,"time":534.9934895833438,"velocity":0.8031496062992126,"duration":0.12109375},{"name":"D5","midi":74,"time":535.1041666666772,"velocity":0.8031496062992126,"duration":0.12109374999988631},{"name":"E5","midi":76,"time":535.2148437500105,"velocity":0.8031496062992126,"duration":0.12109375},{"name":"D5","midi":74,"time":535.3268229166771,"velocity":0.8031496062992126,"duration":0.12109375},{"name":"B2","midi":47,"time":535.3867187500105,"velocity":0.8031496062992126,"duration":0.24609375},{"name":"E5","midi":76,"time":535.4375000000105,"velocity":0.8031496062992126,"duration":0.12109375},{"name":"D5","midi":74,"time":535.5494791666771,"velocity":0.8031496062992126,"duration":0.12109375},{"name":"C#3","midi":49,"time":535.6354166666771,"velocity":0.8031496062992126,"duration":0.24609375},{"name":"E5","midi":76,"time":535.6601562500105,"velocity":0.8031496062992126,"duration":0.12109375},{"name":"D5","midi":74,"time":535.7721354166771,"velocity":0.8031496062992126,"duration":0.12109375000011369},{"name":"E5","midi":76,"time":535.8828125000105,"velocity":0.8031496062992126,"duration":0.12109375000011369},{"name":"D3","midi":50,"time":535.8841145833438,"velocity":0.8031496062992126,"duration":0.2460937500001137},{"name":"D5","midi":74,"time":535.9947916666772,"velocity":0.8031496062992126,"duration":0.12109375000011369},{"name":"E5","midi":76,"time":536.106770833344,"velocity":0.8031496062992126,"duration":0.12109375},{"name":"E3","midi":52,"time":536.134114583344,"velocity":0.8031496062992126,"duration":0.24609375},{"name":"D5","midi":74,"time":536.2174479166773,"velocity":0.8031496062992126,"duration":0.12109375},{"name":"E5","midi":76,"time":536.329427083344,"velocity":0.8031496062992126,"duration":0.12109374999988631},{"name":"F#3","midi":54,"time":536.3828125000106,"velocity":0.8031496062992126,"duration":0.2460937499998863},{"name":"D5","midi":74,"time":536.4401041666772,"velocity":0.8031496062992126,"duration":0.12109374999988631},{"name":"E5","midi":76,"time":536.5507812500105,"velocity":0.8031496062992126,"duration":0.12109375},{"name":"G3","midi":55,"time":536.6315104166771,"velocity":0.8031496062992126,"duration":0.24609375},{"name":"D5","midi":74,"time":536.6627604166771,"velocity":0.8031496062992126,"duration":0.12109375},{"name":"E5","midi":76,"time":536.7734375000105,"velocity":0.8031496062992126,"duration":0.12109375},{"name":"A3","midi":57,"time":536.8802083333437,"velocity":0.8031496062992126,"duration":0.7252604166667425},{"name":"D5","midi":74,"time":536.8854166666771,"velocity":0.8031496062992126,"duration":0.12109375},{"name":"E5","midi":76,"time":536.9960937500105,"velocity":0.8031496062992126,"duration":0.12109375},{"name":"D5","midi":74,"time":537.1080729166771,"velocity":0.8031496062992126,"duration":0.12109375},{"name":"B2","midi":47,"time":537.1289062500105,"velocity":0.8031496062992126,"duration":0.49479166666662877},{"name":"E5","midi":76,"time":537.2187500000105,"velocity":0.8031496062992126,"duration":0.12109375},{"name":"D5","midi":74,"time":537.3268229166771,"velocity":0.8031496062992126,"duration":0.12109375},{"name":"C#5","midi":73,"time":537.4218750000105,"velocity":0.8031496062992126,"duration":0.12109375},{"name":"D5","midi":74,"time":537.5299479166771,"velocity":0.8031496062992126,"duration":0.109375},{"name":"C#3","midi":49,"time":537.6276041666771,"velocity":0.8031496062992126,"duration":0.9843749999998863},{"name":"E5","midi":76,"time":537.6276041666771,"velocity":0.8031496062992126,"duration":0.7434895833332575},{"name":"F#3","midi":54,"time":537.8763020833437,"velocity":0.8031496062992126,"duration":0.24609375},{"name":"G3","midi":55,"time":538.1250000000103,"velocity":0.8031496062992126,"duration":0.24609375},{"name":"E3","midi":52,"time":538.373697916677,"velocity":0.8031496062992126,"duration":0.24609375},{"name":"F#5","midi":78,"time":538.373697916677,"velocity":0.8031496062992126,"duration":0.24609375},{"name":"D3","midi":50,"time":538.6223958333436,"velocity":0.8031496062992126,"duration":0.49479166666662877},{"name":"F#3","midi":54,"time":538.6223958333436,"velocity":0.8031496062992126,"duration":0.7265625},{"name":"D5","midi":74,"time":538.6223958333436,"velocity":0.8031496062992126,"duration":0.24609375},{"name":"C#5","midi":73,"time":538.8710937500102,"velocity":0.8031496062992126,"duration":0.24609375},{"name":"G2","midi":43,"time":539.1210937500102,"velocity":0.8031496062992126,"duration":0.49479166666674246},{"name":"D5","midi":74,"time":539.1210937500102,"velocity":0.8031496062992126,"duration":0.24869791666674246},{"name":"E3","midi":52,"time":539.3710937500103,"velocity":0.8031496062992126,"duration":0.24609375},{"name":"E5","midi":76,"time":539.3710937500103,"velocity":0.8031496062992126,"duration":0.24609375},{"name":"A2","midi":45,"time":539.6210937500103,"velocity":0.8031496062992126,"duration":0.984375},{"name":"E3","midi":52,"time":539.6210937500103,"velocity":0.8031496062992126,"duration":0.7434895833333712},{"name":"G4","midi":67,"time":539.6210937500103,"velocity":0.8031496062992126,"duration":0.984375},{"name":"D5","midi":74,"time":539.6210937500103,"velocity":0.8031496062992126,"duration":0.26953125},{"name":"C#5","midi":73,"time":539.8945312500103,"velocity":0.8031496062992126,"duration":0.12109375},{"name":"D5","midi":74,"time":540.006510416677,"velocity":0.8031496062992126,"duration":0.12109375000011369},{"name":"C#5","midi":73,"time":540.1184895833437,"velocity":0.8031496062992126,"duration":0.24609375},{"name":"D3","midi":50,"time":540.3671875000103,"velocity":0.8031496062992126,"duration":0.24609375},{"name":"D5","midi":74,"time":540.3671875000103,"velocity":0.8031496062992126,"duration":0.24609375},{"name":"D3","midi":50,"time":540.615885416677,"velocity":0.8031496062992126,"duration":0.74609375},{"name":"D2","midi":38,"time":540.615885416677,"velocity":0.8031496062992126,"duration":0.74609375},{"name":"A4","midi":69,"time":540.615885416677,"velocity":0.8031496062992126,"duration":0.49739583333337123},{"name":"F#4","midi":66,"time":540.615885416677,"velocity":0.8031496062992126,"duration":0.49739583333337123},{"name":"D5","midi":74,"time":540.615885416677,"velocity":0.8031496062992126,"duration":0.46875},{"name":"F#5","midi":78,"time":541.115885416677,"velocity":0.8031496062992126,"duration":0.46744791666662877},{"name":"D4","midi":62,"time":541.3645833333436,"velocity":0.8031496062992126,"duration":0.24609375},{"name":"C4","midi":60,"time":541.6132812500102,"velocity":0.8031496062992126,"duration":0.24609375},{"name":"A5","midi":81,"time":541.6132812500102,"velocity":0.8031496062992126,"duration":0.7434895833332575},{"name":"B3","midi":59,"time":541.8632812500102,"velocity":0.8031496062992126,"duration":0.24609375},{"name":"A3","midi":57,"time":542.1119791666769,"velocity":0.8031496062992126,"duration":0.24609375},{"name":"G3","midi":55,"time":542.3606770833435,"velocity":0.8031496062992126,"duration":0.24609375},{"name":"B5","midi":83,"time":542.3606770833435,"velocity":0.8031496062992126,"duration":0.24609375},{"name":"F#3","midi":54,"time":542.6093750000101,"velocity":0.8031496062992126,"duration":0.24609375},{"name":"A5","midi":81,"time":542.6093750000101,"velocity":0.8031496062992126,"duration":0.24609375},{"name":"G3","midi":55,"time":542.8580729166767,"velocity":0.8031496062992126,"duration":0.24609375},{"name":"G5","midi":79,"time":542.8580729166767,"velocity":0.8031496062992126,"duration":0.24609375},{"name":"A3","midi":57,"time":543.1067708333434,"velocity":0.8031496062992126,"duration":0.24609375},{"name":"F#5","midi":78,"time":543.1067708333434,"velocity":0.8031496062992126,"duration":0.24609375},{"name":"F#3","midi":54,"time":543.3567708333434,"velocity":0.8031496062992126,"duration":0.24609375},{"name":"E5","midi":76,"time":543.3567708333434,"velocity":0.8031496062992126,"duration":0.24609375},{"name":"B3","midi":59,"time":543.60546875001,"velocity":0.8031496062992126,"duration":0.7434895833332575},{"name":"D#5","midi":75,"time":543.60546875001,"velocity":0.8031496062992126,"duration":0.24609375},{"name":"B4","midi":71,"time":543.8541666666766,"velocity":0.8031496062992126,"duration":0.24609375},{"name":"C#5","midi":73,"time":544.1028645833433,"velocity":0.8031496062992126,"duration":0.24609375},{"name":"A3","midi":57,"time":544.3515625000099,"velocity":0.8031496062992126,"duration":0.24609375},{"name":"D#5","midi":75,"time":544.3515625000099,"velocity":0.8031496062992126,"duration":0.24609375},{"name":"G3","midi":55,"time":544.6002604166765,"velocity":0.8031496062992126,"duration":0.24609375},{"name":"E5","midi":76,"time":544.6002604166765,"velocity":0.8031496062992126,"duration":0.24609375},{"name":"F#3","midi":54,"time":544.8489583333431,"velocity":0.8031496062992126,"duration":0.24609375},{"name":"F#5","midi":78,"time":544.8489583333431,"velocity":0.8031496062992126,"duration":0.24609375},{"name":"E3","midi":52,"time":545.0989583333431,"velocity":0.8031496062992126,"duration":0.24609375},{"name":"G5","midi":79,"time":545.0989583333431,"velocity":0.8031496062992126,"duration":0.24609375},{"name":"D#3","midi":51,"time":545.3476562500098,"velocity":0.8031496062992126,"duration":0.24609375},{"name":"A5","midi":81,"time":545.3476562500098,"velocity":0.8031496062992126,"duration":0.24609375},{"name":"E3","midi":52,"time":545.5963541666764,"velocity":0.8031496062992126,"duration":0.24609375},{"name":"G5","midi":79,"time":545.5963541666764,"velocity":0.8031496062992126,"duration":0.24609375},{"name":"F#3","midi":54,"time":545.845052083343,"velocity":0.8031496062992126,"duration":0.24609375},{"name":"F#5","midi":78,"time":545.845052083343,"velocity":0.8031496062992126,"duration":0.24609375},{"name":"G3","midi":55,"time":546.0937500000097,"velocity":0.8031496062992126,"duration":0.24609375},{"name":"E5","midi":76,"time":546.0937500000097,"velocity":0.8031496062992126,"duration":0.24609375},{"name":"E3","midi":52,"time":546.3424479166763,"velocity":0.8031496062992126,"duration":0.24609375},{"name":"D5","midi":74,"time":546.3424479166763,"velocity":0.8031496062992126,"duration":0.24609375},{"name":"A3","midi":57,"time":546.5924479166763,"velocity":0.8031496062992126,"duration":0.24609375},{"name":"C5","midi":72,"time":546.5924479166763,"velocity":0.8031496062992126,"duration":0.7434895833332575},{"name":"B3","midi":59,"time":546.8411458333429,"velocity":0.8031496062992126,"duration":0.24609375},{"name":"A3","midi":57,"time":547.0898437500095,"velocity":0.8031496062992126,"duration":0.24609375},{"name":"G3","midi":55,"time":547.3385416666762,"velocity":0.8031496062992126,"duration":0.24609375},{"name":"B4","midi":71,"time":547.3385416666762,"velocity":0.8031496062992126,"duration":0.24609375},{"name":"F#3","midi":54,"time":547.5872395833428,"velocity":0.8031496062992126,"duration":0.24609375},{"name":"A4","midi":69,"time":547.5872395833428,"velocity":0.8031496062992126,"duration":0.24609375},{"name":"E4","midi":64,"time":547.8359375000094,"velocity":0.8031496062992126,"duration":0.24609375},{"name":"C5","midi":72,"time":547.8359375000094,"velocity":0.8031496062992126,"duration":0.24609375},{"name":"D#4","midi":63,"time":548.0859375000094,"velocity":0.8031496062992126,"duration":0.24609375},{"name":"B4","midi":71,"time":548.0859375000094,"velocity":0.8031496062992126,"duration":0.24609375},{"name":"B3","midi":59,"time":548.3346354166761,"velocity":0.8031496062992126,"duration":0.24609375},{"name":"A4","midi":69,"time":548.3346354166761,"velocity":0.8031496062992126,"duration":0.24609375},{"name":"E4","midi":64,"time":548.5833333333427,"velocity":0.8031496062992126,"duration":0.24609375},{"name":"A4","midi":69,"time":548.5833333333427,"velocity":0.8031496062992126,"duration":0.1640625},{"name":"G4","midi":67,"time":548.7500000000093,"velocity":0.8031496062992126,"duration":0.12109375},{"name":"B3","midi":59,"time":548.8320312500093,"velocity":0.8031496062992126,"duration":0.2499999999998863},{"name":"A4","midi":69,"time":548.8320312500093,"velocity":0.8031496062992126,"duration":0.12369791666662877},{"name":"G4","midi":67,"time":548.916666666676,"velocity":0.8031496062992126,"duration":0.12369791666662877},{"name":"A4","midi":69,"time":549.0013020833426,"velocity":0.8031496062992126,"duration":0.12369791666662877},{"name":"C#4","midi":61,"time":549.0846354166758,"velocity":0.8031496062992126,"duration":0.24869791666674246},{"name":"G4","midi":67,"time":549.0846354166758,"velocity":0.8031496062992126,"duration":0.24869791666674246},{"name":"A#3","midi":58,"time":549.3359375000092,"velocity":0.8031496062992126,"duration":0.24609375},{"name":"F#4","midi":66,"time":549.3359375000092,"velocity":0.8031496062992126,"duration":0.24609375},{"name":"B3","midi":59,"time":549.5846354166758,"velocity":0.8031496062992126,"duration":0.49739583333337123},{"name":"F#4","midi":66,"time":549.5846354166758,"velocity":0.8031496062992126,"duration":0.74609375},{"name":"D#4","midi":63,"time":549.5846354166758,"velocity":0.8031496062992126,"duration":0.74609375},{"name":"B2","midi":47,"time":550.0846354166758,"velocity":0.8031496062992126,"duration":0.9843749999998863},{"name":"A5","midi":81,"time":550.3333333333425,"velocity":0.8031496062992126,"duration":0.24609375},{"name":"G5","midi":79,"time":550.5833333333425,"velocity":0.8031496062992126,"duration":0.24609375},{"name":"F#5","midi":78,"time":550.8320312500091,"velocity":0.8031496062992126,"duration":0.24609375},{"name":"E5","midi":76,"time":551.0807291666757,"velocity":0.8031496062992126,"duration":0.24609375},{"name":"D#5","midi":75,"time":551.3294270833424,"velocity":0.8031496062992126,"duration":0.24609375},{"name":"C#5","midi":73,"time":551.578125000009,"velocity":0.8031496062992126,"duration":0.24609375},{"name":"B4","midi":71,"time":551.8268229166756,"velocity":0.8031496062992126,"duration":0.7265625},{"name":"B3","midi":59,"time":552.0768229166756,"velocity":0.8031496062992126,"duration":0.49739583333337123},{"name":"G5","midi":79,"time":552.0768229166756,"velocity":0.8031496062992126,"duration":0.49739583333337123},{"name":"E4","midi":64,"time":552.0768229166756,"velocity":0.8031496062992126,"duration":0.49739583333337123},{"name":"B3","midi":59,"time":552.5768229166756,"velocity":0.8031496062992126,"duration":0.49479166666662877},{"name":"D#4","midi":63,"time":552.5768229166756,"velocity":0.8031496062992126,"duration":0.7434895833332575},{"name":"F#4","midi":66,"time":552.7005208333422,"velocity":0.8031496062992126,"duration":0.7434895833332575},{"name":"A4","midi":69,"time":552.8255208333422,"velocity":0.8031496062992126,"duration":0.7434895833332575},{"name":"B2","midi":47,"time":553.0742187500089,"velocity":0.8031496062992126,"duration":1.2434895833332575},{"name":"G5","midi":79,"time":553.3229166666755,"velocity":0.8031496062992126,"duration":0.24609375},{"name":"F#5","midi":78,"time":553.5716145833421,"velocity":0.8031496062992126,"duration":0.24609375},{"name":"E5","midi":76,"time":553.8203125000088,"velocity":0.8031496062992126,"duration":0.24609375},{"name":"D#5","midi":75,"time":554.0703125000088,"velocity":0.8031496062992126,"duration":0.24609375},{"name":"C#5","midi":73,"time":554.3190104166755,"velocity":0.8031496062992126,"duration":0.24609375},{"name":"B4","midi":71,"time":554.5677083333421,"velocity":0.8031496062992126,"duration":0.24609375},{"name":"A4","midi":69,"time":554.8164062500088,"velocity":0.8031496062992126,"duration":0.7265625},{"name":"B3","midi":59,"time":555.0651041666754,"velocity":0.8031496062992126,"duration":0.49739583333337123},{"name":"D#4","midi":63,"time":555.0651041666754,"velocity":0.8031496062992126,"duration":0.49739583333337123},{"name":"F#4","midi":66,"time":555.0651041666754,"velocity":0.8031496062992126,"duration":0.49739583333337123},{"name":"F#5","midi":78,"time":555.0651041666754,"velocity":0.8031496062992126,"duration":0.49739583333337123},{"name":"B3","midi":59,"time":555.5651041666754,"velocity":0.8031496062992126,"duration":0.49739583333337123},{"name":"E4","midi":64,"time":555.5651041666754,"velocity":0.8031496062992126,"duration":0.9869791666666288},{"name":"G4","midi":67,"time":555.5651041666754,"velocity":0.8031496062992126,"duration":0.74609375},{"name":"B2","midi":47,"time":556.0651041666754,"velocity":0.8031496062992126,"duration":0.7434895833332575},{"name":"B4","midi":71,"time":556.313802083342,"velocity":0.8031496062992126,"duration":0.24609375},{"name":"C#5","midi":73,"time":556.5625000000086,"velocity":0.8031496062992126,"duration":0.24609375},{"name":"B2","midi":47,"time":556.8125000000086,"velocity":0.8031496062992126,"duration":0.24609375},{"name":"D#5","midi":75,"time":556.8125000000086,"velocity":0.8031496062992126,"duration":0.24609375},{"name":"C#3","midi":49,"time":557.0611979166753,"velocity":0.8031496062992126,"duration":0.24609375},{"name":"E5","midi":76,"time":557.0611979166753,"velocity":0.8031496062992126,"duration":0.24609375},{"name":"D#3","midi":51,"time":557.3098958333419,"velocity":0.8031496062992126,"duration":0.24609375},{"name":"F#5","midi":78,"time":557.3098958333419,"velocity":0.8031496062992126,"duration":0.24609375},{"name":"E3","midi":52,"time":557.5585937500085,"velocity":0.8031496062992126,"duration":0.24609375},{"name":"G5","midi":79,"time":557.5585937500085,"velocity":0.8031496062992126,"duration":0.24609375},{"name":"F#3","midi":54,"time":557.8072916666752,"velocity":0.8031496062992126,"duration":0.24609375},{"name":"A5","midi":81,"time":557.8072916666752,"velocity":0.8031496062992126,"duration":1.4908854166666288},{"name":"G3","midi":55,"time":558.0559895833418,"velocity":0.8031496062992126,"duration":0.24609375},{"name":"C#5","midi":73,"time":558.0559895833418,"velocity":0.8031496062992126,"duration":0.49479166666662877},{"name":"A3","midi":57,"time":558.3046875000084,"velocity":0.8031496062992126,"duration":0.24609375},{"name":"B3","midi":59,"time":558.5546875000084,"velocity":0.8031496062992126,"duration":0.24609375},{"name":"E5","midi":76,"time":558.5546875000084,"velocity":0.8031496062992126,"duration":0.37109375},{"name":"C#4","midi":61,"time":558.803385416675,"velocity":0.8031496062992126,"duration":0.2460937500001137},{"name":"D#5","midi":75,"time":558.9270833333418,"velocity":0.8031496062992126,"duration":0.49348958333325754},{"name":"D#4","midi":63,"time":559.0520833333418,"velocity":0.8031496062992126,"duration":0.24609375},{"name":"B3","midi":59,"time":559.3007812500084,"velocity":0.8031496062992126,"duration":0.24609375},{"name":"B5","midi":83,"time":559.3007812500084,"velocity":0.8031496062992126,"duration":0.24609375},{"name":"E4","midi":64,"time":559.549479166675,"velocity":0.8031496062992126,"duration":0.49479166666662877},{"name":"E5","midi":76,"time":559.549479166675,"velocity":0.8031496062992126,"duration":0.7265625},{"name":"F#5","midi":78,"time":559.674479166675,"velocity":0.8031496062992126,"duration":0.24609375},{"name":"G5","midi":79,"time":559.7981770833417,"velocity":0.8031496062992126,"duration":0.49348958333337123},{"name":"A3","midi":57,"time":560.0481770833417,"velocity":0.8031496062992126,"duration":0.49479166666674246},{"name":"F#5","midi":78,"time":560.2968750000084,"velocity":0.8031496062992126,"duration":0.24609375},{"name":"B3","midi":59,"time":560.545572916675,"velocity":0.8031496062992126,"duration":0.49479166666662877},{"name":"D#5","midi":75,"time":560.545572916675,"velocity":0.8031496062992126,"duration":0.7252604166666288},{"name":"G5","midi":79,"time":560.545572916675,"velocity":0.8031496062992126,"duration":0.12109375},{"name":"F#5","midi":78,"time":560.6692708333417,"velocity":0.8031496062992126,"duration":0.12109375},{"name":"G5","midi":79,"time":560.7942708333417,"velocity":0.8031496062992126,"duration":0.12109375},{"name":"F#5","midi":78,"time":560.9192708333417,"velocity":0.8031496062992126,"duration":0.12109375},{"name":"B2","midi":47,"time":561.0429687500083,"velocity":0.8031496062992126,"duration":0.49479166666662877},{"name":"G5","midi":79,"time":561.0429687500083,"velocity":0.8031496062992126,"duration":0.12109375},{"name":"F#5","midi":78,"time":561.1679687500083,"velocity":0.8031496062992126,"duration":0.12109375},{"name":"E5","midi":76,"time":561.2916666666749,"velocity":0.8031496062992126,"duration":0.24609375},{"name":"E3","midi":52,"time":561.5416666666749,"velocity":0.8031496062992126,"duration":1.4973958333333712},{"name":"E5","midi":76,"time":561.5416666666749,"velocity":0.8031496062992126,"duration":3.9817708333333712},{"name":"E2","midi":40,"time":562.0403645833416,"velocity":0.8031496062992126,"duration":3.9817708333333712},{"name":"B2","midi":47,"time":562.5403645833416,"velocity":0.8031496062992126,"duration":0.49739583333337123},{"name":"E3","midi":52,"time":563.0403645833417,"velocity":0.8031496062992126,"duration":4.494791666666629},{"name":"B4","midi":71,"time":563.0403645833417,"velocity":0.8031496062992126,"duration":4.494791666666629},{"name":"G4","midi":67,"time":563.0403645833417,"velocity":0.8031496062992126,"duration":4.494791666666629},{"name":"E4","midi":64,"time":567.5377604166749,"velocity":0.8031496062992126,"duration":0.9947916666666288},{"name":"B4","midi":71,"time":567.5377604166749,"velocity":0.8031496062992126,"duration":0.49739583333337123},{"name":"G4","midi":67,"time":567.5377604166749,"velocity":0.8031496062992126,"duration":0.9869791666666288},{"name":"A4","midi":69,"time":568.0377604166749,"velocity":0.8031496062992126,"duration":0.24609375},{"name":"B4","midi":71,"time":568.2864583333416,"velocity":0.8031496062992126,"duration":0.24609375},{"name":"E3","midi":52,"time":568.5351562500082,"velocity":0.8031496062992126,"duration":0.9973958333333712},{"name":"C5","midi":72,"time":568.5351562500082,"velocity":0.8031496062992126,"duration":0.49739583333337123},{"name":"A4","midi":69,"time":568.5351562500082,"velocity":0.8031496062992126,"duration":0.49739583333337123},{"name":"B4","midi":71,"time":569.0351562500082,"velocity":0.8031496062992126,"duration":0.49739583333337123},{"name":"G4","midi":67,"time":569.0351562500082,"velocity":0.8031496062992126,"duration":0.49739583333337123},{"name":"A3","midi":57,"time":569.5351562500082,"velocity":0.8031496062992126,"duration":0.9973958333333712},{"name":"F#4","midi":66,"time":569.5351562500082,"velocity":0.8031496062992126,"duration":0.49739583333337123},{"name":"A4","midi":69,"time":569.5351562500082,"velocity":0.8031496062992126,"duration":0.49739583333337123},{"name":"E4","midi":64,"time":570.0351562500082,"velocity":0.8031496062992126,"duration":0.49739583333337123},{"name":"G4","midi":67,"time":570.0351562500082,"velocity":0.8031496062992126,"duration":0.49739583333337123},{"name":"B3","midi":59,"time":570.5351562500082,"velocity":0.8031496062992126,"duration":0.49479166666662877},{"name":"F#4","midi":66,"time":570.5351562500082,"velocity":0.8031496062992126,"duration":0.24609375},{"name":"D#4","midi":63,"time":570.5351562500082,"velocity":0.8031496062992126,"duration":0.9843749999998863},{"name":"A4","midi":69,"time":570.7838541666748,"velocity":0.8031496062992126,"duration":0.24609375},{"name":"B2","midi":47,"time":571.0338541666748,"velocity":0.8031496062992126,"duration":0.49479166666662877},{"name":"G4","midi":67,"time":571.0338541666748,"velocity":0.8031496062992126,"duration":0.24609375},{"name":"F#4","midi":66,"time":571.2825520833414,"velocity":0.8031496062992126,"duration":0.24609375},{"name":"E3","midi":52,"time":571.5312500000081,"velocity":0.8031496062992126,"duration":0.49739583333337123},{"name":"G4","midi":67,"time":571.5312500000081,"velocity":0.8031496062992126,"duration":0.9973958333333712},{"name":"E4","midi":64,"time":571.5312500000081,"velocity":0.8031496062992126,"duration":0.9973958333333712},{"name":"F#3","midi":54,"time":572.0312500000081,"velocity":0.8031496062992126,"duration":0.49739583333337123},{"name":"G3","midi":55,"time":572.5312500000081,"velocity":0.8031496062992126,"duration":0.49479166666674246},{"name":"E4","midi":64,"time":572.5312500000081,"velocity":0.8031496062992126,"duration":0.9947916666667425},{"name":"B3","midi":59,"time":572.5312500000081,"velocity":0.8031496062992126,"duration":0.49348958333337123},{"name":"A3","midi":57,"time":573.0286458333414,"velocity":0.8031496062992126,"duration":0.49739583333337123},{"name":"B3","midi":59,"time":573.5286458333414,"velocity":0.8031496062992126,"duration":0.9947916666666288},{"name":"G4","midi":67,"time":573.5286458333414,"velocity":0.8031496062992126,"duration":0.9869791666666288},{"name":"D5","midi":74,"time":573.5286458333414,"velocity":0.8031496062992126,"duration":0.49739583333337123},{"name":"C5","midi":72,"time":574.0286458333414,"velocity":0.8031496062992126,"duration":0.24609375},{"name":"D5","midi":74,"time":574.2773437500081,"velocity":0.8031496062992126,"duration":0.24609375},{"name":"C4","midi":60,"time":574.5260416666747,"velocity":0.8031496062992126,"duration":0.9973958333333712},{"name":"G4","midi":67,"time":574.5260416666747,"velocity":0.8031496062992126,"duration":0.49739583333337123},{"name":"E5","midi":76,"time":574.5260416666747,"velocity":0.8031496062992126,"duration":0.49739583333337123},{"name":"D5","midi":74,"time":575.0260416666747,"velocity":0.8031496062992126,"duration":0.49739583333337123},{"name":"B4","midi":71,"time":575.0260416666747,"velocity":0.8031496062992126,"duration":0.49739583333337123},{"name":"C3","midi":48,"time":575.5260416666747,"velocity":0.8031496062992126,"duration":0.9973958333333712},{"name":"A4","midi":69,"time":575.5260416666747,"velocity":0.8031496062992126,"duration":0.49739583333337123},{"name":"C5","midi":72,"time":575.5260416666747,"velocity":0.8031496062992126,"duration":0.49739583333337123},{"name":"B4","midi":71,"time":576.0260416666747,"velocity":0.8031496062992126,"duration":0.49739583333337123},{"name":"G4","midi":67,"time":576.0260416666747,"velocity":0.8031496062992126,"duration":0.49739583333337123},{"name":"D3","midi":50,"time":576.5260416666747,"velocity":0.8031496062992126,"duration":0.49479166666662877},{"name":"A4","midi":69,"time":576.5260416666747,"velocity":0.8031496062992126,"duration":0.24609375},{"name":"F#4","midi":66,"time":576.5260416666747,"velocity":0.8031496062992126,"duration":0.9843749999998863},{"name":"C5","midi":72,"time":576.7747395833413,"velocity":0.8031496062992126,"duration":0.24609375},{"name":"D2","midi":38,"time":577.023437500008,"velocity":0.8031496062992126,"duration":0.49479166666662877},{"name":"B4","midi":71,"time":577.023437500008,"velocity":0.8031496062992126,"duration":0.24609375},{"name":"A4","midi":69,"time":577.273437500008,"velocity":0.8031496062992126,"duration":0.24609375},{"name":"G2","midi":43,"time":577.5221354166746,"velocity":0.8031496062992126,"duration":1.4947916666666288},{"name":"G4","midi":67,"time":577.5221354166746,"velocity":0.8031496062992126,"duration":1.4947916666666288},{"name":"B4","midi":71,"time":578.2708333333412,"velocity":0.8031496062992126,"duration":0.24609375},{"name":"E5","midi":76,"time":578.5195312500078,"velocity":0.8031496062992126,"duration":1.4973958333333712},{"name":"G3","midi":55,"time":579.2708333333412,"velocity":0.8031496062992126,"duration":0.24609375},{"name":"B4","midi":71,"time":579.2708333333412,"velocity":0.8031496062992126,"duration":0.24609375},{"name":"F#3","midi":54,"time":579.5195312500078,"velocity":0.8031496062992126,"duration":0.49739583333337123},{"name":"A4","midi":69,"time":579.5195312500078,"velocity":0.8031496062992126,"duration":1.4947916666666288},{"name":"G3","midi":55,"time":580.0195312500078,"velocity":0.8031496062992126,"duration":0.49479166666662877},{"name":"D5","midi":74,"time":580.0195312500078,"velocity":0.8031496062992126,"duration":0.24609375},{"name":"C#5","midi":73,"time":580.2682291666745,"velocity":0.8031496062992126,"duration":0.24609375},{"name":"F#3","midi":54,"time":580.5169270833411,"velocity":0.8031496062992126,"duration":0.49739583333337123},{"name":"D5","midi":74,"time":580.5169270833411,"velocity":0.8031496062992126,"duration":0.49739583333337123},{"name":"E3","midi":52,"time":581.0169270833411,"velocity":0.8031496062992126,"duration":0.49479166666662877},{"name":"E5","midi":76,"time":581.0169270833411,"velocity":0.8031496062992126,"duration":0.49348958333325754},{"name":"B4","midi":71,"time":581.0169270833411,"velocity":0.8031496062992126,"duration":0.24609375},{"name":"C#5","midi":73,"time":581.2656250000077,"velocity":0.8031496062992126,"duration":0.24609375},{"name":"D3","midi":50,"time":581.5143229166744,"velocity":0.8031496062992126,"duration":0.49739583333337123},{"name":"D5","midi":74,"time":581.5143229166744,"velocity":0.8031496062992126,"duration":0.49739583333337123},{"name":"F#5","midi":78,"time":581.5143229166744,"velocity":0.8031496062992126,"duration":1.4947916666666288},{"name":"E3","midi":52,"time":582.0143229166744,"velocity":0.8031496062992126,"duration":0.24609375},{"name":"C#5","midi":73,"time":582.0143229166744,"velocity":0.8031496062992126,"duration":0.49479166666662877},{"name":"F#3","midi":54,"time":582.263020833341,"velocity":0.8031496062992126,"duration":0.24609375},{"name":"G3","midi":55,"time":582.513020833341,"velocity":0.8031496062992126,"duration":0.49739583333337123},{"name":"B4","midi":71,"time":582.513020833341,"velocity":0.8031496062992126,"duration":1.4947916666666288},{"name":"A3","midi":57,"time":583.013020833341,"velocity":0.8031496062992126,"duration":0.49479166666662877},{"name":"E5","midi":76,"time":583.013020833341,"velocity":0.8031496062992126,"duration":0.24609375},{"name":"D#5","midi":75,"time":583.2617187500076,"velocity":0.8031496062992126,"duration":0.24609375},{"name":"G3","midi":55,"time":583.5104166666742,"velocity":0.8031496062992126,"duration":0.49739583333337123},{"name":"E5","midi":76,"time":583.5104166666742,"velocity":0.8031496062992126,"duration":0.49739583333337123},{"name":"F#3","midi":54,"time":584.0104166666742,"velocity":0.8031496062992126,"duration":0.49479166666662877},{"name":"F#5","midi":78,"time":584.0104166666742,"velocity":0.8031496062992126,"duration":0.49348958333325754},{"name":"C#5","midi":73,"time":584.0104166666742,"velocity":0.8031496062992126,"duration":0.24609375},{"name":"D#5","midi":75,"time":584.2591145833409,"velocity":0.8031496062992126,"duration":0.24609375},{"name":"E3","midi":52,"time":584.5078125000075,"velocity":0.8031496062992126,"duration":0.49479166666662877},{"name":"E5","midi":76,"time":584.5078125000075,"velocity":0.8031496062992126,"duration":0.49348958333325754},{"name":"G5","midi":79,"time":584.5078125000075,"velocity":0.8031496062992126,"duration":0.24609375},{"name":"F#5","midi":78,"time":584.7565104166741,"velocity":0.8031496062992126,"duration":0.24609375},{"name":"A3","midi":57,"time":585.0052083333408,"velocity":0.8031496062992126,"duration":0.49479166666674246},{"name":"C#5","midi":73,"time":585.0052083333408,"velocity":0.8031496062992126,"duration":0.49348958333337123},{"name":"E5","midi":76,"time":585.0052083333408,"velocity":0.8031496062992126,"duration":0.24609375},{"name":"G5","midi":79,"time":585.2552083333408,"velocity":0.8031496062992126,"duration":0.2460937500001137},{"name":"D3","midi":50,"time":585.5039062500075,"velocity":0.8031496062992126,"duration":0.49479166666662877},{"name":"D5","midi":74,"time":585.5039062500075,"velocity":0.8031496062992126,"duration":0.9843749999998863},{"name":"F#5","midi":78,"time":585.5039062500075,"velocity":0.8031496062992126,"duration":0.24609375},{"name":"G5","midi":79,"time":585.7526041666741,"velocity":0.8031496062992126,"duration":0.24609375},{"name":"B2","midi":47,"time":586.0013020833408,"velocity":0.8031496062992126,"duration":0.49479166666662877},{"name":"E5","midi":76,"time":586.0013020833408,"velocity":0.8031496062992126,"duration":0.24609375},{"name":"F#5","midi":78,"time":586.2500000000074,"velocity":0.8031496062992126,"duration":0.24609375},{"name":"E3","midi":52,"time":586.498697916674,"velocity":0.8031496062992126,"duration":0.9973958333333712},{"name":"G5","midi":79,"time":586.498697916674,"velocity":0.8031496062992126,"duration":0.49739583333337123},{"name":"E5","midi":76,"time":586.498697916674,"velocity":0.8031496062992126,"duration":0.49739583333337123},{"name":"F#5","midi":78,"time":586.998697916674,"velocity":0.8031496062992126,"duration":0.49739583333337123},{"name":"D5","midi":74,"time":586.998697916674,"velocity":0.8031496062992126,"duration":0.49739583333337123},{"name":"E2","midi":40,"time":587.498697916674,"velocity":0.8031496062992126,"duration":0.9973958333333712},{"name":"E5","midi":76,"time":587.498697916674,"velocity":0.8031496062992126,"duration":0.49739583333337123},{"name":"C#5","midi":73,"time":587.498697916674,"velocity":0.8031496062992126,"duration":0.49739583333337123},{"name":"D5","midi":74,"time":587.998697916674,"velocity":0.8031496062992126,"duration":0.49739583333337123},{"name":"B4","midi":71,"time":587.998697916674,"velocity":0.8031496062992126,"duration":0.49739583333337123},{"name":"F#2","midi":42,"time":588.498697916674,"velocity":0.8031496062992126,"duration":0.9934895833332575},{"name":"A#4","midi":70,"time":588.498697916674,"velocity":0.8031496062992126,"duration":0.9843749999998863},{"name":"C#5","midi":73,"time":588.498697916674,"velocity":0.8031496062992126,"duration":0.24609375},{"name":"B4","midi":71,"time":588.7473958333406,"velocity":0.8031496062992126,"duration":0.24609375},{"name":"C#5","midi":73,"time":588.9960937500073,"velocity":0.8031496062992126,"duration":0.24609375},{"name":"D5","midi":74,"time":589.2460937500073,"velocity":0.8031496062992126,"duration":0.24609375},{"name":"B2","midi":47,"time":589.4947916666739,"velocity":0.8031496062992126,"duration":1.9947916666666288},{"name":"B4","midi":71,"time":589.4947916666739,"velocity":0.8031496062992126,"duration":1.9947916666666288},{"name":"F#4","midi":66,"time":589.9947916666739,"velocity":0.8031496062992126,"duration":0.49739583333337123},{"name":"F#3","midi":54,"time":590.4947916666739,"velocity":0.8031496062992126,"duration":0.9947916666666288},{"name":"D#4","midi":63,"time":590.4947916666739,"velocity":0.8031496062992126,"duration":0.24609375},{"name":"C#4","midi":61,"time":590.7434895833405,"velocity":0.8031496062992126,"duration":0.24609375},{"name":"D#4","midi":63,"time":590.9921875000072,"velocity":0.8031496062992126,"duration":0.49739583333337123},{"name":"B3","midi":59,"time":591.4921875000072,"velocity":0.8031496062992126,"duration":0.49479166666662877},{"name":"F#5","midi":78,"time":591.4921875000072,"velocity":0.8031496062992126,"duration":0.24609375},{"name":"D#5","midi":75,"time":591.4921875000072,"velocity":0.8031496062992126,"duration":0.9843749999998863},{"name":"G5","midi":79,"time":591.7408854166738,"velocity":0.8031496062992126,"duration":0.24609375},{"name":"B2","midi":47,"time":591.9895833333404,"velocity":0.8031496062992126,"duration":0.9947916666666288},{"name":"A5","midi":81,"time":591.9895833333404,"velocity":0.8031496062992126,"duration":0.24609375},{"name":"G5","midi":79,"time":592.238281250007,"velocity":0.8031496062992126,"duration":0.24609375},{"name":"F#5","midi":78,"time":592.488281250007,"velocity":0.8031496062992126,"duration":0.49739583333337123},{"name":"A4","midi":69,"time":592.988281250007,"velocity":0.8031496062992126,"duration":0.49739583333337123},{"name":"D#5","midi":75,"time":592.988281250007,"velocity":0.8031496062992126,"duration":0.49739583333337123},{"name":"B4","midi":71,"time":592.988281250007,"velocity":0.8031496062992126,"duration":0.49739583333337123},{"name":"G4","midi":67,"time":593.4869791666738,"velocity":0.8031496062992126,"duration":0.49739583333337123},{"name":"E5","midi":76,"time":593.4869791666738,"velocity":0.8031496062992126,"duration":0.49739583333337123},{"name":"C#5","midi":73,"time":593.4869791666738,"velocity":0.8031496062992126,"duration":0.49739583333337123},{"name":"F#4","midi":66,"time":593.9869791666738,"velocity":0.8031496062992126,"duration":0.49739583333337123},{"name":"F#5","midi":78,"time":593.9869791666738,"velocity":0.8031496062992126,"duration":0.49739583333337123},{"name":"D#5","midi":75,"time":593.9869791666738,"velocity":0.8031496062992126,"duration":0.49739583333337123},{"name":"E4","midi":64,"time":594.4869791666738,"velocity":0.8031496062992126,"duration":0.24609375},{"name":"G5","midi":79,"time":594.4869791666738,"velocity":0.8031496062992126,"duration":0.24609375},{"name":"E5","midi":76,"time":594.4869791666738,"velocity":0.8031496062992126,"duration":0.9843749999998863},{"name":"F#4","midi":66,"time":594.7356770833404,"velocity":0.8031496062992126,"duration":0.24609375},{"name":"A5","midi":81,"time":594.7356770833404,"velocity":0.8031496062992126,"duration":0.24609375},{"name":"G4","midi":67,"time":594.9856770833404,"velocity":0.8031496062992126,"duration":0.24609375},{"name":"B5","midi":83,"time":594.9856770833404,"velocity":0.8031496062992126,"duration":0.24609375},{"name":"F#4","midi":66,"time":595.234375000007,"velocity":0.8031496062992126,"duration":0.24609375},{"name":"A5","midi":81,"time":595.234375000007,"velocity":0.8031496062992126,"duration":0.24609375},{"name":"E4","midi":64,"time":595.4830729166737,"velocity":0.8031496062992126,"duration":0.49739583333337123},{"name":"G5","midi":79,"time":595.4830729166737,"velocity":0.8031496062992126,"duration":1.9973958333333712},{"name":"E5","midi":76,"time":595.4830729166737,"velocity":0.8031496062992126,"duration":1.9973958333333712},{"name":"D4","midi":62,"time":595.9830729166737,"velocity":0.8031496062992126,"duration":0.49739583333337123},{"name":"C#4","midi":61,"time":596.4830729166737,"velocity":0.8031496062992126,"duration":0.49739583333337123},{"name":"B3","midi":59,"time":596.9830729166737,"velocity":0.8031496062992126,"duration":0.49739583333337123},{"name":"A3","midi":57,"time":597.4830729166737,"velocity":0.8031496062992126,"duration":0.24609375},{"name":"C#5","midi":73,"time":597.4830729166737,"velocity":0.8031496062992126,"duration":0.9843749999998863},{"name":"B3","midi":59,"time":597.7317708333403,"velocity":0.8031496062992126,"duration":0.24609375},{"name":"F#5","midi":78,"time":597.7317708333403,"velocity":0.8031496062992126,"duration":0.24609375},{"name":"C#4","midi":61,"time":597.9804687500069,"velocity":0.8031496062992126,"duration":0.24609375},{"name":"E5","midi":76,"time":597.9804687500069,"velocity":0.8031496062992126,"duration":0.24609375},{"name":"B3","midi":59,"time":598.2291666666736,"velocity":0.8031496062992126,"duration":0.24609375},{"name":"F#5","midi":78,"time":598.2291666666736,"velocity":0.8031496062992126,"duration":0.24609375},{"name":"A3","midi":57,"time":598.4778645833402,"velocity":0.8031496062992126,"duration":0.49739583333337123},{"name":"G5","midi":79,"time":598.4778645833402,"velocity":0.8031496062992126,"duration":0.49739583333337123},{"name":"A3","midi":57,"time":598.9778645833402,"velocity":0.8031496062992126,"duration":0.49739583333337123},{"name":"G3","midi":55,"time":598.9778645833402,"velocity":0.8031496062992126,"duration":0.49739583333337123},{"name":"B5","midi":83,"time":598.9778645833402,"velocity":0.8031496062992126,"duration":0.49739583333337123},{"name":"C#5","midi":73,"time":598.9778645833402,"velocity":0.8031496062992126,"duration":0.49739583333337123},{"name":"F#3","midi":54,"time":599.4778645833402,"velocity":0.8031496062992126,"duration":0.49739583333337123},{"name":"B3","midi":59,"time":599.4778645833402,"velocity":0.8031496062992126,"duration":0.49739583333337123},{"name":"A5","midi":81,"time":599.4778645833402,"velocity":0.8031496062992126,"duration":0.49739583333337123},{"name":"D5","midi":74,"time":599.4778645833402,"velocity":0.8031496062992126,"duration":0.49739583333337123},{"name":"E3","midi":52,"time":599.9778645833402,"velocity":0.8031496062992126,"duration":0.49739583333337123},{"name":"C#4","midi":61,"time":599.9778645833402,"velocity":0.8031496062992126,"duration":0.49739583333337123},{"name":"G5","midi":79,"time":599.9778645833402,"velocity":0.8031496062992126,"duration":0.49739583333337123},{"name":"E5","midi":76,"time":599.9778645833402,"velocity":0.8031496062992126,"duration":0.49739583333337123},{"name":"D3","midi":50,"time":600.4778645833402,"velocity":0.8031496062992126,"duration":0.24609375},{"name":"D4","midi":62,"time":600.4778645833402,"velocity":0.8031496062992126,"duration":0.9843749999998863},{"name":"A4","midi":69,"time":600.4778645833402,"velocity":0.8031496062992126,"duration":0.9843749999998863},{"name":"F#5","midi":78,"time":600.4778645833402,"velocity":0.8031496062992126,"duration":0.24609375},{"name":"E3","midi":52,"time":600.7265625000068,"velocity":0.8031496062992126,"duration":0.24609375},{"name":"E5","midi":76,"time":600.7265625000068,"velocity":0.8031496062992126,"duration":0.24609375},{"name":"F#3","midi":54,"time":600.9752604166734,"velocity":0.8031496062992126,"duration":0.24609375},{"name":"D5","midi":74,"time":600.9752604166734,"velocity":0.8031496062992126,"duration":0.24609375},{"name":"E3","midi":52,"time":601.2252604166734,"velocity":0.8031496062992126,"duration":0.24609375},{"name":"E5","midi":76,"time":601.2252604166734,"velocity":0.8031496062992126,"duration":0.24609375},{"name":"D3","midi":50,"time":601.4739583333401,"velocity":0.8031496062992126,"duration":0.49739583333337123},{"name":"F#5","midi":78,"time":601.4739583333401,"velocity":0.8031496062992126,"duration":2.4986979166667425},{"name":"A4","midi":69,"time":601.4739583333401,"velocity":0.8031496062992126,"duration":1.9973958333333712},{"name":"C3","midi":48,"time":601.9739583333401,"velocity":0.8031496062992126,"duration":0.49739583333337123},{"name":"B2","midi":47,"time":602.4739583333401,"velocity":0.8031496062992126,"duration":0.49739583333337123},{"name":"A2","midi":45,"time":602.9739583333401,"velocity":0.8031496062992126,"duration":0.49739583333337123},{"name":"G#2","midi":44,"time":603.4739583333401,"velocity":0.8031496062992126,"duration":0.49739583333337123},{"name":"B4","midi":71,"time":603.4739583333401,"velocity":0.8031496062992126,"duration":0.9869791666667425},{"name":"G#2","midi":44,"time":603.9726562500068,"velocity":0.8031496062992126,"duration":0.49479166666662877},{"name":"D3","midi":50,"time":603.9726562500068,"velocity":0.8031496062992126,"duration":0.49479166666662877},{"name":"F5","midi":77,"time":603.9726562500068,"velocity":0.8031496062992126,"duration":0.24609375},{"name":"E5","midi":76,"time":604.2226562500068,"velocity":0.8031496062992126,"duration":0.24609375},{"name":"G#2","midi":44,"time":604.4713541666734,"velocity":0.8031496062992126,"duration":0.49739583333337123},{"name":"D3","midi":50,"time":604.4713541666734,"velocity":0.8031496062992126,"duration":0.49739583333337123},{"name":"F5","midi":77,"time":604.4713541666734,"velocity":0.8031496062992126,"duration":0.49739583333337123},{"name":"D3","midi":50,"time":604.9713541666734,"velocity":0.8031496062992126,"duration":0.49739583333337123},{"name":"G#2","midi":44,"time":604.9713541666734,"velocity":0.8031496062992126,"duration":0.49739583333337123},{"name":"B5","midi":83,"time":604.9713541666734,"velocity":0.8031496062992126,"duration":0.49739583333337123},{"name":"D3","midi":50,"time":605.4713541666734,"velocity":0.8031496062992126,"duration":0.49479166666662877},{"name":"G#2","midi":44,"time":605.4713541666734,"velocity":0.8031496062992126,"duration":0.49479166666662877},{"name":"A5","midi":81,"time":605.4713541666734,"velocity":0.8031496062992126,"duration":0.24609375},{"name":"G#5","midi":80,"time":605.7200520833401,"velocity":0.8031496062992126,"duration":0.24609375},{"name":"E3","midi":52,"time":605.9687500000067,"velocity":0.8031496062992126,"duration":0.49479166666662877},{"name":"G#2","midi":44,"time":605.9687500000067,"velocity":0.8031496062992126,"duration":0.49479166666662877},{"name":"F#5","midi":78,"time":605.9687500000067,"velocity":0.8031496062992126,"duration":0.24609375},{"name":"E5","midi":76,"time":606.2174479166733,"velocity":0.8031496062992126,"duration":0.24609375},{"name":"G#2","midi":44,"time":606.46614583334,"velocity":0.8031496062992126,"duration":0.49479166666662877},{"name":"F3","midi":53,"time":606.46614583334,"velocity":0.8031496062992126,"duration":0.49479166666662877},{"name":"D5","midi":74,"time":606.46614583334,"velocity":0.8031496062992126,"duration":0.24609375},{"name":"B4","midi":71,"time":606.46614583334,"velocity":0.8031496062992126,"duration":0.9869791666666288},{"name":"F5","midi":77,"time":606.7148437500066,"velocity":0.8031496062992126,"duration":0.24609375},{"name":"G#2","midi":44,"time":606.9648437500066,"velocity":0.8031496062992126,"duration":0.49739583333337123},{"name":"C#3","midi":49,"time":606.9648437500066,"velocity":0.8031496062992126,"duration":0.49739583333337123},{"name":"E5","midi":76,"time":606.9648437500066,"velocity":0.8031496062992126,"duration":0.49739583333337123},{"name":"D3","midi":50,"time":607.4648437500066,"velocity":0.8031496062992126,"duration":0.49739583333337123},{"name":"G#2","midi":44,"time":607.4648437500066,"velocity":0.8031496062992126,"duration":0.49739583333337123},{"name":"F5","midi":77,"time":607.4648437500066,"velocity":0.8031496062992126,"duration":0.49739583333337123},{"name":"G#2","midi":44,"time":607.9648437500066,"velocity":0.8031496062992126,"duration":0.49479166666662877},{"name":"E3","midi":52,"time":607.9648437500066,"velocity":0.8031496062992126,"duration":0.49479166666662877},{"name":"D5","midi":74,"time":607.9648437500066,"velocity":0.8031496062992126,"duration":0.24609375},{"name":"C#5","midi":73,"time":608.2135416666732,"velocity":0.8031496062992126,"duration":0.24609375},{"name":"G#2","midi":44,"time":608.4622395833399,"velocity":0.8031496062992126,"duration":0.49739583333337123},{"name":"F3","midi":53,"time":608.4622395833399,"velocity":0.8031496062992126,"duration":0.49739583333337123},{"name":"D5","midi":74,"time":608.4622395833399,"velocity":0.8031496062992126,"duration":0.49739583333337123},{"name":"G#2","midi":44,"time":608.9622395833399,"velocity":0.8031496062992126,"duration":0.49479166666662877},{"name":"D5","midi":74,"time":608.9622395833399,"velocity":0.8031496062992126,"duration":0.12109375},{"name":"B4","midi":71,"time":608.9622395833399,"velocity":0.8031496062992126,"duration":0.49348958333325754},{"name":"E5","midi":76,"time":609.0859375000065,"velocity":0.8031496062992126,"duration":0.12109375},{"name":"F5","midi":77,"time":609.2109375000065,"velocity":0.8031496062992126,"duration":0.24609375},{"name":"A2","midi":45,"time":609.4596354166731,"velocity":0.8031496062992126,"duration":0.49739583333337123},{"name":"E5","midi":76,"time":609.4596354166731,"velocity":0.8031496062992126,"duration":0.49739583333337123},{"name":"C5","midi":72,"time":609.4596354166731,"velocity":0.8031496062992126,"duration":0.9869791666666288},{"name":"A3","midi":57,"time":609.9596354166731,"velocity":0.8031496062992126,"duration":0.49479166666662877},{"name":"D5","midi":74,"time":609.9596354166731,"velocity":0.8031496062992126,"duration":0.24609375},{"name":"E5","midi":76,"time":610.2083333333397,"velocity":0.8031496062992126,"duration":0.24609375},{"name":"D3","midi":50,"time":610.4570312500064,"velocity":0.8031496062992126,"duration":0.49739583333337123},{"name":"F5","midi":77,"time":610.4570312500064,"velocity":0.8031496062992126,"duration":0.49739583333337123},{"name":"D5","midi":74,"time":610.4570312500064,"velocity":0.8031496062992126,"duration":0.49739583333337123},{"name":"E3","midi":52,"time":610.9570312500064,"velocity":0.8031496062992126,"duration":0.49739583333337123},{"name":"E5","midi":76,"time":610.9570312500064,"velocity":0.8031496062992126,"duration":0.49739583333337123},{"name":"C5","midi":72,"time":610.9570312500064,"velocity":0.8031496062992126,"duration":0.49739583333337123},{"name":"F3","midi":53,"time":611.4570312500064,"velocity":0.8031496062992126,"duration":0.49739583333337123},{"name":"D5","midi":74,"time":611.4570312500064,"velocity":0.8031496062992126,"duration":0.49739583333337123},{"name":"B4","midi":71,"time":611.4570312500064,"velocity":0.8031496062992126,"duration":0.49739583333337123},{"name":"D3","midi":50,"time":611.9570312500064,"velocity":0.8031496062992126,"duration":0.49739583333337123},{"name":"A4","midi":69,"time":611.9570312500064,"velocity":0.8031496062992126,"duration":0.49739583333337123},{"name":"C5","midi":72,"time":611.9570312500064,"velocity":0.8031496062992126,"duration":0.49739583333337123},{"name":"E3","midi":52,"time":612.4570312500064,"velocity":0.8031496062992126,"duration":0.49479166666662877},{"name":"G#4","midi":68,"time":612.4570312500064,"velocity":0.8031496062992126,"duration":0.9843749999998863},{"name":"B4","midi":71,"time":612.4570312500064,"velocity":0.8031496062992126,"duration":0.24609375},{"name":"D5","midi":74,"time":612.705729166673,"velocity":0.8031496062992126,"duration":0.24609375},{"name":"E2","midi":40,"time":612.9544270833396,"velocity":0.8031496062992126,"duration":0.49479166666662877},{"name":"C5","midi":72,"time":612.9544270833396,"velocity":0.8031496062992126,"duration":0.24609375},{"name":"B4","midi":71,"time":613.2044270833396,"velocity":0.8031496062992126,"duration":0.24609375},{"name":"A2","midi":45,"time":613.4531250000063,"velocity":0.8031496062992126,"duration":0.49739583333337123},{"name":"A4","midi":69,"time":613.4531250000063,"velocity":0.8031496062992126,"duration":1.9973958333333712},{"name":"G2","midi":43,"time":613.9531250000063,"velocity":0.8031496062992126,"duration":0.49739583333337123},{"name":"F#2","midi":42,"time":614.4531250000063,"velocity":0.8031496062992126,"duration":0.49739583333337123},{"name":"E2","midi":40,"time":614.9531250000063,"velocity":0.8031496062992126,"duration":0.49739583333337123},{"name":"D2","midi":38,"time":615.4531250000063,"velocity":0.8031496062992126,"duration":1.490885416666515},{"name":"A4","midi":69,"time":615.4531250000063,"velocity":0.8031496062992126,"duration":0.24609375},{"name":"F#4","midi":66,"time":615.4531250000063,"velocity":0.8031496062992126,"duration":0.36197916666662877},{"name":"G4","midi":67,"time":615.7018229166729,"velocity":0.8031496062992126,"duration":0.24609375},{"name":"F#4","midi":66,"time":615.9505208333395,"velocity":0.8031496062992126,"duration":0.24609375},{"name":"G4","midi":67,"time":616.1992187500061,"velocity":0.8031496062992126,"duration":0.24609375},{"name":"A4","midi":69,"time":616.4479166666728,"velocity":0.8031496062992126,"duration":0.24609375},{"name":"B4","midi":71,"time":616.6966145833394,"velocity":0.8031496062992126,"duration":0.24609375},{"name":"D3","midi":50,"time":616.9453125000061,"velocity":0.8031496062992126,"duration":0.49739583333337123},{"name":"C5","midi":72,"time":616.9453125000061,"velocity":0.8031496062992126,"duration":0.49739583333337123},{"name":"F#4","midi":66,"time":616.9453125000061,"velocity":0.8031496062992126,"duration":0.49739583333337123},{"name":"E3","midi":52,"time":617.4453125000061,"velocity":0.8031496062992126,"duration":0.49739583333337123},{"name":"G4","midi":67,"time":617.4453125000061,"velocity":0.8031496062992126,"duration":0.49739583333337123},{"name":"C5","midi":72,"time":617.4453125000061,"velocity":0.8031496062992126,"duration":1.4973958333333712},{"name":"F#3","midi":54,"time":617.9453125000061,"velocity":0.8031496062992126,"duration":0.49739583333337123},{"name":"A4","midi":69,"time":617.9453125000061,"velocity":0.8031496062992126,"duration":0.49739583333337123},{"name":"G3","midi":55,"time":618.4453125000061,"velocity":0.8031496062992126,"duration":0.49739583333337123},{"name":"D4","midi":62,"time":618.4453125000061,"velocity":0.8031496062992126,"duration":0.9869791666666288},{"name":"A3","midi":57,"time":618.9453125000061,"velocity":0.8031496062992126,"duration":0.49479166666662877},{"name":"B4","midi":71,"time":618.9453125000061,"velocity":0.8031496062992126,"duration":0.24609375},{"name":"A4","midi":69,"time":619.1940104166728,"velocity":0.8031496062992126,"duration":0.24609375},{"name":"G3","midi":55,"time":619.4440104166728,"velocity":0.8031496062992126,"duration":0.49479166666662877},{"name":"B4","midi":71,"time":619.4440104166728,"velocity":0.8031496062992126,"duration":0.24609375},{"name":"C#5","midi":73,"time":619.6927083333394,"velocity":0.8031496062992126,"duration":0.24609375},{"name":"F#3","midi":54,"time":619.941406250006,"velocity":0.8031496062992126,"duration":0.49739583333337123},{"name":"D5","midi":74,"time":619.941406250006,"velocity":0.8031496062992126,"duration":0.49739583333337123},{"name":"A4","midi":69,"time":619.941406250006,"velocity":0.8031496062992126,"duration":0.49739583333337123},{"name":"E3","midi":52,"time":620.441406250006,"velocity":0.8031496062992126,"duration":0.49739583333337123},{"name":"D5","midi":74,"time":620.441406250006,"velocity":0.8031496062992126,"duration":0.9869791666666288},{"name":"G#4","midi":68,"time":620.441406250006,"velocity":0.8031496062992126,"duration":0.49739583333337123},{"name":"F#3","midi":54,"time":620.941406250006,"velocity":0.8031496062992126,"duration":0.24609375},{"name":"A4","midi":69,"time":620.941406250006,"velocity":0.8031496062992126,"duration":0.24609375},{"name":"G#3","midi":56,"time":621.1901041666727,"velocity":0.8031496062992126,"duration":0.24609375},{"name":"B4","midi":71,"time":621.1901041666727,"velocity":0.8031496062992126,"duration":0.24609375},{"name":"A3","midi":57,"time":621.4388020833393,"velocity":0.8031496062992126,"duration":0.49479166666662877},{"name":"E4","midi":64,"time":621.4388020833393,"velocity":0.8031496062992126,"duration":0.9843749999998863},{"name":"C#5","midi":73,"time":621.4388020833393,"velocity":0.8031496062992126,"duration":0.24609375},{"name":"B4","midi":71,"time":621.6875000000059,"velocity":0.8031496062992126,"duration":0.24609375},{"name":"B3","midi":59,"time":621.9361979166725,"velocity":0.8031496062992126,"duration":0.49479166666662877},{"name":"A4","midi":69,"time":621.9361979166725,"velocity":0.8031496062992126,"duration":0.24609375},{"name":"B4","midi":71,"time":622.1861979166725,"velocity":0.8031496062992126,"duration":0.24609375},{"name":"A3","midi":57,"time":622.4348958333392,"velocity":0.8031496062992126,"duration":0.49479166666662877},{"name":"C#5","midi":73,"time":622.4348958333392,"velocity":0.8031496062992126,"duration":0.24609375},{"name":"D#5","midi":75,"time":622.6835937500058,"velocity":0.8031496062992126,"duration":0.24609375},{"name":"G3","midi":55,"time":622.9322916666724,"velocity":0.8031496062992126,"duration":0.49739583333337123},{"name":"B4","midi":71,"time":622.9322916666724,"velocity":0.8031496062992126,"duration":0.49739583333337123},{"name":"E5","midi":76,"time":622.9322916666724,"velocity":0.8031496062992126,"duration":0.49739583333337123},{"name":"F#3","midi":54,"time":623.4322916666724,"velocity":0.8031496062992126,"duration":0.49739583333337123},{"name":"A#4","midi":70,"time":623.4322916666724,"velocity":0.8031496062992126,"duration":0.49739583333337123},{"name":"E5","midi":76,"time":623.4322916666724,"velocity":0.8031496062992126,"duration":1.4947916666666288},{"name":"G#3","midi":56,"time":623.9322916666724,"velocity":0.8031496062992126,"duration":0.24609375},{"name":"B4","midi":71,"time":623.9322916666724,"velocity":0.8031496062992126,"duration":0.24609375},{"name":"A#3","midi":58,"time":624.180989583339,"velocity":0.8031496062992126,"duration":0.24609375},{"name":"C#5","midi":73,"time":624.180989583339,"velocity":0.8031496062992126,"duration":0.24609375},{"name":"B3","midi":59,"time":624.4296875000057,"velocity":0.8031496062992126,"duration":0.49739583333337123},{"name":"F#4","midi":66,"time":624.4296875000057,"velocity":0.8031496062992126,"duration":0.9869791666666288},{"name":"B2","midi":47,"time":624.9296875000057,"velocity":0.8031496062992126,"duration":0.49479166666662877},{"name":"D#5","midi":75,"time":624.9296875000057,"velocity":0.8031496062992126,"duration":0.24609375},{"name":"C#5","midi":73,"time":625.1783854166723,"velocity":0.8031496062992126,"duration":0.24609375},{"name":"B3","midi":59,"time":625.4270833333389,"velocity":0.8031496062992126,"duration":0.49479166666662877},{"name":"D#5","midi":75,"time":625.4270833333389,"velocity":0.8031496062992126,"duration":0.24609375},{"name":"E5","midi":76,"time":625.6770833333389,"velocity":0.8031496062992126,"duration":0.24609375},{"name":"A3","midi":57,"time":625.9257812500056,"velocity":0.8031496062992126,"duration":0.49739583333337123},{"name":"C5","midi":72,"time":625.9257812500056,"velocity":0.8031496062992126,"duration":0.49739583333337123},{"name":"F#5","midi":78,"time":625.9257812500056,"velocity":0.8031496062992126,"duration":0.49739583333337123},{"name":"G3","midi":55,"time":626.4257812500056,"velocity":0.8031496062992126,"duration":0.49739583333337123},{"name":"F#5","midi":78,"time":626.4257812500056,"velocity":0.8031496062992126,"duration":1.2460937499998863},{"name":"B4","midi":71,"time":626.4257812500056,"velocity":0.8031496062992126,"duration":0.49739583333337123},{"name":"A3","midi":57,"time":626.9257812500056,"velocity":0.8031496062992126,"duration":0.24609375},{"name":"A4","midi":69,"time":626.9257812500056,"velocity":0.8031496062992126,"duration":0.49479166666662877},{"name":"B3","midi":59,"time":627.1744791666722,"velocity":0.8031496062992126,"duration":0.24609375},{"name":"C4","midi":60,"time":627.4231770833388,"velocity":0.8031496062992126,"duration":0.49479166666662877},{"name":"G4","midi":67,"time":627.4231770833388,"velocity":0.8031496062992126,"duration":0.49348958333325754},{"name":"E5","midi":76,"time":627.6718750000055,"velocity":0.8031496062992126,"duration":0.24609375},{"name":"B3","midi":59,"time":627.9205729166721,"velocity":0.8031496062992126,"duration":0.49479166666662877},{"name":"A4","midi":69,"time":627.9205729166721,"velocity":0.8031496062992126,"duration":0.24609375},{"name":"F#5","midi":78,"time":627.9205729166721,"velocity":0.8031496062992126,"duration":0.24609375},{"name":"G5","midi":79,"time":628.1692708333387,"velocity":0.8031496062992126,"duration":0.24609375},{"name":"B4","midi":71,"time":628.1692708333387,"velocity":0.8031496062992126,"duration":0.24609375},{"name":"A3","midi":57,"time":628.4192708333387,"velocity":0.8031496062992126,"duration":0.49739583333337123},{"name":"A5","midi":81,"time":628.4192708333387,"velocity":0.8031496062992126,"duration":0.49739583333337123},{"name":"C5","midi":72,"time":628.4192708333387,"velocity":0.8031496062992126,"duration":0.49739583333337123},{"name":"B3","midi":59,"time":628.9192708333387,"velocity":0.8031496062992126,"duration":0.49739583333337123},{"name":"G5","midi":79,"time":628.9192708333387,"velocity":0.8031496062992126,"duration":0.49739583333337123},{"name":"B4","midi":71,"time":628.9192708333387,"velocity":0.8031496062992126,"duration":0.49739583333337123},{"name":"C4","midi":60,"time":629.4192708333387,"velocity":0.8031496062992126,"duration":0.49739583333337123},{"name":"F#5","midi":78,"time":629.4192708333387,"velocity":0.8031496062992126,"duration":0.49739583333337123},{"name":"A4","midi":69,"time":629.4192708333387,"velocity":0.8031496062992126,"duration":0.49739583333337123},{"name":"A3","midi":57,"time":629.9179687500055,"velocity":0.8031496062992126,"duration":0.49739583333337123},{"name":"G4","midi":67,"time":629.9179687500055,"velocity":0.8031496062992126,"duration":0.49739583333337123},{"name":"E5","midi":76,"time":629.9179687500055,"velocity":0.8031496062992126,"duration":0.49739583333337123},{"name":"B3","midi":59,"time":630.4179687500055,"velocity":0.8031496062992126,"duration":0.9947916666666288},{"name":"D#5","midi":75,"time":630.4179687500055,"velocity":0.8031496062992126,"duration":0.24609375},{"name":"F#4","midi":66,"time":630.4179687500055,"velocity":0.8031496062992126,"duration":0.49348958333337123},{"name":"B4","midi":71,"time":630.6679687500055,"velocity":0.8031496062992126,"duration":0.24609375},{"name":"C5","midi":72,"time":630.9166666666721,"velocity":0.8031496062992126,"duration":0.98828125},{"name":"E4","midi":64,"time":630.9166666666721,"velocity":0.8031496062992126,"duration":0.49739583333337123},{"name":"B2","midi":47,"time":631.4166666666721,"velocity":0.8031496062992126,"duration":0.49739583333337123},{"name":"D#4","midi":63,"time":631.4166666666721,"velocity":0.8031496062992126,"duration":0.9869791666666288},{"name":"C3","midi":48,"time":631.9166666666721,"velocity":0.8031496062992126,"duration":0.49479166666662877},{"name":"B4","midi":71,"time":631.9166666666721,"velocity":0.8031496062992126,"duration":0.24609375},{"name":"A4","midi":69,"time":632.1653645833387,"velocity":0.8031496062992126,"duration":0.24609375},{"name":"B2","midi":47,"time":632.4140625000053,"velocity":0.8031496062992126,"duration":0.49739583333337123},{"name":"G4","midi":67,"time":632.4140625000053,"velocity":0.8031496062992126,"duration":0.49739583333337123},{"name":"A2","midi":45,"time":632.9140625000053,"velocity":0.8031496062992126,"duration":0.49739583333337123},{"name":"F#4","midi":66,"time":632.9140625000053,"velocity":0.8031496062992126,"duration":0.49739583333337123},{"name":"G2","midi":43,"time":633.4140625000053,"velocity":0.8031496062992126,"duration":0.49739583333337123},{"name":"G4","midi":67,"time":633.4140625000053,"velocity":0.8031496062992126,"duration":0.49739583333337123},{"name":"E4","midi":64,"time":633.4140625000053,"velocity":0.8031496062992126,"duration":0.49739583333337123},{"name":"B4","midi":71,"time":633.4140625000053,"velocity":0.8031496062992126,"duration":0.49739583333337123},{"name":"E2","midi":40,"time":633.9140625000053,"velocity":0.8031496062992126,"duration":0.49479166666662877},{"name":"F#4","midi":66,"time":633.9140625000053,"velocity":0.8031496062992126,"duration":0.24609375},{"name":"A4","midi":69,"time":633.9140625000053,"velocity":0.8031496062992126,"duration":0.24609375},{"name":"B4","midi":71,"time":634.162760416672,"velocity":0.8031496062992126,"duration":0.24609375},{"name":"G4","midi":67,"time":634.162760416672,"velocity":0.8031496062992126,"duration":0.24609375},{"name":"A2","midi":45,"time":634.4114583333386,"velocity":0.8031496062992126,"duration":0.49739583333337123},{"name":"A4","midi":69,"time":634.4114583333386,"velocity":0.8031496062992126,"duration":0.49739583333337123},{"name":"C5","midi":72,"time":634.4114583333386,"velocity":0.8031496062992126,"duration":0.49739583333337123},{"name":"B2","midi":47,"time":634.9114583333386,"velocity":0.8031496062992126,"duration":0.49739583333337123},{"name":"B4","midi":71,"time":634.9114583333386,"velocity":0.8031496062992126,"duration":0.49739583333337123},{"name":"G4","midi":67,"time":634.9114583333386,"velocity":0.8031496062992126,"duration":0.49739583333337123},{"name":"C3","midi":48,"time":635.4114583333386,"velocity":0.8031496062992126,"duration":0.49739583333337123},{"name":"F#4","midi":66,"time":635.4114583333386,"velocity":0.8031496062992126,"duration":0.49739583333337123},{"name":"A4","midi":69,"time":635.4114583333386,"velocity":0.8031496062992126,"duration":0.49739583333337123},{"name":"A2","midi":45,"time":635.9114583333386,"velocity":0.8031496062992126,"duration":0.49739583333337123},{"name":"G4","midi":67,"time":635.9114583333386,"velocity":0.8031496062992126,"duration":0.49739583333337123},{"name":"E4","midi":64,"time":635.9114583333386,"velocity":0.8031496062992126,"duration":0.49739583333337123},{"name":"B2","midi":47,"time":636.4114583333386,"velocity":0.8031496062992126,"duration":0.9934895833332575},{"name":"D#4","midi":63,"time":636.4114583333386,"velocity":0.8031496062992126,"duration":0.9843749999998863},{"name":"F#4","midi":66,"time":636.4114583333386,"velocity":0.8031496062992126,"duration":0.24609375},{"name":"E4","midi":64,"time":636.6601562500052,"velocity":0.8031496062992126,"duration":0.24609375},{"name":"F#4","midi":66,"time":636.9088541666719,"velocity":0.8031496062992126,"duration":0.24609375},{"name":"G4","midi":67,"time":637.1575520833385,"velocity":0.8031496062992126,"duration":0.24609375},{"name":"E2","midi":40,"time":637.4062500000052,"velocity":0.8031496062992126,"duration":3.9791666666666288},{"name":"E4","midi":64,"time":637.4062500000052,"velocity":0.8031496062992126,"duration":3.9791666666666288},{"name":"B3","midi":59,"time":637.9062500000052,"velocity":0.8031496062992126,"duration":0.49739583333337123},{"name":"B2","midi":47,"time":638.4062500000052,"velocity":0.8031496062992126,"duration":3.4921875},{"name":"G3","midi":55,"time":638.4062500000052,"velocity":0.8031496062992126,"duration":3.4921875},{"name":"E4","midi":64,"time":641.9023437500052,"velocity":0.8031496062992126,"duration":0.49739583333337123},{"name":"B4","midi":71,"time":641.9023437500052,"velocity":0.8031496062992126,"duration":0.49739583333337123},{"name":"G3","midi":55,"time":642.4023437500052,"velocity":0.8031496062992126,"duration":0.43619791666674246},{"name":"E5","midi":76,"time":642.4023437500052,"velocity":0.8031496062992126,"duration":0.21614583333337123},{"name":"F#5","midi":78,"time":642.6210937500052,"velocity":0.8031496062992126,"duration":0.21614583333337123},{"name":"A3","midi":57,"time":642.8411458333386,"velocity":0.8031496062992126,"duration":0.4375},{"name":"G5","midi":79,"time":642.8411458333386,"velocity":0.8031496062992126,"duration":0.4375},{"name":"B3","midi":59,"time":643.2812500000052,"velocity":0.8031496062992126,"duration":0.4375},{"name":"F#5","midi":78,"time":643.2812500000052,"velocity":0.8031496062992126,"duration":0.4375},{"name":"E3","midi":52,"time":643.7226562500052,"velocity":0.8031496062992126,"duration":0.4375},{"name":"G5","midi":79,"time":643.7226562500052,"velocity":0.8031496062992126,"duration":0.4375},{"name":"G3","midi":55,"time":644.1627604166719,"velocity":0.8031496062992126,"duration":0.43619791666674246},{"name":"E5","midi":76,"time":644.1627604166719,"velocity":0.8031496062992126,"duration":0.21614583333337123},{"name":"D#5","midi":75,"time":644.3828125000052,"velocity":0.8031496062992126,"duration":0.21614583333337123},{"name":"B3","midi":59,"time":644.6015625000052,"velocity":0.8031496062992126,"duration":0.43619791666674246},{"name":"E5","midi":76,"time":644.6015625000052,"velocity":0.8031496062992126,"duration":0.21614583333337123},{"name":"F#5","midi":78,"time":644.8216145833386,"velocity":0.8031496062992126,"duration":0.21614583333337123},{"name":"E4","midi":64,"time":645.0403645833386,"velocity":0.8031496062992126,"duration":0.21614583333337123},{"name":"G5","midi":79,"time":645.0403645833386,"velocity":0.8031496062992126,"duration":0.21614583333337123},{"name":"F#4","midi":66,"time":645.260416666672,"velocity":0.8031496062992126,"duration":0.21614583333337123},{"name":"A5","midi":81,"time":645.260416666672,"velocity":0.8031496062992126,"duration":0.21614583333337123},{"name":"G4","midi":67,"time":645.479166666672,"velocity":0.8031496062992126,"duration":0.43619791666674246},{"name":"B5","midi":83,"time":645.479166666672,"velocity":0.8031496062992126,"duration":0.21614583333337123},{"name":"C6","midi":84,"time":645.6992187500053,"velocity":0.8031496062992126,"duration":0.21614583333337123},{"name":"F#4","midi":66,"time":645.9179687500053,"velocity":0.8031496062992126,"duration":0.43619791666674246},{"name":"B5","midi":83,"time":645.9179687500053,"velocity":0.8031496062992126,"duration":0.21614583333337123},{"name":"A5","midi":81,"time":646.1380208333387,"velocity":0.8031496062992126,"duration":0.21614583333337123},{"name":"G4","midi":67,"time":646.3567708333387,"velocity":0.8031496062992126,"duration":0.43619791666674246},{"name":"B5","midi":83,"time":646.3567708333387,"velocity":0.8031496062992126,"duration":0.21614583333337123},{"name":"E5","midi":76,"time":646.5768229166721,"velocity":0.8031496062992126,"duration":0.21614583333337123},{"name":"F#4","midi":66,"time":646.7955729166721,"velocity":0.8031496062992126,"duration":0.21614583333337123},{"name":"F#5","midi":78,"time":646.7955729166721,"velocity":0.8031496062992126,"duration":0.21614583333337123},{"name":"E4","midi":64,"time":647.0156250000055,"velocity":0.8031496062992126,"duration":0.21614583333337123},{"name":"G5","midi":79,"time":647.0156250000055,"velocity":0.8031496062992126,"duration":0.21614583333337123},{"name":"F#4","midi":66,"time":647.2343750000055,"velocity":0.8031496062992126,"duration":0.21614583333337123},{"name":"A5","midi":81,"time":647.2343750000055,"velocity":0.8031496062992126,"duration":0.21614583333337123},{"name":"G4","midi":67,"time":647.4544270833388,"velocity":0.8031496062992126,"duration":0.21614583333337123},{"name":"B5","midi":83,"time":647.4544270833388,"velocity":0.8031496062992126,"duration":0.21614583333337123},{"name":"A4","midi":69,"time":647.6731770833388,"velocity":0.8031496062992126,"duration":0.4375},{"name":"C6","midi":84,"time":647.6731770833388,"velocity":0.8031496062992126,"duration":0.4375},{"name":"F#4","midi":66,"time":648.1145833333388,"velocity":0.8031496062992126,"duration":0.43619791666674246},{"name":"B5","midi":83,"time":648.1145833333388,"velocity":0.8031496062992126,"duration":0.21614583333337123},{"name":"A5","midi":81,"time":648.3333333333388,"velocity":0.8031496062992126,"duration":0.21614583333337123},{"name":"D4","midi":62,"time":648.5533854166722,"velocity":0.8031496062992126,"duration":0.43619791666674246},{"name":"G5","midi":79,"time":648.5533854166722,"velocity":0.8031496062992126,"duration":0.21614583333337123},{"name":"F#5","midi":78,"time":648.7721354166722,"velocity":0.8031496062992126,"duration":0.21614583333337123},{"name":"G4","midi":67,"time":648.9921875000056,"velocity":0.8031496062992126,"duration":0.4375},{"name":"B5","midi":83,"time":648.9921875000056,"velocity":0.8031496062992126,"duration":0.4375},{"name":"E4","midi":64,"time":649.4322916666722,"velocity":0.8031496062992126,"duration":0.43619791666674246},{"name":"A5","midi":81,"time":649.4322916666722,"velocity":0.8031496062992126,"duration":0.21614583333337123},{"name":"G5","midi":79,"time":649.6523437500056,"velocity":0.8031496062992126,"duration":0.21614583333337123},{"name":"C4","midi":60,"time":649.8710937500056,"velocity":0.8031496062992126,"duration":0.43619791666674246},{"name":"F#5","midi":78,"time":649.8710937500056,"velocity":0.8031496062992126,"duration":0.21614583333337123},{"name":"E5","midi":76,"time":650.0911458333389,"velocity":0.8031496062992126,"duration":0.21614583333337123},{"name":"F#3","midi":54,"time":650.3098958333389,"velocity":0.8031496062992126,"duration":0.43619791666674246},{"name":"A5","midi":81,"time":650.3098958333389,"velocity":0.8031496062992126,"duration":0.21614583333337123},{"name":"G5","midi":79,"time":650.5286458333389,"velocity":0.8031496062992126,"duration":0.21614583333337123},{"name":"E4","midi":64,"time":650.7486979166723,"velocity":0.8031496062992126,"duration":0.43619791666674246},{"name":"F#5","midi":78,"time":650.7486979166723,"velocity":0.8031496062992126,"duration":0.21614583333337123},{"name":"G5","midi":79,"time":650.9674479166723,"velocity":0.8031496062992126,"duration":0.21614583333337123},{"name":"D#4","midi":63,"time":651.1875000000057,"velocity":0.8031496062992126,"duration":0.43619791666674246},{"name":"A5","midi":81,"time":651.1875000000057,"velocity":0.8031496062992126,"duration":0.21614583333337123},{"name":"F#5","midi":78,"time":651.4062500000057,"velocity":0.8031496062992126,"duration":0.21614583333337123},{"name":"E4","midi":64,"time":651.626302083339,"velocity":0.8031496062992126,"duration":0.43619791666674246},{"name":"G5","midi":79,"time":651.626302083339,"velocity":0.8031496062992126,"duration":0.21614583333337123},{"name":"B4","midi":71,"time":651.845052083339,"velocity":0.8031496062992126,"duration":0.21614583333337123},{"name":"E3","midi":52,"time":652.0651041666724,"velocity":0.8031496062992126,"duration":0.43619791666674246},{"name":"C#5","midi":73,"time":652.0651041666724,"velocity":0.8031496062992126,"duration":0.21614583333337123},{"name":"D#5","midi":75,"time":652.2838541666724,"velocity":0.8031496062992126,"duration":0.21614583333337123},{"name":"F#3","midi":54,"time":652.5039062500058,"velocity":0.8031496062992126,"duration":0.43619791666674246},{"name":"E5","midi":76,"time":652.5039062500058,"velocity":0.8031496062992126,"duration":0.21614583333337123},{"name":"D#5","midi":75,"time":652.7226562500058,"velocity":0.8031496062992126,"duration":0.21614583333337123},{"name":"G3","midi":55,"time":652.9427083333392,"velocity":0.8031496062992126,"duration":0.43619791666674246},{"name":"E5","midi":76,"time":652.9427083333392,"velocity":0.8031496062992126,"duration":0.21614583333337123},{"name":"F#5","midi":78,"time":653.1614583333392,"velocity":0.8031496062992126,"duration":0.21614583333337123},{"name":"A3","midi":57,"time":653.3815104166725,"velocity":0.8031496062992126,"duration":0.43619791666674246},{"name":"G5","midi":79,"time":653.3815104166725,"velocity":0.8031496062992126,"duration":0.21614583333337123},{"name":"A5","midi":81,"time":653.6002604166725,"velocity":0.8031496062992126,"duration":0.21614583333337123},{"name":"B3","midi":59,"time":653.8203125000059,"velocity":0.8031496062992126,"duration":0.43619791666674246},{"name":"G5","midi":79,"time":653.8203125000059,"velocity":0.8031496062992126,"duration":0.21614583333337123},{"name":"F#5","midi":78,"time":654.0390625000059,"velocity":0.8031496062992126,"duration":0.21614583333337123},{"name":"E3","midi":52,"time":654.2591145833393,"velocity":0.8031496062992126,"duration":0.43619791666674246},{"name":"G5","midi":79,"time":654.2591145833393,"velocity":0.8031496062992126,"duration":0.21614583333337123},{"name":"F#5","midi":78,"time":654.4778645833393,"velocity":0.8031496062992126,"duration":0.21614583333337123},{"name":"G3","midi":55,"time":654.6979166666727,"velocity":0.8031496062992126,"duration":0.43619791666674246},{"name":"E5","midi":76,"time":654.6979166666727,"velocity":0.8031496062992126,"duration":0.21614583333337123},{"name":"D#5","midi":75,"time":654.9166666666727,"velocity":0.8031496062992126,"duration":0.21614583333337123},{"name":"B3","midi":59,"time":655.136718750006,"velocity":0.8031496062992126,"duration":0.43619791666674246},{"name":"E5","midi":76,"time":655.136718750006,"velocity":0.8031496062992126,"duration":0.21614583333337123},{"name":"F#5","midi":78,"time":655.355468750006,"velocity":0.8031496062992126,"duration":0.21614583333337123},{"name":"E4","midi":64,"time":655.5755208333394,"velocity":0.8031496062992126,"duration":0.21614583333337123},{"name":"G5","midi":79,"time":655.5755208333394,"velocity":0.8031496062992126,"duration":0.21614583333337123},{"name":"F#4","midi":66,"time":655.7942708333394,"velocity":0.8031496062992126,"duration":0.21614583333337123},{"name":"A5","midi":81,"time":655.7942708333394,"velocity":0.8031496062992126,"duration":0.21614583333337123},{"name":"G4","midi":67,"time":656.0130208333394,"velocity":0.8031496062992126,"duration":0.43619791666674246},{"name":"B5","midi":83,"time":656.0130208333394,"velocity":0.8031496062992126,"duration":0.21614583333337123},{"name":"C6","midi":84,"time":656.2330729166728,"velocity":0.8031496062992126,"duration":0.21614583333337123},{"name":"F#4","midi":66,"time":656.4518229166728,"velocity":0.8031496062992126,"duration":0.43619791666674246},{"name":"B5","midi":83,"time":656.4518229166728,"velocity":0.8031496062992126,"duration":0.21614583333337123},{"name":"A5","midi":81,"time":656.6718750000061,"velocity":0.8031496062992126,"duration":0.21614583333337123},{"name":"G4","midi":67,"time":656.8906250000061,"velocity":0.8031496062992126,"duration":0.43619791666674246},{"name":"B5","midi":83,"time":656.8906250000061,"velocity":0.8031496062992126,"duration":0.21614583333337123},{"name":"E5","midi":76,"time":657.1106770833395,"velocity":0.8031496062992126,"duration":0.21614583333337123},{"name":"F#4","midi":66,"time":657.3294270833395,"velocity":0.8031496062992126,"duration":0.21614583333337123},{"name":"F#5","midi":78,"time":657.3294270833395,"velocity":0.8031496062992126,"duration":0.21614583333337123},{"name":"E4","midi":64,"time":657.5494791666729,"velocity":0.8031496062992126,"duration":0.21614583333337123},{"name":"G5","midi":79,"time":657.5494791666729,"velocity":0.8031496062992126,"duration":0.21614583333337123},{"name":"F#4","midi":66,"time":657.7682291666729,"velocity":0.8031496062992126,"duration":0.21614583333337123},{"name":"A5","midi":81,"time":657.7682291666729,"velocity":0.8031496062992126,"duration":0.21614583333337123},{"name":"G4","midi":67,"time":657.9882812500063,"velocity":0.8031496062992126,"duration":0.21614583333337123},{"name":"B5","midi":83,"time":657.9882812500063,"velocity":0.8031496062992126,"duration":0.21614583333337123},{"name":"A4","midi":69,"time":658.2070312500063,"velocity":0.8031496062992126,"duration":0.43619791666674246},{"name":"C6","midi":84,"time":658.2070312500063,"velocity":0.8031496062992126,"duration":0.21614583333337123},{"name":"D5","midi":74,"time":658.4270833333396,"velocity":0.8031496062992126,"duration":0.21614583333337123},{"name":"F#4","midi":66,"time":658.6458333333396,"velocity":0.8031496062992126,"duration":0.43619791666674246},{"name":"E5","midi":76,"time":658.6458333333396,"velocity":0.8031496062992126,"duration":0.21614583333337123},{"name":"F#5","midi":78,"time":658.865885416673,"velocity":0.8031496062992126,"duration":0.21614583333337123},{"name":"D4","midi":62,"time":659.084635416673,"velocity":0.8031496062992126,"duration":0.43619791666674246},{"name":"G5","midi":79,"time":659.084635416673,"velocity":0.8031496062992126,"duration":0.21614583333337123},{"name":"A5","midi":81,"time":659.3046875000064,"velocity":0.8031496062992126,"duration":0.21614583333337123},{"name":"G4","midi":67,"time":659.5234375000064,"velocity":0.8031496062992126,"duration":0.21614583333337123},{"name":"B5","midi":83,"time":659.5234375000064,"velocity":0.8031496062992126,"duration":0.43619791666674246},{"name":"F#4","midi":66,"time":659.7434895833397,"velocity":0.8031496062992126,"duration":0.21614583333337123},{"name":"E4","midi":64,"time":659.9622395833397,"velocity":0.8031496062992126,"duration":0.21614583333337123},{"name":"B4","midi":71,"time":659.9622395833397,"velocity":0.8031496062992126,"duration":0.43619791666674246},{"name":"D4","midi":62,"time":660.1822916666731,"velocity":0.8031496062992126,"duration":0.21614583333337123},{"name":"C4","midi":60,"time":660.4010416666731,"velocity":0.8031496062992126,"duration":0.21614583333337123},{"name":"E5","midi":76,"time":660.4010416666731,"velocity":0.8031496062992126,"duration":0.10677083333337123},{"name":"D5","midi":74,"time":660.5104166666731,"velocity":0.8031496062992126,"duration":0.10677083333337123},{"name":"B3","midi":59,"time":660.6210937500065,"velocity":0.8031496062992126,"duration":0.21614583333337123},{"name":"E5","midi":76,"time":660.6210937500065,"velocity":0.8031496062992126,"duration":0.43619791666674246},{"name":"C4","midi":60,"time":660.8398437500065,"velocity":0.8031496062992126,"duration":0.21614583333337123},{"name":"A3","midi":57,"time":661.0598958333399,"velocity":0.8031496062992126,"duration":0.21614583333337123},{"name":"F#5","midi":78,"time":661.0598958333399,"velocity":0.8031496062992126,"duration":0.21614583333337123},{"name":"B3","midi":59,"time":661.2786458333399,"velocity":0.8031496062992126,"duration":0.4335937499998863},{"name":"G5","midi":79,"time":661.2786458333399,"velocity":0.8031496062992126,"duration":0.14453125},{"name":"F#5","midi":78,"time":661.4257812500065,"velocity":0.8031496062992126,"duration":0.10677083333337123},{"name":"G5","midi":79,"time":661.5000000000065,"velocity":0.8031496062992126,"duration":0.10546875},{"name":"F#5","midi":78,"time":661.5716145833399,"velocity":0.8031496062992126,"duration":0.10546874999988631},{"name":"G5","midi":79,"time":661.6432291666731,"velocity":0.8031496062992126,"duration":0.10546874999988631},{"name":"B2","midi":47,"time":661.7148437500064,"velocity":0.8031496062992126,"duration":0.43619791666662877},{"name":"F#5","midi":78,"time":661.7148437500064,"velocity":0.8031496062992126,"duration":0.21614583333325754},{"name":"E5","midi":76,"time":661.9348958333396,"velocity":0.8031496062992126,"duration":0.21614583333337123},{"name":"E3","midi":52,"time":662.1536458333396,"velocity":0.8031496062992126,"duration":0.4375},{"name":"E5","midi":76,"time":662.1536458333396,"velocity":0.8031496062992126,"duration":0.87890625},{"name":"E2","midi":40,"time":662.5950520833396,"velocity":0.8031496062992126,"duration":0.4375},{"name":"E3","midi":52,"time":663.0351562500063,"velocity":0.8031496062992126,"duration":0.21614583333337123},{"name":"G5","midi":79,"time":663.0351562500063,"velocity":0.8031496062992126,"duration":0.43619791666674246},{"name":"F#3","midi":54,"time":663.2552083333396,"velocity":0.8031496062992126,"duration":0.21614583333337123},{"name":"G3","midi":55,"time":663.4739583333396,"velocity":0.8031496062992126,"duration":0.21614583333337123},{"name":"B4","midi":71,"time":663.4739583333396,"velocity":0.8031496062992126,"duration":0.21614583333337123},{"name":"A3","midi":57,"time":663.694010416673,"velocity":0.8031496062992126,"duration":0.21614583333337123},{"name":"C5","midi":72,"time":663.694010416673,"velocity":0.8031496062992126,"duration":0.21614583333337123},{"name":"B3","midi":59,"time":663.912760416673,"velocity":0.8031496062992126,"duration":0.21614583333337123},{"name":"D5","midi":74,"time":663.912760416673,"velocity":0.8031496062992126,"duration":0.43619791666674246},{"name":"C4","midi":60,"time":664.1328125000064,"velocity":0.8031496062992126,"duration":0.21614583333337123},{"name":"B3","midi":59,"time":664.3515625000064,"velocity":0.8031496062992126,"duration":0.21614583333337123},{"name":"E5","midi":76,"time":664.3515625000064,"velocity":0.8031496062992126,"duration":0.43619791666674246},{"name":"A3","midi":57,"time":664.5716145833397,"velocity":0.8031496062992126,"duration":0.21614583333337123},{"name":"B3","midi":59,"time":664.7903645833397,"velocity":0.8031496062992126,"duration":0.21614583333337123},{"name":"D5","midi":74,"time":664.7903645833397,"velocity":0.8031496062992126,"duration":0.43619791666674246},{"name":"A3","midi":57,"time":665.0104166666731,"velocity":0.8031496062992126,"duration":0.21614583333337123},{"name":"G3","midi":55,"time":665.2291666666731,"velocity":0.8031496062992126,"duration":0.21614583333337123},{"name":"C5","midi":72,"time":665.2291666666731,"velocity":0.8031496062992126,"duration":0.21614583333337123},{"name":"A3","midi":57,"time":665.4492187500065,"velocity":0.8031496062992126,"duration":0.21614583333337123},{"name":"B4","midi":71,"time":665.4492187500065,"velocity":0.8031496062992126,"duration":0.21614583333337123},{"name":"B3","midi":59,"time":665.6679687500065,"velocity":0.8031496062992126,"duration":0.21614583333337123},{"name":"A4","midi":69,"time":665.6679687500065,"velocity":0.8031496062992126,"duration":0.21614583333337123},{"name":"C4","midi":60,"time":665.8880208333399,"velocity":0.8031496062992126,"duration":0.21614583333337123},{"name":"G4","midi":67,"time":665.8880208333399,"velocity":0.8031496062992126,"duration":0.21614583333337123},{"name":"B3","midi":59,"time":666.1067708333399,"velocity":0.8031496062992126,"duration":0.21614583333337123},{"name":"G5","midi":79,"time":666.1067708333399,"velocity":0.8031496062992126,"duration":0.43619791666674246},{"name":"A3","midi":57,"time":666.3268229166732,"velocity":0.8031496062992126,"duration":0.21614583333337123},{"name":"G3","midi":55,"time":666.5455729166732,"velocity":0.8031496062992126,"duration":0.21614583333337123},{"name":"B4","midi":71,"time":666.5455729166732,"velocity":0.8031496062992126,"duration":0.21614583333337123},{"name":"A3","midi":57,"time":666.7656250000066,"velocity":0.8031496062992126,"duration":0.21614583333337123},{"name":"C5","midi":72,"time":666.7656250000066,"velocity":0.8031496062992126,"duration":0.21614583333337123},{"name":"B3","midi":59,"time":666.9843750000066,"velocity":0.8031496062992126,"duration":0.21614583333337123},{"name":"D5","midi":74,"time":666.9843750000066,"velocity":0.8031496062992126,"duration":0.21614583333337123},{"name":"C4","midi":60,"time":667.20442708334,"velocity":0.8031496062992126,"duration":0.21614583333337123},{"name":"E5","midi":76,"time":667.20442708334,"velocity":0.8031496062992126,"duration":0.21614583333337123},{"name":"B3","midi":59,"time":667.42317708334,"velocity":0.8031496062992126,"duration":0.21614583333337123},{"name":"D5","midi":74,"time":667.42317708334,"velocity":0.8031496062992126,"duration":0.43619791666674246},{"name":"A3","midi":57,"time":667.6432291666733,"velocity":0.8031496062992126,"duration":0.21614583333337123},{"name":"G3","midi":55,"time":667.8619791666733,"velocity":0.8031496062992126,"duration":0.21614583333337123},{"name":"G5","midi":79,"time":667.8619791666733,"velocity":0.8031496062992126,"duration":1.313802083333485},{"name":"F#3","midi":54,"time":668.0820312500067,"velocity":0.8031496062992126,"duration":0.21614583333337123},{"name":"E3","midi":52,"time":668.3007812500067,"velocity":0.8031496062992126,"duration":0.21614583333337123},{"name":"D3","midi":50,"time":668.5195312500067,"velocity":0.8031496062992126,"duration":0.21614583333337123},{"name":"C#3","midi":49,"time":668.7395833333401,"velocity":0.8031496062992126,"duration":0.21614583333337123},{"name":"E3","midi":52,"time":668.9583333333401,"velocity":0.8031496062992126,"duration":0.21614583333337123},{"name":"A3","midi":57,"time":669.1783854166734,"velocity":0.8031496062992126,"duration":0.21614583333337123},{"name":"E5","midi":76,"time":669.1783854166734,"velocity":0.8031496062992126,"duration":0.43619791666674246},{"name":"G3","midi":55,"time":669.3971354166734,"velocity":0.8031496062992126,"duration":0.21614583333337123},{"name":"F#3","midi":54,"time":669.6171875000068,"velocity":0.8031496062992126,"duration":0.21614583333337123},{"name":"A5","midi":81,"time":669.6171875000068,"velocity":0.8031496062992126,"duration":0.43619791666674246},{"name":"E3","midi":52,"time":669.8359375000068,"velocity":0.8031496062992126,"duration":0.21614583333337123},{"name":"D3","midi":50,"time":670.0559895833402,"velocity":0.8031496062992126,"duration":0.21614583333337123},{"name":"F#5","midi":78,"time":670.0559895833402,"velocity":0.8031496062992126,"duration":0.43619791666674246},{"name":"E3","midi":52,"time":670.2747395833402,"velocity":0.8031496062992126,"duration":0.21614583333337123},{"name":"D3","midi":50,"time":670.4947916666736,"velocity":0.8031496062992126,"duration":0.21614583333337123},{"name":"B5","midi":83,"time":670.4947916666736,"velocity":0.8031496062992126,"duration":1.313802083333485},{"name":"C#3","midi":49,"time":670.7135416666736,"velocity":0.8031496062992126,"duration":0.21614583333337123},{"name":"B2","midi":47,"time":670.9335937500069,"velocity":0.8031496062992126,"duration":0.21614583333337123},{"name":"A2","midi":45,"time":671.1523437500069,"velocity":0.8031496062992126,"duration":0.21614583333337123},{"name":"G2","midi":43,"time":671.3723958333403,"velocity":0.8031496062992126,"duration":0.21614583333337123},{"name":"E3","midi":52,"time":671.5911458333403,"velocity":0.8031496062992126,"duration":0.21614583333337123},{"name":"A3","midi":57,"time":671.8111979166737,"velocity":0.8031496062992126,"duration":0.43619791666674246},{"name":"A5","midi":81,"time":671.8111979166737,"velocity":0.8031496062992126,"duration":0.21614583333337123},{"name":"G5","midi":79,"time":672.0299479166737,"velocity":0.8031496062992126,"duration":0.21614583333337123},{"name":"A2","midi":45,"time":672.250000000007,"velocity":0.8031496062992126,"duration":0.43619791666674246},{"name":"F#5","midi":78,"time":672.250000000007,"velocity":0.8031496062992126,"duration":0.21614583333337123},{"name":"E5","midi":76,"time":672.468750000007,"velocity":0.8031496062992126,"duration":0.21614583333337123},{"name":"D3","midi":50,"time":672.6888020833404,"velocity":0.8031496062992126,"duration":0.6549479166667425},{"name":"G5","midi":79,"time":672.6888020833404,"velocity":0.8031496062992126,"duration":0.21614583333337123},{"name":"F#5","midi":78,"time":672.9075520833404,"velocity":0.8031496062992126,"duration":0.21614583333337123},{"name":"E5","midi":76,"time":673.1276041666738,"velocity":0.8031496062992126,"duration":0.21614583333337123},{"name":"F#3","midi":54,"time":673.3463541666738,"velocity":0.8031496062992126,"duration":0.21614583333337123},{"name":"D5","midi":74,"time":673.3463541666738,"velocity":0.8031496062992126,"duration":0.21614583333337123},{"name":"B3","midi":59,"time":673.5664062500072,"velocity":0.8031496062992126,"duration":0.21614583333337123},{"name":"F#5","midi":78,"time":673.5664062500072,"velocity":0.8031496062992126,"duration":0.43619791666674246},{"name":"A3","midi":57,"time":673.7851562500072,"velocity":0.8031496062992126,"duration":0.21614583333337123},{"name":"G3","midi":55,"time":674.0039062500073,"velocity":0.8031496062992126,"duration":0.21614583333337123},{"name":"B4","midi":71,"time":674.0039062500073,"velocity":0.8031496062992126,"duration":0.21614583333337123},{"name":"F#3","midi":54,"time":674.2239583333406,"velocity":0.8031496062992126,"duration":0.21614583333337123},{"name":"C#5","midi":73,"time":674.2239583333406,"velocity":0.8031496062992126,"duration":0.21614583333337123},{"name":"E3","midi":52,"time":674.4427083333406,"velocity":0.8031496062992126,"duration":0.21614583333337123},{"name":"D5","midi":74,"time":674.4427083333406,"velocity":0.8031496062992126,"duration":0.43619791666674246},{"name":"D3","midi":50,"time":674.662760416674,"velocity":0.8031496062992126,"duration":0.21614583333337123},{"name":"E3","midi":52,"time":674.881510416674,"velocity":0.8031496062992126,"duration":0.21614583333337123},{"name":"C#5","midi":73,"time":674.881510416674,"velocity":0.8031496062992126,"duration":0.43619791666674246},{"name":"F#3","midi":54,"time":675.1015625000074,"velocity":0.8031496062992126,"duration":0.21614583333337123},{"name":"B2","midi":47,"time":675.3203125000074,"velocity":0.8031496062992126,"duration":0.21614583333337123},{"name":"D5","midi":74,"time":675.3203125000074,"velocity":0.8031496062992126,"duration":0.43619791666674246},{"name":"B3","midi":59,"time":675.5403645833408,"velocity":0.8031496062992126,"duration":0.21614583333337123},{"name":"A#3","midi":58,"time":675.7591145833408,"velocity":0.8031496062992126,"duration":0.21614583333337123},{"name":"C#5","midi":73,"time":675.7591145833408,"velocity":0.8031496062992126,"duration":0.21614583333337123},{"name":"G#3","midi":56,"time":675.9791666666741,"velocity":0.8031496062992126,"duration":0.21614583333337123},{"name":"B4","midi":71,"time":675.9791666666741,"velocity":0.8031496062992126,"duration":0.21614583333337123},{"name":"A#3","midi":58,"time":676.1979166666741,"velocity":0.8031496062992126,"duration":0.21614583333337123},{"name":"C#5","midi":73,"time":676.1979166666741,"velocity":0.8031496062992126,"duration":0.21614583333337123},{"name":"B3","midi":59,"time":676.4179687500075,"velocity":0.8031496062992126,"duration":0.21614583333337123},{"name":"D5","midi":74,"time":676.4179687500075,"velocity":0.8031496062992126,"duration":0.21614583333337123},{"name":"C#3","midi":49,"time":676.6367187500075,"velocity":0.8031496062992126,"duration":0.21614583333337123},{"name":"E5","midi":76,"time":676.6367187500075,"velocity":0.8031496062992126,"duration":0.21614583333337123},{"name":"B3","midi":59,"time":676.8567708333409,"velocity":0.8031496062992126,"duration":0.21614583333337123},{"name":"F#5","midi":78,"time":676.8567708333409,"velocity":0.8031496062992126,"duration":0.21614583333337123},{"name":"A3","midi":57,"time":677.0755208333409,"velocity":0.8031496062992126,"duration":0.21614583333337123},{"name":"G5","midi":79,"time":677.0755208333409,"velocity":0.8031496062992126,"duration":0.43619791666674246},{"name":"G3","midi":55,"time":677.2955729166742,"velocity":0.8031496062992126,"duration":0.21614583333337123},{"name":"A3","midi":57,"time":677.5143229166742,"velocity":0.8031496062992126,"duration":0.21614583333337123},{"name":"F#5","midi":78,"time":677.5143229166742,"velocity":0.8031496062992126,"duration":0.43619791666674246},{"name":"D#3","midi":51,"time":677.7343750000076,"velocity":0.8031496062992126,"duration":0.21614583333337123},{"name":"E3","midi":52,"time":677.9531250000076,"velocity":0.8031496062992126,"duration":0.21614583333337123},{"name":"G5","midi":79,"time":677.9531250000076,"velocity":0.8031496062992126,"duration":1.532552083333485},{"name":"A3","midi":57,"time":678.173177083341,"velocity":0.8031496062992126,"duration":0.21614583333337123},{"name":"G3","midi":55,"time":678.391927083341,"velocity":0.8031496062992126,"duration":0.21614583333337123},{"name":"F#3","midi":54,"time":678.6119791666744,"velocity":0.8031496062992126,"duration":0.21614583333337123},{"name":"G3","midi":55,"time":678.8307291666744,"velocity":0.8031496062992126,"duration":0.21614583333337123},{"name":"E3","midi":52,"time":679.0507812500077,"velocity":0.8031496062992126,"duration":0.21614583333337123},{"name":"C#3","midi":49,"time":679.2695312500077,"velocity":0.8031496062992126,"duration":0.43619791666674246},{"name":"A#5","midi":82,"time":679.4882812500077,"velocity":0.8031496062992126,"duration":0.21614583333337123},{"name":"D3","midi":50,"time":679.7083333333411,"velocity":0.8031496062992126,"duration":0.43619791666674246},{"name":"B5","midi":83,"time":679.7083333333411,"velocity":0.8031496062992126,"duration":0.21614583333337123},{"name":"G5","midi":79,"time":679.9270833333411,"velocity":0.8031496062992126,"duration":0.21614583333337123},{"name":"A#2","midi":46,"time":680.1471354166745,"velocity":0.8031496062992126,"duration":0.43619791666674246},{"name":"F#5","midi":78,"time":680.1471354166745,"velocity":0.8031496062992126,"duration":0.21614583333337123},{"name":"E5","midi":76,"time":680.3658854166745,"velocity":0.8031496062992126,"duration":0.21614583333337123},{"name":"B2","midi":47,"time":680.5859375000078,"velocity":0.8031496062992126,"duration":0.43619791666674246},{"name":"D5","midi":74,"time":680.5859375000078,"velocity":0.8031496062992126,"duration":0.21614583333337123},{"name":"F5","midi":77,"time":680.8046875000078,"velocity":0.8031496062992126,"duration":0.21614583333337123},{"name":"D3","midi":50,"time":681.0247395833412,"velocity":0.8031496062992126,"duration":0.43619791666674246},{"name":"F#5","midi":78,"time":681.0247395833412,"velocity":0.8031496062992126,"duration":0.21614583333337123},{"name":"D5","midi":74,"time":681.2434895833412,"velocity":0.8031496062992126,"duration":0.21614583333337123},{"name":"G3","midi":55,"time":681.4635416666746,"velocity":0.8031496062992126,"duration":0.6549479166667425},{"name":"C#5","midi":73,"time":681.4635416666746,"velocity":0.8031496062992126,"duration":0.21614583333337123},{"name":"B4","midi":71,"time":681.6822916666746,"velocity":0.8031496062992126,"duration":0.21614583333337123},{"name":"E5","midi":76,"time":681.902343750008,"velocity":0.8031496062992126,"duration":0.21614583333337123},{"name":"E3","midi":52,"time":682.121093750008,"velocity":0.8031496062992126,"duration":0.21614583333337123},{"name":"F#5","midi":78,"time":682.121093750008,"velocity":0.8031496062992126,"duration":0.21614583333337123},{"name":"F#3","midi":54,"time":682.3411458333413,"velocity":0.8031496062992126,"duration":0.4335937499998863},{"name":"D5","midi":74,"time":682.3411458333413,"velocity":0.8031496062992126,"duration":0.14453125},{"name":"C#5","midi":73,"time":682.488281250008,"velocity":0.8031496062992126,"duration":0.10677083333337123},{"name":"D5","midi":74,"time":682.562500000008,"velocity":0.8031496062992126,"duration":0.10546875},{"name":"C#5","midi":73,"time":682.6341145833413,"velocity":0.8031496062992126,"duration":0.10546874999988631},{"name":"D5","midi":74,"time":682.7057291666746,"velocity":0.8031496062992126,"duration":0.10546874999988631},{"name":"F#2","midi":42,"time":682.7773437500078,"velocity":0.8031496062992126,"duration":0.43619791666662877},{"name":"C#5","midi":73,"time":682.7773437500078,"velocity":0.8031496062992126,"duration":0.21614583333325754},{"name":"B4","midi":71,"time":682.9973958333411,"velocity":0.8031496062992126,"duration":0.21614583333337123},{"name":"B2","midi":47,"time":683.2161458333411,"velocity":0.8031496062992126,"duration":0.4375},{"name":"B4","midi":71,"time":683.2161458333411,"velocity":0.8031496062992126,"duration":0.8763020833333712},{"name":"B3","midi":59,"time":683.6575520833411,"velocity":0.8031496062992126,"duration":0.21614583333337123},{"name":"A3","midi":57,"time":683.8763020833411,"velocity":0.8031496062992126,"duration":0.21614583333337123},{"name":"G3","midi":55,"time":684.0963541666745,"velocity":0.8031496062992126,"duration":0.21614583333337123},{"name":"B4","midi":71,"time":684.0963541666745,"velocity":0.8031496062992126,"duration":0.43619791666674246},{"name":"F#3","midi":54,"time":684.3151041666745,"velocity":0.8031496062992126,"duration":0.21614583333337123},{"name":"G3","midi":55,"time":684.5351562500078,"velocity":0.8031496062992126,"duration":0.43619791666674246},{"name":"E5","midi":76,"time":684.5351562500078,"velocity":0.8031496062992126,"duration":0.21614583333337123},{"name":"F#5","midi":78,"time":684.7539062500078,"velocity":0.8031496062992126,"duration":0.21614583333337123},{"name":"A3","midi":57,"time":684.972656250008,"velocity":0.8031496062992126,"duration":0.4375},{"name":"G5","midi":79,"time":684.972656250008,"velocity":0.8031496062992126,"duration":0.4375},{"name":"B3","midi":59,"time":685.414062500008,"velocity":0.8031496062992126,"duration":0.4375},{"name":"F#5","midi":78,"time":685.414062500008,"velocity":0.8031496062992126,"duration":0.4375},{"name":"E3","midi":52,"time":685.855468750008,"velocity":0.8031496062992126,"duration":0.4375},{"name":"G5","midi":79,"time":685.855468750008,"velocity":0.8031496062992126,"duration":0.4375},{"name":"G3","midi":55,"time":686.2955729166746,"velocity":0.8031496062992126,"duration":0.43619791666674246},{"name":"E5","midi":76,"time":686.2955729166746,"velocity":0.8031496062992126,"duration":0.21614583333337123},{"name":"D#5","midi":75,"time":686.515625000008,"velocity":0.8031496062992126,"duration":0.21614583333337123},{"name":"B3","midi":59,"time":686.734375000008,"velocity":0.8031496062992126,"duration":0.43619791666674246},{"name":"E5","midi":76,"time":686.734375000008,"velocity":0.8031496062992126,"duration":0.21614583333337123},{"name":"F#5","midi":78,"time":686.9544270833413,"velocity":0.8031496062992126,"duration":0.21614583333337123},{"name":"E4","midi":64,"time":687.1731770833413,"velocity":0.8031496062992126,"duration":0.21614583333337123},{"name":"G5","midi":79,"time":687.1731770833413,"velocity":0.8031496062992126,"duration":0.21614583333337123},{"name":"F#4","midi":66,"time":687.3932291666747,"velocity":0.8031496062992126,"duration":0.21614583333337123},{"name":"A5","midi":81,"time":687.3932291666747,"velocity":0.8031496062992126,"duration":0.21614583333337123},{"name":"G4","midi":67,"time":687.6119791666747,"velocity":0.8031496062992126,"duration":0.43619791666674246},{"name":"B5","midi":83,"time":687.6119791666747,"velocity":0.8031496062992126,"duration":0.21614583333337123},{"name":"C6","midi":84,"time":687.8320312500081,"velocity":0.8031496062992126,"duration":0.21614583333337123},{"name":"F#4","midi":66,"time":688.0507812500081,"velocity":0.8031496062992126,"duration":0.43619791666674246},{"name":"B5","midi":83,"time":688.0507812500081,"velocity":0.8031496062992126,"duration":0.21614583333337123},{"name":"A5","midi":81,"time":688.2708333333414,"velocity":0.8031496062992126,"duration":0.21614583333337123},{"name":"G4","midi":67,"time":688.4895833333414,"velocity":0.8031496062992126,"duration":0.43619791666674246},{"name":"B5","midi":83,"time":688.4895833333414,"velocity":0.8031496062992126,"duration":0.21614583333337123},{"name":"E5","midi":76,"time":688.7083333333414,"velocity":0.8031496062992126,"duration":0.21614583333337123},{"name":"F#4","midi":66,"time":688.9283854166748,"velocity":0.8031496062992126,"duration":0.21614583333337123},{"name":"F#5","midi":78,"time":688.9283854166748,"velocity":0.8031496062992126,"duration":0.21614583333337123},{"name":"E4","midi":64,"time":689.1471354166748,"velocity":0.8031496062992126,"duration":0.21614583333337123},{"name":"G5","midi":79,"time":689.1471354166748,"velocity":0.8031496062992126,"duration":0.21614583333337123},{"name":"F#4","midi":66,"time":689.3671875000082,"velocity":0.8031496062992126,"duration":0.21614583333337123},{"name":"A5","midi":81,"time":689.3671875000082,"velocity":0.8031496062992126,"duration":0.21614583333337123},{"name":"G4","midi":67,"time":689.5859375000082,"velocity":0.8031496062992126,"duration":0.21614583333337123},{"name":"B5","midi":83,"time":689.5859375000082,"velocity":0.8031496062992126,"duration":0.21614583333337123},{"name":"A4","midi":69,"time":689.8059895833416,"velocity":0.8031496062992126,"duration":0.4375},{"name":"C6","midi":84,"time":689.8059895833416,"velocity":0.8031496062992126,"duration":0.4375},{"name":"F#4","midi":66,"time":690.2460937500082,"velocity":0.8031496062992126,"duration":0.43619791666674246},{"name":"B5","midi":83,"time":690.2460937500082,"velocity":0.8031496062992126,"duration":0.21614583333337123},{"name":"A5","midi":81,"time":690.4661458333416,"velocity":0.8031496062992126,"duration":0.21614583333337123},{"name":"D4","midi":62,"time":690.6848958333416,"velocity":0.8031496062992126,"duration":0.43619791666674246},{"name":"G5","midi":79,"time":690.6848958333416,"velocity":0.8031496062992126,"duration":0.21614583333337123},{"name":"F#5","midi":78,"time":690.9049479166749,"velocity":0.8031496062992126,"duration":0.21614583333337123},{"name":"G4","midi":67,"time":691.1236979166749,"velocity":0.8031496062992126,"duration":0.4375},{"name":"B5","midi":83,"time":691.1236979166749,"velocity":0.8031496062992126,"duration":0.4375},{"name":"E4","midi":64,"time":691.5651041666749,"velocity":0.8031496062992126,"duration":0.43619791666674246},{"name":"A5","midi":81,"time":691.5651041666749,"velocity":0.8031496062992126,"duration":0.21614583333337123},{"name":"G5","midi":79,"time":691.7838541666749,"velocity":0.8031496062992126,"duration":0.21614583333337123},{"name":"C4","midi":60,"time":692.0039062500083,"velocity":0.8031496062992126,"duration":0.43619791666674246},{"name":"F#5","midi":78,"time":692.0039062500083,"velocity":0.8031496062992126,"duration":0.21614583333337123},{"name":"E5","midi":76,"time":692.2226562500083,"velocity":0.8031496062992126,"duration":0.21614583333337123},{"name":"F#3","midi":54,"time":692.4427083333417,"velocity":0.8031496062992126,"duration":0.43619791666674246},{"name":"A5","midi":81,"time":692.4427083333417,"velocity":0.8031496062992126,"duration":0.21614583333337123},{"name":"G5","midi":79,"time":692.6614583333417,"velocity":0.8031496062992126,"duration":0.21614583333337123},{"name":"E4","midi":64,"time":692.881510416675,"velocity":0.8031496062992126,"duration":0.43619791666674246},{"name":"F#5","midi":78,"time":692.881510416675,"velocity":0.8031496062992126,"duration":0.21614583333337123},{"name":"G5","midi":79,"time":693.100260416675,"velocity":0.8031496062992126,"duration":0.21614583333337123},{"name":"D#4","midi":63,"time":693.3203125000084,"velocity":0.8031496062992126,"duration":0.43619791666674246},{"name":"A5","midi":81,"time":693.3203125000084,"velocity":0.8031496062992126,"duration":0.21614583333337123},{"name":"F#5","midi":78,"time":693.5390625000084,"velocity":0.8031496062992126,"duration":0.21614583333337123},{"name":"E4","midi":64,"time":693.7591145833418,"velocity":0.8031496062992126,"duration":0.43619791666674246},{"name":"G5","midi":79,"time":693.7591145833418,"velocity":0.8031496062992126,"duration":0.21614583333337123},{"name":"B4","midi":71,"time":693.9778645833418,"velocity":0.8031496062992126,"duration":0.21614583333337123},{"name":"E3","midi":52,"time":694.1979166666752,"velocity":0.8031496062992126,"duration":0.43619791666674246},{"name":"C#5","midi":73,"time":694.1979166666752,"velocity":0.8031496062992126,"duration":0.21614583333337123},{"name":"D#5","midi":75,"time":694.4166666666752,"velocity":0.8031496062992126,"duration":0.21614583333337123},{"name":"F#3","midi":54,"time":694.6367187500085,"velocity":0.8031496062992126,"duration":0.43619791666674246},{"name":"E5","midi":76,"time":694.6367187500085,"velocity":0.8031496062992126,"duration":0.21614583333337123},{"name":"D#5","midi":75,"time":694.8554687500085,"velocity":0.8031496062992126,"duration":0.21614583333337123},{"name":"G3","midi":55,"time":695.0755208333419,"velocity":0.8031496062992126,"duration":0.43619791666674246},{"name":"E5","midi":76,"time":695.0755208333419,"velocity":0.8031496062992126,"duration":0.21614583333337123},{"name":"F#5","midi":78,"time":695.2942708333419,"velocity":0.8031496062992126,"duration":0.21614583333337123},{"name":"A3","midi":57,"time":695.5143229166753,"velocity":0.8031496062992126,"duration":0.43619791666674246},{"name":"G5","midi":79,"time":695.5143229166753,"velocity":0.8031496062992126,"duration":0.21614583333337123},{"name":"A5","midi":81,"time":695.7330729166753,"velocity":0.8031496062992126,"duration":0.21614583333337123},{"name":"B3","midi":59,"time":695.9531250000086,"velocity":0.8031496062992126,"duration":0.43619791666674246},{"name":"G5","midi":79,"time":695.9531250000086,"velocity":0.8031496062992126,"duration":0.21614583333337123},{"name":"F#5","midi":78,"time":696.1718750000086,"velocity":0.8031496062992126,"duration":0.21614583333337123},{"name":"E3","midi":52,"time":696.391927083342,"velocity":0.8031496062992126,"duration":0.43619791666674246},{"name":"G5","midi":79,"time":696.391927083342,"velocity":0.8031496062992126,"duration":0.21614583333337123},{"name":"F#5","midi":78,"time":696.610677083342,"velocity":0.8031496062992126,"duration":0.21614583333337123},{"name":"G3","midi":55,"time":696.8294270833421,"velocity":0.8031496062992126,"duration":0.43619791666674246},{"name":"E5","midi":76,"time":696.8294270833421,"velocity":0.8031496062992126,"duration":0.21614583333337123},{"name":"D#5","midi":75,"time":697.0494791666755,"velocity":0.8031496062992126,"duration":0.21614583333337123},{"name":"B3","midi":59,"time":697.2682291666755,"velocity":0.8031496062992126,"duration":0.43619791666674246},{"name":"E5","midi":76,"time":697.2682291666755,"velocity":0.8031496062992126,"duration":0.21614583333337123},{"name":"F#5","midi":78,"time":697.4882812500089,"velocity":0.8031496062992126,"duration":0.21614583333337123},{"name":"E4","midi":64,"time":697.7070312500089,"velocity":0.8031496062992126,"duration":0.21614583333337123},{"name":"G5","midi":79,"time":697.7070312500089,"velocity":0.8031496062992126,"duration":0.21614583333337123},{"name":"F#4","midi":66,"time":697.9270833333422,"velocity":0.8031496062992126,"duration":0.21614583333337123},{"name":"A5","midi":81,"time":697.9270833333422,"velocity":0.8031496062992126,"duration":0.21614583333337123},{"name":"G4","midi":67,"time":698.1458333333422,"velocity":0.8031496062992126,"duration":0.43619791666674246},{"name":"B5","midi":83,"time":698.1458333333422,"velocity":0.8031496062992126,"duration":0.21614583333337123},{"name":"C6","midi":84,"time":698.3658854166756,"velocity":0.8031496062992126,"duration":0.21614583333337123},{"name":"F#4","midi":66,"time":698.5846354166756,"velocity":0.8031496062992126,"duration":0.43619791666674246},{"name":"B5","midi":83,"time":698.5846354166756,"velocity":0.8031496062992126,"duration":0.21614583333337123},{"name":"A5","midi":81,"time":698.804687500009,"velocity":0.8031496062992126,"duration":0.21614583333337123},{"name":"G4","midi":67,"time":699.023437500009,"velocity":0.8031496062992126,"duration":0.43619791666674246},{"name":"B5","midi":83,"time":699.023437500009,"velocity":0.8031496062992126,"duration":0.21614583333337123},{"name":"E5","midi":76,"time":699.2434895833424,"velocity":0.8031496062992126,"duration":0.21614583333337123},{"name":"F#4","midi":66,"time":699.4622395833424,"velocity":0.8031496062992126,"duration":0.21614583333337123},{"name":"F#5","midi":78,"time":699.4622395833424,"velocity":0.8031496062992126,"duration":0.21614583333337123},{"name":"E4","midi":64,"time":699.6822916666757,"velocity":0.8031496062992126,"duration":0.21614583333337123},{"name":"G5","midi":79,"time":699.6822916666757,"velocity":0.8031496062992126,"duration":0.21614583333337123},{"name":"F#4","midi":66,"time":699.9010416666757,"velocity":0.8031496062992126,"duration":0.21614583333337123},{"name":"A5","midi":81,"time":699.9010416666757,"velocity":0.8031496062992126,"duration":0.21614583333337123},{"name":"G4","midi":67,"time":700.1210937500091,"velocity":0.8031496062992126,"duration":0.21614583333337123},{"name":"B5","midi":83,"time":700.1210937500091,"velocity":0.8031496062992126,"duration":0.21614583333337123},{"name":"A4","midi":69,"time":700.3398437500091,"velocity":0.8031496062992126,"duration":0.43619791666674246},{"name":"C6","midi":84,"time":700.3398437500091,"velocity":0.8031496062992126,"duration":0.21614583333337123},{"name":"D5","midi":74,"time":700.5598958333425,"velocity":0.8031496062992126,"duration":0.21614583333337123},{"name":"F#4","midi":66,"time":700.7786458333425,"velocity":0.8031496062992126,"duration":0.43619791666674246},{"name":"E5","midi":76,"time":700.7786458333425,"velocity":0.8031496062992126,"duration":0.21614583333337123},{"name":"F#5","midi":78,"time":700.9986979166758,"velocity":0.8031496062992126,"duration":0.21614583333337123},{"name":"D4","midi":62,"time":701.2174479166758,"velocity":0.8031496062992126,"duration":0.43619791666674246},{"name":"G5","midi":79,"time":701.2174479166758,"velocity":0.8031496062992126,"duration":0.21614583333337123},{"name":"A5","midi":81,"time":701.4375000000092,"velocity":0.8031496062992126,"duration":0.21614583333337123},{"name":"G4","midi":67,"time":701.6562500000092,"velocity":0.8031496062992126,"duration":0.21614583333337123},{"name":"B5","midi":83,"time":701.6562500000092,"velocity":0.8031496062992126,"duration":0.43619791666674246},{"name":"F#4","midi":66,"time":701.8763020833426,"velocity":0.8031496062992126,"duration":0.21614583333337123},{"name":"E4","midi":64,"time":702.0950520833426,"velocity":0.8031496062992126,"duration":0.21614583333337123},{"name":"B4","midi":71,"time":702.0950520833426,"velocity":0.8031496062992126,"duration":0.43619791666674246},{"name":"D4","midi":62,"time":702.3138020833426,"velocity":0.8031496062992126,"duration":0.21614583333337123},{"name":"C4","midi":60,"time":702.533854166676,"velocity":0.8031496062992126,"duration":0.21614583333337123},{"name":"E5","midi":76,"time":702.533854166676,"velocity":0.8031496062992126,"duration":0.10677083333337123},{"name":"D5","midi":74,"time":702.643229166676,"velocity":0.8031496062992126,"duration":0.10677083333337123},{"name":"B3","midi":59,"time":702.752604166676,"velocity":0.8031496062992126,"duration":0.21614583333337123},{"name":"E5","midi":76,"time":702.752604166676,"velocity":0.8031496062992126,"duration":0.43619791666674246},{"name":"C4","midi":60,"time":702.9726562500093,"velocity":0.8031496062992126,"duration":0.21614583333337123},{"name":"A3","midi":57,"time":703.1914062500093,"velocity":0.8031496062992126,"duration":0.21614583333337123},{"name":"F#5","midi":78,"time":703.1914062500093,"velocity":0.8031496062992126,"duration":0.21614583333337123},{"name":"B3","midi":59,"time":703.4114583333427,"velocity":0.8031496062992126,"duration":0.4335937499998863},{"name":"G5","midi":79,"time":703.4114583333427,"velocity":0.8031496062992126,"duration":0.14453125},{"name":"F#5","midi":78,"time":703.5585937500093,"velocity":0.8031496062992126,"duration":0.10677083333337123},{"name":"G5","midi":79,"time":703.6328125000093,"velocity":0.8031496062992126,"duration":0.10546875},{"name":"F#5","midi":78,"time":703.7044270833427,"velocity":0.8031496062992126,"duration":0.10546874999988631},{"name":"G5","midi":79,"time":703.776041666676,"velocity":0.8031496062992126,"duration":0.10546874999988631},{"name":"B2","midi":47,"time":703.8476562500092,"velocity":0.8031496062992126,"duration":0.43619791666662877},{"name":"F#5","midi":78,"time":703.8476562500092,"velocity":0.8031496062992126,"duration":0.21614583333325754},{"name":"E5","midi":76,"time":704.0677083333425,"velocity":0.8031496062992126,"duration":0.21614583333337123},{"name":"E3","midi":52,"time":704.2864583333425,"velocity":0.8031496062992126,"duration":0.4375},{"name":"E5","midi":76,"time":704.2864583333425,"velocity":0.8031496062992126,"duration":0.87890625},{"name":"E2","midi":40,"time":704.7278645833425,"velocity":0.8031496062992126,"duration":0.87109375},{"name":"B4","midi":71,"time":705.1679687500091,"velocity":0.8031496062992126,"duration":0.21614583333337123},{"name":"C5","midi":72,"time":705.3880208333425,"velocity":0.8031496062992126,"duration":0.21614583333337123},{"name":"D5","midi":74,"time":705.6067708333425,"velocity":0.8031496062992126,"duration":0.21614583333337123},{"name":"B4","midi":71,"time":705.8268229166758,"velocity":0.8031496062992126,"duration":0.21614583333337123},{"name":"E3","midi":52,"time":706.0455729166758,"velocity":0.8031496062992126,"duration":0.21614583333337123},{"name":"G#4","midi":68,"time":706.0455729166758,"velocity":0.8031496062992126,"duration":0.21614583333337123},{"name":"F#3","midi":54,"time":706.2656250000092,"velocity":0.8031496062992126,"duration":0.21614583333337123},{"name":"E4","midi":64,"time":706.2656250000092,"velocity":0.8031496062992126,"duration":0.21614583333337123},{"name":"G#3","midi":56,"time":706.4843750000092,"velocity":0.8031496062992126,"duration":0.21614583333337123},{"name":"F5","midi":77,"time":706.4843750000092,"velocity":0.8031496062992126,"duration":0.8750000000001137},{"name":"A3","midi":57,"time":706.7044270833426,"velocity":0.8031496062992126,"duration":0.21614583333337123},{"name":"B3","midi":59,"time":706.9231770833426,"velocity":0.8031496062992126,"duration":0.21614583333337123},{"name":"A3","midi":57,"time":707.143229166676,"velocity":0.8031496062992126,"duration":0.21614583333337123},{"name":"G#3","midi":56,"time":707.361979166676,"velocity":0.8031496062992126,"duration":0.21614583333337123},{"name":"E5","midi":76,"time":707.361979166676,"velocity":0.8031496062992126,"duration":0.43619791666674246},{"name":"B3","midi":59,"time":707.5820312500093,"velocity":0.8031496062992126,"duration":0.21614583333337123},{"name":"E3","midi":52,"time":707.8007812500093,"velocity":0.8031496062992126,"duration":0.21614583333337123},{"name":"D5","midi":74,"time":707.8007812500093,"velocity":0.8031496062992126,"duration":0.43619791666674246},{"name":"G#3","midi":56,"time":708.0208333333427,"velocity":0.8031496062992126,"duration":0.21614583333337123},{"name":"A3","midi":57,"time":708.2395833333427,"velocity":0.8031496062992126,"duration":0.43619791666674246},{"name":"C5","midi":72,"time":708.2395833333427,"velocity":0.8031496062992126,"duration":0.21614583333337123},{"name":"E5","midi":76,"time":708.4596354166761,"velocity":0.8031496062992126,"duration":0.21614583333337123},{"name":"D3","midi":50,"time":708.6783854166761,"velocity":0.8031496062992126,"duration":0.43619791666674246},{"name":"A5","midi":81,"time":708.6783854166761,"velocity":0.8031496062992126,"duration":0.21614583333337123},{"name":"C5","midi":72,"time":708.8984375000094,"velocity":0.8031496062992126,"duration":0.21614583333337123},{"name":"E3","midi":52,"time":709.1171875000094,"velocity":0.8031496062992126,"duration":0.43619791666674246},{"name":"B4","midi":71,"time":709.1171875000094,"velocity":0.8031496062992126,"duration":0.21614583333337123},{"name":"G#5","midi":80,"time":709.3359375000094,"velocity":0.8031496062992126,"duration":0.21614583333337123},{"name":"A2","midi":45,"time":709.5559895833428,"velocity":0.8031496062992126,"duration":0.43619791666674246},{"name":"A5","midi":81,"time":709.5559895833428,"velocity":0.8031496062992126,"duration":0.21614583333337123},{"name":"E5","midi":76,"time":709.7747395833428,"velocity":0.8031496062992126,"duration":0.21614583333337123},{"name":"A3","midi":57,"time":709.9947916666762,"velocity":0.8031496062992126,"duration":0.43619791666674246},{"name":"C5","midi":72,"time":709.9947916666762,"velocity":0.8031496062992126,"duration":0.21614583333337123},{"name":"A4","midi":69,"time":710.2135416666762,"velocity":0.8031496062992126,"duration":0.21614583333337123},{"name":"G3","midi":55,"time":710.4335937500095,"velocity":0.8031496062992126,"duration":0.43619791666674246},{"name":"C5","midi":72,"time":710.4335937500095,"velocity":0.8031496062992126,"duration":0.21614583333337123},{"name":"E5","midi":76,"time":710.6523437500095,"velocity":0.8031496062992126,"duration":0.21614583333337123},{"name":"F#3","midi":54,"time":710.8723958333429,"velocity":0.8031496062992126,"duration":0.43619791666674246},{"name":"A5","midi":81,"time":710.8723958333429,"velocity":0.8031496062992126,"duration":0.21614583333337123},{"name":"F#5","midi":78,"time":711.0911458333429,"velocity":0.8031496062992126,"duration":0.21614583333337123},{"name":"B2","midi":47,"time":711.3111979166763,"velocity":0.8031496062992126,"duration":0.21614583333337123},{"name":"D#5","midi":75,"time":711.3111979166763,"velocity":0.8031496062992126,"duration":0.21614583333337123},{"name":"C#3","midi":49,"time":711.5299479166763,"velocity":0.8031496062992126,"duration":0.21614583333337123},{"name":"B4","midi":71,"time":711.5299479166763,"velocity":0.8031496062992126,"duration":0.21614583333337123},{"name":"D#3","midi":51,"time":711.7500000000097,"velocity":0.8031496062992126,"duration":0.21614583333337123},{"name":"C5","midi":72,"time":711.7500000000097,"velocity":0.8031496062992126,"duration":0.8750000000001137},{"name":"E3","midi":52,"time":711.9687500000097,"velocity":0.8031496062992126,"duration":0.21614583333337123},{"name":"F#3","midi":54,"time":712.188802083343,"velocity":0.8031496062992126,"duration":0.21614583333337123},{"name":"E3","midi":52,"time":712.407552083343,"velocity":0.8031496062992126,"duration":0.21614583333337123},{"name":"D#3","midi":51,"time":712.6276041666764,"velocity":0.8031496062992126,"duration":0.21614583333337123},{"name":"B4","midi":71,"time":712.6276041666764,"velocity":0.8031496062992126,"duration":0.43619791666674246},{"name":"F#3","midi":54,"time":712.8463541666764,"velocity":0.8031496062992126,"duration":0.21614583333337123},{"name":"B2","midi":47,"time":713.0664062500098,"velocity":0.8031496062992126,"duration":0.21614583333337123},{"name":"A4","midi":69,"time":713.0664062500098,"velocity":0.8031496062992126,"duration":0.43619791666674246},{"name":"D#3","midi":51,"time":713.2851562500098,"velocity":0.8031496062992126,"duration":0.21614583333337123},{"name":"E3","midi":52,"time":713.5052083333431,"velocity":0.8031496062992126,"duration":0.43619791666674246},{"name":"G4","midi":67,"time":713.5052083333431,"velocity":0.8031496062992126,"duration":0.21614583333337123},{"name":"B4","midi":71,"time":713.7239583333431,"velocity":0.8031496062992126,"duration":0.21614583333337123},{"name":"C3","midi":48,"time":713.9440104166765,"velocity":0.8031496062992126,"duration":0.43619791666674246},{"name":"E5","midi":76,"time":713.9440104166765,"velocity":0.8031496062992126,"duration":0.21614583333337123},{"name":"D#5","midi":75,"time":714.1627604166765,"velocity":0.8031496062992126,"duration":0.21614583333337123},{"name":"A2","midi":45,"time":714.3828125000099,"velocity":0.8031496062992126,"duration":0.43619791666674246},{"name":"E5","midi":76,"time":714.3828125000099,"velocity":0.8031496062992126,"duration":0.21614583333337123},{"name":"F#5","midi":78,"time":714.6015625000099,"velocity":0.8031496062992126,"duration":0.21614583333337123},{"name":"B2","midi":47,"time":714.82031250001,"velocity":0.8031496062992126,"duration":0.6549479166667425},{"name":"E5","midi":76,"time":714.82031250001,"velocity":0.8031496062992126,"duration":0.21614583333337123},{"name":"D#5","midi":75,"time":715.0403645833434,"velocity":0.8031496062992126,"duration":0.21614583333337123},{"name":"C#5","midi":73,"time":715.2591145833434,"velocity":0.8031496062992126,"duration":0.21614583333337123},{"name":"B3","midi":59,"time":715.4791666666767,"velocity":0.8031496062992126,"duration":0.21614583333337123},{"name":"B4","midi":71,"time":715.4791666666767,"velocity":0.8031496062992126,"duration":0.21614583333337123},{"name":"A3","midi":57,"time":715.6979166666767,"velocity":0.8031496062992126,"duration":0.21614583333337123},{"name":"B5","midi":83,"time":715.6979166666767,"velocity":0.8031496062992126,"duration":0.5013020833333712},{"name":"F#3","midi":54,"time":715.9179687500101,"velocity":0.8031496062992126,"duration":0.21614583333337123},{"name":"G#3","midi":56,"time":716.1367187500101,"velocity":0.8031496062992126,"duration":0.43619791666674246},{"name":"E5","midi":76,"time":716.3567708333435,"velocity":0.8031496062992126,"duration":0.21614583333337123},{"name":"E3","midi":52,"time":716.5755208333435,"velocity":0.8031496062992126,"duration":0.43619791666674246},{"name":"F5","midi":77,"time":716.5755208333435,"velocity":0.8031496062992126,"duration":0.21614583333337123},{"name":"D5","midi":74,"time":716.7955729166769,"velocity":0.8031496062992126,"duration":0.21614583333337123},{"name":"G#3","midi":56,"time":717.0143229166769,"velocity":0.8031496062992126,"duration":0.43619791666674246},{"name":"E5","midi":76,"time":717.0143229166769,"velocity":0.8031496062992126,"duration":0.21614583333337123},{"name":"B4","midi":71,"time":717.2343750000102,"velocity":0.8031496062992126,"duration":0.21614583333337123},{"name":"A2","midi":45,"time":717.4531250000102,"velocity":0.8031496062992126,"duration":0.6549479166667425},{"name":"D5","midi":74,"time":717.4531250000102,"velocity":0.8031496062992126,"duration":0.21614583333337123},{"name":"C5","midi":72,"time":717.6731770833436,"velocity":0.8031496062992126,"duration":0.21614583333337123},{"name":"B4","midi":71,"time":717.8919270833436,"velocity":0.8031496062992126,"duration":0.21614583333337123},{"name":"A3","midi":57,"time":718.111979166677,"velocity":0.8031496062992126,"duration":0.21614583333337123},{"name":"A4","midi":69,"time":718.111979166677,"velocity":0.8031496062992126,"duration":0.21614583333337123},{"name":"G3","midi":55,"time":718.330729166677,"velocity":0.8031496062992126,"duration":0.21614583333337123},{"name":"A5","midi":81,"time":718.330729166677,"velocity":0.8031496062992126,"duration":0.5481770833333712},{"name":"E3","midi":52,"time":718.5507812500103,"velocity":0.8031496062992126,"duration":0.21614583333337123},{"name":"F#3","midi":54,"time":718.7695312500103,"velocity":0.8031496062992126,"duration":0.43619791666674246},{"name":"D5","midi":74,"time":718.9895833333437,"velocity":0.8031496062992126,"duration":0.21614583333337123},{"name":"D3","midi":50,"time":719.2083333333437,"velocity":0.8031496062992126,"duration":0.43619791666674246},{"name":"D#5","midi":75,"time":719.2083333333437,"velocity":0.8031496062992126,"duration":0.21614583333337123},{"name":"C5","midi":72,"time":719.4283854166771,"velocity":0.8031496062992126,"duration":0.21614583333337123},{"name":"F#3","midi":54,"time":719.6471354166771,"velocity":0.8031496062992126,"duration":0.43619791666674246},{"name":"D5","midi":74,"time":719.6471354166771,"velocity":0.8031496062992126,"duration":0.21614583333337123},{"name":"A4","midi":69,"time":719.8671875000105,"velocity":0.8031496062992126,"duration":0.21614583333337123},{"name":"G2","midi":43,"time":720.0859375000105,"velocity":0.8031496062992126,"duration":0.6549479166667425},{"name":"C5","midi":72,"time":720.0859375000105,"velocity":0.8031496062992126,"duration":0.21614583333337123},{"name":"B4","midi":71,"time":720.3046875000105,"velocity":0.8031496062992126,"duration":0.21614583333337123},{"name":"A4","midi":69,"time":720.5247395833438,"velocity":0.8031496062992126,"duration":0.21614583333337123},{"name":"D3","midi":50,"time":720.7434895833438,"velocity":0.8031496062992126,"duration":0.21614583333337123},{"name":"G4","midi":67,"time":720.7434895833438,"velocity":0.8031496062992126,"duration":0.21614583333337123},{"name":"C3","midi":48,"time":720.9635416666772,"velocity":0.8031496062992126,"duration":0.21614583333337123},{"name":"D5","midi":74,"time":720.9635416666772,"velocity":0.8031496062992126,"duration":0.59375},{"name":"A2","midi":45,"time":721.1822916666772,"velocity":0.8031496062992126,"duration":0.21614583333337123},{"name":"B2","midi":47,"time":721.4023437500106,"velocity":0.8031496062992126,"duration":0.43619791666674246},{"name":"A4","midi":69,"time":721.6210937500106,"velocity":0.8031496062992126,"duration":0.21614583333337123},{"name":"G2","midi":43,"time":721.841145833344,"velocity":0.8031496062992126,"duration":0.640625},{"name":"B4","midi":71,"time":721.841145833344,"velocity":0.8031496062992126,"duration":0.21614583333337123},{"name":"G4","midi":67,"time":722.059895833344,"velocity":0.8031496062992126,"duration":0.21614583333337123},{"name":"A4","midi":69,"time":722.2799479166773,"velocity":0.8031496062992126,"duration":0.21875},{"name":"F4","midi":65,"time":722.501302083344,"velocity":0.8031496062992126,"duration":0.21614583333337123},{"name":"C3","midi":48,"time":722.720052083344,"velocity":0.8031496062992126,"duration":0.43619791666674246},{"name":"E4","midi":64,"time":722.720052083344,"velocity":0.8031496062992126,"duration":0.21614583333337123},{"name":"D5","midi":74,"time":722.9401041666773,"velocity":0.8031496062992126,"duration":0.21614583333337123},{"name":"A2","midi":45,"time":723.1588541666773,"velocity":0.8031496062992126,"duration":0.640625},{"name":"C5","midi":72,"time":723.1588541666773,"velocity":0.8031496062992126,"duration":0.21614583333337123},{"name":"A4","midi":69,"time":723.3789062500107,"velocity":0.8031496062992126,"duration":0.21614583333337123},{"name":"B4","midi":71,"time":723.5976562500107,"velocity":0.8031496062992126,"duration":0.21875},{"name":"G4","midi":67,"time":723.8190104166773,"velocity":0.8031496062992126,"duration":0.21614583333337123},{"name":"D3","midi":50,"time":724.0390625000107,"velocity":0.8031496062992126,"duration":0.43619791666674246},{"name":"F#5","midi":78,"time":724.0390625000107,"velocity":0.8031496062992126,"duration":0.21614583333337123},{"name":"G5","midi":79,"time":724.2578125000107,"velocity":0.8031496062992126,"duration":0.21614583333337123},{"name":"C3","midi":48,"time":724.4778645833441,"velocity":0.8031496062992126,"duration":0.43619791666674246},{"name":"C5","midi":72,"time":724.4778645833441,"velocity":0.8031496062992126,"duration":0.21614583333337123},{"name":"B4","midi":71,"time":724.6966145833441,"velocity":0.8031496062992126,"duration":0.21614583333337123},{"name":"D3","midi":50,"time":724.9166666666774,"velocity":0.8031496062992126,"duration":0.43619791666674246},{"name":"A4","midi":69,"time":724.9166666666774,"velocity":0.8031496062992126,"duration":0.21614583333337123},{"name":"B4","midi":71,"time":725.1354166666774,"velocity":0.8031496062992126,"duration":0.21614583333337123},{"name":"G3","midi":55,"time":725.3554687500108,"velocity":0.8031496062992126,"duration":0.21614583333337123},{"name":"G4","midi":67,"time":725.3554687500108,"velocity":0.8031496062992126,"duration":0.640625},{"name":"A3","midi":57,"time":725.5742187500108,"velocity":0.8031496062992126,"duration":0.21614583333337123},{"name":"B3","midi":59,"time":725.7942708333442,"velocity":0.8031496062992126,"duration":0.21875},{"name":"G3","midi":55,"time":726.0156250000108,"velocity":0.8031496062992126,"duration":0.21614583333337123},{"name":"A3","midi":57,"time":726.2343750000108,"velocity":0.8031496062992126,"duration":0.21614583333337123},{"name":"B4","midi":71,"time":726.2343750000108,"velocity":0.8031496062992126,"duration":0.43619791666674246},{"name":"F#3","midi":54,"time":726.4544270833442,"velocity":0.8031496062992126,"duration":0.21614583333337123},{"name":"G3","midi":55,"time":726.6731770833442,"velocity":0.8031496062992126,"duration":0.43619791666674246},{"name":"E5","midi":76,"time":726.6731770833442,"velocity":0.8031496062992126,"duration":0.21614583333337123},{"name":"F#5","midi":78,"time":726.8932291666775,"velocity":0.8031496062992126,"duration":0.21614583333337123},{"name":"A3","midi":57,"time":727.1119791666775,"velocity":0.8031496062992126,"duration":0.4375},{"name":"G5","midi":79,"time":727.1119791666775,"velocity":0.8031496062992126,"duration":0.4375},{"name":"B3","midi":59,"time":727.5533854166775,"velocity":0.8031496062992126,"duration":0.4375},{"name":"F#5","midi":78,"time":727.5533854166775,"velocity":0.8031496062992126,"duration":0.4375},{"name":"E3","midi":52,"time":727.9934895833442,"velocity":0.8031496062992126,"duration":0.4375},{"name":"G5","midi":79,"time":727.9934895833442,"velocity":0.8031496062992126,"duration":0.4375},{"name":"G3","midi":55,"time":728.4348958333442,"velocity":0.8031496062992126,"duration":0.43619791666674246},{"name":"E5","midi":76,"time":728.4348958333442,"velocity":0.8031496062992126,"duration":0.21614583333337123},{"name":"D#5","midi":75,"time":728.6536458333442,"velocity":0.8031496062992126,"duration":0.21614583333337123},{"name":"B3","midi":59,"time":728.8736979166775,"velocity":0.8031496062992126,"duration":0.43619791666674246},{"name":"E5","midi":76,"time":728.8736979166775,"velocity":0.8031496062992126,"duration":0.21614583333337123},{"name":"F#5","midi":78,"time":729.0924479166775,"velocity":0.8031496062992126,"duration":0.21614583333337123},{"name":"E4","midi":64,"time":729.3125000000109,"velocity":0.8031496062992126,"duration":0.21614583333337123},{"name":"G5","midi":79,"time":729.3125000000109,"velocity":0.8031496062992126,"duration":0.21614583333337123},{"name":"F#4","midi":66,"time":729.5312500000109,"velocity":0.8031496062992126,"duration":0.21614583333337123},{"name":"A5","midi":81,"time":729.5312500000109,"velocity":0.8031496062992126,"duration":0.21614583333337123},{"name":"G4","midi":67,"time":729.7513020833443,"velocity":0.8031496062992126,"duration":0.43619791666674246},{"name":"B5","midi":83,"time":729.7513020833443,"velocity":0.8031496062992126,"duration":0.21614583333337123},{"name":"C6","midi":84,"time":729.9700520833443,"velocity":0.8031496062992126,"duration":0.21614583333337123},{"name":"F#4","midi":66,"time":730.1901041666777,"velocity":0.8031496062992126,"duration":0.43619791666674246},{"name":"B5","midi":83,"time":730.1901041666777,"velocity":0.8031496062992126,"duration":0.21614583333337123},{"name":"A5","midi":81,"time":730.4088541666777,"velocity":0.8031496062992126,"duration":0.21614583333337123},{"name":"G4","midi":67,"time":730.628906250011,"velocity":0.8031496062992126,"duration":0.43619791666674246},{"name":"B5","midi":83,"time":730.628906250011,"velocity":0.8031496062992126,"duration":0.21614583333337123},{"name":"E5","midi":76,"time":730.847656250011,"velocity":0.8031496062992126,"duration":0.21614583333337123},{"name":"F#4","midi":66,"time":731.0677083333444,"velocity":0.8031496062992126,"duration":0.21614583333337123},{"name":"F#5","midi":78,"time":731.0677083333444,"velocity":0.8031496062992126,"duration":0.21614583333337123},{"name":"E4","midi":64,"time":731.2864583333444,"velocity":0.8031496062992126,"duration":0.21614583333337123},{"name":"G5","midi":79,"time":731.2864583333444,"velocity":0.8031496062992126,"duration":0.21614583333337123},{"name":"F#4","midi":66,"time":731.5065104166778,"velocity":0.8031496062992126,"duration":0.21614583333337123},{"name":"A5","midi":81,"time":731.5065104166778,"velocity":0.8031496062992126,"duration":0.21614583333337123},{"name":"G4","midi":67,"time":731.7252604166778,"velocity":0.8031496062992126,"duration":0.21614583333337123},{"name":"B5","midi":83,"time":731.7252604166778,"velocity":0.8031496062992126,"duration":0.21614583333337123},{"name":"A4","midi":69,"time":731.9453125000111,"velocity":0.8031496062992126,"duration":0.4375},{"name":"C6","midi":84,"time":731.9453125000111,"velocity":0.8031496062992126,"duration":0.4375},{"name":"F#4","midi":66,"time":732.3854166666778,"velocity":0.8031496062992126,"duration":0.43619791666674246},{"name":"B5","midi":83,"time":732.3854166666778,"velocity":0.8031496062992126,"duration":0.21614583333337123},{"name":"A5","midi":81,"time":732.6054687500111,"velocity":0.8031496062992126,"duration":0.21614583333337123},{"name":"D4","midi":62,"time":732.8242187500111,"velocity":0.8031496062992126,"duration":0.43619791666674246},{"name":"G5","midi":79,"time":732.8242187500111,"velocity":0.8031496062992126,"duration":0.21614583333337123},{"name":"F#5","midi":78,"time":733.0442708333445,"velocity":0.8031496062992126,"duration":0.21614583333337123},{"name":"G4","midi":67,"time":733.2630208333445,"velocity":0.8031496062992126,"duration":0.4375},{"name":"B5","midi":83,"time":733.2630208333445,"velocity":0.8031496062992126,"duration":0.4375},{"name":"E4","midi":64,"time":733.7044270833445,"velocity":0.8031496062992126,"duration":0.43619791666674246},{"name":"A5","midi":81,"time":733.7044270833445,"velocity":0.8031496062992126,"duration":0.21614583333337123},{"name":"G5","midi":79,"time":733.9231770833445,"velocity":0.8031496062992126,"duration":0.21614583333337123},{"name":"C4","midi":60,"time":734.1432291666779,"velocity":0.8031496062992126,"duration":0.43619791666674246},{"name":"F#5","midi":78,"time":734.1432291666779,"velocity":0.8031496062992126,"duration":0.21614583333337123},{"name":"E5","midi":76,"time":734.3619791666779,"velocity":0.8031496062992126,"duration":0.21614583333337123},{"name":"F#3","midi":54,"time":734.5820312500113,"velocity":0.8031496062992126,"duration":0.43619791666674246},{"name":"A5","midi":81,"time":734.5820312500113,"velocity":0.8031496062992126,"duration":0.21614583333337123},{"name":"G5","midi":79,"time":734.8007812500113,"velocity":0.8031496062992126,"duration":0.21614583333337123},{"name":"E4","midi":64,"time":735.0208333333446,"velocity":0.8031496062992126,"duration":0.43619791666674246},{"name":"F#5","midi":78,"time":735.0208333333446,"velocity":0.8031496062992126,"duration":0.21614583333337123},{"name":"G5","midi":79,"time":735.2395833333446,"velocity":0.8031496062992126,"duration":0.21614583333337123},{"name":"D#4","midi":63,"time":735.459635416678,"velocity":0.8031496062992126,"duration":0.43619791666674246},{"name":"A5","midi":81,"time":735.459635416678,"velocity":0.8031496062992126,"duration":0.21614583333337123},{"name":"F#5","midi":78,"time":735.678385416678,"velocity":0.8031496062992126,"duration":0.21614583333337123},{"name":"E4","midi":64,"time":735.8984375000114,"velocity":0.8031496062992126,"duration":0.43619791666674246},{"name":"G5","midi":79,"time":735.8984375000114,"velocity":0.8031496062992126,"duration":0.21614583333337123},{"name":"B4","midi":71,"time":736.1171875000114,"velocity":0.8031496062992126,"duration":0.21614583333337123},{"name":"E3","midi":52,"time":736.3359375000115,"velocity":0.8031496062992126,"duration":0.43619791666674246},{"name":"C#5","midi":73,"time":736.3359375000115,"velocity":0.8031496062992126,"duration":0.21614583333337123},{"name":"D#5","midi":75,"time":736.5559895833449,"velocity":0.8031496062992126,"duration":0.21614583333337123},{"name":"F#3","midi":54,"time":736.7747395833449,"velocity":0.8031496062992126,"duration":0.43619791666674246},{"name":"E5","midi":76,"time":736.7747395833449,"velocity":0.8031496062992126,"duration":0.21614583333337123},{"name":"D#5","midi":75,"time":736.9947916666782,"velocity":0.8031496062992126,"duration":0.21614583333337123},{"name":"G3","midi":55,"time":737.2135416666782,"velocity":0.8031496062992126,"duration":0.43619791666674246},{"name":"E5","midi":76,"time":737.2135416666782,"velocity":0.8031496062992126,"duration":0.21614583333337123},{"name":"F#5","midi":78,"time":737.4335937500116,"velocity":0.8031496062992126,"duration":0.21614583333337123},{"name":"A3","midi":57,"time":737.6523437500116,"velocity":0.8031496062992126,"duration":0.43619791666674246},{"name":"G5","midi":79,"time":737.6523437500116,"velocity":0.8031496062992126,"duration":0.21614583333337123},{"name":"A5","midi":81,"time":737.872395833345,"velocity":0.8031496062992126,"duration":0.21614583333337123},{"name":"B3","midi":59,"time":738.091145833345,"velocity":0.8031496062992126,"duration":0.43619791666674246},{"name":"G5","midi":79,"time":738.091145833345,"velocity":0.8031496062992126,"duration":0.21614583333337123},{"name":"F#5","midi":78,"time":738.3111979166783,"velocity":0.8031496062992126,"duration":0.21614583333337123},{"name":"E3","midi":52,"time":738.5299479166783,"velocity":0.8031496062992126,"duration":0.43619791666674246},{"name":"G5","midi":79,"time":738.5299479166783,"velocity":0.8031496062992126,"duration":0.21614583333337123},{"name":"F#5","midi":78,"time":738.7500000000117,"velocity":0.8031496062992126,"duration":0.21614583333337123},{"name":"G3","midi":55,"time":738.9687500000117,"velocity":0.8031496062992126,"duration":0.43619791666674246},{"name":"E5","midi":76,"time":738.9687500000117,"velocity":0.8031496062992126,"duration":0.21614583333337123},{"name":"D#5","midi":75,"time":739.1888020833451,"velocity":0.8031496062992126,"duration":0.21614583333337123},{"name":"B3","midi":59,"time":739.4075520833451,"velocity":0.8031496062992126,"duration":0.43619791666674246},{"name":"E5","midi":76,"time":739.4075520833451,"velocity":0.8031496062992126,"duration":0.21614583333337123},{"name":"F#5","midi":78,"time":739.6276041666785,"velocity":0.8031496062992126,"duration":0.21614583333337123},{"name":"E4","midi":64,"time":739.8463541666785,"velocity":0.8031496062992126,"duration":0.21614583333337123},{"name":"G5","midi":79,"time":739.8463541666785,"velocity":0.8031496062992126,"duration":0.21614583333337123},{"name":"F#4","midi":66,"time":740.0664062500118,"velocity":0.8031496062992126,"duration":0.21614583333337123},{"name":"A5","midi":81,"time":740.0664062500118,"velocity":0.8031496062992126,"duration":0.21614583333337123},{"name":"G4","midi":67,"time":740.2851562500118,"velocity":0.8031496062992126,"duration":0.43619791666674246},{"name":"B5","midi":83,"time":740.2851562500118,"velocity":0.8031496062992126,"duration":0.21614583333337123},{"name":"C6","midi":84,"time":740.5052083333452,"velocity":0.8031496062992126,"duration":0.21614583333337123},{"name":"F#4","midi":66,"time":740.7239583333452,"velocity":0.8031496062992126,"duration":0.43619791666674246},{"name":"B5","midi":83,"time":740.7239583333452,"velocity":0.8031496062992126,"duration":0.21614583333337123},{"name":"A5","midi":81,"time":740.9440104166786,"velocity":0.8031496062992126,"duration":0.21614583333337123},{"name":"G4","midi":67,"time":741.1627604166786,"velocity":0.8031496062992126,"duration":0.43619791666674246},{"name":"B5","midi":83,"time":741.1627604166786,"velocity":0.8031496062992126,"duration":0.21614583333337123},{"name":"E5","midi":76,"time":741.3828125000119,"velocity":0.8031496062992126,"duration":0.21614583333337123},{"name":"F#4","midi":66,"time":741.6015625000119,"velocity":0.8031496062992126,"duration":0.21614583333337123},{"name":"F#5","midi":78,"time":741.6015625000119,"velocity":0.8031496062992126,"duration":0.21614583333337123},{"name":"E4","midi":64,"time":741.8203125000119,"velocity":0.8031496062992126,"duration":0.21614583333337123},{"name":"G5","midi":79,"time":741.8203125000119,"velocity":0.8031496062992126,"duration":0.21614583333337123},{"name":"F#4","midi":66,"time":742.0403645833453,"velocity":0.8031496062992126,"duration":0.21614583333337123},{"name":"A5","midi":81,"time":742.0403645833453,"velocity":0.8031496062992126,"duration":0.21614583333337123},{"name":"G4","midi":67,"time":742.2591145833453,"velocity":0.8031496062992126,"duration":0.21614583333337123},{"name":"B5","midi":83,"time":742.2591145833453,"velocity":0.8031496062992126,"duration":0.21614583333337123},{"name":"A4","midi":69,"time":742.4791666666787,"velocity":0.8031496062992126,"duration":0.43619791666674246},{"name":"C6","midi":84,"time":742.4791666666787,"velocity":0.8031496062992126,"duration":0.21614583333337123},{"name":"D5","midi":74,"time":742.6979166666787,"velocity":0.8031496062992126,"duration":0.21614583333337123},{"name":"F#4","midi":66,"time":742.917968750012,"velocity":0.8031496062992126,"duration":0.43619791666674246},{"name":"E5","midi":76,"time":742.917968750012,"velocity":0.8031496062992126,"duration":0.21614583333337123},{"name":"F#5","midi":78,"time":743.136718750012,"velocity":0.8031496062992126,"duration":0.21614583333337123},{"name":"D4","midi":62,"time":743.3567708333454,"velocity":0.8031496062992126,"duration":0.43619791666674246},{"name":"G5","midi":79,"time":743.3567708333454,"velocity":0.8031496062992126,"duration":0.21614583333337123},{"name":"A5","midi":81,"time":743.5755208333454,"velocity":0.8031496062992126,"duration":0.21614583333337123},{"name":"G4","midi":67,"time":743.7955729166788,"velocity":0.8031496062992126,"duration":0.21614583333337123},{"name":"B5","midi":83,"time":743.7955729166788,"velocity":0.8031496062992126,"duration":0.43619791666674246},{"name":"F#4","midi":66,"time":744.0143229166788,"velocity":0.8031496062992126,"duration":0.21614583333337123},{"name":"E4","midi":64,"time":744.2343750000122,"velocity":0.8031496062992126,"duration":0.21614583333337123},{"name":"B4","midi":71,"time":744.2343750000122,"velocity":0.8031496062992126,"duration":0.43619791666674246},{"name":"D4","midi":62,"time":744.4531250000122,"velocity":0.8031496062992126,"duration":0.21614583333337123},{"name":"C4","midi":60,"time":744.6731770833455,"velocity":0.8031496062992126,"duration":0.21614583333337123},{"name":"E5","midi":76,"time":744.6731770833455,"velocity":0.8031496062992126,"duration":0.10677083333337123},{"name":"D#5","midi":75,"time":744.7825520833455,"velocity":0.8031496062992126,"duration":0.10677083333337123},{"name":"B3","midi":59,"time":744.8919270833455,"velocity":0.8031496062992126,"duration":0.21614583333337123},{"name":"E5","midi":76,"time":744.8919270833455,"velocity":0.8031496062992126,"duration":0.43619791666674246},{"name":"C4","midi":60,"time":745.1119791666789,"velocity":0.8031496062992126,"duration":0.21614583333337123},{"name":"A3","midi":57,"time":745.3307291666789,"velocity":0.8031496062992126,"duration":0.21614583333337123},{"name":"F#5","midi":78,"time":745.3307291666789,"velocity":0.8031496062992126,"duration":0.21614583333337123},{"name":"B3","midi":59,"time":745.5507812500123,"velocity":0.8031496062992126,"duration":0.4335937499998863},{"name":"G5","midi":79,"time":745.5507812500123,"velocity":0.8031496062992126,"duration":0.14453125},{"name":"F#5","midi":78,"time":745.6979166666789,"velocity":0.8031496062992126,"duration":0.10677083333337123},{"name":"G5","midi":79,"time":745.7721354166789,"velocity":0.8031496062992126,"duration":0.10546875},{"name":"F#5","midi":78,"time":745.8437500000123,"velocity":0.8031496062992126,"duration":0.10546874999988631},{"name":"G5","midi":79,"time":745.9153645833455,"velocity":0.8031496062992126,"duration":0.10546874999988631},{"name":"B2","midi":47,"time":745.9869791666788,"velocity":0.8031496062992126,"duration":0.43619791666662877},{"name":"F#5","midi":78,"time":745.9869791666788,"velocity":0.8031496062992126,"duration":0.21614583333325754},{"name":"E5","midi":76,"time":746.2057291666787,"velocity":0.8031496062992126,"duration":0.21614583333337123},{"name":"E3","midi":52,"time":746.425781250012,"velocity":0.8031496062992126,"duration":0.4375},{"name":"E5","midi":76,"time":746.425781250012,"velocity":0.8031496062992126,"duration":0.87890625},{"name":"E2","midi":40,"time":746.867187500012,"velocity":0.8031496062992126,"duration":0.4375},{"name":"G#4","midi":68,"time":747.3072916666787,"velocity":0.8031496062992126,"duration":0.21614583333337123},{"name":"E4","midi":64,"time":747.3072916666787,"velocity":0.8031496062992126,"duration":0.43359375},{"name":"B5","midi":83,"time":747.3072916666787,"velocity":0.8031496062992126,"duration":0.43619791666662877},{"name":"A4","midi":69,"time":747.527343750012,"velocity":0.8031496062992126,"duration":0.21614583333325754},{"name":"E4","midi":64,"time":747.7460937500119,"velocity":0.8031496062992126,"duration":3.5013020833335986},{"name":"B4","midi":71,"time":747.7460937500119,"velocity":0.8031496062992126,"duration":0.4375},{"name":"G#5","midi":80,"time":747.7460937500119,"velocity":0.8031496062992126,"duration":0.4375},{"name":"A4","midi":69,"time":748.1875000000119,"velocity":0.8031496062992126,"duration":0.43619791666674246},{"name":"A5","midi":81,"time":748.1875000000119,"velocity":0.8031496062992126,"duration":0.21614583333337123},{"name":"G#5","midi":80,"time":748.4062500000119,"velocity":0.8031496062992126,"duration":0.21614583333337123},{"name":"G#4","midi":68,"time":748.6263020833453,"velocity":0.8031496062992126,"duration":0.43619791666674246},{"name":"F#5","midi":78,"time":748.6263020833453,"velocity":0.8031496062992126,"duration":0.21614583333337123},{"name":"E5","midi":76,"time":748.8450520833453,"velocity":0.8031496062992126,"duration":0.21614583333337123},{"name":"A4","midi":69,"time":749.0651041666787,"velocity":0.8031496062992126,"duration":0.43619791666674246},{"name":"F#5","midi":78,"time":749.0651041666787,"velocity":0.8031496062992126,"duration":0.21614583333337123},{"name":"D#5","midi":75,"time":749.2838541666787,"velocity":0.8031496062992126,"duration":0.21614583333337123},{"name":"G#4","midi":68,"time":749.503906250012,"velocity":0.8031496062992126,"duration":0.21614583333337123},{"name":"E5","midi":76,"time":749.503906250012,"velocity":0.8031496062992126,"duration":0.43619791666674246},{"name":"F#4","midi":66,"time":749.722656250012,"velocity":0.8031496062992126,"duration":0.21614583333337123},{"name":"A4","midi":69,"time":749.9414062500122,"velocity":0.8031496062992126,"duration":0.21614583333337123},{"name":"B4","midi":71,"time":749.9414062500122,"velocity":0.8031496062992126,"duration":0.43619791666674246},{"name":"G#4","midi":68,"time":750.1614583333455,"velocity":0.8031496062992126,"duration":0.21614583333337123},{"name":"A4","midi":69,"time":750.3802083333455,"velocity":0.8031496062992126,"duration":0.4375},{"name":"C#5","midi":73,"time":750.3802083333455,"velocity":0.8031496062992126,"duration":0.4375},{"name":"G#4","midi":68,"time":750.8216145833455,"velocity":0.8031496062992126,"duration":0.43619791666662877},{"name":"B4","midi":71,"time":750.8216145833455,"velocity":0.8031496062992126,"duration":0.43619791666662877},{"name":"F#4","midi":66,"time":751.2604166666788,"velocity":0.8031496062992126,"duration":0.4375},{"name":"D#4","midi":63,"time":751.2604166666788,"velocity":0.8031496062992126,"duration":0.4375},{"name":"A4","midi":69,"time":751.2604166666788,"velocity":0.8031496062992126,"duration":0.4375},{"name":"E4","midi":64,"time":751.7018229166788,"velocity":0.8031496062992126,"duration":0.43359375},{"name":"G#4","midi":68,"time":751.7018229166788,"velocity":0.8031496062992126,"duration":0.21614583333337123},{"name":"F#4","midi":66,"time":751.9205729166788,"velocity":0.8031496062992126,"duration":0.21614583333337123},{"name":"E4","midi":64,"time":752.1406250000122,"velocity":0.8031496062992126,"duration":3.498697916666856},{"name":"F#4","midi":66,"time":752.3593750000122,"velocity":0.8031496062992126,"duration":0.21614583333337123},{"name":"G#4","midi":68,"time":752.5781250000122,"velocity":0.8031496062992126,"duration":0.21614583333337123},{"name":"B5","midi":83,"time":752.5781250000122,"velocity":0.8031496062992126,"duration":0.43619791666674246},{"name":"A4","midi":69,"time":752.7981770833455,"velocity":0.8031496062992126,"duration":0.21614583333337123},{"name":"B4","midi":71,"time":753.0169270833455,"velocity":0.8031496062992126,"duration":0.4375},{"name":"G#5","midi":80,"time":753.0169270833455,"velocity":0.8031496062992126,"duration":0.4375},{"name":"A4","midi":69,"time":753.4583333333455,"velocity":0.8031496062992126,"duration":0.43619791666674246},{"name":"A5","midi":81,"time":753.4583333333455,"velocity":0.8031496062992126,"duration":0.21614583333337123},{"name":"G#5","midi":80,"time":753.6770833333455,"velocity":0.8031496062992126,"duration":0.21614583333337123},{"name":"G#4","midi":68,"time":753.8971354166789,"velocity":0.8031496062992126,"duration":0.43619791666674246},{"name":"F#5","midi":78,"time":753.8971354166789,"velocity":0.8031496062992126,"duration":0.21614583333337123},{"name":"E5","midi":76,"time":754.1158854166789,"velocity":0.8031496062992126,"duration":0.21614583333337123},{"name":"A4","midi":69,"time":754.3359375000123,"velocity":0.8031496062992126,"duration":0.43619791666674246},{"name":"F#5","midi":78,"time":754.3359375000123,"velocity":0.8031496062992126,"duration":0.21614583333337123},{"name":"D#5","midi":75,"time":754.5546875000123,"velocity":0.8031496062992126,"duration":0.21614583333337123},{"name":"G#4","midi":68,"time":754.7747395833456,"velocity":0.8031496062992126,"duration":0.21614583333337123},{"name":"E5","midi":76,"time":754.7747395833456,"velocity":0.8031496062992126,"duration":0.43619791666674246},{"name":"F#4","midi":66,"time":754.9934895833456,"velocity":0.8031496062992126,"duration":0.21614583333337123},{"name":"A4","midi":69,"time":755.213541666679,"velocity":0.8031496062992126,"duration":0.21614583333337123},{"name":"B4","midi":71,"time":755.213541666679,"velocity":0.8031496062992126,"duration":0.43619791666674246},{"name":"G#4","midi":68,"time":755.432291666679,"velocity":0.8031496062992126,"duration":0.21614583333337123},{"name":"A3","midi":57,"time":755.6523437500124,"velocity":0.8031496062992126,"duration":0.4375},{"name":"C#5","midi":73,"time":755.6523437500124,"velocity":0.8031496062992126,"duration":0.4375},{"name":"A4","midi":69,"time":755.6523437500124,"velocity":0.8031496062992126,"duration":0.4375},{"name":"B3","midi":59,"time":756.092447916679,"velocity":0.8031496062992126,"duration":0.4375},{"name":"B4","midi":71,"time":756.092447916679,"velocity":0.8031496062992126,"duration":0.4375},{"name":"G#4","midi":68,"time":756.092447916679,"velocity":0.8031496062992126,"duration":0.4375},{"name":"B2","midi":47,"time":756.533854166679,"velocity":0.8031496062992126,"duration":0.4375},{"name":"F#4","midi":66,"time":756.533854166679,"velocity":0.8031496062992126,"duration":0.4375},{"name":"A4","midi":69,"time":756.533854166679,"velocity":0.8031496062992126,"duration":0.4375},{"name":"E3","midi":52,"time":756.975260416679,"velocity":0.8031496062992126,"duration":0.4375},{"name":"G#4","midi":68,"time":756.975260416679,"velocity":0.8031496062992126,"duration":0.87890625},{"name":"E4","midi":64,"time":756.975260416679,"velocity":0.8031496062992126,"duration":0.87890625},{"name":"B3","midi":59,"time":757.4153645833456,"velocity":0.8031496062992126,"duration":0.4375},{"name":"E4","midi":64,"time":757.8567708333456,"velocity":0.8031496062992126,"duration":0.4375},{"name":"G#5","midi":80,"time":757.8567708333456,"velocity":0.8031496062992126,"duration":0.4375},{"name":"B4","midi":71,"time":757.8567708333456,"velocity":0.8031496062992126,"duration":0.4375},{"name":"D#4","midi":63,"time":758.2968750000123,"velocity":0.8031496062992126,"duration":0.4375},{"name":"B4","midi":71,"time":758.2968750000123,"velocity":0.8031496062992126,"duration":0.87109375},{"name":"F#5","midi":78,"time":758.2968750000123,"velocity":0.8031496062992126,"duration":0.4375},{"name":"E4","midi":64,"time":758.7382812500123,"velocity":0.8031496062992126,"duration":0.43619791666674246},{"name":"E5","midi":76,"time":758.7382812500123,"velocity":0.8031496062992126,"duration":0.21614583333337123},{"name":"D#5","midi":75,"time":758.9570312500123,"velocity":0.8031496062992126,"duration":0.21614583333337123},{"name":"F#4","midi":66,"time":759.1770833333456,"velocity":0.8031496062992126,"duration":0.43619791666662877},{"name":"C#5","midi":73,"time":759.1770833333456,"velocity":0.8031496062992126,"duration":0.21614583333337123},{"name":"B4","midi":71,"time":759.3958333333456,"velocity":0.8031496062992126,"duration":0.4335937499998863},{"name":"G#4","midi":68,"time":759.6158854166789,"velocity":0.8031496062992126,"duration":0.43619791666662877},{"name":"E5","midi":76,"time":759.6158854166789,"velocity":0.8031496062992126,"duration":0.21614583333325754},{"name":"C#5","midi":73,"time":759.8346354166788,"velocity":0.8031496062992126,"duration":0.21614583333337123},{"name":"A#4","midi":70,"time":760.0546875000122,"velocity":0.8031496062992126,"duration":0.4375},{"name":"C#5","midi":73,"time":760.0546875000122,"velocity":0.8031496062992126,"duration":0.8723958333332575},{"name":"F#5","midi":78,"time":760.0546875000122,"velocity":0.8031496062992126,"duration":0.4375},{"name":"F#4","midi":66,"time":760.4947916666788,"velocity":0.8031496062992126,"duration":0.4375},{"name":"E5","midi":76,"time":760.4947916666788,"velocity":0.8031496062992126,"duration":0.4375},{"name":"B4","midi":71,"time":760.9361979166788,"velocity":0.8031496062992126,"duration":0.4375},{"name":"D#5","midi":75,"time":760.9361979166788,"velocity":0.8031496062992126,"duration":0.4375},{"name":"A#4","midi":70,"time":761.3763020833454,"velocity":0.8031496062992126,"duration":0.43619791666674246},{"name":"E5","midi":76,"time":761.3763020833454,"velocity":0.8031496062992126,"duration":0.21614583333337123},{"name":"D#5","midi":75,"time":761.5963541666788,"velocity":0.8031496062992126,"duration":0.21614583333337123},{"name":"G#4","midi":68,"time":761.8151041666788,"velocity":0.8031496062992126,"duration":0.43619791666674246},{"name":"C#5","midi":73,"time":761.8151041666788,"velocity":0.8031496062992126,"duration":0.21614583333337123},{"name":"B4","midi":71,"time":762.0351562500122,"velocity":0.8031496062992126,"duration":0.21614583333337123},{"name":"F#4","midi":66,"time":762.2539062500122,"velocity":0.8031496062992126,"duration":0.43619791666662877},{"name":"C#5","midi":73,"time":762.2539062500122,"velocity":0.8031496062992126,"duration":0.4375},{"name":"A#4","midi":70,"time":762.2539062500122,"velocity":0.8031496062992126,"duration":0.4375},{"name":"F#4","midi":66,"time":762.6953125000122,"velocity":0.8031496062992126,"duration":0.43359375},{"name":"G#4","midi":68,"time":762.9140625000122,"velocity":0.8031496062992126,"duration":0.21614583333337123},{"name":"F#4","midi":66,"time":763.1341145833455,"velocity":0.8031496062992126,"duration":1.313802083333485},{"name":"A#4","midi":70,"time":763.1341145833455,"velocity":0.8031496062992126,"duration":0.21614583333337123},{"name":"B4","midi":71,"time":763.3528645833455,"velocity":0.8031496062992126,"duration":0.21614583333337123},{"name":"G#4","midi":68,"time":763.3528645833455,"velocity":0.8031496062992126,"duration":0.21614583333337123},{"name":"C#5","midi":73,"time":763.5729166666789,"velocity":0.8031496062992126,"duration":0.21614583333337123},{"name":"A#4","midi":70,"time":763.5729166666789,"velocity":0.8031496062992126,"duration":0.21614583333337123},{"name":"D#5","midi":75,"time":763.7916666666789,"velocity":0.8031496062992126,"duration":0.21614583333337123},{"name":"G#4","midi":68,"time":764.0117187500123,"velocity":0.8031496062992126,"duration":0.21614583333337123},{"name":"E5","midi":76,"time":764.0117187500123,"velocity":0.8031496062992126,"duration":0.21614583333337123},{"name":"C#5","midi":73,"time":764.2304687500123,"velocity":0.8031496062992126,"duration":0.21614583333337123},{"name":"E4","midi":64,"time":764.4505208333456,"velocity":0.8031496062992126,"duration":0.4375},{"name":"G#5","midi":80,"time":764.4505208333456,"velocity":0.8031496062992126,"duration":0.4375},{"name":"A#4","midi":70,"time":764.4505208333456,"velocity":0.8031496062992126,"duration":0.4375},{"name":"D#4","midi":63,"time":764.8906250000123,"velocity":0.8031496062992126,"duration":0.4375},{"name":"F#5","midi":78,"time":764.8906250000123,"velocity":0.8031496062992126,"duration":0.4375},{"name":"B4","midi":71,"time":764.8906250000123,"velocity":0.8031496062992126,"duration":0.87109375},{"name":"G#4","midi":68,"time":765.3320312500123,"velocity":0.8031496062992126,"duration":0.21614583333337123},{"name":"E5","midi":76,"time":765.3320312500123,"velocity":0.8031496062992126,"duration":0.21614583333337123},{"name":"F#4","midi":66,"time":765.5507812500123,"velocity":0.8031496062992126,"duration":0.21614583333337123},{"name":"D#5","midi":75,"time":765.5507812500123,"velocity":0.8031496062992126,"duration":0.21614583333337123},{"name":"E4","midi":64,"time":765.7708333333456,"velocity":0.8031496062992126,"duration":0.21614583333337123},{"name":"C#5","midi":73,"time":765.7708333333456,"velocity":0.8031496062992126,"duration":0.21614583333337123},{"name":"D#4","midi":63,"time":765.9895833333456,"velocity":0.8031496062992126,"duration":0.21614583333337123},{"name":"B4","midi":71,"time":765.9895833333456,"velocity":0.8031496062992126,"duration":0.21614583333337123},{"name":"C#4","midi":61,"time":766.209635416679,"velocity":0.8031496062992126,"duration":0.21614583333337123},{"name":"E5","midi":76,"time":766.209635416679,"velocity":0.8031496062992126,"duration":0.21614583333337123},{"name":"B3","midi":59,"time":766.428385416679,"velocity":0.8031496062992126,"duration":0.21614583333337123},{"name":"F#5","midi":78,"time":766.428385416679,"velocity":0.8031496062992126,"duration":0.21614583333337123},{"name":"F#4","midi":66,"time":766.6484375000124,"velocity":0.8031496062992126,"duration":0.43619791666674246},{"name":"D#5","midi":75,"time":766.6484375000124,"velocity":0.8031496062992126,"duration":0.14973958333337123},{"name":"A#4","midi":70,"time":766.6484375000124,"velocity":0.8031496062992126,"duration":0.6380208333333712},{"name":"C#5","midi":73,"time":766.7942708333458,"velocity":0.8031496062992126,"duration":0.10677083333337123},{"name":"D#5","midi":75,"time":766.8932291666791,"velocity":0.8031496062992126,"duration":0.10546875},{"name":"C#5","midi":73,"time":766.9895833333458,"velocity":0.8031496062992126,"duration":0.10546875},{"name":"F#3","midi":54,"time":767.0872395833458,"velocity":0.8031496062992126,"duration":0.43619791666662877},{"name":"D#5","midi":75,"time":767.0872395833458,"velocity":0.8031496062992126,"duration":0.10546875},{"name":"C#5","midi":73,"time":767.1835937500124,"velocity":0.8031496062992126,"duration":0.1328125},{"name":"B4","midi":71,"time":767.3059895833458,"velocity":0.8031496062992126,"duration":0.21614583333325754},{"name":"B3","midi":59,"time":767.526041666679,"velocity":0.8031496062992126,"duration":0.4375},{"name":"B4","midi":71,"time":767.526041666679,"velocity":0.8031496062992126,"duration":0.87890625},{"name":"C#4","midi":61,"time":767.9661458333456,"velocity":0.8031496062992126,"duration":0.4375},{"name":"D#4","midi":63,"time":768.4075520833456,"velocity":0.8031496062992126,"duration":0.4375},{"name":"B4","midi":71,"time":768.4075520833456,"velocity":0.8031496062992126,"duration":0.4375},{"name":"F#4","midi":66,"time":768.4075520833456,"velocity":0.8031496062992126,"duration":0.4375},{"name":"E4","midi":64,"time":768.8489583333456,"velocity":0.8031496062992126,"duration":0.87109375},{"name":"G#4","midi":68,"time":768.8489583333456,"velocity":0.8031496062992126,"duration":0.4375},{"name":"E3","midi":52,"time":769.2890625000123,"velocity":0.8031496062992126,"duration":0.43619791666674246},{"name":"A4","midi":69,"time":769.2890625000123,"velocity":0.8031496062992126,"duration":0.21614583333337123},{"name":"G#4","midi":68,"time":769.5091145833456,"velocity":0.8031496062992126,"duration":0.21614583333337123},{"name":"F#3","midi":54,"time":769.7278645833456,"velocity":0.8031496062992126,"duration":0.43619791666674246},{"name":"F#4","midi":66,"time":769.7278645833456,"velocity":0.8031496062992126,"duration":0.21614583333337123},{"name":"E4","midi":64,"time":769.947916666679,"velocity":0.8031496062992126,"duration":1.7565104166666288},{"name":"G#3","midi":56,"time":770.166666666679,"velocity":0.8031496062992126,"duration":0.43619791666674246},{"name":"D5","midi":74,"time":770.166666666679,"velocity":0.8031496062992126,"duration":0.21614583333337123},{"name":"B4","midi":71,"time":770.3867187500124,"velocity":0.8031496062992126,"duration":0.21614583333337123},{"name":"A3","midi":57,"time":770.6054687500124,"velocity":0.8031496062992126,"duration":0.4375},{"name":"C#5","midi":73,"time":770.6054687500124,"velocity":0.8031496062992126,"duration":0.4375},{"name":"B3","midi":59,"time":771.0468750000124,"velocity":0.8031496062992126,"duration":0.4375},{"name":"D#5","midi":75,"time":771.0468750000124,"velocity":0.8031496062992126,"duration":0.4375},{"name":"C#4","midi":61,"time":771.486979166679,"velocity":0.8031496062992126,"duration":1.3138020833330302},{"name":"E5","midi":76,"time":771.486979166679,"velocity":0.8031496062992126,"duration":0.4335937499998863},{"name":"F#4","midi":66,"time":771.7070312500123,"velocity":0.8031496062992126,"duration":0.21614583333325754},{"name":"G#4","midi":68,"time":771.9257812500122,"velocity":0.8031496062992126,"duration":0.43359375},{"name":"F#5","midi":78,"time":771.9257812500122,"velocity":0.8031496062992126,"duration":0.21614583333337123},{"name":"E5","midi":76,"time":772.1458333333455,"velocity":0.8031496062992126,"duration":0.21614583333325754},{"name":"A#4","midi":70,"time":772.3645833333454,"velocity":0.8031496062992126,"duration":0.43359375},{"name":"D#5","midi":75,"time":772.3645833333454,"velocity":0.8031496062992126,"duration":0.21614583333337123},{"name":"C#5","midi":73,"time":772.5846354166788,"velocity":0.8031496062992126,"duration":0.21614583333325754},{"name":"D#4","midi":63,"time":772.8033854166787,"velocity":0.8031496062992126,"duration":0.43619791666674246},{"name":"A5","midi":81,"time":772.8033854166787,"velocity":0.8031496062992126,"duration":0.21614583333337123},{"name":"B4","midi":71,"time":772.8033854166787,"velocity":0.8031496062992126,"duration":0.87109375},{"name":"F#5","midi":78,"time":773.023437500012,"velocity":0.8031496062992126,"duration":0.21614583333337123},{"name":"E4","midi":64,"time":773.242187500012,"velocity":0.8031496062992126,"duration":0.4375},{"name":"G#5","midi":80,"time":773.242187500012,"velocity":0.8031496062992126,"duration":0.38932291666662877},{"name":"A3","midi":57,"time":773.683593750012,"velocity":0.8031496062992126,"duration":0.44401041666662877},{"name":"A4","midi":69,"time":773.683593750012,"velocity":0.8031496062992126,"duration":0.6510416666666288},{"name":"F#5","midi":78,"time":773.683593750012,"velocity":0.8031496062992126,"duration":0.66796875},{"name":"B3","midi":59,"time":774.1302083333453,"velocity":0.8031496062992126,"duration":1.7929687499998863},{"name":"F#4","midi":66,"time":774.3541666666787,"velocity":0.8031496062992126,"duration":0.22135416666662877},{"name":"D#5","midi":75,"time":774.3541666666787,"velocity":0.8031496062992126,"duration":0.22135416666662877},{"name":"G#4","midi":68,"time":774.5768229166787,"velocity":0.8031496062992126,"duration":0.22135416666662877},{"name":"E5","midi":76,"time":774.5768229166787,"velocity":0.8031496062992126,"duration":0.44270833333325754},{"name":"E4","midi":64,"time":774.8007812500119,"velocity":0.8031496062992126,"duration":0.22135416666662877},{"name":"A4","midi":69,"time":775.0247395833452,"velocity":0.8031496062992126,"duration":0.22135416666662877},{"name":"C#5","midi":73,"time":775.0247395833452,"velocity":0.8031496062992126,"duration":0.6549479166666288},{"name":"C#4","midi":61,"time":775.2486979166785,"velocity":0.8031496062992126,"duration":0.22135416666662877},{"name":"D#4","midi":63,"time":775.4713541666785,"velocity":0.8031496062992126,"duration":0.44921875},{"name":"A5","midi":81,"time":775.6992187500118,"velocity":0.8031496062992126,"duration":0.22265625},{"name":"C#4","midi":61,"time":775.9257812500118,"velocity":0.8031496062992126,"duration":0.45052083333325754},{"name":"E4","midi":64,"time":775.9257812500118,"velocity":0.8031496062992126,"duration":0.4492187499998863},{"name":"B4","midi":71,"time":775.9257812500118,"velocity":0.8031496062992126,"duration":0.22526041666662877},{"name":"G#5","midi":80,"time":776.1536458333451,"velocity":0.8031496062992126,"duration":0.22265625},{"name":"D#4","midi":63,"time":776.3789062500117,"velocity":0.8031496062992126,"duration":0.45052083333325754},{"name":"F#4","midi":66,"time":776.3789062500117,"velocity":0.8031496062992126,"duration":0.4492187499998863},{"name":"A4","midi":69,"time":776.3789062500117,"velocity":0.8031496062992126,"duration":0.22526041666662877},{"name":"F#5","midi":78,"time":776.606770833345,"velocity":0.8031496062992126,"duration":0.22265625},{"name":"E4","midi":64,"time":776.8320312500116,"velocity":0.8031496062992126,"duration":0.48046875},{"name":"G#4","midi":68,"time":776.8320312500116,"velocity":0.8031496062992126,"duration":0.48046875},{"name":"A3","midi":57,"time":777.3151041666782,"velocity":0.8031496062992126,"duration":0.5143229166666288},{"name":"A4","midi":69,"time":777.3151041666782,"velocity":0.8031496062992126,"duration":0.5143229166666288},{"name":"F#4","midi":66,"time":777.3151041666782,"velocity":0.8031496062992126,"duration":0.5143229166666288},{"name":"B3","midi":59,"time":777.8320312500115,"velocity":0.8031496062992126,"duration":0.5729166666666288},{"name":"F#4","midi":66,"time":777.8320312500115,"velocity":0.8031496062992126,"duration":0.5729166666666288},{"name":"D#4","midi":63,"time":777.8320312500115,"velocity":0.8031496062992126,"duration":0.5729166666666288},{"name":"E3","midi":52,"time":778.4075520833447,"velocity":0.8031496062992126,"duration":3.0625},{"name":"E4","midi":64,"time":778.4075520833447,"velocity":0.8031496062992126,"duration":3.0625},{"name":"B4","midi":71,"time":781.8671875000114,"velocity":0.8031496062992126,"duration":0.18880208333337123},{"name":"C5","midi":72,"time":782.0598958333447,"velocity":0.8031496062992126,"duration":0.18880208333337123},{"name":"B4","midi":71,"time":782.2513020833447,"velocity":0.8031496062992126,"duration":0.18880208333337123},{"name":"A4","midi":69,"time":782.4427083333447,"velocity":0.8031496062992126,"duration":0.18880208333337123},{"name":"G4","midi":67,"time":782.6354166666781,"velocity":0.8031496062992126,"duration":0.18880208333337123},{"name":"F#4","midi":66,"time":782.8268229166781,"velocity":0.8031496062992126,"duration":0.18880208333337123},{"name":"E4","midi":64,"time":783.0195312500115,"velocity":0.8031496062992126,"duration":0.38151041666662877},{"name":"E5","midi":76,"time":783.4036458333447,"velocity":0.8031496062992126,"duration":0.38151041666662877},{"name":"D#5","midi":75,"time":783.7864583333447,"velocity":0.8031496062992126,"duration":0.38151041666662877},{"name":"E4","midi":64,"time":784.170572916678,"velocity":0.8031496062992126,"duration":0.38151041666662877},{"name":"D5","midi":74,"time":784.5546875000113,"velocity":0.8031496062992126,"duration":0.38151041666662877},{"name":"C#5","midi":73,"time":784.9388020833445,"velocity":0.8031496062992126,"duration":0.38151041666662877},{"name":"E4","midi":64,"time":785.3229166666778,"velocity":0.8031496062992126,"duration":0.38151041666662877},{"name":"C5","midi":72,"time":785.707031250011,"velocity":0.8031496062992126,"duration":0.38151041666662877},{"name":"B4","midi":71,"time":786.089843750011,"velocity":0.8031496062992126,"duration":0.38151041666662877},{"name":"E4","midi":64,"time":786.4739583333443,"velocity":0.8031496062992126,"duration":0.18880208333337123},{"name":"A#4","midi":70,"time":786.4739583333443,"velocity":0.8031496062992126,"duration":0.38151041666674246},{"name":"G4","midi":67,"time":786.6666666666777,"velocity":0.8031496062992126,"duration":0.18880208333337123},{"name":"F#4","midi":66,"time":786.8580729166777,"velocity":0.8031496062992126,"duration":0.18880208333337123},{"name":"B4","midi":71,"time":786.8580729166777,"velocity":0.8031496062992126,"duration":0.38151041666674246},{"name":"E4","midi":64,"time":787.050781250011,"velocity":0.8031496062992126,"duration":0.18880208333337123},{"name":"D4","midi":62,"time":787.242187500011,"velocity":0.8031496062992126,"duration":0.18880208333337123},{"name":"C#5","midi":73,"time":787.242187500011,"velocity":0.8031496062992126,"duration":0.38151041666674246},{"name":"C#4","midi":61,"time":787.433593750011,"velocity":0.8031496062992126,"duration":0.18880208333337123},{"name":"B3","midi":59,"time":787.6263020833444,"velocity":0.8031496062992126,"duration":0.38151041666674246},{"name":"D5","midi":74,"time":787.6263020833444,"velocity":0.8031496062992126,"duration":0.18880208333337123},{"name":"G5","midi":79,"time":787.8177083333444,"velocity":0.8031496062992126,"duration":0.18880208333337123},{"name":"B4","midi":71,"time":788.0104166666778,"velocity":0.8031496062992126,"duration":0.38151041666674246},{"name":"F5","midi":77,"time":788.0104166666778,"velocity":0.8031496062992126,"duration":0.18880208333337123},{"name":"C#5","midi":73,"time":788.2018229166778,"velocity":0.8031496062992126,"duration":0.18880208333337123},{"name":"A#4","midi":70,"time":788.3932291666779,"velocity":0.8031496062992126,"duration":0.38151041666674246},{"name":"F#5","midi":78,"time":788.3932291666779,"velocity":0.8031496062992126,"duration":0.18880208333337123},{"name":"E5","midi":76,"time":788.5859375000113,"velocity":0.8031496062992126,"duration":0.18880208333337123},{"name":"B3","midi":59,"time":788.7773437500113,"velocity":0.8031496062992126,"duration":0.38151041666674246},{"name":"D#5","midi":75,"time":788.7773437500113,"velocity":0.8031496062992126,"duration":0.18880208333337123},{"name":"F#5","midi":78,"time":788.9700520833446,"velocity":0.8031496062992126,"duration":0.18880208333337123},{"name":"A4","midi":69,"time":789.1614583333446,"velocity":0.8031496062992126,"duration":0.38151041666674246},{"name":"D#5","midi":75,"time":789.1614583333446,"velocity":0.8031496062992126,"duration":0.18880208333337123},{"name":"B4","midi":71,"time":789.354166666678,"velocity":0.8031496062992126,"duration":0.18880208333337123},{"name":"G#4","midi":68,"time":789.545572916678,"velocity":0.8031496062992126,"duration":0.38151041666674246},{"name":"E5","midi":76,"time":789.545572916678,"velocity":0.8031496062992126,"duration":0.18880208333337123},{"name":"D5","midi":74,"time":789.736979166678,"velocity":0.8031496062992126,"duration":0.18880208333337123},{"name":"B3","midi":59,"time":789.9296875000114,"velocity":0.8031496062992126,"duration":0.38151041666674246},{"name":"C#5","midi":73,"time":789.9296875000114,"velocity":0.8031496062992126,"duration":0.18880208333337123},{"name":"E5","midi":76,"time":790.1210937500114,"velocity":0.8031496062992126,"duration":0.18880208333337123},{"name":"G4","midi":67,"time":790.3138020833447,"velocity":0.8031496062992126,"duration":0.38151041666674246},{"name":"C#5","midi":73,"time":790.3138020833447,"velocity":0.8031496062992126,"duration":0.18880208333337123},{"name":"A#4","midi":70,"time":790.5052083333447,"velocity":0.8031496062992126,"duration":0.18880208333337123},{"name":"F#4","midi":66,"time":790.6966145833449,"velocity":0.8031496062992126,"duration":0.38151041666674246},{"name":"D5","midi":74,"time":790.6966145833449,"velocity":0.8031496062992126,"duration":0.18880208333337123},{"name":"B4","midi":71,"time":790.8893229166782,"velocity":0.8031496062992126,"duration":0.18880208333337123},{"name":"E4","midi":64,"time":791.0807291666782,"velocity":0.8031496062992126,"duration":0.18880208333337123},{"name":"C5","midi":72,"time":791.0807291666782,"velocity":0.8031496062992126,"duration":0.38151041666674246},{"name":"A4","midi":69,"time":791.2734375000116,"velocity":0.8031496062992126,"duration":0.18880208333337123},{"name":"F#4","midi":66,"time":791.4648437500116,"velocity":0.8031496062992126,"duration":0.18880208333337123},{"name":"A5","midi":81,"time":791.4648437500116,"velocity":0.8031496062992126,"duration":0.38151041666674246},{"name":"D4","midi":62,"time":791.657552083345,"velocity":0.8031496062992126,"duration":0.18880208333337123},{"name":"G4","midi":67,"time":791.848958333345,"velocity":0.8031496062992126,"duration":0.18880208333337123},{"name":"B4","midi":71,"time":791.848958333345,"velocity":0.8031496062992126,"duration":0.7656250000001137},{"name":"F#4","midi":66,"time":792.040364583345,"velocity":0.8031496062992126,"duration":0.18880208333337123},{"name":"E4","midi":64,"time":792.2330729166783,"velocity":0.8031496062992126,"duration":0.18880208333337123},{"name":"G4","midi":67,"time":792.4244791666783,"velocity":0.8031496062992126,"duration":0.18880208333337123},{"name":"E4","midi":64,"time":792.6171875000117,"velocity":0.8031496062992126,"duration":0.18880208333337123},{"name":"G5","midi":79,"time":792.6171875000117,"velocity":0.8031496062992126,"duration":0.38151041666674246},{"name":"C#4","midi":61,"time":792.8085937500117,"velocity":0.8031496062992126,"duration":0.18880208333337123},{"name":"F#4","midi":66,"time":793.0013020833451,"velocity":0.8031496062992126,"duration":0.18880208333337123},{"name":"A4","midi":69,"time":793.0013020833451,"velocity":0.8031496062992126,"duration":0.7656250000001137},{"name":"E4","midi":64,"time":793.1927083333451,"velocity":0.8031496062992126,"duration":0.18880208333337123},{"name":"D#4","midi":63,"time":793.3841145833451,"velocity":0.8031496062992126,"duration":0.18880208333337123},{"name":"F#4","midi":66,"time":793.5768229166785,"velocity":0.8031496062992126,"duration":0.18880208333337123},{"name":"D#4","midi":63,"time":793.7682291666786,"velocity":0.8031496062992126,"duration":0.18880208333337123},{"name":"F#5","midi":78,"time":793.7682291666786,"velocity":0.8031496062992126,"duration":0.38151041666674246},{"name":"B3","midi":59,"time":793.9609375000119,"velocity":0.8031496062992126,"duration":0.18880208333337123},{"name":"E4","midi":64,"time":794.1523437500119,"velocity":0.8031496062992126,"duration":0.18880208333337123},{"name":"G4","midi":67,"time":794.1523437500119,"velocity":0.8031496062992126,"duration":0.5729166666667425},{"name":"D4","midi":62,"time":794.3437500000119,"velocity":0.8031496062992126,"duration":0.18880208333337123},{"name":"C4","midi":60,"time":794.5364583333453,"velocity":0.8031496062992126,"duration":0.38151041666674246},{"name":"B4","midi":71,"time":794.7278645833453,"velocity":0.8031496062992126,"duration":0.18880208333337123},{"name":"B4","midi":71,"time":794.9205729166787,"velocity":0.8031496062992126,"duration":0.38151041666662877},{"name":"D#5","midi":75,"time":794.9205729166787,"velocity":0.8031496062992126,"duration":0.18880208333337123},{"name":"E5","midi":76,"time":795.1119791666787,"velocity":0.8031496062992126,"duration":0.38151041666662877},{"name":"A4","midi":69,"time":795.3046875000119,"velocity":0.8031496062992126,"duration":0.38151041666674246},{"name":"F#5","midi":78,"time":795.4960937500119,"velocity":0.8031496062992126,"duration":0.18880208333337123},{"name":"B3","midi":59,"time":795.687500000012,"velocity":0.8031496062992126,"duration":0.18880208333337123},{"name":"B4","midi":71,"time":795.687500000012,"velocity":0.8031496062992126,"duration":0.38151041666674246},{"name":"D#5","midi":75,"time":795.687500000012,"velocity":0.8031496062992126,"duration":0.38151041666674246},{"name":"C4","midi":60,"time":795.8802083333454,"velocity":0.8031496062992126,"duration":0.18880208333337123},{"name":"B3","midi":59,"time":796.0716145833454,"velocity":0.8031496062992126,"duration":0.18880208333337123},{"name":"E5","midi":76,"time":796.0716145833454,"velocity":0.8031496062992126,"duration":0.38151041666674246},{"name":"C#5","midi":73,"time":796.0716145833454,"velocity":0.8031496062992126,"duration":0.38151041666674246},{"name":"A3","midi":57,"time":796.2643229166788,"velocity":0.8031496062992126,"duration":0.18880208333337123},{"name":"G3","midi":55,"time":796.4557291666788,"velocity":0.8031496062992126,"duration":0.18880208333337123},{"name":"D#5","midi":75,"time":796.4557291666788,"velocity":0.8031496062992126,"duration":0.38151041666674246},{"name":"F#5","midi":78,"time":796.4557291666788,"velocity":0.8031496062992126,"duration":0.38151041666674246},{"name":"F#3","midi":54,"time":796.6484375000122,"velocity":0.8031496062992126,"duration":0.18880208333337123},{"name":"E3","midi":52,"time":796.8398437500122,"velocity":0.8031496062992126,"duration":0.38151041666674246},{"name":"G5","midi":79,"time":796.8398437500122,"velocity":0.8031496062992126,"duration":0.37890625},{"name":"E5","midi":76,"time":796.8398437500122,"velocity":0.8031496062992126,"duration":0.18880208333337123},{"name":"C5","midi":72,"time":797.0312500000122,"velocity":0.8031496062992126,"duration":0.18880208333337123},{"name":"E4","midi":64,"time":797.2239583333455,"velocity":0.8031496062992126,"duration":0.38151041666674246},{"name":"A#4","midi":70,"time":797.2239583333455,"velocity":0.8031496062992126,"duration":0.18880208333337123},{"name":"F#5","midi":78,"time":797.2239583333455,"velocity":0.8031496062992126,"duration":0.37890625},{"name":"F#4","midi":66,"time":797.4153645833455,"velocity":0.8031496062992126,"duration":0.18880208333337123},{"name":"D#4","midi":63,"time":797.6080729166789,"velocity":0.8031496062992126,"duration":0.38151041666674246},{"name":"B4","midi":71,"time":797.6080729166789,"velocity":0.8031496062992126,"duration":0.18880208333337123},{"name":"A4","midi":69,"time":797.7994791666789,"velocity":0.8031496062992126,"duration":0.18880208333337123},{"name":"E3","midi":52,"time":797.990885416679,"velocity":0.8031496062992126,"duration":0.38151041666662877},{"name":"F5","midi":77,"time":797.990885416679,"velocity":0.8031496062992126,"duration":0.37890625},{"name":"G#4","midi":68,"time":797.990885416679,"velocity":0.8031496062992126,"duration":0.18880208333337123},{"name":"B4","midi":71,"time":798.1835937500124,"velocity":0.8031496062992126,"duration":0.18880208333325754},{"name":"D4","midi":62,"time":798.3750000000123,"velocity":0.8031496062992126,"duration":0.38151041666662877},{"name":"E5","midi":76,"time":798.3750000000123,"velocity":0.8031496062992126,"duration":0.37890625},{"name":"G#4","midi":68,"time":798.3750000000123,"velocity":0.8031496062992126,"duration":0.18880208333337123},{"name":"E4","midi":64,"time":798.5677083333456,"velocity":0.8031496062992126,"duration":0.18880208333325754},{"name":"C#4","midi":61,"time":798.7591145833455,"velocity":0.8031496062992126,"duration":0.38151041666674246},{"name":"A4","midi":69,"time":798.7591145833455,"velocity":0.8031496062992126,"duration":0.18880208333337123},{"name":"G4","midi":67,"time":798.9518229166789,"velocity":0.8031496062992126,"duration":0.18880208333337123},{"name":"E3","midi":52,"time":799.1432291666789,"velocity":0.8031496062992126,"duration":0.38151041666674246},{"name":"D#5","midi":75,"time":799.1432291666789,"velocity":0.8031496062992126,"duration":0.55859375},{"name":"F#4","midi":66,"time":799.1432291666789,"velocity":0.8031496062992126,"duration":0.18880208333337123},{"name":"A4","midi":69,"time":799.3346354166789,"velocity":0.8031496062992126,"duration":0.18880208333337123},{"name":"C4","midi":60,"time":799.5273437500123,"velocity":0.8031496062992126,"duration":0.38151041666662877},{"name":"F#4","midi":66,"time":799.5273437500123,"velocity":0.8031496062992126,"duration":0.18880208333325754},{"name":"D#4","midi":63,"time":799.7187500000122,"velocity":0.8031496062992126,"duration":0.18880208333337123},{"name":"B3","midi":59,"time":799.9114583333455,"velocity":0.8031496062992126,"duration":0.38151041666674246},{"name":"G4","midi":67,"time":799.9114583333455,"velocity":0.8031496062992126,"duration":0.18880208333337123},{"name":"E5","midi":76,"time":799.9114583333455,"velocity":0.8031496062992126,"duration":0.7591145833334849},{"name":"E4","midi":64,"time":800.1028645833455,"velocity":0.8031496062992126,"duration":0.18880208333337123},{"name":"A3","midi":57,"time":800.2942708333456,"velocity":0.8031496062992126,"duration":0.18880208333337123},{"name":"F#4","midi":66,"time":800.2942708333456,"velocity":0.8031496062992126,"duration":0.38151041666674246},{"name":"D4","midi":62,"time":800.486979166679,"velocity":0.8031496062992126,"duration":0.18880208333337123},{"name":"B3","midi":59,"time":800.678385416679,"velocity":0.8031496062992126,"duration":0.18880208333337123},{"name":"F4","midi":65,"time":800.678385416679,"velocity":0.8031496062992126,"duration":0.38151041666674246},{"name":"D5","midi":74,"time":800.678385416679,"velocity":0.8031496062992126,"duration":0.7591145833333712},{"name":"G3","midi":55,"time":800.8710937500124,"velocity":0.8031496062992126,"duration":0.18880208333337123},{"name":"C4","midi":60,"time":801.0625000000124,"velocity":0.8031496062992126,"duration":0.18880208333337123},{"name":"E4","midi":64,"time":801.0625000000124,"velocity":0.8031496062992126,"duration":0.7591145833332575},{"name":"B3","midi":59,"time":801.2552083333458,"velocity":0.8031496062992126,"duration":0.18880208333325754},{"name":"A3","midi":57,"time":801.4466145833456,"velocity":0.8031496062992126,"duration":0.18880208333337123},{"name":"C5","midi":72,"time":801.4466145833456,"velocity":0.8031496062992126,"duration":1.1484375000001137},{"name":"C4","midi":60,"time":801.6380208333456,"velocity":0.8031496062992126,"duration":0.18880208333337123},{"name":"A3","midi":57,"time":801.830729166679,"velocity":0.8031496062992126,"duration":0.18880208333337123},{"name":"E4","midi":64,"time":801.830729166679,"velocity":0.8031496062992126,"duration":0.38151041666674246},{"name":"F#3","midi":54,"time":802.022135416679,"velocity":0.8031496062992126,"duration":0.18880208333337123},{"name":"B3","midi":59,"time":802.2148437500124,"velocity":0.8031496062992126,"duration":0.18880208333337123},{"name":"D#4","midi":63,"time":802.2148437500124,"velocity":0.8031496062992126,"duration":0.7591145833333712},{"name":"A3","midi":57,"time":802.4062500000124,"velocity":0.8031496062992126,"duration":0.18880208333337123},{"name":"G#3","midi":56,"time":802.5989583333458,"velocity":0.8031496062992126,"duration":0.18880208333337123},{"name":"B4","midi":71,"time":802.5989583333458,"velocity":0.8031496062992126,"duration":0.7591145833333712},{"name":"B3","midi":59,"time":802.7903645833458,"velocity":0.8031496062992126,"duration":0.18880208333337123},{"name":"G#3","midi":56,"time":802.9817708333458,"velocity":0.8031496062992126,"duration":0.18880208333337123},{"name":"D4","midi":62,"time":802.9817708333458,"velocity":0.8031496062992126,"duration":0.38151041666674246},{"name":"E3","midi":52,"time":803.1744791666791,"velocity":0.8031496062992126,"duration":0.18880208333337123},{"name":"A3","midi":57,"time":803.3658854166791,"velocity":0.8031496062992126,"duration":0.18880208333337123},{"name":"C#4","midi":61,"time":803.3658854166791,"velocity":0.8031496062992126,"duration":0.38151041666674246},{"name":"G3","midi":55,"time":803.5585937500125,"velocity":0.8031496062992126,"duration":0.18880208333337123},{"name":"F#3","midi":54,"time":803.7500000000125,"velocity":0.8031496062992126,"duration":0.55859375},{"name":"C4","midi":60,"time":803.7500000000125,"velocity":0.8031496062992126,"duration":0.37890625},{"name":"A4","midi":69,"time":803.7500000000125,"velocity":0.8031496062992126,"duration":0.18880208333337123},{"name":"E4","midi":64,"time":803.9414062500125,"velocity":0.8031496062992126,"duration":0.18880208333337123},{"name":"E4","midi":64,"time":804.1341145833459,"velocity":0.8031496062992126,"duration":0.3815104166665151},{"name":"A4","midi":69,"time":804.1341145833459,"velocity":0.8031496062992126,"duration":0.18880208333325754},{"name":"C5","midi":72,"time":804.3255208333458,"velocity":0.8031496062992126,"duration":0.3789062499998863},{"name":"D#4","midi":63,"time":804.518229166679,"velocity":0.8031496062992126,"duration":0.38151041666674246},{"name":"F#4","midi":66,"time":804.518229166679,"velocity":0.8031496062992126,"duration":0.37890625},{"name":"B4","midi":71,"time":804.709635416679,"velocity":0.8031496062992126,"duration":0.18880208333337123},{"name":"E4","midi":64,"time":804.9023437500124,"velocity":0.8031496062992126,"duration":0.38151041666674246},{"name":"G4","midi":67,"time":804.9023437500124,"velocity":0.8031496062992126,"duration":0.18880208333337123},{"name":"B4","midi":71,"time":805.0937500000124,"velocity":0.8031496062992126,"duration":0.18880208333337123},{"name":"E3","midi":52,"time":805.2851562500125,"velocity":0.8031496062992126,"duration":0.38151041666674246},{"name":"E5","midi":76,"time":805.2851562500125,"velocity":0.8031496062992126,"duration":0.18880208333337123},{"name":"G5","midi":79,"time":805.4778645833459,"velocity":0.8031496062992126,"duration":0.18880208333337123},{"name":"D3","midi":50,"time":805.6692708333459,"velocity":0.8031496062992126,"duration":0.38151041666674246},{"name":"F#5","midi":78,"time":805.6692708333459,"velocity":0.8031496062992126,"duration":0.18880208333337123},{"name":"B4","midi":71,"time":805.8619791666792,"velocity":0.8031496062992126,"duration":0.18880208333337123},{"name":"C3","midi":48,"time":806.0533854166792,"velocity":0.8031496062992126,"duration":0.38151041666674246},{"name":"E5","midi":76,"time":806.0533854166792,"velocity":0.8031496062992126,"duration":0.18880208333337123},{"name":"C5","midi":72,"time":806.2460937500126,"velocity":0.8031496062992126,"duration":0.18880208333337123},{"name":"C4","midi":60,"time":806.4375000000126,"velocity":0.8031496062992126,"duration":0.38151041666674246},{"name":"A4","midi":69,"time":806.4375000000126,"velocity":0.8031496062992126,"duration":0.18880208333337123},{"name":"F#4","midi":66,"time":806.6289062500126,"velocity":0.8031496062992126,"duration":0.18880208333337123},{"name":"B3","midi":59,"time":806.821614583346,"velocity":0.8031496062992126,"duration":0.38151041666674246},{"name":"G4","midi":67,"time":806.821614583346,"velocity":0.8031496062992126,"duration":0.18880208333337123},{"name":"D5","midi":74,"time":807.013020833346,"velocity":0.8031496062992126,"duration":0.18880208333337123},{"name":"A3","midi":57,"time":807.2057291666794,"velocity":0.8031496062992126,"duration":0.38151041666674246},{"name":"C4","midi":60,"time":807.2057291666794,"velocity":0.8031496062992126,"duration":0.18880208333337123},{"name":"F#4","midi":66,"time":807.3971354166794,"velocity":0.8031496062992126,"duration":0.18880208333337123},{"name":"A2","midi":45,"time":807.5885416666795,"velocity":0.8031496062992126,"duration":0.38151041666674246},{"name":"A4","midi":69,"time":807.5885416666795,"velocity":0.8031496062992126,"duration":0.18880208333337123},{"name":"C5","midi":72,"time":807.7812500000128,"velocity":0.8031496062992126,"duration":0.18880208333337123},{"name":"G2","midi":43,"time":807.9726562500128,"velocity":0.8031496062992126,"duration":0.38151041666674246},{"name":"B4","midi":71,"time":807.9726562500128,"velocity":0.8031496062992126,"duration":0.18880208333337123},{"name":"E4","midi":64,"time":808.1653645833462,"velocity":0.8031496062992126,"duration":0.18880208333337123},{"name":"F#2","midi":42,"time":808.3567708333462,"velocity":0.8031496062992126,"duration":0.38151041666674246},{"name":"A4","midi":69,"time":808.3567708333462,"velocity":0.8031496062992126,"duration":0.18880208333337123},{"name":"F#4","midi":66,"time":808.5494791666796,"velocity":0.8031496062992126,"duration":0.18880208333337123},{"name":"F#3","midi":54,"time":808.7408854166796,"velocity":0.8031496062992126,"duration":0.38151041666674246},{"name":"D#4","midi":63,"time":808.7408854166796,"velocity":0.8031496062992126,"duration":0.18880208333337123},{"name":"B3","midi":59,"time":808.9322916666796,"velocity":0.8031496062992126,"duration":0.18880208333337123},{"name":"E3","midi":52,"time":809.125000000013,"velocity":0.8031496062992126,"duration":0.38151041666674246},{"name":"C4","midi":60,"time":809.125000000013,"velocity":0.8031496062992126,"duration":0.18880208333337123},{"name":"A4","midi":69,"time":809.316406250013,"velocity":0.8031496062992126,"duration":0.18880208333337123},{"name":"D#3","midi":51,"time":809.5091145833463,"velocity":0.8031496062992126,"duration":0.9596354166667425},{"name":"B3","midi":59,"time":809.5091145833463,"velocity":0.8031496062992126,"duration":0.18880208333337123},{"name":"D#4","midi":63,"time":809.7005208333463,"velocity":0.8031496062992126,"duration":0.18880208333337123},{"name":"F#4","midi":66,"time":809.8919270833463,"velocity":0.8031496062992126,"duration":0.18880208333337123},{"name":"A4","midi":69,"time":810.0846354166797,"velocity":0.8031496062992126,"duration":0.18880208333337123},{"name":"G4","midi":67,"time":810.2760416666797,"velocity":0.8031496062992126,"duration":0.18880208333337123},{"name":"F#4","midi":66,"time":810.4687500000131,"velocity":0.8031496062992126,"duration":0.18880208333337123},{"name":"E3","midi":52,"time":810.6601562500131,"velocity":0.8031496062992126,"duration":0.18880208333337123},{"name":"G4","midi":67,"time":810.6601562500131,"velocity":0.8031496062992126,"duration":0.5729166666667425},{"name":"G3","midi":55,"time":810.8528645833464,"velocity":0.8031496062992126,"duration":0.18880208333337123},{"name":"B3","midi":59,"time":811.0442708333464,"velocity":0.8031496062992126,"duration":0.18880208333337123},{"name":"D4","midi":62,"time":811.2356770833464,"velocity":0.8031496062992126,"duration":0.18880208333337123},{"name":"F#4","midi":66,"time":811.2356770833464,"velocity":0.8031496062992126,"duration":0.18880208333337123},{"name":"C#4","midi":61,"time":811.4283854166798,"velocity":0.8031496062992126,"duration":0.18880208333337123},{"name":"E4","midi":64,"time":811.4283854166798,"velocity":0.8031496062992126,"duration":0.18880208333337123},{"name":"B3","midi":59,"time":811.6197916666798,"velocity":0.8031496062992126,"duration":0.18880208333337123},{"name":"D4","midi":62,"time":811.6197916666798,"velocity":0.8031496062992126,"duration":0.18880208333337123},{"name":"A#3","midi":58,"time":811.8125000000132,"velocity":0.8031496062992126,"duration":1.1484375000002274},{"name":"C#4","midi":61,"time":811.8125000000132,"velocity":0.8031496062992126,"duration":0.38151041666674246},{"name":"F#5","midi":78,"time":811.8125000000132,"velocity":0.8031496062992126,"duration":0.18880208333337123},{"name":"G5","midi":79,"time":812.0039062500132,"velocity":0.8031496062992126,"duration":0.18880208333337123},{"name":"D4","midi":62,"time":812.1966145833466,"velocity":0.8031496062992126,"duration":0.38151041666674246},{"name":"F#5","midi":78,"time":812.1966145833466,"velocity":0.8031496062992126,"duration":0.18880208333337123},{"name":"E5","midi":76,"time":812.3880208333466,"velocity":0.8031496062992126,"duration":0.18880208333337123},{"name":"E4","midi":64,"time":812.5794270833467,"velocity":0.8031496062992126,"duration":0.38151041666674246},{"name":"D5","midi":74,"time":812.5794270833467,"velocity":0.8031496062992126,"duration":0.18880208333337123},{"name":"C#5","midi":73,"time":812.77213541668,"velocity":0.8031496062992126,"duration":0.18880208333337123},{"name":"D#4","midi":63,"time":812.96354166668,"velocity":0.8031496062992126,"duration":0.38151041666662877},{"name":"A3","midi":57,"time":812.96354166668,"velocity":0.8031496062992126,"duration":0.38151041666662877},{"name":"B4","midi":71,"time":812.96354166668,"velocity":0.8031496062992126,"duration":0.37890625},{"name":"G#5","midi":80,"time":813.1562500000134,"velocity":0.8031496062992126,"duration":0.18880208333325754},{"name":"G#3","midi":56,"time":813.3476562500133,"velocity":0.8031496062992126,"duration":0.38151041666674246},{"name":"F5","midi":77,"time":813.3476562500133,"velocity":0.8031496062992126,"duration":0.18880208333337123},{"name":"B5","midi":83,"time":813.3476562500133,"velocity":0.8031496062992126,"duration":0.37890625},{"name":"C#5","midi":73,"time":813.5390625000133,"velocity":0.8031496062992126,"duration":0.18880208333337123},{"name":"F#3","midi":54,"time":813.7317708333467,"velocity":0.8031496062992126,"duration":0.7656250000001137},{"name":"F#5","midi":78,"time":813.7317708333467,"velocity":0.8031496062992126,"duration":0.18880208333337123},{"name":"A#5","midi":82,"time":813.7317708333467,"velocity":0.8031496062992126,"duration":0.37890625},{"name":"E5","midi":76,"time":813.9231770833467,"velocity":0.8031496062992126,"duration":0.18880208333337123},{"name":"B4","midi":71,"time":814.11588541668,"velocity":0.8031496062992126,"duration":0.37890625},{"name":"D#5","midi":75,"time":814.30729166668,"velocity":0.8031496062992126,"duration":0.18880208333337123},{"name":"B2","midi":47,"time":814.5000000000134,"velocity":0.8031496062992126,"duration":0.38151041666674246},{"name":"D#5","midi":75,"time":814.5000000000134,"velocity":0.8031496062992126,"duration":0.18880208333337123},{"name":"A5","midi":81,"time":814.5000000000134,"velocity":0.8031496062992126,"duration":0.37890625},{"name":"B4","midi":71,"time":814.6914062500134,"velocity":0.8031496062992126,"duration":0.18880208333337123},{"name":"C#3","midi":49,"time":814.8828125000135,"velocity":0.8031496062992126,"duration":0.18880208333337123},{"name":"G#5","midi":80,"time":814.8828125000135,"velocity":0.8031496062992126,"duration":0.37890625},{"name":"E5","midi":76,"time":814.8828125000135,"velocity":0.8031496062992126,"duration":0.18880208333337123},{"name":"D3","midi":50,"time":815.0755208333469,"velocity":0.8031496062992126,"duration":0.18880208333325754},{"name":"D5","midi":74,"time":815.0755208333469,"velocity":0.8031496062992126,"duration":0.18880208333325754},{"name":"E3","midi":52,"time":815.2669270833468,"velocity":0.8031496062992126,"duration":0.38151041666662877},{"name":"C#5","midi":73,"time":815.2669270833468,"velocity":0.8031496062992126,"duration":0.18880208333337123},{"name":"B4","midi":71,"time":815.2669270833468,"velocity":0.8031496062992126,"duration":0.37890625},{"name":"E5","midi":76,"time":815.4596354166802,"velocity":0.8031496062992126,"duration":0.18880208333325754},{"name":"F#3","midi":54,"time":815.65104166668,"velocity":0.8031496062992126,"duration":0.38151041666662877},{"name":"G5","midi":79,"time":815.65104166668,"velocity":0.8031496062992126,"duration":0.37890625},{"name":"C#5","midi":73,"time":815.65104166668,"velocity":0.8031496062992126,"duration":0.18880208333337123},{"name":"A#4","midi":70,"time":815.8437500000134,"velocity":0.8031496062992126,"duration":0.18880208333325754},{"name":"G#3","midi":56,"time":816.0351562500133,"velocity":0.8031496062992126,"duration":0.38151041666674246},{"name":"D5","midi":74,"time":816.0351562500133,"velocity":0.8031496062992126,"duration":0.18880208333337123},{"name":"F#5","midi":78,"time":816.0351562500133,"velocity":0.8031496062992126,"duration":0.37890625},{"name":"B4","midi":71,"time":816.2265625000133,"velocity":0.8031496062992126,"duration":0.18880208333337123},{"name":"A#3","midi":58,"time":816.4192708333467,"velocity":0.8031496062992126,"duration":0.18880208333337123},{"name":"E5","midi":76,"time":816.4192708333467,"velocity":0.8031496062992126,"duration":0.7591145833333712},{"name":"G4","midi":67,"time":816.4192708333467,"velocity":0.8031496062992126,"duration":0.38151041666674246},{"name":"C#4","midi":61,"time":816.6106770833467,"velocity":0.8031496062992126,"duration":0.18880208333337123},{"name":"A#3","midi":58,"time":816.80338541668,"velocity":0.8031496062992126,"duration":0.18880208333337123},{"name":"F#4","midi":66,"time":816.80338541668,"velocity":0.8031496062992126,"duration":0.7591145833333712},{"name":"F#3","midi":54,"time":816.99479166668,"velocity":0.8031496062992126,"duration":0.18880208333337123},{"name":"B3","midi":59,"time":817.18619791668,"velocity":0.8031496062992126,"duration":0.18880208333337123},{"name":"D#5","midi":75,"time":817.18619791668,"velocity":0.8031496062992126,"duration":0.38151041666674246},{"name":"A3","midi":57,"time":817.3789062500134,"velocity":0.8031496062992126,"duration":0.18880208333337123},{"name":"G#3","midi":56,"time":817.5703125000134,"velocity":0.8031496062992126,"duration":0.18880208333337123},{"name":"F4","midi":65,"time":817.5703125000134,"velocity":0.8031496062992126,"duration":0.38151041666674246},{"name":"D5","midi":74,"time":817.5703125000134,"velocity":0.8031496062992126,"duration":0.7591145833333712},{"name":"B3","midi":59,"time":817.7630208333468,"velocity":0.8031496062992126,"duration":0.18880208333337123},{"name":"G#3","midi":56,"time":817.9544270833468,"velocity":0.8031496062992126,"duration":0.18880208333337123},{"name":"E4","midi":64,"time":817.9544270833468,"velocity":0.8031496062992126,"duration":0.7591145833332575},{"name":"E3","midi":52,"time":818.1471354166802,"velocity":0.8031496062992126,"duration":0.18880208333325754},{"name":"A3","midi":57,"time":818.33854166668,"velocity":0.8031496062992126,"duration":0.18880208333337123},{"name":"C#5","midi":73,"time":818.33854166668,"velocity":0.8031496062992126,"duration":0.38151041666674246},{"name":"G3","midi":55,"time":818.52994791668,"velocity":0.8031496062992126,"duration":0.18880208333337123},{"name":"F#3","midi":54,"time":818.7226562500134,"velocity":0.8031496062992126,"duration":0.18880208333337123},{"name":"C5","midi":72,"time":818.7226562500134,"velocity":0.8031496062992126,"duration":0.7591145833333712},{"name":"D#4","midi":63,"time":818.7226562500134,"velocity":0.8031496062992126,"duration":0.38151041666674246},{"name":"A3","midi":57,"time":818.9140625000134,"velocity":0.8031496062992126,"duration":0.18880208333337123},{"name":"F#3","midi":54,"time":819.1067708333468,"velocity":0.8031496062992126,"duration":0.18880208333337123},{"name":"D4","midi":62,"time":819.1067708333468,"velocity":0.8031496062992126,"duration":0.7591145833333712},{"name":"D3","midi":50,"time":819.2981770833468,"velocity":0.8031496062992126,"duration":0.18880208333337123},{"name":"G3","midi":55,"time":819.4895833333468,"velocity":0.8031496062992126,"duration":0.18880208333337123},{"name":"B4","midi":71,"time":819.4895833333468,"velocity":0.8031496062992126,"duration":0.7591145833333712},{"name":"F#3","midi":54,"time":819.6822916666802,"velocity":0.8031496062992126,"duration":0.18880208333337123},{"name":"E3","midi":52,"time":819.8736979166802,"velocity":0.8031496062992126,"duration":0.18880208333337123},{"name":"C#4","midi":61,"time":819.8736979166802,"velocity":0.8031496062992126,"duration":0.38151041666662877},{"name":"G3","midi":55,"time":820.0664062500135,"velocity":0.8031496062992126,"duration":0.18880208333325754},{"name":"E3","midi":52,"time":820.2578125000134,"velocity":0.8031496062992126,"duration":0.18880208333337123},{"name":"A#4","midi":70,"time":820.2578125000134,"velocity":0.8031496062992126,"duration":0.38151041666674246},{"name":"F#4","midi":66,"time":820.2578125000134,"velocity":0.8031496062992126,"duration":0.38151041666674246},{"name":"C#3","midi":49,"time":820.4505208333468,"velocity":0.8031496062992126,"duration":0.18880208333337123},{"name":"F#3","midi":54,"time":820.6419270833468,"velocity":0.8031496062992126,"duration":0.18880208333337123},{"name":"A#4","midi":70,"time":820.6419270833468,"velocity":0.8031496062992126,"duration":0.38151041666674246},{"name":"C#5","midi":73,"time":820.6419270833468,"velocity":0.8031496062992126,"duration":0.38151041666674246},{"name":"E3","midi":52,"time":820.8333333333468,"velocity":0.8031496062992126,"duration":0.18880208333337123},{"name":"D3","midi":50,"time":821.0260416666802,"velocity":0.8031496062992126,"duration":0.38151041666674246},{"name":"D5","midi":74,"time":821.0260416666802,"velocity":0.8031496062992126,"duration":0.18880208333337123},{"name":"B4","midi":71,"time":821.0260416666802,"velocity":0.8031496062992126,"duration":0.55859375},{"name":"F#5","midi":78,"time":821.2174479166802,"velocity":0.8031496062992126,"duration":0.18880208333337123},{"name":"B2","midi":47,"time":821.4101562500135,"velocity":0.8031496062992126,"duration":1.1484375},{"name":"D5","midi":74,"time":821.4101562500135,"velocity":0.8031496062992126,"duration":0.18880208333325754},{"name":"B4","midi":71,"time":821.6015625000134,"velocity":0.8031496062992126,"duration":0.18880208333337123},{"name":"B3","midi":59,"time":821.7942708333468,"velocity":0.8031496062992126,"duration":1.1484375},{"name":"D#5","midi":75,"time":821.7942708333468,"velocity":0.8031496062992126,"duration":0.18880208333337123},{"name":"A4","midi":69,"time":821.7942708333468,"velocity":0.8031496062992126,"duration":0.37890625},{"name":"F#5","midi":78,"time":821.9856770833468,"velocity":0.8031496062992126,"duration":0.18880208333337123},{"name":"E5","midi":76,"time":822.1770833333468,"velocity":0.8031496062992126,"duration":0.18880208333337123},{"name":"G4","midi":67,"time":822.1770833333468,"velocity":0.8031496062992126,"duration":0.55859375},{"name":"G5","midi":79,"time":822.3697916666802,"velocity":0.8031496062992126,"duration":0.18880208333337123},{"name":"B2","midi":47,"time":822.5611979166802,"velocity":0.8031496062992126,"duration":1.1484375},{"name":"E5","midi":76,"time":822.5611979166802,"velocity":0.8031496062992126,"duration":0.18880208333325754},{"name":"B4","midi":71,"time":822.7539062500134,"velocity":0.8031496062992126,"duration":0.18880208333337123},{"name":"B3","midi":59,"time":822.9453125000134,"velocity":0.8031496062992126,"duration":1.1484375},{"name":"E5","midi":76,"time":822.9453125000134,"velocity":0.8031496062992126,"duration":0.18880208333337123},{"name":"D5","midi":74,"time":822.9453125000134,"velocity":0.8031496062992126,"duration":0.37890625},{"name":"G#5","midi":80,"time":823.1367187500134,"velocity":0.8031496062992126,"duration":0.18880208333337123},{"name":"E5","midi":76,"time":823.3294270833468,"velocity":0.8031496062992126,"duration":0.18880208333337123},{"name":"C#5","midi":73,"time":823.3294270833468,"velocity":0.8031496062992126,"duration":0.55859375},{"name":"A5","midi":81,"time":823.5208333333468,"velocity":0.8031496062992126,"duration":0.18880208333337123},{"name":"B2","midi":47,"time":823.7135416666802,"velocity":0.8031496062992126,"duration":0.7591145833332575},{"name":"E5","midi":76,"time":823.7135416666802,"velocity":0.8031496062992126,"duration":0.18880208333325754},{"name":"C#5","midi":73,"time":823.90494791668,"velocity":0.8031496062992126,"duration":0.18880208333337123},{"name":"B3","midi":59,"time":824.0976562500134,"velocity":0.8031496062992126,"duration":0.5729166666666288},{"name":"E5","midi":76,"time":824.0976562500134,"velocity":0.8031496062992126,"duration":0.18880208333337123},{"name":"C#5","midi":73,"time":824.0976562500134,"velocity":0.8031496062992126,"duration":0.37890625},{"name":"A#5","midi":82,"time":824.2890625000134,"velocity":0.8031496062992126,"duration":0.18880208333337123},{"name":"D5","midi":74,"time":824.4804687500134,"velocity":0.8031496062992126,"duration":0.7591145833332575},{"name":"B5","midi":83,"time":824.4804687500134,"velocity":0.8031496062992126,"duration":0.38151041666662877},{"name":"C4","midi":60,"time":824.6731770833467,"velocity":0.8031496062992126,"duration":0.18880208333337123},{"name":"B3","midi":59,"time":824.8645833333467,"velocity":0.8031496062992126,"duration":0.18880208333337123},{"name":"B4","midi":71,"time":824.8645833333467,"velocity":0.8031496062992126,"duration":0.38151041666662877},{"name":"A3","midi":57,"time":825.05729166668,"velocity":0.8031496062992126,"duration":0.18880208333325754},{"name":"G3","midi":55,"time":825.2486979166799,"velocity":0.8031496062992126,"duration":0.18880208333337123},{"name":"A5","midi":81,"time":825.2486979166799,"velocity":0.8031496062992126,"duration":0.38151041666674246},{"name":"D#5","midi":75,"time":825.2486979166799,"velocity":0.8031496062992126,"duration":0.38151041666674246},{"name":"F#3","midi":54,"time":825.4414062500133,"velocity":0.8031496062992126,"duration":0.18880208333337123},{"name":"E3","midi":52,"time":825.6328125000133,"velocity":0.8031496062992126,"duration":0.38151041666674246},{"name":"G5","midi":79,"time":825.6328125000133,"velocity":0.8031496062992126,"duration":0.55859375},{"name":"E5","midi":76,"time":825.8242187500133,"velocity":0.8031496062992126,"duration":0.18880208333337123},{"name":"E4","midi":64,"time":826.0169270833467,"velocity":0.8031496062992126,"duration":0.38151041666662877},{"name":"C#5","midi":73,"time":826.0169270833467,"velocity":0.8031496062992126,"duration":0.18880208333325754},{"name":"A#4","midi":70,"time":826.2083333333466,"velocity":0.8031496062992126,"duration":0.18880208333337123},{"name":"D#4","midi":63,"time":826.4010416666799,"velocity":0.8031496062992126,"duration":0.38151041666662877},{"name":"F#5","midi":78,"time":826.4010416666799,"velocity":0.8031496062992126,"duration":0.27994791666662877},{"name":"A4","midi":69,"time":826.5924479166799,"velocity":0.8031496062992126,"duration":0.18880208333325754},{"name":"E3","midi":52,"time":826.7838541666799,"velocity":0.8031496062992126,"duration":0.38151041666674246},{"name":"F5","midi":77,"time":826.7838541666799,"velocity":0.8031496062992126,"duration":0.55859375},{"name":"D5","midi":74,"time":826.9765625000133,"velocity":0.8031496062992126,"duration":0.18880208333337123},{"name":"D4","midi":62,"time":827.1679687500133,"velocity":0.8031496062992126,"duration":0.38151041666662877},{"name":"B4","midi":71,"time":827.1679687500133,"velocity":0.8031496062992126,"duration":0.18880208333325754},{"name":"G#4","midi":68,"time":827.3606770833466,"velocity":0.8031496062992126,"duration":0.18880208333337123},{"name":"C#4","midi":61,"time":827.5520833333466,"velocity":0.8031496062992126,"duration":0.38151041666674246},{"name":"E5","midi":76,"time":827.5520833333466,"velocity":0.8031496062992126,"duration":0.27994791666674246},{"name":"G4","midi":67,"time":827.7447916666799,"velocity":0.8031496062992126,"duration":0.18880208333337123},{"name":"E3","midi":52,"time":827.9361979166799,"velocity":0.8031496062992126,"duration":0.38151041666674246},{"name":"D#5","midi":75,"time":827.9361979166799,"velocity":0.8031496062992126,"duration":0.55859375},{"name":"C5","midi":72,"time":828.1276041666799,"velocity":0.8031496062992126,"duration":0.18880208333337123},{"name":"C4","midi":60,"time":828.3203125000133,"velocity":0.8031496062992126,"duration":0.38151041666662877},{"name":"A4","midi":69,"time":828.3203125000133,"velocity":0.8031496062992126,"duration":0.18880208333325754},{"name":"F#4","midi":66,"time":828.5117187500132,"velocity":0.8031496062992126,"duration":0.18880208333337123},{"name":"B3","midi":59,"time":828.7044270833466,"velocity":0.8031496062992126,"duration":0.38151041666662877},{"name":"D5","midi":74,"time":828.7044270833466,"velocity":0.8031496062992126,"duration":0.27994791666662877},{"name":"F4","midi":65,"time":828.8958333333466,"velocity":0.8031496062992126,"duration":0.18880208333325754},{"name":"A#3","midi":58,"time":829.0872395833466,"velocity":0.8031496062992126,"duration":0.5729166666666288},{"name":"E4","midi":64,"time":829.0872395833466,"velocity":0.8031496062992126,"duration":0.5729166666666288},{"name":"C#5","midi":73,"time":829.0872395833466,"velocity":0.8031496062992126,"duration":0.5729166666666288},{"name":"F#3","midi":54,"time":829.6640625000132,"velocity":0.8031496062992126,"duration":0.18880208333337123},{"name":"F#4","midi":66,"time":829.6640625000132,"velocity":0.8031496062992126,"duration":0.18880208333337123},{"name":"D5","midi":74,"time":829.6640625000132,"velocity":0.8031496062992126,"duration":0.18880208333337123},{"name":"B3","midi":59,"time":829.8554687500132,"velocity":0.8031496062992126,"duration":0.38151041666662877},{"name":"D4","midi":62,"time":829.8554687500132,"velocity":0.8031496062992126,"duration":0.5729166666666288},{"name":"B4","midi":71,"time":829.8554687500132,"velocity":0.8031496062992126,"duration":0.5729166666666288},{"name":"E3","midi":52,"time":830.2395833333464,"velocity":0.8031496062992126,"duration":0.38151041666674246},{"name":"C#5","midi":73,"time":830.4309895833464,"velocity":0.8031496062992126,"duration":0.18880208333337123},{"name":"E4","midi":64,"time":830.4309895833464,"velocity":0.8031496062992126,"duration":0.18880208333337123},{"name":"F#3","midi":54,"time":830.6236979166798,"velocity":0.8031496062992126,"duration":0.38541666666662877},{"name":"B4","midi":71,"time":830.6236979166798,"velocity":0.8031496062992126,"duration":0.09375},{"name":"C#4","midi":61,"time":830.6236979166798,"velocity":0.8031496062992126,"duration":0.5651041666665151},{"name":"A#4","midi":70,"time":830.7200520833464,"velocity":0.8031496062992126,"duration":0.09375},{"name":"B4","midi":71,"time":830.8177083333464,"velocity":0.8031496062992126,"duration":0.09375},{"name":"A#4","midi":70,"time":830.9140625000131,"velocity":0.8031496062992126,"duration":0.09375},{"name":"F#2","midi":42,"time":831.0117187500131,"velocity":0.8031496062992126,"duration":0.3828125},{"name":"B4","midi":71,"time":831.0117187500131,"velocity":0.8031496062992126,"duration":0.09375},{"name":"A#4","midi":70,"time":831.1080729166797,"velocity":0.8031496062992126,"duration":0.09375},{"name":"B4","midi":71,"time":831.2057291666797,"velocity":0.8031496062992126,"duration":0.18880208333337123},{"name":"B2","midi":47,"time":831.3971354166797,"velocity":0.8031496062992126,"duration":0.7591145833333712},{"name":"B3","midi":59,"time":831.3971354166797,"velocity":0.8031496062992126,"duration":0.38151041666674246},{"name":"B4","midi":71,"time":831.3971354166797,"velocity":0.8031496062992126,"duration":0.18880208333337123},{"name":"F#4","midi":66,"time":831.5898437500131,"velocity":0.8031496062992126,"duration":0.18880208333337123},{"name":"F#3","midi":54,"time":831.7812500000131,"velocity":0.8031496062992126,"duration":0.5585937499998863},{"name":"A3","midi":57,"time":831.7812500000131,"velocity":0.8031496062992126,"duration":0.5585937499998863},{"name":"D#4","midi":63,"time":831.7812500000131,"velocity":0.8031496062992126,"duration":0.18880208333337123},{"name":"B3","midi":59,"time":831.9739583333464,"velocity":0.8031496062992126,"duration":0.18880208333325754},{"name":"A4","midi":69,"time":832.1653645833463,"velocity":0.8031496062992126,"duration":0.18880208333325754},{"name":"F#4","midi":66,"time":832.3567708333462,"velocity":0.8031496062992126,"duration":0.18880208333337123},{"name":"B2","midi":47,"time":832.5494791666796,"velocity":0.8031496062992126,"duration":0.38151041666674246},{"name":"E3","midi":52,"time":832.5494791666796,"velocity":0.8031496062992126,"duration":0.38151041666674246},{"name":"G3","midi":55,"time":832.5494791666796,"velocity":0.8031496062992126,"duration":0.38151041666674246},{"name":"G4","midi":67,"time":832.5494791666796,"velocity":0.8031496062992126,"duration":0.18880208333337123},{"name":"E4","midi":64,"time":832.7408854166796,"velocity":0.8031496062992126,"duration":0.18880208333337123},{"name":"A2","midi":45,"time":832.933593750013,"velocity":0.8031496062992126,"duration":0.7187499999998863},{"name":"F#3","midi":54,"time":832.933593750013,"velocity":0.8031496062992126,"duration":0.55859375},{"name":"B2","midi":47,"time":832.933593750013,"velocity":0.8031496062992126,"duration":0.55859375},{"name":"G4","midi":67,"time":832.933593750013,"velocity":0.8031496062992126,"duration":0.18880208333337123},{"name":"B4","midi":71,"time":833.125000000013,"velocity":0.8031496062992126,"duration":0.18880208333337123},{"name":"E5","midi":76,"time":833.3177083333463,"velocity":0.8031496062992126,"duration":0.18880208333325754},{"name":"D#5","midi":75,"time":833.5091145833462,"velocity":0.8031496062992126,"duration":0.18880208333325754},{"name":"E3","midi":52,"time":833.7005208333461,"velocity":0.8031496062992126,"duration":0.18880208333337123},{"name":"B2","midi":47,"time":833.7005208333461,"velocity":0.8031496062992126,"duration":0.37890625},{"name":"G2","midi":43,"time":833.7005208333461,"velocity":0.8031496062992126,"duration":0.37890625},{"name":"E5","midi":76,"time":833.7005208333461,"velocity":0.8031496062992126,"duration":0.18880208333337123},{"name":"D#3","midi":51,"time":833.8932291666795,"velocity":0.8031496062992126,"duration":0.18880208333325754},{"name":"B4","midi":71,"time":833.8932291666795,"velocity":0.8031496062992126,"duration":0.18880208333325754},{"name":"E2","midi":40,"time":834.0846354166794,"velocity":0.8031496062992126,"duration":0.55859375},{"name":"E3","midi":52,"time":834.0846354166794,"velocity":0.8031496062992126,"duration":0.55859375},{"name":"C#3","midi":49,"time":834.0846354166794,"velocity":0.8031496062992126,"duration":0.71875},{"name":"E5","midi":76,"time":834.0846354166794,"velocity":0.8031496062992126,"duration":0.18880208333337123},{"name":"G5","midi":79,"time":834.2773437500127,"velocity":0.8031496062992126,"duration":0.18880208333337123},{"name":"B5","midi":83,"time":834.4687500000127,"velocity":0.8031496062992126,"duration":0.18880208333325754},{"name":"A#5","midi":82,"time":834.661458333346,"velocity":0.8031496062992126,"duration":0.18880208333337123},{"name":"B5","midi":83,"time":834.852864583346,"velocity":0.8031496062992126,"duration":2.298177083333485},{"name":"B2","midi":47,"time":835.044270833346,"velocity":0.8031496062992126,"duration":0.18880208333337123},{"name":"D#3","midi":51,"time":835.2369791666794,"velocity":0.8031496062992126,"duration":0.18880208333337123},{"name":"F#3","midi":54,"time":835.4283854166794,"velocity":0.8031496062992126,"duration":0.18880208333337123},{"name":"B3","midi":59,"time":835.6210937500127,"velocity":0.8031496062992126,"duration":0.18880208333337123},{"name":"A#3","midi":58,"time":835.8125000000127,"velocity":0.8031496062992126,"duration":0.18880208333337123},{"name":"B3","midi":59,"time":836.0039062500127,"velocity":0.8031496062992126,"duration":0.7591145833333712},{"name":"F#3","midi":54,"time":836.1966145833461,"velocity":0.8031496062992126,"duration":0.18880208333337123},{"name":"D#3","midi":51,"time":836.3880208333461,"velocity":0.8031496062992126,"duration":0.18880208333337123},{"name":"B2","midi":47,"time":836.5807291666795,"velocity":0.8031496062992126,"duration":0.37890625},{"name":"B3","midi":59,"time":836.7721354166795,"velocity":0.8031496062992126,"duration":0.38151041666662877},{"name":"F#3","midi":54,"time":837.1562500000127,"velocity":0.8031496062992126,"duration":0.18880208333337123},{"name":"D#3","midi":51,"time":837.3476562500127,"velocity":0.8031496062992126,"duration":0.18880208333337123},{"name":"E3","midi":52,"time":837.5403645833461,"velocity":0.8031496062992126,"duration":0.18880208333337123},{"name":"F#3","midi":54,"time":837.7317708333461,"velocity":0.8031496062992126,"duration":0.18880208333337123},{"name":"G3","midi":55,"time":837.9244791666795,"velocity":0.8031496062992126,"duration":0.18880208333337123},{"name":"A3","midi":57,"time":838.1158854166795,"velocity":0.8031496062992126,"duration":0.18880208333337123},{"name":"B3","midi":59,"time":838.3085937500128,"velocity":0.8031496062992126,"duration":0.38151041666662877},{"name":"B2","midi":47,"time":838.6914062500128,"velocity":0.8031496062992126,"duration":0.38151041666662877},{"name":"C3","midi":48,"time":839.0755208333461,"velocity":0.8031496062992126,"duration":0.38151041666662877},{"name":"B3","midi":59,"time":839.4596354166794,"velocity":0.8031496062992126,"duration":0.38151041666662877},{"name":"C#3","midi":49,"time":839.8437500000126,"velocity":0.8031496062992126,"duration":0.38151041666662877},{"name":"D3","midi":50,"time":840.2278645833459,"velocity":0.8031496062992126,"duration":0.38151041666662877},{"name":"B3","midi":59,"time":840.6119791666791,"velocity":0.8031496062992126,"duration":0.38151041666662877},{"name":"D#3","midi":51,"time":840.9947916666791,"velocity":0.8031496062992126,"duration":0.38151041666662877},{"name":"E3","midi":52,"time":841.3789062500124,"velocity":0.8031496062992126,"duration":0.18880208333337123},{"name":"F#3","midi":54,"time":841.5716145833458,"velocity":0.8031496062992126,"duration":0.18880208333337123},{"name":"G3","midi":55,"time":841.7630208333458,"velocity":0.8031496062992126,"duration":0.38151041666674246},{"name":"B3","midi":59,"time":841.7630208333458,"velocity":0.8031496062992126,"duration":0.18880208333337123},{"name":"A#3","midi":58,"time":841.9544270833458,"velocity":0.8031496062992126,"duration":0.18880208333337123},{"name":"F#3","midi":54,"time":842.1471354166791,"velocity":0.8031496062992126,"duration":0.38151041666674246},{"name":"B3","midi":59,"time":842.1471354166791,"velocity":0.8031496062992126,"duration":0.18880208333337123},{"name":"C#4","midi":61,"time":842.3385416666791,"velocity":0.8031496062992126,"duration":0.18880208333337123},{"name":"E3","midi":52,"time":842.5312500000125,"velocity":0.8031496062992126,"duration":0.38151041666674246},{"name":"D4","midi":62,"time":842.5312500000125,"velocity":0.8031496062992126,"duration":0.18880208333337123},{"name":"E4","midi":64,"time":842.7226562500125,"velocity":0.8031496062992126,"duration":0.18880208333337123},{"name":"D3","midi":50,"time":842.9153645833459,"velocity":0.8031496062992126,"duration":0.18880208333337123},{"name":"F#4","midi":66,"time":842.9153645833459,"velocity":0.8031496062992126,"duration":0.38151041666674246},{"name":"E3","midi":52,"time":843.1067708333459,"velocity":0.8031496062992126,"duration":0.18880208333337123},{"name":"D3","midi":50,"time":843.298177083346,"velocity":0.8031496062992126,"duration":0.18880208333337123},{"name":"F#3","midi":54,"time":843.298177083346,"velocity":0.8031496062992126,"duration":0.38151041666674246},{"name":"C#3","midi":49,"time":843.4908854166794,"velocity":0.8031496062992126,"duration":0.18880208333337123},{"name":"B2","midi":47,"time":843.6822916666794,"velocity":0.8031496062992126,"duration":0.18880208333337123},{"name":"G3","midi":55,"time":843.6822916666794,"velocity":0.8031496062992126,"duration":0.38151041666674246},{"name":"C#3","midi":49,"time":843.8750000000127,"velocity":0.8031496062992126,"duration":0.18880208333337123},{"name":"D3","midi":50,"time":844.0664062500127,"velocity":0.8031496062992126,"duration":0.18880208333337123},{"name":"F#4","midi":66,"time":844.0664062500127,"velocity":0.8031496062992126,"duration":0.38151041666674246},{"name":"F#3","midi":54,"time":844.2591145833461,"velocity":0.8031496062992126,"duration":0.18880208333337123},{"name":"E3","midi":52,"time":844.4505208333461,"velocity":0.8031496062992126,"duration":0.18880208333337123},{"name":"G#3","midi":56,"time":844.4505208333461,"velocity":0.8031496062992126,"duration":0.38151041666674246},{"name":"D3","midi":50,"time":844.6419270833461,"velocity":0.8031496062992126,"duration":0.18880208333337123},{"name":"C#3","midi":49,"time":844.8346354166795,"velocity":0.8031496062992126,"duration":0.18880208333337123},{"name":"A3","midi":57,"time":844.8346354166795,"velocity":0.8031496062992126,"duration":0.38151041666674246},{"name":"D3","midi":50,"time":845.0260416666795,"velocity":0.8031496062992126,"duration":0.18880208333337123},{"name":"E3","midi":52,"time":845.2187500000128,"velocity":0.8031496062992126,"duration":0.18880208333337123},{"name":"F#4","midi":66,"time":845.2187500000128,"velocity":0.8031496062992126,"duration":0.38151041666674246},{"name":"G3","midi":55,"time":845.4101562500128,"velocity":0.8031496062992126,"duration":0.18880208333337123},{"name":"F#3","midi":54,"time":845.601562500013,"velocity":0.8031496062992126,"duration":0.18880208333337123},{"name":"A#3","midi":58,"time":845.601562500013,"velocity":0.8031496062992126,"duration":0.38151041666674246},{"name":"E3","midi":52,"time":845.7942708333463,"velocity":0.8031496062992126,"duration":0.18880208333337123},{"name":"D3","midi":50,"time":845.9856770833463,"velocity":0.8031496062992126,"duration":0.18880208333337123},{"name":"B3","midi":59,"time":845.9856770833463,"velocity":0.8031496062992126,"duration":0.38151041666674246},{"name":"F#3","midi":54,"time":846.1783854166797,"velocity":0.8031496062992126,"duration":0.18880208333337123},{"name":"E3","midi":52,"time":846.3697916666797,"velocity":0.8031496062992126,"duration":0.38151041666674246},{"name":"C4","midi":60,"time":846.3697916666797,"velocity":0.8031496062992126,"duration":0.18880208333337123},{"name":"D4","midi":62,"time":846.5625000000131,"velocity":0.8031496062992126,"duration":0.18880208333337123},{"name":"G2","midi":43,"time":846.7539062500131,"velocity":0.8031496062992126,"duration":0.38151041666674246},{"name":"C4","midi":60,"time":846.7539062500131,"velocity":0.8031496062992126,"duration":0.18880208333337123},{"name":"B3","midi":59,"time":846.9453125000131,"velocity":0.8031496062992126,"duration":0.18880208333337123},{"name":"F#3","midi":54,"time":847.1380208333464,"velocity":0.8031496062992126,"duration":0.55859375},{"name":"A3","midi":57,"time":847.1380208333464,"velocity":0.8031496062992126,"duration":0.18880208333337123},{"name":"B3","midi":59,"time":847.3294270833464,"velocity":0.8031496062992126,"duration":0.18880208333337123},{"name":"C4","midi":60,"time":847.5221354166798,"velocity":0.8031496062992126,"duration":0.18880208333325754},{"name":"E4","midi":64,"time":847.7135416666797,"velocity":0.8031496062992126,"duration":0.18880208333337123},{"name":"A2","midi":45,"time":847.9062500000131,"velocity":0.8031496062992126,"duration":0.38151041666674246},{"name":"D4","midi":62,"time":847.9062500000131,"velocity":0.8031496062992126,"duration":0.18880208333337123},{"name":"C4","midi":60,"time":848.0976562500131,"velocity":0.8031496062992126,"duration":0.18880208333337123},{"name":"G3","midi":55,"time":848.2890625000132,"velocity":0.8031496062992126,"duration":0.55859375},{"name":"B3","midi":59,"time":848.2890625000132,"velocity":0.8031496062992126,"duration":0.18880208333337123},{"name":"C#4","midi":61,"time":848.4817708333466,"velocity":0.8031496062992126,"duration":0.18880208333337123},{"name":"D4","midi":62,"time":848.6731770833466,"velocity":0.8031496062992126,"duration":0.18880208333325754},{"name":"F#4","midi":66,"time":848.8658854166798,"velocity":0.8031496062992126,"duration":0.18880208333337123},{"name":"B2","midi":47,"time":849.0572916666798,"velocity":0.8031496062992126,"duration":0.38151041666674246},{"name":"E4","midi":64,"time":849.0572916666798,"velocity":0.8031496062992126,"duration":0.18880208333337123},{"name":"D4","midi":62,"time":849.2486979166798,"velocity":0.8031496062992126,"duration":0.18880208333337123},{"name":"A3","midi":57,"time":849.4414062500132,"velocity":0.8031496062992126,"duration":0.6783854166667425},{"name":"C#4","midi":61,"time":849.4414062500132,"velocity":0.8031496062992126,"duration":0.18880208333337123},{"name":"D#4","midi":63,"time":849.6328125000132,"velocity":0.8031496062992126,"duration":0.18880208333337123},{"name":"E4","midi":64,"time":849.8255208333466,"velocity":0.8031496062992126,"duration":0.18880208333337123},{"name":"D#4","midi":63,"time":850.0169270833466,"velocity":0.8031496062992126,"duration":0.18880208333337123},{"name":"C#3","midi":49,"time":850.2096354166799,"velocity":0.8031496062992126,"duration":0.38151041666674246},{"name":"E4","midi":64,"time":850.2096354166799,"velocity":0.8031496062992126,"duration":0.18880208333337123},{"name":"G4","midi":67,"time":850.4010416666799,"velocity":0.8031496062992126,"duration":0.18880208333337123},{"name":"D#3","midi":51,"time":850.59244791668,"velocity":0.8031496062992126,"duration":0.37890625},{"name":"F#4","midi":66,"time":850.59244791668,"velocity":0.8031496062992126,"duration":0.38151041666662877},{"name":"A3","midi":57,"time":850.7851562500134,"velocity":0.8031496062992126,"duration":0.18880208333325754},{"name":"G3","midi":55,"time":850.9765625000133,"velocity":0.8031496062992126,"duration":0.18880208333337123},{"name":"E3","midi":52,"time":850.9765625000133,"velocity":0.8031496062992126,"duration":0.37890625},{"name":"E4","midi":64,"time":850.9765625000133,"velocity":0.8031496062992126,"duration":0.18880208333337123},{"name":"C4","midi":60,"time":851.1692708333467,"velocity":0.8031496062992126,"duration":0.18880208333325754},{"name":"D#4","midi":63,"time":851.1692708333467,"velocity":0.8031496062992126,"duration":0.18880208333325754},{"name":"B3","midi":59,"time":851.3606770833466,"velocity":0.8031496062992126,"duration":0.18880208333337123},{"name":"E4","midi":64,"time":851.3606770833466,"velocity":0.8031496062992126,"duration":0.18880208333337123},{"name":"A3","midi":57,"time":851.5520833333466,"velocity":0.8031496062992126,"duration":0.18880208333337123},{"name":"F#4","midi":66,"time":851.5520833333466,"velocity":0.8031496062992126,"duration":0.18880208333337123},{"name":"G3","midi":55,"time":851.7447916666799,"velocity":0.8031496062992126,"duration":0.18880208333337123},{"name":"G4","midi":67,"time":851.7447916666799,"velocity":0.8031496062992126,"duration":0.18880208333337123},{"name":"F#3","midi":54,"time":851.9361979166799,"velocity":0.8031496062992126,"duration":0.18880208333337123},{"name":"A4","midi":69,"time":851.9361979166799,"velocity":0.8031496062992126,"duration":0.18880208333337123},{"name":"G2","midi":43,"time":852.1289062500133,"velocity":0.8031496062992126,"duration":0.18880208333337123},{"name":"E3","midi":52,"time":852.1289062500133,"velocity":0.8031496062992126,"duration":0.18880208333337123},{"name":"B4","midi":71,"time":852.1289062500133,"velocity":0.8031496062992126,"duration":0.38151041666674246},{"name":"A3","midi":57,"time":852.3203125000133,"velocity":0.8031496062992126,"duration":0.18880208333337123},{"name":"G3","midi":55,"time":852.5130208333467,"velocity":0.8031496062992126,"duration":0.18880208333337123},{"name":"B3","midi":59,"time":852.5130208333467,"velocity":0.8031496062992126,"duration":0.38151041666674246},{"name":"F#3","midi":54,"time":852.7044270833467,"velocity":0.8031496062992126,"duration":0.18880208333337123},{"name":"A2","midi":45,"time":852.8958333333468,"velocity":0.8031496062992126,"duration":0.37890625},{"name":"E3","midi":52,"time":852.8958333333468,"velocity":0.8031496062992126,"duration":0.18880208333337123},{"name":"C4","midi":60,"time":852.8958333333468,"velocity":0.8031496062992126,"duration":0.38151041666662877},{"name":"F#3","midi":54,"time":853.0885416666802,"velocity":0.8031496062992126,"duration":0.18880208333325754},{"name":"G3","midi":55,"time":853.27994791668,"velocity":0.8031496062992126,"duration":0.18880208333337123},{"name":"B4","midi":71,"time":853.27994791668,"velocity":0.8031496062992126,"duration":0.38151041666674246},{"name":"B3","midi":59,"time":853.4726562500134,"velocity":0.8031496062992126,"duration":0.18880208333337123},{"name":"A3","midi":57,"time":853.6640625000134,"velocity":0.8031496062992126,"duration":0.18880208333337123},{"name":"C#4","midi":61,"time":853.6640625000134,"velocity":0.8031496062992126,"duration":0.38151041666674246},{"name":"G3","midi":55,"time":853.8567708333468,"velocity":0.8031496062992126,"duration":0.18880208333337123},{"name":"F#3","midi":54,"time":854.0481770833468,"velocity":0.8031496062992126,"duration":0.18880208333337123},{"name":"B2","midi":47,"time":854.0481770833468,"velocity":0.8031496062992126,"duration":0.37890625},{"name":"D4","midi":62,"time":854.0481770833468,"velocity":0.8031496062992126,"duration":0.38151041666674246},{"name":"G3","midi":55,"time":854.2395833333468,"velocity":0.8031496062992126,"duration":0.18880208333337123},{"name":"A3","midi":57,"time":854.4322916666802,"velocity":0.8031496062992126,"duration":0.18880208333337123},{"name":"B4","midi":71,"time":854.4322916666802,"velocity":0.8031496062992126,"duration":0.38151041666674246},{"name":"C4","midi":60,"time":854.6236979166802,"velocity":0.8031496062992126,"duration":0.18880208333337123},{"name":"B3","midi":59,"time":854.8164062500135,"velocity":0.8031496062992126,"duration":0.18880208333337123},{"name":"D#4","midi":63,"time":854.8164062500135,"velocity":0.8031496062992126,"duration":0.38151041666674246},{"name":"A3","midi":57,"time":855.0078125000135,"velocity":0.8031496062992126,"duration":0.18880208333337123},{"name":"G3","midi":55,"time":855.1992187500136,"velocity":0.8031496062992126,"duration":0.18880208333337123},{"name":"C3","midi":48,"time":855.1992187500136,"velocity":0.8031496062992126,"duration":0.37890625},{"name":"E4","midi":64,"time":855.1992187500136,"velocity":0.8031496062992126,"duration":0.5729166666666288},{"name":"A3","midi":57,"time":855.391927083347,"velocity":0.8031496062992126,"duration":0.18880208333325754},{"name":"F#3","midi":54,"time":855.5833333333469,"velocity":0.8031496062992126,"duration":1.1484375000001137},{"name":"A2","midi":45,"time":855.5833333333469,"velocity":0.8031496062992126,"duration":0.38151041666674246},{"name":"G4","midi":67,"time":855.7760416666803,"velocity":0.8031496062992126,"duration":0.18880208333337123},{"name":"F#2","midi":42,"time":855.9674479166803,"velocity":0.8031496062992126,"duration":0.38151041666674246},{"name":"F#4","midi":66,"time":855.9674479166803,"velocity":0.8031496062992126,"duration":0.18880208333337123},{"name":"E4","midi":64,"time":856.1601562500136,"velocity":0.8031496062992126,"duration":0.18880208333337123},{"name":"B2","midi":47,"time":856.3515625000136,"velocity":0.8031496062992126,"duration":0.7591145833333712},{"name":"D#4","midi":63,"time":856.3515625000136,"velocity":0.8031496062992126,"duration":0.18880208333337123},{"name":"E4","midi":64,"time":856.5429687500136,"velocity":0.8031496062992126,"duration":0.18880208333337123},{"name":"G3","midi":55,"time":856.735677083347,"velocity":0.8031496062992126,"duration":1.1484375000001137},{"name":"F#4","midi":66,"time":856.735677083347,"velocity":0.8031496062992126,"duration":0.18880208333337123},{"name":"A4","midi":69,"time":856.927083333347,"velocity":0.8031496062992126,"duration":0.18880208333337123},{"name":"G2","midi":43,"time":857.1197916666804,"velocity":0.8031496062992126,"duration":0.38151041666674246},{"name":"G4","midi":67,"time":857.1197916666804,"velocity":0.8031496062992126,"duration":0.18880208333337123},{"name":"F#4","midi":66,"time":857.3111979166804,"velocity":0.8031496062992126,"duration":0.18880208333337123},{"name":"C3","midi":48,"time":857.5039062500138,"velocity":0.8031496062992126,"duration":0.7591145833333712},{"name":"E4","midi":64,"time":857.5039062500138,"velocity":0.8031496062992126,"duration":0.18880208333337123},{"name":"F#4","midi":66,"time":857.6953125000138,"velocity":0.8031496062992126,"duration":0.18880208333337123},{"name":"A3","midi":57,"time":857.8867187500138,"velocity":0.8031496062992126,"duration":1.1484375000001137},{"name":"G4","midi":67,"time":857.8867187500138,"velocity":0.8031496062992126,"duration":0.18880208333337123},{"name":"B4","midi":71,"time":858.0794270833471,"velocity":0.8031496062992126,"duration":0.18880208333337123},{"name":"A2","midi":45,"time":858.2708333333471,"velocity":0.8031496062992126,"duration":0.38151041666674246},{"name":"A4","midi":69,"time":858.2708333333471,"velocity":0.8031496062992126,"duration":0.18880208333337123},{"name":"G4","midi":67,"time":858.4635416666805,"velocity":0.8031496062992126,"duration":0.18880208333337123},{"name":"D3","midi":50,"time":858.6549479166805,"velocity":0.8031496062992126,"duration":0.7591145833333712},{"name":"F#4","midi":66,"time":858.6549479166805,"velocity":0.8031496062992126,"duration":0.18880208333337123},{"name":"G4","midi":67,"time":858.8463541666805,"velocity":0.8031496062992126,"duration":0.18880208333337123},{"name":"B3","midi":59,"time":859.0390625000139,"velocity":0.8031496062992126,"duration":0.38151041666674246},{"name":"A4","midi":69,"time":859.0390625000139,"velocity":0.8031496062992126,"duration":0.18880208333337123},{"name":"C5","midi":72,"time":859.2304687500139,"velocity":0.8031496062992126,"duration":0.18880208333337123},{"name":"E3","midi":52,"time":859.4231770833472,"velocity":0.8031496062992126,"duration":0.38151041666674246},{"name":"C4","midi":60,"time":859.4231770833472,"velocity":0.8031496062992126,"duration":0.38151041666674246},{"name":"B4","midi":71,"time":859.4231770833472,"velocity":0.8031496062992126,"duration":0.18880208333337123},{"name":"A4","midi":69,"time":859.6145833333472,"velocity":0.8031496062992126,"duration":0.18880208333337123},{"name":"F#3","midi":54,"time":859.8072916666806,"velocity":0.8031496062992126,"duration":0.38151041666674246},{"name":"D4","midi":62,"time":859.8072916666806,"velocity":0.8031496062992126,"duration":0.5585937500001137},{"name":"G4","midi":67,"time":859.8072916666806,"velocity":0.8031496062992126,"duration":0.18880208333337123},{"name":"A4","midi":69,"time":859.9986979166806,"velocity":0.8031496062992126,"duration":0.18880208333337123},{"name":"G3","midi":55,"time":860.1901041666807,"velocity":0.8031496062992126,"duration":0.18880208333337123},{"name":"B4","midi":71,"time":860.1901041666807,"velocity":0.8031496062992126,"duration":0.38151041666674246},{"name":"B3","midi":59,"time":860.3828125000141,"velocity":0.8031496062992126,"duration":0.18880208333337123},{"name":"D4","midi":62,"time":860.5742187500141,"velocity":0.8031496062992126,"duration":0.18880208333337123},{"name":"B5","midi":83,"time":860.5742187500141,"velocity":0.8031496062992126,"duration":0.38151041666674246},{"name":"G4","midi":67,"time":860.7669270833475,"velocity":0.8031496062992126,"duration":0.18880208333337123},{"name":"F#4","midi":66,"time":860.9583333333475,"velocity":0.8031496062992126,"duration":0.18880208333337123},{"name":"A5","midi":81,"time":860.9583333333475,"velocity":0.8031496062992126,"duration":0.38151041666674246},{"name":"B3","midi":59,"time":861.1497395833475,"velocity":0.8031496062992126,"duration":0.18880208333337123},{"name":"E4","midi":64,"time":861.3424479166808,"velocity":0.8031496062992126,"duration":0.18880208333337123},{"name":"G5","midi":79,"time":861.3424479166808,"velocity":0.8031496062992126,"duration":0.38151041666674246},{"name":"C4","midi":60,"time":861.5338541666808,"velocity":0.8031496062992126,"duration":0.18880208333337123},{"name":"A3","midi":57,"time":861.7265625000142,"velocity":0.8031496062992126,"duration":0.18880208333337123},{"name":"C5","midi":72,"time":861.7265625000142,"velocity":0.8031496062992126,"duration":0.38151041666674246},{"name":"F#3","midi":54,"time":861.9179687500142,"velocity":0.8031496062992126,"duration":0.18880208333337123},{"name":"G3","midi":55,"time":862.1106770833476,"velocity":0.8031496062992126,"duration":0.18880208333337123},{"name":"B4","midi":71,"time":862.1106770833476,"velocity":0.8031496062992126,"duration":0.38151041666674246},{"name":"B3","midi":59,"time":862.3020833333476,"velocity":0.8031496062992126,"duration":0.18880208333337123},{"name":"C3","midi":48,"time":862.4934895833477,"velocity":0.8031496062992126,"duration":0.18880208333337123},{"name":"A4","midi":69,"time":862.4934895833477,"velocity":0.8031496062992126,"duration":0.38151041666674246},{"name":"E3","midi":52,"time":862.6861979166811,"velocity":0.8031496062992126,"duration":0.18880208333337123},{"name":"A3","midi":57,"time":862.8776041666811,"velocity":0.8031496062992126,"duration":0.18880208333337123},{"name":"E5","midi":76,"time":862.8776041666811,"velocity":0.8031496062992126,"duration":0.38151041666674246},{"name":"C4","midi":60,"time":863.0703125000144,"velocity":0.8031496062992126,"duration":0.18880208333337123},{"name":"B3","midi":59,"time":863.2617187500144,"velocity":0.8031496062992126,"duration":0.18880208333337123},{"name":"D5","midi":74,"time":863.2617187500144,"velocity":0.8031496062992126,"duration":0.38151041666674246},{"name":"E3","midi":52,"time":863.4544270833478,"velocity":0.8031496062992126,"duration":0.18880208333337123},{"name":"A3","midi":57,"time":863.6458333333478,"velocity":0.8031496062992126,"duration":0.18880208333337123},{"name":"C5","midi":72,"time":863.6458333333478,"velocity":0.8031496062992126,"duration":0.38151041666674246},{"name":"E3","midi":52,"time":863.8372395833478,"velocity":0.8031496062992126,"duration":0.18880208333337123},{"name":"C3","midi":48,"time":864.0299479166812,"velocity":0.8031496062992126,"duration":0.18880208333337123},{"name":"E4","midi":64,"time":864.0299479166812,"velocity":0.8031496062992126,"duration":0.38151041666674246},{"name":"A2","midi":45,"time":864.2213541666812,"velocity":0.8031496062992126,"duration":0.18880208333337123},{"name":"B2","midi":47,"time":864.4140625000146,"velocity":0.8031496062992126,"duration":0.18880208333337123},{"name":"D4","midi":62,"time":864.4140625000146,"velocity":0.8031496062992126,"duration":0.5729166666666288},{"name":"D3","midi":50,"time":864.6054687500146,"velocity":0.8031496062992126,"duration":0.18880208333337123},{"name":"F#2","midi":42,"time":864.7968750000146,"velocity":0.8031496062992126,"duration":1.1484375},{"name":"F#4","midi":66,"time":864.9895833333478,"velocity":0.8031496062992126,"duration":0.18880208333337123},{"name":"A4","midi":69,"time":865.1809895833478,"velocity":0.8031496062992126,"duration":0.18880208333337123},{"name":"C5","midi":72,"time":865.3736979166812,"velocity":0.8031496062992126,"duration":0.18880208333337123},{"name":"B4","midi":71,"time":865.5651041666812,"velocity":0.8031496062992126,"duration":0.18880208333337123},{"name":"A4","midi":69,"time":865.7578125000146,"velocity":0.8031496062992126,"duration":0.18880208333337123},{"name":"G2","midi":43,"time":865.9492187500146,"velocity":0.8031496062992126,"duration":1.1484375000001137},{"name":"G3","midi":55,"time":865.9492187500146,"velocity":0.8031496062992126,"duration":0.18880208333337123},{"name":"B4","midi":71,"time":865.9492187500146,"velocity":0.8031496062992126,"duration":1.532552083333485},{"name":"B3","midi":59,"time":866.1406250000146,"velocity":0.8031496062992126,"duration":0.18880208333337123},{"name":"D4","midi":62,"time":866.3333333333479,"velocity":0.8031496062992126,"duration":0.18880208333337123},{"name":"F4","midi":65,"time":866.5247395833479,"velocity":0.8031496062992126,"duration":0.18880208333337123},{"name":"E4","midi":64,"time":866.7174479166813,"velocity":0.8031496062992126,"duration":0.18880208333337123},{"name":"D4","midi":62,"time":866.9088541666813,"velocity":0.8031496062992126,"duration":0.18880208333337123},{"name":"C3","midi":48,"time":867.1015625000147,"velocity":0.8031496062992126,"duration":0.18880208333337123},{"name":"E4","midi":64,"time":867.1015625000147,"velocity":0.8031496062992126,"duration":0.5729166666667425},{"name":"E3","midi":52,"time":867.2929687500147,"velocity":0.8031496062992126,"duration":0.18880208333337123},{"name":"G3","midi":55,"time":867.4843750000147,"velocity":0.8031496062992126,"duration":0.18880208333337123},{"name":"B3","midi":59,"time":867.677083333348,"velocity":0.8031496062992126,"duration":0.18880208333337123},{"name":"D5","midi":74,"time":867.677083333348,"velocity":0.8031496062992126,"duration":0.18880208333337123},{"name":"A3","midi":57,"time":867.868489583348,"velocity":0.8031496062992126,"duration":0.18880208333337123},{"name":"C5","midi":72,"time":867.868489583348,"velocity":0.8031496062992126,"duration":0.18880208333337123},{"name":"G3","midi":55,"time":868.0611979166814,"velocity":0.8031496062992126,"duration":0.18880208333337123},{"name":"B4","midi":71,"time":868.0611979166814,"velocity":0.8031496062992126,"duration":0.18880208333337123},{"name":"F#3","midi":54,"time":868.2526041666814,"velocity":0.8031496062992126,"duration":1.1484375000001137},{"name":"A4","midi":69,"time":868.2526041666814,"velocity":0.8031496062992126,"duration":1.341145833333485},{"name":"A3","midi":57,"time":868.4440104166814,"velocity":0.8031496062992126,"duration":0.18880208333337123},{"name":"C4","midi":60,"time":868.6367187500148,"velocity":0.8031496062992126,"duration":0.18880208333337123},{"name":"E4","midi":64,"time":868.8281250000148,"velocity":0.8031496062992126,"duration":0.18880208333337123},{"name":"D4","midi":62,"time":869.0208333333482,"velocity":0.8031496062992126,"duration":0.18880208333337123},{"name":"C4","midi":60,"time":869.2122395833482,"velocity":0.8031496062992126,"duration":0.18880208333337123},{"name":"G3","midi":55,"time":869.4049479166815,"velocity":0.8031496062992126,"duration":1.1484375000001137},{"name":"B3","midi":59,"time":869.4049479166815,"velocity":0.8031496062992126,"duration":1.532552083333485},{"name":"D4","midi":62,"time":869.5963541666815,"velocity":0.8031496062992126,"duration":0.18880208333337123},{"name":"F#4","midi":66,"time":869.7877604166815,"velocity":0.8031496062992126,"duration":0.18880208333337123},{"name":"A4","midi":69,"time":869.9804687500149,"velocity":0.8031496062992126,"duration":0.18880208333337123},{"name":"G4","midi":67,"time":870.1718750000149,"velocity":0.8031496062992126,"duration":0.18880208333337123},{"name":"F#4","midi":66,"time":870.3645833333483,"velocity":0.8031496062992126,"duration":0.18880208333337123},{"name":"E3","midi":52,"time":870.5559895833483,"velocity":0.8031496062992126,"duration":1.1484375000001137},{"name":"G4","midi":67,"time":870.5559895833483,"velocity":0.8031496062992126,"duration":0.18880208333337123},{"name":"B4","midi":71,"time":870.7473958333483,"velocity":0.8031496062992126,"duration":0.18880208333337123},{"name":"E4","midi":64,"time":870.9401041666816,"velocity":0.8031496062992126,"duration":0.38151041666674246},{"name":"C#5","midi":73,"time":870.9401041666816,"velocity":0.8031496062992126,"duration":0.18880208333337123},{"name":"E5","midi":76,"time":871.1315104166816,"velocity":0.8031496062992126,"duration":0.18880208333337123},{"name":"G4","midi":67,"time":871.324218750015,"velocity":0.8031496062992126,"duration":0.7591145833333712},{"name":"D5","midi":74,"time":871.324218750015,"velocity":0.8031496062992126,"duration":0.18880208333337123},{"name":"C#5","midi":73,"time":871.515625000015,"velocity":0.8031496062992126,"duration":0.18880208333337123},{"name":"D3","midi":50,"time":871.7083333333484,"velocity":0.8031496062992126,"duration":0.18880208333337123},{"name":"D5","midi":74,"time":871.7083333333484,"velocity":0.8031496062992126,"duration":0.38151041666674246},{"name":"C#3","midi":49,"time":871.8997395833484,"velocity":0.8031496062992126,"duration":0.18880208333337123},{"name":"D3","midi":50,"time":872.0911458333485,"velocity":0.8031496062992126,"duration":0.18880208333337123},{"name":"F#4","midi":66,"time":872.0911458333485,"velocity":0.8031496062992126,"duration":0.7591145833333712},{"name":"A4","midi":69,"time":872.0911458333485,"velocity":0.8031496062992126,"duration":0.38151041666674246},{"name":"E3","midi":52,"time":872.2838541666819,"velocity":0.8031496062992126,"duration":0.18880208333337123},{"name":"F#3","midi":54,"time":872.4752604166819,"velocity":0.8031496062992126,"duration":0.18880208333337123},{"name":"D5","midi":74,"time":872.4752604166819,"velocity":0.8031496062992126,"duration":0.7591145833332575},{"name":"G3","midi":55,"time":872.6679687500152,"velocity":0.8031496062992126,"duration":0.18880208333325754},{"name":"A3","midi":57,"time":872.8593750000151,"velocity":0.8031496062992126,"duration":0.18880208333337123},{"name":"E4","midi":64,"time":872.8593750000151,"velocity":0.8031496062992126,"duration":0.7591145833332575},{"name":"B3","midi":59,"time":873.0520833333485,"velocity":0.8031496062992126,"duration":0.18880208333325754},{"name":"A3","midi":57,"time":873.2434895833484,"velocity":0.8031496062992126,"duration":0.18880208333337123},{"name":"C5","midi":72,"time":873.2434895833484,"velocity":0.8031496062992126,"duration":0.18880208333337123},{"name":"G3","midi":55,"time":873.4348958333484,"velocity":0.8031496062992126,"duration":0.18880208333337123},{"name":"B4","midi":71,"time":873.4348958333484,"velocity":0.8031496062992126,"duration":0.18880208333337123},{"name":"F#3","midi":54,"time":873.6276041666817,"velocity":0.8031496062992126,"duration":0.18880208333337123},{"name":"C5","midi":72,"time":873.6276041666817,"velocity":0.8031496062992126,"duration":0.38151041666674246},{"name":"A4","midi":69,"time":873.6276041666817,"velocity":0.8031496062992126,"duration":0.7591145833333712},{"name":"E3","midi":52,"time":873.8190104166817,"velocity":0.8031496062992126,"duration":0.18880208333337123},{"name":"D#3","midi":51,"time":874.0117187500151,"velocity":0.8031496062992126,"duration":0.18880208333337123},{"name":"B4","midi":71,"time":874.0117187500151,"velocity":0.8031496062992126,"duration":1.532552083333485},{"name":"B2","midi":47,"time":874.2031250000151,"velocity":0.8031496062992126,"duration":0.18880208333337123},{"name":"C#3","midi":49,"time":874.3945312500151,"velocity":0.8031496062992126,"duration":0.18880208333337123},{"name":"G4","midi":67,"time":874.3945312500151,"velocity":0.8031496062992126,"duration":0.18880208333337123},{"name":"D#3","midi":51,"time":874.5872395833485,"velocity":0.8031496062992126,"duration":0.18880208333337123},{"name":"F#4","midi":66,"time":874.5872395833485,"velocity":0.8031496062992126,"duration":0.18880208333337123},{"name":"E3","midi":52,"time":874.7786458333485,"velocity":0.8031496062992126,"duration":0.18880208333337123},{"name":"E4","midi":64,"time":874.7786458333485,"velocity":0.8031496062992126,"duration":0.18880208333337123},{"name":"F#3","midi":54,"time":874.9713541666819,"velocity":0.8031496062992126,"duration":0.18880208333337123},{"name":"D#4","midi":63,"time":874.9713541666819,"velocity":0.8031496062992126,"duration":0.18880208333337123},{"name":"G3","midi":55,"time":875.1627604166819,"velocity":0.8031496062992126,"duration":0.18880208333337123},{"name":"E4","midi":64,"time":875.1627604166819,"velocity":0.8031496062992126,"duration":2.2981770833335986},{"name":"A3","midi":57,"time":875.3554687500152,"velocity":0.8031496062992126,"duration":0.18880208333337123},{"name":"G3","midi":55,"time":875.5468750000152,"velocity":0.8031496062992126,"duration":0.18880208333337123},{"name":"E5","midi":76,"time":875.5468750000152,"velocity":0.8031496062992126,"duration":0.18880208333337123},{"name":"F#3","midi":54,"time":875.7382812500152,"velocity":0.8031496062992126,"duration":0.18880208333337123},{"name":"D5","midi":74,"time":875.7382812500152,"velocity":0.8031496062992126,"duration":0.18880208333337123},{"name":"E3","midi":52,"time":875.9309895833486,"velocity":0.8031496062992126,"duration":0.18880208333337123},{"name":"C5","midi":72,"time":875.9309895833486,"velocity":0.8031496062992126,"duration":0.18880208333337123},{"name":"D3","midi":50,"time":876.1223958333486,"velocity":0.8031496062992126,"duration":0.18880208333337123},{"name":"B4","midi":71,"time":876.1223958333486,"velocity":0.8031496062992126,"duration":0.18880208333337123},{"name":"C3","midi":48,"time":876.315104166682,"velocity":0.8031496062992126,"duration":0.18880208333337123},{"name":"A4","midi":69,"time":876.315104166682,"velocity":0.8031496062992126,"duration":0.38151041666674246},{"name":"D3","midi":50,"time":876.506510416682,"velocity":0.8031496062992126,"duration":0.18880208333337123},{"name":"C3","midi":48,"time":876.6992187500153,"velocity":0.8031496062992126,"duration":0.18880208333337123},{"name":"B4","midi":71,"time":876.6992187500153,"velocity":0.8031496062992126,"duration":0.38151041666674246},{"name":"B2","midi":47,"time":876.8906250000153,"velocity":0.8031496062992126,"duration":0.18880208333337123},{"name":"A2","midi":45,"time":877.0820312500155,"velocity":0.8031496062992126,"duration":0.18880208333337123},{"name":"C5","midi":72,"time":877.0820312500155,"velocity":0.8031496062992126,"duration":0.7591145833332575},{"name":"G2","midi":43,"time":877.2747395833488,"velocity":0.8031496062992126,"duration":0.18880208333325754},{"name":"F#2","midi":42,"time":877.4661458333487,"velocity":0.8031496062992126,"duration":0.18880208333337123},{"name":"A4","midi":69,"time":877.4661458333487,"velocity":0.8031496062992126,"duration":0.7591145833332575},{"name":"D#2","midi":39,"time":877.6588541666821,"velocity":0.8031496062992126,"duration":0.18880208333325754},{"name":"E2","midi":40,"time":877.850260416682,"velocity":0.8031496062992126,"duration":0.18880208333337123},{"name":"B4","midi":71,"time":877.850260416682,"velocity":0.8031496062992126,"duration":0.38151041666674246},{"name":"F#2","midi":42,"time":878.041666666682,"velocity":0.8031496062992126,"duration":0.18880208333337123},{"name":"G2","midi":43,"time":878.2343750000153,"velocity":0.8031496062992126,"duration":0.18880208333337123},{"name":"E5","midi":76,"time":878.2343750000153,"velocity":0.8031496062992126,"duration":0.38151041666674246},{"name":"G4","midi":67,"time":878.2343750000153,"velocity":0.8031496062992126,"duration":0.38151041666674246},{"name":"A2","midi":45,"time":878.4257812500153,"velocity":0.8031496062992126,"duration":0.18880208333337123},{"name":"B2","midi":47,"time":878.6184895833487,"velocity":0.8031496062992126,"duration":0.18880208333337123},{"name":"D#5","midi":75,"time":878.6184895833487,"velocity":0.8031496062992126,"duration":0.18880208333337123},{"name":"F#4","midi":66,"time":878.6184895833487,"velocity":0.8031496062992126,"duration":0.37890625},{"name":"F#2","midi":42,"time":878.8098958333487,"velocity":0.8031496062992126,"duration":0.18880208333337123},{"name":"C#5","midi":73,"time":878.8098958333487,"velocity":0.8031496062992126,"duration":0.18880208333337123},{"name":"G#2","midi":44,"time":879.0026041666821,"velocity":0.8031496062992126,"duration":0.18880208333337123},{"name":"B4","midi":71,"time":879.0026041666821,"velocity":0.8031496062992126,"duration":0.18880208333337123},{"name":"A#2","midi":46,"time":879.1940104166821,"velocity":0.8031496062992126,"duration":0.18880208333337123},{"name":"C#5","midi":73,"time":879.1940104166821,"velocity":0.8031496062992126,"duration":0.18880208333337123},{"name":"B2","midi":47,"time":879.3854166666821,"velocity":0.8031496062992126,"duration":0.18880208333337123},{"name":"D#5","midi":75,"time":879.3854166666821,"velocity":0.8031496062992126,"duration":0.18880208333337123},{"name":"C#3","midi":49,"time":879.5781250000155,"velocity":0.8031496062992126,"duration":0.18880208333337123},{"name":"E5","midi":76,"time":879.5781250000155,"velocity":0.8031496062992126,"duration":0.18880208333337123},{"name":"D#3","midi":51,"time":879.7695312500155,"velocity":0.8031496062992126,"duration":0.18880208333337123},{"name":"F#5","midi":78,"time":879.7695312500155,"velocity":0.8031496062992126,"duration":0.38151041666674246},{"name":"E3","midi":52,"time":879.9622395833488,"velocity":0.8031496062992126,"duration":0.18880208333337123},{"name":"D#3","midi":51,"time":880.1536458333488,"velocity":0.8031496062992126,"duration":0.18880208333337123},{"name":"F#4","midi":66,"time":880.1536458333488,"velocity":0.8031496062992126,"duration":0.38151041666674246},{"name":"C#3","midi":49,"time":880.3450520833488,"velocity":0.8031496062992126,"duration":0.18880208333337123},{"name":"B2","midi":47,"time":880.5377604166822,"velocity":0.8031496062992126,"duration":0.18880208333337123},{"name":"G4","midi":67,"time":880.5377604166822,"velocity":0.8031496062992126,"duration":0.38151041666674246},{"name":"C#3","midi":49,"time":880.7291666666822,"velocity":0.8031496062992126,"duration":0.18880208333337123},{"name":"D3","midi":50,"time":880.9218750000156,"velocity":0.8031496062992126,"duration":0.18880208333337123},{"name":"F#5","midi":78,"time":880.9218750000156,"velocity":0.8031496062992126,"duration":0.38151041666674246},{"name":"F#3","midi":54,"time":881.1132812500156,"velocity":0.8031496062992126,"duration":0.18880208333337123},{"name":"E3","midi":52,"time":881.305989583349,"velocity":0.8031496062992126,"duration":0.18880208333337123},{"name":"G#4","midi":68,"time":881.305989583349,"velocity":0.8031496062992126,"duration":0.38151041666674246},{"name":"D3","midi":50,"time":881.497395833349,"velocity":0.8031496062992126,"duration":0.18880208333337123},{"name":"C#3","midi":49,"time":881.6888020833491,"velocity":0.8031496062992126,"duration":0.18880208333337123},{"name":"A4","midi":69,"time":881.6888020833491,"velocity":0.8031496062992126,"duration":0.38151041666674246},{"name":"D#3","midi":51,"time":881.8815104166824,"velocity":0.8031496062992126,"duration":0.18880208333337123},{"name":"E3","midi":52,"time":882.0729166666824,"velocity":0.8031496062992126,"duration":0.18880208333337123},{"name":"F#5","midi":78,"time":882.0729166666824,"velocity":0.8031496062992126,"duration":0.38151041666674246},{"name":"G3","midi":55,"time":882.2656250000158,"velocity":0.8031496062992126,"duration":0.18880208333337123},{"name":"F#3","midi":54,"time":882.4570312500158,"velocity":0.8031496062992126,"duration":0.18880208333337123},{"name":"A#4","midi":70,"time":882.4570312500158,"velocity":0.8031496062992126,"duration":0.38151041666674246},{"name":"E3","midi":52,"time":882.6497395833492,"velocity":0.8031496062992126,"duration":0.18880208333337123},{"name":"D#3","midi":51,"time":882.8411458333492,"velocity":0.8031496062992126,"duration":0.18880208333337123},{"name":"B4","midi":71,"time":882.8411458333492,"velocity":0.8031496062992126,"duration":0.38151041666674246},{"name":"F#3","midi":54,"time":883.0325520833492,"velocity":0.8031496062992126,"duration":0.18880208333337123},{"name":"E3","midi":52,"time":883.2252604166825,"velocity":0.8031496062992126,"duration":0.19140625},{"name":"C5","midi":72,"time":883.2252604166825,"velocity":0.8031496062992126,"duration":0.38541666666662877},{"name":"G3","midi":55,"time":883.4192708333492,"velocity":0.8031496062992126,"duration":0.19140625},{"name":"F#3","midi":54,"time":883.6132812500158,"velocity":0.8031496062992126,"duration":0.19140625},{"name":"G5","midi":79,"time":883.6132812500158,"velocity":0.8031496062992126,"duration":0.38541666666662877},{"name":"E3","midi":52,"time":883.8072916666824,"velocity":0.8031496062992126,"duration":0.19140625},{"name":"D3","midi":50,"time":884.0013020833491,"velocity":0.8031496062992126,"duration":0.19140625},{"name":"F5","midi":77,"time":884.0013020833491,"velocity":0.8031496062992126,"duration":0.38541666666662877},{"name":"G3","midi":55,"time":884.1953125000157,"velocity":0.8031496062992126,"duration":0.19140625},{"name":"C3","midi":48,"time":884.3893229166823,"velocity":0.8031496062992126,"duration":0.19401041666662877},{"name":"E5","midi":76,"time":884.3893229166823,"velocity":0.8031496062992126,"duration":1.5755208333330302},{"name":"E3","midi":52,"time":884.5859375000156,"velocity":0.8031496062992126,"duration":0.19401041666662877},{"name":"D3","midi":50,"time":884.7812500000156,"velocity":0.8031496062992126,"duration":0.19401041666662877},{"name":"A4","midi":69,"time":884.7812500000156,"velocity":0.8031496062992126,"duration":0.38932291666662877},{"name":"C3","midi":48,"time":884.9778645833488,"velocity":0.8031496062992126,"duration":0.19401041666674246},{"name":"B2","midi":47,"time":885.1744791666822,"velocity":0.8031496062992126,"duration":0.19401041666662877},{"name":"G4","midi":67,"time":885.1744791666822,"velocity":0.8031496062992126,"duration":0.38932291666662877},{"name":"E3","midi":52,"time":885.3697916666822,"velocity":0.8031496062992126,"duration":0.19401041666662877},{"name":"A2","midi":45,"time":885.5664062500155,"velocity":0.8031496062992126,"duration":0.19791666666662877},{"name":"F#4","midi":66,"time":885.5664062500155,"velocity":0.8031496062992126,"duration":0.7929687499997726},{"name":"A3","midi":57,"time":885.7669270833487,"velocity":0.8031496062992126,"duration":0.19791666666662877},{"name":"G3","midi":55,"time":885.967447916682,"velocity":0.8031496062992126,"duration":0.19791666666662877},{"name":"E5","midi":76,"time":885.967447916682,"velocity":0.8031496062992126,"duration":0.3984374999998863},{"name":"F#3","midi":54,"time":886.1679687500152,"velocity":0.8031496062992126,"duration":0.19791666666662877},{"name":"B3","midi":59,"time":886.3684895833485,"velocity":0.8031496062992126,"duration":0.19791666666662877},{"name":"D#5","midi":75,"time":886.3684895833485,"velocity":0.8031496062992126,"duration":0.3984375},{"name":"A4","midi":69,"time":886.3684895833485,"velocity":0.8031496062992126,"duration":0.3984375},{"name":"B2","midi":47,"time":886.5677083333485,"velocity":0.8031496062992126,"duration":0.19791666666662877},{"name":"E3","midi":52,"time":886.7682291666819,"velocity":0.8031496062992126,"duration":0.19921875},{"name":"E5","midi":76,"time":886.7682291666819,"velocity":0.8031496062992126,"duration":0.40234375},{"name":"G#4","midi":68,"time":886.7682291666819,"velocity":0.8031496062992126,"duration":0.40234375},{"name":"B2","midi":47,"time":886.9713541666819,"velocity":0.8031496062992126,"duration":0.19921875},{"name":"G#2","midi":44,"time":887.1731770833485,"velocity":0.8031496062992126,"duration":0.19921875},{"name":"B4","midi":71,"time":887.1731770833485,"velocity":0.8031496062992126,"duration":1.1848958333332575},{"name":"E4","midi":64,"time":887.1731770833485,"velocity":0.8031496062992126,"duration":0.80078125},{"name":"D5","midi":74,"time":887.1731770833485,"velocity":0.8031496062992126,"duration":0.80078125},{"name":"E2","midi":40,"time":887.3763020833485,"velocity":0.8031496062992126,"duration":0.19921875},{"name":"D3","midi":50,"time":887.5781250000151,"velocity":0.8031496062992126,"duration":0.19921875},{"name":"B2","midi":47,"time":887.7812500000151,"velocity":0.8031496062992126,"duration":0.19921875},{"name":"C3","midi":48,"time":887.9843750000151,"velocity":0.8031496062992126,"duration":0.20182291666662877},{"name":"A2","midi":45,"time":888.1888020833484,"velocity":0.8031496062992126,"duration":0.20182291666674246},{"name":"C3","midi":48,"time":888.3932291666817,"velocity":0.8031496062992126,"duration":0.20182291666662877},{"name":"E4","midi":64,"time":888.3932291666817,"velocity":0.8031496062992126,"duration":0.4062499999998863},{"name":"A4","midi":69,"time":888.3932291666817,"velocity":0.8031496062992126,"duration":0.4062499999998863},{"name":"C5","midi":72,"time":888.3932291666817,"velocity":0.8031496062992126,"duration":0.4062499999998863},{"name":"E3","midi":52,"time":888.597656250015,"velocity":0.8031496062992126,"duration":0.20182291666662877},{"name":"A3","midi":57,"time":888.8020833333483,"velocity":0.8031496062992126,"duration":0.20182291666662877},{"name":"D4","midi":62,"time":888.8020833333483,"velocity":0.8031496062992126,"duration":0.5989583333331439},{"name":"E4","midi":64,"time":888.8020833333483,"velocity":0.8031496062992126,"duration":0.7708333333330302},{"name":"B4","midi":71,"time":888.8020833333483,"velocity":0.8031496062992126,"duration":0.5989583333331439},{"name":"G#3","midi":56,"time":889.0065104166815,"velocity":0.8031496062992126,"duration":0.20182291666662877},{"name":"A3","midi":57,"time":889.2109375000148,"velocity":0.8031496062992126,"duration":0.20442708333325754},{"name":"E3","midi":52,"time":889.4179687500147,"velocity":0.8031496062992126,"duration":0.20572916666662877},{"name":"A3","midi":57,"time":889.6263020833479,"velocity":0.8031496062992126,"duration":0.20572916666662877},{"name":"D#4","midi":63,"time":889.6263020833479,"velocity":0.8031496062992126,"duration":0.41276041666662877},{"name":"F#4","midi":66,"time":889.6263020833479,"velocity":0.8031496062992126,"duration":0.20572916666662877},{"name":"A4","midi":69,"time":889.6263020833479,"velocity":0.8031496062992126,"duration":0.20572916666662877},{"name":"C4","midi":60,"time":889.8359375000146,"velocity":0.8031496062992126,"duration":0.20572916666662877},{"name":"G#4","midi":68,"time":889.8359375000146,"velocity":0.8031496062992126,"duration":0.20572916666662877},{"name":"E4","midi":64,"time":890.0442708333478,"velocity":0.8031496062992126,"duration":0.20572916666662877},{"name":"F#4","midi":66,"time":890.0442708333478,"velocity":0.8031496062992126,"duration":0.5247395833332575},{"name":"A4","midi":69,"time":890.0442708333478,"velocity":0.8031496062992126,"duration":0.5247395833332575},{"name":"D#4","midi":63,"time":890.2539062500144,"velocity":0.8031496062992126,"duration":0.20572916666662877},{"name":"E4","midi":64,"time":890.4622395833477,"velocity":0.8031496062992126,"duration":1.8424479166664014},{"name":"F#4","midi":66,"time":890.6770833333477,"velocity":0.8031496062992126,"duration":0.21484375},{"name":"G#4","midi":68,"time":890.8945312500143,"velocity":0.8031496062992126,"duration":0.21484375},{"name":"B4","midi":71,"time":891.111979166681,"velocity":0.8031496062992126,"duration":0.21484375},{"name":"E5","midi":76,"time":891.3294270833476,"velocity":0.8031496062992126,"duration":0.21484375},{"name":"D#5","midi":75,"time":891.5468750000142,"velocity":0.8031496062992126,"duration":0.21484375},{"name":"E5","midi":76,"time":891.7643229166808,"velocity":0.8031496062992126,"duration":1.0768229166666288},{"name":"B4","midi":71,"time":892.0364583333475,"velocity":0.8031496062992126,"duration":0.26953125},{"name":"G#4","midi":68,"time":892.3085937500141,"velocity":0.8031496062992126,"duration":0.26953125},{"name":"E4","midi":64,"time":892.5794270833475,"velocity":0.8031496062992126,"duration":0.5377604166666288},{"name":"E2","midi":40,"time":892.9570312500141,"velocity":0.8031496062992126,"duration":3.2630208333333712}],"controlChanges":{"7":[{"number":7,"time":0,"value":0.7874015748031497}]},"id":1,"name":"Piano 1","instrumentNumber":6,"instrument":"harpsichord","instrumentFamily":"piano","channelNumber":0,"isPercussion":false}]}