{"header":{"PPQ":240,"timeSignature":[1,4],"bpm":120,"name":""},"startTime":6.302083333333335,"duration":365.88958333333625,"tracks":[{"startTime":6.302083333333335,"duration":365.88958333333625,"length":3315,"notes":[{"name":"F#4","midi":66,"time":6.302083333333335,"velocity":0.5669291338582677,"duration":0.43125000000000036},{"name":"B2","midi":47,"time":6.302083333333335,"velocity":0.5669291338582677,"duration":0.21250000000000036},{"name":"C#3","midi":49,"time":6.531250000000002,"velocity":0.5669291338582677,"duration":0.21666666666666679},{"name":"B4","midi":71,"time":6.764583333333335,"velocity":0.5275590551181102,"duration":0.8291666666666666},{"name":"D3","midi":50,"time":6.764583333333335,"velocity":0.5669291338582677,"duration":0.21041666666666625},{"name":"E3","midi":52,"time":6.989583333333335,"velocity":0.5669291338582677,"duration":0.20624999999999982},{"name":"C#5","midi":73,"time":7.212500000000001,"velocity":0.5275590551181102,"duration":0.4062500000000009},{"name":"F#3","midi":54,"time":7.212500000000001,"velocity":0.5669291338582677,"duration":0.2020833333333334},{"name":"G#3","midi":56,"time":7.429166666666668,"velocity":0.5669291338582677,"duration":0.20208333333333428},{"name":"A4","midi":69,"time":7.645833333333336,"velocity":0.48031496062992124,"duration":0.40208333333333357},{"name":"F#5","midi":78,"time":7.647916666666669,"velocity":0.3858267716535433,"duration":0.7979166666666639},{"name":"A3","midi":57,"time":7.647916666666669,"velocity":0.5669291338582677,"duration":0.19583333333333375},{"name":"B3","midi":59,"time":7.860416666666669,"velocity":0.5669291338582677,"duration":0.1999999999999993},{"name":"G#4","midi":68,"time":8.075000000000001,"velocity":0.5275590551181102,"duration":0.39583333333333215},{"name":"C#4","midi":61,"time":8.075000000000001,"velocity":0.5669291338582677,"duration":0.19791666666666607},{"name":"B3","midi":59,"time":8.285416666666666,"velocity":0.5669291338582677,"duration":0.19583333333333286},{"name":"E5","midi":76,"time":8.495833333333332,"velocity":0.5275590551181102,"duration":0.39583333333333215},{"name":"C#5","midi":73,"time":8.497916666666665,"velocity":0.5275590551181102,"duration":0.7916666666666625},{"name":"A#3","midi":58,"time":8.497916666666665,"velocity":0.5669291338582677,"duration":0.19374999999999964},{"name":"F#3","midi":54,"time":8.706249999999997,"velocity":0.5669291338582677,"duration":0.19791666666666607},{"name":"D5","midi":74,"time":8.918749999999996,"velocity":0.5275590551181102,"duration":1.1770833333333268},{"name":"B3","midi":59,"time":8.918749999999996,"velocity":0.5669291338582677,"duration":0.19583333333333286},{"name":"A3","midi":57,"time":9.127083333333328,"velocity":0.5669291338582677,"duration":0.19791666666666607},{"name":"B4","midi":71,"time":9.339583333333326,"velocity":0.5275590551181102,"duration":0.19583333333333286},{"name":"G3","midi":55,"time":9.34166666666666,"velocity":0.5669291338582677,"duration":0.19166666666666643},{"name":"A4","midi":69,"time":9.547916666666659,"velocity":0.5275590551181102,"duration":0.19791666666666607},{"name":"F#3","midi":54,"time":9.549999999999992,"velocity":0.5669291338582677,"duration":0.19374999999999964},{"name":"G4","midi":67,"time":9.758333333333324,"velocity":0.5669291338582677,"duration":0.9812499999999957},{"name":"E3","midi":52,"time":9.758333333333324,"velocity":0.5669291338582677,"duration":0.19374999999999964},{"name":"C#3","midi":49,"time":9.966666666666656,"velocity":0.5669291338582677,"duration":0.19166666666666643},{"name":"C#5","midi":73,"time":10.172916666666655,"velocity":0.5275590551181102,"duration":0.19374999999999964},{"name":"D3","midi":50,"time":10.172916666666655,"velocity":0.5669291338582677,"duration":0.19374999999999964},{"name":"B4","midi":71,"time":10.379166666666654,"velocity":0.5275590551181102,"duration":0.1999999999999993},{"name":"E3","midi":52,"time":10.381249999999987,"velocity":0.5669291338582677,"duration":0.19583333333333286},{"name":"A#4","midi":70,"time":10.591666666666653,"velocity":0.5275590551181102,"duration":0.40000000000000036},{"name":"F#3","midi":54,"time":10.593749999999986,"velocity":0.5669291338582677,"duration":0.19583333333333464},{"name":"F#4","midi":66,"time":10.804166666666653,"velocity":0.5669291338582677,"duration":0.1999999999999993},{"name":"F#2","midi":42,"time":10.804166666666653,"velocity":0.5669291338582677,"duration":0.1999999999999993},{"name":"B4","midi":71,"time":11.018749999999985,"velocity":0.5275590551181102,"duration":0.19583333333333286},{"name":"E4","midi":64,"time":11.018749999999985,"velocity":0.5669291338582677,"duration":0.7812499999999964},{"name":"G#2","midi":44,"time":11.020833333333318,"velocity":0.5669291338582677,"duration":0.19374999999999964},{"name":"C#5","midi":73,"time":11.22916666666665,"velocity":0.5275590551181102,"duration":0.19374999999999964},{"name":"A#2","midi":46,"time":11.22916666666665,"velocity":0.5669291338582677,"duration":0.19374999999999964},{"name":"F#4","midi":66,"time":11.437499999999982,"velocity":0.5669291338582677,"duration":0.3854166666666661},{"name":"B2","midi":47,"time":11.437499999999982,"velocity":0.5669291338582677,"duration":0.19374999999999964},{"name":"C#3","midi":49,"time":11.645833333333314,"velocity":0.5669291338582677,"duration":0.1875},{"name":"B4","midi":71,"time":11.849999999999982,"velocity":0.5275590551181102,"duration":0.7812499999999964},{"name":"D4","midi":62,"time":11.849999999999982,"velocity":0.5669291338582677,"duration":0.3874999999999993},{"name":"D3","midi":50,"time":11.849999999999982,"velocity":0.5669291338582677,"duration":0.18958333333333321},{"name":"E3","midi":52,"time":12.054166666666648,"velocity":0.5669291338582677,"duration":0.19583333333333286},{"name":"C#4","midi":61,"time":12.264583333333313,"velocity":0.5669291338582677,"duration":0.3916666666666657},{"name":"F#3","midi":54,"time":12.266666666666646,"velocity":0.5669291338582677,"duration":0.19166666666666643},{"name":"G#3","midi":56,"time":12.472916666666645,"velocity":0.5669291338582677,"duration":0.19583333333333286},{"name":"A4","midi":69,"time":12.68333333333331,"velocity":0.5275590551181102,"duration":0.3895833333333343},{"name":"F#4","midi":66,"time":12.68333333333331,"velocity":0.5669291338582677,"duration":0.7812499999999982},{"name":"A3","midi":57,"time":12.685416666666644,"velocity":0.5669291338582677,"duration":0.18958333333333321},{"name":"F#3","midi":54,"time":12.891666666666644,"velocity":0.5669291338582677,"duration":0.19374999999999964},{"name":"G4","midi":67,"time":13.099999999999977,"velocity":0.5669291338582677,"duration":0.7833333333333297},{"name":"B3","midi":59,"time":13.099999999999977,"velocity":0.5669291338582677,"duration":0.19166666666666643},{"name":"B2","midi":47,"time":13.306249999999975,"velocity":0.5669291338582677,"duration":0.19374999999999964},{"name":"E4","midi":64,"time":13.514583333333308,"velocity":0.5669291338582677,"duration":0.7812499999999964},{"name":"C#3","midi":49,"time":13.51666666666664,"velocity":0.5669291338582677,"duration":0.19374999999999964},{"name":"A2","midi":45,"time":13.724999999999973,"velocity":0.5669291338582677,"duration":0.19374999999999964},{"name":"F#4","midi":66,"time":13.933333333333305,"velocity":0.5669291338582677,"duration":0.77708333333333},{"name":"D3","midi":50,"time":13.933333333333305,"velocity":0.5669291338582677,"duration":0.18958333333333321},{"name":"C#3","midi":49,"time":14.13749999999997,"velocity":0.5669291338582677,"duration":0.19374999999999964},{"name":"D4","midi":62,"time":14.345833333333303,"velocity":0.5669291338582677,"duration":0.7812499999999964},{"name":"B2","midi":47,"time":14.345833333333303,"velocity":0.5669291338582677,"duration":0.19374999999999964},{"name":"A2","midi":45,"time":14.552083333333302,"velocity":0.5669291338582677,"duration":0.19791666666666607},{"name":"B4","midi":71,"time":14.760416666666634,"velocity":0.5039370078740157,"duration":0.3895833333333325},{"name":"G2","midi":43,"time":14.762499999999967,"velocity":0.5669291338582677,"duration":0.19166666666666643},{"name":"F#3","midi":54,"time":14.968749999999966,"velocity":0.5669291338582677,"duration":0.19374999999999964},{"name":"E5","midi":76,"time":15.177083333333298,"velocity":0.48031496062992124,"duration":0.3895833333333325},{"name":"E3","midi":52,"time":15.177083333333298,"velocity":0.5669291338582677,"duration":0.19374999999999964},{"name":"G4","midi":67,"time":15.179166666666632,"velocity":0.5669291338582677,"duration":0.7729166666666636},{"name":"D3","midi":50,"time":15.38541666666663,"velocity":0.5669291338582677,"duration":0.19374999999999964},{"name":"A4","midi":69,"time":15.593749999999963,"velocity":0.5275590551181102,"duration":0.38333333333333286},{"name":"C#3","midi":49,"time":15.593749999999963,"velocity":0.5669291338582677,"duration":0.19166666666666643},{"name":"A3","midi":57,"time":15.797916666666628,"velocity":0.5669291338582677,"duration":0.19166666666666643},{"name":"D5","midi":74,"time":16.002083333333296,"velocity":0.5039370078740157,"duration":0.7708333333333357},{"name":"F#4","midi":66,"time":16.00416666666663,"velocity":0.5669291338582677,"duration":0.38333333333333286},{"name":"B3","midi":59,"time":16.00416666666663,"velocity":0.5669291338582677,"duration":0.189583333333335},{"name":"F#3","midi":54,"time":16.206249999999965,"velocity":0.5669291338582677,"duration":0.19374999999999787},{"name":"E4","midi":64,"time":16.412499999999962,"velocity":0.5669291338582677,"duration":0.7645833333333378},{"name":"G3","midi":55,"time":16.414583333333297,"velocity":0.5669291338582677,"duration":0.189583333333335},{"name":"E3","midi":52,"time":16.618749999999967,"velocity":0.5669291338582677,"duration":0.18958333333333144},{"name":"C#5","midi":73,"time":16.822916666666632,"velocity":0.5039370078740157,"duration":0.377083333333335},{"name":"A3","midi":57,"time":16.822916666666632,"velocity":0.5669291338582677,"duration":0.189583333333335},{"name":"A2","midi":45,"time":17.0270833333333,"velocity":0.5669291338582677,"duration":0.185416666666665},{"name":"D5","midi":74,"time":17.224999999999966,"velocity":0.5039370078740157,"duration":0.09375},{"name":"F#4","midi":66,"time":17.2270833333333,"velocity":0.5669291338582677,"duration":0.3812500000000014},{"name":"D3","midi":50,"time":17.2270833333333,"velocity":0.5669291338582677,"duration":0.18749999999999645},{"name":"C#5","midi":73,"time":17.3270833333333,"velocity":0.5039370078740157,"duration":0.09375},{"name":"B4","midi":71,"time":17.42916666666663,"velocity":0.5275590551181102,"duration":0.09583333333333499},{"name":"E3","midi":52,"time":17.431249999999967,"velocity":0.5669291338582677,"duration":0.189583333333335},{"name":"A4","midi":69,"time":17.531249999999968,"velocity":0.5275590551181102,"duration":0.09791666666666643},{"name":"D5","midi":74,"time":17.635416666666636,"velocity":0.5039370078740157,"duration":0.78958333333334},{"name":"F#3","midi":54,"time":17.63749999999997,"velocity":0.5669291338582677,"duration":0.19375000000000142},{"name":"G3","midi":55,"time":17.845833333333307,"velocity":0.5669291338582677,"duration":0.19583333333333286},{"name":"E4","midi":64,"time":18.056249999999974,"velocity":0.5669291338582677,"duration":0.39166666666666927},{"name":"A2","midi":45,"time":18.056249999999974,"velocity":0.5669291338582677,"duration":0.19375000000000142},{"name":"B2","midi":47,"time":18.26666666666664,"velocity":0.5669291338582677,"duration":0.19375000000000142},{"name":"A4","midi":69,"time":18.474999999999977,"velocity":0.5275590551181102,"duration":0.7750000000000057},{"name":"C#5","midi":73,"time":18.474999999999977,"velocity":0.5039370078740157,"duration":0.3895833333333343},{"name":"C#3","midi":49,"time":18.474999999999977,"velocity":0.5669291338582677,"duration":0.19375000000000142},{"name":"D3","midi":50,"time":18.681249999999977,"velocity":0.5669291338582677,"duration":0.19375000000000142},{"name":"B4","midi":71,"time":18.889583333333313,"velocity":0.5275590551181102,"duration":0.38541666666666785},{"name":"E3","midi":52,"time":18.891666666666648,"velocity":0.5669291338582677,"duration":0.189583333333335},{"name":"F#3","midi":54,"time":19.095833333333317,"velocity":0.5669291338582677,"duration":0.18958333333333144},{"name":"E5","midi":76,"time":19.299999999999983,"velocity":0.5275590551181102,"duration":0.7750000000000057},{"name":"G4","midi":67,"time":19.299999999999983,"velocity":0.5669291338582677,"duration":0.3854166666666714},{"name":"G3","midi":55,"time":19.302083333333318,"velocity":0.5669291338582677,"duration":0.189583333333335},{"name":"A3","midi":57,"time":19.506249999999987,"velocity":0.5669291338582677,"duration":0.19166666666666643},{"name":"F#4","midi":66,"time":19.712499999999988,"velocity":0.5669291338582677,"duration":0.3874999999999993},{"name":"B2","midi":47,"time":19.712499999999988,"velocity":0.5669291338582677,"duration":0.19166666666666643},{"name":"C#3","midi":49,"time":19.916666666666654,"velocity":0.5669291338582677,"duration":0.19583333333333286},{"name":"D5","midi":74,"time":20.124999999999986,"velocity":0.5275590551181102,"duration":0.3937500000000007},{"name":"B4","midi":71,"time":20.12708333333332,"velocity":0.5275590551181102,"duration":0.7791666666666721},{"name":"D3","midi":50,"time":20.12708333333332,"velocity":0.5669291338582677,"duration":0.19583333333333286},{"name":"E3","midi":52,"time":20.335416666666653,"velocity":0.5669291338582677,"duration":0.19375000000000142},{"name":"C#5","midi":73,"time":20.54374999999999,"velocity":0.5275590551181102,"duration":0.3854166666666714},{"name":"F#3","midi":54,"time":20.545833333333324,"velocity":0.5669291338582677,"duration":0.189583333333335},{"name":"G#3","midi":56,"time":20.749999999999993,"velocity":0.5669291338582677,"duration":0.19166666666666643},{"name":"F#5","midi":78,"time":20.956249999999994,"velocity":0.4330708661417323,"duration":0.7708333333333357},{"name":"A4","midi":69,"time":20.956249999999994,"velocity":0.5275590551181102,"duration":0.38541666666666785},{"name":"A3","midi":57,"time":20.95833333333333,"velocity":0.5669291338582677,"duration":0.189583333333335},{"name":"B3","midi":59,"time":21.160416666666663,"velocity":0.5669291338582677,"duration":0.19374999999999787},{"name":"G#4","midi":68,"time":21.36666666666666,"velocity":0.5275590551181102,"duration":0.38541666666666785},{"name":"C#4","midi":61,"time":21.36666666666666,"velocity":0.5669291338582677,"duration":0.19375000000000142},{"name":"B3","midi":59,"time":21.574999999999996,"velocity":0.5669291338582677,"duration":0.18958333333333144},{"name":"C#5","midi":73,"time":21.77916666666666,"velocity":0.5275590551181102,"duration":0.7604166666666679},{"name":"F5","midi":77,"time":21.77916666666666,"velocity":0.4330708661417323,"duration":0.37916666666666643},{"name":"C#4","midi":61,"time":21.77916666666666,"velocity":0.5669291338582677,"duration":0.189583333333335},{"name":"A3","midi":57,"time":21.981249999999996,"velocity":0.5669291338582677,"duration":0.18958333333333144},{"name":"F#5","midi":78,"time":22.18541666666666,"velocity":0.4094488188976378,"duration":0.377083333333335},{"name":"D4","midi":62,"time":22.18541666666666,"velocity":0.5669291338582677,"duration":0.1875},{"name":"C#4","midi":61,"time":22.387499999999996,"velocity":0.5669291338582677,"duration":0.1875},{"name":"B4","midi":71,"time":22.58958333333333,"velocity":0.5275590551181102,"duration":0.7604166666666643},{"name":"G#5","midi":80,"time":22.58958333333333,"velocity":0.3858267716535433,"duration":0.37916666666666643},{"name":"D4","midi":62,"time":22.591666666666665,"velocity":0.5669291338582677,"duration":0.185416666666665},{"name":"B3","midi":59,"time":22.791666666666664,"velocity":0.5669291338582677,"duration":0.18958333333333144},{"name":"C#5","midi":73,"time":22.993749999999995,"velocity":0.5275590551181102,"duration":0.37708333333333144},{"name":"F3","midi":53,"time":22.993749999999995,"velocity":0.5669291338582677,"duration":0.1875},{"name":"C#4","midi":61,"time":23.19791666666666,"velocity":0.5669291338582677,"duration":0.185416666666665},{"name":"F#5","midi":78,"time":23.39791666666666,"velocity":0.4094488188976378,"duration":0.7625000000000028},{"name":"A4","midi":69,"time":23.39791666666666,"velocity":0.5275590551181102,"duration":0.377083333333335},{"name":"D4","midi":62,"time":23.399999999999995,"velocity":0.5669291338582677,"duration":0.18333333333333357},{"name":"A3","midi":57,"time":23.597916666666663,"velocity":0.5669291338582677,"duration":0.18958333333333144},{"name":"G#4","midi":68,"time":23.799999999999994,"velocity":0.5275590551181102,"duration":0.7708333333333428},{"name":"B3","midi":59,"time":23.80208333333333,"velocity":0.5669291338582677,"duration":0.189583333333335},{"name":"G#3","midi":56,"time":24.004166666666663,"velocity":0.5669291338582677,"duration":0.19375000000000142},{"name":"F5","midi":77,"time":24.208333333333332,"velocity":0.4330708661417323,"duration":0.38750000000000284},{"name":"C#4","midi":61,"time":24.210416666666667,"velocity":0.5669291338582677,"duration":0.189583333333335},{"name":"C#3","midi":49,"time":24.414583333333336,"velocity":0.5669291338582677,"duration":0.19166666666666643},{"name":"F#5","midi":78,"time":24.620833333333337,"velocity":0.4330708661417323,"duration":0.3833333333333364},{"name":"A4","midi":69,"time":24.622916666666672,"velocity":0.5275590551181102,"duration":0.37916666666666643},{"name":"F#3","midi":54,"time":24.622916666666672,"velocity":0.5669291338582677,"duration":0.1875},{"name":"E3","midi":52,"time":24.825000000000006,"velocity":0.5669291338582677,"duration":0.189583333333335},{"name":"D5","midi":74,"time":25.029166666666676,"velocity":0.5275590551181102,"duration":0.7604166666666714},{"name":"F#3","midi":54,"time":25.029166666666676,"velocity":0.5669291338582677,"duration":0.189583333333335},{"name":"G#3","midi":56,"time":25.233333333333345,"velocity":0.5669291338582677,"duration":0.1875},{"name":"E5","midi":76,"time":25.43541666666668,"velocity":0.5275590551181102,"duration":0.377083333333335},{"name":"A3","midi":57,"time":25.43541666666668,"velocity":0.5669291338582677,"duration":0.1875},{"name":"B3","midi":59,"time":25.637500000000014,"velocity":0.5669291338582677,"duration":0.1875},{"name":"A5","midi":81,"time":25.839583333333348,"velocity":0.4330708661417323,"duration":0.7583333333333364},{"name":"C#5","midi":73,"time":25.839583333333348,"velocity":0.5275590551181102,"duration":0.377083333333335},{"name":"C#4","midi":61,"time":25.841666666666683,"velocity":0.5669291338582677,"duration":0.185416666666665},{"name":"D4","midi":62,"time":26.041666666666682,"velocity":0.5669291338582677,"duration":0.1875},{"name":"B4","midi":71,"time":26.243750000000016,"velocity":0.5275590551181102,"duration":0.375},{"name":"E3","midi":52,"time":26.24583333333335,"velocity":0.5669291338582677,"duration":0.18333333333333357},{"name":"F#3","midi":54,"time":26.44375000000002,"velocity":0.5669291338582677,"duration":0.18749999999999645},{"name":"G5","midi":79,"time":26.64583333333335,"velocity":0.4330708661417323,"duration":0.38750000000000284},{"name":"E5","midi":76,"time":26.647916666666685,"velocity":0.5275590551181102,"duration":0.7729166666666671},{"name":"G3","midi":55,"time":26.647916666666685,"velocity":0.5669291338582677,"duration":0.189583333333335},{"name":"A3","midi":57,"time":26.852083333333354,"velocity":0.5669291338582677,"duration":0.19374999999999787},{"name":"F#5","midi":78,"time":27.060416666666686,"velocity":0.4330708661417323,"duration":0.3854166666666643},{"name":"B3","midi":59,"time":27.060416666666686,"velocity":0.5669291338582677,"duration":0.19166666666666643},{"name":"C#4","midi":61,"time":27.266666666666687,"velocity":0.5669291338582677,"duration":0.18958333333333144},{"name":"B5","midi":83,"time":27.472916666666684,"velocity":0.4330708661417323,"duration":0.7583333333333329},{"name":"D5","midi":74,"time":27.472916666666684,"velocity":0.5275590551181102,"duration":0.375},{"name":"D4","midi":62,"time":27.47500000000002,"velocity":0.5669291338582677,"duration":0.185416666666665},{"name":"E4","midi":64,"time":27.67500000000002,"velocity":0.5669291338582677,"duration":0.185416666666665},{"name":"C#5","midi":73,"time":27.875000000000018,"velocity":0.5275590551181102,"duration":0.38124999999999787},{"name":"F#3","midi":54,"time":27.875000000000018,"velocity":0.5669291338582677,"duration":0.189583333333335},{"name":"E3","midi":52,"time":28.077083333333352,"velocity":0.5669291338582677,"duration":0.19166666666666288},{"name":"A#5","midi":82,"time":28.281250000000014,"velocity":0.4330708661417323,"duration":0.37291666666666856},{"name":"F#5","midi":78,"time":28.28333333333335,"velocity":0.4330708661417323,"duration":0.5583333333333371},{"name":"F#3","midi":54,"time":28.28333333333335,"velocity":0.5669291338582677,"duration":0.18333333333333357},{"name":"D3","midi":50,"time":28.479166666666682,"velocity":0.5669291338582677,"duration":0.1875},{"name":"B5","midi":83,"time":28.67708333333335,"velocity":0.4330708661417323,"duration":0.5708333333333435},{"name":"G3","midi":55,"time":28.679166666666685,"velocity":0.5669291338582677,"duration":0.1875},{"name":"B4","midi":71,"time":28.877083333333353,"velocity":0.5275590551181102,"duration":0.19166666666666998},{"name":"F#3","midi":54,"time":28.879166666666688,"velocity":0.5669291338582677,"duration":0.189583333333335},{"name":"E5","midi":76,"time":29.07916666666669,"velocity":0.5275590551181102,"duration":0.5750000000000028},{"name":"G3","midi":55,"time":29.081250000000026,"velocity":0.5669291338582677,"duration":0.19166666666666643},{"name":"A5","midi":81,"time":29.28541666666669,"velocity":0.4330708661417323,"duration":0.09375},{"name":"E3","midi":52,"time":29.287500000000026,"velocity":0.5669291338582677,"duration":0.18749999999999645},{"name":"G5","midi":79,"time":29.387500000000024,"velocity":0.4330708661417323,"duration":0.09375},{"name":"F#5","midi":78,"time":29.489583333333357,"velocity":0.4330708661417323,"duration":0.5708333333333435},{"name":"A#3","midi":58,"time":29.491666666666692,"velocity":0.5669291338582677,"duration":0.18541666666666856},{"name":"D5","midi":74,"time":29.691666666666695,"velocity":0.5275590551181102,"duration":0.09583333333333499},{"name":"F#3","midi":54,"time":29.69375000000003,"velocity":0.5669291338582677,"duration":0.1875},{"name":"C#5","midi":73,"time":29.79375000000003,"velocity":0.5275590551181102,"duration":0.09375},{"name":"D5","midi":74,"time":29.895833333333364,"velocity":0.5275590551181102,"duration":0.18958333333333854},{"name":"B3","midi":59,"time":29.8979166666667,"velocity":0.5669291338582677,"duration":0.18541666666666856},{"name":"G5","midi":79,"time":30.097916666666702,"velocity":0.4330708661417323,"duration":0.18750000000000355},{"name":"B4","midi":71,"time":30.100000000000037,"velocity":0.5275590551181102,"duration":0.18541666666666856},{"name":"E3","midi":52,"time":30.100000000000037,"velocity":0.5669291338582677,"duration":0.18333333333333357},{"name":"D5","midi":74,"time":30.297916666666705,"velocity":0.5275590551181102,"duration":0.377083333333335},{"name":"B4","midi":71,"time":30.30000000000004,"velocity":0.5275590551181102,"duration":0.375},{"name":"F#3","midi":54,"time":30.30000000000004,"velocity":0.5669291338582677,"duration":0.185416666666665},{"name":"E3","midi":52,"time":30.50000000000004,"velocity":0.5669291338582677,"duration":0.18541666666666856},{"name":"C#5","midi":73,"time":30.700000000000042,"velocity":0.5275590551181102,"duration":0.37500000000000355},{"name":"A#4","midi":70,"time":30.700000000000042,"velocity":0.5275590551181102,"duration":0.37708333333333854},{"name":"F#3","midi":54,"time":30.702083333333377,"velocity":0.5669291338582677,"duration":0.18333333333333357},{"name":"F#2","midi":42,"time":30.900000000000045,"velocity":0.5669291338582677,"duration":0.18750000000000355},{"name":"B4","midi":71,"time":31.102083333333383,"velocity":0.5275590551181102,"duration":0.38750000000000284},{"name":"B2","midi":47,"time":31.104166666666718,"velocity":0.5669291338582677,"duration":0.38333333333333286},{"name":"G5","midi":79,"time":31.308333333333383,"velocity":0.4330708661417323,"duration":0.38333333333333286},{"name":"C#5","midi":73,"time":31.514583333333384,"velocity":0.5275590551181102,"duration":0.3812500000000014},{"name":"A2","midi":45,"time":31.514583333333384,"velocity":0.5669291338582677,"duration":0.36666666666666714},{"name":"F#5","midi":78,"time":31.71875000000005,"velocity":0.4330708661417323,"duration":0.38125000000001563},{"name":"D5","midi":74,"time":31.92291666666672,"velocity":0.5275590551181102,"duration":0.5750000000000348},{"name":"A2","midi":45,"time":31.925000000000054,"velocity":0.5669291338582677,"duration":0.02708333333333357},{"name":"G2","midi":43,"time":31.956250000000054,"velocity":0.5669291338582677,"duration":0.02916666666666501},{"name":"A2","midi":45,"time":31.99166666666672,"velocity":0.5669291338582677,"duration":0.02916666666666501},{"name":"G2","midi":43,"time":32.025000000000055,"velocity":0.5669291338582677,"duration":0.02916666666666856},{"name":"A2","midi":45,"time":32.058333333333394,"velocity":0.5669291338582677,"duration":0.02916666666666856},{"name":"G2","midi":43,"time":32.093750000000064,"velocity":0.5669291338582677,"duration":0.02916666666666856},{"name":"B5","midi":83,"time":32.1270833333334,"velocity":0.4330708661417323,"duration":0.09583333333333854},{"name":"A2","midi":45,"time":32.1270833333334,"velocity":0.5669291338582677,"duration":0.02916666666666856},{"name":"G2","midi":43,"time":32.16041666666674,"velocity":0.5669291338582677,"duration":0.02916666666666856},{"name":"A2","midi":45,"time":32.19583333333341,"velocity":0.5669291338582677,"duration":0.029166666666661456},{"name":"A#5","midi":82,"time":32.22916666666674,"velocity":0.4330708661417323,"duration":0.09583333333333854},{"name":"G2","midi":43,"time":32.22916666666674,"velocity":0.5669291338582677,"duration":0.02916666666666856},{"name":"A2","midi":45,"time":32.26250000000008,"velocity":0.5669291338582677,"duration":0.02916666666666856},{"name":"G2","midi":43,"time":32.306250000000084,"velocity":0.5669291338582677,"duration":0.03125},{"name":"B5","midi":83,"time":32.33125000000008,"velocity":0.4330708661417323,"duration":0.38125000000001563},{"name":"A2","midi":45,"time":32.339583333333415,"velocity":0.5669291338582677,"duration":0.03125},{"name":"G2","midi":43,"time":32.38333333333342,"velocity":0.5669291338582677,"duration":0.02916666666666856},{"name":"A2","midi":45,"time":32.41875000000009,"velocity":0.5669291338582677,"duration":0.03125},{"name":"G2","midi":43,"time":32.46041666666675,"velocity":0.5669291338582677,"duration":0.02916666666666856},{"name":"A2","midi":45,"time":32.500000000000085,"velocity":0.5669291338582677,"duration":0.03125},{"name":"E5","midi":76,"time":32.535416666666755,"velocity":0.5275590551181102,"duration":0.3854166666666714},{"name":"G2","midi":43,"time":32.54166666666676,"velocity":0.5669291338582677,"duration":0.03125},{"name":"A2","midi":45,"time":32.57916666666676,"velocity":0.5669291338582677,"duration":0.03125},{"name":"G2","midi":43,"time":32.62083333333342,"velocity":0.5669291338582677,"duration":0.02916666666666856},{"name":"A2","midi":45,"time":32.65416666666676,"velocity":0.5669291338582677,"duration":0.03125},{"name":"G2","midi":43,"time":32.69166666666676,"velocity":0.5669291338582677,"duration":0.03125},{"name":"A#5","midi":82,"time":32.73958333333343,"velocity":0.4330708661417323,"duration":0.19166666666666288},{"name":"F#2","midi":42,"time":32.73958333333343,"velocity":0.5669291338582677,"duration":1.5729166666666643},{"name":"D5","midi":74,"time":32.94791666666676,"velocity":0.5275590551181102,"duration":0.19583333333333286},{"name":"B5","midi":83,"time":32.94791666666676,"velocity":0.4330708661417323,"duration":0.19583333333333286},{"name":"E5","midi":76,"time":33.154166666666754,"velocity":0.5275590551181102,"duration":0.1979166666666643},{"name":"C#5","midi":73,"time":33.156250000000085,"velocity":0.5275590551181102,"duration":0.19375000000000142},{"name":"B4","midi":71,"time":33.36458333333342,"velocity":0.5275590551181102,"duration":0.19375000000000142},{"name":"D5","midi":74,"time":33.36666666666675,"velocity":0.5275590551181102,"duration":0.17916666666666714},{"name":"D5","midi":74,"time":33.57291666666676,"velocity":0.5275590551181102,"duration":0.03125},{"name":"A#4","midi":70,"time":33.57500000000009,"velocity":0.5275590551181102,"duration":0.7916666666666714},{"name":"C#5","midi":73,"time":33.60833333333343,"velocity":0.5275590551181102,"duration":0.03333333333333144},{"name":"D5","midi":74,"time":33.64375000000009,"velocity":0.5275590551181102,"duration":0.03125},{"name":"C#5","midi":73,"time":33.67916666666676,"velocity":0.5275590551181102,"duration":0.03125},{"name":"D5","midi":74,"time":33.71250000000009,"velocity":0.5275590551181102,"duration":0.03333333333333144},{"name":"C#5","midi":73,"time":33.75000000000009,"velocity":0.5275590551181102,"duration":0.6270833333333314},{"name":"F#4","midi":66,"time":34.41875000000009,"velocity":0.5669291338582677,"duration":0.40416666666666146},{"name":"B2","midi":47,"time":34.42083333333342,"velocity":0.5669291338582677,"duration":0.1979166666666643},{"name":"C#3","midi":49,"time":34.63333333333342,"velocity":0.5669291338582677,"duration":0.20416666666666572},{"name":"B4","midi":71,"time":34.85000000000009,"velocity":0.5275590551181102,"duration":0.8062500000000057},{"name":"D3","midi":50,"time":34.85208333333342,"velocity":0.5669291338582677,"duration":0.20000000000000284},{"name":"E3","midi":52,"time":35.066666666666755,"velocity":0.5669291338582677,"duration":0.1979166666666643},{"name":"C#5","midi":73,"time":35.279166666666754,"velocity":0.5275590551181102,"duration":0.4020833333333371},{"name":"F#3","midi":54,"time":35.279166666666754,"velocity":0.5669291338582677,"duration":0.20208333333333428},{"name":"G#3","midi":56,"time":35.49583333333342,"velocity":0.5669291338582677,"duration":0.20000000000000284},{"name":"F#5","midi":78,"time":35.71041666666676,"velocity":0.4094488188976378,"duration":0.7937500000000028},{"name":"A4","midi":69,"time":35.71041666666676,"velocity":0.5275590551181102,"duration":0.40208333333333},{"name":"A3","midi":57,"time":35.71041666666676,"velocity":0.5669291338582677,"duration":0.1979166666666643},{"name":"B3","midi":59,"time":35.92500000000009,"velocity":0.5669291338582677,"duration":0.20000000000000284},{"name":"G#4","midi":68,"time":36.14166666666676,"velocity":0.5275590551181102,"duration":0.38750000000000284},{"name":"C#4","midi":61,"time":36.14375000000009,"velocity":0.5669291338582677,"duration":0.19166666666666998},{"name":"B3","midi":59,"time":36.350000000000094,"velocity":0.5669291338582677,"duration":0.19166666666666998},{"name":"C#5","midi":73,"time":36.5562500000001,"velocity":0.5275590551181102,"duration":0.7708333333333286},{"name":"E5","midi":76,"time":36.5562500000001,"velocity":0.5039370078740157,"duration":0.38333333333333286},{"name":"A#3","midi":58,"time":36.55833333333343,"velocity":0.5669291338582677,"duration":0.1875},{"name":"F#3","midi":54,"time":36.760416666666764,"velocity":0.5669291338582677,"duration":0.18958333333333144},{"name":"D5","midi":74,"time":36.96666666666676,"velocity":0.5039370078740157,"duration":1.160416666666677},{"name":"B3","midi":59,"time":36.96666666666676,"velocity":0.5669291338582677,"duration":0.18958333333333144},{"name":"A3","midi":57,"time":37.17291666666676,"velocity":0.5669291338582677,"duration":0.18958333333333854},{"name":"B4","midi":71,"time":37.37708333333343,"velocity":0.5275590551181102,"duration":0.19166666666666288},{"name":"G3","midi":55,"time":37.37916666666676,"velocity":0.5669291338582677,"duration":0.1875},{"name":"A4","midi":69,"time":37.5812500000001,"velocity":0.5275590551181102,"duration":0.19375000000000142},{"name":"F#3","midi":54,"time":37.58333333333343,"velocity":0.5669291338582677,"duration":0.19166666666666998},{"name":"G4","midi":67,"time":37.7875000000001,"velocity":0.5669291338582677,"duration":0.9750000000000085},{"name":"E3","midi":52,"time":37.78958333333343,"velocity":0.5669291338582677,"duration":0.19166666666666998},{"name":"C#3","midi":49,"time":37.99583333333344,"velocity":0.5669291338582677,"duration":0.19375000000000142},{"name":"C#5","midi":73,"time":38.20416666666677,"velocity":0.5275590551181102,"duration":0.19583333333333286},{"name":"D3","midi":50,"time":38.20416666666677,"velocity":0.5669291338582677,"duration":0.19375000000000142},{"name":"B4","midi":71,"time":38.41250000000011,"velocity":0.5275590551181102,"duration":0.19166666666666998},{"name":"E3","midi":52,"time":38.41250000000011,"velocity":0.5669291338582677,"duration":0.19166666666666998},{"name":"A#4","midi":70,"time":38.61875000000011,"velocity":0.5275590551181102,"duration":0.3895833333333272},{"name":"F#3","midi":54,"time":38.61875000000011,"velocity":0.5669291338582677,"duration":0.19374999999999432},{"name":"F#4","midi":66,"time":38.82500000000011,"velocity":0.5669291338582677,"duration":0.19583333333333286},{"name":"F#2","midi":42,"time":38.82708333333344,"velocity":0.5669291338582677,"duration":0.19375000000000142},{"name":"B4","midi":71,"time":39.033333333333445,"velocity":0.5275590551181102,"duration":0.19583333333333286},{"name":"E4","midi":64,"time":39.03541666666678,"velocity":0.5669291338582677,"duration":0.7750000000000128},{"name":"G#2","midi":44,"time":39.03541666666678,"velocity":0.5669291338582677,"duration":0.19166666666666998},{"name":"C#5","midi":73,"time":39.24166666666678,"velocity":0.5275590551181102,"duration":0.1979166666666643},{"name":"A#2","midi":46,"time":39.24375000000011,"velocity":0.5669291338582677,"duration":0.19375000000000142},{"name":"F#4","midi":66,"time":39.45208333333345,"velocity":0.5669291338582677,"duration":0.3812500000000085},{"name":"B2","midi":47,"time":39.45208333333345,"velocity":0.5669291338582677,"duration":0.19166666666666998},{"name":"C#3","midi":49,"time":39.65625000000012,"velocity":0.5669291338582677,"duration":0.18958333333333854},{"name":"B4","midi":71,"time":39.860416666666794,"velocity":0.5275590551181102,"duration":0.7708333333333357},{"name":"D3","midi":50,"time":39.860416666666794,"velocity":0.5669291338582677,"duration":0.19166666666666288},{"name":"D4","midi":62,"time":39.862500000000125,"velocity":0.5669291338582677,"duration":0.38333333333333286},{"name":"E3","midi":52,"time":40.06666666666679,"velocity":0.5669291338582677,"duration":0.19166666666666998},{"name":"C#4","midi":61,"time":40.270833333333464,"velocity":0.5669291338582677,"duration":0.3854166666666643},{"name":"F#3","midi":54,"time":40.270833333333464,"velocity":0.5669291338582677,"duration":0.19375000000000142},{"name":"G#3","midi":56,"time":40.47500000000013,"velocity":0.5669291338582677,"duration":0.19375000000000142},{"name":"A4","midi":69,"time":40.683333333333465,"velocity":0.5275590551181102,"duration":0.3854166666666714},{"name":"F#4","midi":66,"time":40.683333333333465,"velocity":0.5669291338582677,"duration":0.7708333333333357},{"name":"A3","midi":57,"time":40.683333333333465,"velocity":0.5669291338582677,"duration":0.19166666666666998},{"name":"F#3","midi":54,"time":40.88958333333347,"velocity":0.5669291338582677,"duration":0.18958333333333144},{"name":"G4","midi":67,"time":41.095833333333466,"velocity":0.5669291338582677,"duration":0.7645833333333414},{"name":"B3","midi":59,"time":41.095833333333466,"velocity":0.5669291338582677,"duration":0.1875},{"name":"B2","midi":47,"time":41.2979166666668,"velocity":0.5669291338582677,"duration":0.19166666666666998},{"name":"E4","midi":64,"time":41.50208333333347,"velocity":0.5669291338582677,"duration":0.7625000000000028},{"name":"C#3","midi":49,"time":41.504166666666805,"velocity":0.5669291338582677,"duration":0.1875},{"name":"A2","midi":45,"time":41.70625000000014,"velocity":0.5669291338582677,"duration":0.18958333333333854},{"name":"F#4","midi":66,"time":41.91041666666681,"velocity":0.5669291338582677,"duration":0.75833333333334},{"name":"D3","midi":50,"time":41.91250000000014,"velocity":0.5669291338582677,"duration":0.1875},{"name":"C#3","midi":49,"time":42.112500000000146,"velocity":0.5669291338582677,"duration":0.1875},{"name":"D4","midi":62,"time":42.31250000000015,"velocity":0.5669291338582677,"duration":0.7708333333333357},{"name":"B2","midi":47,"time":42.31458333333348,"velocity":0.5669291338582677,"duration":0.18541666666666856},{"name":"A2","midi":45,"time":42.51458333333348,"velocity":0.5669291338582677,"duration":0.18958333333333854},{"name":"B4","midi":71,"time":42.718750000000156,"velocity":0.5275590551181102,"duration":0.38749999999999574},{"name":"G2","midi":43,"time":42.72083333333349,"velocity":0.5669291338582677,"duration":0.18958333333333144},{"name":"F#3","midi":54,"time":42.92500000000015,"velocity":0.5669291338582677,"duration":0.19375000000000142},{"name":"E5","midi":76,"time":43.13125000000016,"velocity":0.5275590551181102,"duration":0.3916666666666657},{"name":"E3","midi":52,"time":43.13125000000016,"velocity":0.5669291338582677,"duration":0.19583333333333286},{"name":"G4","midi":67,"time":43.13333333333349,"velocity":0.5669291338582677,"duration":0.7791666666666757},{"name":"D3","midi":50,"time":43.341666666666825,"velocity":0.5669291338582677,"duration":0.19375000000000142},{"name":"A4","midi":69,"time":43.55000000000016,"velocity":0.5275590551181102,"duration":0.38750000000000284},{"name":"C#3","midi":49,"time":43.55000000000016,"velocity":0.5669291338582677,"duration":0.19375000000000142},{"name":"A3","midi":57,"time":43.756250000000165,"velocity":0.5669291338582677,"duration":0.19375000000000142},{"name":"D5","midi":74,"time":43.96041666666683,"velocity":0.5275590551181102,"duration":0.7645833333333414},{"name":"B3","midi":59,"time":43.96250000000016,"velocity":0.5669291338582677,"duration":0.18958333333333144},{"name":"F#4","midi":66,"time":43.96250000000016,"velocity":0.5669291338582677,"duration":0.37916666666667},{"name":"F#3","midi":54,"time":44.164583333333496,"velocity":0.5669291338582677,"duration":0.18958333333333854},{"name":"E4","midi":64,"time":44.36875000000017,"velocity":0.5669291338582677,"duration":0.7479166666666686},{"name":"G3","midi":55,"time":44.3708333333335,"velocity":0.5669291338582677,"duration":0.18541666666666856},{"name":"E3","midi":52,"time":44.5708333333335,"velocity":0.5669291338582677,"duration":0.1875},{"name":"C#5","midi":73,"time":44.77291666666684,"velocity":0.5275590551181102,"duration":0.3687499999999986},{"name":"A3","midi":57,"time":44.77500000000017,"velocity":0.5669291338582677,"duration":0.18124999999999858},{"name":"A2","midi":45,"time":44.9708333333335,"velocity":0.5669291338582677,"duration":0.17916666666666714},{"name":"D5","midi":74,"time":45.166666666666835,"velocity":0.5275590551181102,"duration":0.08958333333333002},{"name":"D3","midi":50,"time":45.166666666666835,"velocity":0.5669291338582677,"duration":0.18333333333333002},{"name":"F#4","midi":66,"time":45.168750000000166,"velocity":0.5669291338582677,"duration":0.37291666666666856},{"name":"C#5","midi":73,"time":45.262500000000166,"velocity":0.5275590551181102,"duration":0.09166666666666856},{"name":"B4","midi":71,"time":45.36250000000017,"velocity":0.5275590551181102,"duration":0.09375},{"name":"E3","midi":52,"time":45.3645833333335,"velocity":0.5669291338582677,"duration":0.1875},{"name":"A4","midi":69,"time":45.4645833333335,"velocity":0.5275590551181102,"duration":0.09583333333333144},{"name":"D5","midi":74,"time":45.568750000000165,"velocity":0.5275590551181102,"duration":0.7875000000000014},{"name":"F#3","midi":54,"time":45.568750000000165,"velocity":0.5669291338582677,"duration":0.19375000000000142},{"name":"G3","midi":55,"time":45.7770833333335,"velocity":0.5669291338582677,"duration":0.19583333333333286},{"name":"E4","midi":64,"time":45.98750000000017,"velocity":0.5669291338582677,"duration":0.39374999999999716},{"name":"A2","midi":45,"time":45.9895833333335,"velocity":0.5669291338582677,"duration":0.19375000000000142},{"name":"B2","midi":47,"time":46.197916666666835,"velocity":0.5669291338582677,"duration":0.19583333333333286},{"name":"A4","midi":69,"time":46.4083333333335,"velocity":0.5275590551181102,"duration":0.7791666666666686},{"name":"C#5","midi":73,"time":46.4083333333335,"velocity":0.5275590551181102,"duration":0.3895833333333272},{"name":"C#3","midi":49,"time":46.41041666666683,"velocity":0.5669291338582677,"duration":0.18958333333333144},{"name":"D3","midi":50,"time":46.61666666666683,"velocity":0.5669291338582677,"duration":0.19375000000000142},{"name":"B4","midi":71,"time":46.825000000000166,"velocity":0.5275590551181102,"duration":0.38750000000000284},{"name":"E3","midi":52,"time":46.825000000000166,"velocity":0.5669291338582677,"duration":0.19166666666666998},{"name":"F#3","midi":54,"time":47.03125000000017,"velocity":0.5669291338582677,"duration":0.19375000000000142},{"name":"E5","midi":76,"time":47.237500000000175,"velocity":0.5039370078740157,"duration":0.77291666666666},{"name":"G4","midi":67,"time":47.239583333333506,"velocity":0.5669291338582677,"duration":0.38333333333333286},{"name":"G3","midi":55,"time":47.239583333333506,"velocity":0.5669291338582677,"duration":0.18958333333333144},{"name":"A3","midi":57,"time":47.44166666666684,"velocity":0.5669291338582677,"duration":0.19166666666666288},{"name":"F#4","midi":66,"time":47.64791666666684,"velocity":0.5669291338582677,"duration":0.3854166666666643},{"name":"B2","midi":47,"time":47.65000000000017,"velocity":0.5669291338582677,"duration":0.18958333333333144},{"name":"C#3","midi":49,"time":47.854166666666835,"velocity":0.5669291338582677,"duration":0.19166666666666998},{"name":"B4","midi":71,"time":48.06041666666684,"velocity":0.5275590551181102,"duration":0.7645833333333343},{"name":"D5","midi":74,"time":48.06041666666684,"velocity":0.5275590551181102,"duration":0.3812500000000014},{"name":"D3","midi":50,"time":48.06250000000017,"velocity":0.5669291338582677,"duration":0.1875},{"name":"E3","midi":52,"time":48.264583333333505,"velocity":0.5669291338582677,"duration":0.18958333333333854},{"name":"C#5","midi":73,"time":48.46875000000018,"velocity":0.5275590551181102,"duration":0.3791666666666629},{"name":"F#3","midi":54,"time":48.46875000000018,"velocity":0.5669291338582677,"duration":0.18958333333333144},{"name":"G#3","midi":56,"time":48.67291666666684,"velocity":0.5669291338582677,"duration":0.1875},{"name":"F#5","midi":78,"time":48.87500000000018,"velocity":0.36220472440944884,"duration":0.7666666666666657},{"name":"A4","midi":69,"time":48.87500000000018,"velocity":0.5275590551181102,"duration":0.38333333333333286},{"name":"A3","midi":57,"time":48.87500000000018,"velocity":0.5669291338582677,"duration":0.18958333333333144},{"name":"B3","midi":59,"time":49.07708333333351,"velocity":0.5669291338582677,"duration":0.19375000000000142},{"name":"G#4","midi":68,"time":49.283333333333516,"velocity":0.5275590551181102,"duration":0.3812499999999943},{"name":"C#4","midi":61,"time":49.28541666666685,"velocity":0.5669291338582677,"duration":0.18958333333333144},{"name":"B3","midi":59,"time":49.48541666666684,"velocity":0.5669291338582677,"duration":0.18958333333333144},{"name":"F5","midi":77,"time":49.68958333333351,"velocity":0.4094488188976378,"duration":0.37708333333332433},{"name":"C#5","midi":73,"time":49.69166666666684,"velocity":0.5275590551181102,"duration":0.7541666666666629},{"name":"C#4","midi":61,"time":49.69166666666684,"velocity":0.5669291338582677,"duration":0.18333333333333002},{"name":"A3","midi":57,"time":49.891666666666836,"velocity":0.5669291338582677,"duration":0.18541666666666146},{"name":"F#5","midi":78,"time":50.0895833333335,"velocity":0.4094488188976378,"duration":0.3812500000000014},{"name":"D4","midi":62,"time":50.09166666666683,"velocity":0.5669291338582677,"duration":0.18541666666666856},{"name":"C#4","midi":61,"time":50.291666666666835,"velocity":0.5669291338582677,"duration":0.1875},{"name":"B4","midi":71,"time":50.4958333333335,"velocity":0.5275590551181102,"duration":0.7562499999999943},{"name":"G#5","midi":80,"time":50.4958333333335,"velocity":0.3228346456692913,"duration":0.3791666666666629},{"name":"D4","midi":62,"time":50.49791666666683,"velocity":0.5669291338582677,"duration":0.18541666666666856},{"name":"B3","midi":59,"time":50.700000000000166,"velocity":0.5669291338582677,"duration":0.1875},{"name":"C#5","midi":73,"time":50.9020833333335,"velocity":0.5275590551181102,"duration":0.37291666666666146},{"name":"F3","midi":53,"time":50.90416666666683,"velocity":0.5669291338582677,"duration":0.18124999999999858},{"name":"C#4","midi":61,"time":51.100000000000165,"velocity":0.5669291338582677,"duration":0.18541666666666146},{"name":"F#5","midi":78,"time":51.30000000000016,"velocity":0.4330708661417323,"duration":0.7499999999999858},{"name":"A4","midi":69,"time":51.30208333333349,"velocity":0.5275590551181102,"duration":0.37291666666666146},{"name":"D4","midi":62,"time":51.30208333333349,"velocity":0.5669291338582677,"duration":0.18333333333333002},{"name":"A3","midi":57,"time":51.500000000000156,"velocity":0.5669291338582677,"duration":0.18541666666666146},{"name":"G#4","midi":68,"time":51.70000000000015,"velocity":0.5275590551181102,"duration":0.7520833333333314},{"name":"B3","midi":59,"time":51.70000000000015,"velocity":0.5669291338582677,"duration":0.18333333333333002},{"name":"G#3","midi":56,"time":51.90000000000015,"velocity":0.5669291338582677,"duration":0.18333333333333002},{"name":"F5","midi":77,"time":52.09791666666681,"velocity":0.4330708661417323,"duration":0.37708333333333854},{"name":"C#4","midi":61,"time":52.09791666666681,"velocity":0.5669291338582677,"duration":0.18541666666666856},{"name":"C#3","midi":49,"time":52.297916666666815,"velocity":0.5669291338582677,"duration":0.18958333333333854},{"name":"F#5","midi":78,"time":52.500000000000156,"velocity":0.4330708661417323,"duration":0.3854166666666643},{"name":"A4","midi":69,"time":52.50208333333349,"velocity":0.5275590551181102,"duration":0.38333333333333286},{"name":"F#3","midi":54,"time":52.50208333333349,"velocity":0.5669291338582677,"duration":0.18958333333333144},{"name":"E3","midi":52,"time":52.70416666666682,"velocity":0.5669291338582677,"duration":0.19375000000000142},{"name":"D5","midi":74,"time":52.910416666666826,"velocity":0.5275590551181102,"duration":0.7624999999999957},{"name":"F#3","midi":54,"time":52.91250000000016,"velocity":0.5669291338582677,"duration":0.1875},{"name":"G#3","midi":56,"time":53.11458333333349,"velocity":0.5669291338582677,"duration":0.18958333333333144},{"name":"E5","midi":76,"time":53.31875000000016,"velocity":0.5275590551181102,"duration":0.37708333333333144},{"name":"A3","midi":57,"time":53.32083333333349,"velocity":0.5669291338582677,"duration":0.18333333333333002},{"name":"B3","midi":59,"time":53.51875000000015,"velocity":0.5669291338582677,"duration":0.1875},{"name":"C#5","midi":73,"time":53.72083333333349,"velocity":0.5275590551181102,"duration":0.37916666666667},{"name":"A5","midi":81,"time":53.72291666666682,"velocity":0.4330708661417323,"duration":0.7604166666666785},{"name":"C#4","midi":61,"time":53.72291666666682,"velocity":0.5669291338582677,"duration":0.1875},{"name":"D4","midi":62,"time":53.92291666666682,"velocity":0.5669291338582677,"duration":0.18958333333333854},{"name":"B4","midi":71,"time":54.127083333333495,"velocity":0.5275590551181102,"duration":0.37916666666667},{"name":"E3","midi":52,"time":54.127083333333495,"velocity":0.5669291338582677,"duration":0.1875},{"name":"F#3","midi":54,"time":54.32916666666683,"velocity":0.5669291338582677,"duration":0.18958333333333854},{"name":"E5","midi":76,"time":54.53125000000017,"velocity":0.5275590551181102,"duration":0.7625000000000028},{"name":"G5","midi":79,"time":54.53125000000017,"velocity":0.4330708661417323,"duration":0.3812500000000014},{"name":"G3","midi":55,"time":54.5333333333335,"velocity":0.5669291338582677,"duration":0.18958333333333144},{"name":"A3","midi":57,"time":54.735416666666836,"velocity":0.5669291338582677,"duration":0.18958333333333854},{"name":"F#5","midi":78,"time":54.93958333333351,"velocity":0.4330708661417323,"duration":0.375},{"name":"B3","midi":59,"time":54.93958333333351,"velocity":0.5669291338582677,"duration":0.1875},{"name":"C#4","midi":61,"time":55.14166666666684,"velocity":0.5669291338582677,"duration":0.18541666666666856},{"name":"D5","midi":74,"time":55.341666666666846,"velocity":0.5275590551181102,"duration":0.375},{"name":"B5","midi":83,"time":55.34375000000018,"velocity":0.4330708661417323,"duration":0.75416666666667},{"name":"D4","midi":62,"time":55.34375000000018,"velocity":0.5669291338582677,"duration":0.18541666666666856},{"name":"E4","midi":64,"time":55.54166666666685,"velocity":0.5669291338582677,"duration":0.1875},{"name":"C#5","midi":73,"time":55.74375000000018,"velocity":0.5275590551181102,"duration":0.37708333333333144},{"name":"F#3","midi":54,"time":55.74375000000018,"velocity":0.5669291338582677,"duration":0.1875},{"name":"E3","midi":52,"time":55.94583333333352,"velocity":0.5669291338582677,"duration":0.1875},{"name":"A#5","midi":82,"time":56.14583333333352,"velocity":0.4330708661417323,"duration":0.37916666666667},{"name":"F#5","midi":78,"time":56.14791666666685,"velocity":0.4330708661417323,"duration":0.5666666666666771},{"name":"F#3","midi":54,"time":56.14791666666685,"velocity":0.5669291338582677,"duration":0.1875},{"name":"D3","midi":50,"time":56.347916666666855,"velocity":0.5669291338582677,"duration":0.18958333333333854},{"name":"B5","midi":83,"time":56.550000000000196,"velocity":0.4330708661417323,"duration":0.5729166666666643},{"name":"G3","midi":55,"time":56.550000000000196,"velocity":0.5669291338582677,"duration":0.18958333333333144},{"name":"B4","midi":71,"time":56.75416666666686,"velocity":0.5275590551181102,"duration":0.1875},{"name":"F#3","midi":54,"time":56.75416666666686,"velocity":0.5669291338582677,"duration":0.1875},{"name":"E5","midi":76,"time":56.956250000000196,"velocity":0.5275590551181102,"duration":0.5687500000000014},{"name":"G3","midi":55,"time":56.956250000000196,"velocity":0.5669291338582677,"duration":0.18958333333333144},{"name":"A5","midi":81,"time":57.15833333333353,"velocity":0.4330708661417323,"duration":0.09375},{"name":"E3","midi":52,"time":57.15833333333353,"velocity":0.5669291338582677,"duration":0.18958333333333144},{"name":"G5","midi":79,"time":57.26041666666686,"velocity":0.4330708661417323,"duration":0.09375},{"name":"F#5","midi":78,"time":57.362500000000196,"velocity":0.4330708661417323,"duration":0.5625000000000071},{"name":"A#3","midi":58,"time":57.362500000000196,"velocity":0.5669291338582677,"duration":0.18541666666666856},{"name":"D5","midi":74,"time":57.5625000000002,"velocity":0.5275590551181102,"duration":0.09166666666666856},{"name":"F#3","midi":54,"time":57.5625000000002,"velocity":0.5669291338582677,"duration":0.18541666666666856},{"name":"C#5","midi":73,"time":57.6625000000002,"velocity":0.5275590551181102,"duration":0.09166666666666856},{"name":"D5","midi":74,"time":57.7625000000002,"velocity":0.5275590551181102,"duration":0.1875},{"name":"B3","midi":59,"time":57.7625000000002,"velocity":0.5669291338582677,"duration":0.18541666666666856},{"name":"B4","midi":71,"time":57.962500000000205,"velocity":0.5275590551181102,"duration":0.1875},{"name":"G5","midi":79,"time":57.962500000000205,"velocity":0.4330708661417323,"duration":0.18958333333333144},{"name":"E3","midi":52,"time":57.964583333333536,"velocity":0.5669291338582677,"duration":0.18541666666666856},{"name":"B4","midi":71,"time":58.16458333333354,"velocity":0.5275590551181102,"duration":0.37708333333333144},{"name":"D5","midi":74,"time":58.16458333333354,"velocity":0.5275590551181102,"duration":0.3791666666666629},{"name":"F#3","midi":54,"time":58.16666666666687,"velocity":0.5669291338582677,"duration":0.18541666666666856},{"name":"E3","midi":52,"time":58.36666666666687,"velocity":0.5669291338582677,"duration":0.1874999999999929},{"name":"A#4","midi":70,"time":58.56666666666687,"velocity":0.5275590551181102,"duration":0.37916666666667},{"name":"C#5","midi":73,"time":58.56666666666687,"velocity":0.5275590551181102,"duration":0.37708333333333854},{"name":"F#3","midi":54,"time":58.5687500000002,"velocity":0.5669291338582677,"duration":0.18541666666666856},{"name":"F#2","midi":42,"time":58.76666666666687,"velocity":0.5669291338582677,"duration":0.18958333333333144},{"name":"B4","midi":71,"time":58.97083333333354,"velocity":0.5275590551181102,"duration":0.3791666666666629},{"name":"B2","midi":47,"time":58.97083333333354,"velocity":0.5669291338582677,"duration":0.3791666666666629},{"name":"G5","midi":79,"time":59.1750000000002,"velocity":0.4330708661417323,"duration":0.3791666666666629},{"name":"C#5","midi":73,"time":59.3750000000002,"velocity":0.5275590551181102,"duration":0.3812500000000014},{"name":"A2","midi":45,"time":59.37708333333353,"velocity":0.5669291338582677,"duration":0.36250000000000426},{"name":"F#5","midi":78,"time":59.57708333333353,"velocity":0.4330708661417323,"duration":0.3812500000000014},{"name":"D5","midi":74,"time":59.7812500000002,"velocity":0.5275590551181102,"duration":0.5750000000000242},{"name":"A2","midi":45,"time":59.78333333333353,"velocity":0.5669291338582677,"duration":0.02916666666666856},{"name":"G2","midi":43,"time":59.8250000000002,"velocity":0.5669291338582677,"duration":0.03125},{"name":"A2","midi":45,"time":59.85833333333353,"velocity":0.5669291338582677,"duration":0.03125},{"name":"G2","midi":43,"time":59.891666666666865,"velocity":0.5669291338582677,"duration":0.03333333333333144},{"name":"A2","midi":45,"time":59.929166666666866,"velocity":0.5669291338582677,"duration":0.03125},{"name":"G2","midi":43,"time":59.964583333333536,"velocity":0.5669291338582677,"duration":0.029166666666661456},{"name":"B5","midi":83,"time":59.98333333333353,"velocity":0.4330708661417323,"duration":0.09583333333333854},{"name":"A2","midi":45,"time":59.99791666666687,"velocity":0.5669291338582677,"duration":0.02916666666666856},{"name":"G2","midi":43,"time":60.03541666666687,"velocity":0.5669291338582677,"duration":0.03125},{"name":"A2","midi":45,"time":60.07291666666687,"velocity":0.5669291338582677,"duration":0.03125},{"name":"A#5","midi":82,"time":60.08541666666687,"velocity":0.4330708661417323,"duration":0.09583333333333144},{"name":"G2","midi":43,"time":60.1062500000002,"velocity":0.5669291338582677,"duration":0.03125},{"name":"A2","midi":45,"time":60.147916666666866,"velocity":0.5669291338582677,"duration":0.02916666666666856},{"name":"G2","midi":43,"time":60.185416666666875,"velocity":0.5669291338582677,"duration":0.03125},{"name":"B5","midi":83,"time":60.189583333333545,"velocity":0.4330708661417323,"duration":0.3854166666666856},{"name":"A2","midi":45,"time":60.222916666666876,"velocity":0.5669291338582677,"duration":0.03125},{"name":"G2","midi":43,"time":60.254166666666876,"velocity":0.5669291338582677,"duration":0.02916666666666856},{"name":"A2","midi":45,"time":60.287500000000215,"velocity":0.5669291338582677,"duration":0.03125},{"name":"G2","midi":43,"time":60.322916666666885,"velocity":0.5669291338582677,"duration":0.02916666666666856},{"name":"A2","midi":45,"time":60.362500000000225,"velocity":0.5669291338582677,"duration":0.03333333333333144},{"name":"E5","midi":76,"time":60.395833333333556,"velocity":0.5275590551181102,"duration":0.3812500000000085},{"name":"G2","midi":43,"time":60.40416666666689,"velocity":0.5669291338582677,"duration":0.02916666666666856},{"name":"A2","midi":45,"time":60.42916666666689,"velocity":0.5669291338582677,"duration":0.033333333333338544},{"name":"G2","midi":43,"time":60.47291666666689,"velocity":0.5669291338582677,"duration":0.02916666666666856},{"name":"A2","midi":45,"time":60.50625000000023,"velocity":0.5669291338582677,"duration":0.03125},{"name":"G2","midi":43,"time":60.55000000000023,"velocity":0.5669291338582677,"duration":0.03333333333333144},{"name":"A#5","midi":82,"time":60.60000000000023,"velocity":0.4330708661417323,"duration":0.18958333333333854},{"name":"F#2","midi":42,"time":60.60000000000023,"velocity":0.5669291338582677,"duration":1.5354166666666913},{"name":"B5","midi":83,"time":60.80208333333357,"velocity":0.4330708661417323,"duration":0.19375000000000142},{"name":"D5","midi":74,"time":60.80208333333357,"velocity":0.5275590551181102,"duration":0.19166666666666998},{"name":"E5","midi":76,"time":61.008333333333574,"velocity":0.5275590551181102,"duration":0.19166666666666288},{"name":"C#5","midi":73,"time":61.010416666666906,"velocity":0.5275590551181102,"duration":0.1875},{"name":"B4","midi":71,"time":61.21250000000024,"velocity":0.5275590551181102,"duration":0.18958333333333144},{"name":"D5","midi":74,"time":61.21458333333357,"velocity":0.5275590551181102,"duration":0.17083333333333428},{"name":"D5","midi":74,"time":61.416666666666906,"velocity":0.5275590551181102,"duration":0.029166666666661456},{"name":"A#4","midi":70,"time":61.41875000000024,"velocity":0.5275590551181102,"duration":0.7687500000000185},{"name":"C#5","midi":73,"time":61.45000000000024,"velocity":0.5275590551181102,"duration":0.02916666666666856},{"name":"D5","midi":74,"time":61.48541666666691,"velocity":0.5275590551181102,"duration":0.02916666666666856},{"name":"C#5","midi":73,"time":61.518750000000246,"velocity":0.5275590551181102,"duration":0.02916666666666856},{"name":"D5","midi":74,"time":61.552083333333584,"velocity":0.5275590551181102,"duration":0.02916666666666856},{"name":"C#5","midi":73,"time":61.587500000000254,"velocity":0.5275590551181102,"duration":0.6104166666666657},{"name":"A5","midi":81,"time":62.23750000000025,"velocity":0.4330708661417323,"duration":0.9645833333333442},{"name":"F#3","midi":54,"time":62.23750000000025,"velocity":0.5669291338582677,"duration":0.19166666666666998},{"name":"C#5","midi":73,"time":62.44375000000026,"velocity":0.5275590551181102,"duration":0.19375000000000142},{"name":"G3","midi":55,"time":62.44375000000026,"velocity":0.5669291338582677,"duration":0.19375000000000142},{"name":"F#5","midi":78,"time":62.65000000000026,"velocity":0.4330708661417323,"duration":0.19166666666666998},{"name":"A3","midi":57,"time":62.65000000000026,"velocity":0.5669291338582677,"duration":0.19166666666666998},{"name":"E5","midi":76,"time":62.854166666666934,"velocity":0.5275590551181102,"duration":0.19375000000000142},{"name":"F#3","midi":54,"time":62.856250000000266,"velocity":0.5669291338582677,"duration":0.19166666666666998},{"name":"D#5","midi":75,"time":63.0583333333336,"velocity":0.5275590551181102,"duration":0.7624999999999957},{"name":"B3","midi":59,"time":63.06041666666693,"velocity":0.5669291338582677,"duration":0.18958333333333144},{"name":"F#5","midi":78,"time":63.262500000000266,"velocity":0.4330708661417323,"duration":0.18958333333333144},{"name":"A3","midi":57,"time":63.2645833333336,"velocity":0.5669291338582677,"duration":0.18541666666666856},{"name":"B5","midi":83,"time":63.4645833333336,"velocity":0.4330708661417323,"duration":0.18958333333333144},{"name":"G3","midi":55,"time":63.46666666666693,"velocity":0.5669291338582677,"duration":0.18541666666666856},{"name":"A5","midi":81,"time":63.666666666666934,"velocity":0.4330708661417323,"duration":0.19166666666666288},{"name":"F#3","midi":54,"time":63.668750000000266,"velocity":0.5669291338582677,"duration":0.1875},{"name":"G5","midi":79,"time":63.8708333333336,"velocity":0.4330708661417323,"duration":0.3854166666666643},{"name":"E5","midi":76,"time":63.87291666666693,"velocity":0.5275590551181102,"duration":0.3812500000000014},{"name":"E3","midi":52,"time":63.87291666666693,"velocity":0.5669291338582677,"duration":0.18958333333333854},{"name":"G2","midi":43,"time":64.0770833333336,"velocity":0.5669291338582677,"duration":0.18958333333333144},{"name":"D#5","midi":75,"time":64.28125000000027,"velocity":0.5275590551181102,"duration":0.38333333333332575},{"name":"F#5","midi":78,"time":64.28125000000027,"velocity":0.4330708661417323,"duration":0.3854166666666572},{"name":"A2","midi":45,"time":64.2833333333336,"velocity":0.5669291338582677,"duration":0.18958333333333144},{"name":"B2","midi":47,"time":64.48750000000027,"velocity":0.5669291338582677,"duration":0.1875},{"name":"G5","midi":79,"time":64.6895833333336,"velocity":0.4330708661417323,"duration":0.94583333333334},{"name":"E5","midi":76,"time":64.6895833333336,"velocity":0.5275590551181102,"duration":0.1875},{"name":"E2","midi":40,"time":64.69166666666693,"velocity":0.5669291338582677,"duration":0.18541666666666856},{"name":"B4","midi":71,"time":64.8895833333336,"velocity":0.5275590551181102,"duration":0.1875},{"name":"F#2","midi":42,"time":64.89166666666694,"velocity":0.5669291338582677,"duration":0.18541666666666856},{"name":"E5","midi":76,"time":65.09166666666694,"velocity":0.5275590551181102,"duration":0.18958333333333144},{"name":"G2","midi":43,"time":65.09166666666694,"velocity":0.5669291338582677,"duration":0.18958333333333144},{"name":"D5","midi":74,"time":65.29375000000027,"velocity":0.5275590551181102,"duration":0.18958333333333144},{"name":"E2","midi":40,"time":65.29375000000027,"velocity":0.5669291338582677,"duration":0.18958333333333144},{"name":"C#5","midi":73,"time":65.49791666666694,"velocity":0.5275590551181102,"duration":0.7520833333333456},{"name":"A2","midi":45,"time":65.49791666666694,"velocity":0.5669291338582677,"duration":0.18333333333333712},{"name":"E5","midi":76,"time":65.69375000000028,"velocity":0.5275590551181102,"duration":0.1875},{"name":"G2","midi":43,"time":65.69375000000028,"velocity":0.5669291338582677,"duration":0.1875},{"name":"A5","midi":81,"time":65.89583333333361,"velocity":0.4330708661417323,"duration":0.1875},{"name":"F#2","midi":42,"time":65.89791666666694,"velocity":0.5669291338582677,"duration":0.18541666666666856},{"name":"G5","midi":79,"time":66.09791666666695,"velocity":0.4330708661417323,"duration":0.18958333333333144},{"name":"E2","midi":40,"time":66.10000000000028,"velocity":0.5669291338582677,"duration":0.1875},{"name":"D5","midi":74,"time":66.30208333333361,"velocity":0.5275590551181102,"duration":0.3812499999999943},{"name":"F#5","midi":78,"time":66.30208333333361,"velocity":0.4330708661417323,"duration":0.3812499999999943},{"name":"D2","midi":38,"time":66.30416666666694,"velocity":0.5669291338582677,"duration":0.1875},{"name":"F#2","midi":42,"time":66.50625000000028,"velocity":0.5669291338582677,"duration":0.18958333333333144},{"name":"E5","midi":76,"time":66.70833333333361,"velocity":0.5275590551181102,"duration":0.3812499999999943},{"name":"C#5","midi":73,"time":66.70833333333361,"velocity":0.5275590551181102,"duration":0.3812499999999943},{"name":"G2","midi":43,"time":66.71041666666694,"velocity":0.5669291338582677,"duration":0.1875},{"name":"A2","midi":45,"time":66.91250000000028,"velocity":0.5669291338582677,"duration":0.18958333333333144},{"name":"F#5","midi":78,"time":67.11666666666694,"velocity":0.4330708661417323,"duration":0.9395833333333314},{"name":"D5","midi":74,"time":67.11666666666694,"velocity":0.5275590551181102,"duration":0.19166666666666288},{"name":"D2","midi":38,"time":67.11875000000028,"velocity":0.5669291338582677,"duration":0.18958333333333144},{"name":"A4","midi":69,"time":67.32291666666694,"velocity":0.5275590551181102,"duration":0.19166666666666288},{"name":"E3","midi":52,"time":67.32291666666694,"velocity":0.5669291338582677,"duration":0.19166666666666288},{"name":"B4","midi":71,"time":67.52500000000028,"velocity":0.5275590551181102,"duration":0.19166666666666288},{"name":"D3","midi":50,"time":67.52708333333361,"velocity":0.5669291338582677,"duration":0.18958333333333144},{"name":"C#5","midi":73,"time":67.72916666666694,"velocity":0.5275590551181102,"duration":0.19166666666666288},{"name":"C#3","midi":49,"time":67.73125000000027,"velocity":0.5669291338582677,"duration":0.18958333333333144},{"name":"D5","midi":74,"time":67.93125000000028,"velocity":0.5275590551181102,"duration":0.9500000000000028},{"name":"B2","midi":47,"time":67.93333333333361,"velocity":0.5669291338582677,"duration":0.1875},{"name":"F#5","midi":78,"time":68.13333333333361,"velocity":0.4330708661417323,"duration":0.18958333333333144},{"name":"A2","midi":45,"time":68.13541666666694,"velocity":0.5669291338582677,"duration":0.1875},{"name":"G#5","midi":80,"time":68.33541666666694,"velocity":0.4330708661417323,"duration":0.18958333333333144},{"name":"G#2","midi":44,"time":68.33750000000028,"velocity":0.5669291338582677,"duration":0.1875},{"name":"A5","midi":81,"time":68.53541666666695,"velocity":0.4330708661417323,"duration":0.18958333333333144},{"name":"F#2","midi":42,"time":68.53750000000028,"velocity":0.5669291338582677,"duration":0.1875},{"name":"B5","midi":83,"time":68.73750000000028,"velocity":0.4330708661417323,"duration":0.3916666666666657},{"name":"F2","midi":41,"time":68.73958333333361,"velocity":0.5669291338582677,"duration":0.19166666666666288},{"name":"C#5","midi":73,"time":68.94583333333361,"velocity":0.5275590551181102,"duration":0.1979166666666714},{"name":"F#3","midi":54,"time":68.94791666666694,"velocity":0.5669291338582677,"duration":0.19375000000000853},{"name":"A5","midi":81,"time":69.15625000000028,"velocity":0.4330708661417323,"duration":0.7749999999999915},{"name":"F#5","midi":78,"time":69.15625000000028,"velocity":0.4330708661417323,"duration":0.19374999999999432},{"name":"G#3","midi":56,"time":69.15833333333362,"velocity":0.5669291338582677,"duration":0.18958333333333144},{"name":"E5","midi":76,"time":69.36250000000028,"velocity":0.5275590551181102,"duration":0.19166666666666288},{"name":"A3","midi":57,"time":69.36250000000028,"velocity":0.5669291338582677,"duration":0.19166666666666288},{"name":"D5","midi":74,"time":69.56875000000028,"velocity":0.5275590551181102,"duration":0.19166666666666288},{"name":"B3","midi":59,"time":69.56875000000028,"velocity":0.5669291338582677,"duration":0.19166666666666288},{"name":"C#5","midi":73,"time":69.77500000000028,"velocity":0.5275590551181102,"duration":0.19374999999999432},{"name":"C#4","midi":61,"time":69.77500000000028,"velocity":0.5669291338582677,"duration":0.19374999999999432},{"name":"B4","midi":71,"time":69.9833333333336,"velocity":0.5275590551181102,"duration":0.7687499999999972},{"name":"G5","midi":79,"time":69.9833333333336,"velocity":0.4330708661417323,"duration":0.19374999999999432},{"name":"D4","midi":62,"time":69.9833333333336,"velocity":0.5669291338582677,"duration":0.19166666666666288},{"name":"F#5","midi":78,"time":70.1895833333336,"velocity":0.4330708661417323,"duration":0.19374999999999432},{"name":"B3","midi":59,"time":70.19166666666693,"velocity":0.5669291338582677,"duration":0.18958333333333144},{"name":"F5","midi":77,"time":70.39791666666693,"velocity":0.4330708661417323,"duration":0.18958333333333144},{"name":"C#4","midi":61,"time":70.39791666666693,"velocity":0.5669291338582677,"duration":0.1875},{"name":"C#5","midi":73,"time":70.60000000000026,"velocity":0.5275590551181102,"duration":0.18958333333333144},{"name":"F#2","midi":42,"time":70.6020833333336,"velocity":0.5669291338582677,"duration":0.18541666666666856},{"name":"F#5","midi":78,"time":70.8020833333336,"velocity":0.4330708661417323,"duration":0.1875},{"name":"A4","midi":69,"time":70.80416666666693,"velocity":0.5275590551181102,"duration":0.5604166666666686},{"name":"G#2","midi":44,"time":70.80416666666693,"velocity":0.5669291338582677,"duration":0.18541666666666856},{"name":"E5","midi":76,"time":71.0020833333336,"velocity":0.5275590551181102,"duration":0.1875},{"name":"A2","midi":45,"time":71.00416666666693,"velocity":0.5669291338582677,"duration":0.18333333333333712},{"name":"D5","midi":74,"time":71.20000000000027,"velocity":0.5275590551181102,"duration":1.1479166666666458},{"name":"B2","midi":47,"time":71.2020833333336,"velocity":0.5669291338582677,"duration":0.18541666666665435},{"name":"A4","midi":69,"time":71.4020833333336,"velocity":0.5275590551181102,"duration":0.19166666666666288},{"name":"C#3","midi":49,"time":71.40416666666692,"velocity":0.5669291338582677,"duration":0.18958333333333144},{"name":"G#4","midi":68,"time":71.60416666666693,"velocity":0.5275590551181102,"duration":0.19374999999999432},{"name":"D3","midi":50,"time":71.60625000000026,"velocity":0.5669291338582677,"duration":0.19166666666666288},{"name":"F#4","midi":66,"time":71.81041666666692,"velocity":0.5669291338582677,"duration":0.19374999999999432},{"name":"B2","midi":47,"time":71.81250000000026,"velocity":0.5669291338582677,"duration":0.18958333333333144},{"name":"F4","midi":65,"time":72.01458333333359,"velocity":0.5669291338582677,"duration":0.19166666666666288},{"name":"C#3","midi":49,"time":72.01666666666692,"velocity":0.5669291338582677,"duration":0.18958333333333144},{"name":"F#4","midi":66,"time":72.21875000000026,"velocity":0.5669291338582677,"duration":0.19166666666666288},{"name":"D#3","midi":51,"time":72.22083333333359,"velocity":0.5669291338582677,"duration":0.1875},{"name":"C#5","midi":73,"time":72.42083333333359,"velocity":0.5275590551181102,"duration":0.18958333333333144},{"name":"G#4","midi":68,"time":72.42291666666692,"velocity":0.5275590551181102,"duration":0.75833333333334},{"name":"F3","midi":53,"time":72.42291666666692,"velocity":0.5669291338582677,"duration":0.18541666666666856},{"name":"B4","midi":71,"time":72.62291666666692,"velocity":0.5275590551181102,"duration":0.19166666666666288},{"name":"C#3","midi":49,"time":72.62500000000026,"velocity":0.5669291338582677,"duration":0.1875},{"name":"A4","midi":69,"time":72.82500000000026,"velocity":0.5275590551181102,"duration":0.19166666666666288},{"name":"F#3","midi":54,"time":72.82500000000026,"velocity":0.5669291338582677,"duration":0.18958333333333144},{"name":"B4","midi":71,"time":73.02916666666692,"velocity":0.5275590551181102,"duration":0.18958333333333144},{"name":"G#3","midi":56,"time":73.02916666666692,"velocity":0.5669291338582677,"duration":0.1875},{"name":"C#5","midi":73,"time":73.23125000000026,"velocity":0.5275590551181102,"duration":0.7645833333333343},{"name":"F#4","midi":66,"time":73.23125000000026,"velocity":0.5669291338582677,"duration":0.19166666666666288},{"name":"A3","midi":57,"time":73.23333333333359,"velocity":0.5669291338582677,"duration":0.1875},{"name":"F#3","midi":54,"time":73.43541666666692,"velocity":0.5669291338582677,"duration":0.19166666666666288},{"name":"E4","midi":64,"time":73.43541666666692,"velocity":0.5669291338582677,"duration":0.19166666666666288},{"name":"D4","midi":62,"time":73.64166666666692,"velocity":0.5669291338582677,"duration":0.75833333333334},{"name":"B3","midi":59,"time":73.64166666666692,"velocity":0.5669291338582677,"duration":0.1875},{"name":"A3","midi":57,"time":73.84166666666692,"velocity":0.5669291338582677,"duration":0.18958333333333144},{"name":"B4","midi":71,"time":74.04583333333359,"velocity":0.5275590551181102,"duration":0.75833333333334},{"name":"G#3","midi":56,"time":74.04583333333359,"velocity":0.5669291338582677,"duration":0.18958333333333144},{"name":"F#3","midi":54,"time":74.25000000000026,"velocity":0.5669291338582677,"duration":0.1875},{"name":"C#4","midi":61,"time":74.45000000000026,"velocity":0.5669291338582677,"duration":0.7625000000000028},{"name":"F3","midi":53,"time":74.45208333333359,"velocity":0.5669291338582677,"duration":0.1875},{"name":"C#3","midi":49,"time":74.6520833333336,"velocity":0.5669291338582677,"duration":0.18958333333333144},{"name":"A4","midi":69,"time":74.85625000000026,"velocity":0.5275590551181102,"duration":0.7625000000000028},{"name":"F#3","midi":54,"time":74.85625000000026,"velocity":0.5669291338582677,"duration":0.18958333333333144},{"name":"E3","midi":52,"time":75.0583333333336,"velocity":0.5669291338582677,"duration":0.19166666666666288},{"name":"B3","midi":59,"time":75.26458333333359,"velocity":0.5669291338582677,"duration":0.94583333333334},{"name":"D3","midi":50,"time":75.26458333333359,"velocity":0.5669291338582677,"duration":0.18541666666666856},{"name":"C#3","midi":49,"time":75.4645833333336,"velocity":0.5669291338582677,"duration":0.18958333333333144},{"name":"G#4","midi":68,"time":75.66875000000026,"velocity":0.5275590551181102,"duration":0.18958333333333144},{"name":"D3","midi":50,"time":75.66875000000026,"velocity":0.5669291338582677,"duration":0.1875},{"name":"F#4","midi":66,"time":75.8708333333336,"velocity":0.5669291338582677,"duration":0.1875},{"name":"B2","midi":47,"time":75.8708333333336,"velocity":0.5669291338582677,"duration":0.18541666666666856},{"name":"F4","midi":65,"time":76.07291666666693,"velocity":0.5669291338582677,"duration":0.1875},{"name":"C#3","midi":49,"time":76.07291666666693,"velocity":0.5669291338582677,"duration":0.18541666666666856},{"name":"D5","midi":74,"time":76.27291666666693,"velocity":0.5275590551181102,"duration":0.18958333333333144},{"name":"F4","midi":65,"time":76.27291666666693,"velocity":0.5669291338582677,"duration":0.18958333333333144},{"name":"B2","midi":47,"time":76.27500000000026,"velocity":0.5669291338582677,"duration":0.1875},{"name":"C#5","midi":73,"time":76.47500000000026,"velocity":0.5275590551181102,"duration":0.19166666666666288},{"name":"F#4","midi":66,"time":76.4770833333336,"velocity":0.5669291338582677,"duration":0.18958333333333144},{"name":"A2","midi":45,"time":76.4770833333336,"velocity":0.5669291338582677,"duration":0.18958333333333144},{"name":"G#4","midi":68,"time":76.67916666666693,"velocity":0.5275590551181102,"duration":0.19166666666666288},{"name":"B4","midi":71,"time":76.68125000000026,"velocity":0.5275590551181102,"duration":0.18958333333333144},{"name":"B2","midi":47,"time":76.68125000000026,"velocity":0.5669291338582677,"duration":0.1875},{"name":"A4","midi":69,"time":76.8833333333336,"velocity":0.5275590551181102,"duration":0.3854166666666572},{"name":"C#4","midi":61,"time":76.88541666666693,"velocity":0.5669291338582677,"duration":0.18958333333333144},{"name":"C#3","midi":49,"time":76.88541666666693,"velocity":0.5669291338582677,"duration":0.18958333333333144},{"name":"F#4","midi":66,"time":77.08750000000026,"velocity":0.5669291338582677,"duration":0.3854166666666572},{"name":"B2","midi":47,"time":77.0895833333336,"velocity":0.5669291338582677,"duration":0.18958333333333144},{"name":"G#4","midi":68,"time":77.29375000000026,"velocity":0.5275590551181102,"duration":0.3812499999999943},{"name":"C#3","midi":49,"time":77.29583333333359,"velocity":0.5669291338582677,"duration":0.1875},{"name":"F4","midi":65,"time":77.49791666666692,"velocity":0.5669291338582677,"duration":0.18958333333333144},{"name":"C#2","midi":37,"time":77.50000000000026,"velocity":0.5669291338582677,"duration":0.18541666666666856},{"name":"F#4","midi":66,"time":77.70000000000026,"velocity":0.5669291338582677,"duration":0.37708333333333144},{"name":"F#2","midi":42,"time":77.70000000000026,"velocity":0.5669291338582677,"duration":0.1875},{"name":"C#3","midi":49,"time":77.9020833333336,"velocity":0.5669291338582677,"duration":0.1875},{"name":"C5","midi":72,"time":78.10416666666693,"velocity":0.5275590551181102,"duration":0.7666666666666657},{"name":"D#3","midi":51,"time":78.10416666666693,"velocity":0.5669291338582677,"duration":0.1875},{"name":"E3","midi":52,"time":78.30625000000026,"velocity":0.5669291338582677,"duration":0.18958333333333144},{"name":"D#5","midi":75,"time":78.51041666666693,"velocity":0.5275590551181102,"duration":0.38333333333332575},{"name":"F#3","midi":54,"time":78.51041666666693,"velocity":0.5669291338582677,"duration":0.18958333333333144},{"name":"A3","midi":57,"time":78.7145833333336,"velocity":0.5669291338582677,"duration":0.18958333333333144},{"name":"B4","midi":71,"time":78.91875000000026,"velocity":0.5275590551181102,"duration":0.18958333333333144},{"name":"E5","midi":76,"time":78.91875000000026,"velocity":0.48031496062992124,"duration":0.19166666666666288},{"name":"G3","midi":55,"time":78.92083333333359,"velocity":0.5669291338582677,"duration":0.1875},{"name":"F#5","midi":78,"time":79.12291666666692,"velocity":0.3858267716535433,"duration":0.1875},{"name":"A4","midi":69,"time":79.12291666666692,"velocity":0.5275590551181102,"duration":0.18541666666666856},{"name":"F#3","midi":54,"time":79.12500000000026,"velocity":0.5669291338582677,"duration":0.18333333333333712},{"name":"B4","midi":71,"time":79.32291666666693,"velocity":0.5275590551181102,"duration":0.18958333333333144},{"name":"E3","midi":52,"time":79.32291666666693,"velocity":0.5669291338582677,"duration":0.1875},{"name":"G4","midi":67,"time":79.32500000000026,"velocity":0.5669291338582677,"duration":0.18541666666666856},{"name":"C6","midi":84,"time":79.52291666666693,"velocity":0.3858267716535433,"duration":0.19166666666666288},{"name":"D#5","midi":75,"time":79.52291666666693,"velocity":0.5275590551181102,"duration":0.18958333333333144},{"name":"F#3","midi":54,"time":79.52500000000026,"velocity":0.5669291338582677,"duration":0.1875},{"name":"B5","midi":83,"time":79.7270833333336,"velocity":0.3858267716535433,"duration":0.18958333333333144},{"name":"E5","midi":76,"time":79.7270833333336,"velocity":0.48031496062992124,"duration":0.1875},{"name":"G3","midi":55,"time":79.7270833333336,"velocity":0.5669291338582677,"duration":0.1875},{"name":"A5","midi":81,"time":79.92916666666693,"velocity":0.4330708661417323,"duration":0.19374999999999432},{"name":"F#5","midi":78,"time":79.92916666666693,"velocity":0.4330708661417323,"duration":0.19583333333332575},{"name":"A3","midi":57,"time":79.92916666666693,"velocity":0.5669291338582677,"duration":0.19374999999999432},{"name":"G5","midi":79,"time":80.13750000000026,"velocity":0.4330708661417323,"duration":0.38333333333332575},{"name":"B4","midi":71,"time":80.13750000000026,"velocity":0.5275590551181102,"duration":0.19166666666666288},{"name":"B3","midi":59,"time":80.13958333333359,"velocity":0.5669291338582677,"duration":0.18958333333333144},{"name":"E5","midi":76,"time":80.34166666666692,"velocity":0.5275590551181102,"duration":0.38333333333332575},{"name":"A3","midi":57,"time":80.34166666666692,"velocity":0.5669291338582677,"duration":0.18958333333333144},{"name":"F#5","midi":78,"time":80.54583333333359,"velocity":0.4330708661417323,"duration":0.3791666666666629},{"name":"B3","midi":59,"time":80.54583333333359,"velocity":0.5669291338582677,"duration":0.18958333333333144},{"name":"D#5","midi":75,"time":80.75000000000026,"velocity":0.5275590551181102,"duration":0.18958333333333144},{"name":"B2","midi":47,"time":80.75000000000026,"velocity":0.5669291338582677,"duration":0.1875},{"name":"E5","midi":76,"time":80.95000000000026,"velocity":0.5275590551181102,"duration":0.375},{"name":"E3","midi":52,"time":80.95208333333359,"velocity":0.5669291338582677,"duration":0.18541666666666856},{"name":"B3","midi":59,"time":81.15000000000026,"velocity":0.5669291338582677,"duration":0.1875},{"name":"A#5","midi":82,"time":81.35000000000026,"velocity":0.4330708661417323,"duration":0.7562500000000085},{"name":"C#4","midi":61,"time":81.3520833333336,"velocity":0.5669291338582677,"duration":0.1875},{"name":"D4","midi":62,"time":81.5520833333336,"velocity":0.5669291338582677,"duration":0.1875},{"name":"C#5","midi":73,"time":81.75416666666693,"velocity":0.5275590551181102,"duration":0.37708333333334565},{"name":"E4","midi":64,"time":81.75625000000026,"velocity":0.5669291338582677,"duration":0.1875},{"name":"G3","midi":55,"time":81.95416666666694,"velocity":0.5669291338582677,"duration":0.18958333333334565},{"name":"D5","midi":74,"time":82.15625000000028,"velocity":0.5275590551181102,"duration":0.20000000000000284},{"name":"A5","midi":81,"time":82.15833333333362,"velocity":0.4330708661417323,"duration":0.19583333333333997},{"name":"F#3","midi":54,"time":82.15833333333362,"velocity":0.5669291338582677,"duration":0.1875},{"name":"E5","midi":76,"time":82.35833333333362,"velocity":0.5275590551181102,"duration":0.20000000000000284},{"name":"G5","midi":79,"time":82.36041666666695,"velocity":0.4330708661417323,"duration":0.19583333333333997},{"name":"E3","midi":52,"time":82.36041666666695,"velocity":0.5669291338582677,"duration":0.1875},{"name":"F#5","midi":78,"time":82.56041666666695,"velocity":0.4330708661417323,"duration":0.22708333333332575},{"name":"A4","midi":69,"time":82.56250000000028,"velocity":0.5275590551181102,"duration":0.1979166666666714},{"name":"D3","midi":50,"time":82.56250000000028,"velocity":0.5669291338582677,"duration":0.18958333333333144},{"name":"A#4","midi":70,"time":82.76458333333362,"velocity":0.5275590551181102,"duration":0.1979166666666714},{"name":"C#5","midi":73,"time":82.76666666666695,"velocity":0.5275590551181102,"duration":0.19375000000000853},{"name":"E3","midi":52,"time":82.76666666666695,"velocity":0.5669291338582677,"duration":0.18541666666666856},{"name":"A4","midi":69,"time":82.96666666666695,"velocity":0.5275590551181102,"duration":0.20000000000000284},{"name":"D5","midi":74,"time":82.96875000000028,"velocity":0.5275590551181102,"duration":0.19583333333333997},{"name":"F#3","midi":54,"time":82.96875000000028,"velocity":0.5669291338582677,"duration":0.1875},{"name":"E5","midi":76,"time":83.17083333333362,"velocity":0.5275590551181102,"duration":0.21666666666666856},{"name":"G4","midi":67,"time":83.17291666666695,"velocity":0.5669291338582677,"duration":0.18541666666666856},{"name":"G3","midi":55,"time":83.17291666666695,"velocity":0.5669291338582677,"duration":0.18333333333333712},{"name":"A4","midi":69,"time":83.37083333333362,"velocity":0.5275590551181102,"duration":0.19583333333333997},{"name":"F#4","midi":66,"time":83.37291666666695,"velocity":0.5669291338582677,"duration":0.37291666666666856},{"name":"A3","midi":57,"time":83.37291666666695,"velocity":0.5669291338582677,"duration":0.18333333333333712},{"name":"D5","midi":74,"time":83.57291666666696,"velocity":0.5275590551181102,"duration":0.3708333333333371},{"name":"G3","midi":55,"time":83.57291666666696,"velocity":0.5669291338582677,"duration":0.18333333333333712},{"name":"E4","midi":64,"time":83.7687500000003,"velocity":0.5669291338582677,"duration":0.375},{"name":"A3","midi":57,"time":83.77083333333363,"velocity":0.5669291338582677,"duration":0.18333333333333712},{"name":"C#5","midi":73,"time":83.9687500000003,"velocity":0.5275590551181102,"duration":0.1875},{"name":"A2","midi":45,"time":83.97083333333363,"velocity":0.5669291338582677,"duration":0.18333333333333712},{"name":"F#4","midi":66,"time":84.16666666666697,"velocity":0.5669291338582677,"duration":0.18958333333333144},{"name":"D4","midi":62,"time":84.1687500000003,"velocity":0.5669291338582677,"duration":0.375},{"name":"B2","midi":47,"time":84.1687500000003,"velocity":0.5669291338582677,"duration":0.18541666666666856},{"name":"B4","midi":71,"time":84.36666666666697,"velocity":0.5275590551181102,"duration":0.375},{"name":"D3","midi":50,"time":84.3687500000003,"velocity":0.5669291338582677,"duration":0.18541666666666856},{"name":"C#4","midi":61,"time":84.5687500000003,"velocity":0.5669291338582677,"duration":0.37291666666666856},{"name":"F#3","midi":54,"time":84.5687500000003,"velocity":0.5669291338582677,"duration":0.18333333333333712},{"name":"A4","midi":69,"time":84.76666666666698,"velocity":0.5275590551181102,"duration":0.1875},{"name":"F#2","midi":42,"time":84.76875000000031,"velocity":0.5669291338582677,"duration":0.18333333333333712},{"name":"B3","midi":59,"time":84.96666666666698,"velocity":0.5669291338582677,"duration":0.37291666666666856},{"name":"D4","midi":62,"time":84.96666666666698,"velocity":0.5669291338582677,"duration":0.18541666666666856},{"name":"G2","midi":43,"time":84.96666666666698,"velocity":0.5669291338582677,"duration":0.18333333333333712},{"name":"G4","midi":67,"time":85.16458333333365,"velocity":0.5669291338582677,"duration":0.375},{"name":"B2","midi":47,"time":85.16666666666698,"velocity":0.5669291338582677,"duration":0.18333333333333712},{"name":"D3","midi":50,"time":85.36666666666699,"velocity":0.5669291338582677,"duration":0.5520833333333428},{"name":"A3","midi":57,"time":85.36666666666699,"velocity":0.5669291338582677,"duration":0.3687500000000057},{"name":"F#4","midi":66,"time":85.56666666666699,"velocity":0.5669291338582677,"duration":0.18125000000000568},{"name":"G#4","midi":68,"time":85.760416666667,"velocity":0.5275590551181102,"duration":0.3708333333333371},{"name":"B3","midi":59,"time":85.760416666667,"velocity":0.5669291338582677,"duration":0.3708333333333371},{"name":"D3","midi":50,"time":85.95833333333367,"velocity":0.5669291338582677,"duration":0.18541666666666856},{"name":"A#4","midi":70,"time":86.15833333333367,"velocity":0.5275590551181102,"duration":0.1875},{"name":"E4","midi":64,"time":86.15833333333367,"velocity":0.5669291338582677,"duration":0.5625},{"name":"C#3","midi":49,"time":86.160416666667,"velocity":0.5669291338582677,"duration":0.18541666666666856},{"name":"B4","midi":71,"time":86.35833333333368,"velocity":0.5275590551181102,"duration":0.18958333333333144},{"name":"B2","midi":47,"time":86.35833333333368,"velocity":0.5669291338582677,"duration":0.1875},{"name":"C#5","midi":73,"time":86.55833333333368,"velocity":0.5275590551181102,"duration":0.9312500000000057},{"name":"A#2","midi":46,"time":86.55833333333368,"velocity":0.5669291338582677,"duration":0.18541666666665435},{"name":"G4","midi":67,"time":86.75833333333367,"velocity":0.5669291338582677,"duration":0.18333333333333712},{"name":"F#2","midi":42,"time":86.760416666667,"velocity":0.5669291338582677,"duration":0.18125000000000568},{"name":"F#4","midi":66,"time":86.95625000000034,"velocity":0.5669291338582677,"duration":0.18541666666666856},{"name":"G#2","midi":44,"time":86.95625000000034,"velocity":0.5669291338582677,"duration":0.18333333333333712},{"name":"E4","midi":64,"time":87.15208333333368,"velocity":0.5669291338582677,"duration":0.1875},{"name":"A#2","midi":46,"time":87.15208333333368,"velocity":0.5669291338582677,"duration":0.18541666666666856},{"name":"D4","midi":62,"time":87.35000000000035,"velocity":0.5669291338582677,"duration":0.375},{"name":"B2","midi":47,"time":87.35000000000035,"velocity":0.5669291338582677,"duration":0.18541666666666856},{"name":"B4","midi":71,"time":87.55000000000035,"velocity":0.5275590551181102,"duration":0.1875},{"name":"F#3","midi":54,"time":87.55000000000035,"velocity":0.5669291338582677,"duration":0.18541666666666856},{"name":"C#5","midi":73,"time":87.75000000000036,"velocity":0.5275590551181102,"duration":0.18958333333333144},{"name":"G4","midi":67,"time":87.75000000000036,"velocity":0.5669291338582677,"duration":0.5645833333333314},{"name":"E3","midi":52,"time":87.75208333333369,"velocity":0.5669291338582677,"duration":0.18541666666666856},{"name":"D5","midi":74,"time":87.95000000000036,"velocity":0.5275590551181102,"duration":0.18958333333333144},{"name":"D3","midi":50,"time":87.95000000000036,"velocity":0.5669291338582677,"duration":0.1875},{"name":"E5","midi":76,"time":88.15208333333369,"velocity":0.5275590551181102,"duration":0.9354166666666686},{"name":"C#3","midi":49,"time":88.15208333333369,"velocity":0.5669291338582677,"duration":0.1833333333333229},{"name":"B4","midi":71,"time":88.35000000000035,"velocity":0.5275590551181102,"duration":0.18541666666666856},{"name":"A2","midi":45,"time":88.35000000000035,"velocity":0.5669291338582677,"duration":0.18333333333333712},{"name":"A4","midi":69,"time":88.54791666666702,"velocity":0.5275590551181102,"duration":0.18541666666666856},{"name":"B2","midi":47,"time":88.55000000000035,"velocity":0.5669291338582677,"duration":0.18125000000000568},{"name":"G4","midi":67,"time":88.74583333333369,"velocity":0.5669291338582677,"duration":0.18958333333333144},{"name":"C#3","midi":49,"time":88.74791666666702,"velocity":0.5669291338582677,"duration":0.18541666666666856},{"name":"F#4","midi":66,"time":88.9458333333337,"velocity":0.5669291338582677,"duration":0.3791666666666629},{"name":"D3","midi":50,"time":88.94791666666703,"velocity":0.5669291338582677,"duration":0.1875},{"name":"D5","midi":74,"time":89.15000000000036,"velocity":0.5275590551181102,"duration":0.18958333333333144},{"name":"A3","midi":57,"time":89.15000000000036,"velocity":0.5669291338582677,"duration":0.1875},{"name":"B4","midi":71,"time":89.35000000000036,"velocity":0.5275590551181102,"duration":0.5625},{"name":"E5","midi":76,"time":89.35000000000036,"velocity":0.5275590551181102,"duration":0.19166666666666288},{"name":"G3","midi":55,"time":89.3520833333337,"velocity":0.5669291338582677,"duration":0.1875},{"name":"F#5","midi":78,"time":89.55416666666703,"velocity":0.4330708661417323,"duration":0.18541666666666856},{"name":"F#3","midi":54,"time":89.55416666666703,"velocity":0.5669291338582677,"duration":0.18333333333333712},{"name":"G5","midi":79,"time":89.7520833333337,"velocity":0.4330708661417323,"duration":1.1187500000000057},{"name":"E3","midi":52,"time":89.75416666666703,"velocity":0.5669291338582677,"duration":0.18124999999999147},{"name":"D5","midi":74,"time":89.95000000000036,"velocity":0.5275590551181102,"duration":0.18333333333333712},{"name":"C#3","midi":49,"time":89.95000000000036,"velocity":0.5669291338582677,"duration":0.18125000000000568},{"name":"C#5","midi":73,"time":90.1458333333337,"velocity":0.5275590551181102,"duration":0.18333333333333712},{"name":"D3","midi":50,"time":90.1458333333337,"velocity":0.5669291338582677,"duration":0.18333333333333712},{"name":"B4","midi":71,"time":90.34375000000037,"velocity":0.5275590551181102,"duration":0.18541666666666856},{"name":"E3","midi":52,"time":90.34375000000037,"velocity":0.5669291338582677,"duration":0.18333333333333712},{"name":"C#5","midi":73,"time":90.54375000000037,"velocity":0.5275590551181102,"duration":0.1875},{"name":"A#2","midi":46,"time":90.54375000000037,"velocity":0.5669291338582677,"duration":0.18541666666666856},{"name":"E5","midi":76,"time":90.7458333333337,"velocity":0.5275590551181102,"duration":0.1875},{"name":"F#3","midi":54,"time":90.7458333333337,"velocity":0.5669291338582677,"duration":0.1875},{"name":"F#5","midi":78,"time":90.94583333333371,"velocity":0.4330708661417323,"duration":0.5666666666666629},{"name":"D5","midi":74,"time":90.94583333333371,"velocity":0.5275590551181102,"duration":0.1875},{"name":"G#3","midi":56,"time":90.94791666666704,"velocity":0.5669291338582677,"duration":0.18541666666666856},{"name":"C#5","midi":73,"time":91.14791666666704,"velocity":0.5275590551181102,"duration":0.1875},{"name":"A#3","midi":58,"time":91.14791666666704,"velocity":0.5669291338582677,"duration":0.1875},{"name":"D5","midi":74,"time":91.35000000000038,"velocity":0.5275590551181102,"duration":0.3708333333333371},{"name":"B3","midi":59,"time":91.35000000000038,"velocity":0.5669291338582677,"duration":0.1875},{"name":"A5","midi":81,"time":91.55000000000038,"velocity":0.4330708661417323,"duration":0.18333333333333712},{"name":"B2","midi":47,"time":91.55000000000038,"velocity":0.5669291338582677,"duration":0.18333333333333712},{"name":"B4","midi":71,"time":91.74583333333372,"velocity":0.5275590551181102,"duration":0.5562500000000057},{"name":"G5","midi":79,"time":91.74583333333372,"velocity":0.4330708661417323,"duration":0.18333333333333712},{"name":"C#3","midi":49,"time":91.74791666666705,"velocity":0.5669291338582677,"duration":0.18125000000000568},{"name":"F#5","midi":78,"time":91.94375000000039,"velocity":0.4330708661417323,"duration":0.18541666666666856},{"name":"D3","midi":50,"time":91.94375000000039,"velocity":0.5669291338582677,"duration":0.18541666666666856},{"name":"E5","midi":76,"time":92.14166666666706,"velocity":0.5275590551181102,"duration":0.3687499999999915},{"name":"E3","midi":52,"time":92.14166666666706,"velocity":0.5669291338582677,"duration":0.1833333333333229},{"name":"D5","midi":74,"time":92.33958333333372,"velocity":0.5275590551181102,"duration":0.18541666666666856},{"name":"F#3","midi":54,"time":92.33958333333372,"velocity":0.5669291338582677,"duration":0.18333333333333712},{"name":"G#5","midi":80,"time":92.53541666666706,"velocity":0.3858267716535433,"duration":0.5562500000000057},{"name":"C#5","midi":73,"time":92.53541666666706,"velocity":0.5275590551181102,"duration":0.1875},{"name":"E3","midi":52,"time":92.53750000000039,"velocity":0.5669291338582677,"duration":0.18333333333333712},{"name":"B4","midi":71,"time":92.73333333333373,"velocity":0.5275590551181102,"duration":0.18958333333333144},{"name":"D3","midi":50,"time":92.73333333333373,"velocity":0.5669291338582677,"duration":0.1875},{"name":"E5","midi":76,"time":92.93333333333374,"velocity":0.5275590551181102,"duration":0.37291666666666856},{"name":"C#3","midi":49,"time":92.93333333333374,"velocity":0.5669291338582677,"duration":0.18541666666666856},{"name":"B5","midi":83,"time":93.13333333333374,"velocity":0.3858267716535433,"duration":0.18541666666666856},{"name":"C#4","midi":61,"time":93.13333333333374,"velocity":0.5669291338582677,"duration":0.18333333333333712},{"name":"C#5","midi":73,"time":93.33125000000041,"velocity":0.5275590551181102,"duration":0.5562500000000057},{"name":"A5","midi":81,"time":93.33125000000041,"velocity":0.3858267716535433,"duration":0.1875},{"name":"D4","midi":62,"time":93.33333333333374,"velocity":0.5669291338582677,"duration":0.18333333333333712},{"name":"G#5","midi":80,"time":93.52916666666708,"velocity":0.3858267716535433,"duration":0.18541666666666856},{"name":"E4","midi":64,"time":93.52916666666708,"velocity":0.5669291338582677,"duration":0.18333333333333712},{"name":"A5","midi":81,"time":93.72708333333375,"velocity":0.3858267716535433,"duration":0.3687499999999915},{"name":"F#4","midi":66,"time":93.72708333333375,"velocity":0.5669291338582677,"duration":0.1833333333333229},{"name":"E5","midi":76,"time":93.92291666666708,"velocity":0.5275590551181102,"duration":0.18541666666666856},{"name":"G4","midi":67,"time":93.92500000000041,"velocity":0.5669291338582677,"duration":0.18125000000000568},{"name":"A#5","midi":82,"time":94.12291666666708,"velocity":0.3858267716535433,"duration":0.5479166666666657},{"name":"D5","midi":74,"time":94.12291666666708,"velocity":0.5275590551181102,"duration":0.17916666666666003},{"name":"F#4","midi":66,"time":94.12500000000041,"velocity":0.5669291338582677,"duration":0.17499999999999716},{"name":"C#5","midi":73,"time":94.31458333333374,"velocity":0.5275590551181102,"duration":0.18541666666666856},{"name":"E4","midi":64,"time":94.31666666666707,"velocity":0.5669291338582677,"duration":0.18333333333333712},{"name":"F#5","midi":78,"time":94.51041666666708,"velocity":0.4330708661417323,"duration":0.3708333333333371},{"name":"D4","midi":62,"time":94.51250000000041,"velocity":0.5669291338582677,"duration":0.18333333333333712},{"name":"C6","midi":84,"time":94.70833333333375,"velocity":0.4330708661417323,"duration":0.18541666666666856},{"name":"D3","midi":50,"time":94.70833333333375,"velocity":0.5669291338582677,"duration":0.18541666666666856},{"name":"D5","midi":74,"time":94.90625000000043,"velocity":0.5275590551181102,"duration":0.5437500000000028},{"name":"B5","midi":83,"time":94.90625000000043,"velocity":0.4330708661417323,"duration":0.17916666666666003},{"name":"E3","midi":52,"time":94.90833333333376,"velocity":0.5669291338582677,"duration":0.1770833333333286},{"name":"A#5","midi":82,"time":95.09791666666709,"velocity":0.4330708661417323,"duration":0.18125000000000568},{"name":"F#3","midi":54,"time":95.09791666666709,"velocity":0.5669291338582677,"duration":0.18125000000000568},{"name":"B5","midi":83,"time":95.29375000000043,"velocity":0.4330708661417323,"duration":0.5479166666666515},{"name":"G3","midi":55,"time":95.29583333333376,"velocity":0.5669291338582677,"duration":0.1770833333333286},{"name":"E5","midi":76,"time":95.48750000000042,"velocity":0.5275590551181102,"duration":0.1833333333333229},{"name":"F#3","midi":54,"time":95.48958333333375,"velocity":0.5669291338582677,"duration":0.17916666666666003},{"name":"F#5","midi":78,"time":95.68125000000042,"velocity":0.4330708661417323,"duration":0.7437500000000057},{"name":"E3","midi":52,"time":95.68333333333375,"velocity":0.5669291338582677,"duration":0.17916666666666003},{"name":"A5","midi":81,"time":95.87500000000041,"velocity":0.4330708661417323,"duration":0.1875},{"name":"D#3","midi":51,"time":95.87708333333374,"velocity":0.5669291338582677,"duration":0.18333333333333712},{"name":"G5","midi":79,"time":96.07500000000041,"velocity":0.4330708661417323,"duration":0.7479166666666828},{"name":"E3","midi":52,"time":96.07708333333375,"velocity":0.5669291338582677,"duration":0.18541666666666856},{"name":"D3","midi":50,"time":96.27500000000042,"velocity":0.5669291338582677,"duration":0.18541666666666856},{"name":"E5","midi":76,"time":96.47500000000042,"velocity":0.5275590551181102,"duration":0.7395833333333428},{"name":"C#3","midi":49,"time":96.47500000000042,"velocity":0.5669291338582677,"duration":0.18541666666666856},{"name":"B2","midi":47,"time":96.67291666666709,"velocity":0.5669291338582677,"duration":0.18541666666666856},{"name":"F#5","midi":78,"time":96.87083333333376,"velocity":0.4330708661417323,"duration":0.7416666666666742},{"name":"A#2","midi":46,"time":96.87083333333376,"velocity":0.5669291338582677,"duration":0.18125000000000568},{"name":"F#3","midi":54,"time":97.0666666666671,"velocity":0.5669291338582677,"duration":0.1833333333333229},{"name":"D5","midi":74,"time":97.26250000000043,"velocity":0.5275590551181102,"duration":0.7437500000000199},{"name":"B3","midi":59,"time":97.26250000000043,"velocity":0.5669291338582677,"duration":0.18541666666666856},{"name":"A3","midi":57,"time":97.46250000000043,"velocity":0.5669291338582677,"duration":0.18333333333333712},{"name":"E5","midi":76,"time":97.6604166666671,"velocity":0.5275590551181102,"duration":0.7375000000000114},{"name":"G#3","midi":56,"time":97.6604166666671,"velocity":0.5669291338582677,"duration":0.18333333333333712},{"name":"F#3","midi":54,"time":97.85625000000044,"velocity":0.5669291338582677,"duration":0.18333333333333712},{"name":"C#5","midi":73,"time":98.05416666666711,"velocity":0.5275590551181102,"duration":0.7333333333333201},{"name":"G#3","midi":56,"time":98.05416666666711,"velocity":0.5669291338582677,"duration":0.18125000000000568},{"name":"A#3","midi":58,"time":98.25000000000045,"velocity":0.5669291338582677,"duration":0.18124999999999147},{"name":"D5","midi":74,"time":98.44583333333378,"velocity":0.5275590551181102,"duration":1.1083333333333343},{"name":"B3","midi":59,"time":98.44791666666711,"velocity":0.5669291338582677,"duration":0.17916666666666003},{"name":"B2","midi":47,"time":98.63958333333377,"velocity":0.5669291338582677,"duration":0.1833333333333229},{"name":"B4","midi":71,"time":98.8354166666671,"velocity":0.5275590551181102,"duration":0.18541666666666856},{"name":"C#3","midi":49,"time":98.83750000000043,"velocity":0.5669291338582677,"duration":0.18333333333333712},{"name":"A4","midi":69,"time":99.03333333333377,"velocity":0.5275590551181102,"duration":0.18541666666666856},{"name":"D3","midi":50,"time":99.0354166666671,"velocity":0.5669291338582677,"duration":0.18333333333333712},{"name":"G4","midi":67,"time":99.23125000000044,"velocity":0.5669291338582677,"duration":0.927083333333357},{"name":"E3","midi":52,"time":99.23125000000044,"velocity":0.5669291338582677,"duration":0.18333333333333712},{"name":"F#3","midi":54,"time":99.42916666666711,"velocity":0.5669291338582677,"duration":0.18333333333333712},{"name":"C#5","midi":73,"time":99.62500000000045,"velocity":0.5275590551181102,"duration":0.18333333333333712},{"name":"G3","midi":55,"time":99.62500000000045,"velocity":0.5669291338582677,"duration":0.18333333333333712},{"name":"B4","midi":71,"time":99.82291666666713,"velocity":0.5275590551181102,"duration":0.18333333333333712},{"name":"E3","midi":52,"time":99.82500000000046,"velocity":0.5669291338582677,"duration":0.18125000000000568},{"name":"A#4","midi":70,"time":100.0208333333338,"velocity":0.5275590551181102,"duration":0.18333333333333712},{"name":"F#3","midi":54,"time":100.02291666666713,"velocity":0.5669291338582677,"duration":0.18125000000000568},{"name":"G5","midi":79,"time":100.21666666666714,"velocity":0.4330708661417323,"duration":0.18541666666666856},{"name":"A#4","midi":70,"time":100.21875000000047,"velocity":0.5275590551181102,"duration":0.18125000000000568},{"name":"E3","midi":52,"time":100.21875000000047,"velocity":0.5669291338582677,"duration":0.18125000000000568},{"name":"F#5","midi":78,"time":100.41458333333381,"velocity":0.4330708661417323,"duration":0.1875},{"name":"B4","midi":71,"time":100.41666666666714,"velocity":0.5275590551181102,"duration":0.18333333333333712},{"name":"D3","midi":50,"time":100.41666666666714,"velocity":0.5669291338582677,"duration":0.18333333333333712},{"name":"C#5","midi":73,"time":100.61458333333381,"velocity":0.5275590551181102,"duration":0.18541666666666856},{"name":"E5","midi":76,"time":100.61666666666714,"velocity":0.5275590551181102,"duration":0.18333333333333712},{"name":"E3","midi":52,"time":100.61666666666714,"velocity":0.5669291338582677,"duration":0.18333333333333712},{"name":"D5","midi":74,"time":100.81250000000048,"velocity":0.5275590551181102,"duration":0.3708333333333371},{"name":"F#4","midi":66,"time":100.81458333333381,"velocity":0.5669291338582677,"duration":0.18541666666666856},{"name":"F#3","midi":54,"time":100.81458333333381,"velocity":0.5669291338582677,"duration":0.18541666666666856},{"name":"B4","midi":71,"time":101.01041666666715,"velocity":0.5275590551181102,"duration":0.375},{"name":"E3","midi":52,"time":101.01250000000049,"velocity":0.5669291338582677,"duration":0.18541666666666856},{"name":"C#5","midi":73,"time":101.21041666666716,"velocity":0.5275590551181102,"duration":0.37291666666666856},{"name":"F#3","midi":54,"time":101.21250000000049,"velocity":0.5669291338582677,"duration":0.18333333333333712},{"name":"A#4","midi":70,"time":101.40833333333383,"velocity":0.5275590551181102,"duration":0.18541666666666856},{"name":"F#2","midi":42,"time":101.41041666666716,"velocity":0.5669291338582677,"duration":0.18333333333333712},{"name":"B4","midi":71,"time":101.6062500000005,"velocity":0.5275590551181102,"duration":0.8937500000000114},{"name":"G2","midi":43,"time":101.60833333333383,"velocity":0.5669291338582677,"duration":0.3645833333333286},{"name":"E4","midi":64,"time":101.8000000000005,"velocity":0.5669291338582677,"duration":0.36666666666667425},{"name":"F#2","midi":42,"time":101.99791666666717,"velocity":0.5669291338582677,"duration":0.36250000000001137},{"name":"D#4","midi":63,"time":102.19166666666717,"velocity":0.5669291338582677,"duration":0.17916666666667425},{"name":"G4","midi":67,"time":102.38541666666718,"velocity":0.5669291338582677,"duration":0.7145833333333229},{"name":"E2","midi":40,"time":102.38541666666718,"velocity":0.5669291338582677,"duration":0.35625000000000284},{"name":"B4","midi":71,"time":102.57500000000051,"velocity":0.5275590551181102,"duration":0.3583333333333343},{"name":"D2","midi":38,"time":102.76458333333385,"velocity":0.5669291338582677,"duration":0.35833333333332007},{"name":"A#4","midi":70,"time":102.95625000000051,"velocity":0.5275590551181102,"duration":0.17916666666666003},{"name":"E5","midi":76,"time":103.14791666666717,"velocity":0.5275590551181102,"duration":0.7270833333333258},{"name":"C#2","midi":37,"time":103.14791666666717,"velocity":0.5669291338582677,"duration":0.1770833333333286},{"name":"B3","midi":59,"time":103.33958333333383,"velocity":0.5669291338582677,"duration":0.17916666666666003},{"name":"G4","midi":67,"time":103.33958333333383,"velocity":0.5669291338582677,"duration":0.36249999999999716},{"name":"A#3","midi":58,"time":103.53333333333383,"velocity":0.5669291338582677,"duration":0.17916666666667425},{"name":"F#4","midi":66,"time":103.72708333333384,"velocity":0.5669291338582677,"duration":0.1833333333333229},{"name":"A3","midi":57,"time":103.72708333333384,"velocity":0.5669291338582677,"duration":0.18124999999999147},{"name":"B4","midi":71,"time":103.92083333333383,"velocity":0.5275590551181102,"duration":0.8979166666666885},{"name":"G#3","midi":56,"time":103.92291666666716,"velocity":0.5669291338582677,"duration":0.17916666666666003},{"name":"E5","midi":76,"time":104.11458333333383,"velocity":0.5275590551181102,"duration":0.3645833333333428},{"name":"G3","midi":55,"time":104.11666666666716,"velocity":0.5669291338582677,"duration":0.18125000000000568},{"name":"F#3","midi":54,"time":104.31041666666717,"velocity":0.5669291338582677,"duration":0.18125000000000568},{"name":"D#5","midi":75,"time":104.5062500000005,"velocity":0.5275590551181102,"duration":0.18125000000000568},{"name":"B3","midi":59,"time":104.5062500000005,"velocity":0.5669291338582677,"duration":0.18125000000000568},{"name":"G5","midi":79,"time":104.70000000000051,"velocity":0.4330708661417323,"duration":0.9125000000000085},{"name":"E3","midi":52,"time":104.70000000000051,"velocity":0.5669291338582677,"duration":0.17916666666667425},{"name":"B4","midi":71,"time":104.89375000000052,"velocity":0.5275590551181102,"duration":0.36249999999999716},{"name":"E4","midi":64,"time":104.89375000000052,"velocity":0.5669291338582677,"duration":0.17916666666666003},{"name":"D4","midi":62,"time":105.08750000000052,"velocity":0.5669291338582677,"duration":0.17916666666667425},{"name":"A#4","midi":70,"time":105.28125000000053,"velocity":0.5275590551181102,"duration":0.1833333333333229},{"name":"C#4","midi":61,"time":105.28333333333386,"velocity":0.5669291338582677,"duration":0.17916666666666003},{"name":"D5","midi":74,"time":105.47708333333385,"velocity":0.5275590551181102,"duration":0.9166666666666998},{"name":"B3","midi":59,"time":105.47916666666718,"velocity":0.5669291338582677,"duration":0.18125000000000568},{"name":"F#5","midi":78,"time":105.67291666666719,"velocity":0.4330708661417323,"duration":0.3645833333333428},{"name":"C4","midi":60,"time":105.67291666666719,"velocity":0.5669291338582677,"duration":0.18125000000000568},{"name":"C#4","midi":61,"time":105.86875000000053,"velocity":0.5669291338582677,"duration":0.18125000000000568},{"name":"F5","midi":77,"time":106.06250000000054,"velocity":0.4330708661417323,"duration":0.18333333333333712},{"name":"D4","midi":62,"time":106.06250000000054,"velocity":0.5669291338582677,"duration":0.18125000000000568},{"name":"B5","midi":83,"time":106.25833333333388,"velocity":0.3858267716535433,"duration":0.18125000000000568},{"name":"F3","midi":53,"time":106.25833333333388,"velocity":0.5669291338582677,"duration":0.17916666666667425},{"name":"C5","midi":72,"time":106.45208333333389,"velocity":0.5275590551181102,"duration":0.18124999999999147},{"name":"E5","midi":76,"time":106.45208333333389,"velocity":0.48031496062992124,"duration":0.08958333333333712},{"name":"F#3","midi":54,"time":106.45416666666722,"velocity":0.5669291338582677,"duration":0.1770833333333286},{"name":"D#5","midi":75,"time":106.54791666666722,"velocity":0.48031496062992124,"duration":0.09166666666665435},{"name":"E5","midi":76,"time":106.64583333333387,"velocity":0.48031496062992124,"duration":0.1833333333333229},{"name":"B4","midi":71,"time":106.6479166666672,"velocity":0.5275590551181102,"duration":0.7333333333333343},{"name":"G3","midi":55,"time":106.6479166666672,"velocity":0.5669291338582677,"duration":0.17916666666666003},{"name":"G5","midi":79,"time":106.8416666666672,"velocity":0.3858267716535433,"duration":0.18541666666666856},{"name":"E3","midi":52,"time":106.84375000000053,"velocity":0.5669291338582677,"duration":0.18125000000000568},{"name":"D5","midi":74,"time":107.03750000000053,"velocity":0.5275590551181102,"duration":0.36666666666666003},{"name":"F#3","midi":54,"time":107.03958333333387,"velocity":0.5669291338582677,"duration":0.18125000000000568},{"name":"E3","midi":52,"time":107.23333333333387,"velocity":0.5669291338582677,"duration":0.1833333333333229},{"name":"C#5","midi":73,"time":107.42708333333387,"velocity":0.5275590551181102,"duration":0.36666666666667425},{"name":"A#4","midi":70,"time":107.4291666666672,"velocity":0.5275590551181102,"duration":0.36250000000001137},{"name":"F#3","midi":54,"time":107.4291666666672,"velocity":0.5669291338582677,"duration":0.18125000000000568},{"name":"F#2","midi":42,"time":107.62291666666721,"velocity":0.5669291338582677,"duration":0.18125000000000568},{"name":"D#5","midi":75,"time":107.81666666666722,"velocity":0.5275590551181102,"duration":0.18124999999999147},{"name":"A4","midi":69,"time":107.81666666666722,"velocity":0.5275590551181102,"duration":0.17916666666666003},{"name":"B2","midi":47,"time":107.81875000000055,"velocity":0.5669291338582677,"duration":2.1770833333333144},{"name":"E5","midi":76,"time":108.00833333333388,"velocity":0.5275590551181102,"duration":0.1770833333333286},{"name":"G4","midi":67,"time":108.00833333333388,"velocity":0.5669291338582677,"duration":0.36249999999999716},{"name":"A#4","midi":70,"time":108.20000000000054,"velocity":0.5275590551181102,"duration":0.18125000000000568},{"name":"B4","midi":71,"time":108.39375000000055,"velocity":0.5275590551181102,"duration":0.18124999999999147},{"name":"F#4","midi":66,"time":108.39583333333388,"velocity":0.5669291338582677,"duration":0.3645833333333286},{"name":"G4","midi":67,"time":108.58958333333388,"velocity":0.5669291338582677,"duration":0.77291666666666},{"name":"E4","midi":64,"time":108.78333333333387,"velocity":0.5669291338582677,"duration":0.18125000000000568},{"name":"C#4","midi":61,"time":108.97916666666721,"velocity":0.5669291338582677,"duration":0.38333333333332575},{"name":"A#4","midi":70,"time":109.1729166666672,"velocity":0.5275590551181102,"duration":0.18333333333333712},{"name":"B4","midi":71,"time":109.36458333333387,"velocity":0.4566929133858268,"duration":0.7291666666666572},{"name":"D#4","midi":63,"time":109.36458333333387,"velocity":0.5669291338582677,"duration":0.7291666666666572},{"name":"F#4","midi":66,"time":109.3666666666672,"velocity":0.5669291338582677,"duration":0.7249999999999943},{"name":"A5","midi":81,"time":110.14375000000052,"velocity":0.4330708661417323,"duration":0.9312500000000199},{"name":"F#3","midi":54,"time":110.14375000000052,"velocity":0.5669291338582677,"duration":0.18541666666666856},{"name":"C#5","midi":73,"time":110.34375000000053,"velocity":0.5275590551181102,"duration":0.18541666666666856},{"name":"G3","midi":55,"time":110.34375000000053,"velocity":0.5669291338582677,"duration":0.18333333333333712},{"name":"F#5","midi":78,"time":110.54375000000053,"velocity":0.4330708661417323,"duration":0.1875},{"name":"A3","midi":57,"time":110.54375000000053,"velocity":0.5669291338582677,"duration":0.18541666666666856},{"name":"E5","midi":76,"time":110.74375000000053,"velocity":0.5275590551181102,"duration":0.18333333333333712},{"name":"F#3","midi":54,"time":110.74375000000053,"velocity":0.5669291338582677,"duration":0.18333333333333712},{"name":"D#5","midi":75,"time":110.9416666666672,"velocity":0.5275590551181102,"duration":0.7375000000000256},{"name":"B3","midi":59,"time":110.9416666666672,"velocity":0.5669291338582677,"duration":0.18125000000000568},{"name":"F#5","midi":78,"time":111.13541666666721,"velocity":0.4330708661417323,"duration":0.18333333333333712},{"name":"A3","midi":57,"time":111.13541666666721,"velocity":0.5669291338582677,"duration":0.18125000000000568},{"name":"B5","midi":83,"time":111.32916666666722,"velocity":0.4330708661417323,"duration":0.18541666666666856},{"name":"G3","midi":55,"time":111.32916666666722,"velocity":0.5669291338582677,"duration":0.18333333333333712},{"name":"A5","midi":81,"time":111.52708333333389,"velocity":0.4330708661417323,"duration":0.18958333333333144},{"name":"F#3","midi":54,"time":111.52708333333389,"velocity":0.5669291338582677,"duration":0.1875},{"name":"E5","midi":76,"time":111.7270833333339,"velocity":0.5275590551181102,"duration":0.375},{"name":"G5","midi":79,"time":111.7270833333339,"velocity":0.4330708661417323,"duration":0.37708333333333144},{"name":"E3","midi":52,"time":111.72916666666723,"velocity":0.5669291338582677,"duration":0.18541666666666856},{"name":"G2","midi":43,"time":111.9270833333339,"velocity":0.5669291338582677,"duration":0.1875},{"name":"D#5","midi":75,"time":112.1270833333339,"velocity":0.5275590551181102,"duration":0.375},{"name":"F#5","midi":78,"time":112.1270833333339,"velocity":0.4330708661417323,"duration":0.37708333333333144},{"name":"A2","midi":45,"time":112.12916666666723,"velocity":0.5669291338582677,"duration":0.18541666666666856},{"name":"B2","midi":47,"time":112.3270833333339,"velocity":0.5669291338582677,"duration":0.1875},{"name":"G5","midi":79,"time":112.5270833333339,"velocity":0.4330708661417323,"duration":0.9250000000000114},{"name":"E5","midi":76,"time":112.5270833333339,"velocity":0.5275590551181102,"duration":0.1875},{"name":"E2","midi":40,"time":112.52916666666724,"velocity":0.5669291338582677,"duration":0.18333333333333712},{"name":"B4","midi":71,"time":112.72708333333391,"velocity":0.5275590551181102,"duration":0.18541666666666856},{"name":"F#2","midi":42,"time":112.72708333333391,"velocity":0.5669291338582677,"duration":0.18333333333333712},{"name":"E5","midi":76,"time":112.92500000000058,"velocity":0.5275590551181102,"duration":0.18333333333333712},{"name":"G2","midi":43,"time":112.92500000000058,"velocity":0.5669291338582677,"duration":0.18125000000000568},{"name":"D5","midi":74,"time":113.12083333333392,"velocity":0.5275590551181102,"duration":0.18124999999999147},{"name":"E2","midi":40,"time":113.12291666666725,"velocity":0.5669291338582677,"duration":0.1770833333333286},{"name":"C#5","midi":73,"time":113.31458333333391,"velocity":0.5275590551181102,"duration":0.7354166666666799},{"name":"A2","midi":45,"time":113.31666666666725,"velocity":0.5669291338582677,"duration":0.18333333333333712},{"name":"E5","midi":76,"time":113.51250000000059,"velocity":0.5275590551181102,"duration":0.18333333333333712},{"name":"G2","midi":43,"time":113.51458333333392,"velocity":0.5669291338582677,"duration":0.18125000000000568},{"name":"A5","midi":81,"time":113.70833333333393,"velocity":0.4330708661417323,"duration":0.18333333333333712},{"name":"F#2","midi":42,"time":113.71041666666726,"velocity":0.5669291338582677,"duration":0.18125000000000568},{"name":"G5","midi":79,"time":113.90208333333393,"velocity":0.4330708661417323,"duration":0.18124999999999147},{"name":"E2","midi":40,"time":113.90416666666727,"velocity":0.5669291338582677,"duration":0.17916666666666003},{"name":"F#5","midi":78,"time":114.09791666666726,"velocity":0.4330708661417323,"duration":0.37708333333333144},{"name":"D5","midi":74,"time":114.10000000000059,"velocity":0.5275590551181102,"duration":0.37291666666666856},{"name":"D2","midi":38,"time":114.10000000000059,"velocity":0.5669291338582677,"duration":0.18333333333333712},{"name":"F#2","midi":42,"time":114.29791666666726,"velocity":0.5669291338582677,"duration":0.1875},{"name":"C#5","midi":73,"time":114.49791666666727,"velocity":0.5275590551181102,"duration":0.37291666666666856},{"name":"E5","midi":76,"time":114.5000000000006,"velocity":0.5275590551181102,"duration":0.3687500000000057},{"name":"G2","midi":43,"time":114.5000000000006,"velocity":0.5669291338582677,"duration":0.18333333333333712},{"name":"A2","midi":45,"time":114.69791666666727,"velocity":0.5669291338582677,"duration":0.18125000000000568},{"name":"D5","midi":74,"time":114.89375000000061,"velocity":0.5275590551181102,"duration":0.18541666666666856},{"name":"F#5","midi":78,"time":114.89583333333394,"velocity":0.3858267716535433,"duration":0.9083333333333599},{"name":"D2","midi":38,"time":114.89583333333394,"velocity":0.5669291338582677,"duration":0.18333333333333712},{"name":"A4","midi":69,"time":115.09166666666728,"velocity":0.5275590551181102,"duration":0.18541666666666856},{"name":"E3","midi":52,"time":115.09375000000061,"velocity":0.5669291338582677,"duration":0.18333333333333712},{"name":"B4","midi":71,"time":115.28958333333395,"velocity":0.5275590551181102,"duration":0.18541666666666856},{"name":"D3","midi":50,"time":115.29166666666728,"velocity":0.5669291338582677,"duration":0.18333333333333712},{"name":"C#5","midi":73,"time":115.48750000000062,"velocity":0.5275590551181102,"duration":0.18333333333333712},{"name":"C#3","midi":49,"time":115.48958333333395,"velocity":0.5669291338582677,"duration":0.18125000000000568},{"name":"D5","midi":74,"time":115.68333333333396,"velocity":0.5275590551181102,"duration":0.9479166666666856},{"name":"B2","midi":47,"time":115.6854166666673,"velocity":0.5669291338582677,"duration":0.18125000000000568},{"name":"F#5","midi":78,"time":115.8791666666673,"velocity":0.4330708661417323,"duration":0.18541666666666856},{"name":"A2","midi":45,"time":115.88125000000063,"velocity":0.5669291338582677,"duration":0.18333333333333712},{"name":"G#5","midi":80,"time":116.07500000000064,"velocity":0.4330708661417323,"duration":0.18541666666666856},{"name":"G#2","midi":44,"time":116.07708333333397,"velocity":0.5669291338582677,"duration":0.18333333333333712},{"name":"A5","midi":81,"time":116.27291666666731,"velocity":0.4330708661417323,"duration":0.1979166666666714},{"name":"F#2","midi":42,"time":116.27291666666731,"velocity":0.5669291338582677,"duration":0.18333333333333712},{"name":"B5","midi":83,"time":116.47083333333399,"velocity":0.4330708661417323,"duration":0.3791666666666629},{"name":"F2","midi":41,"time":116.47291666666732,"velocity":0.5669291338582677,"duration":0.1875},{"name":"C#5","midi":73,"time":116.67291666666732,"velocity":0.5275590551181102,"duration":0.18958333333333144},{"name":"F#3","midi":54,"time":116.67291666666732,"velocity":0.5669291338582677,"duration":0.18958333333333144},{"name":"A5","midi":81,"time":116.87500000000065,"velocity":0.33070866141732286,"duration":0.7541666666666771},{"name":"F#5","midi":78,"time":116.87500000000065,"velocity":0.4330708661417323,"duration":0.18958333333333144},{"name":"G#3","midi":56,"time":116.87500000000065,"velocity":0.5669291338582677,"duration":0.18958333333333144},{"name":"E5","midi":76,"time":117.07708333333399,"velocity":0.5275590551181102,"duration":0.1875},{"name":"A3","midi":57,"time":117.07916666666732,"velocity":0.5669291338582677,"duration":0.18541666666666856},{"name":"D5","midi":74,"time":117.27708333333399,"velocity":0.5275590551181102,"duration":0.1875},{"name":"B3","midi":59,"time":117.27916666666732,"velocity":0.5669291338582677,"duration":0.18541666666666856},{"name":"C#5","midi":73,"time":117.47500000000066,"velocity":0.5275590551181102,"duration":0.19166666666666288},{"name":"C#4","midi":61,"time":117.477083333334,"velocity":0.5669291338582677,"duration":0.18958333333333144},{"name":"G5","midi":79,"time":117.67916666666733,"velocity":0.4330708661417323,"duration":0.18958333333333144},{"name":"B4","midi":71,"time":117.68125000000066,"velocity":0.5275590551181102,"duration":0.7479166666666686},{"name":"D4","midi":62,"time":117.68125000000066,"velocity":0.5669291338582677,"duration":0.1875},{"name":"F#5","midi":78,"time":117.88125000000066,"velocity":0.4330708661417323,"duration":0.18958333333333144},{"name":"B3","midi":59,"time":117.883333333334,"velocity":0.5669291338582677,"duration":0.1875},{"name":"F5","midi":77,"time":118.08125000000067,"velocity":0.4330708661417323,"duration":0.1875},{"name":"C#4","midi":61,"time":118.083333333334,"velocity":0.5669291338582677,"duration":0.18541666666666856},{"name":"C#5","midi":73,"time":118.28125000000067,"velocity":0.5275590551181102,"duration":0.1833333333333229},{"name":"F#2","midi":42,"time":118.283333333334,"velocity":0.5669291338582677,"duration":0.18124999999999147},{"name":"F#5","midi":78,"time":118.477083333334,"velocity":0.4330708661417323,"duration":0.18124999999999147},{"name":"A4","midi":69,"time":118.47916666666733,"velocity":0.5275590551181102,"duration":0.5479166666666515},{"name":"G#2","midi":44,"time":118.47916666666733,"velocity":0.5669291338582677,"duration":0.17916666666666003},{"name":"E5","midi":76,"time":118.67291666666732,"velocity":0.5275590551181102,"duration":0.17916666666666003},{"name":"A2","midi":45,"time":118.67291666666732,"velocity":0.5669291338582677,"duration":0.17916666666666003},{"name":"D5","midi":74,"time":118.86666666666731,"velocity":0.5275590551181102,"duration":1.1125000000000256},{"name":"B2","midi":47,"time":118.86666666666731,"velocity":0.5669291338582677,"duration":0.18541666666666856},{"name":"A4","midi":69,"time":119.06666666666732,"velocity":0.5275590551181102,"duration":0.18333333333333712},{"name":"C#3","midi":49,"time":119.06875000000065,"velocity":0.5669291338582677,"duration":0.18125000000000568},{"name":"G#4","midi":68,"time":119.26250000000066,"velocity":0.5275590551181102,"duration":0.18541666666666856},{"name":"D3","midi":50,"time":119.26250000000066,"velocity":0.5669291338582677,"duration":0.18333333333333712},{"name":"F#4","midi":66,"time":119.46041666666733,"velocity":0.5669291338582677,"duration":0.18541666666666856},{"name":"B2","midi":47,"time":119.46250000000066,"velocity":0.5669291338582677,"duration":0.18125000000000568},{"name":"F4","midi":65,"time":119.658333333334,"velocity":0.5669291338582677,"duration":0.18541666666666856},{"name":"C#3","midi":49,"time":119.66041666666733,"velocity":0.5669291338582677,"duration":0.18125000000000568},{"name":"F#4","midi":66,"time":119.85625000000067,"velocity":0.5669291338582677,"duration":0.18333333333333712},{"name":"D#3","midi":51,"time":119.858333333334,"velocity":0.5669291338582677,"duration":0.17916666666667425},{"name":"C#5","midi":73,"time":120.05208333333401,"velocity":0.5275590551181102,"duration":0.1833333333333229},{"name":"G#4","midi":68,"time":120.05416666666734,"velocity":0.5275590551181102,"duration":0.7354166666666799},{"name":"F3","midi":53,"time":120.05416666666734,"velocity":0.5669291338582677,"duration":0.17916666666666003},{"name":"B4","midi":71,"time":120.24791666666734,"velocity":0.5275590551181102,"duration":0.18333333333333712},{"name":"C#3","midi":49,"time":120.24791666666734,"velocity":0.5669291338582677,"duration":0.18125000000000568},{"name":"A4","midi":69,"time":120.44375000000068,"velocity":0.5275590551181102,"duration":0.18333333333333712},{"name":"F#3","midi":54,"time":120.44375000000068,"velocity":0.5669291338582677,"duration":0.18333333333333712},{"name":"B4","midi":71,"time":120.63958333333402,"velocity":0.5275590551181102,"duration":0.1875},{"name":"G#3","midi":56,"time":120.63958333333402,"velocity":0.5669291338582677,"duration":0.1875},{"name":"C#5","midi":73,"time":120.83958333333402,"velocity":0.5275590551181102,"duration":0.7437500000000199},{"name":"F#4","midi":66,"time":120.83958333333402,"velocity":0.5669291338582677,"duration":0.1875},{"name":"A3","midi":57,"time":120.84166666666735,"velocity":0.5669291338582677,"duration":0.18541666666666856},{"name":"E4","midi":64,"time":121.04166666666735,"velocity":0.5669291338582677,"duration":0.18333333333333712},{"name":"F#3","midi":54,"time":121.04166666666735,"velocity":0.5669291338582677,"duration":0.18333333333333712},{"name":"D4","midi":62,"time":121.23958333333402,"velocity":0.5669291338582677,"duration":0.7354166666666799},{"name":"B3","midi":59,"time":121.23958333333402,"velocity":0.5669291338582677,"duration":0.18125000000000568},{"name":"A3","midi":57,"time":121.43333333333403,"velocity":0.5669291338582677,"duration":0.18333333333333712},{"name":"B4","midi":71,"time":121.6312500000007,"velocity":0.5275590551181102,"duration":0.7374999999999972},{"name":"G#3","midi":56,"time":121.6312500000007,"velocity":0.5669291338582677,"duration":0.18333333333333712},{"name":"F#3","midi":54,"time":121.82708333333404,"velocity":0.5669291338582677,"duration":0.18124999999999147},{"name":"C#4","midi":61,"time":122.02291666666737,"velocity":0.5669291338582677,"duration":0.7354166666666657},{"name":"F3","midi":53,"time":122.0250000000007,"velocity":0.5669291338582677,"duration":0.17916666666666003},{"name":"C#3","midi":49,"time":122.2187500000007,"velocity":0.5669291338582677,"duration":0.18333333333333712},{"name":"A4","midi":69,"time":122.4187500000007,"velocity":0.5275590551181102,"duration":0.731250000000017},{"name":"F#3","midi":54,"time":122.4187500000007,"velocity":0.5669291338582677,"duration":0.18125000000000568},{"name":"E3","midi":52,"time":122.61250000000071,"velocity":0.5669291338582677,"duration":0.18124999999999147},{"name":"B3","midi":59,"time":122.80416666666737,"velocity":0.5669291338582677,"duration":0.9333333333333513},{"name":"D3","midi":50,"time":122.8062500000007,"velocity":0.5669291338582677,"duration":0.18333333333333712},{"name":"C#3","midi":49,"time":123.00000000000071,"velocity":0.5669291338582677,"duration":0.1875},{"name":"G#4","midi":68,"time":123.20000000000071,"velocity":0.5275590551181102,"duration":0.1875},{"name":"D3","midi":50,"time":123.20000000000071,"velocity":0.5669291338582677,"duration":0.1875},{"name":"F#4","midi":66,"time":123.40000000000072,"velocity":0.5669291338582677,"duration":0.18541666666666856},{"name":"B2","midi":47,"time":123.40000000000072,"velocity":0.5669291338582677,"duration":0.18541666666666856},{"name":"F4","midi":65,"time":123.60000000000072,"velocity":0.5669291338582677,"duration":0.18333333333333712},{"name":"C#3","midi":49,"time":123.60000000000072,"velocity":0.5669291338582677,"duration":0.18333333333333712},{"name":"D5","midi":74,"time":123.79791666666739,"velocity":0.5275590551181102,"duration":0.18541666666666856},{"name":"F4","midi":65,"time":123.79791666666739,"velocity":0.5669291338582677,"duration":0.18333333333333712},{"name":"B2","midi":47,"time":123.80000000000072,"velocity":0.5669291338582677,"duration":0.18125000000000568},{"name":"C#5","midi":73,"time":123.99583333333406,"velocity":0.5275590551181102,"duration":0.1875},{"name":"F#4","midi":66,"time":123.9979166666674,"velocity":0.5669291338582677,"duration":0.18333333333333712},{"name":"A2","midi":45,"time":123.9979166666674,"velocity":0.5669291338582677,"duration":0.18333333333333712},{"name":"G#4","midi":68,"time":124.19583333333406,"velocity":0.5275590551181102,"duration":0.18958333333333144},{"name":"B4","midi":71,"time":124.19583333333406,"velocity":0.5275590551181102,"duration":0.1875},{"name":"B2","midi":47,"time":124.1979166666674,"velocity":0.5669291338582677,"duration":0.18541666666666856},{"name":"A4","midi":69,"time":124.39583333333407,"velocity":0.5275590551181102,"duration":0.37708333333333144},{"name":"C#4","midi":61,"time":124.3979166666674,"velocity":0.5669291338582677,"duration":0.18333333333333712},{"name":"C#3","midi":49,"time":124.3979166666674,"velocity":0.5669291338582677,"duration":0.18333333333333712},{"name":"F#4","midi":66,"time":124.59583333333407,"velocity":0.5669291338582677,"duration":0.37708333333333144},{"name":"B2","midi":47,"time":124.59583333333407,"velocity":0.5669291338582677,"duration":0.18958333333333144},{"name":"G#4","midi":68,"time":124.7979166666674,"velocity":0.5275590551181102,"duration":0.37708333333333144},{"name":"C#3","midi":49,"time":124.80000000000074,"velocity":0.5669291338582677,"duration":0.18541666666666856},{"name":"F4","midi":65,"time":124.99791666666741,"velocity":0.5669291338582677,"duration":0.1875},{"name":"C#2","midi":37,"time":125.00000000000074,"velocity":0.5669291338582677,"duration":0.18541666666666856},{"name":"F#4","midi":66,"time":125.20000000000074,"velocity":0.5669291338582677,"duration":0.375},{"name":"F#2","midi":42,"time":125.20000000000074,"velocity":0.5669291338582677,"duration":0.1875},{"name":"C#3","midi":49,"time":125.40000000000074,"velocity":0.5669291338582677,"duration":0.18541666666666856},{"name":"C5","midi":72,"time":125.59791666666742,"velocity":0.5275590551181102,"duration":0.7500000000000142},{"name":"D#3","midi":51,"time":125.60000000000075,"velocity":0.5669291338582677,"duration":0.18333333333333712},{"name":"E3","midi":52,"time":125.79791666666742,"velocity":0.5669291338582677,"duration":0.18541666666666856},{"name":"D#5","midi":75,"time":125.99791666666742,"velocity":0.5275590551181102,"duration":0.3750000000000142},{"name":"F#3","midi":54,"time":126.00000000000075,"velocity":0.5669291338582677,"duration":0.18333333333333712},{"name":"A3","midi":57,"time":126.19791666666742,"velocity":0.5669291338582677,"duration":0.18541666666668277},{"name":"E5","midi":76,"time":126.39583333333411,"velocity":0.4566929133858268,"duration":0.1875},{"name":"B4","midi":71,"time":126.39791666666744,"velocity":0.5275590551181102,"duration":0.18541666666666856},{"name":"G3","midi":55,"time":126.39791666666744,"velocity":0.5669291338582677,"duration":0.18333333333333712},{"name":"F#5","midi":78,"time":126.59583333333411,"velocity":0.36220472440944884,"duration":0.18541666666666856},{"name":"A4","midi":69,"time":126.59791666666744,"velocity":0.5275590551181102,"duration":0.18333333333333712},{"name":"F#3","midi":54,"time":126.59791666666744,"velocity":0.5669291338582677,"duration":0.18125000000000568},{"name":"B4","midi":71,"time":126.79375000000078,"velocity":0.5275590551181102,"duration":0.18541666666666856},{"name":"E3","midi":52,"time":126.79583333333412,"velocity":0.5669291338582677,"duration":0.18333333333333712},{"name":"G4","midi":67,"time":126.79583333333412,"velocity":0.5669291338582677,"duration":0.18125000000000568},{"name":"C6","midi":84,"time":126.99166666666746,"velocity":0.36220472440944884,"duration":0.18541666666666856},{"name":"D#5","midi":75,"time":126.99375000000079,"velocity":0.5275590551181102,"duration":0.18333333333333712},{"name":"F#3","midi":54,"time":126.99375000000079,"velocity":0.5669291338582677,"duration":0.18125000000000568},{"name":"B5","midi":83,"time":127.18958333333413,"velocity":0.36220472440944884,"duration":0.18958333333333144},{"name":"E5","midi":76,"time":127.19166666666746,"velocity":0.5275590551181102,"duration":0.1875},{"name":"G3","midi":55,"time":127.19166666666746,"velocity":0.5669291338582677,"duration":0.18541666666666856},{"name":"F#5","midi":78,"time":127.39166666666746,"velocity":0.4330708661417323,"duration":0.19166666666666288},{"name":"A5","midi":81,"time":127.3937500000008,"velocity":0.36220472440944884,"duration":0.18958333333333144},{"name":"A3","midi":57,"time":127.3937500000008,"velocity":0.5669291338582677,"duration":0.1875},{"name":"G5","midi":79,"time":127.59583333333413,"velocity":0.4330708661417323,"duration":0.375},{"name":"B4","midi":71,"time":127.59791666666746,"velocity":0.5275590551181102,"duration":0.18541666666666856},{"name":"B3","midi":59,"time":127.59791666666746,"velocity":0.5669291338582677,"duration":0.18333333333333712},{"name":"E5","midi":76,"time":127.79583333333413,"velocity":0.5275590551181102,"duration":0.3708333333333229},{"name":"A3","midi":57,"time":127.79791666666746,"velocity":0.5669291338582677,"duration":0.18333333333333712},{"name":"F#5","midi":78,"time":127.9937500000008,"velocity":0.4330708661417323,"duration":0.37291666666664014},{"name":"B3","midi":59,"time":127.99583333333413,"velocity":0.5669291338582677,"duration":0.18124999999997726},{"name":"D#5","midi":75,"time":128.19166666666743,"velocity":0.5275590551181102,"duration":0.1875},{"name":"B2","midi":47,"time":128.19375000000076,"velocity":0.5669291338582677,"duration":0.18333333333333712},{"name":"E5","midi":76,"time":128.39166666666742,"velocity":0.5275590551181102,"duration":0.3708333333333371},{"name":"E3","midi":52,"time":128.39375000000075,"velocity":0.5669291338582677,"duration":0.18125000000000568},{"name":"B3","midi":59,"time":128.58750000000074,"velocity":0.5669291338582677,"duration":0.1875},{"name":"A#5","midi":82,"time":128.78750000000073,"velocity":0.4330708661417323,"duration":0.7541666666666345},{"name":"C#4","midi":61,"time":128.78750000000073,"velocity":0.5669291338582677,"duration":0.1875},{"name":"D4","midi":62,"time":128.98750000000072,"velocity":0.5669291338582677,"duration":0.1875},{"name":"C#5","midi":73,"time":129.18958333333404,"velocity":0.5275590551181102,"duration":0.3812499999999943},{"name":"E4","midi":64,"time":129.18958333333404,"velocity":0.5669291338582677,"duration":0.18541666666666856},{"name":"G3","midi":55,"time":129.38541666666737,"velocity":0.5669291338582677,"duration":0.18333333333333712},{"name":"A5","midi":81,"time":129.58333333333402,"velocity":0.4330708661417323,"duration":0.18333333333333712},{"name":"D5","midi":74,"time":129.58333333333402,"velocity":0.5275590551181102,"duration":0.18125000000000568},{"name":"F#3","midi":54,"time":129.58541666666736,"velocity":0.5669291338582677,"duration":0.17916666666667425},{"name":"G5","midi":79,"time":129.77916666666735,"velocity":0.36220472440944884,"duration":0.18333333333333712},{"name":"E5","midi":76,"time":129.77916666666735,"velocity":0.4566929133858268,"duration":0.18125000000000568},{"name":"E3","midi":52,"time":129.77916666666735,"velocity":0.5669291338582677,"duration":0.18125000000000568},{"name":"F#5","midi":78,"time":129.97500000000068,"velocity":0.36220472440944884,"duration":0.18333333333333712},{"name":"D3","midi":50,"time":129.97500000000068,"velocity":0.5669291338582677,"duration":0.18333333333333712},{"name":"A4","midi":69,"time":129.977083333334,"velocity":0.5275590551181102,"duration":0.18333333333333712},{"name":"C#5","midi":73,"time":130.17291666666733,"velocity":0.5275590551181102,"duration":0.18333333333333712},{"name":"A#4","midi":70,"time":130.17500000000067,"velocity":0.5275590551181102,"duration":0.18125000000000568},{"name":"E3","midi":52,"time":130.17500000000067,"velocity":0.5669291338582677,"duration":0.17916666666667425},{"name":"D5","midi":74,"time":130.36666666666733,"velocity":0.5275590551181102,"duration":0.1875},{"name":"A4","midi":69,"time":130.36875000000066,"velocity":0.5275590551181102,"duration":0.18333333333333712},{"name":"F#3","midi":54,"time":130.36875000000066,"velocity":0.5669291338582677,"duration":0.18333333333333712},{"name":"E5","midi":76,"time":130.56458333333399,"velocity":0.5275590551181102,"duration":0.18958333333333144},{"name":"G3","midi":55,"time":130.56666666666732,"velocity":0.5669291338582677,"duration":0.1875},{"name":"G4","midi":67,"time":130.56666666666732,"velocity":0.5669291338582677,"duration":0.18541666666666856},{"name":"A4","midi":69,"time":130.76458333333397,"velocity":0.5275590551181102,"duration":0.18541666666666856},{"name":"F#4","midi":66,"time":130.7666666666673,"velocity":0.5669291338582677,"duration":0.3666666666666458},{"name":"A3","midi":57,"time":130.7666666666673,"velocity":0.5669291338582677,"duration":0.18333333333333712},{"name":"D5","midi":74,"time":130.9604166666673,"velocity":0.5275590551181102,"duration":0.3666666666666174},{"name":"G3","midi":55,"time":130.96250000000063,"velocity":0.5669291338582677,"duration":0.1833333333333087},{"name":"E4","midi":64,"time":131.1562500000006,"velocity":0.5669291338582677,"duration":0.36458333333328596},{"name":"A3","midi":57,"time":131.15833333333393,"velocity":0.5669291338582677,"duration":0.17916666666664582},{"name":"C#5","midi":73,"time":131.35000000000056,"velocity":0.5275590551181102,"duration":0.1833333333333087},{"name":"A2","midi":45,"time":131.3520833333339,"velocity":0.5669291338582677,"duration":0.18124999999997726},{"name":"F#4","midi":66,"time":131.54583333333386,"velocity":0.5669291338582677,"duration":0.18333333333333712},{"name":"D4","midi":62,"time":131.54583333333386,"velocity":0.5669291338582677,"duration":0.36874999999997726},{"name":"B2","midi":47,"time":131.5479166666672,"velocity":0.5669291338582677,"duration":0.18125000000000568},{"name":"B4","midi":71,"time":131.74375000000052,"velocity":0.5275590551181102,"duration":0.36458333333328596},{"name":"D3","midi":50,"time":131.74375000000052,"velocity":0.5669291338582677,"duration":0.1833333333333087},{"name":"F#3","midi":54,"time":131.93958333333381,"velocity":0.5669291338582677,"duration":0.18124999999997726},{"name":"C#4","midi":61,"time":131.93958333333381,"velocity":0.5669291338582677,"duration":0.3666666666666174},{"name":"A4","midi":69,"time":132.1354166666671,"velocity":0.5275590551181102,"duration":0.18541666666664014},{"name":"F#2","midi":42,"time":132.1354166666671,"velocity":0.5669291338582677,"duration":0.1833333333333087},{"name":"B3","midi":59,"time":132.3312500000004,"velocity":0.5669291338582677,"duration":0.36874999999997726},{"name":"D4","midi":62,"time":132.3312500000004,"velocity":0.5669291338582677,"duration":0.18541666666666856},{"name":"G2","midi":43,"time":132.33333333333374,"velocity":0.5669291338582677,"duration":0.18125000000000568},{"name":"G4","midi":67,"time":132.52916666666707,"velocity":0.5669291338582677,"duration":0.3666666666666174},{"name":"B2","midi":47,"time":132.52916666666707,"velocity":0.5669291338582677,"duration":0.18124999999997726},{"name":"D3","midi":50,"time":132.72500000000036,"velocity":0.5669291338582677,"duration":0.5499999999999545},{"name":"A3","midi":57,"time":132.72500000000036,"velocity":0.5669291338582677,"duration":0.3666666666666458},{"name":"F#4","midi":66,"time":132.9208333333337,"velocity":0.5669291338582677,"duration":0.18124999999997726},{"name":"G#4","midi":68,"time":133.11458333333366,"velocity":0.5275590551181102,"duration":0.3645833333333144},{"name":"B3","midi":59,"time":133.116666666667,"velocity":0.5669291338582677,"duration":0.36249999999998295},{"name":"D3","midi":50,"time":133.31041666666698,"velocity":0.5669291338582677,"duration":0.18124999999997726},{"name":"A#4","midi":70,"time":133.50208333333362,"velocity":0.5275590551181102,"duration":0.18541666666666856},{"name":"E4","midi":64,"time":133.50416666666695,"velocity":0.5669291338582677,"duration":0.5541666666666458},{"name":"C#3","midi":49,"time":133.50416666666695,"velocity":0.5669291338582677,"duration":0.18333333333333712},{"name":"B4","midi":71,"time":133.70000000000027,"velocity":0.5275590551181102,"duration":0.18541666666666856},{"name":"B2","midi":47,"time":133.70000000000027,"velocity":0.5669291338582677,"duration":0.18541666666666856},{"name":"C#5","midi":73,"time":133.89791666666693,"velocity":0.5275590551181102,"duration":0.9187499999999602},{"name":"A#2","midi":46,"time":133.90000000000026,"velocity":0.5669291338582677,"duration":0.18125000000000568},{"name":"G4","midi":67,"time":134.0958333333336,"velocity":0.5669291338582677,"duration":0.18333333333333712},{"name":"F#2","midi":42,"time":134.09791666666692,"velocity":0.5669291338582677,"duration":0.18125000000000568},{"name":"F#4","midi":66,"time":134.2916666666669,"velocity":0.5669291338582677,"duration":0.18333333333333712},{"name":"G#2","midi":44,"time":134.29375000000024,"velocity":0.5669291338582677,"duration":0.17916666666667425},{"name":"E4","midi":64,"time":134.4854166666669,"velocity":0.5669291338582677,"duration":0.18333333333333712},{"name":"A#2","midi":46,"time":134.48750000000024,"velocity":0.5669291338582677,"duration":0.17916666666667425},{"name":"D4","midi":62,"time":134.68125000000023,"velocity":0.5669291338582677,"duration":0.3666666666666174},{"name":"B2","midi":47,"time":134.68333333333356,"velocity":0.5669291338582677,"duration":0.17916666666664582},{"name":"B4","midi":71,"time":134.87708333333353,"velocity":0.5275590551181102,"duration":0.1833333333333087},{"name":"F#3","midi":54,"time":134.87916666666686,"velocity":0.5669291338582677,"duration":0.17916666666664582},{"name":"C#5","midi":73,"time":135.07291666666683,"velocity":0.5275590551181102,"duration":0.17916666666667425},{"name":"G4","midi":67,"time":135.07291666666683,"velocity":0.5669291338582677,"duration":0.5458333333333201},{"name":"E3","midi":52,"time":135.07500000000016,"velocity":0.5669291338582677,"duration":0.17500000000001137},{"name":"D5","midi":74,"time":135.2645833333335,"velocity":0.5275590551181102,"duration":0.18125000000000568},{"name":"D3","midi":50,"time":135.2645833333335,"velocity":0.5669291338582677,"duration":0.17916666666667425},{"name":"E5","midi":76,"time":135.45833333333348,"velocity":0.5275590551181102,"duration":0.9187499999999602},{"name":"C#3","midi":49,"time":135.45833333333348,"velocity":0.5669291338582677,"duration":0.18333333333333712},{"name":"B4","midi":71,"time":135.65625000000014,"velocity":0.5275590551181102,"duration":0.18333333333333712},{"name":"A2","midi":45,"time":135.65625000000014,"velocity":0.5669291338582677,"duration":0.18333333333333712},{"name":"A4","midi":69,"time":135.8541666666668,"velocity":0.5275590551181102,"duration":0.18333333333333712},{"name":"B2","midi":47,"time":135.8541666666668,"velocity":0.5669291338582677,"duration":0.18125000000000568},{"name":"G4","midi":67,"time":136.05000000000013,"velocity":0.5669291338582677,"duration":0.18125000000000568},{"name":"C#3","midi":49,"time":136.05000000000013,"velocity":0.5669291338582677,"duration":0.17916666666667425},{"name":"F#4","midi":66,"time":136.24375000000012,"velocity":0.5669291338582677,"duration":0.36249999999998295},{"name":"D3","midi":50,"time":136.24583333333345,"velocity":0.5669291338582677,"duration":0.17916666666667425},{"name":"D5","midi":74,"time":136.43541666666678,"velocity":0.4566929133858268,"duration":0.1833333333333087},{"name":"A3","midi":57,"time":136.4375000000001,"velocity":0.5669291338582677,"duration":0.18124999999997726},{"name":"E5","midi":76,"time":136.62916666666675,"velocity":0.4566929133858268,"duration":0.18541666666666856},{"name":"B4","midi":71,"time":136.63125000000008,"velocity":0.5275590551181102,"duration":0.5562499999999773},{"name":"G3","midi":55,"time":136.63125000000008,"velocity":0.5669291338582677,"duration":0.18333333333333712},{"name":"F#5","midi":78,"time":136.8270833333334,"velocity":0.36220472440944884,"duration":0.1875},{"name":"F#3","midi":54,"time":136.82916666666674,"velocity":0.5669291338582677,"duration":0.18541666666666856},{"name":"G5","midi":79,"time":137.02500000000006,"velocity":0.36220472440944884,"duration":1.0979166666666345},{"name":"E3","midi":52,"time":137.0270833333334,"velocity":0.5669291338582677,"duration":0.18333333333333712},{"name":"D5","midi":74,"time":137.22500000000005,"velocity":0.5275590551181102,"duration":0.18125000000000568},{"name":"C#3","midi":49,"time":137.22500000000005,"velocity":0.5669291338582677,"duration":0.18125000000000568},{"name":"C#5","midi":73,"time":137.41875000000005,"velocity":0.5275590551181102,"duration":0.18125000000000568},{"name":"D3","midi":50,"time":137.41875000000005,"velocity":0.5669291338582677,"duration":0.17916666666667425},{"name":"B4","midi":71,"time":137.61250000000004,"velocity":0.5275590551181102,"duration":0.17916666666667425},{"name":"E3","midi":52,"time":137.61250000000004,"velocity":0.5669291338582677,"duration":0.1770833333333428},{"name":"C#5","midi":73,"time":137.8041666666667,"velocity":0.5275590551181102,"duration":0.18125000000000568},{"name":"A#2","midi":46,"time":137.8041666666667,"velocity":0.5669291338582677,"duration":0.17916666666667425},{"name":"E5","midi":76,"time":137.9979166666667,"velocity":0.5275590551181102,"duration":0.18333333333333712},{"name":"F#3","midi":54,"time":138.00000000000003,"velocity":0.5669291338582677,"duration":0.17916666666667425},{"name":"D5","midi":74,"time":138.19375000000002,"velocity":0.5275590551181102,"duration":0.1875},{"name":"F#5","midi":78,"time":138.19583333333335,"velocity":0.4330708661417323,"duration":0.5583333333333087},{"name":"G#3","midi":56,"time":138.19583333333335,"velocity":0.5669291338582677,"duration":0.18333333333333712},{"name":"C#5","midi":73,"time":138.39375,"velocity":0.5275590551181102,"duration":0.18541666666666856},{"name":"A#3","midi":58,"time":138.39583333333334,"velocity":0.5669291338582677,"duration":0.18125000000000568},{"name":"D5","midi":74,"time":138.59375,"velocity":0.5275590551181102,"duration":0.3666666666666458},{"name":"B3","midi":59,"time":138.59375,"velocity":0.5669291338582677,"duration":0.18125000000000568},{"name":"A5","midi":81,"time":138.7875,"velocity":0.4330708661417323,"duration":0.1833333333333087},{"name":"B2","midi":47,"time":138.78958333333333,"velocity":0.5669291338582677,"duration":0.18124999999997726},{"name":"B4","midi":71,"time":138.98541666666662,"velocity":0.5275590551181102,"duration":0.5416666666666572},{"name":"G5","midi":79,"time":138.98541666666662,"velocity":0.4330708661417323,"duration":0.1770833333333428},{"name":"C#3","midi":49,"time":138.98749999999995,"velocity":0.5669291338582677,"duration":0.17500000000001137},{"name":"F#5","midi":78,"time":139.17499999999995,"velocity":0.4330708661417323,"duration":0.18125000000000568},{"name":"D3","midi":50,"time":139.17499999999995,"velocity":0.5669291338582677,"duration":0.18125000000000568},{"name":"E5","midi":76,"time":139.36874999999995,"velocity":0.5275590551181102,"duration":0.3645833333333144},{"name":"E3","midi":52,"time":139.37083333333328,"velocity":0.5669291338582677,"duration":0.17916666666667425},{"name":"D5","midi":74,"time":139.56458333333327,"velocity":0.5275590551181102,"duration":0.1833333333333087},{"name":"F#3","midi":54,"time":139.5666666666666,"velocity":0.5669291338582677,"duration":0.17916666666664582},{"name":"C#5","midi":73,"time":139.76041666666657,"velocity":0.5275590551181102,"duration":0.18333333333333712},{"name":"G#5","midi":80,"time":139.7624999999999,"velocity":0.4330708661417323,"duration":0.5458333333333201},{"name":"E3","midi":52,"time":139.7624999999999,"velocity":0.5669291338582677,"duration":0.18125000000000568},{"name":"B4","midi":71,"time":139.9562499999999,"velocity":0.5275590551181102,"duration":0.18333333333333712},{"name":"D3","midi":50,"time":139.95833333333323,"velocity":0.5669291338582677,"duration":0.17916666666667425},{"name":"E5","midi":76,"time":140.15208333333322,"velocity":0.5275590551181102,"duration":0.3645833333333144},{"name":"C#3","midi":49,"time":140.15416666666655,"velocity":0.5669291338582677,"duration":0.17916666666667425},{"name":"B5","midi":83,"time":140.34583333333322,"velocity":0.4330708661417323,"duration":0.18124999999997726},{"name":"C#4","midi":61,"time":140.34583333333322,"velocity":0.5669291338582677,"duration":0.18124999999997726},{"name":"C#5","midi":73,"time":140.54166666666652,"velocity":0.5275590551181102,"duration":0.5395833333333258},{"name":"A5","midi":81,"time":140.54166666666652,"velocity":0.4330708661417323,"duration":0.18125000000000568},{"name":"D4","midi":62,"time":140.54374999999985,"velocity":0.5669291338582677,"duration":0.17916666666667425},{"name":"G#5","midi":80,"time":140.7354166666665,"velocity":0.4330708661417323,"duration":0.18125000000000568},{"name":"E4","midi":64,"time":140.7354166666665,"velocity":0.5669291338582677,"duration":0.17916666666667425},{"name":"A5","midi":81,"time":140.92708333333317,"velocity":0.4330708661417323,"duration":0.3604166666666515},{"name":"F#4","midi":66,"time":140.92708333333317,"velocity":0.5669291338582677,"duration":0.17500000000001137},{"name":"E5","midi":76,"time":141.1166666666665,"velocity":0.5275590551181102,"duration":0.18124999999997726},{"name":"G4","midi":67,"time":141.11874999999984,"velocity":0.5669291338582677,"duration":0.17916666666664582},{"name":"D5","midi":74,"time":141.31041666666647,"velocity":0.5275590551181102,"duration":0.18333333333333712},{"name":"A#5","midi":82,"time":141.3124999999998,"velocity":0.4330708661417323,"duration":0.5416666666666572},{"name":"F#4","midi":66,"time":141.3124999999998,"velocity":0.5669291338582677,"duration":0.18125000000000568},{"name":"C#5","midi":73,"time":141.50416666666646,"velocity":0.5275590551181102,"duration":0.18125000000000568},{"name":"E4","midi":64,"time":141.5062499999998,"velocity":0.5669291338582677,"duration":0.17916666666667425},{"name":"F#5","midi":78,"time":141.6999999999998,"velocity":0.4330708661417323,"duration":0.35624999999998863},{"name":"D4","midi":62,"time":141.6999999999998,"velocity":0.5669291338582677,"duration":0.1770833333333428},{"name":"C6","midi":84,"time":141.88958333333312,"velocity":0.4330708661417323,"duration":0.18124999999997726},{"name":"D3","midi":50,"time":141.88958333333312,"velocity":0.5669291338582677,"duration":0.17916666666664582},{"name":"D5","midi":74,"time":142.08124999999976,"velocity":0.5275590551181102,"duration":0.5291666666666686},{"name":"B5","midi":83,"time":142.08124999999976,"velocity":0.4330708661417323,"duration":0.1770833333333428},{"name":"E3","midi":52,"time":142.0833333333331,"velocity":0.5669291338582677,"duration":0.17291666666667993},{"name":"A#5","midi":82,"time":142.26874999999976,"velocity":0.4330708661417323,"duration":0.1770833333333428},{"name":"F#3","midi":54,"time":142.2708333333331,"velocity":0.5669291338582677,"duration":0.17500000000001137},{"name":"B5","midi":83,"time":142.4583333333331,"velocity":0.4330708661417323,"duration":0.5416666666666572},{"name":"G3","midi":55,"time":142.46041666666642,"velocity":0.5669291338582677,"duration":0.17500000000001137},{"name":"E5","midi":76,"time":142.64791666666642,"velocity":0.5275590551181102,"duration":0.17916666666667425},{"name":"F#3","midi":54,"time":142.64791666666642,"velocity":0.5669291338582677,"duration":0.17916666666667425},{"name":"F#5","midi":78,"time":142.83958333333308,"velocity":0.4330708661417323,"duration":0.7333333333333201},{"name":"E3","midi":52,"time":142.83958333333308,"velocity":0.5669291338582677,"duration":0.18125000000000568},{"name":"A5","midi":81,"time":143.0354166666664,"velocity":0.4330708661417323,"duration":0.18333333333333712},{"name":"D#3","midi":51,"time":143.0354166666664,"velocity":0.5669291338582677,"duration":0.18125000000000568},{"name":"G5","midi":79,"time":143.23124999999973,"velocity":0.4330708661417323,"duration":0.7291666666666856},{"name":"E3","midi":52,"time":143.23124999999973,"velocity":0.5669291338582677,"duration":0.17916666666667425},{"name":"D3","midi":50,"time":143.42499999999973,"velocity":0.5669291338582677,"duration":0.18125000000000568},{"name":"E5","midi":76,"time":143.62083333333305,"velocity":0.5275590551181102,"duration":0.7270833333333542},{"name":"C#3","midi":49,"time":143.62291666666638,"velocity":0.5669291338582677,"duration":0.1770833333333428},{"name":"B2","midi":47,"time":143.8166666666664,"velocity":0.5669291338582677,"duration":0.17916666666667425},{"name":"F#5","midi":78,"time":144.00833333333307,"velocity":0.4330708661417323,"duration":0.7291666666666572},{"name":"A#2","midi":46,"time":144.00833333333307,"velocity":0.5669291338582677,"duration":0.17916666666667425},{"name":"F#3","midi":54,"time":144.19999999999973,"velocity":0.5669291338582677,"duration":0.18125000000000568},{"name":"D5","midi":74,"time":144.39583333333306,"velocity":0.5275590551181102,"duration":0.7270833333333258},{"name":"B3","midi":59,"time":144.3979166666664,"velocity":0.5669291338582677,"duration":0.1770833333333428},{"name":"A3","midi":57,"time":144.58958333333305,"velocity":0.5669291338582677,"duration":0.18125000000000568},{"name":"E5","midi":76,"time":144.78333333333305,"velocity":0.5275590551181102,"duration":0.7249999999999943},{"name":"G#3","midi":56,"time":144.78541666666638,"velocity":0.5669291338582677,"duration":0.1770833333333428},{"name":"F#3","midi":54,"time":144.9749999999997,"velocity":0.5669291338582677,"duration":0.18125000000000568},{"name":"C#5","midi":73,"time":145.17083333333304,"velocity":0.5275590551181102,"duration":0.71875},{"name":"G#3","midi":56,"time":145.17083333333304,"velocity":0.5669291338582677,"duration":0.1770833333333428},{"name":"A#3","midi":58,"time":145.3624999999997,"velocity":0.5669291338582677,"duration":0.1770833333333428},{"name":"D5","midi":74,"time":145.55416666666636,"velocity":0.5275590551181102,"duration":1.0874999999999773},{"name":"B3","midi":59,"time":145.55416666666636,"velocity":0.5669291338582677,"duration":0.17916666666667425},{"name":"B2","midi":47,"time":145.74583333333302,"velocity":0.5669291338582677,"duration":0.1770833333333428},{"name":"B4","midi":71,"time":145.93541666666636,"velocity":0.5275590551181102,"duration":0.18125000000000568},{"name":"C#3","midi":49,"time":145.9374999999997,"velocity":0.5669291338582677,"duration":0.17916666666667425},{"name":"A4","midi":69,"time":146.12916666666635,"velocity":0.5275590551181102,"duration":0.18333333333333712},{"name":"D3","midi":50,"time":146.13124999999968,"velocity":0.5669291338582677,"duration":0.18125000000000568},{"name":"G4","midi":67,"time":146.32499999999968,"velocity":0.5669291338582677,"duration":0.9062499999999716},{"name":"E3","midi":52,"time":146.327083333333,"velocity":0.5669291338582677,"duration":0.17916666666667425},{"name":"F#3","midi":54,"time":146.51874999999967,"velocity":0.5669291338582677,"duration":0.18125000000000568},{"name":"C#5","midi":73,"time":146.71249999999966,"velocity":0.5275590551181102,"duration":0.18125000000000568},{"name":"G3","midi":55,"time":146.71249999999966,"velocity":0.5669291338582677,"duration":0.17916666666667425},{"name":"B4","midi":71,"time":146.90416666666633,"velocity":0.5275590551181102,"duration":0.18125000000000568},{"name":"E3","midi":52,"time":146.90416666666633,"velocity":0.5669291338582677,"duration":0.17916666666667425},{"name":"A#4","midi":70,"time":147.09791666666632,"velocity":0.5275590551181102,"duration":0.18124999999997726},{"name":"F#3","midi":54,"time":147.09999999999965,"velocity":0.5669291338582677,"duration":0.17708333333331439},{"name":"G5","midi":79,"time":147.28958333333296,"velocity":0.4330708661417323,"duration":0.18333333333333712},{"name":"A#4","midi":70,"time":147.2916666666663,"velocity":0.5275590551181102,"duration":0.17916666666667425},{"name":"E3","midi":52,"time":147.2916666666663,"velocity":0.5669291338582677,"duration":0.17916666666667425},{"name":"F#5","midi":78,"time":147.48124999999962,"velocity":0.4330708661417323,"duration":0.1875},{"name":"B4","midi":71,"time":147.48333333333295,"velocity":0.5275590551181102,"duration":0.18333333333333712},{"name":"D3","midi":50,"time":147.48333333333295,"velocity":0.5669291338582677,"duration":0.18333333333333712},{"name":"C#5","midi":73,"time":147.67708333333294,"velocity":0.5275590551181102,"duration":0.1875},{"name":"E5","midi":76,"time":147.67916666666628,"velocity":0.5275590551181102,"duration":0.18333333333333712},{"name":"E3","midi":52,"time":147.67916666666628,"velocity":0.5669291338582677,"duration":0.18333333333333712},{"name":"D5","midi":74,"time":147.8749999999996,"velocity":0.5275590551181102,"duration":0.3666666666666458},{"name":"F#4","midi":66,"time":147.8749999999996,"velocity":0.5669291338582677,"duration":0.18333333333333712},{"name":"F#3","midi":54,"time":147.8749999999996,"velocity":0.5669291338582677,"duration":0.18333333333333712},{"name":"B4","midi":71,"time":148.07083333333293,"velocity":0.5275590551181102,"duration":0.36458333333328596},{"name":"E3","midi":52,"time":148.07083333333293,"velocity":0.5669291338582677,"duration":0.18124999999997726},{"name":"C#5","midi":73,"time":148.26666666666623,"velocity":0.5275590551181102,"duration":0.3624999999999545},{"name":"F#3","midi":54,"time":148.26666666666623,"velocity":0.5669291338582677,"duration":0.18124999999997726},{"name":"A#4","midi":70,"time":148.4604166666662,"velocity":0.5275590551181102,"duration":0.18124999999997726},{"name":"F#2","midi":42,"time":148.46249999999952,"velocity":0.5669291338582677,"duration":0.17708333333331439},{"name":"B4","midi":71,"time":148.65416666666616,"velocity":0.5275590551181102,"duration":0.8749999999999716},{"name":"G2","midi":43,"time":148.6562499999995,"velocity":0.5669291338582677,"duration":0.35624999999998863},{"name":"E4","midi":64,"time":148.84791666666615,"velocity":0.5669291338582677,"duration":0.3541666666666572},{"name":"F#2","midi":42,"time":149.03749999999948,"velocity":0.5669291338582677,"duration":0.3541666666666572},{"name":"D#4","midi":63,"time":149.2270833333328,"velocity":0.5669291338582677,"duration":0.17499999999998295},{"name":"G4","midi":67,"time":149.41458333333279,"velocity":0.5669291338582677,"duration":0.7041666666666799},{"name":"E2","midi":40,"time":149.41666666666612,"velocity":0.5669291338582677,"duration":0.3479166666666629},{"name":"B4","midi":71,"time":149.60208333333279,"velocity":0.5275590551181102,"duration":0.3499999999999943},{"name":"D2","midi":38,"time":149.78958333333279,"velocity":0.5669291338582677,"duration":0.3520833333333542},{"name":"A#4","midi":70,"time":149.97708333333279,"velocity":0.5275590551181102,"duration":0.17291666666667993},{"name":"E5","midi":76,"time":150.16249999999945,"velocity":0.5275590551181102,"duration":0.7104166666666458},{"name":"C#2","midi":37,"time":150.16458333333279,"velocity":0.5669291338582677,"duration":0.17500000000001137},{"name":"G4","midi":67,"time":150.34999999999945,"velocity":0.5669291338582677,"duration":0.35208333333332575},{"name":"B3","midi":59,"time":150.35208333333279,"velocity":0.5669291338582677,"duration":0.17291666666667993},{"name":"A#3","midi":58,"time":150.53749999999945,"velocity":0.5669291338582677,"duration":0.17499999999998295},{"name":"F#4","midi":66,"time":150.72708333333276,"velocity":0.5669291338582677,"duration":0.17916666666667425},{"name":"A3","midi":57,"time":150.72708333333276,"velocity":0.5669291338582677,"duration":0.1770833333333428},{"name":"B4","midi":71,"time":150.91874999999942,"velocity":0.5275590551181102,"duration":0.8812499999999659},{"name":"G#3","midi":56,"time":150.92083333333275,"velocity":0.5669291338582677,"duration":0.17916666666667425},{"name":"E5","midi":76,"time":151.11041666666608,"velocity":0.5275590551181102,"duration":0.35833333333332007},{"name":"G3","midi":55,"time":151.11249999999941,"velocity":0.5669291338582677,"duration":0.17916666666667425},{"name":"F#3","midi":54,"time":151.30208333333275,"velocity":0.5669291338582677,"duration":0.17916666666664582},{"name":"D#5","midi":75,"time":151.49374999999938,"velocity":0.5275590551181102,"duration":0.17916666666667425},{"name":"B3","midi":59,"time":151.49374999999938,"velocity":0.5669291338582677,"duration":0.1770833333333428},{"name":"G5","midi":79,"time":151.6833333333327,"velocity":0.4330708661417323,"duration":0.9020833333332803},{"name":"E3","midi":52,"time":151.6833333333327,"velocity":0.5669291338582677,"duration":0.1770833333333428},{"name":"B4","midi":71,"time":151.87499999999937,"velocity":0.5275590551181102,"duration":0.36249999999998295},{"name":"E4","midi":64,"time":151.87499999999937,"velocity":0.5669291338582677,"duration":0.1770833333333428},{"name":"D4","midi":62,"time":152.06666666666604,"velocity":0.5669291338582677,"duration":0.18124999999997726},{"name":"A#4","midi":70,"time":152.260416666666,"velocity":0.5275590551181102,"duration":0.17916666666667425},{"name":"C#4","midi":61,"time":152.26249999999933,"velocity":0.5669291338582677,"duration":0.1770833333333428},{"name":"D5","midi":74,"time":152.44999999999933,"velocity":0.5275590551181102,"duration":0.8895833333332632},{"name":"B3","midi":59,"time":152.45208333333267,"velocity":0.5669291338582677,"duration":0.17916666666664582},{"name":"F#5","midi":78,"time":152.6437499999993,"velocity":0.4330708661417323,"duration":0.3541666666666572},{"name":"C4","midi":60,"time":152.6437499999993,"velocity":0.5669291338582677,"duration":0.17500000000001137},{"name":"C#4","midi":61,"time":152.83333333333263,"velocity":0.5669291338582677,"duration":0.1729166666666515},{"name":"F5","midi":77,"time":153.01874999999927,"velocity":0.4330708661417323,"duration":0.1770833333333428},{"name":"D4","midi":62,"time":153.0208333333326,"velocity":0.5669291338582677,"duration":0.17500000000001137},{"name":"B5","midi":83,"time":153.2083333333326,"velocity":0.4330708661417323,"duration":0.17499999999998295},{"name":"F3","midi":53,"time":153.2083333333326,"velocity":0.5669291338582677,"duration":0.17499999999998295},{"name":"C5","midi":72,"time":153.39583333333258,"velocity":0.5275590551181102,"duration":0.17916666666667425},{"name":"E5","midi":76,"time":153.39583333333258,"velocity":0.5275590551181102,"duration":0.08958333333333712},{"name":"F#3","midi":54,"time":153.3979166666659,"velocity":0.5669291338582677,"duration":0.1770833333333428},{"name":"D#5","midi":75,"time":153.4916666666659,"velocity":0.5275590551181102,"duration":0.08958333333333712},{"name":"B4","midi":71,"time":153.58749999999924,"velocity":0.5275590551181102,"duration":0.7187499999999716},{"name":"E5","midi":76,"time":153.58749999999924,"velocity":0.5275590551181102,"duration":0.18125000000000568},{"name":"G3","midi":55,"time":153.58958333333257,"velocity":0.5669291338582677,"duration":0.1770833333333428},{"name":"G5","midi":79,"time":153.78124999999923,"velocity":0.4330708661417323,"duration":0.18125000000000568},{"name":"E3","midi":52,"time":153.78124999999923,"velocity":0.5669291338582677,"duration":0.17916666666667425},{"name":"D5","midi":74,"time":153.97499999999923,"velocity":0.5275590551181102,"duration":0.3541666666666572},{"name":"F#3","midi":54,"time":153.97708333333256,"velocity":0.5669291338582677,"duration":0.17500000000001137},{"name":"E3","midi":52,"time":154.1666666666659,"velocity":0.5669291338582677,"duration":0.1729166666666515},{"name":"A#4","midi":70,"time":154.35416666666586,"velocity":0.5275590551181102,"duration":0.345833333333303},{"name":"C#5","midi":73,"time":154.35416666666586,"velocity":0.5275590551181102,"duration":0.345833333333303},{"name":"F#3","midi":54,"time":154.3562499999992,"velocity":0.5669291338582677,"duration":0.16874999999998863},{"name":"F#2","midi":42,"time":154.53749999999917,"velocity":0.5669291338582677,"duration":0.1729166666666515},{"name":"D#5","midi":75,"time":154.72499999999914,"velocity":0.5275590551181102,"duration":0.17083333333332007},{"name":"A4","midi":69,"time":154.72499999999914,"velocity":0.5275590551181102,"duration":0.17083333333332007},{"name":"B2","midi":47,"time":154.72499999999914,"velocity":0.5669291338582677,"duration":4.033333333333275},{"name":"E5","midi":76,"time":154.91041666666578,"velocity":0.5275590551181102,"duration":0.17291666666667993},{"name":"G4","midi":67,"time":154.91041666666578,"velocity":0.5669291338582677,"duration":0.35208333333332575},{"name":"A#4","midi":70,"time":155.09583333333245,"velocity":0.5275590551181102,"duration":0.17916666666664582},{"name":"B4","midi":71,"time":155.28749999999908,"velocity":0.5275590551181102,"duration":0.18541666666666856},{"name":"F#4","midi":66,"time":155.28958333333242,"velocity":0.5669291338582677,"duration":0.3645833333333144},{"name":"G4","midi":67,"time":155.48541666666574,"velocity":0.5669291338582677,"duration":0.8249999999999886},{"name":"E4","midi":64,"time":155.6770833333324,"velocity":0.5669291338582677,"duration":0.18541666666666856},{"name":"C#4","midi":61,"time":155.87499999999906,"velocity":0.5669291338582677,"duration":0.43541666666666856},{"name":"A#4","midi":70,"time":156.08124999999907,"velocity":0.5275590551181102,"duration":0.22291666666666288},{"name":"B4","midi":71,"time":156.31249999999906,"velocity":0.4566929133858268,"duration":2.427083333333343},{"name":"D#4","midi":63,"time":156.31249999999906,"velocity":0.47244094488188976,"duration":2.427083333333343},{"name":"F#4","midi":66,"time":156.3145833333324,"velocity":0.47244094488188976,"duration":2.4250000000000114},{"name":"F#4","midi":66,"time":159.73333333333244,"velocity":0.5669291338582677,"duration":0.3708333333333371},{"name":"D4","midi":62,"time":160.13333333333244,"velocity":0.5669291338582677,"duration":0.37708333333333144},{"name":"B3","midi":59,"time":160.53958333333244,"velocity":0.5669291338582677,"duration":0.37708333333333144},{"name":"G4","midi":67,"time":160.9437499999991,"velocity":0.5669291338582677,"duration":0.3687500000000057},{"name":"F#4","midi":66,"time":161.33958333333246,"velocity":0.5669291338582677,"duration":0.3083333333333371},{"name":"B4","midi":71,"time":161.73333333333247,"velocity":0.5275590551181102,"duration":0.3687500000000057},{"name":"A#4","midi":70,"time":162.13124999999914,"velocity":0.5275590551181102,"duration":0.31458333333333144},{"name":"E4","midi":64,"time":162.53124999999915,"velocity":0.5669291338582677,"duration":0.3687500000000057},{"name":"D#4","midi":63,"time":162.92499999999916,"velocity":0.5669291338582677,"duration":0.31041666666666856},{"name":"C5","midi":72,"time":163.3208333333325,"velocity":0.5275590551181102,"duration":0.3687500000000057},{"name":"B4","midi":71,"time":163.71666666666584,"velocity":0.5275590551181102,"duration":0.3083333333333371},{"name":"F#4","midi":66,"time":164.1124999999992,"velocity":0.5669291338582677,"duration":0.36250000000001137},{"name":"F4","midi":65,"time":164.50208333333254,"velocity":0.5669291338582677,"duration":0.30416666666667425},{"name":"D5","midi":74,"time":164.89166666666588,"velocity":0.5275590551181102,"duration":0.36250000000001137},{"name":"C#5","midi":73,"time":165.2791666666659,"velocity":0.5275590551181102,"duration":0.3062500000000057},{"name":"C5","midi":72,"time":165.67083333333258,"velocity":0.5275590551181102,"duration":0.36250000000001137},{"name":"C#5","midi":73,"time":166.06041666666593,"velocity":0.5275590551181102,"duration":0.3645833333333428},{"name":"A4","midi":69,"time":166.44999999999928,"velocity":0.5275590551181102,"duration":0.36250000000001137},{"name":"F#4","midi":66,"time":166.8374999999993,"velocity":0.5669291338582677,"duration":0.3645833333333428},{"name":"A4","midi":69,"time":167.24166666666596,"velocity":0.4094488188976378,"duration":0.09583333333333144},{"name":"G#4","midi":68,"time":167.3437499999993,"velocity":0.4094488188976378,"duration":0.09375},{"name":"A4","midi":69,"time":167.44583333333262,"velocity":0.4094488188976378,"duration":0.09375},{"name":"G#4","midi":68,"time":167.5458333333326,"velocity":0.4094488188976378,"duration":0.07916666666667993},{"name":"A4","midi":69,"time":167.62916666666595,"velocity":0.4094488188976378,"duration":0.0625},{"name":"G#4","midi":68,"time":167.69583333333262,"velocity":0.4094488188976378,"duration":0.06041666666666856},{"name":"A4","midi":69,"time":167.76041666666595,"velocity":0.4094488188976378,"duration":0.05208333333334281},{"name":"G#4","midi":68,"time":167.81666666666595,"velocity":0.4094488188976378,"duration":0.05000000000001137},{"name":"A4","midi":69,"time":167.87083333333263,"velocity":0.4094488188976378,"duration":0.039583333333325754},{"name":"G#4","midi":68,"time":167.91249999999928,"velocity":0.4094488188976378,"duration":0.04166666666665719},{"name":"A4","midi":69,"time":167.95624999999927,"velocity":0.3858267716535433,"duration":0.04166666666665719},{"name":"G#4","midi":68,"time":167.99999999999926,"velocity":0.3858267716535433,"duration":0.04166666666665719},{"name":"A4","midi":69,"time":168.04583333333258,"velocity":0.3858267716535433,"duration":0.04583333333332007},{"name":"G#4","midi":68,"time":168.09583333333256,"velocity":0.36220472440944884,"duration":0.04583333333332007},{"name":"A4","midi":69,"time":168.14791666666588,"velocity":0.36220472440944884,"duration":0.04374999999998863},{"name":"G#4","midi":68,"time":168.19583333333253,"velocity":0.36220472440944884,"duration":0.056250000000005684},{"name":"A4","midi":69,"time":168.2562499999992,"velocity":0.36220472440944884,"duration":0.054166666666674246},{"name":"G#4","midi":68,"time":168.31458333333254,"velocity":0.36220472440944884,"duration":0.05208333333334281},{"name":"A4","midi":69,"time":168.37083333333254,"velocity":0.36220472440944884,"duration":0.056250000000005684},{"name":"G#4","midi":68,"time":168.43333333333254,"velocity":0.3858267716535433,"duration":0.05833333333333712},{"name":"A4","midi":69,"time":168.49791666666587,"velocity":0.36220472440944884,"duration":0.054166666666674246},{"name":"G#4","midi":68,"time":168.5562499999992,"velocity":0.36220472440944884,"duration":0.054166666666674246},{"name":"A4","midi":69,"time":168.61458333333255,"velocity":0.33858267716535434,"duration":0.05208333333334281},{"name":"G#4","midi":68,"time":168.67083333333255,"velocity":0.33858267716535434,"duration":0.05208333333334281},{"name":"A4","midi":69,"time":168.72708333333256,"velocity":0.33858267716535434,"duration":0.05000000000001137},{"name":"G#4","midi":68,"time":168.78124999999923,"velocity":0.33858267716535434,"duration":0.05000000000001137},{"name":"A4","midi":69,"time":168.83749999999924,"velocity":0.33858267716535434,"duration":0.04583333333332007},{"name":"G#4","midi":68,"time":168.8854166666659,"velocity":0.36220472440944884,"duration":0.05000000000001137},{"name":"A4","midi":69,"time":168.93958333333256,"velocity":0.36220472440944884,"duration":0.04583333333332007},{"name":"G#4","midi":68,"time":168.98958333333255,"velocity":0.36220472440944884,"duration":0.04583333333332007},{"name":"A4","midi":69,"time":169.04166666666586,"velocity":0.36220472440944884,"duration":0.04583333333332007},{"name":"G#4","midi":68,"time":169.0895833333325,"velocity":0.36220472440944884,"duration":0.04791666666667993},{"name":"F#4","midi":66,"time":169.14166666666586,"velocity":0.5669291338582677,"duration":0.5395833333333258},{"name":"B3","midi":59,"time":169.5270833333325,"velocity":0.5669291338582677,"duration":0.35833333333332007},{"name":"F4","midi":65,"time":169.71874999999918,"velocity":0.5669291338582677,"duration":0.17916666666664582},{"name":"A3","midi":57,"time":169.9104166666658,"velocity":0.5669291338582677,"duration":0.3499999999999943},{"name":"F#4","midi":66,"time":169.91249999999914,"velocity":0.5669291338582677,"duration":0.17291666666667993},{"name":"G#4","midi":68,"time":170.0979166666658,"velocity":0.5275590551181102,"duration":0.17499999999998295},{"name":"A4","midi":69,"time":170.28541666666578,"velocity":0.5275590551181102,"duration":0.17500000000001137},{"name":"F#3","midi":54,"time":170.28541666666578,"velocity":0.5669291338582677,"duration":0.3499999999999943},{"name":"C#5","midi":73,"time":170.47291666666578,"velocity":0.5275590551181102,"duration":0.17499999999998295},{"name":"B4","midi":71,"time":170.65833333333242,"velocity":0.5275590551181102,"duration":0.1770833333333428},{"name":"D4","midi":62,"time":170.66041666666575,"velocity":0.5669291338582677,"duration":0.34583333333333144},{"name":"G#4","midi":68,"time":170.84791666666575,"velocity":0.5275590551181102,"duration":0.17083333333332007},{"name":"A4","midi":69,"time":171.03124999999906,"velocity":0.5275590551181102,"duration":0.17291666666667993},{"name":"B3","midi":59,"time":171.03124999999906,"velocity":0.5669291338582677,"duration":0.28958333333332575},{"name":"C5","midi":72,"time":171.21666666666573,"velocity":0.5275590551181102,"duration":0.1729166666666515},{"name":"F#5","midi":78,"time":171.39999999999904,"velocity":0.4330708661417323,"duration":0.6999999999999886},{"name":"E4","midi":64,"time":171.40208333333237,"velocity":0.5669291338582677,"duration":0.34583333333333144},{"name":"D#4","midi":63,"time":171.77083333333238,"velocity":0.5669291338582677,"duration":0.29583333333332007},{"name":"E5","midi":76,"time":172.14999999999904,"velocity":0.5275590551181102,"duration":0.7166666666666686},{"name":"A3","midi":57,"time":172.14999999999904,"velocity":0.5669291338582677,"duration":0.35624999999998863},{"name":"G#3","midi":56,"time":172.53333333333237,"velocity":0.5669291338582677,"duration":0.29791666666667993},{"name":"D5","midi":74,"time":172.91666666666572,"velocity":0.5275590551181102,"duration":0.7104166666666742},{"name":"F4","midi":65,"time":172.91666666666572,"velocity":0.5669291338582677,"duration":0.35208333333332575},{"name":"E4","midi":64,"time":173.29374999999905,"velocity":0.5669291338582677,"duration":0.29791666666667993},{"name":"C#5","midi":73,"time":173.67499999999907,"velocity":0.5275590551181102,"duration":0.6916666666666629},{"name":"B3","midi":59,"time":173.67499999999907,"velocity":0.5669291338582677,"duration":0.34375},{"name":"A#3","midi":58,"time":174.04374999999908,"velocity":0.5669291338582677,"duration":0.28958333333332575},{"name":"B4","midi":71,"time":174.41458333333242,"velocity":0.5275590551181102,"duration":1.043750000000017},{"name":"G4","midi":67,"time":174.41458333333242,"velocity":0.5669291338582677,"duration":0.34166666666666856},{"name":"F#4","midi":66,"time":174.7812499999991,"velocity":0.5669291338582677,"duration":0.29374999999998863},{"name":"F4","midi":65,"time":175.15833333333242,"velocity":0.5669291338582677,"duration":0.34166666666666856},{"name":"A#4","midi":70,"time":175.5249999999991,"velocity":0.5275590551181102,"duration":0.34166666666666856},{"name":"F#4","midi":66,"time":175.5249999999991,"velocity":0.5669291338582677,"duration":0.34166666666666856},{"name":"B4","midi":71,"time":175.89166666666577,"velocity":0.5275590551181102,"duration":0.856250000000017},{"name":"D4","midi":62,"time":175.8937499999991,"velocity":0.5669291338582677,"duration":0.3375000000000057},{"name":"B3","midi":59,"time":176.25833333333244,"velocity":0.5669291338582677,"duration":0.3395833333333371},{"name":"C#4","midi":61,"time":176.6229166666658,"velocity":0.5669291338582677,"duration":1.3770833333332746},{"name":"C#5","midi":73,"time":176.80208333333246,"velocity":0.5275590551181102,"duration":0.17291666666667993},{"name":"D5","midi":74,"time":176.9854166666658,"velocity":0.5275590551181102,"duration":0.17083333333332007},{"name":"E5","midi":76,"time":177.1687499999991,"velocity":0.5275590551181102,"duration":0.17083333333332007},{"name":"F#5","midi":78,"time":177.35208333333242,"velocity":0.4330708661417323,"duration":0.17291666666667993},{"name":"G5","midi":79,"time":177.53541666666575,"velocity":0.4330708661417323,"duration":0.17500000000001137},{"name":"B4","midi":71,"time":177.72291666666575,"velocity":0.5275590551181102,"duration":0.17083333333332007},{"name":"A#4","midi":70,"time":177.90624999999906,"velocity":0.5275590551181102,"duration":0.16874999999998863},{"name":"D5","midi":74,"time":178.08958333333237,"velocity":0.5275590551181102,"duration":1.689583333333161},{"name":"B3","midi":59,"time":178.08958333333237,"velocity":0.5669291338582677,"duration":0.16874999999998863},{"name":"F#4","midi":66,"time":178.27083333333235,"velocity":0.5669291338582677,"duration":0.1666666666666572},{"name":"G#4","midi":68,"time":178.449999999999,"velocity":0.5275590551181102,"duration":0.1666666666666572},{"name":"A#4","midi":70,"time":178.62916666666564,"velocity":0.5275590551181102,"duration":0.1666666666666572},{"name":"B4","midi":71,"time":178.80833333333229,"velocity":0.5275590551181102,"duration":0.1666666666666572},{"name":"C#5","midi":73,"time":178.98749999999893,"velocity":0.5275590551181102,"duration":0.16458333333332575},{"name":"F#4","midi":66,"time":179.16458333333225,"velocity":0.5669291338582677,"duration":0.16874999999998863},{"name":"F4","midi":65,"time":179.34583333333222,"velocity":0.5669291338582677,"duration":0.1666666666666572},{"name":"A4","midi":69,"time":179.52499999999887,"velocity":0.5275590551181102,"duration":1.7083333333333428},{"name":"C5","midi":72,"time":179.88749999999885,"velocity":0.5275590551181102,"duration":0.3375000000000057},{"name":"B4","midi":71,"time":180.24999999999886,"velocity":0.5275590551181102,"duration":0.3375000000000057},{"name":"D#5","midi":75,"time":180.61041666666554,"velocity":0.5275590551181102,"duration":0.34166666666666856},{"name":"E5","midi":76,"time":180.97708333333222,"velocity":0.5275590551181102,"duration":1.7187500000000284},{"name":"G4","midi":67,"time":181.3437499999989,"velocity":0.5669291338582677,"duration":0.34166666666666856},{"name":"F#4","midi":66,"time":181.70833333333223,"velocity":0.5669291338582677,"duration":0.34166666666666856},{"name":"A#4","midi":70,"time":182.0749999999989,"velocity":0.5275590551181102,"duration":0.34166666666666856},{"name":"B4","midi":71,"time":182.44166666666558,"velocity":0.5275590551181102,"duration":1.7208333333333314},{"name":"D5","midi":74,"time":182.80416666666557,"velocity":0.5275590551181102,"duration":0.3395833333333371},{"name":"C#5","midi":73,"time":183.1687499999989,"velocity":0.5275590551181102,"duration":0.34166666666666856},{"name":"F5","midi":77,"time":183.53541666666558,"velocity":0.4330708661417323,"duration":0.34583333333333144},{"name":"F#5","midi":78,"time":183.90624999999892,"velocity":0.4330708661417323,"duration":0.5187500000000114},{"name":"A#4","midi":70,"time":184.27499999999893,"velocity":0.5275590551181102,"duration":0.34583333333333144},{"name":"F#3","midi":54,"time":184.27499999999893,"velocity":0.5669291338582677,"duration":0.34375},{"name":"G5","midi":79,"time":184.4604166666656,"velocity":0.4330708661417323,"duration":0.17083333333332007},{"name":"F#5","midi":78,"time":184.6437499999989,"velocity":0.4330708661417323,"duration":0.1875},{"name":"B4","midi":71,"time":184.64583333333223,"velocity":0.5275590551181102,"duration":0.6916666666666629},{"name":"D3","midi":50,"time":184.64583333333223,"velocity":0.5669291338582677,"duration":0.34375},{"name":"E5","midi":76,"time":184.82916666666557,"velocity":0.5275590551181102,"duration":0.18958333333333144},{"name":"D5","midi":74,"time":185.01458333333224,"velocity":0.5275590551181102,"duration":0.1875},{"name":"B2","midi":47,"time":185.01458333333224,"velocity":0.5669291338582677,"duration":0.34583333333333144},{"name":"B4","midi":71,"time":185.1999999999989,"velocity":0.5275590551181102,"duration":0.1729166666666515},{"name":"C#5","midi":73,"time":185.38333333333222,"velocity":0.5275590551181102,"duration":0.1875},{"name":"G3","midi":55,"time":185.38541666666555,"velocity":0.5669291338582677,"duration":0.3395833333333371},{"name":"E5","midi":76,"time":185.5687499999989,"velocity":0.5275590551181102,"duration":0.18541666666666856},{"name":"D5","midi":74,"time":185.7499999999989,"velocity":0.5275590551181102,"duration":0.18541666666666856},{"name":"F#3","midi":54,"time":185.7499999999989,"velocity":0.5669291338582677,"duration":0.2854166666666629},{"name":"B4","midi":71,"time":185.93333333333223,"velocity":0.5275590551181102,"duration":0.1875},{"name":"C#5","midi":73,"time":186.11666666666557,"velocity":0.5275590551181102,"duration":0.7541666666666913},{"name":"B3","midi":59,"time":186.11666666666557,"velocity":0.5669291338582677,"duration":0.34166666666666856},{"name":"F#4","midi":66,"time":186.1187499999989,"velocity":0.5669291338582677,"duration":0.3395833333333371},{"name":"F#5","midi":78,"time":186.4812499999989,"velocity":0.4330708661417323,"duration":0.8604166666666799},{"name":"A#3","midi":58,"time":186.48333333333224,"velocity":0.5669291338582677,"duration":0.2854166666666629},{"name":"B4","midi":71,"time":186.84791666666558,"velocity":0.5275590551181102,"duration":0.6854166666666686},{"name":"E3","midi":52,"time":186.84999999999891,"velocity":0.5669291338582677,"duration":0.3395833333333371},{"name":"D#3","midi":51,"time":187.21458333333226,"velocity":0.5669291338582677,"duration":0.2854166666666629},{"name":"G5","midi":79,"time":187.39583333333226,"velocity":0.4330708661417323,"duration":0.1729166666666515},{"name":"A4","midi":69,"time":187.5812499999989,"velocity":0.5275590551181102,"duration":0.6854166666665833},{"name":"F#5","midi":78,"time":187.5812499999989,"velocity":0.4330708661417323,"duration":0.16874999999998863},{"name":"C4","midi":60,"time":187.5812499999989,"velocity":0.5669291338582677,"duration":0.34166666666664014},{"name":"E5","midi":76,"time":187.76249999999888,"velocity":0.5275590551181102,"duration":0.17083333333332007},{"name":"D#5","midi":75,"time":187.9458333333322,"velocity":0.5275590551181102,"duration":0.17083333333332007},{"name":"B3","midi":59,"time":187.94791666666552,"velocity":0.5669291338582677,"duration":0.283333333333303},{"name":"C#5","midi":73,"time":188.1291666666655,"velocity":0.5275590551181102,"duration":0.17083333333332007},{"name":"G#4","midi":68,"time":188.3124999999988,"velocity":0.5275590551181102,"duration":0.6770833333333144},{"name":"B4","midi":71,"time":188.3124999999988,"velocity":0.5275590551181102,"duration":0.1666666666666572},{"name":"F#3","midi":54,"time":188.31458333333214,"velocity":0.5669291338582677,"duration":0.3354166666666458},{"name":"C#5","midi":73,"time":188.49374999999878,"velocity":0.5275590551181102,"duration":0.08125000000001137},{"name":"D5","midi":74,"time":188.58333333333212,"velocity":0.5275590551181102,"duration":0.08541666666667425},{"name":"C#5","midi":73,"time":188.6749999999988,"velocity":0.5275590551181102,"duration":0.5062500000000227},{"name":"F3","midi":53,"time":188.6749999999988,"velocity":0.5669291338582677,"duration":0.33541666666667425},{"name":"F#4","midi":66,"time":189.03541666666547,"velocity":0.5669291338582677,"duration":1.1124999999999545},{"name":"D4","midi":62,"time":189.03541666666547,"velocity":0.5669291338582677,"duration":0.33541666666667425},{"name":"B4","midi":71,"time":189.21666666666547,"velocity":0.5275590551181102,"duration":0.1666666666666572},{"name":"A4","midi":69,"time":189.39583333333212,"velocity":0.5275590551181102,"duration":0.16458333333332575},{"name":"C#4","midi":61,"time":189.39583333333212,"velocity":0.5669291338582677,"duration":0.3333333333333144},{"name":"D5","midi":74,"time":189.57291666666544,"velocity":0.5275590551181102,"duration":0.16874999999998863},{"name":"G#4","midi":68,"time":189.75208333333208,"velocity":0.5275590551181102,"duration":0.6770833333333428},{"name":"C4","midi":60,"time":189.7541666666654,"velocity":0.5669291338582677,"duration":0.33541666666667425},{"name":"C#4","midi":61,"time":190.11249999999876,"velocity":0.5669291338582677,"duration":0.3395833333333371},{"name":"F4","midi":65,"time":190.1145833333321,"velocity":0.5669291338582677,"duration":0.33541666666667425},{"name":"A4","midi":69,"time":190.47499999999877,"velocity":0.5275590551181102,"duration":0.6770833333333428},{"name":"A3","midi":57,"time":190.47499999999877,"velocity":0.5669291338582677,"duration":0.3375000000000057},{"name":"F#4","midi":66,"time":190.4770833333321,"velocity":0.5669291338582677,"duration":0.8479166666666913},{"name":"F#3","midi":54,"time":190.83749999999878,"velocity":0.5669291338582677,"duration":0.33541666666667425},{"name":"B4","midi":71,"time":191.1999999999988,"velocity":0.5275590551181102,"duration":0.6999999999999602},{"name":"G#3","midi":56,"time":191.1999999999988,"velocity":0.5669291338582677,"duration":1.3395833333332234},{"name":"G#4","midi":68,"time":191.37916666666547,"velocity":0.5275590551181102,"duration":0.1666666666666572},{"name":"A4","midi":69,"time":191.55624999999878,"velocity":0.5275590551181102,"duration":0.1666666666666572},{"name":"B4","midi":71,"time":191.73541666666543,"velocity":0.5275590551181102,"duration":1.4833333333331495},{"name":"C#5","midi":73,"time":191.9104166666654,"velocity":0.5275590551181102,"duration":0.1666666666666572},{"name":"D5","midi":74,"time":192.08749999999873,"velocity":0.5275590551181102,"duration":0.16249999999999432},{"name":"F#4","midi":66,"time":192.2624999999987,"velocity":0.5669291338582677,"duration":0.16874999999998863},{"name":"F4","midi":65,"time":192.44583333333202,"velocity":0.5669291338582677,"duration":0.17083333333332007},{"name":"F#3","midi":54,"time":192.62916666666533,"velocity":0.5669291338582677,"duration":0.16874999999998863},{"name":"F#4","midi":66,"time":192.63124999999866,"velocity":0.5669291338582677,"duration":2.014583333333121},{"name":"F#3","midi":54,"time":192.80833333333197,"velocity":0.5669291338582677,"duration":0.17083333333332007},{"name":"G3","midi":55,"time":192.99166666666528,"velocity":0.5669291338582677,"duration":0.1666666666666572},{"name":"A3","midi":57,"time":193.17291666666526,"velocity":0.5669291338582677,"duration":0.16874999999998863},{"name":"A4","midi":69,"time":193.35416666666524,"velocity":0.5275590551181102,"duration":0.6687499999999318},{"name":"B3","midi":59,"time":193.35416666666524,"velocity":0.5669291338582677,"duration":0.16458333333332575},{"name":"C4","midi":60,"time":193.53124999999855,"velocity":0.5669291338582677,"duration":0.1666666666666572},{"name":"E3","midi":52,"time":193.7104166666652,"velocity":0.5669291338582677,"duration":0.1666666666666572},{"name":"D#3","midi":51,"time":193.88958333333184,"velocity":0.5669291338582677,"duration":0.16458333333332575},{"name":"G#4","midi":68,"time":194.06666666666516,"velocity":0.5275590551181102,"duration":1.589583333333195},{"name":"E3","midi":52,"time":194.0687499999985,"velocity":0.5669291338582677,"duration":0.16041666666666288},{"name":"F#3","midi":54,"time":194.24166666666514,"velocity":0.5669291338582677,"duration":0.1666666666666572},{"name":"G3","midi":55,"time":194.42083333333179,"velocity":0.5669291338582677,"duration":0.16458333333332575},{"name":"E3","midi":52,"time":194.5979166666651,"velocity":0.5669291338582677,"duration":0.16666666666668561},{"name":"E4","midi":64,"time":194.77708333333177,"velocity":0.5669291338582677,"duration":1.256249999999909},{"name":"A#3","midi":58,"time":194.7791666666651,"velocity":0.5669291338582677,"duration":0.16249999999999432},{"name":"B3","midi":59,"time":194.9541666666651,"velocity":0.5669291338582677,"duration":0.1666666666666572},{"name":"D3","midi":50,"time":195.1312499999984,"velocity":0.5669291338582677,"duration":0.16874999999998863},{"name":"C#3","midi":49,"time":195.31249999999838,"velocity":0.5669291338582677,"duration":0.1666666666666572},{"name":"F#4","midi":66,"time":195.49166666666503,"velocity":0.5669291338582677,"duration":1.3437499999999716},{"name":"D3","midi":50,"time":195.49374999999836,"velocity":0.5669291338582677,"duration":0.33124999999998295},{"name":"B4","midi":71,"time":195.84999999999835,"velocity":0.5275590551181102,"duration":0.3916666666666515},{"name":"B2","midi":47,"time":195.84999999999835,"velocity":0.5669291338582677,"duration":0.3333333333333428},{"name":"D4","midi":62,"time":196.0270833333317,"velocity":0.5669291338582677,"duration":0.16874999999998863},{"name":"A4","midi":69,"time":196.20833333333167,"velocity":0.5275590551181102,"duration":0.3916666666666515},{"name":"F#3","midi":54,"time":196.210416666665,"velocity":0.5669291338582677,"duration":0.6999999999999886},{"name":"C#4","midi":61,"time":196.210416666665,"velocity":0.5669291338582677,"duration":0.16249999999999432},{"name":"B3","midi":59,"time":196.38541666666498,"velocity":0.5669291338582677,"duration":0.18333333333333712},{"name":"A3","midi":57,"time":196.56458333333165,"velocity":0.5669291338582677,"duration":0.18125000000000568},{"name":"F#4","midi":66,"time":196.56458333333165,"velocity":0.5669291338582677,"duration":0.3333333333333428},{"name":"F#3","midi":54,"time":196.741666666665,"velocity":0.5669291338582677,"duration":0.6770833333333144},{"name":"D5","midi":74,"time":196.92291666666497,"velocity":0.5275590551181102,"duration":0.39166666666667993},{"name":"G#3","midi":56,"time":196.9249999999983,"velocity":0.5669291338582677,"duration":0.1770833333333428},{"name":"F4","midi":65,"time":196.9249999999983,"velocity":0.5669291338582677,"duration":0.36250000000001137},{"name":"B3","midi":59,"time":197.09999999999832,"velocity":0.5669291338582677,"duration":0.18125000000000568},{"name":"B4","midi":71,"time":197.279166666665,"velocity":0.5275590551181102,"duration":0.3937499999999545},{"name":"D#4","midi":63,"time":197.279166666665,"velocity":0.5669291338582677,"duration":0.36458333333328596},{"name":"A3","midi":57,"time":197.279166666665,"velocity":0.5669291338582677,"duration":0.18124999999997726},{"name":"F#3","midi":54,"time":197.45833333333164,"velocity":0.5669291338582677,"duration":0.1666666666666572},{"name":"E5","midi":76,"time":197.63749999999828,"velocity":0.5275590551181102,"duration":0.35625000000001705},{"name":"C4","midi":60,"time":197.63749999999828,"velocity":0.5669291338582677,"duration":0.3333333333333428},{"name":"F#3","midi":54,"time":197.63958333333161,"velocity":0.5669291338582677,"duration":0.6666666666666572},{"name":"D#5","midi":75,"time":197.9937499999983,"velocity":0.5275590551181102,"duration":0.33124999999998295},{"name":"B3","midi":59,"time":197.99583333333163,"velocity":0.5669291338582677,"duration":0.16458333333332575},{"name":"A3","midi":57,"time":198.17291666666495,"velocity":0.5669291338582677,"duration":0.16458333333332575},{"name":"A4","midi":69,"time":198.34999999999826,"velocity":0.5275590551181102,"duration":0.33541666666667425},{"name":"D#5","midi":75,"time":198.3520833333316,"velocity":0.5275590551181102,"duration":0.33125000000001137},{"name":"B3","midi":59,"time":198.3520833333316,"velocity":0.5669291338582677,"duration":1.335416666666731},{"name":"E3","midi":52,"time":198.35416666666492,"velocity":0.5669291338582677,"duration":0.6666666666666856},{"name":"G#4","midi":68,"time":198.7083333333316,"velocity":0.5275590551181102,"duration":0.3333333333333428},{"name":"E5","midi":76,"time":198.71041666666494,"velocity":0.5275590551181102,"duration":0.33125000000001137},{"name":"F5","midi":77,"time":199.06458333333163,"velocity":0.4330708661417323,"duration":0.3333333333333428},{"name":"D3","midi":50,"time":199.06666666666496,"velocity":0.5669291338582677,"duration":0.6625000000000227},{"name":"E5","midi":76,"time":199.42083333333164,"velocity":0.5275590551181102,"duration":0.32916666666667993},{"name":"B4","midi":71,"time":199.772916666665,"velocity":0.5275590551181102,"duration":0.3291666666666515},{"name":"C#3","midi":49,"time":199.77499999999833,"velocity":0.5669291338582677,"duration":0.6645833333333258},{"name":"E3","midi":52,"time":199.77499999999833,"velocity":0.5669291338582677,"duration":0.6645833333333258},{"name":"A#4","midi":70,"time":200.12708333333165,"velocity":0.5275590551181102,"duration":0.3333333333333428},{"name":"E5","midi":76,"time":200.12708333333165,"velocity":0.5275590551181102,"duration":0.33125000000001137},{"name":"G5","midi":79,"time":200.48333333333167,"velocity":0.4330708661417323,"duration":0.3354166666666458},{"name":"D5","midi":74,"time":200.48333333333167,"velocity":0.5275590551181102,"duration":0.1666666666666572},{"name":"B3","midi":59,"time":200.485416666665,"velocity":0.5669291338582677,"duration":0.33124999999998295},{"name":"B2","midi":47,"time":200.485416666665,"velocity":0.5669291338582677,"duration":1.0041666666665776},{"name":"C#5","midi":73,"time":200.66249999999832,"velocity":0.5275590551181102,"duration":0.1666666666666572},{"name":"D5","midi":74,"time":200.84166666666496,"velocity":0.5275590551181102,"duration":0.16458333333332575},{"name":"F#5","midi":78,"time":200.84166666666496,"velocity":0.4330708661417323,"duration":0.3333333333333144},{"name":"A3","midi":57,"time":200.8437499999983,"velocity":0.5669291338582677,"duration":0.33124999999998295},{"name":"B4","midi":71,"time":201.01874999999828,"velocity":0.5275590551181102,"duration":0.16874999999998863},{"name":"F5","midi":77,"time":201.19999999999825,"velocity":0.4330708661417323,"duration":0.3291666666666515},{"name":"C#5","midi":73,"time":201.19999999999825,"velocity":0.5275590551181102,"duration":0.6666666666666572},{"name":"G#3","midi":56,"time":201.19999999999825,"velocity":0.5669291338582677,"duration":0.3291666666666515},{"name":"F#5","midi":78,"time":201.55208333333158,"velocity":0.4330708661417323,"duration":0.3375000000000057},{"name":"F#3","midi":54,"time":201.5541666666649,"velocity":0.5669291338582677,"duration":0.3333333333333428},{"name":"A#2","midi":46,"time":201.5541666666649,"velocity":0.5669291338582677,"duration":0.3333333333333428},{"name":"D5","midi":74,"time":201.91041666666493,"velocity":0.5275590551181102,"duration":0.3375000000000057},{"name":"B4","midi":71,"time":201.91249999999826,"velocity":0.5275590551181102,"duration":0.3333333333333428},{"name":"F#4","midi":66,"time":201.91249999999826,"velocity":0.5669291338582677,"duration":0.3333333333333428},{"name":"B2","midi":47,"time":201.9145833333316,"velocity":0.5669291338582677,"duration":0.8291666666667084},{"name":"B4","midi":71,"time":202.26874999999828,"velocity":0.5275590551181102,"duration":0.33125000000001137},{"name":"D4","midi":62,"time":202.26874999999828,"velocity":0.5669291338582677,"duration":0.32916666666667993},{"name":"F#4","midi":66,"time":202.26874999999828,"velocity":0.5669291338582677,"duration":0.32916666666667993},{"name":"C#5","midi":73,"time":202.62083333333163,"velocity":0.5275590551181102,"duration":1.4687499999998863},{"name":"G4","midi":67,"time":202.62291666666496,"velocity":0.5669291338582677,"duration":1.6583333333332178},{"name":"E4","midi":64,"time":202.6249999999983,"velocity":0.5669291338582677,"duration":1.3249999999999034},{"name":"C#3","midi":49,"time":202.79791666666497,"velocity":0.5669291338582677,"duration":0.16041666666666288},{"name":"D3","midi":50,"time":202.97291666666496,"velocity":0.5669291338582677,"duration":0.15833333333333144},{"name":"E3","midi":52,"time":203.14374999999828,"velocity":0.5669291338582677,"duration":0.16041666666666288},{"name":"F#3","midi":54,"time":203.31874999999826,"velocity":0.5669291338582677,"duration":0.16458333333332575},{"name":"G3","midi":55,"time":203.49583333333157,"velocity":0.5669291338582677,"duration":0.1666666666666572},{"name":"B2","midi":47,"time":203.67499999999822,"velocity":0.5669291338582677,"duration":0.16874999999998863},{"name":"A#2","midi":46,"time":203.8562499999982,"velocity":0.5669291338582677,"duration":0.16874999999998863},{"name":"D3","midi":50,"time":204.03749999999818,"velocity":0.5669291338582677,"duration":1.4916666666665606},{"name":"C#5","midi":73,"time":204.21458333333152,"velocity":0.5275590551181102,"duration":0.16041666666666288},{"name":"D5","midi":74,"time":204.38541666666484,"velocity":0.5275590551181102,"duration":0.16458333333332575},{"name":"C#4","midi":61,"time":204.38749999999817,"velocity":0.5669291338582677,"duration":1.0937499999998863},{"name":"E5","midi":76,"time":204.56041666666482,"velocity":0.5275590551181102,"duration":0.16458333333332575},{"name":"F#5","midi":78,"time":204.73749999999814,"velocity":0.4330708661417323,"duration":0.16458333333332575},{"name":"A#3","midi":58,"time":204.73958333333147,"velocity":0.5669291338582677,"duration":0.3624999999999545},{"name":"G5","midi":79,"time":204.91458333333145,"velocity":0.4330708661417323,"duration":0.1666666666666572},{"name":"B4","midi":71,"time":205.0937499999981,"velocity":0.5275590551181102,"duration":0.1666666666666572},{"name":"F#3","midi":54,"time":205.09583333333143,"velocity":0.5669291338582677,"duration":0.36458333333328596},{"name":"A#4","midi":70,"time":205.27291666666474,"velocity":0.5275590551181102,"duration":0.16458333333332575},{"name":"B4","midi":71,"time":205.44999999999806,"velocity":0.5275590551181102,"duration":1.5020833333332746},{"name":"D4","midi":62,"time":205.44999999999806,"velocity":0.5669291338582677,"duration":1.4208333333332632},{"name":"F#4","midi":66,"time":205.4520833333314,"velocity":0.5669291338582677,"duration":0.658333333333303},{"name":"A#2","midi":46,"time":205.6270833333314,"velocity":0.5669291338582677,"duration":0.16458333333332575},{"name":"B2","midi":47,"time":205.8041666666647,"velocity":0.5669291338582677,"duration":0.16249999999999432},{"name":"C#3","midi":49,"time":205.97708333333136,"velocity":0.5669291338582677,"duration":0.16458333333332575},{"name":"G#4","midi":68,"time":206.15416666666468,"velocity":0.5275590551181102,"duration":1.3333333333333144},{"name":"D3","midi":50,"time":206.15416666666468,"velocity":0.5669291338582677,"duration":0.1666666666666572},{"name":"E3","midi":52,"time":206.331249999998,"velocity":0.5669291338582677,"duration":0.20000000000001705},{"name":"F#2","midi":42,"time":206.51041666666467,"velocity":0.5669291338582677,"duration":0.16875000000001705},{"name":"F2","midi":41,"time":206.69166666666467,"velocity":0.5669291338582677,"duration":0.16874999999998863},{"name":"C#4","midi":61,"time":206.87291666666465,"velocity":0.5669291338582677,"duration":1.3708333333333371},{"name":"F#2","midi":42,"time":206.87291666666465,"velocity":0.5669291338582677,"duration":0.65625},{"name":"F4","midi":65,"time":207.04791666666466,"velocity":0.5669291338582677,"duration":0.1666666666666572},{"name":"F#4","midi":66,"time":207.2270833333313,"velocity":0.5669291338582677,"duration":0.31875000000002274},{"name":"G#4","midi":68,"time":207.399999999998,"velocity":0.5275590551181102,"duration":0.17291666666667993},{"name":"A4","midi":69,"time":207.574999999998,"velocity":0.5275590551181102,"duration":0.18333333333333712},{"name":"F#4","midi":66,"time":207.574999999998,"velocity":0.5669291338582677,"duration":0.4916666666666458},{"name":"F#3","midi":54,"time":207.574999999998,"velocity":0.5669291338582677,"duration":0.3499999999999943},{"name":"B4","midi":71,"time":207.74166666666466,"velocity":0.5275590551181102,"duration":0.19166666666666288},{"name":"C#5","midi":73,"time":207.91666666666467,"velocity":0.5275590551181102,"duration":0.2770833333333087},{"name":"A3","midi":57,"time":207.918749999998,"velocity":0.5669291338582677,"duration":0.3604166666666515},{"name":"F#4","midi":66,"time":208.09374999999798,"velocity":0.5669291338582677,"duration":0.19999999999998863},{"name":"D5","midi":74,"time":208.27291666666466,"velocity":0.5275590551181102,"duration":0.19999999999998863},{"name":"B3","midi":59,"time":208.274999999998,"velocity":0.5669291338582677,"duration":0.3333333333333144},{"name":"E5","midi":76,"time":208.45416666666463,"velocity":0.5275590551181102,"duration":0.19583333333332575},{"name":"F#5","midi":78,"time":208.6333333333313,"velocity":0.4330708661417323,"duration":0.6520833333332803},{"name":"B3","midi":59,"time":208.6333333333313,"velocity":0.5669291338582677,"duration":0.16458333333332575},{"name":"D3","midi":50,"time":208.63541666666464,"velocity":0.5669291338582677,"duration":0.3187499999999943},{"name":"A3","midi":57,"time":208.8083333333313,"velocity":0.5669291338582677,"duration":0.15625},{"name":"G#3","midi":56,"time":208.97708333333128,"velocity":0.5669291338582677,"duration":0.16458333333332575},{"name":"E3","midi":52,"time":208.97708333333128,"velocity":0.5669291338582677,"duration":0.32708333333332007},{"name":"A3","midi":57,"time":209.15208333333126,"velocity":0.5669291338582677,"duration":0.16458333333332575},{"name":"E5","midi":76,"time":209.32708333333125,"velocity":0.5275590551181102,"duration":0.16458333333332575},{"name":"B3","midi":59,"time":209.32708333333125,"velocity":0.5669291338582677,"duration":0.6624999999999375},{"name":"G#3","midi":56,"time":209.32916666666458,"velocity":0.5669291338582677,"duration":0.32708333333332007},{"name":"D5","midi":74,"time":209.50208333333123,"velocity":0.5275590551181102,"duration":0.1666666666666572},{"name":"C#5","midi":73,"time":209.68124999999787,"velocity":0.5275590551181102,"duration":0.16458333333332575},{"name":"A3","midi":57,"time":209.68124999999787,"velocity":0.5669291338582677,"duration":0.32708333333332007},{"name":"D5","midi":74,"time":209.85624999999786,"velocity":0.5275590551181102,"duration":0.16458333333332575},{"name":"E5","midi":76,"time":210.03333333333117,"velocity":0.5275590551181102,"duration":0.6437499999999545},{"name":"A3","midi":57,"time":210.03333333333117,"velocity":0.5669291338582677,"duration":0.16249999999999432},{"name":"C#3","midi":49,"time":210.0354166666645,"velocity":0.5669291338582677,"duration":0.3187499999999943},{"name":"G#3","midi":56,"time":210.20624999999782,"velocity":0.5669291338582677,"duration":0.16041666666666288},{"name":"F#3","midi":54,"time":210.37916666666447,"velocity":0.5669291338582677,"duration":0.16041666666666288},{"name":"D3","midi":50,"time":210.37916666666447,"velocity":0.5669291338582677,"duration":0.3187499999999943},{"name":"G#3","midi":56,"time":210.5499999999978,"velocity":0.5669291338582677,"duration":0.15833333333333144},{"name":"D5","midi":74,"time":210.71874999999778,"velocity":0.5275590551181102,"duration":0.16041666666666288},{"name":"F#3","midi":54,"time":210.72083333333111,"velocity":0.5669291338582677,"duration":0.32083333333332575},{"name":"A3","midi":57,"time":210.72083333333111,"velocity":0.5669291338582677,"duration":0.645833333333286},{"name":"C#5","midi":73,"time":210.89166666666443,"velocity":0.5275590551181102,"duration":0.15833333333333144},{"name":"B4","midi":71,"time":211.06249999999775,"velocity":0.5275590551181102,"duration":0.16458333333332575},{"name":"G#3","midi":56,"time":211.0645833333311,"velocity":0.5669291338582677,"duration":0.3229166666666572},{"name":"C#5","midi":73,"time":211.23749999999774,"velocity":0.5275590551181102,"duration":0.16249999999999432},{"name":"D5","midi":74,"time":211.4104166666644,"velocity":0.5275590551181102,"duration":0.6479166666666174},{"name":"G#3","midi":56,"time":211.41249999999772,"velocity":0.5669291338582677,"duration":0.15833333333333144},{"name":"B2","midi":47,"time":211.41249999999772,"velocity":0.5669291338582677,"duration":0.3229166666666572},{"name":"F#3","midi":54,"time":211.58333333333104,"velocity":0.5669291338582677,"duration":0.16249999999999432},{"name":"C#3","midi":49,"time":211.75833333333102,"velocity":0.5669291338582677,"duration":0.32083333333332575},{"name":"F3","midi":53,"time":211.75833333333102,"velocity":0.5669291338582677,"duration":0.16041666666666288},{"name":"F#3","midi":54,"time":211.93124999999768,"velocity":0.5669291338582677,"duration":0.16041666666666288},{"name":"C#5","midi":73,"time":212.10416666666433,"velocity":0.5275590551181102,"duration":0.16249999999999432},{"name":"G#3","midi":56,"time":212.10416666666433,"velocity":0.5669291338582677,"duration":0.3291666666666515},{"name":"F3","midi":53,"time":212.10416666666433,"velocity":0.5669291338582677,"duration":0.3291666666666515},{"name":"B4","midi":71,"time":212.2791666666643,"velocity":0.5275590551181102,"duration":0.1666666666666572},{"name":"A4","midi":69,"time":212.45833333333096,"velocity":0.5275590551181102,"duration":0.6500000000000057},{"name":"F#3","midi":54,"time":212.45833333333096,"velocity":0.5669291338582677,"duration":0.32916666666667993},{"name":"B4","midi":71,"time":212.63333333333097,"velocity":0.5275590551181102,"duration":0.16458333333332575},{"name":"C#5","midi":73,"time":212.81041666666428,"velocity":0.5275590551181102,"duration":0.6395833333333769},{"name":"A2","midi":45,"time":212.81041666666428,"velocity":0.5669291338582677,"duration":0.31875000000002274},{"name":"F#4","midi":66,"time":213.15208333333098,"velocity":0.5669291338582677,"duration":0.3208333333333542},{"name":"B2","midi":47,"time":213.15208333333098,"velocity":0.5669291338582677,"duration":0.31875000000002274},{"name":"F#5","midi":78,"time":213.49374999999768,"velocity":0.4330708661417323,"duration":0.645833333333286},{"name":"B4","midi":71,"time":213.495833333331,"velocity":0.5275590551181102,"duration":0.15833333333333144},{"name":"D4","midi":62,"time":213.495833333331,"velocity":0.5669291338582677,"duration":0.3187499999999943},{"name":"D3","midi":50,"time":213.49791666666434,"velocity":0.5669291338582677,"duration":0.3166666666666629},{"name":"A4","midi":69,"time":213.66666666666433,"velocity":0.5275590551181102,"duration":0.15833333333333144},{"name":"E3","midi":52,"time":213.83541666666432,"velocity":0.5669291338582677,"duration":0.32499999999998863},{"name":"B3","midi":59,"time":213.83749999999765,"velocity":0.5669291338582677,"duration":0.3229166666666572},{"name":"G4","midi":67,"time":213.83749999999765,"velocity":0.5669291338582677,"duration":0.16041666666666288},{"name":"A4","midi":69,"time":214.00833333333097,"velocity":0.5275590551181102,"duration":0.16458333333332575},{"name":"E5","midi":76,"time":214.18333333333095,"velocity":0.5275590551181102,"duration":0.16041666666666288},{"name":"B4","midi":71,"time":214.18541666666428,"velocity":0.5275590551181102,"duration":0.6354166666666288},{"name":"G2","midi":43,"time":214.18541666666428,"velocity":0.5669291338582677,"duration":0.31458333333333144},{"name":"D5","midi":74,"time":214.35416666666427,"velocity":0.5275590551181102,"duration":0.15833333333333144},{"name":"C#5","midi":73,"time":214.5249999999976,"velocity":0.5275590551181102,"duration":0.15625},{"name":"A2","midi":45,"time":214.5249999999976,"velocity":0.5669291338582677,"duration":0.31458333333333144},{"name":"D5","midi":74,"time":214.69166666666425,"velocity":0.5275590551181102,"duration":0.16041666666666288},{"name":"E5","midi":76,"time":214.8645833333309,"velocity":0.5275590551181102,"duration":0.6541666666666117},{"name":"A4","midi":69,"time":214.8645833333309,"velocity":0.5275590551181102,"duration":0.16041666666666288},{"name":"C#3","midi":49,"time":214.86666666666423,"velocity":0.5669291338582677,"duration":0.32083333333332575},{"name":"G4","midi":67,"time":215.03749999999755,"velocity":0.5669291338582677,"duration":0.16249999999999432},{"name":"D3","midi":50,"time":215.21249999999753,"velocity":0.5669291338582677,"duration":0.32499999999998863},{"name":"F#4","midi":66,"time":215.21249999999753,"velocity":0.5669291338582677,"duration":0.16249999999999432},{"name":"G4","midi":67,"time":215.38541666666418,"velocity":0.5669291338582677,"duration":0.16458333333332575},{"name":"A4","midi":69,"time":215.5624999999975,"velocity":0.5275590551181102,"duration":0.6395833333332916},{"name":"D5","midi":74,"time":215.5624999999975,"velocity":0.5275590551181102,"duration":0.16249999999999432},{"name":"F#2","midi":42,"time":215.56458333333083,"velocity":0.5669291338582677,"duration":0.31458333333333144},{"name":"C#5","midi":73,"time":215.73333333333082,"velocity":0.5275590551181102,"duration":0.15833333333333144},{"name":"B4","midi":71,"time":215.90416666666414,"velocity":0.5275590551181102,"duration":0.15625},{"name":"G2","midi":43,"time":215.90416666666414,"velocity":0.5669291338582677,"duration":0.3187499999999943},{"name":"C#5","midi":73,"time":216.07291666666413,"velocity":0.5275590551181102,"duration":0.16041666666666288},{"name":"D5","midi":74,"time":216.24374999999745,"velocity":0.5275590551181102,"duration":0.6541666666666117},{"name":"G4","midi":67,"time":216.24583333333078,"velocity":0.5669291338582677,"duration":0.16249999999999432},{"name":"B2","midi":47,"time":216.24583333333078,"velocity":0.5669291338582677,"duration":0.32499999999998863},{"name":"F#4","midi":66,"time":216.42083333333076,"velocity":0.5669291338582677,"duration":0.16041666666666288},{"name":"C#3","midi":49,"time":216.5937499999974,"velocity":0.5669291338582677,"duration":0.32708333333332007},{"name":"E4","midi":64,"time":216.5937499999974,"velocity":0.5669291338582677,"duration":0.16249999999999432},{"name":"F#4","midi":66,"time":216.7687499999974,"velocity":0.5669291338582677,"duration":0.16041666666666288},{"name":"C#5","midi":73,"time":216.94166666666405,"velocity":0.5275590551181102,"duration":0.16041666666666288},{"name":"G4","midi":67,"time":216.94374999999738,"velocity":0.5669291338582677,"duration":0.6312499999999659},{"name":"E2","midi":40,"time":216.94374999999738,"velocity":0.5669291338582677,"duration":0.3125},{"name":"B4","midi":71,"time":217.11249999999737,"velocity":0.5275590551181102,"duration":0.15625},{"name":"A#4","midi":70,"time":217.27916666666403,"velocity":0.5275590551181102,"duration":0.15833333333333144},{"name":"F#2","midi":42,"time":217.27916666666403,"velocity":0.5669291338582677,"duration":0.3166666666666629},{"name":"B4","midi":71,"time":217.44999999999735,"velocity":0.5275590551181102,"duration":0.15833333333333144},{"name":"C#5","midi":73,"time":217.62083333333067,"velocity":0.5275590551181102,"duration":0.6541666666666401},{"name":"F#4","midi":66,"time":217.62083333333067,"velocity":0.5669291338582677,"duration":0.16249999999999432},{"name":"A#2","midi":46,"time":217.622916666664,"velocity":0.5669291338582677,"duration":0.3229166666666572},{"name":"E4","midi":64,"time":217.79583333333065,"velocity":0.5669291338582677,"duration":0.16249999999999432},{"name":"D4","midi":62,"time":217.97083333333063,"velocity":0.5669291338582677,"duration":0.6479166666666458},{"name":"B2","midi":47,"time":217.97291666666396,"velocity":0.5669291338582677,"duration":0.8083333333333087},{"name":"B4","midi":71,"time":218.3187499999973,"velocity":0.5275590551181102,"duration":0.16041666666666288},{"name":"F#4","midi":66,"time":218.32083333333063,"velocity":0.5669291338582677,"duration":0.3187499999999943},{"name":"A#4","midi":70,"time":218.49166666666395,"velocity":0.5275590551181102,"duration":0.15833333333333144},{"name":"B4","midi":71,"time":218.66041666666393,"velocity":0.5275590551181102,"duration":0.814583333333303},{"name":"D4","midi":62,"time":218.66249999999727,"velocity":0.5669291338582677,"duration":0.3208333333333542},{"name":"C#3","midi":49,"time":218.83333333333061,"velocity":0.5669291338582677,"duration":0.16249999999999432},{"name":"D3","midi":50,"time":219.00416666666393,"velocity":0.5669291338582677,"duration":0.16249999999999432},{"name":"B3","midi":59,"time":219.00624999999727,"velocity":0.5669291338582677,"duration":0.3229166666666572},{"name":"F#3","midi":54,"time":219.17916666666392,"velocity":0.5669291338582677,"duration":0.16249999999999432},{"name":"E3","midi":52,"time":219.35208333333057,"velocity":0.5669291338582677,"duration":0.16249999999999432},{"name":"G4","midi":67,"time":219.3541666666639,"velocity":0.5669291338582677,"duration":0.32083333333332575},{"name":"A#4","midi":70,"time":219.52708333333055,"velocity":0.5275590551181102,"duration":0.16041666666666288},{"name":"C#3","midi":49,"time":219.52708333333055,"velocity":0.5669291338582677,"duration":0.16041666666666288},{"name":"B4","midi":71,"time":219.6999999999972,"velocity":0.5275590551181102,"duration":0.16041666666666288},{"name":"F#4","midi":66,"time":219.6999999999972,"velocity":0.5669291338582677,"duration":0.3229166666666572},{"name":"D3","midi":50,"time":219.6999999999972,"velocity":0.5669291338582677,"duration":0.15833333333333144},{"name":"D5","midi":74,"time":219.87083333333052,"velocity":0.5275590551181102,"duration":0.16458333333332575},{"name":"F#3","midi":54,"time":219.87291666666385,"velocity":0.5669291338582677,"duration":0.16249999999999432},{"name":"C#5","midi":73,"time":220.04791666666384,"velocity":0.5275590551181102,"duration":0.6645833333332689},{"name":"B4","midi":71,"time":220.04791666666384,"velocity":0.5275590551181102,"duration":0.3291666666666515},{"name":"G3","midi":55,"time":220.04999999999717,"velocity":0.5669291338582677,"duration":0.16041666666666288},{"name":"E3","midi":52,"time":220.22291666666382,"velocity":0.5669291338582677,"duration":0.1666666666666572},{"name":"A#4","midi":70,"time":220.39999999999714,"velocity":0.5275590551181102,"duration":0.3333333333333144},{"name":"F#3","midi":54,"time":220.40208333333047,"velocity":0.5669291338582677,"duration":0.16458333333332575},{"name":"A#3","midi":58,"time":220.57916666666378,"velocity":0.5669291338582677,"duration":0.1666666666666572},{"name":"B4","midi":71,"time":220.7562499999971,"velocity":0.5275590551181102,"duration":0.6479166666666174},{"name":"E4","midi":64,"time":220.75833333333043,"velocity":0.5669291338582677,"duration":0.32499999999998863},{"name":"B3","midi":59,"time":220.75833333333043,"velocity":0.5669291338582677,"duration":0.16458333333332575},{"name":"G3","midi":55,"time":220.93541666666374,"velocity":0.5669291338582677,"duration":0.16041666666666288},{"name":"F#3","midi":54,"time":221.10624999999706,"velocity":0.5669291338582677,"duration":0.15833333333333144},{"name":"D#4","midi":63,"time":221.1083333333304,"velocity":0.5669291338582677,"duration":0.3166666666666629},{"name":"E3","midi":52,"time":221.27708333333038,"velocity":0.5669291338582677,"duration":0.15833333333333144},{"name":"A4","midi":69,"time":221.4479166666637,"velocity":0.5275590551181102,"duration":0.6520833333333371},{"name":"C5","midi":72,"time":221.4479166666637,"velocity":0.5275590551181102,"duration":0.32499999999998863},{"name":"D#3","midi":51,"time":221.44999999999703,"velocity":0.5669291338582677,"duration":0.48750000000001137},{"name":"B4","midi":71,"time":221.79583333333036,"velocity":0.5275590551181102,"duration":0.32500000000001705},{"name":"C#3","midi":49,"time":221.97083333333038,"velocity":0.5669291338582677,"duration":0.16249999999999432},{"name":"G#4","midi":68,"time":222.14583333333036,"velocity":0.5275590551181102,"duration":0.645833333333286},{"name":"F#4","midi":66,"time":222.1479166666637,"velocity":0.5669291338582677,"duration":0.32083333333332575},{"name":"D3","midi":50,"time":222.1479166666637,"velocity":0.5669291338582677,"duration":0.16041666666666288},{"name":"E3","midi":52,"time":222.318749999997,"velocity":0.5669291338582677,"duration":0.16249999999999432},{"name":"F4","midi":65,"time":222.493749999997,"velocity":0.5669291338582677,"duration":0.3166666666666629},{"name":"D3","midi":50,"time":222.493749999997,"velocity":0.5669291338582677,"duration":0.15625},{"name":"C#3","midi":49,"time":222.6645833333303,"velocity":0.5669291338582677,"duration":0.15625},{"name":"D5","midi":74,"time":222.8333333333303,"velocity":0.5275590551181102,"duration":0.32083333333332575},{"name":"F#4","midi":66,"time":222.83541666666363,"velocity":0.5669291338582677,"duration":0.9770833333332689},{"name":"B2","midi":47,"time":222.83541666666363,"velocity":0.5669291338582677,"duration":0.15833333333333144},{"name":"A2","midi":45,"time":223.00624999999695,"velocity":0.5669291338582677,"duration":0.16041666666666288},{"name":"C#5","midi":73,"time":223.1791666666636,"velocity":0.5275590551181102,"duration":0.32499999999998863},{"name":"G#2","midi":44,"time":223.18124999999694,"velocity":0.5669291338582677,"duration":0.16041666666666288},{"name":"F#2","midi":42,"time":223.35208333333026,"velocity":0.5669291338582677,"duration":0.16458333333332575},{"name":"C5","midi":72,"time":223.52708333333024,"velocity":0.5275590551181102,"duration":0.32708333333332007},{"name":"G#2","midi":44,"time":223.52916666666357,"velocity":0.5669291338582677,"duration":0.16041666666666288},{"name":"B2","midi":47,"time":223.70208333333022,"velocity":0.5669291338582677,"duration":0.16458333333332575},{"name":"C#5","midi":73,"time":223.87499999999687,"velocity":0.5275590551181102,"duration":0.32499999999998863},{"name":"F4","midi":65,"time":223.8770833333302,"velocity":0.5669291338582677,"duration":0.3229166666666572},{"name":"A2","midi":45,"time":223.8770833333302,"velocity":0.5669291338582677,"duration":0.16041666666666288},{"name":"G#2","midi":44,"time":224.04999999999686,"velocity":0.5669291338582677,"duration":0.16041666666666288},{"name":"A4","midi":69,"time":224.2229166666635,"velocity":0.5275590551181102,"duration":0.3229166666666572},{"name":"F#4","midi":66,"time":224.2229166666635,"velocity":0.5669291338582677,"duration":0.32083333333332575},{"name":"F#2","midi":42,"time":224.22499999999684,"velocity":0.5669291338582677,"duration":0.15833333333333144},{"name":"A2","midi":45,"time":224.39374999999683,"velocity":0.5669291338582677,"duration":0.16249999999999432},{"name":"F#4","midi":66,"time":224.56666666666348,"velocity":0.5669291338582677,"duration":0.4854166666666231},{"name":"D3","midi":50,"time":224.56666666666348,"velocity":0.5669291338582677,"duration":0.16041666666666288},{"name":"C#3","midi":49,"time":224.73958333333013,"velocity":0.5669291338582677,"duration":0.16041666666666288},{"name":"G#4","midi":68,"time":224.91249999999678,"velocity":0.5275590551181102,"duration":0.3333333333333144},{"name":"B2","midi":47,"time":224.91249999999678,"velocity":0.5669291338582677,"duration":0.32083333333332575},{"name":"G#4","midi":68,"time":225.0833333333301,"velocity":0.5275590551181102,"duration":1.1291666666665776},{"name":"A4","midi":69,"time":225.25624999999675,"velocity":0.5275590551181102,"duration":0.16249999999999432},{"name":"G#2","midi":44,"time":225.25624999999675,"velocity":0.5669291338582677,"duration":0.32083333333332575},{"name":"B4","midi":71,"time":225.42708333333007,"velocity":0.5275590551181102,"duration":0.16249999999999432},{"name":"C#5","midi":73,"time":225.60208333333006,"velocity":0.5275590551181102,"duration":0.16041666666666288},{"name":"C#3","midi":49,"time":225.60208333333006,"velocity":0.5669291338582677,"duration":0.3229166666666572},{"name":"D5","midi":74,"time":225.7749999999967,"velocity":0.5275590551181102,"duration":0.16041666666666288},{"name":"F#4","midi":66,"time":225.94791666666336,"velocity":0.5669291338582677,"duration":0.16249999999999432},{"name":"C#2","midi":37,"time":225.9499999999967,"velocity":0.5669291338582677,"duration":0.3229166666666572},{"name":"F4","midi":65,"time":226.12291666666334,"velocity":0.5669291338582677,"duration":0.16041666666666288},{"name":"A4","midi":69,"time":226.29583333333,"velocity":0.5275590551181102,"duration":1.6020833333332405},{"name":"F#4","midi":66,"time":226.29791666666333,"velocity":0.5669291338582677,"duration":0.6374999999999602},{"name":"F#3","midi":54,"time":226.29791666666333,"velocity":0.5669291338582677,"duration":0.15625},{"name":"G3","midi":55,"time":226.46666666666331,"velocity":0.5669291338582677,"duration":0.15833333333333144},{"name":"A3","midi":57,"time":226.6354166666633,"velocity":0.5669291338582677,"duration":0.16041666666666288},{"name":"B3","midi":59,"time":226.80833333332995,"velocity":0.5669291338582677,"duration":0.15833333333333144},{"name":"F#5","midi":78,"time":226.97916666666328,"velocity":0.4330708661417323,"duration":0.958333333333286},{"name":"C4","midi":60,"time":226.97916666666328,"velocity":0.5669291338582677,"duration":0.15625},{"name":"D4","midi":62,"time":227.14791666666326,"velocity":0.5669291338582677,"duration":0.16041666666666288},{"name":"E3","midi":52,"time":227.31874999999658,"velocity":0.5669291338582677,"duration":0.15833333333333144},{"name":"D#3","midi":51,"time":227.49166666666324,"velocity":0.5669291338582677,"duration":0.15625},{"name":"G3","midi":55,"time":227.66041666666322,"velocity":0.5669291338582677,"duration":1.4395833333333314},{"name":"E5","midi":76,"time":227.99999999999656,"velocity":0.5275590551181102,"duration":0.3187499999999943},{"name":"C5","midi":72,"time":228.0020833333299,"velocity":0.5275590551181102,"duration":0.3166666666666629},{"name":"B4","midi":71,"time":228.34374999999656,"velocity":0.5275590551181102,"duration":0.3166666666666629},{"name":"D#5","midi":75,"time":228.34374999999656,"velocity":0.5275590551181102,"duration":0.3187499999999943},{"name":"D#5","midi":75,"time":228.6833333333299,"velocity":0.5275590551181102,"duration":0.3187499999999943},{"name":"F#5","midi":78,"time":228.6833333333299,"velocity":0.4330708661417323,"duration":0.3187499999999943},{"name":"G5","midi":79,"time":229.02499999999657,"velocity":0.4330708661417323,"duration":1.5937499999999147},{"name":"E5","midi":76,"time":229.02499999999657,"velocity":0.5275590551181102,"duration":1.5958333333332462},{"name":"B2","midi":47,"time":229.1958333333299,"velocity":0.5669291338582677,"duration":0.15833333333333144},{"name":"C#3","midi":49,"time":229.3666666666632,"velocity":0.5669291338582677,"duration":0.15833333333333144},{"name":"D3","midi":50,"time":229.53749999999653,"velocity":0.5669291338582677,"duration":0.15833333333333144},{"name":"E3","midi":52,"time":229.70416666666318,"velocity":0.5669291338582677,"duration":0.15833333333333144},{"name":"F#3","midi":54,"time":229.87291666666317,"velocity":0.5669291338582677,"duration":0.15833333333333144},{"name":"B2","midi":47,"time":230.0437499999965,"velocity":0.5669291338582677,"duration":0.15625},{"name":"A#2","midi":46,"time":230.21041666666315,"velocity":0.5669291338582677,"duration":0.15833333333333144},{"name":"B2","midi":47,"time":230.38124999999647,"velocity":0.5669291338582677,"duration":1.6020833333333542},{"name":"F#5","midi":78,"time":230.7208333333298,"velocity":0.4330708661417323,"duration":0.3187499999999943},{"name":"D5","midi":74,"time":230.72291666666314,"velocity":0.5275590551181102,"duration":0.3166666666666629},{"name":"F5","midi":77,"time":231.06249999999648,"velocity":0.4330708661417323,"duration":0.3187499999999943},{"name":"C#5","midi":73,"time":231.0645833333298,"velocity":0.5275590551181102,"duration":0.3166666666666629},{"name":"G#5","midi":80,"time":231.4020833333298,"velocity":0.4330708661417323,"duration":0.32083333333332575},{"name":"F5","midi":77,"time":231.40416666666314,"velocity":0.4330708661417323,"duration":0.3166666666666629},{"name":"F#5","midi":78,"time":231.7458333333298,"velocity":0.4330708661417323,"duration":0.637500000000017},{"name":"C#5","midi":73,"time":231.74791666666314,"velocity":0.5275590551181102,"duration":0.31458333333335986},{"name":"D5","midi":74,"time":232.08541666666318,"velocity":0.5275590551181102,"duration":0.16041666666666288},{"name":"A#2","midi":46,"time":232.0874999999965,"velocity":0.5669291338582677,"duration":0.31458333333333144},{"name":"E5","midi":76,"time":232.2562499999965,"velocity":0.5275590551181102,"duration":0.15833333333333144},{"name":"D5","midi":74,"time":232.42708333332982,"velocity":0.5275590551181102,"duration":0.15833333333333144},{"name":"B2","midi":47,"time":232.42916666666315,"velocity":0.5669291338582677,"duration":0.3166666666666629},{"name":"E5","midi":76,"time":232.59791666666314,"velocity":0.5275590551181102,"duration":0.15625},{"name":"F#5","midi":78,"time":232.76874999999646,"velocity":0.4330708661417323,"duration":0.6333333333332973},{"name":"B4","midi":71,"time":232.76874999999646,"velocity":0.5275590551181102,"duration":0.15625},{"name":"D3","midi":50,"time":232.7708333333298,"velocity":0.5669291338582677,"duration":0.3125},{"name":"A4","midi":69,"time":232.93749999999645,"velocity":0.5275590551181102,"duration":0.15833333333333144},{"name":"E3","midi":52,"time":233.10624999999644,"velocity":0.5669291338582677,"duration":0.31458333333333144},{"name":"G4","midi":67,"time":233.10624999999644,"velocity":0.5669291338582677,"duration":0.15833333333333144},{"name":"A4","midi":69,"time":233.27499999999642,"velocity":0.5275590551181102,"duration":0.15625},{"name":"E5","midi":76,"time":233.4437499999964,"velocity":0.5275590551181102,"duration":0.15625},{"name":"B4","midi":71,"time":233.44583333332974,"velocity":0.5275590551181102,"duration":0.6333333333332973},{"name":"G2","midi":43,"time":233.44583333332974,"velocity":0.5669291338582677,"duration":0.31458333333333144},{"name":"D5","midi":74,"time":233.6124999999964,"velocity":0.5275590551181102,"duration":0.16041666666666288},{"name":"C#5","midi":73,"time":233.7812499999964,"velocity":0.5275590551181102,"duration":0.16041666666666288},{"name":"A2","midi":45,"time":233.78333333332972,"velocity":0.5669291338582677,"duration":0.3166666666666629},{"name":"D5","midi":74,"time":233.9520833333297,"velocity":0.5275590551181102,"duration":0.16041666666666288},{"name":"E5","midi":76,"time":234.12499999999636,"velocity":0.5275590551181102,"duration":0.6374999999999602},{"name":"A4","midi":69,"time":234.12499999999636,"velocity":0.5275590551181102,"duration":0.15625},{"name":"C#3","midi":49,"time":234.12499999999636,"velocity":0.5669291338582677,"duration":0.3166666666666629},{"name":"G4","midi":67,"time":234.29374999999635,"velocity":0.5669291338582677,"duration":0.15833333333333144},{"name":"D3","midi":50,"time":234.46458333332967,"velocity":0.5669291338582677,"duration":0.3166666666666629},{"name":"F#4","midi":66,"time":234.46458333332967,"velocity":0.5669291338582677,"duration":0.16041666666666288},{"name":"G4","midi":67,"time":234.63333333332966,"velocity":0.5669291338582677,"duration":0.16041666666666288},{"name":"A4","midi":69,"time":234.8062499999963,"velocity":0.5275590551181102,"duration":0.6395833333332916},{"name":"D5","midi":74,"time":234.8062499999963,"velocity":0.5275590551181102,"duration":0.15833333333333144},{"name":"F#2","midi":42,"time":234.80833333332964,"velocity":0.5669291338582677,"duration":0.3166666666666629},{"name":"C#5","midi":73,"time":234.9749999999963,"velocity":0.5275590551181102,"duration":0.15833333333333144},{"name":"B4","midi":71,"time":235.14583333332962,"velocity":0.5275590551181102,"duration":0.16041666666666288},{"name":"G2","midi":43,"time":235.14791666666295,"velocity":0.5669291338582677,"duration":0.3187499999999943},{"name":"C#5","midi":73,"time":235.31874999999627,"velocity":0.5275590551181102,"duration":0.15625},{"name":"D5","midi":74,"time":235.48749999999626,"velocity":0.5275590551181102,"duration":0.6395833333332916},{"name":"G4","midi":67,"time":235.4895833333296,"velocity":0.5669291338582677,"duration":0.15833333333333144},{"name":"B2","midi":47,"time":235.4895833333296,"velocity":0.5669291338582677,"duration":0.3166666666666629},{"name":"F#4","midi":66,"time":235.65833333332958,"velocity":0.5669291338582677,"duration":0.16041666666666288},{"name":"C#3","midi":49,"time":235.82708333332957,"velocity":0.5669291338582677,"duration":0.32083333333332575},{"name":"E4","midi":64,"time":235.8291666666629,"velocity":0.5669291338582677,"duration":0.15833333333333144},{"name":"F#4","midi":66,"time":235.99999999999622,"velocity":0.5669291338582677,"duration":0.15833333333333144},{"name":"C#5","midi":73,"time":236.17083333332954,"velocity":0.5275590551181102,"duration":0.15625},{"name":"G4","midi":67,"time":236.17083333332954,"velocity":0.5669291338582677,"duration":0.6333333333332973},{"name":"E2","midi":40,"time":236.17291666666287,"velocity":0.5669291338582677,"duration":0.3125},{"name":"B4","midi":71,"time":236.33958333332953,"velocity":0.5275590551181102,"duration":0.15625},{"name":"A#4","midi":70,"time":236.50833333332952,"velocity":0.5275590551181102,"duration":0.15833333333333144},{"name":"F#2","midi":42,"time":236.51041666666285,"velocity":0.5669291338582677,"duration":0.31458333333333144},{"name":"B4","midi":71,"time":236.6770833333295,"velocity":0.5275590551181102,"duration":0.15625},{"name":"C#5","midi":73,"time":236.84791666666283,"velocity":0.5275590551181102,"duration":0.6374999999999602},{"name":"F#4","midi":66,"time":236.84791666666283,"velocity":0.5669291338582677,"duration":0.15833333333333144},{"name":"A#2","midi":46,"time":236.84791666666283,"velocity":0.5669291338582677,"duration":0.3166666666666629},{"name":"E4","midi":64,"time":237.01666666666281,"velocity":0.5669291338582677,"duration":0.15833333333333144},{"name":"D4","midi":62,"time":237.18958333332947,"velocity":0.5669291338582677,"duration":0.15625},{"name":"B2","midi":47,"time":237.18958333332947,"velocity":0.5669291338582677,"duration":0.3166666666666629},{"name":"E4","midi":64,"time":237.35833333332945,"velocity":0.5669291338582677,"duration":0.15833333333333144},{"name":"B4","midi":71,"time":237.52916666666277,"velocity":0.5275590551181102,"duration":0.3229166666666572},{"name":"F#4","midi":66,"time":237.52916666666277,"velocity":0.5669291338582677,"duration":0.6500000000000057},{"name":"B3","midi":59,"time":237.5312499999961,"velocity":0.5669291338582677,"duration":0.3187499999999943},{"name":"D3","midi":50,"time":237.5312499999961,"velocity":0.5669291338582677,"duration":0.3187499999999943},{"name":"E3","midi":52,"time":237.87291666666277,"velocity":0.5669291338582677,"duration":0.3270833333333485},{"name":"G3","midi":55,"time":237.8749999999961,"velocity":0.5669291338582677,"duration":0.32500000000001705},{"name":"B5","midi":83,"time":238.2229166666628,"velocity":0.4330708661417323,"duration":0.645833333333286},{"name":"G3","midi":55,"time":238.22499999999613,"velocity":0.5669291338582677,"duration":0.3229166666666572},{"name":"E3","midi":52,"time":238.22499999999613,"velocity":0.5669291338582677,"duration":0.32499999999998863},{"name":"E4","midi":64,"time":238.22499999999613,"velocity":0.5669291338582677,"duration":0.15833333333333144},{"name":"D4","midi":62,"time":238.39791666666278,"velocity":0.5669291338582677,"duration":0.16041666666666288},{"name":"A3","midi":57,"time":238.57291666666276,"velocity":0.5669291338582677,"duration":0.3166666666666629},{"name":"C4","midi":60,"time":238.57291666666276,"velocity":0.5669291338582677,"duration":0.15833333333333144},{"name":"D4","midi":62,"time":238.74374999999608,"velocity":0.5669291338582677,"duration":0.15625},{"name":"A5","midi":81,"time":238.91041666666274,"velocity":0.4330708661417323,"duration":0.15833333333333144},{"name":"E4","midi":64,"time":238.91249999999607,"velocity":0.5669291338582677,"duration":0.6312499999999659},{"name":"C4","midi":60,"time":238.91249999999607,"velocity":0.5669291338582677,"duration":0.31458333333333144},{"name":"G5","midi":79,"time":239.07916666666273,"velocity":0.4330708661417323,"duration":0.16041666666666288},{"name":"F#5","midi":78,"time":239.24999999999605,"velocity":0.4330708661417323,"duration":0.15833333333333144},{"name":"D4","midi":62,"time":239.25208333332938,"velocity":0.5669291338582677,"duration":0.31041666666666856},{"name":"G5","midi":79,"time":239.41874999999604,"velocity":0.4330708661417323,"duration":0.15416666666666856},{"name":"A5","midi":81,"time":239.5854166666627,"velocity":0.4330708661417323,"duration":0.6416666666666231},{"name":"D4","midi":62,"time":239.5854166666627,"velocity":0.5669291338582677,"duration":0.16041666666666288},{"name":"F#3","midi":54,"time":239.58749999999603,"velocity":0.5669291338582677,"duration":0.3187499999999943},{"name":"C4","midi":60,"time":239.75624999999602,"velocity":0.5669291338582677,"duration":0.16041666666666288},{"name":"G3","midi":55,"time":239.92916666666267,"velocity":0.5669291338582677,"duration":0.3187499999999943},{"name":"B3","midi":59,"time":239.92916666666267,"velocity":0.5669291338582677,"duration":0.16041666666666288},{"name":"C4","midi":60,"time":240.099999999996,"velocity":0.5669291338582677,"duration":0.15833333333333144},{"name":"G5","midi":79,"time":240.2708333333293,"velocity":0.4330708661417323,"duration":0.15625},{"name":"B3","midi":59,"time":240.27291666666264,"velocity":0.5669291338582677,"duration":0.3125},{"name":"D4","midi":62,"time":240.27291666666264,"velocity":0.5669291338582677,"duration":0.627083333333303},{"name":"F#5","midi":78,"time":240.4395833333293,"velocity":0.4330708661417323,"duration":0.15625},{"name":"E5","midi":76,"time":240.60624999999595,"velocity":0.5275590551181102,"duration":0.15416666666666856},{"name":"C4","midi":60,"time":240.60833333332928,"velocity":0.5669291338582677,"duration":0.31041666666666856},{"name":"F#5","midi":78,"time":240.77083333332928,"velocity":0.4330708661417323,"duration":0.16041666666666288},{"name":"G5","midi":79,"time":240.9416666666626,"velocity":0.4330708661417323,"duration":0.6416666666666231},{"name":"C4","midi":60,"time":240.9416666666626,"velocity":0.5669291338582677,"duration":0.15833333333333144},{"name":"E3","midi":52,"time":240.94374999999593,"velocity":0.5669291338582677,"duration":0.3187499999999943},{"name":"B3","midi":59,"time":241.11249999999592,"velocity":0.5669291338582677,"duration":0.16249999999999432},{"name":"F#3","midi":54,"time":241.2874999999959,"velocity":0.5669291338582677,"duration":0.31458333333333144},{"name":"A3","midi":57,"time":241.2874999999959,"velocity":0.5669291338582677,"duration":0.15833333333333144},{"name":"B3","midi":59,"time":241.4562499999959,"velocity":0.5669291338582677,"duration":0.15625},{"name":"F#5","midi":78,"time":241.62499999999588,"velocity":0.4330708661417323,"duration":0.15833333333333144},{"name":"C4","midi":60,"time":241.6270833333292,"velocity":0.5669291338582677,"duration":0.6354166666666288},{"name":"A3","midi":57,"time":241.6270833333292,"velocity":0.5669291338582677,"duration":0.3166666666666629},{"name":"E5","midi":76,"time":241.7958333333292,"velocity":0.5275590551181102,"duration":0.15833333333333144},{"name":"D#5","midi":75,"time":241.96666666666252,"velocity":0.5275590551181102,"duration":0.15833333333333144},{"name":"B3","midi":59,"time":241.96666666666252,"velocity":0.5669291338582677,"duration":0.3166666666666629},{"name":"E5","midi":76,"time":242.1354166666625,"velocity":0.5275590551181102,"duration":0.16041666666666288},{"name":"F#5","midi":78,"time":242.30833333332916,"velocity":0.4330708661417323,"duration":0.6354166666666288},{"name":"B3","midi":59,"time":242.30833333332916,"velocity":0.5669291338582677,"duration":0.15625},{"name":"D#3","midi":51,"time":242.3104166666625,"velocity":0.5669291338582677,"duration":0.31458333333333144},{"name":"A3","midi":57,"time":242.47708333332915,"velocity":0.5669291338582677,"duration":0.15833333333333144},{"name":"G3","midi":55,"time":242.64791666666247,"velocity":0.5669291338582677,"duration":0.6354166666666288},{"name":"E3","midi":52,"time":242.6499999999958,"velocity":0.5669291338582677,"duration":0.6312499999999659},{"name":"E5","midi":76,"time":242.98541666666245,"velocity":0.5275590551181102,"duration":0.15625},{"name":"B3","midi":59,"time":242.98749999999578,"velocity":0.5669291338582677,"duration":0.3125},{"name":"D#5","midi":75,"time":243.15416666666243,"velocity":0.5275590551181102,"duration":0.15833333333333144},{"name":"E5","midi":76,"time":243.32499999999575,"velocity":0.5275590551181102,"duration":0.16041666666666288},{"name":"G3","midi":55,"time":243.32708333332909,"velocity":0.5669291338582677,"duration":0.32083333333332575},{"name":"F#5","midi":78,"time":243.4979166666624,"velocity":0.4330708661417323,"duration":0.16041666666666288},{"name":"G5","midi":79,"time":243.67083333332906,"velocity":0.4330708661417323,"duration":0.16041666666666288},{"name":"E4","midi":64,"time":243.67083333332906,"velocity":0.5669291338582677,"duration":0.15833333333333144},{"name":"E3","midi":52,"time":243.6729166666624,"velocity":0.5669291338582677,"duration":0.3166666666666629},{"name":"B5","midi":83,"time":243.84166666666238,"velocity":0.4330708661417323,"duration":0.16041666666666288},{"name":"D#4","midi":63,"time":243.8437499999957,"velocity":0.5669291338582677,"duration":0.15833333333333144},{"name":"A5","midi":81,"time":244.01458333332903,"velocity":0.4330708661417323,"duration":0.3187499999999943},{"name":"D#4","midi":63,"time":244.01458333332903,"velocity":0.5669291338582677,"duration":0.15833333333333144},{"name":"C4","midi":60,"time":244.01666666666236,"velocity":0.5669291338582677,"duration":0.31458333333333144},{"name":"E4","midi":64,"time":244.18333333332902,"velocity":0.5669291338582677,"duration":0.16041666666666288},{"name":"G5","midi":79,"time":244.35416666666234,"velocity":0.4330708661417323,"duration":0.3166666666666629},{"name":"F#4","midi":66,"time":244.35416666666234,"velocity":0.5669291338582677,"duration":0.15833333333333144},{"name":"B3","midi":59,"time":244.35624999999567,"velocity":0.5669291338582677,"duration":0.31458333333333144},{"name":"G4","midi":67,"time":244.52499999999566,"velocity":0.5669291338582677,"duration":0.15416666666666856},{"name":"F#5","midi":78,"time":244.69166666666231,"velocity":0.4330708661417323,"duration":0.645833333333286},{"name":"A4","midi":69,"time":244.69374999999565,"velocity":0.5275590551181102,"duration":0.15625},{"name":"E4","midi":64,"time":244.69374999999565,"velocity":0.5669291338582677,"duration":0.3166666666666629},{"name":"G4","midi":67,"time":244.86249999999563,"velocity":0.5669291338582677,"duration":0.15833333333333144},{"name":"A4","midi":69,"time":245.03124999999562,"velocity":0.5275590551181102,"duration":0.16249999999999432},{"name":"D#4","midi":63,"time":245.03333333332895,"velocity":0.5669291338582677,"duration":0.32499999999998863},{"name":"B4","midi":71,"time":245.2062499999956,"velocity":0.5275590551181102,"duration":0.16249999999999432},{"name":"E5","midi":76,"time":245.37916666666226,"velocity":0.5275590551181102,"duration":0.6479166666666458},{"name":"C5","midi":72,"time":245.3812499999956,"velocity":0.5275590551181102,"duration":0.16041666666666288},{"name":"A3","midi":57,"time":245.3812499999956,"velocity":0.5669291338582677,"duration":0.32083333333332575},{"name":"A4","midi":69,"time":245.55416666666224,"velocity":0.5275590551181102,"duration":0.16041666666666288},{"name":"B4","midi":71,"time":245.72499999999556,"velocity":0.5275590551181102,"duration":0.48541666666667993},{"name":"G#3","midi":56,"time":245.7270833333289,"velocity":0.5669291338582677,"duration":0.3208333333333542},{"name":"D5","midi":74,"time":246.07083333332892,"velocity":0.5275590551181102,"duration":0.6395833333332916},{"name":"F4","midi":65,"time":246.07083333332892,"velocity":0.5669291338582677,"duration":0.3166666666666629},{"name":"A4","midi":69,"time":246.24166666666224,"velocity":0.5275590551181102,"duration":0.15833333333333144},{"name":"G#4","midi":68,"time":246.41249999999556,"velocity":0.5275590551181102,"duration":0.15833333333333144},{"name":"E4","midi":64,"time":246.41249999999556,"velocity":0.5669291338582677,"duration":0.3166666666666629},{"name":"F#4","midi":66,"time":246.58333333332888,"velocity":0.5669291338582677,"duration":0.15625},{"name":"C#5","midi":73,"time":246.75208333332887,"velocity":0.5275590551181102,"duration":0.6312499999999659},{"name":"B3","midi":59,"time":246.7541666666622,"velocity":0.5669291338582677,"duration":0.3125},{"name":"E4","midi":64,"time":246.7541666666622,"velocity":0.5669291338582677,"duration":0.15625},{"name":"G4","midi":67,"time":246.92083333332886,"velocity":0.5669291338582677,"duration":0.15625},{"name":"A#3","midi":58,"time":247.09166666666218,"velocity":0.5669291338582677,"duration":0.3125},{"name":"F#4","midi":66,"time":247.09166666666218,"velocity":0.5669291338582677,"duration":0.15416666666666856},{"name":"A#4","midi":70,"time":247.25833333332884,"velocity":0.5275590551181102,"duration":0.15833333333333144},{"name":"B4","midi":71,"time":247.42708333332882,"velocity":0.5275590551181102,"duration":0.9645833333332519},{"name":"G4","midi":67,"time":247.42708333332882,"velocity":0.5669291338582677,"duration":0.3166666666666629},{"name":"C#5","midi":73,"time":247.59791666666214,"velocity":0.5275590551181102,"duration":0.15833333333333144},{"name":"D5","midi":74,"time":247.76874999999546,"velocity":0.5275590551181102,"duration":0.16249999999999432},{"name":"F#4","midi":66,"time":247.7708333333288,"velocity":0.5669291338582677,"duration":0.3229166666666572},{"name":"E5","midi":76,"time":247.94374999999545,"velocity":0.5275590551181102,"duration":0.16041666666666288},{"name":"D5","midi":74,"time":248.1166666666621,"velocity":0.5275590551181102,"duration":0.15625},{"name":"F4","midi":65,"time":248.11874999999543,"velocity":0.5669291338582677,"duration":0.3124999999999716},{"name":"C#5","midi":73,"time":248.2854166666621,"velocity":0.5275590551181102,"duration":0.47291666666663446},{"name":"B4","midi":71,"time":248.45208333332874,"velocity":0.5275590551181102,"duration":0.15833333333333144},{"name":"F#4","midi":66,"time":248.45416666666208,"velocity":0.5669291338582677,"duration":0.3124999999999716},{"name":"A#4","midi":70,"time":248.62291666666206,"velocity":0.5275590551181102,"duration":0.15624999999997158},{"name":"B4","midi":71,"time":248.7895833333287,"velocity":0.5275590551181102,"duration":0.7770833333333087},{"name":"D4","midi":62,"time":248.7895833333287,"velocity":0.5669291338582677,"duration":0.31041666666666856},{"name":"A4","midi":69,"time":248.95624999999535,"velocity":0.5275590551181102,"duration":0.15416666666666856},{"name":"B3","midi":59,"time":249.12083333332868,"velocity":0.5669291338582677,"duration":0.31041666666666856},{"name":"G4","midi":67,"time":249.122916666662,"velocity":0.5669291338582677,"duration":0.15416666666666856},{"name":"F#4","midi":66,"time":249.28749999999533,"velocity":0.5669291338582677,"duration":0.15416666666666856},{"name":"C#4","midi":61,"time":249.45208333332866,"velocity":0.5669291338582677,"duration":1.252083333333303},{"name":"E4","midi":64,"time":249.454166666662,"velocity":0.5669291338582677,"duration":1.2479166666666401},{"name":"C#5","midi":73,"time":249.616666666662,"velocity":0.5275590551181102,"duration":0.15625},{"name":"D5","midi":74,"time":249.785416666662,"velocity":0.5275590551181102,"duration":0.15625},{"name":"E5","midi":76,"time":249.94999999999533,"velocity":0.5275590551181102,"duration":0.15625},{"name":"F#5","midi":78,"time":250.11666666666198,"velocity":0.4330708661417323,"duration":0.15625},{"name":"G5","midi":79,"time":250.28541666666197,"velocity":0.4330708661417323,"duration":0.15416666666666856},{"name":"B4","midi":71,"time":250.4499999999953,"velocity":0.5275590551181102,"duration":0.15625},{"name":"A#4","midi":70,"time":250.61666666666196,"velocity":0.5275590551181102,"duration":0.15625},{"name":"D5","midi":74,"time":250.78541666666194,"velocity":0.5275590551181102,"duration":1.2437499999999488},{"name":"B3","midi":59,"time":250.78541666666194,"velocity":0.5669291338582677,"duration":1.2437499999999488},{"name":"F#4","midi":66,"time":250.94999999999527,"velocity":0.5669291338582677,"duration":0.15625},{"name":"G#4","midi":68,"time":251.11666666666193,"velocity":0.5275590551181102,"duration":0.15208333333333712},{"name":"A#4","midi":70,"time":251.28124999999525,"velocity":0.5275590551181102,"duration":0.15208333333333712},{"name":"B4","midi":71,"time":251.44583333332858,"velocity":0.5275590551181102,"duration":0.15416666666666856},{"name":"C#5","midi":73,"time":251.61458333332857,"velocity":0.5275590551181102,"duration":0.15625},{"name":"F#4","midi":66,"time":251.78124999999523,"velocity":0.5669291338582677,"duration":0.15208333333333712},{"name":"F4","midi":65,"time":251.94583333332855,"velocity":0.5669291338582677,"duration":0.15000000000000568},{"name":"A4","midi":69,"time":252.10833333332855,"velocity":0.5275590551181102,"duration":1.258333333333269},{"name":"C#5","midi":73,"time":252.10833333332855,"velocity":0.5275590551181102,"duration":0.9354166666666117},{"name":"C#4","midi":61,"time":252.27291666666187,"velocity":0.5669291338582677,"duration":0.15625},{"name":"D#4","midi":63,"time":252.43958333332853,"velocity":0.5669291338582677,"duration":0.15625},{"name":"F4","midi":65,"time":252.60833333332852,"velocity":0.5669291338582677,"duration":0.15208333333333712},{"name":"F#4","midi":66,"time":252.7708333333285,"velocity":0.5669291338582677,"duration":0.15416666666666856},{"name":"G#4","midi":68,"time":252.93749999999517,"velocity":0.5275590551181102,"duration":0.15833333333333144},{"name":"D#5","midi":75,"time":253.1083333333285,"velocity":0.5275590551181102,"duration":0.3166666666666629},{"name":"C#4","midi":61,"time":253.1083333333285,"velocity":0.5669291338582677,"duration":0.15833333333333144},{"name":"C4","midi":60,"time":253.27708333332848,"velocity":0.5669291338582677,"duration":0.15833333333333144},{"name":"F5","midi":77,"time":253.4479166666618,"velocity":0.4330708661417323,"duration":0.627083333333303},{"name":"G#4","midi":68,"time":253.44999999999513,"velocity":0.5275590551181102,"duration":0.3125},{"name":"C#4","midi":61,"time":253.44999999999513,"velocity":0.5669291338582677,"duration":0.15625},{"name":"B3","midi":59,"time":253.61666666666179,"velocity":0.5669291338582677,"duration":0.15833333333333144},{"name":"C#5","midi":73,"time":253.78541666666177,"velocity":0.5275590551181102,"duration":0.31041666666666856},{"name":"A3","midi":57,"time":253.7874999999951,"velocity":0.5669291338582677,"duration":0.15416666666666856},{"name":"G#3","midi":56,"time":253.95416666666176,"velocity":0.5669291338582677,"duration":0.15208333333333712},{"name":"A4","midi":69,"time":254.1187499999951,"velocity":0.5275590551181102,"duration":0.3062500000000057},{"name":"F#3","midi":54,"time":254.1187499999951,"velocity":0.5669291338582677,"duration":0.15416666666666856},{"name":"G#3","midi":56,"time":254.28124999999508,"velocity":0.5669291338582677,"duration":0.15416666666666856},{"name":"F#5","midi":78,"time":254.44791666666174,"velocity":0.4330708661417323,"duration":0.470833333333303},{"name":"A3","midi":57,"time":254.44999999999507,"velocity":0.5669291338582677,"duration":0.15208333333333712},{"name":"F#4","midi":66,"time":254.44999999999507,"velocity":0.5669291338582677,"duration":0.3083333333333371},{"name":"C#4","midi":61,"time":254.6145833333284,"velocity":0.5669291338582677,"duration":0.15625},{"name":"D5","midi":74,"time":254.78124999999505,"velocity":0.5275590551181102,"duration":0.31458333333333144},{"name":"B3","midi":59,"time":254.78124999999505,"velocity":0.5669291338582677,"duration":0.15625},{"name":"F5","midi":77,"time":254.9479166666617,"velocity":0.4330708661417323,"duration":0.16041666666666288},{"name":"G#3","midi":56,"time":254.94999999999504,"velocity":0.5669291338582677,"duration":0.15833333333333144},{"name":"F#5","midi":78,"time":255.11874999999503,"velocity":0.4330708661417323,"duration":0.16041666666666288},{"name":"C#5","midi":73,"time":255.11874999999503,"velocity":0.5275590551181102,"duration":0.3187499999999943},{"name":"A3","midi":57,"time":255.12083333332836,"velocity":0.5669291338582677,"duration":0.15625},{"name":"A5","midi":81,"time":255.28958333332835,"velocity":0.4330708661417323,"duration":0.16041666666666288},{"name":"C#4","midi":61,"time":255.29166666666168,"velocity":0.5669291338582677,"duration":0.15625},{"name":"G#5","midi":80,"time":255.46041666666167,"velocity":0.4330708661417323,"duration":0.6374999999999318},{"name":"F#5","midi":78,"time":255.46041666666167,"velocity":0.4330708661417323,"duration":0.3166666666666629},{"name":"D4","midi":62,"time":255.462499999995,"velocity":0.5669291338582677,"duration":0.15833333333333144},{"name":"B3","midi":59,"time":255.62916666666166,"velocity":0.5669291338582677,"duration":0.16041666666666288},{"name":"F5","midi":77,"time":255.79999999999498,"velocity":0.4330708661417323,"duration":0.31874999999993747},{"name":"C#4","midi":61,"time":255.79999999999498,"velocity":0.5669291338582677,"duration":0.16041666666666288},{"name":"F4","midi":65,"time":255.97291666666163,"velocity":0.5669291338582677,"duration":0.15416666666661172},{"name":"B4","midi":71,"time":256.1416666666616,"velocity":0.5275590551181102,"duration":0.30624999999997726},{"name":"F#4","midi":66,"time":256.1416666666616,"velocity":0.5669291338582677,"duration":0.15208333333333712},{"name":"E4","midi":64,"time":256.3062499999949,"velocity":0.5669291338582677,"duration":0.15416666666664014},{"name":"F#5","midi":78,"time":256.47083333332824,"velocity":0.4330708661417323,"duration":0.3145833333334167},{"name":"A#4","midi":70,"time":256.4729166666616,"velocity":0.5275590551181102,"duration":0.310416666666697},{"name":"D4","midi":62,"time":256.4729166666616,"velocity":0.5669291338582677,"duration":0.15208333333333712},{"name":"C#4","midi":61,"time":256.6395833333283,"velocity":0.5669291338582677,"duration":0.15416666666669698},{"name":"D5","midi":74,"time":256.806249999995,"velocity":0.5275590551181102,"duration":0.31458333333335986},{"name":"B3","midi":59,"time":256.80833333332833,"velocity":0.5669291338582677,"duration":0.15625},{"name":"C#4","midi":61,"time":256.974999999995,"velocity":0.5669291338582677,"duration":0.15625},{"name":"B4","midi":71,"time":257.143749999995,"velocity":0.5275590551181102,"duration":0.466666666666697},{"name":"D4","midi":62,"time":257.143749999995,"velocity":0.5669291338582677,"duration":0.15208333333333712},{"name":"F#4","midi":66,"time":257.30833333332833,"velocity":0.5669291338582677,"duration":0.15416666666664014},{"name":"G5","midi":79,"time":257.47291666666166,"velocity":0.4330708661417323,"duration":0.310416666666697},{"name":"E4","midi":64,"time":257.474999999995,"velocity":0.5669291338582677,"duration":0.15416666666669698},{"name":"A4","midi":69,"time":257.6416666666617,"velocity":0.5275590551181102,"duration":0.15416666666669698},{"name":"C#4","midi":61,"time":257.6416666666617,"velocity":0.5669291338582677,"duration":0.15208333333333712},{"name":"F#5","midi":78,"time":257.8062499999951,"velocity":0.4330708661417323,"duration":0.30833333333339397},{"name":"B4","midi":71,"time":257.80833333332845,"velocity":0.5275590551181102,"duration":0.15416666666669698},{"name":"D4","midi":62,"time":257.80833333332845,"velocity":0.5669291338582677,"duration":0.15208333333333712},{"name":"D5","midi":74,"time":257.97083333332847,"velocity":0.5275590551181102,"duration":0.15416666666669698},{"name":"F#4","midi":66,"time":257.97291666666183,"velocity":0.5669291338582677,"duration":0.15208333333333712},{"name":"C#5","midi":73,"time":258.13749999999516,"velocity":0.5275590551181102,"duration":0.9375000000001137},{"name":"B5","midi":83,"time":258.13749999999516,"velocity":0.4330708661417323,"duration":0.3125},{"name":"G4","midi":67,"time":258.1395833333285,"velocity":0.5669291338582677,"duration":0.15416666666664014},{"name":"E4","midi":64,"time":258.30416666666184,"velocity":0.5669291338582677,"duration":0.15833333333330302},{"name":"A#5","midi":82,"time":258.47291666666183,"velocity":0.4330708661417323,"duration":0.3125},{"name":"F#4","midi":66,"time":258.4749999999952,"velocity":0.5669291338582677,"duration":0.15416666666664014},{"name":"A#4","midi":70,"time":258.6395833333285,"velocity":0.5275590551181102,"duration":0.15625},{"name":"E5","midi":76,"time":258.8062499999952,"velocity":0.5275590551181102,"duration":0.30833333333339397},{"name":"B4","midi":71,"time":258.80833333332856,"velocity":0.5275590551181102,"duration":0.15208333333333712},{"name":"A4","midi":69,"time":258.9708333333286,"velocity":0.5275590551181102,"duration":0.15416666666669698},{"name":"D#5","midi":75,"time":259.13749999999527,"velocity":0.5275590551181102,"duration":0.310416666666697},{"name":"B4","midi":71,"time":259.13749999999527,"velocity":0.5275590551181102,"duration":0.310416666666697},{"name":"G4","midi":67,"time":259.13958333332863,"velocity":0.5669291338582677,"duration":0.15208333333333712},{"name":"F#4","midi":66,"time":259.2999999999953,"velocity":0.5669291338582677,"duration":0.15833333333335986},{"name":"G5","midi":79,"time":259.47083333332864,"velocity":0.4330708661417323,"duration":0.7895833333333258},{"name":"E5","midi":76,"time":259.472916666662,"velocity":0.5275590551181102,"duration":0.31249999999994316},{"name":"E4","midi":64,"time":259.472916666662,"velocity":0.5669291338582677,"duration":0.15416666666664014},{"name":"D4","midi":62,"time":259.63958333332863,"velocity":0.5669291338582677,"duration":0.15833333333330302},{"name":"A#4","midi":70,"time":259.80624999999526,"velocity":0.5275590551181102,"duration":0.31458333333335986},{"name":"E4","midi":64,"time":259.8083333333286,"velocity":0.5669291338582677,"duration":0.15625},{"name":"C#4","midi":61,"time":259.9770833333286,"velocity":0.5669291338582677,"duration":0.15625},{"name":"B4","midi":71,"time":260.1437499999953,"velocity":0.5275590551181102,"duration":1.3854166666666856},{"name":"D4","midi":62,"time":260.1437499999953,"velocity":0.5669291338582677,"duration":1.5416666666666856},{"name":"F#5","midi":78,"time":260.310416666662,"velocity":0.4330708661417323,"duration":0.15416666666664014},{"name":"G#5","midi":80,"time":260.4749999999953,"velocity":0.4330708661417323,"duration":0.15208333333333712},{"name":"A#5","midi":82,"time":260.63958333332863,"velocity":0.4330708661417323,"duration":0.15208333333333712},{"name":"B5","midi":83,"time":260.80208333332865,"velocity":0.4330708661417323,"duration":0.14999999999997726},{"name":"G5","midi":79,"time":260.966666666662,"velocity":0.4330708661417323,"duration":0.14999999999997726},{"name":"F#5","midi":78,"time":261.12708333332864,"velocity":0.4330708661417323,"duration":0.15416666666664014},{"name":"F5","midi":77,"time":261.29166666666197,"velocity":0.4330708661417323,"duration":0.15208333333333712},{"name":"F#5","midi":78,"time":261.454166666662,"velocity":0.4330708661417323,"duration":0.6187499999999773},{"name":"A#4","midi":70,"time":261.6208333333286,"velocity":0.5275590551181102,"duration":0.15208333333333712},{"name":"B4","midi":71,"time":261.78541666666194,"velocity":0.5275590551181102,"duration":0.15416666666669698},{"name":"C#4","midi":61,"time":261.7874999999953,"velocity":0.5669291338582677,"duration":0.30624999999997726},{"name":"C#5","midi":73,"time":261.9499999999953,"velocity":0.5275590551181102,"duration":0.15208333333328028},{"name":"F5","midi":77,"time":262.11666666666196,"velocity":0.4330708661417323,"duration":0.7729166666667311},{"name":"D5","midi":74,"time":262.11666666666196,"velocity":0.5275590551181102,"duration":0.15208333333333712},{"name":"B3","midi":59,"time":262.1187499999953,"velocity":0.5669291338582677,"duration":0.3020833333333144},{"name":"E5","midi":76,"time":262.279166666662,"velocity":0.5275590551181102,"duration":0.15416666666664014},{"name":"A4","midi":69,"time":262.4437499999953,"velocity":0.5275590551181102,"duration":0.15416666666669698},{"name":"D4","midi":62,"time":262.44583333332866,"velocity":0.5669291338582677,"duration":0.30416666666667425},{"name":"G#4","midi":68,"time":262.610416666662,"velocity":0.5275590551181102,"duration":0.15416666666669698},{"name":"A4","midi":69,"time":262.7749999999954,"velocity":0.5275590551181102,"duration":1.5479166666665378},{"name":"C4","midi":60,"time":262.7749999999954,"velocity":0.5669291338582677,"duration":1.5479166666665378},{"name":"E5","midi":76,"time":262.9395833333287,"velocity":0.5275590551181102,"duration":0.15416666666664014},{"name":"F#5","midi":78,"time":263.104166666662,"velocity":0.4330708661417323,"duration":0.15416666666664014},{"name":"G#5","midi":80,"time":263.27083333332865,"velocity":0.4330708661417323,"duration":0.15208333333333712},{"name":"A5","midi":81,"time":263.4333333333287,"velocity":0.4330708661417323,"duration":0.15416666666664014},{"name":"B5","midi":83,"time":263.597916666662,"velocity":0.4330708661417323,"duration":0.15416666666664014},{"name":"E5","midi":76,"time":263.76458333332863,"velocity":0.5275590551181102,"duration":0.15416666666664014},{"name":"D#5","midi":75,"time":263.9270833333286,"velocity":0.5275590551181102,"duration":0.15416666666664014},{"name":"E5","midi":76,"time":264.0937499999952,"velocity":0.5275590551181102,"duration":0.15208333333333712},{"name":"F#4","midi":66,"time":264.25624999999525,"velocity":0.5669291338582677,"duration":0.15208333333333712},{"name":"G4","midi":67,"time":264.4208333333286,"velocity":0.5669291338582677,"duration":0.30833333333339397},{"name":"E3","midi":52,"time":264.4208333333286,"velocity":0.5669291338582677,"duration":0.30833333333339397},{"name":"B3","midi":59,"time":264.42291666666193,"velocity":0.5669291338582677,"duration":0.30416666666667425},{"name":"A4","midi":69,"time":264.5833333333286,"velocity":0.5275590551181102,"duration":0.15625000000005684},{"name":"B4","midi":71,"time":264.74999999999534,"velocity":0.5275590551181102,"duration":0.15833333333335986},{"name":"F#4","midi":66,"time":264.74999999999534,"velocity":0.5669291338582677,"duration":0.6312500000000796},{"name":"D3","midi":50,"time":264.7520833333287,"velocity":0.5669291338582677,"duration":0.3125},{"name":"C#5","midi":73,"time":264.9187499999954,"velocity":0.5275590551181102,"duration":0.15625},{"name":"D5","midi":74,"time":265.08541666666207,"velocity":0.5275590551181102,"duration":0.15833333333335986},{"name":"B3","midi":59,"time":265.08749999999543,"velocity":0.5669291338582677,"duration":0.4749999999999659},{"name":"B2","midi":47,"time":265.08749999999543,"velocity":0.5669291338582677,"duration":0.314583333333303},{"name":"F#5","midi":78,"time":265.2562499999954,"velocity":0.4330708661417323,"duration":0.15625},{"name":"E5","midi":76,"time":265.4249999999954,"velocity":0.5275590551181102,"duration":0.15416666666664014},{"name":"G3","midi":55,"time":265.4249999999954,"velocity":0.5669291338582677,"duration":0.31041666666664014},{"name":"C#5","midi":73,"time":265.59166666666204,"velocity":0.5275590551181102,"duration":0.15833333333335986},{"name":"A#3","midi":58,"time":265.5937499999954,"velocity":0.5669291338582677,"duration":0.15416666666664014},{"name":"D5","midi":74,"time":265.7583333333287,"velocity":0.5275590551181102,"duration":0.15625},{"name":"B3","midi":59,"time":265.7583333333287,"velocity":0.5669291338582677,"duration":0.15625},{"name":"F#3","midi":54,"time":265.7604166666621,"velocity":0.5669291338582677,"duration":0.31041666666664014},{"name":"F#5","midi":78,"time":265.9270833333287,"velocity":0.4330708661417323,"duration":0.15416666666669698},{"name":"D4","midi":62,"time":265.9270833333287,"velocity":0.5669291338582677,"duration":0.15208333333333712},{"name":"G5","midi":79,"time":266.0937499999954,"velocity":0.4330708661417323,"duration":0.15416666666664014},{"name":"C#4","midi":61,"time":266.0937499999954,"velocity":0.5669291338582677,"duration":0.625},{"name":"B3","midi":59,"time":266.0937499999954,"velocity":0.5669291338582677,"duration":0.3083333333333371},{"name":"E5","midi":76,"time":266.2583333333287,"velocity":0.5275590551181102,"duration":0.15625},{"name":"F#5","midi":78,"time":266.4270833333287,"velocity":0.4330708661417323,"duration":0.15208333333333712},{"name":"A#3","midi":58,"time":266.4270833333287,"velocity":0.5669291338582677,"duration":0.310416666666697},{"name":"A#5","midi":82,"time":266.59166666666204,"velocity":0.4330708661417323,"duration":0.15625000000005684},{"name":"B5","midi":83,"time":266.7604166666621,"velocity":0.4330708661417323,"duration":0.6333333333333826},{"name":"E3","midi":52,"time":266.76249999999544,"velocity":0.5669291338582677,"duration":0.3125},{"name":"F#3","midi":54,"time":266.76249999999544,"velocity":0.5669291338582677,"duration":0.6312500000000227},{"name":"F#5","midi":78,"time":266.9291666666621,"velocity":0.4330708661417323,"duration":0.15833333333330302},{"name":"A5","midi":81,"time":267.0979166666621,"velocity":0.4330708661417323,"duration":0.15625},{"name":"D#3","midi":51,"time":267.0979166666621,"velocity":0.5669291338582677,"duration":0.31458333333335986},{"name":"G5","midi":79,"time":267.2666666666621,"velocity":0.4330708661417323,"duration":0.15625000000005684},{"name":"A5","midi":81,"time":267.43541666666215,"velocity":0.4094488188976378,"duration":0.6291666666667766},{"name":"F#5","midi":78,"time":267.43541666666215,"velocity":0.4094488188976378,"duration":0.15833333333335986},{"name":"C4","midi":60,"time":267.4374999999955,"velocity":0.5669291338582677,"duration":0.3125},{"name":"E5","midi":76,"time":267.60208333332884,"velocity":0.5039370078740157,"duration":0.15833333333335986},{"name":"D#5","midi":75,"time":267.7708333333289,"velocity":0.5039370078740157,"duration":0.15833333333335986},{"name":"B3","midi":59,"time":267.77291666666224,"velocity":0.5669291338582677,"duration":0.310416666666697},{"name":"C#5","midi":73,"time":267.9395833333289,"velocity":0.5275590551181102,"duration":0.15625},{"name":"G#5","midi":80,"time":268.10416666666225,"velocity":0.4094488188976378,"duration":0.6312500000000227},{"name":"B4","midi":71,"time":268.1062499999956,"velocity":0.5275590551181102,"duration":0.15416666666664014},{"name":"F#3","midi":54,"time":268.1062499999956,"velocity":0.5669291338582677,"duration":0.31249999999994316},{"name":"D5","midi":74,"time":268.27291666666224,"velocity":0.5039370078740157,"duration":0.15625},{"name":"C#5","midi":73,"time":268.44166666666223,"velocity":0.5275590551181102,"duration":0.15625},{"name":"F3","midi":53,"time":268.44166666666223,"velocity":0.5669291338582677,"duration":0.31250000000005684},{"name":"B4","midi":71,"time":268.6083333333289,"velocity":0.5275590551181102,"duration":0.15625000000005684},{"name":"F#5","midi":78,"time":268.77708333332896,"velocity":0.4094488188976378,"duration":0.7937500000001023},{"name":"A4","midi":69,"time":268.77708333332896,"velocity":0.5275590551181102,"duration":0.15833333333335986},{"name":"D4","midi":62,"time":268.7791666666623,"velocity":0.5669291338582677,"duration":0.3166666666666629},{"name":"G#4","midi":68,"time":268.9479166666623,"velocity":0.5275590551181102,"duration":0.15833333333335986},{"name":"A4","midi":69,"time":269.11874999999566,"velocity":0.5275590551181102,"duration":0.15833333333335986},{"name":"C#4","midi":61,"time":269.120833333329,"velocity":0.5669291338582677,"duration":0.3125},{"name":"F#4","midi":66,"time":269.2874999999957,"velocity":0.5669291338582677,"duration":0.15833333333330302},{"name":"G#4","midi":68,"time":269.4562499999957,"velocity":0.5275590551181102,"duration":0.6124999999999545},{"name":"C4","midi":60,"time":269.45833333332905,"velocity":0.5669291338582677,"duration":0.3020833333333144},{"name":"F5","midi":77,"time":269.6187499999957,"velocity":0.4094488188976378,"duration":0.15208333333333712},{"name":"F#5","midi":78,"time":269.78333333332904,"velocity":0.4094488188976378,"duration":0.14999999999997726},{"name":"C#4","midi":61,"time":269.78333333332904,"velocity":0.5669291338582677,"duration":0.3041666666666174},{"name":"F5","midi":77,"time":269.945833333329,"velocity":0.4094488188976378,"duration":0.15416666666664014},{"name":"F#5","midi":78,"time":270.11041666666233,"velocity":0.4094488188976378,"duration":0.7625000000000455},{"name":"A3","midi":57,"time":270.11041666666233,"velocity":0.5669291338582677,"duration":0.30000000000001137},{"name":"E5","midi":76,"time":270.270833333329,"velocity":0.5039370078740157,"duration":0.1500000000000341},{"name":"D5","midi":74,"time":270.4312499999957,"velocity":0.5039370078740157,"duration":0.15416666666664014},{"name":"F#3","midi":54,"time":270.4312499999957,"velocity":0.5669291338582677,"duration":0.30624999999997726},{"name":"C#5","midi":73,"time":270.59583333332904,"velocity":0.5275590551181102,"duration":0.15208333333333712},{"name":"B4","midi":71,"time":270.76041666666237,"velocity":0.5275590551181102,"duration":0.1500000000000341},{"name":"G#3","midi":56,"time":270.76041666666237,"velocity":0.5669291338582677,"duration":1.224999999999966},{"name":"A4","midi":69,"time":270.9229166666624,"velocity":0.5275590551181102,"duration":0.14999999999997726},{"name":"B4","midi":71,"time":271.08541666666235,"velocity":0.5275590551181102,"duration":0.15208333333333712},{"name":"G#4","midi":68,"time":271.0874999999957,"velocity":0.5275590551181102,"duration":0.14999999999997726},{"name":"C#5","midi":73,"time":271.2479166666624,"velocity":0.5275590551181102,"duration":0.14999999999997726},{"name":"A4","midi":69,"time":271.2479166666624,"velocity":0.5275590551181102,"duration":0.14999999999997726},{"name":"B4","midi":71,"time":271.41041666666234,"velocity":0.5275590551181102,"duration":0.9229166666666515},{"name":"D5","midi":74,"time":271.41041666666234,"velocity":0.5275590551181102,"duration":0.14791666666667425},{"name":"E5","midi":76,"time":271.570833333329,"velocity":0.5275590551181102,"duration":0.14999999999997726},{"name":"F#4","midi":66,"time":271.73333333332897,"velocity":0.5669291338582677,"duration":0.15625},{"name":"F4","midi":65,"time":271.89999999999566,"velocity":0.5669291338582677,"duration":0.15208333333333712},{"name":"F#4","midi":66,"time":272.06666666666234,"velocity":0.5669291338582677,"duration":0.30624999999997726},{"name":"F#3","midi":54,"time":272.06666666666234,"velocity":0.5669291338582677,"duration":0.15208333333333712},{"name":"E3","midi":52,"time":272.227083333329,"velocity":0.5669291338582677,"duration":0.15416666666664014},{"name":"F#5","midi":78,"time":272.39374999999563,"velocity":0.4330708661417323,"duration":0.3125},{"name":"A#4","midi":70,"time":272.395833333329,"velocity":0.5275590551181102,"duration":0.31041666666664014},{"name":"D3","midi":50,"time":272.395833333329,"velocity":0.5669291338582677,"duration":0.15208333333333712},{"name":"C#3","midi":49,"time":272.5604166666623,"velocity":0.5669291338582677,"duration":0.15625},{"name":"D5","midi":74,"time":272.727083333329,"velocity":0.5275590551181102,"duration":0.3187500000000796},{"name":"B2","midi":47,"time":272.72916666666237,"velocity":0.5669291338582677,"duration":0.15833333333335986},{"name":"C#3","midi":49,"time":272.8979166666624,"velocity":0.5669291338582677,"duration":0.16041666666666288},{"name":"B4","midi":71,"time":273.06874999999576,"velocity":0.5275590551181102,"duration":0.4770833333333826},{"name":"D3","midi":50,"time":273.06874999999576,"velocity":0.5669291338582677,"duration":0.15833333333335986},{"name":"F#3","midi":54,"time":273.2395833333291,"velocity":0.5669291338582677,"duration":0.15833333333335986},{"name":"G5","midi":79,"time":273.40833333332915,"velocity":0.4330708661417323,"duration":0.3166666666666629},{"name":"E3","midi":52,"time":273.40833333332915,"velocity":0.5669291338582677,"duration":0.15833333333330302},{"name":"A#4","midi":70,"time":273.57708333332914,"velocity":0.5275590551181102,"duration":0.15833333333335986},{"name":"C#3","midi":49,"time":273.5791666666625,"velocity":0.5669291338582677,"duration":0.15416666666664014},{"name":"F#5","midi":78,"time":273.7458333333292,"velocity":0.4330708661417323,"duration":0.31458333333335986},{"name":"B4","midi":71,"time":273.74791666666255,"velocity":0.5275590551181102,"duration":0.15625},{"name":"D3","midi":50,"time":273.74791666666255,"velocity":0.5669291338582677,"duration":0.15625},{"name":"D5","midi":74,"time":273.91458333332923,"velocity":0.5275590551181102,"duration":0.15833333333330302},{"name":"F#3","midi":54,"time":273.91458333332923,"velocity":0.5669291338582677,"duration":0.15833333333330302},{"name":"B5","midi":83,"time":274.08124999999586,"velocity":0.4330708661417323,"duration":0.31250000000005684},{"name":"C#5","midi":73,"time":274.0833333333292,"velocity":0.5275590551181102,"duration":0.6291666666667197},{"name":"G3","midi":55,"time":274.0833333333292,"velocity":0.5669291338582677,"duration":0.15625},{"name":"E3","midi":52,"time":274.2499999999959,"velocity":0.5669291338582677,"duration":0.15625},{"name":"A#5","midi":82,"time":274.4166666666626,"velocity":0.4330708661417323,"duration":0.3125},{"name":"F#3","midi":54,"time":274.4166666666626,"velocity":0.5669291338582677,"duration":0.15833333333335986},{"name":"A#3","midi":58,"time":274.5833333333293,"velocity":0.5669291338582677,"duration":0.15833333333330302},{"name":"E5","midi":76,"time":274.75416666666257,"velocity":0.5275590551181102,"duration":0.31458333333335986},{"name":"B3","midi":59,"time":274.75416666666257,"velocity":0.5669291338582677,"duration":0.15625},{"name":"A3","midi":57,"time":274.92083333332926,"velocity":0.5669291338582677,"duration":0.15833333333335986},{"name":"D#5","midi":75,"time":275.0895833333293,"velocity":0.5275590551181102,"duration":0.3166666666666629},{"name":"B4","midi":71,"time":275.09166666666266,"velocity":0.5275590551181102,"duration":0.314583333333303},{"name":"G3","midi":55,"time":275.09166666666266,"velocity":0.5669291338582677,"duration":0.15625},{"name":"F#3","midi":54,"time":275.26041666666265,"velocity":0.5669291338582677,"duration":0.15625},{"name":"E3","midi":52,"time":275.42708333332934,"velocity":0.5669291338582677,"duration":0.15625},{"name":"G4","midi":67,"time":275.4291666666627,"velocity":0.5669291338582677,"duration":0.31041666666664014},{"name":"F#3","midi":54,"time":275.5958333333293,"velocity":0.5669291338582677,"duration":0.15416666666669698},{"name":"E5","midi":76,"time":275.762499999996,"velocity":0.5275590551181102,"duration":0.46458333333339397},{"name":"E4","midi":64,"time":275.762499999996,"velocity":0.5669291338582677,"duration":0.310416666666697},{"name":"G3","midi":55,"time":275.76458333332937,"velocity":0.5669291338582677,"duration":0.15416666666664014},{"name":"B3","midi":59,"time":275.9291666666627,"velocity":0.5669291338582677,"duration":0.15416666666669698},{"name":"C5","midi":72,"time":276.09791666666274,"velocity":0.5275590551181102,"duration":0.30624999999997726},{"name":"A3","midi":57,"time":276.09791666666274,"velocity":0.5669291338582677,"duration":0.14999999999997726},{"name":"D#5","midi":75,"time":276.2604166666627,"velocity":0.5275590551181102,"duration":0.15416666666669698},{"name":"F#3","midi":54,"time":276.26249999999607,"velocity":0.5669291338582677,"duration":0.15208333333333712},{"name":"B4","midi":71,"time":276.4270833333294,"velocity":0.5275590551181102,"duration":0.31458333333335986},{"name":"E5","midi":76,"time":276.4270833333294,"velocity":0.5039370078740157,"duration":0.15833333333335986},{"name":"G3","midi":55,"time":276.42916666666275,"velocity":0.5669291338582677,"duration":0.15416666666664014},{"name":"G5","midi":79,"time":276.59583333332944,"velocity":0.4094488188976378,"duration":0.15833333333330302},{"name":"B3","midi":59,"time":276.59583333332944,"velocity":0.5669291338582677,"duration":0.15833333333330302},{"name":"F#5","midi":78,"time":276.76666666666273,"velocity":0.4094488188976378,"duration":0.6333333333333826},{"name":"E5","midi":76,"time":276.7687499999961,"velocity":0.5039370078740157,"duration":0.3166666666666629},{"name":"C4","midi":60,"time":276.7687499999961,"velocity":0.5669291338582677,"duration":0.15625},{"name":"A3","midi":57,"time":276.9374999999961,"velocity":0.5669291338582677,"duration":0.15833333333335986},{"name":"D#5","midi":75,"time":277.1062499999961,"velocity":0.5039370078740157,"duration":0.314583333333303},{"name":"B3","midi":59,"time":277.1083333333295,"velocity":0.5669291338582677,"duration":0.15625},{"name":"D#4","midi":63,"time":277.2770833333295,"velocity":0.5669291338582677,"duration":0.15624999999994316},{"name":"A4","midi":69,"time":277.4437499999961,"velocity":0.5275590551181102,"duration":0.310416666666697},{"name":"E5","midi":76,"time":277.4437499999961,"velocity":0.48031496062992124,"duration":0.15416666666669698},{"name":"E4","midi":64,"time":277.44583333332946,"velocity":0.5669291338582677,"duration":0.3083333333333371},{"name":"D5","midi":74,"time":277.6104166666628,"velocity":0.48031496062992124,"duration":0.15416666666669698},{"name":"G#4","midi":68,"time":277.7770833333295,"velocity":0.5275590551181102,"duration":0.3083333333333371},{"name":"C#5","midi":73,"time":277.7770833333295,"velocity":0.48031496062992124,"duration":0.15416666666669698},{"name":"E3","midi":52,"time":277.77916666666283,"velocity":0.5669291338582677,"duration":0.30624999999997726},{"name":"B4","midi":71,"time":277.94374999999616,"velocity":0.5039370078740157,"duration":0.15416666666664014},{"name":"A4","midi":69,"time":278.1062499999961,"velocity":0.5275590551181102,"duration":0.935416666666697},{"name":"C#3","midi":49,"time":278.1083333333295,"velocity":0.5669291338582677,"duration":0.30624999999997726},{"name":"B4","midi":71,"time":278.2729166666628,"velocity":0.5275590551181102,"duration":0.15416666666664014},{"name":"C#5","midi":73,"time":278.43749999999613,"velocity":0.5275590551181102,"duration":0.15625},{"name":"A2","midi":45,"time":278.43749999999613,"velocity":0.5669291338582677,"duration":0.3125},{"name":"E5","midi":76,"time":278.60208333332946,"velocity":0.5275590551181102,"duration":0.15625},{"name":"D5","midi":74,"time":278.77083333332945,"velocity":0.5275590551181102,"duration":0.15416666666669698},{"name":"F#3","midi":54,"time":278.7729166666628,"velocity":0.5669291338582677,"duration":0.3062500000000341},{"name":"B4","midi":71,"time":278.93749999999613,"velocity":0.5275590551181102,"duration":0.15416666666669698},{"name":"C#5","midi":73,"time":279.09999999999616,"velocity":0.5275590551181102,"duration":0.15416666666669698},{"name":"G#4","midi":68,"time":279.1020833333295,"velocity":0.5275590551181102,"duration":0.3083333333333371},{"name":"E3","midi":52,"time":279.1020833333295,"velocity":0.5669291338582677,"duration":0.30624999999997726},{"name":"E5","midi":76,"time":279.26666666666284,"velocity":0.5275590551181102,"duration":0.15416666666669698},{"name":"C#5","midi":73,"time":279.43333333332953,"velocity":0.5275590551181102,"duration":0.3062500000000341},{"name":"F#5","midi":78,"time":279.43333333332953,"velocity":0.4330708661417323,"duration":0.15416666666669698},{"name":"A3","midi":57,"time":279.4354166666629,"velocity":0.5669291338582677,"duration":0.30416666666667425},{"name":"D5","midi":74,"time":279.5999999999962,"velocity":0.5275590551181102,"duration":0.1500000000000341},{"name":"E5","midi":76,"time":279.76041666666293,"velocity":0.5275590551181102,"duration":0.15208333333333712},{"name":"B4","midi":71,"time":279.7624999999963,"velocity":0.5275590551181102,"duration":0.30416666666667425},{"name":"G#3","midi":56,"time":279.7624999999963,"velocity":0.5669291338582677,"duration":0.3020833333333144},{"name":"G#5","midi":80,"time":279.92499999999626,"velocity":0.4330708661417323,"duration":0.15208333333339397},{"name":"A5","midi":81,"time":280.08749999999634,"velocity":0.4330708661417323,"duration":0.15416666666669698},{"name":"E5","midi":76,"time":280.08749999999634,"velocity":0.5275590551181102,"duration":0.30833333333339397},{"name":"D3","midi":50,"time":280.0895833333297,"velocity":0.5669291338582677,"duration":0.3062500000000341},{"name":"G5","midi":79,"time":280.2520833333297,"velocity":0.4330708661417323,"duration":0.15416666666669698},{"name":"F#5","midi":78,"time":280.4187499999964,"velocity":0.4330708661417323,"duration":0.15416666666669698},{"name":"C#3","midi":49,"time":280.42083333332977,"velocity":0.5669291338582677,"duration":0.3083333333333371},{"name":"A3","midi":57,"time":280.42083333332977,"velocity":0.5669291338582677,"duration":0.3083333333333371},{"name":"E5","midi":76,"time":280.5854166666631,"velocity":0.5275590551181102,"duration":0.15625},{"name":"D5","midi":74,"time":280.7499999999964,"velocity":0.5275590551181102,"duration":0.15625000000005684},{"name":"D3","midi":50,"time":280.7520833333298,"velocity":0.5669291338582677,"duration":0.31250000000005684},{"name":"F#3","midi":54,"time":280.75416666666314,"velocity":0.5669291338582677,"duration":0.30416666666667425},{"name":"C#5","midi":73,"time":280.91874999999646,"velocity":0.5275590551181102,"duration":0.1500000000000341},{"name":"B4","midi":71,"time":281.0812499999965,"velocity":0.5275590551181102,"duration":0.15208333333333712},{"name":"F#4","midi":66,"time":281.08333333332985,"velocity":0.5669291338582677,"duration":0.3020833333333144},{"name":"D3","midi":50,"time":281.08333333332985,"velocity":0.5669291338582677,"duration":0.3020833333333144},{"name":"A4","midi":69,"time":281.2437499999965,"velocity":0.5275590551181102,"duration":0.15208333333333712},{"name":"D4","midi":62,"time":281.40833333332984,"velocity":0.5669291338582677,"duration":0.618750000000091},{"name":"G4","midi":67,"time":281.40833333332984,"velocity":0.5669291338582677,"duration":0.1500000000000341},{"name":"B3","midi":59,"time":281.4104166666632,"velocity":0.5669291338582677,"duration":0.30416666666667425},{"name":"E4","midi":64,"time":281.5729166666632,"velocity":0.5669291338582677,"duration":0.15208333333333712},{"name":"F#4","midi":66,"time":281.73749999999654,"velocity":0.5669291338582677,"duration":0.15416666666669698},{"name":"A3","midi":57,"time":281.7395833333299,"velocity":0.5669291338582677,"duration":0.3083333333333371},{"name":"A4","midi":69,"time":281.9020833333299,"velocity":0.5275590551181102,"duration":0.15625},{"name":"B4","midi":71,"time":282.0687499999966,"velocity":0.5275590551181102,"duration":0.15416666666664014},{"name":"D4","midi":62,"time":282.0687499999966,"velocity":0.5669291338582677,"duration":0.31041666666664014},{"name":"G4","midi":67,"time":282.23333333332994,"velocity":0.5669291338582677,"duration":0.15833333333330302},{"name":"A4","midi":69,"time":282.40416666666323,"velocity":0.5275590551181102,"duration":0.15416666666669698},{"name":"G4","midi":67,"time":282.40416666666323,"velocity":0.5669291338582677,"duration":0.310416666666697},{"name":"C#4","midi":61,"time":282.4062499999966,"velocity":0.5669291338582677,"duration":0.3083333333333371},{"name":"C#5","midi":73,"time":282.5708333333299,"velocity":0.5275590551181102,"duration":0.15416666666669698},{"name":"A4","midi":69,"time":282.7354166666633,"velocity":0.5275590551181102,"duration":0.3083333333333371},{"name":"D5","midi":74,"time":282.73749999999666,"velocity":0.5275590551181102,"duration":0.15208333333333712},{"name":"G3","midi":55,"time":282.73749999999666,"velocity":0.5669291338582677,"duration":0.30624999999997726},{"name":"E5","midi":76,"time":282.90208333333,"velocity":0.5039370078740157,"duration":0.15416666666664014},{"name":"D5","midi":74,"time":283.0666666666633,"velocity":0.5275590551181102,"duration":0.30416666666667425},{"name":"F#3","midi":54,"time":283.0666666666633,"velocity":0.5669291338582677,"duration":0.30416666666667425},{"name":"E5","midi":76,"time":283.22916666666333,"velocity":0.5039370078740157,"duration":0.15208333333333712},{"name":"F#5","midi":78,"time":283.39166666666335,"velocity":0.4094488188976378,"duration":0.15208333333333712},{"name":"C5","midi":72,"time":283.3937499999967,"velocity":0.5275590551181102,"duration":0.6145833333332575},{"name":"D#4","midi":63,"time":283.3937499999967,"velocity":0.5669291338582677,"duration":0.3041666666666174},{"name":"G5","midi":79,"time":283.5562499999967,"velocity":0.4094488188976378,"duration":0.15416666666664014},{"name":"A5","midi":81,"time":283.72083333333,"velocity":0.4094488188976378,"duration":0.15416666666664014},{"name":"D4","midi":62,"time":283.72083333333,"velocity":0.5669291338582677,"duration":0.3041666666666174},{"name":"F#5","midi":78,"time":283.88541666666333,"velocity":0.4330708661417323,"duration":0.14999999999997726},{"name":"D5","midi":74,"time":284.0479166666633,"velocity":0.5275590551181102,"duration":0.1500000000000341},{"name":"B4","midi":71,"time":284.04999999999666,"velocity":0.5275590551181102,"duration":0.6104166666666515},{"name":"A3","midi":57,"time":284.04999999999666,"velocity":0.5669291338582677,"duration":0.3020833333333144},{"name":"F5","midi":77,"time":284.2104166666633,"velocity":0.4094488188976378,"duration":0.15416666666664014},{"name":"E5","midi":76,"time":284.37499999999665,"velocity":0.5039370078740157,"duration":0.15208333333333712},{"name":"G#3","midi":56,"time":284.37499999999665,"velocity":0.5669291338582677,"duration":0.3020833333333144},{"name":"D5","midi":74,"time":284.53749999999667,"velocity":0.5039370078740157,"duration":0.15208333333328028},{"name":"A4","midi":69,"time":284.69999999999663,"velocity":0.5275590551181102,"duration":0.9208333333333485},{"name":"C5","midi":72,"time":284.69999999999663,"velocity":0.5039370078740157,"duration":0.1500000000000341},{"name":"F4","midi":65,"time":284.70208333333,"velocity":0.5669291338582677,"duration":0.2979166666666515},{"name":"B4","midi":71,"time":284.86249999999666,"velocity":0.5275590551181102,"duration":0.14999999999997726},{"name":"C5","midi":72,"time":285.0229166666633,"velocity":0.5039370078740157,"duration":0.15416666666664014},{"name":"E4","midi":64,"time":285.0229166666633,"velocity":0.5669291338582677,"duration":0.3083333333333371},{"name":"D5","midi":74,"time":285.18749999999665,"velocity":0.5039370078740157,"duration":0.15416666666669698},{"name":"C5","midi":72,"time":285.35416666666333,"velocity":0.5039370078740157,"duration":0.15416666666664014},{"name":"D#4","midi":63,"time":285.35416666666333,"velocity":0.5669291338582677,"duration":0.3020833333333144},{"name":"B4","midi":71,"time":285.51874999999666,"velocity":0.5275590551181102,"duration":0.44791666666662877},{"name":"A4","midi":69,"time":285.6791666666633,"velocity":0.5275590551181102,"duration":0.14583333333331439},{"name":"E4","midi":64,"time":285.6791666666633,"velocity":0.5669291338582677,"duration":0.29583333333329165},{"name":"G#4","midi":68,"time":285.83333333332996,"velocity":0.5275590551181102,"duration":0.14999999999997726},{"name":"A4","midi":69,"time":285.9979166666633,"velocity":0.5275590551181102,"duration":0.9104166666667197},{"name":"C#4","midi":61,"time":285.9979166666633,"velocity":0.5669291338582677,"duration":0.29791666666670835},{"name":"G4","midi":67,"time":286.15624999999665,"velocity":0.5669291338582677,"duration":0.15208333333333712},{"name":"A3","midi":57,"time":286.31874999999667,"velocity":0.5669291338582677,"duration":0.30208333333337123},{"name":"F#4","midi":66,"time":286.32083333333003,"velocity":0.5669291338582677,"duration":0.14791666666667425},{"name":"E4","midi":64,"time":286.4812499999967,"velocity":0.5669291338582677,"duration":0.14791666666667425},{"name":"B3","midi":59,"time":286.64166666666335,"velocity":0.5669291338582677,"duration":0.47708333333332575},{"name":"D4","midi":62,"time":286.64166666666335,"velocity":0.5669291338582677,"duration":0.14999999999997726},{"name":"C#4","midi":61,"time":286.8041666666633,"velocity":0.5669291338582677,"duration":0.15208333333333712},{"name":"D5","midi":74,"time":286.96666666666334,"velocity":0.5118110236220472,"duration":0.15208333333333712},{"name":"B3","midi":59,"time":286.9687499999967,"velocity":0.5669291338582677,"duration":1.1895833333334167},{"name":"E5","midi":76,"time":287.12916666666337,"velocity":0.5118110236220472,"duration":0.15208333333333712},{"name":"C#4","midi":61,"time":287.12916666666337,"velocity":0.5669291338582677,"duration":0.14999999999997726},{"name":"F#5","midi":78,"time":287.2916666666634,"velocity":0.41732283464566927,"duration":0.14791666666667425},{"name":"D4","midi":62,"time":287.2916666666634,"velocity":0.5669291338582677,"duration":0.6000000000000227},{"name":"G5","midi":79,"time":287.44999999999675,"velocity":0.41732283464566927,"duration":0.14999999999997726},{"name":"A4","midi":69,"time":287.6104166666634,"velocity":0.5275590551181102,"duration":0.14999999999997726},{"name":"G#4","midi":68,"time":287.7708333333301,"velocity":0.5275590551181102,"duration":0.14791666666667425},{"name":"E5","midi":76,"time":287.92916666666343,"velocity":0.5118110236220472,"duration":0.15208333333333712},{"name":"C#4","midi":61,"time":287.92916666666343,"velocity":0.5669291338582677,"duration":0.6145833333333712},{"name":"F#5","midi":78,"time":288.09374999999676,"velocity":0.41732283464566927,"duration":0.15208333333333712},{"name":"G4","midi":67,"time":288.2541666666634,"velocity":0.5669291338582677,"duration":0.15416666666669698},{"name":"A3","midi":57,"time":288.2562499999968,"velocity":0.5669291338582677,"duration":0.6125000000000114},{"name":"F#4","midi":66,"time":288.4187499999968,"velocity":0.5669291338582677,"duration":0.15208333333333712},{"name":"D5","midi":74,"time":288.58333333333013,"velocity":0.5275590551181102,"duration":0.15208333333333712},{"name":"B3","midi":59,"time":288.58333333333013,"velocity":0.5669291338582677,"duration":0.6083333333333485},{"name":"E5","midi":76,"time":288.74791666666346,"velocity":0.5275590551181102,"duration":0.14999999999997726},{"name":"F#4","midi":66,"time":288.9083333333301,"velocity":0.5669291338582677,"duration":0.1500000000000341},{"name":"G3","midi":55,"time":288.9104166666635,"velocity":0.5669291338582677,"duration":0.6041666666666288},{"name":"E4","midi":64,"time":289.06874999999684,"velocity":0.5669291338582677,"duration":0.15208333333328028},{"name":"C#5","midi":73,"time":289.2312499999968,"velocity":0.5275590551181102,"duration":0.14999999999997726},{"name":"A3","midi":57,"time":289.2312499999968,"velocity":0.5669291338582677,"duration":1.212500000000091},{"name":"B4","midi":71,"time":289.39374999999677,"velocity":0.5275590551181102,"duration":0.15208333333333712},{"name":"C#5","midi":73,"time":289.55416666666343,"velocity":0.5275590551181102,"duration":0.15208333333333712},{"name":"F#3","midi":54,"time":289.5562499999968,"velocity":0.5669291338582677,"duration":0.30208333333337123},{"name":"D3","midi":50,"time":289.5562499999968,"velocity":0.5669291338582677,"duration":0.30000000000001137},{"name":"D5","midi":74,"time":289.71666666666346,"velocity":0.5275590551181102,"duration":0.1500000000000341},{"name":"E5","midi":76,"time":289.8791666666635,"velocity":0.5275590551181102,"duration":0.1500000000000341},{"name":"E3","midi":52,"time":289.8791666666635,"velocity":0.5669291338582677,"duration":0.3000000000000682},{"name":"C#3","midi":49,"time":289.88124999999684,"velocity":0.5669291338582677,"duration":0.29791666666670835},{"name":"F#5","midi":78,"time":290.0395833333302,"velocity":0.4330708661417323,"duration":0.1500000000000341},{"name":"G5","midi":79,"time":290.1999999999969,"velocity":0.41732283464566927,"duration":0.14999999999997726},{"name":"C#3","midi":49,"time":290.1999999999969,"velocity":0.5669291338582677,"duration":0.2999999999999545},{"name":"A2","midi":45,"time":290.1999999999969,"velocity":0.5669291338582677,"duration":0.2999999999999545},{"name":"E5","midi":76,"time":290.3604166666636,"velocity":0.5118110236220472,"duration":0.1479166666666174},{"name":"A5","midi":81,"time":290.5208333333302,"velocity":0.41732283464566927,"duration":1.2187500000001137},{"name":"F#3","midi":54,"time":290.52291666666355,"velocity":0.5669291338582677,"duration":0.29791666666670835},{"name":"G5","midi":79,"time":290.6812499999969,"velocity":0.41732283464566927,"duration":0.15208333333333712},{"name":"F#5","midi":78,"time":290.84374999999693,"velocity":0.41732283464566927,"duration":0.15208333333333712},{"name":"D3","midi":50,"time":290.8458333333303,"velocity":0.5669291338582677,"duration":0.3020833333333144},{"name":"E5","midi":76,"time":291.00624999999695,"velocity":0.5118110236220472,"duration":0.15208333333333712},{"name":"D5","midi":74,"time":291.1708333333303,"velocity":0.5275590551181102,"duration":0.14999999999997726},{"name":"G3","midi":55,"time":291.1708333333303,"velocity":0.5669291338582677,"duration":0.3020833333333144},{"name":"C5","midi":72,"time":291.33124999999694,"velocity":0.5275590551181102,"duration":0.15208333333333712},{"name":"B4","midi":71,"time":291.49583333333027,"velocity":0.5275590551181102,"duration":0.1500000000000341},{"name":"F#3","midi":54,"time":291.4979166666636,"velocity":0.5669291338582677,"duration":0.2979166666666515},{"name":"C5","midi":72,"time":291.6583333333303,"velocity":0.5275590551181102,"duration":0.14791666666667425},{"name":"G5","midi":79,"time":291.81874999999695,"velocity":0.41732283464566927,"duration":0.6000000000000227},{"name":"D5","midi":74,"time":291.81874999999695,"velocity":0.5275590551181102,"duration":0.14791666666667425},{"name":"C3","midi":48,"time":291.8208333333303,"velocity":0.5669291338582677,"duration":0.29374999999998863},{"name":"E5","midi":76,"time":291.9791666666636,"velocity":0.5118110236220472,"duration":0.14375000000001137},{"name":"D5","midi":74,"time":292.1354166666636,"velocity":0.5275590551181102,"duration":0.1500000000000341},{"name":"B2","midi":47,"time":292.137499999997,"velocity":0.5669291338582677,"duration":0.30000000000001137},{"name":"C5","midi":72,"time":292.29583333333034,"velocity":0.5275590551181102,"duration":0.15208333333333712},{"name":"F5","midi":77,"time":292.45833333333036,"velocity":0.41732283464566927,"duration":0.618750000000091},{"name":"B4","midi":71,"time":292.45833333333036,"velocity":0.5275590551181102,"duration":0.15416666666669698},{"name":"A3","midi":57,"time":292.4604166666637,"velocity":0.5669291338582677,"duration":0.3083333333333371},{"name":"C#5","midi":73,"time":292.62499999999704,"velocity":0.5275590551181102,"duration":0.15416666666669698},{"name":"D5","midi":74,"time":292.7895833333304,"velocity":0.5275590551181102,"duration":0.15416666666669698},{"name":"G#3","midi":56,"time":292.7916666666638,"velocity":0.5669291338582677,"duration":0.30624999999997726},{"name":"B4","midi":71,"time":292.9541666666638,"velocity":0.5275590551181102,"duration":0.15416666666664014},{"name":"E5","midi":76,"time":293.12083333333044,"velocity":0.5118110236220472,"duration":0.6145833333333712},{"name":"G4","midi":67,"time":293.12083333333044,"velocity":0.5669291338582677,"duration":0.15416666666669698},{"name":"D3","midi":50,"time":293.1229166666638,"velocity":0.5669291338582677,"duration":0.30416666666667425},{"name":"A#4","midi":70,"time":293.28333333333046,"velocity":0.5275590551181102,"duration":0.15416666666669698},{"name":"A4","midi":69,"time":293.44999999999715,"velocity":0.5275590551181102,"duration":0.15208333333333712},{"name":"C#3","midi":49,"time":293.44999999999715,"velocity":0.5669291338582677,"duration":0.30416666666667425},{"name":"G4","midi":67,"time":293.6145833333305,"velocity":0.5669291338582677,"duration":0.15208333333333712},{"name":"D5","midi":74,"time":293.77499999999714,"velocity":0.5275590551181102,"duration":0.7583333333333826},{"name":"A#3","midi":58,"time":293.7770833333305,"velocity":0.5669291338582677,"duration":0.30000000000001137},{"name":"F4","midi":65,"time":293.7770833333305,"velocity":0.5669291338582677,"duration":0.14999999999997726},{"name":"E4","midi":64,"time":293.93749999999716,"velocity":0.5669291338582677,"duration":0.1500000000000341},{"name":"A3","midi":57,"time":294.0999999999972,"velocity":0.5669291338582677,"duration":0.30000000000001137},{"name":"F4","midi":65,"time":294.0999999999972,"velocity":0.5669291338582677,"duration":0.14999999999997726},{"name":"D4","midi":62,"time":294.26041666666384,"velocity":0.5669291338582677,"duration":0.15208333333333712},{"name":"E4","midi":64,"time":294.42291666666387,"velocity":0.5669291338582677,"duration":0.6083333333333485},{"name":"G#3","midi":56,"time":294.42291666666387,"velocity":0.5669291338582677,"duration":0.3020833333333144},{"name":"C#5","midi":73,"time":294.58333333333053,"velocity":0.5275590551181102,"duration":0.15208333333333712},{"name":"D5","midi":74,"time":294.74583333333055,"velocity":0.5275590551181102,"duration":0.15208333333333712},{"name":"A3","midi":57,"time":294.7479166666639,"velocity":0.5669291338582677,"duration":0.3041666666666174},{"name":"C#5","midi":73,"time":294.9104166666639,"velocity":0.5275590551181102,"duration":0.15416666666664014},{"name":"D5","midi":74,"time":295.0749999999972,"velocity":0.5275590551181102,"duration":0.7708333333334281},{"name":"F#3","midi":54,"time":295.0749999999972,"velocity":0.5669291338582677,"duration":0.30624999999997726},{"name":"C5","midi":72,"time":295.23958333333053,"velocity":0.5275590551181102,"duration":0.15208333333333712},{"name":"B4","midi":71,"time":295.40416666666385,"velocity":0.5275590551181102,"duration":0.15416666666669698},{"name":"D3","midi":50,"time":295.4062499999972,"velocity":0.5669291338582677,"duration":0.3062500000000341},{"name":"A4","midi":69,"time":295.56874999999724,"velocity":0.5275590551181102,"duration":0.15416666666669698},{"name":"G4","midi":67,"time":295.7333333333306,"velocity":0.5669291338582677,"duration":0.1500000000000341},{"name":"E3","midi":52,"time":295.735416666664,"velocity":0.5669291338582677,"duration":1.2125000000001478},{"name":"E5","midi":76,"time":295.89583333333064,"velocity":0.5118110236220472,"duration":0.15208333333333712},{"name":"F#4","midi":66,"time":295.89583333333064,"velocity":0.5669291338582677,"duration":0.14999999999997726},{"name":"F#5","midi":78,"time":296.0562499999973,"velocity":0.41732283464566927,"duration":0.1500000000000341},{"name":"E4","midi":64,"time":296.05833333333067,"velocity":0.5669291338582677,"duration":0.14791666666667425},{"name":"G5","midi":79,"time":296.2187499999973,"velocity":0.41732283464566927,"duration":0.1500000000000341},{"name":"D4","midi":62,"time":296.2208333333307,"velocity":0.5669291338582677,"duration":0.14791666666667425},{"name":"A5","midi":81,"time":296.37916666666405,"velocity":0.41732283464566927,"duration":0.15208333333333712},{"name":"C#4","midi":61,"time":296.37916666666405,"velocity":0.5669291338582677,"duration":0.14999999999997726},{"name":"B5","midi":83,"time":296.5395833333307,"velocity":0.41732283464566927,"duration":0.15208333333333712},{"name":"B3","midi":59,"time":296.5395833333307,"velocity":0.5669291338582677,"duration":0.14999999999997726},{"name":"D5","midi":74,"time":296.70208333333073,"velocity":0.5275590551181102,"duration":0.1500000000000341},{"name":"A3","midi":57,"time":296.7041666666641,"velocity":0.5669291338582677,"duration":0.14791666666667425},{"name":"C#5","midi":73,"time":296.86249999999745,"velocity":0.5275590551181102,"duration":0.15416666666669698},{"name":"G3","midi":55,"time":296.8645833333308,"velocity":0.5669291338582677,"duration":0.14999999999997726},{"name":"D5","midi":74,"time":297.0249999999975,"velocity":0.5275590551181102,"duration":1.814583333333303},{"name":"F#3","midi":54,"time":297.0249999999975,"velocity":0.5669291338582677,"duration":0.1500000000000341},{"name":"D3","midi":50,"time":297.02708333333084,"velocity":0.5669291338582677,"duration":0.5979166666666629},{"name":"A3","midi":57,"time":297.1874999999975,"velocity":0.5669291338582677,"duration":0.14791666666667425},{"name":"B3","midi":59,"time":297.34583333333086,"velocity":0.5669291338582677,"duration":0.14999999999997726},{"name":"C#4","midi":61,"time":297.50416666666416,"velocity":0.5669291338582677,"duration":0.14791666666667425},{"name":"D4","midi":62,"time":297.6624999999975,"velocity":0.5669291338582677,"duration":0.14999999999997726},{"name":"E4","midi":64,"time":297.8249999999975,"velocity":0.5669291338582677,"duration":0.14999999999997726},{"name":"A3","midi":57,"time":297.98541666666415,"velocity":0.5669291338582677,"duration":0.15208333333333712},{"name":"B2","midi":47,"time":297.98541666666415,"velocity":0.5669291338582677,"duration":0.30624999999997726},{"name":"G#3","midi":56,"time":298.1499999999975,"velocity":0.5669291338582677,"duration":0.14999999999997726},{"name":"A3","midi":57,"time":298.31249999999744,"velocity":0.5669291338582677,"duration":1.204166666666822},{"name":"A2","midi":45,"time":298.3145833333308,"velocity":0.5669291338582677,"duration":0.6020833333333258},{"name":"E4","midi":64,"time":298.47499999999746,"velocity":0.5669291338582677,"duration":0.14999999999997726},{"name":"F#4","midi":66,"time":298.6354166666641,"velocity":0.5669291338582677,"duration":0.14999999999997726},{"name":"G4","midi":67,"time":298.7979166666641,"velocity":0.5669291338582677,"duration":0.1500000000000341},{"name":"C#5","midi":73,"time":298.95624999999745,"velocity":0.5275590551181102,"duration":0.3000000000000682},{"name":"A4","midi":69,"time":298.9583333333308,"velocity":0.5275590551181102,"duration":0.14791666666667425},{"name":"B4","midi":71,"time":299.1166666666642,"velocity":0.5275590551181102,"duration":0.1500000000000341},{"name":"F#5","midi":78,"time":299.2770833333309,"velocity":0.4330708661417323,"duration":0.44583333333343944},{"name":"E4","midi":64,"time":299.2770833333309,"velocity":0.5669291338582677,"duration":0.14791666666667425},{"name":"F#3","midi":54,"time":299.27916666666425,"velocity":0.5669291338582677,"duration":0.29374999999998863},{"name":"D#4","midi":63,"time":299.43541666666425,"velocity":0.5669291338582677,"duration":0.14791666666667425},{"name":"G4","midi":67,"time":299.5937499999976,"velocity":0.5669291338582677,"duration":1.5145833333335759},{"name":"E3","midi":52,"time":299.5937499999976,"velocity":0.5669291338582677,"duration":0.6020833333334394},{"name":"B3","midi":59,"time":299.595833333331,"velocity":0.5669291338582677,"duration":0.2958333333333485},{"name":"B4","midi":71,"time":299.752083333331,"velocity":0.5275590551181102,"duration":0.14791666666667425},{"name":"C#5","midi":73,"time":299.91249999999764,"velocity":0.5275590551181102,"duration":0.1500000000000341},{"name":"A#3","midi":58,"time":299.914583333331,"velocity":0.5669291338582677,"duration":0.14583333333331439},{"name":"D5","midi":74,"time":300.07291666666436,"velocity":0.5275590551181102,"duration":0.15208333333333712},{"name":"B3","midi":59,"time":300.0749999999977,"velocity":0.5669291338582677,"duration":0.14999999999997726},{"name":"E5","midi":76,"time":300.2354166666644,"velocity":0.5275590551181102,"duration":0.15208333333333712},{"name":"C#4","midi":61,"time":300.2354166666644,"velocity":0.5669291338582677,"duration":0.30416666666667425},{"name":"F#5","midi":78,"time":300.3999999999977,"velocity":0.4330708661417323,"duration":0.1500000000000341},{"name":"B4","midi":71,"time":300.5624999999977,"velocity":0.5275590551181102,"duration":0.15208333333333712},{"name":"E3","midi":52,"time":300.5624999999977,"velocity":0.5669291338582677,"duration":0.3041666666667311},{"name":"C#3","midi":49,"time":300.5645833333311,"velocity":0.5669291338582677,"duration":0.30000000000001137},{"name":"A#4","midi":70,"time":300.72499999999775,"velocity":0.5275590551181102,"duration":0.15208333333339397},{"name":"D5","midi":74,"time":300.88749999999783,"velocity":0.5275590551181102,"duration":0.591666666666697},{"name":"B3","midi":59,"time":300.8895833333312,"velocity":0.5669291338582677,"duration":0.29374999999998863},{"name":"B2","midi":47,"time":300.8895833333312,"velocity":0.5669291338582677,"duration":0.14583333333331439},{"name":"F#2","midi":42,"time":301.0458333333312,"velocity":0.5669291338582677,"duration":0.14791666666667425},{"name":"F#4","midi":66,"time":301.20624999999785,"velocity":0.5669291338582677,"duration":0.2916666666666856},{"name":"G#2","midi":44,"time":301.20624999999785,"velocity":0.5669291338582677,"duration":0.14375000000001137},{"name":"A2","midi":45,"time":301.36041666666455,"velocity":0.5669291338582677,"duration":0.14583333333331439},{"name":"C#5","midi":73,"time":301.5208333333312,"velocity":0.5275590551181102,"duration":0.30416666666667425},{"name":"F4","midi":65,"time":301.5208333333312,"velocity":0.5669291338582677,"duration":0.30416666666667425},{"name":"B2","midi":47,"time":301.52291666666457,"velocity":0.5669291338582677,"duration":0.14999999999997726},{"name":"C#3","midi":49,"time":301.6812499999979,"velocity":0.5669291338582677,"duration":0.15208333333333712},{"name":"B4","midi":71,"time":301.8437499999979,"velocity":0.5275590551181102,"duration":0.3041666666667311},{"name":"G#4","midi":68,"time":301.84583333333126,"velocity":0.5275590551181102,"duration":0.4541666666667652},{"name":"F#2","midi":42,"time":301.84583333333126,"velocity":0.5669291338582677,"duration":0.15208333333333712},{"name":"F2","midi":41,"time":302.0083333333313,"velocity":0.5669291338582677,"duration":0.1500000000000341},{"name":"C#5","midi":73,"time":302.168749999998,"velocity":0.5275590551181102,"duration":1.2062500000002387},{"name":"A2","midi":45,"time":302.168749999998,"velocity":0.5669291338582677,"duration":1.8062500000002615},{"name":"C#3","midi":49,"time":302.32708333333136,"velocity":0.5669291338582677,"duration":0.15208333333339397},{"name":"F4","midi":65,"time":302.3291666666647,"velocity":0.5669291338582677,"duration":0.14791666666667425},{"name":"D#3","midi":51,"time":302.4874999999981,"velocity":0.5669291338582677,"duration":0.1500000000000341},{"name":"F#4","midi":66,"time":302.48958333333144,"velocity":0.5669291338582677,"duration":0.14583333333331439},{"name":"G#4","midi":68,"time":302.6479166666648,"velocity":0.5275590551181102,"duration":0.1479166666667311},{"name":"F3","midi":53,"time":302.64999999999816,"velocity":0.5669291338582677,"duration":0.14375000000001137},{"name":"A4","midi":69,"time":302.8062499999982,"velocity":0.5275590551181102,"duration":0.14999999999997726},{"name":"F#3","midi":54,"time":302.8062499999982,"velocity":0.5669291338582677,"duration":0.14999999999997726},{"name":"B4","midi":71,"time":302.9666666666649,"velocity":0.5275590551181102,"duration":0.14999999999997726},{"name":"G#3","midi":56,"time":302.9666666666649,"velocity":0.5669291338582677,"duration":0.14999999999997726},{"name":"A3","midi":57,"time":303.12708333333154,"velocity":0.5669291338582677,"duration":0.15416666666669698},{"name":"D4","midi":62,"time":303.1291666666649,"velocity":0.5669291338582677,"duration":0.14999999999997726},{"name":"F3","midi":53,"time":303.28958333333156,"velocity":0.5669291338582677,"duration":0.15416666666669698},{"name":"C#4","midi":61,"time":303.2916666666649,"velocity":0.5669291338582677,"duration":0.14999999999997726},{"name":"F#3","midi":54,"time":303.45416666666495,"velocity":0.5669291338582677,"duration":0.5979166666666629},{"name":"D#4","midi":63,"time":303.45416666666495,"velocity":0.5669291338582677,"duration":0.5979166666666629},{"name":"F#4","midi":66,"time":303.6145833333316,"velocity":0.5669291338582677,"duration":0.14791666666667425},{"name":"G#4","midi":68,"time":303.7749999999983,"velocity":0.5275590551181102,"duration":0.14791666666667425},{"name":"A4","midi":69,"time":303.9312499999983,"velocity":0.5275590551181102,"duration":0.14791666666667425},{"name":"B4","midi":71,"time":304.08958333333163,"velocity":0.5275590551181102,"duration":0.1479166666667311},{"name":"G#3","midi":56,"time":304.091666666665,"velocity":0.5669291338582677,"duration":0.6020833333333826},{"name":"F4","midi":65,"time":304.091666666665,"velocity":0.5669291338582677,"duration":0.29791666666670835},{"name":"G#2","midi":44,"time":304.09374999999835,"velocity":0.5669291338582677,"duration":0.5979166666666629},{"name":"C#5","midi":73,"time":304.24999999999835,"velocity":0.5275590551181102,"duration":0.1500000000000341},{"name":"G#4","midi":68,"time":304.41041666666507,"velocity":0.5275590551181102,"duration":0.4520833333333485},{"name":"F#4","midi":66,"time":304.41041666666507,"velocity":0.5669291338582677,"duration":0.14999999999997726},{"name":"F4","midi":65,"time":304.57291666666504,"velocity":0.5669291338582677,"duration":0.14791666666667425},{"name":"A4","midi":69,"time":304.7312499999984,"velocity":0.5275590551181102,"duration":0.6020833333332689},{"name":"F#2","midi":42,"time":304.73333333333176,"velocity":0.5669291338582677,"duration":0.29583333333329165},{"name":"G#4","midi":68,"time":304.89166666666506,"velocity":0.5275590551181102,"duration":0.14999999999997726},{"name":"C#4","midi":61,"time":305.0520833333317,"velocity":0.5669291338582677,"duration":0.30208333333325754},{"name":"F#4","midi":66,"time":305.0520833333317,"velocity":0.5669291338582677,"duration":0.14999999999997726},{"name":"F4","midi":65,"time":305.2145833333317,"velocity":0.5669291338582677,"duration":0.14999999999997726},{"name":"F#4","midi":66,"time":305.37499999999835,"velocity":0.5669291338582677,"duration":0.14999999999997726},{"name":"A3","midi":57,"time":305.37499999999835,"velocity":0.5669291338582677,"duration":0.2999999999999545},{"name":"G#4","midi":68,"time":305.5374999999983,"velocity":0.5275590551181102,"duration":0.14791666666667425},{"name":"A4","midi":69,"time":305.697916666665,"velocity":0.5275590551181102,"duration":0.14791666666667425},{"name":"F#3","midi":54,"time":305.697916666665,"velocity":0.5669291338582677,"duration":0.30000000000001137},{"name":"C#5","midi":73,"time":305.85833333333164,"velocity":0.5118110236220472,"duration":0.15208333333333712},{"name":"B4","midi":71,"time":306.02083333333167,"velocity":0.5275590551181102,"duration":0.15208333333333712},{"name":"D4","midi":62,"time":306.022916666665,"velocity":0.5669291338582677,"duration":0.30000000000001137},{"name":"G#4","midi":68,"time":306.1833333333317,"velocity":0.5275590551181102,"duration":0.14791666666667425},{"name":"A4","midi":69,"time":306.3458333333317,"velocity":0.5275590551181102,"duration":0.15208333333333712},{"name":"C#4","midi":61,"time":306.3458333333317,"velocity":0.5669291338582677,"duration":0.30416666666667425},{"name":"C#5","midi":73,"time":306.5062499999984,"velocity":0.5118110236220472,"duration":0.15208333333333712},{"name":"G#5","midi":80,"time":306.6708333333317,"velocity":0.41732283464566927,"duration":0.6020833333333826},{"name":"B4","midi":71,"time":306.67291666666506,"velocity":0.5275590551181102,"duration":0.14999999999997726},{"name":"F#4","midi":66,"time":306.67291666666506,"velocity":0.5669291338582677,"duration":0.30000000000001137},{"name":"D5","midi":74,"time":306.8333333333317,"velocity":0.5118110236220472,"duration":0.1500000000000341},{"name":"C#5","midi":73,"time":306.99583333333175,"velocity":0.5118110236220472,"duration":0.14791666666667425},{"name":"F4","midi":65,"time":306.99583333333175,"velocity":0.5669291338582677,"duration":0.2979166666666515},{"name":"B4","midi":71,"time":307.1541666666651,"velocity":0.5275590551181102,"duration":0.1479166666666174},{"name":"F#5","midi":78,"time":307.3124999999984,"velocity":0.41732283464566927,"duration":0.6041666666666856},{"name":"C#5","midi":73,"time":307.31458333333177,"velocity":0.5118110236220472,"duration":0.14791666666667425},{"name":"B3","midi":59,"time":307.31458333333177,"velocity":0.5669291338582677,"duration":0.29791666666670835},{"name":"D5","midi":74,"time":307.4729166666651,"velocity":0.5118110236220472,"duration":0.15208333333333712},{"name":"E5","midi":76,"time":307.63541666666515,"velocity":0.5118110236220472,"duration":0.14999999999997726},{"name":"A#3","midi":58,"time":307.63541666666515,"velocity":0.5669291338582677,"duration":0.2999999999999545},{"name":"D5","midi":74,"time":307.7979166666651,"velocity":0.5118110236220472,"duration":0.14791666666667425},{"name":"E5","midi":76,"time":307.9562499999985,"velocity":0.5118110236220472,"duration":0.6083333333333485},{"name":"C#5","midi":73,"time":307.95833333333184,"velocity":0.5118110236220472,"duration":0.14583333333331439},{"name":"G4","midi":67,"time":307.95833333333184,"velocity":0.5669291338582677,"duration":0.2979166666666515},{"name":"B4","midi":71,"time":308.11458333333184,"velocity":0.5275590551181102,"duration":0.15208333333333712},{"name":"A#4","midi":70,"time":308.27916666666516,"velocity":0.5275590551181102,"duration":0.15208333333333712},{"name":"F#4","midi":66,"time":308.27916666666516,"velocity":0.5669291338582677,"duration":0.30416666666667425},{"name":"G#4","midi":68,"time":308.4437499999985,"velocity":0.5275590551181102,"duration":0.15208333333333712},{"name":"D#5","midi":75,"time":308.60416666666515,"velocity":0.5118110236220472,"duration":0.6083333333332916},{"name":"F#4","midi":66,"time":308.6062499999985,"velocity":0.5669291338582677,"duration":0.14999999999997726},{"name":"C#4","midi":61,"time":308.6062499999985,"velocity":0.5669291338582677,"duration":0.3020833333333144},{"name":"A4","midi":69,"time":308.7666666666652,"velocity":0.5275590551181102,"duration":0.15208333333333712},{"name":"G#4","midi":68,"time":308.9312499999985,"velocity":0.5275590551181102,"duration":0.14999999999997726},{"name":"C4","midi":60,"time":308.9312499999985,"velocity":0.5669291338582677,"duration":0.2999999999999545},{"name":"C5","midi":72,"time":309.09374999999847,"velocity":0.5118110236220472,"duration":0.14999999999997726},{"name":"C#5","midi":73,"time":309.25208333333177,"velocity":0.5118110236220472,"duration":0.9083333333333599},{"name":"A4","midi":69,"time":309.2541666666651,"velocity":0.5275590551181102,"duration":0.2979166666666515},{"name":"D#5","midi":75,"time":309.4145833333318,"velocity":0.4881889763779528,"duration":0.14999999999997726},{"name":"G#4","midi":68,"time":309.57499999999845,"velocity":0.5275590551181102,"duration":0.2979166666666515},{"name":"E5","midi":76,"time":309.57499999999845,"velocity":0.4881889763779528,"duration":0.14791666666667425},{"name":"F#5","midi":78,"time":309.7354166666651,"velocity":0.3937007874015748,"duration":0.14999999999997726},{"name":"E5","midi":76,"time":309.8958333333318,"velocity":0.4881889763779528,"duration":0.15208333333333712},{"name":"G4","midi":67,"time":309.89791666666514,"velocity":0.5669291338582677,"duration":0.3020833333333144},{"name":"D#5","midi":75,"time":310.0604166666651,"velocity":0.4881889763779528,"duration":0.1500000000000341},{"name":"G#4","midi":68,"time":310.2229166666651,"velocity":0.5275590551181102,"duration":0.30000000000001137},{"name":"C5","midi":72,"time":310.2229166666651,"velocity":0.5118110236220472,"duration":0.30208333333337123},{"name":"A4","midi":69,"time":310.3833333333318,"velocity":0.5275590551181102,"duration":0.1500000000000341},{"name":"C#5","midi":73,"time":310.5437499999985,"velocity":0.5118110236220472,"duration":0.7520833333333599},{"name":"G#4","midi":68,"time":310.54583333333187,"velocity":0.5275590551181102,"duration":0.14791666666667425},{"name":"E4","midi":64,"time":310.54583333333187,"velocity":0.5669291338582677,"duration":0.2979166666666515},{"name":"B4","midi":71,"time":310.70624999999853,"velocity":0.5275590551181102,"duration":0.14583333333331439},{"name":"A4","midi":69,"time":310.8666666666652,"velocity":0.5275590551181102,"duration":0.14583333333331439},{"name":"C#4","midi":61,"time":310.8666666666652,"velocity":0.5669291338582677,"duration":0.29374999999998863},{"name":"G#4","midi":68,"time":311.0249999999985,"velocity":0.5275590551181102,"duration":0.14791666666667425},{"name":"F#4","midi":66,"time":311.18333333333186,"velocity":0.5669291338582677,"duration":1.1916666666667197},{"name":"D#4","midi":63,"time":311.1854166666652,"velocity":0.5669291338582677,"duration":1.339583333333394},{"name":"D#5","midi":75,"time":311.3416666666652,"velocity":0.5118110236220472,"duration":0.14791666666667425},{"name":"E5","midi":76,"time":311.4999999999986,"velocity":0.5118110236220472,"duration":0.14791666666667425},{"name":"F#5","midi":78,"time":311.65833333333194,"velocity":0.41732283464566927,"duration":0.14583333333331439},{"name":"G#5","midi":80,"time":311.81666666666524,"velocity":0.41732283464566927,"duration":0.14791666666667425},{"name":"A5","midi":81,"time":311.9749999999986,"velocity":0.41732283464566927,"duration":0.14999999999997726},{"name":"C#5","midi":73,"time":312.1333333333319,"velocity":0.5118110236220472,"duration":0.14999999999997726},{"name":"C5","midi":72,"time":312.29374999999857,"velocity":0.5118110236220472,"duration":0.1500000000000341},{"name":"E5","midi":76,"time":312.4541666666653,"velocity":0.5275590551181102,"duration":1.3166666666666629},{"name":"G#4","midi":68,"time":312.4541666666653,"velocity":0.5275590551181102,"duration":1.3395833333333371},{"name":"G#3","midi":56,"time":312.6124999999986,"velocity":0.5669291338582677,"duration":0.14791666666667425},{"name":"A#3","midi":58,"time":312.77083333333195,"velocity":0.5669291338582677,"duration":0.14583333333331439},{"name":"C4","midi":60,"time":312.92708333333195,"velocity":0.5669291338582677,"duration":0.14583333333331439},{"name":"C#4","midi":61,"time":313.08333333333195,"velocity":0.5669291338582677,"duration":0.14583333333331439},{"name":"D#4","midi":63,"time":313.23958333333195,"velocity":0.5669291338582677,"duration":0.14999999999997726},{"name":"F#3","midi":54,"time":313.3999999999986,"velocity":0.5669291338582677,"duration":0.15208333333333712},{"name":"E3","midi":52,"time":313.56249999999864,"velocity":0.5669291338582677,"duration":0.14999999999997726},{"name":"F#3","midi":54,"time":313.7249999999986,"velocity":0.5669291338582677,"duration":0.5895833333334508},{"name":"E5","midi":76,"time":313.8812499999986,"velocity":0.5275590551181102,"duration":0.1479166666667311},{"name":"C#4","midi":61,"time":313.88333333333196,"velocity":0.5669291338582677,"duration":0.14375000000001137},{"name":"F#5","midi":78,"time":314.03749999999866,"velocity":0.4330708661417323,"duration":0.1500000000000341},{"name":"D#4","midi":63,"time":314.039583333332,"velocity":0.5669291338582677,"duration":0.14583333333331439},{"name":"G#5","midi":80,"time":314.195833333332,"velocity":0.4330708661417323,"duration":0.1479166666667311},{"name":"E4","midi":64,"time":314.1979166666654,"velocity":0.5669291338582677,"duration":0.14375000000001137},{"name":"A5","midi":81,"time":314.35416666666544,"velocity":0.4330708661417323,"duration":0.14583333333337123},{"name":"F#4","midi":66,"time":314.35416666666544,"velocity":0.5669291338582677,"duration":0.14375000000001137},{"name":"B5","midi":83,"time":314.50833333333213,"velocity":0.4330708661417323,"duration":0.14375000000001137},{"name":"G#4","midi":68,"time":314.50833333333213,"velocity":0.5275590551181102,"duration":0.14375000000001137},{"name":"D#5","midi":75,"time":314.66249999999883,"velocity":0.5275590551181102,"duration":0.14999999999997726},{"name":"A4","midi":69,"time":314.66249999999883,"velocity":0.5275590551181102,"duration":0.14999999999997726},{"name":"C#5","midi":73,"time":314.8229166666655,"velocity":0.5275590551181102,"duration":0.14791666666667425},{"name":"B4","midi":71,"time":314.8229166666655,"velocity":0.5275590551181102,"duration":0.14791666666667425},{"name":"D#5","midi":75,"time":314.9791666666655,"velocity":0.5275590551181102,"duration":0.5875000000000341},{"name":"A4","midi":69,"time":314.98124999999885,"velocity":0.5275590551181102,"duration":0.14375000000001137},{"name":"F#4","midi":66,"time":315.13749999999885,"velocity":0.5669291338582677,"duration":0.14375000000001137},{"name":"G#4","midi":68,"time":315.29374999999885,"velocity":0.5275590551181102,"duration":0.14583333333331439},{"name":"B2","midi":47,"time":315.29374999999885,"velocity":0.5669291338582677,"duration":0.2916666666666856},{"name":"A4","midi":69,"time":315.44999999999885,"velocity":0.5275590551181102,"duration":0.14583333333337123},{"name":"B4","midi":71,"time":315.6062499999989,"velocity":0.5275590551181102,"duration":0.1500000000000341},{"name":"G#2","midi":44,"time":315.60833333333227,"velocity":0.5669291338582677,"duration":0.2958333333333485},{"name":"C#5","midi":73,"time":315.7666666666656,"velocity":0.5275590551181102,"duration":0.14999999999997726},{"name":"D#5","midi":75,"time":315.9270833333323,"velocity":0.5275590551181102,"duration":0.14999999999997726},{"name":"E2","midi":40,"time":315.9270833333323,"velocity":0.5669291338582677,"duration":0.2979166666666515},{"name":"E5","midi":76,"time":316.08958333333226,"velocity":0.5275590551181102,"duration":0.14583333333337123},{"name":"F#5","midi":78,"time":316.249999999999,"velocity":0.4330708661417323,"duration":0.14791666666667425},{"name":"C#3","midi":49,"time":316.249999999999,"velocity":0.5669291338582677,"duration":0.30000000000001137},{"name":"D#5","midi":75,"time":316.40833333333234,"velocity":0.5275590551181102,"duration":0.15208333333333712},{"name":"E5","midi":76,"time":316.57291666666566,"velocity":0.5275590551181102,"duration":0.1500000000000341},{"name":"B2","midi":47,"time":316.574999999999,"velocity":0.5669291338582677,"duration":0.29791666666670835},{"name":"G#5","midi":80,"time":316.7333333333324,"velocity":0.4330708661417323,"duration":0.15208333333333712},{"name":"F#5","midi":78,"time":316.8958333333324,"velocity":0.4330708661417323,"duration":0.6020833333333826},{"name":"E3","midi":52,"time":316.8958333333324,"velocity":0.5669291338582677,"duration":0.3020833333333144},{"name":"C#5","midi":73,"time":317.05624999999907,"velocity":0.5275590551181102,"duration":0.14999999999997726},{"name":"B4","midi":71,"time":317.21666666666573,"velocity":0.5275590551181102,"duration":0.1500000000000341},{"name":"D#3","midi":51,"time":317.2187499999991,"velocity":0.5669291338582677,"duration":0.2958333333333485},{"name":"A4","midi":69,"time":317.37708333333245,"velocity":0.5275590551181102,"duration":0.14791666666667425},{"name":"E5","midi":76,"time":317.5374999999991,"velocity":0.5275590551181102,"duration":0.59375},{"name":"B4","midi":71,"time":317.5374999999991,"velocity":0.5275590551181102,"duration":0.14791666666667425},{"name":"A2","midi":45,"time":317.5395833333325,"velocity":0.5669291338582677,"duration":0.29374999999998863},{"name":"C#5","midi":73,"time":317.6979166666658,"velocity":0.5275590551181102,"duration":0.14791666666667425},{"name":"D5","midi":74,"time":317.8541666666658,"velocity":0.5275590551181102,"duration":0.14791666666667425},{"name":"G#2","midi":44,"time":317.85624999999914,"velocity":0.5669291338582677,"duration":0.29374999999998863},{"name":"C#5","midi":73,"time":318.01249999999914,"velocity":0.5275590551181102,"duration":0.14791666666667425},{"name":"D5","midi":74,"time":318.1708333333325,"velocity":0.5275590551181102,"duration":0.5958333333333599},{"name":"B4","midi":71,"time":318.17291666666586,"velocity":0.5275590551181102,"duration":0.14583333333331439},{"name":"F3","midi":53,"time":318.17291666666586,"velocity":0.5669291338582677,"duration":0.29374999999998863},{"name":"A4","midi":69,"time":318.32916666666586,"velocity":0.5275590551181102,"duration":0.14791666666667425},{"name":"G#4","midi":68,"time":318.4895833333325,"velocity":0.5275590551181102,"duration":0.14791666666667425},{"name":"E3","midi":52,"time":318.4895833333325,"velocity":0.5669291338582677,"duration":0.2979166666666515},{"name":"F#4","midi":66,"time":318.6499999999992,"velocity":0.5669291338582677,"duration":0.14791666666667425},{"name":"C#5","midi":73,"time":318.8062499999992,"velocity":0.5275590551181102,"duration":0.5979166666667197},{"name":"E4","midi":64,"time":318.80833333333254,"velocity":0.5669291338582677,"duration":0.14791666666667425},{"name":"B2","midi":47,"time":318.80833333333254,"velocity":0.5669291338582677,"duration":0.2958333333333485},{"name":"G4","midi":67,"time":318.9666666666659,"velocity":0.5669291338582677,"duration":0.14791666666667425},{"name":"F#4","midi":66,"time":319.12499999999926,"velocity":0.5669291338582677,"duration":0.14999999999997726},{"name":"A#2","midi":46,"time":319.12499999999926,"velocity":0.5669291338582677,"duration":0.2979166666666515},{"name":"E4","midi":64,"time":319.2854166666659,"velocity":0.5669291338582677,"duration":0.14791666666667425},{"name":"B4","midi":71,"time":319.4458333333326,"velocity":0.5275590551181102,"duration":0.7437499999999773},{"name":"D4","midi":62,"time":319.4458333333326,"velocity":0.5669291338582677,"duration":0.14791666666667425},{"name":"G3","midi":55,"time":319.44791666666595,"velocity":0.5669291338582677,"duration":0.29583333333329165},{"name":"C#4","midi":61,"time":319.60624999999925,"velocity":0.5669291338582677,"duration":0.14583333333331439},{"name":"F#3","midi":54,"time":319.76458333333255,"velocity":0.5669291338582677,"duration":0.29374999999998863},{"name":"D4","midi":62,"time":319.76458333333255,"velocity":0.5669291338582677,"duration":0.14583333333331439},{"name":"B3","midi":59,"time":319.92291666666586,"velocity":0.5669291338582677,"duration":0.14583333333337123},{"name":"C#4","midi":61,"time":320.0791666666659,"velocity":0.5669291338582677,"duration":0.5937500000000568},{"name":"F3","midi":53,"time":320.0791666666659,"velocity":0.5669291338582677,"duration":0.29374999999998863},{"name":"A#4","midi":70,"time":320.2374999999992,"velocity":0.5275590551181102,"duration":0.14583333333337123},{"name":"B4","midi":71,"time":320.3937499999993,"velocity":0.5275590551181102,"duration":0.14791666666667425},{"name":"F#3","midi":54,"time":320.39583333333263,"velocity":0.5669291338582677,"duration":0.2958333333333485},{"name":"A#4","midi":70,"time":320.55208333333263,"velocity":0.5275590551181102,"duration":0.1500000000000341},{"name":"B4","midi":71,"time":320.71458333333266,"velocity":0.5275590551181102,"duration":0.7520833333333599},{"name":"D3","midi":50,"time":320.71458333333266,"velocity":0.5669291338582677,"duration":0.2958333333333485},{"name":"A4","midi":69,"time":320.8749999999993,"velocity":0.5275590551181102,"duration":0.14791666666667425},{"name":"G4","midi":67,"time":321.0333333333327,"velocity":0.5669291338582677,"duration":0.1500000000000341},{"name":"B2","midi":47,"time":321.03541666666604,"velocity":0.5669291338582677,"duration":0.2979166666666515},{"name":"F#4","midi":66,"time":321.1958333333327,"velocity":0.5669291338582677,"duration":0.14999999999997726},{"name":"C#3","midi":49,"time":321.35624999999936,"velocity":0.5669291338582677,"duration":1.1937500000000796},{"name":"E4","midi":64,"time":321.35624999999936,"velocity":0.5669291338582677,"duration":0.5958333333333599},{"name":"C#5","midi":73,"time":321.516666666666,"velocity":0.5275590551181102,"duration":0.14375000000001137},{"name":"D5","midi":74,"time":321.6749999999994,"velocity":0.5275590551181102,"duration":0.14583333333331439},{"name":"E5","midi":76,"time":321.8312499999994,"velocity":0.5275590551181102,"duration":0.14791666666667425},{"name":"F#5","midi":78,"time":321.98958333333275,"velocity":0.4330708661417323,"duration":0.14999999999997726},{"name":"G5","midi":79,"time":322.1499999999994,"velocity":0.4330708661417323,"duration":0.14791666666667425},{"name":"C#5","midi":73,"time":322.30833333333277,"velocity":0.5275590551181102,"duration":0.31875000000002274},{"name":"B4","midi":71,"time":322.30833333333277,"velocity":0.5275590551181102,"duration":0.14791666666667425},{"name":"A#4","midi":70,"time":322.46874999999943,"velocity":0.5275590551181102,"duration":0.1500000000000341},{"name":"D5","midi":74,"time":322.62916666666615,"velocity":0.5118110236220472,"duration":0.745833333333394},{"name":"B2","midi":47,"time":322.62916666666615,"velocity":0.5669291338582677,"duration":0.2958333333333485},{"name":"C#5","midi":73,"time":322.7874999999995,"velocity":0.5118110236220472,"duration":0.14791666666667425},{"name":"B4","midi":71,"time":322.94583333333287,"velocity":0.5275590551181102,"duration":0.14375000000001137},{"name":"F#4","midi":66,"time":322.94791666666623,"velocity":0.5669291338582677,"duration":0.29166666666662877},{"name":"A#4","midi":70,"time":323.10208333333287,"velocity":0.5275590551181102,"duration":0.14999999999997726},{"name":"B4","midi":71,"time":323.26249999999953,"velocity":0.5275590551181102,"duration":0.6125000000000682},{"name":"D4","midi":62,"time":323.26249999999953,"velocity":0.5669291338582677,"duration":0.3062500000000341},{"name":"C#5","midi":73,"time":323.42499999999956,"velocity":0.5118110236220472,"duration":0.15416666666669698},{"name":"D5","midi":74,"time":323.58958333333294,"velocity":0.5118110236220472,"duration":0.15208333333333712},{"name":"B3","midi":59,"time":323.5916666666663,"velocity":0.5669291338582677,"duration":0.3020833333333144},{"name":"C#5","midi":73,"time":323.75416666666626,"velocity":0.5118110236220472,"duration":0.15208333333333712},{"name":"C#5","midi":73,"time":323.9166666666663,"velocity":0.5118110236220472,"duration":0.29791666666670835},{"name":"E5","midi":76,"time":323.9166666666663,"velocity":0.5118110236220472,"duration":0.1500000000000341},{"name":"G4","midi":67,"time":323.91874999999965,"velocity":0.5669291338582677,"duration":0.2958333333333485},{"name":"D5","midi":74,"time":324.07499999999965,"velocity":0.5118110236220472,"duration":0.1500000000000341},{"name":"F#5","midi":78,"time":324.23541666666637,"velocity":0.3937007874015748,"duration":0.14791666666667425},{"name":"D5","midi":74,"time":324.2374999999997,"velocity":0.5118110236220472,"duration":0.2979166666666515},{"name":"F#4","midi":66,"time":324.2374999999997,"velocity":0.5669291338582677,"duration":0.29583333333329165},{"name":"E5","midi":76,"time":324.39583333333303,"velocity":0.4881889763779528,"duration":0.14791666666667425},{"name":"G5","midi":79,"time":324.5562499999997,"velocity":0.3937007874015748,"duration":1.0395833333333826},{"name":"B4","midi":71,"time":324.5562499999997,"velocity":0.5275590551181102,"duration":0.2958333333333485},{"name":"E5","midi":76,"time":324.71458333333305,"velocity":0.4881889763779528,"duration":0.14999999999997726},{"name":"D5","midi":74,"time":324.8749999999997,"velocity":0.5118110236220472,"duration":0.14791666666667425},{"name":"A#4","midi":70,"time":324.8749999999997,"velocity":0.5275590551181102,"duration":0.2958333333333485},{"name":"C#5","midi":73,"time":325.0333333333331,"velocity":0.5118110236220472,"duration":0.14583333333331439},{"name":"B4","midi":71,"time":325.1916666666664,"velocity":0.5275590551181102,"duration":0.14583333333331439},{"name":"E4","midi":64,"time":325.1916666666664,"velocity":0.5669291338582677,"duration":0.29374999999998863},{"name":"A#4","midi":70,"time":325.3499999999997,"velocity":0.5275590551181102,"duration":0.14583333333337123},{"name":"B4","midi":71,"time":325.50624999999974,"velocity":0.5275590551181102,"duration":0.2937500000000455},{"name":"D#4","midi":63,"time":325.5083333333331,"velocity":0.5669291338582677,"duration":0.2916666666666856},{"name":"F#5","midi":78,"time":325.6645833333331,"velocity":0.3937007874015748,"duration":0.14791666666667425},{"name":"A5","midi":81,"time":325.82291666666646,"velocity":0.3937007874015748,"duration":1.0416666666666856},{"name":"C5","midi":72,"time":325.8249999999998,"velocity":0.5275590551181102,"duration":0.29374999999998863},{"name":"F#5","midi":78,"time":325.9812499999998,"velocity":0.3937007874015748,"duration":0.14791666666667425},{"name":"B4","midi":71,"time":326.1416666666665,"velocity":0.5275590551181102,"duration":0.30000000000001137},{"name":"E5","midi":76,"time":326.1416666666665,"velocity":0.4881889763779528,"duration":0.15208333333333712},{"name":"D#5","midi":75,"time":326.30208333333314,"velocity":0.5118110236220472,"duration":0.1500000000000341},{"name":"C#5","midi":73,"time":326.46458333333317,"velocity":0.5118110236220472,"duration":0.14375000000001137},{"name":"F#4","midi":66,"time":326.4666666666665,"velocity":0.5669291338582677,"duration":0.2874999999999659},{"name":"C5","midi":72,"time":326.62083333333317,"velocity":0.5275590551181102,"duration":0.14583333333331439},{"name":"C#5","midi":73,"time":326.77708333333317,"velocity":0.5118110236220472,"duration":0.2937500000000455},{"name":"F4","midi":65,"time":326.77708333333317,"velocity":0.5669291338582677,"duration":0.2916666666666856},{"name":"G#5","midi":80,"time":326.93333333333317,"velocity":0.3937007874015748,"duration":0.14583333333337123},{"name":"B5","midi":83,"time":327.0895833333332,"velocity":0.3700787401574803,"duration":0.2916666666666856},{"name":"D5","midi":74,"time":327.0895833333332,"velocity":0.5118110236220472,"duration":0.2916666666666856},{"name":"G#5","midi":80,"time":327.2458333333332,"velocity":0.3700787401574803,"duration":0.2937500000000455},{"name":"A5","midi":81,"time":327.4020833333332,"velocity":0.3700787401574803,"duration":0.2958333333333485},{"name":"C#5","midi":73,"time":327.4041666666666,"velocity":0.5118110236220472,"duration":0.29374999999998863},{"name":"F#5","midi":78,"time":327.5604166666666,"velocity":0.3700787401574803,"duration":0.29374999999998863},{"name":"G#5","midi":80,"time":327.7187499999999,"velocity":0.3700787401574803,"duration":0.6187500000000341},{"name":"C5","midi":72,"time":327.72083333333325,"velocity":0.5275590551181102,"duration":0.29166666666662877},{"name":"F#5","midi":78,"time":327.8749999999999,"velocity":0.3700787401574803,"duration":0.14791666666667425},{"name":"C#5","midi":73,"time":328.03333333333325,"velocity":0.5118110236220472,"duration":0.2916666666666856},{"name":"F5","midi":77,"time":328.03333333333325,"velocity":0.3700787401574803,"duration":0.14583333333331439},{"name":"G#5","midi":80,"time":328.18958333333325,"velocity":0.3700787401574803,"duration":0.26666666666670835},{"name":"C#5","midi":73,"time":328.3479166666666,"velocity":0.5118110236220472,"duration":0.44791666666674246},{"name":"A4","midi":69,"time":328.3479166666666,"velocity":0.5275590551181102,"duration":0.2958333333333485},{"name":"F5","midi":77,"time":328.5020833333333,"velocity":0.3700787401574803,"duration":0.15208333333333712},{"name":"F#5","midi":78,"time":328.6645833333333,"velocity":0.3700787401574803,"duration":0.4479166666666856},{"name":"F#4","midi":66,"time":328.6666666666667,"velocity":0.5669291338582677,"duration":0.29583333333329165},{"name":"D5","midi":74,"time":328.825,"velocity":0.5118110236220472,"duration":0.14999999999997726},{"name":"G#4","midi":68,"time":328.98541666666665,"velocity":0.5275590551181102,"duration":1.3187500000001364},{"name":"B4","midi":71,"time":328.98541666666665,"velocity":0.5275590551181102,"duration":1.1750000000000682},{"name":"F#5","midi":78,"time":329.14375,"velocity":0.3858267716535433,"duration":0.14791666666667425},{"name":"G#5","midi":80,"time":329.3,"velocity":0.3858267716535433,"duration":0.14791666666667425},{"name":"A5","midi":81,"time":329.45625,"velocity":0.3858267716535433,"duration":0.14583333333331439},{"name":"B5","midi":83,"time":329.6166666666667,"velocity":0.3858267716535433,"duration":0.1416666666666515},{"name":"G#5","midi":80,"time":329.7729166666667,"velocity":0.3858267716535433,"duration":0.14375000000001137},{"name":"F#5","midi":78,"time":329.92708333333337,"velocity":0.3858267716535433,"duration":0.14375000000001137},{"name":"F5","midi":77,"time":330.08125000000007,"velocity":0.3858267716535433,"duration":0.14375000000001137},{"name":"C#5","midi":73,"time":330.23750000000007,"velocity":0.5275590551181102,"duration":1.3187500000000227},{"name":"A5","midi":81,"time":330.2395833333334,"velocity":0.3858267716535433,"duration":2.4750000000000796},{"name":"C#4","midi":61,"time":330.39166666666677,"velocity":0.5669291338582677,"duration":0.14375000000001137},{"name":"D#4","midi":63,"time":330.54791666666677,"velocity":0.5669291338582677,"duration":0.14583333333331439},{"name":"F4","midi":65,"time":330.70416666666677,"velocity":0.5669291338582677,"duration":0.14583333333331439},{"name":"F#4","midi":66,"time":330.86250000000007,"velocity":0.5669291338582677,"duration":0.14583333333331439},{"name":"G#4","midi":68,"time":331.01875000000007,"velocity":0.5275590551181102,"duration":0.14583333333331439},{"name":"B3","midi":59,"time":331.17500000000007,"velocity":0.5669291338582677,"duration":0.14583333333331439},{"name":"A3","midi":57,"time":331.33125000000007,"velocity":0.5669291338582677,"duration":0.14583333333331439},{"name":"B3","midi":59,"time":331.48750000000007,"velocity":0.5669291338582677,"duration":2.3270833333334053},{"name":"F#4","midi":66,"time":331.6395833333334,"velocity":0.5669291338582677,"duration":0.14375000000001137},{"name":"G4","midi":67,"time":331.7937500000001,"velocity":0.5669291338582677,"duration":0.1416666666666515},{"name":"A4","midi":69,"time":331.94583333333344,"velocity":0.5275590551181102,"duration":0.14375000000001137},{"name":"B4","midi":71,"time":332.10000000000014,"velocity":0.5275590551181102,"duration":0.14583333333331439},{"name":"C5","midi":72,"time":332.25625000000014,"velocity":0.5275590551181102,"duration":0.14375000000001137},{"name":"E4","midi":64,"time":332.41041666666683,"velocity":0.5669291338582677,"duration":0.14375000000001137},{"name":"D#4","midi":63,"time":332.56458333333353,"velocity":0.5669291338582677,"duration":0.14583333333331439},{"name":"E4","midi":64,"time":332.72083333333353,"velocity":0.5669291338582677,"duration":1.2895833333333258},{"name":"F#5","midi":78,"time":332.87500000000017,"velocity":0.4330708661417323,"duration":0.14583333333331439},{"name":"G5","midi":79,"time":333.03125000000017,"velocity":0.4330708661417323,"duration":0.14375000000001137},{"name":"A5","midi":81,"time":333.18750000000017,"velocity":0.4330708661417323,"duration":0.1416666666666515},{"name":"B5","midi":83,"time":333.3395833333335,"velocity":0.4330708661417323,"duration":0.14583333333331439},{"name":"C6","midi":84,"time":333.4958333333335,"velocity":0.4330708661417323,"duration":0.14583333333331439},{"name":"F#5","midi":78,"time":333.6520833333335,"velocity":0.4330708661417323,"duration":0.14583333333331439},{"name":"E5","midi":76,"time":333.8104166666668,"velocity":0.5275590551181102,"duration":0.14375000000001137},{"name":"F#5","midi":78,"time":333.9645833333335,"velocity":0.4330708661417323,"duration":0.7104166666667879},{"name":"A#3","midi":58,"time":333.9645833333335,"velocity":0.5669291338582677,"duration":0.2916666666666856},{"name":"E4","midi":64,"time":334.1208333333335,"velocity":0.5669291338582677,"duration":0.14583333333337123},{"name":"F#3","midi":54,"time":334.2750000000002,"velocity":0.5669291338582677,"duration":0.29791666666670835},{"name":"D4","midi":62,"time":334.27708333333356,"velocity":0.5669291338582677,"duration":0.14791666666667425},{"name":"C#4","midi":61,"time":334.4354166666669,"velocity":0.5669291338582677,"duration":0.14583333333331439},{"name":"B3","midi":59,"time":334.5916666666669,"velocity":0.5669291338582677,"duration":0.28958333333343944},{"name":"D4","midi":62,"time":334.5937500000003,"velocity":0.5669291338582677,"duration":0.2854166666667197},{"name":"F#5","midi":78,"time":334.747916666667,"velocity":0.4094488188976378,"duration":0.14166666666670835},{"name":"D5","midi":74,"time":334.9000000000004,"velocity":0.5275590551181102,"duration":0.14375000000001137},{"name":"D4","midi":62,"time":334.9000000000004,"velocity":0.5669291338582677,"duration":0.28750000000002274},{"name":"B4","midi":71,"time":335.0541666666671,"velocity":0.5275590551181102,"duration":0.14375000000001137},{"name":"G5","midi":79,"time":335.20833333333377,"velocity":0.3937007874015748,"duration":0.14583333333337123},{"name":"E4","midi":64,"time":335.21041666666713,"velocity":0.5669291338582677,"duration":0.2916666666666856},{"name":"A5","midi":81,"time":335.3645833333338,"velocity":0.3937007874015748,"duration":0.14791666666667425},{"name":"B5","midi":83,"time":335.5229166666672,"velocity":0.3937007874015748,"duration":0.5937500000000568},{"name":"E5","midi":76,"time":335.52500000000055,"velocity":0.5275590551181102,"duration":0.14583333333331439},{"name":"G4","midi":67,"time":335.52500000000055,"velocity":0.5669291338582677,"duration":0.2916666666666856},{"name":"D5","midi":74,"time":335.68125000000055,"velocity":0.5275590551181102,"duration":0.14375000000001137},{"name":"A4","midi":69,"time":335.83750000000055,"velocity":0.5275590551181102,"duration":0.2958333333333485},{"name":"C#5","midi":73,"time":335.83750000000055,"velocity":0.5275590551181102,"duration":0.14791666666667425},{"name":"D5","midi":74,"time":335.9958333333339,"velocity":0.5275590551181102,"duration":0.14999999999997726},{"name":"E5","midi":76,"time":336.15625000000057,"velocity":0.5275590551181102,"duration":0.5958333333333599},{"name":"A5","midi":81,"time":336.1583333333339,"velocity":0.3937007874015748,"duration":0.14583333333331439},{"name":"C#4","midi":61,"time":336.1583333333339,"velocity":0.5669291338582677,"duration":0.29583333333329165},{"name":"G5","midi":79,"time":336.31666666666723,"velocity":0.3937007874015748,"duration":0.14791666666667425},{"name":"F#5","midi":78,"time":336.4750000000006,"velocity":0.3937007874015748,"duration":0.14791666666667425},{"name":"D4","midi":62,"time":336.4750000000006,"velocity":0.5669291338582677,"duration":0.2958333333333485},{"name":"G5","midi":79,"time":336.63333333333395,"velocity":0.3937007874015748,"duration":0.14999999999997726},{"name":"A5","midi":81,"time":336.7937500000006,"velocity":0.3937007874015748,"duration":0.5979166666667197},{"name":"D5","midi":74,"time":336.7937500000006,"velocity":0.5275590551181102,"duration":0.14791666666667425},{"name":"F#4","midi":66,"time":336.795833333334,"velocity":0.5669291338582677,"duration":0.2958333333333485},{"name":"C#5","midi":73,"time":336.952083333334,"velocity":0.5275590551181102,"duration":0.14791666666667425},{"name":"B4","midi":71,"time":337.11250000000064,"velocity":0.5275590551181102,"duration":0.14791666666667425},{"name":"G4","midi":67,"time":337.114583333334,"velocity":0.5669291338582677,"duration":0.29374999999998863},{"name":"C#5","midi":73,"time":337.270833333334,"velocity":0.5275590551181102,"duration":0.14999999999997726},{"name":"D5","midi":74,"time":337.43125000000066,"velocity":0.5275590551181102,"duration":0.595833333333303},{"name":"G5","midi":79,"time":337.43125000000066,"velocity":0.3937007874015748,"duration":0.14583333333337123},{"name":"B3","midi":59,"time":337.433333333334,"velocity":0.5669291338582677,"duration":0.29374999999998863},{"name":"F#5","midi":78,"time":337.589583333334,"velocity":0.3937007874015748,"duration":0.14791666666667425},{"name":"E5","midi":76,"time":337.7500000000007,"velocity":0.5275590551181102,"duration":0.14999999999997726},{"name":"C#4","midi":61,"time":337.7500000000007,"velocity":0.5669291338582677,"duration":0.29791666666659467},{"name":"F#5","midi":78,"time":337.908333333334,"velocity":0.3937007874015748,"duration":0.1479166666666174},{"name":"G5","midi":79,"time":338.0666666666673,"velocity":0.3937007874015748,"duration":0.589583333333394},{"name":"C#5","midi":73,"time":338.06875000000065,"velocity":0.5275590551181102,"duration":0.14583333333331439},{"name":"E4","midi":64,"time":338.06875000000065,"velocity":0.5669291338582677,"duration":0.29374999999998863},{"name":"B4","midi":71,"time":338.22500000000065,"velocity":0.5275590551181102,"duration":0.14791666666667425},{"name":"A#4","midi":70,"time":338.383333333334,"velocity":0.5275590551181102,"duration":0.14791666666667425},{"name":"F#4","midi":66,"time":338.383333333334,"velocity":0.5669291338582677,"duration":0.29374999999998863},{"name":"B4","midi":71,"time":338.54166666666737,"velocity":0.5275590551181102,"duration":0.14583333333331439},{"name":"C#5","midi":73,"time":338.69791666666737,"velocity":0.5275590551181102,"duration":0.8770833333333599},{"name":"F#5","midi":78,"time":338.69791666666737,"velocity":0.3937007874015748,"duration":0.14583333333337123},{"name":"A#3","midi":58,"time":338.7000000000007,"velocity":0.5669291338582677,"duration":0.28958333333332575},{"name":"E5","midi":76,"time":338.85208333333406,"velocity":0.5275590551181102,"duration":0.14791666666667425},{"name":"D5","midi":74,"time":339.0104166666674,"velocity":0.5275590551181102,"duration":0.7333333333333485},{"name":"B3","midi":59,"time":339.0104166666674,"velocity":0.5669291338582677,"duration":0.1416666666666515},{"name":"F#3","midi":54,"time":339.16458333333406,"velocity":0.5669291338582677,"duration":0.14375000000001137},{"name":"G3","midi":55,"time":339.32083333333406,"velocity":0.5669291338582677,"duration":0.14583333333331439},{"name":"A3","midi":57,"time":339.47708333333406,"velocity":0.5669291338582677,"duration":0.14375000000001137},{"name":"B4","midi":71,"time":339.63333333333406,"velocity":0.5275590551181102,"duration":0.2937500000000455},{"name":"B3","midi":59,"time":339.6354166666674,"velocity":0.5669291338582677,"duration":0.14375000000001137},{"name":"E5","midi":76,"time":339.7895833333341,"velocity":0.5118110236220472,"duration":0.14999999999997726},{"name":"C4","midi":60,"time":339.7895833333341,"velocity":0.5669291338582677,"duration":0.14999999999997726},{"name":"F#5","midi":78,"time":339.9500000000008,"velocity":0.3937007874015748,"duration":0.595833333333303},{"name":"A4","midi":69,"time":339.9500000000008,"velocity":0.5275590551181102,"duration":0.29583333333329165},{"name":"E3","midi":52,"time":339.9500000000008,"velocity":0.5669291338582677,"duration":0.14583333333331439},{"name":"D#3","midi":51,"time":340.1083333333341,"velocity":0.5669291338582677,"duration":0.14791666666667425},{"name":"E3","midi":52,"time":340.26875000000075,"velocity":0.5669291338582677,"duration":0.29374999999998863},{"name":"G4","midi":67,"time":340.26875000000075,"velocity":0.5669291338582677,"duration":0.14791666666667425},{"name":"A4","midi":69,"time":340.4270833333341,"velocity":0.5275590551181102,"duration":0.1479166666666174},{"name":"E5","midi":76,"time":340.5854166666674,"velocity":0.5118110236220472,"duration":0.14791666666667425},{"name":"B4","midi":71,"time":340.5875000000008,"velocity":0.5275590551181102,"duration":0.5833333333333712},{"name":"G3","midi":55,"time":340.5875000000008,"velocity":0.5669291338582677,"duration":0.28958333333332575},{"name":"D5","midi":74,"time":340.7437500000008,"velocity":0.5118110236220472,"duration":0.14375000000001137},{"name":"C#5","midi":73,"time":340.89791666666747,"velocity":0.5275590551181102,"duration":0.14375000000001137},{"name":"A3","midi":57,"time":340.90000000000083,"velocity":0.5669291338582677,"duration":0.2874999999999659},{"name":"D5","midi":74,"time":341.05208333333417,"velocity":0.5118110236220472,"duration":0.14583333333331439},{"name":"E5","midi":76,"time":341.21041666666747,"velocity":0.5118110236220472,"duration":0.5937500000001137},{"name":"A4","midi":69,"time":341.21041666666747,"velocity":0.5275590551181102,"duration":0.14583333333337123},{"name":"C#4","midi":61,"time":341.21250000000083,"velocity":0.5669291338582677,"duration":0.2937500000000455},{"name":"G4","midi":67,"time":341.3666666666675,"velocity":0.5669291338582677,"duration":0.1500000000000341},{"name":"F#4","midi":66,"time":341.5250000000009,"velocity":0.5669291338582677,"duration":0.1500000000000341},{"name":"D4","midi":62,"time":341.52708333333425,"velocity":0.5669291338582677,"duration":0.2958333333333485},{"name":"G4","midi":67,"time":341.6854166666676,"velocity":0.5669291338582677,"duration":0.14583333333331439},{"name":"D5","midi":74,"time":341.8437500000009,"velocity":0.5118110236220472,"duration":0.14583333333337123},{"name":"A4","midi":69,"time":341.84583333333427,"velocity":0.5275590551181102,"duration":0.5812500000000114},{"name":"F#3","midi":54,"time":341.84583333333427,"velocity":0.5669291338582677,"duration":0.28750000000002274},{"name":"C#5","midi":73,"time":342.00000000000097,"velocity":0.5275590551181102,"duration":0.1416666666666515},{"name":"B4","midi":71,"time":342.1541666666676,"velocity":0.5275590551181102,"duration":0.14583333333331439},{"name":"G3","midi":55,"time":342.1541666666676,"velocity":0.5669291338582677,"duration":0.2916666666666856},{"name":"C#5","midi":73,"time":342.3104166666676,"velocity":0.5275590551181102,"duration":0.14583333333337123},{"name":"D5","midi":74,"time":342.46875000000097,"velocity":0.5275590551181102,"duration":0.6000000000000796},{"name":"G4","midi":67,"time":342.46875000000097,"velocity":0.5669291338582677,"duration":0.14791666666667425},{"name":"B3","midi":59,"time":342.4708333333343,"velocity":0.5669291338582677,"duration":0.29583333333329165},{"name":"F#4","midi":66,"time":342.62500000000097,"velocity":0.5669291338582677,"duration":0.15208333333333712},{"name":"C#4","midi":61,"time":342.787500000001,"velocity":0.5669291338582677,"duration":0.29791666666670835},{"name":"E4","midi":64,"time":342.78958333333435,"velocity":0.5669291338582677,"duration":0.14791666666667425},{"name":"F#4","midi":66,"time":342.9479166666677,"velocity":0.5669291338582677,"duration":0.14791666666667425},{"name":"C#5","midi":73,"time":343.1083333333344,"velocity":0.5275590551181102,"duration":0.14583333333337123},{"name":"G4","midi":67,"time":343.1083333333344,"velocity":0.5669291338582677,"duration":0.5895833333333371},{"name":"E3","midi":52,"time":343.11041666666773,"velocity":0.5669291338582677,"duration":0.2916666666666856},{"name":"B4","midi":71,"time":343.26666666666773,"velocity":0.5275590551181102,"duration":0.14583333333337123},{"name":"A#4","midi":70,"time":343.4250000000011,"velocity":0.5275590551181102,"duration":0.14583333333331439},{"name":"F#3","midi":54,"time":343.4250000000011,"velocity":0.5669291338582677,"duration":0.29166666666662877},{"name":"B4","midi":71,"time":343.57916666666773,"velocity":0.5275590551181102,"duration":0.14583333333331439},{"name":"C#5","midi":73,"time":343.73750000000103,"velocity":0.5275590551181102,"duration":0.43750000000005684},{"name":"F#4","midi":66,"time":343.73750000000103,"velocity":0.5669291338582677,"duration":0.14375000000001137},{"name":"A#3","midi":58,"time":343.7395833333344,"velocity":0.5669291338582677,"duration":0.28750000000002274},{"name":"E4","midi":64,"time":343.89166666666773,"velocity":0.5669291338582677,"duration":0.14583333333337123},{"name":"D4","midi":62,"time":344.0500000000011,"velocity":0.5669291338582677,"duration":0.5791666666666515},{"name":"B3","midi":59,"time":344.05208333333445,"velocity":0.5669291338582677,"duration":0.28541666666660603},{"name":"F#4","midi":66,"time":344.20416666666773,"velocity":0.5669291338582677,"duration":0.14375000000001137},{"name":"G#4","midi":68,"time":344.36041666666773,"velocity":0.5275590551181102,"duration":0.14375000000001137},{"name":"F#3","midi":54,"time":344.3625000000011,"velocity":0.5669291338582677,"duration":0.2854166666666629},{"name":"A#4","midi":70,"time":344.51458333333443,"velocity":0.5275590551181102,"duration":0.14375000000001137},{"name":"B4","midi":71,"time":344.6687500000011,"velocity":0.5275590551181102,"duration":0.8812500000000796},{"name":"D3","midi":50,"time":344.6708333333345,"velocity":0.5669291338582677,"duration":0.28750000000002274},{"name":"C#5","midi":73,"time":344.8229166666678,"velocity":0.5275590551181102,"duration":0.14583333333337123},{"name":"D5","midi":74,"time":344.9812500000012,"velocity":0.5275590551181102,"duration":0.14375000000001137},{"name":"B2","midi":47,"time":344.9812500000012,"velocity":0.5669291338582677,"duration":0.28958333333332575},{"name":"F#5","midi":78,"time":345.1375000000012,"velocity":0.4330708661417323,"duration":0.14375000000001137},{"name":"E5","midi":76,"time":345.2937500000012,"velocity":0.5275590551181102,"duration":0.14583333333331439},{"name":"G3","midi":55,"time":345.2937500000012,"velocity":0.5669291338582677,"duration":0.2937500000000455},{"name":"C#5","midi":73,"time":345.4500000000012,"velocity":0.5275590551181102,"duration":0.14583333333337123},{"name":"D5","midi":74,"time":345.60625000000124,"velocity":0.5275590551181102,"duration":0.14791666666667425},{"name":"A#4","midi":70,"time":345.6083333333346,"velocity":0.5275590551181102,"duration":0.29374999999998863},{"name":"F#3","midi":54,"time":345.6083333333346,"velocity":0.5669291338582677,"duration":0.29374999999998863},{"name":"F#5","midi":78,"time":345.7645833333346,"velocity":0.4330708661417323,"duration":0.14791666666667425},{"name":"G5","midi":79,"time":345.92291666666796,"velocity":0.4330708661417323,"duration":0.14791666666667425},{"name":"D5","midi":74,"time":345.9250000000013,"velocity":0.5275590551181102,"duration":0.29583333333329165},{"name":"B3","midi":59,"time":345.9250000000013,"velocity":0.5669291338582677,"duration":0.29583333333329165},{"name":"E5","midi":76,"time":346.0833333333346,"velocity":0.5275590551181102,"duration":0.14791666666667425},{"name":"C#5","midi":73,"time":346.241666666668,"velocity":0.5275590551181102,"duration":0.29791666666670835},{"name":"F#5","midi":78,"time":346.241666666668,"velocity":0.4330708661417323,"duration":0.1500000000000341},{"name":"A#3","midi":58,"time":346.24375000000134,"velocity":0.5669291338582677,"duration":0.2958333333333485},{"name":"A#5","midi":82,"time":346.40000000000134,"velocity":0.4330708661417323,"duration":0.1500000000000341},{"name":"B5","midi":83,"time":346.56041666666806,"velocity":0.4330708661417323,"duration":0.14791666666667425},{"name":"F#5","midi":78,"time":346.5625000000014,"velocity":0.4330708661417323,"duration":0.2979166666666515},{"name":"E3","midi":52,"time":346.5625000000014,"velocity":0.5669291338582677,"duration":0.29583333333329165},{"name":"A5","midi":81,"time":346.7208333333347,"velocity":0.4330708661417323,"duration":0.14791666666667425},{"name":"G5","midi":79,"time":346.8791666666681,"velocity":0.4330708661417323,"duration":0.1500000000000341},{"name":"D#3","midi":51,"time":346.8791666666681,"velocity":0.5669291338582677,"duration":0.29791666666670835},{"name":"B2","midi":47,"time":346.88125000000144,"velocity":0.5669291338582677,"duration":0.2958333333333485},{"name":"F#5","midi":78,"time":347.0395833333348,"velocity":0.4330708661417323,"duration":0.14791666666667425},{"name":"E5","midi":76,"time":347.20000000000147,"velocity":0.5275590551181102,"duration":0.14583333333331439},{"name":"E3","midi":52,"time":347.20000000000147,"velocity":0.5669291338582677,"duration":1.1833333333332803},{"name":"G2","midi":43,"time":347.20000000000147,"velocity":0.5669291338582677,"duration":0.29374999999998863},{"name":"D5","midi":74,"time":347.35625000000147,"velocity":0.5275590551181102,"duration":0.14583333333331439},{"name":"C5","midi":72,"time":347.51458333333477,"velocity":0.5275590551181102,"duration":0.14583333333337123},{"name":"E2","midi":40,"time":347.51666666666813,"velocity":0.5669291338582677,"duration":0.28958333333332575},{"name":"B4","midi":71,"time":347.67291666666813,"velocity":0.5275590551181102,"duration":0.14583333333331439},{"name":"A4","midi":69,"time":347.82916666666813,"velocity":0.5275590551181102,"duration":0.14583333333331439},{"name":"C3","midi":48,"time":347.82916666666813,"velocity":0.5669291338582677,"duration":0.29166666666662877},{"name":"F#4","midi":66,"time":347.98333333333477,"velocity":0.5669291338582677,"duration":0.14791666666667425},{"name":"G4","midi":67,"time":348.14375000000143,"velocity":0.5669291338582677,"duration":0.14791666666667425},{"name":"B2","midi":47,"time":348.14375000000143,"velocity":0.5669291338582677,"duration":0.29374999999998863},{"name":"B4","midi":71,"time":348.30000000000143,"velocity":0.5275590551181102,"duration":0.14791666666667425},{"name":"C5","midi":72,"time":348.45625000000143,"velocity":0.5275590551181102,"duration":0.14375000000001137},{"name":"F#3","midi":54,"time":348.4583333333348,"velocity":0.5669291338582677,"duration":0.5854166666666742},{"name":"E3","midi":52,"time":348.4583333333348,"velocity":0.5669291338582677,"duration":0.28958333333332575},{"name":"A4","midi":69,"time":348.61250000000143,"velocity":0.5275590551181102,"duration":0.14375000000001137},{"name":"B4","midi":71,"time":348.76666666666813,"velocity":0.5275590551181102,"duration":0.44375000000002274},{"name":"D#3","midi":51,"time":348.7687500000015,"velocity":0.5669291338582677,"duration":0.29166666666662877},{"name":"D#5","midi":75,"time":348.9250000000015,"velocity":0.5275590551181102,"duration":0.1479166666666174},{"name":"E5","midi":76,"time":349.0833333333348,"velocity":0.5275590551181102,"duration":0.589583333333394},{"name":"E3","midi":52,"time":349.08541666666815,"velocity":0.5669291338582677,"duration":0.5854166666666742},{"name":"A2","midi":45,"time":349.08541666666815,"velocity":0.5669291338582677,"duration":0.2916666666666856},{"name":"C#5","midi":73,"time":349.24166666666815,"velocity":0.5275590551181102,"duration":0.14583333333337123},{"name":"B4","midi":71,"time":349.4000000000015,"velocity":0.5275590551181102,"duration":0.14583333333331439},{"name":"G#2","midi":44,"time":349.4000000000015,"velocity":0.5669291338582677,"duration":0.2916666666666856},{"name":"A4","midi":69,"time":349.55416666666815,"velocity":0.5275590551181102,"duration":0.14583333333337123},{"name":"G#4","midi":68,"time":349.7125000000015,"velocity":0.5275590551181102,"duration":0.5895833333333371},{"name":"D5","midi":74,"time":349.7125000000015,"velocity":0.5275590551181102,"duration":0.5895833333333371},{"name":"F3","midi":53,"time":349.7145833333349,"velocity":0.5669291338582677,"duration":0.2854166666666629},{"name":"B3","midi":59,"time":349.8666666666682,"velocity":0.5669291338582677,"duration":0.14375000000001137},{"name":"E3","midi":52,"time":350.0229166666682,"velocity":0.5669291338582677,"duration":0.29583333333329165},{"name":"C#4","midi":61,"time":350.0229166666682,"velocity":0.5669291338582677,"duration":0.14583333333331439},{"name":"D4","midi":62,"time":350.1812500000015,"velocity":0.5669291338582677,"duration":0.14791666666667425},{"name":"C#5","midi":73,"time":350.3416666666682,"velocity":0.5275590551181102,"duration":0.620833333333394},{"name":"E4","midi":64,"time":350.34375000000153,"velocity":0.5669291338582677,"duration":0.466666666666697},{"name":"B2","midi":47,"time":350.34375000000153,"velocity":0.5669291338582677,"duration":0.3083333333333371},{"name":"G4","midi":67,"time":350.50833333333486,"velocity":0.5669291338582677,"duration":0.310416666666697},{"name":"A#2","midi":46,"time":350.67500000000155,"velocity":0.5669291338582677,"duration":0.30416666666667425},{"name":"E4","midi":64,"time":350.8395833333349,"velocity":0.5669291338582677,"duration":0.1500000000000341},{"name":"F#4","midi":66,"time":350.84166666666823,"velocity":0.5669291338582677,"duration":0.29791666666670835},{"name":"B4","midi":71,"time":351.0020833333349,"velocity":0.5275590551181102,"duration":0.7416666666669016},{"name":"D4","midi":62,"time":351.0020833333349,"velocity":0.5669291338582677,"duration":0.1479166666667311},{"name":"G3","midi":55,"time":351.00416666666825,"velocity":0.5669291338582677,"duration":0.29166666666674246},{"name":"C#4","midi":61,"time":351.1604166666683,"velocity":0.5669291338582677,"duration":0.14791666666667425},{"name":"E4","midi":64,"time":351.1604166666683,"velocity":0.5669291338582677,"duration":0.14791666666667425},{"name":"F#3","midi":54,"time":351.31875000000167,"velocity":0.5669291338582677,"duration":0.2937500000000455},{"name":"D4","midi":62,"time":351.32083333333503,"velocity":0.5669291338582677,"duration":0.14583333333331439},{"name":"B3","midi":59,"time":351.32083333333503,"velocity":0.5669291338582677,"duration":0.14583333333331439},{"name":"A3","midi":57,"time":351.47500000000167,"velocity":0.5669291338582677,"duration":0.1479166666667311},{"name":"E4","midi":64,"time":351.47708333333503,"velocity":0.5669291338582677,"duration":0.14583333333337123},{"name":"C#4","midi":61,"time":351.6333333333351,"velocity":0.5669291338582677,"duration":0.5833333333334849},{"name":"G#3","midi":56,"time":351.63541666666845,"velocity":0.5669291338582677,"duration":0.29166666666674246},{"name":"E3","midi":52,"time":351.63541666666845,"velocity":0.5669291338582677,"duration":0.2895833333333826},{"name":"A#4","midi":70,"time":351.78958333333514,"velocity":0.5275590551181102,"duration":0.14583333333337123},{"name":"B4","midi":71,"time":351.9458333333352,"velocity":0.5275590551181102,"duration":0.14375000000001137},{"name":"F#3","midi":54,"time":351.94791666666856,"velocity":0.5669291338582677,"duration":0.4312500000000341},{"name":"A#4","midi":70,"time":352.1000000000019,"velocity":0.5275590551181102,"duration":0.14375000000001137},{"name":"B4","midi":71,"time":352.2541666666686,"velocity":0.5275590551181102,"duration":0.7416666666667311},{"name":"D3","midi":50,"time":352.2541666666686,"velocity":0.5669291338582677,"duration":0.28958333333332575},{"name":"F#4","midi":66,"time":352.40833333333524,"velocity":0.5669291338582677,"duration":0.14583333333337123},{"name":"A3","midi":57,"time":352.40833333333524,"velocity":0.5669291338582677,"duration":0.14583333333337123},{"name":"E4","midi":64,"time":352.5666666666686,"velocity":0.5669291338582677,"duration":0.14791666666667425},{"name":"G3","midi":55,"time":352.5666666666686,"velocity":0.5669291338582677,"duration":0.14791666666667425},{"name":"B2","midi":47,"time":352.56875000000196,"velocity":0.5669291338582677,"duration":0.2958333333333485},{"name":"F#3","midi":54,"time":352.72500000000196,"velocity":0.5669291338582677,"duration":0.1500000000000341},{"name":"D4","midi":62,"time":352.72500000000196,"velocity":0.5669291338582677,"duration":0.1500000000000341},{"name":"C#3","midi":49,"time":352.8833333333353,"velocity":0.5669291338582677,"duration":1.193749999999909},{"name":"E3","midi":52,"time":352.8854166666687,"velocity":0.5669291338582677,"duration":1.1895833333331893},{"name":"C#4","midi":61,"time":352.8854166666687,"velocity":0.5669291338582677,"duration":1.1916666666665492},{"name":"C#5","midi":73,"time":353.043750000002,"velocity":0.5275590551181102,"duration":0.14791666666667425},{"name":"D5","midi":74,"time":353.20416666666864,"velocity":0.5275590551181102,"duration":0.14791666666667425},{"name":"E5","midi":76,"time":353.3645833333353,"velocity":0.5275590551181102,"duration":0.14583333333331439},{"name":"F#5","midi":78,"time":353.5229166666686,"velocity":0.4330708661417323,"duration":0.14583333333331439},{"name":"G5","midi":79,"time":353.6812500000019,"velocity":0.4330708661417323,"duration":0.14375000000001137},{"name":"B4","midi":71,"time":353.8375000000019,"velocity":0.5275590551181102,"duration":0.14583333333331439},{"name":"A#4","midi":70,"time":353.9958333333352,"velocity":0.5275590551181102,"duration":0.14583333333337123},{"name":"B4","midi":71,"time":354.15208333333527,"velocity":0.5275590551181102,"duration":0.14583333333337123},{"name":"D3","midi":50,"time":354.15416666666863,"velocity":0.5669291338582677,"duration":0.5854166666666742},{"name":"F#3","midi":54,"time":354.15416666666863,"velocity":0.5669291338582677,"duration":0.5875000000000341},{"name":"B3","midi":59,"time":354.15416666666863,"velocity":0.5669291338582677,"duration":0.5875000000000341},{"name":"D5","midi":74,"time":354.31041666666863,"velocity":0.5275590551181102,"duration":0.14375000000001137},{"name":"E5","midi":76,"time":354.46666666666863,"velocity":0.5275590551181102,"duration":0.14583333333331439},{"name":"F#5","midi":78,"time":354.62291666666863,"velocity":0.4330708661417323,"duration":0.14583333333337123},{"name":"G5","midi":79,"time":354.7791666666687,"velocity":0.4330708661417323,"duration":0.14583333333331439},{"name":"A5","midi":81,"time":354.937500000002,"velocity":0.4330708661417323,"duration":0.1416666666666515},{"name":"C5","midi":72,"time":355.093750000002,"velocity":0.5275590551181102,"duration":0.14375000000001137},{"name":"F#4","midi":66,"time":355.093750000002,"velocity":0.5669291338582677,"duration":0.2895833333333826},{"name":"A3","midi":57,"time":355.09583333333535,"velocity":0.5669291338582677,"duration":0.28750000000002274},{"name":"D#3","midi":51,"time":355.09583333333535,"velocity":0.5669291338582677,"duration":0.2854166666666629},{"name":"B4","midi":71,"time":355.250000000002,"velocity":0.5275590551181102,"duration":0.1437500000000682},{"name":"C5","midi":72,"time":355.4020833333354,"velocity":0.5275590551181102,"duration":0.14583333333337123},{"name":"G3","midi":55,"time":355.40416666666874,"velocity":0.5669291338582677,"duration":0.5791666666667084},{"name":"E4","midi":64,"time":355.40416666666874,"velocity":0.5669291338582677,"duration":0.5812500000000682},{"name":"E3","midi":52,"time":355.4062500000021,"velocity":0.5669291338582677,"duration":0.5770833333333485},{"name":"E5","midi":76,"time":355.5562500000021,"velocity":0.5275590551181102,"duration":0.14583333333331439},{"name":"F#5","midi":78,"time":355.7125000000021,"velocity":0.4330708661417323,"duration":0.14375000000001137},{"name":"G5","midi":79,"time":355.8666666666688,"velocity":0.4330708661417323,"duration":0.14375000000001137},{"name":"A#5","midi":82,"time":356.0208333333355,"velocity":0.4330708661417323,"duration":0.14583333333331439},{"name":"B5","midi":83,"time":356.1770833333355,"velocity":0.4330708661417323,"duration":0.1416666666666515},{"name":"D5","midi":74,"time":356.3312500000021,"velocity":0.5275590551181102,"duration":0.14375000000001137},{"name":"B3","midi":59,"time":356.3312500000021,"velocity":0.5669291338582677,"duration":0.2895833333333826},{"name":"F3","midi":53,"time":356.3333333333355,"velocity":0.5669291338582677,"duration":0.2854166666666629},{"name":"C#5","midi":73,"time":356.4854166666688,"velocity":0.5275590551181102,"duration":0.14583333333337123},{"name":"D5","midi":74,"time":356.64166666666887,"velocity":0.5275590551181102,"duration":1.2020833333334053},{"name":"A#3","midi":58,"time":356.64166666666887,"velocity":0.5669291338582677,"duration":0.14791666666667425},{"name":"F#3","midi":54,"time":356.6437500000022,"velocity":0.5669291338582677,"duration":0.13749999999998863},{"name":"F#3","midi":54,"time":356.8000000000022,"velocity":0.5669291338582677,"duration":0.14999999999997726},{"name":"G#3","midi":56,"time":356.9604166666689,"velocity":0.5669291338582677,"duration":0.15416666666669698},{"name":"F#4","midi":66,"time":356.96250000000225,"velocity":0.5669291338582677,"duration":0.30416666666667425},{"name":"A#3","midi":58,"time":357.1250000000023,"velocity":0.5669291338582677,"duration":0.15208333333333712},{"name":"D4","midi":62,"time":357.2875000000023,"velocity":0.5669291338582677,"duration":0.16041666666666288},{"name":"B3","midi":59,"time":357.2875000000023,"velocity":0.5669291338582677,"duration":0.14999999999997726},{"name":"C#4","midi":61,"time":357.44791666666896,"velocity":0.5669291338582677,"duration":0.14583333333331439},{"name":"D4","midi":62,"time":357.6020833333356,"velocity":0.5669291338582677,"duration":0.26249999999998863},{"name":"B3","midi":59,"time":357.60416666666896,"velocity":0.5669291338582677,"duration":0.13125000000002274},{"name":"B3","midi":59,"time":357.76041666666896,"velocity":0.5669291338582677,"duration":0.2958333333333485},{"name":"C#5","midi":73,"time":357.91875000000226,"velocity":0.5275590551181102,"duration":1.7895833333334394},{"name":"G4","midi":67,"time":357.9208333333356,"velocity":0.5669291338582677,"duration":0.29374999999998863},{"name":"B3","midi":59,"time":358.0770833333356,"velocity":0.5669291338582677,"duration":0.14999999999997726},{"name":"F#4","midi":66,"time":358.2375000000023,"velocity":0.5669291338582677,"duration":0.2979166666666515},{"name":"A#3","midi":58,"time":358.2375000000023,"velocity":0.5669291338582677,"duration":0.14999999999997726},{"name":"B3","midi":59,"time":358.39791666666895,"velocity":0.5669291338582677,"duration":0.14791666666667425},{"name":"B4","midi":71,"time":358.5562500000023,"velocity":0.5275590551181102,"duration":0.2958333333333485},{"name":"C#4","midi":61,"time":358.55833333333567,"velocity":0.5669291338582677,"duration":0.14583333333331439},{"name":"D4","midi":62,"time":358.71458333333567,"velocity":0.5669291338582677,"duration":0.14791666666667425},{"name":"A#4","midi":70,"time":358.87500000000233,"velocity":0.5275590551181102,"duration":0.29374999999998863},{"name":"E4","midi":64,"time":358.87500000000233,"velocity":0.5669291338582677,"duration":0.14583333333331439},{"name":"C#4","midi":61,"time":359.03333333333563,"velocity":0.5669291338582677,"duration":0.14583333333337123},{"name":"F#4","midi":66,"time":359.191666666669,"velocity":0.5669291338582677,"duration":0.5937500000000568},{"name":"E4","midi":64,"time":359.191666666669,"velocity":0.5669291338582677,"duration":0.2937500000000455},{"name":"A#2","midi":46,"time":359.35000000000235,"velocity":0.5669291338582677,"duration":0.14583333333337123},{"name":"D#4","midi":63,"time":359.5083333333357,"velocity":0.5669291338582677,"duration":0.2958333333333485},{"name":"B2","midi":47,"time":359.5083333333357,"velocity":0.5669291338582677,"duration":0.14583333333331439},{"name":"C#3","midi":49,"time":359.666666666669,"velocity":0.5669291338582677,"duration":0.1479166666667311},{"name":"C5","midi":72,"time":359.82708333333574,"velocity":0.5275590551181102,"duration":0.1500000000000341},{"name":"D#3","midi":51,"time":359.8291666666691,"velocity":0.5669291338582677,"duration":0.14791666666667425},{"name":"A#4","midi":70,"time":359.98750000000246,"velocity":0.5275590551181102,"duration":0.14791666666667425},{"name":"E3","midi":52,"time":359.9895833333358,"velocity":0.5669291338582677,"duration":0.14583333333331439},{"name":"B4","midi":71,"time":360.1479166666691,"velocity":0.5275590551181102,"duration":0.9958333333335645},{"name":"D4","midi":62,"time":360.1500000000025,"velocity":0.5669291338582677,"duration":0.3250000000000455},{"name":"G#4","midi":68,"time":360.1500000000025,"velocity":0.5669291338582677,"duration":0.3250000000000455},{"name":"F#2","midi":42,"time":360.1500000000025,"velocity":0.5669291338582677,"duration":0.14583333333331439},{"name":"F2","midi":41,"time":360.3062500000025,"velocity":0.5669291338582677,"duration":0.14791666666667425},{"name":"C#4","midi":61,"time":360.46666666666914,"velocity":0.5669291338582677,"duration":1.310416666667038},{"name":"F#4","midi":66,"time":360.46666666666914,"velocity":0.5669291338582677,"duration":0.33125000000012506},{"name":"F#2","midi":42,"time":360.4687500000025,"velocity":0.5669291338582677,"duration":1.3062500000003183},{"name":"B2","midi":47,"time":360.62708333333586,"velocity":0.5669291338582677,"duration":0.1645833333333826},{"name":"C#3","midi":49,"time":360.7895833333359,"velocity":0.5669291338582677,"duration":0.16666666666674246},{"name":"F4","midi":65,"time":360.79166666666924,"velocity":0.5669291338582677,"duration":0.33125000000012506},{"name":"D3","midi":50,"time":360.95416666666927,"velocity":0.5669291338582677,"duration":0.16458333333343944},{"name":"A#4","midi":70,"time":361.114583333336,"velocity":0.5275590551181102,"duration":0.6854166666669244},{"name":"E3","midi":52,"time":361.114583333336,"velocity":0.5669291338582677,"duration":0.16250000000007958},{"name":"F#4","midi":66,"time":361.11666666666935,"velocity":0.5669291338582677,"duration":0.5000000000001137},{"name":"C#3","midi":49,"time":361.2750000000027,"velocity":0.5669291338582677,"duration":0.1645833333333826},{"name":"F#3","midi":54,"time":361.4354166666694,"velocity":0.5669291338582677,"duration":4.416666666666799},{"name":"E4","midi":64,"time":361.6020833333361,"velocity":0.5669291338582677,"duration":0.1708333333333485},{"name":"B4","midi":71,"time":361.77916666666954,"velocity":0.4094488188976378,"duration":4.112500000000068},{"name":"B3","midi":59,"time":361.77916666666954,"velocity":0.44881889763779526,"duration":4.112500000000068},{"name":"D#4","midi":63,"time":361.7812500000029,"velocity":0.44881889763779526,"duration":4.1083333333333485},{"name":"B2","midi":47,"time":361.7812500000029,"velocity":0.4566929133858268,"duration":4.1083333333333485}],"controlChanges":{"7":[{"number":7,"time":0,"value":0.8267716535433071},{"number":7,"time":0,"value":0.7874015748031497},{"number":7,"time":0,"value":0.7874015748031497},{"number":7,"time":5.59375,"value":1}],"10":[{"number":10,"time":0,"value":0.49606299212598426},{"number":10,"time":0,"value":0.5039370078740157},{"number":10,"time":0,"value":0.3779527559055118},{"number":10,"time":5.752083333333334,"value":0.6220472440944882},{"number":10,"time":5.800000000000001,"value":0.47244094488188976},{"number":10,"time":5.802083333333334,"value":0.5275590551181102},{"number":10,"time":5.841666666666668,"value":0.5905511811023622},{"number":10,"time":5.8708333333333345,"value":0.5196850393700787},{"number":10,"time":5.872916666666668,"value":0.4566929133858268},{"number":10,"time":5.893750000000001,"value":0.4330708661417323},{"number":10,"time":5.920833333333334,"value":0.5826771653543307},{"number":10,"time":5.931250000000001,"value":0.4645669291338583}],"64":[{"number":64,"time":369.9541666666696,"value":0},{"number":64,"time":369.95625000000297,"value":0},{"number":64,"time":369.9583333333363,"value":0},{"number":64,"time":370.087500000003,"value":0},{"number":64,"time":370.08958333333635,"value":0},{"number":64,"time":370.0916666666697,"value":0}]},"id":0,"name":"--------","instrumentNumber":0,"instrument":"acoustic grand piano","instrumentFamily":"piano","channelNumber":0,"isPercussion":false}]}