{"header":{"PPQ":384,"timeSignature":[4,4],"bpm":120,"name":"--------"},"startTime":0,"duration":184.23307291666538,"tracks":[{"startTime":0,"duration":0,"length":0,"notes":[],"controlChanges":{},"id":0,"name":"--------"},{"startTime":0.08333333333333333,"duration":184.23307291666538,"length":1553,"notes":[{"name":"D3","midi":50,"time":0.08333333333333333,"velocity":0.7244094488188977,"duration":0.9869791666666669},{"name":"D5","midi":74,"time":0.20703125,"velocity":0.7244094488188977,"duration":0.125},{"name":"E5","midi":76,"time":0.3307291666666667,"velocity":0.7244094488188977,"duration":0.12499999999999994},{"name":"F#5","midi":78,"time":0.4544270833333333,"velocity":0.7244094488188977,"duration":0.12500000000000006},{"name":"A4","midi":69,"time":0.578125,"velocity":0.7244094488188977,"duration":0.9882812499999998},{"name":"D4","midi":62,"time":0.578125,"velocity":0.7244094488188977,"duration":0.9869791666666665},{"name":"F#5","midi":78,"time":0.7018229166666667,"velocity":0.7244094488188977,"duration":0.125},{"name":"E5","midi":76,"time":0.8255208333333334,"velocity":0.7244094488188977,"duration":0.1250000000000001},{"name":"D5","midi":74,"time":0.9492187500000001,"velocity":0.7244094488188977,"duration":0.1250000000000001},{"name":"A5","midi":81,"time":1.072916666666667,"velocity":0.7244094488188977,"duration":0.12499999999999978},{"name":"F#3","midi":54,"time":1.072916666666667,"velocity":0.7244094488188977,"duration":0.9869791666666656},{"name":"D5","midi":74,"time":1.1966145833333335,"velocity":0.7244094488188977,"duration":0.12499999999999978},{"name":"E5","midi":76,"time":1.3203125,"velocity":0.7244094488188977,"duration":0.12499999999999978},{"name":"F#5","midi":78,"time":1.4440104166666665,"velocity":0.7244094488188977,"duration":0.12499999999999978},{"name":"A4","midi":69,"time":1.567708333333333,"velocity":0.7244094488188977,"duration":0.49218749999999956},{"name":"D4","midi":62,"time":1.567708333333333,"velocity":0.7244094488188977,"duration":0.49218749999999956},{"name":"F#5","midi":78,"time":1.6914062499999996,"velocity":0.7244094488188977,"duration":0.125},{"name":"E5","midi":76,"time":1.8151041666666663,"velocity":0.7244094488188977,"duration":0.12499999999999978},{"name":"D5","midi":74,"time":1.9388020833333328,"velocity":0.7244094488188977,"duration":0.12499999999999978},{"name":"G5","midi":79,"time":2.062499999999999,"velocity":0.7244094488188977,"duration":0.12500000000000044},{"name":"E3","midi":52,"time":2.062499999999999,"velocity":0.7244094488188977,"duration":0.9869791666666679},{"name":"E5","midi":76,"time":2.186197916666666,"velocity":0.7244094488188977,"duration":0.12500000000000044},{"name":"F#5","midi":78,"time":2.309895833333333,"velocity":0.7244094488188977,"duration":0.12500000000000044},{"name":"G5","midi":79,"time":2.43359375,"velocity":0.7244094488188977,"duration":0.12500000000000044},{"name":"B4","midi":71,"time":2.557291666666667,"velocity":0.7244094488188977,"duration":0.3697916666666665},{"name":"D4","midi":62,"time":2.557291666666667,"velocity":0.7244094488188977,"duration":0.9869791666666674},{"name":"D5","midi":74,"time":2.682291666666667,"velocity":0.7244094488188977,"duration":0.125},{"name":"C#5","midi":73,"time":2.8059895833333335,"velocity":0.7244094488188977,"duration":0.125},{"name":"B4","midi":71,"time":2.9296875,"velocity":0.7244094488188977,"duration":0.12500000000000044},{"name":"C#5","midi":73,"time":3.053385416666667,"velocity":0.7244094488188977,"duration":0.4921875000000009},{"name":"A3","midi":57,"time":3.053385416666667,"velocity":0.7244094488188977,"duration":0.9869791666666679},{"name":"E5","midi":76,"time":3.177083333333334,"velocity":0.7244094488188977,"duration":0.125},{"name":"F#5","midi":78,"time":3.3007812500000004,"velocity":0.7244094488188977,"duration":0.12500000000000044},{"name":"G5","midi":79,"time":3.4244791666666674,"velocity":0.7244094488188977,"duration":0.12500000000000044},{"name":"A4","midi":69,"time":3.5481770833333344,"velocity":0.7244094488188977,"duration":0.49218750000000044},{"name":"C#4","midi":61,"time":3.5481770833333344,"velocity":0.7244094488188977,"duration":0.49218750000000044},{"name":"G5","midi":79,"time":3.6718750000000013,"velocity":0.7244094488188977,"duration":0.125},{"name":"F#5","midi":78,"time":3.795572916666668,"velocity":0.7244094488188977,"duration":0.12500000000000044},{"name":"E5","midi":76,"time":3.919270833333335,"velocity":0.7244094488188977,"duration":0.125},{"name":"F#5","midi":78,"time":4.042968750000002,"velocity":0.7244094488188977,"duration":0.12499999999999911},{"name":"D3","midi":50,"time":4.042968750000002,"velocity":0.7244094488188977,"duration":0.9869791666666634},{"name":"D5","midi":74,"time":4.166666666666668,"velocity":0.7244094488188977,"duration":0.12499999999999911},{"name":"E5","midi":76,"time":4.290364583333334,"velocity":0.7244094488188977,"duration":0.12499999999999911},{"name":"F#5","midi":78,"time":4.4140625,"velocity":0.7244094488188977,"duration":0.12499999999999911},{"name":"A4","midi":69,"time":4.537760416666666,"velocity":0.7244094488188977,"duration":0.3697916666666661},{"name":"D4","midi":62,"time":4.537760416666666,"velocity":0.7244094488188977,"duration":0.9869791666666652},{"name":"C#5","midi":73,"time":4.661458333333332,"velocity":0.7244094488188977,"duration":0.125},{"name":"B4","midi":71,"time":4.785156249999999,"velocity":0.7244094488188977,"duration":0.12499999999999911},{"name":"A4","midi":69,"time":4.908854166666665,"velocity":0.7244094488188977,"duration":0.125},{"name":"B4","midi":71,"time":5.032552083333332,"velocity":0.7244094488188977,"duration":0.4921874999999991},{"name":"D3","midi":50,"time":5.032552083333332,"velocity":0.7244094488188977,"duration":0.9869791666666643},{"name":"D5","midi":74,"time":5.157552083333332,"velocity":0.7244094488188977,"duration":0.125},{"name":"E5","midi":76,"time":5.281249999999999,"velocity":0.7244094488188977,"duration":0.12499999999999911},{"name":"F#5","midi":78,"time":5.404947916666665,"velocity":0.7244094488188977,"duration":0.12499999999999911},{"name":"B4","midi":71,"time":5.528645833333331,"velocity":0.7244094488188977,"duration":0.4921874999999982},{"name":"D4","midi":62,"time":5.528645833333331,"velocity":0.7244094488188977,"duration":0.4921874999999982},{"name":"A5","midi":81,"time":5.652343749999997,"velocity":0.7244094488188977,"duration":0.125},{"name":"G#5","midi":80,"time":5.776041666666664,"velocity":0.7244094488188977,"duration":0.12499999999999911},{"name":"F#5","midi":78,"time":5.89973958333333,"velocity":0.7244094488188977,"duration":0.12499999999999911},{"name":"G#5","midi":80,"time":6.0234374999999964,"velocity":0.7244094488188977,"duration":0.12499999999999911},{"name":"D3","midi":50,"time":6.0234374999999964,"velocity":0.7244094488188977,"duration":0.9869791666666634},{"name":"E5","midi":76,"time":6.1471354166666625,"velocity":0.7244094488188977,"duration":0.12499999999999911},{"name":"F#5","midi":78,"time":6.270833333333329,"velocity":0.7244094488188977,"duration":0.12499999999999911},{"name":"G#5","midi":80,"time":6.394531249999995,"velocity":0.7244094488188977,"duration":0.12499999999999911},{"name":"B4","midi":71,"time":6.518229166666661,"velocity":0.7244094488188977,"duration":0.3697916666666661},{"name":"G#3","midi":56,"time":6.518229166666661,"velocity":0.7244094488188977,"duration":0.9869791666666652},{"name":"D5","midi":74,"time":6.641927083333327,"velocity":0.7244094488188977,"duration":0.125},{"name":"C#5","midi":73,"time":6.765624999999994,"velocity":0.7244094488188977,"duration":0.12499999999999911},{"name":"B4","midi":71,"time":6.88932291666666,"velocity":0.7244094488188977,"duration":0.125},{"name":"A4","midi":69,"time":7.013020833333327,"velocity":0.7244094488188977,"duration":0.4921874999999991},{"name":"C#3","midi":49,"time":7.013020833333327,"velocity":0.7244094488188977,"duration":0.9869791666666652},{"name":"C#5","midi":73,"time":7.136718749999993,"velocity":0.7244094488188977,"duration":0.125},{"name":"D5","midi":74,"time":7.26041666666666,"velocity":0.7244094488188977,"duration":0.12499999999999911},{"name":"E5","midi":76,"time":7.384114583333326,"velocity":0.7244094488188977,"duration":0.125},{"name":"F#4","midi":66,"time":7.507812499999993,"velocity":0.7244094488188977,"duration":0.4921874999999991},{"name":"A3","midi":57,"time":7.507812499999993,"velocity":0.7244094488188977,"duration":0.4921874999999991},{"name":"E5","midi":76,"time":7.632812499999993,"velocity":0.7244094488188977,"duration":0.125},{"name":"D5","midi":74,"time":7.75651041666666,"velocity":0.7244094488188977,"duration":0.12499999999999911},{"name":"C#5","midi":73,"time":7.880208333333326,"velocity":0.7244094488188977,"duration":0.1250000000000009},{"name":"D5","midi":74,"time":8.003906249999993,"velocity":0.7244094488188977,"duration":0.12500000000000178},{"name":"B2","midi":47,"time":8.003906249999993,"velocity":0.7244094488188977,"duration":0.9869791666666732},{"name":"B4","midi":71,"time":8.12760416666666,"velocity":0.7244094488188977,"duration":0.12500000000000178},{"name":"C#5","midi":73,"time":8.251302083333329,"velocity":0.7244094488188977,"duration":0.12500000000000178},{"name":"D5","midi":74,"time":8.374999999999996,"velocity":0.7244094488188977,"duration":0.12500000000000178},{"name":"F#4","midi":66,"time":8.498697916666664,"velocity":0.7244094488188977,"duration":0.36979166666666785},{"name":"A3","midi":57,"time":8.498697916666664,"velocity":0.7244094488188977,"duration":0.5156250000000018},{"name":"A4","midi":69,"time":8.622395833333332,"velocity":0.7244094488188977,"duration":0.125},{"name":"G#4","midi":68,"time":8.746093749999998,"velocity":0.7244094488188977,"duration":0.12500000000000178},{"name":"F#4","midi":66,"time":8.869791666666666,"velocity":0.7244094488188977,"duration":0.125},{"name":"G#4","midi":68,"time":8.993489583333332,"velocity":0.7244094488188977,"duration":0.4921875000000018},{"name":"E3","midi":52,"time":8.993489583333332,"velocity":0.7244094488188977,"duration":0.9869791666666696},{"name":"B4","midi":71,"time":9.1171875,"velocity":0.7244094488188977,"duration":0.125},{"name":"C#5","midi":73,"time":9.240885416666666,"velocity":0.7244094488188977,"duration":0.12500000000000178},{"name":"D5","midi":74,"time":9.364583333333334,"velocity":0.7244094488188977,"duration":0.125},{"name":"E4","midi":64,"time":9.48828125,"velocity":0.7244094488188977,"duration":0.4921875000000018},{"name":"G#3","midi":56,"time":9.48828125,"velocity":0.7244094488188977,"duration":0.4921875000000018},{"name":"D5","midi":74,"time":9.611979166666668,"velocity":0.7244094488188977,"duration":0.125},{"name":"C#5","midi":73,"time":9.735677083333334,"velocity":0.7244094488188977,"duration":0.12500000000000178},{"name":"B4","midi":71,"time":9.859375000000002,"velocity":0.7244094488188977,"duration":0.125},{"name":"C#5","midi":73,"time":9.983072916666668,"velocity":0.7244094488188977,"duration":0.125},{"name":"A2","midi":45,"time":9.983072916666668,"velocity":0.7244094488188977,"duration":0.9869791666666714},{"name":"A4","midi":69,"time":10.108072916666668,"velocity":0.7244094488188977,"duration":0.125},{"name":"B4","midi":71,"time":10.231770833333334,"velocity":0.7244094488188977,"duration":0.12500000000000178},{"name":"C#5","midi":73,"time":10.355468750000002,"velocity":0.7244094488188977,"duration":0.12500000000000178},{"name":"E4","midi":64,"time":10.47916666666667,"velocity":0.7244094488188977,"duration":0.36979166666666785},{"name":"A3","midi":57,"time":10.47916666666667,"velocity":0.7244094488188977,"duration":0.9869791666666714},{"name":"G4","midi":67,"time":10.602864583333337,"velocity":0.7244094488188977,"duration":0.125},{"name":"F#4","midi":66,"time":10.726562500000004,"velocity":0.7244094488188977,"duration":0.12500000000000178},{"name":"E4","midi":64,"time":10.850260416666671,"velocity":0.7244094488188977,"duration":0.12500000000000178},{"name":"F#4","midi":66,"time":10.97395833333334,"velocity":0.7244094488188977,"duration":0.4921875000000018},{"name":"A2","midi":45,"time":10.97395833333334,"velocity":0.7244094488188977,"duration":0.9869791666666696},{"name":"A4","midi":69,"time":11.097656250000007,"velocity":0.7244094488188977,"duration":0.125},{"name":"B4","midi":71,"time":11.221354166666673,"velocity":0.7244094488188977,"duration":0.12500000000000178},{"name":"C#5","midi":73,"time":11.345052083333341,"velocity":0.7244094488188977,"duration":0.125},{"name":"F#4","midi":66,"time":11.468750000000007,"velocity":0.7244094488188977,"duration":0.4921875000000018},{"name":"A3","midi":57,"time":11.468750000000007,"velocity":0.7244094488188977,"duration":0.4921875000000018},{"name":"E5","midi":76,"time":11.592447916666675,"velocity":0.7244094488188977,"duration":0.125},{"name":"D#5","midi":75,"time":11.716145833333341,"velocity":0.7244094488188977,"duration":0.12500000000000178},{"name":"C#5","midi":73,"time":11.839843750000009,"velocity":0.7244094488188977,"duration":0.125},{"name":"D#5","midi":75,"time":11.963541666666675,"velocity":0.7244094488188977,"duration":0.12500000000000178},{"name":"A2","midi":45,"time":11.963541666666675,"velocity":0.7244094488188977,"duration":0.9869791666666714},{"name":"B4","midi":71,"time":12.087239583333343,"velocity":0.7244094488188977,"duration":0.12500000000000178},{"name":"C#5","midi":73,"time":12.21093750000001,"velocity":0.7244094488188977,"duration":0.12500000000000178},{"name":"D#5","midi":75,"time":12.334635416666679,"velocity":0.7244094488188977,"duration":0.12500000000000178},{"name":"F#4","midi":66,"time":12.458333333333346,"velocity":0.7244094488188977,"duration":0.3697916666666661},{"name":"D#3","midi":51,"time":12.458333333333346,"velocity":0.7244094488188977,"duration":0.4921875},{"name":"A4","midi":69,"time":12.583333333333346,"velocity":0.7244094488188977,"duration":0.125},{"name":"G4","midi":67,"time":12.707031250000012,"velocity":0.7244094488188977,"duration":0.125},{"name":"F#4","midi":66,"time":12.830729166666679,"velocity":0.7244094488188977,"duration":0.12500000000000178},{"name":"E4","midi":64,"time":12.954427083333346,"velocity":0.7244094488188977,"duration":0.4921875000000018},{"name":"G2","midi":43,"time":12.954427083333346,"velocity":0.7244094488188977,"duration":0.9869791666666696},{"name":"G4","midi":67,"time":13.078125000000014,"velocity":0.7244094488188977,"duration":0.125},{"name":"A4","midi":69,"time":13.20182291666668,"velocity":0.7244094488188977,"duration":0.12500000000000178},{"name":"B4","midi":71,"time":13.325520833333348,"velocity":0.7244094488188977,"duration":0.125},{"name":"C#4","midi":61,"time":13.449218750000014,"velocity":0.7244094488188977,"duration":0.4921875000000018},{"name":"E3","midi":52,"time":13.449218750000014,"velocity":0.7244094488188977,"duration":0.4921875000000018},{"name":"D5","midi":74,"time":13.572916666666682,"velocity":0.7244094488188977,"duration":0.125},{"name":"C#5","midi":73,"time":13.696614583333348,"velocity":0.7244094488188977,"duration":0.12500000000000178},{"name":"B4","midi":71,"time":13.820312500000016,"velocity":0.7244094488188977,"duration":0.125},{"name":"A#4","midi":70,"time":13.944010416666682,"velocity":0.7244094488188977,"duration":0.12500000000000178},{"name":"F#2","midi":42,"time":13.944010416666682,"velocity":0.7244094488188977,"duration":0.9869791666666732},{"name":"E4","midi":64,"time":14.06770833333335,"velocity":0.7244094488188977,"duration":0.12500000000000178},{"name":"F#4","midi":66,"time":14.191406250000018,"velocity":0.7244094488188977,"duration":0.12500000000000178},{"name":"G4","midi":67,"time":14.315104166666686,"velocity":0.7244094488188977,"duration":0.12500000000000178},{"name":"C#4","midi":61,"time":14.438802083333353,"velocity":0.7244094488188977,"duration":0.4921875000000018},{"name":"F#3","midi":54,"time":14.438802083333353,"velocity":0.7244094488188977,"duration":0.9869791666666696},{"name":"G4","midi":67,"time":14.562500000000021,"velocity":0.7244094488188977,"duration":0.125},{"name":"F#4","midi":66,"time":14.686197916666687,"velocity":0.7244094488188977,"duration":0.12500000000000178},{"name":"E4","midi":64,"time":14.809895833333355,"velocity":0.7244094488188977,"duration":0.125},{"name":"D4","midi":62,"time":14.933593750000021,"velocity":0.7244094488188977,"duration":0.4921875000000018},{"name":"F#2","midi":42,"time":14.933593750000021,"velocity":0.7244094488188977,"duration":0.9869791666666714},{"name":"B4","midi":71,"time":15.05729166666669,"velocity":0.7244094488188977,"duration":0.125},{"name":"C#5","midi":73,"time":15.18229166666669,"velocity":0.7244094488188977,"duration":0.125},{"name":"D5","midi":74,"time":15.305989583333355,"velocity":0.7244094488188977,"duration":0.12500000000000178},{"name":"F#4","midi":66,"time":15.429687500000023,"velocity":0.7244094488188977,"duration":0.36979166666666785},{"name":"F#3","midi":54,"time":15.429687500000023,"velocity":0.7244094488188977,"duration":0.9869791666666661},{"name":"A4","midi":69,"time":15.553385416666691,"velocity":0.7244094488188977,"duration":0.125},{"name":"G#4","midi":68,"time":15.677083333333357,"velocity":0.7244094488188977,"duration":0.12500000000000178},{"name":"F#4","midi":66,"time":15.800781250000025,"velocity":0.7244094488188977,"duration":0.12500000000000178},{"name":"F4","midi":65,"time":15.924479166666693,"velocity":0.7244094488188977,"duration":0.125},{"name":"F#2","midi":42,"time":15.924479166666693,"velocity":0.7244094488188977,"duration":0.9869791666666607},{"name":"G#4","midi":68,"time":16.04817708333336,"velocity":0.7244094488188977,"duration":0.12499999999999645},{"name":"A4","midi":69,"time":16.171875000000025,"velocity":0.7244094488188977,"duration":0.12499999999999645},{"name":"B4","midi":71,"time":16.29557291666669,"velocity":0.7244094488188977,"duration":0.125},{"name":"F4","midi":65,"time":16.419270833333357,"velocity":0.7244094488188977,"duration":0.49218749999999645},{"name":"F#3","midi":54,"time":16.419270833333357,"velocity":0.7244094488188977,"duration":0.9869791666666607},{"name":"D5","midi":74,"time":16.54296875000002,"velocity":0.7244094488188977,"duration":0.125},{"name":"C#5","midi":73,"time":16.66666666666669,"velocity":0.7244094488188977,"duration":0.12499999999999645},{"name":"B4","midi":71,"time":16.790364583333353,"velocity":0.7244094488188977,"duration":0.125},{"name":"G#5","midi":80,"time":16.91406250000002,"velocity":0.7244094488188977,"duration":0.3697916666666643},{"name":"F#2","midi":42,"time":16.91406250000002,"velocity":0.7244094488188977,"duration":0.9869791666666607},{"name":"F5","midi":77,"time":17.037760416666686,"velocity":0.7244094488188977,"duration":0.125},{"name":"F#5","midi":78,"time":17.161458333333353,"velocity":0.7244094488188977,"duration":0.12499999999999645},{"name":"G#5","midi":80,"time":17.285156250000018,"velocity":0.7244094488188977,"duration":0.125},{"name":"C#5","midi":73,"time":17.408854166666686,"velocity":0.7244094488188977,"duration":0.49218749999999645},{"name":"F#3","midi":54,"time":17.408854166666686,"velocity":0.7244094488188977,"duration":0.49218749999999645},{"name":"B5","midi":83,"time":17.53255208333335,"velocity":0.7244094488188977,"duration":0.125},{"name":"A5","midi":81,"time":17.65755208333335,"velocity":0.7244094488188977,"duration":0.125},{"name":"G#5","midi":80,"time":17.781250000000018,"velocity":0.7244094488188977,"duration":0.12499999999999645},{"name":"A5","midi":81,"time":17.904947916666682,"velocity":0.7244094488188977,"duration":0.12499999999999645},{"name":"F#2","midi":42,"time":17.904947916666682,"velocity":0.7244094488188977,"duration":0.9869791666666536},{"name":"F#5","midi":78,"time":18.028645833333346,"velocity":0.7244094488188977,"duration":0.12499999999999645},{"name":"G#5","midi":80,"time":18.15234375000001,"velocity":0.7244094488188977,"duration":0.12499999999999645},{"name":"A5","midi":81,"time":18.276041666666675,"velocity":0.7244094488188977,"duration":0.12499999999999645},{"name":"C#5","midi":73,"time":18.39973958333334,"velocity":0.7244094488188977,"duration":0.3697916666666643},{"name":"F#3","midi":54,"time":18.39973958333334,"velocity":0.7244094488188977,"duration":0.9869791666666607},{"name":"E5","midi":76,"time":18.523437500000004,"velocity":0.7244094488188977,"duration":0.125},{"name":"D#5","midi":75,"time":18.64713541666667,"velocity":0.7244094488188977,"duration":0.12499999999999645},{"name":"C#5","midi":73,"time":18.770833333333336,"velocity":0.7244094488188977,"duration":0.125},{"name":"D#5","midi":75,"time":18.894531250000004,"velocity":0.7244094488188977,"duration":0.49218749999999645},{"name":"B2","midi":47,"time":18.894531250000004,"velocity":0.7244094488188977,"duration":0.9869791666666607},{"name":"F#5","midi":78,"time":19.018229166666668,"velocity":0.7244094488188977,"duration":0.125},{"name":"G5","midi":79,"time":19.141927083333336,"velocity":0.7244094488188977,"duration":0.12499999999999645},{"name":"A5","midi":81,"time":19.265625,"velocity":0.7244094488188977,"duration":0.125},{"name":"B4","midi":71,"time":19.389322916666668,"velocity":0.7244094488188977,"duration":0.49218749999999645},{"name":"D#3","midi":51,"time":19.389322916666668,"velocity":0.7244094488188977,"duration":0.49218749999999645},{"name":"A5","midi":81,"time":19.513020833333332,"velocity":0.7244094488188977,"duration":0.125},{"name":"G5","midi":79,"time":19.63671875,"velocity":0.7244094488188977,"duration":0.12499999999999645},{"name":"F#5","midi":78,"time":19.760416666666664,"velocity":0.7244094488188977,"duration":0.125},{"name":"G5","midi":79,"time":19.884114583333332,"velocity":0.7244094488188977,"duration":0.12499999999999645},{"name":"E2","midi":40,"time":19.884114583333332,"velocity":0.7244094488188977,"duration":0.9869791666666572},{"name":"E5","midi":76,"time":20.007812499999996,"velocity":0.7244094488188977,"duration":0.125},{"name":"F#5","midi":78,"time":20.132812499999996,"velocity":0.7244094488188977,"duration":0.125},{"name":"G5","midi":79,"time":20.256510416666664,"velocity":0.7244094488188977,"duration":0.12499999999999645},{"name":"B4","midi":71,"time":20.38020833333333,"velocity":0.7244094488188977,"duration":0.3697916666666643},{"name":"E3","midi":52,"time":20.38020833333333,"velocity":0.7244094488188977,"duration":0.9869791666666572},{"name":"D5","midi":74,"time":20.503906249999993,"velocity":0.7244094488188977,"duration":0.125},{"name":"C5","midi":72,"time":20.62760416666666,"velocity":0.7244094488188977,"duration":0.12499999999999645},{"name":"B4","midi":71,"time":20.751302083333325,"velocity":0.7244094488188977,"duration":0.12499999999999645},{"name":"C5","midi":72,"time":20.87499999999999,"velocity":0.7244094488188977,"duration":0.49218749999999645},{"name":"E2","midi":40,"time":20.87499999999999,"velocity":0.7244094488188977,"duration":0.9869791666666607},{"name":"D#5","midi":75,"time":20.998697916666654,"velocity":0.7244094488188977,"duration":0.125},{"name":"E5","midi":76,"time":21.12239583333332,"velocity":0.7244094488188977,"duration":0.12499999999999645},{"name":"F#5","midi":78,"time":21.246093749999986,"velocity":0.7244094488188977,"duration":0.125},{"name":"A4","midi":69,"time":21.369791666666654,"velocity":0.7244094488188977,"duration":0.3697916666666643},{"name":"D#3","midi":51,"time":21.369791666666654,"velocity":0.7244094488188977,"duration":0.49218749999999645},{"name":"C5","midi":72,"time":21.493489583333318,"velocity":0.7244094488188977,"duration":0.125},{"name":"B4","midi":71,"time":21.617187499999986,"velocity":0.7244094488188977,"duration":0.12499999999999645},{"name":"A4","midi":69,"time":21.74088541666665,"velocity":0.7244094488188977,"duration":0.125},{"name":"G4","midi":67,"time":21.864583333333318,"velocity":0.7244094488188977,"duration":0.49739583333332504},{"name":"E2","midi":40,"time":21.864583333333318,"velocity":0.7244094488188977,"duration":0.9869791666666572},{"name":"E5","midi":76,"time":21.988281249999982,"velocity":0.7244094488188977,"duration":0.125},{"name":"F#5","midi":78,"time":22.11197916666665,"velocity":0.7244094488188977,"duration":0.12499999999999645},{"name":"G5","midi":79,"time":22.235677083333314,"velocity":0.7244094488188977,"duration":0.12499999999999645},{"name":"B4","midi":71,"time":22.35937499999998,"velocity":0.7244094488188977,"duration":0.3697916666666643},{"name":"E3","midi":52,"time":22.35937499999998,"velocity":0.7244094488188977,"duration":0.9869791666666572},{"name":"D5","midi":74,"time":22.483072916666643,"velocity":0.7244094488188977,"duration":0.125},{"name":"C#5","midi":73,"time":22.608072916666643,"velocity":0.7244094488188977,"duration":0.125},{"name":"B4","midi":71,"time":22.73177083333331,"velocity":0.7244094488188977,"duration":0.12499999999999645},{"name":"C#5","midi":73,"time":22.855468749999975,"velocity":0.7244094488188977,"duration":0.4921874999999929},{"name":"A2","midi":45,"time":22.855468749999975,"velocity":0.7244094488188977,"duration":0.9869791666666572},{"name":"E5","midi":76,"time":22.97916666666664,"velocity":0.7244094488188977,"duration":0.125},{"name":"F#5","midi":78,"time":23.102864583333307,"velocity":0.7244094488188977,"duration":0.12499999999999645},{"name":"G5","midi":79,"time":23.22656249999997,"velocity":0.7244094488188977,"duration":0.12499999999999645},{"name":"A4","midi":69,"time":23.350260416666636,"velocity":0.7244094488188977,"duration":0.49218749999999645},{"name":"C#3","midi":49,"time":23.350260416666636,"velocity":0.7244094488188977,"duration":0.49218749999999645},{"name":"G5","midi":79,"time":23.4739583333333,"velocity":0.7244094488188977,"duration":0.125},{"name":"F#5","midi":78,"time":23.597656249999968,"velocity":0.7244094488188977,"duration":0.12499999999999645},{"name":"E5","midi":76,"time":23.721354166666632,"velocity":0.7244094488188977,"duration":0.125},{"name":"F#5","midi":78,"time":23.8450520833333,"velocity":0.7244094488188977,"duration":0.12499999999999645},{"name":"D2","midi":38,"time":23.8450520833333,"velocity":0.7244094488188977,"duration":0.9869791666666536},{"name":"D5","midi":74,"time":23.968749999999964,"velocity":0.7244094488188977,"duration":0.12499999999999645},{"name":"E5","midi":76,"time":24.09244791666663,"velocity":0.7244094488188977,"duration":0.12499999999999645},{"name":"F#5","midi":78,"time":24.216145833333293,"velocity":0.7244094488188977,"duration":0.12499999999999645},{"name":"A4","midi":69,"time":24.339843749999957,"velocity":0.7244094488188977,"duration":0.3697916666666643},{"name":"D3","midi":50,"time":24.339843749999957,"velocity":0.7244094488188977,"duration":0.9869791666666607},{"name":"C5","midi":72,"time":24.46354166666662,"velocity":0.7244094488188977,"duration":0.125},{"name":"B4","midi":71,"time":24.58723958333329,"velocity":0.7244094488188977,"duration":0.12499999999999645},{"name":"A4","midi":69,"time":24.710937499999954,"velocity":0.7244094488188977,"duration":0.125},{"name":"B4","midi":71,"time":24.83463541666662,"velocity":0.7244094488188977,"duration":0.3697916666666643},{"name":"D2","midi":38,"time":24.83463541666662,"velocity":0.7244094488188977,"duration":0.9869791666666572},{"name":"G4","midi":67,"time":24.958333333333286,"velocity":0.7244094488188977,"duration":0.125},{"name":"A4","midi":69,"time":25.083333333333286,"velocity":0.7244094488188977,"duration":0.125},{"name":"B4","midi":71,"time":25.207031249999954,"velocity":0.7244094488188977,"duration":0.12499999999999645},{"name":"C#4","midi":61,"time":25.330729166666618,"velocity":0.7244094488188977,"duration":0.4921874999999929},{"name":"D3","midi":50,"time":25.330729166666618,"velocity":0.7244094488188977,"duration":0.4921874999999929},{"name":"B4","midi":71,"time":25.454427083333282,"velocity":0.7244094488188977,"duration":0.125},{"name":"A4","midi":69,"time":25.57812499999995,"velocity":0.7244094488188977,"duration":0.12499999999999645},{"name":"G4","midi":67,"time":25.701822916666615,"velocity":0.7244094488188977,"duration":0.12499999999999645},{"name":"F#4","midi":66,"time":25.82552083333328,"velocity":0.7244094488188977,"duration":0.12499999999999645},{"name":"D2","midi":38,"time":25.82552083333328,"velocity":0.7244094488188977,"duration":0.9869791666666536},{"name":"D4","midi":62,"time":25.949218749999943,"velocity":0.7244094488188977,"duration":0.12499999999999645},{"name":"E4","midi":64,"time":26.072916666666607,"velocity":0.7244094488188977,"duration":0.12499999999999645},{"name":"F#4","midi":66,"time":26.19661458333327,"velocity":0.7244094488188977,"duration":0.12499999999999645},{"name":"A3","midi":57,"time":26.320312499999936,"velocity":0.7244094488188977,"duration":0.3697916666666643},{"name":"D3","midi":50,"time":26.320312499999936,"velocity":0.7244094488188977,"duration":0.9869791666666607},{"name":"C4","midi":60,"time":26.4440104166666,"velocity":0.7244094488188977,"duration":0.125},{"name":"B3","midi":59,"time":26.567708333333268,"velocity":0.7244094488188977,"duration":0.12499999999999645},{"name":"A3","midi":57,"time":26.691406249999932,"velocity":0.7244094488188977,"duration":0.125},{"name":"B3","midi":59,"time":26.8151041666666,"velocity":0.7244094488188977,"duration":0.49218749999999645},{"name":"D2","midi":38,"time":26.8151041666666,"velocity":0.7244094488188977,"duration":0.9869791666666643},{"name":"D4","midi":62,"time":26.938802083333265,"velocity":0.7244094488188977,"duration":0.125},{"name":"E4","midi":64,"time":27.062499999999932,"velocity":0.7244094488188977,"duration":0.12499999999999645},{"name":"F#4","midi":66,"time":27.186197916666597,"velocity":0.7244094488188977,"duration":0.125},{"name":"B3","midi":59,"time":27.309895833333265,"velocity":0.7244094488188977,"duration":0.4921875},{"name":"D3","midi":50,"time":27.309895833333265,"velocity":0.7244094488188977,"duration":0.4921875},{"name":"A4","midi":69,"time":27.43359374999993,"velocity":0.7244094488188977,"duration":0.125},{"name":"G#4","midi":68,"time":27.557291666666597,"velocity":0.7244094488188977,"duration":0.125},{"name":"F#4","midi":66,"time":27.682291666666597,"velocity":0.7244094488188977,"duration":0.125},{"name":"G#4","midi":68,"time":27.805989583333265,"velocity":0.7244094488188977,"duration":0.12499999999999645},{"name":"D2","midi":38,"time":27.805989583333265,"velocity":0.7244094488188977,"duration":0.4921874999999929},{"name":"E4","midi":64,"time":27.92968749999993,"velocity":0.7244094488188977,"duration":0.12499999999999645},{"name":"F#4","midi":66,"time":28.053385416666593,"velocity":0.7244094488188977,"duration":0.12499999999999645},{"name":"G#4","midi":68,"time":28.177083333333258,"velocity":0.7244094488188977,"duration":0.125},{"name":"B3","midi":59,"time":28.300781249999925,"velocity":0.7244094488188977,"duration":0.3697916666666643},{"name":"G#3","midi":56,"time":28.300781249999925,"velocity":0.7244094488188977,"duration":0.49218749999999645},{"name":"D4","midi":62,"time":28.42447916666659,"velocity":0.7244094488188977,"duration":0.125},{"name":"C4","midi":60,"time":28.548177083333258,"velocity":0.7244094488188977,"duration":0.12499999999999645},{"name":"B3","midi":59,"time":28.671874999999922,"velocity":0.7244094488188977,"duration":0.125},{"name":"A3","midi":57,"time":28.79557291666659,"velocity":0.7244094488188977,"duration":0.49218749999999645},{"name":"C3","midi":48,"time":28.79557291666659,"velocity":0.7244094488188977,"duration":0.9869791666666607},{"name":"C4","midi":60,"time":28.919270833333254,"velocity":0.7244094488188977,"duration":0.125},{"name":"D4","midi":62,"time":29.042968749999922,"velocity":0.7244094488188977,"duration":0.12499999999999645},{"name":"E4","midi":64,"time":29.166666666666586,"velocity":0.7244094488188977,"duration":0.125},{"name":"A3","midi":57,"time":29.290364583333254,"velocity":0.7244094488188977,"duration":0.49218749999999645},{"name":"F#3","midi":54,"time":29.290364583333254,"velocity":0.7244094488188977,"duration":0.49218749999999645},{"name":"G4","midi":67,"time":29.41406249999992,"velocity":0.7244094488188977,"duration":0.125},{"name":"F#4","midi":66,"time":29.537760416666586,"velocity":0.7244094488188977,"duration":0.12499999999999645},{"name":"E4","midi":64,"time":29.66145833333325,"velocity":0.7244094488188977,"duration":0.125},{"name":"D#4","midi":63,"time":29.78515624999992,"velocity":0.7244094488188977,"duration":0.12499999999999645},{"name":"B2","midi":47,"time":29.78515624999992,"velocity":0.7244094488188977,"duration":1.9713541666666536},{"name":"A3","midi":57,"time":29.908854166666583,"velocity":0.7244094488188977,"duration":0.12499999999999645},{"name":"B3","midi":59,"time":30.032552083333247,"velocity":0.7244094488188977,"duration":0.125},{"name":"C4","midi":60,"time":30.157552083333247,"velocity":0.7244094488188977,"duration":0.125},{"name":"F#3","midi":54,"time":30.281249999999915,"velocity":0.7244094488188977,"duration":0.49218749999999645},{"name":"D#3","midi":51,"time":30.281249999999915,"velocity":0.7244094488188977,"duration":0.49218749999999645},{"name":"C4","midi":60,"time":30.40494791666658,"velocity":0.7244094488188977,"duration":0.125},{"name":"B3","midi":59,"time":30.528645833333247,"velocity":0.7244094488188977,"duration":0.12499999999999645},{"name":"A3","midi":57,"time":30.65234374999991,"velocity":0.7244094488188977,"duration":0.125},{"name":"G3","midi":55,"time":30.77604166666658,"velocity":0.7244094488188977,"duration":0.49218749999999645},{"name":"E3","midi":52,"time":30.77604166666658,"velocity":0.7244094488188977,"duration":0.49218749999999645},{"name":"E4","midi":64,"time":30.899739583333243,"velocity":0.7244094488188977,"duration":0.125},{"name":"F#4","midi":66,"time":31.02343749999991,"velocity":0.7244094488188977,"duration":0.12499999999999645},{"name":"G4","midi":67,"time":31.147135416666575,"velocity":0.7244094488188977,"duration":0.125},{"name":"B3","midi":59,"time":31.270833333333243,"velocity":0.7244094488188977,"duration":0.3697916666666643},{"name":"G3","midi":55,"time":31.270833333333243,"velocity":0.7244094488188977,"duration":0.49218749999999645},{"name":"D4","midi":62,"time":31.394531249999908,"velocity":0.7244094488188977,"duration":0.125},{"name":"C#4","midi":61,"time":31.518229166666575,"velocity":0.7244094488188977,"duration":0.12499999999999645},{"name":"B3","midi":59,"time":31.64192708333324,"velocity":0.7244094488188977,"duration":0.125},{"name":"A#3","midi":58,"time":31.765624999999908,"velocity":0.7244094488188977,"duration":0.12499999999999645},{"name":"B2","midi":47,"time":31.765624999999908,"velocity":0.7244094488188977,"duration":1.9713541666666856},{"name":"C#4","midi":61,"time":31.889322916666572,"velocity":0.7244094488188977,"duration":0.125},{"name":"D4","midi":62,"time":32.013020833333236,"velocity":0.7244094488188977,"duration":0.1250000000000071},{"name":"E4","midi":64,"time":32.13671874999991,"velocity":0.7244094488188977,"duration":0.1250000000000071},{"name":"A#3","midi":58,"time":32.26041666666658,"velocity":0.7244094488188977,"duration":0.4921875},{"name":"E3","midi":52,"time":32.26041666666658,"velocity":0.7244094488188977,"duration":0.4921875},{"name":"G4","midi":67,"time":32.38411458333325,"velocity":0.7244094488188977,"duration":0.125},{"name":"F#4","midi":66,"time":32.507812499999915,"velocity":0.7244094488188977,"duration":0.125},{"name":"E4","midi":64,"time":32.632812499999915,"velocity":0.7244094488188977,"duration":0.125},{"name":"C#5","midi":73,"time":32.75651041666658,"velocity":0.7244094488188977,"duration":0.3697916666666714},{"name":"G3","midi":55,"time":32.75651041666658,"velocity":0.7244094488188977,"duration":0.4921875000000071},{"name":"A#4","midi":70,"time":32.88020833333325,"velocity":0.7244094488188977,"duration":0.125},{"name":"B4","midi":71,"time":33.003906249999915,"velocity":0.7244094488188977,"duration":0.1250000000000071},{"name":"C#5","midi":73,"time":33.127604166666586,"velocity":0.7244094488188977,"duration":0.125},{"name":"F#4","midi":66,"time":33.25130208333325,"velocity":0.7244094488188977,"duration":0.4921875000000071},{"name":"A#3","midi":58,"time":33.25130208333325,"velocity":0.7244094488188977,"duration":0.4921875000000071},{"name":"E5","midi":76,"time":33.37499999999992,"velocity":0.7244094488188977,"duration":0.125},{"name":"D5","midi":74,"time":33.498697916666586,"velocity":0.7244094488188977,"duration":0.1250000000000071},{"name":"C#5","midi":73,"time":33.62239583333326,"velocity":0.7244094488188977,"duration":0.125},{"name":"D5","midi":74,"time":33.74609374999992,"velocity":0.7244094488188977,"duration":0.1250000000000071},{"name":"B2","midi":47,"time":33.74609374999992,"velocity":0.7244094488188977,"duration":0.9869791666666927},{"name":"B4","midi":71,"time":33.86979166666659,"velocity":0.7244094488188977,"duration":0.1250000000000071},{"name":"C#5","midi":73,"time":33.993489583333265,"velocity":0.7244094488188977,"duration":0.1250000000000071},{"name":"D5","midi":74,"time":34.117187499999936,"velocity":0.7244094488188977,"duration":0.1250000000000071},{"name":"F#4","midi":66,"time":34.24088541666661,"velocity":0.7244094488188977,"duration":0.3697916666666714},{"name":"B3","midi":59,"time":34.24088541666661,"velocity":0.7244094488188977,"duration":0.9869791666666714},{"name":"A4","midi":69,"time":34.36458333333328,"velocity":0.7244094488188977,"duration":0.125},{"name":"G#4","midi":68,"time":34.48828124999994,"velocity":0.7244094488188977,"duration":0.1250000000000071},{"name":"F#4","midi":66,"time":34.611979166666615,"velocity":0.7244094488188977,"duration":0.125},{"name":"G#4","midi":68,"time":34.73567708333328,"velocity":0.7244094488188977,"duration":0.4921875},{"name":"E3","midi":52,"time":34.73567708333328,"velocity":0.7244094488188977,"duration":0.9869791666666785},{"name":"B4","midi":71,"time":34.85937499999995,"velocity":0.7244094488188977,"duration":0.125},{"name":"C5","midi":72,"time":34.983072916666615,"velocity":0.7244094488188977,"duration":0.125},{"name":"D5","midi":74,"time":35.108072916666615,"velocity":0.7244094488188977,"duration":0.125},{"name":"E4","midi":64,"time":35.23177083333328,"velocity":0.7244094488188977,"duration":0.4921875000000142},{"name":"G#3","midi":56,"time":35.23177083333328,"velocity":0.7244094488188977,"duration":0.4921875000000142},{"name":"D5","midi":74,"time":35.35546874999995,"velocity":0.7244094488188977,"duration":0.125},{"name":"C5","midi":72,"time":35.479166666666615,"velocity":0.7244094488188977,"duration":0.1250000000000071},{"name":"B4","midi":71,"time":35.602864583333286,"velocity":0.7244094488188977,"duration":0.1250000000000071},{"name":"C5","midi":72,"time":35.72656249999996,"velocity":0.7244094488188977,"duration":0.1250000000000071},{"name":"A2","midi":45,"time":35.72656249999996,"velocity":0.7244094488188977,"duration":0.9869791666666927},{"name":"A4","midi":69,"time":35.85026041666663,"velocity":0.7244094488188977,"duration":0.1250000000000071},{"name":"B4","midi":71,"time":35.9739583333333,"velocity":0.7244094488188977,"duration":0.1250000000000071},{"name":"C5","midi":72,"time":36.09765624999997,"velocity":0.7244094488188977,"duration":0.1250000000000071},{"name":"E4","midi":64,"time":36.22135416666664,"velocity":0.7244094488188977,"duration":0.3697916666666714},{"name":"A3","midi":57,"time":36.22135416666664,"velocity":0.7244094488188977,"duration":0.9869791666666785},{"name":"G4","midi":67,"time":36.345052083333314,"velocity":0.7244094488188977,"duration":0.125},{"name":"F#4","midi":66,"time":36.46874999999998,"velocity":0.7244094488188977,"duration":0.1250000000000071},{"name":"E4","midi":64,"time":36.59244791666665,"velocity":0.7244094488188977,"duration":0.125},{"name":"F#4","midi":66,"time":36.716145833333314,"velocity":0.7244094488188977,"duration":0.4921875000000071},{"name":"D3","midi":50,"time":36.716145833333314,"velocity":0.7244094488188977,"duration":0.9869791666666714},{"name":"A4","midi":69,"time":36.839843749999986,"velocity":0.7244094488188977,"duration":0.125},{"name":"B4","midi":71,"time":36.96354166666665,"velocity":0.7244094488188977,"duration":0.1250000000000071},{"name":"C5","midi":72,"time":37.08723958333332,"velocity":0.7244094488188977,"duration":0.125},{"name":"D4","midi":62,"time":37.210937499999986,"velocity":0.7244094488188977,"duration":0.4921875},{"name":"F#3","midi":54,"time":37.210937499999986,"velocity":0.7244094488188977,"duration":0.4921875},{"name":"C5","midi":72,"time":37.33463541666666,"velocity":0.7244094488188977,"duration":0.125},{"name":"B4","midi":71,"time":37.45833333333332,"velocity":0.7244094488188977,"duration":0.125},{"name":"A4","midi":69,"time":37.58333333333332,"velocity":0.7244094488188977,"duration":0.125},{"name":"B4","midi":71,"time":37.707031249999986,"velocity":0.7244094488188977,"duration":0.1250000000000071},{"name":"G2","midi":43,"time":37.707031249999986,"velocity":0.7244094488188977,"duration":0.9869791666666927},{"name":"G4","midi":67,"time":37.83072916666666,"velocity":0.7244094488188977,"duration":0.1250000000000071},{"name":"A4","midi":69,"time":37.95442708333333,"velocity":0.7244094488188977,"duration":0.1250000000000071},{"name":"B4","midi":71,"time":38.078125,"velocity":0.7244094488188977,"duration":0.1250000000000071},{"name":"D4","midi":62,"time":38.20182291666667,"velocity":0.7244094488188977,"duration":0.9882812500000213},{"name":"G3","midi":55,"time":38.20182291666667,"velocity":0.7244094488188977,"duration":0.9869791666666856},{"name":"B4","midi":71,"time":38.32552083333334,"velocity":0.7244094488188977,"duration":0.125},{"name":"A4","midi":69,"time":38.44921875000001,"velocity":0.7244094488188977,"duration":0.1250000000000071},{"name":"G4","midi":67,"time":38.57291666666668,"velocity":0.7244094488188977,"duration":0.125},{"name":"D5","midi":74,"time":38.69661458333334,"velocity":0.7244094488188977,"duration":0.1250000000000071},{"name":"B2","midi":47,"time":38.69661458333334,"velocity":0.7244094488188977,"duration":0.9869791666666927},{"name":"G4","midi":67,"time":38.820312500000014,"velocity":0.7244094488188977,"duration":0.1250000000000071},{"name":"A4","midi":69,"time":38.944010416666686,"velocity":0.7244094488188977,"duration":0.1250000000000071},{"name":"B4","midi":71,"time":39.06770833333336,"velocity":0.7244094488188977,"duration":0.1250000000000071},{"name":"D4","midi":62,"time":39.19140625000003,"velocity":0.7244094488188977,"duration":0.4921875000000071},{"name":"G3","midi":55,"time":39.19140625000003,"velocity":0.7244094488188977,"duration":0.4921875000000071},{"name":"B4","midi":71,"time":39.3151041666667,"velocity":0.7244094488188977,"duration":0.125},{"name":"A4","midi":69,"time":39.438802083333364,"velocity":0.7244094488188977,"duration":0.1250000000000071},{"name":"G4","midi":67,"time":39.562500000000036,"velocity":0.7244094488188977,"duration":0.125},{"name":"C5","midi":72,"time":39.6861979166667,"velocity":0.7244094488188977,"duration":0.1250000000000071},{"name":"A2","midi":45,"time":39.6861979166667,"velocity":0.7244094488188977,"duration":0.9869791666666856},{"name":"A4","midi":69,"time":39.80989583333337,"velocity":0.7244094488188977,"duration":0.1250000000000071},{"name":"B4","midi":71,"time":39.93359375000004,"velocity":0.7244094488188977,"duration":0.1250000000000071},{"name":"C5","midi":72,"time":40.057291666666714,"velocity":0.7244094488188977,"duration":0.125},{"name":"E4","midi":64,"time":40.182291666666714,"velocity":0.7244094488188977,"duration":0.3697916666666643},{"name":"G3","midi":55,"time":40.182291666666714,"velocity":0.7244094488188977,"duration":0.9869791666666785},{"name":"G4","midi":67,"time":40.30598958333338,"velocity":0.7244094488188977,"duration":0.125},{"name":"F#4","midi":66,"time":40.42968750000004,"velocity":0.7244094488188977,"duration":0.1250000000000071},{"name":"E4","midi":64,"time":40.553385416666714,"velocity":0.7244094488188977,"duration":0.1250000000000071},{"name":"F#4","midi":66,"time":40.677083333333385,"velocity":0.7244094488188977,"duration":0.4921875000000071},{"name":"D3","midi":50,"time":40.677083333333385,"velocity":0.7244094488188977,"duration":0.9869791666666785},{"name":"A4","midi":69,"time":40.80078125000006,"velocity":0.7244094488188977,"duration":0.125},{"name":"B4","midi":71,"time":40.92447916666672,"velocity":0.7244094488188977,"duration":0.1250000000000071},{"name":"C5","midi":72,"time":41.04817708333339,"velocity":0.7244094488188977,"duration":0.125},{"name":"D4","midi":62,"time":41.17187500000006,"velocity":0.7244094488188977,"duration":0.4921875000000071},{"name":"F#3","midi":54,"time":41.17187500000006,"velocity":0.7244094488188977,"duration":0.4921875000000071},{"name":"C5","midi":72,"time":41.29557291666673,"velocity":0.7244094488188977,"duration":0.125},{"name":"B4","midi":71,"time":41.41927083333339,"velocity":0.7244094488188977,"duration":0.1250000000000071},{"name":"A4","midi":69,"time":41.542968750000064,"velocity":0.7244094488188977,"duration":0.125},{"name":"B4","midi":71,"time":41.66666666666673,"velocity":0.7244094488188977,"duration":0.1250000000000071},{"name":"G2","midi":43,"time":41.66666666666673,"velocity":0.7244094488188977,"duration":0.9869791666666927},{"name":"G4","midi":67,"time":41.7903645833334,"velocity":0.7244094488188977,"duration":0.1250000000000071},{"name":"A4","midi":69,"time":41.91406250000007,"velocity":0.7244094488188977,"duration":0.1250000000000071},{"name":"B4","midi":71,"time":42.03776041666674,"velocity":0.7244094488188977,"duration":0.1250000000000071},{"name":"D4","midi":62,"time":42.161458333333414,"velocity":0.7244094488188977,"duration":0.3697916666666714},{"name":"G3","midi":55,"time":42.161458333333414,"velocity":0.7244094488188977,"duration":0.9869791666666785},{"name":"F#4","midi":66,"time":42.285156250000085,"velocity":0.7244094488188977,"duration":0.125},{"name":"E4","midi":64,"time":42.40885416666675,"velocity":0.7244094488188977,"duration":0.1250000000000071},{"name":"D4","midi":62,"time":42.53255208333342,"velocity":0.7244094488188977,"duration":0.125},{"name":"E4","midi":64,"time":42.65755208333342,"velocity":0.7244094488188977,"duration":0.4921875000000071},{"name":"G2","midi":43,"time":42.65755208333342,"velocity":0.7244094488188977,"duration":0.9869791666666785},{"name":"G4","midi":67,"time":42.781250000000085,"velocity":0.7244094488188977,"duration":0.125},{"name":"A4","midi":69,"time":42.90494791666675,"velocity":0.7244094488188977,"duration":0.1250000000000071},{"name":"B4","midi":71,"time":43.02864583333342,"velocity":0.7244094488188977,"duration":0.1250000000000071},{"name":"E4","midi":64,"time":43.15234375000009,"velocity":0.7244094488188977,"duration":0.4921875000000071},{"name":"G3","midi":55,"time":43.15234375000009,"velocity":0.7244094488188977,"duration":0.4921875000000071},{"name":"D5","midi":74,"time":43.276041666666764,"velocity":0.7244094488188977,"duration":0.125},{"name":"C#5","midi":73,"time":43.39973958333343,"velocity":0.7244094488188977,"duration":0.1250000000000071},{"name":"B4","midi":71,"time":43.5234375000001,"velocity":0.7244094488188977,"duration":0.125},{"name":"C#5","midi":73,"time":43.647135416666764,"velocity":0.7244094488188977,"duration":0.1250000000000071},{"name":"G2","midi":43,"time":43.647135416666764,"velocity":0.7244094488188977,"duration":0.9869791666666927},{"name":"A4","midi":69,"time":43.770833333333435,"velocity":0.7244094488188977,"duration":0.1250000000000071},{"name":"B4","midi":71,"time":43.89453125000011,"velocity":0.7244094488188977,"duration":0.1250000000000071},{"name":"C#5","midi":73,"time":44.01822916666678,"velocity":0.7244094488188977,"duration":0.1250000000000071},{"name":"E4","midi":64,"time":44.14192708333345,"velocity":0.7244094488188977,"duration":0.3697916666666714},{"name":"C#3","midi":49,"time":44.14192708333345,"velocity":0.7244094488188977,"duration":0.9869791666666785},{"name":"G4","midi":67,"time":44.26562500000012,"velocity":0.7244094488188977,"duration":0.125},{"name":"F#4","midi":66,"time":44.389322916666785,"velocity":0.7244094488188977,"duration":0.1250000000000071},{"name":"E4","midi":64,"time":44.51302083333346,"velocity":0.7244094488188977,"duration":0.125},{"name":"D4","midi":62,"time":44.63671875000012,"velocity":0.7244094488188977,"duration":0.4921875000000071},{"name":"F#2","midi":42,"time":44.63671875000012,"velocity":0.7244094488188977,"duration":0.9869791666666785},{"name":"F#4","midi":66,"time":44.76041666666679,"velocity":0.7244094488188977,"duration":0.125},{"name":"G4","midi":67,"time":44.88411458333346,"velocity":0.7244094488188977,"duration":0.1250000000000071},{"name":"A4","midi":69,"time":45.00781250000013,"velocity":0.7244094488188977,"duration":0.125},{"name":"B3","midi":59,"time":45.13281250000013,"velocity":0.7244094488188977,"duration":0.4921875000000071},{"name":"D3","midi":50,"time":45.13281250000013,"velocity":0.7244094488188977,"duration":0.4921875000000071},{"name":"A4","midi":69,"time":45.25651041666679,"velocity":0.7244094488188977,"duration":0.125},{"name":"G4","midi":67,"time":45.38020833333346,"velocity":0.7244094488188977,"duration":0.1250000000000071},{"name":"F#4","midi":66,"time":45.50390625000013,"velocity":0.7244094488188977,"duration":0.1250000000000071},{"name":"G4","midi":67,"time":45.6276041666668,"velocity":0.7244094488188977,"duration":0.1250000000000071},{"name":"E2","midi":40,"time":45.6276041666668,"velocity":0.7244094488188977,"duration":0.9869791666666927},{"name":"E4","midi":64,"time":45.75130208333347,"velocity":0.7244094488188977,"duration":0.1250000000000071},{"name":"F#4","midi":66,"time":45.87500000000014,"velocity":0.7244094488188977,"duration":0.1250000000000071},{"name":"G4","midi":67,"time":45.99869791666681,"velocity":0.7244094488188977,"duration":0.1250000000000071},{"name":"B3","midi":59,"time":46.122395833333485,"velocity":0.7244094488188977,"duration":0.3697916666666714},{"name":"D3","midi":50,"time":46.122395833333485,"velocity":0.7244094488188977,"duration":0.6510416666666785},{"name":"D4","midi":62,"time":46.246093750000156,"velocity":0.7244094488188977,"duration":0.125},{"name":"C#4","midi":61,"time":46.36979166666682,"velocity":0.7244094488188977,"duration":0.1250000000000071},{"name":"B3","midi":59,"time":46.49348958333349,"velocity":0.7244094488188977,"duration":0.125},{"name":"C#4","midi":61,"time":46.617187500000156,"velocity":0.7244094488188977,"duration":0.4921875000000142},{"name":"A2","midi":45,"time":46.617187500000156,"velocity":0.7244094488188977,"duration":0.9869791666666856},{"name":"E4","midi":64,"time":46.74088541666683,"velocity":0.7244094488188977,"duration":0.1250000000000071},{"name":"F#4","midi":66,"time":46.8645833333335,"velocity":0.7244094488188977,"duration":0.1250000000000071},{"name":"G4","midi":67,"time":46.98828125000017,"velocity":0.7244094488188977,"duration":0.125},{"name":"A3","midi":57,"time":47.111979166666835,"velocity":0.7244094488188977,"duration":0.4921875000000071},{"name":"C#3","midi":49,"time":47.111979166666835,"velocity":0.7244094488188977,"duration":0.4921875000000071},{"name":"G4","midi":67,"time":47.235677083333506,"velocity":0.7244094488188977,"duration":0.125},{"name":"F#4","midi":66,"time":47.35937500000017,"velocity":0.7244094488188977,"duration":0.1250000000000071},{"name":"E4","midi":64,"time":47.48307291666684,"velocity":0.7244094488188977,"duration":0.125},{"name":"F#4","midi":66,"time":47.60807291666684,"velocity":0.7244094488188977,"duration":0.1458333333333286},{"name":"D2","midi":38,"time":47.60807291666684,"velocity":0.7244094488188977,"duration":0.9869791666666714},{"name":"D4","midi":62,"time":47.751302083333506,"velocity":0.7244094488188977,"duration":0.125},{"name":"E4","midi":64,"time":47.87500000000017,"velocity":0.7244094488188977,"duration":0.125},{"name":"F#4","midi":66,"time":48.00000000000017,"velocity":0.7244094488188977,"duration":0.125},{"name":"D3","midi":50,"time":48.123697916666835,"velocity":0.7244094488188977,"duration":0.9869791666666927},{"name":"A3","midi":57,"time":48.123697916666835,"velocity":0.7244094488188977,"duration":0.4921875000000142},{"name":"F#4","midi":66,"time":48.247395833333506,"velocity":0.7244094488188977,"duration":0.125},{"name":"E4","midi":64,"time":48.37109375000017,"velocity":0.7244094488188977,"duration":0.1250000000000071},{"name":"D4","midi":62,"time":48.49479166666684,"velocity":0.7244094488188977,"duration":0.1250000000000071},{"name":"F#2","midi":42,"time":48.61848958333351,"velocity":0.7244094488188977,"duration":0.4921875000000142},{"name":"A4","midi":69,"time":48.61848958333351,"velocity":0.7244094488188977,"duration":0.1250000000000071},{"name":"F#4","midi":66,"time":48.742187500000185,"velocity":0.7244094488188977,"duration":0.1250000000000071},{"name":"G4","midi":67,"time":48.865885416666856,"velocity":0.7244094488188977,"duration":0.1250000000000071},{"name":"A4","midi":69,"time":48.98958333333353,"velocity":0.7244094488188977,"duration":0.125},{"name":"A3","midi":57,"time":49.11328125000019,"velocity":0.7244094488188977,"duration":0.4921875000000071},{"name":"D4","midi":62,"time":49.11328125000019,"velocity":0.7244094488188977,"duration":0.4921875000000071},{"name":"C5","midi":72,"time":49.23697916666686,"velocity":0.7244094488188977,"duration":0.125},{"name":"B4","midi":71,"time":49.36067708333353,"velocity":0.7244094488188977,"duration":0.1250000000000071},{"name":"A4","midi":69,"time":49.4843750000002,"velocity":0.7244094488188977,"duration":0.125},{"name":"G2","midi":43,"time":49.60807291666686,"velocity":0.7244094488188977,"duration":0.9869791666666856},{"name":"B4","midi":71,"time":49.60807291666686,"velocity":0.7244094488188977,"duration":0.1471354166666643},{"name":"G4","midi":67,"time":49.75260416666686,"velocity":0.7244094488188977,"duration":0.125},{"name":"A4","midi":69,"time":49.87630208333353,"velocity":0.7244094488188977,"duration":0.1250000000000071},{"name":"B4","midi":71,"time":50.0000000000002,"velocity":0.7244094488188977,"duration":0.1250000000000071},{"name":"D4","midi":62,"time":50.12369791666687,"velocity":0.7244094488188977,"duration":0.4921875000000142},{"name":"G3","midi":55,"time":50.12369791666687,"velocity":0.7244094488188977,"duration":0.9869791666666856},{"name":"B4","midi":71,"time":50.24739583333354,"velocity":0.7244094488188977,"duration":0.125},{"name":"A4","midi":69,"time":50.371093750000206,"velocity":0.7244094488188977,"duration":0.1250000000000071},{"name":"G4","midi":67,"time":50.49479166666688,"velocity":0.7244094488188977,"duration":0.1250000000000071},{"name":"D5","midi":74,"time":50.61848958333355,"velocity":0.7244094488188977,"duration":0.1250000000000071},{"name":"B2","midi":47,"time":50.61848958333355,"velocity":0.7244094488188977,"duration":0.4921875000000071},{"name":"B4","midi":71,"time":50.74218750000022,"velocity":0.7244094488188977,"duration":0.1250000000000071},{"name":"C5","midi":72,"time":50.86588541666689,"velocity":0.7244094488188977,"duration":0.125},{"name":"D5","midi":74,"time":50.99088541666689,"velocity":0.7244094488188977,"duration":0.125},{"name":"G#4","midi":68,"time":51.114583333333556,"velocity":0.7244094488188977,"duration":0.1250000000000071},{"name":"D4","midi":62,"time":51.114583333333556,"velocity":0.7244094488188977,"duration":0.4947916666666856},{"name":"F5","midi":77,"time":51.23828125000023,"velocity":0.7244094488188977,"duration":0.1250000000000071},{"name":"E5","midi":76,"time":51.3619791666669,"velocity":0.7244094488188977,"duration":0.1250000000000071},{"name":"D5","midi":74,"time":51.48567708333357,"velocity":0.7244094488188977,"duration":0.1276041666666714},{"name":"C#5","midi":73,"time":51.611979166666906,"velocity":0.7244094488188977,"duration":0.1575520833333357},{"name":"A2","midi":45,"time":51.611979166666906,"velocity":0.7244094488188977,"duration":1.5104166666666927},{"name":"A4","midi":69,"time":51.75911458333358,"velocity":0.7244094488188977,"duration":0.1263020833333357},{"name":"B4","midi":71,"time":51.88411458333358,"velocity":0.7244094488188977,"duration":0.1276041666666714},{"name":"C#5","midi":73,"time":52.01041666666691,"velocity":0.7244094488188977,"duration":0.1276041666666714},{"name":"G3","midi":55,"time":52.13671875000025,"velocity":0.7244094488188977,"duration":0.5026041666666785},{"name":"E4","midi":64,"time":52.13671875000025,"velocity":0.7244094488188977,"duration":0.1276041666666714},{"name":"G4","midi":67,"time":52.263020833333584,"velocity":0.7244094488188977,"duration":0.1276041666666714},{"name":"F#4","midi":66,"time":52.38932291666692,"velocity":0.7244094488188977,"duration":0.1276041666666714},{"name":"E4","midi":64,"time":52.515625000000256,"velocity":0.7244094488188977,"duration":0.1276041666666714},{"name":"F#3","midi":54,"time":52.64192708333359,"velocity":0.7244094488188977,"duration":0.5013020833333428},{"name":"A4","midi":69,"time":52.64192708333359,"velocity":0.7244094488188977,"duration":0.1276041666666714},{"name":"D5","midi":74,"time":52.76822916666693,"velocity":0.7244094488188977,"duration":0.1276041666666714},{"name":"E5","midi":76,"time":52.89453125000026,"velocity":0.7244094488188977,"duration":0.1276041666666714},{"name":"F#5","midi":78,"time":53.0208333333336,"velocity":0.7244094488188977,"duration":0.1263020833333357},{"name":"D3","midi":50,"time":53.1458333333336,"velocity":0.7244094488188977,"duration":0.5026041666666785},{"name":"A2","midi":45,"time":53.1458333333336,"velocity":0.7244094488188977,"duration":1.0078125000000213},{"name":"B4","midi":71,"time":53.1458333333336,"velocity":0.7244094488188977,"duration":0.6315104166666785},{"name":"A5","midi":81,"time":53.272135416666934,"velocity":0.7244094488188977,"duration":0.1276041666666714},{"name":"G5","midi":79,"time":53.39843750000027,"velocity":0.7244094488188977,"duration":0.1276041666666714},{"name":"F#5","midi":78,"time":53.524739583333606,"velocity":0.7244094488188977,"duration":0.1276041666666714},{"name":"E3","midi":52,"time":53.65104166666694,"velocity":0.7244094488188977,"duration":0.5026041666666785},{"name":"G5","midi":79,"time":53.65104166666694,"velocity":0.7244094488188977,"duration":0.1276041666666714},{"name":"C#5","midi":73,"time":53.77734375000028,"velocity":0.7244094488188977,"duration":0.1276041666666714},{"name":"D5","midi":74,"time":53.90364583333361,"velocity":0.7244094488188977,"duration":0.1276041666666714},{"name":"E5","midi":76,"time":54.02994791666695,"velocity":0.7244094488188977,"duration":0.1276041666666714},{"name":"C#3","midi":49,"time":54.156250000000284,"velocity":0.7244094488188977,"duration":0.5026041666666785},{"name":"A2","midi":45,"time":54.156250000000284,"velocity":0.7244094488188977,"duration":1.0078125000000213},{"name":"A4","midi":69,"time":54.156250000000284,"velocity":0.7244094488188977,"duration":0.6315104166666785},{"name":"G5","midi":79,"time":54.28255208333362,"velocity":0.7244094488188977,"duration":0.1276041666666714},{"name":"F#5","midi":78,"time":54.408854166666956,"velocity":0.7244094488188977,"duration":0.1276041666666714},{"name":"E5","midi":76,"time":54.53515625000029,"velocity":0.7244094488188977,"duration":0.1276041666666714},{"name":"D3","midi":50,"time":54.66145833333363,"velocity":0.7244094488188977,"duration":1.00911458333335},{"name":"F#5","midi":78,"time":54.66145833333363,"velocity":0.7244094488188977,"duration":0.1276041666666714},{"name":"B4","midi":71,"time":54.78776041666696,"velocity":0.7244094488188977,"duration":0.1276041666666714},{"name":"C#5","midi":73,"time":54.9140625000003,"velocity":0.7244094488188977,"duration":0.1276041666666714},{"name":"D5","midi":74,"time":55.040364583333634,"velocity":0.7244094488188977,"duration":0.1276041666666714},{"name":"B2","midi":47,"time":55.16666666666697,"velocity":0.7244094488188977,"duration":0.5039062500000071},{"name":"G#4","midi":68,"time":55.16666666666697,"velocity":0.7244094488188977,"duration":0.25},{"name":"F5","midi":77,"time":55.292968750000306,"velocity":0.7244094488188977,"duration":0.1276041666666643},{"name":"E5","midi":76,"time":55.42057291666697,"velocity":0.7244094488188977,"duration":0.1276041666666714},{"name":"D5","midi":74,"time":55.546875000000306,"velocity":0.7244094488188977,"duration":0.1289062500000071},{"name":"A2","midi":45,"time":55.67447916666698,"velocity":0.7244094488188977,"duration":2.554687500000078},{"name":"C#5","midi":73,"time":55.67447916666698,"velocity":0.7244094488188977,"duration":0.25390625},{"name":"G4","midi":67,"time":55.82291666666698,"velocity":0.7244094488188977,"duration":0.1302083333333357},{"name":"E3","midi":52,"time":55.82291666666698,"velocity":0.7244094488188977,"duration":0.1276041666666643},{"name":"A4","midi":69,"time":55.95182291666698,"velocity":0.7244094488188977,"duration":0.1289062500000071},{"name":"F3","midi":53,"time":55.95182291666698,"velocity":0.7244094488188977,"duration":0.1263020833333357},{"name":"A#4","midi":70,"time":56.07942708333365,"velocity":0.7244094488188977,"duration":0.1289062500000071},{"name":"G3","midi":55,"time":56.07942708333365,"velocity":0.7244094488188977,"duration":0.1263020833333357},{"name":"E4","midi":64,"time":56.20703125000032,"velocity":0.7244094488188977,"duration":0.1289062500000071},{"name":"C#3","midi":49,"time":56.20703125000032,"velocity":0.7244094488188977,"duration":0.1263020833333357},{"name":"G4","midi":67,"time":56.33463541666699,"velocity":0.7244094488188977,"duration":0.12890625},{"name":"E3","midi":52,"time":56.33463541666699,"velocity":0.7244094488188977,"duration":0.1263020833333357},{"name":"F4","midi":65,"time":56.46354166666699,"velocity":0.7244094488188977,"duration":0.1289062500000071},{"name":"D3","midi":50,"time":56.46354166666699,"velocity":0.7244094488188977,"duration":0.1263020833333357},{"name":"E4","midi":64,"time":56.59114583333366,"velocity":0.7244094488188977,"duration":0.1289062500000071},{"name":"C#3","midi":49,"time":56.59114583333366,"velocity":0.7244094488188977,"duration":0.1263020833333357},{"name":"F4","midi":65,"time":56.718750000000334,"velocity":0.7244094488188977,"duration":0.1289062500000071},{"name":"D3","midi":50,"time":56.718750000000334,"velocity":0.7244094488188977,"duration":0.1263020833333357},{"name":"D5","midi":74,"time":56.846354166667005,"velocity":0.7244094488188977,"duration":0.1289062500000071},{"name":"F3","midi":53,"time":56.846354166667005,"velocity":0.7244094488188977,"duration":0.1263020833333357},{"name":"E5","midi":76,"time":56.97395833333368,"velocity":0.7244094488188977,"duration":0.1289062500000071},{"name":"G3","midi":55,"time":56.97395833333368,"velocity":0.7244094488188977,"duration":0.1263020833333357},{"name":"F5","midi":77,"time":57.10156250000035,"velocity":0.7244094488188977,"duration":0.1289062500000071},{"name":"A3","midi":57,"time":57.10156250000035,"velocity":0.7244094488188977,"duration":0.1263020833333357},{"name":"C#5","midi":73,"time":57.22916666666702,"velocity":0.7244094488188977,"duration":0.1289062500000071},{"name":"E3","midi":52,"time":57.22916666666702,"velocity":0.7244094488188977,"duration":0.1263020833333357},{"name":"E5","midi":76,"time":57.35677083333369,"velocity":0.7244094488188977,"duration":0.1289062500000071},{"name":"G3","midi":55,"time":57.35677083333369,"velocity":0.7244094488188977,"duration":0.1263020833333357},{"name":"D5","midi":74,"time":57.48437500000036,"velocity":0.7244094488188977,"duration":0.1289062500000071},{"name":"F3","midi":53,"time":57.48437500000036,"velocity":0.7244094488188977,"duration":0.1263020833333357},{"name":"C#5","midi":73,"time":57.611979166667034,"velocity":0.7244094488188977,"duration":0.1289062500000071},{"name":"E3","midi":52,"time":57.611979166667034,"velocity":0.7244094488188977,"duration":0.1263020833333357},{"name":"D5","midi":74,"time":57.739583333333705,"velocity":0.7244094488188977,"duration":0.2526041666666714},{"name":"F3","midi":53,"time":57.739583333333705,"velocity":0.7244094488188977,"duration":0.1263020833333357},{"name":"A#5","midi":82,"time":57.86718750000038,"velocity":0.7244094488188977,"duration":0.1289062500000071},{"name":"D3","midi":50,"time":57.86718750000038,"velocity":0.7244094488188977,"duration":0.1263020833333357},{"name":"A5","midi":81,"time":57.99479166666705,"velocity":0.7244094488188977,"duration":0.1289062500000071},{"name":"E3","midi":52,"time":57.99479166666705,"velocity":0.7244094488188977,"duration":0.1263020833333357},{"name":"G5","midi":79,"time":58.12239583333372,"velocity":0.7244094488188977,"duration":0.1302083333333357},{"name":"F3","midi":53,"time":58.12239583333372,"velocity":0.7244094488188977,"duration":0.25390625},{"name":"F5","midi":77,"time":58.25130208333372,"velocity":0.7244094488188977,"duration":0.1289062500000071},{"name":"A2","midi":45,"time":58.25130208333372,"velocity":0.7244094488188977,"duration":0.1263020833333357},{"name":"E5","midi":76,"time":58.37890625000039,"velocity":0.7244094488188977,"duration":0.1289062500000071},{"name":"C3","midi":48,"time":58.37890625000039,"velocity":0.7244094488188977,"duration":0.1263020833333357},{"name":"D5","midi":74,"time":58.50651041666706,"velocity":0.7244094488188977,"duration":0.1289062500000071},{"name":"A#2","midi":46,"time":58.50651041666706,"velocity":0.7244094488188977,"duration":0.1263020833333357},{"name":"C#5","midi":73,"time":58.634114583333734,"velocity":0.7244094488188977,"duration":0.1289062500000071},{"name":"A2","midi":45,"time":58.634114583333734,"velocity":0.7244094488188977,"duration":0.1263020833333357},{"name":"D5","midi":74,"time":58.761718750000405,"velocity":0.7244094488188977,"duration":0.3828125},{"name":"G#2","midi":44,"time":58.761718750000405,"velocity":0.7244094488188977,"duration":2.0351562500000355},{"name":"F5","midi":77,"time":58.91145833333374,"velocity":0.7244094488188977,"duration":0.12890625},{"name":"E5","midi":76,"time":59.039062500000405,"velocity":0.7244094488188977,"duration":0.1302083333333357},{"name":"D5","midi":74,"time":59.167968750000405,"velocity":0.7244094488188977,"duration":0.1289062500000071},{"name":"B5","midi":83,"time":59.295572916667076,"velocity":0.7244094488188977,"duration":0.2526041666666714},{"name":"G#5","midi":80,"time":59.42317708333375,"velocity":0.7244094488188977,"duration":0.12890625},{"name":"A5","midi":81,"time":59.55078125000041,"velocity":0.7244094488188977,"duration":0.1289062500000071},{"name":"B5","midi":83,"time":59.67838541666708,"velocity":0.7244094488188977,"duration":0.1289062500000071},{"name":"F5","midi":77,"time":59.805989583333755,"velocity":0.7244094488188977,"duration":0.2526041666666714},{"name":"D5","midi":74,"time":59.933593750000426,"velocity":0.7244094488188977,"duration":0.12890625},{"name":"E5","midi":76,"time":60.06119791666709,"velocity":0.7244094488188977,"duration":0.1289062500000071},{"name":"F5","midi":77,"time":60.18880208333376,"velocity":0.7244094488188977,"duration":0.1289062500000071},{"name":"B4","midi":71,"time":60.31640625000043,"velocity":0.7244094488188977,"duration":0.2526041666666714},{"name":"G#4","midi":68,"time":60.444010416667105,"velocity":0.7244094488188977,"duration":0.12890625},{"name":"A4","midi":69,"time":60.57161458333377,"velocity":0.7244094488188977,"duration":0.1289062500000071},{"name":"B4","midi":71,"time":60.69921875000044,"velocity":0.7244094488188977,"duration":0.12890625},{"name":"E4","midi":64,"time":60.826822916667105,"velocity":0.7244094488188977,"duration":0.6783854166666643},{"name":"F#4","midi":66,"time":61.059895833333776,"velocity":0.7244094488188977,"duration":0.0846354166666643},{"name":"G#4","midi":68,"time":61.145833333333776,"velocity":0.7244094488188977,"duration":0.0846354166666643},{"name":"A4","midi":69,"time":61.23046875000044,"velocity":0.7244094488188977,"duration":0.0846354166666643},{"name":"B4","midi":71,"time":61.315104166667105,"velocity":0.7244094488188977,"duration":0.0846354166666643},{"name":"C5","midi":72,"time":61.401041666667105,"velocity":0.7244094488188977,"duration":0.0846354166666643},{"name":"D5","midi":74,"time":61.48567708333377,"velocity":0.7244094488188977,"duration":0.0846354166666643},{"name":"E5","midi":76,"time":61.57031250000043,"velocity":0.7244094488188977,"duration":0.0846354166666643},{"name":"F5","midi":77,"time":61.65625000000043,"velocity":0.7244094488188977,"duration":0.8046874999999929},{"name":"A2","midi":45,"time":61.65625000000043,"velocity":0.7244094488188977,"duration":2.1393229166666643},{"name":"C#5","midi":73,"time":61.7916666666671,"velocity":0.7244094488188977,"duration":0.1354166666666643},{"name":"D5","midi":74,"time":61.92708333333376,"velocity":0.7244094488188977,"duration":0.1341145833333357},{"name":"A3","midi":57,"time":61.92708333333376,"velocity":0.7244094488188977,"duration":0.265625},{"name":"A4","midi":69,"time":62.0611979166671,"velocity":0.7244094488188977,"duration":0.1341145833333286},{"name":"A#4","midi":70,"time":62.195312500000426,"velocity":0.7244094488188977,"duration":0.5325520833333357},{"name":"G3","midi":55,"time":62.195312500000426,"velocity":0.7244094488188977,"duration":0.265625},{"name":"G4","midi":67,"time":62.32942708333376,"velocity":0.7244094488188977,"duration":0.1341145833333286},{"name":"E5","midi":76,"time":62.46354166666709,"velocity":0.7244094488188977,"duration":0.5299479166666714},{"name":"C#3","midi":49,"time":62.46354166666709,"velocity":0.7244094488188977,"duration":0.2656250000000071},{"name":"G4","midi":67,"time":62.597656250000426,"velocity":0.7244094488188977,"duration":0.1341145833333357},{"name":"A4","midi":69,"time":62.73177083333376,"velocity":0.7244094488188977,"duration":0.5325520833333357},{"name":"F3","midi":53,"time":62.73177083333376,"velocity":0.7244094488188977,"duration":0.265625},{"name":"F4","midi":65,"time":62.86458333333376,"velocity":0.7244094488188977,"duration":0.1341145833333357},{"name":"D5","midi":74,"time":62.9986979166671,"velocity":0.7244094488188977,"duration":0.5299479166666643},{"name":"D3","midi":50,"time":62.9986979166671,"velocity":0.7244094488188977,"duration":0.265625},{"name":"F4","midi":65,"time":63.13281250000043,"velocity":0.7244094488188977,"duration":0.1341145833333286},{"name":"G4","midi":67,"time":63.26692708333376,"velocity":0.7244094488188977,"duration":0.5325520833333357},{"name":"E3","midi":52,"time":63.26692708333376,"velocity":0.7244094488188977,"duration":0.265625},{"name":"E4","midi":64,"time":63.4010416666671,"velocity":0.7244094488188977,"duration":0.1341145833333286},{"name":"C#5","midi":73,"time":63.535156250000426,"velocity":0.7244094488188977,"duration":0.2643229166666714},{"name":"G3","midi":55,"time":63.535156250000426,"velocity":0.7244094488188977,"duration":0.2656250000000071},{"name":"E4","midi":64,"time":63.66927083333376,"velocity":0.7244094488188977,"duration":0.1341145833333357},{"name":"A2","midi":45,"time":63.8033854166671,"velocity":0.7244094488188977,"duration":2.2434895833333144},{"name":"D3","midi":50,"time":64.0065104166671,"velocity":0.7244094488188977,"duration":2.041666666666643},{"name":"F3","midi":53,"time":64.0729166666671,"velocity":0.7244094488188977,"duration":1.9739583333333144},{"name":"G#3","midi":56,"time":64.14062500000043,"velocity":0.7244094488188977,"duration":1.9075520833333144},{"name":"B3","midi":59,"time":64.20703125000043,"velocity":0.7244094488188977,"duration":1.8398437499999858},{"name":"D4","midi":62,"time":64.27473958333375,"velocity":0.7244094488188977,"duration":1.7734374999999858},{"name":"F4","midi":65,"time":64.34114583333375,"velocity":0.7244094488188977,"duration":1.7057291666666572},{"name":"G#4","midi":68,"time":64.40885416666708,"velocity":0.7244094488188977,"duration":1.6393229166666572},{"name":"B4","midi":71,"time":64.47526041666708,"velocity":0.7244094488188977,"duration":1.5716145833333286},{"name":"D5","midi":74,"time":64.54296875000041,"velocity":0.7244094488188977,"duration":1.5052083333333286},{"name":"C#5","midi":73,"time":66.09375000000041,"velocity":0.7244094488188977,"duration":0.10416666666665719},{"name":"B4","midi":71,"time":66.19661458333374,"velocity":0.7244094488188977,"duration":0.10416666666665719},{"name":"A4","midi":69,"time":66.3007812500004,"velocity":0.7244094488188977,"duration":0.1041666666666714},{"name":"G#4","midi":68,"time":66.40494791666707,"velocity":0.7244094488188977,"duration":0.1041666666666714},{"name":"F#4","midi":66,"time":66.51041666666707,"velocity":0.7244094488188977,"duration":0.1041666666666714},{"name":"E4","midi":64,"time":66.61458333333374,"velocity":0.7244094488188977,"duration":0.1041666666666714},{"name":"F#4","midi":66,"time":66.71875000000041,"velocity":0.7244094488188977,"duration":0.10416666666665719},{"name":"G#4","midi":68,"time":66.82161458333374,"velocity":0.7244094488188977,"duration":0.10416666666665719},{"name":"A4","midi":69,"time":66.9257812500004,"velocity":0.7244094488188977,"duration":0.1041666666666714},{"name":"B4","midi":71,"time":67.0312500000004,"velocity":0.7244094488188977,"duration":0.1041666666666714},{"name":"C#5","midi":73,"time":67.13541666666707,"velocity":0.7244094488188977,"duration":0.1041666666666714},{"name":"D5","midi":74,"time":67.23958333333374,"velocity":0.7244094488188977,"duration":0.1041666666666714},{"name":"E5","midi":76,"time":67.34375000000041,"velocity":0.7244094488188977,"duration":0.1041666666666714},{"name":"F5","midi":77,"time":67.44791666666708,"velocity":0.7244094488188977,"duration":0.1041666666666714},{"name":"E5","midi":76,"time":67.55208333333375,"velocity":0.7244094488188977,"duration":0.1041666666666714},{"name":"D5","midi":74,"time":67.65625000000043,"velocity":0.7244094488188977,"duration":0.1041666666666714},{"name":"C#5","midi":73,"time":67.7604166666671,"velocity":0.7244094488188977,"duration":0.1041666666666714},{"name":"B4","midi":71,"time":67.86458333333377,"velocity":0.7244094488188977,"duration":0.1041666666666714},{"name":"A4","midi":69,"time":67.96875000000044,"velocity":0.7244094488188977,"duration":0.1041666666666714},{"name":"G#4","midi":68,"time":68.07291666666711,"velocity":0.7244094488188977,"duration":0.1041666666666714},{"name":"F#4","midi":66,"time":68.17708333333378,"velocity":0.7244094488188977,"duration":0.1041666666666714},{"name":"E4","midi":64,"time":68.28125000000045,"velocity":0.7244094488188977,"duration":0.1041666666666714},{"name":"D4","midi":62,"time":68.38541666666713,"velocity":0.7244094488188977,"duration":0.1041666666666714},{"name":"C#4","midi":61,"time":68.5091145833338,"velocity":0.7244094488188977,"duration":1.1874999999999858},{"name":"E4","midi":64,"time":68.64453125000047,"velocity":0.7244094488188977,"duration":1.0520833333333144},{"name":"G4","midi":67,"time":68.7122395833338,"velocity":0.7244094488188977,"duration":0.9856770833333144},{"name":"A#4","midi":70,"time":68.7786458333338,"velocity":0.7244094488188977,"duration":0.9179687499999858},{"name":"C#5","midi":73,"time":68.84635416666713,"velocity":0.7244094488188977,"duration":0.8515624999999858},{"name":"E5","midi":76,"time":68.91276041666713,"velocity":0.7244094488188977,"duration":0.7838541666666572},{"name":"G5","midi":79,"time":68.98046875000045,"velocity":0.7244094488188977,"duration":0.7174479166666572},{"name":"A#5","midi":82,"time":69.04687500000045,"velocity":0.7244094488188977,"duration":0.6510416666666572},{"name":"D4","midi":62,"time":69.73307291666711,"velocity":0.7244094488188977,"duration":1.4843750000000142},{"name":"F4","midi":65,"time":69.89062500000044,"velocity":0.7244094488188977,"duration":1.3268229166666856},{"name":"G#4","midi":68,"time":69.96484375000044,"velocity":0.7244094488188977,"duration":1.2539062500000142},{"name":"B4","midi":71,"time":70.03776041666711,"velocity":0.7244094488188977,"duration":1.1796875000000142},{"name":"D5","midi":74,"time":70.11197916666711,"velocity":0.7244094488188977,"duration":1.1067708333333428},{"name":"F5","midi":77,"time":70.18489583333378,"velocity":0.7244094488188977,"duration":1.0338541666666714},{"name":"G#5","midi":80,"time":70.25781250000045,"velocity":0.7244094488188977,"duration":0.9596354166666714},{"name":"B5","midi":83,"time":70.33203125000045,"velocity":0.7244094488188977,"duration":0.88671875},{"name":"A2","midi":45,"time":71.37760416666713,"velocity":0.7244094488188977,"duration":1.3645833333333428},{"name":"E3","midi":52,"time":71.54557291666713,"velocity":0.7244094488188977,"duration":0.99609375},{"name":"A3","midi":57,"time":71.67057291666713,"velocity":0.7244094488188977,"duration":0.74609375},{"name":"E4","midi":64,"time":71.79557291666713,"velocity":0.7244094488188977,"duration":0.4921875},{"name":"A4","midi":69,"time":71.92187500000045,"velocity":0.7244094488188977,"duration":0.24609375},{"name":"D5","midi":74,"time":72.04687500000045,"velocity":0.7244094488188977,"duration":0.7239583333333428},{"name":"A4","midi":69,"time":72.17187500000045,"velocity":0.7244094488188977,"duration":0.4791666666666714},{"name":"E4","midi":64,"time":72.29557291666713,"velocity":0.7244094488188977,"duration":0.234375},{"name":"D4","midi":62,"time":72.42057291666713,"velocity":0.7244094488188977,"duration":0.3502604166666714},{"name":"E4","midi":64,"time":72.54557291666713,"velocity":0.7244094488188977,"duration":0.2252604166666714},{"name":"A4","midi":69,"time":72.6692708333338,"velocity":0.7244094488188977,"duration":0.1223958333333286},{"name":"A2","midi":45,"time":72.80729166666713,"velocity":0.7244094488188977,"duration":1.3645833333333428},{"name":"E3","midi":52,"time":72.96354166666713,"velocity":0.7244094488188977,"duration":1.10546875},{"name":"A3","midi":57,"time":73.08984375000045,"velocity":0.7244094488188977,"duration":0.87109375},{"name":"E4","midi":64,"time":73.21484375000045,"velocity":0.7244094488188977,"duration":0.49609375},{"name":"G4","midi":67,"time":73.33984375000045,"velocity":0.7244094488188977,"duration":0.1380208333333286},{"name":"C#5","midi":73,"time":73.46484375000045,"velocity":0.7244094488188977,"duration":0.6536458333333428},{"name":"A4","midi":69,"time":73.58984375000045,"velocity":0.7244094488188977,"duration":0.5286458333333428},{"name":"E4","midi":64,"time":73.71484375000045,"velocity":0.7244094488188977,"duration":0.4036458333333428},{"name":"C#4","midi":61,"time":73.83854166666713,"velocity":0.7244094488188977,"duration":0.2799479166666714},{"name":"A3","midi":57,"time":73.96354166666713,"velocity":0.7244094488188977,"duration":0.1549479166666714},{"name":"E3","midi":52,"time":74.08854166666713,"velocity":0.7244094488188977,"duration":0.12109375000001421},{"name":"D3","midi":50,"time":74.22395833333381,"velocity":0.7244094488188977,"duration":1.4947916666666714},{"name":"F#3","midi":54,"time":74.38281250000048,"velocity":0.7244094488188977,"duration":1.24609375},{"name":"A3","midi":57,"time":74.50781250000048,"velocity":0.7244094488188977,"duration":0.99609375},{"name":"D4","midi":62,"time":74.63281250000048,"velocity":0.7244094488188977,"duration":0.7473958333333428},{"name":"F#4","midi":66,"time":74.75781250000048,"velocity":0.7244094488188977,"duration":0.49609375},{"name":"A4","midi":69,"time":74.88281250000048,"velocity":0.7244094488188977,"duration":0.24609375},{"name":"D5","midi":74,"time":75.00651041666715,"velocity":0.7244094488188977,"duration":0.7473958333333286},{"name":"A4","midi":69,"time":75.13151041666715,"velocity":0.7244094488188977,"duration":0.6236979166666572},{"name":"F#4","midi":66,"time":75.25651041666715,"velocity":0.7244094488188977,"duration":0.4999999999999858},{"name":"D4","midi":62,"time":75.38151041666715,"velocity":0.7244094488188977,"duration":0.3763020833333144},{"name":"A3","midi":57,"time":75.50651041666715,"velocity":0.7244094488188977,"duration":0.252604166666643},{"name":"F#3","midi":54,"time":75.63151041666715,"velocity":0.7244094488188977,"duration":0.1223958333333286},{"name":"D3","midi":50,"time":75.75651041666714,"velocity":0.7244094488188977,"duration":0.4921875},{"name":"D2","midi":38,"time":76.14062500000047,"velocity":0.7244094488188977,"duration":4.716145833333329},{"name":"D3","midi":50,"time":76.52343750000047,"velocity":0.7244094488188977,"duration":4.333333333333329},{"name":"D4","midi":62,"time":76.9075520833338,"velocity":0.7244094488188977,"duration":3.94921875},{"name":"F#2","midi":42,"time":77.29166666666713,"velocity":0.7244094488188977,"duration":3.5651041666666714},{"name":"A2","midi":45,"time":77.29166666666713,"velocity":0.7244094488188977,"duration":3.5651041666666714},{"name":"D5","midi":74,"time":77.29166666666713,"velocity":0.7244094488188977,"duration":3.5651041666666714},{"name":"A4","midi":69,"time":77.29166666666713,"velocity":0.7244094488188977,"duration":3.5651041666666714},{"name":"F#4","midi":66,"time":77.29166666666713,"velocity":0.7244094488188977,"duration":3.5651041666666714},{"name":"D3","midi":50,"time":81.09765625000047,"velocity":0.7244094488188977,"duration":0.3372395833333286},{"name":"E3","midi":52,"time":81.4270833333338,"velocity":0.7244094488188977,"duration":0.0885416666666714},{"name":"F#3","midi":54,"time":81.51953125000047,"velocity":0.7244094488188977,"duration":0.0885416666666714},{"name":"G3","midi":55,"time":81.61067708333381,"velocity":0.7244094488188977,"duration":0.0885416666666714},{"name":"F#3","midi":54,"time":81.70182291666715,"velocity":0.7244094488188977,"duration":0.0885416666666714},{"name":"E3","midi":52,"time":81.79427083333383,"velocity":0.7244094488188977,"duration":0.0885416666666714},{"name":"F#3","midi":54,"time":81.88541666666717,"velocity":0.7244094488188977,"duration":0.0885416666666714},{"name":"D3","midi":50,"time":81.97656250000051,"velocity":0.7244094488188977,"duration":0.0885416666666714},{"name":"B3","midi":59,"time":82.06901041666718,"velocity":0.7244094488188977,"duration":0.8229166666666714},{"name":"B3","midi":59,"time":82.89453125000053,"velocity":0.7244094488188977,"duration":0.1158854166666714},{"name":"A3","midi":57,"time":83.01302083333387,"velocity":0.7244094488188977,"duration":0.8229166666666714},{"name":"G3","midi":55,"time":83.83984375000054,"velocity":0.7244094488188977,"duration":0.1158854166666714},{"name":"F#3","midi":54,"time":83.95833333333388,"velocity":0.7244094488188977,"duration":0.8229166666666714},{"name":"G3","midi":55,"time":84.78515625000055,"velocity":0.7244094488188977,"duration":0.1158854166666714},{"name":"F#3","midi":54,"time":84.9036458333339,"velocity":0.7244094488188977,"duration":0.8255208333333854},{"name":"A3","midi":57,"time":84.9036458333339,"velocity":0.7244094488188977,"duration":0.3033854166666714},{"name":"B3","midi":59,"time":85.20963541666724,"velocity":0.7244094488188977,"duration":0.0885416666666714},{"name":"C#4","midi":61,"time":85.30208333333391,"velocity":0.7244094488188977,"duration":0.0885416666666714},{"name":"D4","midi":62,"time":85.39322916666725,"velocity":0.7244094488188977,"duration":0.0885416666666714},{"name":"C#4","midi":61,"time":85.4843750000006,"velocity":0.7244094488188977,"duration":0.0885416666666714},{"name":"B3","midi":59,"time":85.57682291666727,"velocity":0.7244094488188977,"duration":0.0885416666666714},{"name":"C#4","midi":61,"time":85.66796875000061,"velocity":0.7244094488188977,"duration":0.0885416666666714},{"name":"E3","midi":52,"time":85.73177083333395,"velocity":0.7244094488188977,"duration":0.1158854166666714},{"name":"A3","midi":57,"time":85.75911458333395,"velocity":0.7244094488188977,"duration":0.0885416666666714},{"name":"D3","midi":50,"time":85.8502604166673,"velocity":0.7244094488188977,"duration":0.94140625},{"name":"F#4","midi":66,"time":85.8502604166673,"velocity":0.7244094488188977,"duration":0.8229166666666714},{"name":"F#4","midi":66,"time":86.67708333333397,"velocity":0.7244094488188977,"duration":0.11588541666665719},{"name":"E3","midi":52,"time":86.7955729166673,"velocity":0.7244094488188977,"duration":0.94140625},{"name":"E4","midi":64,"time":86.7955729166673,"velocity":0.7244094488188977,"duration":0.8229166666666714},{"name":"D4","midi":62,"time":87.62239583333397,"velocity":0.7244094488188977,"duration":0.11588541666665719},{"name":"A2","midi":45,"time":87.7408854166673,"velocity":0.7244094488188977,"duration":0.7044270833333286},{"name":"C#4","midi":61,"time":87.7408854166673,"velocity":0.7244094488188977,"duration":0.9401041666666572},{"name":"E3","midi":52,"time":88.44921875000063,"velocity":0.7244094488188977,"duration":0.0755208333333286},{"name":"F#3","midi":54,"time":88.52734375000063,"velocity":0.7244094488188977,"duration":0.0755208333333286},{"name":"G3","midi":55,"time":88.60546875000063,"velocity":0.7244094488188977,"duration":0.0755208333333286},{"name":"A3","midi":57,"time":88.68489583333395,"velocity":0.7244094488188977,"duration":1.8854166666666714},{"name":"F#4","midi":66,"time":88.68489583333395,"velocity":0.7244094488188977,"duration":0.8229166666666714},{"name":"F#4","midi":66,"time":89.5104166666673,"velocity":0.7244094488188977,"duration":0.1158854166666714},{"name":"B3","midi":59,"time":89.62890625000064,"velocity":0.7244094488188977,"duration":0.7044270833333286},{"name":"B3","midi":59,"time":90.33723958333397,"velocity":0.7244094488188977,"duration":0.0755208333333286},{"name":"C#4","midi":61,"time":90.41536458333397,"velocity":0.7244094488188977,"duration":0.0755208333333286},{"name":"D4","midi":62,"time":90.4947916666673,"velocity":0.7244094488188977,"duration":0.0755208333333286},{"name":"G3","midi":55,"time":90.5729166666673,"velocity":0.7244094488188977,"duration":1.7265625000000284},{"name":"E4","midi":64,"time":90.5729166666673,"velocity":0.7244094488188977,"duration":0.2330729166666714},{"name":"D4","midi":62,"time":90.80859375000064,"velocity":0.7244094488188977,"duration":0.2330729166666714},{"name":"E4","midi":64,"time":91.04557291666731,"velocity":0.7244094488188977,"duration":0.2330729166666714},{"name":"C#4","midi":61,"time":91.28125000000065,"velocity":0.7244094488188977,"duration":0.2330729166666714},{"name":"B3","midi":59,"time":91.516927083334,"velocity":0.7244094488188977,"duration":0.0755208333333286},{"name":"A3","midi":57,"time":91.595052083334,"velocity":0.7244094488188977,"duration":0.0755208333333286},{"name":"B3","midi":59,"time":91.67447916666733,"velocity":0.7244094488188977,"duration":0.0755208333333286},{"name":"A3","midi":57,"time":91.75260416666733,"velocity":0.7244094488188977,"duration":0.7044270833333286},{"name":"F#3","midi":54,"time":92.30338541666733,"velocity":0.7244094488188977,"duration":0.0755208333333286},{"name":"E3","midi":52,"time":92.38151041666733,"velocity":0.7244094488188977,"duration":0.0755208333333286},{"name":"F#3","midi":54,"time":92.46093750000065,"velocity":0.7244094488188977,"duration":0.8255208333333712},{"name":"D4","midi":62,"time":92.46093750000065,"velocity":0.7244094488188977,"duration":0.8476562500000426},{"name":"E4","midi":64,"time":92.76692708333398,"velocity":0.7244094488188977,"duration":0.0885416666666714},{"name":"F#4","midi":66,"time":92.85937500000065,"velocity":0.7244094488188977,"duration":0.0885416666666714},{"name":"G4","midi":67,"time":92.950520833334,"velocity":0.7244094488188977,"duration":0.0885416666666714},{"name":"F#4","midi":66,"time":93.04166666666734,"velocity":0.7244094488188977,"duration":0.0885416666666714},{"name":"E4","midi":64,"time":93.13411458333401,"velocity":0.7244094488188977,"duration":0.0885416666666714},{"name":"F#4","midi":66,"time":93.22526041666735,"velocity":0.7244094488188977,"duration":0.0885416666666714},{"name":"D3","midi":50,"time":93.2890625000007,"velocity":0.7244094488188977,"duration":0.1158854166666714},{"name":"D4","midi":62,"time":93.3164062500007,"velocity":0.7244094488188977,"duration":1.0039062500000142},{"name":"G3","midi":55,"time":93.40755208333404,"velocity":0.7244094488188977,"duration":0.8229166666666714},{"name":"B4","midi":71,"time":93.40755208333404,"velocity":0.7244094488188977,"duration":0.8229166666666714},{"name":"E3","midi":52,"time":94.23437500000071,"velocity":0.7244094488188977,"duration":0.1158854166666714},{"name":"B4","midi":71,"time":94.23437500000071,"velocity":0.7244094488188977,"duration":0.1158854166666714},{"name":"A3","midi":57,"time":94.35286458333405,"velocity":0.7244094488188977,"duration":0.8229166666666714},{"name":"A4","midi":69,"time":94.35286458333405,"velocity":0.7244094488188977,"duration":0.8229166666666714},{"name":"C#4","midi":61,"time":94.35286458333405,"velocity":0.7244094488188977,"duration":0.93359375},{"name":"A2","midi":45,"time":95.17968750000072,"velocity":0.7244094488188977,"duration":0.11588541666665719},{"name":"G4","midi":67,"time":95.17968750000072,"velocity":0.7244094488188977,"duration":0.11588541666665719},{"name":"D3","midi":50,"time":95.29817708333405,"velocity":0.7244094488188977,"duration":0.82421875},{"name":"F#4","midi":66,"time":95.29817708333405,"velocity":0.7244094488188977,"duration":0.5872395833333286},{"name":"D4","midi":62,"time":95.29817708333405,"velocity":0.7244094488188977,"duration":0.6028645833333286},{"name":"A4","midi":69,"time":95.88802083333405,"velocity":0.7244094488188977,"duration":0.0859375},{"name":"G#4","midi":68,"time":95.97786458333405,"velocity":0.7244094488188977,"duration":0.0859375},{"name":"F#4","midi":66,"time":96.06640625000072,"velocity":0.7244094488188977,"duration":0.0859375},{"name":"E3","midi":52,"time":96.12630208333405,"velocity":0.7244094488188977,"duration":0.1158854166666714},{"name":"G#4","midi":68,"time":96.1549479166674,"velocity":0.7244094488188977,"duration":0.0859375},{"name":"F#3","midi":54,"time":96.2447916666674,"velocity":0.7244094488188977,"duration":0.8255208333333712},{"name":"C#4","midi":61,"time":96.2447916666674,"velocity":0.7244094488188977,"duration":0.8255208333333712},{"name":"A4","midi":69,"time":96.2447916666674,"velocity":0.7244094488188977,"duration":0.8476562500000426},{"name":"B4","midi":71,"time":96.55078125000072,"velocity":0.7244094488188977,"duration":0.0885416666666714},{"name":"C#5","midi":73,"time":96.6432291666674,"velocity":0.7244094488188977,"duration":0.0885416666666714},{"name":"D5","midi":74,"time":96.73437500000074,"velocity":0.7244094488188977,"duration":0.0885416666666714},{"name":"C#5","midi":73,"time":96.82552083333408,"velocity":0.7244094488188977,"duration":0.0885416666666714},{"name":"B4","midi":71,"time":96.91666666666742,"velocity":0.7244094488188977,"duration":0.0885416666666714},{"name":"C#5","midi":73,"time":97.0091145833341,"velocity":0.7244094488188977,"duration":0.0885416666666714},{"name":"E3","midi":52,"time":97.07291666666744,"velocity":0.7244094488188977,"duration":0.1158854166666714},{"name":"A4","midi":69,"time":97.10026041666744,"velocity":0.7244094488188977,"duration":1.0039062500000142},{"name":"D3","midi":50,"time":97.19140625000078,"velocity":0.7244094488188977,"duration":0.8229166666666714},{"name":"B3","midi":59,"time":97.19140625000078,"velocity":0.7244094488188977,"duration":0.8229166666666714},{"name":"F#5","midi":78,"time":97.19140625000078,"velocity":0.7244094488188977,"duration":0.8229166666666714},{"name":"B2","midi":47,"time":98.01822916666745,"velocity":0.7244094488188977,"duration":0.1158854166666714},{"name":"F#5","midi":78,"time":98.01822916666745,"velocity":0.7244094488188977,"duration":0.1158854166666714},{"name":"E3","midi":52,"time":98.1367187500008,"velocity":0.7244094488188977,"duration":0.94140625},{"name":"G#4","midi":68,"time":98.1367187500008,"velocity":0.7244094488188977,"duration":0.93359375},{"name":"E5","midi":76,"time":98.1367187500008,"velocity":0.7244094488188977,"duration":0.8229166666666714},{"name":"D5","midi":74,"time":98.96354166666747,"velocity":0.7244094488188977,"duration":0.11588541666665719},{"name":"A2","midi":45,"time":99.0820312500008,"velocity":0.7244094488188977,"duration":0.78515625},{"name":"A3","midi":57,"time":99.0820312500008,"velocity":0.7244094488188977,"duration":0.859375},{"name":"A4","midi":69,"time":99.0820312500008,"velocity":0.7244094488188977,"duration":0.7044270833333286},{"name":"C#5","midi":73,"time":99.0820312500008,"velocity":0.7244094488188977,"duration":0.7044270833333286},{"name":"E5","midi":76,"time":99.7890625000008,"velocity":0.7244094488188977,"duration":0.0755208333333286},{"name":"F#5","midi":78,"time":99.86848958333412,"velocity":0.7244094488188977,"duration":0.07552083333334281},{"name":"G5","midi":79,"time":99.94661458333414,"velocity":0.7244094488188977,"duration":0.0755208333333286},{"name":"F#4","midi":66,"time":100.02604166666747,"velocity":0.7244094488188977,"duration":0.3033854166666714},{"name":"A5","midi":81,"time":100.02604166666747,"velocity":0.7244094488188977,"duration":0.8255208333333854},{"name":"C#5","midi":73,"time":100.02604166666747,"velocity":0.7244094488188977,"duration":0.9361979166667282},{"name":"G4","midi":67,"time":100.33203125000081,"velocity":0.7244094488188977,"duration":0.0885416666666714},{"name":"A4","midi":69,"time":100.42447916666748,"velocity":0.7244094488188977,"duration":0.0885416666666714},{"name":"B4","midi":71,"time":100.51562500000082,"velocity":0.7244094488188977,"duration":0.0885416666666714},{"name":"A4","midi":69,"time":100.60677083333417,"velocity":0.7244094488188977,"duration":0.0885416666666714},{"name":"G4","midi":67,"time":100.69791666666751,"velocity":0.7244094488188977,"duration":0.0885416666666714},{"name":"A4","midi":69,"time":100.79036458333418,"velocity":0.7244094488188977,"duration":0.0885416666666714},{"name":"A5","midi":81,"time":100.85416666666752,"velocity":0.7244094488188977,"duration":0.1158854166666714},{"name":"F#4","midi":66,"time":100.88151041666752,"velocity":0.7244094488188977,"duration":0.0885416666666714},{"name":"B4","midi":71,"time":100.97265625000087,"velocity":0.7244094488188977,"duration":0.9401041666666572},{"name":"A5","midi":81,"time":100.97265625000087,"velocity":0.7244094488188977,"duration":0.7044270833333286},{"name":"D5","midi":74,"time":100.97265625000087,"velocity":0.7244094488188977,"duration":0.7044270833333286},{"name":"D5","midi":74,"time":101.6809895833342,"velocity":0.7244094488188977,"duration":0.0755208333333286},{"name":"E5","midi":76,"time":101.7591145833342,"velocity":0.7244094488188977,"duration":0.0755208333333286},{"name":"F#5","midi":78,"time":101.83854166666752,"velocity":0.7244094488188977,"duration":0.0755208333333286},{"name":"E4","midi":64,"time":101.91666666666752,"velocity":0.7244094488188977,"duration":0.3033854166666714},{"name":"G5","midi":79,"time":101.91666666666752,"velocity":0.7244094488188977,"duration":0.8255208333333854},{"name":"D5","midi":74,"time":101.91666666666752,"velocity":0.7244094488188977,"duration":0.936197916666714},{"name":"F#4","midi":66,"time":102.2239583333342,"velocity":0.7244094488188977,"duration":0.0885416666666714},{"name":"G4","midi":67,"time":102.31510416666754,"velocity":0.7244094488188977,"duration":0.0885416666666714},{"name":"A4","midi":69,"time":102.40625000000088,"velocity":0.7244094488188977,"duration":0.0885416666666714},{"name":"G4","midi":67,"time":102.49869791666755,"velocity":0.7244094488188977,"duration":0.0885416666666714},{"name":"F#4","midi":66,"time":102.5898437500009,"velocity":0.7244094488188977,"duration":0.0885416666666714},{"name":"G4","midi":67,"time":102.68098958333424,"velocity":0.7244094488188977,"duration":0.0885416666666714},{"name":"G5","midi":79,"time":102.74609375000091,"velocity":0.7244094488188977,"duration":0.11588541666665719},{"name":"E4","midi":64,"time":102.77343750000091,"velocity":0.7244094488188977,"duration":0.08854166666665719},{"name":"A4","midi":69,"time":102.86458333333424,"velocity":0.7244094488188977,"duration":0.859375},{"name":"C#5","midi":73,"time":102.86458333333424,"velocity":0.7244094488188977,"duration":0.7044270833333286},{"name":"G5","midi":79,"time":102.86458333333424,"velocity":0.7244094488188977,"duration":0.7044270833333286},{"name":"E5","midi":76,"time":103.57161458333424,"velocity":0.7244094488188977,"duration":0.0755208333333286},{"name":"D5","midi":74,"time":103.65104166666757,"velocity":0.7244094488188977,"duration":0.07552083333334281},{"name":"C#5","midi":73,"time":103.72916666666758,"velocity":0.7244094488188977,"duration":0.0755208333333286},{"name":"D2","midi":38,"time":103.80859375000091,"velocity":0.7244094488188977,"duration":0.3033854166666572},{"name":"A4","midi":69,"time":103.80859375000091,"velocity":0.7244094488188977,"duration":0.8072916666666998},{"name":"D5","midi":74,"time":103.88671875000091,"velocity":0.7244094488188977,"duration":0.7291666666666998},{"name":"E5","midi":76,"time":103.96484375000091,"velocity":0.7244094488188977,"duration":0.0755208333333286},{"name":"F#5","midi":78,"time":104.04427083333424,"velocity":0.7244094488188977,"duration":0.5885416666666998},{"name":"E2","midi":40,"time":104.11458333333424,"velocity":0.7244094488188977,"duration":0.0885416666666714},{"name":"F#2","midi":42,"time":104.20703125000091,"velocity":0.7244094488188977,"duration":0.0885416666666714},{"name":"G2","midi":43,"time":104.29817708333425,"velocity":0.7244094488188977,"duration":0.0885416666666714},{"name":"F#2","midi":42,"time":104.3893229166676,"velocity":0.7244094488188977,"duration":0.0885416666666714},{"name":"E2","midi":40,"time":104.48046875000094,"velocity":0.7244094488188977,"duration":0.0885416666666714},{"name":"F#2","midi":42,"time":104.57291666666761,"velocity":0.7244094488188977,"duration":0.0872395833333286},{"name":"G4","midi":67,"time":104.63541666666761,"velocity":0.7244094488188977,"duration":0.1158854166666714},{"name":"C#5","midi":73,"time":104.63541666666761,"velocity":0.7244094488188977,"duration":0.1158854166666714},{"name":"E5","midi":76,"time":104.63541666666761,"velocity":0.7244094488188977,"duration":0.1158854166666714},{"name":"D2","midi":38,"time":104.66276041666761,"velocity":0.7244094488188977,"duration":0.0885416666666714},{"name":"B2","midi":47,"time":104.75390625000095,"velocity":0.7244094488188977,"duration":0.8229166666666714},{"name":"F#4","midi":66,"time":104.75390625000095,"velocity":0.7244094488188977,"duration":0.8229166666666714},{"name":"B4","midi":71,"time":104.75390625000095,"velocity":0.7244094488188977,"duration":0.8229166666666714},{"name":"D5","midi":74,"time":104.75390625000095,"velocity":0.7244094488188977,"duration":0.8229166666666714},{"name":"B2","midi":47,"time":105.58072916666762,"velocity":0.7244094488188977,"duration":0.1158854166666714},{"name":"G4","midi":67,"time":105.58072916666762,"velocity":0.7244094488188977,"duration":0.1158854166666714},{"name":"E5","midi":76,"time":105.58072916666762,"velocity":0.7244094488188977,"duration":0.1158854166666714},{"name":"A2","midi":45,"time":105.69921875000097,"velocity":0.7244094488188977,"duration":0.8229166666666714},{"name":"C#5","midi":73,"time":105.69921875000097,"velocity":0.7244094488188977,"duration":0.8229166666666714},{"name":"A4","midi":69,"time":105.69921875000097,"velocity":0.7244094488188977,"duration":0.8229166666666714},{"name":"E4","midi":64,"time":105.69921875000097,"velocity":0.7244094488188977,"duration":0.8229166666666714},{"name":"G2","midi":43,"time":106.52604166666764,"velocity":0.7244094488188977,"duration":0.1158854166666714},{"name":"E4","midi":64,"time":106.52604166666764,"velocity":0.7244094488188977,"duration":0.1158854166666714},{"name":"C#5","midi":73,"time":106.52604166666764,"velocity":0.7244094488188977,"duration":0.1158854166666714},{"name":"A4","midi":69,"time":106.52604166666764,"velocity":0.7244094488188977,"duration":0.1158854166666714},{"name":"F#2","midi":42,"time":106.64453125000098,"velocity":0.7244094488188977,"duration":0.7044270833333286},{"name":"D4","midi":62,"time":106.64453125000098,"velocity":0.7244094488188977,"duration":0.9401041666666572},{"name":"A4","midi":69,"time":106.64453125000098,"velocity":0.7244094488188977,"duration":0.9401041666666572},{"name":"C#5","midi":73,"time":106.64453125000098,"velocity":0.7244094488188977,"duration":0.9401041666666572},{"name":"D3","midi":50,"time":107.35156250000098,"velocity":0.7244094488188977,"duration":0.0755208333333286},{"name":"E3","midi":52,"time":107.43098958333431,"velocity":0.7244094488188977,"duration":0.0755208333333286},{"name":"F#3","midi":54,"time":107.50911458333431,"velocity":0.7244094488188977,"duration":0.0755208333333286},{"name":"G3","midi":55,"time":107.58854166666764,"velocity":0.7244094488188977,"duration":0.8255208333333712},{"name":"D4","midi":62,"time":107.58854166666764,"velocity":0.7244094488188977,"duration":0.936197916666714},{"name":"B4","midi":71,"time":107.58854166666764,"velocity":0.7244094488188977,"duration":0.8476562500000426},{"name":"C#5","midi":73,"time":107.89453125000097,"velocity":0.7244094488188977,"duration":0.0885416666666714},{"name":"D5","midi":74,"time":107.98567708333431,"velocity":0.7244094488188977,"duration":0.0885416666666714},{"name":"E5","midi":76,"time":108.07812500000098,"velocity":0.7244094488188977,"duration":0.0885416666666714},{"name":"D5","midi":74,"time":108.16927083333432,"velocity":0.7244094488188977,"duration":0.0885416666666714},{"name":"C#5","midi":73,"time":108.26041666666767,"velocity":0.7244094488188977,"duration":0.0885416666666714},{"name":"D5","midi":74,"time":108.35286458333434,"velocity":0.7244094488188977,"duration":0.0885416666666714},{"name":"F#3","midi":54,"time":108.41666666666768,"velocity":0.7244094488188977,"duration":0.1158854166666714},{"name":"B4","midi":71,"time":108.44401041666768,"velocity":0.7244094488188977,"duration":1.0039062500000142},{"name":"E3","midi":52,"time":108.53515625000102,"velocity":0.7244094488188977,"duration":0.8229166666666714},{"name":"C#4","midi":61,"time":108.53515625000102,"velocity":0.7244094488188977,"duration":1.8867187500000142},{"name":"G5","midi":79,"time":108.53515625000102,"velocity":0.7244094488188977,"duration":0.8229166666666714},{"name":"C#3","midi":49,"time":109.3619791666677,"velocity":0.7244094488188977,"duration":0.1158854166666714},{"name":"G5","midi":79,"time":109.3619791666677,"velocity":0.7244094488188977,"duration":0.1158854166666714},{"name":"F#3","midi":54,"time":109.48046875000104,"velocity":0.7244094488188977,"duration":0.94140625},{"name":"F#5","midi":78,"time":109.48046875000104,"velocity":0.7244094488188977,"duration":0.8229166666666714},{"name":"A#4","midi":70,"time":109.48046875000104,"velocity":0.7244094488188977,"duration":0.93359375},{"name":"E5","midi":76,"time":110.30729166666771,"velocity":0.7244094488188977,"duration":0.11588541666665719},{"name":"B2","midi":47,"time":110.42578125000104,"velocity":0.7244094488188977,"duration":0.1158854166666714},{"name":"B3","midi":59,"time":110.42578125000104,"velocity":0.7244094488188977,"duration":0.937500000000071},{"name":"B4","midi":71,"time":110.42578125000104,"velocity":0.7244094488188977,"duration":1.6510416666667567},{"name":"E5","midi":76,"time":110.42578125000104,"velocity":0.7244094488188977,"duration":0.4713541666666998},{"name":"C#3","midi":49,"time":110.54427083333438,"velocity":0.7244094488188977,"duration":0.1158854166666714},{"name":"D3","midi":50,"time":110.66276041666772,"velocity":0.7244094488188977,"duration":0.1158854166666714},{"name":"E3","midi":52,"time":110.78125000000107,"velocity":0.7244094488188977,"duration":0.1158854166666714},{"name":"D3","midi":50,"time":110.89973958333441,"velocity":0.7244094488188977,"duration":0.1158854166666714},{"name":"D5","midi":74,"time":110.89973958333441,"velocity":0.7244094488188977,"duration":0.4713541666666998},{"name":"C#3","midi":49,"time":111.01822916666775,"velocity":0.7244094488188977,"duration":0.1158854166666714},{"name":"D3","midi":50,"time":111.1367187500011,"velocity":0.7244094488188977,"duration":0.1158854166666714},{"name":"B2","midi":47,"time":111.25520833333444,"velocity":0.7244094488188977,"duration":0.1158854166666714},{"name":"G#3","midi":56,"time":111.37369791666778,"velocity":0.7244094488188977,"duration":0.7070312500000142},{"name":"B5","midi":83,"time":111.37369791666778,"velocity":0.7244094488188977,"duration":0.2330729166666714},{"name":"A5","midi":81,"time":111.61067708333445,"velocity":0.7244094488188977,"duration":0.2330729166666714},{"name":"B5","midi":83,"time":111.8463541666678,"velocity":0.7244094488188977,"duration":0.2330729166666714},{"name":"G#5","midi":80,"time":112.08203125000112,"velocity":0.7244094488188977,"duration":0.2330729166666714},{"name":"D5","midi":74,"time":112.31770833333447,"velocity":0.7244094488188977,"duration":0.8229166666666856},{"name":"B4","midi":71,"time":112.31770833333447,"velocity":0.7244094488188977,"duration":0.8229166666666856},{"name":"G#5","midi":80,"time":112.31770833333447,"velocity":0.7244094488188977,"duration":0.2330729166666714},{"name":"F#5","midi":78,"time":112.55338541666781,"velocity":0.7244094488188977,"duration":0.2330729166666714},{"name":"G#5","midi":80,"time":112.79036458333448,"velocity":0.7244094488188977,"duration":0.2330729166666714},{"name":"E5","midi":76,"time":113.02604166666782,"velocity":0.7244094488188977,"duration":0.234375},{"name":"G#4","midi":68,"time":113.14453125000115,"velocity":0.7244094488188977,"duration":0.1158854166666714},{"name":"B4","midi":71,"time":113.14453125000115,"velocity":0.7244094488188977,"duration":0.1158854166666714},{"name":"G#4","midi":68,"time":113.2630208333345,"velocity":0.7244094488188977,"duration":0.8229166666666856},{"name":"B4","midi":71,"time":113.2630208333345,"velocity":0.7244094488188977,"duration":0.8229166666666856},{"name":"E5","midi":76,"time":113.2630208333345,"velocity":0.7244094488188977,"duration":0.2330729166666714},{"name":"D5","midi":74,"time":113.49869791666784,"velocity":0.7244094488188977,"duration":0.2330729166666714},{"name":"E5","midi":76,"time":113.73437500000118,"velocity":0.7244094488188977,"duration":0.2330729166666714},{"name":"C#5","midi":73,"time":113.97135416666785,"velocity":0.7244094488188977,"duration":0.234375},{"name":"A4","midi":69,"time":114.08984375000118,"velocity":0.7244094488188977,"duration":0.1158854166666714},{"name":"E4","midi":64,"time":114.08984375000118,"velocity":0.7244094488188977,"duration":0.1158854166666714},{"name":"A2","midi":45,"time":114.20833333333452,"velocity":0.7244094488188977,"duration":0.1158854166666714},{"name":"D5","midi":74,"time":114.20833333333452,"velocity":0.7244094488188977,"duration":0.4713541666666998},{"name":"A4","midi":69,"time":114.20833333333452,"velocity":0.7244094488188977,"duration":1.6510416666667567},{"name":"E4","midi":64,"time":114.20833333333452,"velocity":0.7244094488188977,"duration":0.937500000000071},{"name":"B2","midi":47,"time":114.32682291666787,"velocity":0.7244094488188977,"duration":0.1158854166666714},{"name":"C#3","midi":49,"time":114.44531250000121,"velocity":0.7244094488188977,"duration":0.1158854166666714},{"name":"D3","midi":50,"time":114.56380208333455,"velocity":0.7244094488188977,"duration":0.1158854166666714},{"name":"C#3","midi":49,"time":114.6822916666679,"velocity":0.7244094488188977,"duration":0.1158854166666714},{"name":"C#5","midi":73,"time":114.6822916666679,"velocity":0.7244094488188977,"duration":0.4713541666666998},{"name":"B2","midi":47,"time":114.80078125000124,"velocity":0.7244094488188977,"duration":0.1158854166666714},{"name":"C#3","midi":49,"time":114.91927083333458,"velocity":0.7244094488188977,"duration":0.1158854166666714},{"name":"A2","midi":45,"time":115.03776041666792,"velocity":0.7244094488188977,"duration":0.1158854166666714},{"name":"F#3","midi":54,"time":115.15625000000126,"velocity":0.7244094488188977,"duration":0.825520833333357},{"name":"A5","midi":81,"time":115.15625000000126,"velocity":0.7244094488188977,"duration":0.2330729166666714},{"name":"G5","midi":79,"time":115.39322916666794,"velocity":0.7244094488188977,"duration":0.2330729166666714},{"name":"A5","midi":81,"time":115.62890625000128,"velocity":0.7244094488188977,"duration":0.2330729166666714},{"name":"F#5","midi":78,"time":115.86458333333462,"velocity":0.7244094488188977,"duration":0.234375},{"name":"A4","midi":69,"time":116.1015625000013,"velocity":0.7244094488188977,"duration":0.8229166666666856},{"name":"C5","midi":72,"time":116.1015625000013,"velocity":0.7244094488188977,"duration":0.8229166666666856},{"name":"F#5","midi":78,"time":116.1015625000013,"velocity":0.7244094488188977,"duration":0.2330729166666714},{"name":"E5","midi":76,"time":116.33723958333464,"velocity":0.7244094488188977,"duration":0.2330729166666714},{"name":"F#5","midi":78,"time":116.57421875000131,"velocity":0.7244094488188977,"duration":0.2330729166666714},{"name":"D5","midi":74,"time":116.80989583333465,"velocity":0.7244094488188977,"duration":0.234375},{"name":"A4","midi":69,"time":116.92838541666798,"velocity":0.7244094488188977,"duration":0.1158854166666714},{"name":"F#4","midi":66,"time":116.92838541666798,"velocity":0.7244094488188977,"duration":0.1158854166666714},{"name":"F#4","midi":66,"time":117.04687500000132,"velocity":0.7244094488188977,"duration":0.8229166666666998},{"name":"A4","midi":69,"time":117.04687500000132,"velocity":0.7244094488188977,"duration":0.8229166666666998},{"name":"D5","midi":74,"time":117.04687500000132,"velocity":0.7244094488188977,"duration":0.2330729166666714},{"name":"C5","midi":72,"time":117.28255208333466,"velocity":0.7244094488188977,"duration":0.2330729166666714},{"name":"D5","midi":74,"time":117.51822916666801,"velocity":0.7244094488188977,"duration":0.2330729166666714},{"name":"B4","midi":71,"time":117.75390625000135,"velocity":0.7244094488188977,"duration":0.234375},{"name":"D4","midi":62,"time":117.87369791666802,"velocity":0.7244094488188977,"duration":0.11588541666665719},{"name":"G4","midi":67,"time":117.87369791666802,"velocity":0.7244094488188977,"duration":0.11588541666665719},{"name":"G2","midi":43,"time":117.99218750000135,"velocity":0.7244094488188977,"duration":0.1158854166666714},{"name":"C5","midi":72,"time":117.99218750000135,"velocity":0.7244094488188977,"duration":0.4713541666666998},{"name":"D4","midi":62,"time":117.99218750000135,"velocity":0.7244094488188977,"duration":0.937500000000071},{"name":"G4","midi":67,"time":117.99218750000135,"velocity":0.7244094488188977,"duration":0.937500000000071},{"name":"A2","midi":45,"time":118.11067708333469,"velocity":0.7244094488188977,"duration":0.1158854166666714},{"name":"B2","midi":47,"time":118.22916666666804,"velocity":0.7244094488188977,"duration":0.1158854166666714},{"name":"C3","midi":48,"time":118.34765625000138,"velocity":0.7244094488188977,"duration":0.1158854166666714},{"name":"B2","midi":47,"time":118.46614583333472,"velocity":0.7244094488188977,"duration":0.1158854166666714},{"name":"B4","midi":71,"time":118.46614583333472,"velocity":0.7244094488188977,"duration":0.4713541666666998},{"name":"A2","midi":45,"time":118.58463541666806,"velocity":0.7244094488188977,"duration":0.1158854166666714},{"name":"B2","midi":47,"time":118.7031250000014,"velocity":0.7244094488188977,"duration":0.1158854166666714},{"name":"G2","midi":43,"time":118.82161458333475,"velocity":0.7244094488188977,"duration":0.1158854166666714},{"name":"E3","midi":52,"time":118.94010416666809,"velocity":0.7244094488188977,"duration":0.8255208333333854},{"name":"G4","midi":67,"time":118.94010416666809,"velocity":0.7244094488188977,"duration":0.3033854166666714},{"name":"A4","midi":69,"time":119.24739583333476,"velocity":0.7244094488188977,"duration":0.0885416666666714},{"name":"B4","midi":71,"time":119.3385416666681,"velocity":0.7244094488188977,"duration":0.0885416666666714},{"name":"C5","midi":72,"time":119.43098958333478,"velocity":0.7244094488188977,"duration":0.0885416666666714},{"name":"B4","midi":71,"time":119.52213541666812,"velocity":0.7244094488188977,"duration":0.0885416666666714},{"name":"A4","midi":69,"time":119.61328125000146,"velocity":0.7244094488188977,"duration":0.0885416666666714},{"name":"B4","midi":71,"time":119.7044270833348,"velocity":0.7244094488188977,"duration":0.0885416666666714},{"name":"D3","midi":50,"time":119.76953125000148,"velocity":0.7244094488188977,"duration":0.1158854166666714},{"name":"G4","midi":67,"time":119.79687500000148,"velocity":0.7244094488188977,"duration":0.0885416666666714},{"name":"C3","midi":48,"time":119.88802083333482,"velocity":0.7244094488188977,"duration":0.94140625},{"name":"E5","midi":76,"time":119.88802083333482,"velocity":0.7244094488188977,"duration":0.8229166666666714},{"name":"E5","midi":76,"time":120.71484375000149,"velocity":0.7244094488188977,"duration":0.11588541666665719},{"name":"D3","midi":50,"time":120.83333333333482,"velocity":0.7244094488188977,"duration":0.9414062500000142},{"name":"D5","midi":74,"time":120.83333333333482,"velocity":0.7244094488188977,"duration":0.8229166666666714},{"name":"C5","midi":72,"time":121.65885416666816,"velocity":0.7244094488188977,"duration":0.1158854166666714},{"name":"G3","midi":55,"time":121.77864583333483,"velocity":0.7244094488188977,"duration":0.82421875},{"name":"B4","midi":71,"time":121.77864583333483,"velocity":0.7244094488188977,"duration":0.5872395833333286},{"name":"D5","midi":74,"time":122.36848958333483,"velocity":0.7244094488188977,"duration":0.0859375},{"name":"C#5","midi":73,"time":122.4570312500015,"velocity":0.7244094488188977,"duration":0.0859375},{"name":"B4","midi":71,"time":122.5468750000015,"velocity":0.7244094488188977,"duration":0.0859375},{"name":"A3","midi":57,"time":122.6054687500015,"velocity":0.7244094488188977,"duration":0.1158854166666714},{"name":"C#5","midi":73,"time":122.63541666666818,"velocity":0.7244094488188977,"duration":0.0859375},{"name":"B3","midi":59,"time":122.72395833333485,"velocity":0.7244094488188977,"duration":0.8125000000000426},{"name":"D4","midi":62,"time":122.72395833333485,"velocity":0.7244094488188977,"duration":0.3033854166666714},{"name":"D5","midi":74,"time":122.72395833333485,"velocity":0.7244094488188977,"duration":0.9427083333333712},{"name":"E4","midi":64,"time":123.03125000000152,"velocity":0.7244094488188977,"duration":0.0885416666666714},{"name":"F#4","midi":66,"time":123.12239583333486,"velocity":0.7244094488188977,"duration":0.0885416666666714},{"name":"G4","midi":67,"time":123.21484375000153,"velocity":0.7244094488188977,"duration":0.0885416666666714},{"name":"F#4","midi":66,"time":123.30598958333488,"velocity":0.7244094488188977,"duration":0.0885416666666714},{"name":"E4","midi":64,"time":123.39713541666822,"velocity":0.7244094488188977,"duration":0.0885416666666714},{"name":"F#4","midi":66,"time":123.48828125000156,"velocity":0.7244094488188977,"duration":0.0872395833333286},{"name":"A3","midi":57,"time":123.55208333333489,"velocity":0.7244094488188977,"duration":0.0755208333333286},{"name":"D4","midi":62,"time":123.57942708333489,"velocity":0.7244094488188977,"duration":0.08854166666665719},{"name":"G3","midi":55,"time":123.67057291666822,"velocity":0.7244094488188977,"duration":0.8229166666666714},{"name":"B4","midi":71,"time":123.67057291666822,"velocity":0.7244094488188977,"duration":0.8229166666666714},{"name":"E3","midi":52,"time":124.49739583333489,"velocity":0.7244094488188977,"duration":0.1158854166666714},{"name":"B4","midi":71,"time":124.49739583333489,"velocity":0.7244094488188977,"duration":0.1158854166666714},{"name":"A3","midi":57,"time":124.61588541666823,"velocity":0.7244094488188977,"duration":0.8229166666666714},{"name":"A4","midi":69,"time":124.61588541666823,"velocity":0.7244094488188977,"duration":0.8229166666666714},{"name":"C#5","midi":73,"time":124.61588541666823,"velocity":0.7244094488188977,"duration":0.8229166666666714},{"name":"A2","midi":45,"time":125.44140625000158,"velocity":0.7244094488188977,"duration":0.1158854166666714},{"name":"G4","midi":67,"time":125.44140625000158,"velocity":0.7244094488188977,"duration":0.1158854166666714},{"name":"B2","midi":47,"time":125.56119791666825,"velocity":0.7244094488188977,"duration":0.3033854166666714},{"name":"D5","midi":74,"time":125.56119791666825,"velocity":0.7244094488188977,"duration":0.7617187500000426},{"name":"F#4","midi":66,"time":125.56119791666825,"velocity":0.7244094488188977,"duration":0.7617187500000426},{"name":"C#3","midi":49,"time":125.86718750000159,"velocity":0.7244094488188977,"duration":0.0885416666666714},{"name":"D3","midi":50,"time":125.95833333333493,"velocity":0.7244094488188977,"duration":0.0885416666666714},{"name":"E3","midi":52,"time":126.0507812500016,"velocity":0.7244094488188977,"duration":0.0885416666666714},{"name":"D3","midi":50,"time":126.14192708333495,"velocity":0.7244094488188977,"duration":0.0885416666666714},{"name":"C#3","midi":49,"time":126.23307291666829,"velocity":0.7244094488188977,"duration":0.0885416666666714},{"name":"D3","midi":50,"time":126.32552083333496,"velocity":0.7244094488188977,"duration":0.0885416666666714},{"name":"B4","midi":71,"time":126.32552083333496,"velocity":0.7244094488188977,"duration":0.1796875000000142},{"name":"B2","midi":47,"time":126.4166666666683,"velocity":0.7244094488188977,"duration":0.0885416666666714},{"name":"B3","midi":59,"time":126.50781250000165,"velocity":0.7244094488188977,"duration":0.8255208333333854},{"name":"D5","midi":74,"time":126.50781250000165,"velocity":0.7244094488188977,"duration":0.3033854166666714},{"name":"E5","midi":76,"time":126.81510416666832,"velocity":0.7244094488188977,"duration":0.0885416666666714},{"name":"F#5","midi":78,"time":126.90625000000166,"velocity":0.7244094488188977,"duration":0.0885416666666714},{"name":"G5","midi":79,"time":126.997395833335,"velocity":0.7244094488188977,"duration":0.0885416666666714},{"name":"F#5","midi":78,"time":127.08984375000168,"velocity":0.7244094488188977,"duration":0.0885416666666714},{"name":"E5","midi":76,"time":127.18098958333502,"velocity":0.7244094488188977,"duration":0.0885416666666714},{"name":"F#5","midi":78,"time":127.27213541666836,"velocity":0.7244094488188977,"duration":0.0885416666666714},{"name":"A3","midi":57,"time":127.33723958333503,"velocity":0.7244094488188977,"duration":0.1158854166666714},{"name":"D5","midi":74,"time":127.36458333333503,"velocity":0.7244094488188977,"duration":0.0885416666666714},{"name":"G3","midi":55,"time":127.45572916666838,"velocity":0.7244094488188977,"duration":0.8229166666666714},{"name":"B5","midi":83,"time":127.45572916666838,"velocity":0.7244094488188977,"duration":0.8229166666666714},{"name":"E3","midi":52,"time":128.28255208333505,"velocity":0.7244094488188977,"duration":0.11588541666665719},{"name":"B5","midi":83,"time":128.28255208333505,"velocity":0.7244094488188977,"duration":0.11588541666665719},{"name":"A3","midi":57,"time":128.40104166666836,"velocity":0.7244094488188977,"duration":0.8229166666666572},{"name":"C5","midi":72,"time":128.40104166666836,"velocity":0.7244094488188977,"duration":0.8229166666666572},{"name":"A5","midi":81,"time":128.40104166666836,"velocity":0.7244094488188977,"duration":0.8229166666666572},{"name":"A2","midi":45,"time":129.22656250000168,"velocity":0.7244094488188977,"duration":0.11588541666665719},{"name":"G5","midi":79,"time":129.22656250000168,"velocity":0.7244094488188977,"duration":0.11588541666665719},{"name":"D3","midi":50,"time":129.345052083335,"velocity":0.7244094488188977,"duration":0.9401041666666856},{"name":"F#5","midi":78,"time":129.345052083335,"velocity":0.7244094488188977,"duration":0.7044270833333428},{"name":"D5","midi":74,"time":130.05338541666833,"velocity":0.7244094488188977,"duration":0.07552083333334281},{"name":"E5","midi":76,"time":130.13151041666833,"velocity":0.7244094488188977,"duration":0.07552083333334281},{"name":"F#5","midi":78,"time":130.21093750000168,"velocity":0.7244094488188977,"duration":0.07552083333334281},{"name":"E3","midi":52,"time":130.28906250000168,"velocity":0.7244094488188977,"duration":0.8476562499998863},{"name":"G3","midi":55,"time":130.28906250000168,"velocity":0.7244094488188977,"duration":0.3033854166666572},{"name":"B4","midi":71,"time":130.28906250000168,"velocity":0.7244094488188977,"duration":0.8255208333332291},{"name":"G5","midi":79,"time":130.28906250000168,"velocity":0.7244094488188977,"duration":0.8255208333332291},{"name":"A3","midi":57,"time":130.59635416666833,"velocity":0.7244094488188977,"duration":0.08854166666665719},{"name":"B3","midi":59,"time":130.68750000000165,"velocity":0.7244094488188977,"duration":0.08854166666665719},{"name":"C4","midi":60,"time":130.77864583333496,"velocity":0.7244094488188977,"duration":0.08854166666665719},{"name":"B3","midi":59,"time":130.87109375000162,"velocity":0.7244094488188977,"duration":0.08854166666665719},{"name":"A3","midi":57,"time":130.96223958333493,"velocity":0.7244094488188977,"duration":0.08854166666665719},{"name":"B3","midi":59,"time":131.05338541666825,"velocity":0.7244094488188977,"duration":0.08854166666665719},{"name":"G5","midi":79,"time":131.1184895833349,"velocity":0.7244094488188977,"duration":0.11588541666665719},{"name":"G3","midi":55,"time":131.1458333333349,"velocity":0.7244094488188977,"duration":0.08854166666665719},{"name":"C4","midi":60,"time":131.23697916666822,"velocity":0.7244094488188977,"duration":0.8229166666666572},{"name":"E4","midi":64,"time":131.23697916666822,"velocity":0.7244094488188977,"duration":0.8229166666666572},{"name":"A4","midi":69,"time":131.23697916666822,"velocity":0.7244094488188977,"duration":1.8867187499999432},{"name":"G5","midi":79,"time":131.23697916666822,"velocity":0.7244094488188977,"duration":0.8229166666666572},{"name":"A3","midi":57,"time":132.06380208333488,"velocity":0.7244094488188977,"duration":0.11588541666665719},{"name":"E4","midi":64,"time":132.06380208333488,"velocity":0.7244094488188977,"duration":0.11588541666665719},{"name":"A5","midi":81,"time":132.06380208333488,"velocity":0.7244094488188977,"duration":0.11588541666665719},{"name":"D4","midi":62,"time":132.1822916666682,"velocity":0.7244094488188977,"duration":0.8229166666666572},{"name":"F#5","midi":78,"time":132.1822916666682,"velocity":0.7244094488188977,"duration":0.8229166666666572},{"name":"D3","midi":50,"time":133.0078125000015,"velocity":0.7244094488188977,"duration":0.11588541666665719},{"name":"C4","midi":60,"time":133.0078125000015,"velocity":0.7244094488188977,"duration":0.11588541666665719},{"name":"F#5","midi":78,"time":133.0078125000015,"velocity":0.7244094488188977,"duration":0.11588541666665719},{"name":"G3","midi":55,"time":133.12630208333482,"velocity":0.7244094488188977,"duration":0.9401041666666856},{"name":"B3","midi":59,"time":133.12630208333482,"velocity":0.7244094488188977,"duration":0.9401041666666856},{"name":"F#5","midi":78,"time":133.12630208333482,"velocity":0.7244094488188977,"duration":0.7825520833333428},{"name":"G4","midi":67,"time":133.12630208333482,"velocity":0.7244094488188977,"duration":0.9322916666666856},{"name":"E5","midi":76,"time":133.91276041666816,"velocity":0.7244094488188977,"duration":0.07552083333334281},{"name":"D#5","midi":75,"time":133.9921875000015,"velocity":0.7244094488188977,"duration":0.07552083333334281},{"name":"E2","midi":40,"time":134.0703125000015,"velocity":0.7244094488188977,"duration":0.3033854166666572},{"name":"G4","midi":67,"time":134.0703125000015,"velocity":0.7244094488188977,"duration":0.9440104166665719},{"name":"E5","midi":76,"time":134.0703125000015,"velocity":0.7244094488188977,"duration":0.9440104166665719},{"name":"B4","midi":71,"time":134.0703125000015,"velocity":0.7244094488188977,"duration":0.9440104166665719},{"name":"F#2","midi":42,"time":134.37760416666816,"velocity":0.7244094488188977,"duration":0.08854166666665719},{"name":"G2","midi":43,"time":134.46875000000148,"velocity":0.7244094488188977,"duration":0.08854166666665719},{"name":"A2","midi":45,"time":134.5598958333348,"velocity":0.7244094488188977,"duration":0.08854166666665719},{"name":"G2","midi":43,"time":134.65234375000145,"velocity":0.7244094488188977,"duration":0.08854166666665719},{"name":"F#2","midi":42,"time":134.74348958333476,"velocity":0.7244094488188977,"duration":0.08854166666665719},{"name":"G2","midi":43,"time":134.83463541666808,"velocity":0.7244094488188977,"duration":0.08854166666665719},{"name":"E2","midi":40,"time":134.92708333333474,"velocity":0.7244094488188977,"duration":0.08854166666668561},{"name":"C3","midi":48,"time":135.01822916666808,"velocity":0.7244094488188977,"duration":0.8229166666666572},{"name":"F#4","midi":66,"time":135.01822916666808,"velocity":0.7244094488188977,"duration":2.829427083333286},{"name":"A4","midi":69,"time":135.10156250000142,"velocity":0.7244094488188977,"duration":1.8242187499999147},{"name":"E5","midi":76,"time":135.18619791666808,"velocity":0.7244094488188977,"duration":0.6653645833333144},{"name":"D#5","midi":75,"time":135.86588541666805,"velocity":0.7244094488188977,"duration":0.11588541666665719},{"name":"C3","midi":48,"time":135.86588541666805,"velocity":0.7244094488188977,"duration":0.11588541666665719},{"name":"E5","midi":76,"time":135.98437500000136,"velocity":0.7244094488188977,"duration":0.8229166666666572},{"name":"B2","midi":47,"time":135.98437500000136,"velocity":0.7244094488188977,"duration":0.8229166666666572},{"name":"F#5","midi":78,"time":136.80989583333468,"velocity":0.7244094488188977,"duration":0.11588541666665719},{"name":"A2","midi":45,"time":136.80989583333468,"velocity":0.7244094488188977,"duration":0.11588541666665719},{"name":"B4","midi":71,"time":136.928385416668,"velocity":0.7244094488188977,"duration":0.7825520833333428},{"name":"G2","midi":43,"time":136.928385416668,"velocity":0.7244094488188977,"duration":0.8229166666666856},{"name":"C5","midi":72,"time":137.71484375000134,"velocity":0.7244094488188977,"duration":0.07682291666668561},{"name":"F#2","midi":42,"time":137.75520833333468,"velocity":0.7244094488188977,"duration":0.11588541666668561},{"name":"A4","midi":69,"time":137.79557291666802,"velocity":0.7244094488188977,"duration":0.1458333333333428},{"name":"E4","midi":64,"time":137.87369791666802,"velocity":0.7244094488188977,"duration":0.8072916666666856},{"name":"G2","midi":43,"time":137.87369791666802,"velocity":0.7244094488188977,"duration":0.8216145833333712},{"name":"G4","midi":67,"time":138.03125000000136,"velocity":0.7244094488188977,"duration":0.6510416666666856},{"name":"B4","midi":71,"time":138.1888020833347,"velocity":0.7244094488188977,"duration":0.5078125000000284},{"name":"E4","midi":64,"time":138.6992187500014,"velocity":0.7244094488188977,"duration":0.11588541666665719},{"name":"C5","midi":72,"time":138.6992187500014,"velocity":0.7244094488188977,"duration":0.11588541666665719},{"name":"A2","midi":45,"time":138.6992187500014,"velocity":0.7244094488188977,"duration":0.11588541666665719},{"name":"E4","midi":64,"time":138.8177083333347,"velocity":0.7244094488188977,"duration":0.94140625},{"name":"G4","midi":67,"time":138.8177083333347,"velocity":0.7244094488188977,"duration":0.94140625},{"name":"B2","midi":47,"time":138.8177083333347,"velocity":0.7244094488188977,"duration":1.8854166666666856},{"name":"A3","midi":57,"time":139.64453125000136,"velocity":0.7244094488188977,"duration":0.11588541666668561},{"name":"G4","midi":67,"time":139.7630208333347,"velocity":0.7244094488188977,"duration":0.07552083333334281},{"name":"D#4","midi":63,"time":139.7630208333347,"velocity":0.7244094488188977,"duration":0.9322916666666856},{"name":"B3","midi":59,"time":139.7630208333347,"velocity":0.7244094488188977,"duration":0.7825520833333428},{"name":"F#4","midi":66,"time":139.8411458333347,"velocity":0.7244094488188977,"duration":0.07552083333334281},{"name":"G4","midi":67,"time":139.9192708333347,"velocity":0.7244094488188977,"duration":0.07552083333334281},{"name":"F#4","midi":66,"time":139.99869791666805,"velocity":0.7244094488188977,"duration":0.7044270833333428},{"name":"A3","midi":57,"time":140.54947916666805,"velocity":0.7244094488188977,"duration":0.1536458333333428},{"name":"E4","midi":64,"time":140.70572916666805,"velocity":0.7244094488188977,"duration":0.11588541666665719},{"name":"E3","midi":52,"time":140.70572916666805,"velocity":0.7244094488188977,"duration":0.9453124999998863},{"name":"G3","midi":55,"time":140.70572916666805,"velocity":0.7244094488188977,"duration":0.9453124999998863},{"name":"F#4","midi":66,"time":140.82421875000136,"velocity":0.7244094488188977,"duration":0.11588541666665719},{"name":"G4","midi":67,"time":140.94401041666802,"velocity":0.7244094488188977,"duration":0.11588541666665719},{"name":"A4","midi":69,"time":141.06250000000134,"velocity":0.7244094488188977,"duration":0.11588541666665719},{"name":"G4","midi":67,"time":141.18098958333465,"velocity":0.7244094488188977,"duration":0.11588541666665719},{"name":"F#4","midi":66,"time":141.29947916666796,"velocity":0.7244094488188977,"duration":0.11588541666665719},{"name":"G4","midi":67,"time":141.41796875000128,"velocity":0.7244094488188977,"duration":0.11588541666665719},{"name":"E4","midi":64,"time":141.5364583333346,"velocity":0.7244094488188977,"duration":0.11588541666668561},{"name":"G5","midi":79,"time":141.65494791666794,"velocity":0.7244094488188977,"duration":0.5898437499999716},{"name":"B3","midi":59,"time":141.65494791666794,"velocity":0.7244094488188977,"duration":0.2330729166666572},{"name":"A3","midi":57,"time":141.89062500000125,"velocity":0.7244094488188977,"duration":0.2330729166666572},{"name":"B3","midi":59,"time":142.12630208333456,"velocity":0.7244094488188977,"duration":0.234375},{"name":"G3","midi":55,"time":142.36458333333456,"velocity":0.7244094488188977,"duration":0.2330729166666572},{"name":"B3","midi":59,"time":142.60026041666788,"velocity":0.7244094488188977,"duration":0.8229166666666003},{"name":"E4","midi":64,"time":142.60026041666788,"velocity":0.7244094488188977,"duration":0.8229166666666003},{"name":"G3","midi":55,"time":142.60026041666788,"velocity":0.7244094488188977,"duration":0.2330729166666572},{"name":"F#3","midi":54,"time":142.8359375000012,"velocity":0.7244094488188977,"duration":0.2330729166666572},{"name":"G3","midi":55,"time":143.0716145833345,"velocity":0.7244094488188977,"duration":0.2330729166666572},{"name":"E3","midi":52,"time":143.30729166666782,"velocity":0.7244094488188977,"duration":0.23437499999997158},{"name":"C#4","midi":61,"time":143.42578125000114,"velocity":0.7244094488188977,"duration":0.11588541666665719},{"name":"G3","midi":55,"time":143.42578125000114,"velocity":0.7244094488188977,"duration":0.11588541666665719},{"name":"C#4","midi":61,"time":143.5455729166678,"velocity":0.7244094488188977,"duration":0.8229166666666003},{"name":"G3","midi":55,"time":143.5455729166678,"velocity":0.7244094488188977,"duration":0.8229166666666003},{"name":"E3","midi":52,"time":143.5455729166678,"velocity":0.7244094488188977,"duration":0.2330729166666572},{"name":"D3","midi":50,"time":143.7812500000011,"velocity":0.7244094488188977,"duration":0.2330729166666572},{"name":"E3","midi":52,"time":144.01692708333442,"velocity":0.7244094488188977,"duration":0.2330729166666572},{"name":"C#3","midi":49,"time":144.25260416666774,"velocity":0.7244094488188977,"duration":0.23437499999997158},{"name":"A3","midi":57,"time":144.37109375000105,"velocity":0.7244094488188977,"duration":0.11588541666665719},{"name":"E3","midi":52,"time":144.37109375000105,"velocity":0.7244094488188977,"duration":0.11588541666665719},{"name":"A4","midi":69,"time":144.48958333333437,"velocity":0.7244094488188977,"duration":0.11588541666665719},{"name":"E3","midi":52,"time":144.48958333333437,"velocity":0.7244094488188977,"duration":0.9453124999998863},{"name":"A3","midi":57,"time":144.48958333333437,"velocity":0.7244094488188977,"duration":0.9453124999998863},{"name":"C#3","midi":49,"time":144.48958333333437,"velocity":0.7244094488188977,"duration":0.9453124999998863},{"name":"B4","midi":71,"time":144.60807291666768,"velocity":0.7244094488188977,"duration":0.11588541666665719},{"name":"C#5","midi":73,"time":144.726562500001,"velocity":0.7244094488188977,"duration":0.11588541666665719},{"name":"D5","midi":74,"time":144.84635416666765,"velocity":0.7244094488188977,"duration":0.11588541666665719},{"name":"C#5","midi":73,"time":144.96484375000097,"velocity":0.7244094488188977,"duration":0.11588541666665719},{"name":"B4","midi":71,"time":145.08333333333428,"velocity":0.7244094488188977,"duration":0.11588541666665719},{"name":"C#5","midi":73,"time":145.2018229166676,"velocity":0.7244094488188977,"duration":0.11588541666665719},{"name":"A4","midi":69,"time":145.3203125000009,"velocity":0.7244094488188977,"duration":0.11588541666668561},{"name":"F#5","midi":78,"time":145.43880208333425,"velocity":0.7244094488188977,"duration":0.7070312499999432},{"name":"A3","midi":57,"time":145.43880208333425,"velocity":0.7244094488188977,"duration":0.2330729166666572},{"name":"G3","midi":55,"time":145.67447916666757,"velocity":0.7244094488188977,"duration":0.2330729166666572},{"name":"A3","midi":57,"time":145.91015625000088,"velocity":0.7244094488188977,"duration":0.2330729166666572},{"name":"F#3","midi":54,"time":146.14713541666754,"velocity":0.7244094488188977,"duration":0.2330729166666572},{"name":"D4","midi":62,"time":146.38281250000085,"velocity":0.7244094488188977,"duration":0.8229166666666003},{"name":"A3","midi":57,"time":146.38281250000085,"velocity":0.7244094488188977,"duration":0.8229166666666003},{"name":"F#3","midi":54,"time":146.38281250000085,"velocity":0.7244094488188977,"duration":0.2330729166666572},{"name":"E3","midi":52,"time":146.61848958333417,"velocity":0.7244094488188977,"duration":0.2330729166666572},{"name":"F#3","midi":54,"time":146.85416666666748,"velocity":0.7244094488188977,"duration":0.2330729166666572},{"name":"D3","midi":50,"time":147.0898437500008,"velocity":0.7244094488188977,"duration":0.23437499999997158},{"name":"B3","midi":59,"time":147.2083333333341,"velocity":0.7244094488188977,"duration":0.11588541666665719},{"name":"F#3","midi":54,"time":147.2083333333341,"velocity":0.7244094488188977,"duration":0.11588541666665719},{"name":"B3","midi":59,"time":147.32812500000077,"velocity":0.7244094488188977,"duration":0.8229166666666003},{"name":"F#3","midi":54,"time":147.32812500000077,"velocity":0.7244094488188977,"duration":0.8229166666666003},{"name":"D3","midi":50,"time":147.32812500000077,"velocity":0.7244094488188977,"duration":0.2330729166666572},{"name":"C#3","midi":49,"time":147.56380208333408,"velocity":0.7244094488188977,"duration":0.2330729166666572},{"name":"D3","midi":50,"time":147.7994791666674,"velocity":0.7244094488188977,"duration":0.2330729166666572},{"name":"B2","midi":47,"time":148.0351562500007,"velocity":0.7244094488188977,"duration":0.23437499999997158},{"name":"G3","midi":55,"time":148.15364583333402,"velocity":0.7244094488188977,"duration":0.11588541666665719},{"name":"D3","midi":50,"time":148.15364583333402,"velocity":0.7244094488188977,"duration":0.11588541666665719},{"name":"G3","midi":55,"time":148.27213541666734,"velocity":0.7244094488188977,"duration":0.9374999999998863},{"name":"G4","midi":67,"time":148.27213541666734,"velocity":0.7244094488188977,"duration":0.11588541666665719},{"name":"D3","midi":50,"time":148.27213541666734,"velocity":0.7244094488188977,"duration":0.9374999999998863},{"name":"B2","midi":47,"time":148.27213541666734,"velocity":0.7244094488188977,"duration":0.9453124999998863},{"name":"A4","midi":69,"time":148.39062500000065,"velocity":0.7244094488188977,"duration":0.11588541666665719},{"name":"B4","midi":71,"time":148.50911458333397,"velocity":0.7244094488188977,"duration":0.11588541666665719},{"name":"C5","midi":72,"time":148.62890625000063,"velocity":0.7244094488188977,"duration":0.11588541666665719},{"name":"B4","midi":71,"time":148.74739583333394,"velocity":0.7244094488188977,"duration":0.11588541666665719},{"name":"A4","midi":69,"time":148.86588541666725,"velocity":0.7244094488188977,"duration":0.11588541666665719},{"name":"B4","midi":71,"time":148.98437500000057,"velocity":0.7244094488188977,"duration":0.11588541666665719},{"name":"G4","midi":67,"time":149.10286458333388,"velocity":0.7244094488188977,"duration":0.11588541666668561},{"name":"E5","midi":76,"time":149.22135416666723,"velocity":0.7244094488188977,"duration":0.7070312499999432},{"name":"G3","midi":55,"time":149.22135416666723,"velocity":0.7244094488188977,"duration":0.2330729166666572},{"name":"F#3","midi":54,"time":149.45703125000054,"velocity":0.7244094488188977,"duration":0.2330729166666572},{"name":"G3","midi":55,"time":149.69270833333385,"velocity":0.7244094488188977,"duration":0.2330729166666572},{"name":"E3","midi":52,"time":149.9296875000005,"velocity":0.7244094488188977,"duration":0.2330729166666572},{"name":"G3","midi":55,"time":150.16536458333383,"velocity":0.7244094488188977,"duration":0.8229166666666003},{"name":"C#4","midi":61,"time":150.16536458333383,"velocity":0.7244094488188977,"duration":0.8229166666666003},{"name":"E3","midi":52,"time":150.16536458333383,"velocity":0.7244094488188977,"duration":0.2330729166666572},{"name":"D3","midi":50,"time":150.40104166666714,"velocity":0.7244094488188977,"duration":0.2330729166666572},{"name":"E3","midi":52,"time":150.63671875000045,"velocity":0.7244094488188977,"duration":0.2330729166666572},{"name":"C#3","midi":49,"time":150.87239583333377,"velocity":0.7244094488188977,"duration":0.23437499999997158},{"name":"A3","midi":57,"time":150.99088541666708,"velocity":0.7244094488188977,"duration":0.11588541666665719},{"name":"E3","midi":52,"time":150.99088541666708,"velocity":0.7244094488188977,"duration":0.11588541666665719},{"name":"A3","midi":57,"time":151.1093750000004,"velocity":0.7244094488188977,"duration":0.8229166666666288},{"name":"E3","midi":52,"time":151.1093750000004,"velocity":0.7244094488188977,"duration":0.8229166666666288},{"name":"C#3","midi":49,"time":151.1093750000004,"velocity":0.7244094488188977,"duration":0.2330729166666572},{"name":"B2","midi":47,"time":151.34635416666706,"velocity":0.7244094488188977,"duration":0.2330729166666572},{"name":"C#3","midi":49,"time":151.58203125000037,"velocity":0.7244094488188977,"duration":0.2330729166666572},{"name":"A2","midi":45,"time":151.81770833333368,"velocity":0.7244094488188977,"duration":0.234375},{"name":"F#3","midi":54,"time":151.93619791666703,"velocity":0.7244094488188977,"duration":0.11588541666665719},{"name":"C#3","midi":49,"time":151.93619791666703,"velocity":0.7244094488188977,"duration":0.11588541666665719},{"name":"F#4","midi":66,"time":152.05468750000034,"velocity":0.7244094488188977,"duration":0.2864583333333428},{"name":"C#3","midi":49,"time":152.05468750000034,"velocity":0.7244094488188977,"duration":0.7096354166666856},{"name":"F#3","midi":54,"time":152.05468750000034,"velocity":0.7244094488188977,"duration":0.7096354166666856},{"name":"A2","midi":45,"time":152.05468750000034,"velocity":0.7244094488188977,"duration":0.7096354166666856},{"name":"G4","midi":67,"time":152.34505208333368,"velocity":0.7244094488188977,"duration":0.09114583333334281},{"name":"A4","midi":69,"time":152.43880208333368,"velocity":0.7244094488188977,"duration":0.09114583333334281},{"name":"B4","midi":71,"time":152.53385416666703,"velocity":0.7244094488188977,"duration":0.09114583333334281},{"name":"A4","midi":69,"time":152.62760416666703,"velocity":0.7244094488188977,"duration":0.09114583333334281},{"name":"G4","midi":67,"time":152.72135416666703,"velocity":0.7244094488188977,"duration":0.08984375},{"name":"A4","midi":69,"time":152.81380208333368,"velocity":0.7244094488188977,"duration":0.09114583333334281},{"name":"F#4","midi":66,"time":152.90885416666703,"velocity":0.7244094488188977,"duration":1.0039062499998863},{"name":"D5","midi":74,"time":153.00130208333368,"velocity":0.7244094488188977,"duration":0.8203124999999147},{"name":"B3","midi":59,"time":153.00130208333368,"velocity":0.7244094488188977,"duration":0.26953125},{"name":"C#4","midi":61,"time":153.27473958333368,"velocity":0.7244094488188977,"duration":0.09244791666665719},{"name":"D4","midi":62,"time":153.369791666667,"velocity":0.7244094488188977,"duration":0.09244791666665719},{"name":"E4","midi":64,"time":153.4648437500003,"velocity":0.7244094488188977,"duration":0.09244791666665719},{"name":"D4","midi":62,"time":153.56119791666697,"velocity":0.7244094488188977,"duration":0.09244791666665719},{"name":"C#4","midi":61,"time":153.65625000000028,"velocity":0.7244094488188977,"duration":0.09244791666665719},{"name":"D4","midi":62,"time":153.7513020833336,"velocity":0.7244094488188977,"duration":0.09244791666665719},{"name":"D5","midi":74,"time":153.8255208333336,"velocity":0.7244094488188977,"duration":0.11458333333331439},{"name":"B3","midi":59,"time":153.8463541666669,"velocity":0.7244094488188977,"duration":0.09244791666665719},{"name":"G4","midi":67,"time":153.94270833333357,"velocity":0.7244094488188977,"duration":1.8841145833331439},{"name":"D5","midi":74,"time":153.94270833333357,"velocity":0.7244094488188977,"duration":0.8203124999999147},{"name":"E3","midi":52,"time":153.94270833333357,"velocity":0.7244094488188977,"duration":0.26953125},{"name":"F#3","midi":54,"time":154.21614583333357,"velocity":0.7244094488188977,"duration":0.09244791666665719},{"name":"G3","midi":55,"time":154.31119791666688,"velocity":0.7244094488188977,"duration":0.09244791666665719},{"name":"A3","midi":57,"time":154.4062500000002,"velocity":0.7244094488188977,"duration":0.09244791666665719},{"name":"G3","midi":55,"time":154.5013020833335,"velocity":0.7244094488188977,"duration":0.09244791666665719},{"name":"F#3","midi":54,"time":154.59765625000017,"velocity":0.7244094488188977,"duration":0.09244791666665719},{"name":"G3","midi":55,"time":154.69270833333348,"velocity":0.7244094488188977,"duration":0.09244791666665719},{"name":"E5","midi":76,"time":154.76562500000014,"velocity":0.7244094488188977,"duration":0.11458333333331439},{"name":"E3","midi":52,"time":154.7877604166668,"velocity":0.7244094488188977,"duration":0.09244791666665719},{"name":"D5","midi":74,"time":154.8828125000001,"velocity":0.7244094488188977,"duration":0.1536458333333428},{"name":"A3","midi":57,"time":154.8828125000001,"velocity":0.7244094488188977,"duration":0.2695312500000284},{"name":"C#5","midi":73,"time":155.04036458333346,"velocity":0.7244094488188977,"duration":0.07552083333334281},{"name":"D5","midi":74,"time":155.1197916666668,"velocity":0.7244094488188977,"duration":0.07682291666668561},{"name":"B3","midi":59,"time":155.15625000000014,"velocity":0.7244094488188977,"duration":0.09375},{"name":"C#5","midi":73,"time":155.19921875000014,"velocity":0.7244094488188977,"duration":0.07552083333334281},{"name":"C#4","midi":61,"time":155.25390625000014,"velocity":0.7244094488188977,"duration":0.09244791666665719},{"name":"D5","midi":74,"time":155.27734375000014,"velocity":0.7244094488188977,"duration":0.07552083333331439},{"name":"D4","midi":62,"time":155.34895833333346,"velocity":0.7244094488188977,"duration":0.09375},{"name":"C#5","midi":73,"time":155.35677083333346,"velocity":0.7244094488188977,"duration":0.28645833333328596},{"name":"C#4","midi":61,"time":155.4453125000001,"velocity":0.7244094488188977,"duration":0.09244791666665719},{"name":"B3","midi":59,"time":155.54036458333343,"velocity":0.7244094488188977,"duration":0.09244791666665719},{"name":"C#4","midi":61,"time":155.63671875000009,"velocity":0.7244094488188977,"duration":0.09375},{"name":"D5","midi":74,"time":155.64713541666674,"velocity":0.7244094488188977,"duration":0.08854166666665719},{"name":"A3","midi":57,"time":155.73307291666674,"velocity":0.7244094488188977,"duration":0.09374999999997158},{"name":"E5","midi":76,"time":155.73828125000006,"velocity":0.7244094488188977,"duration":0.08854166666665719},{"name":"F#5","midi":78,"time":155.82942708333337,"velocity":0.7244094488188977,"duration":0.9374999999999147},{"name":"F#4","midi":66,"time":155.82942708333337,"velocity":0.7244094488188977,"duration":0.9374999999999147},{"name":"D3","midi":50,"time":155.82942708333337,"velocity":0.7244094488188977,"duration":0.26953125},{"name":"E3","midi":52,"time":156.10286458333337,"velocity":0.7244094488188977,"duration":0.09244791666665719},{"name":"F#3","midi":54,"time":156.19791666666669,"velocity":0.7244094488188977,"duration":0.09244791666665719},{"name":"G3","midi":55,"time":156.29427083333334,"velocity":0.7244094488188977,"duration":0.09244791666665719},{"name":"F#3","midi":54,"time":156.38932291666666,"velocity":0.7244094488188977,"duration":0.09244791666665719},{"name":"E3","midi":52,"time":156.48437499999997,"velocity":0.7244094488188977,"duration":0.09244791666665719},{"name":"F#3","midi":54,"time":156.5794270833333,"velocity":0.7244094488188977,"duration":0.09244791666665719},{"name":"D3","midi":50,"time":156.67578124999994,"velocity":0.7244094488188977,"duration":0.09244791666668561},{"name":"B5","midi":83,"time":156.7708333333333,"velocity":0.7244094488188977,"duration":0.2330729166666572},{"name":"G3","midi":55,"time":156.7708333333333,"velocity":0.7244094488188977,"duration":0.8593749999999432},{"name":"A5","midi":81,"time":157.0065104166666,"velocity":0.7244094488188977,"duration":0.2330729166666572},{"name":"B5","midi":83,"time":157.24218749999991,"velocity":0.7244094488188977,"duration":0.2330729166666572},{"name":"G5","midi":79,"time":157.47916666666657,"velocity":0.7244094488188977,"duration":0.2330729166666572},{"name":"G5","midi":79,"time":157.7148437499999,"velocity":0.7244094488188977,"duration":0.2330729166666572},{"name":"D5","midi":74,"time":157.7148437499999,"velocity":0.7244094488188977,"duration":0.8229166666666003},{"name":"B4","midi":71,"time":157.7148437499999,"velocity":0.7244094488188977,"duration":0.8229166666666003},{"name":"F#5","midi":78,"time":157.9505208333332,"velocity":0.7244094488188977,"duration":0.2330729166666572},{"name":"G5","midi":79,"time":158.18619791666652,"velocity":0.7244094488188977,"duration":0.2330729166666572},{"name":"E5","midi":76,"time":158.42187499999983,"velocity":0.7244094488188977,"duration":0.23437499999997158},{"name":"B4","midi":71,"time":158.54036458333314,"velocity":0.7244094488188977,"duration":0.11588541666665719},{"name":"G4","midi":67,"time":158.54036458333314,"velocity":0.7244094488188977,"duration":0.11588541666665719},{"name":"E5","midi":76,"time":158.65885416666646,"velocity":0.7244094488188977,"duration":0.2330729166666572},{"name":"B4","midi":71,"time":158.65885416666646,"velocity":0.7244094488188977,"duration":0.8229166666666288},{"name":"G4","midi":67,"time":158.65885416666646,"velocity":0.7244094488188977,"duration":0.8229166666666288},{"name":"D5","midi":74,"time":158.89583333333312,"velocity":0.7244094488188977,"duration":0.2330729166666572},{"name":"E5","midi":76,"time":159.13151041666643,"velocity":0.7244094488188977,"duration":0.2330729166666572},{"name":"C#5","midi":73,"time":159.36718749999974,"velocity":0.7244094488188977,"duration":0.234375},{"name":"A4","midi":69,"time":159.4856770833331,"velocity":0.7244094488188977,"duration":0.11588541666665719},{"name":"E4","midi":64,"time":159.4856770833331,"velocity":0.7244094488188977,"duration":0.11588541666665719},{"name":"G2","midi":43,"time":159.62499999999974,"velocity":0.7244094488188977,"duration":0.8489583333333144},{"name":"G3","midi":55,"time":159.62499999999974,"velocity":0.7244094488188977,"duration":0.8489583333333144},{"name":"D5","midi":74,"time":159.62499999999974,"velocity":0.7244094488188977,"duration":0.5651041666666572},{"name":"E4","midi":64,"time":159.62499999999974,"velocity":0.7244094488188977,"duration":0.9296874999999716},{"name":"A4","midi":69,"time":159.62499999999974,"velocity":0.7244094488188977,"duration":0.9296874999999716},{"name":"C#5","midi":73,"time":160.1940104166664,"velocity":0.7244094488188977,"duration":0.4765624999999716},{"name":"G3","midi":55,"time":160.50911458333306,"velocity":0.7244094488188977,"duration":0.1901041666666572},{"name":"F#3","midi":54,"time":160.69140624999972,"velocity":0.7244094488188977,"duration":0.3138020833333428},{"name":"A4","midi":69,"time":160.69140624999972,"velocity":0.7244094488188977,"duration":0.8502604166666856},{"name":"F#4","midi":66,"time":160.69140624999972,"velocity":0.7244094488188977,"duration":0.8502604166666856},{"name":"D5","midi":74,"time":160.69140624999972,"velocity":0.7244094488188977,"duration":0.8502604166666856},{"name":"G3","midi":55,"time":161.00911458333306,"velocity":0.7244094488188977,"duration":0.09114583333334281},{"name":"A3","midi":57,"time":161.10286458333306,"velocity":0.7244094488188977,"duration":0.09114583333334281},{"name":"G3","midi":55,"time":161.19661458333306,"velocity":0.7244094488188977,"duration":0.09114583333334281},{"name":"F#3","midi":54,"time":161.2916666666664,"velocity":0.7244094488188977,"duration":0.09114583333334281},{"name":"E3","midi":52,"time":161.3854166666664,"velocity":0.7244094488188977,"duration":0.09114583333334281},{"name":"D3","midi":50,"time":161.4791666666664,"velocity":0.7244094488188977,"duration":0.09114583333334281},{"name":"F#4","midi":66,"time":161.5455729166664,"velocity":0.7244094488188977,"duration":0.11979166666668561},{"name":"A4","midi":69,"time":161.5455729166664,"velocity":0.7244094488188977,"duration":0.11979166666668561},{"name":"D5","midi":74,"time":161.5455729166664,"velocity":0.7244094488188977,"duration":0.11979166666668561},{"name":"C#3","midi":49,"time":161.5729166666664,"velocity":0.7244094488188977,"duration":0.09114583333334281},{"name":"B2","midi":47,"time":161.66796874999974,"velocity":0.7244094488188977,"duration":0.3138020833333428},{"name":"F#4","midi":66,"time":161.66796874999974,"velocity":0.7244094488188977,"duration":0.8502604166666856},{"name":"B4","midi":71,"time":161.66796874999974,"velocity":0.7244094488188977,"duration":0.8502604166666856},{"name":"D5","midi":74,"time":161.66796874999974,"velocity":0.7244094488188977,"duration":0.8502604166666856},{"name":"C#3","midi":49,"time":161.98437499999974,"velocity":0.7244094488188977,"duration":0.09114583333334281},{"name":"D3","midi":50,"time":162.0794270833331,"velocity":0.7244094488188977,"duration":0.09114583333334281},{"name":"C#3","midi":49,"time":162.1731770833331,"velocity":0.7244094488188977,"duration":0.09114583333334281},{"name":"B2","midi":47,"time":162.2669270833331,"velocity":0.7244094488188977,"duration":0.09114583333334281},{"name":"A2","midi":45,"time":162.3606770833331,"velocity":0.7244094488188977,"duration":0.09114583333334281},{"name":"B2","midi":47,"time":162.45572916666643,"velocity":0.7244094488188977,"duration":0.09114583333331439},{"name":"G4","midi":67,"time":162.5208333333331,"velocity":0.7244094488188977,"duration":0.11979166666665719},{"name":"B4","midi":71,"time":162.5208333333331,"velocity":0.7244094488188977,"duration":0.11979166666665719},{"name":"E5","midi":76,"time":162.5208333333331,"velocity":0.7244094488188977,"duration":0.11979166666665719},{"name":"G2","midi":43,"time":162.5494791666664,"velocity":0.7244094488188977,"duration":0.09114583333334281},{"name":"A2","midi":45,"time":162.6432291666664,"velocity":0.7244094488188977,"duration":0.8489583333333144},{"name":"D5","midi":74,"time":162.6432291666664,"velocity":0.7244094488188977,"duration":0.1588541666666572},{"name":"E4","midi":64,"time":162.6432291666664,"velocity":0.7244094488188977,"duration":0.9661458333333144},{"name":"A4","midi":69,"time":162.6432291666664,"velocity":0.7244094488188977,"duration":0.9661458333333144},{"name":"C#5","midi":73,"time":162.80598958333306,"velocity":0.7244094488188977,"duration":0.078125},{"name":"B4","midi":71,"time":162.88671874999972,"velocity":0.7244094488188977,"duration":0.078125},{"name":"C#5","midi":73,"time":162.96874999999972,"velocity":0.7244094488188977,"duration":0.078125},{"name":"D5","midi":74,"time":163.04947916666637,"velocity":0.7244094488188977,"duration":0.078125},{"name":"C#5","midi":73,"time":163.13151041666637,"velocity":0.7244094488188977,"duration":0.3619791666666856},{"name":"A2","midi":45,"time":163.49609374999972,"velocity":0.7244094488188977,"duration":0.12239583333334281},{"name":"D5","midi":74,"time":163.49609374999972,"velocity":0.7244094488188977,"duration":0.12239583333334281},{"name":"D2","midi":38,"time":163.62109374999972,"velocity":0.7244094488188977,"duration":0.7513020833333428},{"name":"F#4","midi":66,"time":163.62109374999972,"velocity":0.7244094488188977,"duration":1.0026041666666572},{"name":"A4","midi":69,"time":163.62109374999972,"velocity":0.7244094488188977,"duration":1.0026041666666572},{"name":"D5","midi":74,"time":163.62109374999972,"velocity":0.7244094488188977,"duration":1.0026041666666572},{"name":"D3","midi":50,"time":164.39062499999972,"velocity":0.7244094488188977,"duration":0.109375},{"name":"E3","midi":52,"time":164.49999999999972,"velocity":0.7244094488188977,"duration":0.109375},{"name":"F#3","midi":54,"time":164.60937499999972,"velocity":0.7244094488188977,"duration":0.11067708333331439},{"name":"G3","midi":55,"time":164.72135416666637,"velocity":0.7244094488188977,"duration":1.007812499999858},{"name":"B4","midi":71,"time":164.72135416666637,"velocity":0.7244094488188977,"duration":0.12369791666665719},{"name":"C#5","midi":73,"time":164.8476562499997,"velocity":0.7244094488188977,"duration":0.12369791666665719},{"name":"D5","midi":74,"time":164.973958333333,"velocity":0.7244094488188977,"duration":0.12369791666665719},{"name":"E5","midi":76,"time":165.10026041666632,"velocity":0.7244094488188977,"duration":0.12369791666665719},{"name":"D5","midi":74,"time":165.22656249999963,"velocity":0.7244094488188977,"duration":0.12369791666665719},{"name":"C#5","midi":73,"time":165.35286458333294,"velocity":0.7244094488188977,"duration":0.12369791666665719},{"name":"D5","midi":74,"time":165.47916666666626,"velocity":0.7244094488188977,"duration":0.12369791666665719},{"name":"B4","midi":71,"time":165.60546874999957,"velocity":0.7244094488188977,"duration":0.12369791666665719},{"name":"C#3","midi":49,"time":165.7317708333329,"velocity":0.7244094488188977,"duration":0.12369791666665719},{"name":"E4","midi":64,"time":165.7317708333329,"velocity":0.7244094488188977,"duration":0.9986979166665435},{"name":"D3","midi":50,"time":165.8580729166662,"velocity":0.7244094488188977,"duration":0.12369791666665719},{"name":"B4","midi":71,"time":165.8580729166662,"velocity":0.7244094488188977,"duration":0.8671874999998863},{"name":"E3","midi":52,"time":165.98437499999952,"velocity":0.7244094488188977,"duration":0.12369791666665719},{"name":"E5","midi":76,"time":165.98437499999952,"velocity":0.7244094488188977,"duration":0.7539062499999147},{"name":"F#3","midi":54,"time":166.11067708333283,"velocity":0.7244094488188977,"duration":0.12369791666665719},{"name":"E3","midi":52,"time":166.23697916666615,"velocity":0.7244094488188977,"duration":0.12369791666665719},{"name":"D3","midi":50,"time":166.36328124999946,"velocity":0.7244094488188977,"duration":0.12369791666665719},{"name":"E3","midi":52,"time":166.48958333333277,"velocity":0.7244094488188977,"duration":0.12369791666665719},{"name":"C#3","midi":49,"time":166.6158854166661,"velocity":0.7244094488188977,"duration":0.12239583333334281},{"name":"F#3","midi":54,"time":166.7408854166661,"velocity":0.7244094488188977,"duration":1.007812499999858},{"name":"A4","midi":69,"time":166.7408854166661,"velocity":0.7244094488188977,"duration":0.12369791666665719},{"name":"B4","midi":71,"time":166.8671874999994,"velocity":0.7244094488188977,"duration":0.12369791666665719},{"name":"C#5","midi":73,"time":166.99348958333272,"velocity":0.7244094488188977,"duration":0.12369791666665719},{"name":"D5","midi":74,"time":167.11979166666603,"velocity":0.7244094488188977,"duration":0.12369791666665719},{"name":"C#5","midi":73,"time":167.24609374999935,"velocity":0.7244094488188977,"duration":0.12369791666665719},{"name":"B4","midi":71,"time":167.37239583333266,"velocity":0.7244094488188977,"duration":0.12369791666665719},{"name":"C#5","midi":73,"time":167.49869791666598,"velocity":0.7244094488188977,"duration":0.12369791666665719},{"name":"A4","midi":69,"time":167.6249999999993,"velocity":0.7244094488188977,"duration":0.12369791666665719},{"name":"B2","midi":47,"time":167.7513020833326,"velocity":0.7244094488188977,"duration":0.12369791666665719},{"name":"D4","midi":62,"time":167.7513020833326,"velocity":0.7244094488188977,"duration":0.9986979166665435},{"name":"A4","midi":69,"time":167.83593749999926,"velocity":0.7244094488188977,"duration":0.9140624999998863},{"name":"C#3","midi":49,"time":167.87760416666592,"velocity":0.7244094488188977,"duration":0.12369791666665719},{"name":"D5","midi":74,"time":167.92057291666592,"velocity":0.7244094488188977,"duration":0.8476562499998863},{"name":"D3","midi":50,"time":168.00390624999923,"velocity":0.7244094488188977,"duration":0.12369791666665719},{"name":"E3","midi":52,"time":168.13020833333255,"velocity":0.7244094488188977,"duration":0.12369791666665719},{"name":"D3","midi":50,"time":168.25651041666586,"velocity":0.7244094488188977,"duration":0.12369791666665719},{"name":"C#3","midi":49,"time":168.38281249999918,"velocity":0.7244094488188977,"duration":0.12369791666665719},{"name":"D3","midi":50,"time":168.5091145833325,"velocity":0.7244094488188977,"duration":0.12369791666665719},{"name":"B2","midi":47,"time":168.6354166666658,"velocity":0.7244094488188977,"duration":0.12239583333334281},{"name":"E3","midi":52,"time":168.76171874999915,"velocity":0.7244094488188977,"duration":0.140625},{"name":"G4","midi":67,"time":168.76171874999915,"velocity":0.7244094488188977,"duration":0.140625},{"name":"F#3","midi":54,"time":168.9049479166658,"velocity":0.7244094488188977,"duration":0.12109375},{"name":"A4","midi":69,"time":168.9049479166658,"velocity":0.7244094488188977,"duration":0.12109375},{"name":"G3","midi":55,"time":169.02864583333246,"velocity":0.7244094488188977,"duration":0.12109375},{"name":"B4","midi":71,"time":169.02864583333246,"velocity":0.7244094488188977,"duration":0.12109375},{"name":"A3","midi":57,"time":169.15364583333246,"velocity":0.7244094488188977,"duration":0.12109375},{"name":"C5","midi":72,"time":169.15364583333246,"velocity":0.7244094488188977,"duration":0.12109375},{"name":"G3","midi":55,"time":169.27734374999912,"velocity":0.7244094488188977,"duration":0.12109375},{"name":"B4","midi":71,"time":169.27734374999912,"velocity":0.7244094488188977,"duration":0.12109375},{"name":"F#3","midi":54,"time":169.40104166666578,"velocity":0.7244094488188977,"duration":0.12109375},{"name":"A4","midi":69,"time":169.40104166666578,"velocity":0.7244094488188977,"duration":0.12109375},{"name":"G3","midi":55,"time":169.52473958333243,"velocity":0.7244094488188977,"duration":0.12109375},{"name":"B4","midi":71,"time":169.52473958333243,"velocity":0.7244094488188977,"duration":0.12109375},{"name":"E3","midi":52,"time":169.6484374999991,"velocity":0.7244094488188977,"duration":0.12109375},{"name":"G4","midi":67,"time":169.6484374999991,"velocity":0.7244094488188977,"duration":0.12109375},{"name":"A3","midi":57,"time":169.77213541666575,"velocity":0.7244094488188977,"duration":0.1588541666666572},{"name":"C#5","midi":73,"time":169.77213541666575,"velocity":0.7244094488188977,"duration":0.1588541666666572},{"name":"B3","midi":59,"time":169.9348958333324,"velocity":0.7244094488188977,"duration":0.11848958333334281},{"name":"D5","midi":74,"time":169.9348958333324,"velocity":0.7244094488188977,"duration":0.11848958333334281},{"name":"C#4","midi":61,"time":170.0559895833324,"velocity":0.7244094488188977,"duration":0.11848958333334281},{"name":"E5","midi":76,"time":170.0559895833324,"velocity":0.7244094488188977,"duration":0.11848958333334281},{"name":"D4","midi":62,"time":170.1770833333324,"velocity":0.7244094488188977,"duration":0.11848958333334281},{"name":"F#5","midi":78,"time":170.1770833333324,"velocity":0.7244094488188977,"duration":0.11848958333334281},{"name":"C#4","midi":61,"time":170.2981770833324,"velocity":0.7244094488188977,"duration":0.11848958333334281},{"name":"E5","midi":76,"time":170.2981770833324,"velocity":0.7244094488188977,"duration":0.11848958333334281},{"name":"B3","midi":59,"time":170.4192708333324,"velocity":0.7244094488188977,"duration":0.11848958333334281},{"name":"D5","midi":74,"time":170.4192708333324,"velocity":0.7244094488188977,"duration":0.11848958333334281},{"name":"C#4","midi":61,"time":170.5403645833324,"velocity":0.7244094488188977,"duration":0.11848958333334281},{"name":"E5","midi":76,"time":170.5403645833324,"velocity":0.7244094488188977,"duration":0.11848958333334281},{"name":"A3","midi":57,"time":170.6614583333324,"velocity":0.7244094488188977,"duration":0.11848958333334281},{"name":"C#5","midi":73,"time":170.6614583333324,"velocity":0.7244094488188977,"duration":0.11848958333334281},{"name":"D4","midi":62,"time":170.7825520833324,"velocity":0.7244094488188977,"duration":0.1966145833333428},{"name":"F#5","midi":78,"time":170.7825520833324,"velocity":0.7244094488188977,"duration":0.1966145833333428},{"name":"E4","midi":64,"time":170.9817708333324,"velocity":0.7244094488188977,"duration":0.11197916666665719},{"name":"G5","midi":79,"time":170.9817708333324,"velocity":0.7244094488188977,"duration":0.11197916666665719},{"name":"F#4","midi":66,"time":171.09765624999906,"velocity":0.7244094488188977,"duration":0.11197916666665719},{"name":"A5","midi":81,"time":171.09765624999906,"velocity":0.7244094488188977,"duration":0.11197916666665719},{"name":"G4","midi":67,"time":171.21223958333238,"velocity":0.7244094488188977,"duration":0.11197916666665719},{"name":"B5","midi":83,"time":171.21223958333238,"velocity":0.7244094488188977,"duration":0.11197916666665719},{"name":"F#4","midi":66,"time":171.3268229166657,"velocity":0.7244094488188977,"duration":0.11197916666665719},{"name":"A5","midi":81,"time":171.3268229166657,"velocity":0.7244094488188977,"duration":0.11197916666665719},{"name":"E4","midi":64,"time":171.441406249999,"velocity":0.7244094488188977,"duration":0.11197916666665719},{"name":"G5","midi":79,"time":171.441406249999,"velocity":0.7244094488188977,"duration":0.11197916666665719},{"name":"F#4","midi":66,"time":171.55598958333232,"velocity":0.7244094488188977,"duration":0.11197916666665719},{"name":"A5","midi":81,"time":171.55598958333232,"velocity":0.7244094488188977,"duration":0.11197916666665719},{"name":"D4","midi":62,"time":171.67057291666563,"velocity":0.7244094488188977,"duration":0.11197916666665719},{"name":"F#5","midi":78,"time":171.67057291666563,"velocity":0.7244094488188977,"duration":0.11197916666665719},{"name":"G4","midi":67,"time":171.78515624999895,"velocity":0.7244094488188977,"duration":0.87890625},{"name":"B5","midi":83,"time":171.78515624999895,"velocity":0.7244094488188977,"duration":0.8385416666666572},{"name":"G3","midi":55,"time":172.66796874999895,"velocity":0.7244094488188977,"duration":0.12369791666665719},{"name":"E4","midi":64,"time":172.66796874999895,"velocity":0.7244094488188977,"duration":0.12369791666665719},{"name":"C#5","midi":73,"time":172.66796874999895,"velocity":0.7244094488188977,"duration":0.12369791666665719},{"name":"A4","midi":69,"time":172.66796874999895,"velocity":0.7244094488188977,"duration":0.12369791666665719},{"name":"F#3","midi":54,"time":172.79427083333226,"velocity":0.7244094488188977,"duration":0.8776041666666572},{"name":"A4","midi":69,"time":172.79427083333226,"velocity":0.7244094488188977,"duration":0.8776041666666572},{"name":"D5","midi":74,"time":172.79427083333226,"velocity":0.7244094488188977,"duration":0.8776041666666572},{"name":"F#4","midi":66,"time":172.79427083333226,"velocity":0.7244094488188977,"duration":0.8776041666666572},{"name":"E3","midi":52,"time":173.67447916666558,"velocity":0.7244094488188977,"duration":0.12369791666665719},{"name":"C#5","midi":73,"time":173.67447916666558,"velocity":0.7244094488188977,"duration":0.12369791666665719},{"name":"E5","midi":76,"time":173.67447916666558,"velocity":0.7244094488188977,"duration":0.12369791666665719},{"name":"G4","midi":67,"time":173.67447916666558,"velocity":0.7244094488188977,"duration":0.12369791666665719},{"name":"D3","midi":50,"time":173.8007812499989,"velocity":0.7244094488188977,"duration":0.87890625},{"name":"F#5","midi":78,"time":173.8007812499989,"velocity":0.7244094488188977,"duration":0.8385416666666572},{"name":"A4","midi":69,"time":173.8007812499989,"velocity":0.7244094488188977,"duration":0.8385416666666572},{"name":"D5","midi":74,"time":173.8007812499989,"velocity":0.7244094488188977,"duration":0.8385416666666572},{"name":"C3","midi":48,"time":174.68229166666555,"velocity":0.7244094488188977,"duration":0.12369791666665719},{"name":"A3","midi":57,"time":174.68229166666555,"velocity":0.7244094488188977,"duration":0.12369791666665719},{"name":"D4","midi":62,"time":174.68229166666555,"velocity":0.7244094488188977,"duration":0.12369791666665719},{"name":"F#4","midi":66,"time":174.68229166666555,"velocity":0.7244094488188977,"duration":0.12369791666665719},{"name":"B2","midi":47,"time":174.80859374999886,"velocity":0.7244094488188977,"duration":0.8776041666666572},{"name":"G4","midi":67,"time":174.80859374999886,"velocity":0.7244094488188977,"duration":0.8776041666666572},{"name":"D4","midi":62,"time":174.80859374999886,"velocity":0.7244094488188977,"duration":0.8776041666666572},{"name":"B3","midi":59,"time":174.80859374999886,"velocity":0.7244094488188977,"duration":0.8776041666666572},{"name":"A2","midi":45,"time":175.68880208333218,"velocity":0.7244094488188977,"duration":0.1276041666666572},{"name":"C4","midi":60,"time":175.68880208333218,"velocity":0.7244094488188977,"duration":0.1276041666666572},{"name":"F#4","midi":66,"time":175.68880208333218,"velocity":0.7244094488188977,"duration":0.1276041666666572},{"name":"A4","midi":69,"time":175.68880208333218,"velocity":0.7244094488188977,"duration":0.1276041666666572},{"name":"G2","midi":43,"time":175.8190104166655,"velocity":0.7244094488188977,"duration":0.9088541666666572},{"name":"D4","midi":62,"time":175.8190104166655,"velocity":0.7244094488188977,"duration":0.8671875},{"name":"G4","midi":67,"time":175.8190104166655,"velocity":0.7244094488188977,"duration":0.8671875},{"name":"B4","midi":71,"time":175.8190104166655,"velocity":0.7244094488188977,"duration":0.8671875},{"name":"F#2","midi":42,"time":176.7304687499988,"velocity":0.7244094488188977,"duration":0.1276041666666572},{"name":"D4","midi":62,"time":176.7304687499988,"velocity":0.7244094488188977,"duration":0.1276041666666572},{"name":"G4","midi":67,"time":176.7304687499988,"velocity":0.7244094488188977,"duration":0.1276041666666572},{"name":"B4","midi":71,"time":176.7304687499988,"velocity":0.7244094488188977,"duration":0.1276041666666572},{"name":"E2","midi":40,"time":176.86067708333212,"velocity":0.7244094488188977,"duration":0.9088541666666572},{"name":"G4","midi":67,"time":176.86067708333212,"velocity":0.7244094488188977,"duration":0.9088541666666572},{"name":"C#5","midi":73,"time":176.86067708333212,"velocity":0.7244094488188977,"duration":0.9088541666666572},{"name":"E4","midi":64,"time":176.86067708333212,"velocity":0.7244094488188977,"duration":0.9088541666666572},{"name":"D2","midi":38,"time":177.77213541666544,"velocity":0.7244094488188977,"duration":0.1276041666666572},{"name":"D4","midi":62,"time":177.77213541666544,"velocity":0.7244094488188977,"duration":0.1276041666666572},{"name":"F#4","midi":66,"time":177.77213541666544,"velocity":0.7244094488188977,"duration":0.1276041666666572},{"name":"A4","midi":69,"time":177.77213541666544,"velocity":0.7244094488188977,"duration":0.1276041666666572},{"name":"A2","midi":45,"time":177.90234374999875,"velocity":0.7244094488188977,"duration":1.0390625},{"name":"F#4","midi":66,"time":177.90234374999875,"velocity":0.7244094488188977,"duration":1.0390625},{"name":"A3","midi":57,"time":177.90234374999875,"velocity":0.7244094488188977,"duration":1.0390625},{"name":"D4","midi":62,"time":177.90234374999875,"velocity":0.7244094488188977,"duration":1.0390625},{"name":"A2","midi":45,"time":178.9440104166654,"velocity":0.7244094488188977,"duration":5.283854166666629},{"name":"G3","midi":55,"time":178.9440104166654,"velocity":0.7244094488188977,"duration":1.0846354166666572},{"name":"E4","midi":64,"time":178.9440104166654,"velocity":0.7244094488188977,"duration":0.9088541666666572},{"name":"C#4","midi":61,"time":178.9440104166654,"velocity":0.7244094488188977,"duration":0.9088541666666572},{"name":"D4","midi":62,"time":179.85546874999872,"velocity":0.7244094488188977,"duration":0.20703125},{"name":"D4","midi":62,"time":180.07291666666538,"velocity":0.7244094488188977,"duration":4.16015625},{"name":"A3","midi":57,"time":180.07291666666538,"velocity":0.7244094488188977,"duration":4.16015625},{"name":"F#3","midi":54,"time":180.07291666666538,"velocity":0.7244094488188977,"duration":4.16015625},{"name":"D3","midi":50,"time":180.07291666666538,"velocity":0.7244094488188977,"duration":4.16015625},{"name":"D2","midi":38,"time":180.07291666666538,"velocity":0.7244094488188977,"duration":4.16015625}],"controlChanges":{"7":[{"number":7,"time":0,"value":0.7874015748031497}]},"id":1,"name":"Harpsichord","instrumentNumber":6,"instrument":"harpsichord","instrumentFamily":"piano","channelNumber":0,"isPercussion":false}]}