{"header":{"PPQ":384,"timeSignature":[4,4],"bpm":120,"name":"--------"},"startTime":0,"duration":216.01953125000168,"tracks":[{"startTime":0,"duration":0,"length":0,"notes":[],"controlChanges":{},"id":0,"name":"--------"},{"startTime":0.08333333333333333,"duration":216.01953125000168,"length":1877,"notes":[{"name":"C5","midi":72,"time":0.08333333333333333,"velocity":0.7244094488188977,"duration":1.2265625},{"name":"C3","midi":48,"time":0.08333333333333333,"velocity":0.7244094488188977,"duration":1.2265625},{"name":"D#4","midi":63,"time":0.23828125,"velocity":0.7244094488188977,"duration":0.13151041666666663},{"name":"G3","midi":55,"time":0.23828125,"velocity":0.7244094488188977,"duration":0.13151041666666663},{"name":"D4","midi":62,"time":0.39322916666666663,"velocity":0.7244094488188977,"duration":0.13151041666666663},{"name":"F3","midi":53,"time":0.39322916666666663,"velocity":0.7244094488188977,"duration":0.13151041666666663},{"name":"D#4","midi":63,"time":0.5481770833333333,"velocity":0.7244094488188977,"duration":0.13151041666666663},{"name":"G3","midi":55,"time":0.5481770833333333,"velocity":0.7244094488188977,"duration":0.13151041666666663},{"name":"C4","midi":60,"time":0.7031249999999999,"velocity":0.7244094488188977,"duration":0.5937499999999999},{"name":"D#3","midi":51,"time":0.7031249999999999,"velocity":0.7244094488188977,"duration":0.5937499999999999},{"name":"D#4","midi":63,"time":0.8580729166666665,"velocity":0.7244094488188977,"duration":0.13151041666666663},{"name":"G3","midi":55,"time":0.8580729166666665,"velocity":0.7244094488188977,"duration":0.13151041666666663},{"name":"D4","midi":62,"time":1.013020833333333,"velocity":0.7244094488188977,"duration":0.13151041666666674},{"name":"F3","midi":53,"time":1.013020833333333,"velocity":0.7244094488188977,"duration":0.13151041666666674},{"name":"D#4","midi":63,"time":1.1679687499999998,"velocity":0.7244094488188977,"duration":0.13151041666666674},{"name":"G3","midi":55,"time":1.1679687499999998,"velocity":0.7244094488188977,"duration":0.13151041666666674},{"name":"C5","midi":72,"time":1.3229166666666665,"velocity":0.7244094488188977,"duration":1.2265624999999996},{"name":"C3","midi":48,"time":1.3229166666666665,"velocity":0.7244094488188977,"duration":1.2265624999999996},{"name":"D#4","midi":63,"time":1.4778645833333333,"velocity":0.7244094488188977,"duration":0.13151041666666674},{"name":"G3","midi":55,"time":1.4778645833333333,"velocity":0.7244094488188977,"duration":0.13151041666666674},{"name":"D4","midi":62,"time":1.6328125,"velocity":0.7244094488188977,"duration":0.13151041666666674},{"name":"F3","midi":53,"time":1.6328125,"velocity":0.7244094488188977,"duration":0.13151041666666674},{"name":"D#4","midi":63,"time":1.7877604166666667,"velocity":0.7244094488188977,"duration":0.13151041666666674},{"name":"G3","midi":55,"time":1.7877604166666667,"velocity":0.7244094488188977,"duration":0.13151041666666674},{"name":"C4","midi":60,"time":1.9427083333333335,"velocity":0.7244094488188977,"duration":0.5937499999999996},{"name":"D#3","midi":51,"time":1.9427083333333335,"velocity":0.7244094488188977,"duration":0.5937499999999996},{"name":"D#4","midi":63,"time":2.09765625,"velocity":0.7244094488188977,"duration":0.13151041666666652},{"name":"G3","midi":55,"time":2.09765625,"velocity":0.7244094488188977,"duration":0.13151041666666652},{"name":"D4","midi":62,"time":2.2526041666666665,"velocity":0.7244094488188977,"duration":0.13151041666666652},{"name":"F3","midi":53,"time":2.2526041666666665,"velocity":0.7244094488188977,"duration":0.13151041666666652},{"name":"D#4","midi":63,"time":2.407552083333333,"velocity":0.7244094488188977,"duration":0.13151041666666652},{"name":"G3","midi":55,"time":2.407552083333333,"velocity":0.7244094488188977,"duration":0.13151041666666652},{"name":"G#4","midi":68,"time":2.5624999999999996,"velocity":0.7244094488188977,"duration":1.2265624999999987},{"name":"C3","midi":48,"time":2.5624999999999996,"velocity":0.7244094488188977,"duration":1.2265624999999987},{"name":"F4","midi":65,"time":2.717447916666666,"velocity":0.7244094488188977,"duration":0.13151041666666652},{"name":"G#3","midi":56,"time":2.717447916666666,"velocity":0.7244094488188977,"duration":0.13151041666666652},{"name":"E4","midi":64,"time":2.8723958333333326,"velocity":0.7244094488188977,"duration":0.13151041666666652},{"name":"G3","midi":55,"time":2.8723958333333326,"velocity":0.7244094488188977,"duration":0.13151041666666652},{"name":"F4","midi":65,"time":3.027343749999999,"velocity":0.7244094488188977,"duration":0.13151041666666652},{"name":"G#3","midi":56,"time":3.027343749999999,"velocity":0.7244094488188977,"duration":0.13151041666666652},{"name":"C4","midi":60,"time":3.1822916666666656,"velocity":0.7244094488188977,"duration":0.5937499999999996},{"name":"F3","midi":53,"time":3.1822916666666656,"velocity":0.7244094488188977,"duration":0.5937499999999996},{"name":"F4","midi":65,"time":3.337239583333332,"velocity":0.7244094488188977,"duration":0.13151041666666652},{"name":"G#3","midi":56,"time":3.337239583333332,"velocity":0.7244094488188977,"duration":0.13151041666666652},{"name":"E4","midi":64,"time":3.4921874999999987,"velocity":0.7244094488188977,"duration":0.13151041666666652},{"name":"G3","midi":55,"time":3.4921874999999987,"velocity":0.7244094488188977,"duration":0.13151041666666652},{"name":"F4","midi":65,"time":3.647135416666665,"velocity":0.7244094488188977,"duration":0.13151041666666652},{"name":"G#3","midi":56,"time":3.647135416666665,"velocity":0.7244094488188977,"duration":0.13151041666666652},{"name":"G#4","midi":68,"time":3.8020833333333317,"velocity":0.7244094488188977,"duration":1.2265625000000013},{"name":"C3","midi":48,"time":3.8020833333333317,"velocity":0.7244094488188977,"duration":1.2265625000000013},{"name":"F4","midi":65,"time":3.9583333333333317,"velocity":0.7244094488188977,"duration":0.13151041666666652},{"name":"G#3","midi":56,"time":3.9583333333333317,"velocity":0.7244094488188977,"duration":0.13151041666666652},{"name":"E4","midi":64,"time":4.113281249999998,"velocity":0.7244094488188977,"duration":0.13151041666666696},{"name":"G3","midi":55,"time":4.113281249999998,"velocity":0.7244094488188977,"duration":0.13151041666666696},{"name":"F4","midi":65,"time":4.268229166666665,"velocity":0.7244094488188977,"duration":0.13151041666666696},{"name":"G#3","midi":56,"time":4.268229166666665,"velocity":0.7244094488188977,"duration":0.13151041666666696},{"name":"C4","midi":60,"time":4.423177083333332,"velocity":0.7244094488188977,"duration":0.5937500000000009},{"name":"F3","midi":53,"time":4.423177083333332,"velocity":0.7244094488188977,"duration":0.5937500000000009},{"name":"F4","midi":65,"time":4.578124999999999,"velocity":0.7244094488188977,"duration":0.13151041666666696},{"name":"G#3","midi":56,"time":4.578124999999999,"velocity":0.7244094488188977,"duration":0.13151041666666696},{"name":"E4","midi":64,"time":4.733072916666666,"velocity":0.7244094488188977,"duration":0.13151041666666696},{"name":"G3","midi":55,"time":4.733072916666666,"velocity":0.7244094488188977,"duration":0.13151041666666696},{"name":"F4","midi":65,"time":4.888020833333333,"velocity":0.7244094488188977,"duration":0.13151041666666696},{"name":"G#3","midi":56,"time":4.888020833333333,"velocity":0.7244094488188977,"duration":0.13151041666666696},{"name":"B4","midi":71,"time":5.04296875,"velocity":0.7244094488188977,"duration":1.2265625000000027},{"name":"C3","midi":48,"time":5.04296875,"velocity":0.7244094488188977,"duration":1.2265625000000027},{"name":"F4","midi":65,"time":5.197916666666667,"velocity":0.7244094488188977,"duration":0.13151041666666696},{"name":"G#3","midi":56,"time":5.197916666666667,"velocity":0.7244094488188977,"duration":0.13151041666666696},{"name":"D#4","midi":63,"time":5.352864583333334,"velocity":0.7244094488188977,"duration":0.13151041666666696},{"name":"G3","midi":55,"time":5.352864583333334,"velocity":0.7244094488188977,"duration":0.13151041666666696},{"name":"F4","midi":65,"time":5.507812500000001,"velocity":0.7244094488188977,"duration":0.13151041666666696},{"name":"G#3","midi":56,"time":5.507812500000001,"velocity":0.7244094488188977,"duration":0.13151041666666696},{"name":"D4","midi":62,"time":5.662760416666668,"velocity":0.7244094488188977,"duration":0.5937500000000009},{"name":"F3","midi":53,"time":5.662760416666668,"velocity":0.7244094488188977,"duration":0.5937500000000009},{"name":"F4","midi":65,"time":5.817708333333335,"velocity":0.7244094488188977,"duration":0.13151041666666696},{"name":"G#3","midi":56,"time":5.817708333333335,"velocity":0.7244094488188977,"duration":0.13151041666666696},{"name":"D#4","midi":63,"time":5.972656250000002,"velocity":0.7244094488188977,"duration":0.13151041666666696},{"name":"G3","midi":55,"time":5.972656250000002,"velocity":0.7244094488188977,"duration":0.13151041666666696},{"name":"F4","midi":65,"time":6.127604166666669,"velocity":0.7244094488188977,"duration":0.13151041666666696},{"name":"G#3","midi":56,"time":6.127604166666669,"velocity":0.7244094488188977,"duration":0.13151041666666696},{"name":"B4","midi":71,"time":6.282552083333336,"velocity":0.7244094488188977,"duration":1.2265625000000027},{"name":"C3","midi":48,"time":6.282552083333336,"velocity":0.7244094488188977,"duration":1.2265625000000027},{"name":"F4","midi":65,"time":6.437500000000003,"velocity":0.7244094488188977,"duration":0.13151041666666696},{"name":"G#3","midi":56,"time":6.437500000000003,"velocity":0.7244094488188977,"duration":0.13151041666666696},{"name":"D#4","midi":63,"time":6.59244791666667,"velocity":0.7244094488188977,"duration":0.13151041666666696},{"name":"G3","midi":55,"time":6.59244791666667,"velocity":0.7244094488188977,"duration":0.13151041666666696},{"name":"F4","midi":65,"time":6.747395833333337,"velocity":0.7244094488188977,"duration":0.13151041666666696},{"name":"G#3","midi":56,"time":6.747395833333337,"velocity":0.7244094488188977,"duration":0.13151041666666696},{"name":"D4","midi":62,"time":6.9023437500000036,"velocity":0.7244094488188977,"duration":0.5937500000000009},{"name":"F3","midi":53,"time":6.9023437500000036,"velocity":0.7244094488188977,"duration":0.5937500000000009},{"name":"F4","midi":65,"time":7.0572916666666705,"velocity":0.7244094488188977,"duration":0.13151041666666696},{"name":"G#3","midi":56,"time":7.0572916666666705,"velocity":0.7244094488188977,"duration":0.13151041666666696},{"name":"D#4","midi":63,"time":7.2122395833333375,"velocity":0.7244094488188977,"duration":0.13151041666666696},{"name":"G3","midi":55,"time":7.2122395833333375,"velocity":0.7244094488188977,"duration":0.13151041666666696},{"name":"F4","midi":65,"time":7.367187500000004,"velocity":0.7244094488188977,"duration":0.13151041666666696},{"name":"G#3","midi":56,"time":7.367187500000004,"velocity":0.7244094488188977,"duration":0.13151041666666696},{"name":"C5","midi":72,"time":7.522135416666671,"velocity":0.7244094488188977,"duration":1.2265624999999982},{"name":"C3","midi":48,"time":7.522135416666671,"velocity":0.7244094488188977,"duration":1.2265624999999982},{"name":"G4","midi":67,"time":7.677083333333338,"velocity":0.7244094488188977,"duration":0.13151041666666696},{"name":"D#3","midi":51,"time":7.677083333333338,"velocity":0.7244094488188977,"duration":0.13151041666666696},{"name":"F4","midi":65,"time":7.833333333333338,"velocity":0.7244094488188977,"duration":0.13151041666666696},{"name":"D3","midi":50,"time":7.833333333333338,"velocity":0.7244094488188977,"duration":0.13151041666666696},{"name":"G4","midi":67,"time":7.988281250000005,"velocity":0.7244094488188977,"duration":0.13151041666666607},{"name":"D#3","midi":51,"time":7.988281250000005,"velocity":0.7244094488188977,"duration":0.13151041666666607},{"name":"D#4","midi":63,"time":8.143229166666671,"velocity":0.7244094488188977,"duration":0.5937499999999982},{"name":"G3","midi":55,"time":8.143229166666671,"velocity":0.7244094488188977,"duration":0.5937499999999982},{"name":"G4","midi":67,"time":8.298177083333337,"velocity":0.7244094488188977,"duration":0.13151041666666607},{"name":"D#3","midi":51,"time":8.298177083333337,"velocity":0.7244094488188977,"duration":0.13151041666666607},{"name":"F4","midi":65,"time":8.453125000000004,"velocity":0.7244094488188977,"duration":0.13151041666666607},{"name":"D3","midi":50,"time":8.453125000000004,"velocity":0.7244094488188977,"duration":0.13151041666666607},{"name":"G4","midi":67,"time":8.60807291666667,"velocity":0.7244094488188977,"duration":0.13151041666666607},{"name":"D#3","midi":51,"time":8.60807291666667,"velocity":0.7244094488188977,"duration":0.13151041666666607},{"name":"C5","midi":72,"time":8.763020833333336,"velocity":0.7244094488188977,"duration":1.2265624999999947},{"name":"C3","midi":48,"time":8.763020833333336,"velocity":0.7244094488188977,"duration":1.2265624999999947},{"name":"G4","midi":67,"time":8.917968750000002,"velocity":0.7244094488188977,"duration":0.13151041666666607},{"name":"D#3","midi":51,"time":8.917968750000002,"velocity":0.7244094488188977,"duration":0.13151041666666607},{"name":"F4","midi":65,"time":9.072916666666668,"velocity":0.7244094488188977,"duration":0.13151041666666607},{"name":"D3","midi":50,"time":9.072916666666668,"velocity":0.7244094488188977,"duration":0.13151041666666607},{"name":"G4","midi":67,"time":9.227864583333334,"velocity":0.7244094488188977,"duration":0.13151041666666607},{"name":"D#3","midi":51,"time":9.227864583333334,"velocity":0.7244094488188977,"duration":0.13151041666666607},{"name":"D#4","midi":63,"time":9.3828125,"velocity":0.7244094488188977,"duration":0.36458333333333215},{"name":"G3","midi":55,"time":9.3828125,"velocity":0.7244094488188977,"duration":0.36458333333333215},{"name":"G4","midi":67,"time":9.537760416666666,"velocity":0.7244094488188977,"duration":0.13151041666666607},{"name":"D#3","midi":51,"time":9.537760416666666,"velocity":0.7244094488188977,"duration":0.13151041666666607},{"name":"F4","midi":65,"time":9.692708333333332,"velocity":0.7244094488188977,"duration":0.13151041666666607},{"name":"D3","midi":50,"time":9.692708333333332,"velocity":0.7244094488188977,"duration":0.13151041666666607},{"name":"G4","midi":67,"time":9.847656249999998,"velocity":0.7244094488188977,"duration":0.13151041666666607},{"name":"D#3","midi":51,"time":9.847656249999998,"velocity":0.7244094488188977,"duration":0.13151041666666607},{"name":"D#5","midi":75,"time":10.002604166666664,"velocity":0.7244094488188977,"duration":1.2265624999999947},{"name":"C3","midi":48,"time":10.002604166666664,"velocity":0.7244094488188977,"duration":1.2265624999999947},{"name":"G#4","midi":68,"time":10.15755208333333,"velocity":0.7244094488188977,"duration":0.13151041666666607},{"name":"C4","midi":60,"time":10.15755208333333,"velocity":0.7244094488188977,"duration":0.13151041666666607},{"name":"G4","midi":67,"time":10.312499999999996,"velocity":0.7244094488188977,"duration":0.13151041666666607},{"name":"A#3","midi":58,"time":10.312499999999996,"velocity":0.7244094488188977,"duration":0.13151041666666607},{"name":"G#4","midi":68,"time":10.467447916666663,"velocity":0.7244094488188977,"duration":0.13151041666666607},{"name":"C4","midi":60,"time":10.467447916666663,"velocity":0.7244094488188977,"duration":0.13151041666666607},{"name":"D#4","midi":63,"time":10.622395833333329,"velocity":0.7244094488188977,"duration":0.5937499999999982},{"name":"G#3","midi":56,"time":10.622395833333329,"velocity":0.7244094488188977,"duration":0.5937499999999982},{"name":"G#4","midi":68,"time":10.777343749999995,"velocity":0.7244094488188977,"duration":0.13151041666666607},{"name":"C4","midi":60,"time":10.777343749999995,"velocity":0.7244094488188977,"duration":0.13151041666666607},{"name":"G4","midi":67,"time":10.93229166666666,"velocity":0.7244094488188977,"duration":0.13151041666666607},{"name":"A#3","midi":58,"time":10.93229166666666,"velocity":0.7244094488188977,"duration":0.13151041666666607},{"name":"G#4","midi":68,"time":11.087239583333327,"velocity":0.7244094488188977,"duration":0.13151041666666607},{"name":"C4","midi":60,"time":11.087239583333327,"velocity":0.7244094488188977,"duration":0.13151041666666607},{"name":"D#5","midi":75,"time":11.242187499999993,"velocity":0.7244094488188977,"duration":1.2265624999999964},{"name":"C3","midi":48,"time":11.242187499999993,"velocity":0.7244094488188977,"duration":1.2265624999999964},{"name":"G#4","midi":68,"time":11.397135416666659,"velocity":0.7244094488188977,"duration":0.13151041666666607},{"name":"C4","midi":60,"time":11.397135416666659,"velocity":0.7244094488188977,"duration":0.13151041666666607},{"name":"G4","midi":67,"time":11.552083333333325,"velocity":0.7244094488188977,"duration":0.13151041666666607},{"name":"A#3","midi":58,"time":11.552083333333325,"velocity":0.7244094488188977,"duration":0.13151041666666607},{"name":"G#4","midi":68,"time":11.708333333333325,"velocity":0.7244094488188977,"duration":0.13151041666666607},{"name":"C4","midi":60,"time":11.708333333333325,"velocity":0.7244094488188977,"duration":0.13151041666666607},{"name":"D#4","midi":63,"time":11.863281249999991,"velocity":0.7244094488188977,"duration":0.5937499999999982},{"name":"G#3","midi":56,"time":11.863281249999991,"velocity":0.7244094488188977,"duration":0.5937499999999982},{"name":"G#4","midi":68,"time":12.018229166666657,"velocity":0.7244094488188977,"duration":0.13151041666666607},{"name":"C4","midi":60,"time":12.018229166666657,"velocity":0.7244094488188977,"duration":0.13151041666666607},{"name":"G4","midi":67,"time":12.173177083333323,"velocity":0.7244094488188977,"duration":0.13151041666666607},{"name":"A#3","midi":58,"time":12.173177083333323,"velocity":0.7244094488188977,"duration":0.13151041666666607},{"name":"G#4","midi":68,"time":12.32812499999999,"velocity":0.7244094488188977,"duration":0.13151041666666607},{"name":"C4","midi":60,"time":12.32812499999999,"velocity":0.7244094488188977,"duration":0.13151041666666607},{"name":"D5","midi":74,"time":12.483072916666655,"velocity":0.7244094488188977,"duration":1.2265624999999947},{"name":"C3","midi":48,"time":12.483072916666655,"velocity":0.7244094488188977,"duration":1.2265624999999947},{"name":"F#4","midi":66,"time":12.638020833333321,"velocity":0.7244094488188977,"duration":0.13151041666666607},{"name":"A3","midi":57,"time":12.638020833333321,"velocity":0.7244094488188977,"duration":0.13151041666666607},{"name":"E4","midi":64,"time":12.792968749999988,"velocity":0.7244094488188977,"duration":0.13151041666666607},{"name":"G3","midi":55,"time":12.792968749999988,"velocity":0.7244094488188977,"duration":0.13151041666666607},{"name":"F#4","midi":66,"time":12.947916666666654,"velocity":0.7244094488188977,"duration":0.13151041666666607},{"name":"A3","midi":57,"time":12.947916666666654,"velocity":0.7244094488188977,"duration":0.13151041666666607},{"name":"D4","midi":62,"time":13.10286458333332,"velocity":0.7244094488188977,"duration":0.5937499999999982},{"name":"F#3","midi":54,"time":13.10286458333332,"velocity":0.7244094488188977,"duration":0.5937499999999982},{"name":"F#4","midi":66,"time":13.257812499999986,"velocity":0.7244094488188977,"duration":0.13151041666666607},{"name":"A3","midi":57,"time":13.257812499999986,"velocity":0.7244094488188977,"duration":0.13151041666666607},{"name":"E4","midi":64,"time":13.412760416666652,"velocity":0.7244094488188977,"duration":0.13151041666666607},{"name":"G3","midi":55,"time":13.412760416666652,"velocity":0.7244094488188977,"duration":0.13151041666666607},{"name":"F#4","midi":66,"time":13.567708333333318,"velocity":0.7244094488188977,"duration":0.13151041666666607},{"name":"A3","midi":57,"time":13.567708333333318,"velocity":0.7244094488188977,"duration":0.13151041666666607},{"name":"D5","midi":74,"time":13.722656249999984,"velocity":0.7244094488188977,"duration":1.2265624999999947},{"name":"C3","midi":48,"time":13.722656249999984,"velocity":0.7244094488188977,"duration":1.2265624999999947},{"name":"F#4","midi":66,"time":13.87760416666665,"velocity":0.7244094488188977,"duration":0.13151041666666607},{"name":"A3","midi":57,"time":13.87760416666665,"velocity":0.7244094488188977,"duration":0.13151041666666607},{"name":"E4","midi":64,"time":14.032552083333316,"velocity":0.7244094488188977,"duration":0.13151041666666607},{"name":"G3","midi":55,"time":14.032552083333316,"velocity":0.7244094488188977,"duration":0.13151041666666607},{"name":"F#4","midi":66,"time":14.187499999999982,"velocity":0.7244094488188977,"duration":0.13151041666666607},{"name":"A3","midi":57,"time":14.187499999999982,"velocity":0.7244094488188977,"duration":0.13151041666666607},{"name":"D4","midi":62,"time":14.342447916666648,"velocity":0.7244094488188977,"duration":0.5937499999999982},{"name":"F#3","midi":54,"time":14.342447916666648,"velocity":0.7244094488188977,"duration":0.5937499999999982},{"name":"F#4","midi":66,"time":14.497395833333314,"velocity":0.7244094488188977,"duration":0.13151041666666607},{"name":"A3","midi":57,"time":14.497395833333314,"velocity":0.7244094488188977,"duration":0.13151041666666607},{"name":"E4","midi":64,"time":14.65234374999998,"velocity":0.7244094488188977,"duration":0.13151041666666607},{"name":"G3","midi":55,"time":14.65234374999998,"velocity":0.7244094488188977,"duration":0.13151041666666607},{"name":"F#4","midi":66,"time":14.807291666666647,"velocity":0.7244094488188977,"duration":0.13151041666666607},{"name":"A3","midi":57,"time":14.807291666666647,"velocity":0.7244094488188977,"duration":0.13151041666666607},{"name":"D5","midi":74,"time":14.962239583333313,"velocity":0.7244094488188977,"duration":1.2265624999999982},{"name":"A#2","midi":46,"time":14.962239583333313,"velocity":0.7244094488188977,"duration":1.2265624999999982},{"name":"G4","midi":67,"time":15.117187499999979,"velocity":0.7244094488188977,"duration":0.13151041666666607},{"name":"A#3","midi":58,"time":15.117187499999979,"velocity":0.7244094488188977,"duration":0.13151041666666607},{"name":"F#4","midi":66,"time":15.272135416666645,"velocity":0.7244094488188977,"duration":0.13151041666666607},{"name":"A3","midi":57,"time":15.272135416666645,"velocity":0.7244094488188977,"duration":0.13151041666666607},{"name":"G4","midi":67,"time":15.42708333333331,"velocity":0.7244094488188977,"duration":0.13151041666666607},{"name":"A#3","midi":58,"time":15.42708333333331,"velocity":0.7244094488188977,"duration":0.13151041666666607},{"name":"D4","midi":62,"time":15.58333333333331,"velocity":0.7244094488188977,"duration":0.59375},{"name":"G3","midi":55,"time":15.58333333333331,"velocity":0.7244094488188977,"duration":0.59375},{"name":"G4","midi":67,"time":15.738281249999977,"velocity":0.7244094488188977,"duration":0.13151041666666607},{"name":"A#3","midi":58,"time":15.738281249999977,"velocity":0.7244094488188977,"duration":0.13151041666666607},{"name":"F#4","midi":66,"time":15.893229166666643,"velocity":0.7244094488188977,"duration":0.13151041666666785},{"name":"A3","midi":57,"time":15.893229166666643,"velocity":0.7244094488188977,"duration":0.13151041666666785},{"name":"G4","midi":67,"time":16.04817708333331,"velocity":0.7244094488188977,"duration":0.13151041666666785},{"name":"A#3","midi":58,"time":16.04817708333331,"velocity":0.7244094488188977,"duration":0.13151041666666785},{"name":"D5","midi":74,"time":16.20312499999998,"velocity":0.7244094488188977,"duration":1.2265625000000107},{"name":"A#2","midi":46,"time":16.20312499999998,"velocity":0.7244094488188977,"duration":1.2265625000000107},{"name":"G4","midi":67,"time":16.358072916666647,"velocity":0.7244094488188977,"duration":0.13151041666666785},{"name":"A#3","midi":58,"time":16.358072916666647,"velocity":0.7244094488188977,"duration":0.13151041666666785},{"name":"F#4","midi":66,"time":16.513020833333314,"velocity":0.7244094488188977,"duration":0.13151041666666785},{"name":"A3","midi":57,"time":16.513020833333314,"velocity":0.7244094488188977,"duration":0.13151041666666785},{"name":"G4","midi":67,"time":16.667968749999982,"velocity":0.7244094488188977,"duration":0.13151041666666785},{"name":"A#3","midi":58,"time":16.667968749999982,"velocity":0.7244094488188977,"duration":0.13151041666666785},{"name":"D4","midi":62,"time":16.82291666666665,"velocity":0.7244094488188977,"duration":0.5937500000000036},{"name":"G3","midi":55,"time":16.82291666666665,"velocity":0.7244094488188977,"duration":0.5937500000000036},{"name":"G4","midi":67,"time":16.977864583333318,"velocity":0.7244094488188977,"duration":0.13151041666666785},{"name":"A#3","midi":58,"time":16.977864583333318,"velocity":0.7244094488188977,"duration":0.13151041666666785},{"name":"F#4","midi":66,"time":17.132812499999986,"velocity":0.7244094488188977,"duration":0.13151041666666785},{"name":"A3","midi":57,"time":17.132812499999986,"velocity":0.7244094488188977,"duration":0.13151041666666785},{"name":"G4","midi":67,"time":17.287760416666654,"velocity":0.7244094488188977,"duration":0.13151041666666785},{"name":"A#3","midi":58,"time":17.287760416666654,"velocity":0.7244094488188977,"duration":0.13151041666666785},{"name":"C5","midi":72,"time":17.44270833333332,"velocity":0.7244094488188977,"duration":1.2265625000000107},{"name":"A#2","midi":46,"time":17.44270833333332,"velocity":0.7244094488188977,"duration":1.2265625000000107},{"name":"E4","midi":64,"time":17.59765624999999,"velocity":0.7244094488188977,"duration":0.13151041666666785},{"name":"G3","midi":55,"time":17.59765624999999,"velocity":0.7244094488188977,"duration":0.13151041666666785},{"name":"D4","midi":62,"time":17.752604166666657,"velocity":0.7244094488188977,"duration":0.13151041666666785},{"name":"F3","midi":53,"time":17.752604166666657,"velocity":0.7244094488188977,"duration":0.13151041666666785},{"name":"E4","midi":64,"time":17.907552083333325,"velocity":0.7244094488188977,"duration":0.13151041666666785},{"name":"G3","midi":55,"time":17.907552083333325,"velocity":0.7244094488188977,"duration":0.13151041666666785},{"name":"C4","midi":60,"time":18.062499999999993,"velocity":0.7244094488188977,"duration":0.5937500000000036},{"name":"E3","midi":52,"time":18.062499999999993,"velocity":0.7244094488188977,"duration":0.5937500000000036},{"name":"E4","midi":64,"time":18.21744791666666,"velocity":0.7244094488188977,"duration":0.13151041666666785},{"name":"G3","midi":55,"time":18.21744791666666,"velocity":0.7244094488188977,"duration":0.13151041666666785},{"name":"D4","midi":62,"time":18.37239583333333,"velocity":0.7244094488188977,"duration":0.13151041666666785},{"name":"F3","midi":53,"time":18.37239583333333,"velocity":0.7244094488188977,"duration":0.13151041666666785},{"name":"E4","midi":64,"time":18.527343749999996,"velocity":0.7244094488188977,"duration":0.13151041666666785},{"name":"G3","midi":55,"time":18.527343749999996,"velocity":0.7244094488188977,"duration":0.13151041666666785},{"name":"C5","midi":72,"time":18.682291666666664,"velocity":0.7244094488188977,"duration":1.226562500000007},{"name":"A#2","midi":46,"time":18.682291666666664,"velocity":0.7244094488188977,"duration":1.226562500000007},{"name":"E4","midi":64,"time":18.837239583333332,"velocity":0.7244094488188977,"duration":0.13151041666666785},{"name":"G3","midi":55,"time":18.837239583333332,"velocity":0.7244094488188977,"duration":0.13151041666666785},{"name":"D4","midi":62,"time":18.9921875,"velocity":0.7244094488188977,"duration":0.13151041666666785},{"name":"F3","midi":53,"time":18.9921875,"velocity":0.7244094488188977,"duration":0.13151041666666785},{"name":"E4","midi":64,"time":19.147135416666668,"velocity":0.7244094488188977,"duration":0.13151041666666785},{"name":"G3","midi":55,"time":19.147135416666668,"velocity":0.7244094488188977,"duration":0.13151041666666785},{"name":"C4","midi":60,"time":19.302083333333336,"velocity":0.7244094488188977,"duration":0.5937500000000036},{"name":"E3","midi":52,"time":19.302083333333336,"velocity":0.7244094488188977,"duration":0.5937500000000036},{"name":"E4","midi":64,"time":19.458333333333336,"velocity":0.7244094488188977,"duration":0.13151041666666785},{"name":"G3","midi":55,"time":19.458333333333336,"velocity":0.7244094488188977,"duration":0.13151041666666785},{"name":"D4","midi":62,"time":19.613281250000004,"velocity":0.7244094488188977,"duration":0.13151041666666785},{"name":"F3","midi":53,"time":19.613281250000004,"velocity":0.7244094488188977,"duration":0.13151041666666785},{"name":"E4","midi":64,"time":19.76822916666667,"velocity":0.7244094488188977,"duration":0.13151041666666785},{"name":"G3","midi":55,"time":19.76822916666667,"velocity":0.7244094488188977,"duration":0.13151041666666785},{"name":"C5","midi":72,"time":19.92317708333334,"velocity":0.7244094488188977,"duration":1.2265625000000107},{"name":"G#2","midi":44,"time":19.92317708333334,"velocity":0.7244094488188977,"duration":1.2265625000000107},{"name":"F4","midi":65,"time":20.078125000000007,"velocity":0.7244094488188977,"duration":0.13151041666666785},{"name":"G#3","midi":56,"time":20.078125000000007,"velocity":0.7244094488188977,"duration":0.13151041666666785},{"name":"E4","midi":64,"time":20.233072916666675,"velocity":0.7244094488188977,"duration":0.13151041666666785},{"name":"G3","midi":55,"time":20.233072916666675,"velocity":0.7244094488188977,"duration":0.13151041666666785},{"name":"F4","midi":65,"time":20.388020833333343,"velocity":0.7244094488188977,"duration":0.13151041666666785},{"name":"G#3","midi":56,"time":20.388020833333343,"velocity":0.7244094488188977,"duration":0.13151041666666785},{"name":"C4","midi":60,"time":20.54296875000001,"velocity":0.7244094488188977,"duration":0.5937500000000036},{"name":"F3","midi":53,"time":20.54296875000001,"velocity":0.7244094488188977,"duration":0.5937500000000036},{"name":"F4","midi":65,"time":20.69791666666668,"velocity":0.7244094488188977,"duration":0.13151041666666785},{"name":"G#3","midi":56,"time":20.69791666666668,"velocity":0.7244094488188977,"duration":0.13151041666666785},{"name":"E4","midi":64,"time":20.852864583333346,"velocity":0.7244094488188977,"duration":0.13151041666666785},{"name":"G3","midi":55,"time":20.852864583333346,"velocity":0.7244094488188977,"duration":0.13151041666666785},{"name":"F4","midi":65,"time":21.007812500000014,"velocity":0.7244094488188977,"duration":0.13151041666666785},{"name":"G#3","midi":56,"time":21.007812500000014,"velocity":0.7244094488188977,"duration":0.13151041666666785},{"name":"C5","midi":72,"time":21.162760416666682,"velocity":0.7244094488188977,"duration":1.2265625000000107},{"name":"G#2","midi":44,"time":21.162760416666682,"velocity":0.7244094488188977,"duration":1.2265625000000107},{"name":"F4","midi":65,"time":21.31770833333335,"velocity":0.7244094488188977,"duration":0.13151041666666785},{"name":"G#3","midi":56,"time":21.31770833333335,"velocity":0.7244094488188977,"duration":0.13151041666666785},{"name":"E4","midi":64,"time":21.472656250000018,"velocity":0.7244094488188977,"duration":0.13151041666666785},{"name":"G3","midi":55,"time":21.472656250000018,"velocity":0.7244094488188977,"duration":0.13151041666666785},{"name":"F4","midi":65,"time":21.627604166666686,"velocity":0.7244094488188977,"duration":0.13151041666666785},{"name":"G#3","midi":56,"time":21.627604166666686,"velocity":0.7244094488188977,"duration":0.13151041666666785},{"name":"C4","midi":60,"time":21.782552083333353,"velocity":0.7244094488188977,"duration":0.5937500000000036},{"name":"F3","midi":53,"time":21.782552083333353,"velocity":0.7244094488188977,"duration":0.5937500000000036},{"name":"F4","midi":65,"time":21.93750000000002,"velocity":0.7244094488188977,"duration":0.13151041666666785},{"name":"G#3","midi":56,"time":21.93750000000002,"velocity":0.7244094488188977,"duration":0.13151041666666785},{"name":"E4","midi":64,"time":22.09244791666669,"velocity":0.7244094488188977,"duration":0.13151041666666785},{"name":"G3","midi":55,"time":22.09244791666669,"velocity":0.7244094488188977,"duration":0.13151041666666785},{"name":"F4","midi":65,"time":22.247395833333357,"velocity":0.7244094488188977,"duration":0.13151041666666785},{"name":"G#3","midi":56,"time":22.247395833333357,"velocity":0.7244094488188977,"duration":0.13151041666666785},{"name":"A#4","midi":70,"time":22.402343750000025,"velocity":0.7244094488188977,"duration":1.226562500000007},{"name":"G#2","midi":44,"time":22.402343750000025,"velocity":0.7244094488188977,"duration":1.226562500000007},{"name":"F4","midi":65,"time":22.557291666666693,"velocity":0.7244094488188977,"duration":0.13151041666666785},{"name":"D3","midi":50,"time":22.557291666666693,"velocity":0.7244094488188977,"duration":0.13151041666666785},{"name":"D#4","midi":63,"time":22.71223958333336,"velocity":0.7244094488188977,"duration":0.13151041666666785},{"name":"C3","midi":48,"time":22.71223958333336,"velocity":0.7244094488188977,"duration":0.13151041666666785},{"name":"F4","midi":65,"time":22.86718750000003,"velocity":0.7244094488188977,"duration":0.13151041666666785},{"name":"D3","midi":50,"time":22.86718750000003,"velocity":0.7244094488188977,"duration":0.13151041666666785},{"name":"D4","midi":62,"time":23.022135416666696,"velocity":0.7244094488188977,"duration":0.5937500000000036},{"name":"F3","midi":53,"time":23.022135416666696,"velocity":0.7244094488188977,"duration":0.5937500000000036},{"name":"F4","midi":65,"time":23.177083333333364,"velocity":0.7244094488188977,"duration":0.13151041666666785},{"name":"D3","midi":50,"time":23.177083333333364,"velocity":0.7244094488188977,"duration":0.13151041666666785},{"name":"D#4","midi":63,"time":23.333333333333364,"velocity":0.7244094488188977,"duration":0.13151041666666785},{"name":"C3","midi":48,"time":23.333333333333364,"velocity":0.7244094488188977,"duration":0.13151041666666785},{"name":"F4","midi":65,"time":23.488281250000032,"velocity":0.7244094488188977,"duration":0.13151041666666785},{"name":"D3","midi":50,"time":23.488281250000032,"velocity":0.7244094488188977,"duration":0.13151041666666785},{"name":"A#4","midi":70,"time":23.6432291666667,"velocity":0.7244094488188977,"duration":1.2265625000000107},{"name":"G#2","midi":44,"time":23.6432291666667,"velocity":0.7244094488188977,"duration":1.2265625000000107},{"name":"F4","midi":65,"time":23.798177083333368,"velocity":0.7244094488188977,"duration":0.13151041666666785},{"name":"D3","midi":50,"time":23.798177083333368,"velocity":0.7244094488188977,"duration":0.13151041666666785},{"name":"D#4","midi":63,"time":23.953125000000036,"velocity":0.7244094488188977,"duration":0.13151041666666785},{"name":"C3","midi":48,"time":23.953125000000036,"velocity":0.7244094488188977,"duration":0.13151041666666785},{"name":"F4","midi":65,"time":24.108072916666703,"velocity":0.7244094488188977,"duration":0.13151041666666785},{"name":"D3","midi":50,"time":24.108072916666703,"velocity":0.7244094488188977,"duration":0.13151041666666785},{"name":"D4","midi":62,"time":24.26302083333337,"velocity":0.7244094488188977,"duration":0.5937500000000036},{"name":"F3","midi":53,"time":24.26302083333337,"velocity":0.7244094488188977,"duration":0.5937500000000036},{"name":"F4","midi":65,"time":24.41796875000004,"velocity":0.7244094488188977,"duration":0.13151041666666785},{"name":"D3","midi":50,"time":24.41796875000004,"velocity":0.7244094488188977,"duration":0.13151041666666785},{"name":"D#4","midi":63,"time":24.572916666666707,"velocity":0.7244094488188977,"duration":0.13151041666666785},{"name":"C3","midi":48,"time":24.572916666666707,"velocity":0.7244094488188977,"duration":0.13151041666666785},{"name":"F4","midi":65,"time":24.727864583333375,"velocity":0.7244094488188977,"duration":0.13151041666666785},{"name":"D3","midi":50,"time":24.727864583333375,"velocity":0.7244094488188977,"duration":0.13151041666666785},{"name":"A#4","midi":70,"time":24.882812500000043,"velocity":0.7244094488188977,"duration":1.2265625000000107},{"name":"G2","midi":43,"time":24.882812500000043,"velocity":0.7244094488188977,"duration":1.2265625000000107},{"name":"G4","midi":67,"time":25.03776041666671,"velocity":0.7244094488188977,"duration":0.13151041666666785},{"name":"D#3","midi":51,"time":25.03776041666671,"velocity":0.7244094488188977,"duration":0.13151041666666785},{"name":"F4","midi":65,"time":25.19270833333338,"velocity":0.7244094488188977,"duration":0.13151041666666785},{"name":"D3","midi":50,"time":25.19270833333338,"velocity":0.7244094488188977,"duration":0.13151041666666785},{"name":"G4","midi":67,"time":25.347656250000046,"velocity":0.7244094488188977,"duration":0.13151041666666785},{"name":"D#3","midi":51,"time":25.347656250000046,"velocity":0.7244094488188977,"duration":0.13151041666666785},{"name":"D#4","midi":63,"time":25.502604166666714,"velocity":0.7244094488188977,"duration":0.5937500000000036},{"name":"G3","midi":55,"time":25.502604166666714,"velocity":0.7244094488188977,"duration":0.5937500000000036},{"name":"G4","midi":67,"time":25.657552083333382,"velocity":0.7244094488188977,"duration":0.13151041666666785},{"name":"D#3","midi":51,"time":25.657552083333382,"velocity":0.7244094488188977,"duration":0.13151041666666785},{"name":"F4","midi":65,"time":25.81250000000005,"velocity":0.7244094488188977,"duration":0.13151041666666785},{"name":"D3","midi":50,"time":25.81250000000005,"velocity":0.7244094488188977,"duration":0.13151041666666785},{"name":"G4","midi":67,"time":25.967447916666718,"velocity":0.7244094488188977,"duration":0.13151041666666785},{"name":"D#3","midi":51,"time":25.967447916666718,"velocity":0.7244094488188977,"duration":0.13151041666666785},{"name":"A#4","midi":70,"time":26.122395833333385,"velocity":0.7244094488188977,"duration":1.226562500000007},{"name":"G2","midi":43,"time":26.122395833333385,"velocity":0.7244094488188977,"duration":1.226562500000007},{"name":"G4","midi":67,"time":26.277343750000053,"velocity":0.7244094488188977,"duration":0.13151041666666785},{"name":"D#3","midi":51,"time":26.277343750000053,"velocity":0.7244094488188977,"duration":0.13151041666666785},{"name":"F4","midi":65,"time":26.43229166666672,"velocity":0.7244094488188977,"duration":0.13151041666666785},{"name":"D3","midi":50,"time":26.43229166666672,"velocity":0.7244094488188977,"duration":0.13151041666666785},{"name":"G4","midi":67,"time":26.58723958333339,"velocity":0.7244094488188977,"duration":0.13151041666666785},{"name":"D#3","midi":51,"time":26.58723958333339,"velocity":0.7244094488188977,"duration":0.13151041666666785},{"name":"D#4","midi":63,"time":26.742187500000057,"velocity":0.7244094488188977,"duration":0.5937500000000036},{"name":"G3","midi":55,"time":26.742187500000057,"velocity":0.7244094488188977,"duration":0.5937500000000036},{"name":"G4","midi":67,"time":26.897135416666725,"velocity":0.7244094488188977,"duration":0.13151041666666785},{"name":"D#3","midi":51,"time":26.897135416666725,"velocity":0.7244094488188977,"duration":0.13151041666666785},{"name":"F4","midi":65,"time":27.052083333333393,"velocity":0.7244094488188977,"duration":0.13151041666666785},{"name":"D3","midi":50,"time":27.052083333333393,"velocity":0.7244094488188977,"duration":0.13151041666666785},{"name":"G4","midi":67,"time":27.208333333333393,"velocity":0.7244094488188977,"duration":0.13151041666666785},{"name":"D#3","midi":51,"time":27.208333333333393,"velocity":0.7244094488188977,"duration":0.13151041666666785},{"name":"G#4","midi":68,"time":27.36328125000006,"velocity":0.7244094488188977,"duration":1.2265625000000036},{"name":"C3","midi":48,"time":27.36328125000006,"velocity":0.7244094488188977,"duration":1.2265625000000036},{"name":"G4","midi":67,"time":27.51822916666673,"velocity":0.7244094488188977,"duration":0.13151041666666785},{"name":"D#3","midi":51,"time":27.51822916666673,"velocity":0.7244094488188977,"duration":0.13151041666666785},{"name":"F4","midi":65,"time":27.673177083333396,"velocity":0.7244094488188977,"duration":0.13151041666666785},{"name":"D3","midi":50,"time":27.673177083333396,"velocity":0.7244094488188977,"duration":0.13151041666666785},{"name":"G4","midi":67,"time":27.828125000000064,"velocity":0.7244094488188977,"duration":0.13151041666666785},{"name":"D#3","midi":51,"time":27.828125000000064,"velocity":0.7244094488188977,"duration":0.13151041666666785},{"name":"D#4","midi":63,"time":27.983072916666732,"velocity":0.7244094488188977,"duration":0.05208333333333215},{"name":"G#3","midi":56,"time":27.983072916666732,"velocity":0.7244094488188977,"duration":0.5208333333333321},{"name":"G4","midi":67,"time":28.138020833333396,"velocity":0.7244094488188977,"duration":0.13151041666666785},{"name":"D#3","midi":51,"time":28.138020833333396,"velocity":0.7244094488188977,"duration":0.13151041666666785},{"name":"F4","midi":65,"time":28.292968750000064,"velocity":0.7244094488188977,"duration":0.13151041666666785},{"name":"D3","midi":50,"time":28.292968750000064,"velocity":0.7244094488188977,"duration":0.13151041666666785},{"name":"G4","midi":67,"time":28.447916666666732,"velocity":0.7244094488188977,"duration":0.1315104166666643},{"name":"D#3","midi":51,"time":28.447916666666732,"velocity":0.7244094488188977,"duration":0.1315104166666643},{"name":"G#4","midi":68,"time":28.602864583333396,"velocity":0.7244094488188977,"duration":1.2265625000000107},{"name":"C3","midi":48,"time":28.602864583333396,"velocity":0.7244094488188977,"duration":1.2265625000000107},{"name":"G4","midi":67,"time":28.757812500000064,"velocity":0.7244094488188977,"duration":0.13151041666666785},{"name":"D#3","midi":51,"time":28.757812500000064,"velocity":0.7244094488188977,"duration":0.13151041666666785},{"name":"F4","midi":65,"time":28.912760416666732,"velocity":0.7244094488188977,"duration":0.13151041666666785},{"name":"D3","midi":50,"time":28.912760416666732,"velocity":0.7244094488188977,"duration":0.13151041666666785},{"name":"G4","midi":67,"time":29.0677083333334,"velocity":0.7244094488188977,"duration":0.13151041666666785},{"name":"D#3","midi":51,"time":29.0677083333334,"velocity":0.7244094488188977,"duration":0.13151041666666785},{"name":"D#4","midi":63,"time":29.222656250000068,"velocity":0.7244094488188977,"duration":0.4557291666666714},{"name":"G#3","midi":56,"time":29.222656250000068,"velocity":0.7244094488188977,"duration":0.4557291666666714},{"name":"G4","midi":67,"time":29.377604166666735,"velocity":0.7244094488188977,"duration":0.13151041666666785},{"name":"D#3","midi":51,"time":29.377604166666735,"velocity":0.7244094488188977,"duration":0.13151041666666785},{"name":"F4","midi":65,"time":29.532552083333403,"velocity":0.7244094488188977,"duration":0.13151041666666785},{"name":"D3","midi":50,"time":29.532552083333403,"velocity":0.7244094488188977,"duration":0.13151041666666785},{"name":"G4","midi":67,"time":29.68750000000007,"velocity":0.7244094488188977,"duration":0.13151041666666785},{"name":"D#3","midi":51,"time":29.68750000000007,"velocity":0.7244094488188977,"duration":0.13151041666666785},{"name":"G#4","midi":68,"time":29.84244791666674,"velocity":0.7244094488188977,"duration":1.2265625000000107},{"name":"D3","midi":50,"time":29.84244791666674,"velocity":0.7244094488188977,"duration":1.2265625000000107},{"name":"D4","midi":62,"time":29.997395833333407,"velocity":0.7244094488188977,"duration":0.13151041666666785},{"name":"F3","midi":53,"time":29.997395833333407,"velocity":0.7244094488188977,"duration":0.13151041666666785},{"name":"C4","midi":60,"time":30.152343750000075,"velocity":0.7244094488188977,"duration":0.13151041666666785},{"name":"D#3","midi":51,"time":30.152343750000075,"velocity":0.7244094488188977,"duration":0.13151041666666785},{"name":"D4","midi":62,"time":30.307291666666742,"velocity":0.7244094488188977,"duration":0.13151041666666785},{"name":"F3","midi":53,"time":30.307291666666742,"velocity":0.7244094488188977,"duration":0.13151041666666785},{"name":"A#3","midi":58,"time":30.46223958333341,"velocity":0.7244094488188977,"duration":0.4557291666666714},{"name":"G#3","midi":56,"time":30.46223958333341,"velocity":0.7244094488188977,"duration":0.4557291666666714},{"name":"D4","midi":62,"time":30.617187500000078,"velocity":0.7244094488188977,"duration":0.13151041666666785},{"name":"F3","midi":53,"time":30.617187500000078,"velocity":0.7244094488188977,"duration":0.13151041666666785},{"name":"C4","midi":60,"time":30.772135416666746,"velocity":0.7244094488188977,"duration":0.13151041666666785},{"name":"D#3","midi":51,"time":30.772135416666746,"velocity":0.7244094488188977,"duration":0.13151041666666785},{"name":"D4","midi":62,"time":30.927083333333414,"velocity":0.7244094488188977,"duration":0.13151041666666785},{"name":"F3","midi":53,"time":30.927083333333414,"velocity":0.7244094488188977,"duration":0.13151041666666785},{"name":"G#4","midi":68,"time":31.083333333333417,"velocity":0.7244094488188977,"duration":1.2265625000000036},{"name":"D3","midi":50,"time":31.083333333333417,"velocity":0.7244094488188977,"duration":1.2265625000000036},{"name":"D4","midi":62,"time":31.238281250000085,"velocity":0.7244094488188977,"duration":0.13151041666666785},{"name":"F3","midi":53,"time":31.238281250000085,"velocity":0.7244094488188977,"duration":0.13151041666666785},{"name":"C4","midi":60,"time":31.393229166666753,"velocity":0.7244094488188977,"duration":0.13151041666666785},{"name":"D#3","midi":51,"time":31.393229166666753,"velocity":0.7244094488188977,"duration":0.13151041666666785},{"name":"D4","midi":62,"time":31.54817708333342,"velocity":0.7244094488188977,"duration":0.13151041666666785},{"name":"F3","midi":53,"time":31.54817708333342,"velocity":0.7244094488188977,"duration":0.13151041666666785},{"name":"A#3","midi":58,"time":31.70312500000009,"velocity":0.7244094488188977,"duration":0.39062500000000355},{"name":"G#3","midi":56,"time":31.70312500000009,"velocity":0.7244094488188977,"duration":0.39062500000000355},{"name":"D4","midi":62,"time":31.858072916666757,"velocity":0.7244094488188977,"duration":0.13151041666666785},{"name":"F3","midi":53,"time":31.858072916666757,"velocity":0.7244094488188977,"duration":0.13151041666666785},{"name":"C4","midi":60,"time":32.01302083333343,"velocity":0.7244094488188977,"duration":0.1315104166666643},{"name":"D#3","midi":51,"time":32.01302083333343,"velocity":0.7244094488188977,"duration":0.1315104166666643},{"name":"D4","midi":62,"time":32.16796875000009,"velocity":0.7244094488188977,"duration":0.1315104166666643},{"name":"F3","midi":53,"time":32.16796875000009,"velocity":0.7244094488188977,"duration":0.1315104166666643},{"name":"G4","midi":67,"time":32.32291666666676,"velocity":0.7244094488188977,"duration":0.6132812499999929},{"name":"D#3","midi":51,"time":32.32291666666676,"velocity":0.7244094488188977,"duration":1.2265624999999787},{"name":"A#3","midi":58,"time":32.47786458333342,"velocity":0.7244094488188977,"duration":0.1315104166666643},{"name":"G3","midi":55,"time":32.47786458333342,"velocity":0.7244094488188977,"duration":0.1315104166666643},{"name":"G#3","midi":56,"time":32.632812500000085,"velocity":0.7244094488188977,"duration":0.1315104166666643},{"name":"F3","midi":53,"time":32.632812500000085,"velocity":0.7244094488188977,"duration":0.1315104166666643},{"name":"A#3","midi":58,"time":32.78776041666675,"velocity":0.7244094488188977,"duration":0.1315104166666643},{"name":"G3","midi":55,"time":32.78776041666675,"velocity":0.7244094488188977,"duration":0.1315104166666643},{"name":"D#4","midi":63,"time":32.942708333333414,"velocity":0.7244094488188977,"duration":0.6132812499999858},{"name":"G#3","midi":56,"time":32.942708333333414,"velocity":0.7244094488188977,"duration":0.1315104166666643},{"name":"A#3","midi":58,"time":33.09765625000008,"velocity":0.7244094488188977,"duration":0.1315104166666643},{"name":"G3","midi":55,"time":33.09765625000008,"velocity":0.7244094488188977,"duration":0.1315104166666643},{"name":"G#3","midi":56,"time":33.25260416666674,"velocity":0.7244094488188977,"duration":0.1315104166666643},{"name":"F3","midi":53,"time":33.25260416666674,"velocity":0.7244094488188977,"duration":0.1315104166666643},{"name":"A#3","midi":58,"time":33.40755208333341,"velocity":0.7244094488188977,"duration":0.1315104166666643},{"name":"G3","midi":55,"time":33.40755208333341,"velocity":0.7244094488188977,"duration":0.1315104166666643},{"name":"G4","midi":67,"time":33.562500000000064,"velocity":0.7244094488188977,"duration":0.6132812499999929},{"name":"D#3","midi":51,"time":33.562500000000064,"velocity":0.7244094488188977,"duration":1.2265624999999787},{"name":"A#3","midi":58,"time":33.71744791666673,"velocity":0.7244094488188977,"duration":0.1315104166666643},{"name":"G3","midi":55,"time":33.71744791666673,"velocity":0.7244094488188977,"duration":0.1315104166666643},{"name":"G#3","midi":56,"time":33.87239583333339,"velocity":0.7244094488188977,"duration":0.1315104166666643},{"name":"F3","midi":53,"time":33.87239583333339,"velocity":0.7244094488188977,"duration":0.1315104166666643},{"name":"A#3","midi":58,"time":34.02734375000006,"velocity":0.7244094488188977,"duration":0.1315104166666643},{"name":"G3","midi":55,"time":34.02734375000006,"velocity":0.7244094488188977,"duration":0.1315104166666643},{"name":"D#4","midi":63,"time":34.18229166666672,"velocity":0.7244094488188977,"duration":0.6132812499999858},{"name":"G#3","midi":56,"time":34.18229166666672,"velocity":0.7244094488188977,"duration":0.1315104166666643},{"name":"A#3","midi":58,"time":34.337239583333385,"velocity":0.7244094488188977,"duration":0.1315104166666643},{"name":"G3","midi":55,"time":34.337239583333385,"velocity":0.7244094488188977,"duration":0.1315104166666643},{"name":"G#3","midi":56,"time":34.49218750000005,"velocity":0.7244094488188977,"duration":0.1315104166666643},{"name":"F3","midi":53,"time":34.49218750000005,"velocity":0.7244094488188977,"duration":0.1315104166666643},{"name":"A#3","midi":58,"time":34.647135416666714,"velocity":0.7244094488188977,"duration":0.1315104166666643},{"name":"G3","midi":55,"time":34.647135416666714,"velocity":0.7244094488188977,"duration":0.1315104166666643},{"name":"F4","midi":65,"time":34.80208333333337,"velocity":0.7244094488188977,"duration":1.2265624999999858},{"name":"D#3","midi":51,"time":34.80208333333337,"velocity":0.7244094488188977,"duration":1.2265624999999858},{"name":"C4","midi":60,"time":34.95833333333337,"velocity":0.7244094488188977,"duration":0.1315104166666643},{"name":"A3","midi":57,"time":34.95833333333337,"velocity":0.7244094488188977,"duration":0.1315104166666643},{"name":"A#3","midi":58,"time":35.113281250000036,"velocity":0.7244094488188977,"duration":0.1315104166666643},{"name":"G3","midi":55,"time":35.113281250000036,"velocity":0.7244094488188977,"duration":0.1315104166666643},{"name":"C4","midi":60,"time":35.2682291666667,"velocity":0.7244094488188977,"duration":0.1315104166666643},{"name":"A3","midi":57,"time":35.2682291666667,"velocity":0.7244094488188977,"duration":0.1315104166666643},{"name":"A3","midi":57,"time":35.423177083333364,"velocity":0.7244094488188977,"duration":0.1315104166666643},{"name":"F3","midi":53,"time":35.423177083333364,"velocity":0.7244094488188977,"duration":0.5937499999999929},{"name":"C4","midi":60,"time":35.57812500000003,"velocity":0.7244094488188977,"duration":0.1315104166666643},{"name":"A3","midi":57,"time":35.57812500000003,"velocity":0.7244094488188977,"duration":0.1315104166666643},{"name":"A#3","midi":58,"time":35.73307291666669,"velocity":0.7244094488188977,"duration":0.1315104166666643},{"name":"G3","midi":55,"time":35.73307291666669,"velocity":0.7244094488188977,"duration":0.1315104166666643},{"name":"C4","midi":60,"time":35.88802083333336,"velocity":0.7244094488188977,"duration":0.1315104166666643},{"name":"A3","midi":57,"time":35.88802083333336,"velocity":0.7244094488188977,"duration":0.1315104166666643},{"name":"F4","midi":65,"time":36.04296875000002,"velocity":0.7244094488188977,"duration":1.2265624999999787},{"name":"D#3","midi":51,"time":36.04296875000002,"velocity":0.7244094488188977,"duration":1.2265624999999787},{"name":"C4","midi":60,"time":36.197916666666686,"velocity":0.7244094488188977,"duration":0.1315104166666643},{"name":"A3","midi":57,"time":36.197916666666686,"velocity":0.7244094488188977,"duration":0.1315104166666643},{"name":"A#3","midi":58,"time":36.35286458333335,"velocity":0.7244094488188977,"duration":0.1315104166666643},{"name":"G3","midi":55,"time":36.35286458333335,"velocity":0.7244094488188977,"duration":0.1315104166666643},{"name":"C4","midi":60,"time":36.507812500000014,"velocity":0.7244094488188977,"duration":0.1315104166666643},{"name":"A3","midi":57,"time":36.507812500000014,"velocity":0.7244094488188977,"duration":0.1315104166666643},{"name":"A3","midi":57,"time":36.66276041666668,"velocity":0.7244094488188977,"duration":0.1315104166666643},{"name":"F3","midi":53,"time":36.66276041666668,"velocity":0.7244094488188977,"duration":0.5885416666666572},{"name":"C4","midi":60,"time":36.81770833333334,"velocity":0.7244094488188977,"duration":0.1315104166666643},{"name":"A3","midi":57,"time":36.81770833333334,"velocity":0.7244094488188977,"duration":0.1315104166666643},{"name":"A#3","midi":58,"time":36.97265625000001,"velocity":0.7244094488188977,"duration":0.1315104166666643},{"name":"G3","midi":55,"time":36.97265625000001,"velocity":0.7244094488188977,"duration":0.1315104166666643},{"name":"C4","midi":60,"time":37.12760416666667,"velocity":0.7244094488188977,"duration":0.1315104166666643},{"name":"A3","midi":57,"time":37.12760416666667,"velocity":0.7244094488188977,"duration":0.1315104166666643},{"name":"F4","midi":65,"time":37.282552083333336,"velocity":0.7244094488188977,"duration":1.2265624999999787},{"name":"D3","midi":50,"time":37.282552083333336,"velocity":0.7244094488188977,"duration":1.2265624999999787},{"name":"D4","midi":62,"time":37.4375,"velocity":0.7244094488188977,"duration":0.1315104166666643},{"name":"F3","midi":53,"time":37.4375,"velocity":0.7244094488188977,"duration":0.1315104166666643},{"name":"C4","midi":60,"time":37.592447916666664,"velocity":0.7244094488188977,"duration":0.1315104166666643},{"name":"D#3","midi":51,"time":37.592447916666664,"velocity":0.7244094488188977,"duration":0.1315104166666643},{"name":"D4","midi":62,"time":37.74739583333333,"velocity":0.7244094488188977,"duration":0.1315104166666643},{"name":"F3","midi":53,"time":37.74739583333333,"velocity":0.7244094488188977,"duration":0.1315104166666643},{"name":"B3","midi":59,"time":37.90234374999999,"velocity":0.7244094488188977,"duration":0.7161458333333215},{"name":"G#3","midi":56,"time":37.90234374999999,"velocity":0.7244094488188977,"duration":0.3059895833333286},{"name":"D4","midi":62,"time":38.05729166666666,"velocity":0.7244094488188977,"duration":0.1315104166666643},{"name":"F3","midi":53,"time":38.05729166666666,"velocity":0.7244094488188977,"duration":0.1315104166666643},{"name":"C4","midi":60,"time":38.21223958333332,"velocity":0.7244094488188977,"duration":0.1315104166666643},{"name":"D#3","midi":51,"time":38.21223958333332,"velocity":0.7244094488188977,"duration":0.1315104166666643},{"name":"D4","midi":62,"time":38.367187499999986,"velocity":0.7244094488188977,"duration":0.1315104166666643},{"name":"F3","midi":53,"time":38.367187499999986,"velocity":0.7244094488188977,"duration":0.1315104166666643},{"name":"F4","midi":65,"time":38.52213541666665,"velocity":0.7244094488188977,"duration":1.2265624999999858},{"name":"D3","midi":50,"time":38.52213541666665,"velocity":0.7244094488188977,"duration":1.2265624999999858},{"name":"D4","midi":62,"time":38.677083333333314,"velocity":0.7244094488188977,"duration":0.1315104166666643},{"name":"F3","midi":53,"time":38.677083333333314,"velocity":0.7244094488188977,"duration":0.1315104166666643},{"name":"C4","midi":60,"time":38.833333333333314,"velocity":0.7244094488188977,"duration":0.1315104166666643},{"name":"D#3","midi":51,"time":38.833333333333314,"velocity":0.7244094488188977,"duration":0.1315104166666643},{"name":"D4","midi":62,"time":38.98828124999998,"velocity":0.7244094488188977,"duration":0.1315104166666643},{"name":"F3","midi":53,"time":38.98828124999998,"velocity":0.7244094488188977,"duration":0.1315104166666643},{"name":"B3","midi":59,"time":39.14322916666664,"velocity":0.7244094488188977,"duration":0.5859374999999929},{"name":"G#3","midi":56,"time":39.14322916666664,"velocity":0.7244094488188977,"duration":0.3059895833333286},{"name":"D4","midi":62,"time":39.29817708333331,"velocity":0.7244094488188977,"duration":0.1315104166666643},{"name":"F3","midi":53,"time":39.29817708333331,"velocity":0.7244094488188977,"duration":0.1315104166666643},{"name":"C4","midi":60,"time":39.45312499999997,"velocity":0.7244094488188977,"duration":0.1315104166666643},{"name":"D#3","midi":51,"time":39.45312499999997,"velocity":0.7244094488188977,"duration":0.1315104166666643},{"name":"D4","midi":62,"time":39.608072916666636,"velocity":0.7244094488188977,"duration":0.1315104166666643},{"name":"F3","midi":53,"time":39.608072916666636,"velocity":0.7244094488188977,"duration":0.1315104166666643},{"name":"F4","midi":65,"time":39.7630208333333,"velocity":0.7244094488188977,"duration":1.2265624999999787},{"name":"C3","midi":48,"time":39.7630208333333,"velocity":0.7244094488188977,"duration":1.2265624999999787},{"name":"D4","midi":62,"time":39.917968749999964,"velocity":0.7244094488188977,"duration":0.1315104166666643},{"name":"F3","midi":53,"time":39.917968749999964,"velocity":0.7244094488188977,"duration":0.1315104166666643},{"name":"C4","midi":60,"time":40.07291666666663,"velocity":0.7244094488188977,"duration":0.1315104166666643},{"name":"E3","midi":52,"time":40.07291666666663,"velocity":0.7244094488188977,"duration":0.1315104166666643},{"name":"D4","midi":62,"time":40.22786458333329,"velocity":0.7244094488188977,"duration":0.1315104166666643},{"name":"F3","midi":53,"time":40.22786458333329,"velocity":0.7244094488188977,"duration":0.1315104166666643},{"name":"B3","midi":59,"time":40.38281249999996,"velocity":0.7244094488188977,"duration":0.3645833333333286},{"name":"G#3","midi":56,"time":40.38281249999996,"velocity":0.7244094488188977,"duration":0.5937499999999929},{"name":"D4","midi":62,"time":40.53776041666662,"velocity":0.7244094488188977,"duration":0.1315104166666643},{"name":"F3","midi":53,"time":40.53776041666662,"velocity":0.7244094488188977,"duration":0.1315104166666643},{"name":"C4","midi":60,"time":40.692708333333286,"velocity":0.7244094488188977,"duration":0.1315104166666643},{"name":"E3","midi":52,"time":40.692708333333286,"velocity":0.7244094488188977,"duration":0.1315104166666643},{"name":"D4","midi":62,"time":40.84765624999995,"velocity":0.7244094488188977,"duration":0.1315104166666643},{"name":"F3","midi":53,"time":40.84765624999995,"velocity":0.7244094488188977,"duration":0.1315104166666643},{"name":"F4","midi":65,"time":41.002604166666615,"velocity":0.7244094488188977,"duration":1.2265624999999787},{"name":"C3","midi":48,"time":41.002604166666615,"velocity":0.7244094488188977,"duration":1.2265624999999787},{"name":"D4","midi":62,"time":41.15755208333328,"velocity":0.7244094488188977,"duration":0.1315104166666643},{"name":"F3","midi":53,"time":41.15755208333328,"velocity":0.7244094488188977,"duration":0.1315104166666643},{"name":"C4","midi":60,"time":41.31249999999994,"velocity":0.7244094488188977,"duration":0.1315104166666643},{"name":"E3","midi":52,"time":41.31249999999994,"velocity":0.7244094488188977,"duration":0.1315104166666643},{"name":"D4","midi":62,"time":41.46744791666661,"velocity":0.7244094488188977,"duration":0.1315104166666643},{"name":"F3","midi":53,"time":41.46744791666661,"velocity":0.7244094488188977,"duration":0.1315104166666643},{"name":"B3","midi":59,"time":41.62239583333327,"velocity":0.7244094488188977,"duration":0.1315104166666643},{"name":"G#3","midi":56,"time":41.62239583333327,"velocity":0.7244094488188977,"duration":0.3645833333333286},{"name":"D4","midi":62,"time":41.777343749999936,"velocity":0.7244094488188977,"duration":0.1315104166666643},{"name":"F3","midi":53,"time":41.777343749999936,"velocity":0.7244094488188977,"duration":0.1315104166666643},{"name":"C4","midi":60,"time":41.9322916666666,"velocity":0.7244094488188977,"duration":0.1315104166666643},{"name":"E3","midi":52,"time":41.9322916666666,"velocity":0.7244094488188977,"duration":0.1315104166666643},{"name":"D4","midi":62,"time":42.087239583333265,"velocity":0.7244094488188977,"duration":0.1315104166666643},{"name":"F3","midi":53,"time":42.087239583333265,"velocity":0.7244094488188977,"duration":0.1315104166666643},{"name":"D#4","midi":63,"time":42.24218749999993,"velocity":0.7244094488188977,"duration":1.2265624999999858},{"name":"C3","midi":48,"time":42.24218749999993,"velocity":0.7244094488188977,"duration":1.2265624999999858},{"name":"C4","midi":60,"time":42.39713541666659,"velocity":0.7244094488188977,"duration":0.1315104166666643},{"name":"D#3","midi":51,"time":42.39713541666659,"velocity":0.7244094488188977,"duration":0.1315104166666643},{"name":"B3","midi":59,"time":42.55208333333326,"velocity":0.7244094488188977,"duration":0.1315104166666643},{"name":"D3","midi":50,"time":42.55208333333326,"velocity":0.7244094488188977,"duration":0.1315104166666643},{"name":"C4","midi":60,"time":42.70833333333326,"velocity":0.7244094488188977,"duration":0.1315104166666643},{"name":"D#3","midi":51,"time":42.70833333333326,"velocity":0.7244094488188977,"duration":0.1315104166666643},{"name":"G3","midi":55,"time":42.86328124999992,"velocity":0.7244094488188977,"duration":0.3255208333333286},{"name":"F3","midi":53,"time":42.86328124999992,"velocity":0.7244094488188977,"duration":0.1315104166666643},{"name":"C4","midi":60,"time":43.018229166666586,"velocity":0.7244094488188977,"duration":0.1315104166666643},{"name":"D#3","midi":51,"time":43.018229166666586,"velocity":0.7244094488188977,"duration":0.1315104166666643},{"name":"B3","midi":59,"time":43.17317708333325,"velocity":0.7244094488188977,"duration":0.1315104166666643},{"name":"D3","midi":50,"time":43.17317708333325,"velocity":0.7244094488188977,"duration":0.1315104166666643},{"name":"C4","midi":60,"time":43.328124999999915,"velocity":0.7244094488188977,"duration":0.1315104166666643},{"name":"D#3","midi":51,"time":43.328124999999915,"velocity":0.7244094488188977,"duration":0.1315104166666643},{"name":"D#4","midi":63,"time":43.48307291666658,"velocity":0.7244094488188977,"duration":1.2265624999999787},{"name":"A#2","midi":46,"time":43.48307291666658,"velocity":0.7244094488188977,"duration":1.2265624999999787},{"name":"C4","midi":60,"time":43.63802083333324,"velocity":0.7244094488188977,"duration":0.1315104166666643},{"name":"D#3","midi":51,"time":43.63802083333324,"velocity":0.7244094488188977,"duration":0.1315104166666643},{"name":"B3","midi":59,"time":43.79296874999991,"velocity":0.7244094488188977,"duration":0.1315104166666643},{"name":"D3","midi":50,"time":43.79296874999991,"velocity":0.7244094488188977,"duration":0.1315104166666643},{"name":"C4","midi":60,"time":43.94791666666657,"velocity":0.7244094488188977,"duration":0.1315104166666643},{"name":"D#3","midi":51,"time":43.94791666666657,"velocity":0.7244094488188977,"duration":0.1315104166666643},{"name":"G3","midi":55,"time":44.102864583333236,"velocity":0.7244094488188977,"duration":0.2604166666666643},{"name":"F3","midi":53,"time":44.102864583333236,"velocity":0.7244094488188977,"duration":0.1315104166666643},{"name":"C4","midi":60,"time":44.2578124999999,"velocity":0.7244094488188977,"duration":0.1315104166666643},{"name":"D#3","midi":51,"time":44.2578124999999,"velocity":0.7244094488188977,"duration":0.1315104166666643},{"name":"B3","midi":59,"time":44.412760416666565,"velocity":0.7244094488188977,"duration":0.1315104166666643},{"name":"D3","midi":50,"time":44.412760416666565,"velocity":0.7244094488188977,"duration":0.1315104166666643},{"name":"C4","midi":60,"time":44.56770833333323,"velocity":0.7244094488188977,"duration":0.1315104166666643},{"name":"D#3","midi":51,"time":44.56770833333323,"velocity":0.7244094488188977,"duration":0.1315104166666643},{"name":"F3","midi":53,"time":44.72265624999989,"velocity":0.7244094488188977,"duration":1.2395833333333357},{"name":"G#2","midi":44,"time":44.72265624999989,"velocity":0.7244094488188977,"duration":1.2395833333333357},{"name":"D#4","midi":63,"time":44.87890624999989,"velocity":0.7244094488188977,"duration":0.1328125},{"name":"C3","midi":48,"time":44.87890624999989,"velocity":0.7244094488188977,"duration":0.1328125},{"name":"D4","midi":62,"time":45.03645833333323,"velocity":0.7244094488188977,"duration":0.1328125},{"name":"B2","midi":47,"time":45.03645833333323,"velocity":0.7244094488188977,"duration":0.1328125},{"name":"D#4","midi":63,"time":45.19270833333323,"velocity":0.7244094488188977,"duration":0.1328125},{"name":"C3","midi":48,"time":45.19270833333323,"velocity":0.7244094488188977,"duration":0.1328125},{"name":"F4","midi":65,"time":45.34895833333323,"velocity":0.7244094488188977,"duration":0.1328125},{"name":"D3","midi":50,"time":45.34895833333323,"velocity":0.7244094488188977,"duration":0.1328125},{"name":"D#4","midi":63,"time":45.50520833333323,"velocity":0.7244094488188977,"duration":0.1328125},{"name":"C3","midi":48,"time":45.50520833333323,"velocity":0.7244094488188977,"duration":0.1328125},{"name":"D4","midi":62,"time":45.662760416666565,"velocity":0.7244094488188977,"duration":0.1328125},{"name":"B2","midi":47,"time":45.662760416666565,"velocity":0.7244094488188977,"duration":0.1328125},{"name":"D#4","midi":63,"time":45.819010416666565,"velocity":0.7244094488188977,"duration":0.1328125},{"name":"C3","midi":48,"time":45.819010416666565,"velocity":0.7244094488188977,"duration":0.1328125},{"name":"F3","midi":53,"time":45.975260416666565,"velocity":0.7244094488188977,"duration":1.210937500000007},{"name":"G#2","midi":44,"time":45.975260416666565,"velocity":0.7244094488188977,"duration":1.2395833333333357},{"name":"D#4","midi":63,"time":46.1328124999999,"velocity":0.7244094488188977,"duration":0.1328125},{"name":"C3","midi":48,"time":46.1328124999999,"velocity":0.7244094488188977,"duration":0.1328125},{"name":"D4","midi":62,"time":46.2890624999999,"velocity":0.7244094488188977,"duration":0.1328125},{"name":"B2","midi":47,"time":46.2890624999999,"velocity":0.7244094488188977,"duration":0.1328125},{"name":"D#4","midi":63,"time":46.4453124999999,"velocity":0.7244094488188977,"duration":0.1328125},{"name":"C3","midi":48,"time":46.4453124999999,"velocity":0.7244094488188977,"duration":0.1328125},{"name":"F4","midi":65,"time":46.6015624999999,"velocity":0.7244094488188977,"duration":0.1328125},{"name":"D3","midi":50,"time":46.6015624999999,"velocity":0.7244094488188977,"duration":0.1328125},{"name":"D#4","midi":63,"time":46.759114583333236,"velocity":0.7244094488188977,"duration":0.1328125},{"name":"C3","midi":48,"time":46.759114583333236,"velocity":0.7244094488188977,"duration":0.1328125},{"name":"D4","midi":62,"time":46.915364583333236,"velocity":0.7244094488188977,"duration":0.1328125},{"name":"B2","midi":47,"time":46.915364583333236,"velocity":0.7244094488188977,"duration":0.1328125},{"name":"D#4","midi":63,"time":47.071614583333236,"velocity":0.7244094488188977,"duration":0.1328125},{"name":"C3","midi":48,"time":47.071614583333236,"velocity":0.7244094488188977,"duration":0.1328125},{"name":"F#3","midi":54,"time":47.229166666666565,"velocity":0.7244094488188977,"duration":1.2395833333333357},{"name":"A2","midi":45,"time":47.229166666666565,"velocity":0.7244094488188977,"duration":1.2395833333333357},{"name":"C4","midi":60,"time":47.385416666666565,"velocity":0.7244094488188977,"duration":0.1328125},{"name":"D#3","midi":51,"time":47.385416666666565,"velocity":0.7244094488188977,"duration":0.1328125},{"name":"B3","midi":59,"time":47.541666666666565,"velocity":0.7244094488188977,"duration":0.1328125},{"name":"D3","midi":50,"time":47.541666666666565,"velocity":0.7244094488188977,"duration":0.1328125},{"name":"C4","midi":60,"time":47.697916666666565,"velocity":0.7244094488188977,"duration":0.1328125},{"name":"D#3","midi":51,"time":47.697916666666565,"velocity":0.7244094488188977,"duration":0.1328125},{"name":"D#4","midi":63,"time":47.8554687499999,"velocity":0.7244094488188977,"duration":0.1315104166666643},{"name":"C3","midi":48,"time":47.8554687499999,"velocity":0.7244094488188977,"duration":0.6002604166666643},{"name":"C4","midi":60,"time":48.0117187499999,"velocity":0.7244094488188977,"duration":0.1328125},{"name":"D#3","midi":51,"time":48.0117187499999,"velocity":0.7244094488188977,"duration":0.1328125},{"name":"B3","midi":59,"time":48.1679687499999,"velocity":0.7244094488188977,"duration":0.1328125},{"name":"D3","midi":50,"time":48.1679687499999,"velocity":0.7244094488188977,"duration":0.1328125},{"name":"C4","midi":60,"time":48.3242187499999,"velocity":0.7244094488188977,"duration":0.1328125},{"name":"D#3","midi":51,"time":48.3242187499999,"velocity":0.7244094488188977,"duration":0.1328125},{"name":"F#3","midi":54,"time":48.481770833333236,"velocity":0.7244094488188977,"duration":0.5859375},{"name":"A2","midi":45,"time":48.481770833333236,"velocity":0.7244094488188977,"duration":1.2395833333333357},{"name":"C4","midi":60,"time":48.638020833333236,"velocity":0.7244094488188977,"duration":0.1328125},{"name":"D#3","midi":51,"time":48.638020833333236,"velocity":0.7244094488188977,"duration":0.1328125},{"name":"B3","midi":59,"time":48.794270833333236,"velocity":0.7244094488188977,"duration":0.1328125},{"name":"D3","midi":50,"time":48.794270833333236,"velocity":0.7244094488188977,"duration":0.1328125},{"name":"C4","midi":60,"time":48.95182291666657,"velocity":0.7244094488188977,"duration":0.1328125},{"name":"D#3","midi":51,"time":48.95182291666657,"velocity":0.7244094488188977,"duration":0.1328125},{"name":"D#4","midi":63,"time":49.10807291666657,"velocity":0.7244094488188977,"duration":0.1315104166666643},{"name":"C3","midi":48,"time":49.10807291666657,"velocity":0.7244094488188977,"duration":0.6002604166666714},{"name":"C4","midi":60,"time":49.26432291666657,"velocity":0.7244094488188977,"duration":0.1328125},{"name":"D#3","midi":51,"time":49.26432291666657,"velocity":0.7244094488188977,"duration":0.1328125},{"name":"B3","midi":59,"time":49.42057291666657,"velocity":0.7244094488188977,"duration":0.1328125},{"name":"D3","midi":50,"time":49.42057291666657,"velocity":0.7244094488188977,"duration":0.1328125},{"name":"C4","midi":60,"time":49.57812499999991,"velocity":0.7244094488188977,"duration":0.1328125},{"name":"D#3","midi":51,"time":49.57812499999991,"velocity":0.7244094488188977,"duration":0.1328125},{"name":"D#4","midi":63,"time":49.73437499999991,"velocity":0.7244094488188977,"duration":1.2265624999999787},{"name":"G2","midi":43,"time":49.73437499999991,"velocity":0.7244094488188977,"duration":1.2265624999999787},{"name":"C4","midi":60,"time":49.88932291666657,"velocity":0.7244094488188977,"duration":0.1315104166666643},{"name":"D#3","midi":51,"time":49.88932291666657,"velocity":0.7244094488188977,"duration":0.1315104166666643},{"name":"B3","midi":59,"time":50.044270833333236,"velocity":0.7244094488188977,"duration":0.1315104166666643},{"name":"D3","midi":50,"time":50.044270833333236,"velocity":0.7244094488188977,"duration":0.1315104166666643},{"name":"C4","midi":60,"time":50.1992187499999,"velocity":0.7244094488188977,"duration":0.1315104166666643},{"name":"D#3","midi":51,"time":50.1992187499999,"velocity":0.7244094488188977,"duration":0.1315104166666643},{"name":"G3","midi":55,"time":50.354166666666565,"velocity":0.7244094488188977,"duration":0.4687499999999929},{"name":"F3","midi":53,"time":50.354166666666565,"velocity":0.7244094488188977,"duration":0.3645833333333286},{"name":"C4","midi":60,"time":50.50911458333323,"velocity":0.7244094488188977,"duration":0.1315104166666643},{"name":"D#3","midi":51,"time":50.50911458333323,"velocity":0.7244094488188977,"duration":0.1315104166666643},{"name":"B3","midi":59,"time":50.66406249999989,"velocity":0.7244094488188977,"duration":0.1315104166666643},{"name":"D3","midi":50,"time":50.66406249999989,"velocity":0.7244094488188977,"duration":0.1315104166666643},{"name":"C4","midi":60,"time":50.81901041666656,"velocity":0.7244094488188977,"duration":0.1315104166666643},{"name":"D#3","midi":51,"time":50.81901041666656,"velocity":0.7244094488188977,"duration":0.1315104166666643},{"name":"D#4","midi":63,"time":50.97395833333322,"velocity":0.7244094488188977,"duration":1.2265624999999858},{"name":"G2","midi":43,"time":50.97395833333322,"velocity":0.7244094488188977,"duration":1.2265624999999858},{"name":"C4","midi":60,"time":51.128906249999886,"velocity":0.7244094488188977,"duration":0.1315104166666643},{"name":"D#3","midi":51,"time":51.128906249999886,"velocity":0.7244094488188977,"duration":0.1315104166666643},{"name":"B3","midi":59,"time":51.28385416666655,"velocity":0.7244094488188977,"duration":0.1315104166666643},{"name":"D3","midi":50,"time":51.28385416666655,"velocity":0.7244094488188977,"duration":0.1315104166666643},{"name":"C4","midi":60,"time":51.438802083333215,"velocity":0.7244094488188977,"duration":0.1315104166666643},{"name":"D#3","midi":51,"time":51.438802083333215,"velocity":0.7244094488188977,"duration":0.1315104166666643},{"name":"G3","midi":55,"time":51.59374999999988,"velocity":0.7244094488188977,"duration":0.4427083333333286},{"name":"F3","midi":53,"time":51.59374999999988,"velocity":0.7244094488188977,"duration":0.3645833333333286},{"name":"C4","midi":60,"time":51.74999999999988,"velocity":0.7244094488188977,"duration":0.1315104166666643},{"name":"D#3","midi":51,"time":51.74999999999988,"velocity":0.7244094488188977,"duration":0.1315104166666643},{"name":"B3","midi":59,"time":51.90494791666654,"velocity":0.7244094488188977,"duration":0.1315104166666643},{"name":"D3","midi":50,"time":51.90494791666654,"velocity":0.7244094488188977,"duration":0.1315104166666643},{"name":"C4","midi":60,"time":52.05989583333321,"velocity":0.7244094488188977,"duration":0.1315104166666643},{"name":"D#3","midi":51,"time":52.05989583333321,"velocity":0.7244094488188977,"duration":0.1315104166666643},{"name":"F#4","midi":66,"time":52.21484374999987,"velocity":0.7244094488188977,"duration":1.2265624999999787},{"name":"G2","midi":43,"time":52.21484374999987,"velocity":0.7244094488188977,"duration":1.2265624999999787},{"name":"C4","midi":60,"time":52.369791666666536,"velocity":0.7244094488188977,"duration":0.1315104166666643},{"name":"D#3","midi":51,"time":52.369791666666536,"velocity":0.7244094488188977,"duration":0.1315104166666643},{"name":"B3","midi":59,"time":52.5247395833332,"velocity":0.7244094488188977,"duration":0.1315104166666643},{"name":"D3","midi":50,"time":52.5247395833332,"velocity":0.7244094488188977,"duration":0.1315104166666643},{"name":"C4","midi":60,"time":52.679687499999865,"velocity":0.7244094488188977,"duration":0.1315104166666643},{"name":"D#3","midi":51,"time":52.679687499999865,"velocity":0.7244094488188977,"duration":0.1315104166666643},{"name":"A3","midi":57,"time":52.83463541666653,"velocity":0.7244094488188977,"duration":0.4687499999999929},{"name":"C3","midi":48,"time":52.83463541666653,"velocity":0.7244094488188977,"duration":0.5937499999999929},{"name":"C4","midi":60,"time":52.989583333333194,"velocity":0.7244094488188977,"duration":0.1315104166666643},{"name":"D#3","midi":51,"time":52.989583333333194,"velocity":0.7244094488188977,"duration":0.1315104166666643},{"name":"B3","midi":59,"time":53.14453124999986,"velocity":0.7244094488188977,"duration":0.1315104166666643},{"name":"D3","midi":50,"time":53.14453124999986,"velocity":0.7244094488188977,"duration":0.1315104166666643},{"name":"C4","midi":60,"time":53.29947916666652,"velocity":0.7244094488188977,"duration":0.1315104166666643},{"name":"D#3","midi":51,"time":53.29947916666652,"velocity":0.7244094488188977,"duration":0.1315104166666643},{"name":"F#4","midi":66,"time":53.45442708333319,"velocity":0.7244094488188977,"duration":1.2265624999999787},{"name":"G2","midi":43,"time":53.45442708333319,"velocity":0.7244094488188977,"duration":1.2265624999999787},{"name":"C4","midi":60,"time":53.60937499999985,"velocity":0.7244094488188977,"duration":0.1315104166666643},{"name":"D#3","midi":51,"time":53.60937499999985,"velocity":0.7244094488188977,"duration":0.1315104166666643},{"name":"B3","midi":59,"time":53.764322916666515,"velocity":0.7244094488188977,"duration":0.1315104166666643},{"name":"D3","midi":50,"time":53.764322916666515,"velocity":0.7244094488188977,"duration":0.1315104166666643},{"name":"C4","midi":60,"time":53.91927083333318,"velocity":0.7244094488188977,"duration":0.1315104166666643},{"name":"D#3","midi":51,"time":53.91927083333318,"velocity":0.7244094488188977,"duration":0.1315104166666643},{"name":"A3","midi":57,"time":54.074218749999844,"velocity":0.7244094488188977,"duration":0.4687499999999929},{"name":"C3","midi":48,"time":54.074218749999844,"velocity":0.7244094488188977,"duration":0.5937499999999929},{"name":"C4","midi":60,"time":54.22916666666651,"velocity":0.7244094488188977,"duration":0.1315104166666643},{"name":"D#3","midi":51,"time":54.22916666666651,"velocity":0.7244094488188977,"duration":0.1315104166666643},{"name":"B3","midi":59,"time":54.38411458333317,"velocity":0.7244094488188977,"duration":0.1315104166666643},{"name":"D3","midi":50,"time":54.38411458333317,"velocity":0.7244094488188977,"duration":0.1315104166666643},{"name":"C4","midi":60,"time":54.53906249999984,"velocity":0.7244094488188977,"duration":0.1315104166666643},{"name":"D#3","midi":51,"time":54.53906249999984,"velocity":0.7244094488188977,"duration":0.1315104166666643},{"name":"G4","midi":67,"time":54.6940104166665,"velocity":0.7244094488188977,"duration":1.226562499999993},{"name":"G2","midi":43,"time":54.6940104166665,"velocity":0.7244094488188977,"duration":1.226562499999993},{"name":"C4","midi":60,"time":54.848958333333165,"velocity":0.7244094488188977,"duration":0.1315104166666643},{"name":"D#3","midi":51,"time":54.848958333333165,"velocity":0.7244094488188977,"duration":0.1315104166666643},{"name":"B3","midi":59,"time":55.00390624999983,"velocity":0.7244094488188977,"duration":0.1315104166666643},{"name":"D3","midi":50,"time":55.00390624999983,"velocity":0.7244094488188977,"duration":0.1315104166666643},{"name":"C4","midi":60,"time":55.158854166666494,"velocity":0.7244094488188977,"duration":0.1315104166666643},{"name":"D#3","midi":51,"time":55.158854166666494,"velocity":0.7244094488188977,"duration":0.1315104166666643},{"name":"D4","midi":62,"time":55.31380208333316,"velocity":0.7244094488188977,"duration":0.4947916666666643},{"name":"F3","midi":53,"time":55.31380208333316,"velocity":0.7244094488188977,"duration":0.3645833333333286},{"name":"C4","midi":60,"time":55.46874999999982,"velocity":0.7244094488188977,"duration":0.1315104166666643},{"name":"D#3","midi":51,"time":55.46874999999982,"velocity":0.7244094488188977,"duration":0.1315104166666643},{"name":"B3","midi":59,"time":55.62499999999982,"velocity":0.7244094488188977,"duration":0.1315104166666643},{"name":"D3","midi":50,"time":55.62499999999982,"velocity":0.7244094488188977,"duration":0.1315104166666643},{"name":"C4","midi":60,"time":55.77994791666649,"velocity":0.7244094488188977,"duration":0.1315104166666714},{"name":"D#3","midi":51,"time":55.77994791666649,"velocity":0.7244094488188977,"duration":0.1315104166666714},{"name":"G4","midi":67,"time":55.93489583333316,"velocity":0.7244094488188977,"duration":1.2265624999999787},{"name":"G2","midi":43,"time":55.93489583333316,"velocity":0.7244094488188977,"duration":1.2265624999999787},{"name":"C4","midi":60,"time":56.08984374999982,"velocity":0.7244094488188977,"duration":0.1315104166666643},{"name":"D#3","midi":51,"time":56.08984374999982,"velocity":0.7244094488188977,"duration":0.1315104166666643},{"name":"B3","midi":59,"time":56.24479166666649,"velocity":0.7244094488188977,"duration":0.1315104166666643},{"name":"D3","midi":50,"time":56.24479166666649,"velocity":0.7244094488188977,"duration":0.1315104166666643},{"name":"C4","midi":60,"time":56.39973958333315,"velocity":0.7244094488188977,"duration":0.1315104166666643},{"name":"D#3","midi":51,"time":56.39973958333315,"velocity":0.7244094488188977,"duration":0.1315104166666643},{"name":"D4","midi":62,"time":56.554687499999815,"velocity":0.7244094488188977,"duration":0.1315104166666643},{"name":"F3","midi":53,"time":56.554687499999815,"velocity":0.7244094488188977,"duration":0.1315104166666643},{"name":"C4","midi":60,"time":56.70963541666648,"velocity":0.7244094488188977,"duration":0.1315104166666643},{"name":"D#3","midi":51,"time":56.70963541666648,"velocity":0.7244094488188977,"duration":0.1315104166666643},{"name":"B3","midi":59,"time":56.864583333333144,"velocity":0.7244094488188977,"duration":0.1315104166666643},{"name":"D3","midi":50,"time":56.864583333333144,"velocity":0.7244094488188977,"duration":0.1315104166666643},{"name":"C4","midi":60,"time":57.01953124999981,"velocity":0.7244094488188977,"duration":0.1315104166666643},{"name":"D#3","midi":51,"time":57.01953124999981,"velocity":0.7244094488188977,"duration":0.1315104166666643},{"name":"G#4","midi":68,"time":57.17447916666647,"velocity":0.7244094488188977,"duration":1.2265624999999787},{"name":"G2","midi":43,"time":57.17447916666647,"velocity":0.7244094488188977,"duration":1.2265624999999787},{"name":"C4","midi":60,"time":57.32942708333314,"velocity":0.7244094488188977,"duration":0.1315104166666643},{"name":"D#3","midi":51,"time":57.32942708333314,"velocity":0.7244094488188977,"duration":0.1315104166666643},{"name":"B3","midi":59,"time":57.4843749999998,"velocity":0.7244094488188977,"duration":0.1315104166666643},{"name":"D3","midi":50,"time":57.4843749999998,"velocity":0.7244094488188977,"duration":0.1315104166666643},{"name":"C4","midi":60,"time":57.639322916666465,"velocity":0.7244094488188977,"duration":0.1315104166666643},{"name":"D#3","midi":51,"time":57.639322916666465,"velocity":0.7244094488188977,"duration":0.1315104166666643},{"name":"D4","midi":62,"time":57.79427083333313,"velocity":0.7244094488188977,"duration":0.1315104166666643},{"name":"F3","midi":53,"time":57.79427083333313,"velocity":0.7244094488188977,"duration":0.1315104166666643},{"name":"C4","midi":60,"time":57.949218749999794,"velocity":0.7244094488188977,"duration":0.1315104166666643},{"name":"D#3","midi":51,"time":57.949218749999794,"velocity":0.7244094488188977,"duration":0.1315104166666643},{"name":"B3","midi":59,"time":58.10416666666646,"velocity":0.7244094488188977,"duration":0.1315104166666643},{"name":"D3","midi":50,"time":58.10416666666646,"velocity":0.7244094488188977,"duration":0.1315104166666643},{"name":"C4","midi":60,"time":58.25911458333312,"velocity":0.7244094488188977,"duration":0.1315104166666643},{"name":"D#3","midi":51,"time":58.25911458333312,"velocity":0.7244094488188977,"duration":0.1315104166666643},{"name":"G#4","midi":68,"time":58.41406249999979,"velocity":0.7244094488188977,"duration":0.1315104166666643},{"name":"G2","midi":43,"time":58.41406249999979,"velocity":0.7244094488188977,"duration":1.2265624999999858},{"name":"C4","midi":60,"time":58.56901041666645,"velocity":0.7244094488188977,"duration":0.1315104166666643},{"name":"D#3","midi":51,"time":58.56901041666645,"velocity":0.7244094488188977,"duration":0.1171875},{"name":"B3","midi":59,"time":58.723958333333115,"velocity":0.7244094488188977,"duration":0.1315104166666643},{"name":"D3","midi":50,"time":58.723958333333115,"velocity":0.7244094488188977,"duration":0.1171875},{"name":"C4","midi":60,"time":58.87890624999978,"velocity":0.7244094488188977,"duration":0.1315104166666643},{"name":"D#3","midi":51,"time":58.87890624999978,"velocity":0.7244094488188977,"duration":0.1171875},{"name":"D4","midi":62,"time":59.033854166666444,"velocity":0.7244094488188977,"duration":0.1315104166666643},{"name":"F3","midi":53,"time":59.033854166666444,"velocity":0.7244094488188977,"duration":0.1171875},{"name":"C4","midi":60,"time":59.18880208333311,"velocity":0.7244094488188977,"duration":0.1315104166666643},{"name":"D#3","midi":51,"time":59.18880208333311,"velocity":0.7244094488188977,"duration":0.1171875},{"name":"B3","midi":59,"time":59.34374999999977,"velocity":0.7244094488188977,"duration":0.1315104166666643},{"name":"D3","midi":50,"time":59.34374999999977,"velocity":0.7244094488188977,"duration":0.1171875},{"name":"C4","midi":60,"time":59.49999999999977,"velocity":0.7244094488188977,"duration":0.1315104166666643},{"name":"D#3","midi":51,"time":59.49999999999977,"velocity":0.7244094488188977,"duration":0.1171875},{"name":"B3","midi":59,"time":59.66666666666644,"velocity":0.7244094488188977,"duration":0.6002604166666643},{"name":"G2","midi":43,"time":59.66666666666644,"velocity":0.7244094488188977,"duration":2.417968750000014},{"name":"B2","midi":47,"time":59.8489583333331,"velocity":0.7244094488188977,"duration":2.2604166666666856},{"name":"D3","midi":50,"time":59.999999999999766,"velocity":0.7244094488188977,"duration":0.1419270833333357},{"name":"F3","midi":53,"time":60.15104166666644,"velocity":0.7244094488188977,"duration":0.1419270833333286},{"name":"G#3","midi":56,"time":60.30338541666643,"velocity":0.7244094488188977,"duration":0.1419270833333357},{"name":"F3","midi":53,"time":60.4544270833331,"velocity":0.7244094488188977,"duration":0.1419270833333357},{"name":"E3","midi":52,"time":60.6067708333331,"velocity":0.7244094488188977,"duration":0.1419270833333357},{"name":"F3","midi":53,"time":60.75781249999977,"velocity":0.7244094488188977,"duration":0.1419270833333357},{"name":"B3","midi":59,"time":60.91015624999977,"velocity":0.7244094488188977,"duration":0.1419270833333357},{"name":"F3","midi":53,"time":61.06249999999977,"velocity":0.7244094488188977,"duration":0.1419270833333357},{"name":"D4","midi":62,"time":61.213541666666444,"velocity":0.7244094488188977,"duration":0.1419270833333357},{"name":"B3","midi":59,"time":61.365885416666444,"velocity":0.7244094488188977,"duration":0.1419270833333357},{"name":"G#3","midi":56,"time":61.516927083333115,"velocity":0.7244094488188977,"duration":0.1419270833333357},{"name":"F3","midi":53,"time":61.669270833333115,"velocity":0.7244094488188977,"duration":0.1419270833333357},{"name":"E3","midi":52,"time":61.82031249999979,"velocity":0.7244094488188977,"duration":0.1419270833333357},{"name":"F3","midi":53,"time":61.97265624999979,"velocity":0.7244094488188977,"duration":0.1419270833333357},{"name":"G2","midi":43,"time":62.11588541666646,"velocity":0.7244094488188977,"duration":2.470052083333343},{"name":"C3","midi":48,"time":62.32161458333312,"velocity":0.7244094488188977,"duration":2.308593750000007},{"name":"D#3","midi":51,"time":62.47656249999979,"velocity":0.7244094488188977,"duration":2.098958333333343},{"name":"G3","midi":55,"time":62.63151041666645,"velocity":0.7244094488188977,"duration":0.14453125},{"name":"C4","midi":60,"time":62.786458333333115,"velocity":0.7244094488188977,"duration":0.14453125},{"name":"G3","midi":55,"time":62.94140624999978,"velocity":0.7244094488188977,"duration":0.14453125},{"name":"F#3","midi":54,"time":63.096354166666444,"velocity":0.7244094488188977,"duration":0.14453125},{"name":"G3","midi":55,"time":63.25130208333311,"velocity":0.7244094488188977,"duration":0.14453125},{"name":"D#4","midi":63,"time":63.40624999999977,"velocity":0.7244094488188977,"duration":0.14453125},{"name":"C4","midi":60,"time":63.56119791666644,"velocity":0.7244094488188977,"duration":0.14453125},{"name":"G4","midi":67,"time":63.7161458333331,"velocity":0.7244094488188977,"duration":0.14453125},{"name":"D#4","midi":63,"time":63.871093749999766,"velocity":0.7244094488188977,"duration":0.1445312500000071},{"name":"C4","midi":60,"time":64.02604166666644,"velocity":0.7244094488188977,"duration":0.14453125},{"name":"G#3","midi":56,"time":64.18098958333312,"velocity":0.7244094488188977,"duration":0.14453125},{"name":"G3","midi":55,"time":64.33593749999979,"velocity":0.7244094488188977,"duration":0.14453125},{"name":"G#3","midi":56,"time":64.49088541666646,"velocity":0.7244094488188977,"duration":0.14453125},{"name":"G2","midi":43,"time":64.65494791666646,"velocity":0.7244094488188977,"duration":2.652343749999986},{"name":"A2","midi":45,"time":64.84765624999979,"velocity":0.7244094488188977,"duration":2.453124999999986},{"name":"F#3","midi":54,"time":65.00781249999979,"velocity":0.7244094488188977,"duration":2.2903645833333144},{"name":"C4","midi":60,"time":65.16666666666646,"velocity":0.7244094488188977,"duration":0.1497395833333286},{"name":"D#4","midi":63,"time":65.32682291666646,"velocity":0.7244094488188977,"duration":0.1497395833333286},{"name":"C4","midi":60,"time":65.48697916666646,"velocity":0.7244094488188977,"duration":0.1497395833333286},{"name":"B3","midi":59,"time":65.64713541666646,"velocity":0.7244094488188977,"duration":0.1497395833333286},{"name":"C4","midi":60,"time":65.80598958333312,"velocity":0.7244094488188977,"duration":0.1497395833333286},{"name":"F#4","midi":66,"time":65.96614583333312,"velocity":0.7244094488188977,"duration":0.1497395833333286},{"name":"C4","midi":60,"time":66.12630208333312,"velocity":0.7244094488188977,"duration":0.1497395833333286},{"name":"A4","midi":69,"time":66.28645833333312,"velocity":0.7244094488188977,"duration":0.1497395833333286},{"name":"F#4","midi":66,"time":66.44661458333312,"velocity":0.7244094488188977,"duration":0.1497395833333286},{"name":"D#4","midi":63,"time":66.60546874999977,"velocity":0.7244094488188977,"duration":0.1497395833333286},{"name":"C4","midi":60,"time":66.76562499999977,"velocity":0.7244094488188977,"duration":0.1497395833333286},{"name":"B3","midi":59,"time":66.92578124999977,"velocity":0.7244094488188977,"duration":0.1497395833333286},{"name":"C4","midi":60,"time":67.10937499999977,"velocity":0.7244094488188977,"duration":0.1979166666666714},{"name":"G2","midi":43,"time":67.32682291666644,"velocity":0.7244094488188977,"duration":2.132812499999986},{"name":"D5","midi":74,"time":67.85286458333312,"velocity":0.7244094488188977,"duration":0.10546875},{"name":"C5","midi":72,"time":67.96223958333312,"velocity":0.7244094488188977,"duration":0.10546875},{"name":"D5","midi":74,"time":68.07161458333312,"velocity":0.7244094488188977,"duration":0.10546875},{"name":"D#5","midi":75,"time":68.18229166666644,"velocity":0.7244094488188977,"duration":0.2057291666666714},{"name":"C5","midi":72,"time":68.29166666666644,"velocity":0.7244094488188977,"duration":0.10546875},{"name":"B4","midi":71,"time":68.40104166666644,"velocity":0.7244094488188977,"duration":0.10546875},{"name":"C5","midi":72,"time":68.51171874999977,"velocity":0.7244094488188977,"duration":0.10546875},{"name":"A4","midi":69,"time":68.62109374999977,"velocity":0.7244094488188977,"duration":0.2057291666666714},{"name":"C5","midi":72,"time":68.73046874999977,"velocity":0.7244094488188977,"duration":0.10546875},{"name":"B4","midi":71,"time":68.8411458333331,"velocity":0.7244094488188977,"duration":0.10546875},{"name":"C5","midi":72,"time":68.9505208333331,"velocity":0.7244094488188977,"duration":0.10546875},{"name":"D5","midi":74,"time":69.0598958333331,"velocity":0.7244094488188977,"duration":0.2057291666666572},{"name":"G3","midi":55,"time":69.0598958333331,"velocity":0.7244094488188977,"duration":0.4882812499999858},{"name":"B4","midi":71,"time":69.17057291666643,"velocity":0.7244094488188977,"duration":0.10546875},{"name":"A4","midi":69,"time":69.27994791666643,"velocity":0.7244094488188977,"duration":0.10546875},{"name":"B4","midi":71,"time":69.38932291666643,"velocity":0.7244094488188977,"duration":0.10546875},{"name":"G4","midi":67,"time":69.49999999999976,"velocity":0.7244094488188977,"duration":0.2057291666666714},{"name":"B4","midi":71,"time":69.60937499999976,"velocity":0.7244094488188977,"duration":0.10546875},{"name":"D4","midi":62,"time":69.60937499999976,"velocity":0.7244094488188977,"duration":0.10546875},{"name":"A4","midi":69,"time":69.71874999999976,"velocity":0.7244094488188977,"duration":0.10546875},{"name":"C4","midi":60,"time":69.71874999999976,"velocity":0.7244094488188977,"duration":0.10546875},{"name":"B4","midi":71,"time":69.82942708333309,"velocity":0.7244094488188977,"duration":0.10546875},{"name":"D4","midi":62,"time":69.82942708333309,"velocity":0.7244094488188977,"duration":0.10546875},{"name":"C5","midi":72,"time":69.93880208333309,"velocity":0.7244094488188977,"duration":0.2057291666666714},{"name":"D#4","midi":63,"time":69.93880208333309,"velocity":0.7244094488188977,"duration":0.2057291666666714},{"name":"A4","midi":69,"time":70.04817708333309,"velocity":0.7244094488188977,"duration":0.10546875},{"name":"C4","midi":60,"time":70.04817708333309,"velocity":0.7244094488188977,"duration":0.10546875},{"name":"G4","midi":67,"time":70.15885416666642,"velocity":0.7244094488188977,"duration":0.10546875},{"name":"B3","midi":59,"time":70.15885416666642,"velocity":0.7244094488188977,"duration":0.10546875},{"name":"A4","midi":69,"time":70.26822916666642,"velocity":0.7244094488188977,"duration":0.10546875},{"name":"C4","midi":60,"time":70.26822916666642,"velocity":0.7244094488188977,"duration":0.10546875},{"name":"F#4","midi":66,"time":70.37760416666642,"velocity":0.7244094488188977,"duration":0.2057291666666572},{"name":"A3","midi":57,"time":70.37760416666642,"velocity":0.7244094488188977,"duration":0.2057291666666572},{"name":"A4","midi":69,"time":70.48828124999974,"velocity":0.7244094488188977,"duration":0.10546875},{"name":"C4","midi":60,"time":70.48828124999974,"velocity":0.7244094488188977,"duration":0.10546875},{"name":"G4","midi":67,"time":70.59765624999974,"velocity":0.7244094488188977,"duration":0.10546875},{"name":"B3","midi":59,"time":70.59765624999974,"velocity":0.7244094488188977,"duration":0.10546875},{"name":"A4","midi":69,"time":70.70703124999974,"velocity":0.7244094488188977,"duration":0.10546875},{"name":"C4","midi":60,"time":70.70703124999974,"velocity":0.7244094488188977,"duration":0.10546875},{"name":"B4","midi":71,"time":70.81640624999974,"velocity":0.7244094488188977,"duration":0.2057291666666572},{"name":"D4","midi":62,"time":70.81640624999974,"velocity":0.7244094488188977,"duration":0.2057291666666572},{"name":"G4","midi":67,"time":70.92708333333307,"velocity":0.7244094488188977,"duration":0.10546875},{"name":"B3","midi":59,"time":70.92708333333307,"velocity":0.7244094488188977,"duration":0.10546875},{"name":"F#4","midi":66,"time":71.03645833333307,"velocity":0.7244094488188977,"duration":0.10546875},{"name":"A3","midi":57,"time":71.03645833333307,"velocity":0.7244094488188977,"duration":0.10546875},{"name":"G4","midi":67,"time":71.14583333333307,"velocity":0.7244094488188977,"duration":0.10546875},{"name":"B3","midi":59,"time":71.14583333333307,"velocity":0.7244094488188977,"duration":0.10546875},{"name":"D4","midi":62,"time":71.2565104166664,"velocity":0.7244094488188977,"duration":0.10546875},{"name":"G3","midi":55,"time":71.2565104166664,"velocity":0.7244094488188977,"duration":0.10546875},{"name":"G5","midi":79,"time":71.3658854166664,"velocity":0.7244094488188977,"duration":0.10546875},{"name":"B3","midi":59,"time":71.3658854166664,"velocity":0.7244094488188977,"duration":0.10546875},{"name":"F5","midi":77,"time":71.4752604166664,"velocity":0.7244094488188977,"duration":0.10546875},{"name":"A3","midi":57,"time":71.4752604166664,"velocity":0.7244094488188977,"duration":0.10546875},{"name":"G5","midi":79,"time":71.58593749999973,"velocity":0.7244094488188977,"duration":0.10546875},{"name":"B3","midi":59,"time":71.58593749999973,"velocity":0.7244094488188977,"duration":0.10546875},{"name":"G#5","midi":80,"time":71.69531249999973,"velocity":0.7244094488188977,"duration":0.2057291666666714},{"name":"C4","midi":60,"time":71.69531249999973,"velocity":0.7244094488188977,"duration":0.2057291666666714},{"name":"F5","midi":77,"time":71.80468749999973,"velocity":0.7244094488188977,"duration":0.10546875},{"name":"G#3","midi":56,"time":71.80468749999973,"velocity":0.7244094488188977,"duration":0.10546875},{"name":"D#5","midi":75,"time":71.91536458333306,"velocity":0.7244094488188977,"duration":0.10546875},{"name":"G3","midi":55,"time":71.91536458333306,"velocity":0.7244094488188977,"duration":0.10546875},{"name":"F5","midi":77,"time":72.02473958333306,"velocity":0.7244094488188977,"duration":0.10546875},{"name":"G#3","midi":56,"time":72.02473958333306,"velocity":0.7244094488188977,"duration":0.10546875},{"name":"D5","midi":74,"time":72.13411458333306,"velocity":0.7244094488188977,"duration":0.2057291666666572},{"name":"F3","midi":53,"time":72.13411458333306,"velocity":0.7244094488188977,"duration":0.2057291666666572},{"name":"F5","midi":77,"time":72.24479166666639,"velocity":0.7244094488188977,"duration":0.10546875},{"name":"A3","midi":57,"time":72.24479166666639,"velocity":0.7244094488188977,"duration":0.10546875},{"name":"D#5","midi":75,"time":72.35416666666639,"velocity":0.7244094488188977,"duration":0.10546875},{"name":"G3","midi":55,"time":72.35416666666639,"velocity":0.7244094488188977,"duration":0.10546875},{"name":"F5","midi":77,"time":72.46354166666639,"velocity":0.7244094488188977,"duration":0.10546875},{"name":"A3","midi":57,"time":72.46354166666639,"velocity":0.7244094488188977,"duration":0.10546875},{"name":"G5","midi":79,"time":72.57421874999972,"velocity":0.7244094488188977,"duration":0.2057291666666714},{"name":"B3","midi":59,"time":72.57421874999972,"velocity":0.7244094488188977,"duration":0.2057291666666714},{"name":"D#5","midi":75,"time":72.68359374999972,"velocity":0.7244094488188977,"duration":0.10546875},{"name":"G3","midi":55,"time":72.68359374999972,"velocity":0.7244094488188977,"duration":0.10546875},{"name":"D5","midi":74,"time":72.79296874999972,"velocity":0.7244094488188977,"duration":0.10546875},{"name":"F3","midi":53,"time":72.79296874999972,"velocity":0.7244094488188977,"duration":0.10546875},{"name":"D#5","midi":75,"time":72.90364583333304,"velocity":0.7244094488188977,"duration":0.10546875},{"name":"G3","midi":55,"time":72.90364583333304,"velocity":0.7244094488188977,"duration":0.10546875},{"name":"C5","midi":72,"time":73.01302083333304,"velocity":0.7244094488188977,"duration":0.2057291666666714},{"name":"D#3","midi":51,"time":73.01302083333304,"velocity":0.7244094488188977,"duration":0.10546875},{"name":"D#5","midi":75,"time":73.12239583333304,"velocity":0.7244094488188977,"duration":0.10546875},{"name":"G4","midi":67,"time":73.12239583333304,"velocity":0.7244094488188977,"duration":0.10546875},{"name":"D5","midi":74,"time":73.23307291666637,"velocity":0.7244094488188977,"duration":0.10546875},{"name":"F4","midi":65,"time":73.23307291666637,"velocity":0.7244094488188977,"duration":0.10546875},{"name":"D#5","midi":75,"time":73.34244791666637,"velocity":0.7244094488188977,"duration":0.10546875},{"name":"G4","midi":67,"time":73.34244791666637,"velocity":0.7244094488188977,"duration":0.10546875},{"name":"F5","midi":77,"time":73.45182291666637,"velocity":0.7244094488188977,"duration":0.2057291666666714},{"name":"G#4","midi":68,"time":73.45182291666637,"velocity":0.7244094488188977,"duration":0.2057291666666714},{"name":"D5","midi":74,"time":73.56119791666637,"velocity":0.7244094488188977,"duration":0.10546875},{"name":"F4","midi":65,"time":73.56119791666637,"velocity":0.7244094488188977,"duration":0.10546875},{"name":"C5","midi":72,"time":73.6718749999997,"velocity":0.7244094488188977,"duration":0.10546875},{"name":"D#4","midi":63,"time":73.6718749999997,"velocity":0.7244094488188977,"duration":0.10546875},{"name":"D5","midi":74,"time":73.7812499999997,"velocity":0.7244094488188977,"duration":0.10546875},{"name":"F4","midi":65,"time":73.7812499999997,"velocity":0.7244094488188977,"duration":0.10546875},{"name":"B4","midi":71,"time":73.8906249999997,"velocity":0.7244094488188977,"duration":0.2057291666666572},{"name":"D4","midi":62,"time":73.8906249999997,"velocity":0.7244094488188977,"duration":0.2057291666666572},{"name":"D5","midi":74,"time":74.00130208333303,"velocity":0.7244094488188977,"duration":0.10546875},{"name":"F4","midi":65,"time":74.00130208333303,"velocity":0.7244094488188977,"duration":0.10546875},{"name":"C5","midi":72,"time":74.11067708333303,"velocity":0.7244094488188977,"duration":0.10546875},{"name":"D#4","midi":63,"time":74.11067708333303,"velocity":0.7244094488188977,"duration":0.10546875},{"name":"D5","midi":74,"time":74.22005208333303,"velocity":0.7244094488188977,"duration":0.10546875},{"name":"F4","midi":65,"time":74.22005208333303,"velocity":0.7244094488188977,"duration":0.10546875},{"name":"D#5","midi":75,"time":74.33072916666636,"velocity":0.7244094488188977,"duration":0.2057291666666714},{"name":"G4","midi":67,"time":74.33072916666636,"velocity":0.7244094488188977,"duration":0.2057291666666714},{"name":"C5","midi":72,"time":74.44010416666636,"velocity":0.7244094488188977,"duration":0.10546875},{"name":"D#4","midi":63,"time":74.44010416666636,"velocity":0.7244094488188977,"duration":0.10546875},{"name":"B4","midi":71,"time":74.54947916666636,"velocity":0.7244094488188977,"duration":0.10546875},{"name":"D4","midi":62,"time":74.54947916666636,"velocity":0.7244094488188977,"duration":0.10546875},{"name":"C5","midi":72,"time":74.66015624999969,"velocity":0.7244094488188977,"duration":0.10546875},{"name":"D#4","midi":63,"time":74.66015624999969,"velocity":0.7244094488188977,"duration":0.10546875},{"name":"G4","midi":67,"time":74.76953124999969,"velocity":0.7244094488188977,"duration":0.2057291666666714},{"name":"C4","midi":60,"time":74.76953124999969,"velocity":0.7244094488188977,"duration":0.2057291666666714},{"name":"C5","midi":72,"time":74.87890624999969,"velocity":0.7244094488188977,"duration":0.10546875},{"name":"D#4","midi":63,"time":74.87890624999969,"velocity":0.7244094488188977,"duration":0.10546875},{"name":"B4","midi":71,"time":74.98958333333302,"velocity":0.7244094488188977,"duration":0.10546875},{"name":"D4","midi":62,"time":74.98958333333302,"velocity":0.7244094488188977,"duration":0.10546875},{"name":"C5","midi":72,"time":75.09895833333302,"velocity":0.7244094488188977,"duration":0.10546875},{"name":"D#4","midi":63,"time":75.09895833333302,"velocity":0.7244094488188977,"duration":0.10546875},{"name":"G#4","midi":68,"time":75.20833333333302,"velocity":0.7244094488188977,"duration":0.3138020833333286},{"name":"F4","midi":65,"time":75.20833333333302,"velocity":0.7244094488188977,"duration":0.3138020833333286},{"name":"F5","midi":77,"time":75.31901041666634,"velocity":0.7244094488188977,"duration":0.109375},{"name":"D4","midi":62,"time":75.31901041666634,"velocity":0.7244094488188977,"duration":0.109375},{"name":"D#5","midi":75,"time":75.43098958333302,"velocity":0.7244094488188977,"duration":0.109375},{"name":"C4","midi":60,"time":75.43098958333302,"velocity":0.7244094488188977,"duration":0.109375},{"name":"F5","midi":77,"time":75.54427083333302,"velocity":0.7244094488188977,"duration":0.109375},{"name":"D4","midi":62,"time":75.54427083333302,"velocity":0.7244094488188977,"duration":0.109375},{"name":"G4","midi":67,"time":75.65755208333302,"velocity":0.7244094488188977,"duration":0.3177083333333286},{"name":"D#4","midi":63,"time":75.65755208333302,"velocity":0.7244094488188977,"duration":0.3177083333333286},{"name":"D#5","midi":75,"time":75.77083333333302,"velocity":0.7244094488188977,"duration":0.109375},{"name":"C4","midi":60,"time":75.77083333333302,"velocity":0.7244094488188977,"duration":0.109375},{"name":"D5","midi":74,"time":75.88411458333302,"velocity":0.7244094488188977,"duration":0.109375},{"name":"B3","midi":59,"time":75.88411458333302,"velocity":0.7244094488188977,"duration":0.109375},{"name":"D#5","midi":75,"time":75.99609374999969,"velocity":0.7244094488188977,"duration":0.109375},{"name":"C4","midi":60,"time":75.99609374999969,"velocity":0.7244094488188977,"duration":0.109375},{"name":"F4","midi":65,"time":76.10937499999969,"velocity":0.7244094488188977,"duration":0.3177083333333286},{"name":"D4","midi":62,"time":76.10937499999969,"velocity":0.7244094488188977,"duration":0.3177083333333286},{"name":"D5","midi":74,"time":76.22265624999969,"velocity":0.7244094488188977,"duration":0.109375},{"name":"B3","midi":59,"time":76.22265624999969,"velocity":0.7244094488188977,"duration":0.109375},{"name":"C5","midi":72,"time":76.33593749999969,"velocity":0.7244094488188977,"duration":0.109375},{"name":"A3","midi":57,"time":76.33593749999969,"velocity":0.7244094488188977,"duration":0.109375},{"name":"D5","midi":74,"time":76.44921874999969,"velocity":0.7244094488188977,"duration":0.109375},{"name":"B3","midi":59,"time":76.44921874999969,"velocity":0.7244094488188977,"duration":0.109375},{"name":"D#4","midi":63,"time":76.56119791666636,"velocity":0.7244094488188977,"duration":0.109375},{"name":"C4","midi":60,"time":76.56119791666636,"velocity":0.7244094488188977,"duration":0.3177083333333286},{"name":"C5","midi":72,"time":76.67447916666636,"velocity":0.7244094488188977,"duration":0.109375},{"name":"D#4","midi":63,"time":76.67447916666636,"velocity":0.7244094488188977,"duration":0.109375},{"name":"B4","midi":71,"time":76.78776041666636,"velocity":0.7244094488188977,"duration":0.109375},{"name":"D4","midi":62,"time":76.78776041666636,"velocity":0.7244094488188977,"duration":0.109375},{"name":"C5","midi":72,"time":76.90104166666636,"velocity":0.7244094488188977,"duration":0.109375},{"name":"D#4","midi":63,"time":76.90104166666636,"velocity":0.7244094488188977,"duration":0.109375},{"name":"G#4","midi":68,"time":77.01432291666636,"velocity":0.7244094488188977,"duration":0.2265625},{"name":"F3","midi":53,"time":77.01432291666636,"velocity":0.7244094488188977,"duration":0.33984375},{"name":"F4","midi":65,"time":77.13541666666636,"velocity":0.7244094488188977,"duration":0.1171875},{"name":"D4","midi":62,"time":77.13541666666636,"velocity":0.7244094488188977,"duration":0.1171875},{"name":"D#4","midi":63,"time":77.25651041666636,"velocity":0.7244094488188977,"duration":0.1171875},{"name":"C4","midi":60,"time":77.25651041666636,"velocity":0.7244094488188977,"duration":0.1171875},{"name":"F4","midi":65,"time":77.37760416666636,"velocity":0.7244094488188977,"duration":0.1171875},{"name":"D4","midi":62,"time":77.37760416666636,"velocity":0.7244094488188977,"duration":0.1171875},{"name":"G4","midi":67,"time":77.49869791666636,"velocity":0.7244094488188977,"duration":0.2265625},{"name":"D#3","midi":51,"time":77.49869791666636,"velocity":0.7244094488188977,"duration":0.33984375},{"name":"D#4","midi":63,"time":77.61979166666636,"velocity":0.7244094488188977,"duration":0.1171875},{"name":"C4","midi":60,"time":77.61979166666636,"velocity":0.7244094488188977,"duration":0.1171875},{"name":"D4","midi":62,"time":77.74088541666636,"velocity":0.7244094488188977,"duration":0.1171875},{"name":"B3","midi":59,"time":77.74088541666636,"velocity":0.7244094488188977,"duration":0.1171875},{"name":"D#4","midi":63,"time":77.86197916666636,"velocity":0.7244094488188977,"duration":0.1171875},{"name":"C4","midi":60,"time":77.86197916666636,"velocity":0.7244094488188977,"duration":0.1171875},{"name":"F4","midi":65,"time":77.98307291666636,"velocity":0.7244094488188977,"duration":0.2265625},{"name":"D3","midi":50,"time":77.98307291666636,"velocity":0.7244094488188977,"duration":0.33984375},{"name":"D4","midi":62,"time":78.10416666666636,"velocity":0.7244094488188977,"duration":0.1171875},{"name":"B3","midi":59,"time":78.10416666666636,"velocity":0.7244094488188977,"duration":0.1171875},{"name":"C4","midi":60,"time":78.22526041666636,"velocity":0.7244094488188977,"duration":0.1171875},{"name":"A3","midi":57,"time":78.22526041666636,"velocity":0.7244094488188977,"duration":0.1171875},{"name":"D4","midi":62,"time":78.35937499999969,"velocity":0.7244094488188977,"duration":0.1432291666666714},{"name":"B3","midi":59,"time":78.35937499999969,"velocity":0.7244094488188977,"duration":0.1432291666666714},{"name":"A#3","midi":58,"time":78.52994791666636,"velocity":0.7244094488188977,"duration":3.391927083333343},{"name":"G3","midi":55,"time":78.52994791666636,"velocity":0.7244094488188977,"duration":3.391927083333343},{"name":"C3","midi":48,"time":78.52994791666636,"velocity":0.7244094488188977,"duration":3.391927083333343},{"name":"F4","midi":65,"time":78.52994791666636,"velocity":0.7244094488188977,"duration":0.3645833333333286},{"name":"E4","midi":64,"time":78.88281249999969,"velocity":0.7244094488188977,"duration":0.0651041666666714},{"name":"F4","midi":65,"time":78.95442708333303,"velocity":0.7244094488188977,"duration":0.0651041666666714},{"name":"E4","midi":64,"time":79.02473958333303,"velocity":0.7244094488188977,"duration":0.0651041666666714},{"name":"F4","midi":65,"time":79.09635416666637,"velocity":0.7244094488188977,"duration":0.0651041666666714},{"name":"E4","midi":64,"time":79.16666666666637,"velocity":0.7244094488188977,"duration":0.0651041666666714},{"name":"F4","midi":65,"time":79.23828124999972,"velocity":0.7244094488188977,"duration":0.0651041666666714},{"name":"E4","midi":64,"time":79.30989583333306,"velocity":0.7244094488188977,"duration":1.2434895833333286},{"name":"C4","midi":60,"time":80.69661458333306,"velocity":0.7244094488188977,"duration":0.13671875},{"name":"D4","midi":62,"time":80.83854166666639,"velocity":0.7244094488188977,"duration":0.13671875},{"name":"E4","midi":64,"time":80.98046874999972,"velocity":0.7244094488188977,"duration":0.13671875},{"name":"F4","midi":65,"time":81.12239583333304,"velocity":0.7244094488188977,"duration":0.13671875},{"name":"G4","midi":67,"time":81.26432291666637,"velocity":0.7244094488188977,"duration":0.13671875},{"name":"G#4","midi":68,"time":81.4062499999997,"velocity":0.7244094488188977,"duration":0.13671875},{"name":"A#4","midi":70,"time":81.54947916666637,"velocity":0.7244094488188977,"duration":0.13671875},{"name":"C5","midi":72,"time":81.6914062499997,"velocity":0.7244094488188977,"duration":0.13671875},{"name":"A#4","midi":70,"time":81.83333333333303,"velocity":0.7244094488188977,"duration":0.13671875},{"name":"G#4","midi":68,"time":81.97526041666636,"velocity":0.7244094488188977,"duration":0.13671875},{"name":"G4","midi":67,"time":82.11718749999969,"velocity":0.7244094488188977,"duration":0.13671875},{"name":"F4","midi":65,"time":82.25911458333302,"velocity":0.7244094488188977,"duration":0.2786458333333286},{"name":"G4","midi":67,"time":82.54296874999967,"velocity":0.7244094488188977,"duration":0.13671875},{"name":"E4","midi":64,"time":82.68619791666634,"velocity":0.7244094488188977,"duration":0.13671875},{"name":"F4","midi":65,"time":82.82812499999967,"velocity":0.7244094488188977,"duration":0.0651041666666714},{"name":"G#3","midi":56,"time":82.82812499999967,"velocity":0.7244094488188977,"duration":3.0898437499999716},{"name":"C4","midi":60,"time":82.82812499999967,"velocity":0.7244094488188977,"duration":1.2578125000000142},{"name":"F3","midi":53,"time":82.82812499999967,"velocity":0.7244094488188977,"duration":3.0898437499999716},{"name":"C3","midi":48,"time":82.82812499999967,"velocity":0.7244094488188977,"duration":3.0898437499999716},{"name":"E4","midi":64,"time":82.89843749999967,"velocity":0.7244094488188977,"duration":0.0651041666666714},{"name":"F4","midi":65,"time":82.97005208333302,"velocity":0.7244094488188977,"duration":0.0651041666666714},{"name":"E4","midi":64,"time":83.04036458333302,"velocity":0.7244094488188977,"duration":0.0651041666666714},{"name":"F4","midi":65,"time":83.11197916666636,"velocity":0.7244094488188977,"duration":0.921875},{"name":"G4","midi":67,"time":84.04947916666636,"velocity":0.7244094488188977,"duration":0.1614583333333286},{"name":"F4","midi":65,"time":84.21614583333302,"velocity":0.7244094488188977,"duration":0.1484375},{"name":"E4","midi":64,"time":84.36979166666634,"velocity":0.7244094488188977,"duration":0.1484375},{"name":"F4","midi":65,"time":84.52343749999967,"velocity":0.7244094488188977,"duration":0.1484375},{"name":"G4","midi":67,"time":84.677083333333,"velocity":0.7244094488188977,"duration":0.1484375},{"name":"G#4","midi":68,"time":84.829427083333,"velocity":0.7244094488188977,"duration":0.1484375},{"name":"G4","midi":67,"time":84.98307291666633,"velocity":0.7244094488188977,"duration":0.1484375},{"name":"F4","midi":65,"time":85.13671874999966,"velocity":0.7244094488188977,"duration":0.1484375},{"name":"D#4","midi":63,"time":85.29036458333299,"velocity":0.7244094488188977,"duration":0.1484375},{"name":"D4","midi":62,"time":85.44401041666632,"velocity":0.7244094488188977,"duration":0.1484375},{"name":"D#4","midi":63,"time":85.59635416666632,"velocity":0.7244094488188977,"duration":0.1484375},{"name":"F4","midi":65,"time":85.74999999999964,"velocity":0.7244094488188977,"duration":0.1484375},{"name":"D4","midi":62,"time":85.90364583333297,"velocity":0.7244094488188977,"duration":0.1484375},{"name":"D#4","midi":63,"time":86.0572916666663,"velocity":0.7244094488188977,"duration":0.1484375},{"name":"F4","midi":65,"time":86.21093749999963,"velocity":0.7244094488188977,"duration":0.1484375},{"name":"B3","midi":59,"time":86.36328124999963,"velocity":0.7244094488188977,"duration":0.7643229166666572},{"name":"C2","midi":36,"time":86.6276041666663,"velocity":0.7244094488188977,"duration":2.203124999999943},{"name":"B2","midi":47,"time":86.78124999999963,"velocity":0.7244094488188977,"duration":2.059895833333286},{"name":"D3","midi":50,"time":86.93359374999963,"velocity":0.7244094488188977,"duration":0.1484375},{"name":"F3","midi":53,"time":87.08723958333296,"velocity":0.7244094488188977,"duration":0.1484375},{"name":"G#3","midi":56,"time":87.24088541666629,"velocity":0.7244094488188977,"duration":0.1484375},{"name":"G3","midi":55,"time":87.39453124999962,"velocity":0.7244094488188977,"duration":0.1484375},{"name":"F3","midi":53,"time":87.54817708333294,"velocity":0.7244094488188977,"duration":0.1484375},{"name":"B3","midi":59,"time":87.70052083333294,"velocity":0.7244094488188977,"duration":0.2864583333333286},{"name":"F3","midi":53,"time":87.85416666666627,"velocity":0.7244094488188977,"duration":0.1484375},{"name":"D4","midi":62,"time":88.0078124999996,"velocity":0.7244094488188977,"duration":0.2864583333333286},{"name":"F3","midi":53,"time":88.16145833333293,"velocity":0.7244094488188977,"duration":0.1484375},{"name":"B3","midi":59,"time":88.31510416666626,"velocity":0.7244094488188977,"duration":0.1484375},{"name":"G#3","midi":56,"time":88.46744791666626,"velocity":0.7244094488188977,"duration":0.1484375},{"name":"G3","midi":55,"time":88.62109374999959,"velocity":0.7244094488188977,"duration":0.1484375},{"name":"F3","midi":53,"time":88.77473958333292,"velocity":0.7244094488188977,"duration":0.1458333333333286},{"name":"C2","midi":36,"time":88.92708333333292,"velocity":0.7244094488188977,"duration":3.367187499999929},{"name":"E3","midi":52,"time":88.92708333333292,"velocity":0.7244094488188977,"duration":0.5742187499999858},{"name":"C#4","midi":61,"time":89.07942708333292,"velocity":0.7244094488188977,"duration":0.1484375},{"name":"A#3","midi":58,"time":89.23307291666625,"velocity":0.7244094488188977,"duration":0.1484375},{"name":"G3","midi":55,"time":89.38671874999957,"velocity":0.7244094488188977,"duration":0.1484375},{"name":"C4","midi":60,"time":89.5403645833329,"velocity":0.7244094488188977,"duration":0.1484375},{"name":"G#3","midi":56,"time":89.69401041666623,"velocity":0.7244094488188977,"duration":0.1484375},{"name":"F3","midi":53,"time":89.84635416666623,"velocity":0.7244094488188977,"duration":0.1484375},{"name":"G#3","midi":56,"time":89.99999999999956,"velocity":0.7244094488188977,"duration":0.1484375},{"name":"G3","midi":55,"time":90.15364583333289,"velocity":0.7244094488188977,"duration":0.2864583333333286},{"name":"A#3","midi":58,"time":90.30729166666622,"velocity":0.7244094488188977,"duration":0.1484375},{"name":"G3","midi":55,"time":90.46093749999955,"velocity":0.7244094488188977,"duration":0.1484375},{"name":"E3","midi":52,"time":90.61328124999955,"velocity":0.7244094488188977,"duration":0.1484375},{"name":"G#3","midi":56,"time":90.76692708333287,"velocity":0.7244094488188977,"duration":0.1484375},{"name":"F3","midi":53,"time":90.9205729166662,"velocity":0.7244094488188977,"duration":0.1484375},{"name":"D3","midi":50,"time":91.07421874999953,"velocity":0.7244094488188977,"duration":0.1497395833333286},{"name":"F3","midi":53,"time":91.22916666666619,"velocity":0.7244094488188977,"duration":0.1497395833333286},{"name":"E3","midi":52,"time":91.38411458333285,"velocity":0.7244094488188977,"duration":0.2903645833333428},{"name":"G3","midi":55,"time":91.53906249999952,"velocity":0.7244094488188977,"duration":0.1497395833333428},{"name":"E3","midi":52,"time":91.69401041666619,"velocity":0.7244094488188977,"duration":0.1497395833333286},{"name":"C3","midi":48,"time":91.84895833333285,"velocity":0.7244094488188977,"duration":0.1497395833333286},{"name":"F3","midi":53,"time":92.0039062499995,"velocity":0.7244094488188977,"duration":0.2903645833333428},{"name":"D3","midi":50,"time":92.15885416666617,"velocity":0.7244094488188977,"duration":0.1497395833333428},{"name":"B2","midi":47,"time":92.31380208333285,"velocity":0.7244094488188977,"duration":0.1497395833333286},{"name":"D3","midi":50,"time":92.4687499999995,"velocity":0.7244094488188977,"duration":0.1770833333333286},{"name":"C2","midi":36,"time":92.6835937499995,"velocity":0.7244094488188977,"duration":7.9921875},{"name":"G2","midi":43,"time":92.89973958333283,"velocity":0.7244094488188977,"duration":4.885416666666671},{"name":"C3","midi":48,"time":93.08333333333283,"velocity":0.7244094488188977,"duration":7.60546875},{"name":"D3","midi":50,"time":93.26822916666616,"velocity":0.7244094488188977,"duration":0.1770833333333286},{"name":"E3","midi":52,"time":93.45182291666616,"velocity":0.7244094488188977,"duration":0.515625},{"name":"G3","midi":55,"time":93.63541666666616,"velocity":0.7244094488188977,"duration":0.1770833333333286},{"name":"A#3","midi":58,"time":93.82031249999949,"velocity":0.7244094488188977,"duration":0.1770833333333428},{"name":"G3","midi":55,"time":94.0039062499995,"velocity":0.7244094488188977,"duration":0.1770833333333286},{"name":"G#3","midi":56,"time":94.1874999999995,"velocity":0.7244094488188977,"duration":0.515625},{"name":"C4","midi":60,"time":94.37239583333283,"velocity":0.7244094488188977,"duration":0.1770833333333286},{"name":"F4","midi":65,"time":94.55598958333283,"velocity":0.7244094488188977,"duration":0.1770833333333428},{"name":"D4","midi":62,"time":94.73958333333285,"velocity":0.7244094488188977,"duration":0.1770833333333286},{"name":"F4","midi":65,"time":94.92447916666617,"velocity":0.7244094488188977,"duration":0.3450520833333286},{"name":"G#4","midi":68,"time":95.10807291666617,"velocity":0.7244094488188977,"duration":0.1783854166666572},{"name":"C5","midi":72,"time":95.29427083333283,"velocity":0.7244094488188977,"duration":0.2291666666666714},{"name":"B4","midi":71,"time":95.52473958333283,"velocity":0.7244094488188977,"duration":0.2591145833333286},{"name":"C5","midi":72,"time":95.79166666666616,"velocity":0.7244094488188977,"duration":4.899739583333343},{"name":"G4","midi":67,"time":96.28645833333283,"velocity":0.7244094488188977,"duration":0.4947916666666714},{"name":"F4","midi":65,"time":96.78255208333283,"velocity":0.7244094488188977,"duration":0.9791666666666714},{"name":"D4","midi":62,"time":97.27864583333283,"velocity":0.7244094488188977,"duration":0.4869791666666714},{"name":"E4","midi":64,"time":97.7734374999995,"velocity":0.7244094488188977,"duration":2.9205729166666714},{"name":"C5","midi":72,"time":102.0820312499995,"velocity":0.7244094488188977,"duration":0.2161458333333286},{"name":"B4","midi":71,"time":102.29947916666616,"velocity":0.7244094488188977,"duration":0.2161458333333286},{"name":"C5","midi":72,"time":102.51822916666616,"velocity":0.7244094488188977,"duration":0.4348958333333286},{"name":"G4","midi":67,"time":102.95572916666616,"velocity":0.7244094488188977,"duration":0.3645833333333286},{"name":"G#4","midi":68,"time":103.39322916666616,"velocity":0.7244094488188977,"duration":0.4348958333333286},{"name":"C5","midi":72,"time":103.83072916666616,"velocity":0.7244094488188977,"duration":0.2161458333333286},{"name":"B4","midi":71,"time":104.04817708333282,"velocity":0.7244094488188977,"duration":0.2161458333333286},{"name":"C5","midi":72,"time":104.26562499999947,"velocity":0.7244094488188977,"duration":0.4348958333333286},{"name":"D5","midi":74,"time":104.70312499999947,"velocity":0.7244094488188977,"duration":0.37109375},{"name":"G4","midi":67,"time":105.1419270833328,"velocity":0.7244094488188977,"duration":0.4348958333333286},{"name":"C5","midi":72,"time":105.5794270833328,"velocity":0.7244094488188977,"duration":0.2161458333333286},{"name":"B4","midi":71,"time":105.79687499999946,"velocity":0.7244094488188977,"duration":0.2161458333333286},{"name":"C5","midi":72,"time":106.01432291666612,"velocity":0.7244094488188977,"duration":0.4348958333333286},{"name":"D5","midi":74,"time":106.45182291666612,"velocity":0.7244094488188977,"duration":0.3776041666666714},{"name":"F4","midi":65,"time":106.88932291666612,"velocity":0.7244094488188977,"duration":0.2161458333333286},{"name":"G4","midi":67,"time":107.10807291666612,"velocity":0.7244094488188977,"duration":0.2252604166666714},{"name":"G#4","midi":68,"time":107.32552083333279,"velocity":0.7244094488188977,"duration":0.09375},{"name":"G4","midi":67,"time":107.41666666666612,"velocity":0.7244094488188977,"duration":0.09375000000001421},{"name":"G#4","midi":68,"time":107.50781249999946,"velocity":0.7244094488188977,"duration":0.70703125},{"name":"G4","midi":67,"time":108.19921874999946,"velocity":0.7244094488188977,"duration":0.2109375},{"name":"F4","midi":65,"time":108.41927083333279,"velocity":0.7244094488188977,"duration":0.2109375},{"name":"D#4","midi":63,"time":108.63802083333279,"velocity":0.7244094488188977,"duration":0.2161458333333286},{"name":"C5","midi":72,"time":108.85677083333279,"velocity":0.7244094488188977,"duration":0.2161458333333286},{"name":"G5","midi":79,"time":109.07421874999945,"velocity":0.7244094488188977,"duration":0.2161458333333286},{"name":"B4","midi":71,"time":109.07421874999945,"velocity":0.7244094488188977,"duration":0.2161458333333286},{"name":"F#5","midi":78,"time":109.29296874999945,"velocity":0.7244094488188977,"duration":0.2161458333333286},{"name":"A4","midi":69,"time":109.29296874999945,"velocity":0.7244094488188977,"duration":0.2161458333333286},{"name":"G5","midi":79,"time":109.5104166666661,"velocity":0.7244094488188977,"duration":0.4335937499999858},{"name":"G4","midi":67,"time":109.5104166666661,"velocity":0.7244094488188977,"duration":0.2161458333333286},{"name":"F4","midi":65,"time":109.72786458333276,"velocity":0.7244094488188977,"duration":0.2161458333333286},{"name":"C5","midi":72,"time":109.94661458333276,"velocity":0.7244094488188977,"duration":0.2864583333333286},{"name":"D#4","midi":63,"time":109.94661458333276,"velocity":0.7244094488188977,"duration":0.2161458333333286},{"name":"D4","midi":62,"time":110.16406249999942,"velocity":0.7244094488188977,"duration":0.2161458333333428},{"name":"D#5","midi":75,"time":110.38281249999943,"velocity":0.7244094488188977,"duration":0.4348958333333286},{"name":"C4","midi":60,"time":110.38281249999943,"velocity":0.7244094488188977,"duration":0.4348958333333286},{"name":"G5","midi":79,"time":110.82031249999943,"velocity":0.7244094488188977,"duration":0.2161458333333286},{"name":"D#5","midi":75,"time":110.82031249999943,"velocity":0.7244094488188977,"duration":0.4335937499999858},{"name":"F#5","midi":78,"time":111.03776041666609,"velocity":0.7244094488188977,"duration":0.2161458333333286},{"name":"G5","midi":79,"time":111.25520833333275,"velocity":0.7244094488188977,"duration":0.4348958333333286},{"name":"D5","midi":74,"time":111.25520833333275,"velocity":0.7244094488188977,"duration":0.4348958333333286},{"name":"A5","midi":81,"time":111.69270833333275,"velocity":0.7244094488188977,"duration":0.3125},{"name":"C5","midi":72,"time":111.69270833333275,"velocity":0.7244094488188977,"duration":0.4348958333333286},{"name":"D5","midi":74,"time":112.13020833333275,"velocity":0.7244094488188977,"duration":0.4348958333333286},{"name":"A#4","midi":70,"time":112.13020833333275,"velocity":0.7244094488188977,"duration":0.4348958333333286},{"name":"G5","midi":79,"time":112.56901041666607,"velocity":0.7244094488188977,"duration":0.2161458333333286},{"name":"A4","midi":69,"time":112.56901041666607,"velocity":0.7244094488188977,"duration":0.4335937499999858},{"name":"F#5","midi":78,"time":112.78645833333273,"velocity":0.7244094488188977,"duration":0.2161458333333286},{"name":"G5","midi":79,"time":113.00390624999939,"velocity":0.7244094488188977,"duration":0.4348958333333286},{"name":"A#4","midi":70,"time":113.00390624999939,"velocity":0.7244094488188977,"duration":0.4348958333333286},{"name":"A5","midi":81,"time":113.44140624999939,"velocity":0.7244094488188977,"duration":0.390625},{"name":"C5","midi":72,"time":113.44140624999939,"velocity":0.7244094488188977,"duration":0.4348958333333286},{"name":"C5","midi":72,"time":113.87890624999939,"velocity":0.7244094488188977,"duration":0.2161458333333286},{"name":"F#4","midi":66,"time":113.87890624999939,"velocity":0.7244094488188977,"duration":0.43359375},{"name":"D5","midi":74,"time":114.09765624999939,"velocity":0.7244094488188977,"duration":0.2161458333333286},{"name":"C5","midi":72,"time":114.31510416666605,"velocity":0.7244094488188977,"duration":0.10546875},{"name":"G4","midi":67,"time":114.31510416666605,"velocity":0.7244094488188977,"duration":0.4322916666666714},{"name":"D5","midi":74,"time":114.42317708333272,"velocity":0.7244094488188977,"duration":0.10546875},{"name":"D#5","midi":75,"time":114.53124999999939,"velocity":0.7244094488188977,"duration":0.6627604166666714},{"name":"A4","midi":69,"time":114.74999999999939,"velocity":0.7244094488188977,"duration":0.4348958333333286},{"name":"D5","midi":74,"time":115.18749999999939,"velocity":0.7244094488188977,"duration":0.2161458333333428},{"name":"F#4","midi":66,"time":115.18749999999939,"velocity":0.7244094488188977,"duration":0.43359375},{"name":"C5","midi":72,"time":115.40494791666606,"velocity":0.7244094488188977,"duration":0.2161458333333286},{"name":"A#4","midi":70,"time":115.62369791666606,"velocity":0.7244094488188977,"duration":0.4348958333333286},{"name":"G4","midi":67,"time":115.62369791666606,"velocity":0.7244094488188977,"duration":0.63671875},{"name":"D#5","midi":75,"time":116.06119791666606,"velocity":0.7244094488188977,"duration":0.2161458333333286},{"name":"D5","midi":74,"time":116.27864583333272,"velocity":0.7244094488188977,"duration":0.2161458333333286},{"name":"D#5","midi":75,"time":116.49609374999937,"velocity":0.7244094488188977,"duration":0.3515625},{"name":"C4","midi":60,"time":116.7161458333327,"velocity":0.7244094488188977,"duration":0.2161458333333428},{"name":"G4","midi":67,"time":116.93359374999937,"velocity":0.7244094488188977,"duration":0.43359375},{"name":"D4","midi":62,"time":116.93359374999937,"velocity":0.7244094488188977,"duration":0.2161458333333286},{"name":"D#4","midi":63,"time":117.15234374999937,"velocity":0.7244094488188977,"duration":0.2161458333333286},{"name":"G#4","midi":68,"time":117.36979166666603,"velocity":0.7244094488188977,"duration":0.43359375},{"name":"F4","midi":65,"time":117.36979166666603,"velocity":0.7244094488188977,"duration":0.2161458333333286},{"name":"G4","midi":67,"time":117.58854166666603,"velocity":0.7244094488188977,"duration":0.2161458333333286},{"name":"F5","midi":77,"time":117.80598958333269,"velocity":0.7244094488188977,"duration":0.2161458333333286},{"name":"G#4","midi":68,"time":117.80598958333269,"velocity":0.7244094488188977,"duration":0.5455729166666572},{"name":"D#5","midi":75,"time":118.02343749999935,"velocity":0.7244094488188977,"duration":0.2161458333333286},{"name":"F5","midi":77,"time":118.24218749999935,"velocity":0.7244094488188977,"duration":0.3515625},{"name":"D4","midi":62,"time":118.46223958333267,"velocity":0.7244094488188977,"duration":0.2161458333333428},{"name":"A4","midi":69,"time":118.67968749999935,"velocity":0.7244094488188977,"duration":0.4335937499999858},{"name":"D#4","midi":63,"time":118.67968749999935,"velocity":0.7244094488188977,"duration":0.2161458333333286},{"name":"F4","midi":65,"time":118.897135416666,"velocity":0.7244094488188977,"duration":0.2161458333333286},{"name":"A#4","midi":70,"time":119.115885416666,"velocity":0.7244094488188977,"duration":0.4335937499999858},{"name":"G4","midi":67,"time":119.115885416666,"velocity":0.7244094488188977,"duration":0.2161458333333286},{"name":"A4","midi":69,"time":119.33333333333266,"velocity":0.7244094488188977,"duration":0.2161458333333286},{"name":"G5","midi":79,"time":119.55208333333266,"velocity":0.7244094488188977,"duration":0.2161458333333286},{"name":"A#4","midi":70,"time":119.55208333333266,"velocity":0.7244094488188977,"duration":0.545572916666643},{"name":"F5","midi":77,"time":119.76953124999932,"velocity":0.7244094488188977,"duration":0.2161458333333286},{"name":"G5","midi":79,"time":119.98697916666598,"velocity":0.7244094488188977,"duration":0.3515625},{"name":"D#4","midi":63,"time":120.2070312499993,"velocity":0.7244094488188977,"duration":0.2161458333333428},{"name":"B4","midi":71,"time":120.42447916666598,"velocity":0.7244094488188977,"duration":0.43359375},{"name":"F4","midi":65,"time":120.42447916666598,"velocity":0.7244094488188977,"duration":0.2161458333333286},{"name":"G4","midi":67,"time":120.64322916666598,"velocity":0.7244094488188977,"duration":0.2161458333333286},{"name":"C5","midi":72,"time":120.86067708333263,"velocity":0.7244094488188977,"duration":0.10546875},{"name":"G#4","midi":68,"time":120.86067708333263,"velocity":0.7244094488188977,"duration":0.2135416666666714},{"name":"B4","midi":71,"time":120.9687499999993,"velocity":0.7244094488188977,"duration":0.10546875},{"name":"C5","midi":72,"time":121.07682291666598,"velocity":0.7244094488188977,"duration":0.2161458333333286},{"name":"G4","midi":67,"time":121.07682291666598,"velocity":0.7244094488188977,"duration":0.2161458333333286},{"name":"D5","midi":74,"time":121.29557291666598,"velocity":0.7244094488188977,"duration":0.2161458333333286},{"name":"F4","midi":65,"time":121.29557291666598,"velocity":0.7244094488188977,"duration":0.2161458333333286},{"name":"D#5","midi":75,"time":121.51302083333263,"velocity":0.7244094488188977,"duration":0.2161458333333286},{"name":"D#4","midi":63,"time":121.51302083333263,"velocity":0.7244094488188977,"duration":0.2161458333333286},{"name":"F5","midi":77,"time":121.73177083333263,"velocity":0.7244094488188977,"duration":1.322916666666643},{"name":"D4","midi":62,"time":121.73177083333263,"velocity":0.7244094488188977,"duration":0.4348958333333286},{"name":"C5","midi":72,"time":122.16927083333263,"velocity":0.7244094488188977,"duration":0.2161458333333286},{"name":"B4","midi":71,"time":122.38671874999929,"velocity":0.7244094488188977,"duration":0.2161458333333286},{"name":"C5","midi":72,"time":122.60416666666595,"velocity":0.7244094488188977,"duration":0.6549479166666572},{"name":"D#5","midi":75,"time":123.04166666666595,"velocity":0.7244094488188977,"duration":0.2304687499999858},{"name":"C4","midi":60,"time":123.04166666666595,"velocity":0.7244094488188977,"duration":0.2161458333333286},{"name":"D5","midi":74,"time":123.26041666666593,"velocity":0.7244094488188977,"duration":0.2161458333333286},{"name":"B3","midi":59,"time":123.26041666666593,"velocity":0.7244094488188977,"duration":0.2161458333333286},{"name":"C5","midi":72,"time":123.47786458333259,"velocity":0.7244094488188977,"duration":0.2161458333333286},{"name":"C4","midi":60,"time":123.47786458333259,"velocity":0.7244094488188977,"duration":0.43359375},{"name":"A#4","midi":70,"time":123.69661458333259,"velocity":0.7244094488188977,"duration":0.2161458333333286},{"name":"G#4","midi":68,"time":123.91406249999925,"velocity":0.7244094488188977,"duration":0.2161458333333286},{"name":"G3","midi":55,"time":123.91406249999925,"velocity":0.7244094488188977,"duration":0.3776041666666572},{"name":"G4","midi":67,"time":124.1315104166659,"velocity":0.7244094488188977,"duration":0.2161458333333286},{"name":"F4","midi":65,"time":124.3502604166659,"velocity":0.7244094488188977,"duration":0.4348958333333286},{"name":"G#3","midi":56,"time":124.3502604166659,"velocity":0.7244094488188977,"duration":0.4348958333333286},{"name":"G#5","midi":80,"time":124.7877604166659,"velocity":0.7244094488188977,"duration":0.4335937499999858},{"name":"F5","midi":77,"time":124.7877604166659,"velocity":0.7244094488188977,"duration":0.4335937499999858},{"name":"C4","midi":60,"time":124.7877604166659,"velocity":0.7244094488188977,"duration":0.2161458333333286},{"name":"B3","midi":59,"time":125.00520833333256,"velocity":0.7244094488188977,"duration":0.2161458333333286},{"name":"G5","midi":79,"time":125.22395833333256,"velocity":0.7244094488188977,"duration":0.4348958333333286},{"name":"D#5","midi":75,"time":125.22395833333256,"velocity":0.7244094488188977,"duration":0.4348958333333286},{"name":"C4","midi":60,"time":125.22395833333256,"velocity":0.7244094488188977,"duration":0.4348958333333286},{"name":"F5","midi":77,"time":125.66145833333256,"velocity":0.7244094488188977,"duration":0.43359375},{"name":"D5","midi":74,"time":125.66145833333256,"velocity":0.7244094488188977,"duration":0.4322916666666714},{"name":"D4","midi":62,"time":125.66145833333256,"velocity":0.7244094488188977,"duration":0.3776041666666714},{"name":"D#5","midi":75,"time":126.09635416666589,"velocity":0.7244094488188977,"duration":0.4348958333333286},{"name":"G3","midi":55,"time":126.09635416666589,"velocity":0.7244094488188977,"duration":0.4348958333333286},{"name":"D5","midi":74,"time":126.53515624999922,"velocity":0.7244094488188977,"duration":0.4335937499999858},{"name":"G#4","midi":68,"time":126.53515624999922,"velocity":0.7244094488188977,"duration":0.4335937499999858},{"name":"C4","midi":60,"time":126.53515624999922,"velocity":0.7244094488188977,"duration":0.2161458333333286},{"name":"B3","midi":59,"time":126.75260416666588,"velocity":0.7244094488188977,"duration":0.2161458333333286},{"name":"D#5","midi":75,"time":126.97005208333253,"velocity":0.7244094488188977,"duration":0.4348958333333286},{"name":"G4","midi":67,"time":126.97005208333253,"velocity":0.7244094488188977,"duration":0.4348958333333286},{"name":"C4","midi":60,"time":126.97005208333253,"velocity":0.7244094488188977,"duration":0.4348958333333286},{"name":"F5","midi":77,"time":127.40755208333253,"velocity":0.7244094488188977,"duration":0.4348958333333428},{"name":"F4","midi":65,"time":127.40755208333253,"velocity":0.7244094488188977,"duration":0.4348958333333428},{"name":"D4","midi":62,"time":127.40755208333253,"velocity":0.7244094488188977,"duration":0.3776041666666714},{"name":"B4","midi":71,"time":127.84505208333255,"velocity":0.7244094488188977,"duration":0.43359375},{"name":"G4","midi":67,"time":127.84505208333255,"velocity":0.7244094488188977,"duration":0.43359375},{"name":"F3","midi":53,"time":127.84505208333255,"velocity":0.7244094488188977,"duration":0.2161458333333428},{"name":"G3","midi":55,"time":128.06380208333255,"velocity":0.7244094488188977,"duration":0.2161458333333428},{"name":"C5","midi":72,"time":128.28124999999923,"velocity":0.7244094488188977,"duration":0.43359375},{"name":"F4","midi":65,"time":128.28124999999923,"velocity":0.7244094488188977,"duration":0.2161458333333428},{"name":"G#3","midi":56,"time":128.28124999999923,"velocity":0.7244094488188977,"duration":0.8710937500000284},{"name":"D#4","midi":63,"time":128.49999999999923,"velocity":0.7244094488188977,"duration":0.2161458333333428},{"name":"D5","midi":74,"time":128.71744791666592,"velocity":0.7244094488188977,"duration":0.4348958333333428},{"name":"F4","midi":65,"time":128.71744791666592,"velocity":0.7244094488188977,"duration":0.4348958333333428},{"name":"C5","midi":72,"time":129.15494791666592,"velocity":0.7244094488188977,"duration":0.10546875},{"name":"D4","midi":62,"time":129.15494791666592,"velocity":0.7244094488188977,"duration":0.4309895833333144},{"name":"G3","midi":55,"time":129.15494791666592,"velocity":0.7244094488188977,"duration":0.2135416666666572},{"name":"B4","midi":71,"time":129.26302083333258,"velocity":0.7244094488188977,"duration":0.10546875},{"name":"A4","midi":69,"time":129.37109374999923,"velocity":0.7244094488188977,"duration":0.10546875},{"name":"F3","midi":53,"time":129.37109374999923,"velocity":0.7244094488188977,"duration":0.2135416666666572},{"name":"B4","midi":71,"time":129.4791666666659,"velocity":0.7244094488188977,"duration":0.10546875},{"name":"C5","midi":72,"time":129.58723958333258,"velocity":0.7244094488188977,"duration":0.43359375},{"name":"G4","midi":67,"time":129.58723958333258,"velocity":0.7244094488188977,"duration":1.0898437500000568},{"name":"D#3","midi":51,"time":129.58723958333258,"velocity":0.7244094488188977,"duration":0.2161458333333428},{"name":"C4","midi":60,"time":129.80598958333258,"velocity":0.7244094488188977,"duration":0.2161458333333428},{"name":"G5","midi":79,"time":130.02343749999926,"velocity":0.7244094488188977,"duration":0.2161458333333428},{"name":"B3","midi":59,"time":130.02343749999926,"velocity":0.7244094488188977,"duration":0.2161458333333428},{"name":"F#5","midi":78,"time":130.24218749999926,"velocity":0.7244094488188977,"duration":0.2161458333333428},{"name":"A3","midi":57,"time":130.24218749999926,"velocity":0.7244094488188977,"duration":0.2161458333333428},{"name":"G5","midi":79,"time":130.45963541666595,"velocity":0.7244094488188977,"duration":0.3515625000000284},{"name":"G3","midi":55,"time":130.45963541666595,"velocity":0.7244094488188977,"duration":0.2161458333333428},{"name":"F3","midi":53,"time":130.67708333333263,"velocity":0.7244094488188977,"duration":0.2161458333333428},{"name":"D5","midi":74,"time":130.89583333333263,"velocity":0.7244094488188977,"duration":0.4335937500000284},{"name":"B4","midi":71,"time":130.89583333333263,"velocity":0.7244094488188977,"duration":0.4335937500000284},{"name":"D#3","midi":51,"time":130.89583333333263,"velocity":0.7244094488188977,"duration":0.2161458333333428},{"name":"D3","midi":50,"time":131.11328124999932,"velocity":0.7244094488188977,"duration":0.2161458333333428},{"name":"D#5","midi":75,"time":131.33203124999932,"velocity":0.7244094488188977,"duration":1.0898437500000568},{"name":"C5","midi":72,"time":131.33203124999932,"velocity":0.7244094488188977,"duration":0.4335937500000284},{"name":"C3","midi":48,"time":131.33203124999932,"velocity":0.7244094488188977,"duration":0.2161458333333428},{"name":"D3","midi":50,"time":131.549479166666,"velocity":0.7244094488188977,"duration":0.2161458333333428},{"name":"C5","midi":72,"time":131.7669270833327,"velocity":0.7244094488188977,"duration":0.2161458333333428},{"name":"D#3","midi":51,"time":131.7669270833327,"velocity":0.7244094488188977,"duration":0.2161458333333428},{"name":"B4","midi":71,"time":131.9856770833327,"velocity":0.7244094488188977,"duration":0.2161458333333428},{"name":"D3","midi":50,"time":131.9856770833327,"velocity":0.7244094488188977,"duration":0.2161458333333428},{"name":"C5","midi":72,"time":132.20312499999937,"velocity":0.7244094488188977,"duration":0.43359375},{"name":"C3","midi":48,"time":132.20312499999937,"velocity":0.7244094488188977,"duration":0.2161458333333428},{"name":"A#2","midi":46,"time":132.42187499999937,"velocity":0.7244094488188977,"duration":0.2161458333333428},{"name":"E5","midi":76,"time":132.63932291666606,"velocity":0.7244094488188977,"duration":0.4335937500000284},{"name":"G4","midi":67,"time":132.63932291666606,"velocity":0.7244094488188977,"duration":0.4335937500000284},{"name":"G#2","midi":44,"time":132.63932291666606,"velocity":0.7244094488188977,"duration":0.2161458333333428},{"name":"G2","midi":43,"time":132.85677083333275,"velocity":0.7244094488188977,"duration":0.2161458333333428},{"name":"F5","midi":77,"time":133.07552083333275,"velocity":0.7244094488188977,"duration":0.4335937500000284},{"name":"G#4","midi":68,"time":133.07552083333275,"velocity":0.7244094488188977,"duration":1.0898437500000568},{"name":"F2","midi":41,"time":133.07552083333275,"velocity":0.7244094488188977,"duration":0.2161458333333428},{"name":"A#3","midi":58,"time":133.29296874999943,"velocity":0.7244094488188977,"duration":0.2161458333333428},{"name":"F5","midi":77,"time":133.51171874999943,"velocity":0.7244094488188977,"duration":0.2161458333333428},{"name":"G#3","midi":56,"time":133.51171874999943,"velocity":0.7244094488188977,"duration":0.2161458333333428},{"name":"E5","midi":76,"time":133.72916666666612,"velocity":0.7244094488188977,"duration":0.2161458333333428},{"name":"G3","midi":55,"time":133.72916666666612,"velocity":0.7244094488188977,"duration":0.2161458333333428},{"name":"F5","midi":77,"time":133.9466145833328,"velocity":0.7244094488188977,"duration":0.3515625},{"name":"F3","midi":53,"time":133.9466145833328,"velocity":0.7244094488188977,"duration":0.2161458333333428},{"name":"D#3","midi":51,"time":134.1653645833328,"velocity":0.7244094488188977,"duration":0.2161458333333428},{"name":"C5","midi":72,"time":134.3828124999995,"velocity":0.7244094488188977,"duration":0.43359375},{"name":"A4","midi":69,"time":134.3828124999995,"velocity":0.7244094488188977,"duration":0.43359375},{"name":"D3","midi":50,"time":134.3828124999995,"velocity":0.7244094488188977,"duration":0.2161458333333428},{"name":"C3","midi":48,"time":134.6015624999995,"velocity":0.7244094488188977,"duration":0.2161458333333428},{"name":"D5","midi":74,"time":134.81901041666617,"velocity":0.7244094488188977,"duration":1.0898437500000568},{"name":"A#4","midi":70,"time":134.81901041666617,"velocity":0.7244094488188977,"duration":0.4335937500000284},{"name":"A#2","midi":46,"time":134.81901041666617,"velocity":0.7244094488188977,"duration":0.2161458333333428},{"name":"C3","midi":48,"time":135.03645833333286,"velocity":0.7244094488188977,"duration":0.2161458333333428},{"name":"A#4","midi":70,"time":135.25520833333286,"velocity":0.7244094488188977,"duration":0.2161458333333428},{"name":"D3","midi":50,"time":135.25520833333286,"velocity":0.7244094488188977,"duration":0.2161458333333428},{"name":"A4","midi":69,"time":135.47265624999955,"velocity":0.7244094488188977,"duration":0.2161458333333428},{"name":"C3","midi":48,"time":135.47265624999955,"velocity":0.7244094488188977,"duration":0.2161458333333428},{"name":"A#4","midi":70,"time":135.69140624999955,"velocity":0.7244094488188977,"duration":0.4335937500000284},{"name":"A#2","midi":46,"time":135.69140624999955,"velocity":0.7244094488188977,"duration":0.2161458333333428},{"name":"G#2","midi":44,"time":135.90885416666623,"velocity":0.7244094488188977,"duration":0.2161458333333428},{"name":"D5","midi":74,"time":136.12630208333292,"velocity":0.7244094488188977,"duration":0.43359375},{"name":"F4","midi":65,"time":136.12630208333292,"velocity":0.7244094488188977,"duration":0.43359375},{"name":"G2","midi":43,"time":136.12630208333292,"velocity":0.7244094488188977,"duration":0.2161458333333428},{"name":"F2","midi":41,"time":136.34505208333292,"velocity":0.7244094488188977,"duration":0.2161458333333428},{"name":"D#5","midi":75,"time":136.5624999999996,"velocity":0.7244094488188977,"duration":0.43359375},{"name":"G4","midi":67,"time":136.5624999999996,"velocity":0.7244094488188977,"duration":1.0898437500000568},{"name":"D#2","midi":39,"time":136.5624999999996,"velocity":0.7244094488188977,"duration":0.2161458333333428},{"name":"G#3","midi":56,"time":136.7812499999996,"velocity":0.7244094488188977,"duration":0.2161458333333428},{"name":"D#5","midi":75,"time":136.9986979166663,"velocity":0.7244094488188977,"duration":0.2161458333333428},{"name":"G3","midi":55,"time":136.9986979166663,"velocity":0.7244094488188977,"duration":0.2161458333333428},{"name":"D5","midi":74,"time":137.21614583333297,"velocity":0.7244094488188977,"duration":0.2161458333333428},{"name":"F3","midi":53,"time":137.21614583333297,"velocity":0.7244094488188977,"duration":0.2161458333333428},{"name":"D#5","midi":75,"time":137.43489583333297,"velocity":0.7244094488188977,"duration":0.3515625000000284},{"name":"D#3","midi":51,"time":137.43489583333297,"velocity":0.7244094488188977,"duration":0.2161458333333428},{"name":"C#3","midi":49,"time":137.65234374999966,"velocity":0.7244094488188977,"duration":0.2161458333333428},{"name":"A#4","midi":70,"time":137.87109374999966,"velocity":0.7244094488188977,"duration":0.4335937500000284},{"name":"G4","midi":67,"time":137.87109374999966,"velocity":0.7244094488188977,"duration":0.4335937500000284},{"name":"C3","midi":48,"time":137.87109374999966,"velocity":0.7244094488188977,"duration":0.2161458333333428},{"name":"A#2","midi":46,"time":138.08854166666634,"velocity":0.7244094488188977,"duration":0.2161458333333428},{"name":"C5","midi":72,"time":138.30598958333303,"velocity":0.7244094488188977,"duration":0.4348958333333428},{"name":"G#4","midi":68,"time":138.30598958333303,"velocity":0.7244094488188977,"duration":0.4348958333333428},{"name":"G#2","midi":44,"time":138.30598958333303,"velocity":0.7244094488188977,"duration":0.4348958333333428},{"name":"D#5","midi":75,"time":138.74348958333303,"velocity":0.7244094488188977,"duration":0.2161458333333428},{"name":"G#4","midi":68,"time":138.74348958333303,"velocity":0.7244094488188977,"duration":0.43359375},{"name":"C4","midi":60,"time":138.74348958333303,"velocity":0.7244094488188977,"duration":0.43359375},{"name":"D5","midi":74,"time":138.96223958333303,"velocity":0.7244094488188977,"duration":0.2161458333333428},{"name":"D#5","midi":75,"time":139.17968749999972,"velocity":0.7244094488188977,"duration":0.4348958333333428},{"name":"G4","midi":67,"time":139.17968749999972,"velocity":0.7244094488188977,"duration":0.4348958333333428},{"name":"A#3","midi":58,"time":139.17968749999972,"velocity":0.7244094488188977,"duration":0.4348958333333428},{"name":"F5","midi":77,"time":139.61718749999972,"velocity":0.7244094488188977,"duration":0.3515625},{"name":"F4","midi":65,"time":139.61718749999972,"velocity":0.7244094488188977,"duration":0.4322916666666572},{"name":"G#3","midi":56,"time":139.61718749999972,"velocity":0.7244094488188977,"duration":0.43359375},{"name":"A#4","midi":70,"time":140.05338541666637,"velocity":0.7244094488188977,"duration":0.4348958333333428},{"name":"G3","midi":55,"time":140.05338541666637,"velocity":0.7244094488188977,"duration":0.4348958333333428},{"name":"D#5","midi":75,"time":140.49088541666637,"velocity":0.7244094488188977,"duration":0.2161458333333428},{"name":"G#3","midi":56,"time":140.49088541666637,"velocity":0.7244094488188977,"duration":0.4335937500000284},{"name":"F3","midi":53,"time":140.49088541666637,"velocity":0.7244094488188977,"duration":0.4335937500000284},{"name":"D5","midi":74,"time":140.70833333333306,"velocity":0.7244094488188977,"duration":0.2161458333333428},{"name":"D#5","midi":75,"time":140.92708333333306,"velocity":0.7244094488188977,"duration":0.4348958333333428},{"name":"A#3","midi":58,"time":140.92708333333306,"velocity":0.7244094488188977,"duration":0.4348958333333428},{"name":"G3","midi":55,"time":140.92708333333306,"velocity":0.7244094488188977,"duration":0.4348958333333428},{"name":"F5","midi":77,"time":141.36458333333306,"velocity":0.7244094488188977,"duration":0.3515625},{"name":"C4","midi":60,"time":141.36458333333306,"velocity":0.7244094488188977,"duration":0.63671875},{"name":"G#3","midi":56,"time":141.36458333333306,"velocity":0.7244094488188977,"duration":0.4348958333333428},{"name":"G#4","midi":68,"time":141.80208333333306,"velocity":0.7244094488188977,"duration":0.2161458333333428},{"name":"D3","midi":50,"time":141.80208333333306,"velocity":0.7244094488188977,"duration":0.4335937500000284},{"name":"A#4","midi":70,"time":142.01953124999974,"velocity":0.7244094488188977,"duration":0.2161458333333428},{"name":"G#4","midi":68,"time":142.23828124999974,"velocity":0.7244094488188977,"duration":0.10546875},{"name":"G#3","midi":56,"time":142.23828124999974,"velocity":0.7244094488188977,"duration":0.2135416666666572},{"name":"D#3","midi":51,"time":142.23828124999974,"velocity":0.7244094488188977,"duration":0.4322916666666572},{"name":"A#4","midi":70,"time":142.3463541666664,"velocity":0.7244094488188977,"duration":0.10546875},{"name":"C5","midi":72,"time":142.45442708333306,"velocity":0.7244094488188977,"duration":0.6536458333333712},{"name":"G3","midi":55,"time":142.45442708333306,"velocity":0.7244094488188977,"duration":0.2161458333333428},{"name":"G#3","midi":56,"time":142.67187499999974,"velocity":0.7244094488188977,"duration":0.4348958333333428},{"name":"F3","midi":53,"time":142.67187499999974,"velocity":0.7244094488188977,"duration":0.4348958333333428},{"name":"A#4","midi":70,"time":143.10937499999977,"velocity":0.7244094488188977,"duration":0.2161458333333428},{"name":"F3","midi":53,"time":143.10937499999977,"velocity":0.7244094488188977,"duration":0.43359375},{"name":"D3","midi":50,"time":143.10937499999977,"velocity":0.7244094488188977,"duration":0.43359375},{"name":"G#4","midi":68,"time":143.32812499999977,"velocity":0.7244094488188977,"duration":0.2161458333333428},{"name":"G4","midi":67,"time":143.54557291666646,"velocity":0.7244094488188977,"duration":0.2161458333333428},{"name":"A#3","midi":58,"time":143.54557291666646,"velocity":0.7244094488188977,"duration":0.43359375},{"name":"D#3","midi":51,"time":143.54557291666646,"velocity":0.7244094488188977,"duration":0.43359375},{"name":"D#4","midi":63,"time":143.76432291666646,"velocity":0.7244094488188977,"duration":0.2161458333333428},{"name":"F4","midi":65,"time":143.98177083333314,"velocity":0.7244094488188977,"duration":0.2161458333333428},{"name":"C4","midi":60,"time":143.98177083333314,"velocity":0.7244094488188977,"duration":0.4335937500000284},{"name":"G#3","midi":56,"time":143.98177083333314,"velocity":0.7244094488188977,"duration":0.4335937500000284},{"name":"G4","midi":67,"time":144.19921874999983,"velocity":0.7244094488188977,"duration":0.2161458333333428},{"name":"G#4","midi":68,"time":144.41796874999983,"velocity":0.7244094488188977,"duration":0.2161458333333428},{"name":"A#3","midi":58,"time":144.41796874999983,"velocity":0.7244094488188977,"duration":0.4335937500000284},{"name":"G3","midi":55,"time":144.41796874999983,"velocity":0.7244094488188977,"duration":0.4335937500000284},{"name":"A#4","midi":70,"time":144.63541666666652,"velocity":0.7244094488188977,"duration":0.2161458333333428},{"name":"C5","midi":72,"time":144.85416666666652,"velocity":0.7244094488188977,"duration":0.2161458333333428},{"name":"G#3","midi":56,"time":144.85416666666652,"velocity":0.7244094488188977,"duration":0.4335937500000284},{"name":"F3","midi":53,"time":144.85416666666652,"velocity":0.7244094488188977,"duration":0.4335937500000284},{"name":"D5","midi":74,"time":145.0716145833332,"velocity":0.7244094488188977,"duration":0.2161458333333428},{"name":"D#5","midi":75,"time":145.2890624999999,"velocity":0.7244094488188977,"duration":0.2161458333333428},{"name":"A#3","midi":58,"time":145.2890624999999,"velocity":0.7244094488188977,"duration":0.4088541666666572},{"name":"G3","midi":55,"time":145.2890624999999,"velocity":0.7244094488188977,"duration":0.4088541666666572},{"name":"D5","midi":74,"time":145.5078124999999,"velocity":0.7244094488188977,"duration":0.2174479166666572},{"name":"C5","midi":72,"time":145.7265624999999,"velocity":0.7244094488188977,"duration":0.2161458333333428},{"name":"G3","midi":55,"time":145.7265624999999,"velocity":0.7244094488188977,"duration":0.43359375},{"name":"D#3","midi":51,"time":145.7265624999999,"velocity":0.7244094488188977,"duration":0.43359375},{"name":"D5","midi":74,"time":145.9453124999999,"velocity":0.7244094488188977,"duration":0.2161458333333428},{"name":"D#5","midi":75,"time":146.16276041666657,"velocity":0.7244094488188977,"duration":0.2161458333333428},{"name":"F3","midi":53,"time":146.16276041666657,"velocity":0.7244094488188977,"duration":0.43359375},{"name":"D3","midi":50,"time":146.16276041666657,"velocity":0.7244094488188977,"duration":0.43359375},{"name":"F5","midi":77,"time":146.38151041666657,"velocity":0.7244094488188977,"duration":0.2161458333333428},{"name":"G5","midi":79,"time":146.59895833333326,"velocity":0.7244094488188977,"duration":0.2161458333333428},{"name":"D#3","midi":51,"time":146.59895833333326,"velocity":0.7244094488188977,"duration":0.4335937500000284},{"name":"C3","midi":48,"time":146.59895833333326,"velocity":0.7244094488188977,"duration":0.4335937500000284},{"name":"A5","midi":81,"time":146.81640624999994,"velocity":0.7244094488188977,"duration":0.2161458333333428},{"name":"A#5","midi":82,"time":147.03515624999994,"velocity":0.7244094488188977,"duration":0.2161458333333428},{"name":"F3","midi":53,"time":147.03515624999994,"velocity":0.7244094488188977,"duration":0.3854166666666856},{"name":"D3","midi":50,"time":147.03515624999994,"velocity":0.7244094488188977,"duration":0.3854166666666856},{"name":"F4","midi":65,"time":147.25260416666663,"velocity":0.7244094488188977,"duration":0.2161458333333428},{"name":"G4","midi":67,"time":147.47135416666663,"velocity":0.7244094488188977,"duration":0.2161458333333428},{"name":"C#4","midi":61,"time":147.47135416666663,"velocity":0.7244094488188977,"duration":0.4335937500000284},{"name":"A#3","midi":58,"time":147.47135416666663,"velocity":0.7244094488188977,"duration":0.4335937500000284},{"name":"G#4","midi":68,"time":147.68880208333331,"velocity":0.7244094488188977,"duration":0.2161458333333428},{"name":"A#4","midi":70,"time":147.90625,"velocity":0.7244094488188977,"duration":0.2161458333333428},{"name":"C4","midi":60,"time":147.90625,"velocity":0.7244094488188977,"duration":0.43359375},{"name":"G#3","midi":56,"time":147.90625,"velocity":0.7244094488188977,"duration":0.43359375},{"name":"C5","midi":72,"time":148.125,"velocity":0.7244094488188977,"duration":0.2161458333333428},{"name":"D5","midi":74,"time":148.34244791666669,"velocity":0.7244094488188977,"duration":0.2161458333333428},{"name":"A#3","midi":58,"time":148.34244791666669,"velocity":0.7244094488188977,"duration":0.43359375},{"name":"G3","midi":55,"time":148.34244791666669,"velocity":0.7244094488188977,"duration":0.43359375},{"name":"E5","midi":76,"time":148.56119791666669,"velocity":0.7244094488188977,"duration":0.2161458333333428},{"name":"F5","midi":77,"time":148.77864583333337,"velocity":0.7244094488188977,"duration":0.2161458333333428},{"name":"C4","midi":60,"time":148.77864583333337,"velocity":0.7244094488188977,"duration":0.4088541666666856},{"name":"G#3","midi":56,"time":148.77864583333337,"velocity":0.7244094488188977,"duration":0.4088541666666856},{"name":"D#5","midi":75,"time":148.99609375000006,"velocity":0.7244094488188977,"duration":0.2174479166666572},{"name":"D5","midi":74,"time":149.21614583333337,"velocity":0.7244094488188977,"duration":0.2161458333333428},{"name":"G#3","midi":56,"time":149.21614583333337,"velocity":0.7244094488188977,"duration":0.4335937500000284},{"name":"F3","midi":53,"time":149.21614583333337,"velocity":0.7244094488188977,"duration":0.4335937500000284},{"name":"D#5","midi":75,"time":149.43359375000006,"velocity":0.7244094488188977,"duration":0.2161458333333428},{"name":"F5","midi":77,"time":149.65234375000006,"velocity":0.7244094488188977,"duration":0.2161458333333428},{"name":"G3","midi":55,"time":149.65234375000006,"velocity":0.7244094488188977,"duration":0.4335937500000284},{"name":"D#3","midi":51,"time":149.65234375000006,"velocity":0.7244094488188977,"duration":0.4335937500000284},{"name":"G5","midi":79,"time":149.86979166666674,"velocity":0.7244094488188977,"duration":0.2161458333333428},{"name":"A5","midi":81,"time":150.08854166666674,"velocity":0.7244094488188977,"duration":0.2161458333333428},{"name":"F3","midi":53,"time":150.08854166666674,"velocity":0.7244094488188977,"duration":0.4335937500000284},{"name":"D3","midi":50,"time":150.08854166666674,"velocity":0.7244094488188977,"duration":0.4335937500000284},{"name":"B5","midi":83,"time":150.30598958333343,"velocity":0.7244094488188977,"duration":0.2161458333333428},{"name":"C6","midi":84,"time":150.5234375000001,"velocity":0.7244094488188977,"duration":0.43359375},{"name":"G3","midi":55,"time":150.5234375000001,"velocity":0.7244094488188977,"duration":0.4453125},{"name":"D#3","midi":51,"time":150.5234375000001,"velocity":0.7244094488188977,"duration":0.4453125},{"name":"B5","midi":83,"time":150.95963541666677,"velocity":0.7244094488188977,"duration":0.2161458333333428},{"name":"G4","midi":67,"time":150.95963541666677,"velocity":0.7244094488188977,"duration":0.2161458333333428},{"name":"A5","midi":81,"time":151.17838541666677,"velocity":0.7244094488188977,"duration":0.2161458333333428},{"name":"F#4","midi":66,"time":151.17838541666677,"velocity":0.7244094488188977,"duration":0.2161458333333428},{"name":"G5","midi":79,"time":151.39583333333346,"velocity":0.7244094488188977,"duration":0.2161458333333428},{"name":"G4","midi":67,"time":151.39583333333346,"velocity":0.7244094488188977,"duration":0.4335937500000284},{"name":"F5","midi":77,"time":151.61328125000014,"velocity":0.7244094488188977,"duration":0.2161458333333428},{"name":"D#5","midi":75,"time":151.83203125000014,"velocity":0.7244094488188977,"duration":0.2161458333333428},{"name":"C4","midi":60,"time":151.83203125000014,"velocity":0.7244094488188977,"duration":0.4335937500000284},{"name":"D5","midi":74,"time":152.04947916666683,"velocity":0.7244094488188977,"duration":0.2161458333333428},{"name":"C5","midi":72,"time":152.26822916666683,"velocity":0.7244094488188977,"duration":0.4348958333333428},{"name":"D#4","midi":63,"time":152.26822916666683,"velocity":0.7244094488188977,"duration":0.4348958333333428},{"name":"D#5","midi":75,"time":152.70572916666683,"velocity":0.7244094488188977,"duration":0.4335937500000284},{"name":"G4","midi":67,"time":152.70572916666683,"velocity":0.7244094488188977,"duration":0.2161458333333428},{"name":"C3","midi":48,"time":152.70572916666683,"velocity":0.7244094488188977,"duration":0.4335937500000284},{"name":"F#4","midi":66,"time":152.9231770833335,"velocity":0.7244094488188977,"duration":0.2161458333333428},{"name":"D5","midi":74,"time":153.1406250000002,"velocity":0.7244094488188977,"duration":0.4348958333333428},{"name":"G4","midi":67,"time":153.1406250000002,"velocity":0.7244094488188977,"duration":0.4348958333333428},{"name":"A#2","midi":46,"time":153.1406250000002,"velocity":0.7244094488188977,"duration":0.4348958333333428},{"name":"C5","midi":72,"time":153.57942708333354,"velocity":0.7244094488188977,"duration":0.43359375},{"name":"A4","midi":69,"time":153.57942708333354,"velocity":0.7244094488188977,"duration":0.43359375},{"name":"A2","midi":45,"time":153.57942708333354,"velocity":0.7244094488188977,"duration":0.4322916666666572},{"name":"A#4","midi":70,"time":154.01432291666688,"velocity":0.7244094488188977,"duration":0.4348958333333428},{"name":"D4","midi":62,"time":154.01432291666688,"velocity":0.7244094488188977,"duration":0.4348958333333428},{"name":"A4","midi":69,"time":154.45182291666688,"velocity":0.7244094488188977,"duration":0.43359375},{"name":"G4","midi":67,"time":154.45182291666688,"velocity":0.7244094488188977,"duration":0.2161458333333428},{"name":"D#3","midi":51,"time":154.45182291666688,"velocity":0.7244094488188977,"duration":0.43359375},{"name":"F#4","midi":66,"time":154.67057291666688,"velocity":0.7244094488188977,"duration":0.2161458333333428},{"name":"A#4","midi":70,"time":154.88802083333357,"velocity":0.7244094488188977,"duration":0.4348958333333428},{"name":"G4","midi":67,"time":154.88802083333357,"velocity":0.7244094488188977,"duration":0.4348958333333428},{"name":"D3","midi":50,"time":154.88802083333357,"velocity":0.7244094488188977,"duration":0.4348958333333428},{"name":"C5","midi":72,"time":155.32552083333357,"velocity":0.7244094488188977,"duration":0.4348958333333428},{"name":"A4","midi":69,"time":155.32552083333357,"velocity":0.7244094488188977,"duration":0.4348958333333428},{"name":"C3","midi":48,"time":155.32552083333357,"velocity":0.7244094488188977,"duration":0.4348958333333428},{"name":"F#4","midi":66,"time":155.76302083333357,"velocity":0.7244094488188977,"duration":0.43359375},{"name":"C4","midi":60,"time":155.76302083333357,"velocity":0.7244094488188977,"duration":0.2161458333333428},{"name":"D3","midi":50,"time":155.76302083333357,"velocity":0.7244094488188977,"duration":0.43359375},{"name":"D4","midi":62,"time":155.98177083333357,"velocity":0.7244094488188977,"duration":0.2161458333333428},{"name":"G4","midi":67,"time":156.19921875000026,"velocity":0.7244094488188977,"duration":0.4322916666666572},{"name":"C4","midi":60,"time":156.19921875000026,"velocity":0.7244094488188977,"duration":0.10546875},{"name":"C3","midi":48,"time":156.19921875000026,"velocity":0.7244094488188977,"duration":0.2135416666666572},{"name":"D4","midi":62,"time":156.3072916666669,"velocity":0.7244094488188977,"duration":0.10546875},{"name":"D#4","midi":63,"time":156.41536458333357,"velocity":0.7244094488188977,"duration":0.6536458333333428},{"name":"A#2","midi":46,"time":156.41536458333357,"velocity":0.7244094488188977,"duration":0.2161458333333428},{"name":"A4","midi":69,"time":156.63411458333357,"velocity":0.7244094488188977,"duration":0.4348958333333428},{"name":"C3","midi":48,"time":156.63411458333357,"velocity":0.7244094488188977,"duration":0.4348958333333428},{"name":"F#4","midi":66,"time":157.07161458333357,"velocity":0.7244094488188977,"duration":0.4335937500000284},{"name":"D4","midi":62,"time":157.07161458333357,"velocity":0.7244094488188977,"duration":0.2161458333333428},{"name":"D3","midi":50,"time":157.07161458333357,"velocity":0.7244094488188977,"duration":0.4335937500000284},{"name":"C4","midi":60,"time":157.28906250000026,"velocity":0.7244094488188977,"duration":0.2161458333333428},{"name":"G4","midi":67,"time":157.50651041666694,"velocity":0.7244094488188977,"duration":0.43359375},{"name":"A#3","midi":58,"time":157.50651041666694,"velocity":0.7244094488188977,"duration":0.4322916666666572},{"name":"G2","midi":43,"time":157.50651041666694,"velocity":0.7244094488188977,"duration":0.43359375},{"name":"D5","midi":74,"time":157.9427083333336,"velocity":0.7244094488188977,"duration":0.2161458333333428},{"name":"A#3","midi":58,"time":157.9427083333336,"velocity":0.7244094488188977,"duration":0.2161458333333428},{"name":"C5","midi":72,"time":158.1614583333336,"velocity":0.7244094488188977,"duration":0.2161458333333428},{"name":"A3","midi":57,"time":158.1614583333336,"velocity":0.7244094488188977,"duration":0.2161458333333428},{"name":"D5","midi":74,"time":158.37890625000028,"velocity":0.7244094488188977,"duration":1.0911458333333997},{"name":"A#3","midi":58,"time":158.37890625000028,"velocity":0.7244094488188977,"duration":0.4348958333333428},{"name":"D4","midi":62,"time":158.59895833333363,"velocity":0.7244094488188977,"duration":0.2161458333333428},{"name":"E4","midi":64,"time":158.8164062500003,"velocity":0.7244094488188977,"duration":0.2161458333333428},{"name":"D3","midi":50,"time":158.8164062500003,"velocity":0.7244094488188977,"duration":0.4335937500000284},{"name":"F#4","midi":66,"time":159.033854166667,"velocity":0.7244094488188977,"duration":0.2161458333333428},{"name":"G4","midi":67,"time":159.252604166667,"velocity":0.7244094488188977,"duration":0.2161458333333428},{"name":"D#3","midi":51,"time":159.252604166667,"velocity":0.7244094488188977,"duration":0.4335937500000284},{"name":"A4","midi":69,"time":159.47005208333368,"velocity":0.7244094488188977,"duration":0.2161458333333428},{"name":"E5","midi":76,"time":159.68880208333368,"velocity":0.7244094488188977,"duration":0.2161458333333428},{"name":"A#4","midi":70,"time":159.68880208333368,"velocity":0.7244094488188977,"duration":0.651041666666714},{"name":"C4","midi":60,"time":159.68880208333368,"velocity":0.7244094488188977,"duration":0.2161458333333428},{"name":"D5","midi":74,"time":159.90625000000037,"velocity":0.7244094488188977,"duration":0.2161458333333428},{"name":"A#3","midi":58,"time":159.90625000000037,"velocity":0.7244094488188977,"duration":0.2161458333333428},{"name":"E5","midi":76,"time":160.12369791666706,"velocity":0.7244094488188977,"duration":0.8632812500000284},{"name":"C4","midi":60,"time":160.12369791666706,"velocity":0.7244094488188977,"duration":0.43359375},{"name":"E4","midi":64,"time":160.34244791666706,"velocity":0.7244094488188977,"duration":0.2161458333333428},{"name":"F4","midi":65,"time":160.55989583333374,"velocity":0.7244094488188977,"duration":0.2161458333333428},{"name":"E3","midi":52,"time":160.55989583333374,"velocity":0.7244094488188977,"duration":0.43359375},{"name":"G4","midi":67,"time":160.77864583333374,"velocity":0.7244094488188977,"duration":0.2161458333333428},{"name":"A4","midi":69,"time":160.99609375000043,"velocity":0.7244094488188977,"duration":0.2161458333333428},{"name":"F3","midi":53,"time":160.99609375000043,"velocity":0.7244094488188977,"duration":0.4335937500000284},{"name":"A#4","midi":70,"time":161.2135416666671,"velocity":0.7244094488188977,"duration":0.2161458333333428},{"name":"F#5","midi":78,"time":161.4322916666671,"velocity":0.7244094488188977,"duration":0.2161458333333428},{"name":"C5","midi":72,"time":161.4322916666671,"velocity":0.7244094488188977,"duration":0.6510416666666856},{"name":"D4","midi":62,"time":161.4322916666671,"velocity":0.7244094488188977,"duration":0.2161458333333428},{"name":"E5","midi":76,"time":161.6497395833338,"velocity":0.7244094488188977,"duration":0.2161458333333428},{"name":"C4","midi":60,"time":161.6497395833338,"velocity":0.7244094488188977,"duration":0.2161458333333428},{"name":"F#5","midi":78,"time":161.8684895833338,"velocity":0.7244094488188977,"duration":0.4322916666666572},{"name":"D4","midi":62,"time":161.8684895833338,"velocity":0.7244094488188977,"duration":0.43359375},{"name":"F#4","midi":66,"time":162.08593750000045,"velocity":0.7244094488188977,"duration":0.2161458333333428},{"name":"G4","midi":67,"time":162.30338541666714,"velocity":0.7244094488188977,"duration":0.2161458333333428},{"name":"F#3","midi":54,"time":162.30338541666714,"velocity":0.7244094488188977,"duration":0.43359375},{"name":"A4","midi":69,"time":162.52213541666714,"velocity":0.7244094488188977,"duration":0.2161458333333428},{"name":"A#4","midi":70,"time":162.73958333333383,"velocity":0.7244094488188977,"duration":0.4348958333333428},{"name":"G3","midi":55,"time":162.73958333333383,"velocity":0.7244094488188977,"duration":1.0000000000000284},{"name":"G4","midi":67,"time":163.17708333333383,"velocity":0.7244094488188977,"duration":0.2161458333333428},{"name":"D#4","midi":63,"time":163.17708333333383,"velocity":0.7244094488188977,"duration":0.2161458333333428},{"name":"F4","midi":65,"time":163.39583333333383,"velocity":0.7244094488188977,"duration":0.2161458333333428},{"name":"D4","midi":62,"time":163.39583333333383,"velocity":0.7244094488188977,"duration":0.2161458333333428},{"name":"G4","midi":67,"time":163.6132812500005,"velocity":0.7244094488188977,"duration":0.8632812500000284},{"name":"D#4","midi":63,"time":163.6132812500005,"velocity":0.7244094488188977,"duration":0.43359375},{"name":"G2","midi":43,"time":163.8320312500005,"velocity":0.7244094488188977,"duration":0.2161458333333428},{"name":"G3","midi":55,"time":164.0494791666672,"velocity":0.7244094488188977,"duration":0.43359375},{"name":"A2","midi":45,"time":164.0494791666672,"velocity":0.7244094488188977,"duration":0.2161458333333428},{"name":"B2","midi":47,"time":164.26692708333388,"velocity":0.7244094488188977,"duration":0.21614583333331439},{"name":"G#3","midi":56,"time":164.48567708333385,"velocity":0.7244094488188977,"duration":0.4335937500000284},{"name":"C3","midi":48,"time":164.48567708333385,"velocity":0.7244094488188977,"duration":0.2161458333333428},{"name":"D3","midi":50,"time":164.70312500000054,"velocity":0.7244094488188977,"duration":0.2161458333333428},{"name":"A4","midi":69,"time":164.92187500000054,"velocity":0.7244094488188977,"duration":0.2161458333333428},{"name":"F4","midi":65,"time":164.92187500000054,"velocity":0.7244094488188977,"duration":0.2161458333333428},{"name":"D#3","midi":51,"time":164.92187500000054,"velocity":0.7244094488188977,"duration":0.545572916666714},{"name":"G4","midi":67,"time":165.13932291666723,"velocity":0.7244094488188977,"duration":0.2161458333333428},{"name":"D#4","midi":63,"time":165.13932291666723,"velocity":0.7244094488188977,"duration":0.2161458333333428},{"name":"A4","midi":69,"time":165.3567708333339,"velocity":0.7244094488188977,"duration":0.8645833333333712},{"name":"F4","midi":65,"time":165.3567708333339,"velocity":0.7244094488188977,"duration":0.4348958333333428},{"name":"A2","midi":45,"time":165.57682291666725,"velocity":0.7244094488188977,"duration":0.2161458333333428},{"name":"A3","midi":57,"time":165.79427083333394,"velocity":0.7244094488188977,"duration":0.43359375},{"name":"A#2","midi":46,"time":165.79427083333394,"velocity":0.7244094488188977,"duration":0.2161458333333428},{"name":"C3","midi":48,"time":166.01302083333394,"velocity":0.7244094488188977,"duration":0.2161458333333428},{"name":"A#3","midi":58,"time":166.23046875000063,"velocity":0.7244094488188977,"duration":0.43359375},{"name":"D3","midi":50,"time":166.23046875000063,"velocity":0.7244094488188977,"duration":0.2161458333333428},{"name":"D#3","midi":51,"time":166.44921875000063,"velocity":0.7244094488188977,"duration":0.2161458333333428},{"name":"B4","midi":71,"time":166.6666666666673,"velocity":0.7244094488188977,"duration":0.2161458333333428},{"name":"G4","midi":67,"time":166.6666666666673,"velocity":0.7244094488188977,"duration":0.2161458333333428},{"name":"F3","midi":53,"time":166.6666666666673,"velocity":0.7244094488188977,"duration":0.5455729166666856},{"name":"A4","midi":69,"time":166.884114583334,"velocity":0.7244094488188977,"duration":0.2161458333333428},{"name":"F4","midi":65,"time":166.884114583334,"velocity":0.7244094488188977,"duration":0.2161458333333428},{"name":"B4","midi":71,"time":167.102864583334,"velocity":0.7244094488188977,"duration":0.8645833333333428},{"name":"G4","midi":67,"time":167.102864583334,"velocity":0.7244094488188977,"duration":0.4348958333333428},{"name":"B2","midi":47,"time":167.321614583334,"velocity":0.7244094488188977,"duration":0.2161458333333428},{"name":"B3","midi":59,"time":167.540364583334,"velocity":0.7244094488188977,"duration":0.43359375},{"name":"C3","midi":48,"time":167.540364583334,"velocity":0.7244094488188977,"duration":0.2161458333333428},{"name":"D3","midi":50,"time":167.75781250000068,"velocity":0.7244094488188977,"duration":0.21614583333331439},{"name":"C4","midi":60,"time":167.97656250000065,"velocity":0.7244094488188977,"duration":0.2161458333333428},{"name":"D#3","midi":51,"time":167.97656250000065,"velocity":0.7244094488188977,"duration":1.041666666666714},{"name":"F4","midi":65,"time":168.19401041666734,"velocity":0.7244094488188977,"duration":0.2161458333333428},{"name":"C5","midi":72,"time":168.41145833333402,"velocity":0.7244094488188977,"duration":0.2161458333333428},{"name":"D#4","midi":63,"time":168.41145833333402,"velocity":0.7244094488188977,"duration":0.2161458333333428},{"name":"B4","midi":71,"time":168.63020833333402,"velocity":0.7244094488188977,"duration":0.2161458333333428},{"name":"D4","midi":62,"time":168.63020833333402,"velocity":0.7244094488188977,"duration":0.2161458333333428},{"name":"C5","midi":72,"time":168.8476562500007,"velocity":0.7244094488188977,"duration":0.4335937499999716},{"name":"C4","midi":60,"time":168.8476562500007,"velocity":0.7244094488188977,"duration":0.21614583333331439},{"name":"A#3","midi":58,"time":169.06640625000068,"velocity":0.7244094488188977,"duration":0.2161458333333428},{"name":"G4","midi":67,"time":169.28385416666737,"velocity":0.7244094488188977,"duration":0.4335937500000284},{"name":"G#3","midi":56,"time":169.28385416666737,"velocity":0.7244094488188977,"duration":0.2161458333333428},{"name":"E3","midi":52,"time":169.28385416666737,"velocity":0.7244094488188977,"duration":0.4335937500000284},{"name":"G3","midi":55,"time":169.50130208333405,"velocity":0.7244094488188977,"duration":0.2161458333333428},{"name":"G#4","midi":68,"time":169.72005208333405,"velocity":0.7244094488188977,"duration":0.4348958333333428},{"name":"F3","midi":53,"time":169.72005208333405,"velocity":0.7244094488188977,"duration":0.4348958333333428},{"name":"C5","midi":72,"time":170.15755208333405,"velocity":0.7244094488188977,"duration":0.2161458333333428},{"name":"G#4","midi":68,"time":170.15755208333405,"velocity":0.7244094488188977,"duration":0.4335937500000284},{"name":"F2","midi":41,"time":170.15755208333405,"velocity":0.7244094488188977,"duration":0.4335937500000284},{"name":"B4","midi":71,"time":170.37500000000074,"velocity":0.7244094488188977,"duration":0.2161458333333428},{"name":"C5","midi":72,"time":170.59375000000074,"velocity":0.7244094488188977,"duration":0.4348958333333428},{"name":"G4","midi":67,"time":170.59375000000074,"velocity":0.7244094488188977,"duration":0.4348958333333428},{"name":"D#2","midi":39,"time":170.59375000000074,"velocity":0.7244094488188977,"duration":0.4348958333333428},{"name":"D5","midi":74,"time":171.03125000000074,"velocity":0.7244094488188977,"duration":0.43359375},{"name":"F4","midi":65,"time":171.03125000000074,"velocity":0.7244094488188977,"duration":0.43359375},{"name":"D2","midi":38,"time":171.03125000000074,"velocity":0.7244094488188977,"duration":0.4322916666666572},{"name":"G4","midi":67,"time":171.46614583333408,"velocity":0.7244094488188977,"duration":0.4348958333333428},{"name":"D#4","midi":63,"time":171.46614583333408,"velocity":0.7244094488188977,"duration":0.4348958333333428},{"name":"C5","midi":72,"time":171.90494791666742,"velocity":0.7244094488188977,"duration":0.2161458333333428},{"name":"D4","midi":62,"time":171.90494791666742,"velocity":0.7244094488188977,"duration":0.4335937500000284},{"name":"G#2","midi":44,"time":171.90494791666742,"velocity":0.7244094488188977,"duration":0.4335937500000284},{"name":"B4","midi":71,"time":172.1223958333341,"velocity":0.7244094488188977,"duration":0.2161458333333428},{"name":"C5","midi":72,"time":172.3398437500008,"velocity":0.7244094488188977,"duration":0.4348958333333428},{"name":"D#4","midi":63,"time":172.3398437500008,"velocity":0.7244094488188977,"duration":0.4348958333333428},{"name":"G2","midi":43,"time":172.3398437500008,"velocity":0.7244094488188977,"duration":0.4348958333333428},{"name":"D5","midi":74,"time":172.7773437500008,"velocity":0.7244094488188977,"duration":0.3515625},{"name":"F4","midi":65,"time":172.7773437500008,"velocity":0.7244094488188977,"duration":0.4348958333333428},{"name":"F2","midi":41,"time":172.7773437500008,"velocity":0.7244094488188977,"duration":0.4348958333333428},{"name":"F4","midi":65,"time":173.2148437500008,"velocity":0.7244094488188977,"duration":0.2161458333333428},{"name":"B3","midi":59,"time":173.2148437500008,"velocity":0.7244094488188977,"duration":0.43359375},{"name":"G2","midi":43,"time":173.2148437500008,"velocity":0.7244094488188977,"duration":0.43359375},{"name":"G4","midi":67,"time":173.4335937500008,"velocity":0.7244094488188977,"duration":0.2161458333333428},{"name":"F4","midi":65,"time":173.65104166666748,"velocity":0.7244094488188977,"duration":0.10546875},{"name":"C4","midi":60,"time":173.65104166666748,"velocity":0.7244094488188977,"duration":0.4322916666666572},{"name":"F2","midi":41,"time":173.65104166666748,"velocity":0.7244094488188977,"duration":0.2135416666666572},{"name":"G4","midi":67,"time":173.75911458333414,"velocity":0.7244094488188977,"duration":0.10546875},{"name":"G#4","midi":68,"time":173.8671875000008,"velocity":0.7244094488188977,"duration":0.6536458333333428},{"name":"D#2","midi":39,"time":173.8671875000008,"velocity":0.7244094488188977,"duration":0.2161458333333428},{"name":"D4","midi":62,"time":174.0859375000008,"velocity":0.7244094488188977,"duration":0.4348958333333428},{"name":"F2","midi":41,"time":174.0859375000008,"velocity":0.7244094488188977,"duration":0.4348958333333428},{"name":"G4","midi":67,"time":174.5234375000008,"velocity":0.7244094488188977,"duration":0.2161458333333428},{"name":"B3","midi":59,"time":174.5234375000008,"velocity":0.7244094488188977,"duration":0.4335937500000284},{"name":"G2","midi":43,"time":174.5234375000008,"velocity":0.7244094488188977,"duration":0.4335937500000284},{"name":"F4","midi":65,"time":174.74088541666748,"velocity":0.7244094488188977,"duration":0.2161458333333428},{"name":"D#4","midi":63,"time":174.95963541666748,"velocity":0.7244094488188977,"duration":0.4335937500000284},{"name":"C4","midi":60,"time":174.95963541666748,"velocity":0.7244094488188977,"duration":0.8632812500000284},{"name":"C3","midi":48,"time":174.95963541666748,"velocity":0.7244094488188977,"duration":0.2161458333333428},{"name":"D3","midi":50,"time":175.17708333333417,"velocity":0.7244094488188977,"duration":0.2161458333333428},{"name":"C5","midi":72,"time":175.39453125000085,"velocity":0.7244094488188977,"duration":0.2161458333333428},{"name":"D#3","midi":51,"time":175.39453125000085,"velocity":0.7244094488188977,"duration":0.2161458333333428},{"name":"B4","midi":71,"time":175.61328125000085,"velocity":0.7244094488188977,"duration":0.21614583333331439},{"name":"D3","midi":50,"time":175.61328125000085,"velocity":0.7244094488188977,"duration":0.21614583333331439},{"name":"C5","midi":72,"time":175.8307291666675,"velocity":0.7244094488188977,"duration":0.3515625},{"name":"C3","midi":48,"time":175.8307291666675,"velocity":0.7244094488188977,"duration":0.2161458333333428},{"name":"A#2","midi":46,"time":176.0494791666675,"velocity":0.7244094488188977,"duration":0.2161458333333428},{"name":"G4","midi":67,"time":176.2669270833342,"velocity":0.7244094488188977,"duration":0.4335937500000284},{"name":"E4","midi":64,"time":176.2669270833342,"velocity":0.7244094488188977,"duration":0.4335937500000284},{"name":"G#2","midi":44,"time":176.2669270833342,"velocity":0.7244094488188977,"duration":0.2161458333333428},{"name":"G2","midi":43,"time":176.48437500000088,"velocity":0.7244094488188977,"duration":0.2161458333333428},{"name":"G#4","midi":68,"time":176.70312500000088,"velocity":0.7244094488188977,"duration":1.1796875000000568},{"name":"F4","midi":65,"time":176.70312500000088,"velocity":0.7244094488188977,"duration":0.4335937500000284},{"name":"F2","midi":41,"time":176.70312500000088,"velocity":0.7244094488188977,"duration":0.2161458333333428},{"name":"A#3","midi":58,"time":176.92057291666757,"velocity":0.7244094488188977,"duration":0.2161458333333428},{"name":"F4","midi":65,"time":177.13932291666757,"velocity":0.7244094488188977,"duration":0.2161458333333428},{"name":"G#3","midi":56,"time":177.13932291666757,"velocity":0.7244094488188977,"duration":0.2161458333333428},{"name":"E4","midi":64,"time":177.35677083333425,"velocity":0.7244094488188977,"duration":0.2161458333333428},{"name":"G3","midi":55,"time":177.35677083333425,"velocity":0.7244094488188977,"duration":0.2161458333333428},{"name":"F4","midi":65,"time":177.57421875000094,"velocity":0.7244094488188977,"duration":0.43359375},{"name":"F3","midi":53,"time":177.57421875000094,"velocity":0.7244094488188977,"duration":0.2161458333333428},{"name":"D#3","midi":51,"time":177.79296875000094,"velocity":0.7244094488188977,"duration":0.2161458333333428},{"name":"A4","midi":69,"time":178.01041666666762,"velocity":0.7244094488188977,"duration":0.43359375},{"name":"C4","midi":60,"time":178.01041666666762,"velocity":0.7244094488188977,"duration":0.43359375},{"name":"D3","midi":50,"time":178.01041666666762,"velocity":0.7244094488188977,"duration":0.2161458333333428},{"name":"C3","midi":48,"time":178.22916666666762,"velocity":0.7244094488188977,"duration":0.2161458333333428},{"name":"A#4","midi":70,"time":178.4466145833343,"velocity":0.7244094488188977,"duration":0.4335937500000284},{"name":"D4","midi":62,"time":178.4466145833343,"velocity":0.7244094488188977,"duration":1.0898437500000568},{"name":"A#2","midi":46,"time":178.4466145833343,"velocity":0.7244094488188977,"duration":0.2161458333333428},{"name":"C3","midi":48,"time":178.664062500001,"velocity":0.7244094488188977,"duration":0.2161458333333428},{"name":"A#4","midi":70,"time":178.882812500001,"velocity":0.7244094488188977,"duration":0.2161458333333428},{"name":"D3","midi":50,"time":178.882812500001,"velocity":0.7244094488188977,"duration":0.2161458333333428},{"name":"A4","midi":69,"time":179.10026041666768,"velocity":0.7244094488188977,"duration":0.2161458333333428},{"name":"C3","midi":48,"time":179.10026041666768,"velocity":0.7244094488188977,"duration":0.2161458333333428},{"name":"A#4","midi":70,"time":179.31901041666768,"velocity":0.7244094488188977,"duration":0.3515625000000284},{"name":"A#2","midi":46,"time":179.31901041666768,"velocity":0.7244094488188977,"duration":0.2161458333333428},{"name":"G#2","midi":44,"time":179.53645833333437,"velocity":0.7244094488188977,"duration":0.2161458333333428},{"name":"F4","midi":65,"time":179.75390625000105,"velocity":0.7244094488188977,"duration":0.43359375},{"name":"D4","midi":62,"time":179.75390625000105,"velocity":0.7244094488188977,"duration":0.43359375},{"name":"G2","midi":43,"time":179.75390625000105,"velocity":0.7244094488188977,"duration":0.2161458333333428},{"name":"F2","midi":41,"time":179.97265625000105,"velocity":0.7244094488188977,"duration":0.2161458333333428},{"name":"G4","midi":67,"time":180.19010416666774,"velocity":0.7244094488188977,"duration":1.2044270833333997},{"name":"D#4","midi":63,"time":180.19010416666774,"velocity":0.7244094488188977,"duration":0.43359375},{"name":"D#2","midi":39,"time":180.19010416666774,"velocity":0.7244094488188977,"duration":0.2161458333333428},{"name":"G#3","midi":56,"time":180.40885416666774,"velocity":0.7244094488188977,"duration":0.2161458333333428},{"name":"D#4","midi":63,"time":180.62630208333442,"velocity":0.7244094488188977,"duration":0.2161458333333428},{"name":"G3","midi":55,"time":180.62630208333442,"velocity":0.7244094488188977,"duration":0.2161458333333428},{"name":"D4","midi":62,"time":180.8437500000011,"velocity":0.7244094488188977,"duration":0.2161458333333428},{"name":"F3","midi":53,"time":180.8437500000011,"velocity":0.7244094488188977,"duration":0.2161458333333428},{"name":"D#4","midi":63,"time":181.0625000000011,"velocity":0.7244094488188977,"duration":0.43489583333337123},{"name":"D#3","midi":51,"time":181.0625000000011,"velocity":0.7244094488188977,"duration":0.2161458333333428},{"name":"C#3","midi":49,"time":181.2799479166678,"velocity":0.7244094488188977,"duration":0.21744791666668561},{"name":"G4","midi":67,"time":181.50000000000114,"velocity":0.7244094488188977,"duration":0.869791666666714},{"name":"A#3","midi":58,"time":181.50000000000114,"velocity":0.7244094488188977,"duration":0.4335937500000284},{"name":"C3","midi":48,"time":181.50000000000114,"velocity":0.7244094488188977,"duration":0.2161458333333428},{"name":"A#2","midi":46,"time":181.71744791666782,"velocity":0.7244094488188977,"duration":0.2161458333333428},{"name":"C4","midi":60,"time":181.93619791666782,"velocity":0.7244094488188977,"duration":2.0429687500001137},{"name":"G#2","midi":44,"time":181.93619791666782,"velocity":0.7244094488188977,"duration":0.2161458333333428},{"name":"A#2","midi":46,"time":182.1536458333345,"velocity":0.7244094488188977,"duration":0.2161458333333428},{"name":"G#4","midi":68,"time":182.3710937500012,"velocity":0.7244094488188977,"duration":0.2161458333333428},{"name":"C3","midi":48,"time":182.3710937500012,"velocity":0.7244094488188977,"duration":0.2161458333333428},{"name":"A#4","midi":70,"time":182.5898437500012,"velocity":0.7244094488188977,"duration":0.2161458333333428},{"name":"A#2","midi":46,"time":182.5898437500012,"velocity":0.7244094488188977,"duration":0.2161458333333428},{"name":"C5","midi":72,"time":182.80729166666788,"velocity":0.7244094488188977,"duration":0.2161458333333428},{"name":"G#2","midi":44,"time":182.80729166666788,"velocity":0.7244094488188977,"duration":0.2161458333333428},{"name":"B4","midi":71,"time":183.02604166666788,"velocity":0.7244094488188977,"duration":0.2161458333333428},{"name":"G2","midi":43,"time":183.02604166666788,"velocity":0.7244094488188977,"duration":0.2161458333333428},{"name":"C5","midi":72,"time":183.24348958333456,"velocity":0.7244094488188977,"duration":0.2161458333333428},{"name":"F2","midi":41,"time":183.24348958333456,"velocity":0.7244094488188977,"duration":0.2161458333333428},{"name":"G#4","midi":68,"time":183.46093750000125,"velocity":0.7244094488188977,"duration":0.2161458333333428},{"name":"D#2","midi":39,"time":183.46093750000125,"velocity":0.7244094488188977,"duration":0.2161458333333428},{"name":"F4","midi":65,"time":183.67968750000125,"velocity":0.7244094488188977,"duration":0.8632812500000284},{"name":"D2","midi":38,"time":183.67968750000125,"velocity":0.7244094488188977,"duration":0.2161458333333428},{"name":"G3","midi":55,"time":183.89713541666794,"velocity":0.7244094488188977,"duration":0.2161458333333428},{"name":"D4","midi":62,"time":184.11588541666794,"velocity":0.7244094488188977,"duration":0.2161458333333428},{"name":"F3","midi":53,"time":184.11588541666794,"velocity":0.7244094488188977,"duration":0.2161458333333428},{"name":"D#4","midi":63,"time":184.33333333333462,"velocity":0.7244094488188977,"duration":0.21614583333331439},{"name":"D#3","midi":51,"time":184.33333333333462,"velocity":0.7244094488188977,"duration":0.21614583333331439},{"name":"F4","midi":65,"time":184.55078125000128,"velocity":0.7244094488188977,"duration":0.2161458333333428},{"name":"D3","midi":50,"time":184.55078125000128,"velocity":0.7244094488188977,"duration":0.2161458333333428},{"name":"D#4","midi":63,"time":184.76953125000128,"velocity":0.7244094488188977,"duration":0.2161458333333428},{"name":"C3","midi":48,"time":184.76953125000128,"velocity":0.7244094488188977,"duration":0.2161458333333428},{"name":"F4","midi":65,"time":184.98697916666796,"velocity":0.7244094488188977,"duration":0.4322916666666572},{"name":"B2","midi":47,"time":184.98697916666796,"velocity":0.7244094488188977,"duration":0.2161458333333428},{"name":"D4","midi":62,"time":185.20572916666796,"velocity":0.7244094488188977,"duration":0.21614583333331439},{"name":"A2","midi":45,"time":185.20572916666796,"velocity":0.7244094488188977,"duration":0.21614583333331439},{"name":"B3","midi":59,"time":185.42317708333462,"velocity":0.7244094488188977,"duration":0.4322916666666572},{"name":"G2","midi":43,"time":185.42317708333462,"velocity":0.7244094488188977,"duration":1.8203125000000284},{"name":"D5","midi":74,"time":185.86067708333462,"velocity":0.7244094488188977,"duration":0.2161458333333428},{"name":"C5","midi":72,"time":186.0781250000013,"velocity":0.7244094488188977,"duration":0.2161458333333428},{"name":"D5","midi":74,"time":186.2968750000013,"velocity":0.7244094488188977,"duration":0.3515625},{"name":"F4","midi":65,"time":186.7343750000013,"velocity":0.7244094488188977,"duration":0.4348958333333428},{"name":"B3","midi":59,"time":186.7343750000013,"velocity":0.7244094488188977,"duration":0.4348958333333428},{"name":"D#4","midi":63,"time":187.1718750000013,"velocity":0.7244094488188977,"duration":0.4335937500000284},{"name":"C4","midi":60,"time":187.1718750000013,"velocity":0.7244094488188977,"duration":0.4322916666666856},{"name":"G2","midi":43,"time":187.389322916668,"velocity":0.7244094488188977,"duration":0.2161458333333428},{"name":"D#5","midi":75,"time":187.608072916668,"velocity":0.7244094488188977,"duration":0.2161458333333428},{"name":"A2","midi":45,"time":187.608072916668,"velocity":0.7244094488188977,"duration":0.2161458333333428},{"name":"D5","midi":74,"time":187.82552083333468,"velocity":0.7244094488188977,"duration":0.2161458333333428},{"name":"B2","midi":47,"time":187.82552083333468,"velocity":0.7244094488188977,"duration":0.2161458333333428},{"name":"D#5","midi":75,"time":188.04427083333468,"velocity":0.7244094488188977,"duration":0.3515625000000284},{"name":"C3","midi":48,"time":188.04427083333468,"velocity":0.7244094488188977,"duration":0.2161458333333428},{"name":"D3","midi":50,"time":188.26171875000136,"velocity":0.7244094488188977,"duration":0.2161458333333428},{"name":"G4","midi":67,"time":188.47916666666805,"velocity":0.7244094488188977,"duration":0.43359375},{"name":"D#4","midi":63,"time":188.47916666666805,"velocity":0.7244094488188977,"duration":0.43359375},{"name":"D#3","midi":51,"time":188.47916666666805,"velocity":0.7244094488188977,"duration":0.2161458333333428},{"name":"F3","midi":53,"time":188.69791666666805,"velocity":0.7244094488188977,"duration":0.2161458333333428},{"name":"F4","midi":65,"time":188.91536458333474,"velocity":0.7244094488188977,"duration":0.43359375},{"name":"D4","midi":62,"time":188.91536458333474,"velocity":0.7244094488188977,"duration":1.0898437500000568},{"name":"G3","midi":55,"time":188.91536458333474,"velocity":0.7244094488188977,"duration":0.2161458333333428},{"name":"F3","midi":53,"time":189.13411458333474,"velocity":0.7244094488188977,"duration":0.2161458333333428},{"name":"F5","midi":77,"time":189.35156250000142,"velocity":0.7244094488188977,"duration":0.2161458333333428},{"name":"G#3","midi":56,"time":189.35156250000142,"velocity":0.7244094488188977,"duration":0.2161458333333428},{"name":"D#5","midi":75,"time":189.5690104166681,"velocity":0.7244094488188977,"duration":0.2161458333333428},{"name":"G3","midi":55,"time":189.5690104166681,"velocity":0.7244094488188977,"duration":0.2161458333333428},{"name":"F5","midi":77,"time":189.7877604166681,"velocity":0.7244094488188977,"duration":0.3515625000000284},{"name":"F3","midi":53,"time":189.7877604166681,"velocity":0.7244094488188977,"duration":0.2161458333333428},{"name":"D#3","midi":51,"time":190.0052083333348,"velocity":0.7244094488188977,"duration":0.2161458333333428},{"name":"G#4","midi":68,"time":190.2239583333348,"velocity":0.7244094488188977,"duration":0.4335937500000284},{"name":"F4","midi":65,"time":190.2239583333348,"velocity":0.7244094488188977,"duration":0.8632812500000284},{"name":"D3","midi":50,"time":190.2239583333348,"velocity":0.7244094488188977,"duration":0.2161458333333428},{"name":"C3","midi":48,"time":190.44140625000148,"velocity":0.7244094488188977,"duration":0.2161458333333428},{"name":"G4","midi":67,"time":190.65885416666816,"velocity":0.7244094488188977,"duration":0.2161458333333428},{"name":"B2","midi":47,"time":190.65885416666816,"velocity":0.7244094488188977,"duration":0.43359375},{"name":"F5","midi":77,"time":190.87760416666816,"velocity":0.7244094488188977,"duration":0.2161458333333428},{"name":"D#5","midi":75,"time":191.09505208333485,"velocity":0.7244094488188977,"duration":0.2161458333333428},{"name":"C3","midi":48,"time":191.09505208333485,"velocity":0.7244094488188977,"duration":0.2161458333333428},{"name":"D5","midi":74,"time":191.31380208333485,"velocity":0.7244094488188977,"duration":0.2161458333333428},{"name":"B2","midi":47,"time":191.31380208333485,"velocity":0.7244094488188977,"duration":0.2161458333333428},{"name":"C5","midi":72,"time":191.53125000000153,"velocity":0.7244094488188977,"duration":0.2161458333333428},{"name":"C3","midi":48,"time":191.53125000000153,"velocity":0.7244094488188977,"duration":0.4335937500000284},{"name":"B4","midi":71,"time":191.74869791666822,"velocity":0.7244094488188977,"duration":0.2161458333333428},{"name":"A4","midi":69,"time":191.96744791666822,"velocity":0.7244094488188977,"duration":0.2161458333333428},{"name":"F4","midi":65,"time":191.96744791666822,"velocity":0.7244094488188977,"duration":0.4335937500000284},{"name":"G2","midi":43,"time":191.96744791666822,"velocity":0.7244094488188977,"duration":0.4335937500000284},{"name":"G4","midi":67,"time":192.1848958333349,"velocity":0.7244094488188977,"duration":0.2161458333333428},{"name":"C5","midi":72,"time":192.4036458333349,"velocity":0.7244094488188977,"duration":0.4348958333333428},{"name":"D#4","midi":63,"time":192.4036458333349,"velocity":0.7244094488188977,"duration":0.4348958333333428},{"name":"G#2","midi":44,"time":192.4036458333349,"velocity":0.7244094488188977,"duration":0.4348958333333428},{"name":"F5","midi":77,"time":192.8411458333349,"velocity":0.7244094488188977,"duration":0.4335937500000284},{"name":"G#4","midi":68,"time":192.8411458333349,"velocity":0.7244094488188977,"duration":0.4335937500000284},{"name":"C3","midi":48,"time":192.8411458333349,"velocity":0.7244094488188977,"duration":0.2161458333333428},{"name":"B2","midi":47,"time":193.0585937500016,"velocity":0.7244094488188977,"duration":0.2161458333333428},{"name":"D#5","midi":75,"time":193.27604166666828,"velocity":0.7244094488188977,"duration":0.4348958333333428},{"name":"G4","midi":67,"time":193.27604166666828,"velocity":0.7244094488188977,"duration":0.4348958333333428},{"name":"C3","midi":48,"time":193.27604166666828,"velocity":0.7244094488188977,"duration":0.4348958333333428},{"name":"D5","midi":74,"time":193.71354166666828,"velocity":0.7244094488188977,"duration":0.4322916666666572},{"name":"F4","midi":65,"time":193.71354166666828,"velocity":0.7244094488188977,"duration":0.43359375},{"name":"D3","midi":50,"time":193.71354166666828,"velocity":0.7244094488188977,"duration":0.43359375},{"name":"D#4","midi":63,"time":194.14973958333493,"velocity":0.7244094488188977,"duration":0.4348958333333428},{"name":"G2","midi":43,"time":194.14973958333493,"velocity":0.7244094488188977,"duration":0.4348958333333428},{"name":"G#4","midi":68,"time":194.58723958333493,"velocity":0.7244094488188977,"duration":0.43359375},{"name":"D4","midi":62,"time":194.58723958333493,"velocity":0.7244094488188977,"duration":0.43359375},{"name":"C3","midi":48,"time":194.58723958333493,"velocity":0.7244094488188977,"duration":0.2161458333333428},{"name":"B2","midi":47,"time":194.80598958333493,"velocity":0.7244094488188977,"duration":0.2161458333333428},{"name":"G4","midi":67,"time":195.02343750000162,"velocity":0.7244094488188977,"duration":0.4348958333333428},{"name":"D#4","midi":63,"time":195.02343750000162,"velocity":0.7244094488188977,"duration":0.4348958333333428},{"name":"C3","midi":48,"time":195.02343750000162,"velocity":0.7244094488188977,"duration":0.4348958333333428},{"name":"F4","midi":65,"time":195.46093750000162,"velocity":0.7244094488188977,"duration":0.4348958333333428},{"name":"D4","midi":62,"time":195.46093750000162,"velocity":0.7244094488188977,"duration":0.4348958333333428},{"name":"D3","midi":50,"time":195.46093750000162,"velocity":0.7244094488188977,"duration":0.4348958333333428},{"name":"G4","midi":67,"time":195.89843750000162,"velocity":0.7244094488188977,"duration":0.4427083333333144},{"name":"B3","midi":59,"time":195.89843750000162,"velocity":0.7244094488188977,"duration":0.4427083333333144},{"name":"F2","midi":41,"time":195.89843750000162,"velocity":0.7244094488188977,"duration":0.2291666666666572},{"name":"G2","midi":43,"time":196.13151041666828,"velocity":0.7244094488188977,"duration":0.2291666666666572},{"name":"F4","midi":65,"time":196.3632812500016,"velocity":0.7244094488188977,"duration":0.2291666666666572},{"name":"C4","midi":60,"time":196.3632812500016,"velocity":0.7244094488188977,"duration":0.4427083333333144},{"name":"G#2","midi":44,"time":196.3632812500016,"velocity":0.7244094488188977,"duration":0.4609374999999716},{"name":"D#4","midi":63,"time":196.59635416666825,"velocity":0.7244094488188977,"duration":0.203125},{"name":"F4","midi":65,"time":196.82812500000156,"velocity":0.7244094488188977,"duration":0.4296875},{"name":"D4","midi":62,"time":196.82812500000156,"velocity":0.7244094488188977,"duration":0.4296875},{"name":"G#2","midi":44,"time":196.82812500000156,"velocity":0.7244094488188977,"duration":0.4609375},{"name":"D4","midi":62,"time":197.2942708333349,"velocity":0.7244094488188977,"duration":0.4166666666666572},{"name":"B3","midi":59,"time":197.2942708333349,"velocity":0.7244094488188977,"duration":0.4166666666666572},{"name":"G2","midi":43,"time":197.2942708333349,"velocity":0.7244094488188977,"duration":0.2291666666666572},{"name":"F2","midi":41,"time":197.52604166666822,"velocity":0.7244094488188977,"duration":0.22916666666668561},{"name":"D#2","midi":39,"time":197.77994791666825,"velocity":0.7244094488188977,"duration":1.5364583333333428},{"name":"B3","midi":59,"time":197.77994791666825,"velocity":0.7244094488188977,"duration":0.5091145833333428},{"name":"G#4","midi":68,"time":197.77994791666825,"velocity":0.7244094488188977,"duration":0.5091145833333428},{"name":"D4","midi":62,"time":197.77994791666825,"velocity":0.7244094488188977,"duration":0.5091145833333428},{"name":"C4","midi":60,"time":198.33463541666825,"velocity":0.7244094488188977,"duration":1.0026041666666856},{"name":"G4","midi":67,"time":198.33463541666825,"velocity":0.7244094488188977,"duration":1.0026041666666856},{"name":"A4","midi":69,"time":199.3828125000016,"velocity":0.7244094488188977,"duration":0.5091145833333428},{"name":"C4","midi":60,"time":199.3828125000016,"velocity":0.7244094488188977,"duration":0.5091145833333428},{"name":"D#3","midi":51,"time":199.3828125000016,"velocity":0.7244094488188977,"duration":0.5091145833333428},{"name":"B4","midi":71,"time":199.89583333333493,"velocity":0.7244094488188977,"duration":0.5091145833333144},{"name":"F4","midi":65,"time":199.89583333333493,"velocity":0.7244094488188977,"duration":0.2526041666666572},{"name":"D3","midi":50,"time":199.89583333333493,"velocity":0.7244094488188977,"duration":0.5091145833333144},{"name":"D4","midi":62,"time":200.1523437500016,"velocity":0.7244094488188977,"duration":0.2526041666666572},{"name":"C5","midi":72,"time":200.40885416666825,"velocity":0.7244094488188977,"duration":0.5091145833333428},{"name":"D#4","midi":63,"time":200.40885416666825,"velocity":0.7244094488188977,"duration":0.2526041666666572},{"name":"C3","midi":48,"time":200.40885416666825,"velocity":0.7244094488188977,"duration":0.5078125},{"name":"C4","midi":60,"time":200.6653645833349,"velocity":0.7244094488188977,"duration":0.7578125000000284},{"name":"F4","midi":65,"time":200.92317708333493,"velocity":0.7244094488188977,"duration":0.2526041666666572},{"name":"G3","midi":55,"time":200.92317708333493,"velocity":0.7244094488188977,"duration":0.5091145833333428},{"name":"D#4","midi":63,"time":201.1796875000016,"velocity":0.7244094488188977,"duration":0.2526041666666856},{"name":"D4","midi":62,"time":201.43619791666828,"velocity":0.7244094488188977,"duration":0.2526041666666572},{"name":"B3","midi":59,"time":201.43619791666828,"velocity":0.7244094488188977,"duration":0.3255208333333144},{"name":"G2","midi":43,"time":201.43619791666828,"velocity":0.7244094488188977,"duration":0.5091145833333144},{"name":"C4","midi":60,"time":201.69270833333493,"velocity":0.7244094488188977,"duration":0.2526041666666572},{"name":"C4","midi":60,"time":201.9492187500016,"velocity":0.7244094488188977,"duration":1.5364583333333144},{"name":"C2","midi":36,"time":201.9492187500016,"velocity":0.7244094488188977,"duration":13.980468750000085},{"name":"C3","midi":48,"time":201.9492187500016,"velocity":0.7244094488188977,"duration":2.049479166666657},{"name":"C5","midi":72,"time":202.46354166666825,"velocity":0.7244094488188977,"duration":0.2526041666666572},{"name":"B4","midi":71,"time":202.7200520833349,"velocity":0.7244094488188977,"duration":0.2526041666666572},{"name":"C5","midi":72,"time":202.97656250000156,"velocity":0.7244094488188977,"duration":0.5091145833333428},{"name":"G4","midi":67,"time":203.4895833333349,"velocity":0.7244094488188977,"duration":0.5091145833333428},{"name":"E4","midi":64,"time":203.4895833333349,"velocity":0.7244094488188977,"duration":0.5091145833333428},{"name":"G#4","midi":68,"time":204.00260416666825,"velocity":0.7244094488188977,"duration":0.5091145833333428},{"name":"F4","midi":65,"time":204.00260416666825,"velocity":0.7244094488188977,"duration":1.5364583333333428},{"name":"C3","midi":48,"time":204.00260416666825,"velocity":0.7244094488188977,"duration":2.0494791666666856},{"name":"C5","midi":72,"time":204.51692708333493,"velocity":0.7244094488188977,"duration":0.2526041666666572},{"name":"B4","midi":71,"time":204.7734375000016,"velocity":0.7244094488188977,"duration":0.2526041666666572},{"name":"C5","midi":72,"time":205.02994791666825,"velocity":0.7244094488188977,"duration":0.5091145833333428},{"name":"D5","midi":74,"time":205.5429687500016,"velocity":0.7244094488188977,"duration":0.5091145833333428},{"name":"B4","midi":71,"time":205.5429687500016,"velocity":0.7244094488188977,"duration":0.5091145833333428},{"name":"G#4","midi":68,"time":205.5429687500016,"velocity":0.7244094488188977,"duration":0.5091145833333428},{"name":"F4","midi":65,"time":205.5429687500016,"velocity":0.7244094488188977,"duration":0.5091145833333428},{"name":"G4","midi":67,"time":206.05729166666828,"velocity":0.7244094488188977,"duration":0.5091145833333428},{"name":"F4","midi":65,"time":206.05729166666828,"velocity":0.7244094488188977,"duration":0.5091145833333428},{"name":"C3","midi":48,"time":206.05729166666828,"velocity":0.7244094488188977,"duration":4.4856770833334},{"name":"C5","midi":72,"time":206.57031250000162,"velocity":0.7244094488188977,"duration":0.2526041666666572},{"name":"D#4","midi":63,"time":206.57031250000162,"velocity":0.7244094488188977,"duration":0.2526041666666572},{"name":"B4","midi":71,"time":206.82682291666828,"velocity":0.7244094488188977,"duration":0.2526041666666572},{"name":"D4","midi":62,"time":206.82682291666828,"velocity":0.7244094488188977,"duration":0.2526041666666572},{"name":"C5","midi":72,"time":207.08333333333493,"velocity":0.7244094488188977,"duration":0.5091145833333428},{"name":"D#4","midi":63,"time":207.08333333333493,"velocity":0.7244094488188977,"duration":0.5091145833333428},{"name":"D5","midi":74,"time":207.59765625000162,"velocity":0.7244094488188977,"duration":0.5091145833333428},{"name":"G#4","midi":68,"time":207.59765625000162,"velocity":0.7244094488188977,"duration":0.5091145833333428},{"name":"F4","midi":65,"time":207.59765625000162,"velocity":0.7244094488188977,"duration":0.5091145833333428},{"name":"D4","midi":62,"time":208.1315104166683,"velocity":0.7244094488188977,"duration":1.0807291666666856},{"name":"B3","midi":59,"time":208.1315104166683,"velocity":0.7244094488188977,"duration":1.0807291666666856},{"name":"F4","midi":65,"time":208.1315104166683,"velocity":0.7244094488188977,"duration":0.2669270833333428},{"name":"G4","midi":67,"time":208.40234375000165,"velocity":0.7244094488188977,"duration":0.2669270833333428},{"name":"G#4","midi":68,"time":208.67447916666833,"velocity":0.7244094488188977,"duration":1.171875},{"name":"D4","midi":62,"time":209.278645833335,"velocity":0.7244094488188977,"duration":1.3476562500000284},{"name":"F4","midi":65,"time":209.278645833335,"velocity":0.7244094488188977,"duration":1.0130208333333428},{"name":"B3","midi":59,"time":209.278645833335,"velocity":0.7244094488188977,"duration":1.3476562500000284},{"name":"G4","midi":67,"time":209.95572916666833,"velocity":0.7244094488188977,"duration":0.3333333333333428},{"name":"F4","midi":65,"time":210.29296875000168,"velocity":0.7244094488188977,"duration":0.3333333333333428},{"name":"E4","midi":64,"time":210.63020833333502,"velocity":0.7244094488188977,"duration":5.389322916666657},{"name":"C4","midi":60,"time":210.63020833333502,"velocity":0.7244094488188977,"duration":5.389322916666657},{"name":"G3","midi":55,"time":210.63020833333502,"velocity":0.7244094488188977,"duration":5.389322916666657},{"name":"C3","midi":48,"time":210.63020833333502,"velocity":0.7244094488188977,"duration":5.389322916666657}],"controlChanges":{"7":[{"number":7,"time":0,"value":0.7874015748031497}]},"id":1,"name":"Harpsichord","instrumentNumber":6,"instrument":"harpsichord","instrumentFamily":"piano","channelNumber":0,"isPercussion":false}]}