{"header":{"PPQ":240,"timeSignature":[4,4],"bpm":89.9999550000225,"name":"--------"},"startTime":0,"duration":61.09447499166635,"tracks":[{"startTime":0,"duration":0,"length":0,"notes":[],"controlChanges":{},"id":0,"name":"--------"},{"startTime":2.83333475,"duration":61.09447499166624,"length":255,"notes":[{"name":"C4","midi":60,"time":2.83333475,"velocity":0.7637795275590551,"duration":0.15277785416666667},{"name":"D4","midi":62,"time":3.0000015,"velocity":0.7637795275590551,"duration":0.15277785416666667},{"name":"E4","midi":64,"time":3.1666682500000003,"velocity":0.7637795275590551,"duration":0.15277785416666667},{"name":"F4","midi":65,"time":3.3333350000000004,"velocity":0.7637795275590551,"duration":0.15277785416666667},{"name":"D4","midi":62,"time":3.5000017500000005,"velocity":0.7637795275590551,"duration":0.15277785416666667},{"name":"E4","midi":64,"time":3.6666685000000006,"velocity":0.7637795275590551,"duration":0.15277785416666667},{"name":"C4","midi":60,"time":3.8333352500000006,"velocity":0.7637795275590551,"duration":0.15277785416666667},{"name":"G4","midi":67,"time":4.000002,"velocity":0.7637795275590551,"duration":0.302777929166667},{"name":"C5","midi":72,"time":4.3333355000000005,"velocity":0.7637795275590551,"duration":0.302777929166667},{"name":"C5","midi":72,"time":4.666669000000001,"velocity":0.7637795275590551,"duration":0.15277785416666756},{"name":"B4","midi":71,"time":4.708335687500001,"velocity":0.7637795275590551,"duration":0.15277785416666756},{"name":"C5","midi":72,"time":4.750002375000001,"velocity":0.7637795275590551,"duration":0.15277785416666756},{"name":"B4","midi":71,"time":4.791669062500001,"velocity":0.7637795275590551,"duration":0.15277785416666756},{"name":"C5","midi":72,"time":5.000002500000003,"velocity":0.7637795275590551,"duration":0.302777929166667},{"name":"D5","midi":74,"time":5.333336000000003,"velocity":0.7637795275590551,"duration":0.15277785416666667},{"name":"G4","midi":67,"time":5.500002750000003,"velocity":0.7637795275590551,"duration":0.15277785416666667},{"name":"A4","midi":69,"time":5.666669500000003,"velocity":0.7637795275590551,"duration":0.15277785416666667},{"name":"B4","midi":71,"time":5.833336250000003,"velocity":0.7637795275590551,"duration":0.15277785416666667},{"name":"C5","midi":72,"time":6.000003000000003,"velocity":0.7637795275590551,"duration":0.15277785416666667},{"name":"A4","midi":69,"time":6.166669750000003,"velocity":0.7637795275590551,"duration":0.15277785416666667},{"name":"B4","midi":71,"time":6.333336500000003,"velocity":0.7637795275590551,"duration":0.15277785416666667},{"name":"G4","midi":67,"time":6.500003250000003,"velocity":0.7637795275590551,"duration":0.15277785416666667},{"name":"D5","midi":74,"time":6.666670000000003,"velocity":0.7637795275590551,"duration":0.302777929166667},{"name":"G5","midi":79,"time":7.000003500000004,"velocity":0.7637795275590551,"duration":0.302777929166667},{"name":"G5","midi":79,"time":7.333337000000004,"velocity":0.7637795275590551,"duration":0.15277785416666756},{"name":"F#5","midi":78,"time":7.375003687500004,"velocity":0.7637795275590551,"duration":0.15277785416666756},{"name":"G5","midi":79,"time":7.416670375000004,"velocity":0.7637795275590551,"duration":0.15277785416666756},{"name":"F#5","midi":78,"time":7.4583370625000045,"velocity":0.7637795275590551,"duration":0.15277785416666756},{"name":"G5","midi":79,"time":7.666670500000006,"velocity":0.7637795275590551,"duration":0.302777929166667},{"name":"E5","midi":76,"time":8.000004000000006,"velocity":0.7637795275590551,"duration":0.15277785416666667},{"name":"A5","midi":81,"time":8.166670750000005,"velocity":0.7637795275590551,"duration":0.15277785416666667},{"name":"G5","midi":79,"time":8.333337500000004,"velocity":0.7637795275590551,"duration":0.15277785416666667},{"name":"F5","midi":77,"time":8.500004250000003,"velocity":0.7637795275590551,"duration":0.15277785416666667},{"name":"E5","midi":76,"time":8.666671000000003,"velocity":0.7637795275590551,"duration":0.15277785416666667},{"name":"G5","midi":79,"time":8.833337750000002,"velocity":0.7637795275590551,"duration":0.15277785416666667},{"name":"F5","midi":77,"time":9.000004500000001,"velocity":0.7637795275590551,"duration":0.15277785416666667},{"name":"A5","midi":81,"time":9.16667125,"velocity":0.7637795275590551,"duration":0.15277785416666667},{"name":"G5","midi":79,"time":9.333338,"velocity":0.7637795275590551,"duration":0.15277785416666667},{"name":"F5","midi":77,"time":9.500004749999999,"velocity":0.7637795275590551,"duration":0.15277785416666667},{"name":"E5","midi":76,"time":9.666671499999998,"velocity":0.7637795275590551,"duration":0.15277785416666667},{"name":"D5","midi":74,"time":9.833338249999997,"velocity":0.7637795275590551,"duration":0.15277785416666667},{"name":"C5","midi":72,"time":10.000004999999996,"velocity":0.7637795275590551,"duration":0.15277785416666667},{"name":"E5","midi":76,"time":10.166671749999995,"velocity":0.7637795275590551,"duration":0.15277785416666667},{"name":"D5","midi":74,"time":10.333338499999995,"velocity":0.7637795275590551,"duration":0.15277785416666667},{"name":"F5","midi":77,"time":10.500005249999994,"velocity":0.7637795275590551,"duration":0.15277785416666667},{"name":"E5","midi":76,"time":10.666671999999993,"velocity":0.7637795275590551,"duration":0.15277785416666667},{"name":"D5","midi":74,"time":10.833338749999992,"velocity":0.7637795275590551,"duration":0.15277785416666667},{"name":"C5","midi":72,"time":11.000005499999991,"velocity":0.7637795275590551,"duration":0.15277785416666667},{"name":"B4","midi":71,"time":11.16667224999999,"velocity":0.7637795275590551,"duration":0.15277785416666667},{"name":"A4","midi":69,"time":11.33333899999999,"velocity":0.7637795275590551,"duration":0.15277785416666667},{"name":"C5","midi":72,"time":11.500005749999989,"velocity":0.7637795275590551,"duration":0.15277785416666667},{"name":"B4","midi":71,"time":11.666672499999988,"velocity":0.7637795275590551,"duration":0.15277785416666667},{"name":"D5","midi":74,"time":11.833339249999987,"velocity":0.7637795275590551,"duration":0.15277785416666667},{"name":"C5","midi":72,"time":12.000005999999987,"velocity":0.7637795275590551,"duration":0.15277785416666667},{"name":"B4","midi":71,"time":12.166672749999986,"velocity":0.7637795275590551,"duration":0.15277785416666667},{"name":"A4","midi":69,"time":12.333339499999985,"velocity":0.7637795275590551,"duration":0.15277785416666667},{"name":"G4","midi":67,"time":12.500006249999984,"velocity":0.7637795275590551,"duration":0.15277785416666667},{"name":"F#4","midi":66,"time":12.666672999999983,"velocity":0.7637795275590551,"duration":0.15277785416666667},{"name":"A4","midi":69,"time":12.833339749999983,"velocity":0.7637795275590551,"duration":0.15277785416666667},{"name":"G4","midi":67,"time":13.000006499999982,"velocity":0.7637795275590551,"duration":0.15277785416666667},{"name":"B4","midi":71,"time":13.166673249999981,"velocity":0.7637795275590551,"duration":0.15277785416666667},{"name":"A4","midi":69,"time":13.33333999999998,"velocity":0.7637795275590551,"duration":0.3027779291666661},{"name":"D4","midi":62,"time":13.66667349999998,"velocity":0.7637795275590551,"duration":0.3027779291666661},{"name":"C5","midi":72,"time":14.00000699999998,"velocity":0.7637795275590551,"duration":0.15277785416666667},{"name":"B4","midi":71,"time":14.083340374999981,"velocity":0.7637795275590551,"duration":0.1527778541666649},{"name":"C5","midi":72,"time":14.16667374999998,"velocity":0.7637795275590551,"duration":0.3027779291666661},{"name":"D5","midi":74,"time":14.50000724999998,"velocity":0.7637795275590551,"duration":0.15277785416666667},{"name":"B4","midi":71,"time":14.66667399999998,"velocity":0.7637795275590551,"duration":0.15277785416666667},{"name":"A4","midi":69,"time":14.833340749999978,"velocity":0.7637795275590551,"duration":0.15277785416666667},{"name":"G4","midi":67,"time":15.000007499999978,"velocity":0.7637795275590551,"duration":0.15277785416666667},{"name":"F#4","midi":66,"time":15.166674249999977,"velocity":0.7637795275590551,"duration":0.15277785416666667},{"name":"E4","midi":64,"time":15.333340999999976,"velocity":0.7637795275590551,"duration":0.15277785416666667},{"name":"G4","midi":67,"time":15.500007749999975,"velocity":0.7637795275590551,"duration":0.15277785416666667},{"name":"F#4","midi":66,"time":15.666674499999974,"velocity":0.7637795275590551,"duration":0.15277785416666667},{"name":"A4","midi":69,"time":15.833341249999973,"velocity":0.7637795275590551,"duration":0.15277785416666667},{"name":"G4","midi":67,"time":16.000007999999973,"velocity":0.7637795275590551,"duration":0.1527778541666649},{"name":"B4","midi":71,"time":16.16667474999997,"velocity":0.7637795275590551,"duration":0.1527778541666649},{"name":"A4","midi":69,"time":16.333341499999968,"velocity":0.7637795275590551,"duration":0.1527778541666649},{"name":"C5","midi":72,"time":16.500008249999965,"velocity":0.7637795275590551,"duration":0.1527778541666649},{"name":"B4","midi":71,"time":16.666674999999962,"velocity":0.7637795275590551,"duration":0.1527778541666649},{"name":"D5","midi":74,"time":16.83334174999996,"velocity":0.7637795275590551,"duration":0.1527778541666649},{"name":"C5","midi":72,"time":17.000008499999957,"velocity":0.7637795275590551,"duration":0.1527778541666649},{"name":"E5","midi":76,"time":17.166675249999955,"velocity":0.7637795275590551,"duration":0.1527778541666649},{"name":"D5","midi":74,"time":17.333341999999952,"velocity":0.7637795275590551,"duration":0.1527778541666649},{"name":"B4","midi":71,"time":17.50000874999995,"velocity":0.7637795275590551,"duration":0.1527778541666649},{"name":"C5","midi":72,"time":17.583342124999948,"velocity":0.7637795275590551,"duration":0.1527778541666649},{"name":"D5","midi":74,"time":17.666675499999947,"velocity":0.7637795275590551,"duration":0.1527778541666649},{"name":"G5","midi":79,"time":17.833342249999944,"velocity":0.7637795275590551,"duration":0.1527778541666649},{"name":"B4","midi":71,"time":18.00000899999994,"velocity":0.7637795275590551,"duration":0.3027779291666697},{"name":"C5","midi":72,"time":18.041675687499943,"velocity":0.7637795275590551,"duration":0.3027779291666661},{"name":"B4","midi":71,"time":18.083342374999944,"velocity":0.7637795275590551,"duration":0.3027779291666661},{"name":"A4","midi":69,"time":18.333342499999944,"velocity":0.7637795275590551,"duration":0.1527778541666649},{"name":"G4","midi":67,"time":18.50000924999994,"velocity":0.7637795275590551,"duration":0.1527778541666649},{"name":"G4","midi":67,"time":18.66667599999994,"velocity":0.7637795275590551,"duration":0.6055558583333323},{"name":"G4","midi":67,"time":20.166676749999937,"velocity":0.7637795275590551,"duration":0.1527778541666649},{"name":"A4","midi":69,"time":20.333343499999934,"velocity":0.7637795275590551,"duration":0.1527778541666649},{"name":"B4","midi":71,"time":20.50001024999993,"velocity":0.7637795275590551,"duration":0.1527778541666649},{"name":"C5","midi":72,"time":20.66667699999993,"velocity":0.7637795275590551,"duration":0.1527778541666649},{"name":"A4","midi":69,"time":20.833343749999926,"velocity":0.7637795275590551,"duration":0.1527778541666649},{"name":"B4","midi":71,"time":21.000010499999924,"velocity":0.7637795275590551,"duration":0.1527778541666649},{"name":"G4","midi":67,"time":21.16667724999992,"velocity":0.7637795275590551,"duration":0.1527778541666649},{"name":"F#4","midi":66,"time":21.33334399999992,"velocity":0.7637795275590551,"duration":0.6055558583333323},{"name":"A4","midi":69,"time":22.833344749999917,"velocity":0.7637795275590551,"duration":0.1527778541666649},{"name":"B4","midi":71,"time":23.000011499999914,"velocity":0.7637795275590551,"duration":0.1527778541666649},{"name":"C5","midi":72,"time":23.16667824999991,"velocity":0.7637795275590551,"duration":0.1527778541666649},{"name":"D5","midi":74,"time":23.33334499999991,"velocity":0.7637795275590551,"duration":0.1527778541666649},{"name":"B4","midi":71,"time":23.500011749999906,"velocity":0.7637795275590551,"duration":0.1527778541666649},{"name":"C5","midi":72,"time":23.666678499999904,"velocity":0.7637795275590551,"duration":0.1527778541666649},{"name":"A4","midi":69,"time":23.8333452499999,"velocity":0.7637795275590551,"duration":0.1527778541666649},{"name":"B4","midi":71,"time":24.0000119999999,"velocity":0.7637795275590551,"duration":0.6055558583333323},{"name":"D5","midi":74,"time":25.500012749999897,"velocity":0.7637795275590551,"duration":0.1527778541666649},{"name":"C5","midi":72,"time":25.666679499999894,"velocity":0.7637795275590551,"duration":0.1527778541666649},{"name":"B4","midi":71,"time":25.83334624999989,"velocity":0.7637795275590551,"duration":0.1527778541666649},{"name":"A4","midi":69,"time":26.00001299999989,"velocity":0.7637795275590551,"duration":0.1527778541666649},{"name":"C5","midi":72,"time":26.166679749999886,"velocity":0.7637795275590551,"duration":0.1527778541666649},{"name":"B4","midi":71,"time":26.333346499999884,"velocity":0.7637795275590551,"duration":0.1527778541666649},{"name":"D5","midi":74,"time":26.50001324999988,"velocity":0.7637795275590551,"duration":0.1527778541666649},{"name":"C5","midi":72,"time":26.66667999999988,"velocity":0.7637795275590551,"duration":0.6055558583333323},{"name":"E5","midi":76,"time":28.166680749999877,"velocity":0.7637795275590551,"duration":0.1527778541666649},{"name":"D5","midi":74,"time":28.333347499999874,"velocity":0.7637795275590551,"duration":0.1527778541666649},{"name":"C5","midi":72,"time":28.50001424999987,"velocity":0.7637795275590551,"duration":0.1527778541666649},{"name":"B4","midi":71,"time":28.66668099999987,"velocity":0.7637795275590551,"duration":0.1527778541666649},{"name":"D5","midi":74,"time":28.833347749999866,"velocity":0.7637795275590551,"duration":0.1527778541666649},{"name":"C#5","midi":73,"time":29.000014499999864,"velocity":0.7637795275590551,"duration":0.1527778541666649},{"name":"E5","midi":76,"time":29.16668124999986,"velocity":0.7637795275590551,"duration":0.1527778541666649},{"name":"D5","midi":74,"time":29.33334799999986,"velocity":0.7637795275590551,"duration":0.3027779291666661},{"name":"C#5","midi":73,"time":29.666681499999857,"velocity":0.7637795275590551,"duration":0.3027779291666661},{"name":"D5","midi":74,"time":30.000014999999856,"velocity":0.7637795275590551,"duration":0.3027779291666661},{"name":"E5","midi":76,"time":30.333348499999854,"velocity":0.7637795275590551,"duration":0.3027779291666661},{"name":"F5","midi":77,"time":30.666681999999852,"velocity":0.7637795275590551,"duration":0.3027779291666661},{"name":"A4","midi":69,"time":31.00001549999985,"velocity":0.7637795275590551,"duration":0.3027779291666661},{"name":"B4","midi":71,"time":31.33334899999985,"velocity":0.7637795275590551,"duration":0.3027779291666661},{"name":"C#5","midi":73,"time":31.666682499999848,"velocity":0.7637795275590551,"duration":0.3027779291666661},{"name":"D5","midi":74,"time":32.000015999999846,"velocity":0.7637795275590551,"duration":0.3027779291666661},{"name":"F#4","midi":66,"time":32.33334949999985,"velocity":0.7637795275590551,"duration":0.3027779291666661},{"name":"G#4","midi":68,"time":32.66668299999985,"velocity":0.7637795275590551,"duration":0.3027779291666661},{"name":"A4","midi":69,"time":33.00001649999985,"velocity":0.7637795275590551,"duration":0.3027779291666661},{"name":"B4","midi":71,"time":33.333349999999854,"velocity":0.7637795275590551,"duration":0.3027779291666661},{"name":"C5","midi":72,"time":33.666683499999856,"velocity":0.7637795275590551,"duration":0.3027779291666661},{"name":"D5","midi":74,"time":34.00001699999986,"velocity":0.7637795275590551,"duration":0.8194448541666688},{"name":"E4","midi":64,"time":34.83335074999986,"velocity":0.7637795275590551,"duration":0.1527778541666649},{"name":"F#4","midi":66,"time":35.000017499999856,"velocity":0.7637795275590551,"duration":0.1527778541666649},{"name":"G#4","midi":68,"time":35.166684249999854,"velocity":0.7637795275590551,"duration":0.1527778541666649},{"name":"A4","midi":69,"time":35.33335099999985,"velocity":0.7637795275590551,"duration":0.1527778541666649},{"name":"F#4","midi":66,"time":35.50001774999985,"velocity":0.7637795275590551,"duration":0.1527778541666649},{"name":"G#4","midi":68,"time":35.666684499999846,"velocity":0.7637795275590551,"duration":0.1527778541666649},{"name":"E4","midi":64,"time":35.83335124999984,"velocity":0.7637795275590551,"duration":0.1527778541666649},{"name":"E5","midi":76,"time":36.00001799999984,"velocity":0.7637795275590551,"duration":0.1527778541666649},{"name":"D5","midi":74,"time":36.16668474999984,"velocity":0.7637795275590551,"duration":0.1527778541666649},{"name":"C5","midi":72,"time":36.333351499999836,"velocity":0.7637795275590551,"duration":0.1527778541666649},{"name":"E5","midi":76,"time":36.50001824999983,"velocity":0.7637795275590551,"duration":0.1527778541666649},{"name":"D5","midi":74,"time":36.66668499999983,"velocity":0.7637795275590551,"duration":0.1527778541666649},{"name":"C5","midi":72,"time":36.83335174999983,"velocity":0.7637795275590551,"duration":0.1527778541666649},{"name":"B4","midi":71,"time":37.000018499999825,"velocity":0.7637795275590551,"duration":0.1527778541666649},{"name":"D5","midi":74,"time":37.16668524999982,"velocity":0.7637795275590551,"duration":0.1527778541666649},{"name":"C5","midi":72,"time":37.33335199999982,"velocity":0.7637795275590551,"duration":0.1527778541666649},{"name":"A5","midi":81,"time":37.50001874999982,"velocity":0.7637795275590551,"duration":0.1527778541666649},{"name":"G#5","midi":80,"time":37.666685499999815,"velocity":0.7637795275590551,"duration":0.1527778541666649},{"name":"B5","midi":83,"time":37.83335224999981,"velocity":0.7637795275590551,"duration":0.1527778541666649},{"name":"A5","midi":81,"time":38.00001899999981,"velocity":0.7637795275590551,"duration":0.1527778541666649},{"name":"E5","midi":76,"time":38.16668574999981,"velocity":0.7637795275590551,"duration":0.1527778541666649},{"name":"F5","midi":77,"time":38.333352499999805,"velocity":0.7637795275590551,"duration":0.1527778541666649},{"name":"D5","midi":74,"time":38.5000192499998,"velocity":0.7637795275590551,"duration":0.1527778541666649},{"name":"G#4","midi":68,"time":38.6666859999998,"velocity":0.7637795275590551,"duration":0.1527778541666649},{"name":"F5","midi":77,"time":38.8333527499998,"velocity":0.7637795275590551,"duration":0.1527778541666649},{"name":"E5","midi":76,"time":39.000019499999794,"velocity":0.7637795275590551,"duration":0.1527778541666649},{"name":"D5","midi":74,"time":39.16668624999979,"velocity":0.7637795275590551,"duration":0.1527778541666649},{"name":"C5","midi":72,"time":39.33335299999979,"velocity":0.7637795275590551,"duration":0.302777929166659},{"name":"D5","midi":74,"time":39.37501968749979,"velocity":0.7637795275590551,"duration":0.3027779291666661},{"name":"C5","midi":72,"time":39.416686374999784,"velocity":0.7637795275590551,"duration":0.3027779291666661},{"name":"B4","midi":71,"time":39.666686499999784,"velocity":0.7637795275590551,"duration":0.1527778541666649},{"name":"A4","midi":69,"time":39.83335324999978,"velocity":0.7637795275590551,"duration":0.1527778541666649},{"name":"A4","midi":69,"time":40.00001999999978,"velocity":0.7637795275590551,"duration":0.1527778541666649},{"name":"A5","midi":81,"time":40.166686749999776,"velocity":0.7637795275590551,"duration":0.1527778541666649},{"name":"G5","midi":79,"time":40.333353499999774,"velocity":0.7637795275590551,"duration":0.1527778541666649},{"name":"F5","midi":77,"time":40.50002024999977,"velocity":0.7637795275590551,"duration":0.1527778541666649},{"name":"E5","midi":76,"time":40.66668699999977,"velocity":0.7637795275590551,"duration":0.1527778541666649},{"name":"G5","midi":79,"time":40.833353749999766,"velocity":0.7637795275590551,"duration":0.1527778541666649},{"name":"F5","midi":77,"time":41.00002049999976,"velocity":0.7637795275590551,"duration":0.1527778541666649},{"name":"A5","midi":81,"time":41.16668724999976,"velocity":0.7637795275590551,"duration":0.1527778541666649},{"name":"G5","midi":79,"time":41.33335399999976,"velocity":0.7637795275590551,"duration":1.4861118541666656},{"name":"E5","midi":76,"time":42.83335474999976,"velocity":0.7637795275590551,"duration":0.1527778541666649},{"name":"F5","midi":77,"time":43.000021499999754,"velocity":0.7637795275590551,"duration":0.1527778541666649},{"name":"G5","midi":79,"time":43.16668824999975,"velocity":0.7637795275590551,"duration":0.1527778541666649},{"name":"A5","midi":81,"time":43.33335499999975,"velocity":0.7637795275590551,"duration":0.1527778541666649},{"name":"F5","midi":77,"time":43.500021749999746,"velocity":0.7637795275590551,"duration":0.1527778541666649},{"name":"G5","midi":79,"time":43.666688499999744,"velocity":0.7637795275590551,"duration":0.1527778541666649},{"name":"E5","midi":76,"time":43.83335524999974,"velocity":0.7637795275590551,"duration":0.1527778541666649},{"name":"F5","midi":77,"time":44.00002199999974,"velocity":0.7637795275590551,"duration":1.4861118541666656},{"name":"G5","midi":79,"time":45.50002274999974,"velocity":0.7637795275590551,"duration":0.1527778541666649},{"name":"F5","midi":77,"time":45.666689499999734,"velocity":0.7637795275590551,"duration":0.1527778541666649},{"name":"E5","midi":76,"time":45.83335624999973,"velocity":0.7637795275590551,"duration":0.1527778541666649},{"name":"D5","midi":74,"time":46.00002299999973,"velocity":0.7637795275590551,"duration":0.1527778541666649},{"name":"F5","midi":77,"time":46.166689749999726,"velocity":0.7637795275590551,"duration":0.1527778541666649},{"name":"E5","midi":76,"time":46.333356499999724,"velocity":0.7637795275590551,"duration":0.1527778541666649},{"name":"G5","midi":79,"time":46.50002324999972,"velocity":0.7637795275590551,"duration":0.1527778541666649},{"name":"F5","midi":77,"time":46.66668999999972,"velocity":0.7637795275590551,"duration":1.4861118541666656},{"name":"D5","midi":74,"time":48.16669074999972,"velocity":0.7637795275590551,"duration":0.1527778541666649},{"name":"E5","midi":76,"time":48.333357499999714,"velocity":0.7637795275590551,"duration":0.1527778541666649},{"name":"F5","midi":77,"time":48.50002424999971,"velocity":0.7637795275590551,"duration":0.1527778541666649},{"name":"G5","midi":79,"time":48.66669099999971,"velocity":0.7637795275590551,"duration":0.1527778541666649},{"name":"E5","midi":76,"time":48.833357749999706,"velocity":0.7637795275590551,"duration":0.1527778541666649},{"name":"F5","midi":77,"time":49.000024499999704,"velocity":0.7637795275590551,"duration":0.1527778541666649},{"name":"D5","midi":74,"time":49.1666912499997,"velocity":0.7637795275590551,"duration":0.1527778541666649},{"name":"E5","midi":76,"time":49.3333579999997,"velocity":0.7637795275590551,"duration":1.4861118541666656},{"name":"C5","midi":72,"time":50.8333587499997,"velocity":0.7637795275590551,"duration":0.1527778541666649},{"name":"D5","midi":74,"time":51.000025499999694,"velocity":0.7637795275590551,"duration":0.1527778541666649},{"name":"E5","midi":76,"time":51.16669224999969,"velocity":0.7637795275590551,"duration":0.1527778541666649},{"name":"F5","midi":77,"time":51.33335899999969,"velocity":0.7637795275590551,"duration":0.1527778541666649},{"name":"D5","midi":74,"time":51.500025749999686,"velocity":0.7637795275590551,"duration":0.1527778541666649},{"name":"E5","midi":76,"time":51.666692499999684,"velocity":0.7637795275590551,"duration":0.1527778541666649},{"name":"C5","midi":72,"time":51.83335924999968,"velocity":0.7637795275590551,"duration":0.1527778541666649},{"name":"D5","midi":74,"time":52.00002599999968,"velocity":0.7637795275590551,"duration":0.1527778541666649},{"name":"E5","midi":76,"time":52.166692749999676,"velocity":0.7637795275590551,"duration":0.1527778541666649},{"name":"F5","midi":77,"time":52.33335949999967,"velocity":0.7637795275590551,"duration":0.1527778541666649},{"name":"G5","midi":79,"time":52.50002624999967,"velocity":0.7637795275590551,"duration":0.1527778541666649},{"name":"A5","midi":81,"time":52.66669299999967,"velocity":0.7637795275590551,"duration":0.1527778541666649},{"name":"F5","midi":77,"time":52.833359749999666,"velocity":0.7637795275590551,"duration":0.1527778541666649},{"name":"G5","midi":79,"time":53.00002649999966,"velocity":0.7637795275590551,"duration":0.1527778541666649},{"name":"E5","midi":76,"time":53.16669324999966,"velocity":0.7637795275590551,"duration":0.1527778541666649},{"name":"F5","midi":77,"time":53.33335999999966,"velocity":0.7637795275590551,"duration":0.1527778541666649},{"name":"G5","midi":79,"time":53.500026749999655,"velocity":0.7637795275590551,"duration":0.1527778541666649},{"name":"A5","midi":81,"time":53.66669349999965,"velocity":0.7637795275590551,"duration":0.1527778541666649},{"name":"B5","midi":83,"time":53.83336024999965,"velocity":0.7637795275590551,"duration":0.1527778541666649},{"name":"C6","midi":84,"time":54.00002699999965,"velocity":0.7637795275590551,"duration":0.1527778541666649},{"name":"A5","midi":81,"time":54.166693749999645,"velocity":0.7637795275590551,"duration":0.1527778541666649},{"name":"B5","midi":83,"time":54.33336049999964,"velocity":0.7637795275590551,"duration":0.1527778541666649},{"name":"G5","midi":79,"time":54.50002724999964,"velocity":0.7637795275590551,"duration":0.1527778541666649},{"name":"C6","midi":84,"time":54.66669399999964,"velocity":0.7637795275590551,"duration":0.3027779291666661},{"name":"G5","midi":79,"time":55.00002749999964,"velocity":0.7637795275590551,"duration":0.3027779291666661},{"name":"F5","midi":77,"time":55.33336099999964,"velocity":0.7637795275590551,"duration":0.1527778541666578},{"name":"E5","midi":76,"time":55.37502768749964,"velocity":0.7637795275590551,"duration":0.1527778541666578},{"name":"F5","midi":77,"time":55.416694374999636,"velocity":0.7637795275590551,"duration":0.1527778541666578},{"name":"E5","midi":76,"time":55.458361062499634,"velocity":0.7637795275590551,"duration":0.1527778541666578},{"name":"D5","midi":74,"time":55.66669449999962,"velocity":0.7637795275590551,"duration":0.1527778541666649},{"name":"C5","midi":72,"time":55.83336124999962,"velocity":0.7637795275590551,"duration":0.1527778541666649},{"name":"C5","midi":72,"time":56.00002799999962,"velocity":0.7637795275590551,"duration":0.1527778541666649},{"name":"A#4","midi":70,"time":56.166694749999614,"velocity":0.7637795275590551,"duration":0.1527778541666649},{"name":"A4","midi":69,"time":56.33336149999961,"velocity":0.7637795275590551,"duration":0.1527778541666649},{"name":"G4","midi":67,"time":56.50002824999961,"velocity":0.7637795275590551,"duration":0.1527778541666649},{"name":"F4","midi":65,"time":56.666694999999606,"velocity":0.7637795275590551,"duration":0.1527778541666649},{"name":"A4","midi":69,"time":56.833361749999604,"velocity":0.7637795275590551,"duration":0.1527778541666649},{"name":"G4","midi":67,"time":57.0000284999996,"velocity":0.7637795275590551,"duration":0.1527778541666649},{"name":"B4","midi":71,"time":57.1666952499996,"velocity":0.7637795275590551,"duration":0.1527778541666649},{"name":"A4","midi":69,"time":57.333361999999596,"velocity":0.7637795275590551,"duration":0.1527778541666649},{"name":"B4","midi":71,"time":57.50002874999959,"velocity":0.7637795275590551,"duration":0.1527778541666649},{"name":"C5","midi":72,"time":57.66669549999959,"velocity":0.7637795275590551,"duration":0.1527778541666649},{"name":"E4","midi":64,"time":57.83336224999959,"velocity":0.7637795275590551,"duration":0.1527778541666649},{"name":"D4","midi":62,"time":58.000028999999586,"velocity":0.7637795275590551,"duration":0.1527778541666649},{"name":"C5","midi":72,"time":58.16669574999958,"velocity":0.7637795275590551,"duration":0.1527778541666649},{"name":"F4","midi":65,"time":58.33336249999958,"velocity":0.7637795275590551,"duration":0.1527778541666649},{"name":"B4","midi":71,"time":58.50002924999958,"velocity":0.7637795275590551,"duration":0.1527778541666649},{"name":"E4","midi":64,"time":58.666695999999575,"velocity":0.7637795275590551,"duration":2.4277789916666634},{"name":"C5","midi":72,"time":58.666695999999575,"velocity":0.7637795275590551,"duration":2.4277789916666634},{"name":"G4","midi":67,"time":58.666695999999575,"velocity":0.7637795275590551,"duration":2.4277789916666634}],"controlChanges":{"7":[{"number":7,"time":0,"value":0.7874015748031497}],"10":[{"number":10,"time":0,"value":0.6220472440944882}]},"id":1,"name":"Harpsichord RH","instrumentNumber":6,"instrument":"harpsichord","instrumentFamily":"piano","channelNumber":0,"isPercussion":false},{"startTime":4.16666875,"duration":61.09447499166635,"length":219,"notes":[{"name":"C3","midi":48,"time":4.16666875,"velocity":0.7637795275590551,"duration":0.15277785416666667},{"name":"D3","midi":50,"time":4.3333355000000005,"velocity":0.7637795275590551,"duration":0.15277785416666667},{"name":"E3","midi":52,"time":4.5000022500000005,"velocity":0.7637795275590551,"duration":0.15277785416666667},{"name":"F3","midi":53,"time":4.666669000000001,"velocity":0.7637795275590551,"duration":0.15277785416666667},{"name":"D3","midi":50,"time":4.833335750000001,"velocity":0.7637795275590551,"duration":0.15277785416666667},{"name":"E3","midi":52,"time":5.000002500000001,"velocity":0.7637795275590551,"duration":0.15277785416666667},{"name":"C3","midi":48,"time":5.166669250000001,"velocity":0.7637795275590551,"duration":0.15277785416666667},{"name":"G3","midi":55,"time":5.333336000000001,"velocity":0.7637795275590551,"duration":0.302777929166667},{"name":"G2","midi":43,"time":5.666669500000001,"velocity":0.7637795275590551,"duration":0.302777929166667},{"name":"G3","midi":55,"time":6.833336750000002,"velocity":0.7637795275590551,"duration":0.15277785416666667},{"name":"A3","midi":57,"time":7.000003500000002,"velocity":0.7637795275590551,"duration":0.15277785416666667},{"name":"B3","midi":59,"time":7.166670250000002,"velocity":0.7637795275590551,"duration":0.15277785416666667},{"name":"C4","midi":60,"time":7.333337000000002,"velocity":0.7637795275590551,"duration":0.15277785416666667},{"name":"A3","midi":57,"time":7.500003750000002,"velocity":0.7637795275590551,"duration":0.15277785416666667},{"name":"B3","midi":59,"time":7.666670500000002,"velocity":0.7637795275590551,"duration":0.15277785416666667},{"name":"G3","midi":55,"time":7.833337250000002,"velocity":0.7637795275590551,"duration":0.15277785416666667},{"name":"C4","midi":60,"time":8.000004000000002,"velocity":0.7637795275590551,"duration":0.3027779291666661},{"name":"B3","midi":59,"time":8.333337500000003,"velocity":0.7637795275590551,"duration":0.3027779291666661},{"name":"C4","midi":60,"time":8.666671000000003,"velocity":0.7637795275590551,"duration":0.3027779291666661},{"name":"D4","midi":62,"time":9.000004500000003,"velocity":0.7637795275590551,"duration":0.3027779291666661},{"name":"E4","midi":64,"time":9.333338000000003,"velocity":0.7637795275590551,"duration":0.3027779291666661},{"name":"G3","midi":55,"time":9.666671500000003,"velocity":0.7637795275590551,"duration":0.3027779291666661},{"name":"A3","midi":57,"time":10.000005000000003,"velocity":0.7637795275590551,"duration":0.3027779291666661},{"name":"B3","midi":59,"time":10.333338500000004,"velocity":0.7637795275590551,"duration":0.3027779291666661},{"name":"C4","midi":60,"time":10.666672000000004,"velocity":0.7637795275590551,"duration":0.3027779291666661},{"name":"E3","midi":52,"time":11.000005500000004,"velocity":0.7637795275590551,"duration":0.3027779291666661},{"name":"F#3","midi":54,"time":11.333339000000004,"velocity":0.7637795275590551,"duration":0.3027779291666661},{"name":"G3","midi":55,"time":11.666672500000004,"velocity":0.7637795275590551,"duration":0.3027779291666661},{"name":"A3","midi":57,"time":12.000006000000004,"velocity":0.7637795275590551,"duration":0.3027779291666661},{"name":"B3","midi":59,"time":12.333339500000005,"velocity":0.7637795275590551,"duration":0.3027779291666661},{"name":"C4","midi":60,"time":12.666673000000005,"velocity":0.7637795275590551,"duration":0.819444854166667},{"name":"D3","midi":50,"time":13.500006750000004,"velocity":0.7637795275590551,"duration":0.15277785416666667},{"name":"E3","midi":52,"time":13.666673500000003,"velocity":0.7637795275590551,"duration":0.15277785416666667},{"name":"F#3","midi":54,"time":13.833340250000003,"velocity":0.7637795275590551,"duration":0.15277785416666667},{"name":"G3","midi":55,"time":14.000007000000002,"velocity":0.7637795275590551,"duration":0.15277785416666667},{"name":"E3","midi":52,"time":14.166673750000001,"velocity":0.7637795275590551,"duration":0.15277785416666667},{"name":"F#3","midi":54,"time":14.3333405,"velocity":0.7637795275590551,"duration":0.15277785416666667},{"name":"D3","midi":50,"time":14.50000725,"velocity":0.7637795275590551,"duration":0.15277785416666667},{"name":"G3","midi":55,"time":14.666673999999999,"velocity":0.7637795275590551,"duration":0.3027779291666661},{"name":"B2","midi":47,"time":15.000007499999999,"velocity":0.7637795275590551,"duration":0.3027779291666661},{"name":"C3","midi":48,"time":15.333340999999999,"velocity":0.7637795275590551,"duration":0.3027779291666661},{"name":"D3","midi":50,"time":15.6666745,"velocity":0.7637795275590551,"duration":0.3027779291666661},{"name":"E3","midi":52,"time":16.000007999999998,"velocity":0.7637795275590551,"duration":0.3027779291666661},{"name":"F#3","midi":54,"time":16.333341499999996,"velocity":0.7637795275590551,"duration":0.3027779291666661},{"name":"G3","midi":55,"time":16.666674999999994,"velocity":0.7637795275590551,"duration":0.3027779291666661},{"name":"E3","midi":52,"time":17.000008499999993,"velocity":0.7637795275590551,"duration":0.3027779291666661},{"name":"B2","midi":47,"time":17.33334199999999,"velocity":0.7637795275590551,"duration":0.4555557833333346},{"name":"C3","midi":48,"time":17.833342249999994,"velocity":0.7637795275590551,"duration":0.1527778541666649},{"name":"D3","midi":50,"time":18.00000899999999,"velocity":0.7637795275590551,"duration":0.3027779291666661},{"name":"D2","midi":38,"time":18.33334249999999,"velocity":0.7637795275590551,"duration":0.3027779291666661},{"name":"G2","midi":43,"time":18.83334274999999,"velocity":0.7637795275590551,"duration":0.15277785416666845},{"name":"A2","midi":45,"time":19.00000949999999,"velocity":0.7637795275590551,"duration":0.1527778541666649},{"name":"B2","midi":47,"time":19.166676249999988,"velocity":0.7637795275590551,"duration":0.1527778541666649},{"name":"C3","midi":48,"time":19.333342999999985,"velocity":0.7637795275590551,"duration":0.1527778541666649},{"name":"A2","midi":45,"time":19.500009749999982,"velocity":0.7637795275590551,"duration":0.1527778541666649},{"name":"B2","midi":47,"time":19.66667649999998,"velocity":0.7637795275590551,"duration":0.1527778541666649},{"name":"G2","midi":43,"time":19.833343249999977,"velocity":0.7637795275590551,"duration":0.1527778541666649},{"name":"D3","midi":50,"time":20.000009999999975,"velocity":0.7637795275590551,"duration":0.3027779291666661},{"name":"G3","midi":55,"time":20.333343499999973,"velocity":0.7637795275590551,"duration":0.3027779291666661},{"name":"F#3","midi":54,"time":20.66667699999997,"velocity":0.7637795275590551,"duration":0.3027779291666661},{"name":"G3","midi":55,"time":21.00001049999997,"velocity":0.7637795275590551,"duration":0.3027779291666661},{"name":"A3","midi":57,"time":21.33334399999997,"velocity":0.7637795275590551,"duration":0.1527778541666649},{"name":"D3","midi":50,"time":21.500010749999966,"velocity":0.7637795275590551,"duration":0.1527778541666649},{"name":"E3","midi":52,"time":21.666677499999963,"velocity":0.7637795275590551,"duration":0.1527778541666649},{"name":"F#3","midi":54,"time":21.83334424999996,"velocity":0.7637795275590551,"duration":0.1527778541666649},{"name":"G3","midi":55,"time":22.000010999999958,"velocity":0.7637795275590551,"duration":0.1527778541666649},{"name":"E3","midi":52,"time":22.166677749999955,"velocity":0.7637795275590551,"duration":0.1527778541666649},{"name":"F#3","midi":54,"time":22.333344499999953,"velocity":0.7637795275590551,"duration":0.1527778541666649},{"name":"D3","midi":50,"time":22.50001124999995,"velocity":0.7637795275590551,"duration":0.1527778541666649},{"name":"A3","midi":57,"time":22.666677999999948,"velocity":0.7637795275590551,"duration":0.3027779291666661},{"name":"D4","midi":62,"time":23.000011499999946,"velocity":0.7637795275590551,"duration":0.3027779291666661},{"name":"C4","midi":60,"time":23.333344999999944,"velocity":0.7637795275590551,"duration":0.3027779291666661},{"name":"D4","midi":62,"time":23.666678499999943,"velocity":0.7637795275590551,"duration":0.3027779291666661},{"name":"G3","midi":55,"time":24.00001199999994,"velocity":0.7637795275590551,"duration":0.1527778541666649},{"name":"G4","midi":67,"time":24.16667874999994,"velocity":0.7637795275590551,"duration":0.1527778541666649},{"name":"F4","midi":65,"time":24.333345499999936,"velocity":0.7637795275590551,"duration":0.1527778541666649},{"name":"E4","midi":64,"time":24.500012249999934,"velocity":0.7637795275590551,"duration":0.1527778541666649},{"name":"D4","midi":62,"time":24.66667899999993,"velocity":0.7637795275590551,"duration":0.1527778541666649},{"name":"F4","midi":65,"time":24.83334574999993,"velocity":0.7637795275590551,"duration":0.1527778541666649},{"name":"E4","midi":64,"time":25.000012499999926,"velocity":0.7637795275590551,"duration":0.1527778541666649},{"name":"G4","midi":67,"time":25.166679249999923,"velocity":0.7637795275590551,"duration":0.1527778541666649},{"name":"F4","midi":65,"time":25.33334599999992,"velocity":0.7637795275590551,"duration":0.3027779291666661},{"name":"E4","midi":64,"time":25.66667949999992,"velocity":0.7637795275590551,"duration":0.3027779291666661},{"name":"F4","midi":65,"time":26.000012999999917,"velocity":0.7637795275590551,"duration":0.3027779291666661},{"name":"D4","midi":62,"time":26.333346499999916,"velocity":0.7637795275590551,"duration":0.3027779291666661},{"name":"E4","midi":64,"time":26.666679999999914,"velocity":0.7637795275590551,"duration":0.1527778541666649},{"name":"A4","midi":69,"time":26.83334674999991,"velocity":0.7637795275590551,"duration":0.1527778541666649},{"name":"G4","midi":67,"time":27.00001349999991,"velocity":0.7637795275590551,"duration":0.1527778541666649},{"name":"F4","midi":65,"time":27.166680249999906,"velocity":0.7637795275590551,"duration":0.1527778541666649},{"name":"E4","midi":64,"time":27.333346999999904,"velocity":0.7637795275590551,"duration":0.1527778541666649},{"name":"G4","midi":67,"time":27.5000137499999,"velocity":0.7637795275590551,"duration":0.1527778541666649},{"name":"F4","midi":65,"time":27.6666804999999,"velocity":0.7637795275590551,"duration":0.1527778541666649},{"name":"A4","midi":69,"time":27.833347249999896,"velocity":0.7637795275590551,"duration":0.1527778541666649},{"name":"G4","midi":67,"time":28.000013999999894,"velocity":0.7637795275590551,"duration":0.3027779291666661},{"name":"F4","midi":65,"time":28.333347499999892,"velocity":0.7637795275590551,"duration":0.3027779291666661},{"name":"G4","midi":67,"time":28.66668099999989,"velocity":0.7637795275590551,"duration":0.3027779291666661},{"name":"E4","midi":64,"time":29.00001449999989,"velocity":0.7637795275590551,"duration":0.3027779291666661},{"name":"F4","midi":65,"time":29.333347999999887,"velocity":0.7637795275590551,"duration":0.1527778541666649},{"name":"A#4","midi":70,"time":29.500014749999885,"velocity":0.7637795275590551,"duration":0.1527778541666649},{"name":"A4","midi":69,"time":29.666681499999882,"velocity":0.7637795275590551,"duration":0.1527778541666649},{"name":"G4","midi":67,"time":29.83334824999988,"velocity":0.7637795275590551,"duration":0.1527778541666649},{"name":"F4","midi":65,"time":30.000014999999877,"velocity":0.7637795275590551,"duration":0.1527778541666649},{"name":"A4","midi":69,"time":30.166681749999874,"velocity":0.7637795275590551,"duration":0.1527778541666649},{"name":"G4","midi":67,"time":30.33334849999987,"velocity":0.7637795275590551,"duration":0.1527778541666649},{"name":"A#4","midi":70,"time":30.50001524999987,"velocity":0.7637795275590551,"duration":0.1527778541666649},{"name":"A4","midi":69,"time":30.666681999999867,"velocity":0.7637795275590551,"duration":0.1527778541666649},{"name":"G4","midi":67,"time":30.833348749999864,"velocity":0.7637795275590551,"duration":0.1527778541666649},{"name":"F4","midi":65,"time":31.00001549999986,"velocity":0.7637795275590551,"duration":0.1527778541666649},{"name":"E4","midi":64,"time":31.16668224999986,"velocity":0.7637795275590551,"duration":0.1527778541666649},{"name":"D4","midi":62,"time":31.333348999999856,"velocity":0.7637795275590551,"duration":0.1527778541666649},{"name":"F4","midi":65,"time":31.500015749999854,"velocity":0.7637795275590551,"duration":0.1527778541666649},{"name":"E4","midi":64,"time":31.66668249999985,"velocity":0.7637795275590551,"duration":0.1527778541666649},{"name":"G4","midi":67,"time":31.83334924999985,"velocity":0.7637795275590551,"duration":0.1527778541666649},{"name":"F4","midi":65,"time":32.000015999999846,"velocity":0.7637795275590551,"duration":0.1527778541666649},{"name":"E4","midi":64,"time":32.16668274999984,"velocity":0.7637795275590551,"duration":0.1527778541666649},{"name":"D4","midi":62,"time":32.33334949999984,"velocity":0.7637795275590551,"duration":0.1527778541666649},{"name":"C4","midi":60,"time":32.50001624999984,"velocity":0.7637795275590551,"duration":0.1527778541666649},{"name":"B3","midi":59,"time":32.666682999999836,"velocity":0.7637795275590551,"duration":0.1527778541666649},{"name":"D4","midi":62,"time":32.83334974999983,"velocity":0.7637795275590551,"duration":0.1527778541666649},{"name":"C4","midi":60,"time":33.00001649999983,"velocity":0.7637795275590551,"duration":0.1527778541666649},{"name":"E4","midi":64,"time":33.16668324999983,"velocity":0.7637795275590551,"duration":0.1527778541666649},{"name":"D4","midi":62,"time":33.333349999999825,"velocity":0.7637795275590551,"duration":0.1527778541666649},{"name":"C4","midi":60,"time":33.50001674999982,"velocity":0.7637795275590551,"duration":0.1527778541666649},{"name":"B3","midi":59,"time":33.66668349999982,"velocity":0.7637795275590551,"duration":0.1527778541666649},{"name":"A3","midi":57,"time":33.83335024999982,"velocity":0.7637795275590551,"duration":0.1527778541666649},{"name":"G#3","midi":56,"time":34.000016999999815,"velocity":0.7637795275590551,"duration":0.1527778541666649},{"name":"B3","midi":59,"time":34.16668374999981,"velocity":0.7637795275590551,"duration":0.1527778541666649},{"name":"A3","midi":57,"time":34.33335049999981,"velocity":0.7637795275590551,"duration":0.1527778541666649},{"name":"C4","midi":60,"time":34.50001724999981,"velocity":0.7637795275590551,"duration":0.1527778541666649},{"name":"B3","midi":59,"time":34.666683999999805,"velocity":0.7637795275590551,"duration":0.3027779291666661},{"name":"E3","midi":52,"time":35.00001749999981,"velocity":0.7637795275590551,"duration":0.3027779291666661},{"name":"D4","midi":62,"time":35.33335099999981,"velocity":0.7637795275590551,"duration":0.6055558583333251},{"name":"C4","midi":60,"time":35.375017687499806,"velocity":0.7637795275590551,"duration":0.6055558583333251},{"name":"D4","midi":62,"time":35.416684374999804,"velocity":0.7637795275590551,"duration":0.6055558583333251},{"name":"C4","midi":60,"time":36.0000179999998,"velocity":0.7637795275590551,"duration":0.1527778541666649},{"name":"B3","midi":59,"time":36.166684749999796,"velocity":0.7637795275590551,"duration":0.1527778541666649},{"name":"A3","midi":57,"time":36.33335149999979,"velocity":0.7637795275590551,"duration":0.1527778541666649},{"name":"G3","midi":55,"time":36.50001824999979,"velocity":0.7637795275590551,"duration":0.1527778541666649},{"name":"F#3","midi":54,"time":36.66668499999979,"velocity":0.7637795275590551,"duration":0.1527778541666649},{"name":"A3","midi":57,"time":36.833351749999785,"velocity":0.7637795275590551,"duration":0.1527778541666649},{"name":"G#3","midi":56,"time":37.00001849999978,"velocity":0.7637795275590551,"duration":0.1527778541666649},{"name":"B3","midi":59,"time":37.16668524999978,"velocity":0.7637795275590551,"duration":0.1527778541666649},{"name":"A3","midi":57,"time":37.33335199999978,"velocity":0.7637795275590551,"duration":0.1527778541666649},{"name":"C4","midi":60,"time":37.500018749999775,"velocity":0.7637795275590551,"duration":0.1527778541666649},{"name":"B3","midi":59,"time":37.66668549999977,"velocity":0.7637795275590551,"duration":0.1527778541666649},{"name":"D4","midi":62,"time":37.83335224999977,"velocity":0.7637795275590551,"duration":0.1527778541666649},{"name":"C4","midi":60,"time":38.00001899999977,"velocity":0.7637795275590551,"duration":0.1527778541666649},{"name":"E4","midi":64,"time":38.166685749999765,"velocity":0.7637795275590551,"duration":0.1527778541666649},{"name":"D4","midi":62,"time":38.33335249999976,"velocity":0.7637795275590551,"duration":0.1527778541666649},{"name":"F4","midi":65,"time":38.50001924999976,"velocity":0.7637795275590551,"duration":0.1527778541666649},{"name":"E4","midi":64,"time":38.66668599999976,"velocity":0.7637795275590551,"duration":0.3027779291666661},{"name":"A3","midi":57,"time":39.00001949999976,"velocity":0.7637795275590551,"duration":0.3027779291666661},{"name":"E4","midi":64,"time":39.33335299999976,"velocity":0.7637795275590551,"duration":0.3027779291666661},{"name":"E3","midi":52,"time":39.66668649999976,"velocity":0.7637795275590551,"duration":0.3027779291666661},{"name":"A3","midi":57,"time":40.000019999999765,"velocity":0.7637795275590551,"duration":0.3027779291666661},{"name":"A2","midi":45,"time":40.33335349999977,"velocity":0.7637795275590551,"duration":0.3027779291666661},{"name":"E4","midi":64,"time":41.50002074999976,"velocity":0.7637795275590551,"duration":0.1527778541666649},{"name":"D4","midi":62,"time":41.66668749999976,"velocity":0.7637795275590551,"duration":0.1527778541666649},{"name":"C4","midi":60,"time":41.83335424999976,"velocity":0.7637795275590551,"duration":0.1527778541666649},{"name":"B3","midi":59,"time":42.000020999999755,"velocity":0.7637795275590551,"duration":0.1527778541666649},{"name":"D4","midi":62,"time":42.16668774999975,"velocity":0.7637795275590551,"duration":0.1527778541666649},{"name":"C#4","midi":61,"time":42.33335449999975,"velocity":0.7637795275590551,"duration":0.1527778541666649},{"name":"E4","midi":64,"time":42.50002124999975,"velocity":0.7637795275590551,"duration":0.1527778541666649},{"name":"D4","midi":62,"time":42.666687999999745,"velocity":0.7637795275590551,"duration":1.4861118541666656},{"name":"A3","midi":57,"time":44.16668874999974,"velocity":0.7637795275590551,"duration":0.1527778541666649},{"name":"B3","midi":59,"time":44.33335549999974,"velocity":0.7637795275590551,"duration":0.1527778541666649},{"name":"C4","midi":60,"time":44.50002224999974,"velocity":0.7637795275590551,"duration":0.1527778541666649},{"name":"D4","midi":62,"time":44.666688999999735,"velocity":0.7637795275590551,"duration":0.1527778541666649},{"name":"B3","midi":59,"time":44.83335574999973,"velocity":0.7637795275590551,"duration":0.1527778541666649},{"name":"C4","midi":60,"time":45.00002249999973,"velocity":0.7637795275590551,"duration":0.1527778541666649},{"name":"A3","midi":57,"time":45.16668924999973,"velocity":0.7637795275590551,"duration":0.1527778541666649},{"name":"B3","midi":59,"time":45.333355999999725,"velocity":0.7637795275590551,"duration":1.4861118541666656},{"name":"D4","midi":62,"time":46.83335674999972,"velocity":0.7637795275590551,"duration":0.1527778541666649},{"name":"C4","midi":60,"time":47.00002349999972,"velocity":0.7637795275590551,"duration":0.1527778541666649},{"name":"B3","midi":59,"time":47.16669024999972,"velocity":0.7637795275590551,"duration":0.1527778541666649},{"name":"A3","midi":57,"time":47.333356999999715,"velocity":0.7637795275590551,"duration":0.1527778541666649},{"name":"C4","midi":60,"time":47.50002374999971,"velocity":0.7637795275590551,"duration":0.1527778541666649},{"name":"B3","midi":59,"time":47.66669049999971,"velocity":0.7637795275590551,"duration":0.1527778541666649},{"name":"D4","midi":62,"time":47.83335724999971,"velocity":0.7637795275590551,"duration":0.1527778541666649},{"name":"C4","midi":60,"time":48.000023999999705,"velocity":0.7637795275590551,"duration":1.4861118541666656},{"name":"G3","midi":55,"time":49.5000247499997,"velocity":0.7637795275590551,"duration":0.1527778541666649},{"name":"A3","midi":57,"time":49.6666914999997,"velocity":0.7637795275590551,"duration":0.1527778541666649},{"name":"B3","midi":59,"time":49.8333582499997,"velocity":0.7637795275590551,"duration":0.1527778541666649},{"name":"C4","midi":60,"time":50.000024999999695,"velocity":0.7637795275590551,"duration":0.1527778541666649},{"name":"A3","midi":57,"time":50.16669174999969,"velocity":0.7637795275590551,"duration":0.1527778541666649},{"name":"B3","midi":59,"time":50.33335849999969,"velocity":0.7637795275590551,"duration":0.1527778541666649},{"name":"G3","midi":55,"time":50.50002524999969,"velocity":0.7637795275590551,"duration":0.1527778541666649},{"name":"A3","midi":57,"time":50.666691999999685,"velocity":0.7637795275590551,"duration":0.3027779291666661},{"name":"B3","midi":59,"time":51.00002549999969,"velocity":0.7637795275590551,"duration":0.3027779291666661},{"name":"A3","midi":57,"time":51.33335899999969,"velocity":0.7637795275590551,"duration":0.3027779291666661},{"name":"G3","midi":55,"time":51.66669249999969,"velocity":0.7637795275590551,"duration":0.3027779291666661},{"name":"F3","midi":53,"time":52.00002599999969,"velocity":0.7637795275590551,"duration":0.3027779291666661},{"name":"D4","midi":62,"time":52.333359499999695,"velocity":0.7637795275590551,"duration":0.3027779291666661},{"name":"C4","midi":60,"time":52.6666929999997,"velocity":0.7637795275590551,"duration":0.3027779291666661},{"name":"B3","midi":59,"time":53.0000264999997,"velocity":0.7637795275590551,"duration":0.3027779291666661},{"name":"A3","midi":57,"time":53.3333599999997,"velocity":0.7637795275590551,"duration":0.3027779291666661},{"name":"F4","midi":65,"time":53.6666934999997,"velocity":0.7637795275590551,"duration":0.3027779291666661},{"name":"E4","midi":64,"time":54.000026999999704,"velocity":0.7637795275590551,"duration":0.3027779291666661},{"name":"D4","midi":62,"time":54.333360499999706,"velocity":0.7637795275590551,"duration":0.3027779291666661},{"name":"E4","midi":64,"time":54.66669399999971,"velocity":0.7637795275590551,"duration":0.1527778541666649},{"name":"D3","midi":50,"time":54.833360749999706,"velocity":0.7637795275590551,"duration":0.1527778541666649},{"name":"E3","midi":52,"time":55.0000274999997,"velocity":0.7637795275590551,"duration":0.1527778541666649},{"name":"F3","midi":53,"time":55.1666942499997,"velocity":0.7637795275590551,"duration":0.1527778541666649},{"name":"G3","midi":55,"time":55.3333609999997,"velocity":0.7637795275590551,"duration":0.1527778541666649},{"name":"E3","midi":52,"time":55.500027749999695,"velocity":0.7637795275590551,"duration":0.1527778541666649},{"name":"F3","midi":53,"time":55.66669449999969,"velocity":0.7637795275590551,"duration":0.1527778541666649},{"name":"D3","midi":50,"time":55.83336124999969,"velocity":0.7637795275590551,"duration":0.1527778541666649},{"name":"E3","midi":52,"time":56.00002799999969,"velocity":0.7637795275590551,"duration":0.3027779291666661},{"name":"C3","midi":48,"time":56.33336149999969,"velocity":0.7637795275590551,"duration":0.3027779291666661},{"name":"D3","midi":50,"time":56.66669499999969,"velocity":0.7637795275590551,"duration":0.3027779291666661},{"name":"E3","midi":52,"time":57.000028499999694,"velocity":0.7637795275590551,"duration":0.3027779291666661},{"name":"F3","midi":53,"time":57.333361999999696,"velocity":0.7637795275590551,"duration":0.1527778541666649},{"name":"D3","midi":50,"time":57.50002874999969,"velocity":0.7637795275590551,"duration":0.1527778541666649},{"name":"E3","midi":52,"time":57.66669549999969,"velocity":0.7637795275590551,"duration":0.1527778541666649},{"name":"F3","midi":53,"time":57.83336224999969,"velocity":0.7637795275590551,"duration":0.1527778541666649},{"name":"G3","midi":55,"time":58.000028999999685,"velocity":0.7637795275590551,"duration":0.3027779291666661},{"name":"G2","midi":43,"time":58.33336249999969,"velocity":0.7637795275590551,"duration":0.3027779291666661},{"name":"C3","midi":48,"time":58.66669599999969,"velocity":0.7637795275590551,"duration":2.4277789916666634},{"name":"C2","midi":36,"time":58.66669599999969,"velocity":0.7637795275590551,"duration":2.4277789916666634}],"controlChanges":{"7":[{"number":7,"time":0,"value":0.7874015748031497}],"10":[{"number":10,"time":0,"value":0.3779527559055118}]},"id":2,"name":"Harpsichord LH","instrumentNumber":6,"instrument":"harpsichord","instrumentFamily":"piano","channelNumber":0,"isPercussion":false}]}