{"header":{"PPQ":480,"timeSignature":[3,2],"bpm":200,"name":"Bach 3rd English Suite: 3. Courante"},"startTime":0,"duration":116.69749999999932,"tracks":[{"startTime":0,"duration":0,"length":0,"notes":[],"controlChanges":{},"id":0,"name":"Bach 3rd English Suite: 3. Courante"},{"startTime":1.6468749999999999,"duration":116.69749999999932,"length":718,"notes":[{"name":"D4","midi":62,"time":1.6468749999999999,"velocity":0.6220472440944882,"duration":0.08812500000000001},{"name":"D4","midi":62,"time":1.8031249999999999,"velocity":0.6299212598425197,"duration":1.000625},{"name":"C4","midi":60,"time":1.9531249999999998,"velocity":0.6377952755905512,"duration":0.14312500000000017},{"name":"A#3","midi":58,"time":2.104375,"velocity":0.6456692913385826,"duration":0.14812499999999984},{"name":"A3","midi":57,"time":2.254375,"velocity":0.6535433070866141,"duration":0.14749999999999996},{"name":"A#3","midi":58,"time":2.406875,"velocity":0.6614173228346457,"duration":0.5862500000000002},{"name":"D4","midi":62,"time":2.8475,"velocity":0.6850393700787402,"duration":0.1512500000000001},{"name":"G4","midi":67,"time":3.0006250000000003,"velocity":0.6929133858267716,"duration":0.2124999999999999},{"name":"A4","midi":69,"time":3.1518750000000004,"velocity":0.6929133858267716,"duration":0.15124999999999966},{"name":"F#4","midi":66,"time":3.300625,"velocity":0.7007874015748031,"duration":0.1512500000000001},{"name":"G4","midi":67,"time":3.448125,"velocity":0.7086614173228346,"duration":0.15625},{"name":"A4","midi":69,"time":3.5968750000000003,"velocity":0.7244094488188977,"duration":0.6731250000000002},{"name":"D#4","midi":63,"time":3.746875,"velocity":0.7322834645669292,"duration":0.15187499999999998},{"name":"D4","midi":62,"time":3.8981250000000003,"velocity":0.7401574803149606,"duration":0.1537499999999996},{"name":"C4","midi":60,"time":4.046875,"velocity":0.7480314960629921,"duration":0.15812500000000007},{"name":"D4","midi":62,"time":4.203125,"velocity":0.7559055118110236,"duration":0.3643750000000008},{"name":"D4","midi":62,"time":4.656875000000001,"velocity":0.7795275590551181,"duration":0.1431250000000004},{"name":"A4","midi":69,"time":4.801875000000002,"velocity":0.7874015748031497,"duration":0.15249999999999986},{"name":"A#4","midi":70,"time":4.950625000000001,"velocity":0.7952755905511811,"duration":0.15750000000000064},{"name":"G4","midi":67,"time":5.100625000000002,"velocity":0.8031496062992126,"duration":0.1456249999999999},{"name":"A4","midi":69,"time":5.247500000000001,"velocity":0.8110236220472441,"duration":0.15812500000000007},{"name":"A#4","midi":70,"time":5.3987500000000015,"velocity":0.8188976377952756,"duration":0.5912499999999987},{"name":"A4","midi":69,"time":5.553750000000001,"velocity":0.8188976377952756,"duration":0.1462500000000002},{"name":"G4","midi":67,"time":5.704375000000001,"velocity":0.8188976377952756,"duration":0.14499999999999957},{"name":"F#4","midi":66,"time":5.85125,"velocity":0.8188976377952756,"duration":0.1456249999999999},{"name":"G4","midi":67,"time":5.999375000000001,"velocity":0.8188976377952756,"duration":0.15187500000000043},{"name":"D4","midi":62,"time":6.152500000000001,"velocity":0.8188976377952756,"duration":0.1537499999999996},{"name":"D#4","midi":63,"time":6.299375,"velocity":0.8188976377952756,"duration":0.15812500000000007},{"name":"A#4","midi":70,"time":6.44875,"velocity":0.8188976377952756,"duration":0.16062499999999957},{"name":"A4","midi":69,"time":6.60125,"velocity":0.8188976377952756,"duration":0.15124999999999922},{"name":"C5","midi":72,"time":6.75125,"velocity":0.8188976377952756,"duration":0.1431249999999995},{"name":"F#4","midi":66,"time":6.898749999999999,"velocity":0.8188976377952756,"duration":0.14687499999999964},{"name":"G4","midi":67,"time":7.043749999999998,"velocity":0.8188976377952756,"duration":0.15500000000000025},{"name":"F#4","midi":66,"time":7.203124999999998,"velocity":0.8031496062992126,"duration":0.05937500000000018},{"name":"G4","midi":67,"time":7.2506249999999985,"velocity":0.7952755905511811,"duration":0.0699999999999994},{"name":"F#4","midi":66,"time":7.300624999999998,"velocity":0.7795275590551181,"duration":0.23624999999999918},{"name":"E4","midi":64,"time":7.507499999999998,"velocity":0.7322834645669292,"duration":0.14374999999999982},{"name":"D4","midi":62,"time":7.6531249999999975,"velocity":0.7007874015748031,"duration":0.15749999999999975},{"name":"D5","midi":74,"time":7.807499999999997,"velocity":0.6692913385826772,"duration":0.44687500000000036},{"name":"D#5","midi":75,"time":8.252499999999998,"velocity":0.6456692913385826,"duration":0.15625},{"name":"D5","midi":74,"time":8.404999999999998,"velocity":0.6456692913385826,"duration":0.14124999999999943},{"name":"C5","midi":72,"time":8.553749999999997,"velocity":0.6456692913385826,"duration":0.14499999999999957},{"name":"A#4","midi":70,"time":8.699374999999996,"velocity":0.6456692913385826,"duration":0.15312500000000107},{"name":"A4","midi":69,"time":8.849374999999997,"velocity":0.6456692913385826,"duration":0.15500000000000114},{"name":"A#4","midi":70,"time":9.000624999999998,"velocity":0.6456692913385826,"duration":0.1587499999999995},{"name":"A4","midi":69,"time":9.153124999999998,"velocity":0.6456692913385826,"duration":0.14312500000000128},{"name":"G4","midi":67,"time":9.301874999999999,"velocity":0.6456692913385826,"duration":0.14687500000000142},{"name":"A4","midi":69,"time":9.446875,"velocity":0.6456692913385826,"duration":0.161249999999999},{"name":"A#4","midi":70,"time":9.598125,"velocity":0.6456692913385826,"duration":0.1506249999999998},{"name":"C5","midi":72,"time":9.749374999999999,"velocity":0.6456692913385826,"duration":0.14750000000000085},{"name":"D5","midi":74,"time":9.895,"velocity":0.6456692913385826,"duration":0.16000000000000014},{"name":"D#5","midi":75,"time":10.045625,"velocity":0.6535433070866141,"duration":0.14562500000000078},{"name":"F5","midi":77,"time":10.2,"velocity":0.6771653543307087,"duration":0.05375000000000085},{"name":"D#5","midi":75,"time":10.25,"velocity":0.6929133858267716,"duration":0.05375000000000085},{"name":"F5","midi":77,"time":10.315000000000001,"velocity":0.7007874015748031,"duration":0.05375000000000085},{"name":"D#5","midi":75,"time":10.373125000000002,"velocity":0.7086614173228346,"duration":0.053749999999999076},{"name":"F5","midi":77,"time":10.418125000000002,"velocity":0.7165354330708661,"duration":0.053749999999999076},{"name":"D#5","midi":75,"time":10.479375000000001,"velocity":0.7322834645669292,"duration":0.05375000000000085},{"name":"F5","midi":77,"time":10.528125000000001,"velocity":0.7401574803149606,"duration":0.05375000000000085},{"name":"D#5","midi":75,"time":10.588125000000002,"velocity":0.7480314960629921,"duration":0.05375000000000085},{"name":"D5","midi":74,"time":10.673125000000002,"velocity":0.7637795275590551,"duration":0.08000000000000007},{"name":"D#5","midi":75,"time":10.718125000000002,"velocity":0.7716535433070866,"duration":0.09750000000000014},{"name":"F5","midi":77,"time":10.811875000000002,"velocity":0.7874015748031497,"duration":0.4425000000000008},{"name":"D#5","midi":75,"time":11.255000000000003,"velocity":0.7480314960629921,"duration":0.14937500000000092},{"name":"D5","midi":74,"time":11.402500000000003,"velocity":0.7244094488188977,"duration":0.1437500000000007},{"name":"C5","midi":72,"time":11.551875000000004,"velocity":0.7086614173228346,"duration":0.1506249999999998},{"name":"A#4","midi":70,"time":11.698750000000004,"velocity":0.6929133858267716,"duration":0.15187500000000043},{"name":"A4","midi":69,"time":11.846250000000005,"velocity":0.6850393700787402,"duration":0.16000000000000014},{"name":"A#4","midi":70,"time":11.998750000000005,"velocity":0.6692913385826772,"duration":0.15875000000000128},{"name":"C5","midi":72,"time":12.150625000000005,"velocity":0.6614173228346457,"duration":0.15187500000000043},{"name":"F4","midi":65,"time":12.298750000000005,"velocity":0.6535433070866141,"duration":0.15250000000000163},{"name":"G#4","midi":68,"time":12.448125000000006,"velocity":0.6377952755905512,"duration":0.1543750000000017},{"name":"G4","midi":67,"time":12.599375000000007,"velocity":0.6299212598425197,"duration":0.14812500000000028},{"name":"G5","midi":79,"time":12.901875000000008,"velocity":0.8346456692913385,"duration":0.45687500000000014},{"name":"F5","midi":77,"time":13.348750000000008,"velocity":0.6535433070866141,"duration":0.1556249999999988},{"name":"D#5","midi":75,"time":13.498125000000007,"velocity":0.6456692913385826,"duration":0.15499999999999936},{"name":"D5","midi":74,"time":13.647500000000006,"velocity":0.6456692913385826,"duration":0.15062500000000156},{"name":"C5","midi":72,"time":13.796875000000007,"velocity":0.6377952755905512,"duration":0.1518750000000022},{"name":"D5","midi":74,"time":13.943750000000009,"velocity":0.6299212598425197,"duration":0.1587499999999995},{"name":"D#5","midi":75,"time":14.093750000000009,"velocity":0.6220472440944882,"duration":0.15187499999999865},{"name":"A#4","midi":70,"time":14.239375000000008,"velocity":0.6141732283464567,"duration":0.16375000000000028},{"name":"A4","midi":69,"time":14.391250000000008,"velocity":0.6062992125984252,"duration":0.17062499999999936},{"name":"C5","midi":72,"time":14.547500000000008,"velocity":0.6299212598425197,"duration":0.1537500000000005},{"name":"D5","midi":74,"time":14.700000000000008,"velocity":0.6456692913385826,"duration":0.1518750000000022},{"name":"D#5","midi":75,"time":14.84875000000001,"velocity":0.6614173228346457,"duration":0.15687499999999943},{"name":"F5","midi":77,"time":15.00125000000001,"velocity":0.6771653543307087,"duration":0.14749999999999908},{"name":"D#5","midi":75,"time":15.148750000000009,"velocity":0.6929133858267716,"duration":0.15750000000000064},{"name":"F5","midi":77,"time":15.299375000000008,"velocity":0.7165354330708661,"duration":0.15375000000000227},{"name":"G5","midi":79,"time":15.45000000000001,"velocity":0.7322834645669292,"duration":0.1506249999999998},{"name":"F5","midi":77,"time":15.59812500000001,"velocity":0.7480314960629921,"duration":0.16125000000000078},{"name":"D#5","midi":75,"time":15.74812500000001,"velocity":0.7480314960629921,"duration":0.15249999999999986},{"name":"D5","midi":74,"time":15.89437500000001,"velocity":0.7322834645669292,"duration":0.15687499999999943},{"name":"C5","midi":72,"time":16.04250000000001,"velocity":0.7165354330708661,"duration":0.1543750000000017},{"name":"D5","midi":74,"time":16.19437500000001,"velocity":0.7086614173228346,"duration":0.1600000000000037},{"name":"A#4","midi":70,"time":16.498750000000015,"velocity":0.7401574803149606,"duration":0.1531249999999993},{"name":"D5","midi":74,"time":16.792500000000015,"velocity":0.8267716535433071,"duration":0.5362499999999955},{"name":"G5","midi":79,"time":16.855625000000014,"velocity":0.84251968503937,"duration":0.5237499999999962},{"name":"A5","midi":81,"time":16.880625000000013,"velocity":0.8503937007874016,"duration":0.08125000000000071},{"name":"A#5","midi":82,"time":16.93250000000001,"velocity":0.8661417322834646,"duration":0.4131249999999973},{"name":"A5","midi":81,"time":17.24500000000001,"velocity":0.889763779527559,"duration":0.14999999999999858},{"name":"G5","midi":79,"time":17.40375000000001,"velocity":0.889763779527559,"duration":0.151250000000001},{"name":"A5","midi":81,"time":17.54687500000001,"velocity":0.889763779527559,"duration":0.15749999999999886},{"name":"A#5","midi":82,"time":17.70312500000001,"velocity":0.889763779527559,"duration":0.1424999999999983},{"name":"F5","midi":77,"time":17.850625000000008,"velocity":0.889763779527559,"duration":0.14437500000000014},{"name":"D#5","midi":75,"time":17.99875000000001,"velocity":0.889763779527559,"duration":0.05062500000000014},{"name":"F5","midi":77,"time":18.06875000000001,"velocity":0.889763779527559,"duration":0.05062500000000014},{"name":"D#5","midi":75,"time":18.108750000000008,"velocity":0.889763779527559,"duration":0.40625},{"name":"D5","midi":74,"time":18.45062500000001,"velocity":0.889763779527559,"duration":0.1443749999999966},{"name":"C5","midi":72,"time":18.598125000000007,"velocity":0.889763779527559,"duration":0.15625},{"name":"D5","midi":74,"time":18.74875000000001,"velocity":0.889763779527559,"duration":0.1581249999999983},{"name":"D#5","midi":75,"time":18.901250000000008,"velocity":0.8740157480314961,"duration":0.14312499999999773},{"name":"A#4","midi":70,"time":19.046250000000004,"velocity":0.8503937007874016,"duration":0.16000000000000014},{"name":"A4","midi":69,"time":19.196250000000003,"velocity":0.8346456692913385,"duration":0.15937500000000426},{"name":"A#4","midi":70,"time":19.345000000000006,"velocity":0.8188976377952756,"duration":0.16187499999999844},{"name":"C5","midi":72,"time":19.498125000000005,"velocity":0.7952755905511811,"duration":0.15374999999999872},{"name":"G4","midi":67,"time":19.647500000000004,"velocity":0.7795275590551181,"duration":0.1543750000000017},{"name":"F#4","midi":66,"time":19.798750000000005,"velocity":0.7559055118110236,"duration":0.16062500000000313},{"name":"G4","midi":67,"time":19.949375000000007,"velocity":0.7401574803149606,"duration":0.14000000000000057},{"name":"A4","midi":69,"time":20.096875000000008,"velocity":0.7244094488188977,"duration":0.15875000000000128},{"name":"D#4","midi":63,"time":20.25062500000001,"velocity":0.7007874015748031,"duration":0.15124999999999744},{"name":"D4","midi":62,"time":20.403750000000006,"velocity":0.6850393700787402,"duration":0.151250000000001},{"name":"E4","midi":64,"time":20.551875000000006,"velocity":0.6692913385826772,"duration":0.15499999999999758},{"name":"F#4","midi":66,"time":20.705000000000005,"velocity":0.6456692913385826,"duration":0.14874999999999972},{"name":"G4","midi":67,"time":20.998125000000005,"velocity":0.6141732283464567,"duration":0.29812499999999886},{"name":"A#4","midi":70,"time":21.303750000000004,"velocity":0.6535433070866141,"duration":0.1424999999999983},{"name":"A4","midi":69,"time":21.4475,"velocity":0.6220472440944882,"duration":0.1593750000000007},{"name":"A#4","midi":70,"time":21.600625,"velocity":0.6456692913385826,"duration":0.16062500000000313},{"name":"G4","midi":67,"time":21.902500000000003,"velocity":0.6929133858267716,"duration":0.1531249999999993},{"name":"G5","midi":79,"time":22.205000000000002,"velocity":0.7401574803149606,"duration":0.44437500000000085},{"name":"G#5","midi":80,"time":22.646875,"velocity":0.7952755905511811,"duration":0.16250000000000142},{"name":"G5","midi":79,"time":22.800000000000004,"velocity":0.8110236220472441,"duration":0.14624999999999844},{"name":"F5","midi":77,"time":22.948750000000004,"velocity":0.7795275590551181,"duration":0.15187500000000043},{"name":"D#5","midi":75,"time":23.094375000000003,"velocity":0.7795275590551181,"duration":0.161249999999999},{"name":"D5","midi":74,"time":23.246250000000003,"velocity":0.7795275590551181,"duration":0.15937499999999716},{"name":"D#5","midi":75,"time":23.3975,"velocity":0.7795275590551181,"duration":0.7418750000000038},{"name":"D5","midi":74,"time":23.545625,"velocity":0.8031496062992126,"duration":0.15562500000000057},{"name":"C5","midi":72,"time":23.695625000000003,"velocity":0.8188976377952756,"duration":0.15562500000000057},{"name":"A#4","midi":70,"time":23.845000000000002,"velocity":0.8346456692913385,"duration":0.1593750000000007},{"name":"C5","midi":72,"time":24.000625000000003,"velocity":0.8582677165354331,"duration":0.15812500000000185},{"name":"D#5","midi":75,"time":24.300625000000004,"velocity":0.8976377952755905,"duration":0.16000000000000014},{"name":"G5","midi":79,"time":24.301875000000003,"velocity":0.8976377952755905,"duration":0.1593750000000007},{"name":"D5","midi":74,"time":24.595000000000002,"velocity":0.9291338582677166,"duration":0.16062499999999957},{"name":"A5","midi":81,"time":24.601250000000004,"velocity":0.937007874015748,"duration":0.9037499999999952},{"name":"C5","midi":72,"time":24.750625000000003,"velocity":0.889763779527559,"duration":0.15187499999999687},{"name":"A#4","midi":70,"time":24.900625,"velocity":0.905511811023622,"duration":0.15624999999999645},{"name":"A4","midi":69,"time":25.049999999999997,"velocity":0.9133858267716536,"duration":0.15500000000000114},{"name":"A#4","midi":70,"time":25.200625,"velocity":0.9291338582677166,"duration":0.9093750000000007},{"name":"G5","midi":79,"time":25.499375,"velocity":0.9212598425196851,"duration":0.15437499999999815},{"name":"F5","midi":77,"time":25.649375,"velocity":0.9291338582677166,"duration":0.21437500000000043},{"name":"G5","midi":79,"time":25.805,"velocity":0.7165354330708661,"duration":1.6337499999999956},{"name":"A4","midi":69,"time":26.10625,"velocity":0.8740157480314961,"duration":0.14687500000000142},{"name":"G4","midi":67,"time":26.254375,"velocity":0.8503937007874016,"duration":0.1531249999999993},{"name":"C#5","midi":73,"time":26.404374999999998,"velocity":0.8188976377952756,"duration":0.14312500000000128},{"name":"D5","midi":74,"time":26.54875,"velocity":0.7952755905511811,"duration":0.14624999999999844},{"name":"E5","midi":76,"time":26.706874999999997,"velocity":0.7716535433070866,"duration":0.14000000000000057},{"name":"A#4","midi":70,"time":26.850624999999997,"velocity":0.7401574803149606,"duration":0.15562499999999702},{"name":"A4","midi":69,"time":27.004374999999996,"velocity":0.7165354330708661,"duration":1.1906249999999972},{"name":"A5","midi":81,"time":27.439999999999994,"velocity":0.6614173228346457,"duration":0.15500000000000114},{"name":"F5","midi":77,"time":27.559374999999996,"velocity":0.6535433070866141,"duration":0.061874999999997016},{"name":"G5","midi":79,"time":27.595624999999995,"velocity":0.6535433070866141,"duration":0.08624999999999616},{"name":"F5","midi":77,"time":27.65749999999999,"velocity":0.6456692913385826,"duration":0.39750000000000085},{"name":"E5","midi":76,"time":28.06437499999999,"velocity":0.6141732283464567,"duration":0.1281250000000007},{"name":"F5","midi":77,"time":28.213749999999994,"velocity":0.6062992125984252,"duration":0.08999999999999986},{"name":"C#5","midi":73,"time":28.235624999999995,"velocity":0.5984251968503937,"duration":0.5081250000000033},{"name":"E5","midi":76,"time":28.286249999999995,"velocity":0.5984251968503937,"duration":0.06312499999999943},{"name":"F5","midi":77,"time":28.353124999999995,"velocity":0.5905511811023622,"duration":0.04625000000000057},{"name":"E5","midi":76,"time":28.399374999999996,"velocity":0.5905511811023622,"duration":0.07375000000000043},{"name":"F5","midi":77,"time":28.482499999999995,"velocity":0.5826771653543307,"duration":0.025625000000001563},{"name":"E5","midi":76,"time":28.521874999999998,"velocity":0.5748031496062992,"duration":0.08687499999999915},{"name":"D5","midi":74,"time":28.638749999999998,"velocity":0.5669291338582677,"duration":0.146250000000002},{"name":"D5","midi":74,"time":28.809375,"velocity":0.5590551181102362,"duration":1.4899999999999984},{"name":"F#4","midi":66,"time":29.693125000000002,"velocity":0.5196850393700787,"duration":0.5999999999999979},{"name":"A4","midi":69,"time":29.69375,"velocity":0.5196850393700787,"duration":0.5999999999999979},{"name":"D4","midi":62,"time":30.446875,"velocity":0.5826771653543307,"duration":0.08812500000000156},{"name":"D4","midi":62,"time":30.603125,"velocity":0.5905511811023622,"duration":1.0006249999999994},{"name":"C4","midi":60,"time":30.753124999999997,"velocity":0.5984251968503937,"duration":0.14312500000000128},{"name":"A#3","midi":58,"time":30.904374999999998,"velocity":0.6062992125984252,"duration":0.14812500000000028},{"name":"A3","midi":57,"time":31.054374999999997,"velocity":0.6141732283464567,"duration":0.14750000000000085},{"name":"A#3","midi":58,"time":31.206874999999997,"velocity":0.6220472440944882,"duration":0.5862499999999997},{"name":"D4","midi":62,"time":31.647499999999997,"velocity":0.6456692913385826,"duration":0.15124999999999744},{"name":"G4","midi":67,"time":31.800624999999993,"velocity":0.6535433070866141,"duration":0.21250000000000213},{"name":"A4","midi":69,"time":31.951874999999994,"velocity":0.6535433070866141,"duration":0.15124999999999744},{"name":"F#4","midi":66,"time":32.100624999999994,"velocity":0.6535433070866141,"duration":0.15124999999999744},{"name":"G4","midi":67,"time":32.248124999999995,"velocity":0.6614173228346457,"duration":0.15625},{"name":"A4","midi":69,"time":32.396874999999994,"velocity":0.6771653543307087,"duration":0.6731249999999918},{"name":"D#4","midi":63,"time":32.54687499999999,"velocity":0.6850393700787402,"duration":0.15187499999999687},{"name":"D4","midi":62,"time":32.69812499999999,"velocity":0.6929133858267716,"duration":0.15375000000000227},{"name":"C4","midi":60,"time":32.84687499999999,"velocity":0.7007874015748031,"duration":0.1581249999999983},{"name":"D4","midi":62,"time":33.00312499999999,"velocity":0.7086614173228346,"duration":0.36437499999999545},{"name":"D4","midi":62,"time":33.45687499999998,"velocity":0.7322834645669292,"duration":0.14312499999999773},{"name":"A4","midi":69,"time":33.60187499999998,"velocity":0.7401574803149606,"duration":0.1524999999999963},{"name":"A#4","midi":70,"time":33.75062499999998,"velocity":0.7480314960629921,"duration":0.15749999999999886},{"name":"G4","midi":67,"time":33.90062499999998,"velocity":0.7559055118110236,"duration":0.14562500000000256},{"name":"A4","midi":69,"time":34.04749999999998,"velocity":0.7637795275590551,"duration":0.1581249999999983},{"name":"A#4","midi":70,"time":34.198749999999976,"velocity":0.7716535433070866,"duration":0.5912500000000094},{"name":"A4","midi":69,"time":34.35374999999998,"velocity":0.7716535433070866,"duration":0.146250000000002},{"name":"G4","midi":67,"time":34.50437499999998,"velocity":0.7716535433070866,"duration":0.14500000000000313},{"name":"F#4","midi":66,"time":34.65124999999998,"velocity":0.7716535433070866,"duration":0.14562500000000256},{"name":"G4","midi":67,"time":34.79937499999998,"velocity":0.7716535433070866,"duration":0.15187499999999687},{"name":"D4","midi":62,"time":34.95249999999998,"velocity":0.7716535433070866,"duration":0.15375000000000227},{"name":"D#4","midi":63,"time":35.09937499999998,"velocity":0.7716535433070866,"duration":0.1581249999999983},{"name":"A#4","midi":70,"time":35.24874999999998,"velocity":0.7716535433070866,"duration":0.16062499999999602},{"name":"A4","midi":69,"time":35.401249999999976,"velocity":0.7716535433070866,"duration":0.15124999999999744},{"name":"C5","midi":72,"time":35.551249999999975,"velocity":0.7716535433070866,"duration":0.14312499999999773},{"name":"F#4","midi":66,"time":35.698749999999976,"velocity":0.7716535433070866,"duration":0.14687500000000142},{"name":"G4","midi":67,"time":35.84374999999998,"velocity":0.7716535433070866,"duration":0.15500000000000114},{"name":"F#4","midi":66,"time":36.00312499999998,"velocity":0.7559055118110236,"duration":0.05937500000000284},{"name":"G4","midi":67,"time":36.05062499999998,"velocity":0.7480314960629921,"duration":0.07000000000000739},{"name":"F#4","midi":66,"time":36.10062499999999,"velocity":0.7401574803149606,"duration":0.2362500000000054},{"name":"E4","midi":64,"time":36.30749999999999,"velocity":0.6929133858267716,"duration":0.14375000000000426},{"name":"D4","midi":62,"time":36.45312499999999,"velocity":0.6614173228346457,"duration":0.15749999999999886},{"name":"D5","midi":74,"time":36.607499999999995,"velocity":0.6377952755905512,"duration":0.4468749999999986},{"name":"D#5","midi":75,"time":37.052499999999995,"velocity":0.6220472440944882,"duration":0.1562499999999929},{"name":"D5","midi":74,"time":37.20499999999999,"velocity":0.6220472440944882,"duration":0.14124999999999943},{"name":"C5","midi":72,"time":37.35374999999999,"velocity":0.6220472440944882,"duration":0.14500000000000313},{"name":"A#4","midi":70,"time":37.49937499999999,"velocity":0.6220472440944882,"duration":0.15312499999999574},{"name":"A4","midi":69,"time":37.64937499999999,"velocity":0.6220472440944882,"duration":0.15499999999999403},{"name":"A#4","midi":70,"time":37.80062499999999,"velocity":0.6220472440944882,"duration":0.15874999999999773},{"name":"A4","midi":69,"time":37.953124999999986,"velocity":0.6220472440944882,"duration":0.14312500000000483},{"name":"G4","midi":67,"time":38.10187499999999,"velocity":0.6220472440944882,"duration":0.14687500000000142},{"name":"A4","midi":69,"time":38.246874999999996,"velocity":0.6220472440944882,"duration":0.16124999999999545},{"name":"A#4","midi":70,"time":38.39812499999999,"velocity":0.6220472440944882,"duration":0.150624999999998},{"name":"C5","midi":72,"time":38.54937499999999,"velocity":0.6220472440944882,"duration":0.14750000000000085},{"name":"D5","midi":74,"time":38.69499999999999,"velocity":0.6220472440944882,"duration":0.1599999999999966},{"name":"D#5","midi":75,"time":38.84562499999999,"velocity":0.6299212598425197,"duration":0.14562499999999545},{"name":"F5","midi":77,"time":38.999999999999986,"velocity":0.6456692913385826,"duration":0.05374999999999375},{"name":"D#5","midi":75,"time":39.04999999999998,"velocity":0.6614173228346457,"duration":0.05374999999999375},{"name":"F5","midi":77,"time":39.114999999999974,"velocity":0.6692913385826772,"duration":0.05375000000000085},{"name":"D#5","midi":75,"time":39.17312499999998,"velocity":0.6771653543307087,"duration":0.05375000000000085},{"name":"F5","midi":77,"time":39.21812499999998,"velocity":0.6850393700787402,"duration":0.05375000000000085},{"name":"D#5","midi":75,"time":39.27937499999998,"velocity":0.7007874015748031,"duration":0.05375000000000085},{"name":"F5","midi":77,"time":39.32812499999998,"velocity":0.7086614173228346,"duration":0.05375000000000085},{"name":"D#5","midi":75,"time":39.38812499999998,"velocity":0.7165354330708661,"duration":0.05375000000000085},{"name":"D5","midi":74,"time":39.47312499999998,"velocity":0.7322834645669292,"duration":0.0799999999999983},{"name":"D#5","midi":75,"time":39.51812499999998,"velocity":0.7480314960629921,"duration":0.09749999999999659},{"name":"F5","midi":77,"time":39.61187499999998,"velocity":0.7559055118110236,"duration":0.44249999999999545},{"name":"D#5","midi":75,"time":40.05499999999998,"velocity":0.7244094488188977,"duration":0.14937499999999915},{"name":"D5","midi":74,"time":40.20249999999998,"velocity":0.7007874015748031,"duration":0.14374999999999716},{"name":"C5","midi":72,"time":40.35187499999998,"velocity":0.6850393700787402,"duration":0.150624999999998},{"name":"A#4","midi":70,"time":40.49874999999998,"velocity":0.6692913385826772,"duration":0.15187499999999687},{"name":"A4","midi":69,"time":40.646249999999974,"velocity":0.6614173228346457,"duration":0.1600000000000037},{"name":"A#4","midi":70,"time":40.79874999999998,"velocity":0.6456692913385826,"duration":0.15874999999999773},{"name":"C5","midi":72,"time":40.950624999999974,"velocity":0.6377952755905512,"duration":0.15187499999999687},{"name":"F4","midi":65,"time":41.098749999999974,"velocity":0.6299212598425197,"duration":0.1524999999999963},{"name":"G#4","midi":68,"time":41.24812499999997,"velocity":0.6141732283464567,"duration":0.1543749999999946},{"name":"G4","midi":67,"time":41.39937499999997,"velocity":0.6062992125984252,"duration":0.14812500000000028},{"name":"G5","midi":79,"time":41.70187499999997,"velocity":0.8031496062992126,"duration":0.4568749999999966},{"name":"F5","midi":77,"time":42.14874999999997,"velocity":0.6299212598425197,"duration":0.15562500000000057},{"name":"D#5","midi":75,"time":42.29812499999997,"velocity":0.6220472440944882,"duration":0.15500000000000114},{"name":"D5","midi":74,"time":42.44749999999997,"velocity":0.6220472440944882,"duration":0.150624999999998},{"name":"C5","midi":72,"time":42.59687499999997,"velocity":0.6220472440944882,"duration":0.15187500000000398},{"name":"D5","midi":74,"time":42.74374999999997,"velocity":0.6141732283464567,"duration":0.15875000000000483},{"name":"D#5","midi":75,"time":42.893749999999976,"velocity":0.6062992125984252,"duration":0.15187500000000398},{"name":"A#4","midi":70,"time":43.03937499999998,"velocity":0.5984251968503937,"duration":0.1637500000000074},{"name":"A4","midi":69,"time":43.19124999999998,"velocity":0.5905511811023622,"duration":0.17062500000000114},{"name":"C5","midi":72,"time":43.34749999999998,"velocity":0.6141732283464567,"duration":0.15375000000000227},{"name":"D5","midi":74,"time":43.499999999999986,"velocity":0.6299212598425197,"duration":0.15187499999999687},{"name":"D#5","midi":75,"time":43.648749999999986,"velocity":0.6456692913385826,"duration":0.15687499999999943},{"name":"F5","midi":77,"time":43.80124999999998,"velocity":0.6614173228346457,"duration":0.14750000000000085},{"name":"D#5","midi":75,"time":43.94874999999998,"velocity":0.6771653543307087,"duration":0.15749999999999886},{"name":"F5","midi":77,"time":44.09937499999998,"velocity":0.7007874015748031,"duration":0.15374999999999517},{"name":"G5","midi":79,"time":44.24999999999998,"velocity":0.7165354330708661,"duration":0.150624999999998},{"name":"F5","midi":77,"time":44.39812499999998,"velocity":0.7322834645669292,"duration":0.16124999999999545},{"name":"D#5","midi":75,"time":44.54812499999998,"velocity":0.7322834645669292,"duration":0.1524999999999963},{"name":"D5","midi":74,"time":44.69437499999997,"velocity":0.7165354330708661,"duration":0.15687499999999943},{"name":"C5","midi":72,"time":44.84249999999997,"velocity":0.7007874015748031,"duration":0.1543749999999946},{"name":"D5","midi":74,"time":44.99437499999997,"velocity":0.6929133858267716,"duration":0.1599999999999966},{"name":"A#4","midi":70,"time":45.29874999999996,"velocity":0.7244094488188977,"duration":0.15312499999999574},{"name":"D5","midi":74,"time":45.59249999999996,"velocity":0.8267716535433071,"duration":0.5362500000000026},{"name":"G5","midi":79,"time":45.65562499999996,"velocity":0.84251968503937,"duration":0.5237499999999997},{"name":"A5","midi":81,"time":45.68062499999996,"velocity":0.8503937007874016,"duration":0.08125000000000426},{"name":"A#5","midi":82,"time":45.73249999999996,"velocity":0.8661417322834646,"duration":0.41312500000000085},{"name":"A5","midi":81,"time":46.04499999999996,"velocity":0.889763779527559,"duration":0.14999999999999858},{"name":"G5","midi":79,"time":46.20374999999996,"velocity":0.889763779527559,"duration":0.15124999999999744},{"name":"A5","midi":81,"time":46.346874999999955,"velocity":0.889763779527559,"duration":0.15749999999999886},{"name":"A#5","midi":82,"time":46.503124999999955,"velocity":0.889763779527559,"duration":0.1424999999999983},{"name":"F5","midi":77,"time":46.650624999999955,"velocity":0.889763779527559,"duration":0.1443749999999966},{"name":"D#5","midi":75,"time":46.79874999999995,"velocity":0.889763779527559,"duration":0.05062499999999659},{"name":"F5","midi":77,"time":46.86874999999994,"velocity":0.889763779527559,"duration":0.05062499999999659},{"name":"D#5","midi":75,"time":46.90874999999994,"velocity":0.889763779527559,"duration":0.4062499999999929},{"name":"D5","midi":74,"time":47.250624999999935,"velocity":0.889763779527559,"duration":0.1443749999999966},{"name":"C5","midi":72,"time":47.39812499999993,"velocity":0.889763779527559,"duration":0.15625},{"name":"D5","midi":74,"time":47.54874999999993,"velocity":0.889763779527559,"duration":0.1581250000000054},{"name":"D#5","midi":75,"time":47.70124999999993,"velocity":0.8740157480314961,"duration":0.14312500000000483},{"name":"A#4","midi":70,"time":47.846249999999934,"velocity":0.8503937007874016,"duration":0.1599999999999966},{"name":"A4","midi":69,"time":47.99624999999993,"velocity":0.8346456692913385,"duration":0.15937499999999716},{"name":"A#4","midi":70,"time":48.14499999999993,"velocity":0.8188976377952756,"duration":0.16187499999999488},{"name":"C5","midi":72,"time":48.29812499999993,"velocity":0.7952755905511811,"duration":0.15375000000000227},{"name":"G4","midi":67,"time":48.44749999999993,"velocity":0.7795275590551181,"duration":0.1543750000000017},{"name":"F#4","midi":66,"time":48.59874999999993,"velocity":0.7559055118110236,"duration":0.16062499999998892},{"name":"G4","midi":67,"time":48.74937499999992,"velocity":0.7401574803149606,"duration":0.14000000000000057},{"name":"A4","midi":69,"time":48.89687499999992,"velocity":0.7244094488188977,"duration":0.15875000000000483},{"name":"D#4","midi":63,"time":49.050624999999926,"velocity":0.7007874015748031,"duration":0.15125000000000455},{"name":"D4","midi":62,"time":49.20374999999993,"velocity":0.6850393700787402,"duration":0.15124999999999744},{"name":"E4","midi":64,"time":49.35187499999993,"velocity":0.6692913385826772,"duration":0.15499999999999403},{"name":"F#4","midi":66,"time":49.504999999999924,"velocity":0.6456692913385826,"duration":0.14874999999999972},{"name":"G4","midi":67,"time":49.79812499999992,"velocity":0.6141732283464567,"duration":0.29812499999999886},{"name":"A#4","midi":70,"time":50.10374999999992,"velocity":0.6535433070866141,"duration":0.1424999999999983},{"name":"A4","midi":69,"time":50.24749999999992,"velocity":0.6220472440944882,"duration":0.15937500000000426},{"name":"A#4","midi":70,"time":50.40062499999992,"velocity":0.6456692913385826,"duration":0.16062500000000313},{"name":"G4","midi":67,"time":50.70249999999992,"velocity":0.7007874015748031,"duration":0.15312500000000284},{"name":"G5","midi":79,"time":51.004999999999924,"velocity":0.7559055118110236,"duration":0.44437500000000085},{"name":"G#5","midi":80,"time":51.44687499999993,"velocity":0.8267716535433071,"duration":0.16249999999999432},{"name":"G5","midi":79,"time":51.59999999999992,"velocity":0.84251968503937,"duration":0.146250000000002},{"name":"F5","midi":77,"time":51.74874999999992,"velocity":0.8188976377952756,"duration":0.15187500000000398},{"name":"D#5","midi":75,"time":51.894374999999926,"velocity":0.8188976377952756,"duration":0.16125000000000256},{"name":"D5","midi":74,"time":52.04624999999993,"velocity":0.8267716535433071,"duration":0.15937499999999716},{"name":"D#5","midi":75,"time":52.19749999999993,"velocity":0.8267716535433071,"duration":0.7418749999999932},{"name":"D5","midi":74,"time":52.34562499999993,"velocity":0.8582677165354331,"duration":0.15562500000000057},{"name":"C5","midi":72,"time":52.495624999999926,"velocity":0.8740157480314961,"duration":0.15562500000000057},{"name":"A#4","midi":70,"time":52.644999999999925,"velocity":0.889763779527559,"duration":0.15937499999999716},{"name":"C5","midi":72,"time":52.800624999999926,"velocity":0.9291338582677166,"duration":0.1581249999999912},{"name":"D#5","midi":75,"time":53.100624999999916,"velocity":0.984251968503937,"duration":0.1599999999999966},{"name":"G5","midi":79,"time":53.101874999999914,"velocity":0.984251968503937,"duration":0.15937499999999716},{"name":"D5","midi":74,"time":53.39499999999991,"velocity":1,"duration":0.16062500000000313},{"name":"A5","midi":81,"time":53.40124999999991,"velocity":1,"duration":0.9037500000000094},{"name":"C5","midi":72,"time":53.55062499999991,"velocity":0.984251968503937,"duration":0.15187500000000398},{"name":"A#4","midi":70,"time":53.70062499999992,"velocity":1,"duration":0.15625},{"name":"A4","midi":69,"time":53.849999999999916,"velocity":1,"duration":0.15500000000000114},{"name":"A#4","midi":70,"time":54.000624999999914,"velocity":1,"duration":0.9093750000000043},{"name":"G5","midi":79,"time":54.29937499999992,"velocity":1,"duration":0.1543750000000017},{"name":"F5","midi":77,"time":54.44937499999992,"velocity":1,"duration":0.21437500000000398},{"name":"G5","midi":79,"time":54.60499999999992,"velocity":0.8031496062992126,"duration":1.633749999999992},{"name":"A4","midi":69,"time":54.90624999999992,"velocity":0.984251968503937,"duration":0.14687499999999432},{"name":"G4","midi":67,"time":55.054374999999915,"velocity":0.952755905511811,"duration":0.15312499999999574},{"name":"C#5","midi":73,"time":55.204374999999914,"velocity":0.905511811023622,"duration":0.14312499999999773},{"name":"D5","midi":74,"time":55.34874999999991,"velocity":0.8818897637795275,"duration":0.146250000000002},{"name":"E5","midi":76,"time":55.506874999999916,"velocity":0.84251968503937,"duration":0.14000000000000057},{"name":"A#4","midi":70,"time":55.65062499999991,"velocity":0.8110236220472441,"duration":0.15562500000000057},{"name":"A4","midi":69,"time":55.804374999999915,"velocity":0.7716535433070866,"duration":1.19062499999999},{"name":"A5","midi":81,"time":56.23999999999991,"velocity":0.7086614173228346,"duration":0.15500000000000114},{"name":"F5","midi":77,"time":56.35937499999991,"velocity":0.6929133858267716,"duration":0.06187500000000057},{"name":"G5","midi":79,"time":56.39562499999991,"velocity":0.6929133858267716,"duration":0.08624999999999972},{"name":"F5","midi":77,"time":56.45749999999991,"velocity":0.6850393700787402,"duration":0.39749999999999375},{"name":"E5","midi":76,"time":56.8643749999999,"velocity":0.6456692913385826,"duration":0.12812500000000426},{"name":"F5","midi":77,"time":57.0137499999999,"velocity":0.6299212598425197,"duration":0.0899999999999963},{"name":"C#5","midi":73,"time":57.035624999999904,"velocity":0.6220472440944882,"duration":0.5081249999999926},{"name":"E5","midi":76,"time":57.0862499999999,"velocity":0.6220472440944882,"duration":0.06312499999999943},{"name":"F5","midi":77,"time":57.153124999999896,"velocity":0.6141732283464567,"duration":0.04625000000000057},{"name":"E5","midi":76,"time":57.1993749999999,"velocity":0.6062992125984252,"duration":0.07375000000000398},{"name":"F5","midi":77,"time":57.2824999999999,"velocity":0.5984251968503937,"duration":0.02562499999999801},{"name":"E5","midi":76,"time":57.3218749999999,"velocity":0.5905511811023622,"duration":0.08687499999999915},{"name":"D5","midi":74,"time":57.4387499999999,"velocity":0.5826771653543307,"duration":0.14624999999999488},{"name":"D5","midi":74,"time":57.6093749999999,"velocity":0.5669291338582677,"duration":1.490000000000009},{"name":"F#4","midi":66,"time":58.49312499999991,"velocity":0.5196850393700787,"duration":0.6000000000000014},{"name":"A4","midi":69,"time":58.493749999999906,"velocity":0.5196850393700787,"duration":0.6000000000000014},{"name":"A5","midi":81,"time":59.23937499999991,"velocity":0.6299212598425197,"duration":0.14937499999999915},{"name":"A5","midi":81,"time":59.41062499999991,"velocity":0.6299212598425197,"duration":0.5999999999999943},{"name":"G5","midi":79,"time":59.55249999999991,"velocity":0.6299212598425197,"duration":0.1424999999999983},{"name":"F#5","midi":78,"time":59.70374999999991,"velocity":0.6299212598425197,"duration":0.14375000000000426},{"name":"E5","midi":76,"time":59.84874999999991,"velocity":0.6299212598425197,"duration":0.150624999999998},{"name":"F#5","midi":78,"time":60.00062499999991,"velocity":0.6299212598425197,"duration":0.1599999999999966},{"name":"D5","midi":74,"time":60.29749999999991,"velocity":0.6299212598425197,"duration":0.15687499999999943},{"name":"F#5","midi":78,"time":60.298749999999906,"velocity":0.6299212598425197,"duration":0.15687499999999943},{"name":"G5","midi":79,"time":60.596874999999905,"velocity":0.6299212598425197,"duration":0.4549999999999983},{"name":"D5","midi":74,"time":60.5999999999999,"velocity":0.6299212598425197,"duration":1.1381250000000023},{"name":"A5","midi":81,"time":61.0456249999999,"velocity":0.6299212598425197,"duration":0.16125000000000256},{"name":"A#5","midi":82,"time":61.198749999999905,"velocity":0.6299212598425197,"duration":0.463124999999998},{"name":"A5","midi":81,"time":61.6543749999999,"velocity":0.6299212598425197,"duration":0.14937499999999915},{"name":"G5","midi":79,"time":61.8043749999999,"velocity":0.6299212598425197,"duration":0.14500000000000313},{"name":"A5","midi":81,"time":61.9518749999999,"velocity":0.6299212598425197,"duration":0.1525000000000034},{"name":"A#5","midi":82,"time":62.0987499999999,"velocity":0.6299212598425197,"duration":0.15062500000000512},{"name":"F5","midi":77,"time":62.24937499999991,"velocity":0.6299212598425197,"duration":0.1387500000000017},{"name":"F5","midi":77,"time":62.40124999999991,"velocity":0.6299212598425197,"duration":0.1543750000000017},{"name":"E5","midi":76,"time":62.55062499999991,"velocity":0.6299212598425197,"duration":0.15500000000000824},{"name":"D5","midi":74,"time":62.70062499999992,"velocity":0.6299212598425197,"duration":0.14375000000000426},{"name":"C5","midi":72,"time":62.848749999999924,"velocity":0.6299212598425197,"duration":0.15500000000000114},{"name":"C6","midi":84,"time":63.00124999999993,"velocity":0.6299212598425197,"duration":0.44624999999999204},{"name":"G5","midi":79,"time":63.44749999999992,"velocity":0.6692913385826772,"duration":0.15874999999999773},{"name":"A5","midi":81,"time":63.59937499999992,"velocity":0.6771653543307087,"duration":0.1543750000000017},{"name":"E5","midi":76,"time":63.75124999999992,"velocity":0.6929133858267716,"duration":0.14812499999999318},{"name":"F5","midi":77,"time":63.896874999999916,"velocity":0.7007874015748031,"duration":0.14812500000000028},{"name":"A#5","midi":82,"time":64.04374999999992,"velocity":0.7086614173228346,"duration":0.1599999999999966},{"name":"E5","midi":76,"time":64.19437499999992,"velocity":0.7244094488188977,"duration":0.5343749999999972},{"name":"A5","midi":81,"time":64.19624999999992,"velocity":0.7244094488188977,"duration":0.08437499999999432},{"name":"G5","midi":79,"time":64.30124999999991,"velocity":0.7322834645669292,"duration":0.08499999999999375},{"name":"A5","midi":81,"time":64.34937499999991,"velocity":0.7322834645669292,"duration":0.0799999999999983},{"name":"G5","midi":79,"time":64.4212499999999,"velocity":0.7401574803149606,"duration":0.0800000000000125},{"name":"A5","midi":81,"time":64.48999999999991,"velocity":0.7480314960629921,"duration":0.0800000000000125},{"name":"G5","midi":79,"time":64.54374999999992,"velocity":0.7480314960629921,"duration":0.08249999999999602},{"name":"F5","midi":77,"time":64.61874999999992,"velocity":0.7559055118110236,"duration":0.0799999999999983},{"name":"G5","midi":79,"time":64.67437499999991,"velocity":0.7559055118110236,"duration":0.14187500000001307},{"name":"F5","midi":77,"time":64.79937499999993,"velocity":0.7716535433070866,"duration":0.7499999999999858},{"name":"G5","midi":79,"time":65.54437499999992,"velocity":0.7637795275590551,"duration":0.15874999999999773},{"name":"G#5","midi":80,"time":65.69437499999991,"velocity":0.7559055118110236,"duration":0.16312500000000796},{"name":"G5","midi":79,"time":65.84562499999991,"velocity":0.7559055118110236,"duration":0.15749999999999886},{"name":"F5","midi":77,"time":65.99937499999992,"velocity":0.7480314960629921,"duration":0.1543749999999875},{"name":"D#5","midi":75,"time":66.14812499999991,"velocity":0.7401574803149606,"duration":0.15999999999998238},{"name":"D5","midi":74,"time":66.3012499999999,"velocity":0.7401574803149606,"duration":0.15187499999998977},{"name":"D#5","midi":75,"time":66.44687499999989,"velocity":0.7322834645669292,"duration":0.15749999999998465},{"name":"C5","midi":72,"time":66.59874999999988,"velocity":0.7244094488188977,"duration":0.15562499999998636},{"name":"B4","midi":71,"time":66.75062499999987,"velocity":0.7244094488188977,"duration":0.1599999999999966},{"name":"A4","midi":69,"time":66.90374999999987,"velocity":0.7165354330708661,"duration":0.14687499999999432},{"name":"G4","midi":67,"time":67.05124999999987,"velocity":0.7244094488188977,"duration":0.15312500000000284},{"name":"C5","midi":72,"time":67.20187499999987,"velocity":0.7322834645669292,"duration":0.14749999999999375},{"name":"B4","midi":71,"time":67.34874999999987,"velocity":0.7401574803149606,"duration":0.15499999999998693},{"name":"C5","midi":72,"time":67.49749999999986,"velocity":0.7480314960629921,"duration":0.15874999999999773},{"name":"D#5","midi":75,"time":67.64812499999985,"velocity":0.7559055118110236,"duration":0.1525000000000034},{"name":"D5","midi":74,"time":67.79624999999986,"velocity":0.7637795275590551,"duration":0.15625},{"name":"D#5","midi":75,"time":67.94374999999985,"velocity":0.7716535433070866,"duration":0.16437500000000682},{"name":"F5","midi":77,"time":68.09687499999986,"velocity":0.7795275590551181,"duration":0.15000000000000568},{"name":"D5","midi":74,"time":68.24499999999986,"velocity":0.7952755905511811,"duration":0.1581249999999983},{"name":"F5","midi":77,"time":68.39499999999985,"velocity":0.8031496062992126,"duration":0.1618750000000091},{"name":"D#5","midi":75,"time":68.54749999999986,"velocity":0.8110236220472441,"duration":0.16125000000002387},{"name":"D5","midi":74,"time":68.69812499999988,"velocity":0.8188976377952756,"duration":0.1543750000000017},{"name":"C5","midi":72,"time":68.84999999999988,"velocity":0.8267716535433071,"duration":0.15374999999998806},{"name":"D5","midi":74,"time":68.99874999999987,"velocity":0.8346456692913385,"duration":0.15749999999999886},{"name":"E5","midi":76,"time":69.14749999999987,"velocity":0.84251968503937,"duration":0.15062500000000512},{"name":"F5","midi":77,"time":69.29937499999987,"velocity":0.8503937007874016,"duration":0.14937499999999204},{"name":"G5","midi":79,"time":69.44687499999986,"velocity":0.8582677165354331,"duration":0.08624999999999261},{"name":"G#5","midi":80,"time":69.60812499999986,"velocity":0.8661417322834646,"duration":0.06812499999999488},{"name":"G5","midi":79,"time":69.67687499999985,"velocity":0.8740157480314961,"duration":0.06687499999999602},{"name":"G#5","midi":80,"time":69.75187499999986,"velocity":0.8740157480314961,"duration":0.0625},{"name":"G5","midi":79,"time":69.81687499999985,"velocity":0.8818897637795275,"duration":0.07687500000000114},{"name":"G#5","midi":80,"time":69.91249999999985,"velocity":0.8818897637795275,"duration":0.0625},{"name":"G5","midi":79,"time":69.98062499999985,"velocity":0.889763779527559,"duration":0.07187500000000568},{"name":"F5","midi":77,"time":70.05374999999985,"velocity":0.889763779527559,"duration":0.07312500000000455},{"name":"G5","midi":79,"time":70.12937499999985,"velocity":0.8976377952755905,"duration":0.0625},{"name":"G#5","midi":80,"time":70.20437499999986,"velocity":0.8976377952755905,"duration":0.4475000000000051},{"name":"B4","midi":71,"time":70.65374999999986,"velocity":0.905511811023622,"duration":0.15062500000000512},{"name":"C5","midi":72,"time":70.80374999999987,"velocity":0.905511811023622,"duration":0.453125},{"name":"D5","midi":74,"time":71.25687499999987,"velocity":0.905511811023622,"duration":0.13937500000000114},{"name":"D#5","midi":75,"time":71.40312499999986,"velocity":0.8740157480314961,"duration":0.08187499999999659},{"name":"B4","midi":71,"time":71.40687499999986,"velocity":0.8740157480314961,"duration":0.4499999999999744},{"name":"D5","midi":74,"time":71.50187499999986,"velocity":0.84251968503937,"duration":0.05124999999999602},{"name":"D#5","midi":75,"time":71.57124999999985,"velocity":0.8188976377952756,"duration":0.008750000000006253},{"name":"D5","midi":74,"time":71.59874999999985,"velocity":0.8110236220472441,"duration":0.020624999999995453},{"name":"D#5","midi":75,"time":71.65124999999985,"velocity":0.7952755905511811,"duration":0.016874999999998863},{"name":"D5","midi":74,"time":71.70249999999984,"velocity":0.7795275590551181,"duration":0.15374999999998806},{"name":"C5","midi":72,"time":71.85624999999983,"velocity":0.7244094488188977,"duration":0.13312500000000682},{"name":"C5","midi":72,"time":72.00624999999984,"velocity":0.6771653543307087,"duration":0.7412499999999937},{"name":"D5","midi":74,"time":72.74749999999983,"velocity":0.6535433070866141,"duration":0.15562500000000057},{"name":"D#5","midi":75,"time":72.89624999999984,"velocity":0.6535433070866141,"duration":0.16187499999999488},{"name":"D5","midi":74,"time":73.04812499999983,"velocity":0.6535433070866141,"duration":0.14687500000000853},{"name":"C5","midi":72,"time":73.19562499999984,"velocity":0.6535433070866141,"duration":0.1581250000000125},{"name":"A#4","midi":70,"time":73.34499999999984,"velocity":0.6535433070866141,"duration":0.1581250000000125},{"name":"A4","midi":69,"time":73.49437499999985,"velocity":0.6535433070866141,"duration":0.1618750000000091},{"name":"A#4","midi":70,"time":73.64562499999985,"velocity":0.6535433070866141,"duration":0.16250000000000853},{"name":"A4","midi":69,"time":73.79624999999986,"velocity":0.6535433070866141,"duration":0.15874999999999773},{"name":"G4","midi":67,"time":73.94874999999986,"velocity":0.6535433070866141,"duration":0.15999999999998238},{"name":"F4","midi":65,"time":74.10312499999985,"velocity":0.6535433070866141,"duration":0.14812499999999318},{"name":"G4","midi":67,"time":74.25249999999984,"velocity":0.6535433070866141,"duration":0.15312500000000284},{"name":"A4","midi":69,"time":74.40312499999985,"velocity":0.6614173228346457,"duration":0.15187499999998977},{"name":"A#4","midi":70,"time":74.55249999999984,"velocity":0.6850393700787402,"duration":0.1487499999999926},{"name":"C5","midi":72,"time":74.70187499999983,"velocity":0.7086614173228346,"duration":0.14749999999999375},{"name":"D5","midi":74,"time":74.84937499999982,"velocity":0.7244094488188977,"duration":0.14000000000000057},{"name":"D5","midi":74,"time":75.00937499999982,"velocity":0.7559055118110236,"duration":0.09375},{"name":"C5","midi":72,"time":75.09374999999982,"velocity":0.7637795275590551,"duration":0.08562500000000739},{"name":"D5","midi":74,"time":75.17124999999982,"velocity":0.7795275590551181,"duration":0.052500000000009095},{"name":"C5","midi":72,"time":75.22874999999982,"velocity":0.7874015748031497,"duration":0.05062499999999659},{"name":"D5","midi":74,"time":75.27749999999982,"velocity":0.7952755905511811,"duration":0.03812499999999375},{"name":"C5","midi":72,"time":75.35999999999981,"velocity":0.8110236220472441,"duration":0.06812499999999488},{"name":"A#4","midi":70,"time":75.4331249999998,"velocity":0.8188976377952756,"duration":0.09312500000000057},{"name":"C5","midi":72,"time":75.52062499999981,"velocity":0.8346456692913385,"duration":0.07187499999999147},{"name":"D5","midi":74,"time":75.5912499999998,"velocity":0.84251968503937,"duration":1.1999999999999744},{"name":"C5","midi":72,"time":75.75249999999981,"velocity":0.8582677165354331,"duration":0.15562499999998636},{"name":"A#4","midi":70,"time":75.9018749999998,"velocity":0.8582677165354331,"duration":0.13374999999999204},{"name":"A4","midi":69,"time":76.0612499999998,"velocity":0.8582677165354331,"duration":0.14000000000000057},{"name":"A#4","midi":70,"time":76.2068749999998,"velocity":0.8582677165354331,"duration":0.14124999999999943},{"name":"G4","midi":67,"time":76.35437499999979,"velocity":0.8346456692913385,"duration":0.14687499999999432},{"name":"A4","midi":69,"time":76.49812499999979,"velocity":0.7952755905511811,"duration":0.14749999999999375},{"name":"A#4","midi":70,"time":76.64374999999978,"velocity":0.7637795275590551,"duration":0.15499999999998693},{"name":"E4","midi":64,"time":76.79812499999977,"velocity":0.7244094488188977,"duration":0.6018750000000068},{"name":"G4","midi":67,"time":76.94312499999977,"velocity":0.7401574803149606,"duration":0.15937500000001137},{"name":"A4","midi":69,"time":77.09187499999977,"velocity":0.7716535433070866,"duration":0.16562500000000568},{"name":"A#4","midi":70,"time":77.24124999999978,"velocity":0.8031496062992126,"duration":0.1700000000000017},{"name":"C5","midi":72,"time":77.39749999999978,"velocity":0.8346456692913385,"duration":1.3599999999999568},{"name":"A#4","midi":70,"time":77.55062499999977,"velocity":0.8188976377952756,"duration":0.1543750000000017},{"name":"A4","midi":69,"time":77.70874999999977,"velocity":0.7874015748031497,"duration":0.1425000000000125},{"name":"G4","midi":67,"time":77.85562499999978,"velocity":0.7637795275590551,"duration":0.14312499999999773},{"name":"A4","midi":69,"time":78.00624999999977,"velocity":0.7322834645669292,"duration":0.14312499999999773},{"name":"F#4","midi":66,"time":78.15062499999976,"velocity":0.7244094488188977,"duration":0.1424999999999983},{"name":"G4","midi":67,"time":78.30437499999977,"velocity":0.7401574803149606,"duration":0.1424999999999983},{"name":"A4","midi":69,"time":78.45312499999976,"velocity":0.7559055118110236,"duration":0.1524999999999892},{"name":"D4","midi":62,"time":78.60062499999975,"velocity":0.7716535433070866,"duration":0.6006249999999795},{"name":"C5","midi":72,"time":78.75124999999974,"velocity":0.7874015748031497,"duration":0.20937499999999432},{"name":"A#4","midi":70,"time":78.90124999999973,"velocity":0.8110236220472441,"duration":0.15375000000000227},{"name":"A4","midi":69,"time":79.04937499999974,"velocity":0.8267716535433071,"duration":0.1543749999999875},{"name":"A#4","midi":70,"time":79.19812499999973,"velocity":0.84251968503937,"duration":0.9899999999999807},{"name":"A4","midi":69,"time":79.35062499999974,"velocity":0.8582677165354331,"duration":0.1525000000000034},{"name":"G4","midi":67,"time":79.50562499999974,"velocity":0.8582677165354331,"duration":0.1599999999999966},{"name":"F#4","midi":66,"time":79.65187499999973,"velocity":0.8582677165354331,"duration":0.14750000000000796},{"name":"G4","midi":67,"time":79.80312499999974,"velocity":0.8582677165354331,"duration":0.1524999999999892},{"name":"D#4","midi":63,"time":79.95062499999973,"velocity":0.8582677165354331,"duration":0.15749999999998465},{"name":"F4","midi":65,"time":80.10187499999972,"velocity":0.8582677165354331,"duration":0.15562499999998636},{"name":"A#4","midi":70,"time":80.24874999999972,"velocity":0.8582677165354331,"duration":0.1406249999999858},{"name":"G4","midi":67,"time":80.25124999999971,"velocity":0.8582677165354331,"duration":0.1599999999999966},{"name":"A#4","midi":70,"time":80.4031249999997,"velocity":0.8582677165354331,"duration":0.1581249999999983},{"name":"A4","midi":69,"time":80.55374999999971,"velocity":0.8346456692913385,"duration":0.15374999999998806},{"name":"A#4","midi":70,"time":80.7018749999997,"velocity":0.8110236220472441,"duration":0.14687499999999432},{"name":"G4","midi":67,"time":80.8487499999997,"velocity":0.7795275590551181,"duration":0.15062500000000512},{"name":"F#4","midi":66,"time":80.9993749999997,"velocity":0.7480314960629921,"duration":0.9056250000000148},{"name":"D4","midi":62,"time":81.0006249999997,"velocity":0.7480314960629921,"duration":1.508749999999992},{"name":"G4","midi":67,"time":81.89562499999971,"velocity":0.7480314960629921,"duration":0.1618750000000091},{"name":"A4","midi":69,"time":82.04812499999971,"velocity":0.7559055118110236,"duration":0.15937499999999716},{"name":"G4","midi":67,"time":82.19999999999972,"velocity":0.7559055118110236,"duration":0.15499999999998693},{"name":"F4","midi":65,"time":82.3549999999997,"velocity":0.7637795275590551,"duration":0.1506249999999909},{"name":"D#4","midi":63,"time":82.5018749999997,"velocity":0.7716535433070866,"duration":0.15874999999998352},{"name":"D4","midi":62,"time":82.65437499999969,"velocity":0.7716535433070866,"duration":0.14562499999999545},{"name":"D#4","midi":63,"time":82.80249999999968,"velocity":0.7795275590551181,"duration":0.6087500000000148},{"name":"A#3","midi":58,"time":82.94937499999968,"velocity":0.7874015748031497,"duration":0.1525000000000034},{"name":"A3","midi":57,"time":83.10062499999968,"velocity":0.7874015748031497,"duration":0.15000000000000568},{"name":"G3","midi":55,"time":83.25062499999969,"velocity":0.7952755905511811,"duration":0.15000000000000568},{"name":"C4","midi":60,"time":83.3993749999997,"velocity":0.8031496062992126,"duration":0.21187500000000625},{"name":"D#4","midi":63,"time":83.5474999999997,"velocity":0.8031496062992126,"duration":0.16062500000001023},{"name":"G4","midi":67,"time":83.6981249999997,"velocity":0.8110236220472441,"duration":0.15875000000001194},{"name":"A#4","midi":70,"time":83.84687499999971,"velocity":0.8188976377952756,"duration":0.15875000000001194},{"name":"A4","midi":69,"time":83.99749999999972,"velocity":0.8188976377952756,"duration":0.1581249999999983},{"name":"F#4","midi":66,"time":84.14812499999972,"velocity":0.8267716535433071,"duration":0.1581249999999983},{"name":"G4","midi":67,"time":84.29812499999971,"velocity":0.8346456692913385,"duration":0.15500000000000114},{"name":"A4","midi":69,"time":84.44687499999972,"velocity":0.8346456692913385,"duration":0.14749999999999375},{"name":"D4","midi":62,"time":84.59624999999971,"velocity":0.84251968503937,"duration":0.1643749999999926},{"name":"F#4","midi":66,"time":84.7487499999997,"velocity":0.8503937007874016,"duration":0.15312500000000284},{"name":"A4","midi":69,"time":84.89624999999971,"velocity":0.8503937007874016,"duration":0.15187499999998977},{"name":"C5","midi":72,"time":85.0431249999997,"velocity":0.8582677165354331,"duration":0.07499999999998863},{"name":"G4","midi":67,"time":85.1949999999997,"velocity":0.8582677165354331,"duration":0.6037499999999909},{"name":"C5","midi":72,"time":85.19749999999969,"velocity":0.8582677165354331,"duration":0.06374999999999886},{"name":"A#4","midi":70,"time":85.24812499999969,"velocity":0.8582677165354331,"duration":0.07062500000000682},{"name":"C5","midi":72,"time":85.3212499999997,"velocity":0.8661417322834646,"duration":0.01937499999999659},{"name":"A#4","midi":70,"time":85.36999999999969,"velocity":0.8661417322834646,"duration":0.30749999999999034},{"name":"A4","midi":69,"time":85.65499999999969,"velocity":0.8740157480314961,"duration":0.1368750000000034},{"name":"A#4","midi":70,"time":85.79812499999969,"velocity":0.8740157480314961,"duration":0.07750000000000057},{"name":"F#4","midi":66,"time":85.80249999999968,"velocity":0.8740157480314961,"duration":0.516249999999971},{"name":"A4","midi":69,"time":85.87312499999969,"velocity":0.8740157480314961,"duration":0.07187499999999147},{"name":"A#4","midi":70,"time":85.96374999999968,"velocity":0.8818897637795275,"duration":0.07187499999999147},{"name":"A4","midi":69,"time":86.03687499999967,"velocity":0.8818897637795275,"duration":0.07187499999999147},{"name":"A#4","midi":70,"time":86.10374999999966,"velocity":0.8818897637795275,"duration":0.07937499999999886},{"name":"A4","midi":69,"time":86.16687499999966,"velocity":0.8818897637795275,"duration":0.0881249999999909},{"name":"G4","midi":67,"time":86.25312499999966,"velocity":0.889763779527559,"duration":0.08249999999999602},{"name":"G4","midi":67,"time":86.39937499999965,"velocity":0.889763779527559,"duration":1.5275000000000034},{"name":"D4","midi":62,"time":87.29499999999965,"velocity":0.7322834645669292,"duration":0.5925000000000011},{"name":"A#3","midi":58,"time":87.29874999999964,"velocity":0.7244094488188977,"duration":0.5987500000000097},{"name":"A5","midi":81,"time":88.03937499999965,"velocity":0.5905511811023622,"duration":0.14937500000000625},{"name":"A5","midi":81,"time":88.21062499999965,"velocity":0.5905511811023622,"duration":0.6000000000000085},{"name":"G5","midi":79,"time":88.35249999999965,"velocity":0.5905511811023622,"duration":0.1424999999999983},{"name":"F#5","midi":78,"time":88.50374999999966,"velocity":0.5905511811023622,"duration":0.14374999999999716},{"name":"E5","midi":76,"time":88.64874999999965,"velocity":0.5905511811023622,"duration":0.15062500000000512},{"name":"F#5","midi":78,"time":88.80062499999966,"velocity":0.5905511811023622,"duration":0.1600000000000108},{"name":"D5","midi":74,"time":89.09749999999967,"velocity":0.5905511811023622,"duration":0.15687499999999943},{"name":"F#5","midi":78,"time":89.09874999999967,"velocity":0.5905511811023622,"duration":0.15687499999999943},{"name":"G5","midi":79,"time":89.39687499999967,"velocity":0.5905511811023622,"duration":0.4549999999999983},{"name":"D5","midi":74,"time":89.39999999999966,"velocity":0.5905511811023622,"duration":1.1381250000000023},{"name":"A5","midi":81,"time":89.84562499999967,"velocity":0.5984251968503937,"duration":0.16125000000000966},{"name":"A#5","midi":82,"time":89.99874999999967,"velocity":0.5984251968503937,"duration":0.4631249999999909},{"name":"A5","midi":81,"time":90.45437499999967,"velocity":0.5984251968503937,"duration":0.14937499999999204},{"name":"G5","midi":79,"time":90.60437499999966,"velocity":0.5984251968503937,"duration":0.14499999999999602},{"name":"A5","midi":81,"time":90.75187499999966,"velocity":0.5984251968503937,"duration":0.1524999999999892},{"name":"A#5","midi":82,"time":90.89874999999965,"velocity":0.5984251968503937,"duration":0.1506249999999909},{"name":"F5","midi":77,"time":91.04937499999964,"velocity":0.5984251968503937,"duration":0.1387500000000017},{"name":"F5","midi":77,"time":91.20124999999965,"velocity":0.5984251968503937,"duration":0.1543750000000017},{"name":"E5","midi":76,"time":91.35062499999965,"velocity":0.5984251968503937,"duration":0.15499999999998693},{"name":"D5","midi":74,"time":91.50062499999964,"velocity":0.5984251968503937,"duration":0.14374999999999716},{"name":"C5","midi":72,"time":91.64874999999964,"velocity":0.6062992125984252,"duration":0.15500000000000114},{"name":"C6","midi":84,"time":91.80124999999964,"velocity":0.6062992125984252,"duration":0.44624999999999204},{"name":"G5","midi":79,"time":92.24749999999963,"velocity":0.6377952755905512,"duration":0.15874999999999773},{"name":"A5","midi":81,"time":92.39937499999964,"velocity":0.6456692913385826,"duration":0.1543749999999875},{"name":"E5","midi":76,"time":92.55124999999963,"velocity":0.6614173228346457,"duration":0.14812499999999318},{"name":"F5","midi":77,"time":92.69687499999962,"velocity":0.6692913385826772,"duration":0.14812499999999318},{"name":"A#5","midi":82,"time":92.84374999999962,"velocity":0.6771653543307087,"duration":0.1599999999999966},{"name":"E5","midi":76,"time":92.99437499999962,"velocity":0.6929133858267716,"duration":0.5343749999999972},{"name":"A5","midi":81,"time":92.99624999999962,"velocity":0.6929133858267716,"duration":0.08437499999999432},{"name":"G5","midi":79,"time":93.10124999999961,"velocity":0.7007874015748031,"duration":0.08499999999999375},{"name":"A5","midi":81,"time":93.14937499999961,"velocity":0.7007874015748031,"duration":0.0799999999999983},{"name":"G5","midi":79,"time":93.2212499999996,"velocity":0.7086614173228346,"duration":0.0800000000000125},{"name":"A5","midi":81,"time":93.28999999999961,"velocity":0.7165354330708661,"duration":0.0800000000000125},{"name":"G5","midi":79,"time":93.34374999999962,"velocity":0.7165354330708661,"duration":0.08249999999999602},{"name":"F5","midi":77,"time":93.41874999999962,"velocity":0.7244094488188977,"duration":0.0799999999999983},{"name":"G5","midi":79,"time":93.47437499999961,"velocity":0.7244094488188977,"duration":0.14187500000001307},{"name":"F5","midi":77,"time":93.59937499999963,"velocity":0.7480314960629921,"duration":0.75},{"name":"G5","midi":79,"time":94.34437499999963,"velocity":0.7401574803149606,"duration":0.15874999999999773},{"name":"G#5","midi":80,"time":94.49437499999962,"velocity":0.7322834645669292,"duration":0.16312500000000796},{"name":"G5","midi":79,"time":94.64562499999963,"velocity":0.7322834645669292,"duration":0.15749999999999886},{"name":"F5","midi":77,"time":94.79937499999963,"velocity":0.7244094488188977,"duration":0.1543749999999875},{"name":"D#5","midi":75,"time":94.94812499999962,"velocity":0.7165354330708661,"duration":0.15999999999998238},{"name":"D5","midi":74,"time":95.10124999999961,"velocity":0.7165354330708661,"duration":0.15187499999998977},{"name":"D#5","midi":75,"time":95.2468749999996,"velocity":0.7086614173228346,"duration":0.15749999999998465},{"name":"C5","midi":72,"time":95.3987499999996,"velocity":0.7086614173228346,"duration":0.15562500000000057},{"name":"B4","midi":71,"time":95.5506249999996,"velocity":0.7086614173228346,"duration":0.15999999999998238},{"name":"A4","midi":69,"time":95.70374999999959,"velocity":0.7007874015748031,"duration":0.14687499999999432},{"name":"G4","midi":67,"time":95.85124999999958,"velocity":0.7086614173228346,"duration":0.15312500000000284},{"name":"C5","midi":72,"time":96.00187499999959,"velocity":0.7165354330708661,"duration":0.14749999999999375},{"name":"B4","midi":71,"time":96.14874999999958,"velocity":0.7244094488188977,"duration":0.15499999999998693},{"name":"C5","midi":72,"time":96.29749999999957,"velocity":0.7322834645669292,"duration":0.15874999999999773},{"name":"D#5","midi":75,"time":96.44812499999956,"velocity":0.7401574803149606,"duration":0.1525000000000034},{"name":"D5","midi":74,"time":96.59624999999957,"velocity":0.7480314960629921,"duration":0.15625},{"name":"D#5","midi":75,"time":96.74374999999957,"velocity":0.7559055118110236,"duration":0.16437500000000682},{"name":"F5","midi":77,"time":96.89687499999957,"velocity":0.7637795275590551,"duration":0.15000000000000568},{"name":"D5","midi":74,"time":97.04499999999958,"velocity":0.7716535433070866,"duration":0.1581249999999983},{"name":"F5","midi":77,"time":97.19499999999957,"velocity":0.7795275590551181,"duration":0.1618750000000091},{"name":"D#5","midi":75,"time":97.34749999999957,"velocity":0.7952755905511811,"duration":0.16125000000000966},{"name":"D5","midi":74,"time":97.49812499999958,"velocity":0.8031496062992126,"duration":0.1543750000000017},{"name":"C5","midi":72,"time":97.64999999999958,"velocity":0.8110236220472441,"duration":0.15374999999998806},{"name":"D5","midi":74,"time":97.79874999999957,"velocity":0.8188976377952756,"duration":0.15749999999999886},{"name":"E5","midi":76,"time":97.94749999999956,"velocity":0.8267716535433071,"duration":0.15062500000000512},{"name":"F5","midi":77,"time":98.09937499999957,"velocity":0.8346456692913385,"duration":0.14937499999999204},{"name":"G5","midi":79,"time":98.24687499999956,"velocity":0.84251968503937,"duration":0.08624999999999261},{"name":"G#5","midi":80,"time":98.40812499999956,"velocity":0.8503937007874016,"duration":0.06812499999999488},{"name":"G5","midi":79,"time":98.47687499999955,"velocity":0.8582677165354331,"duration":0.06687499999999602},{"name":"G#5","midi":80,"time":98.55187499999955,"velocity":0.8582677165354331,"duration":0.0625},{"name":"G5","midi":79,"time":98.61687499999955,"velocity":0.8661417322834646,"duration":0.07687500000000114},{"name":"G#5","midi":80,"time":98.71249999999955,"velocity":0.8661417322834646,"duration":0.0625},{"name":"G5","midi":79,"time":98.78062499999955,"velocity":0.8740157480314961,"duration":0.07187500000000568},{"name":"F5","midi":77,"time":98.85374999999955,"velocity":0.8740157480314961,"duration":0.07312500000000455},{"name":"G5","midi":79,"time":98.92937499999955,"velocity":0.8818897637795275,"duration":0.0625},{"name":"G#5","midi":80,"time":99.00437499999956,"velocity":0.8818897637795275,"duration":0.4474999999999909},{"name":"B4","midi":71,"time":99.45374999999954,"velocity":0.905511811023622,"duration":0.15062500000000512},{"name":"C5","midi":72,"time":99.60374999999955,"velocity":0.905511811023622,"duration":0.453125},{"name":"D5","midi":74,"time":100.05687499999955,"velocity":0.905511811023622,"duration":0.13937500000000114},{"name":"D#5","midi":75,"time":100.20312499999955,"velocity":0.8740157480314961,"duration":0.08187499999999659},{"name":"B4","midi":71,"time":100.20687499999954,"velocity":0.8740157480314961,"duration":0.44999999999998863},{"name":"D5","midi":74,"time":100.30187499999954,"velocity":0.84251968503937,"duration":0.05124999999999602},{"name":"D#5","midi":75,"time":100.37124999999953,"velocity":0.8188976377952756,"duration":0.008750000000006253},{"name":"D5","midi":74,"time":100.39874999999954,"velocity":0.8110236220472441,"duration":0.020624999999995453},{"name":"D#5","midi":75,"time":100.45124999999953,"velocity":0.7952755905511811,"duration":0.016874999999998863},{"name":"D5","midi":74,"time":100.50249999999953,"velocity":0.7795275590551181,"duration":0.15375000000000227},{"name":"C5","midi":72,"time":100.65624999999953,"velocity":0.7244094488188977,"duration":0.1331249999999926},{"name":"C5","midi":72,"time":100.80624999999952,"velocity":0.6771653543307087,"duration":0.741250000000008},{"name":"D5","midi":74,"time":101.54749999999953,"velocity":0.6535433070866141,"duration":0.15562500000000057},{"name":"D#5","midi":75,"time":101.69624999999954,"velocity":0.6535433070866141,"duration":0.16187499999999488},{"name":"D5","midi":74,"time":101.84812499999953,"velocity":0.6535433070866141,"duration":0.14687500000000853},{"name":"C5","midi":72,"time":101.99562499999954,"velocity":0.6535433070866141,"duration":0.1581250000000125},{"name":"A#4","midi":70,"time":102.14499999999954,"velocity":0.6535433070866141,"duration":0.1581250000000125},{"name":"A4","midi":69,"time":102.29437499999955,"velocity":0.6535433070866141,"duration":0.1618750000000091},{"name":"A#4","midi":70,"time":102.44562499999955,"velocity":0.6535433070866141,"duration":0.16250000000000853},{"name":"A4","midi":69,"time":102.59624999999956,"velocity":0.6535433070866141,"duration":0.15874999999999773},{"name":"G4","midi":67,"time":102.74874999999956,"velocity":0.6535433070866141,"duration":0.15999999999998238},{"name":"F4","midi":65,"time":102.90312499999955,"velocity":0.6535433070866141,"duration":0.14812499999999318},{"name":"G4","midi":67,"time":103.05249999999954,"velocity":0.6535433070866141,"duration":0.15312500000000284},{"name":"A4","midi":69,"time":103.20312499999955,"velocity":0.6614173228346457,"duration":0.15187499999998977},{"name":"A#4","midi":70,"time":103.35249999999954,"velocity":0.6850393700787402,"duration":0.1487499999999926},{"name":"C5","midi":72,"time":103.50187499999953,"velocity":0.7086614173228346,"duration":0.14749999999999375},{"name":"D5","midi":74,"time":103.64937499999952,"velocity":0.7244094488188977,"duration":0.14000000000000057},{"name":"D5","midi":74,"time":103.80937499999952,"velocity":0.7559055118110236,"duration":0.09375},{"name":"C5","midi":72,"time":103.89374999999951,"velocity":0.7637795275590551,"duration":0.08562500000000739},{"name":"D5","midi":74,"time":103.97124999999951,"velocity":0.7795275590551181,"duration":0.052500000000009095},{"name":"C5","midi":72,"time":104.02874999999952,"velocity":0.7874015748031497,"duration":0.05062499999999659},{"name":"D5","midi":74,"time":104.07749999999952,"velocity":0.7952755905511811,"duration":0.03812499999999375},{"name":"C5","midi":72,"time":104.15999999999951,"velocity":0.8110236220472441,"duration":0.06812499999999488},{"name":"A#4","midi":70,"time":104.2331249999995,"velocity":0.8188976377952756,"duration":0.09312500000000057},{"name":"C5","midi":72,"time":104.32062499999951,"velocity":0.8346456692913385,"duration":0.07187499999999147},{"name":"D5","midi":74,"time":104.3912499999995,"velocity":0.84251968503937,"duration":1.1999999999999602},{"name":"C5","midi":72,"time":104.5524999999995,"velocity":0.8582677165354331,"duration":0.15562499999998636},{"name":"A#4","midi":70,"time":104.70187499999949,"velocity":0.8582677165354331,"duration":0.13374999999999204},{"name":"A4","midi":69,"time":104.86124999999949,"velocity":0.8582677165354331,"duration":0.14000000000000057},{"name":"A#4","midi":70,"time":105.00687499999948,"velocity":0.8582677165354331,"duration":0.14124999999999943},{"name":"G4","midi":67,"time":105.15437499999948,"velocity":0.8346456692913385,"duration":0.14687499999999432},{"name":"A4","midi":69,"time":105.29812499999947,"velocity":0.7952755905511811,"duration":0.14749999999999375},{"name":"A#4","midi":70,"time":105.44374999999947,"velocity":0.7637795275590551,"duration":0.15499999999998693},{"name":"E4","midi":64,"time":105.59812499999946,"velocity":0.7244094488188977,"duration":0.6018750000000068},{"name":"G4","midi":67,"time":105.74312499999945,"velocity":0.7401574803149606,"duration":0.15937500000001137},{"name":"A4","midi":69,"time":105.89187499999946,"velocity":0.7716535433070866,"duration":0.16562500000000568},{"name":"A#4","midi":70,"time":106.04124999999947,"velocity":0.8031496062992126,"duration":0.1700000000000017},{"name":"C5","midi":72,"time":106.19749999999947,"velocity":0.8346456692913385,"duration":1.3599999999999568},{"name":"A#4","midi":70,"time":106.35062499999947,"velocity":0.8188976377952756,"duration":0.1543750000000017},{"name":"A4","midi":69,"time":106.50874999999947,"velocity":0.7874015748031497,"duration":0.1424999999999983},{"name":"G4","midi":67,"time":106.65562499999946,"velocity":0.7637795275590551,"duration":0.14312499999999773},{"name":"A4","midi":69,"time":106.80624999999945,"velocity":0.7322834645669292,"duration":0.14312499999999773},{"name":"F#4","midi":66,"time":106.95062499999945,"velocity":0.7244094488188977,"duration":0.1424999999999983},{"name":"G4","midi":67,"time":107.10437499999945,"velocity":0.7401574803149606,"duration":0.1424999999999983},{"name":"A4","midi":69,"time":107.25312499999944,"velocity":0.7559055118110236,"duration":0.1524999999999892},{"name":"D4","midi":62,"time":107.40062499999944,"velocity":0.7716535433070866,"duration":0.6006249999999795},{"name":"C5","midi":72,"time":107.55124999999943,"velocity":0.7874015748031497,"duration":0.20937499999999432},{"name":"A#4","midi":70,"time":107.70124999999942,"velocity":0.8110236220472441,"duration":0.15375000000000227},{"name":"A4","midi":69,"time":107.84937499999943,"velocity":0.8267716535433071,"duration":0.1543749999999875},{"name":"A#4","midi":70,"time":107.99812499999942,"velocity":0.84251968503937,"duration":0.9899999999999665},{"name":"A4","midi":69,"time":108.15062499999941,"velocity":0.8582677165354331,"duration":0.1525000000000034},{"name":"G4","midi":67,"time":108.30562499999941,"velocity":0.8582677165354331,"duration":0.1599999999999966},{"name":"F#4","midi":66,"time":108.4518749999994,"velocity":0.8582677165354331,"duration":0.14750000000000796},{"name":"G4","midi":67,"time":108.60312499999941,"velocity":0.8582677165354331,"duration":0.1524999999999892},{"name":"D#4","midi":63,"time":108.7506249999994,"velocity":0.8582677165354331,"duration":0.15749999999998465},{"name":"F4","midi":65,"time":108.9018749999994,"velocity":0.8582677165354331,"duration":0.15562499999998636},{"name":"A#4","midi":70,"time":109.04874999999939,"velocity":0.8582677165354331,"duration":0.1406249999999858},{"name":"G4","midi":67,"time":109.05124999999938,"velocity":0.8582677165354331,"duration":0.1599999999999966},{"name":"A#4","midi":70,"time":109.20312499999937,"velocity":0.8582677165354331,"duration":0.1581249999999983},{"name":"A4","midi":69,"time":109.35374999999938,"velocity":0.8346456692913385,"duration":0.15374999999998806},{"name":"A#4","midi":70,"time":109.50187499999937,"velocity":0.8110236220472441,"duration":0.14687499999999432},{"name":"G4","midi":67,"time":109.64874999999937,"velocity":0.7795275590551181,"duration":0.15062500000000512},{"name":"F#4","midi":66,"time":109.79937499999937,"velocity":0.7480314960629921,"duration":0.9056250000000006},{"name":"D4","midi":62,"time":109.80062499999937,"velocity":0.7480314960629921,"duration":1.5087499999999778},{"name":"G4","midi":67,"time":110.69562499999937,"velocity":0.7480314960629921,"duration":0.1618750000000091},{"name":"A4","midi":69,"time":110.84812499999937,"velocity":0.7559055118110236,"duration":0.15937499999999716},{"name":"G4","midi":67,"time":110.99999999999937,"velocity":0.7559055118110236,"duration":0.15499999999998693},{"name":"F4","midi":65,"time":111.15499999999936,"velocity":0.7637795275590551,"duration":0.1506249999999909},{"name":"D#4","midi":63,"time":111.30187499999936,"velocity":0.7716535433070866,"duration":0.15874999999998352},{"name":"D4","midi":62,"time":111.45437499999935,"velocity":0.7795275590551181,"duration":0.14562499999999545},{"name":"D#4","midi":63,"time":111.60249999999934,"velocity":0.7952755905511811,"duration":0.6087500000000148},{"name":"A#3","midi":58,"time":111.74937499999933,"velocity":0.8110236220472441,"duration":0.1525000000000034},{"name":"A3","midi":57,"time":111.90062499999934,"velocity":0.8110236220472441,"duration":0.15000000000000568},{"name":"G3","midi":55,"time":112.05062499999934,"velocity":0.8188976377952756,"duration":0.15000000000000568},{"name":"C4","midi":60,"time":112.19937499999935,"velocity":0.8346456692913385,"duration":0.21187500000000625},{"name":"D#4","midi":63,"time":112.34749999999936,"velocity":0.84251968503937,"duration":0.16062500000001023},{"name":"G4","midi":67,"time":112.49812499999936,"velocity":0.8503937007874016,"duration":0.15875000000001194},{"name":"A#4","midi":70,"time":112.64687499999937,"velocity":0.8582677165354331,"duration":0.15875000000001194},{"name":"A4","midi":69,"time":112.79749999999937,"velocity":0.8582677165354331,"duration":0.1581249999999983},{"name":"F#4","midi":66,"time":112.94812499999938,"velocity":0.8740157480314961,"duration":0.1581249999999983},{"name":"G4","midi":67,"time":113.09812499999937,"velocity":0.889763779527559,"duration":0.15500000000000114},{"name":"A4","midi":69,"time":113.24687499999938,"velocity":0.889763779527559,"duration":0.14749999999999375},{"name":"D4","midi":62,"time":113.39624999999937,"velocity":0.8976377952755905,"duration":0.1643749999999926},{"name":"F#4","midi":66,"time":113.54874999999936,"velocity":0.905511811023622,"duration":0.15312500000000284},{"name":"A4","midi":69,"time":113.69624999999937,"velocity":0.9133858267716536,"duration":0.15187499999998977},{"name":"C5","midi":72,"time":113.84312499999936,"velocity":0.9291338582677166,"duration":0.07499999999998863},{"name":"G4","midi":67,"time":113.99499999999935,"velocity":0.9291338582677166,"duration":0.6037499999999767},{"name":"C5","midi":72,"time":113.99749999999935,"velocity":0.9291338582677166,"duration":0.06374999999999886},{"name":"A#4","midi":70,"time":114.04812499999935,"velocity":0.9291338582677166,"duration":0.07062500000000682},{"name":"C5","midi":72,"time":114.12124999999935,"velocity":0.9448818897637795,"duration":0.01937499999999659},{"name":"A#4","midi":70,"time":114.16999999999935,"velocity":0.9448818897637795,"duration":0.30749999999999034},{"name":"A4","midi":69,"time":114.45499999999934,"velocity":0.968503937007874,"duration":0.1368749999999892},{"name":"A#4","midi":70,"time":114.59812499999933,"velocity":0.9763779527559056,"duration":0.07750000000000057},{"name":"F#4","midi":66,"time":114.60249999999932,"velocity":0.9763779527559056,"duration":0.5162499999999852},{"name":"A4","midi":69,"time":114.67312499999933,"velocity":0.9763779527559056,"duration":0.07187499999999147},{"name":"A#4","midi":70,"time":114.76374999999932,"velocity":0.984251968503937,"duration":0.07187500000000568},{"name":"A4","midi":69,"time":114.83687499999932,"velocity":0.984251968503937,"duration":0.07187499999999147},{"name":"A#4","midi":70,"time":114.90374999999932,"velocity":0.984251968503937,"duration":0.07937499999999886},{"name":"A4","midi":69,"time":114.96687499999932,"velocity":0.984251968503937,"duration":0.0881249999999909},{"name":"G4","midi":67,"time":115.05312499999931,"velocity":0.9921259842519685,"duration":0.08249999999999602},{"name":"G4","midi":67,"time":115.1993749999993,"velocity":0.9921259842519685,"duration":1.5275000000000176},{"name":"D4","midi":62,"time":116.09499999999932,"velocity":0.8267716535433071,"duration":0.5925000000000011},{"name":"A#3","midi":58,"time":116.09874999999931,"velocity":0.8110236220472441,"duration":0.5987500000000097}],"controlChanges":{"7":[{"number":7,"time":0,"value":0.905511811023622}],"10":[{"number":10,"time":0,"value":0.6220472440944882}],"64":[{"number":64,"time":3.6506250000000002,"value":1},{"number":64,"time":4.0025,"value":0},{"number":64,"time":5.465000000000002,"value":1},{"number":64,"time":5.493750000000001,"value":0},{"number":64,"time":9.213124999999998,"value":1},{"number":64,"time":9.44375,"value":0},{"number":64,"time":16.238125000000014,"value":1},{"number":64,"time":16.368125000000017,"value":0},{"number":64,"time":16.836875000000013,"value":1},{"number":64,"time":17.211875000000013,"value":0},{"number":64,"time":19.97437500000001,"value":1},{"number":64,"time":20.11562500000001,"value":0},{"number":64,"time":23.551875000000003,"value":1},{"number":64,"time":23.872500000000002,"value":0},{"number":64,"time":24.315625000000004,"value":1},{"number":64,"time":24.374375000000004,"value":0},{"number":64,"time":24.604375000000005,"value":1},{"number":64,"time":24.92375,"value":0},{"number":64,"time":25.184375,"value":1},{"number":64,"time":25.364375,"value":0},{"number":64,"time":27.059374999999996,"value":1},{"number":64,"time":27.367499999999996,"value":0},{"number":64,"time":27.603749999999994,"value":1},{"number":64,"time":27.77187499999999,"value":0},{"number":64,"time":27.930624999999992,"value":1},{"number":64,"time":28.06374999999999,"value":0},{"number":64,"time":28.250624999999996,"value":1},{"number":64,"time":28.462499999999995,"value":0},{"number":64,"time":29.10875,"value":1},{"number":64,"time":29.28,"value":0},{"number":64,"time":29.798125000000002,"value":1},{"number":64,"time":30.26875,"value":0},{"number":64,"time":32.504374999999996,"value":1},{"number":64,"time":32.82624999999999,"value":0},{"number":64,"time":36.039999999999985,"value":1},{"number":64,"time":36.21124999999999,"value":0},{"number":64,"time":37.88124999999999,"value":1},{"number":64,"time":38.325624999999995,"value":0},{"number":64,"time":45.171249999999965,"value":1},{"number":64,"time":45.32312499999996,"value":0},{"number":64,"time":48.706874999999926,"value":1},{"number":64,"time":48.989374999999924,"value":0},{"number":64,"time":52.315624999999926,"value":1},{"number":64,"time":52.675624999999926,"value":0},{"number":64,"time":56.50062499999991,"value":1},{"number":64,"time":56.71062499999991,"value":0},{"number":64,"time":56.979374999999905,"value":1},{"number":64,"time":57.2506249999999,"value":0},{"number":64,"time":57.5974999999999,"value":1},{"number":64,"time":57.7549999999999,"value":0},{"number":64,"time":57.845624999999906,"value":1},{"number":64,"time":58.42999999999991,"value":0},{"number":64,"time":58.53999999999991,"value":1},{"number":64,"time":59.09374999999991,"value":0},{"number":64,"time":59.48749999999991,"value":1},{"number":64,"time":59.81999999999991,"value":0},{"number":64,"time":63.12374999999992,"value":1},{"number":64,"time":63.28249999999992,"value":0},{"number":64,"time":64.22124999999991,"value":1},{"number":64,"time":64.4037499999999,"value":0},{"number":64,"time":64.86499999999992,"value":1},{"number":64,"time":65.14749999999992,"value":0},{"number":64,"time":68.44999999999986,"value":1},{"number":64,"time":68.65874999999987,"value":0},{"number":64,"time":70.24562499999986,"value":1},{"number":64,"time":70.44562499999986,"value":0},{"number":64,"time":71.47187499999986,"value":1},{"number":64,"time":71.62249999999985,"value":0},{"number":64,"time":71.78687499999984,"value":1},{"number":64,"time":71.88499999999983,"value":0},{"number":64,"time":72.09812499999984,"value":1},{"number":64,"time":72.36874999999984,"value":0},{"number":64,"time":75.60124999999981,"value":1},{"number":64,"time":75.85249999999981,"value":0},{"number":64,"time":77.46499999999978,"value":1},{"number":64,"time":77.71812499999977,"value":0},{"number":64,"time":79.24687499999973,"value":1},{"number":64,"time":79.35937499999974,"value":0},{"number":64,"time":81.0618749999997,"value":1},{"number":64,"time":81.32062499999971,"value":0},{"number":64,"time":84.60249999999971,"value":1},{"number":64,"time":84.74249999999971,"value":0},{"number":64,"time":85.20374999999969,"value":1},{"number":64,"time":85.43937499999969,"value":0},{"number":64,"time":85.76812499999969,"value":1},{"number":64,"time":86.01687499999967,"value":0},{"number":64,"time":87.33999999999965,"value":1},{"number":64,"time":87.77624999999965,"value":0},{"number":64,"time":88.28999999999965,"value":1},{"number":64,"time":88.53749999999965,"value":0},{"number":64,"time":89.95874999999967,"value":1},{"number":64,"time":90.15437499999967,"value":0},{"number":64,"time":95.5237499999996,"value":1},{"number":64,"time":95.6037499999996,"value":0},{"number":64,"time":99.08999999999955,"value":1},{"number":64,"time":99.24749999999955,"value":0},{"number":64,"time":99.61562499999955,"value":1},{"number":64,"time":99.87874999999956,"value":0},{"number":64,"time":100.20687499999954,"value":1},{"number":64,"time":100.36999999999954,"value":0},{"number":64,"time":100.83499999999952,"value":1},{"number":64,"time":101.11124999999953,"value":0},{"number":64,"time":104.4106249999995,"value":1},{"number":64,"time":104.6343749999995,"value":0},{"number":64,"time":108.02374999999941,"value":1},{"number":64,"time":108.28687499999941,"value":0},{"number":64,"time":110.02437499999937,"value":1},{"number":64,"time":110.34062499999936,"value":0},{"number":64,"time":113.39812499999937,"value":1},{"number":64,"time":113.54249999999936,"value":0},{"number":64,"time":113.99812499999935,"value":1},{"number":64,"time":114.11687499999935,"value":0},{"number":64,"time":114.58499999999934,"value":1},{"number":64,"time":114.74374999999932,"value":0},{"number":64,"time":116.05562499999931,"value":1},{"number":64,"time":116.65374999999932,"value":0},{"number":64,"time":116.70687499999933,"value":1},{"number":64,"time":116.84749999999933,"value":0}],"91":[{"number":91,"time":0,"value":1}],"121":[{"number":121,"time":0,"value":1},{"number":121,"time":116.99999999999933,"value":1}]},"id":1,"name":"Piano 1","instrumentNumber":6,"instrument":"harpsichord","instrumentFamily":"piano","channelNumber":0,"isPercussion":false},{"startTime":1.8099999999999998,"duration":116.6912499999997,"length":496,"notes":[{"name":"G3","midi":55,"time":1.8099999999999998,"velocity":0.6299212598425197,"duration":0.7500000000000002},{"name":"F#3","midi":54,"time":2.55875,"velocity":0.6692913385826772,"duration":0.14875000000000016},{"name":"G3","midi":55,"time":2.71,"velocity":0.6771653543307087,"duration":0.1462500000000002},{"name":"D3","midi":50,"time":2.860625,"velocity":0.6850393700787402,"duration":0.140625},{"name":"D#3","midi":51,"time":3.00625,"velocity":0.6929133858267716,"duration":0.14812499999999984},{"name":"C3","midi":48,"time":3.154375,"velocity":0.7007874015748031,"duration":0.14937500000000004},{"name":"D3","midi":50,"time":3.30375,"velocity":0.7007874015748031,"duration":0.13624999999999998},{"name":"D#3","midi":51,"time":3.44625,"velocity":0.7086614173228346,"duration":0.1456249999999999},{"name":"F#2","midi":42,"time":3.60125,"velocity":0.7244094488188977,"duration":0.7481249999999995},{"name":"A3","midi":57,"time":4.348125,"velocity":0.7637795275590551,"duration":0.21687499999999904},{"name":"A#3","midi":58,"time":4.503124999999999,"velocity":0.7716535433070866,"duration":0.14874999999999972},{"name":"C4","midi":60,"time":4.648749999999999,"velocity":0.7795275590551181,"duration":0.15499999999999936},{"name":"F#3","midi":54,"time":4.7974999999999985,"velocity":0.7874015748031497,"duration":0.15687499999999943},{"name":"G3","midi":55,"time":4.945624999999998,"velocity":0.7952755905511811,"duration":0.15625},{"name":"A3","midi":57,"time":5.094374999999998,"velocity":0.8031496062992126,"duration":0.1587500000000004},{"name":"D3","midi":50,"time":5.241874999999998,"velocity":0.8110236220472441,"duration":0.22750000000000004},{"name":"G3","midi":55,"time":5.400624999999998,"velocity":0.8188976377952756,"duration":0.16062499999999957},{"name":"D3","midi":50,"time":5.703749999999998,"velocity":0.8188976377952756,"duration":0.2131249999999998},{"name":"D#3","midi":51,"time":6.001874999999997,"velocity":0.8188976377952756,"duration":0.15687500000000032},{"name":"G3","midi":55,"time":6.301249999999998,"velocity":0.8188976377952756,"duration":0.15812500000000007},{"name":"C3","midi":48,"time":6.602499999999998,"velocity":0.8188976377952756,"duration":0.14499999999999957},{"name":"D#3","midi":51,"time":6.900624999999998,"velocity":0.8188976377952756,"duration":0.15187500000000043},{"name":"D3","midi":50,"time":7.198124999999998,"velocity":0.8031496062992126,"duration":0.45999999999999996},{"name":"C3","midi":48,"time":7.655624999999998,"velocity":0.7007874015748031,"duration":0.14749999999999996},{"name":"A#2","midi":46,"time":7.804374999999998,"velocity":0.6692913385826772,"duration":0.14437500000000014},{"name":"A2","midi":45,"time":7.954999999999997,"velocity":0.6456692913385826,"duration":0.14125000000000032},{"name":"A#2","midi":46,"time":8.098124999999998,"velocity":0.6456692913385826,"duration":0.1556249999999988},{"name":"G2","midi":43,"time":8.251249999999997,"velocity":0.6456692913385826,"duration":0.14937499999999915},{"name":"D3","midi":50,"time":8.403124999999996,"velocity":0.6456692913385826,"duration":0.14812500000000028},{"name":"D2","midi":38,"time":8.701874999999996,"velocity":0.6456692913385826,"duration":0.14124999999999943},{"name":"G2","midi":43,"time":8.999374999999995,"velocity":0.6456692913385826,"duration":1.0412499999999998},{"name":"A#2","midi":46,"time":9.296249999999995,"velocity":0.6456692913385826,"duration":0.31625000000000014},{"name":"D3","midi":50,"time":9.602499999999996,"velocity":0.6456692913385826,"duration":0.29875000000000007},{"name":"G3","midi":55,"time":9.897499999999996,"velocity":0.6456692913385826,"duration":0.30874999999999986},{"name":"F3","midi":53,"time":10.198124999999996,"velocity":0.6771653543307087,"duration":0.3037499999999991},{"name":"D#3","midi":51,"time":10.496249999999995,"velocity":0.7322834645669292,"duration":0.30562499999999915},{"name":"D3","midi":50,"time":10.795624999999994,"velocity":0.7874015748031497,"duration":0.22749999999999915},{"name":"F3","midi":53,"time":10.952499999999993,"velocity":0.7795275590551181,"duration":0.14687499999999964},{"name":"G3","midi":55,"time":11.102499999999994,"velocity":0.7637795275590551,"duration":0.151250000000001},{"name":"A3","midi":57,"time":11.250624999999994,"velocity":0.7480314960629921,"duration":0.15312500000000107},{"name":"A#3","midi":58,"time":11.400624999999994,"velocity":0.7244094488188977,"duration":0.15187500000000043},{"name":"A3","midi":57,"time":11.548749999999995,"velocity":0.7086614173228346,"duration":0.15562500000000057},{"name":"A#3","midi":58,"time":11.698124999999996,"velocity":0.6929133858267716,"duration":0.14937499999999915},{"name":"C4","midi":60,"time":11.844999999999995,"velocity":0.6850393700787402,"duration":0.15750000000000064},{"name":"D4","midi":62,"time":11.994999999999996,"velocity":0.6692913385826772,"duration":0.15187500000000043},{"name":"A#3","midi":58,"time":12.296874999999996,"velocity":0.6535433070866141,"duration":0.15687499999999943},{"name":"D#4","midi":63,"time":12.599999999999996,"velocity":0.6299212598425197,"duration":0.15250000000000163},{"name":"F4","midi":65,"time":12.747499999999997,"velocity":0.6299212598425197,"duration":0.15187500000000043},{"name":"D#4","midi":63,"time":12.897499999999997,"velocity":0.6299212598425197,"duration":0.1537500000000005},{"name":"D4","midi":62,"time":13.047499999999998,"velocity":0.6692913385826772,"duration":0.15312500000000107},{"name":"C4","midi":60,"time":13.193124999999998,"velocity":0.6614173228346457,"duration":0.14687499999999964},{"name":"D4","midi":62,"time":13.501874999999998,"velocity":0.6456692913385826,"duration":0.15187500000000043},{"name":"D#4","midi":63,"time":13.796249999999999,"velocity":0.6377952755905512,"duration":0.16249999999999964},{"name":"C4","midi":60,"time":14.096249999999998,"velocity":0.6220472440944882,"duration":0.15687499999999943},{"name":"F4","midi":65,"time":14.396874999999998,"velocity":0.6062992125984252,"duration":0.16249999999999964},{"name":"D#4","midi":63,"time":14.699374999999998,"velocity":0.6456692913385826,"duration":0.15437499999999993},{"name":"D4","midi":62,"time":14.998749999999998,"velocity":0.6771653543307087,"duration":0.3056250000000009},{"name":"C4","midi":60,"time":15.299374999999998,"velocity":0.7165354330708661,"duration":0.15187500000000043},{"name":"A#3","midi":58,"time":15.447499999999998,"velocity":0.7322834645669292,"duration":0.16000000000000014},{"name":"F4","midi":65,"time":15.603124999999999,"velocity":0.7480314960629921,"duration":0.14499999999999957},{"name":"F3","midi":53,"time":15.898749999999998,"velocity":0.7322834645669292,"duration":0.1462500000000002},{"name":"A#3","midi":58,"time":16.196875,"velocity":0.7086614173228346,"duration":0.1543750000000017},{"name":"A#2","midi":46,"time":16.49875,"velocity":0.7401574803149606,"duration":0.14624999999999844},{"name":"A2","midi":45,"time":16.650624999999998,"velocity":0.7795275590551181,"duration":0.15062500000000156},{"name":"G2","midi":43,"time":16.808125,"velocity":0.8267716535433071,"duration":0.14499999999999957},{"name":"F#2","midi":42,"time":16.956875,"velocity":0.8740157480314961,"duration":0.151250000000001},{"name":"G2","midi":43,"time":17.104375,"velocity":0.889763779527559,"duration":0.14874999999999972},{"name":"A2","midi":45,"time":17.25375,"velocity":0.889763779527559,"duration":0.14999999999999858},{"name":"A#2","midi":46,"time":17.401875,"velocity":0.889763779527559,"duration":0.14937499999999915},{"name":"G2","midi":43,"time":17.699375,"velocity":0.889763779527559,"duration":0.14937499999999915},{"name":"C3","midi":48,"time":18.000625,"velocity":0.889763779527559,"duration":0.15749999999999886},{"name":"B2","midi":47,"time":18.15375,"velocity":0.889763779527559,"duration":0.14499999999999957},{"name":"C3","midi":48,"time":18.299374999999998,"velocity":0.889763779527559,"duration":0.1531249999999993},{"name":"D3","midi":50,"time":18.445624999999996,"velocity":0.889763779527559,"duration":0.15687500000000298},{"name":"D#3","midi":51,"time":18.591874999999998,"velocity":0.889763779527559,"duration":0.1593750000000007},{"name":"D3","midi":50,"time":18.894375,"velocity":0.8740157480314961,"duration":0.16375000000000028},{"name":"C3","midi":48,"time":19.19875,"velocity":0.8346456692913385,"duration":0.15875000000000128},{"name":"A2","midi":45,"time":19.50375,"velocity":0.7952755905511811,"duration":0.14750000000000085},{"name":"D3","midi":50,"time":19.801875000000003,"velocity":0.7559055118110236,"duration":0.6056249999999999},{"name":"C4","midi":60,"time":20.85,"velocity":0.6299212598425197,"duration":0.15500000000000114},{"name":"A#3","midi":58,"time":21.001250000000002,"velocity":0.6299212598425197,"duration":0.15625},{"name":"C4","midi":60,"time":21.153125000000003,"velocity":0.6220472440944882,"duration":0.151250000000001},{"name":"D4","midi":62,"time":21.304375000000004,"velocity":0.6535433070866141,"duration":0.14687499999999787},{"name":"F#3","midi":54,"time":21.450625000000002,"velocity":0.6220472440944882,"duration":0.16000000000000014},{"name":"G3","midi":55,"time":21.602500000000003,"velocity":0.6456692913385826,"duration":0.15187500000000043},{"name":"A3","midi":57,"time":21.749375000000004,"velocity":0.6692913385826772,"duration":0.15499999999999758},{"name":"A#3","midi":58,"time":21.902500000000003,"velocity":0.6929133858267716,"duration":0.15374999999999872},{"name":"D3","midi":50,"time":22.053125,"velocity":0.7165354330708661,"duration":0.15062500000000156},{"name":"D#3","midi":51,"time":22.200625000000002,"velocity":0.7401574803149606,"duration":0.15499999999999758},{"name":"F3","midi":53,"time":22.35375,"velocity":0.7637795275590551,"duration":0.15312499999999574},{"name":"G3","midi":55,"time":22.505625,"velocity":0.7795275590551181,"duration":0.14187499999999886},{"name":"C3","midi":48,"time":22.651874999999997,"velocity":0.7795275590551181,"duration":0.151250000000001},{"name":"B2","midi":47,"time":22.800624999999997,"velocity":0.7716535433070866,"duration":0.146250000000002},{"name":"C3","midi":48,"time":22.949375,"velocity":0.7795275590551181,"duration":0.14750000000000085},{"name":"D3","midi":50,"time":23.094375,"velocity":0.7795275590551181,"duration":0.16062500000000313},{"name":"G2","midi":43,"time":23.245,"velocity":0.7795275590551181,"duration":0.15687499999999943},{"name":"C3","midi":48,"time":23.3975,"velocity":0.7795275590551181,"duration":0.6656249999999986},{"name":"A4","midi":69,"time":24.150624999999998,"velocity":0.8740157480314961,"duration":0.15500000000000114},{"name":"A#4","midi":70,"time":24.299374999999998,"velocity":0.8976377952755905,"duration":0.15500000000000114},{"name":"C5","midi":72,"time":24.449375,"velocity":0.9133858267716536,"duration":0.1593750000000007},{"name":"F#4","midi":66,"time":24.598125,"velocity":0.937007874015748,"duration":0.16062500000000313},{"name":"G4","midi":67,"time":24.74875,"velocity":0.889763779527559,"duration":0.15625000000000355},{"name":"A4","midi":69,"time":24.897500000000004,"velocity":0.905511811023622,"duration":0.14937499999999915},{"name":"D4","midi":62,"time":25.052500000000002,"velocity":0.9133858267716536,"duration":0.15249999999999986},{"name":"G4","midi":67,"time":25.2025,"velocity":0.9291338582677166,"duration":0.14874999999999972},{"name":"F4","midi":65,"time":25.35,"velocity":0.937007874015748,"duration":0.15374999999999872},{"name":"E4","midi":64,"time":25.49875,"velocity":0.9212598425196851,"duration":0.15187500000000043},{"name":"D4","midi":62,"time":25.6475,"velocity":0.9291338582677166,"duration":0.15812500000000185},{"name":"E4","midi":64,"time":25.798750000000002,"velocity":0.9291338582677166,"duration":0.15187500000000043},{"name":"C#4","midi":61,"time":25.949375000000003,"velocity":0.905511811023622,"duration":0.15187499999999687},{"name":"D4","midi":62,"time":26.095625000000002,"velocity":0.8740157480314961,"duration":0.16062499999999602},{"name":"E4","midi":64,"time":26.246875,"velocity":0.8503937007874016,"duration":0.15187499999999687},{"name":"A3","midi":57,"time":26.398124999999997,"velocity":0.8188976377952756,"duration":0.16187499999999844},{"name":"B3","midi":59,"time":26.548124999999995,"velocity":0.7952755905511811,"duration":0.15249999999999986},{"name":"C#4","midi":61,"time":26.698749999999997,"velocity":0.7716535433070866,"duration":0.15249999999999986},{"name":"F3","midi":53,"time":26.999999999999996,"velocity":0.7165354330708661,"duration":0.45187500000000114},{"name":"A3","midi":57,"time":27.148124999999997,"velocity":0.6850393700787402,"duration":0.15687500000000298},{"name":"B3","midi":59,"time":27.29875,"velocity":0.6771653543307087,"duration":0.15687499999999943},{"name":"C#4","midi":61,"time":27.447499999999998,"velocity":0.6614173228346457,"duration":0.16187499999999844},{"name":"D4","midi":62,"time":27.600624999999997,"velocity":0.6535433070866141,"duration":0.6000000000000014},{"name":"G3","midi":55,"time":27.896874999999998,"velocity":0.6299212598425197,"duration":0.30562499999999915},{"name":"A3","midi":57,"time":28.19625,"velocity":0.6062992125984252,"duration":0.5993749999999984},{"name":"A2","midi":45,"time":28.499999999999996,"velocity":0.5826771653543307,"duration":0.29562500000000114},{"name":"D3","midi":50,"time":28.799999999999997,"velocity":0.5590551181102362,"duration":0.7412499999999973},{"name":"D2","midi":38,"time":29.101874999999996,"velocity":0.5433070866141733,"duration":1.1999999999999993},{"name":"A2","midi":45,"time":29.408124999999995,"velocity":0.5354330708661418,"duration":0.9112500000000026},{"name":"D3","midi":50,"time":29.703749999999996,"velocity":0.5196850393700787,"duration":0.6056249999999999},{"name":"G3","midi":55,"time":30.609999999999996,"velocity":0.5905511811023622,"duration":0.75},{"name":"F#3","midi":54,"time":31.358749999999997,"velocity":0.6299212598425197,"duration":0.14874999999999972},{"name":"G3","midi":55,"time":31.509999999999998,"velocity":0.6377952755905512,"duration":0.14624999999999844},{"name":"D3","midi":50,"time":31.660624999999996,"velocity":0.6456692913385826,"duration":0.140625},{"name":"D#3","midi":51,"time":31.806249999999995,"velocity":0.6535433070866141,"duration":0.14812500000000028},{"name":"C3","midi":48,"time":31.954374999999995,"velocity":0.6535433070866141,"duration":0.1493750000000027},{"name":"D3","midi":50,"time":32.10375,"velocity":0.6535433070866141,"duration":0.13624999999999687},{"name":"D#3","midi":51,"time":32.246249999999996,"velocity":0.6614173228346457,"duration":0.14562500000000256},{"name":"F#2","midi":42,"time":32.40125,"velocity":0.6771653543307087,"duration":0.7481250000000017},{"name":"A3","midi":57,"time":33.148125,"velocity":0.7165354330708661,"duration":0.2168750000000017},{"name":"A#3","midi":58,"time":33.303125,"velocity":0.7244094488188977,"duration":0.14874999999999972},{"name":"C4","midi":60,"time":33.448750000000004,"velocity":0.7322834645669292,"duration":0.15500000000000114},{"name":"F#3","midi":54,"time":33.597500000000004,"velocity":0.7401574803149606,"duration":0.15687499999999943},{"name":"G3","midi":55,"time":33.745625000000004,"velocity":0.7480314960629921,"duration":0.15625},{"name":"A3","midi":57,"time":33.894375000000004,"velocity":0.7559055118110236,"duration":0.15874999999999773},{"name":"D3","midi":50,"time":34.041875000000005,"velocity":0.7637795275590551,"duration":0.22749999999999915},{"name":"G3","midi":55,"time":34.200625,"velocity":0.7716535433070866,"duration":0.16062500000000313},{"name":"D3","midi":50,"time":34.503750000000004,"velocity":0.7716535433070866,"duration":0.213124999999998},{"name":"D#3","midi":51,"time":34.801875,"velocity":0.7716535433070866,"duration":0.15687499999999943},{"name":"G3","midi":55,"time":35.10125,"velocity":0.7716535433070866,"duration":0.1581249999999983},{"name":"C3","midi":48,"time":35.402499999999996,"velocity":0.7716535433070866,"duration":0.14500000000000313},{"name":"D#3","midi":51,"time":35.700625,"velocity":0.7716535433070866,"duration":0.15187499999999687},{"name":"D3","midi":50,"time":35.998125,"velocity":0.7559055118110236,"duration":0.46000000000000085},{"name":"C3","midi":48,"time":36.455625000000005,"velocity":0.6614173228346457,"duration":0.14750000000000085},{"name":"A#2","midi":46,"time":36.604375000000005,"velocity":0.6377952755905512,"duration":0.1443749999999966},{"name":"A2","midi":45,"time":36.755,"velocity":0.6220472440944882,"duration":0.14124999999999943},{"name":"A#2","midi":46,"time":36.898125,"velocity":0.6220472440944882,"duration":0.15562500000000057},{"name":"G2","midi":43,"time":37.05125,"velocity":0.6220472440944882,"duration":0.14937499999999915},{"name":"D3","midi":50,"time":37.203125,"velocity":0.6220472440944882,"duration":0.14812500000000028},{"name":"D2","midi":38,"time":37.501875,"velocity":0.6220472440944882,"duration":0.14124999999999943},{"name":"G2","midi":43,"time":37.799375,"velocity":0.6220472440944882,"duration":1.041249999999991},{"name":"A#2","midi":46,"time":38.09625,"velocity":0.6220472440944882,"duration":0.3162499999999966},{"name":"D3","midi":50,"time":38.402499999999996,"velocity":0.6220472440944882,"duration":0.2987499999999912},{"name":"G3","midi":55,"time":38.69749999999999,"velocity":0.6220472440944882,"duration":0.3087499999999963},{"name":"F3","midi":53,"time":38.99812499999999,"velocity":0.6456692913385826,"duration":0.30375000000000085},{"name":"D#3","midi":51,"time":39.296249999999986,"velocity":0.7007874015748031,"duration":0.30562500000000625},{"name":"D3","midi":50,"time":39.59562499999999,"velocity":0.7559055118110236,"duration":0.22749999999999915},{"name":"F3","midi":53,"time":39.75249999999999,"velocity":0.7559055118110236,"duration":0.14687500000000142},{"name":"G3","midi":55,"time":39.90249999999999,"velocity":0.7401574803149606,"duration":0.15124999999999744},{"name":"A3","midi":57,"time":40.05062499999999,"velocity":0.7244094488188977,"duration":0.15312499999999574},{"name":"A#3","midi":58,"time":40.20062499999999,"velocity":0.7007874015748031,"duration":0.15187499999999687},{"name":"A3","midi":57,"time":40.34874999999999,"velocity":0.6850393700787402,"duration":0.15562500000000057},{"name":"A#3","midi":58,"time":40.49812499999999,"velocity":0.6692913385826772,"duration":0.14937499999999915},{"name":"C4","midi":60,"time":40.64499999999999,"velocity":0.6614173228346457,"duration":0.15749999999999886},{"name":"D4","midi":62,"time":40.79499999999999,"velocity":0.6456692913385826,"duration":0.15187499999999687},{"name":"A#3","midi":58,"time":41.09687499999998,"velocity":0.6299212598425197,"duration":0.15687499999999943},{"name":"D#4","midi":63,"time":41.399999999999984,"velocity":0.6062992125984252,"duration":0.1525000000000034},{"name":"F4","midi":65,"time":41.547499999999985,"velocity":0.6062992125984252,"duration":0.15187500000000398},{"name":"D#4","midi":63,"time":41.69749999999999,"velocity":0.6062992125984252,"duration":0.15374999999999517},{"name":"D4","midi":62,"time":41.84749999999999,"velocity":0.6456692913385826,"duration":0.15312499999999574},{"name":"C4","midi":60,"time":41.993124999999985,"velocity":0.6377952755905512,"duration":0.14687500000000142},{"name":"D4","midi":62,"time":42.30187499999999,"velocity":0.6220472440944882,"duration":0.15187499999999687},{"name":"D#4","midi":63,"time":42.59624999999998,"velocity":0.6220472440944882,"duration":0.16250000000000142},{"name":"C4","midi":60,"time":42.89624999999999,"velocity":0.6062992125984252,"duration":0.15687499999999943},{"name":"F4","midi":65,"time":43.196874999999984,"velocity":0.5905511811023622,"duration":0.16250000000000142},{"name":"D#4","midi":63,"time":43.499374999999986,"velocity":0.6299212598425197,"duration":0.1543750000000017},{"name":"D4","midi":62,"time":43.79874999999999,"velocity":0.6614173228346457,"duration":0.30562499999999915},{"name":"C4","midi":60,"time":44.09937499999999,"velocity":0.7007874015748031,"duration":0.15187499999999687},{"name":"A#3","midi":58,"time":44.24749999999999,"velocity":0.7165354330708661,"duration":0.1599999999999966},{"name":"F4","midi":65,"time":44.40312499999998,"velocity":0.7322834645669292,"duration":0.14500000000000313},{"name":"F3","midi":53,"time":44.69874999999998,"velocity":0.7165354330708661,"duration":0.146250000000002},{"name":"A#3","midi":58,"time":44.99687499999998,"velocity":0.6929133858267716,"duration":0.1543750000000017},{"name":"A#2","midi":46,"time":45.298749999999984,"velocity":0.7244094488188977,"duration":0.146250000000002},{"name":"A2","midi":45,"time":45.45062499999999,"velocity":0.7637795275590551,"duration":0.150624999999998},{"name":"G2","midi":43,"time":45.60812499999999,"velocity":0.8267716535433071,"duration":0.14500000000000313},{"name":"F#2","midi":42,"time":45.75687499999999,"velocity":0.8740157480314961,"duration":0.15124999999999744},{"name":"G2","midi":43,"time":45.90437499999999,"velocity":0.889763779527559,"duration":0.14874999999999972},{"name":"A2","midi":45,"time":46.05374999999999,"velocity":0.889763779527559,"duration":0.14999999999999858},{"name":"A#2","midi":46,"time":46.20187499999999,"velocity":0.889763779527559,"duration":0.14937499999999915},{"name":"G2","midi":43,"time":46.499374999999986,"velocity":0.889763779527559,"duration":0.14937499999999915},{"name":"C3","midi":48,"time":46.80062499999998,"velocity":0.889763779527559,"duration":0.15750000000000597},{"name":"B2","midi":47,"time":46.953749999999985,"velocity":0.889763779527559,"duration":0.14500000000000313},{"name":"C3","midi":48,"time":47.09937499999999,"velocity":0.889763779527559,"duration":0.15312500000000284},{"name":"D3","midi":50,"time":47.24562499999999,"velocity":0.889763779527559,"duration":0.15687499999999943},{"name":"D#3","midi":51,"time":47.39187499999999,"velocity":0.889763779527559,"duration":0.15937499999999716},{"name":"D3","midi":50,"time":47.69437499999999,"velocity":0.8740157480314961,"duration":0.16375000000000028},{"name":"C3","midi":48,"time":47.99874999999999,"velocity":0.8346456692913385,"duration":0.15874999999999773},{"name":"A2","midi":45,"time":48.30374999999999,"velocity":0.7952755905511811,"duration":0.14750000000000085},{"name":"D3","midi":50,"time":48.601874999999986,"velocity":0.7559055118110236,"duration":0.6056250000000034},{"name":"C4","midi":60,"time":49.64999999999999,"velocity":0.6299212598425197,"duration":0.15499999999999403},{"name":"A#3","midi":58,"time":49.80124999999999,"velocity":0.6299212598425197,"duration":0.15625},{"name":"C4","midi":60,"time":49.953124999999986,"velocity":0.6220472440944882,"duration":0.15125000000000455},{"name":"D4","midi":62,"time":50.10437499999999,"velocity":0.6535433070866141,"duration":0.14687500000000142},{"name":"F#3","midi":54,"time":50.25062499999999,"velocity":0.6220472440944882,"duration":0.1599999999999966},{"name":"G3","midi":55,"time":50.40249999999999,"velocity":0.6456692913385826,"duration":0.15187500000000398},{"name":"A3","midi":57,"time":50.54937499999999,"velocity":0.6771653543307087,"duration":0.15500000000000114},{"name":"A#3","midi":58,"time":50.70249999999999,"velocity":0.7007874015748031,"duration":0.15374999999999517},{"name":"D3","midi":50,"time":50.85312499999999,"velocity":0.7244094488188977,"duration":0.1506249999999909},{"name":"D#3","midi":51,"time":51.000624999999985,"velocity":0.7559055118110236,"duration":0.15499999999999403},{"name":"F3","midi":53,"time":51.15374999999998,"velocity":0.7795275590551181,"duration":0.15312499999999574},{"name":"G3","midi":55,"time":51.30562499999998,"velocity":0.8110236220472441,"duration":0.14187499999999886},{"name":"C3","midi":48,"time":51.45187499999998,"velocity":0.8110236220472441,"duration":0.15124999999999744},{"name":"B2","midi":47,"time":51.60062499999998,"velocity":0.7952755905511811,"duration":0.14624999999999488},{"name":"C3","midi":48,"time":51.74937499999997,"velocity":0.8188976377952756,"duration":0.14750000000000085},{"name":"D3","midi":50,"time":51.894374999999975,"velocity":0.8188976377952756,"duration":0.16062499999999602},{"name":"G2","midi":43,"time":52.04499999999997,"velocity":0.8267716535433071,"duration":0.15687499999999943},{"name":"C3","midi":48,"time":52.19749999999997,"velocity":0.8267716535433071,"duration":0.6656250000000057},{"name":"A4","midi":69,"time":52.950624999999974,"velocity":0.9448818897637795,"duration":0.15500000000000114},{"name":"A#4","midi":70,"time":53.099374999999974,"velocity":0.984251968503937,"duration":0.15500000000000114},{"name":"C5","midi":72,"time":53.24937499999997,"velocity":1,"duration":0.15937499999999716},{"name":"F#4","midi":66,"time":53.39812499999997,"velocity":1,"duration":0.16062499999999602},{"name":"G4","midi":67,"time":53.54874999999997,"velocity":0.984251968503937,"duration":0.15625},{"name":"A4","midi":69,"time":53.69749999999997,"velocity":1,"duration":0.14937499999999915},{"name":"D4","midi":62,"time":53.85249999999997,"velocity":1,"duration":0.1524999999999963},{"name":"G4","midi":67,"time":54.00249999999997,"velocity":1,"duration":0.14874999999999972},{"name":"F4","midi":65,"time":54.14999999999997,"velocity":1,"duration":0.15375000000000227},{"name":"E4","midi":64,"time":54.29874999999997,"velocity":1,"duration":0.15187499999999687},{"name":"D4","midi":62,"time":54.44749999999997,"velocity":1,"duration":0.1581249999999983},{"name":"E4","midi":64,"time":54.59874999999997,"velocity":1,"duration":0.15187499999999687},{"name":"C#4","midi":61,"time":54.749374999999965,"velocity":1,"duration":0.15187500000000398},{"name":"D4","midi":62,"time":54.89562499999997,"velocity":0.984251968503937,"duration":0.16062500000000313},{"name":"E4","midi":64,"time":55.04687499999997,"velocity":0.952755905511811,"duration":0.15187499999999687},{"name":"A3","midi":57,"time":55.19812499999997,"velocity":0.905511811023622,"duration":0.161875000000002},{"name":"B3","midi":59,"time":55.34812499999997,"velocity":0.8818897637795275,"duration":0.1525000000000034},{"name":"C#4","midi":61,"time":55.49874999999997,"velocity":0.84251968503937,"duration":0.1524999999999963},{"name":"F3","midi":53,"time":55.79999999999997,"velocity":0.7716535433070866,"duration":0.45187500000000114},{"name":"A3","midi":57,"time":55.94812499999997,"velocity":0.7401574803149606,"duration":0.15687499999999943},{"name":"B3","midi":59,"time":56.09874999999997,"velocity":0.7244094488188977,"duration":0.15687499999999943},{"name":"C#4","midi":61,"time":56.24749999999997,"velocity":0.7086614173228346,"duration":0.161875000000002},{"name":"D4","midi":62,"time":56.40062499999997,"velocity":0.6929133858267716,"duration":0.6000000000000014},{"name":"G3","midi":55,"time":56.69687499999997,"velocity":0.6614173228346457,"duration":0.30562499999999915},{"name":"A3","midi":57,"time":56.99624999999997,"velocity":0.6299212598425197,"duration":0.599375000000002},{"name":"A2","midi":45,"time":57.29999999999997,"velocity":0.5984251968503937,"duration":0.29562500000000114},{"name":"D3","midi":50,"time":57.59999999999997,"velocity":0.5669291338582677,"duration":0.7412500000000009},{"name":"D2","midi":38,"time":57.901874999999976,"velocity":0.5511811023622047,"duration":1.2000000000000028},{"name":"A2","midi":45,"time":58.208124999999974,"velocity":0.5354330708661418,"duration":0.9112500000000026},{"name":"D3","midi":50,"time":58.503749999999975,"velocity":0.5196850393700787,"duration":0.6056250000000034},{"name":"D3","midi":50,"time":59.403749999999974,"velocity":0.6299212598425197,"duration":0.603749999999998},{"name":"D#5","midi":75,"time":60.14937499999997,"velocity":0.6299212598425197,"duration":0.15874999999999773},{"name":"D5","midi":74,"time":60.29937499999997,"velocity":0.6299212598425197,"duration":0.1443749999999966},{"name":"C5","midi":72,"time":60.445624999999964,"velocity":0.6299212598425197,"duration":0.1524999999999963},{"name":"A#4","midi":70,"time":60.59562499999996,"velocity":0.6299212598425197,"duration":0.15874999999999773},{"name":"A4","midi":69,"time":60.74374999999996,"velocity":0.6299212598425197,"duration":0.15312499999999574},{"name":"G4","midi":67,"time":60.89499999999996,"velocity":0.6299212598425197,"duration":0.15312499999999574},{"name":"F#4","midi":66,"time":61.03999999999996,"velocity":0.6299212598425197,"duration":0.16499999999999915},{"name":"G4","midi":67,"time":61.19249999999995,"velocity":0.6299212598425197,"duration":0.16250000000000142},{"name":"G3","midi":55,"time":61.49687499999995,"velocity":0.6299212598425197,"duration":0.15874999999999773},{"name":"A3","midi":57,"time":61.64812499999995,"velocity":0.6299212598425197,"duration":0.1543750000000017},{"name":"A#3","midi":58,"time":61.79749999999995,"velocity":0.6299212598425197,"duration":0.15625},{"name":"G3","midi":55,"time":62.10062499999995,"velocity":0.6299212598425197,"duration":0.146250000000002},{"name":"C4","midi":60,"time":62.39937499999996,"velocity":0.6299212598425197,"duration":0.1525000000000034},{"name":"A#3","midi":58,"time":62.69562499999996,"velocity":0.6299212598425197,"duration":0.15187499999999687},{"name":"A3","midi":57,"time":63.002499999999955,"velocity":0.6299212598425197,"duration":0.14374999999999716},{"name":"C4","midi":60,"time":63.150624999999955,"velocity":0.6456692913385826,"duration":0.150624999999998},{"name":"D4","midi":62,"time":63.298749999999956,"velocity":0.6535433070866141,"duration":0.14937499999999915},{"name":"E4","midi":64,"time":63.447499999999955,"velocity":0.6692913385826772,"duration":0.16062499999999602},{"name":"F4","midi":65,"time":63.596874999999955,"velocity":0.6771653543307087,"duration":0.14562499999999545},{"name":"A#3","midi":58,"time":63.89937499999995,"velocity":0.7007874015748031,"duration":0.1443749999999966},{"name":"C4","midi":60,"time":64.20249999999994,"velocity":0.7244094488188977,"duration":0.5906249999999886},{"name":"C3","midi":48,"time":64.50249999999994,"velocity":0.7480314960629921,"duration":0.14812499999999318},{"name":"F3","midi":53,"time":64.79812499999993,"velocity":0.7637795275590551,"duration":0.15000000000000568},{"name":"G3","midi":55,"time":64.95062499999993,"velocity":0.7795275590551181,"duration":0.14812499999999318},{"name":"G#3","midi":56,"time":65.10062499999992,"velocity":0.7795275590551181,"duration":0.15187500000000398},{"name":"G3","midi":55,"time":65.25124999999993,"velocity":0.7716535433070866,"duration":0.15500000000000114},{"name":"F3","midi":53,"time":65.40499999999993,"velocity":0.7637795275590551,"duration":0.14687499999999432},{"name":"D#3","midi":51,"time":65.55312499999992,"velocity":0.7637795275590551,"duration":0.14812499999999318},{"name":"D3","midi":50,"time":65.70187499999992,"velocity":0.7559055118110236,"duration":0.14499999999999602},{"name":"D#3","midi":51,"time":65.84562499999991,"velocity":0.7559055118110236,"duration":0.1581249999999983},{"name":"B2","midi":47,"time":65.99812499999992,"velocity":0.7480314960629921,"duration":0.15124999999999034},{"name":"C3","midi":48,"time":66.29937499999991,"velocity":0.7401574803149606,"duration":0.15687499999999943},{"name":"G2","midi":43,"time":66.60499999999992,"velocity":0.7244094488188977,"duration":0.1543750000000017},{"name":"G3","midi":55,"time":66.90124999999992,"velocity":0.7165354330708661,"duration":0.15562500000000057},{"name":"F3","midi":53,"time":67.05062499999993,"velocity":0.7244094488188977,"duration":0.15499999999998693},{"name":"D#3","midi":51,"time":67.20437499999991,"velocity":0.7322834645669292,"duration":0.14687499999999432},{"name":"G#3","midi":56,"time":67.4968749999999,"velocity":0.7480314960629921,"duration":0.15187500000000398},{"name":"F3","midi":53,"time":67.7949999999999,"velocity":0.7637795275590551,"duration":0.15375000000000227},{"name":"G3","midi":55,"time":68.0968749999999,"velocity":0.7795275590551181,"duration":0.1581249999999983},{"name":"C3","midi":48,"time":68.40124999999989,"velocity":0.8031496062992126,"duration":0.15375000000000227},{"name":"C4","midi":60,"time":68.70187499999989,"velocity":0.8188976377952756,"duration":0.15124999999999034},{"name":"A#3","midi":58,"time":68.84874999999988,"velocity":0.8267716535433071,"duration":0.16124999999999545},{"name":"G#3","midi":56,"time":68.99749999999987,"velocity":0.8346456692913385,"duration":0.14499999999999602},{"name":"C#4","midi":61,"time":69.29749999999987,"velocity":0.8503937007874016,"duration":0.14812499999999318},{"name":"A#3","midi":58,"time":69.59874999999987,"velocity":0.8661417322834646,"duration":0.15062500000000512},{"name":"C4","midi":60,"time":69.89874999999988,"velocity":0.8818897637795275,"duration":0.15000000000000568},{"name":"F3","midi":53,"time":70.19749999999989,"velocity":0.8976377952755905,"duration":0.15562500000000057},{"name":"D#3","midi":51,"time":70.3487499999999,"velocity":0.905511811023622,"duration":0.1487499999999926},{"name":"F3","midi":53,"time":70.49624999999989,"velocity":0.905511811023622,"duration":0.15625},{"name":"D3","midi":50,"time":70.6468749999999,"velocity":0.905511811023622,"duration":0.15687499999998522},{"name":"D#3","midi":51,"time":70.79749999999989,"velocity":0.905511811023622,"duration":0.1643749999999926},{"name":"G#3","midi":56,"time":70.95187499999987,"velocity":0.905511811023622,"duration":0.1543750000000017},{"name":"G3","midi":55,"time":71.10062499999988,"velocity":0.905511811023622,"duration":0.1524999999999892},{"name":"F3","midi":53,"time":71.24999999999987,"velocity":0.905511811023622,"duration":0.15375000000000227},{"name":"G3","midi":55,"time":71.40187499999988,"velocity":0.8740157480314961,"duration":0.14312499999999773},{"name":"G2","midi":43,"time":71.70062499999987,"velocity":0.7795275590551181,"duration":0.14562499999999545},{"name":"C2","midi":36,"time":72.00249999999987,"velocity":0.6771653543307087,"duration":0.1581249999999983},{"name":"D#4","midi":63,"time":72.30562499999986,"velocity":0.6535433070866141,"duration":0.1487499999999926},{"name":"D4","midi":62,"time":72.45312499999986,"velocity":0.6535433070866141,"duration":0.14562499999999545},{"name":"C4","midi":60,"time":72.60624999999985,"velocity":0.6535433070866141,"duration":0.14812499999999318},{"name":"A#3","midi":58,"time":72.75624999999984,"velocity":0.6535433070866141,"duration":0.15000000000000568},{"name":"A3","midi":57,"time":72.90499999999984,"velocity":0.6535433070866141,"duration":0.1524999999999892},{"name":"A#3","midi":58,"time":73.05312499999984,"velocity":0.6535433070866141,"duration":0.1506249999999909},{"name":"D#3","midi":51,"time":73.20249999999983,"velocity":0.6535433070866141,"duration":0.1443749999999966},{"name":"G3","midi":55,"time":73.50187499999983,"velocity":0.6535433070866141,"duration":0.15062500000000512},{"name":"F3","midi":53,"time":73.80124999999984,"velocity":0.6535433070866141,"duration":0.15000000000000568},{"name":"D#3","midi":51,"time":74.10062499999985,"velocity":0.6535433070866141,"duration":0.15125000000000455},{"name":"D3","midi":50,"time":74.40124999999986,"velocity":0.6614173228346457,"duration":0.15000000000000568},{"name":"G3","midi":55,"time":74.69812499999986,"velocity":0.7007874015748031,"duration":0.1543750000000017},{"name":"D#3","midi":51,"time":74.99937499999986,"velocity":0.7480314960629921,"duration":0.14749999999999375},{"name":"F3","midi":53,"time":75.29874999999986,"velocity":0.7952755905511811,"duration":0.14624999999999488},{"name":"A#2","midi":46,"time":75.59874999999985,"velocity":0.84251968503937,"duration":0.15125000000000455},{"name":"F3","midi":53,"time":75.90062499999986,"velocity":0.8582677165354331,"duration":0.14749999999999375},{"name":"A#3","midi":58,"time":76.20312499999986,"velocity":0.8582677165354331,"duration":0.7450000000000045},{"name":"D4","midi":62,"time":76.94749999999986,"velocity":0.7480314960629921,"duration":0.15937499999999716},{"name":"C4","midi":60,"time":77.10062499999987,"velocity":0.7716535433070866,"duration":0.1506249999999909},{"name":"A#3","midi":58,"time":77.24624999999986,"velocity":0.8031496062992126,"duration":0.21562499999998863},{"name":"A3","midi":57,"time":77.39874999999985,"velocity":0.8346456692913385,"duration":0.15187500000000398},{"name":"G3","midi":55,"time":77.70374999999986,"velocity":0.7952755905511811,"duration":0.1443749999999966},{"name":"F#3","midi":54,"time":78.00374999999985,"velocity":0.7322834645669292,"duration":0.7456249999999898},{"name":"D3","midi":50,"time":78.74499999999985,"velocity":0.7874015748031497,"duration":0.1524999999999892},{"name":"E3","midi":52,"time":78.89187499999984,"velocity":0.8110236220472441,"duration":0.16687500000000455},{"name":"F#3","midi":54,"time":79.04624999999984,"velocity":0.8267716535433071,"duration":0.1618750000000091},{"name":"G3","midi":55,"time":79.19937499999985,"velocity":0.84251968503937,"duration":0.14500000000001023},{"name":"D3","midi":50,"time":79.49687499999986,"velocity":0.8582677165354331,"duration":0.14812499999999318},{"name":"G2","midi":43,"time":79.80187499999985,"velocity":0.8582677165354331,"duration":0.1581249999999983},{"name":"C#4","midi":61,"time":80.42312499999986,"velocity":0.8582677165354331,"duration":0.06812499999999488},{"name":"D4","midi":62,"time":80.50749999999985,"velocity":0.84251968503937,"duration":0.053124999999994316},{"name":"C#4","midi":61,"time":80.56812499999984,"velocity":0.8346456692913385,"duration":0.48312500000000114},{"name":"A#3","midi":58,"time":81.14937499999984,"velocity":0.7244094488188977,"duration":0.15187500000000398},{"name":"A3","midi":57,"time":81.30374999999984,"velocity":0.7244094488188977,"duration":0.1443749999999966},{"name":"G3","midi":55,"time":81.44937499999983,"velocity":0.7322834645669292,"duration":0.14812499999999318},{"name":"A3","midi":57,"time":81.59937499999982,"velocity":0.7401574803149606,"duration":0.15125000000000455},{"name":"D3","midi":50,"time":81.74874999999983,"velocity":0.7401574803149606,"duration":0.15500000000000114},{"name":"D#3","midi":51,"time":81.89499999999983,"velocity":0.7480314960629921,"duration":0.1543750000000017},{"name":"C3","midi":48,"time":82.04374999999983,"velocity":0.7559055118110236,"duration":0.15937499999998295},{"name":"B2","midi":47,"time":82.19687499999982,"velocity":0.7559055118110236,"duration":0.16187499999999488},{"name":"C3","midi":48,"time":82.34749999999981,"velocity":0.7637795275590551,"duration":0.15125000000000455},{"name":"D3","midi":50,"time":82.49312499999982,"velocity":0.7716535433070866,"duration":0.1581249999999983},{"name":"G2","midi":43,"time":82.64937499999982,"velocity":0.7716535433070866,"duration":0.15625},{"name":"C3","midi":48,"time":82.80312499999982,"velocity":0.7795275590551181,"duration":0.15124999999999034},{"name":"D3","midi":50,"time":82.95062499999982,"velocity":0.7874015748031497,"duration":0.15749999999998465},{"name":"C3","midi":48,"time":83.10187499999981,"velocity":0.7874015748031497,"duration":0.1506249999999909},{"name":"A#2","midi":46,"time":83.2493749999998,"velocity":0.7952755905511811,"duration":0.15749999999999886},{"name":"A2","midi":45,"time":83.3981249999998,"velocity":0.8031496062992126,"duration":0.15312500000000284},{"name":"A#2","midi":46,"time":83.6943749999998,"velocity":0.8110236220472441,"duration":0.15187500000000398},{"name":"C3","midi":48,"time":84.0006249999998,"velocity":0.8188976377952756,"duration":0.15500000000000114},{"name":"D#3","midi":51,"time":84.1499999999998,"velocity":0.8267716535433071,"duration":0.1543749999999875},{"name":"D3","midi":50,"time":84.2981249999998,"velocity":0.8346456692913385,"duration":0.1487499999999926},{"name":"C3","midi":48,"time":84.4443749999998,"velocity":0.8346456692913385,"duration":0.15749999999999886},{"name":"F#3","midi":54,"time":84.59374999999979,"velocity":0.84251968503937,"duration":0.15125000000000455},{"name":"D3","midi":50,"time":84.8974999999998,"velocity":0.8503937007874016,"duration":0.14875000000000682},{"name":"G3","midi":55,"time":85.1968749999998,"velocity":0.8582677165354331,"duration":0.15062500000000512},{"name":"C3","midi":48,"time":85.50062499999981,"velocity":0.8661417322834646,"duration":0.14624999999999488},{"name":"D3","midi":50,"time":85.79874999999981,"velocity":0.8740157480314961,"duration":0.15000000000000568},{"name":"D2","midi":38,"time":86.10062499999982,"velocity":0.8818897637795275,"duration":0.140625},{"name":"G2","midi":43,"time":86.40374999999982,"velocity":0.889763779527559,"duration":1.4868749999999977},{"name":"A#2","midi":46,"time":86.70374999999981,"velocity":0.8346456692913385,"duration":0.0762500000000017},{"name":"D3","midi":50,"time":87.00187499999981,"velocity":0.7795275590551181,"duration":0.07500000000000284},{"name":"G3","midi":55,"time":87.30187499999981,"velocity":0.7244094488188977,"duration":0.589375000000004},{"name":"D3","midi":50,"time":88.20374999999981,"velocity":0.5905511811023622,"duration":0.6037500000000051},{"name":"D#5","midi":75,"time":88.94937499999982,"velocity":0.5905511811023622,"duration":0.15875000000001194},{"name":"D5","midi":74,"time":89.09937499999982,"velocity":0.5905511811023622,"duration":0.1443750000000108},{"name":"C5","midi":72,"time":89.24562499999983,"velocity":0.5905511811023622,"duration":0.1525000000000034},{"name":"A#4","midi":70,"time":89.39562499999984,"velocity":0.5905511811023622,"duration":0.15874999999999773},{"name":"A4","midi":69,"time":89.54374999999983,"velocity":0.5905511811023622,"duration":0.15312500000000284},{"name":"G4","midi":67,"time":89.69499999999984,"velocity":0.5905511811023622,"duration":0.15312500000000284},{"name":"F#4","midi":66,"time":89.83999999999983,"velocity":0.5984251968503937,"duration":0.16500000000000625},{"name":"G4","midi":67,"time":89.99249999999984,"velocity":0.5984251968503937,"duration":0.16250000000000853},{"name":"G3","midi":55,"time":90.29687499999984,"velocity":0.5984251968503937,"duration":0.15874999999999773},{"name":"A3","midi":57,"time":90.44812499999985,"velocity":0.5984251968503937,"duration":0.1543749999999875},{"name":"A#3","midi":58,"time":90.59749999999984,"velocity":0.5984251968503937,"duration":0.15625},{"name":"G3","midi":55,"time":90.90062499999983,"velocity":0.5984251968503937,"duration":0.14624999999999488},{"name":"C4","midi":60,"time":91.19937499999983,"velocity":0.5984251968503937,"duration":0.1525000000000034},{"name":"A#3","midi":58,"time":91.49562499999983,"velocity":0.5984251968503937,"duration":0.15187500000000398},{"name":"A3","midi":57,"time":91.80249999999984,"velocity":0.6062992125984252,"duration":0.14374999999999716},{"name":"C4","midi":60,"time":91.95062499999983,"velocity":0.6220472440944882,"duration":0.1506249999999909},{"name":"D4","midi":62,"time":92.09874999999982,"velocity":0.6299212598425197,"duration":0.14937499999999204},{"name":"E4","midi":64,"time":92.24749999999982,"velocity":0.6377952755905512,"duration":0.16062500000001023},{"name":"F4","midi":65,"time":92.39687499999982,"velocity":0.6456692913385826,"duration":0.14562500000000966},{"name":"A#3","midi":58,"time":92.69937499999983,"velocity":0.6692913385826772,"duration":0.1443749999999966},{"name":"C4","midi":60,"time":93.00249999999983,"velocity":0.6929133858267716,"duration":0.5906249999999886},{"name":"C3","midi":48,"time":93.30249999999982,"velocity":0.7165354330708661,"duration":0.14812499999999318},{"name":"F3","midi":53,"time":93.59812499999981,"velocity":0.7401574803149606,"duration":0.15000000000000568},{"name":"G3","midi":55,"time":93.75062499999981,"velocity":0.7559055118110236,"duration":0.14812499999999318},{"name":"G#3","midi":56,"time":93.9006249999998,"velocity":0.7559055118110236,"duration":0.15187500000000398},{"name":"G3","midi":55,"time":94.05124999999981,"velocity":0.7480314960629921,"duration":0.15500000000000114},{"name":"F3","midi":53,"time":94.20499999999981,"velocity":0.7401574803149606,"duration":0.14687499999999432},{"name":"D#3","midi":51,"time":94.3531249999998,"velocity":0.7401574803149606,"duration":0.14812499999999318},{"name":"D3","midi":50,"time":94.5018749999998,"velocity":0.7322834645669292,"duration":0.14499999999999602},{"name":"D#3","midi":51,"time":94.6456249999998,"velocity":0.7322834645669292,"duration":0.1581249999999983},{"name":"B2","midi":47,"time":94.7981249999998,"velocity":0.7244094488188977,"duration":0.15124999999999034},{"name":"C3","midi":48,"time":95.0993749999998,"velocity":0.7165354330708661,"duration":0.15687499999999943},{"name":"G2","midi":43,"time":95.4049999999998,"velocity":0.7086614173228346,"duration":0.1543750000000017},{"name":"G3","midi":55,"time":95.7012499999998,"velocity":0.7007874015748031,"duration":0.15562500000000057},{"name":"F3","midi":53,"time":95.85062499999981,"velocity":0.7086614173228346,"duration":0.15499999999998693},{"name":"D#3","midi":51,"time":96.0043749999998,"velocity":0.7165354330708661,"duration":0.14687499999999432},{"name":"G#3","midi":56,"time":96.29687499999979,"velocity":0.7322834645669292,"duration":0.15187500000000398},{"name":"F3","midi":53,"time":96.59499999999979,"velocity":0.7480314960629921,"duration":0.15375000000000227},{"name":"G3","midi":55,"time":96.89687499999978,"velocity":0.7637795275590551,"duration":0.1581249999999983},{"name":"C3","midi":48,"time":97.20124999999977,"velocity":0.7874015748031497,"duration":0.15375000000000227},{"name":"C4","midi":60,"time":97.50187499999977,"velocity":0.8031496062992126,"duration":0.15124999999999034},{"name":"A#3","midi":58,"time":97.64874999999977,"velocity":0.8110236220472441,"duration":0.16124999999999545},{"name":"G#3","midi":56,"time":97.79749999999976,"velocity":0.8188976377952756,"duration":0.14499999999999602},{"name":"C#4","midi":61,"time":98.09749999999976,"velocity":0.8346456692913385,"duration":0.14812499999999318},{"name":"A#3","midi":58,"time":98.39874999999975,"velocity":0.8503937007874016,"duration":0.15062500000000512},{"name":"C4","midi":60,"time":98.69874999999976,"velocity":0.8661417322834646,"duration":0.15000000000000568},{"name":"F3","midi":53,"time":98.99749999999977,"velocity":0.8818897637795275,"duration":0.15562500000000057},{"name":"D#3","midi":51,"time":99.14874999999978,"velocity":0.905511811023622,"duration":0.1487499999999926},{"name":"F3","midi":53,"time":99.29624999999977,"velocity":0.905511811023622,"duration":0.15625},{"name":"D3","midi":50,"time":99.44687499999978,"velocity":0.905511811023622,"duration":0.15687499999998522},{"name":"D#3","midi":51,"time":99.59749999999977,"velocity":0.905511811023622,"duration":0.1643749999999926},{"name":"G#3","midi":56,"time":99.75187499999976,"velocity":0.905511811023622,"duration":0.1543750000000017},{"name":"G3","midi":55,"time":99.90062499999976,"velocity":0.905511811023622,"duration":0.1524999999999892},{"name":"F3","midi":53,"time":100.04999999999976,"velocity":0.905511811023622,"duration":0.15375000000000227},{"name":"G3","midi":55,"time":100.20187499999976,"velocity":0.8740157480314961,"duration":0.14312499999999773},{"name":"G2","midi":43,"time":100.50062499999976,"velocity":0.7795275590551181,"duration":0.14562499999999545},{"name":"C2","midi":36,"time":100.80249999999975,"velocity":0.6771653543307087,"duration":0.1581249999999983},{"name":"D#4","midi":63,"time":101.10562499999975,"velocity":0.6535433070866141,"duration":0.1487499999999926},{"name":"D4","midi":62,"time":101.25312499999974,"velocity":0.6535433070866141,"duration":0.14562499999999545},{"name":"C4","midi":60,"time":101.40624999999973,"velocity":0.6535433070866141,"duration":0.14812499999999318},{"name":"A#3","midi":58,"time":101.55624999999972,"velocity":0.6535433070866141,"duration":0.15000000000000568},{"name":"A3","midi":57,"time":101.70499999999973,"velocity":0.6535433070866141,"duration":0.1524999999999892},{"name":"A#3","midi":58,"time":101.85312499999972,"velocity":0.6535433070866141,"duration":0.1506249999999909},{"name":"D#3","midi":51,"time":102.00249999999971,"velocity":0.6535433070866141,"duration":0.1443749999999966},{"name":"G3","midi":55,"time":102.30187499999971,"velocity":0.6535433070866141,"duration":0.15062500000000512},{"name":"F3","midi":53,"time":102.60124999999972,"velocity":0.6535433070866141,"duration":0.15000000000000568},{"name":"D#3","midi":51,"time":102.90062499999974,"velocity":0.6535433070866141,"duration":0.15125000000000455},{"name":"D3","midi":50,"time":103.20124999999975,"velocity":0.6614173228346457,"duration":0.15000000000000568},{"name":"G3","midi":55,"time":103.49812499999975,"velocity":0.7007874015748031,"duration":0.1543750000000017},{"name":"D#3","midi":51,"time":103.79937499999974,"velocity":0.7480314960629921,"duration":0.14749999999999375},{"name":"F3","midi":53,"time":104.09874999999974,"velocity":0.7952755905511811,"duration":0.14624999999999488},{"name":"A#2","midi":46,"time":104.39874999999974,"velocity":0.84251968503937,"duration":0.15125000000000455},{"name":"F3","midi":53,"time":104.70062499999975,"velocity":0.8582677165354331,"duration":0.14749999999999375},{"name":"A#3","midi":58,"time":105.00312499999974,"velocity":0.8582677165354331,"duration":0.7450000000000045},{"name":"D4","midi":62,"time":105.74749999999975,"velocity":0.7480314960629921,"duration":0.15937499999999716},{"name":"C4","midi":60,"time":105.90062499999975,"velocity":0.7716535433070866,"duration":0.1506249999999909},{"name":"A#3","midi":58,"time":106.04624999999974,"velocity":0.8031496062992126,"duration":0.21562499999998863},{"name":"A3","midi":57,"time":106.19874999999973,"velocity":0.8346456692913385,"duration":0.15187500000000398},{"name":"G3","midi":55,"time":106.50374999999974,"velocity":0.7952755905511811,"duration":0.1443749999999966},{"name":"F#3","midi":54,"time":106.80374999999974,"velocity":0.7322834645669292,"duration":0.7456249999999898},{"name":"D3","midi":50,"time":107.54499999999973,"velocity":0.7874015748031497,"duration":0.1524999999999892},{"name":"E3","midi":52,"time":107.69187499999973,"velocity":0.8110236220472441,"duration":0.16687500000000455},{"name":"F#3","midi":54,"time":107.84624999999973,"velocity":0.8267716535433071,"duration":0.1618750000000091},{"name":"G3","midi":55,"time":107.99937499999973,"velocity":0.84251968503937,"duration":0.14500000000001023},{"name":"D3","midi":50,"time":108.29687499999974,"velocity":0.8582677165354331,"duration":0.14812499999999318},{"name":"G2","midi":43,"time":108.60187499999974,"velocity":0.8582677165354331,"duration":0.1581249999999983},{"name":"C#4","midi":61,"time":109.22312499999974,"velocity":0.8582677165354331,"duration":0.06812499999999488},{"name":"D4","midi":62,"time":109.30749999999973,"velocity":0.84251968503937,"duration":0.053124999999994316},{"name":"C#4","midi":61,"time":109.36812499999972,"velocity":0.8346456692913385,"duration":0.48312500000000114},{"name":"A#3","midi":58,"time":109.94937499999972,"velocity":0.7244094488188977,"duration":0.15187500000000398},{"name":"A3","midi":57,"time":110.10374999999972,"velocity":0.7244094488188977,"duration":0.1443749999999966},{"name":"G3","midi":55,"time":110.24937499999972,"velocity":0.7322834645669292,"duration":0.14812499999999318},{"name":"A3","midi":57,"time":110.39937499999971,"velocity":0.7401574803149606,"duration":0.15125000000000455},{"name":"D3","midi":50,"time":110.54874999999971,"velocity":0.7401574803149606,"duration":0.15500000000000114},{"name":"D#3","midi":51,"time":110.69499999999971,"velocity":0.7480314960629921,"duration":0.1543750000000017},{"name":"C3","midi":48,"time":110.84374999999972,"velocity":0.7559055118110236,"duration":0.15937499999998295},{"name":"B2","midi":47,"time":110.9968749999997,"velocity":0.7559055118110236,"duration":0.16187499999999488},{"name":"C3","midi":48,"time":111.1474999999997,"velocity":0.7637795275590551,"duration":0.15125000000000455},{"name":"D3","midi":50,"time":111.2931249999997,"velocity":0.7716535433070866,"duration":0.1581249999999983},{"name":"G2","midi":43,"time":111.4493749999997,"velocity":0.7795275590551181,"duration":0.15625},{"name":"C3","midi":48,"time":111.60312499999971,"velocity":0.7952755905511811,"duration":0.15124999999999034},{"name":"D3","midi":50,"time":111.7506249999997,"velocity":0.8110236220472441,"duration":0.15749999999998465},{"name":"C3","midi":48,"time":111.90187499999969,"velocity":0.8110236220472441,"duration":0.1506249999999909},{"name":"A#2","midi":46,"time":112.04937499999969,"velocity":0.8188976377952756,"duration":0.15749999999999886},{"name":"A2","midi":45,"time":112.19812499999968,"velocity":0.8346456692913385,"duration":0.15312500000000284},{"name":"A#2","midi":46,"time":112.49437499999968,"velocity":0.8503937007874016,"duration":0.15187500000000398},{"name":"C3","midi":48,"time":112.80062499999968,"velocity":0.8582677165354331,"duration":0.15500000000000114},{"name":"D#3","midi":51,"time":112.94999999999969,"velocity":0.8740157480314961,"duration":0.1543749999999875},{"name":"D3","midi":50,"time":113.09812499999968,"velocity":0.889763779527559,"duration":0.1487499999999926},{"name":"C3","midi":48,"time":113.24437499999968,"velocity":0.889763779527559,"duration":0.15749999999999886},{"name":"F#3","midi":54,"time":113.39374999999967,"velocity":0.8976377952755905,"duration":0.15125000000000455},{"name":"D3","midi":50,"time":113.69749999999968,"velocity":0.9133858267716536,"duration":0.14875000000000682},{"name":"G3","midi":55,"time":113.99687499999969,"velocity":0.9291338582677166,"duration":0.15062500000000512},{"name":"C3","midi":48,"time":114.3006249999997,"velocity":0.9448818897637795,"duration":0.14624999999999488},{"name":"D3","midi":50,"time":114.5987499999997,"velocity":0.9763779527559056,"duration":0.15000000000000568},{"name":"D2","midi":38,"time":114.9006249999997,"velocity":0.984251968503937,"duration":0.140625},{"name":"G2","midi":43,"time":115.2037499999997,"velocity":0.9921259842519685,"duration":1.4868749999999977},{"name":"A#2","midi":46,"time":115.5037499999997,"velocity":0.9448818897637795,"duration":0.0762500000000017},{"name":"D3","midi":50,"time":115.8018749999997,"velocity":0.8818897637795275,"duration":0.07500000000000284},{"name":"G3","midi":55,"time":116.1018749999997,"velocity":0.8110236220472441,"duration":0.589375000000004}],"controlChanges":{"7":[{"number":7,"time":0,"value":0.905511811023622}],"10":[{"number":10,"time":0,"value":0.3700787401574803}]},"id":2,"name":"seq. by David Siu dss@po.cwru.edu","instrumentNumber":6,"instrument":"harpsichord","instrumentFamily":"piano","channelNumber":0,"isPercussion":false}]}