{"header":{"PPQ":120,"timeSignature":[12,16],"bpm":96,"name":"--------"},"startTime":0,"duration":131.71875,"tracks":[{"startTime":0,"duration":0,"length":0,"notes":[],"controlChanges":{},"id":0,"name":"--------"},{"startTime":2.8125,"duration":131.71875,"length":460,"notes":[{"name":"G#4","midi":68,"time":2.8125,"velocity":0.5511811023622047,"duration":0.15625},{"name":"G4","midi":67,"time":2.96875,"velocity":0.5511811023622047,"duration":0.15625},{"name":"G#4","midi":68,"time":3.125,"velocity":0.5511811023622047,"duration":0.15625},{"name":"A#4","midi":70,"time":3.28125,"velocity":0.5511811023622047,"duration":0.15625},{"name":"G#4","midi":68,"time":3.4375,"velocity":0.5511811023622047,"duration":0.15625},{"name":"A#4","midi":70,"time":3.59375,"velocity":0.5511811023622047,"duration":0.15625},{"name":"D#4","midi":63,"time":3.75,"velocity":0.5511811023622047,"duration":0.15625},{"name":"F4","midi":65,"time":3.90625,"velocity":0.5511811023622047,"duration":0.15625},{"name":"G4","midi":67,"time":4.0625,"velocity":0.5511811023622047,"duration":0.15625},{"name":"G#4","midi":68,"time":4.21875,"velocity":0.5511811023622047,"duration":0.15625},{"name":"A#4","midi":70,"time":4.375,"velocity":0.5511811023622047,"duration":0.15625},{"name":"B4","midi":71,"time":4.53125,"velocity":0.5511811023622047,"duration":0.15625},{"name":"C#5","midi":73,"time":4.6875,"velocity":0.5511811023622047,"duration":0.15625},{"name":"B4","midi":71,"time":4.84375,"velocity":0.5511811023622047,"duration":0.15625},{"name":"C#5","midi":73,"time":5,"velocity":0.5511811023622047,"duration":0.15625},{"name":"A#4","midi":70,"time":5.15625,"velocity":0.5511811023622047,"duration":0.15625},{"name":"D#5","midi":75,"time":5.3125,"velocity":0.5511811023622047,"duration":0.15625},{"name":"C#5","midi":73,"time":5.46875,"velocity":0.5511811023622047,"duration":0.15625},{"name":"B4","midi":71,"time":5.625,"velocity":0.5511811023622047,"duration":0.15625},{"name":"A#4","midi":70,"time":5.78125,"velocity":0.5511811023622047,"duration":0.15625},{"name":"B4","midi":71,"time":5.9375,"velocity":0.5511811023622047,"duration":0.15625},{"name":"G#4","midi":68,"time":6.09375,"velocity":0.5511811023622047,"duration":0.15625},{"name":"C#5","midi":73,"time":6.25,"velocity":0.5511811023622047,"duration":0.15625},{"name":"B4","midi":71,"time":6.40625,"velocity":0.5511811023622047,"duration":0.15625},{"name":"A4","midi":69,"time":6.5625,"velocity":0.5511811023622047,"duration":0.15625},{"name":"G#4","midi":68,"time":6.71875,"velocity":0.5511811023622047,"duration":0.15625},{"name":"A4","midi":69,"time":6.875,"velocity":0.5511811023622047,"duration":0.15625},{"name":"F#4","midi":66,"time":7.03125,"velocity":0.5511811023622047,"duration":0.15625},{"name":"B4","midi":71,"time":7.1875,"velocity":0.5511811023622047,"duration":0.15625},{"name":"A4","midi":69,"time":7.34375,"velocity":0.5511811023622047,"duration":0.15625},{"name":"G#4","midi":68,"time":7.5,"velocity":0.5511811023622047,"duration":0.46875},{"name":"F#4","midi":66,"time":7.96875,"velocity":0.5511811023622047,"duration":0.9375},{"name":"E4","midi":64,"time":8.90625,"velocity":0.5511811023622047,"duration":0.515625},{"name":"D#4","midi":63,"time":9.375,"velocity":0.5511811023622047,"duration":0.4114583333333339},{"name":"D#5","midi":75,"time":9.84375,"velocity":0.5511811023622047,"duration":0.4114583333333339},{"name":"G#4","midi":68,"time":10.3125,"velocity":0.5511811023622047,"duration":0.515625},{"name":"A4","midi":69,"time":10.78125,"velocity":0.5511811023622047,"duration":0.9375},{"name":"G#4","midi":68,"time":11.71875,"velocity":0.5511811023622047,"duration":0.9375},{"name":"F#4","midi":66,"time":12.65625,"velocity":0.5511811023622047,"duration":0.625},{"name":"G#4","midi":68,"time":13.28125,"velocity":0.5511811023622047,"duration":0.15625},{"name":"A4","midi":69,"time":13.4375,"velocity":0.5511811023622047,"duration":0.15625},{"name":"G#4","midi":68,"time":13.59375,"velocity":0.5511811023622047,"duration":0.15625},{"name":"A4","midi":69,"time":13.75,"velocity":0.5511811023622047,"duration":0.15625},{"name":"F#4","midi":66,"time":13.90625,"velocity":0.5511811023622047,"duration":0.15625},{"name":"E4","midi":64,"time":14.0625,"velocity":0.5511811023622047,"duration":0.9375},{"name":"D#4","midi":63,"time":15,"velocity":0.5511811023622047,"duration":0.46875},{"name":"G#4","midi":68,"time":15.9375,"velocity":0.5511811023622047,"duration":0.15625},{"name":"F#4","midi":66,"time":16.09375,"velocity":0.5511811023622047,"duration":0.15625},{"name":"G#4","midi":68,"time":16.25,"velocity":0.5511811023622047,"duration":0.15625},{"name":"E4","midi":64,"time":16.40625,"velocity":0.5511811023622047,"duration":0.15625},{"name":"A4","midi":69,"time":16.5625,"velocity":0.5511811023622047,"duration":0.15625},{"name":"G#4","midi":68,"time":16.71875,"velocity":0.5511811023622047,"duration":0.15625},{"name":"F#4","midi":66,"time":16.875,"velocity":0.5511811023622047,"duration":0.15625},{"name":"E4","midi":64,"time":17.03125,"velocity":0.5511811023622047,"duration":0.15625},{"name":"F#4","midi":66,"time":17.1875,"velocity":0.5511811023622047,"duration":0.15625},{"name":"D#4","midi":63,"time":17.34375,"velocity":0.5511811023622047,"duration":0.15625},{"name":"G#4","midi":68,"time":17.5,"velocity":0.5511811023622047,"duration":0.15625},{"name":"F#4","midi":66,"time":17.65625,"velocity":0.5511811023622047,"duration":0.15625},{"name":"F4","midi":65,"time":17.8125,"velocity":0.5511811023622047,"duration":0.15625},{"name":"D#4","midi":63,"time":17.96875,"velocity":0.5511811023622047,"duration":0.15625},{"name":"C#4","midi":61,"time":18.125,"velocity":0.5511811023622047,"duration":0.15625},{"name":"F#4","midi":66,"time":18.28125,"velocity":0.5511811023622047,"duration":0.9375},{"name":"E4","midi":64,"time":19.21875,"velocity":0.5511811023622047,"duration":0.9375},{"name":"D#4","midi":63,"time":20.15625,"velocity":0.5511811023622047,"duration":0.15625},{"name":"C#4","midi":61,"time":20.3125,"velocity":0.5511811023622047,"duration":0.15625},{"name":"B3","midi":59,"time":20.46875,"velocity":0.5511811023622047,"duration":0.15625},{"name":"C#4","midi":61,"time":20.625,"velocity":0.5511811023622047,"duration":0.9375},{"name":"B3","midi":59,"time":21.5625,"velocity":0.5511811023622047,"duration":0.9375},{"name":"A3","midi":57,"time":22.5,"velocity":0.5511811023622047,"duration":0.15625},{"name":"G#3","midi":56,"time":22.65625,"velocity":0.5511811023622047,"duration":0.15625},{"name":"A3","midi":57,"time":22.8125,"velocity":0.5511811023622047,"duration":0.15625},{"name":"F#3","midi":54,"time":22.96875,"velocity":0.5511811023622047,"duration":0.15625},{"name":"B3","midi":59,"time":23.125,"velocity":0.5511811023622047,"duration":0.15625},{"name":"A3","midi":57,"time":23.28125,"velocity":0.5511811023622047,"duration":0.15625},{"name":"G#3","midi":56,"time":23.4375,"velocity":0.5511811023622047,"duration":0.15625},{"name":"B3","midi":59,"time":23.59375,"velocity":0.5511811023622047,"duration":0.15625},{"name":"E4","midi":64,"time":23.75,"velocity":0.5511811023622047,"duration":0.3125},{"name":"D#4","midi":63,"time":24.0625,"velocity":0.5511811023622047,"duration":0.15625},{"name":"C#4","midi":61,"time":24.21875,"velocity":0.5511811023622047,"duration":0.15625},{"name":"B3","midi":59,"time":24.375,"velocity":0.5511811023622047,"duration":0.15625},{"name":"E4","midi":64,"time":24.53125,"velocity":0.5511811023622047,"duration":0.15625},{"name":"G#4","midi":68,"time":24.6875,"velocity":0.5511811023622047,"duration":0.3125},{"name":"F#4","midi":66,"time":25,"velocity":0.5511811023622047,"duration":0.15625},{"name":"E4","midi":64,"time":25.15625,"velocity":0.5511811023622047,"duration":0.15625},{"name":"D#4","midi":63,"time":25.3125,"velocity":0.5511811023622047,"duration":0.46875},{"name":"F4","midi":65,"time":25.78125,"velocity":0.5511811023622047,"duration":0.46875},{"name":"F#4","midi":66,"time":26.25,"velocity":0.5511811023622047,"duration":0.46875},{"name":"A#4","midi":70,"time":27.1875,"velocity":0.5511811023622047,"duration":0.46875},{"name":"C5","midi":72,"time":27.65625,"velocity":0.5511811023622047,"duration":0.46875},{"name":"C#5","midi":73,"time":28.125,"velocity":0.5511811023622047,"duration":0.15625},{"name":"C5","midi":72,"time":28.28125,"velocity":0.5511811023622047,"duration":0.15625},{"name":"C#5","midi":73,"time":28.4375,"velocity":0.5511811023622047,"duration":0.15625},{"name":"D#5","midi":75,"time":28.59375,"velocity":0.5511811023622047,"duration":0.15625},{"name":"C#5","midi":73,"time":28.75,"velocity":0.5511811023622047,"duration":0.15625},{"name":"D#5","midi":75,"time":28.90625,"velocity":0.5511811023622047,"duration":0.15625},{"name":"G#4","midi":68,"time":29.0625,"velocity":0.5511811023622047,"duration":0.15625},{"name":"A#4","midi":70,"time":29.21875,"velocity":0.5511811023622047,"duration":0.15625},{"name":"C5","midi":72,"time":29.375,"velocity":0.5511811023622047,"duration":0.15625},{"name":"C#5","midi":73,"time":29.53125,"velocity":0.5511811023622047,"duration":0.15625},{"name":"D#5","midi":75,"time":29.6875,"velocity":0.5511811023622047,"duration":0.15625},{"name":"E5","midi":76,"time":29.84375,"velocity":0.5511811023622047,"duration":0.15625},{"name":"F#5","midi":78,"time":30,"velocity":0.5511811023622047,"duration":0.15625},{"name":"E5","midi":76,"time":30.15625,"velocity":0.5511811023622047,"duration":0.15625},{"name":"F#5","midi":78,"time":30.3125,"velocity":0.5511811023622047,"duration":0.15625},{"name":"D#5","midi":75,"time":30.46875,"velocity":0.5511811023622047,"duration":0.15625},{"name":"G#5","midi":80,"time":30.625,"velocity":0.5511811023622047,"duration":0.15625},{"name":"F#5","midi":78,"time":30.78125,"velocity":0.5511811023622047,"duration":0.15625},{"name":"E5","midi":76,"time":30.9375,"velocity":0.5511811023622047,"duration":0.15625},{"name":"D#5","midi":75,"time":31.09375,"velocity":0.5511811023622047,"duration":0.15625},{"name":"E5","midi":76,"time":31.25,"velocity":0.5511811023622047,"duration":0.15625},{"name":"C#5","midi":73,"time":31.40625,"velocity":0.5511811023622047,"duration":0.15625},{"name":"B4","midi":71,"time":31.5625,"velocity":0.5511811023622047,"duration":0.15625},{"name":"C#5","midi":73,"time":31.71875,"velocity":0.5511811023622047,"duration":0.15625},{"name":"A#5","midi":82,"time":31.875,"velocity":0.5511811023622047,"duration":0.46875},{"name":"D#5","midi":75,"time":32.34375,"velocity":0.5511811023622047,"duration":0.46875},{"name":"F5","midi":77,"time":32.8125,"velocity":0.5511811023622047,"duration":0.46875},{"name":"G5","midi":79,"time":33.28125,"velocity":0.5511811023622047,"duration":0.46875},{"name":"G#5","midi":80,"time":33.75,"velocity":0.5511811023622047,"duration":0.46875},{"name":"E5","midi":76,"time":34.21875,"velocity":0.5511811023622047,"duration":0.9375},{"name":"D#5","midi":75,"time":35.15625,"velocity":0.5511811023622047,"duration":0.46875},{"name":"E5","midi":76,"time":35.625,"velocity":0.5511811023622047,"duration":0.9375},{"name":"D#5","midi":75,"time":36.5625,"velocity":0.5511811023622047,"duration":0.46875},{"name":"D5","midi":74,"time":37.03125,"velocity":0.5511811023622047,"duration":0.46875},{"name":"C#5","midi":73,"time":37.5,"velocity":0.5511811023622047,"duration":0.46875},{"name":"D#5","midi":75,"time":37.96875,"velocity":0.5511811023622047,"duration":0.15625},{"name":"E5","midi":76,"time":38.125,"velocity":0.5511811023622047,"duration":0.15625},{"name":"F#5","midi":78,"time":38.28125,"velocity":0.5511811023622047,"duration":0.15625},{"name":"B4","midi":71,"time":38.4375,"velocity":0.5511811023622047,"duration":0.3072916666666643},{"name":"C#5","midi":73,"time":38.90625,"velocity":0.5511811023622047,"duration":0.15625},{"name":"D#5","midi":75,"time":39.0625,"velocity":0.5511811023622047,"duration":0.15625},{"name":"E5","midi":76,"time":39.21875,"velocity":0.5511811023622047,"duration":0.15625},{"name":"A4","midi":69,"time":39.375,"velocity":0.5511811023622047,"duration":0.3072916666666643},{"name":"B4","midi":71,"time":39.84375,"velocity":0.5511811023622047,"duration":0.15625},{"name":"C#5","midi":73,"time":40,"velocity":0.5511811023622047,"duration":0.15625},{"name":"D#5","midi":75,"time":40.15625,"velocity":0.5511811023622047,"duration":0.15625},{"name":"G#4","midi":68,"time":40.3125,"velocity":0.5511811023622047,"duration":0.515625},{"name":"B4","midi":71,"time":40.9375,"velocity":0.5511811023622047,"duration":0.15625},{"name":"A#4","midi":70,"time":41.09375,"velocity":0.5511811023622047,"duration":0.15625},{"name":"B4","midi":71,"time":41.25,"velocity":0.5511811023622047,"duration":0.515625},{"name":"D#5","midi":75,"time":41.875,"velocity":0.5511811023622047,"duration":0.15625},{"name":"C#5","midi":73,"time":42.03125,"velocity":0.5511811023622047,"duration":0.15625},{"name":"D#5","midi":75,"time":42.1875,"velocity":0.5511811023622047,"duration":0.515625},{"name":"F#5","midi":78,"time":42.8125,"velocity":0.5511811023622047,"duration":0.15625},{"name":"E5","midi":76,"time":42.96875,"velocity":0.5511811023622047,"duration":0.15625},{"name":"F#5","midi":78,"time":43.125,"velocity":0.5511811023622047,"duration":0.15625},{"name":"G#5","midi":80,"time":43.28125,"velocity":0.5511811023622047,"duration":0.15625},{"name":"F#5","midi":78,"time":43.4375,"velocity":0.5511811023622047,"duration":0.15625},{"name":"E5","midi":76,"time":43.59375,"velocity":0.5511811023622047,"duration":0.15625},{"name":"F#5","midi":78,"time":43.75,"velocity":0.5511811023622047,"duration":0.15625},{"name":"E5","midi":76,"time":43.90625,"velocity":0.5511811023622047,"duration":0.15625},{"name":"B5","midi":83,"time":44.0625,"velocity":0.5511811023622047,"duration":0.15625},{"name":"A#5","midi":82,"time":44.21875,"velocity":0.5511811023622047,"duration":0.15625},{"name":"G#5","midi":80,"time":44.375,"velocity":0.5511811023622047,"duration":0.15625},{"name":"F#5","midi":78,"time":44.53125,"velocity":0.5511811023622047,"duration":0.15625},{"name":"E5","midi":76,"time":44.6875,"velocity":0.5511811023622047,"duration":0.15625},{"name":"D#5","midi":75,"time":44.84375,"velocity":0.5511811023622047,"duration":0.15625},{"name":"C#5","midi":73,"time":45,"velocity":0.5511811023622047,"duration":0.15625},{"name":"D#5","midi":75,"time":45.15625,"velocity":0.5511811023622047,"duration":0.15625},{"name":"C#5","midi":73,"time":45.3125,"velocity":0.5511811023622047,"duration":0.15625},{"name":"E5","midi":76,"time":45.46875,"velocity":0.5511811023622047,"duration":0.15625},{"name":"B4","midi":71,"time":45.625,"velocity":0.5511811023622047,"duration":0.15625},{"name":"C#5","midi":73,"time":45.78125,"velocity":0.5511811023622047,"duration":0.15625},{"name":"D#5","midi":75,"time":45.9375,"velocity":0.5511811023622047,"duration":0.15625},{"name":"E5","midi":76,"time":46.09375,"velocity":0.5511811023622047,"duration":0.15625},{"name":"D#5","midi":75,"time":46.25,"velocity":0.5511811023622047,"duration":0.15625},{"name":"F#5","midi":78,"time":46.40625,"velocity":0.5511811023622047,"duration":0.15625},{"name":"C#5","midi":73,"time":46.5625,"velocity":0.5511811023622047,"duration":0.15625},{"name":"D#5","midi":75,"time":46.71875,"velocity":0.5511811023622047,"duration":0.15625},{"name":"E5","midi":76,"time":46.875,"velocity":0.5511811023622047,"duration":0.46875},{"name":"F5","midi":77,"time":47.34375,"velocity":0.5511811023622047,"duration":0.46875},{"name":"A4","midi":69,"time":47.8125,"velocity":0.5511811023622047,"duration":0.3125},{"name":"F#5","midi":78,"time":48.59375,"velocity":0.5511811023622047,"duration":0.15625},{"name":"F5","midi":77,"time":48.75,"velocity":0.5511811023622047,"duration":0.3125},{"name":"E5","midi":76,"time":49.0625,"velocity":0.5511811023622047,"duration":0.15625},{"name":"D#5","midi":75,"time":49.21875,"velocity":0.5511811023622047,"duration":0.3125},{"name":"D5","midi":74,"time":49.53125,"velocity":0.5511811023622047,"duration":0.15625},{"name":"C#5","midi":73,"time":49.6875,"velocity":0.5511811023622047,"duration":0.3125},{"name":"F#5","midi":78,"time":50,"velocity":0.5511811023622047,"duration":0.15625},{"name":"F5","midi":77,"time":50.15625,"velocity":0.5511811023622047,"duration":0.3125},{"name":"E5","midi":76,"time":50.46875,"velocity":0.5511811023622047,"duration":0.15625},{"name":"D#5","midi":75,"time":50.625,"velocity":0.5511811023622047,"duration":0.3125},{"name":"F5","midi":77,"time":50.9375,"velocity":0.5511811023622047,"duration":0.15625},{"name":"F#5","midi":78,"time":51.09375,"velocity":0.5511811023622047,"duration":0.9375},{"name":"E5","midi":76,"time":52.03125,"velocity":0.5511811023622047,"duration":0.9375},{"name":"D#5","midi":75,"time":52.96875,"velocity":0.5511811023622047,"duration":0.78125},{"name":"C#5","midi":73,"time":53.75,"velocity":0.5511811023622047,"duration":0.15625},{"name":"C5","midi":72,"time":53.90625,"velocity":0.5511811023622047,"duration":0.3125},{"name":"B4","midi":71,"time":54.21875,"velocity":0.5511811023622047,"duration":0.15625},{"name":"A#4","midi":70,"time":54.375,"velocity":0.5511811023622047,"duration":0.3125},{"name":"A4","midi":69,"time":54.6875,"velocity":0.5511811023622047,"duration":0.15625},{"name":"F#5","midi":78,"time":54.84375,"velocity":0.5511811023622047,"duration":0.15625},{"name":"E5","midi":76,"time":55,"velocity":0.5511811023622047,"duration":0.15625},{"name":"F#5","midi":78,"time":55.15625,"velocity":0.5511811023622047,"duration":0.15625},{"name":"C5","midi":72,"time":55.3125,"velocity":0.5511811023622047,"duration":0.15625},{"name":"C#5","midi":73,"time":55.46875,"velocity":0.5511811023622047,"duration":0.15625},{"name":"D#5","midi":75,"time":55.625,"velocity":0.5511811023622047,"duration":0.15625},{"name":"G#4","midi":68,"time":55.78125,"velocity":0.5511811023622047,"duration":0.46875},{"name":"A#4","midi":70,"time":56.25,"velocity":0.5511811023622047,"duration":0.46875},{"name":"C5","midi":72,"time":56.71875,"velocity":0.5511811023622047,"duration":0.46875},{"name":"C#5","midi":73,"time":57.1875,"velocity":0.5511811023622047,"duration":0.46875},{"name":"A4","midi":69,"time":57.65625,"velocity":0.5511811023622047,"duration":0.9375},{"name":"G#4","midi":68,"time":58.59375,"velocity":0.5511811023622047,"duration":0.9375},{"name":"F#4","midi":66,"time":59.53125,"velocity":0.5511811023622047,"duration":0.46875},{"name":"G#4","midi":68,"time":60,"velocity":0.5511811023622047,"duration":0.15625},{"name":"D#4","midi":63,"time":60.15625,"velocity":0.5511811023622047,"duration":0.15625},{"name":"G#4","midi":68,"time":60.3125,"velocity":0.5511811023622047,"duration":0.3125},{"name":"F#4","midi":66,"time":60.625,"velocity":0.5511811023622047,"duration":0.15625},{"name":"E4","midi":64,"time":60.78125,"velocity":0.5511811023622047,"duration":0.15625},{"name":"D#4","midi":63,"time":60.9375,"velocity":0.5511811023622047,"duration":0.15625},{"name":"F#4","midi":66,"time":61.09375,"velocity":0.5511811023622047,"duration":0.15625},{"name":"A4","midi":69,"time":61.25,"velocity":0.5511811023622047,"duration":0.3125},{"name":"G#4","midi":68,"time":61.5625,"velocity":0.5511811023622047,"duration":0.15625},{"name":"F#4","midi":66,"time":61.71875,"velocity":0.5511811023622047,"duration":0.15625},{"name":"E4","midi":64,"time":61.875,"velocity":0.5511811023622047,"duration":0.46875},{"name":"F#4","midi":66,"time":62.34375,"velocity":0.5511811023622047,"duration":0.46875},{"name":"G#4","midi":68,"time":62.8125,"velocity":0.5511811023622047,"duration":0.3125},{"name":"F#5","midi":78,"time":63.75,"velocity":0.5511811023622047,"duration":0.9375},{"name":"F5","midi":77,"time":64.6875,"velocity":0.5511811023622047,"duration":0.46875},{"name":"E5","midi":76,"time":65.15625,"velocity":0.5511811023622047,"duration":0.46875},{"name":"D#5","midi":75,"time":65.625,"velocity":0.5511811023622047,"duration":0.3072916666666714},{"name":"G#5","midi":80,"time":66.09375,"velocity":0.5511811023622047,"duration":0.3072916666666714},{"name":"C#5","midi":73,"time":66.5625,"velocity":0.5511811023622047,"duration":0.3072916666666714},{"name":"F#5","midi":78,"time":67.03125,"velocity":0.5511811023622047,"duration":0.9375},{"name":"E5","midi":76,"time":67.96875,"velocity":0.5511811023622047,"duration":0.46875},{"name":"D#5","midi":75,"time":68.4375,"velocity":0.5511811023622047,"duration":0.46875},{"name":"E5","midi":76,"time":68.90625,"velocity":0.5511811023622047,"duration":0.9375},{"name":"D#5","midi":75,"time":69.84375,"velocity":0.5511811023622047,"duration":0.625},{"name":"C#5","midi":73,"time":70.46875,"velocity":0.5511811023622047,"duration":0.15625},{"name":"B4","midi":71,"time":70.625,"velocity":0.5511811023622047,"duration":0.15625},{"name":"C#5","midi":73,"time":70.78125,"velocity":0.5511811023622047,"duration":0.15625},{"name":"D#5","midi":75,"time":70.9375,"velocity":0.5511811023622047,"duration":0.15625},{"name":"E5","midi":76,"time":71.09375,"velocity":0.5511811023622047,"duration":0.3125},{"name":"D#5","midi":75,"time":71.40625,"velocity":0.5511811023622047,"duration":0.15625},{"name":"C#5","midi":73,"time":71.5625,"velocity":0.5511811023622047,"duration":0.15625},{"name":"B4","midi":71,"time":71.71875,"velocity":0.5511811023622047,"duration":0.15625},{"name":"C#5","midi":73,"time":71.875,"velocity":0.5511811023622047,"duration":0.15625},{"name":"B4","midi":71,"time":72.03125,"velocity":0.5511811023622047,"duration":0.15625},{"name":"A#4","midi":70,"time":72.1875,"velocity":0.5511811023622047,"duration":0.46875},{"name":"D#5","midi":75,"time":73.125,"velocity":0.5511811023622047,"duration":0.15625},{"name":"C#5","midi":73,"time":73.28125,"velocity":0.5511811023622047,"duration":0.15625},{"name":"D#5","midi":75,"time":73.4375,"velocity":0.5511811023622047,"duration":0.15625},{"name":"B4","midi":71,"time":73.59375,"velocity":0.5511811023622047,"duration":0.15625},{"name":"E5","midi":76,"time":73.75,"velocity":0.5511811023622047,"duration":0.15625},{"name":"D#5","midi":75,"time":73.90625,"velocity":0.5511811023622047,"duration":0.15625},{"name":"C#5","midi":73,"time":74.0625,"velocity":0.5511811023622047,"duration":0.15625},{"name":"B4","midi":71,"time":74.21875,"velocity":0.5511811023622047,"duration":0.15625},{"name":"C#5","midi":73,"time":74.375,"velocity":0.5511811023622047,"duration":0.15625},{"name":"A#4","midi":70,"time":74.53125,"velocity":0.5511811023622047,"duration":0.15625},{"name":"D#5","midi":75,"time":74.6875,"velocity":0.5511811023622047,"duration":0.15625},{"name":"C#5","midi":73,"time":74.84375,"velocity":0.5511811023622047,"duration":0.15625},{"name":"C5","midi":72,"time":75,"velocity":0.5511811023622047,"duration":0.15625},{"name":"A#4","midi":70,"time":75.15625,"velocity":0.5511811023622047,"duration":0.15625},{"name":"G#4","midi":68,"time":75.3125,"velocity":0.5511811023622047,"duration":0.15625},{"name":"C#5","midi":73,"time":75.46875,"velocity":0.5511811023622047,"duration":0.9375},{"name":"B4","midi":71,"time":76.40625,"velocity":0.5511811023622047,"duration":0.9375},{"name":"A4","midi":69,"time":77.34375,"velocity":0.5511811023622047,"duration":0.15625},{"name":"G#4","midi":68,"time":77.5,"velocity":0.5511811023622047,"duration":0.15625},{"name":"F#4","midi":66,"time":77.65625,"velocity":0.5511811023622047,"duration":0.15625},{"name":"G#4","midi":68,"time":77.8125,"velocity":0.5511811023622047,"duration":0.9375},{"name":"F#4","midi":66,"time":78.75,"velocity":0.5511811023622047,"duration":0.9375},{"name":"E4","midi":64,"time":79.6875,"velocity":0.5511811023622047,"duration":0.15625},{"name":"D#4","midi":63,"time":79.84375,"velocity":0.5511811023622047,"duration":0.15625},{"name":"E4","midi":64,"time":80,"velocity":0.5511811023622047,"duration":0.15625},{"name":"C#4","midi":61,"time":80.15625,"velocity":0.5511811023622047,"duration":0.15625},{"name":"F#4","midi":66,"time":80.3125,"velocity":0.5511811023622047,"duration":0.15625},{"name":"E4","midi":64,"time":80.46875,"velocity":0.5511811023622047,"duration":0.15625},{"name":"D#4","midi":63,"time":80.625,"velocity":0.5511811023622047,"duration":0.15625},{"name":"F#4","midi":66,"time":80.78125,"velocity":0.5511811023622047,"duration":0.15625},{"name":"B4","midi":71,"time":80.9375,"velocity":0.5511811023622047,"duration":0.3125},{"name":"A4","midi":69,"time":81.25,"velocity":0.5511811023622047,"duration":0.15625},{"name":"G#4","midi":68,"time":81.40625,"velocity":0.5511811023622047,"duration":0.15625},{"name":"F#4","midi":66,"time":81.5625,"velocity":0.5511811023622047,"duration":0.15625},{"name":"F5","midi":77,"time":81.71875,"velocity":0.5511811023622047,"duration":0.15625},{"name":"F#5","midi":78,"time":81.875,"velocity":0.5511811023622047,"duration":0.15625},{"name":"G#5","midi":80,"time":82.03125,"velocity":0.5511811023622047,"duration":0.15625},{"name":"C#5","midi":73,"time":82.1875,"velocity":0.5511811023622047,"duration":0.15625},{"name":"B4","midi":71,"time":82.34375,"velocity":0.5511811023622047,"duration":0.15625},{"name":"A4","midi":69,"time":82.5,"velocity":0.5511811023622047,"duration":0.46875},{"name":"F#5","midi":78,"time":83.28125,"velocity":0.5511811023622047,"duration":0.15625},{"name":"E5","midi":76,"time":83.4375,"velocity":0.5511811023622047,"duration":0.46875},{"name":"D#5","midi":75,"time":83.90625,"velocity":0.5511811023622047,"duration":0.625},{"name":"C#5","midi":73,"time":84.53125,"velocity":0.5511811023622047,"duration":0.15625},{"name":"D#5","midi":75,"time":84.6875,"velocity":0.5511811023622047,"duration":0.15625},{"name":"E5","midi":76,"time":84.84375,"velocity":0.5511811023622047,"duration":0.15625},{"name":"A4","midi":69,"time":85,"velocity":0.5511811023622047,"duration":0.15625},{"name":"G#4","midi":68,"time":85.15625,"velocity":0.5511811023622047,"duration":0.15625},{"name":"F#4","midi":66,"time":85.3125,"velocity":0.5511811023622047,"duration":0.15625},{"name":"D#5","midi":75,"time":85.46875,"velocity":0.5511811023622047,"duration":0.15625},{"name":"E5","midi":76,"time":85.625,"velocity":0.5511811023622047,"duration":0.15625},{"name":"F#5","midi":78,"time":85.78125,"velocity":0.5511811023622047,"duration":0.15625},{"name":"B4","midi":71,"time":85.9375,"velocity":0.5511811023622047,"duration":0.15625},{"name":"A4","midi":69,"time":86.09375,"velocity":0.5511811023622047,"duration":0.15625},{"name":"G#4","midi":68,"time":86.25,"velocity":0.5511811023622047,"duration":0.15625},{"name":"G#5","midi":80,"time":86.40625,"velocity":0.5511811023622047,"duration":0.15625},{"name":"A5","midi":81,"time":86.5625,"velocity":0.5511811023622047,"duration":0.15625},{"name":"B5","midi":83,"time":86.71875,"velocity":0.5511811023622047,"duration":0.15625},{"name":"E5","midi":76,"time":86.875,"velocity":0.5511811023622047,"duration":0.15625},{"name":"D5","midi":74,"time":87.03125,"velocity":0.5511811023622047,"duration":0.15625},{"name":"C#5","midi":73,"time":87.1875,"velocity":0.5511811023622047,"duration":1.09375},{"name":"C5","midi":72,"time":88.28125,"velocity":0.5511811023622047,"duration":0.15625},{"name":"C#5","midi":73,"time":88.4375,"velocity":0.5511811023622047,"duration":0.15625},{"name":"D#5","midi":75,"time":88.59375,"velocity":0.5511811023622047,"duration":0.15625},{"name":"C#5","midi":73,"time":88.75,"velocity":0.5511811023622047,"duration":0.15625},{"name":"D#5","midi":75,"time":88.90625,"velocity":0.5511811023622047,"duration":0.15625},{"name":"G#4","midi":68,"time":89.0625,"velocity":0.5511811023622047,"duration":0.15625},{"name":"A#4","midi":70,"time":89.21875,"velocity":0.5511811023622047,"duration":0.15625},{"name":"C5","midi":72,"time":89.375,"velocity":0.5511811023622047,"duration":0.15625},{"name":"C#5","midi":73,"time":89.53125,"velocity":0.5511811023622047,"duration":0.15625},{"name":"D#5","midi":75,"time":89.6875,"velocity":0.5511811023622047,"duration":0.15625},{"name":"E5","midi":76,"time":89.84375,"velocity":0.5511811023622047,"duration":0.15625},{"name":"F#5","midi":78,"time":90,"velocity":0.5511811023622047,"duration":0.15625},{"name":"E5","midi":76,"time":90.15625,"velocity":0.5511811023622047,"duration":0.15625},{"name":"F#5","midi":78,"time":90.3125,"velocity":0.5511811023622047,"duration":0.15625},{"name":"D#5","midi":75,"time":90.46875,"velocity":0.5511811023622047,"duration":0.15625},{"name":"G#5","midi":80,"time":90.625,"velocity":0.5511811023622047,"duration":0.15625},{"name":"F#5","midi":78,"time":90.78125,"velocity":0.5511811023622047,"duration":0.15625},{"name":"E5","midi":76,"time":90.9375,"velocity":0.5511811023622047,"duration":0.46875},{"name":"D#5","midi":75,"time":91.40625,"velocity":0.5511811023622047,"duration":0.46875},{"name":"C#5","midi":73,"time":91.875,"velocity":0.5511811023622047,"duration":0.625},{"name":"C#5","midi":73,"time":92.5,"velocity":0.5511811023622047,"duration":0.15625},{"name":"E5","midi":76,"time":92.65625,"velocity":0.5511811023622047,"duration":0.15625},{"name":"D#5","midi":75,"time":92.8125,"velocity":0.5511811023622047,"duration":0.46875},{"name":"C#5","midi":73,"time":93.28125,"velocity":0.5511811023622047,"duration":0.46875},{"name":"B4","midi":71,"time":93.75,"velocity":0.5511811023622047,"duration":0.625},{"name":"B4","midi":71,"time":94.375,"velocity":0.5511811023622047,"duration":0.15625},{"name":"D5","midi":74,"time":94.53125,"velocity":0.5511811023622047,"duration":0.15625},{"name":"C#5","midi":73,"time":94.6875,"velocity":0.5511811023622047,"duration":0.15625},{"name":"B4","midi":71,"time":94.84375,"velocity":0.5511811023622047,"duration":0.15625},{"name":"C#5","midi":73,"time":95,"velocity":0.5511811023622047,"duration":0.15625},{"name":"F#4","midi":66,"time":95.15625,"velocity":0.5511811023622047,"duration":0.15625},{"name":"B4","midi":71,"time":95.3125,"velocity":0.5511811023622047,"duration":0.15625},{"name":"A4","midi":69,"time":95.46875,"velocity":0.5511811023622047,"duration":0.15625},{"name":"G#4","midi":68,"time":95.625,"velocity":0.5511811023622047,"duration":0.15625},{"name":"F#4","midi":66,"time":95.78125,"velocity":0.5511811023622047,"duration":0.15625},{"name":"G#4","midi":68,"time":95.9375,"velocity":0.5511811023622047,"duration":0.15625},{"name":"E4","midi":64,"time":96.09375,"velocity":0.5511811023622047,"duration":0.15625},{"name":"A4","midi":69,"time":96.25,"velocity":0.5511811023622047,"duration":0.15625},{"name":"G#4","midi":68,"time":96.40625,"velocity":0.5511811023622047,"duration":0.15625},{"name":"F#4","midi":66,"time":96.5625,"velocity":0.5511811023622047,"duration":0.15625},{"name":"E4","midi":64,"time":96.71875,"velocity":0.5511811023622047,"duration":0.15625},{"name":"F#4","midi":66,"time":96.875,"velocity":0.5511811023622047,"duration":0.15625},{"name":"G#4","midi":68,"time":97.03125,"velocity":0.5511811023622047,"duration":0.15625},{"name":"F#4","midi":66,"time":97.1875,"velocity":0.5511811023622047,"duration":0.15625},{"name":"G#4","midi":68,"time":97.34375,"velocity":0.5511811023622047,"duration":0.15625},{"name":"A4","midi":69,"time":97.5,"velocity":0.5511811023622047,"duration":1.40625},{"name":"G#4","midi":68,"time":98.90625,"velocity":0.5511811023622047,"duration":0.46875},{"name":"A4","midi":69,"time":99.375,"velocity":0.5511811023622047,"duration":0.15625},{"name":"C#5","midi":73,"time":99.53125,"velocity":0.5511811023622047,"duration":0.15625},{"name":"B4","midi":71,"time":99.6875,"velocity":0.5511811023622047,"duration":0.15625},{"name":"C#5","midi":73,"time":99.84375,"velocity":0.5511811023622047,"duration":0.15625},{"name":"B4","midi":71,"time":100,"velocity":0.5511811023622047,"duration":0.15625},{"name":"A4","midi":69,"time":100.15625,"velocity":0.5511811023622047,"duration":0.15625},{"name":"B4","midi":71,"time":100.3125,"velocity":0.5511811023622047,"duration":0.15625},{"name":"F4","midi":65,"time":100.46875,"velocity":0.5511811023622047,"duration":0.15625},{"name":"F#4","midi":66,"time":100.625,"velocity":0.5511811023622047,"duration":0.15625},{"name":"F4","midi":65,"time":100.78125,"velocity":0.5511811023622047,"duration":0.3125},{"name":"C#5","midi":73,"time":101.25,"velocity":0.5511811023622047,"duration":0.9375},{"name":"C5","midi":72,"time":102.1875,"velocity":0.5511811023622047,"duration":0.46875},{"name":"B4","midi":71,"time":102.65625,"velocity":0.5511811023622047,"duration":0.46875},{"name":"A#4","midi":70,"time":103.125,"velocity":0.5511811023622047,"duration":0.3072916666666714},{"name":"D#5","midi":75,"time":103.59375,"velocity":0.5511811023622047,"duration":0.3072916666666714},{"name":"G#4","midi":68,"time":104.0625,"velocity":0.5511811023622047,"duration":0.3072916666666714},{"name":"C#5","midi":73,"time":104.53125,"velocity":0.5511811023622047,"duration":0.9375},{"name":"C5","midi":72,"time":105.46875,"velocity":0.5511811023622047,"duration":0.46875},{"name":"C#5","midi":73,"time":105.9375,"velocity":0.5511811023622047,"duration":0.3125},{"name":"A4","midi":69,"time":106.40625,"velocity":0.5511811023622047,"duration":0.15625},{"name":"G#4","midi":68,"time":106.5625,"velocity":0.5511811023622047,"duration":0.15625},{"name":"A4","midi":69,"time":106.71875,"velocity":0.5511811023622047,"duration":0.15625},{"name":"F#4","midi":66,"time":106.875,"velocity":0.5511811023622047,"duration":0.15625},{"name":"B4","midi":71,"time":107.03125,"velocity":0.5511811023622047,"duration":0.15625},{"name":"A4","midi":69,"time":107.1875,"velocity":0.5511811023622047,"duration":0.15625},{"name":"G#4","midi":68,"time":107.34375,"velocity":0.5511811023622047,"duration":0.15625},{"name":"F#4","midi":66,"time":107.5,"velocity":0.5511811023622047,"duration":0.15625},{"name":"G#4","midi":68,"time":107.65625,"velocity":0.5511811023622047,"duration":0.15625},{"name":"E4","midi":64,"time":107.8125,"velocity":0.5511811023622047,"duration":0.15625},{"name":"A4","midi":69,"time":107.96875,"velocity":0.5511811023622047,"duration":0.15625},{"name":"G#4","midi":68,"time":108.125,"velocity":0.5511811023622047,"duration":0.15625},{"name":"F#4","midi":66,"time":108.28125,"velocity":0.5511811023622047,"duration":0.625},{"name":"E4","midi":64,"time":108.90625,"velocity":0.5511811023622047,"duration":0.15625},{"name":"D#4","midi":63,"time":109.0625,"velocity":0.5511811023622047,"duration":0.15625},{"name":"E4","midi":64,"time":109.21875,"velocity":0.5511811023622047,"duration":0.15625},{"name":"G#4","midi":68,"time":109.375,"velocity":0.5511811023622047,"duration":0.15625},{"name":"C#5","midi":73,"time":109.53125,"velocity":0.5511811023622047,"duration":0.3125},{"name":"C5","midi":72,"time":109.84375,"velocity":0.5511811023622047,"duration":0.15625},{"name":"A#4","midi":70,"time":110,"velocity":0.5511811023622047,"duration":0.15625},{"name":"C5","midi":72,"time":110.15625,"velocity":0.5511811023622047,"duration":0.15625},{"name":"D#5","midi":75,"time":110.3125,"velocity":0.5511811023622047,"duration":0.15625},{"name":"G#5","midi":80,"time":110.46875,"velocity":0.5511811023622047,"duration":0.3125},{"name":"F#5","midi":78,"time":110.78125,"velocity":0.5511811023622047,"duration":0.15625},{"name":"E5","midi":76,"time":110.9375,"velocity":0.5511811023622047,"duration":0.15625},{"name":"D#5","midi":75,"time":111.09375,"velocity":0.5511811023622047,"duration":0.15625},{"name":"E5","midi":76,"time":111.25,"velocity":0.5511811023622047,"duration":0.15625},{"name":"C#5","midi":73,"time":111.40625,"velocity":0.5511811023622047,"duration":0.15625},{"name":"C5","midi":72,"time":111.5625,"velocity":0.5511811023622047,"duration":0.15625},{"name":"C#5","midi":73,"time":111.71875,"velocity":0.5511811023622047,"duration":0.15625},{"name":"D#5","midi":75,"time":111.875,"velocity":0.5511811023622047,"duration":0.15625},{"name":"G#4","midi":68,"time":112.03125,"velocity":0.5511811023622047,"duration":0.15625},{"name":"G#5","midi":80,"time":112.1875,"velocity":0.5511811023622047,"duration":0.15625},{"name":"F#5","midi":78,"time":112.34375,"velocity":0.5511811023622047,"duration":0.15625},{"name":"E5","midi":76,"time":112.5,"velocity":0.5511811023622047,"duration":0.15625},{"name":"D#5","midi":75,"time":112.65625,"velocity":0.5511811023622047,"duration":0.15625},{"name":"E5","midi":76,"time":112.8125,"velocity":0.5511811023622047,"duration":0.15625},{"name":"G#4","midi":68,"time":112.96875,"velocity":0.5511811023622047,"duration":0.1510416666666714},{"name":"G4","midi":67,"time":113.07291666666667,"velocity":0.5511811023622047,"duration":0.0989583333333286},{"name":"G#4","midi":68,"time":113.125,"velocity":0.5511811023622047,"duration":0.0989583333333286},{"name":"G4","midi":67,"time":113.17708333333333,"velocity":0.5511811023622047,"duration":0.0989583333333286},{"name":"G#4","midi":68,"time":113.22916666666666,"velocity":0.5511811023622047,"duration":0.0989583333333286},{"name":"G4","midi":67,"time":113.28124999999999,"velocity":0.5511811023622047,"duration":0.1510416666666714},{"name":"G#4","midi":68,"time":113.43749999999999,"velocity":0.5511811023622047,"duration":1.40625},{"name":"F#4","midi":66,"time":114.84374999999999,"velocity":0.5511811023622047,"duration":0.625},{"name":"E4","midi":64,"time":115.46874999999999,"velocity":0.5511811023622047,"duration":0.15625},{"name":"F#4","midi":66,"time":115.62499999999999,"velocity":0.5511811023622047,"duration":0.15625},{"name":"D#4","midi":63,"time":115.78124999999999,"velocity":0.5511811023622047,"duration":0.15625},{"name":"G#4","midi":68,"time":115.93749999999999,"velocity":0.5511811023622047,"duration":0.15625},{"name":"F#4","midi":66,"time":116.09374999999999,"velocity":0.5511811023622047,"duration":0.15625},{"name":"F4","midi":65,"time":116.24999999999999,"velocity":0.5511811023622047,"duration":0.46875},{"name":"E4","midi":64,"time":116.71874999999999,"velocity":0.5511811023622047,"duration":0.625},{"name":"D#4","midi":63,"time":117.34374999999999,"velocity":0.5511811023622047,"duration":0.15625},{"name":"E4","midi":64,"time":117.49999999999999,"velocity":0.5511811023622047,"duration":0.15625},{"name":"C#4","midi":61,"time":117.65624999999999,"velocity":0.5511811023622047,"duration":0.15625},{"name":"F#4","midi":66,"time":117.81249999999999,"velocity":0.5511811023622047,"duration":0.15625},{"name":"E4","midi":64,"time":117.96874999999999,"velocity":0.5511811023622047,"duration":0.15625},{"name":"D#4","midi":63,"time":118.12499999999999,"velocity":0.5511811023622047,"duration":0.15625},{"name":"C#4","midi":61,"time":118.28124999999999,"velocity":0.5511811023622047,"duration":0.15625},{"name":"B3","midi":59,"time":118.43749999999999,"velocity":0.5511811023622047,"duration":0.15625},{"name":"E4","midi":64,"time":118.59374999999999,"velocity":0.5511811023622047,"duration":0.625},{"name":"D#4","midi":63,"time":119.21874999999999,"velocity":0.5511811023622047,"duration":0.15625},{"name":"C#4","midi":61,"time":119.37499999999999,"velocity":0.5511811023622047,"duration":0.15625},{"name":"D#4","midi":63,"time":119.53124999999999,"velocity":0.5511811023622047,"duration":0.15625},{"name":"F4","midi":65,"time":119.68749999999999,"velocity":0.5511811023622047,"duration":0.15625},{"name":"F#4","midi":66,"time":119.84374999999999,"velocity":0.5511811023622047,"duration":0.15625},{"name":"G#4","midi":68,"time":119.99999999999999,"velocity":0.5511811023622047,"duration":1.09375},{"name":"F#4","midi":66,"time":121.09374999999999,"velocity":0.5511811023622047,"duration":0.15625},{"name":"F4","midi":65,"time":121.24999999999999,"velocity":0.5511811023622047,"duration":0.15625},{"name":"F#4","midi":66,"time":121.40624999999999,"velocity":0.5511811023622047,"duration":0.15625},{"name":"A4","midi":69,"time":121.56249999999999,"velocity":0.5511811023622047,"duration":0.15625},{"name":"C#5","midi":73,"time":121.71874999999999,"velocity":0.5511811023622047,"duration":0.15625},{"name":"F#5","midi":78,"time":121.87499999999999,"velocity":0.5511811023622047,"duration":0.9375},{"name":"F5","midi":77,"time":122.81249999999999,"velocity":0.5511811023622047,"duration":0.46875},{"name":"E5","midi":76,"time":123.28124999999999,"velocity":0.5511811023622047,"duration":0.46875},{"name":"D#5","midi":75,"time":123.74999999999999,"velocity":0.5511811023622047,"duration":0.46875},{"name":"G#5","midi":80,"time":124.21874999999999,"velocity":0.5511811023622047,"duration":0.46875},{"name":"C#5","midi":73,"time":124.68749999999999,"velocity":0.5511811023622047,"duration":1.09375},{"name":"C5","midi":72,"time":125.78124999999999,"velocity":0.5511811023622047,"duration":0.15625},{"name":"A#4","midi":70,"time":125.93749999999999,"velocity":0.5511811023622047,"duration":0.15625},{"name":"C5","midi":72,"time":126.09374999999999,"velocity":0.5511811023622047,"duration":0.15625},{"name":"A#4","midi":70,"time":126.24999999999999,"velocity":0.5511811023622047,"duration":0.15625},{"name":"G#4","midi":68,"time":126.40624999999999,"velocity":0.5511811023622047,"duration":0.15625},{"name":"G#5","midi":80,"time":126.56249999999999,"velocity":0.5511811023622047,"duration":0.46875},{"name":"G5","midi":79,"time":127.03124999999999,"velocity":0.5511811023622047,"duration":0.46875},{"name":"F#5","midi":78,"time":127.49999999999999,"velocity":0.5511811023622047,"duration":0.46875},{"name":"F5","midi":77,"time":127.96874999999999,"velocity":0.5511811023622047,"duration":0.4687500000000142},{"name":"E5","midi":76,"time":128.4375,"velocity":0.5511811023622047,"duration":0.46875},{"name":"D#5","midi":75,"time":128.90625,"velocity":0.5511811023622047,"duration":0.3125},{"name":"C#5","midi":73,"time":129.21875,"velocity":0.5511811023622047,"duration":0.15625},{"name":"C5","midi":72,"time":129.375,"velocity":0.5511811023622047,"duration":0.3125},{"name":"G#4","midi":68,"time":129.6875,"velocity":0.5511811023622047,"duration":0.15625},{"name":"C#5","midi":73,"time":129.84375,"velocity":0.5511811023622047,"duration":0.9375},{"name":"C5","midi":72,"time":130.78125,"velocity":0.5511811023622047,"duration":0.46875},{"name":"C#5","midi":73,"time":131.25,"velocity":0.5511811023622047,"duration":0.46875}],"controlChanges":{"7":[{"number":7,"time":0,"value":0.7874015748031497}],"10":[{"number":10,"time":0,"value":0.6220472440944882}]},"id":1,"name":"BWV 873/2","instrumentNumber":6,"instrument":"harpsichord","instrumentFamily":"piano","channelNumber":0,"isPercussion":false},{"startTime":7.5,"duration":131.71875,"length":469,"notes":[{"name":"C#4","midi":61,"time":7.5,"velocity":0.5511811023622047,"duration":0.15625},{"name":"C4","midi":60,"time":7.65625,"velocity":0.5511811023622047,"duration":0.15625},{"name":"C#4","midi":61,"time":7.8125,"velocity":0.5511811023622047,"duration":0.15625},{"name":"D#4","midi":63,"time":7.96875,"velocity":0.5511811023622047,"duration":0.15625},{"name":"C#4","midi":61,"time":8.125,"velocity":0.5511811023622047,"duration":0.15625},{"name":"D#4","midi":63,"time":8.28125,"velocity":0.5511811023622047,"duration":0.15625},{"name":"G#3","midi":56,"time":8.4375,"velocity":0.5511811023622047,"duration":0.15625},{"name":"A#3","midi":58,"time":8.59375,"velocity":0.5511811023622047,"duration":0.15625},{"name":"C4","midi":60,"time":8.75,"velocity":0.5511811023622047,"duration":0.15625},{"name":"C#4","midi":61,"time":8.90625,"velocity":0.5511811023622047,"duration":0.15625},{"name":"D#4","midi":63,"time":9.0625,"velocity":0.5511811023622047,"duration":0.15625},{"name":"E4","midi":64,"time":9.21875,"velocity":0.5511811023622047,"duration":0.15625},{"name":"F#4","midi":66,"time":9.375,"velocity":0.5511811023622047,"duration":0.15625},{"name":"E4","midi":64,"time":9.53125,"velocity":0.5511811023622047,"duration":0.15625},{"name":"F#4","midi":66,"time":9.6875,"velocity":0.5511811023622047,"duration":0.15625},{"name":"D#4","midi":63,"time":9.84375,"velocity":0.5511811023622047,"duration":0.15625},{"name":"G#4","midi":68,"time":10,"velocity":0.5511811023622047,"duration":0.15625},{"name":"F#4","midi":66,"time":10.15625,"velocity":0.5511811023622047,"duration":0.15625},{"name":"E4","midi":64,"time":10.3125,"velocity":0.5511811023622047,"duration":0.15625},{"name":"D#4","midi":63,"time":10.46875,"velocity":0.5511811023622047,"duration":0.15625},{"name":"E4","midi":64,"time":10.625,"velocity":0.5511811023622047,"duration":0.15625},{"name":"C#4","midi":61,"time":10.78125,"velocity":0.5511811023622047,"duration":0.15625},{"name":"F#4","midi":66,"time":10.9375,"velocity":0.5511811023622047,"duration":0.15625},{"name":"E4","midi":64,"time":11.09375,"velocity":0.5511811023622047,"duration":0.15625},{"name":"D#4","midi":63,"time":11.25,"velocity":0.5511811023622047,"duration":0.15625},{"name":"C#4","midi":61,"time":11.40625,"velocity":0.5511811023622047,"duration":0.15625},{"name":"D#4","midi":63,"time":11.5625,"velocity":0.5511811023622047,"duration":0.15625},{"name":"B3","midi":59,"time":11.71875,"velocity":0.5511811023622047,"duration":0.15625},{"name":"E4","midi":64,"time":11.875,"velocity":0.5511811023622047,"duration":0.15625},{"name":"D#4","midi":63,"time":12.03125,"velocity":0.5511811023622047,"duration":0.15625},{"name":"C#4","midi":61,"time":12.1875,"velocity":0.5511811023622047,"duration":0.15625},{"name":"D#4","midi":63,"time":12.34375,"velocity":0.5511811023622047,"duration":0.15625},{"name":"E4","midi":64,"time":12.5,"velocity":0.5511811023622047,"duration":0.15625},{"name":"D#4","midi":63,"time":12.65625,"velocity":0.5511811023622047,"duration":0.15625},{"name":"E4","midi":64,"time":12.8125,"velocity":0.5511811023622047,"duration":0.15625},{"name":"C#4","midi":61,"time":12.96875,"velocity":0.5511811023622047,"duration":0.15625},{"name":"C4","midi":60,"time":13.125,"velocity":0.5511811023622047,"duration":1.40625},{"name":"C#4","midi":61,"time":14.53125,"velocity":0.5511811023622047,"duration":0.9375},{"name":"C4","midi":60,"time":15.46875,"velocity":0.5511811023622047,"duration":0.46875},{"name":"C#4","midi":61,"time":15.9375,"velocity":0.5511811023622047,"duration":1.40625},{"name":"B3","midi":59,"time":17.34375,"velocity":0.5511811023622047,"duration":0.9375},{"name":"A3","midi":57,"time":18.28125,"velocity":0.5511811023622047,"duration":0.15625},{"name":"G#3","midi":56,"time":18.4375,"velocity":0.5511811023622047,"duration":0.15625},{"name":"F#3","midi":54,"time":18.59375,"velocity":0.5511811023622047,"duration":0.15625},{"name":"G#3","midi":56,"time":18.75,"velocity":0.5511811023622047,"duration":0.9375},{"name":"F#3","midi":54,"time":19.6875,"velocity":0.5511811023622047,"duration":0.9375},{"name":"E3","midi":52,"time":20.625,"velocity":0.5511811023622047,"duration":0.15625},{"name":"D#3","midi":51,"time":20.78125,"velocity":0.5511811023622047,"duration":0.15625},{"name":"E3","midi":52,"time":20.9375,"velocity":0.5511811023622047,"duration":0.15625},{"name":"C#3","midi":49,"time":21.09375,"velocity":0.5511811023622047,"duration":0.15625},{"name":"F#3","midi":54,"time":21.25,"velocity":0.5511811023622047,"duration":0.15625},{"name":"E3","midi":52,"time":21.40625,"velocity":0.5511811023622047,"duration":0.15625},{"name":"D#3","midi":51,"time":21.5625,"velocity":0.5511811023622047,"duration":0.15625},{"name":"C#3","midi":49,"time":21.71875,"velocity":0.5511811023622047,"duration":0.15625},{"name":"B2","midi":47,"time":21.875,"velocity":0.5511811023622047,"duration":0.15625},{"name":"E3","midi":52,"time":22.03125,"velocity":0.5511811023622047,"duration":0.9375},{"name":"D#3","midi":51,"time":22.96875,"velocity":0.5511811023622047,"duration":0.46875},{"name":"E3","midi":52,"time":23.4375,"velocity":0.5511811023622047,"duration":0.46875},{"name":"F#3","midi":54,"time":23.90625,"velocity":0.5511811023622047,"duration":0.46875},{"name":"G#3","midi":56,"time":24.375,"velocity":0.5511811023622047,"duration":0.46875},{"name":"A#3","midi":58,"time":24.84375,"velocity":0.5511811023622047,"duration":0.46875},{"name":"B3","midi":59,"time":25.3125,"velocity":0.5511811023622047,"duration":1.09375},{"name":"A3","midi":57,"time":26.40625,"velocity":0.5511811023622047,"duration":0.15625},{"name":"B3","midi":59,"time":26.5625,"velocity":0.5511811023622047,"duration":0.15625},{"name":"C#4","midi":61,"time":26.71875,"velocity":0.5511811023622047,"duration":0.15625},{"name":"D#4","midi":63,"time":26.875,"velocity":0.5511811023622047,"duration":0.15625},{"name":"E4","midi":64,"time":27.03125,"velocity":0.5511811023622047,"duration":0.15625},{"name":"F#4","midi":66,"time":27.1875,"velocity":0.5511811023622047,"duration":0.15625},{"name":"E4","midi":64,"time":27.34375,"velocity":0.5511811023622047,"duration":0.15625},{"name":"F#4","midi":66,"time":27.5,"velocity":0.5511811023622047,"duration":0.15625},{"name":"D#4","midi":63,"time":27.65625,"velocity":0.5511811023622047,"duration":0.15625},{"name":"G#4","midi":68,"time":27.8125,"velocity":0.5511811023622047,"duration":0.15625},{"name":"F#4","midi":66,"time":27.96875,"velocity":0.5511811023622047,"duration":0.15625},{"name":"E4","midi":64,"time":28.125,"velocity":0.5511811023622047,"duration":0.46875},{"name":"G#4","midi":68,"time":30.9375,"velocity":0.5511811023622047,"duration":0.15625},{"name":"G4","midi":67,"time":31.09375,"velocity":0.5511811023622047,"duration":0.15625},{"name":"G#4","midi":68,"time":31.25,"velocity":0.5511811023622047,"duration":0.15625},{"name":"A#4","midi":70,"time":31.40625,"velocity":0.5511811023622047,"duration":0.15625},{"name":"G#4","midi":68,"time":31.5625,"velocity":0.5511811023622047,"duration":0.15625},{"name":"A#4","midi":70,"time":31.71875,"velocity":0.5511811023622047,"duration":0.15625},{"name":"D#4","midi":63,"time":31.875,"velocity":0.5511811023622047,"duration":0.15625},{"name":"F4","midi":65,"time":32.03125,"velocity":0.5511811023622047,"duration":0.15625},{"name":"G4","midi":67,"time":32.1875,"velocity":0.5511811023622047,"duration":0.15625},{"name":"G#4","midi":68,"time":32.34375,"velocity":0.5511811023622047,"duration":0.15625},{"name":"A#4","midi":70,"time":32.5,"velocity":0.5511811023622047,"duration":0.15625},{"name":"B4","midi":71,"time":32.65625,"velocity":0.5511811023622047,"duration":0.15625},{"name":"C#5","midi":73,"time":32.8125,"velocity":0.5511811023622047,"duration":0.15625},{"name":"B4","midi":71,"time":32.96875,"velocity":0.5511811023622047,"duration":0.15625},{"name":"C#5","midi":73,"time":33.125,"velocity":0.5511811023622047,"duration":0.15625},{"name":"A#4","midi":70,"time":33.28125,"velocity":0.5511811023622047,"duration":0.15625},{"name":"D#5","midi":75,"time":33.4375,"velocity":0.5511811023622047,"duration":0.15625},{"name":"C#5","midi":73,"time":33.59375,"velocity":0.5511811023622047,"duration":0.15625},{"name":"B4","midi":71,"time":33.75,"velocity":0.5511811023622047,"duration":0.15625},{"name":"A#4","midi":70,"time":33.90625,"velocity":0.5511811023622047,"duration":0.15625},{"name":"B4","midi":71,"time":34.0625,"velocity":0.5511811023622047,"duration":0.15625},{"name":"G#4","midi":68,"time":34.21875,"velocity":0.5511811023622047,"duration":0.15625},{"name":"C#5","midi":73,"time":34.375,"velocity":0.5511811023622047,"duration":0.15625},{"name":"B4","midi":71,"time":34.53125,"velocity":0.5511811023622047,"duration":0.15625},{"name":"A4","midi":69,"time":34.6875,"velocity":0.5511811023622047,"duration":0.15625},{"name":"G#4","midi":68,"time":34.84375,"velocity":0.5511811023622047,"duration":0.15625},{"name":"A4","midi":69,"time":35,"velocity":0.5511811023622047,"duration":0.15625},{"name":"F#4","midi":66,"time":35.15625,"velocity":0.5511811023622047,"duration":0.15625},{"name":"B4","midi":71,"time":35.3125,"velocity":0.5511811023622047,"duration":0.15625},{"name":"A4","midi":69,"time":35.46875,"velocity":0.5511811023622047,"duration":0.15625},{"name":"G#4","midi":68,"time":35.625,"velocity":0.5511811023622047,"duration":0.15625},{"name":"F#4","midi":66,"time":35.78125,"velocity":0.5511811023622047,"duration":0.15625},{"name":"G#4","midi":68,"time":35.9375,"velocity":0.5511811023622047,"duration":0.15625},{"name":"A#4","midi":70,"time":36.09375,"velocity":0.5511811023622047,"duration":0.15625},{"name":"G#4","midi":68,"time":36.25,"velocity":0.5511811023622047,"duration":0.15625},{"name":"A#4","midi":70,"time":36.40625,"velocity":0.5511811023622047,"duration":0.15625},{"name":"B4","midi":71,"time":36.5625,"velocity":0.5511811023622047,"duration":1.40625},{"name":"A4","midi":69,"time":37.96875,"velocity":0.5511811023622047,"duration":0.9375},{"name":"G#4","midi":68,"time":38.90625,"velocity":0.5511811023622047,"duration":0.9375},{"name":"F#4","midi":66,"time":39.84375,"velocity":0.5511811023622047,"duration":0.9375},{"name":"E4","midi":64,"time":40.78125,"velocity":0.5511811023622047,"duration":0.46875},{"name":"D#4","midi":63,"time":41.25,"velocity":0.5511811023622047,"duration":0.46875},{"name":"G#4","midi":68,"time":41.71875,"velocity":0.5511811023622047,"duration":0.46875},{"name":"F#4","midi":66,"time":42.1875,"velocity":0.5511811023622047,"duration":0.46875},{"name":"B4","midi":71,"time":42.65625,"velocity":0.5511811023622047,"duration":0.78125},{"name":"A4","midi":69,"time":43.4375,"velocity":0.5511811023622047,"duration":0.46875},{"name":"G#4","midi":68,"time":43.90625,"velocity":0.5511811023622047,"duration":0.15625},{"name":"F#4","midi":66,"time":44.0625,"velocity":0.5511811023622047,"duration":0.46875},{"name":"B4","midi":71,"time":44.53125,"velocity":0.5511811023622047,"duration":0.78125},{"name":"A#4","midi":70,"time":45.3125,"velocity":0.5511811023622047,"duration":0.15625},{"name":"G#4","midi":68,"time":45.46875,"velocity":0.5511811023622047,"duration":0.3125},{"name":"G4","midi":67,"time":45.78125,"velocity":0.5511811023622047,"duration":0.15625},{"name":"F#4","midi":66,"time":45.9375,"velocity":0.5511811023622047,"duration":0.3125},{"name":"C4","midi":60,"time":46.25,"velocity":0.5511811023622047,"duration":0.15625},{"name":"C#4","midi":61,"time":46.40625,"velocity":0.5511811023622047,"duration":0.3125},{"name":"C#5","midi":73,"time":46.875,"velocity":0.5511811023622047,"duration":0.15625},{"name":"D#5","midi":75,"time":47.03125,"velocity":0.5511811023622047,"duration":0.15625},{"name":"C#5","midi":73,"time":47.1875,"velocity":0.5511811023622047,"duration":0.15625},{"name":"B4","midi":71,"time":47.34375,"velocity":0.5511811023622047,"duration":0.15625},{"name":"C#5","midi":73,"time":47.5,"velocity":0.5511811023622047,"duration":0.15625},{"name":"B4","midi":71,"time":47.65625,"velocity":0.5511811023622047,"duration":0.15625},{"name":"F#5","midi":78,"time":47.8125,"velocity":0.5511811023622047,"duration":0.15625},{"name":"E5","midi":76,"time":47.96875,"velocity":0.5511811023622047,"duration":0.15625},{"name":"D5","midi":74,"time":48.125,"velocity":0.5511811023622047,"duration":0.15625},{"name":"C#5","midi":73,"time":48.28125,"velocity":0.5511811023622047,"duration":0.15625},{"name":"B4","midi":71,"time":48.4375,"velocity":0.5511811023622047,"duration":0.15625},{"name":"A4","midi":69,"time":48.59375,"velocity":0.5511811023622047,"duration":0.15625},{"name":"G#4","midi":68,"time":48.75,"velocity":0.5511811023622047,"duration":0.15625},{"name":"A4","midi":69,"time":48.90625,"velocity":0.5511811023622047,"duration":0.15625},{"name":"G#4","midi":68,"time":49.0625,"velocity":0.5511811023622047,"duration":0.15625},{"name":"B4","midi":71,"time":49.21875,"velocity":0.5511811023622047,"duration":0.15625},{"name":"F#4","midi":66,"time":49.375,"velocity":0.5511811023622047,"duration":0.15625},{"name":"G#4","midi":68,"time":49.53125,"velocity":0.5511811023622047,"duration":0.15625},{"name":"A4","midi":69,"time":49.6875,"velocity":0.5511811023622047,"duration":0.15625},{"name":"B4","midi":71,"time":49.84375,"velocity":0.5511811023622047,"duration":0.15625},{"name":"A4","midi":69,"time":50,"velocity":0.5511811023622047,"duration":0.15625},{"name":"C#5","midi":73,"time":50.15625,"velocity":0.5511811023622047,"duration":0.15625},{"name":"G#4","midi":68,"time":50.3125,"velocity":0.5511811023622047,"duration":0.15625},{"name":"A#4","midi":70,"time":50.46875,"velocity":0.5511811023622047,"duration":0.15625},{"name":"B4","midi":71,"time":50.625,"velocity":0.5511811023622047,"duration":0.78125},{"name":"A4","midi":69,"time":51.40625,"velocity":0.5511811023622047,"duration":0.15625},{"name":"G#4","midi":68,"time":51.5625,"velocity":0.5511811023622047,"duration":0.3125},{"name":"C5","midi":72,"time":51.875,"velocity":0.5511811023622047,"duration":0.15625},{"name":"C#5","midi":73,"time":52.03125,"velocity":0.5511811023622047,"duration":0.46875},{"name":"F#4","midi":66,"time":52.5,"velocity":0.5511811023622047,"duration":0.625},{"name":"E4","midi":64,"time":53.125,"velocity":0.5511811023622047,"duration":0.15625},{"name":"F#4","midi":66,"time":53.28125,"velocity":0.5511811023622047,"duration":0.15625},{"name":"G#4","midi":68,"time":53.4375,"velocity":0.5511811023622047,"duration":0.625},{"name":"F#4","midi":66,"time":54.0625,"velocity":0.5511811023622047,"duration":0.15625},{"name":"G#4","midi":68,"time":54.21875,"velocity":0.5511811023622047,"duration":0.15625},{"name":"C#4","midi":61,"time":54.375,"velocity":0.5511811023622047,"duration":0.15625},{"name":"C4","midi":60,"time":54.53125,"velocity":0.5511811023622047,"duration":0.15625},{"name":"C#4","midi":61,"time":54.6875,"velocity":0.5511811023622047,"duration":0.15625},{"name":"D#4","midi":63,"time":54.84375,"velocity":0.5511811023622047,"duration":0.15625},{"name":"C#4","midi":61,"time":55,"velocity":0.5511811023622047,"duration":0.15625},{"name":"D#4","midi":63,"time":55.15625,"velocity":0.5511811023622047,"duration":0.15625},{"name":"G#3","midi":56,"time":55.3125,"velocity":0.5511811023622047,"duration":0.15625},{"name":"A#3","midi":58,"time":55.46875,"velocity":0.5511811023622047,"duration":0.15625},{"name":"C4","midi":60,"time":55.625,"velocity":0.5511811023622047,"duration":0.15625},{"name":"C#4","midi":61,"time":55.78125,"velocity":0.5511811023622047,"duration":0.15625},{"name":"D#4","midi":63,"time":55.9375,"velocity":0.5511811023622047,"duration":0.15625},{"name":"E4","midi":64,"time":56.09375,"velocity":0.5511811023622047,"duration":0.15625},{"name":"F#4","midi":66,"time":56.25,"velocity":0.5511811023622047,"duration":0.15625},{"name":"E4","midi":64,"time":56.40625,"velocity":0.5511811023622047,"duration":0.15625},{"name":"F#4","midi":66,"time":56.5625,"velocity":0.5511811023622047,"duration":0.15625},{"name":"D#4","midi":63,"time":56.71875,"velocity":0.5511811023622047,"duration":0.15625},{"name":"G#4","midi":68,"time":56.875,"velocity":0.5511811023622047,"duration":0.15625},{"name":"F#4","midi":66,"time":57.03125,"velocity":0.5511811023622047,"duration":0.15625},{"name":"E4","midi":64,"time":57.1875,"velocity":0.5511811023622047,"duration":0.15625},{"name":"D#4","midi":63,"time":57.34375,"velocity":0.5511811023622047,"duration":0.15625},{"name":"E4","midi":64,"time":57.5,"velocity":0.5511811023622047,"duration":0.15625},{"name":"C#4","midi":61,"time":57.65625,"velocity":0.5511811023622047,"duration":0.15625},{"name":"F#4","midi":66,"time":57.8125,"velocity":0.5511811023622047,"duration":0.15625},{"name":"E4","midi":64,"time":57.96875,"velocity":0.5511811023622047,"duration":0.15625},{"name":"D#4","midi":63,"time":58.125,"velocity":0.5511811023622047,"duration":0.15625},{"name":"C#4","midi":61,"time":58.28125,"velocity":0.5511811023622047,"duration":0.15625},{"name":"D#4","midi":63,"time":58.4375,"velocity":0.5511811023622047,"duration":0.15625},{"name":"B3","midi":59,"time":58.59375,"velocity":0.5511811023622047,"duration":0.15625},{"name":"E4","midi":64,"time":58.75,"velocity":0.5511811023622047,"duration":0.15625},{"name":"D#4","midi":63,"time":58.90625,"velocity":0.5511811023622047,"duration":0.15625},{"name":"C#4","midi":61,"time":59.0625,"velocity":0.5511811023622047,"duration":0.15625},{"name":"D#4","midi":63,"time":59.21875,"velocity":0.5511811023622047,"duration":0.15625},{"name":"E4","midi":64,"time":59.375,"velocity":0.5511811023622047,"duration":0.15625},{"name":"D#4","midi":63,"time":59.53125,"velocity":0.5511811023622047,"duration":0.15625},{"name":"E4","midi":64,"time":59.6875,"velocity":0.5511811023622047,"duration":0.15625},{"name":"C#4","midi":61,"time":59.84375,"velocity":0.5511811023622047,"duration":0.15625},{"name":"C4","midi":60,"time":60,"velocity":0.5511811023622047,"duration":0.46875},{"name":"C#4","midi":61,"time":60.46875,"velocity":0.5511811023622047,"duration":0.46875},{"name":"D#4","midi":63,"time":60.9375,"velocity":0.5511811023622047,"duration":0.46875},{"name":"C4","midi":60,"time":61.40625,"velocity":0.5511811023622047,"duration":0.46875},{"name":"C#4","midi":61,"time":61.875,"velocity":0.5511811023622047,"duration":0.15625},{"name":"G#3","midi":56,"time":62.03125,"velocity":0.5511811023622047,"duration":0.15625},{"name":"C#4","midi":61,"time":62.1875,"velocity":0.5511811023622047,"duration":0.3125},{"name":"B3","midi":59,"time":62.5,"velocity":0.5511811023622047,"duration":0.15625},{"name":"A3","midi":57,"time":62.65625,"velocity":0.5511811023622047,"duration":0.15625},{"name":"G#3","midi":56,"time":62.8125,"velocity":0.5511811023622047,"duration":0.15625},{"name":"B3","midi":59,"time":62.96875,"velocity":0.5511811023622047,"duration":0.15625},{"name":"D4","midi":62,"time":63.125,"velocity":0.5511811023622047,"duration":0.3125},{"name":"C#4","midi":61,"time":63.4375,"velocity":0.5511811023622047,"duration":0.15625},{"name":"B3","midi":59,"time":63.59375,"velocity":0.5511811023622047,"duration":0.15625},{"name":"A3","midi":57,"time":63.75,"velocity":0.5511811023622047,"duration":0.15625},{"name":"B3","midi":59,"time":63.90625,"velocity":0.5511811023622047,"duration":0.15625},{"name":"C#4","midi":61,"time":64.0625,"velocity":0.5511811023622047,"duration":0.3125},{"name":"F#3","midi":54,"time":64.375,"velocity":0.5511811023622047,"duration":0.15625},{"name":"B3","midi":59,"time":64.53125,"velocity":0.5511811023622047,"duration":0.3125},{"name":"A#3","midi":58,"time":64.84375,"velocity":0.5511811023622047,"duration":0.15625},{"name":"G#3","midi":56,"time":65,"velocity":0.5511811023622047,"duration":0.15625},{"name":"A#3","midi":58,"time":65.15625,"velocity":0.5511811023622047,"duration":0.46875},{"name":"B3","midi":59,"time":65.625,"velocity":0.5511811023622047,"duration":0.46875},{"name":"B4","midi":71,"time":66.09375,"velocity":0.5511811023622047,"duration":0.46875},{"name":"A#4","midi":70,"time":66.5625,"velocity":0.5511811023622047,"duration":0.46875},{"name":"A4","midi":69,"time":67.03125,"velocity":0.5511811023622047,"duration":0.46875},{"name":"G#4","midi":68,"time":67.5,"velocity":0.5511811023622047,"duration":0.3697916666666714},{"name":"C#5","midi":73,"time":67.96875,"velocity":0.5511811023622047,"duration":0.625},{"name":"B4","midi":71,"time":68.59375,"velocity":0.5511811023622047,"duration":0.15625},{"name":"A#4","midi":70,"time":68.75,"velocity":0.5511811023622047,"duration":0.15625},{"name":"B4","midi":71,"time":68.90625,"velocity":0.5511811023622047,"duration":0.15625},{"name":"C#5","midi":73,"time":69.0625,"velocity":0.5511811023622047,"duration":0.15625},{"name":"B4","midi":71,"time":69.21875,"velocity":0.5511811023622047,"duration":0.15625},{"name":"A#4","midi":70,"time":69.375,"velocity":0.5511811023622047,"duration":0.15625},{"name":"B4","midi":71,"time":69.53125,"velocity":0.5511811023622047,"duration":0.15625},{"name":"C#5","midi":73,"time":69.6875,"velocity":0.5511811023622047,"duration":0.15625},{"name":"B4","midi":71,"time":69.84375,"velocity":0.5511811023622047,"duration":0.15625},{"name":"C#5","midi":73,"time":70,"velocity":0.5511811023622047,"duration":0.15625},{"name":"A#4","midi":70,"time":70.15625,"velocity":0.5511811023622047,"duration":0.15625},{"name":"G#4","midi":68,"time":70.3125,"velocity":0.5511811023622047,"duration":0.9375},{"name":"G4","midi":67,"time":71.25,"velocity":0.5511811023622047,"duration":0.46875},{"name":"G#4","midi":68,"time":71.71875,"velocity":0.5511811023622047,"duration":0.9375},{"name":"G4","midi":67,"time":72.65625,"velocity":0.5511811023622047,"duration":0.46875},{"name":"G#4","midi":68,"time":73.125,"velocity":0.5511811023622047,"duration":1.40625},{"name":"F#4","midi":66,"time":74.53125,"velocity":0.5511811023622047,"duration":0.9375},{"name":"E4","midi":64,"time":75.46875,"velocity":0.5511811023622047,"duration":0.15625},{"name":"D#4","midi":63,"time":75.625,"velocity":0.5511811023622047,"duration":0.15625},{"name":"C#4","midi":61,"time":75.78125,"velocity":0.5511811023622047,"duration":0.15625},{"name":"D#4","midi":63,"time":75.9375,"velocity":0.5511811023622047,"duration":0.9375},{"name":"C#4","midi":61,"time":76.875,"velocity":0.5511811023622047,"duration":0.9375},{"name":"B3","midi":59,"time":77.8125,"velocity":0.5511811023622047,"duration":0.15625},{"name":"A#3","midi":58,"time":77.96875,"velocity":0.5511811023622047,"duration":0.15625},{"name":"B3","midi":59,"time":78.125,"velocity":0.5511811023622047,"duration":0.15625},{"name":"G#3","midi":56,"time":78.28125,"velocity":0.5511811023622047,"duration":0.15625},{"name":"C#4","midi":61,"time":78.4375,"velocity":0.5511811023622047,"duration":0.15625},{"name":"B3","midi":59,"time":78.59375,"velocity":0.5511811023622047,"duration":0.15625},{"name":"A#3","midi":58,"time":78.75,"velocity":0.5511811023622047,"duration":0.15625},{"name":"G#3","midi":56,"time":78.90625,"velocity":0.5511811023622047,"duration":0.15625},{"name":"F#3","midi":54,"time":79.0625,"velocity":0.5511811023622047,"duration":0.15625},{"name":"B3","midi":59,"time":79.21875,"velocity":0.5511811023622047,"duration":0.9375},{"name":"A#3","midi":58,"time":80.15625,"velocity":0.5511811023622047,"duration":0.46875},{"name":"B3","midi":59,"time":80.625,"velocity":0.5511811023622047,"duration":0.46875},{"name":"C#4","midi":61,"time":81.09375,"velocity":0.5511811023622047,"duration":0.46875},{"name":"D#4","midi":63,"time":81.5625,"velocity":0.5511811023622047,"duration":0.46875},{"name":"F4","midi":65,"time":82.03125,"velocity":0.5511811023622047,"duration":0.46875},{"name":"F#4","midi":66,"time":82.5,"velocity":0.5511811023622047,"duration":0.15625},{"name":"C#4","midi":61,"time":82.65625,"velocity":0.5511811023622047,"duration":0.15625},{"name":"F#4","midi":66,"time":82.8125,"velocity":0.5511811023622047,"duration":0.3125},{"name":"E4","midi":64,"time":83.125,"velocity":0.5511811023622047,"duration":0.15625},{"name":"D4","midi":62,"time":83.28125,"velocity":0.5511811023622047,"duration":0.15625},{"name":"C#4","midi":61,"time":83.4375,"velocity":0.5511811023622047,"duration":0.15625},{"name":"C5","midi":72,"time":83.59375,"velocity":0.5511811023622047,"duration":0.15625},{"name":"C#5","midi":73,"time":83.75,"velocity":0.5511811023622047,"duration":0.15625},{"name":"D#5","midi":75,"time":83.90625,"velocity":0.5511811023622047,"duration":0.15625},{"name":"G#4","midi":68,"time":84.0625,"velocity":0.5511811023622047,"duration":0.15625},{"name":"F#4","midi":66,"time":84.21875,"velocity":0.5511811023622047,"duration":0.15625},{"name":"E4","midi":64,"time":84.375,"velocity":0.5511811023622047,"duration":0.3125},{"name":"G#3","midi":56,"time":84.6875,"velocity":0.5511811023622047,"duration":0.15625},{"name":"C#4","midi":61,"time":84.84375,"velocity":0.5511811023622047,"duration":0.625},{"name":"B3","midi":59,"time":85.46875,"velocity":0.5511811023622047,"duration":0.15625},{"name":"C#4","midi":61,"time":85.625,"velocity":0.5511811023622047,"duration":0.15625},{"name":"D#4","midi":63,"time":85.78125,"velocity":0.5511811023622047,"duration":0.15625},{"name":"E4","midi":64,"time":85.9375,"velocity":0.5511811023622047,"duration":0.15625},{"name":"F#4","midi":66,"time":86.09375,"velocity":0.5511811023622047,"duration":0.15625},{"name":"E4","midi":64,"time":86.25,"velocity":0.5511811023622047,"duration":0.15625},{"name":"F4","midi":65,"time":87.34375,"velocity":0.5511811023622047,"duration":0.15625},{"name":"F#4","midi":66,"time":87.5,"velocity":0.5511811023622047,"duration":0.15625},{"name":"G#4","midi":68,"time":87.65625,"velocity":0.5511811023622047,"duration":0.15625},{"name":"C#4","midi":61,"time":87.8125,"velocity":0.5511811023622047,"duration":0.15625},{"name":"B3","midi":59,"time":87.96875,"velocity":0.5511811023622047,"duration":0.15625},{"name":"A3","midi":57,"time":88.125,"velocity":0.5511811023622047,"duration":0.3125},{"name":"A4","midi":69,"time":88.4375,"velocity":0.5511811023622047,"duration":0.15625},{"name":"C4","midi":60,"time":88.59375,"velocity":0.5511811023622047,"duration":0.46875},{"name":"C#4","midi":61,"time":89.0625,"velocity":0.5511811023622047,"duration":1.40625},{"name":"C4","midi":60,"time":90.46875,"velocity":0.5511811023622047,"duration":0.46875},{"name":"C#4","midi":61,"time":90.9375,"velocity":0.5511811023622047,"duration":0.15625},{"name":"E4","midi":64,"time":91.09375,"velocity":0.5511811023622047,"duration":0.15625},{"name":"A4","midi":69,"time":91.25,"velocity":0.5511811023622047,"duration":0.3125},{"name":"G4","midi":67,"time":91.5625,"velocity":0.5511811023622047,"duration":0.15625},{"name":"G#4","midi":68,"time":91.71875,"velocity":0.5511811023622047,"duration":0.3125},{"name":"F#4","midi":66,"time":92.03125,"velocity":0.5511811023622047,"duration":0.15625},{"name":"F4","midi":65,"time":92.1875,"velocity":0.5511811023622047,"duration":0.15625},{"name":"F#4","midi":66,"time":92.34375,"velocity":0.5511811023622047,"duration":0.625},{"name":"D#4","midi":63,"time":92.96875,"velocity":0.5511811023622047,"duration":0.15625},{"name":"G#4","midi":68,"time":93.125,"velocity":0.5511811023622047,"duration":0.3125},{"name":"F4","midi":65,"time":93.4375,"velocity":0.5511811023622047,"duration":0.15625},{"name":"F#4","midi":66,"time":93.59375,"velocity":0.5511811023622047,"duration":0.3125},{"name":"E4","midi":64,"time":93.90625,"velocity":0.5511811023622047,"duration":0.15625},{"name":"D#4","midi":63,"time":94.0625,"velocity":0.5511811023622047,"duration":0.15625},{"name":"E4","midi":64,"time":94.21875,"velocity":0.5511811023622047,"duration":0.9375},{"name":"D#4","midi":63,"time":95.15625,"velocity":0.5511811023622047,"duration":0.46875},{"name":"D4","midi":62,"time":95.625,"velocity":0.5511811023622047,"duration":0.46875},{"name":"C#4","midi":61,"time":96.09375,"velocity":0.5511811023622047,"duration":0.46875},{"name":"C4","midi":60,"time":96.5625,"velocity":0.5511811023622047,"duration":0.46875},{"name":"B3","midi":59,"time":97.03125,"velocity":0.5511811023622047,"duration":0.46875},{"name":"C#4","midi":61,"time":97.5,"velocity":0.5511811023622047,"duration":0.15625},{"name":"D4","midi":62,"time":97.65625,"velocity":0.5511811023622047,"duration":0.15625},{"name":"C#4","midi":61,"time":97.8125,"velocity":0.5511811023622047,"duration":0.15625},{"name":"B3","midi":59,"time":97.96875,"velocity":0.5511811023622047,"duration":0.15625},{"name":"C#4","midi":61,"time":98.125,"velocity":0.5511811023622047,"duration":0.15625},{"name":"B3","midi":59,"time":98.28125,"velocity":0.5511811023622047,"duration":0.15625},{"name":"E4","midi":64,"time":98.4375,"velocity":0.5511811023622047,"duration":0.15625},{"name":"D4","midi":62,"time":98.59375,"velocity":0.5511811023622047,"duration":0.15625},{"name":"C#4","midi":61,"time":98.75,"velocity":0.5511811023622047,"duration":0.15625},{"name":"B3","midi":59,"time":98.90625,"velocity":0.5511811023622047,"duration":0.15625},{"name":"A3","midi":57,"time":99.0625,"velocity":0.5511811023622047,"duration":0.15625},{"name":"G#3","midi":56,"time":99.21875,"velocity":0.5511811023622047,"duration":0.15625},{"name":"F#3","midi":54,"time":99.375,"velocity":0.5511811023622047,"duration":0.15625},{"name":"A3","midi":57,"time":99.53125,"velocity":0.5511811023622047,"duration":0.15625},{"name":"G#3","midi":56,"time":99.6875,"velocity":0.5511811023622047,"duration":0.15625},{"name":"A3","midi":57,"time":99.84375,"velocity":0.5511811023622047,"duration":0.15625},{"name":"E3","midi":52,"time":100,"velocity":0.5511811023622047,"duration":0.15625},{"name":"F#3","midi":54,"time":100.15625,"velocity":0.5511811023622047,"duration":0.15625},{"name":"G#3","midi":56,"time":100.3125,"velocity":0.5511811023622047,"duration":0.15625},{"name":"A3","midi":57,"time":100.46875,"velocity":0.5511811023622047,"duration":0.15625},{"name":"G#3","midi":56,"time":100.625,"velocity":0.5511811023622047,"duration":0.15625},{"name":"B3","midi":59,"time":100.78125,"velocity":0.5511811023622047,"duration":0.15625},{"name":"F#3","midi":54,"time":100.9375,"velocity":0.5511811023622047,"duration":0.15625},{"name":"G#3","midi":56,"time":101.09375,"velocity":0.5511811023622047,"duration":0.15625},{"name":"A3","midi":57,"time":101.25,"velocity":0.5511811023622047,"duration":0.46875},{"name":"A4","midi":69,"time":101.71875,"velocity":0.5511811023622047,"duration":0.625},{"name":"G#4","midi":68,"time":102.34375,"velocity":0.5511811023622047,"duration":0.15625},{"name":"F#4","midi":66,"time":102.5,"velocity":0.5511811023622047,"duration":0.15625},{"name":"F4","midi":65,"time":102.65625,"velocity":0.5511811023622047,"duration":0.15625},{"name":"F#4","midi":66,"time":102.8125,"velocity":0.5511811023622047,"duration":0.15625},{"name":"G#4","midi":68,"time":102.96875,"velocity":0.5511811023622047,"duration":0.15625},{"name":"C#4","midi":61,"time":103.125,"velocity":0.5511811023622047,"duration":0.46875},{"name":"C4","midi":60,"time":103.59375,"velocity":0.5511811023622047,"duration":0.46875},{"name":"G#4","midi":68,"time":104.0625,"velocity":0.5511811023622047,"duration":0.15625},{"name":"F#4","midi":66,"time":104.21875,"velocity":0.5511811023622047,"duration":0.15625},{"name":"G#4","midi":68,"time":104.375,"velocity":0.5511811023622047,"duration":0.15625},{"name":"E4","midi":64,"time":104.53125,"velocity":0.5511811023622047,"duration":0.15625},{"name":"A4","midi":69,"time":104.6875,"velocity":0.5511811023622047,"duration":0.15625},{"name":"G#4","midi":68,"time":104.84375,"velocity":0.5511811023622047,"duration":0.15625},{"name":"F#4","midi":66,"time":105,"velocity":0.5511811023622047,"duration":0.15625},{"name":"E4","midi":64,"time":105.15625,"velocity":0.5511811023622047,"duration":0.15625},{"name":"F#4","midi":66,"time":105.3125,"velocity":0.5511811023622047,"duration":0.15625},{"name":"D#4","midi":63,"time":105.46875,"velocity":0.5511811023622047,"duration":0.15625},{"name":"G#4","midi":68,"time":105.625,"velocity":0.5511811023622047,"duration":0.15625},{"name":"F#4","midi":66,"time":105.78125,"velocity":0.5511811023622047,"duration":0.15625},{"name":"E4","midi":64,"time":105.9375,"velocity":0.5511811023622047,"duration":0.15625},{"name":"D#4","midi":63,"time":106.09375,"velocity":0.5511811023622047,"duration":0.15625},{"name":"E4","midi":64,"time":106.25,"velocity":0.5511811023622047,"duration":0.15625},{"name":"C#4","midi":61,"time":106.40625,"velocity":0.5511811023622047,"duration":0.15625},{"name":"F#4","midi":66,"time":106.5625,"velocity":0.5511811023622047,"duration":0.15625},{"name":"E4","midi":64,"time":106.71875,"velocity":0.5511811023622047,"duration":0.15625},{"name":"D#4","midi":63,"time":106.875,"velocity":0.5511811023622047,"duration":0.15625},{"name":"C#4","midi":61,"time":107.03125,"velocity":0.5511811023622047,"duration":0.15625},{"name":"D#4","midi":63,"time":107.1875,"velocity":0.5511811023622047,"duration":0.15625},{"name":"B3","midi":59,"time":107.34375,"velocity":0.5511811023622047,"duration":0.15625},{"name":"E4","midi":64,"time":107.5,"velocity":0.5511811023622047,"duration":0.15625},{"name":"D#4","midi":63,"time":107.65625,"velocity":0.5511811023622047,"duration":0.15625},{"name":"C#4","midi":61,"time":107.8125,"velocity":0.5511811023622047,"duration":0.625},{"name":"C4","midi":60,"time":108.4375,"velocity":0.5511811023622047,"duration":0.15625},{"name":"A#3","midi":58,"time":108.59375,"velocity":0.5511811023622047,"duration":0.15625},{"name":"C4","midi":60,"time":108.75,"velocity":0.5511811023622047,"duration":0.46875},{"name":"C#4","midi":61,"time":109.21875,"velocity":0.5511811023622047,"duration":0.390625},{"name":"D#4","midi":63,"time":109.6875,"velocity":0.5511811023622047,"duration":0.359375},{"name":"F#4","midi":66,"time":110.15625,"velocity":0.5511811023622047,"duration":0.46875},{"name":"E4","midi":64,"time":110.625,"velocity":0.5511811023622047,"duration":0.15625},{"name":"D#4","midi":63,"time":110.78125,"velocity":0.5511811023622047,"duration":0.15625},{"name":"C#4","midi":61,"time":110.9375,"velocity":0.5511811023622047,"duration":0.15625},{"name":"G#4","midi":68,"time":111.09375,"velocity":0.5511811023622047,"duration":0.1302083333333428},{"name":"G4","midi":67,"time":111.19791666666667,"velocity":0.5511811023622047,"duration":0.046875},{"name":"G#4","midi":68,"time":111.23958333333334,"velocity":0.5511811023622047,"duration":0.046875},{"name":"G4","midi":67,"time":111.29166666666667,"velocity":0.5511811023622047,"duration":0.046875},{"name":"G#4","midi":68,"time":111.34375,"velocity":0.5511811023622047,"duration":0.046875},{"name":"G4","midi":67,"time":111.38541666666667,"velocity":0.5511811023622047,"duration":0.1822916666666572},{"name":"G#4","midi":68,"time":111.5625,"velocity":0.5511811023622047,"duration":0.3125},{"name":"G#3","midi":56,"time":112.5,"velocity":0.5511811023622047,"duration":0.15625},{"name":"G3","midi":55,"time":112.65625,"velocity":0.5511811023622047,"duration":0.15625},{"name":"G#3","midi":56,"time":112.8125,"velocity":0.5511811023622047,"duration":0.15625},{"name":"A#3","midi":58,"time":112.96875,"velocity":0.5511811023622047,"duration":0.15625},{"name":"G#3","midi":56,"time":113.125,"velocity":0.5511811023622047,"duration":0.15625},{"name":"A#3","midi":58,"time":113.28125,"velocity":0.5511811023622047,"duration":0.15625},{"name":"D#3","midi":51,"time":113.4375,"velocity":0.5511811023622047,"duration":0.15625},{"name":"F3","midi":53,"time":113.59375,"velocity":0.5511811023622047,"duration":0.15625},{"name":"G3","midi":55,"time":113.75,"velocity":0.5511811023622047,"duration":0.15625},{"name":"G#3","midi":56,"time":113.90625,"velocity":0.5511811023622047,"duration":0.15625},{"name":"A#3","midi":58,"time":114.0625,"velocity":0.5511811023622047,"duration":0.15625},{"name":"B3","midi":59,"time":114.21875,"velocity":0.5511811023622047,"duration":0.15625},{"name":"C#4","midi":61,"time":114.375,"velocity":0.5511811023622047,"duration":0.15625},{"name":"B3","midi":59,"time":114.53125,"velocity":0.5511811023622047,"duration":0.15625},{"name":"C#4","midi":61,"time":114.6875,"velocity":0.5511811023622047,"duration":0.15625},{"name":"A#3","midi":58,"time":114.84375,"velocity":0.5511811023622047,"duration":0.15625},{"name":"D#4","midi":63,"time":115,"velocity":0.5511811023622047,"duration":0.15625},{"name":"C#4","midi":61,"time":115.15625,"velocity":0.5511811023622047,"duration":0.15625},{"name":"C4","midi":60,"time":115.3125,"velocity":0.5511811023622047,"duration":0.46875},{"name":"B3","midi":59,"time":115.78125,"velocity":0.5511811023622047,"duration":0.625},{"name":"A3","midi":57,"time":116.40625,"velocity":0.5511811023622047,"duration":0.15625},{"name":"B3","midi":59,"time":116.5625,"velocity":0.5511811023622047,"duration":0.15625},{"name":"G#3","midi":56,"time":116.71875,"velocity":0.5511811023622047,"duration":0.15625},{"name":"C#4","midi":61,"time":116.875,"velocity":0.5511811023622047,"duration":0.15625},{"name":"B3","midi":59,"time":117.03125,"velocity":0.5511811023622047,"duration":0.15625},{"name":"A#3","midi":58,"time":117.1875,"velocity":0.5511811023622047,"duration":0.46875},{"name":"A3","midi":57,"time":117.65625,"velocity":0.5511811023622047,"duration":0.9375},{"name":"G#3","midi":56,"time":118.59375,"velocity":0.5511811023622047,"duration":0.15625},{"name":"F#3","midi":54,"time":118.75,"velocity":0.5511811023622047,"duration":0.15625},{"name":"E3","midi":52,"time":118.90625,"velocity":0.5511811023622047,"duration":0.15625},{"name":"F#3","midi":54,"time":119.0625,"velocity":0.5511811023622047,"duration":0.15625},{"name":"G#3","midi":56,"time":119.21875,"velocity":0.5511811023622047,"duration":0.15625},{"name":"A#3","midi":58,"time":119.375,"velocity":0.5511811023622047,"duration":0.15625},{"name":"B3","midi":59,"time":119.53125,"velocity":0.5511811023622047,"duration":0.625},{"name":"C#4","midi":61,"time":120.15625,"velocity":0.5511811023622047,"duration":0.15625},{"name":"D4","midi":62,"time":120.3125,"velocity":0.5511811023622047,"duration":0.15625},{"name":"C#4","midi":61,"time":120.46875,"velocity":0.5511811023622047,"duration":0.15625},{"name":"D4","midi":62,"time":120.625,"velocity":0.5511811023622047,"duration":0.15625},{"name":"B3","midi":59,"time":120.78125,"velocity":0.5511811023622047,"duration":0.15625},{"name":"A3","midi":57,"time":120.9375,"velocity":0.5511811023622047,"duration":0.3125},{"name":"C#4","midi":61,"time":121.875,"velocity":0.5511811023622047,"duration":0.15625},{"name":"C4","midi":60,"time":122.03125,"velocity":0.5511811023622047,"duration":0.15625},{"name":"C#4","midi":61,"time":122.1875,"velocity":0.5511811023622047,"duration":0.15625},{"name":"D#4","midi":63,"time":122.34375,"velocity":0.5511811023622047,"duration":0.15625},{"name":"C#4","midi":61,"time":122.5,"velocity":0.5511811023622047,"duration":0.15625},{"name":"D#4","midi":63,"time":122.65625,"velocity":0.5511811023622047,"duration":0.15625},{"name":"G#3","midi":56,"time":122.8125,"velocity":0.5511811023622047,"duration":0.15625},{"name":"A#3","midi":58,"time":122.96875,"velocity":0.5511811023622047,"duration":0.15625},{"name":"C4","midi":60,"time":123.125,"velocity":0.5511811023622047,"duration":0.15625},{"name":"C#4","midi":61,"time":123.28125,"velocity":0.5511811023622047,"duration":0.15625},{"name":"D#4","midi":63,"time":123.4375,"velocity":0.5511811023622047,"duration":0.15625},{"name":"E4","midi":64,"time":123.59375,"velocity":0.5511811023622047,"duration":0.15625},{"name":"F#4","midi":66,"time":123.75,"velocity":0.5511811023622047,"duration":0.15625},{"name":"E4","midi":64,"time":123.90625,"velocity":0.5511811023622047,"duration":0.15625},{"name":"F#4","midi":66,"time":124.0625,"velocity":0.5511811023622047,"duration":0.15625},{"name":"D#4","midi":63,"time":124.21875,"velocity":0.5511811023622047,"duration":0.15625},{"name":"G#4","midi":68,"time":124.375,"velocity":0.5511811023622047,"duration":0.15625},{"name":"F#4","midi":66,"time":124.53125,"velocity":0.5511811023622047,"duration":0.15625},{"name":"E4","midi":64,"time":124.6875,"velocity":0.5511811023622047,"duration":0.15625},{"name":"D#4","midi":63,"time":124.84375,"velocity":0.5511811023622047,"duration":0.15625},{"name":"E4","midi":64,"time":125,"velocity":0.5511811023622047,"duration":0.15625},{"name":"C#4","midi":61,"time":125.15625,"velocity":0.5511811023622047,"duration":0.15625},{"name":"A4","midi":69,"time":125.3125,"velocity":0.5511811023622047,"duration":0.15625},{"name":"G#4","midi":68,"time":125.46875,"velocity":0.5511811023622047,"duration":0.15625},{"name":"F#4","midi":66,"time":125.625,"velocity":0.5511811023622047,"duration":0.9375},{"name":"F4","midi":65,"time":126.5625,"velocity":0.5511811023622047,"duration":0.46875},{"name":"E4","midi":64,"time":127.03125,"velocity":0.5511811023622047,"duration":0.46875},{"name":"D#4","midi":63,"time":127.5,"velocity":0.5511811023622047,"duration":0.3177083333333286},{"name":"G#4","midi":68,"time":127.96875,"velocity":0.5511811023622047,"duration":0.359375},{"name":"C#4","midi":61,"time":128.4375,"velocity":0.5511811023622047,"duration":0.3072916666666572},{"name":"F#4","midi":66,"time":128.90625,"velocity":0.5511811023622047,"duration":0.9375},{"name":"E4","midi":64,"time":129.84375,"velocity":0.5511811023622047,"duration":0.3125},{"name":"D#4","midi":63,"time":130.15625,"velocity":0.5511811023622047,"duration":0.15625},{"name":"E4","midi":64,"time":130.3125,"velocity":0.5511811023622047,"duration":0.15625},{"name":"A4","midi":69,"time":130.46875,"velocity":0.5511811023622047,"duration":0.15625},{"name":"G#4","midi":68,"time":130.625,"velocity":0.5511811023622047,"duration":0.15625},{"name":"F#4","midi":66,"time":130.78125,"velocity":0.5511811023622047,"duration":0.15625},{"name":"E4","midi":64,"time":130.9375,"velocity":0.5511811023622047,"duration":0.15625},{"name":"D#4","midi":63,"time":131.09375,"velocity":0.5511811023622047,"duration":0.15625},{"name":"F4","midi":65,"time":131.25,"velocity":0.5511811023622047,"duration":0.46875}],"controlChanges":{"7":[{"number":7,"time":0,"value":0.7874015748031497}],"10":[{"number":10,"time":0,"value":0.3700787401574803}]},"id":2,"name":"Harpsichord","instrumentNumber":6,"instrument":"harpsichord","instrumentFamily":"piano","channelNumber":0,"isPercussion":false}]}