{"header":{"PPQ":384,"timeSignature":[4,4],"bpm":120,"name":"--------"},"startTime":0,"duration":104.60416666666698,"tracks":[{"startTime":0,"duration":0,"length":0,"notes":[],"controlChanges":{},"id":0,"name":"--------"},{"startTime":0.0625,"duration":104.60416666666698,"length":683,"notes":[{"name":"A2","midi":45,"time":0.0625,"velocity":0.8031496062992126,"duration":0.5338541666666667},{"name":"A4","midi":69,"time":0.0625,"velocity":0.8031496062992126,"duration":0.13151041666666666},{"name":"G#4","midi":68,"time":0.19661458333333331,"velocity":0.8031496062992126,"duration":0.13151041666666669},{"name":"A4","midi":69,"time":0.3307291666666667,"velocity":0.8031496062992126,"duration":0.80078125},{"name":"A3","midi":57,"time":0.5989583333333334,"velocity":0.8031496062992126,"duration":0.5325520833333334},{"name":"G#3","midi":56,"time":1.1341145833333335,"velocity":0.8031496062992126,"duration":0.5247395833333333},{"name":"B4","midi":71,"time":1.1341145833333335,"velocity":0.8031496062992126,"duration":0.5078125},{"name":"A3","midi":57,"time":1.6705729166666667,"velocity":0.8031496062992126,"duration":0.5338541666666672},{"name":"C5","midi":72,"time":1.6705729166666667,"velocity":0.8031496062992126,"duration":0.13151041666666674},{"name":"B4","midi":71,"time":1.8046875000000002,"velocity":0.8031496062992126,"duration":0.13151041666666674},{"name":"C5","midi":72,"time":1.9388020833333337,"velocity":0.8031496062992126,"duration":0.8007812500000002},{"name":"E3","midi":52,"time":2.2070312500000004,"velocity":0.8031496062992126,"duration":0.5325520833333335},{"name":"F3","midi":53,"time":2.7421875000000004,"velocity":0.8031496062992126,"duration":0.5247395833333335},{"name":"D5","midi":74,"time":2.7421875000000004,"velocity":0.8031496062992126,"duration":0.5078125},{"name":"D3","midi":50,"time":3.278645833333334,"velocity":0.8031496062992126,"duration":0.5325520833333335},{"name":"C5","midi":72,"time":3.278645833333334,"velocity":0.8031496062992126,"duration":0.5325520833333335},{"name":"E3","midi":52,"time":3.813802083333334,"velocity":0.8031496062992126,"duration":0.53125},{"name":"C5","midi":72,"time":3.813802083333334,"velocity":0.8031496062992126,"duration":0.13151041666666652},{"name":"B4","midi":71,"time":3.947916666666667,"velocity":0.8031496062992126,"duration":0.13151041666666696},{"name":"C5","midi":72,"time":4.082031250000001,"velocity":0.8031496062992126,"duration":0.10546875},{"name":"B4","midi":71,"time":4.214843750000001,"velocity":0.8031496062992126,"duration":0.10546875},{"name":"E2","midi":40,"time":4.347656250000001,"velocity":0.8031496062992126,"duration":0.520833333333333},{"name":"C5","midi":72,"time":4.347656250000001,"velocity":0.8031496062992126,"duration":0.10546875},{"name":"B4","midi":71,"time":4.480468750000001,"velocity":0.8031496062992126,"duration":0.10546875},{"name":"C5","midi":72,"time":4.613281250000001,"velocity":0.8031496062992126,"duration":0.10546875},{"name":"B4","midi":71,"time":4.746093750000001,"velocity":0.8031496062992126,"duration":0.10546875},{"name":"A2","midi":45,"time":4.880208333333334,"velocity":0.8031496062992126,"duration":0.533854166666667},{"name":"A4","midi":69,"time":4.880208333333334,"velocity":0.8031496062992126,"duration":0.265625},{"name":"B4","midi":71,"time":5.148437500000001,"velocity":0.8031496062992126,"duration":0.265625},{"name":"A3","midi":57,"time":5.416666666666668,"velocity":0.8031496062992126,"duration":0.265625},{"name":"C5","midi":72,"time":5.416666666666668,"velocity":0.8031496062992126,"duration":0.265625},{"name":"B3","midi":59,"time":5.684895833333335,"velocity":0.8031496062992126,"duration":0.25651041666666696},{"name":"D5","midi":74,"time":5.684895833333335,"velocity":0.8031496062992126,"duration":0.2421875},{"name":"C4","midi":60,"time":5.953125000000002,"velocity":0.8031496062992126,"duration":0.25651041666666696},{"name":"E5","midi":76,"time":5.953125000000002,"velocity":0.8031496062992126,"duration":0.2421875},{"name":"A3","midi":57,"time":6.221354166666669,"velocity":0.8031496062992126,"duration":0.25651041666666696},{"name":"F#5","midi":78,"time":6.221354166666669,"velocity":0.8031496062992126,"duration":0.2421875},{"name":"E4","midi":64,"time":6.489583333333336,"velocity":0.8031496062992126,"duration":0.13151041666666696},{"name":"G5","midi":79,"time":6.489583333333336,"velocity":0.8031496062992126,"duration":0.2656250000000009},{"name":"D#4","midi":63,"time":6.62369791666667,"velocity":0.8031496062992126,"duration":0.13151041666666696},{"name":"E4","midi":64,"time":6.7578125000000036,"velocity":0.8031496062992126,"duration":0.529947916666667},{"name":"F#5","midi":78,"time":6.7578125000000036,"velocity":0.8031496062992126,"duration":0.265625},{"name":"E3","midi":52,"time":7.0260416666666705,"velocity":0.8031496062992126,"duration":0.5312500000000009},{"name":"G5","midi":79,"time":7.0260416666666705,"velocity":0.8031496062992126,"duration":0.26432291666666696},{"name":"A5","midi":81,"time":7.292968750000004,"velocity":0.8031496062992126,"duration":0.2421875},{"name":"D#4","midi":63,"time":7.559895833333338,"velocity":0.8031496062992126,"duration":0.5234374999999991},{"name":"F#4","midi":66,"time":7.559895833333338,"velocity":0.8031496062992126,"duration":0.506510416666667},{"name":"B5","midi":83,"time":7.559895833333338,"velocity":0.8031496062992126,"duration":0.2421875},{"name":"C6","midi":84,"time":7.826822916666671,"velocity":0.8031496062992126,"duration":0.2421875},{"name":"E4","midi":64,"time":8.095052083333337,"velocity":0.8031496062992126,"duration":0.5338541666666661},{"name":"G4","midi":67,"time":8.095052083333337,"velocity":0.8031496062992126,"duration":1.0690104166666643},{"name":"B5","midi":83,"time":8.095052083333337,"velocity":0.8031496062992126,"duration":0.265625},{"name":"A5","midi":81,"time":8.363281250000004,"velocity":0.8031496062992126,"duration":0.265625},{"name":"B3","midi":59,"time":8.63151041666667,"velocity":0.8031496062992126,"duration":0.5325520833333321},{"name":"G5","midi":79,"time":8.63151041666667,"velocity":0.8031496062992126,"duration":0.265625},{"name":"F#5","midi":78,"time":8.899739583333336,"velocity":0.8031496062992126,"duration":0.2421875},{"name":"C4","midi":60,"time":9.166666666666668,"velocity":0.8031496062992126,"duration":0.5234375},{"name":"A4","midi":69,"time":9.166666666666668,"velocity":0.8031496062992126,"duration":0.5065104166666679},{"name":"E5","midi":76,"time":9.166666666666668,"velocity":0.8031496062992126,"duration":0.2421875},{"name":"D#5","midi":75,"time":9.433593750000002,"velocity":0.8031496062992126,"duration":0.2421875},{"name":"A3","midi":57,"time":9.701822916666668,"velocity":0.8031496062992126,"duration":0.5338541666666661},{"name":"G4","midi":67,"time":9.701822916666668,"velocity":0.8031496062992126,"duration":0.5338541666666661},{"name":"E5","midi":76,"time":9.701822916666668,"velocity":0.8031496062992126,"duration":0.265625},{"name":"F#5","midi":78,"time":9.970052083333334,"velocity":0.8031496062992126,"duration":0.265625},{"name":"B3","midi":59,"time":10.23828125,"velocity":0.8031496062992126,"duration":0.5325520833333321},{"name":"F#4","midi":66,"time":10.23828125,"velocity":0.8031496062992126,"duration":1.0664062499999982},{"name":"E5","midi":76,"time":10.23828125,"velocity":0.8031496062992126,"duration":0.3541666666666661},{"name":"D#5","midi":75,"time":10.572916666666666,"velocity":0.8031496062992126,"duration":0.0859375},{"name":"E5","midi":76,"time":10.673177083333332,"velocity":0.8031496062992126,"duration":0.0859375},{"name":"B2","midi":47,"time":10.773437499999998,"velocity":0.8031496062992126,"duration":0.5234375},{"name":"D#5","midi":75,"time":10.773437499999998,"velocity":0.8031496062992126,"duration":0.2421875},{"name":"E5","midi":76,"time":11.040364583333332,"velocity":0.8031496062992126,"duration":0.2421875},{"name":"E3","midi":52,"time":11.307291666666664,"velocity":0.8031496062992126,"duration":1.0611979166666643},{"name":"E4","midi":64,"time":11.307291666666664,"velocity":0.8031496062992126,"duration":0.265625},{"name":"E5","midi":76,"time":11.307291666666664,"velocity":0.8031496062992126,"duration":1.0690104166666643},{"name":"F#4","midi":66,"time":11.57552083333333,"velocity":0.8031496062992126,"duration":0.265625},{"name":"G4","midi":67,"time":11.843749999999996,"velocity":0.8031496062992126,"duration":0.265625},{"name":"A4","midi":69,"time":12.111979166666663,"velocity":0.8031496062992126,"duration":0.2421875},{"name":"B4","midi":71,"time":12.378906249999995,"velocity":0.8031496062992126,"duration":0.2421875},{"name":"G5","midi":79,"time":12.378906249999995,"velocity":0.8031496062992126,"duration":0.7734375000000018},{"name":"C#5","midi":73,"time":12.645833333333329,"velocity":0.8031496062992126,"duration":0.2421875},{"name":"D5","midi":74,"time":12.912760416666663,"velocity":0.8031496062992126,"duration":1.8697916666666679},{"name":"A#5","midi":82,"time":13.179687499999996,"velocity":0.8031496062992126,"duration":0.265625},{"name":"A5","midi":81,"time":13.447916666666663,"velocity":0.8031496062992126,"duration":0.265625},{"name":"G5","midi":79,"time":13.716145833333329,"velocity":0.8031496062992126,"duration":0.2421875},{"name":"F5","midi":77,"time":13.983072916666663,"velocity":0.8031496062992126,"duration":0.2421875},{"name":"E5","midi":76,"time":14.249999999999996,"velocity":0.8031496062992126,"duration":0.2421875},{"name":"F5","midi":77,"time":14.51692708333333,"velocity":0.8031496062992126,"duration":1.8749999999999982},{"name":"E5","midi":76,"time":14.785156249999996,"velocity":0.8031496062992126,"duration":0.265625},{"name":"D5","midi":74,"time":15.053385416666663,"velocity":0.8031496062992126,"duration":0.265625},{"name":"C5","midi":72,"time":15.321614583333329,"velocity":0.8031496062992126,"duration":0.2513020833333339},{"name":"B4","midi":71,"time":15.589843749999996,"velocity":0.8031496062992126,"duration":0.2513020833333339},{"name":"A4","midi":69,"time":15.858072916666664,"velocity":0.8031496062992126,"duration":0.25130208333333215},{"name":"G#4","midi":68,"time":16.12630208333333,"velocity":0.8031496062992126,"duration":1.6067708333333321},{"name":"F5","midi":77,"time":16.394531249999996,"velocity":0.8031496062992126,"duration":0.265625},{"name":"E5","midi":76,"time":16.662760416666664,"velocity":0.8031496062992126,"duration":0.265625},{"name":"D5","midi":74,"time":16.930989583333332,"velocity":0.8031496062992126,"duration":0.25130208333333215},{"name":"C5","midi":72,"time":17.199218749999996,"velocity":0.8031496062992126,"duration":0.25130208333333215},{"name":"B4","midi":71,"time":17.46744791666666,"velocity":0.8031496062992126,"duration":0.25130208333333215},{"name":"A4","midi":69,"time":17.73567708333333,"velocity":0.8031496062992126,"duration":0.265625},{"name":"C5","midi":72,"time":17.73567708333333,"velocity":0.8031496062992126,"duration":0.265625},{"name":"F4","midi":65,"time":18.003906249999996,"velocity":0.8031496062992126,"duration":0.265625},{"name":"D5","midi":74,"time":18.003906249999996,"velocity":0.8031496062992126,"duration":0.265625},{"name":"E4","midi":64,"time":18.272135416666664,"velocity":0.8031496062992126,"duration":0.265625},{"name":"C5","midi":72,"time":18.272135416666664,"velocity":0.8031496062992126,"duration":0.265625},{"name":"D4","midi":62,"time":18.540364583333332,"velocity":0.8031496062992126,"duration":0.265625},{"name":"B4","midi":71,"time":18.540364583333332,"velocity":0.8031496062992126,"duration":0.265625},{"name":"C4","midi":60,"time":18.80859375,"velocity":0.8031496062992126,"duration":0.24609375},{"name":"A4","midi":69,"time":18.80859375,"velocity":0.8031496062992126,"duration":0.24609375},{"name":"B3","midi":59,"time":19.076822916666668,"velocity":0.8031496062992126,"duration":0.2421875},{"name":"G#4","midi":68,"time":19.076822916666668,"velocity":0.8031496062992126,"duration":0.2421875},{"name":"A2","midi":45,"time":19.34375,"velocity":0.8031496062992126,"duration":1.0690104166666714},{"name":"C4","midi":60,"time":19.34375,"velocity":0.8031496062992126,"duration":0.265625},{"name":"A4","midi":69,"time":19.34375,"velocity":0.8031496062992126,"duration":2.408854166666675},{"name":"B3","midi":59,"time":19.611979166666668,"velocity":0.8031496062992126,"duration":0.265625},{"name":"C4","midi":60,"time":19.880208333333336,"velocity":0.8031496062992126,"duration":0.265625},{"name":"D4","midi":62,"time":20.148437500000004,"velocity":0.8031496062992126,"duration":0.2421875},{"name":"B2","midi":47,"time":20.41536458333334,"velocity":0.8031496062992126,"duration":0.5234375},{"name":"E4","midi":64,"time":20.41536458333334,"velocity":0.8031496062992126,"duration":0.2421875},{"name":"F4","midi":65,"time":20.68229166666667,"velocity":0.8031496062992126,"duration":0.2421875},{"name":"C3","midi":48,"time":20.95052083333334,"velocity":0.8031496062992126,"duration":1.0690104166666714},{"name":"E4","midi":64,"time":20.95052083333334,"velocity":0.8031496062992126,"duration":0.265625},{"name":"D4","midi":62,"time":21.218750000000007,"velocity":0.8031496062992126,"duration":0.265625},{"name":"C4","midi":60,"time":21.486979166666675,"velocity":0.8031496062992126,"duration":0.265625},{"name":"B3","midi":59,"time":21.755208333333343,"velocity":0.8031496062992126,"duration":0.2421875},{"name":"B4","midi":71,"time":21.755208333333343,"velocity":0.8031496062992126,"duration":0.2421875},{"name":"D3","midi":50,"time":22.02213541666668,"velocity":0.8031496062992126,"duration":0.5234375},{"name":"A3","midi":57,"time":22.02213541666668,"velocity":0.8031496062992126,"duration":0.2421875},{"name":"C5","midi":72,"time":22.02213541666668,"velocity":0.8031496062992126,"duration":0.2421875},{"name":"G#3","midi":56,"time":22.28906250000001,"velocity":0.8031496062992126,"duration":0.2421875},{"name":"D5","midi":74,"time":22.28906250000001,"velocity":0.8031496062992126,"duration":0.2421875},{"name":"C3","midi":48,"time":22.55729166666668,"velocity":0.8031496062992126,"duration":0.5338541666666679},{"name":"A3","midi":57,"time":22.55729166666668,"velocity":0.8031496062992126,"duration":0.265625},{"name":"E5","midi":76,"time":22.55729166666668,"velocity":0.8031496062992126,"duration":0.265625},{"name":"B3","midi":59,"time":22.825520833333346,"velocity":0.8031496062992126,"duration":0.265625},{"name":"F5","midi":77,"time":22.825520833333346,"velocity":0.8031496062992126,"duration":0.265625},{"name":"B2","midi":47,"time":23.093750000000014,"velocity":0.8031496062992126,"duration":1.0677083333333321},{"name":"A3","midi":57,"time":23.093750000000014,"velocity":0.8031496062992126,"duration":0.29296875},{"name":"E5","midi":76,"time":23.093750000000014,"velocity":0.8031496062992126,"duration":0.265625},{"name":"D5","midi":74,"time":23.361979166666682,"velocity":0.8031496062992126,"duration":0.24218749999999645},{"name":"G#3","midi":56,"time":23.386718750000014,"velocity":0.8031496062992126,"duration":0.10546875},{"name":"A3","midi":57,"time":23.509114583333346,"velocity":0.8031496062992126,"duration":0.10677083333333215},{"name":"G#3","midi":56,"time":23.630208333333346,"velocity":0.8031496062992126,"duration":0.5065104166666643},{"name":"C5","midi":72,"time":23.630208333333346,"velocity":0.8031496062992126,"duration":0.2421875},{"name":"B4","midi":71,"time":23.89713541666668,"velocity":0.8031496062992126,"duration":0.2421875},{"name":"A2","midi":45,"time":24.164062500000014,"velocity":0.8031496062992126,"duration":0.265625},{"name":"A3","midi":57,"time":24.164062500000014,"velocity":0.8031496062992126,"duration":0.5338541666666679},{"name":"C5","midi":72,"time":24.164062500000014,"velocity":0.8031496062992126,"duration":1.604166666666675},{"name":"B2","midi":47,"time":24.432291666666682,"velocity":0.8031496062992126,"duration":0.265625},{"name":"C3","midi":48,"time":24.70052083333335,"velocity":0.8031496062992126,"duration":0.265625},{"name":"E4","midi":64,"time":24.70052083333335,"velocity":0.8031496062992126,"duration":0.5325520833333357},{"name":"D3","midi":50,"time":24.968750000000018,"velocity":0.8031496062992126,"duration":0.25651041666666785},{"name":"E3","midi":52,"time":25.235677083333353,"velocity":0.8031496062992126,"duration":0.25651041666666785},{"name":"A4","midi":69,"time":25.235677083333353,"velocity":0.8031496062992126,"duration":1.0429687500000036},{"name":"F#3","midi":54,"time":25.50390625000002,"velocity":0.8031496062992126,"duration":0.25651041666666785},{"name":"G3","midi":55,"time":25.770833333333357,"velocity":0.8031496062992126,"duration":0.265625},{"name":"B4","midi":71,"time":25.770833333333357,"velocity":0.8031496062992126,"duration":1.6028645833333393},{"name":"A3","midi":57,"time":26.039062500000025,"velocity":0.8031496062992126,"duration":0.2643229166666643},{"name":"B3","midi":59,"time":26.305989583333357,"velocity":0.8031496062992126,"duration":0.265625},{"name":"D4","midi":62,"time":26.305989583333357,"velocity":0.8031496062992126,"duration":0.5325520833333357},{"name":"C4","midi":60,"time":26.574218750000025,"velocity":0.8031496062992126,"duration":0.25651041666666785},{"name":"D4","midi":62,"time":26.84114583333336,"velocity":0.8031496062992126,"duration":0.25651041666666785},{"name":"G4","midi":67,"time":26.84114583333336,"velocity":0.8031496062992126,"duration":0.5299479166666679},{"name":"E4","midi":64,"time":27.10937500000003,"velocity":0.8031496062992126,"duration":0.25651041666666785},{"name":"F4","midi":65,"time":27.376302083333364,"velocity":0.8031496062992126,"duration":0.5299479166666679},{"name":"A4","midi":69,"time":27.376302083333364,"velocity":0.8031496062992126,"duration":0.265625},{"name":"G4","midi":67,"time":27.644531250000032,"velocity":0.8031496062992126,"duration":0.26432291666666785},{"name":"F4","midi":65,"time":27.911458333333368,"velocity":0.8031496062992126,"duration":1.05859375},{"name":"A4","midi":69,"time":27.911458333333368,"velocity":0.8031496062992126,"duration":0.265625},{"name":"G4","midi":67,"time":28.179687500000036,"velocity":0.8031496062992126,"duration":0.2421875},{"name":"B4","midi":71,"time":28.179687500000036,"velocity":0.8031496062992126,"duration":0.2421875},{"name":"A4","midi":69,"time":28.446614583333368,"velocity":0.8031496062992126,"duration":0.2421875},{"name":"C5","midi":72,"time":28.446614583333368,"velocity":0.8031496062992126,"duration":0.2421875},{"name":"B4","midi":71,"time":28.7135416666667,"velocity":0.8031496062992126,"duration":0.2421875},{"name":"D5","midi":74,"time":28.7135416666667,"velocity":0.8031496062992126,"duration":0.2421875},{"name":"E4","midi":64,"time":28.981770833333368,"velocity":0.8031496062992126,"duration":0.5299479166666679},{"name":"C5","midi":72,"time":28.981770833333368,"velocity":0.8031496062992126,"duration":0.5325520833333357},{"name":"E5","midi":76,"time":28.981770833333368,"velocity":0.8031496062992126,"duration":0.265625},{"name":"F5","midi":77,"time":29.250000000000036,"velocity":0.8031496062992126,"duration":0.26432291666666785},{"name":"E4","midi":64,"time":29.51692708333337,"velocity":0.8031496062992126,"duration":1.05859375},{"name":"G5","midi":79,"time":29.51692708333337,"velocity":0.8031496062992126,"duration":0.265625},{"name":"F4","midi":65,"time":29.78515625000004,"velocity":0.8031496062992126,"duration":0.2421875},{"name":"A5","midi":81,"time":29.78515625000004,"velocity":0.8031496062992126,"duration":0.2421875},{"name":"G4","midi":67,"time":30.05208333333337,"velocity":0.8031496062992126,"duration":0.2421875},{"name":"B5","midi":83,"time":30.05208333333337,"velocity":0.8031496062992126,"duration":0.2421875},{"name":"A4","midi":69,"time":30.319010416666703,"velocity":0.8031496062992126,"duration":0.2421875},{"name":"C6","midi":84,"time":30.319010416666703,"velocity":0.8031496062992126,"duration":0.2421875},{"name":"D4","midi":62,"time":30.58723958333337,"velocity":0.8031496062992126,"duration":1.6028645833333357},{"name":"B4","midi":71,"time":30.58723958333337,"velocity":0.8031496062992126,"duration":0.5338541666666679},{"name":"F5","midi":77,"time":30.58723958333337,"velocity":0.8031496062992126,"duration":0.265625},{"name":"A5","midi":81,"time":30.85546875000004,"velocity":0.8031496062992126,"duration":0.265625},{"name":"A4","midi":69,"time":31.123697916666707,"velocity":0.8031496062992126,"duration":0.5325520833333357},{"name":"G5","midi":79,"time":31.123697916666707,"velocity":0.8031496062992126,"duration":0.265625},{"name":"F5","midi":77,"time":31.391927083333375,"velocity":0.8031496062992126,"duration":0.2421875},{"name":"B4","midi":71,"time":31.65885416666671,"velocity":0.8031496062992126,"duration":0.5065104166666679},{"name":"E5","midi":76,"time":31.65885416666671,"velocity":0.8031496062992126,"duration":0.2421875},{"name":"D5","midi":74,"time":31.925781250000043,"velocity":0.8031496062992126,"duration":0.2421875},{"name":"C3","midi":48,"time":32.19270833333337,"velocity":0.8031496062992126,"duration":0.265625},{"name":"C5","midi":72,"time":32.19270833333337,"velocity":0.8031496062992126,"duration":0.5338541666666643},{"name":"E5","midi":76,"time":32.19270833333337,"velocity":0.8031496062992126,"duration":0.5338541666666643},{"name":"E3","midi":52,"time":32.460937500000036,"velocity":0.8031496062992126,"duration":0.265625},{"name":"G3","midi":55,"time":32.7291666666667,"velocity":0.8031496062992126,"duration":0.265625},{"name":"E4","midi":64,"time":32.7291666666667,"velocity":0.8031496062992126,"duration":0.5338541666666643},{"name":"C5","midi":72,"time":32.7291666666667,"velocity":0.8031496062992126,"duration":0.5338541666666643},{"name":"C4","midi":60,"time":32.997395833333364,"velocity":0.8031496062992126,"duration":0.5247395833333286},{"name":"F4","midi":65,"time":33.26562500000003,"velocity":0.8031496062992126,"duration":0.5078125},{"name":"D5","midi":74,"time":33.26562500000003,"velocity":0.8031496062992126,"duration":0.5078125},{"name":"B3","midi":59,"time":33.53385416666669,"velocity":0.8031496062992126,"duration":0.2565104166666714},{"name":"C4","midi":60,"time":33.802083333333364,"velocity":0.8031496062992126,"duration":0.265625},{"name":"G4","midi":67,"time":33.802083333333364,"velocity":0.8031496062992126,"duration":1.070312499999993},{"name":"E5","midi":76,"time":33.802083333333364,"velocity":0.8031496062992126,"duration":1.070312499999993},{"name":"G3","midi":55,"time":34.07031250000003,"velocity":0.8031496062992126,"duration":0.265625},{"name":"E3","midi":52,"time":34.33854166666669,"velocity":0.8031496062992126,"duration":0.265625},{"name":"C3","midi":48,"time":34.60677083333336,"velocity":0.8031496062992126,"duration":0.5247395833333286},{"name":"A4","midi":69,"time":34.87500000000002,"velocity":0.8031496062992126,"duration":0.5078125},{"name":"F5","midi":77,"time":34.87500000000002,"velocity":0.8031496062992126,"duration":0.5078125},{"name":"B2","midi":47,"time":35.143229166666686,"velocity":0.8031496062992126,"duration":0.2565104166666714},{"name":"C3","midi":48,"time":35.41145833333336,"velocity":0.8031496062992126,"duration":0.265625},{"name":"G4","midi":67,"time":35.41145833333336,"velocity":0.8031496062992126,"duration":0.5338541666666643},{"name":"E5","midi":76,"time":35.41145833333336,"velocity":0.8031496062992126,"duration":0.5338541666666643},{"name":"E3","midi":52,"time":35.67968750000002,"velocity":0.8031496062992126,"duration":0.265625},{"name":"G3","midi":55,"time":35.947916666666686,"velocity":0.8031496062992126,"duration":0.2643229166666643},{"name":"F4","midi":65,"time":35.947916666666686,"velocity":0.8031496062992126,"duration":1.0690104166666572},{"name":"E5","midi":76,"time":35.947916666666686,"velocity":0.8031496062992126,"duration":0.17578125},{"name":"D5","midi":74,"time":36.12630208333335,"velocity":0.8031496062992126,"duration":0.0885416666666643},{"name":"C4","midi":60,"time":36.214843750000014,"velocity":0.8031496062992126,"duration":0.2578125},{"name":"E5","midi":76,"time":36.214843750000014,"velocity":0.8031496062992126,"duration":0.08984375},{"name":"D5","midi":74,"time":36.304687500000014,"velocity":0.8031496062992126,"duration":0.08984375},{"name":"E5","midi":76,"time":36.394531250000014,"velocity":0.8031496062992126,"duration":0.08984375},{"name":"B3","midi":59,"time":36.484375000000014,"velocity":0.8031496062992126,"duration":0.2565104166666643},{"name":"D5","midi":74,"time":36.484375000000014,"velocity":0.8031496062992126,"duration":0.5026041666666643},{"name":"C4","midi":60,"time":36.75260416666668,"velocity":0.8031496062992126,"duration":0.2565104166666643},{"name":"C3","midi":48,"time":37.01953125000001,"velocity":0.8031496062992126,"duration":0.5325520833333286},{"name":"E4","midi":64,"time":37.01953125000001,"velocity":0.8031496062992126,"duration":0.5299479166666643},{"name":"C5","midi":72,"time":37.01953125000001,"velocity":0.8031496062992126,"duration":0.265625},{"name":"G4","midi":67,"time":37.28776041666667,"velocity":0.8031496062992126,"duration":0.2643229166666643},{"name":"C4","midi":60,"time":37.5546875,"velocity":0.8031496062992126,"duration":0.5325520833333286},{"name":"A4","midi":69,"time":37.5546875,"velocity":0.8031496062992126,"duration":0.265625},{"name":"B4","midi":71,"time":37.822916666666664,"velocity":0.8031496062992126,"duration":0.2421875},{"name":"B3","midi":59,"time":38.08984374999999,"velocity":0.8031496062992126,"duration":0.5234375},{"name":"C5","midi":72,"time":38.08984374999999,"velocity":0.8031496062992126,"duration":0.2421875},{"name":"D5","midi":74,"time":38.35677083333333,"velocity":0.8031496062992126,"duration":0.2421875},{"name":"A3","midi":57,"time":38.62499999999999,"velocity":0.8031496062992126,"duration":0.265625},{"name":"E5","midi":76,"time":38.62499999999999,"velocity":0.8031496062992126,"duration":1.0690104166666572},{"name":"A4","midi":69,"time":38.89322916666666,"velocity":0.8031496062992126,"duration":0.265625},{"name":"G4","midi":67,"time":39.16145833333332,"velocity":0.8031496062992126,"duration":0.265625},{"name":"C5","midi":72,"time":39.16145833333332,"velocity":0.8031496062992126,"duration":0.5325520833333286},{"name":"F4","midi":65,"time":39.429687499999986,"velocity":0.8031496062992126,"duration":0.2565104166666643},{"name":"E4","midi":64,"time":39.696614583333314,"velocity":0.8031496062992126,"duration":0.2565104166666643},{"name":"D5","midi":74,"time":39.696614583333314,"velocity":0.8031496062992126,"duration":0.5078125},{"name":"F5","midi":77,"time":39.696614583333314,"velocity":0.8031496062992126,"duration":0.5078125},{"name":"D4","midi":62,"time":39.96484374999998,"velocity":0.8031496062992126,"duration":0.2565104166666714},{"name":"C4","midi":60,"time":40.23307291666665,"velocity":0.8031496062992126,"duration":0.2656249999999929},{"name":"E5","midi":76,"time":40.23307291666665,"velocity":0.8031496062992126,"duration":0.1315104166666643},{"name":"G5","midi":79,"time":40.23307291666665,"velocity":0.8031496062992126,"duration":1.0703124999999858},{"name":"D5","midi":74,"time":40.36718749999998,"velocity":0.8031496062992126,"duration":0.1315104166666643},{"name":"E4","midi":64,"time":40.50130208333331,"velocity":0.8031496062992126,"duration":0.265625},{"name":"E5","midi":76,"time":40.50130208333331,"velocity":0.8031496062992126,"duration":0.8020833333333286},{"name":"G4","midi":67,"time":40.76953124999997,"velocity":0.8031496062992126,"duration":0.265625},{"name":"C5","midi":72,"time":41.037760416666636,"velocity":0.8031496062992126,"duration":0.5247395833333286},{"name":"F5","midi":77,"time":41.3059895833333,"velocity":0.8031496062992126,"duration":0.5078125},{"name":"A5","midi":81,"time":41.3059895833333,"velocity":0.8031496062992126,"duration":0.5078125},{"name":"B4","midi":71,"time":41.574218749999964,"velocity":0.8031496062992126,"duration":0.2565104166666714},{"name":"C5","midi":72,"time":41.842447916666636,"velocity":0.8031496062992126,"duration":0.265625},{"name":"E5","midi":76,"time":41.842447916666636,"velocity":0.8031496062992126,"duration":0.5338541666666643},{"name":"G5","midi":79,"time":41.842447916666636,"velocity":0.8031496062992126,"duration":0.5338541666666643},{"name":"C4","midi":60,"time":42.1106770833333,"velocity":0.8031496062992126,"duration":0.265625},{"name":"C5","midi":72,"time":42.378906249999964,"velocity":0.8031496062992126,"duration":0.265625},{"name":"D5","midi":74,"time":42.378906249999964,"velocity":0.8031496062992126,"duration":1.058593750000007},{"name":"G5","midi":79,"time":42.378906249999964,"velocity":0.8031496062992126,"duration":0.40234375},{"name":"B4","midi":71,"time":42.64713541666663,"velocity":0.8031496062992126,"duration":0.2565104166666714},{"name":"F5","midi":77,"time":42.781249999999964,"velocity":0.8031496062992126,"duration":0.10546875},{"name":"A4","midi":69,"time":42.9153645833333,"velocity":0.8031496062992126,"duration":0.2552083333333357},{"name":"G5","midi":79,"time":42.9153645833333,"velocity":0.8031496062992126,"duration":0.10546875},{"name":"F5","midi":77,"time":43.0481770833333,"velocity":0.8031496062992126,"duration":0.10546875},{"name":"B4","midi":71,"time":43.182291666666636,"velocity":0.8031496062992126,"duration":0.2552083333333357},{"name":"G5","midi":79,"time":43.182291666666636,"velocity":0.8031496062992126,"duration":0.10546875},{"name":"F5","midi":77,"time":43.315104166666636,"velocity":0.8031496062992126,"duration":0.10546875},{"name":"C5","midi":72,"time":43.44921874999997,"velocity":0.8031496062992126,"duration":0.2513020833333357},{"name":"E5","midi":76,"time":43.44921874999997,"velocity":0.8031496062992126,"duration":2.140624999999993},{"name":"D5","midi":74,"time":43.71744791666664,"velocity":0.8031496062992126,"duration":0.265625},{"name":"C4","midi":60,"time":43.98567708333331,"velocity":0.8031496062992126,"duration":0.5325520833333286},{"name":"C5","midi":72,"time":43.98567708333331,"velocity":0.8031496062992126,"duration":0.265625},{"name":"A#4","midi":70,"time":44.25390624999997,"velocity":0.8031496062992126,"duration":0.2421875},{"name":"C#4","midi":61,"time":44.5208333333333,"velocity":0.8031496062992126,"duration":0.5234375},{"name":"A4","midi":69,"time":44.5208333333333,"velocity":0.8031496062992126,"duration":0.2421875},{"name":"G4","midi":67,"time":44.787760416666636,"velocity":0.8031496062992126,"duration":0.2421875},{"name":"D4","midi":62,"time":45.0559895833333,"velocity":0.8031496062992126,"duration":0.265625},{"name":"F4","midi":65,"time":45.0559895833333,"velocity":0.8031496062992126,"duration":0.5338541666666643},{"name":"G4","midi":67,"time":45.324218749999964,"velocity":0.8031496062992126,"duration":0.265625},{"name":"F4","midi":65,"time":45.59244791666663,"velocity":0.8031496062992126,"duration":0.265625},{"name":"A4","midi":69,"time":45.59244791666663,"velocity":0.8031496062992126,"duration":1.605468749999993},{"name":"D5","midi":74,"time":45.59244791666663,"velocity":0.8031496062992126,"duration":0.5325520833333286},{"name":"E4","midi":64,"time":45.86067708333329,"velocity":0.8031496062992126,"duration":0.2565104166666643},{"name":"D4","midi":62,"time":46.12760416666662,"velocity":0.8031496062992126,"duration":0.2565104166666643},{"name":"E5","midi":76,"time":46.12760416666662,"velocity":0.8031496062992126,"duration":0.5078125},{"name":"C#4","midi":61,"time":46.395833333333286,"velocity":0.8031496062992126,"duration":0.2565104166666714},{"name":"D4","midi":62,"time":46.66406249999996,"velocity":0.8031496062992126,"duration":0.265625},{"name":"F5","midi":77,"time":46.66406249999996,"velocity":0.8031496062992126,"duration":1.0690104166666572},{"name":"E4","midi":64,"time":46.93229166666662,"velocity":0.8031496062992126,"duration":0.265625},{"name":"D4","midi":62,"time":47.200520833333286,"velocity":0.8031496062992126,"duration":0.265625},{"name":"A4","midi":69,"time":47.200520833333286,"velocity":0.8031496062992126,"duration":0.5325520833333286},{"name":"C4","midi":60,"time":47.46874999999995,"velocity":0.8031496062992126,"duration":0.2565104166666643},{"name":"A#3","midi":58,"time":47.73567708333328,"velocity":0.8031496062992126,"duration":0.2565104166666643},{"name":"C#5","midi":73,"time":47.73567708333328,"velocity":0.8031496062992126,"duration":0.5078125},{"name":"G5","midi":79,"time":47.73567708333328,"velocity":0.8031496062992126,"duration":0.5078125},{"name":"A3","midi":57,"time":48.00390624999994,"velocity":0.8031496062992126,"duration":0.2565104166666714},{"name":"G3","midi":55,"time":48.272135416666615,"velocity":0.8031496062992126,"duration":0.265625},{"name":"D5","midi":74,"time":48.272135416666615,"velocity":0.8031496062992126,"duration":1.0677083333333286},{"name":"F5","midi":77,"time":48.272135416666615,"velocity":0.8031496062992126,"duration":0.6705729166666643},{"name":"F3","midi":53,"time":48.54036458333328,"velocity":0.8031496062992126,"duration":0.265625},{"name":"G3","midi":55,"time":48.80859374999994,"velocity":0.8031496062992126,"duration":0.265625},{"name":"E5","midi":76,"time":48.94270833333328,"velocity":0.8031496062992126,"duration":0.1315104166666643},{"name":"A#3","midi":58,"time":49.07682291666661,"velocity":0.8031496062992126,"duration":0.2552083333333357},{"name":"F5","midi":77,"time":49.07682291666661,"velocity":0.8031496062992126,"duration":0.10546875},{"name":"E5","midi":76,"time":49.20963541666661,"velocity":0.8031496062992126,"duration":0.10546875},{"name":"A3","midi":57,"time":49.34244791666661,"velocity":0.8031496062992126,"duration":0.2552083333333357},{"name":"C#5","midi":73,"time":49.34244791666661,"velocity":0.8031496062992126,"duration":0.5078125},{"name":"F5","midi":77,"time":49.34244791666661,"velocity":0.8031496062992126,"duration":0.10546875},{"name":"E5","midi":76,"time":49.47526041666661,"velocity":0.8031496062992126,"duration":0.10546875},{"name":"G3","midi":55,"time":49.60937499999994,"velocity":0.8031496062992126,"duration":0.2552083333333286},{"name":"F5","midi":77,"time":49.60937499999994,"velocity":0.8031496062992126,"duration":0.10546875},{"name":"E5","midi":76,"time":49.74218749999994,"velocity":0.8031496062992126,"duration":0.10546875},{"name":"F3","midi":53,"time":49.87630208333327,"velocity":0.8031496062992126,"duration":0.265625},{"name":"D5","midi":74,"time":49.87630208333327,"velocity":0.8031496062992126,"duration":0.7825520833333286},{"name":"G3","midi":55,"time":50.144531249999936,"velocity":0.8031496062992126,"duration":0.265625},{"name":"A4","midi":69,"time":50.144531249999936,"velocity":0.8031496062992126,"duration":0.265625},{"name":"F3","midi":53,"time":50.4127604166666,"velocity":0.8031496062992126,"duration":0.265625},{"name":"B4","midi":71,"time":50.4127604166666,"velocity":0.8031496062992126,"duration":0.265625},{"name":"E3","midi":52,"time":50.680989583333265,"velocity":0.8031496062992126,"duration":0.2565104166666643},{"name":"C#5","midi":73,"time":50.680989583333265,"velocity":0.8031496062992126,"duration":0.2421875},{"name":"D3","midi":50,"time":50.94921874999993,"velocity":0.8031496062992126,"duration":0.2565104166666643},{"name":"D5","midi":74,"time":50.94921874999993,"velocity":0.8031496062992126,"duration":0.2421875},{"name":"C#3","midi":49,"time":51.21744791666659,"velocity":0.8031496062992126,"duration":0.2565104166666643},{"name":"E5","midi":76,"time":51.21744791666659,"velocity":0.8031496062992126,"duration":0.2421875},{"name":"D3","midi":50,"time":51.48567708333326,"velocity":0.8031496062992126,"duration":0.265625},{"name":"F5","midi":77,"time":51.48567708333326,"velocity":0.8031496062992126,"duration":1.070312499999993},{"name":"F3","midi":53,"time":51.75390624999992,"velocity":0.8031496062992126,"duration":0.265625},{"name":"A3","midi":57,"time":52.022135416666586,"velocity":0.8031496062992126,"duration":0.265625},{"name":"D5","midi":74,"time":52.022135416666586,"velocity":0.8031496062992126,"duration":0.5338541666666643},{"name":"D4","midi":62,"time":52.29036458333325,"velocity":0.8031496062992126,"duration":0.5247395833333286},{"name":"E5","midi":76,"time":52.558593749999915,"velocity":0.8031496062992126,"duration":0.5078125},{"name":"G5","midi":79,"time":52.558593749999915,"velocity":0.8031496062992126,"duration":0.5078125},{"name":"C#4","midi":61,"time":52.82682291666658,"velocity":0.8031496062992126,"duration":0.2565104166666714},{"name":"D4","midi":62,"time":53.09505208333325,"velocity":0.8031496062992126,"duration":0.265625},{"name":"F5","midi":77,"time":53.09505208333325,"velocity":0.8031496062992126,"duration":1.070312499999993},{"name":"A5","midi":81,"time":53.09505208333325,"velocity":0.8031496062992126,"duration":1.070312499999993},{"name":"A3","midi":57,"time":53.363281249999915,"velocity":0.8031496062992126,"duration":0.265625},{"name":"F3","midi":53,"time":53.63151041666658,"velocity":0.8031496062992126,"duration":0.265625},{"name":"D3","midi":50,"time":53.89973958333324,"velocity":0.8031496062992126,"duration":0.5247395833333286},{"name":"G5","midi":79,"time":54.16796874999991,"velocity":0.8031496062992126,"duration":0.5078125},{"name":"A#5","midi":82,"time":54.16796874999991,"velocity":0.8031496062992126,"duration":0.5078125},{"name":"C#3","midi":49,"time":54.43619791666657,"velocity":0.8031496062992126,"duration":0.2565104166666714},{"name":"D3","midi":50,"time":54.70442708333324,"velocity":0.8031496062992126,"duration":0.265625},{"name":"F5","midi":77,"time":54.70442708333324,"velocity":0.8031496062992126,"duration":0.5338541666666643},{"name":"A5","midi":81,"time":54.70442708333324,"velocity":0.8031496062992126,"duration":0.5338541666666643},{"name":"F3","midi":53,"time":54.97265624999991,"velocity":0.8031496062992126,"duration":0.265625},{"name":"A3","midi":57,"time":55.24088541666657,"velocity":0.8031496062992126,"duration":0.2643229166666643},{"name":"E5","midi":76,"time":55.24088541666657,"velocity":0.8031496062992126,"duration":1.0598958333333286},{"name":"A5","midi":81,"time":55.24088541666657,"velocity":0.8031496062992126,"duration":0.1080729166666643},{"name":"G5","midi":79,"time":55.345052083333236,"velocity":0.8031496062992126,"duration":0.1080729166666643},{"name":"A5","midi":81,"time":55.442708333333236,"velocity":0.8031496062992126,"duration":0.109375},{"name":"D4","midi":62,"time":55.5078124999999,"velocity":0.8031496062992126,"duration":0.2565104166666714},{"name":"G5","midi":79,"time":55.540364583333236,"velocity":0.8031496062992126,"duration":0.6705729166666643},{"name":"C#4","midi":61,"time":55.77604166666657,"velocity":0.8031496062992126,"duration":0.2565104166666643},{"name":"D4","midi":62,"time":56.044270833333236,"velocity":0.8031496062992126,"duration":0.2565104166666643},{"name":"D3","midi":50,"time":56.3124999999999,"velocity":0.8031496062992126,"duration":0.5338541666666572},{"name":"F5","midi":77,"time":56.3124999999999,"velocity":0.8031496062992126,"duration":0.265625},{"name":"A5","midi":81,"time":56.580729166666565,"velocity":0.8031496062992126,"duration":0.1315104166666643},{"name":"G5","midi":79,"time":56.71484374999989,"velocity":0.8031496062992126,"duration":0.1315104166666643},{"name":"F3","midi":53,"time":56.84895833333322,"velocity":0.8031496062992126,"duration":0.5325520833333286},{"name":"D5","midi":74,"time":56.84895833333322,"velocity":0.8031496062992126,"duration":0.5325520833333286},{"name":"F5","midi":77,"time":56.84895833333322,"velocity":0.8031496062992126,"duration":0.265625},{"name":"A5","midi":81,"time":57.117187499999886,"velocity":0.8031496062992126,"duration":0.2421875},{"name":"A3","midi":57,"time":57.384114583333215,"velocity":0.8031496062992126,"duration":0.5234375},{"name":"C#5","midi":73,"time":57.384114583333215,"velocity":0.8031496062992126,"duration":0.5065104166666714},{"name":"E5","midi":76,"time":57.384114583333215,"velocity":0.8031496062992126,"duration":0.2421875},{"name":"A5","midi":81,"time":57.65104166666655,"velocity":0.8031496062992126,"duration":0.2421875},{"name":"D3","midi":50,"time":57.919270833333215,"velocity":0.8031496062992126,"duration":0.265625},{"name":"D5","midi":74,"time":57.919270833333215,"velocity":0.8031496062992126,"duration":0.265625},{"name":"F5","midi":77,"time":57.919270833333215,"velocity":0.8031496062992126,"duration":1.8749999999999787},{"name":"F3","midi":53,"time":58.18749999999988,"velocity":0.8031496062992126,"duration":0.1315104166666643},{"name":"D5","midi":74,"time":58.18749999999988,"velocity":0.8031496062992126,"duration":0.1315104166666643},{"name":"E3","midi":52,"time":58.32161458333321,"velocity":0.8031496062992126,"duration":0.1315104166666643},{"name":"C5","midi":72,"time":58.32161458333321,"velocity":0.8031496062992126,"duration":0.1315104166666643},{"name":"D3","midi":50,"time":58.455729166666536,"velocity":0.8031496062992126,"duration":0.265625},{"name":"B4","midi":71,"time":58.455729166666536,"velocity":0.8031496062992126,"duration":0.265625},{"name":"F3","midi":53,"time":58.7239583333332,"velocity":0.8031496062992126,"duration":0.2565104166666643},{"name":"D5","midi":74,"time":58.7239583333332,"velocity":0.8031496062992126,"duration":0.2421875},{"name":"C3","midi":48,"time":58.992187499999865,"velocity":0.8031496062992126,"duration":0.2565104166666643},{"name":"A4","midi":69,"time":58.992187499999865,"velocity":0.8031496062992126,"duration":0.2421875},{"name":"F3","midi":53,"time":59.26041666666653,"velocity":0.8031496062992126,"duration":0.2565104166666643},{"name":"D5","midi":74,"time":59.26041666666653,"velocity":0.8031496062992126,"duration":0.2421875},{"name":"B2","midi":47,"time":59.528645833333194,"velocity":0.8031496062992126,"duration":0.5338541666666572},{"name":"G4","midi":67,"time":59.528645833333194,"velocity":0.8031496062992126,"duration":0.5338541666666572},{"name":"G5","midi":79,"time":59.79687499999986,"velocity":0.8031496062992126,"duration":0.1315104166666643},{"name":"F5","midi":77,"time":59.93098958333319,"velocity":0.8031496062992126,"duration":0.1315104166666643},{"name":"C3","midi":48,"time":60.065104166666515,"velocity":0.8031496062992126,"duration":0.5325520833333286},{"name":"C5","midi":72,"time":60.065104166666515,"velocity":0.8031496062992126,"duration":0.5325520833333286},{"name":"E5","midi":76,"time":60.065104166666515,"velocity":0.8031496062992126,"duration":0.265625},{"name":"G5","midi":79,"time":60.33333333333318,"velocity":0.8031496062992126,"duration":0.2421875},{"name":"G3","midi":55,"time":60.60026041666651,"velocity":0.8031496062992126,"duration":0.5234375},{"name":"B4","midi":71,"time":60.60026041666651,"velocity":0.8031496062992126,"duration":0.5065104166666714},{"name":"D5","midi":74,"time":60.60026041666651,"velocity":0.8031496062992126,"duration":0.2421875},{"name":"G5","midi":79,"time":60.867187499999844,"velocity":0.8031496062992126,"duration":0.2421875},{"name":"C4","midi":60,"time":61.13541666666651,"velocity":0.8031496062992126,"duration":0.265625},{"name":"C5","midi":72,"time":61.13541666666651,"velocity":0.8031496062992126,"duration":0.265625},{"name":"E5","midi":76,"time":61.13541666666651,"velocity":0.8031496062992126,"duration":1.8749999999999787},{"name":"E4","midi":64,"time":61.40364583333317,"velocity":0.8031496062992126,"duration":0.1315104166666643},{"name":"C5","midi":72,"time":61.40364583333317,"velocity":0.8031496062992126,"duration":0.1315104166666643},{"name":"D4","midi":62,"time":61.5377604166665,"velocity":0.8031496062992126,"duration":0.1315104166666643},{"name":"B4","midi":71,"time":61.5377604166665,"velocity":0.8031496062992126,"duration":0.1315104166666643},{"name":"C4","midi":60,"time":61.67187499999983,"velocity":0.8031496062992126,"duration":0.265625},{"name":"A4","midi":69,"time":61.67187499999983,"velocity":0.8031496062992126,"duration":0.265625},{"name":"E4","midi":64,"time":61.940104166666494,"velocity":0.8031496062992126,"duration":0.2565104166666643},{"name":"C5","midi":72,"time":61.940104166666494,"velocity":0.8031496062992126,"duration":0.2421875},{"name":"B3","midi":59,"time":62.20833333333316,"velocity":0.8031496062992126,"duration":0.2565104166666643},{"name":"G4","midi":67,"time":62.20833333333316,"velocity":0.8031496062992126,"duration":0.2421875},{"name":"E4","midi":64,"time":62.47656249999982,"velocity":0.8031496062992126,"duration":0.2565104166666643},{"name":"C5","midi":72,"time":62.47656249999982,"velocity":0.8031496062992126,"duration":0.2421875},{"name":"A3","midi":57,"time":62.74479166666649,"velocity":0.8031496062992126,"duration":0.5338541666666572},{"name":"F#4","midi":66,"time":62.74479166666649,"velocity":0.8031496062992126,"duration":0.5338541666666572},{"name":"D5","midi":74,"time":63.01302083333315,"velocity":0.8031496062992126,"duration":0.1315104166666643},{"name":"C5","midi":72,"time":63.14713541666648,"velocity":0.8031496062992126,"duration":0.1315104166666643},{"name":"B3","midi":59,"time":63.28124999999981,"velocity":0.8031496062992126,"duration":0.5325520833333286},{"name":"G4","midi":67,"time":63.28124999999981,"velocity":0.8031496062992126,"duration":0.5325520833333286},{"name":"B4","midi":71,"time":63.28124999999981,"velocity":0.8031496062992126,"duration":0.265625},{"name":"D5","midi":74,"time":63.54947916666647,"velocity":0.8031496062992126,"duration":0.2421875},{"name":"D4","midi":62,"time":63.8164062499998,"velocity":0.8031496062992126,"duration":0.5234375},{"name":"F#4","midi":66,"time":63.8164062499998,"velocity":0.8031496062992126,"duration":0.5065104166666572},{"name":"A4","midi":69,"time":63.8164062499998,"velocity":0.8031496062992126,"duration":0.2421875},{"name":"D5","midi":74,"time":64.08333333333313,"velocity":0.8031496062992126,"duration":0.2421875},{"name":"G3","midi":55,"time":64.3515624999998,"velocity":0.8031496062992126,"duration":0.5338541666666714},{"name":"G4","midi":67,"time":64.3515624999998,"velocity":0.8031496062992126,"duration":2.141927083333357},{"name":"B4","midi":71,"time":64.3515624999998,"velocity":0.8031496062992126,"duration":0.265625},{"name":"B4","midi":71,"time":64.61979166666647,"velocity":0.8031496062992126,"duration":0.265625},{"name":"G2","midi":43,"time":64.88802083333314,"velocity":0.8031496062992126,"duration":0.5338541666666714},{"name":"D5","midi":74,"time":64.88802083333314,"velocity":0.8031496062992126,"duration":0.265625},{"name":"G5","midi":79,"time":65.15624999999982,"velocity":0.8031496062992126,"duration":0.5078125},{"name":"A2","midi":45,"time":65.42447916666649,"velocity":0.8031496062992126,"duration":0.5234375},{"name":"F#5","midi":78,"time":65.69140624999982,"velocity":0.8031496062992126,"duration":0.2421875},{"name":"B2","midi":47,"time":65.95963541666649,"velocity":0.8031496062992126,"duration":1.0703125000000142},{"name":"G5","midi":79,"time":65.95963541666649,"velocity":0.8031496062992126,"duration":0.265625},{"name":"D5","midi":74,"time":66.22786458333316,"velocity":0.8031496062992126,"duration":0.265625},{"name":"G3","midi":55,"time":66.49609374999983,"velocity":0.8031496062992126,"duration":0.5338541666666714},{"name":"B4","midi":71,"time":66.49609374999983,"velocity":0.8031496062992126,"duration":0.265625},{"name":"G4","midi":67,"time":66.7643229166665,"velocity":0.8031496062992126,"duration":0.5078125},{"name":"C3","midi":48,"time":67.03255208333317,"velocity":0.8031496062992126,"duration":0.5234375},{"name":"A3","midi":57,"time":67.03255208333317,"velocity":0.8031496062992126,"duration":0.5065104166666572},{"name":"F#4","midi":66,"time":67.2994791666665,"velocity":0.8031496062992126,"duration":0.2421875},{"name":"B2","midi":47,"time":67.56770833333317,"velocity":0.8031496062992126,"duration":0.5338541666666714},{"name":"B3","midi":59,"time":67.56770833333317,"velocity":0.8031496062992126,"duration":0.6705729166666714},{"name":"G4","midi":67,"time":67.56770833333317,"velocity":0.8031496062992126,"duration":0.265625},{"name":"D4","midi":62,"time":67.83593749999984,"velocity":0.8031496062992126,"duration":0.265625},{"name":"A2","midi":45,"time":68.10416666666652,"velocity":0.8031496062992126,"duration":1.06640625},{"name":"E4","midi":64,"time":68.10416666666652,"velocity":0.8031496062992126,"duration":0.265625},{"name":"D4","midi":62,"time":68.37239583333319,"velocity":0.8031496062992126,"duration":0.2421875},{"name":"C4","midi":60,"time":68.63932291666652,"velocity":0.8031496062992126,"duration":0.5065104166666572},{"name":"E4","midi":64,"time":68.63932291666652,"velocity":0.8031496062992126,"duration":0.2421875},{"name":"F#4","midi":66,"time":68.90624999999984,"velocity":0.8031496062992126,"duration":0.2421875},{"name":"G2","midi":43,"time":69.17317708333319,"velocity":0.8031496062992126,"duration":0.5338541666666714},{"name":"B3","midi":59,"time":69.17317708333319,"velocity":0.8031496062992126,"duration":0.5338541666666714},{"name":"G4","midi":67,"time":69.17317708333319,"velocity":0.8031496062992126,"duration":0.265625},{"name":"D5","midi":74,"time":69.44140624999986,"velocity":0.8031496062992126,"duration":0.265625},{"name":"G3","midi":55,"time":69.70963541666653,"velocity":0.8031496062992126,"duration":0.5325520833333428},{"name":"A3","midi":57,"time":69.70963541666653,"velocity":0.8031496062992126,"duration":1.0585937500000142},{"name":"C5","midi":72,"time":69.70963541666653,"velocity":0.8031496062992126,"duration":0.265625},{"name":"B4","midi":71,"time":69.9778645833332,"velocity":0.8031496062992126,"duration":0.2421875},{"name":"F#3","midi":54,"time":70.24479166666654,"velocity":0.8031496062992126,"duration":0.5234375},{"name":"C5","midi":72,"time":70.24479166666654,"velocity":0.8031496062992126,"duration":0.2421875},{"name":"D5","midi":74,"time":70.51171874999987,"velocity":0.8031496062992126,"duration":0.2421875},{"name":"G3","midi":55,"time":70.77994791666654,"velocity":0.8031496062992126,"duration":0.2513020833333286},{"name":"B4","midi":71,"time":70.77994791666654,"velocity":0.8031496062992126,"duration":0.5338541666666572},{"name":"G3","midi":55,"time":71.0481770833332,"velocity":0.8031496062992126,"duration":0.265625},{"name":"A3","midi":57,"time":71.31640624999987,"velocity":0.8031496062992126,"duration":0.265625},{"name":"C5","midi":72,"time":71.31640624999987,"velocity":0.8031496062992126,"duration":0.5325520833333428},{"name":"G3","midi":55,"time":71.58463541666654,"velocity":0.8031496062992126,"duration":0.2421875},{"name":"F3","midi":53,"time":71.85156249999989,"velocity":0.8031496062992126,"duration":0.5234375},{"name":"A3","midi":57,"time":71.85156249999989,"velocity":0.8031496062992126,"duration":0.2421875},{"name":"D5","midi":74,"time":71.85156249999989,"velocity":0.8031496062992126,"duration":0.5065104166666572},{"name":"B3","midi":59,"time":72.11848958333321,"velocity":0.8031496062992126,"duration":0.2421875},{"name":"E3","midi":52,"time":72.38671874999989,"velocity":0.8031496062992126,"duration":1.0690104166666856},{"name":"C4","midi":60,"time":72.38671874999989,"velocity":0.8031496062992126,"duration":0.265625},{"name":"G4","midi":67,"time":72.38671874999989,"velocity":0.8031496062992126,"duration":0.2513020833333286},{"name":"G4","midi":67,"time":72.65494791666656,"velocity":0.8031496062992126,"duration":0.265625},{"name":"F4","midi":65,"time":72.92317708333323,"velocity":0.8031496062992126,"duration":0.265625},{"name":"A4","midi":69,"time":72.92317708333323,"velocity":0.8031496062992126,"duration":0.5325520833333428},{"name":"E4","midi":64,"time":73.1914062499999,"velocity":0.8031496062992126,"duration":0.2421875},{"name":"D3","midi":50,"time":73.45833333333324,"velocity":0.8031496062992126,"duration":0.5234375},{"name":"F4","midi":65,"time":73.45833333333324,"velocity":0.8031496062992126,"duration":0.2421875},{"name":"B4","midi":71,"time":73.45833333333324,"velocity":0.8031496062992126,"duration":0.5065104166666572},{"name":"G4","midi":67,"time":73.72526041666657,"velocity":0.8031496062992126,"duration":0.2421875},{"name":"C3","midi":48,"time":73.99348958333324,"velocity":0.8031496062992126,"duration":0.265625},{"name":"E4","midi":64,"time":73.99348958333324,"velocity":0.8031496062992126,"duration":0.5338541666666714},{"name":"C5","midi":72,"time":73.99348958333324,"velocity":0.8031496062992126,"duration":1.0690104166666856},{"name":"E3","midi":52,"time":74.26171874999991,"velocity":0.8031496062992126,"duration":0.265625},{"name":"F#3","midi":54,"time":74.52994791666659,"velocity":0.8031496062992126,"duration":0.265625},{"name":"D4","midi":62,"time":74.52994791666659,"velocity":0.8031496062992126,"duration":1.067708333333357},{"name":"E3","midi":52,"time":74.79817708333326,"velocity":0.8031496062992126,"duration":0.2565104166666714},{"name":"F#3","midi":54,"time":75.0651041666666,"velocity":0.8031496062992126,"duration":0.2565104166666714},{"name":"B4","midi":71,"time":75.0651041666666,"velocity":0.8031496062992126,"duration":0.7747395833333428},{"name":"G#3","midi":56,"time":75.33333333333327,"velocity":0.8031496062992126,"duration":0.2565104166666714},{"name":"A3","midi":57,"time":75.60026041666661,"velocity":0.8031496062992126,"duration":0.2643229166666572},{"name":"C4","midi":60,"time":75.60026041666661,"velocity":0.8031496062992126,"duration":0.5325520833333286},{"name":"E3","midi":52,"time":75.86718749999994,"velocity":0.8031496062992126,"duration":0.265625},{"name":"A4","midi":69,"time":75.86718749999994,"velocity":0.8031496062992126,"duration":0.5338541666666714},{"name":"D3","midi":50,"time":76.13541666666661,"velocity":0.8031496062992126,"duration":0.265625},{"name":"B3","midi":59,"time":76.13541666666661,"velocity":0.8031496062992126,"duration":0.5325520833333428},{"name":"C3","midi":48,"time":76.40364583333329,"velocity":0.8031496062992126,"duration":0.2565104166666714},{"name":"A4","midi":69,"time":76.40364583333329,"velocity":0.8031496062992126,"duration":0.5065104166666714},{"name":"D3","midi":50,"time":76.67057291666663,"velocity":0.8031496062992126,"duration":0.2565104166666572},{"name":"B3","midi":59,"time":76.67057291666663,"velocity":0.8031496062992126,"duration":0.5078124999999858},{"name":"E3","midi":52,"time":76.93880208333329,"velocity":0.8031496062992126,"duration":0.2565104166666714},{"name":"G#4","midi":68,"time":76.93880208333329,"velocity":0.8031496062992126,"duration":0.2421875},{"name":"C3","midi":48,"time":77.20703124999996,"velocity":0.8031496062992126,"duration":1.0703125000000142},{"name":"A3","midi":57,"time":77.20703124999996,"velocity":0.8031496062992126,"duration":0.5338541666666714},{"name":"A4","midi":69,"time":77.20703124999996,"velocity":0.8031496062992126,"duration":0.265625},{"name":"C5","midi":72,"time":77.47526041666663,"velocity":0.8031496062992126,"duration":0.265625},{"name":"A3","midi":57,"time":77.7434895833333,"velocity":0.8031496062992126,"duration":0.5338541666666714},{"name":"E5","midi":76,"time":77.7434895833333,"velocity":0.8031496062992126,"duration":0.265625},{"name":"A5","midi":81,"time":78.01171874999997,"velocity":0.8031496062992126,"duration":0.5078125},{"name":"E3","midi":52,"time":78.27994791666664,"velocity":0.8031496062992126,"duration":0.5234375},{"name":"B3","midi":59,"time":78.27994791666664,"velocity":0.8031496062992126,"duration":0.5065104166666572},{"name":"G#5","midi":80,"time":78.54687499999997,"velocity":0.8031496062992126,"duration":0.2421875},{"name":"A3","midi":57,"time":78.81510416666664,"velocity":0.8031496062992126,"duration":0.5338541666666714},{"name":"C4","midi":60,"time":78.81510416666664,"velocity":0.8031496062992126,"duration":1.0703125000000142},{"name":"A5","midi":81,"time":78.81510416666664,"velocity":0.8031496062992126,"duration":0.265625},{"name":"E5","midi":76,"time":79.08333333333331,"velocity":0.8031496062992126,"duration":0.265625},{"name":"G3","midi":55,"time":79.35156249999999,"velocity":0.8031496062992126,"duration":0.5338541666666714},{"name":"C5","midi":72,"time":79.35156249999999,"velocity":0.8031496062992126,"duration":0.265625},{"name":"A4","midi":69,"time":79.61979166666666,"velocity":0.8031496062992126,"duration":0.5078125},{"name":"F3","midi":53,"time":79.88802083333333,"velocity":0.8031496062992126,"duration":0.5234375},{"name":"D4","midi":62,"time":79.88802083333333,"velocity":0.8031496062992126,"duration":0.5065104166666572},{"name":"G#4","midi":68,"time":80.15494791666666,"velocity":0.8031496062992126,"duration":0.2421875},{"name":"E3","midi":52,"time":80.42317708333333,"velocity":0.8031496062992126,"duration":1.0690104166666856},{"name":"C4","midi":60,"time":80.42317708333333,"velocity":0.8031496062992126,"duration":0.5338541666666714},{"name":"A4","midi":69,"time":80.42317708333333,"velocity":0.8031496062992126,"duration":0.265625},{"name":"C5","midi":72,"time":80.69140625,"velocity":0.8031496062992126,"duration":0.265625},{"name":"B3","midi":59,"time":80.95963541666667,"velocity":0.8031496062992126,"duration":1.3359375000000142},{"name":"E5","midi":76,"time":80.95963541666667,"velocity":0.8031496062992126,"duration":0.265625},{"name":"A5","midi":81,"time":81.22786458333334,"velocity":0.8031496062992126,"duration":0.2421875},{"name":"D3","midi":50,"time":81.49479166666669,"velocity":0.8031496062992126,"duration":0.5234375},{"name":"G#5","midi":80,"time":81.49479166666669,"velocity":0.8031496062992126,"duration":0.2421875},{"name":"B5","midi":83,"time":81.76171875000001,"velocity":0.8031496062992126,"duration":0.2421875},{"name":"C3","midi":48,"time":82.02994791666669,"velocity":0.8031496062992126,"duration":1.0690104166666856},{"name":"E5","midi":76,"time":82.02994791666669,"velocity":0.8031496062992126,"duration":0.5338541666666714},{"name":"E3","midi":52,"time":82.29817708333336,"velocity":0.8031496062992126,"duration":0.265625},{"name":"F#3","midi":54,"time":82.56640625000003,"velocity":0.8031496062992126,"duration":0.265625},{"name":"A4","midi":69,"time":82.56640625000003,"velocity":0.8031496062992126,"duration":0.5325520833333428},{"name":"G#3","midi":56,"time":82.8346354166667,"velocity":0.8031496062992126,"duration":0.2421875},{"name":"B2","midi":47,"time":83.10156250000004,"velocity":0.8031496062992126,"duration":0.5234375},{"name":"A3","midi":57,"time":83.10156250000004,"velocity":0.8031496062992126,"duration":0.2421875},{"name":"B4","midi":71,"time":83.10156250000004,"velocity":0.8031496062992126,"duration":0.5065104166666572},{"name":"G#3","midi":56,"time":83.36848958333337,"velocity":0.8031496062992126,"duration":0.2421875},{"name":"A2","midi":45,"time":83.63671875000004,"velocity":0.8031496062992126,"duration":1.0703125000000142},{"name":"A3","midi":57,"time":83.63671875000004,"velocity":0.8031496062992126,"duration":0.265625},{"name":"C5","midi":72,"time":83.63671875000004,"velocity":0.8031496062992126,"duration":1.0703125000000142},{"name":"C4","midi":60,"time":83.90494791666671,"velocity":0.8031496062992126,"duration":0.265625},{"name":"E4","midi":64,"time":84.17317708333339,"velocity":0.8031496062992126,"duration":0.265625},{"name":"A4","midi":69,"time":84.44140625000006,"velocity":0.8031496062992126,"duration":0.5078125},{"name":"B2","midi":47,"time":84.70963541666673,"velocity":0.8031496062992126,"duration":0.5234375},{"name":"D5","midi":74,"time":84.70963541666673,"velocity":0.8031496062992126,"duration":0.5065104166666572},{"name":"G#4","midi":68,"time":84.97656250000006,"velocity":0.8031496062992126,"duration":0.2421875},{"name":"C3","midi":48,"time":85.24479166666673,"velocity":0.8031496062992126,"duration":1.0703125000000142},{"name":"A4","midi":69,"time":85.24479166666673,"velocity":0.8031496062992126,"duration":0.265625},{"name":"E5","midi":76,"time":85.24479166666673,"velocity":0.8031496062992126,"duration":1.0703125000000142},{"name":"E4","midi":64,"time":85.5130208333334,"velocity":0.8031496062992126,"duration":0.265625},{"name":"C4","midi":60,"time":85.78125000000007,"velocity":0.8031496062992126,"duration":0.265625},{"name":"A3","midi":57,"time":86.04947916666674,"velocity":0.8031496062992126,"duration":0.5078125},{"name":"D3","midi":50,"time":86.31770833333341,"velocity":0.8031496062992126,"duration":0.5234375},{"name":"F5","midi":77,"time":86.31770833333341,"velocity":0.8031496062992126,"duration":0.5065104166666572},{"name":"G#3","midi":56,"time":86.58463541666674,"velocity":0.8031496062992126,"duration":0.2421875},{"name":"C3","midi":48,"time":86.85286458333341,"velocity":0.8031496062992126,"duration":0.5338541666666714},{"name":"A3","midi":57,"time":86.85286458333341,"velocity":0.8031496062992126,"duration":0.265625},{"name":"E5","midi":76,"time":86.85286458333341,"velocity":0.8031496062992126,"duration":0.5338541666666714},{"name":"C4","midi":60,"time":87.12109375000009,"velocity":0.8031496062992126,"duration":0.265625},{"name":"B2","midi":47,"time":87.38932291666676,"velocity":0.8031496062992126,"duration":1.0664062500000284},{"name":"E4","midi":64,"time":87.38932291666676,"velocity":0.8031496062992126,"duration":0.2643229166666714},{"name":"E5","midi":76,"time":87.38932291666676,"velocity":0.8031496062992126,"duration":0.1080729166666714},{"name":"D5","midi":74,"time":87.49479166666676,"velocity":0.8031496062992126,"duration":0.1080729166666714},{"name":"E5","midi":76,"time":87.60026041666676,"velocity":0.8031496062992126,"duration":0.10937500000001421},{"name":"A4","midi":69,"time":87.6562500000001,"velocity":0.8031496062992126,"duration":0.2421875},{"name":"D5","midi":74,"time":87.7070312500001,"velocity":0.8031496062992126,"duration":0.1080729166666714},{"name":"E5","midi":76,"time":87.8125000000001,"velocity":0.8031496062992126,"duration":0.1080729166666714},{"name":"D5","midi":74,"time":87.92057291666677,"velocity":0.8031496062992126,"duration":0.4596354166666714},{"name":"G#4","midi":68,"time":87.92317708333344,"velocity":0.8031496062992126,"duration":0.2421875},{"name":"A4","midi":69,"time":88.19010416666677,"velocity":0.8031496062992126,"duration":0.2434895833333428},{"name":"A2","midi":45,"time":88.45833333333346,"velocity":0.8031496062992126,"duration":0.5338541666666856},{"name":"A3","midi":57,"time":88.45833333333346,"velocity":0.8031496062992126,"duration":0.265625},{"name":"C5","midi":72,"time":88.45833333333346,"velocity":0.8031496062992126,"duration":0.2513020833333286},{"name":"C5","midi":72,"time":88.72656250000013,"velocity":0.8031496062992126,"duration":0.1315104166666714},{"name":"B4","midi":71,"time":88.86067708333347,"velocity":0.8031496062992126,"duration":0.1315104166666714},{"name":"C3","midi":48,"time":88.99479166666681,"velocity":0.8031496062992126,"duration":0.5325520833333428},{"name":"A4","midi":69,"time":88.99479166666681,"velocity":0.8031496062992126,"duration":0.265625},{"name":"E5","midi":76,"time":88.99479166666681,"velocity":0.8031496062992126,"duration":1.6041666666666998},{"name":"C5","midi":72,"time":89.26302083333348,"velocity":0.8031496062992126,"duration":0.2421875},{"name":"A2","midi":45,"time":89.52994791666683,"velocity":0.8031496062992126,"duration":0.5234375},{"name":"G4","midi":67,"time":89.52994791666683,"velocity":0.8031496062992126,"duration":0.2421875},{"name":"C5","midi":72,"time":89.79687500000016,"velocity":0.8031496062992126,"duration":0.2421875},{"name":"D3","midi":50,"time":90.06510416666683,"velocity":0.8031496062992126,"duration":0.5338541666666856},{"name":"F#4","midi":66,"time":90.06510416666683,"velocity":0.8031496062992126,"duration":0.265625},{"name":"B4","midi":71,"time":90.3333333333335,"velocity":0.8031496062992126,"duration":0.1315104166666714},{"name":"A4","midi":69,"time":90.46744791666684,"velocity":0.8031496062992126,"duration":0.1315104166666714},{"name":"B2","midi":47,"time":90.60156250000018,"velocity":0.8031496062992126,"duration":0.5325520833333428},{"name":"G#4","midi":68,"time":90.60156250000018,"velocity":0.8031496062992126,"duration":0.265625},{"name":"D5","midi":74,"time":90.60156250000018,"velocity":0.8031496062992126,"duration":1.3359375000000142},{"name":"B4","midi":71,"time":90.86979166666686,"velocity":0.8031496062992126,"duration":0.2421875},{"name":"A2","midi":45,"time":91.1367187500002,"velocity":0.8031496062992126,"duration":0.5234375},{"name":"F#4","midi":66,"time":91.1367187500002,"velocity":0.8031496062992126,"duration":0.2421875},{"name":"B4","midi":71,"time":91.40364583333353,"velocity":0.8031496062992126,"duration":0.2421875},{"name":"G#2","midi":44,"time":91.6718750000002,"velocity":0.8031496062992126,"duration":0.5338541666666856},{"name":"E4","midi":64,"time":91.6718750000002,"velocity":0.8031496062992126,"duration":2.140625000000057},{"name":"E5","midi":76,"time":91.94010416666687,"velocity":0.8031496062992126,"duration":0.1315104166666714},{"name":"D5","midi":74,"time":92.07421875000021,"velocity":0.8031496062992126,"duration":0.1315104166666714},{"name":"A2","midi":45,"time":92.20833333333356,"velocity":0.8031496062992126,"duration":0.5325520833333428},{"name":"C5","midi":72,"time":92.20833333333356,"velocity":0.8031496062992126,"duration":0.265625},{"name":"E5","midi":76,"time":92.47656250000023,"velocity":0.8031496062992126,"duration":0.2421875},{"name":"G2","midi":43,"time":92.74348958333357,"velocity":0.8031496062992126,"duration":0.5234375},{"name":"B4","midi":71,"time":92.74348958333357,"velocity":0.8031496062992126,"duration":0.2421875},{"name":"E5","midi":76,"time":93.0104166666669,"velocity":0.8031496062992126,"duration":0.2421875},{"name":"F#2","midi":42,"time":93.27864583333357,"velocity":0.8031496062992126,"duration":0.5338541666666856},{"name":"A4","midi":69,"time":93.27864583333357,"velocity":0.8031496062992126,"duration":0.265625},{"name":"D5","midi":74,"time":93.54687500000024,"velocity":0.8031496062992126,"duration":0.1315104166666714},{"name":"C5","midi":72,"time":93.68098958333358,"velocity":0.8031496062992126,"duration":0.1315104166666714},{"name":"F2","midi":41,"time":93.81510416666693,"velocity":0.8031496062992126,"duration":0.5325520833333428},{"name":"D4","midi":62,"time":93.81510416666693,"velocity":0.8031496062992126,"duration":1.3359375000000142},{"name":"B4","midi":71,"time":93.81510416666693,"velocity":0.8031496062992126,"duration":0.265625},{"name":"D5","midi":74,"time":94.0833333333336,"velocity":0.8031496062992126,"duration":0.2421875},{"name":"F3","midi":53,"time":94.35026041666694,"velocity":0.8031496062992126,"duration":0.5234375},{"name":"A4","midi":69,"time":94.35026041666694,"velocity":0.8031496062992126,"duration":0.2421875},{"name":"D5","midi":74,"time":94.61718750000027,"velocity":0.8031496062992126,"duration":0.2421875},{"name":"E3","midi":52,"time":94.88541666666694,"velocity":0.8031496062992126,"duration":1.8750000000000284},{"name":"G#4","midi":68,"time":94.88541666666694,"velocity":0.8031496062992126,"duration":0.5338541666666856},{"name":"E4","midi":64,"time":95.15364583333361,"velocity":0.8031496062992126,"duration":0.1315104166666714},{"name":"D4","midi":62,"time":95.28776041666696,"velocity":0.8031496062992126,"duration":0.1315104166666714},{"name":"C4","midi":60,"time":95.4218750000003,"velocity":0.8031496062992126,"duration":0.265625},{"name":"A4","midi":69,"time":95.4218750000003,"velocity":0.8031496062992126,"duration":0.5325520833333428},{"name":"E4","midi":64,"time":95.69010416666697,"velocity":0.8031496062992126,"duration":0.2421875},{"name":"B3","midi":59,"time":95.95703125000031,"velocity":0.8031496062992126,"duration":0.2421875},{"name":"B4","midi":71,"time":95.95703125000031,"velocity":0.8031496062992126,"duration":0.5065104166666572},{"name":"E4","midi":64,"time":96.22395833333364,"velocity":0.8031496062992126,"duration":0.2421875},{"name":"A3","midi":57,"time":96.49088541666697,"velocity":0.8031496062992126,"duration":0.54296875},{"name":"C5","midi":72,"time":96.49088541666697,"velocity":0.8031496062992126,"duration":1.0885416666666714},{"name":"E3","midi":52,"time":96.76302083333364,"velocity":0.8031496062992126,"duration":0.1341145833333286},{"name":"D3","midi":50,"time":96.89973958333364,"velocity":0.8031496062992126,"duration":0.1341145833333286},{"name":"C3","midi":48,"time":97.03645833333364,"velocity":0.8031496062992126,"duration":0.26953125},{"name":"A4","midi":69,"time":97.03645833333364,"velocity":0.8031496062992126,"duration":0.54296875},{"name":"E3","midi":52,"time":97.30859375000031,"velocity":0.8031496062992126,"duration":0.26171875},{"name":"B2","midi":47,"time":97.58203125000031,"velocity":0.8031496062992126,"duration":0.26171875},{"name":"G#4","midi":68,"time":97.58203125000031,"velocity":0.8031496062992126,"duration":0.5182291666666714},{"name":"D5","midi":74,"time":97.58203125000031,"velocity":0.8031496062992126,"duration":0.5182291666666714},{"name":"E3","midi":52,"time":97.85546875000031,"velocity":0.8031496062992126,"duration":0.26171875},{"name":"A2","midi":45,"time":98.12890625000031,"velocity":0.8031496062992126,"duration":0.26953125},{"name":"A4","midi":69,"time":98.12890625000031,"velocity":0.8031496062992126,"duration":0.54296875},{"name":"C5","midi":72,"time":98.12890625000031,"velocity":0.8031496062992126,"duration":0.54296875},{"name":"B3","midi":59,"time":98.40104166666698,"velocity":0.8031496062992126,"duration":0.1341145833333286},{"name":"A3","midi":57,"time":98.53776041666698,"velocity":0.8031496062992126,"duration":0.1341145833333286},{"name":"G#3","midi":56,"time":98.67447916666698,"velocity":0.8031496062992126,"duration":0.26953125},{"name":"D4","midi":62,"time":98.67447916666698,"velocity":0.8031496062992126,"duration":1.3919270833333144},{"name":"C5","midi":72,"time":98.67447916666698,"velocity":0.8031496062992126,"duration":0.3606770833333286},{"name":"B3","midi":59,"time":98.94661458333366,"velocity":0.8031496062992126,"duration":0.2630208333333286},{"name":"B4","midi":71,"time":99.02604166666698,"velocity":0.8031496062992126,"duration":0.0716145833333286},{"name":"C5","midi":72,"time":99.12369791666698,"velocity":0.8031496062992126,"duration":0.0716145833333286},{"name":"E3","midi":52,"time":99.22135416666698,"velocity":0.8031496062992126,"duration":0.2630208333333286},{"name":"B4","midi":71,"time":99.22135416666698,"velocity":0.8031496062992126,"duration":0.0716145833333286},{"name":"C5","midi":72,"time":99.31901041666698,"velocity":0.8031496062992126,"duration":0.0716145833333286},{"name":"B4","midi":71,"time":99.41666666666698,"velocity":0.8031496062992126,"duration":0.3776041666666572},{"name":"G#3","midi":56,"time":99.49609375000031,"velocity":0.8031496062992126,"duration":0.26171875},{"name":"C3","midi":48,"time":99.81119791666697,"velocity":0.8031496062992126,"duration":0.5963541666666714},{"name":"E5","midi":76,"time":100.11067708333363,"velocity":0.8031496062992126,"duration":0.1471354166666714},{"name":"D5","midi":74,"time":100.26041666666697,"velocity":0.8031496062992126,"duration":0.1471354166666714},{"name":"D3","midi":50,"time":100.41015625000031,"velocity":0.8031496062992126,"duration":0.5963541666666714},{"name":"C5","midi":72,"time":100.41015625000031,"velocity":0.8031496062992126,"duration":0.296875},{"name":"A5","midi":81,"time":100.41015625000031,"velocity":0.8031496062992126,"duration":0.5963541666666714},{"name":"E5","midi":76,"time":100.70963541666698,"velocity":0.8031496062992126,"duration":0.2721354166666714},{"name":"E3","midi":52,"time":101.00911458333366,"velocity":0.8031496062992126,"duration":0.5872395833333428},{"name":"B4","midi":71,"time":101.00911458333366,"velocity":0.8031496062992126,"duration":0.2721354166666714},{"name":"G#5","midi":80,"time":101.00911458333366,"velocity":0.8031496062992126,"duration":0.5690104166666714},{"name":"E5","midi":76,"time":101.30989583333366,"velocity":0.8031496062992126,"duration":0.2708333333333428},{"name":"A2","midi":45,"time":101.60937500000033,"velocity":0.8031496062992126,"duration":3.1223958333333286},{"name":"D5","midi":74,"time":101.60937500000033,"velocity":0.8031496062992126,"duration":1.1875},{"name":"A5","midi":81,"time":101.60937500000033,"velocity":0.8031496062992126,"duration":3.1223958333333286},{"name":"C#5","midi":73,"time":102.80989583333366,"velocity":0.8031496062992126,"duration":1.7942708333333286}],"controlChanges":{"7":[{"number":7,"time":0,"value":0.7874015748031497}]},"id":1,"name":"Piano 1","instrumentNumber":6,"instrument":"harpsichord","instrumentFamily":"piano","channelNumber":0,"isPercussion":false}]}