{"header":{"PPQ":384,"timeSignature":[4,4],"bpm":120,"name":"--------"},"startTime":0,"duration":867.0065104166695,"tracks":[{"startTime":0,"duration":0,"length":0,"notes":[],"controlChanges":{},"id":0,"name":"--------"},{"startTime":0.041666666666666664,"duration":867.0065104166695,"length":6404,"notes":[{"name":"E5","midi":76,"time":0.041666666666666664,"velocity":0.8031496062992126,"duration":0.3515625},{"name":"A4","midi":69,"time":0.4166666666666667,"velocity":0.8031496062992126,"duration":0.35156250000000006},{"name":"A5","midi":81,"time":0.7916666666666667,"velocity":0.8031496062992126,"duration":0.37109375},{"name":"G5","midi":79,"time":1.1666666666666667,"velocity":0.8031496062992126,"duration":0.18359375},{"name":"E5","midi":76,"time":1.3541666666666667,"velocity":0.8031496062992126,"duration":0.18359375},{"name":"F5","midi":77,"time":1.5416666666666667,"velocity":0.8031496062992126,"duration":0.18359375},{"name":"D5","midi":74,"time":1.7291666666666667,"velocity":0.8031496062992126,"duration":0.18359375},{"name":"E5","midi":76,"time":1.9166666666666667,"velocity":0.8031496062992126,"duration":0.18359375000000022},{"name":"D5","midi":74,"time":2.104166666666667,"velocity":0.8031496062992126,"duration":0.18359375},{"name":"E4","midi":64,"time":2.291666666666667,"velocity":0.8031496062992126,"duration":0.3515625},{"name":"C5","midi":72,"time":2.291666666666667,"velocity":0.8031496062992126,"duration":0.18359375},{"name":"B4","midi":71,"time":2.479166666666667,"velocity":0.8031496062992126,"duration":0.18359375},{"name":"A3","midi":57,"time":2.666666666666667,"velocity":0.8031496062992126,"duration":0.3515625},{"name":"C5","midi":72,"time":2.666666666666667,"velocity":0.8031496062992126,"duration":0.18359375},{"name":"B4","midi":71,"time":2.854166666666667,"velocity":0.8031496062992126,"duration":0.18359375},{"name":"A4","midi":69,"time":3.041666666666667,"velocity":0.8031496062992126,"duration":0.37109375},{"name":"C5","midi":72,"time":3.041666666666667,"velocity":0.8031496062992126,"duration":0.3125},{"name":"F5","midi":77,"time":3.229166666666667,"velocity":0.8031496062992126,"duration":0.3125},{"name":"G4","midi":67,"time":3.416666666666667,"velocity":0.8031496062992126,"duration":0.18359375},{"name":"B4","midi":71,"time":3.416666666666667,"velocity":0.8031496062992126,"duration":0.3125},{"name":"E4","midi":64,"time":3.604166666666667,"velocity":0.8031496062992126,"duration":0.18359375},{"name":"E5","midi":76,"time":3.604166666666667,"velocity":0.8031496062992126,"duration":0.3125},{"name":"F4","midi":65,"time":3.791666666666667,"velocity":0.8031496062992126,"duration":0.18359375},{"name":"A4","midi":69,"time":3.791666666666667,"velocity":0.8031496062992126,"duration":0.3125},{"name":"D4","midi":62,"time":3.979166666666667,"velocity":0.8031496062992126,"duration":0.18359375},{"name":"D5","midi":74,"time":3.979166666666667,"velocity":0.8031496062992126,"duration":0.3125},{"name":"E4","midi":64,"time":4.166666666666667,"velocity":0.8031496062992126,"duration":0.37109375},{"name":"G#4","midi":68,"time":4.166666666666667,"velocity":0.8031496062992126,"duration":0.546875},{"name":"D5","midi":74,"time":4.354166666666667,"velocity":0.8031496062992126,"duration":0.546875},{"name":"E3","midi":52,"time":4.541666666666667,"velocity":0.8031496062992126,"duration":0.37109375},{"name":"B4","midi":71,"time":4.541666666666667,"velocity":0.8031496062992126,"duration":0.18359375},{"name":"G#4","midi":68,"time":4.729166666666667,"velocity":0.8031496062992126,"duration":0.18489583333333304},{"name":"G#3","midi":56,"time":4.916666666666667,"velocity":0.8031496062992126,"duration":0.37109375},{"name":"D5","midi":74,"time":4.916666666666667,"velocity":0.8031496062992126,"duration":0.9375},{"name":"B4","midi":71,"time":5.104166666666667,"velocity":0.8031496062992126,"duration":0.18359375},{"name":"B3","midi":59,"time":5.291666666666667,"velocity":0.8031496062992126,"duration":0.37109375},{"name":"G#4","midi":68,"time":5.291666666666667,"velocity":0.8031496062992126,"duration":0.18359375},{"name":"B4","midi":71,"time":5.479166666666667,"velocity":0.8031496062992126,"duration":0.18359375},{"name":"G#3","midi":56,"time":5.666666666666667,"velocity":0.8031496062992126,"duration":0.37109375},{"name":"E4","midi":64,"time":5.666666666666667,"velocity":0.8031496062992126,"duration":0.7421875},{"name":"D5","midi":74,"time":5.854166666666667,"velocity":0.8031496062992126,"duration":0.18359375},{"name":"E3","midi":52,"time":6.041666666666667,"velocity":0.8031496062992126,"duration":0.37109375},{"name":"C5","midi":72,"time":6.041666666666667,"velocity":0.8031496062992126,"duration":0.18359375},{"name":"B4","midi":71,"time":6.229166666666667,"velocity":0.8031496062992126,"duration":0.18359375},{"name":"A3","midi":57,"time":6.416666666666667,"velocity":0.8031496062992126,"duration":1.122395833333333},{"name":"C5","midi":72,"time":6.416666666666667,"velocity":0.8031496062992126,"duration":0.18359375},{"name":"B4","midi":71,"time":6.604166666666667,"velocity":0.8031496062992126,"duration":0.18359375},{"name":"E3","midi":52,"time":6.791666666666667,"velocity":0.8031496062992126,"duration":0.37109375},{"name":"A4","midi":69,"time":6.791666666666667,"velocity":0.8031496062992126,"duration":0.18359375},{"name":"G#4","midi":68,"time":6.979166666666667,"velocity":0.8031496062992126,"duration":0.18359375},{"name":"A2","midi":45,"time":7.166666666666667,"velocity":0.8031496062992126,"duration":0.37109375},{"name":"A4","midi":69,"time":7.166666666666667,"velocity":0.8031496062992126,"duration":0.18359375},{"name":"B4","midi":71,"time":7.354166666666667,"velocity":0.8031496062992126,"duration":0.18359375},{"name":"A3","midi":57,"time":7.541666666666667,"velocity":0.8031496062992126,"duration":0.37109375},{"name":"C5","midi":72,"time":7.541666666666667,"velocity":0.8031496062992126,"duration":0.37109375},{"name":"F4","midi":65,"time":7.729166666666667,"velocity":0.8031496062992126,"duration":0.2734375000000009},{"name":"G3","midi":55,"time":7.916666666666667,"velocity":0.8031496062992126,"duration":0.1835937500000009},{"name":"B4","midi":71,"time":7.916666666666667,"velocity":0.8031496062992126,"duration":0.2734375000000009},{"name":"E3","midi":52,"time":8.104166666666668,"velocity":0.8031496062992126,"duration":0.18359375},{"name":"E4","midi":64,"time":8.104166666666668,"velocity":0.8031496062992126,"duration":0.3125},{"name":"F3","midi":53,"time":8.291666666666668,"velocity":0.8031496062992126,"duration":0.18359375},{"name":"A4","midi":69,"time":8.291666666666668,"velocity":0.8031496062992126,"duration":0.18359375},{"name":"D3","midi":50,"time":8.479166666666668,"velocity":0.8031496062992126,"duration":0.18359375},{"name":"B4","midi":71,"time":8.479166666666668,"velocity":0.8031496062992126,"duration":0.18359375},{"name":"E3","midi":52,"time":8.666666666666668,"velocity":0.8031496062992126,"duration":0.18359375},{"name":"A4","midi":69,"time":8.666666666666668,"velocity":0.8031496062992126,"duration":0.08984375},{"name":"G#4","midi":68,"time":8.740885416666668,"velocity":0.8031496062992126,"duration":0.08984375},{"name":"A4","midi":69,"time":8.815104166666668,"velocity":0.8031496062992126,"duration":0.08984375},{"name":"D3","midi":50,"time":8.854166666666668,"velocity":0.8031496062992126,"duration":0.18359375},{"name":"G#4","midi":68,"time":8.889322916666668,"velocity":0.8031496062992126,"duration":0.16015625},{"name":"B2","midi":47,"time":9.041666666666668,"velocity":0.8031496062992126,"duration":0.18359375},{"name":"E4","midi":64,"time":9.041666666666668,"velocity":0.8031496062992126,"duration":0.37109375},{"name":"G#2","midi":44,"time":9.229166666666668,"velocity":0.8031496062992126,"duration":0.18359375},{"name":"D3","midi":50,"time":9.416666666666668,"velocity":0.8031496062992126,"duration":0.18359375},{"name":"G#4","midi":68,"time":9.416666666666668,"velocity":0.8031496062992126,"duration":0.3125},{"name":"B2","midi":47,"time":9.604166666666668,"velocity":0.8031496062992126,"duration":0.18359375},{"name":"G#2","midi":44,"time":9.791666666666668,"velocity":0.8031496062992126,"duration":0.18359375},{"name":"B4","midi":71,"time":9.791666666666668,"velocity":0.8031496062992126,"duration":0.3125},{"name":"B2","midi":47,"time":9.979166666666668,"velocity":0.8031496062992126,"duration":0.18359375},{"name":"E2","midi":40,"time":10.166666666666668,"velocity":0.8031496062992126,"duration":0.18359375},{"name":"G#4","midi":68,"time":10.166666666666668,"velocity":0.8031496062992126,"duration":0.3125},{"name":"D3","midi":50,"time":10.354166666666668,"velocity":0.8031496062992126,"duration":0.18359375},{"name":"C3","midi":48,"time":10.541666666666668,"velocity":0.8031496062992126,"duration":0.18359375},{"name":"E4","midi":64,"time":10.541666666666668,"velocity":0.8031496062992126,"duration":0.3125},{"name":"B2","midi":47,"time":10.729166666666668,"velocity":0.8031496062992126,"duration":0.18359375},{"name":"C#3","midi":49,"time":10.916666666666668,"velocity":0.8031496062992126,"duration":0.37109375},{"name":"A4","midi":69,"time":10.916666666666668,"velocity":0.8031496062992126,"duration":1.122395833333334},{"name":"G5","midi":79,"time":11.104166666666668,"velocity":0.8031496062992126,"duration":0.18359375},{"name":"A2","midi":45,"time":11.291666666666668,"velocity":0.8031496062992126,"duration":0.37109375},{"name":"E5","midi":76,"time":11.291666666666668,"velocity":0.8031496062992126,"duration":0.18359375},{"name":"C#5","midi":73,"time":11.479166666666668,"velocity":0.8031496062992126,"duration":0.18359375},{"name":"C#3","midi":49,"time":11.666666666666668,"velocity":0.8031496062992126,"duration":0.37109375},{"name":"G5","midi":79,"time":11.666666666666668,"velocity":0.8031496062992126,"duration":0.18359375},{"name":"E5","midi":76,"time":11.854166666666668,"velocity":0.8031496062992126,"duration":0.18359375},{"name":"E3","midi":52,"time":12.041666666666668,"velocity":0.8031496062992126,"duration":0.37109375},{"name":"C#5","midi":73,"time":12.041666666666668,"velocity":0.8031496062992126,"duration":0.3125},{"name":"E5","midi":76,"time":12.229166666666668,"velocity":0.8031496062992126,"duration":0.18359375},{"name":"C#3","midi":49,"time":12.416666666666668,"velocity":0.8031496062992126,"duration":0.37109375},{"name":"A4","midi":69,"time":12.416666666666668,"velocity":0.8031496062992126,"duration":0.18359375},{"name":"G4","midi":67,"time":12.604166666666668,"velocity":0.8031496062992126,"duration":0.18359375},{"name":"A2","midi":45,"time":12.791666666666668,"velocity":0.8031496062992126,"duration":0.37109375},{"name":"F#4","midi":66,"time":12.791666666666668,"velocity":0.8031496062992126,"duration":0.18359375},{"name":"E4","midi":64,"time":12.979166666666668,"velocity":0.8031496062992126,"duration":0.18359375},{"name":"D3","midi":50,"time":13.166666666666668,"velocity":0.8031496062992126,"duration":0.18359375},{"name":"F#4","midi":66,"time":13.166666666666668,"velocity":0.8031496062992126,"duration":0.37109375},{"name":"C4","midi":60,"time":13.354166666666668,"velocity":0.8031496062992126,"duration":0.18359375},{"name":"A3","midi":57,"time":13.541666666666668,"velocity":0.8031496062992126,"duration":0.18359375},{"name":"D5","midi":74,"time":13.541666666666668,"velocity":0.8031496062992126,"duration":0.3125},{"name":"F#3","midi":54,"time":13.729166666666668,"velocity":0.8031496062992126,"duration":0.18359375},{"name":"C4","midi":60,"time":13.916666666666668,"velocity":0.8031496062992126,"duration":0.18359375},{"name":"F#5","midi":78,"time":13.916666666666668,"velocity":0.8031496062992126,"duration":0.3125},{"name":"A3","midi":57,"time":14.104166666666668,"velocity":0.8031496062992126,"duration":0.18359375},{"name":"F#3","midi":54,"time":14.291666666666668,"velocity":0.8031496062992126,"duration":0.18359375},{"name":"A5","midi":81,"time":14.291666666666668,"velocity":0.8031496062992126,"duration":0.3125},{"name":"A3","midi":57,"time":14.479166666666668,"velocity":0.8031496062992126,"duration":0.18359375},{"name":"D3","midi":50,"time":14.666666666666668,"velocity":0.8031496062992126,"duration":0.18359375},{"name":"F#5","midi":78,"time":14.666666666666668,"velocity":0.8031496062992126,"duration":0.3125},{"name":"C4","midi":60,"time":14.854166666666668,"velocity":0.8031496062992126,"duration":0.18359375},{"name":"B3","midi":59,"time":15.041666666666668,"velocity":0.8031496062992126,"duration":0.18359375},{"name":"D5","midi":74,"time":15.041666666666668,"velocity":0.8031496062992126,"duration":0.3125},{"name":"A3","midi":57,"time":15.229166666666668,"velocity":0.8031496062992126,"duration":0.18359375},{"name":"B3","midi":59,"time":15.416666666666668,"velocity":0.8031496062992126,"duration":0.37109375},{"name":"G5","midi":79,"time":15.416666666666668,"velocity":0.8031496062992126,"duration":0.18359375},{"name":"F5","midi":77,"time":15.604166666666668,"velocity":0.8031496062992126,"duration":0.18359375},{"name":"G3","midi":55,"time":15.791666666666668,"velocity":0.8031496062992126,"duration":0.37109375},{"name":"D5","midi":74,"time":15.791666666666668,"velocity":0.8031496062992126,"duration":0.18359375},{"name":"B4","midi":71,"time":15.979166666666668,"velocity":0.8031496062992126,"duration":0.18359375},{"name":"B3","midi":59,"time":16.166666666666668,"velocity":0.8031496062992126,"duration":0.37109375},{"name":"F5","midi":77,"time":16.166666666666668,"velocity":0.8031496062992126,"duration":0.3125},{"name":"D5","midi":74,"time":16.354166666666668,"velocity":0.8031496062992126,"duration":0.18359375},{"name":"D4","midi":62,"time":16.541666666666668,"velocity":0.8031496062992126,"duration":0.37109375},{"name":"B4","midi":71,"time":16.541666666666668,"velocity":0.8031496062992126,"duration":0.18359375},{"name":"D5","midi":74,"time":16.729166666666668,"velocity":0.8031496062992126,"duration":0.18359375},{"name":"B3","midi":59,"time":16.916666666666668,"velocity":0.8031496062992126,"duration":0.37109375},{"name":"G4","midi":67,"time":16.916666666666668,"velocity":0.8031496062992126,"duration":0.3125},{"name":"F5","midi":77,"time":17.104166666666668,"velocity":0.8031496062992126,"duration":0.18359375},{"name":"G3","midi":55,"time":17.291666666666668,"velocity":0.8031496062992126,"duration":0.37109375},{"name":"E5","midi":76,"time":17.291666666666668,"velocity":0.8031496062992126,"duration":0.18359375},{"name":"D5","midi":74,"time":17.479166666666668,"velocity":0.8031496062992126,"duration":0.18359375},{"name":"C4","midi":60,"time":17.666666666666668,"velocity":0.8031496062992126,"duration":1.1223958333333321},{"name":"E5","midi":76,"time":17.666666666666668,"velocity":0.8031496062992126,"duration":0.18359375},{"name":"D5","midi":74,"time":17.854166666666668,"velocity":0.8031496062992126,"duration":0.18359375},{"name":"G3","midi":55,"time":18.041666666666668,"velocity":0.8031496062992126,"duration":0.37109375},{"name":"C5","midi":72,"time":18.041666666666668,"velocity":0.8031496062992126,"duration":0.18359375},{"name":"B4","midi":71,"time":18.229166666666668,"velocity":0.8031496062992126,"duration":0.18359375},{"name":"C3","midi":48,"time":18.416666666666668,"velocity":0.8031496062992126,"duration":0.37109375},{"name":"A4","midi":69,"time":18.416666666666668,"velocity":0.8031496062992126,"duration":0.18359375},{"name":"C5","midi":72,"time":18.604166666666668,"velocity":0.8031496062992126,"duration":0.18359375},{"name":"C4","midi":60,"time":18.791666666666668,"velocity":0.8031496062992126,"duration":0.37109375},{"name":"D5","midi":74,"time":18.791666666666668,"velocity":0.8031496062992126,"duration":0.18359375},{"name":"F#5","midi":78,"time":18.979166666666668,"velocity":0.8031496062992126,"duration":0.18359375},{"name":"B3","midi":59,"time":19.166666666666668,"velocity":0.8031496062992126,"duration":0.18359375},{"name":"G5","midi":79,"time":19.166666666666668,"velocity":0.8031496062992126,"duration":0.3125},{"name":"G3","midi":55,"time":19.354166666666668,"velocity":0.8031496062992126,"duration":0.18359375},{"name":"B4","midi":71,"time":19.354166666666668,"velocity":0.8031496062992126,"duration":0.18359375},{"name":"A3","midi":57,"time":19.541666666666668,"velocity":0.8031496062992126,"duration":0.18359375},{"name":"C5","midi":72,"time":19.541666666666668,"velocity":0.8031496062992126,"duration":0.18359375},{"name":"F#3","midi":54,"time":19.729166666666668,"velocity":0.8031496062992126,"duration":0.18359375},{"name":"A4","midi":69,"time":19.729166666666668,"velocity":0.8031496062992126,"duration":0.18359375},{"name":"G3","midi":55,"time":19.916666666666668,"velocity":0.8031496062992126,"duration":0.37109375},{"name":"B4","midi":71,"time":19.916666666666668,"velocity":0.8031496062992126,"duration":0.18359375},{"name":"D5","midi":74,"time":20.104166666666668,"velocity":0.8031496062992126,"duration":0.18359375},{"name":"F3","midi":53,"time":20.291666666666668,"velocity":0.8031496062992126,"duration":0.37109375},{"name":"E5","midi":76,"time":20.291666666666668,"velocity":0.8031496062992126,"duration":0.18359375},{"name":"F5","midi":77,"time":20.479166666666668,"velocity":0.8031496062992126,"duration":0.18359375},{"name":"E3","midi":52,"time":20.666666666666668,"velocity":0.8031496062992126,"duration":0.37109375},{"name":"G5","midi":79,"time":20.666666666666668,"velocity":0.8031496062992126,"duration":0.41666666666666785},{"name":"A4","midi":69,"time":20.854166666666668,"velocity":0.8031496062992126,"duration":0.18359375},{"name":"D3","midi":50,"time":21.041666666666668,"velocity":0.8031496062992126,"duration":0.37109375},{"name":"A#4","midi":70,"time":21.041666666666668,"velocity":0.8031496062992126,"duration":0.18359375},{"name":"G4","midi":67,"time":21.229166666666668,"velocity":0.8031496062992126,"duration":0.20833333333333215},{"name":"E3","midi":52,"time":21.416666666666668,"velocity":0.8031496062992126,"duration":0.37109375},{"name":"G5","midi":79,"time":21.416666666666668,"velocity":0.8031496062992126,"duration":0.36458333333333215},{"name":"A4","midi":69,"time":21.604166666666668,"velocity":0.8031496062992126,"duration":0.18359375},{"name":"C3","midi":48,"time":21.791666666666668,"velocity":0.8031496062992126,"duration":0.37109375},{"name":"A#4","midi":70,"time":21.791666666666668,"velocity":0.8031496062992126,"duration":0.18359375},{"name":"G4","midi":67,"time":21.979166666666668,"velocity":0.8031496062992126,"duration":0.18359375},{"name":"F3","midi":53,"time":22.166666666666668,"velocity":0.8031496062992126,"duration":0.37109375},{"name":"A4","midi":69,"time":22.166666666666668,"velocity":0.8031496062992126,"duration":0.18359375},{"name":"C5","midi":72,"time":22.354166666666668,"velocity":0.8031496062992126,"duration":0.18359375},{"name":"E3","midi":52,"time":22.541666666666668,"velocity":0.8031496062992126,"duration":0.37109375},{"name":"D5","midi":74,"time":22.541666666666668,"velocity":0.8031496062992126,"duration":0.18359375},{"name":"E5","midi":76,"time":22.729166666666668,"velocity":0.8031496062992126,"duration":0.18359375},{"name":"D3","midi":50,"time":22.916666666666668,"velocity":0.8031496062992126,"duration":0.37109375},{"name":"F5","midi":77,"time":22.916666666666668,"velocity":0.8031496062992126,"duration":0.41666666666666785},{"name":"G4","midi":67,"time":23.104166666666668,"velocity":0.8031496062992126,"duration":0.18359375},{"name":"C3","midi":48,"time":23.291666666666668,"velocity":0.8031496062992126,"duration":0.37109375},{"name":"A4","midi":69,"time":23.291666666666668,"velocity":0.8031496062992126,"duration":0.18359375},{"name":"F4","midi":65,"time":23.479166666666668,"velocity":0.8031496062992126,"duration":0.26041666666666785},{"name":"D3","midi":50,"time":23.666666666666668,"velocity":0.8031496062992126,"duration":0.37109375},{"name":"F5","midi":77,"time":23.666666666666668,"velocity":0.8031496062992126,"duration":0.36458333333333215},{"name":"G4","midi":67,"time":23.854166666666668,"velocity":0.8031496062992126,"duration":0.18359375},{"name":"B2","midi":47,"time":24.041666666666668,"velocity":0.8031496062992126,"duration":0.37109375},{"name":"A4","midi":69,"time":24.041666666666668,"velocity":0.8031496062992126,"duration":0.18359375},{"name":"F4","midi":65,"time":24.229166666666668,"velocity":0.8031496062992126,"duration":0.18359375},{"name":"E3","midi":52,"time":24.416666666666668,"velocity":0.8031496062992126,"duration":0.37109375},{"name":"G4","midi":67,"time":24.416666666666668,"velocity":0.8031496062992126,"duration":0.18359375},{"name":"E4","midi":64,"time":24.604166666666668,"velocity":0.8031496062992126,"duration":0.18359375},{"name":"D3","midi":50,"time":24.791666666666668,"velocity":0.8031496062992126,"duration":0.37109375},{"name":"G4","midi":67,"time":24.791666666666668,"velocity":0.8031496062992126,"duration":0.18359375},{"name":"B4","midi":71,"time":24.979166666666668,"velocity":0.8031496062992126,"duration":0.18359375},{"name":"C#3","midi":49,"time":25.166666666666668,"velocity":0.8031496062992126,"duration":0.37109375},{"name":"E5","midi":76,"time":25.166666666666668,"velocity":0.8031496062992126,"duration":0.36458333333333215},{"name":"F4","midi":65,"time":25.354166666666668,"velocity":0.8031496062992126,"duration":0.18359375},{"name":"B2","midi":47,"time":25.541666666666668,"velocity":0.8031496062992126,"duration":0.37109375},{"name":"G4","midi":67,"time":25.541666666666668,"velocity":0.8031496062992126,"duration":0.18359375},{"name":"E4","midi":64,"time":25.729166666666668,"velocity":0.8031496062992126,"duration":0.3125},{"name":"C#3","midi":49,"time":25.916666666666668,"velocity":0.8031496062992126,"duration":0.37109375},{"name":"E5","midi":76,"time":25.916666666666668,"velocity":0.8031496062992126,"duration":0.3125},{"name":"F4","midi":65,"time":26.104166666666668,"velocity":0.8031496062992126,"duration":0.18359375},{"name":"A2","midi":45,"time":26.291666666666668,"velocity":0.8031496062992126,"duration":0.37109375},{"name":"G4","midi":67,"time":26.291666666666668,"velocity":0.8031496062992126,"duration":0.18359375},{"name":"E4","midi":64,"time":26.479166666666668,"velocity":0.8031496062992126,"duration":0.18359375},{"name":"D3","midi":50,"time":26.666666666666668,"velocity":0.8031496062992126,"duration":0.37109375},{"name":"F4","midi":65,"time":26.666666666666668,"velocity":0.8031496062992126,"duration":0.18359375},{"name":"D4","midi":62,"time":26.854166666666668,"velocity":0.8031496062992126,"duration":0.18359375},{"name":"C3","midi":48,"time":27.041666666666668,"velocity":0.8031496062992126,"duration":0.37109375},{"name":"F4","midi":65,"time":27.041666666666668,"velocity":0.8031496062992126,"duration":0.18359375},{"name":"A4","midi":69,"time":27.229166666666668,"velocity":0.8031496062992126,"duration":0.18359375},{"name":"B2","midi":47,"time":27.416666666666668,"velocity":0.8031496062992126,"duration":0.37109375},{"name":"D5","midi":74,"time":27.416666666666668,"velocity":0.8031496062992126,"duration":0.3125},{"name":"E4","midi":64,"time":27.604166666666668,"velocity":0.8031496062992126,"duration":0.18359375},{"name":"A2","midi":45,"time":27.791666666666668,"velocity":0.8031496062992126,"duration":0.37109375},{"name":"F4","midi":65,"time":27.791666666666668,"velocity":0.8031496062992126,"duration":0.18359375},{"name":"D4","midi":62,"time":27.979166666666668,"velocity":0.8031496062992126,"duration":0.37760416666666785},{"name":"B2","midi":47,"time":28.166666666666668,"velocity":0.8031496062992126,"duration":0.37109375},{"name":"D5","midi":74,"time":28.166666666666668,"velocity":0.8031496062992126,"duration":0.26041666666666785},{"name":"E4","midi":64,"time":28.354166666666668,"velocity":0.8031496062992126,"duration":0.18359375},{"name":"G2","midi":43,"time":28.541666666666668,"velocity":0.8031496062992126,"duration":0.37109375},{"name":"F4","midi":65,"time":28.541666666666668,"velocity":0.8031496062992126,"duration":0.18359375},{"name":"D4","midi":62,"time":28.729166666666668,"velocity":0.8031496062992126,"duration":0.18359375},{"name":"C3","midi":48,"time":28.916666666666668,"velocity":0.8031496062992126,"duration":0.37109375},{"name":"E4","midi":64,"time":28.916666666666668,"velocity":0.8031496062992126,"duration":0.7421875},{"name":"D4","midi":62,"time":29.104166666666668,"velocity":0.8031496062992126,"duration":0.18359375},{"name":"G2","midi":43,"time":29.291666666666668,"velocity":0.8031496062992126,"duration":0.37109375},{"name":"C4","midi":60,"time":29.291666666666668,"velocity":0.8031496062992126,"duration":0.18359375},{"name":"B3","midi":59,"time":29.479166666666668,"velocity":0.8031496062992126,"duration":0.18359375},{"name":"C2","midi":36,"time":29.666666666666668,"velocity":0.8031496062992126,"duration":0.37109375},{"name":"C4","midi":60,"time":29.666666666666668,"velocity":0.8031496062992126,"duration":0.37109375},{"name":"G#3","midi":56,"time":29.854166666666668,"velocity":0.8031496062992126,"duration":0.18359375},{"name":"C3","midi":48,"time":30.041666666666668,"velocity":0.8031496062992126,"duration":0.37109375},{"name":"A3","midi":57,"time":30.041666666666668,"velocity":0.8031496062992126,"duration":0.2734375},{"name":"E4","midi":64,"time":30.229166666666668,"velocity":0.8031496062992126,"duration":0.18359375},{"name":"B2","midi":47,"time":30.416666666666668,"velocity":0.8031496062992126,"duration":0.18359375},{"name":"D4","midi":62,"time":30.416666666666668,"velocity":0.8031496062992126,"duration":0.18359375},{"name":"G#2","midi":44,"time":30.604166666666668,"velocity":0.8031496062992126,"duration":0.18359375},{"name":"B3","midi":59,"time":30.604166666666668,"velocity":0.8031496062992126,"duration":0.18359375},{"name":"A2","midi":45,"time":30.791666666666668,"velocity":0.8031496062992126,"duration":0.18359375},{"name":"C4","midi":60,"time":30.791666666666668,"velocity":0.8031496062992126,"duration":0.18359375},{"name":"F#2","midi":42,"time":30.979166666666668,"velocity":0.8031496062992126,"duration":0.18359375},{"name":"A3","midi":57,"time":30.979166666666668,"velocity":0.8031496062992126,"duration":0.18359375},{"name":"G#2","midi":44,"time":31.166666666666668,"velocity":0.8031496062992126,"duration":0.37109375},{"name":"B3","midi":59,"time":31.166666666666668,"velocity":0.8031496062992126,"duration":0.2734375},{"name":"D4","midi":62,"time":31.354166666666668,"velocity":0.8031496062992126,"duration":0.18359375},{"name":"E2","midi":40,"time":31.541666666666668,"velocity":0.8031496062992126,"duration":0.37109375},{"name":"B3","midi":59,"time":31.541666666666668,"velocity":0.8031496062992126,"duration":0.18359375},{"name":"G#3","midi":56,"time":31.729166666666668,"velocity":0.8031496062992126,"duration":0.18359375},{"name":"G#2","midi":44,"time":31.916666666666668,"velocity":0.8031496062992126,"duration":0.37109374999999645},{"name":"D4","midi":62,"time":31.916666666666668,"velocity":0.8031496062992126,"duration":0.18489583333333215},{"name":"B3","midi":59,"time":32.104166666666664,"velocity":0.8031496062992126,"duration":0.18359375},{"name":"B2","midi":47,"time":32.291666666666664,"velocity":0.8031496062992126,"duration":0.37109375},{"name":"G#3","midi":56,"time":32.291666666666664,"velocity":0.8031496062992126,"duration":0.18359375},{"name":"B3","midi":59,"time":32.479166666666664,"velocity":0.8031496062992126,"duration":0.18359375},{"name":"G#2","midi":44,"time":32.666666666666664,"velocity":0.8031496062992126,"duration":0.37109375},{"name":"E3","midi":52,"time":32.666666666666664,"velocity":0.8031496062992126,"duration":0.2734375},{"name":"D4","midi":62,"time":32.854166666666664,"velocity":0.8031496062992126,"duration":0.18359375},{"name":"E2","midi":40,"time":33.041666666666664,"velocity":0.8031496062992126,"duration":0.37109375},{"name":"C4","midi":60,"time":33.041666666666664,"velocity":0.8031496062992126,"duration":0.18359375},{"name":"B3","midi":59,"time":33.229166666666664,"velocity":0.8031496062992126,"duration":0.18359375},{"name":"A2","midi":45,"time":33.416666666666664,"velocity":0.8031496062992126,"duration":0.37109375},{"name":"C4","midi":60,"time":33.416666666666664,"velocity":0.8031496062992126,"duration":0.3125},{"name":"A3","midi":57,"time":33.604166666666664,"velocity":0.8031496062992126,"duration":0.18359375},{"name":"A2","midi":45,"time":33.791666666666664,"velocity":0.8031496062992126,"duration":0.37109375},{"name":"C#4","midi":61,"time":33.791666666666664,"velocity":0.8031496062992126,"duration":0.18359375},{"name":"E4","midi":64,"time":33.979166666666664,"velocity":0.8031496062992126,"duration":0.18359375},{"name":"C#3","midi":49,"time":34.166666666666664,"velocity":0.8031496062992126,"duration":0.37109375},{"name":"G4","midi":67,"time":34.166666666666664,"velocity":0.8031496062992126,"duration":0.1848958333333357},{"name":"E4","midi":64,"time":34.354166666666664,"velocity":0.8031496062992126,"duration":0.18359375},{"name":"E3","midi":52,"time":34.541666666666664,"velocity":0.8031496062992126,"duration":0.37109375},{"name":"C#4","midi":61,"time":34.541666666666664,"velocity":0.8031496062992126,"duration":0.18359375},{"name":"E4","midi":64,"time":34.729166666666664,"velocity":0.8031496062992126,"duration":0.18359375},{"name":"C#3","midi":49,"time":34.916666666666664,"velocity":0.8031496062992126,"duration":0.37109375},{"name":"A3","midi":57,"time":34.916666666666664,"velocity":0.8031496062992126,"duration":0.2734375},{"name":"G4","midi":67,"time":35.104166666666664,"velocity":0.8031496062992126,"duration":0.18359375},{"name":"A2","midi":45,"time":35.291666666666664,"velocity":0.8031496062992126,"duration":0.37109375},{"name":"F4","midi":65,"time":35.291666666666664,"velocity":0.8031496062992126,"duration":0.18359375},{"name":"E4","midi":64,"time":35.479166666666664,"velocity":0.8031496062992126,"duration":0.18359375},{"name":"D3","midi":50,"time":35.666666666666664,"velocity":0.8031496062992126,"duration":0.37109375},{"name":"F4","midi":65,"time":35.666666666666664,"velocity":0.8031496062992126,"duration":0.3125},{"name":"A3","midi":57,"time":35.854166666666664,"velocity":0.8031496062992126,"duration":0.18359375},{"name":"F3","midi":53,"time":36.041666666666664,"velocity":0.8031496062992126,"duration":0.18359375},{"name":"D4","midi":62,"time":36.041666666666664,"velocity":0.8031496062992126,"duration":0.18359375},{"name":"E3","midi":52,"time":36.229166666666664,"velocity":0.8031496062992126,"duration":0.18359375},{"name":"F4","midi":65,"time":36.229166666666664,"velocity":0.8031496062992126,"duration":0.18359375},{"name":"D#3","midi":51,"time":36.416666666666664,"velocity":0.8031496062992126,"duration":0.37109375},{"name":"A4","midi":69,"time":36.416666666666664,"velocity":0.8031496062992126,"duration":0.1848958333333357},{"name":"F#4","midi":66,"time":36.604166666666664,"velocity":0.8031496062992126,"duration":0.18359375},{"name":"F#3","midi":54,"time":36.791666666666664,"velocity":0.8031496062992126,"duration":0.37109375},{"name":"D#4","midi":63,"time":36.791666666666664,"velocity":0.8031496062992126,"duration":0.18359375},{"name":"F#4","midi":66,"time":36.979166666666664,"velocity":0.8031496062992126,"duration":0.18359375},{"name":"D#3","midi":51,"time":37.166666666666664,"velocity":0.8031496062992126,"duration":0.37109375},{"name":"B3","midi":59,"time":37.166666666666664,"velocity":0.8031496062992126,"duration":0.2734375},{"name":"A4","midi":69,"time":37.354166666666664,"velocity":0.8031496062992126,"duration":0.18359375},{"name":"B2","midi":47,"time":37.541666666666664,"velocity":0.8031496062992126,"duration":0.37109375},{"name":"G#4","midi":68,"time":37.541666666666664,"velocity":0.8031496062992126,"duration":0.18359375},{"name":"F#4","midi":66,"time":37.729166666666664,"velocity":0.8031496062992126,"duration":0.18359375},{"name":"E2","midi":40,"time":37.916666666666664,"velocity":0.8031496062992126,"duration":0.37109375},{"name":"G#4","midi":68,"time":37.916666666666664,"velocity":0.8031496062992126,"duration":0.18359375},{"name":"E4","midi":64,"time":38.104166666666664,"velocity":0.8031496062992126,"duration":0.18359375},{"name":"E3","midi":52,"time":38.291666666666664,"velocity":0.8031496062992126,"duration":0.37109375},{"name":"G#4","midi":68,"time":38.291666666666664,"velocity":0.8031496062992126,"duration":0.18359375},{"name":"B4","midi":71,"time":38.479166666666664,"velocity":0.8031496062992126,"duration":0.18359375},{"name":"G#3","midi":56,"time":38.666666666666664,"velocity":0.8031496062992126,"duration":0.37109375},{"name":"D5","midi":74,"time":38.666666666666664,"velocity":0.8031496062992126,"duration":0.2734375},{"name":"B4","midi":71,"time":38.854166666666664,"velocity":0.8031496062992126,"duration":0.18359375},{"name":"B3","midi":59,"time":39.041666666666664,"velocity":0.8031496062992126,"duration":0.37109375},{"name":"G#4","midi":68,"time":39.041666666666664,"velocity":0.8031496062992126,"duration":0.18359375},{"name":"B4","midi":71,"time":39.229166666666664,"velocity":0.8031496062992126,"duration":0.18359375},{"name":"G#3","midi":56,"time":39.416666666666664,"velocity":0.8031496062992126,"duration":0.37109375},{"name":"E4","midi":64,"time":39.416666666666664,"velocity":0.8031496062992126,"duration":0.2734375},{"name":"D5","midi":74,"time":39.604166666666664,"velocity":0.8031496062992126,"duration":0.18359375},{"name":"E3","midi":52,"time":39.791666666666664,"velocity":0.8031496062992126,"duration":0.37109375},{"name":"C5","midi":72,"time":39.791666666666664,"velocity":0.8031496062992126,"duration":0.18359375},{"name":"B4","midi":71,"time":39.979166666666664,"velocity":0.8031496062992126,"duration":0.18359375},{"name":"A3","midi":57,"time":40.166666666666664,"velocity":0.8031496062992126,"duration":0.18359375},{"name":"C5","midi":72,"time":40.166666666666664,"velocity":0.8031496062992126,"duration":0.33203125},{"name":"D4","midi":62,"time":40.354166666666664,"velocity":0.8031496062992126,"duration":0.18359375},{"name":"C4","midi":60,"time":40.541666666666664,"velocity":0.8031496062992126,"duration":0.18359375},{"name":"E5","midi":76,"time":40.541666666666664,"velocity":0.8031496062992126,"duration":0.33203125},{"name":"B3","midi":59,"time":40.729166666666664,"velocity":0.8031496062992126,"duration":0.18359375},{"name":"C4","midi":60,"time":40.916666666666664,"velocity":0.8031496062992126,"duration":0.18359375},{"name":"A4","midi":69,"time":40.916666666666664,"velocity":0.8031496062992126,"duration":0.33203125},{"name":"B3","midi":59,"time":41.104166666666664,"velocity":0.8031496062992126,"duration":0.18359375},{"name":"C4","midi":60,"time":41.291666666666664,"velocity":0.8031496062992126,"duration":0.18359375},{"name":"A5","midi":81,"time":41.291666666666664,"velocity":0.8031496062992126,"duration":0.33203125},{"name":"E4","midi":64,"time":41.479166666666664,"velocity":0.8031496062992126,"duration":0.18359375},{"name":"C#4","midi":61,"time":41.666666666666664,"velocity":0.8031496062992126,"duration":0.18359375},{"name":"G5","midi":79,"time":41.666666666666664,"velocity":0.8031496062992126,"duration":0.18359375},{"name":"E4","midi":64,"time":41.854166666666664,"velocity":0.8031496062992126,"duration":0.18359375},{"name":"E5","midi":76,"time":41.854166666666664,"velocity":0.8031496062992126,"duration":0.18359375},{"name":"D4","midi":62,"time":42.041666666666664,"velocity":0.8031496062992126,"duration":0.18359375},{"name":"F5","midi":77,"time":42.041666666666664,"velocity":0.8031496062992126,"duration":0.18359375},{"name":"F4","midi":65,"time":42.229166666666664,"velocity":0.8031496062992126,"duration":0.18359375},{"name":"D5","midi":74,"time":42.229166666666664,"velocity":0.8031496062992126,"duration":0.18359375},{"name":"G#3","midi":56,"time":42.416666666666664,"velocity":0.8031496062992126,"duration":0.37109375},{"name":"B5","midi":83,"time":42.416666666666664,"velocity":0.8031496062992126,"duration":0.18359375},{"name":"A5","midi":81,"time":42.604166666666664,"velocity":0.8031496062992126,"duration":0.18359375},{"name":"B3","midi":59,"time":42.791666666666664,"velocity":0.8031496062992126,"duration":0.37109375},{"name":"G#5","midi":80,"time":42.791666666666664,"velocity":0.8031496062992126,"duration":0.18359375},{"name":"F#5","midi":78,"time":42.979166666666664,"velocity":0.8031496062992126,"duration":0.18359375},{"name":"E3","midi":52,"time":43.166666666666664,"velocity":0.8031496062992126,"duration":0.37109375},{"name":"G#5","midi":80,"time":43.166666666666664,"velocity":0.8031496062992126,"duration":0.18359375},{"name":"F#5","midi":78,"time":43.354166666666664,"velocity":0.8031496062992126,"duration":0.18359375},{"name":"E4","midi":64,"time":43.541666666666664,"velocity":0.8031496062992126,"duration":0.37109375},{"name":"G#5","midi":80,"time":43.541666666666664,"velocity":0.8031496062992126,"duration":0.18359375},{"name":"B5","midi":83,"time":43.729166666666664,"velocity":0.8031496062992126,"duration":0.18359375},{"name":"D4","midi":62,"time":43.916666666666664,"velocity":0.8031496062992126,"duration":0.18359375},{"name":"E5","midi":76,"time":43.916666666666664,"velocity":0.8031496062992126,"duration":0.18359375},{"name":"B3","midi":59,"time":44.104166666666664,"velocity":0.8031496062992126,"duration":0.18359375},{"name":"G#5","midi":80,"time":44.104166666666664,"velocity":0.8031496062992126,"duration":0.18359375},{"name":"C4","midi":60,"time":44.291666666666664,"velocity":0.8031496062992126,"duration":0.18359375},{"name":"A5","midi":81,"time":44.291666666666664,"velocity":0.8031496062992126,"duration":0.18359375},{"name":"A3","midi":57,"time":44.479166666666664,"velocity":0.8031496062992126,"duration":0.18359375},{"name":"C5","midi":72,"time":44.479166666666664,"velocity":0.8031496062992126,"duration":0.18359375},{"name":"B3","midi":59,"time":44.666666666666664,"velocity":0.8031496062992126,"duration":0.37109375},{"name":"D5","midi":74,"time":44.666666666666664,"velocity":0.8031496062992126,"duration":0.3385416666666643},{"name":"F5","midi":77,"time":44.854166666666664,"velocity":0.8031496062992126,"duration":0.1953125},{"name":"A3","midi":57,"time":45.041666666666664,"velocity":0.8031496062992126,"duration":0.37109375},{"name":"C5","midi":72,"time":45.041666666666664,"velocity":0.8031496062992126,"duration":0.29296875},{"name":"F5","midi":77,"time":45.229166666666664,"velocity":0.8031496062992126,"duration":0.21484375},{"name":"G#3","midi":56,"time":45.416666666666664,"velocity":0.8031496062992126,"duration":0.37109375},{"name":"B4","midi":71,"time":45.416666666666664,"velocity":0.8031496062992126,"duration":0.2734375},{"name":"F5","midi":77,"time":45.604166666666664,"velocity":0.8031496062992126,"duration":0.234375},{"name":"A3","midi":57,"time":45.791666666666664,"velocity":0.8031496062992126,"duration":0.37109375},{"name":"C5","midi":72,"time":45.791666666666664,"velocity":0.8031496062992126,"duration":0.25390625},{"name":"F5","midi":77,"time":45.979166666666664,"velocity":0.8031496062992126,"duration":0.25390625},{"name":"B3","midi":59,"time":46.166666666666664,"velocity":0.8031496062992126,"duration":0.37109375},{"name":"B4","midi":71,"time":46.166666666666664,"velocity":0.8031496062992126,"duration":0.234375},{"name":"F5","midi":77,"time":46.354166666666664,"velocity":0.8031496062992126,"duration":0.2734375},{"name":"C4","midi":60,"time":46.541666666666664,"velocity":0.8031496062992126,"duration":0.37109375},{"name":"A4","midi":69,"time":46.541666666666664,"velocity":0.8031496062992126,"duration":0.21484375},{"name":"F5","midi":77,"time":46.729166666666664,"velocity":0.8031496062992126,"duration":0.29296875},{"name":"D4","midi":62,"time":46.916666666666664,"velocity":0.8031496062992126,"duration":0.37109375},{"name":"G#4","midi":68,"time":46.916666666666664,"velocity":0.8031496062992126,"duration":0.3385416666666643},{"name":"B4","midi":71,"time":47.104166666666664,"velocity":0.8031496062992126,"duration":0.18359375},{"name":"D3","midi":50,"time":47.291666666666664,"velocity":0.8031496062992126,"duration":0.37109375},{"name":"E5","midi":76,"time":47.291666666666664,"velocity":0.8031496062992126,"duration":0.18359375},{"name":"E4","midi":64,"time":47.479166666666664,"velocity":0.8031496062992126,"duration":0.18359375},{"name":"C3","midi":48,"time":47.666666666666664,"velocity":0.8031496062992126,"duration":0.37109375},{"name":"A4","midi":69,"time":47.666666666666664,"velocity":0.8031496062992126,"duration":0.3125},{"name":"C5","midi":72,"time":47.854166666666664,"velocity":0.8031496062992126,"duration":0.18359375},{"name":"C4","midi":60,"time":48.041666666666664,"velocity":0.8031496062992126,"duration":0.37109375},{"name":"E5","midi":76,"time":48.041666666666664,"velocity":0.8031496062992126,"duration":0.18359375},{"name":"E4","midi":64,"time":48.229166666666664,"velocity":0.8031496062992126,"duration":0.18359375},{"name":"B3","midi":59,"time":48.416666666666664,"velocity":0.8031496062992126,"duration":0.37109375},{"name":"G#4","midi":68,"time":48.416666666666664,"velocity":0.8031496062992126,"duration":0.2864583333333357},{"name":"B4","midi":71,"time":48.604166666666664,"velocity":0.8031496062992126,"duration":0.18359375},{"name":"E3","midi":52,"time":48.791666666666664,"velocity":0.8031496062992126,"duration":0.37109375},{"name":"D5","midi":74,"time":48.791666666666664,"velocity":0.8031496062992126,"duration":0.18359375},{"name":"E4","midi":64,"time":48.979166666666664,"velocity":0.8031496062992126,"duration":0.18359375},{"name":"A2","midi":45,"time":49.166666666666664,"velocity":0.8031496062992126,"duration":0.37109375},{"name":"C5","midi":72,"time":49.166666666666664,"velocity":0.8031496062992126,"duration":0.18359375},{"name":"B4","midi":71,"time":49.354166666666664,"velocity":0.8031496062992126,"duration":0.18359375},{"name":"A3","midi":57,"time":49.541666666666664,"velocity":0.8031496062992126,"duration":0.55859375},{"name":"A4","midi":69,"time":49.541666666666664,"velocity":0.8031496062992126,"duration":0.18359375},{"name":"G4","midi":67,"time":49.729166666666664,"velocity":0.8031496062992126,"duration":0.18359375},{"name":"F4","midi":65,"time":49.916666666666664,"velocity":0.8031496062992126,"duration":0.18359375},{"name":"G3","midi":55,"time":50.104166666666664,"velocity":0.8031496062992126,"duration":0.18359375},{"name":"E4","midi":64,"time":50.104166666666664,"velocity":0.8031496062992126,"duration":0.18359375},{"name":"F3","midi":53,"time":50.291666666666664,"velocity":0.8031496062992126,"duration":0.18359375},{"name":"D4","midi":62,"time":50.291666666666664,"velocity":0.8031496062992126,"duration":0.18359375},{"name":"E3","midi":52,"time":50.479166666666664,"velocity":0.8031496062992126,"duration":0.18359375},{"name":"E4","midi":64,"time":50.479166666666664,"velocity":0.8031496062992126,"duration":0.18359375},{"name":"D3","midi":50,"time":50.666666666666664,"velocity":0.8031496062992126,"duration":0.18359375},{"name":"F4","midi":65,"time":50.666666666666664,"velocity":0.8031496062992126,"duration":0.18359375},{"name":"C3","midi":48,"time":50.854166666666664,"velocity":0.8031496062992126,"duration":0.18359375},{"name":"E4","midi":64,"time":50.854166666666664,"velocity":0.8031496062992126,"duration":0.18359375},{"name":"D3","midi":50,"time":51.041666666666664,"velocity":0.8031496062992126,"duration":0.18359375},{"name":"F4","midi":65,"time":51.041666666666664,"velocity":0.8031496062992126,"duration":0.18359375},{"name":"D2","midi":38,"time":51.229166666666664,"velocity":0.8031496062992126,"duration":0.18359375},{"name":"C5","midi":72,"time":51.229166666666664,"velocity":0.8031496062992126,"duration":0.18359375},{"name":"G2","midi":43,"time":51.416666666666664,"velocity":0.8031496062992126,"duration":0.37109375},{"name":"B4","midi":71,"time":51.416666666666664,"velocity":0.8031496062992126,"duration":0.18359375},{"name":"A4","midi":69,"time":51.604166666666664,"velocity":0.8031496062992126,"duration":0.18359375},{"name":"G3","midi":55,"time":51.791666666666664,"velocity":0.8031496062992126,"duration":0.55859375},{"name":"G4","midi":67,"time":51.791666666666664,"velocity":0.8031496062992126,"duration":0.18359375},{"name":"F4","midi":65,"time":51.979166666666664,"velocity":0.8031496062992126,"duration":0.18359375},{"name":"E4","midi":64,"time":52.166666666666664,"velocity":0.8031496062992126,"duration":0.18359375},{"name":"F3","midi":53,"time":52.354166666666664,"velocity":0.8031496062992126,"duration":0.18359375},{"name":"D4","midi":62,"time":52.354166666666664,"velocity":0.8031496062992126,"duration":0.18359375},{"name":"E3","midi":52,"time":52.541666666666664,"velocity":0.8031496062992126,"duration":0.18359375},{"name":"C4","midi":60,"time":52.541666666666664,"velocity":0.8031496062992126,"duration":0.18359375},{"name":"D3","midi":50,"time":52.729166666666664,"velocity":0.8031496062992126,"duration":0.18359375},{"name":"D4","midi":62,"time":52.729166666666664,"velocity":0.8031496062992126,"duration":0.18359375},{"name":"C3","midi":48,"time":52.916666666666664,"velocity":0.8031496062992126,"duration":0.18359375},{"name":"E4","midi":64,"time":52.916666666666664,"velocity":0.8031496062992126,"duration":0.18359375},{"name":"A#2","midi":46,"time":53.104166666666664,"velocity":0.8031496062992126,"duration":0.18359375},{"name":"D4","midi":62,"time":53.104166666666664,"velocity":0.8031496062992126,"duration":0.18359375},{"name":"C3","midi":48,"time":53.291666666666664,"velocity":0.8031496062992126,"duration":0.18359375},{"name":"E4","midi":64,"time":53.291666666666664,"velocity":0.8031496062992126,"duration":0.18359375},{"name":"C2","midi":36,"time":53.479166666666664,"velocity":0.8031496062992126,"duration":0.18359375},{"name":"A#4","midi":70,"time":53.479166666666664,"velocity":0.8031496062992126,"duration":0.18359375},{"name":"F2","midi":41,"time":53.666666666666664,"velocity":0.8031496062992126,"duration":0.37109375},{"name":"A4","midi":69,"time":53.666666666666664,"velocity":0.8031496062992126,"duration":0.18359375},{"name":"G4","midi":67,"time":53.854166666666664,"velocity":0.8031496062992126,"duration":0.18359375},{"name":"A2","midi":45,"time":54.041666666666664,"velocity":0.8031496062992126,"duration":0.37109375},{"name":"F4","midi":65,"time":54.041666666666664,"velocity":0.8031496062992126,"duration":0.18359375},{"name":"E4","midi":64,"time":54.229166666666664,"velocity":0.8031496062992126,"duration":0.18359375},{"name":"D2","midi":38,"time":54.416666666666664,"velocity":0.8031496062992126,"duration":0.37109375},{"name":"F4","midi":65,"time":54.416666666666664,"velocity":0.8031496062992126,"duration":0.18359375},{"name":"E4","midi":64,"time":54.604166666666664,"velocity":0.8031496062992126,"duration":0.18359375},{"name":"D3","midi":50,"time":54.791666666666664,"velocity":0.8031496062992126,"duration":0.18359375},{"name":"F4","midi":65,"time":54.791666666666664,"velocity":0.8031496062992126,"duration":0.18359375},{"name":"C3","midi":48,"time":54.979166666666664,"velocity":0.8031496062992126,"duration":0.18359375},{"name":"A4","midi":69,"time":54.979166666666664,"velocity":0.8031496062992126,"duration":0.18359375},{"name":"B2","midi":47,"time":55.166666666666664,"velocity":0.8031496062992126,"duration":0.18359375},{"name":"G#4","midi":68,"time":55.166666666666664,"velocity":0.8031496062992126,"duration":0.18359375},{"name":"G#2","midi":44,"time":55.354166666666664,"velocity":0.8031496062992126,"duration":0.18359375},{"name":"B4","midi":71,"time":55.354166666666664,"velocity":0.8031496062992126,"duration":0.18359375},{"name":"A2","midi":45,"time":55.541666666666664,"velocity":0.8031496062992126,"duration":0.18359375},{"name":"A4","midi":69,"time":55.541666666666664,"velocity":0.8031496062992126,"duration":0.18359375},{"name":"F#2","midi":42,"time":55.729166666666664,"velocity":0.8031496062992126,"duration":0.18359375},{"name":"C5","midi":72,"time":55.729166666666664,"velocity":0.8031496062992126,"duration":0.18359375},{"name":"G#2","midi":44,"time":55.916666666666664,"velocity":0.8031496062992126,"duration":0.9375},{"name":"B4","midi":71,"time":55.916666666666664,"velocity":0.8031496062992126,"duration":0.18359375},{"name":"C5","midi":72,"time":56.104166666666664,"velocity":0.8031496062992126,"duration":0.18359375},{"name":"D5","midi":74,"time":56.291666666666664,"velocity":0.8031496062992126,"duration":0.18359375},{"name":"B4","midi":71,"time":56.479166666666664,"velocity":0.8031496062992126,"duration":0.18359375},{"name":"G#4","midi":68,"time":56.666666666666664,"velocity":0.8031496062992126,"duration":0.18359375},{"name":"E4","midi":64,"time":56.854166666666664,"velocity":0.8031496062992126,"duration":0.18359375},{"name":"B2","midi":47,"time":57.041666666666664,"velocity":0.8031496062992126,"duration":0.37109375},{"name":"F4","midi":65,"time":57.041666666666664,"velocity":0.8031496062992126,"duration":0.18359375},{"name":"D4","midi":62,"time":57.229166666666664,"velocity":0.8031496062992126,"duration":0.18359375},{"name":"G#2","midi":44,"time":57.416666666666664,"velocity":0.8031496062992126,"duration":0.37109375},{"name":"E4","midi":64,"time":57.416666666666664,"velocity":0.8031496062992126,"duration":0.18359375},{"name":"C4","midi":60,"time":57.604166666666664,"velocity":0.8031496062992126,"duration":0.18359375},{"name":"E2","midi":40,"time":57.791666666666664,"velocity":0.8031496062992126,"duration":0.37109375},{"name":"D4","midi":62,"time":57.791666666666664,"velocity":0.8031496062992126,"duration":0.18359375},{"name":"B3","midi":59,"time":57.979166666666664,"velocity":0.8031496062992126,"duration":0.18359375},{"name":"A2","midi":45,"time":58.166666666666664,"velocity":0.8031496062992126,"duration":0.9375},{"name":"C4","midi":60,"time":58.166666666666664,"velocity":0.8031496062992126,"duration":0.18359375},{"name":"E4","midi":64,"time":58.354166666666664,"velocity":0.8031496062992126,"duration":0.18359375},{"name":"A4","midi":69,"time":58.541666666666664,"velocity":0.8031496062992126,"duration":0.18359375},{"name":"G#4","midi":68,"time":58.729166666666664,"velocity":0.8031496062992126,"duration":0.18359375},{"name":"A4","midi":69,"time":58.916666666666664,"velocity":0.8031496062992126,"duration":0.18359375},{"name":"D4","midi":62,"time":59.104166666666664,"velocity":0.8031496062992126,"duration":0.18359375},{"name":"C3","midi":48,"time":59.291666666666664,"velocity":0.8031496062992126,"duration":0.37109375},{"name":"E4","midi":64,"time":59.291666666666664,"velocity":0.8031496062992126,"duration":0.18359375},{"name":"C4","midi":60,"time":59.479166666666664,"velocity":0.8031496062992126,"duration":0.18359375},{"name":"B2","midi":47,"time":59.666666666666664,"velocity":0.8031496062992126,"duration":0.37109375},{"name":"D4","midi":62,"time":59.666666666666664,"velocity":0.8031496062992126,"duration":0.18359375},{"name":"B3","midi":59,"time":59.854166666666664,"velocity":0.8031496062992126,"duration":0.18359375},{"name":"A2","midi":45,"time":60.041666666666664,"velocity":0.8031496062992126,"duration":0.37109375},{"name":"C4","midi":60,"time":60.041666666666664,"velocity":0.8031496062992126,"duration":0.18359375},{"name":"A3","midi":57,"time":60.229166666666664,"velocity":0.8031496062992126,"duration":0.18359375},{"name":"E3","midi":52,"time":60.416666666666664,"velocity":0.8031496062992126,"duration":1.09375},{"name":"G#3","midi":56,"time":60.416666666666664,"velocity":0.8031496062992126,"duration":0.18359375},{"name":"E4","midi":64,"time":60.604166666666664,"velocity":0.8031496062992126,"duration":0.18359375},{"name":"B4","midi":71,"time":60.791666666666664,"velocity":0.8031496062992126,"duration":0.18359375},{"name":"A4","midi":69,"time":60.979166666666664,"velocity":0.8031496062992126,"duration":0.18359375},{"name":"B4","midi":71,"time":61.166666666666664,"velocity":0.8031496062992126,"duration":0.18359375},{"name":"E4","midi":64,"time":61.354166666666664,"velocity":0.8031496062992126,"duration":0.18359375},{"name":"E3","midi":52,"time":61.541666666666664,"velocity":0.8031496062992126,"duration":0.37109375},{"name":"F4","midi":65,"time":61.541666666666664,"velocity":0.8031496062992126,"duration":0.18359375},{"name":"D4","midi":62,"time":61.729166666666664,"velocity":0.8031496062992126,"duration":0.18359375},{"name":"F#3","midi":54,"time":61.916666666666664,"velocity":0.8031496062992126,"duration":0.37109375},{"name":"E4","midi":64,"time":61.916666666666664,"velocity":0.8031496062992126,"duration":0.18359375},{"name":"C4","midi":60,"time":62.104166666666664,"velocity":0.8031496062992126,"duration":0.18359375},{"name":"G#3","midi":56,"time":62.291666666666664,"velocity":0.8031496062992126,"duration":0.37109375},{"name":"D4","midi":62,"time":62.291666666666664,"velocity":0.8031496062992126,"duration":0.18359375},{"name":"B3","midi":59,"time":62.479166666666664,"velocity":0.8031496062992126,"duration":0.18359375},{"name":"A3","midi":57,"time":62.666666666666664,"velocity":0.8031496062992126,"duration":0.55859375},{"name":"C4","midi":60,"time":62.666666666666664,"velocity":0.8031496062992126,"duration":0.18359375},{"name":"D4","midi":62,"time":62.854166666666664,"velocity":0.8031496062992126,"duration":0.18359375},{"name":"E4","midi":64,"time":63.041666666666664,"velocity":0.8031496062992126,"duration":0.18359375},{"name":"G#3","midi":56,"time":63.229166666666664,"velocity":0.8031496062992126,"duration":0.18359375},{"name":"B3","midi":59,"time":63.229166666666664,"velocity":0.8031496062992126,"duration":0.18359375},{"name":"A3","midi":57,"time":63.416666666666664,"velocity":0.8031496062992126,"duration":0.18359375},{"name":"C4","midi":60,"time":63.416666666666664,"velocity":0.8031496062992126,"duration":0.37109375},{"name":"E3","midi":52,"time":63.604166666666664,"velocity":0.8031496062992126,"duration":0.18359375},{"name":"F3","midi":53,"time":63.791666666666664,"velocity":0.8031496062992126,"duration":0.18359375},{"name":"D4","midi":62,"time":63.791666666666664,"velocity":0.8031496062992126,"duration":0.3710937499999929},{"name":"D3","midi":50,"time":63.979166666666664,"velocity":0.8031496062992126,"duration":0.1835937499999929},{"name":"E3","midi":52,"time":64.16666666666666,"velocity":0.8031496062992126,"duration":0.18359375},{"name":"C4","midi":60,"time":64.16666666666666,"velocity":0.8031496062992126,"duration":0.37109375},{"name":"C3","midi":48,"time":64.35416666666666,"velocity":0.8031496062992126,"duration":0.18359375},{"name":"D3","midi":50,"time":64.54166666666666,"velocity":0.8031496062992126,"duration":0.18359375},{"name":"B3","midi":59,"time":64.54166666666666,"velocity":0.8031496062992126,"duration":0.37109375},{"name":"B2","midi":47,"time":64.72916666666666,"velocity":0.8031496062992126,"duration":0.18359375},{"name":"C3","midi":48,"time":64.91666666666666,"velocity":0.8031496062992126,"duration":0.18359375},{"name":"A3","midi":57,"time":64.91666666666666,"velocity":0.8031496062992126,"duration":0.18359375},{"name":"D3","midi":50,"time":65.10416666666666,"velocity":0.8031496062992126,"duration":0.18359375},{"name":"B3","midi":59,"time":65.10416666666666,"velocity":0.8031496062992126,"duration":0.18359375},{"name":"E3","midi":52,"time":65.29166666666666,"velocity":0.8031496062992126,"duration":0.18359375},{"name":"C4","midi":60,"time":65.29166666666666,"velocity":0.8031496062992126,"duration":0.18359375},{"name":"B2","midi":47,"time":65.47916666666666,"velocity":0.8031496062992126,"duration":0.18359375},{"name":"G#3","midi":56,"time":65.47916666666666,"velocity":0.8031496062992126,"duration":0.18359375},{"name":"C3","midi":48,"time":65.66666666666666,"velocity":0.8031496062992126,"duration":0.37109375},{"name":"A3","midi":57,"time":65.66666666666666,"velocity":0.8031496062992126,"duration":0.18359375},{"name":"E3","midi":52,"time":65.85416666666666,"velocity":0.8031496062992126,"duration":0.18359375},{"name":"D3","midi":50,"time":66.04166666666666,"velocity":0.8031496062992126,"duration":0.37109375},{"name":"F3","midi":53,"time":66.04166666666666,"velocity":0.8031496062992126,"duration":0.2734375},{"name":"B3","midi":59,"time":66.22916666666666,"velocity":0.8031496062992126,"duration":0.1953125},{"name":"C3","midi":48,"time":66.41666666666666,"velocity":0.8031496062992126,"duration":0.37109375},{"name":"E3","midi":52,"time":66.41666666666666,"velocity":0.8031496062992126,"duration":0.2734375},{"name":"A3","midi":57,"time":66.60416666666666,"velocity":0.8031496062992126,"duration":0.2083333333333286},{"name":"B2","midi":47,"time":66.79166666666666,"velocity":0.8031496062992126,"duration":0.37109375},{"name":"D3","midi":50,"time":66.79166666666666,"velocity":0.8031496062992126,"duration":0.2734375},{"name":"G#3","midi":56,"time":66.97916666666666,"velocity":0.8031496062992126,"duration":0.18359375},{"name":"A2","midi":45,"time":67.16666666666666,"velocity":0.8031496062992126,"duration":0.55859375},{"name":"C3","midi":48,"time":67.16666666666666,"velocity":0.8031496062992126,"duration":0.37109375},{"name":"E3","midi":52,"time":67.35416666666666,"velocity":0.8031496062992126,"duration":0.18359375},{"name":"A3","midi":57,"time":67.54166666666666,"velocity":0.8031496062992126,"duration":0.546875},{"name":"G#2","midi":44,"time":67.72916666666666,"velocity":0.8031496062992126,"duration":0.18359375},{"name":"B2","midi":47,"time":67.72916666666666,"velocity":0.8031496062992126,"duration":0.18359375},{"name":"A2","midi":45,"time":67.91666666666666,"velocity":0.8031496062992126,"duration":0.18359375},{"name":"C3","midi":48,"time":67.91666666666666,"velocity":0.8031496062992126,"duration":0.37109375},{"name":"E2","midi":40,"time":68.10416666666666,"velocity":0.8031496062992126,"duration":0.18359375},{"name":"B2","midi":47,"time":68.29166666666666,"velocity":0.8031496062992126,"duration":0.18359375},{"name":"G#3","midi":56,"time":68.29166666666666,"velocity":0.8031496062992126,"duration":0.3411458333333286},{"name":"D3","midi":50,"time":68.29166666666666,"velocity":0.8031496062992126,"duration":0.3411458333333286},{"name":"E2","midi":40,"time":68.47916666666666,"velocity":0.8031496062992126,"duration":0.18359375},{"name":"C3","midi":48,"time":68.66666666666666,"velocity":0.8031496062992126,"duration":0.18359375},{"name":"E3","midi":52,"time":68.66666666666666,"velocity":0.8031496062992126,"duration":0.2734375},{"name":"A3","midi":57,"time":68.66666666666666,"velocity":0.8031496062992126,"duration":0.18359375},{"name":"E2","midi":40,"time":68.85416666666666,"velocity":0.8031496062992126,"duration":0.18359375},{"name":"C4","midi":60,"time":68.85416666666666,"velocity":0.8031496062992126,"duration":0.18359375},{"name":"D3","midi":50,"time":69.04166666666666,"velocity":0.8031496062992126,"duration":0.18359375},{"name":"B3","midi":59,"time":69.04166666666666,"velocity":0.8031496062992126,"duration":0.18359375},{"name":"F3","midi":53,"time":69.04166666666666,"velocity":0.8031496062992126,"duration":0.2734375},{"name":"E2","midi":40,"time":69.22916666666666,"velocity":0.8031496062992126,"duration":0.18359375},{"name":"D4","midi":62,"time":69.22916666666666,"velocity":0.8031496062992126,"duration":0.18359375},{"name":"E3","midi":52,"time":69.41666666666666,"velocity":0.8031496062992126,"duration":0.7421875},{"name":"G#3","midi":56,"time":69.41666666666666,"velocity":0.8031496062992126,"duration":0.18359375},{"name":"B3","midi":59,"time":69.60416666666666,"velocity":0.8031496062992126,"duration":0.18359375},{"name":"E2","midi":40,"time":69.79166666666666,"velocity":0.8031496062992126,"duration":0.7421875},{"name":"D4","midi":62,"time":69.79166666666666,"velocity":0.8031496062992126,"duration":0.18359375},{"name":"F4","midi":65,"time":69.97916666666666,"velocity":0.8031496062992126,"duration":0.18359375},{"name":"D4","midi":62,"time":70.16666666666666,"velocity":0.8031496062992126,"duration":0.18359375},{"name":"B3","midi":59,"time":70.35416666666666,"velocity":0.8031496062992126,"duration":0.18359375},{"name":"G#3","midi":56,"time":70.54166666666666,"velocity":0.8031496062992126,"duration":0.18359375},{"name":"B3","midi":59,"time":70.72916666666666,"velocity":0.8031496062992126,"duration":0.1848958333333286},{"name":"E3","midi":52,"time":70.91666666666666,"velocity":0.8031496062992126,"duration":0.37109375},{"name":"D4","midi":62,"time":71.10416666666666,"velocity":0.8031496062992126,"duration":0.18359375},{"name":"C4","midi":60,"time":71.29166666666666,"velocity":0.8031496062992126,"duration":0.18359375},{"name":"B3","midi":59,"time":71.47916666666666,"velocity":0.8031496062992126,"duration":0.18359375},{"name":"A3","midi":57,"time":71.66666666666666,"velocity":0.8031496062992126,"duration":0.55859375},{"name":"C4","midi":60,"time":71.66666666666666,"velocity":0.8031496062992126,"duration":0.37109375},{"name":"E4","midi":64,"time":71.85416666666666,"velocity":0.8031496062992126,"duration":0.18359375},{"name":"A4","midi":69,"time":72.04166666666666,"velocity":0.8031496062992126,"duration":0.546875},{"name":"G#3","midi":56,"time":72.22916666666666,"velocity":0.8031496062992126,"duration":0.18359375},{"name":"B3","midi":59,"time":72.22916666666666,"velocity":0.8031496062992126,"duration":0.18359375},{"name":"A3","midi":57,"time":72.41666666666666,"velocity":0.8031496062992126,"duration":0.18359375},{"name":"C4","midi":60,"time":72.41666666666666,"velocity":0.8031496062992126,"duration":0.37109375},{"name":"E3","midi":52,"time":72.60416666666666,"velocity":0.8031496062992126,"duration":0.18359375},{"name":"B3","midi":59,"time":72.79166666666666,"velocity":0.8031496062992126,"duration":0.18359375},{"name":"D4","midi":62,"time":72.79166666666666,"velocity":0.8031496062992126,"duration":0.37109375},{"name":"G#4","midi":68,"time":72.79166666666666,"velocity":0.8031496062992126,"duration":0.37109375},{"name":"E3","midi":52,"time":72.97916666666666,"velocity":0.8031496062992126,"duration":0.18359375},{"name":"C4","midi":60,"time":73.16666666666666,"velocity":0.8031496062992126,"duration":0.18359375},{"name":"E4","midi":64,"time":73.16666666666666,"velocity":0.8031496062992126,"duration":0.37109375},{"name":"A4","midi":69,"time":73.16666666666666,"velocity":0.8031496062992126,"duration":0.18359375},{"name":"E3","midi":52,"time":73.35416666666666,"velocity":0.8031496062992126,"duration":0.18359375},{"name":"C5","midi":72,"time":73.35416666666666,"velocity":0.8031496062992126,"duration":0.18359375},{"name":"D4","midi":62,"time":73.54166666666666,"velocity":0.8031496062992126,"duration":0.18359375},{"name":"B4","midi":71,"time":73.54166666666666,"velocity":0.8031496062992126,"duration":0.18359375},{"name":"F4","midi":65,"time":73.54166666666666,"velocity":0.8031496062992126,"duration":0.37109375},{"name":"E3","midi":52,"time":73.72916666666666,"velocity":0.8031496062992126,"duration":0.18359375},{"name":"D5","midi":74,"time":73.72916666666666,"velocity":0.8031496062992126,"duration":0.18359375},{"name":"E4","midi":64,"time":73.91666666666666,"velocity":0.8031496062992126,"duration":1.49609375},{"name":"G#4","midi":68,"time":73.91666666666666,"velocity":0.8031496062992126,"duration":0.9375},{"name":"B4","midi":71,"time":74.10416666666666,"velocity":0.8031496062992126,"duration":0.546875},{"name":"E3","midi":52,"time":74.29166666666666,"velocity":0.8031496062992126,"duration":0.7421875},{"name":"D5","midi":74,"time":74.29166666666666,"velocity":0.8031496062992126,"duration":0.18359375},{"name":"F5","midi":77,"time":74.47916666666666,"velocity":0.8031496062992126,"duration":0.18359375},{"name":"D5","midi":74,"time":74.66666666666666,"velocity":0.8031496062992126,"duration":0.18359375},{"name":"B4","midi":71,"time":74.85416666666666,"velocity":0.8031496062992126,"duration":0.18359375},{"name":"G#4","midi":68,"time":75.04166666666666,"velocity":0.8031496062992126,"duration":0.1848958333333286},{"name":"B4","midi":71,"time":75.22916666666666,"velocity":0.8031496062992126,"duration":0.37109375},{"name":"E4","midi":64,"time":75.41666666666666,"velocity":0.8031496062992126,"duration":0.7421875},{"name":"D5","midi":74,"time":75.60416666666666,"velocity":0.8031496062992126,"duration":0.18359375},{"name":"C5","midi":72,"time":75.79166666666666,"velocity":0.8031496062992126,"duration":0.18359375},{"name":"B4","midi":71,"time":75.97916666666666,"velocity":0.8031496062992126,"duration":0.18359375},{"name":"A4","midi":69,"time":76.16666666666666,"velocity":0.8031496062992126,"duration":0.55859375},{"name":"C5","midi":72,"time":76.16666666666666,"velocity":0.8031496062992126,"duration":0.546875},{"name":"E5","midi":76,"time":76.35416666666666,"velocity":0.8031496062992126,"duration":0.18359375},{"name":"A5","midi":81,"time":76.54166666666666,"velocity":0.8031496062992126,"duration":0.7421875},{"name":"G#4","midi":68,"time":76.72916666666666,"velocity":0.8031496062992126,"duration":0.18359375},{"name":"B4","midi":71,"time":76.72916666666666,"velocity":0.8031496062992126,"duration":0.18359375},{"name":"A4","midi":69,"time":76.91666666666666,"velocity":0.8031496062992126,"duration":0.3515625},{"name":"C5","midi":72,"time":76.91666666666666,"velocity":0.8031496062992126,"duration":0.37109375},{"name":"E4","midi":64,"time":77.10416666666666,"velocity":0.8031496062992126,"duration":0.37109375},{"name":"B4","midi":71,"time":77.29166666666666,"velocity":0.8031496062992126,"duration":0.3515625},{"name":"G#5","midi":80,"time":77.29166666666666,"velocity":0.8031496062992126,"duration":0.37109375},{"name":"D5","midi":74,"time":77.29166666666666,"velocity":0.8031496062992126,"duration":0.37109375},{"name":"E4","midi":64,"time":77.47916666666666,"velocity":0.8031496062992126,"duration":0.37109375},{"name":"C5","midi":72,"time":77.66666666666666,"velocity":0.8031496062992126,"duration":0.3515625},{"name":"E5","midi":76,"time":77.66666666666666,"velocity":0.8031496062992126,"duration":0.37109375},{"name":"A5","midi":81,"time":77.66666666666666,"velocity":0.8031496062992126,"duration":0.18359375},{"name":"E4","midi":64,"time":77.85416666666666,"velocity":0.8031496062992126,"duration":0.37109375},{"name":"C6","midi":84,"time":77.85416666666666,"velocity":0.8031496062992126,"duration":0.18359375},{"name":"D5","midi":74,"time":78.04166666666666,"velocity":0.8031496062992126,"duration":0.3515625},{"name":"F5","midi":77,"time":78.04166666666666,"velocity":0.8031496062992126,"duration":0.37109375},{"name":"B5","midi":83,"time":78.04166666666666,"velocity":0.8031496062992126,"duration":0.18359375},{"name":"E4","midi":64,"time":78.22916666666666,"velocity":0.8031496062992126,"duration":0.546875},{"name":"A5","midi":81,"time":78.22916666666666,"velocity":0.8031496062992126,"duration":0.18359375},{"name":"E5","midi":76,"time":78.41666666666666,"velocity":0.8031496062992126,"duration":0.7421875},{"name":"G#5","midi":80,"time":78.41666666666666,"velocity":0.8031496062992126,"duration":0.18359375},{"name":"F#5","midi":78,"time":78.60416666666666,"velocity":0.8031496062992126,"duration":0.18359375},{"name":"E4","midi":64,"time":78.79166666666666,"velocity":0.8031496062992126,"duration":0.7421875},{"name":"G#5","midi":80,"time":78.79166666666666,"velocity":0.8031496062992126,"duration":0.18359375},{"name":"B5","midi":83,"time":78.97916666666666,"velocity":0.8031496062992126,"duration":0.18359375},{"name":"E5","midi":76,"time":79.16666666666666,"velocity":0.8031496062992126,"duration":0.7421875},{"name":"A5","midi":81,"time":79.16666666666666,"velocity":0.8031496062992126,"duration":0.18359375},{"name":"G#5","midi":80,"time":79.35416666666666,"velocity":0.8031496062992126,"duration":0.18359375},{"name":"E4","midi":64,"time":79.54166666666666,"velocity":0.8031496062992126,"duration":0.7421875},{"name":"A5","midi":81,"time":79.54166666666666,"velocity":0.8031496062992126,"duration":0.18359375},{"name":"C6","midi":84,"time":79.72916666666666,"velocity":0.8031496062992126,"duration":0.18359375},{"name":"D5","midi":74,"time":79.91666666666666,"velocity":0.8031496062992126,"duration":0.703125},{"name":"G#5","midi":80,"time":79.91666666666666,"velocity":0.8031496062992126,"duration":0.18359375},{"name":"F#5","midi":78,"time":80.10416666666666,"velocity":0.8031496062992126,"duration":0.18359375},{"name":"E4","midi":64,"time":80.29166666666666,"velocity":0.8031496062992126,"duration":0.7421875},{"name":"G#5","midi":80,"time":80.29166666666666,"velocity":0.8031496062992126,"duration":0.18359375},{"name":"B5","midi":83,"time":80.47916666666666,"velocity":0.8031496062992126,"duration":0.18359375},{"name":"C5","midi":72,"time":80.66666666666666,"velocity":0.8031496062992126,"duration":0.6640625},{"name":"F#5","midi":78,"time":80.66666666666666,"velocity":0.8031496062992126,"duration":0.18359375},{"name":"E5","midi":76,"time":80.85416666666666,"velocity":0.8031496062992126,"duration":0.18359375},{"name":"E4","midi":64,"time":81.04166666666666,"velocity":0.8031496062992126,"duration":0.7421875},{"name":"F#5","midi":78,"time":81.04166666666666,"velocity":0.8031496062992126,"duration":0.18359375},{"name":"A5","midi":81,"time":81.22916666666666,"velocity":0.8031496062992126,"duration":0.18359375},{"name":"D5","midi":74,"time":81.41666666666666,"velocity":0.8031496062992126,"duration":0.625},{"name":"F5","midi":77,"time":81.41666666666666,"velocity":0.8031496062992126,"duration":0.18359375},{"name":"E5","midi":76,"time":81.60416666666666,"velocity":0.8031496062992126,"duration":0.18359375},{"name":"E4","midi":64,"time":81.79166666666666,"velocity":0.8031496062992126,"duration":0.7421875},{"name":"F5","midi":77,"time":81.79166666666666,"velocity":0.8031496062992126,"duration":0.18359375},{"name":"B5","midi":83,"time":81.97916666666666,"velocity":0.8031496062992126,"duration":0.18359375},{"name":"C5","midi":72,"time":82.16666666666666,"velocity":0.8031496062992126,"duration":0.5859375},{"name":"E5","midi":76,"time":82.16666666666666,"velocity":0.8031496062992126,"duration":0.18359375},{"name":"D5","midi":74,"time":82.35416666666666,"velocity":0.8031496062992126,"duration":0.18359375},{"name":"E4","midi":64,"time":82.54166666666666,"velocity":0.8031496062992126,"duration":0.7421875},{"name":"E5","midi":76,"time":82.54166666666666,"velocity":0.8031496062992126,"duration":0.18359375},{"name":"A5","midi":81,"time":82.72916666666666,"velocity":0.8031496062992126,"duration":0.18359375},{"name":"B4","midi":71,"time":82.91666666666666,"velocity":0.8031496062992126,"duration":0.546875},{"name":"D5","midi":74,"time":82.91666666666666,"velocity":0.8031496062992126,"duration":0.18359375},{"name":"C5","midi":72,"time":83.10416666666666,"velocity":0.8031496062992126,"duration":0.18359375},{"name":"E4","midi":64,"time":83.29166666666666,"velocity":0.8031496062992126,"duration":0.7421875},{"name":"D5","midi":74,"time":83.29166666666666,"velocity":0.8031496062992126,"duration":0.18359375},{"name":"G#5","midi":80,"time":83.47916666666666,"velocity":0.8031496062992126,"duration":0.18359375},{"name":"C5","midi":72,"time":83.66666666666666,"velocity":0.8031496062992126,"duration":0.5078125},{"name":"E5","midi":76,"time":83.66666666666666,"velocity":0.8031496062992126,"duration":0.18359375},{"name":"D5","midi":74,"time":83.85416666666666,"velocity":0.8031496062992126,"duration":0.18359375},{"name":"E4","midi":64,"time":84.04166666666666,"velocity":0.8031496062992126,"duration":0.7421875},{"name":"E5","midi":76,"time":84.04166666666666,"velocity":0.8031496062992126,"duration":0.21484375},{"name":"A5","midi":81,"time":84.22916666666666,"velocity":0.8031496062992126,"duration":0.18359375},{"name":"B4","midi":71,"time":84.41666666666666,"velocity":0.8031496062992126,"duration":0.46875},{"name":"D5","midi":74,"time":84.41666666666666,"velocity":0.8031496062992126,"duration":0.18359375},{"name":"C5","midi":72,"time":84.60416666666666,"velocity":0.8031496062992126,"duration":0.18359375},{"name":"E4","midi":64,"time":84.79166666666666,"velocity":0.8031496062992126,"duration":0.7421875},{"name":"D5","midi":74,"time":84.79166666666666,"velocity":0.8031496062992126,"duration":0.21484375},{"name":"G#5","midi":80,"time":84.97916666666666,"velocity":0.8031496062992126,"duration":0.18359375},{"name":"A4","midi":69,"time":85.16666666666666,"velocity":0.8031496062992126,"duration":0.4296875},{"name":"C5","midi":72,"time":85.16666666666666,"velocity":0.8031496062992126,"duration":0.18359375},{"name":"B4","midi":71,"time":85.35416666666666,"velocity":0.8031496062992126,"duration":0.18359375},{"name":"E4","midi":64,"time":85.54166666666666,"velocity":0.8031496062992126,"duration":0.7421875},{"name":"C5","midi":72,"time":85.54166666666666,"velocity":0.8031496062992126,"duration":0.21484375},{"name":"F#5","midi":78,"time":85.72916666666666,"velocity":0.8031496062992126,"duration":0.18359375},{"name":"B4","midi":71,"time":85.91666666666666,"velocity":0.8031496062992126,"duration":0.390625},{"name":"D5","midi":74,"time":85.91666666666666,"velocity":0.8031496062992126,"duration":0.18359375},{"name":"C5","midi":72,"time":86.10416666666666,"velocity":0.8031496062992126,"duration":0.18359375},{"name":"E4","midi":64,"time":86.29166666666666,"velocity":0.8031496062992126,"duration":0.7421875},{"name":"D5","midi":74,"time":86.29166666666666,"velocity":0.8031496062992126,"duration":0.234375},{"name":"G#5","midi":80,"time":86.47916666666666,"velocity":0.8031496062992126,"duration":0.18359375},{"name":"A4","midi":69,"time":86.66666666666666,"velocity":0.8031496062992126,"duration":0.37109375},{"name":"C5","midi":72,"time":86.66666666666666,"velocity":0.8031496062992126,"duration":0.18359375},{"name":"B4","midi":71,"time":86.85416666666666,"velocity":0.8031496062992126,"duration":0.18359375},{"name":"E4","midi":64,"time":87.04166666666666,"velocity":0.8031496062992126,"duration":0.44921875},{"name":"C5","midi":72,"time":87.04166666666666,"velocity":0.8031496062992126,"duration":0.234375},{"name":"F#5","midi":78,"time":87.22916666666666,"velocity":0.8031496062992126,"duration":0.18359375},{"name":"G#4","midi":68,"time":87.41666666666666,"velocity":0.8031496062992126,"duration":0.37109375},{"name":"B4","midi":71,"time":87.41666666666666,"velocity":0.8031496062992126,"duration":0.18359375},{"name":"A4","midi":69,"time":87.60416666666666,"velocity":0.8031496062992126,"duration":0.18359375},{"name":"E4","midi":64,"time":87.79166666666666,"velocity":0.8031496062992126,"duration":0.74609375},{"name":"B4","midi":71,"time":87.79166666666666,"velocity":0.8031496062992126,"duration":0.234375},{"name":"E5","midi":76,"time":87.97916666666666,"velocity":0.8031496062992126,"duration":0.18359375},{"name":"D5","midi":74,"time":88.16666666666666,"velocity":0.8031496062992126,"duration":0.18359375},{"name":"B4","midi":71,"time":88.35416666666666,"velocity":0.8031496062992126,"duration":0.18359375},{"name":"E4","midi":64,"time":88.54166666666666,"velocity":0.8031496062992126,"duration":0.18359375},{"name":"C5","midi":72,"time":88.54166666666666,"velocity":0.8031496062992126,"duration":0.18359375},{"name":"C4","midi":60,"time":88.72916666666666,"velocity":0.8031496062992126,"duration":0.18359375},{"name":"A4","midi":69,"time":88.72916666666666,"velocity":0.8031496062992126,"duration":0.18359375},{"name":"D4","midi":62,"time":88.91666666666666,"velocity":0.8031496062992126,"duration":0.18359375},{"name":"B4","midi":71,"time":88.91666666666666,"velocity":0.8031496062992126,"duration":0.18359375},{"name":"B3","midi":59,"time":89.10416666666666,"velocity":0.8031496062992126,"duration":0.18359375},{"name":"G#4","midi":68,"time":89.10416666666666,"velocity":0.8031496062992126,"duration":0.18359375},{"name":"C4","midi":60,"time":89.29166666666666,"velocity":0.8031496062992126,"duration":0.18359375},{"name":"A4","midi":69,"time":89.29166666666666,"velocity":0.8031496062992126,"duration":0.18359375},{"name":"A3","midi":57,"time":89.47916666666666,"velocity":0.8031496062992126,"duration":0.18359375},{"name":"F#4","midi":66,"time":89.47916666666666,"velocity":0.8031496062992126,"duration":0.18359375},{"name":"B3","midi":59,"time":89.66666666666666,"velocity":0.8031496062992126,"duration":0.18359375},{"name":"G#4","midi":68,"time":89.66666666666666,"velocity":0.8031496062992126,"duration":0.18359375},{"name":"A3","midi":57,"time":89.85416666666666,"velocity":0.8031496062992126,"duration":0.18359375},{"name":"F#4","midi":66,"time":89.85416666666666,"velocity":0.8031496062992126,"duration":0.18359375},{"name":"B3","midi":59,"time":90.04166666666666,"velocity":0.8031496062992126,"duration":0.18359375},{"name":"G#4","midi":68,"time":90.04166666666666,"velocity":0.8031496062992126,"duration":0.3125},{"name":"D4","midi":62,"time":90.22916666666666,"velocity":0.8031496062992126,"duration":0.18359375},{"name":"B4","midi":71,"time":90.22916666666666,"velocity":0.8031496062992126,"duration":0.18359375},{"name":"G#3","midi":56,"time":90.41666666666666,"velocity":0.8031496062992126,"duration":0.18359375},{"name":"E4","midi":64,"time":90.41666666666666,"velocity":0.8031496062992126,"duration":0.18359375},{"name":"F#3","midi":54,"time":90.60416666666666,"velocity":0.8031496062992126,"duration":0.18359375},{"name":"D#4","midi":63,"time":90.60416666666666,"velocity":0.8031496062992126,"duration":0.18359375},{"name":"G#3","midi":56,"time":90.79166666666666,"velocity":0.8031496062992126,"duration":0.18359375},{"name":"E4","midi":64,"time":90.79166666666666,"velocity":0.8031496062992126,"duration":0.3125},{"name":"B3","midi":59,"time":90.97916666666666,"velocity":0.8031496062992126,"duration":0.18359375},{"name":"G#4","midi":68,"time":90.97916666666666,"velocity":0.8031496062992126,"duration":0.18359375},{"name":"F3","midi":53,"time":91.16666666666666,"velocity":0.8031496062992126,"duration":0.18359375},{"name":"D4","midi":62,"time":91.16666666666666,"velocity":0.8031496062992126,"duration":0.18359375},{"name":"E3","midi":52,"time":91.35416666666666,"velocity":0.8031496062992126,"duration":0.18359375},{"name":"C4","midi":60,"time":91.35416666666666,"velocity":0.8031496062992126,"duration":0.18359375},{"name":"F3","midi":53,"time":91.54166666666666,"velocity":0.8031496062992126,"duration":0.18359375},{"name":"D4","midi":62,"time":91.54166666666666,"velocity":0.8031496062992126,"duration":0.3125},{"name":"A3","midi":57,"time":91.72916666666666,"velocity":0.8031496062992126,"duration":0.18359375},{"name":"F4","midi":65,"time":91.72916666666666,"velocity":0.8031496062992126,"duration":0.18359375},{"name":"D3","midi":50,"time":91.91666666666666,"velocity":0.8031496062992126,"duration":0.18359375},{"name":"B3","midi":59,"time":91.91666666666666,"velocity":0.8031496062992126,"duration":0.18359375},{"name":"C3","midi":48,"time":92.10416666666666,"velocity":0.8031496062992126,"duration":0.18359375},{"name":"A3","midi":57,"time":92.10416666666666,"velocity":0.8031496062992126,"duration":0.18359375},{"name":"D3","midi":50,"time":92.29166666666666,"velocity":0.8031496062992126,"duration":0.18359375},{"name":"B3","midi":59,"time":92.29166666666666,"velocity":0.8031496062992126,"duration":0.234375},{"name":"F3","midi":53,"time":92.47916666666666,"velocity":0.8031496062992126,"duration":0.18359375},{"name":"D4","midi":62,"time":92.47916666666666,"velocity":0.8031496062992126,"duration":0.18359375},{"name":"B2","midi":47,"time":92.66666666666666,"velocity":0.8031496062992126,"duration":0.18359375},{"name":"G#3","midi":56,"time":92.66666666666666,"velocity":0.8031496062992126,"duration":0.18359375},{"name":"A2","midi":45,"time":92.85416666666666,"velocity":0.8031496062992126,"duration":0.18359375},{"name":"F#3","midi":54,"time":92.85416666666666,"velocity":0.8031496062992126,"duration":0.18359375},{"name":"B2","midi":47,"time":93.04166666666666,"velocity":0.8031496062992126,"duration":0.18359375},{"name":"G#3","midi":56,"time":93.04166666666666,"velocity":0.8031496062992126,"duration":0.234375},{"name":"D3","midi":50,"time":93.22916666666666,"velocity":0.8031496062992126,"duration":0.18359375},{"name":"B3","midi":59,"time":93.22916666666666,"velocity":0.8031496062992126,"duration":0.18359375},{"name":"G#2","midi":44,"time":93.41666666666666,"velocity":0.8031496062992126,"duration":0.18359375},{"name":"E3","midi":52,"time":93.41666666666666,"velocity":0.8031496062992126,"duration":0.7421875},{"name":"F#2","midi":42,"time":93.60416666666666,"velocity":0.8031496062992126,"duration":0.18359375},{"name":"G#2","midi":44,"time":93.79166666666666,"velocity":0.8031496062992126,"duration":0.18359375},{"name":"B2","midi":47,"time":93.97916666666666,"velocity":0.8031496062992126,"duration":0.18359375},{"name":"E2","midi":40,"time":94.16666666666666,"velocity":0.8031496062992126,"duration":2.24609375},{"name":"D3","midi":50,"time":94.35416666666666,"velocity":0.8031496062992126,"duration":0.18359375},{"name":"C3","midi":48,"time":94.54166666666666,"velocity":0.8031496062992126,"duration":0.18359375},{"name":"B2","midi":47,"time":94.72916666666666,"velocity":0.8031496062992126,"duration":0.18359375},{"name":"F3","midi":53,"time":94.91666666666666,"velocity":0.8031496062992126,"duration":0.37109375},{"name":"D3","midi":50,"time":95.10416666666666,"velocity":0.8031496062992126,"duration":0.18359375},{"name":"C3","midi":48,"time":95.29166666666666,"velocity":0.8031496062992126,"duration":0.18359375},{"name":"B2","midi":47,"time":95.47916666666666,"velocity":0.8031496062992126,"duration":0.18359375},{"name":"G#3","midi":56,"time":95.66666666666666,"velocity":0.8031496062992126,"duration":0.37109375},{"name":"D3","midi":50,"time":95.85416666666666,"velocity":0.8031496062992126,"duration":0.18359375},{"name":"C3","midi":48,"time":96.04166666666666,"velocity":0.8031496062992126,"duration":0.18359375},{"name":"B2","midi":47,"time":96.22916666666666,"velocity":0.8031496062992126,"duration":0.18359375},{"name":"E2","midi":40,"time":96.41666666666666,"velocity":0.8031496062992126,"duration":2.24609375},{"name":"B3","midi":59,"time":96.41666666666666,"velocity":0.8031496062992126,"duration":0.37109375},{"name":"F3","midi":53,"time":96.60416666666666,"velocity":0.8031496062992126,"duration":0.18359375},{"name":"E3","midi":52,"time":96.79166666666666,"velocity":0.8031496062992126,"duration":0.18359375},{"name":"D3","midi":50,"time":96.97916666666666,"velocity":0.8031496062992126,"duration":0.18359375},{"name":"G#3","midi":56,"time":97.16666666666666,"velocity":0.8031496062992126,"duration":0.546875},{"name":"F3","midi":53,"time":97.35416666666666,"velocity":0.8031496062992126,"duration":0.18359375},{"name":"E3","midi":52,"time":97.54166666666666,"velocity":0.8031496062992126,"duration":0.18359375},{"name":"D3","midi":50,"time":97.72916666666666,"velocity":0.8031496062992126,"duration":0.18359375},{"name":"B3","midi":59,"time":97.91666666666666,"velocity":0.8031496062992126,"duration":0.546875},{"name":"F3","midi":53,"time":98.10416666666666,"velocity":0.8031496062992126,"duration":0.18359375},{"name":"E3","midi":52,"time":98.29166666666666,"velocity":0.8031496062992126,"duration":0.18359375},{"name":"D3","midi":50,"time":98.47916666666666,"velocity":0.8031496062992126,"duration":0.18359375},{"name":"E2","midi":40,"time":98.66666666666666,"velocity":0.8031496062992126,"duration":2.8059895833333286},{"name":"D4","midi":62,"time":98.66666666666666,"velocity":0.8031496062992126,"duration":0.5859375},{"name":"G#3","midi":56,"time":98.85416666666666,"velocity":0.8031496062992126,"duration":0.18359375},{"name":"F#3","midi":54,"time":99.04166666666666,"velocity":0.8031496062992126,"duration":0.18359375},{"name":"E3","midi":52,"time":99.22916666666666,"velocity":0.8031496062992126,"duration":0.18359375},{"name":"B3","midi":59,"time":99.41666666666666,"velocity":0.8031496062992126,"duration":0.64453125},{"name":"G#3","midi":56,"time":99.60416666666666,"velocity":0.8031496062992126,"duration":0.18359375},{"name":"F#3","midi":54,"time":99.79166666666666,"velocity":0.8031496062992126,"duration":0.18359375},{"name":"E3","midi":52,"time":99.97916666666666,"velocity":0.8031496062992126,"duration":0.18359375},{"name":"D4","midi":62,"time":100.16666666666666,"velocity":0.8031496062992126,"duration":0.703125},{"name":"B3","midi":59,"time":100.35416666666666,"velocity":0.8031496062992126,"duration":0.18359375},{"name":"A3","midi":57,"time":100.54166666666666,"velocity":0.8031496062992126,"duration":0.18359375},{"name":"G#3","midi":56,"time":100.72916666666666,"velocity":0.8031496062992126,"duration":0.18359375},{"name":"F4","midi":65,"time":100.91666666666666,"velocity":0.8031496062992126,"duration":0.18359375},{"name":"E4","midi":64,"time":101.10416666666666,"velocity":0.8031496062992126,"duration":0.18359375},{"name":"D4","midi":62,"time":101.29166666666666,"velocity":0.8031496062992126,"duration":0.18359375},{"name":"C4","midi":60,"time":101.47916666666666,"velocity":0.8031496062992126,"duration":0.18359375},{"name":"B3","midi":59,"time":101.66666666666666,"velocity":0.8031496062992126,"duration":0.18359375},{"name":"A3","midi":57,"time":101.85416666666666,"velocity":0.8031496062992126,"duration":0.18359375},{"name":"G#3","midi":56,"time":102.04166666666666,"velocity":0.8031496062992126,"duration":0.18359375},{"name":"F#3","midi":54,"time":102.22916666666666,"velocity":0.8031496062992126,"duration":0.18359375},{"name":"E3","midi":52,"time":102.41666666666666,"velocity":0.8031496062992126,"duration":0.18359375},{"name":"D3","midi":50,"time":102.60416666666666,"velocity":0.8031496062992126,"duration":0.18359375},{"name":"C3","midi":48,"time":102.79166666666666,"velocity":0.8031496062992126,"duration":0.18359375},{"name":"B2","midi":47,"time":102.97916666666666,"velocity":0.8031496062992126,"duration":0.18359375},{"name":"A2","midi":45,"time":103.16666666666666,"velocity":0.8031496062992126,"duration":0.9375},{"name":"E5","midi":76,"time":103.54166666666666,"velocity":0.8031496062992126,"duration":0.37109375},{"name":"A4","midi":69,"time":103.91666666666666,"velocity":0.8031496062992126,"duration":0.37109375},{"name":"C4","midi":60,"time":104.29166666666666,"velocity":0.8031496062992126,"duration":0.37109375},{"name":"A3","midi":57,"time":104.29166666666666,"velocity":0.8031496062992126,"duration":0.37109375},{"name":"A5","midi":81,"time":104.29166666666666,"velocity":0.8031496062992126,"duration":0.37109375},{"name":"B3","midi":59,"time":104.66666666666666,"velocity":0.8031496062992126,"duration":0.37109375},{"name":"D4","midi":62,"time":104.66666666666666,"velocity":0.8031496062992126,"duration":0.37109375},{"name":"G5","midi":79,"time":104.66666666666666,"velocity":0.8031496062992126,"duration":0.18359375},{"name":"E5","midi":76,"time":104.85416666666666,"velocity":0.8031496062992126,"duration":0.18359375},{"name":"G3","midi":55,"time":105.04166666666666,"velocity":0.8031496062992126,"duration":0.37109375},{"name":"B3","midi":59,"time":105.04166666666666,"velocity":0.8031496062992126,"duration":0.37109375},{"name":"F5","midi":77,"time":105.04166666666666,"velocity":0.8031496062992126,"duration":0.18359375},{"name":"D5","midi":74,"time":105.22916666666666,"velocity":0.8031496062992126,"duration":0.18359375},{"name":"C4","midi":60,"time":105.41666666666666,"velocity":0.8031496062992126,"duration":0.7421875},{"name":"E5","midi":76,"time":105.41666666666666,"velocity":0.8031496062992126,"duration":0.3645833333333286},{"name":"B4","midi":71,"time":105.60416666666666,"velocity":0.8031496062992126,"duration":0.18359375},{"name":"C3","midi":48,"time":105.79166666666666,"velocity":0.8031496062992126,"duration":0.546875},{"name":"C5","midi":72,"time":105.79166666666666,"velocity":0.8031496062992126,"duration":0.18359375},{"name":"G#4","midi":68,"time":105.97916666666666,"velocity":0.8031496062992126,"duration":0.18359375},{"name":"A4","midi":69,"time":106.16666666666666,"velocity":0.8031496062992126,"duration":0.18359375},{"name":"C5","midi":72,"time":106.35416666666666,"velocity":0.8031496062992126,"duration":0.18359375},{"name":"D4","midi":62,"time":106.54166666666666,"velocity":0.8031496062992126,"duration":0.37109375},{"name":"A4","midi":69,"time":106.54166666666666,"velocity":0.8031496062992126,"duration":0.37109375},{"name":"F5","midi":77,"time":106.54166666666666,"velocity":0.8031496062992126,"duration":0.18359375},{"name":"D5","midi":74,"time":106.72916666666666,"velocity":0.8031496062992126,"duration":0.18359375},{"name":"C4","midi":60,"time":106.91666666666666,"velocity":0.8031496062992126,"duration":0.37109375},{"name":"A4","midi":69,"time":106.91666666666666,"velocity":0.8031496062992126,"duration":0.37109375},{"name":"E5","midi":76,"time":106.91666666666666,"velocity":0.8031496062992126,"duration":0.18359375},{"name":"C5","midi":72,"time":107.10416666666666,"velocity":0.8031496062992126,"duration":0.18359375},{"name":"B3","midi":59,"time":107.29166666666666,"velocity":0.8031496062992126,"duration":0.37109375},{"name":"G#4","midi":68,"time":107.29166666666666,"velocity":0.8031496062992126,"duration":0.37109375},{"name":"D5","midi":74,"time":107.29166666666666,"velocity":0.8031496062992126,"duration":0.18359375},{"name":"B4","midi":71,"time":107.47916666666666,"velocity":0.8031496062992126,"duration":0.18359375},{"name":"A3","midi":57,"time":107.66666666666666,"velocity":0.8031496062992126,"duration":0.9375},{"name":"A4","midi":69,"time":107.66666666666666,"velocity":0.8031496062992126,"duration":0.7421875},{"name":"C5","midi":72,"time":107.66666666666666,"velocity":0.8031496062992126,"duration":0.18359375},{"name":"B4","midi":71,"time":107.85416666666666,"velocity":0.8031496062992126,"duration":0.18359375},{"name":"C5","midi":72,"time":108.04166666666666,"velocity":0.8031496062992126,"duration":0.18359375},{"name":"G#4","midi":68,"time":108.22916666666666,"velocity":0.8031496062992126,"duration":0.18359375},{"name":"A4","midi":69,"time":108.41666666666666,"velocity":0.8031496062992126,"duration":0.18359375},{"name":"C5","midi":72,"time":108.60416666666666,"velocity":0.8031496062992126,"duration":0.18359375},{"name":"A4","midi":69,"time":108.79166666666666,"velocity":0.8031496062992126,"duration":0.37109375},{"name":"C4","midi":60,"time":108.79166666666666,"velocity":0.8031496062992126,"duration":0.37109375},{"name":"E5","midi":76,"time":108.79166666666666,"velocity":0.8031496062992126,"duration":0.18359375},{"name":"C5","midi":72,"time":108.97916666666666,"velocity":0.8031496062992126,"duration":0.18359375},{"name":"B3","midi":59,"time":109.16666666666666,"velocity":0.8031496062992126,"duration":0.37109375},{"name":"G#4","midi":68,"time":109.16666666666666,"velocity":0.8031496062992126,"duration":0.37109375},{"name":"D5","midi":74,"time":109.16666666666666,"velocity":0.8031496062992126,"duration":0.18359375},{"name":"B4","midi":71,"time":109.35416666666666,"velocity":0.8031496062992126,"duration":0.18359375},{"name":"A3","midi":57,"time":109.54166666666666,"velocity":0.8031496062992126,"duration":0.37109375},{"name":"E4","midi":64,"time":109.54166666666666,"velocity":0.8031496062992126,"duration":0.37109375},{"name":"C5","midi":72,"time":109.54166666666666,"velocity":0.8031496062992126,"duration":0.18359375},{"name":"A4","midi":69,"time":109.72916666666666,"velocity":0.8031496062992126,"duration":0.18359375},{"name":"D4","midi":62,"time":109.91666666666666,"velocity":0.8031496062992126,"duration":0.7421875},{"name":"G#3","midi":56,"time":109.91666666666666,"velocity":0.8031496062992126,"duration":0.37109375},{"name":"B4","midi":71,"time":109.91666666666666,"velocity":0.8031496062992126,"duration":0.18359375},{"name":"A4","midi":69,"time":110.10416666666666,"velocity":0.8031496062992126,"duration":0.18359375},{"name":"E3","midi":52,"time":110.29166666666666,"velocity":0.8031496062992126,"duration":0.37109375},{"name":"B4","midi":71,"time":110.29166666666666,"velocity":0.8031496062992126,"duration":0.18359375},{"name":"G#4","midi":68,"time":110.47916666666666,"velocity":0.8031496062992126,"duration":0.18359375},{"name":"F3","midi":53,"time":110.66666666666666,"velocity":0.8031496062992126,"duration":0.37109375},{"name":"C4","midi":60,"time":110.66666666666666,"velocity":0.8031496062992126,"duration":0.37109375},{"name":"A4","midi":69,"time":110.66666666666666,"velocity":0.8031496062992126,"duration":0.18359375},{"name":"G#4","midi":68,"time":110.85416666666666,"velocity":0.8031496062992126,"duration":0.18359375},{"name":"D3","midi":50,"time":111.04166666666666,"velocity":0.8031496062992126,"duration":0.37109375},{"name":"A3","midi":57,"time":111.04166666666666,"velocity":0.8031496062992126,"duration":0.7421875},{"name":"B3","midi":59,"time":111.04166666666666,"velocity":0.8031496062992126,"duration":0.37109375},{"name":"A4","midi":69,"time":111.04166666666666,"velocity":0.8031496062992126,"duration":0.18359375},{"name":"F5","midi":77,"time":111.22916666666666,"velocity":0.8031496062992126,"duration":0.18359375},{"name":"E3","midi":52,"time":111.41666666666666,"velocity":0.8031496062992126,"duration":0.37109375},{"name":"C4","midi":60,"time":111.41666666666666,"velocity":0.8031496062992126,"duration":0.37109375},{"name":"E5","midi":76,"time":111.41666666666666,"velocity":0.8031496062992126,"duration":0.18359375},{"name":"C5","midi":72,"time":111.60416666666666,"velocity":0.8031496062992126,"duration":0.18359375},{"name":"G#3","midi":56,"time":111.79166666666666,"velocity":0.8031496062992126,"duration":0.37109375},{"name":"E3","midi":52,"time":111.79166666666666,"velocity":0.8031496062992126,"duration":0.37109375},{"name":"B3","midi":59,"time":111.79166666666666,"velocity":0.8031496062992126,"duration":0.37109375},{"name":"D5","midi":74,"time":111.79166666666666,"velocity":0.8031496062992126,"duration":0.18359375},{"name":"B4","midi":71,"time":111.97916666666666,"velocity":0.8031496062992126,"duration":0.18359375},{"name":"A3","midi":57,"time":112.16666666666666,"velocity":0.8031496062992126,"duration":1.1223958333333286},{"name":"C5","midi":72,"time":112.16666666666666,"velocity":0.8031496062992126,"duration":0.18359375},{"name":"B4","midi":71,"time":112.35416666666666,"velocity":0.8031496062992126,"duration":0.18359375},{"name":"E3","midi":52,"time":112.54166666666666,"velocity":0.8031496062992126,"duration":0.37109375},{"name":"A4","midi":69,"time":112.54166666666666,"velocity":0.8031496062992126,"duration":0.18359375},{"name":"G#4","midi":68,"time":112.72916666666666,"velocity":0.8031496062992126,"duration":0.18359375},{"name":"A2","midi":45,"time":112.91666666666666,"velocity":0.8031496062992126,"duration":0.37109375},{"name":"A4","midi":69,"time":112.91666666666666,"velocity":0.8031496062992126,"duration":0.18359375},{"name":"B4","midi":71,"time":113.10416666666666,"velocity":0.8031496062992126,"duration":0.18359375},{"name":"A3","midi":57,"time":113.29166666666666,"velocity":0.8031496062992126,"duration":0.37109375},{"name":"C5","midi":72,"time":113.29166666666666,"velocity":0.8031496062992126,"duration":0.18359375},{"name":"F5","midi":77,"time":113.47916666666666,"velocity":0.8031496062992126,"duration":0.18359375},{"name":"G3","midi":55,"time":113.66666666666666,"velocity":0.8031496062992126,"duration":0.18359375},{"name":"E5","midi":76,"time":113.66666666666666,"velocity":0.8031496062992126,"duration":0.18359375},{"name":"E3","midi":52,"time":113.85416666666666,"velocity":0.8031496062992126,"duration":0.18359375},{"name":"C5","midi":72,"time":113.85416666666666,"velocity":0.8031496062992126,"duration":0.18359375},{"name":"F3","midi":53,"time":114.04166666666666,"velocity":0.8031496062992126,"duration":0.18359375},{"name":"D5","midi":74,"time":114.04166666666666,"velocity":0.8031496062992126,"duration":0.18359375},{"name":"D3","midi":50,"time":114.22916666666666,"velocity":0.8031496062992126,"duration":0.18359375},{"name":"B4","midi":71,"time":114.22916666666666,"velocity":0.8031496062992126,"duration":0.18359375},{"name":"E3","midi":52,"time":114.41666666666666,"velocity":0.8031496062992126,"duration":0.18359375},{"name":"C5","midi":72,"time":114.41666666666666,"velocity":0.8031496062992126,"duration":0.18359375},{"name":"D3","midi":50,"time":114.60416666666666,"velocity":0.8031496062992126,"duration":0.18359375},{"name":"B4","midi":71,"time":114.60416666666666,"velocity":0.8031496062992126,"duration":0.18359375},{"name":"C3","midi":48,"time":114.79166666666666,"velocity":0.8031496062992126,"duration":0.18359375},{"name":"A4","midi":69,"time":114.79166666666666,"velocity":0.8031496062992126,"duration":0.18359375},{"name":"E3","midi":52,"time":114.97916666666666,"velocity":0.8031496062992126,"duration":0.18359375},{"name":"G#4","midi":68,"time":114.97916666666666,"velocity":0.8031496062992126,"duration":0.18359375},{"name":"A2","midi":45,"time":115.16666666666666,"velocity":0.8031496062992126,"duration":0.18359375},{"name":"A4","midi":69,"time":115.16666666666666,"velocity":0.8031496062992126,"duration":0.18359375},{"name":"C3","midi":48,"time":115.35416666666666,"velocity":0.8031496062992126,"duration":0.18359375},{"name":"B4","midi":71,"time":115.35416666666666,"velocity":0.8031496062992126,"duration":0.18359375},{"name":"F3","midi":53,"time":115.54166666666666,"velocity":0.8031496062992126,"duration":0.18359375},{"name":"C5","midi":72,"time":115.54166666666666,"velocity":0.8031496062992126,"duration":0.18359375},{"name":"D3","midi":50,"time":115.72916666666666,"velocity":0.8031496062992126,"duration":0.18359375},{"name":"D5","midi":74,"time":115.72916666666666,"velocity":0.8031496062992126,"duration":0.18359375},{"name":"E3","midi":52,"time":115.91666666666666,"velocity":0.8031496062992126,"duration":0.18359375},{"name":"C5","midi":72,"time":115.91666666666666,"velocity":0.8031496062992126,"duration":0.2734375},{"name":"C3","midi":48,"time":116.10416666666666,"velocity":0.8031496062992126,"duration":0.18359375},{"name":"A4","midi":69,"time":116.10416666666666,"velocity":0.8031496062992126,"duration":0.18359375},{"name":"D3","midi":50,"time":116.29166666666666,"velocity":0.8031496062992126,"duration":0.18359375},{"name":"B4","midi":71,"time":116.29166666666666,"velocity":0.8031496062992126,"duration":0.2734375},{"name":"B2","midi":47,"time":116.47916666666666,"velocity":0.8031496062992126,"duration":0.18359375},{"name":"G#4","midi":68,"time":116.47916666666666,"velocity":0.8031496062992126,"duration":0.18359375},{"name":"C3","midi":48,"time":116.66666666666666,"velocity":0.8031496062992126,"duration":0.18359375},{"name":"A4","midi":69,"time":116.66666666666666,"velocity":0.8031496062992126,"duration":0.18359375},{"name":"B2","midi":47,"time":116.85416666666666,"velocity":0.8031496062992126,"duration":0.18359375},{"name":"B4","midi":71,"time":116.85416666666666,"velocity":0.8031496062992126,"duration":0.18359375},{"name":"A2","midi":45,"time":117.04166666666666,"velocity":0.8031496062992126,"duration":0.18359375},{"name":"C5","midi":72,"time":117.04166666666666,"velocity":0.8031496062992126,"duration":0.2734375},{"name":"C3","midi":48,"time":117.22916666666666,"velocity":0.8031496062992126,"duration":0.18359375},{"name":"A4","midi":69,"time":117.22916666666666,"velocity":0.8031496062992126,"duration":0.18359375},{"name":"E2","midi":40,"time":117.41666666666666,"velocity":0.8031496062992126,"duration":0.18359375},{"name":"G#4","midi":68,"time":117.41666666666666,"velocity":0.8031496062992126,"duration":0.18359375},{"name":"A2","midi":45,"time":117.60416666666666,"velocity":0.8031496062992126,"duration":0.18359375},{"name":"A4","midi":69,"time":117.60416666666666,"velocity":0.8031496062992126,"duration":0.2734375},{"name":"C3","midi":48,"time":117.79166666666666,"velocity":0.8031496062992126,"duration":0.18359375},{"name":"C5","midi":72,"time":117.79166666666666,"velocity":0.8031496062992126,"duration":0.2734375},{"name":"A2","midi":45,"time":117.97916666666666,"velocity":0.8031496062992126,"duration":0.18359375},{"name":"A4","midi":69,"time":117.97916666666666,"velocity":0.8031496062992126,"duration":0.18359375},{"name":"D3","midi":50,"time":118.16666666666666,"velocity":0.8031496062992126,"duration":0.18359375},{"name":"B4","midi":71,"time":118.16666666666666,"velocity":0.8031496062992126,"duration":0.2734375},{"name":"B2","midi":47,"time":118.35416666666666,"velocity":0.8031496062992126,"duration":0.18359375},{"name":"G#4","midi":68,"time":118.35416666666666,"velocity":0.8031496062992126,"duration":0.18359375},{"name":"C3","midi":48,"time":118.54166666666666,"velocity":0.8031496062992126,"duration":0.18359375},{"name":"A4","midi":69,"time":118.54166666666666,"velocity":0.8031496062992126,"duration":0.2734375},{"name":"A2","midi":45,"time":118.72916666666666,"velocity":0.8031496062992126,"duration":0.18359375},{"name":"F#4","midi":66,"time":118.72916666666666,"velocity":0.8031496062992126,"duration":0.18359375},{"name":"B2","midi":47,"time":118.91666666666666,"velocity":0.8031496062992126,"duration":0.18359375},{"name":"G#4","midi":68,"time":118.91666666666666,"velocity":0.8031496062992126,"duration":0.18359375},{"name":"A2","midi":45,"time":119.10416666666666,"velocity":0.8031496062992126,"duration":0.18359375},{"name":"F4","midi":65,"time":119.10416666666666,"velocity":0.8031496062992126,"duration":0.18359375},{"name":"B2","midi":47,"time":119.29166666666666,"velocity":0.8031496062992126,"duration":0.18359375},{"name":"E4","midi":64,"time":119.29166666666666,"velocity":0.8031496062992126,"duration":0.18359375},{"name":"G#2","midi":44,"time":119.47916666666666,"velocity":0.8031496062992126,"duration":0.18359375},{"name":"D4","midi":62,"time":119.47916666666666,"velocity":0.8031496062992126,"duration":0.18359375},{"name":"A2","midi":45,"time":119.66666666666666,"velocity":0.8031496062992126,"duration":0.37109375},{"name":"C4","midi":60,"time":119.66666666666666,"velocity":0.8031496062992126,"duration":0.18359375},{"name":"B3","midi":59,"time":119.85416666666666,"velocity":0.8031496062992126,"duration":0.18359375},{"name":"D3","midi":50,"time":120.04166666666666,"velocity":0.8031496062992126,"duration":0.37109375},{"name":"C4","midi":60,"time":120.04166666666666,"velocity":0.8031496062992126,"duration":0.37109375},{"name":"A4","midi":69,"time":120.22916666666666,"velocity":0.8031496062992126,"duration":0.37109375},{"name":"E3","midi":52,"time":120.41666666666666,"velocity":0.8031496062992126,"duration":0.546875},{"name":"B3","midi":59,"time":120.41666666666666,"velocity":0.8031496062992126,"duration":0.37109375},{"name":"A4","midi":69,"time":120.60416666666666,"velocity":0.8031496062992126,"duration":0.37109375},{"name":"E2","midi":40,"time":120.79166666666666,"velocity":0.8031496062992126,"duration":0.37109375},{"name":"B3","midi":59,"time":120.79166666666666,"velocity":0.8031496062992126,"duration":0.37109375},{"name":"G#4","midi":68,"time":120.97916666666666,"velocity":0.8031496062992126,"duration":0.18359375},{"name":"A2","midi":45,"time":121.16666666666666,"velocity":0.8031496062992126,"duration":0.93359375},{"name":"A4","midi":69,"time":121.16666666666666,"velocity":0.8031496062992126,"duration":0.37109375},{"name":"C4","midi":60,"time":121.54166666666666,"velocity":0.8031496062992126,"duration":0.37109375},{"name":"E4","midi":64,"time":121.54166666666666,"velocity":0.8031496062992126,"duration":0.37109375},{"name":"C4","midi":60,"time":121.91666666666666,"velocity":0.8031496062992126,"duration":0.18359375},{"name":"E4","midi":64,"time":121.91666666666666,"velocity":0.8031496062992126,"duration":0.18359375},{"name":"A2","midi":45,"time":122.10416666666666,"velocity":0.8031496062992126,"duration":0.18359375},{"name":"F4","midi":65,"time":122.10416666666666,"velocity":0.8031496062992126,"duration":0.18359375},{"name":"C3","midi":48,"time":122.29166666666666,"velocity":0.8031496062992126,"duration":0.18359375},{"name":"E4","midi":64,"time":122.29166666666666,"velocity":0.8031496062992126,"duration":0.37109375},{"name":"C4","midi":60,"time":122.29166666666666,"velocity":0.8031496062992126,"duration":0.37109375},{"name":"E3","midi":52,"time":122.47916666666666,"velocity":0.8031496062992126,"duration":0.18359375},{"name":"A3","midi":57,"time":122.66666666666666,"velocity":0.8031496062992126,"duration":0.18359375},{"name":"E4","midi":64,"time":122.66666666666666,"velocity":0.8031496062992126,"duration":0.37109375},{"name":"C4","midi":60,"time":122.66666666666666,"velocity":0.8031496062992126,"duration":0.37109375},{"name":"G3","midi":55,"time":122.85416666666666,"velocity":0.8031496062992126,"duration":0.18359375},{"name":"F3","midi":53,"time":123.04166666666666,"velocity":0.8031496062992126,"duration":0.18359375},{"name":"C4","midi":60,"time":123.04166666666666,"velocity":0.8031496062992126,"duration":0.37109375},{"name":"E4","midi":64,"time":123.04166666666666,"velocity":0.8031496062992126,"duration":0.37109375},{"name":"E3","midi":52,"time":123.22916666666666,"velocity":0.8031496062992126,"duration":0.18359375},{"name":"D3","midi":50,"time":123.41666666666666,"velocity":0.8031496062992126,"duration":0.7421875},{"name":"C4","midi":60,"time":123.41666666666666,"velocity":0.8031496062992126,"duration":0.18359375},{"name":"E4","midi":64,"time":123.41666666666666,"velocity":0.8031496062992126,"duration":0.18359375},{"name":"F4","midi":65,"time":123.60416666666666,"velocity":0.8031496062992126,"duration":0.18359375},{"name":"D4","midi":62,"time":123.79166666666666,"velocity":0.8031496062992126,"duration":0.37109375},{"name":"B3","midi":59,"time":123.79166666666666,"velocity":0.8031496062992126,"duration":0.37109375},{"name":"D4","midi":62,"time":124.16666666666666,"velocity":0.8031496062992126,"duration":0.18359375},{"name":"B3","midi":59,"time":124.16666666666666,"velocity":0.8031496062992126,"duration":0.18359375},{"name":"G2","midi":43,"time":124.35416666666666,"velocity":0.8031496062992126,"duration":0.18359375},{"name":"E4","midi":64,"time":124.35416666666666,"velocity":0.8031496062992126,"duration":0.18359375},{"name":"B2","midi":47,"time":124.54166666666666,"velocity":0.8031496062992126,"duration":0.18359375},{"name":"B3","midi":59,"time":124.54166666666666,"velocity":0.8031496062992126,"duration":0.37109375},{"name":"D4","midi":62,"time":124.54166666666666,"velocity":0.8031496062992126,"duration":0.37109375},{"name":"D3","midi":50,"time":124.72916666666666,"velocity":0.8031496062992126,"duration":0.18359375},{"name":"G3","midi":55,"time":124.91666666666666,"velocity":0.8031496062992126,"duration":0.18359375},{"name":"B3","midi":59,"time":124.91666666666666,"velocity":0.8031496062992126,"duration":0.37109375},{"name":"D4","midi":62,"time":124.91666666666666,"velocity":0.8031496062992126,"duration":0.37109375},{"name":"F3","midi":53,"time":125.10416666666666,"velocity":0.8031496062992126,"duration":0.18359375},{"name":"E3","midi":52,"time":125.29166666666666,"velocity":0.8031496062992126,"duration":0.18359375},{"name":"B3","midi":59,"time":125.29166666666666,"velocity":0.8031496062992126,"duration":0.37109375},{"name":"D4","midi":62,"time":125.29166666666666,"velocity":0.8031496062992126,"duration":0.37109375},{"name":"D3","midi":50,"time":125.47916666666666,"velocity":0.8031496062992126,"duration":0.18359375},{"name":"C3","midi":48,"time":125.66666666666666,"velocity":0.8031496062992126,"duration":0.93359375},{"name":"C4","midi":60,"time":125.66666666666666,"velocity":0.8031496062992126,"duration":0.18359375},{"name":"D4","midi":62,"time":125.66666666666666,"velocity":0.8031496062992126,"duration":0.18359375},{"name":"E4","midi":64,"time":125.85416666666666,"velocity":0.8031496062992126,"duration":0.18359375},{"name":"G4","midi":67,"time":126.04166666666666,"velocity":0.8031496062992126,"duration":0.37109375},{"name":"E4","midi":64,"time":126.04166666666666,"velocity":0.8031496062992126,"duration":0.37109375},{"name":"G4","midi":67,"time":126.41666666666666,"velocity":0.8031496062992126,"duration":0.18359375},{"name":"E4","midi":64,"time":126.41666666666666,"velocity":0.8031496062992126,"duration":0.18359375},{"name":"C3","midi":48,"time":126.60416666666666,"velocity":0.8031496062992126,"duration":0.18359375},{"name":"A4","midi":69,"time":126.60416666666666,"velocity":0.8031496062992126,"duration":0.18359375},{"name":"E3","midi":52,"time":126.79166666666666,"velocity":0.8031496062992126,"duration":0.18359375},{"name":"E4","midi":64,"time":126.79166666666666,"velocity":0.8031496062992126,"duration":0.37109375},{"name":"G4","midi":67,"time":126.79166666666666,"velocity":0.8031496062992126,"duration":0.37109375},{"name":"G3","midi":55,"time":126.97916666666666,"velocity":0.8031496062992126,"duration":0.18359375},{"name":"C4","midi":60,"time":127.16666666666666,"velocity":0.8031496062992126,"duration":0.18359375},{"name":"E4","midi":64,"time":127.16666666666666,"velocity":0.8031496062992126,"duration":0.37109375},{"name":"G4","midi":67,"time":127.16666666666666,"velocity":0.8031496062992126,"duration":0.37109375},{"name":"B3","midi":59,"time":127.35416666666666,"velocity":0.8031496062992126,"duration":0.18359375},{"name":"A3","midi":57,"time":127.54166666666666,"velocity":0.8031496062992126,"duration":0.18359375},{"name":"G4","midi":67,"time":127.54166666666666,"velocity":0.8031496062992126,"duration":0.37109375},{"name":"E4","midi":64,"time":127.54166666666666,"velocity":0.8031496062992126,"duration":0.37109375},{"name":"G3","midi":55,"time":127.72916666666666,"velocity":0.8031496062992126,"duration":0.18359375},{"name":"F#3","midi":54,"time":127.91666666666666,"velocity":0.8031496062992126,"duration":0.7421875},{"name":"G4","midi":67,"time":127.91666666666666,"velocity":0.8031496062992126,"duration":0.18359375},{"name":"E4","midi":64,"time":127.91666666666666,"velocity":0.8031496062992126,"duration":0.18359375},{"name":"A4","midi":69,"time":128.10416666666666,"velocity":0.8031496062992126,"duration":0.18359375},{"name":"F#4","midi":66,"time":128.29166666666666,"velocity":0.8031496062992126,"duration":0.37109375},{"name":"D#4","midi":63,"time":128.29166666666666,"velocity":0.8031496062992126,"duration":0.37109375},{"name":"F#4","midi":66,"time":128.66666666666666,"velocity":0.8031496062992126,"duration":0.18359375},{"name":"D#4","midi":63,"time":128.66666666666666,"velocity":0.8031496062992126,"duration":0.18359375},{"name":"B2","midi":47,"time":128.85416666666666,"velocity":0.8031496062992126,"duration":0.18359375},{"name":"G4","midi":67,"time":128.85416666666666,"velocity":0.8031496062992126,"duration":0.18359375},{"name":"D#3","midi":51,"time":129.04166666666666,"velocity":0.8031496062992126,"duration":0.18359375},{"name":"F#4","midi":66,"time":129.04166666666666,"velocity":0.8031496062992126,"duration":0.37109375},{"name":"D#4","midi":63,"time":129.04166666666666,"velocity":0.8031496062992126,"duration":0.37109375},{"name":"F#3","midi":54,"time":129.22916666666666,"velocity":0.8031496062992126,"duration":0.18359375},{"name":"B3","midi":59,"time":129.41666666666666,"velocity":0.8031496062992126,"duration":0.18359375},{"name":"F#4","midi":66,"time":129.41666666666666,"velocity":0.8031496062992126,"duration":0.37109375},{"name":"D#4","midi":63,"time":129.41666666666666,"velocity":0.8031496062992126,"duration":0.37109375},{"name":"A3","midi":57,"time":129.60416666666666,"velocity":0.8031496062992126,"duration":0.18359375},{"name":"G3","midi":55,"time":129.79166666666666,"velocity":0.8031496062992126,"duration":0.18359375},{"name":"F#4","midi":66,"time":129.79166666666666,"velocity":0.8031496062992126,"duration":0.37109375},{"name":"D#4","midi":63,"time":129.79166666666666,"velocity":0.8031496062992126,"duration":0.37109375},{"name":"F#3","midi":54,"time":129.97916666666666,"velocity":0.8031496062992126,"duration":0.18359375},{"name":"E3","midi":52,"time":130.16666666666666,"velocity":0.8031496062992126,"duration":0.18359375},{"name":"F#4","midi":66,"time":130.16666666666666,"velocity":0.8031496062992126,"duration":0.18359375},{"name":"E4","midi":64,"time":130.16666666666666,"velocity":0.8031496062992126,"duration":0.7421875},{"name":"D#3","midi":51,"time":130.35416666666666,"velocity":0.8031496062992126,"duration":0.18359375},{"name":"G4","midi":67,"time":130.35416666666666,"velocity":0.8031496062992126,"duration":0.18359375},{"name":"E3","midi":52,"time":130.54166666666666,"velocity":0.8031496062992126,"duration":0.18359375},{"name":"B4","midi":71,"time":130.54166666666666,"velocity":0.8031496062992126,"duration":0.37109375},{"name":"F#3","midi":54,"time":130.72916666666666,"velocity":0.8031496062992126,"duration":0.18359375},{"name":"G3","midi":55,"time":130.91666666666666,"velocity":0.8031496062992126,"duration":0.18359375},{"name":"E4","midi":64,"time":130.91666666666666,"velocity":0.8031496062992126,"duration":0.7421875},{"name":"F#3","midi":54,"time":131.10416666666666,"velocity":0.8031496062992126,"duration":0.18359375},{"name":"G3","midi":55,"time":131.29166666666666,"velocity":0.8031496062992126,"duration":0.18359375},{"name":"E5","midi":76,"time":131.29166666666666,"velocity":0.8031496062992126,"duration":0.37109375},{"name":"A3","midi":57,"time":131.47916666666666,"velocity":0.8031496062992126,"duration":0.18359375},{"name":"B3","midi":59,"time":131.66666666666666,"velocity":0.8031496062992126,"duration":0.18359375},{"name":"D5","midi":74,"time":131.66666666666666,"velocity":0.8031496062992126,"duration":0.18359375},{"name":"G3","midi":55,"time":131.85416666666666,"velocity":0.8031496062992126,"duration":0.18359375},{"name":"B4","midi":71,"time":131.85416666666666,"velocity":0.8031496062992126,"duration":0.18359375},{"name":"A3","midi":57,"time":132.04166666666666,"velocity":0.8031496062992126,"duration":0.18359375},{"name":"C5","midi":72,"time":132.04166666666666,"velocity":0.8031496062992126,"duration":0.18359375},{"name":"F#3","midi":54,"time":132.22916666666666,"velocity":0.8031496062992126,"duration":0.18359375},{"name":"A4","midi":69,"time":132.22916666666666,"velocity":0.8031496062992126,"duration":0.18359375},{"name":"G3","midi":55,"time":132.41666666666666,"velocity":0.8031496062992126,"duration":0.37109375},{"name":"B4","midi":71,"time":132.41666666666666,"velocity":0.8031496062992126,"duration":0.18359375},{"name":"A4","midi":69,"time":132.60416666666666,"velocity":0.8031496062992126,"duration":0.18359375},{"name":"B3","midi":59,"time":132.79166666666666,"velocity":0.8031496062992126,"duration":0.37109375},{"name":"G4","midi":67,"time":132.79166666666666,"velocity":0.8031496062992126,"duration":0.18359375},{"name":"F#4","midi":66,"time":132.97916666666666,"velocity":0.8031496062992126,"duration":0.18359375},{"name":"E3","midi":52,"time":133.16666666666666,"velocity":0.8031496062992126,"duration":0.37109375},{"name":"G4","midi":67,"time":133.16666666666666,"velocity":0.8031496062992126,"duration":0.18359375},{"name":"F#4","midi":66,"time":133.35416666666666,"velocity":0.8031496062992126,"duration":0.18359375},{"name":"E4","midi":64,"time":133.54166666666666,"velocity":0.8031496062992126,"duration":0.37109375},{"name":"G4","midi":67,"time":133.54166666666666,"velocity":0.8031496062992126,"duration":0.234375},{"name":"C5","midi":72,"time":133.72916666666666,"velocity":0.8031496062992126,"duration":0.18359375},{"name":"D4","midi":62,"time":133.91666666666666,"velocity":0.8031496062992126,"duration":0.18359375},{"name":"F#4","midi":66,"time":133.91666666666666,"velocity":0.8031496062992126,"duration":0.234375},{"name":"B3","midi":59,"time":134.10416666666666,"velocity":0.8031496062992126,"duration":0.18359375},{"name":"B4","midi":71,"time":134.10416666666666,"velocity":0.8031496062992126,"duration":0.18359375},{"name":"C4","midi":60,"time":134.29166666666666,"velocity":0.8031496062992126,"duration":0.18359375},{"name":"E4","midi":64,"time":134.29166666666666,"velocity":0.8031496062992126,"duration":0.2083333333333428},{"name":"A3","midi":57,"time":134.47916666666666,"velocity":0.8031496062992126,"duration":0.18359375},{"name":"A4","midi":69,"time":134.47916666666666,"velocity":0.8031496062992126,"duration":0.18359375},{"name":"B3","midi":59,"time":134.66666666666666,"velocity":0.8031496062992126,"duration":0.37109375},{"name":"D#4","midi":63,"time":134.66666666666666,"velocity":0.8031496062992126,"duration":0.18359375},{"name":"A4","midi":69,"time":134.85416666666666,"velocity":0.8031496062992126,"duration":0.18359375},{"name":"B2","midi":47,"time":135.04166666666666,"velocity":0.8031496062992126,"duration":0.37109375},{"name":"F#4","midi":66,"time":135.04166666666666,"velocity":0.8031496062992126,"duration":0.18359375},{"name":"D#4","midi":63,"time":135.22916666666666,"velocity":0.8031496062992126,"duration":0.18359375},{"name":"D#3","midi":51,"time":135.41666666666666,"velocity":0.8031496062992126,"duration":0.37109375},{"name":"A4","midi":69,"time":135.41666666666666,"velocity":0.8031496062992126,"duration":0.18359375},{"name":"F#4","midi":66,"time":135.60416666666666,"velocity":0.8031496062992126,"duration":0.18359375},{"name":"F#3","midi":54,"time":135.79166666666666,"velocity":0.8031496062992126,"duration":0.37109375},{"name":"D#4","midi":63,"time":135.79166666666666,"velocity":0.8031496062992126,"duration":0.18359375},{"name":"F#4","midi":66,"time":135.97916666666666,"velocity":0.8031496062992126,"duration":0.18359375},{"name":"D#3","midi":51,"time":136.16666666666666,"velocity":0.8031496062992126,"duration":0.37109375},{"name":"B3","midi":59,"time":136.16666666666666,"velocity":0.8031496062992126,"duration":0.18359375},{"name":"A4","midi":69,"time":136.35416666666666,"velocity":0.8031496062992126,"duration":0.18359375},{"name":"B2","midi":47,"time":136.54166666666666,"velocity":0.8031496062992126,"duration":0.37109375},{"name":"G4","midi":67,"time":136.54166666666666,"velocity":0.8031496062992126,"duration":0.18359375},{"name":"F#4","midi":66,"time":136.72916666666666,"velocity":0.8031496062992126,"duration":0.18359375},{"name":"E3","midi":52,"time":136.91666666666666,"velocity":0.8031496062992126,"duration":0.37109375},{"name":"G4","midi":67,"time":136.91666666666666,"velocity":0.8031496062992126,"duration":0.37109375},{"name":"E2","midi":40,"time":137.29166666666666,"velocity":0.8031496062992126,"duration":0.55859375},{"name":"B3","midi":59,"time":137.29166666666666,"velocity":0.8031496062992126,"duration":0.37109375},{"name":"G3","midi":55,"time":137.29166666666666,"velocity":0.8031496062992126,"duration":0.37109375},{"name":"B3","midi":59,"time":137.66666666666666,"velocity":0.8031496062992126,"duration":0.18359375},{"name":"G3","midi":55,"time":137.66666666666666,"velocity":0.8031496062992126,"duration":0.18359375},{"name":"E2","midi":40,"time":137.85416666666666,"velocity":0.8031496062992126,"duration":0.18359375},{"name":"C4","midi":60,"time":137.85416666666666,"velocity":0.8031496062992126,"duration":0.18359375},{"name":"G2","midi":43,"time":138.04166666666666,"velocity":0.8031496062992126,"duration":0.18359375},{"name":"G3","midi":55,"time":138.04166666666666,"velocity":0.8031496062992126,"duration":0.37109375},{"name":"B3","midi":59,"time":138.04166666666666,"velocity":0.8031496062992126,"duration":0.37109375},{"name":"B2","midi":47,"time":138.22916666666666,"velocity":0.8031496062992126,"duration":0.18359375},{"name":"E3","midi":52,"time":138.41666666666666,"velocity":0.8031496062992126,"duration":0.18359375},{"name":"G3","midi":55,"time":138.41666666666666,"velocity":0.8031496062992126,"duration":0.37109375},{"name":"B3","midi":59,"time":138.41666666666666,"velocity":0.8031496062992126,"duration":0.37109375},{"name":"D3","midi":50,"time":138.60416666666666,"velocity":0.8031496062992126,"duration":0.18359375},{"name":"C3","midi":48,"time":138.79166666666666,"velocity":0.8031496062992126,"duration":0.18359375},{"name":"G3","midi":55,"time":138.79166666666666,"velocity":0.8031496062992126,"duration":0.37109375},{"name":"B3","midi":59,"time":138.79166666666666,"velocity":0.8031496062992126,"duration":0.37109375},{"name":"B2","midi":47,"time":138.97916666666666,"velocity":0.8031496062992126,"duration":0.18359375},{"name":"A2","midi":45,"time":139.16666666666666,"velocity":0.8031496062992126,"duration":0.7421875},{"name":"G3","midi":55,"time":139.16666666666666,"velocity":0.8031496062992126,"duration":0.18359375},{"name":"B3","midi":59,"time":139.16666666666666,"velocity":0.8031496062992126,"duration":0.18359375},{"name":"C4","midi":60,"time":139.35416666666666,"velocity":0.8031496062992126,"duration":0.18359375},{"name":"A3","midi":57,"time":139.54166666666666,"velocity":0.8031496062992126,"duration":0.37109375},{"name":"F#3","midi":54,"time":139.54166666666666,"velocity":0.8031496062992126,"duration":0.37109375},{"name":"A3","midi":57,"time":139.91666666666666,"velocity":0.8031496062992126,"duration":0.18359375},{"name":"F#3","midi":54,"time":139.91666666666666,"velocity":0.8031496062992126,"duration":0.18359375},{"name":"D2","midi":38,"time":140.10416666666666,"velocity":0.8031496062992126,"duration":0.18359375},{"name":"B3","midi":59,"time":140.10416666666666,"velocity":0.8031496062992126,"duration":0.18359375},{"name":"F#2","midi":42,"time":140.29166666666666,"velocity":0.8031496062992126,"duration":0.18359375},{"name":"F#3","midi":54,"time":140.29166666666666,"velocity":0.8031496062992126,"duration":0.37109375},{"name":"A3","midi":57,"time":140.29166666666666,"velocity":0.8031496062992126,"duration":0.37109375},{"name":"A2","midi":45,"time":140.47916666666666,"velocity":0.8031496062992126,"duration":0.18359375},{"name":"D3","midi":50,"time":140.66666666666666,"velocity":0.8031496062992126,"duration":0.18359375},{"name":"A3","midi":57,"time":140.66666666666666,"velocity":0.8031496062992126,"duration":0.37109375},{"name":"F#3","midi":54,"time":140.66666666666666,"velocity":0.8031496062992126,"duration":0.37109375},{"name":"C3","midi":48,"time":140.85416666666666,"velocity":0.8031496062992126,"duration":0.18359375},{"name":"B2","midi":47,"time":141.04166666666666,"velocity":0.8031496062992126,"duration":0.18359375},{"name":"F#3","midi":54,"time":141.04166666666666,"velocity":0.8031496062992126,"duration":0.37109375},{"name":"A3","midi":57,"time":141.04166666666666,"velocity":0.8031496062992126,"duration":0.37109375},{"name":"A2","midi":45,"time":141.22916666666666,"velocity":0.8031496062992126,"duration":0.18359375},{"name":"G2","midi":43,"time":141.41666666666666,"velocity":0.8031496062992126,"duration":0.93359375},{"name":"G3","midi":55,"time":141.41666666666666,"velocity":0.8031496062992126,"duration":0.18359375},{"name":"A3","midi":57,"time":141.41666666666666,"velocity":0.8031496062992126,"duration":0.18359375},{"name":"B3","midi":59,"time":141.60416666666666,"velocity":0.8031496062992126,"duration":0.18359375},{"name":"D4","midi":62,"time":141.79166666666666,"velocity":0.8031496062992126,"duration":0.37109375},{"name":"B3","midi":59,"time":141.79166666666666,"velocity":0.8031496062992126,"duration":0.37109375},{"name":"B3","midi":59,"time":142.16666666666666,"velocity":0.8031496062992126,"duration":0.18359375},{"name":"D4","midi":62,"time":142.16666666666666,"velocity":0.8031496062992126,"duration":0.18359375},{"name":"G2","midi":43,"time":142.35416666666666,"velocity":0.8031496062992126,"duration":0.18359375},{"name":"E4","midi":64,"time":142.35416666666666,"velocity":0.8031496062992126,"duration":0.18359375},{"name":"B2","midi":47,"time":142.54166666666666,"velocity":0.8031496062992126,"duration":0.18359375},{"name":"D4","midi":62,"time":142.54166666666666,"velocity":0.8031496062992126,"duration":0.37109375},{"name":"B3","midi":59,"time":142.54166666666666,"velocity":0.8031496062992126,"duration":0.37109375},{"name":"D3","midi":50,"time":142.72916666666666,"velocity":0.8031496062992126,"duration":0.18359375},{"name":"G3","midi":55,"time":142.91666666666666,"velocity":0.8031496062992126,"duration":0.18359375},{"name":"B3","midi":59,"time":142.91666666666666,"velocity":0.8031496062992126,"duration":0.37109375},{"name":"D4","midi":62,"time":142.91666666666666,"velocity":0.8031496062992126,"duration":0.37109375},{"name":"F#3","midi":54,"time":143.10416666666666,"velocity":0.8031496062992126,"duration":0.18359375},{"name":"E3","midi":52,"time":143.29166666666666,"velocity":0.8031496062992126,"duration":0.18359375},{"name":"B3","midi":59,"time":143.29166666666666,"velocity":0.8031496062992126,"duration":0.37109375},{"name":"D4","midi":62,"time":143.29166666666666,"velocity":0.8031496062992126,"duration":0.37109375},{"name":"D3","midi":50,"time":143.47916666666666,"velocity":0.8031496062992126,"duration":0.18359375},{"name":"C#3","midi":49,"time":143.66666666666666,"velocity":0.8031496062992126,"duration":0.7421875},{"name":"D4","midi":62,"time":143.66666666666666,"velocity":0.8031496062992126,"duration":0.18359375},{"name":"B3","midi":59,"time":143.66666666666666,"velocity":0.8031496062992126,"duration":0.18359375},{"name":"E4","midi":64,"time":143.85416666666666,"velocity":0.8031496062992126,"duration":0.18359375},{"name":"C#4","midi":61,"time":144.04166666666666,"velocity":0.8031496062992126,"duration":0.37109375},{"name":"A#3","midi":58,"time":144.04166666666666,"velocity":0.8031496062992126,"duration":0.37109375},{"name":"C#4","midi":61,"time":144.41666666666666,"velocity":0.8031496062992126,"duration":0.18359375},{"name":"A#3","midi":58,"time":144.41666666666666,"velocity":0.8031496062992126,"duration":0.18359375},{"name":"F#2","midi":42,"time":144.60416666666666,"velocity":0.8031496062992126,"duration":0.18359375},{"name":"D4","midi":62,"time":144.60416666666666,"velocity":0.8031496062992126,"duration":0.18359375},{"name":"A#2","midi":46,"time":144.79166666666666,"velocity":0.8031496062992126,"duration":0.18359375},{"name":"C#4","midi":61,"time":144.79166666666666,"velocity":0.8031496062992126,"duration":0.37109375},{"name":"A#3","midi":58,"time":144.79166666666666,"velocity":0.8031496062992126,"duration":0.37109375},{"name":"C#3","midi":49,"time":144.97916666666666,"velocity":0.8031496062992126,"duration":0.18359375},{"name":"F#3","midi":54,"time":145.16666666666666,"velocity":0.8031496062992126,"duration":0.18359375},{"name":"A#3","midi":58,"time":145.16666666666666,"velocity":0.8031496062992126,"duration":0.37109375},{"name":"C#4","midi":61,"time":145.16666666666666,"velocity":0.8031496062992126,"duration":0.37109375},{"name":"E3","midi":52,"time":145.35416666666666,"velocity":0.8031496062992126,"duration":0.18359375},{"name":"D3","midi":50,"time":145.54166666666666,"velocity":0.8031496062992126,"duration":0.18359375},{"name":"A#3","midi":58,"time":145.54166666666666,"velocity":0.8031496062992126,"duration":0.37109375},{"name":"C#4","midi":61,"time":145.54166666666666,"velocity":0.8031496062992126,"duration":0.37109375},{"name":"C#3","midi":49,"time":145.72916666666666,"velocity":0.8031496062992126,"duration":0.18359375},{"name":"B2","midi":47,"time":145.91666666666666,"velocity":0.8031496062992126,"duration":0.859375},{"name":"B3","midi":59,"time":145.91666666666666,"velocity":0.8031496062992126,"duration":0.18359375},{"name":"D4","midi":62,"time":145.91666666666666,"velocity":0.8031496062992126,"duration":0.18359375},{"name":"B3","midi":59,"time":146.10416666666666,"velocity":0.8031496062992126,"duration":0.18359375},{"name":"D4","midi":62,"time":146.29166666666666,"velocity":0.8031496062992126,"duration":0.18359375},{"name":"F#4","midi":66,"time":146.47916666666666,"velocity":0.8031496062992126,"duration":0.18359375},{"name":"B4","midi":71,"time":146.66666666666666,"velocity":0.8031496062992126,"duration":0.18359375},{"name":"B2","midi":47,"time":146.85416666666666,"velocity":0.8031496062992126,"duration":0.18359375},{"name":"D4","midi":62,"time":146.85416666666666,"velocity":0.8031496062992126,"duration":0.18359375},{"name":"D3","midi":50,"time":147.04166666666666,"velocity":0.8031496062992126,"duration":0.18359375},{"name":"F#4","midi":66,"time":147.04166666666666,"velocity":0.8031496062992126,"duration":0.18359375},{"name":"F#3","midi":54,"time":147.22916666666666,"velocity":0.8031496062992126,"duration":0.18359375},{"name":"B4","midi":71,"time":147.22916666666666,"velocity":0.8031496062992126,"duration":0.18359375},{"name":"B3","midi":59,"time":147.41666666666666,"velocity":0.8031496062992126,"duration":0.18359375},{"name":"D5","midi":74,"time":147.41666666666666,"velocity":0.8031496062992126,"duration":0.37109375},{"name":"A3","midi":57,"time":147.60416666666666,"velocity":0.8031496062992126,"duration":0.18359375},{"name":"G#3","midi":56,"time":147.79166666666666,"velocity":0.8031496062992126,"duration":0.18359375},{"name":"F#4","midi":66,"time":147.79166666666666,"velocity":0.8031496062992126,"duration":0.37109375},{"name":"B4","midi":71,"time":147.79166666666666,"velocity":0.8031496062992126,"duration":0.37109375},{"name":"D5","midi":74,"time":147.79166666666666,"velocity":0.8031496062992126,"duration":0.37109375},{"name":"F#3","midi":54,"time":147.97916666666666,"velocity":0.8031496062992126,"duration":0.18359375},{"name":"E3","midi":52,"time":148.16666666666666,"velocity":0.8031496062992126,"duration":0.37109375},{"name":"B4","midi":71,"time":148.16666666666666,"velocity":0.8031496062992126,"duration":0.546875},{"name":"G#4","midi":68,"time":148.16666666666666,"velocity":0.8031496062992126,"duration":0.37109375},{"name":"D5","midi":74,"time":148.16666666666666,"velocity":0.8031496062992126,"duration":0.7421875},{"name":"E4","midi":64,"time":148.35416666666666,"velocity":0.8031496062992126,"duration":0.18359375},{"name":"E2","midi":40,"time":148.54166666666666,"velocity":0.8031496062992126,"duration":0.37109375},{"name":"G#4","midi":68,"time":148.54166666666666,"velocity":0.8031496062992126,"duration":0.18359375},{"name":"B4","midi":71,"time":148.72916666666666,"velocity":0.8031496062992126,"duration":0.18359375},{"name":"G#2","midi":44,"time":148.91666666666666,"velocity":0.8031496062992126,"duration":0.37109375},{"name":"D5","midi":74,"time":148.91666666666666,"velocity":0.8031496062992126,"duration":0.18359375},{"name":"B4","midi":71,"time":149.10416666666666,"velocity":0.8031496062992126,"duration":0.18359375},{"name":"B2","midi":47,"time":149.29166666666666,"velocity":0.8031496062992126,"duration":0.37109375},{"name":"G#4","midi":68,"time":149.29166666666666,"velocity":0.8031496062992126,"duration":0.18359375},{"name":"B4","midi":71,"time":149.47916666666666,"velocity":0.8031496062992126,"duration":0.18359375},{"name":"G#2","midi":44,"time":149.66666666666666,"velocity":0.8031496062992126,"duration":0.37109375},{"name":"E4","midi":64,"time":149.66666666666666,"velocity":0.8031496062992126,"duration":0.37109375},{"name":"D5","midi":74,"time":149.85416666666666,"velocity":0.8031496062992126,"duration":0.18359375},{"name":"E2","midi":40,"time":150.04166666666666,"velocity":0.8031496062992126,"duration":0.37109375},{"name":"C5","midi":72,"time":150.04166666666666,"velocity":0.8031496062992126,"duration":0.18359375},{"name":"B4","midi":71,"time":150.22916666666666,"velocity":0.8031496062992126,"duration":0.18359375},{"name":"A2","midi":45,"time":150.41666666666666,"velocity":0.8031496062992126,"duration":0.93359375},{"name":"C5","midi":72,"time":150.41666666666666,"velocity":0.8031496062992126,"duration":0.1653645833333428},{"name":"A3","midi":57,"time":150.60416666666666,"velocity":0.8031496062992126,"duration":0.18359375},{"name":"C4","midi":60,"time":150.79166666666666,"velocity":0.8031496062992126,"duration":0.18359375},{"name":"E4","midi":64,"time":150.97916666666666,"velocity":0.8031496062992126,"duration":0.18359375},{"name":"A4","midi":69,"time":151.16666666666666,"velocity":0.8031496062992126,"duration":0.18359375},{"name":"A2","midi":45,"time":151.35416666666666,"velocity":0.8031496062992126,"duration":0.18359375},{"name":"C4","midi":60,"time":151.35416666666666,"velocity":0.8031496062992126,"duration":0.18359375},{"name":"C3","midi":48,"time":151.54166666666666,"velocity":0.8031496062992126,"duration":0.18359375},{"name":"E4","midi":64,"time":151.54166666666666,"velocity":0.8031496062992126,"duration":0.18359375},{"name":"E3","midi":52,"time":151.72916666666666,"velocity":0.8031496062992126,"duration":0.18359375},{"name":"A4","midi":69,"time":151.72916666666666,"velocity":0.8031496062992126,"duration":0.18359375},{"name":"A3","midi":57,"time":151.91666666666666,"velocity":0.8031496062992126,"duration":0.18359375},{"name":"C5","midi":72,"time":151.91666666666666,"velocity":0.8031496062992126,"duration":0.37109375},{"name":"G3","midi":55,"time":152.10416666666666,"velocity":0.8031496062992126,"duration":0.18359375},{"name":"F#3","midi":54,"time":152.29166666666666,"velocity":0.8031496062992126,"duration":0.18359375},{"name":"E4","midi":64,"time":152.29166666666666,"velocity":0.8031496062992126,"duration":0.37109375},{"name":"C5","midi":72,"time":152.29166666666666,"velocity":0.8031496062992126,"duration":0.37109375},{"name":"A4","midi":69,"time":152.29166666666666,"velocity":0.8031496062992126,"duration":0.37109375},{"name":"E3","midi":52,"time":152.47916666666666,"velocity":0.8031496062992126,"duration":0.18359375},{"name":"D3","midi":50,"time":152.66666666666666,"velocity":0.8031496062992126,"duration":0.37109375},{"name":"C5","midi":72,"time":152.66666666666666,"velocity":0.8031496062992126,"duration":0.7421875},{"name":"A4","midi":69,"time":152.66666666666666,"velocity":0.8031496062992126,"duration":0.546875},{"name":"F#4","midi":66,"time":152.66666666666666,"velocity":0.8031496062992126,"duration":0.37109375},{"name":"D4","midi":62,"time":152.85416666666666,"velocity":0.8031496062992126,"duration":0.18359375},{"name":"D2","midi":38,"time":153.04166666666666,"velocity":0.8031496062992126,"duration":0.37109375},{"name":"F#4","midi":66,"time":153.04166666666666,"velocity":0.8031496062992126,"duration":0.18359375},{"name":"A4","midi":69,"time":153.22916666666666,"velocity":0.8031496062992126,"duration":0.18359375},{"name":"F#2","midi":42,"time":153.41666666666666,"velocity":0.8031496062992126,"duration":0.37109375},{"name":"C5","midi":72,"time":153.41666666666666,"velocity":0.8031496062992126,"duration":0.18359375},{"name":"A4","midi":69,"time":153.60416666666666,"velocity":0.8031496062992126,"duration":0.18359375},{"name":"A2","midi":45,"time":153.79166666666666,"velocity":0.8031496062992126,"duration":0.37109375},{"name":"F#4","midi":66,"time":153.79166666666666,"velocity":0.8031496062992126,"duration":0.18359375},{"name":"A4","midi":69,"time":153.97916666666666,"velocity":0.8031496062992126,"duration":0.18359375},{"name":"F#2","midi":42,"time":154.16666666666666,"velocity":0.8031496062992126,"duration":0.37109375},{"name":"D4","midi":62,"time":154.16666666666666,"velocity":0.8031496062992126,"duration":0.37109375},{"name":"C5","midi":72,"time":154.35416666666666,"velocity":0.8031496062992126,"duration":0.18359375},{"name":"D2","midi":38,"time":154.54166666666666,"velocity":0.8031496062992126,"duration":0.37109375},{"name":"B4","midi":71,"time":154.54166666666666,"velocity":0.8031496062992126,"duration":0.18359375},{"name":"A4","midi":69,"time":154.72916666666666,"velocity":0.8031496062992126,"duration":0.18359375},{"name":"G2","midi":43,"time":154.91666666666666,"velocity":0.8031496062992126,"duration":0.37109375},{"name":"B4","midi":71,"time":154.91666666666666,"velocity":0.8031496062992126,"duration":0.546875},{"name":"F#4","midi":66,"time":155.10416666666666,"velocity":0.8031496062992126,"duration":0.18359375},{"name":"G3","midi":55,"time":155.29166666666666,"velocity":0.8031496062992126,"duration":0.37109375},{"name":"G4","midi":67,"time":155.29166666666666,"velocity":0.8031496062992126,"duration":0.18359375},{"name":"B4","midi":71,"time":155.47916666666666,"velocity":0.8031496062992126,"duration":0.7421875},{"name":"G3","midi":55,"time":155.66666666666666,"velocity":0.8031496062992126,"duration":0.18359375},{"name":"D4","midi":62,"time":155.66666666666666,"velocity":0.8031496062992126,"duration":0.18359375},{"name":"A3","midi":57,"time":155.85416666666666,"velocity":0.8031496062992126,"duration":0.18359375},{"name":"F#4","midi":66,"time":155.85416666666666,"velocity":0.8031496062992126,"duration":0.18359375},{"name":"G3","midi":55,"time":156.04166666666666,"velocity":0.8031496062992126,"duration":0.37109375},{"name":"G4","midi":67,"time":156.04166666666666,"velocity":0.8031496062992126,"duration":0.18359375},{"name":"B4","midi":71,"time":156.22916666666666,"velocity":0.8031496062992126,"duration":0.7421875},{"name":"G3","midi":55,"time":156.41666666666666,"velocity":0.8031496062992126,"duration":0.37109375},{"name":"D4","midi":62,"time":156.41666666666666,"velocity":0.8031496062992126,"duration":0.18359375},{"name":"F#4","midi":66,"time":156.60416666666666,"velocity":0.8031496062992126,"duration":0.18359375},{"name":"G3","midi":55,"time":156.79166666666666,"velocity":0.8031496062992126,"duration":0.37109375},{"name":"G4","midi":67,"time":156.79166666666666,"velocity":0.8031496062992126,"duration":0.18359375},{"name":"B4","midi":71,"time":156.97916666666666,"velocity":0.8031496062992126,"duration":0.18359375},{"name":"A2","midi":45,"time":157.16666666666666,"velocity":0.8031496062992126,"duration":0.37109375},{"name":"C5","midi":72,"time":157.16666666666666,"velocity":0.8031496062992126,"duration":0.546875},{"name":"F#4","midi":66,"time":157.35416666666666,"velocity":0.8031496062992126,"duration":0.18359375},{"name":"G3","midi":55,"time":157.54166666666666,"velocity":0.8031496062992126,"duration":0.37109375},{"name":"G4","midi":67,"time":157.54166666666666,"velocity":0.8031496062992126,"duration":0.18359375},{"name":"C5","midi":72,"time":157.72916666666666,"velocity":0.8031496062992126,"duration":0.7421875},{"name":"G3","midi":55,"time":157.91666666666666,"velocity":0.8031496062992126,"duration":0.18359375},{"name":"D4","midi":62,"time":157.91666666666666,"velocity":0.8031496062992126,"duration":0.18359375},{"name":"A3","midi":57,"time":158.10416666666666,"velocity":0.8031496062992126,"duration":0.18359375},{"name":"F#4","midi":66,"time":158.10416666666666,"velocity":0.8031496062992126,"duration":0.18359375},{"name":"G3","midi":55,"time":158.29166666666666,"velocity":0.8031496062992126,"duration":0.37109375},{"name":"G4","midi":67,"time":158.29166666666666,"velocity":0.8031496062992126,"duration":0.18359375},{"name":"C5","midi":72,"time":158.47916666666666,"velocity":0.8031496062992126,"duration":0.7421875},{"name":"G3","midi":55,"time":158.66666666666666,"velocity":0.8031496062992126,"duration":0.37109375},{"name":"D4","midi":62,"time":158.66666666666666,"velocity":0.8031496062992126,"duration":0.18359375},{"name":"F#4","midi":66,"time":158.85416666666666,"velocity":0.8031496062992126,"duration":0.18359375},{"name":"G3","midi":55,"time":159.04166666666666,"velocity":0.8031496062992126,"duration":0.37109375},{"name":"G4","midi":67,"time":159.04166666666666,"velocity":0.8031496062992126,"duration":0.18359375},{"name":"C5","midi":72,"time":159.22916666666666,"velocity":0.8031496062992126,"duration":0.18359375},{"name":"B2","midi":47,"time":159.41666666666666,"velocity":0.8031496062992126,"duration":0.37109375},{"name":"D5","midi":74,"time":159.41666666666666,"velocity":0.8031496062992126,"duration":0.546875},{"name":"F#4","midi":66,"time":159.60416666666666,"velocity":0.8031496062992126,"duration":0.18359375},{"name":"G3","midi":55,"time":159.79166666666666,"velocity":0.8031496062992126,"duration":0.37109375},{"name":"G4","midi":67,"time":159.79166666666666,"velocity":0.8031496062992126,"duration":0.18359375},{"name":"D5","midi":74,"time":159.97916666666666,"velocity":0.8031496062992126,"duration":0.7421875},{"name":"G3","midi":55,"time":160.16666666666666,"velocity":0.8031496062992126,"duration":0.18359375},{"name":"D4","midi":62,"time":160.16666666666666,"velocity":0.8031496062992126,"duration":0.18359375},{"name":"A3","midi":57,"time":160.35416666666666,"velocity":0.8031496062992126,"duration":0.18359375},{"name":"F#4","midi":66,"time":160.35416666666666,"velocity":0.8031496062992126,"duration":0.18359375},{"name":"G3","midi":55,"time":160.54166666666666,"velocity":0.8031496062992126,"duration":0.37109375},{"name":"G4","midi":67,"time":160.54166666666666,"velocity":0.8031496062992126,"duration":0.18359375},{"name":"D5","midi":74,"time":160.72916666666666,"velocity":0.8031496062992126,"duration":0.7421875},{"name":"G3","midi":55,"time":160.91666666666666,"velocity":0.8031496062992126,"duration":0.37109375},{"name":"D4","midi":62,"time":160.91666666666666,"velocity":0.8031496062992126,"duration":0.18359375},{"name":"F#4","midi":66,"time":161.10416666666666,"velocity":0.8031496062992126,"duration":0.18359375},{"name":"G3","midi":55,"time":161.29166666666666,"velocity":0.8031496062992126,"duration":0.37109375},{"name":"G4","midi":67,"time":161.29166666666666,"velocity":0.8031496062992126,"duration":0.18359375},{"name":"D5","midi":74,"time":161.47916666666666,"velocity":0.8031496062992126,"duration":0.546875},{"name":"C3","midi":48,"time":161.66666666666666,"velocity":0.8031496062992126,"duration":0.37109375},{"name":"E4","midi":64,"time":161.66666666666666,"velocity":0.8031496062992126,"duration":0.18359375},{"name":"D4","midi":62,"time":161.85416666666666,"velocity":0.8031496062992126,"duration":0.18359375},{"name":"G3","midi":55,"time":162.04166666666666,"velocity":0.8031496062992126,"duration":0.37109375},{"name":"E4","midi":64,"time":162.04166666666666,"velocity":0.8031496062992126,"duration":0.37109375},{"name":"D5","midi":74,"time":162.22916666666666,"velocity":0.8031496062992126,"duration":0.2734375},{"name":"G3","midi":55,"time":162.41666666666666,"velocity":0.8031496062992126,"duration":0.18359375},{"name":"E4","midi":64,"time":162.41666666666666,"velocity":0.8031496062992126,"duration":0.18359375},{"name":"A3","midi":57,"time":162.60416666666666,"velocity":0.8031496062992126,"duration":0.18359375},{"name":"D4","midi":62,"time":162.60416666666666,"velocity":0.8031496062992126,"duration":0.18359375},{"name":"G3","midi":55,"time":162.79166666666666,"velocity":0.8031496062992126,"duration":0.37109375},{"name":"E4","midi":64,"time":162.79166666666666,"velocity":0.8031496062992126,"duration":0.37109375},{"name":"D5","midi":74,"time":162.97916666666666,"velocity":0.8031496062992126,"duration":0.2734375},{"name":"G3","midi":55,"time":163.16666666666666,"velocity":0.8031496062992126,"duration":0.37109375},{"name":"E4","midi":64,"time":163.16666666666666,"velocity":0.8031496062992126,"duration":0.18359375},{"name":"D4","midi":62,"time":163.35416666666666,"velocity":0.8031496062992126,"duration":0.18359375},{"name":"G3","midi":55,"time":163.54166666666666,"velocity":0.8031496062992126,"duration":0.37109375},{"name":"E4","midi":64,"time":163.54166666666666,"velocity":0.8031496062992126,"duration":0.37109375},{"name":"D5","midi":74,"time":163.72916666666666,"velocity":0.8031496062992126,"duration":0.2734375},{"name":"C3","midi":48,"time":163.91666666666666,"velocity":0.8031496062992126,"duration":0.37109375},{"name":"E4","midi":64,"time":163.91666666666666,"velocity":0.8031496062992126,"duration":0.18359375},{"name":"D4","midi":62,"time":164.10416666666666,"velocity":0.8031496062992126,"duration":0.18359375},{"name":"A3","midi":57,"time":164.29166666666666,"velocity":0.8031496062992126,"duration":0.37109375},{"name":"E4","midi":64,"time":164.29166666666666,"velocity":0.8031496062992126,"duration":0.37109375},{"name":"C5","midi":72,"time":164.47916666666666,"velocity":0.8031496062992126,"duration":0.3125},{"name":"A3","midi":57,"time":164.66666666666666,"velocity":0.8031496062992126,"duration":0.18359375},{"name":"E4","midi":64,"time":164.66666666666666,"velocity":0.8031496062992126,"duration":0.18359375},{"name":"B3","midi":59,"time":164.85416666666666,"velocity":0.8031496062992126,"duration":0.18359375},{"name":"D4","midi":62,"time":164.85416666666666,"velocity":0.8031496062992126,"duration":0.18359375},{"name":"A3","midi":57,"time":165.04166666666666,"velocity":0.8031496062992126,"duration":0.37109375},{"name":"E4","midi":64,"time":165.04166666666666,"velocity":0.8031496062992126,"duration":0.37109375},{"name":"C5","midi":72,"time":165.22916666666666,"velocity":0.8031496062992126,"duration":0.3125},{"name":"A3","midi":57,"time":165.41666666666666,"velocity":0.8031496062992126,"duration":0.37109375},{"name":"E4","midi":64,"time":165.41666666666666,"velocity":0.8031496062992126,"duration":0.18359375},{"name":"D4","midi":62,"time":165.60416666666666,"velocity":0.8031496062992126,"duration":0.18359375},{"name":"A3","midi":57,"time":165.79166666666666,"velocity":0.8031496062992126,"duration":0.37109375},{"name":"E4","midi":64,"time":165.79166666666666,"velocity":0.8031496062992126,"duration":0.37109375},{"name":"C5","midi":72,"time":165.97916666666666,"velocity":0.8031496062992126,"duration":0.3125},{"name":"D3","midi":50,"time":166.16666666666666,"velocity":0.8031496062992126,"duration":0.37109375},{"name":"F#4","midi":66,"time":166.16666666666666,"velocity":0.8031496062992126,"duration":0.18359375},{"name":"E4","midi":64,"time":166.35416666666666,"velocity":0.8031496062992126,"duration":0.18359375},{"name":"A3","midi":57,"time":166.54166666666666,"velocity":0.8031496062992126,"duration":0.37109375},{"name":"F#4","midi":66,"time":166.54166666666666,"velocity":0.8031496062992126,"duration":0.37109375},{"name":"C5","midi":72,"time":166.72916666666666,"velocity":0.8031496062992126,"duration":0.3515625},{"name":"A3","midi":57,"time":166.91666666666666,"velocity":0.8031496062992126,"duration":0.18359375},{"name":"F#4","midi":66,"time":166.91666666666666,"velocity":0.8031496062992126,"duration":0.18359375},{"name":"B3","midi":59,"time":167.10416666666666,"velocity":0.8031496062992126,"duration":0.18359375},{"name":"E4","midi":64,"time":167.10416666666666,"velocity":0.8031496062992126,"duration":0.18359375},{"name":"A3","midi":57,"time":167.29166666666666,"velocity":0.8031496062992126,"duration":0.37109375},{"name":"F#4","midi":66,"time":167.29166666666666,"velocity":0.8031496062992126,"duration":0.37109375},{"name":"C5","midi":72,"time":167.47916666666666,"velocity":0.8031496062992126,"duration":0.3515625},{"name":"A3","midi":57,"time":167.66666666666666,"velocity":0.8031496062992126,"duration":0.37109375},{"name":"F#4","midi":66,"time":167.66666666666666,"velocity":0.8031496062992126,"duration":0.18359375},{"name":"E4","midi":64,"time":167.85416666666666,"velocity":0.8031496062992126,"duration":0.18359375},{"name":"A3","midi":57,"time":168.04166666666666,"velocity":0.8031496062992126,"duration":0.37109375},{"name":"F#4","midi":66,"time":168.04166666666666,"velocity":0.8031496062992126,"duration":0.37109375},{"name":"C5","midi":72,"time":168.22916666666666,"velocity":0.8031496062992126,"duration":0.3515625},{"name":"D3","midi":50,"time":168.41666666666666,"velocity":0.8031496062992126,"duration":0.37109375},{"name":"G4","midi":67,"time":168.41666666666666,"velocity":0.8031496062992126,"duration":0.18359375},{"name":"F#4","midi":66,"time":168.60416666666666,"velocity":0.8031496062992126,"duration":0.18359375},{"name":"B3","midi":59,"time":168.79166666666666,"velocity":0.8031496062992126,"duration":0.37109375},{"name":"G4","midi":67,"time":168.79166666666666,"velocity":0.8031496062992126,"duration":0.37109375},{"name":"B4","midi":71,"time":168.97916666666666,"velocity":0.8031496062992126,"duration":0.18359375},{"name":"B3","midi":59,"time":169.16666666666666,"velocity":0.8031496062992126,"duration":0.18359375},{"name":"G4","midi":67,"time":169.16666666666666,"velocity":0.8031496062992126,"duration":0.18359375},{"name":"C4","midi":60,"time":169.35416666666666,"velocity":0.8031496062992126,"duration":0.18359375},{"name":"F#4","midi":66,"time":169.35416666666666,"velocity":0.8031496062992126,"duration":0.18359375},{"name":"B3","midi":59,"time":169.54166666666666,"velocity":0.8031496062992126,"duration":0.37109375},{"name":"G4","midi":67,"time":169.54166666666666,"velocity":0.8031496062992126,"duration":0.37109375},{"name":"B4","midi":71,"time":169.72916666666666,"velocity":0.8031496062992126,"duration":0.18359375},{"name":"B3","midi":59,"time":169.91666666666666,"velocity":0.8031496062992126,"duration":0.37109375},{"name":"G4","midi":67,"time":169.91666666666666,"velocity":0.8031496062992126,"duration":0.18359375},{"name":"F#4","midi":66,"time":170.10416666666666,"velocity":0.8031496062992126,"duration":0.18359375},{"name":"B3","midi":59,"time":170.29166666666666,"velocity":0.8031496062992126,"duration":0.37109375},{"name":"G4","midi":67,"time":170.29166666666666,"velocity":0.8031496062992126,"duration":0.37109375},{"name":"B4","midi":71,"time":170.47916666666666,"velocity":0.8031496062992126,"duration":0.18359375},{"name":"D3","midi":50,"time":170.66666666666666,"velocity":0.8031496062992126,"duration":0.37109375},{"name":"G4","midi":67,"time":170.66666666666666,"velocity":0.8031496062992126,"duration":0.18359375},{"name":"F#4","midi":66,"time":170.85416666666666,"velocity":0.8031496062992126,"duration":0.18359375},{"name":"C#4","midi":61,"time":171.04166666666666,"velocity":0.8031496062992126,"duration":0.37109375},{"name":"G4","midi":67,"time":171.04166666666666,"velocity":0.8031496062992126,"duration":0.37109375},{"name":"E5","midi":76,"time":171.22916666666666,"velocity":0.8031496062992126,"duration":0.33203125},{"name":"C#4","midi":61,"time":171.41666666666666,"velocity":0.8031496062992126,"duration":0.18359375},{"name":"G4","midi":67,"time":171.41666666666666,"velocity":0.8031496062992126,"duration":0.18359375},{"name":"D4","midi":62,"time":171.60416666666666,"velocity":0.8031496062992126,"duration":0.18359375},{"name":"F#4","midi":66,"time":171.60416666666666,"velocity":0.8031496062992126,"duration":0.18359375},{"name":"C#4","midi":61,"time":171.79166666666666,"velocity":0.8031496062992126,"duration":0.37109375},{"name":"G4","midi":67,"time":171.79166666666666,"velocity":0.8031496062992126,"duration":0.37109375},{"name":"E5","midi":76,"time":171.97916666666666,"velocity":0.8031496062992126,"duration":0.33203125},{"name":"C#4","midi":61,"time":172.16666666666666,"velocity":0.8031496062992126,"duration":0.37109375},{"name":"G4","midi":67,"time":172.16666666666666,"velocity":0.8031496062992126,"duration":0.18359375},{"name":"F#4","midi":66,"time":172.35416666666666,"velocity":0.8031496062992126,"duration":0.18359375},{"name":"C#4","midi":61,"time":172.54166666666666,"velocity":0.8031496062992126,"duration":0.37109375},{"name":"G4","midi":67,"time":172.54166666666666,"velocity":0.8031496062992126,"duration":0.3515625},{"name":"E5","midi":76,"time":172.72916666666666,"velocity":0.8031496062992126,"duration":0.15625},{"name":"D3","midi":50,"time":172.91666666666666,"velocity":0.8031496062992126,"duration":0.37109375},{"name":"F#4","midi":66,"time":172.91666666666666,"velocity":0.8031496062992126,"duration":0.18359375},{"name":"D4","midi":62,"time":173.10416666666666,"velocity":0.8031496062992126,"duration":0.18359375},{"name":"D4","midi":62,"time":173.29166666666666,"velocity":0.8031496062992126,"duration":0.18359375},{"name":"F#4","midi":66,"time":173.29166666666666,"velocity":0.8031496062992126,"duration":0.18359375},{"name":"C4","midi":60,"time":173.47916666666666,"velocity":0.8031496062992126,"duration":0.18359375},{"name":"A4","midi":69,"time":173.47916666666666,"velocity":0.8031496062992126,"duration":0.18359375},{"name":"B3","midi":59,"time":173.66666666666666,"velocity":0.8031496062992126,"duration":0.37109375},{"name":"D5","midi":74,"time":173.66666666666666,"velocity":0.8031496062992126,"duration":0.7421875},{"name":"E4","midi":64,"time":173.85416666666666,"velocity":0.8031496062992126,"duration":0.18359375},{"name":"A3","midi":57,"time":174.04166666666666,"velocity":0.8031496062992126,"duration":0.37109375},{"name":"F4","midi":65,"time":174.04166666666666,"velocity":0.8031496062992126,"duration":0.18359375},{"name":"D4","midi":62,"time":174.22916666666666,"velocity":0.8031496062992126,"duration":0.18359375},{"name":"B3","midi":59,"time":174.41666666666666,"velocity":0.8031496062992126,"duration":0.37109375},{"name":"D5","midi":74,"time":174.41666666666666,"velocity":0.8031496062992126,"duration":0.546875},{"name":"E4","midi":64,"time":174.60416666666666,"velocity":0.8031496062992126,"duration":0.18359375},{"name":"G3","midi":55,"time":174.79166666666666,"velocity":0.8031496062992126,"duration":0.37109375},{"name":"F4","midi":65,"time":174.79166666666666,"velocity":0.8031496062992126,"duration":0.18359375},{"name":"D4","midi":62,"time":174.97916666666666,"velocity":0.8031496062992126,"duration":0.18359375},{"name":"C3","midi":48,"time":175.16666666666666,"velocity":0.8031496062992126,"duration":0.37109375},{"name":"E4","midi":64,"time":175.16666666666666,"velocity":0.8031496062992126,"duration":0.18359375},{"name":"C4","midi":60,"time":175.35416666666666,"velocity":0.8031496062992126,"duration":0.18359375},{"name":"C4","midi":60,"time":175.54166666666666,"velocity":0.8031496062992126,"duration":0.18359375},{"name":"E4","midi":64,"time":175.54166666666666,"velocity":0.8031496062992126,"duration":0.18359375},{"name":"B3","midi":59,"time":175.72916666666666,"velocity":0.8031496062992126,"duration":0.18359375},{"name":"G4","midi":67,"time":175.72916666666666,"velocity":0.8031496062992126,"duration":0.18359375},{"name":"A3","midi":57,"time":175.91666666666666,"velocity":0.8031496062992126,"duration":0.37109375},{"name":"C5","midi":72,"time":175.91666666666666,"velocity":0.8031496062992126,"duration":0.7421875},{"name":"D4","midi":62,"time":176.10416666666666,"velocity":0.8031496062992126,"duration":0.18359375},{"name":"G3","midi":55,"time":176.29166666666666,"velocity":0.8031496062992126,"duration":0.37109375},{"name":"E4","midi":64,"time":176.29166666666666,"velocity":0.8031496062992126,"duration":0.18359375},{"name":"C4","midi":60,"time":176.47916666666666,"velocity":0.8031496062992126,"duration":0.18359375},{"name":"A3","midi":57,"time":176.66666666666666,"velocity":0.8031496062992126,"duration":0.37109375},{"name":"C5","midi":72,"time":176.66666666666666,"velocity":0.8031496062992126,"duration":0.546875},{"name":"D4","midi":62,"time":176.85416666666666,"velocity":0.8031496062992126,"duration":0.18359375},{"name":"F#3","midi":54,"time":177.04166666666666,"velocity":0.8031496062992126,"duration":0.37109375},{"name":"E4","midi":64,"time":177.04166666666666,"velocity":0.8031496062992126,"duration":0.18359375},{"name":"C4","midi":60,"time":177.22916666666666,"velocity":0.8031496062992126,"duration":0.18359375},{"name":"B3","midi":59,"time":177.41666666666666,"velocity":0.8031496062992126,"duration":0.18359375},{"name":"D4","midi":62,"time":177.41666666666666,"velocity":0.8031496062992126,"duration":0.37109375},{"name":"B2","midi":47,"time":177.60416666666666,"velocity":0.8031496062992126,"duration":0.18359375},{"name":"D3","midi":50,"time":177.79166666666666,"velocity":0.8031496062992126,"duration":0.18359375},{"name":"D5","midi":74,"time":177.79166666666666,"velocity":0.8031496062992126,"duration":0.37109375},{"name":"B4","midi":71,"time":177.79166666666666,"velocity":0.8031496062992126,"duration":0.37109375},{"name":"F#3","midi":54,"time":177.97916666666666,"velocity":0.8031496062992126,"duration":0.18359375},{"name":"B3","midi":59,"time":178.16666666666666,"velocity":0.8031496062992126,"duration":0.18359375},{"name":"B4","midi":71,"time":178.16666666666666,"velocity":0.8031496062992126,"duration":0.18359375},{"name":"D5","midi":74,"time":178.16666666666666,"velocity":0.8031496062992126,"duration":0.18359375},{"name":"F#3","midi":54,"time":178.35416666666666,"velocity":0.8031496062992126,"duration":0.18359375},{"name":"E5","midi":76,"time":178.35416666666666,"velocity":0.8031496062992126,"duration":0.18359375},{"name":"G#3","midi":56,"time":178.54166666666666,"velocity":0.8031496062992126,"duration":0.18359375},{"name":"B4","midi":71,"time":178.54166666666666,"velocity":0.8031496062992126,"duration":0.37109375},{"name":"D5","midi":74,"time":178.54166666666666,"velocity":0.8031496062992126,"duration":0.37109375},{"name":"E3","midi":52,"time":178.72916666666666,"velocity":0.8031496062992126,"duration":0.18359375},{"name":"B3","midi":59,"time":178.91666666666666,"velocity":0.8031496062992126,"duration":0.18359375},{"name":"D5","midi":74,"time":178.91666666666666,"velocity":0.8031496062992126,"duration":0.37109375},{"name":"B4","midi":71,"time":178.91666666666666,"velocity":0.8031496062992126,"duration":0.37109375},{"name":"F#3","midi":54,"time":179.10416666666666,"velocity":0.8031496062992126,"duration":0.18359375},{"name":"G#3","midi":56,"time":179.29166666666666,"velocity":0.8031496062992126,"duration":0.18359375},{"name":"D5","midi":74,"time":179.29166666666666,"velocity":0.8031496062992126,"duration":0.37109375},{"name":"B4","midi":71,"time":179.29166666666666,"velocity":0.8031496062992126,"duration":0.37109375},{"name":"E3","midi":52,"time":179.47916666666666,"velocity":0.8031496062992126,"duration":0.18359375},{"name":"A3","midi":57,"time":179.66666666666666,"velocity":0.8031496062992126,"duration":0.18359375},{"name":"D5","midi":74,"time":179.66666666666666,"velocity":0.8031496062992126,"duration":0.37109375},{"name":"B4","midi":71,"time":179.66666666666666,"velocity":0.8031496062992126,"duration":0.37109375},{"name":"A2","midi":45,"time":179.85416666666666,"velocity":0.8031496062992126,"duration":0.18359375},{"name":"C3","midi":48,"time":180.04166666666666,"velocity":0.8031496062992126,"duration":0.18359375},{"name":"C5","midi":72,"time":180.04166666666666,"velocity":0.8031496062992126,"duration":0.37109375},{"name":"A4","midi":69,"time":180.04166666666666,"velocity":0.8031496062992126,"duration":0.37109375},{"name":"E3","midi":52,"time":180.22916666666666,"velocity":0.8031496062992126,"duration":0.18359375},{"name":"A3","midi":57,"time":180.41666666666666,"velocity":0.8031496062992126,"duration":0.18359375},{"name":"C5","midi":72,"time":180.41666666666666,"velocity":0.8031496062992126,"duration":0.18359375},{"name":"A4","midi":69,"time":180.41666666666666,"velocity":0.8031496062992126,"duration":0.18359375},{"name":"E3","midi":52,"time":180.60416666666666,"velocity":0.8031496062992126,"duration":0.18359375},{"name":"D5","midi":74,"time":180.60416666666666,"velocity":0.8031496062992126,"duration":0.18359375},{"name":"F#3","midi":54,"time":180.79166666666666,"velocity":0.8031496062992126,"duration":0.18359375},{"name":"C5","midi":72,"time":180.79166666666666,"velocity":0.8031496062992126,"duration":0.37109375},{"name":"A4","midi":69,"time":180.79166666666666,"velocity":0.8031496062992126,"duration":0.37109375},{"name":"D3","midi":50,"time":180.97916666666666,"velocity":0.8031496062992126,"duration":0.18359375},{"name":"A3","midi":57,"time":181.16666666666666,"velocity":0.8031496062992126,"duration":0.18359375},{"name":"C5","midi":72,"time":181.16666666666666,"velocity":0.8031496062992126,"duration":0.37109375},{"name":"A4","midi":69,"time":181.16666666666666,"velocity":0.8031496062992126,"duration":0.37109375},{"name":"E3","midi":52,"time":181.35416666666666,"velocity":0.8031496062992126,"duration":0.18359375},{"name":"F#3","midi":54,"time":181.54166666666666,"velocity":0.8031496062992126,"duration":0.18359375},{"name":"C5","midi":72,"time":181.54166666666666,"velocity":0.8031496062992126,"duration":0.37109375},{"name":"A4","midi":69,"time":181.54166666666666,"velocity":0.8031496062992126,"duration":0.37109375},{"name":"D3","midi":50,"time":181.72916666666666,"velocity":0.8031496062992126,"duration":0.18359375},{"name":"G3","midi":55,"time":181.91666666666666,"velocity":0.8031496062992126,"duration":0.37109375},{"name":"B4","midi":71,"time":181.91666666666666,"velocity":0.8031496062992126,"duration":0.18359375},{"name":"A4","midi":69,"time":182.10416666666666,"velocity":0.8031496062992126,"duration":0.18359375},{"name":"B3","midi":59,"time":182.29166666666666,"velocity":0.8031496062992126,"duration":0.37109375},{"name":"G4","midi":67,"time":182.29166666666666,"velocity":0.8031496062992126,"duration":0.18359375},{"name":"F#4","midi":66,"time":182.47916666666666,"velocity":0.8031496062992126,"duration":0.18359375},{"name":"E3","midi":52,"time":182.66666666666666,"velocity":0.8031496062992126,"duration":0.37109375},{"name":"G4","midi":67,"time":182.66666666666666,"velocity":0.8031496062992126,"duration":0.18359375},{"name":"F#4","midi":66,"time":182.85416666666666,"velocity":0.8031496062992126,"duration":0.18359375},{"name":"E4","midi":64,"time":183.04166666666666,"velocity":0.8031496062992126,"duration":0.37109375},{"name":"G4","midi":67,"time":183.04166666666666,"velocity":0.8031496062992126,"duration":0.18359375},{"name":"C5","midi":72,"time":183.22916666666666,"velocity":0.8031496062992126,"duration":0.18359375},{"name":"D4","midi":62,"time":183.41666666666666,"velocity":0.8031496062992126,"duration":0.18359375},{"name":"F#4","midi":66,"time":183.41666666666666,"velocity":0.8031496062992126,"duration":0.18359375},{"name":"B3","midi":59,"time":183.60416666666666,"velocity":0.8031496062992126,"duration":0.18359375},{"name":"B4","midi":71,"time":183.60416666666666,"velocity":0.8031496062992126,"duration":0.18359375},{"name":"C4","midi":60,"time":183.79166666666666,"velocity":0.8031496062992126,"duration":0.18359375},{"name":"E4","midi":64,"time":183.79166666666666,"velocity":0.8031496062992126,"duration":0.18359375},{"name":"A3","midi":57,"time":183.97916666666666,"velocity":0.8031496062992126,"duration":0.18359375},{"name":"A4","midi":69,"time":183.97916666666666,"velocity":0.8031496062992126,"duration":0.18359375},{"name":"B3","midi":59,"time":184.16666666666666,"velocity":0.8031496062992126,"duration":2.24609375},{"name":"D#4","midi":63,"time":184.16666666666666,"velocity":0.8031496062992126,"duration":0.18359375},{"name":"C5","midi":72,"time":184.35416666666666,"velocity":0.8031496062992126,"duration":0.18359375},{"name":"B4","midi":71,"time":184.54166666666666,"velocity":0.8031496062992126,"duration":0.18359375},{"name":"A4","midi":69,"time":184.72916666666666,"velocity":0.8031496062992126,"duration":0.18359375},{"name":"F#4","midi":66,"time":184.91666666666666,"velocity":0.8031496062992126,"duration":0.18359375},{"name":"C5","midi":72,"time":185.10416666666666,"velocity":0.8031496062992126,"duration":0.18359375},{"name":"B4","midi":71,"time":185.29166666666666,"velocity":0.8031496062992126,"duration":0.18359375},{"name":"A4","midi":69,"time":185.47916666666666,"velocity":0.8031496062992126,"duration":0.18359375},{"name":"A4","midi":69,"time":185.66666666666666,"velocity":0.8031496062992126,"duration":0.18359375},{"name":"C5","midi":72,"time":185.85416666666666,"velocity":0.8031496062992126,"duration":0.18359375},{"name":"B4","midi":71,"time":186.04166666666666,"velocity":0.8031496062992126,"duration":0.18359375},{"name":"A4","midi":69,"time":186.22916666666666,"velocity":0.8031496062992126,"duration":0.18359375},{"name":"B2","midi":47,"time":186.41666666666666,"velocity":0.8031496062992126,"duration":2.24609375},{"name":"B3","midi":59,"time":186.41666666666666,"velocity":0.8031496062992126,"duration":2.24609375},{"name":"A4","midi":69,"time":186.60416666666666,"velocity":0.8031496062992126,"duration":0.18359375},{"name":"G4","midi":67,"time":186.79166666666666,"velocity":0.8031496062992126,"duration":0.18359375},{"name":"F#4","midi":66,"time":186.97916666666666,"velocity":0.8031496062992126,"duration":0.18359375},{"name":"D#4","midi":63,"time":187.16666666666666,"velocity":0.8031496062992126,"duration":0.18359375},{"name":"A4","midi":69,"time":187.35416666666666,"velocity":0.8031496062992126,"duration":0.18359375},{"name":"G4","midi":67,"time":187.54166666666666,"velocity":0.8031496062992126,"duration":0.18359375},{"name":"F#4","midi":66,"time":187.72916666666666,"velocity":0.8031496062992126,"duration":0.18359375},{"name":"F#4","midi":66,"time":187.91666666666666,"velocity":0.8031496062992126,"duration":0.18359375},{"name":"A4","midi":69,"time":188.10416666666666,"velocity":0.8031496062992126,"duration":0.18359375},{"name":"G4","midi":67,"time":188.29166666666666,"velocity":0.8031496062992126,"duration":0.18359375},{"name":"F#4","midi":66,"time":188.47916666666666,"velocity":0.8031496062992126,"duration":0.18359375},{"name":"B2","midi":47,"time":188.66666666666666,"velocity":0.8031496062992126,"duration":2.62109375},{"name":"A3","midi":57,"time":188.66666666666666,"velocity":0.8031496062992126,"duration":2.24609375},{"name":"F#4","midi":66,"time":188.85416666666666,"velocity":0.8031496062992126,"duration":0.18359375},{"name":"E4","midi":64,"time":189.04166666666666,"velocity":0.8031496062992126,"duration":0.18359375},{"name":"D#4","midi":63,"time":189.22916666666666,"velocity":0.8031496062992126,"duration":0.18359375},{"name":"C4","midi":60,"time":189.41666666666666,"velocity":0.8031496062992126,"duration":0.18359375},{"name":"F#4","midi":66,"time":189.60416666666666,"velocity":0.8031496062992126,"duration":0.18359375},{"name":"E4","midi":64,"time":189.79166666666666,"velocity":0.8031496062992126,"duration":0.18359375},{"name":"D#4","midi":63,"time":189.97916666666666,"velocity":0.8031496062992126,"duration":0.18359375},{"name":"D#4","midi":63,"time":190.16666666666666,"velocity":0.8031496062992126,"duration":0.18359375},{"name":"F#4","midi":66,"time":190.35416666666666,"velocity":0.8031496062992126,"duration":0.18359375},{"name":"E4","midi":64,"time":190.54166666666666,"velocity":0.8031496062992126,"duration":0.18359375},{"name":"D#4","midi":63,"time":190.72916666666666,"velocity":0.8031496062992126,"duration":0.37109375},{"name":"F#4","midi":66,"time":191.10416666666666,"velocity":0.8031496062992126,"duration":0.18359375},{"name":"B2","midi":47,"time":191.29166666666666,"velocity":0.8031496062992126,"duration":0.37109375},{"name":"E4","midi":64,"time":191.29166666666666,"velocity":0.8031496062992126,"duration":0.18359375},{"name":"D#4","midi":63,"time":191.47916666666666,"velocity":0.8031496062992126,"duration":0.18359375},{"name":"D#3","midi":51,"time":191.66666666666666,"velocity":0.8031496062992126,"duration":0.37109375},{"name":"C5","midi":72,"time":191.66666666666666,"velocity":0.8031496062992126,"duration":0.18359375},{"name":"F#4","midi":66,"time":191.85416666666666,"velocity":0.8031496062992126,"duration":0.18359375},{"name":"F#3","midi":54,"time":192.04166666666666,"velocity":0.8031496062992126,"duration":0.37109375},{"name":"E4","midi":64,"time":192.04166666666666,"velocity":0.8031496062992126,"duration":0.18359375},{"name":"D#4","midi":63,"time":192.22916666666666,"velocity":0.8031496062992126,"duration":0.18359375},{"name":"D#3","midi":51,"time":192.41666666666666,"velocity":0.8031496062992126,"duration":0.37109375},{"name":"B4","midi":71,"time":192.41666666666666,"velocity":0.8031496062992126,"duration":0.18359375},{"name":"A4","midi":69,"time":192.60416666666666,"velocity":0.8031496062992126,"duration":0.18359375},{"name":"B2","midi":47,"time":192.79166666666666,"velocity":0.8031496062992126,"duration":0.37109375},{"name":"G4","midi":67,"time":192.79166666666666,"velocity":0.8031496062992126,"duration":0.18359375},{"name":"F#4","midi":66,"time":192.97916666666666,"velocity":0.8031496062992126,"duration":0.18359375},{"name":"E2","midi":40,"time":193.16666666666666,"velocity":0.8031496062992126,"duration":0.9375},{"name":"G4","midi":67,"time":193.16666666666666,"velocity":0.8031496062992126,"duration":0.37109375},{"name":"B4","midi":71,"time":193.54166666666666,"velocity":0.8031496062992126,"duration":0.37109375},{"name":"E4","midi":64,"time":193.91666666666666,"velocity":0.8031496062992126,"duration":0.37109375},{"name":"G3","midi":55,"time":194.29166666666666,"velocity":0.8031496062992126,"duration":0.37109375},{"name":"E3","midi":52,"time":194.29166666666666,"velocity":0.8031496062992126,"duration":0.37109375},{"name":"E5","midi":76,"time":194.29166666666666,"velocity":0.8031496062992126,"duration":0.37109375},{"name":"F#3","midi":54,"time":194.66666666666666,"velocity":0.8031496062992126,"duration":0.37109375},{"name":"A3","midi":57,"time":194.66666666666666,"velocity":0.8031496062992126,"duration":0.37109375},{"name":"D5","midi":74,"time":194.66666666666666,"velocity":0.8031496062992126,"duration":0.18359375},{"name":"B4","midi":71,"time":194.85416666666666,"velocity":0.8031496062992126,"duration":0.18359375},{"name":"F#3","midi":54,"time":195.04166666666666,"velocity":0.8031496062992126,"duration":0.37109375},{"name":"D3","midi":50,"time":195.04166666666666,"velocity":0.8031496062992126,"duration":0.37109375},{"name":"C5","midi":72,"time":195.04166666666666,"velocity":0.8031496062992126,"duration":0.18359375},{"name":"A4","midi":69,"time":195.22916666666666,"velocity":0.8031496062992126,"duration":0.18359375},{"name":"G3","midi":55,"time":195.41666666666666,"velocity":0.8031496062992126,"duration":0.7421875},{"name":"B4","midi":71,"time":195.41666666666666,"velocity":0.8031496062992126,"duration":0.18359375},{"name":"F#4","midi":66,"time":195.60416666666666,"velocity":0.8031496062992126,"duration":0.18359375},{"name":"G2","midi":43,"time":195.79166666666666,"velocity":0.8031496062992126,"duration":0.74609375},{"name":"G4","midi":67,"time":195.79166666666666,"velocity":0.8031496062992126,"duration":0.18359375},{"name":"D#4","midi":63,"time":195.97916666666666,"velocity":0.8031496062992126,"duration":0.18359375},{"name":"E4","midi":64,"time":196.16666666666666,"velocity":0.8031496062992126,"duration":0.18359375},{"name":"G4","midi":67,"time":196.35416666666666,"velocity":0.8031496062992126,"duration":0.18359375},{"name":"E4","midi":64,"time":196.54166666666666,"velocity":0.8031496062992126,"duration":0.37109375},{"name":"A3","midi":57,"time":196.54166666666666,"velocity":0.8031496062992126,"duration":0.37109375},{"name":"C5","midi":72,"time":196.54166666666666,"velocity":0.8031496062992126,"duration":0.18359375},{"name":"A4","midi":69,"time":196.72916666666666,"velocity":0.8031496062992126,"duration":0.18359375},{"name":"G3","midi":55,"time":196.91666666666666,"velocity":0.8031496062992126,"duration":0.37109375},{"name":"E4","midi":64,"time":196.91666666666666,"velocity":0.8031496062992126,"duration":0.37109375},{"name":"B4","midi":71,"time":196.91666666666666,"velocity":0.8031496062992126,"duration":0.18359375},{"name":"G4","midi":67,"time":197.10416666666666,"velocity":0.8031496062992126,"duration":0.18359375},{"name":"D#4","midi":63,"time":197.29166666666666,"velocity":0.8031496062992126,"duration":0.37109375},{"name":"F#3","midi":54,"time":197.29166666666666,"velocity":0.8031496062992126,"duration":0.37109375},{"name":"A4","midi":69,"time":197.29166666666666,"velocity":0.8031496062992126,"duration":0.18359375},{"name":"F#4","midi":66,"time":197.47916666666666,"velocity":0.8031496062992126,"duration":0.18359375},{"name":"E3","midi":52,"time":197.66666666666666,"velocity":0.8031496062992126,"duration":0.9375},{"name":"E4","midi":64,"time":197.66666666666666,"velocity":0.8031496062992126,"duration":0.7421875},{"name":"G4","midi":67,"time":197.66666666666666,"velocity":0.8031496062992126,"duration":0.18359375},{"name":"F#4","midi":66,"time":197.85416666666666,"velocity":0.8031496062992126,"duration":0.18359375},{"name":"G4","midi":67,"time":198.04166666666666,"velocity":0.8031496062992126,"duration":0.18359375},{"name":"D#4","midi":63,"time":198.22916666666666,"velocity":0.8031496062992126,"duration":0.18359375},{"name":"E4","midi":64,"time":198.41666666666666,"velocity":0.8031496062992126,"duration":0.18359375},{"name":"G4","midi":67,"time":198.60416666666666,"velocity":0.8031496062992126,"duration":0.18359375},{"name":"G3","midi":55,"time":198.79166666666666,"velocity":0.8031496062992126,"duration":0.37109375},{"name":"E4","midi":64,"time":198.79166666666666,"velocity":0.8031496062992126,"duration":0.37109375},{"name":"B4","midi":71,"time":198.79166666666666,"velocity":0.8031496062992126,"duration":0.18359375},{"name":"G4","midi":67,"time":198.97916666666666,"velocity":0.8031496062992126,"duration":0.18359375},{"name":"F#3","midi":54,"time":199.16666666666666,"velocity":0.8031496062992126,"duration":0.37109375},{"name":"D#4","midi":63,"time":199.16666666666666,"velocity":0.8031496062992126,"duration":0.37109375},{"name":"A4","midi":69,"time":199.16666666666666,"velocity":0.8031496062992126,"duration":0.18359375},{"name":"F#4","midi":66,"time":199.35416666666666,"velocity":0.8031496062992126,"duration":0.18359375},{"name":"B3","midi":59,"time":199.54166666666666,"velocity":0.8031496062992126,"duration":0.37109375},{"name":"E3","midi":52,"time":199.54166666666666,"velocity":0.8031496062992126,"duration":0.37109375},{"name":"G4","midi":67,"time":199.54166666666666,"velocity":0.8031496062992126,"duration":0.18359375},{"name":"E4","midi":64,"time":199.72916666666666,"velocity":0.8031496062992126,"duration":0.18359375},{"name":"D#3","midi":51,"time":199.91666666666666,"velocity":0.8031496062992126,"duration":0.37109375},{"name":"A3","midi":57,"time":199.91666666666666,"velocity":0.8031496062992126,"duration":0.390625},{"name":"F#4","midi":66,"time":199.91666666666666,"velocity":0.8031496062992126,"duration":0.18359375},{"name":"E4","midi":64,"time":200.10416666666666,"velocity":0.8031496062992126,"duration":0.18359375},{"name":"B2","midi":47,"time":200.29166666666666,"velocity":0.8031496062992126,"duration":0.37109375},{"name":"F#4","midi":66,"time":200.29166666666666,"velocity":0.8031496062992126,"duration":0.37109375},{"name":"D#4","midi":63,"time":200.47916666666666,"velocity":0.8031496062992126,"duration":0.18359375},{"name":"C3","midi":48,"time":200.66666666666666,"velocity":0.8031496062992126,"duration":0.37109375},{"name":"G3","midi":55,"time":200.66666666666666,"velocity":0.8031496062992126,"duration":0.37109375},{"name":"E4","midi":64,"time":200.66666666666666,"velocity":0.8031496062992126,"duration":0.18359375},{"name":"D#4","midi":63,"time":200.85416666666666,"velocity":0.8031496062992126,"duration":0.18359375},{"name":"A2","midi":45,"time":201.04166666666666,"velocity":0.8031496062992126,"duration":0.37109375},{"name":"F#3","midi":54,"time":201.04166666666666,"velocity":0.8031496062992126,"duration":0.37109375},{"name":"E3","midi":52,"time":201.04166666666666,"velocity":0.8031496062992126,"duration":0.7421875},{"name":"E4","midi":64,"time":201.04166666666666,"velocity":0.8031496062992126,"duration":0.18359375},{"name":"C5","midi":72,"time":201.22916666666666,"velocity":0.8031496062992126,"duration":0.18359375},{"name":"G3","midi":55,"time":201.41666666666666,"velocity":0.8031496062992126,"duration":0.37109375},{"name":"B2","midi":47,"time":201.41666666666666,"velocity":0.8031496062992126,"duration":0.7421875},{"name":"B4","midi":71,"time":201.41666666666666,"velocity":0.8031496062992126,"duration":0.18359375},{"name":"G4","midi":67,"time":201.60416666666666,"velocity":0.8031496062992126,"duration":0.18359375},{"name":"F#3","midi":54,"time":201.79166666666666,"velocity":0.8031496062992126,"duration":0.37109375},{"name":"D#3","midi":51,"time":201.79166666666666,"velocity":0.8031496062992126,"duration":0.37109375},{"name":"A4","midi":69,"time":201.79166666666666,"velocity":0.8031496062992126,"duration":0.18359375},{"name":"F#4","midi":66,"time":201.97916666666666,"velocity":0.8031496062992126,"duration":0.18359375},{"name":"E2","midi":40,"time":202.16666666666666,"velocity":0.8031496062992126,"duration":0.3515625},{"name":"E3","midi":52,"time":202.16666666666666,"velocity":0.8031496062992126,"duration":0.3515625},{"name":"G4","midi":67,"time":202.16666666666666,"velocity":0.8031496062992126,"duration":0.18359375},{"name":"F#4","midi":66,"time":202.35416666666666,"velocity":0.8031496062992126,"duration":0.18359375},{"name":"B3","midi":59,"time":202.54166666666666,"velocity":0.8031496062992126,"duration":0.37109375},{"name":"E4","midi":64,"time":202.54166666666666,"velocity":0.8031496062992126,"duration":0.18359375},{"name":"D#4","midi":63,"time":202.72916666666666,"velocity":0.8031496062992126,"duration":0.18359375},{"name":"E3","midi":52,"time":202.91666666666666,"velocity":0.8031496062992126,"duration":0.37109375},{"name":"E4","midi":64,"time":202.91666666666666,"velocity":0.8031496062992126,"duration":0.18359375},{"name":"F#4","midi":66,"time":203.10416666666666,"velocity":0.8031496062992126,"duration":0.18359375},{"name":"E4","midi":64,"time":203.29166666666666,"velocity":0.8031496062992126,"duration":0.37109375},{"name":"G4","midi":67,"time":203.29166666666666,"velocity":0.8031496062992126,"duration":0.18359375},{"name":"C5","midi":72,"time":203.47916666666666,"velocity":0.8031496062992126,"duration":0.18359375},{"name":"D4","midi":62,"time":203.66666666666666,"velocity":0.8031496062992126,"duration":0.18359375},{"name":"B4","midi":71,"time":203.66666666666666,"velocity":0.8031496062992126,"duration":0.18359375},{"name":"B3","midi":59,"time":203.85416666666666,"velocity":0.8031496062992126,"duration":0.18359375},{"name":"G4","midi":67,"time":203.85416666666666,"velocity":0.8031496062992126,"duration":0.18359375},{"name":"C4","midi":60,"time":204.04166666666666,"velocity":0.8031496062992126,"duration":0.18359375},{"name":"A4","midi":69,"time":204.04166666666666,"velocity":0.8031496062992126,"duration":0.18359375},{"name":"A3","midi":57,"time":204.22916666666666,"velocity":0.8031496062992126,"duration":0.18359375},{"name":"F#4","midi":66,"time":204.22916666666666,"velocity":0.8031496062992126,"duration":0.18359375},{"name":"B3","midi":59,"time":204.41666666666666,"velocity":0.8031496062992126,"duration":0.18359375},{"name":"G4","midi":67,"time":204.41666666666666,"velocity":0.8031496062992126,"duration":0.18359375},{"name":"A3","midi":57,"time":204.60416666666666,"velocity":0.8031496062992126,"duration":0.18359375},{"name":"F#4","midi":66,"time":204.60416666666666,"velocity":0.8031496062992126,"duration":0.18359375},{"name":"G3","midi":55,"time":204.79166666666666,"velocity":0.8031496062992126,"duration":0.18359375},{"name":"E4","midi":64,"time":204.79166666666666,"velocity":0.8031496062992126,"duration":0.18359375},{"name":"B3","midi":59,"time":204.97916666666666,"velocity":0.8031496062992126,"duration":0.18359375},{"name":"D#4","midi":63,"time":204.97916666666666,"velocity":0.8031496062992126,"duration":0.18359375},{"name":"E3","midi":52,"time":205.16666666666666,"velocity":0.8031496062992126,"duration":0.18359375},{"name":"E4","midi":64,"time":205.16666666666666,"velocity":0.8031496062992126,"duration":0.18359375},{"name":"G3","midi":55,"time":205.35416666666666,"velocity":0.8031496062992126,"duration":0.18359375},{"name":"F#4","midi":66,"time":205.35416666666666,"velocity":0.8031496062992126,"duration":0.18359375},{"name":"C4","midi":60,"time":205.54166666666666,"velocity":0.8031496062992126,"duration":0.18359375},{"name":"G4","midi":67,"time":205.54166666666666,"velocity":0.8031496062992126,"duration":0.18359375},{"name":"A3","midi":57,"time":205.72916666666666,"velocity":0.8031496062992126,"duration":0.18359375},{"name":"A4","midi":69,"time":205.72916666666666,"velocity":0.8031496062992126,"duration":0.18359375},{"name":"B3","midi":59,"time":205.91666666666666,"velocity":0.8031496062992126,"duration":0.18359375},{"name":"G4","midi":67,"time":205.91666666666666,"velocity":0.8031496062992126,"duration":0.18359375},{"name":"G3","midi":55,"time":206.10416666666666,"velocity":0.8031496062992126,"duration":0.18359375},{"name":"E4","midi":64,"time":206.10416666666666,"velocity":0.8031496062992126,"duration":0.18359375},{"name":"A3","midi":57,"time":206.29166666666666,"velocity":0.8031496062992126,"duration":0.18359375},{"name":"F#4","midi":66,"time":206.29166666666666,"velocity":0.8031496062992126,"duration":0.18359375},{"name":"F#3","midi":54,"time":206.47916666666666,"velocity":0.8031496062992126,"duration":0.18359375},{"name":"D#4","midi":63,"time":206.47916666666666,"velocity":0.8031496062992126,"duration":0.18359375},{"name":"G3","midi":55,"time":206.66666666666666,"velocity":0.8031496062992126,"duration":0.18359375},{"name":"E4","midi":64,"time":206.66666666666666,"velocity":0.8031496062992126,"duration":0.18359375},{"name":"F#3","midi":54,"time":206.85416666666666,"velocity":0.8031496062992126,"duration":0.18359375},{"name":"F#4","midi":66,"time":206.85416666666666,"velocity":0.8031496062992126,"duration":0.18359375},{"name":"E3","midi":52,"time":207.04166666666666,"velocity":0.8031496062992126,"duration":0.18359375},{"name":"G4","midi":67,"time":207.04166666666666,"velocity":0.8031496062992126,"duration":0.18359375},{"name":"G3","midi":55,"time":207.22916666666666,"velocity":0.8031496062992126,"duration":0.18359375},{"name":"E4","midi":64,"time":207.22916666666666,"velocity":0.8031496062992126,"duration":0.18359375},{"name":"B2","midi":47,"time":207.41666666666666,"velocity":0.8031496062992126,"duration":0.18359375},{"name":"D#4","midi":63,"time":207.41666666666666,"velocity":0.8031496062992126,"duration":0.18359375},{"name":"E3","midi":52,"time":207.60416666666666,"velocity":0.8031496062992126,"duration":0.18359375},{"name":"E4","midi":64,"time":207.60416666666666,"velocity":0.8031496062992126,"duration":0.18359375},{"name":"B3","midi":59,"time":207.79166666666666,"velocity":0.8031496062992126,"duration":0.18359375},{"name":"G4","midi":67,"time":207.79166666666666,"velocity":0.8031496062992126,"duration":0.18359375},{"name":"G3","midi":55,"time":207.97916666666666,"velocity":0.8031496062992126,"duration":0.18359375},{"name":"E4","midi":64,"time":207.97916666666666,"velocity":0.8031496062992126,"duration":0.18359375},{"name":"A3","midi":57,"time":208.16666666666666,"velocity":0.8031496062992126,"duration":0.18359375},{"name":"F#4","midi":66,"time":208.16666666666666,"velocity":0.8031496062992126,"duration":0.18359375},{"name":"F#3","midi":54,"time":208.35416666666666,"velocity":0.8031496062992126,"duration":0.18359375},{"name":"D#4","midi":63,"time":208.35416666666666,"velocity":0.8031496062992126,"duration":0.18359375},{"name":"G3","midi":55,"time":208.54166666666666,"velocity":0.8031496062992126,"duration":0.18359375},{"name":"E4","midi":64,"time":208.54166666666666,"velocity":0.8031496062992126,"duration":0.18359375},{"name":"E3","midi":52,"time":208.72916666666666,"velocity":0.8031496062992126,"duration":0.18359375},{"name":"C#4","midi":61,"time":208.72916666666666,"velocity":0.8031496062992126,"duration":0.18359375},{"name":"F#3","midi":54,"time":208.91666666666666,"velocity":0.8031496062992126,"duration":0.18359375},{"name":"D#4","midi":63,"time":208.91666666666666,"velocity":0.8031496062992126,"duration":0.18359375},{"name":"D#3","midi":51,"time":209.10416666666666,"velocity":0.8031496062992126,"duration":0.18359375},{"name":"C5","midi":72,"time":209.10416666666666,"velocity":0.8031496062992126,"duration":0.18359375},{"name":"E3","midi":52,"time":209.29166666666666,"velocity":0.8031496062992126,"duration":0.18359375},{"name":"B4","midi":71,"time":209.29166666666666,"velocity":0.8031496062992126,"duration":0.18359375},{"name":"D#3","midi":51,"time":209.47916666666666,"velocity":0.8031496062992126,"duration":0.18359375},{"name":"A4","midi":69,"time":209.47916666666666,"velocity":0.8031496062992126,"duration":0.18359375},{"name":"E3","midi":52,"time":209.66666666666666,"velocity":0.8031496062992126,"duration":0.37109375},{"name":"G4","midi":67,"time":209.66666666666666,"velocity":0.8031496062992126,"duration":0.18359375},{"name":"A4","midi":69,"time":209.85416666666666,"velocity":0.8031496062992126,"duration":0.18359375},{"name":"A3","midi":57,"time":210.04166666666666,"velocity":0.8031496062992126,"duration":0.37109375},{"name":"B4","midi":71,"time":210.04166666666666,"velocity":0.8031496062992126,"duration":0.18359375},{"name":"C5","midi":72,"time":210.22916666666666,"velocity":0.8031496062992126,"duration":0.18359375},{"name":"B3","midi":59,"time":210.41666666666666,"velocity":0.8031496062992126,"duration":0.7421875},{"name":"D#4","midi":63,"time":210.41666666666666,"velocity":0.8031496062992126,"duration":0.546875},{"name":"G4","midi":67,"time":210.41666666666666,"velocity":0.8031496062992126,"duration":0.08984375},{"name":"F#4","midi":66,"time":210.51041666666666,"velocity":0.8031496062992126,"duration":0.08984375},{"name":"G4","midi":67,"time":210.60416666666666,"velocity":0.8031496062992126,"duration":0.08984375},{"name":"F#4","midi":66,"time":210.69791666666666,"velocity":0.8031496062992126,"duration":0.08984375},{"name":"B2","midi":47,"time":210.79166666666666,"velocity":0.8031496062992126,"duration":0.37109375},{"name":"G4","midi":67,"time":210.79166666666666,"velocity":0.8031496062992126,"duration":0.08984375},{"name":"F#4","midi":66,"time":210.88541666666666,"velocity":0.8031496062992126,"duration":0.08984375},{"name":"E4","midi":64,"time":210.97916666666666,"velocity":0.8031496062992126,"duration":0.18359375},{"name":"E3","midi":52,"time":211.16666666666666,"velocity":0.8031496062992126,"duration":0.93359375},{"name":"E4","midi":64,"time":211.16666666666666,"velocity":0.8031496062992126,"duration":0.37109375},{"name":"G4","midi":67,"time":211.54166666666666,"velocity":0.8031496062992126,"duration":0.37109375},{"name":"E4","midi":64,"time":211.54166666666666,"velocity":0.8031496062992126,"duration":0.37109375},{"name":"G4","midi":67,"time":211.91666666666666,"velocity":0.8031496062992126,"duration":0.18359375},{"name":"E4","midi":64,"time":211.91666666666666,"velocity":0.8031496062992126,"duration":0.18359375},{"name":"E2","midi":40,"time":212.10416666666666,"velocity":0.8031496062992126,"duration":0.18359375},{"name":"A4","midi":69,"time":212.10416666666666,"velocity":0.8031496062992126,"duration":0.18359375},{"name":"G2","midi":43,"time":212.29166666666666,"velocity":0.8031496062992126,"duration":0.18359375},{"name":"G4","midi":67,"time":212.29166666666666,"velocity":0.8031496062992126,"duration":0.37109375},{"name":"E4","midi":64,"time":212.29166666666666,"velocity":0.8031496062992126,"duration":0.37109375},{"name":"B2","midi":47,"time":212.47916666666666,"velocity":0.8031496062992126,"duration":0.18359375},{"name":"E3","midi":52,"time":212.66666666666666,"velocity":0.8031496062992126,"duration":0.18359375},{"name":"E4","midi":64,"time":212.66666666666666,"velocity":0.8031496062992126,"duration":0.37109375},{"name":"G4","midi":67,"time":212.66666666666666,"velocity":0.8031496062992126,"duration":0.37109375},{"name":"D3","midi":50,"time":212.85416666666666,"velocity":0.8031496062992126,"duration":0.18359375},{"name":"C#3","midi":49,"time":213.04166666666666,"velocity":0.8031496062992126,"duration":0.18359375},{"name":"E4","midi":64,"time":213.04166666666666,"velocity":0.8031496062992126,"duration":0.37109375},{"name":"G4","midi":67,"time":213.04166666666666,"velocity":0.8031496062992126,"duration":0.37109375},{"name":"B2","midi":47,"time":213.22916666666666,"velocity":0.8031496062992126,"duration":0.18359375},{"name":"A2","midi":45,"time":213.41666666666666,"velocity":0.8031496062992126,"duration":0.93359375},{"name":"G4","midi":67,"time":213.41666666666666,"velocity":0.8031496062992126,"duration":0.37109375},{"name":"C#4","midi":61,"time":213.41666666666666,"velocity":0.8031496062992126,"duration":0.7421875},{"name":"A#4","midi":70,"time":213.41666666666666,"velocity":0.8031496062992126,"duration":0.4427083333333428},{"name":"E4","midi":64,"time":213.79166666666666,"velocity":0.8031496062992126,"duration":0.37109375},{"name":"G4","midi":67,"time":213.79166666666666,"velocity":0.8031496062992126,"duration":0.37109375},{"name":"E4","midi":64,"time":214.16666666666666,"velocity":0.8031496062992126,"duration":0.18359375},{"name":"G4","midi":67,"time":214.16666666666666,"velocity":0.8031496062992126,"duration":0.18359375},{"name":"A2","midi":45,"time":214.35416666666666,"velocity":0.8031496062992126,"duration":0.18359375},{"name":"A4","midi":69,"time":214.35416666666666,"velocity":0.8031496062992126,"duration":0.18359375},{"name":"C#3","midi":49,"time":214.54166666666666,"velocity":0.8031496062992126,"duration":0.18359375},{"name":"E4","midi":64,"time":214.54166666666666,"velocity":0.8031496062992126,"duration":0.37109375},{"name":"G4","midi":67,"time":214.54166666666666,"velocity":0.8031496062992126,"duration":0.37109375},{"name":"E3","midi":52,"time":214.72916666666666,"velocity":0.8031496062992126,"duration":0.18359375},{"name":"A3","midi":57,"time":214.91666666666666,"velocity":0.8031496062992126,"duration":0.18359375},{"name":"G4","midi":67,"time":214.91666666666666,"velocity":0.8031496062992126,"duration":0.18359375},{"name":"E4","midi":64,"time":214.91666666666666,"velocity":0.8031496062992126,"duration":0.546875},{"name":"G3","midi":55,"time":215.10416666666666,"velocity":0.8031496062992126,"duration":0.18359375},{"name":"A#4","midi":70,"time":215.10416666666666,"velocity":0.8031496062992126,"duration":0.2109375},{"name":"F3","midi":53,"time":215.29166666666666,"velocity":0.8031496062992126,"duration":0.18359375},{"name":"A4","midi":69,"time":215.29166666666666,"velocity":0.8031496062992126,"duration":0.18359375},{"name":"E3","midi":52,"time":215.47916666666666,"velocity":0.8031496062992126,"duration":0.18359375},{"name":"G4","midi":67,"time":215.47916666666666,"velocity":0.8031496062992126,"duration":0.18359375},{"name":"D3","midi":50,"time":215.66666666666666,"velocity":0.8031496062992126,"duration":0.93359375},{"name":"F4","midi":65,"time":215.66666666666666,"velocity":0.8031496062992126,"duration":0.37109375},{"name":"F4","midi":65,"time":216.04166666666666,"velocity":0.8031496062992126,"duration":0.37109375},{"name":"D4","midi":62,"time":216.04166666666666,"velocity":0.8031496062992126,"duration":0.37109375},{"name":"F4","midi":65,"time":216.41666666666666,"velocity":0.8031496062992126,"duration":0.18359375},{"name":"D4","midi":62,"time":216.41666666666666,"velocity":0.8031496062992126,"duration":0.18359375},{"name":"D2","midi":38,"time":216.60416666666666,"velocity":0.8031496062992126,"duration":0.18359375},{"name":"G4","midi":67,"time":216.60416666666666,"velocity":0.8031496062992126,"duration":0.18359375},{"name":"F2","midi":41,"time":216.79166666666666,"velocity":0.8031496062992126,"duration":0.18359375},{"name":"F4","midi":65,"time":216.79166666666666,"velocity":0.8031496062992126,"duration":0.37109375},{"name":"D4","midi":62,"time":216.79166666666666,"velocity":0.8031496062992126,"duration":0.37109375},{"name":"A2","midi":45,"time":216.97916666666666,"velocity":0.8031496062992126,"duration":0.18359375},{"name":"D3","midi":50,"time":217.16666666666666,"velocity":0.8031496062992126,"duration":0.18359375},{"name":"F4","midi":65,"time":217.16666666666666,"velocity":0.8031496062992126,"duration":0.37109375},{"name":"D4","midi":62,"time":217.16666666666666,"velocity":0.8031496062992126,"duration":0.37109375},{"name":"C3","midi":48,"time":217.35416666666666,"velocity":0.8031496062992126,"duration":0.18359375},{"name":"B2","midi":47,"time":217.54166666666666,"velocity":0.8031496062992126,"duration":0.18359375},{"name":"F4","midi":65,"time":217.54166666666666,"velocity":0.8031496062992126,"duration":0.37109375},{"name":"D4","midi":62,"time":217.54166666666666,"velocity":0.8031496062992126,"duration":0.37109375},{"name":"A2","midi":45,"time":217.72916666666666,"velocity":0.8031496062992126,"duration":0.18359375},{"name":"G2","midi":43,"time":217.91666666666666,"velocity":0.8031496062992126,"duration":0.93359375},{"name":"F4","midi":65,"time":217.91666666666666,"velocity":0.8031496062992126,"duration":0.37109375},{"name":"D5","midi":74,"time":217.91666666666666,"velocity":0.8031496062992126,"duration":0.7421875},{"name":"B4","midi":71,"time":217.91666666666666,"velocity":0.8031496062992126,"duration":0.37109375},{"name":"F4","midi":65,"time":218.29166666666666,"velocity":0.8031496062992126,"duration":0.37109375},{"name":"D4","midi":62,"time":218.29166666666666,"velocity":0.8031496062992126,"duration":0.37109375},{"name":"F4","midi":65,"time":218.66666666666666,"velocity":0.8031496062992126,"duration":0.18359375},{"name":"D4","midi":62,"time":218.66666666666666,"velocity":0.8031496062992126,"duration":0.18359375},{"name":"G2","midi":43,"time":218.85416666666666,"velocity":0.8031496062992126,"duration":0.18359375},{"name":"G4","midi":67,"time":218.85416666666666,"velocity":0.8031496062992126,"duration":0.18359375},{"name":"B2","midi":47,"time":219.04166666666666,"velocity":0.8031496062992126,"duration":0.18359375},{"name":"F4","midi":65,"time":219.04166666666666,"velocity":0.8031496062992126,"duration":0.37109375},{"name":"D4","midi":62,"time":219.04166666666666,"velocity":0.8031496062992126,"duration":0.37109375},{"name":"D3","midi":50,"time":219.22916666666666,"velocity":0.8031496062992126,"duration":0.18359375},{"name":"G3","midi":55,"time":219.41666666666666,"velocity":0.8031496062992126,"duration":0.18359375},{"name":"F4","midi":65,"time":219.41666666666666,"velocity":0.8031496062992126,"duration":0.18359375},{"name":"D4","midi":62,"time":219.41666666666666,"velocity":0.8031496062992126,"duration":0.546875},{"name":"F3","midi":53,"time":219.60416666666666,"velocity":0.8031496062992126,"duration":0.18359375},{"name":"A4","midi":69,"time":219.60416666666666,"velocity":0.8031496062992126,"duration":0.18359375},{"name":"E3","midi":52,"time":219.79166666666666,"velocity":0.8031496062992126,"duration":0.18359375},{"name":"G4","midi":67,"time":219.79166666666666,"velocity":0.8031496062992126,"duration":0.18359375},{"name":"D3","midi":50,"time":219.97916666666666,"velocity":0.8031496062992126,"duration":0.18359375},{"name":"F4","midi":65,"time":219.97916666666666,"velocity":0.8031496062992126,"duration":0.18359375},{"name":"C3","midi":48,"time":220.16666666666666,"velocity":0.8031496062992126,"duration":0.37109375},{"name":"E4","midi":64,"time":220.16666666666666,"velocity":0.8031496062992126,"duration":0.546875},{"name":"B3","midi":59,"time":220.35416666666666,"velocity":0.8031496062992126,"duration":0.18359375},{"name":"C3","midi":48,"time":220.54166666666666,"velocity":0.8031496062992126,"duration":0.37109375},{"name":"C4","midi":60,"time":220.54166666666666,"velocity":0.8031496062992126,"duration":0.18359375},{"name":"E4","midi":64,"time":220.72916666666666,"velocity":0.8031496062992126,"duration":0.7421875},{"name":"C3","midi":48,"time":220.91666666666666,"velocity":0.8031496062992126,"duration":0.18359375},{"name":"G3","midi":55,"time":220.91666666666666,"velocity":0.8031496062992126,"duration":0.18359375},{"name":"D3","midi":50,"time":221.10416666666666,"velocity":0.8031496062992126,"duration":0.18359375},{"name":"B3","midi":59,"time":221.10416666666666,"velocity":0.8031496062992126,"duration":0.18359375},{"name":"C3","midi":48,"time":221.29166666666666,"velocity":0.8031496062992126,"duration":0.37109375},{"name":"C4","midi":60,"time":221.29166666666666,"velocity":0.8031496062992126,"duration":0.18359375},{"name":"E4","midi":64,"time":221.47916666666666,"velocity":0.8031496062992126,"duration":0.7421875},{"name":"C3","midi":48,"time":221.66666666666666,"velocity":0.8031496062992126,"duration":0.37109375},{"name":"G3","midi":55,"time":221.66666666666666,"velocity":0.8031496062992126,"duration":0.18359375},{"name":"B3","midi":59,"time":221.85416666666666,"velocity":0.8031496062992126,"duration":0.18359375},{"name":"C3","midi":48,"time":222.04166666666666,"velocity":0.8031496062992126,"duration":0.37109375},{"name":"C4","midi":60,"time":222.04166666666666,"velocity":0.8031496062992126,"duration":0.18359375},{"name":"E4","midi":64,"time":222.22916666666666,"velocity":0.8031496062992126,"duration":0.18359375},{"name":"D2","midi":38,"time":222.41666666666666,"velocity":0.8031496062992126,"duration":0.37109375},{"name":"F4","midi":65,"time":222.41666666666666,"velocity":0.8031496062992126,"duration":0.546875},{"name":"B3","midi":59,"time":222.60416666666666,"velocity":0.8031496062992126,"duration":0.18359375},{"name":"C3","midi":48,"time":222.79166666666666,"velocity":0.8031496062992126,"duration":0.37109375},{"name":"C4","midi":60,"time":222.79166666666666,"velocity":0.8031496062992126,"duration":0.18359375},{"name":"F4","midi":65,"time":222.97916666666666,"velocity":0.8031496062992126,"duration":0.7421875},{"name":"C3","midi":48,"time":223.16666666666666,"velocity":0.8031496062992126,"duration":0.18359375},{"name":"G3","midi":55,"time":223.16666666666666,"velocity":0.8031496062992126,"duration":0.18359375},{"name":"D3","midi":50,"time":223.35416666666666,"velocity":0.8031496062992126,"duration":0.18359375},{"name":"B3","midi":59,"time":223.35416666666666,"velocity":0.8031496062992126,"duration":0.18359375},{"name":"C3","midi":48,"time":223.54166666666666,"velocity":0.8031496062992126,"duration":0.37109375},{"name":"C4","midi":60,"time":223.54166666666666,"velocity":0.8031496062992126,"duration":0.18359375},{"name":"F4","midi":65,"time":223.72916666666666,"velocity":0.8031496062992126,"duration":0.7421875},{"name":"C3","midi":48,"time":223.91666666666666,"velocity":0.8031496062992126,"duration":0.37109375},{"name":"G3","midi":55,"time":223.91666666666666,"velocity":0.8031496062992126,"duration":0.18359375},{"name":"B3","midi":59,"time":224.10416666666666,"velocity":0.8031496062992126,"duration":0.18359375},{"name":"C3","midi":48,"time":224.29166666666666,"velocity":0.8031496062992126,"duration":0.37109375},{"name":"C4","midi":60,"time":224.29166666666666,"velocity":0.8031496062992126,"duration":0.18359375},{"name":"F4","midi":65,"time":224.47916666666666,"velocity":0.8031496062992126,"duration":0.18359375},{"name":"E2","midi":40,"time":224.66666666666666,"velocity":0.8031496062992126,"duration":0.37109375},{"name":"G4","midi":67,"time":224.66666666666666,"velocity":0.8031496062992126,"duration":0.546875},{"name":"B3","midi":59,"time":224.85416666666666,"velocity":0.8031496062992126,"duration":0.18359375},{"name":"C3","midi":48,"time":225.04166666666666,"velocity":0.8031496062992126,"duration":0.37109375},{"name":"C4","midi":60,"time":225.04166666666666,"velocity":0.8031496062992126,"duration":0.18359375},{"name":"G4","midi":67,"time":225.22916666666666,"velocity":0.8031496062992126,"duration":0.7421875},{"name":"C3","midi":48,"time":225.41666666666666,"velocity":0.8031496062992126,"duration":0.18359375},{"name":"G3","midi":55,"time":225.41666666666666,"velocity":0.8031496062992126,"duration":0.18359375},{"name":"D3","midi":50,"time":225.60416666666666,"velocity":0.8031496062992126,"duration":0.18359375},{"name":"B3","midi":59,"time":225.60416666666666,"velocity":0.8031496062992126,"duration":0.18359375},{"name":"C3","midi":48,"time":225.79166666666666,"velocity":0.8031496062992126,"duration":0.37109375},{"name":"C4","midi":60,"time":225.79166666666666,"velocity":0.8031496062992126,"duration":0.18359375},{"name":"G4","midi":67,"time":225.97916666666666,"velocity":0.8031496062992126,"duration":0.7421875},{"name":"C3","midi":48,"time":226.16666666666666,"velocity":0.8031496062992126,"duration":0.37109375},{"name":"G3","midi":55,"time":226.16666666666666,"velocity":0.8031496062992126,"duration":0.18359375},{"name":"B3","midi":59,"time":226.35416666666666,"velocity":0.8031496062992126,"duration":0.18359375},{"name":"C3","midi":48,"time":226.54166666666666,"velocity":0.8031496062992126,"duration":0.390625},{"name":"C4","midi":60,"time":226.54166666666666,"velocity":0.8031496062992126,"duration":0.18359375},{"name":"G4","midi":67,"time":226.72916666666666,"velocity":0.8031496062992126,"duration":0.7421875},{"name":"F2","midi":41,"time":226.91666666666666,"velocity":0.8031496062992126,"duration":0.37109375},{"name":"A3","midi":57,"time":226.91666666666666,"velocity":0.8031496062992126,"duration":0.18359375},{"name":"G3","midi":55,"time":227.10416666666666,"velocity":0.8031496062992126,"duration":0.18359375},{"name":"C3","midi":48,"time":227.29166666666666,"velocity":0.8031496062992126,"duration":0.37109375},{"name":"A3","midi":57,"time":227.29166666666666,"velocity":0.8031496062992126,"duration":0.37109375},{"name":"G4","midi":67,"time":227.47916666666666,"velocity":0.8031496062992126,"duration":0.7421875},{"name":"C3","midi":48,"time":227.66666666666666,"velocity":0.8031496062992126,"duration":0.18359375},{"name":"A3","midi":57,"time":227.66666666666666,"velocity":0.8031496062992126,"duration":0.18359375},{"name":"D3","midi":50,"time":227.85416666666666,"velocity":0.8031496062992126,"duration":0.18359375},{"name":"G3","midi":55,"time":227.85416666666666,"velocity":0.8031496062992126,"duration":0.18359375},{"name":"C3","midi":48,"time":228.04166666666666,"velocity":0.8031496062992126,"duration":0.37109375},{"name":"A3","midi":57,"time":228.04166666666666,"velocity":0.8031496062992126,"duration":0.37109375},{"name":"G4","midi":67,"time":228.22916666666666,"velocity":0.8031496062992126,"duration":0.7421875},{"name":"C3","midi":48,"time":228.41666666666666,"velocity":0.8031496062992126,"duration":0.37109375},{"name":"A3","midi":57,"time":228.41666666666666,"velocity":0.8031496062992126,"duration":0.18359375},{"name":"G3","midi":55,"time":228.60416666666666,"velocity":0.8031496062992126,"duration":0.18359375},{"name":"C3","midi":48,"time":228.79166666666666,"velocity":0.8031496062992126,"duration":0.390625},{"name":"A3","midi":57,"time":228.79166666666666,"velocity":0.8031496062992126,"duration":0.37109375},{"name":"G4","midi":67,"time":228.97916666666666,"velocity":0.8031496062992126,"duration":0.18359375},{"name":"F2","midi":41,"time":229.16666666666666,"velocity":0.8031496062992126,"duration":0.37109375},{"name":"A3","midi":57,"time":229.16666666666666,"velocity":0.8031496062992126,"duration":0.18359375},{"name":"G3","midi":55,"time":229.35416666666666,"velocity":0.8031496062992126,"duration":0.18359375},{"name":"D3","midi":50,"time":229.54166666666666,"velocity":0.8031496062992126,"duration":0.37109375},{"name":"A3","midi":57,"time":229.54166666666666,"velocity":0.8031496062992126,"duration":0.37109375},{"name":"F4","midi":65,"time":229.72916666666666,"velocity":0.8031496062992126,"duration":0.7421875},{"name":"D3","midi":50,"time":229.91666666666666,"velocity":0.8031496062992126,"duration":0.18359375},{"name":"A3","midi":57,"time":229.91666666666666,"velocity":0.8031496062992126,"duration":0.18359375},{"name":"E3","midi":52,"time":230.10416666666666,"velocity":0.8031496062992126,"duration":0.18359375},{"name":"G3","midi":55,"time":230.10416666666666,"velocity":0.8031496062992126,"duration":0.18359375},{"name":"D3","midi":50,"time":230.29166666666666,"velocity":0.8031496062992126,"duration":0.37109375},{"name":"A3","midi":57,"time":230.29166666666666,"velocity":0.8031496062992126,"duration":0.37109375},{"name":"F4","midi":65,"time":230.47916666666666,"velocity":0.8031496062992126,"duration":0.7421875},{"name":"D3","midi":50,"time":230.66666666666666,"velocity":0.8031496062992126,"duration":0.37109375},{"name":"A3","midi":57,"time":230.66666666666666,"velocity":0.8031496062992126,"duration":0.18359375},{"name":"G3","midi":55,"time":230.85416666666666,"velocity":0.8031496062992126,"duration":0.18359375},{"name":"D3","midi":50,"time":231.04166666666666,"velocity":0.8031496062992126,"duration":0.390625},{"name":"A3","midi":57,"time":231.04166666666666,"velocity":0.8031496062992126,"duration":0.37109375},{"name":"F4","midi":65,"time":231.22916666666666,"velocity":0.8031496062992126,"duration":0.7421875},{"name":"G2","midi":43,"time":231.41666666666666,"velocity":0.8031496062992126,"duration":0.37109375},{"name":"B3","midi":59,"time":231.41666666666666,"velocity":0.8031496062992126,"duration":0.18359375},{"name":"A3","midi":57,"time":231.60416666666666,"velocity":0.8031496062992126,"duration":0.18359375},{"name":"D3","midi":50,"time":231.79166666666666,"velocity":0.8031496062992126,"duration":0.37109375},{"name":"B3","midi":59,"time":231.79166666666666,"velocity":0.8031496062992126,"duration":0.37109375},{"name":"F4","midi":65,"time":231.97916666666666,"velocity":0.8031496062992126,"duration":0.7421875},{"name":"D3","midi":50,"time":232.16666666666666,"velocity":0.8031496062992126,"duration":0.18359375},{"name":"B3","midi":59,"time":232.16666666666666,"velocity":0.8031496062992126,"duration":0.18359375},{"name":"E3","midi":52,"time":232.35416666666666,"velocity":0.8031496062992126,"duration":0.18359375},{"name":"A3","midi":57,"time":232.35416666666666,"velocity":0.8031496062992126,"duration":0.18359375},{"name":"D3","midi":50,"time":232.54166666666666,"velocity":0.8031496062992126,"duration":0.37109375},{"name":"B3","midi":59,"time":232.54166666666666,"velocity":0.8031496062992126,"duration":0.37109375},{"name":"F4","midi":65,"time":232.72916666666666,"velocity":0.8031496062992126,"duration":0.7421875},{"name":"D3","midi":50,"time":232.91666666666666,"velocity":0.8031496062992126,"duration":0.37109375},{"name":"B3","midi":59,"time":232.91666666666666,"velocity":0.8031496062992126,"duration":0.18359375},{"name":"A3","midi":57,"time":233.10416666666666,"velocity":0.8031496062992126,"duration":0.18359375},{"name":"D3","midi":50,"time":233.29166666666666,"velocity":0.8031496062992126,"duration":0.390625},{"name":"B3","midi":59,"time":233.29166666666666,"velocity":0.8031496062992126,"duration":0.37109375},{"name":"F4","midi":65,"time":233.47916666666666,"velocity":0.8031496062992126,"duration":0.18359375},{"name":"G2","midi":43,"time":233.66666666666666,"velocity":0.8031496062992126,"duration":0.37109375},{"name":"C4","midi":60,"time":233.66666666666666,"velocity":0.8031496062992126,"duration":0.18359375},{"name":"B3","midi":59,"time":233.85416666666666,"velocity":0.8031496062992126,"duration":0.18359375},{"name":"E3","midi":52,"time":234.04166666666666,"velocity":0.8031496062992126,"duration":0.37109375},{"name":"C4","midi":60,"time":234.04166666666666,"velocity":0.8031496062992126,"duration":0.37109375},{"name":"E4","midi":64,"time":234.22916666666666,"velocity":0.8031496062992126,"duration":0.234375},{"name":"E3","midi":52,"time":234.41666666666666,"velocity":0.8031496062992126,"duration":0.18359375},{"name":"C4","midi":60,"time":234.41666666666666,"velocity":0.8031496062992126,"duration":0.18359375},{"name":"F3","midi":53,"time":234.60416666666666,"velocity":0.8031496062992126,"duration":0.18359375},{"name":"B3","midi":59,"time":234.60416666666666,"velocity":0.8031496062992126,"duration":0.18359375},{"name":"E3","midi":52,"time":234.79166666666666,"velocity":0.8031496062992126,"duration":0.37109375},{"name":"C4","midi":60,"time":234.79166666666666,"velocity":0.8031496062992126,"duration":0.37109375},{"name":"E4","midi":64,"time":234.97916666666666,"velocity":0.8031496062992126,"duration":0.234375},{"name":"E3","midi":52,"time":235.16666666666666,"velocity":0.8031496062992126,"duration":0.37109375},{"name":"C4","midi":60,"time":235.16666666666666,"velocity":0.8031496062992126,"duration":0.18359375},{"name":"B3","midi":59,"time":235.35416666666666,"velocity":0.8031496062992126,"duration":0.18359375},{"name":"E3","midi":52,"time":235.54166666666666,"velocity":0.8031496062992126,"duration":0.37109375},{"name":"C4","midi":60,"time":235.54166666666666,"velocity":0.8031496062992126,"duration":0.37109375},{"name":"E4","midi":64,"time":235.72916666666666,"velocity":0.8031496062992126,"duration":0.234375},{"name":"G2","midi":43,"time":235.91666666666666,"velocity":0.8031496062992126,"duration":0.37109375},{"name":"C4","midi":60,"time":235.91666666666666,"velocity":0.8031496062992126,"duration":0.18359375},{"name":"B3","midi":59,"time":236.10416666666666,"velocity":0.8031496062992126,"duration":0.18359375},{"name":"F#3","midi":54,"time":236.29166666666666,"velocity":0.8031496062992126,"duration":0.37109375},{"name":"C4","midi":60,"time":236.29166666666666,"velocity":0.8031496062992126,"duration":0.18359375},{"name":"D#4","midi":63,"time":236.47916666666666,"velocity":0.8031496062992126,"duration":0.18359375},{"name":"F#3","midi":54,"time":236.66666666666666,"velocity":0.8031496062992126,"duration":0.18359375},{"name":"C4","midi":60,"time":236.66666666666666,"velocity":0.8031496062992126,"duration":0.18359375},{"name":"G3","midi":55,"time":236.85416666666666,"velocity":0.8031496062992126,"duration":0.18359375},{"name":"B3","midi":59,"time":236.85416666666666,"velocity":0.8031496062992126,"duration":0.18359375},{"name":"F#3","midi":54,"time":237.04166666666666,"velocity":0.8031496062992126,"duration":0.37109375},{"name":"C4","midi":60,"time":237.04166666666666,"velocity":0.8031496062992126,"duration":0.18359375},{"name":"D#4","midi":63,"time":237.22916666666666,"velocity":0.8031496062992126,"duration":0.18359375},{"name":"F#3","midi":54,"time":237.41666666666666,"velocity":0.8031496062992126,"duration":0.37109375},{"name":"C4","midi":60,"time":237.41666666666666,"velocity":0.8031496062992126,"duration":0.18359375},{"name":"B3","midi":59,"time":237.60416666666666,"velocity":0.8031496062992126,"duration":0.18359375},{"name":"F#3","midi":54,"time":237.79166666666666,"velocity":0.8031496062992126,"duration":0.37109375},{"name":"C4","midi":60,"time":237.79166666666666,"velocity":0.8031496062992126,"duration":0.18359375},{"name":"A4","midi":69,"time":237.97916666666666,"velocity":0.8031496062992126,"duration":0.18359375},{"name":"B3","midi":59,"time":238.1875,"velocity":0.8031496062992126,"duration":0.12369791666665719},{"name":"G2","midi":43,"time":238.1875,"velocity":0.8031496062992126,"duration":1.2369791666666288},{"name":"A3","midi":57,"time":238.29166666666666,"velocity":0.8031496062992126,"duration":0.12369791666665719},{"name":"B3","midi":59,"time":238.39583333333331,"velocity":0.8031496062992126,"duration":0.5208333333333144},{"name":"D4","midi":62,"time":238.71614583333331,"velocity":0.8031496062992126,"duration":0.18359375},{"name":"F4","midi":65,"time":238.91015624999997,"velocity":0.8031496062992126,"duration":0.18359375},{"name":"G#4","midi":68,"time":239.10156249999997,"velocity":0.8031496062992126,"duration":0.18359375},{"name":"F4","midi":65,"time":239.29296874999997,"velocity":0.8031496062992126,"duration":0.18359375},{"name":"D4","midi":62,"time":239.48437499999997,"velocity":0.8031496062992126,"duration":0.18359375},{"name":"B3","midi":59,"time":239.67578124999997,"velocity":0.8031496062992126,"duration":0.18359375},{"name":"G3","midi":55,"time":239.86718749999997,"velocity":0.8031496062992126,"duration":0.17578125},{"name":"F3","midi":53,"time":240.06770833333331,"velocity":0.8031496062992126,"duration":0.1822916666666572},{"name":"D3","midi":50,"time":240.27083333333331,"velocity":0.8031496062992126,"duration":0.1888020833333428},{"name":"B2","midi":47,"time":240.48958333333331,"velocity":0.8031496062992126,"duration":0.1953125},{"name":"G2","midi":43,"time":240.73958333333331,"velocity":0.8031496062992126,"duration":0.3125},{"name":"C5","midi":72,"time":241.21093749999997,"velocity":0.8031496062992126,"duration":0.08984375},{"name":"B4","midi":71,"time":241.29687499999997,"velocity":0.8031496062992126,"duration":0.08984375},{"name":"C5","midi":72,"time":241.38541666666663,"velocity":0.8031496062992126,"duration":2.0937500000000284},{"name":"F#2","midi":42,"time":242.27083333333331,"velocity":0.8031496062992126,"duration":1.5625},{"name":"D#4","midi":63,"time":242.27083333333331,"velocity":0.8031496062992126,"duration":1.5625},{"name":"C4","midi":60,"time":242.27083333333331,"velocity":0.8031496062992126,"duration":1.5625},{"name":"A3","midi":57,"time":242.27083333333331,"velocity":0.8031496062992126,"duration":1.5625},{"name":"F2","midi":41,"time":243.93749999999997,"velocity":0.8031496062992126,"duration":0.390625},{"name":"G4","midi":67,"time":243.93749999999997,"velocity":0.8031496062992126,"duration":0.390625},{"name":"B4","midi":71,"time":243.93749999999997,"velocity":0.8031496062992126,"duration":0.390625},{"name":"D4","midi":62,"time":243.93749999999997,"velocity":0.8031496062992126,"duration":0.390625},{"name":"E2","midi":40,"time":244.35416666666663,"velocity":0.8031496062992126,"duration":0.37109375},{"name":"C5","midi":72,"time":244.35416666666663,"velocity":0.8031496062992126,"duration":0.08984375},{"name":"G4","midi":67,"time":244.35416666666663,"velocity":0.8031496062992126,"duration":0.7421875},{"name":"B4","midi":71,"time":244.44791666666663,"velocity":0.8031496062992126,"duration":0.08984375},{"name":"C5","midi":72,"time":244.54166666666663,"velocity":0.8031496062992126,"duration":0.37109375},{"name":"F2","midi":41,"time":244.72916666666663,"velocity":0.8031496062992126,"duration":0.37109375},{"name":"D5","midi":74,"time":244.91666666666663,"velocity":0.8031496062992126,"duration":0.18359375},{"name":"G2","midi":43,"time":245.10416666666663,"velocity":0.8031496062992126,"duration":0.37109375},{"name":"E5","midi":76,"time":245.10416666666663,"velocity":0.8031496062992126,"duration":0.16796875},{"name":"B4","midi":71,"time":245.10416666666663,"velocity":0.8031496062992126,"duration":1.1223958333333428},{"name":"D5","midi":74,"time":245.26822916666663,"velocity":0.8031496062992126,"duration":0.08984375},{"name":"E5","midi":76,"time":245.35026041666663,"velocity":0.8031496062992126,"duration":0.08984375},{"name":"D5","midi":74,"time":245.43229166666663,"velocity":0.8031496062992126,"duration":0.08984375},{"name":"F2","midi":41,"time":245.47916666666663,"velocity":0.8031496062992126,"duration":0.37109375},{"name":"E5","midi":76,"time":245.51432291666663,"velocity":0.8031496062992126,"duration":0.08984375},{"name":"D5","midi":74,"time":245.59635416666663,"velocity":0.8031496062992126,"duration":0.08984375},{"name":"E5","midi":76,"time":245.67838541666663,"velocity":0.8031496062992126,"duration":0.08984375},{"name":"D5","midi":74,"time":245.76041666666663,"velocity":0.8031496062992126,"duration":0.46484375},{"name":"G2","midi":43,"time":245.85416666666663,"velocity":0.8031496062992126,"duration":0.74609375},{"name":"C5","midi":72,"time":246.22916666666663,"velocity":0.8031496062992126,"duration":0.37109375},{"name":"C5","midi":72,"time":246.62499999999997,"velocity":0.8031496062992126,"duration":0.37109375},{"name":"C2","midi":36,"time":246.62499999999997,"velocity":0.8031496062992126,"duration":0.37109375},{"name":"E5","midi":76,"time":246.99999999999997,"velocity":0.8031496062992126,"duration":0.37109375},{"name":"A4","midi":69,"time":247.37499999999997,"velocity":0.8031496062992126,"duration":0.37109375},{"name":"A5","midi":81,"time":247.74999999999997,"velocity":0.8031496062992126,"duration":0.37109375},{"name":"G5","midi":79,"time":248.12499999999997,"velocity":0.8031496062992126,"duration":0.18359375},{"name":"E5","midi":76,"time":248.31249999999997,"velocity":0.8031496062992126,"duration":0.18359375},{"name":"F5","midi":77,"time":248.49999999999997,"velocity":0.8031496062992126,"duration":0.18359375},{"name":"D5","midi":74,"time":248.68749999999997,"velocity":0.8031496062992126,"duration":0.18359375},{"name":"E5","midi":76,"time":248.87499999999997,"velocity":0.8031496062992126,"duration":0.18359375},{"name":"D5","midi":74,"time":249.06249999999997,"velocity":0.8031496062992126,"duration":0.18359375},{"name":"C5","midi":72,"time":249.24999999999997,"velocity":0.8031496062992126,"duration":0.18359375},{"name":"E4","midi":64,"time":249.24999999999997,"velocity":0.8031496062992126,"duration":0.37109375},{"name":"B4","midi":71,"time":249.43749999999997,"velocity":0.8031496062992126,"duration":0.18359375},{"name":"C5","midi":72,"time":249.62499999999997,"velocity":0.8031496062992126,"duration":0.18359375},{"name":"A3","midi":57,"time":249.62499999999997,"velocity":0.8031496062992126,"duration":0.37109375},{"name":"B4","midi":71,"time":249.81249999999997,"velocity":0.8031496062992126,"duration":0.18359375},{"name":"C5","midi":72,"time":249.99999999999997,"velocity":0.8031496062992126,"duration":0.3515625},{"name":"A4","midi":69,"time":249.99999999999997,"velocity":0.8031496062992126,"duration":0.37109375},{"name":"F5","midi":77,"time":250.18749999999997,"velocity":0.8031496062992126,"duration":0.21484375},{"name":"B4","midi":71,"time":250.37499999999997,"velocity":0.8031496062992126,"duration":0.3515625},{"name":"G4","midi":67,"time":250.37499999999997,"velocity":0.8031496062992126,"duration":0.18359375},{"name":"E5","midi":76,"time":250.56249999999997,"velocity":0.8031496062992126,"duration":0.21484375},{"name":"E4","midi":64,"time":250.56249999999997,"velocity":0.8031496062992126,"duration":0.18359375},{"name":"A4","midi":69,"time":250.74999999999997,"velocity":0.8031496062992126,"duration":0.234375},{"name":"F4","midi":65,"time":250.74999999999997,"velocity":0.8031496062992126,"duration":0.18359375},{"name":"D5","midi":74,"time":250.93749999999997,"velocity":0.8031496062992126,"duration":0.3515625},{"name":"D4","midi":62,"time":250.93749999999997,"velocity":0.8031496062992126,"duration":0.18359375},{"name":"G#4","midi":68,"time":251.12499999999997,"velocity":0.8031496062992126,"duration":0.546875},{"name":"E4","midi":64,"time":251.12499999999997,"velocity":0.8031496062992126,"duration":0.37109375},{"name":"D5","midi":74,"time":251.31249999999997,"velocity":0.8031496062992126,"duration":0.18359375},{"name":"B4","midi":71,"time":251.49999999999997,"velocity":0.8031496062992126,"duration":0.18359375},{"name":"E3","midi":52,"time":251.49999999999997,"velocity":0.8031496062992126,"duration":0.37109375},{"name":"G#4","midi":68,"time":251.68749999999997,"velocity":0.8031496062992126,"duration":0.546875},{"name":"D5","midi":74,"time":251.87499999999997,"velocity":0.8031496062992126,"duration":0.18359375},{"name":"G#3","midi":56,"time":251.87499999999997,"velocity":0.8031496062992126,"duration":0.37109375},{"name":"B4","midi":71,"time":252.06249999999997,"velocity":0.8031496062992126,"duration":0.18359375},{"name":"G#4","midi":68,"time":252.24999999999997,"velocity":0.8031496062992126,"duration":0.37109375},{"name":"B3","midi":59,"time":252.24999999999997,"velocity":0.8031496062992126,"duration":0.37109375},{"name":"B4","midi":71,"time":252.43749999999997,"velocity":0.8031496062992126,"duration":0.18359375},{"name":"E4","midi":64,"time":252.62499999999997,"velocity":0.8031496062992126,"duration":0.37109375},{"name":"G#3","midi":56,"time":252.62499999999997,"velocity":0.8031496062992126,"duration":0.37109375},{"name":"D5","midi":74,"time":252.81249999999997,"velocity":0.8031496062992126,"duration":0.18359375},{"name":"C5","midi":72,"time":252.99999999999997,"velocity":0.8031496062992126,"duration":0.18359375},{"name":"E3","midi":52,"time":252.99999999999997,"velocity":0.8031496062992126,"duration":0.37109375},{"name":"B4","midi":71,"time":253.18749999999997,"velocity":0.8031496062992126,"duration":0.18359375},{"name":"C5","midi":72,"time":253.37499999999997,"velocity":0.8031496062992126,"duration":0.18359375},{"name":"A3","midi":57,"time":253.37499999999997,"velocity":0.8031496062992126,"duration":0.37109375},{"name":"B4","midi":71,"time":253.56249999999997,"velocity":0.8031496062992126,"duration":0.18359375},{"name":"A4","midi":69,"time":253.74999999999997,"velocity":0.8031496062992126,"duration":0.18359375},{"name":"E3","midi":52,"time":253.74999999999997,"velocity":0.8031496062992126,"duration":0.37109375},{"name":"G#4","midi":68,"time":253.93749999999997,"velocity":0.8031496062992126,"duration":0.18359375},{"name":"A4","midi":69,"time":254.12499999999997,"velocity":0.8031496062992126,"duration":0.18359375},{"name":"A2","midi":45,"time":254.12499999999997,"velocity":0.8031496062992126,"duration":0.37109375},{"name":"B4","midi":71,"time":254.31249999999997,"velocity":0.8031496062992126,"duration":0.18359375},{"name":"C5","midi":72,"time":254.49999999999997,"velocity":0.8031496062992126,"duration":0.37109375},{"name":"A3","midi":57,"time":254.49999999999997,"velocity":0.8031496062992126,"duration":0.37109375},{"name":"F4","midi":65,"time":254.68749999999997,"velocity":0.8031496062992126,"duration":0.18359375},{"name":"B4","midi":71,"time":254.87499999999997,"velocity":0.8031496062992126,"duration":0.37109375},{"name":"G3","midi":55,"time":254.87499999999997,"velocity":0.8031496062992126,"duration":0.18359375},{"name":"E4","midi":64,"time":255.06249999999997,"velocity":0.8031496062992126,"duration":0.18359375},{"name":"E3","midi":52,"time":255.06249999999997,"velocity":0.8031496062992126,"duration":0.18359375},{"name":"A4","midi":69,"time":255.24999999999997,"velocity":0.8031496062992126,"duration":0.18359375},{"name":"F3","midi":53,"time":255.24999999999997,"velocity":0.8031496062992126,"duration":0.18359375},{"name":"B4","midi":71,"time":255.43749999999997,"velocity":0.8031496062992126,"duration":0.18359375},{"name":"D3","midi":50,"time":255.43749999999997,"velocity":0.8031496062992126,"duration":0.18359375},{"name":"G#4","midi":68,"time":255.62499999999997,"velocity":0.8031496062992126,"duration":0.29296875},{"name":"E3","midi":52,"time":255.62499999999997,"velocity":0.8031496062992126,"duration":0.18359375},{"name":"D3","midi":50,"time":255.81249999999997,"velocity":0.8031496062992126,"duration":0.18359375},{"name":"E4","midi":64,"time":255.99999999999997,"velocity":0.8031496062992126,"duration":0.2929687500000284},{"name":"B2","midi":47,"time":255.99999999999997,"velocity":0.8031496062992126,"duration":0.18359375000002842},{"name":"G#2","midi":44,"time":256.1875,"velocity":0.8031496062992126,"duration":0.18359375},{"name":"G#4","midi":68,"time":256.375,"velocity":0.8031496062992126,"duration":0.29296875},{"name":"D3","midi":50,"time":256.375,"velocity":0.8031496062992126,"duration":0.18359375},{"name":"B2","midi":47,"time":256.5625,"velocity":0.8031496062992126,"duration":0.18359375},{"name":"B4","midi":71,"time":256.75,"velocity":0.8031496062992126,"duration":0.29296875},{"name":"G#2","midi":44,"time":256.75,"velocity":0.8031496062992126,"duration":0.18359375},{"name":"B2","midi":47,"time":256.9375,"velocity":0.8031496062992126,"duration":0.18359375},{"name":"G#4","midi":68,"time":257.125,"velocity":0.8031496062992126,"duration":0.29296875},{"name":"E2","midi":40,"time":257.125,"velocity":0.8031496062992126,"duration":0.18359375},{"name":"D3","midi":50,"time":257.3125,"velocity":0.8031496062992126,"duration":0.18359375},{"name":"E4","midi":64,"time":257.5,"velocity":0.8031496062992126,"duration":0.29296875},{"name":"C3","midi":48,"time":257.5,"velocity":0.8031496062992126,"duration":0.18359375},{"name":"B2","midi":47,"time":257.6875,"velocity":0.8031496062992126,"duration":0.18359375},{"name":"A4","midi":69,"time":257.875,"velocity":0.8031496062992126,"duration":1.4322916666666856},{"name":"C#3","midi":49,"time":257.875,"velocity":0.8031496062992126,"duration":0.3411458333333144},{"name":"G5","midi":79,"time":258.0625,"velocity":0.8031496062992126,"duration":0.18359375},{"name":"E5","midi":76,"time":258.25,"velocity":0.8031496062992126,"duration":0.18359375},{"name":"A2","midi":45,"time":258.25,"velocity":0.8031496062992126,"duration":0.3411458333333144},{"name":"C#5","midi":73,"time":258.4375,"velocity":0.8031496062992126,"duration":0.18359375},{"name":"G5","midi":79,"time":258.625,"velocity":0.8031496062992126,"duration":0.18359375},{"name":"C#3","midi":49,"time":258.625,"velocity":0.8031496062992126,"duration":0.3411458333333144},{"name":"E5","midi":76,"time":258.8125,"velocity":0.8031496062992126,"duration":0.18359375},{"name":"C#5","midi":73,"time":259,"velocity":0.8031496062992126,"duration":0.18359375},{"name":"E3","midi":52,"time":259,"velocity":0.8031496062992126,"duration":0.34114583333337123},{"name":"E5","midi":76,"time":259.1875,"velocity":0.8031496062992126,"duration":0.18359375000005684},{"name":"A4","midi":69,"time":259.37500000000006,"velocity":0.8031496062992126,"duration":0.18359375},{"name":"C#3","midi":49,"time":259.37500000000006,"velocity":0.8031496062992126,"duration":0.3411458333333144},{"name":"G4","midi":67,"time":259.56250000000006,"velocity":0.8031496062992126,"duration":0.18359375},{"name":"F#4","midi":66,"time":259.75000000000006,"velocity":0.8031496062992126,"duration":0.18359375},{"name":"A2","midi":45,"time":259.75000000000006,"velocity":0.8031496062992126,"duration":0.3411458333333144},{"name":"E4","midi":64,"time":259.93750000000006,"velocity":0.8031496062992126,"duration":0.18359375},{"name":"F#4","midi":66,"time":260.12500000000006,"velocity":0.8031496062992126,"duration":0.29296875},{"name":"D3","midi":50,"time":260.12500000000006,"velocity":0.8031496062992126,"duration":0.18359375},{"name":"C4","midi":60,"time":260.31250000000006,"velocity":0.8031496062992126,"duration":0.18359375},{"name":"D5","midi":74,"time":260.50000000000006,"velocity":0.8031496062992126,"duration":0.29296875},{"name":"A3","midi":57,"time":260.50000000000006,"velocity":0.8031496062992126,"duration":0.18359375},{"name":"F#3","midi":54,"time":260.68750000000006,"velocity":0.8031496062992126,"duration":0.18359375},{"name":"F#5","midi":78,"time":260.87500000000006,"velocity":0.8031496062992126,"duration":0.29296875},{"name":"C4","midi":60,"time":260.87500000000006,"velocity":0.8031496062992126,"duration":0.18359375},{"name":"A3","midi":57,"time":261.06250000000006,"velocity":0.8031496062992126,"duration":0.18359375},{"name":"A5","midi":81,"time":261.25000000000006,"velocity":0.8031496062992126,"duration":0.29296875},{"name":"F#3","midi":54,"time":261.25000000000006,"velocity":0.8031496062992126,"duration":0.18359375},{"name":"A3","midi":57,"time":261.43750000000006,"velocity":0.8031496062992126,"duration":0.18359375},{"name":"F#5","midi":78,"time":261.62500000000006,"velocity":0.8031496062992126,"duration":0.29296875},{"name":"D3","midi":50,"time":261.62500000000006,"velocity":0.8031496062992126,"duration":0.18359375},{"name":"C4","midi":60,"time":261.81250000000006,"velocity":0.8031496062992126,"duration":0.18359375},{"name":"D5","midi":74,"time":262.00000000000006,"velocity":0.8031496062992126,"duration":0.29296875},{"name":"B3","midi":59,"time":262.00000000000006,"velocity":0.8031496062992126,"duration":0.18359375},{"name":"A3","midi":57,"time":262.18750000000006,"velocity":0.8031496062992126,"duration":0.18359375},{"name":"G5","midi":79,"time":262.37500000000006,"velocity":0.8031496062992126,"duration":0.234375},{"name":"B3","midi":59,"time":262.37500000000006,"velocity":0.8031496062992126,"duration":0.3411458333333144},{"name":"F5","midi":77,"time":262.56250000000006,"velocity":0.8031496062992126,"duration":0.18359375},{"name":"D5","midi":74,"time":262.75000000000006,"velocity":0.8031496062992126,"duration":0.18359375},{"name":"G3","midi":55,"time":262.75000000000006,"velocity":0.8031496062992126,"duration":0.3411458333333144},{"name":"B4","midi":71,"time":262.93750000000006,"velocity":0.8031496062992126,"duration":0.3645833333333144},{"name":"F5","midi":77,"time":263.12500000000006,"velocity":0.8031496062992126,"duration":0.18359375},{"name":"B3","midi":59,"time":263.12500000000006,"velocity":0.8031496062992126,"duration":0.3411458333333144},{"name":"D5","midi":74,"time":263.31250000000006,"velocity":0.8031496062992126,"duration":0.18359375},{"name":"B4","midi":71,"time":263.50000000000006,"velocity":0.8031496062992126,"duration":0.18359375},{"name":"D4","midi":62,"time":263.50000000000006,"velocity":0.8031496062992126,"duration":0.3411458333333144},{"name":"D5","midi":74,"time":263.68750000000006,"velocity":0.8031496062992126,"duration":0.18359375},{"name":"G4","midi":67,"time":263.87500000000006,"velocity":0.8031496062992126,"duration":0.3645833333333144},{"name":"B3","midi":59,"time":263.87500000000006,"velocity":0.8031496062992126,"duration":0.3411458333333144},{"name":"F5","midi":77,"time":264.06250000000006,"velocity":0.8031496062992126,"duration":0.18359375},{"name":"E5","midi":76,"time":264.25000000000006,"velocity":0.8031496062992126,"duration":0.18359375},{"name":"G3","midi":55,"time":264.25000000000006,"velocity":0.8031496062992126,"duration":0.3411458333333144},{"name":"D5","midi":74,"time":264.43750000000006,"velocity":0.8031496062992126,"duration":0.18359375},{"name":"E5","midi":76,"time":264.62500000000006,"velocity":0.8031496062992126,"duration":0.18359375},{"name":"C4","midi":60,"time":264.62500000000006,"velocity":0.8031496062992126,"duration":0.37109375},{"name":"D5","midi":74,"time":264.81250000000006,"velocity":0.8031496062992126,"duration":0.18359375},{"name":"C5","midi":72,"time":265.00000000000006,"velocity":0.8031496062992126,"duration":0.18359375},{"name":"G3","midi":55,"time":265.00000000000006,"velocity":0.8031496062992126,"duration":0.37109375},{"name":"B4","midi":71,"time":265.18750000000006,"velocity":0.8031496062992126,"duration":0.18359375},{"name":"A4","midi":69,"time":265.37500000000006,"velocity":0.8031496062992126,"duration":0.18359375},{"name":"C3","midi":48,"time":265.37500000000006,"velocity":0.8031496062992126,"duration":0.37109375},{"name":"C5","midi":72,"time":265.56250000000006,"velocity":0.8031496062992126,"duration":0.18359375},{"name":"D5","midi":74,"time":265.75000000000006,"velocity":0.8031496062992126,"duration":0.18359375},{"name":"C4","midi":60,"time":265.75000000000006,"velocity":0.8031496062992126,"duration":0.37109375},{"name":"F#5","midi":78,"time":265.93750000000006,"velocity":0.8031496062992126,"duration":0.18359375},{"name":"G5","midi":79,"time":266.12500000000006,"velocity":0.8031496062992126,"duration":0.18359375},{"name":"B3","midi":59,"time":266.12500000000006,"velocity":0.8031496062992126,"duration":0.18359375},{"name":"B4","midi":71,"time":266.31250000000006,"velocity":0.8031496062992126,"duration":0.18359375},{"name":"G3","midi":55,"time":266.31250000000006,"velocity":0.8031496062992126,"duration":0.18359375},{"name":"C5","midi":72,"time":266.50000000000006,"velocity":0.8031496062992126,"duration":0.18359375},{"name":"A3","midi":57,"time":266.50000000000006,"velocity":0.8031496062992126,"duration":0.18359375},{"name":"A4","midi":69,"time":266.68750000000006,"velocity":0.8031496062992126,"duration":0.18359375},{"name":"F#3","midi":54,"time":266.68750000000006,"velocity":0.8031496062992126,"duration":0.18359375},{"name":"B4","midi":71,"time":266.87500000000006,"velocity":0.8031496062992126,"duration":0.546875},{"name":"G3","midi":55,"time":266.87500000000006,"velocity":0.8031496062992126,"duration":0.37109375},{"name":"D5","midi":74,"time":267.06250000000006,"velocity":0.8031496062992126,"duration":0.18359375},{"name":"E5","midi":76,"time":267.25000000000006,"velocity":0.8031496062992126,"duration":0.18359375},{"name":"F3","midi":53,"time":267.25000000000006,"velocity":0.8031496062992126,"duration":0.37109375},{"name":"F5","midi":77,"time":267.43750000000006,"velocity":0.8031496062992126,"duration":0.18359375},{"name":"G5","midi":79,"time":267.62500000000006,"velocity":0.8031496062992126,"duration":0.546875},{"name":"E3","midi":52,"time":267.62500000000006,"velocity":0.8031496062992126,"duration":0.37109375},{"name":"A4","midi":69,"time":267.81250000000006,"velocity":0.8031496062992126,"duration":0.18359375},{"name":"A#4","midi":70,"time":268.00000000000006,"velocity":0.8031496062992126,"duration":0.18359375},{"name":"D3","midi":50,"time":268.00000000000006,"velocity":0.8031496062992126,"duration":0.37109375},{"name":"G4","midi":67,"time":268.18750000000006,"velocity":0.8031496062992126,"duration":0.18359375},{"name":"G5","midi":79,"time":268.37500000000006,"velocity":0.8031496062992126,"duration":0.546875},{"name":"E3","midi":52,"time":268.37500000000006,"velocity":0.8031496062992126,"duration":0.37109375},{"name":"A4","midi":69,"time":268.56250000000006,"velocity":0.8031496062992126,"duration":0.18359375},{"name":"A#4","midi":70,"time":268.75000000000006,"velocity":0.8031496062992126,"duration":0.18359375},{"name":"C3","midi":48,"time":268.75000000000006,"velocity":0.8031496062992126,"duration":0.37109375},{"name":"G4","midi":67,"time":268.93750000000006,"velocity":0.8031496062992126,"duration":0.18359375},{"name":"A4","midi":69,"time":269.12500000000006,"velocity":0.8031496062992126,"duration":0.37109375},{"name":"F3","midi":53,"time":269.12500000000006,"velocity":0.8031496062992126,"duration":0.37109375},{"name":"C5","midi":72,"time":269.31250000000006,"velocity":0.8031496062992126,"duration":0.18359375},{"name":"D5","midi":74,"time":269.50000000000006,"velocity":0.8031496062992126,"duration":0.18359375},{"name":"E3","midi":52,"time":269.50000000000006,"velocity":0.8031496062992126,"duration":0.37109375},{"name":"E5","midi":76,"time":269.68750000000006,"velocity":0.8031496062992126,"duration":0.18359375},{"name":"F5","midi":77,"time":269.87500000000006,"velocity":0.8031496062992126,"duration":0.546875},{"name":"D3","midi":50,"time":269.87500000000006,"velocity":0.8031496062992126,"duration":0.37109375},{"name":"G4","midi":67,"time":270.06250000000006,"velocity":0.8031496062992126,"duration":0.18359375},{"name":"A4","midi":69,"time":270.25000000000006,"velocity":0.8031496062992126,"duration":0.18359375},{"name":"C3","midi":48,"time":270.25000000000006,"velocity":0.8031496062992126,"duration":0.37109375},{"name":"F4","midi":65,"time":270.43750000000006,"velocity":0.8031496062992126,"duration":0.18359375},{"name":"F5","midi":77,"time":270.62500000000006,"velocity":0.8031496062992126,"duration":0.546875},{"name":"D3","midi":50,"time":270.62500000000006,"velocity":0.8031496062992126,"duration":0.37109375},{"name":"G4","midi":67,"time":270.81250000000006,"velocity":0.8031496062992126,"duration":0.18359375},{"name":"A4","midi":69,"time":271.00000000000006,"velocity":0.8031496062992126,"duration":0.18359375},{"name":"B2","midi":47,"time":271.00000000000006,"velocity":0.8031496062992126,"duration":0.37109375},{"name":"F4","midi":65,"time":271.18750000000006,"velocity":0.8031496062992126,"duration":0.18359375},{"name":"G4","midi":67,"time":271.37500000000006,"velocity":0.8031496062992126,"duration":0.37109375},{"name":"E3","midi":52,"time":271.37500000000006,"velocity":0.8031496062992126,"duration":0.37109375},{"name":"E4","midi":64,"time":271.56250000000006,"velocity":0.8031496062992126,"duration":0.18359375},{"name":"G4","midi":67,"time":271.75000000000006,"velocity":0.8031496062992126,"duration":0.18359375},{"name":"D3","midi":50,"time":271.75000000000006,"velocity":0.8031496062992126,"duration":0.37109375},{"name":"B4","midi":71,"time":271.93750000000006,"velocity":0.8031496062992126,"duration":0.18359375},{"name":"E5","midi":76,"time":272.12500000000006,"velocity":0.8031496062992126,"duration":0.546875},{"name":"C#3","midi":49,"time":272.12500000000006,"velocity":0.8031496062992126,"duration":0.37109375},{"name":"F4","midi":65,"time":272.31250000000006,"velocity":0.8031496062992126,"duration":0.18359375},{"name":"G4","midi":67,"time":272.50000000000006,"velocity":0.8031496062992126,"duration":0.18359375},{"name":"B2","midi":47,"time":272.50000000000006,"velocity":0.8031496062992126,"duration":0.37109375},{"name":"E4","midi":64,"time":272.68750000000006,"velocity":0.8031496062992126,"duration":0.18359375},{"name":"E5","midi":76,"time":272.87500000000006,"velocity":0.8031496062992126,"duration":0.546875},{"name":"C#3","midi":49,"time":272.87500000000006,"velocity":0.8031496062992126,"duration":0.37109375},{"name":"F4","midi":65,"time":273.06250000000006,"velocity":0.8031496062992126,"duration":0.18359375},{"name":"G4","midi":67,"time":273.25000000000006,"velocity":0.8031496062992126,"duration":0.18359375},{"name":"A2","midi":45,"time":273.25000000000006,"velocity":0.8031496062992126,"duration":0.37109375},{"name":"E4","midi":64,"time":273.43750000000006,"velocity":0.8031496062992126,"duration":0.18359375},{"name":"F4","midi":65,"time":273.62500000000006,"velocity":0.8031496062992126,"duration":0.37109375},{"name":"D3","midi":50,"time":273.62500000000006,"velocity":0.8031496062992126,"duration":0.37109375},{"name":"D4","midi":62,"time":273.81250000000006,"velocity":0.8031496062992126,"duration":0.18359375},{"name":"F4","midi":65,"time":274.00000000000006,"velocity":0.8031496062992126,"duration":0.18359375},{"name":"C3","midi":48,"time":274.00000000000006,"velocity":0.8031496062992126,"duration":0.37109375},{"name":"A4","midi":69,"time":274.18750000000006,"velocity":0.8031496062992126,"duration":0.18359375},{"name":"D5","midi":74,"time":274.37500000000006,"velocity":0.8031496062992126,"duration":0.546875},{"name":"B2","midi":47,"time":274.37500000000006,"velocity":0.8031496062992126,"duration":0.37109375},{"name":"E4","midi":64,"time":274.56250000000006,"velocity":0.8031496062992126,"duration":0.18359375},{"name":"F4","midi":65,"time":274.75000000000006,"velocity":0.8031496062992126,"duration":0.18359375},{"name":"A2","midi":45,"time":274.75000000000006,"velocity":0.8031496062992126,"duration":0.37109375},{"name":"D4","midi":62,"time":274.93750000000006,"velocity":0.8031496062992126,"duration":0.18359375},{"name":"D5","midi":74,"time":275.12500000000006,"velocity":0.8031496062992126,"duration":0.18359375},{"name":"B2","midi":47,"time":275.12500000000006,"velocity":0.8031496062992126,"duration":0.37109375},{"name":"E4","midi":64,"time":275.31250000000006,"velocity":0.8031496062992126,"duration":0.18359375},{"name":"F4","midi":65,"time":275.50000000000006,"velocity":0.8031496062992126,"duration":0.18359375},{"name":"G2","midi":43,"time":275.50000000000006,"velocity":0.8031496062992126,"duration":0.37109375},{"name":"D4","midi":62,"time":275.68750000000006,"velocity":0.8031496062992126,"duration":0.18359375},{"name":"E4","midi":64,"time":275.87500000000006,"velocity":0.8031496062992126,"duration":0.18359375},{"name":"C3","midi":48,"time":275.87500000000006,"velocity":0.8031496062992126,"duration":0.37109375},{"name":"D4","midi":62,"time":276.06250000000006,"velocity":0.8031496062992126,"duration":0.18359375},{"name":"C4","midi":60,"time":276.25000000000006,"velocity":0.8031496062992126,"duration":0.18359375},{"name":"G2","midi":43,"time":276.25000000000006,"velocity":0.8031496062992126,"duration":0.37109375},{"name":"B3","midi":59,"time":276.43750000000006,"velocity":0.8031496062992126,"duration":0.18359375},{"name":"C4","midi":60,"time":276.62500000000006,"velocity":0.8031496062992126,"duration":0.37109375},{"name":"C2","midi":36,"time":276.62500000000006,"velocity":0.8031496062992126,"duration":0.37109375},{"name":"G#3","midi":56,"time":276.81250000000006,"velocity":0.8031496062992126,"duration":0.18359375},{"name":"A3","midi":57,"time":277.00000000000006,"velocity":0.8031496062992126,"duration":0.2734375},{"name":"C3","midi":48,"time":277.00000000000006,"velocity":0.8031496062992126,"duration":0.37109375},{"name":"E4","midi":64,"time":277.18750000000006,"velocity":0.8031496062992126,"duration":0.18359375},{"name":"D4","midi":62,"time":277.37500000000006,"velocity":0.8031496062992126,"duration":0.18359375},{"name":"B2","midi":47,"time":277.37500000000006,"velocity":0.8031496062992126,"duration":0.18359375},{"name":"B3","midi":59,"time":277.56250000000006,"velocity":0.8031496062992126,"duration":0.18359375},{"name":"G#2","midi":44,"time":277.56250000000006,"velocity":0.8031496062992126,"duration":0.18359375},{"name":"C4","midi":60,"time":277.75000000000006,"velocity":0.8031496062992126,"duration":0.18359375},{"name":"A2","midi":45,"time":277.75000000000006,"velocity":0.8031496062992126,"duration":0.18359375},{"name":"A3","midi":57,"time":277.93750000000006,"velocity":0.8031496062992126,"duration":0.18359375},{"name":"F#2","midi":42,"time":277.93750000000006,"velocity":0.8031496062992126,"duration":0.18359375},{"name":"B3","midi":59,"time":278.12500000000006,"velocity":0.8031496062992126,"duration":0.25390625},{"name":"G#2","midi":44,"time":278.12500000000006,"velocity":0.8031496062992126,"duration":0.37109375},{"name":"D4","midi":62,"time":278.31250000000006,"velocity":0.8031496062992126,"duration":0.18359375},{"name":"B3","midi":59,"time":278.50000000000006,"velocity":0.8031496062992126,"duration":0.18359375},{"name":"E2","midi":40,"time":278.50000000000006,"velocity":0.8031496062992126,"duration":0.37109375},{"name":"G#3","midi":56,"time":278.68750000000006,"velocity":0.8031496062992126,"duration":0.18359375},{"name":"D4","midi":62,"time":278.87500000000006,"velocity":0.8031496062992126,"duration":0.18359375},{"name":"G#2","midi":44,"time":278.87500000000006,"velocity":0.8031496062992126,"duration":0.37109375},{"name":"B3","midi":59,"time":279.06250000000006,"velocity":0.8031496062992126,"duration":0.18359375},{"name":"G#3","midi":56,"time":279.25000000000006,"velocity":0.8031496062992126,"duration":0.18359375},{"name":"B2","midi":47,"time":279.25000000000006,"velocity":0.8031496062992126,"duration":0.37109375},{"name":"B3","midi":59,"time":279.43750000000006,"velocity":0.8031496062992126,"duration":0.18359375},{"name":"E3","midi":52,"time":279.62500000000006,"velocity":0.8031496062992126,"duration":0.18359375},{"name":"G#2","midi":44,"time":279.62500000000006,"velocity":0.8031496062992126,"duration":0.37109375},{"name":"D4","midi":62,"time":279.81250000000006,"velocity":0.8031496062992126,"duration":0.18359375},{"name":"C4","midi":60,"time":280.00000000000006,"velocity":0.8031496062992126,"duration":0.18359375},{"name":"E2","midi":40,"time":280.00000000000006,"velocity":0.8031496062992126,"duration":0.37109375},{"name":"B3","midi":59,"time":280.18750000000006,"velocity":0.8031496062992126,"duration":0.18359375},{"name":"C4","midi":60,"time":280.37500000000006,"velocity":0.8031496062992126,"duration":0.25390625},{"name":"A2","midi":45,"time":280.37500000000006,"velocity":0.8031496062992126,"duration":0.33203125},{"name":"A3","midi":57,"time":280.56250000000006,"velocity":0.8031496062992126,"duration":0.18359375},{"name":"C#4","midi":61,"time":280.75000000000006,"velocity":0.8031496062992126,"duration":0.18359375},{"name":"A2","midi":45,"time":280.75000000000006,"velocity":0.8031496062992126,"duration":0.37109375},{"name":"E4","midi":64,"time":280.93750000000006,"velocity":0.8031496062992126,"duration":0.18359375},{"name":"G4","midi":67,"time":281.12500000000006,"velocity":0.8031496062992126,"duration":0.18359375},{"name":"C#3","midi":49,"time":281.12500000000006,"velocity":0.8031496062992126,"duration":0.37109375},{"name":"E4","midi":64,"time":281.31250000000006,"velocity":0.8031496062992126,"duration":0.18359375},{"name":"C#4","midi":61,"time":281.50000000000006,"velocity":0.8031496062992126,"duration":0.18359375},{"name":"E3","midi":52,"time":281.50000000000006,"velocity":0.8031496062992126,"duration":0.37109375},{"name":"E4","midi":64,"time":281.68750000000006,"velocity":0.8031496062992126,"duration":0.18359375},{"name":"A3","midi":57,"time":281.87500000000006,"velocity":0.8031496062992126,"duration":0.18359375},{"name":"C#3","midi":49,"time":281.87500000000006,"velocity":0.8031496062992126,"duration":0.37109375},{"name":"G4","midi":67,"time":282.06250000000006,"velocity":0.8031496062992126,"duration":0.18359375},{"name":"F4","midi":65,"time":282.25000000000006,"velocity":0.8031496062992126,"duration":0.18359375},{"name":"A2","midi":45,"time":282.25000000000006,"velocity":0.8031496062992126,"duration":0.37109375},{"name":"E4","midi":64,"time":282.43750000000006,"velocity":0.8031496062992126,"duration":0.18359375},{"name":"F4","midi":65,"time":282.62500000000006,"velocity":0.8031496062992126,"duration":0.18359375},{"name":"D3","midi":50,"time":282.62500000000006,"velocity":0.8031496062992126,"duration":0.3411458333333144},{"name":"A3","midi":57,"time":282.81250000000006,"velocity":0.8031496062992126,"duration":0.18359375},{"name":"D4","midi":62,"time":283.00000000000006,"velocity":0.8031496062992126,"duration":0.18359375},{"name":"F3","midi":53,"time":283.00000000000006,"velocity":0.8031496062992126,"duration":0.18359375},{"name":"F4","midi":65,"time":283.18750000000006,"velocity":0.8031496062992126,"duration":0.18359375},{"name":"E3","midi":52,"time":283.18750000000006,"velocity":0.8031496062992126,"duration":0.18359375},{"name":"A4","midi":69,"time":283.37500000000006,"velocity":0.8031496062992126,"duration":0.18359375},{"name":"D#3","midi":51,"time":283.37500000000006,"velocity":0.8031496062992126,"duration":0.37109375},{"name":"F#4","midi":66,"time":283.56250000000006,"velocity":0.8031496062992126,"duration":0.18359375},{"name":"D#4","midi":63,"time":283.75000000000006,"velocity":0.8031496062992126,"duration":0.18359375},{"name":"F#3","midi":54,"time":283.75000000000006,"velocity":0.8031496062992126,"duration":0.37109375},{"name":"F#4","midi":66,"time":283.93750000000006,"velocity":0.8031496062992126,"duration":0.18359375},{"name":"B3","midi":59,"time":284.12500000000006,"velocity":0.8031496062992126,"duration":0.18359375},{"name":"D#3","midi":51,"time":284.12500000000006,"velocity":0.8031496062992126,"duration":0.37109375},{"name":"A4","midi":69,"time":284.31250000000006,"velocity":0.8031496062992126,"duration":0.18359375},{"name":"G#4","midi":68,"time":284.50000000000006,"velocity":0.8031496062992126,"duration":0.18359375},{"name":"B2","midi":47,"time":284.50000000000006,"velocity":0.8031496062992126,"duration":0.37109375},{"name":"F#4","midi":66,"time":284.68750000000006,"velocity":0.8031496062992126,"duration":0.18359375},{"name":"G#4","midi":68,"time":284.87500000000006,"velocity":0.8031496062992126,"duration":0.2734375},{"name":"E2","midi":40,"time":284.87500000000006,"velocity":0.8031496062992126,"duration":0.546875},{"name":"E4","midi":64,"time":285.06250000000006,"velocity":0.8031496062992126,"duration":0.18359375},{"name":"G#4","midi":68,"time":285.25000000000006,"velocity":0.8031496062992126,"duration":0.18359375},{"name":"E3","midi":52,"time":285.25000000000006,"velocity":0.8031496062992126,"duration":0.37109375},{"name":"B4","midi":71,"time":285.43750000000006,"velocity":0.8031496062992126,"duration":0.18359375},{"name":"D5","midi":74,"time":285.62500000000006,"velocity":0.8031496062992126,"duration":0.18359375},{"name":"G#3","midi":56,"time":285.62500000000006,"velocity":0.8031496062992126,"duration":0.37109375},{"name":"B4","midi":71,"time":285.81250000000006,"velocity":0.8031496062992126,"duration":0.18359375},{"name":"G#4","midi":68,"time":286.00000000000006,"velocity":0.8031496062992126,"duration":0.18359375},{"name":"B3","midi":59,"time":286.00000000000006,"velocity":0.8031496062992126,"duration":0.37109375},{"name":"B4","midi":71,"time":286.18750000000006,"velocity":0.8031496062992126,"duration":0.18359375},{"name":"E4","midi":64,"time":286.37500000000006,"velocity":0.8031496062992126,"duration":0.18359375},{"name":"G#3","midi":56,"time":286.37500000000006,"velocity":0.8031496062992126,"duration":0.37109375},{"name":"D5","midi":74,"time":286.56250000000006,"velocity":0.8031496062992126,"duration":0.18359375},{"name":"C5","midi":72,"time":286.75000000000006,"velocity":0.8031496062992126,"duration":0.18359375},{"name":"E3","midi":52,"time":286.75000000000006,"velocity":0.8031496062992126,"duration":0.37109375},{"name":"B4","midi":71,"time":286.93750000000006,"velocity":0.8031496062992126,"duration":0.18359375},{"name":"C5","midi":72,"time":287.12500000000006,"velocity":0.8031496062992126,"duration":0.2734375},{"name":"A3","midi":57,"time":287.12500000000006,"velocity":0.8031496062992126,"duration":0.18359375},{"name":"D4","midi":62,"time":287.31250000000006,"velocity":0.8031496062992126,"duration":0.18359375},{"name":"E5","midi":76,"time":287.50000000000006,"velocity":0.8031496062992126,"duration":0.2734375},{"name":"C4","midi":60,"time":287.50000000000006,"velocity":0.8031496062992126,"duration":0.18359375},{"name":"B3","midi":59,"time":287.68750000000006,"velocity":0.8031496062992126,"duration":0.18359375},{"name":"A4","midi":69,"time":287.87500000000006,"velocity":0.8031496062992126,"duration":0.2734375},{"name":"C4","midi":60,"time":287.87500000000006,"velocity":0.8031496062992126,"duration":0.18359375},{"name":"B3","midi":59,"time":288.06250000000006,"velocity":0.8031496062992126,"duration":0.18359375},{"name":"A5","midi":81,"time":288.25000000000006,"velocity":0.8031496062992126,"duration":0.2734375},{"name":"C4","midi":60,"time":288.25000000000006,"velocity":0.8031496062992126,"duration":0.18359375},{"name":"E4","midi":64,"time":288.43750000000006,"velocity":0.8031496062992126,"duration":0.18359375},{"name":"G5","midi":79,"time":288.62500000000006,"velocity":0.8031496062992126,"duration":0.18359375},{"name":"C#4","midi":61,"time":288.62500000000006,"velocity":0.8031496062992126,"duration":0.18359375},{"name":"E5","midi":76,"time":288.81250000000006,"velocity":0.8031496062992126,"duration":0.18359375},{"name":"E4","midi":64,"time":288.81250000000006,"velocity":0.8031496062992126,"duration":0.18359375},{"name":"F5","midi":77,"time":289.00000000000006,"velocity":0.8031496062992126,"duration":0.18359375},{"name":"D4","midi":62,"time":289.00000000000006,"velocity":0.8031496062992126,"duration":0.18359375},{"name":"D5","midi":74,"time":289.18750000000006,"velocity":0.8031496062992126,"duration":0.18359375},{"name":"F4","midi":65,"time":289.18750000000006,"velocity":0.8031496062992126,"duration":0.18359375},{"name":"B5","midi":83,"time":289.37500000000006,"velocity":0.8031496062992126,"duration":0.18359375},{"name":"G#3","midi":56,"time":289.37500000000006,"velocity":0.8031496062992126,"duration":0.3411458333333144},{"name":"A5","midi":81,"time":289.56250000000006,"velocity":0.8031496062992126,"duration":0.18359375},{"name":"G#5","midi":80,"time":289.75000000000006,"velocity":0.8031496062992126,"duration":0.18359375},{"name":"B3","midi":59,"time":289.75000000000006,"velocity":0.8031496062992126,"duration":0.3411458333333144},{"name":"F#5","midi":78,"time":289.93750000000006,"velocity":0.8031496062992126,"duration":0.18359375},{"name":"G#5","midi":80,"time":290.12500000000006,"velocity":0.8031496062992126,"duration":0.18359375},{"name":"E3","midi":52,"time":290.12500000000006,"velocity":0.8031496062992126,"duration":0.3411458333333144},{"name":"F#5","midi":78,"time":290.31250000000006,"velocity":0.8031496062992126,"duration":0.18359375},{"name":"G#5","midi":80,"time":290.50000000000006,"velocity":0.8031496062992126,"duration":0.18359375},{"name":"E4","midi":64,"time":290.50000000000006,"velocity":0.8031496062992126,"duration":0.3411458333333144},{"name":"B5","midi":83,"time":290.68750000000006,"velocity":0.8031496062992126,"duration":0.18359375},{"name":"E5","midi":76,"time":290.87500000000006,"velocity":0.8031496062992126,"duration":0.18359375},{"name":"D4","midi":62,"time":290.87500000000006,"velocity":0.8031496062992126,"duration":0.18359375},{"name":"G#5","midi":80,"time":291.06250000000006,"velocity":0.8031496062992126,"duration":0.18359375},{"name":"B3","midi":59,"time":291.06250000000006,"velocity":0.8031496062992126,"duration":0.18359375},{"name":"A5","midi":81,"time":291.25000000000006,"velocity":0.8031496062992126,"duration":0.18359375},{"name":"C4","midi":60,"time":291.25000000000006,"velocity":0.8031496062992126,"duration":0.18359375},{"name":"C5","midi":72,"time":291.43750000000006,"velocity":0.8031496062992126,"duration":0.18359375},{"name":"A3","midi":57,"time":291.43750000000006,"velocity":0.8031496062992126,"duration":0.18359375},{"name":"D5","midi":74,"time":291.62500000000006,"velocity":0.8031496062992126,"duration":0.3515625},{"name":"B3","midi":59,"time":291.62500000000006,"velocity":0.8031496062992126,"duration":0.37109375},{"name":"F5","midi":77,"time":291.81250000000006,"velocity":0.8031496062992126,"duration":0.18359375},{"name":"C5","midi":72,"time":292.00000000000006,"velocity":0.8031496062992126,"duration":0.3515625},{"name":"A3","midi":57,"time":292.00000000000006,"velocity":0.8031496062992126,"duration":0.37109375},{"name":"F5","midi":77,"time":292.18750000000006,"velocity":0.8031496062992126,"duration":0.18359375},{"name":"B4","midi":71,"time":292.37500000000006,"velocity":0.8031496062992126,"duration":0.3515625},{"name":"G#3","midi":56,"time":292.37500000000006,"velocity":0.8031496062992126,"duration":0.37109375},{"name":"F5","midi":77,"time":292.56250000000006,"velocity":0.8031496062992126,"duration":0.18359375},{"name":"C5","midi":72,"time":292.75000000000006,"velocity":0.8031496062992126,"duration":0.3125},{"name":"A3","midi":57,"time":292.75000000000006,"velocity":0.8031496062992126,"duration":0.37109375},{"name":"F5","midi":77,"time":292.93750000000006,"velocity":0.8031496062992126,"duration":0.18359375},{"name":"B4","midi":71,"time":293.12500000000006,"velocity":0.8031496062992126,"duration":0.2734375},{"name":"B3","midi":59,"time":293.12500000000006,"velocity":0.8031496062992126,"duration":0.37109375},{"name":"F5","midi":77,"time":293.31250000000006,"velocity":0.8031496062992126,"duration":0.18359375},{"name":"A4","midi":69,"time":293.50000000000006,"velocity":0.8031496062992126,"duration":0.21484375},{"name":"C4","midi":60,"time":293.50000000000006,"velocity":0.8031496062992126,"duration":0.37109375},{"name":"F5","midi":77,"time":293.68750000000006,"velocity":0.8031496062992126,"duration":0.18359375},{"name":"G#4","midi":68,"time":293.87500000000006,"velocity":0.8031496062992126,"duration":0.546875},{"name":"D4","midi":62,"time":293.87500000000006,"velocity":0.8031496062992126,"duration":0.37109375},{"name":"B4","midi":71,"time":294.06250000000006,"velocity":0.8031496062992126,"duration":0.18359375},{"name":"E5","midi":76,"time":294.25000000000006,"velocity":0.8031496062992126,"duration":0.7421875},{"name":"D3","midi":50,"time":294.25000000000006,"velocity":0.8031496062992126,"duration":0.37109375},{"name":"E4","midi":64,"time":294.43750000000006,"velocity":0.8031496062992126,"duration":0.18359375},{"name":"A4","midi":69,"time":294.62500000000006,"velocity":0.8031496062992126,"duration":0.546875},{"name":"C3","midi":48,"time":294.62500000000006,"velocity":0.8031496062992126,"duration":0.37109375},{"name":"C5","midi":72,"time":294.81250000000006,"velocity":0.8031496062992126,"duration":0.18359375},{"name":"E5","midi":76,"time":295.00000000000006,"velocity":0.8031496062992126,"duration":0.37109375},{"name":"C4","midi":60,"time":295.00000000000006,"velocity":0.8031496062992126,"duration":0.37109375},{"name":"E4","midi":64,"time":295.18750000000006,"velocity":0.8031496062992126,"duration":0.18359375},{"name":"G#4","midi":68,"time":295.37500000000006,"velocity":0.8031496062992126,"duration":0.37109375},{"name":"B3","midi":59,"time":295.37500000000006,"velocity":0.8031496062992126,"duration":0.37109375},{"name":"B4","midi":71,"time":295.56250000000006,"velocity":0.8031496062992126,"duration":0.18359375},{"name":"D5","midi":74,"time":295.75000000000006,"velocity":0.8031496062992126,"duration":0.18359375},{"name":"E3","midi":52,"time":295.75000000000006,"velocity":0.8031496062992126,"duration":0.37109375},{"name":"E4","midi":64,"time":295.93750000000006,"velocity":0.8031496062992126,"duration":0.18359375},{"name":"C5","midi":72,"time":296.12500000000006,"velocity":0.8031496062992126,"duration":0.18359375},{"name":"A2","midi":45,"time":296.12500000000006,"velocity":0.8031496062992126,"duration":0.37109375},{"name":"B4","midi":71,"time":296.31250000000006,"velocity":0.8031496062992126,"duration":0.18359375},{"name":"A4","midi":69,"time":296.50000000000006,"velocity":0.8031496062992126,"duration":0.18359375},{"name":"A3","midi":57,"time":296.50000000000006,"velocity":0.8031496062992126,"duration":0.55859375},{"name":"G4","midi":67,"time":296.68750000000006,"velocity":0.8031496062992126,"duration":0.18359375},{"name":"F4","midi":65,"time":296.87500000000006,"velocity":0.8031496062992126,"duration":0.18359375},{"name":"E4","midi":64,"time":297.06250000000006,"velocity":0.8031496062992126,"duration":0.18359375},{"name":"G3","midi":55,"time":297.06250000000006,"velocity":0.8031496062992126,"duration":0.18359375},{"name":"D4","midi":62,"time":297.25000000000006,"velocity":0.8031496062992126,"duration":0.18359375},{"name":"F3","midi":53,"time":297.25000000000006,"velocity":0.8031496062992126,"duration":0.18359375},{"name":"E4","midi":64,"time":297.43750000000006,"velocity":0.8031496062992126,"duration":0.18359375},{"name":"E3","midi":52,"time":297.43750000000006,"velocity":0.8031496062992126,"duration":0.18359375},{"name":"F4","midi":65,"time":297.62500000000006,"velocity":0.8031496062992126,"duration":0.18359375},{"name":"D3","midi":50,"time":297.62500000000006,"velocity":0.8031496062992126,"duration":0.18359375},{"name":"E4","midi":64,"time":297.81250000000006,"velocity":0.8031496062992126,"duration":0.18359375},{"name":"C3","midi":48,"time":297.81250000000006,"velocity":0.8031496062992126,"duration":0.18359375},{"name":"F4","midi":65,"time":298.00000000000006,"velocity":0.8031496062992126,"duration":0.18359375},{"name":"D3","midi":50,"time":298.00000000000006,"velocity":0.8031496062992126,"duration":0.37109375},{"name":"C5","midi":72,"time":298.18750000000006,"velocity":0.8031496062992126,"duration":0.18359375},{"name":"D2","midi":38,"time":298.18750000000006,"velocity":0.8031496062992126,"duration":0.18359375},{"name":"B4","midi":71,"time":298.37500000000006,"velocity":0.8031496062992126,"duration":0.18359375},{"name":"G2","midi":43,"time":298.37500000000006,"velocity":0.8031496062992126,"duration":0.37109375},{"name":"A4","midi":69,"time":298.56250000000006,"velocity":0.8031496062992126,"duration":0.18359375},{"name":"G4","midi":67,"time":298.75000000000006,"velocity":0.8031496062992126,"duration":0.18359375},{"name":"G3","midi":55,"time":298.75000000000006,"velocity":0.8031496062992126,"duration":0.55859375},{"name":"F4","midi":65,"time":298.93750000000006,"velocity":0.8031496062992126,"duration":0.18359375},{"name":"E4","midi":64,"time":299.12500000000006,"velocity":0.8031496062992126,"duration":0.18359375},{"name":"D4","midi":62,"time":299.31250000000006,"velocity":0.8031496062992126,"duration":0.18359375},{"name":"F3","midi":53,"time":299.31250000000006,"velocity":0.8031496062992126,"duration":0.18359375},{"name":"C4","midi":60,"time":299.50000000000006,"velocity":0.8031496062992126,"duration":0.18359375},{"name":"E3","midi":52,"time":299.50000000000006,"velocity":0.8031496062992126,"duration":0.18359375},{"name":"D4","midi":62,"time":299.68750000000006,"velocity":0.8031496062992126,"duration":0.18359375},{"name":"D3","midi":50,"time":299.68750000000006,"velocity":0.8031496062992126,"duration":0.18359375},{"name":"E4","midi":64,"time":299.87500000000006,"velocity":0.8031496062992126,"duration":0.18359375},{"name":"C3","midi":48,"time":299.87500000000006,"velocity":0.8031496062992126,"duration":0.18359375},{"name":"D4","midi":62,"time":300.06250000000006,"velocity":0.8031496062992126,"duration":0.18359375},{"name":"A#2","midi":46,"time":300.06250000000006,"velocity":0.8031496062992126,"duration":0.18359375},{"name":"E4","midi":64,"time":300.25000000000006,"velocity":0.8031496062992126,"duration":0.18359375},{"name":"C3","midi":48,"time":300.25000000000006,"velocity":0.8031496062992126,"duration":0.37109375},{"name":"A#4","midi":70,"time":300.43750000000006,"velocity":0.8031496062992126,"duration":0.18359375},{"name":"C2","midi":36,"time":300.43750000000006,"velocity":0.8031496062992126,"duration":0.18359375},{"name":"A4","midi":69,"time":300.62500000000006,"velocity":0.8031496062992126,"duration":0.18359375},{"name":"F2","midi":41,"time":300.62500000000006,"velocity":0.8031496062992126,"duration":0.37109375},{"name":"G4","midi":67,"time":300.81250000000006,"velocity":0.8031496062992126,"duration":0.18359375},{"name":"F4","midi":65,"time":301.00000000000006,"velocity":0.8031496062992126,"duration":0.18359375},{"name":"A2","midi":45,"time":301.00000000000006,"velocity":0.8031496062992126,"duration":0.37109375},{"name":"E4","midi":64,"time":301.18750000000006,"velocity":0.8031496062992126,"duration":0.18359375},{"name":"F4","midi":65,"time":301.37500000000006,"velocity":0.8031496062992126,"duration":0.18359375},{"name":"D2","midi":38,"time":301.37500000000006,"velocity":0.8031496062992126,"duration":0.37109375},{"name":"E4","midi":64,"time":301.56250000000006,"velocity":0.8031496062992126,"duration":0.18359375},{"name":"F4","midi":65,"time":301.75000000000006,"velocity":0.8031496062992126,"duration":0.18359375},{"name":"D3","midi":50,"time":301.75000000000006,"velocity":0.8031496062992126,"duration":0.18359375},{"name":"A4","midi":69,"time":301.93750000000006,"velocity":0.8031496062992126,"duration":0.18359375},{"name":"C3","midi":48,"time":301.93750000000006,"velocity":0.8031496062992126,"duration":0.18359375},{"name":"G#4","midi":68,"time":302.12500000000006,"velocity":0.8031496062992126,"duration":0.18359375},{"name":"B2","midi":47,"time":302.12500000000006,"velocity":0.8031496062992126,"duration":0.18359375},{"name":"B4","midi":71,"time":302.31250000000006,"velocity":0.8031496062992126,"duration":0.18359375},{"name":"G#2","midi":44,"time":302.31250000000006,"velocity":0.8031496062992126,"duration":0.18359375},{"name":"A4","midi":69,"time":302.50000000000006,"velocity":0.8031496062992126,"duration":0.18359375},{"name":"A2","midi":45,"time":302.50000000000006,"velocity":0.8031496062992126,"duration":0.18359375},{"name":"C5","midi":72,"time":302.68750000000006,"velocity":0.8031496062992126,"duration":0.18359375},{"name":"F#2","midi":42,"time":302.68750000000006,"velocity":0.8031496062992126,"duration":0.18359375},{"name":"B4","midi":71,"time":302.87500000000006,"velocity":0.8031496062992126,"duration":0.18359375},{"name":"G#2","midi":44,"time":302.87500000000006,"velocity":0.8031496062992126,"duration":0.9375},{"name":"C5","midi":72,"time":303.06250000000006,"velocity":0.8031496062992126,"duration":0.18359375},{"name":"D5","midi":74,"time":303.25000000000006,"velocity":0.8031496062992126,"duration":0.18359375},{"name":"B4","midi":71,"time":303.43750000000006,"velocity":0.8031496062992126,"duration":0.18359375},{"name":"G#4","midi":68,"time":303.62500000000006,"velocity":0.8031496062992126,"duration":0.18359375},{"name":"E4","midi":64,"time":303.81250000000006,"velocity":0.8031496062992126,"duration":0.18359375},{"name":"F4","midi":65,"time":304.00000000000006,"velocity":0.8031496062992126,"duration":0.18359375},{"name":"B2","midi":47,"time":304.00000000000006,"velocity":0.8031496062992126,"duration":0.37109375},{"name":"D4","midi":62,"time":304.18750000000006,"velocity":0.8031496062992126,"duration":0.18359375},{"name":"E4","midi":64,"time":304.37500000000006,"velocity":0.8031496062992126,"duration":0.18359375},{"name":"G#2","midi":44,"time":304.37500000000006,"velocity":0.8031496062992126,"duration":0.37109375},{"name":"C4","midi":60,"time":304.56250000000006,"velocity":0.8031496062992126,"duration":0.18359375},{"name":"D4","midi":62,"time":304.75000000000006,"velocity":0.8031496062992126,"duration":0.18359375},{"name":"E2","midi":40,"time":304.75000000000006,"velocity":0.8031496062992126,"duration":0.37109375},{"name":"B3","midi":59,"time":304.93750000000006,"velocity":0.8031496062992126,"duration":0.18359375},{"name":"C4","midi":60,"time":305.12500000000006,"velocity":0.8031496062992126,"duration":0.18359375},{"name":"A2","midi":45,"time":305.12500000000006,"velocity":0.8031496062992126,"duration":0.7421875},{"name":"E4","midi":64,"time":305.31250000000006,"velocity":0.8031496062992126,"duration":0.18359375},{"name":"A4","midi":69,"time":305.50000000000006,"velocity":0.8031496062992126,"duration":0.18359375},{"name":"G#4","midi":68,"time":305.68750000000006,"velocity":0.8031496062992126,"duration":0.18359375},{"name":"A4","midi":69,"time":305.87500000000006,"velocity":0.8031496062992126,"duration":0.18359375},{"name":"D4","midi":62,"time":306.06250000000006,"velocity":0.8031496062992126,"duration":0.18359375},{"name":"E4","midi":64,"time":306.25000000000006,"velocity":0.8031496062992126,"duration":0.18359375},{"name":"C3","midi":48,"time":306.25000000000006,"velocity":0.8031496062992126,"duration":0.37109375},{"name":"C4","midi":60,"time":306.43750000000006,"velocity":0.8031496062992126,"duration":0.18359375},{"name":"D4","midi":62,"time":306.62500000000006,"velocity":0.8031496062992126,"duration":0.18359375},{"name":"B2","midi":47,"time":306.62500000000006,"velocity":0.8031496062992126,"duration":0.37109375},{"name":"B3","midi":59,"time":306.81250000000006,"velocity":0.8031496062992126,"duration":0.18359375},{"name":"C4","midi":60,"time":307.00000000000006,"velocity":0.8031496062992126,"duration":0.18359375},{"name":"A2","midi":45,"time":307.00000000000006,"velocity":0.8031496062992126,"duration":0.37109375},{"name":"A3","midi":57,"time":307.18750000000006,"velocity":0.8031496062992126,"duration":0.18359375},{"name":"G#3","midi":56,"time":307.37500000000006,"velocity":0.8031496062992126,"duration":0.18359375},{"name":"E3","midi":52,"time":307.37500000000006,"velocity":0.8031496062992126,"duration":1.0546875},{"name":"E4","midi":64,"time":307.56250000000006,"velocity":0.8031496062992126,"duration":0.18359375},{"name":"B4","midi":71,"time":307.75000000000006,"velocity":0.8031496062992126,"duration":0.18359375},{"name":"A4","midi":69,"time":307.93750000000006,"velocity":0.8031496062992126,"duration":0.18359375},{"name":"B4","midi":71,"time":308.12500000000006,"velocity":0.8031496062992126,"duration":0.18359375},{"name":"E4","midi":64,"time":308.31250000000006,"velocity":0.8031496062992126,"duration":0.18359375},{"name":"F4","midi":65,"time":308.50000000000006,"velocity":0.8031496062992126,"duration":0.18359375},{"name":"E3","midi":52,"time":308.50000000000006,"velocity":0.8031496062992126,"duration":0.37109375},{"name":"D4","midi":62,"time":308.68750000000006,"velocity":0.8031496062992126,"duration":0.18359375},{"name":"E4","midi":64,"time":308.87500000000006,"velocity":0.8031496062992126,"duration":0.18359375},{"name":"F#3","midi":54,"time":308.87500000000006,"velocity":0.8031496062992126,"duration":0.37109375},{"name":"C4","midi":60,"time":309.06250000000006,"velocity":0.8031496062992126,"duration":0.18359375},{"name":"D4","midi":62,"time":309.25000000000006,"velocity":0.8031496062992126,"duration":0.18359375},{"name":"G#3","midi":56,"time":309.25000000000006,"velocity":0.8031496062992126,"duration":0.37109375},{"name":"B3","midi":59,"time":309.43750000000006,"velocity":0.8031496062992126,"duration":0.18359375},{"name":"C4","midi":60,"time":309.62500000000006,"velocity":0.8031496062992126,"duration":0.18359375},{"name":"A3","midi":57,"time":309.62500000000006,"velocity":0.8031496062992126,"duration":0.55859375},{"name":"D4","midi":62,"time":309.81250000000006,"velocity":0.8031496062992126,"duration":0.18359375},{"name":"E4","midi":64,"time":310.00000000000006,"velocity":0.8031496062992126,"duration":0.18359375},{"name":"B3","midi":59,"time":310.18750000000006,"velocity":0.8031496062992126,"duration":0.18359375},{"name":"G#3","midi":56,"time":310.18750000000006,"velocity":0.8031496062992126,"duration":0.18359375},{"name":"C4","midi":60,"time":310.37500000000006,"velocity":0.8031496062992126,"duration":0.37109375},{"name":"A3","midi":57,"time":310.37500000000006,"velocity":0.8031496062992126,"duration":0.18359375},{"name":"E3","midi":52,"time":310.56250000000006,"velocity":0.8031496062992126,"duration":0.18359375},{"name":"D4","midi":62,"time":310.75000000000006,"velocity":0.8031496062992126,"duration":0.37109375},{"name":"F3","midi":53,"time":310.75000000000006,"velocity":0.8031496062992126,"duration":0.18359375},{"name":"D3","midi":50,"time":310.93750000000006,"velocity":0.8031496062992126,"duration":0.18359375},{"name":"C4","midi":60,"time":311.12500000000006,"velocity":0.8031496062992126,"duration":0.37109375},{"name":"E3","midi":52,"time":311.12500000000006,"velocity":0.8031496062992126,"duration":0.18359375},{"name":"C3","midi":48,"time":311.31250000000006,"velocity":0.8031496062992126,"duration":0.18359375},{"name":"B3","midi":59,"time":311.50000000000006,"velocity":0.8031496062992126,"duration":0.37109375},{"name":"D3","midi":50,"time":311.50000000000006,"velocity":0.8031496062992126,"duration":0.18359375},{"name":"B2","midi":47,"time":311.68750000000006,"velocity":0.8031496062992126,"duration":0.18359375},{"name":"A3","midi":57,"time":311.87500000000006,"velocity":0.8031496062992126,"duration":0.18359375},{"name":"C3","midi":48,"time":311.87500000000006,"velocity":0.8031496062992126,"duration":0.18359375},{"name":"B3","midi":59,"time":312.06250000000006,"velocity":0.8031496062992126,"duration":0.18359375},{"name":"D3","midi":50,"time":312.06250000000006,"velocity":0.8031496062992126,"duration":0.18359375},{"name":"C4","midi":60,"time":312.25000000000006,"velocity":0.8031496062992126,"duration":0.18359375},{"name":"E3","midi":52,"time":312.25000000000006,"velocity":0.8031496062992126,"duration":0.18359375},{"name":"G#3","midi":56,"time":312.43750000000006,"velocity":0.8031496062992126,"duration":0.18359375},{"name":"B2","midi":47,"time":312.43750000000006,"velocity":0.8031496062992126,"duration":0.18359375},{"name":"A3","midi":57,"time":312.62500000000006,"velocity":0.8031496062992126,"duration":0.37109375},{"name":"C3","midi":48,"time":312.62500000000006,"velocity":0.8031496062992126,"duration":0.37109375},{"name":"E3","midi":52,"time":312.81250000000006,"velocity":0.8031496062992126,"duration":0.18359375},{"name":"F3","midi":53,"time":313.00000000000006,"velocity":0.8031496062992126,"duration":0.18359375},{"name":"D3","midi":50,"time":313.00000000000006,"velocity":0.8031496062992126,"duration":0.37109375},{"name":"B3","midi":59,"time":313.18750000000006,"velocity":0.8031496062992126,"duration":0.37109375},{"name":"E3","midi":52,"time":313.37500000000006,"velocity":0.8031496062992126,"duration":0.18359375},{"name":"C3","midi":48,"time":313.37500000000006,"velocity":0.8031496062992126,"duration":0.37109375},{"name":"A3","midi":57,"time":313.56250000000006,"velocity":0.8031496062992126,"duration":0.37109375},{"name":"D3","midi":50,"time":313.75000000000006,"velocity":0.8031496062992126,"duration":0.18359375},{"name":"B2","midi":47,"time":313.75000000000006,"velocity":0.8031496062992126,"duration":0.37109375},{"name":"G#3","midi":56,"time":313.93750000000006,"velocity":0.8031496062992126,"duration":0.18359375},{"name":"C3","midi":48,"time":314.12500000000006,"velocity":0.8031496062992126,"duration":0.546875},{"name":"A2","midi":45,"time":314.12500000000006,"velocity":0.8031496062992126,"duration":0.55859375},{"name":"E3","midi":52,"time":314.31250000000006,"velocity":0.8031496062992126,"duration":0.18359375},{"name":"A3","midi":57,"time":314.50000000000006,"velocity":0.8031496062992126,"duration":0.7421875},{"name":"B2","midi":47,"time":314.68750000000006,"velocity":0.8031496062992126,"duration":0.18359375},{"name":"G#2","midi":44,"time":314.68750000000006,"velocity":0.8031496062992126,"duration":0.18359375},{"name":"C3","midi":48,"time":314.87500000000006,"velocity":0.8031496062992126,"duration":0.37109375},{"name":"A2","midi":45,"time":314.87500000000006,"velocity":0.8031496062992126,"duration":0.18359375},{"name":"E2","midi":40,"time":315.06250000000006,"velocity":0.8031496062992126,"duration":0.18359375},{"name":"D3","midi":50,"time":315.25000000000006,"velocity":0.8031496062992126,"duration":0.37109375},{"name":"G#3","midi":56,"time":315.25000000000006,"velocity":0.8031496062992126,"duration":0.37109375},{"name":"B2","midi":47,"time":315.25000000000006,"velocity":0.8031496062992126,"duration":0.18359375},{"name":"E2","midi":40,"time":315.43750000000006,"velocity":0.8031496062992126,"duration":0.18359375},{"name":"E3","midi":52,"time":315.62500000000006,"velocity":0.8031496062992126,"duration":0.37109375},{"name":"A3","midi":57,"time":315.62500000000006,"velocity":0.8031496062992126,"duration":0.18359375},{"name":"C3","midi":48,"time":315.62500000000006,"velocity":0.8031496062992126,"duration":0.18359375},{"name":"C4","midi":60,"time":315.81250000000006,"velocity":0.8031496062992126,"duration":0.18359375},{"name":"E2","midi":40,"time":315.81250000000006,"velocity":0.8031496062992126,"duration":0.18359375},{"name":"F3","midi":53,"time":316.00000000000006,"velocity":0.8031496062992126,"duration":0.37109375},{"name":"B3","midi":59,"time":316.00000000000006,"velocity":0.8031496062992126,"duration":0.18359375},{"name":"D3","midi":50,"time":316.00000000000006,"velocity":0.8031496062992126,"duration":0.18359375},{"name":"D4","midi":62,"time":316.18750000000006,"velocity":0.8031496062992126,"duration":0.18359375},{"name":"E2","midi":40,"time":316.18750000000006,"velocity":0.8031496062992126,"duration":0.18359375},{"name":"G#3","midi":56,"time":316.37500000000006,"velocity":0.8031496062992126,"duration":0.18359375},{"name":"E3","midi":52,"time":316.37500000000006,"velocity":0.8031496062992126,"duration":1.2890625},{"name":"B3","midi":59,"time":316.56250000000006,"velocity":0.8031496062992126,"duration":0.18359375},{"name":"D4","midi":62,"time":316.75000000000006,"velocity":0.8031496062992126,"duration":0.18359375},{"name":"E2","midi":40,"time":316.75000000000006,"velocity":0.8031496062992126,"duration":0.7421875},{"name":"F4","midi":65,"time":316.93750000000006,"velocity":0.8031496062992126,"duration":0.18359375},{"name":"D4","midi":62,"time":317.12500000000006,"velocity":0.8031496062992126,"duration":0.18359375},{"name":"B3","midi":59,"time":317.31250000000006,"velocity":0.8031496062992126,"duration":0.18359375},{"name":"G#3","midi":56,"time":317.50000000000006,"velocity":0.8031496062992126,"duration":0.18359375},{"name":"B3","midi":59,"time":317.68750000000006,"velocity":0.8031496062992126,"duration":0.18359375},{"name":"E3","midi":52,"time":317.87500000000006,"velocity":0.8031496062992126,"duration":0.2734375},{"name":"D4","midi":62,"time":318.06250000000006,"velocity":0.8031496062992126,"duration":0.18359375},{"name":"C4","midi":60,"time":318.25000000000006,"velocity":0.8031496062992126,"duration":0.18359375},{"name":"B3","midi":59,"time":318.43750000000006,"velocity":0.8031496062992126,"duration":0.18359375},{"name":"C4","midi":60,"time":318.62500000000006,"velocity":0.8031496062992126,"duration":0.18359375},{"name":"A3","midi":57,"time":318.62500000000006,"velocity":0.8031496062992126,"duration":0.55859375},{"name":"E4","midi":64,"time":318.81250000000006,"velocity":0.8031496062992126,"duration":0.18359375},{"name":"A4","midi":69,"time":319.00000000000006,"velocity":0.8031496062992126,"duration":0.7421875},{"name":"B3","midi":59,"time":319.18750000000006,"velocity":0.8031496062992126,"duration":0.18359375},{"name":"G#3","midi":56,"time":319.18750000000006,"velocity":0.8031496062992126,"duration":0.18359375},{"name":"C4","midi":60,"time":319.37500000000006,"velocity":0.8031496062992126,"duration":0.37109375},{"name":"A3","midi":57,"time":319.37500000000006,"velocity":0.8031496062992126,"duration":0.18359375},{"name":"E3","midi":52,"time":319.56250000000006,"velocity":0.8031496062992126,"duration":0.18359375},{"name":"G#4","midi":68,"time":319.75000000000006,"velocity":0.8031496062992126,"duration":0.37109375},{"name":"D4","midi":62,"time":319.75000000000006,"velocity":0.8031496062992126,"duration":0.37109375},{"name":"B3","midi":59,"time":319.75000000000006,"velocity":0.8031496062992126,"duration":0.18359375},{"name":"E3","midi":52,"time":319.93750000000006,"velocity":0.8031496062992126,"duration":0.18359375},{"name":"A4","midi":69,"time":320.12500000000006,"velocity":0.8031496062992126,"duration":0.37109375},{"name":"E4","midi":64,"time":320.12500000000006,"velocity":0.8031496062992126,"duration":0.37109375},{"name":"C4","midi":60,"time":320.12500000000006,"velocity":0.8031496062992126,"duration":0.18359375},{"name":"C5","midi":72,"time":320.31250000000006,"velocity":0.8031496062992126,"duration":0.18359375},{"name":"E3","midi":52,"time":320.31250000000006,"velocity":0.8031496062992126,"duration":0.18359375},{"name":"B4","midi":71,"time":320.50000000000006,"velocity":0.8031496062992126,"duration":0.37109375},{"name":"F4","midi":65,"time":320.50000000000006,"velocity":0.8031496062992126,"duration":0.37109375},{"name":"D4","midi":62,"time":320.50000000000006,"velocity":0.8031496062992126,"duration":0.18359375},{"name":"D5","midi":74,"time":320.68750000000006,"velocity":0.8031496062992126,"duration":0.18359375},{"name":"E3","midi":52,"time":320.68750000000006,"velocity":0.8031496062992126,"duration":0.18359375},{"name":"G#4","midi":68,"time":320.87500000000006,"velocity":0.8031496062992126,"duration":1.1223958333333144},{"name":"E4","midi":64,"time":320.87500000000006,"velocity":0.8031496062992126,"duration":1.4973958333333144},{"name":"B4","midi":71,"time":321.06250000000006,"velocity":0.8031496062992126,"duration":0.7421875},{"name":"D5","midi":74,"time":321.25000000000006,"velocity":0.8031496062992126,"duration":0.37109375},{"name":"E3","midi":52,"time":321.25000000000006,"velocity":0.8031496062992126,"duration":1.6796875},{"name":"F5","midi":77,"time":321.43750000000006,"velocity":0.8031496062992126,"duration":0.18359375},{"name":"D5","midi":74,"time":321.62500000000006,"velocity":0.8031496062992126,"duration":0.18359375},{"name":"B4","midi":71,"time":321.81250000000006,"velocity":0.8031496062992126,"duration":0.18359375},{"name":"G#4","midi":68,"time":322.00000000000006,"velocity":0.8031496062992126,"duration":1.1223958333333144},{"name":"B4","midi":71,"time":322.18750000000006,"velocity":0.8031496062992126,"duration":0.37109375},{"name":"E4","midi":64,"time":322.37500000000006,"velocity":0.8031496062992126,"duration":0.7421875},{"name":"D5","midi":74,"time":322.56250000000006,"velocity":0.8031496062992126,"duration":0.18359375},{"name":"C5","midi":72,"time":322.75000000000006,"velocity":0.8031496062992126,"duration":0.18359375},{"name":"B4","midi":71,"time":322.93750000000006,"velocity":0.8031496062992126,"duration":0.18359375},{"name":"C5","midi":72,"time":323.12500000000006,"velocity":0.8031496062992126,"duration":0.7421875},{"name":"A4","midi":69,"time":323.12500000000006,"velocity":0.8031496062992126,"duration":0.55859375},{"name":"E5","midi":76,"time":323.31250000000006,"velocity":0.8031496062992126,"duration":0.9375},{"name":"A5","midi":81,"time":323.50000000000006,"velocity":0.8031496062992126,"duration":0.7421875},{"name":"B4","midi":71,"time":323.68750000000006,"velocity":0.8031496062992126,"duration":0.18359375},{"name":"G#4","midi":68,"time":323.68750000000006,"velocity":0.8031496062992126,"duration":0.18359375},{"name":"C5","midi":72,"time":323.87500000000006,"velocity":0.8031496062992126,"duration":0.37109375},{"name":"A4","midi":69,"time":323.87500000000006,"velocity":0.8031496062992126,"duration":0.37109375},{"name":"E4","midi":64,"time":324.06250000000006,"velocity":0.8031496062992126,"duration":0.18359375},{"name":"G#5","midi":80,"time":324.25000000000006,"velocity":0.8031496062992126,"duration":0.37109375},{"name":"D5","midi":74,"time":324.25000000000006,"velocity":0.8031496062992126,"duration":0.37109375},{"name":"B4","midi":71,"time":324.25000000000006,"velocity":0.8031496062992126,"duration":0.37109375},{"name":"E4","midi":64,"time":324.43750000000006,"velocity":0.8031496062992126,"duration":0.18359375},{"name":"A5","midi":81,"time":324.62500000000006,"velocity":0.8031496062992126,"duration":0.18359375},{"name":"E5","midi":76,"time":324.62500000000006,"velocity":0.8031496062992126,"duration":0.37109375},{"name":"C5","midi":72,"time":324.62500000000006,"velocity":0.8031496062992126,"duration":0.37109375},{"name":"C6","midi":84,"time":324.81250000000006,"velocity":0.8031496062992126,"duration":0.18359375},{"name":"E4","midi":64,"time":324.81250000000006,"velocity":0.8031496062992126,"duration":0.18359375},{"name":"B5","midi":83,"time":325.00000000000006,"velocity":0.8031496062992126,"duration":0.18359375},{"name":"F5","midi":77,"time":325.00000000000006,"velocity":0.8031496062992126,"duration":0.37109375},{"name":"D5","midi":74,"time":325.00000000000006,"velocity":0.8031496062992126,"duration":0.37109375},{"name":"A5","midi":81,"time":325.18750000000006,"velocity":0.8031496062992126,"duration":0.18359375},{"name":"E4","midi":64,"time":325.18750000000006,"velocity":0.8031496062992126,"duration":0.18359375},{"name":"G#5","midi":80,"time":325.37500000000006,"velocity":0.8031496062992126,"duration":0.18359375},{"name":"E5","midi":76,"time":325.37500000000006,"velocity":0.8031496062992126,"duration":0.7421875},{"name":"F#5","midi":78,"time":325.56250000000006,"velocity":0.8031496062992126,"duration":0.18359375},{"name":"G#5","midi":80,"time":325.75000000000006,"velocity":0.8031496062992126,"duration":0.37109375},{"name":"E4","midi":64,"time":325.75000000000006,"velocity":0.8031496062992126,"duration":0.7421875},{"name":"B5","midi":83,"time":325.93750000000006,"velocity":0.8031496062992126,"duration":0.18359375},{"name":"A5","midi":81,"time":326.12500000000006,"velocity":0.8031496062992126,"duration":0.18359375},{"name":"E5","midi":76,"time":326.12500000000006,"velocity":0.8031496062992126,"duration":0.7421875},{"name":"G#5","midi":80,"time":326.31250000000006,"velocity":0.8031496062992126,"duration":0.18359375},{"name":"A5","midi":81,"time":326.50000000000006,"velocity":0.8031496062992126,"duration":0.37109375},{"name":"E4","midi":64,"time":326.50000000000006,"velocity":0.8031496062992126,"duration":0.7421875},{"name":"C6","midi":84,"time":326.68750000000006,"velocity":0.8031496062992126,"duration":0.18359375},{"name":"G#5","midi":80,"time":326.87500000000006,"velocity":0.8031496062992126,"duration":0.18359375},{"name":"D5","midi":74,"time":326.87500000000006,"velocity":0.8031496062992126,"duration":0.7421875},{"name":"F#5","midi":78,"time":327.06250000000006,"velocity":0.8031496062992126,"duration":0.18359375},{"name":"G#5","midi":80,"time":327.25000000000006,"velocity":0.8031496062992126,"duration":0.37109375},{"name":"E4","midi":64,"time":327.25000000000006,"velocity":0.8031496062992126,"duration":0.7421875},{"name":"B5","midi":83,"time":327.43750000000006,"velocity":0.8031496062992126,"duration":0.18359375},{"name":"F#5","midi":78,"time":327.62500000000006,"velocity":0.8031496062992126,"duration":0.18359375},{"name":"C5","midi":72,"time":327.62500000000006,"velocity":0.8031496062992126,"duration":0.7421875},{"name":"E5","midi":76,"time":327.81250000000006,"velocity":0.8031496062992126,"duration":0.18359375},{"name":"F#5","midi":78,"time":328.00000000000006,"velocity":0.8031496062992126,"duration":0.37109375},{"name":"E4","midi":64,"time":328.00000000000006,"velocity":0.8031496062992126,"duration":0.7421875},{"name":"A5","midi":81,"time":328.18750000000006,"velocity":0.8031496062992126,"duration":0.18359375},{"name":"F5","midi":77,"time":328.37500000000006,"velocity":0.8031496062992126,"duration":0.18359375},{"name":"D5","midi":74,"time":328.37500000000006,"velocity":0.8031496062992126,"duration":0.7421875},{"name":"E5","midi":76,"time":328.56250000000006,"velocity":0.8031496062992126,"duration":0.18359375},{"name":"F5","midi":77,"time":328.75000000000006,"velocity":0.8031496062992126,"duration":0.37109375},{"name":"E4","midi":64,"time":328.75000000000006,"velocity":0.8031496062992126,"duration":0.7421875},{"name":"B5","midi":83,"time":328.93750000000006,"velocity":0.8031496062992126,"duration":0.18359375},{"name":"E5","midi":76,"time":329.12500000000006,"velocity":0.8031496062992126,"duration":0.18359375},{"name":"C5","midi":72,"time":329.12500000000006,"velocity":0.8031496062992126,"duration":0.7421875},{"name":"D5","midi":74,"time":329.31250000000006,"velocity":0.8031496062992126,"duration":0.18359375},{"name":"E5","midi":76,"time":329.50000000000006,"velocity":0.8031496062992126,"duration":0.37109375},{"name":"E4","midi":64,"time":329.50000000000006,"velocity":0.8031496062992126,"duration":0.7421875},{"name":"A5","midi":81,"time":329.68750000000006,"velocity":0.8031496062992126,"duration":0.18359375},{"name":"D5","midi":74,"time":329.87500000000006,"velocity":0.8031496062992126,"duration":0.18359375},{"name":"B4","midi":71,"time":329.87500000000006,"velocity":0.8031496062992126,"duration":0.7421875},{"name":"C5","midi":72,"time":330.06250000000006,"velocity":0.8031496062992126,"duration":0.18359375},{"name":"D5","midi":74,"time":330.25000000000006,"velocity":0.8031496062992126,"duration":0.37109375},{"name":"E4","midi":64,"time":330.25000000000006,"velocity":0.8031496062992126,"duration":0.7421875},{"name":"G#5","midi":80,"time":330.43750000000006,"velocity":0.8031496062992126,"duration":0.18359375},{"name":"E5","midi":76,"time":330.62500000000006,"velocity":0.8031496062992126,"duration":0.18359375},{"name":"C5","midi":72,"time":330.62500000000006,"velocity":0.8031496062992126,"duration":0.7421875},{"name":"D5","midi":74,"time":330.81250000000006,"velocity":0.8031496062992126,"duration":0.18359375},{"name":"E5","midi":76,"time":331.00000000000006,"velocity":0.8031496062992126,"duration":0.37109375},{"name":"E4","midi":64,"time":331.00000000000006,"velocity":0.8031496062992126,"duration":0.7421875},{"name":"A5","midi":81,"time":331.18750000000006,"velocity":0.8031496062992126,"duration":0.18359375},{"name":"D5","midi":74,"time":331.37500000000006,"velocity":0.8031496062992126,"duration":0.18359375},{"name":"B4","midi":71,"time":331.37500000000006,"velocity":0.8031496062992126,"duration":0.7421875},{"name":"C5","midi":72,"time":331.56250000000006,"velocity":0.8031496062992126,"duration":0.18359375},{"name":"D5","midi":74,"time":331.75000000000006,"velocity":0.8031496062992126,"duration":0.37109375},{"name":"E4","midi":64,"time":331.75000000000006,"velocity":0.8031496062992126,"duration":0.7421875},{"name":"G#5","midi":80,"time":331.93750000000006,"velocity":0.8031496062992126,"duration":0.18359375},{"name":"C5","midi":72,"time":332.12500000000006,"velocity":0.8031496062992126,"duration":0.18359375},{"name":"A4","midi":69,"time":332.12500000000006,"velocity":0.8031496062992126,"duration":0.7421875},{"name":"B4","midi":71,"time":332.31250000000006,"velocity":0.8031496062992126,"duration":0.18359375},{"name":"C5","midi":72,"time":332.50000000000006,"velocity":0.8031496062992126,"duration":0.37109375},{"name":"E4","midi":64,"time":332.50000000000006,"velocity":0.8031496062992126,"duration":0.7421875},{"name":"F#5","midi":78,"time":332.68750000000006,"velocity":0.8031496062992126,"duration":0.18359375},{"name":"D5","midi":74,"time":332.87500000000006,"velocity":0.8031496062992126,"duration":0.18359375},{"name":"B4","midi":71,"time":332.87500000000006,"velocity":0.8031496062992126,"duration":0.7421875},{"name":"C5","midi":72,"time":333.06250000000006,"velocity":0.8031496062992126,"duration":0.18359375},{"name":"D5","midi":74,"time":333.25000000000006,"velocity":0.8031496062992126,"duration":0.18359375},{"name":"E4","midi":64,"time":333.25000000000006,"velocity":0.8031496062992126,"duration":0.7421875},{"name":"G#5","midi":80,"time":333.43750000000006,"velocity":0.8031496062992126,"duration":0.18359375},{"name":"C5","midi":72,"time":333.62500000000006,"velocity":0.8031496062992126,"duration":0.18359375},{"name":"A4","midi":69,"time":333.62500000000006,"velocity":0.8031496062992126,"duration":0.7421875},{"name":"B4","midi":71,"time":333.81250000000006,"velocity":0.8031496062992126,"duration":0.18359375},{"name":"C5","midi":72,"time":334.00000000000006,"velocity":0.8031496062992126,"duration":0.18359375},{"name":"E4","midi":64,"time":334.00000000000006,"velocity":0.8031496062992126,"duration":0.37109375},{"name":"F#5","midi":78,"time":334.18750000000006,"velocity":0.8031496062992126,"duration":0.18359375},{"name":"B4","midi":71,"time":334.37500000000006,"velocity":0.8031496062992126,"duration":0.18359375},{"name":"G#4","midi":68,"time":334.37500000000006,"velocity":0.8031496062992126,"duration":0.37109375},{"name":"A4","midi":69,"time":334.56250000000006,"velocity":0.8031496062992126,"duration":0.18359375},{"name":"B4","midi":71,"time":334.75000000000006,"velocity":0.8031496062992126,"duration":0.18359375},{"name":"E4","midi":64,"time":334.75000000000006,"velocity":0.8031496062992126,"duration":0.74609375},{"name":"E5","midi":76,"time":334.93750000000006,"velocity":0.8031496062992126,"duration":0.18359375},{"name":"D5","midi":74,"time":335.12500000000006,"velocity":0.8031496062992126,"duration":0.18359375},{"name":"B4","midi":71,"time":335.31250000000006,"velocity":0.8031496062992126,"duration":0.18359375},{"name":"C5","midi":72,"time":335.50000000000006,"velocity":0.8031496062992126,"duration":0.18359375},{"name":"E4","midi":64,"time":335.50000000000006,"velocity":0.8031496062992126,"duration":0.18359375},{"name":"A4","midi":69,"time":335.68750000000006,"velocity":0.8031496062992126,"duration":0.18359375},{"name":"C4","midi":60,"time":335.68750000000006,"velocity":0.8031496062992126,"duration":0.18359375},{"name":"B4","midi":71,"time":335.87500000000006,"velocity":0.8031496062992126,"duration":0.18359375},{"name":"D4","midi":62,"time":335.87500000000006,"velocity":0.8031496062992126,"duration":0.18359375},{"name":"G#4","midi":68,"time":336.06250000000006,"velocity":0.8031496062992126,"duration":0.18359375},{"name":"B3","midi":59,"time":336.06250000000006,"velocity":0.8031496062992126,"duration":0.18359375},{"name":"A4","midi":69,"time":336.25000000000006,"velocity":0.8031496062992126,"duration":0.18359375},{"name":"C4","midi":60,"time":336.25000000000006,"velocity":0.8031496062992126,"duration":0.18359375},{"name":"F#4","midi":66,"time":336.43750000000006,"velocity":0.8031496062992126,"duration":0.18359375},{"name":"A3","midi":57,"time":336.43750000000006,"velocity":0.8031496062992126,"duration":0.18359375},{"name":"G#4","midi":68,"time":336.62500000000006,"velocity":0.8031496062992126,"duration":0.20833333333331439},{"name":"B3","midi":59,"time":336.62500000000006,"velocity":0.8031496062992126,"duration":0.18359375},{"name":"F#4","midi":66,"time":336.81250000000006,"velocity":0.8031496062992126,"duration":0.18359375},{"name":"A3","midi":57,"time":336.81250000000006,"velocity":0.8031496062992126,"duration":0.18359375},{"name":"G#4","midi":68,"time":337.00000000000006,"velocity":0.8031496062992126,"duration":0.18359375},{"name":"B3","midi":59,"time":337.00000000000006,"velocity":0.8031496062992126,"duration":0.18359375},{"name":"B4","midi":71,"time":337.18750000000006,"velocity":0.8031496062992126,"duration":0.18359375},{"name":"D4","midi":62,"time":337.18750000000006,"velocity":0.8031496062992126,"duration":0.18359375},{"name":"E4","midi":64,"time":337.37500000000006,"velocity":0.8031496062992126,"duration":0.20833333333331439},{"name":"G#3","midi":56,"time":337.37500000000006,"velocity":0.8031496062992126,"duration":0.18359375},{"name":"D#4","midi":63,"time":337.56250000000006,"velocity":0.8031496062992126,"duration":0.18359375},{"name":"F#3","midi":54,"time":337.56250000000006,"velocity":0.8031496062992126,"duration":0.18359375},{"name":"E4","midi":64,"time":337.75000000000006,"velocity":0.8031496062992126,"duration":0.18359375},{"name":"G#3","midi":56,"time":337.75000000000006,"velocity":0.8031496062992126,"duration":0.18359375},{"name":"G#4","midi":68,"time":337.93750000000006,"velocity":0.8031496062992126,"duration":0.18359375},{"name":"B3","midi":59,"time":337.93750000000006,"velocity":0.8031496062992126,"duration":0.18359375},{"name":"D4","midi":62,"time":338.12500000000006,"velocity":0.8031496062992126,"duration":0.20833333333331439},{"name":"F3","midi":53,"time":338.12500000000006,"velocity":0.8031496062992126,"duration":0.18359375},{"name":"C4","midi":60,"time":338.31250000000006,"velocity":0.8031496062992126,"duration":0.18359375},{"name":"E3","midi":52,"time":338.31250000000006,"velocity":0.8031496062992126,"duration":0.18359375},{"name":"D4","midi":62,"time":338.50000000000006,"velocity":0.8031496062992126,"duration":0.18359375},{"name":"F3","midi":53,"time":338.50000000000006,"velocity":0.8031496062992126,"duration":0.18359375},{"name":"F4","midi":65,"time":338.68750000000006,"velocity":0.8031496062992126,"duration":0.18359375},{"name":"A3","midi":57,"time":338.68750000000006,"velocity":0.8031496062992126,"duration":0.18359375},{"name":"B3","midi":59,"time":338.87500000000006,"velocity":0.8031496062992126,"duration":0.20833333333331439},{"name":"D3","midi":50,"time":338.87500000000006,"velocity":0.8031496062992126,"duration":0.18359375},{"name":"A3","midi":57,"time":339.06250000000006,"velocity":0.8031496062992126,"duration":0.18359375},{"name":"C3","midi":48,"time":339.06250000000006,"velocity":0.8031496062992126,"duration":0.18359375},{"name":"B3","midi":59,"time":339.25000000000006,"velocity":0.8031496062992126,"duration":0.18359375},{"name":"D3","midi":50,"time":339.25000000000006,"velocity":0.8031496062992126,"duration":0.18359375},{"name":"D4","midi":62,"time":339.43750000000006,"velocity":0.8031496062992126,"duration":0.18359375},{"name":"F3","midi":53,"time":339.43750000000006,"velocity":0.8031496062992126,"duration":0.18359375},{"name":"G#3","midi":56,"time":339.62500000000006,"velocity":0.8031496062992126,"duration":0.234375},{"name":"B2","midi":47,"time":339.62500000000006,"velocity":0.8031496062992126,"duration":0.18359375},{"name":"F#3","midi":54,"time":339.81250000000006,"velocity":0.8031496062992126,"duration":0.18359375},{"name":"A2","midi":45,"time":339.81250000000006,"velocity":0.8031496062992126,"duration":0.18359375},{"name":"G#3","midi":56,"time":340.00000000000006,"velocity":0.8031496062992126,"duration":0.18359375},{"name":"B2","midi":47,"time":340.00000000000006,"velocity":0.8031496062992126,"duration":0.18359375},{"name":"B3","midi":59,"time":340.18750000000006,"velocity":0.8031496062992126,"duration":0.18359375},{"name":"D3","midi":50,"time":340.18750000000006,"velocity":0.8031496062992126,"duration":0.18359375},{"name":"E3","midi":52,"time":340.37500000000006,"velocity":0.8031496062992126,"duration":0.9375},{"name":"G#2","midi":44,"time":340.37500000000006,"velocity":0.8031496062992126,"duration":0.18359375},{"name":"F#2","midi":42,"time":340.56250000000006,"velocity":0.8031496062992126,"duration":0.18359375},{"name":"G#2","midi":44,"time":340.75000000000006,"velocity":0.8031496062992126,"duration":0.18359375},{"name":"B2","midi":47,"time":340.93750000000006,"velocity":0.8031496062992126,"duration":0.18359375},{"name":"E2","midi":40,"time":341.12500000000006,"velocity":0.8031496062992126,"duration":2.24609375},{"name":"D3","midi":50,"time":341.31250000000006,"velocity":0.8031496062992126,"duration":0.18359375},{"name":"C3","midi":48,"time":341.50000000000006,"velocity":0.8031496062992126,"duration":0.18359375},{"name":"B2","midi":47,"time":341.68750000000006,"velocity":0.8031496062992126,"duration":0.18359375},{"name":"F3","midi":53,"time":341.87500000000006,"velocity":0.8031496062992126,"duration":0.18359375},{"name":"D3","midi":50,"time":342.06250000000006,"velocity":0.8031496062992126,"duration":0.18359375},{"name":"C3","midi":48,"time":342.25000000000006,"velocity":0.8031496062992126,"duration":0.18359375},{"name":"B2","midi":47,"time":342.43750000000006,"velocity":0.8031496062992126,"duration":0.18359375},{"name":"G#3","midi":56,"time":342.62500000000006,"velocity":0.8031496062992126,"duration":0.18359375},{"name":"D3","midi":50,"time":342.81250000000006,"velocity":0.8031496062992126,"duration":0.18359375},{"name":"C3","midi":48,"time":343.00000000000006,"velocity":0.8031496062992126,"duration":0.18359375},{"name":"B2","midi":47,"time":343.18750000000006,"velocity":0.8031496062992126,"duration":0.18359375},{"name":"B3","midi":59,"time":343.37500000000006,"velocity":0.8031496062992126,"duration":0.7421875},{"name":"E2","midi":40,"time":343.37500000000006,"velocity":0.8031496062992126,"duration":2.24609375},{"name":"F3","midi":53,"time":343.56250000000006,"velocity":0.8031496062992126,"duration":0.18359375},{"name":"E3","midi":52,"time":343.75000000000006,"velocity":0.8031496062992126,"duration":0.18359375},{"name":"D3","midi":50,"time":343.93750000000006,"velocity":0.8031496062992126,"duration":0.18359375},{"name":"G#3","midi":56,"time":344.12500000000006,"velocity":0.8031496062992126,"duration":0.18359375},{"name":"F3","midi":53,"time":344.31250000000006,"velocity":0.8031496062992126,"duration":0.18359375},{"name":"E3","midi":52,"time":344.50000000000006,"velocity":0.8031496062992126,"duration":0.18359375},{"name":"D3","midi":50,"time":344.68750000000006,"velocity":0.8031496062992126,"duration":0.18359375},{"name":"B3","midi":59,"time":344.87500000000006,"velocity":0.8031496062992126,"duration":0.18359375},{"name":"F3","midi":53,"time":345.06250000000006,"velocity":0.8031496062992126,"duration":0.18359375},{"name":"E3","midi":52,"time":345.25000000000006,"velocity":0.8031496062992126,"duration":0.18359375},{"name":"D3","midi":50,"time":345.43750000000006,"velocity":0.8031496062992126,"duration":0.18359375},{"name":"D4","midi":62,"time":345.62500000000006,"velocity":0.8031496062992126,"duration":0.7421875},{"name":"E2","midi":40,"time":345.62500000000006,"velocity":0.8031496062992126,"duration":2.2434895833333144},{"name":"G#3","midi":56,"time":345.81250000000006,"velocity":0.8031496062992126,"duration":0.18359375},{"name":"F#3","midi":54,"time":346.00000000000006,"velocity":0.8031496062992126,"duration":0.18359375},{"name":"E3","midi":52,"time":346.18750000000006,"velocity":0.8031496062992126,"duration":0.18359375},{"name":"B3","midi":59,"time":346.37500000000006,"velocity":0.8031496062992126,"duration":0.18359375},{"name":"G#3","midi":56,"time":346.56250000000006,"velocity":0.8031496062992126,"duration":0.18359375},{"name":"F#3","midi":54,"time":346.75000000000006,"velocity":0.8031496062992126,"duration":0.18359375},{"name":"E3","midi":52,"time":346.93750000000006,"velocity":0.8031496062992126,"duration":0.18359375},{"name":"D4","midi":62,"time":347.12500000000006,"velocity":0.8031496062992126,"duration":0.18359375},{"name":"B3","midi":59,"time":347.31250000000006,"velocity":0.8031496062992126,"duration":0.18359375},{"name":"A3","midi":57,"time":347.50000000000006,"velocity":0.8031496062992126,"duration":0.18359375},{"name":"G#3","midi":56,"time":347.68750000000006,"velocity":0.8031496062992126,"duration":0.18359375},{"name":"F4","midi":65,"time":347.87500000000006,"velocity":0.8031496062992126,"duration":0.18359375},{"name":"E4","midi":64,"time":348.06250000000006,"velocity":0.8031496062992126,"duration":0.18359375},{"name":"D4","midi":62,"time":348.25000000000006,"velocity":0.8031496062992126,"duration":0.18359375},{"name":"C4","midi":60,"time":348.43750000000006,"velocity":0.8031496062992126,"duration":0.18359375},{"name":"B3","midi":59,"time":348.62500000000006,"velocity":0.8031496062992126,"duration":0.18359375},{"name":"A3","midi":57,"time":348.81250000000006,"velocity":0.8031496062992126,"duration":0.18359375},{"name":"G#3","midi":56,"time":349.00000000000006,"velocity":0.8031496062992126,"duration":0.18359375},{"name":"F#3","midi":54,"time":349.18750000000006,"velocity":0.8031496062992126,"duration":0.18359375},{"name":"E3","midi":52,"time":349.37500000000006,"velocity":0.8031496062992126,"duration":0.18359375},{"name":"D3","midi":50,"time":349.56250000000006,"velocity":0.8031496062992126,"duration":0.18359375},{"name":"C3","midi":48,"time":349.75000000000006,"velocity":0.8031496062992126,"duration":0.18359375},{"name":"B2","midi":47,"time":349.93750000000006,"velocity":0.8031496062992126,"duration":0.18359375},{"name":"A2","midi":45,"time":350.12500000000006,"velocity":0.8031496062992126,"duration":0.9375},{"name":"E5","midi":76,"time":350.50000000000006,"velocity":0.8031496062992126,"duration":0.37109375},{"name":"A4","midi":69,"time":350.87500000000006,"velocity":0.8031496062992126,"duration":0.37109375},{"name":"A5","midi":81,"time":351.25000000000006,"velocity":0.8031496062992126,"duration":0.37109375},{"name":"A3","midi":57,"time":351.25000000000006,"velocity":0.8031496062992126,"duration":0.37109375},{"name":"C4","midi":60,"time":351.25000000000006,"velocity":0.8031496062992126,"duration":0.37109375},{"name":"G5","midi":79,"time":351.62500000000006,"velocity":0.8031496062992126,"duration":0.18359375},{"name":"D4","midi":62,"time":351.62500000000006,"velocity":0.8031496062992126,"duration":0.37109375},{"name":"B3","midi":59,"time":351.62500000000006,"velocity":0.8031496062992126,"duration":0.37109375},{"name":"E5","midi":76,"time":351.81250000000006,"velocity":0.8031496062992126,"duration":0.18359375},{"name":"F5","midi":77,"time":352.00000000000006,"velocity":0.8031496062992126,"duration":0.18359375},{"name":"G3","midi":55,"time":352.00000000000006,"velocity":0.8031496062992126,"duration":0.37109375},{"name":"B3","midi":59,"time":352.00000000000006,"velocity":0.8031496062992126,"duration":0.37109375},{"name":"D5","midi":74,"time":352.18750000000006,"velocity":0.8031496062992126,"duration":0.18359375},{"name":"E5","midi":76,"time":352.37500000000006,"velocity":0.8031496062992126,"duration":0.18359375},{"name":"C4","midi":60,"time":352.37500000000006,"velocity":0.8031496062992126,"duration":0.7421875},{"name":"B4","midi":71,"time":352.56250000000006,"velocity":0.8031496062992126,"duration":0.18359375},{"name":"C5","midi":72,"time":352.75000000000006,"velocity":0.8031496062992126,"duration":0.18359375},{"name":"C3","midi":48,"time":352.75000000000006,"velocity":0.8031496062992126,"duration":0.546875},{"name":"G#4","midi":68,"time":352.93750000000006,"velocity":0.8031496062992126,"duration":0.18359375},{"name":"A4","midi":69,"time":353.12500000000006,"velocity":0.8031496062992126,"duration":0.18359375},{"name":"C5","midi":72,"time":353.31250000000006,"velocity":0.8031496062992126,"duration":0.18359375},{"name":"F5","midi":77,"time":353.50000000000006,"velocity":0.8031496062992126,"duration":0.18359375},{"name":"A4","midi":69,"time":353.50000000000006,"velocity":0.8031496062992126,"duration":0.37109375},{"name":"D4","midi":62,"time":353.50000000000006,"velocity":0.8031496062992126,"duration":0.37109375},{"name":"D5","midi":74,"time":353.68750000000006,"velocity":0.8031496062992126,"duration":0.18359375},{"name":"E5","midi":76,"time":353.87500000000006,"velocity":0.8031496062992126,"duration":0.18359375},{"name":"C4","midi":60,"time":353.87500000000006,"velocity":0.8031496062992126,"duration":0.37109375},{"name":"A4","midi":69,"time":353.87500000000006,"velocity":0.8031496062992126,"duration":0.37109375},{"name":"C5","midi":72,"time":354.06250000000006,"velocity":0.8031496062992126,"duration":0.18359375},{"name":"D5","midi":74,"time":354.25000000000006,"velocity":0.8031496062992126,"duration":0.18359375},{"name":"B3","midi":59,"time":354.25000000000006,"velocity":0.8031496062992126,"duration":0.37109375},{"name":"G#4","midi":68,"time":354.25000000000006,"velocity":0.8031496062992126,"duration":0.37109375},{"name":"B4","midi":71,"time":354.43750000000006,"velocity":0.8031496062992126,"duration":0.18359375},{"name":"C5","midi":72,"time":354.62500000000006,"velocity":0.8031496062992126,"duration":0.18359375},{"name":"A4","midi":69,"time":354.62500000000006,"velocity":0.8031496062992126,"duration":0.7421875},{"name":"A3","midi":57,"time":354.62500000000006,"velocity":0.8031496062992126,"duration":0.9375},{"name":"B4","midi":71,"time":354.81250000000006,"velocity":0.8031496062992126,"duration":0.18359375},{"name":"C5","midi":72,"time":355.00000000000006,"velocity":0.8031496062992126,"duration":0.18359375},{"name":"G#4","midi":68,"time":355.18750000000006,"velocity":0.8031496062992126,"duration":0.18359375},{"name":"A4","midi":69,"time":355.37500000000006,"velocity":0.8031496062992126,"duration":0.18359375},{"name":"C5","midi":72,"time":355.56250000000006,"velocity":0.8031496062992126,"duration":0.18359375},{"name":"E5","midi":76,"time":355.75000000000006,"velocity":0.8031496062992126,"duration":0.18359375},{"name":"C4","midi":60,"time":355.75000000000006,"velocity":0.8031496062992126,"duration":0.37109375},{"name":"A4","midi":69,"time":355.75000000000006,"velocity":0.8031496062992126,"duration":0.37109375},{"name":"C5","midi":72,"time":355.93750000000006,"velocity":0.8031496062992126,"duration":0.18359375},{"name":"D5","midi":74,"time":356.12500000000006,"velocity":0.8031496062992126,"duration":0.18359375},{"name":"B3","midi":59,"time":356.12500000000006,"velocity":0.8031496062992126,"duration":0.37109375},{"name":"G#4","midi":68,"time":356.12500000000006,"velocity":0.8031496062992126,"duration":0.37109375},{"name":"B4","midi":71,"time":356.31250000000006,"velocity":0.8031496062992126,"duration":0.18359375},{"name":"C5","midi":72,"time":356.50000000000006,"velocity":0.8031496062992126,"duration":0.18359375},{"name":"E4","midi":64,"time":356.50000000000006,"velocity":0.8031496062992126,"duration":0.37109375},{"name":"A3","midi":57,"time":356.50000000000006,"velocity":0.8031496062992126,"duration":0.37109375},{"name":"A4","midi":69,"time":356.68750000000006,"velocity":0.8031496062992126,"duration":0.18359375},{"name":"B4","midi":71,"time":356.87500000000006,"velocity":0.8031496062992126,"duration":0.18359375},{"name":"D4","midi":62,"time":356.87500000000006,"velocity":0.8031496062992126,"duration":0.7421875},{"name":"G#3","midi":56,"time":356.87500000000006,"velocity":0.8031496062992126,"duration":0.37109375},{"name":"A4","midi":69,"time":357.06250000000006,"velocity":0.8031496062992126,"duration":0.18359375},{"name":"B4","midi":71,"time":357.25000000000006,"velocity":0.8031496062992126,"duration":0.18359375},{"name":"E3","midi":52,"time":357.25000000000006,"velocity":0.8031496062992126,"duration":0.37109375},{"name":"G#4","midi":68,"time":357.43750000000006,"velocity":0.8031496062992126,"duration":0.18359375},{"name":"A4","midi":69,"time":357.62500000000006,"velocity":0.8031496062992126,"duration":0.18359375},{"name":"C4","midi":60,"time":357.62500000000006,"velocity":0.8031496062992126,"duration":0.37109375},{"name":"F3","midi":53,"time":357.62500000000006,"velocity":0.8031496062992126,"duration":0.37109375},{"name":"G#4","midi":68,"time":357.81250000000006,"velocity":0.8031496062992126,"duration":0.18359375},{"name":"A4","midi":69,"time":358.00000000000006,"velocity":0.8031496062992126,"duration":0.18359375},{"name":"B3","midi":59,"time":358.00000000000006,"velocity":0.8031496062992126,"duration":0.37109375},{"name":"A3","midi":57,"time":358.00000000000006,"velocity":0.8031496062992126,"duration":0.7421875},{"name":"D3","midi":50,"time":358.00000000000006,"velocity":0.8031496062992126,"duration":0.37109375},{"name":"F5","midi":77,"time":358.18750000000006,"velocity":0.8031496062992126,"duration":0.18359375},{"name":"E5","midi":76,"time":358.37500000000006,"velocity":0.8031496062992126,"duration":0.18359375},{"name":"C4","midi":60,"time":358.37500000000006,"velocity":0.8031496062992126,"duration":0.37109375},{"name":"E3","midi":52,"time":358.37500000000006,"velocity":0.8031496062992126,"duration":0.7421875},{"name":"C5","midi":72,"time":358.56250000000006,"velocity":0.8031496062992126,"duration":0.18359375},{"name":"D5","midi":74,"time":358.75000000000006,"velocity":0.8031496062992126,"duration":0.18359375},{"name":"B3","midi":59,"time":358.75000000000006,"velocity":0.8031496062992126,"duration":0.37109375},{"name":"G#3","midi":56,"time":358.75000000000006,"velocity":0.8031496062992126,"duration":0.37109375},{"name":"B4","midi":71,"time":358.93750000000006,"velocity":0.8031496062992126,"duration":0.18359375},{"name":"C5","midi":72,"time":359.12500000000006,"velocity":0.8031496062992126,"duration":0.18359375},{"name":"A3","midi":57,"time":359.12500000000006,"velocity":0.8031496062992126,"duration":0.37109375},{"name":"B4","midi":71,"time":359.31250000000006,"velocity":0.8031496062992126,"duration":0.18359375},{"name":"A4","midi":69,"time":359.50000000000006,"velocity":0.8031496062992126,"duration":0.18359375},{"name":"E3","midi":52,"time":359.50000000000006,"velocity":0.8031496062992126,"duration":0.37109375},{"name":"G#4","midi":68,"time":359.68750000000006,"velocity":0.8031496062992126,"duration":0.18359375},{"name":"A4","midi":69,"time":359.87500000000006,"velocity":0.8031496062992126,"duration":0.18359375},{"name":"A2","midi":45,"time":359.87500000000006,"velocity":0.8031496062992126,"duration":0.46875},{"name":"B4","midi":71,"time":360.06250000000006,"velocity":0.8031496062992126,"duration":0.18359375},{"name":"C5","midi":72,"time":360.25000000000006,"velocity":0.8031496062992126,"duration":0.18359375},{"name":"A3","midi":57,"time":360.25000000000006,"velocity":0.8031496062992126,"duration":0.37109375},{"name":"F5","midi":77,"time":360.43750000000006,"velocity":0.8031496062992126,"duration":0.18359375},{"name":"E5","midi":76,"time":360.62500000000006,"velocity":0.8031496062992126,"duration":0.18359375},{"name":"G3","midi":55,"time":360.62500000000006,"velocity":0.8031496062992126,"duration":0.18359375},{"name":"C5","midi":72,"time":360.81250000000006,"velocity":0.8031496062992126,"duration":0.18359375},{"name":"E3","midi":52,"time":360.81250000000006,"velocity":0.8031496062992126,"duration":0.18359375},{"name":"D5","midi":74,"time":361.00000000000006,"velocity":0.8031496062992126,"duration":0.18359375},{"name":"F3","midi":53,"time":361.00000000000006,"velocity":0.8031496062992126,"duration":0.18359375},{"name":"B4","midi":71,"time":361.18750000000006,"velocity":0.8031496062992126,"duration":0.18359375},{"name":"D3","midi":50,"time":361.18750000000006,"velocity":0.8031496062992126,"duration":0.18359375},{"name":"C5","midi":72,"time":361.37500000000006,"velocity":0.8031496062992126,"duration":0.18359375},{"name":"E3","midi":52,"time":361.37500000000006,"velocity":0.8031496062992126,"duration":0.18359375},{"name":"B4","midi":71,"time":361.56250000000006,"velocity":0.8031496062992126,"duration":0.18359375},{"name":"D3","midi":50,"time":361.56250000000006,"velocity":0.8031496062992126,"duration":0.18359375},{"name":"A4","midi":69,"time":361.75000000000006,"velocity":0.8031496062992126,"duration":0.18359375},{"name":"C3","midi":48,"time":361.75000000000006,"velocity":0.8031496062992126,"duration":0.18359375},{"name":"G#4","midi":68,"time":361.93750000000006,"velocity":0.8031496062992126,"duration":0.18359375},{"name":"E3","midi":52,"time":361.93750000000006,"velocity":0.8031496062992126,"duration":0.18359375},{"name":"A4","midi":69,"time":362.12500000000006,"velocity":0.8031496062992126,"duration":0.18359375},{"name":"A2","midi":45,"time":362.12500000000006,"velocity":0.8031496062992126,"duration":0.18359375},{"name":"B4","midi":71,"time":362.31250000000006,"velocity":0.8031496062992126,"duration":0.18359375},{"name":"C3","midi":48,"time":362.31250000000006,"velocity":0.8031496062992126,"duration":0.18359375},{"name":"C5","midi":72,"time":362.50000000000006,"velocity":0.8031496062992126,"duration":0.18359375},{"name":"F3","midi":53,"time":362.50000000000006,"velocity":0.8031496062992126,"duration":0.18359375},{"name":"D5","midi":74,"time":362.68750000000006,"velocity":0.8031496062992126,"duration":0.18359375},{"name":"D3","midi":50,"time":362.68750000000006,"velocity":0.8031496062992126,"duration":0.18359375},{"name":"C5","midi":72,"time":362.87500000000006,"velocity":0.8031496062992126,"duration":0.18359375},{"name":"E3","midi":52,"time":362.87500000000006,"velocity":0.8031496062992126,"duration":0.18359375},{"name":"A4","midi":69,"time":363.06250000000006,"velocity":0.8031496062992126,"duration":0.18359375},{"name":"C3","midi":48,"time":363.06250000000006,"velocity":0.8031496062992126,"duration":0.18359375},{"name":"B4","midi":71,"time":363.25000000000006,"velocity":0.8031496062992126,"duration":0.18359375},{"name":"D3","midi":50,"time":363.25000000000006,"velocity":0.8031496062992126,"duration":0.18359375},{"name":"G#4","midi":68,"time":363.43750000000006,"velocity":0.8031496062992126,"duration":0.18359375},{"name":"B2","midi":47,"time":363.43750000000006,"velocity":0.8031496062992126,"duration":0.18359375},{"name":"A4","midi":69,"time":363.62500000000006,"velocity":0.8031496062992126,"duration":0.1875},{"name":"C3","midi":48,"time":363.62500000000006,"velocity":0.8031496062992126,"duration":0.1875},{"name":"B4","midi":71,"time":363.81640625000006,"velocity":0.8031496062992126,"duration":0.1875},{"name":"B2","midi":47,"time":363.81640625000006,"velocity":0.8031496062992126,"duration":0.1875},{"name":"C5","midi":72,"time":364.00781250000006,"velocity":0.8031496062992126,"duration":0.1875},{"name":"A2","midi":45,"time":364.00781250000006,"velocity":0.8031496062992126,"duration":0.1875},{"name":"A4","midi":69,"time":364.19921875000006,"velocity":0.8031496062992126,"duration":0.1875},{"name":"C3","midi":48,"time":364.19921875000006,"velocity":0.8031496062992126,"duration":0.1875},{"name":"G#4","midi":68,"time":364.39062500000006,"velocity":0.8031496062992126,"duration":0.1875},{"name":"E2","midi":40,"time":364.39062500000006,"velocity":0.8031496062992126,"duration":0.1875},{"name":"A4","midi":69,"time":364.58203125000006,"velocity":0.8031496062992126,"duration":0.1875},{"name":"B2","midi":47,"time":364.58203125000006,"velocity":0.8031496062992126,"duration":0.1875},{"name":"C5","midi":72,"time":364.77343750000006,"velocity":0.8031496062992126,"duration":0.1875},{"name":"E3","midi":52,"time":364.77343750000006,"velocity":0.8031496062992126,"duration":0.1875},{"name":"A4","midi":69,"time":364.96484375000006,"velocity":0.8031496062992126,"duration":0.1875},{"name":"C3","midi":48,"time":364.96484375000006,"velocity":0.8031496062992126,"duration":0.1875},{"name":"B4","midi":71,"time":365.15625000000006,"velocity":0.8031496062992126,"duration":0.1875},{"name":"D3","midi":50,"time":365.15625000000006,"velocity":0.8031496062992126,"duration":0.1875},{"name":"G#4","midi":68,"time":365.34765625000006,"velocity":0.8031496062992126,"duration":0.1875},{"name":"B2","midi":47,"time":365.34765625000006,"velocity":0.8031496062992126,"duration":0.1875},{"name":"A4","midi":69,"time":365.53906250000006,"velocity":0.8031496062992126,"duration":0.1875},{"name":"C3","midi":48,"time":365.53906250000006,"velocity":0.8031496062992126,"duration":0.1875},{"name":"F#4","midi":66,"time":365.73046875000006,"velocity":0.8031496062992126,"duration":0.1875},{"name":"A2","midi":45,"time":365.73046875000006,"velocity":0.8031496062992126,"duration":0.1875},{"name":"G#4","midi":68,"time":365.92187500000006,"velocity":0.8031496062992126,"duration":0.1953125},{"name":"B2","midi":47,"time":365.92187500000006,"velocity":0.8031496062992126,"duration":0.1953125},{"name":"F4","midi":65,"time":366.12109375000006,"velocity":0.8031496062992126,"duration":0.1953125},{"name":"A2","midi":45,"time":366.12109375000006,"velocity":0.8031496062992126,"duration":0.1953125},{"name":"E4","midi":64,"time":366.32031250000006,"velocity":0.8031496062992126,"duration":0.1953125},{"name":"B2","midi":47,"time":366.32031250000006,"velocity":0.8031496062992126,"duration":0.1953125},{"name":"D4","midi":62,"time":366.51953125000006,"velocity":0.8031496062992126,"duration":0.1953125},{"name":"G#2","midi":44,"time":366.51953125000006,"velocity":0.8031496062992126,"duration":0.1953125},{"name":"C4","midi":60,"time":366.71875000000006,"velocity":0.8031496062992126,"duration":0.2109375},{"name":"A2","midi":45,"time":366.71875000000006,"velocity":0.8031496062992126,"duration":0.42578125},{"name":"B3","midi":59,"time":366.93359375000006,"velocity":0.8031496062992126,"duration":0.2109375},{"name":"C4","midi":60,"time":367.14843750000006,"velocity":0.8031496062992126,"duration":0.42578125},{"name":"D3","midi":50,"time":367.14843750000006,"velocity":0.8031496062992126,"duration":0.42578125},{"name":"A4","midi":69,"time":367.36328125000006,"velocity":0.8031496062992126,"duration":0.2109375},{"name":"B3","midi":59,"time":367.57812500000006,"velocity":0.8031496062992126,"duration":0.48046875},{"name":"E3","midi":52,"time":367.57812500000006,"velocity":0.8031496062992126,"duration":1.0625},{"name":"A4","midi":69,"time":367.82161458333337,"velocity":0.8031496062992126,"duration":0.23828125},{"name":"B3","midi":59,"time":368.06640625000006,"velocity":0.8031496062992126,"duration":0.3984375},{"name":"E2","midi":40,"time":368.06640625000006,"velocity":0.8031496062992126,"duration":0.5533854166666856},{"name":"G#4","midi":68,"time":368.30989583333337,"velocity":0.8031496062992126,"duration":0.2877604166666856},{"name":"A4","midi":69,"time":368.63932291666674,"velocity":0.8031496062992126,"duration":2.91796875},{"name":"A2","midi":45,"time":368.63932291666674,"velocity":0.8031496062992126,"duration":2.91796875},{"name":"E5","midi":76,"time":372.72135416666674,"velocity":0.8031496062992126,"duration":0.5455729166666856},{"name":"E5","midi":76,"time":373.2981770833334,"velocity":0.8031496062992126,"duration":0.7239583333332575},{"name":"C5","midi":72,"time":373.2981770833334,"velocity":0.8031496062992126,"duration":1.893229166666515},{"name":"A3","midi":57,"time":373.2981770833334,"velocity":0.8031496062992126,"duration":2.8268229166664582},{"name":"E4","midi":64,"time":373.55729166666674,"velocity":0.8031496062992126,"duration":0.23177083333331439},{"name":"A4","midi":69,"time":373.79036458333337,"velocity":0.8031496062992126,"duration":0.23177083333331439},{"name":"E5","midi":76,"time":374.0260416666667,"velocity":0.8031496062992126,"duration":0.23177083333331439},{"name":"G4","midi":67,"time":374.0260416666667,"velocity":0.8031496062992126,"duration":0.23177083333331439},{"name":"A5","midi":81,"time":374.2591145833333,"velocity":0.8031496062992126,"duration":0.23177083333331439},{"name":"F4","midi":65,"time":374.2591145833333,"velocity":0.8031496062992126,"duration":0.46484375},{"name":"G#5","midi":80,"time":374.4934895833333,"velocity":0.8031496062992126,"duration":0.23177083333331439},{"name":"A5","midi":81,"time":374.72656249999994,"velocity":0.8031496062992126,"duration":0.23177083333331439},{"name":"E4","midi":64,"time":374.72656249999994,"velocity":0.8031496062992126,"duration":0.46484375},{"name":"B5","midi":83,"time":374.96093749999994,"velocity":0.8031496062992126,"duration":0.23177083333331439},{"name":"D5","midi":74,"time":375.1940104166666,"velocity":0.8031496062992126,"duration":0.23177083333331439},{"name":"B4","midi":71,"time":375.1940104166666,"velocity":0.8031496062992126,"duration":0.9270833333333144},{"name":"F4","midi":65,"time":375.1940104166666,"velocity":0.8031496062992126,"duration":0.46484375},{"name":"F5","midi":77,"time":375.4296874999999,"velocity":0.8031496062992126,"duration":0.23177083333337123},{"name":"E5","midi":76,"time":375.6627604166666,"velocity":0.8031496062992126,"duration":0.23177083333331439},{"name":"D4","midi":62,"time":375.6627604166666,"velocity":0.8031496062992126,"duration":0.46484375},{"name":"F5","midi":77,"time":375.8971354166666,"velocity":0.8031496062992126,"duration":0.4635416666666856},{"name":"G#4","midi":68,"time":376.13020833333326,"velocity":0.8031496062992126,"duration":0.4635416666666856},{"name":"B3","midi":59,"time":376.13020833333326,"velocity":0.8031496062992126,"duration":0.46484375},{"name":"F5","midi":77,"time":376.36458333333326,"velocity":0.8031496062992126,"duration":0.23177083333331439},{"name":"E5","midi":76,"time":376.5976562499999,"velocity":0.8031496062992126,"duration":0.23177083333331439},{"name":"G#4","midi":68,"time":376.5976562499999,"velocity":0.8031496062992126,"duration":0.46484375},{"name":"D5","midi":74,"time":376.8333333333332,"velocity":0.8031496062992126,"duration":0.23177083333337123},{"name":"C5","midi":72,"time":377.0664062499999,"velocity":0.8031496062992126,"duration":0.23177083333331439},{"name":"A4","midi":69,"time":377.0664062499999,"velocity":0.8031496062992126,"duration":0.4401041666666856},{"name":"B4","midi":71,"time":377.3007812499999,"velocity":0.8031496062992126,"duration":0.23177083333337123},{"name":"A4","midi":69,"time":377.5338541666666,"velocity":0.8031496062992126,"duration":0.23177083333331439},{"name":"B4","midi":71,"time":377.7682291666666,"velocity":0.8031496062992126,"duration":0.23177083333331439},{"name":"E4","midi":64,"time":377.7682291666666,"velocity":0.8031496062992126,"duration":0.23177083333331439},{"name":"C5","midi":72,"time":378.0013020833332,"velocity":0.8031496062992126,"duration":0.7161458333332575},{"name":"A4","midi":69,"time":378.0013020833332,"velocity":0.8031496062992126,"duration":0.23177083333331439},{"name":"G#4","midi":68,"time":378.2369791666665,"velocity":0.8031496062992126,"duration":0.23177083333331439},{"name":"A5","midi":81,"time":378.47005208333314,"velocity":0.8031496062992126,"duration":0.68359375},{"name":"A4","midi":69,"time":378.47005208333314,"velocity":0.8031496062992126,"duration":0.23177083333331439},{"name":"B4","midi":71,"time":378.70442708333314,"velocity":0.8031496062992126,"duration":0.23307291666662877},{"name":"B4","midi":71,"time":378.94010416666646,"velocity":0.8031496062992126,"duration":1.8710937499999432},{"name":"D4","midi":62,"time":378.94010416666646,"velocity":0.8031496062992126,"duration":0.23177083333337123},{"name":"A5","midi":81,"time":379.17317708333314,"velocity":0.8031496062992126,"duration":0.23177083333331439},{"name":"F4","midi":65,"time":379.17317708333314,"velocity":0.8031496062992126,"duration":0.23177083333331439},{"name":"G#5","midi":80,"time":379.40885416666646,"velocity":0.8031496062992126,"duration":0.23177083333331439},{"name":"E4","midi":64,"time":379.40885416666646,"velocity":0.8031496062992126,"duration":0.23177083333331439},{"name":"A5","midi":81,"time":379.6419270833331,"velocity":0.8031496062992126,"duration":0.23177083333331439},{"name":"F4","midi":65,"time":379.6419270833331,"velocity":0.8031496062992126,"duration":0.4635416666666856},{"name":"B5","midi":83,"time":379.8763020833331,"velocity":0.8031496062992126,"duration":1.4036458333333712},{"name":"G#3","midi":56,"time":379.8763020833331,"velocity":0.8031496062992126,"duration":0.9270833333333144},{"name":"F4","midi":65,"time":380.1093749999998,"velocity":0.8031496062992126,"duration":0.23177083333331439},{"name":"E4","midi":64,"time":380.3437499999998,"velocity":0.8031496062992126,"duration":0.23177083333331439},{"name":"D4","midi":62,"time":380.5768229166664,"velocity":0.8031496062992126,"duration":0.23307291666668561},{"name":"C4","midi":60,"time":380.8138020833331,"velocity":0.8031496062992126,"duration":0.23177083333331439},{"name":"E4","midi":64,"time":380.8138020833331,"velocity":0.8031496062992126,"duration":0.4635416666666856},{"name":"B3","midi":59,"time":381.0481770833331,"velocity":0.8031496062992126,"duration":0.23177083333337123},{"name":"E5","midi":76,"time":381.2812499999998,"velocity":0.8031496062992126,"duration":0.46484375},{"name":"A3","midi":57,"time":381.2812499999998,"velocity":0.8031496062992126,"duration":0.23177083333331439},{"name":"B3","midi":59,"time":381.5156249999998,"velocity":0.8031496062992126,"duration":0.23177083333331439},{"name":"A5","midi":81,"time":381.7486979166664,"velocity":0.8031496062992126,"duration":0.6992187499999432},{"name":"C#4","midi":61,"time":381.7486979166664,"velocity":0.8031496062992126,"duration":0.23177083333331439},{"name":"D4","midi":62,"time":381.9843749999997,"velocity":0.8031496062992126,"duration":0.23177083333331439},{"name":"E4","midi":64,"time":382.21744791666634,"velocity":0.8031496062992126,"duration":0.23177083333331439},{"name":"G5","midi":79,"time":382.45182291666634,"velocity":0.8031496062992126,"duration":0.23177083333331439},{"name":"C#4","midi":61,"time":382.45182291666634,"velocity":0.8031496062992126,"duration":0.23177083333331439},{"name":"F5","midi":77,"time":382.684895833333,"velocity":0.8031496062992126,"duration":0.23177083333331439},{"name":"D4","midi":62,"time":382.684895833333,"velocity":0.8031496062992126,"duration":0.46484375},{"name":"E5","midi":76,"time":382.919270833333,"velocity":0.8031496062992126,"duration":0.23177083333331439},{"name":"D5","midi":74,"time":383.1523437499996,"velocity":0.8031496062992126,"duration":0.23177083333331439},{"name":"A3","midi":57,"time":383.1523437499996,"velocity":0.8031496062992126,"duration":0.46484375},{"name":"E5","midi":76,"time":383.3880208333329,"velocity":0.8031496062992126,"duration":0.23177083333337123},{"name":"F#5","midi":78,"time":383.6210937499996,"velocity":0.8031496062992126,"duration":0.23177083333331439},{"name":"D4","midi":62,"time":383.6210937499996,"velocity":0.8031496062992126,"duration":0.6992187499999432},{"name":"G5","midi":79,"time":383.8554687499996,"velocity":0.8031496062992126,"duration":0.23177083333331439},{"name":"A5","midi":81,"time":384.08854166666623,"velocity":0.8031496062992126,"duration":0.23177083333331439},{"name":"F#5","midi":78,"time":384.32291666666623,"velocity":0.8031496062992126,"duration":0.23177083333331439},{"name":"C4","midi":60,"time":384.32291666666623,"velocity":0.8031496062992126,"duration":0.23177083333331439},{"name":"G5","midi":79,"time":384.55598958333286,"velocity":0.8031496062992126,"duration":0.46484375},{"name":"B3","midi":59,"time":384.55598958333286,"velocity":0.8031496062992126,"duration":0.23177083333331439},{"name":"A3","midi":57,"time":384.7916666666662,"velocity":0.8031496062992126,"duration":0.23177083333337123},{"name":"D5","midi":74,"time":385.02473958333286,"velocity":0.8031496062992126,"duration":0.46484375},{"name":"G3","midi":55,"time":385.02473958333286,"velocity":0.8031496062992126,"duration":0.23177083333331439},{"name":"A3","midi":57,"time":385.25911458333286,"velocity":0.8031496062992126,"duration":0.23177083333331439},{"name":"G5","midi":79,"time":385.4921874999995,"velocity":0.8031496062992126,"duration":0.6992187499999432},{"name":"B3","midi":59,"time":385.4921874999995,"velocity":0.8031496062992126,"duration":0.23177083333331439},{"name":"C4","midi":60,"time":385.7265624999995,"velocity":0.8031496062992126,"duration":0.23177083333331439},{"name":"D4","midi":62,"time":385.9596354166661,"velocity":0.8031496062992126,"duration":0.23177083333331439},{"name":"F5","midi":77,"time":386.19531249999943,"velocity":0.8031496062992126,"duration":0.23177083333331439},{"name":"B3","midi":59,"time":386.19531249999943,"velocity":0.8031496062992126,"duration":0.23177083333331439},{"name":"E5","midi":76,"time":386.42838541666606,"velocity":0.8031496062992126,"duration":1.8684895833332007},{"name":"C4","midi":60,"time":386.42838541666606,"velocity":0.8031496062992126,"duration":2.102864583333144},{"name":"D5","midi":74,"time":386.66276041666606,"velocity":0.8031496062992126,"duration":0.23177083333331439},{"name":"C5","midi":72,"time":386.8958333333327,"velocity":0.8031496062992126,"duration":0.23177083333331439},{"name":"B4","midi":71,"time":387.1302083333327,"velocity":0.8031496062992126,"duration":0.23177083333331439},{"name":"A4","midi":69,"time":387.3632812499993,"velocity":0.8031496062992126,"duration":0.23177083333331439},{"name":"C5","midi":72,"time":387.59895833333263,"velocity":0.8031496062992126,"duration":0.23177083333331439},{"name":"B4","midi":71,"time":387.83203124999926,"velocity":0.8031496062992126,"duration":0.23177083333331439},{"name":"C5","midi":72,"time":388.06640624999926,"velocity":0.8031496062992126,"duration":0.23177083333331439},{"name":"F#4","midi":66,"time":388.2994791666659,"velocity":0.8031496062992126,"duration":0.6992187499999432},{"name":"D5","midi":74,"time":388.2994791666659,"velocity":0.8031496062992126,"duration":3.9635416666663446},{"name":"E4","midi":64,"time":388.5338541666659,"velocity":0.8031496062992126,"duration":0.23177083333331439},{"name":"D4","midi":62,"time":388.7669270833325,"velocity":0.8031496062992126,"duration":0.23177083333331439},{"name":"A4","midi":69,"time":389.00260416666583,"velocity":0.8031496062992126,"duration":0.23177083333331439},{"name":"C4","midi":60,"time":389.00260416666583,"velocity":0.8031496062992126,"duration":0.23177083333331439},{"name":"G#4","midi":68,"time":389.23567708333246,"velocity":0.8031496062992126,"duration":0.23177083333331439},{"name":"B3","midi":59,"time":389.23567708333246,"velocity":0.8031496062992126,"duration":0.23177083333331439},{"name":"A4","midi":69,"time":389.47005208333246,"velocity":0.8031496062992126,"duration":0.23177083333331439},{"name":"D4","midi":62,"time":389.47005208333246,"velocity":0.8031496062992126,"duration":0.23177083333331439},{"name":"B4","midi":71,"time":389.7031249999991,"velocity":0.8031496062992126,"duration":0.11588541666668561},{"name":"C4","midi":60,"time":389.7031249999991,"velocity":0.8031496062992126,"duration":0.23307291666668561},{"name":"A4","midi":69,"time":389.82161458333246,"velocity":0.8031496062992126,"duration":0.11588541666662877},{"name":"G#4","midi":68,"time":389.9388020833324,"velocity":0.8031496062992126,"duration":0.11588541666668561},{"name":"D4","midi":62,"time":389.9388020833324,"velocity":0.8031496062992126,"duration":0.23307291666668561},{"name":"A4","midi":69,"time":390.0585937499991,"velocity":0.8031496062992126,"duration":0.11588541666668561},{"name":"B4","midi":71,"time":390.1757812499991,"velocity":0.8031496062992126,"duration":2.102864583333144},{"name":"G#3","midi":56,"time":390.1757812499991,"velocity":0.8031496062992126,"duration":0.23177083333331439},{"name":"A3","midi":57,"time":390.4101562499991,"velocity":0.8031496062992126,"duration":0.23177083333331439},{"name":"B3","midi":59,"time":390.6432291666657,"velocity":0.8031496062992126,"duration":0.23177083333331439},{"name":"G#3","midi":56,"time":390.8776041666657,"velocity":0.8031496062992126,"duration":0.23177083333331439},{"name":"D3","midi":50,"time":391.11067708333235,"velocity":0.8031496062992126,"duration":0.23177083333331439},{"name":"F3","midi":53,"time":391.34635416666566,"velocity":0.8031496062992126,"duration":0.23177083333331439},{"name":"E3","midi":52,"time":391.5794270833323,"velocity":0.8031496062992126,"duration":0.23177083333331439},{"name":"D3","midi":50,"time":391.8138020833323,"velocity":0.8031496062992126,"duration":0.23177083333331439},{"name":"C3","midi":48,"time":392.0468749999989,"velocity":0.8031496062992126,"duration":1.1679687499999432},{"name":"F5","midi":77,"time":392.2812499999989,"velocity":0.8031496062992126,"duration":0.23177083333331439},{"name":"E5","midi":76,"time":392.51432291666555,"velocity":0.8031496062992126,"duration":0.23177083333331439},{"name":"D5","midi":74,"time":392.74999999999886,"velocity":0.8031496062992126,"duration":0.23177083333331439},{"name":"D5","midi":74,"time":392.9830729166655,"velocity":0.8031496062992126,"duration":0.11588541666668561},{"name":"A4","midi":69,"time":392.9830729166655,"velocity":0.8031496062992126,"duration":0.9322916666666856},{"name":"C5","midi":72,"time":393.0872395833322,"velocity":0.8031496062992126,"duration":0.11588541666668561},{"name":"D5","midi":74,"time":393.19140624999886,"velocity":0.8031496062992126,"duration":0.11588541666668561},{"name":"C3","midi":48,"time":393.21874999999886,"velocity":0.8031496062992126,"duration":0.23307291666668561},{"name":"C5","midi":72,"time":393.29557291666555,"velocity":0.8031496062992126,"duration":0.11588541666668561},{"name":"D5","midi":74,"time":393.39583333333223,"velocity":0.8031496062992126,"duration":0.11588541666662877},{"name":"B2","midi":47,"time":393.45442708333223,"velocity":0.8031496062992126,"duration":0.23307291666662877},{"name":"C5","midi":72,"time":393.50260416666555,"velocity":0.8031496062992126,"duration":0.19661458333331439},{"name":"A2","midi":45,"time":393.69010416666555,"velocity":0.8031496062992126,"duration":0.23307291666662877},{"name":"B4","midi":71,"time":393.71874999999886,"velocity":0.8031496062992126,"duration":0.1953125},{"name":"B4","midi":71,"time":393.9270833333322,"velocity":0.8031496062992126,"duration":0.23177083333331439},{"name":"E3","midi":52,"time":393.9270833333322,"velocity":0.8031496062992126,"duration":0.69921875},{"name":"G4","midi":67,"time":394.1614583333322,"velocity":0.8031496062992126,"duration":1.4036458333332575},{"name":"B4","midi":71,"time":394.39453124999886,"velocity":0.8031496062992126,"duration":1.158854166666572},{"name":"E5","midi":76,"time":394.62890624999886,"velocity":0.8031496062992126,"duration":0.9270833333332575},{"name":"B3","midi":59,"time":394.62890624999886,"velocity":0.8031496062992126,"duration":0.23177083333331439},{"name":"G5","midi":79,"time":394.8619791666655,"velocity":0.8031496062992126,"duration":0.7005208333333144},{"name":"E4","midi":64,"time":394.8619791666655,"velocity":0.8031496062992126,"duration":0.23177083333331439},{"name":"D#4","midi":63,"time":395.0976562499988,"velocity":0.8031496062992126,"duration":0.23177083333331439},{"name":"E4","midi":64,"time":395.33072916666544,"velocity":0.8031496062992126,"duration":0.23307291666668561},{"name":"G5","midi":79,"time":395.56640624999875,"velocity":0.8031496062992126,"duration":0.23177083333331439},{"name":"B4","midi":71,"time":395.56640624999875,"velocity":0.8031496062992126,"duration":0.23177083333331439},{"name":"E5","midi":76,"time":395.56640624999875,"velocity":0.8031496062992126,"duration":0.23177083333331439},{"name":"F#4","midi":66,"time":395.56640624999875,"velocity":0.8031496062992126,"duration":0.23177083333331439},{"name":"B4","midi":71,"time":395.80078124999875,"velocity":0.8031496062992126,"duration":0.9270833333332575},{"name":"C5","midi":72,"time":395.80078124999875,"velocity":0.8031496062992126,"duration":0.9270833333332575},{"name":"G5","midi":79,"time":395.80078124999875,"velocity":0.8031496062992126,"duration":0.6992187499999432},{"name":"A3","midi":57,"time":395.80078124999875,"velocity":0.8031496062992126,"duration":0.23177083333331439},{"name":"C4","midi":60,"time":396.0338541666654,"velocity":0.8031496062992126,"duration":0.23177083333331439},{"name":"B3","midi":59,"time":396.2695312499987,"velocity":0.8031496062992126,"duration":0.23177083333331439},{"name":"A5","midi":81,"time":396.5026041666653,"velocity":0.8031496062992126,"duration":0.23307291666668561},{"name":"C4","midi":60,"time":396.5026041666653,"velocity":0.8031496062992126,"duration":0.23307291666668561},{"name":"A4","midi":69,"time":396.7382812499987,"velocity":0.8031496062992126,"duration":0.9270833333333144},{"name":"C5","midi":72,"time":396.7382812499987,"velocity":0.8031496062992126,"duration":0.9270833333333144},{"name":"F#5","midi":78,"time":396.7382812499987,"velocity":0.8031496062992126,"duration":0.6992187499999432},{"name":"D#3","midi":51,"time":396.7382812499987,"velocity":0.8031496062992126,"duration":0.23177083333331439},{"name":"C4","midi":60,"time":396.9726562499987,"velocity":0.8031496062992126,"duration":0.23177083333331439},{"name":"B3","midi":59,"time":397.2057291666653,"velocity":0.8031496062992126,"duration":0.23177083333331439},{"name":"F#5","midi":78,"time":397.4401041666653,"velocity":0.8031496062992126,"duration":0.23307291666668561},{"name":"A3","midi":57,"time":397.4401041666653,"velocity":0.8031496062992126,"duration":0.23307291666668561},{"name":"B4","midi":71,"time":397.677083333332,"velocity":0.8031496062992126,"duration":1.1705729166666288},{"name":"F#5","midi":78,"time":397.677083333332,"velocity":0.8031496062992126,"duration":0.23177083333331439},{"name":"A4","midi":69,"time":397.677083333332,"velocity":0.8031496062992126,"duration":0.9270833333332575},{"name":"G3","midi":55,"time":397.677083333332,"velocity":0.8031496062992126,"duration":1.1679687499999432},{"name":"A5","midi":81,"time":397.91015624999864,"velocity":0.8031496062992126,"duration":0.23177083333331439},{"name":"G5","midi":79,"time":398.14453124999864,"velocity":0.8031496062992126,"duration":0.23177083333331439},{"name":"F#5","midi":78,"time":398.37760416666526,"velocity":0.8031496062992126,"duration":0.23307291666668561},{"name":"G4","midi":67,"time":398.61328124999864,"velocity":0.8031496062992126,"duration":0.23177083333331439},{"name":"E5","midi":76,"time":398.61328124999864,"velocity":0.8031496062992126,"duration":0.23177083333331439},{"name":"D#5","midi":75,"time":398.84895833333195,"velocity":0.8031496062992126,"duration":0.23177083333331439},{"name":"G3","midi":55,"time":398.84895833333195,"velocity":0.8031496062992126,"duration":0.23177083333331439},{"name":"E5","midi":76,"time":399.0820312499986,"velocity":0.8031496062992126,"duration":0.23177083333331439},{"name":"F#3","midi":54,"time":399.0820312499986,"velocity":0.8031496062992126,"duration":0.23177083333331439},{"name":"F#5","midi":78,"time":399.3164062499986,"velocity":0.8031496062992126,"duration":0.23177083333331439},{"name":"E3","midi":52,"time":399.3164062499986,"velocity":0.8031496062992126,"duration":0.23177083333331439},{"name":"A4","midi":69,"time":399.5494791666652,"velocity":0.8031496062992126,"duration":0.23177083333331439},{"name":"F#3","midi":54,"time":399.5494791666652,"velocity":0.8031496062992126,"duration":0.23177083333331439},{"name":"C5","midi":72,"time":399.7838541666652,"velocity":0.8031496062992126,"duration":0.23177083333331439},{"name":"F#3","midi":54,"time":399.7838541666652,"velocity":0.8031496062992126,"duration":0.23177083333331439},{"name":"B4","midi":71,"time":400.0182291666652,"velocity":0.8031496062992126,"duration":0.23177083333331439},{"name":"G3","midi":55,"time":400.0182291666652,"velocity":0.8031496062992126,"duration":0.23177083333331439},{"name":"C5","midi":72,"time":400.2526041666652,"velocity":0.8031496062992126,"duration":0.23177083333331439},{"name":"A3","midi":57,"time":400.2526041666652,"velocity":0.8031496062992126,"duration":0.23177083333331439},{"name":"D#4","midi":63,"time":400.48567708333184,"velocity":0.8031496062992126,"duration":0.9270833333333144},{"name":"B3","midi":59,"time":400.48567708333184,"velocity":0.8031496062992126,"duration":0.46484375},{"name":"C5","midi":72,"time":400.72005208333184,"velocity":0.8031496062992126,"duration":0.23177083333331439},{"name":"B4","midi":71,"time":400.95312499999847,"velocity":0.8031496062992126,"duration":0.23177083333331439},{"name":"B2","midi":47,"time":400.95312499999847,"velocity":0.8031496062992126,"duration":0.4674479166666856},{"name":"A4","midi":69,"time":401.18749999999847,"velocity":0.8031496062992126,"duration":0.23307291666668561},{"name":"G4","midi":67,"time":401.42447916666515,"velocity":0.8031496062992126,"duration":0.23307291666668561},{"name":"E3","midi":52,"time":401.42447916666515,"velocity":0.8031496062992126,"duration":0.11588541666668561},{"name":"D#3","midi":51,"time":401.54166666666515,"velocity":0.8031496062992126,"duration":0.11588541666668561},{"name":"F#4","midi":66,"time":401.6601562499985,"velocity":0.8031496062992126,"duration":0.23177083333331439},{"name":"E3","midi":52,"time":401.6601562499985,"velocity":0.8031496062992126,"duration":0.9322916666665719},{"name":"E4","midi":64,"time":401.89322916666515,"velocity":0.8031496062992126,"duration":0.23177083333331439},{"name":"F#4","midi":66,"time":402.12760416666515,"velocity":0.8031496062992126,"duration":0.23177083333331439},{"name":"G4","midi":67,"time":402.3606770833318,"velocity":0.8031496062992126,"duration":0.23177083333331439},{"name":"A4","midi":69,"time":402.5963541666651,"velocity":0.8031496062992126,"duration":0.23177083333331439},{"name":"D3","midi":50,"time":402.5963541666651,"velocity":0.8031496062992126,"duration":0.23177083333331439},{"name":"B4","midi":71,"time":402.8294270833317,"velocity":0.8031496062992126,"duration":0.23177083333331439},{"name":"C3","midi":48,"time":402.8294270833317,"velocity":0.8031496062992126,"duration":0.23177083333331439},{"name":"G4","midi":67,"time":403.0638020833317,"velocity":0.8031496062992126,"duration":0.23177083333331439},{"name":"B2","midi":47,"time":403.0638020833317,"velocity":0.8031496062992126,"duration":0.23177083333331439},{"name":"C5","midi":72,"time":403.29687499999835,"velocity":0.8031496062992126,"duration":0.11588541666668561},{"name":"A2","midi":45,"time":403.29687499999835,"velocity":0.8031496062992126,"duration":0.23307291666668561},{"name":"B4","midi":71,"time":403.4153645833317,"velocity":0.8031496062992126,"duration":0.11588541666662877},{"name":"C5","midi":72,"time":403.53255208333167,"velocity":0.8031496062992126,"duration":0.46484375},{"name":"G2","midi":43,"time":403.53255208333167,"velocity":0.8031496062992126,"duration":0.23177083333331439},{"name":"A2","midi":45,"time":403.768229166665,"velocity":0.8031496062992126,"duration":0.23177083333337123},{"name":"B4","midi":71,"time":404.00130208333167,"velocity":0.8031496062992126,"duration":0.23177083333331439},{"name":"B2","midi":47,"time":404.00130208333167,"velocity":0.8031496062992126,"duration":0.23177083333331439},{"name":"A4","midi":69,"time":404.23567708333167,"velocity":0.8031496062992126,"duration":1.1679687499998863},{"name":"C3","midi":48,"time":404.23567708333167,"velocity":0.8031496062992126,"duration":0.23177083333331439},{"name":"G4","midi":67,"time":404.4687499999983,"velocity":0.8031496062992126,"duration":0.23177083333331439},{"name":"B2","midi":47,"time":404.4687499999983,"velocity":0.8031496062992126,"duration":0.23177083333331439},{"name":"F#4","midi":66,"time":404.7031249999983,"velocity":0.8031496062992126,"duration":0.23177083333331439},{"name":"C3","midi":48,"time":404.7031249999983,"velocity":0.8031496062992126,"duration":0.23177083333331439},{"name":"E4","midi":64,"time":404.9361979166649,"velocity":0.8031496062992126,"duration":0.23177083333331439},{"name":"A2","midi":45,"time":404.9361979166649,"velocity":0.8031496062992126,"duration":0.23177083333331439},{"name":"D#4","midi":63,"time":405.17187499999824,"velocity":0.8031496062992126,"duration":0.6966145833333144},{"name":"B2","midi":47,"time":405.17187499999824,"velocity":0.8031496062992126,"duration":3.7278645833333712},{"name":"A4","midi":69,"time":405.40494791666487,"velocity":0.8031496062992126,"duration":0.23177083333331439},{"name":"G4","midi":67,"time":405.63932291666487,"velocity":0.8031496062992126,"duration":0.23177083333337123},{"name":"F#3","midi":54,"time":405.63932291666487,"velocity":0.8031496062992126,"duration":0.46484375},{"name":"F#4","midi":66,"time":405.87239583333155,"velocity":0.8031496062992126,"duration":0.23177083333331439},{"name":"G4","midi":67,"time":406.10677083333155,"velocity":0.8031496062992126,"duration":0.45442708333337123},{"name":"B3","midi":59,"time":406.10677083333155,"velocity":0.8031496062992126,"duration":0.46484375000005684},{"name":"E4","midi":64,"time":406.33984374999824,"velocity":0.8031496062992126,"duration":0.23177083333337123},{"name":"F#4","midi":66,"time":406.5755208333316,"velocity":0.8031496062992126,"duration":0.23177083333331439},{"name":"G3","midi":55,"time":406.5755208333316,"velocity":0.8031496062992126,"duration":0.46484374999994316},{"name":"G4","midi":67,"time":406.80859374999824,"velocity":0.8031496062992126,"duration":0.23177083333331439},{"name":"C#4","midi":61,"time":407.04296874999824,"velocity":0.8031496062992126,"duration":0.45442708333337123},{"name":"E3","midi":52,"time":407.04296874999824,"velocity":0.8031496062992126,"duration":0.46484375000005684},{"name":"E4","midi":64,"time":407.2760416666649,"velocity":0.8031496062992126,"duration":0.23177083333337123},{"name":"D4","midi":62,"time":407.510416666665,"velocity":0.8031496062992126,"duration":0.23177083333331439},{"name":"G3","midi":55,"time":407.510416666665,"velocity":0.8031496062992126,"duration":0.46484374999994316},{"name":"E4","midi":64,"time":407.7434895833316,"velocity":0.8031496062992126,"duration":0.23177083333331439},{"name":"A#3","midi":58,"time":407.9791666666649,"velocity":0.8031496062992126,"duration":0.45442708333337123},{"name":"C#3","midi":49,"time":407.9791666666649,"velocity":0.8031496062992126,"duration":0.46484375000005684},{"name":"G4","midi":67,"time":408.2122395833316,"velocity":0.8031496062992126,"duration":0.23177083333337123},{"name":"F#4","midi":66,"time":408.44661458333167,"velocity":0.8031496062992126,"duration":0.23177083333331439},{"name":"A#3","midi":58,"time":408.44661458333167,"velocity":0.8031496062992126,"duration":0.46484374999994316},{"name":"E4","midi":64,"time":408.6796874999983,"velocity":0.8031496062992126,"duration":0.23177083333331439},{"name":"D#4","midi":63,"time":408.9140624999983,"velocity":0.8031496062992126,"duration":0.23177083333331439},{"name":"B3","midi":59,"time":408.9140624999983,"velocity":0.8031496062992126,"duration":0.4505208333333144},{"name":"C#4","midi":61,"time":409.1471354166649,"velocity":0.8031496062992126,"duration":0.23177083333337123},{"name":"B3","midi":59,"time":409.3828124999983,"velocity":0.8031496062992126,"duration":0.46484375},{"name":"A3","midi":57,"time":409.615885416665,"velocity":0.8031496062992126,"duration":0.23177083333331439},{"name":"B4","midi":71,"time":409.850260416665,"velocity":0.8031496062992126,"duration":0.11588541666668561},{"name":"G3","midi":55,"time":409.850260416665,"velocity":0.8031496062992126,"duration":0.23307291666668561},{"name":"A4","midi":69,"time":409.967447916665,"velocity":0.8031496062992126,"duration":0.11588541666668561},{"name":"B4","midi":71,"time":410.08593749999835,"velocity":0.8031496062992126,"duration":0.46484374999994316},{"name":"E3","midi":52,"time":410.08593749999835,"velocity":0.8031496062992126,"duration":0.23177083333331439},{"name":"F#3","midi":54,"time":410.319010416665,"velocity":0.8031496062992126,"duration":0.23177083333331439},{"name":"B4","midi":71,"time":410.5546874999983,"velocity":0.8031496062992126,"duration":0.23177083333331439},{"name":"G3","midi":55,"time":410.5546874999983,"velocity":0.8031496062992126,"duration":0.23177083333331439},{"name":"E5","midi":76,"time":410.7877604166649,"velocity":0.8031496062992126,"duration":0.23177083333331439},{"name":"C3","midi":48,"time":410.7877604166649,"velocity":0.8031496062992126,"duration":0.6992187499999432},{"name":"C5","midi":72,"time":411.0221354166649,"velocity":0.8031496062992126,"duration":0.23177083333331439},{"name":"B4","midi":71,"time":411.25520833333155,"velocity":0.8031496062992126,"duration":0.23177083333331439},{"name":"A4","midi":69,"time":411.48958333333155,"velocity":0.8031496062992126,"duration":0.23177083333331439},{"name":"B2","midi":47,"time":411.48958333333155,"velocity":0.8031496062992126,"duration":0.23177083333331439},{"name":"F#5","midi":78,"time":411.7226562499982,"velocity":0.8031496062992126,"duration":0.11588541666668561},{"name":"C3","midi":48,"time":411.7226562499982,"velocity":0.8031496062992126,"duration":0.23307291666668561},{"name":"E5","midi":76,"time":411.84244791666487,"velocity":0.8031496062992126,"duration":0.11588541666668561},{"name":"F#5","midi":78,"time":411.95963541666487,"velocity":0.8031496062992126,"duration":0.46484375},{"name":"A2","midi":45,"time":411.95963541666487,"velocity":0.8031496062992126,"duration":0.23177083333331439},{"name":"B2","midi":47,"time":412.19401041666487,"velocity":0.8031496062992126,"duration":0.23177083333331439},{"name":"F#5","midi":78,"time":412.4270833333315,"velocity":0.8031496062992126,"duration":0.23177083333331439},{"name":"C3","midi":48,"time":412.4270833333315,"velocity":0.8031496062992126,"duration":0.23177083333331439},{"name":"F#5","midi":78,"time":412.6614583333315,"velocity":0.8031496062992126,"duration":0.23177083333331439},{"name":"D#2","midi":39,"time":412.6614583333315,"velocity":0.8031496062992126,"duration":0.4674479166666856},{"name":"G5","midi":79,"time":412.8945312499981,"velocity":0.8031496062992126,"duration":0.11588541666668561},{"name":"A5","midi":81,"time":413.0130208333315,"velocity":0.8031496062992126,"duration":0.11588541666668561},{"name":"G5","midi":79,"time":413.13151041666487,"velocity":0.8031496062992126,"duration":0.23177083333331439},{"name":"E2","midi":40,"time":413.13151041666487,"velocity":0.8031496062992126,"duration":0.46484375},{"name":"F#5","midi":78,"time":413.36588541666487,"velocity":0.8031496062992126,"duration":0.23177083333331439},{"name":"G5","midi":79,"time":413.5989583333315,"velocity":0.8031496062992126,"duration":0.11588541666668561},{"name":"D#5","midi":75,"time":413.5989583333315,"velocity":0.8031496062992126,"duration":0.6861979166667425},{"name":"B2","midi":47,"time":413.5989583333315,"velocity":0.8031496062992126,"duration":0.9361979166667425},{"name":"F#5","midi":78,"time":413.71744791666487,"velocity":0.8031496062992126,"duration":0.11588541666668561},{"name":"G5","midi":79,"time":413.83463541666487,"velocity":0.8031496062992126,"duration":0.11588541666668561},{"name":"F#5","midi":78,"time":413.95312499999824,"velocity":0.8031496062992126,"duration":0.11588541666668561},{"name":"G5","midi":79,"time":414.07031249999824,"velocity":0.8031496062992126,"duration":0.11588541666668561},{"name":"F#5","midi":78,"time":414.1901041666649,"velocity":0.8031496062992126,"duration":0.11197916666662877},{"name":"E5","midi":76,"time":414.30598958333155,"velocity":0.8031496062992126,"duration":0.23177083333337123},{"name":"E5","midi":76,"time":414.53906249999824,"velocity":0.8031496062992126,"duration":1.8684895833332007},{"name":"E3","midi":52,"time":414.53906249999824,"velocity":0.8031496062992126,"duration":1.8684895833332007},{"name":"D5","midi":74,"time":414.77343749999824,"velocity":0.8031496062992126,"duration":0.23177083333331439},{"name":"C5","midi":72,"time":415.00651041666487,"velocity":0.8031496062992126,"duration":0.23177083333331439},{"name":"B4","midi":71,"time":415.24088541666487,"velocity":0.8031496062992126,"duration":0.23177083333331439},{"name":"G#3","midi":56,"time":415.24088541666487,"velocity":0.8031496062992126,"duration":0.23177083333331439},{"name":"C5","midi":72,"time":415.4739583333315,"velocity":0.8031496062992126,"duration":0.23177083333331439},{"name":"A3","midi":57,"time":415.4739583333315,"velocity":0.8031496062992126,"duration":0.23177083333331439},{"name":"G#4","midi":68,"time":415.7096354166648,"velocity":0.8031496062992126,"duration":0.23177083333331439},{"name":"B3","midi":59,"time":415.7096354166648,"velocity":0.8031496062992126,"duration":0.23177083333331439},{"name":"A4","midi":69,"time":415.94270833333144,"velocity":0.8031496062992126,"duration":0.4635416666666856},{"name":"C4","midi":60,"time":415.94270833333144,"velocity":0.8031496062992126,"duration":0.23177083333331439},{"name":"C5","midi":72,"time":416.17708333333144,"velocity":0.8031496062992126,"duration":0.23177083333331439},{"name":"D#4","midi":63,"time":416.17708333333144,"velocity":0.8031496062992126,"duration":0.23177083333331439},{"name":"E4","midi":64,"time":416.41015624999807,"velocity":0.8031496062992126,"duration":1.6484375},{"name":"G#4","midi":68,"time":416.64453124999807,"velocity":0.8031496062992126,"duration":1.4049479166666856},{"name":"E2","midi":40,"time":416.64453124999807,"velocity":0.8031496062992126,"duration":1.4049479166666856},{"name":"B4","midi":71,"time":416.76171874999807,"velocity":0.8031496062992126,"duration":1.16796875},{"name":"E5","midi":76,"time":416.88151041666475,"velocity":0.8031496062992126,"duration":1.16796875},{"name":"G#2","midi":44,"time":416.88151041666475,"velocity":0.8031496062992126,"duration":0.23177083333331439},{"name":"B2","midi":47,"time":417.1145833333314,"velocity":0.8031496062992126,"duration":0.23177083333331439},{"name":"E3","midi":52,"time":417.3489583333314,"velocity":0.8031496062992126,"duration":0.9361979166666856},{"name":"B4","midi":71,"time":418.05338541666475,"velocity":0.8031496062992126,"duration":0.23307291666662877},{"name":"G#4","midi":68,"time":418.28906249999807,"velocity":0.8031496062992126,"duration":0.6992187499999432},{"name":"B4","midi":71,"time":418.28906249999807,"velocity":0.8031496062992126,"duration":0.6992187499999432},{"name":"E4","midi":64,"time":418.28906249999807,"velocity":0.8031496062992126,"duration":0.6992187499999432},{"name":"E2","midi":40,"time":418.28906249999807,"velocity":0.8031496062992126,"duration":0.23177083333331439},{"name":"G#2","midi":44,"time":418.5221354166647,"velocity":0.8031496062992126,"duration":0.23177083333331439},{"name":"E3","midi":52,"time":418.7565104166647,"velocity":0.8031496062992126,"duration":0.23177083333331439},{"name":"B4","midi":71,"time":418.9895833333313,"velocity":0.8031496062992126,"duration":0.23177083333331439},{"name":"F#3","midi":54,"time":418.9895833333313,"velocity":0.8031496062992126,"duration":0.23177083333331439},{"name":"D4","midi":62,"time":419.2239583333313,"velocity":0.8031496062992126,"duration":0.23177083333331439},{"name":"G#3","midi":56,"time":419.2239583333313,"velocity":0.8031496062992126,"duration":0.46484375},{"name":"F4","midi":65,"time":419.4583333333313,"velocity":0.8031496062992126,"duration":0.23177083333331439},{"name":"E4","midi":64,"time":419.6927083333313,"velocity":0.8031496062992126,"duration":0.23177083333331439},{"name":"A3","midi":57,"time":419.6927083333313,"velocity":0.8031496062992126,"duration":0.46484374999994316},{"name":"D4","midi":62,"time":419.92578124999795,"velocity":0.8031496062992126,"duration":0.23177083333331439},{"name":"G#4","midi":68,"time":420.16015624999795,"velocity":0.8031496062992126,"duration":0.23177083333331439},{"name":"B3","midi":59,"time":420.16015624999795,"velocity":0.8031496062992126,"duration":0.46484374999994316},{"name":"E4","midi":64,"time":420.3932291666646,"velocity":0.8031496062992126,"duration":0.23177083333331439},{"name":"F4","midi":65,"time":420.6276041666646,"velocity":0.8031496062992126,"duration":0.23177083333331439},{"name":"A3","midi":57,"time":420.6276041666646,"velocity":0.8031496062992126,"duration":0.46484375},{"name":"E4","midi":64,"time":420.8619791666646,"velocity":0.8031496062992126,"duration":0.23177083333331439},{"name":"B4","midi":71,"time":421.0963541666646,"velocity":0.8031496062992126,"duration":0.23177083333331439},{"name":"G#3","midi":56,"time":421.0963541666646,"velocity":0.8031496062992126,"duration":0.46484374999994316},{"name":"D4","midi":62,"time":421.3294270833312,"velocity":0.8031496062992126,"duration":0.23177083333331439},{"name":"E4","midi":64,"time":421.5638020833312,"velocity":0.8031496062992126,"duration":0.23177083333331439},{"name":"E3","midi":52,"time":421.5638020833312,"velocity":0.8031496062992126,"duration":0.46484374999994316},{"name":"F4","midi":65,"time":421.79687499999784,"velocity":0.8031496062992126,"duration":0.23177083333331439},{"name":"C#4","midi":61,"time":422.03255208333115,"velocity":0.8031496062992126,"duration":0.23177083333331439},{"name":"A3","midi":57,"time":422.03255208333115,"velocity":0.8031496062992126,"duration":0.44791666666662877},{"name":"B3","midi":59,"time":422.2656249999978,"velocity":0.8031496062992126,"duration":0.23177083333331439},{"name":"A3","midi":57,"time":422.4999999999978,"velocity":0.8031496062992126,"duration":0.23177083333331439},{"name":"B3","midi":59,"time":422.7330729166644,"velocity":0.8031496062992126,"duration":0.23177083333331439},{"name":"A2","midi":45,"time":422.7330729166644,"velocity":0.8031496062992126,"duration":0.23177083333331439},{"name":"C#4","midi":61,"time":422.9674479166644,"velocity":0.8031496062992126,"duration":0.23177083333331439},{"name":"G2","midi":43,"time":422.9674479166644,"velocity":0.8031496062992126,"duration":0.23177083333331439},{"name":"D4","midi":62,"time":423.20052083333104,"velocity":0.8031496062992126,"duration":0.23177083333331439},{"name":"A#2","midi":46,"time":423.20052083333104,"velocity":0.8031496062992126,"duration":0.23177083333331439},{"name":"E4","midi":64,"time":423.43619791666436,"velocity":0.8031496062992126,"duration":0.23177083333331439},{"name":"A2","midi":45,"time":423.43619791666436,"velocity":0.8031496062992126,"duration":0.23177083333331439},{"name":"F4","midi":65,"time":423.669270833331,"velocity":0.8031496062992126,"duration":0.23177083333331439},{"name":"G2","midi":43,"time":423.669270833331,"velocity":0.8031496062992126,"duration":0.23177083333331439},{"name":"G4","midi":67,"time":423.903645833331,"velocity":0.8031496062992126,"duration":0.23177083333331439},{"name":"C#3","midi":49,"time":423.903645833331,"velocity":0.8031496062992126,"duration":0.23177083333331439},{"name":"F4","midi":65,"time":424.1367187499976,"velocity":0.8031496062992126,"duration":0.23177083333331439},{"name":"A2","midi":45,"time":424.1367187499976,"velocity":0.8031496062992126,"duration":0.23177083333331439},{"name":"E4","midi":64,"time":424.3710937499976,"velocity":0.8031496062992126,"duration":0.23177083333331439},{"name":"A#2","midi":46,"time":424.3710937499976,"velocity":0.8031496062992126,"duration":0.23177083333331439},{"name":"F4","midi":65,"time":424.60416666666424,"velocity":0.8031496062992126,"duration":0.23177083333331439},{"name":"A2","midi":45,"time":424.60416666666424,"velocity":0.8031496062992126,"duration":0.23177083333331439},{"name":"G4","midi":67,"time":424.83984374999756,"velocity":0.8031496062992126,"duration":0.23177083333331439},{"name":"E3","midi":52,"time":424.83984374999756,"velocity":0.8031496062992126,"duration":0.23177083333331439},{"name":"A#4","midi":70,"time":425.0729166666642,"velocity":0.8031496062992126,"duration":0.23177083333331439},{"name":"G2","midi":43,"time":425.0729166666642,"velocity":0.8031496062992126,"duration":0.23177083333331439},{"name":"A4","midi":69,"time":425.3072916666642,"velocity":0.8031496062992126,"duration":0.23177083333331439},{"name":"A2","midi":45,"time":425.3072916666642,"velocity":0.8031496062992126,"duration":0.23177083333331439},{"name":"G4","midi":67,"time":425.5403645833308,"velocity":0.8031496062992126,"duration":0.23177083333331439},{"name":"A#2","midi":46,"time":425.5403645833308,"velocity":0.8031496062992126,"duration":0.23177083333331439},{"name":"C5","midi":72,"time":425.7747395833308,"velocity":0.8031496062992126,"duration":0.6822916666667425},{"name":"F#2","midi":42,"time":425.7747395833308,"velocity":0.8031496062992126,"duration":0.45442708333337123},{"name":"A4","midi":69,"time":426.0078124999975,"velocity":0.8031496062992126,"duration":0.23177083333337123},{"name":"D3","midi":50,"time":426.0078124999975,"velocity":0.8031496062992126,"duration":0.23177083333337123},{"name":"D4","midi":62,"time":426.24348958333087,"velocity":0.8031496062992126,"duration":0.4635416666666856},{"name":"E3","midi":52,"time":426.24348958333087,"velocity":0.8031496062992126,"duration":0.23177083333337123},{"name":"C5","midi":72,"time":426.47656249999756,"velocity":0.8031496062992126,"duration":0.23177083333331439},{"name":"F#3","midi":54,"time":426.47656249999756,"velocity":0.8031496062992126,"duration":0.23177083333331439},{"name":"B4","midi":71,"time":426.71093749999756,"velocity":0.8031496062992126,"duration":0.23177083333331439},{"name":"G3","midi":55,"time":426.71093749999756,"velocity":0.8031496062992126,"duration":0.23177083333331439},{"name":"C5","midi":72,"time":426.9440104166642,"velocity":0.8031496062992126,"duration":0.23177083333331439},{"name":"A3","midi":57,"time":426.9440104166642,"velocity":0.8031496062992126,"duration":0.23177083333331439},{"name":"D5","midi":74,"time":427.1783854166642,"velocity":0.8031496062992126,"duration":0.11588541666668561},{"name":"B3","midi":59,"time":427.1783854166642,"velocity":0.8031496062992126,"duration":0.11588541666668561},{"name":"C5","midi":72,"time":427.2955729166642,"velocity":0.8031496062992126,"duration":0.11588541666668561},{"name":"A3","midi":57,"time":427.2955729166642,"velocity":0.8031496062992126,"duration":0.11588541666668561},{"name":"B4","midi":71,"time":427.41536458333087,"velocity":0.8031496062992126,"duration":0.11588541666668561},{"name":"G3","midi":55,"time":427.41536458333087,"velocity":0.8031496062992126,"duration":0.11588541666668561},{"name":"C5","midi":72,"time":427.53255208333087,"velocity":0.8031496062992126,"duration":0.11588541666668561},{"name":"A3","midi":57,"time":427.53255208333087,"velocity":0.8031496062992126,"duration":0.11588541666668561},{"name":"G4","midi":67,"time":427.65104166666424,"velocity":0.8031496062992126,"duration":1.4049479166666288},{"name":"D5","midi":74,"time":427.65104166666424,"velocity":0.8031496062992126,"duration":0.7005208333333144},{"name":"B3","midi":59,"time":427.65104166666424,"velocity":0.8031496062992126,"duration":0.23177083333331439},{"name":"C4","midi":60,"time":427.88411458333087,"velocity":0.8031496062992126,"duration":0.23177083333331439},{"name":"D4","midi":62,"time":428.11848958333087,"velocity":0.8031496062992126,"duration":0.11588541666668561},{"name":"C4","midi":60,"time":428.23567708333087,"velocity":0.8031496062992126,"duration":0.11588541666668561},{"name":"E5","midi":76,"time":428.35416666666424,"velocity":0.8031496062992126,"duration":0.23307291666668561},{"name":"B3","midi":59,"time":428.35416666666424,"velocity":0.8031496062992126,"duration":0.11588541666668561},{"name":"C4","midi":60,"time":428.47135416666424,"velocity":0.8031496062992126,"duration":0.11588541666668561},{"name":"A4","midi":69,"time":428.5911458333309,"velocity":0.8031496062992126,"duration":0.23177083333331439},{"name":"D4","midi":62,"time":428.5911458333309,"velocity":0.8031496062992126,"duration":0.46484374999994316},{"name":"B4","midi":71,"time":428.82421874999756,"velocity":0.8031496062992126,"duration":0.23177083333331439},{"name":"C5","midi":72,"time":429.05859374999756,"velocity":0.8031496062992126,"duration":0.23177083333331439},{"name":"F#4","midi":66,"time":429.05859374999756,"velocity":0.8031496062992126,"duration":0.46354166666662877},{"name":"D3","midi":50,"time":429.05859374999756,"velocity":0.8031496062992126,"duration":0.46484374999994316},{"name":"D5","midi":74,"time":429.2916666666642,"velocity":0.8031496062992126,"duration":0.23177083333331439},{"name":"C5","midi":72,"time":429.5260416666642,"velocity":0.8031496062992126,"duration":0.11588541666668561},{"name":"G4","midi":67,"time":429.5260416666642,"velocity":0.8031496062992126,"duration":1.4049479166666288},{"name":"G2","midi":43,"time":429.5260416666642,"velocity":0.8031496062992126,"duration":0.23307291666668561},{"name":"B4","midi":71,"time":429.6158854166642,"velocity":0.8031496062992126,"duration":0.11588541666668561},{"name":"C5","midi":72,"time":429.70703124999756,"velocity":0.8031496062992126,"duration":0.11588541666668561},{"name":"D3","midi":50,"time":429.76302083333087,"velocity":0.8031496062992126,"duration":0.23307291666668561},{"name":"B4","midi":71,"time":429.79687499999756,"velocity":0.8031496062992126,"duration":0.4348958333333144},{"name":"G3","midi":55,"time":429.99869791666424,"velocity":0.8031496062992126,"duration":0.23177083333331439},{"name":"D5","midi":74,"time":430.23177083333087,"velocity":0.8031496062992126,"duration":0.23177083333331439},{"name":"A3","midi":57,"time":430.23177083333087,"velocity":0.8031496062992126,"duration":0.23177083333331439},{"name":"F4","midi":65,"time":430.46614583333087,"velocity":0.8031496062992126,"duration":0.23177083333331439},{"name":"B3","midi":59,"time":430.46614583333087,"velocity":0.8031496062992126,"duration":0.46484374999994316},{"name":"A4","midi":69,"time":430.6992187499975,"velocity":0.8031496062992126,"duration":0.23177083333331439},{"name":"G4","midi":67,"time":430.9348958333308,"velocity":0.8031496062992126,"duration":0.23177083333331439},{"name":"C4","midi":60,"time":430.9348958333308,"velocity":0.8031496062992126,"duration":0.46484374999994316},{"name":"F4","midi":65,"time":431.16796874999744,"velocity":0.8031496062992126,"duration":0.23177083333331439},{"name":"B4","midi":71,"time":431.40234374999744,"velocity":0.8031496062992126,"duration":0.23177083333331439},{"name":"D4","midi":62,"time":431.40234374999744,"velocity":0.8031496062992126,"duration":0.46484374999994316},{"name":"G4","midi":67,"time":431.63541666666407,"velocity":0.8031496062992126,"duration":0.23177083333331439},{"name":"A4","midi":69,"time":431.86979166666407,"velocity":0.8031496062992126,"duration":0.23177083333331439},{"name":"C4","midi":60,"time":431.86979166666407,"velocity":0.8031496062992126,"duration":0.46484374999994316},{"name":"G4","midi":67,"time":432.1028645833307,"velocity":0.8031496062992126,"duration":0.23177083333331439},{"name":"D5","midi":74,"time":432.338541666664,"velocity":0.8031496062992126,"duration":0.23177083333331439},{"name":"B3","midi":59,"time":432.338541666664,"velocity":0.8031496062992126,"duration":1.3997395833332007},{"name":"F4","midi":65,"time":432.57161458333064,"velocity":0.8031496062992126,"duration":0.23177083333331439},{"name":"G4","midi":67,"time":432.80598958333064,"velocity":0.8031496062992126,"duration":0.23177083333331439},{"name":"A3","midi":57,"time":432.80598958333064,"velocity":0.8031496062992126,"duration":0.46484374999994316},{"name":"A4","midi":69,"time":433.03906249999727,"velocity":0.8031496062992126,"duration":0.23177083333331439},{"name":"F4","midi":65,"time":433.27343749999727,"velocity":0.8031496062992126,"duration":0.23177083333331439},{"name":"G#3","midi":56,"time":433.27343749999727,"velocity":0.8031496062992126,"duration":0.46484374999994316},{"name":"E4","midi":64,"time":433.5065104166639,"velocity":0.8031496062992126,"duration":0.38541666666662877},{"name":"A3","midi":57,"time":433.7421874999972,"velocity":0.8031496062992126,"duration":0.46484374999994316},{"name":"B5","midi":83,"time":433.97526041666384,"velocity":0.8031496062992126,"duration":0.23177083333331439},{"name":"D5","midi":74,"time":434.20963541666384,"velocity":0.8031496062992126,"duration":0.23177083333331439},{"name":"G#3","midi":56,"time":434.20963541666384,"velocity":0.8031496062992126,"duration":0.46484374999994316},{"name":"F5","midi":77,"time":434.4427083333305,"velocity":0.8031496062992126,"duration":0.23177083333331439},{"name":"E5","midi":76,"time":434.6770833333305,"velocity":0.8031496062992126,"duration":0.23177083333331439},{"name":"F#3","midi":54,"time":434.6770833333305,"velocity":0.8031496062992126,"duration":0.46484374999994316},{"name":"D5","midi":74,"time":434.9101562499971,"velocity":0.8031496062992126,"duration":0.23177083333331439},{"name":"G#5","midi":80,"time":435.1458333333304,"velocity":0.8031496062992126,"duration":0.23177083333331439},{"name":"E3","midi":52,"time":435.1458333333304,"velocity":0.8031496062992126,"duration":0.46484374999994316},{"name":"E5","midi":76,"time":435.37890624999704,"velocity":0.8031496062992126,"duration":0.23177083333331439},{"name":"F5","midi":77,"time":435.61328124999704,"velocity":0.8031496062992126,"duration":0.23177083333331439},{"name":"B3","midi":59,"time":435.61328124999704,"velocity":0.8031496062992126,"duration":0.46484374999994316},{"name":"D3","midi":50,"time":435.61328124999704,"velocity":0.8031496062992126,"duration":0.46484374999994316},{"name":"E5","midi":76,"time":435.8463541666637,"velocity":0.8031496062992126,"duration":0.23177083333331439},{"name":"B5","midi":83,"time":436.0807291666637,"velocity":0.8031496062992126,"duration":0.23177083333331439},{"name":"C3","midi":48,"time":436.0807291666637,"velocity":0.8031496062992126,"duration":0.46484374999994316},{"name":"E3","midi":52,"time":436.0807291666637,"velocity":0.8031496062992126,"duration":0.46484374999994316},{"name":"D5","midi":74,"time":436.3138020833303,"velocity":0.8031496062992126,"duration":0.23177083333331439},{"name":"E5","midi":76,"time":436.5494791666636,"velocity":0.8031496062992126,"duration":0.23177083333331439},{"name":"G#3","midi":56,"time":436.5494791666636,"velocity":0.8031496062992126,"duration":0.46484374999994316},{"name":"B2","midi":47,"time":436.5494791666636,"velocity":0.8031496062992126,"duration":0.46484374999994316},{"name":"F5","midi":77,"time":436.78255208333024,"velocity":0.8031496062992126,"duration":0.23177083333331439},{"name":"C#5","midi":73,"time":437.01692708333024,"velocity":0.8031496062992126,"duration":0.23177083333331439},{"name":"A3","midi":57,"time":437.01692708333024,"velocity":0.8031496062992126,"duration":0.6992187499999432},{"name":"A2","midi":45,"time":437.01692708333024,"velocity":0.8031496062992126,"duration":0.6992187499999432},{"name":"B4","midi":71,"time":437.2499999999969,"velocity":0.8031496062992126,"duration":0.23177083333331439},{"name":"C#5","midi":73,"time":437.4843749999969,"velocity":0.8031496062992126,"duration":0.23177083333331439},{"name":"A4","midi":69,"time":437.7174479166635,"velocity":0.8031496062992126,"duration":0.23177083333331439},{"name":"A3","midi":57,"time":437.7174479166635,"velocity":0.8031496062992126,"duration":0.23177083333331439},{"name":"G5","midi":79,"time":437.9531249999968,"velocity":0.8031496062992126,"duration":0.6992187499999432},{"name":"A#3","midi":58,"time":437.9531249999968,"velocity":0.8031496062992126,"duration":0.23177083333331439},{"name":"A3","midi":57,"time":438.18619791666345,"velocity":0.8031496062992126,"duration":0.23177083333331439},{"name":"A#3","midi":58,"time":438.42057291666345,"velocity":0.8031496062992126,"duration":0.23177083333331439},{"name":"G5","midi":79,"time":438.6536458333301,"velocity":0.8031496062992126,"duration":0.23177083333331439},{"name":"E5","midi":76,"time":438.6536458333301,"velocity":0.8031496062992126,"duration":0.23177083333331439},{"name":"G3","midi":55,"time":438.6536458333301,"velocity":0.8031496062992126,"duration":0.23177083333331439},{"name":"E5","midi":76,"time":438.8880208333301,"velocity":0.8031496062992126,"duration":0.46354166666662877},{"name":"G5","midi":79,"time":438.8880208333301,"velocity":0.8031496062992126,"duration":0.23177083333331439},{"name":"C#4","midi":61,"time":438.8880208333301,"velocity":0.8031496062992126,"duration":0.23177083333331439},{"name":"A5","midi":81,"time":439.1210937499967,"velocity":0.8031496062992126,"duration":0.23177083333331439},{"name":"A3","midi":57,"time":439.1210937499967,"velocity":0.8031496062992126,"duration":0.23177083333331439},{"name":"D5","midi":74,"time":439.35677083333,"velocity":0.8031496062992126,"duration":0.46354166666662877},{"name":"F5","midi":77,"time":439.35677083333,"velocity":0.8031496062992126,"duration":0.23177083333331439},{"name":"D4","midi":62,"time":439.35677083333,"velocity":0.8031496062992126,"duration":0.23177083333331439},{"name":"G5","midi":79,"time":439.58984374999665,"velocity":0.8031496062992126,"duration":0.23177083333331439},{"name":"G3","midi":55,"time":439.58984374999665,"velocity":0.8031496062992126,"duration":0.23177083333331439},{"name":"C#5","midi":73,"time":439.82421874999665,"velocity":0.8031496062992126,"duration":0.9322916666665719},{"name":"F5","midi":77,"time":439.82421874999665,"velocity":0.8031496062992126,"duration":0.11588541666662877},{"name":"A3","midi":57,"time":439.82421874999665,"velocity":0.8031496062992126,"duration":1.408854166666515},{"name":"E5","midi":76,"time":439.89973958332996,"velocity":0.8031496062992126,"duration":0.11588541666668561},{"name":"F5","midi":77,"time":439.97786458332996,"velocity":0.8031496062992126,"duration":0.11588541666668561},{"name":"E5","midi":76,"time":440.05468749999665,"velocity":0.8031496062992126,"duration":0.11588541666662877},{"name":"F5","midi":77,"time":440.13020833332996,"velocity":0.8031496062992126,"duration":0.11588541666662877},{"name":"E5","midi":76,"time":440.2343749999966,"velocity":0.8031496062992126,"duration":0.2890625},{"name":"A2","midi":45,"time":440.2955729166633,"velocity":0.8031496062992126,"duration":0.46874999999994316},{"name":"A5","midi":81,"time":440.5325520833299,"velocity":0.8031496062992126,"duration":0.23307291666662877},{"name":"G5","midi":79,"time":440.7682291666632,"velocity":0.8031496062992126,"duration":0.23177083333331439},{"name":"D3","midi":50,"time":440.7682291666632,"velocity":0.8031496062992126,"duration":1.1679687499998863},{"name":"F5","midi":77,"time":441.00130208332985,"velocity":0.8031496062992126,"duration":0.23177083333331439},{"name":"E5","midi":76,"time":441.23567708332985,"velocity":0.8031496062992126,"duration":0.23177083333331439},{"name":"D5","midi":74,"time":441.4687499999965,"velocity":0.8031496062992126,"duration":0.23177083333331439},{"name":"F5","midi":77,"time":441.7044270833298,"velocity":0.8031496062992126,"duration":0.11588541666668561},{"name":"E5","midi":76,"time":441.8216145833298,"velocity":0.8031496062992126,"duration":0.11588541666662877},{"name":"F5","midi":77,"time":441.9401041666631,"velocity":0.8031496062992126,"duration":0.46484374999994316},{"name":"D3","midi":50,"time":441.9401041666631,"velocity":0.8031496062992126,"duration":0.23177083333331439},{"name":"E3","midi":52,"time":442.17317708332973,"velocity":0.8031496062992126,"duration":0.23177083333331439},{"name":"F5","midi":77,"time":442.40755208332973,"velocity":0.8031496062992126,"duration":0.23177083333331439},{"name":"F3","midi":53,"time":442.40755208332973,"velocity":0.8031496062992126,"duration":0.23177083333331439},{"name":"F5","midi":77,"time":442.64062499999636,"velocity":0.8031496062992126,"duration":0.23177083333331439},{"name":"G3","midi":55,"time":442.64062499999636,"velocity":0.8031496062992126,"duration":0.23177083333331439},{"name":"B4","midi":71,"time":442.8763020833297,"velocity":0.8031496062992126,"duration":0.23177083333331439},{"name":"G3","midi":55,"time":442.8763020833297,"velocity":0.8031496062992126,"duration":0.23177083333331439},{"name":"C5","midi":72,"time":443.1093749999963,"velocity":0.8031496062992126,"duration":0.23177083333331439},{"name":"A3","midi":57,"time":443.1093749999963,"velocity":0.8031496062992126,"duration":0.23177083333331439},{"name":"D5","midi":74,"time":443.3437499999963,"velocity":0.8031496062992126,"duration":0.23177083333331439},{"name":"B3","midi":59,"time":443.3437499999963,"velocity":0.8031496062992126,"duration":0.23177083333331439},{"name":"E5","midi":76,"time":443.57682291666293,"velocity":0.8031496062992126,"duration":0.6992187499999432},{"name":"C4","midi":60,"time":443.57682291666293,"velocity":0.8031496062992126,"duration":0.23177083333331439},{"name":"C4","midi":60,"time":443.81119791666293,"velocity":0.8031496062992126,"duration":0.23177083333331439},{"name":"D4","midi":62,"time":444.04427083332956,"velocity":0.8031496062992126,"duration":0.23177083333331439},{"name":"E5","midi":76,"time":444.2799479166629,"velocity":0.8031496062992126,"duration":0.23177083333331439},{"name":"E4","midi":64,"time":444.2799479166629,"velocity":0.8031496062992126,"duration":0.23177083333331439},{"name":"E5","midi":76,"time":444.5130208333295,"velocity":0.8031496062992126,"duration":0.23177083333331439},{"name":"F4","midi":65,"time":444.5130208333295,"velocity":0.8031496062992126,"duration":1.1679687499999432},{"name":"C5","midi":72,"time":444.7473958333295,"velocity":0.8031496062992126,"duration":0.23177083333331439},{"name":"B4","midi":71,"time":444.98046874999613,"velocity":0.8031496062992126,"duration":0.23177083333331439},{"name":"A4","midi":69,"time":445.21484374999613,"velocity":0.8031496062992126,"duration":0.23177083333331439},{"name":"D5","midi":74,"time":445.44791666666276,"velocity":0.8031496062992126,"duration":0.11588541666668561},{"name":"C5","midi":72,"time":445.56770833332945,"velocity":0.8031496062992126,"duration":0.11588541666668561},{"name":"D5","midi":74,"time":445.68489583332945,"velocity":0.8031496062992126,"duration":0.46484375},{"name":"B2","midi":47,"time":445.68489583332945,"velocity":0.8031496062992126,"duration":0.23177083333331439},{"name":"C3","midi":48,"time":445.91927083332945,"velocity":0.8031496062992126,"duration":0.23177083333331439},{"name":"D5","midi":74,"time":446.1523437499961,"velocity":0.8031496062992126,"duration":0.23177083333331439},{"name":"D3","midi":50,"time":446.1523437499961,"velocity":0.8031496062992126,"duration":0.23177083333331439},{"name":"D5","midi":74,"time":446.3867187499961,"velocity":0.8031496062992126,"duration":0.23177083333331439},{"name":"E3","midi":52,"time":446.3867187499961,"velocity":0.8031496062992126,"duration":0.23177083333331439},{"name":"G#4","midi":68,"time":446.6197916666627,"velocity":0.8031496062992126,"duration":0.23177083333331439},{"name":"E3","midi":52,"time":446.6197916666627,"velocity":0.8031496062992126,"duration":0.23177083333331439},{"name":"A4","midi":69,"time":446.855468749996,"velocity":0.8031496062992126,"duration":0.23177083333331439},{"name":"F#3","midi":54,"time":446.855468749996,"velocity":0.8031496062992126,"duration":0.23177083333331439},{"name":"B4","midi":71,"time":447.08854166666265,"velocity":0.8031496062992126,"duration":0.23177083333331439},{"name":"G#3","midi":56,"time":447.08854166666265,"velocity":0.8031496062992126,"duration":0.23177083333331439},{"name":"C5","midi":72,"time":447.32291666666265,"velocity":0.8031496062992126,"duration":0.6992187499999432},{"name":"A3","midi":57,"time":447.32291666666265,"velocity":0.8031496062992126,"duration":0.23177083333331439},{"name":"A3","midi":57,"time":447.5559895833293,"velocity":0.8031496062992126,"duration":0.23177083333331439},{"name":"B3","midi":59,"time":447.7903645833293,"velocity":0.8031496062992126,"duration":0.23177083333331439},{"name":"C5","midi":72,"time":448.0234374999959,"velocity":0.8031496062992126,"duration":0.23177083333331439},{"name":"C4","midi":60,"time":448.0234374999959,"velocity":0.8031496062992126,"duration":0.23177083333331439},{"name":"C5","midi":72,"time":448.2591145833292,"velocity":0.8031496062992126,"duration":0.23177083333331439},{"name":"D4","midi":62,"time":448.2591145833292,"velocity":0.8031496062992126,"duration":1.166666666666572},{"name":"A4","midi":69,"time":448.49218749999585,"velocity":0.8031496062992126,"duration":0.23177083333331439},{"name":"G4","midi":67,"time":448.72656249999585,"velocity":0.8031496062992126,"duration":0.23177083333331439},{"name":"F4","midi":65,"time":448.9596354166625,"velocity":0.8031496062992126,"duration":0.23177083333331439},{"name":"A#4","midi":70,"time":449.1940104166625,"velocity":0.8031496062992126,"duration":0.27604166666662877},{"name":"A4","midi":69,"time":449.4270833333291,"velocity":0.8031496062992126,"duration":0.23177083333331439},{"name":"F3","midi":53,"time":449.4270833333291,"velocity":0.8031496062992126,"duration":0.23177083333331439},{"name":"G#4","midi":68,"time":449.6627604166624,"velocity":0.8031496062992126,"duration":0.23177083333331439},{"name":"E3","midi":52,"time":449.6627604166624,"velocity":0.8031496062992126,"duration":0.23177083333331439},{"name":"A4","midi":69,"time":449.89583333332905,"velocity":0.8031496062992126,"duration":0.2760416666666856},{"name":"D3","midi":50,"time":449.89583333332905,"velocity":0.8031496062992126,"duration":0.23177083333331439},{"name":"D4","midi":62,"time":450.13020833332905,"velocity":0.8031496062992126,"duration":0.2760416666666856},{"name":"G#3","midi":56,"time":450.13020833332905,"velocity":0.8031496062992126,"duration":0.23177083333337123},{"name":"G#4","midi":68,"time":450.36328124999574,"velocity":0.8031496062992126,"duration":0.23177083333331439},{"name":"E3","midi":52,"time":450.36328124999574,"velocity":0.8031496062992126,"duration":0.23177083333331439},{"name":"A4","midi":69,"time":450.59765624999574,"velocity":0.8031496062992126,"duration":0.23177083333331439},{"name":"F3","midi":53,"time":450.59765624999574,"velocity":0.8031496062992126,"duration":0.23177083333331439},{"name":"B4","midi":71,"time":450.83072916666237,"velocity":0.8031496062992126,"duration":0.23177083333331439},{"name":"E3","midi":52,"time":450.83072916666237,"velocity":0.8031496062992126,"duration":0.23177083333331439},{"name":"C5","midi":72,"time":451.0664062499957,"velocity":0.8031496062992126,"duration":0.23177083333331439},{"name":"A3","midi":57,"time":451.0664062499957,"velocity":0.8031496062992126,"duration":0.23177083333331439},{"name":"B4","midi":71,"time":451.2994791666623,"velocity":0.8031496062992126,"duration":0.23177083333331439},{"name":"D3","midi":50,"time":451.2994791666623,"velocity":0.8031496062992126,"duration":0.23177083333331439},{"name":"C5","midi":72,"time":451.5338541666623,"velocity":0.8031496062992126,"duration":0.23177083333331439},{"name":"E3","midi":52,"time":451.5338541666623,"velocity":0.8031496062992126,"duration":0.23177083333331439},{"name":"A4","midi":69,"time":451.76692708332894,"velocity":0.8031496062992126,"duration":0.23177083333331439},{"name":"F3","midi":53,"time":451.76692708332894,"velocity":0.8031496062992126,"duration":0.23177083333331439},{"name":"B4","midi":71,"time":452.00130208332894,"velocity":0.8031496062992126,"duration":0.5520833333332575},{"name":"G#2","midi":44,"time":452.00130208332894,"velocity":0.8031496062992126,"duration":0.23177083333331439},{"name":"G#2","midi":44,"time":452.23437499999557,"velocity":0.8031496062992126,"duration":0.23177083333331439},{"name":"E4","midi":64,"time":452.4700520833289,"velocity":0.8031496062992126,"duration":0.38541666666662877},{"name":"A2","midi":45,"time":452.4700520833289,"velocity":0.8031496062992126,"duration":0.23177083333331439},{"name":"B2","midi":47,"time":452.7031249999955,"velocity":0.8031496062992126,"duration":0.23177083333331439},{"name":"E5","midi":76,"time":452.9374999999955,"velocity":0.8031496062992126,"duration":0.11588541666668561},{"name":"C3","midi":48,"time":452.9374999999955,"velocity":0.8031496062992126,"duration":0.23307291666668561},{"name":"D5","midi":74,"time":453.0546874999955,"velocity":0.8031496062992126,"duration":0.11588541666668561},{"name":"E5","midi":76,"time":453.1731770833289,"velocity":0.8031496062992126,"duration":0.46484374999994316},{"name":"C3","midi":48,"time":453.1731770833289,"velocity":0.8031496062992126,"duration":0.23177083333331439},{"name":"D3","midi":50,"time":453.4062499999955,"velocity":0.8031496062992126,"duration":0.23177083333331439},{"name":"E5","midi":76,"time":453.6419270833288,"velocity":0.8031496062992126,"duration":0.23177083333331439},{"name":"E3","midi":52,"time":453.6419270833288,"velocity":0.8031496062992126,"duration":0.23177083333331439},{"name":"E5","midi":76,"time":453.87499999999545,"velocity":0.8031496062992126,"duration":0.23177083333331439},{"name":"F3","midi":53,"time":453.87499999999545,"velocity":0.8031496062992126,"duration":1.1679687499999432},{"name":"C5","midi":72,"time":454.10937499999545,"velocity":0.8031496062992126,"duration":0.23177083333331439},{"name":"B4","midi":71,"time":454.3424479166621,"velocity":0.8031496062992126,"duration":0.23177083333331439},{"name":"A4","midi":69,"time":454.5768229166621,"velocity":0.8031496062992126,"duration":0.23177083333331439},{"name":"A5","midi":81,"time":454.8098958333287,"velocity":0.8031496062992126,"duration":0.11588541666668561},{"name":"G5","midi":79,"time":454.9296874999954,"velocity":0.8031496062992126,"duration":0.11588541666668561},{"name":"A5","midi":81,"time":455.0468749999954,"velocity":0.8031496062992126,"duration":0.46484375},{"name":"D3","midi":50,"time":455.0468749999954,"velocity":0.8031496062992126,"duration":0.23177083333331439},{"name":"E3","midi":52,"time":455.2812499999954,"velocity":0.8031496062992126,"duration":0.23177083333331439},{"name":"A5","midi":81,"time":455.514322916662,"velocity":0.8031496062992126,"duration":0.23177083333331439},{"name":"F3","midi":53,"time":455.514322916662,"velocity":0.8031496062992126,"duration":0.23177083333331439},{"name":"A5","midi":81,"time":455.748697916662,"velocity":0.8031496062992126,"duration":0.23177083333331439},{"name":"B2","midi":47,"time":455.748697916662,"velocity":0.8031496062992126,"duration":0.23177083333331439},{"name":"F5","midi":77,"time":455.98177083332865,"velocity":0.8031496062992126,"duration":0.23177083333331439},{"name":"B2","midi":47,"time":455.98177083332865,"velocity":0.8031496062992126,"duration":0.23177083333331439},{"name":"E5","midi":76,"time":456.21744791666197,"velocity":0.8031496062992126,"duration":0.23177083333331439},{"name":"C3","midi":48,"time":456.21744791666197,"velocity":0.8031496062992126,"duration":0.23177083333331439},{"name":"D5","midi":74,"time":456.4505208333286,"velocity":0.8031496062992126,"duration":0.9609375},{"name":"D3","midi":50,"time":456.4505208333286,"velocity":0.8031496062992126,"duration":0.23177083333331439},{"name":"B5","midi":83,"time":456.6848958333286,"velocity":0.8031496062992126,"duration":0.7369791666666288},{"name":"G#2","midi":44,"time":456.6848958333286,"velocity":0.8031496062992126,"duration":0.24348958333331439},{"name":"G#2","midi":44,"time":456.9309895833286,"velocity":0.8031496062992126,"duration":0.24348958333331439},{"name":"A2","midi":45,"time":457.1770833333286,"velocity":0.8031496062992126,"duration":0.24348958333331439},{"name":"D5","midi":74,"time":457.42317708332854,"velocity":0.8031496062992126,"duration":0.24348958333331439},{"name":"B5","midi":83,"time":457.42317708332854,"velocity":0.8031496062992126,"duration":0.24348958333331439},{"name":"B2","midi":47,"time":457.42317708332854,"velocity":0.8031496062992126,"duration":0.24348958333331439},{"name":"D5","midi":74,"time":457.67057291666185,"velocity":0.8031496062992126,"duration":0.5429687500000568},{"name":"B5","midi":83,"time":457.67057291666185,"velocity":0.8031496062992126,"duration":0.2721354166666856},{"name":"E2","midi":40,"time":457.67057291666185,"velocity":0.8031496062992126,"duration":0.5455729166666856},{"name":"A5","midi":81,"time":457.9453124999952,"velocity":0.8031496062992126,"duration":0.1328125},{"name":"G#5","midi":80,"time":458.0820312499952,"velocity":0.8031496062992126,"duration":0.1328125},{"name":"A5","midi":81,"time":458.2187499999952,"velocity":0.8031496062992126,"duration":0.2721354166666856},{"name":"C5","midi":72,"time":458.2187499999952,"velocity":0.8031496062992126,"duration":0.2721354166666856},{"name":"C3","midi":48,"time":458.2187499999952,"velocity":0.8031496062992126,"duration":0.2721354166666856},{"name":"B4","midi":71,"time":458.4947916666619,"velocity":0.8031496062992126,"duration":0.2721354166666856},{"name":"D5","midi":74,"time":458.4947916666619,"velocity":0.8031496062992126,"duration":0.2721354166666856},{"name":"D3","midi":50,"time":458.4947916666619,"velocity":0.8031496062992126,"duration":0.2721354166666856},{"name":"A4","midi":69,"time":458.7695312499953,"velocity":0.8031496062992126,"duration":0.5416666666666856},{"name":"D5","midi":74,"time":458.7695312499953,"velocity":0.8031496062992126,"duration":0.1328125},{"name":"E3","midi":52,"time":458.7695312499953,"velocity":0.8031496062992126,"duration":0.54296875},{"name":"C5","midi":72,"time":458.90494791666197,"velocity":0.8031496062992126,"duration":0.1328125},{"name":"D5","midi":74,"time":459.04166666666197,"velocity":0.8031496062992126,"duration":0.1328125},{"name":"C5","midi":72,"time":459.17838541666197,"velocity":0.8031496062992126,"duration":0.1328125},{"name":"B4","midi":71,"time":459.31510416666197,"velocity":0.8031496062992126,"duration":0.2721354166666856},{"name":"G#4","midi":68,"time":459.31510416666197,"velocity":0.8031496062992126,"duration":0.2721354166666856},{"name":"E2","midi":40,"time":459.31510416666197,"velocity":0.8031496062992126,"duration":0.546875},{"name":"A4","midi":69,"time":459.59114583332865,"velocity":0.8031496062992126,"duration":0.27213541666662877},{"name":"A4","midi":69,"time":459.86588541666197,"velocity":0.8031496062992126,"duration":2.4492187500001705},{"name":"A2","midi":45,"time":459.86588541666197,"velocity":0.8031496062992126,"duration":2.131510416666856},{"name":"G4","midi":67,"time":460.13411458332865,"velocity":0.8031496062992126,"duration":0.2643229166666856},{"name":"F4","midi":65,"time":460.39973958332865,"velocity":0.8031496062992126,"duration":0.2643229166666856},{"name":"E4","midi":64,"time":460.66796874999534,"velocity":0.8031496062992126,"duration":0.2643229166666856},{"name":"C#3","midi":49,"time":460.66796874999534,"velocity":0.8031496062992126,"duration":0.2643229166666856},{"name":"F4","midi":65,"time":460.9348958333287,"velocity":0.8031496062992126,"duration":0.2643229166666856},{"name":"D3","midi":50,"time":460.9348958333287,"velocity":0.8031496062992126,"duration":0.2643229166666856},{"name":"C#4","midi":61,"time":461.2018229166621,"velocity":0.8031496062992126,"duration":0.2643229166666856},{"name":"E3","midi":52,"time":461.2018229166621,"velocity":0.8031496062992126,"duration":0.2643229166666856},{"name":"D4","midi":62,"time":461.46874999999545,"velocity":0.8031496062992126,"duration":0.5260416666666856},{"name":"F3","midi":53,"time":461.46874999999545,"velocity":0.8031496062992126,"duration":0.2643229166666856},{"name":"F4","midi":65,"time":461.73697916666214,"velocity":0.8031496062992126,"duration":0.26171875},{"name":"G#3","midi":56,"time":461.73697916666214,"velocity":0.8031496062992126,"duration":0.26171875},{"name":"C#4","midi":61,"time":462.0013020833288,"velocity":0.8031496062992126,"duration":3.9635416666666288},{"name":"A3","midi":57,"time":462.0013020833288,"velocity":0.8031496062992126,"duration":1.328125},{"name":"E4","midi":64,"time":462.16276041666214,"velocity":0.8031496062992126,"duration":3.8033854166666288},{"name":"A4","midi":69,"time":462.32421874999545,"velocity":0.8031496062992126,"duration":3.67578125},{"name":"A2","midi":45,"time":462.32421874999545,"velocity":0.8031496062992126,"duration":3.625},{"name":"C#3","midi":49,"time":462.64713541666214,"velocity":0.8031496062992126,"duration":0.3177083333333144},{"name":"E3","midi":52,"time":462.98307291666214,"velocity":0.8031496062992126,"duration":0.4192708333333144},{"name":"A3","midi":57,"time":463.39713541666214,"velocity":0.8031496062992126,"duration":2.5533854166666288},{"name":"A4","midi":69,"time":466.91276041666214,"velocity":0.8031496062992126,"duration":0.4544270833333144},{"name":"A4","midi":69,"time":467.38802083332877,"velocity":0.8031496062992126,"duration":0.71484375},{"name":"E4","midi":64,"time":467.38802083332877,"velocity":0.8031496062992126,"duration":0.71484375},{"name":"C4","midi":60,"time":467.38802083332877,"velocity":0.8031496062992126,"duration":0.71484375},{"name":"A3","midi":57,"time":467.38802083332877,"velocity":0.8031496062992126,"duration":0.4765625},{"name":"E3","midi":52,"time":467.8658854166621,"velocity":0.8031496062992126,"duration":0.4739583333333144},{"name":"B4","midi":71,"time":468.1041666666621,"velocity":0.8031496062992126,"duration":0.23567708333331439},{"name":"C5","midi":72,"time":468.3424479166621,"velocity":0.8031496062992126,"duration":0.23567708333331439},{"name":"A2","midi":45,"time":468.3424479166621,"velocity":0.8031496062992126,"duration":0.4739583333333144},{"name":"D5","midi":74,"time":468.5807291666621,"velocity":0.8031496062992126,"duration":0.23567708333331439},{"name":"E5","midi":76,"time":468.8190104166621,"velocity":0.8031496062992126,"duration":0.23567708333331439},{"name":"A3","midi":57,"time":468.8190104166621,"velocity":0.8031496062992126,"duration":0.4739583333333144},{"name":"F5","midi":77,"time":469.0572916666621,"velocity":0.8031496062992126,"duration":0.23567708333331439},{"name":"E5","midi":76,"time":469.2955729166621,"velocity":0.8031496062992126,"duration":0.23567708333331439},{"name":"G#3","midi":56,"time":469.2955729166621,"velocity":0.8031496062992126,"duration":0.4739583333333144},{"name":"D5","midi":74,"time":469.5338541666621,"velocity":0.8031496062992126,"duration":0.23567708333331439},{"name":"C5","midi":72,"time":469.7721354166621,"velocity":0.8031496062992126,"duration":0.23567708333331439},{"name":"E3","midi":52,"time":469.7721354166621,"velocity":0.8031496062992126,"duration":0.4739583333333144},{"name":"B4","midi":71,"time":470.0104166666621,"velocity":0.8031496062992126,"duration":0.23567708333331439},{"name":"C5","midi":72,"time":470.2486979166621,"velocity":0.8031496062992126,"duration":0.1171875},{"name":"A3","midi":57,"time":470.2486979166621,"velocity":0.8031496062992126,"duration":0.23567708333337123},{"name":"B4","midi":71,"time":470.36848958332877,"velocity":0.8031496062992126,"duration":0.1171875},{"name":"C5","midi":72,"time":470.4869791666621,"velocity":0.8031496062992126,"duration":0.4739583333333144},{"name":"A2","midi":45,"time":470.4869791666621,"velocity":0.8031496062992126,"duration":0.23567708333331439},{"name":"A3","midi":57,"time":470.7252604166621,"velocity":0.8031496062992126,"duration":0.23567708333331439},{"name":"B4","midi":71,"time":470.9635416666621,"velocity":0.8031496062992126,"duration":0.23567708333331439},{"name":"B3","midi":59,"time":470.9635416666621,"velocity":0.8031496062992126,"duration":0.23567708333331439},{"name":"A4","midi":69,"time":471.2018229166621,"velocity":0.8031496062992126,"duration":0.4739583333333144},{"name":"C4","midi":60,"time":471.2018229166621,"velocity":0.8031496062992126,"duration":0.23567708333331439},{"name":"D4","midi":62,"time":471.4401041666621,"velocity":0.8031496062992126,"duration":0.23567708333331439},{"name":"A5","midi":81,"time":471.6783854166621,"velocity":0.8031496062992126,"duration":0.4739583333333144},{"name":"E4","midi":64,"time":471.6783854166621,"velocity":0.8031496062992126,"duration":0.23567708333331439},{"name":"F4","midi":65,"time":471.9166666666621,"velocity":0.8031496062992126,"duration":0.23567708333331439},{"name":"G#5","midi":80,"time":472.1549479166621,"velocity":0.8031496062992126,"duration":0.4739583333333144},{"name":"E4","midi":64,"time":472.1549479166621,"velocity":0.8031496062992126,"duration":0.23567708333331439},{"name":"D4","midi":62,"time":472.3932291666621,"velocity":0.8031496062992126,"duration":0.23567708333331439},{"name":"A5","midi":81,"time":472.6315104166621,"velocity":0.8031496062992126,"duration":0.1171875},{"name":"C4","midi":60,"time":472.6315104166621,"velocity":0.8031496062992126,"duration":0.23567708333337123},{"name":"G#5","midi":80,"time":472.75130208332877,"velocity":0.8031496062992126,"duration":0.1171875},{"name":"A5","midi":81,"time":472.8697916666621,"velocity":0.8031496062992126,"duration":0.1171875},{"name":"B3","midi":59,"time":472.8697916666621,"velocity":0.8031496062992126,"duration":0.23567708333337123},{"name":"B5","midi":83,"time":472.98958333332877,"velocity":0.8031496062992126,"duration":0.1171875},{"name":"E5","midi":76,"time":473.1080729166621,"velocity":0.8031496062992126,"duration":0.7161458333333144},{"name":"C4","midi":60,"time":473.1080729166621,"velocity":0.8031496062992126,"duration":0.71484375},{"name":"E4","midi":64,"time":473.34895833332877,"velocity":0.8031496062992126,"duration":0.23567708333331439},{"name":"A4","midi":69,"time":473.58723958332877,"velocity":0.8031496062992126,"duration":0.9544270833333144},{"name":"G5","midi":79,"time":473.8268229166621,"velocity":0.8031496062992126,"duration":0.23567708333331439},{"name":"C#4","midi":61,"time":473.8268229166621,"velocity":0.8031496062992126,"duration":0.23567708333331439},{"name":"F5","midi":77,"time":474.0651041666621,"velocity":0.8031496062992126,"duration":0.23567708333331439},{"name":"D4","midi":62,"time":474.0651041666621,"velocity":0.8031496062992126,"duration":0.4739583333333144},{"name":"E5","midi":76,"time":474.3033854166621,"velocity":0.8031496062992126,"duration":0.23567708333331439},{"name":"D5","midi":74,"time":474.54427083332877,"velocity":0.8031496062992126,"duration":0.23567708333331439},{"name":"G#4","midi":68,"time":474.54427083332877,"velocity":0.8031496062992126,"duration":0.47265625},{"name":"B3","midi":59,"time":474.54427083332877,"velocity":0.8031496062992126,"duration":0.4739583333333144},{"name":"F5","midi":77,"time":474.78255208332877,"velocity":0.8031496062992126,"duration":0.23567708333331439},{"name":"A4","midi":69,"time":475.02083333332877,"velocity":0.8031496062992126,"duration":0.953125},{"name":"E5","midi":76,"time":475.02083333332877,"velocity":0.8031496062992126,"duration":0.23567708333331439},{"name":"C4","midi":60,"time":475.02083333332877,"velocity":0.8031496062992126,"duration":0.4739583333333144},{"name":"D5","midi":74,"time":475.25911458332877,"velocity":0.8031496062992126,"duration":0.23567708333331439},{"name":"E5","midi":76,"time":475.49739583332877,"velocity":0.8031496062992126,"duration":0.23567708333331439},{"name":"D4","midi":62,"time":475.49739583332877,"velocity":0.8031496062992126,"duration":0.4739583333333144},{"name":"F5","midi":77,"time":475.73567708332877,"velocity":0.8031496062992126,"duration":0.23567708333331439},{"name":"C5","midi":72,"time":475.9752604166621,"velocity":0.8031496062992126,"duration":0.1171875},{"name":"E4","midi":64,"time":475.9752604166621,"velocity":0.8031496062992126,"duration":0.7122395833333144},{"name":"B4","midi":71,"time":476.09505208332877,"velocity":0.8031496062992126,"duration":0.953125},{"name":"A4","midi":69,"time":476.2135416666621,"velocity":0.8031496062992126,"duration":0.23567708333331439},{"name":"G#4","midi":68,"time":476.4518229166621,"velocity":0.8031496062992126,"duration":0.47265625},{"name":"E4","midi":64,"time":476.6901041666621,"velocity":0.8031496062992126,"duration":0.23567708333331439},{"name":"D4","midi":62,"time":476.9283854166621,"velocity":0.8031496062992126,"duration":0.23828125},{"name":"C4","midi":60,"time":477.16927083332877,"velocity":0.8031496062992126,"duration":0.23567708333331439},{"name":"G#4","midi":68,"time":477.40755208332877,"velocity":0.8031496062992126,"duration":0.23567708333331439},{"name":"B3","midi":59,"time":477.40755208332877,"velocity":0.8031496062992126,"duration":0.23567708333331439},{"name":"A4","midi":69,"time":477.64583333332877,"velocity":0.8031496062992126,"duration":0.23567708333331439},{"name":"D4","midi":62,"time":477.64583333332877,"velocity":0.8031496062992126,"duration":0.23567708333331439},{"name":"B4","midi":71,"time":477.88411458332877,"velocity":0.8031496062992126,"duration":0.14322916666668561},{"name":"C4","midi":60,"time":477.88411458332877,"velocity":0.8031496062992126,"duration":0.23567708333337123},{"name":"A4","midi":69,"time":478.01692708332877,"velocity":0.8031496062992126,"duration":0.09114583333337123},{"name":"B4","midi":71,"time":478.10807291666214,"velocity":0.8031496062992126,"duration":0.09114583333337123},{"name":"B3","midi":59,"time":478.1223958333288,"velocity":0.8031496062992126,"duration":0.23567708333337123},{"name":"A4","midi":69,"time":478.1992187499955,"velocity":0.8031496062992126,"duration":0.09114583333331439},{"name":"B4","midi":71,"time":478.2968749999955,"velocity":0.8031496062992126,"duration":0.09114583333337123},{"name":"C4","midi":60,"time":478.3606770833289,"velocity":0.8031496062992126,"duration":0.23567708333331439},{"name":"A4","midi":69,"time":478.3815104166622,"velocity":0.8031496062992126,"duration":0.09114583333337123},{"name":"B4","midi":71,"time":478.47265624999557,"velocity":0.8031496062992126,"duration":0.09114583333331439},{"name":"A4","midi":69,"time":478.5638020833289,"velocity":0.8031496062992126,"duration":0.09114583333331439},{"name":"D4","midi":62,"time":478.5989583333289,"velocity":0.8031496062992126,"duration":0.23567708333331439},{"name":"G#4","midi":68,"time":478.6549479166622,"velocity":0.8031496062992126,"duration":0.09114583333331439},{"name":"A4","midi":69,"time":478.7460937499955,"velocity":0.8031496062992126,"duration":0.09114583333337123},{"name":"B4","midi":71,"time":478.8372395833289,"velocity":0.8031496062992126,"duration":0.6510416666666856},{"name":"G#3","midi":56,"time":478.8372395833289,"velocity":0.8031496062992126,"duration":0.23567708333331439},{"name":"B3","midi":59,"time":479.0755208333289,"velocity":0.8031496062992126,"duration":0.23567708333331439},{"name":"A3","midi":57,"time":479.3138020833289,"velocity":0.8031496062992126,"duration":0.23567708333337123},{"name":"C5","midi":72,"time":479.55208333332894,"velocity":0.8031496062992126,"duration":0.23567708333331439},{"name":"G#3","midi":56,"time":479.55208333332894,"velocity":0.8031496062992126,"duration":0.23567708333331439},{"name":"D5","midi":74,"time":479.79036458332894,"velocity":0.8031496062992126,"duration":0.23567708333331439},{"name":"F#3","midi":54,"time":479.79036458332894,"velocity":0.8031496062992126,"duration":0.23567708333331439},{"name":"B4","midi":71,"time":480.02864583332894,"velocity":0.8031496062992126,"duration":0.23567708333331439},{"name":"E3","midi":52,"time":480.02864583332894,"velocity":0.8031496062992126,"duration":0.23567708333331439},{"name":"C5","midi":72,"time":480.26692708332894,"velocity":0.8031496062992126,"duration":0.23567708333331439},{"name":"A3","midi":57,"time":480.26692708332894,"velocity":0.8031496062992126,"duration":0.23567708333331439},{"name":"D5","midi":74,"time":480.50520833332894,"velocity":0.8031496062992126,"duration":0.23567708333331439},{"name":"G3","midi":55,"time":480.50520833332894,"velocity":0.8031496062992126,"duration":0.23567708333331439},{"name":"F3","midi":53,"time":480.74348958332894,"velocity":0.8031496062992126,"duration":0.23567708333331439},{"name":"E5","midi":76,"time":480.74348958332894,"velocity":0.8031496062992126,"duration":0.14322916666668561},{"name":"D5","midi":74,"time":480.88802083332894,"velocity":0.8031496062992126,"duration":0.09114583333331439},{"name":"E5","midi":76,"time":480.97916666666225,"velocity":0.8031496062992126,"duration":0.09114583333337123},{"name":"E3","midi":52,"time":480.98177083332894,"velocity":0.8031496062992126,"duration":0.23567708333337123},{"name":"D5","midi":74,"time":481.0703124999956,"velocity":0.8031496062992126,"duration":0.09114583333331439},{"name":"E5","midi":76,"time":481.1679687499956,"velocity":0.8031496062992126,"duration":0.09114583333337123},{"name":"F3","midi":53,"time":481.220052083329,"velocity":0.8031496062992126,"duration":0.23567708333331439},{"name":"D5","midi":74,"time":481.2526041666623,"velocity":0.8031496062992126,"duration":0.09114583333337123},{"name":"E5","midi":76,"time":481.3437499999957,"velocity":0.8031496062992126,"duration":0.09114583333331439},{"name":"D5","midi":74,"time":481.434895833329,"velocity":0.8031496062992126,"duration":0.09114583333331439},{"name":"G3","midi":55,"time":481.458333333329,"velocity":0.8031496062992126,"duration":0.23567708333331439},{"name":"C5","midi":72,"time":481.5260416666623,"velocity":0.8031496062992126,"duration":0.09114583333331439},{"name":"D5","midi":74,"time":481.6171874999956,"velocity":0.8031496062992126,"duration":0.09114583333337123},{"name":"E5","midi":76,"time":481.696614583329,"velocity":0.8031496062992126,"duration":0.6510416666666856},{"name":"C3","midi":48,"time":481.696614583329,"velocity":0.8031496062992126,"duration":0.23567708333331439},{"name":"F3","midi":53,"time":481.934895833329,"velocity":0.8031496062992126,"duration":0.23567708333331439},{"name":"E3","midi":52,"time":482.173177083329,"velocity":0.8031496062992126,"duration":0.23567708333337123},{"name":"F5","midi":77,"time":482.41145833332905,"velocity":0.8031496062992126,"duration":0.23567708333331439},{"name":"D3","midi":50,"time":482.41145833332905,"velocity":0.8031496062992126,"duration":0.23567708333331439},{"name":"G5","midi":79,"time":482.64973958332905,"velocity":0.8031496062992126,"duration":0.23567708333331439},{"name":"C3","midi":48,"time":482.64973958332905,"velocity":0.8031496062992126,"duration":0.23567708333331439},{"name":"E5","midi":76,"time":482.88802083332905,"velocity":0.8031496062992126,"duration":0.23567708333331439},{"name":"A#2","midi":46,"time":482.88802083332905,"velocity":0.8031496062992126,"duration":0.23567708333331439},{"name":"F5","midi":77,"time":483.12630208332905,"velocity":0.8031496062992126,"duration":0.23567708333331439},{"name":"A2","midi":45,"time":483.12630208332905,"velocity":0.8031496062992126,"duration":0.23567708333331439},{"name":"G5","midi":79,"time":483.36458333332905,"velocity":0.8031496062992126,"duration":0.23567708333331439},{"name":"C3","midi":48,"time":483.36458333332905,"velocity":0.8031496062992126,"duration":0.23567708333331439},{"name":"A5","midi":81,"time":483.60286458332905,"velocity":0.8031496062992126,"duration":0.14322916666668561},{"name":"A#2","midi":46,"time":483.60286458332905,"velocity":0.8031496062992126,"duration":0.23567708333331439},{"name":"G5","midi":79,"time":483.74739583332905,"velocity":0.8031496062992126,"duration":0.09114583333331439},{"name":"A5","midi":81,"time":483.83854166666237,"velocity":0.8031496062992126,"duration":0.09114583333337123},{"name":"A2","midi":45,"time":483.84114583332905,"velocity":0.8031496062992126,"duration":0.23567708333337123},{"name":"G5","midi":79,"time":483.92968749999574,"velocity":0.8031496062992126,"duration":0.09114583333331439},{"name":"A5","midi":81,"time":484.02734374999574,"velocity":0.8031496062992126,"duration":0.09114583333337123},{"name":"A#2","midi":46,"time":484.0794270833291,"velocity":0.8031496062992126,"duration":0.23567708333331439},{"name":"G5","midi":79,"time":484.1119791666624,"velocity":0.8031496062992126,"duration":0.09114583333337123},{"name":"A5","midi":81,"time":484.2031249999958,"velocity":0.8031496062992126,"duration":0.09114583333331439},{"name":"G5","midi":79,"time":484.2942708333291,"velocity":0.8031496062992126,"duration":0.09114583333331439},{"name":"C3","midi":48,"time":484.3177083333291,"velocity":0.8031496062992126,"duration":0.23567708333331439},{"name":"F5","midi":77,"time":484.3854166666624,"velocity":0.8031496062992126,"duration":0.09114583333331439},{"name":"G5","midi":79,"time":484.47656249999574,"velocity":0.8031496062992126,"duration":0.09114583333337123},{"name":"A5","midi":81,"time":484.5559895833291,"velocity":0.8031496062992126,"duration":0.23567708333331439},{"name":"F2","midi":41,"time":484.5559895833291,"velocity":0.8031496062992126,"duration":0.4739583333333144},{"name":"A#5","midi":82,"time":484.7942708333291,"velocity":0.8031496062992126,"duration":0.23567708333331439},{"name":"A5","midi":81,"time":485.0325520833291,"velocity":0.8031496062992126,"duration":0.23567708333331439},{"name":"F3","midi":53,"time":485.0325520833291,"velocity":0.8031496062992126,"duration":0.23567708333331439},{"name":"G5","midi":79,"time":485.2708333333291,"velocity":0.8031496062992126,"duration":0.23567708333331439},{"name":"G3","midi":55,"time":485.2708333333291,"velocity":0.8031496062992126,"duration":0.23567708333331439},{"name":"F5","midi":77,"time":485.5091145833291,"velocity":0.8031496062992126,"duration":0.23567708333331439},{"name":"A3","midi":57,"time":485.5091145833291,"velocity":0.8031496062992126,"duration":0.23567708333331439},{"name":"E5","midi":76,"time":485.7473958333291,"velocity":0.8031496062992126,"duration":0.23567708333331439},{"name":"G3","midi":55,"time":485.7473958333291,"velocity":0.8031496062992126,"duration":0.23567708333331439},{"name":"D5","midi":74,"time":485.9856770833291,"velocity":0.8031496062992126,"duration":0.23567708333331439},{"name":"F3","midi":53,"time":485.9856770833291,"velocity":0.8031496062992126,"duration":0.23567708333331439},{"name":"C5","midi":72,"time":486.2239583333291,"velocity":0.8031496062992126,"duration":0.22135416666668561},{"name":"E3","midi":52,"time":486.2239583333291,"velocity":0.8031496062992126,"duration":0.23567708333337123},{"name":"F5","midi":77,"time":486.46223958332916,"velocity":0.8031496062992126,"duration":0.1171875},{"name":"D3","midi":50,"time":486.46223958332916,"velocity":0.8031496062992126,"duration":0.23567708333331439},{"name":"E5","midi":76,"time":486.5807291666625,"velocity":0.8031496062992126,"duration":0.1171875},{"name":"F5","midi":77,"time":486.70052083332916,"velocity":0.8031496062992126,"duration":0.4739583333333144},{"name":"C3","midi":48,"time":486.70052083332916,"velocity":0.8031496062992126,"duration":0.23567708333331439},{"name":"B2","midi":47,"time":486.93880208332916,"velocity":0.8031496062992126,"duration":0.23567708333331439},{"name":"F5","midi":77,"time":487.17708333332916,"velocity":0.8031496062992126,"duration":0.23567708333331439},{"name":"A2","midi":45,"time":487.17708333332916,"velocity":0.8031496062992126,"duration":0.23567708333331439},{"name":"G4","midi":67,"time":487.41536458332916,"velocity":0.8031496062992126,"duration":0.71484375},{"name":"B2","midi":47,"time":487.41536458332916,"velocity":0.8031496062992126,"duration":0.23567708333331439},{"name":"D5","midi":74,"time":487.5338541666625,"velocity":0.8031496062992126,"duration":0.59765625},{"name":"F5","midi":77,"time":487.65364583332916,"velocity":0.8031496062992126,"duration":0.4739583333333144},{"name":"G2","midi":43,"time":487.65364583332916,"velocity":0.8031496062992126,"duration":0.23567708333331439},{"name":"A2","midi":45,"time":487.89192708332916,"velocity":0.8031496062992126,"duration":0.23567708333331439},{"name":"D5","midi":74,"time":488.1315104166625,"velocity":0.8031496062992126,"duration":0.23567708333331439},{"name":"B2","midi":47,"time":488.1315104166625,"velocity":0.8031496062992126,"duration":0.23567708333331439},{"name":"E5","midi":76,"time":488.3697916666625,"velocity":0.8031496062992126,"duration":0.23567708333331439},{"name":"C3","midi":48,"time":488.3697916666625,"velocity":0.8031496062992126,"duration":0.23567708333331439},{"name":"F5","midi":77,"time":488.6080729166625,"velocity":0.8031496062992126,"duration":0.23567708333331439},{"name":"D3","midi":50,"time":488.6080729166625,"velocity":0.8031496062992126,"duration":0.23567708333331439},{"name":"G5","midi":79,"time":488.8463541666625,"velocity":0.8031496062992126,"duration":0.23567708333331439},{"name":"E3","midi":52,"time":488.8463541666625,"velocity":0.8031496062992126,"duration":0.23567708333331439},{"name":"A5","midi":81,"time":489.0846354166625,"velocity":0.8031496062992126,"duration":0.23567708333331439},{"name":"F3","midi":53,"time":489.0846354166625,"velocity":0.8031496062992126,"duration":0.23567708333331439},{"name":"G5","midi":79,"time":489.3229166666625,"velocity":0.8031496062992126,"duration":0.23567708333331439},{"name":"G3","midi":55,"time":489.3229166666625,"velocity":0.8031496062992126,"duration":0.4739583333333144},{"name":"F5","midi":77,"time":489.5611979166625,"velocity":0.8031496062992126,"duration":0.23567708333331439},{"name":"E5","midi":76,"time":489.7994791666625,"velocity":0.8031496062992126,"duration":0.23567708333331439},{"name":"G2","midi":43,"time":489.7994791666625,"velocity":0.8031496062992126,"duration":0.4739583333333144},{"name":"D5","midi":74,"time":490.0377604166625,"velocity":0.8031496062992126,"duration":0.23567708333331439},{"name":"E5","midi":76,"time":490.2760416666625,"velocity":0.8031496062992126,"duration":0.1171875},{"name":"C3","midi":48,"time":490.2760416666625,"velocity":0.8031496062992126,"duration":0.71484375},{"name":"D5","midi":74,"time":490.39583333332916,"velocity":0.8031496062992126,"duration":0.1171875},{"name":"E5","midi":76,"time":490.5143229166625,"velocity":0.8031496062992126,"duration":0.4739583333333144},{"name":"G3","midi":55,"time":490.5143229166625,"velocity":0.8031496062992126,"duration":0.23567708333331439},{"name":"C4","midi":60,"time":490.7526041666625,"velocity":0.8031496062992126,"duration":0.47395833333337123},{"name":"D5","midi":74,"time":490.99348958332916,"velocity":0.8031496062992126,"duration":0.23567708333337123},{"name":"D3","midi":50,"time":490.99348958332916,"velocity":0.8031496062992126,"duration":0.23567708333337123},{"name":"C5","midi":72,"time":491.2317708333292,"velocity":0.8031496062992126,"duration":0.23567708333331439},{"name":"E3","midi":52,"time":491.2317708333292,"velocity":0.8031496062992126,"duration":0.4739583333333144},{"name":"E5","midi":76,"time":491.4700520833292,"velocity":0.8031496062992126,"duration":0.23567708333331439},{"name":"D5","midi":74,"time":491.7083333333292,"velocity":0.8031496062992126,"duration":0.23567708333331439},{"name":"F3","midi":53,"time":491.7083333333292,"velocity":0.8031496062992126,"duration":0.4739583333333144},{"name":"C5","midi":72,"time":491.9466145833292,"velocity":0.8031496062992126,"duration":0.23567708333331439},{"name":"B4","midi":71,"time":492.1848958333292,"velocity":0.8031496062992126,"duration":0.23567708333331439},{"name":"G3","midi":55,"time":492.1848958333292,"velocity":0.8031496062992126,"duration":0.4739583333333144},{"name":"A4","midi":69,"time":492.4231770833292,"velocity":0.8031496062992126,"duration":0.23567708333331439},{"name":"B4","midi":71,"time":492.6614583333292,"velocity":0.8031496062992126,"duration":0.23567708333331439},{"name":"A3","midi":57,"time":492.6614583333292,"velocity":0.8031496062992126,"duration":0.4739583333333144},{"name":"C5","midi":72,"time":492.8997395833292,"velocity":0.8031496062992126,"duration":0.23567708333331439},{"name":"G4","midi":67,"time":493.1380208333292,"velocity":0.8031496062992126,"duration":0.4908854166666856},{"name":"B3","midi":59,"time":493.1380208333292,"velocity":0.8031496062992126,"duration":0.23567708333331439},{"name":"C4","midi":60,"time":493.3763020833292,"velocity":0.8031496062992126,"duration":0.23567708333331439},{"name":"F4","midi":65,"time":493.6145833333292,"velocity":0.8031496062992126,"duration":0.10416666666668561},{"name":"D4","midi":62,"time":493.6145833333292,"velocity":0.8031496062992126,"duration":0.23567708333337123},{"name":"G4","midi":67,"time":493.6914062499959,"velocity":0.8031496062992126,"duration":0.10416666666668561},{"name":"F4","midi":65,"time":493.7734374999959,"velocity":0.8031496062992126,"duration":0.10416666666668561},{"name":"E4","midi":64,"time":493.8528645833293,"velocity":0.8031496062992126,"duration":0.23567708333331439},{"name":"C4","midi":60,"time":493.8528645833293,"velocity":0.8031496062992126,"duration":0.23567708333331439},{"name":"F4","midi":65,"time":494.0911458333293,"velocity":0.8031496062992126,"duration":0.23567708333331439},{"name":"B3","midi":59,"time":494.0911458333293,"velocity":0.8031496062992126,"duration":0.23567708333331439},{"name":"D4","midi":62,"time":494.3294270833293,"velocity":0.8031496062992126,"duration":0.23567708333331439},{"name":"A3","midi":57,"time":494.3294270833293,"velocity":0.8031496062992126,"duration":0.23567708333331439},{"name":"E4","midi":64,"time":494.5677083333293,"velocity":0.8031496062992126,"duration":0.23567708333331439},{"name":"G3","midi":55,"time":494.5677083333293,"velocity":0.8031496062992126,"duration":0.23567708333331439},{"name":"F4","midi":65,"time":494.8059895833293,"velocity":0.8031496062992126,"duration":0.23567708333331439},{"name":"F3","midi":53,"time":494.8059895833293,"velocity":0.8031496062992126,"duration":0.23567708333331439},{"name":"G4","midi":67,"time":495.0442708333293,"velocity":0.8031496062992126,"duration":0.23567708333331439},{"name":"E3","midi":52,"time":495.0442708333293,"velocity":0.8031496062992126,"duration":0.23567708333331439},{"name":"A4","midi":69,"time":495.2825520833293,"velocity":0.8031496062992126,"duration":0.23567708333331439},{"name":"C3","midi":48,"time":495.2825520833293,"velocity":0.8031496062992126,"duration":0.23567708333331439},{"name":"A#4","midi":70,"time":495.5208333333293,"velocity":0.8031496062992126,"duration":0.23567708333331439},{"name":"D3","midi":50,"time":495.5208333333293,"velocity":0.8031496062992126,"duration":0.23567708333331439},{"name":"G4","midi":67,"time":495.7591145833293,"velocity":0.8031496062992126,"duration":0.23567708333331439},{"name":"E3","midi":52,"time":495.7591145833293,"velocity":0.8031496062992126,"duration":0.23567708333331439},{"name":"A4","midi":69,"time":495.9973958333293,"velocity":0.8031496062992126,"duration":0.7122395833333144},{"name":"F3","midi":53,"time":495.9973958333293,"velocity":0.8031496062992126,"duration":0.23567708333331439},{"name":"E3","midi":52,"time":496.2356770833293,"velocity":0.8031496062992126,"duration":0.23567708333331439},{"name":"F3","midi":53,"time":496.4739583333293,"velocity":0.8031496062992126,"duration":0.23567708333331439},{"name":"G4","midi":67,"time":496.7122395833293,"velocity":0.8031496062992126,"duration":0.23567708333331439},{"name":"G3","midi":55,"time":496.7122395833293,"velocity":0.8031496062992126,"duration":0.23567708333331439},{"name":"F4","midi":65,"time":496.9505208333293,"velocity":0.8031496062992126,"duration":0.23567708333331439},{"name":"A3","midi":57,"time":496.9505208333293,"velocity":0.8031496062992126,"duration":0.4739583333333144},{"name":"E4","midi":64,"time":497.1888020833293,"velocity":0.8031496062992126,"duration":0.23567708333331439},{"name":"D4","midi":62,"time":497.4270833333293,"velocity":0.8031496062992126,"duration":0.23567708333331439},{"name":"F3","midi":53,"time":497.4270833333293,"velocity":0.8031496062992126,"duration":0.4739583333333144},{"name":"D5","midi":74,"time":497.6653645833293,"velocity":0.8031496062992126,"duration":0.23567708333331439},{"name":"C5","midi":72,"time":497.9036458333293,"velocity":0.8031496062992126,"duration":0.21614583333337123},{"name":"G3","midi":55,"time":497.9036458333293,"velocity":0.8031496062992126,"duration":0.47395833333337123},{"name":"B4","midi":71,"time":498.11328124999596,"velocity":0.8031496062992126,"duration":0.1171875},{"name":"C5","midi":72,"time":498.20703124999596,"velocity":0.8031496062992126,"duration":0.1171875},{"name":"B4","midi":71,"time":498.29947916666265,"velocity":0.8031496062992126,"duration":0.1171875},{"name":"G2","midi":43,"time":498.38020833332934,"velocity":0.8031496062992126,"duration":0.47395833333325754},{"name":"C5","midi":72,"time":498.39322916666265,"velocity":0.8031496062992126,"duration":0.1171875},{"name":"B4","midi":71,"time":498.48567708332934,"velocity":0.8031496062992126,"duration":0.13151041666662877},{"name":"C5","midi":72,"time":498.6184895833293,"velocity":0.8031496062992126,"duration":0.23567708333331439},{"name":"C5","midi":72,"time":498.8567708333293,"velocity":0.8031496062992126,"duration":2.3984375},{"name":"C3","midi":48,"time":498.8567708333293,"velocity":0.8031496062992126,"duration":0.9583333333333144},{"name":"C2","midi":36,"time":499.3372395833293,"velocity":0.8031496062992126,"duration":1.91015625},{"name":"G2","midi":43,"time":499.8177083333293,"velocity":0.8031496062992126,"duration":0.4765625},{"name":"E4","midi":64,"time":500.2955729166626,"velocity":0.8031496062992126,"duration":0.95703125},{"name":"G4","midi":67,"time":500.2955729166626,"velocity":0.8031496062992126,"duration":0.95703125},{"name":"C3","midi":48,"time":500.2955729166626,"velocity":0.8031496062992126,"duration":1.4348958333333144},{"name":"E5","midi":76,"time":501.4947916666626,"velocity":0.8031496062992126,"duration":0.23567708333331439},{"name":"E5","midi":76,"time":501.7330729166626,"velocity":0.8031496062992126,"duration":0.71484375},{"name":"C5","midi":72,"time":501.7330729166626,"velocity":0.8031496062992126,"duration":0.71484375},{"name":"G4","midi":67,"time":501.7330729166626,"velocity":0.8031496062992126,"duration":0.71484375},{"name":"C3","midi":48,"time":501.7330729166626,"velocity":0.8031496062992126,"duration":0.4765625},{"name":"D3","midi":50,"time":502.2122395833293,"velocity":0.8031496062992126,"duration":0.4739583333333144},{"name":"D5","midi":74,"time":502.4505208333293,"velocity":0.8031496062992126,"duration":0.23567708333331439},{"name":"C5","midi":72,"time":502.6888020833293,"velocity":0.8031496062992126,"duration":0.23567708333331439},{"name":"E3","midi":52,"time":502.6888020833293,"velocity":0.8031496062992126,"duration":0.4739583333333144},{"name":"B4","midi":71,"time":502.9270833333293,"velocity":0.8031496062992126,"duration":0.23567708333331439},{"name":"A4","midi":69,"time":503.1653645833293,"velocity":0.8031496062992126,"duration":0.23567708333331439},{"name":"C3","midi":48,"time":503.1653645833293,"velocity":0.8031496062992126,"duration":0.4739583333333144},{"name":"G4","midi":67,"time":503.4036458333293,"velocity":0.8031496062992126,"duration":0.23567708333331439},{"name":"F#4","midi":66,"time":503.6419270833293,"velocity":0.8031496062992126,"duration":0.23567708333331439},{"name":"D3","midi":50,"time":503.6419270833293,"velocity":0.8031496062992126,"duration":0.4739583333333144},{"name":"G#4","midi":68,"time":503.8802083333293,"velocity":0.8031496062992126,"duration":0.23567708333331439},{"name":"A4","midi":69,"time":504.1184895833293,"velocity":0.8031496062992126,"duration":0.23567708333331439},{"name":"B2","midi":47,"time":504.1184895833293,"velocity":0.8031496062992126,"duration":0.4739583333333144},{"name":"B4","midi":71,"time":504.3567708333293,"velocity":0.8031496062992126,"duration":0.23567708333331439},{"name":"A4","midi":69,"time":504.5950520833293,"velocity":0.8031496062992126,"duration":0.2760416666666856},{"name":"E3","midi":52,"time":504.5950520833293,"velocity":0.8031496062992126,"duration":0.23567708333331439},{"name":"D3","midi":50,"time":504.8333333333293,"velocity":0.8031496062992126,"duration":0.23567708333331439},{"name":"G#4","midi":68,"time":504.84374999999596,"velocity":0.8031496062992126,"duration":0.10416666666668561},{"name":"A4","midi":69,"time":504.92447916666265,"velocity":0.8031496062992126,"duration":0.10416666666662877},{"name":"G#4","midi":68,"time":505.00390624999596,"velocity":0.8031496062992126,"duration":0.10416666666662877},{"name":"F3","midi":53,"time":505.0716145833293,"velocity":0.8031496062992126,"duration":0.23567708333325754},{"name":"A4","midi":69,"time":505.0846354166626,"velocity":0.8031496062992126,"duration":0.10416666666662877},{"name":"G#4","midi":68,"time":505.1640624999959,"velocity":0.8031496062992126,"duration":0.15885416666662877},{"name":"A4","midi":69,"time":505.3098958333292,"velocity":0.8031496062992126,"duration":0.23567708333331439},{"name":"E3","midi":52,"time":505.3098958333292,"velocity":0.8031496062992126,"duration":0.23567708333331439},{"name":"B4","midi":71,"time":505.5481770833292,"velocity":0.8031496062992126,"duration":0.4739583333333144},{"name":"D3","midi":50,"time":505.5481770833292,"velocity":0.8031496062992126,"duration":0.23567708333331439},{"name":"C3","midi":48,"time":505.7864583333292,"velocity":0.8031496062992126,"duration":0.23567708333331439},{"name":"E4","midi":64,"time":506.0247395833292,"velocity":0.8031496062992126,"duration":0.4739583333333144},{"name":"B2","midi":47,"time":506.0247395833292,"velocity":0.8031496062992126,"duration":0.23567708333331439},{"name":"A2","midi":45,"time":506.2630208333292,"velocity":0.8031496062992126,"duration":0.23567708333331439},{"name":"B4","midi":71,"time":506.5013020833292,"velocity":0.8031496062992126,"duration":0.1171875},{"name":"G#2","midi":44,"time":506.5013020833292,"velocity":0.8031496062992126,"duration":0.23567708333331439},{"name":"C5","midi":72,"time":506.61979166666254,"velocity":0.8031496062992126,"duration":0.1171875},{"name":"D5","midi":74,"time":506.7395833333292,"velocity":0.8031496062992126,"duration":0.23567708333331439},{"name":"F#2","midi":42,"time":506.7395833333292,"velocity":0.8031496062992126,"duration":0.23567708333331439},{"name":"C5","midi":72,"time":506.9778645833292,"velocity":0.8031496062992126,"duration":0.23567708333331439},{"name":"G#2","midi":44,"time":506.9778645833292,"velocity":0.8031496062992126,"duration":0.23567708333331439},{"name":"B4","midi":71,"time":507.2161458333292,"velocity":0.8031496062992126,"duration":0.23567708333331439},{"name":"E2","midi":40,"time":507.2161458333292,"velocity":0.8031496062992126,"duration":0.23567708333331439},{"name":"C5","midi":72,"time":507.4544270833292,"velocity":0.8031496062992126,"duration":0.1171875},{"name":"A2","midi":45,"time":507.4544270833292,"velocity":0.8031496062992126,"duration":0.23567708333331439},{"name":"B4","midi":71,"time":507.57291666666254,"velocity":0.8031496062992126,"duration":0.1171875},{"name":"C5","midi":72,"time":507.6927083333292,"velocity":0.8031496062992126,"duration":0.4739583333333144},{"name":"G#2","midi":44,"time":507.6927083333292,"velocity":0.8031496062992126,"duration":0.23567708333331439},{"name":"A2","midi":45,"time":507.9309895833292,"velocity":0.8031496062992126,"duration":0.23567708333331439},{"name":"B4","midi":71,"time":508.1692708333292,"velocity":0.8031496062992126,"duration":0.23567708333331439},{"name":"B2","midi":47,"time":508.1692708333292,"velocity":0.8031496062992126,"duration":0.23567708333331439},{"name":"A4","midi":69,"time":508.4075520833292,"velocity":0.8031496062992126,"duration":0.23567708333331439},{"name":"C3","midi":48,"time":508.4075520833292,"velocity":0.8031496062992126,"duration":0.23567708333331439},{"name":"B4","midi":71,"time":508.6458333333292,"velocity":0.8031496062992126,"duration":0.23567708333331439},{"name":"D3","midi":50,"time":508.6458333333292,"velocity":0.8031496062992126,"duration":0.23567708333331439},{"name":"C5","midi":72,"time":508.8841145833292,"velocity":0.8031496062992126,"duration":0.23567708333331439},{"name":"E3","midi":52,"time":508.8841145833292,"velocity":0.8031496062992126,"duration":0.23567708333331439},{"name":"D5","midi":74,"time":509.1223958333292,"velocity":0.8031496062992126,"duration":0.23567708333331439},{"name":"F3","midi":53,"time":509.1223958333292,"velocity":0.8031496062992126,"duration":0.23567708333331439},{"name":"E5","midi":76,"time":509.3606770833292,"velocity":0.8031496062992126,"duration":0.23567708333331439},{"name":"G3","midi":55,"time":509.3606770833292,"velocity":0.8031496062992126,"duration":0.23567708333331439},{"name":"F5","midi":77,"time":509.5989583333292,"velocity":0.8031496062992126,"duration":0.23567708333331439},{"name":"A3","midi":57,"time":509.5989583333292,"velocity":0.8031496062992126,"duration":0.23567708333331439},{"name":"G5","midi":79,"time":509.8372395833292,"velocity":0.8031496062992126,"duration":0.23567708333331439},{"name":"A#3","midi":58,"time":509.8372395833292,"velocity":0.8031496062992126,"duration":0.23567708333331439},{"name":"E5","midi":76,"time":510.0755208333292,"velocity":0.8031496062992126,"duration":0.23567708333331439},{"name":"G3","midi":55,"time":510.0755208333292,"velocity":0.8031496062992126,"duration":0.23567708333331439},{"name":"D5","midi":74,"time":510.3138020833292,"velocity":0.8031496062992126,"duration":0.2864583333333144},{"name":"A3","midi":57,"time":510.3138020833292,"velocity":0.8031496062992126,"duration":0.23567708333331439},{"name":"G3","midi":55,"time":510.5520833333292,"velocity":0.8031496062992126,"duration":0.23567708333337123},{"name":"C#5","midi":73,"time":510.5794270833292,"velocity":0.8031496062992126,"duration":0.10416666666668561},{"name":"D5","midi":74,"time":510.6692708333292,"velocity":0.8031496062992126,"duration":0.10416666666668561},{"name":"C#5","midi":73,"time":510.7486979166626,"velocity":0.8031496062992126,"duration":0.10416666666668561},{"name":"A#3","midi":58,"time":510.7903645833293,"velocity":0.8031496062992126,"duration":0.23567708333325754},{"name":"D5","midi":74,"time":510.8294270833293,"velocity":0.8031496062992126,"duration":0.10416666666662877},{"name":"C#5","midi":73,"time":510.9088541666626,"velocity":0.8031496062992126,"duration":0.10416666666662877},{"name":"D5","midi":74,"time":511.0286458333292,"velocity":0.8031496062992126,"duration":0.25},{"name":"A3","midi":57,"time":511.0286458333292,"velocity":0.8031496062992126,"duration":0.23567708333331439},{"name":"E5","midi":76,"time":511.2669270833292,"velocity":0.8031496062992126,"duration":0.4739583333333144},{"name":"G3","midi":55,"time":511.2669270833292,"velocity":0.8031496062992126,"duration":0.23567708333331439},{"name":"F3","midi":53,"time":511.5052083333292,"velocity":0.8031496062992126,"duration":0.23567708333331439},{"name":"A5","midi":81,"time":511.7434895833292,"velocity":0.8031496062992126,"duration":0.7122395833333144},{"name":"E3","midi":52,"time":511.7434895833292,"velocity":0.8031496062992126,"duration":0.23567708333331439},{"name":"D3","midi":50,"time":511.9817708333292,"velocity":0.8031496062992126,"duration":0.23567708333331439},{"name":"C#3","midi":49,"time":512.2200520833292,"velocity":0.8031496062992126,"duration":0.23567708333337123},{"name":"G5","midi":79,"time":512.4583333333292,"velocity":0.8031496062992126,"duration":0.23567708333337123},{"name":"B2","midi":47,"time":512.4583333333292,"velocity":0.8031496062992126,"duration":0.23567708333337123},{"name":"F5","midi":77,"time":512.6966145833292,"velocity":0.8031496062992126,"duration":0.23567708333337123},{"name":"C#3","midi":49,"time":512.6966145833292,"velocity":0.8031496062992126,"duration":0.23567708333337123},{"name":"E5","midi":76,"time":512.9348958333292,"velocity":0.8031496062992126,"duration":0.23567708333337123},{"name":"A2","midi":45,"time":512.9348958333292,"velocity":0.8031496062992126,"duration":0.23567708333337123},{"name":"G5","midi":79,"time":513.1731770833292,"velocity":0.8031496062992126,"duration":0.1171875},{"name":"D3","midi":50,"time":513.1731770833292,"velocity":0.8031496062992126,"duration":0.47395833333337123},{"name":"F5","midi":77,"time":513.2916666666625,"velocity":0.8031496062992126,"duration":0.1171875},{"name":"E5","midi":76,"time":513.4114583333292,"velocity":0.8031496062992126,"duration":0.23567708333337123},{"name":"F5","midi":77,"time":513.6497395833292,"velocity":0.8031496062992126,"duration":0.23567708333337123},{"name":"A#3","midi":58,"time":513.6497395833292,"velocity":0.8031496062992126,"duration":0.47395833333337123},{"name":"G5","midi":79,"time":513.8880208333292,"velocity":0.8031496062992126,"duration":0.23567708333337123},{"name":"A5","midi":81,"time":514.1263020833292,"velocity":0.8031496062992126,"duration":0.4765625},{"name":"F3","midi":53,"time":514.1263020833292,"velocity":0.8031496062992126,"duration":0.4765625},{"name":"D5","midi":74,"time":514.6041666666625,"velocity":0.8031496062992126,"duration":0.23567708333337123},{"name":"G3","midi":55,"time":514.6041666666625,"velocity":0.8031496062992126,"duration":0.47395833333337123},{"name":"E5","midi":76,"time":514.8424479166625,"velocity":0.8031496062992126,"duration":0.23567708333337123},{"name":"G5","midi":79,"time":515.0807291666625,"velocity":0.8031496062992126,"duration":0.23567708333337123},{"name":"A3","midi":57,"time":515.0807291666625,"velocity":0.8031496062992126,"duration":0.47395833333337123},{"name":"F5","midi":77,"time":515.3190104166625,"velocity":0.8031496062992126,"duration":0.23567708333337123},{"name":"E5","midi":76,"time":515.5572916666625,"velocity":0.8031496062992126,"duration":0.23567708333337123},{"name":"A2","midi":45,"time":515.5572916666625,"velocity":0.8031496062992126,"duration":0.47395833333337123},{"name":"D5","midi":74,"time":515.7955729166625,"velocity":0.8031496062992126,"duration":0.23567708333337123},{"name":"D5","midi":74,"time":516.0338541666625,"velocity":0.8031496062992126,"duration":0.1171875},{"name":"D2","midi":38,"time":516.0338541666625,"velocity":0.8031496062992126,"duration":0.47395833333337123},{"name":"C#5","midi":73,"time":516.1536458333292,"velocity":0.8031496062992126,"duration":0.1171875},{"name":"D5","midi":74,"time":516.2721354166625,"velocity":0.8031496062992126,"duration":1.1888020833333712},{"name":"A3","midi":57,"time":516.5104166666625,"velocity":0.8031496062992126,"duration":0.23567708333337123},{"name":"G3","midi":55,"time":516.7486979166625,"velocity":0.8031496062992126,"duration":0.23567708333337123},{"name":"F3","midi":53,"time":516.9869791666625,"velocity":0.8031496062992126,"duration":0.23567708333337123},{"name":"E3","midi":52,"time":517.2252604166625,"velocity":0.8031496062992126,"duration":0.23567708333337123},{"name":"F5","midi":77,"time":517.4635416666625,"velocity":0.8031496062992126,"duration":0.23567708333337123},{"name":"D3","midi":50,"time":517.4635416666625,"velocity":0.8031496062992126,"duration":0.23567708333337123},{"name":"E5","midi":76,"time":517.7018229166625,"velocity":0.8031496062992126,"duration":0.23567708333337123},{"name":"C3","midi":48,"time":517.7018229166625,"velocity":0.8031496062992126,"duration":0.23567708333337123},{"name":"D5","midi":74,"time":517.9401041666625,"velocity":0.8031496062992126,"duration":0.23567708333337123},{"name":"B2","midi":47,"time":517.9401041666625,"velocity":0.8031496062992126,"duration":0.23567708333337123},{"name":"C5","midi":72,"time":518.1783854166625,"velocity":0.8031496062992126,"duration":0.23567708333337123},{"name":"A2","midi":45,"time":518.1783854166625,"velocity":0.8031496062992126,"duration":0.23567708333337123},{"name":"D5","midi":74,"time":518.4166666666625,"velocity":0.8031496062992126,"duration":0.23567708333337123},{"name":"G2","midi":43,"time":518.4166666666625,"velocity":0.8031496062992126,"duration":0.23567708333337123},{"name":"B4","midi":71,"time":518.6549479166625,"velocity":0.8031496062992126,"duration":0.23567708333337123},{"name":"F2","midi":41,"time":518.6549479166625,"velocity":0.8031496062992126,"duration":0.23567708333337123},{"name":"G5","midi":79,"time":518.8932291666625,"velocity":0.8031496062992126,"duration":0.10416666666662877},{"name":"E2","midi":40,"time":518.8932291666625,"velocity":0.8031496062992126,"duration":0.23567708333325754},{"name":"F5","midi":77,"time":519.0052083333292,"velocity":0.8031496062992126,"duration":0.10416666666662877},{"name":"G5","midi":79,"time":519.1106770833292,"velocity":0.8031496062992126,"duration":0.49479166666662877},{"name":"G2","midi":43,"time":519.1315104166624,"velocity":0.8031496062992126,"duration":0.23567708333337123},{"name":"A2","midi":45,"time":519.3697916666624,"velocity":0.8031496062992126,"duration":0.23567708333337123},{"name":"F5","midi":77,"time":519.6080729166624,"velocity":0.8031496062992126,"duration":0.23567708333337123},{"name":"B2","midi":47,"time":519.6080729166624,"velocity":0.8031496062992126,"duration":0.23567708333337123},{"name":"E5","midi":76,"time":519.8463541666624,"velocity":0.8031496062992126,"duration":0.23567708333337123},{"name":"C3","midi":48,"time":519.8463541666624,"velocity":0.8031496062992126,"duration":0.23567708333337123},{"name":"D5","midi":74,"time":520.0846354166624,"velocity":0.8031496062992126,"duration":0.23567708333337123},{"name":"D3","midi":50,"time":520.0846354166624,"velocity":0.8031496062992126,"duration":0.23567708333337123},{"name":"C5","midi":72,"time":520.3229166666624,"velocity":0.8031496062992126,"duration":0.23567708333337123},{"name":"E3","midi":52,"time":520.3229166666624,"velocity":0.8031496062992126,"duration":0.23567708333337123},{"name":"B4","midi":71,"time":520.5611979166624,"velocity":0.8031496062992126,"duration":0.23567708333337123},{"name":"F#3","midi":54,"time":520.5611979166624,"velocity":0.8031496062992126,"duration":0.23567708333337123},{"name":"C5","midi":72,"time":520.7994791666624,"velocity":0.8031496062992126,"duration":0.23567708333337123},{"name":"G3","midi":55,"time":520.7994791666624,"velocity":0.8031496062992126,"duration":0.23567708333337123},{"name":"A4","midi":69,"time":521.0377604166624,"velocity":0.8031496062992126,"duration":0.23567708333337123},{"name":"F#3","midi":54,"time":521.0377604166624,"velocity":0.8031496062992126,"duration":0.23567708333337123},{"name":"D5","midi":74,"time":521.2760416666624,"velocity":0.8031496062992126,"duration":0.47395833333337123},{"name":"E3","midi":52,"time":521.2760416666624,"velocity":0.8031496062992126,"duration":0.23567708333337123},{"name":"D3","midi":50,"time":521.5143229166624,"velocity":0.8031496062992126,"duration":0.23567708333337123},{"name":"C5","midi":72,"time":521.7526041666624,"velocity":0.8031496062992126,"duration":0.23567708333337123},{"name":"G3","midi":55,"time":521.7526041666624,"velocity":0.8031496062992126,"duration":0.47395833333337123},{"name":"B4","midi":71,"time":521.9908854166624,"velocity":0.8031496062992126,"duration":0.23567708333337123},{"name":"A4","midi":69,"time":522.2291666666624,"velocity":0.8031496062992126,"duration":0.23567708333337123},{"name":"F3","midi":53,"time":522.2291666666624,"velocity":0.8031496062992126,"duration":0.47395833333337123},{"name":"G4","midi":67,"time":522.4674479166624,"velocity":0.8031496062992126,"duration":0.23567708333337123},{"name":"A4","midi":69,"time":522.7057291666624,"velocity":0.8031496062992126,"duration":0.23567708333337123},{"name":"E3","midi":52,"time":522.7057291666624,"velocity":0.8031496062992126,"duration":0.47395833333337123},{"name":"B4","midi":71,"time":522.9440104166624,"velocity":0.8031496062992126,"duration":0.23567708333337123},{"name":"C5","midi":72,"time":523.1822916666624,"velocity":0.8031496062992126,"duration":0.23567708333337123},{"name":"D3","midi":50,"time":523.1822916666624,"velocity":0.8031496062992126,"duration":0.47395833333337123},{"name":"D5","midi":74,"time":523.4205729166624,"velocity":0.8031496062992126,"duration":0.23567708333337123},{"name":"E5","midi":76,"time":523.6588541666624,"velocity":0.8031496062992126,"duration":0.23567708333337123},{"name":"C3","midi":48,"time":523.6588541666624,"velocity":0.8031496062992126,"duration":0.47395833333337123},{"name":"B4","midi":71,"time":523.8971354166624,"velocity":0.8031496062992126,"duration":0.23567708333337123},{"name":"C5","midi":72,"time":524.1354166666624,"velocity":0.8031496062992126,"duration":0.23567708333337123},{"name":"A2","midi":45,"time":524.1354166666624,"velocity":0.8031496062992126,"duration":0.47395833333337123},{"name":"A4","midi":69,"time":524.3736979166624,"velocity":0.8031496062992126,"duration":0.23567708333337123},{"name":"F#4","midi":66,"time":524.6119791666624,"velocity":0.8031496062992126,"duration":0.23567708333337123},{"name":"D3","midi":50,"time":524.6119791666624,"velocity":0.8031496062992126,"duration":0.47395833333337123},{"name":"E4","midi":64,"time":524.8502604166624,"velocity":0.8031496062992126,"duration":0.23567708333337123},{"name":"F#4","midi":66,"time":525.0885416666624,"velocity":0.8031496062992126,"duration":0.23567708333337123},{"name":"E3","midi":52,"time":525.0885416666624,"velocity":0.8031496062992126,"duration":0.47395833333337123},{"name":"A4","midi":69,"time":525.3268229166624,"velocity":0.8031496062992126,"duration":0.23567708333337123},{"name":"B4","midi":71,"time":525.5651041666624,"velocity":0.8031496062992126,"duration":0.23567708333337123},{"name":"D3","midi":50,"time":525.5651041666624,"velocity":0.8031496062992126,"duration":0.47395833333337123},{"name":"C5","midi":72,"time":525.8033854166624,"velocity":0.8031496062992126,"duration":0.23567708333337123},{"name":"D5","midi":74,"time":526.0416666666624,"velocity":0.8031496062992126,"duration":0.23567708333337123},{"name":"C3","midi":48,"time":526.0416666666624,"velocity":0.8031496062992126,"duration":0.47395833333337123},{"name":"E5","midi":76,"time":526.2799479166624,"velocity":0.8031496062992126,"duration":0.23567708333337123},{"name":"F5","midi":77,"time":526.5182291666624,"velocity":0.8031496062992126,"duration":0.23567708333337123},{"name":"B2","midi":47,"time":526.5182291666624,"velocity":0.8031496062992126,"duration":0.47395833333337123},{"name":"E5","midi":76,"time":526.7565104166624,"velocity":0.8031496062992126,"duration":0.23567708333337123},{"name":"A5","midi":81,"time":526.9947916666624,"velocity":0.8031496062992126,"duration":0.47395833333337123},{"name":"C3","midi":48,"time":526.9947916666624,"velocity":0.8031496062992126,"duration":0.23567708333337123},{"name":"D3","midi":50,"time":527.2330729166624,"velocity":0.8031496062992126,"duration":0.23567708333337123},{"name":"A5","midi":81,"time":527.4713541666624,"velocity":0.8031496062992126,"duration":0.20833333333325754},{"name":"E3","midi":52,"time":527.4713541666624,"velocity":0.8031496062992126,"duration":0.23567708333325754},{"name":"G#5","midi":80,"time":527.669270833329,"velocity":0.8031496062992126,"duration":0.1171875},{"name":"D3","midi":50,"time":527.7096354166623,"velocity":0.8031496062992126,"duration":0.23567708333337123},{"name":"A5","midi":81,"time":527.7617187499957,"velocity":0.8031496062992126,"duration":0.1171875},{"name":"G#5","midi":80,"time":527.8554687499957,"velocity":0.8031496062992126,"duration":0.1171875},{"name":"A5","midi":81,"time":527.9479166666623,"velocity":0.8031496062992126,"duration":0.1171875},{"name":"F3","midi":53,"time":527.9479166666623,"velocity":0.8031496062992126,"duration":0.23567708333337123},{"name":"G#5","midi":80,"time":528.0416666666623,"velocity":0.8031496062992126,"duration":0.1171875},{"name":"A5","midi":81,"time":528.1861979166623,"velocity":0.8031496062992126,"duration":0.23567708333337123},{"name":"E3","midi":52,"time":528.1861979166623,"velocity":0.8031496062992126,"duration":0.23567708333337123},{"name":"B5","midi":83,"time":528.4244791666623,"velocity":0.8031496062992126,"duration":0.23567708333337123},{"name":"D3","midi":50,"time":528.4244791666623,"velocity":0.8031496062992126,"duration":0.23567708333337123},{"name":"E5","midi":76,"time":528.6627604166623,"velocity":0.8031496062992126,"duration":0.23567708333337123},{"name":"C3","midi":48,"time":528.6627604166623,"velocity":0.8031496062992126,"duration":0.23567708333337123},{"name":"C6","midi":84,"time":528.9010416666623,"velocity":0.8031496062992126,"duration":0.47395833333337123},{"name":"B2","midi":47,"time":528.9010416666623,"velocity":0.8031496062992126,"duration":0.23567708333337123},{"name":"A2","midi":45,"time":529.1393229166623,"velocity":0.8031496062992126,"duration":0.23567708333337123},{"name":"C6","midi":84,"time":529.3776041666623,"velocity":0.8031496062992126,"duration":0.23567708333337123},{"name":"D3","midi":50,"time":529.3776041666623,"velocity":0.8031496062992126,"duration":0.47395833333337123},{"name":"B5","midi":83,"time":529.6158854166623,"velocity":0.8031496062992126,"duration":0.23567708333337123},{"name":"A5","midi":81,"time":529.8541666666623,"velocity":0.8031496062992126,"duration":0.23567708333337123},{"name":"E3","midi":52,"time":529.8541666666623,"velocity":0.8031496062992126,"duration":0.47395833333337123},{"name":"G#5","midi":80,"time":530.0924479166623,"velocity":0.8031496062992126,"duration":0.23567708333337123},{"name":"A5","midi":81,"time":530.3307291666623,"velocity":0.8031496062992126,"duration":0.23567708333337123},{"name":"F3","midi":53,"time":530.3307291666623,"velocity":0.8031496062992126,"duration":0.23567708333337123},{"name":"E5","midi":76,"time":530.5690104166623,"velocity":0.8031496062992126,"duration":0.23567708333337123},{"name":"C#3","midi":49,"time":530.5690104166623,"velocity":0.8031496062992126,"duration":0.23567708333337123},{"name":"F5","midi":77,"time":530.8072916666623,"velocity":0.8031496062992126,"duration":0.23567708333337123},{"name":"D3","midi":50,"time":530.8072916666623,"velocity":0.8031496062992126,"duration":0.23567708333337123},{"name":"D5","midi":74,"time":531.0455729166623,"velocity":0.8031496062992126,"duration":0.23567708333337123},{"name":"A3","midi":57,"time":531.0455729166623,"velocity":0.8031496062992126,"duration":0.23567708333337123},{"name":"E5","midi":76,"time":531.2838541666623,"velocity":0.8031496062992126,"duration":0.1171875},{"name":"G#3","midi":56,"time":531.2838541666623,"velocity":0.8031496062992126,"duration":0.23567708333325754},{"name":"D5","midi":74,"time":531.4036458333289,"velocity":0.8031496062992126,"duration":0.1171875},{"name":"E5","midi":76,"time":531.5221354166623,"velocity":0.8031496062992126,"duration":0.47395833333337123},{"name":"E3","midi":52,"time":531.5221354166623,"velocity":0.8031496062992126,"duration":0.23567708333337123},{"name":"A3","midi":57,"time":531.7604166666623,"velocity":0.8031496062992126,"duration":0.23567708333337123},{"name":"F5","midi":77,"time":531.9986979166623,"velocity":0.8031496062992126,"duration":0.23567708333337123},{"name":"D3","midi":50,"time":531.9986979166623,"velocity":0.8031496062992126,"duration":0.23567708333337123},{"name":"G#4","midi":68,"time":532.2369791666623,"velocity":0.8031496062992126,"duration":0.76171875},{"name":"C5","midi":72,"time":532.2369791666623,"velocity":0.8031496062992126,"duration":0.125},{"name":"E3","midi":52,"time":532.2369791666623,"velocity":0.8031496062992126,"duration":0.5052083333332575},{"name":"B4","midi":71,"time":532.3645833333289,"velocity":0.8031496062992126,"duration":0.125},{"name":"C5","midi":72,"time":532.4908854166623,"velocity":0.8031496062992126,"duration":0.125},{"name":"B4","midi":71,"time":532.6184895833289,"velocity":0.8031496062992126,"duration":0.125},{"name":"C5","midi":72,"time":532.7447916666623,"velocity":0.8031496062992126,"duration":0.125},{"name":"E2","midi":40,"time":532.7447916666623,"velocity":0.8031496062992126,"duration":0.5091145833332575},{"name":"B4","midi":71,"time":532.8723958333289,"velocity":0.8031496062992126,"duration":0.125},{"name":"A4","midi":69,"time":533.0013020833289,"velocity":0.8031496062992126,"duration":0.25390625},{"name":"A4","midi":69,"time":533.2565104166623,"velocity":0.8031496062992126,"duration":5.208333333333485},{"name":"A2","midi":45,"time":533.2565104166623,"velocity":0.8031496062992126,"duration":5.208333333333485},{"name":"C3","midi":48,"time":533.7708333333289,"velocity":0.8031496062992126,"duration":0.5338541666667425},{"name":"E3","midi":52,"time":534.2955729166623,"velocity":0.8031496062992126,"duration":0.5494791666667425},{"name":"C4","midi":60,"time":534.8932291666624,"velocity":0.8031496062992126,"duration":3.5885416666667425},{"name":"A3","midi":57,"time":534.8932291666624,"velocity":0.8031496062992126,"duration":3.5885416666667425},{"name":"E4","midi":64,"time":534.8932291666624,"velocity":0.8031496062992126,"duration":3.5885416666667425},{"name":"A3","midi":57,"time":539.4322916666625,"velocity":0.8031496062992126,"duration":0.9388020833333712},{"name":"E4","midi":64,"time":539.4322916666625,"velocity":0.8031496062992126,"duration":0.9388020833333712},{"name":"A4","midi":69,"time":539.4322916666625,"velocity":0.8031496062992126,"duration":0.9388020833333712},{"name":"C5","midi":72,"time":539.4322916666625,"velocity":0.8031496062992126,"duration":0.9388020833333712},{"name":"D3","midi":50,"time":540.3776041666625,"velocity":0.8031496062992126,"duration":0.94140625},{"name":"E4","midi":64,"time":540.3776041666625,"velocity":0.8031496062992126,"duration":0.46614583333337123},{"name":"C5","midi":72,"time":540.3776041666625,"velocity":0.8031496062992126,"duration":0.46614583333337123},{"name":"F4","midi":65,"time":540.3776041666625,"velocity":0.8031496062992126,"duration":0.9348958333333712},{"name":"B4","midi":71,"time":540.8502604166625,"velocity":0.8031496062992126,"duration":0.46875},{"name":"D4","midi":62,"time":540.8502604166625,"velocity":0.8031496062992126,"duration":0.46875},{"name":"E3","midi":52,"time":541.3242187499959,"velocity":0.8031496062992126,"duration":0.9388020833333712},{"name":"C4","midi":60,"time":541.3242187499959,"velocity":0.8031496062992126,"duration":0.46614583333337123},{"name":"E4","midi":64,"time":541.3242187499959,"velocity":0.8031496062992126,"duration":0.46614583333337123},{"name":"A4","midi":69,"time":541.3242187499959,"velocity":0.8031496062992126,"duration":0.46614583333337123},{"name":"B3","midi":59,"time":541.7968749999959,"velocity":0.8031496062992126,"duration":0.46614583333337123},{"name":"G#4","midi":68,"time":541.7968749999959,"velocity":0.8031496062992126,"duration":0.46614583333337123},{"name":"D4","midi":62,"time":541.7968749999959,"velocity":0.8031496062992126,"duration":0.46614583333337123},{"name":"F3","midi":53,"time":542.2695312499959,"velocity":0.8031496062992126,"duration":0.9388020833333712},{"name":"A3","midi":57,"time":542.2695312499959,"velocity":0.8031496062992126,"duration":0.9388020833333712},{"name":"C4","midi":60,"time":542.2695312499959,"velocity":0.8031496062992126,"duration":0.9388020833333712},{"name":"A4","midi":69,"time":542.2695312499959,"velocity":0.8031496062992126,"duration":0.9388020833333712},{"name":"E3","midi":52,"time":543.2148437499959,"velocity":0.8031496062992126,"duration":0.46614583333337123},{"name":"A3","midi":57,"time":543.2148437499959,"velocity":0.8031496062992126,"duration":1.88671875},{"name":"A4","midi":69,"time":543.2148437499959,"velocity":0.8031496062992126,"duration":1.953125},{"name":"C4","midi":60,"time":543.2148437499959,"velocity":0.8031496062992126,"duration":1.8841145833333712},{"name":"D3","midi":50,"time":543.6874999999959,"velocity":0.8031496062992126,"duration":0.46614583333337123},{"name":"C3","midi":48,"time":544.1601562499959,"velocity":0.8031496062992126,"duration":0.46614583333337123},{"name":"B2","midi":47,"time":544.6328124999959,"velocity":0.8031496062992126,"duration":0.46614583333337123},{"name":"C3","midi":48,"time":545.1041666666625,"velocity":0.8031496062992126,"duration":0.9388020833333712},{"name":"E3","midi":52,"time":545.1041666666625,"velocity":0.8031496062992126,"duration":0.9388020833333712},{"name":"A3","midi":57,"time":545.1041666666625,"velocity":0.8031496062992126,"duration":0.9388020833333712},{"name":"E4","midi":64,"time":545.1041666666625,"velocity":0.8031496062992126,"duration":0.9388020833333712},{"name":"A4","midi":69,"time":545.1822916666625,"velocity":0.8031496062992126,"duration":0.8606770833333712},{"name":"C5","midi":72,"time":545.2604166666625,"velocity":0.8031496062992126,"duration":0.77734375},{"name":"E5","midi":76,"time":545.3515624999959,"velocity":0.8031496062992126,"duration":0.6966145833333712},{"name":"D3","midi":50,"time":546.0494791666626,"velocity":0.8031496062992126,"duration":0.94140625},{"name":"A3","midi":57,"time":546.0494791666626,"velocity":0.8031496062992126,"duration":0.94140625},{"name":"C5","midi":72,"time":546.0494791666626,"velocity":0.8031496062992126,"duration":0.46614583333337123},{"name":"F4","midi":65,"time":546.0494791666626,"velocity":0.8031496062992126,"duration":0.9348958333333712},{"name":"E5","midi":76,"time":546.0494791666626,"velocity":0.8031496062992126,"duration":0.46614583333337123},{"name":"D5","midi":74,"time":546.5221354166626,"velocity":0.8031496062992126,"duration":0.46875},{"name":"B4","midi":71,"time":546.5221354166626,"velocity":0.8031496062992126,"duration":0.46875},{"name":"E3","midi":52,"time":546.996093749996,"velocity":0.8031496062992126,"duration":0.94140625},{"name":"E4","midi":64,"time":546.996093749996,"velocity":0.8031496062992126,"duration":0.9348958333333712},{"name":"C5","midi":72,"time":546.996093749996,"velocity":0.8031496062992126,"duration":0.46614583333337123},{"name":"A4","midi":69,"time":546.996093749996,"velocity":0.8031496062992126,"duration":0.46614583333337123},{"name":"G#4","midi":68,"time":547.468749999996,"velocity":0.8031496062992126,"duration":0.46875},{"name":"B4","midi":71,"time":547.468749999996,"velocity":0.8031496062992126,"duration":0.46875},{"name":"A2","midi":45,"time":547.9440104166626,"velocity":0.8031496062992126,"duration":0.9388020833333712},{"name":"G#4","midi":68,"time":547.9440104166626,"velocity":0.8031496062992126,"duration":0.6770833333333712},{"name":"B4","midi":71,"time":547.9440104166626,"velocity":0.8031496062992126,"duration":0.6770833333333712},{"name":"E4","midi":64,"time":547.9440104166626,"velocity":0.8031496062992126,"duration":0.9388020833333712},{"name":"C5","midi":72,"time":548.6276041666626,"velocity":0.8031496062992126,"duration":0.9752604166667425},{"name":"A4","midi":69,"time":548.6276041666626,"velocity":0.8031496062992126,"duration":0.73046875},{"name":"C3","midi":48,"time":548.8893229166626,"velocity":0.8031496062992126,"duration":0.9388020833333712},{"name":"D4","midi":62,"time":549.3619791666626,"velocity":0.8031496062992126,"duration":0.46614583333337123},{"name":"B4","midi":71,"time":549.597656249996,"velocity":0.8031496062992126,"duration":0.23046875},{"name":"E3","midi":52,"time":549.8346354166626,"velocity":0.8031496062992126,"duration":0.9765625},{"name":"C4","midi":60,"time":549.8346354166626,"velocity":0.8031496062992126,"duration":0.46614583333337123},{"name":"E4","midi":64,"time":549.8346354166626,"velocity":0.8031496062992126,"duration":0.9791666666666288},{"name":"A4","midi":69,"time":549.8346354166626,"velocity":0.8031496062992126,"duration":0.94140625},{"name":"B3","midi":59,"time":550.3072916666626,"velocity":0.8031496062992126,"duration":0.49479166666662877},{"name":"C5","midi":72,"time":550.8020833333293,"velocity":0.8031496062992126,"duration":0.46614583333337123},{"name":"A3","midi":57,"time":550.8020833333293,"velocity":0.8031496062992126,"duration":0.96484375},{"name":"A4","midi":69,"time":551.2747395833293,"velocity":0.8031496062992126,"duration":0.46614583333337123},{"name":"F4","midi":65,"time":551.7473958333293,"velocity":0.8031496062992126,"duration":0.46614583333337123},{"name":"A2","midi":45,"time":551.7473958333293,"velocity":0.8031496062992126,"duration":1.4140625},{"name":"E4","midi":64,"time":552.2200520833293,"velocity":0.8031496062992126,"duration":0.46614583333337123},{"name":"F4","midi":65,"time":552.6927083333293,"velocity":0.8031496062992126,"duration":0.46614583333337123},{"name":"A4","midi":69,"time":553.1640624999959,"velocity":0.8031496062992126,"duration":0.46614583333337123},{"name":"D5","midi":74,"time":553.6367187499959,"velocity":0.8031496062992126,"duration":0.46614583333337123},{"name":"B3","midi":59,"time":553.6367187499959,"velocity":0.8031496062992126,"duration":0.9388020833333712},{"name":"G4","midi":67,"time":554.1093749999959,"velocity":0.8031496062992126,"duration":0.46614583333337123},{"name":"F4","midi":65,"time":554.5820312499959,"velocity":0.8031496062992126,"duration":0.46614583333337123},{"name":"B2","midi":47,"time":554.5820312499959,"velocity":0.8031496062992126,"duration":1.4140625},{"name":"E4","midi":64,"time":555.0546874999959,"velocity":0.8031496062992126,"duration":0.46614583333337123},{"name":"F4","midi":65,"time":555.5273437499959,"velocity":0.8031496062992126,"duration":0.46614583333337123},{"name":"D5","midi":74,"time":555.9973958333293,"velocity":0.8031496062992126,"duration":0.47526041666662877},{"name":"C4","midi":60,"time":556.4908854166625,"velocity":0.8031496062992126,"duration":0.46614583333337123},{"name":"G4","midi":67,"time":556.4908854166625,"velocity":0.8031496062992126,"duration":0.9348958333333712},{"name":"E5","midi":76,"time":556.4908854166625,"velocity":0.8031496062992126,"duration":0.46614583333337123},{"name":"C5","midi":72,"time":556.4908854166625,"velocity":0.8031496062992126,"duration":0.46614583333337123},{"name":"B3","midi":59,"time":556.9635416666625,"velocity":0.8031496062992126,"duration":0.46875},{"name":"D5","midi":74,"time":556.9635416666625,"velocity":0.8031496062992126,"duration":0.46875},{"name":"A3","midi":57,"time":557.4388020833292,"velocity":0.8031496062992126,"duration":0.46614583333337123},{"name":"C4","midi":60,"time":557.4388020833292,"velocity":0.8031496062992126,"duration":0.9348958333333712},{"name":"C5","midi":72,"time":557.4388020833292,"velocity":0.8031496062992126,"duration":0.9348958333333712},{"name":"F5","midi":77,"time":557.4388020833292,"velocity":0.8031496062992126,"duration":0.46614583333337123},{"name":"G3","midi":55,"time":557.9114583333292,"velocity":0.8031496062992126,"duration":0.46875},{"name":"E5","midi":76,"time":557.9114583333292,"velocity":0.8031496062992126,"duration":0.46875},{"name":"F3","midi":53,"time":558.3854166666625,"velocity":0.8031496062992126,"duration":0.9348958333333712},{"name":"F4","midi":65,"time":558.3854166666625,"velocity":0.8031496062992126,"duration":0.46614583333337123},{"name":"D5","midi":74,"time":558.3854166666625,"velocity":0.8031496062992126,"duration":0.46614583333337123},{"name":"A4","midi":69,"time":558.3854166666625,"velocity":0.8031496062992126,"duration":0.9231770833333712},{"name":"E4","midi":64,"time":558.8580729166625,"velocity":0.8031496062992126,"duration":0.46223958333337123},{"name":"C5","midi":72,"time":558.8580729166625,"velocity":0.8031496062992126,"duration":0.46223958333337123},{"name":"F3","midi":53,"time":559.3333333333293,"velocity":0.8031496062992126,"duration":0.46614583333337123},{"name":"D4","midi":62,"time":559.3333333333293,"velocity":0.8031496062992126,"duration":0.9466145833333712},{"name":"G5","midi":79,"time":559.3333333333293,"velocity":0.8031496062992126,"duration":0.9466145833333712},{"name":"B4","midi":71,"time":559.3333333333293,"velocity":0.8031496062992126,"duration":0.9466145833333712},{"name":"E3","midi":52,"time":559.8059895833293,"velocity":0.8031496062992126,"duration":0.49479166666674246},{"name":"G5","midi":79,"time":560.300781249996,"velocity":0.8031496062992126,"duration":1.8229166666666288},{"name":"B4","midi":71,"time":560.300781249996,"velocity":0.8031496062992126,"duration":1.8229166666666288},{"name":"G3","midi":55,"time":560.300781249996,"velocity":0.8031496062992126,"duration":0.46614583333337123},{"name":"D4","midi":62,"time":560.300781249996,"velocity":0.8031496062992126,"duration":1.9270833333332575},{"name":"F3","midi":53,"time":560.773437499996,"velocity":0.8031496062992126,"duration":0.46614583333337123},{"name":"E3","midi":52,"time":561.246093749996,"velocity":0.8031496062992126,"duration":0.46614583333337123},{"name":"D3","midi":50,"time":561.718749999996,"velocity":0.8031496062992126,"duration":0.49348958333325754},{"name":"A#4","midi":70,"time":562.2317708333293,"velocity":0.8031496062992126,"duration":0.46614583333337123},{"name":"E3","midi":52,"time":562.2317708333293,"velocity":0.8031496062992126,"duration":1.88671875},{"name":"A4","midi":69,"time":562.7044270833293,"velocity":0.8031496062992126,"duration":0.46614583333337123},{"name":"A#4","midi":70,"time":563.1770833333293,"velocity":0.8031496062992126,"duration":0.46614583333337123},{"name":"G5","midi":79,"time":563.6497395833293,"velocity":0.8031496062992126,"duration":0.46614583333337123},{"name":"E5","midi":76,"time":564.1197916666626,"velocity":0.8031496062992126,"duration":0.46614583333337123},{"name":"A#4","midi":70,"time":564.5924479166626,"velocity":0.8031496062992126,"duration":0.46614583333337123},{"name":"A4","midi":69,"time":565.0651041666626,"velocity":0.8031496062992126,"duration":0.46614583333337123},{"name":"F3","midi":53,"time":565.0651041666626,"velocity":0.8031496062992126,"duration":1.8841145833333712},{"name":"G4","midi":67,"time":565.5377604166626,"velocity":0.8031496062992126,"duration":0.46614583333337123},{"name":"A4","midi":69,"time":566.0104166666626,"velocity":0.8031496062992126,"duration":0.46614583333337123},{"name":"A5","midi":81,"time":566.4830729166626,"velocity":0.8031496062992126,"duration":0.46614583333337123},{"name":"D#5","midi":75,"time":566.9557291666626,"velocity":0.8031496062992126,"duration":0.46614583333337123},{"name":"F#3","midi":54,"time":566.9557291666626,"velocity":0.8031496062992126,"duration":0.8854166666666288},{"name":"D5","midi":74,"time":567.4283854166626,"velocity":0.8031496062992126,"duration":0.46875},{"name":"B5","midi":83,"time":567.9244791666626,"velocity":0.8031496062992126,"duration":0.46614583333337123},{"name":"C6","midi":84,"time":568.3971354166626,"velocity":0.8031496062992126,"duration":0.46614583333337123},{"name":"G3","midi":55,"time":568.8697916666626,"velocity":0.8031496062992126,"duration":0.94140625},{"name":"F5","midi":77,"time":568.8697916666626,"velocity":0.8031496062992126,"duration":0.46614583333337123},{"name":"C5","midi":72,"time":568.8697916666626,"velocity":0.8031496062992126,"duration":0.9348958333333712},{"name":"G4","midi":67,"time":568.8697916666626,"velocity":0.8031496062992126,"duration":0.9348958333333712},{"name":"E5","midi":76,"time":569.3424479166626,"velocity":0.8031496062992126,"duration":0.46875},{"name":"G2","midi":43,"time":569.816406249996,"velocity":0.8031496062992126,"duration":0.94140625},{"name":"D5","midi":74,"time":569.816406249996,"velocity":0.8031496062992126,"duration":0.46614583333337123},{"name":"F4","midi":65,"time":569.816406249996,"velocity":0.8031496062992126,"duration":0.9348958333333712},{"name":"B4","midi":71,"time":569.816406249996,"velocity":0.8031496062992126,"duration":0.46614583333337123},{"name":"C5","midi":72,"time":570.289062499996,"velocity":0.8031496062992126,"duration":0.46875},{"name":"C3","midi":48,"time":570.7643229166626,"velocity":0.8031496062992126,"duration":0.94140625},{"name":"G4","midi":67,"time":570.7643229166626,"velocity":0.8031496062992126,"duration":0.9348958333333712},{"name":"F4","midi":65,"time":570.7643229166626,"velocity":0.8031496062992126,"duration":0.46614583333337123},{"name":"C5","midi":72,"time":570.7643229166626,"velocity":0.8031496062992126,"duration":0.9348958333333712},{"name":"D4","midi":62,"time":571.2369791666626,"velocity":0.8031496062992126,"duration":0.46875},{"name":"C2","midi":36,"time":571.710937499996,"velocity":0.8031496062992126,"duration":1.8828125},{"name":"G4","midi":67,"time":571.710937499996,"velocity":0.8031496062992126,"duration":1.8828125},{"name":"E4","midi":64,"time":571.710937499996,"velocity":0.8031496062992126,"duration":1.8828125},{"name":"C5","midi":72,"time":571.710937499996,"velocity":0.8031496062992126,"duration":1.8828125},{"name":"C3","midi":48,"time":573.6002604166626,"velocity":0.8031496062992126,"duration":0.46614583333337123},{"name":"G4","midi":67,"time":573.6002604166626,"velocity":0.8031496062992126,"duration":0.9388020833333712},{"name":"C4","midi":60,"time":573.6002604166626,"velocity":0.8031496062992126,"duration":0.9388020833333712},{"name":"E4","midi":64,"time":573.6002604166626,"velocity":0.8031496062992126,"duration":0.9388020833333712},{"name":"E3","midi":52,"time":574.0729166666626,"velocity":0.8031496062992126,"duration":0.46614583333337123},{"name":"G3","midi":55,"time":574.5455729166626,"velocity":0.8031496062992126,"duration":0.9388020833333712},{"name":"C4","midi":60,"time":574.5455729166626,"velocity":0.8031496062992126,"duration":0.46614583333337123},{"name":"G4","midi":67,"time":574.5455729166626,"velocity":0.8031496062992126,"duration":0.46614583333337123},{"name":"E4","midi":64,"time":574.5455729166626,"velocity":0.8031496062992126,"duration":0.46614583333337123},{"name":"D4","midi":62,"time":575.0182291666626,"velocity":0.8031496062992126,"duration":0.46614583333337123},{"name":"F4","midi":65,"time":575.0182291666626,"velocity":0.8031496062992126,"duration":0.46614583333337123},{"name":"G2","midi":43,"time":575.4908854166626,"velocity":0.8031496062992126,"duration":0.9388020833333712},{"name":"G3","midi":55,"time":575.4908854166626,"velocity":0.8031496062992126,"duration":0.9388020833333712},{"name":"E4","midi":64,"time":575.4908854166626,"velocity":0.8031496062992126,"duration":0.46614583333337123},{"name":"C4","midi":60,"time":575.4908854166626,"velocity":0.8031496062992126,"duration":0.46614583333337123},{"name":"D4","midi":62,"time":575.9635416666626,"velocity":0.8031496062992126,"duration":0.46614583333337123},{"name":"B3","midi":59,"time":575.9635416666626,"velocity":0.8031496062992126,"duration":0.46614583333337123},{"name":"C3","midi":48,"time":576.4361979166626,"velocity":0.8031496062992126,"duration":0.9388020833333712},{"name":"G3","midi":55,"time":576.4361979166626,"velocity":0.8031496062992126,"duration":0.9388020833333712},{"name":"E4","midi":64,"time":576.4361979166626,"velocity":0.8031496062992126,"duration":0.9388020833333712},{"name":"C4","midi":60,"time":576.4361979166626,"velocity":0.8031496062992126,"duration":0.9388020833333712},{"name":"C3","midi":48,"time":577.3815104166626,"velocity":0.8031496062992126,"duration":0.46614583333337123},{"name":"G3","midi":55,"time":577.3815104166626,"velocity":0.8031496062992126,"duration":0.46614583333337123},{"name":"C4","midi":60,"time":577.3815104166626,"velocity":0.8031496062992126,"duration":1.8841145833333712},{"name":"E4","midi":64,"time":577.3815104166626,"velocity":0.8031496062992126,"duration":1.8841145833333712},{"name":"B2","midi":47,"time":577.8541666666626,"velocity":0.8031496062992126,"duration":0.46614583333337123},{"name":"A2","midi":45,"time":578.3268229166626,"velocity":0.8031496062992126,"duration":0.46614583333337123},{"name":"G2","midi":43,"time":578.7994791666626,"velocity":0.8031496062992126,"duration":0.46614583333337123},{"name":"F#2","midi":42,"time":579.2721354166626,"velocity":0.8031496062992126,"duration":0.94140625},{"name":"A3","midi":57,"time":579.2721354166626,"velocity":0.8031496062992126,"duration":0.94140625},{"name":"D#4","midi":63,"time":579.2721354166626,"velocity":0.8031496062992126,"duration":0.9348958333333712},{"name":"A4","midi":69,"time":579.7447916666626,"velocity":0.8031496062992126,"duration":0.46875},{"name":"B3","midi":59,"time":580.218749999996,"velocity":0.8031496062992126,"duration":0.94140625},{"name":"E2","midi":40,"time":580.218749999996,"velocity":0.8031496062992126,"duration":0.94140625},{"name":"G4","midi":67,"time":580.218749999996,"velocity":0.8031496062992126,"duration":0.46614583333337123},{"name":"E4","midi":64,"time":580.218749999996,"velocity":0.8031496062992126,"duration":0.9348958333333712},{"name":"F#4","midi":66,"time":580.691406249996,"velocity":0.8031496062992126,"duration":0.46875},{"name":"E3","midi":52,"time":581.1666666666626,"velocity":0.8031496062992126,"duration":0.94140625},{"name":"B3","midi":59,"time":581.1666666666626,"velocity":0.8031496062992126,"duration":0.94140625},{"name":"E4","midi":64,"time":581.1666666666626,"velocity":0.8031496062992126,"duration":0.9348958333333712},{"name":"G4","midi":67,"time":581.1666666666626,"velocity":0.8031496062992126,"duration":0.390625},{"name":"B4","midi":71,"time":581.402343749996,"velocity":0.8031496062992126,"duration":0.390625},{"name":"E5","midi":76,"time":581.6393229166626,"velocity":0.8031496062992126,"duration":0.46875},{"name":"B2","midi":47,"time":582.113281249996,"velocity":0.8031496062992126,"duration":0.46614583333337123},{"name":"B3","midi":59,"time":582.113281249996,"velocity":0.8031496062992126,"duration":0.46614583333337123},{"name":"F#4","midi":66,"time":582.113281249996,"velocity":0.8031496062992126,"duration":0.9348958333332575},{"name":"D#5","midi":75,"time":582.113281249996,"velocity":0.8031496062992126,"duration":0.46614583333337123},{"name":"C#4","midi":61,"time":582.585937499996,"velocity":0.8031496062992126,"duration":0.4687499999998863},{"name":"F#5","midi":78,"time":582.585937499996,"velocity":0.8031496062992126,"duration":0.23046875},{"name":"E5","midi":76,"time":582.8229166666626,"velocity":0.8031496062992126,"duration":0.23177083333325754},{"name":"D#4","midi":63,"time":583.0611979166625,"velocity":0.8031496062992126,"duration":0.9348958333333712},{"name":"B3","midi":59,"time":583.0611979166625,"velocity":0.8031496062992126,"duration":0.46614583333337123},{"name":"B4","midi":71,"time":583.0611979166625,"velocity":0.8031496062992126,"duration":0.9348958333333712},{"name":"E5","midi":76,"time":583.0611979166625,"velocity":0.8031496062992126,"duration":0.46614583333337123},{"name":"A3","midi":57,"time":583.5338541666625,"velocity":0.8031496062992126,"duration":0.46875},{"name":"F#5","midi":78,"time":583.5338541666625,"velocity":0.8031496062992126,"duration":1.0416666666666288},{"name":"B4","midi":71,"time":584.0286458333292,"velocity":0.8031496062992126,"duration":1.0234375},{"name":"G3","midi":55,"time":584.0286458333292,"velocity":0.8031496062992126,"duration":0.46614583333337123},{"name":"F#3","midi":54,"time":584.5013020833292,"velocity":0.8031496062992126,"duration":0.5},{"name":"G5","midi":79,"time":585.0156249999958,"velocity":0.8031496062992126,"duration":0.46614583333337123},{"name":"E3","midi":52,"time":585.0156249999958,"velocity":0.8031496062992126,"duration":0.9388020833333712},{"name":"E5","midi":76,"time":585.4882812499958,"velocity":0.8031496062992126,"duration":0.46614583333337123},{"name":"C5","midi":72,"time":585.9609374999958,"velocity":0.8031496062992126,"duration":0.46614583333337123},{"name":"E4","midi":64,"time":585.9609374999958,"velocity":0.8031496062992126,"duration":1.1809895833333712},{"name":"B4","midi":71,"time":586.4335937499958,"velocity":0.8031496062992126,"duration":0.46614583333337123},{"name":"A#4","midi":70,"time":586.9062499999958,"velocity":0.8031496062992126,"duration":0.46614583333337123},{"name":"G5","midi":79,"time":587.3789062499958,"velocity":0.8031496062992126,"duration":0.46614583333337123},{"name":"E3","midi":52,"time":587.3789062499958,"velocity":0.8031496062992126,"duration":0.46614583333337123},{"name":"F#5","midi":78,"time":587.8515624999958,"velocity":0.8031496062992126,"duration":0.46614583333337123},{"name":"D#3","midi":51,"time":587.8515624999958,"velocity":0.8031496062992126,"duration":0.9388020833333712},{"name":"C5","midi":72,"time":588.3242187499958,"velocity":0.8031496062992126,"duration":0.46614583333337123},{"name":"B4","midi":71,"time":588.7968749999958,"velocity":0.8031496062992126,"duration":0.46614583333337123},{"name":"D#4","midi":63,"time":588.7968749999958,"velocity":0.8031496062992126,"duration":0.9309895833333712},{"name":"A4","midi":69,"time":589.2695312499958,"velocity":0.8031496062992126,"duration":0.47916666666662877},{"name":"G#4","midi":68,"time":589.7421874999958,"velocity":0.8031496062992126,"duration":0.5494791666666288},{"name":"F5","midi":77,"time":590.2148437499958,"velocity":0.8031496062992126,"duration":0.46614583333325754},{"name":"D3","midi":50,"time":590.2148437499958,"velocity":0.8031496062992126,"duration":0.46614583333325754},{"name":"E5","midi":76,"time":590.6874999999957,"velocity":0.8031496062992126,"duration":0.46614583333337123},{"name":"C3","midi":48,"time":590.6874999999957,"velocity":0.8031496062992126,"duration":0.9388020833333712},{"name":"A5","midi":81,"time":591.1601562499957,"velocity":0.8031496062992126,"duration":0.46614583333337123},{"name":"C6","midi":84,"time":591.1601562499957,"velocity":0.8031496062992126,"duration":0.46614583333337123},{"name":"G5","midi":79,"time":591.6328124999957,"velocity":0.8031496062992126,"duration":0.46614583333337123},{"name":"B5","midi":83,"time":591.6328124999957,"velocity":0.8031496062992126,"duration":0.46614583333337123},{"name":"E5","midi":76,"time":591.6328124999957,"velocity":0.8031496062992126,"duration":0.9348958333333712},{"name":"G2","midi":43,"time":591.6328124999957,"velocity":0.8031496062992126,"duration":0.94140625},{"name":"A5","midi":81,"time":592.1054687499957,"velocity":0.8031496062992126,"duration":0.46875},{"name":"F#5","midi":78,"time":592.1054687499957,"velocity":0.8031496062992126,"duration":0.46875},{"name":"G5","midi":79,"time":592.5807291666623,"velocity":0.8031496062992126,"duration":0.46614583333337123},{"name":"E5","midi":76,"time":592.5807291666623,"velocity":0.8031496062992126,"duration":0.46614583333337123},{"name":"B4","midi":71,"time":592.5807291666623,"velocity":0.8031496062992126,"duration":0.9348958333333712},{"name":"B2","midi":47,"time":592.5807291666623,"velocity":0.8031496062992126,"duration":0.94140625},{"name":"F#5","midi":78,"time":593.0533854166623,"velocity":0.8031496062992126,"duration":0.46614583333337123},{"name":"D#5","midi":75,"time":593.0533854166623,"velocity":0.8031496062992126,"duration":0.46614583333337123},{"name":"D#5","midi":75,"time":593.5273437499957,"velocity":0.8031496062992126,"duration":0.6640625},{"name":"F#5","midi":78,"time":593.5273437499957,"velocity":0.8031496062992126,"duration":0.6640625},{"name":"B4","midi":71,"time":593.5273437499957,"velocity":0.8031496062992126,"duration":0.9348958333333712},{"name":"E2","midi":40,"time":593.5273437499957,"velocity":0.8031496062992126,"duration":0.94140625},{"name":"E5","midi":76,"time":594.1796874999957,"velocity":0.8031496062992126,"duration":0.49479166666662877},{"name":"G5","midi":79,"time":594.1796874999957,"velocity":0.8031496062992126,"duration":0.7552083333332575},{"name":"G2","midi":43,"time":594.4752604166623,"velocity":0.8031496062992126,"duration":0.9388020833332575},{"name":"B4","midi":71,"time":594.4778645833289,"velocity":0.8031496062992126,"duration":1.88671875},{"name":"G4","midi":67,"time":594.4778645833289,"velocity":0.8031496062992126,"duration":1.88671875},{"name":"F#5","midi":78,"time":594.9388020833289,"velocity":0.8031496062992126,"duration":0.46875},{"name":"E5","midi":76,"time":595.4205729166622,"velocity":0.8031496062992126,"duration":0.9388020833333712},{"name":"B2","midi":47,"time":595.4205729166622,"velocity":0.8031496062992126,"duration":0.9726562500001137},{"name":"G5","midi":79,"time":596.4049479166623,"velocity":0.8031496062992126,"duration":0.46614583333337123},{"name":"E3","midi":52,"time":596.4049479166623,"velocity":0.8031496062992126,"duration":0.9388020833333712},{"name":"A5","midi":81,"time":596.8776041666623,"velocity":0.8031496062992126,"duration":0.46614583333337123},{"name":"G5","midi":79,"time":597.3502604166623,"velocity":0.8031496062992126,"duration":1.88671875},{"name":"F3","midi":53,"time":597.3502604166623,"velocity":0.8031496062992126,"duration":0.9388020833333712},{"name":"F5","midi":77,"time":597.8229166666623,"velocity":0.8031496062992126,"duration":0.46614583333337123},{"name":"E5","midi":76,"time":598.2955729166623,"velocity":0.8031496062992126,"duration":0.46614583333337123},{"name":"G3","midi":55,"time":598.2955729166623,"velocity":0.8031496062992126,"duration":0.9388020833333712},{"name":"D5","midi":74,"time":598.7682291666623,"velocity":0.8031496062992126,"duration":0.46614583333337123},{"name":"C#5","midi":73,"time":599.2395833333289,"velocity":0.8031496062992126,"duration":0.9348958333333712},{"name":"G5","midi":79,"time":599.2395833333289,"velocity":0.8031496062992126,"duration":0.46614583333337123},{"name":"A3","midi":57,"time":599.2395833333289,"velocity":0.8031496062992126,"duration":0.9348958333333712},{"name":"F5","midi":77,"time":599.7122395833289,"velocity":0.8031496062992126,"duration":0.46875},{"name":"A#4","midi":70,"time":599.7122395833289,"velocity":0.8031496062992126,"duration":0.46875},{"name":"G5","midi":79,"time":600.1861979166623,"velocity":0.8031496062992126,"duration":1.91015625},{"name":"C#5","midi":73,"time":600.1861979166623,"velocity":0.8031496062992126,"duration":1.9127604166666288},{"name":"A4","midi":69,"time":600.1861979166623,"velocity":0.8031496062992126,"duration":0.46614583333337123},{"name":"G4","midi":67,"time":600.6588541666623,"velocity":0.8031496062992126,"duration":0.46614583333337123},{"name":"F4","midi":65,"time":601.1523437499957,"velocity":0.8031496062992126,"duration":0.46614583333337123},{"name":"E4","midi":64,"time":601.6249999999957,"velocity":0.8031496062992126,"duration":0.5130208333332575},{"name":"F5","midi":77,"time":602.1171874999956,"velocity":0.8031496062992126,"duration":0.46614583333337123},{"name":"D3","midi":50,"time":602.1171874999956,"velocity":0.8031496062992126,"duration":0.9388020833333712},{"name":"D4","midi":62,"time":602.1171874999956,"velocity":0.8031496062992126,"duration":0.9388020833333712},{"name":"G5","midi":79,"time":602.5898437499956,"velocity":0.8031496062992126,"duration":0.46614583333337123},{"name":"F5","midi":77,"time":603.0624999999956,"velocity":0.8031496062992126,"duration":1.88671875},{"name":"E3","midi":52,"time":603.0624999999956,"velocity":0.8031496062992126,"duration":0.9388020833333712},{"name":"E5","midi":76,"time":603.5351562499956,"velocity":0.8031496062992126,"duration":0.46614583333337123},{"name":"D5","midi":74,"time":604.0078124999956,"velocity":0.8031496062992126,"duration":0.46614583333337123},{"name":"F3","midi":53,"time":604.0078124999956,"velocity":0.8031496062992126,"duration":0.9388020833333712},{"name":"C5","midi":72,"time":604.4804687499956,"velocity":0.8031496062992126,"duration":0.46614583333337123},{"name":"F5","midi":77,"time":604.9505208333289,"velocity":0.8031496062992126,"duration":0.46614583333337123},{"name":"B4","midi":71,"time":604.9505208333289,"velocity":0.8031496062992126,"duration":0.9348958333333712},{"name":"G3","midi":55,"time":604.9505208333289,"velocity":0.8031496062992126,"duration":0.9348958333333712},{"name":"A4","midi":69,"time":605.4231770833289,"velocity":0.8031496062992126,"duration":0.46875},{"name":"E5","midi":76,"time":605.4231770833289,"velocity":0.8031496062992126,"duration":0.46875},{"name":"F5","midi":77,"time":605.8984374999956,"velocity":0.8031496062992126,"duration":1.9270833333333712},{"name":"B4","midi":71,"time":605.8984374999956,"velocity":0.8031496062992126,"duration":1.9270833333333712},{"name":"G4","midi":67,"time":605.8984374999956,"velocity":0.8031496062992126,"duration":0.46614583333337123},{"name":"F4","midi":65,"time":606.3710937499956,"velocity":0.8031496062992126,"duration":0.46614583333337123},{"name":"E4","midi":64,"time":606.8645833333289,"velocity":0.8031496062992126,"duration":0.46614583333337123},{"name":"D4","midi":62,"time":607.3372395833289,"velocity":0.8031496062992126,"duration":0.46614583333337123},{"name":"C5","midi":72,"time":607.8281249999956,"velocity":0.8031496062992126,"duration":1.88671875},{"name":"E5","midi":76,"time":607.8281249999956,"velocity":0.8031496062992126,"duration":0.46614583333337123},{"name":"C4","midi":60,"time":607.8281249999956,"velocity":0.8031496062992126,"duration":0.46614583333337123},{"name":"D5","midi":74,"time":608.3007812499956,"velocity":0.8031496062992126,"duration":0.46614583333337123},{"name":"B3","midi":59,"time":608.3007812499956,"velocity":0.8031496062992126,"duration":0.46614583333337123},{"name":"F5","midi":77,"time":608.7734374999956,"velocity":0.8031496062992126,"duration":0.46614583333337123},{"name":"A3","midi":57,"time":608.7734374999956,"velocity":0.8031496062992126,"duration":0.46614583333337123},{"name":"E5","midi":76,"time":609.2460937499956,"velocity":0.8031496062992126,"duration":0.46614583333337123},{"name":"G3","midi":55,"time":609.2460937499956,"velocity":0.8031496062992126,"duration":0.46614583333337123},{"name":"C5","midi":72,"time":609.7174479166622,"velocity":0.8031496062992126,"duration":0.46614583333337123},{"name":"A5","midi":81,"time":609.7174479166622,"velocity":0.8031496062992126,"duration":0.46614583333337123},{"name":"F3","midi":53,"time":609.7174479166622,"velocity":0.8031496062992126,"duration":0.46614583333337123},{"name":"G5","midi":79,"time":610.1901041666622,"velocity":0.8031496062992126,"duration":0.46614583333337123},{"name":"E3","midi":52,"time":610.1901041666622,"velocity":0.8031496062992126,"duration":0.46614583333337123},{"name":"F5","midi":77,"time":610.6627604166622,"velocity":0.8031496062992126,"duration":0.46614583333337123},{"name":"A#5","midi":82,"time":610.6627604166622,"velocity":0.8031496062992126,"duration":0.46614583333337123},{"name":"D3","midi":50,"time":610.6627604166622,"velocity":0.8031496062992126,"duration":0.46614583333337123},{"name":"E5","midi":76,"time":611.1354166666622,"velocity":0.8031496062992126,"duration":0.46614583333337123},{"name":"A5","midi":81,"time":611.1354166666622,"velocity":0.8031496062992126,"duration":0.46614583333337123},{"name":"C3","midi":48,"time":611.1354166666622,"velocity":0.8031496062992126,"duration":0.46614583333337123},{"name":"D5","midi":74,"time":611.6080729166622,"velocity":0.8031496062992126,"duration":0.46614583333337123},{"name":"G#5","midi":80,"time":611.6080729166622,"velocity":0.8031496062992126,"duration":0.46614583333337123},{"name":"B2","midi":47,"time":611.6080729166622,"velocity":0.8031496062992126,"duration":0.46614583333337123},{"name":"C5","midi":72,"time":612.0807291666622,"velocity":0.8031496062992126,"duration":0.46614583333337123},{"name":"A5","midi":81,"time":612.0807291666622,"velocity":0.8031496062992126,"duration":0.46614583333337123},{"name":"A2","midi":45,"time":612.0807291666622,"velocity":0.8031496062992126,"duration":0.46614583333337123},{"name":"B4","midi":71,"time":612.5533854166622,"velocity":0.8031496062992126,"duration":0.46614583333337123},{"name":"F5","midi":77,"time":612.5533854166622,"velocity":0.8031496062992126,"duration":0.46614583333337123},{"name":"G#2","midi":44,"time":612.5533854166622,"velocity":0.8031496062992126,"duration":0.46614583333337123},{"name":"C5","midi":72,"time":613.0260416666622,"velocity":0.8031496062992126,"duration":0.49609375},{"name":"E5","midi":76,"time":613.0260416666622,"velocity":0.8031496062992126,"duration":0.49609375},{"name":"A2","midi":45,"time":613.0260416666622,"velocity":0.8031496062992126,"duration":0.46614583333337123},{"name":"F#2","midi":42,"time":613.5195312499956,"velocity":0.8031496062992126,"duration":0.9414062499998863},{"name":"A4","midi":69,"time":613.5195312499956,"velocity":0.8031496062992126,"duration":0.9348958333332575},{"name":"D#5","midi":75,"time":613.5195312499956,"velocity":0.8031496062992126,"duration":0.46614583333325754},{"name":"E5","midi":76,"time":613.9921874999955,"velocity":0.8031496062992126,"duration":0.46875},{"name":"E2","midi":40,"time":614.4661458333288,"velocity":0.8031496062992126,"duration":1.015625},{"name":"E4","midi":64,"time":614.4661458333288,"velocity":0.8031496062992126,"duration":0.984375},{"name":"A4","midi":69,"time":614.4661458333288,"velocity":0.8031496062992126,"duration":0.984375},{"name":"D5","midi":74,"time":614.4661458333288,"velocity":0.8031496062992126,"duration":0.46614583333337123},{"name":"C5","midi":72,"time":614.9388020833288,"velocity":0.8031496062992126,"duration":0.46875},{"name":"D4","midi":62,"time":615.4348958333288,"velocity":0.8031496062992126,"duration":0.95703125},{"name":"G#4","midi":68,"time":615.4348958333288,"velocity":0.8031496062992126,"duration":0.9348958333333712},{"name":"B4","midi":71,"time":615.4348958333288,"velocity":0.8031496062992126,"duration":0.46614583333337123},{"name":"E3","midi":52,"time":615.4348958333288,"velocity":0.8031496062992126,"duration":0.96484375},{"name":"A4","midi":69,"time":615.9075520833288,"velocity":0.8031496062992126,"duration":0.46875},{"name":"A2","midi":45,"time":616.4023437499955,"velocity":0.8031496062992126,"duration":0.53515625},{"name":"E4","midi":64,"time":616.4023437499955,"velocity":0.8031496062992126,"duration":1.078125},{"name":"C4","midi":60,"time":616.4023437499955,"velocity":0.8031496062992126,"duration":1.078125},{"name":"A4","midi":69,"time":616.4023437499955,"velocity":0.8031496062992126,"duration":1.078125},{"name":"C3","midi":48,"time":616.9648437499955,"velocity":0.8031496062992126,"duration":0.265625},{"name":"E3","midi":52,"time":617.2460937499955,"velocity":0.8031496062992126,"duration":0.265625},{"name":"A3","midi":57,"time":617.5286458333288,"velocity":0.8031496062992126,"duration":2.2135416666666288},{"name":"E4","midi":64,"time":617.5286458333288,"velocity":0.8031496062992126,"duration":2.2135416666666288},{"name":"C4","midi":60,"time":617.5286458333288,"velocity":0.8031496062992126,"duration":2.2135416666666288},{"name":"A4","midi":69,"time":617.5286458333288,"velocity":0.8031496062992126,"duration":2.2135416666666288},{"name":"A3","midi":57,"time":619.9062499999955,"velocity":0.8031496062992126,"duration":0.22265625},{"name":"A5","midi":81,"time":619.9062499999955,"velocity":0.8031496062992126,"duration":0.44661458333325754},{"name":"B3","midi":59,"time":620.1432291666621,"velocity":0.8031496062992126,"duration":0.22265625},{"name":"F5","midi":77,"time":620.3776041666621,"velocity":0.8031496062992126,"duration":0.109375},{"name":"C4","midi":60,"time":620.3776041666621,"velocity":0.8031496062992126,"duration":0.22005208333325754},{"name":"E5","midi":76,"time":620.4895833333287,"velocity":0.8031496062992126,"duration":0.109375},{"name":"F5","midi":77,"time":620.6002604166621,"velocity":0.8031496062992126,"duration":0.109375},{"name":"A3","midi":57,"time":620.6002604166621,"velocity":0.8031496062992126,"duration":0.22005208333325754},{"name":"E5","midi":76,"time":620.7122395833287,"velocity":0.8031496062992126,"duration":0.109375},{"name":"D5","midi":74,"time":620.8229166666621,"velocity":0.8031496062992126,"duration":0.22265625},{"name":"C4","midi":60,"time":620.8229166666621,"velocity":0.8031496062992126,"duration":0.22265625},{"name":"E5","midi":76,"time":621.0481770833287,"velocity":0.8031496062992126,"duration":0.22265625},{"name":"A3","midi":57,"time":621.0481770833287,"velocity":0.8031496062992126,"duration":0.22265625},{"name":"F5","midi":77,"time":621.2721354166621,"velocity":0.8031496062992126,"duration":0.44661458333325754},{"name":"D4","midi":62,"time":621.2721354166621,"velocity":0.8031496062992126,"duration":0.22265625},{"name":"A3","midi":57,"time":621.4973958333287,"velocity":0.8031496062992126,"duration":0.22265625},{"name":"E5","midi":76,"time":621.7213541666621,"velocity":0.8031496062992126,"duration":0.22265625},{"name":"D4","midi":62,"time":621.7213541666621,"velocity":0.8031496062992126,"duration":0.22265625},{"name":"D5","midi":74,"time":621.9466145833287,"velocity":0.8031496062992126,"duration":0.22265625},{"name":"A3","midi":57,"time":621.9466145833287,"velocity":0.8031496062992126,"duration":0.22265625},{"name":"E5","midi":76,"time":622.1705729166621,"velocity":0.8031496062992126,"duration":0.44661458333325754},{"name":"C4","midi":60,"time":622.1705729166621,"velocity":0.8031496062992126,"duration":0.22265625},{"name":"A3","midi":57,"time":622.3958333333287,"velocity":0.8031496062992126,"duration":0.22265625},{"name":"A4","midi":69,"time":622.6197916666621,"velocity":0.8031496062992126,"duration":0.44661458333325754},{"name":"D4","midi":62,"time":622.6197916666621,"velocity":0.8031496062992126,"duration":0.22265625},{"name":"A3","midi":57,"time":622.8450520833287,"velocity":0.8031496062992126,"duration":0.22265625},{"name":"A4","midi":69,"time":623.0690104166621,"velocity":0.8031496062992126,"duration":0.44661458333325754},{"name":"C4","midi":60,"time":623.0690104166621,"velocity":0.8031496062992126,"duration":0.22265625},{"name":"A3","midi":57,"time":623.2942708333287,"velocity":0.8031496062992126,"duration":0.22265625},{"name":"A5","midi":81,"time":623.5182291666621,"velocity":0.8031496062992126,"duration":0.44661458333325754},{"name":"B3","midi":59,"time":623.5182291666621,"velocity":0.8031496062992126,"duration":0.22265625},{"name":"A3","midi":57,"time":623.7434895833287,"velocity":0.8031496062992126,"duration":0.22265625},{"name":"F5","midi":77,"time":623.9674479166621,"velocity":0.8031496062992126,"duration":0.109375},{"name":"C4","midi":60,"time":623.9674479166621,"velocity":0.8031496062992126,"duration":0.22005208333325754},{"name":"E5","midi":76,"time":624.0794270833287,"velocity":0.8031496062992126,"duration":0.109375},{"name":"F5","midi":77,"time":624.1901041666621,"velocity":0.8031496062992126,"duration":0.109375},{"name":"A3","midi":57,"time":624.1901041666621,"velocity":0.8031496062992126,"duration":0.22005208333325754},{"name":"E5","midi":76,"time":624.3020833333287,"velocity":0.8031496062992126,"duration":0.109375},{"name":"D5","midi":74,"time":624.4127604166621,"velocity":0.8031496062992126,"duration":0.22265625},{"name":"C4","midi":60,"time":624.4127604166621,"velocity":0.8031496062992126,"duration":0.22265625},{"name":"E5","midi":76,"time":624.6380208333287,"velocity":0.8031496062992126,"duration":0.22265625},{"name":"A3","midi":57,"time":624.6380208333287,"velocity":0.8031496062992126,"duration":0.22265625},{"name":"F5","midi":77,"time":624.8619791666621,"velocity":0.8031496062992126,"duration":0.44661458333325754},{"name":"D4","midi":62,"time":624.8619791666621,"velocity":0.8031496062992126,"duration":0.22265625},{"name":"A3","midi":57,"time":625.0872395833287,"velocity":0.8031496062992126,"duration":0.22265625},{"name":"E5","midi":76,"time":625.3111979166621,"velocity":0.8031496062992126,"duration":0.22265625},{"name":"D4","midi":62,"time":625.3111979166621,"velocity":0.8031496062992126,"duration":0.22265625},{"name":"D5","midi":74,"time":625.5364583333287,"velocity":0.8031496062992126,"duration":0.22265625},{"name":"A3","midi":57,"time":625.5364583333287,"velocity":0.8031496062992126,"duration":0.22265625},{"name":"E5","midi":76,"time":625.7604166666621,"velocity":0.8031496062992126,"duration":0.44661458333325754},{"name":"C4","midi":60,"time":625.7604166666621,"velocity":0.8031496062992126,"duration":0.22265625},{"name":"A3","midi":57,"time":625.9856770833287,"velocity":0.8031496062992126,"duration":0.22265625},{"name":"D5","midi":74,"time":626.2096354166621,"velocity":0.8031496062992126,"duration":0.22265625},{"name":"C4","midi":60,"time":626.2096354166621,"velocity":0.8031496062992126,"duration":0.22265625},{"name":"C5","midi":72,"time":626.4348958333287,"velocity":0.8031496062992126,"duration":0.22265625},{"name":"A3","midi":57,"time":626.4348958333287,"velocity":0.8031496062992126,"duration":0.22265625},{"name":"D5","midi":74,"time":626.6588541666621,"velocity":0.8031496062992126,"duration":0.44661458333325754},{"name":"B3","midi":59,"time":626.6588541666621,"velocity":0.8031496062992126,"duration":0.22265625},{"name":"A3","midi":57,"time":626.8841145833287,"velocity":0.8031496062992126,"duration":0.22265625},{"name":"C5","midi":72,"time":627.1080729166621,"velocity":0.8031496062992126,"duration":0.22265625},{"name":"B3","midi":59,"time":627.1080729166621,"velocity":0.8031496062992126,"duration":0.22265625},{"name":"D5","midi":74,"time":627.3333333333287,"velocity":0.8031496062992126,"duration":0.22265625},{"name":"A3","midi":57,"time":627.3333333333287,"velocity":0.8031496062992126,"duration":0.22265625},{"name":"E5","midi":76,"time":627.5572916666621,"velocity":0.8031496062992126,"duration":0.44661458333325754},{"name":"G#3","midi":56,"time":627.5572916666621,"velocity":0.8031496062992126,"duration":0.22265625},{"name":"B3","midi":59,"time":627.7825520833287,"velocity":0.8031496062992126,"duration":0.22265625},{"name":"D5","midi":74,"time":628.0065104166621,"velocity":0.8031496062992126,"duration":0.22265625},{"name":"F#3","midi":54,"time":628.0065104166621,"velocity":0.8031496062992126,"duration":0.22265625},{"name":"C5","midi":72,"time":628.2317708333287,"velocity":0.8031496062992126,"duration":0.22265625},{"name":"B3","midi":59,"time":628.2317708333287,"velocity":0.8031496062992126,"duration":0.22265625},{"name":"D5","midi":74,"time":628.4557291666621,"velocity":0.8031496062992126,"duration":0.44661458333325754},{"name":"G#3","midi":56,"time":628.4557291666621,"velocity":0.8031496062992126,"duration":0.22265625},{"name":"B3","midi":59,"time":628.6809895833287,"velocity":0.8031496062992126,"duration":0.22265625},{"name":"C5","midi":72,"time":628.9049479166621,"velocity":0.8031496062992126,"duration":0.22265625},{"name":"E3","midi":52,"time":628.9049479166621,"velocity":0.8031496062992126,"duration":0.22265625},{"name":"B4","midi":71,"time":629.1302083333287,"velocity":0.8031496062992126,"duration":0.22265625},{"name":"G#3","midi":56,"time":629.1302083333287,"velocity":0.8031496062992126,"duration":0.22265625},{"name":"C5","midi":72,"time":629.3541666666621,"velocity":0.8031496062992126,"duration":0.44661458333325754},{"name":"A3","midi":57,"time":629.3541666666621,"velocity":0.8031496062992126,"duration":0.22265625},{"name":"E3","midi":52,"time":629.5794270833287,"velocity":0.8031496062992126,"duration":0.22265625},{"name":"B4","midi":71,"time":629.8033854166621,"velocity":0.8031496062992126,"duration":0.22265625},{"name":"A3","midi":57,"time":629.8033854166621,"velocity":0.8031496062992126,"duration":0.22265625},{"name":"C5","midi":72,"time":630.0286458333287,"velocity":0.8031496062992126,"duration":0.22265625},{"name":"E3","midi":52,"time":630.0286458333287,"velocity":0.8031496062992126,"duration":0.22265625},{"name":"D5","midi":74,"time":630.2526041666621,"velocity":0.8031496062992126,"duration":0.44661458333325754},{"name":"B3","midi":59,"time":630.2526041666621,"velocity":0.8031496062992126,"duration":0.22265625},{"name":"E3","midi":52,"time":630.4778645833287,"velocity":0.8031496062992126,"duration":0.22265625},{"name":"C5","midi":72,"time":630.7018229166621,"velocity":0.8031496062992126,"duration":0.22265625},{"name":"B3","midi":59,"time":630.7018229166621,"velocity":0.8031496062992126,"duration":0.22265625},{"name":"D5","midi":74,"time":630.9270833333287,"velocity":0.8031496062992126,"duration":0.22265625},{"name":"E3","midi":52,"time":630.9270833333287,"velocity":0.8031496062992126,"duration":0.22265625},{"name":"E5","midi":76,"time":631.1510416666621,"velocity":0.8031496062992126,"duration":0.22265625},{"name":"C4","midi":60,"time":631.1510416666621,"velocity":0.8031496062992126,"duration":0.22265625},{"name":"D5","midi":74,"time":631.3763020833287,"velocity":0.8031496062992126,"duration":0.22265625},{"name":"E3","midi":52,"time":631.3763020833287,"velocity":0.8031496062992126,"duration":0.22265625},{"name":"C5","midi":72,"time":631.6002604166621,"velocity":0.8031496062992126,"duration":0.22265625},{"name":"A3","midi":57,"time":631.6002604166621,"velocity":0.8031496062992126,"duration":0.22265625},{"name":"E5","midi":76,"time":631.8255208333287,"velocity":0.8031496062992126,"duration":0.22265625},{"name":"E3","midi":52,"time":631.8255208333287,"velocity":0.8031496062992126,"duration":0.22265625},{"name":"D5","midi":74,"time":632.0494791666621,"velocity":0.8031496062992126,"duration":0.22265625},{"name":"B3","midi":59,"time":632.0494791666621,"velocity":0.8031496062992126,"duration":0.22265625},{"name":"C5","midi":72,"time":632.2747395833287,"velocity":0.8031496062992126,"duration":0.22265625},{"name":"E3","midi":52,"time":632.2747395833287,"velocity":0.8031496062992126,"duration":0.22265625},{"name":"B4","midi":71,"time":632.4986979166621,"velocity":0.8031496062992126,"duration":0.22265625},{"name":"G#3","midi":56,"time":632.4986979166621,"velocity":0.8031496062992126,"duration":0.22265625},{"name":"C5","midi":72,"time":632.7239583333287,"velocity":0.8031496062992126,"duration":0.22265625},{"name":"E3","midi":52,"time":632.7239583333287,"velocity":0.8031496062992126,"duration":0.22265625},{"name":"D5","midi":74,"time":632.9479166666621,"velocity":0.8031496062992126,"duration":0.22265625},{"name":"A3","midi":57,"time":632.9479166666621,"velocity":0.8031496062992126,"duration":0.44661458333325754},{"name":"C5","midi":72,"time":633.1731770833287,"velocity":0.8031496062992126,"duration":0.22265625},{"name":"B4","midi":71,"time":633.3971354166621,"velocity":0.8031496062992126,"duration":0.22265625},{"name":"E3","midi":52,"time":633.3971354166621,"velocity":0.8031496062992126,"duration":0.44661458333325754},{"name":"C5","midi":72,"time":633.6223958333287,"velocity":0.8031496062992126,"duration":0.22265625},{"name":"A4","midi":69,"time":633.8463541666621,"velocity":0.8031496062992126,"duration":0.22265625},{"name":"C3","midi":48,"time":633.8463541666621,"velocity":0.8031496062992126,"duration":0.44661458333325754},{"name":"C5","midi":72,"time":634.0716145833287,"velocity":0.8031496062992126,"duration":0.22265625},{"name":"B4","midi":71,"time":634.2955729166621,"velocity":0.8031496062992126,"duration":0.22265625},{"name":"E3","midi":52,"time":634.2955729166621,"velocity":0.8031496062992126,"duration":0.44661458333325754},{"name":"D5","midi":74,"time":634.5208333333287,"velocity":0.8031496062992126,"duration":0.22265625},{"name":"C5","midi":72,"time":634.7447916666621,"velocity":0.8031496062992126,"duration":0.22265625},{"name":"A2","midi":45,"time":634.7447916666621,"velocity":0.8031496062992126,"duration":0.44661458333325754},{"name":"B4","midi":71,"time":634.9700520833287,"velocity":0.8031496062992126,"duration":0.22265625},{"name":"A4","midi":69,"time":635.1940104166621,"velocity":0.8031496062992126,"duration":0.22265625},{"name":"C3","midi":48,"time":635.1940104166621,"velocity":0.8031496062992126,"duration":0.44661458333325754},{"name":"E5","midi":76,"time":635.4192708333287,"velocity":0.8031496062992126,"duration":0.22265625},{"name":"C5","midi":72,"time":635.6432291666621,"velocity":0.8031496062992126,"duration":0.22265625},{"name":"E3","midi":52,"time":635.6432291666621,"velocity":0.8031496062992126,"duration":0.44661458333325754},{"name":"B4","midi":71,"time":635.8684895833287,"velocity":0.8031496062992126,"duration":0.22265625},{"name":"A4","midi":69,"time":636.0924479166621,"velocity":0.8031496062992126,"duration":0.22265625},{"name":"G3","midi":55,"time":636.0924479166621,"velocity":0.8031496062992126,"duration":0.44661458333325754},{"name":"E5","midi":76,"time":636.3177083333287,"velocity":0.8031496062992126,"duration":0.22265625},{"name":"C5","midi":72,"time":636.5416666666621,"velocity":0.8031496062992126,"duration":0.22265625},{"name":"F#3","midi":54,"time":636.5416666666621,"velocity":0.8031496062992126,"duration":0.44661458333325754},{"name":"B4","midi":71,"time":636.7669270833287,"velocity":0.8031496062992126,"duration":0.22265625},{"name":"A4","midi":69,"time":636.9908854166621,"velocity":0.8031496062992126,"duration":0.22265625},{"name":"A3","midi":57,"time":636.9908854166621,"velocity":0.8031496062992126,"duration":0.44661458333325754},{"name":"D5","midi":74,"time":637.2161458333287,"velocity":0.8031496062992126,"duration":0.22265625},{"name":"C5","midi":72,"time":637.4401041666621,"velocity":0.8031496062992126,"duration":0.22265625},{"name":"D3","midi":50,"time":637.4401041666621,"velocity":0.8031496062992126,"duration":0.44661458333325754},{"name":"B4","midi":71,"time":637.6653645833287,"velocity":0.8031496062992126,"duration":0.22265625},{"name":"A4","midi":69,"time":637.8893229166621,"velocity":0.8031496062992126,"duration":0.22265625},{"name":"F#3","midi":54,"time":637.8893229166621,"velocity":0.8031496062992126,"duration":0.44661458333325754},{"name":"D5","midi":74,"time":638.1145833333287,"velocity":0.8031496062992126,"duration":0.22265625},{"name":"B4","midi":71,"time":638.3385416666621,"velocity":0.8031496062992126,"duration":0.22265625},{"name":"G2","midi":43,"time":638.3385416666621,"velocity":0.8031496062992126,"duration":0.44661458333325754},{"name":"A4","midi":69,"time":638.5638020833287,"velocity":0.8031496062992126,"duration":0.22265625},{"name":"G4","midi":67,"time":638.7877604166621,"velocity":0.8031496062992126,"duration":0.22265625},{"name":"B2","midi":47,"time":638.7877604166621,"velocity":0.8031496062992126,"duration":0.44661458333325754},{"name":"D5","midi":74,"time":639.0130208333287,"velocity":0.8031496062992126,"duration":0.22265625},{"name":"B4","midi":71,"time":639.2369791666621,"velocity":0.8031496062992126,"duration":0.22265625},{"name":"D3","midi":50,"time":639.2369791666621,"velocity":0.8031496062992126,"duration":0.44661458333325754},{"name":"A4","midi":69,"time":639.4622395833287,"velocity":0.8031496062992126,"duration":0.22265625},{"name":"G4","midi":67,"time":639.6861979166621,"velocity":0.8031496062992126,"duration":0.22265625},{"name":"F#3","midi":54,"time":639.6861979166621,"velocity":0.8031496062992126,"duration":0.44661458333325754},{"name":"D5","midi":74,"time":639.9114583333287,"velocity":0.8031496062992126,"duration":0.22265625},{"name":"B4","midi":71,"time":640.1354166666621,"velocity":0.8031496062992126,"duration":0.22265625},{"name":"E3","midi":52,"time":640.1354166666621,"velocity":0.8031496062992126,"duration":0.44661458333325754},{"name":"A4","midi":69,"time":640.3606770833287,"velocity":0.8031496062992126,"duration":0.22265625},{"name":"G4","midi":67,"time":640.5846354166621,"velocity":0.8031496062992126,"duration":0.22265625},{"name":"G3","midi":55,"time":640.5846354166621,"velocity":0.8031496062992126,"duration":0.44661458333325754},{"name":"C5","midi":72,"time":640.8098958333287,"velocity":0.8031496062992126,"duration":0.22265625},{"name":"B4","midi":71,"time":641.0338541666621,"velocity":0.8031496062992126,"duration":0.22265625},{"name":"C3","midi":48,"time":641.0338541666621,"velocity":0.8031496062992126,"duration":0.44661458333325754},{"name":"A4","midi":69,"time":641.2591145833287,"velocity":0.8031496062992126,"duration":0.22265625},{"name":"G4","midi":67,"time":641.4830729166621,"velocity":0.8031496062992126,"duration":0.22265625},{"name":"E3","midi":52,"time":641.4830729166621,"velocity":0.8031496062992126,"duration":0.44661458333325754},{"name":"C5","midi":72,"time":641.7083333333287,"velocity":0.8031496062992126,"duration":0.22265625},{"name":"A4","midi":69,"time":641.9322916666621,"velocity":0.8031496062992126,"duration":0.22265625},{"name":"F#2","midi":42,"time":641.9322916666621,"velocity":0.8031496062992126,"duration":0.44661458333325754},{"name":"G4","midi":67,"time":642.1575520833287,"velocity":0.8031496062992126,"duration":0.22265625},{"name":"F#4","midi":66,"time":642.3815104166621,"velocity":0.8031496062992126,"duration":0.22265625},{"name":"A2","midi":45,"time":642.3815104166621,"velocity":0.8031496062992126,"duration":0.44661458333325754},{"name":"C5","midi":72,"time":642.6067708333287,"velocity":0.8031496062992126,"duration":0.22265625},{"name":"A4","midi":69,"time":642.8307291666621,"velocity":0.8031496062992126,"duration":0.22265625},{"name":"C3","midi":48,"time":642.8307291666621,"velocity":0.8031496062992126,"duration":0.44661458333325754},{"name":"G4","midi":67,"time":643.0559895833287,"velocity":0.8031496062992126,"duration":0.22265625},{"name":"F#4","midi":66,"time":643.2799479166621,"velocity":0.8031496062992126,"duration":0.22265625},{"name":"E3","midi":52,"time":643.2799479166621,"velocity":0.8031496062992126,"duration":0.44661458333325754},{"name":"C5","midi":72,"time":643.5052083333287,"velocity":0.8031496062992126,"duration":0.22265625},{"name":"A4","midi":69,"time":643.7291666666621,"velocity":0.8031496062992126,"duration":0.22265625},{"name":"D#3","midi":51,"time":643.7291666666621,"velocity":0.8031496062992126,"duration":0.44661458333325754},{"name":"G4","midi":67,"time":643.9544270833287,"velocity":0.8031496062992126,"duration":0.22265625},{"name":"F#4","midi":66,"time":644.1783854166621,"velocity":0.8031496062992126,"duration":0.22265625},{"name":"F#3","midi":54,"time":644.1783854166621,"velocity":0.8031496062992126,"duration":0.44661458333325754},{"name":"B4","midi":71,"time":644.4036458333287,"velocity":0.8031496062992126,"duration":0.22265625},{"name":"A4","midi":69,"time":644.6276041666621,"velocity":0.8031496062992126,"duration":0.22265625},{"name":"B2","midi":47,"time":644.6276041666621,"velocity":0.8031496062992126,"duration":0.44661458333325754},{"name":"G4","midi":67,"time":644.8528645833287,"velocity":0.8031496062992126,"duration":0.22265625},{"name":"F#4","midi":66,"time":645.0768229166621,"velocity":0.8031496062992126,"duration":0.22265625},{"name":"D#3","midi":51,"time":645.0768229166621,"velocity":0.8031496062992126,"duration":0.44661458333325754},{"name":"B4","midi":71,"time":645.3020833333287,"velocity":0.8031496062992126,"duration":0.22265625},{"name":"A4","midi":69,"time":645.5260416666621,"velocity":0.8031496062992126,"duration":0.109375},{"name":"E3","midi":52,"time":645.5260416666621,"velocity":0.8031496062992126,"duration":0.22005208333325754},{"name":"G4","midi":67,"time":645.6380208333287,"velocity":0.8031496062992126,"duration":0.109375},{"name":"A4","midi":69,"time":645.7486979166621,"velocity":0.8031496062992126,"duration":0.109375},{"name":"B2","midi":47,"time":645.7486979166621,"velocity":0.8031496062992126,"duration":0.22005208333325754},{"name":"G4","midi":67,"time":645.8606770833287,"velocity":0.8031496062992126,"duration":0.109375},{"name":"F#4","midi":66,"time":645.9713541666621,"velocity":0.8031496062992126,"duration":0.22265625},{"name":"E3","midi":52,"time":645.9713541666621,"velocity":0.8031496062992126,"duration":0.22265625},{"name":"G4","midi":67,"time":646.1966145833287,"velocity":0.8031496062992126,"duration":0.22265625},{"name":"B2","midi":47,"time":646.1966145833287,"velocity":0.8031496062992126,"duration":0.22265625},{"name":"A4","midi":69,"time":646.4205729166621,"velocity":0.8031496062992126,"duration":0.44661458333325754},{"name":"D#3","midi":51,"time":646.4205729166621,"velocity":0.8031496062992126,"duration":0.22265625},{"name":"B2","midi":47,"time":646.6458333333287,"velocity":0.8031496062992126,"duration":0.22265625},{"name":"G4","midi":67,"time":646.8697916666621,"velocity":0.8031496062992126,"duration":0.22265625},{"name":"D#3","midi":51,"time":646.8697916666621,"velocity":0.8031496062992126,"duration":0.22265625},{"name":"F#4","midi":66,"time":647.0950520833287,"velocity":0.8031496062992126,"duration":0.22265625},{"name":"B2","midi":47,"time":647.0950520833287,"velocity":0.8031496062992126,"duration":0.22265625},{"name":"G4","midi":67,"time":647.3190104166621,"velocity":0.8031496062992126,"duration":0.22265625},{"name":"E3","midi":52,"time":647.3190104166621,"velocity":0.8031496062992126,"duration":0.44661458333325754},{"name":"F#4","midi":66,"time":647.5442708333287,"velocity":0.8031496062992126,"duration":0.22265625},{"name":"E4","midi":64,"time":647.7682291666621,"velocity":0.8031496062992126,"duration":0.22265625},{"name":"B2","midi":47,"time":647.7682291666621,"velocity":0.8031496062992126,"duration":0.44661458333325754},{"name":"F#4","midi":66,"time":647.9934895833287,"velocity":0.8031496062992126,"duration":0.22265625},{"name":"G4","midi":67,"time":648.2174479166621,"velocity":0.8031496062992126,"duration":0.22265625},{"name":"E2","midi":40,"time":648.2174479166621,"velocity":0.8031496062992126,"duration":0.44661458333325754},{"name":"A4","midi":69,"time":648.4427083333287,"velocity":0.8031496062992126,"duration":0.22265625},{"name":"B4","midi":71,"time":648.6666666666621,"velocity":0.8031496062992126,"duration":0.22265625},{"name":"D#3","midi":51,"time":648.6666666666621,"velocity":0.8031496062992126,"duration":0.44661458333325754},{"name":"F#4","midi":66,"time":648.8919270833287,"velocity":0.8031496062992126,"duration":0.22265625},{"name":"G4","midi":67,"time":649.1158854166621,"velocity":0.8031496062992126,"duration":0.22265625},{"name":"E3","midi":52,"time":649.1158854166621,"velocity":0.8031496062992126,"duration":0.22265625},{"name":"A4","midi":69,"time":649.3411458333287,"velocity":0.8031496062992126,"duration":0.22265625},{"name":"B2","midi":47,"time":649.3411458333287,"velocity":0.8031496062992126,"duration":0.22265625},{"name":"F#4","midi":66,"time":649.5651041666621,"velocity":0.8031496062992126,"duration":0.22265625},{"name":"E3","midi":52,"time":649.5651041666621,"velocity":0.8031496062992126,"duration":0.22265625},{"name":"G4","midi":67,"time":649.7903645833287,"velocity":0.8031496062992126,"duration":0.22265625},{"name":"B2","midi":47,"time":649.7903645833287,"velocity":0.8031496062992126,"duration":0.22265625},{"name":"A4","midi":69,"time":650.0143229166621,"velocity":0.8031496062992126,"duration":0.22265625},{"name":"D#3","midi":51,"time":650.0143229166621,"velocity":0.8031496062992126,"duration":0.22265625},{"name":"F#4","midi":66,"time":650.2395833333287,"velocity":0.8031496062992126,"duration":0.22265625},{"name":"B2","midi":47,"time":650.2395833333287,"velocity":0.8031496062992126,"duration":0.22265625},{"name":"G4","midi":67,"time":650.4635416666621,"velocity":0.8031496062992126,"duration":0.22265625},{"name":"D#3","midi":51,"time":650.4635416666621,"velocity":0.8031496062992126,"duration":0.22265625},{"name":"A4","midi":69,"time":650.6888020833287,"velocity":0.8031496062992126,"duration":0.22265625},{"name":"B2","midi":47,"time":650.6888020833287,"velocity":0.8031496062992126,"duration":0.22265625},{"name":"G4","midi":67,"time":650.9127604166621,"velocity":0.8031496062992126,"duration":0.22265625},{"name":"E3","midi":52,"time":650.9127604166621,"velocity":0.8031496062992126,"duration":0.44661458333325754},{"name":"E4","midi":64,"time":651.1380208333287,"velocity":0.8031496062992126,"duration":0.22265625},{"name":"G4","midi":67,"time":651.3619791666621,"velocity":0.8031496062992126,"duration":0.22265625},{"name":"B2","midi":47,"time":651.3619791666621,"velocity":0.8031496062992126,"duration":0.44661458333325754},{"name":"B4","midi":71,"time":651.5872395833287,"velocity":0.8031496062992126,"duration":0.22265625},{"name":"G4","midi":67,"time":651.8111979166621,"velocity":0.8031496062992126,"duration":0.22265625},{"name":"E3","midi":52,"time":651.8111979166621,"velocity":0.8031496062992126,"duration":0.44661458333325754},{"name":"B4","midi":71,"time":652.0364583333287,"velocity":0.8031496062992126,"duration":0.22265625},{"name":"E5","midi":76,"time":652.2604166666621,"velocity":0.8031496062992126,"duration":0.22265625},{"name":"G3","midi":55,"time":652.2604166666621,"velocity":0.8031496062992126,"duration":0.44661458333325754},{"name":"B4","midi":71,"time":652.4856770833287,"velocity":0.8031496062992126,"duration":0.22265625},{"name":"E5","midi":76,"time":652.7096354166621,"velocity":0.8031496062992126,"duration":0.22265625},{"name":"E3","midi":52,"time":652.7096354166621,"velocity":0.8031496062992126,"duration":0.44661458333325754},{"name":"G5","midi":79,"time":652.9348958333287,"velocity":0.8031496062992126,"duration":0.22265625},{"name":"E5","midi":76,"time":653.1588541666621,"velocity":0.8031496062992126,"duration":0.22265625},{"name":"G3","midi":55,"time":653.1588541666621,"velocity":0.8031496062992126,"duration":0.44661458333325754},{"name":"G5","midi":79,"time":653.3841145833287,"velocity":0.8031496062992126,"duration":0.22265625},{"name":"A5","midi":81,"time":653.6080729166621,"velocity":0.8031496062992126,"duration":0.22265625},{"name":"B3","midi":59,"time":653.6080729166621,"velocity":0.8031496062992126,"duration":0.44661458333325754},{"name":"G5","midi":79,"time":653.8333333333287,"velocity":0.8031496062992126,"duration":0.22265625},{"name":"F#5","midi":78,"time":654.0572916666621,"velocity":0.8031496062992126,"duration":0.22265625},{"name":"E4","midi":64,"time":654.0572916666621,"velocity":0.8031496062992126,"duration":0.44661458333325754},{"name":"E5","midi":76,"time":654.2825520833287,"velocity":0.8031496062992126,"duration":0.22265625},{"name":"F#5","midi":78,"time":654.5065104166621,"velocity":0.8031496062992126,"duration":0.22265625},{"name":"D#4","midi":63,"time":654.5065104166621,"velocity":0.8031496062992126,"duration":0.44661458333325754},{"name":"E5","midi":76,"time":654.7317708333287,"velocity":0.8031496062992126,"duration":0.22265625},{"name":"D#5","midi":75,"time":654.9557291666621,"velocity":0.8031496062992126,"duration":0.24739583333325754},{"name":"B3","midi":59,"time":654.9557291666621,"velocity":0.8031496062992126,"duration":0.44661458333325754},{"name":"B5","midi":83,"time":655.1809895833287,"velocity":0.8031496062992126,"duration":0.22265625},{"name":"F#5","midi":78,"time":655.4049479166621,"velocity":0.8031496062992126,"duration":0.22265625},{"name":"D#4","midi":63,"time":655.4049479166621,"velocity":0.8031496062992126,"duration":0.44661458333325754},{"name":"E5","midi":76,"time":655.6302083333287,"velocity":0.8031496062992126,"duration":0.22265625},{"name":"D#5","midi":75,"time":655.8541666666621,"velocity":0.8031496062992126,"duration":0.24739583333325754},{"name":"B3","midi":59,"time":655.8541666666621,"velocity":0.8031496062992126,"duration":0.44661458333325754},{"name":"B5","midi":83,"time":656.0794270833287,"velocity":0.8031496062992126,"duration":0.22265625},{"name":"G5","midi":79,"time":656.3033854166621,"velocity":0.8031496062992126,"duration":0.22265625},{"name":"E4","midi":64,"time":656.3033854166621,"velocity":0.8031496062992126,"duration":0.44661458333325754},{"name":"F#5","midi":78,"time":656.5286458333287,"velocity":0.8031496062992126,"duration":0.22265625},{"name":"E5","midi":76,"time":656.7526041666621,"velocity":0.8031496062992126,"duration":0.24739583333325754},{"name":"B3","midi":59,"time":656.7526041666621,"velocity":0.8031496062992126,"duration":0.44661458333325754},{"name":"B5","midi":83,"time":656.9778645833287,"velocity":0.8031496062992126,"duration":0.22265625},{"name":"G5","midi":79,"time":657.2018229166621,"velocity":0.8031496062992126,"duration":0.22265625},{"name":"E3","midi":52,"time":657.2018229166621,"velocity":0.8031496062992126,"duration":0.44661458333325754},{"name":"F#5","midi":78,"time":657.4270833333287,"velocity":0.8031496062992126,"duration":0.22265625},{"name":"E5","midi":76,"time":657.6510416666621,"velocity":0.8031496062992126,"duration":0.234375},{"name":"G3","midi":55,"time":657.6510416666621,"velocity":0.8031496062992126,"duration":0.44661458333337123},{"name":"B5","midi":83,"time":657.8763020833287,"velocity":0.8031496062992126,"duration":0.2226562500001137},{"name":"D#5","midi":75,"time":658.1002604166622,"velocity":0.8031496062992126,"duration":0.22265625},{"name":"A3","midi":57,"time":658.1002604166622,"velocity":0.8031496062992126,"duration":0.44661458333325754},{"name":"C#5","midi":73,"time":658.3255208333288,"velocity":0.8031496062992126,"duration":0.22265625},{"name":"B4","midi":71,"time":658.5494791666622,"velocity":0.8031496062992126,"duration":0.22265625},{"name":"G3","midi":55,"time":658.5494791666622,"velocity":0.8031496062992126,"duration":0.44661458333325754},{"name":"B5","midi":83,"time":658.7747395833288,"velocity":0.8031496062992126,"duration":0.22265625},{"name":"D#5","midi":75,"time":658.9986979166622,"velocity":0.8031496062992126,"duration":0.22265625},{"name":"A3","midi":57,"time":658.9986979166622,"velocity":0.8031496062992126,"duration":0.44661458333325754},{"name":"C#5","midi":73,"time":659.2239583333288,"velocity":0.8031496062992126,"duration":0.22265625},{"name":"B4","midi":71,"time":659.4479166666622,"velocity":0.8031496062992126,"duration":0.22265625},{"name":"F#3","midi":54,"time":659.4479166666622,"velocity":0.8031496062992126,"duration":0.44661458333325754},{"name":"D#5","midi":75,"time":659.6731770833288,"velocity":0.8031496062992126,"duration":0.22265625},{"name":"E5","midi":76,"time":659.8971354166622,"velocity":0.8031496062992126,"duration":0.44661458333337123},{"name":"G3","midi":55,"time":659.8971354166622,"velocity":0.8031496062992126,"duration":0.44661458333337123},{"name":"F#5","midi":78,"time":660.3463541666622,"velocity":0.8031496062992126,"duration":0.44661458333337123},{"name":"A3","midi":57,"time":660.3463541666622,"velocity":0.8031496062992126,"duration":0.44661458333337123},{"name":"B4","midi":71,"time":660.7955729166622,"velocity":0.8031496062992126,"duration":0.44661458333337123},{"name":"B3","midi":59,"time":660.7955729166622,"velocity":0.8031496062992126,"duration":0.44661458333337123},{"name":"D#5","midi":75,"time":661.2447916666622,"velocity":0.8031496062992126,"duration":0.44661458333337123},{"name":"B2","midi":47,"time":661.2447916666622,"velocity":0.8031496062992126,"duration":0.44661458333337123},{"name":"E5","midi":76,"time":661.6940104166622,"velocity":0.8031496062992126,"duration":1.3450520833333712},{"name":"E3","midi":52,"time":661.6940104166622,"velocity":0.8031496062992126,"duration":0.44661458333337123},{"name":"B2","midi":47,"time":662.1432291666622,"velocity":0.8031496062992126,"duration":0.44661458333337123},{"name":"E2","midi":40,"time":662.5924479166622,"velocity":0.8031496062992126,"duration":0.44661458333337123},{"name":"B4","midi":71,"time":663.0416666666622,"velocity":0.8031496062992126,"duration":0.44661458333325754},{"name":"E3","midi":52,"time":663.0416666666622,"velocity":0.8031496062992126,"duration":0.22265625},{"name":"F#3","midi":54,"time":663.2669270833288,"velocity":0.8031496062992126,"duration":0.22265625},{"name":"C5","midi":72,"time":663.4908854166622,"velocity":0.8031496062992126,"duration":0.109375},{"name":"G#3","midi":56,"time":663.4908854166622,"velocity":0.8031496062992126,"duration":0.22005208333325754},{"name":"B4","midi":71,"time":663.6028645833288,"velocity":0.8031496062992126,"duration":0.109375},{"name":"C5","midi":72,"time":663.7135416666622,"velocity":0.8031496062992126,"duration":0.109375},{"name":"E3","midi":52,"time":663.7135416666622,"velocity":0.8031496062992126,"duration":0.22005208333325754},{"name":"B4","midi":71,"time":663.8255208333288,"velocity":0.8031496062992126,"duration":0.109375},{"name":"A4","midi":69,"time":663.9361979166622,"velocity":0.8031496062992126,"duration":0.22265625},{"name":"G#3","midi":56,"time":663.9361979166622,"velocity":0.8031496062992126,"duration":0.22265625},{"name":"B4","midi":71,"time":664.1614583333288,"velocity":0.8031496062992126,"duration":0.22265625},{"name":"E3","midi":52,"time":664.1614583333288,"velocity":0.8031496062992126,"duration":0.22265625},{"name":"C5","midi":72,"time":664.3854166666622,"velocity":0.8031496062992126,"duration":0.44661458333325754},{"name":"A3","midi":57,"time":664.3854166666622,"velocity":0.8031496062992126,"duration":0.22265625},{"name":"E3","midi":52,"time":664.6106770833288,"velocity":0.8031496062992126,"duration":0.22265625},{"name":"B4","midi":71,"time":664.8346354166622,"velocity":0.8031496062992126,"duration":0.22265625},{"name":"A3","midi":57,"time":664.8346354166622,"velocity":0.8031496062992126,"duration":0.22265625},{"name":"C5","midi":72,"time":665.0598958333288,"velocity":0.8031496062992126,"duration":0.22265625},{"name":"E3","midi":52,"time":665.0598958333288,"velocity":0.8031496062992126,"duration":0.22265625},{"name":"D5","midi":74,"time":665.2838541666622,"velocity":0.8031496062992126,"duration":0.44661458333325754},{"name":"B3","midi":59,"time":665.2838541666622,"velocity":0.8031496062992126,"duration":0.22265625},{"name":"E3","midi":52,"time":665.5091145833288,"velocity":0.8031496062992126,"duration":0.22265625},{"name":"C5","midi":72,"time":665.7330729166622,"velocity":0.8031496062992126,"duration":0.22265625},{"name":"B3","midi":59,"time":665.7330729166622,"velocity":0.8031496062992126,"duration":0.22265625},{"name":"B4","midi":71,"time":665.9583333333288,"velocity":0.8031496062992126,"duration":0.22265625},{"name":"E3","midi":52,"time":665.9583333333288,"velocity":0.8031496062992126,"duration":0.22265625},{"name":"A4","midi":69,"time":666.1822916666622,"velocity":0.8031496062992126,"duration":0.22265625},{"name":"C4","midi":60,"time":666.1822916666622,"velocity":0.8031496062992126,"duration":0.22265625},{"name":"G#4","midi":68,"time":666.4075520833288,"velocity":0.8031496062992126,"duration":0.22265625},{"name":"E3","midi":52,"time":666.4075520833288,"velocity":0.8031496062992126,"duration":0.22265625},{"name":"F5","midi":77,"time":666.6315104166622,"velocity":0.8031496062992126,"duration":0.44661458333325754},{"name":"D4","midi":62,"time":666.6315104166622,"velocity":0.8031496062992126,"duration":0.22265625},{"name":"E3","midi":52,"time":666.8567708333288,"velocity":0.8031496062992126,"duration":0.22265625},{"name":"E5","midi":76,"time":667.0807291666622,"velocity":0.8031496062992126,"duration":0.44661458333325754},{"name":"C4","midi":60,"time":667.0807291666622,"velocity":0.8031496062992126,"duration":0.22265625},{"name":"E3","midi":52,"time":667.3059895833288,"velocity":0.8031496062992126,"duration":0.22265625},{"name":"D5","midi":74,"time":667.5299479166622,"velocity":0.8031496062992126,"duration":0.22265625},{"name":"A3","midi":57,"time":667.5299479166622,"velocity":0.8031496062992126,"duration":0.22265625},{"name":"C5","midi":72,"time":667.7552083333288,"velocity":0.8031496062992126,"duration":0.22265625},{"name":"E3","midi":52,"time":667.7552083333288,"velocity":0.8031496062992126,"duration":0.22265625},{"name":"D5","midi":74,"time":667.9791666666622,"velocity":0.8031496062992126,"duration":0.44661458333325754},{"name":"B3","midi":59,"time":667.9791666666622,"velocity":0.8031496062992126,"duration":0.22265625},{"name":"E3","midi":52,"time":668.2044270833288,"velocity":0.8031496062992126,"duration":0.22265625},{"name":"C5","midi":72,"time":668.4283854166622,"velocity":0.8031496062992126,"duration":0.22265625},{"name":"G#3","midi":56,"time":668.4283854166622,"velocity":0.8031496062992126,"duration":0.22265625},{"name":"B4","midi":71,"time":668.6536458333288,"velocity":0.8031496062992126,"duration":0.22265625},{"name":"E3","midi":52,"time":668.6536458333288,"velocity":0.8031496062992126,"duration":0.22265625},{"name":"D5","midi":74,"time":668.8776041666622,"velocity":0.8031496062992126,"duration":0.22265625},{"name":"A3","midi":57,"time":668.8776041666622,"velocity":0.8031496062992126,"duration":0.44661458333325754},{"name":"C5","midi":72,"time":669.1028645833288,"velocity":0.8031496062992126,"duration":0.22265625},{"name":"B4","midi":71,"time":669.3268229166622,"velocity":0.8031496062992126,"duration":0.22265625},{"name":"E3","midi":52,"time":669.3268229166622,"velocity":0.8031496062992126,"duration":0.44661458333325754},{"name":"C5","midi":72,"time":669.5520833333288,"velocity":0.8031496062992126,"duration":0.22265625},{"name":"A4","midi":69,"time":669.7760416666622,"velocity":0.8031496062992126,"duration":0.22265625},{"name":"A2","midi":45,"time":669.7760416666622,"velocity":0.8031496062992126,"duration":0.22265625},{"name":"B4","midi":71,"time":670.0013020833288,"velocity":0.8031496062992126,"duration":0.22265625},{"name":"E3","midi":52,"time":670.0013020833288,"velocity":0.8031496062992126,"duration":0.22265625},{"name":"C5","midi":72,"time":670.2252604166622,"velocity":0.8031496062992126,"duration":0.22265625},{"name":"A3","midi":57,"time":670.2252604166622,"velocity":0.8031496062992126,"duration":0.22265625},{"name":"D5","midi":74,"time":670.4505208333288,"velocity":0.8031496062992126,"duration":0.22265625},{"name":"B3","midi":59,"time":670.4505208333288,"velocity":0.8031496062992126,"duration":0.22265625},{"name":"E5","midi":76,"time":670.6744791666622,"velocity":0.8031496062992126,"duration":0.22265625},{"name":"C#4","midi":61,"time":670.6744791666622,"velocity":0.8031496062992126,"duration":0.22265625},{"name":"F5","midi":77,"time":670.8997395833288,"velocity":0.8031496062992126,"duration":0.22265625},{"name":"A3","midi":57,"time":670.8997395833288,"velocity":0.8031496062992126,"duration":0.22265625},{"name":"D5","midi":74,"time":671.1236979166622,"velocity":0.8031496062992126,"duration":0.22265625},{"name":"C#4","midi":61,"time":671.1236979166622,"velocity":0.8031496062992126,"duration":0.22265625},{"name":"E5","midi":76,"time":671.3489583333288,"velocity":0.8031496062992126,"duration":0.22265625},{"name":"A3","midi":57,"time":671.3489583333288,"velocity":0.8031496062992126,"duration":0.22265625},{"name":"F5","midi":77,"time":671.5729166666622,"velocity":0.8031496062992126,"duration":0.22265625},{"name":"D4","midi":62,"time":671.5729166666622,"velocity":0.8031496062992126,"duration":0.22265625},{"name":"G5","midi":79,"time":671.7981770833288,"velocity":0.8031496062992126,"duration":0.22265625},{"name":"A3","midi":57,"time":671.7981770833288,"velocity":0.8031496062992126,"duration":0.22265625},{"name":"E5","midi":76,"time":672.0221354166622,"velocity":0.8031496062992126,"duration":0.22265625},{"name":"D4","midi":62,"time":672.0221354166622,"velocity":0.8031496062992126,"duration":0.22265625},{"name":"F5","midi":77,"time":672.2473958333288,"velocity":0.8031496062992126,"duration":0.22265625},{"name":"A3","midi":57,"time":672.2473958333288,"velocity":0.8031496062992126,"duration":0.22265625},{"name":"G5","midi":79,"time":672.4713541666622,"velocity":0.8031496062992126,"duration":0.22265625},{"name":"E4","midi":64,"time":672.4713541666622,"velocity":0.8031496062992126,"duration":0.22265625},{"name":"A5","midi":81,"time":672.6966145833288,"velocity":0.8031496062992126,"duration":0.22265625},{"name":"A3","midi":57,"time":672.6966145833288,"velocity":0.8031496062992126,"duration":0.22265625},{"name":"G5","midi":79,"time":672.9205729166622,"velocity":0.8031496062992126,"duration":0.22265625},{"name":"E4","midi":64,"time":672.9205729166622,"velocity":0.8031496062992126,"duration":0.22265625},{"name":"F5","midi":77,"time":673.1458333333288,"velocity":0.8031496062992126,"duration":0.22265625},{"name":"A3","midi":57,"time":673.1458333333288,"velocity":0.8031496062992126,"duration":0.22265625},{"name":"E5","midi":76,"time":673.3697916666622,"velocity":0.8031496062992126,"duration":0.22265625},{"name":"F4","midi":65,"time":673.3697916666622,"velocity":0.8031496062992126,"duration":0.22265625},{"name":"D5","midi":74,"time":673.5950520833288,"velocity":0.8031496062992126,"duration":0.22265625},{"name":"A3","midi":57,"time":673.5950520833288,"velocity":0.8031496062992126,"duration":0.22265625},{"name":"C#5","midi":73,"time":673.8190104166622,"velocity":0.8031496062992126,"duration":0.22265625},{"name":"G4","midi":67,"time":673.8190104166622,"velocity":0.8031496062992126,"duration":0.22265625},{"name":"A#5","midi":82,"time":674.0442708333288,"velocity":0.8031496062992126,"duration":0.22265625},{"name":"A3","midi":57,"time":674.0442708333288,"velocity":0.8031496062992126,"duration":0.22265625},{"name":"A5","midi":81,"time":674.2682291666622,"velocity":0.8031496062992126,"duration":0.22265625},{"name":"F4","midi":65,"time":674.2682291666622,"velocity":0.8031496062992126,"duration":0.22265625},{"name":"G5","midi":79,"time":674.4934895833288,"velocity":0.8031496062992126,"duration":0.22265625},{"name":"A3","midi":57,"time":674.4934895833288,"velocity":0.8031496062992126,"duration":0.22265625},{"name":"F5","midi":77,"time":674.7174479166622,"velocity":0.8031496062992126,"duration":0.22265625},{"name":"D4","midi":62,"time":674.7174479166622,"velocity":0.8031496062992126,"duration":0.22265625},{"name":"A5","midi":81,"time":674.9427083333288,"velocity":0.8031496062992126,"duration":0.22265625},{"name":"A3","midi":57,"time":674.9427083333288,"velocity":0.8031496062992126,"duration":0.22265625},{"name":"G5","midi":79,"time":675.1666666666622,"velocity":0.8031496062992126,"duration":0.22265625},{"name":"E4","midi":64,"time":675.1666666666622,"velocity":0.8031496062992126,"duration":0.22265625},{"name":"F5","midi":77,"time":675.3919270833288,"velocity":0.8031496062992126,"duration":0.22265625},{"name":"A3","midi":57,"time":675.3919270833288,"velocity":0.8031496062992126,"duration":0.22265625},{"name":"E5","midi":76,"time":675.6158854166622,"velocity":0.8031496062992126,"duration":0.22265625},{"name":"C#4","midi":61,"time":675.6158854166622,"velocity":0.8031496062992126,"duration":0.22265625},{"name":"F5","midi":77,"time":675.8411458333288,"velocity":0.8031496062992126,"duration":0.22265625},{"name":"A3","midi":57,"time":675.8411458333288,"velocity":0.8031496062992126,"duration":0.22265625},{"name":"G5","midi":79,"time":676.0651041666622,"velocity":0.8031496062992126,"duration":0.22265625},{"name":"D4","midi":62,"time":676.0651041666622,"velocity":0.8031496062992126,"duration":0.44661458333325754},{"name":"F5","midi":77,"time":676.2903645833288,"velocity":0.8031496062992126,"duration":0.22265625},{"name":"E5","midi":76,"time":676.5143229166622,"velocity":0.8031496062992126,"duration":0.22265625},{"name":"A3","midi":57,"time":676.5143229166622,"velocity":0.8031496062992126,"duration":0.44661458333325754},{"name":"F5","midi":77,"time":676.7395833333288,"velocity":0.8031496062992126,"duration":0.22265625},{"name":"D5","midi":74,"time":676.9635416666622,"velocity":0.8031496062992126,"duration":0.22265625},{"name":"F3","midi":53,"time":676.9635416666622,"velocity":0.8031496062992126,"duration":0.44661458333325754},{"name":"F5","midi":77,"time":677.1888020833288,"velocity":0.8031496062992126,"duration":0.22265625},{"name":"E5","midi":76,"time":677.4127604166622,"velocity":0.8031496062992126,"duration":0.22265625},{"name":"A3","midi":57,"time":677.4127604166622,"velocity":0.8031496062992126,"duration":0.44661458333325754},{"name":"G5","midi":79,"time":677.6380208333288,"velocity":0.8031496062992126,"duration":0.22265625},{"name":"F5","midi":77,"time":677.8619791666622,"velocity":0.8031496062992126,"duration":0.22265625},{"name":"D3","midi":50,"time":677.8619791666622,"velocity":0.8031496062992126,"duration":0.44661458333325754},{"name":"E5","midi":76,"time":678.0872395833288,"velocity":0.8031496062992126,"duration":0.22265625},{"name":"D5","midi":74,"time":678.3111979166622,"velocity":0.8031496062992126,"duration":0.22265625},{"name":"D2","midi":38,"time":678.3111979166622,"velocity":0.8031496062992126,"duration":0.44661458333325754},{"name":"A5","midi":81,"time":678.5364583333288,"velocity":0.8031496062992126,"duration":0.22265625},{"name":"F5","midi":77,"time":678.7604166666622,"velocity":0.8031496062992126,"duration":0.22265625},{"name":"E2","midi":40,"time":678.7604166666622,"velocity":0.8031496062992126,"duration":0.44661458333325754},{"name":"E5","midi":76,"time":678.9856770833288,"velocity":0.8031496062992126,"duration":0.22265625},{"name":"D5","midi":74,"time":679.2096354166622,"velocity":0.8031496062992126,"duration":0.22265625},{"name":"F2","midi":41,"time":679.2096354166622,"velocity":0.8031496062992126,"duration":0.44661458333325754},{"name":"C5","midi":72,"time":679.4348958333288,"velocity":0.8031496062992126,"duration":0.22265625},{"name":"A#4","midi":70,"time":679.6588541666622,"velocity":0.8031496062992126,"duration":0.22265625},{"name":"G2","midi":43,"time":679.6588541666622,"velocity":0.8031496062992126,"duration":0.44661458333325754},{"name":"A4","midi":69,"time":679.8841145833288,"velocity":0.8031496062992126,"duration":0.22265625},{"name":"G4","midi":67,"time":680.1080729166622,"velocity":0.8031496062992126,"duration":0.22265625},{"name":"G3","midi":55,"time":680.1080729166622,"velocity":0.8031496062992126,"duration":0.44661458333325754},{"name":"D5","midi":74,"time":680.3333333333288,"velocity":0.8031496062992126,"duration":0.22265625},{"name":"A#4","midi":70,"time":680.5572916666622,"velocity":0.8031496062992126,"duration":0.22265625},{"name":"A3","midi":57,"time":680.5572916666622,"velocity":0.8031496062992126,"duration":0.44661458333325754},{"name":"A4","midi":69,"time":680.7825520833288,"velocity":0.8031496062992126,"duration":0.22265625},{"name":"G4","midi":67,"time":681.0065104166622,"velocity":0.8031496062992126,"duration":0.22265625},{"name":"A#3","midi":58,"time":681.0065104166622,"velocity":0.8031496062992126,"duration":0.44661458333325754},{"name":"F5","midi":77,"time":681.2317708333288,"velocity":0.8031496062992126,"duration":0.22265625},{"name":"E5","midi":76,"time":681.4557291666622,"velocity":0.8031496062992126,"duration":0.22265625},{"name":"C4","midi":60,"time":681.4557291666622,"velocity":0.8031496062992126,"duration":0.44661458333325754},{"name":"D5","midi":74,"time":681.6809895833288,"velocity":0.8031496062992126,"duration":0.22265625},{"name":"C5","midi":72,"time":681.9049479166622,"velocity":0.8031496062992126,"duration":0.22265625},{"name":"C2","midi":36,"time":681.9049479166622,"velocity":0.8031496062992126,"duration":0.44661458333325754},{"name":"G5","midi":79,"time":682.1302083333288,"velocity":0.8031496062992126,"duration":0.22265625},{"name":"E5","midi":76,"time":682.3541666666622,"velocity":0.8031496062992126,"duration":0.22265625},{"name":"D2","midi":38,"time":682.3541666666622,"velocity":0.8031496062992126,"duration":0.44661458333325754},{"name":"D5","midi":74,"time":682.5794270833288,"velocity":0.8031496062992126,"duration":0.22265625},{"name":"C5","midi":72,"time":682.8033854166622,"velocity":0.8031496062992126,"duration":0.22265625},{"name":"E2","midi":40,"time":682.8033854166622,"velocity":0.8031496062992126,"duration":0.44661458333325754},{"name":"A#4","midi":70,"time":683.0286458333288,"velocity":0.8031496062992126,"duration":0.22265625},{"name":"A4","midi":69,"time":683.2526041666622,"velocity":0.8031496062992126,"duration":0.22265625},{"name":"F2","midi":41,"time":683.2526041666622,"velocity":0.8031496062992126,"duration":0.44661458333325754},{"name":"G4","midi":67,"time":683.4778645833288,"velocity":0.8031496062992126,"duration":0.22265625},{"name":"F4","midi":65,"time":683.7018229166622,"velocity":0.8031496062992126,"duration":0.22265625},{"name":"C3","midi":48,"time":683.7018229166622,"velocity":0.8031496062992126,"duration":0.44661458333325754},{"name":"C5","midi":72,"time":683.9270833333288,"velocity":0.8031496062992126,"duration":0.22265625},{"name":"A4","midi":69,"time":684.1510416666622,"velocity":0.8031496062992126,"duration":0.22265625},{"name":"F3","midi":53,"time":684.1510416666622,"velocity":0.8031496062992126,"duration":0.44661458333325754},{"name":"G4","midi":67,"time":684.3763020833288,"velocity":0.8031496062992126,"duration":0.22265625},{"name":"F4","midi":65,"time":684.6002604166622,"velocity":0.8031496062992126,"duration":0.22265625},{"name":"D3","midi":50,"time":684.6002604166622,"velocity":0.8031496062992126,"duration":0.44661458333325754},{"name":"A4","midi":69,"time":684.8255208333288,"velocity":0.8031496062992126,"duration":0.22265625},{"name":"A#4","midi":70,"time":685.0494791666622,"velocity":0.8031496062992126,"duration":0.22265625},{"name":"G3","midi":55,"time":685.0494791666622,"velocity":0.8031496062992126,"duration":0.44661458333325754},{"name":"C5","midi":72,"time":685.2747395833288,"velocity":0.8031496062992126,"duration":0.22265625},{"name":"D5","midi":74,"time":685.4986979166622,"velocity":0.8031496062992126,"duration":0.22265625},{"name":"F3","midi":53,"time":685.4986979166622,"velocity":0.8031496062992126,"duration":0.44661458333325754},{"name":"F5","midi":77,"time":685.7239583333288,"velocity":0.8031496062992126,"duration":0.22265625},{"name":"E5","midi":76,"time":685.9479166666622,"velocity":0.8031496062992126,"duration":0.22265625},{"name":"G3","midi":55,"time":685.9479166666622,"velocity":0.8031496062992126,"duration":0.44661458333325754},{"name":"F5","midi":77,"time":686.1731770833288,"velocity":0.8031496062992126,"duration":0.22265625},{"name":"G5","midi":79,"time":686.3971354166622,"velocity":0.8031496062992126,"duration":0.22265625},{"name":"E3","midi":52,"time":686.3971354166622,"velocity":0.8031496062992126,"duration":0.44661458333325754},{"name":"B4","midi":71,"time":686.6223958333288,"velocity":0.8031496062992126,"duration":0.22265625},{"name":"C#5","midi":73,"time":686.8463541666622,"velocity":0.8031496062992126,"duration":0.22265625},{"name":"A3","midi":57,"time":686.8463541666622,"velocity":0.8031496062992126,"duration":0.44661458333325754},{"name":"D5","midi":74,"time":687.0716145833288,"velocity":0.8031496062992126,"duration":0.22265625},{"name":"E5","midi":76,"time":687.2955729166622,"velocity":0.8031496062992126,"duration":0.22265625},{"name":"G3","midi":55,"time":687.2955729166622,"velocity":0.8031496062992126,"duration":0.44661458333325754},{"name":"G5","midi":79,"time":687.5208333333288,"velocity":0.8031496062992126,"duration":0.22265625},{"name":"F5","midi":77,"time":687.7447916666622,"velocity":0.8031496062992126,"duration":0.22265625},{"name":"A3","midi":57,"time":687.7447916666622,"velocity":0.8031496062992126,"duration":0.44661458333325754},{"name":"G5","midi":79,"time":687.9700520833288,"velocity":0.8031496062992126,"duration":0.22265625},{"name":"A5","midi":81,"time":688.1940104166622,"velocity":0.8031496062992126,"duration":0.22265625},{"name":"F3","midi":53,"time":688.1940104166622,"velocity":0.8031496062992126,"duration":0.44661458333325754},{"name":"C#5","midi":73,"time":688.4192708333288,"velocity":0.8031496062992126,"duration":0.22265625},{"name":"E5","midi":76,"time":688.6432291666622,"velocity":0.8031496062992126,"duration":0.22265625},{"name":"A#3","midi":58,"time":688.6432291666622,"velocity":0.8031496062992126,"duration":0.4453125},{"name":"D5","midi":74,"time":688.8684895833288,"velocity":0.8031496062992126,"duration":0.109375},{"name":"C#5","midi":73,"time":688.9791666666622,"velocity":0.8031496062992126,"duration":0.109375},{"name":"D5","midi":74,"time":689.0911458333288,"velocity":0.8031496062992126,"duration":0.22265625},{"name":"G3","midi":55,"time":689.0911458333288,"velocity":0.8031496062992126,"duration":0.44661458333337123},{"name":"E5","midi":76,"time":689.3151041666622,"velocity":0.8031496062992126,"duration":0.22265625},{"name":"F5","midi":77,"time":689.5403645833288,"velocity":0.8031496062992126,"duration":0.109375},{"name":"A3","midi":57,"time":689.5403645833288,"velocity":0.8031496062992126,"duration":0.44270833333337123},{"name":"E5","midi":76,"time":689.6510416666622,"velocity":0.8031496062992126,"duration":0.109375},{"name":"F5","midi":77,"time":689.7630208333288,"velocity":0.8031496062992126,"duration":0.109375},{"name":"E5","midi":76,"time":689.8736979166622,"velocity":0.8031496062992126,"duration":0.109375},{"name":"F5","midi":77,"time":689.9856770833288,"velocity":0.8031496062992126,"duration":0.109375},{"name":"A2","midi":45,"time":689.9856770833288,"velocity":0.8031496062992126,"duration":0.4453125},{"name":"E5","midi":76,"time":690.0963541666622,"velocity":0.8031496062992126,"duration":0.109375},{"name":"D5","midi":74,"time":690.2083333333288,"velocity":0.8031496062992126,"duration":0.22265625},{"name":"D5","midi":74,"time":690.4322916666622,"velocity":0.8031496062992126,"duration":1.3450520833332575},{"name":"D3","midi":50,"time":690.4322916666622,"velocity":0.8031496062992126,"duration":0.22265625},{"name":"E3","midi":52,"time":690.6575520833288,"velocity":0.8031496062992126,"duration":0.22265625},{"name":"F3","midi":53,"time":690.8815104166622,"velocity":0.8031496062992126,"duration":0.22265625},{"name":"E3","midi":52,"time":691.1067708333288,"velocity":0.8031496062992126,"duration":0.22265625},{"name":"D3","midi":50,"time":691.3307291666622,"velocity":0.8031496062992126,"duration":0.22265625},{"name":"C3","midi":48,"time":691.5559895833288,"velocity":0.8031496062992126,"duration":0.22265625},{"name":"D5","midi":74,"time":691.7799479166622,"velocity":0.8031496062992126,"duration":0.22265625},{"name":"B2","midi":47,"time":691.7799479166622,"velocity":0.8031496062992126,"duration":0.22265625},{"name":"E5","midi":76,"time":692.0052083333288,"velocity":0.8031496062992126,"duration":0.22265625},{"name":"A2","midi":45,"time":692.0052083333288,"velocity":0.8031496062992126,"duration":0.22265625},{"name":"F5","midi":77,"time":692.2291666666622,"velocity":0.8031496062992126,"duration":0.44661458333325754},{"name":"G2","midi":43,"time":692.2291666666622,"velocity":0.8031496062992126,"duration":0.22265625},{"name":"A2","midi":45,"time":692.4544270833288,"velocity":0.8031496062992126,"duration":0.22265625},{"name":"D5","midi":74,"time":692.6783854166622,"velocity":0.8031496062992126,"duration":0.22265625},{"name":"B2","midi":47,"time":692.6783854166622,"velocity":0.8031496062992126,"duration":0.22265625},{"name":"E5","midi":76,"time":692.9036458333288,"velocity":0.8031496062992126,"duration":0.22265625},{"name":"C3","midi":48,"time":692.9036458333288,"velocity":0.8031496062992126,"duration":0.22265625},{"name":"F5","midi":77,"time":693.1276041666622,"velocity":0.8031496062992126,"duration":0.44661458333325754},{"name":"D3","midi":50,"time":693.1276041666622,"velocity":0.8031496062992126,"duration":0.22265625},{"name":"E3","midi":52,"time":693.3528645833288,"velocity":0.8031496062992126,"duration":0.22265625},{"name":"E5","midi":76,"time":693.5768229166622,"velocity":0.8031496062992126,"duration":0.22265625},{"name":"F3","midi":53,"time":693.5768229166622,"velocity":0.8031496062992126,"duration":0.22265625},{"name":"D5","midi":74,"time":693.8020833333288,"velocity":0.8031496062992126,"duration":0.22265625},{"name":"G3","midi":55,"time":693.8020833333288,"velocity":0.8031496062992126,"duration":0.22265625},{"name":"E5","midi":76,"time":694.0260416666622,"velocity":0.8031496062992126,"duration":0.44661458333325754},{"name":"C3","midi":48,"time":694.0260416666622,"velocity":0.8031496062992126,"duration":0.22265625},{"name":"C4","midi":60,"time":694.2513020833288,"velocity":0.8031496062992126,"duration":0.22265625},{"name":"D5","midi":74,"time":694.4752604166622,"velocity":0.8031496062992126,"duration":0.22265625},{"name":"B3","midi":59,"time":694.4752604166622,"velocity":0.8031496062992126,"duration":0.22265625},{"name":"C5","midi":72,"time":694.7005208333288,"velocity":0.8031496062992126,"duration":0.22265625},{"name":"A3","midi":57,"time":694.7005208333288,"velocity":0.8031496062992126,"duration":0.22265625},{"name":"D5","midi":74,"time":694.9244791666622,"velocity":0.8031496062992126,"duration":0.44661458333325754},{"name":"G3","midi":55,"time":694.9244791666622,"velocity":0.8031496062992126,"duration":0.22265625},{"name":"F3","midi":53,"time":695.1497395833288,"velocity":0.8031496062992126,"duration":0.22265625},{"name":"C5","midi":72,"time":695.3736979166622,"velocity":0.8031496062992126,"duration":0.22265625},{"name":"E3","midi":52,"time":695.3736979166622,"velocity":0.8031496062992126,"duration":0.22265625},{"name":"D5","midi":74,"time":695.5989583333288,"velocity":0.8031496062992126,"duration":0.22265625},{"name":"D3","midi":50,"time":695.5989583333288,"velocity":0.8031496062992126,"duration":0.22265625},{"name":"E5","midi":76,"time":695.8229166666622,"velocity":0.8031496062992126,"duration":0.44661458333325754},{"name":"C3","midi":48,"time":695.8229166666622,"velocity":0.8031496062992126,"duration":0.22265625},{"name":"C4","midi":60,"time":696.0481770833288,"velocity":0.8031496062992126,"duration":0.22265625},{"name":"D5","midi":74,"time":696.2721354166622,"velocity":0.8031496062992126,"duration":0.22265625},{"name":"B3","midi":59,"time":696.2721354166622,"velocity":0.8031496062992126,"duration":0.22265625},{"name":"C5","midi":72,"time":696.4973958333288,"velocity":0.8031496062992126,"duration":0.22265625},{"name":"A3","midi":57,"time":696.4973958333288,"velocity":0.8031496062992126,"duration":0.22265625},{"name":"D5","midi":74,"time":696.7213541666622,"velocity":0.8031496062992126,"duration":0.44661458333325754},{"name":"G#3","midi":56,"time":696.7213541666622,"velocity":0.8031496062992126,"duration":0.22265625},{"name":"B3","midi":59,"time":696.9466145833288,"velocity":0.8031496062992126,"duration":0.22265625},{"name":"C5","midi":72,"time":697.1705729166622,"velocity":0.8031496062992126,"duration":0.22265625},{"name":"A3","midi":57,"time":697.1705729166622,"velocity":0.8031496062992126,"duration":0.22265625},{"name":"B4","midi":71,"time":697.3958333333288,"velocity":0.8031496062992126,"duration":0.22265625},{"name":"G#3","midi":56,"time":697.3958333333288,"velocity":0.8031496062992126,"duration":0.22265625},{"name":"C5","midi":72,"time":697.6197916666622,"velocity":0.8031496062992126,"duration":0.44661458333325754},{"name":"A3","midi":57,"time":697.6197916666622,"velocity":0.8031496062992126,"duration":0.22265625},{"name":"E3","midi":52,"time":697.8450520833288,"velocity":0.8031496062992126,"duration":0.22265625},{"name":"B4","midi":71,"time":698.0690104166622,"velocity":0.8031496062992126,"duration":0.22265625},{"name":"G#3","midi":56,"time":698.0690104166622,"velocity":0.8031496062992126,"duration":0.22265625},{"name":"C5","midi":72,"time":698.2942708333288,"velocity":0.8031496062992126,"duration":0.22265625},{"name":"A3","midi":57,"time":698.2942708333288,"velocity":0.8031496062992126,"duration":0.22265625},{"name":"D5","midi":74,"time":698.5182291666622,"velocity":0.8031496062992126,"duration":0.44661458333325754},{"name":"B3","midi":59,"time":698.5182291666622,"velocity":0.8031496062992126,"duration":0.22265625},{"name":"E3","midi":52,"time":698.7434895833288,"velocity":0.8031496062992126,"duration":0.22265625},{"name":"C5","midi":72,"time":698.9674479166622,"velocity":0.8031496062992126,"duration":0.22265625},{"name":"F#3","midi":54,"time":698.9674479166622,"velocity":0.8031496062992126,"duration":0.22265625},{"name":"B4","midi":71,"time":699.1927083333288,"velocity":0.8031496062992126,"duration":0.22265625},{"name":"G#3","midi":56,"time":699.1927083333288,"velocity":0.8031496062992126,"duration":0.22265625},{"name":"C5","midi":72,"time":699.4166666666622,"velocity":0.8031496062992126,"duration":0.44661458333325754},{"name":"A3","midi":57,"time":699.4166666666622,"velocity":0.8031496062992126,"duration":0.22265625},{"name":"A4","midi":69,"time":699.6419270833288,"velocity":0.8031496062992126,"duration":0.22265625},{"name":"B4","midi":71,"time":699.8658854166622,"velocity":0.8031496062992126,"duration":0.22265625},{"name":"G#4","midi":68,"time":699.8658854166622,"velocity":0.8031496062992126,"duration":0.22265625},{"name":"A4","midi":69,"time":700.0911458333288,"velocity":0.8031496062992126,"duration":0.22265625},{"name":"F#4","midi":66,"time":700.0911458333288,"velocity":0.8031496062992126,"duration":0.22265625},{"name":"B4","midi":71,"time":700.3151041666622,"velocity":0.8031496062992126,"duration":0.44661458333325754},{"name":"E4","midi":64,"time":700.3151041666622,"velocity":0.8031496062992126,"duration":0.22265625},{"name":"D4","midi":62,"time":700.5403645833288,"velocity":0.8031496062992126,"duration":0.22265625},{"name":"A4","midi":69,"time":700.7643229166622,"velocity":0.8031496062992126,"duration":0.22265625},{"name":"C4","midi":60,"time":700.7643229166622,"velocity":0.8031496062992126,"duration":0.22265625},{"name":"B4","midi":71,"time":700.9895833333288,"velocity":0.8031496062992126,"duration":0.22265625},{"name":"B3","midi":59,"time":700.9895833333288,"velocity":0.8031496062992126,"duration":0.22265625},{"name":"C5","midi":72,"time":701.2135416666622,"velocity":0.8031496062992126,"duration":0.44661458333325754},{"name":"A3","midi":57,"time":701.2135416666622,"velocity":0.8031496062992126,"duration":0.22265625},{"name":"G3","midi":55,"time":701.4388020833288,"velocity":0.8031496062992126,"duration":0.22265625},{"name":"B4","midi":71,"time":701.6627604166622,"velocity":0.8031496062992126,"duration":0.22265625},{"name":"F3","midi":53,"time":701.6627604166622,"velocity":0.8031496062992126,"duration":0.22265625},{"name":"A4","midi":69,"time":701.8880208333288,"velocity":0.8031496062992126,"duration":0.22265625},{"name":"E3","midi":52,"time":701.8880208333288,"velocity":0.8031496062992126,"duration":0.22265625},{"name":"B4","midi":71,"time":702.1119791666622,"velocity":0.8031496062992126,"duration":0.44661458333325754},{"name":"D3","midi":50,"time":702.1119791666622,"velocity":0.8031496062992126,"duration":0.22265625},{"name":"C3","midi":48,"time":702.3372395833288,"velocity":0.8031496062992126,"duration":0.22265625},{"name":"A4","midi":69,"time":702.5611979166622,"velocity":0.8031496062992126,"duration":0.22265625},{"name":"D3","midi":50,"time":702.5611979166622,"velocity":0.8031496062992126,"duration":0.22265625},{"name":"G#4","midi":68,"time":702.7864583333288,"velocity":0.8031496062992126,"duration":0.22265625},{"name":"E3","midi":52,"time":702.7864583333288,"velocity":0.8031496062992126,"duration":0.22265625},{"name":"A4","midi":69,"time":703.0104166666622,"velocity":0.8031496062992126,"duration":0.44661458333337123},{"name":"F3","midi":53,"time":703.0104166666622,"velocity":0.8031496062992126,"duration":0.44661458333337123},{"name":"F5","midi":77,"time":703.4596354166622,"velocity":0.8031496062992126,"duration":0.22265625},{"name":"E3","midi":52,"time":703.4596354166622,"velocity":0.8031496062992126,"duration":0.44661458333325754},{"name":"E5","midi":76,"time":703.6848958333288,"velocity":0.8031496062992126,"duration":0.22265625},{"name":"D5","midi":74,"time":703.9088541666622,"velocity":0.8031496062992126,"duration":0.22265625},{"name":"F3","midi":53,"time":703.9088541666622,"velocity":0.8031496062992126,"duration":0.44661458333325754},{"name":"C5","midi":72,"time":704.1341145833288,"velocity":0.8031496062992126,"duration":0.22265625},{"name":"B4","midi":71,"time":704.3580729166622,"velocity":0.8031496062992126,"duration":0.22265625},{"name":"D3","midi":50,"time":704.3580729166622,"velocity":0.8031496062992126,"duration":0.44661458333325754},{"name":"A4","midi":69,"time":704.5833333333288,"velocity":0.8031496062992126,"duration":0.22265625},{"name":"G#4","midi":68,"time":704.8072916666622,"velocity":0.8031496062992126,"duration":0.22265625},{"name":"E3","midi":52,"time":704.8072916666622,"velocity":0.8031496062992126,"duration":1.12109375},{"name":"A4","midi":69,"time":705.0325520833288,"velocity":0.8031496062992126,"duration":0.22265625},{"name":"B4","midi":71,"time":705.2565104166622,"velocity":0.8031496062992126,"duration":0.22265625},{"name":"G#4","midi":68,"time":705.4817708333288,"velocity":0.8031496062992126,"duration":0.22265625},{"name":"E4","midi":64,"time":705.7057291666622,"velocity":0.8031496062992126,"duration":0.44661458333325754},{"name":"D3","midi":50,"time":705.9309895833288,"velocity":0.8031496062992126,"duration":0.22265625},{"name":"B4","midi":71,"time":706.1549479166622,"velocity":0.8031496062992126,"duration":0.44661458333325754},{"name":"C3","midi":48,"time":706.1549479166622,"velocity":0.8031496062992126,"duration":0.22265625},{"name":"B2","midi":47,"time":706.3802083333288,"velocity":0.8031496062992126,"duration":0.22265625},{"name":"C5","midi":72,"time":706.6041666666622,"velocity":0.8031496062992126,"duration":0.22265625},{"name":"A2","midi":45,"time":706.6041666666622,"velocity":0.8031496062992126,"duration":0.44661458333325754},{"name":"D5","midi":74,"time":706.8294270833288,"velocity":0.8031496062992126,"duration":0.22265625},{"name":"E5","midi":76,"time":707.0533854166622,"velocity":0.8031496062992126,"duration":0.22265625},{"name":"A3","midi":57,"time":707.0533854166622,"velocity":0.8031496062992126,"duration":0.8958333333332575},{"name":"A4","midi":69,"time":707.2786458333288,"velocity":0.8031496062992126,"duration":0.22265625},{"name":"C#5","midi":73,"time":707.5026041666622,"velocity":0.8031496062992126,"duration":0.22265625},{"name":"D5","midi":74,"time":707.7278645833288,"velocity":0.8031496062992126,"duration":0.22265625},{"name":"E5","midi":76,"time":707.9518229166622,"velocity":0.8031496062992126,"duration":0.22265625},{"name":"G3","midi":55,"time":707.9518229166622,"velocity":0.8031496062992126,"duration":0.44661458333325754},{"name":"A4","midi":69,"time":708.1770833333288,"velocity":0.8031496062992126,"duration":0.22265625},{"name":"D5","midi":74,"time":708.4010416666622,"velocity":0.8031496062992126,"duration":0.22265625},{"name":"F3","midi":53,"time":708.4010416666622,"velocity":0.8031496062992126,"duration":0.44661458333325754},{"name":"E5","midi":76,"time":708.6263020833288,"velocity":0.8031496062992126,"duration":0.22265625},{"name":"F5","midi":77,"time":708.8502604166622,"velocity":0.8031496062992126,"duration":0.22265625},{"name":"D3","midi":50,"time":708.8502604166622,"velocity":0.8031496062992126,"duration":0.44661458333325754},{"name":"A4","midi":69,"time":709.0755208333288,"velocity":0.8031496062992126,"duration":0.22265625},{"name":"D#5","midi":75,"time":709.2994791666622,"velocity":0.8031496062992126,"duration":0.22265625},{"name":"B3","midi":59,"time":709.2994791666622,"velocity":0.8031496062992126,"duration":0.44661458333325754},{"name":"E5","midi":76,"time":709.5247395833288,"velocity":0.8031496062992126,"duration":0.22265625},{"name":"F#5","midi":78,"time":709.7486979166622,"velocity":0.8031496062992126,"duration":0.22265625},{"name":"A3","midi":57,"time":709.7486979166622,"velocity":0.8031496062992126,"duration":0.44661458333325754},{"name":"A4","midi":69,"time":709.9739583333288,"velocity":0.8031496062992126,"duration":0.22265625},{"name":"E5","midi":76,"time":710.1979166666622,"velocity":0.8031496062992126,"duration":0.22265625},{"name":"G3","midi":55,"time":710.1979166666622,"velocity":0.8031496062992126,"duration":0.44661458333325754},{"name":"F#5","midi":78,"time":710.4231770833288,"velocity":0.8031496062992126,"duration":0.22265625},{"name":"G5","midi":79,"time":710.6471354166622,"velocity":0.8031496062992126,"duration":0.22265625},{"name":"E3","midi":52,"time":710.6471354166622,"velocity":0.8031496062992126,"duration":0.44661458333325754},{"name":"B4","midi":71,"time":710.8723958333288,"velocity":0.8031496062992126,"duration":0.22265625},{"name":"E5","midi":76,"time":711.0963541666622,"velocity":0.8031496062992126,"duration":0.22265625},{"name":"E4","midi":64,"time":711.0963541666622,"velocity":0.8031496062992126,"duration":1.3450520833332575},{"name":"F#5","midi":78,"time":711.3216145833288,"velocity":0.8031496062992126,"duration":0.22265625},{"name":"G#5","midi":80,"time":711.5455729166622,"velocity":0.8031496062992126,"duration":0.22265625},{"name":"B4","midi":71,"time":711.7708333333288,"velocity":0.8031496062992126,"duration":0.22265625},{"name":"F5","midi":77,"time":711.9947916666622,"velocity":0.8031496062992126,"duration":0.22265625},{"name":"G5","midi":79,"time":712.2200520833288,"velocity":0.8031496062992126,"duration":0.22265625},{"name":"A5","midi":81,"time":712.4440104166622,"velocity":0.8031496062992126,"duration":0.22265625},{"name":"D4","midi":62,"time":712.4440104166622,"velocity":0.8031496062992126,"duration":0.22265625},{"name":"C5","midi":72,"time":712.6692708333288,"velocity":0.8031496062992126,"duration":0.22265625},{"name":"C4","midi":60,"time":712.6692708333288,"velocity":0.8031496062992126,"duration":0.22265625},{"name":"F#5","midi":78,"time":712.8932291666622,"velocity":0.8031496062992126,"duration":0.22265625},{"name":"D4","midi":62,"time":712.8932291666622,"velocity":0.8031496062992126,"duration":0.22265625},{"name":"G5","midi":79,"time":713.1184895833288,"velocity":0.8031496062992126,"duration":0.22265625},{"name":"B3","midi":59,"time":713.1184895833288,"velocity":0.8031496062992126,"duration":0.22265625},{"name":"A5","midi":81,"time":713.3424479166622,"velocity":0.8031496062992126,"duration":0.22265625},{"name":"C4","midi":60,"time":713.3424479166622,"velocity":0.8031496062992126,"duration":0.22265625},{"name":"C5","midi":72,"time":713.5677083333288,"velocity":0.8031496062992126,"duration":0.22265625},{"name":"A3","midi":57,"time":713.5677083333288,"velocity":0.8031496062992126,"duration":0.22265625},{"name":"G5","midi":79,"time":713.7916666666622,"velocity":0.8031496062992126,"duration":0.22265625},{"name":"B3","midi":59,"time":713.7916666666622,"velocity":0.8031496062992126,"duration":0.44661458333325754},{"name":"A5","midi":81,"time":714.0169270833288,"velocity":0.8031496062992126,"duration":0.22265625},{"name":"B5","midi":83,"time":714.2408854166622,"velocity":0.8031496062992126,"duration":0.22265625},{"name":"F4","midi":65,"time":714.2408854166622,"velocity":0.8031496062992126,"duration":0.44661458333325754},{"name":"D5","midi":74,"time":714.4661458333288,"velocity":0.8031496062992126,"duration":0.22265625},{"name":"G#5","midi":80,"time":714.6901041666622,"velocity":0.8031496062992126,"duration":0.22265625},{"name":"E4","midi":64,"time":714.6901041666622,"velocity":0.8031496062992126,"duration":0.44661458333325754},{"name":"A5","midi":81,"time":714.9153645833288,"velocity":0.8031496062992126,"duration":0.22265625},{"name":"B5","midi":83,"time":715.1393229166622,"velocity":0.8031496062992126,"duration":0.22265625},{"name":"D4","midi":62,"time":715.1393229166622,"velocity":0.8031496062992126,"duration":0.44661458333325754},{"name":"E5","midi":76,"time":715.3645833333288,"velocity":0.8031496062992126,"duration":0.22265625},{"name":"A5","midi":81,"time":715.5885416666622,"velocity":0.8031496062992126,"duration":0.22265625},{"name":"C4","midi":60,"time":715.5885416666622,"velocity":0.8031496062992126,"duration":0.22265625},{"name":"B5","midi":83,"time":715.8138020833288,"velocity":0.8031496062992126,"duration":0.22265625},{"name":"B3","midi":59,"time":715.8138020833288,"velocity":0.8031496062992126,"duration":0.22265625},{"name":"C6","midi":84,"time":716.0377604166622,"velocity":0.8031496062992126,"duration":0.22265625},{"name":"A3","midi":57,"time":716.0377604166622,"velocity":0.8031496062992126,"duration":0.22265625},{"name":"G#5","midi":80,"time":716.2630208333288,"velocity":0.8031496062992126,"duration":0.22265625},{"name":"B3","midi":59,"time":716.2630208333288,"velocity":0.8031496062992126,"duration":0.22265625},{"name":"A5","midi":81,"time":716.4869791666622,"velocity":0.8031496062992126,"duration":0.22265625},{"name":"C4","midi":60,"time":716.4869791666622,"velocity":0.8031496062992126,"duration":0.22265625},{"name":"E5","midi":76,"time":716.7122395833288,"velocity":0.8031496062992126,"duration":0.22265625},{"name":"A3","midi":57,"time":716.7122395833288,"velocity":0.8031496062992126,"duration":0.22265625},{"name":"F5","midi":77,"time":716.9361979166622,"velocity":0.8031496062992126,"duration":0.22265625},{"name":"D4","midi":62,"time":716.9361979166622,"velocity":0.8031496062992126,"duration":0.22265625},{"name":"D5","midi":74,"time":717.1614583333288,"velocity":0.8031496062992126,"duration":0.22265625},{"name":"B3","midi":59,"time":717.1614583333288,"velocity":0.8031496062992126,"duration":0.22265625},{"name":"E5","midi":76,"time":717.3854166666622,"velocity":0.8031496062992126,"duration":0.109375},{"name":"C4","midi":60,"time":717.3854166666622,"velocity":0.8031496062992126,"duration":0.22005208333325754},{"name":"D5","midi":74,"time":717.4973958333288,"velocity":0.8031496062992126,"duration":0.109375},{"name":"E5","midi":76,"time":717.6080729166622,"velocity":0.8031496062992126,"duration":0.44661458333325754},{"name":"G#3","midi":56,"time":717.6080729166622,"velocity":0.8031496062992126,"duration":0.22265625},{"name":"A3","midi":57,"time":717.8333333333288,"velocity":0.8031496062992126,"duration":0.22265625},{"name":"F5","midi":77,"time":718.0572916666622,"velocity":0.8031496062992126,"duration":0.22265625},{"name":"D3","midi":50,"time":718.0572916666622,"velocity":0.8031496062992126,"duration":0.22265625},{"name":"C5","midi":72,"time":718.2825520833288,"velocity":0.8031496062992126,"duration":0.109375},{"name":"E3","midi":52,"time":718.2825520833288,"velocity":0.8031496062992126,"duration":0.44270833333337123},{"name":"B4","midi":71,"time":718.3932291666622,"velocity":0.8031496062992126,"duration":0.109375},{"name":"C5","midi":72,"time":718.5052083333288,"velocity":0.8031496062992126,"duration":0.109375},{"name":"B4","midi":71,"time":718.6158854166622,"velocity":0.8031496062992126,"duration":0.33333333333325754},{"name":"E2","midi":40,"time":718.7278645833288,"velocity":0.8031496062992126,"duration":0.44661458333325754},{"name":"A4","midi":69,"time":718.9518229166621,"velocity":0.8031496062992126,"duration":0.22265625},{"name":"A4","midi":69,"time":719.1770833333287,"velocity":0.8031496062992126,"duration":1.7942708333333712},{"name":"A2","midi":45,"time":719.1770833333287,"velocity":0.8031496062992126,"duration":1.7903645833333712},{"name":"E3","midi":52,"time":719.6263020833287,"velocity":0.8031496062992126,"duration":0.44661458333337123},{"name":"A3","midi":57,"time":720.0755208333287,"velocity":0.8031496062992126,"duration":0.44270833333337123},{"name":"C#4","midi":61,"time":720.5286458333287,"velocity":0.8031496062992126,"duration":0.45052083333337123},{"name":"A3","midi":57,"time":720.5286458333287,"velocity":0.8031496062992126,"duration":0.45052083333337123},{"name":"E4","midi":64,"time":720.5286458333287,"velocity":0.8031496062992126,"duration":0.45052083333337123},{"name":"C#4","midi":61,"time":720.9817708333287,"velocity":0.8031496062992126,"duration":0.45052083333337123},{"name":"A3","midi":57,"time":720.9817708333287,"velocity":0.8031496062992126,"duration":3.6210937500001137},{"name":"E4","midi":64,"time":720.9817708333287,"velocity":0.8031496062992126,"duration":0.45052083333337123},{"name":"D4","midi":62,"time":721.4348958333287,"velocity":0.8031496062992126,"duration":0.45052083333337123},{"name":"F#4","midi":66,"time":721.4348958333287,"velocity":0.8031496062992126,"duration":0.45052083333337123},{"name":"E4","midi":64,"time":721.8893229166621,"velocity":0.8031496062992126,"duration":0.22395833333337123},{"name":"G4","midi":67,"time":721.8893229166621,"velocity":0.8031496062992126,"duration":0.22395833333337123},{"name":"D4","midi":62,"time":722.1158854166621,"velocity":0.8031496062992126,"duration":0.22395833333337123},{"name":"F#4","midi":66,"time":722.1158854166621,"velocity":0.8031496062992126,"duration":0.22395833333337123},{"name":"C#4","midi":61,"time":722.3424479166621,"velocity":0.8031496062992126,"duration":0.22395833333337123},{"name":"E4","midi":64,"time":722.3424479166621,"velocity":0.8031496062992126,"duration":0.22395833333337123},{"name":"B3","midi":59,"time":722.5690104166621,"velocity":0.8031496062992126,"duration":0.22395833333337123},{"name":"D4","midi":62,"time":722.5690104166621,"velocity":0.8031496062992126,"duration":0.22395833333337123},{"name":"C#4","midi":61,"time":722.7968749999955,"velocity":0.8031496062992126,"duration":0.45052083333337123},{"name":"E4","midi":64,"time":722.7968749999955,"velocity":0.8031496062992126,"duration":0.45052083333337123},{"name":"C#4","midi":61,"time":723.2499999999955,"velocity":0.8031496062992126,"duration":0.22395833333337123},{"name":"A4","midi":69,"time":723.2499999999955,"velocity":0.8031496062992126,"duration":0.22395833333337123},{"name":"B3","midi":59,"time":723.4765624999955,"velocity":0.8031496062992126,"duration":0.22395833333337123},{"name":"G#4","midi":68,"time":723.4765624999955,"velocity":0.8031496062992126,"duration":0.22395833333337123},{"name":"C#4","midi":61,"time":723.7044270833288,"velocity":0.8031496062992126,"duration":0.45052083333337123},{"name":"A4","midi":69,"time":723.7044270833288,"velocity":0.8031496062992126,"duration":0.45052083333337123},{"name":"C#4","midi":61,"time":724.1575520833288,"velocity":0.8031496062992126,"duration":0.45052083333337123},{"name":"E4","midi":64,"time":724.1575520833288,"velocity":0.8031496062992126,"duration":0.45052083333337123},{"name":"B3","midi":59,"time":724.6015624999955,"velocity":0.8031496062992126,"duration":1.5690104166668561},{"name":"F#4","midi":66,"time":724.6015624999955,"velocity":0.8031496062992126,"duration":0.22395833333337123},{"name":"D4","midi":62,"time":724.8372395833288,"velocity":0.8031496062992126,"duration":0.22395833333337123},{"name":"A3","midi":57,"time":725.0651041666622,"velocity":0.8031496062992126,"duration":0.45052083333337123},{"name":"C#4","midi":61,"time":725.0651041666622,"velocity":0.8031496062992126,"duration":0.22395833333337123},{"name":"D4","midi":62,"time":725.2916666666622,"velocity":0.8031496062992126,"duration":0.22395833333337123},{"name":"G#3","midi":56,"time":725.5195312499956,"velocity":0.8031496062992126,"duration":0.4505208333334849},{"name":"E4","midi":64,"time":725.5195312499956,"velocity":0.8031496062992126,"duration":0.22395833333337123},{"name":"D4","midi":62,"time":725.7447916666623,"velocity":0.8031496062992126,"duration":0.22395833333337123},{"name":"E3","midi":52,"time":725.9726562499957,"velocity":0.8031496062992126,"duration":0.45052083333325754},{"name":"C#4","midi":61,"time":725.9726562499957,"velocity":0.8031496062992126,"duration":0.22395833333325754},{"name":"B3","midi":59,"time":726.1992187499956,"velocity":0.8031496062992126,"duration":0.22395833333337123},{"name":"A3","midi":57,"time":726.4257812499956,"velocity":0.8031496062992126,"duration":0.8619791666667425},{"name":"D4","midi":62,"time":726.4257812499956,"velocity":0.8031496062992126,"duration":0.22395833333337123},{"name":"C#4","midi":61,"time":726.6523437499956,"velocity":0.8031496062992126,"duration":0.22395833333337123},{"name":"E3","midi":52,"time":726.8802083333289,"velocity":0.8031496062992126,"duration":0.45052083333337123},{"name":"B3","midi":59,"time":726.8802083333289,"velocity":0.8031496062992126,"duration":0.22395833333337123},{"name":"C#4","midi":61,"time":727.1067708333289,"velocity":0.8031496062992126,"duration":0.22395833333337123},{"name":"C#3","midi":49,"time":727.3333333333289,"velocity":0.8031496062992126,"duration":0.45052083333337123},{"name":"A3","midi":57,"time":727.3333333333289,"velocity":0.8031496062992126,"duration":0.45052083333337123},{"name":"E3","midi":52,"time":727.7877604166623,"velocity":0.8031496062992126,"duration":0.45052083333337123},{"name":"A3","midi":57,"time":727.7877604166623,"velocity":0.8031496062992126,"duration":0.45052083333337123},{"name":"C#4","midi":61,"time":727.7877604166623,"velocity":0.8031496062992126,"duration":0.390625},{"name":"E4","midi":64,"time":727.7877604166623,"velocity":0.8031496062992126,"duration":0.390625},{"name":"C#4","midi":61,"time":728.2408854166623,"velocity":0.8031496062992126,"duration":0.45052083333337123},{"name":"A3","midi":57,"time":728.2408854166623,"velocity":0.8031496062992126,"duration":2.268229166666856},{"name":"E4","midi":64,"time":728.2408854166623,"velocity":0.8031496062992126,"duration":0.45052083333337123},{"name":"D4","midi":62,"time":728.6953124999957,"velocity":0.8031496062992126,"duration":0.45052083333337123},{"name":"F#4","midi":66,"time":728.6953124999957,"velocity":0.8031496062992126,"duration":0.45052083333337123},{"name":"E4","midi":64,"time":729.1484374999957,"velocity":0.8031496062992126,"duration":0.22395833333337123},{"name":"G4","midi":67,"time":729.1484374999957,"velocity":0.8031496062992126,"duration":0.22395833333337123},{"name":"D4","midi":62,"time":729.3749999999957,"velocity":0.8031496062992126,"duration":0.22395833333337123},{"name":"F#4","midi":66,"time":729.3749999999957,"velocity":0.8031496062992126,"duration":0.22395833333337123},{"name":"C#4","midi":61,"time":729.602864583329,"velocity":0.8031496062992126,"duration":0.22395833333337123},{"name":"E4","midi":64,"time":729.602864583329,"velocity":0.8031496062992126,"duration":0.22395833333337123},{"name":"B3","midi":59,"time":729.8281249999958,"velocity":0.8031496062992126,"duration":0.22395833333337123},{"name":"D4","midi":62,"time":729.8281249999958,"velocity":0.8031496062992126,"duration":0.22395833333337123},{"name":"C#4","midi":61,"time":730.0559895833292,"velocity":0.8031496062992126,"duration":1.3580729166667425},{"name":"E4","midi":64,"time":730.0559895833292,"velocity":0.8031496062992126,"duration":0.45052083333337123},{"name":"G#3","midi":56,"time":730.5091145833292,"velocity":0.8031496062992126,"duration":0.45052083333337123},{"name":"A4","midi":69,"time":730.5091145833292,"velocity":0.8031496062992126,"duration":0.22395833333337123},{"name":"G#4","midi":68,"time":730.7356770833292,"velocity":0.8031496062992126,"duration":0.22395833333337123},{"name":"F#3","midi":54,"time":730.9635416666625,"velocity":0.8031496062992126,"duration":0.45052083333337123},{"name":"A4","midi":69,"time":730.9635416666625,"velocity":0.8031496062992126,"duration":0.22395833333337123},{"name":"C#5","midi":73,"time":731.1901041666625,"velocity":0.8031496062992126,"duration":0.22395833333337123},{"name":"A3","midi":57,"time":731.4166666666625,"velocity":0.8031496062992126,"duration":0.45052083333337123},{"name":"B4","midi":71,"time":731.4166666666625,"velocity":0.8031496062992126,"duration":0.45052083333337123},{"name":"D#4","midi":63,"time":731.4166666666625,"velocity":0.8031496062992126,"duration":0.45052083333337123},{"name":"A3","midi":57,"time":731.8710937499959,"velocity":0.8031496062992126,"duration":0.22395833333337123},{"name":"E4","midi":64,"time":731.8710937499959,"velocity":0.8031496062992126,"duration":1.3580729166668561},{"name":"B4","midi":71,"time":731.8710937499959,"velocity":0.8031496062992126,"duration":0.9036458333333712},{"name":"G#3","midi":56,"time":732.0976562499959,"velocity":0.8031496062992126,"duration":0.22395833333337123},{"name":"F#3","midi":54,"time":732.3242187499959,"velocity":0.8031496062992126,"duration":0.22395833333337123},{"name":"E3","midi":52,"time":732.5507812499959,"velocity":0.8031496062992126,"duration":0.22395833333337123},{"name":"B3","midi":59,"time":732.7786458333293,"velocity":0.8031496062992126,"duration":0.4505208333334849},{"name":"A4","midi":69,"time":732.7786458333293,"velocity":0.8031496062992126,"duration":0.22395833333337123},{"name":"G#4","midi":68,"time":733.003906249996,"velocity":0.8031496062992126,"duration":0.22395833333337123},{"name":"B2","midi":47,"time":733.2317708333294,"velocity":0.8031496062992126,"duration":0.45052083333337123},{"name":"F#4","midi":66,"time":733.2317708333294,"velocity":0.8031496062992126,"duration":0.22395833333337123},{"name":"D#4","midi":63,"time":733.2317708333294,"velocity":0.8031496062992126,"duration":0.22395833333337123},{"name":"E4","midi":64,"time":733.4583333333294,"velocity":0.8031496062992126,"duration":0.22395833333337123},{"name":"E3","midi":52,"time":733.6861979166628,"velocity":0.8031496062992126,"duration":0.45052083333337123},{"name":"E4","midi":64,"time":733.6861979166628,"velocity":0.8031496062992126,"duration":1.3580729166667425},{"name":"B2","midi":47,"time":734.1393229166628,"velocity":0.8031496062992126,"duration":0.45052083333337123},{"name":"E2","midi":40,"time":734.5937499999961,"velocity":0.8031496062992126,"duration":0.45052083333337123},{"name":"E3","midi":52,"time":735.0468749999961,"velocity":0.8031496062992126,"duration":0.45052083333337123},{"name":"B3","midi":59,"time":735.0468749999961,"velocity":0.8031496062992126,"duration":0.45052083333337123},{"name":"G#4","midi":68,"time":735.0468749999961,"velocity":0.8031496062992126,"duration":0.45052083333337123},{"name":"B3","midi":59,"time":735.4999999999961,"velocity":0.8031496062992126,"duration":0.45052083333337123},{"name":"E3","midi":52,"time":735.4999999999961,"velocity":0.8031496062992126,"duration":3.167968750000341},{"name":"G#4","midi":68,"time":735.4999999999961,"velocity":0.8031496062992126,"duration":0.45052083333337123},{"name":"C#4","midi":61,"time":735.9544270833295,"velocity":0.8031496062992126,"duration":0.45052083333337123},{"name":"A4","midi":69,"time":735.9544270833295,"velocity":0.8031496062992126,"duration":0.45052083333337123},{"name":"D4","midi":62,"time":736.4075520833295,"velocity":0.8031496062992126,"duration":0.22395833333337123},{"name":"B4","midi":71,"time":736.4075520833295,"velocity":0.8031496062992126,"duration":0.22395833333337123},{"name":"C#4","midi":61,"time":736.6341145833295,"velocity":0.8031496062992126,"duration":0.22395833333337123},{"name":"A4","midi":69,"time":736.6341145833295,"velocity":0.8031496062992126,"duration":0.22395833333337123},{"name":"B3","midi":59,"time":736.8619791666629,"velocity":0.8031496062992126,"duration":0.22395833333337123},{"name":"G#4","midi":68,"time":736.8619791666629,"velocity":0.8031496062992126,"duration":0.22395833333337123},{"name":"A3","midi":57,"time":737.0872395833296,"velocity":0.8031496062992126,"duration":0.22395833333337123},{"name":"F#4","midi":66,"time":737.0872395833296,"velocity":0.8031496062992126,"duration":0.22395833333337123},{"name":"C#4","midi":61,"time":737.315104166663,"velocity":0.8031496062992126,"duration":0.22395833333337123},{"name":"A4","midi":69,"time":737.315104166663,"velocity":0.8031496062992126,"duration":0.22395833333337123},{"name":"B3","midi":59,"time":737.541666666663,"velocity":0.8031496062992126,"duration":0.22395833333337123},{"name":"G#4","midi":68,"time":737.541666666663,"velocity":0.8031496062992126,"duration":0.22395833333337123},{"name":"A3","midi":57,"time":737.7695312499964,"velocity":0.8031496062992126,"duration":0.22395833333337123},{"name":"F#4","midi":66,"time":737.7695312499964,"velocity":0.8031496062992126,"duration":0.22395833333337123},{"name":"B3","midi":59,"time":737.9947916666631,"velocity":0.8031496062992126,"duration":0.22395833333337123},{"name":"G#4","midi":68,"time":737.9947916666631,"velocity":0.8031496062992126,"duration":0.22395833333337123},{"name":"G#3","midi":56,"time":738.2226562499965,"velocity":0.8031496062992126,"duration":0.453125},{"name":"E4","midi":64,"time":738.2226562499965,"velocity":0.8031496062992126,"duration":0.453125},{"name":"C#3","midi":49,"time":738.6783854166631,"velocity":0.8031496062992126,"duration":0.45052083333337123},{"name":"E4","midi":64,"time":738.6783854166631,"velocity":0.8031496062992126,"duration":0.45052083333337123},{"name":"A4","midi":69,"time":738.6783854166631,"velocity":0.8031496062992126,"duration":0.45052083333337123},{"name":"D3","midi":50,"time":739.1315104166631,"velocity":0.8031496062992126,"duration":0.45052083333337123},{"name":"A3","midi":57,"time":739.1315104166631,"velocity":0.8031496062992126,"duration":0.9062500000002274},{"name":"F#4","midi":66,"time":739.1315104166631,"velocity":0.8031496062992126,"duration":0.22395833333337123},{"name":"F4","midi":65,"time":739.3593749999965,"velocity":0.8031496062992126,"duration":0.22395833333337123},{"name":"C#3","midi":49,"time":739.5846354166632,"velocity":0.8031496062992126,"duration":0.45052083333337123},{"name":"F#4","midi":66,"time":739.5846354166632,"velocity":0.8031496062992126,"duration":0.22395833333337123},{"name":"A4","midi":69,"time":739.8124999999966,"velocity":0.8031496062992126,"duration":0.22395833333337123},{"name":"B2","midi":47,"time":740.0416666666633,"velocity":0.8031496062992126,"duration":0.45052083333337123},{"name":"B3","midi":59,"time":740.0416666666633,"velocity":0.8031496062992126,"duration":0.45052083333337123},{"name":"G#4","midi":68,"time":740.0416666666633,"velocity":0.8031496062992126,"duration":0.22395833333337123},{"name":"A4","midi":69,"time":740.2682291666633,"velocity":0.8031496062992126,"duration":0.22395833333337123},{"name":"F#3","midi":54,"time":740.4947916666633,"velocity":0.8031496062992126,"duration":0.45052083333337123},{"name":"D3","midi":50,"time":740.4947916666633,"velocity":0.8031496062992126,"duration":0.45052083333337123},{"name":"B4","midi":71,"time":740.4947916666633,"velocity":0.8031496062992126,"duration":0.22395833333337123},{"name":"F#4","midi":66,"time":740.7213541666633,"velocity":0.8031496062992126,"duration":0.22395833333337123},{"name":"F3","midi":53,"time":740.9492187499967,"velocity":0.8031496062992126,"duration":0.45052083333337123},{"name":"C#3","midi":49,"time":740.9492187499967,"velocity":0.8031496062992126,"duration":1.3580729166668561},{"name":"G#4","midi":68,"time":740.9492187499967,"velocity":0.8031496062992126,"duration":0.22395833333337123},{"name":"F4","midi":65,"time":741.1757812499967,"velocity":0.8031496062992126,"duration":0.22395833333337123},{"name":"A3","midi":57,"time":741.4023437499967,"velocity":0.8031496062992126,"duration":0.45052083333337123},{"name":"F#4","midi":66,"time":741.4023437499967,"velocity":0.8031496062992126,"duration":0.22395833333337123},{"name":"D#4","midi":63,"time":741.6289062499967,"velocity":0.8031496062992126,"duration":0.22395833333337123},{"name":"G#3","midi":56,"time":741.8567708333301,"velocity":0.8031496062992126,"duration":0.4505208333334849},{"name":"F4","midi":65,"time":741.8567708333301,"velocity":0.8031496062992126,"duration":0.22395833333337123},{"name":"C#4","midi":61,"time":742.0820312499968,"velocity":0.8031496062992126,"duration":0.22395833333337123},{"name":"C#3","midi":49,"time":742.3098958333302,"velocity":0.8031496062992126,"duration":0.45052083333337123},{"name":"F3","midi":53,"time":742.3098958333302,"velocity":0.8031496062992126,"duration":0.45052083333337123},{"name":"G#3","midi":56,"time":742.3098958333302,"velocity":0.8031496062992126,"duration":0.45052083333337123},{"name":"B3","midi":59,"time":742.3098958333302,"velocity":0.8031496062992126,"duration":0.45052083333337123},{"name":"C#5","midi":73,"time":742.3098958333302,"velocity":0.8031496062992126,"duration":0.45052083333337123},{"name":"A#3","midi":58,"time":742.7643229166636,"velocity":0.8031496062992126,"duration":0.4505208333334849},{"name":"F#3","midi":54,"time":742.7643229166636,"velocity":0.8031496062992126,"duration":4.087239583333712},{"name":"C#5","midi":73,"time":742.7643229166636,"velocity":0.8031496062992126,"duration":0.22395833333337123},{"name":"D5","midi":74,"time":742.9895833333303,"velocity":0.8031496062992126,"duration":0.22395833333337123},{"name":"C#4","midi":61,"time":743.2174479166637,"velocity":0.8031496062992126,"duration":0.45052083333337123},{"name":"E5","midi":76,"time":743.2174479166637,"velocity":0.8031496062992126,"duration":0.22395833333337123},{"name":"C#5","midi":73,"time":743.4440104166637,"velocity":0.8031496062992126,"duration":0.22395833333337123},{"name":"B3","midi":59,"time":743.671874999997,"velocity":0.8031496062992126,"duration":0.4505208333334849},{"name":"D5","midi":74,"time":743.671874999997,"velocity":0.8031496062992126,"duration":0.22395833333337123},{"name":"B4","midi":71,"time":743.8971354166638,"velocity":0.8031496062992126,"duration":0.22395833333337123},{"name":"E4","midi":64,"time":744.1249999999972,"velocity":0.8031496062992126,"duration":0.45052083333337123},{"name":"C#5","midi":73,"time":744.1249999999972,"velocity":0.8031496062992126,"duration":0.22395833333337123},{"name":"A#4","midi":70,"time":744.3515624999972,"velocity":0.8031496062992126,"duration":0.22395833333337123},{"name":"D4","midi":62,"time":744.5781249999972,"velocity":0.8031496062992126,"duration":0.45052083333337123},{"name":"B4","midi":71,"time":744.5781249999972,"velocity":0.8031496062992126,"duration":0.22395833333337123},{"name":"C#5","midi":73,"time":744.8046874999972,"velocity":0.8031496062992126,"duration":0.22395833333337123},{"name":"B3","midi":59,"time":745.0325520833305,"velocity":0.8031496062992126,"duration":0.45052083333337123},{"name":"D5","midi":74,"time":745.0325520833305,"velocity":0.8031496062992126,"duration":0.22395833333337123},{"name":"B4","midi":71,"time":745.2591145833305,"velocity":0.8031496062992126,"duration":0.22395833333337123},{"name":"A3","midi":57,"time":745.4856770833305,"velocity":0.8031496062992126,"duration":0.45052083333337123},{"name":"C#5","midi":73,"time":745.4856770833305,"velocity":0.8031496062992126,"duration":0.22395833333337123},{"name":"A4","midi":69,"time":745.7122395833305,"velocity":0.8031496062992126,"duration":0.22395833333337123},{"name":"G#3","midi":56,"time":745.9401041666639,"velocity":0.8031496062992126,"duration":0.45052083333337123},{"name":"B4","midi":71,"time":745.9401041666639,"velocity":0.8031496062992126,"duration":0.22395833333337123},{"name":"G#4","midi":68,"time":746.1666666666639,"velocity":0.8031496062992126,"duration":0.22395833333337123},{"name":"A3","midi":57,"time":746.3932291666639,"velocity":0.8031496062992126,"duration":0.45052083333337123},{"name":"C#5","midi":73,"time":746.3932291666639,"velocity":0.8031496062992126,"duration":0.22395833333337123},{"name":"B4","midi":71,"time":746.6197916666639,"velocity":0.8031496062992126,"duration":0.22395833333337123},{"name":"B2","midi":47,"time":746.8476562499973,"velocity":0.8031496062992126,"duration":0.4505208333334849},{"name":"G#3","midi":56,"time":746.8476562499973,"velocity":0.8031496062992126,"duration":0.4505208333334849},{"name":"D5","midi":74,"time":746.8476562499973,"velocity":0.8031496062992126,"duration":0.22395833333337123},{"name":"C#5","midi":73,"time":747.072916666664,"velocity":0.8031496062992126,"duration":0.22395833333337123},{"name":"C#3","midi":49,"time":747.3007812499974,"velocity":0.8031496062992126,"duration":0.9062500000002274},{"name":"F#3","midi":54,"time":747.3007812499974,"velocity":0.8031496062992126,"duration":0.45052083333337123},{"name":"B4","midi":71,"time":747.3007812499974,"velocity":0.8031496062992126,"duration":0.22395833333337123},{"name":"A4","midi":69,"time":747.5273437499974,"velocity":0.8031496062992126,"duration":0.22395833333337123},{"name":"F3","midi":53,"time":747.7552083333308,"velocity":0.8031496062992126,"duration":0.4505208333334849},{"name":"G#4","midi":68,"time":747.7552083333308,"velocity":0.8031496062992126,"duration":0.22395833333337123},{"name":"A4","midi":69,"time":747.9804687499975,"velocity":0.8031496062992126,"duration":0.22395833333337123},{"name":"F#3","midi":54,"time":748.2096354166642,"velocity":0.8031496062992126,"duration":0.22395833333337123},{"name":"G#4","midi":68,"time":748.2096354166642,"velocity":0.8031496062992126,"duration":0.45052083333337123},{"name":"D3","midi":50,"time":748.4374999999976,"velocity":0.8031496062992126,"duration":0.22395833333337123},{"name":"C#3","midi":49,"time":748.6640624999976,"velocity":0.8031496062992126,"duration":0.22395833333337123},{"name":"F#4","midi":66,"time":748.6640624999976,"velocity":0.8031496062992126,"duration":0.9036458333333712},{"name":"B2","midi":47,"time":748.8906249999976,"velocity":0.8031496062992126,"duration":0.22395833333337123},{"name":"A2","midi":45,"time":749.1171874999976,"velocity":0.8031496062992126,"duration":0.22395833333337123},{"name":"G#2","midi":44,"time":749.345052083331,"velocity":0.8031496062992126,"duration":0.22395833333337123},{"name":"A2","midi":45,"time":749.5703124999977,"velocity":0.8031496062992126,"duration":0.22395833333337123},{"name":"F#3","midi":54,"time":749.5703124999977,"velocity":0.8031496062992126,"duration":0.22395833333337123},{"name":"A4","midi":69,"time":749.5703124999977,"velocity":0.8031496062992126,"duration":0.45052083333337123},{"name":"C#4","midi":61,"time":749.5703124999977,"velocity":0.8031496062992126,"duration":0.45052083333337123},{"name":"F#2","midi":42,"time":749.7981770833311,"velocity":0.8031496062992126,"duration":0.22395833333337123},{"name":"B2","midi":47,"time":750.0247395833311,"velocity":0.8031496062992126,"duration":1.3580729166667425},{"name":"D#3","midi":51,"time":750.0247395833311,"velocity":0.8031496062992126,"duration":0.45052083333337123},{"name":"A4","midi":69,"time":750.0247395833311,"velocity":0.8031496062992126,"duration":1.3580729166667425},{"name":"B3","midi":59,"time":750.0247395833311,"velocity":0.8031496062992126,"duration":0.45052083333337123},{"name":"F#3","midi":54,"time":750.4778645833311,"velocity":0.8031496062992126,"duration":0.22395833333337123},{"name":"D#4","midi":63,"time":750.4778645833311,"velocity":0.8031496062992126,"duration":0.22395833333337123},{"name":"E3","midi":52,"time":750.7057291666645,"velocity":0.8031496062992126,"duration":0.22395833333337123},{"name":"C#4","midi":61,"time":750.7057291666645,"velocity":0.8031496062992126,"duration":0.22395833333337123},{"name":"F#3","midi":54,"time":750.9322916666645,"velocity":0.8031496062992126,"duration":0.45052083333337123},{"name":"D#4","midi":63,"time":750.9322916666645,"velocity":0.8031496062992126,"duration":0.45052083333337123},{"name":"F#3","midi":54,"time":751.3854166666645,"velocity":0.8031496062992126,"duration":0.45052083333337123},{"name":"B2","midi":47,"time":751.3854166666645,"velocity":0.8031496062992126,"duration":0.45052083333337123},{"name":"D#4","midi":63,"time":751.3854166666645,"velocity":0.8031496062992126,"duration":0.45052083333337123},{"name":"A4","midi":69,"time":751.3854166666645,"velocity":0.8031496062992126,"duration":0.45052083333337123},{"name":"E2","midi":40,"time":751.8398437499978,"velocity":0.8031496062992126,"duration":1.3580729166666288},{"name":"E3","midi":52,"time":751.8398437499978,"velocity":0.8031496062992126,"duration":1.3580729166666288},{"name":"E4","midi":64,"time":751.8398437499978,"velocity":0.8031496062992126,"duration":1.1171875},{"name":"A4","midi":69,"time":751.8398437499978,"velocity":0.8031496062992126,"duration":0.22395833333337123},{"name":"G#4","midi":68,"time":752.0664062499978,"velocity":0.8031496062992126,"duration":0.22395833333337123},{"name":"A4","midi":69,"time":752.2929687499978,"velocity":0.8031496062992126,"duration":0.22395833333337123},{"name":"F#4","midi":66,"time":752.5208333333312,"velocity":0.8031496062992126,"duration":0.22395833333337123},{"name":"G#4","midi":68,"time":752.7473958333312,"velocity":0.8031496062992126,"duration":0.22395833333325754},{"name":"E4","midi":64,"time":752.9739583333311,"velocity":0.8031496062992126,"duration":0.22395833333337123},{"name":"E2","midi":40,"time":753.2005208333311,"velocity":0.8031496062992126,"duration":0.45052083333337123},{"name":"E3","midi":52,"time":753.2005208333311,"velocity":0.8031496062992126,"duration":0.45052083333337123},{"name":"B3","midi":59,"time":753.2005208333311,"velocity":0.8031496062992126,"duration":0.45052083333337123},{"name":"G4","midi":67,"time":753.2005208333311,"velocity":0.8031496062992126,"duration":0.45052083333337123},{"name":"C#3","midi":49,"time":753.6536458333311,"velocity":0.8031496062992126,"duration":0.45052083333337123},{"name":"A2","midi":45,"time":753.6536458333311,"velocity":0.8031496062992126,"duration":1.3580729166668561},{"name":"G4","midi":67,"time":753.6536458333311,"velocity":0.8031496062992126,"duration":1.3580729166668561},{"name":"A3","midi":57,"time":753.6536458333311,"velocity":0.8031496062992126,"duration":0.45052083333337123},{"name":"E3","midi":52,"time":754.1080729166645,"velocity":0.8031496062992126,"duration":0.22395833333337123},{"name":"C#4","midi":61,"time":754.1080729166645,"velocity":0.8031496062992126,"duration":0.22395833333337123},{"name":"D3","midi":50,"time":754.3359374999978,"velocity":0.8031496062992126,"duration":0.22395833333337123},{"name":"B3","midi":59,"time":754.3359374999978,"velocity":0.8031496062992126,"duration":0.22395833333337123},{"name":"E3","midi":52,"time":754.5611979166646,"velocity":0.8031496062992126,"duration":0.45052083333337123},{"name":"C#4","midi":61,"time":754.5611979166646,"velocity":0.8031496062992126,"duration":0.45052083333337123},{"name":"A2","midi":45,"time":755.015624999998,"velocity":0.8031496062992126,"duration":0.45052083333337123},{"name":"E3","midi":52,"time":755.015624999998,"velocity":0.8031496062992126,"duration":0.45052083333337123},{"name":"C#4","midi":61,"time":755.015624999998,"velocity":0.8031496062992126,"duration":0.45052083333337123},{"name":"G4","midi":67,"time":755.015624999998,"velocity":0.8031496062992126,"duration":0.45052083333337123},{"name":"D2","midi":38,"time":755.468749999998,"velocity":0.8031496062992126,"duration":1.3580729166667425},{"name":"D3","midi":50,"time":755.468749999998,"velocity":0.8031496062992126,"duration":1.3580729166667425},{"name":"G4","midi":67,"time":755.468749999998,"velocity":0.8031496062992126,"duration":0.22395833333337123},{"name":"D4","midi":62,"time":755.468749999998,"velocity":0.8031496062992126,"duration":1.1119791666667425},{"name":"F#4","midi":66,"time":755.6966145833313,"velocity":0.8031496062992126,"duration":0.22395833333337123},{"name":"G4","midi":67,"time":755.9231770833313,"velocity":0.8031496062992126,"duration":0.22395833333337123},{"name":"E4","midi":64,"time":756.1497395833313,"velocity":0.8031496062992126,"duration":0.22395833333337123},{"name":"F#4","midi":66,"time":756.3763020833313,"velocity":0.8031496062992126,"duration":0.22395833333337123},{"name":"D4","midi":62,"time":756.6041666666647,"velocity":0.8031496062992126,"duration":0.22395833333337123},{"name":"D3","midi":50,"time":756.8307291666647,"velocity":0.8031496062992126,"duration":0.45052083333337123},{"name":"F#3","midi":54,"time":756.8307291666647,"velocity":0.8031496062992126,"duration":0.45052083333337123},{"name":"D4","midi":62,"time":756.8307291666647,"velocity":0.8031496062992126,"duration":0.45052083333337123},{"name":"B4","midi":71,"time":756.8307291666647,"velocity":0.8031496062992126,"duration":0.45052083333337123},{"name":"G#2","midi":44,"time":757.2838541666647,"velocity":0.8031496062992126,"duration":0.9036458333333712},{"name":"E3","midi":52,"time":757.2838541666647,"velocity":0.8031496062992126,"duration":0.9036458333333712},{"name":"D4","midi":62,"time":757.2838541666647,"velocity":0.8031496062992126,"duration":0.45052083333337123},{"name":"B4","midi":71,"time":757.2838541666647,"velocity":0.8031496062992126,"duration":0.45052083333337123},{"name":"E4","midi":64,"time":757.7382812499981,"velocity":0.8031496062992126,"duration":0.45052083333337123},{"name":"C#5","midi":73,"time":757.7382812499981,"velocity":0.8031496062992126,"duration":0.45052083333337123},{"name":"A2","midi":45,"time":758.1914062499981,"velocity":0.8031496062992126,"duration":0.9062500000002274},{"name":"E3","midi":52,"time":758.1914062499981,"velocity":0.8031496062992126,"duration":0.45052083333337123},{"name":"E4","midi":64,"time":758.1914062499981,"velocity":0.8031496062992126,"duration":0.9062500000002274},{"name":"D5","midi":74,"time":758.1914062499981,"velocity":0.8031496062992126,"duration":0.22395833333337123},{"name":"C#5","midi":73,"time":758.4192708333314,"velocity":0.8031496062992126,"duration":0.22395833333337123},{"name":"F#3","midi":54,"time":758.6445312499982,"velocity":0.8031496062992126,"duration":0.45052083333337123},{"name":"B4","midi":71,"time":758.6445312499982,"velocity":0.8031496062992126,"duration":0.22395833333337123},{"name":"A4","midi":69,"time":758.8723958333316,"velocity":0.8031496062992126,"duration":0.22395833333337123},{"name":"D3","midi":50,"time":759.1015624999983,"velocity":0.8031496062992126,"duration":1.3815104166667425},{"name":"G#3","midi":56,"time":759.1015624999983,"velocity":0.8031496062992126,"duration":1.3854166666667425},{"name":"B4","midi":71,"time":759.1015624999983,"velocity":0.8031496062992126,"duration":0.45052083333337123},{"name":"E4","midi":64,"time":759.1015624999983,"velocity":0.8031496062992126,"duration":1.3854166666667425},{"name":"E5","midi":76,"time":759.5546874999983,"velocity":0.8031496062992126,"duration":0.22395833333337123},{"name":"D5","midi":74,"time":759.7942708333317,"velocity":0.8031496062992126,"duration":0.22395833333337123},{"name":"E5","midi":76,"time":760.029947916665,"velocity":0.8031496062992126,"duration":0.47395833333337123},{"name":"E4","midi":64,"time":760.5156249999984,"velocity":0.8031496062992126,"duration":0.45052083333337123},{"name":"G#4","midi":68,"time":760.5156249999984,"velocity":0.8031496062992126,"duration":0.45052083333337123},{"name":"D3","midi":50,"time":760.5156249999984,"velocity":0.8031496062992126,"duration":0.45052083333337123},{"name":"B3","midi":59,"time":760.5156249999984,"velocity":0.8031496062992126,"duration":0.45052083333337123},{"name":"E4","midi":64,"time":760.9687499999984,"velocity":0.8031496062992126,"duration":0.71484375},{"name":"A4","midi":69,"time":760.9687499999984,"velocity":0.8031496062992126,"duration":0.71484375},{"name":"A3","midi":57,"time":760.9687499999984,"velocity":0.8031496062992126,"duration":0.9557291666667425},{"name":"C#3","midi":49,"time":760.9687499999984,"velocity":0.8031496062992126,"duration":0.4765625},{"name":"D3","midi":50,"time":761.447916666665,"velocity":0.8031496062992126,"duration":0.47395833333337123},{"name":"B4","midi":71,"time":761.6874999999984,"velocity":0.8031496062992126,"duration":0.23567708333337123},{"name":"G#4","midi":68,"time":761.9270833333318,"velocity":0.8031496062992126,"duration":0.7213541666665151},{"name":"C#5","midi":73,"time":761.9270833333318,"velocity":0.8031496062992126,"duration":0.1171875},{"name":"E3","midi":52,"time":761.9270833333318,"velocity":0.8031496062992126,"duration":0.9622395833331439},{"name":"B4","midi":71,"time":762.0468749999984,"velocity":0.8031496062992126,"duration":0.1171875},{"name":"C#5","midi":73,"time":762.1679687499984,"velocity":0.8031496062992126,"duration":0.1171875},{"name":"B4","midi":71,"time":762.287760416665,"velocity":0.8031496062992126,"duration":0.1171875},{"name":"C#5","midi":73,"time":762.408854166665,"velocity":0.8031496062992126,"duration":0.1171875},{"name":"E2","midi":40,"time":762.408854166665,"velocity":0.8031496062992126,"duration":0.47786458333325754},{"name":"B4","midi":71,"time":762.5286458333317,"velocity":0.8031496062992126,"duration":0.1171875},{"name":"A4","midi":69,"time":762.6510416666649,"velocity":0.8031496062992126,"duration":0.23567708333337123},{"name":"A4","midi":69,"time":762.8919270833316,"velocity":0.8031496062992126,"duration":3.6822916666666288},{"name":"A2","midi":45,"time":762.8919270833316,"velocity":0.8031496062992126,"duration":3.6822916666666288},{"name":"E4","midi":64,"time":763.1757812499982,"velocity":0.8031496062992126,"duration":0.27994791666662877},{"name":"C#4","midi":61,"time":763.4583333333314,"velocity":0.8031496062992126,"duration":3.1380208333333712},{"name":"E3","midi":52,"time":763.8072916666648,"velocity":0.8031496062992126,"duration":0.4296875},{"name":"A3","midi":57,"time":764.2408854166648,"velocity":0.8031496062992126,"duration":3.2265625},{"name":"E4","midi":64,"time":766.9466145833314,"velocity":0.8031496062992126,"duration":0.6119791666667425},{"name":"A2","midi":45,"time":767.5898437499982,"velocity":0.8031496062992126,"duration":0.65234375},{"name":"A4","midi":69,"time":767.5898437499982,"velocity":0.8031496062992126,"duration":0.43359375},{"name":"A4","midi":69,"time":768.0286458333316,"velocity":0.8031496062992126,"duration":0.21484375},{"name":"A3","midi":57,"time":768.2460937499982,"velocity":0.8031496062992126,"duration":1.3111979166667425},{"name":"A4","midi":69,"time":768.2460937499982,"velocity":0.8031496062992126,"duration":0.21484375},{"name":"B4","midi":71,"time":768.4661458333316,"velocity":0.8031496062992126,"duration":0.21484375},{"name":"C5","midi":72,"time":768.6861979166649,"velocity":0.8031496062992126,"duration":0.21484375},{"name":"B4","midi":71,"time":768.9036458333316,"velocity":0.8031496062992126,"duration":0.21484375},{"name":"D4","midi":62,"time":769.1236979166649,"velocity":0.8031496062992126,"duration":0.21484375},{"name":"B4","midi":71,"time":769.3437499999983,"velocity":0.8031496062992126,"duration":0.21484375},{"name":"G#3","midi":56,"time":769.5611979166649,"velocity":0.8031496062992126,"duration":0.6536458333333712},{"name":"E4","midi":64,"time":769.5611979166649,"velocity":0.8031496062992126,"duration":0.21484375},{"name":"F4","midi":65,"time":769.7812499999983,"velocity":0.8031496062992126,"duration":0.21484375},{"name":"D4","midi":62,"time":770.0013020833317,"velocity":0.8031496062992126,"duration":0.21484375},{"name":"A3","midi":57,"time":770.2187499999983,"velocity":0.8031496062992126,"duration":0.6536458333333712},{"name":"C4","midi":60,"time":770.2187499999983,"velocity":0.8031496062992126,"duration":0.21484375},{"name":"E4","midi":64,"time":770.4388020833317,"velocity":0.8031496062992126,"duration":0.21484375},{"name":"A4","midi":69,"time":770.658854166665,"velocity":0.8031496062992126,"duration":0.21484375},{"name":"F3","midi":53,"time":770.8763020833317,"velocity":0.8031496062992126,"duration":0.6536458333333712},{"name":"D4","midi":62,"time":770.8763020833317,"velocity":0.8031496062992126,"duration":0.21484375},{"name":"B4","midi":71,"time":771.096354166665,"velocity":0.8031496062992126,"duration":0.21484375},{"name":"A4","midi":69,"time":771.3164062499984,"velocity":0.8031496062992126,"duration":0.21484375},{"name":"E3","midi":52,"time":771.533854166665,"velocity":0.8031496062992126,"duration":0.8723958333333712},{"name":"G#4","midi":68,"time":771.533854166665,"velocity":0.8031496062992126,"duration":0.21484375},{"name":"A4","midi":69,"time":771.7539062499984,"velocity":0.8031496062992126,"duration":0.21484375},{"name":"B4","midi":71,"time":771.9739583333318,"velocity":0.8031496062992126,"duration":0.21484375},{"name":"E4","midi":64,"time":772.1914062499984,"velocity":0.8031496062992126,"duration":0.21484375},{"name":"F#3","midi":54,"time":772.4114583333318,"velocity":0.8031496062992126,"duration":0.21484375},{"name":"E5","midi":76,"time":772.4114583333318,"velocity":0.8031496062992126,"duration":0.21484375},{"name":"G#3","midi":56,"time":772.6315104166652,"velocity":0.8031496062992126,"duration":0.21484375},{"name":"D5","midi":74,"time":772.6315104166652,"velocity":0.8031496062992126,"duration":0.21484375},{"name":"A3","midi":57,"time":772.8489583333318,"velocity":0.8031496062992126,"duration":0.21484375},{"name":"C5","midi":72,"time":772.8489583333318,"velocity":0.8031496062992126,"duration":0.21484375},{"name":"B3","midi":59,"time":773.0690104166652,"velocity":0.8031496062992126,"duration":0.21484375},{"name":"D5","midi":74,"time":773.0690104166652,"velocity":0.8031496062992126,"duration":0.21484375},{"name":"C4","midi":60,"time":773.2890624999985,"velocity":0.8031496062992126,"duration":0.21484375},{"name":"E5","midi":76,"time":773.2890624999985,"velocity":0.8031496062992126,"duration":0.21484375},{"name":"F3","midi":53,"time":773.5065104166652,"velocity":0.8031496062992126,"duration":0.21484375},{"name":"A4","midi":69,"time":773.5065104166652,"velocity":0.8031496062992126,"duration":0.21484375},{"name":"G3","midi":55,"time":773.7265624999985,"velocity":0.8031496062992126,"duration":0.21484375},{"name":"F5","midi":77,"time":773.7265624999985,"velocity":0.8031496062992126,"duration":0.21484375},{"name":"A3","midi":57,"time":773.9466145833319,"velocity":0.8031496062992126,"duration":0.21484375},{"name":"E5","midi":76,"time":773.9466145833319,"velocity":0.8031496062992126,"duration":0.21484375},{"name":"B3","midi":59,"time":774.1640624999985,"velocity":0.8031496062992126,"duration":0.21484375},{"name":"D5","midi":74,"time":774.1640624999985,"velocity":0.8031496062992126,"duration":0.21484375},{"name":"C4","midi":60,"time":774.3841145833319,"velocity":0.8031496062992126,"duration":0.21484375},{"name":"E5","midi":76,"time":774.3841145833319,"velocity":0.8031496062992126,"duration":0.21484375},{"name":"D4","midi":62,"time":774.6041666666653,"velocity":0.8031496062992126,"duration":0.21484375},{"name":"F5","midi":77,"time":774.6041666666653,"velocity":0.8031496062992126,"duration":0.21484375},{"name":"G3","midi":55,"time":774.8216145833319,"velocity":0.8031496062992126,"duration":0.21484375},{"name":"B4","midi":71,"time":774.8216145833319,"velocity":0.8031496062992126,"duration":0.21484375},{"name":"A3","midi":57,"time":775.0416666666653,"velocity":0.8031496062992126,"duration":0.21484375},{"name":"G5","midi":79,"time":775.0416666666653,"velocity":0.8031496062992126,"duration":0.21484375},{"name":"B3","midi":59,"time":775.2617187499986,"velocity":0.8031496062992126,"duration":0.21484375},{"name":"F5","midi":77,"time":775.2617187499986,"velocity":0.8031496062992126,"duration":0.21484375},{"name":"C4","midi":60,"time":775.4791666666653,"velocity":0.8031496062992126,"duration":0.21484375},{"name":"E5","midi":76,"time":775.4791666666653,"velocity":0.8031496062992126,"duration":0.21484375},{"name":"D4","midi":62,"time":775.6992187499986,"velocity":0.8031496062992126,"duration":0.21484375},{"name":"F5","midi":77,"time":775.6992187499986,"velocity":0.8031496062992126,"duration":0.21484375},{"name":"E4","midi":64,"time":775.919270833332,"velocity":0.8031496062992126,"duration":0.21484375},{"name":"G5","midi":79,"time":775.919270833332,"velocity":0.8031496062992126,"duration":0.21484375},{"name":"F4","midi":65,"time":776.1367187499986,"velocity":0.8031496062992126,"duration":0.10546875},{"name":"A5","midi":81,"time":776.1367187499986,"velocity":0.8031496062992126,"duration":0.10546875},{"name":"E4","midi":64,"time":776.247395833332,"velocity":0.8031496062992126,"duration":0.10546875},{"name":"G5","midi":79,"time":776.247395833332,"velocity":0.8031496062992126,"duration":0.10546875},{"name":"D4","midi":62,"time":776.356770833332,"velocity":0.8031496062992126,"duration":0.21484375},{"name":"F5","midi":77,"time":776.356770833332,"velocity":0.8031496062992126,"duration":0.21484375},{"name":"E4","midi":64,"time":776.5768229166654,"velocity":0.8031496062992126,"duration":0.21484375},{"name":"G5","midi":79,"time":776.5768229166654,"velocity":0.8031496062992126,"duration":0.21484375},{"name":"F4","midi":65,"time":776.794270833332,"velocity":0.8031496062992126,"duration":0.21484375},{"name":"A5","midi":81,"time":776.794270833332,"velocity":0.8031496062992126,"duration":0.21484375},{"name":"F3","midi":53,"time":777.0143229166654,"velocity":0.8031496062992126,"duration":0.21484375},{"name":"A4","midi":69,"time":777.0143229166654,"velocity":0.8031496062992126,"duration":0.21484375},{"name":"G3","midi":55,"time":777.2343749999987,"velocity":0.8031496062992126,"duration":0.21484375},{"name":"B4","midi":71,"time":777.2343749999987,"velocity":0.8031496062992126,"duration":0.21484375},{"name":"A3","midi":57,"time":777.4518229166654,"velocity":0.8031496062992126,"duration":0.21484375},{"name":"C5","midi":72,"time":777.4518229166654,"velocity":0.8031496062992126,"duration":0.21484375},{"name":"B3","midi":59,"time":777.6718749999987,"velocity":0.8031496062992126,"duration":0.21484375},{"name":"D5","midi":74,"time":777.6718749999987,"velocity":0.8031496062992126,"duration":0.21484375},{"name":"C4","midi":60,"time":777.8919270833321,"velocity":0.8031496062992126,"duration":0.21484375},{"name":"E5","midi":76,"time":777.8919270833321,"velocity":0.8031496062992126,"duration":0.21484375},{"name":"D4","midi":62,"time":778.1093749999987,"velocity":0.8031496062992126,"duration":0.21484375},{"name":"F5","midi":77,"time":778.1093749999987,"velocity":0.8031496062992126,"duration":0.21484375},{"name":"E4","midi":64,"time":778.3294270833321,"velocity":0.8031496062992126,"duration":0.21484375},{"name":"G5","midi":79,"time":778.3294270833321,"velocity":0.8031496062992126,"duration":0.21484375},{"name":"F4","midi":65,"time":778.5494791666655,"velocity":0.8031496062992126,"duration":0.21484375},{"name":"A5","midi":81,"time":778.5494791666655,"velocity":0.8031496062992126,"duration":0.21484375},{"name":"G4","midi":67,"time":778.7669270833321,"velocity":0.8031496062992126,"duration":0.10546875},{"name":"B5","midi":83,"time":778.7669270833321,"velocity":0.8031496062992126,"duration":0.10546875},{"name":"F4","midi":65,"time":778.8776041666655,"velocity":0.8031496062992126,"duration":0.10546875},{"name":"A5","midi":81,"time":778.8776041666655,"velocity":0.8031496062992126,"duration":0.10546875},{"name":"E4","midi":64,"time":778.9869791666655,"velocity":0.8031496062992126,"duration":0.21484375},{"name":"G5","midi":79,"time":778.9869791666655,"velocity":0.8031496062992126,"duration":0.21484375},{"name":"F4","midi":65,"time":779.2070312499989,"velocity":0.8031496062992126,"duration":0.21484375},{"name":"A5","midi":81,"time":779.2070312499989,"velocity":0.8031496062992126,"duration":0.21484375},{"name":"G4","midi":67,"time":779.4244791666655,"velocity":0.8031496062992126,"duration":0.21484375},{"name":"B5","midi":83,"time":779.4244791666655,"velocity":0.8031496062992126,"duration":0.21484375},{"name":"G3","midi":55,"time":779.6445312499989,"velocity":0.8031496062992126,"duration":0.21484375},{"name":"B4","midi":71,"time":779.6445312499989,"velocity":0.8031496062992126,"duration":0.21484375},{"name":"A3","midi":57,"time":779.8645833333322,"velocity":0.8031496062992126,"duration":0.21484375},{"name":"C5","midi":72,"time":779.8645833333322,"velocity":0.8031496062992126,"duration":0.21484375},{"name":"B3","midi":59,"time":780.0820312499989,"velocity":0.8031496062992126,"duration":0.21484375},{"name":"D5","midi":74,"time":780.0820312499989,"velocity":0.8031496062992126,"duration":0.21484375},{"name":"C4","midi":60,"time":780.3020833333322,"velocity":0.8031496062992126,"duration":0.21484375},{"name":"E5","midi":76,"time":780.3020833333322,"velocity":0.8031496062992126,"duration":0.21484375},{"name":"D4","midi":62,"time":780.5221354166656,"velocity":0.8031496062992126,"duration":0.21484375},{"name":"F5","midi":77,"time":780.5221354166656,"velocity":0.8031496062992126,"duration":0.21484375},{"name":"E4","midi":64,"time":780.7395833333322,"velocity":0.8031496062992126,"duration":0.21484375},{"name":"G5","midi":79,"time":780.7395833333322,"velocity":0.8031496062992126,"duration":0.21484375},{"name":"F4","midi":65,"time":780.9596354166656,"velocity":0.8031496062992126,"duration":0.21484375},{"name":"A5","midi":81,"time":780.9596354166656,"velocity":0.8031496062992126,"duration":0.21484375},{"name":"G4","midi":67,"time":781.179687499999,"velocity":0.8031496062992126,"duration":0.21484375},{"name":"B5","midi":83,"time":781.179687499999,"velocity":0.8031496062992126,"duration":0.21484375},{"name":"A4","midi":69,"time":781.3971354166656,"velocity":0.8031496062992126,"duration":0.10546875},{"name":"C6","midi":84,"time":781.3971354166656,"velocity":0.8031496062992126,"duration":0.10546875},{"name":"G4","midi":67,"time":781.507812499999,"velocity":0.8031496062992126,"duration":0.10546875},{"name":"B5","midi":83,"time":781.507812499999,"velocity":0.8031496062992126,"duration":0.10546875},{"name":"F4","midi":65,"time":781.617187499999,"velocity":0.8031496062992126,"duration":0.21484375},{"name":"A5","midi":81,"time":781.617187499999,"velocity":0.8031496062992126,"duration":0.21484375},{"name":"G4","midi":67,"time":781.8372395833323,"velocity":0.8031496062992126,"duration":0.21484375},{"name":"B5","midi":83,"time":781.8372395833323,"velocity":0.8031496062992126,"duration":0.21484375},{"name":"A4","midi":69,"time":782.054687499999,"velocity":0.8031496062992126,"duration":0.21484375},{"name":"C6","midi":84,"time":782.054687499999,"velocity":0.8031496062992126,"duration":0.21484375},{"name":"A3","midi":57,"time":782.2747395833323,"velocity":0.8031496062992126,"duration":0.21484375},{"name":"C5","midi":72,"time":782.2747395833323,"velocity":0.8031496062992126,"duration":0.21484375},{"name":"B3","midi":59,"time":782.4947916666657,"velocity":0.8031496062992126,"duration":0.21484375},{"name":"D5","midi":74,"time":782.4947916666657,"velocity":0.8031496062992126,"duration":0.21484375},{"name":"C4","midi":60,"time":782.7122395833323,"velocity":0.8031496062992126,"duration":0.21484375},{"name":"E5","midi":76,"time":782.7122395833323,"velocity":0.8031496062992126,"duration":0.21484375},{"name":"D4","midi":62,"time":782.9322916666657,"velocity":0.8031496062992126,"duration":0.21484375},{"name":"F5","midi":77,"time":782.9322916666657,"velocity":0.8031496062992126,"duration":0.21484375},{"name":"E4","midi":64,"time":783.1523437499991,"velocity":0.8031496062992126,"duration":0.21484375},{"name":"G5","midi":79,"time":783.1523437499991,"velocity":0.8031496062992126,"duration":0.21484375},{"name":"F4","midi":65,"time":783.3697916666657,"velocity":0.8031496062992126,"duration":0.21484375},{"name":"A5","midi":81,"time":783.3697916666657,"velocity":0.8031496062992126,"duration":0.21484375},{"name":"G3","midi":55,"time":783.5898437499991,"velocity":0.8031496062992126,"duration":0.21484375},{"name":"B4","midi":71,"time":783.5898437499991,"velocity":0.8031496062992126,"duration":0.21484375},{"name":"A3","midi":57,"time":783.8098958333325,"velocity":0.8031496062992126,"duration":0.21484375},{"name":"C5","midi":72,"time":783.8098958333325,"velocity":0.8031496062992126,"duration":0.21484375},{"name":"B3","midi":59,"time":784.0273437499991,"velocity":0.8031496062992126,"duration":0.21484375},{"name":"D5","midi":74,"time":784.0273437499991,"velocity":0.8031496062992126,"duration":0.21484375},{"name":"C4","midi":60,"time":784.2473958333325,"velocity":0.8031496062992126,"duration":0.21484375},{"name":"E5","midi":76,"time":784.2473958333325,"velocity":0.8031496062992126,"duration":0.21484375},{"name":"D4","midi":62,"time":784.4674479166658,"velocity":0.8031496062992126,"duration":0.21484375},{"name":"F5","midi":77,"time":784.4674479166658,"velocity":0.8031496062992126,"duration":0.21484375},{"name":"E4","midi":64,"time":784.6848958333325,"velocity":0.8031496062992126,"duration":0.21484375},{"name":"G5","midi":79,"time":784.6848958333325,"velocity":0.8031496062992126,"duration":0.21484375},{"name":"F3","midi":53,"time":784.9049479166658,"velocity":0.8031496062992126,"duration":0.21484375},{"name":"A4","midi":69,"time":784.9049479166658,"velocity":0.8031496062992126,"duration":0.21484375},{"name":"G3","midi":55,"time":785.1249999999992,"velocity":0.8031496062992126,"duration":0.21484375},{"name":"B4","midi":71,"time":785.1249999999992,"velocity":0.8031496062992126,"duration":0.21484375},{"name":"A3","midi":57,"time":785.3424479166658,"velocity":0.8031496062992126,"duration":0.21484375},{"name":"C5","midi":72,"time":785.3424479166658,"velocity":0.8031496062992126,"duration":0.21484375},{"name":"B3","midi":59,"time":785.5624999999992,"velocity":0.8031496062992126,"duration":0.21484375},{"name":"D5","midi":74,"time":785.5624999999992,"velocity":0.8031496062992126,"duration":0.21484375},{"name":"C4","midi":60,"time":785.7825520833326,"velocity":0.8031496062992126,"duration":0.21484375},{"name":"E5","midi":76,"time":785.7825520833326,"velocity":0.8031496062992126,"duration":0.21484375},{"name":"D4","midi":62,"time":785.9999999999992,"velocity":0.8031496062992126,"duration":0.21484375},{"name":"F5","midi":77,"time":785.9999999999992,"velocity":0.8031496062992126,"duration":0.21484375},{"name":"E4","midi":64,"time":786.2200520833326,"velocity":0.8031496062992126,"duration":0.21484375},{"name":"G5","midi":79,"time":786.2200520833326,"velocity":0.8031496062992126,"duration":0.21484375},{"name":"F4","midi":65,"time":786.440104166666,"velocity":0.8031496062992126,"duration":0.21484375},{"name":"A5","midi":81,"time":786.440104166666,"velocity":0.8031496062992126,"duration":0.21484375},{"name":"B3","midi":59,"time":786.6575520833326,"velocity":0.8031496062992126,"duration":0.21484375},{"name":"D5","midi":74,"time":786.6575520833326,"velocity":0.8031496062992126,"duration":0.21484375},{"name":"C4","midi":60,"time":786.877604166666,"velocity":0.8031496062992126,"duration":0.21484375},{"name":"E5","midi":76,"time":786.877604166666,"velocity":0.8031496062992126,"duration":0.21484375},{"name":"D4","midi":62,"time":787.0976562499993,"velocity":0.8031496062992126,"duration":0.21484375},{"name":"F5","midi":77,"time":787.0976562499993,"velocity":0.8031496062992126,"duration":0.21484375},{"name":"G3","midi":55,"time":787.315104166666,"velocity":0.8031496062992126,"duration":0.875},{"name":"B4","midi":71,"time":787.315104166666,"velocity":0.8031496062992126,"duration":0.21484375},{"name":"C5","midi":72,"time":787.5351562499993,"velocity":0.8031496062992126,"duration":0.21484375},{"name":"D5","midi":74,"time":787.7552083333327,"velocity":0.8031496062992126,"duration":0.21484375},{"name":"G4","midi":67,"time":787.9726562499993,"velocity":0.8031496062992126,"duration":0.21484375},{"name":"A4","midi":69,"time":788.194010416666,"velocity":0.8031496062992126,"duration":0.21484375},{"name":"F4","midi":65,"time":788.4140624999993,"velocity":0.8031496062992126,"duration":0.21484375},{"name":"B4","midi":71,"time":788.4140624999993,"velocity":0.8031496062992126,"duration":0.21484375},{"name":"E4","midi":64,"time":788.631510416666,"velocity":0.8031496062992126,"duration":0.21484375},{"name":"C5","midi":72,"time":788.631510416666,"velocity":0.8031496062992126,"duration":0.43489583333337123},{"name":"F4","midi":65,"time":788.8515624999993,"velocity":0.8031496062992126,"duration":0.21484375},{"name":"G4","midi":67,"time":789.0716145833327,"velocity":0.8031496062992126,"duration":0.21484375},{"name":"C5","midi":72,"time":789.0716145833327,"velocity":0.8031496062992126,"duration":0.21484375},{"name":"C4","midi":60,"time":789.2890624999993,"velocity":0.8031496062992126,"duration":0.21484375},{"name":"C5","midi":72,"time":789.2890624999993,"velocity":0.8031496062992126,"duration":0.21484375},{"name":"D4","midi":62,"time":789.5091145833327,"velocity":0.8031496062992126,"duration":0.21484375},{"name":"B4","midi":71,"time":789.5091145833327,"velocity":0.8031496062992126,"duration":0.21484375},{"name":"E4","midi":64,"time":789.7291666666661,"velocity":0.8031496062992126,"duration":0.21484375},{"name":"C5","midi":72,"time":789.7291666666661,"velocity":0.8031496062992126,"duration":0.21484375},{"name":"B3","midi":59,"time":789.9466145833327,"velocity":0.8031496062992126,"duration":0.21484375},{"name":"D5","midi":74,"time":789.9466145833327,"velocity":0.8031496062992126,"duration":0.21484375},{"name":"C4","midi":60,"time":790.1666666666661,"velocity":0.8031496062992126,"duration":0.21484375},{"name":"F4","midi":65,"time":790.1666666666661,"velocity":0.8031496062992126,"duration":0.21484375},{"name":"D4","midi":62,"time":790.3867187499994,"velocity":0.8031496062992126,"duration":0.21484375},{"name":"D5","midi":74,"time":790.3867187499994,"velocity":0.8031496062992126,"duration":0.21484375},{"name":"G3","midi":55,"time":790.6041666666661,"velocity":0.8031496062992126,"duration":0.21484375},{"name":"E4","midi":64,"time":790.6041666666661,"velocity":0.8031496062992126,"duration":0.21484375},{"name":"A3","midi":57,"time":790.8242187499994,"velocity":0.8031496062992126,"duration":0.21484375},{"name":"F4","midi":65,"time":790.8242187499994,"velocity":0.8031496062992126,"duration":0.21484375},{"name":"B3","midi":59,"time":791.0442708333328,"velocity":0.8031496062992126,"duration":0.21484375},{"name":"D4","midi":62,"time":791.0442708333328,"velocity":0.8031496062992126,"duration":0.21484375},{"name":"E3","midi":52,"time":791.2617187499994,"velocity":0.8031496062992126,"duration":0.21484375},{"name":"C4","midi":60,"time":791.2617187499994,"velocity":0.8031496062992126,"duration":0.21484375},{"name":"F3","midi":53,"time":791.4817708333328,"velocity":0.8031496062992126,"duration":0.21484375},{"name":"E4","midi":64,"time":791.4817708333328,"velocity":0.8031496062992126,"duration":0.21484375},{"name":"G3","midi":55,"time":791.7018229166662,"velocity":0.8031496062992126,"duration":0.21484375},{"name":"G4","midi":67,"time":791.7018229166662,"velocity":0.8031496062992126,"duration":0.21484375},{"name":"C3","midi":48,"time":791.9192708333328,"velocity":0.8031496062992126,"duration":0.21484375},{"name":"E4","midi":64,"time":791.9192708333328,"velocity":0.8031496062992126,"duration":0.21484375},{"name":"D3","midi":50,"time":792.1393229166662,"velocity":0.8031496062992126,"duration":0.21484375},{"name":"G4","midi":67,"time":792.1393229166662,"velocity":0.8031496062992126,"duration":0.21484375},{"name":"E3","midi":52,"time":792.3593749999995,"velocity":0.8031496062992126,"duration":0.21484375},{"name":"C5","midi":72,"time":792.3593749999995,"velocity":0.8031496062992126,"duration":0.21484375},{"name":"B2","midi":47,"time":792.5768229166662,"velocity":0.8031496062992126,"duration":0.21484375},{"name":"G4","midi":67,"time":792.5768229166662,"velocity":0.8031496062992126,"duration":0.21484375},{"name":"C3","midi":48,"time":792.7968749999995,"velocity":0.8031496062992126,"duration":0.21484375},{"name":"B4","midi":71,"time":792.7968749999995,"velocity":0.8031496062992126,"duration":0.21484375},{"name":"D3","midi":50,"time":793.0169270833329,"velocity":0.8031496062992126,"duration":0.21484375},{"name":"D5","midi":74,"time":793.0169270833329,"velocity":0.8031496062992126,"duration":0.21484375},{"name":"G2","midi":43,"time":793.2343749999995,"velocity":0.8031496062992126,"duration":0.21484375},{"name":"B4","midi":71,"time":793.2343749999995,"velocity":0.8031496062992126,"duration":0.21484375},{"name":"A2","midi":45,"time":793.4544270833329,"velocity":0.8031496062992126,"duration":0.21484375},{"name":"D5","midi":74,"time":793.4544270833329,"velocity":0.8031496062992126,"duration":0.21484375},{"name":"B2","midi":47,"time":793.6744791666663,"velocity":0.8031496062992126,"duration":0.21484375},{"name":"G5","midi":79,"time":793.6744791666663,"velocity":0.8031496062992126,"duration":0.21484375},{"name":"E2","midi":40,"time":793.8919270833329,"velocity":0.8031496062992126,"duration":0.6575520833333712},{"name":"G5","midi":79,"time":793.8919270833329,"velocity":0.8031496062992126,"duration":0.21484375},{"name":"E5","midi":76,"time":794.1119791666663,"velocity":0.8031496062992126,"duration":0.21484375},{"name":"C5","midi":72,"time":794.3320312499997,"velocity":0.8031496062992126,"duration":0.21484375},{"name":"A#4","midi":70,"time":794.5520833333329,"velocity":0.8031496062992126,"duration":0.21484375},{"name":"A4","midi":69,"time":794.7721354166663,"velocity":0.8031496062992126,"duration":0.21484375},{"name":"E3","midi":52,"time":794.9908854166663,"velocity":0.8031496062992126,"duration":0.21484375},{"name":"G4","midi":67,"time":794.9908854166663,"velocity":0.8031496062992126,"duration":0.21484375},{"name":"F3","midi":53,"time":795.2096354166663,"velocity":0.8031496062992126,"duration":0.2148437499998863},{"name":"A4","midi":69,"time":795.2096354166663,"velocity":0.8031496062992126,"duration":0.10416666666662877},{"name":"G4","midi":67,"time":795.3138020833329,"velocity":0.8031496062992126,"duration":0.10416666666662877},{"name":"A4","midi":69,"time":795.4179687499995,"velocity":0.8031496062992126,"duration":0.49479166666674246},{"name":"G3","midi":55,"time":795.4296874999995,"velocity":0.8031496062992126,"duration":0.21484375},{"name":"A3","midi":57,"time":795.6484374999995,"velocity":0.8031496062992126,"duration":0.21484375},{"name":"A3","midi":57,"time":795.8684895833329,"velocity":0.8031496062992126,"duration":0.21484375},{"name":"B3","midi":59,"time":796.0885416666663,"velocity":0.8031496062992126,"duration":0.21484375},{"name":"C4","midi":60,"time":796.3072916666663,"velocity":0.8031496062992126,"duration":0.21484375},{"name":"A4","midi":69,"time":796.3072916666663,"velocity":0.8031496062992126,"duration":0.21484375},{"name":"D2","midi":38,"time":796.5260416666663,"velocity":0.8031496062992126,"duration":0.6575520833333712},{"name":"F5","midi":77,"time":796.5260416666663,"velocity":0.8031496062992126,"duration":0.21484375},{"name":"D5","midi":74,"time":796.7460937499997,"velocity":0.8031496062992126,"duration":0.21484375},{"name":"B4","midi":71,"time":796.9648437499997,"velocity":0.8031496062992126,"duration":0.21484375},{"name":"A4","midi":69,"time":797.1861979166663,"velocity":0.8031496062992126,"duration":0.21484375},{"name":"G4","midi":67,"time":797.4062499999997,"velocity":0.8031496062992126,"duration":0.21484375},{"name":"D3","midi":50,"time":797.6249999999997,"velocity":0.8031496062992126,"duration":0.21484375},{"name":"F4","midi":65,"time":797.6249999999997,"velocity":0.8031496062992126,"duration":0.21484375},{"name":"E3","midi":52,"time":797.8437499999997,"velocity":0.8031496062992126,"duration":0.21484375},{"name":"G4","midi":67,"time":797.8437499999997,"velocity":0.8031496062992126,"duration":0.10416666666662877},{"name":"F4","midi":65,"time":797.9479166666663,"velocity":0.8031496062992126,"duration":0.10416666666662877},{"name":"G4","midi":67,"time":798.0533854166663,"velocity":0.8031496062992126,"duration":0.49479166666674246},{"name":"F3","midi":53,"time":798.063802083333,"velocity":0.8031496062992126,"duration":0.21484375},{"name":"G3","midi":55,"time":798.282552083333,"velocity":0.8031496062992126,"duration":0.21484375},{"name":"G3","midi":55,"time":798.5026041666664,"velocity":0.8031496062992126,"duration":0.21484375},{"name":"A3","midi":57,"time":798.7213541666664,"velocity":0.8031496062992126,"duration":0.21484375},{"name":"B3","midi":59,"time":798.9414062499998,"velocity":0.8031496062992126,"duration":0.21484375},{"name":"G4","midi":67,"time":798.9414062499998,"velocity":0.8031496062992126,"duration":0.21484375},{"name":"C2","midi":36,"time":799.1601562499998,"velocity":0.8031496062992126,"duration":0.6536458333333712},{"name":"E5","midi":76,"time":799.1601562499998,"velocity":0.8031496062992126,"duration":0.21484375},{"name":"C5","midi":72,"time":799.3789062499998,"velocity":0.8031496062992126,"duration":0.21484375},{"name":"A4","midi":69,"time":799.5989583333331,"velocity":0.8031496062992126,"duration":0.21484375},{"name":"C3","midi":48,"time":799.8177083333331,"velocity":0.8031496062992126,"duration":1.3111979166667425},{"name":"G4","midi":67,"time":799.8177083333331,"velocity":0.8031496062992126,"duration":0.21484375},{"name":"F4","midi":65,"time":800.0364583333331,"velocity":0.8031496062992126,"duration":0.21484375},{"name":"E4","midi":64,"time":800.2565104166665,"velocity":0.8031496062992126,"duration":0.21484375},{"name":"D5","midi":74,"time":800.4752604166665,"velocity":0.8031496062992126,"duration":0.21484375},{"name":"B4","midi":71,"time":800.6940104166665,"velocity":0.8031496062992126,"duration":0.21484375},{"name":"G4","midi":67,"time":800.9140624999999,"velocity":0.8031496062992126,"duration":0.21484375},{"name":"B2","midi":47,"time":801.1328124999999,"velocity":0.8031496062992126,"duration":0.6536458333333712},{"name":"F4","midi":65,"time":801.1328124999999,"velocity":0.8031496062992126,"duration":0.21484375},{"name":"E4","midi":64,"time":801.3515624999999,"velocity":0.8031496062992126,"duration":0.21484375},{"name":"D4","midi":62,"time":801.5716145833333,"velocity":0.8031496062992126,"duration":0.21484375},{"name":"C3","midi":48,"time":801.7903645833333,"velocity":0.8031496062992126,"duration":0.6536458333333712},{"name":"E4","midi":64,"time":801.7903645833333,"velocity":0.8031496062992126,"duration":0.21484375},{"name":"G4","midi":67,"time":802.0091145833333,"velocity":0.8031496062992126,"duration":0.21484375},{"name":"C5","midi":72,"time":802.2291666666666,"velocity":0.8031496062992126,"duration":0.24739583333337123},{"name":"A2","midi":45,"time":802.4479166666666,"velocity":0.8031496062992126,"duration":0.6536458333333712},{"name":"F#4","midi":66,"time":802.4479166666666,"velocity":0.8031496062992126,"duration":0.21484375},{"name":"D5","midi":74,"time":802.6666666666666,"velocity":0.8031496062992126,"duration":0.21484375},{"name":"C5","midi":72,"time":802.88671875,"velocity":0.8031496062992126,"duration":0.21484375},{"name":"G2","midi":43,"time":803.10546875,"velocity":0.8031496062992126,"duration":0.8723958333333712},{"name":"B4","midi":71,"time":803.10546875,"velocity":0.8031496062992126,"duration":0.21484375},{"name":"C5","midi":72,"time":803.32421875,"velocity":0.8031496062992126,"duration":0.21484375},{"name":"D5","midi":74,"time":803.5442708333334,"velocity":0.8031496062992126,"duration":0.21484375},{"name":"G4","midi":67,"time":803.7630208333334,"velocity":0.8031496062992126,"duration":0.43489583333337123},{"name":"A2","midi":45,"time":803.9817708333334,"velocity":0.8031496062992126,"duration":0.21484375},{"name":"B2","midi":47,"time":804.2018229166667,"velocity":0.8031496062992126,"duration":0.21484375},{"name":"D5","midi":74,"time":804.2018229166667,"velocity":0.8031496062992126,"duration":0.21484375},{"name":"C3","midi":48,"time":804.4205729166667,"velocity":0.8031496062992126,"duration":0.21484375},{"name":"E5","midi":76,"time":804.4205729166667,"velocity":0.8031496062992126,"duration":0.21484375},{"name":"D3","midi":50,"time":804.6393229166667,"velocity":0.8031496062992126,"duration":0.21484375},{"name":"F5","midi":77,"time":804.6393229166667,"velocity":0.8031496062992126,"duration":0.21484375},{"name":"E3","midi":52,"time":804.8593750000001,"velocity":0.8031496062992126,"duration":0.21484375},{"name":"G5","midi":79,"time":804.8593750000001,"velocity":0.8031496062992126,"duration":0.21484375},{"name":"B2","midi":47,"time":805.0781250000001,"velocity":0.8031496062992126,"duration":0.21484375},{"name":"G4","midi":67,"time":805.0781250000001,"velocity":0.8031496062992126,"duration":0.21484375},{"name":"C3","midi":48,"time":805.2968750000001,"velocity":0.8031496062992126,"duration":0.21484375},{"name":"A4","midi":69,"time":805.2968750000001,"velocity":0.8031496062992126,"duration":0.21484375},{"name":"D3","midi":50,"time":805.5169270833335,"velocity":0.8031496062992126,"duration":0.21484375},{"name":"B4","midi":71,"time":805.5169270833335,"velocity":0.8031496062992126,"duration":0.21484375},{"name":"E3","midi":52,"time":805.7356770833335,"velocity":0.8031496062992126,"duration":0.21484375},{"name":"C5","midi":72,"time":805.7356770833335,"velocity":0.8031496062992126,"duration":0.21484375},{"name":"F3","midi":53,"time":805.9544270833335,"velocity":0.8031496062992126,"duration":0.21484375},{"name":"D5","midi":74,"time":805.9544270833335,"velocity":0.8031496062992126,"duration":0.21484375},{"name":"G3","midi":55,"time":806.1744791666669,"velocity":0.8031496062992126,"duration":0.21484375},{"name":"E5","midi":76,"time":806.1744791666669,"velocity":0.8031496062992126,"duration":0.21484375},{"name":"G3","midi":55,"time":806.3932291666669,"velocity":0.8031496062992126,"duration":0.21484375},{"name":"B4","midi":71,"time":806.3932291666669,"velocity":0.8031496062992126,"duration":0.21484375},{"name":"A3","midi":57,"time":806.6119791666669,"velocity":0.8031496062992126,"duration":0.21484375},{"name":"C5","midi":72,"time":806.6119791666669,"velocity":0.8031496062992126,"duration":0.21484375},{"name":"B3","midi":59,"time":806.8320312500002,"velocity":0.8031496062992126,"duration":0.21484375},{"name":"D5","midi":74,"time":806.8320312500002,"velocity":0.8031496062992126,"duration":0.21484375},{"name":"C4","midi":60,"time":807.0507812500002,"velocity":0.8031496062992126,"duration":0.21484375},{"name":"E5","midi":76,"time":807.0507812500002,"velocity":0.8031496062992126,"duration":0.21484375},{"name":"D4","midi":62,"time":807.2695312500002,"velocity":0.8031496062992126,"duration":0.21484375},{"name":"F5","midi":77,"time":807.2695312500002,"velocity":0.8031496062992126,"duration":0.21484375},{"name":"E4","midi":64,"time":807.4895833333336,"velocity":0.8031496062992126,"duration":0.21484375},{"name":"G5","midi":79,"time":807.4895833333336,"velocity":0.8031496062992126,"duration":0.21484375},{"name":"B3","midi":59,"time":807.7083333333336,"velocity":0.8031496062992126,"duration":0.21484375},{"name":"G4","midi":67,"time":807.7083333333336,"velocity":0.8031496062992126,"duration":0.21484375},{"name":"C4","midi":60,"time":807.9270833333336,"velocity":0.8031496062992126,"duration":0.21484375},{"name":"A4","midi":69,"time":807.9270833333336,"velocity":0.8031496062992126,"duration":0.21484375},{"name":"D4","midi":62,"time":808.147135416667,"velocity":0.8031496062992126,"duration":0.21484375},{"name":"B4","midi":71,"time":808.147135416667,"velocity":0.8031496062992126,"duration":0.21484375},{"name":"E4","midi":64,"time":808.365885416667,"velocity":0.8031496062992126,"duration":0.21484375},{"name":"C5","midi":72,"time":808.365885416667,"velocity":0.8031496062992126,"duration":0.21484375},{"name":"F4","midi":65,"time":808.584635416667,"velocity":0.8031496062992126,"duration":0.21484375},{"name":"D5","midi":74,"time":808.584635416667,"velocity":0.8031496062992126,"duration":0.21484375},{"name":"G4","midi":67,"time":808.8046875000003,"velocity":0.8031496062992126,"duration":0.21484375},{"name":"E5","midi":76,"time":808.8046875000003,"velocity":0.8031496062992126,"duration":0.21484375},{"name":"G4","midi":67,"time":809.0234375000003,"velocity":0.8031496062992126,"duration":0.21484375},{"name":"B4","midi":71,"time":809.0234375000003,"velocity":0.8031496062992126,"duration":0.21484375},{"name":"A4","midi":69,"time":809.2421875000003,"velocity":0.8031496062992126,"duration":0.21484375},{"name":"C5","midi":72,"time":809.2421875000003,"velocity":0.8031496062992126,"duration":0.21484375},{"name":"B4","midi":71,"time":809.4622395833337,"velocity":0.8031496062992126,"duration":0.21484375},{"name":"D5","midi":74,"time":809.4622395833337,"velocity":0.8031496062992126,"duration":0.21484375},{"name":"C5","midi":72,"time":809.6809895833337,"velocity":0.8031496062992126,"duration":0.43489583333337123},{"name":"E5","midi":76,"time":809.6809895833337,"velocity":0.8031496062992126,"duration":0.21484375},{"name":"F5","midi":77,"time":809.8997395833337,"velocity":0.8031496062992126,"duration":0.21484375},{"name":"F4","midi":65,"time":810.1197916666671,"velocity":0.8031496062992126,"duration":0.21484375},{"name":"G5","midi":79,"time":810.1197916666671,"velocity":0.8031496062992126,"duration":0.21484375},{"name":"G4","midi":67,"time":810.3385416666671,"velocity":0.8031496062992126,"duration":0.43489583333337123},{"name":"F5","midi":77,"time":810.3385416666671,"velocity":0.8031496062992126,"duration":0.10546875},{"name":"E5","midi":76,"time":810.4479166666671,"velocity":0.8031496062992126,"duration":0.10546875},{"name":"D5","midi":74,"time":810.5572916666671,"velocity":0.8031496062992126,"duration":0.21484375},{"name":"G3","midi":55,"time":810.7773437500005,"velocity":0.8031496062992126,"duration":0.21484375},{"name":"C5","midi":72,"time":810.7773437500005,"velocity":0.8031496062992126,"duration":0.21484375},{"name":"C3","midi":48,"time":810.9960937500005,"velocity":0.8031496062992126,"duration":0.8723958333333712},{"name":"C5","midi":72,"time":810.9960937500005,"velocity":0.8031496062992126,"duration":0.21484375},{"name":"G4","midi":67,"time":811.2148437500005,"velocity":0.8031496062992126,"duration":0.21484375},{"name":"E4","midi":64,"time":811.4348958333338,"velocity":0.8031496062992126,"duration":0.21484375},{"name":"C4","midi":60,"time":811.6536458333338,"velocity":0.8031496062992126,"duration":0.43489583333337123},{"name":"G2","midi":43,"time":811.8723958333338,"velocity":0.8031496062992126,"duration":0.21484375},{"name":"E2","midi":40,"time":812.0924479166672,"velocity":0.8031496062992126,"duration":0.21484375},{"name":"G4","midi":67,"time":812.0924479166672,"velocity":0.8031496062992126,"duration":0.21484375},{"name":"C2","midi":36,"time":812.3111979166672,"velocity":0.8031496062992126,"duration":0.65234375},{"name":"C5","midi":72,"time":812.3111979166672,"velocity":0.8031496062992126,"duration":0.43359375},{"name":"C5","midi":72,"time":812.7486979166672,"velocity":0.8031496062992126,"duration":0.21484375},{"name":"C3","midi":48,"time":812.9674479166672,"velocity":0.8031496062992126,"duration":1.3111979166667425},{"name":"C5","midi":72,"time":812.9674479166672,"velocity":0.8031496062992126,"duration":0.21484375},{"name":"D5","midi":74,"time":813.1875000000006,"velocity":0.8031496062992126,"duration":0.21484375},{"name":"E5","midi":76,"time":813.4062500000006,"velocity":0.8031496062992126,"duration":0.21484375},{"name":"D5","midi":74,"time":813.6250000000006,"velocity":0.8031496062992126,"duration":0.21484375},{"name":"F4","midi":65,"time":813.8450520833339,"velocity":0.8031496062992126,"duration":0.21484375},{"name":"D5","midi":74,"time":814.0638020833339,"velocity":0.8031496062992126,"duration":0.21484375},{"name":"B2","midi":47,"time":814.2825520833339,"velocity":0.8031496062992126,"duration":0.6536458333333712},{"name":"G4","midi":67,"time":814.2825520833339,"velocity":0.8031496062992126,"duration":0.21484375},{"name":"A4","midi":69,"time":814.5026041666673,"velocity":0.8031496062992126,"duration":0.21484375},{"name":"F4","midi":65,"time":814.7213541666673,"velocity":0.8031496062992126,"duration":0.21484375},{"name":"C3","midi":48,"time":814.9401041666673,"velocity":0.8031496062992126,"duration":0.6536458333333712},{"name":"E4","midi":64,"time":814.9401041666673,"velocity":0.8031496062992126,"duration":0.21484375},{"name":"C5","midi":72,"time":815.1601562500007,"velocity":0.8031496062992126,"duration":0.21484375},{"name":"E4","midi":64,"time":815.3789062500007,"velocity":0.8031496062992126,"duration":0.21484375},{"name":"F2","midi":41,"time":815.5976562500007,"velocity":0.8031496062992126,"duration":0.6536458333333712},{"name":"D4","midi":62,"time":815.5976562500007,"velocity":0.8031496062992126,"duration":0.21484375},{"name":"E4","midi":64,"time":815.817708333334,"velocity":0.8031496062992126,"duration":0.21484375},{"name":"C4","midi":60,"time":816.036458333334,"velocity":0.8031496062992126,"duration":0.21484375},{"name":"G2","midi":43,"time":816.255208333334,"velocity":0.8031496062992126,"duration":0.8723958333333712},{"name":"B3","midi":59,"time":816.255208333334,"velocity":0.8031496062992126,"duration":0.21484375},{"name":"C4","midi":60,"time":816.4752604166674,"velocity":0.8031496062992126,"duration":0.21484375},{"name":"D4","midi":62,"time":816.6940104166674,"velocity":0.8031496062992126,"duration":0.21484375},{"name":"G3","midi":55,"time":816.9127604166674,"velocity":0.8031496062992126,"duration":0.43489583333337123},{"name":"A2","midi":45,"time":817.1328125000008,"velocity":0.8031496062992126,"duration":0.21484375},{"name":"B2","midi":47,"time":817.3515625000008,"velocity":0.8031496062992126,"duration":0.21484375},{"name":"D4","midi":62,"time":817.3515625000008,"velocity":0.8031496062992126,"duration":0.21484375},{"name":"C3","midi":48,"time":817.5703125000008,"velocity":0.8031496062992126,"duration":0.21484375},{"name":"E4","midi":64,"time":817.5703125000008,"velocity":0.8031496062992126,"duration":0.21484375},{"name":"D3","midi":50,"time":817.7903645833342,"velocity":0.8031496062992126,"duration":0.21484375},{"name":"F#4","midi":66,"time":817.7903645833342,"velocity":0.8031496062992126,"duration":0.21484375},{"name":"E3","midi":52,"time":818.0091145833342,"velocity":0.8031496062992126,"duration":0.21484375},{"name":"G4","midi":67,"time":818.0091145833342,"velocity":0.8031496062992126,"duration":0.21484375},{"name":"F#3","midi":54,"time":818.2278645833342,"velocity":0.8031496062992126,"duration":0.21484375},{"name":"A4","midi":69,"time":818.2278645833342,"velocity":0.8031496062992126,"duration":0.21484375},{"name":"G3","midi":55,"time":818.4479166666675,"velocity":0.8031496062992126,"duration":0.21484375},{"name":"B4","midi":71,"time":818.4479166666675,"velocity":0.8031496062992126,"duration":0.21484375},{"name":"A3","midi":57,"time":818.6666666666675,"velocity":0.8031496062992126,"duration":0.21484375},{"name":"C5","midi":72,"time":818.6666666666675,"velocity":0.8031496062992126,"duration":0.21484375},{"name":"B2","midi":47,"time":818.8854166666675,"velocity":0.8031496062992126,"duration":0.21484375},{"name":"D#4","midi":63,"time":818.8854166666675,"velocity":0.8031496062992126,"duration":0.43489583333337123},{"name":"B3","midi":59,"time":819.1054687500009,"velocity":0.8031496062992126,"duration":0.21484375},{"name":"A3","midi":57,"time":819.3242187500009,"velocity":0.8031496062992126,"duration":0.21484375},{"name":"C5","midi":72,"time":819.3242187500009,"velocity":0.8031496062992126,"duration":0.21484375},{"name":"G#3","midi":56,"time":819.5429687500009,"velocity":0.8031496062992126,"duration":0.21484375},{"name":"B4","midi":71,"time":819.5429687500009,"velocity":0.8031496062992126,"duration":0.5859375},{"name":"A3","midi":57,"time":819.7630208333343,"velocity":0.8031496062992126,"duration":0.21484375},{"name":"F#3","midi":54,"time":819.9817708333343,"velocity":0.8031496062992126,"duration":0.21484375},{"name":"G#3","midi":56,"time":820.2005208333343,"velocity":0.8031496062992126,"duration":0.21484375},{"name":"D4","midi":62,"time":820.2005208333343,"velocity":0.8031496062992126,"duration":0.21484375},{"name":"F#3","midi":54,"time":820.4205729166677,"velocity":0.8031496062992126,"duration":0.21484375},{"name":"E4","midi":64,"time":820.4205729166677,"velocity":0.8031496062992126,"duration":0.21484375},{"name":"E3","midi":52,"time":820.6393229166677,"velocity":0.8031496062992126,"duration":0.21484375},{"name":"F#4","midi":66,"time":820.6393229166677,"velocity":0.8031496062992126,"duration":0.21484375},{"name":"D3","midi":50,"time":820.8580729166677,"velocity":0.8031496062992126,"duration":0.21484375},{"name":"G#4","midi":68,"time":820.8580729166677,"velocity":0.8031496062992126,"duration":0.21484375},{"name":"C3","midi":48,"time":821.078125000001,"velocity":0.8031496062992126,"duration":0.21484375},{"name":"A4","midi":69,"time":821.078125000001,"velocity":0.8031496062992126,"duration":0.21484375},{"name":"B2","midi":47,"time":821.296875000001,"velocity":0.8031496062992126,"duration":0.21484375},{"name":"B4","midi":71,"time":821.296875000001,"velocity":0.8031496062992126,"duration":0.21484375},{"name":"A2","midi":45,"time":821.515625000001,"velocity":0.8031496062992126,"duration":0.21484375},{"name":"C#4","midi":61,"time":821.515625000001,"velocity":0.8031496062992126,"duration":0.43489583333337123},{"name":"A3","midi":57,"time":821.7356770833344,"velocity":0.8031496062992126,"duration":0.21484375},{"name":"G3","midi":55,"time":821.9544270833344,"velocity":0.8031496062992126,"duration":0.21484375},{"name":"B4","midi":71,"time":821.9544270833344,"velocity":0.8031496062992126,"duration":0.21484375},{"name":"F#3","midi":54,"time":822.1731770833344,"velocity":0.8031496062992126,"duration":0.21484375},{"name":"A4","midi":69,"time":822.1731770833344,"velocity":0.8031496062992126,"duration":0.5859375},{"name":"G3","midi":55,"time":822.3932291666678,"velocity":0.8031496062992126,"duration":0.21484375},{"name":"E3","midi":52,"time":822.6119791666678,"velocity":0.8031496062992126,"duration":0.21484375},{"name":"F#3","midi":54,"time":822.8307291666678,"velocity":0.8031496062992126,"duration":0.21484375},{"name":"C4","midi":60,"time":822.8307291666678,"velocity":0.8031496062992126,"duration":0.21484375},{"name":"E3","midi":52,"time":823.0507812500011,"velocity":0.8031496062992126,"duration":0.21484375},{"name":"D4","midi":62,"time":823.0507812500011,"velocity":0.8031496062992126,"duration":0.21484375},{"name":"D3","midi":50,"time":823.2695312500011,"velocity":0.8031496062992126,"duration":0.21484375},{"name":"E4","midi":64,"time":823.2695312500011,"velocity":0.8031496062992126,"duration":0.21484375},{"name":"C3","midi":48,"time":823.4882812500011,"velocity":0.8031496062992126,"duration":0.21484375},{"name":"F#4","midi":66,"time":823.4882812500011,"velocity":0.8031496062992126,"duration":0.21484375},{"name":"B2","midi":47,"time":823.7083333333345,"velocity":0.8031496062992126,"duration":0.21484375},{"name":"G4","midi":67,"time":823.7083333333345,"velocity":0.8031496062992126,"duration":0.21484375},{"name":"A2","midi":45,"time":823.9270833333345,"velocity":0.8031496062992126,"duration":0.21484375},{"name":"A4","midi":69,"time":823.9270833333345,"velocity":0.8031496062992126,"duration":0.21484375},{"name":"G2","midi":43,"time":824.1458333333345,"velocity":0.8031496062992126,"duration":0.21484375},{"name":"B3","midi":59,"time":824.1458333333345,"velocity":0.8031496062992126,"duration":0.43489583333337123},{"name":"G3","midi":55,"time":824.3658854166679,"velocity":0.8031496062992126,"duration":0.21484375},{"name":"F#3","midi":54,"time":824.5846354166679,"velocity":0.8031496062992126,"duration":0.21484375},{"name":"A4","midi":69,"time":824.5846354166679,"velocity":0.8031496062992126,"duration":0.21484375},{"name":"E3","midi":52,"time":824.8033854166679,"velocity":0.8031496062992126,"duration":0.21484375},{"name":"G4","midi":67,"time":824.8033854166679,"velocity":0.8031496062992126,"duration":0.6536458333333712},{"name":"D#3","midi":51,"time":825.0234375000013,"velocity":0.8031496062992126,"duration":0.21484375},{"name":"E3","midi":52,"time":825.2421875000013,"velocity":0.8031496062992126,"duration":0.21484375},{"name":"F#2","midi":42,"time":825.4609375000013,"velocity":0.8031496062992126,"duration":0.21484375},{"name":"A3","midi":57,"time":825.4609375000013,"velocity":0.8031496062992126,"duration":0.43489583333337123},{"name":"F#3","midi":54,"time":825.6809895833346,"velocity":0.8031496062992126,"duration":0.21484375},{"name":"E3","midi":52,"time":825.8997395833346,"velocity":0.8031496062992126,"duration":0.21484375},{"name":"G4","midi":67,"time":825.8997395833346,"velocity":0.8031496062992126,"duration":0.21484375},{"name":"D#3","midi":51,"time":826.1184895833346,"velocity":0.8031496062992126,"duration":0.21484375},{"name":"F#4","midi":66,"time":826.1184895833346,"velocity":0.8031496062992126,"duration":0.6536458333333712},{"name":"C#3","midi":49,"time":826.338541666668,"velocity":0.8031496062992126,"duration":0.21484375},{"name":"D#3","midi":51,"time":826.557291666668,"velocity":0.8031496062992126,"duration":0.21484375},{"name":"E2","midi":40,"time":826.776041666668,"velocity":0.8031496062992126,"duration":0.21484375},{"name":"G3","midi":55,"time":826.776041666668,"velocity":0.8031496062992126,"duration":0.43489583333337123},{"name":"E3","midi":52,"time":826.9960937500014,"velocity":0.8031496062992126,"duration":0.21484375},{"name":"D3","midi":50,"time":827.2148437500014,"velocity":0.8031496062992126,"duration":0.21484375},{"name":"F#4","midi":66,"time":827.2148437500014,"velocity":0.8031496062992126,"duration":0.21484375},{"name":"C3","midi":48,"time":827.4335937500014,"velocity":0.8031496062992126,"duration":0.21484375},{"name":"E4","midi":64,"time":827.4335937500014,"velocity":0.8031496062992126,"duration":0.21484375},{"name":"B2","midi":47,"time":827.6536458333347,"velocity":0.8031496062992126,"duration":0.21484375},{"name":"D#4","midi":63,"time":827.6536458333347,"velocity":0.8031496062992126,"duration":0.21484375},{"name":"A2","midi":45,"time":827.8723958333347,"velocity":0.8031496062992126,"duration":0.21484375},{"name":"E4","midi":64,"time":827.8723958333347,"velocity":0.8031496062992126,"duration":0.21484375},{"name":"B2","midi":47,"time":828.0911458333347,"velocity":0.8031496062992126,"duration":0.8723958333333712},{"name":"D#4","midi":63,"time":828.0911458333347,"velocity":0.8031496062992126,"duration":0.21484375},{"name":"E4","midi":64,"time":828.3111979166681,"velocity":0.8031496062992126,"duration":0.21484375},{"name":"F#4","midi":66,"time":828.5299479166681,"velocity":0.8031496062992126,"duration":0.21484375},{"name":"B3","midi":59,"time":828.7486979166681,"velocity":0.8031496062992126,"duration":0.21484375},{"name":"C#3","midi":49,"time":828.9687500000015,"velocity":0.8031496062992126,"duration":0.21484375},{"name":"B4","midi":71,"time":828.9687500000015,"velocity":0.8031496062992126,"duration":0.21484375},{"name":"D#3","midi":51,"time":829.1875000000015,"velocity":0.8031496062992126,"duration":0.21484375},{"name":"A4","midi":69,"time":829.1875000000015,"velocity":0.8031496062992126,"duration":0.21484375},{"name":"E3","midi":52,"time":829.4062500000015,"velocity":0.8031496062992126,"duration":0.21484375},{"name":"G4","midi":67,"time":829.4062500000015,"velocity":0.8031496062992126,"duration":0.21484375},{"name":"F#3","midi":54,"time":829.6263020833348,"velocity":0.8031496062992126,"duration":0.21484375},{"name":"A4","midi":69,"time":829.6263020833348,"velocity":0.8031496062992126,"duration":0.21484375},{"name":"G3","midi":55,"time":829.8450520833348,"velocity":0.8031496062992126,"duration":0.21484375},{"name":"B4","midi":71,"time":829.8450520833348,"velocity":0.8031496062992126,"duration":0.21484375},{"name":"C3","midi":48,"time":830.0638020833348,"velocity":0.8031496062992126,"duration":0.21484375},{"name":"E4","midi":64,"time":830.0638020833348,"velocity":0.8031496062992126,"duration":0.21484375},{"name":"D3","midi":50,"time":830.2838541666682,"velocity":0.8031496062992126,"duration":0.21484375},{"name":"C5","midi":72,"time":830.2838541666682,"velocity":0.8031496062992126,"duration":0.21484375},{"name":"E3","midi":52,"time":830.5026041666682,"velocity":0.8031496062992126,"duration":0.21484375},{"name":"B4","midi":71,"time":830.5026041666682,"velocity":0.8031496062992126,"duration":0.21484375},{"name":"F#3","midi":54,"time":830.7213541666682,"velocity":0.8031496062992126,"duration":0.21484375},{"name":"A4","midi":69,"time":830.7213541666682,"velocity":0.8031496062992126,"duration":0.21484375},{"name":"G3","midi":55,"time":830.9414062500016,"velocity":0.8031496062992126,"duration":0.21484375},{"name":"B4","midi":71,"time":830.9414062500016,"velocity":0.8031496062992126,"duration":0.21484375},{"name":"A3","midi":57,"time":831.1601562500016,"velocity":0.8031496062992126,"duration":0.21484375},{"name":"C5","midi":72,"time":831.1601562500016,"velocity":0.8031496062992126,"duration":0.21484375},{"name":"D3","midi":50,"time":831.3789062500016,"velocity":0.8031496062992126,"duration":0.21484375},{"name":"F#4","midi":66,"time":831.3789062500016,"velocity":0.8031496062992126,"duration":0.21484375},{"name":"E3","midi":52,"time":831.598958333335,"velocity":0.8031496062992126,"duration":0.21484375},{"name":"D5","midi":74,"time":831.598958333335,"velocity":0.8031496062992126,"duration":0.21484375},{"name":"F#3","midi":54,"time":831.817708333335,"velocity":0.8031496062992126,"duration":0.21484375},{"name":"C5","midi":72,"time":831.817708333335,"velocity":0.8031496062992126,"duration":0.21484375},{"name":"G3","midi":55,"time":832.036458333335,"velocity":0.8031496062992126,"duration":0.21484375},{"name":"B4","midi":71,"time":832.036458333335,"velocity":0.8031496062992126,"duration":0.21484375},{"name":"A3","midi":57,"time":832.2565104166683,"velocity":0.8031496062992126,"duration":0.21484375},{"name":"C5","midi":72,"time":832.2565104166683,"velocity":0.8031496062992126,"duration":0.21484375},{"name":"B3","midi":59,"time":832.4752604166683,"velocity":0.8031496062992126,"duration":0.21484375},{"name":"D5","midi":74,"time":832.4752604166683,"velocity":0.8031496062992126,"duration":0.21484375},{"name":"E3","midi":52,"time":832.6940104166683,"velocity":0.8031496062992126,"duration":0.21484375},{"name":"G4","midi":67,"time":832.6940104166683,"velocity":0.8031496062992126,"duration":0.21484375},{"name":"F#3","midi":54,"time":832.9140625000017,"velocity":0.8031496062992126,"duration":0.21484375},{"name":"E5","midi":76,"time":832.9140625000017,"velocity":0.8031496062992126,"duration":0.21484375},{"name":"G3","midi":55,"time":833.1328125000017,"velocity":0.8031496062992126,"duration":0.21484375},{"name":"D5","midi":74,"time":833.1328125000017,"velocity":0.8031496062992126,"duration":0.21484375},{"name":"A3","midi":57,"time":833.3515625000017,"velocity":0.8031496062992126,"duration":0.21484375},{"name":"C#5","midi":73,"time":833.3515625000017,"velocity":0.8031496062992126,"duration":0.21484375},{"name":"B3","midi":59,"time":833.5716145833351,"velocity":0.8031496062992126,"duration":0.21484375},{"name":"D#5","midi":75,"time":833.5716145833351,"velocity":0.8031496062992126,"duration":0.21484375},{"name":"C4","midi":60,"time":833.7903645833351,"velocity":0.8031496062992126,"duration":0.21484375},{"name":"E5","midi":76,"time":833.7903645833351,"velocity":0.8031496062992126,"duration":0.21484375},{"name":"F#3","midi":54,"time":834.0091145833351,"velocity":0.8031496062992126,"duration":0.21484375},{"name":"A4","midi":69,"time":834.0091145833351,"velocity":0.8031496062992126,"duration":0.21484375},{"name":"G3","midi":55,"time":834.2291666666684,"velocity":0.8031496062992126,"duration":0.21484375},{"name":"F#5","midi":78,"time":834.2291666666684,"velocity":0.8031496062992126,"duration":0.21484375},{"name":"A3","midi":57,"time":834.4479166666684,"velocity":0.8031496062992126,"duration":0.21484375},{"name":"E5","midi":76,"time":834.4479166666684,"velocity":0.8031496062992126,"duration":0.21484375},{"name":"B3","midi":59,"time":834.6666666666684,"velocity":0.8031496062992126,"duration":0.21484375},{"name":"D#5","midi":75,"time":834.6666666666684,"velocity":0.8031496062992126,"duration":0.21484375},{"name":"C#4","midi":61,"time":834.8867187500018,"velocity":0.8031496062992126,"duration":0.21484375},{"name":"E5","midi":76,"time":834.8867187500018,"velocity":0.8031496062992126,"duration":0.21484375},{"name":"D#4","midi":63,"time":835.1054687500018,"velocity":0.8031496062992126,"duration":0.21484375},{"name":"F#5","midi":78,"time":835.1054687500018,"velocity":0.8031496062992126,"duration":0.21484375},{"name":"E4","midi":64,"time":835.3242187500018,"velocity":0.8031496062992126,"duration":0.10546875},{"name":"G5","midi":79,"time":835.3242187500018,"velocity":0.8031496062992126,"duration":0.10546875},{"name":"D#4","midi":63,"time":835.4335937500018,"velocity":0.8031496062992126,"duration":0.10546875},{"name":"F#5","midi":78,"time":835.4335937500018,"velocity":0.8031496062992126,"duration":0.10546875},{"name":"C#4","midi":61,"time":835.5442708333352,"velocity":0.8031496062992126,"duration":0.21484375},{"name":"E5","midi":76,"time":835.5442708333352,"velocity":0.8031496062992126,"duration":0.21484375},{"name":"D#4","midi":63,"time":835.7630208333352,"velocity":0.8031496062992126,"duration":0.21484375},{"name":"F#5","midi":78,"time":835.7630208333352,"velocity":0.8031496062992126,"duration":0.21484375},{"name":"E4","midi":64,"time":835.9817708333352,"velocity":0.8031496062992126,"duration":0.21484375},{"name":"G5","midi":79,"time":835.9817708333352,"velocity":0.8031496062992126,"duration":0.21484375},{"name":"E3","midi":52,"time":836.2018229166686,"velocity":0.8031496062992126,"duration":0.21484375},{"name":"G4","midi":67,"time":836.2018229166686,"velocity":0.8031496062992126,"duration":0.21484375},{"name":"F#3","midi":54,"time":836.4205729166686,"velocity":0.8031496062992126,"duration":0.21484375},{"name":"A4","midi":69,"time":836.4205729166686,"velocity":0.8031496062992126,"duration":0.21484375},{"name":"G3","midi":55,"time":836.6393229166686,"velocity":0.8031496062992126,"duration":0.21484375},{"name":"B4","midi":71,"time":836.6393229166686,"velocity":0.8031496062992126,"duration":0.21484375},{"name":"A3","midi":57,"time":836.8593750000019,"velocity":0.8031496062992126,"duration":0.21484375},{"name":"C#5","midi":73,"time":836.8593750000019,"velocity":0.8031496062992126,"duration":0.21484375},{"name":"B3","midi":59,"time":837.0781250000019,"velocity":0.8031496062992126,"duration":0.21484375},{"name":"D#5","midi":75,"time":837.0781250000019,"velocity":0.8031496062992126,"duration":0.21484375},{"name":"C#4","midi":61,"time":837.2968750000019,"velocity":0.8031496062992126,"duration":0.21484375},{"name":"E5","midi":76,"time":837.2968750000019,"velocity":0.8031496062992126,"duration":0.21484375},{"name":"D#4","midi":63,"time":837.5169270833353,"velocity":0.8031496062992126,"duration":0.21484375},{"name":"F#5","midi":78,"time":837.5169270833353,"velocity":0.8031496062992126,"duration":0.21484375},{"name":"E4","midi":64,"time":837.7356770833353,"velocity":0.8031496062992126,"duration":0.21484375},{"name":"G5","midi":79,"time":837.7356770833353,"velocity":0.8031496062992126,"duration":0.21484375},{"name":"F#4","midi":66,"time":837.9544270833353,"velocity":0.8031496062992126,"duration":0.10546875},{"name":"A5","midi":81,"time":837.9544270833353,"velocity":0.8031496062992126,"duration":0.10546875},{"name":"E4","midi":64,"time":838.0638020833353,"velocity":0.8031496062992126,"duration":0.10546875},{"name":"G5","midi":79,"time":838.0638020833353,"velocity":0.8031496062992126,"duration":0.10546875},{"name":"D#4","midi":63,"time":838.1744791666687,"velocity":0.8031496062992126,"duration":0.21484375},{"name":"F#5","midi":78,"time":838.1744791666687,"velocity":0.8031496062992126,"duration":0.21484375},{"name":"E4","midi":64,"time":838.3932291666687,"velocity":0.8031496062992126,"duration":0.21484375},{"name":"G5","midi":79,"time":838.3932291666687,"velocity":0.8031496062992126,"duration":0.21484375},{"name":"F#4","midi":66,"time":838.6119791666687,"velocity":0.8031496062992126,"duration":0.21484375},{"name":"A5","midi":81,"time":838.6119791666687,"velocity":0.8031496062992126,"duration":0.21484375},{"name":"F#3","midi":54,"time":838.832031250002,"velocity":0.8031496062992126,"duration":0.21484375},{"name":"A4","midi":69,"time":838.832031250002,"velocity":0.8031496062992126,"duration":0.21484375},{"name":"G3","midi":55,"time":839.050781250002,"velocity":0.8031496062992126,"duration":0.21484375},{"name":"B4","midi":71,"time":839.050781250002,"velocity":0.8031496062992126,"duration":0.21484375},{"name":"A3","midi":57,"time":839.269531250002,"velocity":0.8031496062992126,"duration":0.21484375},{"name":"C#5","midi":73,"time":839.269531250002,"velocity":0.8031496062992126,"duration":0.21484375},{"name":"B3","midi":59,"time":839.4895833333354,"velocity":0.8031496062992126,"duration":0.21484375},{"name":"D#5","midi":75,"time":839.4895833333354,"velocity":0.8031496062992126,"duration":0.21484375},{"name":"C#4","midi":61,"time":839.7083333333354,"velocity":0.8031496062992126,"duration":0.21484375},{"name":"E5","midi":76,"time":839.7083333333354,"velocity":0.8031496062992126,"duration":0.21484375},{"name":"D#4","midi":63,"time":839.9270833333354,"velocity":0.8031496062992126,"duration":0.21484375},{"name":"F#5","midi":78,"time":839.9270833333354,"velocity":0.8031496062992126,"duration":0.21484375},{"name":"E4","midi":64,"time":840.1471354166688,"velocity":0.8031496062992126,"duration":0.21484375},{"name":"G5","midi":79,"time":840.1471354166688,"velocity":0.8031496062992126,"duration":0.21484375},{"name":"F#4","midi":66,"time":840.3658854166688,"velocity":0.8031496062992126,"duration":0.21484375},{"name":"A5","midi":81,"time":840.3658854166688,"velocity":0.8031496062992126,"duration":0.21484375},{"name":"G4","midi":67,"time":840.5846354166688,"velocity":0.8031496062992126,"duration":0.10546875},{"name":"B5","midi":83,"time":840.5846354166688,"velocity":0.8031496062992126,"duration":0.10546875},{"name":"F#4","midi":66,"time":840.6940104166688,"velocity":0.8031496062992126,"duration":0.10546875},{"name":"A5","midi":81,"time":840.6940104166688,"velocity":0.8031496062992126,"duration":0.10546875},{"name":"E4","midi":64,"time":840.8046875000022,"velocity":0.8031496062992126,"duration":0.21484375},{"name":"G5","midi":79,"time":840.8046875000022,"velocity":0.8031496062992126,"duration":0.21484375},{"name":"F#4","midi":66,"time":841.0234375000022,"velocity":0.8031496062992126,"duration":0.21484375},{"name":"A5","midi":81,"time":841.0234375000022,"velocity":0.8031496062992126,"duration":0.21484375},{"name":"G4","midi":67,"time":841.2421875000022,"velocity":0.8031496062992126,"duration":0.21484375},{"name":"B5","midi":83,"time":841.2421875000022,"velocity":0.8031496062992126,"duration":0.21484375},{"name":"A3","midi":57,"time":841.4622395833355,"velocity":0.8031496062992126,"duration":0.21484375},{"name":"C#5","midi":73,"time":841.4622395833355,"velocity":0.8031496062992126,"duration":0.21484375},{"name":"B3","midi":59,"time":841.6809895833355,"velocity":0.8031496062992126,"duration":0.21484375},{"name":"D#5","midi":75,"time":841.6809895833355,"velocity":0.8031496062992126,"duration":0.21484375},{"name":"C#4","midi":61,"time":841.8997395833355,"velocity":0.8031496062992126,"duration":0.21484375},{"name":"E5","midi":76,"time":841.8997395833355,"velocity":0.8031496062992126,"duration":0.21484375},{"name":"D#4","midi":63,"time":842.1197916666689,"velocity":0.8031496062992126,"duration":0.21484375},{"name":"F#5","midi":78,"time":842.1197916666689,"velocity":0.8031496062992126,"duration":0.21484375},{"name":"E4","midi":64,"time":842.3385416666689,"velocity":0.8031496062992126,"duration":0.21484375},{"name":"G5","midi":79,"time":842.3385416666689,"velocity":0.8031496062992126,"duration":0.21484375},{"name":"F#4","midi":66,"time":842.5572916666689,"velocity":0.8031496062992126,"duration":0.21484375},{"name":"A5","midi":81,"time":842.5572916666689,"velocity":0.8031496062992126,"duration":0.21484375},{"name":"G3","midi":55,"time":842.7773437500023,"velocity":0.8031496062992126,"duration":0.21484375},{"name":"B4","midi":71,"time":842.7773437500023,"velocity":0.8031496062992126,"duration":0.21484375},{"name":"A3","midi":57,"time":842.9960937500023,"velocity":0.8031496062992126,"duration":0.21484375},{"name":"C#5","midi":73,"time":842.9960937500023,"velocity":0.8031496062992126,"duration":0.21484375},{"name":"B3","midi":59,"time":843.2148437500023,"velocity":0.8031496062992126,"duration":0.21484375},{"name":"D#5","midi":75,"time":843.2148437500023,"velocity":0.8031496062992126,"duration":0.21484375},{"name":"C#4","midi":61,"time":843.4348958333356,"velocity":0.8031496062992126,"duration":0.21484375},{"name":"E5","midi":76,"time":843.4348958333356,"velocity":0.8031496062992126,"duration":0.21484375},{"name":"D#4","midi":63,"time":843.6536458333356,"velocity":0.8031496062992126,"duration":0.21484375},{"name":"F#5","midi":78,"time":843.6536458333356,"velocity":0.8031496062992126,"duration":0.21484375},{"name":"E4","midi":64,"time":843.8723958333356,"velocity":0.8031496062992126,"duration":0.43489583333337123},{"name":"G5","midi":79,"time":843.8723958333356,"velocity":0.8031496062992126,"duration":0.21484375},{"name":"A5","midi":81,"time":844.092447916669,"velocity":0.8031496062992126,"duration":0.21484375},{"name":"A3","midi":57,"time":844.311197916669,"velocity":0.8031496062992126,"duration":0.21484375},{"name":"B5","midi":83,"time":844.311197916669,"velocity":0.8031496062992126,"duration":0.21484375},{"name":"B3","midi":59,"time":844.529947916669,"velocity":0.8031496062992126,"duration":0.43489583333337123},{"name":"B4","midi":71,"time":844.529947916669,"velocity":0.8031496062992126,"duration":0.21484375},{"name":"E5","midi":76,"time":844.7500000000024,"velocity":0.8031496062992126,"duration":0.21484375},{"name":"B2","midi":47,"time":844.9687500000024,"velocity":0.8031496062992126,"duration":0.21484375},{"name":"D#5","midi":75,"time":844.9687500000024,"velocity":0.8031496062992126,"duration":0.21484375},{"name":"E3","midi":52,"time":845.1875000000024,"velocity":0.8031496062992126,"duration":0.2148437499998863},{"name":"E5","midi":76,"time":845.1875000000024,"velocity":0.8031496062992126,"duration":0.10416666666662877},{"name":"D#5","midi":75,"time":845.291666666669,"velocity":0.8031496062992126,"duration":0.10416666666662877},{"name":"E5","midi":76,"time":845.3958333333356,"velocity":0.8031496062992126,"duration":0.49479166666662877},{"name":"F#3","midi":54,"time":845.4075520833356,"velocity":0.8031496062992126,"duration":0.21484375},{"name":"G3","midi":55,"time":845.6263020833356,"velocity":0.8031496062992126,"duration":0.21484375},{"name":"G3","midi":55,"time":845.8450520833356,"velocity":0.8031496062992126,"duration":0.21484375},{"name":"A3","midi":57,"time":846.065104166669,"velocity":0.8031496062992126,"duration":0.21484375},{"name":"A#3","midi":58,"time":846.2851562500024,"velocity":0.8031496062992126,"duration":0.21484375},{"name":"E5","midi":76,"time":846.2851562500024,"velocity":0.8031496062992126,"duration":0.21484375},{"name":"C#3","midi":49,"time":846.5039062500024,"velocity":0.8031496062992126,"duration":0.6575520833333712},{"name":"E5","midi":76,"time":846.5039062500024,"velocity":0.8031496062992126,"duration":0.21484375},{"name":"C#5","midi":73,"time":846.7226562500024,"velocity":0.8031496062992126,"duration":0.21484375},{"name":"A4","midi":69,"time":846.9427083333358,"velocity":0.8031496062992126,"duration":0.21484375},{"name":"G4","midi":67,"time":847.1653645833358,"velocity":0.8031496062992126,"duration":0.21484375},{"name":"F4","midi":65,"time":847.3828125000024,"velocity":0.8031496062992126,"duration":0.21484375},{"name":"A2","midi":45,"time":847.6028645833358,"velocity":0.8031496062992126,"duration":0.21484375},{"name":"E4","midi":64,"time":847.6028645833358,"velocity":0.8031496062992126,"duration":0.21484375},{"name":"D3","midi":50,"time":847.8229166666691,"velocity":0.8031496062992126,"duration":0.21484375},{"name":"F4","midi":65,"time":847.8229166666691,"velocity":0.8031496062992126,"duration":0.21484375},{"name":"F3","midi":53,"time":848.0403645833358,"velocity":0.8031496062992126,"duration":0.21484375},{"name":"D4","midi":62,"time":848.0403645833358,"velocity":0.8031496062992126,"duration":0.21484375},{"name":"A3","midi":57,"time":848.2604166666691,"velocity":0.8031496062992126,"duration":0.21484375},{"name":"F4","midi":65,"time":848.2604166666691,"velocity":0.8031496062992126,"duration":0.21484375},{"name":"D4","midi":62,"time":848.4804687500025,"velocity":0.8031496062992126,"duration":0.43489583333325754},{"name":"A4","midi":69,"time":848.4804687500025,"velocity":0.8031496062992126,"duration":0.21484375},{"name":"F4","midi":65,"time":848.6979166666691,"velocity":0.8031496062992126,"duration":0.21484375},{"name":"C3","midi":48,"time":848.9179687500024,"velocity":0.8031496062992126,"duration":0.21484375},{"name":"A4","midi":69,"time":848.9179687500024,"velocity":0.8031496062992126,"duration":0.21484375},{"name":"B2","midi":47,"time":849.1380208333358,"velocity":0.8031496062992126,"duration":0.6575520833333712},{"name":"D5","midi":74,"time":849.1380208333358,"velocity":0.8031496062992126,"duration":0.21484375},{"name":"B4","midi":71,"time":849.3554687500024,"velocity":0.8031496062992126,"duration":0.21484375},{"name":"G4","midi":67,"time":849.5755208333358,"velocity":0.8031496062992126,"duration":0.21484375},{"name":"F4","midi":65,"time":849.7968750000025,"velocity":0.8031496062992126,"duration":0.21484375},{"name":"E4","midi":64,"time":850.0143229166691,"velocity":0.8031496062992126,"duration":0.21484375},{"name":"G2","midi":43,"time":850.2343750000025,"velocity":0.8031496062992126,"duration":0.21484375},{"name":"D4","midi":62,"time":850.2343750000025,"velocity":0.8031496062992126,"duration":0.21484375},{"name":"C3","midi":48,"time":850.4544270833359,"velocity":0.8031496062992126,"duration":0.21484375},{"name":"E4","midi":64,"time":850.4544270833359,"velocity":0.8031496062992126,"duration":0.21484375},{"name":"E3","midi":52,"time":850.6718750000025,"velocity":0.8031496062992126,"duration":0.21484375},{"name":"C4","midi":60,"time":850.6718750000025,"velocity":0.8031496062992126,"duration":0.21484375},{"name":"G3","midi":55,"time":850.8919270833359,"velocity":0.8031496062992126,"duration":0.21484375},{"name":"E4","midi":64,"time":850.8919270833359,"velocity":0.8031496062992126,"duration":0.21484375},{"name":"C4","midi":60,"time":851.1119791666692,"velocity":0.8031496062992126,"duration":0.43489583333325754},{"name":"G4","midi":67,"time":851.1119791666692,"velocity":0.8031496062992126,"duration":0.21484375},{"name":"E4","midi":64,"time":851.3294270833359,"velocity":0.8031496062992126,"duration":0.21484375},{"name":"B2","midi":47,"time":851.5494791666691,"velocity":0.8031496062992126,"duration":0.21484375},{"name":"G4","midi":67,"time":851.5494791666691,"velocity":0.8031496062992126,"duration":0.21484375},{"name":"A2","midi":45,"time":851.7695312500025,"velocity":0.8031496062992126,"duration":0.6536458333333712},{"name":"C5","midi":72,"time":851.7695312500025,"velocity":0.8031496062992126,"duration":0.21484375},{"name":"A4","midi":69,"time":851.9869791666691,"velocity":0.8031496062992126,"duration":0.21484375},{"name":"F4","midi":65,"time":852.2070312500025,"velocity":0.8031496062992126,"duration":0.21484375},{"name":"A3","midi":57,"time":852.4270833333359,"velocity":0.8031496062992126,"duration":1.3111979166667425},{"name":"E4","midi":64,"time":852.4270833333359,"velocity":0.8031496062992126,"duration":0.21484375},{"name":"D4","midi":62,"time":852.6445312500025,"velocity":0.8031496062992126,"duration":0.21484375},{"name":"C4","midi":60,"time":852.8645833333359,"velocity":0.8031496062992126,"duration":0.21484375},{"name":"B4","midi":71,"time":853.0846354166692,"velocity":0.8031496062992126,"duration":0.21484375},{"name":"G#4","midi":68,"time":853.3020833333359,"velocity":0.8031496062992126,"duration":0.21484375},{"name":"E4","midi":64,"time":853.5221354166692,"velocity":0.8031496062992126,"duration":0.21484375},{"name":"G#3","midi":56,"time":853.7421875000026,"velocity":0.8031496062992126,"duration":0.6536458333333712},{"name":"D4","midi":62,"time":853.7421875000026,"velocity":0.8031496062992126,"duration":0.21484375},{"name":"C4","midi":60,"time":853.9596354166692,"velocity":0.8031496062992126,"duration":0.21484375},{"name":"B3","midi":59,"time":854.1796875000026,"velocity":0.8031496062992126,"duration":0.21484375},{"name":"A3","midi":57,"time":854.399739583336,"velocity":0.8031496062992126,"duration":0.6536458333333712},{"name":"C4","midi":60,"time":854.399739583336,"velocity":0.8031496062992126,"duration":0.21484375},{"name":"E4","midi":64,"time":854.6171875000026,"velocity":0.8031496062992126,"duration":0.21484375},{"name":"A4","midi":69,"time":854.837239583336,"velocity":0.8031496062992126,"duration":0.24739583333337123},{"name":"F3","midi":53,"time":855.0572916666694,"velocity":0.8031496062992126,"duration":0.6536458333333712},{"name":"D4","midi":62,"time":855.0572916666694,"velocity":0.8031496062992126,"duration":0.21484375},{"name":"B4","midi":71,"time":855.274739583336,"velocity":0.8031496062992126,"duration":0.21484375},{"name":"A4","midi":69,"time":855.4947916666694,"velocity":0.8031496062992126,"duration":0.21484375},{"name":"E3","midi":52,"time":855.7148437500027,"velocity":0.8031496062992126,"duration":0.6536458333333712},{"name":"G#4","midi":68,"time":855.7148437500027,"velocity":0.8031496062992126,"duration":0.21484375},{"name":"A4","midi":69,"time":855.9322916666694,"velocity":0.8031496062992126,"duration":0.21484375},{"name":"B4","midi":71,"time":856.1523437500027,"velocity":0.8031496062992126,"duration":0.21484375},{"name":"E2","midi":40,"time":856.3723958333361,"velocity":0.8031496062992126,"duration":0.21484375},{"name":"E4","midi":64,"time":856.3723958333361,"velocity":0.8031496062992126,"duration":0.43489583333325754},{"name":"F#2","midi":42,"time":856.5898437500027,"velocity":0.8031496062992126,"duration":0.21484375},{"name":"G#2","midi":44,"time":856.809895833336,"velocity":0.8031496062992126,"duration":0.21484375},{"name":"B4","midi":71,"time":856.809895833336,"velocity":0.8031496062992126,"duration":0.21484375},{"name":"A2","midi":45,"time":857.0299479166694,"velocity":0.8031496062992126,"duration":0.21484375},{"name":"C5","midi":72,"time":857.0299479166694,"velocity":0.8031496062992126,"duration":0.21484375},{"name":"B2","midi":47,"time":857.247395833336,"velocity":0.8031496062992126,"duration":0.21484375},{"name":"D5","midi":74,"time":857.247395833336,"velocity":0.8031496062992126,"duration":0.21484375},{"name":"C3","midi":48,"time":857.4674479166694,"velocity":0.8031496062992126,"duration":0.21484375},{"name":"E5","midi":76,"time":857.4674479166694,"velocity":0.8031496062992126,"duration":0.21484375},{"name":"G#2","midi":44,"time":857.6875000000027,"velocity":0.8031496062992126,"duration":0.21484375},{"name":"E4","midi":64,"time":857.6875000000027,"velocity":0.8031496062992126,"duration":0.21484375},{"name":"A2","midi":45,"time":857.9049479166694,"velocity":0.8031496062992126,"duration":0.21484375},{"name":"F#4","midi":66,"time":857.9049479166694,"velocity":0.8031496062992126,"duration":0.21484375},{"name":"B2","midi":47,"time":858.1250000000027,"velocity":0.8031496062992126,"duration":0.21484375},{"name":"G#4","midi":68,"time":858.1250000000027,"velocity":0.8031496062992126,"duration":0.21484375},{"name":"C3","midi":48,"time":858.3450520833361,"velocity":0.8031496062992126,"duration":0.21484375},{"name":"A4","midi":69,"time":858.3450520833361,"velocity":0.8031496062992126,"duration":0.21484375},{"name":"D3","midi":50,"time":858.5625000000027,"velocity":0.8031496062992126,"duration":0.21484375},{"name":"B4","midi":71,"time":858.5625000000027,"velocity":0.8031496062992126,"duration":0.21484375},{"name":"E3","midi":52,"time":858.7825520833361,"velocity":0.8031496062992126,"duration":0.21484375},{"name":"C5","midi":72,"time":858.7825520833361,"velocity":0.8031496062992126,"duration":0.21484375},{"name":"E3","midi":52,"time":859.0026041666695,"velocity":0.8031496062992126,"duration":0.21484375},{"name":"G#4","midi":68,"time":859.0026041666695,"velocity":0.8031496062992126,"duration":0.21484375},{"name":"F#3","midi":54,"time":859.2200520833361,"velocity":0.8031496062992126,"duration":0.21484375},{"name":"A4","midi":69,"time":859.2200520833361,"velocity":0.8031496062992126,"duration":0.21484375},{"name":"G#3","midi":56,"time":859.4401041666695,"velocity":0.8031496062992126,"duration":0.21484375},{"name":"B4","midi":71,"time":859.4401041666695,"velocity":0.8031496062992126,"duration":0.21484375},{"name":"A3","midi":57,"time":859.6601562500028,"velocity":0.8031496062992126,"duration":0.21484375},{"name":"C5","midi":72,"time":859.6601562500028,"velocity":0.8031496062992126,"duration":0.21484375},{"name":"B3","midi":59,"time":859.8776041666695,"velocity":0.8031496062992126,"duration":0.21484375},{"name":"D5","midi":74,"time":859.8776041666695,"velocity":0.8031496062992126,"duration":0.21484375},{"name":"C4","midi":60,"time":860.0976562500028,"velocity":0.8031496062992126,"duration":0.21484375},{"name":"E5","midi":76,"time":860.0976562500028,"velocity":0.8031496062992126,"duration":0.21484375},{"name":"G#3","midi":56,"time":860.3177083333362,"velocity":0.8031496062992126,"duration":0.21484375},{"name":"E4","midi":64,"time":860.3177083333362,"velocity":0.8031496062992126,"duration":0.21484375},{"name":"A3","midi":57,"time":860.5351562500028,"velocity":0.8031496062992126,"duration":0.21484375},{"name":"F#4","midi":66,"time":860.5351562500028,"velocity":0.8031496062992126,"duration":0.21484375},{"name":"B3","midi":59,"time":860.7552083333362,"velocity":0.8031496062992126,"duration":0.21484375},{"name":"G#4","midi":68,"time":860.7552083333362,"velocity":0.8031496062992126,"duration":0.21484375},{"name":"C4","midi":60,"time":860.9752604166696,"velocity":0.8031496062992126,"duration":0.21484375},{"name":"A4","midi":69,"time":860.9752604166696,"velocity":0.8031496062992126,"duration":0.21484375},{"name":"D4","midi":62,"time":861.1927083333362,"velocity":0.8031496062992126,"duration":0.21484375},{"name":"B4","midi":71,"time":861.1927083333362,"velocity":0.8031496062992126,"duration":0.21484375},{"name":"E4","midi":64,"time":861.4127604166696,"velocity":0.8031496062992126,"duration":0.21484375},{"name":"C5","midi":72,"time":861.4127604166696,"velocity":0.8031496062992126,"duration":0.21484375},{"name":"E4","midi":64,"time":861.632812500003,"velocity":0.8031496062992126,"duration":0.21484375},{"name":"G#4","midi":68,"time":861.632812500003,"velocity":0.8031496062992126,"duration":0.21484375},{"name":"F#4","midi":66,"time":861.8502604166696,"velocity":0.8031496062992126,"duration":0.21484375},{"name":"A4","midi":69,"time":861.8502604166696,"velocity":0.8031496062992126,"duration":0.21484375},{"name":"G#4","midi":68,"time":862.070312500003,"velocity":0.8031496062992126,"duration":0.21484375},{"name":"B4","midi":71,"time":862.070312500003,"velocity":0.8031496062992126,"duration":0.21484375},{"name":"A4","midi":69,"time":862.2903645833363,"velocity":0.8031496062992126,"duration":0.43489583333325754},{"name":"C5","midi":72,"time":862.2903645833363,"velocity":0.8031496062992126,"duration":0.21484375},{"name":"D5","midi":74,"time":862.507812500003,"velocity":0.8031496062992126,"duration":0.21484375},{"name":"D4","midi":62,"time":862.7278645833362,"velocity":0.8031496062992126,"duration":0.21484375},{"name":"E5","midi":76,"time":862.7278645833362,"velocity":0.8031496062992126,"duration":0.21484375},{"name":"E4","midi":64,"time":862.9648437500028,"velocity":0.8031496062992126,"duration":0.43489583333325754},{"name":"D5","midi":74,"time":862.9648437500028,"velocity":0.8031496062992126,"duration":0.10546875},{"name":"C5","midi":72,"time":863.0885416666695,"velocity":0.8031496062992126,"duration":0.10546875},{"name":"B4","midi":71,"time":863.2044270833361,"velocity":0.8031496062992126,"duration":0.21484375},{"name":"A4","midi":69,"time":863.4283854166695,"velocity":0.8031496062992126,"duration":0.21484375},{"name":"E3","midi":52,"time":863.4283854166695,"velocity":0.8031496062992126,"duration":0.21484375},{"name":"A2","midi":45,"time":863.6822916666695,"velocity":0.8031496062992126,"duration":3.32421875},{"name":"A4","midi":69,"time":863.6822916666695,"velocity":0.8031496062992126,"duration":0.25520833333337123},{"name":"E4","midi":64,"time":863.9414062500028,"velocity":0.8031496062992126,"duration":0.28385416666662877},{"name":"C4","midi":60,"time":864.2304687500028,"velocity":0.8031496062992126,"duration":0.38541666666662877},{"name":"A3","midi":57,"time":864.6210937500028,"velocity":0.8031496062992126,"duration":2.3854166666666288}],"controlChanges":{"7":[{"number":7,"time":0,"value":0.7874015748031497}]},"id":1,"name":"Piano 1","instrumentNumber":6,"instrument":"harpsichord","instrumentFamily":"piano","channelNumber":0,"isPercussion":false}]}