{"header":{"PPQ":384,"timeSignature":[4,4],"bpm":120,"name":"--------"},"startTime":0,"duration":106.63802083333266,"tracks":[{"startTime":0,"duration":0,"length":0,"notes":[],"controlChanges":{},"id":0,"name":"--------"},{"startTime":0.0625,"duration":106.63802083333266,"length":672,"notes":[{"name":"B2","midi":47,"time":0.0625,"velocity":0.8031496062992126,"duration":1.09375},{"name":"B4","midi":71,"time":0.0625,"velocity":0.8031496062992126,"duration":0.3072916666666667},{"name":"F#4","midi":66,"time":0.37109375,"velocity":0.8031496062992126,"duration":0.30729166666666674},{"name":"F#4","midi":66,"time":0.6796875000000001,"velocity":0.8031496062992126,"duration":0.30729166666666663},{"name":"G4","midi":67,"time":0.9882812500000001,"velocity":0.8031496062992126,"duration":0.3085937499999999},{"name":"B3","midi":59,"time":1.2981770833333333,"velocity":0.8031496062992126,"duration":0.30729166666666674},{"name":"F#4","midi":66,"time":1.2981770833333333,"velocity":0.8031496062992126,"duration":0.30729166666666674},{"name":"C#4","midi":61,"time":1.6067708333333333,"velocity":0.8031496062992126,"duration":0.30729166666666674},{"name":"F#4","midi":66,"time":1.6067708333333333,"velocity":0.8031496062992126,"duration":0.30729166666666674},{"name":"D4","midi":62,"time":1.9153645833333333,"velocity":0.8031496062992126,"duration":0.30729166666666674},{"name":"B4","midi":71,"time":1.9153645833333333,"velocity":0.8031496062992126,"duration":0.30729166666666674},{"name":"C#4","midi":61,"time":2.2239583333333335,"velocity":0.8031496062992126,"duration":0.3072916666666665},{"name":"F#4","midi":66,"time":2.2239583333333335,"velocity":0.8031496062992126,"duration":0.3072916666666665},{"name":"B3","midi":59,"time":2.5325520833333335,"velocity":0.8031496062992126,"duration":0.3072916666666665},{"name":"F#4","midi":66,"time":2.5325520833333335,"velocity":0.8031496062992126,"duration":0.3072916666666665},{"name":"A#3","midi":58,"time":2.8411458333333335,"velocity":0.8031496062992126,"duration":1.1588541666666665},{"name":"C#5","midi":73,"time":2.8411458333333335,"velocity":0.8031496062992126,"duration":0.3072916666666665},{"name":"F#4","midi":66,"time":3.1497395833333335,"velocity":0.8031496062992126,"duration":0.3072916666666665},{"name":"F#4","midi":66,"time":3.4583333333333335,"velocity":0.8031496062992126,"duration":0.3072916666666665},{"name":"G4","midi":67,"time":3.7669270833333335,"velocity":0.8031496062992126,"duration":0.3072916666666665},{"name":"B3","midi":59,"time":4.075520833333333,"velocity":0.8031496062992126,"duration":0.30729166666666696},{"name":"F#4","midi":66,"time":4.075520833333333,"velocity":0.8031496062992126,"duration":0.30729166666666696},{"name":"C#4","midi":61,"time":4.384114583333333,"velocity":0.8031496062992126,"duration":0.30729166666666696},{"name":"F#4","midi":66,"time":4.384114583333333,"velocity":0.8031496062992126,"duration":0.30729166666666696},{"name":"B3","midi":59,"time":4.692708333333333,"velocity":0.8031496062992126,"duration":0.30729166666666696},{"name":"C#5","midi":73,"time":4.692708333333333,"velocity":0.8031496062992126,"duration":0.30729166666666696},{"name":"C#4","midi":61,"time":5.001302083333333,"velocity":0.8031496062992126,"duration":0.30729166666666696},{"name":"F#4","midi":66,"time":5.001302083333333,"velocity":0.8031496062992126,"duration":0.30729166666666696},{"name":"A#3","midi":58,"time":5.309895833333333,"velocity":0.8031496062992126,"duration":0.30729166666666696},{"name":"F#4","midi":66,"time":5.309895833333333,"velocity":0.8031496062992126,"duration":0.30729166666666696},{"name":"B3","midi":59,"time":5.618489583333333,"velocity":0.8031496062992126,"duration":2.78776041666666},{"name":"D5","midi":74,"time":5.618489583333333,"velocity":0.8031496062992126,"duration":0.16796875},{"name":"B4","midi":71,"time":5.7734375,"velocity":0.8031496062992126,"duration":0.1679687499999991},{"name":"D5","midi":74,"time":5.928385416666666,"velocity":0.8031496062992126,"duration":0.1679687499999991},{"name":"F#5","midi":78,"time":6.083333333333332,"velocity":0.8031496062992126,"duration":0.1679687499999991},{"name":"B5","midi":83,"time":6.238281249999998,"velocity":0.8031496062992126,"duration":0.1679687499999991},{"name":"F#5","midi":78,"time":6.393229166666664,"velocity":0.8031496062992126,"duration":0.1679687499999991},{"name":"D5","midi":74,"time":6.54817708333333,"velocity":0.8031496062992126,"duration":0.1679687499999991},{"name":"F#5","midi":78,"time":6.7031249999999964,"velocity":0.8031496062992126,"duration":0.1679687499999991},{"name":"D5","midi":74,"time":6.8580729166666625,"velocity":0.8031496062992126,"duration":0.1679687499999991},{"name":"B4","midi":71,"time":7.013020833333329,"velocity":0.8031496062992126,"duration":0.1679687499999991},{"name":"D5","midi":74,"time":7.167968749999995,"velocity":0.8031496062992126,"duration":0.1679687499999991},{"name":"B4","midi":71,"time":7.322916666666661,"velocity":0.8031496062992126,"duration":0.1679687499999991},{"name":"F#4","midi":66,"time":7.477864583333327,"velocity":0.8031496062992126,"duration":0.1679687499999991},{"name":"B4","midi":71,"time":7.632812499999993,"velocity":0.8031496062992126,"duration":0.1679687499999991},{"name":"F#4","midi":66,"time":7.787760416666659,"velocity":0.8031496062992126,"duration":0.1679687499999991},{"name":"D4","midi":62,"time":7.942708333333325,"velocity":0.8031496062992126,"duration":0.16796875},{"name":"F#4","midi":66,"time":8.097656249999991,"velocity":0.8031496062992126,"duration":0.16796875000000178},{"name":"D4","midi":62,"time":8.252604166666659,"velocity":0.8031496062992126,"duration":0.16796875000000178},{"name":"B3","midi":59,"time":8.407552083333327,"velocity":0.8031496062992126,"duration":0.92578125},{"name":"F#3","midi":54,"time":8.71744791666666,"velocity":0.8031496062992126,"duration":0.3072916666666661},{"name":"F#3","midi":54,"time":9.02604166666666,"velocity":0.8031496062992126,"duration":0.3072916666666661},{"name":"G3","midi":55,"time":9.33463541666666,"velocity":0.8031496062992126,"duration":0.3072916666666661},{"name":"F#3","midi":54,"time":9.64322916666666,"velocity":0.8031496062992126,"duration":0.3072916666666661},{"name":"B4","midi":71,"time":9.64322916666666,"velocity":0.8031496062992126,"duration":0.3072916666666661},{"name":"F#3","midi":54,"time":9.95182291666666,"velocity":0.8031496062992126,"duration":0.3072916666666661},{"name":"C#5","midi":73,"time":9.95182291666666,"velocity":0.8031496062992126,"duration":0.3072916666666661},{"name":"B3","midi":59,"time":10.26041666666666,"velocity":0.8031496062992126,"duration":0.3072916666666661},{"name":"D5","midi":74,"time":10.26041666666666,"velocity":0.8031496062992126,"duration":0.3072916666666661},{"name":"F#3","midi":54,"time":10.56901041666666,"velocity":0.8031496062992126,"duration":0.3072916666666661},{"name":"C#5","midi":73,"time":10.56901041666666,"velocity":0.8031496062992126,"duration":0.3072916666666661},{"name":"F#3","midi":54,"time":10.87760416666666,"velocity":0.8031496062992126,"duration":0.3072916666666661},{"name":"B4","midi":71,"time":10.87760416666666,"velocity":0.8031496062992126,"duration":0.3072916666666661},{"name":"C#4","midi":61,"time":11.18619791666666,"velocity":0.8031496062992126,"duration":0.3072916666666661},{"name":"A#4","midi":70,"time":11.18619791666666,"velocity":0.8031496062992126,"duration":1.125},{"name":"F#3","midi":54,"time":11.49479166666666,"velocity":0.8031496062992126,"duration":0.3072916666666661},{"name":"F#3","midi":54,"time":11.80338541666666,"velocity":0.8031496062992126,"duration":0.3072916666666661},{"name":"G3","midi":55,"time":12.11197916666666,"velocity":0.8031496062992126,"duration":0.3072916666666661},{"name":"F#3","midi":54,"time":12.42057291666666,"velocity":0.8031496062992126,"duration":0.3072916666666661},{"name":"B4","midi":71,"time":12.42057291666666,"velocity":0.8031496062992126,"duration":0.3072916666666661},{"name":"F#3","midi":54,"time":12.72916666666666,"velocity":0.8031496062992126,"duration":0.3072916666666661},{"name":"C#5","midi":73,"time":12.72916666666666,"velocity":0.8031496062992126,"duration":0.3072916666666661},{"name":"C#4","midi":61,"time":13.03776041666666,"velocity":0.8031496062992126,"duration":0.3072916666666661},{"name":"B4","midi":71,"time":13.03776041666666,"velocity":0.8031496062992126,"duration":0.3072916666666661},{"name":"F#3","midi":54,"time":13.34635416666666,"velocity":0.8031496062992126,"duration":0.3072916666666661},{"name":"C#5","midi":73,"time":13.34635416666666,"velocity":0.8031496062992126,"duration":0.3072916666666661},{"name":"F#3","midi":54,"time":13.65494791666666,"velocity":0.8031496062992126,"duration":0.3072916666666661},{"name":"A#4","midi":70,"time":13.65494791666666,"velocity":0.8031496062992126,"duration":0.3072916666666661},{"name":"D4","midi":62,"time":13.96354166666666,"velocity":0.8031496062992126,"duration":0.15364583333333393},{"name":"B4","midi":71,"time":13.96354166666666,"velocity":0.8031496062992126,"duration":0.16796875000000178},{"name":"B3","midi":59,"time":14.118489583333329,"velocity":0.8031496062992126,"duration":0.15364583333333393},{"name":"F#4","midi":66,"time":14.118489583333329,"velocity":0.8031496062992126,"duration":0.16796875000000178},{"name":"D4","midi":62,"time":14.273437499999996,"velocity":0.8031496062992126,"duration":0.15364583333333393},{"name":"B4","midi":71,"time":14.273437499999996,"velocity":0.8031496062992126,"duration":0.16796875000000178},{"name":"F#4","midi":66,"time":14.428385416666664,"velocity":0.8031496062992126,"duration":0.15364583333333393},{"name":"D5","midi":74,"time":14.428385416666664,"velocity":0.8031496062992126,"duration":0.16796875000000178},{"name":"B4","midi":71,"time":14.583333333333332,"velocity":0.8031496062992126,"duration":0.15364583333333393},{"name":"F#5","midi":78,"time":14.583333333333332,"velocity":0.8031496062992126,"duration":0.16796875000000178},{"name":"F#4","midi":66,"time":14.73828125,"velocity":0.8031496062992126,"duration":0.15364583333333393},{"name":"D5","midi":74,"time":14.73828125,"velocity":0.8031496062992126,"duration":0.16796875000000178},{"name":"D4","midi":62,"time":14.893229166666668,"velocity":0.8031496062992126,"duration":0.15364583333333393},{"name":"B4","midi":71,"time":14.893229166666668,"velocity":0.8031496062992126,"duration":0.16796875000000178},{"name":"F#4","midi":66,"time":15.048177083333336,"velocity":0.8031496062992126,"duration":0.15364583333333393},{"name":"D5","midi":74,"time":15.048177083333336,"velocity":0.8031496062992126,"duration":0.16796875000000178},{"name":"D4","midi":62,"time":15.203125000000004,"velocity":0.8031496062992126,"duration":0.15364583333333393},{"name":"B4","midi":71,"time":15.203125000000004,"velocity":0.8031496062992126,"duration":0.16796875000000178},{"name":"B3","midi":59,"time":15.358072916666671,"velocity":0.8031496062992126,"duration":0.15364583333333393},{"name":"F#4","midi":66,"time":15.358072916666671,"velocity":0.8031496062992126,"duration":0.16796875000000178},{"name":"D4","midi":62,"time":15.51302083333334,"velocity":0.8031496062992126,"duration":0.15364583333333393},{"name":"B4","midi":71,"time":15.51302083333334,"velocity":0.8031496062992126,"duration":0.16796875000000178},{"name":"B3","midi":59,"time":15.667968750000007,"velocity":0.8031496062992126,"duration":0.15364583333333393},{"name":"F#4","midi":66,"time":15.667968750000007,"velocity":0.8031496062992126,"duration":0.16796875000000178},{"name":"F#3","midi":54,"time":15.822916666666675,"velocity":0.8031496062992126,"duration":0.15364583333333393},{"name":"D4","midi":62,"time":15.822916666666675,"velocity":0.8031496062992126,"duration":0.16796875000000178},{"name":"B3","midi":59,"time":15.977864583333343,"velocity":0.8031496062992126,"duration":0.1536458333333357},{"name":"F#4","midi":66,"time":15.977864583333343,"velocity":0.8031496062992126,"duration":0.16796875},{"name":"F#3","midi":54,"time":16.13281250000001,"velocity":0.8031496062992126,"duration":0.15364583333333215},{"name":"D4","midi":62,"time":16.13281250000001,"velocity":0.8031496062992126,"duration":0.16796874999999645},{"name":"D3","midi":50,"time":16.287760416666675,"velocity":0.8031496062992126,"duration":0.15364583333333215},{"name":"B3","midi":59,"time":16.287760416666675,"velocity":0.8031496062992126,"duration":0.16796874999999645},{"name":"F#3","midi":54,"time":16.44270833333334,"velocity":0.8031496062992126,"duration":0.15364583333333215},{"name":"D4","midi":62,"time":16.44270833333334,"velocity":0.8031496062992126,"duration":0.16796874999999645},{"name":"D3","midi":50,"time":16.597656250000004,"velocity":0.8031496062992126,"duration":0.15364583333333215},{"name":"B3","midi":59,"time":16.597656250000004,"velocity":0.8031496062992126,"duration":0.1484375},{"name":"B2","midi":47,"time":16.752604166666668,"velocity":0.8031496062992126,"duration":1.09375},{"name":"B4","midi":71,"time":16.752604166666668,"velocity":0.8031496062992126,"duration":0.30729166666666785},{"name":"D5","midi":74,"time":16.752604166666668,"velocity":0.8031496062992126,"duration":2.77734375},{"name":"F#4","midi":66,"time":17.061197916666668,"velocity":0.8031496062992126,"duration":0.30729166666666785},{"name":"F#4","midi":66,"time":17.369791666666668,"velocity":0.8031496062992126,"duration":0.30729166666666785},{"name":"G4","midi":67,"time":17.678385416666668,"velocity":0.8031496062992126,"duration":0.30859375},{"name":"B3","midi":59,"time":17.98828125,"velocity":0.8031496062992126,"duration":0.30729166666666785},{"name":"F#4","midi":66,"time":17.98828125,"velocity":0.8031496062992126,"duration":0.30729166666666785},{"name":"C#4","midi":61,"time":18.296875,"velocity":0.8031496062992126,"duration":0.30729166666666785},{"name":"F#4","midi":66,"time":18.296875,"velocity":0.8031496062992126,"duration":0.30729166666666785},{"name":"D4","midi":62,"time":18.60546875,"velocity":0.8031496062992126,"duration":0.30729166666666785},{"name":"B4","midi":71,"time":18.60546875,"velocity":0.8031496062992126,"duration":0.30729166666666785},{"name":"C#4","midi":61,"time":18.9140625,"velocity":0.8031496062992126,"duration":0.30729166666666785},{"name":"F#4","midi":66,"time":18.9140625,"velocity":0.8031496062992126,"duration":0.30729166666666785},{"name":"B3","midi":59,"time":19.22265625,"velocity":0.8031496062992126,"duration":0.30729166666666785},{"name":"F#4","midi":66,"time":19.22265625,"velocity":0.8031496062992126,"duration":0.30729166666666785},{"name":"E4","midi":64,"time":19.53125,"velocity":0.8031496062992126,"duration":1.3841145833333321},{"name":"G#4","midi":68,"time":19.53125,"velocity":0.8031496062992126,"duration":2.77734375},{"name":"B4","midi":71,"time":19.841145833333332,"velocity":0.8031496062992126,"duration":0.30729166666666785},{"name":"B4","midi":71,"time":20.149739583333332,"velocity":0.8031496062992126,"duration":0.30729166666666785},{"name":"C#5","midi":73,"time":20.458333333333332,"velocity":0.8031496062992126,"duration":0.30729166666666785},{"name":"E3","midi":52,"time":20.766927083333332,"velocity":0.8031496062992126,"duration":0.30729166666666785},{"name":"B4","midi":71,"time":20.766927083333332,"velocity":0.8031496062992126,"duration":0.30729166666666785},{"name":"F#3","midi":54,"time":21.075520833333332,"velocity":0.8031496062992126,"duration":0.30729166666666785},{"name":"B4","midi":71,"time":21.075520833333332,"velocity":0.8031496062992126,"duration":0.30729166666666785},{"name":"G#3","midi":56,"time":21.384114583333332,"velocity":0.8031496062992126,"duration":0.30729166666666785},{"name":"E5","midi":76,"time":21.384114583333332,"velocity":0.8031496062992126,"duration":0.30729166666666785},{"name":"F#3","midi":54,"time":21.692708333333332,"velocity":0.8031496062992126,"duration":0.30729166666666785},{"name":"B4","midi":71,"time":21.692708333333332,"velocity":0.8031496062992126,"duration":0.30729166666666785},{"name":"E3","midi":52,"time":22.001302083333332,"velocity":0.8031496062992126,"duration":0.30729166666666785},{"name":"B4","midi":71,"time":22.001302083333332,"velocity":0.8031496062992126,"duration":0.30729166666666785},{"name":"A3","midi":57,"time":22.309895833333332,"velocity":0.8031496062992126,"duration":1.3828125},{"name":"A4","midi":69,"time":22.309895833333332,"velocity":0.8031496062992126,"duration":0.30729166666666785},{"name":"C#5","midi":73,"time":22.309895833333332,"velocity":0.8031496062992126,"duration":2.776041666666668},{"name":"E4","midi":64,"time":22.618489583333332,"velocity":0.8031496062992126,"duration":0.30729166666666785},{"name":"E4","midi":64,"time":22.927083333333332,"velocity":0.8031496062992126,"duration":0.30729166666666785},{"name":"F#4","midi":66,"time":23.235677083333332,"velocity":0.8031496062992126,"duration":0.30729166666666785},{"name":"A2","midi":45,"time":23.544270833333332,"velocity":0.8031496062992126,"duration":0.30729166666666785},{"name":"E4","midi":64,"time":23.544270833333332,"velocity":0.8031496062992126,"duration":0.30729166666666785},{"name":"B2","midi":47,"time":23.852864583333332,"velocity":0.8031496062992126,"duration":0.30729166666666785},{"name":"E4","midi":64,"time":23.852864583333332,"velocity":0.8031496062992126,"duration":0.30729166666666785},{"name":"C#3","midi":49,"time":24.161458333333332,"velocity":0.8031496062992126,"duration":0.30729166666666785},{"name":"A4","midi":69,"time":24.161458333333332,"velocity":0.8031496062992126,"duration":0.30729166666666785},{"name":"B2","midi":47,"time":24.470052083333332,"velocity":0.8031496062992126,"duration":0.30729166666666785},{"name":"E4","midi":64,"time":24.470052083333332,"velocity":0.8031496062992126,"duration":0.30729166666666785},{"name":"A2","midi":45,"time":24.778645833333332,"velocity":0.8031496062992126,"duration":0.30729166666666785},{"name":"E4","midi":64,"time":24.778645833333332,"velocity":0.8031496062992126,"duration":0.30729166666666785},{"name":"D3","midi":50,"time":25.087239583333332,"velocity":0.8031496062992126,"duration":1.21484375},{"name":"F#4","midi":66,"time":25.087239583333332,"velocity":0.8031496062992126,"duration":2.77734375},{"name":"A4","midi":69,"time":25.397135416666664,"velocity":0.8031496062992126,"duration":0.30729166666666785},{"name":"A4","midi":69,"time":25.705729166666664,"velocity":0.8031496062992126,"duration":0.30729166666666785},{"name":"B4","midi":71,"time":26.014322916666664,"velocity":0.8031496062992126,"duration":0.30729166666666785},{"name":"D2","midi":38,"time":26.322916666666664,"velocity":0.8031496062992126,"duration":0.30729166666666785},{"name":"A4","midi":69,"time":26.322916666666664,"velocity":0.8031496062992126,"duration":0.30729166666666785},{"name":"E2","midi":40,"time":26.631510416666664,"velocity":0.8031496062992126,"duration":0.30729166666666785},{"name":"A4","midi":69,"time":26.631510416666664,"velocity":0.8031496062992126,"duration":0.30729166666666785},{"name":"F#2","midi":42,"time":26.940104166666664,"velocity":0.8031496062992126,"duration":0.30729166666666785},{"name":"D5","midi":74,"time":26.940104166666664,"velocity":0.8031496062992126,"duration":0.30729166666666785},{"name":"E2","midi":40,"time":27.248697916666664,"velocity":0.8031496062992126,"duration":0.30729166666666785},{"name":"A4","midi":69,"time":27.248697916666664,"velocity":0.8031496062992126,"duration":0.30729166666666785},{"name":"D2","midi":38,"time":27.557291666666664,"velocity":0.8031496062992126,"duration":0.30729166666666785},{"name":"A4","midi":69,"time":27.557291666666664,"velocity":0.8031496062992126,"duration":0.30729166666666785},{"name":"G2","midi":43,"time":27.865885416666664,"velocity":0.8031496062992126,"duration":0.9257812499999964},{"name":"G4","midi":67,"time":27.865885416666664,"velocity":0.8031496062992126,"duration":0.4479166666666643},{"name":"B4","midi":71,"time":27.865885416666664,"velocity":0.8031496062992126,"duration":0.16796875},{"name":"D5","midi":74,"time":28.020833333333332,"velocity":0.8031496062992126,"duration":0.16796874999999645},{"name":"B4","midi":71,"time":28.175781249999996,"velocity":0.8031496062992126,"duration":0.1666666666666643},{"name":"G4","midi":67,"time":28.32942708333333,"velocity":0.8031496062992126,"duration":0.30598958333333215},{"name":"B4","midi":71,"time":28.484374999999993,"velocity":0.8031496062992126,"duration":0.16666666666666785},{"name":"G4","midi":67,"time":28.63802083333333,"velocity":0.8031496062992126,"duration":0.16796874999999645},{"name":"G3","midi":55,"time":28.792968749999993,"velocity":0.8031496062992126,"duration":0.15364583333333215},{"name":"E4","midi":64,"time":28.792968749999993,"velocity":0.8031496062992126,"duration":0.9036458333333215},{"name":"B3","midi":59,"time":28.947916666666657,"velocity":0.8031496062992126,"duration":0.15364583333333215},{"name":"G3","midi":55,"time":29.10286458333332,"velocity":0.8031496062992126,"duration":0.15364583333333215},{"name":"E3","midi":52,"time":29.257812499999986,"velocity":0.8031496062992126,"duration":0.15364583333333215},{"name":"G3","midi":55,"time":29.41276041666665,"velocity":0.8031496062992126,"duration":0.15364583333333215},{"name":"E3","midi":52,"time":29.567708333333314,"velocity":0.8031496062992126,"duration":0.15364583333333215},{"name":"C#3","midi":49,"time":29.72265624999998,"velocity":0.8031496062992126,"duration":0.15364583333333215},{"name":"E5","midi":76,"time":29.72265624999998,"velocity":0.8031496062992126,"duration":0.16796874999999645},{"name":"E3","midi":52,"time":29.877604166666643,"velocity":0.8031496062992126,"duration":0.15364583333333215},{"name":"G5","midi":79,"time":29.877604166666643,"velocity":0.8031496062992126,"duration":0.16796874999999645},{"name":"C#3","midi":49,"time":30.032552083333307,"velocity":0.8031496062992126,"duration":0.15364583333333215},{"name":"E5","midi":76,"time":30.032552083333307,"velocity":0.8031496062992126,"duration":0.16796874999999645},{"name":"A2","midi":45,"time":30.18749999999997,"velocity":0.8031496062992126,"duration":0.15364583333333215},{"name":"C#5","midi":73,"time":30.18749999999997,"velocity":0.8031496062992126,"duration":0.16796874999999645},{"name":"C#3","midi":49,"time":30.342447916666636,"velocity":0.8031496062992126,"duration":0.15364583333333215},{"name":"E5","midi":76,"time":30.342447916666636,"velocity":0.8031496062992126,"duration":0.16796874999999645},{"name":"A2","midi":45,"time":30.4973958333333,"velocity":0.8031496062992126,"duration":0.15364583333333215},{"name":"C#5","midi":73,"time":30.4973958333333,"velocity":0.8031496062992126,"duration":0.16796874999999645},{"name":"F#2","midi":42,"time":30.652343749999964,"velocity":0.8031496062992126,"duration":0.9036458333333215},{"name":"A4","midi":69,"time":30.652343749999964,"velocity":0.8031496062992126,"duration":0.16796874999999645},{"name":"C#5","midi":73,"time":30.80729166666663,"velocity":0.8031496062992126,"duration":0.16796874999999645},{"name":"A4","midi":69,"time":30.962239583333293,"velocity":0.8031496062992126,"duration":0.16796874999999645},{"name":"F#4","midi":66,"time":31.117187499999957,"velocity":0.8031496062992126,"duration":0.16796874999999645},{"name":"A4","midi":69,"time":31.27213541666662,"velocity":0.8031496062992126,"duration":0.16796874999999645},{"name":"F#4","midi":66,"time":31.427083333333286,"velocity":0.8031496062992126,"duration":0.16796875},{"name":"F#3","midi":54,"time":31.582031249999954,"velocity":0.8031496062992126,"duration":0.15364583333333215},{"name":"D4","midi":62,"time":31.582031249999954,"velocity":0.8031496062992126,"duration":0.9036458333333393},{"name":"A3","midi":57,"time":31.736979166666618,"velocity":0.8031496062992126,"duration":0.15364583333333215},{"name":"F#3","midi":54,"time":31.891927083333282,"velocity":0.8031496062992126,"duration":0.15364583333333215},{"name":"D3","midi":50,"time":32.04687499999995,"velocity":0.8031496062992126,"duration":0.1536458333333357},{"name":"F#3","midi":54,"time":32.20182291666662,"velocity":0.8031496062992126,"duration":0.1536458333333357},{"name":"D3","midi":50,"time":32.35677083333329,"velocity":0.8031496062992126,"duration":0.1536458333333357},{"name":"B2","midi":47,"time":32.511718749999964,"velocity":0.8031496062992126,"duration":0.1536458333333357},{"name":"D5","midi":74,"time":32.511718749999964,"velocity":0.8031496062992126,"duration":0.1679687500000071},{"name":"D3","midi":50,"time":32.666666666666636,"velocity":0.8031496062992126,"duration":0.1536458333333357},{"name":"F#5","midi":78,"time":32.666666666666636,"velocity":0.8031496062992126,"duration":0.1679687500000071},{"name":"B2","midi":47,"time":32.82161458333331,"velocity":0.8031496062992126,"duration":0.1536458333333357},{"name":"D5","midi":74,"time":32.82161458333331,"velocity":0.8031496062992126,"duration":0.1679687500000071},{"name":"G2","midi":43,"time":32.97656249999998,"velocity":0.8031496062992126,"duration":0.1536458333333357},{"name":"B4","midi":71,"time":32.97656249999998,"velocity":0.8031496062992126,"duration":0.1679687500000071},{"name":"B2","midi":47,"time":33.13151041666665,"velocity":0.8031496062992126,"duration":0.1536458333333357},{"name":"D5","midi":74,"time":33.13151041666665,"velocity":0.8031496062992126,"duration":0.1679687500000071},{"name":"G2","midi":43,"time":33.28645833333332,"velocity":0.8031496062992126,"duration":0.1536458333333357},{"name":"B4","midi":71,"time":33.28645833333332,"velocity":0.8031496062992126,"duration":0.1679687500000071},{"name":"E2","midi":40,"time":33.44140624999999,"velocity":0.8031496062992126,"duration":0.903645833333357},{"name":"G4","midi":67,"time":33.44140624999999,"velocity":0.8031496062992126,"duration":0.1679687500000071},{"name":"B4","midi":71,"time":33.596354166666664,"velocity":0.8031496062992126,"duration":0.1679687500000071},{"name":"G4","midi":67,"time":33.751302083333336,"velocity":0.8031496062992126,"duration":0.1679687500000071},{"name":"E4","midi":64,"time":33.90625000000001,"velocity":0.8031496062992126,"duration":0.1679687500000071},{"name":"G4","midi":67,"time":34.06119791666668,"velocity":0.8031496062992126,"duration":0.1679687500000071},{"name":"E4","midi":64,"time":34.21614583333335,"velocity":0.8031496062992126,"duration":0.16796875},{"name":"E3","midi":52,"time":34.371093750000014,"velocity":0.8031496062992126,"duration":0.1536458333333357},{"name":"C#4","midi":61,"time":34.371093750000014,"velocity":0.8031496062992126,"duration":0.1679687500000071},{"name":"G3","midi":55,"time":34.526041666666686,"velocity":0.8031496062992126,"duration":0.1536458333333357},{"name":"E4","midi":64,"time":34.526041666666686,"velocity":0.8031496062992126,"duration":0.1679687500000071},{"name":"E3","midi":52,"time":34.68098958333336,"velocity":0.8031496062992126,"duration":0.1536458333333357},{"name":"C#4","midi":61,"time":34.68098958333336,"velocity":0.8031496062992126,"duration":0.1679687500000071},{"name":"C#3","midi":49,"time":34.83593750000003,"velocity":0.8031496062992126,"duration":0.1536458333333357},{"name":"A3","midi":57,"time":34.83593750000003,"velocity":0.8031496062992126,"duration":0.1679687500000071},{"name":"E3","midi":52,"time":34.9908854166667,"velocity":0.8031496062992126,"duration":0.1536458333333357},{"name":"C#4","midi":61,"time":34.9908854166667,"velocity":0.8031496062992126,"duration":0.1679687500000071},{"name":"C#3","midi":49,"time":35.14583333333337,"velocity":0.8031496062992126,"duration":0.1536458333333357},{"name":"A3","midi":57,"time":35.14583333333337,"velocity":0.8031496062992126,"duration":0.1679687500000071},{"name":"A2","midi":45,"time":35.30078125000004,"velocity":0.8031496062992126,"duration":0.1536458333333357},{"name":"A4","midi":69,"time":35.30078125000004,"velocity":0.8031496062992126,"duration":0.3085937500000071},{"name":"C#3","midi":49,"time":35.455729166666714,"velocity":0.8031496062992126,"duration":0.1536458333333357},{"name":"A2","midi":45,"time":35.610677083333385,"velocity":0.8031496062992126,"duration":0.1536458333333357},{"name":"F#4","midi":66,"time":35.610677083333385,"velocity":0.8031496062992126,"duration":0.3085937500000071},{"name":"F#2","midi":42,"time":35.76562500000006,"velocity":0.8031496062992126,"duration":0.1536458333333357},{"name":"A2","midi":45,"time":35.92057291666673,"velocity":0.8031496062992126,"duration":0.1536458333333357},{"name":"G4","midi":67,"time":35.92057291666673,"velocity":0.8031496062992126,"duration":0.3085937500000071},{"name":"F#2","midi":42,"time":36.0755208333334,"velocity":0.8031496062992126,"duration":0.1536458333333357},{"name":"D2","midi":38,"time":36.23046875000007,"velocity":0.8031496062992126,"duration":1.0455729166666643},{"name":"D4","midi":62,"time":36.23046875000007,"velocity":0.8031496062992126,"duration":0.3072916666666643},{"name":"F#4","midi":66,"time":36.23046875000007,"velocity":0.8031496062992126,"duration":2.77734375},{"name":"A3","midi":57,"time":36.53906250000007,"velocity":0.8031496062992126,"duration":0.3072916666666643},{"name":"A3","midi":57,"time":36.84765625000007,"velocity":0.8031496062992126,"duration":0.3072916666666643},{"name":"B3","midi":59,"time":37.15625000000007,"velocity":0.8031496062992126,"duration":0.30859375},{"name":"D2","midi":38,"time":37.46614583333341,"velocity":0.8031496062992126,"duration":0.3072916666666643},{"name":"A3","midi":57,"time":37.46614583333341,"velocity":0.8031496062992126,"duration":0.3072916666666643},{"name":"E2","midi":40,"time":37.77473958333341,"velocity":0.8031496062992126,"duration":0.3072916666666643},{"name":"A3","midi":57,"time":37.77473958333341,"velocity":0.8031496062992126,"duration":0.3072916666666643},{"name":"F#2","midi":42,"time":38.08333333333341,"velocity":0.8031496062992126,"duration":0.3072916666666643},{"name":"D4","midi":62,"time":38.08333333333341,"velocity":0.8031496062992126,"duration":0.3072916666666643},{"name":"E2","midi":40,"time":38.39192708333341,"velocity":0.8031496062992126,"duration":0.3072916666666643},{"name":"A3","midi":57,"time":38.39192708333341,"velocity":0.8031496062992126,"duration":0.3072916666666643},{"name":"D2","midi":38,"time":38.70052083333341,"velocity":0.8031496062992126,"duration":0.3072916666666643},{"name":"A3","midi":57,"time":38.70052083333341,"velocity":0.8031496062992126,"duration":0.3072916666666643},{"name":"C#2","midi":37,"time":39.00911458333341,"velocity":0.8031496062992126,"duration":1.1419270833333357},{"name":"E4","midi":64,"time":39.00911458333341,"velocity":0.8031496062992126,"duration":0.3072916666666643},{"name":"A3","midi":57,"time":39.31770833333341,"velocity":0.8031496062992126,"duration":0.3072916666666643},{"name":"A3","midi":57,"time":39.62630208333341,"velocity":0.8031496062992126,"duration":0.3072916666666643},{"name":"B3","midi":59,"time":39.93489583333341,"velocity":0.8031496062992126,"duration":0.30859375},{"name":"A2","midi":45,"time":40.24479166666674,"velocity":0.8031496062992126,"duration":0.3072916666666643},{"name":"A3","midi":57,"time":40.24479166666674,"velocity":0.8031496062992126,"duration":0.3072916666666643},{"name":"B2","midi":47,"time":40.55338541666674,"velocity":0.8031496062992126,"duration":0.3072916666666643},{"name":"A3","midi":57,"time":40.55338541666674,"velocity":0.8031496062992126,"duration":0.3072916666666643},{"name":"C#3","midi":49,"time":40.86197916666674,"velocity":0.8031496062992126,"duration":0.3072916666666643},{"name":"E4","midi":64,"time":40.86197916666674,"velocity":0.8031496062992126,"duration":0.3072916666666643},{"name":"B2","midi":47,"time":41.17057291666674,"velocity":0.8031496062992126,"duration":0.3072916666666643},{"name":"A3","midi":57,"time":41.17057291666674,"velocity":0.8031496062992126,"duration":0.3072916666666643},{"name":"A2","midi":45,"time":41.47916666666674,"velocity":0.8031496062992126,"duration":0.3072916666666643},{"name":"A3","midi":57,"time":41.47916666666674,"velocity":0.8031496062992126,"duration":0.3072916666666643},{"name":"D3","midi":50,"time":41.78776041666674,"velocity":0.8031496062992126,"duration":1.1783854166666927},{"name":"F#4","midi":66,"time":41.78776041666674,"velocity":0.8031496062992126,"duration":0.15625},{"name":"D4","midi":62,"time":41.94270833333341,"velocity":0.8031496062992126,"duration":0.1562500000000071},{"name":"F#4","midi":66,"time":42.09765625000008,"velocity":0.8031496062992126,"duration":0.1562500000000071},{"name":"A4","midi":69,"time":42.25260416666675,"velocity":0.8031496062992126,"duration":0.1562500000000071},{"name":"D5","midi":74,"time":42.40755208333342,"velocity":0.8031496062992126,"duration":0.1562500000000071},{"name":"B4","midi":71,"time":42.56250000000009,"velocity":0.8031496062992126,"duration":0.1562500000000071},{"name":"G#4","midi":68,"time":42.717447916666764,"velocity":0.8031496062992126,"duration":0.1562500000000071},{"name":"B4","midi":71,"time":42.872395833333435,"velocity":0.8031496062992126,"duration":0.15625},{"name":"E3","midi":52,"time":43.0273437500001,"velocity":0.8031496062992126,"duration":0.3072916666666714},{"name":"G#4","midi":68,"time":43.0273437500001,"velocity":0.8031496062992126,"duration":0.1562500000000071},{"name":"E4","midi":64,"time":43.18229166666677,"velocity":0.8031496062992126,"duration":0.1549479166666714},{"name":"F#3","midi":54,"time":43.33593750000011,"velocity":0.8031496062992126,"duration":0.3072916666666714},{"name":"G#4","midi":68,"time":43.33593750000011,"velocity":0.8031496062992126,"duration":0.1562500000000071},{"name":"E4","midi":64,"time":43.49088541666678,"velocity":0.8031496062992126,"duration":0.1549479166666714},{"name":"E3","midi":52,"time":43.644531250000114,"velocity":0.8031496062992126,"duration":0.3072916666666714},{"name":"B3","midi":59,"time":43.644531250000114,"velocity":0.8031496062992126,"duration":0.1562500000000071},{"name":"E4","midi":64,"time":43.799479166666785,"velocity":0.8031496062992126,"duration":0.1549479166666714},{"name":"F#3","midi":54,"time":43.95312500000012,"velocity":0.8031496062992126,"duration":0.3072916666666714},{"name":"B3","midi":59,"time":43.95312500000012,"velocity":0.8031496062992126,"duration":0.1562500000000071},{"name":"G#3","midi":56,"time":44.10807291666679,"velocity":0.8031496062992126,"duration":0.1549479166666714},{"name":"D3","midi":50,"time":44.26171875000013,"velocity":0.8031496062992126,"duration":0.3072916666666714},{"name":"B3","midi":59,"time":44.26171875000013,"velocity":0.8031496062992126,"duration":0.1562500000000071},{"name":"G#3","midi":56,"time":44.4166666666668,"velocity":0.8031496062992126,"duration":0.1549479166666714},{"name":"C#3","midi":49,"time":44.570312500000135,"velocity":0.8031496062992126,"duration":1.093750000000007},{"name":"E3","midi":52,"time":44.570312500000135,"velocity":0.8031496062992126,"duration":1.234375000000007},{"name":"A4","midi":69,"time":44.570312500000135,"velocity":0.8031496062992126,"duration":0.3072916666666714},{"name":"E4","midi":64,"time":44.87890625000014,"velocity":0.8031496062992126,"duration":0.3072916666666643},{"name":"E4","midi":64,"time":45.18750000000014,"velocity":0.8031496062992126,"duration":0.3072916666666643},{"name":"F#4","midi":66,"time":45.49609375000014,"velocity":0.8031496062992126,"duration":0.30859375},{"name":"A3","midi":57,"time":45.80598958333348,"velocity":0.8031496062992126,"duration":0.3072916666666643},{"name":"E4","midi":64,"time":45.80598958333348,"velocity":0.8031496062992126,"duration":0.3072916666666643},{"name":"B3","midi":59,"time":46.11458333333348,"velocity":0.8031496062992126,"duration":0.3072916666666643},{"name":"E4","midi":64,"time":46.11458333333348,"velocity":0.8031496062992126,"duration":0.3072916666666643},{"name":"C#4","midi":61,"time":46.42317708333348,"velocity":0.8031496062992126,"duration":0.3072916666666643},{"name":"A4","midi":69,"time":46.42317708333348,"velocity":0.8031496062992126,"duration":0.3072916666666643},{"name":"B3","midi":59,"time":46.73177083333348,"velocity":0.8031496062992126,"duration":0.3072916666666643},{"name":"E4","midi":64,"time":46.73177083333348,"velocity":0.8031496062992126,"duration":0.3072916666666643},{"name":"A3","midi":57,"time":47.04036458333348,"velocity":0.8031496062992126,"duration":0.3072916666666643},{"name":"E4","midi":64,"time":47.04036458333348,"velocity":0.8031496062992126,"duration":0.3072916666666643},{"name":"G#3","midi":56,"time":47.34895833333348,"velocity":0.8031496062992126,"duration":1.234375},{"name":"E3","midi":52,"time":47.34895833333348,"velocity":0.8031496062992126,"duration":1.09375},{"name":"B4","midi":71,"time":47.34895833333348,"velocity":0.8031496062992126,"duration":0.3072916666666643},{"name":"E4","midi":64,"time":47.65755208333348,"velocity":0.8031496062992126,"duration":0.3072916666666643},{"name":"E4","midi":64,"time":47.96614583333348,"velocity":0.8031496062992126,"duration":0.3072916666666643},{"name":"F#4","midi":66,"time":48.27473958333348,"velocity":0.8031496062992126,"duration":0.30859375},{"name":"A3","midi":57,"time":48.58463541666681,"velocity":0.8031496062992126,"duration":0.3072916666666643},{"name":"E4","midi":64,"time":48.58463541666681,"velocity":0.8031496062992126,"duration":0.3072916666666643},{"name":"B3","midi":59,"time":48.89322916666681,"velocity":0.8031496062992126,"duration":0.3072916666666643},{"name":"E4","midi":64,"time":48.89322916666681,"velocity":0.8031496062992126,"duration":0.3072916666666643},{"name":"A3","midi":57,"time":49.20182291666681,"velocity":0.8031496062992126,"duration":0.3072916666666643},{"name":"B4","midi":71,"time":49.20182291666681,"velocity":0.8031496062992126,"duration":0.3072916666666643},{"name":"B3","midi":59,"time":49.51041666666681,"velocity":0.8031496062992126,"duration":0.3072916666666643},{"name":"E4","midi":64,"time":49.51041666666681,"velocity":0.8031496062992126,"duration":0.3072916666666643},{"name":"G#3","midi":56,"time":49.81901041666681,"velocity":0.8031496062992126,"duration":0.3072916666666643},{"name":"E4","midi":64,"time":49.81901041666681,"velocity":0.8031496062992126,"duration":0.3072916666666643},{"name":"A2","midi":45,"time":50.12760416666681,"velocity":0.8031496062992126,"duration":0.9283854166666856},{"name":"A3","midi":57,"time":50.12760416666681,"velocity":0.8031496062992126,"duration":1.2382812500000284},{"name":"C#5","midi":73,"time":50.12760416666681,"velocity":0.8031496062992126,"duration":0.16796875},{"name":"A4","midi":69,"time":50.28255208333348,"velocity":0.8031496062992126,"duration":0.1679687500000071},{"name":"C#5","midi":73,"time":50.43750000000015,"velocity":0.8031496062992126,"duration":0.1679687500000071},{"name":"E5","midi":76,"time":50.59244791666682,"velocity":0.8031496062992126,"duration":0.1679687500000071},{"name":"A5","midi":81,"time":50.74739583333349,"velocity":0.8031496062992126,"duration":0.1679687500000071},{"name":"F#5","midi":78,"time":50.90234375000016,"velocity":0.8031496062992126,"duration":0.1679687500000071},{"name":"F#3","midi":54,"time":51.057291666666835,"velocity":0.8031496062992126,"duration":0.774739583333357},{"name":"D#5","midi":75,"time":51.057291666666835,"velocity":0.8031496062992126,"duration":0.1679687500000071},{"name":"F#5","midi":78,"time":51.212239583333506,"velocity":0.8031496062992126,"duration":0.1679687500000071},{"name":"B3","midi":59,"time":51.36718750000018,"velocity":0.8031496062992126,"duration":0.3085937500000071},{"name":"D#5","midi":75,"time":51.36718750000018,"velocity":0.8031496062992126,"duration":0.1679687500000071},{"name":"B4","midi":71,"time":51.52213541666685,"velocity":0.8031496062992126,"duration":0.1679687500000071},{"name":"C4","midi":60,"time":51.67708333333352,"velocity":0.8031496062992126,"duration":0.3085937500000071},{"name":"D#5","midi":75,"time":51.67708333333352,"velocity":0.8031496062992126,"duration":0.1679687500000071},{"name":"B4","midi":71,"time":51.83203125000019,"velocity":0.8031496062992126,"duration":0.1679687500000071},{"name":"B3","midi":59,"time":51.98697916666686,"velocity":0.8031496062992126,"duration":0.3085937500000071},{"name":"F#4","midi":66,"time":51.98697916666686,"velocity":0.8031496062992126,"duration":0.1679687500000071},{"name":"B4","midi":71,"time":52.141927083333535,"velocity":0.8031496062992126,"duration":0.1679687500000071},{"name":"C4","midi":60,"time":52.296875000000206,"velocity":0.8031496062992126,"duration":0.3085937500000071},{"name":"F#4","midi":66,"time":52.296875000000206,"velocity":0.8031496062992126,"duration":0.1679687500000071},{"name":"D#4","midi":63,"time":52.45182291666688,"velocity":0.8031496062992126,"duration":0.1679687500000071},{"name":"A3","midi":57,"time":52.60677083333355,"velocity":0.8031496062992126,"duration":0.3085937500000071},{"name":"F#4","midi":66,"time":52.60677083333355,"velocity":0.8031496062992126,"duration":0.1679687500000071},{"name":"D#4","midi":63,"time":52.76171875000022,"velocity":0.8031496062992126,"duration":0.1679687500000071},{"name":"G3","midi":55,"time":52.91666666666689,"velocity":0.8031496062992126,"duration":1.234375},{"name":"E4","midi":64,"time":52.91666666666689,"velocity":0.8031496062992126,"duration":0.92578125},{"name":"B3","midi":59,"time":53.22656250000023,"velocity":0.8031496062992126,"duration":0.3072916666666643},{"name":"B3","midi":59,"time":53.53515625000023,"velocity":0.8031496062992126,"duration":0.3072916666666643},{"name":"C4","midi":60,"time":53.84375000000023,"velocity":0.8031496062992126,"duration":0.3072916666666643},{"name":"E3","midi":52,"time":54.15234375000023,"velocity":0.8031496062992126,"duration":0.3072916666666643},{"name":"B3","midi":59,"time":54.15234375000023,"velocity":0.8031496062992126,"duration":0.3072916666666643},{"name":"F#3","midi":54,"time":54.46093750000023,"velocity":0.8031496062992126,"duration":0.3072916666666643},{"name":"B3","midi":59,"time":54.46093750000023,"velocity":0.8031496062992126,"duration":0.3072916666666643},{"name":"G3","midi":55,"time":54.76953125000023,"velocity":0.8031496062992126,"duration":0.3072916666666643},{"name":"E4","midi":64,"time":54.76953125000023,"velocity":0.8031496062992126,"duration":0.3072916666666643},{"name":"G4","midi":67,"time":54.76953125000023,"velocity":0.8031496062992126,"duration":1.2330729166666643},{"name":"F#3","midi":54,"time":55.07812500000023,"velocity":0.8031496062992126,"duration":0.3072916666666643},{"name":"B3","midi":59,"time":55.07812500000023,"velocity":0.8031496062992126,"duration":0.3072916666666643},{"name":"E3","midi":52,"time":55.38671875000023,"velocity":0.8031496062992126,"duration":0.3072916666666643},{"name":"B3","midi":59,"time":55.38671875000023,"velocity":0.8031496062992126,"duration":0.3072916666666643},{"name":"A3","midi":57,"time":55.69531250000023,"velocity":0.8031496062992126,"duration":1.3828125},{"name":"C#4","midi":61,"time":55.69531250000023,"velocity":0.8031496062992126,"duration":2.7760416666666643},{"name":"E4","midi":64,"time":56.00390625000023,"velocity":0.8031496062992126,"duration":0.3072916666666643},{"name":"E4","midi":64,"time":56.31250000000023,"velocity":0.8031496062992126,"duration":0.3072916666666643},{"name":"F#4","midi":66,"time":56.62109375000023,"velocity":0.8031496062992126,"duration":0.3072916666666643},{"name":"A2","midi":45,"time":56.92968750000023,"velocity":0.8031496062992126,"duration":0.3072916666666643},{"name":"E4","midi":64,"time":56.92968750000023,"velocity":0.8031496062992126,"duration":0.3072916666666643},{"name":"B2","midi":47,"time":57.23828125000023,"velocity":0.8031496062992126,"duration":0.3072916666666643},{"name":"E4","midi":64,"time":57.23828125000023,"velocity":0.8031496062992126,"duration":0.3072916666666643},{"name":"C#3","midi":49,"time":57.54687500000023,"velocity":0.8031496062992126,"duration":0.3072916666666643},{"name":"A4","midi":69,"time":57.54687500000023,"velocity":0.8031496062992126,"duration":0.3072916666666643},{"name":"B2","midi":47,"time":57.85546875000023,"velocity":0.8031496062992126,"duration":0.3072916666666643},{"name":"E4","midi":64,"time":57.85546875000023,"velocity":0.8031496062992126,"duration":0.3072916666666643},{"name":"A2","midi":45,"time":58.16406250000023,"velocity":0.8031496062992126,"duration":0.3072916666666643},{"name":"E4","midi":64,"time":58.16406250000023,"velocity":0.8031496062992126,"duration":0.3072916666666643},{"name":"D3","midi":50,"time":58.47265625000023,"velocity":0.8031496062992126,"duration":1.21484375},{"name":"F#4","midi":66,"time":58.47265625000023,"velocity":0.8031496062992126,"duration":2.77734375},{"name":"A3","midi":57,"time":58.78255208333356,"velocity":0.8031496062992126,"duration":0.3072916666666643},{"name":"A3","midi":57,"time":59.09114583333356,"velocity":0.8031496062992126,"duration":0.3072916666666643},{"name":"B3","midi":59,"time":59.39973958333356,"velocity":0.8031496062992126,"duration":0.3072916666666643},{"name":"D3","midi":50,"time":59.70833333333356,"velocity":0.8031496062992126,"duration":0.3072916666666643},{"name":"A3","midi":57,"time":59.70833333333356,"velocity":0.8031496062992126,"duration":0.3072916666666643},{"name":"E3","midi":52,"time":60.01692708333356,"velocity":0.8031496062992126,"duration":0.3072916666666643},{"name":"A3","midi":57,"time":60.01692708333356,"velocity":0.8031496062992126,"duration":0.3072916666666643},{"name":"F#3","midi":54,"time":60.32552083333356,"velocity":0.8031496062992126,"duration":0.3072916666666643},{"name":"D4","midi":62,"time":60.32552083333356,"velocity":0.8031496062992126,"duration":0.3072916666666643},{"name":"E3","midi":52,"time":60.63411458333356,"velocity":0.8031496062992126,"duration":0.3072916666666643},{"name":"A3","midi":57,"time":60.63411458333356,"velocity":0.8031496062992126,"duration":0.3072916666666643},{"name":"D3","midi":50,"time":60.94270833333356,"velocity":0.8031496062992126,"duration":0.3072916666666643},{"name":"A3","midi":57,"time":60.94270833333356,"velocity":0.8031496062992126,"duration":0.3072916666666643},{"name":"G3","midi":55,"time":61.25130208333356,"velocity":0.8031496062992126,"duration":1.21484375},{"name":"B3","midi":59,"time":61.25130208333356,"velocity":0.8031496062992126,"duration":2.777343750000007},{"name":"D4","midi":62,"time":61.5611979166669,"velocity":0.8031496062992126,"duration":0.3072916666666643},{"name":"D4","midi":62,"time":61.8697916666669,"velocity":0.8031496062992126,"duration":0.3072916666666643},{"name":"E4","midi":64,"time":62.1783854166669,"velocity":0.8031496062992126,"duration":0.3072916666666643},{"name":"G3","midi":55,"time":62.4869791666669,"velocity":0.8031496062992126,"duration":0.3072916666666643},{"name":"D4","midi":62,"time":62.4869791666669,"velocity":0.8031496062992126,"duration":0.3072916666666643},{"name":"F#3","midi":54,"time":62.7955729166669,"velocity":0.8031496062992126,"duration":0.3072916666666643},{"name":"D4","midi":62,"time":62.7955729166669,"velocity":0.8031496062992126,"duration":0.3072916666666643},{"name":"E3","midi":52,"time":63.1041666666669,"velocity":0.8031496062992126,"duration":0.3072916666666643},{"name":"G4","midi":67,"time":63.1041666666669,"velocity":0.8031496062992126,"duration":0.3072916666666643},{"name":"F#3","midi":54,"time":63.4127604166669,"velocity":0.8031496062992126,"duration":0.3072916666666643},{"name":"D4","midi":62,"time":63.4127604166669,"velocity":0.8031496062992126,"duration":0.3072916666666643},{"name":"G3","midi":55,"time":63.7213541666669,"velocity":0.8031496062992126,"duration":0.3072916666666714},{"name":"D4","midi":62,"time":63.7213541666669,"velocity":0.8031496062992126,"duration":0.3072916666666714},{"name":"C#3","midi":49,"time":64.0299479166669,"velocity":0.8031496062992126,"duration":1.21484375},{"name":"E4","midi":64,"time":64.0299479166669,"velocity":0.8031496062992126,"duration":2.77734375},{"name":"G#3","midi":56,"time":64.33984375000023,"velocity":0.8031496062992126,"duration":0.3072916666666714},{"name":"G#3","midi":56,"time":64.64843750000023,"velocity":0.8031496062992126,"duration":0.3072916666666714},{"name":"A3","midi":57,"time":64.95703125000023,"velocity":0.8031496062992126,"duration":0.3072916666666714},{"name":"C#3","midi":49,"time":65.26562500000023,"velocity":0.8031496062992126,"duration":0.3072916666666714},{"name":"G#3","midi":56,"time":65.26562500000023,"velocity":0.8031496062992126,"duration":0.3072916666666714},{"name":"B2","midi":47,"time":65.57421875000023,"velocity":0.8031496062992126,"duration":0.3072916666666714},{"name":"G#3","midi":56,"time":65.57421875000023,"velocity":0.8031496062992126,"duration":0.3072916666666714},{"name":"A#2","midi":46,"time":65.88281250000023,"velocity":0.8031496062992126,"duration":0.3072916666666714},{"name":"C#4","midi":61,"time":65.88281250000023,"velocity":0.8031496062992126,"duration":0.3072916666666714},{"name":"B2","midi":47,"time":66.19140625000023,"velocity":0.8031496062992126,"duration":0.3072916666666714},{"name":"G#3","midi":56,"time":66.19140625000023,"velocity":0.8031496062992126,"duration":0.3072916666666714},{"name":"C#3","midi":49,"time":66.50000000000023,"velocity":0.8031496062992126,"duration":0.3072916666666714},{"name":"G#3","midi":56,"time":66.50000000000023,"velocity":0.8031496062992126,"duration":0.3072916666666714},{"name":"F#2","midi":42,"time":66.80859375000023,"velocity":0.8031496062992126,"duration":1.20703125},{"name":"A#3","midi":58,"time":66.80859375000023,"velocity":0.8031496062992126,"duration":1.20703125},{"name":"C#4","midi":61,"time":67.11848958333356,"velocity":0.8031496062992126,"duration":0.3072916666666714},{"name":"C#4","midi":61,"time":67.42708333333356,"velocity":0.8031496062992126,"duration":0.3072916666666714},{"name":"D4","midi":62,"time":67.73567708333356,"velocity":0.8031496062992126,"duration":0.3072916666666714},{"name":"F#3","midi":54,"time":68.04427083333356,"velocity":0.8031496062992126,"duration":0.3072916666666714},{"name":"C#4","midi":61,"time":68.04427083333356,"velocity":0.8031496062992126,"duration":0.3072916666666714},{"name":"E3","midi":52,"time":68.35286458333356,"velocity":0.8031496062992126,"duration":0.3072916666666714},{"name":"C#4","midi":61,"time":68.35286458333356,"velocity":0.8031496062992126,"duration":0.3072916666666714},{"name":"D3","midi":50,"time":68.66145833333356,"velocity":0.8031496062992126,"duration":0.3072916666666714},{"name":"F#4","midi":66,"time":68.66145833333356,"velocity":0.8031496062992126,"duration":0.3072916666666714},{"name":"E3","midi":52,"time":68.97005208333356,"velocity":0.8031496062992126,"duration":0.3072916666666714},{"name":"C#4","midi":61,"time":68.97005208333356,"velocity":0.8031496062992126,"duration":0.3072916666666714},{"name":"F#3","midi":54,"time":69.27864583333356,"velocity":0.8031496062992126,"duration":0.3072916666666714},{"name":"C#4","midi":61,"time":69.27864583333356,"velocity":0.8031496062992126,"duration":0.3072916666666714},{"name":"B2","midi":47,"time":69.58723958333356,"velocity":0.8031496062992126,"duration":0.9270833333333002},{"name":"B3","midi":59,"time":69.58723958333356,"velocity":0.8031496062992126,"duration":0.14453125},{"name":"D4","midi":62,"time":69.58723958333356,"velocity":0.8031496062992126,"duration":0.1666666666666572},{"name":"B3","midi":59,"time":69.74088541666688,"velocity":0.8031496062992126,"duration":0.7747395833333002},{"name":"D4","midi":62,"time":69.89583333333354,"velocity":0.8031496062992126,"duration":0.16796875},{"name":"F#4","midi":66,"time":70.05078125000021,"velocity":0.8031496062992126,"duration":0.1679687499999858},{"name":"D4","midi":62,"time":70.20572916666687,"velocity":0.8031496062992126,"duration":0.1679687499999858},{"name":"F#4","midi":66,"time":70.36067708333353,"velocity":0.8031496062992126,"duration":0.1679687499999858},{"name":"D3","midi":50,"time":70.51562500000018,"velocity":0.8031496062992126,"duration":0.1536458333333286},{"name":"B4","midi":71,"time":70.51562500000018,"velocity":0.8031496062992126,"duration":0.1679687499999858},{"name":"B2","midi":47,"time":70.67057291666684,"velocity":0.8031496062992126,"duration":0.1536458333333286},{"name":"F#4","midi":66,"time":70.67057291666684,"velocity":0.8031496062992126,"duration":0.1679687499999858},{"name":"D3","midi":50,"time":70.8255208333335,"velocity":0.8031496062992126,"duration":0.1536458333333286},{"name":"B4","midi":71,"time":70.8255208333335,"velocity":0.8031496062992126,"duration":0.1679687499999858},{"name":"F#3","midi":54,"time":70.98046875000016,"velocity":0.8031496062992126,"duration":0.1536458333333286},{"name":"D5","midi":74,"time":70.98046875000016,"velocity":0.8031496062992126,"duration":0.1679687499999858},{"name":"D3","midi":50,"time":71.13541666666681,"velocity":0.8031496062992126,"duration":0.1536458333333286},{"name":"B4","midi":71,"time":71.13541666666681,"velocity":0.8031496062992126,"duration":0.1679687499999858},{"name":"F#3","midi":54,"time":71.29036458333347,"velocity":0.8031496062992126,"duration":0.1536458333333286},{"name":"D5","midi":74,"time":71.29036458333347,"velocity":0.8031496062992126,"duration":0.1679687499999858},{"name":"B3","midi":59,"time":71.44531250000013,"velocity":0.8031496062992126,"duration":0.1536458333333286},{"name":"G5","midi":79,"time":71.44531250000013,"velocity":0.8031496062992126,"duration":0.888020833333286},{"name":"G3","midi":55,"time":71.60026041666679,"velocity":0.8031496062992126,"duration":0.1536458333333286},{"name":"B3","midi":59,"time":71.75520833333344,"velocity":0.8031496062992126,"duration":0.1536458333333286},{"name":"E4","midi":64,"time":71.9101562500001,"velocity":0.8031496062992126,"duration":0.1536458333333286},{"name":"B3","midi":59,"time":72.06510416666676,"velocity":0.8031496062992126,"duration":0.1536458333333286},{"name":"E4","midi":64,"time":72.22005208333341,"velocity":0.8031496062992126,"duration":0.1536458333333286},{"name":"G4","midi":67,"time":72.37500000000007,"velocity":0.8031496062992126,"duration":0.8880208333333002},{"name":"C#4","midi":61,"time":72.37500000000007,"velocity":0.8031496062992126,"duration":0.16796875},{"name":"A3","midi":57,"time":72.52994791666674,"velocity":0.8031496062992126,"duration":0.1679687499999858},{"name":"C#4","midi":61,"time":72.6848958333334,"velocity":0.8031496062992126,"duration":0.1679687499999858},{"name":"E4","midi":64,"time":72.83984375000006,"velocity":0.8031496062992126,"duration":0.1679687499999858},{"name":"C#4","midi":61,"time":72.99479166666671,"velocity":0.8031496062992126,"duration":0.1679687499999858},{"name":"E4","midi":64,"time":73.14973958333337,"velocity":0.8031496062992126,"duration":0.16796875},{"name":"C#3","midi":49,"time":73.30468750000004,"velocity":0.8031496062992126,"duration":0.1536458333333286},{"name":"A4","midi":69,"time":73.30468750000004,"velocity":0.8031496062992126,"duration":0.1679687499999858},{"name":"A2","midi":45,"time":73.4596354166667,"velocity":0.8031496062992126,"duration":0.1536458333333286},{"name":"E4","midi":64,"time":73.4596354166667,"velocity":0.8031496062992126,"duration":0.1679687499999858},{"name":"C#3","midi":49,"time":73.61458333333336,"velocity":0.8031496062992126,"duration":0.1536458333333286},{"name":"A4","midi":69,"time":73.61458333333336,"velocity":0.8031496062992126,"duration":0.1679687499999858},{"name":"E3","midi":52,"time":73.76953125000001,"velocity":0.8031496062992126,"duration":0.1536458333333286},{"name":"C#5","midi":73,"time":73.76953125000001,"velocity":0.8031496062992126,"duration":0.1679687499999858},{"name":"C#3","midi":49,"time":73.92447916666667,"velocity":0.8031496062992126,"duration":0.1536458333333286},{"name":"A4","midi":69,"time":73.92447916666667,"velocity":0.8031496062992126,"duration":0.1679687499999858},{"name":"E3","midi":52,"time":74.07942708333333,"velocity":0.8031496062992126,"duration":0.1536458333333286},{"name":"C#5","midi":73,"time":74.07942708333333,"velocity":0.8031496062992126,"duration":0.1679687499999858},{"name":"A3","midi":57,"time":74.23437499999999,"velocity":0.8031496062992126,"duration":0.1536458333333286},{"name":"F#5","midi":78,"time":74.23437499999999,"velocity":0.8031496062992126,"duration":0.888020833333286},{"name":"F#3","midi":54,"time":74.38932291666664,"velocity":0.8031496062992126,"duration":0.1536458333333286},{"name":"A3","midi":57,"time":74.5442708333333,"velocity":0.8031496062992126,"duration":0.1536458333333286},{"name":"D4","midi":62,"time":74.69921874999996,"velocity":0.8031496062992126,"duration":0.1536458333333286},{"name":"A3","midi":57,"time":74.85416666666661,"velocity":0.8031496062992126,"duration":0.1536458333333286},{"name":"D4","midi":62,"time":75.00911458333327,"velocity":0.8031496062992126,"duration":0.1536458333333286},{"name":"G4","midi":67,"time":75.16406249999993,"velocity":0.8031496062992126,"duration":0.1536458333333286},{"name":"B3","midi":59,"time":75.16406249999993,"velocity":0.8031496062992126,"duration":0.1679687499999858},{"name":"B4","midi":71,"time":75.31901041666659,"velocity":0.8031496062992126,"duration":0.1536458333333286},{"name":"G3","midi":55,"time":75.31901041666659,"velocity":0.8031496062992126,"duration":0.1679687499999858},{"name":"G4","midi":67,"time":75.47395833333324,"velocity":0.8031496062992126,"duration":0.2578124999999858},{"name":"B3","midi":59,"time":75.47395833333324,"velocity":0.8031496062992126,"duration":0.1679687499999858},{"name":"D4","midi":62,"time":75.6289062499999,"velocity":0.8031496062992126,"duration":0.1679687499999858},{"name":"G4","midi":67,"time":75.78385416666656,"velocity":0.8031496062992126,"duration":0.1679687499999858},{"name":"B3","midi":59,"time":75.78385416666656,"velocity":0.8031496062992126,"duration":0.2578124999999858},{"name":"D4","midi":62,"time":75.93880208333321,"velocity":0.8031496062992126,"duration":0.1679687499999858},{"name":"B3","midi":59,"time":76.09374999999987,"velocity":0.8031496062992126,"duration":0.1536458333333286},{"name":"G4","midi":67,"time":76.09374999999987,"velocity":0.8031496062992126,"duration":0.2578124999999858},{"name":"D4","midi":62,"time":76.24869791666653,"velocity":0.8031496062992126,"duration":0.1679687499999858},{"name":"B3","midi":59,"time":76.40364583333319,"velocity":0.8031496062992126,"duration":0.1536458333333286},{"name":"G4","midi":67,"time":76.40364583333319,"velocity":0.8031496062992126,"duration":0.1679687499999858},{"name":"G3","midi":55,"time":76.55859374999984,"velocity":0.8031496062992126,"duration":0.1536458333333286},{"name":"B4","midi":71,"time":76.55859374999984,"velocity":0.8031496062992126,"duration":0.1679687499999858},{"name":"B3","midi":59,"time":76.7135416666665,"velocity":0.8031496062992126,"duration":0.1536458333333286},{"name":"G4","midi":67,"time":76.7135416666665,"velocity":0.8031496062992126,"duration":0.1679687499999858},{"name":"G3","midi":55,"time":76.86848958333316,"velocity":0.8031496062992126,"duration":0.1536458333333286},{"name":"B4","midi":71,"time":76.86848958333316,"velocity":0.8031496062992126,"duration":0.1679687499999858},{"name":"E3","midi":52,"time":77.02343749999982,"velocity":0.8031496062992126,"duration":0.1536458333333286},{"name":"E5","midi":76,"time":77.02343749999982,"velocity":0.8031496062992126,"duration":2.781249999999943},{"name":"G3","midi":55,"time":77.17838541666647,"velocity":0.8031496062992126,"duration":0.1536458333333286},{"name":"E3","midi":52,"time":77.33333333333313,"velocity":0.8031496062992126,"duration":0.1536458333333286},{"name":"C#3","midi":49,"time":77.48828124999979,"velocity":0.8031496062992126,"duration":0.1536458333333286},{"name":"E3","midi":52,"time":77.64322916666644,"velocity":0.8031496062992126,"duration":0.1536458333333286},{"name":"C#3","midi":49,"time":77.7981770833331,"velocity":0.8031496062992126,"duration":0.1536458333333286},{"name":"A#2","midi":46,"time":77.95312499999976,"velocity":0.8031496062992126,"duration":1.19140625},{"name":"F#4","midi":66,"time":78.26302083333309,"velocity":0.8031496062992126,"duration":0.3072916666666714},{"name":"F#4","midi":66,"time":78.57161458333309,"velocity":0.8031496062992126,"duration":0.3072916666666714},{"name":"G4","midi":67,"time":78.88020833333309,"velocity":0.8031496062992126,"duration":0.3072916666666714},{"name":"B2","midi":47,"time":79.18880208333309,"velocity":0.8031496062992126,"duration":0.3072916666666714},{"name":"F#4","midi":66,"time":79.18880208333309,"velocity":0.8031496062992126,"duration":0.3072916666666714},{"name":"C#3","midi":49,"time":79.49739583333309,"velocity":0.8031496062992126,"duration":0.3072916666666714},{"name":"F#4","midi":66,"time":79.49739583333309,"velocity":0.8031496062992126,"duration":0.3072916666666714},{"name":"F#2","midi":42,"time":79.80598958333309,"velocity":0.8031496062992126,"duration":0.3072916666666714},{"name":"E5","midi":76,"time":79.80598958333309,"velocity":0.8031496062992126,"duration":0.9244791666666714},{"name":"B2","midi":47,"time":80.11458333333309,"velocity":0.8031496062992126,"duration":0.3072916666666714},{"name":"F#4","midi":66,"time":80.11458333333309,"velocity":0.8031496062992126,"duration":0.3072916666666714},{"name":"A#2","midi":46,"time":80.42317708333309,"velocity":0.8031496062992126,"duration":0.3072916666666714},{"name":"F#4","midi":66,"time":80.42317708333309,"velocity":0.8031496062992126,"duration":0.3072916666666714},{"name":"B2","midi":47,"time":80.73177083333309,"velocity":0.8031496062992126,"duration":1.4466145833333286},{"name":"F#4","midi":66,"time":80.73177083333309,"velocity":0.8031496062992126,"duration":0.3072916666666714},{"name":"D5","midi":74,"time":80.73177083333309,"velocity":0.8031496062992126,"duration":3.084635416666657},{"name":"B3","midi":59,"time":81.04036458333309,"velocity":0.8031496062992126,"duration":0.3072916666666714},{"name":"B3","midi":59,"time":81.34895833333309,"velocity":0.8031496062992126,"duration":0.3072916666666714},{"name":"D4","midi":62,"time":81.65755208333309,"velocity":0.8031496062992126,"duration":0.3072916666666714},{"name":"B3","midi":59,"time":81.96614583333309,"velocity":0.8031496062992126,"duration":0.3072916666666572},{"name":"B3","midi":59,"time":82.27473958333307,"velocity":0.8031496062992126,"duration":0.3072916666666714},{"name":"B2","midi":47,"time":82.58333333333307,"velocity":0.8031496062992126,"duration":0.9244791666666714},{"name":"F#4","midi":66,"time":82.58333333333307,"velocity":0.8031496062992126,"duration":0.3072916666666714},{"name":"B3","midi":59,"time":82.89192708333307,"velocity":0.8031496062992126,"duration":0.3072916666666714},{"name":"B3","midi":59,"time":83.20052083333307,"velocity":0.8031496062992126,"duration":0.3072916666666714},{"name":"E3","midi":52,"time":83.50911458333307,"velocity":0.8031496062992126,"duration":5.471354166666657},{"name":"G4","midi":67,"time":83.50911458333307,"velocity":0.8031496062992126,"duration":2.7760416666666714},{"name":"B4","midi":71,"time":83.81770833333307,"velocity":0.8031496062992126,"duration":0.3072916666666714},{"name":"B4","midi":71,"time":84.12630208333307,"velocity":0.8031496062992126,"duration":0.3072916666666714},{"name":"C5","midi":72,"time":84.43489583333307,"velocity":0.8031496062992126,"duration":0.3072916666666714},{"name":"B4","midi":71,"time":84.74348958333307,"velocity":0.8031496062992126,"duration":0.3072916666666714},{"name":"B4","midi":71,"time":85.05208333333307,"velocity":0.8031496062992126,"duration":0.3072916666666714},{"name":"G5","midi":79,"time":85.36067708333307,"velocity":0.8031496062992126,"duration":0.3072916666666714},{"name":"B4","midi":71,"time":85.66927083333307,"velocity":0.8031496062992126,"duration":0.3072916666666714},{"name":"B4","midi":71,"time":85.97786458333307,"velocity":0.8031496062992126,"duration":0.3072916666666714},{"name":"F#4","midi":66,"time":86.28645833333307,"velocity":0.8031496062992126,"duration":0.8372395833333286},{"name":"A#4","midi":70,"time":86.28645833333307,"velocity":0.8031496062992126,"duration":0.8372395833333286},{"name":"A#4","midi":70,"time":87.2135416666664,"velocity":0.8031496062992126,"duration":1.8528645833333286},{"name":"F#5","midi":78,"time":87.2135416666664,"velocity":0.8031496062992126,"duration":1.8528645833333286},{"name":"D3","midi":50,"time":89.0690104166664,"velocity":0.8031496062992126,"duration":1.8554687499999147},{"name":"B4","midi":71,"time":89.22395833333307,"velocity":0.8031496062992126,"duration":0.16796875},{"name":"D5","midi":74,"time":89.37890624999974,"velocity":0.8031496062992126,"duration":0.1679687499999858},{"name":"F#5","midi":78,"time":89.5338541666664,"velocity":0.8031496062992126,"duration":0.1679687499999858},{"name":"B5","midi":83,"time":89.68880208333306,"velocity":0.8031496062992126,"duration":0.1679687499999858},{"name":"F#5","midi":78,"time":89.84374999999972,"velocity":0.8031496062992126,"duration":0.1679687499999858},{"name":"D5","midi":74,"time":89.99869791666637,"velocity":0.8031496062992126,"duration":0.1679687499999858},{"name":"F#5","midi":78,"time":90.15364583333303,"velocity":0.8031496062992126,"duration":0.1679687499999858},{"name":"D5","midi":74,"time":90.30859374999969,"velocity":0.8031496062992126,"duration":0.1679687499999858},{"name":"B4","midi":71,"time":90.46354166666634,"velocity":0.8031496062992126,"duration":0.1679687499999858},{"name":"D5","midi":74,"time":90.618489583333,"velocity":0.8031496062992126,"duration":0.1679687499999858},{"name":"B4","midi":71,"time":90.77343749999966,"velocity":0.8031496062992126,"duration":0.1666666666666572},{"name":"F#4","midi":66,"time":90.92708333333299,"velocity":0.8031496062992126,"duration":0.1679687499999858},{"name":"B4","midi":71,"time":91.08203124999964,"velocity":0.8031496062992126,"duration":0.1679687499999858},{"name":"F#4","midi":66,"time":91.2369791666663,"velocity":0.8031496062992126,"duration":0.1679687499999858},{"name":"D4","midi":62,"time":91.39192708333296,"velocity":0.8031496062992126,"duration":0.1679687499999858},{"name":"F#4","midi":66,"time":91.54687499999962,"velocity":0.8031496062992126,"duration":0.1679687499999858},{"name":"D4","midi":62,"time":91.70182291666627,"velocity":0.8031496062992126,"duration":0.1679687499999858},{"name":"B3","midi":59,"time":91.85677083333293,"velocity":0.8031496062992126,"duration":0.1536458333333286},{"name":"B4","midi":71,"time":91.85677083333293,"velocity":0.8031496062992126,"duration":5.600260416666487},{"name":"D5","midi":74,"time":91.85677083333293,"velocity":0.8031496062992126,"duration":2.787760416666501},{"name":"G3","midi":55,"time":92.01171874999959,"velocity":0.8031496062992126,"duration":0.1536458333333286},{"name":"B3","midi":59,"time":92.16666666666625,"velocity":0.8031496062992126,"duration":0.1536458333333286},{"name":"D4","midi":62,"time":92.3216145833329,"velocity":0.8031496062992126,"duration":0.1536458333333286},{"name":"G4","midi":67,"time":92.47656249999956,"velocity":0.8031496062992126,"duration":0.1536458333333286},{"name":"D4","midi":62,"time":92.63151041666622,"velocity":0.8031496062992126,"duration":0.1536458333333286},{"name":"B3","midi":59,"time":92.78645833333287,"velocity":0.8031496062992126,"duration":0.1536458333333286},{"name":"D4","midi":62,"time":92.94140624999953,"velocity":0.8031496062992126,"duration":0.1536458333333286},{"name":"B3","midi":59,"time":93.09635416666619,"velocity":0.8031496062992126,"duration":0.1536458333333286},{"name":"G3","midi":55,"time":93.25130208333285,"velocity":0.8031496062992126,"duration":0.1536458333333286},{"name":"B3","midi":59,"time":93.4062499999995,"velocity":0.8031496062992126,"duration":0.1536458333333286},{"name":"G3","midi":55,"time":93.56119791666616,"velocity":0.8031496062992126,"duration":0.1536458333333286},{"name":"D3","midi":50,"time":93.71614583333282,"velocity":0.8031496062992126,"duration":0.1536458333333286},{"name":"G3","midi":55,"time":93.87109374999947,"velocity":0.8031496062992126,"duration":0.1536458333333286},{"name":"D3","midi":50,"time":94.02604166666613,"velocity":0.8031496062992126,"duration":0.1536458333333286},{"name":"B2","midi":47,"time":94.18098958333279,"velocity":0.8031496062992126,"duration":0.1536458333333286},{"name":"D3","midi":50,"time":94.33593749999945,"velocity":0.8031496062992126,"duration":0.1536458333333286},{"name":"B2","midi":47,"time":94.4908854166661,"velocity":0.8031496062992126,"duration":0.1536458333333286},{"name":"F2","midi":41,"time":94.64583333333276,"velocity":0.8031496062992126,"duration":1.8723958333333286},{"name":"C#5","midi":73,"time":94.95833333333276,"velocity":0.8031496062992126,"duration":0.3111979166666714},{"name":"C#5","midi":73,"time":95.27083333333276,"velocity":0.8031496062992126,"duration":0.3111979166666714},{"name":"G#5","midi":80,"time":95.58333333333276,"velocity":0.8031496062992126,"duration":0.4557291666666714},{"name":"C#5","midi":73,"time":95.89583333333276,"velocity":0.8031496062992126,"duration":0.3111979166666714},{"name":"C#5","midi":73,"time":96.20833333333276,"velocity":0.8031496062992126,"duration":0.3111979166666572},{"name":"D5","midi":74,"time":96.52083333333275,"velocity":0.8031496062992126,"duration":0.3111979166666714},{"name":"C#5","midi":73,"time":96.83333333333275,"velocity":0.8031496062992126,"duration":0.3111979166666714},{"name":"C#5","midi":73,"time":97.14583333333275,"velocity":0.8031496062992126,"duration":0.3111979166666714},{"name":"F#2","midi":42,"time":97.45833333333275,"velocity":0.8031496062992126,"duration":1.1067708333333286},{"name":"A#4","midi":70,"time":97.45833333333275,"velocity":0.8031496062992126,"duration":1.2486979166666572},{"name":"E5","midi":76,"time":97.45833333333275,"velocity":0.8031496062992126,"duration":0.390625},{"name":"C#5","midi":73,"time":97.77083333333275,"velocity":0.8031496062992126,"duration":0.3111979166666714},{"name":"C#5","midi":73,"time":98.08333333333275,"velocity":0.8031496062992126,"duration":0.3111979166666714},{"name":"A#5","midi":82,"time":98.39583333333275,"velocity":0.8031496062992126,"duration":0.5208333333333144},{"name":"E3","midi":52,"time":98.70833333333273,"velocity":0.8031496062992126,"duration":0.3111979166666572},{"name":"A#4","midi":70,"time":98.70833333333273,"velocity":0.8031496062992126,"duration":0.3111979166666572},{"name":"C#5","midi":73,"time":98.70833333333273,"velocity":0.8031496062992126,"duration":0.3111979166666572},{"name":"F#3","midi":54,"time":99.02083333333272,"velocity":0.8031496062992126,"duration":0.3111979166666714},{"name":"B4","midi":71,"time":99.02083333333272,"velocity":0.8031496062992126,"duration":0.3111979166666714},{"name":"D5","midi":74,"time":99.02083333333272,"velocity":0.8031496062992126,"duration":0.3111979166666714},{"name":"G3","midi":55,"time":99.33333333333272,"velocity":0.8031496062992126,"duration":0.3111979166666714},{"name":"C#5","midi":73,"time":99.33333333333272,"velocity":0.8031496062992126,"duration":0.3111979166666714},{"name":"E5","midi":76,"time":99.33333333333272,"velocity":0.8031496062992126,"duration":0.3111979166666714},{"name":"F#3","midi":54,"time":99.64583333333272,"velocity":0.8031496062992126,"duration":0.3111979166666714},{"name":"B4","midi":71,"time":99.64583333333272,"velocity":0.8031496062992126,"duration":0.3111979166666714},{"name":"D5","midi":74,"time":99.64583333333272,"velocity":0.8031496062992126,"duration":0.3111979166666714},{"name":"E3","midi":52,"time":99.95833333333272,"velocity":0.8031496062992126,"duration":0.3111979166666714},{"name":"A#4","midi":70,"time":99.95833333333272,"velocity":0.8031496062992126,"duration":0.3111979166666714},{"name":"C#5","midi":73,"time":99.95833333333272,"velocity":0.8031496062992126,"duration":0.3111979166666714},{"name":"D3","midi":50,"time":100.27083333333272,"velocity":0.8031496062992126,"duration":0.6367187499999858},{"name":"B4","midi":71,"time":100.27083333333272,"velocity":0.8031496062992126,"duration":2.0260416666666288},{"name":"F#5","midi":78,"time":100.27083333333272,"velocity":0.8031496062992126,"duration":0.3177083333333286},{"name":"G5","midi":79,"time":100.58984374999937,"velocity":0.8031496062992126,"duration":0.3177083333333286},{"name":"E3","midi":52,"time":100.90885416666603,"velocity":0.8031496062992126,"duration":0.3177083333333286},{"name":"E5","midi":76,"time":100.90885416666603,"velocity":0.8031496062992126,"duration":0.3177083333333286},{"name":"F#3","midi":54,"time":101.22786458333269,"velocity":0.8031496062992126,"duration":0.7122395833333286},{"name":"D5","midi":74,"time":101.22786458333269,"velocity":0.8031496062992126,"duration":1.1575520833333144},{"name":"E3","midi":52,"time":101.94140624999935,"velocity":0.8031496062992126,"duration":0.35546875},{"name":"F#3","midi":54,"time":102.29817708333267,"velocity":0.8031496062992126,"duration":0.7148437499999858},{"name":"A#4","midi":70,"time":102.29817708333267,"velocity":0.8031496062992126,"duration":1.0156249999999858},{"name":"C#5","midi":73,"time":102.38671874999933,"velocity":0.8031496062992126,"duration":0.09765625},{"name":"D5","midi":74,"time":102.47656249999933,"velocity":0.8031496062992126,"duration":0.09765625},{"name":"C#5","midi":73,"time":102.56640624999933,"velocity":0.8031496062992126,"duration":0.09765625},{"name":"D5","midi":74,"time":102.65624999999933,"velocity":0.8031496062992126,"duration":0.09765625},{"name":"C#5","midi":73,"time":102.74609374999933,"velocity":0.8031496062992126,"duration":0.09765625},{"name":"D5","midi":74,"time":102.83593749999933,"velocity":0.8031496062992126,"duration":0.09765625},{"name":"C#5","midi":73,"time":102.92578124999933,"velocity":0.8031496062992126,"duration":0.0872395833333286},{"name":"F#2","midi":42,"time":103.01432291666599,"velocity":0.8031496062992126,"duration":0.3919270833333428},{"name":"B4","midi":71,"time":103.01432291666599,"velocity":0.8031496062992126,"duration":0.3736979166666714},{"name":"B4","midi":71,"time":103.42708333333266,"velocity":0.8031496062992126,"duration":3.2109375},{"name":"B2","midi":47,"time":103.42708333333266,"velocity":0.8031496062992126,"duration":3.2109375}],"controlChanges":{"7":[{"number":7,"time":0,"value":0.7874015748031497}]},"id":1,"name":"Piano 1","instrumentNumber":6,"instrument":"harpsichord","instrumentFamily":"piano","channelNumber":0,"isPercussion":false}]}