{"header":{"PPQ":384,"timeSignature":[4,4],"bpm":120,"name":"--------"},"startTime":0,"duration":177.77083333333442,"tracks":[{"startTime":0,"duration":0,"length":0,"notes":[],"controlChanges":{},"id":0,"name":"--------"},{"startTime":0.08333333333333333,"duration":177.77083333333442,"length":1221,"notes":[{"name":"E4","midi":64,"time":0.08333333333333333,"velocity":0.7637795275590551,"duration":5.2109375},{"name":"E3","midi":52,"time":0.08333333333333333,"velocity":0.7637795275590551,"duration":6.071614583333333},{"name":"G#4","midi":68,"time":0.3723958333333333,"velocity":0.7637795275590551,"duration":0.28515624999999994},{"name":"B4","midi":71,"time":0.6627604166666666,"velocity":0.7637795275590551,"duration":0.28515625},{"name":"E5","midi":76,"time":0.953125,"velocity":0.7637795275590551,"duration":0.28515625},{"name":"G#3","midi":56,"time":0.953125,"velocity":0.7637795275590551,"duration":0.8645833333333333},{"name":"D#5","midi":75,"time":1.2421875,"velocity":0.7637795275590551,"duration":0.28515625},{"name":"E5","midi":76,"time":1.5325520833333333,"velocity":0.7637795275590551,"duration":0.28515625},{"name":"A3","midi":57,"time":1.8229166666666665,"velocity":0.7637795275590551,"duration":1.154947916666667},{"name":"D#5","midi":75,"time":1.8255208333333333,"velocity":0.7637795275590551,"duration":0.13932291666666674},{"name":"C#5","midi":73,"time":1.9674479166666667,"velocity":0.7637795275590551,"duration":0.13932291666666674},{"name":"B4","midi":71,"time":2.11328125,"velocity":0.7637795275590551,"duration":0.28515625},{"name":"C#5","midi":73,"time":2.40234375,"velocity":0.7637795275590551,"duration":0.28515625},{"name":"E5","midi":76,"time":2.6927083333333335,"velocity":0.7637795275590551,"duration":0.8645833333333335},{"name":"G#3","midi":56,"time":2.983072916666667,"velocity":0.7637795275590551,"duration":0.28515625},{"name":"F#3","midi":54,"time":3.272135416666667,"velocity":0.7637795275590551,"duration":0.28515625},{"name":"G#3","midi":56,"time":3.5625000000000004,"velocity":0.7637795275590551,"duration":1.1549479166666665},{"name":"C#5","midi":73,"time":3.565104166666667,"velocity":0.7637795275590551,"duration":0.13932291666666652},{"name":"B4","midi":71,"time":3.7083333333333335,"velocity":0.7637795275590551,"duration":0.13932291666666652},{"name":"A4","midi":69,"time":3.8528645833333335,"velocity":0.7637795275590551,"duration":0.28515625000000044},{"name":"B4","midi":71,"time":4.143229166666667,"velocity":0.7637795275590551,"duration":0.28515625},{"name":"E5","midi":76,"time":4.432291666666667,"velocity":0.7637795275590551,"duration":0.864583333333333},{"name":"A3","midi":57,"time":4.72265625,"velocity":0.7637795275590551,"duration":0.28515625},{"name":"G#3","midi":56,"time":5.013020833333333,"velocity":0.7637795275590551,"duration":0.28515625},{"name":"A4","midi":69,"time":5.302083333333333,"velocity":0.7637795275590551,"duration":1.154947916666666},{"name":"F#3","midi":54,"time":5.302083333333333,"velocity":0.7637795275590551,"duration":1.7369791666666652},{"name":"B4","midi":71,"time":5.592447916666666,"velocity":0.7637795275590551,"duration":0.28515625},{"name":"C#5","midi":73,"time":5.882812499999999,"velocity":0.7637795275590551,"duration":0.28515625},{"name":"B4","midi":71,"time":6.173177083333332,"velocity":0.7637795275590551,"duration":0.28515625},{"name":"D#3","midi":51,"time":6.173177083333332,"velocity":0.7637795275590551,"duration":0.7994791666666661},{"name":"C#5","midi":73,"time":6.462239583333332,"velocity":0.7637795275590551,"duration":0.28515625},{"name":"A4","midi":69,"time":6.752604166666665,"velocity":0.7637795275590551,"duration":0.28515625},{"name":"G#4","midi":68,"time":7.042968749999998,"velocity":0.7637795275590551,"duration":0.5768229166666661},{"name":"E3","midi":52,"time":7.042968749999998,"velocity":0.7637795275590551,"duration":0.860677083333333},{"name":"B4","midi":71,"time":7.333333333333331,"velocity":0.7637795275590551,"duration":0.28515625},{"name":"G#3","midi":56,"time":7.333333333333331,"velocity":0.7637795275590551,"duration":0.28515625},{"name":"E5","midi":76,"time":7.622395833333331,"velocity":0.7637795275590551,"duration":0.28515625},{"name":"B3","midi":59,"time":7.622395833333331,"velocity":0.7637795275590551,"duration":0.28515625},{"name":"E4","midi":64,"time":7.912760416666664,"velocity":0.7637795275590551,"duration":0.2942708333333339},{"name":"G#5","midi":80,"time":7.915364583333331,"velocity":0.7637795275590551,"duration":0.13541666666666696},{"name":"F#5","midi":78,"time":8.020833333333332,"velocity":0.7637795275590551,"duration":0.13541666666666607},{"name":"G#5","midi":80,"time":8.127604166666664,"velocity":0.7637795275590551,"duration":0.9283854166666679},{"name":"D#4","midi":63,"time":8.203124999999998,"velocity":0.7637795275590551,"duration":0.28515625},{"name":"E4","midi":64,"time":8.492187499999998,"velocity":0.7637795275590551,"duration":0.28515625},{"name":"A#3","midi":58,"time":8.782552083333332,"velocity":0.7637795275590551,"duration":1.7369791666666696},{"name":"F#5","midi":78,"time":9.072916666666666,"velocity":0.7637795275590551,"duration":0.28515625},{"name":"E5","midi":76,"time":9.36328125,"velocity":0.7637795275590551,"duration":0.28515625},{"name":"C#4","midi":61,"time":9.36328125,"velocity":0.7637795275590551,"duration":0.28515625},{"name":"D#5","midi":75,"time":9.65234375,"velocity":0.7637795275590551,"duration":0.28515625},{"name":"F#4","midi":66,"time":9.65234375,"velocity":0.7637795275590551,"duration":0.8606770833333339},{"name":"E5","midi":76,"time":9.942708333333334,"velocity":0.7637795275590551,"duration":0.28515625},{"name":"C#5","midi":73,"time":10.233072916666668,"velocity":0.7637795275590551,"duration":0.28515625},{"name":"C#5","midi":73,"time":10.522135416666668,"velocity":0.7637795275590551,"duration":0.4283854166666661},{"name":"B2","midi":47,"time":10.522135416666668,"velocity":0.7637795275590551,"duration":0.31640625},{"name":"D#3","midi":51,"time":10.812500000000002,"velocity":0.7637795275590551,"duration":0.3164062499999982},{"name":"D#5","midi":75,"time":10.927083333333334,"velocity":0.7637795275590551,"duration":0.13932291666666607},{"name":"E5","midi":76,"time":11.06640625,"velocity":0.7637795275590551,"duration":0.13020833333333393},{"name":"F#3","midi":54,"time":11.102864583333334,"velocity":0.7637795275590551,"duration":0.31640625},{"name":"D#5","midi":75,"time":11.192708333333334,"velocity":0.7637795275590551,"duration":0.12109375},{"name":"E5","midi":76,"time":11.311197916666668,"velocity":0.7637795275590551,"duration":0.11328125},{"name":"B3","midi":59,"time":11.393229166666668,"velocity":0.7637795275590551,"duration":0.2851562500000018},{"name":"D#5","midi":75,"time":11.419270833333334,"velocity":0.7637795275590551,"duration":0.10416666666666785},{"name":"E5","midi":76,"time":11.519531250000002,"velocity":0.7637795275590551,"duration":0.09505208333333393},{"name":"D#5","midi":75,"time":11.610677083333336,"velocity":0.7637795275590551,"duration":0.08984375},{"name":"A#3","midi":58,"time":11.68229166666667,"velocity":0.7637795275590551,"duration":0.28515625},{"name":"E5","midi":76,"time":11.69791666666667,"velocity":0.7637795275590551,"duration":0.08723958333333215},{"name":"D#5","midi":75,"time":11.782552083333336,"velocity":0.7637795275590551,"duration":0.0859375},{"name":"E5","midi":76,"time":11.864583333333336,"velocity":0.7637795275590551,"duration":0.07682291666666607},{"name":"D#5","midi":75,"time":11.942708333333336,"velocity":0.7637795275590551,"duration":0.6250000000000018},{"name":"B3","midi":59,"time":11.972656250000004,"velocity":0.7637795275590551,"duration":0.28515625},{"name":"E3","midi":52,"time":12.263020833333337,"velocity":0.7637795275590551,"duration":1.7369791666666679},{"name":"E5","midi":76,"time":12.552083333333337,"velocity":0.7637795275590551,"duration":0.28515625},{"name":"F#5","midi":78,"time":12.842447916666671,"velocity":0.7637795275590551,"duration":0.28515625},{"name":"B3","midi":59,"time":12.842447916666671,"velocity":0.7637795275590551,"duration":0.28515625},{"name":"G#5","midi":80,"time":13.132812500000005,"velocity":0.7637795275590551,"duration":0.28515625},{"name":"E4","midi":64,"time":13.132812500000005,"velocity":0.7637795275590551,"duration":1.736979166666666},{"name":"C#5","midi":73,"time":13.42317708333334,"velocity":0.7637795275590551,"duration":0.28515625},{"name":"E5","midi":76,"time":13.71223958333334,"velocity":0.7637795275590551,"duration":0.28515625},{"name":"F#4","midi":66,"time":14.002604166666671,"velocity":0.7637795275590551,"duration":0.56640625},{"name":"F#3","midi":54,"time":14.002604166666671,"velocity":0.7637795275590551,"duration":4.915364583333325},{"name":"A#4","midi":70,"time":14.292968750000005,"velocity":0.7637795275590551,"duration":0.49739583333333215},{"name":"C#5","midi":73,"time":14.583333333333337,"velocity":0.7637795275590551,"duration":0.28515625},{"name":"F#5","midi":78,"time":14.872395833333337,"velocity":0.7637795275590551,"duration":0.28515625},{"name":"D#4","midi":63,"time":14.872395833333337,"velocity":0.7637795275590551,"duration":2.024739583333334},{"name":"E5","midi":76,"time":15.162760416666671,"velocity":0.7637795275590551,"duration":0.28515625},{"name":"F#5","midi":78,"time":15.453125000000005,"velocity":0.7637795275590551,"duration":0.28515625},{"name":"G#4","midi":68,"time":15.742187500000005,"velocity":0.7637795275590551,"duration":0.8606770833333339},{"name":"B4","midi":71,"time":16.03255208333334,"velocity":0.7637795275590551,"duration":0.49739583333333215},{"name":"D#5","midi":75,"time":16.32291666666667,"velocity":0.7637795275590551,"duration":0.28515625},{"name":"E5","midi":76,"time":16.613281250000004,"velocity":0.7637795275590551,"duration":0.13932291666666785},{"name":"D#5","midi":75,"time":16.757812500000004,"velocity":0.7637795275590551,"duration":0.13932291666666785},{"name":"E5","midi":76,"time":16.902343750000004,"velocity":0.7637795275590551,"duration":0.57421875},{"name":"C#4","midi":61,"time":16.902343750000004,"velocity":0.7637795275590551,"duration":0.28515625},{"name":"B3","midi":59,"time":17.192708333333336,"velocity":0.7637795275590551,"duration":0.28515625},{"name":"F#4","midi":66,"time":17.483072916666668,"velocity":0.7637795275590551,"duration":1.1549479166666643},{"name":"A#3","midi":58,"time":17.483072916666668,"velocity":0.7637795275590551,"duration":2.605468749999993},{"name":"A#4","midi":70,"time":17.772135416666668,"velocity":0.7637795275590551,"duration":0.49739583333333215},{"name":"C#5","midi":73,"time":18.0625,"velocity":0.7637795275590551,"duration":0.28515625},{"name":"E5","midi":76,"time":18.352864583333332,"velocity":0.7637795275590551,"duration":0.28515625},{"name":"D#5","midi":75,"time":18.643229166666664,"velocity":0.7637795275590551,"duration":0.28515625},{"name":"E5","midi":76,"time":18.932291666666664,"velocity":0.7637795275590551,"duration":0.28515625},{"name":"C#3","midi":49,"time":18.932291666666664,"velocity":0.7637795275590551,"duration":0.28515625},{"name":"F#4","midi":66,"time":19.222656249999996,"velocity":0.7637795275590551,"duration":0.8372395833333321},{"name":"D3","midi":50,"time":19.222656249999996,"velocity":0.7637795275590551,"duration":1.1549479166666679},{"name":"A#4","midi":70,"time":19.51302083333333,"velocity":0.7637795275590551,"duration":0.54296875},{"name":"C#5","midi":73,"time":19.80208333333333,"velocity":0.7637795275590551,"duration":0.28515625},{"name":"B4","midi":71,"time":20.09244791666666,"velocity":0.7637795275590551,"duration":0.13932291666666785},{"name":"B3","midi":59,"time":20.09244791666666,"velocity":0.7637795275590551,"duration":1.1549479166666679},{"name":"C#5","midi":73,"time":20.238281249999996,"velocity":0.7637795275590551,"duration":0.13932291666666785},{"name":"D5","midi":74,"time":20.382812499999996,"velocity":0.7637795275590551,"duration":0.8151041666666643},{"name":"E3","midi":52,"time":20.382812499999996,"velocity":0.7637795275590551,"duration":0.28515625},{"name":"F#3","midi":54,"time":20.67317708333333,"velocity":0.7637795275590551,"duration":0.28515625},{"name":"G3","midi":55,"time":20.96223958333333,"velocity":0.7637795275590551,"duration":1.7369791666666607},{"name":"E5","midi":76,"time":21.25260416666666,"velocity":0.7637795275590551,"duration":0.28515625},{"name":"C#4","midi":61,"time":21.25260416666666,"velocity":0.7637795275590551,"duration":0.28515625},{"name":"D5","midi":74,"time":21.542968749999993,"velocity":0.7637795275590551,"duration":0.28515625},{"name":"D4","midi":62,"time":21.542968749999993,"velocity":0.7637795275590551,"duration":0.28515625},{"name":"C#5","midi":73,"time":21.833333333333325,"velocity":0.7637795275590551,"duration":0.28515625},{"name":"E4","midi":64,"time":21.833333333333325,"velocity":0.7637795275590551,"duration":2.0182291666666607},{"name":"D5","midi":74,"time":22.122395833333325,"velocity":0.7637795275590551,"duration":0.28515625},{"name":"B4","midi":71,"time":22.412760416666657,"velocity":0.7637795275590551,"duration":0.28515625},{"name":"B4","midi":71,"time":22.70312499999999,"velocity":0.7637795275590551,"duration":0.13932291666666785},{"name":"F#3","midi":54,"time":22.70312499999999,"velocity":0.7637795275590551,"duration":1.1210937499999964},{"name":"A#4","midi":70,"time":22.84765624999999,"velocity":0.7637795275590551,"duration":0.13932291666666785},{"name":"G#4","midi":68,"time":22.99218749999999,"velocity":0.7637795275590551,"duration":0.28515625},{"name":"F#4","midi":66,"time":23.28255208333332,"velocity":0.7637795275590551,"duration":0.28515625},{"name":"G5","midi":79,"time":23.572916666666654,"velocity":0.7637795275590551,"duration":0.28515625},{"name":"F#5","midi":78,"time":23.863281249999986,"velocity":0.7637795275590551,"duration":0.28515625},{"name":"D#4","midi":63,"time":23.863281249999986,"velocity":0.7637795275590551,"duration":0.28515625},{"name":"G#3","midi":56,"time":23.863281249999986,"velocity":0.7637795275590551,"duration":0.28515625},{"name":"F5","midi":77,"time":24.152343749999986,"velocity":0.7637795275590551,"duration":0.28515625},{"name":"A#3","midi":58,"time":24.152343749999986,"velocity":0.7637795275590551,"duration":0.28515625},{"name":"C#4","midi":61,"time":24.152343749999986,"velocity":0.7637795275590551,"duration":0.28515625},{"name":"E5","midi":76,"time":24.442708333333318,"velocity":0.7637795275590551,"duration":0.28515625},{"name":"B3","midi":59,"time":24.442708333333318,"velocity":0.7637795275590551,"duration":1.1549479166666679},{"name":"D#5","midi":75,"time":24.73307291666665,"velocity":0.7637795275590551,"duration":0.28515625},{"name":"D5","midi":74,"time":25.02213541666665,"velocity":0.7637795275590551,"duration":0.28515625},{"name":"F3","midi":53,"time":25.02213541666665,"velocity":0.7637795275590551,"duration":0.28515625},{"name":"C#5","midi":73,"time":25.312499999999982,"velocity":0.7637795275590551,"duration":0.13932291666666785},{"name":"F#3","midi":54,"time":25.312499999999982,"velocity":0.7637795275590551,"duration":0.8606770833333357},{"name":"D#5","midi":75,"time":25.458333333333318,"velocity":0.7637795275590551,"duration":0.13932291666666785},{"name":"E5","midi":76,"time":25.602864583333318,"velocity":0.7637795275590551,"duration":0.28515625},{"name":"A#3","midi":58,"time":25.602864583333318,"velocity":0.7637795275590551,"duration":0.28515625},{"name":"A#4","midi":70,"time":25.89322916666665,"velocity":0.7637795275590551,"duration":0.28515625},{"name":"E4","midi":64,"time":25.89322916666665,"velocity":0.7637795275590551,"duration":0.28515625},{"name":"B4","midi":71,"time":26.18229166666665,"velocity":0.7637795275590551,"duration":2.0247395833333286},{"name":"D#4","midi":63,"time":26.18229166666665,"velocity":0.7637795275590551,"duration":1.7369791666666607},{"name":"B2","midi":47,"time":26.18229166666665,"velocity":0.7637795275590551,"duration":0.5768229166666643},{"name":"D#3","midi":51,"time":26.472656249999982,"velocity":0.7637795275590551,"duration":0.28515625},{"name":"F#3","midi":54,"time":26.763020833333314,"velocity":0.7637795275590551,"duration":0.28515625},{"name":"B3","midi":59,"time":27.052083333333314,"velocity":0.7637795275590551,"duration":0.30989583333333215},{"name":"A3","midi":57,"time":27.342447916666647,"velocity":0.7637795275590551,"duration":0.27864583333333215},{"name":"B3","midi":59,"time":27.63281249999998,"velocity":0.7637795275590551,"duration":0.27864583333333215},{"name":"G#3","midi":56,"time":27.92317708333331,"velocity":0.7637795275590551,"duration":1.1549479166666643},{"name":"D#5","midi":75,"time":28.21223958333331,"velocity":0.7637795275590551,"duration":0.28515625},{"name":"F#5","midi":78,"time":28.502604166666643,"velocity":0.7637795275590551,"duration":0.28515625},{"name":"B5","midi":83,"time":28.792968749999975,"velocity":0.7637795275590551,"duration":0.3619791666666643},{"name":"A5","midi":81,"time":29.083333333333307,"velocity":0.7637795275590551,"duration":0.28515625},{"name":"F#3","midi":54,"time":29.083333333333307,"velocity":0.7637795275590551,"duration":0.28515625},{"name":"B5","midi":83,"time":29.372395833333307,"velocity":0.7637795275590551,"duration":0.28515625},{"name":"G#3","midi":56,"time":29.372395833333307,"velocity":0.7637795275590551,"duration":0.28515625},{"name":"C#5","midi":73,"time":29.66276041666664,"velocity":0.7637795275590551,"duration":0.28515625},{"name":"F3","midi":53,"time":29.66276041666664,"velocity":0.7637795275590551,"duration":1.7369791666666607},{"name":"F5","midi":77,"time":29.95312499999997,"velocity":0.7637795275590551,"duration":0.28515625},{"name":"G#3","midi":56,"time":29.95312499999997,"velocity":0.7637795275590551,"duration":0.28515625},{"name":"G#5","midi":80,"time":30.24218749999997,"velocity":0.7637795275590551,"duration":0.28515625},{"name":"B3","midi":59,"time":30.24218749999997,"velocity":0.7637795275590551,"duration":0.28515625},{"name":"D4","midi":62,"time":30.532552083333304,"velocity":0.7637795275590551,"duration":0.28515625},{"name":"B5","midi":83,"time":30.53515624999997,"velocity":0.7637795275590551,"duration":0.1393229166666643},{"name":"A5","midi":81,"time":30.669270833333304,"velocity":0.7637795275590551,"duration":0.13932291666666785},{"name":"B5","midi":83,"time":30.802083333333304,"velocity":0.7637795275590551,"duration":0.7929687499999964},{"name":"B3","midi":59,"time":30.822916666666636,"velocity":0.7637795275590551,"duration":0.28515625},{"name":"C#4","midi":61,"time":31.113281249999968,"velocity":0.7637795275590551,"duration":1.1549479166666679},{"name":"F#3","midi":54,"time":31.402343749999968,"velocity":0.7637795275590551,"duration":0.8645833333333321},{"name":"G#5","midi":80,"time":31.6927083333333,"velocity":0.7637795275590551,"duration":0.28515625},{"name":"A5","midi":81,"time":31.983072916666632,"velocity":0.7637795275590551,"duration":0.5208333333333393},{"name":"B3","midi":59,"time":32.272135416666636,"velocity":0.7637795275590551,"duration":0.8645833333333357},{"name":"D3","midi":50,"time":32.272135416666636,"velocity":0.7637795275590551,"duration":0.8645833333333357},{"name":"F#5","midi":78,"time":32.56249999999997,"velocity":0.7637795275590551,"duration":0.28515625},{"name":"G#5","midi":80,"time":32.85286458333331,"velocity":0.7637795275590551,"duration":0.5208333333333286},{"name":"C4","midi":60,"time":33.143229166666636,"velocity":0.7637795275590551,"duration":0.8645833333333357},{"name":"D#3","midi":51,"time":33.143229166666636,"velocity":0.7637795275590551,"duration":0.8645833333333357},{"name":"F5","midi":77,"time":33.432291666666636,"velocity":0.7637795275590551,"duration":0.28515625},{"name":"F#5","midi":78,"time":33.72265624999997,"velocity":0.7637795275590551,"duration":0.28515625},{"name":"F5","midi":77,"time":34.01302083333331,"velocity":0.7637795275590551,"duration":0.1393229166666643},{"name":"C#4","midi":61,"time":34.01302083333331,"velocity":0.7637795275590551,"duration":0.8645833333333357},{"name":"C#3","midi":49,"time":34.01302083333331,"velocity":0.7637795275590551,"duration":0.8645833333333357},{"name":"F#5","midi":78,"time":34.15755208333331,"velocity":0.7637795275590551,"duration":0.1393229166666643},{"name":"G#5","midi":80,"time":34.30208333333331,"velocity":0.7637795275590551,"duration":0.28515625},{"name":"C#5","midi":73,"time":34.59244791666664,"velocity":0.7637795275590551,"duration":0.28515625},{"name":"D5","midi":74,"time":34.88281249999998,"velocity":0.7637795275590551,"duration":2.899739583333343},{"name":"B2","midi":47,"time":34.88281249999998,"velocity":0.7637795275590551,"duration":1.7369791666666785},{"name":"B4","midi":71,"time":35.173177083333314,"velocity":0.7637795275590551,"duration":0.28515625},{"name":"D3","midi":50,"time":35.173177083333314,"velocity":0.7637795275590551,"duration":0.28515625},{"name":"G#4","midi":68,"time":35.462239583333314,"velocity":0.7637795275590551,"duration":0.28515625},{"name":"F3","midi":53,"time":35.462239583333314,"velocity":0.7637795275590551,"duration":0.28515625},{"name":"F4","midi":65,"time":35.75260416666665,"velocity":0.7637795275590551,"duration":0.4973958333333357},{"name":"G#3","midi":56,"time":35.75260416666665,"velocity":0.7637795275590551,"duration":0.28515625},{"name":"G#4","midi":68,"time":36.042968749999986,"velocity":0.7637795275590551,"duration":0.28515625},{"name":"B3","midi":59,"time":36.042968749999986,"velocity":0.7637795275590551,"duration":0.28515625},{"name":"F#4","midi":66,"time":36.33333333333332,"velocity":0.7637795275590551,"duration":0.3619791666666643},{"name":"A3","midi":57,"time":36.33333333333332,"velocity":0.7637795275590551,"duration":0.28515625},{"name":"G#4","midi":68,"time":36.62239583333332,"velocity":0.7637795275590551,"duration":0.4973958333333357},{"name":"B3","midi":59,"time":36.62239583333332,"velocity":0.7637795275590551,"duration":0.28515625},{"name":"B4","midi":71,"time":36.91276041666666,"velocity":0.7637795275590551,"duration":0.28515625},{"name":"G#3","midi":56,"time":36.91276041666666,"velocity":0.7637795275590551,"duration":0.28515625},{"name":"A4","midi":69,"time":37.20312499999999,"velocity":0.7637795275590551,"duration":0.3619791666666643},{"name":"F#3","midi":54,"time":37.20312499999999,"velocity":0.7637795275590551,"duration":0.28515625},{"name":"B4","midi":71,"time":37.49218749999999,"velocity":0.7637795275590551,"duration":1.1549479166666643},{"name":"G#3","midi":56,"time":37.49218749999999,"velocity":0.7637795275590551,"duration":0.1393229166666643},{"name":"A3","midi":57,"time":37.63802083333332,"velocity":0.7637795275590551,"duration":0.1393229166666643},{"name":"D5","midi":74,"time":37.78255208333332,"velocity":0.7637795275590551,"duration":0.28515625},{"name":"B3","midi":59,"time":37.78255208333332,"velocity":0.7637795275590551,"duration":0.28515625},{"name":"C#5","midi":73,"time":38.07291666666666,"velocity":0.7637795275590551,"duration":0.28515625},{"name":"F3","midi":53,"time":38.07291666666666,"velocity":0.7637795275590551,"duration":0.28515625},{"name":"C#5","midi":73,"time":38.36328124999999,"velocity":0.7637795275590551,"duration":1.1549479166666714},{"name":"F#3","midi":54,"time":38.36328124999999,"velocity":0.7637795275590551,"duration":0.8645833333333357},{"name":"A4","midi":69,"time":38.65234374999999,"velocity":0.7637795275590551,"duration":0.28515625},{"name":"G#4","midi":68,"time":38.94270833333333,"velocity":0.7637795275590551,"duration":0.28515625},{"name":"F#4","midi":66,"time":39.233072916666664,"velocity":0.7637795275590551,"duration":1.7369791666666714},{"name":"A2","midi":45,"time":39.233072916666664,"velocity":0.7637795275590551,"duration":0.8645833333333357},{"name":"B4","midi":71,"time":39.522135416666664,"velocity":0.7637795275590551,"duration":0.28515625},{"name":"A4","midi":69,"time":39.8125,"velocity":0.7637795275590551,"duration":0.28515625},{"name":"G#4","midi":68,"time":40.102864583333336,"velocity":0.7637795275590551,"duration":0.28515625},{"name":"B2","midi":47,"time":40.102864583333336,"velocity":0.7637795275590551,"duration":0.8645833333333357},{"name":"A4","midi":69,"time":40.39322916666667,"velocity":0.7637795275590551,"duration":0.28515625},{"name":"B4","midi":71,"time":40.68229166666667,"velocity":0.7637795275590551,"duration":0.5664062499999929},{"name":"F4","midi":65,"time":40.97265625,"velocity":0.7637795275590551,"duration":0.8606770833333286},{"name":"C#3","midi":49,"time":40.97265625,"velocity":0.7637795275590551,"duration":0.8645833333333286},{"name":"A4","midi":69,"time":41.26302083333333,"velocity":0.7637795275590551,"duration":0.28515625},{"name":"G#4","midi":68,"time":41.55208333333333,"velocity":0.7637795275590551,"duration":0.28515625},{"name":"F#4","midi":66,"time":41.842447916666664,"velocity":0.7637795275590551,"duration":1.1549479166666643},{"name":"F#2","midi":42,"time":41.842447916666664,"velocity":0.7637795275590551,"duration":0.2851562499999929},{"name":"A4","midi":69,"time":41.84505208333333,"velocity":0.7637795275590551,"duration":0.1393229166666643},{"name":"G#4","midi":68,"time":41.97395833333333,"velocity":0.7637795275590551,"duration":0.1393229166666643},{"name":"A4","midi":69,"time":42.10286458333333,"velocity":0.7637795275590551,"duration":0.89453125},{"name":"A2","midi":45,"time":42.13281249999999,"velocity":0.7637795275590551,"duration":0.28515625},{"name":"C#3","midi":49,"time":42.42317708333333,"velocity":0.7637795275590551,"duration":0.28515625},{"name":"F#3","midi":54,"time":42.71223958333333,"velocity":0.7637795275590551,"duration":0.28515625},{"name":"B4","midi":71,"time":43.002604166666664,"velocity":0.7637795275590551,"duration":0.28515625},{"name":"E3","midi":52,"time":43.002604166666664,"velocity":0.7637795275590551,"duration":0.28515625},{"name":"E4","midi":64,"time":43.29296875,"velocity":0.7637795275590551,"duration":0.28515625},{"name":"G#4","midi":68,"time":43.29296875,"velocity":0.7637795275590551,"duration":0.28515625},{"name":"F#3","midi":54,"time":43.29296875,"velocity":0.7637795275590551,"duration":0.28515625},{"name":"A4","midi":69,"time":43.583333333333336,"velocity":0.7637795275590551,"duration":0.1393229166666643},{"name":"D#4","midi":63,"time":43.583333333333336,"velocity":0.7637795275590551,"duration":0.8606770833333286},{"name":"B2","midi":47,"time":43.583333333333336,"velocity":0.7637795275590551,"duration":0.28515625},{"name":"G#4","midi":68,"time":43.727864583333336,"velocity":0.7637795275590551,"duration":0.1393229166666643},{"name":"A4","midi":69,"time":43.872395833333336,"velocity":0.7637795275590551,"duration":0.1393229166666643},{"name":"D#3","midi":51,"time":43.872395833333336,"velocity":0.7637795275590551,"duration":0.2851562499999929},{"name":"G#4","midi":68,"time":44.018229166666664,"velocity":0.7637795275590551,"duration":0.1393229166666643},{"name":"A4","midi":69,"time":44.162760416666664,"velocity":0.7637795275590551,"duration":0.1393229166666643},{"name":"F#3","midi":54,"time":44.162760416666664,"velocity":0.7637795275590551,"duration":0.28515625},{"name":"G#4","midi":68,"time":44.307291666666664,"velocity":0.7637795275590551,"duration":0.1393229166666643},{"name":"A4","midi":69,"time":44.453125,"velocity":0.7637795275590551,"duration":0.28515625},{"name":"B3","midi":59,"time":44.453125,"velocity":0.7637795275590551,"duration":0.28515625},{"name":"B4","midi":71,"time":44.7421875,"velocity":0.7637795275590551,"duration":0.1393229166666643},{"name":"A3","midi":57,"time":44.7421875,"velocity":0.7637795275590551,"duration":0.2851562499999929},{"name":"A4","midi":69,"time":44.88802083333333,"velocity":0.7637795275590551,"duration":0.1393229166666643},{"name":"G#4","midi":68,"time":45.03255208333333,"velocity":0.7637795275590551,"duration":0.1393229166666643},{"name":"B3","midi":59,"time":45.03255208333333,"velocity":0.7637795275590551,"duration":0.28515625},{"name":"F#4","midi":66,"time":45.17708333333333,"velocity":0.7637795275590551,"duration":0.1393229166666643},{"name":"G#4","midi":68,"time":45.322916666666664,"velocity":0.7637795275590551,"duration":0.1393229166666643},{"name":"E3","midi":52,"time":45.322916666666664,"velocity":0.7637795275590551,"duration":0.28515625},{"name":"F#4","midi":66,"time":45.467447916666664,"velocity":0.7637795275590551,"duration":0.1393229166666643},{"name":"E4","midi":64,"time":45.61328125,"velocity":0.7637795275590551,"duration":0.1393229166666643},{"name":"G#3","midi":56,"time":45.61328125,"velocity":0.7637795275590551,"duration":0.28515625},{"name":"F#4","midi":66,"time":45.7578125,"velocity":0.7637795275590551,"duration":0.1393229166666643},{"name":"G#4","midi":68,"time":45.90234375,"velocity":0.7637795275590551,"duration":0.1393229166666643},{"name":"B3","midi":59,"time":45.90234375,"velocity":0.7637795275590551,"duration":0.2851562499999929},{"name":"A4","midi":69,"time":46.04817708333333,"velocity":0.7637795275590551,"duration":0.1393229166666643},{"name":"B4","midi":71,"time":46.19270833333333,"velocity":0.7637795275590551,"duration":0.1393229166666643},{"name":"E4","midi":64,"time":46.19270833333333,"velocity":0.7637795275590551,"duration":0.28515625},{"name":"A4","midi":69,"time":46.33723958333333,"velocity":0.7637795275590551,"duration":0.1393229166666643},{"name":"G#4","midi":68,"time":46.483072916666664,"velocity":0.7637795275590551,"duration":0.1393229166666643},{"name":"D4","midi":62,"time":46.483072916666664,"velocity":0.7637795275590551,"duration":0.28515625},{"name":"A4","midi":69,"time":46.627604166666664,"velocity":0.7637795275590551,"duration":0.1393229166666643},{"name":"B4","midi":71,"time":46.772135416666664,"velocity":0.7637795275590551,"duration":0.1393229166666643},{"name":"C#4","midi":61,"time":46.772135416666664,"velocity":0.7637795275590551,"duration":0.2851562499999929},{"name":"C#5","midi":73,"time":46.91796874999999,"velocity":0.7637795275590551,"duration":0.1393229166666643},{"name":"D5","midi":74,"time":47.06249999999999,"velocity":0.7637795275590551,"duration":0.1393229166666643},{"name":"B3","midi":59,"time":47.06249999999999,"velocity":0.7637795275590551,"duration":0.5742187499999929},{"name":"C#5","midi":73,"time":47.20833333333332,"velocity":0.7637795275590551,"duration":0.1393229166666643},{"name":"B4","midi":71,"time":47.35286458333332,"velocity":0.7637795275590551,"duration":0.1393229166666643},{"name":"A4","midi":69,"time":47.49739583333332,"velocity":0.7637795275590551,"duration":0.1393229166666643},{"name":"G#4","midi":68,"time":47.64322916666665,"velocity":0.7637795275590551,"duration":0.1393229166666643},{"name":"A3","midi":57,"time":47.64322916666665,"velocity":0.7637795275590551,"duration":0.28515625},{"name":"F#4","midi":66,"time":47.78776041666665,"velocity":0.7637795275590551,"duration":0.1393229166666643},{"name":"E4","midi":64,"time":47.93229166666665,"velocity":0.7637795275590551,"duration":0.8606770833333286},{"name":"G#3","midi":56,"time":47.93229166666665,"velocity":0.7637795275590551,"duration":0.4296875},{"name":"D4","midi":62,"time":48.078124999999986,"velocity":0.7637795275590551,"duration":0.1393229166666643},{"name":"C#4","midi":61,"time":48.222656249999986,"velocity":0.7637795275590551,"duration":0.1393229166666643},{"name":"B3","midi":59,"time":48.367187499999986,"velocity":0.7637795275590551,"duration":0.1393229166666643},{"name":"A3","midi":57,"time":48.513020833333314,"velocity":0.7637795275590551,"duration":0.1393229166666643},{"name":"G#3","midi":56,"time":48.657552083333314,"velocity":0.7637795275590551,"duration":0.1393229166666643},{"name":"A4","midi":69,"time":48.802083333333314,"velocity":0.7637795275590551,"duration":5.210937500000014},{"name":"A3","midi":57,"time":48.802083333333314,"velocity":0.7637795275590551,"duration":6.080729166666686},{"name":"C#5","midi":73,"time":49.09244791666665,"velocity":0.7637795275590551,"duration":0.28515625},{"name":"E5","midi":76,"time":49.382812499999986,"velocity":0.7637795275590551,"duration":0.28515625},{"name":"A5","midi":81,"time":49.67317708333332,"velocity":0.7637795275590551,"duration":0.28515625},{"name":"C#4","midi":61,"time":49.67317708333332,"velocity":0.7637795275590551,"duration":0.8645833333333357},{"name":"G#5","midi":80,"time":49.96223958333332,"velocity":0.7637795275590551,"duration":0.28515625},{"name":"A5","midi":81,"time":50.25260416666666,"velocity":0.7637795275590551,"duration":0.28515625},{"name":"G#5","midi":80,"time":50.54296874999999,"velocity":0.7637795275590551,"duration":0.1393229166666643},{"name":"D4","midi":62,"time":50.54296874999999,"velocity":0.7637795275590551,"duration":1.1549479166666643},{"name":"F#5","midi":78,"time":50.68749999999999,"velocity":0.7637795275590551,"duration":0.1393229166666643},{"name":"E5","midi":76,"time":50.83333333333332,"velocity":0.7637795275590551,"duration":0.28515625},{"name":"F#5","midi":78,"time":51.12239583333332,"velocity":0.7637795275590551,"duration":0.28515625},{"name":"A5","midi":81,"time":51.41276041666666,"velocity":0.7637795275590551,"duration":0.8645833333333357},{"name":"C#4","midi":61,"time":51.70312499999999,"velocity":0.7637795275590551,"duration":0.28515625},{"name":"B3","midi":59,"time":51.99218749999999,"velocity":0.7637795275590551,"duration":0.28515625},{"name":"F#5","midi":78,"time":52.28255208333333,"velocity":0.7637795275590551,"duration":0.1393229166666643},{"name":"C#4","midi":61,"time":52.28255208333333,"velocity":0.7637795275590551,"duration":1.1549479166666643},{"name":"E5","midi":76,"time":52.42708333333333,"velocity":0.7637795275590551,"duration":0.1393229166666643},{"name":"D5","midi":74,"time":52.57291666666666,"velocity":0.7637795275590551,"duration":0.28515625},{"name":"E5","midi":76,"time":52.86328124999999,"velocity":0.7637795275590551,"duration":0.28515625},{"name":"A5","midi":81,"time":53.15234374999999,"velocity":0.7637795275590551,"duration":0.8645833333333357},{"name":"D4","midi":62,"time":53.44270833333333,"velocity":0.7637795275590551,"duration":0.28515625},{"name":"C#4","midi":61,"time":53.733072916666664,"velocity":0.7637795275590551,"duration":0.28515625},{"name":"D5","midi":74,"time":54.022135416666664,"velocity":0.7637795275590551,"duration":0.56640625},{"name":"B3","midi":59,"time":54.022135416666664,"velocity":0.7637795275590551,"duration":1.7369791666666785},{"name":"E5","midi":76,"time":54.3125,"velocity":0.7637795275590551,"duration":0.28515625},{"name":"F#5","midi":78,"time":54.602864583333336,"velocity":0.7637795275590551,"duration":0.28515625},{"name":"E5","midi":76,"time":54.89322916666667,"velocity":0.7637795275590551,"duration":0.28515625},{"name":"G#3","midi":56,"time":54.89322916666667,"velocity":0.7637795275590551,"duration":0.79296875},{"name":"F#5","midi":78,"time":55.18229166666667,"velocity":0.7637795275590551,"duration":0.28515625},{"name":"D5","midi":74,"time":55.47265625000001,"velocity":0.7637795275590551,"duration":0.28515625},{"name":"C#5","midi":73,"time":55.76302083333334,"velocity":0.7637795275590551,"duration":0.28515625},{"name":"A2","midi":45,"time":55.76302083333334,"velocity":0.7637795275590551,"duration":0.28515625},{"name":"A4","midi":69,"time":56.05208333333334,"velocity":0.7637795275590551,"duration":0.28515625},{"name":"C#3","midi":49,"time":56.05208333333334,"velocity":0.7637795275590551,"duration":0.28515625},{"name":"B4","midi":71,"time":56.34244791666668,"velocity":0.7637795275590551,"duration":0.28515625},{"name":"E3","midi":52,"time":56.34244791666668,"velocity":0.7637795275590551,"duration":0.28515625},{"name":"A3","midi":57,"time":56.632812500000014,"velocity":0.7637795275590551,"duration":0.2851562499999929},{"name":"C#5","midi":73,"time":56.63541666666668,"velocity":0.7637795275590551,"duration":0.1393229166666643},{"name":"B4","midi":71,"time":56.76432291666668,"velocity":0.7637795275590551,"duration":0.1393229166666643},{"name":"C#5","midi":73,"time":56.89322916666668,"velocity":0.7637795275590551,"duration":0.87890625},{"name":"G#3","midi":56,"time":56.92317708333334,"velocity":0.7637795275590551,"duration":0.28515625},{"name":"A3","midi":57,"time":57.21223958333334,"velocity":0.7637795275590551,"duration":0.28515625},{"name":"D#3","midi":51,"time":57.50260416666668,"velocity":0.7637795275590551,"duration":1.7369791666666785},{"name":"B4","midi":71,"time":57.792968750000014,"velocity":0.7637795275590551,"duration":0.28515625},{"name":"A4","midi":69,"time":58.08333333333335,"velocity":0.7637795275590551,"duration":0.28515625},{"name":"F#3","midi":54,"time":58.08333333333335,"velocity":0.7637795275590551,"duration":0.28515625},{"name":"G#4","midi":68,"time":58.37239583333335,"velocity":0.7637795275590551,"duration":0.28515625},{"name":"B3","midi":59,"time":58.37239583333335,"velocity":0.7637795275590551,"duration":0.8645833333333357},{"name":"A4","midi":69,"time":58.662760416666686,"velocity":0.7637795275590551,"duration":0.28515625},{"name":"F#4","midi":66,"time":58.95312500000002,"velocity":0.7637795275590551,"duration":0.28515625},{"name":"G#4","midi":68,"time":59.24218750000002,"velocity":0.7637795275590551,"duration":0.28515625},{"name":"E2","midi":40,"time":59.24218750000002,"velocity":0.7637795275590551,"duration":0.28515625},{"name":"E4","midi":64,"time":59.53255208333336,"velocity":0.7637795275590551,"duration":0.28515625},{"name":"G#2","midi":44,"time":59.53255208333336,"velocity":0.7637795275590551,"duration":0.28515625},{"name":"F#4","midi":66,"time":59.82291666666669,"velocity":0.7637795275590551,"duration":0.28515625},{"name":"B2","midi":47,"time":59.82291666666669,"velocity":0.7637795275590551,"duration":0.28515625},{"name":"G#4","midi":68,"time":60.11328125000003,"velocity":0.7637795275590551,"duration":0.1393229166666643},{"name":"E3","midi":52,"time":60.11328125000003,"velocity":0.7637795275590551,"duration":0.2851562499999929},{"name":"F#4","midi":66,"time":60.27083333333336,"velocity":0.7637795275590551,"duration":0.1393229166666643},{"name":"G#4","midi":68,"time":60.40234375000002,"velocity":0.7637795275590551,"duration":0.1393229166666643},{"name":"D#3","midi":51,"time":60.40234375000002,"velocity":0.7637795275590551,"duration":0.2851562499999929},{"name":"F#4","midi":66,"time":60.533854166666686,"velocity":0.7637795275590551,"duration":0.1393229166666643},{"name":"G#4","midi":68,"time":60.66536458333335,"velocity":0.7637795275590551,"duration":0.6041666666666714},{"name":"E3","midi":52,"time":60.69270833333335,"velocity":0.7637795275590551,"duration":0.28515625},{"name":"A2","midi":45,"time":60.983072916666686,"velocity":0.7637795275590551,"duration":1.7369791666666714},{"name":"A4","midi":69,"time":61.272135416666686,"velocity":0.7637795275590551,"duration":0.28515625},{"name":"B4","midi":71,"time":61.56250000000002,"velocity":0.7637795275590551,"duration":0.28515625},{"name":"E3","midi":52,"time":61.56250000000002,"velocity":0.7637795275590551,"duration":0.28515625},{"name":"C#5","midi":73,"time":61.85286458333336,"velocity":0.7637795275590551,"duration":0.56640625},{"name":"A3","midi":57,"time":61.85286458333336,"velocity":0.7637795275590551,"duration":1.7369791666666643},{"name":"F#4","midi":66,"time":62.14322916666669,"velocity":0.7637795275590551,"duration":0.5768229166666643},{"name":"A4","midi":69,"time":62.43229166666669,"velocity":0.7637795275590551,"duration":0.28515625},{"name":"B3","midi":59,"time":62.72265625000002,"velocity":0.7637795275590551,"duration":1.7369791666666643},{"name":"B2","midi":47,"time":62.72265625000002,"velocity":0.7637795275590551,"duration":4.915364583333293},{"name":"D#4","midi":63,"time":63.01302083333336,"velocity":0.7637795275590551,"duration":0.28515625},{"name":"F#4","midi":66,"time":63.30208333333336,"velocity":0.7637795275590551,"duration":0.28515625},{"name":"B4","midi":71,"time":63.592447916666686,"velocity":0.7637795275590551,"duration":0.28515625},{"name":"G#3","midi":56,"time":63.592447916666686,"velocity":0.7637795275590551,"duration":2.0247395833333286},{"name":"A4","midi":69,"time":63.88281250000002,"velocity":0.7637795275590551,"duration":0.2851562500000071},{"name":"B4","midi":71,"time":64.17317708333336,"velocity":0.7637795275590551,"duration":0.28515625},{"name":"C#4","midi":61,"time":64.46223958333336,"velocity":0.7637795275590551,"duration":1.736979166666643},{"name":"E4","midi":64,"time":64.75260416666669,"velocity":0.7637795275590551,"duration":0.4973958333333286},{"name":"G#4","midi":68,"time":65.04296875000001,"velocity":0.7637795275590551,"duration":0.28515625},{"name":"A4","midi":69,"time":65.33333333333334,"velocity":0.7637795275590551,"duration":0.1393229166666714},{"name":"G#4","midi":68,"time":65.47786458333334,"velocity":0.7637795275590551,"duration":0.1393229166666714},{"name":"A4","midi":69,"time":65.62239583333334,"velocity":0.7637795275590551,"duration":0.57421875},{"name":"F#3","midi":54,"time":65.62239583333334,"velocity":0.7637795275590551,"duration":0.28515625},{"name":"E3","midi":52,"time":65.91276041666667,"velocity":0.7637795275590551,"duration":0.28515625},{"name":"B3","midi":59,"time":66.203125,"velocity":0.7637795275590551,"duration":1.7369791666666572},{"name":"D#3","midi":51,"time":66.203125,"velocity":0.7637795275590551,"duration":2.605468749999986},{"name":"D#4","midi":63,"time":66.4921875,"velocity":0.7637795275590551,"duration":0.4973958333333286},{"name":"F#4","midi":66,"time":66.78255208333333,"velocity":0.7637795275590551,"duration":0.28515625},{"name":"A4","midi":69,"time":67.07291666666666,"velocity":0.7637795275590551,"duration":0.28515625},{"name":"G#4","midi":68,"time":67.36328124999999,"velocity":0.7637795275590551,"duration":0.28515625},{"name":"A4","midi":69,"time":67.65234374999999,"velocity":0.7637795275590551,"duration":0.28515625},{"name":"F#2","midi":42,"time":67.65234374999999,"velocity":0.7637795275590551,"duration":0.28515625},{"name":"B3","midi":59,"time":67.94270833333333,"velocity":0.7637795275590551,"duration":0.8606770833333286},{"name":"G2","midi":43,"time":67.94270833333333,"velocity":0.7637795275590551,"duration":1.1549479166666714},{"name":"D#4","midi":63,"time":68.23307291666666,"velocity":0.7637795275590551,"duration":0.28515625},{"name":"F#4","midi":66,"time":68.52213541666666,"velocity":0.7637795275590551,"duration":0.28515625},{"name":"E4","midi":64,"time":68.81249999999999,"velocity":0.7637795275590551,"duration":0.1393229166666714},{"name":"E3","midi":52,"time":68.81249999999999,"velocity":0.7637795275590551,"duration":1.1549479166666714},{"name":"F#4","midi":66,"time":68.95833333333333,"velocity":0.7637795275590551,"duration":0.1393229166666714},{"name":"G4","midi":67,"time":69.10286458333333,"velocity":0.7637795275590551,"duration":0.79296875},{"name":"A2","midi":45,"time":69.10286458333333,"velocity":0.7637795275590551,"duration":0.28515625},{"name":"B2","midi":47,"time":69.39322916666666,"velocity":0.7637795275590551,"duration":0.28515625},{"name":"C3","midi":48,"time":69.68229166666666,"velocity":0.7637795275590551,"duration":1.736979166666643},{"name":"A4","midi":69,"time":69.97265624999999,"velocity":0.7637795275590551,"duration":0.28515625},{"name":"F#3","midi":54,"time":69.97265624999999,"velocity":0.7637795275590551,"duration":0.28515625},{"name":"G4","midi":67,"time":70.26302083333331,"velocity":0.7637795275590551,"duration":0.28515625},{"name":"G3","midi":55,"time":70.26302083333331,"velocity":0.7637795275590551,"duration":0.28515625},{"name":"F#4","midi":66,"time":70.55208333333331,"velocity":0.7637795275590551,"duration":0.28515625},{"name":"A3","midi":57,"time":70.55208333333331,"velocity":0.7637795275590551,"duration":0.8645833333333286},{"name":"G4","midi":67,"time":70.84244791666664,"velocity":0.7637795275590551,"duration":0.28515625},{"name":"E4","midi":64,"time":71.13281249999997,"velocity":0.7637795275590551,"duration":0.28515625},{"name":"D#4","midi":63,"time":71.4231770833333,"velocity":0.7637795275590551,"duration":0.28515625},{"name":"A3","midi":57,"time":71.4231770833333,"velocity":0.7637795275590551,"duration":1.0872395833333286},{"name":"B2","midi":47,"time":71.4231770833333,"velocity":0.7637795275590551,"duration":1.1549479166666572},{"name":"C#4","midi":61,"time":71.7122395833333,"velocity":0.7637795275590551,"duration":0.28515625},{"name":"B3","midi":59,"time":72.00260416666663,"velocity":0.7637795275590551,"duration":0.28515625},{"name":"C5","midi":72,"time":72.29296874999996,"velocity":0.7637795275590551,"duration":0.28515625},{"name":"B4","midi":71,"time":72.58333333333329,"velocity":0.7637795275590551,"duration":0.28515625},{"name":"G#3","midi":56,"time":72.58333333333329,"velocity":0.7637795275590551,"duration":0.28515625},{"name":"C#3","midi":49,"time":72.58333333333329,"velocity":0.7637795275590551,"duration":0.28515625},{"name":"A#4","midi":70,"time":72.87239583333329,"velocity":0.7637795275590551,"duration":0.28515625},{"name":"F#3","midi":54,"time":72.87239583333329,"velocity":0.7637795275590551,"duration":0.28515625},{"name":"D#3","midi":51,"time":72.87239583333329,"velocity":0.7637795275590551,"duration":0.28515625},{"name":"A4","midi":69,"time":73.16276041666661,"velocity":0.7637795275590551,"duration":0.28515625},{"name":"E3","midi":52,"time":73.16276041666661,"velocity":0.7637795275590551,"duration":1.1549479166666572},{"name":"G#4","midi":68,"time":73.45312499999994,"velocity":0.7637795275590551,"duration":0.28515625},{"name":"G4","midi":67,"time":73.74218749999994,"velocity":0.7637795275590551,"duration":0.28515625},{"name":"A#2","midi":46,"time":73.74218749999994,"velocity":0.7637795275590551,"duration":0.28515625},{"name":"F#4","midi":66,"time":74.03255208333327,"velocity":0.7637795275590551,"duration":0.1393229166666714},{"name":"B2","midi":47,"time":74.03255208333327,"velocity":0.7637795275590551,"duration":0.8606770833333286},{"name":"G#4","midi":68,"time":74.17708333333327,"velocity":0.7637795275590551,"duration":0.1393229166666714},{"name":"A4","midi":69,"time":74.3229166666666,"velocity":0.7637795275590551,"duration":0.28515625},{"name":"D#3","midi":51,"time":74.3229166666666,"velocity":0.7637795275590551,"duration":0.28515625},{"name":"D#4","midi":63,"time":74.61328124999993,"velocity":0.7637795275590551,"duration":0.28515625},{"name":"A3","midi":57,"time":74.61328124999993,"velocity":0.7637795275590551,"duration":0.28515625},{"name":"E4","midi":64,"time":74.90234374999993,"velocity":0.7637795275590551,"duration":0.1419270833333286},{"name":"G#3","midi":56,"time":74.90234374999993,"velocity":0.7637795275590551,"duration":0.3007812499999858},{"name":"C#3","midi":49,"time":74.90234374999993,"velocity":0.7637795275590551,"duration":1.8203124999999432},{"name":"D#4","midi":63,"time":75.01562499999993,"velocity":0.7637795275590551,"duration":0.1445312499999858},{"name":"E4","midi":64,"time":75.13151041666659,"velocity":0.7637795275590551,"duration":3.246093749999929},{"name":"E3","midi":52,"time":75.20833333333324,"velocity":0.7637795275590551,"duration":0.2981770833333286},{"name":"G#3","midi":56,"time":75.5117187499999,"velocity":0.7637795275590551,"duration":0.2981770833333286},{"name":"A3","midi":57,"time":75.81510416666656,"velocity":0.7637795275590551,"duration":0.2981770833333286},{"name":"G#3","midi":56,"time":76.11979166666656,"velocity":0.7637795275590551,"duration":0.2981770833333286},{"name":"A3","midi":57,"time":76.42317708333321,"velocity":0.7637795275590551,"duration":0.2981770833333286},{"name":"E3","midi":52,"time":76.72656249999987,"velocity":0.7637795275590551,"duration":2.1627604166666288},{"name":"G#2","midi":44,"time":76.72656249999987,"velocity":0.7637795275590551,"duration":1.8164062499999716},{"name":"G#3","midi":56,"time":77.02994791666654,"velocity":0.7637795275590551,"duration":0.2981770833333286},{"name":"B3","midi":59,"time":77.3333333333332,"velocity":0.7637795275590551,"duration":0.2981770833333286},{"name":"D4","midi":62,"time":77.63671874999986,"velocity":0.7637795275590551,"duration":0.2981770833333286},{"name":"C#4","midi":61,"time":77.94140624999986,"velocity":0.7637795275590551,"duration":0.2981770833333286},{"name":"D4","midi":62,"time":78.24479166666652,"velocity":0.7637795275590551,"duration":0.2981770833333286},{"name":"E4","midi":64,"time":78.54817708333317,"velocity":0.7637795275590551,"duration":1.9388020833333286},{"name":"C#4","midi":61,"time":78.54817708333317,"velocity":0.7637795275590551,"duration":0.15625},{"name":"A2","midi":45,"time":78.54817708333317,"velocity":0.7637795275590551,"duration":2.6067708333333286},{"name":"B3","midi":59,"time":78.70833333333317,"velocity":0.7637795275590551,"duration":0.1653645833333286},{"name":"C#4","midi":61,"time":78.87890624999983,"velocity":0.7637795275590551,"duration":1.6080729166666714},{"name":"C#3","midi":49,"time":78.87890624999983,"velocity":0.7637795275590551,"duration":0.3463541666666714},{"name":"E3","midi":52,"time":79.23046874999983,"velocity":0.7637795275590551,"duration":0.3567708333333286},{"name":"A3","midi":57,"time":79.59505208333316,"velocity":0.7637795275590551,"duration":0.3932291666666714},{"name":"G#3","midi":56,"time":79.99609374999983,"velocity":0.7637795275590551,"duration":0.4908854166666714},{"name":"C4","midi":60,"time":80.4947916666665,"velocity":0.7637795275590551,"duration":0.65625},{"name":"D#4","midi":63,"time":80.4947916666665,"velocity":0.7637795275590551,"duration":0.65625},{"name":"A3","midi":57,"time":80.4947916666665,"velocity":0.7637795275590551,"duration":0.65625},{"name":"E2","midi":40,"time":81.16015624999983,"velocity":0.7637795275590551,"duration":3.1549479166666714},{"name":"B3","midi":59,"time":81.16015624999983,"velocity":0.7637795275590551,"duration":3.1549479166666714},{"name":"E4","midi":64,"time":81.16015624999983,"velocity":0.7637795275590551,"duration":3.1549479166666714},{"name":"G#3","midi":56,"time":81.16015624999983,"velocity":0.7637795275590551,"duration":3.1549479166666714},{"name":"E4","midi":64,"time":85.50520833333317,"velocity":0.7637795275590551,"duration":0.3255208333333286},{"name":"F#4","midi":66,"time":85.90234374999983,"velocity":0.7637795275590551,"duration":0.1848958333333286},{"name":"E4","midi":64,"time":86.09895833333316,"velocity":0.7637795275590551,"duration":0.1848958333333286},{"name":"F#4","midi":66,"time":86.29687499999982,"velocity":0.7637795275590551,"duration":0.5130208333333286},{"name":"B3","midi":59,"time":86.89062499999982,"velocity":0.7637795275590551,"duration":0.1848958333333286},{"name":"C#4","midi":61,"time":87.08723958333314,"velocity":0.7637795275590551,"duration":0.1848958333333286},{"name":"D#4","midi":63,"time":87.28385416666647,"velocity":0.7637795275590551,"duration":0.1848958333333286},{"name":"E4","midi":64,"time":87.48177083333313,"velocity":0.7637795275590551,"duration":0.1848958333333286},{"name":"D#4","midi":63,"time":87.67838541666646,"velocity":0.7637795275590551,"duration":0.1848958333333286},{"name":"E4","midi":64,"time":87.87630208333312,"velocity":0.7637795275590551,"duration":0.1848958333333286},{"name":"F#4","midi":66,"time":88.07291666666644,"velocity":0.7637795275590551,"duration":0.1848958333333286},{"name":"G#4","midi":68,"time":88.26953124999977,"velocity":0.7637795275590551,"duration":0.1848958333333286},{"name":"A4","midi":69,"time":88.46744791666643,"velocity":0.7637795275590551,"duration":0.1848958333333286},{"name":"B4","midi":71,"time":88.66406249999976,"velocity":0.7637795275590551,"duration":0.3255208333333286},{"name":"G#4","midi":68,"time":88.86067708333309,"velocity":0.7637795275590551,"duration":0.1848958333333286},{"name":"E4","midi":64,"time":89.06119791666642,"velocity":0.7637795275590551,"duration":0.1848958333333286},{"name":"C#5","midi":73,"time":89.06119791666642,"velocity":0.7637795275590551,"duration":0.1848958333333286},{"name":"D#4","midi":63,"time":89.25781249999974,"velocity":0.7637795275590551,"duration":0.1848958333333286},{"name":"B4","midi":71,"time":89.25781249999974,"velocity":0.7637795275590551,"duration":0.1848958333333286},{"name":"E4","midi":64,"time":89.45442708333307,"velocity":0.7637795275590551,"duration":0.1848958333333286},{"name":"C#5","midi":73,"time":89.45442708333307,"velocity":0.7637795275590551,"duration":0.5130208333333144},{"name":"F#4","midi":66,"time":89.65234374999973,"velocity":0.7637795275590551,"duration":0.1848958333333286},{"name":"E4","midi":64,"time":89.84895833333306,"velocity":0.7637795275590551,"duration":0.1848958333333286},{"name":"D#4","midi":63,"time":90.04557291666639,"velocity":0.7637795275590551,"duration":0.1848958333333286},{"name":"F#4","midi":66,"time":90.04557291666639,"velocity":0.7637795275590551,"duration":0.1848958333333286},{"name":"E4","midi":64,"time":90.24348958333304,"velocity":0.7637795275590551,"duration":0.1848958333333286},{"name":"G#4","midi":68,"time":90.24348958333304,"velocity":0.7637795275590551,"duration":0.1848958333333286},{"name":"F#4","midi":66,"time":90.44010416666637,"velocity":0.7637795275590551,"duration":0.1848958333333286},{"name":"A#4","midi":70,"time":90.44010416666637,"velocity":0.7637795275590551,"duration":0.1848958333333286},{"name":"D#4","midi":63,"time":90.63802083333303,"velocity":0.7637795275590551,"duration":0.1848958333333286},{"name":"B4","midi":71,"time":90.63802083333303,"velocity":0.7637795275590551,"duration":0.1848958333333286},{"name":"C#4","midi":61,"time":90.83463541666636,"velocity":0.7637795275590551,"duration":0.1848958333333286},{"name":"A#4","midi":70,"time":90.83463541666636,"velocity":0.7637795275590551,"duration":0.1848958333333286},{"name":"D#4","midi":63,"time":91.03124999999969,"velocity":0.7637795275590551,"duration":0.1848958333333286},{"name":"B4","midi":71,"time":91.03124999999969,"velocity":0.7637795275590551,"duration":0.1848958333333286},{"name":"E4","midi":64,"time":91.22916666666634,"velocity":0.7637795275590551,"duration":0.1848958333333286},{"name":"C#5","midi":73,"time":91.22916666666634,"velocity":0.7637795275590551,"duration":0.1848958333333286},{"name":"F#4","midi":66,"time":91.42578124999967,"velocity":0.7637795275590551,"duration":0.1848958333333286},{"name":"D#5","midi":75,"time":91.42578124999967,"velocity":0.7637795275590551,"duration":0.1848958333333286},{"name":"G#4","midi":68,"time":91.622395833333,"velocity":0.7637795275590551,"duration":0.1848958333333286},{"name":"E5","midi":76,"time":91.622395833333,"velocity":0.7637795275590551,"duration":0.1848958333333286},{"name":"A4","midi":69,"time":91.82031249999966,"velocity":0.7637795275590551,"duration":0.1848958333333286},{"name":"F#5","midi":78,"time":91.82031249999966,"velocity":0.7637795275590551,"duration":0.1848958333333286},{"name":"F#4","midi":66,"time":92.01692708333299,"velocity":0.7637795275590551,"duration":0.1848958333333286},{"name":"D#5","midi":75,"time":92.01692708333299,"velocity":0.7637795275590551,"duration":0.1848958333333286},{"name":"G#4","midi":68,"time":92.21484374999964,"velocity":0.7637795275590551,"duration":0.3919270833333286},{"name":"B4","midi":71,"time":92.21484374999964,"velocity":0.7637795275590551,"duration":0.1848958333333286},{"name":"A4","midi":69,"time":92.41145833333297,"velocity":0.7637795275590551,"duration":0.1848958333333286},{"name":"B3","midi":59,"time":92.61067708333297,"velocity":0.7637795275590551,"duration":0.3255208333333286},{"name":"B4","midi":71,"time":92.61067708333297,"velocity":0.7637795275590551,"duration":0.1848958333333286},{"name":"C#5","midi":73,"time":92.8072916666663,"velocity":0.7637795275590551,"duration":0.1848958333333286},{"name":"E4","midi":64,"time":93.00781249999963,"velocity":0.7637795275590551,"duration":1.1822916666666288},{"name":"B4","midi":71,"time":93.00781249999963,"velocity":0.7637795275590551,"duration":0.1848958333333286},{"name":"A4","midi":69,"time":93.20442708333296,"velocity":0.7637795275590551,"duration":0.1848958333333286},{"name":"E3","midi":52,"time":93.40104166666629,"velocity":0.7637795275590551,"duration":0.3919270833333144},{"name":"B4","midi":71,"time":93.40104166666629,"velocity":0.7637795275590551,"duration":0.1848958333333286},{"name":"C#5","midi":73,"time":93.59895833333294,"velocity":0.7637795275590551,"duration":0.1848958333333286},{"name":"F#3","midi":54,"time":93.79817708333293,"velocity":0.7637795275590551,"duration":0.1848958333333286},{"name":"A4","midi":69,"time":93.79817708333293,"velocity":0.7637795275590551,"duration":0.1848958333333286},{"name":"E3","midi":52,"time":93.99479166666626,"velocity":0.7637795275590551,"duration":0.1848958333333286},{"name":"G#4","midi":68,"time":93.99479166666626,"velocity":0.7637795275590551,"duration":0.1848958333333286},{"name":"F#3","midi":54,"time":94.19401041666626,"velocity":0.7637795275590551,"duration":0.5364583333333286},{"name":"D#4","midi":63,"time":94.19401041666626,"velocity":0.7637795275590551,"duration":0.3515624999999858},{"name":"A4","midi":69,"time":94.19401041666626,"velocity":0.7637795275590551,"duration":0.1848958333333286},{"name":"B4","midi":71,"time":94.39192708333292,"velocity":0.7637795275590551,"duration":0.1848958333333286},{"name":"F#4","midi":66,"time":94.59114583333292,"velocity":0.7637795275590551,"duration":0.9830729166666572},{"name":"A4","midi":69,"time":94.59114583333292,"velocity":0.7637795275590551,"duration":0.1848958333333428},{"name":"B2","midi":47,"time":94.78776041666626,"velocity":0.7637795275590551,"duration":0.1848958333333286},{"name":"G#4","midi":68,"time":94.78776041666626,"velocity":0.7637795275590551,"duration":0.1848958333333286},{"name":"C#3","midi":49,"time":94.98567708333292,"velocity":0.7637795275590551,"duration":0.1848958333333286},{"name":"A4","midi":69,"time":94.98567708333292,"velocity":0.7637795275590551,"duration":0.1848958333333286},{"name":"D#3","midi":51,"time":95.18229166666625,"velocity":0.7637795275590551,"duration":0.1848958333333286},{"name":"B4","midi":71,"time":95.18229166666625,"velocity":0.7637795275590551,"duration":0.1848958333333286},{"name":"E3","midi":52,"time":95.37890624999957,"velocity":0.7637795275590551,"duration":0.1848958333333286},{"name":"G#4","midi":68,"time":95.37890624999957,"velocity":0.7637795275590551,"duration":0.1848958333333286},{"name":"D#3","midi":51,"time":95.5794270833329,"velocity":0.7637795275590551,"duration":0.1848958333333286},{"name":"F#4","midi":66,"time":95.5794270833329,"velocity":0.7637795275590551,"duration":0.1848958333333286},{"name":"E3","midi":52,"time":95.77604166666623,"velocity":0.7637795275590551,"duration":0.1848958333333286},{"name":"B3","midi":59,"time":95.77604166666623,"velocity":0.7637795275590551,"duration":0.3919270833333286},{"name":"G#4","midi":68,"time":95.77604166666623,"velocity":0.7637795275590551,"duration":0.1848958333333286},{"name":"F#3","midi":54,"time":95.97265624999956,"velocity":0.7637795275590551,"duration":0.1848958333333286},{"name":"A#4","midi":70,"time":95.97265624999956,"velocity":0.7637795275590551,"duration":0.1848958333333286},{"name":"G#3","midi":56,"time":96.17187499999956,"velocity":0.7637795275590551,"duration":0.1848958333333286},{"name":"E4","midi":64,"time":96.17187499999956,"velocity":0.7637795275590551,"duration":0.3919270833333144},{"name":"B4","midi":71,"time":96.17187499999956,"velocity":0.7637795275590551,"duration":1.5781249999999432},{"name":"A3","midi":57,"time":96.36979166666622,"velocity":0.7637795275590551,"duration":0.1848958333333286},{"name":"B3","midi":59,"time":96.5690104166662,"velocity":0.7637795275590551,"duration":0.1848958333333286},{"name":"D#4","midi":63,"time":96.5690104166662,"velocity":0.7637795275590551,"duration":0.3919270833333286},{"name":"G#3","midi":56,"time":96.76562499999953,"velocity":0.7637795275590551,"duration":0.1848958333333286},{"name":"E3","midi":52,"time":96.96484374999953,"velocity":0.7637795275590551,"duration":0.1848958333333286},{"name":"C#4","midi":61,"time":96.96484374999953,"velocity":0.7637795275590551,"duration":1.5768229166666146},{"name":"D#3","midi":51,"time":97.16276041666619,"velocity":0.7637795275590551,"duration":0.1848958333333286},{"name":"E3","midi":52,"time":97.35937499999952,"velocity":0.7637795275590551,"duration":0.1848958333333286},{"name":"F#3","midi":54,"time":97.55729166666617,"velocity":0.7637795275590551,"duration":0.1848958333333286},{"name":"E3","midi":52,"time":97.75651041666617,"velocity":0.7637795275590551,"duration":0.1848958333333286},{"name":"A#4","midi":70,"time":97.75651041666617,"velocity":0.7637795275590551,"duration":0.7851562499999716},{"name":"D#3","midi":51,"time":97.9531249999995,"velocity":0.7637795275590551,"duration":0.1848958333333286},{"name":"E3","midi":52,"time":98.14973958333283,"velocity":0.7637795275590551,"duration":0.1848958333333286},{"name":"F#3","midi":54,"time":98.34765624999949,"velocity":0.7637795275590551,"duration":0.1848958333333286},{"name":"D#3","midi":51,"time":98.54687499999947,"velocity":0.7637795275590551,"duration":0.1848958333333286},{"name":"B3","midi":59,"time":98.54687499999947,"velocity":0.7637795275590551,"duration":0.3919270833333286},{"name":"B4","midi":71,"time":98.54687499999947,"velocity":0.7637795275590551,"duration":1.583333333333286},{"name":"C#3","midi":49,"time":98.7434895833328,"velocity":0.7637795275590551,"duration":0.1848958333333286},{"name":"D#3","midi":51,"time":98.9427083333328,"velocity":0.7637795275590551,"duration":0.1848958333333286},{"name":"B5","midi":83,"time":98.9427083333328,"velocity":0.7637795275590551,"duration":0.3919270833333144},{"name":"E3","midi":52,"time":99.14062499999946,"velocity":0.7637795275590551,"duration":0.1848958333333286},{"name":"F#3","midi":54,"time":99.33984374999945,"velocity":0.7637795275590551,"duration":0.1848958333333286},{"name":"D#5","midi":75,"time":99.33984374999945,"velocity":0.7637795275590551,"duration":0.3919270833333286},{"name":"G#3","midi":56,"time":99.53645833333277,"velocity":0.7637795275590551,"duration":0.1848958333333286},{"name":"A3","midi":57,"time":99.73567708333277,"velocity":0.7637795275590551,"duration":0.1848958333333286},{"name":"F#5","midi":78,"time":99.73567708333277,"velocity":0.7637795275590551,"duration":0.7812499999999858},{"name":"F#3","midi":54,"time":99.93359374999943,"velocity":0.7637795275590551,"duration":0.1848958333333286},{"name":"G#3","midi":56,"time":100.13281249999943,"velocity":0.7637795275590551,"duration":0.1848958333333286},{"name":"B4","midi":71,"time":100.13281249999943,"velocity":0.7637795275590551,"duration":1.182291666666643},{"name":"F#3","midi":54,"time":100.32942708333276,"velocity":0.7637795275590551,"duration":0.1848958333333286},{"name":"G#3","midi":56,"time":100.52734374999943,"velocity":0.7637795275590551,"duration":0.1848958333333286},{"name":"E5","midi":76,"time":100.52734374999943,"velocity":0.7637795275590551,"duration":0.3919270833333286},{"name":"A3","midi":57,"time":100.72395833333276,"velocity":0.7637795275590551,"duration":0.1848958333333286},{"name":"B3","midi":59,"time":100.92317708333276,"velocity":0.7637795275590551,"duration":0.1848958333333286},{"name":"G#4","midi":68,"time":100.92317708333276,"velocity":0.7637795275590551,"duration":0.7812499999999716},{"name":"C#4","midi":61,"time":101.12109374999942,"velocity":0.7637795275590551,"duration":0.1848958333333286},{"name":"D4","midi":62,"time":101.3203124999994,"velocity":0.7637795275590551,"duration":0.1848958333333286},{"name":"B4","midi":71,"time":101.3203124999994,"velocity":0.7637795275590551,"duration":0.3919270833333286},{"name":"B3","midi":59,"time":101.51692708333273,"velocity":0.7637795275590551,"duration":0.1848958333333286},{"name":"C#4","midi":61,"time":101.71614583333273,"velocity":0.7637795275590551,"duration":0.1848958333333286},{"name":"E4","midi":64,"time":101.71614583333273,"velocity":0.7637795275590551,"duration":0.3919270833333144},{"name":"B3","midi":59,"time":101.91406249999939,"velocity":0.7637795275590551,"duration":0.1848958333333286},{"name":"C#4","midi":61,"time":102.11328124999937,"velocity":0.7637795275590551,"duration":0.1848958333333286},{"name":"F#4","midi":66,"time":102.11328124999937,"velocity":0.7637795275590551,"duration":0.3919270833333286},{"name":"A4","midi":69,"time":102.11328124999937,"velocity":0.7637795275590551,"duration":0.3919270833333286},{"name":"D#4","midi":63,"time":102.3098958333327,"velocity":0.7637795275590551,"duration":0.1848958333333286},{"name":"E4","midi":64,"time":102.5091145833327,"velocity":0.7637795275590551,"duration":0.1848958333333286},{"name":"G#4","midi":68,"time":102.5091145833327,"velocity":0.7637795275590551,"duration":0.3919270833333144},{"name":"D#4","midi":63,"time":102.70703124999936,"velocity":0.7637795275590551,"duration":0.1848958333333286},{"name":"C#4","midi":61,"time":102.90624999999935,"velocity":0.7637795275590551,"duration":0.1848958333333286},{"name":"E4","midi":64,"time":102.90624999999935,"velocity":0.7637795275590551,"duration":0.3919270833333428},{"name":"E5","midi":76,"time":102.90624999999935,"velocity":0.7637795275590551,"duration":0.3515625},{"name":"B3","midi":59,"time":103.10286458333267,"velocity":0.7637795275590551,"duration":0.1848958333333428},{"name":"A3","midi":57,"time":103.30208333333269,"velocity":0.7637795275590551,"duration":0.1848958333333286},{"name":"E4","midi":64,"time":103.30208333333269,"velocity":0.7637795275590551,"duration":0.7851562499999716},{"name":"F#5","midi":78,"time":103.30208333333269,"velocity":0.7637795275590551,"duration":0.1848958333333286},{"name":"G#3","midi":56,"time":103.49999999999935,"velocity":0.7637795275590551,"duration":0.1848958333333286},{"name":"E5","midi":76,"time":103.49999999999935,"velocity":0.7637795275590551,"duration":0.1848958333333286},{"name":"A3","midi":57,"time":103.69661458333267,"velocity":0.7637795275590551,"duration":0.1848958333333286},{"name":"F#5","midi":78,"time":103.69661458333267,"velocity":0.7637795275590551,"duration":0.5364583333333144},{"name":"B3","midi":59,"time":103.893229166666,"velocity":0.7637795275590551,"duration":0.1848958333333286},{"name":"A3","midi":57,"time":104.09244791666599,"velocity":0.7637795275590551,"duration":0.1848958333333286},{"name":"D#4","midi":63,"time":104.09244791666599,"velocity":0.7637795275590551,"duration":0.3919270833333144},{"name":"G#3","midi":56,"time":104.29036458333265,"velocity":0.7637795275590551,"duration":0.1848958333333286},{"name":"B4","midi":71,"time":104.29036458333265,"velocity":0.7637795275590551,"duration":0.1848958333333286},{"name":"A3","midi":57,"time":104.48958333333263,"velocity":0.7637795275590551,"duration":0.1848958333333286},{"name":"F#4","midi":66,"time":104.48958333333263,"velocity":0.7637795275590551,"duration":0.3919270833333286},{"name":"C#5","midi":73,"time":104.48958333333263,"velocity":0.7637795275590551,"duration":0.1848958333333286},{"name":"B3","midi":59,"time":104.68619791666596,"velocity":0.7637795275590551,"duration":0.1848958333333286},{"name":"D#5","midi":75,"time":104.68619791666596,"velocity":0.7637795275590551,"duration":0.1848958333333286},{"name":"G#3","midi":56,"time":104.88541666666596,"velocity":0.7637795275590551,"duration":0.3919270833333144},{"name":"B3","midi":59,"time":104.88541666666596,"velocity":0.7637795275590551,"duration":1.184895833333286},{"name":"E5","midi":76,"time":104.88541666666596,"velocity":0.7637795275590551,"duration":0.1848958333333286},{"name":"D#5","midi":75,"time":105.08333333333262,"velocity":0.7637795275590551,"duration":0.1848958333333286},{"name":"F#3","midi":54,"time":105.2825520833326,"velocity":0.7637795275590551,"duration":0.3919270833333286},{"name":"E5","midi":76,"time":105.2825520833326,"velocity":0.7637795275590551,"duration":0.1848958333333286},{"name":"F#5","midi":78,"time":105.47916666666593,"velocity":0.7637795275590551,"duration":0.1848958333333286},{"name":"E3","midi":52,"time":105.67838541666593,"velocity":0.7637795275590551,"duration":0.3919270833333144},{"name":"G#5","midi":80,"time":105.67838541666593,"velocity":0.7637795275590551,"duration":0.1848958333333286},{"name":"A5","midi":81,"time":105.87630208333259,"velocity":0.7637795275590551,"duration":0.1848958333333286},{"name":"D#3","midi":51,"time":106.07552083333258,"velocity":0.7637795275590551,"duration":0.3919270833333286},{"name":"B4","midi":71,"time":106.07552083333258,"velocity":0.7637795275590551,"duration":0.3645833333333286},{"name":"B5","midi":83,"time":106.07552083333258,"velocity":0.7637795275590551,"duration":0.1848958333333286},{"name":"G#5","midi":80,"time":106.2721354166659,"velocity":0.7637795275590551,"duration":0.1848958333333286},{"name":"C#3","midi":49,"time":106.4713541666659,"velocity":0.7637795275590551,"duration":0.3919270833333144},{"name":"C#5","midi":73,"time":106.4713541666659,"velocity":0.7637795275590551,"duration":0.1848958333333286},{"name":"E5","midi":76,"time":106.4713541666659,"velocity":0.7637795275590551,"duration":0.1848958333333286},{"name":"B4","midi":71,"time":106.66927083333256,"velocity":0.7637795275590551,"duration":0.1848958333333286},{"name":"D#5","midi":75,"time":106.66927083333256,"velocity":0.7637795275590551,"duration":0.1848958333333286},{"name":"B3","midi":59,"time":106.86848958333255,"velocity":0.7637795275590551,"duration":0.3919270833333286},{"name":"C#5","midi":73,"time":106.86848958333255,"velocity":0.7637795275590551,"duration":0.5911458333333286},{"name":"E5","midi":76,"time":106.86848958333255,"velocity":0.7637795275590551,"duration":0.1848958333333286},{"name":"F#5","midi":78,"time":107.06510416666588,"velocity":0.7637795275590551,"duration":0.1848958333333286},{"name":"A#3","midi":58,"time":107.26432291666588,"velocity":0.7637795275590551,"duration":0.3932291666666572},{"name":"E5","midi":76,"time":107.26432291666588,"velocity":0.7637795275590551,"duration":0.1848958333333286},{"name":"F#4","midi":66,"time":107.4648437499992,"velocity":0.7637795275590551,"duration":0.1848958333333286},{"name":"D#5","midi":75,"time":107.4648437499992,"velocity":0.7637795275590551,"duration":0.1848958333333286},{"name":"F#3","midi":54,"time":107.6640624999992,"velocity":0.7637795275590551,"duration":0.3919270833333286},{"name":"G#4","midi":68,"time":107.6640624999992,"velocity":0.7637795275590551,"duration":0.1848958333333286},{"name":"E5","midi":76,"time":107.6640624999992,"velocity":0.7637795275590551,"duration":0.1848958333333286},{"name":"A#4","midi":70,"time":107.86067708333253,"velocity":0.7637795275590551,"duration":0.1848958333333286},{"name":"F#5","midi":78,"time":107.86067708333253,"velocity":0.7637795275590551,"duration":0.1848958333333286},{"name":"B3","midi":59,"time":108.05989583333253,"velocity":0.7637795275590551,"duration":0.7812499999999716},{"name":"B4","midi":71,"time":108.05989583333253,"velocity":0.7637795275590551,"duration":0.1848958333333286},{"name":"D#5","midi":75,"time":108.05989583333253,"velocity":0.7637795275590551,"duration":0.1848958333333286},{"name":"A#4","midi":70,"time":108.25781249999919,"velocity":0.7637795275590551,"duration":0.1848958333333286},{"name":"C#5","midi":73,"time":108.25781249999919,"velocity":0.7637795275590551,"duration":0.1848958333333286},{"name":"B4","midi":71,"time":108.45442708333252,"velocity":0.7637795275590551,"duration":0.1848958333333286},{"name":"D#5","midi":75,"time":108.45442708333252,"velocity":0.7637795275590551,"duration":0.1848958333333286},{"name":"C#5","midi":73,"time":108.65104166666585,"velocity":0.7637795275590551,"duration":0.1848958333333286},{"name":"E5","midi":76,"time":108.65104166666585,"velocity":0.7637795275590551,"duration":0.1848958333333286},{"name":"D#5","midi":75,"time":108.85026041666583,"velocity":0.7637795275590551,"duration":0.1848958333333286},{"name":"F#5","midi":78,"time":108.85026041666583,"velocity":0.7637795275590551,"duration":0.1848958333333286},{"name":"E5","midi":76,"time":109.04817708333249,"velocity":0.7637795275590551,"duration":0.1848958333333286},{"name":"G#5","midi":80,"time":109.04817708333249,"velocity":0.7637795275590551,"duration":0.1848958333333286},{"name":"F#5","midi":78,"time":109.24479166666582,"velocity":0.7637795275590551,"duration":0.1848958333333286},{"name":"A5","midi":81,"time":109.24479166666582,"velocity":0.7637795275590551,"duration":0.7851562499999716},{"name":"D#5","midi":75,"time":109.44270833333248,"velocity":0.7637795275590551,"duration":0.1848958333333286},{"name":"B4","midi":71,"time":109.6393229166658,"velocity":0.7637795275590551,"duration":0.1848958333333286},{"name":"A4","midi":69,"time":109.83593749999913,"velocity":0.7637795275590551,"duration":0.1848958333333286},{"name":"B4","midi":71,"time":110.03515624999912,"velocity":0.7637795275590551,"duration":0.1848958333333286},{"name":"D#5","midi":75,"time":110.03515624999912,"velocity":0.7637795275590551,"duration":0.3255208333333286},{"name":"C#5","midi":73,"time":110.23307291666578,"velocity":0.7637795275590551,"duration":0.1848958333333428},{"name":"B4","midi":71,"time":110.43229166666579,"velocity":0.7637795275590551,"duration":0.1848958333333286},{"name":"G#5","midi":80,"time":110.43229166666579,"velocity":0.7637795275590551,"duration":1.1796874999999574},{"name":"A4","midi":69,"time":110.62890624999912,"velocity":0.7637795275590551,"duration":0.1848958333333286},{"name":"B4","midi":71,"time":110.82682291666578,"velocity":0.7637795275590551,"duration":0.1848958333333286},{"name":"C#5","midi":73,"time":111.0234374999991,"velocity":0.7637795275590551,"duration":0.1848958333333286},{"name":"A4","midi":69,"time":111.22005208333243,"velocity":0.7637795275590551,"duration":0.1848958333333286},{"name":"G#4","midi":68,"time":111.41796874999909,"velocity":0.7637795275590551,"duration":0.1848958333333286},{"name":"A4","midi":69,"time":111.61718749999908,"velocity":0.7637795275590551,"duration":0.1848958333333286},{"name":"F#5","midi":78,"time":111.61718749999908,"velocity":0.7637795275590551,"duration":0.1848958333333286},{"name":"B4","midi":71,"time":111.8138020833324,"velocity":0.7637795275590551,"duration":0.1848958333333286},{"name":"E5","midi":76,"time":111.8138020833324,"velocity":0.7637795275590551,"duration":0.1848958333333286},{"name":"A4","midi":69,"time":112.01171874999906,"velocity":0.7637795275590551,"duration":0.1848958333333286},{"name":"D#5","midi":75,"time":112.01171874999906,"velocity":0.7637795275590551,"duration":0.7851562499999716},{"name":"G#4","midi":68,"time":112.20833333333239,"velocity":0.7637795275590551,"duration":0.1848958333333286},{"name":"B3","midi":59,"time":112.40494791666572,"velocity":0.7637795275590551,"duration":0.3515624999999858},{"name":"A4","midi":69,"time":112.40494791666572,"velocity":0.7637795275590551,"duration":0.1848958333333286},{"name":"B4","midi":71,"time":112.60286458333238,"velocity":0.7637795275590551,"duration":0.1848958333333286},{"name":"C#4","midi":61,"time":112.80208333333236,"velocity":0.7637795275590551,"duration":0.1848958333333286},{"name":"G#4","midi":68,"time":112.80208333333236,"velocity":0.7637795275590551,"duration":0.3919270833333286},{"name":"E5","midi":76,"time":112.80208333333236,"velocity":0.7637795275590551,"duration":0.1848958333333286},{"name":"B3","midi":59,"time":112.99869791666569,"velocity":0.7637795275590551,"duration":0.1848958333333286},{"name":"D#5","midi":75,"time":112.99869791666569,"velocity":0.7637795275590551,"duration":0.1848958333333286},{"name":"C#4","midi":61,"time":113.19791666666569,"velocity":0.7637795275590551,"duration":0.5911458333333002},{"name":"E4","midi":64,"time":113.19791666666569,"velocity":0.7637795275590551,"duration":0.3919270833333144},{"name":"E5","midi":76,"time":113.19791666666569,"velocity":0.7637795275590551,"duration":0.1848958333333286},{"name":"F#5","midi":78,"time":113.39583333333235,"velocity":0.7637795275590551,"duration":0.1848958333333286},{"name":"A4","midi":69,"time":113.59505208333233,"velocity":0.7637795275590551,"duration":1.773437499999929},{"name":"E5","midi":76,"time":113.59505208333233,"velocity":0.7637795275590551,"duration":0.1848958333333286},{"name":"F#3","midi":54,"time":113.79427083333232,"velocity":0.7637795275590551,"duration":0.1848958333333286},{"name":"D#5","midi":75,"time":113.79427083333232,"velocity":0.7637795275590551,"duration":0.1848958333333286},{"name":"G#3","midi":56,"time":113.99088541666565,"velocity":0.7637795275590551,"duration":0.1848958333333286},{"name":"E5","midi":76,"time":113.99088541666565,"velocity":0.7637795275590551,"duration":0.1848958333333286},{"name":"A3","midi":57,"time":114.1888020833323,"velocity":0.7637795275590551,"duration":0.1848958333333286},{"name":"F#5","midi":78,"time":114.1888020833323,"velocity":0.7637795275590551,"duration":0.1848958333333286},{"name":"B3","midi":59,"time":114.38541666666563,"velocity":0.7637795275590551,"duration":0.1848958333333286},{"name":"D#5","midi":75,"time":114.38541666666563,"velocity":0.7637795275590551,"duration":0.1848958333333286},{"name":"A3","midi":57,"time":114.58333333333229,"velocity":0.7637795275590551,"duration":0.1848958333333286},{"name":"C#5","midi":73,"time":114.58333333333229,"velocity":0.7637795275590551,"duration":0.1848958333333286},{"name":"B3","midi":59,"time":114.77994791666562,"velocity":0.7637795275590551,"duration":0.1848958333333286},{"name":"D#5","midi":75,"time":114.77994791666562,"velocity":0.7637795275590551,"duration":0.1848958333333286},{"name":"C#4","midi":61,"time":114.97656249999895,"velocity":0.7637795275590551,"duration":0.1848958333333286},{"name":"E5","midi":76,"time":114.97656249999895,"velocity":0.7637795275590551,"duration":0.1848958333333286},{"name":"D#4","midi":63,"time":115.1744791666656,"velocity":0.7637795275590551,"duration":0.1848958333333286},{"name":"F#5","midi":78,"time":115.1744791666656,"velocity":0.7637795275590551,"duration":1.1822916666666288},{"name":"E4","midi":64,"time":115.37369791666559,"velocity":0.7637795275590551,"duration":0.1848958333333286},{"name":"C5","midi":72,"time":115.37369791666559,"velocity":0.7637795275590551,"duration":0.1848958333333286},{"name":"D#4","midi":63,"time":115.57031249999892,"velocity":0.7637795275590551,"duration":0.1848958333333286},{"name":"C#5","midi":73,"time":115.57031249999892,"velocity":0.7637795275590551,"duration":0.1848958333333286},{"name":"C#4","midi":61,"time":115.76822916666558,"velocity":0.7637795275590551,"duration":0.1848958333333286},{"name":"D#5","midi":75,"time":115.76822916666558,"velocity":0.7637795275590551,"duration":0.1848958333333286},{"name":"C4","midi":60,"time":115.9648437499989,"velocity":0.7637795275590551,"duration":0.1848958333333286},{"name":"G#4","midi":68,"time":115.9648437499989,"velocity":0.7637795275590551,"duration":1.1822916666666288},{"name":"G#3","midi":56,"time":116.16145833333223,"velocity":0.7637795275590551,"duration":0.1848958333333286},{"name":"A#3","midi":58,"time":116.36197916666556,"velocity":0.7637795275590551,"duration":0.1848958333333286},{"name":"E5","midi":76,"time":116.36197916666556,"velocity":0.7637795275590551,"duration":0.1848958333333286},{"name":"C4","midi":60,"time":116.55859374999889,"velocity":0.7637795275590551,"duration":0.1848958333333286},{"name":"D#5","midi":75,"time":116.55859374999889,"velocity":0.7637795275590551,"duration":0.1848958333333286},{"name":"C#4","midi":61,"time":116.75520833333222,"velocity":0.7637795275590551,"duration":0.1848958333333286},{"name":"E5","midi":76,"time":116.75520833333222,"velocity":0.7637795275590551,"duration":1.184895833333286},{"name":"D#4","midi":63,"time":116.95312499999888,"velocity":0.7637795275590551,"duration":0.1848958333333286},{"name":"E4","midi":64,"time":117.15234374999886,"velocity":0.7637795275590551,"duration":0.1848958333333286},{"name":"C#5","midi":73,"time":117.15234374999886,"velocity":0.7637795275590551,"duration":0.3919270833333286},{"name":"C#4","midi":61,"time":117.34895833333219,"velocity":0.7637795275590551,"duration":0.1848958333333286},{"name":"A3","midi":57,"time":117.54817708333219,"velocity":0.7637795275590551,"duration":0.1848958333333286},{"name":"F#4","midi":66,"time":117.54817708333219,"velocity":0.7637795275590551,"duration":2.373697916666572},{"name":"G#3","midi":56,"time":117.74609374999885,"velocity":0.7637795275590551,"duration":0.1848958333333286},{"name":"A3","midi":57,"time":117.94531249999883,"velocity":0.7637795275590551,"duration":0.1848958333333286},{"name":"E5","midi":76,"time":117.94531249999883,"velocity":0.7637795275590551,"duration":0.3919270833333286},{"name":"B3","midi":59,"time":118.14192708333216,"velocity":0.7637795275590551,"duration":0.1848958333333286},{"name":"A3","midi":57,"time":118.34114583333216,"velocity":0.7637795275590551,"duration":0.1848958333333286},{"name":"D#5","midi":75,"time":118.34114583333216,"velocity":0.7637795275590551,"duration":0.3919270833333144},{"name":"G#3","midi":56,"time":118.53906249999882,"velocity":0.7637795275590551,"duration":0.1848958333333286},{"name":"A3","midi":57,"time":118.7382812499988,"velocity":0.7637795275590551,"duration":0.1848958333333286},{"name":"C#5","midi":73,"time":118.7382812499988,"velocity":0.7637795275590551,"duration":0.3919270833333286},{"name":"B3","midi":59,"time":118.93489583333213,"velocity":0.7637795275590551,"duration":0.1848958333333286},{"name":"G#3","midi":56,"time":119.13411458333213,"velocity":0.7637795275590551,"duration":0.1848958333333286},{"name":"C5","midi":72,"time":119.13411458333213,"velocity":0.7637795275590551,"duration":0.3919270833333144},{"name":"E3","midi":52,"time":119.33203124999879,"velocity":0.7637795275590551,"duration":0.1848958333333286},{"name":"F#3","midi":54,"time":119.53124999999878,"velocity":0.7637795275590551,"duration":0.1848958333333286},{"name":"G#4","midi":68,"time":119.53124999999878,"velocity":0.7637795275590551,"duration":0.3919270833333144},{"name":"G#3","midi":56,"time":119.7278645833321,"velocity":0.7637795275590551,"duration":0.1848958333333286},{"name":"A3","midi":57,"time":119.92708333333209,"velocity":0.7637795275590551,"duration":0.1848958333333286},{"name":"E4","midi":64,"time":119.92708333333209,"velocity":0.7637795275590551,"duration":0.3919270833333144},{"name":"C#5","midi":73,"time":119.92708333333209,"velocity":0.7637795275590551,"duration":1.184895833333286},{"name":"B3","midi":59,"time":120.12499999999875,"velocity":0.7637795275590551,"duration":0.1848958333333286},{"name":"C#4","midi":61,"time":120.32421874999874,"velocity":0.7637795275590551,"duration":0.1848958333333286},{"name":"A4","midi":69,"time":120.32421874999874,"velocity":0.7637795275590551,"duration":0.3919270833333286},{"name":"A3","midi":57,"time":120.52083333333206,"velocity":0.7637795275590551,"duration":0.1848958333333286},{"name":"F#3","midi":54,"time":120.72005208333206,"velocity":0.7637795275590551,"duration":0.1848958333333286},{"name":"D#4","midi":63,"time":120.72005208333206,"velocity":0.7637795275590551,"duration":0.3841145833333144},{"name":"E3","midi":52,"time":120.91796874999872,"velocity":0.7637795275590551,"duration":0.1848958333333286},{"name":"F#3","midi":54,"time":121.1171874999987,"velocity":0.7637795275590551,"duration":0.1848958333333286},{"name":"F#4","midi":66,"time":121.1171874999987,"velocity":0.7637795275590551,"duration":0.3919270833333286},{"name":"D#5","midi":75,"time":121.1171874999987,"velocity":0.7637795275590551,"duration":0.3919270833333286},{"name":"G#3","midi":56,"time":121.31380208333204,"velocity":0.7637795275590551,"duration":0.1848958333333286},{"name":"F#3","midi":54,"time":121.51302083333204,"velocity":0.7637795275590551,"duration":0.1848958333333286},{"name":"C4","midi":60,"time":121.51302083333204,"velocity":0.7637795275590551,"duration":0.3919270833333144},{"name":"G#4","midi":68,"time":121.51302083333204,"velocity":0.7637795275590551,"duration":0.3919270833333144},{"name":"E3","midi":52,"time":121.71093749999869,"velocity":0.7637795275590551,"duration":0.1848958333333286},{"name":"F#3","midi":54,"time":121.91015624999868,"velocity":0.7637795275590551,"duration":0.1848958333333286},{"name":"D#4","midi":63,"time":121.91015624999868,"velocity":0.7637795275590551,"duration":0.3776041666666572},{"name":"A#4","midi":70,"time":121.91015624999868,"velocity":0.7637795275590551,"duration":0.1848958333333286},{"name":"G#3","midi":56,"time":122.106770833332,"velocity":0.7637795275590551,"duration":0.1848958333333286},{"name":"C5","midi":72,"time":122.106770833332,"velocity":0.7637795275590551,"duration":0.1848958333333286},{"name":"E3","midi":52,"time":122.305989583332,"velocity":0.7637795275590551,"duration":0.3919270833333144},{"name":"G#3","midi":56,"time":122.305989583332,"velocity":0.7637795275590551,"duration":1.1861979166666146},{"name":"C#5","midi":73,"time":122.305989583332,"velocity":0.7637795275590551,"duration":0.1848958333333286},{"name":"C5","midi":72,"time":122.50390624999866,"velocity":0.7637795275590551,"duration":0.1848958333333286},{"name":"D#3","midi":51,"time":122.70312499999865,"velocity":0.7637795275590551,"duration":0.3919270833333286},{"name":"C#5","midi":73,"time":122.70312499999865,"velocity":0.7637795275590551,"duration":0.1848958333333286},{"name":"D#5","midi":75,"time":122.89973958333198,"velocity":0.7637795275590551,"duration":0.1848958333333286},{"name":"C#3","midi":49,"time":123.09895833333198,"velocity":0.7637795275590551,"duration":0.3919270833333144},{"name":"E5","midi":76,"time":123.09895833333198,"velocity":0.7637795275590551,"duration":0.1848958333333286},{"name":"F#5","midi":78,"time":123.29687499999864,"velocity":0.7637795275590551,"duration":0.1848958333333286},{"name":"E3","midi":52,"time":123.49609374999862,"velocity":0.7637795275590551,"duration":0.3919270833333286},{"name":"G#5","midi":80,"time":123.49609374999862,"velocity":0.7637795275590551,"duration":0.1848958333333286},{"name":"E5","midi":76,"time":123.69270833333195,"velocity":0.7637795275590551,"duration":0.1848958333333286},{"name":"A#2","midi":46,"time":123.89192708333195,"velocity":0.7637795275590551,"duration":0.3919270833333144},{"name":"C#5","midi":73,"time":123.89192708333195,"velocity":0.7637795275590551,"duration":0.1848958333333286},{"name":"B4","midi":71,"time":124.08984374999861,"velocity":0.7637795275590551,"duration":0.1848958333333286},{"name":"G#3","midi":56,"time":124.2890624999986,"velocity":0.7637795275590551,"duration":0.3919270833333286},{"name":"C#5","midi":73,"time":124.2890624999986,"velocity":0.7637795275590551,"duration":0.1848958333333286},{"name":"D#5","midi":75,"time":124.48567708333192,"velocity":0.7637795275590551,"duration":0.1848958333333286},{"name":"G3","midi":55,"time":124.68489583333192,"velocity":0.7637795275590551,"duration":0.3919270833333144},{"name":"A#3","midi":58,"time":124.68489583333192,"velocity":0.7637795275590551,"duration":1.5807291666666003},{"name":"C#5","midi":73,"time":124.68489583333192,"velocity":0.7637795275590551,"duration":0.1848958333333286},{"name":"B4","midi":71,"time":124.88281249999858,"velocity":0.7637795275590551,"duration":0.1848958333333286},{"name":"D#3","midi":51,"time":125.08203124999856,"velocity":0.7637795275590551,"duration":0.3919270833333286},{"name":"C#5","midi":73,"time":125.08203124999856,"velocity":0.7637795275590551,"duration":0.1848958333333286},{"name":"D#5","midi":75,"time":125.2786458333319,"velocity":0.7637795275590551,"duration":0.1848958333333286},{"name":"G#2","midi":44,"time":125.4778645833319,"velocity":0.7637795275590551,"duration":0.3919270833333144},{"name":"B4","midi":71,"time":125.4778645833319,"velocity":0.7637795275590551,"duration":0.1848958333333286},{"name":"A#4","midi":70,"time":125.67578124999855,"velocity":0.7637795275590551,"duration":0.1848958333333286},{"name":"A#2","midi":46,"time":125.87499999999854,"velocity":0.7637795275590551,"duration":0.3919270833333144},{"name":"B4","midi":71,"time":125.87499999999854,"velocity":0.7637795275590551,"duration":0.1848958333333286},{"name":"C#5","midi":73,"time":126.07161458333186,"velocity":0.7637795275590551,"duration":0.1848958333333286},{"name":"B2","midi":47,"time":126.27083333333185,"velocity":0.7637795275590551,"duration":0.3919270833333144},{"name":"G#3","midi":56,"time":126.27083333333185,"velocity":0.7637795275590551,"duration":0.7838541666666288},{"name":"D#5","midi":75,"time":126.27083333333185,"velocity":0.7637795275590551,"duration":0.1848958333333286},{"name":"E5","midi":76,"time":126.46874999999851,"velocity":0.7637795275590551,"duration":0.1848958333333286},{"name":"A#2","midi":46,"time":126.6679687499985,"velocity":0.7637795275590551,"duration":0.3919270833333144},{"name":"F#5","midi":78,"time":126.6679687499985,"velocity":0.7637795275590551,"duration":0.1848958333333286},{"name":"D#5","midi":75,"time":126.86458333333182,"velocity":0.7637795275590551,"duration":0.1848958333333286},{"name":"G#2","midi":44,"time":127.06380208333181,"velocity":0.7637795275590551,"duration":0.3919270833333144},{"name":"B4","midi":71,"time":127.06380208333181,"velocity":0.7637795275590551,"duration":0.1848958333333286},{"name":"A4","midi":69,"time":127.26171874999847,"velocity":0.7637795275590551,"duration":0.1848958333333286},{"name":"F#3","midi":54,"time":127.46093749999845,"velocity":0.7637795275590551,"duration":0.3919270833333286},{"name":"B4","midi":71,"time":127.46093749999845,"velocity":0.7637795275590551,"duration":0.1848958333333286},{"name":"C#5","midi":73,"time":127.65755208333178,"velocity":0.7637795275590551,"duration":0.1848958333333286},{"name":"F3","midi":53,"time":127.85677083333178,"velocity":0.7637795275590551,"duration":0.39192708333337123},{"name":"G#3","midi":56,"time":127.85677083333178,"velocity":0.7637795275590551,"duration":1.5807291666667993},{"name":"B4","midi":71,"time":127.85677083333178,"velocity":0.7637795275590551,"duration":0.1848958333333428},{"name":"A4","midi":69,"time":128.05468749999847,"velocity":0.7637795275590551,"duration":0.1848958333333428},{"name":"C#3","midi":49,"time":128.2539062499985,"velocity":0.7637795275590551,"duration":0.3919270833333428},{"name":"B4","midi":71,"time":128.2539062499985,"velocity":0.7637795275590551,"duration":0.1848958333333428},{"name":"C#5","midi":73,"time":128.45052083333184,"velocity":0.7637795275590551,"duration":0.1848958333333428},{"name":"F#2","midi":42,"time":128.64973958333184,"velocity":0.7637795275590551,"duration":0.39192708333337123},{"name":"A4","midi":69,"time":128.64973958333184,"velocity":0.7637795275590551,"duration":0.1848958333333428},{"name":"G#4","midi":68,"time":128.84765624999852,"velocity":0.7637795275590551,"duration":0.1848958333333428},{"name":"G#2","midi":44,"time":129.04687499999855,"velocity":0.7637795275590551,"duration":0.39192708333337123},{"name":"A4","midi":69,"time":129.04687499999855,"velocity":0.7637795275590551,"duration":0.1848958333333428},{"name":"B4","midi":71,"time":129.2434895833319,"velocity":0.7637795275590551,"duration":0.1848958333333428},{"name":"A2","midi":45,"time":129.44270833333192,"velocity":0.7637795275590551,"duration":0.39192708333337123},{"name":"F#3","midi":54,"time":129.44270833333192,"velocity":0.7637795275590551,"duration":0.7838541666667425},{"name":"C#5","midi":73,"time":129.44270833333192,"velocity":0.7637795275590551,"duration":0.1848958333333428},{"name":"D#5","midi":75,"time":129.6406249999986,"velocity":0.7637795275590551,"duration":0.1848958333333428},{"name":"G#2","midi":44,"time":129.83984374999864,"velocity":0.7637795275590551,"duration":0.39192708333337123},{"name":"E5","midi":76,"time":129.83984374999864,"velocity":0.7637795275590551,"duration":0.1848958333333428},{"name":"C#5","midi":73,"time":130.03645833333198,"velocity":0.7637795275590551,"duration":0.1848958333333428},{"name":"F#2","midi":42,"time":130.235677083332,"velocity":0.7637795275590551,"duration":0.39192708333337123},{"name":"D#5","midi":75,"time":130.235677083332,"velocity":0.7637795275590551,"duration":0.1848958333333428},{"name":"C#5","midi":73,"time":130.4335937499987,"velocity":0.7637795275590551,"duration":0.1848958333333428},{"name":"E3","midi":52,"time":130.63281249999872,"velocity":0.7637795275590551,"duration":0.3919270833333428},{"name":"D#5","midi":75,"time":130.63281249999872,"velocity":0.7637795275590551,"duration":0.1848958333333428},{"name":"E5","midi":76,"time":130.82942708333206,"velocity":0.7637795275590551,"duration":0.1848958333333428},{"name":"D#3","midi":51,"time":131.02864583333206,"velocity":0.7637795275590551,"duration":0.39192708333337123},{"name":"F#3","midi":54,"time":131.02864583333206,"velocity":0.7637795275590551,"duration":1.5807291666667993},{"name":"F#5","midi":78,"time":131.02864583333206,"velocity":0.7637795275590551,"duration":0.1848958333333428},{"name":"G#5","midi":80,"time":131.22656249999875,"velocity":0.7637795275590551,"duration":0.1848958333333428},{"name":"C#3","midi":49,"time":131.42578124999878,"velocity":0.7637795275590551,"duration":0.3919270833333428},{"name":"A5","midi":81,"time":131.42578124999878,"velocity":0.7637795275590551,"duration":0.1848958333333428},{"name":"F#5","midi":78,"time":131.62239583333212,"velocity":0.7637795275590551,"duration":0.1848958333333428},{"name":"C3","midi":48,"time":131.82161458333212,"velocity":0.7637795275590551,"duration":0.39192708333337123},{"name":"G#5","midi":80,"time":131.82161458333212,"velocity":0.7637795275590551,"duration":0.1848958333333428},{"name":"F#5","midi":78,"time":132.0195312499988,"velocity":0.7637795275590551,"duration":0.1848958333333428},{"name":"G#2","midi":44,"time":132.21874999999883,"velocity":0.7637795275590551,"duration":0.39192708333337123},{"name":"E5","midi":76,"time":132.21874999999883,"velocity":0.7637795275590551,"duration":0.1848958333333428},{"name":"D#5","midi":75,"time":132.41536458333218,"velocity":0.7637795275590551,"duration":0.1848958333333428},{"name":"A2","midi":45,"time":132.6145833333322,"velocity":0.7637795275590551,"duration":0.39192708333337123},{"name":"E3","midi":52,"time":132.6145833333322,"velocity":0.7637795275590551,"duration":0.39192708333337123},{"name":"C#5","midi":73,"time":132.6145833333322,"velocity":0.7637795275590551,"duration":0.1848958333333428},{"name":"B4","midi":71,"time":132.8124999999989,"velocity":0.7637795275590551,"duration":0.1848958333333428},{"name":"E3","midi":52,"time":133.01171874999892,"velocity":0.7637795275590551,"duration":0.3919270833333428},{"name":"C#4","midi":61,"time":133.01171874999892,"velocity":0.7637795275590551,"duration":0.3919270833333428},{"name":"A4","midi":69,"time":133.01171874999892,"velocity":0.7637795275590551,"duration":0.1848958333333428},{"name":"G#4","midi":68,"time":133.20833333333226,"velocity":0.7637795275590551,"duration":0.1848958333333428},{"name":"F#3","midi":54,"time":133.40755208333226,"velocity":0.7637795275590551,"duration":0.1848958333333428},{"name":"D#4","midi":63,"time":133.40755208333226,"velocity":0.7637795275590551,"duration":0.7812500000000568},{"name":"F#4","midi":66,"time":133.40755208333226,"velocity":0.7637795275590551,"duration":0.1848958333333428},{"name":"E3","midi":52,"time":133.60546874999895,"velocity":0.7637795275590551,"duration":0.1848958333333428},{"name":"G#4","midi":68,"time":133.60546874999895,"velocity":0.7637795275590551,"duration":0.1848958333333428},{"name":"F#3","midi":54,"time":133.8020833333323,"velocity":0.7637795275590551,"duration":0.39192708333337123},{"name":"A4","midi":69,"time":133.8020833333323,"velocity":0.7637795275590551,"duration":0.1848958333333428},{"name":"F#4","midi":66,"time":133.99869791666563,"velocity":0.7637795275590551,"duration":0.1848958333333428},{"name":"G#3","midi":56,"time":134.199218749999,"velocity":0.7637795275590551,"duration":0.1848958333333428},{"name":"D#4","midi":63,"time":134.199218749999,"velocity":0.7637795275590551,"duration":0.3919270833333428},{"name":"G#3","midi":56,"time":134.39583333333235,"velocity":0.7637795275590551,"duration":0.1848958333333428},{"name":"G#2","midi":44,"time":134.59505208333235,"velocity":0.7637795275590551,"duration":0.3919270833333428},{"name":"A#3","midi":58,"time":134.59505208333235,"velocity":0.7637795275590551,"duration":0.1848958333333428},{"name":"G#4","midi":68,"time":134.59505208333235,"velocity":0.7637795275590551,"duration":0.3919270833333428},{"name":"C4","midi":60,"time":134.7916666666657,"velocity":0.7637795275590551,"duration":0.1848958333333428},{"name":"C#3","midi":49,"time":134.99218749999903,"velocity":0.7637795275590551,"duration":0.5768229166666856},{"name":"C#4","midi":61,"time":134.99218749999903,"velocity":0.7637795275590551,"duration":0.1848958333333428},{"name":"E4","midi":64,"time":134.99218749999903,"velocity":0.7637795275590551,"duration":0.3919270833333428},{"name":"C4","midi":60,"time":135.18880208333238,"velocity":0.7637795275590551,"duration":0.1848958333333428},{"name":"C#4","midi":61,"time":135.38802083333238,"velocity":0.7637795275590551,"duration":0.1848958333333428},{"name":"G#4","midi":68,"time":135.38802083333238,"velocity":0.7637795275590551,"duration":0.3255208333333428},{"name":"D#4","midi":63,"time":135.58463541666572,"velocity":0.7637795275590551,"duration":0.1848958333333428},{"name":"E4","midi":64,"time":135.78515624999906,"velocity":0.7637795275590551,"duration":0.1848958333333428},{"name":"C#5","midi":73,"time":135.78515624999906,"velocity":0.7637795275590551,"duration":0.3919270833333428},{"name":"F#4","midi":66,"time":135.9817708333324,"velocity":0.7637795275590551,"duration":0.1848958333333428},{"name":"G#4","midi":68,"time":136.1809895833324,"velocity":0.7637795275590551,"duration":0.1848958333333428},{"name":"B4","midi":71,"time":136.1809895833324,"velocity":0.7637795275590551,"duration":0.3255208333333428},{"name":"E4","midi":64,"time":136.37760416666575,"velocity":0.7637795275590551,"duration":0.1848958333333428},{"name":"C#4","midi":61,"time":136.5781249999991,"velocity":0.7637795275590551,"duration":0.1848958333333428},{"name":"E5","midi":76,"time":136.5781249999991,"velocity":0.7637795275590551,"duration":0.1848958333333428},{"name":"B3","midi":59,"time":136.77473958333243,"velocity":0.7637795275590551,"duration":0.1848958333333428},{"name":"D#5","midi":75,"time":136.77473958333243,"velocity":0.7637795275590551,"duration":0.1848958333333428},{"name":"C#4","midi":61,"time":136.97135416666578,"velocity":0.7637795275590551,"duration":0.1848958333333428},{"name":"C#5","midi":73,"time":136.97135416666578,"velocity":0.7637795275590551,"duration":0.1848958333333428},{"name":"D#4","midi":63,"time":137.16927083333246,"velocity":0.7637795275590551,"duration":0.1848958333333428},{"name":"B4","midi":71,"time":137.16927083333246,"velocity":0.7637795275590551,"duration":0.1848958333333428},{"name":"C#4","midi":61,"time":137.3658854166658,"velocity":0.7637795275590551,"duration":0.1848958333333428},{"name":"A4","midi":69,"time":137.3658854166658,"velocity":0.7637795275590551,"duration":1.1796875000000853},{"name":"B3","midi":59,"time":137.56249999999915,"velocity":0.7637795275590551,"duration":0.1848958333333428},{"name":"C#4","midi":61,"time":137.76041666666583,"velocity":0.7637795275590551,"duration":0.1848958333333428},{"name":"D#4","midi":63,"time":137.95703124999918,"velocity":0.7637795275590551,"duration":0.1848958333333428},{"name":"B3","midi":59,"time":138.15494791666586,"velocity":0.7637795275590551,"duration":0.1848958333333428},{"name":"G#3","midi":56,"time":138.3515624999992,"velocity":0.7637795275590551,"duration":0.1848958333333428},{"name":"A3","midi":57,"time":138.55078124999923,"velocity":0.7637795275590551,"duration":0.1848958333333428},{"name":"D#4","midi":63,"time":138.55078124999923,"velocity":0.7637795275590551,"duration":0.3255208333333428},{"name":"B3","midi":59,"time":138.74739583333258,"velocity":0.7637795275590551,"duration":0.1848958333333428},{"name":"C#4","midi":61,"time":138.94791666666592,"velocity":0.7637795275590551,"duration":0.1848958333333428},{"name":"A4","midi":69,"time":138.94791666666592,"velocity":0.7637795275590551,"duration":0.3919270833333428},{"name":"D#4","midi":63,"time":139.14453124999926,"velocity":0.7637795275590551,"duration":0.1848958333333428},{"name":"E4","midi":64,"time":139.34374999999926,"velocity":0.7637795275590551,"duration":0.1848958333333428},{"name":"G#4","midi":68,"time":139.34374999999926,"velocity":0.7637795275590551,"duration":0.3255208333333428},{"name":"C#4","midi":61,"time":139.5403645833326,"velocity":0.7637795275590551,"duration":0.1848958333333428},{"name":"A3","midi":57,"time":139.74088541666595,"velocity":0.7637795275590551,"duration":0.1848958333333428},{"name":"C#5","midi":73,"time":139.74088541666595,"velocity":0.7637795275590551,"duration":0.1848958333333428},{"name":"G#3","midi":56,"time":139.9374999999993,"velocity":0.7637795275590551,"duration":0.1848958333333428},{"name":"B4","midi":71,"time":139.9374999999993,"velocity":0.7637795275590551,"duration":0.1848958333333428},{"name":"A3","midi":57,"time":140.13411458333263,"velocity":0.7637795275590551,"duration":0.1848958333333428},{"name":"A4","midi":69,"time":140.13411458333263,"velocity":0.7637795275590551,"duration":0.1848958333333428},{"name":"B3","midi":59,"time":140.33203124999932,"velocity":0.7637795275590551,"duration":0.1848958333333428},{"name":"G#4","midi":68,"time":140.33203124999932,"velocity":0.7637795275590551,"duration":0.1848958333333428},{"name":"A3","midi":57,"time":140.52864583333266,"velocity":0.7637795275590551,"duration":0.1848958333333428},{"name":"F#4","midi":66,"time":140.52864583333266,"velocity":0.7637795275590551,"duration":1.1888020833333997},{"name":"G#3","midi":56,"time":140.725260416666,"velocity":0.7637795275590551,"duration":0.1848958333333428},{"name":"A3","midi":57,"time":140.9231770833327,"velocity":0.7637795275590551,"duration":0.1848958333333428},{"name":"B3","midi":59,"time":141.11979166666603,"velocity":0.7637795275590551,"duration":0.1848958333333428},{"name":"G#3","midi":56,"time":141.31770833333272,"velocity":0.7637795275590551,"duration":0.1848958333333428},{"name":"F#3","midi":54,"time":141.51432291666606,"velocity":0.7637795275590551,"duration":0.1848958333333428},{"name":"G#3","midi":56,"time":141.7109374999994,"velocity":0.7637795275590551,"duration":0.18489583333331439},{"name":"E4","midi":64,"time":141.7109374999994,"velocity":0.7637795275590551,"duration":0.18489583333331439},{"name":"A3","midi":57,"time":141.90885416666606,"velocity":0.7637795275590551,"duration":0.1848958333333428},{"name":"D#4","midi":63,"time":141.90885416666606,"velocity":0.7637795275590551,"duration":0.1848958333333428},{"name":"G#3","midi":56,"time":142.1054687499994,"velocity":0.7637795275590551,"duration":0.3776041666666856},{"name":"E4","midi":64,"time":142.1054687499994,"velocity":0.7637795275590551,"duration":0.1848958333333428},{"name":"F#4","midi":66,"time":142.3033854166661,"velocity":0.7637795275590551,"duration":0.1848958333333428},{"name":"E3","midi":52,"time":142.5026041666661,"velocity":0.7637795275590551,"duration":0.3919270833333428},{"name":"B3","midi":59,"time":142.5026041666661,"velocity":0.7637795275590551,"duration":0.787760416666714},{"name":"G#4","midi":68,"time":142.5026041666661,"velocity":0.7637795275590551,"duration":0.1848958333333428},{"name":"E4","midi":64,"time":142.69921874999943,"velocity":0.7637795275590551,"duration":0.1848958333333428},{"name":"F#3","midi":54,"time":142.89843749999943,"velocity":0.7637795275590551,"duration":0.1848958333333428},{"name":"C#4","midi":61,"time":142.89843749999943,"velocity":0.7637795275590551,"duration":0.1848958333333428},{"name":"E3","midi":52,"time":143.09635416666612,"velocity":0.7637795275590551,"duration":0.1848958333333428},{"name":"G#4","midi":68,"time":143.09635416666612,"velocity":0.7637795275590551,"duration":0.1848958333333428},{"name":"F#3","midi":54,"time":143.29557291666615,"velocity":0.7637795275590551,"duration":0.5885416666666856},{"name":"A3","midi":57,"time":143.29557291666615,"velocity":0.7637795275590551,"duration":0.1848958333333428},{"name":"F#4","midi":66,"time":143.29557291666615,"velocity":0.7637795275590551,"duration":0.1848958333333428},{"name":"G#3","midi":56,"time":143.4921874999995,"velocity":0.7637795275590551,"duration":0.1848958333333428},{"name":"E4","midi":64,"time":143.4921874999995,"velocity":0.7637795275590551,"duration":0.1848958333333428},{"name":"A3","midi":57,"time":143.68880208333283,"velocity":0.7637795275590551,"duration":0.1848958333333428},{"name":"D#4","midi":63,"time":143.68880208333283,"velocity":0.7637795275590551,"duration":0.7604166666666856},{"name":"B2","midi":47,"time":143.88932291666617,"velocity":0.7637795275590551,"duration":0.1848958333333428},{"name":"C#4","midi":61,"time":143.88932291666617,"velocity":0.7637795275590551,"duration":0.1848958333333428},{"name":"C#3","midi":49,"time":144.08593749999952,"velocity":0.7637795275590551,"duration":0.1848958333333428},{"name":"B3","midi":59,"time":144.08593749999952,"velocity":0.7637795275590551,"duration":0.1848958333333428},{"name":"D#3","midi":51,"time":144.28255208333286,"velocity":0.7637795275590551,"duration":0.1822916666666572},{"name":"A3","midi":57,"time":144.28255208333286,"velocity":0.7637795275590551,"duration":0.1822916666666572},{"name":"E3","midi":52,"time":144.47786458333286,"velocity":0.7637795275590551,"duration":0.1848958333333428},{"name":"G#3","midi":56,"time":144.47786458333286,"velocity":0.7637795275590551,"duration":0.588541666666714},{"name":"D#3","midi":51,"time":144.6744791666662,"velocity":0.7637795275590551,"duration":0.1848958333333428},{"name":"B3","midi":59,"time":144.6744791666662,"velocity":0.7637795275590551,"duration":0.1848958333333428},{"name":"E3","midi":52,"time":144.8723958333329,"velocity":0.7637795275590551,"duration":0.1848958333333428},{"name":"C#4","midi":61,"time":144.8723958333329,"velocity":0.7637795275590551,"duration":0.1848958333333428},{"name":"F#3","midi":54,"time":145.07161458333292,"velocity":0.7637795275590551,"duration":0.1848958333333428},{"name":"D#4","midi":63,"time":145.07161458333292,"velocity":0.7637795275590551,"duration":0.1848958333333428},{"name":"G#3","midi":56,"time":145.26822916666626,"velocity":0.7637795275590551,"duration":0.1848958333333428},{"name":"E4","midi":64,"time":145.26822916666626,"velocity":0.7637795275590551,"duration":0.1848958333333428},{"name":"A3","midi":57,"time":145.46614583333294,"velocity":0.7637795275590551,"duration":0.1848958333333428},{"name":"F#4","midi":66,"time":145.46614583333294,"velocity":0.7637795275590551,"duration":0.1848958333333428},{"name":"B3","midi":59,"time":145.6627604166663,"velocity":0.7637795275590551,"duration":0.1848958333333428},{"name":"G#4","midi":68,"time":145.6627604166663,"velocity":0.7637795275590551,"duration":0.1848958333333428},{"name":"G#3","midi":56,"time":145.85937499999963,"velocity":0.7637795275590551,"duration":0.1848958333333428},{"name":"E4","midi":64,"time":145.85937499999963,"velocity":0.7637795275590551,"duration":0.1848958333333428},{"name":"E3","midi":52,"time":146.05729166666632,"velocity":0.7637795275590551,"duration":0.1848958333333428},{"name":"C#5","midi":73,"time":146.05729166666632,"velocity":0.7637795275590551,"duration":0.1848958333333428},{"name":"D#3","midi":51,"time":146.25390624999966,"velocity":0.7637795275590551,"duration":0.1848958333333428},{"name":"B4","midi":71,"time":146.25390624999966,"velocity":0.7637795275590551,"duration":0.1848958333333428},{"name":"E3","midi":52,"time":146.450520833333,"velocity":0.7637795275590551,"duration":0.1848958333333428},{"name":"C#5","midi":73,"time":146.450520833333,"velocity":0.7637795275590551,"duration":0.5729166666666856},{"name":"F#3","midi":54,"time":146.6484374999997,"velocity":0.7637795275590551,"duration":0.1848958333333428},{"name":"E3","midi":52,"time":146.84505208333303,"velocity":0.7637795275590551,"duration":0.18489583333331439},{"name":"D#3","midi":51,"time":147.044270833333,"velocity":0.7637795275590551,"duration":0.1848958333333428},{"name":"F#4","midi":66,"time":147.044270833333,"velocity":0.7637795275590551,"duration":0.1848958333333428},{"name":"E3","midi":52,"time":147.2421874999997,"velocity":0.7637795275590551,"duration":0.1848958333333428},{"name":"G#4","midi":68,"time":147.2421874999997,"velocity":0.7637795275590551,"duration":0.1848958333333428},{"name":"F#3","midi":54,"time":147.43880208333303,"velocity":0.7637795275590551,"duration":0.1848958333333428},{"name":"A#4","midi":70,"time":147.43880208333303,"velocity":0.7637795275590551,"duration":0.1848958333333428},{"name":"D#3","midi":51,"time":147.63541666666637,"velocity":0.7637795275590551,"duration":0.39192708333337123},{"name":"B4","midi":71,"time":147.63541666666637,"velocity":0.7637795275590551,"duration":0.1848958333333428},{"name":"A#4","midi":70,"time":147.83333333333306,"velocity":0.7637795275590551,"duration":0.1848958333333428},{"name":"F#3","midi":54,"time":148.0325520833331,"velocity":0.7637795275590551,"duration":0.3919270833333428},{"name":"B4","midi":71,"time":148.0325520833331,"velocity":0.7637795275590551,"duration":0.1848958333333428},{"name":"C#5","midi":73,"time":148.22916666666643,"velocity":0.7637795275590551,"duration":0.1848958333333428},{"name":"B2","midi":47,"time":148.42838541666643,"velocity":0.7637795275590551,"duration":0.39192708333337123},{"name":"D#5","midi":75,"time":148.42838541666643,"velocity":0.7637795275590551,"duration":0.1848958333333428},{"name":"E5","midi":76,"time":148.62630208333312,"velocity":0.7637795275590551,"duration":0.1848958333333428},{"name":"E3","midi":52,"time":148.82552083333314,"velocity":0.7637795275590551,"duration":0.787760416666714},{"name":"E4","midi":64,"time":148.82552083333314,"velocity":0.7637795275590551,"duration":0.3919270833333428},{"name":"F#5","midi":78,"time":148.82552083333314,"velocity":0.7637795275590551,"duration":0.1848958333333428},{"name":"G#5","midi":80,"time":149.0221354166665,"velocity":0.7637795275590551,"duration":0.1848958333333428},{"name":"F#4","midi":66,"time":149.2213541666665,"velocity":0.7637795275590551,"duration":0.1848958333333428},{"name":"A4","midi":69,"time":149.2213541666665,"velocity":0.7637795275590551,"duration":0.1848958333333428},{"name":"E4","midi":64,"time":149.41927083333317,"velocity":0.7637795275590551,"duration":0.1848958333333428},{"name":"G#4","midi":68,"time":149.41927083333317,"velocity":0.7637795275590551,"duration":0.1848958333333428},{"name":"D#3","midi":51,"time":149.6184895833332,"velocity":0.7637795275590551,"duration":0.1848958333333428},{"name":"F#4","midi":66,"time":149.6184895833332,"velocity":0.7637795275590551,"duration":0.588541666666714},{"name":"A4","midi":69,"time":149.6184895833332,"velocity":0.7637795275590551,"duration":0.1848958333333428},{"name":"C#3","midi":49,"time":149.81510416666654,"velocity":0.7637795275590551,"duration":0.1848958333333428},{"name":"B4","midi":71,"time":149.81510416666654,"velocity":0.7637795275590551,"duration":0.1848958333333428},{"name":"D#3","midi":51,"time":150.01302083333323,"velocity":0.7637795275590551,"duration":0.39322916666671404},{"name":"A4","midi":69,"time":150.01302083333323,"velocity":0.7637795275590551,"duration":0.1848958333333428},{"name":"B3","midi":59,"time":150.21223958333326,"velocity":0.7637795275590551,"duration":0.1848958333333428},{"name":"G#4","midi":68,"time":150.21223958333326,"velocity":0.7637795275590551,"duration":0.1848958333333428},{"name":"B3","midi":59,"time":150.4114583333333,"velocity":0.7637795275590551,"duration":0.3919270833333428},{"name":"C#4","midi":61,"time":150.4114583333333,"velocity":0.7637795275590551,"duration":0.1848958333333428},{"name":"A4","midi":69,"time":150.4114583333333,"velocity":0.7637795275590551,"duration":0.1848958333333428},{"name":"D#4","midi":63,"time":150.60807291666663,"velocity":0.7637795275590551,"duration":0.1848958333333428},{"name":"B4","midi":71,"time":150.60807291666663,"velocity":0.7637795275590551,"duration":0.1848958333333428},{"name":"C#4","midi":61,"time":150.80729166666663,"velocity":0.7637795275590551,"duration":0.7812500000000568},{"name":"E4","midi":64,"time":150.80729166666663,"velocity":0.7637795275590551,"duration":0.1848958333333428},{"name":"G#4","midi":68,"time":150.80729166666663,"velocity":0.7637795275590551,"duration":0.1848958333333428},{"name":"D#4","midi":63,"time":151.00520833333331,"velocity":0.7637795275590551,"duration":0.1848958333333428},{"name":"F#4","midi":66,"time":151.00520833333331,"velocity":0.7637795275590551,"duration":0.1848958333333428},{"name":"E4","midi":64,"time":151.20182291666666,"velocity":0.7637795275590551,"duration":0.1848958333333428},{"name":"G#4","midi":68,"time":151.20182291666666,"velocity":0.7637795275590551,"duration":0.1848958333333428},{"name":"F#4","midi":66,"time":151.39973958333334,"velocity":0.7637795275590551,"duration":0.1848958333333428},{"name":"A4","midi":69,"time":151.39973958333334,"velocity":0.7637795275590551,"duration":0.1848958333333428},{"name":"G#4","midi":68,"time":151.59895833333334,"velocity":0.7637795275590551,"duration":0.1848958333333428},{"name":"B4","midi":71,"time":151.59895833333334,"velocity":0.7637795275590551,"duration":0.1848958333333428},{"name":"A4","midi":69,"time":151.79557291666669,"velocity":0.7637795275590551,"duration":0.1848958333333428},{"name":"C#5","midi":73,"time":151.79557291666669,"velocity":0.7637795275590551,"duration":0.1848958333333428},{"name":"G#3","midi":56,"time":151.99348958333337,"velocity":0.7637795275590551,"duration":0.3919270833333428},{"name":"B4","midi":71,"time":151.99348958333337,"velocity":0.7637795275590551,"duration":0.1848958333333428},{"name":"D5","midi":74,"time":151.99348958333337,"velocity":0.7637795275590551,"duration":0.7877604166666856},{"name":"G#4","midi":68,"time":152.1901041666667,"velocity":0.7637795275590551,"duration":0.1848958333333428},{"name":"A3","midi":57,"time":152.3893229166667,"velocity":0.7637795275590551,"duration":0.3919270833333428},{"name":"E4","midi":64,"time":152.3893229166667,"velocity":0.7637795275590551,"duration":0.1848958333333428},{"name":"D#4","midi":63,"time":152.58593750000006,"velocity":0.7637795275590551,"duration":0.1848958333333428},{"name":"G#3","midi":56,"time":152.7864583333334,"velocity":0.7637795275590551,"duration":0.3919270833333428},{"name":"E4","midi":64,"time":152.7864583333334,"velocity":0.7637795275590551,"duration":0.1848958333333428},{"name":"C#5","midi":73,"time":152.7864583333334,"velocity":0.7637795275590551,"duration":0.1848958333333428},{"name":"F#4","midi":66,"time":152.98307291666674,"velocity":0.7637795275590551,"duration":0.1848958333333428},{"name":"B4","midi":71,"time":152.98307291666674,"velocity":0.7637795275590551,"duration":0.1848958333333428},{"name":"A3","midi":57,"time":153.18229166666674,"velocity":0.7637795275590551,"duration":0.3919270833333428},{"name":"E4","midi":64,"time":153.18229166666674,"velocity":0.7637795275590551,"duration":0.1848958333333428},{"name":"C#5","midi":73,"time":153.18229166666674,"velocity":0.7637795275590551,"duration":1.5807291666667425},{"name":"D#4","midi":63,"time":153.37890625000009,"velocity":0.7637795275590551,"duration":0.1848958333333428},{"name":"E3","midi":52,"time":153.57942708333343,"velocity":0.7637795275590551,"duration":0.3919270833333428},{"name":"E4","midi":64,"time":153.57942708333343,"velocity":0.7637795275590551,"duration":0.1848958333333428},{"name":"F#4","midi":66,"time":153.77604166666677,"velocity":0.7637795275590551,"duration":0.1848958333333428},{"name":"F#3","midi":54,"time":153.97526041666677,"velocity":0.7637795275590551,"duration":0.3919270833333428},{"name":"D#4","midi":63,"time":153.97526041666677,"velocity":0.7637795275590551,"duration":0.1848958333333428},{"name":"C#4","midi":61,"time":154.1718750000001,"velocity":0.7637795275590551,"duration":0.1848958333333428},{"name":"A3","midi":57,"time":154.37239583333346,"velocity":0.7637795275590551,"duration":0.39192708333337123},{"name":"D#4","midi":63,"time":154.37239583333346,"velocity":0.7637795275590551,"duration":0.1848958333333428},{"name":"E4","midi":64,"time":154.5690104166668,"velocity":0.7637795275590551,"duration":0.1848958333333428},{"name":"G#3","midi":56,"time":154.76822916666683,"velocity":0.7637795275590551,"duration":0.3919270833333428},{"name":"F#4","midi":66,"time":154.76822916666683,"velocity":0.7637795275590551,"duration":0.1848958333333428},{"name":"B4","midi":71,"time":154.76822916666683,"velocity":0.7637795275590551,"duration":0.783854166666714},{"name":"G#4","midi":68,"time":154.96484375000017,"velocity":0.7637795275590551,"duration":0.1848958333333428},{"name":"F#3","midi":54,"time":155.1653645833335,"velocity":0.7637795275590551,"duration":0.39192708333337123},{"name":"A4","midi":69,"time":155.1653645833335,"velocity":0.7637795275590551,"duration":0.1848958333333428},{"name":"F#4","midi":66,"time":155.36197916666686,"velocity":0.7637795275590551,"duration":0.1848958333333428},{"name":"E3","midi":52,"time":155.56119791666688,"velocity":0.7637795275590551,"duration":0.3919270833333428},{"name":"D4","midi":62,"time":155.56119791666688,"velocity":0.7637795275590551,"duration":0.1848958333333428},{"name":"C#4","midi":61,"time":155.75781250000023,"velocity":0.7637795275590551,"duration":0.1848958333333428},{"name":"F#3","midi":54,"time":155.95833333333357,"velocity":0.7637795275590551,"duration":0.3919270833333428},{"name":"D4","midi":62,"time":155.95833333333357,"velocity":0.7637795275590551,"duration":0.1848958333333428},{"name":"E4","midi":64,"time":156.1549479166669,"velocity":0.7637795275590551,"duration":0.1848958333333428},{"name":"G#3","midi":56,"time":156.3541666666669,"velocity":0.7637795275590551,"duration":0.3919270833333428},{"name":"D4","midi":62,"time":156.3541666666669,"velocity":0.7637795275590551,"duration":0.1848958333333428},{"name":"B4","midi":71,"time":156.3541666666669,"velocity":0.7637795275590551,"duration":1.5807291666667425},{"name":"C#4","midi":61,"time":156.55078125000026,"velocity":0.7637795275590551,"duration":0.1848958333333428},{"name":"E3","midi":52,"time":156.7513020833336,"velocity":0.7637795275590551,"duration":0.3919270833333428},{"name":"D4","midi":62,"time":156.7513020833336,"velocity":0.7637795275590551,"duration":0.1848958333333428},{"name":"E4","midi":64,"time":156.94791666666694,"velocity":0.7637795275590551,"duration":0.1848958333333428},{"name":"A3","midi":57,"time":157.14713541666694,"velocity":0.7637795275590551,"duration":0.3919270833333428},{"name":"C#4","midi":61,"time":157.14713541666694,"velocity":0.7637795275590551,"duration":0.1848958333333428},{"name":"B3","midi":59,"time":157.34375000000028,"velocity":0.7637795275590551,"duration":0.1848958333333428},{"name":"B3","midi":59,"time":157.54427083333363,"velocity":0.7637795275590551,"duration":0.39192708333337123},{"name":"C#4","midi":61,"time":157.54427083333363,"velocity":0.7637795275590551,"duration":0.1848958333333428},{"name":"D4","midi":62,"time":157.74088541666697,"velocity":0.7637795275590551,"duration":0.1848958333333428},{"name":"C#4","midi":61,"time":157.940104166667,"velocity":0.7637795275590551,"duration":0.3919270833333428},{"name":"E4","midi":64,"time":157.940104166667,"velocity":0.7637795275590551,"duration":0.1848958333333428},{"name":"A4","midi":69,"time":157.940104166667,"velocity":0.7637795275590551,"duration":0.783854166666714},{"name":"F#4","midi":66,"time":158.13671875000034,"velocity":0.7637795275590551,"duration":0.1848958333333428},{"name":"B3","midi":59,"time":158.33723958333368,"velocity":0.7637795275590551,"duration":0.39192708333337123},{"name":"G#4","midi":68,"time":158.33723958333368,"velocity":0.7637795275590551,"duration":0.1848958333333428},{"name":"E4","midi":64,"time":158.53385416666703,"velocity":0.7637795275590551,"duration":0.1848958333333428},{"name":"A3","midi":57,"time":158.73307291666706,"velocity":0.7637795275590551,"duration":0.3919270833333428},{"name":"C#4","midi":61,"time":158.73307291666706,"velocity":0.7637795275590551,"duration":0.1848958333333428},{"name":"B3","midi":59,"time":158.9296875000004,"velocity":0.7637795275590551,"duration":0.1848958333333428},{"name":"E3","midi":52,"time":159.13020833333374,"velocity":0.7637795275590551,"duration":0.3919270833333428},{"name":"C#4","midi":61,"time":159.13020833333374,"velocity":0.7637795275590551,"duration":0.1848958333333428},{"name":"D4","midi":62,"time":159.32682291666708,"velocity":0.7637795275590551,"duration":0.1848958333333428},{"name":"F#3","midi":54,"time":159.52604166666708,"velocity":0.7637795275590551,"duration":0.3919270833333428},{"name":"C#4","midi":61,"time":159.52604166666708,"velocity":0.7637795275590551,"duration":0.1848958333333428},{"name":"A4","midi":69,"time":159.52604166666708,"velocity":0.7637795275590551,"duration":1.5807291666667425},{"name":"B3","midi":59,"time":159.72265625000043,"velocity":0.7637795275590551,"duration":0.1848958333333428},{"name":"C#3","midi":49,"time":159.92317708333377,"velocity":0.7637795275590551,"duration":0.3919270833333428},{"name":"C#4","midi":61,"time":159.92317708333377,"velocity":0.7637795275590551,"duration":0.1848958333333428},{"name":"D4","midi":62,"time":160.1197916666671,"velocity":0.7637795275590551,"duration":0.1848958333333428},{"name":"D#3","midi":51,"time":160.3190104166671,"velocity":0.7637795275590551,"duration":0.3919270833333428},{"name":"B3","midi":59,"time":160.3190104166671,"velocity":0.7637795275590551,"duration":0.1848958333333428},{"name":"A3","midi":57,"time":160.51562500000045,"velocity":0.7637795275590551,"duration":0.1848958333333428},{"name":"B2","midi":47,"time":160.7161458333338,"velocity":0.7637795275590551,"duration":0.39192708333337123},{"name":"B3","midi":59,"time":160.7161458333338,"velocity":0.7637795275590551,"duration":0.1848958333333428},{"name":"C#4","midi":61,"time":160.91276041666714,"velocity":0.7637795275590551,"duration":0.1848958333333428},{"name":"E3","midi":52,"time":161.11197916666717,"velocity":0.7637795275590551,"duration":1.5742187500001137},{"name":"B3","midi":59,"time":161.11197916666717,"velocity":0.7637795275590551,"duration":0.1848958333333428},{"name":"G#4","midi":68,"time":161.11197916666717,"velocity":0.7637795275590551,"duration":0.3776041666666856},{"name":"A3","midi":57,"time":161.3085937500005,"velocity":0.7637795275590551,"duration":0.18229166666668561},{"name":"B3","midi":59,"time":161.50390625000054,"velocity":0.7637795275590551,"duration":0.1848958333333428},{"name":"E5","midi":76,"time":161.50390625000054,"velocity":0.7637795275590551,"duration":0.3255208333333428},{"name":"C#4","midi":61,"time":161.70052083333388,"velocity":0.7637795275590551,"duration":0.1848958333333428},{"name":"A3","midi":57,"time":161.90104166666723,"velocity":0.7637795275590551,"duration":0.1848958333333428},{"name":"F#5","midi":78,"time":161.90104166666723,"velocity":0.7637795275590551,"duration":0.1848958333333428},{"name":"G#3","midi":56,"time":162.09765625000057,"velocity":0.7637795275590551,"duration":0.1848958333333428},{"name":"E5","midi":76,"time":162.09765625000057,"velocity":0.7637795275590551,"duration":0.1848958333333428},{"name":"A3","midi":57,"time":162.2942708333339,"velocity":0.7637795275590551,"duration":0.1848958333333428},{"name":"F#5","midi":78,"time":162.2942708333339,"velocity":0.7637795275590551,"duration":0.5156250000000568},{"name":"B3","midi":59,"time":162.4921875000006,"velocity":0.7637795275590551,"duration":0.1848958333333428},{"name":"D#3","midi":51,"time":162.69140625000063,"velocity":0.7637795275590551,"duration":1.5768229166667709},{"name":"A3","midi":57,"time":162.69140625000063,"velocity":0.7637795275590551,"duration":0.1848958333333428},{"name":"G#3","midi":56,"time":162.88802083333397,"velocity":0.7637795275590551,"duration":0.1848958333333428},{"name":"B4","midi":71,"time":162.88802083333397,"velocity":0.7637795275590551,"duration":0.1848958333333428},{"name":"A3","midi":57,"time":163.08593750000065,"velocity":0.7637795275590551,"duration":0.1848958333333428},{"name":"C#5","midi":73,"time":163.08593750000065,"velocity":0.7637795275590551,"duration":0.1848958333333428},{"name":"B3","midi":59,"time":163.282552083334,"velocity":0.7637795275590551,"duration":0.1848958333333428},{"name":"D#5","midi":75,"time":163.282552083334,"velocity":0.7637795275590551,"duration":0.1848958333333428},{"name":"G#3","midi":56,"time":163.47916666666734,"velocity":0.7637795275590551,"duration":0.39192708333337123},{"name":"E5","midi":76,"time":163.47916666666734,"velocity":0.7637795275590551,"duration":0.1848958333333428},{"name":"D#5","midi":75,"time":163.67708333333402,"velocity":0.7637795275590551,"duration":0.1848958333333428},{"name":"B3","midi":59,"time":163.87630208333405,"velocity":0.7637795275590551,"duration":0.3919270833333428},{"name":"E5","midi":76,"time":163.87630208333405,"velocity":0.7637795275590551,"duration":0.1848958333333428},{"name":"F#5","midi":78,"time":164.0729166666674,"velocity":0.7637795275590551,"duration":0.1848958333333428},{"name":"C#3","midi":49,"time":164.2721354166674,"velocity":0.7637795275590551,"duration":0.7877604166667425},{"name":"E3","midi":52,"time":164.2721354166674,"velocity":0.7637795275590551,"duration":0.39192708333337123},{"name":"G#5","midi":80,"time":164.2721354166674,"velocity":0.7637795275590551,"duration":0.1848958333333428},{"name":"A5","midi":81,"time":164.47005208333408,"velocity":0.7637795275590551,"duration":0.1848958333333428},{"name":"G#3","midi":56,"time":164.6692708333341,"velocity":0.7637795275590551,"duration":0.7877604166667425},{"name":"B5","midi":83,"time":164.6692708333341,"velocity":0.7637795275590551,"duration":0.1848958333333428},{"name":"G#5","midi":80,"time":164.86588541666745,"velocity":0.7637795275590551,"duration":0.1848958333333428},{"name":"F#2","midi":42,"time":165.06510416666748,"velocity":0.7637795275590551,"duration":0.5911458333333997},{"name":"A5","midi":81,"time":165.06510416666748,"velocity":0.7637795275590551,"duration":0.1848958333333428},{"name":"G#5","midi":80,"time":165.26302083333417,"velocity":0.7637795275590551,"duration":0.1848958333333428},{"name":"F#3","midi":54,"time":165.4622395833342,"velocity":0.7637795275590551,"duration":1.9908854166667709},{"name":"A5","midi":81,"time":165.4622395833342,"velocity":0.7637795275590551,"duration":0.1848958333333428},{"name":"C#3","midi":49,"time":165.66145833333422,"velocity":0.7637795275590551,"duration":0.1848958333333428},{"name":"B5","midi":83,"time":165.66145833333422,"velocity":0.7637795275590551,"duration":0.1848958333333428},{"name":"D#3","midi":51,"time":165.85807291666757,"velocity":0.7637795275590551,"duration":0.39192708333337123},{"name":"A5","midi":81,"time":165.85807291666757,"velocity":0.7637795275590551,"duration":0.1848958333333428},{"name":"G#5","midi":80,"time":166.05598958333425,"velocity":0.7637795275590551,"duration":0.1848958333333428},{"name":"B2","midi":47,"time":166.25520833333428,"velocity":0.7637795275590551,"duration":0.3919270833333428},{"name":"A5","midi":81,"time":166.25520833333428,"velocity":0.7637795275590551,"duration":0.1848958333333428},{"name":"B5","midi":83,"time":166.45182291666762,"velocity":0.7637795275590551,"duration":0.1848958333333428},{"name":"E3","midi":52,"time":166.65104166666762,"velocity":0.7637795275590551,"duration":0.3984375},{"name":"G#5","midi":80,"time":166.65104166666762,"velocity":0.7637795275590551,"duration":0.1875},{"name":"F#5","midi":78,"time":166.85286458333428,"velocity":0.7637795275590551,"duration":0.1875},{"name":"B2","midi":47,"time":167.05468750000097,"velocity":0.7637795275590551,"duration":0.3984375},{"name":"G#5","midi":80,"time":167.05468750000097,"velocity":0.7637795275590551,"duration":0.1875},{"name":"A5","midi":81,"time":167.25651041666762,"velocity":0.7637795275590551,"duration":0.1875},{"name":"C#3","midi":49,"time":167.4583333333343,"velocity":0.7637795275590551,"duration":0.3984375},{"name":"E3","midi":52,"time":167.4583333333343,"velocity":0.7637795275590551,"duration":1.2135416666666856},{"name":"G#5","midi":80,"time":167.4583333333343,"velocity":0.7637795275590551,"duration":0.1875},{"name":"F#5","midi":78,"time":167.66015625000097,"velocity":0.7637795275590551,"duration":0.1875},{"name":"G#2","midi":44,"time":167.8606770833343,"velocity":0.7637795275590551,"duration":0.3984375},{"name":"E5","midi":76,"time":167.8606770833343,"velocity":0.7637795275590551,"duration":0.1875},{"name":"D5","midi":74,"time":168.06250000000097,"velocity":0.7637795275590551,"duration":0.1875},{"name":"A2","midi":45,"time":168.26432291666765,"velocity":0.7637795275590551,"duration":0.4075520833333428},{"name":"C#5","midi":73,"time":168.26432291666765,"velocity":0.7637795275590551,"duration":0.19140625},{"name":"B4","midi":71,"time":168.47135416666765,"velocity":0.7637795275590551,"duration":0.19140625},{"name":"E2","midi":40,"time":168.67708333333434,"velocity":0.7637795275590551,"duration":0.4075520833333144},{"name":"E4","midi":64,"time":168.67708333333434,"velocity":0.7637795275590551,"duration":0.4075520833333144},{"name":"C#5","midi":73,"time":168.67708333333434,"velocity":0.7637795275590551,"duration":0.19140625},{"name":"D5","midi":74,"time":168.882812500001,"velocity":0.7637795275590551,"duration":0.19140625},{"name":"F#2","midi":42,"time":169.089843750001,"velocity":0.7637795275590551,"duration":0.4075520833333144},{"name":"A4","midi":69,"time":169.089843750001,"velocity":0.7637795275590551,"duration":1.6809895833333428},{"name":"C#5","midi":73,"time":169.089843750001,"velocity":0.7637795275590551,"duration":0.19140625},{"name":"B4","midi":71,"time":169.29557291666765,"velocity":0.7637795275590551,"duration":0.19140625},{"name":"C#2","midi":37,"time":169.5013020833343,"velocity":0.7637795275590551,"duration":0.4075520833333428},{"name":"C#5","midi":73,"time":169.5013020833343,"velocity":0.7637795275590551,"duration":0.19140625},{"name":"D5","midi":74,"time":169.7083333333343,"velocity":0.7637795275590551,"duration":0.19140625},{"name":"D#2","midi":39,"time":169.914062500001,"velocity":0.7637795275590551,"duration":0.42578125},{"name":"B4","midi":71,"time":169.914062500001,"velocity":0.7637795275590551,"duration":0.2005208333333428},{"name":"C#5","midi":73,"time":170.128906250001,"velocity":0.7637795275590551,"duration":0.2005208333333428},{"name":"B3","midi":59,"time":170.34505208333434,"velocity":0.7637795275590551,"duration":0.42578125},{"name":"D#5","midi":75,"time":170.34505208333434,"velocity":0.7637795275590551,"duration":0.2005208333333428},{"name":"B4","midi":71,"time":170.55989583333434,"velocity":0.7637795275590551,"duration":0.2005208333333428},{"name":"C#4","midi":61,"time":170.77473958333434,"velocity":0.7637795275590551,"duration":0.8971354166666856},{"name":"G#4","midi":68,"time":170.77473958333434,"velocity":0.7637795275590551,"duration":0.2122395833333428},{"name":"E5","midi":76,"time":170.77473958333434,"velocity":0.7637795275590551,"duration":1.8684895833333712},{"name":"E4","midi":64,"time":171.00130208333434,"velocity":0.7637795275590551,"duration":0.2122395833333428},{"name":"F#4","midi":66,"time":171.22786458333434,"velocity":0.7637795275590551,"duration":0.2122395833333428},{"name":"G#4","midi":68,"time":171.45442708333434,"velocity":0.7637795275590551,"duration":0.2122395833333428},{"name":"A4","midi":69,"time":171.68098958333437,"velocity":0.7637795275590551,"duration":0.2265625},{"name":"F#3","midi":54,"time":171.92317708333437,"velocity":0.7637795275590551,"duration":0.2265625},{"name":"B4","midi":71,"time":171.92317708333437,"velocity":0.7637795275590551,"duration":0.2265625},{"name":"G#3","midi":56,"time":172.16536458333437,"velocity":0.7637795275590551,"duration":0.2265625},{"name":"C#5","midi":73,"time":172.16536458333437,"velocity":0.7637795275590551,"duration":0.7447916666666856},{"name":"A3","midi":57,"time":172.4088541666677,"velocity":0.7637795275590551,"duration":0.2265625},{"name":"B3","midi":59,"time":172.64843750000105,"velocity":0.7637795275590551,"duration":1.0598958333333712},{"name":"D#5","midi":75,"time":172.64843750000105,"velocity":0.7637795275590551,"duration":1.209635416666714},{"name":"C#5","midi":73,"time":172.9153645833344,"velocity":0.7637795275590551,"duration":0.2513020833333428},{"name":"B2","midi":47,"time":173.18359375000108,"velocity":0.7637795275590551,"duration":0.6744791666666856},{"name":"B4","midi":71,"time":173.18359375000108,"velocity":0.7637795275590551,"duration":0.3190104166666572},{"name":"A4","midi":69,"time":173.52343750000108,"velocity":0.7637795275590551,"duration":0.3216145833333428},{"name":"E2","midi":40,"time":173.86458333333442,"velocity":0.7637795275590551,"duration":3.90625},{"name":"G#4","midi":68,"time":173.86458333333442,"velocity":0.7637795275590551,"duration":3.90625},{"name":"E5","midi":76,"time":173.86458333333442,"velocity":0.7637795275590551,"duration":3.90625}],"controlChanges":{"7":[{"number":7,"time":0,"value":0.7874015748031497}]},"id":1,"name":"Harpsichord","instrumentNumber":6,"instrument":"harpsichord","instrumentFamily":"piano","channelNumber":0,"isPercussion":false}]}