{"header":{"PPQ":384,"timeSignature":[4,4],"bpm":120,"name":"--------"},"startTime":0,"duration":126.4674479166667,"tracks":[{"startTime":0,"duration":0,"length":0,"notes":[],"controlChanges":{},"id":0,"name":"--------"},{"startTime":0.0625,"duration":126.4674479166667,"length":724,"notes":[{"name":"E3","midi":52,"time":0.0625,"velocity":0.8031496062992126,"duration":1.0924479166666665},{"name":"B4","midi":71,"time":0.5598958333333333,"velocity":0.8031496062992126,"duration":0.46614583333333326},{"name":"E2","midi":40,"time":0.5598958333333333,"velocity":0.8031496062992126,"duration":0.7942708333333333},{"name":"E5","midi":76,"time":1.0364583333333333,"velocity":0.8031496062992126,"duration":0.46614583333333326},{"name":"F#5","midi":78,"time":1.5130208333333333,"velocity":0.8031496062992126,"duration":0.46614583333333326},{"name":"B3","midi":59,"time":1.5130208333333333,"velocity":0.8031496062992126,"duration":0.46614583333333326},{"name":"G5","midi":79,"time":1.9895833333333333,"velocity":0.8031496062992126,"duration":1.4270833333333333},{"name":"E4","midi":64,"time":1.9895833333333333,"velocity":0.8031496062992126,"duration":0.46614583333333326},{"name":"D4","midi":62,"time":2.466145833333333,"velocity":0.8031496062992126,"duration":0.4661458333333335},{"name":"C4","midi":60,"time":2.942708333333333,"velocity":0.8031496062992126,"duration":1.427083333333333},{"name":"F#5","midi":78,"time":3.419270833333333,"velocity":0.8031496062992126,"duration":0.4661458333333335},{"name":"A5","midi":81,"time":3.895833333333333,"velocity":0.8031496062992126,"duration":0.46614583333333304},{"name":"G5","midi":79,"time":4.372395833333333,"velocity":0.8031496062992126,"duration":0.46614583333333304},{"name":"B3","midi":59,"time":4.372395833333333,"velocity":0.8031496062992126,"duration":0.46614583333333304},{"name":"F#5","midi":78,"time":4.848958333333333,"velocity":0.8031496062992126,"duration":0.46614583333333304},{"name":"A3","midi":57,"time":4.848958333333333,"velocity":0.8031496062992126,"duration":0.46614583333333304},{"name":"E5","midi":76,"time":5.325520833333333,"velocity":0.8031496062992126,"duration":0.46614583333333304},{"name":"C4","midi":60,"time":5.325520833333333,"velocity":0.8031496062992126,"duration":0.46614583333333304},{"name":"D#5","midi":75,"time":5.802083333333333,"velocity":0.8031496062992126,"duration":0.23567708333333304},{"name":"B3","midi":59,"time":5.802083333333333,"velocity":0.8031496062992126,"duration":1.427083333333333},{"name":"C#5","midi":73,"time":6.040364583333333,"velocity":0.8031496062992126,"duration":0.23567708333333304},{"name":"B4","midi":71,"time":6.278645833333333,"velocity":0.8031496062992126,"duration":0.23567708333333304},{"name":"F#4","midi":66,"time":6.278645833333333,"velocity":0.8031496062992126,"duration":0.46614583333333304},{"name":"C#5","midi":73,"time":6.516927083333333,"velocity":0.8031496062992126,"duration":0.23567708333333304},{"name":"D5","midi":74,"time":6.755208333333333,"velocity":0.8031496062992126,"duration":0.46614583333333304},{"name":"B4","midi":71,"time":6.755208333333333,"velocity":0.8031496062992126,"duration":0.46614583333333304},{"name":"E5","midi":76,"time":7.231770833333333,"velocity":0.8031496062992126,"duration":0.46614583333333304},{"name":"C#5","midi":73,"time":7.231770833333333,"velocity":0.8031496062992126,"duration":0.46614583333333304},{"name":"A3","midi":57,"time":7.231770833333333,"velocity":0.8031496062992126,"duration":0.46614583333333304},{"name":"F#5","midi":78,"time":7.708333333333333,"velocity":0.8031496062992126,"duration":1.427083333333333},{"name":"D5","midi":74,"time":7.708333333333333,"velocity":0.8031496062992126,"duration":1.427083333333333},{"name":"G3","midi":55,"time":7.708333333333333,"velocity":0.8031496062992126,"duration":0.46614583333333304},{"name":"F#3","midi":54,"time":8.184895833333332,"velocity":0.8031496062992126,"duration":0.4661458333333339},{"name":"E3","midi":52,"time":8.661458333333332,"velocity":0.8031496062992126,"duration":1.427083333333334},{"name":"E5","midi":76,"time":9.138020833333332,"velocity":0.8031496062992126,"duration":0.4661458333333339},{"name":"C#5","midi":73,"time":9.138020833333332,"velocity":0.8031496062992126,"duration":0.4661458333333339},{"name":"G5","midi":79,"time":9.614583333333332,"velocity":0.8031496062992126,"duration":0.4661458333333339},{"name":"E5","midi":76,"time":9.614583333333332,"velocity":0.8031496062992126,"duration":0.4661458333333339},{"name":"F#5","midi":78,"time":10.091145833333332,"velocity":0.8031496062992126,"duration":0.4661458333333339},{"name":"D5","midi":74,"time":10.091145833333332,"velocity":0.8031496062992126,"duration":0.4661458333333339},{"name":"F#3","midi":54,"time":10.091145833333332,"velocity":0.8031496062992126,"duration":0.4661458333333339},{"name":"E5","midi":76,"time":10.567708333333332,"velocity":0.8031496062992126,"duration":0.4661458333333339},{"name":"C#5","midi":73,"time":10.567708333333332,"velocity":0.8031496062992126,"duration":0.4661458333333339},{"name":"G3","midi":55,"time":10.567708333333332,"velocity":0.8031496062992126,"duration":0.4661458333333339},{"name":"D5","midi":74,"time":11.044270833333332,"velocity":0.8031496062992126,"duration":0.4661458333333339},{"name":"B4","midi":71,"time":11.044270833333332,"velocity":0.8031496062992126,"duration":0.4661458333333339},{"name":"E3","midi":52,"time":11.044270833333332,"velocity":0.8031496062992126,"duration":0.4661458333333339},{"name":"C#5","midi":73,"time":11.520833333333332,"velocity":0.8031496062992126,"duration":0.4661458333333339},{"name":"A#4","midi":70,"time":11.520833333333332,"velocity":0.8031496062992126,"duration":0.23567708333333393},{"name":"F#3","midi":54,"time":11.520833333333332,"velocity":0.8031496062992126,"duration":1.188802083333334},{"name":"G#4","midi":68,"time":11.759114583333332,"velocity":0.8031496062992126,"duration":0.23567708333333393},{"name":"C#5","midi":73,"time":11.997395833333332,"velocity":0.8031496062992126,"duration":0.4661458333333339},{"name":"F#4","midi":66,"time":11.997395833333332,"velocity":0.8031496062992126,"duration":0.23567708333333393},{"name":"G#4","midi":68,"time":12.235677083333332,"velocity":0.8031496062992126,"duration":0.23567708333333393},{"name":"F#5","midi":78,"time":12.473958333333332,"velocity":0.8031496062992126,"duration":0.4661458333333339},{"name":"A4","midi":69,"time":12.473958333333332,"velocity":0.8031496062992126,"duration":0.4661458333333339},{"name":"G3","midi":55,"time":12.712239583333332,"velocity":0.8031496062992126,"duration":0.23567708333333393},{"name":"G5","midi":79,"time":12.950520833333332,"velocity":0.8031496062992126,"duration":0.4661458333333339},{"name":"B4","midi":71,"time":12.950520833333332,"velocity":0.8031496062992126,"duration":0.4661458333333339},{"name":"A3","midi":57,"time":12.950520833333332,"velocity":0.8031496062992126,"duration":0.23567708333333393},{"name":"G3","midi":55,"time":13.188802083333332,"velocity":0.8031496062992126,"duration":0.23567708333333393},{"name":"A5","midi":81,"time":13.427083333333332,"velocity":0.8031496062992126,"duration":1.427083333333334},{"name":"C5","midi":72,"time":13.427083333333332,"velocity":0.8031496062992126,"duration":1.427083333333334},{"name":"F#3","midi":54,"time":13.427083333333332,"velocity":0.8031496062992126,"duration":0.23567708333333393},{"name":"E3","midi":52,"time":13.665364583333332,"velocity":0.8031496062992126,"duration":0.23567708333333393},{"name":"D#3","midi":51,"time":13.903645833333332,"velocity":0.8031496062992126,"duration":0.23567708333333393},{"name":"E3","midi":52,"time":14.141927083333332,"velocity":0.8031496062992126,"duration":0.23567708333333393},{"name":"D#3","midi":51,"time":14.380208333333332,"velocity":0.8031496062992126,"duration":1.19140625},{"name":"F#5","midi":78,"time":14.856770833333332,"velocity":0.8031496062992126,"duration":0.4661458333333339},{"name":"A4","midi":69,"time":14.856770833333332,"velocity":0.8031496062992126,"duration":0.4661458333333339},{"name":"A5","midi":81,"time":15.333333333333332,"velocity":0.8031496062992126,"duration":0.4661458333333339},{"name":"C5","midi":72,"time":15.333333333333332,"velocity":0.8031496062992126,"duration":0.4661458333333339},{"name":"G5","midi":79,"time":15.809895833333332,"velocity":0.8031496062992126,"duration":0.46614583333333215},{"name":"B4","midi":71,"time":15.809895833333332,"velocity":0.8031496062992126,"duration":0.46614583333333215},{"name":"E3","midi":52,"time":15.809895833333332,"velocity":0.8031496062992126,"duration":0.46614583333333215},{"name":"F#5","midi":78,"time":16.286458333333332,"velocity":0.8031496062992126,"duration":0.46614583333333215},{"name":"A4","midi":69,"time":16.286458333333332,"velocity":0.8031496062992126,"duration":0.46614583333333215},{"name":"C3","midi":48,"time":16.286458333333332,"velocity":0.8031496062992126,"duration":0.46614583333333215},{"name":"E5","midi":76,"time":16.763020833333332,"velocity":0.8031496062992126,"duration":0.46614583333333215},{"name":"G4","midi":67,"time":16.763020833333332,"velocity":0.8031496062992126,"duration":0.46614583333333215},{"name":"A2","midi":45,"time":16.763020833333332,"velocity":0.8031496062992126,"duration":0.46614583333333215},{"name":"D#5","midi":75,"time":17.239583333333332,"velocity":0.8031496062992126,"duration":0.46614583333333215},{"name":"F#4","midi":66,"time":17.239583333333332,"velocity":0.8031496062992126,"duration":0.8932291666666679},{"name":"B2","midi":47,"time":17.239583333333332,"velocity":0.8031496062992126,"duration":0.46614583333333215},{"name":"F#5","midi":78,"time":17.716145833333332,"velocity":0.8031496062992126,"duration":0.4661458333333357},{"name":"B3","midi":59,"time":17.716145833333332,"velocity":0.8031496062992126,"duration":0.4661458333333357},{"name":"G5","midi":79,"time":18.192708333333336,"velocity":0.8031496062992126,"duration":0.46614583333333215},{"name":"E4","midi":64,"time":18.192708333333336,"velocity":0.8031496062992126,"duration":0.46614583333333215},{"name":"A5","midi":81,"time":18.669270833333336,"velocity":0.8031496062992126,"duration":0.46614583333333215},{"name":"B4","midi":71,"time":18.669270833333336,"velocity":0.8031496062992126,"duration":0.46614583333333215},{"name":"F#4","midi":66,"time":18.669270833333336,"velocity":0.8031496062992126,"duration":0.46614583333333215},{"name":"B5","midi":83,"time":19.145833333333336,"velocity":0.8031496062992126,"duration":0.46614583333333215},{"name":"E5","midi":76,"time":19.145833333333336,"velocity":0.8031496062992126,"duration":0.46614583333333215},{"name":"G4","midi":67,"time":19.145833333333336,"velocity":0.8031496062992126,"duration":1.4270833333333321},{"name":"G5","midi":79,"time":19.622395833333336,"velocity":0.8031496062992126,"duration":0.46614583333333215},{"name":"D5","midi":74,"time":19.622395833333336,"velocity":0.8031496062992126,"duration":0.46614583333333215},{"name":"E5","midi":76,"time":20.098958333333336,"velocity":0.8031496062992126,"duration":1.4270833333333321},{"name":"C#5","midi":73,"time":20.098958333333336,"velocity":0.8031496062992126,"duration":1.4270833333333321},{"name":"F#4","midi":66,"time":20.575520833333336,"velocity":0.8031496062992126,"duration":0.46614583333333215},{"name":"A4","midi":69,"time":21.052083333333336,"velocity":0.8031496062992126,"duration":0.46614583333333215},{"name":"E5","midi":76,"time":21.528645833333336,"velocity":0.8031496062992126,"duration":0.46614583333333215},{"name":"C#5","midi":73,"time":21.528645833333336,"velocity":0.8031496062992126,"duration":0.46614583333333215},{"name":"G4","midi":67,"time":21.528645833333336,"velocity":0.8031496062992126,"duration":0.46614583333333215},{"name":"F#5","midi":78,"time":22.005208333333336,"velocity":0.8031496062992126,"duration":0.46614583333333215},{"name":"D#5","midi":75,"time":22.005208333333336,"velocity":0.8031496062992126,"duration":0.46614583333333215},{"name":"F#4","midi":66,"time":22.005208333333336,"velocity":0.8031496062992126,"duration":0.46614583333333215},{"name":"G5","midi":79,"time":22.481770833333336,"velocity":0.8031496062992126,"duration":0.46614583333333215},{"name":"E5","midi":76,"time":22.481770833333336,"velocity":0.8031496062992126,"duration":0.46614583333333215},{"name":"E4","midi":64,"time":22.481770833333336,"velocity":0.8031496062992126,"duration":0.46614583333333215},{"name":"A5","midi":81,"time":22.958333333333336,"velocity":0.8031496062992126,"duration":0.9505208333333321},{"name":"F#5","midi":78,"time":22.958333333333336,"velocity":0.8031496062992126,"duration":1.4270833333333321},{"name":"D#4","midi":63,"time":22.958333333333336,"velocity":0.8031496062992126,"duration":0.46614583333333215},{"name":"B3","midi":59,"time":23.434895833333336,"velocity":0.8031496062992126,"duration":0.46614583333333215},{"name":"G5","midi":79,"time":23.911458333333336,"velocity":0.8031496062992126,"duration":2.380208333333332},{"name":"E4","midi":64,"time":23.911458333333336,"velocity":0.8031496062992126,"duration":0.46614583333333215},{"name":"B4","midi":71,"time":24.388020833333336,"velocity":0.8031496062992126,"duration":0.46614583333333215},{"name":"D4","midi":62,"time":24.388020833333336,"velocity":0.8031496062992126,"duration":0.46614583333333215},{"name":"E5","midi":76,"time":24.864583333333336,"velocity":0.8031496062992126,"duration":0.46614583333333215},{"name":"C#4","midi":61,"time":24.864583333333336,"velocity":0.8031496062992126,"duration":0.46614583333333215},{"name":"D5","midi":74,"time":25.341145833333336,"velocity":0.8031496062992126,"duration":0.46614583333333215},{"name":"B3","midi":59,"time":25.341145833333336,"velocity":0.8031496062992126,"duration":0.46614583333333215},{"name":"C#5","midi":73,"time":25.817708333333336,"velocity":0.8031496062992126,"duration":1.4270833333333321},{"name":"A#3","midi":58,"time":25.817708333333336,"velocity":0.8031496062992126,"duration":1.4270833333333321},{"name":"E5","midi":76,"time":26.294270833333336,"velocity":0.8031496062992126,"duration":0.46614583333333215},{"name":"G5","midi":79,"time":26.770833333333336,"velocity":0.8031496062992126,"duration":0.46614583333333215},{"name":"F#5","midi":78,"time":27.247395833333336,"velocity":0.8031496062992126,"duration":0.46614583333333215},{"name":"D5","midi":74,"time":27.247395833333336,"velocity":0.8031496062992126,"duration":0.46614583333333215},{"name":"B3","midi":59,"time":27.247395833333336,"velocity":0.8031496062992126,"duration":0.46614583333333215},{"name":"E5","midi":76,"time":27.723958333333336,"velocity":0.8031496062992126,"duration":0.46614583333333215},{"name":"C#5","midi":73,"time":27.723958333333336,"velocity":0.8031496062992126,"duration":0.46614583333333215},{"name":"C#4","midi":61,"time":27.723958333333336,"velocity":0.8031496062992126,"duration":0.46614583333333215},{"name":"D5","midi":74,"time":28.200520833333336,"velocity":0.8031496062992126,"duration":0.46614583333333215},{"name":"B4","midi":71,"time":28.200520833333336,"velocity":0.8031496062992126,"duration":0.46614583333333215},{"name":"D4","midi":62,"time":28.200520833333336,"velocity":0.8031496062992126,"duration":0.46614583333333215},{"name":"C#5","midi":73,"time":28.677083333333336,"velocity":0.8031496062992126,"duration":1.4270833333333321},{"name":"A#4","midi":70,"time":28.677083333333336,"velocity":0.8031496062992126,"duration":1.4270833333333321},{"name":"E4","midi":64,"time":28.677083333333336,"velocity":0.8031496062992126,"duration":0.23567708333333215},{"name":"D4","midi":62,"time":28.915364583333336,"velocity":0.8031496062992126,"duration":0.23567708333333215},{"name":"E4","midi":64,"time":29.153645833333336,"velocity":0.8031496062992126,"duration":0.23567708333333215},{"name":"F#4","midi":66,"time":29.391927083333336,"velocity":0.8031496062992126,"duration":0.23567708333333215},{"name":"G4","midi":67,"time":29.630208333333336,"velocity":0.8031496062992126,"duration":0.46614583333333215},{"name":"D5","midi":74,"time":30.106770833333336,"velocity":0.8031496062992126,"duration":0.46614583333333215},{"name":"B4","midi":71,"time":30.106770833333336,"velocity":0.8031496062992126,"duration":0.46614583333333215},{"name":"F#4","midi":66,"time":30.106770833333336,"velocity":0.8031496062992126,"duration":0.46614583333333215},{"name":"E5","midi":76,"time":30.583333333333336,"velocity":0.8031496062992126,"duration":0.46614583333333215},{"name":"C#5","midi":73,"time":30.583333333333336,"velocity":0.8031496062992126,"duration":0.46614583333333215},{"name":"E4","midi":64,"time":30.583333333333336,"velocity":0.8031496062992126,"duration":0.46614583333333215},{"name":"F#5","midi":78,"time":31.059895833333336,"velocity":0.8031496062992126,"duration":0.46614583333333215},{"name":"D5","midi":74,"time":31.059895833333336,"velocity":0.8031496062992126,"duration":0.46614583333333215},{"name":"D4","midi":62,"time":31.059895833333336,"velocity":0.8031496062992126,"duration":0.46614583333333215},{"name":"G5","midi":79,"time":31.536458333333336,"velocity":0.8031496062992126,"duration":0.9505208333333357},{"name":"E5","midi":76,"time":31.536458333333336,"velocity":0.8031496062992126,"duration":0.4661458333333357},{"name":"C#4","midi":61,"time":31.536458333333336,"velocity":0.8031496062992126,"duration":0.4661458333333357},{"name":"D5","midi":74,"time":32.013020833333336,"velocity":0.8031496062992126,"duration":0.4661458333333357},{"name":"B3","midi":59,"time":32.013020833333336,"velocity":0.8031496062992126,"duration":0.4661458333333357},{"name":"F#5","midi":78,"time":32.489583333333336,"velocity":0.8031496062992126,"duration":0.4661458333333357},{"name":"C#5","midi":73,"time":32.489583333333336,"velocity":0.8031496062992126,"duration":1.4270833333333357},{"name":"A#3","midi":58,"time":32.489583333333336,"velocity":0.8031496062992126,"duration":0.4661458333333357},{"name":"E5","midi":76,"time":32.966145833333336,"velocity":0.8031496062992126,"duration":0.4661458333333357},{"name":"F#3","midi":54,"time":32.966145833333336,"velocity":0.8031496062992126,"duration":0.4661458333333357},{"name":"D5","midi":74,"time":33.442708333333336,"velocity":0.8031496062992126,"duration":1.4270833333333357},{"name":"B3","midi":59,"time":33.442708333333336,"velocity":0.8031496062992126,"duration":0.4661458333333357},{"name":"F#4","midi":66,"time":33.919270833333336,"velocity":0.8031496062992126,"duration":0.4661458333333357},{"name":"A3","midi":57,"time":33.919270833333336,"velocity":0.8031496062992126,"duration":0.4661458333333357},{"name":"B4","midi":71,"time":34.395833333333336,"velocity":0.8031496062992126,"duration":1.9036458333333357},{"name":"G3","midi":55,"time":34.395833333333336,"velocity":0.8031496062992126,"duration":0.4661458333333357},{"name":"C#5","midi":73,"time":34.872395833333336,"velocity":0.8031496062992126,"duration":0.4661458333333357},{"name":"E3","midi":52,"time":34.872395833333336,"velocity":0.8031496062992126,"duration":0.4661458333333357},{"name":"E5","midi":76,"time":35.348958333333336,"velocity":0.8031496062992126,"duration":0.4661458333333357},{"name":"F#3","midi":54,"time":35.348958333333336,"velocity":0.8031496062992126,"duration":0.9505208333333357},{"name":"D5","midi":74,"time":35.825520833333336,"velocity":0.8031496062992126,"duration":0.4661458333333357},{"name":"C#5","midi":73,"time":36.302083333333336,"velocity":0.8031496062992126,"duration":0.4661458333333357},{"name":"A#4","midi":70,"time":36.302083333333336,"velocity":0.8031496062992126,"duration":0.9427083333333357},{"name":"F#2","midi":42,"time":36.302083333333336,"velocity":0.8031496062992126,"duration":0.9505208333333357},{"name":"B4","midi":71,"time":36.778645833333336,"velocity":0.8031496062992126,"duration":0.4661458333333357},{"name":"B4","midi":71,"time":37.255208333333336,"velocity":0.8031496062992126,"duration":0.9427083333333357},{"name":"B2","midi":47,"time":37.255208333333336,"velocity":0.8031496062992126,"duration":0.2356770833333357},{"name":"F#3","midi":54,"time":37.493489583333336,"velocity":0.8031496062992126,"duration":0.2356770833333357},{"name":"B3","midi":59,"time":37.731770833333336,"velocity":0.8031496062992126,"duration":0.4661458333333357},{"name":"A3","midi":57,"time":37.970052083333336,"velocity":0.8031496062992126,"duration":0.2356770833333357},{"name":"E4","midi":64,"time":38.208333333333336,"velocity":0.8031496062992126,"duration":0.4661458333333357},{"name":"G3","midi":55,"time":38.208333333333336,"velocity":0.8031496062992126,"duration":0.2356770833333357},{"name":"B3","midi":59,"time":38.446614583333336,"velocity":0.8031496062992126,"duration":0.2356770833333357},{"name":"F#4","midi":66,"time":38.684895833333336,"velocity":0.8031496062992126,"duration":0.4661458333333357},{"name":"G3","midi":55,"time":38.684895833333336,"velocity":0.8031496062992126,"duration":0.2356770833333357},{"name":"F#3","midi":54,"time":38.923177083333336,"velocity":0.8031496062992126,"duration":0.2356770833333357},{"name":"G4","midi":67,"time":39.161458333333336,"velocity":0.8031496062992126,"duration":1.4270833333333357},{"name":"E3","midi":52,"time":39.161458333333336,"velocity":0.8031496062992126,"duration":0.2356770833333357},{"name":"B3","midi":59,"time":39.399739583333336,"velocity":0.8031496062992126,"duration":0.2356770833333357},{"name":"E3","midi":52,"time":39.638020833333336,"velocity":0.8031496062992126,"duration":0.2356770833333357},{"name":"D3","midi":50,"time":39.876302083333336,"velocity":0.8031496062992126,"duration":0.2356770833333357},{"name":"C3","midi":48,"time":40.114583333333336,"velocity":0.8031496062992126,"duration":0.2356770833333357},{"name":"G3","midi":55,"time":40.352864583333336,"velocity":0.8031496062992126,"duration":0.2356770833333357},{"name":"F#4","midi":66,"time":40.591145833333336,"velocity":0.8031496062992126,"duration":0.4661458333333357},{"name":"E3","midi":52,"time":40.591145833333336,"velocity":0.8031496062992126,"duration":0.2356770833333357},{"name":"D3","midi":50,"time":40.829427083333336,"velocity":0.8031496062992126,"duration":0.2356770833333357},{"name":"A4","midi":69,"time":41.067708333333336,"velocity":0.8031496062992126,"duration":0.4661458333333357},{"name":"C3","midi":48,"time":41.067708333333336,"velocity":0.8031496062992126,"duration":0.2356770833333357},{"name":"E3","midi":52,"time":41.305989583333336,"velocity":0.8031496062992126,"duration":0.2356770833333357},{"name":"G4","midi":67,"time":41.544270833333336,"velocity":0.8031496062992126,"duration":0.4661458333333357},{"name":"C3","midi":48,"time":41.544270833333336,"velocity":0.8031496062992126,"duration":0.2356770833333357},{"name":"B2","midi":47,"time":41.782552083333336,"velocity":0.8031496062992126,"duration":0.2356770833333357},{"name":"F#4","midi":66,"time":42.020833333333336,"velocity":0.8031496062992126,"duration":0.4661458333333357},{"name":"A2","midi":45,"time":42.020833333333336,"velocity":0.8031496062992126,"duration":0.2356770833333357},{"name":"B2","midi":47,"time":42.259114583333336,"velocity":0.8031496062992126,"duration":0.2356770833333357},{"name":"E4","midi":64,"time":42.497395833333336,"velocity":0.8031496062992126,"duration":0.4661458333333357},{"name":"C3","midi":48,"time":42.497395833333336,"velocity":0.8031496062992126,"duration":0.2356770833333357},{"name":"A2","midi":45,"time":42.735677083333336,"velocity":0.8031496062992126,"duration":0.2356770833333357},{"name":"D#4","midi":63,"time":42.973958333333336,"velocity":0.8031496062992126,"duration":0.390625},{"name":"B2","midi":47,"time":42.973958333333336,"velocity":0.8031496062992126,"duration":0.2356770833333357},{"name":"G3","midi":55,"time":43.212239583333336,"velocity":0.8031496062992126,"duration":0.2356770833333357},{"name":"F#4","midi":66,"time":43.450520833333336,"velocity":0.8031496062992126,"duration":0.4661458333333357},{"name":"F#3","midi":54,"time":43.450520833333336,"velocity":0.8031496062992126,"duration":0.2356770833333357},{"name":"E3","midi":52,"time":43.688802083333336,"velocity":0.8031496062992126,"duration":0.2356770833333357},{"name":"B4","midi":71,"time":43.927083333333336,"velocity":0.8031496062992126,"duration":0.4661458333333357},{"name":"D3","midi":50,"time":43.927083333333336,"velocity":0.8031496062992126,"duration":0.2356770833333357},{"name":"F#3","midi":54,"time":44.165364583333336,"velocity":0.8031496062992126,"duration":0.2356770833333357},{"name":"C#5","midi":73,"time":44.403645833333336,"velocity":0.8031496062992126,"duration":0.4661458333333357},{"name":"F#4","midi":66,"time":44.403645833333336,"velocity":0.8031496062992126,"duration":0.4661458333333357},{"name":"D3","midi":50,"time":44.403645833333336,"velocity":0.8031496062992126,"duration":0.2356770833333357},{"name":"C#3","midi":49,"time":44.641927083333336,"velocity":0.8031496062992126,"duration":0.2356770833333357},{"name":"D5","midi":74,"time":44.880208333333336,"velocity":0.8031496062992126,"duration":1.4270833333333357},{"name":"B4","midi":71,"time":44.880208333333336,"velocity":0.8031496062992126,"duration":0.2356770833333357},{"name":"B2","midi":47,"time":44.880208333333336,"velocity":0.8031496062992126,"duration":0.2356770833333357},{"name":"A4","midi":69,"time":45.118489583333336,"velocity":0.8031496062992126,"duration":0.2356770833333357},{"name":"F#3","midi":54,"time":45.118489583333336,"velocity":0.8031496062992126,"duration":0.2356770833333357},{"name":"G4","midi":67,"time":45.356770833333336,"velocity":0.8031496062992126,"duration":0.2356770833333357},{"name":"B2","midi":47,"time":45.356770833333336,"velocity":0.8031496062992126,"duration":0.2356770833333357},{"name":"F#4","midi":66,"time":45.595052083333336,"velocity":0.8031496062992126,"duration":0.2356770833333357},{"name":"A2","midi":45,"time":45.595052083333336,"velocity":0.8031496062992126,"duration":0.2356770833333357},{"name":"E4","midi":64,"time":45.833333333333336,"velocity":0.8031496062992126,"duration":1.4270833333333357},{"name":"G2","midi":43,"time":45.833333333333336,"velocity":0.8031496062992126,"duration":0.2356770833333357},{"name":"D3","midi":50,"time":46.071614583333336,"velocity":0.8031496062992126,"duration":0.2356770833333357},{"name":"C#5","midi":73,"time":46.309895833333336,"velocity":0.8031496062992126,"duration":0.4661458333333357},{"name":"B2","midi":47,"time":46.309895833333336,"velocity":0.8031496062992126,"duration":0.2356770833333357},{"name":"A2","midi":45,"time":46.548177083333336,"velocity":0.8031496062992126,"duration":0.2356770833333357},{"name":"E5","midi":76,"time":46.786458333333336,"velocity":0.8031496062992126,"duration":0.4661458333333357},{"name":"G2","midi":43,"time":46.786458333333336,"velocity":0.8031496062992126,"duration":0.2356770833333357},{"name":"B2","midi":47,"time":47.024739583333336,"velocity":0.8031496062992126,"duration":0.2356770833333357},{"name":"D5","midi":74,"time":47.263020833333336,"velocity":0.8031496062992126,"duration":0.4661458333333357},{"name":"F#4","midi":66,"time":47.263020833333336,"velocity":0.8031496062992126,"duration":0.4661458333333357},{"name":"G2","midi":43,"time":47.263020833333336,"velocity":0.8031496062992126,"duration":0.2356770833333357},{"name":"F#2","midi":42,"time":47.501302083333336,"velocity":0.8031496062992126,"duration":0.2356770833333357},{"name":"C#5","midi":73,"time":47.739583333333336,"velocity":0.8031496062992126,"duration":0.4661458333333357},{"name":"G4","midi":67,"time":47.739583333333336,"velocity":0.8031496062992126,"duration":0.4661458333333357},{"name":"E2","midi":40,"time":47.739583333333336,"velocity":0.8031496062992126,"duration":0.2356770833333357},{"name":"F#2","midi":42,"time":47.977864583333336,"velocity":0.8031496062992126,"duration":0.2356770833333357},{"name":"B4","midi":71,"time":48.216145833333336,"velocity":0.8031496062992126,"duration":0.4661458333333357},{"name":"E4","midi":64,"time":48.216145833333336,"velocity":0.8031496062992126,"duration":0.4661458333333357},{"name":"G2","midi":43,"time":48.216145833333336,"velocity":0.8031496062992126,"duration":0.2356770833333357},{"name":"E2","midi":40,"time":48.454427083333336,"velocity":0.8031496062992126,"duration":0.2356770833333357},{"name":"A#4","midi":70,"time":48.692708333333336,"velocity":0.8031496062992126,"duration":0.2356770833333357},{"name":"C#4","midi":61,"time":48.692708333333336,"velocity":0.8031496062992126,"duration":0.22265625},{"name":"F#2","midi":42,"time":48.692708333333336,"velocity":0.8031496062992126,"duration":0.4661458333333357},{"name":"F#5","midi":78,"time":48.930989583333336,"velocity":0.8031496062992126,"duration":0.2356770833333357},{"name":"E5","midi":76,"time":49.169270833333336,"velocity":0.8031496062992126,"duration":0.2356770833333357},{"name":"F#3","midi":54,"time":49.169270833333336,"velocity":0.8031496062992126,"duration":0.4661458333333357},{"name":"D5","midi":74,"time":49.407552083333336,"velocity":0.8031496062992126,"duration":0.2356770833333357},{"name":"C#5","midi":73,"time":49.645833333333336,"velocity":0.8031496062992126,"duration":0.2356770833333357},{"name":"C#4","midi":61,"time":49.645833333333336,"velocity":0.8031496062992126,"duration":0.4661458333333357},{"name":"A#3","midi":58,"time":49.645833333333336,"velocity":0.8031496062992126,"duration":0.4661458333333357},{"name":"F#5","midi":78,"time":49.884114583333336,"velocity":0.8031496062992126,"duration":0.2356770833333357},{"name":"C#5","midi":73,"time":50.122395833333336,"velocity":0.8031496062992126,"duration":0.2356770833333357},{"name":"D4","midi":62,"time":50.122395833333336,"velocity":0.8031496062992126,"duration":0.4661458333333357},{"name":"B3","midi":59,"time":50.122395833333336,"velocity":0.8031496062992126,"duration":0.4661458333333357},{"name":"B4","midi":71,"time":50.360677083333336,"velocity":0.8031496062992126,"duration":0.2356770833333357},{"name":"A#4","midi":70,"time":50.598958333333336,"velocity":0.8031496062992126,"duration":0.2356770833333357},{"name":"E4","midi":64,"time":50.598958333333336,"velocity":0.8031496062992126,"duration":0.9427083333333357},{"name":"C#4","midi":61,"time":50.598958333333336,"velocity":0.8031496062992126,"duration":0.4661458333333357},{"name":"C#5","midi":73,"time":50.837239583333336,"velocity":0.8031496062992126,"duration":0.2356770833333357},{"name":"A#4","midi":70,"time":51.075520833333336,"velocity":0.8031496062992126,"duration":0.2356770833333357},{"name":"F#3","midi":54,"time":51.075520833333336,"velocity":0.8031496062992126,"duration":0.4661458333333357},{"name":"G#4","midi":68,"time":51.313802083333336,"velocity":0.8031496062992126,"duration":0.2356770833333357},{"name":"F#4","midi":66,"time":51.552083333333336,"velocity":0.8031496062992126,"duration":0.2356770833333357},{"name":"B3","midi":59,"time":51.552083333333336,"velocity":0.8031496062992126,"duration":1.4270833333333357},{"name":"G4","midi":67,"time":51.790364583333336,"velocity":0.8031496062992126,"duration":0.2356770833333357},{"name":"F#4","midi":66,"time":52.028645833333336,"velocity":0.8031496062992126,"duration":0.2356770833333357},{"name":"E4","midi":64,"time":52.266927083333336,"velocity":0.8031496062992126,"duration":0.2356770833333357},{"name":"D4","midi":62,"time":52.505208333333336,"velocity":0.8031496062992126,"duration":0.2356770833333357},{"name":"F#4","midi":66,"time":52.743489583333336,"velocity":0.8031496062992126,"duration":0.2356770833333357},{"name":"D4","midi":62,"time":52.981770833333336,"velocity":0.8031496062992126,"duration":0.2356770833333357},{"name":"B2","midi":47,"time":52.981770833333336,"velocity":0.8031496062992126,"duration":0.4661458333333357},{"name":"C#4","midi":61,"time":53.220052083333336,"velocity":0.8031496062992126,"duration":0.2356770833333357},{"name":"F#5","midi":78,"time":53.458333333333336,"velocity":0.8031496062992126,"duration":1.1888020833333357},{"name":"B3","midi":59,"time":53.458333333333336,"velocity":0.8031496062992126,"duration":0.2356770833333357},{"name":"C#3","midi":49,"time":53.458333333333336,"velocity":0.8031496062992126,"duration":0.4661458333333357},{"name":"F#4","midi":66,"time":53.696614583333336,"velocity":0.8031496062992126,"duration":0.2356770833333357},{"name":"B3","midi":59,"time":53.934895833333336,"velocity":0.8031496062992126,"duration":0.2356770833333357},{"name":"D3","midi":50,"time":53.934895833333336,"velocity":0.8031496062992126,"duration":0.4661458333333357},{"name":"A3","midi":57,"time":54.173177083333336,"velocity":0.8031496062992126,"duration":0.2356770833333357},{"name":"G3","midi":55,"time":54.411458333333336,"velocity":0.8031496062992126,"duration":1.19140625},{"name":"E3","midi":52,"time":54.411458333333336,"velocity":0.8031496062992126,"duration":1.19140625},{"name":"B5","midi":83,"time":54.649739583333336,"velocity":0.8031496062992126,"duration":0.2356770833333357},{"name":"G5","midi":79,"time":54.888020833333336,"velocity":0.8031496062992126,"duration":0.2356770833333357},{"name":"F#5","midi":78,"time":55.126302083333336,"velocity":0.8031496062992126,"duration":0.2356770833333357},{"name":"E5","midi":76,"time":55.364583333333336,"velocity":0.8031496062992126,"duration":0.2356770833333357},{"name":"G5","midi":79,"time":55.602864583333336,"velocity":0.8031496062992126,"duration":0.2356770833333357},{"name":"E5","midi":76,"time":55.841145833333336,"velocity":0.8031496062992126,"duration":0.2356770833333357},{"name":"F#3","midi":54,"time":55.841145833333336,"velocity":0.8031496062992126,"duration":0.4661458333333357},{"name":"D5","midi":74,"time":56.079427083333336,"velocity":0.8031496062992126,"duration":0.2356770833333357},{"name":"C#5","midi":73,"time":56.317708333333336,"velocity":0.8031496062992126,"duration":0.2356770833333357},{"name":"G4","midi":67,"time":56.317708333333336,"velocity":0.8031496062992126,"duration":1.1888020833333357},{"name":"E3","midi":52,"time":56.317708333333336,"velocity":0.8031496062992126,"duration":0.4661458333333357},{"name":"G5","midi":79,"time":56.555989583333336,"velocity":0.8031496062992126,"duration":0.2356770833333357},{"name":"C#5","midi":73,"time":56.794270833333336,"velocity":0.8031496062992126,"duration":0.2356770833333357},{"name":"D3","midi":50,"time":56.794270833333336,"velocity":0.8031496062992126,"duration":0.4661458333333357},{"name":"B4","midi":71,"time":57.032552083333336,"velocity":0.8031496062992126,"duration":0.2356770833333357},{"name":"A4","midi":69,"time":57.270833333333336,"velocity":0.8031496062992126,"duration":1.19140625},{"name":"C#3","midi":49,"time":57.270833333333336,"velocity":0.8031496062992126,"duration":1.19140625},{"name":"G4","midi":67,"time":57.509114583333336,"velocity":0.8031496062992126,"duration":0.2356770833333357},{"name":"E4","midi":64,"time":57.747395833333336,"velocity":0.8031496062992126,"duration":0.2356770833333357},{"name":"D4","midi":62,"time":57.985677083333336,"velocity":0.8031496062992126,"duration":0.2356770833333357},{"name":"C#4","midi":61,"time":58.223958333333336,"velocity":0.8031496062992126,"duration":0.2356770833333357},{"name":"E4","midi":64,"time":58.462239583333336,"velocity":0.8031496062992126,"duration":0.2356770833333357},{"name":"C#4","midi":61,"time":58.700520833333336,"velocity":0.8031496062992126,"duration":0.2356770833333357},{"name":"A2","midi":45,"time":58.700520833333336,"velocity":0.8031496062992126,"duration":0.4661458333333357},{"name":"B3","midi":59,"time":58.938802083333336,"velocity":0.8031496062992126,"duration":0.2356770833333357},{"name":"E5","midi":76,"time":59.177083333333336,"velocity":0.8031496062992126,"duration":1.1888020833333357},{"name":"A3","midi":57,"time":59.177083333333336,"velocity":0.8031496062992126,"duration":0.2356770833333357},{"name":"B2","midi":47,"time":59.177083333333336,"velocity":0.8031496062992126,"duration":0.4661458333333357},{"name":"E4","midi":64,"time":59.415364583333336,"velocity":0.8031496062992126,"duration":0.2356770833333357},{"name":"A3","midi":57,"time":59.653645833333336,"velocity":0.8031496062992126,"duration":0.2356770833333357},{"name":"C#3","midi":49,"time":59.653645833333336,"velocity":0.8031496062992126,"duration":0.4661458333333357},{"name":"G3","midi":55,"time":59.891927083333336,"velocity":0.8031496062992126,"duration":0.2356770833333357},{"name":"F#3","midi":54,"time":60.130208333333336,"velocity":0.8031496062992126,"duration":1.19140625},{"name":"D3","midi":50,"time":60.130208333333336,"velocity":0.8031496062992126,"duration":1.19140625},{"name":"A5","midi":81,"time":60.368489583333336,"velocity":0.8031496062992126,"duration":0.2356770833333357},{"name":"F#5","midi":78,"time":60.606770833333336,"velocity":0.8031496062992126,"duration":0.2356770833333357},{"name":"E5","midi":76,"time":60.845052083333336,"velocity":0.8031496062992126,"duration":0.2356770833333357},{"name":"D5","midi":74,"time":61.083333333333336,"velocity":0.8031496062992126,"duration":0.2356770833333357},{"name":"F#5","midi":78,"time":61.321614583333336,"velocity":0.8031496062992126,"duration":0.2356770833333357},{"name":"D5","midi":74,"time":61.559895833333336,"velocity":0.8031496062992126,"duration":0.2356770833333357},{"name":"E3","midi":52,"time":61.559895833333336,"velocity":0.8031496062992126,"duration":0.4661458333333357},{"name":"C#5","midi":73,"time":61.798177083333336,"velocity":0.8031496062992126,"duration":0.2356770833333357},{"name":"B4","midi":71,"time":62.036458333333336,"velocity":0.8031496062992126,"duration":0.2356770833333357},{"name":"F#4","midi":66,"time":62.036458333333336,"velocity":0.8031496062992126,"duration":1.4270833333333357},{"name":"D3","midi":50,"time":62.036458333333336,"velocity":0.8031496062992126,"duration":0.4661458333333357},{"name":"F#5","midi":78,"time":62.274739583333336,"velocity":0.8031496062992126,"duration":0.2356770833333357},{"name":"B4","midi":71,"time":62.513020833333336,"velocity":0.8031496062992126,"duration":0.2356770833333357},{"name":"C#3","midi":49,"time":62.513020833333336,"velocity":0.8031496062992126,"duration":0.4661458333333357},{"name":"A4","midi":69,"time":62.751302083333336,"velocity":0.8031496062992126,"duration":0.2356770833333357},{"name":"G4","midi":67,"time":62.989583333333336,"velocity":0.8031496062992126,"duration":4.4674479166666785},{"name":"B2","midi":47,"time":62.989583333333336,"velocity":0.8031496062992126,"duration":0.2356770833333357},{"name":"B3","midi":59,"time":63.227864583333336,"velocity":0.8031496062992126,"duration":0.2356770833333357},{"name":"E4","midi":64,"time":63.466145833333336,"velocity":0.8031496062992126,"duration":0.2356770833333357},{"name":"G3","midi":55,"time":63.466145833333336,"velocity":0.8031496062992126,"duration":0.2356770833333357},{"name":"D4","midi":62,"time":63.704427083333336,"velocity":0.8031496062992126,"duration":0.2356770833333357},{"name":"F#3","midi":54,"time":63.704427083333336,"velocity":0.8031496062992126,"duration":0.2356770833333357},{"name":"C#4","midi":61,"time":63.942708333333336,"velocity":0.8031496062992126,"duration":0.2356770833333357},{"name":"E3","midi":52,"time":63.942708333333336,"velocity":0.8031496062992126,"duration":0.2356770833333357},{"name":"E4","midi":64,"time":64.18098958333334,"velocity":0.8031496062992126,"duration":0.2356770833333286},{"name":"G3","midi":55,"time":64.18098958333334,"velocity":0.8031496062992126,"duration":0.2356770833333286},{"name":"C#4","midi":61,"time":64.41927083333334,"velocity":0.8031496062992126,"duration":0.2356770833333286},{"name":"E3","midi":52,"time":64.41927083333334,"velocity":0.8031496062992126,"duration":0.2356770833333286},{"name":"B3","midi":59,"time":64.65755208333334,"velocity":0.8031496062992126,"duration":0.2356770833333286},{"name":"D3","midi":50,"time":64.65755208333334,"velocity":0.8031496062992126,"duration":0.2356770833333286},{"name":"A3","midi":57,"time":64.89583333333334,"velocity":0.8031496062992126,"duration":0.4661458333333286},{"name":"C#3","midi":49,"time":64.89583333333334,"velocity":0.8031496062992126,"duration":0.2356770833333286},{"name":"G3","midi":55,"time":65.13411458333334,"velocity":0.8031496062992126,"duration":0.2356770833333286},{"name":"B3","midi":59,"time":65.37239583333334,"velocity":0.8031496062992126,"duration":0.4661458333333286},{"name":"C#3","midi":49,"time":65.37239583333334,"velocity":0.8031496062992126,"duration":0.2356770833333286},{"name":"B2","midi":47,"time":65.61067708333334,"velocity":0.8031496062992126,"duration":0.2356770833333286},{"name":"C#4","midi":61,"time":65.84895833333334,"velocity":0.8031496062992126,"duration":0.4661458333333286},{"name":"A2","midi":45,"time":65.84895833333334,"velocity":0.8031496062992126,"duration":0.2356770833333286},{"name":"E3","midi":52,"time":66.08723958333334,"velocity":0.8031496062992126,"duration":0.2356770833333286},{"name":"A3","midi":57,"time":66.32552083333334,"velocity":0.8031496062992126,"duration":0.2356770833333286},{"name":"C#3","midi":49,"time":66.32552083333334,"velocity":0.8031496062992126,"duration":0.2356770833333286},{"name":"B3","midi":59,"time":66.56380208333334,"velocity":0.8031496062992126,"duration":0.2356770833333286},{"name":"B2","midi":47,"time":66.56380208333334,"velocity":0.8031496062992126,"duration":0.2356770833333286},{"name":"C#4","midi":61,"time":66.80208333333334,"velocity":0.8031496062992126,"duration":0.4661458333333286},{"name":"A2","midi":45,"time":66.80208333333334,"velocity":0.8031496062992126,"duration":0.2356770833333286},{"name":"C#3","midi":49,"time":67.04036458333334,"velocity":0.8031496062992126,"duration":0.2356770833333286},{"name":"E4","midi":64,"time":67.27864583333334,"velocity":0.8031496062992126,"duration":0.4661458333333428},{"name":"A2","midi":45,"time":67.27864583333334,"velocity":0.8031496062992126,"duration":0.2356770833333428},{"name":"G2","midi":43,"time":67.51692708333336,"velocity":0.8031496062992126,"duration":0.2356770833333286},{"name":"A3","midi":57,"time":67.75520833333336,"velocity":0.8031496062992126,"duration":0.4661458333333286},{"name":"F#2","midi":42,"time":67.75520833333336,"velocity":0.8031496062992126,"duration":0.2356770833333286},{"name":"C#3","midi":49,"time":67.99348958333336,"velocity":0.8031496062992126,"duration":0.2356770833333286},{"name":"C#4","midi":61,"time":68.23177083333336,"velocity":0.8031496062992126,"duration":0.4661458333333286},{"name":"F#2","midi":42,"time":68.23177083333336,"velocity":0.8031496062992126,"duration":0.2356770833333286},{"name":"E2","midi":40,"time":68.47005208333336,"velocity":0.8031496062992126,"duration":0.2356770833333286},{"name":"F#4","midi":66,"time":68.70833333333336,"velocity":0.8031496062992126,"duration":0.4661458333333286},{"name":"D4","midi":62,"time":68.70833333333336,"velocity":0.8031496062992126,"duration":0.4661458333333286},{"name":"D2","midi":38,"time":68.70833333333336,"velocity":0.8031496062992126,"duration":0.6953125},{"name":"A4","midi":69,"time":69.18489583333336,"velocity":0.8031496062992126,"duration":0.4661458333333286},{"name":"D3","midi":50,"time":69.18489583333336,"velocity":0.8031496062992126,"duration":0.2356770833333286},{"name":"E3","midi":52,"time":69.42317708333336,"velocity":0.8031496062992126,"duration":0.2356770833333286},{"name":"D5","midi":74,"time":69.66145833333336,"velocity":0.8031496062992126,"duration":0.4661458333333286},{"name":"F#3","midi":54,"time":69.66145833333336,"velocity":0.8031496062992126,"duration":0.2356770833333286},{"name":"D3","midi":50,"time":69.89973958333336,"velocity":0.8031496062992126,"duration":0.2356770833333286},{"name":"E5","midi":76,"time":70.13802083333336,"velocity":0.8031496062992126,"duration":0.4661458333333286},{"name":"F#3","midi":54,"time":70.13802083333336,"velocity":0.8031496062992126,"duration":0.2356770833333286},{"name":"G3","midi":55,"time":70.37630208333336,"velocity":0.8031496062992126,"duration":0.2356770833333286},{"name":"F#5","midi":78,"time":70.61458333333336,"velocity":0.8031496062992126,"duration":1.4270833333333286},{"name":"A3","midi":57,"time":70.61458333333336,"velocity":0.8031496062992126,"duration":0.2356770833333286},{"name":"D3","midi":50,"time":70.85286458333336,"velocity":0.8031496062992126,"duration":0.2356770833333286},{"name":"A3","midi":57,"time":71.09114583333336,"velocity":0.8031496062992126,"duration":0.2356770833333286},{"name":"B3","midi":59,"time":71.32942708333336,"velocity":0.8031496062992126,"duration":0.2356770833333286},{"name":"C#4","midi":61,"time":71.56770833333336,"velocity":0.8031496062992126,"duration":0.2356770833333286},{"name":"A3","midi":57,"time":71.80598958333336,"velocity":0.8031496062992126,"duration":0.2356770833333286},{"name":"E5","midi":76,"time":72.04427083333336,"velocity":0.8031496062992126,"duration":0.4661458333333286},{"name":"C#4","midi":61,"time":72.04427083333336,"velocity":0.8031496062992126,"duration":0.2356770833333286},{"name":"D4","midi":62,"time":72.28255208333336,"velocity":0.8031496062992126,"duration":0.2356770833333286},{"name":"G5","midi":79,"time":72.52083333333336,"velocity":0.8031496062992126,"duration":0.4661458333333286},{"name":"E4","midi":64,"time":72.52083333333336,"velocity":0.8031496062992126,"duration":0.2356770833333286},{"name":"A3","midi":57,"time":72.75911458333336,"velocity":0.8031496062992126,"duration":0.2356770833333286},{"name":"F#5","midi":78,"time":72.99739583333336,"velocity":0.8031496062992126,"duration":0.4661458333333286},{"name":"E4","midi":64,"time":72.99739583333336,"velocity":0.8031496062992126,"duration":0.2356770833333286},{"name":"F#4","midi":66,"time":73.23567708333336,"velocity":0.8031496062992126,"duration":0.2356770833333286},{"name":"E5","midi":76,"time":73.47395833333336,"velocity":0.8031496062992126,"duration":0.4661458333333286},{"name":"G4","midi":67,"time":73.47395833333336,"velocity":0.8031496062992126,"duration":0.2356770833333286},{"name":"A4","midi":69,"time":73.71223958333336,"velocity":0.8031496062992126,"duration":0.2356770833333286},{"name":"D5","midi":74,"time":73.95052083333336,"velocity":0.8031496062992126,"duration":0.4661458333333286},{"name":"B4","midi":71,"time":73.95052083333336,"velocity":0.8031496062992126,"duration":0.2356770833333286},{"name":"G4","midi":67,"time":74.18880208333336,"velocity":0.8031496062992126,"duration":0.2356770833333286},{"name":"C#5","midi":73,"time":74.42708333333336,"velocity":0.8031496062992126,"duration":0.2356770833333286},{"name":"A4","midi":69,"time":74.42708333333336,"velocity":0.8031496062992126,"duration":2.8567708333333286},{"name":"E5","midi":76,"time":74.66536458333336,"velocity":0.8031496062992126,"duration":0.2356770833333286},{"name":"A5","midi":81,"time":74.90364583333336,"velocity":0.8031496062992126,"duration":0.2356770833333286},{"name":"A2","midi":45,"time":74.90364583333336,"velocity":0.8031496062992126,"duration":0.4661458333333286},{"name":"G5","midi":79,"time":75.14192708333336,"velocity":0.8031496062992126,"duration":0.2356770833333286},{"name":"F#5","midi":78,"time":75.38020833333336,"velocity":0.8031496062992126,"duration":0.2356770833333286},{"name":"D3","midi":50,"time":75.38020833333336,"velocity":0.8031496062992126,"duration":0.4661458333333286},{"name":"A5","midi":81,"time":75.61848958333336,"velocity":0.8031496062992126,"duration":0.2356770833333286},{"name":"F#5","midi":78,"time":75.85677083333336,"velocity":0.8031496062992126,"duration":0.2356770833333286},{"name":"E3","midi":52,"time":75.85677083333336,"velocity":0.8031496062992126,"duration":0.4661458333333286},{"name":"E5","midi":76,"time":76.09505208333336,"velocity":0.8031496062992126,"duration":0.2356770833333286},{"name":"D5","midi":74,"time":76.33333333333336,"velocity":0.8031496062992126,"duration":0.2356770833333286},{"name":"F#3","midi":54,"time":76.33333333333336,"velocity":0.8031496062992126,"duration":1.4270833333333286},{"name":"A5","midi":81,"time":76.57161458333336,"velocity":0.8031496062992126,"duration":0.2356770833333286},{"name":"D5","midi":74,"time":76.80989583333336,"velocity":0.8031496062992126,"duration":0.2356770833333286},{"name":"C#5","midi":73,"time":77.04817708333336,"velocity":0.8031496062992126,"duration":0.2356770833333286},{"name":"B4","midi":71,"time":77.28645833333336,"velocity":0.8031496062992126,"duration":0.2356770833333286},{"name":"G4","midi":67,"time":77.28645833333336,"velocity":0.8031496062992126,"duration":3.0950520833333286},{"name":"D5","midi":74,"time":77.52473958333336,"velocity":0.8031496062992126,"duration":0.2356770833333286},{"name":"G5","midi":79,"time":77.76302083333336,"velocity":0.8031496062992126,"duration":0.2356770833333286},{"name":"E3","midi":52,"time":77.76302083333336,"velocity":0.8031496062992126,"duration":0.4661458333333286},{"name":"F#5","midi":78,"time":78.00130208333336,"velocity":0.8031496062992126,"duration":0.2356770833333286},{"name":"E5","midi":76,"time":78.23958333333336,"velocity":0.8031496062992126,"duration":0.2356770833333286},{"name":"G3","midi":55,"time":78.23958333333336,"velocity":0.8031496062992126,"duration":0.4661458333333286},{"name":"G5","midi":79,"time":78.47786458333336,"velocity":0.8031496062992126,"duration":0.2356770833333286},{"name":"E5","midi":76,"time":78.71614583333336,"velocity":0.8031496062992126,"duration":0.2356770833333286},{"name":"F#3","midi":54,"time":78.71614583333336,"velocity":0.8031496062992126,"duration":0.4661458333333286},{"name":"D5","midi":74,"time":78.95442708333336,"velocity":0.8031496062992126,"duration":0.2356770833333286},{"name":"C#5","midi":73,"time":79.19270833333336,"velocity":0.8031496062992126,"duration":0.2356770833333286},{"name":"E3","midi":52,"time":79.19270833333336,"velocity":0.8031496062992126,"duration":0.4661458333333286},{"name":"G5","midi":79,"time":79.43098958333336,"velocity":0.8031496062992126,"duration":0.2356770833333286},{"name":"C#5","midi":73,"time":79.66927083333336,"velocity":0.8031496062992126,"duration":0.2356770833333286},{"name":"D3","midi":50,"time":79.66927083333336,"velocity":0.8031496062992126,"duration":0.4661458333333286},{"name":"B4","midi":71,"time":79.90755208333336,"velocity":0.8031496062992126,"duration":0.2356770833333286},{"name":"A4","midi":69,"time":80.14583333333336,"velocity":0.8031496062992126,"duration":2.1419270833333286},{"name":"C#3","midi":49,"time":80.14583333333336,"velocity":0.8031496062992126,"duration":0.4661458333333286},{"name":"G4","midi":67,"time":80.38411458333336,"velocity":0.8031496062992126,"duration":0.2356770833333286},{"name":"F#4","midi":66,"time":80.62239583333336,"velocity":0.8031496062992126,"duration":0.2356770833333286},{"name":"F#2","midi":42,"time":80.62239583333336,"velocity":0.8031496062992126,"duration":0.4661458333333286},{"name":"E4","midi":64,"time":80.86067708333336,"velocity":0.8031496062992126,"duration":0.2356770833333286},{"name":"D4","midi":62,"time":81.09895833333336,"velocity":0.8031496062992126,"duration":0.2356770833333286},{"name":"B2","midi":47,"time":81.09895833333336,"velocity":0.8031496062992126,"duration":0.4661458333333286},{"name":"F#4","midi":66,"time":81.33723958333336,"velocity":0.8031496062992126,"duration":0.2356770833333286},{"name":"D4","midi":62,"time":81.57552083333336,"velocity":0.8031496062992126,"duration":0.2356770833333286},{"name":"C#3","midi":49,"time":81.57552083333336,"velocity":0.8031496062992126,"duration":0.4661458333333286},{"name":"C#4","midi":61,"time":81.81380208333336,"velocity":0.8031496062992126,"duration":0.2356770833333286},{"name":"B3","midi":59,"time":82.05208333333336,"velocity":0.8031496062992126,"duration":1.19140625},{"name":"D3","midi":50,"time":82.05208333333336,"velocity":0.8031496062992126,"duration":1.4270833333333286},{"name":"A4","midi":69,"time":82.29036458333336,"velocity":0.8031496062992126,"duration":0.2356770833333286},{"name":"G4","midi":67,"time":82.52864583333336,"velocity":0.8031496062992126,"duration":0.2356770833333286},{"name":"F#4","midi":66,"time":82.76692708333336,"velocity":0.8031496062992126,"duration":0.2356770833333286},{"name":"G4","midi":67,"time":83.00520833333336,"velocity":0.8031496062992126,"duration":0.2864583333333286},{"name":"E4","midi":64,"time":83.24348958333336,"velocity":0.8031496062992126,"duration":0.2356770833333286},{"name":"A#4","midi":70,"time":83.48177083333336,"velocity":0.8031496062992126,"duration":0.2356770833333286},{"name":"C#3","midi":49,"time":83.48177083333336,"velocity":0.8031496062992126,"duration":0.4661458333333286},{"name":"B4","midi":71,"time":83.72005208333336,"velocity":0.8031496062992126,"duration":0.2356770833333286},{"name":"C#5","midi":73,"time":83.95833333333336,"velocity":0.8031496062992126,"duration":0.2356770833333286},{"name":"E3","midi":52,"time":83.95833333333336,"velocity":0.8031496062992126,"duration":0.4661458333333286},{"name":"F#4","midi":66,"time":84.19661458333336,"velocity":0.8031496062992126,"duration":0.2356770833333286},{"name":"C#5","midi":73,"time":84.43489583333336,"velocity":0.8031496062992126,"duration":0.2356770833333286},{"name":"D3","midi":50,"time":84.43489583333336,"velocity":0.8031496062992126,"duration":0.4661458333333286},{"name":"D5","midi":74,"time":84.67317708333336,"velocity":0.8031496062992126,"duration":0.2356770833333286},{"name":"E5","midi":76,"time":84.91145833333336,"velocity":0.8031496062992126,"duration":0.2356770833333286},{"name":"C#3","midi":49,"time":84.91145833333336,"velocity":0.8031496062992126,"duration":0.4661458333333286},{"name":"F#5","midi":78,"time":85.14973958333336,"velocity":0.8031496062992126,"duration":0.2356770833333286},{"name":"G5","midi":79,"time":85.38802083333336,"velocity":0.8031496062992126,"duration":0.2356770833333286},{"name":"B2","midi":47,"time":85.38802083333336,"velocity":0.8031496062992126,"duration":0.4661458333333286},{"name":"E5","midi":76,"time":85.62630208333336,"velocity":0.8031496062992126,"duration":0.2356770833333286},{"name":"F#5","midi":78,"time":85.86458333333336,"velocity":0.8031496062992126,"duration":0.2356770833333286},{"name":"A#2","midi":46,"time":85.86458333333336,"velocity":0.8031496062992126,"duration":0.9505208333333286},{"name":"G5","midi":79,"time":86.10286458333336,"velocity":0.8031496062992126,"duration":0.2356770833333286},{"name":"F#5","midi":78,"time":86.34114583333336,"velocity":0.8031496062992126,"duration":0.2356770833333286},{"name":"F#3","midi":54,"time":86.34114583333336,"velocity":0.8031496062992126,"duration":0.4661458333333286},{"name":"E5","midi":76,"time":86.57942708333336,"velocity":0.8031496062992126,"duration":0.2356770833333286},{"name":"D5","midi":74,"time":86.81770833333336,"velocity":0.8031496062992126,"duration":0.2356770833333286},{"name":"B3","midi":59,"time":86.81770833333336,"velocity":0.8031496062992126,"duration":0.4661458333333286},{"name":"B2","midi":47,"time":86.81770833333336,"velocity":0.8031496062992126,"duration":1.19140625},{"name":"F#5","midi":78,"time":87.05598958333336,"velocity":0.8031496062992126,"duration":0.2356770833333286},{"name":"D5","midi":74,"time":87.29427083333336,"velocity":0.8031496062992126,"duration":0.2356770833333286},{"name":"C#4","midi":61,"time":87.29427083333336,"velocity":0.8031496062992126,"duration":0.4661458333333286},{"name":"C#5","midi":73,"time":87.53255208333336,"velocity":0.8031496062992126,"duration":0.2356770833333286},{"name":"B4","midi":71,"time":87.77083333333336,"velocity":0.8031496062992126,"duration":0.2356770833333286},{"name":"D4","midi":62,"time":87.77083333333336,"velocity":0.8031496062992126,"duration":1.4270833333333286},{"name":"F5","midi":77,"time":88.00911458333336,"velocity":0.8031496062992126,"duration":0.2356770833333286},{"name":"B4","midi":71,"time":88.24739583333336,"velocity":0.8031496062992126,"duration":0.2356770833333286},{"name":"D3","midi":50,"time":88.24739583333336,"velocity":0.8031496062992126,"duration":0.4661458333333286},{"name":"A4","midi":69,"time":88.48567708333336,"velocity":0.8031496062992126,"duration":0.2356770833333286},{"name":"G#4","midi":68,"time":88.72395833333336,"velocity":0.8031496062992126,"duration":0.2356770833333286},{"name":"E3","midi":52,"time":88.72395833333336,"velocity":0.8031496062992126,"duration":0.4661458333333286},{"name":"F#4","midi":66,"time":88.96223958333336,"velocity":0.8031496062992126,"duration":0.2356770833333286},{"name":"G#4","midi":68,"time":89.20052083333336,"velocity":0.8031496062992126,"duration":0.2356770833333286},{"name":"B3","midi":59,"time":89.20052083333336,"velocity":0.8031496062992126,"duration":0.4661458333333286},{"name":"D3","midi":50,"time":89.20052083333336,"velocity":0.8031496062992126,"duration":0.4661458333333286},{"name":"A4","midi":69,"time":89.43880208333336,"velocity":0.8031496062992126,"duration":0.2356770833333286},{"name":"B4","midi":71,"time":89.67708333333336,"velocity":0.8031496062992126,"duration":0.2356770833333286},{"name":"D4","midi":62,"time":89.67708333333336,"velocity":0.8031496062992126,"duration":0.4661458333333286},{"name":"F3","midi":53,"time":89.67708333333336,"velocity":0.8031496062992126,"duration":0.4661458333333286},{"name":"G#4","midi":68,"time":89.91536458333336,"velocity":0.8031496062992126,"duration":0.2356770833333286},{"name":"B4","midi":71,"time":90.15364583333336,"velocity":0.8031496062992126,"duration":0.2356770833333286},{"name":"C4","midi":60,"time":90.15364583333336,"velocity":0.8031496062992126,"duration":0.4661458333333286},{"name":"E3","midi":52,"time":90.15364583333336,"velocity":0.8031496062992126,"duration":0.4661458333333286},{"name":"C5","midi":72,"time":90.39192708333336,"velocity":0.8031496062992126,"duration":0.2356770833333286},{"name":"D5","midi":74,"time":90.63020833333336,"velocity":0.8031496062992126,"duration":0.2356770833333286},{"name":"B3","midi":59,"time":90.63020833333336,"velocity":0.8031496062992126,"duration":0.4661458333333286},{"name":"D3","midi":50,"time":90.63020833333336,"velocity":0.8031496062992126,"duration":0.4661458333333286},{"name":"G#4","midi":68,"time":90.86848958333336,"velocity":0.8031496062992126,"duration":0.2356770833333286},{"name":"D5","midi":74,"time":91.10677083333336,"velocity":0.8031496062992126,"duration":0.2356770833333286},{"name":"A3","midi":57,"time":91.10677083333336,"velocity":0.8031496062992126,"duration":0.4661458333333286},{"name":"C3","midi":48,"time":91.10677083333336,"velocity":0.8031496062992126,"duration":0.4661458333333286},{"name":"E5","midi":76,"time":91.34505208333336,"velocity":0.8031496062992126,"duration":0.2356770833333286},{"name":"F5","midi":77,"time":91.58333333333336,"velocity":0.8031496062992126,"duration":0.2356770833333286},{"name":"G#3","midi":56,"time":91.58333333333336,"velocity":0.8031496062992126,"duration":0.4661458333333286},{"name":"B2","midi":47,"time":91.58333333333336,"velocity":0.8031496062992126,"duration":0.4661458333333286},{"name":"B5","midi":83,"time":91.82161458333336,"velocity":0.8031496062992126,"duration":0.2356770833333286},{"name":"E5","midi":76,"time":92.05989583333336,"velocity":0.8031496062992126,"duration":0.2356770833333286},{"name":"E3","midi":52,"time":92.05989583333336,"velocity":0.8031496062992126,"duration":0.4661458333333286},{"name":"G#2","midi":44,"time":92.05989583333336,"velocity":0.8031496062992126,"duration":0.4661458333333286},{"name":"D5","midi":74,"time":92.29817708333336,"velocity":0.8031496062992126,"duration":0.2356770833333286},{"name":"C5","midi":72,"time":92.53645833333336,"velocity":0.8031496062992126,"duration":0.2356770833333286},{"name":"A3","midi":57,"time":92.53645833333336,"velocity":0.8031496062992126,"duration":0.4661458333333286},{"name":"A2","midi":45,"time":92.53645833333336,"velocity":0.8031496062992126,"duration":1.19140625},{"name":"E5","midi":76,"time":92.77473958333336,"velocity":0.8031496062992126,"duration":0.2356770833333286},{"name":"C5","midi":72,"time":93.01302083333336,"velocity":0.8031496062992126,"duration":0.2356770833333286},{"name":"B3","midi":59,"time":93.01302083333336,"velocity":0.8031496062992126,"duration":0.4661458333333286},{"name":"B4","midi":71,"time":93.25130208333336,"velocity":0.8031496062992126,"duration":0.2356770833333286},{"name":"A4","midi":69,"time":93.48958333333336,"velocity":0.8031496062992126,"duration":0.2356770833333286},{"name":"C4","midi":60,"time":93.48958333333336,"velocity":0.8031496062992126,"duration":1.4270833333333286},{"name":"E5","midi":76,"time":93.72786458333336,"velocity":0.8031496062992126,"duration":0.2356770833333286},{"name":"A4","midi":69,"time":93.96614583333336,"velocity":0.8031496062992126,"duration":0.2356770833333286},{"name":"C3","midi":48,"time":93.96614583333336,"velocity":0.8031496062992126,"duration":0.4661458333333286},{"name":"G4","midi":67,"time":94.20442708333336,"velocity":0.8031496062992126,"duration":0.2356770833333286},{"name":"F#4","midi":66,"time":94.44270833333336,"velocity":0.8031496062992126,"duration":0.2356770833333286},{"name":"D3","midi":50,"time":94.44270833333336,"velocity":0.8031496062992126,"duration":0.4661458333333286},{"name":"E4","midi":64,"time":94.68098958333336,"velocity":0.8031496062992126,"duration":0.2356770833333286},{"name":"F#4","midi":66,"time":94.91927083333336,"velocity":0.8031496062992126,"duration":0.2356770833333286},{"name":"A3","midi":57,"time":94.91927083333336,"velocity":0.8031496062992126,"duration":0.4661458333333286},{"name":"C3","midi":48,"time":94.91927083333336,"velocity":0.8031496062992126,"duration":0.4661458333333286},{"name":"G4","midi":67,"time":95.15755208333336,"velocity":0.8031496062992126,"duration":0.2356770833333286},{"name":"A4","midi":69,"time":95.39583333333336,"velocity":0.8031496062992126,"duration":0.2356770833333286},{"name":"C4","midi":60,"time":95.39583333333336,"velocity":0.8031496062992126,"duration":0.4661458333333286},{"name":"E3","midi":52,"time":95.39583333333336,"velocity":0.8031496062992126,"duration":0.4661458333333286},{"name":"F#4","midi":66,"time":95.63411458333336,"velocity":0.8031496062992126,"duration":0.2356770833333286},{"name":"A4","midi":69,"time":95.87239583333336,"velocity":0.8031496062992126,"duration":0.2356770833333286},{"name":"B3","midi":59,"time":95.87239583333336,"velocity":0.8031496062992126,"duration":0.4661458333333286},{"name":"D3","midi":50,"time":95.87239583333336,"velocity":0.8031496062992126,"duration":0.4661458333333286},{"name":"B4","midi":71,"time":96.11067708333336,"velocity":0.8031496062992126,"duration":0.2356770833333286},{"name":"C5","midi":72,"time":96.34895833333336,"velocity":0.8031496062992126,"duration":0.2356770833333286},{"name":"A3","midi":57,"time":96.34895833333336,"velocity":0.8031496062992126,"duration":0.4661458333333286},{"name":"C3","midi":48,"time":96.34895833333336,"velocity":0.8031496062992126,"duration":0.4661458333333286},{"name":"F#4","midi":66,"time":96.58723958333336,"velocity":0.8031496062992126,"duration":0.2356770833333286},{"name":"C5","midi":72,"time":96.82552083333336,"velocity":0.8031496062992126,"duration":0.2356770833333286},{"name":"G3","midi":55,"time":96.82552083333336,"velocity":0.8031496062992126,"duration":0.4661458333333286},{"name":"A2","midi":45,"time":96.82552083333336,"velocity":0.8031496062992126,"duration":0.4661458333333286},{"name":"D5","midi":74,"time":97.06380208333336,"velocity":0.8031496062992126,"duration":0.2356770833333286},{"name":"D#5","midi":75,"time":97.30208333333336,"velocity":0.8031496062992126,"duration":0.2356770833333286},{"name":"F#3","midi":54,"time":97.30208333333336,"velocity":0.8031496062992126,"duration":1.19140625},{"name":"D3","midi":50,"time":97.30208333333336,"velocity":0.8031496062992126,"duration":0.4661458333333286},{"name":"A5","midi":81,"time":97.54036458333336,"velocity":0.8031496062992126,"duration":0.2356770833333286},{"name":"D#5","midi":75,"time":97.77864583333336,"velocity":0.8031496062992126,"duration":0.2356770833333286},{"name":"A2","midi":45,"time":97.77864583333336,"velocity":0.8031496062992126,"duration":0.4661458333333286},{"name":"D5","midi":74,"time":98.01692708333336,"velocity":0.8031496062992126,"duration":0.2356770833333286},{"name":"C5","midi":72,"time":98.25520833333336,"velocity":0.8031496062992126,"duration":0.2356770833333286},{"name":"D3","midi":50,"time":98.25520833333336,"velocity":0.8031496062992126,"duration":0.4661458333333286},{"name":"D#5","midi":75,"time":98.49348958333336,"velocity":0.8031496062992126,"duration":0.2356770833333286},{"name":"C5","midi":72,"time":98.73177083333336,"velocity":0.8031496062992126,"duration":0.2356770833333286},{"name":"G3","midi":55,"time":98.73177083333336,"velocity":0.8031496062992126,"duration":0.4661458333333286},{"name":"E3","midi":52,"time":98.73177083333336,"velocity":0.8031496062992126,"duration":0.4661458333333286},{"name":"A#4","midi":70,"time":98.97005208333336,"velocity":0.8031496062992126,"duration":0.2356770833333286},{"name":"A4","midi":69,"time":99.20833333333336,"velocity":0.8031496062992126,"duration":0.2356770833333286},{"name":"A3","midi":57,"time":99.20833333333336,"velocity":0.8031496062992126,"duration":1.328125},{"name":"F#3","midi":54,"time":99.20833333333336,"velocity":0.8031496062992126,"duration":1.328125},{"name":"C5","midi":72,"time":99.44661458333336,"velocity":0.8031496062992126,"duration":0.2356770833333286},{"name":"A4","midi":69,"time":99.68489583333336,"velocity":0.8031496062992126,"duration":0.2356770833333286},{"name":"G4","midi":67,"time":99.92317708333336,"velocity":0.8031496062992126,"duration":0.2356770833333286},{"name":"F#4","midi":66,"time":100.16145833333336,"velocity":0.8031496062992126,"duration":0.2356770833333286},{"name":"E4","midi":64,"time":100.39973958333336,"velocity":0.8031496062992126,"duration":0.2356770833333286},{"name":"D#4","midi":63,"time":100.63802083333336,"velocity":0.8031496062992126,"duration":0.2356770833333286},{"name":"G3","midi":55,"time":100.63802083333336,"velocity":0.8031496062992126,"duration":0.4661458333333286},{"name":"E3","midi":52,"time":100.63802083333336,"velocity":0.8031496062992126,"duration":0.4661458333333286},{"name":"E4","midi":64,"time":100.87630208333336,"velocity":0.8031496062992126,"duration":0.2356770833333286},{"name":"F#4","midi":66,"time":101.11458333333336,"velocity":0.8031496062992126,"duration":0.2356770833333286},{"name":"C4","midi":60,"time":101.11458333333336,"velocity":0.8031496062992126,"duration":0.4661458333333286},{"name":"A3","midi":57,"time":101.11458333333336,"velocity":0.8031496062992126,"duration":0.4661458333333286},{"name":"D#4","midi":63,"time":101.35286458333336,"velocity":0.8031496062992126,"duration":0.2356770833333286},{"name":"F#4","midi":66,"time":101.59114583333336,"velocity":0.8031496062992126,"duration":0.2356770833333286},{"name":"B3","midi":59,"time":101.59114583333336,"velocity":0.8031496062992126,"duration":0.4661458333333286},{"name":"G3","midi":55,"time":101.59114583333336,"velocity":0.8031496062992126,"duration":0.4661458333333286},{"name":"G4","midi":67,"time":101.82942708333336,"velocity":0.8031496062992126,"duration":0.2356770833333286},{"name":"A4","midi":69,"time":102.06770833333336,"velocity":0.8031496062992126,"duration":0.2356770833333286},{"name":"A3","midi":57,"time":102.06770833333336,"velocity":0.8031496062992126,"duration":0.4661458333333286},{"name":"F#3","midi":54,"time":102.06770833333336,"velocity":0.8031496062992126,"duration":0.4661458333333286},{"name":"D#4","midi":63,"time":102.30598958333336,"velocity":0.8031496062992126,"duration":0.2356770833333286},{"name":"A4","midi":69,"time":102.54427083333336,"velocity":0.8031496062992126,"duration":0.2356770833333286},{"name":"G3","midi":55,"time":102.54427083333336,"velocity":0.8031496062992126,"duration":0.4661458333333286},{"name":"E3","midi":52,"time":102.54427083333336,"velocity":0.8031496062992126,"duration":0.4661458333333286},{"name":"B4","midi":71,"time":102.78255208333336,"velocity":0.8031496062992126,"duration":0.2356770833333286},{"name":"C5","midi":72,"time":103.02083333333336,"velocity":0.8031496062992126,"duration":0.45703125},{"name":"F#3","midi":54,"time":103.02083333333336,"velocity":0.8031496062992126,"duration":0.4947916666666714},{"name":"D#3","midi":51,"time":103.02083333333336,"velocity":0.8031496062992126,"duration":0.4947916666666714},{"name":"B4","midi":71,"time":103.5182291666667,"velocity":0.8031496062992126,"duration":0.4661458333333286},{"name":"E5","midi":76,"time":103.9947916666667,"velocity":0.8031496062992126,"duration":0.4661458333333286},{"name":"B2","midi":47,"time":104.4713541666667,"velocity":0.8031496062992126,"duration":0.4661458333333286},{"name":"F#5","midi":78,"time":104.4713541666667,"velocity":0.8031496062992126,"duration":0.4661458333333286},{"name":"E3","midi":52,"time":104.9479166666667,"velocity":0.8031496062992126,"duration":0.4661458333333286},{"name":"G5","midi":79,"time":104.9479166666667,"velocity":0.8031496062992126,"duration":1.4270833333333286},{"name":"D3","midi":50,"time":105.4244791666667,"velocity":0.8031496062992126,"duration":0.4661458333333286},{"name":"B4","midi":71,"time":105.4244791666667,"velocity":0.8031496062992126,"duration":0.4661458333333286},{"name":"C3","midi":48,"time":105.9010416666667,"velocity":0.8031496062992126,"duration":2.854166666666657},{"name":"E5","midi":76,"time":105.9010416666667,"velocity":0.8031496062992126,"duration":0.4661458333333286},{"name":"D5","midi":74,"time":106.3776041666667,"velocity":0.8031496062992126,"duration":0.4661458333333286},{"name":"F#5","midi":78,"time":106.3776041666667,"velocity":0.8031496062992126,"duration":0.4661458333333286},{"name":"C5","midi":72,"time":106.8541666666667,"velocity":0.8031496062992126,"duration":0.4661458333333286},{"name":"A5","midi":81,"time":106.8541666666667,"velocity":0.8031496062992126,"duration":0.4661458333333286},{"name":"B4","midi":71,"time":107.3307291666667,"velocity":0.8031496062992126,"duration":0.4661458333333286},{"name":"G5","midi":79,"time":107.3307291666667,"velocity":0.8031496062992126,"duration":0.4661458333333286},{"name":"A4","midi":69,"time":107.8072916666667,"velocity":0.8031496062992126,"duration":0.4661458333333286},{"name":"F#5","midi":78,"time":107.8072916666667,"velocity":0.8031496062992126,"duration":0.4661458333333286},{"name":"G4","midi":67,"time":108.2838541666667,"velocity":0.8031496062992126,"duration":0.4661458333333286},{"name":"E5","midi":76,"time":108.2838541666667,"velocity":0.8031496062992126,"duration":0.4661458333333286},{"name":"F#4","midi":66,"time":108.76041666666669,"velocity":0.8031496062992126,"duration":0.4661458333333286},{"name":"D#5","midi":75,"time":108.76041666666669,"velocity":0.8031496062992126,"duration":0.9505208333333286},{"name":"C4","midi":60,"time":108.99869791666669,"velocity":0.8031496062992126,"duration":0.2356770833333286},{"name":"B3","midi":59,"time":109.23697916666669,"velocity":0.8031496062992126,"duration":0.2356770833333286},{"name":"C5","midi":72,"time":109.23697916666669,"velocity":0.8031496062992126,"duration":0.4661458333333286},{"name":"A3","midi":57,"time":109.47526041666669,"velocity":0.8031496062992126,"duration":0.2356770833333286},{"name":"G#3","midi":56,"time":109.71354166666669,"velocity":0.8031496062992126,"duration":0.2356770833333286},{"name":"B4","midi":71,"time":109.71354166666669,"velocity":0.8031496062992126,"duration":0.4661458333333286},{"name":"D5","midi":74,"time":109.71354166666669,"velocity":0.8031496062992126,"duration":2.3802083333333286},{"name":"B3","midi":59,"time":109.95182291666669,"velocity":0.8031496062992126,"duration":0.2356770833333286},{"name":"G#3","midi":56,"time":110.19010416666669,"velocity":0.8031496062992126,"duration":0.2356770833333286},{"name":"A4","midi":69,"time":110.19010416666669,"velocity":0.8031496062992126,"duration":0.4661458333333286},{"name":"F#3","midi":54,"time":110.42838541666669,"velocity":0.8031496062992126,"duration":0.2356770833333286},{"name":"E3","midi":52,"time":110.66666666666669,"velocity":0.8031496062992126,"duration":0.2356770833333286},{"name":"G#4","midi":68,"time":110.66666666666669,"velocity":0.8031496062992126,"duration":0.4661458333333286},{"name":"B3","midi":59,"time":110.90494791666669,"velocity":0.8031496062992126,"duration":0.2356770833333286},{"name":"E3","midi":52,"time":111.14322916666669,"velocity":0.8031496062992126,"duration":0.2356770833333286},{"name":"B4","midi":71,"time":111.14322916666669,"velocity":0.8031496062992126,"duration":0.4661458333333286},{"name":"D3","midi":50,"time":111.38151041666669,"velocity":0.8031496062992126,"duration":0.2356770833333286},{"name":"C3","midi":48,"time":111.61979166666669,"velocity":0.8031496062992126,"duration":0.2356770833333286},{"name":"E4","midi":64,"time":111.61979166666669,"velocity":0.8031496062992126,"duration":0.9505208333333286},{"name":"F3","midi":53,"time":111.85807291666669,"velocity":0.8031496062992126,"duration":0.2356770833333286},{"name":"E3","midi":52,"time":112.09635416666669,"velocity":0.8031496062992126,"duration":0.2356770833333286},{"name":"G#4","midi":68,"time":112.09635416666669,"velocity":0.8031496062992126,"duration":0.4661458333333286},{"name":"D3","midi":50,"time":112.33463541666669,"velocity":0.8031496062992126,"duration":0.2356770833333286},{"name":"C3","midi":48,"time":112.57291666666669,"velocity":0.8031496062992126,"duration":0.2356770833333286},{"name":"F#4","midi":66,"time":112.57291666666669,"velocity":0.8031496062992126,"duration":0.4661458333333286},{"name":"A4","midi":69,"time":112.57291666666669,"velocity":0.8031496062992126,"duration":0.4661458333333286},{"name":"E3","midi":52,"time":112.81119791666669,"velocity":0.8031496062992126,"duration":0.2356770833333286},{"name":"C3","midi":48,"time":113.04947916666669,"velocity":0.8031496062992126,"duration":0.2356770833333286},{"name":"G#4","midi":68,"time":113.04947916666669,"velocity":0.8031496062992126,"duration":0.4661458333333286},{"name":"B4","midi":71,"time":113.04947916666669,"velocity":0.8031496062992126,"duration":0.4661458333333286},{"name":"B2","midi":47,"time":113.28776041666669,"velocity":0.8031496062992126,"duration":0.2356770833333286},{"name":"A2","midi":45,"time":113.52604166666669,"velocity":0.8031496062992126,"duration":0.2356770833333286},{"name":"A4","midi":69,"time":113.52604166666669,"velocity":0.8031496062992126,"duration":0.4661458333333286},{"name":"C5","midi":72,"time":113.52604166666669,"velocity":0.8031496062992126,"duration":1.4270833333333286},{"name":"E3","midi":52,"time":113.76432291666669,"velocity":0.8031496062992126,"duration":0.2356770833333286},{"name":"A2","midi":45,"time":114.00260416666669,"velocity":0.8031496062992126,"duration":0.2356770833333286},{"name":"E4","midi":64,"time":114.00260416666669,"velocity":0.8031496062992126,"duration":0.4661458333333286},{"name":"G2","midi":43,"time":114.24088541666669,"velocity":0.8031496062992126,"duration":0.2356770833333286},{"name":"F#2","midi":42,"time":114.47916666666669,"velocity":0.8031496062992126,"duration":0.2356770833333286},{"name":"A4","midi":69,"time":114.47916666666669,"velocity":0.8031496062992126,"duration":0.4661458333333286},{"name":"D3","midi":50,"time":114.71744791666669,"velocity":0.8031496062992126,"duration":0.2356770833333286},{"name":"C3","midi":48,"time":114.95572916666669,"velocity":0.8031496062992126,"duration":0.2356770833333286},{"name":"B4","midi":71,"time":114.95572916666669,"velocity":0.8031496062992126,"duration":0.4661458333333286},{"name":"E5","midi":76,"time":114.95572916666669,"velocity":0.8031496062992126,"duration":0.4661458333333286},{"name":"B2","midi":47,"time":115.19401041666669,"velocity":0.8031496062992126,"duration":0.2356770833333286},{"name":"A2","midi":45,"time":115.43229166666669,"velocity":0.8031496062992126,"duration":0.2356770833333286},{"name":"C5","midi":72,"time":115.43229166666669,"velocity":0.8031496062992126,"duration":0.4661458333333286},{"name":"A5","midi":81,"time":115.43229166666669,"velocity":0.8031496062992126,"duration":0.4661458333333286},{"name":"C3","midi":48,"time":115.67057291666669,"velocity":0.8031496062992126,"duration":0.2356770833333286},{"name":"A2","midi":45,"time":115.90885416666669,"velocity":0.8031496062992126,"duration":0.2356770833333286},{"name":"E5","midi":76,"time":115.90885416666669,"velocity":0.8031496062992126,"duration":0.4661458333333286},{"name":"B5","midi":83,"time":115.90885416666669,"velocity":0.8031496062992126,"duration":0.4661458333333286},{"name":"G2","midi":43,"time":116.14713541666669,"velocity":0.8031496062992126,"duration":0.2356770833333286},{"name":"F#2","midi":42,"time":116.38541666666669,"velocity":0.8031496062992126,"duration":0.2434895833333286},{"name":"A5","midi":81,"time":116.38541666666669,"velocity":0.8031496062992126,"duration":0.4817708333333286},{"name":"C6","midi":84,"time":116.38541666666669,"velocity":0.8031496062992126,"duration":1.2278645833333286},{"name":"C3","midi":48,"time":116.63151041666669,"velocity":0.8031496062992126,"duration":0.2434895833333286},{"name":"F#2","midi":42,"time":116.87760416666669,"velocity":0.8031496062992126,"duration":0.2434895833333286},{"name":"G5","midi":79,"time":116.87760416666669,"velocity":0.8031496062992126,"duration":0.4817708333333286},{"name":"E2","midi":40,"time":117.12369791666669,"velocity":0.8031496062992126,"duration":0.2434895833333286},{"name":"D#2","midi":39,"time":117.36979166666669,"velocity":0.8031496062992126,"duration":2.9505208333333286},{"name":"F#5","midi":78,"time":117.36979166666669,"velocity":0.8031496062992126,"duration":0.9739583333333286},{"name":"B5","midi":83,"time":117.61588541666669,"velocity":0.8031496062992126,"duration":0.2434895833333286},{"name":"A5","midi":81,"time":117.86197916666669,"velocity":0.8031496062992126,"duration":0.2434895833333286},{"name":"G5","midi":79,"time":118.10807291666669,"velocity":0.8031496062992126,"duration":0.2434895833333286},{"name":"F#5","midi":78,"time":118.35416666666669,"velocity":0.8031496062992126,"duration":0.4817708333333286},{"name":"A5","midi":81,"time":118.60026041666669,"velocity":0.8031496062992126,"duration":0.2434895833333286},{"name":"D#5","midi":75,"time":118.84635416666669,"velocity":0.8031496062992126,"duration":0.2434895833333286},{"name":"E5","midi":76,"time":119.09244791666669,"velocity":0.8031496062992126,"duration":0.2434895833333286},{"name":"F#5","midi":78,"time":119.33854166666669,"velocity":0.8031496062992126,"duration":1.2408854166666572},{"name":"C5","midi":72,"time":119.58463541666669,"velocity":0.8031496062992126,"duration":0.2434895833333286},{"name":"B4","midi":71,"time":119.83072916666669,"velocity":0.8031496062992126,"duration":0.2434895833333286},{"name":"A4","midi":69,"time":120.08723958333334,"velocity":0.8031496062992126,"duration":0.2565104166666714},{"name":"G4","midi":67,"time":120.34375000000001,"velocity":0.8031496062992126,"duration":1.0338541666666856},{"name":"E2","midi":40,"time":120.34375000000001,"velocity":0.8031496062992126,"duration":1.0338541666666856},{"name":"B5","midi":83,"time":120.60286458333334,"velocity":0.8031496062992126,"duration":0.2565104166666714},{"name":"D#5","midi":75,"time":120.86197916666669,"velocity":0.8031496062992126,"duration":0.2565104166666714},{"name":"E5","midi":76,"time":121.12109375000003,"velocity":0.8031496062992126,"duration":0.2565104166666714},{"name":"E5","midi":76,"time":121.38020833333337,"velocity":0.8031496062992126,"duration":1.1093749999999858},{"name":"F#4","midi":66,"time":121.38020833333337,"velocity":0.8031496062992126,"duration":0.5442708333333286},{"name":"B2","midi":47,"time":121.38020833333337,"velocity":0.8031496062992126,"duration":2.2200520833333286},{"name":"G4","midi":67,"time":121.9361979166667,"velocity":0.8031496062992126,"duration":0.5442708333333286},{"name":"D#5","midi":75,"time":122.49218750000003,"velocity":0.8031496062992126,"duration":1.1080729166666714},{"name":"A4","midi":69,"time":122.49218750000003,"velocity":0.8031496062992126,"duration":1.1080729166666714},{"name":"E5","midi":76,"time":123.60286458333337,"velocity":0.8031496062992126,"duration":2.8645833333333286},{"name":"G#4","midi":68,"time":123.60286458333337,"velocity":0.8031496062992126,"duration":2.8645833333333286},{"name":"E2","midi":40,"time":123.60286458333337,"velocity":0.8031496062992126,"duration":2.8645833333333286}],"controlChanges":{"7":[{"number":7,"time":0,"value":0.7874015748031497}]},"id":1,"name":"Piano 1","instrumentNumber":6,"instrument":"harpsichord","instrumentFamily":"piano","channelNumber":0,"isPercussion":false}]}