{"header":{"PPQ":384,"timeSignature":[6,8],"bpm":73.99998273333736,"name":"--------"},"startTime":0,"duration":527.0672682526284,"tracks":[{"startTime":0,"duration":0,"length":0,"notes":[],"controlChanges":{},"id":0,"name":"--------"},{"startTime":0.20270275000000001,"duration":527.0672682526284,"length":3613,"notes":[{"name":"B4","midi":71,"time":0.20270275000000001,"velocity":0.8031496062992126,"duration":0.16891895833333334},{"name":"G#4","midi":68,"time":0.40540550000000003,"velocity":0.8031496062992126,"duration":0.20059126302083335},{"name":"A4","midi":69,"time":0.60810825,"velocity":0.8031496062992126,"duration":0.2005912630208334},{"name":"B4","midi":71,"time":0.8108110000000001,"velocity":0.8031496062992126,"duration":0.2005912630208334},{"name":"E3","midi":52,"time":0.8108110000000001,"velocity":0.8031496062992126,"duration":0.40329401302083345},{"name":"E5","midi":76,"time":1.0135137500000002,"velocity":0.8031496062992126,"duration":0.4011825260416668},{"name":"E4","midi":64,"time":1.2162165000000003,"velocity":0.8031496062992126,"duration":0.20059126302083352},{"name":"G#3","midi":56,"time":1.2162165000000003,"velocity":0.8031496062992126,"duration":0.40329401302083356},{"name":"E5","midi":76,"time":1.4189192500000005,"velocity":0.8031496062992126,"duration":0.4011825260416666},{"name":"F#4","midi":66,"time":1.6216220000000006,"velocity":0.8031496062992126,"duration":0.2005912630208333},{"name":"B3","midi":59,"time":1.6216220000000006,"velocity":0.8031496062992126,"duration":0.40329401302083334},{"name":"E5","midi":76,"time":1.8243247500000006,"velocity":0.8031496062992126,"duration":0.2005912630208333},{"name":"G#4","midi":68,"time":2.0270275000000004,"velocity":0.8031496062992126,"duration":0.2005912630208333},{"name":"E4","midi":64,"time":2.0270275000000004,"velocity":0.8031496062992126,"duration":0.4032940130208331},{"name":"A4","midi":69,"time":2.2297302500000002,"velocity":0.8031496062992126,"duration":0.2005912630208333},{"name":"B4","midi":71,"time":2.432433,"velocity":0.8031496062992126,"duration":0.2005912630208333},{"name":"E3","midi":52,"time":2.432433,"velocity":0.8031496062992126,"duration":0.4032940130208331},{"name":"E5","midi":76,"time":2.63513575,"velocity":0.8031496062992126,"duration":0.4011825260416666},{"name":"E4","midi":64,"time":2.8378384999999997,"velocity":0.8031496062992126,"duration":0.2005912630208333},{"name":"G#3","midi":56,"time":2.8378384999999997,"velocity":0.8031496062992126,"duration":0.4032940130208331},{"name":"E5","midi":76,"time":3.0405412499999995,"velocity":0.8031496062992126,"duration":0.4011825260416666},{"name":"F#4","midi":66,"time":3.2432439999999993,"velocity":0.8031496062992126,"duration":0.2005912630208333},{"name":"B3","midi":59,"time":3.2432439999999993,"velocity":0.8031496062992126,"duration":0.4032940130208331},{"name":"E5","midi":76,"time":3.445946749999999,"velocity":0.8031496062992126,"duration":0.2005912630208333},{"name":"G#4","midi":68,"time":3.648649499999999,"velocity":0.8031496062992126,"duration":0.2005912630208333},{"name":"E4","midi":64,"time":3.648649499999999,"velocity":0.8031496062992126,"duration":0.40329401302083356},{"name":"E5","midi":76,"time":3.851352249999999,"velocity":0.8031496062992126,"duration":0.20059126302083374},{"name":"F#5","midi":78,"time":4.054054999999999,"velocity":0.8031496062992126,"duration":0.20059126302083374},{"name":"D#4","midi":63,"time":4.054054999999999,"velocity":0.8031496062992126,"duration":0.403294013020834},{"name":"G#5","midi":80,"time":4.256757749999999,"velocity":0.8031496062992126,"duration":0.4011825260416666},{"name":"A4","midi":69,"time":4.4594605,"velocity":0.8031496062992126,"duration":0.20059126302083286},{"name":"C#4","midi":61,"time":4.4594605,"velocity":0.8031496062992126,"duration":0.4032940130208331},{"name":"G#5","midi":80,"time":4.662163249999999,"velocity":0.8031496062992126,"duration":0.20059126302083374},{"name":"F#5","midi":78,"time":4.864865999999999,"velocity":0.8031496062992126,"duration":0.20059126302083374},{"name":"A3","midi":57,"time":4.864865999999999,"velocity":0.8031496062992126,"duration":0.403294013020834},{"name":"E5","midi":76,"time":5.0675687499999995,"velocity":0.8031496062992126,"duration":0.20059126302083374},{"name":"D#5","midi":75,"time":5.2702715,"velocity":0.8031496062992126,"duration":0.25337843750000033},{"name":"B3","midi":59,"time":5.2702715,"velocity":0.8031496062992126,"duration":0.403294013020834},{"name":"E5","midi":76,"time":5.47297425,"velocity":0.8031496062992126,"duration":0.20059126302083374},{"name":"F#5","midi":78,"time":5.675677,"velocity":0.8031496062992126,"duration":0.20059126302083374},{"name":"A3","midi":57,"time":5.675677,"velocity":0.8031496062992126,"duration":0.403294013020834},{"name":"B5","midi":83,"time":5.878379750000001,"velocity":0.8031496062992126,"duration":0.4011825260416666},{"name":"B4","midi":71,"time":6.081082500000001,"velocity":0.8031496062992126,"duration":0.20059126302083286},{"name":"G#3","midi":56,"time":6.081082500000001,"velocity":0.8031496062992126,"duration":0.4032940130208331},{"name":"B5","midi":83,"time":6.28378525,"velocity":0.8031496062992126,"duration":0.4011825260416666},{"name":"D5","midi":74,"time":6.4864880000000005,"velocity":0.8031496062992126,"duration":0.20059126302083286},{"name":"E3","midi":52,"time":6.4864880000000005,"velocity":0.8031496062992126,"duration":0.4032940130208331},{"name":"B5","midi":83,"time":6.68919075,"velocity":0.8031496062992126,"duration":0.20059126302083374},{"name":"C#5","midi":73,"time":6.8918935,"velocity":0.8031496062992126,"duration":0.25337843750000033},{"name":"A3","midi":57,"time":6.8918935,"velocity":0.8031496062992126,"duration":0.403294013020834},{"name":"D#5","midi":75,"time":7.09459625,"velocity":0.8031496062992126,"duration":0.20059126302083374},{"name":"E5","midi":76,"time":7.297299000000001,"velocity":0.8031496062992126,"duration":0.20059126302083374},{"name":"G#3","midi":56,"time":7.297299000000001,"velocity":0.8031496062992126,"duration":0.403294013020834},{"name":"A5","midi":81,"time":7.500001750000001,"velocity":0.8031496062992126,"duration":0.4011825260416666},{"name":"A4","midi":69,"time":7.702704500000001,"velocity":0.8031496062992126,"duration":0.20059126302083286},{"name":"F#3","midi":54,"time":7.702704500000001,"velocity":0.8031496062992126,"duration":0.4032940130208331},{"name":"A5","midi":81,"time":7.9054072500000006,"velocity":0.8031496062992126,"duration":0.4011825260416684},{"name":"C#5","midi":73,"time":8.108110000000002,"velocity":0.8031496062992126,"duration":0.20059126302083463},{"name":"E3","midi":52,"time":8.108110000000002,"velocity":0.8031496062992126,"duration":0.4032940130208349},{"name":"A5","midi":81,"time":8.310812750000004,"velocity":0.8031496062992126,"duration":0.2956081770833343},{"name":"B4","midi":71,"time":8.513515500000004,"velocity":0.8031496062992126,"duration":0.25337843750000033},{"name":"D#3","midi":51,"time":8.513515500000004,"velocity":0.8031496062992126,"duration":0.4032940130208331},{"name":"A5","midi":81,"time":8.716218250000004,"velocity":0.8031496062992126,"duration":0.20059126302083286},{"name":"E5","midi":76,"time":8.918921000000005,"velocity":0.8031496062992126,"duration":0.20059126302083286},{"name":"E3","midi":52,"time":8.918921000000005,"velocity":0.8031496062992126,"duration":0.4032940130208331},{"name":"G#5","midi":80,"time":9.121623750000005,"velocity":0.8031496062992126,"duration":0.20059126302083286},{"name":"A4","midi":69,"time":9.324326500000005,"velocity":0.8031496062992126,"duration":0.20059126302083286},{"name":"C#3","midi":49,"time":9.324326500000005,"velocity":0.8031496062992126,"duration":0.4032940130208331},{"name":"B4","midi":71,"time":9.527029250000005,"velocity":0.8031496062992126,"duration":0.20059126302083286},{"name":"C#5","midi":73,"time":9.729732000000006,"velocity":0.8031496062992126,"duration":0.20059126302083286},{"name":"A2","midi":45,"time":9.729732000000006,"velocity":0.8031496062992126,"duration":0.4032940130208331},{"name":"F#5","midi":78,"time":9.932434750000006,"velocity":0.8031496062992126,"duration":0.20059126302083286},{"name":"G#4","midi":68,"time":10.135137500000006,"velocity":0.8031496062992126,"duration":0.25337843750000033},{"name":"B2","midi":47,"time":10.135137500000006,"velocity":0.8031496062992126,"duration":0.4032940130208331},{"name":"E5","midi":76,"time":10.337840250000006,"velocity":0.8031496062992126,"duration":0.4011825260416675},{"name":"B4","midi":71,"time":10.540543000000007,"velocity":0.8031496062992126,"duration":0.20059126302083463},{"name":"G#2","midi":44,"time":10.540543000000007,"velocity":0.8031496062992126,"duration":0.4032940130208349},{"name":"E5","midi":76,"time":10.743245750000009,"velocity":0.8031496062992126,"duration":0.20059126302083286},{"name":"F#4","midi":66,"time":10.945948500000009,"velocity":0.8031496062992126,"duration":0.20059126302083286},{"name":"A2","midi":45,"time":10.945948500000009,"velocity":0.8031496062992126,"duration":0.4032940130208331},{"name":"G#4","midi":68,"time":11.14865125000001,"velocity":0.8031496062992126,"duration":0.20059126302083286},{"name":"A4","midi":69,"time":11.35135400000001,"velocity":0.8031496062992126,"duration":0.20059126302083286},{"name":"B2","midi":47,"time":11.35135400000001,"velocity":0.8031496062992126,"duration":0.4011825260416675},{"name":"D#5","midi":75,"time":11.55405675000001,"velocity":0.8031496062992126,"duration":0.20059126302083463},{"name":"E5","midi":76,"time":11.756759500000012,"velocity":0.8031496062992126,"duration":0.802365052083335},{"name":"E2","midi":40,"time":11.959462250000012,"velocity":0.8031496062992126,"duration":0.20059126302083286},{"name":"G#2","midi":44,"time":12.162165000000012,"velocity":0.8031496062992126,"duration":0.20059126302083286},{"name":"B2","midi":47,"time":12.364867750000013,"velocity":0.8031496062992126,"duration":0.20059126302083463},{"name":"E3","midi":52,"time":12.567570500000015,"velocity":0.8031496062992126,"duration":0.4032940130208331},{"name":"G#5","midi":80,"time":12.770273250000015,"velocity":0.8031496062992126,"duration":0.20059126302083286},{"name":"D#5","midi":75,"time":12.972976000000015,"velocity":0.8031496062992126,"duration":0.20059126302083286},{"name":"C3","midi":48,"time":12.972976000000015,"velocity":0.8031496062992126,"duration":0.4032940130208331},{"name":"F#5","midi":78,"time":13.175678750000015,"velocity":0.8031496062992126,"duration":0.20059126302083286},{"name":"E5","midi":76,"time":13.378381500000016,"velocity":0.8031496062992126,"duration":0.25337843750000033},{"name":"C#3","midi":49,"time":13.378381500000016,"velocity":0.8031496062992126,"duration":0.4032940130208331},{"name":"D#5","midi":75,"time":13.581084250000016,"velocity":0.8031496062992126,"duration":0.20059126302083286},{"name":"C#5","midi":73,"time":13.783787000000016,"velocity":0.8031496062992126,"duration":0.20059126302083286},{"name":"G#3","midi":56,"time":13.783787000000016,"velocity":0.8031496062992126,"duration":0.4032940130208331},{"name":"E5","midi":76,"time":13.986489750000016,"velocity":0.8031496062992126,"duration":0.20059126302083286},{"name":"G#5","midi":80,"time":14.189192500000017,"velocity":0.8031496062992126,"duration":0.2956081770833343},{"name":"E3","midi":52,"time":14.189192500000017,"velocity":0.8031496062992126,"duration":0.4032940130208349},{"name":"C#5","midi":73,"time":14.391895250000017,"velocity":0.8031496062992126,"duration":0.20059126302083463},{"name":"E5","midi":76,"time":14.594598000000019,"velocity":0.8031496062992126,"duration":0.2956081770833343},{"name":"C#3","midi":49,"time":14.594598000000019,"velocity":0.8031496062992126,"duration":0.4032940130208349},{"name":"B4","midi":71,"time":14.79730075000002,"velocity":0.8031496062992126,"duration":0.20059126302083463},{"name":"A#4","midi":70,"time":15.000003500000021,"velocity":0.8031496062992126,"duration":0.25337843750000033},{"name":"F#3","midi":54,"time":15.000003500000021,"velocity":0.8031496062992126,"duration":0.4032940130208331},{"name":"G#4","midi":68,"time":15.202706250000022,"velocity":0.8031496062992126,"duration":0.20059126302083286},{"name":"F#4","midi":66,"time":15.405409000000022,"velocity":0.8031496062992126,"duration":0.20059126302083286},{"name":"F#2","midi":42,"time":15.405409000000022,"velocity":0.8031496062992126,"duration":0.4032940130208331},{"name":"A#4","midi":70,"time":15.608111750000022,"velocity":0.8031496062992126,"duration":0.20059126302083286},{"name":"C#5","midi":73,"time":15.810814500000022,"velocity":0.8031496062992126,"duration":0.29560817708333254},{"name":"A#2","midi":46,"time":15.810814500000022,"velocity":0.8031496062992126,"duration":0.40329401302083134},{"name":"F#4","midi":66,"time":16.01351725000002,"velocity":0.8031496062992126,"duration":0.20059126302083286},{"name":"E5","midi":76,"time":16.21622000000002,"velocity":0.8031496062992126,"duration":0.2956081770833343},{"name":"C#3","midi":49,"time":16.21622000000002,"velocity":0.8031496062992126,"duration":0.4032940130208331},{"name":"F#4","midi":66,"time":16.41892275000002,"velocity":0.8031496062992126,"duration":0.20059126302083286},{"name":"D#5","midi":75,"time":16.62162550000002,"velocity":0.8031496062992126,"duration":0.25337843750000033},{"name":"B2","midi":47,"time":16.62162550000002,"velocity":0.8031496062992126,"duration":0.4032940130208331},{"name":"C#5","midi":73,"time":16.824328250000022,"velocity":0.8031496062992126,"duration":0.20059126302083286},{"name":"B4","midi":71,"time":17.027031000000022,"velocity":0.8031496062992126,"duration":0.20059126302083286},{"name":"F#3","midi":54,"time":17.027031000000022,"velocity":0.8031496062992126,"duration":0.4032940130208331},{"name":"D#5","midi":75,"time":17.229733750000022,"velocity":0.8031496062992126,"duration":0.20059126302083286},{"name":"F#5","midi":78,"time":17.432436500000023,"velocity":0.8031496062992126,"duration":0.2956081770833343},{"name":"D#3","midi":51,"time":17.432436500000023,"velocity":0.8031496062992126,"duration":0.4032940130208331},{"name":"B4","midi":71,"time":17.635139250000023,"velocity":0.8031496062992126,"duration":0.20059126302083286},{"name":"D#5","midi":75,"time":17.837842000000023,"velocity":0.8031496062992126,"duration":0.2956081770833343},{"name":"B2","midi":47,"time":17.837842000000023,"velocity":0.8031496062992126,"duration":0.4032940130208331},{"name":"A4","midi":69,"time":18.040544750000024,"velocity":0.8031496062992126,"duration":0.20059126302083286},{"name":"G#4","midi":68,"time":18.243247500000024,"velocity":0.8031496062992126,"duration":0.25337843750000033},{"name":"E3","midi":52,"time":18.243247500000024,"velocity":0.8031496062992126,"duration":0.4032940130208331},{"name":"F#4","midi":66,"time":18.445950250000024,"velocity":0.8031496062992126,"duration":0.20059126302083286},{"name":"E4","midi":64,"time":18.648653000000024,"velocity":0.8031496062992126,"duration":0.20059126302083286},{"name":"E2","midi":40,"time":18.648653000000024,"velocity":0.8031496062992126,"duration":0.4032940130208331},{"name":"G#4","midi":68,"time":18.851355750000025,"velocity":0.8031496062992126,"duration":0.20059126302083286},{"name":"B4","midi":71,"time":19.054058500000025,"velocity":0.8031496062992126,"duration":0.2956081770833343},{"name":"G#2","midi":44,"time":19.054058500000025,"velocity":0.8031496062992126,"duration":0.4032940130208331},{"name":"E4","midi":64,"time":19.256761250000025,"velocity":0.8031496062992126,"duration":0.20059126302083286},{"name":"D#5","midi":75,"time":19.459464000000025,"velocity":0.8031496062992126,"duration":0.2956081770833343},{"name":"B2","midi":47,"time":19.459464000000025,"velocity":0.8031496062992126,"duration":0.4032940130208331},{"name":"E4","midi":64,"time":19.662166750000026,"velocity":0.8031496062992126,"duration":0.20059126302083286},{"name":"C#5","midi":73,"time":19.864869500000026,"velocity":0.8031496062992126,"duration":0.25337843750000033},{"name":"E3","midi":52,"time":19.864869500000026,"velocity":0.8031496062992126,"duration":0.4032940130208331},{"name":"D#5","midi":75,"time":20.067572250000026,"velocity":0.8031496062992126,"duration":0.20059126302083286},{"name":"E5","midi":76,"time":20.270275000000026,"velocity":0.8031496062992126,"duration":0.20059126302083286},{"name":"C#3","midi":49,"time":20.270275000000026,"velocity":0.8031496062992126,"duration":0.4032940130208331},{"name":"G#5","midi":80,"time":20.472977750000027,"velocity":0.8031496062992126,"duration":0.20059126302083286},{"name":"F#5","midi":78,"time":20.675680500000027,"velocity":0.8031496062992126,"duration":0.20059126302083286},{"name":"D#3","midi":51,"time":20.675680500000027,"velocity":0.8031496062992126,"duration":0.4032940130208331},{"name":"E5","midi":76,"time":20.878383250000027,"velocity":0.8031496062992126,"duration":0.20059126302083286},{"name":"D#5","midi":75,"time":21.081086000000028,"velocity":0.8031496062992126,"duration":0.20059126302083286},{"name":"E3","midi":52,"time":21.081086000000028,"velocity":0.8031496062992126,"duration":0.4032940130208331},{"name":"C#5","midi":73,"time":21.283788750000028,"velocity":0.8031496062992126,"duration":0.18158788020833327},{"name":"B5","midi":83,"time":21.486491500000028,"velocity":0.8031496062992126,"duration":0.20059126302083286},{"name":"F#3","midi":54,"time":21.486491500000028,"velocity":0.8031496062992126,"duration":0.4032940130208331},{"name":"A#5","midi":82,"time":21.68919425000003,"velocity":0.8031496062992126,"duration":0.20059126302083286},{"name":"G#5","midi":80,"time":21.89189700000003,"velocity":0.8031496062992126,"duration":0.20059126302083286},{"name":"G#3","midi":56,"time":21.89189700000003,"velocity":0.8031496062992126,"duration":0.4032940130208331},{"name":"F#5","midi":78,"time":22.09459975000003,"velocity":0.8031496062992126,"duration":0.20059126302083286},{"name":"E5","midi":76,"time":22.29730250000003,"velocity":0.8031496062992126,"duration":0.20059126302083286},{"name":"A#3","midi":58,"time":22.29730250000003,"velocity":0.8031496062992126,"duration":0.4032940130208331},{"name":"D#5","midi":75,"time":22.50000525000003,"velocity":0.8031496062992126,"duration":0.20059126302083286},{"name":"E5","midi":76,"time":22.70270800000003,"velocity":0.8031496062992126,"duration":0.20059126302083286},{"name":"F#3","midi":54,"time":22.70270800000003,"velocity":0.8031496062992126,"duration":0.4032940130208331},{"name":"C#5","midi":73,"time":22.90541075000003,"velocity":0.8031496062992126,"duration":0.20059126302083286},{"name":"D#5","midi":75,"time":23.10811350000003,"velocity":0.8031496062992126,"duration":0.09923988802083272},{"name":"B3","midi":59,"time":23.10811350000003,"velocity":0.8031496062992126,"duration":0.4032940130208331},{"name":"C#5","midi":73,"time":23.20946487500003,"velocity":0.8031496062992126,"duration":0.09923988802083272},{"name":"D#5","midi":75,"time":23.31081625000003,"velocity":0.8031496062992126,"duration":0.4032940130208331},{"name":"E3","midi":52,"time":23.51351900000003,"velocity":0.8031496062992126,"duration":0.4032940130208331},{"name":"E5","midi":76,"time":23.71622175000003,"velocity":0.8031496062992126,"duration":0.20059126302083286},{"name":"D#5","midi":75,"time":23.91892450000003,"velocity":0.8031496062992126,"duration":0.09923988802083272},{"name":"F#3","midi":54,"time":23.91892450000003,"velocity":0.8031496062992126,"duration":0.4032940130208331},{"name":"C#5","midi":73,"time":24.02027587500003,"velocity":0.8031496062992126,"duration":0.09923988802083272},{"name":"D#5","midi":75,"time":24.12162725000003,"velocity":0.8031496062992126,"duration":0.09923988802083272},{"name":"C#5","midi":73,"time":24.22297862500003,"velocity":0.8031496062992126,"duration":0.09923988802083272},{"name":"D#5","midi":75,"time":24.32433000000003,"velocity":0.8031496062992126,"duration":0.09923988802083272},{"name":"F#2","midi":42,"time":24.32433000000003,"velocity":0.8031496062992126,"duration":0.4032940130208331},{"name":"C#5","midi":73,"time":24.425681375000032,"velocity":0.8031496062992126,"duration":0.09923988802083272},{"name":"B4","midi":71,"time":24.527032750000032,"velocity":0.8031496062992126,"duration":0.20059126302083286},{"name":"B4","midi":71,"time":24.729735500000032,"velocity":0.8031496062992126,"duration":0.4032940130208331},{"name":"B2","midi":47,"time":24.729735500000032,"velocity":0.8031496062992126,"duration":0.20059126302083286},{"name":"C#3","midi":49,"time":24.932438250000033,"velocity":0.8031496062992126,"duration":0.20059126302083286},{"name":"F#5","midi":78,"time":25.135141000000033,"velocity":0.8031496062992126,"duration":0.4032940130208331},{"name":"D#3","midi":51,"time":25.135141000000033,"velocity":0.8031496062992126,"duration":0.20059126302083286},{"name":"F#3","midi":54,"time":25.337843750000033,"velocity":0.8031496062992126,"duration":0.20059126302083286},{"name":"D#5","midi":75,"time":25.540546500000033,"velocity":0.8031496062992126,"duration":0.3800676562499987},{"name":"B3","midi":59,"time":25.540546500000033,"velocity":0.8031496062992126,"duration":0.20059126302083286},{"name":"F#3","midi":54,"time":25.743249250000034,"velocity":0.8031496062992126,"duration":0.20059126302083286},{"name":"F#5","midi":78,"time":25.945952000000034,"velocity":0.8031496062992126,"duration":0.20059126302083286},{"name":"B3","midi":59,"time":25.945952000000034,"velocity":0.8031496062992126,"duration":0.20059126302083286},{"name":"A#4","midi":70,"time":26.148654750000034,"velocity":0.8031496062992126,"duration":0.20059126302083286},{"name":"E3","midi":52,"time":26.148654750000034,"velocity":0.8031496062992126,"duration":0.20059126302083286},{"name":"B4","midi":71,"time":26.351357500000034,"velocity":0.8031496062992126,"duration":0.3800676562499987},{"name":"D#3","midi":51,"time":26.351357500000034,"velocity":0.8031496062992126,"duration":0.20059126302083286},{"name":"E3","midi":52,"time":26.554060250000035,"velocity":0.8031496062992126,"duration":0.20059126302083286},{"name":"D#5","midi":75,"time":26.756763000000035,"velocity":0.8031496062992126,"duration":0.20059126302083286},{"name":"F#3","midi":54,"time":26.756763000000035,"velocity":0.8031496062992126,"duration":0.20059126302083286},{"name":"G#4","midi":68,"time":26.959465750000035,"velocity":0.8031496062992126,"duration":0.20059126302083286},{"name":"B3","midi":59,"time":26.959465750000035,"velocity":0.8031496062992126,"duration":0.20059126302083286},{"name":"A4","midi":69,"time":27.162168500000035,"velocity":0.8031496062992126,"duration":0.3800676562499987},{"name":"B2","midi":47,"time":27.162168500000035,"velocity":0.8031496062992126,"duration":0.20059126302083286},{"name":"B3","midi":59,"time":27.364871250000036,"velocity":0.8031496062992126,"duration":0.20059126302083286},{"name":"B4","midi":71,"time":27.567574000000036,"velocity":0.8031496062992126,"duration":0.20059126302083286},{"name":"D#3","midi":51,"time":27.567574000000036,"velocity":0.8031496062992126,"duration":0.20059126302083286},{"name":"F#4","midi":66,"time":27.770276750000036,"velocity":0.8031496062992126,"duration":0.20059126302083286},{"name":"B3","midi":59,"time":27.770276750000036,"velocity":0.8031496062992126,"duration":0.20059126302083286},{"name":"G#4","midi":68,"time":27.972979500000037,"velocity":0.8031496062992126,"duration":0.3378379166666683},{"name":"E3","midi":52,"time":27.972979500000037,"velocity":0.8031496062992126,"duration":0.20059126302083286},{"name":"F#3","midi":54,"time":28.175682250000037,"velocity":0.8031496062992126,"duration":0.2005912630208364},{"name":"E5","midi":76,"time":28.37838500000004,"velocity":0.8031496062992126,"duration":0.8086995130208336},{"name":"G#3","midi":56,"time":28.37838500000004,"velocity":0.8031496062992126,"duration":0.20059126302083286},{"name":"C#4","midi":61,"time":28.58108775000004,"velocity":0.8031496062992126,"duration":0.20059126302083286},{"name":"C#3","midi":49,"time":28.78379050000004,"velocity":0.8031496062992126,"duration":0.20059126302083286},{"name":"C#4","midi":61,"time":28.98649325000004,"velocity":0.8031496062992126,"duration":0.20059126302083286},{"name":"C#5","midi":73,"time":29.18919600000004,"velocity":0.8031496062992126,"duration":0.4032940130208331},{"name":"E3","midi":52,"time":29.18919600000004,"velocity":0.8031496062992126,"duration":0.20059126302083286},{"name":"C#4","midi":61,"time":29.391898750000042,"velocity":0.8031496062992126,"duration":0.20059126302083286},{"name":"A#4","midi":70,"time":29.594601500000042,"velocity":0.8031496062992126,"duration":0.3378379166666683},{"name":"F#3","midi":54,"time":29.594601500000042,"velocity":0.8031496062992126,"duration":0.20059126302083286},{"name":"G#3","midi":56,"time":29.797304250000042,"velocity":0.8031496062992126,"duration":0.2005912630208364},{"name":"F#5","midi":78,"time":30.000007000000046,"velocity":0.8031496062992126,"duration":0.8086995130208336},{"name":"A#3","midi":58,"time":30.000007000000046,"velocity":0.8031496062992126,"duration":0.20059126302083286},{"name":"D#4","midi":63,"time":30.202709750000047,"velocity":0.8031496062992126,"duration":0.20059126302083286},{"name":"D#3","midi":51,"time":30.405412500000047,"velocity":0.8031496062992126,"duration":0.20059126302083286},{"name":"D#4","midi":63,"time":30.608115250000047,"velocity":0.8031496062992126,"duration":0.20059126302083286},{"name":"D#5","midi":75,"time":30.810818000000047,"velocity":0.8031496062992126,"duration":0.4032940130208331},{"name":"F#3","midi":54,"time":30.810818000000047,"velocity":0.8031496062992126,"duration":0.20059126302083286},{"name":"D#4","midi":63,"time":31.013520750000048,"velocity":0.8031496062992126,"duration":0.20059126302083286},{"name":"B4","midi":71,"time":31.216223500000048,"velocity":0.8031496062992126,"duration":0.3378379166666683},{"name":"G#3","midi":56,"time":31.216223500000048,"velocity":0.8031496062992126,"duration":0.20059126302083286},{"name":"A#3","midi":58,"time":31.418926250000048,"velocity":0.8031496062992126,"duration":0.2005912630208364},{"name":"G#5","midi":80,"time":31.621629000000052,"velocity":0.8031496062992126,"duration":0.6059967630208369},{"name":"B3","midi":59,"time":31.621629000000052,"velocity":0.8031496062992126,"duration":0.20059126302083286},{"name":"E4","midi":64,"time":31.824331750000052,"velocity":0.8031496062992126,"duration":0.2005912630208364},{"name":"E3","midi":52,"time":32.027034500000056,"velocity":0.8031496062992126,"duration":0.20059126302083286},{"name":"A#5","midi":82,"time":32.229737250000056,"velocity":0.8031496062992126,"duration":0.20059126302083286},{"name":"E4","midi":64,"time":32.229737250000056,"velocity":0.8031496062992126,"duration":0.20059126302083286},{"name":"B5","midi":83,"time":32.43244000000006,"velocity":0.8031496062992126,"duration":0.20059126302083286},{"name":"G#3","midi":56,"time":32.43244000000006,"velocity":0.8031496062992126,"duration":0.20059126302083286},{"name":"G#5","midi":80,"time":32.63514275000006,"velocity":0.8031496062992126,"duration":0.20059126302083286},{"name":"E4","midi":64,"time":32.63514275000006,"velocity":0.8031496062992126,"duration":0.20059126302083286},{"name":"E5","midi":76,"time":32.83784550000006,"velocity":0.8031496062992126,"duration":0.20059126302083286},{"name":"A#3","midi":58,"time":32.83784550000006,"velocity":0.8031496062992126,"duration":0.20059126302083286},{"name":"D#5","midi":75,"time":33.04054825000006,"velocity":0.8031496062992126,"duration":0.20059126302083286},{"name":"B3","midi":59,"time":33.04054825000006,"velocity":0.8031496062992126,"duration":0.20059126302083286},{"name":"E5","midi":76,"time":33.24325100000006,"velocity":0.8031496062992126,"duration":0.6059967630208334},{"name":"C#4","midi":61,"time":33.24325100000006,"velocity":0.8031496062992126,"duration":0.20059126302083286},{"name":"F#4","midi":66,"time":33.44595375000006,"velocity":0.8031496062992126,"duration":0.20059126302083286},{"name":"F#3","midi":54,"time":33.64865650000006,"velocity":0.8031496062992126,"duration":0.20059126302083286},{"name":"G#5","midi":80,"time":33.85135925000006,"velocity":0.8031496062992126,"duration":0.20059126302083286},{"name":"F#4","midi":66,"time":33.85135925000006,"velocity":0.8031496062992126,"duration":0.20059126302083286},{"name":"F#5","midi":78,"time":34.05406200000006,"velocity":0.8031496062992126,"duration":0.20059126302083286},{"name":"A#3","midi":58,"time":34.05406200000006,"velocity":0.8031496062992126,"duration":0.20059126302083286},{"name":"E5","midi":76,"time":34.25676475000006,"velocity":0.8031496062992126,"duration":0.20059126302083286},{"name":"F#4","midi":66,"time":34.25676475000006,"velocity":0.8031496062992126,"duration":0.20059126302083286},{"name":"D#5","midi":75,"time":34.45946750000006,"velocity":0.8031496062992126,"duration":0.20059126302083286},{"name":"B3","midi":59,"time":34.45946750000006,"velocity":0.8031496062992126,"duration":0.4032940130208331},{"name":"C#5","midi":73,"time":34.66217025000006,"velocity":0.8031496062992126,"duration":0.20059126302083286},{"name":"B4","midi":71,"time":34.86487300000006,"velocity":0.8031496062992126,"duration":0.20059126302083286},{"name":"G#3","midi":56,"time":34.86487300000006,"velocity":0.8031496062992126,"duration":0.4032940130208331},{"name":"G#5","midi":80,"time":35.06757575000006,"velocity":0.8031496062992126,"duration":0.20059126302083286},{"name":"B4","midi":71,"time":35.27027850000006,"velocity":0.8031496062992126,"duration":0.20059126302083286},{"name":"E3","midi":52,"time":35.27027850000006,"velocity":0.8031496062992126,"duration":0.4032940130208331},{"name":"A#4","midi":70,"time":35.47298125000006,"velocity":0.8031496062992126,"duration":0.09923988802083272},{"name":"B4","midi":71,"time":35.57433262500006,"velocity":0.8031496062992126,"duration":0.09923988802083272},{"name":"A#4","midi":70,"time":35.67568400000006,"velocity":0.8031496062992126,"duration":0.29560817708333076},{"name":"F#3","midi":54,"time":35.67568400000006,"velocity":0.8031496062992126,"duration":0.4032940130208331},{"name":"B4","midi":71,"time":35.97973812500006,"velocity":0.8031496062992126,"duration":0.09923988802083272},{"name":"B4","midi":71,"time":36.08108950000006,"velocity":0.8031496062992126,"duration":0.20059126302083286},{"name":"B3","midi":59,"time":36.08108950000006,"velocity":0.8031496062992126,"duration":1.822213263020835},{"name":"C#5","midi":73,"time":36.28379225000006,"velocity":0.8031496062992126,"duration":0.20059126302083286},{"name":"D#5","midi":75,"time":36.48649500000006,"velocity":0.8031496062992126,"duration":0.20059126302083286},{"name":"F#5","midi":78,"time":36.68919775000006,"velocity":0.8031496062992126,"duration":0.20059126302083286},{"name":"B5","midi":83,"time":36.89190050000006,"velocity":0.8031496062992126,"duration":0.20059126302083286},{"name":"F#5","midi":78,"time":37.09460325000006,"velocity":0.8031496062992126,"duration":0.20059126302083286},{"name":"D#5","midi":75,"time":37.29730600000006,"velocity":0.8031496062992126,"duration":0.20059126302083286},{"name":"F#5","midi":78,"time":37.50000875000006,"velocity":0.8031496062992126,"duration":0.20059126302083286},{"name":"B4","midi":71,"time":37.70271150000006,"velocity":0.8031496062992126,"duration":1.2141050130208342},{"name":"F#3","midi":54,"time":37.905414250000064,"velocity":0.8031496062992126,"duration":0.20059126302083286},{"name":"D#3","midi":51,"time":38.108117000000064,"velocity":0.8031496062992126,"duration":0.20059126302083286},{"name":"F#3","midi":54,"time":38.310819750000064,"velocity":0.8031496062992126,"duration":0.20059126302083286},{"name":"B2","midi":47,"time":38.513522500000064,"velocity":0.8031496062992126,"duration":0.5912163541666686},{"name":"F#5","midi":78,"time":39.121630750000065,"velocity":0.8031496062992126,"duration":0.20059126302083286},{"name":"D#5","midi":75,"time":39.324333500000066,"velocity":0.8031496062992126,"duration":0.20059126302083286},{"name":"E5","midi":76,"time":39.527036250000066,"velocity":0.8031496062992126,"duration":0.20059126302083286},{"name":"F#5","midi":78,"time":39.729739000000066,"velocity":0.8031496062992126,"duration":0.2533784374999968},{"name":"B2","midi":47,"time":39.729739000000066,"velocity":0.8031496062992126,"duration":0.4032940130208331},{"name":"B5","midi":83,"time":39.932441750000066,"velocity":0.8031496062992126,"duration":0.4011825260416657},{"name":"B4","midi":71,"time":40.13514450000007,"velocity":0.8031496062992126,"duration":0.20059126302083286},{"name":"D#3","midi":51,"time":40.13514450000007,"velocity":0.8031496062992126,"duration":0.4032940130208331},{"name":"B5","midi":83,"time":40.33784725000007,"velocity":0.8031496062992126,"duration":0.4011825260416657},{"name":"C#5","midi":73,"time":40.54055000000007,"velocity":0.8031496062992126,"duration":0.20059126302083286},{"name":"F#3","midi":54,"time":40.54055000000007,"velocity":0.8031496062992126,"duration":0.4032940130208331},{"name":"B5","midi":83,"time":40.74325275000007,"velocity":0.8031496062992126,"duration":0.20059126302083286},{"name":"D#5","midi":75,"time":40.94595550000007,"velocity":0.8031496062992126,"duration":0.2533784374999968},{"name":"B3","midi":59,"time":40.94595550000007,"velocity":0.8031496062992126,"duration":0.4032940130208331},{"name":"E5","midi":76,"time":41.14865825000007,"velocity":0.8031496062992126,"duration":0.20059126302083286},{"name":"F#5","midi":78,"time":41.35136100000007,"velocity":0.8031496062992126,"duration":0.20059126302083286},{"name":"B2","midi":47,"time":41.35136100000007,"velocity":0.8031496062992126,"duration":0.4032940130208331},{"name":"B5","midi":83,"time":41.55406375000007,"velocity":0.8031496062992126,"duration":0.4011825260416657},{"name":"B4","midi":71,"time":41.75676650000007,"velocity":0.8031496062992126,"duration":0.20059126302083286},{"name":"D#3","midi":51,"time":41.75676650000007,"velocity":0.8031496062992126,"duration":0.4032940130208331},{"name":"B5","midi":83,"time":41.95946925000007,"velocity":0.8031496062992126,"duration":0.4011825260416657},{"name":"C#5","midi":73,"time":42.16217200000007,"velocity":0.8031496062992126,"duration":0.20059126302083286},{"name":"F#3","midi":54,"time":42.16217200000007,"velocity":0.8031496062992126,"duration":0.4032940130208331},{"name":"B5","midi":83,"time":42.36487475000007,"velocity":0.8031496062992126,"duration":0.20059126302083286},{"name":"D#5","midi":75,"time":42.56757750000007,"velocity":0.8031496062992126,"duration":0.2533784374999968},{"name":"B3","midi":59,"time":42.56757750000007,"velocity":0.8031496062992126,"duration":0.4032940130208331},{"name":"F#5","midi":78,"time":42.77028025000007,"velocity":0.8031496062992126,"duration":0.20059126302083286},{"name":"G#5","midi":80,"time":42.97298300000007,"velocity":0.8031496062992126,"duration":0.20059126302083286},{"name":"F#3","midi":54,"time":42.97298300000007,"velocity":0.8031496062992126,"duration":0.4032940130208331},{"name":"A5","midi":81,"time":43.17568575000007,"velocity":0.8031496062992126,"duration":0.4011825260416657},{"name":"B4","midi":71,"time":43.37838850000007,"velocity":0.8031496062992126,"duration":0.20059126302083286},{"name":"D#3","midi":51,"time":43.37838850000007,"velocity":0.8031496062992126,"duration":0.4032940130208331},{"name":"A5","midi":81,"time":43.58109125000007,"velocity":0.8031496062992126,"duration":0.20059126302083286},{"name":"G#5","midi":80,"time":43.78379400000007,"velocity":0.8031496062992126,"duration":0.20059126302083286},{"name":"B2","midi":47,"time":43.78379400000007,"velocity":0.8031496062992126,"duration":0.4032940130208331},{"name":"F#5","midi":78,"time":43.98649675000007,"velocity":0.8031496062992126,"duration":0.20059126302083286},{"name":"G#5","midi":80,"time":44.18919950000007,"velocity":0.8031496062992126,"duration":0.20059126302083286},{"name":"E3","midi":52,"time":44.18919950000007,"velocity":0.8031496062992126,"duration":0.4032940130208331},{"name":"F#5","midi":78,"time":44.39190225000007,"velocity":0.8031496062992126,"duration":0.20059126302083286},{"name":"E5","midi":76,"time":44.59460500000007,"velocity":0.8031496062992126,"duration":0.20059126302083286},{"name":"E2","midi":40,"time":44.59460500000007,"velocity":0.8031496062992126,"duration":0.4011825260416657},{"name":"G#5","midi":80,"time":44.79730775000007,"velocity":0.8031496062992126,"duration":0.4011825260416657},{"name":"B4","midi":71,"time":45.00001050000007,"velocity":0.8031496062992126,"duration":0.20059126302083286},{"name":"G#5","midi":80,"time":45.20271325000007,"velocity":0.8031496062992126,"duration":0.4011825260416657},{"name":"G#4","midi":68,"time":45.40541600000007,"velocity":0.8031496062992126,"duration":0.20059126302083286},{"name":"E4","midi":64,"time":45.40541600000007,"velocity":0.8031496062992126,"duration":0.8086995130208336},{"name":"G#5","midi":80,"time":45.608118750000074,"velocity":0.8031496062992126,"duration":0.20059126302083286},{"name":"A#4","midi":70,"time":45.810821500000074,"velocity":0.8031496062992126,"duration":0.20059126302083286},{"name":"C5","midi":72,"time":46.013524250000074,"velocity":0.8031496062992126,"duration":0.20059126302083286},{"name":"C#5","midi":73,"time":46.216227000000075,"velocity":0.8031496062992126,"duration":0.20059126302083286},{"name":"D#4","midi":63,"time":46.216227000000075,"velocity":0.8031496062992126,"duration":0.20059126302083286},{"name":"F#5","midi":78,"time":46.418929750000075,"velocity":0.8031496062992126,"duration":0.4011825260416657},{"name":"C#4","midi":61,"time":46.418929750000075,"velocity":0.8031496062992126,"duration":0.20059126302083286},{"name":"D#5","midi":75,"time":46.621632500000075,"velocity":0.8031496062992126,"duration":0.20059126302083286},{"name":"C4","midi":60,"time":46.621632500000075,"velocity":0.8031496062992126,"duration":0.4032940130208331},{"name":"F#5","midi":78,"time":46.824335250000075,"velocity":0.8031496062992126,"duration":0.4011825260416657},{"name":"C5","midi":72,"time":47.027038000000076,"velocity":0.8031496062992126,"duration":0.20059126302083286},{"name":"G#3","midi":56,"time":47.027038000000076,"velocity":0.8031496062992126,"duration":0.4032940130208331},{"name":"F#5","midi":78,"time":47.229740750000076,"velocity":0.8031496062992126,"duration":0.20059126302083286},{"name":"E5","midi":76,"time":47.432443500000076,"velocity":0.8031496062992126,"duration":0.20059126302083286},{"name":"C#4","midi":61,"time":47.432443500000076,"velocity":0.8031496062992126,"duration":0.4032940130208331},{"name":"D#5","midi":75,"time":47.635146250000076,"velocity":0.8031496062992126,"duration":0.20059126302083286},{"name":"C#5","midi":73,"time":47.83784900000008,"velocity":0.8031496062992126,"duration":0.20059126302083286},{"name":"C#3","midi":49,"time":47.83784900000008,"velocity":0.8031496062992126,"duration":0.4011825260416657},{"name":"E5","midi":76,"time":48.04055175000008,"velocity":0.8031496062992126,"duration":0.4011825260416657},{"name":"G#4","midi":68,"time":48.24325450000008,"velocity":0.8031496062992126,"duration":0.20059126302083286},{"name":"E5","midi":76,"time":48.44595725000008,"velocity":0.8031496062992126,"duration":0.4011825260416657},{"name":"E4","midi":64,"time":48.64866000000008,"velocity":0.8031496062992126,"duration":0.20059126302083286},{"name":"C#4","midi":61,"time":48.64866000000008,"velocity":0.8031496062992126,"duration":0.8086995130208336},{"name":"E5","midi":76,"time":48.85136275000008,"velocity":0.8031496062992126,"duration":0.20059126302083286},{"name":"F#4","midi":66,"time":49.05406550000008,"velocity":0.8031496062992126,"duration":0.20059126302083286},{"name":"G#4","midi":68,"time":49.25676825000008,"velocity":0.8031496062992126,"duration":0.20059126302083286},{"name":"A4","midi":69,"time":49.45947100000008,"velocity":0.8031496062992126,"duration":0.20059126302083286},{"name":"B3","midi":59,"time":49.45947100000008,"velocity":0.8031496062992126,"duration":0.20059126302083286},{"name":"D5","midi":74,"time":49.66217375000008,"velocity":0.8031496062992126,"duration":0.4011825260416657},{"name":"A3","midi":57,"time":49.66217375000008,"velocity":0.8031496062992126,"duration":0.20059126302083286},{"name":"B4","midi":71,"time":49.86487650000008,"velocity":0.8031496062992126,"duration":0.20059126302083286},{"name":"G#3","midi":56,"time":49.86487650000008,"velocity":0.8031496062992126,"duration":0.4032940130208331},{"name":"D5","midi":74,"time":50.06757925000008,"velocity":0.8031496062992126,"duration":0.4011825260416657},{"name":"G#4","midi":68,"time":50.27028200000008,"velocity":0.8031496062992126,"duration":0.20059126302083286},{"name":"E3","midi":52,"time":50.27028200000008,"velocity":0.8031496062992126,"duration":0.4032940130208331},{"name":"D5","midi":74,"time":50.47298475000008,"velocity":0.8031496062992126,"duration":0.20059126302083286},{"name":"C#5","midi":73,"time":50.67568750000008,"velocity":0.8031496062992126,"duration":0.20059126302083286},{"name":"A3","midi":57,"time":50.67568750000008,"velocity":0.8031496062992126,"duration":0.4032940130208331},{"name":"B4","midi":71,"time":50.87839025000008,"velocity":0.8031496062992126,"duration":0.20059126302083286},{"name":"A4","midi":69,"time":51.08109300000008,"velocity":0.8031496062992126,"duration":0.20059126302083286},{"name":"A2","midi":45,"time":51.08109300000008,"velocity":0.8031496062992126,"duration":0.4011825260416657},{"name":"C#5","midi":73,"time":51.28379575000008,"velocity":0.8031496062992126,"duration":0.20059126302083286},{"name":"F#5","midi":78,"time":51.48649850000008,"velocity":0.8031496062992126,"duration":0.4011825260416657},{"name":"C#5","midi":73,"time":51.68920125000008,"velocity":0.8031496062992126,"duration":0.20059126302083286},{"name":"A5","midi":81,"time":51.89190400000008,"velocity":0.8031496062992126,"duration":0.4011825260416657},{"name":"A3","midi":57,"time":51.89190400000008,"velocity":0.8031496062992126,"duration":0.20059126302083286},{"name":"C#5","midi":73,"time":52.09460675000008,"velocity":0.8031496062992126,"duration":0.20059126302083286},{"name":"G3","midi":55,"time":52.09460675000008,"velocity":0.8031496062992126,"duration":0.20059126302083286},{"name":"D5","midi":74,"time":52.29730950000008,"velocity":0.8031496062992126,"duration":0.20059126302083286},{"name":"F#3","midi":54,"time":52.29730950000008,"velocity":0.8031496062992126,"duration":0.4032940130208331},{"name":"E5","midi":76,"time":52.50001225000008,"velocity":0.8031496062992126,"duration":0.20059126302083286},{"name":"F#5","midi":78,"time":52.70271500000008,"velocity":0.8031496062992126,"duration":0.20059126302083286},{"name":"A3","midi":57,"time":52.70271500000008,"velocity":0.8031496062992126,"duration":0.20059126302083286},{"name":"A5","midi":81,"time":52.90541775000008,"velocity":0.8031496062992126,"duration":0.20059126302083286},{"name":"G3","midi":55,"time":52.90541775000008,"velocity":0.8031496062992126,"duration":0.20059126302083286},{"name":"D5","midi":74,"time":53.10812050000008,"velocity":0.8031496062992126,"duration":0.29560817708333076},{"name":"F#3","midi":54,"time":53.10812050000008,"velocity":0.8031496062992126,"duration":0.4032940130208331},{"name":"F#5","midi":78,"time":53.310823250000084,"velocity":0.8031496062992126,"duration":0.20059126302083286},{"name":"A4","midi":69,"time":53.513526000000084,"velocity":0.8031496062992126,"duration":0.29560817708333076},{"name":"F#2","midi":42,"time":53.513526000000084,"velocity":0.8031496062992126,"duration":0.4011825260416657},{"name":"D5","midi":74,"time":53.716228750000084,"velocity":0.8031496062992126,"duration":0.20059126302083286},{"name":"F#4","midi":66,"time":53.918931500000085,"velocity":0.8031496062992126,"duration":0.20059126302083286},{"name":"E4","midi":64,"time":54.121634250000085,"velocity":0.8031496062992126,"duration":0.20059126302083286},{"name":"D4","midi":62,"time":54.324337000000085,"velocity":0.8031496062992126,"duration":0.20059126302083286},{"name":"A3","midi":57,"time":54.324337000000085,"velocity":0.8031496062992126,"duration":0.20059126302083286},{"name":"F#4","midi":66,"time":54.527039750000085,"velocity":0.8031496062992126,"duration":0.20059126302083286},{"name":"G3","midi":55,"time":54.527039750000085,"velocity":0.8031496062992126,"duration":0.20059126302083286},{"name":"A4","midi":69,"time":54.729742500000086,"velocity":0.8031496062992126,"duration":0.29560817708333076},{"name":"F#3","midi":54,"time":54.729742500000086,"velocity":0.8031496062992126,"duration":0.4032940130208331},{"name":"F#4","midi":66,"time":54.932445250000086,"velocity":0.8031496062992126,"duration":0.20059126302083286},{"name":"D5","midi":74,"time":55.135148000000086,"velocity":0.8031496062992126,"duration":0.29560817708333076},{"name":"A3","midi":57,"time":55.135148000000086,"velocity":0.8031496062992126,"duration":0.20059126302083286},{"name":"A4","midi":69,"time":55.33785075000009,"velocity":0.8031496062992126,"duration":0.20059126302083286},{"name":"G3","midi":55,"time":55.33785075000009,"velocity":0.8031496062992126,"duration":0.20059126302083286},{"name":"D#5","midi":75,"time":55.54055350000009,"velocity":0.8031496062992126,"duration":0.20059126302083286},{"name":"F#3","midi":54,"time":55.54055350000009,"velocity":0.8031496062992126,"duration":0.4032940130208331},{"name":"E5","midi":76,"time":55.74325625000009,"velocity":0.8031496062992126,"duration":0.20059126302083286},{"name":"F#5","midi":78,"time":55.94595900000009,"velocity":0.8031496062992126,"duration":0.29560817708333076},{"name":"F#2","midi":42,"time":55.94595900000009,"velocity":0.8031496062992126,"duration":0.4011825260416657},{"name":"A5","midi":81,"time":56.14866175000009,"velocity":0.8031496062992126,"duration":0.20059126302083286},{"name":"D#5","midi":75,"time":56.35136450000009,"velocity":0.8031496062992126,"duration":0.29560817708333076},{"name":"F#5","midi":78,"time":56.55406725000009,"velocity":0.8031496062992126,"duration":0.20059126302083286},{"name":"C5","midi":72,"time":56.75677000000009,"velocity":0.8031496062992126,"duration":0.20059126302083286},{"name":"F#3","midi":54,"time":56.75677000000009,"velocity":0.8031496062992126,"duration":0.20059126302083286},{"name":"D#5","midi":75,"time":56.95947275000009,"velocity":0.8031496062992126,"duration":0.20059126302083286},{"name":"G#3","midi":56,"time":56.95947275000009,"velocity":0.8031496062992126,"duration":0.20059126302083286},{"name":"F#4","midi":66,"time":57.16217550000009,"velocity":0.8031496062992126,"duration":0.20059126302083286},{"name":"A3","midi":57,"time":57.16217550000009,"velocity":0.8031496062992126,"duration":0.4032940130208331},{"name":"E4","midi":64,"time":57.36487825000009,"velocity":0.8031496062992126,"duration":0.20059126302083286},{"name":"D#4","midi":63,"time":57.56758100000009,"velocity":0.8031496062992126,"duration":0.20059126302083286},{"name":"F#3","midi":54,"time":57.56758100000009,"velocity":0.8031496062992126,"duration":0.4032940130208331},{"name":"F#4","midi":66,"time":57.77028375000009,"velocity":0.8031496062992126,"duration":0.20059126302083286},{"name":"C5","midi":72,"time":57.97298650000009,"velocity":0.8031496062992126,"duration":0.29560817708333076},{"name":"D#3","midi":51,"time":57.97298650000009,"velocity":0.8031496062992126,"duration":0.4032940130208331},{"name":"F#4","midi":66,"time":58.17568925000009,"velocity":0.8031496062992126,"duration":0.20059126302083286},{"name":"D#5","midi":75,"time":58.37839200000009,"velocity":0.8031496062992126,"duration":0.29560817708333076},{"name":"G#3","midi":56,"time":58.37839200000009,"velocity":0.8031496062992126,"duration":0.20059126302083286},{"name":"C5","midi":72,"time":58.58109475000009,"velocity":0.8031496062992126,"duration":0.20059126302083286},{"name":"F#3","midi":54,"time":58.58109475000009,"velocity":0.8031496062992126,"duration":0.20059126302083286},{"name":"G#5","midi":80,"time":58.78379750000009,"velocity":0.8031496062992126,"duration":0.20059126302083286},{"name":"E3","midi":52,"time":58.78379750000009,"velocity":0.8031496062992126,"duration":0.4032940130208331},{"name":"F#5","midi":78,"time":58.98650025000009,"velocity":0.8031496062992126,"duration":0.20059126302083286},{"name":"E5","midi":76,"time":59.18920300000009,"velocity":0.8031496062992126,"duration":0.20059126302083286},{"name":"G#3","midi":56,"time":59.18920300000009,"velocity":0.8031496062992126,"duration":0.20059126302083286},{"name":"G#5","midi":80,"time":59.39190575000009,"velocity":0.8031496062992126,"duration":0.20059126302083286},{"name":"F#3","midi":54,"time":59.39190575000009,"velocity":0.8031496062992126,"duration":0.20059126302083286},{"name":"C#5","midi":73,"time":59.59460850000009,"velocity":0.8031496062992126,"duration":0.29560817708333076},{"name":"E3","midi":52,"time":59.59460850000009,"velocity":0.8031496062992126,"duration":0.4032940130208331},{"name":"G#5","midi":80,"time":59.79731125000009,"velocity":0.8031496062992126,"duration":0.20059126302083286},{"name":"A4","midi":69,"time":60.00001400000009,"velocity":0.8031496062992126,"duration":0.29560817708333076},{"name":"F#3","midi":54,"time":60.00001400000009,"velocity":0.8031496062992126,"duration":0.20059126302083286},{"name":"G#5","midi":80,"time":60.20271675000009,"velocity":0.8031496062992126,"duration":0.20059126302083286},{"name":"E3","midi":52,"time":60.20271675000009,"velocity":0.8031496062992126,"duration":0.20059126302083286},{"name":"F#5","midi":78,"time":60.40541950000009,"velocity":0.8031496062992126,"duration":0.20059126302083286},{"name":"D#3","midi":51,"time":60.40541950000009,"velocity":0.8031496062992126,"duration":0.4032940130208331},{"name":"E5","midi":76,"time":60.60812225000009,"velocity":0.8031496062992126,"duration":0.20059126302083286},{"name":"D#5","midi":75,"time":60.810825000000094,"velocity":0.8031496062992126,"duration":0.20059126302083286},{"name":"F#3","midi":54,"time":60.810825000000094,"velocity":0.8031496062992126,"duration":0.20059126302083286},{"name":"F#5","midi":78,"time":61.013527750000094,"velocity":0.8031496062992126,"duration":0.20059126302083286},{"name":"E3","midi":52,"time":61.013527750000094,"velocity":0.8031496062992126,"duration":0.20059126302083286},{"name":"C5","midi":72,"time":61.216230500000094,"velocity":0.8031496062992126,"duration":0.29560817708333076},{"name":"D#3","midi":51,"time":61.216230500000094,"velocity":0.8031496062992126,"duration":0.4032940130208331},{"name":"F#5","midi":78,"time":61.418933250000094,"velocity":0.8031496062992126,"duration":0.20059126302083286},{"name":"G#4","midi":68,"time":61.621636000000095,"velocity":0.8031496062992126,"duration":0.29560817708333076},{"name":"E3","midi":52,"time":61.621636000000095,"velocity":0.8031496062992126,"duration":0.20059126302083286},{"name":"F#5","midi":78,"time":61.824338750000095,"velocity":0.8031496062992126,"duration":0.20059126302083286},{"name":"D#3","midi":51,"time":61.824338750000095,"velocity":0.8031496062992126,"duration":0.20059126302083286},{"name":"E5","midi":76,"time":62.027041500000095,"velocity":0.8031496062992126,"duration":0.20059126302083286},{"name":"C#3","midi":49,"time":62.027041500000095,"velocity":0.8031496062992126,"duration":0.4032940130208331},{"name":"D#5","midi":75,"time":62.229744250000095,"velocity":0.8031496062992126,"duration":0.20059126302083286},{"name":"C#5","midi":73,"time":62.432447000000096,"velocity":0.8031496062992126,"duration":0.20059126302083286},{"name":"F#3","midi":54,"time":62.432447000000096,"velocity":0.8031496062992126,"duration":0.4032940130208331},{"name":"E5","midi":76,"time":62.635149750000096,"velocity":0.8031496062992126,"duration":0.20059126302083286},{"name":"G#4","midi":68,"time":62.837852500000096,"velocity":0.8031496062992126,"duration":0.29560817708333076},{"name":"G#3","midi":56,"time":62.837852500000096,"velocity":0.8031496062992126,"duration":0.4032940130208331},{"name":"C#5","midi":73,"time":63.0405552500001,"velocity":0.8031496062992126,"duration":0.20059126302083286},{"name":"D#5","midi":75,"time":63.2432580000001,"velocity":0.8031496062992126,"duration":0.20059126302083286},{"name":"G#2","midi":44,"time":63.2432580000001,"velocity":0.8031496062992126,"duration":0.4032940130208331},{"name":"C5","midi":72,"time":63.4459607500001,"velocity":0.8031496062992126,"duration":0.20059126302083286},{"name":"C#5","midi":73,"time":63.6486635000001,"velocity":0.8031496062992126,"duration":0.3800676562500058},{"name":"C#3","midi":49,"time":63.6486635000001,"velocity":0.8031496062992126,"duration":0.20059126302083286},{"name":"D#3","midi":51,"time":63.8513662500001,"velocity":0.8031496062992126,"duration":0.20059126302083996},{"name":"G#5","midi":80,"time":64.0540690000001,"velocity":0.8031496062992126,"duration":0.20059126302083996},{"name":"E3","midi":52,"time":64.0540690000001,"velocity":0.8031496062992126,"duration":0.20059126302083996},{"name":"E5","midi":76,"time":64.2567717500001,"velocity":0.8031496062992126,"duration":0.20059126302083996},{"name":"G#3","midi":56,"time":64.2567717500001,"velocity":0.8031496062992126,"duration":0.20059126302083996},{"name":"C#5","midi":73,"time":64.4594745000001,"velocity":0.8031496062992126,"duration":0.33783791666667184},{"name":"C#4","midi":61,"time":64.4594745000001,"velocity":0.8031496062992126,"duration":0.20059126302083996},{"name":"G#3","midi":56,"time":64.6621772500001,"velocity":0.8031496062992126,"duration":0.20059126302083996},{"name":"E5","midi":76,"time":64.8648800000001,"velocity":0.8031496062992126,"duration":0.20059126302083996},{"name":"C#4","midi":61,"time":64.8648800000001,"velocity":0.8031496062992126,"duration":0.20059126302083996},{"name":"G#4","midi":68,"time":65.0675827500001,"velocity":0.8031496062992126,"duration":0.20059126302083996},{"name":"E3","midi":52,"time":65.0675827500001,"velocity":0.8031496062992126,"duration":0.20059126302083996},{"name":"A4","midi":69,"time":65.2702855000001,"velocity":0.8031496062992126,"duration":0.33783791666667184},{"name":"F#3","midi":54,"time":65.2702855000001,"velocity":0.8031496062992126,"duration":0.20059126302083996},{"name":"G#3","midi":56,"time":65.4729882500001,"velocity":0.8031496062992126,"duration":0.20059126302083996},{"name":"C#5","midi":73,"time":65.6756910000001,"velocity":0.8031496062992126,"duration":0.20059126302083996},{"name":"A3","midi":57,"time":65.6756910000001,"velocity":0.8031496062992126,"duration":0.20059126302083996},{"name":"A4","midi":69,"time":65.8783937500001,"velocity":0.8031496062992126,"duration":0.20059126302083996},{"name":"C#4","midi":61,"time":65.8783937500001,"velocity":0.8031496062992126,"duration":0.20059126302083996},{"name":"F#4","midi":66,"time":66.0810965000001,"velocity":0.8031496062992126,"duration":0.33783791666667184},{"name":"A3","midi":57,"time":66.0810965000001,"velocity":0.8031496062992126,"duration":0.20059126302083996},{"name":"C#4","midi":61,"time":66.2837992500001,"velocity":0.8031496062992126,"duration":0.20059126302083996},{"name":"A4","midi":69,"time":66.4865020000001,"velocity":0.8031496062992126,"duration":0.20059126302083996},{"name":"F#3","midi":54,"time":66.4865020000001,"velocity":0.8031496062992126,"duration":0.20059126302083996},{"name":"C#4","midi":61,"time":66.6892047500001,"velocity":0.8031496062992126,"duration":0.20059126302083996},{"name":"A3","midi":57,"time":66.6892047500001,"velocity":0.8031496062992126,"duration":0.20059126302083996},{"name":"D#4","midi":63,"time":66.8919075000001,"velocity":0.8031496062992126,"duration":0.33783791666667184},{"name":"B2","midi":47,"time":66.8919075000001,"velocity":0.8031496062992126,"duration":0.20059126302083996},{"name":"C#3","midi":49,"time":67.0946102500001,"velocity":0.8031496062992126,"duration":0.20059126302083996},{"name":"F#5","midi":78,"time":67.2973130000001,"velocity":0.8031496062992126,"duration":0.20059126302083996},{"name":"D#3","midi":51,"time":67.2973130000001,"velocity":0.8031496062992126,"duration":0.20059126302083996},{"name":"D#5","midi":75,"time":67.5000157500001,"velocity":0.8031496062992126,"duration":0.20059126302083996},{"name":"F#3","midi":54,"time":67.5000157500001,"velocity":0.8031496062992126,"duration":0.20059126302083996},{"name":"B4","midi":71,"time":67.7027185000001,"velocity":0.8031496062992126,"duration":0.33783791666667184},{"name":"B3","midi":59,"time":67.7027185000001,"velocity":0.8031496062992126,"duration":0.20059126302083996},{"name":"F#3","midi":54,"time":67.9054212500001,"velocity":0.8031496062992126,"duration":0.20059126302083996},{"name":"D#5","midi":75,"time":68.1081240000001,"velocity":0.8031496062992126,"duration":0.20059126302083996},{"name":"B3","midi":59,"time":68.1081240000001,"velocity":0.8031496062992126,"duration":0.20059126302083996},{"name":"F#4","midi":66,"time":68.3108267500001,"velocity":0.8031496062992126,"duration":0.20059126302083996},{"name":"D#3","midi":51,"time":68.3108267500001,"velocity":0.8031496062992126,"duration":0.20059126302083996},{"name":"G#4","midi":68,"time":68.5135295000001,"velocity":0.8031496062992126,"duration":0.33783791666667184},{"name":"E3","midi":52,"time":68.5135295000001,"velocity":0.8031496062992126,"duration":0.20059126302083996},{"name":"F#3","midi":54,"time":68.7162322500001,"velocity":0.8031496062992126,"duration":0.20059126302083996},{"name":"B4","midi":71,"time":68.9189350000001,"velocity":0.8031496062992126,"duration":0.20059126302083996},{"name":"G#3","midi":56,"time":68.9189350000001,"velocity":0.8031496062992126,"duration":0.20059126302083996},{"name":"G#4","midi":68,"time":69.1216377500001,"velocity":0.8031496062992126,"duration":0.20059126302083996},{"name":"B3","midi":59,"time":69.1216377500001,"velocity":0.8031496062992126,"duration":0.20059126302083996},{"name":"E4","midi":64,"time":69.3243405000001,"velocity":0.8031496062992126,"duration":0.33783791666667184},{"name":"G#3","midi":56,"time":69.3243405000001,"velocity":0.8031496062992126,"duration":0.20059126302083996},{"name":"B3","midi":59,"time":69.5270432500001,"velocity":0.8031496062992126,"duration":0.20059126302083996},{"name":"G#4","midi":68,"time":69.7297460000001,"velocity":0.8031496062992126,"duration":0.20059126302083996},{"name":"E3","midi":52,"time":69.7297460000001,"velocity":0.8031496062992126,"duration":0.20059126302083996},{"name":"B3","midi":59,"time":69.9324487500001,"velocity":0.8031496062992126,"duration":0.20059126302083996},{"name":"G#3","midi":56,"time":69.9324487500001,"velocity":0.8031496062992126,"duration":0.20059126302083996},{"name":"C#4","midi":61,"time":70.1351515000001,"velocity":0.8031496062992126,"duration":0.33783791666667184},{"name":"A2","midi":45,"time":70.1351515000001,"velocity":0.8031496062992126,"duration":0.20059126302083996},{"name":"B2","midi":47,"time":70.3378542500001,"velocity":0.8031496062992126,"duration":0.20059126302083996},{"name":"A4","midi":69,"time":70.5405570000001,"velocity":0.8031496062992126,"duration":0.8086995130208408},{"name":"C#3","midi":49,"time":70.5405570000001,"velocity":0.8031496062992126,"duration":0.20059126302083996},{"name":"F#3","midi":54,"time":70.7432597500001,"velocity":0.8031496062992126,"duration":0.20059126302083996},{"name":"F#2","midi":42,"time":70.9459625000001,"velocity":0.8031496062992126,"duration":0.20059126302083996},{"name":"F#3","midi":54,"time":71.14866525000011,"velocity":0.8031496062992126,"duration":0.20059126302083996},{"name":"F#4","midi":66,"time":71.35136800000011,"velocity":0.8031496062992126,"duration":0.3800676562500058},{"name":"A2","midi":45,"time":71.35136800000011,"velocity":0.8031496062992126,"duration":0.20059126302083996},{"name":"F#3","midi":54,"time":71.55407075000011,"velocity":0.8031496062992126,"duration":0.20059126302083996},{"name":"D#4","midi":63,"time":71.75677350000011,"velocity":0.8031496062992126,"duration":0.3800676562500058},{"name":"B2","midi":47,"time":71.75677350000011,"velocity":0.8031496062992126,"duration":0.20059126302083996},{"name":"C#3","midi":49,"time":71.95947625000011,"velocity":0.8031496062992126,"duration":0.20059126302083996},{"name":"B4","midi":71,"time":72.16217900000011,"velocity":0.8031496062992126,"duration":0.8086995130208408},{"name":"D#3","midi":51,"time":72.16217900000011,"velocity":0.8031496062992126,"duration":0.20059126302083996},{"name":"G#3","midi":56,"time":72.36488175000011,"velocity":0.8031496062992126,"duration":0.20059126302083996},{"name":"G#2","midi":44,"time":72.56758450000011,"velocity":0.8031496062992126,"duration":0.20059126302083996},{"name":"G#3","midi":56,"time":72.77028725000011,"velocity":0.8031496062992126,"duration":0.20059126302083996},{"name":"G#4","midi":68,"time":72.97299000000011,"velocity":0.8031496062992126,"duration":0.3800676562500058},{"name":"B2","midi":47,"time":72.97299000000011,"velocity":0.8031496062992126,"duration":0.20059126302083996},{"name":"G#3","midi":56,"time":73.17569275000011,"velocity":0.8031496062992126,"duration":0.20059126302083996},{"name":"E4","midi":64,"time":73.37839550000011,"velocity":0.8031496062992126,"duration":0.3800676562500058},{"name":"C#3","midi":49,"time":73.37839550000011,"velocity":0.8031496062992126,"duration":0.20059126302083996},{"name":"D#3","midi":51,"time":73.58109825000011,"velocity":0.8031496062992126,"duration":0.20059126302083996},{"name":"C#5","midi":73,"time":73.78380100000011,"velocity":0.8031496062992126,"duration":0.6059967630208405},{"name":"E3","midi":52,"time":73.78380100000011,"velocity":0.8031496062992126,"duration":0.20059126302083996},{"name":"A3","midi":57,"time":73.98650375000011,"velocity":0.8031496062992126,"duration":0.20059126302083996},{"name":"A2","midi":45,"time":74.18920650000011,"velocity":0.8031496062992126,"duration":0.20059126302083996},{"name":"D#5","midi":75,"time":74.39190925000011,"velocity":0.8031496062992126,"duration":0.20059126302083996},{"name":"A3","midi":57,"time":74.39190925000011,"velocity":0.8031496062992126,"duration":0.20059126302083996},{"name":"E5","midi":76,"time":74.59461200000011,"velocity":0.8031496062992126,"duration":0.20059126302083996},{"name":"C#3","midi":49,"time":74.59461200000011,"velocity":0.8031496062992126,"duration":0.20059126302083996},{"name":"C#5","midi":73,"time":74.79731475000011,"velocity":0.8031496062992126,"duration":0.20059126302083996},{"name":"A3","midi":57,"time":74.79731475000011,"velocity":0.8031496062992126,"duration":0.20059126302083996},{"name":"A4","midi":69,"time":75.00001750000011,"velocity":0.8031496062992126,"duration":0.20059126302083996},{"name":"D#3","midi":51,"time":75.00001750000011,"velocity":0.8031496062992126,"duration":0.20059126302083996},{"name":"G#4","midi":68,"time":75.20272025000011,"velocity":0.8031496062992126,"duration":0.20059126302083996},{"name":"E3","midi":52,"time":75.20272025000011,"velocity":0.8031496062992126,"duration":0.20059126302083996},{"name":"A4","midi":69,"time":75.40542300000011,"velocity":0.8031496062992126,"duration":0.5489866145833275},{"name":"F#3","midi":54,"time":75.40542300000011,"velocity":0.8031496062992126,"duration":0.20059126302083996},{"name":"B3","midi":59,"time":75.60812575000011,"velocity":0.8031496062992126,"duration":0.20059126302083996},{"name":"B2","midi":47,"time":75.81082850000011,"velocity":0.8031496062992126,"duration":0.20059126302082575},{"name":"C#5","midi":73,"time":76.0135312500001,"velocity":0.8031496062992126,"duration":0.20059126302083996},{"name":"B3","midi":59,"time":76.0135312500001,"velocity":0.8031496062992126,"duration":0.20059126302083996},{"name":"B4","midi":71,"time":76.2162340000001,"velocity":0.8031496062992126,"duration":0.20059126302083996},{"name":"D#3","midi":51,"time":76.2162340000001,"velocity":0.8031496062992126,"duration":0.20059126302083996},{"name":"A4","midi":69,"time":76.4189367500001,"velocity":0.8031496062992126,"duration":0.20059126302083996},{"name":"B3","midi":59,"time":76.4189367500001,"velocity":0.8031496062992126,"duration":0.20059126302083996},{"name":"G#4","midi":68,"time":76.6216395000001,"velocity":0.8031496062992126,"duration":0.20059126302083996},{"name":"E3","midi":52,"time":76.6216395000001,"velocity":0.8031496062992126,"duration":0.4032940130208402},{"name":"F#4","midi":66,"time":76.8243422500001,"velocity":0.8031496062992126,"duration":0.20059126302083996},{"name":"E4","midi":64,"time":77.0270450000001,"velocity":0.8031496062992126,"duration":0.20059126302083996},{"name":"C#3","midi":49,"time":77.0270450000001,"velocity":0.8031496062992126,"duration":0.4032940130208402},{"name":"C#5","midi":73,"time":77.2297477500001,"velocity":0.8031496062992126,"duration":0.20059126302083996},{"name":"G#4","midi":68,"time":77.4324505000001,"velocity":0.8031496062992126,"duration":0.09923988802083272},{"name":"A2","midi":45,"time":77.4324505000001,"velocity":0.8031496062992126,"duration":0.4032940130208118},{"name":"F#4","midi":66,"time":77.5338018750001,"velocity":0.8031496062992126,"duration":0.09923988802083272},{"name":"G#4","midi":68,"time":77.63515325000009,"velocity":0.8031496062992126,"duration":0.09923988802083272},{"name":"F#4","midi":66,"time":77.73650462500008,"velocity":0.8031496062992126,"duration":0.09923988802083272},{"name":"G#4","midi":68,"time":77.83785600000007,"velocity":0.8031496062992126,"duration":0.09923988802083272},{"name":"B2","midi":47,"time":77.83785600000007,"velocity":0.8031496062992126,"duration":0.403294013020826},{"name":"F#4","midi":66,"time":77.93920737500007,"velocity":0.8031496062992126,"duration":0.09923988802083272},{"name":"E4","midi":64,"time":78.04055875000006,"velocity":0.8031496062992126,"duration":0.20059126302083996},{"name":"E4","midi":64,"time":78.24326150000006,"velocity":0.8031496062992126,"duration":0.2533784375000039},{"name":"E2","midi":40,"time":78.24326150000006,"velocity":0.8031496062992126,"duration":0.4032940130208402},{"name":"F#4","midi":66,"time":78.44596425000006,"velocity":0.8031496062992126,"duration":0.20059126302083996},{"name":"G#4","midi":68,"time":78.64866700000006,"velocity":0.8031496062992126,"duration":0.20059126302083996},{"name":"B3","midi":59,"time":78.64866700000006,"velocity":0.8031496062992126,"duration":0.4032940130208402},{"name":"A4","midi":69,"time":78.85136975000006,"velocity":0.8031496062992126,"duration":0.20059126302083996},{"name":"B4","midi":71,"time":79.05407250000006,"velocity":0.8031496062992126,"duration":0.4011825260416657},{"name":"G#3","midi":56,"time":79.05407250000006,"velocity":0.8031496062992126,"duration":0.403294013020826},{"name":"E4","midi":64,"time":79.25677525000006,"velocity":0.8031496062992126,"duration":0.20059126302082575},{"name":"D5","midi":74,"time":79.45947800000005,"velocity":0.8031496062992126,"duration":0.4011825260416657},{"name":"E3","midi":52,"time":79.45947800000005,"velocity":0.8031496062992126,"duration":0.403294013020826},{"name":"E4","midi":64,"time":79.66218075000005,"velocity":0.8031496062992126,"duration":0.20059126302082575},{"name":"C#5","midi":73,"time":79.86488350000003,"velocity":0.8031496062992126,"duration":0.2533784375000039},{"name":"A3","midi":57,"time":79.86488350000003,"velocity":0.8031496062992126,"duration":0.4032940130208402},{"name":"B4","midi":71,"time":80.06758625000003,"velocity":0.8031496062992126,"duration":0.20059126302083996},{"name":"A4","midi":69,"time":80.27028900000003,"velocity":0.8031496062992126,"duration":0.20059126302083996},{"name":"A2","midi":45,"time":80.27028900000003,"velocity":0.8031496062992126,"duration":0.4032940130208402},{"name":"C#5","midi":73,"time":80.47299175000003,"velocity":0.8031496062992126,"duration":0.20059126302083996},{"name":"E5","midi":76,"time":80.67569450000003,"velocity":0.8031496062992126,"duration":0.4011825260416657},{"name":"C#3","midi":49,"time":80.67569450000003,"velocity":0.8031496062992126,"duration":0.403294013020826},{"name":"A4","midi":69,"time":80.87839725000003,"velocity":0.8031496062992126,"duration":0.20059126302082575},{"name":"C#5","midi":73,"time":81.08110000000002,"velocity":0.8031496062992126,"duration":0.4011825260416657},{"name":"E3","midi":52,"time":81.08110000000002,"velocity":0.8031496062992126,"duration":0.403294013020826},{"name":"G#4","midi":68,"time":81.28380275000002,"velocity":0.8031496062992126,"duration":0.20059126302082575},{"name":"F#4","midi":66,"time":81.4865055,"velocity":0.8031496062992126,"duration":0.2533784375000039},{"name":"A#2","midi":46,"time":81.4865055,"velocity":0.8031496062992126,"duration":0.4032940130208402},{"name":"G#4","midi":68,"time":81.68920825000001,"velocity":0.8031496062992126,"duration":0.20059126302083996},{"name":"A#4","midi":70,"time":81.89191100000001,"velocity":0.8031496062992126,"duration":0.20059126302083996},{"name":"C#4","midi":61,"time":81.89191100000001,"velocity":0.8031496062992126,"duration":0.4032940130208402},{"name":"B4","midi":71,"time":82.09461375000001,"velocity":0.8031496062992126,"duration":0.20059126302083996},{"name":"C#5","midi":73,"time":82.29731650000001,"velocity":0.8031496062992126,"duration":0.4011825260416657},{"name":"A#3","midi":58,"time":82.29731650000001,"velocity":0.8031496062992126,"duration":0.403294013020826},{"name":"F#4","midi":66,"time":82.50001925000001,"velocity":0.8031496062992126,"duration":0.20059126302082575},{"name":"E5","midi":76,"time":82.702722,"velocity":0.8031496062992126,"duration":0.4011825260416657},{"name":"F#3","midi":54,"time":82.702722,"velocity":0.8031496062992126,"duration":0.403294013020826},{"name":"F#4","midi":66,"time":82.90542475,"velocity":0.8031496062992126,"duration":0.20059126302082575},{"name":"D#5","midi":75,"time":83.10812749999998,"velocity":0.8031496062992126,"duration":0.2533784375000039},{"name":"B3","midi":59,"time":83.10812749999998,"velocity":0.8031496062992126,"duration":0.4032940130208402},{"name":"C#5","midi":73,"time":83.31083024999998,"velocity":0.8031496062992126,"duration":0.20059126302083996},{"name":"B4","midi":71,"time":83.51353299999998,"velocity":0.8031496062992126,"duration":0.20059126302083996},{"name":"B2","midi":47,"time":83.51353299999998,"velocity":0.8031496062992126,"duration":0.4032940130208402},{"name":"D#5","midi":75,"time":83.71623574999998,"velocity":0.8031496062992126,"duration":0.20059126302083996},{"name":"F#5","midi":78,"time":83.91893849999998,"velocity":0.8031496062992126,"duration":0.4011825260416657},{"name":"D#3","midi":51,"time":83.91893849999998,"velocity":0.8031496062992126,"duration":0.403294013020826},{"name":"D#5","midi":75,"time":84.12164124999998,"velocity":0.8031496062992126,"duration":0.20059126302082575},{"name":"A5","midi":81,"time":84.32434399999997,"velocity":0.8031496062992126,"duration":0.4011825260416657},{"name":"F#3","midi":54,"time":84.32434399999997,"velocity":0.8031496062992126,"duration":0.403294013020826},{"name":"F#5","midi":78,"time":84.52704674999997,"velocity":0.8031496062992126,"duration":0.20059126302082575},{"name":"B2","midi":47,"time":84.72974949999995,"velocity":0.8031496062992126,"duration":0.41385144791667017},{"name":"D#5","midi":75,"time":84.72974949999995,"velocity":0.8031496062992126,"duration":0.2533784375000039},{"name":"E5","midi":76,"time":84.93667522395829,"velocity":0.8031496062992126,"duration":0.20481423697917478},{"name":"F#3","midi":54,"time":85.14571243489578,"velocity":0.8031496062992126,"duration":0.41385144791665596},{"name":"F#5","midi":78,"time":85.14571243489578,"velocity":0.8031496062992126,"duration":0.20481423697916057},{"name":"A5","midi":81,"time":85.35474964583328,"velocity":0.8031496062992126,"duration":0.20481423697916057},{"name":"D#3","midi":51,"time":85.56378685677078,"velocity":0.8031496062992126,"duration":0.41385144791665596},{"name":"G#5","midi":80,"time":85.56378685677078,"velocity":0.8031496062992126,"duration":0.20481423697916057},{"name":"F#5","midi":78,"time":85.77282406770827,"velocity":0.8031496062992126,"duration":0.20481423697916057},{"name":"B2","midi":47,"time":85.98186127864577,"velocity":0.8031496062992126,"duration":0.41385144791667017},{"name":"E5","midi":76,"time":85.98186127864577,"velocity":0.8031496062992126,"duration":0.20481423697916057},{"name":"D#5","midi":75,"time":86.19089848958326,"velocity":0.8031496062992126,"duration":0.17314193229167074},{"name":"B5","midi":83,"time":86.39993570052077,"velocity":0.8031496062992126,"duration":0.2090372109374954},{"name":"A2","midi":45,"time":86.39993570052077,"velocity":0.8031496062992126,"duration":0.4244088828124859},{"name":"A5","midi":81,"time":86.61108439843743,"velocity":0.8031496062992126,"duration":0.2090372109374954},{"name":"G#5","midi":80,"time":86.82645607031242,"velocity":0.8031496062992126,"duration":0.2090372109374954},{"name":"A3","midi":57,"time":86.82645607031242,"velocity":0.8031496062992126,"duration":0.4222973958333256},{"name":"F#5","midi":78,"time":87.04182774218741,"velocity":0.8031496062992126,"duration":0.2090372109374954},{"name":"E5","midi":76,"time":87.2571994140624,"velocity":0.8031496062992126,"duration":0.2090372109374954},{"name":"D#5","midi":75,"time":87.47257108593739,"velocity":0.8031496062992126,"duration":0.2090372109374954},{"name":"C#5","midi":73,"time":87.68794275781238,"velocity":0.8031496062992126,"duration":0.2090372109374954},{"name":"F#3","midi":54,"time":87.68794275781238,"velocity":0.8031496062992126,"duration":0.4244088828124859},{"name":"B4","midi":71,"time":87.90331442968737,"velocity":0.8031496062992126,"duration":0.2090372109374954},{"name":"G#3","midi":56,"time":88.11868610156236,"velocity":0.8031496062992126,"duration":0.43707780468749036},{"name":"E5","midi":76,"time":88.11868610156236,"velocity":0.8031496062992126,"duration":0.8741556093749807},{"name":"B4","midi":71,"time":88.33616926041653,"velocity":0.8031496062992126,"duration":0.2132601848958302},{"name":"A3","midi":57,"time":88.55787539322901,"velocity":0.8031496062992126,"duration":0.43707780468749036},{"name":"C#5","midi":73,"time":88.55787539322901,"velocity":0.8031496062992126,"duration":0.2132601848958302},{"name":"A4","midi":69,"time":88.77958152604151,"velocity":0.8031496062992126,"duration":0.2132601848958302},{"name":"B3","midi":59,"time":89.001287658854,"velocity":0.8031496062992126,"duration":0.43707780468749036},{"name":"G#4","midi":68,"time":89.001287658854,"velocity":0.8031496062992126,"duration":0.43496631770833005},{"name":"E5","midi":76,"time":89.22510527864566,"velocity":0.8031496062992126,"duration":0.43496631770833005},{"name":"B2","midi":47,"time":89.44681141145816,"velocity":0.8031496062992126,"duration":0.43707780468749036},{"name":"F#4","midi":66,"time":89.44681141145816,"velocity":0.8031496062992126,"duration":0.43496631770833005},{"name":"D#5","midi":75,"time":89.66851754427066,"velocity":0.8031496062992126,"duration":0.2132601848958302},{"name":"E5","midi":76,"time":89.89022367708314,"velocity":0.8031496062992126,"duration":2.1938349713541925},{"name":"E3","midi":52,"time":89.89022367708314,"velocity":0.8031496062992126,"duration":0.23859802864583912},{"name":"E2","midi":40,"time":90.13304467968732,"velocity":0.8031496062992126,"duration":0.23859802864583912},{"name":"G#2","midi":44,"time":90.37586568229149,"velocity":0.8031496062992126,"duration":0.23859802864583912},{"name":"B2","midi":47,"time":90.61868668489566,"velocity":0.8031496062992126,"duration":0.26815884635416865},{"name":"E3","midi":52,"time":90.8952914791665,"velocity":0.8031496062992126,"duration":1.435811145833327},{"name":"E5","midi":76,"time":94.05407599999982,"velocity":0.8031496062992126,"duration":0.18158788020834038},{"name":"E5","midi":76,"time":94.25677874999982,"velocity":0.8031496062992126,"duration":0.8023650520833314},{"name":"E4","midi":64,"time":94.45948149999982,"velocity":0.8031496062992126,"duration":0.20059126302083996},{"name":"F#4","midi":66,"time":94.66218424999983,"velocity":0.8031496062992126,"duration":0.20059126302083996},{"name":"G#4","midi":68,"time":94.86488699999983,"velocity":0.8031496062992126,"duration":0.20059126302082575},{"name":"A4","midi":69,"time":95.06758974999981,"velocity":0.8031496062992126,"duration":0.20059126302083996},{"name":"B4","midi":71,"time":95.27029249999981,"velocity":0.8031496062992126,"duration":0.20059126302083996},{"name":"C#5","midi":73,"time":95.47299524999981,"velocity":0.8031496062992126,"duration":0.20059126302083996},{"name":"D#5","midi":75,"time":95.67569799999981,"velocity":0.8031496062992126,"duration":0.20059126302083996},{"name":"E5","midi":76,"time":95.87840074999981,"velocity":0.8031496062992126,"duration":0.20059126302083996},{"name":"F#5","midi":78,"time":96.08110349999981,"velocity":0.8031496062992126,"duration":0.20059126302083996},{"name":"G#5","midi":80,"time":96.28380624999981,"velocity":0.8031496062992126,"duration":0.20059126302083996},{"name":"E5","midi":76,"time":96.48650899999981,"velocity":0.8031496062992126,"duration":0.20059126302083996},{"name":"D#4","midi":63,"time":96.68921174999981,"velocity":0.8031496062992126,"duration":0.5912163541666615},{"name":"B5","midi":83,"time":96.68921174999981,"velocity":0.8031496062992126,"duration":0.4032940130208402},{"name":"A5","midi":81,"time":97.09461724999981,"velocity":0.8031496062992126,"duration":0.20059126302082575},{"name":"G#5","midi":80,"time":97.2973199999998,"velocity":0.8031496062992126,"duration":0.20059126302083996},{"name":"F#5","midi":78,"time":97.5000227499998,"velocity":0.8031496062992126,"duration":0.20059126302083996},{"name":"E5","midi":76,"time":97.7027254999998,"velocity":0.8031496062992126,"duration":0.20059126302083996},{"name":"D#5","midi":75,"time":97.9054282499998,"velocity":0.8031496062992126,"duration":0.20059126302083996},{"name":"C#5","midi":73,"time":98.1081309999998,"velocity":0.8031496062992126,"duration":0.20059126302083996},{"name":"B4","midi":71,"time":98.3108337499998,"velocity":0.8031496062992126,"duration":0.29560817708333786},{"name":"A4","midi":69,"time":98.5135364999998,"velocity":0.8031496062992126,"duration":0.20059126302083996},{"name":"G#4","midi":68,"time":98.7162392499998,"velocity":0.8031496062992126,"duration":0.20059126302083996},{"name":"F#4","midi":66,"time":98.9189419999998,"velocity":0.8031496062992126,"duration":0.20059126302083996},{"name":"G#4","midi":68,"time":99.1216447499998,"velocity":0.8031496062992126,"duration":0.4032940130208402},{"name":"B5","midi":83,"time":99.3243474999998,"velocity":0.8031496062992126,"duration":0.20059126302083996},{"name":"E4","midi":64,"time":99.5270502499998,"velocity":0.8031496062992126,"duration":0.4032940130208402},{"name":"G#5","midi":80,"time":99.5270502499998,"velocity":0.8031496062992126,"duration":0.20059126302083996},{"name":"E5","midi":76,"time":99.7297529999998,"velocity":0.8031496062992126,"duration":0.20059126302083996},{"name":"A4","midi":69,"time":99.9324557499998,"velocity":0.8031496062992126,"duration":0.4032940130208402},{"name":"C#5","midi":73,"time":99.9324557499998,"velocity":0.8031496062992126,"duration":0.20059126302083996},{"name":"A5","midi":81,"time":100.1351584999998,"velocity":0.8031496062992126,"duration":0.20059126302083996},{"name":"A3","midi":57,"time":100.3378612499998,"velocity":0.8031496062992126,"duration":0.4032940130208402},{"name":"F#5","midi":78,"time":100.3378612499998,"velocity":0.8031496062992126,"duration":0.20059126302083996},{"name":"D#5","midi":75,"time":100.5405639999998,"velocity":0.8031496062992126,"duration":0.20059126302083996},{"name":"D#4","midi":63,"time":100.7432667499998,"velocity":0.8031496062992126,"duration":0.4032940130208402},{"name":"B4","midi":71,"time":100.7432667499998,"velocity":0.8031496062992126,"duration":0.20059126302083996},{"name":"A5","midi":81,"time":100.9459694999998,"velocity":0.8031496062992126,"duration":0.20059126302083996},{"name":"B3","midi":59,"time":101.1486722499998,"velocity":0.8031496062992126,"duration":0.4032940130208402},{"name":"G#5","midi":80,"time":101.1486722499998,"velocity":0.8031496062992126,"duration":0.20059126302083996},{"name":"F#5","midi":78,"time":101.3513749999998,"velocity":0.8031496062992126,"duration":0.20059126302083996},{"name":"E4","midi":64,"time":101.5540777499998,"velocity":0.8031496062992126,"duration":0.8023650520833314},{"name":"G#5","midi":80,"time":101.5540777499998,"velocity":0.8031496062992126,"duration":0.20059126302083996},{"name":"E5","midi":76,"time":101.7567804999998,"velocity":0.8031496062992126,"duration":0.20059126302083996},{"name":"D#5","midi":75,"time":101.9594832499998,"velocity":0.8031496062992126,"duration":0.20059126302083996},{"name":"C#5","midi":73,"time":102.1621859999998,"velocity":0.8031496062992126,"duration":0.20059126302082575},{"name":"B4","midi":71,"time":102.36488874999979,"velocity":0.8031496062992126,"duration":0.20059126302083996},{"name":"A4","midi":69,"time":102.56759149999979,"velocity":0.8031496062992126,"duration":0.20059126302083996},{"name":"G#4","midi":68,"time":102.7702942499998,"velocity":0.8031496062992126,"duration":0.20059126302083996},{"name":"F#4","midi":66,"time":102.9729969999998,"velocity":0.8031496062992126,"duration":0.20059126302083996},{"name":"E4","midi":64,"time":103.1756997499998,"velocity":0.8031496062992126,"duration":0.20059126302083996},{"name":"D#4","midi":63,"time":103.3784024999998,"velocity":0.8031496062992126,"duration":0.20059126302083996},{"name":"C#4","midi":61,"time":103.5811052499998,"velocity":0.8031496062992126,"duration":0.20059126302083996},{"name":"B3","midi":59,"time":103.7838079999998,"velocity":0.8031496062992126,"duration":0.20059126302083996},{"name":"C#4","midi":61,"time":103.9865107499998,"velocity":0.8031496062992126,"duration":0.4032940130208402},{"name":"G#5","midi":80,"time":104.1892134999998,"velocity":0.8031496062992126,"duration":0.20059126302083996},{"name":"D#4","midi":63,"time":104.3919162499998,"velocity":0.8031496062992126,"duration":0.4032940130208402},{"name":"E5","midi":76,"time":104.3919162499998,"velocity":0.8031496062992126,"duration":0.20059126302083996},{"name":"C#5","midi":73,"time":104.5946189999998,"velocity":0.8031496062992126,"duration":0.20059126302083996},{"name":"C#4","midi":61,"time":104.7973217499998,"velocity":0.8031496062992126,"duration":0.4032940130208402},{"name":"A#4","midi":70,"time":104.7973217499998,"velocity":0.8031496062992126,"duration":0.20059126302083996},{"name":"E5","midi":76,"time":105.0000244999998,"velocity":0.8031496062992126,"duration":0.20059126302083996},{"name":"B3","midi":59,"time":105.2027272499998,"velocity":0.8031496062992126,"duration":0.4032940130208402},{"name":"C#5","midi":73,"time":105.2027272499998,"velocity":0.8031496062992126,"duration":0.20059126302083996},{"name":"A#4","midi":70,"time":105.4054299999998,"velocity":0.8031496062992126,"duration":0.20059126302083996},{"name":"A#3","midi":58,"time":105.6081327499998,"velocity":0.8031496062992126,"duration":0.4032940130208402},{"name":"F#4","midi":66,"time":105.6081327499998,"velocity":0.8031496062992126,"duration":0.20059126302083996},{"name":"E5","midi":76,"time":105.8108354999998,"velocity":0.8031496062992126,"duration":0.20059126302083996},{"name":"F#3","midi":54,"time":106.0135382499998,"velocity":0.8031496062992126,"duration":0.4032940130208402},{"name":"D#5","midi":75,"time":106.0135382499998,"velocity":0.8031496062992126,"duration":0.20059126302083996},{"name":"C#5","midi":73,"time":106.2162409999998,"velocity":0.8031496062992126,"duration":0.20059126302083996},{"name":"B3","midi":59,"time":106.4189437499998,"velocity":0.8031496062992126,"duration":0.4032940130208402},{"name":"D#5","midi":75,"time":106.4189437499998,"velocity":0.8031496062992126,"duration":0.20059126302083996},{"name":"F#5","midi":78,"time":106.6216464999998,"velocity":0.8031496062992126,"duration":0.20059126302083996},{"name":"B2","midi":47,"time":106.8243492499998,"velocity":0.8031496062992126,"duration":0.4032940130208402},{"name":"D#5","midi":75,"time":106.8243492499998,"velocity":0.8031496062992126,"duration":0.20059126302083996},{"name":"B4","midi":71,"time":107.0270519999998,"velocity":0.8031496062992126,"duration":0.20059126302083996},{"name":"C#3","midi":49,"time":107.2297547499998,"velocity":0.8031496062992126,"duration":0.4032940130208402},{"name":"A4","midi":69,"time":107.2297547499998,"velocity":0.8031496062992126,"duration":0.20059126302083996},{"name":"C#5","midi":73,"time":107.4324574999998,"velocity":0.8031496062992126,"duration":0.20059126302083996},{"name":"F#3","midi":54,"time":107.6351602499998,"velocity":0.8031496062992126,"duration":0.4032940130208402},{"name":"A4","midi":69,"time":107.6351602499998,"velocity":0.8031496062992126,"duration":0.20059126302083996},{"name":"F#4","midi":66,"time":107.8378629999998,"velocity":0.8031496062992126,"duration":0.20059126302083996},{"name":"B2","midi":47,"time":108.0405657499998,"velocity":0.8031496062992126,"duration":0.4032940130208402},{"name":"D#4","midi":63,"time":108.0405657499998,"velocity":0.8031496062992126,"duration":0.20059126302083996},{"name":"C#5","midi":73,"time":108.2432684999998,"velocity":0.8031496062992126,"duration":0.20059126302083996},{"name":"D#3","midi":51,"time":108.4459712499998,"velocity":0.8031496062992126,"duration":0.4032940130208402},{"name":"B4","midi":71,"time":108.4459712499998,"velocity":0.8031496062992126,"duration":0.20059126302083996},{"name":"A4","midi":69,"time":108.6486739999998,"velocity":0.8031496062992126,"duration":0.20059126302083996},{"name":"E3","midi":52,"time":108.8513767499998,"velocity":0.8031496062992126,"duration":0.20059126302083996},{"name":"G#4","midi":68,"time":108.8513767499998,"velocity":0.8031496062992126,"duration":0.4011825260416657},{"name":"B3","midi":59,"time":109.0540794999998,"velocity":0.8031496062992126,"duration":0.20059126302082575},{"name":"C#4","midi":61,"time":109.25678224999979,"velocity":0.8031496062992126,"duration":0.20059126302083996},{"name":"D#4","midi":63,"time":109.45948499999979,"velocity":0.8031496062992126,"duration":0.20059126302083996},{"name":"E4","midi":64,"time":109.66218774999979,"velocity":0.8031496062992126,"duration":0.20059126302083996},{"name":"F#4","midi":66,"time":109.86489049999979,"velocity":0.8031496062992126,"duration":0.20059126302083996},{"name":"G#4","midi":68,"time":110.06759324999979,"velocity":0.8031496062992126,"duration":0.20059126302083996},{"name":"A4","midi":69,"time":110.27029599999979,"velocity":0.8031496062992126,"duration":0.20059126302083996},{"name":"B4","midi":71,"time":110.47299874999979,"velocity":0.8031496062992126,"duration":0.20059126302083996},{"name":"C#5","midi":73,"time":110.67570149999979,"velocity":0.8031496062992126,"duration":0.20059126302083996},{"name":"D#4","midi":63,"time":110.87840424999979,"velocity":0.8031496062992126,"duration":0.4032940130208402},{"name":"D#5","midi":75,"time":110.87840424999979,"velocity":0.8031496062992126,"duration":0.20059126302083996},{"name":"B4","midi":71,"time":111.08110699999979,"velocity":0.8031496062992126,"duration":0.20059126302083996},{"name":"C#4","midi":61,"time":111.28380974999979,"velocity":0.8031496062992126,"duration":0.20059126302083996},{"name":"E5","midi":76,"time":111.28380974999979,"velocity":0.8031496062992126,"duration":0.4011825260416657},{"name":"G#4","midi":68,"time":111.48651249999979,"velocity":0.8031496062992126,"duration":0.20059126302082575},{"name":"A4","midi":69,"time":111.68921524999978,"velocity":0.8031496062992126,"duration":0.20059126302083996},{"name":"B4","midi":71,"time":111.89191799999978,"velocity":0.8031496062992126,"duration":0.20059126302083996},{"name":"C#5","midi":73,"time":112.09462074999978,"velocity":0.8031496062992126,"duration":0.20059126302083996},{"name":"D#5","midi":75,"time":112.29732349999978,"velocity":0.8031496062992126,"duration":0.20059126302083996},{"name":"E5","midi":76,"time":112.50002624999978,"velocity":0.8031496062992126,"duration":0.20059126302083996},{"name":"F#5","midi":78,"time":112.70272899999978,"velocity":0.8031496062992126,"duration":0.20059126302083996},{"name":"G#5","midi":80,"time":112.90543174999978,"velocity":0.8031496062992126,"duration":0.20059126302083996},{"name":"A#5","midi":82,"time":113.10813449999978,"velocity":0.8031496062992126,"duration":0.20059126302083996},{"name":"C#4","midi":61,"time":113.31083724999978,"velocity":0.8031496062992126,"duration":0.4032940130208402},{"name":"B5","midi":83,"time":113.31083724999978,"velocity":0.8031496062992126,"duration":0.20059126302083996},{"name":"G#5","midi":80,"time":113.51353999999978,"velocity":0.8031496062992126,"duration":0.20059126302083996},{"name":"F#4","midi":66,"time":113.71624274999978,"velocity":0.8031496062992126,"duration":0.5912163541666615},{"name":"A#5","midi":82,"time":113.71624274999978,"velocity":0.8031496062992126,"duration":0.20059126302083996},{"name":"F#5","midi":78,"time":113.91894549999978,"velocity":0.8031496062992126,"duration":0.20059126302083996},{"name":"C#5","midi":73,"time":114.12164824999978,"velocity":0.8031496062992126,"duration":0.20059126302082575},{"name":"A#4","midi":70,"time":114.32435099999977,"velocity":0.8031496062992126,"duration":0.20059126302083996},{"name":"F#4","midi":66,"time":114.52705374999977,"velocity":0.8031496062992126,"duration":0.4011825260416657},{"name":"C#5","midi":73,"time":114.72975649999977,"velocity":0.8031496062992126,"duration":0.20059126302082575},{"name":"A#4","midi":70,"time":114.93245924999975,"velocity":0.8031496062992126,"duration":0.20059126302083996},{"name":"F#4","midi":66,"time":115.13516199999975,"velocity":0.8031496062992126,"duration":0.20059126302083996},{"name":"E4","midi":64,"time":115.33786474999975,"velocity":0.8031496062992126,"duration":0.20059126302083996},{"name":"G#4","midi":68,"time":115.54056749999975,"velocity":0.8031496062992126,"duration":0.20059126302083996},{"name":"F#4","midi":66,"time":115.74327024999975,"velocity":0.8031496062992126,"duration":0.20059126302083996},{"name":"E4","midi":64,"time":115.94597299999975,"velocity":0.8031496062992126,"duration":0.20059126302083996},{"name":"D#4","midi":63,"time":116.14867574999975,"velocity":0.8031496062992126,"duration":0.20059126302083996},{"name":"F#4","midi":66,"time":116.35137849999975,"velocity":0.8031496062992126,"duration":0.20059126302083996},{"name":"B4","midi":71,"time":116.55408124999975,"velocity":0.8031496062992126,"duration":0.8023650520833314},{"name":"D#5","midi":75,"time":116.75678399999975,"velocity":0.8031496062992126,"duration":0.5912163541666615},{"name":"F#5","midi":78,"time":116.95948674999975,"velocity":0.8031496062992126,"duration":0.4011825260416657},{"name":"E4","midi":64,"time":117.16218949999976,"velocity":0.8031496062992126,"duration":0.20059126302082575},{"name":"D#4","midi":63,"time":117.36489224999974,"velocity":0.8031496062992126,"duration":0.20059126302083996},{"name":"C#4","midi":61,"time":117.56759499999974,"velocity":0.8031496062992126,"duration":0.20059126302083996},{"name":"B3","midi":59,"time":117.77029774999974,"velocity":0.8031496062992126,"duration":0.20059126302083996},{"name":"A3","midi":57,"time":117.97300049999974,"velocity":0.8031496062992126,"duration":0.20059126302083996},{"name":"G#3","midi":56,"time":118.17570324999974,"velocity":0.8031496062992126,"duration":0.20059126302083996},{"name":"A3","midi":57,"time":118.37840599999974,"velocity":0.8031496062992126,"duration":0.20059126302083996},{"name":"G#3","midi":56,"time":118.58110874999974,"velocity":0.8031496062992126,"duration":0.4011825260416657},{"name":"E4","midi":64,"time":118.78381149999974,"velocity":0.8031496062992126,"duration":0.20059126302082575},{"name":"B4","midi":71,"time":118.98651424999973,"velocity":0.8031496062992126,"duration":0.8023650520833314},{"name":"D#5","midi":75,"time":119.18921699999973,"velocity":0.8031496062992126,"duration":0.5912163541666615},{"name":"E5","midi":76,"time":119.39191974999973,"velocity":0.8031496062992126,"duration":0.4011825260416657},{"name":"A3","midi":57,"time":119.59462249999973,"velocity":0.8031496062992126,"duration":0.20059126302082575},{"name":"G#3","midi":56,"time":119.79732524999972,"velocity":0.8031496062992126,"duration":0.20059126302083996},{"name":"F#3","midi":54,"time":120.00002799999972,"velocity":0.8031496062992126,"duration":0.20059126302083996},{"name":"E3","midi":52,"time":120.20273074999972,"velocity":0.8031496062992126,"duration":0.20059126302083996},{"name":"D#3","midi":51,"time":120.40543349999972,"velocity":0.8031496062992126,"duration":0.20059126302083996},{"name":"C#3","midi":49,"time":120.60813624999972,"velocity":0.8031496062992126,"duration":0.20059126302083996},{"name":"E3","midi":52,"time":120.81083899999972,"velocity":0.8031496062992126,"duration":0.20059126302083996},{"name":"A#2","midi":46,"time":121.01354174999972,"velocity":0.8031496062992126,"duration":0.4032940130208402},{"name":"F#4","midi":66,"time":121.21624449999972,"velocity":0.8031496062992126,"duration":0.20059126302083996},{"name":"F#2","midi":42,"time":121.41894724999972,"velocity":0.8031496062992126,"duration":0.4032940130208402},{"name":"C#5","midi":73,"time":121.41894724999972,"velocity":0.8031496062992126,"duration":0.20059126302083996},{"name":"E5","midi":76,"time":121.62164999999972,"velocity":0.8031496062992126,"duration":0.20059126302083996},{"name":"B2","midi":47,"time":121.82435274999972,"velocity":0.8031496062992126,"duration":0.4032940130208402},{"name":"D#5","midi":75,"time":121.82435274999972,"velocity":0.8031496062992126,"duration":0.20059126302083996},{"name":"C#5","midi":73,"time":122.02705549999972,"velocity":0.8031496062992126,"duration":0.20059126302083996},{"name":"D#3","midi":51,"time":122.22975824999972,"velocity":0.8031496062992126,"duration":0.4032940130208402},{"name":"B4","midi":71,"time":122.22975824999972,"velocity":0.8031496062992126,"duration":0.20059126302083996},{"name":"D#5","midi":75,"time":122.43246099999972,"velocity":0.8031496062992126,"duration":0.20059126302083996},{"name":"E3","midi":52,"time":122.63516374999972,"velocity":0.8031496062992126,"duration":0.4032940130208402},{"name":"G#4","midi":68,"time":122.63516374999972,"velocity":0.8031496062992126,"duration":0.20059126302083996},{"name":"C#5","midi":73,"time":122.83786649999972,"velocity":0.8031496062992126,"duration":0.20059126302083996},{"name":"F#3","midi":54,"time":123.04056924999972,"velocity":0.8031496062992126,"duration":0.4032940130208402},{"name":"A#4","midi":70,"time":123.04056924999972,"velocity":0.8031496062992126,"duration":0.20059126302083996},{"name":"E4","midi":64,"time":123.24327199999972,"velocity":0.8031496062992126,"duration":0.20059126302083996},{"name":"B2","midi":47,"time":123.44597474999972,"velocity":0.8031496062992126,"duration":0.4032940130208402},{"name":"D#4","midi":63,"time":123.44597474999972,"velocity":0.8031496062992126,"duration":0.20059126302083996},{"name":"B4","midi":71,"time":123.64867749999972,"velocity":0.8031496062992126,"duration":0.20059126302083996},{"name":"C#3","midi":49,"time":123.85138024999972,"velocity":0.8031496062992126,"duration":0.4032940130208402},{"name":"F#4","midi":66,"time":123.85138024999972,"velocity":0.8031496062992126,"duration":0.20059126302083996},{"name":"D#4","midi":63,"time":124.05408299999972,"velocity":0.8031496062992126,"duration":0.20059126302083996},{"name":"D#3","midi":51,"time":124.25678574999972,"velocity":0.8031496062992126,"duration":0.4032940130208402},{"name":"B3","midi":59,"time":124.25678574999972,"velocity":0.8031496062992126,"duration":0.20059126302083996},{"name":"F#4","midi":66,"time":124.45948849999972,"velocity":0.8031496062992126,"duration":0.20059126302083996},{"name":"E3","midi":52,"time":124.66219124999972,"velocity":0.8031496062992126,"duration":0.4032940130208402},{"name":"G#4","midi":68,"time":124.66219124999972,"velocity":0.8031496062992126,"duration":0.20059126302083996},{"name":"A#4","midi":70,"time":124.86489399999972,"velocity":0.8031496062992126,"duration":0.20059126302083996},{"name":"D#3","midi":51,"time":125.06759674999972,"velocity":0.8031496062992126,"duration":0.4032940130208402},{"name":"B4","midi":71,"time":125.06759674999972,"velocity":0.8031496062992126,"duration":0.29560817708333786},{"name":"F#4","midi":66,"time":125.27029949999972,"velocity":0.8031496062992126,"duration":0.20059126302083996},{"name":"C#3","midi":49,"time":125.47300224999972,"velocity":0.8031496062992126,"duration":0.4032940130208402},{"name":"B4","midi":71,"time":125.47300224999972,"velocity":0.8031496062992126,"duration":0.29560817708333786},{"name":"E4","midi":64,"time":125.67570499999972,"velocity":0.8031496062992126,"duration":0.20059126302083996},{"name":"B2","midi":47,"time":125.87840774999972,"velocity":0.8031496062992126,"duration":0.4032940130208402},{"name":"D#4","midi":63,"time":125.87840774999972,"velocity":0.8031496062992126,"duration":0.20059126302083996},{"name":"B4","midi":71,"time":126.08111049999972,"velocity":0.8031496062992126,"duration":0.20059126302083996},{"name":"C#3","midi":49,"time":126.28381324999972,"velocity":0.8031496062992126,"duration":0.4032940130208402},{"name":"F#4","midi":66,"time":126.28381324999972,"velocity":0.8031496062992126,"duration":0.20059126302083996},{"name":"D#4","midi":63,"time":126.48651599999972,"velocity":0.8031496062992126,"duration":0.20059126302083996},{"name":"D#3","midi":51,"time":126.68921874999972,"velocity":0.8031496062992126,"duration":0.4032940130208402},{"name":"B3","midi":59,"time":126.68921874999972,"velocity":0.8031496062992126,"duration":0.20059126302083996},{"name":"F#4","midi":66,"time":126.89192149999973,"velocity":0.8031496062992126,"duration":0.20059126302083996},{"name":"E3","midi":52,"time":127.09462424999973,"velocity":0.8031496062992126,"duration":0.4032940130208402},{"name":"G#4","midi":68,"time":127.09462424999973,"velocity":0.8031496062992126,"duration":0.20059126302083996},{"name":"A#4","midi":70,"time":127.29732699999973,"velocity":0.8031496062992126,"duration":0.20059126302083996},{"name":"D#3","midi":51,"time":127.50002974999973,"velocity":0.8031496062992126,"duration":0.4032940130208402},{"name":"B4","midi":71,"time":127.50002974999973,"velocity":0.8031496062992126,"duration":0.29560817708333786},{"name":"F#4","midi":66,"time":127.70273249999973,"velocity":0.8031496062992126,"duration":0.20059126302083996},{"name":"C#3","midi":49,"time":127.90543524999973,"velocity":0.8031496062992126,"duration":0.403294013020826},{"name":"B4","midi":71,"time":127.90543524999973,"velocity":0.8031496062992126,"duration":0.29560817708332365},{"name":"E4","midi":64,"time":128.1081379999997,"velocity":0.8031496062992126,"duration":0.20059126302083996},{"name":"B2","midi":47,"time":128.31084074999973,"velocity":0.8031496062992126,"duration":0.40329401302085444},{"name":"D#4","midi":63,"time":128.31084074999973,"velocity":0.8031496062992126,"duration":0.20059126302083996},{"name":"F#4","midi":66,"time":128.51354349999974,"velocity":0.8031496062992126,"duration":0.20059126302083996},{"name":"B3","midi":59,"time":128.71624624999976,"velocity":0.8031496062992126,"duration":0.40329401302085444},{"name":"B4","midi":71,"time":128.71624624999976,"velocity":0.8031496062992126,"duration":0.20059126302083996},{"name":"D#5","midi":75,"time":128.91894899999977,"velocity":0.8031496062992126,"duration":0.2956081770833521},{"name":"G#3","midi":56,"time":129.12165174999978,"velocity":0.8031496062992126,"duration":0.40329401302085444},{"name":"E4","midi":64,"time":129.12165174999978,"velocity":0.8031496062992126,"duration":0.20059126302083996},{"name":"D#5","midi":75,"time":129.3243544999998,"velocity":0.8031496062992126,"duration":0.20059126302083996},{"name":"E3","midi":52,"time":129.5270572499998,"velocity":0.8031496062992126,"duration":0.40329401302085444},{"name":"C#5","midi":73,"time":129.5270572499998,"velocity":0.8031496062992126,"duration":0.20059126302083996},{"name":"B4","midi":71,"time":129.72975999999983,"velocity":0.8031496062992126,"duration":0.2956081770833521},{"name":"F#3","midi":54,"time":129.93246274999984,"velocity":0.8031496062992126,"duration":0.40329401302085444},{"name":"E4","midi":64,"time":129.93246274999984,"velocity":0.8031496062992126,"duration":0.20059126302083996},{"name":"C#5","midi":73,"time":130.13516549999986,"velocity":0.8031496062992126,"duration":0.20059126302083996},{"name":"F#2","midi":42,"time":130.33786824999987,"velocity":0.8031496062992126,"duration":0.4011825260416799},{"name":"B4","midi":71,"time":130.33786824999987,"velocity":0.8031496062992126,"duration":0.20059126302083996},{"name":"A#4","midi":70,"time":130.5405709999999,"velocity":0.8031496062992126,"duration":0.20059126302083996},{"name":"B4","midi":71,"time":130.7432737499999,"velocity":0.8031496062992126,"duration":0.8023650520833598},{"name":"B2","midi":47,"time":130.9459764999999,"velocity":0.8031496062992126,"duration":0.20059126302083996},{"name":"D#3","midi":51,"time":131.1486792499999,"velocity":0.8031496062992126,"duration":0.20059126302083996},{"name":"F#3","midi":54,"time":131.35138199999992,"velocity":0.8031496062992126,"duration":0.20059126302083996},{"name":"B3","midi":59,"time":131.55408474999993,"velocity":0.8031496062992126,"duration":1.2141050130207987},{"name":"C#4","midi":61,"time":131.75678749999992,"velocity":0.8031496062992126,"duration":0.20059126302083996},{"name":"D#4","midi":63,"time":131.95949024999993,"velocity":0.8031496062992126,"duration":0.802365052083303},{"name":"F#4","midi":66,"time":132.16219299999992,"velocity":0.8031496062992126,"duration":0.5912163541666473},{"name":"B4","midi":71,"time":132.3648957499999,"velocity":0.8031496062992126,"duration":0.4011825260416515},{"name":"F#5","midi":78,"time":132.9730039999999,"velocity":0.8031496062992126,"duration":0.20059126302083996},{"name":"F#5","midi":78,"time":133.1757067499999,"velocity":0.8031496062992126,"duration":1.2141050130208555},{"name":"E5","midi":76,"time":133.3784094999999,"velocity":0.8031496062992126,"duration":0.20059126302083996},{"name":"D#5","midi":75,"time":133.5811122499999,"velocity":0.8031496062992126,"duration":0.20059126302083996},{"name":"C#5","midi":73,"time":133.78381499999992,"velocity":0.8031496062992126,"duration":0.20059126302083996},{"name":"D#5","midi":75,"time":133.98651774999993,"velocity":0.8031496062992126,"duration":0.4011825260416515},{"name":"B4","midi":71,"time":134.18922049999992,"velocity":0.8031496062992126,"duration":0.20059126302083996},{"name":"A4","midi":69,"time":134.39192324999993,"velocity":0.8031496062992126,"duration":0.20059126302083996},{"name":"G#4","midi":68,"time":134.59462599999995,"velocity":0.8031496062992126,"duration":0.20059126302083996},{"name":"F#4","midi":66,"time":134.79732874999996,"velocity":0.8031496062992126,"duration":0.20059126302083996},{"name":"E4","midi":64,"time":135.00003149999998,"velocity":0.8031496062992126,"duration":0.20059126302083996},{"name":"D#4","midi":63,"time":135.20273425,"velocity":0.8031496062992126,"duration":0.20059126302083996},{"name":"F#4","midi":66,"time":135.405437,"velocity":0.8031496062992126,"duration":0.20059126302083996},{"name":"C4","midi":60,"time":135.60813975000002,"velocity":0.8031496062992126,"duration":1.2141050130208555},{"name":"D#4","midi":63,"time":135.8108425,"velocity":0.8031496062992126,"duration":0.20059126302083996},{"name":"F#4","midi":66,"time":136.01354525000002,"velocity":0.8031496062992126,"duration":0.20059126302083996},{"name":"A4","midi":69,"time":136.21624800000004,"velocity":0.8031496062992126,"duration":0.20059126302083996},{"name":"G#4","midi":68,"time":136.41895075000005,"velocity":0.8031496062992126,"duration":0.4011825260416515},{"name":"C5","midi":72,"time":136.62165350000004,"velocity":0.8031496062992126,"duration":0.20059126302083996},{"name":"D#5","midi":75,"time":136.82435625000005,"velocity":0.8031496062992126,"duration":0.20059126302083996},{"name":"F#5","midi":78,"time":137.02705900000007,"velocity":0.8031496062992126,"duration":0.20059126302083996},{"name":"E5","midi":76,"time":137.22976175000008,"velocity":0.8031496062992126,"duration":0.20059126302083996},{"name":"D#5","midi":75,"time":137.4324645000001,"velocity":0.8031496062992126,"duration":0.20059126302083996},{"name":"C#5","midi":73,"time":137.6351672500001,"velocity":0.8031496062992126,"duration":0.20059126302083996},{"name":"D#5","midi":75,"time":137.83787000000012,"velocity":0.8031496062992126,"duration":0.20059126302083996},{"name":"C#4","midi":61,"time":138.04057275000014,"velocity":0.8031496062992126,"duration":0.403294013020826},{"name":"E5","midi":76,"time":138.04057275000014,"velocity":0.8031496062992126,"duration":0.5912163541666757},{"name":"G#4","midi":68,"time":138.24327550000012,"velocity":0.8031496062992126,"duration":0.20059126302083996},{"name":"C#3","midi":49,"time":138.44597825000014,"velocity":0.8031496062992126,"duration":0.40329401302085444},{"name":"A4","midi":69,"time":138.44597825000014,"velocity":0.8031496062992126,"duration":0.20059126302083996},{"name":"E5","midi":76,"time":138.64868100000015,"velocity":0.8031496062992126,"duration":0.20059126302083996},{"name":"B2","midi":47,"time":138.85138375000017,"velocity":0.8031496062992126,"duration":0.403294013020826},{"name":"D#5","midi":75,"time":138.85138375000017,"velocity":0.8031496062992126,"duration":0.5912163541666757},{"name":"A4","midi":69,"time":139.05408650000015,"velocity":0.8031496062992126,"duration":0.20059126302083996},{"name":"B3","midi":59,"time":139.25678925000017,"velocity":0.8031496062992126,"duration":0.40329401302085444},{"name":"G#4","midi":68,"time":139.25678925000017,"velocity":0.8031496062992126,"duration":0.20059126302083996},{"name":"D#5","midi":75,"time":139.45949200000018,"velocity":0.8031496062992126,"duration":0.20059126302083996},{"name":"A3","midi":57,"time":139.6621947500002,"velocity":0.8031496062992126,"duration":0.403294013020826},{"name":"C#5","midi":73,"time":139.6621947500002,"velocity":0.8031496062992126,"duration":0.5912163541666757},{"name":"G#4","midi":68,"time":139.86489750000018,"velocity":0.8031496062992126,"duration":0.20059126302083996},{"name":"A2","midi":45,"time":140.0676002500002,"velocity":0.8031496062992126,"duration":0.40329401302085444},{"name":"F#4","midi":66,"time":140.0676002500002,"velocity":0.8031496062992126,"duration":0.20059126302083996},{"name":"C#5","midi":73,"time":140.2703030000002,"velocity":0.8031496062992126,"duration":0.20059126302083996},{"name":"G#2","midi":44,"time":140.47300575000023,"velocity":0.8031496062992126,"duration":0.4011825260416515},{"name":"C5","midi":72,"time":140.47300575000023,"velocity":0.8031496062992126,"duration":0.8023650520833598},{"name":"G#4","midi":68,"time":140.6757085000002,"velocity":0.8031496062992126,"duration":0.20059126302083996},{"name":"F#4","midi":66,"time":140.87841125000023,"velocity":0.8031496062992126,"duration":0.20059126302083996},{"name":"E4","midi":64,"time":141.08111400000024,"velocity":0.8031496062992126,"duration":0.20059126302083996},{"name":"D#4","midi":63,"time":141.28381675000026,"velocity":0.8031496062992126,"duration":0.25337843749997546},{"name":"C#4","midi":61,"time":141.48651950000024,"velocity":0.8031496062992126,"duration":0.20059126302081154},{"name":"C4","midi":60,"time":141.68922225000023,"velocity":0.8031496062992126,"duration":0.20059126302083996},{"name":"A#3","midi":58,"time":141.89192500000024,"velocity":0.8031496062992126,"duration":0.20059126302083996},{"name":"G#3","midi":56,"time":142.09462775000026,"velocity":0.8031496062992126,"duration":0.20059126302083996},{"name":"F#3","midi":54,"time":142.29733050000027,"velocity":0.8031496062992126,"duration":0.20059126302083996},{"name":"F3","midi":53,"time":142.50003325000029,"velocity":0.8031496062992126,"duration":0.20059126302083996},{"name":"F#3","midi":54,"time":142.7027360000003,"velocity":0.8031496062992126,"duration":0.20059126302083996},{"name":"F3","midi":53,"time":142.90543875000031,"velocity":0.8031496062992126,"duration":0.403294013020826},{"name":"D5","midi":74,"time":143.1081415000003,"velocity":0.8031496062992126,"duration":0.20059126302083996},{"name":"G#3","midi":56,"time":143.31084425000032,"velocity":0.8031496062992126,"duration":0.40329401302085444},{"name":"B4","midi":71,"time":143.31084425000032,"velocity":0.8031496062992126,"duration":0.20059126302083996},{"name":"G#4","midi":68,"time":143.51354700000033,"velocity":0.8031496062992126,"duration":0.20059126302083996},{"name":"C#4","midi":61,"time":143.71624975000034,"velocity":0.8031496062992126,"duration":0.40329401302085444},{"name":"F4","midi":65,"time":143.71624975000034,"velocity":0.8031496062992126,"duration":0.20059126302083996},{"name":"D5","midi":74,"time":143.91895250000036,"velocity":0.8031496062992126,"duration":0.20059126302083996},{"name":"B3","midi":59,"time":144.12165525000037,"velocity":0.8031496062992126,"duration":0.40329401302085444},{"name":"B4","midi":71,"time":144.12165525000037,"velocity":0.8031496062992126,"duration":0.20059126302083996},{"name":"F4","midi":65,"time":144.3243580000004,"velocity":0.8031496062992126,"duration":0.20059126302083996},{"name":"C#4","midi":61,"time":144.5270607500004,"velocity":0.8031496062992126,"duration":0.403294013020826},{"name":"B4","midi":71,"time":144.7297635000004,"velocity":0.8031496062992126,"duration":0.20059126302083996},{"name":"C#3","midi":49,"time":144.9324662500004,"velocity":0.8031496062992126,"duration":0.40329401302085444},{"name":"A4","midi":69,"time":144.9324662500004,"velocity":0.8031496062992126,"duration":0.20059126302083996},{"name":"G#4","midi":68,"time":145.13516900000042,"velocity":0.8031496062992126,"duration":0.20059126302083996},{"name":"F#3","midi":54,"time":145.33787175000043,"velocity":0.8031496062992126,"duration":0.40329401302085444},{"name":"A4","midi":69,"time":145.33787175000043,"velocity":0.8031496062992126,"duration":0.20059126302083996},{"name":"F#4","midi":66,"time":145.54057450000045,"velocity":0.8031496062992126,"duration":0.20059126302083996},{"name":"A3","midi":57,"time":145.74327725000046,"velocity":0.8031496062992126,"duration":0.40329401302085444},{"name":"F4","midi":65,"time":145.74327725000046,"velocity":0.8031496062992126,"duration":0.20059126302083996},{"name":"F#4","midi":66,"time":145.94598000000047,"velocity":0.8031496062992126,"duration":0.20059126302083996},{"name":"D#3","midi":51,"time":146.1486827500005,"velocity":0.8031496062992126,"duration":0.403294013020826},{"name":"C5","midi":72,"time":146.1486827500005,"velocity":0.8031496062992126,"duration":0.29560817708332365},{"name":"F#4","midi":66,"time":146.35138550000048,"velocity":0.8031496062992126,"duration":0.20059126302083996},{"name":"F#3","midi":54,"time":146.5540882500005,"velocity":0.8031496062992126,"duration":0.403294013020826},{"name":"C#5","midi":73,"time":146.5540882500005,"velocity":0.8031496062992126,"duration":0.29560817708332365},{"name":"F#4","midi":66,"time":146.75679100000048,"velocity":0.8031496062992126,"duration":0.20059126302083996},{"name":"C3","midi":48,"time":146.9594937500005,"velocity":0.8031496062992126,"duration":0.403294013020826},{"name":"D#5","midi":75,"time":146.9594937500005,"velocity":0.8031496062992126,"duration":0.29560817708332365},{"name":"F#4","midi":66,"time":147.16219650000048,"velocity":0.8031496062992126,"duration":0.20059126302083996},{"name":"C4","midi":60,"time":147.3648992500005,"velocity":0.8031496062992126,"duration":0.40329401302085444},{"name":"G#4","midi":68,"time":147.3648992500005,"velocity":0.8031496062992126,"duration":0.20059126302083996},{"name":"D#4","midi":63,"time":147.5676020000005,"velocity":0.8031496062992126,"duration":0.20059126302083996},{"name":"C#4","midi":61,"time":147.77030475000052,"velocity":0.8031496062992126,"duration":0.40329401302085444},{"name":"E4","midi":64,"time":147.77030475000052,"velocity":0.8031496062992126,"duration":0.20059126302083996},{"name":"C#5","midi":73,"time":147.97300750000053,"velocity":0.8031496062992126,"duration":0.20059126302083996},{"name":"F#3","midi":54,"time":148.17571025000055,"velocity":0.8031496062992126,"duration":0.40329401302085444},{"name":"A4","midi":69,"time":148.17571025000055,"velocity":0.8031496062992126,"duration":0.20059126302083996},{"name":"F#4","midi":66,"time":148.37841300000056,"velocity":0.8031496062992126,"duration":0.20059126302083996},{"name":"A3","midi":57,"time":148.58111575000058,"velocity":0.8031496062992126,"duration":0.40329401302085444},{"name":"D#4","midi":63,"time":148.58111575000058,"velocity":0.8031496062992126,"duration":0.20059126302083996},{"name":"A4","midi":69,"time":148.7838185000006,"velocity":0.8031496062992126,"duration":0.20059126302083996},{"name":"D#3","midi":51,"time":148.9865212500006,"velocity":0.8031496062992126,"duration":0.40329401302085444},{"name":"F#4","midi":66,"time":148.9865212500006,"velocity":0.8031496062992126,"duration":0.20059126302083996},{"name":"D#4","midi":63,"time":149.18922400000062,"velocity":0.8031496062992126,"duration":0.20059126302083996},{"name":"G#3","midi":56,"time":149.39192675000064,"velocity":0.8031496062992126,"duration":0.40329401302085444},{"name":"C4","midi":60,"time":149.39192675000064,"velocity":0.8031496062992126,"duration":0.20059126302083996},{"name":"A4","midi":69,"time":149.59462950000065,"velocity":0.8031496062992126,"duration":0.20059126302083996},{"name":"G#2","midi":44,"time":149.79733225000066,"velocity":0.8031496062992126,"duration":0.40329401302085444},{"name":"G#4","midi":68,"time":149.79733225000066,"velocity":0.8031496062992126,"duration":0.20059126302083996},{"name":"F#4","midi":66,"time":150.00003500000068,"velocity":0.8031496062992126,"duration":0.20059126302083996},{"name":"C#3","midi":49,"time":150.2027377500007,"velocity":0.8031496062992126,"duration":0.40329401302085444},{"name":"E4","midi":64,"time":150.2027377500007,"velocity":0.8031496062992126,"duration":0.20059126302083996},{"name":"D#4","midi":63,"time":150.4054405000007,"velocity":0.8031496062992126,"duration":0.20059126302083996},{"name":"C#2","midi":37,"time":150.60814325000072,"velocity":0.8031496062992126,"duration":0.4011825260416799},{"name":"C#4","midi":61,"time":150.60814325000072,"velocity":0.8031496062992126,"duration":0.20059126302083996},{"name":"C4","midi":60,"time":150.81084600000074,"velocity":0.8031496062992126,"duration":0.20059126302083996},{"name":"C#4","midi":61,"time":151.01354875000075,"velocity":0.8031496062992126,"duration":0.20059126302083996},{"name":"D#4","midi":63,"time":151.21625150000077,"velocity":0.8031496062992126,"duration":0.20059126302083996},{"name":"E4","midi":64,"time":151.41895425000078,"velocity":0.8031496062992126,"duration":0.20059126302083996},{"name":"F#4","midi":66,"time":151.6216570000008,"velocity":0.8031496062992126,"duration":0.20059126302083996},{"name":"G#4","midi":68,"time":151.8243597500008,"velocity":0.8031496062992126,"duration":0.20059126302083996},{"name":"A4","midi":69,"time":152.02706250000082,"velocity":0.8031496062992126,"duration":0.20059126302083996},{"name":"B4","midi":71,"time":152.22976525000084,"velocity":0.8031496062992126,"duration":0.20059126302083996},{"name":"A4","midi":69,"time":152.43246800000085,"velocity":0.8031496062992126,"duration":0.20059126302083996},{"name":"G#3","midi":56,"time":152.63517075000087,"velocity":0.8031496062992126,"duration":0.20059126302083996},{"name":"B4","midi":71,"time":152.63517075000087,"velocity":0.8031496062992126,"duration":0.5912163541667041},{"name":"B3","midi":59,"time":152.83787350000088,"velocity":0.8031496062992126,"duration":0.20059126302083996},{"name":"C#4","midi":61,"time":153.0405762500009,"velocity":0.8031496062992126,"duration":0.20059126302083996},{"name":"D#4","midi":63,"time":153.2432790000009,"velocity":0.8031496062992126,"duration":0.20059126302083996},{"name":"E4","midi":64,"time":153.44598175000093,"velocity":0.8031496062992126,"duration":0.20059126302083996},{"name":"F#4","midi":66,"time":153.64868450000094,"velocity":0.8031496062992126,"duration":0.20059126302083996},{"name":"G#4","midi":68,"time":153.85138725000095,"velocity":0.8031496062992126,"duration":0.20059126302083996},{"name":"A4","midi":69,"time":154.05409000000097,"velocity":0.8031496062992126,"duration":0.20059126302083996},{"name":"B4","midi":71,"time":154.25679275000098,"velocity":0.8031496062992126,"duration":0.20059126302083996},{"name":"C#5","midi":73,"time":154.459495500001,"velocity":0.8031496062992126,"duration":0.20059126302083996},{"name":"D5","midi":74,"time":154.662198250001,"velocity":0.8031496062992126,"duration":0.20059126302083996},{"name":"B4","midi":71,"time":154.86490100000103,"velocity":0.8031496062992126,"duration":0.20059126302083996},{"name":"C#5","midi":73,"time":155.06760375000104,"velocity":0.8031496062992126,"duration":0.8023650520833598},{"name":"A4","midi":69,"time":155.27030650000103,"velocity":0.8031496062992126,"duration":0.20059126302083996},{"name":"E4","midi":64,"time":155.47300925000104,"velocity":0.8031496062992126,"duration":0.20059126302083996},{"name":"C#4","midi":61,"time":155.67571200000106,"velocity":0.8031496062992126,"duration":0.20059126302083996},{"name":"A3","midi":57,"time":155.87841475000107,"velocity":0.8031496062992126,"duration":0.20059126302083996},{"name":"E4","midi":64,"time":156.08111750000108,"velocity":0.8031496062992126,"duration":0.20059126302083996},{"name":"C#4","midi":61,"time":156.2838202500011,"velocity":0.8031496062992126,"duration":0.20059126302083996},{"name":"A4","midi":69,"time":156.2838202500011,"velocity":0.8031496062992126,"duration":0.40329401302085444},{"name":"A3","midi":57,"time":156.4865230000011,"velocity":0.8031496062992126,"duration":0.20059126302083996},{"name":"G#3","midi":56,"time":156.68922575000113,"velocity":0.8031496062992126,"duration":0.20059126302083996},{"name":"C#5","midi":73,"time":156.68922575000113,"velocity":0.8031496062992126,"duration":0.40329401302085444},{"name":"B3","midi":59,"time":156.89192850000114,"velocity":0.8031496062992126,"duration":0.20059126302083996},{"name":"A3","midi":57,"time":157.09463125000116,"velocity":0.8031496062992126,"duration":0.20059126302083996},{"name":"E5","midi":76,"time":157.09463125000116,"velocity":0.8031496062992126,"duration":0.40329401302085444},{"name":"G#3","midi":56,"time":157.29733400000117,"velocity":0.8031496062992126,"duration":0.20059126302083996},{"name":"F#3","midi":54,"time":157.5000367500012,"velocity":0.8031496062992126,"duration":0.20059126302083996},{"name":"G#5","midi":80,"time":157.5000367500012,"velocity":0.8031496062992126,"duration":0.09923988802083272},{"name":"A5","midi":81,"time":157.6013881250012,"velocity":0.8031496062992126,"duration":0.09923988802083272},{"name":"F#4","midi":66,"time":157.7027395000012,"velocity":0.8031496062992126,"duration":0.20059126302083996},{"name":"B5","midi":83,"time":157.7027395000012,"velocity":0.8031496062992126,"duration":0.09923988802083272},{"name":"A5","midi":81,"time":157.8040908750012,"velocity":0.8031496062992126,"duration":0.09923988802083272},{"name":"C#4","midi":61,"time":157.90544225000122,"velocity":0.8031496062992126,"duration":0.20059126302083996},{"name":"B5","midi":83,"time":157.90544225000122,"velocity":0.8031496062992126,"duration":0.09923988802083272},{"name":"A5","midi":81,"time":158.00679362500122,"velocity":0.8031496062992126,"duration":0.09923988802083272},{"name":"A3","midi":57,"time":158.10814500000123,"velocity":0.8031496062992126,"duration":0.20059126302083996},{"name":"B5","midi":83,"time":158.10814500000123,"velocity":0.8031496062992126,"duration":0.09923988802083272},{"name":"A5","midi":81,"time":158.20949637500124,"velocity":0.8031496062992126,"duration":0.09923988802083272},{"name":"F#3","midi":54,"time":158.31084775000124,"velocity":0.8031496062992126,"duration":0.20059126302083996},{"name":"B5","midi":83,"time":158.31084775000124,"velocity":0.8031496062992126,"duration":0.09923988802083272},{"name":"A5","midi":81,"time":158.41219912500125,"velocity":0.8031496062992126,"duration":0.09923988802083272},{"name":"C#4","midi":61,"time":158.51355050000126,"velocity":0.8031496062992126,"duration":0.20059126302083996},{"name":"B5","midi":83,"time":158.51355050000126,"velocity":0.8031496062992126,"duration":0.09923988802083272},{"name":"A5","midi":81,"time":158.61490187500127,"velocity":0.8031496062992126,"duration":0.09923988802083272},{"name":"A3","midi":57,"time":158.71625325000127,"velocity":0.8031496062992126,"duration":0.20059126302083996},{"name":"B5","midi":83,"time":158.71625325000127,"velocity":0.8031496062992126,"duration":0.09923988802083272},{"name":"A5","midi":81,"time":158.81760462500128,"velocity":0.8031496062992126,"duration":0.09923988802083272},{"name":"F#3","midi":54,"time":158.9189560000013,"velocity":0.8031496062992126,"duration":0.20059126302083996},{"name":"B5","midi":83,"time":158.9189560000013,"velocity":0.8031496062992126,"duration":0.09923988802083272},{"name":"A5","midi":81,"time":159.0203073750013,"velocity":0.8031496062992126,"duration":0.09923988802083272},{"name":"E3","midi":52,"time":159.1216587500013,"velocity":0.8031496062992126,"duration":0.20059126302083996},{"name":"B5","midi":83,"time":159.1216587500013,"velocity":0.8031496062992126,"duration":0.09923988802083272},{"name":"A5","midi":81,"time":159.2230101250013,"velocity":0.8031496062992126,"duration":0.09923988802083272},{"name":"G#3","midi":56,"time":159.32436150000132,"velocity":0.8031496062992126,"duration":0.20059126302083996},{"name":"B5","midi":83,"time":159.32436150000132,"velocity":0.8031496062992126,"duration":0.09923988802083272},{"name":"A5","midi":81,"time":159.42571287500132,"velocity":0.8031496062992126,"duration":0.09923988802083272},{"name":"F#3","midi":54,"time":159.52706425000133,"velocity":0.8031496062992126,"duration":0.20059126302083996},{"name":"B5","midi":83,"time":159.52706425000133,"velocity":0.8031496062992126,"duration":0.09923988802083272},{"name":"A5","midi":81,"time":159.62841562500134,"velocity":0.8031496062992126,"duration":0.09923988802083272},{"name":"E3","midi":52,"time":159.72976700000135,"velocity":0.8031496062992126,"duration":0.20059126302083996},{"name":"B5","midi":83,"time":159.72976700000135,"velocity":0.8031496062992126,"duration":0.09923988802083272},{"name":"A5","midi":81,"time":159.83111837500135,"velocity":0.8031496062992126,"duration":0.3019426380208472},{"name":"D#3","midi":51,"time":159.93246975000136,"velocity":0.8031496062992126,"duration":0.40329401302085444},{"name":"B4","midi":71,"time":160.13517250000137,"velocity":0.8031496062992126,"duration":0.20059126302083996},{"name":"B2","midi":47,"time":160.3378752500014,"velocity":0.8031496062992126,"duration":0.40329401302085444},{"name":"F#5","midi":78,"time":160.3378752500014,"velocity":0.8031496062992126,"duration":0.20059126302083996},{"name":"A5","midi":81,"time":160.5405780000014,"velocity":0.8031496062992126,"duration":0.20059126302083996},{"name":"E3","midi":52,"time":160.74328075000142,"velocity":0.8031496062992126,"duration":0.40329401302085444},{"name":"G#5","midi":80,"time":160.74328075000142,"velocity":0.8031496062992126,"duration":0.20059126302083996},{"name":"F#5","midi":78,"time":160.94598350000143,"velocity":0.8031496062992126,"duration":0.20059126302083996},{"name":"G#3","midi":56,"time":161.14868625000145,"velocity":0.8031496062992126,"duration":0.40329401302085444},{"name":"E5","midi":76,"time":161.14868625000145,"velocity":0.8031496062992126,"duration":0.20059126302083996},{"name":"G#5","midi":80,"time":161.35138900000146,"velocity":0.8031496062992126,"duration":0.20059126302083996},{"name":"A3","midi":57,"time":161.55409175000148,"velocity":0.8031496062992126,"duration":0.40329401302085444},{"name":"C#5","midi":73,"time":161.55409175000148,"velocity":0.8031496062992126,"duration":0.20059126302083996},{"name":"F#5","midi":78,"time":161.7567945000015,"velocity":0.8031496062992126,"duration":0.20059126302083996},{"name":"B3","midi":59,"time":161.9594972500015,"velocity":0.8031496062992126,"duration":0.40329401302085444},{"name":"D#5","midi":75,"time":161.9594972500015,"velocity":0.8031496062992126,"duration":0.20059126302083996},{"name":"A4","midi":69,"time":162.16220000000152,"velocity":0.8031496062992126,"duration":0.20481423697916057},{"name":"G#4","midi":68,"time":162.36912572395985,"velocity":0.8031496062992126,"duration":0.20481423697916057},{"name":"C#4","midi":61,"time":162.36912572395985,"velocity":0.8031496062992126,"duration":0.41385144791664175},{"name":"E5","midi":76,"time":162.57816293489734,"velocity":0.8031496062992126,"duration":0.20481423697916057},{"name":"B4","midi":71,"time":162.78720014583482,"velocity":0.8031496062992126,"duration":0.20481423697916057},{"name":"B3","midi":59,"time":162.78720014583482,"velocity":0.8031496062992126,"duration":0.20481423697916057},{"name":"G#4","midi":68,"time":162.9962373567723,"velocity":0.8031496062992126,"duration":0.20481423697916057},{"name":"A3","midi":57,"time":162.9962373567723,"velocity":0.8031496062992126,"duration":0.20481423697916057},{"name":"E4","midi":64,"time":163.20527456770978,"velocity":0.8031496062992126,"duration":0.20481423697916057},{"name":"G#3","midi":56,"time":163.20527456770978,"velocity":0.8031496062992126,"duration":0.41385144791664175},{"name":"B4","midi":71,"time":163.41431177864726,"velocity":0.8031496062992126,"duration":0.20481423697916057},{"name":"C#5","midi":73,"time":163.62334898958474,"velocity":0.8031496062992126,"duration":0.20481423697916057},{"name":"A3","midi":57,"time":163.62334898958474,"velocity":0.8031496062992126,"duration":0.41385144791664175},{"name":"D#5","midi":75,"time":163.83238620052222,"velocity":0.8031496062992126,"duration":0.20481423697916057},{"name":"E5","midi":76,"time":164.03931192448056,"velocity":0.8031496062992126,"duration":0.3040541250000217},{"name":"G#3","midi":56,"time":164.03931192448056,"velocity":0.8031496062992126,"duration":0.4138514479166986},{"name":"B4","midi":71,"time":164.24834913541807,"velocity":0.8031496062992126,"duration":0.204814236979189},{"name":"E5","midi":76,"time":164.45738634635558,"velocity":0.8031496062992126,"duration":0.3040541250000217},{"name":"F#3","midi":54,"time":164.45738634635558,"velocity":0.8031496062992126,"duration":0.4138514479166986},{"name":"A4","midi":69,"time":164.6664235572931,"velocity":0.8031496062992126,"duration":0.204814236979189},{"name":"G#4","midi":68,"time":164.8754607682306,"velocity":0.8031496062992126,"duration":0.20481423697916057},{"name":"E3","midi":52,"time":164.8754607682306,"velocity":0.8031496062992126,"duration":0.41385144791664175},{"name":"E5","midi":76,"time":165.08449797916808,"velocity":0.8031496062992126,"duration":0.20481423697916057},{"name":"B4","midi":71,"time":165.29353519010556,"velocity":0.8031496062992126,"duration":0.20481423697916057},{"name":"F#3","midi":54,"time":165.29353519010556,"velocity":0.8031496062992126,"duration":0.41385144791664175},{"name":"G#4","midi":68,"time":165.50257240104304,"velocity":0.8031496062992126,"duration":0.20481423697916057},{"name":"E4","midi":64,"time":165.70949812500137,"velocity":0.8031496062992126,"duration":0.20481423697916057},{"name":"G#3","midi":56,"time":165.70949812500137,"velocity":0.8031496062992126,"duration":0.41385144791664175},{"name":"B4","midi":71,"time":165.91853533593886,"velocity":0.8031496062992126,"duration":0.20481423697916057},{"name":"C#5","midi":73,"time":166.12757254687634,"velocity":0.8031496062992126,"duration":0.20481423697916057},{"name":"A3","midi":57,"time":166.12757254687634,"velocity":0.8031496062992126,"duration":0.41385144791664175},{"name":"D#5","midi":75,"time":166.33660975781382,"velocity":0.8031496062992126,"duration":0.20481423697916057},{"name":"E5","midi":76,"time":166.5456469687513,"velocity":0.8031496062992126,"duration":0.3040541250000217},{"name":"G#3","midi":56,"time":166.5456469687513,"velocity":0.8031496062992126,"duration":0.4138514479166986},{"name":"B4","midi":71,"time":166.7546841796888,"velocity":0.8031496062992126,"duration":0.204814236979189},{"name":"E5","midi":76,"time":166.96372139062632,"velocity":0.8031496062992126,"duration":0.3040541250000217},{"name":"F#3","midi":54,"time":166.96372139062632,"velocity":0.8031496062992126,"duration":0.4138514479166986},{"name":"A4","midi":69,"time":167.17275860156383,"velocity":0.8031496062992126,"duration":0.2090372109375096},{"name":"E3","midi":52,"time":167.38601878645966,"velocity":0.8031496062992126,"duration":0.4244088828125143},{"name":"G#4","midi":68,"time":167.38601878645966,"velocity":0.8031496062992126,"duration":0.2090372109375096},{"name":"B4","midi":71,"time":167.60139045833466,"velocity":0.8031496062992126,"duration":0.2090372109375096},{"name":"G#3","midi":56,"time":167.81676213020967,"velocity":0.8031496062992126,"duration":0.4244088828124859},{"name":"E5","midi":76,"time":167.81676213020967,"velocity":0.8031496062992126,"duration":0.2090372109375096},{"name":"G#5","midi":80,"time":168.0300223151055,"velocity":0.8031496062992126,"duration":0.32094602083333257},{"name":"A4","midi":69,"time":168.251728447918,"velocity":0.8031496062992126,"duration":0.2132601848958302},{"name":"C#4","midi":61,"time":168.251728447918,"velocity":0.8031496062992126,"duration":0.43707780468750457},{"name":"G#5","midi":80,"time":168.4734345807305,"velocity":0.8031496062992126,"duration":0.2132601848958302},{"name":"F#5","midi":78,"time":168.695140713543,"velocity":0.8031496062992126,"duration":0.2132601848958302},{"name":"A3","midi":57,"time":168.695140713543,"velocity":0.8031496062992126,"duration":0.43707780468750457},{"name":"E5","midi":76,"time":168.9168468463555,"velocity":0.8031496062992126,"duration":0.3293919687500022},{"name":"B3","midi":59,"time":169.14277595312635,"velocity":0.8031496062992126,"duration":0.4497467265624948},{"name":"A4","midi":69,"time":169.14277595312635,"velocity":0.8031496062992126,"duration":0.21959464583332533},{"name":"F#5","midi":78,"time":169.37081654687634,"velocity":0.8031496062992126,"duration":0.21959464583332533},{"name":"B2","midi":47,"time":169.59885714062634,"velocity":0.8031496062992126,"duration":0.4476352395833203},{"name":"E5","midi":76,"time":169.59885714062634,"velocity":0.8031496062992126,"duration":0.21959464583332533},{"name":"D#5","midi":75,"time":169.82689773437633,"velocity":0.8031496062992126,"duration":0.22592910677082045},{"name":"E5","midi":76,"time":170.05916130208465,"velocity":0.8031496062992126,"duration":0.9248312968749985},{"name":"E3","midi":52,"time":170.2956478437513,"velocity":0.8031496062992126,"duration":0.22592910677082045},{"name":"G#3","midi":56,"time":170.53213438541798,"velocity":0.8031496062992126,"duration":0.22592910677082045},{"name":"B3","midi":59,"time":170.76650944010547,"velocity":0.8031496062992126,"duration":0.232263567708344},{"name":"E4","midi":64,"time":171.00721895573048,"velocity":0.8031496062992126,"duration":2.375422851562547},{"name":"F#4","midi":66,"time":171.2479284713555,"velocity":0.8031496062992126,"duration":0.232263567708344},{"name":"G#4","midi":68,"time":171.49074947395968,"velocity":0.8031496062992126,"duration":0.952280627604182},{"name":"B4","midi":71,"time":171.73568196354302,"velocity":0.8031496062992126,"duration":0.6989021901041781},{"name":"E5","midi":76,"time":172.09463475000135,"velocity":0.8031496062992126,"duration":1.619510513020856},{"name":"E3","midi":52,"time":176.75679800000137,"velocity":0.8031496062992126,"duration":0.8086995130208834},{"name":"G#3","midi":56,"time":176.75679800000137,"velocity":0.8031496062992126,"duration":0.8086995130208834},{"name":"B3","midi":59,"time":176.75679800000137,"velocity":0.8031496062992126,"duration":0.8086995130208834},{"name":"G#4","midi":68,"time":176.75679800000137,"velocity":0.8031496062992126,"duration":0.3019426380208472},{"name":"E4","midi":64,"time":176.75679800000137,"velocity":0.8031496062992126,"duration":0.8023650520833883},{"name":"A4","midi":69,"time":177.0608521250014,"velocity":0.8031496062992126,"duration":0.09923988802083272},{"name":"G#4","midi":68,"time":177.1622035000014,"velocity":0.8031496062992126,"duration":0.09923988802083272},{"name":"F#4","midi":66,"time":177.2635548750014,"velocity":0.8031496062992126,"duration":0.09923988802083272},{"name":"G#4","midi":68,"time":177.3649062500014,"velocity":0.8031496062992126,"duration":0.09923988802083272},{"name":"A4","midi":69,"time":177.46625762500142,"velocity":0.8031496062992126,"duration":0.09923988802083272},{"name":"D#3","midi":51,"time":177.56760900000143,"velocity":0.8031496062992126,"duration":1.6195105130209413},{"name":"G#3","midi":56,"time":177.56760900000143,"velocity":0.8031496062992126,"duration":1.6195105130209413},{"name":"C4","midi":60,"time":177.56760900000143,"velocity":0.8031496062992126,"duration":1.6195105130209413},{"name":"G#4","midi":68,"time":177.56760900000143,"velocity":0.8031496062992126,"duration":0.09923988802083272},{"name":"F#4","midi":66,"time":177.66896037500143,"velocity":0.8031496062992126,"duration":0.09923988802083272},{"name":"G#4","midi":68,"time":177.77031175000144,"velocity":0.8031496062992126,"duration":0.09923988802083272},{"name":"F#4","midi":66,"time":177.87166312500145,"velocity":0.8031496062992126,"duration":0.09923988802083272},{"name":"G#4","midi":68,"time":177.97301450000145,"velocity":0.8031496062992126,"duration":0.09923988802083272},{"name":"F#4","midi":66,"time":178.07436587500146,"velocity":0.8031496062992126,"duration":0.09923988802083272},{"name":"G#4","midi":68,"time":178.17571725000147,"velocity":0.8031496062992126,"duration":0.09923988802083272},{"name":"F#4","midi":66,"time":178.27706862500148,"velocity":0.8031496062992126,"duration":0.09923988802083272},{"name":"G#4","midi":68,"time":178.37842000000148,"velocity":0.8031496062992126,"duration":0.09923988802083272},{"name":"F#4","midi":66,"time":178.4797713750015,"velocity":0.8031496062992126,"duration":0.09923988802083272},{"name":"G#4","midi":68,"time":178.5811227500015,"velocity":0.8031496062992126,"duration":0.09923988802083272},{"name":"F#4","midi":66,"time":178.6824741250015,"velocity":0.8031496062992126,"duration":0.09923988802083272},{"name":"G#4","midi":68,"time":178.7838255000015,"velocity":0.8031496062992126,"duration":0.09923988802083272},{"name":"F#4","midi":66,"time":178.88517687500152,"velocity":0.8031496062992126,"duration":0.09923988802083272},{"name":"E4","midi":64,"time":178.98652825000153,"velocity":0.8031496062992126,"duration":0.09923988802083272},{"name":"F#4","midi":66,"time":179.08787962500153,"velocity":0.8031496062992126,"duration":0.09923988802083272},{"name":"C#3","midi":49,"time":179.18923100000154,"velocity":0.8031496062992126,"duration":0.808699513020855},{"name":"G#3","midi":56,"time":179.18923100000154,"velocity":0.8031496062992126,"duration":1.0135137500000155},{"name":"C#4","midi":61,"time":179.18923100000154,"velocity":0.8031496062992126,"duration":0.808699513020855},{"name":"E4","midi":64,"time":179.18923100000154,"velocity":0.8031496062992126,"duration":0.5912163541666757},{"name":"C#3","midi":49,"time":180.00004200000157,"velocity":0.8031496062992126,"duration":1.6195105130209129},{"name":"A4","midi":69,"time":180.00004200000157,"velocity":0.8031496062992126,"duration":1.6195105130209129},{"name":"E4","midi":64,"time":180.00004200000157,"velocity":0.8031496062992126,"duration":1.6195105130209129},{"name":"B3","midi":59,"time":180.20274475000156,"velocity":0.8031496062992126,"duration":0.20059126302083996},{"name":"A3","midi":57,"time":180.40544750000157,"velocity":0.8031496062992126,"duration":0.20059126302083996},{"name":"G#3","midi":56,"time":180.6081502500016,"velocity":0.8031496062992126,"duration":0.20059126302083996},{"name":"F#3","midi":54,"time":180.8108530000016,"velocity":0.8031496062992126,"duration":0.20059126302083996},{"name":"E3","midi":52,"time":181.01355575000161,"velocity":0.8031496062992126,"duration":0.20059126302083996},{"name":"D#3","midi":51,"time":181.21625850000163,"velocity":0.8031496062992126,"duration":0.20059126302083996},{"name":"E3","midi":52,"time":181.41896125000164,"velocity":0.8031496062992126,"duration":0.20059126302083996},{"name":"D#3","midi":51,"time":181.62166400000166,"velocity":0.8031496062992126,"duration":0.8086995130208834},{"name":"F#3","midi":54,"time":181.62166400000166,"velocity":0.8031496062992126,"duration":0.8086995130208834},{"name":"B3","midi":59,"time":181.62166400000166,"velocity":0.8031496062992126,"duration":0.8086995130208834},{"name":"F#4","midi":66,"time":181.62166400000166,"velocity":0.8031496062992126,"duration":0.8023650520833883},{"name":"A4","midi":69,"time":181.62166400000166,"velocity":0.8031496062992126,"duration":0.3019426380208472},{"name":"B4","midi":71,"time":181.92571812500168,"velocity":0.8031496062992126,"duration":0.09923988802083272},{"name":"A4","midi":69,"time":182.0270695000017,"velocity":0.8031496062992126,"duration":0.09923988802083272},{"name":"G#4","midi":68,"time":182.1284208750017,"velocity":0.8031496062992126,"duration":0.09923988802083272},{"name":"A4","midi":69,"time":182.2297722500017,"velocity":0.8031496062992126,"duration":0.09923988802083272},{"name":"B4","midi":71,"time":182.3311236250017,"velocity":0.8031496062992126,"duration":0.09923988802083272},{"name":"G#3","midi":56,"time":182.43247500000172,"velocity":0.8031496062992126,"duration":0.8086995130208834},{"name":"E3","midi":52,"time":182.43247500000172,"velocity":0.8031496062992126,"duration":1.6195105130209129},{"name":"B3","midi":59,"time":182.43247500000172,"velocity":0.8031496062992126,"duration":0.8086995130208834},{"name":"E4","midi":64,"time":182.43247500000172,"velocity":0.8031496062992126,"duration":1.6195105130209129},{"name":"A4","midi":69,"time":182.43247500000172,"velocity":0.8031496062992126,"duration":0.09923988802083272},{"name":"G#4","midi":68,"time":182.53382637500172,"velocity":0.8031496062992126,"duration":0.09923988802083272},{"name":"A4","midi":69,"time":182.63517775000173,"velocity":0.8031496062992126,"duration":0.09923988802083272},{"name":"G#4","midi":68,"time":182.73652912500174,"velocity":0.8031496062992126,"duration":0.09923988802083272},{"name":"A4","midi":69,"time":182.83788050000175,"velocity":0.8031496062992126,"duration":0.09923988802083272},{"name":"G#4","midi":68,"time":182.93923187500175,"velocity":0.8031496062992126,"duration":0.09923988802083272},{"name":"A4","midi":69,"time":183.04058325000176,"velocity":0.8031496062992126,"duration":0.09923988802083272},{"name":"G#4","midi":68,"time":183.14193462500177,"velocity":0.8031496062992126,"duration":0.09923988802083272},{"name":"C#4","midi":61,"time":183.24328600000177,"velocity":0.8031496062992126,"duration":0.808699513020855},{"name":"A#3","midi":58,"time":183.24328600000177,"velocity":0.8031496062992126,"duration":0.808699513020855},{"name":"A4","midi":69,"time":183.24328600000177,"velocity":0.8031496062992126,"duration":0.09923988802083272},{"name":"G#4","midi":68,"time":183.34463737500178,"velocity":0.8031496062992126,"duration":0.09923988802083272},{"name":"A4","midi":69,"time":183.4459887500018,"velocity":0.8031496062992126,"duration":0.09923988802083272},{"name":"G#4","midi":68,"time":183.5473401250018,"velocity":0.8031496062992126,"duration":0.09923988802083272},{"name":"F#4","midi":66,"time":183.6486915000018,"velocity":0.8031496062992126,"duration":0.403294013020826},{"name":"B2","midi":47,"time":184.0540970000018,"velocity":0.8031496062992126,"duration":1.011402263020841},{"name":"B3","midi":59,"time":184.0540970000018,"velocity":0.8031496062992126,"duration":0.8086995130208265},{"name":"E4","midi":64,"time":184.0540970000018,"velocity":0.8031496062992126,"duration":0.8086995130208265},{"name":"F#4","midi":66,"time":184.0540970000018,"velocity":0.8031496062992126,"duration":0.8086995130208265},{"name":"F#4","midi":66,"time":184.8649080000018,"velocity":0.8031496062992126,"duration":1.2141050130209123},{"name":"B3","midi":59,"time":184.8649080000018,"velocity":0.8031496062992126,"duration":1.6195105130209413},{"name":"D#4","midi":63,"time":184.8649080000018,"velocity":0.8031496062992126,"duration":1.6195105130209413},{"name":"C#3","midi":49,"time":185.06761075000182,"velocity":0.8031496062992126,"duration":0.20059126302083996},{"name":"D#3","midi":51,"time":185.27031350000183,"velocity":0.8031496062992126,"duration":0.20059126302083996},{"name":"E3","midi":52,"time":185.47301625000185,"velocity":0.8031496062992126,"duration":0.20059126302083996},{"name":"F#3","midi":54,"time":185.67571900000186,"velocity":0.8031496062992126,"duration":0.20059126302083996},{"name":"G#3","midi":56,"time":185.87842175000188,"velocity":0.8031496062992126,"duration":0.20059126302083996},{"name":"A3","midi":57,"time":186.0811245000019,"velocity":0.8031496062992126,"duration":0.20059126302083996},{"name":"F#3","midi":54,"time":186.2838272500019,"velocity":0.8031496062992126,"duration":0.20059126302083996},{"name":"G#3","midi":56,"time":186.48653000000192,"velocity":0.8031496062992126,"duration":0.808699513020855},{"name":"B3","midi":59,"time":186.48653000000192,"velocity":0.8031496062992126,"duration":0.808699513020855},{"name":"D#4","midi":63,"time":186.48653000000192,"velocity":0.8031496062992126,"duration":0.8023650520833598},{"name":"B4","midi":71,"time":186.48653000000192,"velocity":0.8031496062992126,"duration":0.09923988802083272},{"name":"G#4","midi":68,"time":186.58788137500193,"velocity":0.8031496062992126,"duration":0.09923988802083272},{"name":"A4","midi":69,"time":186.58788137500193,"velocity":0.8031496062992126,"duration":0.09923988802083272},{"name":"B4","midi":71,"time":186.68923275000193,"velocity":0.8031496062992126,"duration":0.5046453880208333},{"name":"C#5","midi":73,"time":187.19598962500194,"velocity":0.8031496062992126,"duration":0.09923988802083272},{"name":"C#4","midi":61,"time":187.29734100000195,"velocity":0.8031496062992126,"duration":1.6195105130208844},{"name":"B4","midi":71,"time":187.29734100000195,"velocity":0.8031496062992126,"duration":0.10135137500000724},{"name":"E4","midi":64,"time":187.29734100000195,"velocity":0.8031496062992126,"duration":1.6195105130208844},{"name":"A4","midi":69,"time":187.39869237500196,"velocity":0.8031496062992126,"duration":0.10135137500000724},{"name":"B4","midi":71,"time":187.50004375000196,"velocity":0.8031496062992126,"duration":0.10135137500000724},{"name":"A4","midi":69,"time":187.60139512500197,"velocity":0.8031496062992126,"duration":0.10135137500000724},{"name":"B4","midi":71,"time":187.70274650000198,"velocity":0.8031496062992126,"duration":0.10135137500000724},{"name":"A4","midi":69,"time":187.804097875002,"velocity":0.8031496062992126,"duration":0.10135137500000724},{"name":"B4","midi":71,"time":187.905449250002,"velocity":0.8031496062992126,"duration":0.10135137500000724},{"name":"A4","midi":69,"time":188.006800625002,"velocity":0.8031496062992126,"duration":0.5025339010416872},{"name":"B3","midi":59,"time":188.108152000002,"velocity":0.8031496062992126,"duration":0.8086995130208265},{"name":"G#4","midi":68,"time":188.513557500002,"velocity":0.8031496062992126,"duration":0.403294013020826},{"name":"A#3","midi":58,"time":188.918963000002,"velocity":0.8031496062992126,"duration":1.214105013020884},{"name":"C#4","midi":61,"time":188.918963000002,"velocity":0.8031496062992126,"duration":0.8023650520833598},{"name":"F#4","midi":66,"time":188.918963000002,"velocity":0.8031496062992126,"duration":0.8023650520833598},{"name":"C#5","midi":73,"time":188.918963000002,"velocity":0.8031496062992126,"duration":0.403294013020826},{"name":"D#5","midi":75,"time":189.324368500002,"velocity":0.8031496062992126,"duration":0.20059126302083996},{"name":"E5","midi":76,"time":189.52707125000202,"velocity":0.8031496062992126,"duration":0.20059126302083996},{"name":"F#4","midi":66,"time":189.72977400000204,"velocity":0.8031496062992126,"duration":1.214105013020884},{"name":"C#5","midi":73,"time":189.83112537500205,"velocity":0.8031496062992126,"duration":1.108530664062556},{"name":"E5","midi":76,"time":189.93247675000205,"velocity":0.8031496062992126,"duration":1.013513750000044},{"name":"G#3","midi":56,"time":190.13517950000207,"velocity":0.8031496062992126,"duration":0.20059126302083996},{"name":"F#3","midi":54,"time":190.33788225000208,"velocity":0.8031496062992126,"duration":0.20059126302083996},{"name":"B3","midi":59,"time":190.5405850000021,"velocity":0.8031496062992126,"duration":0.8086995130208265},{"name":"B4","midi":71,"time":190.9459905000021,"velocity":0.8031496062992126,"duration":0.403294013020826},{"name":"D#5","midi":75,"time":190.9459905000021,"velocity":0.8031496062992126,"duration":0.403294013020826},{"name":"F#4","midi":66,"time":190.9459905000021,"velocity":0.8031496062992126,"duration":0.403294013020826},{"name":"E3","midi":52,"time":191.3513960000021,"velocity":0.8031496062992126,"duration":0.40329401302085444},{"name":"C#5","midi":73,"time":191.3513960000021,"velocity":0.8031496062992126,"duration":0.20059126302083996},{"name":"E4","midi":64,"time":191.3513960000021,"velocity":0.8031496062992126,"duration":0.4011825260416799},{"name":"A#4","midi":70,"time":191.5540987500021,"velocity":0.8031496062992126,"duration":0.20059126302083996},{"name":"C#3","midi":49,"time":191.75680150000213,"velocity":0.8031496062992126,"duration":0.403294013020826},{"name":"B4","midi":71,"time":191.75680150000213,"velocity":0.8031496062992126,"duration":0.403294013020826},{"name":"D#4","midi":63,"time":191.75680150000213,"velocity":0.8031496062992126,"duration":0.403294013020826},{"name":"F#3","midi":54,"time":192.16220700000213,"velocity":0.8031496062992126,"duration":2.428210026041654},{"name":"C#4","midi":61,"time":192.16220700000213,"velocity":0.8031496062992126,"duration":0.4011825260416799},{"name":"B4","midi":71,"time":192.16220700000213,"velocity":0.8031496062992126,"duration":0.09923988802083272},{"name":"A#4","midi":70,"time":192.26355837500213,"velocity":0.8031496062992126,"duration":0.09923988802083272},{"name":"B4","midi":71,"time":192.36490975000214,"velocity":0.8031496062992126,"duration":0.09923988802083272},{"name":"A#4","midi":70,"time":192.46626112500215,"velocity":0.8031496062992126,"duration":0.9058279140624848},{"name":"D#4","midi":63,"time":192.56761250000213,"velocity":0.8031496062992126,"duration":0.403294013020826},{"name":"F#2","midi":42,"time":192.97301800000213,"velocity":0.8031496062992126,"duration":0.8086995130208265},{"name":"E4","midi":64,"time":192.97301800000213,"velocity":0.8031496062992126,"duration":0.8023650520833314},{"name":"B4","midi":71,"time":193.37842350000213,"velocity":0.8031496062992126,"duration":0.403294013020826},{"name":"B2","midi":47,"time":193.78382900000213,"velocity":0.8031496062992126,"duration":2.428210026041654},{"name":"B4","midi":71,"time":193.78382900000213,"velocity":0.8031496062992126,"duration":0.8023650520833314},{"name":"C#4","midi":61,"time":194.18923450000213,"velocity":0.8031496062992126,"duration":0.403294013020826},{"name":"F#3","midi":54,"time":194.59464000000213,"velocity":0.8031496062992126,"duration":1.435811145833327},{"name":"B4","midi":71,"time":194.59464000000213,"velocity":0.8031496062992126,"duration":1.435811145833327},{"name":"F#4","midi":66,"time":194.59464000000213,"velocity":0.8031496062992126,"duration":1.435811145833327},{"name":"D#4","midi":63,"time":194.59464000000213,"velocity":0.8031496062992126,"duration":1.435811145833327},{"name":"B3","midi":59,"time":196.2162620000021,"velocity":0.8031496062992126,"duration":0.808699513020855},{"name":"D#5","midi":75,"time":196.2162620000021,"velocity":0.8031496062992126,"duration":0.6059967630208405},{"name":"B4","midi":71,"time":196.2162620000021,"velocity":0.8031496062992126,"duration":0.6059967630208405},{"name":"F#4","midi":66,"time":196.2162620000021,"velocity":0.8031496062992126,"duration":0.8023650520833598},{"name":"E5","midi":76,"time":196.82437025000212,"velocity":0.8031496062992126,"duration":0.20059126302083996},{"name":"C#4","midi":61,"time":197.02707300000213,"velocity":0.8031496062992126,"duration":1.6195105130209413},{"name":"A3","midi":57,"time":197.02707300000213,"velocity":0.8031496062992126,"duration":1.6195105130209413},{"name":"D#5","midi":75,"time":197.02707300000213,"velocity":0.8031496062992126,"duration":0.09923988802083272},{"name":"F#4","midi":66,"time":197.02707300000213,"velocity":0.8031496062992126,"duration":1.6195105130209413},{"name":"C#5","midi":73,"time":197.12842437500214,"velocity":0.8031496062992126,"duration":0.09923988802083272},{"name":"D#5","midi":75,"time":197.22977575000215,"velocity":0.8031496062992126,"duration":0.09923988802083272},{"name":"C#5","midi":73,"time":197.33112712500215,"velocity":0.8031496062992126,"duration":0.09923988802083272},{"name":"D#5","midi":75,"time":197.43247850000216,"velocity":0.8031496062992126,"duration":0.09923988802083272},{"name":"C#5","midi":73,"time":197.53382987500217,"velocity":0.8031496062992126,"duration":0.09923988802083272},{"name":"D#5","midi":75,"time":197.63518125000218,"velocity":0.8031496062992126,"duration":0.09923988802083272},{"name":"C#5","midi":73,"time":197.73653262500218,"velocity":0.8031496062992126,"duration":0.09923988802083272},{"name":"D#5","midi":75,"time":197.8378840000022,"velocity":0.8031496062992126,"duration":0.09923988802083272},{"name":"C#5","midi":73,"time":197.9392353750022,"velocity":0.8031496062992126,"duration":0.09923988802083272},{"name":"D#5","midi":75,"time":198.0405867500022,"velocity":0.8031496062992126,"duration":0.09923988802083272},{"name":"C#5","midi":73,"time":198.1419381250022,"velocity":0.8031496062992126,"duration":0.09923988802083272},{"name":"D#5","midi":75,"time":198.24328950000222,"velocity":0.8031496062992126,"duration":0.09923988802083272},{"name":"C#5","midi":73,"time":198.34464087500223,"velocity":0.8031496062992126,"duration":0.09923988802083272},{"name":"C5","midi":72,"time":198.44599225000223,"velocity":0.8031496062992126,"duration":0.09923988802083272},{"name":"C#5","midi":73,"time":198.54734362500224,"velocity":0.8031496062992126,"duration":0.09923988802083272},{"name":"D#4","midi":63,"time":198.64869500000225,"velocity":0.8031496062992126,"duration":0.7812501822916715},{"name":"G#3","midi":56,"time":198.64869500000225,"velocity":0.8031496062992126,"duration":1.011402263020841},{"name":"G#4","midi":68,"time":198.64869500000225,"velocity":0.8031496062992126,"duration":0.7812501822916715},{"name":"C5","midi":72,"time":198.64869500000225,"velocity":0.8031496062992126,"duration":0.7812501822916715},{"name":"C5","midi":72,"time":199.45950600000225,"velocity":0.8031496062992126,"duration":1.5413854947917685},{"name":"D#5","midi":75,"time":199.56085737500226,"velocity":0.8031496062992126,"duration":1.4780408854167604},{"name":"F#3","midi":54,"time":199.66220875000226,"velocity":0.8031496062992126,"duration":0.20059126302083996},{"name":"F#5","midi":78,"time":199.66220875000226,"velocity":0.8031496062992126,"duration":1.3724665364584325},{"name":"A5","midi":81,"time":199.76356012500227,"velocity":0.8031496062992126,"duration":1.3091219270834245},{"name":"A3","midi":57,"time":199.86491150000228,"velocity":0.8031496062992126,"duration":0.20059126302083996},{"name":"G#3","midi":56,"time":200.0676142500023,"velocity":0.8031496062992126,"duration":0.20059126302083996},{"name":"F#3","midi":54,"time":200.2703170000023,"velocity":0.8031496062992126,"duration":0.20059126302083996},{"name":"E3","midi":52,"time":200.47301975000232,"velocity":0.8031496062992126,"duration":0.20059126302083996},{"name":"F#3","midi":54,"time":200.67572250000234,"velocity":0.8031496062992126,"duration":0.20059126302083996},{"name":"D#3","midi":51,"time":200.87842525000235,"velocity":0.8031496062992126,"duration":0.20059126302083996},{"name":"E3","midi":52,"time":201.08112800000237,"velocity":0.8031496062992126,"duration":1.6195105130209129},{"name":"G#3","midi":56,"time":201.08112800000237,"velocity":0.8031496062992126,"duration":0.808699513020855},{"name":"G#5","midi":80,"time":201.08112800000237,"velocity":0.8031496062992126,"duration":0.6059967630208405},{"name":"C#5","midi":73,"time":201.08112800000237,"velocity":0.8031496062992126,"duration":1.6195105130209129},{"name":"A5","midi":81,"time":201.68923625000238,"velocity":0.8031496062992126,"duration":0.20059126302083996},{"name":"A3","midi":57,"time":201.8919390000024,"velocity":0.8031496062992126,"duration":0.8086995130208834},{"name":"G#5","midi":80,"time":201.8919390000024,"velocity":0.8031496062992126,"duration":0.09923988802083272},{"name":"F#5","midi":78,"time":201.9932903750024,"velocity":0.8031496062992126,"duration":0.09923988802083272},{"name":"G#5","midi":80,"time":202.0946417500024,"velocity":0.8031496062992126,"duration":0.09923988802083272},{"name":"F#5","midi":78,"time":202.19599312500242,"velocity":0.8031496062992126,"duration":0.09923988802083272},{"name":"G#5","midi":80,"time":202.29734450000242,"velocity":0.8031496062992126,"duration":0.09923988802083272},{"name":"F#5","midi":78,"time":202.39869587500243,"velocity":0.8031496062992126,"duration":0.09923988802083272},{"name":"G#5","midi":80,"time":202.50004725000244,"velocity":0.8031496062992126,"duration":0.09923988802083272},{"name":"F#5","midi":78,"time":202.60139862500245,"velocity":0.8031496062992126,"duration":0.4961994401041636},{"name":"D3","midi":50,"time":202.70275000000245,"velocity":0.8031496062992126,"duration":0.8023650520833314},{"name":"G#3","midi":56,"time":202.70275000000245,"velocity":0.8031496062992126,"duration":0.403294013020826},{"name":"B4","midi":71,"time":202.70275000000245,"velocity":0.8031496062992126,"duration":0.8023650520833314},{"name":"F#3","midi":54,"time":203.10815550000245,"velocity":0.8031496062992126,"duration":0.403294013020826},{"name":"F5","midi":77,"time":203.10815550000245,"velocity":0.8031496062992126,"duration":0.403294013020826},{"name":"G#3","midi":56,"time":203.51356100000245,"velocity":0.8031496062992126,"duration":0.8023650520833314},{"name":"C#3","midi":49,"time":203.51356100000245,"velocity":0.8031496062992126,"duration":1.011402263020841},{"name":"F5","midi":77,"time":203.51356100000245,"velocity":0.8031496062992126,"duration":0.8086995130208265},{"name":"C#5","midi":73,"time":203.51356100000245,"velocity":0.8031496062992126,"duration":0.8086995130208265},{"name":"C#5","midi":73,"time":204.32437200000246,"velocity":0.8031496062992126,"duration":1.5413854947917685},{"name":"F5","midi":77,"time":204.42572337500246,"velocity":0.8031496062992126,"duration":1.4780408854167604},{"name":"D3","midi":50,"time":204.52707475000247,"velocity":0.8031496062992126,"duration":0.20059126302083996},{"name":"G#5","midi":80,"time":204.52707475000247,"velocity":0.8031496062992126,"duration":1.3724665364584325},{"name":"B5","midi":83,"time":204.62842612500248,"velocity":0.8031496062992126,"duration":1.3091219270834245},{"name":"C#3","midi":49,"time":204.72977750000248,"velocity":0.8031496062992126,"duration":0.20059126302083996},{"name":"B2","midi":47,"time":204.9324802500025,"velocity":0.8031496062992126,"duration":0.20059126302083996},{"name":"A2","midi":45,"time":205.1351830000025,"velocity":0.8031496062992126,"duration":0.20059126302083996},{"name":"G#2","midi":44,"time":205.33788575000253,"velocity":0.8031496062992126,"duration":0.20059126302083996},{"name":"F#2","midi":42,"time":205.54058850000254,"velocity":0.8031496062992126,"duration":0.20059126302083996},{"name":"G#2","midi":44,"time":205.74329125000256,"velocity":0.8031496062992126,"duration":0.09923988802083272},{"name":"F2","midi":41,"time":205.84464262500256,"velocity":0.8031496062992126,"duration":0.09923988802083272},{"name":"F#2","midi":42,"time":205.94599400000257,"velocity":0.8031496062992126,"duration":0.808699513020855},{"name":"F#5","midi":78,"time":205.94599400000257,"velocity":0.8031496062992126,"duration":0.8023650520833598},{"name":"C#5","midi":73,"time":205.94599400000257,"velocity":0.8031496062992126,"duration":0.8023650520833598},{"name":"A5","midi":81,"time":205.94599400000257,"velocity":0.8031496062992126,"duration":0.6059967630208405},{"name":"B5","midi":83,"time":206.5541022500026,"velocity":0.8031496062992126,"duration":0.20059126302083996},{"name":"B2","midi":47,"time":206.7568050000026,"velocity":0.8031496062992126,"duration":0.8086995130208265},{"name":"A5","midi":81,"time":206.7568050000026,"velocity":0.8031496062992126,"duration":0.403294013020826},{"name":"D5","midi":74,"time":206.7568050000026,"velocity":0.8031496062992126,"duration":0.8023650520833314},{"name":"F#5","midi":78,"time":206.7568050000026,"velocity":0.8031496062992126,"duration":0.403294013020826},{"name":"G#5","midi":80,"time":207.1622105000026,"velocity":0.8031496062992126,"duration":0.5912163541666757},{"name":"C#3","midi":49,"time":207.5676160000026,"velocity":0.8031496062992126,"duration":0.808699513020855},{"name":"C#5","midi":73,"time":207.5676160000026,"velocity":0.8031496062992126,"duration":0.8023650520833598},{"name":"F5","midi":77,"time":207.5676160000026,"velocity":0.8031496062992126,"duration":0.40329401302085444},{"name":"A5","midi":81,"time":207.97302150000263,"velocity":0.8031496062992126,"duration":0.403294013020826},{"name":"D3","midi":50,"time":208.37842700000263,"velocity":0.8031496062992126,"duration":1.2141050130208555},{"name":"B4","midi":71,"time":208.37842700000263,"velocity":0.8031496062992126,"duration":0.8023650520833598},{"name":"F#5","midi":78,"time":208.3805384869818,"velocity":0.8031496062992126,"duration":0.8023650520833598},{"name":"B5","midi":83,"time":208.38264997396098,"velocity":0.8031496062992126,"duration":0.6059967630208405},{"name":"G#5","midi":80,"time":208.98653525000265,"velocity":0.8031496062992126,"duration":0.20059126302083996},{"name":"B4","midi":71,"time":209.18923800000266,"velocity":0.8031496062992126,"duration":1.6195105130208276},{"name":"F#5","midi":78,"time":209.18923800000266,"velocity":0.8031496062992126,"duration":0.403294013020826},{"name":"G#4","midi":68,"time":209.18923800000266,"velocity":0.8031496062992126,"duration":1.6195105130208276},{"name":"D3","midi":50,"time":209.59464350000266,"velocity":0.8031496062992126,"duration":0.403294013020826},{"name":"F5","midi":77,"time":209.59464350000266,"velocity":0.8031496062992126,"duration":0.8086995130208265},{"name":"C#3","midi":49,"time":210.00004900000266,"velocity":0.8031496062992126,"duration":0.403294013020826},{"name":"B2","midi":47,"time":210.40545450000266,"velocity":0.8031496062992126,"duration":0.403294013020826},{"name":"F#5","midi":78,"time":210.40545450000266,"velocity":0.8031496062992126,"duration":0.403294013020826},{"name":"A2","midi":45,"time":210.81086000000266,"velocity":0.8031496062992126,"duration":0.403294013020826},{"name":"C#5","midi":73,"time":210.81086000000266,"velocity":0.8031496062992126,"duration":0.403294013020826},{"name":"F#2","midi":42,"time":211.21626550000266,"velocity":0.8031496062992126,"duration":0.403294013020826},{"name":"C#5","midi":73,"time":211.21626550000266,"velocity":0.8031496062992126,"duration":0.403294013020826},{"name":"A5","midi":81,"time":211.21626550000266,"velocity":0.8031496062992126,"duration":0.403294013020826},{"name":"C#3","midi":49,"time":211.62167100000266,"velocity":0.8031496062992126,"duration":0.8086995130208265},{"name":"A5","midi":81,"time":211.62167100000266,"velocity":0.8031496062992126,"duration":0.403294013020826},{"name":"B4","midi":71,"time":211.62167100000266,"velocity":0.8031496062992126,"duration":2.027027500000031},{"name":"G#5","midi":80,"time":212.02707650000266,"velocity":0.8031496062992126,"duration":0.403294013020826},{"name":"C#2","midi":37,"time":212.43248200000266,"velocity":0.8031496062992126,"duration":0.808699513020855},{"name":"F#5","midi":78,"time":212.43248200000266,"velocity":0.8031496062992126,"duration":0.403294013020826},{"name":"G#5","midi":80,"time":212.83788750000267,"velocity":0.8031496062992126,"duration":0.20059126302083996},{"name":"F5","midi":77,"time":213.04059025000268,"velocity":0.8031496062992126,"duration":0.20059126302083996},{"name":"F#2","midi":42,"time":213.2432930000027,"velocity":0.8031496062992126,"duration":1.214105013020827},{"name":"F#5","midi":78,"time":213.2432930000027,"velocity":0.8031496062992126,"duration":0.8023650520833314},{"name":"G#4","midi":68,"time":213.6486985000027,"velocity":0.8031496062992126,"duration":0.403294013020826},{"name":"F#5","midi":78,"time":214.0541040000027,"velocity":0.8031496062992126,"duration":1.435811145833327},{"name":"A4","midi":69,"time":214.0541040000027,"velocity":0.8031496062992126,"duration":1.435811145833327},{"name":"C#5","midi":73,"time":214.0541040000027,"velocity":0.8031496062992126,"duration":1.435811145833327},{"name":"F#2","midi":42,"time":214.4595095000027,"velocity":0.8031496062992126,"duration":0.403294013020826},{"name":"A2","midi":45,"time":214.8649150000027,"velocity":0.8031496062992126,"duration":0.403294013020826},{"name":"C#3","midi":49,"time":215.2703205000027,"velocity":0.8031496062992126,"duration":0.403294013020826},{"name":"F#3","midi":54,"time":215.6757260000027,"velocity":0.8031496062992126,"duration":0.808699513020855},{"name":"C#5","midi":73,"time":215.6757260000027,"velocity":0.8031496062992126,"duration":0.6059967630208405},{"name":"A4","midi":69,"time":215.6757260000027,"velocity":0.8031496062992126,"duration":0.8023650520833598},{"name":"D5","midi":74,"time":216.2838342500027,"velocity":0.8031496062992126,"duration":0.20059126302083996},{"name":"F#2","midi":42,"time":216.48653700000273,"velocity":0.8031496062992126,"duration":0.8086995130208834},{"name":"E5","midi":76,"time":216.48653700000273,"velocity":0.8031496062992126,"duration":0.09923988802083272},{"name":"A4","midi":69,"time":216.48653700000273,"velocity":0.8031496062992126,"duration":1.6195105130209413},{"name":"D5","midi":74,"time":216.58788837500273,"velocity":0.8031496062992126,"duration":0.09923988802083272},{"name":"E5","midi":76,"time":216.68923975000274,"velocity":0.8031496062992126,"duration":0.09923988802083272},{"name":"D5","midi":74,"time":216.79059112500275,"velocity":0.8031496062992126,"duration":0.09923988802083272},{"name":"E5","midi":76,"time":216.89194250000276,"velocity":0.8031496062992126,"duration":0.09923988802083272},{"name":"D5","midi":74,"time":216.99329387500276,"velocity":0.8031496062992126,"duration":0.09923988802083272},{"name":"E5","midi":76,"time":217.09464525000277,"velocity":0.8031496062992126,"duration":0.09923988802083272},{"name":"D5","midi":74,"time":217.19599662500278,"velocity":0.8031496062992126,"duration":0.09923988802083272},{"name":"F#3","midi":54,"time":217.29734800000278,"velocity":0.8031496062992126,"duration":0.8086995130208834},{"name":"E5","midi":76,"time":217.29734800000278,"velocity":0.8031496062992126,"duration":0.09923988802083272},{"name":"D5","midi":74,"time":217.3986993750028,"velocity":0.8031496062992126,"duration":0.09923988802083272},{"name":"E5","midi":76,"time":217.5000507500028,"velocity":0.8031496062992126,"duration":0.09923988802083272},{"name":"D5","midi":74,"time":217.6014021250028,"velocity":0.8031496062992126,"duration":0.09923988802083272},{"name":"E5","midi":76,"time":217.7027535000028,"velocity":0.8031496062992126,"duration":0.09923988802083272},{"name":"D5","midi":74,"time":217.80410487500282,"velocity":0.8031496062992126,"duration":0.09923988802083272},{"name":"C#5","midi":73,"time":217.90545625000283,"velocity":0.8031496062992126,"duration":0.09923988802083272},{"name":"D5","midi":74,"time":218.00680762500284,"velocity":0.8031496062992126,"duration":0.09923988802083272},{"name":"G#3","midi":56,"time":218.10815900000284,"velocity":0.8031496062992126,"duration":0.6059967630208405},{"name":"E5","midi":76,"time":218.10815900000284,"velocity":0.8031496062992126,"duration":0.808699513020855},{"name":"B4","midi":71,"time":218.10815900000284,"velocity":0.8031496062992126,"duration":0.808699513020855},{"name":"A#3","midi":58,"time":218.71626725000286,"velocity":0.8031496062992126,"duration":0.20059126302083996},{"name":"B3","midi":59,"time":218.91897000000287,"velocity":0.8031496062992126,"duration":0.09923988802083272},{"name":"C#5","midi":73,"time":218.91897000000287,"velocity":0.8031496062992126,"duration":1.6195105130209413},{"name":"E5","midi":76,"time":218.91897000000287,"velocity":0.8031496062992126,"duration":1.6195105130209413},{"name":"A#3","midi":58,"time":219.02032137500288,"velocity":0.8031496062992126,"duration":0.09923988802083272},{"name":"B3","midi":59,"time":219.1216727500029,"velocity":0.8031496062992126,"duration":0.09923988802083272},{"name":"F#5","midi":78,"time":219.1216727500029,"velocity":0.8031496062992126,"duration":0.20059126302083996},{"name":"A#3","midi":58,"time":219.2230241250029,"velocity":0.8031496062992126,"duration":0.09923988802083272},{"name":"B3","midi":59,"time":219.3243755000029,"velocity":0.8031496062992126,"duration":0.09923988802083272},{"name":"G5","midi":79,"time":219.3243755000029,"velocity":0.8031496062992126,"duration":1.2141050130209123},{"name":"A#3","midi":58,"time":219.4257268750029,"velocity":0.8031496062992126,"duration":0.09923988802083272},{"name":"B3","midi":59,"time":219.52707825000292,"velocity":0.8031496062992126,"duration":0.09923988802083272},{"name":"A#3","midi":58,"time":219.62842962500292,"velocity":0.8031496062992126,"duration":0.09923988802083272},{"name":"B3","midi":59,"time":219.72978100000293,"velocity":0.8031496062992126,"duration":0.09923988802083272},{"name":"A#3","midi":58,"time":219.83113237500294,"velocity":0.8031496062992126,"duration":0.09923988802083272},{"name":"B3","midi":59,"time":219.93248375000294,"velocity":0.8031496062992126,"duration":0.09923988802083272},{"name":"A#3","midi":58,"time":220.03383512500295,"velocity":0.8031496062992126,"duration":0.09923988802083272},{"name":"B3","midi":59,"time":220.13518650000296,"velocity":0.8031496062992126,"duration":0.09923988802083272},{"name":"A#3","midi":58,"time":220.23653787500297,"velocity":0.8031496062992126,"duration":0.09923988802083272},{"name":"G#3","midi":56,"time":220.33788925000297,"velocity":0.8031496062992126,"duration":0.09923988802083272},{"name":"A#3","midi":58,"time":220.43924062500298,"velocity":0.8031496062992126,"duration":0.09923988802083272},{"name":"B3","midi":59,"time":220.540592000003,"velocity":0.8031496062992126,"duration":0.8086995130208265},{"name":"F#5","midi":78,"time":220.540592000003,"velocity":0.8031496062992126,"duration":0.8086995130208265},{"name":"D5","midi":74,"time":220.540592000003,"velocity":0.8031496062992126,"duration":0.8086995130208265},{"name":"E3","midi":52,"time":221.351403000003,"velocity":0.8031496062992126,"duration":0.8086995130208265},{"name":"E5","midi":76,"time":221.351403000003,"velocity":0.8031496062992126,"duration":0.403294013020826},{"name":"C#5","midi":73,"time":221.351403000003,"velocity":0.8031496062992126,"duration":0.403294013020826},{"name":"D5","midi":74,"time":221.756808500003,"velocity":0.8031496062992126,"duration":0.403294013020826},{"name":"B4","midi":71,"time":221.756808500003,"velocity":0.8031496062992126,"duration":0.403294013020826},{"name":"F#3","midi":54,"time":222.162214000003,"velocity":0.8031496062992126,"duration":0.8086995130208265},{"name":"E5","midi":76,"time":222.162214000003,"velocity":0.8031496062992126,"duration":0.403294013020826},{"name":"A#4","midi":70,"time":222.162214000003,"velocity":0.8031496062992126,"duration":0.8023650520833314},{"name":"C#5","midi":73,"time":222.567619500003,"velocity":0.8031496062992126,"duration":0.403294013020826},{"name":"B2","midi":47,"time":222.973025000003,"velocity":0.8031496062992126,"duration":0.6059967630208405},{"name":"D5","midi":74,"time":222.973025000003,"velocity":0.8031496062992126,"duration":1.214105013020884},{"name":"B4","midi":71,"time":222.973025000003,"velocity":0.8031496062992126,"duration":1.214105013020884},{"name":"C#3","midi":49,"time":223.581133250003,"velocity":0.8031496062992126,"duration":0.20059126302083996},{"name":"D3","midi":50,"time":223.78383600000302,"velocity":0.8031496062992126,"duration":0.09923988802083272},{"name":"C#3","midi":49,"time":223.88518737500303,"velocity":0.8031496062992126,"duration":0.09923988802083272},{"name":"D3","midi":50,"time":223.98653875000304,"velocity":0.8031496062992126,"duration":0.09923988802083272},{"name":"C#3","midi":49,"time":224.08789012500304,"velocity":0.8031496062992126,"duration":0.09923988802083272},{"name":"D3","midi":50,"time":224.18924150000305,"velocity":0.8031496062992126,"duration":0.09923988802083272},{"name":"C#5","midi":73,"time":224.18924150000305,"velocity":0.8031496062992126,"duration":0.40329401302085444},{"name":"C#3","midi":49,"time":224.29059287500306,"velocity":0.8031496062992126,"duration":0.09923988802083272},{"name":"D3","midi":50,"time":224.39194425000306,"velocity":0.8031496062992126,"duration":0.09923988802083272},{"name":"C#3","midi":49,"time":224.49329562500307,"velocity":0.8031496062992126,"duration":0.09923988802083272},{"name":"D3","midi":50,"time":224.59464700000308,"velocity":0.8031496062992126,"duration":0.09923988802083272},{"name":"B4","midi":71,"time":224.59464700000308,"velocity":0.8031496062992126,"duration":0.5912163541667041},{"name":"C#3","midi":49,"time":224.6959983750031,"velocity":0.8031496062992126,"duration":0.09923988802083272},{"name":"D3","midi":50,"time":224.7973497500031,"velocity":0.8031496062992126,"duration":0.09923988802083272},{"name":"C#3","midi":49,"time":224.8987011250031,"velocity":0.8031496062992126,"duration":0.09923988802083272},{"name":"D3","midi":50,"time":225.0000525000031,"velocity":0.8031496062992126,"duration":0.09923988802083272},{"name":"C#3","midi":49,"time":225.10140387500311,"velocity":0.8031496062992126,"duration":0.09923988802083272},{"name":"B2","midi":47,"time":225.20275525000312,"velocity":0.8031496062992126,"duration":0.09923988802083272},{"name":"C#3","midi":49,"time":225.30410662500313,"velocity":0.8031496062992126,"duration":0.09923988802083272},{"name":"D3","midi":50,"time":225.40545800000314,"velocity":0.8031496062992126,"duration":0.808699513020855},{"name":"E5","midi":76,"time":225.40545800000314,"velocity":0.8031496062992126,"duration":0.8023650520833598},{"name":"G#5","midi":80,"time":225.40545800000314,"velocity":0.8031496062992126,"duration":0.6059967630208405},{"name":"B4","midi":71,"time":225.40545800000314,"velocity":0.8031496062992126,"duration":0.8023650520833598},{"name":"A5","midi":81,"time":226.01356625000315,"velocity":0.8031496062992126,"duration":0.20059126302083996},{"name":"C#3","midi":49,"time":226.21626900000317,"velocity":0.8031496062992126,"duration":1.6195105130209413},{"name":"B5","midi":83,"time":226.21626900000317,"velocity":0.8031496062992126,"duration":0.09923988802083272},{"name":"E5","midi":76,"time":226.21626900000317,"velocity":0.8031496062992126,"duration":1.6195105130209413},{"name":"A5","midi":81,"time":226.31762037500317,"velocity":0.8031496062992126,"duration":0.09923988802083272},{"name":"B5","midi":83,"time":226.41897175000318,"velocity":0.8031496062992126,"duration":0.09923988802083272},{"name":"A5","midi":81,"time":226.5203231250032,"velocity":0.8031496062992126,"duration":0.09923988802083272},{"name":"B5","midi":83,"time":226.6216745000032,"velocity":0.8031496062992126,"duration":0.09923988802083272},{"name":"A5","midi":81,"time":226.7230258750032,"velocity":0.8031496062992126,"duration":0.09923988802083272},{"name":"B5","midi":83,"time":226.8243772500032,"velocity":0.8031496062992126,"duration":0.09923988802083272},{"name":"A5","midi":81,"time":226.92572862500322,"velocity":0.8031496062992126,"duration":0.09923988802083272},{"name":"B5","midi":83,"time":227.02708000000322,"velocity":0.8031496062992126,"duration":0.09923988802083272},{"name":"A5","midi":81,"time":227.12843137500323,"velocity":0.8031496062992126,"duration":0.09923988802083272},{"name":"B5","midi":83,"time":227.22978275000324,"velocity":0.8031496062992126,"duration":0.09923988802083272},{"name":"A5","midi":81,"time":227.33113412500325,"velocity":0.8031496062992126,"duration":0.09923988802083272},{"name":"B5","midi":83,"time":227.43248550000325,"velocity":0.8031496062992126,"duration":0.09923988802083272},{"name":"A5","midi":81,"time":227.53383687500326,"velocity":0.8031496062992126,"duration":0.09923988802083272},{"name":"G#5","midi":80,"time":227.63518825000327,"velocity":0.8031496062992126,"duration":0.09923988802083272},{"name":"A5","midi":81,"time":227.73653962500327,"velocity":0.8031496062992126,"duration":0.09923988802083272},{"name":"G#2","midi":44,"time":227.83789100000328,"velocity":0.8031496062992126,"duration":0.6059967630208405},{"name":"E5","midi":76,"time":227.83789100000328,"velocity":0.8031496062992126,"duration":0.808699513020855},{"name":"B4","midi":71,"time":227.83789100000328,"velocity":0.8031496062992126,"duration":0.808699513020855},{"name":"B5","midi":83,"time":227.83789100000328,"velocity":0.8031496062992126,"duration":1.214105013020884},{"name":"A2","midi":45,"time":228.4459992500033,"velocity":0.8031496062992126,"duration":0.20059126302083996},{"name":"B2","midi":47,"time":228.6487020000033,"velocity":0.8031496062992126,"duration":0.09923988802083272},{"name":"C#5","midi":73,"time":228.6487020000033,"velocity":0.8031496062992126,"duration":1.2141050130209123},{"name":"A2","midi":45,"time":228.75005337500332,"velocity":0.8031496062992126,"duration":0.09923988802083272},{"name":"B2","midi":47,"time":228.85140475000333,"velocity":0.8031496062992126,"duration":0.09923988802083272},{"name":"A2","midi":45,"time":228.95275612500333,"velocity":0.8031496062992126,"duration":0.09923988802083272},{"name":"B2","midi":47,"time":229.05410750000334,"velocity":0.8031496062992126,"duration":0.09923988802083272},{"name":"A5","midi":81,"time":229.05410750000334,"velocity":0.8031496062992126,"duration":0.20059126302083996},{"name":"A2","midi":45,"time":229.15545887500335,"velocity":0.8031496062992126,"duration":0.09923988802083272},{"name":"B2","midi":47,"time":229.25681025000335,"velocity":0.8031496062992126,"duration":0.09923988802083272},{"name":"G#5","midi":80,"time":229.25681025000335,"velocity":0.8031496062992126,"duration":0.20059126302083996},{"name":"A2","midi":45,"time":229.35816162500336,"velocity":0.8031496062992126,"duration":0.09923988802083272},{"name":"B2","midi":47,"time":229.45951300000337,"velocity":0.8031496062992126,"duration":0.09923988802083272},{"name":"F#5","midi":78,"time":229.45951300000337,"velocity":0.8031496062992126,"duration":0.20059126302083996},{"name":"A2","midi":45,"time":229.56086437500338,"velocity":0.8031496062992126,"duration":0.09923988802083272},{"name":"G#2","midi":44,"time":229.66221575000338,"velocity":0.8031496062992126,"duration":0.20059126302083996},{"name":"E5","midi":76,"time":229.66221575000338,"velocity":0.8031496062992126,"duration":0.20059126302083996},{"name":"A2","midi":45,"time":229.8649185000034,"velocity":0.8031496062992126,"duration":0.20059126302083996},{"name":"D#5","midi":75,"time":229.8649185000034,"velocity":0.8031496062992126,"duration":0.20059126302083996},{"name":"F#2","midi":42,"time":230.0676212500034,"velocity":0.8031496062992126,"duration":0.20059126302083996},{"name":"C#5","midi":73,"time":230.0676212500034,"velocity":0.8031496062992126,"duration":0.20059126302083996},{"name":"B4","midi":71,"time":230.27032400000343,"velocity":0.8031496062992126,"duration":0.8255914088541658},{"name":"D#2","midi":39,"time":230.27032400000343,"velocity":0.8031496062992126,"duration":0.41385144791667017},{"name":"A5","midi":81,"time":230.47724972396176,"velocity":0.8031496062992126,"duration":0.20481423697916057},{"name":"G#5","midi":80,"time":230.68628693489927,"velocity":0.8031496062992126,"duration":0.20481423697916057},{"name":"E2","midi":40,"time":230.68628693489927,"velocity":0.8031496062992126,"duration":0.41173996093749565},{"name":"F#5","midi":78,"time":230.89532414583675,"velocity":0.8031496062992126,"duration":0.204814236979189},{"name":"B4","midi":71,"time":231.10436135677426,"velocity":0.8031496062992126,"duration":2.5000005833332466},{"name":"E5","midi":76,"time":231.10436135677426,"velocity":0.8031496062992126,"duration":0.8319258697916609},{"name":"B2","midi":47,"time":231.10436135677426,"velocity":0.8031496062992126,"duration":1.6680747135415572},{"name":"F#3","midi":54,"time":231.52243577864925,"velocity":0.8031496062992126,"duration":0.4244088828125143},{"name":"G#3","midi":56,"time":231.9510676354201,"velocity":0.8031496062992126,"duration":0.42440888281242906},{"name":"E5","midi":76,"time":231.9510676354201,"velocity":0.8031496062992126,"duration":0.10346286197915333},{"name":"D#5","midi":75,"time":232.05875347135756,"velocity":0.8031496062992126,"duration":0.10346286197915333},{"name":"E5","midi":76,"time":232.16643930729504,"velocity":0.8031496062992126,"duration":0.10346286197915333},{"name":"D#5","midi":75,"time":232.2741251432325,"velocity":0.8031496062992126,"duration":0.31883453385415805},{"name":"A3","midi":57,"time":232.38181097917,"velocity":0.8031496062992126,"duration":0.8488177656250002},{"name":"E5","midi":76,"time":232.597182651045,"velocity":0.8031496062992126,"duration":0.2090372109375096},{"name":"E3","midi":52,"time":232.81466580989917,"velocity":0.8031496062992126,"duration":1.8201017760416676},{"name":"E5","midi":76,"time":232.81466580989917,"velocity":0.8031496062992126,"duration":0.9058279140625132},{"name":"F#3","midi":54,"time":233.26863551042,"velocity":0.8031496062992126,"duration":0.4497467265624948},{"name":"G#3","midi":56,"time":233.72682818489918,"velocity":0.8031496062992126,"duration":0.4497467265624948},{"name":"E5","midi":76,"time":233.72682818489918,"velocity":0.8031496062992126,"duration":1.8201017760416391},{"name":"B4","midi":71,"time":233.72682818489918,"velocity":0.8031496062992126,"duration":1.8201017760416391},{"name":"E4","midi":64,"time":233.72682818489918,"velocity":0.8031496062992126,"duration":1.8201017760416391},{"name":"B3","midi":59,"time":234.18290937239917,"velocity":0.8031496062992126,"duration":0.4940879531249891},{"name":"E2","midi":40,"time":234.70655814323248,"velocity":0.8031496062992126,"duration":1.435811145833327},{"name":"E3","midi":52,"time":237.56762300000332,"velocity":0.8031496062992126,"duration":0.8086995130208265},{"name":"B4","midi":71,"time":237.56762300000332,"velocity":0.8031496062992126,"duration":0.403294013020826},{"name":"G#4","midi":68,"time":237.56762300000332,"velocity":0.8031496062992126,"duration":0.403294013020826},{"name":"C#5","midi":73,"time":237.97302850000332,"velocity":0.8031496062992126,"duration":0.403294013020826},{"name":"A4","midi":69,"time":237.97302850000332,"velocity":0.8031496062992126,"duration":0.403294013020826},{"name":"E2","midi":40,"time":238.37843400000332,"velocity":0.8031496062992126,"duration":0.8086995130208265},{"name":"A4","midi":69,"time":238.37843400000332,"velocity":0.8031496062992126,"duration":0.403294013020826},{"name":"C#5","midi":73,"time":238.37843400000332,"velocity":0.8031496062992126,"duration":0.403294013020826},{"name":"F#4","midi":66,"time":238.78383950000332,"velocity":0.8031496062992126,"duration":0.403294013020826},{"name":"D#5","midi":75,"time":238.78383950000332,"velocity":0.8031496062992126,"duration":0.403294013020826},{"name":"E3","midi":52,"time":239.18924500000333,"velocity":0.8031496062992126,"duration":0.808699513020855},{"name":"F#4","midi":66,"time":239.18924500000333,"velocity":0.8031496062992126,"duration":0.20059126302083996},{"name":"D#5","midi":75,"time":239.18924500000333,"velocity":0.8031496062992126,"duration":0.20059126302083996},{"name":"G#4","midi":68,"time":239.39194775000334,"velocity":0.8031496062992126,"duration":0.20059126302083996},{"name":"E5","midi":76,"time":239.39194775000334,"velocity":0.8031496062992126,"duration":0.20059126302083996},{"name":"A4","midi":69,"time":239.59465050000335,"velocity":0.8031496062992126,"duration":0.403294013020826},{"name":"F#5","midi":78,"time":239.59465050000335,"velocity":0.8031496062992126,"duration":0.403294013020826},{"name":"E2","midi":40,"time":240.00005600000335,"velocity":0.8031496062992126,"duration":0.8086995130208265},{"name":"F#5","midi":78,"time":240.00005600000335,"velocity":0.8031496062992126,"duration":0.403294013020826},{"name":"A4","midi":69,"time":240.00005600000335,"velocity":0.8031496062992126,"duration":0.403294013020826},{"name":"G#4","midi":68,"time":240.40546150000336,"velocity":0.8031496062992126,"duration":0.403294013020826},{"name":"E5","midi":76,"time":240.40546150000336,"velocity":0.8031496062992126,"duration":0.403294013020826},{"name":"E3","midi":52,"time":240.81086700000336,"velocity":0.8031496062992126,"duration":0.403294013020826},{"name":"G#5","midi":80,"time":240.81086700000336,"velocity":0.8031496062992126,"duration":0.403294013020826},{"name":"B4","midi":71,"time":240.81086700000336,"velocity":0.8031496062992126,"duration":2.0270275000000595},{"name":"D#3","midi":51,"time":241.21627250000336,"velocity":0.8031496062992126,"duration":0.40329401302085444},{"name":"F#5","midi":78,"time":241.21627250000336,"velocity":0.8031496062992126,"duration":0.20059126302083996},{"name":"G#5","midi":80,"time":241.41897525000337,"velocity":0.8031496062992126,"duration":0.09923988802083272},{"name":"A5","midi":81,"time":241.52032662500338,"velocity":0.8031496062992126,"duration":0.09923988802083272},{"name":"E3","midi":52,"time":241.62167800000339,"velocity":0.8031496062992126,"duration":0.403294013020826},{"name":"G#5","midi":80,"time":241.62167800000339,"velocity":0.8031496062992126,"duration":0.403294013020826},{"name":"F#3","midi":54,"time":242.02708350000339,"velocity":0.8031496062992126,"duration":0.40329401302085444},{"name":"D#5","midi":75,"time":242.02708350000339,"velocity":0.8031496062992126,"duration":0.20059126302083996},{"name":"E5","midi":76,"time":242.2297862500034,"velocity":0.8031496062992126,"duration":0.09923988802083272},{"name":"F#5","midi":78,"time":242.3311376250034,"velocity":0.8031496062992126,"duration":0.09923988802083272},{"name":"G#3","midi":56,"time":242.43248900000341,"velocity":0.8031496062992126,"duration":0.403294013020826},{"name":"E5","midi":76,"time":242.43248900000341,"velocity":0.8031496062992126,"duration":0.403294013020826},{"name":"A3","midi":57,"time":242.83789450000342,"velocity":0.8031496062992126,"duration":0.40329401302085444},{"name":"C#5","midi":73,"time":242.83789450000342,"velocity":0.8031496062992126,"duration":0.4011825260416799},{"name":"F#5","midi":78,"time":242.83789450000342,"velocity":0.8031496062992126,"duration":0.20059126302083996},{"name":"G#5","midi":80,"time":243.04059725000343,"velocity":0.8031496062992126,"duration":0.09923988802083272},{"name":"A5","midi":81,"time":243.14194862500344,"velocity":0.8031496062992126,"duration":0.09923988802083272},{"name":"B3","midi":59,"time":243.24330000000344,"velocity":0.8031496062992126,"duration":0.20059126302083996},{"name":"F#4","midi":66,"time":243.24330000000344,"velocity":0.8031496062992126,"duration":0.5912163541667041},{"name":"D#5","midi":75,"time":243.24330000000344,"velocity":0.8031496062992126,"duration":0.40329401302085444},{"name":"A3","midi":57,"time":243.44600275000346,"velocity":0.8031496062992126,"duration":0.20059126302083996},{"name":"G#3","midi":56,"time":243.64870550000347,"velocity":0.8031496062992126,"duration":0.20059126302083996},{"name":"C#5","midi":73,"time":243.64870550000347,"velocity":0.8031496062992126,"duration":0.09923988802083272},{"name":"B4","midi":71,"time":243.75005687500348,"velocity":0.8031496062992126,"duration":0.3019426380208472},{"name":"F#3","midi":54,"time":243.8514082500035,"velocity":0.8031496062992126,"duration":0.20059126302083996},{"name":"E3","midi":52,"time":244.0541110000035,"velocity":0.8031496062992126,"duration":0.8086995130208265},{"name":"B4","midi":71,"time":244.0541110000035,"velocity":0.8031496062992126,"duration":0.403294013020826},{"name":"G#4","midi":68,"time":244.0541110000035,"velocity":0.8031496062992126,"duration":0.403294013020826},{"name":"A4","midi":69,"time":244.4595165000035,"velocity":0.8031496062992126,"duration":0.403294013020826},{"name":"C#5","midi":73,"time":244.4595165000035,"velocity":0.8031496062992126,"duration":0.403294013020826},{"name":"E2","midi":40,"time":244.8649220000035,"velocity":0.8031496062992126,"duration":0.8086995130208265},{"name":"C#5","midi":73,"time":244.8649220000035,"velocity":0.8031496062992126,"duration":0.403294013020826},{"name":"A4","midi":69,"time":244.8649220000035,"velocity":0.8031496062992126,"duration":0.403294013020826},{"name":"D#5","midi":75,"time":245.2703275000035,"velocity":0.8031496062992126,"duration":0.403294013020826},{"name":"F#4","midi":66,"time":245.2703275000035,"velocity":0.8031496062992126,"duration":0.403294013020826},{"name":"E3","midi":52,"time":245.6757330000035,"velocity":0.8031496062992126,"duration":0.808699513020855},{"name":"D#5","midi":75,"time":245.6757330000035,"velocity":0.8031496062992126,"duration":0.20059126302083996},{"name":"F#4","midi":66,"time":245.6757330000035,"velocity":0.8031496062992126,"duration":0.20059126302083996},{"name":"G#4","midi":68,"time":245.87843575000352,"velocity":0.8031496062992126,"duration":0.20059126302083996},{"name":"E5","midi":76,"time":245.87843575000352,"velocity":0.8031496062992126,"duration":0.20059126302083996},{"name":"F#5","midi":78,"time":246.08113850000353,"velocity":0.8031496062992126,"duration":0.403294013020826},{"name":"A4","midi":69,"time":246.08113850000353,"velocity":0.8031496062992126,"duration":0.403294013020826},{"name":"E2","midi":40,"time":246.48654400000353,"velocity":0.8031496062992126,"duration":0.403294013020826},{"name":"F#5","midi":78,"time":246.48654400000353,"velocity":0.8031496062992126,"duration":0.403294013020826},{"name":"A4","midi":69,"time":246.48654400000353,"velocity":0.8031496062992126,"duration":0.403294013020826},{"name":"E3","midi":52,"time":246.89194950000353,"velocity":0.8031496062992126,"duration":0.20059126302083996},{"name":"E5","midi":76,"time":246.89194950000353,"velocity":0.8031496062992126,"duration":0.40329401302085444},{"name":"G#4","midi":68,"time":246.89194950000353,"velocity":0.8031496062992126,"duration":0.40329401302085444},{"name":"F#3","midi":54,"time":247.09465225000355,"velocity":0.8031496062992126,"duration":0.20059126302083996},{"name":"G#3","midi":56,"time":247.29735500000356,"velocity":0.8031496062992126,"duration":0.20059126302083996},{"name":"C#5","midi":73,"time":247.29735500000356,"velocity":0.8031496062992126,"duration":0.40329401302085444},{"name":"B4","midi":71,"time":247.29735500000356,"velocity":0.8031496062992126,"duration":2.0270275000001163},{"name":"E3","midi":52,"time":247.50005775000358,"velocity":0.8031496062992126,"duration":0.20059126302083996},{"name":"D#3","midi":51,"time":247.7027605000036,"velocity":0.8031496062992126,"duration":0.20059126302083996},{"name":"C#5","midi":73,"time":247.7027605000036,"velocity":0.8031496062992126,"duration":0.20059126302083996},{"name":"C#3","midi":49,"time":247.9054632500036,"velocity":0.8031496062992126,"duration":0.20059126302083996},{"name":"D#5","midi":75,"time":247.9054632500036,"velocity":0.8031496062992126,"duration":0.09923988802083272},{"name":"E5","midi":76,"time":248.0068146250036,"velocity":0.8031496062992126,"duration":0.09923988802083272},{"name":"F#3","midi":54,"time":248.10816600000362,"velocity":0.8031496062992126,"duration":0.20059126302083996},{"name":"D#5","midi":75,"time":248.10816600000362,"velocity":0.8031496062992126,"duration":0.40329401302085444},{"name":"D#3","midi":51,"time":248.31086875000364,"velocity":0.8031496062992126,"duration":0.20059126302083996},{"name":"C#3","midi":49,"time":248.51357150000365,"velocity":0.8031496062992126,"duration":0.20059126302083996},{"name":"D#5","midi":75,"time":248.51357150000365,"velocity":0.8031496062992126,"duration":0.20059126302083996},{"name":"B2","midi":47,"time":248.71627425000366,"velocity":0.8031496062992126,"duration":0.20059126302083996},{"name":"E5","midi":76,"time":248.71627425000366,"velocity":0.8031496062992126,"duration":0.09923988802083272},{"name":"F#5","midi":78,"time":248.81762562500367,"velocity":0.8031496062992126,"duration":0.09923988802083272},{"name":"F#3","midi":54,"time":248.91897700000368,"velocity":0.8031496062992126,"duration":0.403294013020826},{"name":"D#5","midi":75,"time":248.91897700000368,"velocity":0.8031496062992126,"duration":0.403294013020826},{"name":"F#2","midi":42,"time":249.32438250000368,"velocity":0.8031496062992126,"duration":0.40329401302085444},{"name":"C#5","midi":73,"time":249.32438250000368,"velocity":0.8031496062992126,"duration":0.20059126302083996},{"name":"A#4","midi":70,"time":249.32438250000368,"velocity":0.8031496062992126,"duration":0.4011825260416799},{"name":"B4","midi":71,"time":249.5270852500037,"velocity":0.8031496062992126,"duration":0.20059126302083996},{"name":"B2","midi":47,"time":249.7297880000037,"velocity":0.8031496062992126,"duration":0.808699513020855},{"name":"B4","midi":71,"time":249.7297880000037,"velocity":0.8031496062992126,"duration":0.5912163541666757},{"name":"B3","midi":59,"time":250.54059900000374,"velocity":0.8031496062992126,"duration":0.403294013020826},{"name":"D#5","midi":75,"time":250.54059900000374,"velocity":0.8031496062992126,"duration":0.403294013020826},{"name":"F#4","midi":66,"time":250.54059900000374,"velocity":0.8031496062992126,"duration":1.619510513020856},{"name":"A3","midi":57,"time":250.94600450000374,"velocity":0.8031496062992126,"duration":0.403294013020826},{"name":"F#5","midi":78,"time":250.94600450000374,"velocity":0.8031496062992126,"duration":0.403294013020826},{"name":"A3","midi":57,"time":251.35141000000374,"velocity":0.8031496062992126,"duration":0.403294013020826},{"name":"D#5","midi":75,"time":251.35141000000374,"velocity":0.8031496062992126,"duration":0.403294013020826},{"name":"G#3","midi":56,"time":251.75681550000374,"velocity":0.8031496062992126,"duration":0.40329401302085444},{"name":"C#5","midi":73,"time":251.75681550000374,"velocity":0.8031496062992126,"duration":0.20059126302083996},{"name":"B4","midi":71,"time":251.95951825000375,"velocity":0.8031496062992126,"duration":0.20059126302083996},{"name":"G#3","midi":56,"time":252.16222100000377,"velocity":0.8031496062992126,"duration":0.20059126302083996},{"name":"E5","midi":76,"time":252.16222100000377,"velocity":0.8031496062992126,"duration":0.20059126302083996},{"name":"B4","midi":71,"time":252.16222100000377,"velocity":0.8031496062992126,"duration":0.8023650520833598},{"name":"F#3","midi":54,"time":252.36492375000378,"velocity":0.8031496062992126,"duration":0.20059126302083996},{"name":"F#5","midi":78,"time":252.36492375000378,"velocity":0.8031496062992126,"duration":0.20059126302083996},{"name":"E3","midi":52,"time":252.5676265000038,"velocity":0.8031496062992126,"duration":0.403294013020826},{"name":"G#5","midi":80,"time":252.5676265000038,"velocity":0.8031496062992126,"duration":0.403294013020826},{"name":"A3","midi":57,"time":252.9730320000038,"velocity":0.8031496062992126,"duration":0.8086995130208265},{"name":"G#5","midi":80,"time":252.9730320000038,"velocity":0.8031496062992126,"duration":0.403294013020826},{"name":"B4","midi":71,"time":252.9730320000038,"velocity":0.8031496062992126,"duration":0.8023650520833314},{"name":"C#5","midi":73,"time":253.3784375000038,"velocity":0.8031496062992126,"duration":0.3547298125000111},{"name":"D#3","midi":51,"time":253.7838430000038,"velocity":0.8031496062992126,"duration":0.20059126302083996},{"name":"F#5","midi":78,"time":253.7838430000038,"velocity":0.8031496062992126,"duration":0.40329401302085444},{"name":"A4","midi":69,"time":253.7838430000038,"velocity":0.8031496062992126,"duration":0.40329401302085444},{"name":"C#3","midi":49,"time":253.9865457500038,"velocity":0.8031496062992126,"duration":0.20059126302083996},{"name":"D#3","midi":51,"time":254.18924850000383,"velocity":0.8031496062992126,"duration":0.20059126302083996},{"name":"E5","midi":76,"time":254.18924850000383,"velocity":0.8031496062992126,"duration":0.40329401302085444},{"name":"G#4","midi":68,"time":254.18924850000383,"velocity":0.8031496062992126,"duration":0.40329401302085444},{"name":"E3","midi":52,"time":254.39195125000384,"velocity":0.8031496062992126,"duration":0.20059126302083996},{"name":"F#3","midi":54,"time":254.59465400000386,"velocity":0.8031496062992126,"duration":0.20059126302083996},{"name":"G#4","midi":68,"time":254.59465400000386,"velocity":0.8031496062992126,"duration":0.40329401302085444},{"name":"E5","midi":76,"time":254.59465400000386,"velocity":0.8031496062992126,"duration":0.40329401302085444},{"name":"E3","midi":52,"time":254.79735675000387,"velocity":0.8031496062992126,"duration":0.20059126302083996},{"name":"F#3","midi":54,"time":255.00005950000389,"velocity":0.8031496062992126,"duration":0.20059126302083996},{"name":"F#4","midi":66,"time":255.00005950000389,"velocity":0.8031496062992126,"duration":0.40329401302085444},{"name":"D#5","midi":75,"time":255.00005950000389,"velocity":0.8031496062992126,"duration":0.40329401302085444},{"name":"G#3","midi":56,"time":255.2027622500039,"velocity":0.8031496062992126,"duration":0.20059126302083996},{"name":"A3","midi":57,"time":255.40546500000391,"velocity":0.8031496062992126,"duration":0.20059126302083996},{"name":"D#5","midi":75,"time":255.40546500000391,"velocity":0.8031496062992126,"duration":0.20059126302083996},{"name":"F#4","midi":66,"time":255.40546500000391,"velocity":0.8031496062992126,"duration":0.4011825260416799},{"name":"G#3","midi":56,"time":255.60816775000393,"velocity":0.8031496062992126,"duration":0.20059126302083996},{"name":"C5","midi":72,"time":255.60816775000393,"velocity":0.8031496062992126,"duration":0.20059126302083996},{"name":"A3","midi":57,"time":255.81087050000394,"velocity":0.8031496062992126,"duration":0.20059126302083996},{"name":"E4","midi":64,"time":255.81087050000394,"velocity":0.8031496062992126,"duration":0.40329401302085444},{"name":"C#5","midi":73,"time":255.81087050000394,"velocity":0.8031496062992126,"duration":0.40329401302085444},{"name":"F#3","midi":54,"time":256.01357325000396,"velocity":0.8031496062992126,"duration":0.20059126302083996},{"name":"G#3","midi":56,"time":256.216276000004,"velocity":0.8031496062992126,"duration":0.20059126302083996},{"name":"C5","midi":72,"time":256.216276000004,"velocity":0.8031496062992126,"duration":0.40329401302085444},{"name":"D#4","midi":63,"time":256.216276000004,"velocity":0.8031496062992126,"duration":0.8023650520833598},{"name":"A3","midi":57,"time":256.418978750004,"velocity":0.8031496062992126,"duration":0.20059126302083996},{"name":"G#3","midi":56,"time":256.621681500004,"velocity":0.8031496062992126,"duration":0.20059126302083996},{"name":"A#4","midi":70,"time":256.621681500004,"velocity":0.8031496062992126,"duration":0.20059126302083996},{"name":"F#3","midi":54,"time":256.824384250004,"velocity":0.8031496062992126,"duration":0.20059126302083996},{"name":"G#4","midi":68,"time":256.824384250004,"velocity":0.8031496062992126,"duration":0.18158788020832617},{"name":"F3","midi":53,"time":257.02708700000403,"velocity":0.8031496062992126,"duration":0.8086995130208834},{"name":"B4","midi":71,"time":257.02708700000403,"velocity":0.8031496062992126,"duration":0.40329401302085444},{"name":"G#4","midi":68,"time":257.02708700000403,"velocity":0.8031496062992126,"duration":0.8023650520833598},{"name":"D5","midi":74,"time":257.43249250000406,"velocity":0.8031496062992126,"duration":0.40329401302085444},{"name":"G#3","midi":56,"time":257.8378980000041,"velocity":0.8031496062992126,"duration":0.8086995130208834},{"name":"D5","midi":74,"time":257.8378980000041,"velocity":0.8031496062992126,"duration":0.40329401302085444},{"name":"B4","midi":71,"time":257.8378980000041,"velocity":0.8031496062992126,"duration":0.8023650520833598},{"name":"G#5","midi":80,"time":258.2433035000041,"velocity":0.8031496062992126,"duration":0.40329401302085444},{"name":"C#3","midi":49,"time":258.64870900000415,"velocity":0.8031496062992126,"duration":0.8086995130208834},{"name":"G#5","midi":80,"time":258.64870900000415,"velocity":0.8031496062992126,"duration":0.4011825260416799},{"name":"B4","midi":71,"time":258.85141175000416,"velocity":0.8031496062992126,"duration":0.20059126302083996},{"name":"C#5","midi":73,"time":259.0541145000042,"velocity":0.8031496062992126,"duration":0.40329401302085444},{"name":"F4","midi":65,"time":259.0541145000042,"velocity":0.8031496062992126,"duration":0.40329401302085444},{"name":"F#3","midi":54,"time":259.4595200000042,"velocity":0.8031496062992126,"duration":0.20059126302083996},{"name":"A4","midi":69,"time":259.4595200000042,"velocity":0.8031496062992126,"duration":0.8086995130208834},{"name":"F#4","midi":66,"time":259.4595200000042,"velocity":0.8031496062992126,"duration":0.5912163541667041},{"name":"G#3","midi":56,"time":259.6622227500042,"velocity":0.8031496062992126,"duration":0.20059126302083996},{"name":"A3","midi":57,"time":259.86492550000423,"velocity":0.8031496062992126,"duration":0.20059126302083996},{"name":"B3","midi":59,"time":260.06762825000425,"velocity":0.8031496062992126,"duration":0.20059126302083996},{"name":"C#4","midi":61,"time":260.27033100000426,"velocity":0.8031496062992126,"duration":0.20059126302083996},{"name":"A4","midi":69,"time":260.27033100000426,"velocity":0.8031496062992126,"duration":0.40329401302085444},{"name":"F#4","midi":66,"time":260.27033100000426,"velocity":0.8031496062992126,"duration":0.8023650520833598},{"name":"D#4","midi":63,"time":260.4730337500043,"velocity":0.8031496062992126,"duration":0.20059126302083996},{"name":"E4","midi":64,"time":260.6757365000043,"velocity":0.8031496062992126,"duration":0.20059126302083996},{"name":"C#5","midi":73,"time":260.6757365000043,"velocity":0.8031496062992126,"duration":0.40329401302085444},{"name":"C#4","midi":61,"time":260.8784392500043,"velocity":0.8031496062992126,"duration":0.20059126302083996},{"name":"D#4","midi":63,"time":261.0811420000043,"velocity":0.8031496062992126,"duration":0.20059126302083996},{"name":"A4","midi":69,"time":261.0811420000043,"velocity":0.8031496062992126,"duration":0.8023650520833598},{"name":"C#5","midi":73,"time":261.0811420000043,"velocity":0.8031496062992126,"duration":0.40329401302085444},{"name":"C#4","midi":61,"time":261.28384475000433,"velocity":0.8031496062992126,"duration":0.20059126302083996},{"name":"B3","midi":59,"time":261.48654750000435,"velocity":0.8031496062992126,"duration":0.20059126302083996},{"name":"F#5","midi":78,"time":261.48654750000435,"velocity":0.8031496062992126,"duration":0.40329401302085444},{"name":"A3","midi":57,"time":261.68925025000436,"velocity":0.8031496062992126,"duration":0.20059126302083996},{"name":"G#3","midi":56,"time":261.8919530000044,"velocity":0.8031496062992126,"duration":0.20059126302083996},{"name":"F#5","midi":78,"time":261.8919530000044,"velocity":0.8031496062992126,"duration":0.20059126302083996},{"name":"A4","midi":69,"time":261.8919530000044,"velocity":0.8031496062992126,"duration":0.4011825260416799},{"name":"F#3","midi":54,"time":262.0946557500044,"velocity":0.8031496062992126,"duration":0.20059126302083996},{"name":"D#5","midi":75,"time":262.0946557500044,"velocity":0.8031496062992126,"duration":0.20059126302083996},{"name":"G#3","midi":56,"time":262.2973585000044,"velocity":0.8031496062992126,"duration":0.20059126302083996},{"name":"G#4","midi":68,"time":262.2973585000044,"velocity":0.8031496062992126,"duration":0.40329401302085444},{"name":"E5","midi":76,"time":262.2973585000044,"velocity":0.8031496062992126,"duration":0.40329401302085444},{"name":"E3","midi":52,"time":262.5000612500044,"velocity":0.8031496062992126,"duration":0.20059126302083996},{"name":"B3","midi":59,"time":262.70276400000444,"velocity":0.8031496062992126,"duration":0.20059126302083996},{"name":"E5","midi":76,"time":262.70276400000444,"velocity":0.8031496062992126,"duration":0.20059126302083996},{"name":"F#4","midi":66,"time":262.70276400000444,"velocity":0.8031496062992126,"duration":0.5912163541667041},{"name":"A3","midi":57,"time":262.90546675000445,"velocity":0.8031496062992126,"duration":0.20059126302083996},{"name":"D#5","midi":75,"time":262.90546675000445,"velocity":0.8031496062992126,"duration":0.20059126302083996},{"name":"G#3","midi":56,"time":263.10816950000446,"velocity":0.8031496062992126,"duration":0.20059126302083996},{"name":"C#5","midi":73,"time":263.10816950000446,"velocity":0.8031496062992126,"duration":0.20059126302083996},{"name":"F#3","midi":54,"time":263.3108722500045,"velocity":0.8031496062992126,"duration":0.20059126302083996},{"name":"B4","midi":71,"time":263.3108722500045,"velocity":0.8031496062992126,"duration":0.20059126302083996},{"name":"E3","midi":52,"time":263.5135750000045,"velocity":0.8031496062992126,"duration":0.8086995130208834},{"name":"G#5","midi":80,"time":263.5135750000045,"velocity":0.8031496062992126,"duration":0.40329401302085444},{"name":"B4","midi":71,"time":263.5135750000045,"velocity":0.8031496062992126,"duration":0.40329401302085444},{"name":"C#5","midi":73,"time":263.9189805000045,"velocity":0.8031496062992126,"duration":0.40329401302085444},{"name":"A5","midi":81,"time":263.9189805000045,"velocity":0.8031496062992126,"duration":0.40329401302085444},{"name":"E2","midi":40,"time":264.32438600000455,"velocity":0.8031496062992126,"duration":0.8086995130208834},{"name":"A5","midi":81,"time":264.32438600000455,"velocity":0.8031496062992126,"duration":0.40329401302085444},{"name":"C#5","midi":73,"time":264.32438600000455,"velocity":0.8031496062992126,"duration":0.40329401302085444},{"name":"B5","midi":83,"time":264.7297915000046,"velocity":0.8031496062992126,"duration":0.40329401302085444},{"name":"D5","midi":74,"time":264.7297915000046,"velocity":0.8031496062992126,"duration":0.40329401302085444},{"name":"F2","midi":41,"time":265.1351970000046,"velocity":0.8031496062992126,"duration":0.8065880260417089},{"name":"B5","midi":83,"time":265.1351970000046,"velocity":0.8031496062992126,"duration":0.8002535651041853},{"name":"D5","midi":74,"time":265.1351970000046,"velocity":0.8031496062992126,"duration":0.19847977604166545},{"name":"B4","midi":71,"time":265.33578826302545,"velocity":0.8031496062992126,"duration":0.19847977604166545},{"name":"C#5","midi":73,"time":265.53849101302546,"velocity":0.8031496062992126,"duration":0.4011825260416799},{"name":"C#5","midi":73,"time":265.9438965130255,"velocity":0.8031496062992126,"duration":0.823479921875105},{"name":"F#2","midi":42,"time":265.9438965130255,"velocity":0.8031496062992126,"duration":0.20270275000001448},{"name":"A5","midi":81,"time":266.15082223698386,"velocity":0.8031496062992126,"duration":0.20270275000001448},{"name":"G#2","midi":44,"time":266.15082223698386,"velocity":0.8031496062992126,"duration":0.20270275000001448},{"name":"G#5","midi":80,"time":266.3598594479214,"velocity":0.8031496062992126,"duration":0.20270275000001448},{"name":"A2","midi":45,"time":266.3598594479214,"velocity":0.8031496062992126,"duration":0.20270275000001448},{"name":"F#5","midi":78,"time":266.56889665885893,"velocity":0.8031496062992126,"duration":0.20270275000001448},{"name":"B2","midi":47,"time":266.56889665885893,"velocity":0.8031496062992126,"duration":0.20270275000001448},{"name":"C#3","midi":49,"time":266.77793386979647,"velocity":0.8031496062992126,"duration":0.2111486979166557},{"name":"E5","midi":76,"time":266.77793386979647,"velocity":0.8031496062992126,"duration":2.208615380208414},{"name":"F#4","midi":66,"time":266.77793386979647,"velocity":0.8031496062992126,"duration":0.4054054999999721},{"name":"A2","midi":45,"time":266.9911940546923,"velocity":0.8031496062992126,"duration":0.2111486979166557},{"name":"G#2","midi":44,"time":267.2065657265673,"velocity":0.8031496062992126,"duration":0.2111486979166557},{"name":"F#4","midi":66,"time":267.2065657265673,"velocity":0.8031496062992126,"duration":0.10346286197915333},{"name":"G#4","midi":68,"time":267.31214007552563,"velocity":0.8031496062992126,"duration":0.10346286197915333},{"name":"F#2","midi":42,"time":267.4219373984423,"velocity":0.8031496062992126,"duration":0.2111486979166557},{"name":"A4","midi":69,"time":267.4219373984423,"velocity":0.8031496062992126,"duration":0.2111486979166557},{"name":"G#4","midi":68,"time":267.6373090703173,"velocity":0.8031496062992126,"duration":0.4222973958333682},{"name":"B2","midi":47,"time":267.6373090703173,"velocity":0.8031496062992126,"duration":0.21748315885417924},{"name":"G#2","midi":44,"time":267.8547922291715,"velocity":0.8031496062992126,"duration":0.21748315885417924},{"name":"G#4","midi":68,"time":268.0786098489632,"velocity":0.8031496062992126,"duration":0.10557434895832785},{"name":"F#2","midi":42,"time":268.0786098489632,"velocity":0.8031496062992126,"duration":0.21748315885417924},{"name":"A4","midi":69,"time":268.1862956849007,"velocity":0.8031496062992126,"duration":0.10557434895832785},{"name":"E2","midi":40,"time":268.304538955734,"velocity":0.8031496062992126,"duration":0.24070951562498522},{"name":"B4","midi":71,"time":268.304538955734,"velocity":0.8031496062992126,"duration":0.24070951562498522},{"name":"G#4","midi":68,"time":268.5515829322965,"velocity":0.8031496062992126,"duration":0.5215372838542294},{"name":"B2","midi":47,"time":268.5515829322965,"velocity":0.8031496062992126,"duration":0.5025339010417156},{"name":"F#4","midi":66,"time":269.06678575521323,"velocity":0.8031496062992126,"duration":0.2533784375000323},{"name":"D#5","midi":75,"time":269.06678575521323,"velocity":0.8031496062992126,"duration":0.5173143098958235},{"name":"B2","midi":47,"time":269.06678575521323,"velocity":0.8031496062992126,"duration":0.5215372838541725},{"name":"E4","midi":64,"time":269.3286101406299,"velocity":0.8031496062992126,"duration":0.25337843749997546},{"name":"E5","midi":76,"time":269.5946575000049,"velocity":0.8031496062992126,"duration":1.8243247500000166},{"name":"E4","midi":64,"time":269.5946575000049,"velocity":0.8031496062992126,"duration":1.8201017760416676},{"name":"E2","midi":40,"time":269.5946575000049,"velocity":0.8031496062992126,"duration":1.8158788020833185},{"name":"E4","midi":64,"time":273.24330700000496,"velocity":0.8031496062992126,"duration":0.2005912630208968},{"name":"G#5","midi":80,"time":273.24330700000496,"velocity":0.8031496062992126,"duration":0.09923988802086114},{"name":"A5","midi":81,"time":273.344658375005,"velocity":0.8031496062992126,"duration":0.09923988802086114},{"name":"D#4","midi":63,"time":273.44600975000503,"velocity":0.8031496062992126,"duration":0.20059126302083996},{"name":"B5","midi":83,"time":273.44600975000503,"velocity":0.8031496062992126,"duration":0.20059126302083996},{"name":"C#4","midi":61,"time":273.64871250000505,"velocity":0.8031496062992126,"duration":0.20059126302083996},{"name":"A5","midi":81,"time":273.64871250000505,"velocity":0.8031496062992126,"duration":0.40329401302085444},{"name":"E4","midi":64,"time":273.85141525000506,"velocity":0.8031496062992126,"duration":0.20059126302083996},{"name":"B3","midi":59,"time":274.0541180000051,"velocity":0.8031496062992126,"duration":0.20059126302083996},{"name":"G#5","midi":80,"time":274.0541180000051,"velocity":0.8031496062992126,"duration":0.40329401302085444},{"name":"E4","midi":64,"time":274.2568207500051,"velocity":0.8031496062992126,"duration":0.20059126302083996},{"name":"A3","midi":57,"time":274.4595235000051,"velocity":0.8031496062992126,"duration":0.20059126302083996},{"name":"F#5","midi":78,"time":274.4595235000051,"velocity":0.8031496062992126,"duration":0.20059126302083996},{"name":"E4","midi":64,"time":274.6622262500051,"velocity":0.8031496062992126,"duration":0.20059126302083996},{"name":"D#5","midi":75,"time":274.6622262500051,"velocity":0.8031496062992126,"duration":0.20059126302083996},{"name":"G#3","midi":56,"time":274.86492900000513,"velocity":0.8031496062992126,"duration":0.20059126302083996},{"name":"E5","midi":76,"time":274.86492900000513,"velocity":0.8031496062992126,"duration":0.5912163541667041},{"name":"E4","midi":64,"time":275.06763175000515,"velocity":0.8031496062992126,"duration":0.20059126302083996},{"name":"F#3","midi":54,"time":275.27033450000516,"velocity":0.8031496062992126,"duration":0.20059126302083996},{"name":"E4","midi":64,"time":275.4730372500052,"velocity":0.8031496062992126,"duration":0.20059126302083996},{"name":"G#3","midi":56,"time":275.6757400000052,"velocity":0.8031496062992126,"duration":0.20059126302083996},{"name":"B4","midi":71,"time":275.6757400000052,"velocity":0.8031496062992126,"duration":0.20059126302083996},{"name":"E4","midi":64,"time":275.8784427500052,"velocity":0.8031496062992126,"duration":0.20059126302083996},{"name":"D5","midi":74,"time":275.8784427500052,"velocity":0.8031496062992126,"duration":0.20059126302083996},{"name":"A3","midi":57,"time":276.0811455000052,"velocity":0.8031496062992126,"duration":0.20059126302083996},{"name":"D5","midi":74,"time":276.0811455000052,"velocity":0.8031496062992126,"duration":0.20059126302083996},{"name":"E4","midi":64,"time":276.28384825000524,"velocity":0.8031496062992126,"duration":0.20059126302083996},{"name":"C#5","midi":73,"time":276.28384825000524,"velocity":0.8031496062992126,"duration":0.20059126302083996},{"name":"G#3","midi":56,"time":276.48655100000525,"velocity":0.8031496062992126,"duration":0.20059126302083996},{"name":"C#5","midi":73,"time":276.48655100000525,"velocity":0.8031496062992126,"duration":0.20059126302083996},{"name":"E4","midi":64,"time":276.68925375000526,"velocity":0.8031496062992126,"duration":0.20059126302083996},{"name":"B4","midi":71,"time":276.68925375000526,"velocity":0.8031496062992126,"duration":0.20059126302083996},{"name":"F#3","midi":54,"time":276.8919565000053,"velocity":0.8031496062992126,"duration":0.2005912630208968},{"name":"B4","midi":71,"time":276.8919565000053,"velocity":0.8031496062992126,"duration":0.09923988802086114},{"name":"A4","midi":69,"time":276.9933078750053,"velocity":0.8031496062992126,"duration":0.09923988802086114},{"name":"D#4","midi":63,"time":277.09465925000535,"velocity":0.8031496062992126,"duration":0.2005912630208968},{"name":"G#4","midi":68,"time":277.09465925000535,"velocity":0.8031496062992126,"duration":0.09923988802086114},{"name":"F#4","midi":66,"time":277.1960106250054,"velocity":0.8031496062992126,"duration":0.09923988802086114},{"name":"E4","midi":64,"time":277.2973620000054,"velocity":0.8031496062992126,"duration":0.2005912630208968},{"name":"G#4","midi":68,"time":277.2973620000054,"velocity":0.8031496062992126,"duration":0.09923988802086114},{"name":"F#4","midi":66,"time":277.39871337500546,"velocity":0.8031496062992126,"duration":0.09923988802086114},{"name":"E3","midi":52,"time":277.5000647500055,"velocity":0.8031496062992126,"duration":0.20059126302083996},{"name":"G#4","midi":68,"time":277.5000647500055,"velocity":0.8031496062992126,"duration":0.20059126302083996},{"name":"G#3","midi":56,"time":277.7027675000055,"velocity":0.8031496062992126,"duration":0.20059126302083996},{"name":"E4","midi":64,"time":277.7027675000055,"velocity":0.8031496062992126,"duration":0.3040541249999933},{"name":"B3","midi":59,"time":277.9054702500055,"velocity":0.8031496062992126,"duration":0.20059126302083996},{"name":"E4","midi":64,"time":278.10817300000554,"velocity":0.8031496062992126,"duration":0.2005912630208968},{"name":"G#5","midi":80,"time":278.10817300000554,"velocity":0.8031496062992126,"duration":0.09923988802086114},{"name":"A5","midi":81,"time":278.20952437500557,"velocity":0.8031496062992126,"duration":0.09923988802086114},{"name":"D#4","midi":63,"time":278.3108757500056,"velocity":0.8031496062992126,"duration":0.20059126302083996},{"name":"B5","midi":83,"time":278.3108757500056,"velocity":0.8031496062992126,"duration":0.20059126302083996},{"name":"C#4","midi":61,"time":278.5135785000056,"velocity":0.8031496062992126,"duration":0.20059126302083996},{"name":"A5","midi":81,"time":278.5135785000056,"velocity":0.8031496062992126,"duration":0.40329401302085444},{"name":"E4","midi":64,"time":278.71628125000564,"velocity":0.8031496062992126,"duration":0.20059126302083996},{"name":"B3","midi":59,"time":278.91898400000565,"velocity":0.8031496062992126,"duration":0.20059126302083996},{"name":"G#5","midi":80,"time":278.91898400000565,"velocity":0.8031496062992126,"duration":0.40329401302085444},{"name":"E4","midi":64,"time":279.12168675000567,"velocity":0.8031496062992126,"duration":0.20059126302083996},{"name":"C#4","midi":61,"time":279.3243895000057,"velocity":0.8031496062992126,"duration":0.20059126302083996},{"name":"A#4","midi":70,"time":279.3243895000057,"velocity":0.8031496062992126,"duration":0.20059126302083996},{"name":"E4","midi":64,"time":279.5270922500057,"velocity":0.8031496062992126,"duration":0.20059126302083996},{"name":"C#5","midi":73,"time":279.5270922500057,"velocity":0.8031496062992126,"duration":0.20059126302083996},{"name":"B3","midi":59,"time":279.7297950000057,"velocity":0.8031496062992126,"duration":0.20059126302083996},{"name":"F#5","midi":78,"time":279.7297950000057,"velocity":0.8031496062992126,"duration":0.5912163541667041},{"name":"E4","midi":64,"time":279.9324977500057,"velocity":0.8031496062992126,"duration":0.20059126302083996},{"name":"A#3","midi":58,"time":280.13520050000574,"velocity":0.8031496062992126,"duration":0.20059126302083996},{"name":"E4","midi":64,"time":280.33790325000575,"velocity":0.8031496062992126,"duration":0.20059126302083996},{"name":"B3","midi":59,"time":280.54060600000577,"velocity":0.8031496062992126,"duration":0.20059126302083996},{"name":"F#4","midi":66,"time":280.54060600000577,"velocity":0.8031496062992126,"duration":0.20059126302083996},{"name":"D#4","midi":63,"time":280.7433087500058,"velocity":0.8031496062992126,"duration":0.2005912630208968},{"name":"G#4","midi":68,"time":280.7433087500058,"velocity":0.8031496062992126,"duration":0.09923988802086114},{"name":"A#4","midi":70,"time":280.8446601250058,"velocity":0.8031496062992126,"duration":0.09923988802086114},{"name":"D#3","midi":51,"time":280.94601150000585,"velocity":0.8031496062992126,"duration":0.20059126302083996},{"name":"B4","midi":71,"time":280.94601150000585,"velocity":0.8031496062992126,"duration":0.20059126302083996},{"name":"B3","midi":59,"time":281.14871425000587,"velocity":0.8031496062992126,"duration":0.2005912630208968},{"name":"C#5","midi":73,"time":281.14871425000587,"velocity":0.8031496062992126,"duration":0.09923988802086114},{"name":"D#5","midi":75,"time":281.2500656250059,"velocity":0.8031496062992126,"duration":0.09923988802086114},{"name":"F#3","midi":54,"time":281.35141700000594,"velocity":0.8031496062992126,"duration":0.20059126302083996},{"name":"E5","midi":76,"time":281.35141700000594,"velocity":0.8031496062992126,"duration":0.20059126302083996},{"name":"A#3","midi":58,"time":281.55411975000595,"velocity":0.8031496062992126,"duration":0.2005912630208968},{"name":"D#5","midi":75,"time":281.55411975000595,"velocity":0.8031496062992126,"duration":0.09923988802086114},{"name":"C#5","midi":73,"time":281.655471125006,"velocity":0.8031496062992126,"duration":0.09923988802086114},{"name":"B3","midi":59,"time":281.756822500006,"velocity":0.8031496062992126,"duration":0.2005912630208968},{"name":"F#5","midi":78,"time":281.756822500006,"velocity":0.8031496062992126,"duration":0.09923988802086114},{"name":"E5","midi":76,"time":281.85817387500606,"velocity":0.8031496062992126,"duration":0.09923988802086114},{"name":"F#3","midi":54,"time":281.9595252500061,"velocity":0.8031496062992126,"duration":0.2005912630208968},{"name":"D#5","midi":75,"time":281.9595252500061,"velocity":0.8031496062992126,"duration":0.09923988802086114},{"name":"C#5","midi":73,"time":282.06087662500613,"velocity":0.8031496062992126,"duration":0.09923988802086114},{"name":"D#3","midi":51,"time":282.16222800000617,"velocity":0.8031496062992126,"duration":0.20059126302083996},{"name":"B4","midi":71,"time":282.16222800000617,"velocity":0.8031496062992126,"duration":0.5912163541667041},{"name":"F#3","midi":54,"time":282.3649307500062,"velocity":0.8031496062992126,"duration":0.20059126302083996},{"name":"B2","midi":47,"time":282.5676335000062,"velocity":0.8031496062992126,"duration":0.40329401302085444},{"name":"B3","midi":59,"time":282.9730390000062,"velocity":0.8031496062992126,"duration":0.2005912630208968},{"name":"D#5","midi":75,"time":282.9730390000062,"velocity":0.8031496062992126,"duration":0.09923988802086114},{"name":"E5","midi":76,"time":283.07439037500626,"velocity":0.8031496062992126,"duration":0.09923988802086114},{"name":"A3","midi":57,"time":283.1757417500063,"velocity":0.8031496062992126,"duration":0.20059126302083996},{"name":"F#5","midi":78,"time":283.1757417500063,"velocity":0.8031496062992126,"duration":0.20059126302083996},{"name":"G#3","midi":56,"time":283.3784445000063,"velocity":0.8031496062992126,"duration":0.20059126302083996},{"name":"E5","midi":76,"time":283.3784445000063,"velocity":0.8031496062992126,"duration":0.40329401302085444},{"name":"B3","midi":59,"time":283.5811472500063,"velocity":0.8031496062992126,"duration":0.20059126302083996},{"name":"F#3","midi":54,"time":283.78385000000634,"velocity":0.8031496062992126,"duration":0.20059126302083996},{"name":"D#5","midi":75,"time":283.78385000000634,"velocity":0.8031496062992126,"duration":0.40329401302085444},{"name":"A3","midi":57,"time":283.98655275000635,"velocity":0.8031496062992126,"duration":0.20059126302083996},{"name":"C4","midi":60,"time":284.18925550000637,"velocity":0.8031496062992126,"duration":0.20059126302083996},{"name":"A5","midi":81,"time":284.18925550000637,"velocity":0.8031496062992126,"duration":0.20059126302083996},{"name":"C#4","midi":61,"time":284.3919582500064,"velocity":0.8031496062992126,"duration":0.20059126302083996},{"name":"F#5","midi":78,"time":284.3919582500064,"velocity":0.8031496062992126,"duration":0.20059126302083996},{"name":"D#4","midi":63,"time":284.5946610000064,"velocity":0.8031496062992126,"duration":0.2005912630208968},{"name":"G#5","midi":80,"time":284.5946610000064,"velocity":0.8031496062992126,"duration":0.09923988802086114},{"name":"F#5","midi":78,"time":284.69601237500643,"velocity":0.8031496062992126,"duration":0.09923988802086114},{"name":"F#3","midi":54,"time":284.79736375000647,"velocity":0.8031496062992126,"duration":0.20059126302083996},{"name":"G#5","midi":80,"time":284.79736375000647,"velocity":0.8031496062992126,"duration":0.4011825260416799},{"name":"C#4","midi":61,"time":285.0000665000065,"velocity":0.8031496062992126,"duration":0.20059126302083996},{"name":"E3","midi":52,"time":285.2027692500065,"velocity":0.8031496062992126,"duration":0.20059126302083996},{"name":"D#3","midi":51,"time":285.4054720000065,"velocity":0.8031496062992126,"duration":0.20059126302083996},{"name":"C5","midi":72,"time":285.4054720000065,"velocity":0.8031496062992126,"duration":0.20059126302083996},{"name":"C#3","midi":49,"time":285.6081747500065,"velocity":0.8031496062992126,"duration":0.20059126302083996},{"name":"F#5","midi":78,"time":285.6081747500065,"velocity":0.8031496062992126,"duration":0.20059126302083996},{"name":"C3","midi":48,"time":285.81087750000654,"velocity":0.8031496062992126,"duration":0.20059126302083996},{"name":"F#5","midi":78,"time":285.81087750000654,"velocity":0.8031496062992126,"duration":0.20059126302083996},{"name":"G#3","midi":56,"time":286.01358025000656,"velocity":0.8031496062992126,"duration":0.20059126302083996},{"name":"E5","midi":76,"time":286.01358025000656,"velocity":0.8031496062992126,"duration":0.20059126302083996},{"name":"C#3","midi":49,"time":286.21628300000657,"velocity":0.8031496062992126,"duration":0.20059126302083996},{"name":"E5","midi":76,"time":286.21628300000657,"velocity":0.8031496062992126,"duration":0.20059126302083996},{"name":"G#3","midi":56,"time":286.4189857500066,"velocity":0.8031496062992126,"duration":0.20059126302083996},{"name":"D#5","midi":75,"time":286.4189857500066,"velocity":0.8031496062992126,"duration":0.20059126302083996},{"name":"G#2","midi":44,"time":286.6216885000066,"velocity":0.8031496062992126,"duration":0.2005912630208968},{"name":"D#5","midi":75,"time":286.6216885000066,"velocity":0.8031496062992126,"duration":0.09923988802086114},{"name":"C#5","midi":73,"time":286.72303987500663,"velocity":0.8031496062992126,"duration":0.09923988802086114},{"name":"A3","midi":57,"time":286.82439125000667,"velocity":0.8031496062992126,"duration":0.2005912630208968},{"name":"C5","midi":72,"time":286.82439125000667,"velocity":0.8031496062992126,"duration":0.09923988802086114},{"name":"C#5","midi":73,"time":286.9257426250067,"velocity":0.8031496062992126,"duration":0.09923988802086114},{"name":"G#3","midi":56,"time":287.02709400000674,"velocity":0.8031496062992126,"duration":0.20059126302083996},{"name":"D#5","midi":75,"time":287.02709400000674,"velocity":0.8031496062992126,"duration":0.4032940130209113},{"name":"A3","midi":57,"time":287.22979675000676,"velocity":0.8031496062992126,"duration":0.09923988802086114},{"name":"G#3","midi":56,"time":287.3311481250068,"velocity":0.8031496062992126,"duration":0.09923988802086114},{"name":"F#3","midi":54,"time":287.4324995000068,"velocity":0.8031496062992126,"duration":0.20059126302083996},{"name":"G#4","midi":68,"time":287.4324995000068,"velocity":0.8031496062992126,"duration":0.2956081770833521},{"name":"G#3","midi":56,"time":287.63520225000684,"velocity":0.8031496062992126,"duration":0.09923988802086114},{"name":"F#3","midi":54,"time":287.7365536250069,"velocity":0.8031496062992126,"duration":0.09923988802086114},{"name":"F3","midi":53,"time":287.8379050000069,"velocity":0.8031496062992126,"duration":0.2005912630208968},{"name":"D5","midi":74,"time":287.8379050000069,"velocity":0.8031496062992126,"duration":0.09923988802086114},{"name":"C#5","midi":73,"time":287.93925637500695,"velocity":0.8031496062992126,"duration":0.09923988802086114},{"name":"G#3","midi":56,"time":288.040607750007,"velocity":0.8031496062992126,"duration":0.2005912630208968},{"name":"C5","midi":72,"time":288.040607750007,"velocity":0.8031496062992126,"duration":0.09923988802086114},{"name":"C#5","midi":73,"time":288.141959125007,"velocity":0.8031496062992126,"duration":0.09923988802086114},{"name":"C#3","midi":49,"time":288.24331050000706,"velocity":0.8031496062992126,"duration":0.2005912630208968},{"name":"D5","midi":74,"time":288.24331050000706,"velocity":0.8031496062992126,"duration":0.09923988802086114},{"name":"C#5","midi":73,"time":288.3446618750071,"velocity":0.8031496062992126,"duration":0.09923988802086114},{"name":"G#3","midi":56,"time":288.4460132500071,"velocity":0.8031496062992126,"duration":0.2005912630208968},{"name":"C5","midi":72,"time":288.4460132500071,"velocity":0.8031496062992126,"duration":0.09923988802086114},{"name":"C#5","midi":73,"time":288.54736462500716,"velocity":0.8031496062992126,"duration":0.09923988802086114},{"name":"F3","midi":53,"time":288.6487160000072,"velocity":0.8031496062992126,"duration":0.20059126302083996},{"name":"B5","midi":83,"time":288.6487160000072,"velocity":0.8031496062992126,"duration":0.33783791666667184},{"name":"G#3","midi":56,"time":288.8514187500072,"velocity":0.8031496062992126,"duration":0.20059126302083996},{"name":"F#3","midi":54,"time":289.0541215000072,"velocity":0.8031496062992126,"duration":0.2005912630208968},{"name":"D5","midi":74,"time":289.0541215000072,"velocity":0.8031496062992126,"duration":0.09923988802086114},{"name":"C#5","midi":73,"time":289.15547287500726,"velocity":0.8031496062992126,"duration":0.09923988802086114},{"name":"A3","midi":57,"time":289.2568242500073,"velocity":0.8031496062992126,"duration":0.2005912630208968},{"name":"C5","midi":72,"time":289.2568242500073,"velocity":0.8031496062992126,"duration":0.09923988802086114},{"name":"C#5","midi":73,"time":289.35817562500733,"velocity":0.8031496062992126,"duration":0.09923988802086114},{"name":"E3","midi":52,"time":289.45952700000737,"velocity":0.8031496062992126,"duration":0.2005912630208968},{"name":"D5","midi":74,"time":289.45952700000737,"velocity":0.8031496062992126,"duration":0.09923988802086114},{"name":"C#5","midi":73,"time":289.5608783750074,"velocity":0.8031496062992126,"duration":0.09923988802086114},{"name":"G#3","midi":56,"time":289.66222975000744,"velocity":0.8031496062992126,"duration":0.2005912630208968},{"name":"C5","midi":72,"time":289.66222975000744,"velocity":0.8031496062992126,"duration":0.09923988802086114},{"name":"C#5","midi":73,"time":289.7635811250075,"velocity":0.8031496062992126,"duration":0.09923988802086114},{"name":"D#3","midi":51,"time":289.8649325000075,"velocity":0.8031496062992126,"duration":0.20059126302083996},{"name":"A5","midi":81,"time":289.8649325000075,"velocity":0.8031496062992126,"duration":0.33783791666667184},{"name":"F#3","midi":54,"time":290.0676352500075,"velocity":0.8031496062992126,"duration":0.20059126302083996},{"name":"E3","midi":52,"time":290.27033800000754,"velocity":0.8031496062992126,"duration":0.20059126302083996},{"name":"G#4","midi":68,"time":290.27033800000754,"velocity":0.8031496062992126,"duration":0.20059126302083996},{"name":"D#3","midi":51,"time":290.47304075000756,"velocity":0.8031496062992126,"duration":0.2005912630208968},{"name":"A#4","midi":70,"time":290.47304075000756,"velocity":0.8031496062992126,"duration":0.09923988802086114},{"name":"C5","midi":72,"time":290.5743921250076,"velocity":0.8031496062992126,"duration":0.09923988802086114},{"name":"E3","midi":52,"time":290.6757435000076,"velocity":0.8031496062992126,"duration":0.20059126302083996},{"name":"C#5","midi":73,"time":290.6757435000076,"velocity":0.8031496062992126,"duration":0.20059126302083996},{"name":"F#3","midi":54,"time":290.87844625000764,"velocity":0.8031496062992126,"duration":0.2005912630208968},{"name":"D#5","midi":75,"time":290.87844625000764,"velocity":0.8031496062992126,"duration":0.09923988802086114},{"name":"E5","midi":76,"time":290.9797976250077,"velocity":0.8031496062992126,"duration":0.09923988802086114},{"name":"G#3","midi":56,"time":291.0811490000077,"velocity":0.8031496062992126,"duration":0.20059126302083996},{"name":"D#5","midi":75,"time":291.0811490000077,"velocity":0.8031496062992126,"duration":0.20059126302083996},{"name":"G#2","midi":44,"time":291.2838517500077,"velocity":0.8031496062992126,"duration":0.2005912630208968},{"name":"C#5","midi":73,"time":291.2838517500077,"velocity":0.8031496062992126,"duration":0.09923988802086114},{"name":"C5","midi":72,"time":291.38520312500776,"velocity":0.8031496062992126,"duration":0.09923988802086114},{"name":"C#3","midi":49,"time":291.4865545000078,"velocity":0.8031496062992126,"duration":0.2005912630208968},{"name":"C#5","midi":73,"time":291.4865545000078,"velocity":0.8031496062992126,"duration":0.09923988802086114},{"name":"C5","midi":72,"time":291.58790587500783,"velocity":0.8031496062992126,"duration":0.09923988802086114},{"name":"G#2","midi":44,"time":291.68925725000787,"velocity":0.8031496062992126,"duration":0.20059126302083996},{"name":"C#5","midi":73,"time":291.68925725000787,"velocity":0.8031496062992126,"duration":0.20059126302083996},{"name":"C#2","midi":37,"time":291.8919600000079,"velocity":0.8031496062992126,"duration":0.20059126302083996},{"name":"C#5","midi":73,"time":291.8919600000079,"velocity":0.8031496062992126,"duration":0.5912163541667041},{"name":"G#2","midi":44,"time":292.0946627500079,"velocity":0.8031496062992126,"duration":0.20059126302083996},{"name":"C#3","midi":49,"time":292.2973655000079,"velocity":0.8031496062992126,"duration":0.20059126302083996},{"name":"D#3","midi":51,"time":292.5000682500079,"velocity":0.8031496062992126,"duration":0.20059126302083996},{"name":"E3","midi":52,"time":292.70277100000794,"velocity":0.8031496062992126,"duration":0.2005912630208968},{"name":"G#4","midi":68,"time":292.70277100000794,"velocity":0.8031496062992126,"duration":0.09923988802086114},{"name":"A4","midi":69,"time":292.804122375008,"velocity":0.8031496062992126,"duration":0.09923988802086114},{"name":"B2","midi":47,"time":292.905473750008,"velocity":0.8031496062992126,"duration":0.20059126302083996},{"name":"B4","midi":71,"time":292.905473750008,"velocity":0.8031496062992126,"duration":0.20059126302083996},{"name":"E2","midi":40,"time":293.108176500008,"velocity":0.8031496062992126,"duration":0.20059126302083996},{"name":"A4","midi":69,"time":293.108176500008,"velocity":0.8031496062992126,"duration":0.40329401302085444},{"name":"E3","midi":52,"time":293.31087925000804,"velocity":0.8031496062992126,"duration":0.20059126302083996},{"name":"D3","midi":50,"time":293.51358200000806,"velocity":0.8031496062992126,"duration":0.20059126302083996},{"name":"G#4","midi":68,"time":293.51358200000806,"velocity":0.8031496062992126,"duration":0.3800676562499916},{"name":"E3","midi":52,"time":293.71628475000807,"velocity":0.8031496062992126,"duration":0.20059126302078312},{"name":"A2","midi":45,"time":293.91898750000803,"velocity":0.8031496062992126,"duration":0.20059126302083996},{"name":"D5","midi":74,"time":293.91898750000803,"velocity":0.8031496062992126,"duration":0.20059126302083996},{"name":"A3","midi":57,"time":294.12169025000804,"velocity":0.8031496062992126,"duration":0.20059126302083996},{"name":"B4","midi":71,"time":294.12169025000804,"velocity":0.8031496062992126,"duration":0.20059126302083996},{"name":"E3","midi":52,"time":294.32439300000806,"velocity":0.8031496062992126,"duration":0.20059126302083996},{"name":"C#5","midi":73,"time":294.32439300000806,"velocity":0.8031496062992126,"duration":0.5912163541667041},{"name":"C#3","midi":49,"time":294.5270957500081,"velocity":0.8031496062992126,"duration":0.20059126302083996},{"name":"E3","midi":52,"time":294.7297985000081,"velocity":0.8031496062992126,"duration":0.20059126302083996},{"name":"G3","midi":55,"time":294.9325012500081,"velocity":0.8031496062992126,"duration":0.20059126302083996},{"name":"F#3","midi":54,"time":295.1352040000081,"velocity":0.8031496062992126,"duration":0.20059126302083996},{"name":"A#4","midi":70,"time":295.1352040000081,"velocity":0.8031496062992126,"duration":0.20059126302083996},{"name":"C#3","midi":49,"time":295.33790675000813,"velocity":0.8031496062992126,"duration":0.2005912630208968},{"name":"B4","midi":71,"time":295.33790675000813,"velocity":0.8031496062992126,"duration":0.09923988802086114},{"name":"C#5","midi":73,"time":295.43925812500817,"velocity":0.8031496062992126,"duration":0.09923988802086114},{"name":"F#2","midi":42,"time":295.5406095000082,"velocity":0.8031496062992126,"duration":0.20059126302083996},{"name":"B4","midi":71,"time":295.5406095000082,"velocity":0.8031496062992126,"duration":0.20059126302083996},{"name":"F#3","midi":54,"time":295.7433122500082,"velocity":0.8031496062992126,"duration":0.20059126302083996},{"name":"A#4","midi":70,"time":295.7433122500082,"velocity":0.8031496062992126,"duration":0.20059126302083996},{"name":"F3","midi":53,"time":295.94601500000823,"velocity":0.8031496062992126,"duration":0.20059126302083996},{"name":"G#4","midi":68,"time":295.94601500000823,"velocity":0.8031496062992126,"duration":0.20059126302083996},{"name":"F#3","midi":54,"time":296.14871775000825,"velocity":0.8031496062992126,"duration":0.20059126302083996},{"name":"F#4","midi":66,"time":296.14871775000825,"velocity":0.8031496062992126,"duration":0.20059126302083996},{"name":"B2","midi":47,"time":296.35142050000826,"velocity":0.8031496062992126,"duration":0.2005912630208968},{"name":"E5","midi":76,"time":296.35142050000826,"velocity":0.8031496062992126,"duration":0.09923988802086114},{"name":"D#5","midi":75,"time":296.4527718750083,"velocity":0.8031496062992126,"duration":0.09923988802086114},{"name":"B3","midi":59,"time":296.55412325000833,"velocity":0.8031496062992126,"duration":0.2005912630208968},{"name":"C#5","midi":73,"time":296.55412325000833,"velocity":0.8031496062992126,"duration":0.09923988802086114},{"name":"E5","midi":76,"time":296.65547462500837,"velocity":0.8031496062992126,"duration":0.09923988802086114},{"name":"F#3","midi":54,"time":296.7568260000084,"velocity":0.8031496062992126,"duration":0.20059126302083996},{"name":"D#5","midi":75,"time":296.7568260000084,"velocity":0.8031496062992126,"duration":0.31250007291669135},{"name":"D#3","midi":51,"time":296.9595287500084,"velocity":0.8031496062992126,"duration":0.20059126302083996},{"name":"F#3","midi":54,"time":297.16223150000843,"velocity":0.8031496062992126,"duration":0.20059126302083996},{"name":"B4","midi":71,"time":297.16223150000843,"velocity":0.8031496062992126,"duration":0.5046453880208901},{"name":"A3","midi":57,"time":297.36493425000845,"velocity":0.8031496062992126,"duration":0.20059126302083996},{"name":"G#3","midi":56,"time":297.56763700000846,"velocity":0.8031496062992126,"duration":0.2005912630208968},{"name":"C#5","midi":73,"time":297.6689883750085,"velocity":0.8031496062992126,"duration":0.09923988802086114},{"name":"B2","midi":47,"time":297.77033975000853,"velocity":0.8031496062992126,"duration":0.2005912630208968},{"name":"D#5","midi":75,"time":297.77033975000853,"velocity":0.8031496062992126,"duration":0.09923988802086114},{"name":"E5","midi":76,"time":297.87169112500857,"velocity":0.8031496062992126,"duration":0.09923988802086114},{"name":"A3","midi":57,"time":297.9730425000086,"velocity":0.8031496062992126,"duration":0.2005912630208968},{"name":"F#5","midi":78,"time":297.9730425000086,"velocity":0.8031496062992126,"duration":0.09923988802086114},{"name":"E5","midi":76,"time":298.07439387500864,"velocity":0.8031496062992126,"duration":0.09923988802086114},{"name":"C#3","midi":49,"time":298.1757452500087,"velocity":0.8031496062992126,"duration":0.2005912630208968},{"name":"D#5","midi":75,"time":298.1757452500087,"velocity":0.8031496062992126,"duration":0.09923988802086114},{"name":"E5","midi":76,"time":298.2770966250087,"velocity":0.8031496062992126,"duration":0.09923988802086114},{"name":"B3","midi":59,"time":298.37844800000875,"velocity":0.8031496062992126,"duration":0.20059126302083996},{"name":"A4","midi":69,"time":298.37844800000875,"velocity":0.8031496062992126,"duration":0.464527135416688},{"name":"D#3","midi":51,"time":298.58115075000876,"velocity":0.8031496062992126,"duration":0.20059126302083996},{"name":"C#4","midi":61,"time":298.7838535000088,"velocity":0.8031496062992126,"duration":0.20059126302083996},{"name":"C#5","midi":73,"time":298.88520487500875,"velocity":0.8031496062992126,"duration":0.09923988802086114},{"name":"E3","midi":52,"time":298.9865562500088,"velocity":0.8031496062992126,"duration":0.2005912630208968},{"name":"D#5","midi":75,"time":298.9865562500088,"velocity":0.8031496062992126,"duration":0.09923988802086114},{"name":"E5","midi":76,"time":299.0879076250088,"velocity":0.8031496062992126,"duration":0.09923988802086114},{"name":"D#4","midi":63,"time":299.18925900000886,"velocity":0.8031496062992126,"duration":0.2005912630208968},{"name":"F#5","midi":78,"time":299.18925900000886,"velocity":0.8031496062992126,"duration":0.09923988802086114},{"name":"E5","midi":76,"time":299.2906103750089,"velocity":0.8031496062992126,"duration":0.09923988802086114},{"name":"F#3","midi":54,"time":299.39196175000893,"velocity":0.8031496062992126,"duration":0.2005912630208968},{"name":"D#5","midi":75,"time":299.39196175000893,"velocity":0.8031496062992126,"duration":0.09923988802086114},{"name":"E5","midi":76,"time":299.49331312500897,"velocity":0.8031496062992126,"duration":0.09923988802086114},{"name":"E4","midi":64,"time":299.594664500009,"velocity":0.8031496062992126,"duration":0.20059126302083996},{"name":"G#4","midi":68,"time":299.594664500009,"velocity":0.8031496062992126,"duration":0.5468751276042099},{"name":"D#4","midi":63,"time":299.797367250009,"velocity":0.8031496062992126,"duration":0.20059126302083996},{"name":"C#4","midi":61,"time":300.00007000000903,"velocity":0.8031496062992126,"duration":0.204814236979189},{"name":"A#4","midi":70,"time":300.2069957239674,"velocity":0.8031496062992126,"duration":0.10135137499997882},{"name":"B3","midi":59,"time":300.2069957239674,"velocity":0.8031496062992126,"duration":0.204814236979189},{"name":"B4","midi":71,"time":300.3125700729257,"velocity":0.8031496062992126,"duration":0.10135137500003566},{"name":"A#3","midi":58,"time":300.41603293490493,"velocity":0.8031496062992126,"duration":0.20903721093748118},{"name":"C#5","midi":73,"time":300.41603293490493,"velocity":0.8031496062992126,"duration":0.10346286197915333},{"name":"B4","midi":71,"time":300.52371877084244,"velocity":0.8031496062992126,"duration":0.10346286197915333},{"name":"F#3","midi":54,"time":300.62929311980076,"velocity":0.8031496062992126,"duration":0.20903721093753802},{"name":"A#4","midi":70,"time":300.62929311980076,"velocity":0.8031496062992126,"duration":0.10346286197915333},{"name":"B4","midi":71,"time":300.73909044271744,"velocity":0.8031496062992126,"duration":0.10346286197921017},{"name":"F#4","midi":66,"time":300.8446647916758,"velocity":0.8031496062992126,"duration":0.2132601848958302},{"name":"B3","midi":59,"time":300.8446647916758,"velocity":0.8031496062992126,"duration":0.2132601848958302},{"name":"D#5","midi":75,"time":301.0642594375092,"velocity":0.8031496062992126,"duration":0.2132601848958302},{"name":"B2","midi":47,"time":301.0642594375092,"velocity":0.8031496062992126,"duration":0.2132601848958302},{"name":"D#5","midi":75,"time":301.28596557032165,"velocity":0.8031496062992126,"duration":0.10979732291667688},{"name":"E3","midi":52,"time":301.28596557032165,"velocity":0.8031496062992126,"duration":0.22592910677082045},{"name":"E5","midi":76,"time":301.40632032813414,"velocity":0.8031496062992126,"duration":0.10979732291667688},{"name":"F#5","midi":78,"time":301.52034062500917,"velocity":0.8031496062992126,"duration":0.10979732291667688},{"name":"B2","midi":47,"time":301.52034062500917,"velocity":0.8031496062992126,"duration":0.22592910677082045},{"name":"D#5","midi":75,"time":301.64069538282166,"velocity":0.8031496062992126,"duration":0.10979732291667688},{"name":"D#5","midi":75,"time":301.75682716667586,"velocity":0.8031496062992126,"duration":0.22592910677082045},{"name":"E2","midi":40,"time":301.75682716667586,"velocity":0.8031496062992126,"duration":0.22592910677082045},{"name":"E5","midi":76,"time":302.00809411719666,"velocity":0.8031496062992126,"duration":0.12457773177084164},{"name":"B2","midi":47,"time":302.00809411719666,"velocity":0.8031496062992126,"duration":0.26604735937502255},{"name":"D#5","midi":75,"time":302.1200029270925,"velocity":0.8031496062992126,"duration":0.12457773177084164},{"name":"E5","midi":76,"time":302.2614725546967,"velocity":0.8031496062992126,"duration":1.0135137500000155},{"name":"E3","midi":52,"time":302.2614725546967,"velocity":0.8031496062992126,"duration":1.0135137500000155},{"name":"G#4","midi":68,"time":304.8649360000092,"velocity":0.8031496062992126,"duration":0.20059126302083996},{"name":"A4","midi":69,"time":305.0676387500092,"velocity":0.8031496062992126,"duration":0.20059126302083996},{"name":"B4","midi":71,"time":305.27034150000924,"velocity":0.8031496062992126,"duration":0.40329401302085444},{"name":"E3","midi":52,"time":305.67574700000927,"velocity":0.8031496062992126,"duration":0.20059126302083996},{"name":"G#4","midi":68,"time":305.67574700000927,"velocity":0.8031496062992126,"duration":0.20059126302083996},{"name":"F#3","midi":54,"time":305.8784497500093,"velocity":0.8031496062992126,"duration":0.20059126302083996},{"name":"B4","midi":71,"time":305.8784497500093,"velocity":0.8031496062992126,"duration":0.20059126302083996},{"name":"G#3","midi":56,"time":306.0811525000093,"velocity":0.8031496062992126,"duration":0.20059126302083996},{"name":"E5","midi":76,"time":306.0811525000093,"velocity":0.8031496062992126,"duration":0.40329401302085444},{"name":"F#3","midi":54,"time":306.2838552500093,"velocity":0.8031496062992126,"duration":0.20059126302083996},{"name":"G#3","midi":56,"time":306.4865580000093,"velocity":0.8031496062992126,"duration":0.20059126302083996},{"name":"B4","midi":71,"time":306.4865580000093,"velocity":0.8031496062992126,"duration":0.40329401302085444},{"name":"E3","midi":52,"time":306.68926075000934,"velocity":0.8031496062992126,"duration":0.20059126302083996},{"name":"A3","midi":57,"time":306.89196350000935,"velocity":0.8031496062992126,"duration":0.20059126302083996},{"name":"F#5","midi":78,"time":306.89196350000935,"velocity":0.8031496062992126,"duration":0.40329401302085444},{"name":"G#3","midi":56,"time":307.09466625000937,"velocity":0.8031496062992126,"duration":0.20059126302083996},{"name":"A3","midi":57,"time":307.2973690000094,"velocity":0.8031496062992126,"duration":0.20059126302083996},{"name":"B4","midi":71,"time":307.2973690000094,"velocity":0.8031496062992126,"duration":0.40329401302085444},{"name":"E3","midi":52,"time":307.5000717500094,"velocity":0.8031496062992126,"duration":0.20059126302083996},{"name":"B3","midi":59,"time":307.7027745000094,"velocity":0.8031496062992126,"duration":0.20059126302083996},{"name":"G#5","midi":80,"time":307.7027745000094,"velocity":0.8031496062992126,"duration":0.40329401302085444},{"name":"A3","midi":57,"time":307.9054772500094,"velocity":0.8031496062992126,"duration":0.20059126302083996},{"name":"B3","midi":59,"time":308.10818000000944,"velocity":0.8031496062992126,"duration":0.20059126302083996},{"name":"B4","midi":71,"time":308.10818000000944,"velocity":0.8031496062992126,"duration":0.40329401302085444},{"name":"E3","midi":52,"time":308.31088275000945,"velocity":0.8031496062992126,"duration":0.20059126302083996},{"name":"C#4","midi":61,"time":308.51358550000947,"velocity":0.8031496062992126,"duration":0.20059126302083996},{"name":"A5","midi":81,"time":308.51358550000947,"velocity":0.8031496062992126,"duration":0.40329401302085444},{"name":"B3","midi":59,"time":308.7162882500095,"velocity":0.8031496062992126,"duration":0.20059126302083996},{"name":"C#4","midi":61,"time":308.9189910000095,"velocity":0.8031496062992126,"duration":0.20059126302083996},{"name":"G#5","midi":80,"time":308.9189910000095,"velocity":0.8031496062992126,"duration":0.20059126302083996},{"name":"E3","midi":52,"time":309.1216937500095,"velocity":0.8031496062992126,"duration":0.20059126302083996},{"name":"A5","midi":81,"time":309.1216937500095,"velocity":0.8031496062992126,"duration":0.20059126302083996},{"name":"D#4","midi":63,"time":309.3243965000095,"velocity":0.8031496062992126,"duration":0.20059126302083996},{"name":"B5","midi":83,"time":309.3243965000095,"velocity":0.8031496062992126,"duration":0.20059126302083996},{"name":"C#4","midi":61,"time":309.52709925000954,"velocity":0.8031496062992126,"duration":0.20059126302083996},{"name":"A5","midi":81,"time":309.52709925000954,"velocity":0.8031496062992126,"duration":0.20059126302083996},{"name":"D#4","midi":63,"time":309.72980200000956,"velocity":0.8031496062992126,"duration":0.20059126302083996},{"name":"G#5","midi":80,"time":309.72980200000956,"velocity":0.8031496062992126,"duration":0.20059126302083996},{"name":"E3","midi":52,"time":309.93250475000957,"velocity":0.8031496062992126,"duration":0.20059126302083996},{"name":"F#5","midi":78,"time":309.93250475000957,"velocity":0.8031496062992126,"duration":0.20059126302083996},{"name":"E4","midi":64,"time":310.1352075000096,"velocity":0.8031496062992126,"duration":0.40329401302085444},{"name":"A5","midi":81,"time":310.1352075000096,"velocity":0.8031496062992126,"duration":0.20059126302083996},{"name":"G#5","midi":80,"time":310.3379102500096,"velocity":0.8031496062992126,"duration":0.20059126302083996},{"name":"B3","midi":59,"time":310.5406130000096,"velocity":0.8031496062992126,"duration":0.40329401302085444},{"name":"F#5","midi":78,"time":310.5406130000096,"velocity":0.8031496062992126,"duration":0.20059126302083996},{"name":"G#5","midi":80,"time":310.74331575000963,"velocity":0.8031496062992126,"duration":0.20059126302083996},{"name":"G#3","midi":56,"time":310.94601850000964,"velocity":0.8031496062992126,"duration":0.40329401302085444},{"name":"E5","midi":76,"time":310.94601850000964,"velocity":0.8031496062992126,"duration":0.20059126302083996},{"name":"G#5","midi":80,"time":311.14872125000966,"velocity":0.8031496062992126,"duration":0.20059126302083996},{"name":"C4","midi":60,"time":311.3514240000097,"velocity":0.8031496062992126,"duration":0.3800676562499916},{"name":"F#5","midi":78,"time":311.3514240000097,"velocity":0.8031496062992126,"duration":0.20059126302083996},{"name":"G#5","midi":80,"time":311.5541267500097,"velocity":0.8031496062992126,"duration":0.20059126302078312},{"name":"C#4","midi":61,"time":311.75682950000964,"velocity":0.8031496062992126,"duration":0.40329401302085444},{"name":"E5","midi":76,"time":311.75682950000964,"velocity":0.8031496062992126,"duration":0.20059126302083996},{"name":"G#5","midi":80,"time":311.95953225000966,"velocity":0.8031496062992126,"duration":0.20059126302083996},{"name":"G#3","midi":56,"time":312.1622350000097,"velocity":0.8031496062992126,"duration":0.35895278645836015},{"name":"D#5","midi":75,"time":312.1622350000097,"velocity":0.8031496062992126,"duration":0.20059126302083996},{"name":"G#5","midi":80,"time":312.3649377500097,"velocity":0.8031496062992126,"duration":0.20059126302083996},{"name":"D#4","midi":63,"time":312.5676405000097,"velocity":0.8031496062992126,"duration":0.40329401302085444},{"name":"C#5","midi":73,"time":312.5676405000097,"velocity":0.8031496062992126,"duration":0.20059126302083996},{"name":"G#5","midi":80,"time":312.7703432500097,"velocity":0.8031496062992126,"duration":0.20059126302083996},{"name":"G#3","midi":56,"time":312.97304600000973,"velocity":0.8031496062992126,"duration":0.35895278645836015},{"name":"C5","midi":72,"time":312.97304600000973,"velocity":0.8031496062992126,"duration":0.20059126302083996},{"name":"G#5","midi":80,"time":313.17574875000975,"velocity":0.8031496062992126,"duration":0.20059126302083996},{"name":"E4","midi":64,"time":313.37845150000976,"velocity":0.8031496062992126,"duration":0.20059126302083996},{"name":"C#5","midi":73,"time":313.37845150000976,"velocity":0.8031496062992126,"duration":0.20059126302083996},{"name":"D#4","midi":63,"time":313.5811542500098,"velocity":0.8031496062992126,"duration":0.20059126302083996},{"name":"D#5","midi":75,"time":313.5811542500098,"velocity":0.8031496062992126,"duration":0.20059126302083996},{"name":"C#4","midi":61,"time":313.7838570000098,"velocity":0.8031496062992126,"duration":0.20059126302083996},{"name":"E5","midi":76,"time":313.7838570000098,"velocity":0.8031496062992126,"duration":0.20059126302083996},{"name":"D#4","midi":63,"time":313.9865597500098,"velocity":0.8031496062992126,"duration":0.20059126302083996},{"name":"F#5","midi":78,"time":313.9865597500098,"velocity":0.8031496062992126,"duration":0.20059126302083996},{"name":"E4","midi":64,"time":314.1892625000098,"velocity":0.8031496062992126,"duration":0.40329401302085444},{"name":"G#5","midi":80,"time":314.1892625000098,"velocity":0.8031496062992126,"duration":0.20059126302083996},{"name":"F#5","midi":78,"time":314.39196525000983,"velocity":0.8031496062992126,"duration":0.20059126302083996},{"name":"A#3","midi":58,"time":314.59466800000985,"velocity":0.8031496062992126,"duration":0.40329401302085444},{"name":"E5","midi":76,"time":314.59466800000985,"velocity":0.8031496062992126,"duration":0.20059126302083996},{"name":"F#5","midi":78,"time":314.79737075000986,"velocity":0.8031496062992126,"duration":0.20059126302083996},{"name":"B3","midi":59,"time":315.0000735000099,"velocity":0.8031496062992126,"duration":0.40329401302085444},{"name":"D#5","midi":75,"time":315.0000735000099,"velocity":0.8031496062992126,"duration":0.20059126302083996},{"name":"F#5","midi":78,"time":315.2027762500099,"velocity":0.8031496062992126,"duration":0.20059126302083996},{"name":"F#3","midi":54,"time":315.4054790000099,"velocity":0.8031496062992126,"duration":0.35895278645836015},{"name":"C#5","midi":73,"time":315.4054790000099,"velocity":0.8031496062992126,"duration":0.20059126302083996},{"name":"F#5","midi":78,"time":315.6081817500099,"velocity":0.8031496062992126,"duration":0.20059126302083996},{"name":"C#4","midi":61,"time":315.81088450000993,"velocity":0.8031496062992126,"duration":0.40329401302085444},{"name":"B4","midi":71,"time":315.81088450000993,"velocity":0.8031496062992126,"duration":0.20059126302083996},{"name":"F#5","midi":78,"time":316.01358725000995,"velocity":0.8031496062992126,"duration":0.20059126302083996},{"name":"F#3","midi":54,"time":316.21629000000996,"velocity":0.8031496062992126,"duration":0.35895278645836015},{"name":"A#4","midi":70,"time":316.21629000000996,"velocity":0.8031496062992126,"duration":0.20059126302083996},{"name":"F#5","midi":78,"time":316.41899275001,"velocity":0.8031496062992126,"duration":0.20059126302083996},{"name":"D#4","midi":63,"time":316.62169550001,"velocity":0.8031496062992126,"duration":0.20059126302083996},{"name":"B4","midi":71,"time":316.62169550001,"velocity":0.8031496062992126,"duration":0.20059126302083996},{"name":"C#4","midi":61,"time":316.82439825001,"velocity":0.8031496062992126,"duration":0.20059126302083996},{"name":"C#5","midi":73,"time":316.82439825001,"velocity":0.8031496062992126,"duration":0.20059126302083996},{"name":"B3","midi":59,"time":317.02710100001,"velocity":0.8031496062992126,"duration":0.20059126302083996},{"name":"D#5","midi":75,"time":317.02710100001,"velocity":0.8031496062992126,"duration":0.20059126302083996},{"name":"C#4","midi":61,"time":317.22980375001003,"velocity":0.8031496062992126,"duration":0.20059126302083996},{"name":"E5","midi":76,"time":317.22980375001003,"velocity":0.8031496062992126,"duration":0.20059126302083996},{"name":"D#4","midi":63,"time":317.43250650001005,"velocity":0.8031496062992126,"duration":0.40329401302085444},{"name":"F#5","midi":78,"time":317.43250650001005,"velocity":0.8031496062992126,"duration":0.20059126302083996},{"name":"G#5","midi":80,"time":317.63520925001006,"velocity":0.8031496062992126,"duration":0.20059126302083996},{"name":"G#3","midi":56,"time":317.8379120000101,"velocity":0.8031496062992126,"duration":0.40329401302085444},{"name":"A#5","midi":82,"time":317.8379120000101,"velocity":0.8031496062992126,"duration":0.20059126302083996},{"name":"B5","midi":83,"time":318.0406147500101,"velocity":0.8031496062992126,"duration":0.20059126302083996},{"name":"C#4","midi":61,"time":318.2433175000101,"velocity":0.8031496062992126,"duration":0.20059126302083996},{"name":"E5","midi":76,"time":318.2433175000101,"velocity":0.8031496062992126,"duration":0.20059126302083996},{"name":"B3","midi":59,"time":318.4460202500101,"velocity":0.8031496062992126,"duration":0.20059126302083996},{"name":"F#5","midi":78,"time":318.4460202500101,"velocity":0.8031496062992126,"duration":0.20059126302083996},{"name":"C#4","midi":61,"time":318.64872300001014,"velocity":0.8031496062992126,"duration":0.20059126302083996},{"name":"D#5","midi":75,"time":318.64872300001014,"velocity":0.8031496062992126,"duration":0.20059126302083996},{"name":"B3","midi":59,"time":318.85142575001015,"velocity":0.8031496062992126,"duration":0.20059126302083996},{"name":"E5","midi":76,"time":318.85142575001015,"velocity":0.8031496062992126,"duration":0.20059126302083996},{"name":"A#3","midi":58,"time":319.05412850001017,"velocity":0.8031496062992126,"duration":0.20059126302083996},{"name":"F#5","midi":78,"time":319.05412850001017,"velocity":0.8031496062992126,"duration":0.20059126302083996},{"name":"B3","midi":59,"time":319.2568312500102,"velocity":0.8031496062992126,"duration":0.20059126302083996},{"name":"E5","midi":76,"time":319.2568312500102,"velocity":0.8031496062992126,"duration":0.20059126302083996},{"name":"G#3","midi":56,"time":319.4595340000102,"velocity":0.8031496062992126,"duration":0.20059126302083996},{"name":"F#5","midi":78,"time":319.4595340000102,"velocity":0.8031496062992126,"duration":0.20059126302083996},{"name":"A#3","midi":58,"time":319.6622367500102,"velocity":0.8031496062992126,"duration":0.20059126302083996},{"name":"E5","midi":76,"time":319.6622367500102,"velocity":0.8031496062992126,"duration":0.20059126302083996},{"name":"B3","midi":59,"time":319.8649395000102,"velocity":0.8031496062992126,"duration":0.20059126302083996},{"name":"D#5","midi":75,"time":319.8649395000102,"velocity":0.8031496062992126,"duration":0.20059126302083996},{"name":"A#3","midi":58,"time":320.06764225001024,"velocity":0.8031496062992126,"duration":0.20059126302083996},{"name":"E5","midi":76,"time":320.06764225001024,"velocity":0.8031496062992126,"duration":0.20059126302083996},{"name":"B3","midi":59,"time":320.27034500001025,"velocity":0.8031496062992126,"duration":0.20059126302083996},{"name":"C#5","midi":73,"time":320.27034500001025,"velocity":0.8031496062992126,"duration":0.20059126302083996},{"name":"A#3","midi":58,"time":320.47304775001027,"velocity":0.8031496062992126,"duration":0.20059126302083996},{"name":"D#5","midi":75,"time":320.47304775001027,"velocity":0.8031496062992126,"duration":0.20059126302083996},{"name":"G#3","midi":56,"time":320.6757505000103,"velocity":0.8031496062992126,"duration":0.20059126302083996},{"name":"E5","midi":76,"time":320.6757505000103,"velocity":0.8031496062992126,"duration":0.20059126302083996},{"name":"F#3","midi":54,"time":320.8784532500103,"velocity":0.8031496062992126,"duration":0.20059126302083996},{"name":"D#5","midi":75,"time":320.8784532500103,"velocity":0.8031496062992126,"duration":0.20059126302083996},{"name":"G#3","midi":56,"time":321.0811560000103,"velocity":0.8031496062992126,"duration":0.20059126302083996},{"name":"E5","midi":76,"time":321.0811560000103,"velocity":0.8031496062992126,"duration":0.20059126302083996},{"name":"F#3","midi":54,"time":321.2838587500103,"velocity":0.8031496062992126,"duration":0.20059126302083996},{"name":"D#5","midi":75,"time":321.2838587500103,"velocity":0.8031496062992126,"duration":0.20059126302083996},{"name":"E3","midi":52,"time":321.48656150001034,"velocity":0.8031496062992126,"duration":0.20059126302083996},{"name":"C#5","midi":73,"time":321.48656150001034,"velocity":0.8031496062992126,"duration":0.20059126302083996},{"name":"D#3","midi":51,"time":321.68926425001035,"velocity":0.8031496062992126,"duration":0.20059126302083996},{"name":"D#5","midi":75,"time":321.68926425001035,"velocity":0.8031496062992126,"duration":0.20059126302083996},{"name":"E3","midi":52,"time":321.89196700001037,"velocity":0.8031496062992126,"duration":0.20059126302083996},{"name":"B4","midi":71,"time":321.89196700001037,"velocity":0.8031496062992126,"duration":0.20059126302083996},{"name":"C#3","midi":49,"time":322.0946697500104,"velocity":0.8031496062992126,"duration":0.20059126302083996},{"name":"C#5","midi":73,"time":322.0946697500104,"velocity":0.8031496062992126,"duration":0.20059126302083996},{"name":"F#3","midi":54,"time":322.2973725000104,"velocity":0.8031496062992126,"duration":0.40329401302085444},{"name":"D#5","midi":75,"time":322.2973725000104,"velocity":0.8031496062992126,"duration":0.20059126302083996},{"name":"C#5","midi":73,"time":322.5000752500104,"velocity":0.8031496062992126,"duration":0.20059126302083996},{"name":"F#2","midi":42,"time":322.7027780000104,"velocity":0.8031496062992126,"duration":0.40329401302085444},{"name":"D#5","midi":75,"time":322.7027780000104,"velocity":0.8031496062992126,"duration":0.20059126302083996},{"name":"C#5","midi":73,"time":322.90548075001044,"velocity":0.8031496062992126,"duration":0.20059126302083996},{"name":"B2","midi":47,"time":323.10818350001045,"velocity":0.8031496062992126,"duration":1.0135137500000155},{"name":"B4","midi":71,"time":323.10818350001045,"velocity":0.8031496062992126,"duration":0.8023650520833598},{"name":"D#3","midi":51,"time":324.3244000000105,"velocity":0.8031496062992126,"duration":0.20059126302083996},{"name":"B5","midi":83,"time":324.3244000000105,"velocity":0.8031496062992126,"duration":0.40329401302085444},{"name":"E3","midi":52,"time":324.5271027500105,"velocity":0.8031496062992126,"duration":0.20059126302083996},{"name":"F#3","midi":54,"time":324.7298055000105,"velocity":0.8031496062992126,"duration":0.40329401302085444},{"name":"D#5","midi":75,"time":324.7298055000105,"velocity":0.8031496062992126,"duration":0.20059126302083996},{"name":"C#5","midi":73,"time":324.9325082500105,"velocity":0.8031496062992126,"duration":0.20059126302083996},{"name":"D#3","midi":51,"time":325.13521100001054,"velocity":0.8031496062992126,"duration":0.20059126302083996},{"name":"B4","midi":71,"time":325.13521100001054,"velocity":0.8031496062992126,"duration":0.20059126302083996},{"name":"F#3","midi":54,"time":325.33791375001056,"velocity":0.8031496062992126,"duration":0.20059126302083996},{"name":"C#5","midi":73,"time":325.33791375001056,"velocity":0.8031496062992126,"duration":0.20059126302083996},{"name":"B3","midi":59,"time":325.5406165000106,"velocity":0.8031496062992126,"duration":0.40329401302085444},{"name":"D#5","midi":75,"time":325.5406165000106,"velocity":0.8031496062992126,"duration":0.20059126302083996},{"name":"C#5","midi":73,"time":325.7433192500106,"velocity":0.8031496062992126,"duration":0.20059126302083996},{"name":"F#3","midi":54,"time":325.9460220000106,"velocity":0.8031496062992126,"duration":0.35895278645836015},{"name":"D#5","midi":75,"time":325.9460220000106,"velocity":0.8031496062992126,"duration":0.20059126302083996},{"name":"B4","midi":71,"time":326.1487247500106,"velocity":0.8031496062992126,"duration":0.20059126302083996},{"name":"C#4","midi":61,"time":326.35142750001063,"velocity":0.8031496062992126,"duration":0.40329401302085444},{"name":"E5","midi":76,"time":326.35142750001063,"velocity":0.8031496062992126,"duration":0.20059126302083996},{"name":"D#5","midi":75,"time":326.55413025001064,"velocity":0.8031496062992126,"duration":0.20059126302083996},{"name":"F#3","midi":54,"time":326.75683300001066,"velocity":0.8031496062992126,"duration":0.35895278645836015},{"name":"E5","midi":76,"time":326.75683300001066,"velocity":0.8031496062992126,"duration":0.20059126302083996},{"name":"B4","midi":71,"time":326.9595357500107,"velocity":0.8031496062992126,"duration":0.20059126302083996},{"name":"D#4","midi":63,"time":327.1622385000107,"velocity":0.8031496062992126,"duration":0.40329401302085444},{"name":"F#5","midi":78,"time":327.1622385000107,"velocity":0.8031496062992126,"duration":0.20059126302083996},{"name":"E5","midi":76,"time":327.3649412500107,"velocity":0.8031496062992126,"duration":0.20059126302083996},{"name":"F#3","midi":54,"time":327.5676440000107,"velocity":0.8031496062992126,"duration":0.35895278645836015},{"name":"F#5","midi":78,"time":327.5676440000107,"velocity":0.8031496062992126,"duration":0.20059126302083996},{"name":"B4","midi":71,"time":327.77034675001073,"velocity":0.8031496062992126,"duration":0.20059126302083996},{"name":"E4","midi":64,"time":327.97304950001075,"velocity":0.8031496062992126,"duration":0.40329401302085444},{"name":"G#5","midi":80,"time":327.97304950001075,"velocity":0.8031496062992126,"duration":0.20059126302083996},{"name":"F#5","midi":78,"time":328.17575225001076,"velocity":0.8031496062992126,"duration":0.20059126302083996},{"name":"D#4","midi":63,"time":328.3784550000108,"velocity":0.8031496062992126,"duration":0.20059126302083996},{"name":"G#5","midi":80,"time":328.3784550000108,"velocity":0.8031496062992126,"duration":0.20059126302083996},{"name":"E4","midi":64,"time":328.5811577500108,"velocity":0.8031496062992126,"duration":0.20059126302083996},{"name":"B4","midi":71,"time":328.5811577500108,"velocity":0.8031496062992126,"duration":0.20059126302083996},{"name":"F#4","midi":66,"time":328.7838605000108,"velocity":0.8031496062992126,"duration":0.20059126302083996},{"name":"A#5","midi":82,"time":328.7838605000108,"velocity":0.8031496062992126,"duration":0.20059126302083996},{"name":"E4","midi":64,"time":328.9865632500108,"velocity":0.8031496062992126,"duration":0.20059126302083996},{"name":"G#5","midi":80,"time":328.9865632500108,"velocity":0.8031496062992126,"duration":0.20059126302083996},{"name":"D#4","midi":63,"time":329.18926600001083,"velocity":0.8031496062992126,"duration":0.20059126302083996},{"name":"A#5","midi":82,"time":329.18926600001083,"velocity":0.8031496062992126,"duration":0.20059126302083996},{"name":"C#4","midi":61,"time":329.39196875001085,"velocity":0.8031496062992126,"duration":0.20059126302083996},{"name":"B4","midi":71,"time":329.39196875001085,"velocity":0.8031496062992126,"duration":0.20059126302083996},{"name":"E4","midi":64,"time":329.59467150001086,"velocity":0.8031496062992126,"duration":0.20059126302083996},{"name":"B5","midi":83,"time":329.59467150001086,"velocity":0.8031496062992126,"duration":0.20059126302083996},{"name":"D#4","midi":63,"time":329.7973742500109,"velocity":0.8031496062992126,"duration":0.20059126302083996},{"name":"F#5","midi":78,"time":329.7973742500109,"velocity":0.8031496062992126,"duration":0.20059126302083996},{"name":"C#4","midi":61,"time":330.0000770000109,"velocity":0.8031496062992126,"duration":0.20059126302083996},{"name":"E5","midi":76,"time":330.0000770000109,"velocity":0.8031496062992126,"duration":0.20059126302083996},{"name":"D#4","midi":63,"time":330.2027797500109,"velocity":0.8031496062992126,"duration":0.20059126302083996},{"name":"F#5","midi":78,"time":330.2027797500109,"velocity":0.8031496062992126,"duration":0.20059126302083996},{"name":"B3","midi":59,"time":330.4054825000109,"velocity":0.8031496062992126,"duration":0.20059126302083996},{"name":"D#5","midi":75,"time":330.4054825000109,"velocity":0.8031496062992126,"duration":0.40329401302085444},{"name":"G#4","midi":68,"time":330.60818525001093,"velocity":0.8031496062992126,"duration":0.20059126302083996},{"name":"F#4","midi":66,"time":330.81088800001095,"velocity":0.8031496062992126,"duration":0.20059126302083996},{"name":"G#5","midi":80,"time":330.81088800001095,"velocity":0.8031496062992126,"duration":0.20059126302083996},{"name":"G#4","midi":68,"time":331.01359075001096,"velocity":0.8031496062992126,"duration":0.20059126302083996},{"name":"C5","midi":72,"time":331.01359075001096,"velocity":0.8031496062992126,"duration":0.20059126302083996},{"name":"E4","midi":64,"time":331.216293500011,"velocity":0.8031496062992126,"duration":0.20059126302083996},{"name":"C#5","midi":73,"time":331.216293500011,"velocity":0.8031496062992126,"duration":0.40329401302085444},{"name":"G#4","midi":68,"time":331.418996250011,"velocity":0.8031496062992126,"duration":0.20059126302083996},{"name":"D#4","midi":63,"time":331.621699000011,"velocity":0.8031496062992126,"duration":0.20059126302083996},{"name":"G#5","midi":80,"time":331.621699000011,"velocity":0.8031496062992126,"duration":0.33783791666667184},{"name":"G#4","midi":68,"time":331.824401750011,"velocity":0.8031496062992126,"duration":0.20059126302083996},{"name":"C#4","midi":61,"time":332.02710450001103,"velocity":0.8031496062992126,"duration":0.20059126302083996},{"name":"D#5","midi":75,"time":332.02710450001103,"velocity":0.8031496062992126,"duration":0.40329401302085444},{"name":"G#4","midi":68,"time":332.22980725001105,"velocity":0.8031496062992126,"duration":0.20059126302083996},{"name":"C4","midi":60,"time":332.43251000001106,"velocity":0.8031496062992126,"duration":0.20059126302083996},{"name":"G#5","midi":80,"time":332.43251000001106,"velocity":0.8031496062992126,"duration":0.33783791666667184},{"name":"G#4","midi":68,"time":332.6352127500111,"velocity":0.8031496062992126,"duration":0.20059126302083996},{"name":"C#4","midi":61,"time":332.8379155000111,"velocity":0.8031496062992126,"duration":0.40329401302085444},{"name":"E5","midi":76,"time":332.8379155000111,"velocity":0.8031496062992126,"duration":0.20059126302083996},{"name":"D#5","midi":75,"time":333.0406182500111,"velocity":0.8031496062992126,"duration":0.20059126302083996},{"name":"G#4","midi":68,"time":333.2433210000111,"velocity":0.8031496062992126,"duration":0.20059126302083996},{"name":"E5","midi":76,"time":333.2433210000111,"velocity":0.8031496062992126,"duration":0.20059126302083996},{"name":"F#4","midi":66,"time":333.44602375001114,"velocity":0.8031496062992126,"duration":0.20059126302083996},{"name":"F#5","midi":78,"time":333.44602375001114,"velocity":0.8031496062992126,"duration":0.20059126302083996},{"name":"E4","midi":64,"time":333.64872650001115,"velocity":0.8031496062992126,"duration":0.20059126302083996},{"name":"G#5","midi":80,"time":333.64872650001115,"velocity":0.8031496062992126,"duration":0.20059126302083996},{"name":"F#4","midi":66,"time":333.85142925001117,"velocity":0.8031496062992126,"duration":0.20059126302083996},{"name":"A5","midi":81,"time":333.85142925001117,"velocity":0.8031496062992126,"duration":0.20059126302083996},{"name":"E4","midi":64,"time":334.0541320000112,"velocity":0.8031496062992126,"duration":0.20059126302083996},{"name":"G#5","midi":80,"time":334.0541320000112,"velocity":0.8031496062992126,"duration":0.20059126302083996},{"name":"D#4","midi":63,"time":334.2568347500112,"velocity":0.8031496062992126,"duration":0.20059126302083996},{"name":"F#5","midi":78,"time":334.2568347500112,"velocity":0.8031496062992126,"duration":0.20059126302083996},{"name":"C#4","midi":61,"time":334.4595375000112,"velocity":0.8031496062992126,"duration":0.40329401302085444},{"name":"E5","midi":76,"time":334.4595375000112,"velocity":0.8031496062992126,"duration":0.20059126302083996},{"name":"G#5","midi":80,"time":334.6622402500112,"velocity":0.8031496062992126,"duration":0.20059126302083996},{"name":"G#3","midi":56,"time":334.86494300001124,"velocity":0.8031496062992126,"duration":0.35895278645836015},{"name":"D#5","midi":75,"time":334.86494300001124,"velocity":0.8031496062992126,"duration":0.20059126302083996},{"name":"G#5","midi":80,"time":335.06764575001125,"velocity":0.8031496062992126,"duration":0.20059126302083996},{"name":"D#4","midi":63,"time":335.27034850001127,"velocity":0.8031496062992126,"duration":0.40329401302085444},{"name":"C#5","midi":73,"time":335.27034850001127,"velocity":0.8031496062992126,"duration":0.20059126302083996},{"name":"G#5","midi":80,"time":335.4730512500113,"velocity":0.8031496062992126,"duration":0.20059126302083996},{"name":"G#3","midi":56,"time":335.6757540000113,"velocity":0.8031496062992126,"duration":0.35895278645836015},{"name":"C5","midi":72,"time":335.6757540000113,"velocity":0.8031496062992126,"duration":0.20059126302083996},{"name":"G#5","midi":80,"time":335.8784567500113,"velocity":0.8031496062992126,"duration":0.20059126302083996},{"name":"E4","midi":64,"time":336.0811595000113,"velocity":0.8031496062992126,"duration":0.20059126302083996},{"name":"C#5","midi":73,"time":336.0811595000113,"velocity":0.8031496062992126,"duration":0.20059126302083996},{"name":"F#4","midi":66,"time":336.28386225001134,"velocity":0.8031496062992126,"duration":0.20059126302083996},{"name":"C5","midi":72,"time":336.28386225001134,"velocity":0.8031496062992126,"duration":0.20059126302083996},{"name":"E4","midi":64,"time":336.48656500001135,"velocity":0.8031496062992126,"duration":0.20059126302083996},{"name":"C#5","midi":73,"time":336.48656500001135,"velocity":0.8031496062992126,"duration":0.20059126302083996},{"name":"D#4","midi":63,"time":336.68926775001137,"velocity":0.8031496062992126,"duration":0.20059126302083996},{"name":"D#5","midi":75,"time":336.68926775001137,"velocity":0.8031496062992126,"duration":0.20059126302083996},{"name":"C#4","midi":61,"time":336.8919705000114,"velocity":0.8031496062992126,"duration":0.20059126302083996},{"name":"E5","midi":76,"time":336.8919705000114,"velocity":0.8031496062992126,"duration":0.20059126302083996},{"name":"D#4","midi":63,"time":337.0946732500114,"velocity":0.8031496062992126,"duration":0.20059126302083996},{"name":"F#5","midi":78,"time":337.0946732500114,"velocity":0.8031496062992126,"duration":0.20059126302083996},{"name":"E4","midi":64,"time":337.2973760000114,"velocity":0.8031496062992126,"duration":0.20059126302083996},{"name":"G#5","midi":80,"time":337.2973760000114,"velocity":0.8031496062992126,"duration":0.20059126302083996},{"name":"F#4","midi":66,"time":337.5000787500114,"velocity":0.8031496062992126,"duration":0.20059126302083996},{"name":"A5","midi":81,"time":337.5000787500114,"velocity":0.8031496062992126,"duration":0.20059126302083996},{"name":"G#4","midi":68,"time":337.70278150001144,"velocity":0.8031496062992126,"duration":0.20059126302083996},{"name":"B5","midi":83,"time":337.70278150001144,"velocity":0.8031496062992126,"duration":0.20059126302083996},{"name":"F#4","midi":66,"time":337.90548425001145,"velocity":0.8031496062992126,"duration":0.20059126302083996},{"name":"A5","midi":81,"time":337.90548425001145,"velocity":0.8031496062992126,"duration":0.20059126302083996},{"name":"G#4","midi":68,"time":338.10818700001147,"velocity":0.8031496062992126,"duration":0.20059126302083996},{"name":"B5","midi":83,"time":338.10818700001147,"velocity":0.8031496062992126,"duration":0.20059126302083996},{"name":"F#4","midi":66,"time":338.3108897500115,"velocity":0.8031496062992126,"duration":0.20059126302083996},{"name":"A5","midi":81,"time":338.3108897500115,"velocity":0.8031496062992126,"duration":0.20059126302083996},{"name":"F4","midi":65,"time":338.5135925000115,"velocity":0.8031496062992126,"duration":0.20059126302083996},{"name":"G#5","midi":80,"time":338.5135925000115,"velocity":0.8031496062992126,"duration":0.20059126302083996},{"name":"D#4","midi":63,"time":338.7162952500115,"velocity":0.8031496062992126,"duration":0.20059126302083996},{"name":"A5","midi":81,"time":338.7162952500115,"velocity":0.8031496062992126,"duration":0.20059126302083996},{"name":"F4","midi":65,"time":338.9189980000115,"velocity":0.8031496062992126,"duration":0.20059126302083996},{"name":"F#5","midi":78,"time":338.9189980000115,"velocity":0.8031496062992126,"duration":0.20059126302083996},{"name":"D#4","midi":63,"time":339.12170075001154,"velocity":0.8031496062992126,"duration":0.20059126302083996},{"name":"G#5","midi":80,"time":339.12170075001154,"velocity":0.8031496062992126,"duration":0.20059126302083996},{"name":"C#4","midi":61,"time":339.32440350001156,"velocity":0.8031496062992126,"duration":0.20059126302083996},{"name":"A5","midi":81,"time":339.32440350001156,"velocity":0.8031496062992126,"duration":0.20059126302083996},{"name":"B3","midi":59,"time":339.52710625001157,"velocity":0.8031496062992126,"duration":0.20059126302083996},{"name":"G#5","midi":80,"time":339.52710625001157,"velocity":0.8031496062992126,"duration":0.20059126302083996},{"name":"C#4","midi":61,"time":339.7298090000116,"velocity":0.8031496062992126,"duration":0.20059126302083996},{"name":"A5","midi":81,"time":339.7298090000116,"velocity":0.8031496062992126,"duration":0.20059126302083996},{"name":"B3","midi":59,"time":339.9325117500116,"velocity":0.8031496062992126,"duration":0.20059126302083996},{"name":"G#5","midi":80,"time":339.9325117500116,"velocity":0.8031496062992126,"duration":0.20059126302083996},{"name":"A3","midi":57,"time":340.1352145000116,"velocity":0.8031496062992126,"duration":0.20059126302083996},{"name":"F#5","midi":78,"time":340.1352145000116,"velocity":0.8031496062992126,"duration":0.20059126302083996},{"name":"B3","midi":59,"time":340.3379172500116,"velocity":0.8031496062992126,"duration":0.20059126302083996},{"name":"G#5","midi":80,"time":340.3379172500116,"velocity":0.8031496062992126,"duration":0.20059126302083996},{"name":"G#3","midi":56,"time":340.54062000001164,"velocity":0.8031496062992126,"duration":0.20059126302083996},{"name":"F5","midi":77,"time":340.54062000001164,"velocity":0.8031496062992126,"duration":0.20059126302083996},{"name":"A3","midi":57,"time":340.74332275001166,"velocity":0.8031496062992126,"duration":0.20059126302083996},{"name":"F#5","midi":78,"time":340.74332275001166,"velocity":0.8031496062992126,"duration":0.20059126302083996},{"name":"B3","midi":59,"time":340.9460255000117,"velocity":0.8031496062992126,"duration":0.20059126302083996},{"name":"G#5","midi":80,"time":340.9460255000117,"velocity":0.8031496062992126,"duration":0.20059126302083996},{"name":"C#4","midi":61,"time":341.1487282500117,"velocity":0.8031496062992126,"duration":0.20059126302083996},{"name":"F#5","midi":78,"time":341.1487282500117,"velocity":0.8031496062992126,"duration":0.20059126302083996},{"name":"A3","midi":57,"time":341.3514310000117,"velocity":0.8031496062992126,"duration":0.20059126302083996},{"name":"G#5","midi":80,"time":341.3514310000117,"velocity":0.8031496062992126,"duration":0.20059126302083996},{"name":"B3","midi":59,"time":341.5541337500117,"velocity":0.8031496062992126,"duration":0.20059126302083996},{"name":"F#5","midi":78,"time":341.5541337500117,"velocity":0.8031496062992126,"duration":0.20059126302083996},{"name":"C#4","midi":61,"time":341.75683650001173,"velocity":0.8031496062992126,"duration":0.40329401302085444},{"name":"F5","midi":77,"time":341.75683650001173,"velocity":0.8031496062992126,"duration":0.20059126302083996},{"name":"F#5","midi":78,"time":341.95953925001174,"velocity":0.8031496062992126,"duration":0.20059126302083996},{"name":"C#3","midi":49,"time":342.16224200001176,"velocity":0.8031496062992126,"duration":0.40329401302085444},{"name":"D#5","midi":75,"time":342.16224200001176,"velocity":0.8031496062992126,"duration":0.20059126302083996},{"name":"F5","midi":77,"time":342.3649447500118,"velocity":0.8031496062992126,"duration":0.20059126302083996},{"name":"F#3","midi":54,"time":342.5676475000118,"velocity":0.8031496062992126,"duration":0.40329401302085444},{"name":"F#5","midi":78,"time":342.5676475000118,"velocity":0.8031496062992126,"duration":0.5912163541667041},{"name":"E3","midi":52,"time":342.9730530000118,"velocity":0.8031496062992126,"duration":0.20059126302083996},{"name":"D3","midi":50,"time":343.17575575001183,"velocity":0.8031496062992126,"duration":0.20059126302083996},{"name":"C#3","midi":49,"time":343.37845850001185,"velocity":0.8031496062992126,"duration":0.20059126302083996},{"name":"B2","midi":47,"time":343.58116125001186,"velocity":0.8031496062992126,"duration":0.20059126302083996},{"name":"A2","midi":45,"time":343.7838640000119,"velocity":0.8031496062992126,"duration":0.20059126302083996},{"name":"F#4","midi":66,"time":343.7838640000119,"velocity":0.8031496062992126,"duration":0.20059126302083996},{"name":"G#2","midi":44,"time":343.9865667500119,"velocity":0.8031496062992126,"duration":0.20059126302083996},{"name":"G#4","midi":68,"time":343.9865667500119,"velocity":0.8031496062992126,"duration":0.20059126302083996},{"name":"F#2","midi":42,"time":344.1892695000119,"velocity":0.8031496062992126,"duration":0.8023650520833598},{"name":"A4","midi":69,"time":344.1892695000119,"velocity":0.8031496062992126,"duration":0.40329401302085444},{"name":"F#4","midi":66,"time":344.59467500001193,"velocity":0.8031496062992126,"duration":0.20059126302083996},{"name":"A4","midi":69,"time":344.79737775001195,"velocity":0.8031496062992126,"duration":0.20059126302083996},{"name":"C#5","midi":73,"time":345.00008050001196,"velocity":0.8031496062992126,"duration":0.40329401302085444},{"name":"C#4","midi":61,"time":345.405486000012,"velocity":0.8031496062992126,"duration":0.20059126302083996},{"name":"A4","midi":69,"time":345.405486000012,"velocity":0.8031496062992126,"duration":0.40329401302085444},{"name":"B3","midi":59,"time":345.608188750012,"velocity":0.8031496062992126,"duration":0.20059126302083996},{"name":"A3","midi":57,"time":345.810891500012,"velocity":0.8031496062992126,"duration":0.40329401302085444},{"name":"F#5","midi":78,"time":345.810891500012,"velocity":0.8031496062992126,"duration":0.40329401302085444},{"name":"C#4","midi":61,"time":346.21629700001205,"velocity":0.8031496062992126,"duration":0.20059126302083996},{"name":"C#5","midi":73,"time":346.21629700001205,"velocity":0.8031496062992126,"duration":0.40329401302085444},{"name":"A3","midi":57,"time":346.41899975001206,"velocity":0.8031496062992126,"duration":0.20059126302083996},{"name":"F#3","midi":54,"time":346.6217025000121,"velocity":0.8031496062992126,"duration":0.40329401302085444},{"name":"A5","midi":81,"time":346.6217025000121,"velocity":0.8031496062992126,"duration":0.40329401302085444},{"name":"A3","midi":57,"time":347.0271080000121,"velocity":0.8031496062992126,"duration":0.20059126302083996},{"name":"F#5","midi":78,"time":347.0271080000121,"velocity":0.8031496062992126,"duration":0.40329401302085444},{"name":"F#3","midi":54,"time":347.2298107500121,"velocity":0.8031496062992126,"duration":0.20059126302083996},{"name":"B3","midi":59,"time":347.43251350001213,"velocity":0.8031496062992126,"duration":0.20059126302083996},{"name":"D#5","midi":75,"time":347.43251350001213,"velocity":0.8031496062992126,"duration":0.40329401302085444},{"name":"A3","midi":57,"time":347.63521625001215,"velocity":0.8031496062992126,"duration":0.20059126302083996},{"name":"G#3","midi":56,"time":347.83791900001216,"velocity":0.8031496062992126,"duration":0.20059126302083996},{"name":"B4","midi":71,"time":347.83791900001216,"velocity":0.8031496062992126,"duration":0.20059126302083996},{"name":"B3","midi":59,"time":348.0406217500122,"velocity":0.8031496062992126,"duration":0.20059126302083996},{"name":"C#5","midi":73,"time":348.0406217500122,"velocity":0.8031496062992126,"duration":0.20059126302083996},{"name":"F#3","midi":54,"time":348.2433245000122,"velocity":0.8031496062992126,"duration":0.20059126302083996},{"name":"D#5","midi":75,"time":348.2433245000122,"velocity":0.8031496062992126,"duration":0.40329401302085444},{"name":"B3","midi":59,"time":348.4460272500122,"velocity":0.8031496062992126,"duration":0.20059126302083996},{"name":"E3","midi":52,"time":348.6487300000122,"velocity":0.8031496062992126,"duration":0.20059126302083996},{"name":"B4","midi":71,"time":348.6487300000122,"velocity":0.8031496062992126,"duration":0.20059126302083996},{"name":"B3","midi":59,"time":348.85143275001224,"velocity":0.8031496062992126,"duration":0.20059126302083996},{"name":"D#5","midi":75,"time":348.85143275001224,"velocity":0.8031496062992126,"duration":0.20059126302083996},{"name":"D#3","midi":51,"time":349.05413550001225,"velocity":0.8031496062992126,"duration":0.20059126302083996},{"name":"F#5","midi":78,"time":349.05413550001225,"velocity":0.8031496062992126,"duration":0.40329401302085444},{"name":"B3","midi":59,"time":349.25683825001227,"velocity":0.8031496062992126,"duration":0.20059126302083996},{"name":"C#3","midi":49,"time":349.4595410000123,"velocity":0.8031496062992126,"duration":0.20059126302083996},{"name":"D#5","midi":75,"time":349.4595410000123,"velocity":0.8031496062992126,"duration":0.40329401302085444},{"name":"B3","midi":59,"time":349.6622437500123,"velocity":0.8031496062992126,"duration":0.20059126302083996},{"name":"D#3","midi":51,"time":349.8649465000123,"velocity":0.8031496062992126,"duration":0.20059126302083996},{"name":"B5","midi":83,"time":349.8649465000123,"velocity":0.8031496062992126,"duration":0.40329401302085444},{"name":"B3","midi":59,"time":350.0676492500123,"velocity":0.8031496062992126,"duration":0.20059126302083996},{"name":"B2","midi":47,"time":350.27035200001234,"velocity":0.8031496062992126,"duration":0.20059126302083996},{"name":"F#5","midi":78,"time":350.27035200001234,"velocity":0.8031496062992126,"duration":0.40329401302085444},{"name":"B3","midi":59,"time":350.47305475001235,"velocity":0.8031496062992126,"duration":0.20059126302083996},{"name":"E3","midi":52,"time":350.67575750001237,"velocity":0.8031496062992126,"duration":0.40329401302085444},{"name":"G#5","midi":80,"time":350.67575750001237,"velocity":0.8031496062992126,"duration":0.20059126302083996},{"name":"A5","midi":81,"time":350.8784602500124,"velocity":0.8031496062992126,"duration":0.20059126302083996},{"name":"D#4","midi":63,"time":351.0811630000124,"velocity":0.8031496062992126,"duration":0.40329401302085444},{"name":"F#5","midi":78,"time":351.0811630000124,"velocity":0.8031496062992126,"duration":0.20059126302083996},{"name":"G#5","midi":80,"time":351.2838657500124,"velocity":0.8031496062992126,"duration":0.20059126302083996},{"name":"C#4","midi":61,"time":351.4865685000124,"velocity":0.8031496062992126,"duration":0.40329401302085444},{"name":"A5","midi":81,"time":351.4865685000124,"velocity":0.8031496062992126,"duration":0.20059126302083996},{"name":"G#5","midi":80,"time":351.68927125001244,"velocity":0.8031496062992126,"duration":0.20059126302083996},{"name":"E3","midi":52,"time":351.89197400001245,"velocity":0.8031496062992126,"duration":0.40329401302085444},{"name":"A5","midi":81,"time":351.89197400001245,"velocity":0.8031496062992126,"duration":0.20059126302083996},{"name":"G#5","midi":80,"time":352.09467675001247,"velocity":0.8031496062992126,"duration":0.20059126302083996},{"name":"D#3","midi":51,"time":352.2973795000125,"velocity":0.8031496062992126,"duration":0.40329401302085444},{"name":"F#5","midi":78,"time":352.2973795000125,"velocity":0.8031496062992126,"duration":0.20059126302083996},{"name":"G#5","midi":80,"time":352.5000822500125,"velocity":0.8031496062992126,"duration":0.20059126302083996},{"name":"C#4","midi":61,"time":352.7027850000125,"velocity":0.8031496062992126,"duration":0.40329401302085444},{"name":"E5","midi":76,"time":352.7027850000125,"velocity":0.8031496062992126,"duration":0.20059126302083996},{"name":"F#5","midi":78,"time":352.9054877500125,"velocity":0.8031496062992126,"duration":0.20059126302083996},{"name":"B3","midi":59,"time":353.10819050001254,"velocity":0.8031496062992126,"duration":0.40329401302085444},{"name":"G#5","midi":80,"time":353.10819050001254,"velocity":0.8031496062992126,"duration":0.20059126302083996},{"name":"F#5","midi":78,"time":353.31089325001255,"velocity":0.8031496062992126,"duration":0.20059126302083996},{"name":"D#3","midi":51,"time":353.51359600001257,"velocity":0.8031496062992126,"duration":0.40329401302085444},{"name":"G#5","midi":80,"time":353.51359600001257,"velocity":0.8031496062992126,"duration":0.20059126302083996},{"name":"F#5","midi":78,"time":353.7162987500126,"velocity":0.8031496062992126,"duration":0.20059126302083996},{"name":"C#3","midi":49,"time":353.9190015000126,"velocity":0.8031496062992126,"duration":0.40329401302085444},{"name":"E5","midi":76,"time":353.9190015000126,"velocity":0.8031496062992126,"duration":0.20059126302083996},{"name":"F#5","midi":78,"time":354.1217042500126,"velocity":0.8031496062992126,"duration":0.20059126302083996},{"name":"B3","midi":59,"time":354.3244070000126,"velocity":0.8031496062992126,"duration":0.40329401302085444},{"name":"D#5","midi":75,"time":354.3244070000126,"velocity":0.8031496062992126,"duration":0.20059126302083996},{"name":"E5","midi":76,"time":354.52710975001264,"velocity":0.8031496062992126,"duration":0.20059126302083996},{"name":"A#3","midi":58,"time":354.72981250001266,"velocity":0.8031496062992126,"duration":0.40329401302085444},{"name":"F#5","midi":78,"time":354.72981250001266,"velocity":0.8031496062992126,"duration":0.20059126302083996},{"name":"E5","midi":76,"time":354.93251525001267,"velocity":0.8031496062992126,"duration":0.20059126302083996},{"name":"F#3","midi":54,"time":355.1352180000127,"velocity":0.8031496062992126,"duration":0.40329401302085444},{"name":"F#5","midi":78,"time":355.1352180000127,"velocity":0.8031496062992126,"duration":0.20059126302083996},{"name":"E5","midi":76,"time":355.3379207500127,"velocity":0.8031496062992126,"duration":0.20059126302083996},{"name":"B3","midi":59,"time":355.5406235000127,"velocity":0.8031496062992126,"duration":0.40329401302085444},{"name":"D#5","midi":75,"time":355.5406235000127,"velocity":0.8031496062992126,"duration":0.20059126302083996},{"name":"E5","midi":76,"time":355.74332625001273,"velocity":0.8031496062992126,"duration":0.20059126302083996},{"name":"B2","midi":47,"time":355.94602900001274,"velocity":0.8031496062992126,"duration":0.20059126302083996},{"name":"D#5","midi":75,"time":355.94602900001274,"velocity":0.8031496062992126,"duration":0.20059126302083996},{"name":"C#3","midi":49,"time":356.14873175001276,"velocity":0.8031496062992126,"duration":0.20059126302083996},{"name":"C#5","midi":73,"time":356.14873175001276,"velocity":0.8031496062992126,"duration":0.20059126302083996},{"name":"D#3","midi":51,"time":356.3514345000128,"velocity":0.8031496062992126,"duration":0.40329401302085444},{"name":"B4","midi":71,"time":356.3514345000128,"velocity":0.8031496062992126,"duration":0.20059126302083996},{"name":"C#5","midi":73,"time":356.5541372500128,"velocity":0.8031496062992126,"duration":0.20059126302083996},{"name":"B2","midi":47,"time":356.7568400000128,"velocity":0.8031496062992126,"duration":0.20059126302083996},{"name":"A4","midi":69,"time":356.7568400000128,"velocity":0.8031496062992126,"duration":0.20059126302083996},{"name":"D#3","midi":51,"time":356.9595427500128,"velocity":0.8031496062992126,"duration":0.20059126302083996},{"name":"B4","midi":71,"time":356.9595427500128,"velocity":0.8031496062992126,"duration":0.20059126302083996},{"name":"E3","midi":52,"time":357.16224550001283,"velocity":0.8031496062992126,"duration":0.40329401302085444},{"name":"G#4","midi":68,"time":357.16224550001283,"velocity":0.8031496062992126,"duration":0.20059126302083996},{"name":"B4","midi":71,"time":357.36494825001284,"velocity":0.8031496062992126,"duration":0.20059126302083996},{"name":"B2","midi":47,"time":357.56765100001286,"velocity":0.8031496062992126,"duration":0.40329401302085444},{"name":"F#4","midi":66,"time":357.56765100001286,"velocity":0.8031496062992126,"duration":0.20059126302083996},{"name":"B4","midi":71,"time":357.7703537500129,"velocity":0.8031496062992126,"duration":0.20059126302083996},{"name":"F#3","midi":54,"time":357.9730565000129,"velocity":0.8031496062992126,"duration":0.40329401302085444},{"name":"E4","midi":64,"time":357.9730565000129,"velocity":0.8031496062992126,"duration":0.20059126302083996},{"name":"B4","midi":71,"time":358.1757592500129,"velocity":0.8031496062992126,"duration":0.20059126302083996},{"name":"B2","midi":47,"time":358.3784620000129,"velocity":0.8031496062992126,"duration":0.40329401302085444},{"name":"D#4","midi":63,"time":358.3784620000129,"velocity":0.8031496062992126,"duration":0.20059126302083996},{"name":"B4","midi":71,"time":358.58116475001293,"velocity":0.8031496062992126,"duration":0.20059126302083996},{"name":"G#3","midi":56,"time":358.78386750001295,"velocity":0.8031496062992126,"duration":0.20059126302083996},{"name":"E4","midi":64,"time":358.78386750001295,"velocity":0.8031496062992126,"duration":0.20059126302083996},{"name":"F#3","midi":54,"time":358.98657025001296,"velocity":0.8031496062992126,"duration":0.20059126302083996},{"name":"F#4","midi":66,"time":358.98657025001296,"velocity":0.8031496062992126,"duration":0.20059126302083996},{"name":"E3","midi":52,"time":359.189273000013,"velocity":0.8031496062992126,"duration":0.20059126302083996},{"name":"G#4","midi":68,"time":359.189273000013,"velocity":0.8031496062992126,"duration":0.20059126302083996},{"name":"F#3","midi":54,"time":359.391975750013,"velocity":0.8031496062992126,"duration":0.20059126302083996},{"name":"A4","midi":69,"time":359.391975750013,"velocity":0.8031496062992126,"duration":0.20059126302083996},{"name":"G#3","midi":56,"time":359.594678500013,"velocity":0.8031496062992126,"duration":0.20059126302083996},{"name":"B4","midi":71,"time":359.594678500013,"velocity":0.8031496062992126,"duration":0.20059126302083996},{"name":"A3","midi":57,"time":359.797381250013,"velocity":0.8031496062992126,"duration":0.20059126302083996},{"name":"C#5","midi":73,"time":359.797381250013,"velocity":0.8031496062992126,"duration":0.20059126302083996},{"name":"B3","midi":59,"time":360.00008400001303,"velocity":0.8031496062992126,"duration":0.20059126302083996},{"name":"D#5","midi":75,"time":360.00008400001303,"velocity":0.8031496062992126,"duration":0.20059126302083996},{"name":"C#4","midi":61,"time":360.20278675001305,"velocity":0.8031496062992126,"duration":0.20059126302083996},{"name":"E5","midi":76,"time":360.20278675001305,"velocity":0.8031496062992126,"duration":0.20059126302083996},{"name":"D#4","midi":63,"time":360.40548950001306,"velocity":0.8031496062992126,"duration":0.20059126302083996},{"name":"F#5","midi":78,"time":360.40548950001306,"velocity":0.8031496062992126,"duration":0.40329401302085444},{"name":"C#4","midi":61,"time":360.6081922500131,"velocity":0.8031496062992126,"duration":0.20059126302083996},{"name":"D#4","midi":63,"time":360.8108950000131,"velocity":0.8031496062992126,"duration":0.20059126302083996},{"name":"B4","midi":71,"time":360.8108950000131,"velocity":0.8031496062992126,"duration":0.33783791666667184},{"name":"B3","midi":59,"time":361.0135977500131,"velocity":0.8031496062992126,"duration":0.20059126302083996},{"name":"E4","midi":64,"time":361.2163005000131,"velocity":0.8031496062992126,"duration":0.20059126302083996},{"name":"G#5","midi":80,"time":361.2163005000131,"velocity":0.8031496062992126,"duration":0.40329401302085444},{"name":"D#4","midi":63,"time":361.41900325001313,"velocity":0.8031496062992126,"duration":0.20059126302083996},{"name":"E4","midi":64,"time":361.62170600001315,"velocity":0.8031496062992126,"duration":0.20059126302083996},{"name":"B4","midi":71,"time":361.62170600001315,"velocity":0.8031496062992126,"duration":0.33783791666667184},{"name":"B3","midi":59,"time":361.82440875001316,"velocity":0.8031496062992126,"duration":0.20059126302083996},{"name":"F#4","midi":66,"time":362.0271115000132,"velocity":0.8031496062992126,"duration":0.20059126302083996},{"name":"A5","midi":81,"time":362.0271115000132,"velocity":0.8031496062992126,"duration":0.20059126302083996},{"name":"E4","midi":64,"time":362.2298142500132,"velocity":0.8031496062992126,"duration":0.20059126302083996},{"name":"G#5","midi":80,"time":362.2298142500132,"velocity":0.8031496062992126,"duration":0.20059126302083996},{"name":"D#4","midi":63,"time":362.4325170000132,"velocity":0.8031496062992126,"duration":0.20059126302083996},{"name":"F#5","midi":78,"time":362.4325170000132,"velocity":0.8031496062992126,"duration":0.20059126302083996},{"name":"C#4","midi":61,"time":362.6352197500132,"velocity":0.8031496062992126,"duration":0.20059126302083996},{"name":"G#5","midi":80,"time":362.6352197500132,"velocity":0.8031496062992126,"duration":0.20059126302083996},{"name":"B3","midi":59,"time":362.83792250001324,"velocity":0.8031496062992126,"duration":0.20059126302083996},{"name":"A5","midi":81,"time":362.83792250001324,"velocity":0.8031496062992126,"duration":0.40329401302085444},{"name":"A3","midi":57,"time":363.04062525001325,"velocity":0.8031496062992126,"duration":0.20059126302083996},{"name":"G#3","midi":56,"time":363.24332800001326,"velocity":0.8031496062992126,"duration":0.20059126302083996},{"name":"B5","midi":83,"time":363.24332800001326,"velocity":0.8031496062992126,"duration":0.40329401302085444},{"name":"F#3","midi":54,"time":363.4460307500133,"velocity":0.8031496062992126,"duration":0.20059126302083996},{"name":"E3","midi":52,"time":363.6487335000133,"velocity":0.8031496062992126,"duration":0.40329401302085444},{"name":"G#5","midi":80,"time":363.6487335000133,"velocity":0.8031496062992126,"duration":0.40329401302085444},{"name":"G#3","midi":56,"time":364.0541390000133,"velocity":0.8031496062992126,"duration":0.40329401302085444},{"name":"F#5","midi":78,"time":364.0541390000133,"velocity":0.8031496062992126,"duration":0.20059126302083996},{"name":"E5","midi":76,"time":364.25684175001334,"velocity":0.8031496062992126,"duration":0.20059126302083996},{"name":"A3","midi":57,"time":364.45954450001335,"velocity":0.8031496062992126,"duration":0.40329401302085444},{"name":"G#5","midi":80,"time":364.45954450001335,"velocity":0.8031496062992126,"duration":0.20059126302083996},{"name":"F#5","midi":78,"time":364.66224725001337,"velocity":0.8031496062992126,"duration":0.20059126302083996},{"name":"B3","midi":59,"time":364.8649500000134,"velocity":0.8031496062992126,"duration":0.40329401302085444},{"name":"E5","midi":76,"time":364.8649500000134,"velocity":0.8031496062992126,"duration":0.20059126302083996},{"name":"D#5","midi":75,"time":365.0676527500134,"velocity":0.8031496062992126,"duration":0.20059126302083996},{"name":"C#4","midi":61,"time":365.2703555000134,"velocity":0.8031496062992126,"duration":0.40329401302085444},{"name":"E5","midi":76,"time":365.2703555000134,"velocity":0.8031496062992126,"duration":0.20059126302083996},{"name":"F#5","midi":78,"time":365.4730582500134,"velocity":0.8031496062992126,"duration":0.20059126302083996},{"name":"C#3","midi":49,"time":365.67576100001344,"velocity":0.8031496062992126,"duration":0.40329401302085444},{"name":"E5","midi":76,"time":365.67576100001344,"velocity":0.8031496062992126,"duration":0.20059126302083996},{"name":"D#5","midi":75,"time":365.87846375001345,"velocity":0.8031496062992126,"duration":0.20059126302083996},{"name":"D#3","midi":51,"time":366.08116650001347,"velocity":0.8031496062992126,"duration":0.40329401302085444},{"name":"C#5","midi":73,"time":366.08116650001347,"velocity":0.8031496062992126,"duration":0.20059126302083996},{"name":"B4","midi":71,"time":366.2838692500135,"velocity":0.8031496062992126,"duration":0.20059126302083996},{"name":"E3","midi":52,"time":366.4865720000135,"velocity":0.8031496062992126,"duration":0.40329401302085444},{"name":"A4","midi":69,"time":366.4865720000135,"velocity":0.8031496062992126,"duration":0.20059126302083996},{"name":"G#4","midi":68,"time":366.6892747500135,"velocity":0.8031496062992126,"duration":0.20059126302083996},{"name":"F#3","midi":54,"time":366.8919775000135,"velocity":0.8031496062992126,"duration":0.20059126302083996},{"name":"A4","midi":69,"time":366.8919775000135,"velocity":0.8031496062992126,"duration":0.20059126302083996},{"name":"E3","midi":52,"time":367.09468025001354,"velocity":0.8031496062992126,"duration":0.20059126302083996},{"name":"B4","midi":71,"time":367.09468025001354,"velocity":0.8031496062992126,"duration":0.20059126302083996},{"name":"F#3","midi":54,"time":367.29738300001355,"velocity":0.8031496062992126,"duration":0.20059126302083996},{"name":"G#4","midi":68,"time":367.29738300001355,"velocity":0.8031496062992126,"duration":0.20059126302083996},{"name":"E3","midi":52,"time":367.50008575001357,"velocity":0.8031496062992126,"duration":0.20059126302083996},{"name":"A4","midi":69,"time":367.50008575001357,"velocity":0.8031496062992126,"duration":0.20059126302083996},{"name":"D#3","midi":51,"time":367.7027885000136,"velocity":0.8031496062992126,"duration":0.20059126302083996},{"name":"B4","midi":71,"time":367.7027885000136,"velocity":0.8031496062992126,"duration":0.20059126302083996},{"name":"E3","midi":52,"time":367.9054912500136,"velocity":0.8031496062992126,"duration":0.20059126302083996},{"name":"A4","midi":69,"time":367.9054912500136,"velocity":0.8031496062992126,"duration":0.20059126302083996},{"name":"C#3","midi":49,"time":368.1081940000136,"velocity":0.8031496062992126,"duration":0.20059126302083996},{"name":"B4","midi":71,"time":368.1081940000136,"velocity":0.8031496062992126,"duration":0.20059126302083996},{"name":"D#3","midi":51,"time":368.3108967500136,"velocity":0.8031496062992126,"duration":0.20059126302083996},{"name":"A4","midi":69,"time":368.3108967500136,"velocity":0.8031496062992126,"duration":0.20059126302083996},{"name":"E3","midi":52,"time":368.51359950001364,"velocity":0.8031496062992126,"duration":0.20059126302083996},{"name":"G#4","midi":68,"time":368.51359950001364,"velocity":0.8031496062992126,"duration":0.20059126302083996},{"name":"D#3","midi":51,"time":368.71630225001365,"velocity":0.8031496062992126,"duration":0.20059126302083996},{"name":"A4","midi":69,"time":368.71630225001365,"velocity":0.8031496062992126,"duration":0.20059126302083996},{"name":"E3","midi":52,"time":368.91900500001367,"velocity":0.8031496062992126,"duration":0.20059126302083996},{"name":"F#4","midi":66,"time":368.91900500001367,"velocity":0.8031496062992126,"duration":0.20059126302083996},{"name":"D#3","midi":51,"time":369.1217077500137,"velocity":0.8031496062992126,"duration":0.20059126302083996},{"name":"G#4","midi":68,"time":369.1217077500137,"velocity":0.8031496062992126,"duration":0.20059126302083996},{"name":"C#3","midi":49,"time":369.3244105000137,"velocity":0.8031496062992126,"duration":0.20059126302083996},{"name":"A4","midi":69,"time":369.3244105000137,"velocity":0.8031496062992126,"duration":0.20059126302083996},{"name":"B2","midi":47,"time":369.5271132500137,"velocity":0.8031496062992126,"duration":0.20059126302083996},{"name":"G#4","midi":68,"time":369.5271132500137,"velocity":0.8031496062992126,"duration":0.20059126302083996},{"name":"C#3","midi":49,"time":369.7298160000137,"velocity":0.8031496062992126,"duration":0.20059126302083996},{"name":"A4","midi":69,"time":369.7298160000137,"velocity":0.8031496062992126,"duration":0.20059126302083996},{"name":"B2","midi":47,"time":369.93251875001374,"velocity":0.8031496062992126,"duration":0.20059126302083996},{"name":"G#4","midi":68,"time":369.93251875001374,"velocity":0.8031496062992126,"duration":0.20059126302083996},{"name":"F#4","midi":66,"time":370.13522150001376,"velocity":0.8031496062992126,"duration":0.20903721093748118},{"name":"A2","midi":45,"time":370.13522150001376,"velocity":0.8031496062992126,"duration":0.20903721093748118},{"name":"G#4","midi":68,"time":370.3463701979304,"velocity":0.8031496062992126,"duration":0.20903721093748118},{"name":"G#2","midi":44,"time":370.3463701979304,"velocity":0.8031496062992126,"duration":0.20903721093748118},{"name":"E4","midi":64,"time":370.55963038282624,"velocity":0.8031496062992126,"duration":0.20903721093748118},{"name":"A2","midi":45,"time":370.55963038282624,"velocity":0.8031496062992126,"duration":0.20903721093748118},{"name":"F#4","midi":66,"time":370.7728905677221,"velocity":0.8031496062992126,"duration":0.20903721093748118},{"name":"F#2","midi":42,"time":370.7728905677221,"velocity":0.8031496062992126,"duration":0.20903721093748118},{"name":"G#4","midi":68,"time":370.9861507526179,"velocity":0.8031496062992126,"duration":0.20903721093748118},{"name":"B2","midi":47,"time":370.9861507526179,"velocity":0.8031496062992126,"duration":0.4222973958333114},{"name":"F#4","midi":66,"time":371.19941093751373,"velocity":0.8031496062992126,"duration":0.20903721093748118},{"name":"G#4","midi":68,"time":371.4105596354304,"velocity":0.8031496062992126,"duration":0.20903721093748118},{"name":"B1","midi":35,"time":371.4105596354304,"velocity":0.8031496062992126,"duration":0.4222973958333114},{"name":"F#4","midi":66,"time":371.6238198203262,"velocity":0.8031496062992126,"duration":0.20903721093748118},{"name":"E2","midi":40,"time":371.83708000522205,"velocity":0.8031496062992126,"duration":0.45608118749998994},{"name":"E4","midi":64,"time":371.83708000522205,"velocity":0.8031496062992126,"duration":2.3310816249999675},{"name":"B2","midi":47,"time":372.31638754949284,"velocity":0.8031496062992126,"duration":0.45608118749998994},{"name":"E3","midi":52,"time":372.837924833347,"velocity":0.8031496062992126,"duration":1.3450172057291638},{"name":"G#4","midi":68,"time":376.2163040000137,"velocity":0.8031496062992126,"duration":0.20059126302083996},{"name":"F#4","midi":66,"time":376.4190067500137,"velocity":0.8031496062992126,"duration":0.20059126302083996},{"name":"E4","midi":64,"time":376.6217095000137,"velocity":0.8031496062992126,"duration":0.20059126302083996},{"name":"F#4","midi":66,"time":376.8244122500137,"velocity":0.8031496062992126,"duration":0.20059126302083996},{"name":"G#4","midi":68,"time":377.02711500001374,"velocity":0.8031496062992126,"duration":0.20059126302083996},{"name":"A4","midi":69,"time":377.22981775001375,"velocity":0.8031496062992126,"duration":0.20059126302083996},{"name":"G#4","midi":68,"time":377.43252050001377,"velocity":0.8031496062992126,"duration":0.40329401302085444},{"name":"B4","midi":71,"time":377.43252050001377,"velocity":0.8031496062992126,"duration":0.40329401302085444},{"name":"E3","midi":52,"time":377.6352232500138,"velocity":0.8031496062992126,"duration":0.20059126302083996},{"name":"A4","midi":69,"time":377.8379260000138,"velocity":0.8031496062992126,"duration":0.40329401302085444},{"name":"C#5","midi":73,"time":377.8379260000138,"velocity":0.8031496062992126,"duration":0.40329401302085444},{"name":"D#3","midi":51,"time":377.8379260000138,"velocity":0.8031496062992126,"duration":0.20059126302083996},{"name":"E3","midi":52,"time":378.0406287500138,"velocity":0.8031496062992126,"duration":0.20059126302083996},{"name":"B4","midi":71,"time":378.2433315000138,"velocity":0.8031496062992126,"duration":0.40329401302085444},{"name":"G#4","midi":68,"time":378.2433315000138,"velocity":0.8031496062992126,"duration":0.2956081770833521},{"name":"E2","midi":40,"time":378.2433315000138,"velocity":0.8031496062992126,"duration":0.4011825260416799},{"name":"D#4","midi":63,"time":378.64873700001385,"velocity":0.8031496062992126,"duration":0.20059126302083996},{"name":"E4","midi":64,"time":378.85143975001387,"velocity":0.8031496062992126,"duration":0.20059126302083996},{"name":"F#4","midi":66,"time":379.0541425000139,"velocity":0.8031496062992126,"duration":0.20059126302083996},{"name":"G#4","midi":68,"time":379.2568452500139,"velocity":0.8031496062992126,"duration":0.20059126302083996},{"name":"A4","midi":69,"time":379.4595480000139,"velocity":0.8031496062992126,"duration":0.20059126302083996},{"name":"D#5","midi":75,"time":379.6622507500139,"velocity":0.8031496062992126,"duration":0.20059126302083996},{"name":"G#4","midi":68,"time":379.86495350001394,"velocity":0.8031496062992126,"duration":0.40329401302085444},{"name":"E5","midi":76,"time":379.86495350001394,"velocity":0.8031496062992126,"duration":0.40329401302085444},{"name":"E3","midi":52,"time":380.06765625001395,"velocity":0.8031496062992126,"duration":0.20059126302083996},{"name":"A4","midi":69,"time":380.27035900001397,"velocity":0.8031496062992126,"duration":0.40329401302085444},{"name":"F#5","midi":78,"time":380.27035900001397,"velocity":0.8031496062992126,"duration":0.40329401302085444},{"name":"D#3","midi":51,"time":380.27035900001397,"velocity":0.8031496062992126,"duration":0.20059126302083996},{"name":"E3","midi":52,"time":380.473061750014,"velocity":0.8031496062992126,"duration":0.20059126302083996},{"name":"G#4","midi":68,"time":380.675764500014,"velocity":0.8031496062992126,"duration":0.2956081770833521},{"name":"E5","midi":76,"time":380.675764500014,"velocity":0.8031496062992126,"duration":0.40329401302085444},{"name":"E2","midi":40,"time":380.675764500014,"velocity":0.8031496062992126,"duration":0.4011825260416799},{"name":"G#5","midi":80,"time":381.081170000014,"velocity":0.8031496062992126,"duration":0.20059126302083996},{"name":"F#5","midi":78,"time":381.28387275001404,"velocity":0.8031496062992126,"duration":0.20059126302083996},{"name":"E5","midi":76,"time":381.48657550001406,"velocity":0.8031496062992126,"duration":0.20059126302083996},{"name":"D#5","midi":75,"time":381.68927825001407,"velocity":0.8031496062992126,"duration":0.20059126302083996},{"name":"C#5","midi":73,"time":381.8919810000141,"velocity":0.8031496062992126,"duration":0.20059126302083996},{"name":"B4","midi":71,"time":382.0946837500141,"velocity":0.8031496062992126,"duration":0.20059126302083996},{"name":"A#4","midi":70,"time":382.2973865000141,"velocity":0.8031496062992126,"duration":0.40329401302085444},{"name":"F#5","midi":78,"time":382.2973865000141,"velocity":0.8031496062992126,"duration":0.40329401302085444},{"name":"E3","midi":52,"time":382.5000892500141,"velocity":0.8031496062992126,"duration":0.20059126302083996},{"name":"B4","midi":71,"time":382.70279200001414,"velocity":0.8031496062992126,"duration":0.40329401302085444},{"name":"G#5","midi":80,"time":382.70279200001414,"velocity":0.8031496062992126,"duration":0.40329401302085444},{"name":"D#3","midi":51,"time":382.70279200001414,"velocity":0.8031496062992126,"duration":0.20059126302083996},{"name":"E3","midi":52,"time":382.90549475001416,"velocity":0.8031496062992126,"duration":0.20059126302083996},{"name":"A#4","midi":70,"time":383.10819750001417,"velocity":0.8031496062992126,"duration":0.2956081770833521},{"name":"F#5","midi":78,"time":383.10819750001417,"velocity":0.8031496062992126,"duration":0.40329401302085444},{"name":"E2","midi":40,"time":383.10819750001417,"velocity":0.8031496062992126,"duration":0.20059126302083996},{"name":"E3","midi":52,"time":383.3109002500142,"velocity":0.8031496062992126,"duration":0.20059126302083996},{"name":"B4","midi":71,"time":383.5136030000142,"velocity":0.8031496062992126,"duration":0.20059126302083996},{"name":"D#3","midi":51,"time":383.5136030000142,"velocity":0.8031496062992126,"duration":0.40329401302085444},{"name":"A#4","midi":70,"time":383.7163057500142,"velocity":0.8031496062992126,"duration":0.20059126302083996},{"name":"G#4","midi":68,"time":383.91900850001423,"velocity":0.8031496062992126,"duration":0.20059126302083996},{"name":"E3","midi":52,"time":383.91900850001423,"velocity":0.8031496062992126,"duration":0.40329401302085444},{"name":"F#4","midi":66,"time":384.12171125001424,"velocity":0.8031496062992126,"duration":0.20059126302083996},{"name":"E5","midi":76,"time":384.32441400001426,"velocity":0.8031496062992126,"duration":0.20059126302083996},{"name":"F#3","midi":54,"time":384.32441400001426,"velocity":0.8031496062992126,"duration":0.4011825260416799},{"name":"D#5","midi":75,"time":384.5271167500143,"velocity":0.8031496062992126,"duration":0.20059126302083996},{"name":"E4","midi":64,"time":384.7298195000143,"velocity":0.8031496062992126,"duration":0.40329401302085444},{"name":"C#5","midi":73,"time":384.7298195000143,"velocity":0.8031496062992126,"duration":0.40329401302085444},{"name":"B3","midi":59,"time":384.9325222500143,"velocity":0.8031496062992126,"duration":0.20059126302083996},{"name":"D#4","midi":63,"time":385.1352250000143,"velocity":0.8031496062992126,"duration":0.4011825260416799},{"name":"B4","midi":71,"time":385.1352250000143,"velocity":0.8031496062992126,"duration":0.5912163541667041},{"name":"A#3","midi":58,"time":385.1352250000143,"velocity":0.8031496062992126,"duration":0.20059126302083996},{"name":"B3","midi":59,"time":385.33792775001433,"velocity":0.8031496062992126,"duration":0.20059126302083996},{"name":"B2","midi":47,"time":385.54063050001434,"velocity":0.8031496062992126,"duration":0.4011825260416799},{"name":"D#5","midi":75,"time":385.9460360000144,"velocity":0.8031496062992126,"duration":0.20059126302083996},{"name":"C#5","midi":73,"time":386.1487387500144,"velocity":0.8031496062992126,"duration":0.20059126302083996},{"name":"B4","midi":71,"time":386.3514415000144,"velocity":0.8031496062992126,"duration":0.20059126302083996},{"name":"C#5","midi":73,"time":386.5541442500144,"velocity":0.8031496062992126,"duration":0.20059126302083996},{"name":"D#5","midi":75,"time":386.75684700001443,"velocity":0.8031496062992126,"duration":0.20059126302083996},{"name":"E5","midi":76,"time":386.95954975001445,"velocity":0.8031496062992126,"duration":0.20059126302083996},{"name":"F#5","midi":78,"time":387.16225250001446,"velocity":0.8031496062992126,"duration":0.40329401302085444},{"name":"D#5","midi":75,"time":387.16225250001446,"velocity":0.8031496062992126,"duration":0.40329401302085444},{"name":"B3","midi":59,"time":387.3649552500145,"velocity":0.8031496062992126,"duration":0.20059126302083996},{"name":"G#5","midi":80,"time":387.5676580000145,"velocity":0.8031496062992126,"duration":0.40329401302085444},{"name":"E5","midi":76,"time":387.5676580000145,"velocity":0.8031496062992126,"duration":0.40329401302085444},{"name":"A#3","midi":58,"time":387.5676580000145,"velocity":0.8031496062992126,"duration":0.20059126302083996},{"name":"B3","midi":59,"time":387.7703607500145,"velocity":0.8031496062992126,"duration":0.20059126302083996},{"name":"F#5","midi":78,"time":387.9730635000145,"velocity":0.8031496062992126,"duration":0.40329401302085444},{"name":"D#5","midi":75,"time":387.9730635000145,"velocity":0.8031496062992126,"duration":0.2956081770833521},{"name":"B2","midi":47,"time":387.9730635000145,"velocity":0.8031496062992126,"duration":0.4011825260416799},{"name":"A5","midi":81,"time":388.37846900001455,"velocity":0.8031496062992126,"duration":0.20059126302083996},{"name":"G#5","midi":80,"time":388.58117175001456,"velocity":0.8031496062992126,"duration":0.20059126302083996},{"name":"F#5","midi":78,"time":388.7838745000146,"velocity":0.8031496062992126,"duration":0.20059126302083996},{"name":"E5","midi":76,"time":388.9865772500146,"velocity":0.8031496062992126,"duration":0.20059126302083996},{"name":"D#5","midi":75,"time":389.1892800000146,"velocity":0.8031496062992126,"duration":0.20059126302083996},{"name":"C#5","midi":73,"time":389.3919827500146,"velocity":0.8031496062992126,"duration":0.20059126302083996},{"name":"C5","midi":72,"time":389.59468550001463,"velocity":0.8031496062992126,"duration":0.20059126302083996},{"name":"A5","midi":81,"time":389.79738825001465,"velocity":0.8031496062992126,"duration":0.20059126302083996},{"name":"C#4","midi":61,"time":389.79738825001465,"velocity":0.8031496062992126,"duration":0.20059126302083996},{"name":"G#5","midi":80,"time":390.00009100001466,"velocity":0.8031496062992126,"duration":0.20059126302083996},{"name":"C4","midi":60,"time":390.00009100001466,"velocity":0.8031496062992126,"duration":0.20059126302083996},{"name":"F#5","midi":78,"time":390.2027937500147,"velocity":0.8031496062992126,"duration":0.20059126302083996},{"name":"C#4","midi":61,"time":390.2027937500147,"velocity":0.8031496062992126,"duration":0.20059126302083996},{"name":"E5","midi":76,"time":390.4054965000147,"velocity":0.8031496062992126,"duration":0.20059126302083996},{"name":"C#3","midi":49,"time":390.4054965000147,"velocity":0.8031496062992126,"duration":0.4011825260416799},{"name":"D#5","midi":75,"time":390.6081992500147,"velocity":0.8031496062992126,"duration":0.20059126302083996},{"name":"E5","midi":76,"time":390.8109020000147,"velocity":0.8031496062992126,"duration":0.20059126302083996},{"name":"C#5","midi":73,"time":391.01360475001474,"velocity":0.8031496062992126,"duration":0.20059126302083996},{"name":"G#4","midi":68,"time":391.21630750001475,"velocity":0.8031496062992126,"duration":0.20059126302083996},{"name":"A4","midi":69,"time":391.41901025001476,"velocity":0.8031496062992126,"duration":0.20059126302083996},{"name":"B4","midi":71,"time":391.6217130000148,"velocity":0.8031496062992126,"duration":0.20059126302083996},{"name":"C#5","midi":73,"time":391.8244157500148,"velocity":0.8031496062992126,"duration":0.20059126302083996},{"name":"D5","midi":74,"time":392.0271185000148,"velocity":0.8031496062992126,"duration":0.20059126302083996},{"name":"B4","midi":71,"time":392.2298212500148,"velocity":0.8031496062992126,"duration":0.20059126302083996},{"name":"A3","midi":57,"time":392.2298212500148,"velocity":0.8031496062992126,"duration":0.20059126302083996},{"name":"C#5","midi":73,"time":392.43252400001484,"velocity":0.8031496062992126,"duration":0.20059126302083996},{"name":"G#3","midi":56,"time":392.43252400001484,"velocity":0.8031496062992126,"duration":0.20059126302083996},{"name":"A4","midi":69,"time":392.63522675001485,"velocity":0.8031496062992126,"duration":0.20059126302083996},{"name":"A3","midi":57,"time":392.63522675001485,"velocity":0.8031496062992126,"duration":0.20059126302083996},{"name":"B4","midi":71,"time":392.83792950001487,"velocity":0.8031496062992126,"duration":0.20059126302083996},{"name":"A2","midi":45,"time":392.83792950001487,"velocity":0.8031496062992126,"duration":0.20059126302083996},{"name":"D#4","midi":63,"time":393.0406322500149,"velocity":0.8031496062992126,"duration":0.20059126302083996},{"name":"A3","midi":57,"time":393.0406322500149,"velocity":0.8031496062992126,"duration":0.20059126302083996},{"name":"E4","midi":64,"time":393.2433350000149,"velocity":0.8031496062992126,"duration":0.20059126302083996},{"name":"G#3","midi":56,"time":393.2433350000149,"velocity":0.8031496062992126,"duration":0.40329401302085444},{"name":"F#4","midi":66,"time":393.4460377500149,"velocity":0.8031496062992126,"duration":0.20059126302083996},{"name":"G#4","midi":68,"time":393.6487405000149,"velocity":0.8031496062992126,"duration":0.20059126302083996},{"name":"F#3","midi":54,"time":393.6487405000149,"velocity":0.8031496062992126,"duration":0.40329401302085444},{"name":"A4","midi":69,"time":393.85144325001494,"velocity":0.8031496062992126,"duration":0.20059126302083996},{"name":"B4","midi":71,"time":394.05414600001495,"velocity":0.8031496062992126,"duration":0.20059126302083996},{"name":"E3","midi":52,"time":394.05414600001495,"velocity":0.8031496062992126,"duration":0.4011825260416799},{"name":"C#5","midi":73,"time":394.25684875001497,"velocity":0.8031496062992126,"duration":0.20059126302083996},{"name":"D#4","midi":63,"time":394.459551500015,"velocity":0.8031496062992126,"duration":0.8023650520833598},{"name":"F#4","midi":66,"time":394.459551500015,"velocity":0.8031496062992126,"duration":1.0135137500000724},{"name":"B3","midi":59,"time":394.662254250015,"velocity":0.8031496062992126,"duration":0.20059126302083996},{"name":"A3","midi":57,"time":394.864957000015,"velocity":0.8031496062992126,"duration":0.20059126302083996},{"name":"B3","midi":59,"time":395.067659750015,"velocity":0.8031496062992126,"duration":0.20059126302083996},{"name":"B2","midi":47,"time":395.27036250001504,"velocity":0.8031496062992126,"duration":0.4011825260416799},{"name":"G#4","midi":68,"time":395.67576800001507,"velocity":0.8031496062992126,"duration":0.20059126302083996},{"name":"F#4","midi":66,"time":395.8784707500151,"velocity":0.8031496062992126,"duration":0.20059126302083996},{"name":"E4","midi":64,"time":396.0811735000151,"velocity":0.8031496062992126,"duration":0.20059126302083996},{"name":"F#4","midi":66,"time":396.2838762500151,"velocity":0.8031496062992126,"duration":0.20059126302083996},{"name":"G#4","midi":68,"time":396.4865790000151,"velocity":0.8031496062992126,"duration":0.20059126302083996},{"name":"A4","midi":69,"time":396.68928175001514,"velocity":0.8031496062992126,"duration":0.20059126302083996},{"name":"G#4","midi":68,"time":396.89198450001516,"velocity":0.8031496062992126,"duration":0.40329401302085444},{"name":"B4","midi":71,"time":396.89198450001516,"velocity":0.8031496062992126,"duration":0.40329401302085444},{"name":"B3","midi":59,"time":397.09468725001517,"velocity":0.8031496062992126,"duration":0.20059126302083996},{"name":"A4","midi":69,"time":397.2973900000152,"velocity":0.8031496062992126,"duration":0.40329401302085444},{"name":"C#5","midi":73,"time":397.2973900000152,"velocity":0.8031496062992126,"duration":0.40329401302085444},{"name":"A3","midi":57,"time":397.2973900000152,"velocity":0.8031496062992126,"duration":0.20059126302083996},{"name":"B3","midi":59,"time":397.5000927500152,"velocity":0.8031496062992126,"duration":0.20059126302083996},{"name":"B4","midi":71,"time":397.7027955000152,"velocity":0.8031496062992126,"duration":0.40329401302085444},{"name":"G#4","midi":68,"time":397.7027955000152,"velocity":0.8031496062992126,"duration":0.2956081770833521},{"name":"B2","midi":47,"time":397.7027955000152,"velocity":0.8031496062992126,"duration":0.4011825260416799},{"name":"B3","midi":59,"time":398.10820100001524,"velocity":0.8031496062992126,"duration":0.20059126302083996},{"name":"C#4","midi":61,"time":398.31090375001526,"velocity":0.8031496062992126,"duration":0.20059126302083996},{"name":"D#4","midi":63,"time":398.51360650001527,"velocity":0.8031496062992126,"duration":0.20059126302083996},{"name":"E4","midi":64,"time":398.7163092500153,"velocity":0.8031496062992126,"duration":0.20059126302083996},{"name":"F#4","midi":66,"time":398.9190120000153,"velocity":0.8031496062992126,"duration":0.20059126302083996},{"name":"G#4","midi":68,"time":399.1217147500153,"velocity":0.8031496062992126,"duration":0.20059126302083996},{"name":"F#4","midi":66,"time":399.32441750001533,"velocity":0.8031496062992126,"duration":0.40329401302085444},{"name":"A4","midi":69,"time":399.32441750001533,"velocity":0.8031496062992126,"duration":0.40329401302085444},{"name":"B3","midi":59,"time":399.52712025001534,"velocity":0.8031496062992126,"duration":0.20059126302083996},{"name":"G#4","midi":68,"time":399.72982300001536,"velocity":0.8031496062992126,"duration":0.40329401302085444},{"name":"B4","midi":71,"time":399.72982300001536,"velocity":0.8031496062992126,"duration":0.40329401302085444},{"name":"A3","midi":57,"time":399.72982300001536,"velocity":0.8031496062992126,"duration":0.20059126302083996},{"name":"B3","midi":59,"time":399.9325257500154,"velocity":0.8031496062992126,"duration":0.20059126302083996},{"name":"A4","midi":69,"time":400.1352285000154,"velocity":0.8031496062992126,"duration":0.40329401302085444},{"name":"F#4","midi":66,"time":400.1352285000154,"velocity":0.8031496062992126,"duration":0.2956081770833521},{"name":"B2","midi":47,"time":400.1352285000154,"velocity":0.8031496062992126,"duration":0.4011825260416799},{"name":"G#4","midi":68,"time":400.5406340000154,"velocity":0.8031496062992126,"duration":0.20059126302083996},{"name":"B4","midi":71,"time":400.74333675001543,"velocity":0.8031496062992126,"duration":0.20059126302083996},{"name":"E5","midi":76,"time":400.94603950001544,"velocity":0.8031496062992126,"duration":0.20059126302083996},{"name":"D#5","midi":75,"time":401.14874225001546,"velocity":0.8031496062992126,"duration":0.20059126302083996},{"name":"G#5","midi":80,"time":401.3514450000155,"velocity":0.8031496062992126,"duration":0.20059126302083996},{"name":"F#5","midi":78,"time":401.5541477500155,"velocity":0.8031496062992126,"duration":0.20059126302083996},{"name":"A5","midi":81,"time":401.7568505000155,"velocity":0.8031496062992126,"duration":0.204814236979189},{"name":"B3","midi":59,"time":401.96377622397387,"velocity":0.8031496062992126,"duration":0.204814236979189},{"name":"G#5","midi":80,"time":401.96377622397387,"velocity":0.8031496062992126,"duration":0.204814236979189},{"name":"A3","midi":57,"time":402.1728134349114,"velocity":0.8031496062992126,"duration":0.204814236979189},{"name":"F#5","midi":78,"time":402.1728134349114,"velocity":0.8031496062992126,"duration":0.204814236979189},{"name":"B3","midi":59,"time":402.38185064584894,"velocity":0.8031496062992126,"duration":0.204814236979189},{"name":"E5","midi":76,"time":402.38185064584894,"velocity":0.8031496062992126,"duration":0.204814236979189},{"name":"B2","midi":47,"time":402.5908878567865,"velocity":0.8031496062992126,"duration":0.204814236979189},{"name":"D#5","midi":75,"time":402.5908878567865,"velocity":0.8031496062992126,"duration":0.204814236979189},{"name":"A3","midi":57,"time":402.799925067724,"velocity":0.8031496062992126,"duration":0.204814236979189},{"name":"C#5","midi":73,"time":402.799925067724,"velocity":0.8031496062992126,"duration":0.204814236979189},{"name":"B4","midi":71,"time":403.00896227866156,"velocity":0.8031496062992126,"duration":0.21748315885417924},{"name":"G#3","midi":56,"time":403.00896227866156,"velocity":0.8031496062992126,"duration":0.21748315885417924},{"name":"E5","midi":76,"time":403.2285569244949,"velocity":0.8031496062992126,"duration":0.21748315885417924},{"name":"A3","midi":57,"time":403.2285569244949,"velocity":0.8031496062992126,"duration":0.21748315885417924},{"name":"E4","midi":64,"time":403.45026305730744,"velocity":0.8031496062992126,"duration":0.43918929166665066},{"name":"G#4","midi":68,"time":403.45026305730744,"velocity":0.8031496062992126,"duration":0.43918929166665066},{"name":"B3","midi":59,"time":403.45026305730744,"velocity":0.8031496062992126,"duration":0.43918929166665066},{"name":"D#4","midi":63,"time":403.89367532293244,"velocity":0.8031496062992126,"duration":0.437077804687533},{"name":"F#4","midi":66,"time":403.89367532293244,"velocity":0.8031496062992126,"duration":0.21748315885417924},{"name":"B2","midi":47,"time":403.89367532293244,"velocity":0.8031496062992126,"duration":0.4391892916667075},{"name":"E4","midi":64,"time":404.1132699687658,"velocity":0.8031496062992126,"duration":0.21748315885417924},{"name":"E4","midi":64,"time":404.3413105625158,"velocity":0.8031496062992126,"duration":2.4092066432291404},{"name":"E3","midi":52,"time":404.3413105625158,"velocity":0.8031496062992126,"duration":0.7390204427083518},{"name":"B3","midi":59,"time":404.5883545390783,"velocity":0.8031496062992126,"duration":0.24282100260415973},{"name":"G#3","midi":56,"time":404.83751000262,"velocity":0.8031496062992126,"duration":0.9797299583332801},{"name":"B2","midi":47,"time":405.0887769531408,"velocity":0.8031496062992126,"duration":0.24282100260415973},{"name":"E2","midi":40,"time":405.3886081041824,"velocity":0.8031496062992126,"duration":1.3724665364583188},{"name":"B4","midi":71,"time":409.06259544793244,"velocity":0.8031496062992126,"duration":0.33783791666667184},{"name":"E5","midi":76,"time":409.46800094793247,"velocity":0.8031496062992126,"duration":0.40329401302085444},{"name":"B4","midi":71,"time":409.8734064479325,"velocity":0.8031496062992126,"duration":0.40329401302085444},{"name":"G#4","midi":68,"time":410.2788119479325,"velocity":0.8031496062992126,"duration":0.40329401302085444},{"name":"E4","midi":64,"time":410.68421744793255,"velocity":0.8031496062992126,"duration":0.40329401302085444},{"name":"G#4","midi":68,"time":411.0896229479326,"velocity":0.8031496062992126,"duration":0.40329401302085444},{"name":"B3","midi":59,"time":411.4950284479326,"velocity":0.8031496062992126,"duration":0.40329401302085444},{"name":"F#4","midi":66,"time":411.4950284479326,"velocity":0.8031496062992126,"duration":0.40329401302085444},{"name":"E4","midi":64,"time":411.90043394793264,"velocity":0.8031496062992126,"duration":0.40329401302085444},{"name":"G#4","midi":68,"time":411.90043394793264,"velocity":0.8031496062992126,"duration":1.6195105130209413},{"name":"B3","midi":59,"time":412.30583944793267,"velocity":0.8031496062992126,"duration":0.40329401302085444},{"name":"G#3","midi":56,"time":412.7112449479327,"velocity":0.8031496062992126,"duration":0.40329401302085444},{"name":"E3","midi":52,"time":413.1166504479327,"velocity":0.8031496062992126,"duration":0.40329401302085444},{"name":"G#3","midi":56,"time":413.52205594793276,"velocity":0.8031496062992126,"duration":0.40329401302085444},{"name":"F#3","midi":54,"time":413.9274614479328,"velocity":0.8031496062992126,"duration":0.40329401302085444},{"name":"A4","midi":69,"time":413.9274614479328,"velocity":0.8031496062992126,"duration":0.40329401302085444},{"name":"G#3","midi":56,"time":414.3328669479328,"velocity":0.8031496062992126,"duration":0.8023650520833598},{"name":"B4","midi":71,"time":414.3328669479328,"velocity":0.8031496062992126,"duration":0.40329401302085444},{"name":"A4","midi":69,"time":414.73827244793284,"velocity":0.8031496062992126,"duration":0.20059126302083996},{"name":"G#4","midi":68,"time":414.94097519793286,"velocity":0.8031496062992126,"duration":0.20059126302083996},{"name":"F#4","midi":66,"time":415.1436779479329,"velocity":0.8031496062992126,"duration":0.20059126302083996},{"name":"E4","midi":64,"time":415.3463806979329,"velocity":0.8031496062992126,"duration":0.20059126302083996},{"name":"A3","midi":57,"time":415.5490834479329,"velocity":0.8031496062992126,"duration":0.8023650520833598},{"name":"C#5","midi":73,"time":415.5490834479329,"velocity":0.8031496062992126,"duration":0.20059126302083996},{"name":"B4","midi":71,"time":415.7517861979329,"velocity":0.8031496062992126,"duration":0.20059126302083996},{"name":"A4","midi":69,"time":415.95448894793293,"velocity":0.8031496062992126,"duration":0.20059126302083996},{"name":"G#4","midi":68,"time":416.15719169793294,"velocity":0.8031496062992126,"duration":0.20059126302083996},{"name":"F#4","midi":66,"time":416.35989444793296,"velocity":0.8031496062992126,"duration":0.20059126302083996},{"name":"E4","midi":64,"time":416.562597197933,"velocity":0.8031496062992126,"duration":0.20059126302083996},{"name":"B3","midi":59,"time":416.765299947933,"velocity":0.8031496062992126,"duration":0.40329401302085444},{"name":"D#4","midi":63,"time":416.765299947933,"velocity":0.8031496062992126,"duration":0.40329401302085444},{"name":"F#3","midi":54,"time":417.170705447933,"velocity":0.8031496062992126,"duration":0.40329401302085444},{"name":"E4","midi":64,"time":417.170705447933,"velocity":0.8031496062992126,"duration":0.20059126302083996},{"name":"D#4","midi":63,"time":417.37340819793303,"velocity":0.8031496062992126,"duration":0.20059126302083996},{"name":"D#3","midi":51,"time":417.57611094793305,"velocity":0.8031496062992126,"duration":0.40329401302085444},{"name":"C#4","midi":61,"time":417.57611094793305,"velocity":0.8031496062992126,"duration":0.20059126302083996},{"name":"B3","midi":59,"time":417.77881369793306,"velocity":0.8031496062992126,"duration":0.20059126302083996},{"name":"B2","midi":47,"time":417.9815164479331,"velocity":0.8031496062992126,"duration":0.40329401302085444},{"name":"A4","midi":69,"time":417.9815164479331,"velocity":0.8031496062992126,"duration":1.3513516666667442},{"name":"D#3","midi":51,"time":418.3869219479331,"velocity":0.8031496062992126,"duration":0.40329401302085444},{"name":"C#3","midi":49,"time":418.79232744793313,"velocity":0.8031496062992126,"duration":0.40329401302085444},{"name":"D#3","midi":51,"time":419.19773294793316,"velocity":0.8031496062992126,"duration":1.5202706250000801},{"name":"G#4","midi":68,"time":419.4004356979332,"velocity":0.8031496062992126,"duration":0.20059126302083996},{"name":"F#4","midi":66,"time":419.6031384479332,"velocity":0.8031496062992126,"duration":0.20059126302083996},{"name":"G#4","midi":68,"time":419.8058411979332,"velocity":0.8031496062992126,"duration":0.20059126302083996},{"name":"A4","midi":69,"time":420.0085439479332,"velocity":0.8031496062992126,"duration":0.20059126302083996},{"name":"B4","midi":71,"time":420.21124669793323,"velocity":0.8031496062992126,"duration":0.20059126302083996},{"name":"C#5","midi":73,"time":420.41394944793325,"velocity":0.8031496062992126,"duration":0.40329401302085444},{"name":"E3","midi":52,"time":420.8193549479333,"velocity":0.8031496062992126,"duration":0.20059126302083996},{"name":"B4","midi":71,"time":420.8193549479333,"velocity":0.8031496062992126,"duration":0.40329401302085444},{"name":"D#3","midi":51,"time":421.0220576979333,"velocity":0.8031496062992126,"duration":0.20059126302083996},{"name":"C#3","midi":49,"time":421.2247604479333,"velocity":0.8031496062992126,"duration":0.20059126302083996},{"name":"A4","midi":69,"time":421.2247604479333,"velocity":0.8031496062992126,"duration":0.40329401302085444},{"name":"B2","midi":47,"time":421.4274631979333,"velocity":0.8031496062992126,"duration":0.20059126302083996},{"name":"E3","midi":52,"time":421.63016594793334,"velocity":0.8031496062992126,"duration":0.40329401302085444},{"name":"G#4","midi":68,"time":421.63016594793334,"velocity":0.8031496062992126,"duration":0.20059126302083996},{"name":"F#4","midi":66,"time":421.83286869793335,"velocity":0.8031496062992126,"duration":0.20059126302083996},{"name":"B2","midi":47,"time":422.03557144793336,"velocity":0.8031496062992126,"duration":0.40329401302085444},{"name":"E4","midi":64,"time":422.03557144793336,"velocity":0.8031496062992126,"duration":0.20059126302083996},{"name":"F#4","midi":66,"time":422.2382741979334,"velocity":0.8031496062992126,"duration":0.20059126302083996},{"name":"G#2","midi":44,"time":422.4409769479334,"velocity":0.8031496062992126,"duration":0.40329401302085444},{"name":"G#4","midi":68,"time":422.4409769479334,"velocity":0.8031496062992126,"duration":0.20059126302083996},{"name":"A4","midi":69,"time":422.6436796979334,"velocity":0.8031496062992126,"duration":0.20059126302083996},{"name":"E2","midi":40,"time":422.8463824479334,"velocity":0.8031496062992126,"duration":0.40329401302085444},{"name":"B4","midi":71,"time":422.8463824479334,"velocity":0.8031496062992126,"duration":0.20059126302083996},{"name":"A4","midi":69,"time":423.04908519793344,"velocity":0.8031496062992126,"duration":0.20059126302083996},{"name":"E3","midi":52,"time":423.25178794793345,"velocity":0.8031496062992126,"duration":0.40329401302085444},{"name":"G#4","midi":68,"time":423.25178794793345,"velocity":0.8031496062992126,"duration":0.20059126302083996},{"name":"A4","midi":69,"time":423.45449069793347,"velocity":0.8031496062992126,"duration":0.20059126302083996},{"name":"A2","midi":45,"time":423.6571934479335,"velocity":0.8031496062992126,"duration":0.40329401302085444},{"name":"B4","midi":71,"time":423.6571934479335,"velocity":0.8031496062992126,"duration":0.20059126302083996},{"name":"C#5","midi":73,"time":423.8598961979335,"velocity":0.8031496062992126,"duration":0.20059126302083996},{"name":"A3","midi":57,"time":424.0625989479335,"velocity":0.8031496062992126,"duration":0.40329401302085444},{"name":"D#5","midi":75,"time":424.0625989479335,"velocity":0.8031496062992126,"duration":0.40329401302085444},{"name":"G#3","midi":56,"time":424.46800444793354,"velocity":0.8031496062992126,"duration":0.20059126302083996},{"name":"B4","midi":71,"time":424.46800444793354,"velocity":0.8031496062992126,"duration":0.40329401302085444},{"name":"F#3","midi":54,"time":424.67070719793355,"velocity":0.8031496062992126,"duration":0.20059126302083996},{"name":"G#3","midi":56,"time":424.87340994793357,"velocity":0.8031496062992126,"duration":0.20059126302083996},{"name":"E5","midi":76,"time":424.87340994793357,"velocity":0.8031496062992126,"duration":0.40329401302085444},{"name":"E3","midi":52,"time":425.0761126979336,"velocity":0.8031496062992126,"duration":0.20059126302083996},{"name":"B3","midi":59,"time":425.2788154479336,"velocity":0.8031496062992126,"duration":0.40329401302085444},{"name":"F#4","midi":66,"time":425.2788154479336,"velocity":0.8031496062992126,"duration":0.40329401302085444},{"name":"B2","midi":47,"time":425.6842209479336,"velocity":0.8031496062992126,"duration":0.40329401302085444},{"name":"E5","midi":76,"time":425.6842209479336,"velocity":0.8031496062992126,"duration":0.40329401302085444},{"name":"B3","midi":59,"time":426.08962644793365,"velocity":0.8031496062992126,"duration":0.40329401302085444},{"name":"D#5","midi":75,"time":426.08962644793365,"velocity":0.8031496062992126,"duration":0.40329401302085444},{"name":"E4","midi":64,"time":426.4950319479337,"velocity":0.8031496062992126,"duration":0.40329401302085444},{"name":"E5","midi":76,"time":426.4950319479337,"velocity":0.8031496062992126,"duration":1.6195105130209413},{"name":"B3","midi":59,"time":426.9004374479337,"velocity":0.8031496062992126,"duration":0.40329401302085444},{"name":"G#3","midi":56,"time":427.30584294793374,"velocity":0.8031496062992126,"duration":0.40329401302085444},{"name":"E3","midi":52,"time":427.71124844793377,"velocity":0.8031496062992126,"duration":0.40329401302085444},{"name":"G#3","midi":56,"time":428.1166539479338,"velocity":0.8031496062992126,"duration":0.40329401302085444},{"name":"C#3","midi":49,"time":428.5220594479338,"velocity":0.8031496062992126,"duration":0.40329401302085444},{"name":"G#5","midi":80,"time":428.5220594479338,"velocity":0.8031496062992126,"duration":0.40329401302085444},{"name":"F#3","midi":54,"time":428.92746494793386,"velocity":0.8031496062992126,"duration":0.8023650520833598},{"name":"A5","midi":81,"time":428.92746494793386,"velocity":0.8031496062992126,"duration":0.20059126302083996},{"name":"G#5","midi":80,"time":429.13016769793387,"velocity":0.8031496062992126,"duration":0.20059126302083996},{"name":"F#5","midi":78,"time":429.3328704479339,"velocity":0.8031496062992126,"duration":0.20059126302083996},{"name":"E5","midi":76,"time":429.5355731979339,"velocity":0.8031496062992126,"duration":0.20059126302083996},{"name":"D#5","midi":75,"time":429.7382759479339,"velocity":0.8031496062992126,"duration":0.20059126302083996},{"name":"C#5","midi":73,"time":429.94097869793393,"velocity":0.8031496062992126,"duration":0.20059126302083996},{"name":"G#3","midi":56,"time":430.14368144793394,"velocity":0.8031496062992126,"duration":0.40329401302085444},{"name":"C5","midi":72,"time":430.14368144793394,"velocity":0.8031496062992126,"duration":0.20059126302083996},{"name":"D#5","midi":75,"time":430.34638419793396,"velocity":0.8031496062992126,"duration":0.20059126302083996},{"name":"A#3","midi":58,"time":430.549086947934,"velocity":0.8031496062992126,"duration":0.40329401302085444},{"name":"G#5","midi":80,"time":430.549086947934,"velocity":0.8031496062992126,"duration":0.20059126302083996},{"name":"F#5","midi":78,"time":430.751789697934,"velocity":0.8031496062992126,"duration":0.20059126302083996},{"name":"C4","midi":60,"time":430.954492447934,"velocity":0.8031496062992126,"duration":0.40329401302085444},{"name":"E5","midi":76,"time":430.954492447934,"velocity":0.8031496062992126,"duration":0.20059126302083996},{"name":"D#5","midi":75,"time":431.157195197934,"velocity":0.8031496062992126,"duration":0.20059126302083996},{"name":"C#3","midi":49,"time":431.35989794793403,"velocity":0.8031496062992126,"duration":0.40329401302085444},{"name":"E5","midi":76,"time":431.35989794793403,"velocity":0.8031496062992126,"duration":0.20059126302083996},{"name":"F#5","midi":78,"time":431.56260069793404,"velocity":0.8031496062992126,"duration":0.20059126302083996},{"name":"D#3","midi":51,"time":431.76530344793406,"velocity":0.8031496062992126,"duration":0.40329401302085444},{"name":"E5","midi":76,"time":431.76530344793406,"velocity":0.8031496062992126,"duration":0.20059126302083996},{"name":"D#5","midi":75,"time":431.9680061979341,"velocity":0.8031496062992126,"duration":0.20059126302083996},{"name":"E3","midi":52,"time":432.1707089479341,"velocity":0.8031496062992126,"duration":0.40329401302085444},{"name":"C#5","midi":73,"time":432.1707089479341,"velocity":0.8031496062992126,"duration":0.20059126302083996},{"name":"B4","midi":71,"time":432.3734116979341,"velocity":0.8031496062992126,"duration":0.20059126302083996},{"name":"F#3","midi":54,"time":432.5761144479341,"velocity":0.8031496062992126,"duration":0.40329401302085444},{"name":"A#4","midi":70,"time":432.5761144479341,"velocity":0.8031496062992126,"duration":0.20059126302083996},{"name":"C#5","midi":73,"time":432.77881719793413,"velocity":0.8031496062992126,"duration":0.20059126302083996},{"name":"G#3","midi":56,"time":432.98151994793415,"velocity":0.8031496062992126,"duration":0.40329401302085444},{"name":"F#5","midi":78,"time":432.98151994793415,"velocity":0.8031496062992126,"duration":0.20059126302083996},{"name":"E5","midi":76,"time":433.18422269793416,"velocity":0.8031496062992126,"duration":0.20059126302083996},{"name":"A#3","midi":58,"time":433.3869254479342,"velocity":0.8031496062992126,"duration":0.40329401302085444},{"name":"D#5","midi":75,"time":433.3869254479342,"velocity":0.8031496062992126,"duration":0.20059126302083996},{"name":"C#5","midi":73,"time":433.5896281979342,"velocity":0.8031496062992126,"duration":0.20059126302083996},{"name":"B2","midi":47,"time":433.7923309479342,"velocity":0.8031496062992126,"duration":0.40329401302085444},{"name":"D#5","midi":75,"time":433.7923309479342,"velocity":0.8031496062992126,"duration":0.20059126302083996},{"name":"E5","midi":76,"time":433.9950336979342,"velocity":0.8031496062992126,"duration":0.20059126302083996},{"name":"C#3","midi":49,"time":434.19773644793423,"velocity":0.8031496062992126,"duration":0.40329401302085444},{"name":"D#5","midi":75,"time":434.19773644793423,"velocity":0.8031496062992126,"duration":0.20059126302083996},{"name":"C#5","midi":73,"time":434.40043919793425,"velocity":0.8031496062992126,"duration":0.20059126302083996},{"name":"D#3","midi":51,"time":434.60314194793426,"velocity":0.8031496062992126,"duration":0.40329401302085444},{"name":"B4","midi":71,"time":434.60314194793426,"velocity":0.8031496062992126,"duration":0.20059126302083996},{"name":"A4","midi":69,"time":434.8058446979343,"velocity":0.8031496062992126,"duration":0.20059126302083996},{"name":"E3","midi":52,"time":435.0085474479343,"velocity":0.8031496062992126,"duration":0.40329401302085444},{"name":"G#4","midi":68,"time":435.0085474479343,"velocity":0.8031496062992126,"duration":0.20059126302083996},{"name":"B4","midi":71,"time":435.2112501979343,"velocity":0.8031496062992126,"duration":0.20059126302083996},{"name":"C#3","midi":49,"time":435.4139529479343,"velocity":0.8031496062992126,"duration":0.40329401302085444},{"name":"E5","midi":76,"time":435.4139529479343,"velocity":0.8031496062992126,"duration":0.20059126302083996},{"name":"D#5","midi":75,"time":435.61665569793433,"velocity":0.8031496062992126,"duration":0.20059126302083996},{"name":"E3","midi":52,"time":435.81935844793435,"velocity":0.8031496062992126,"duration":0.40329401302085444},{"name":"C#5","midi":73,"time":435.81935844793435,"velocity":0.8031496062992126,"duration":0.20059126302083996},{"name":"B4","midi":71,"time":436.02206119793436,"velocity":0.8031496062992126,"duration":0.20059126302083996},{"name":"F#3","midi":54,"time":436.2247639479344,"velocity":0.8031496062992126,"duration":0.40329401302085444},{"name":"A#4","midi":70,"time":436.2247639479344,"velocity":0.8031496062992126,"duration":0.20059126302083996},{"name":"G#4","midi":68,"time":436.4274666979344,"velocity":0.8031496062992126,"duration":0.20059126302083996},{"name":"C#3","midi":49,"time":436.6301694479344,"velocity":0.8031496062992126,"duration":0.40329401302085444},{"name":"F#4","midi":66,"time":436.6301694479344,"velocity":0.8031496062992126,"duration":0.20059126302083996},{"name":"G#4","midi":68,"time":436.8328721979344,"velocity":0.8031496062992126,"duration":0.20059126302083996},{"name":"A#2","midi":46,"time":437.03557494793444,"velocity":0.8031496062992126,"duration":0.40329401302085444},{"name":"A#4","midi":70,"time":437.03557494793444,"velocity":0.8031496062992126,"duration":0.20059126302083996},{"name":"B4","midi":71,"time":437.23827769793445,"velocity":0.8031496062992126,"duration":0.20059126302083996},{"name":"F#2","midi":42,"time":437.44098044793446,"velocity":0.8031496062992126,"duration":0.40329401302085444},{"name":"C#5","midi":73,"time":437.44098044793446,"velocity":0.8031496062992126,"duration":0.20059126302083996},{"name":"B4","midi":71,"time":437.6436831979345,"velocity":0.8031496062992126,"duration":0.20059126302083996},{"name":"E3","midi":52,"time":437.8463859479345,"velocity":0.8031496062992126,"duration":0.40329401302085444},{"name":"A#4","midi":70,"time":437.8463859479345,"velocity":0.8031496062992126,"duration":0.20059126302083996},{"name":"B4","midi":71,"time":438.0490886979345,"velocity":0.8031496062992126,"duration":0.20059126302083996},{"name":"D#3","midi":51,"time":438.2517914479345,"velocity":0.8031496062992126,"duration":0.40329401302085444},{"name":"C#5","midi":73,"time":438.2517914479345,"velocity":0.8031496062992126,"duration":0.20059126302083996},{"name":"D#5","midi":75,"time":438.45449419793454,"velocity":0.8031496062992126,"duration":0.20059126302083996},{"name":"C#3","midi":49,"time":438.65719694793455,"velocity":0.8031496062992126,"duration":0.40329401302085444},{"name":"E5","midi":76,"time":438.65719694793455,"velocity":0.8031496062992126,"duration":0.20059126302083996},{"name":"D#5","midi":75,"time":438.85989969793457,"velocity":0.8031496062992126,"duration":0.20059126302083996},{"name":"G#2","midi":44,"time":439.0626024479346,"velocity":0.8031496062992126,"duration":0.40329401302085444},{"name":"C#5","midi":73,"time":439.0626024479346,"velocity":0.8031496062992126,"duration":0.20059126302083996},{"name":"D#5","midi":75,"time":439.2653051979346,"velocity":0.8031496062992126,"duration":0.20059126302083996},{"name":"E2","midi":40,"time":439.4680079479346,"velocity":0.8031496062992126,"duration":0.40329401302085444},{"name":"E5","midi":76,"time":439.4680079479346,"velocity":0.8031496062992126,"duration":0.20059126302083996},{"name":"F#5","midi":78,"time":439.6707106979346,"velocity":0.8031496062992126,"duration":0.20059126302083996},{"name":"C#2","midi":37,"time":439.87341344793464,"velocity":0.8031496062992126,"duration":0.40329401302085444},{"name":"G#5","midi":80,"time":439.87341344793464,"velocity":0.8031496062992126,"duration":0.20059126302083996},{"name":"F#5","midi":78,"time":440.07611619793465,"velocity":0.8031496062992126,"duration":0.20059126302083996},{"name":"B2","midi":47,"time":440.27881894793467,"velocity":0.8031496062992126,"duration":0.40329401302085444},{"name":"E5","midi":76,"time":440.27881894793467,"velocity":0.8031496062992126,"duration":0.20059126302083996},{"name":"F#5","midi":78,"time":440.4815216979347,"velocity":0.8031496062992126,"duration":0.20059126302083996},{"name":"A#2","midi":46,"time":440.6842244479347,"velocity":0.8031496062992126,"duration":0.40329401302085444},{"name":"G#5","midi":80,"time":440.6842244479347,"velocity":0.8031496062992126,"duration":0.20059126302083996},{"name":"A#5","midi":82,"time":440.8869271979347,"velocity":0.8031496062992126,"duration":0.20059126302083996},{"name":"G#2","midi":44,"time":441.0896299479347,"velocity":0.8031496062992126,"duration":0.40329401302085444},{"name":"B5","midi":83,"time":441.0896299479347,"velocity":0.8031496062992126,"duration":0.20059126302083996},{"name":"A#5","midi":82,"time":441.29233269793474,"velocity":0.8031496062992126,"duration":0.20059126302083996},{"name":"A#2","midi":46,"time":441.49503544793475,"velocity":0.8031496062992126,"duration":0.40329401302085444},{"name":"G#5","midi":80,"time":441.49503544793475,"velocity":0.8031496062992126,"duration":0.20059126302083996},{"name":"F#5","midi":78,"time":441.69773819793477,"velocity":0.8031496062992126,"duration":0.20059126302083996},{"name":"B2","midi":47,"time":441.9004409479348,"velocity":0.8031496062992126,"duration":0.40329401302085444},{"name":"E5","midi":76,"time":441.9004409479348,"velocity":0.8031496062992126,"duration":0.20059126302083996},{"name":"D#5","midi":75,"time":442.1031436979348,"velocity":0.8031496062992126,"duration":0.20059126302083996},{"name":"E2","midi":40,"time":442.3058464479348,"velocity":0.8031496062992126,"duration":0.8086995130208834},{"name":"G#5","midi":80,"time":442.3058464479348,"velocity":0.8031496062992126,"duration":0.20059126302083996},{"name":"F#5","midi":78,"time":442.5085491979348,"velocity":0.8031496062992126,"duration":0.20059126302083996},{"name":"E5","midi":76,"time":442.71125194793484,"velocity":0.8031496062992126,"duration":0.20059126302083996},{"name":"D#5","midi":75,"time":442.91395469793486,"velocity":0.8031496062992126,"duration":0.20059126302083996},{"name":"E3","midi":52,"time":443.11665744793487,"velocity":0.8031496062992126,"duration":0.6059967630208689},{"name":"C#5","midi":73,"time":443.11665744793487,"velocity":0.8031496062992126,"duration":0.20059126302083996},{"name":"B4","midi":71,"time":443.3193601979349,"velocity":0.8031496062992126,"duration":0.20059126302083996},{"name":"A#4","midi":70,"time":443.5220629479349,"velocity":0.8031496062992126,"duration":0.20059126302083996},{"name":"G#3","midi":56,"time":443.7247656979349,"velocity":0.8031496062992126,"duration":0.20059126302083996},{"name":"C#5","midi":73,"time":443.7247656979349,"velocity":0.8031496062992126,"duration":0.20059126302083996},{"name":"F#3","midi":54,"time":443.9274684479349,"velocity":0.8031496062992126,"duration":0.20059126302083996},{"name":"E5","midi":76,"time":443.9274684479349,"velocity":0.8031496062992126,"duration":0.20059126302083996},{"name":"E3","midi":52,"time":444.13017119793494,"velocity":0.8031496062992126,"duration":0.20059126302083996},{"name":"G#5","midi":80,"time":444.13017119793494,"velocity":0.8031496062992126,"duration":0.20059126302083996},{"name":"D#3","midi":51,"time":444.33287394793496,"velocity":0.8031496062992126,"duration":0.20059126302083996},{"name":"F#5","midi":78,"time":444.33287394793496,"velocity":0.8031496062992126,"duration":0.7179055729167203},{"name":"C#3","midi":49,"time":444.53557669793497,"velocity":0.8031496062992126,"duration":0.20059126302083996},{"name":"B2","midi":47,"time":444.738279447935,"velocity":0.8031496062992126,"duration":0.40329401302085444},{"name":"F#3","midi":54,"time":445.143684947935,"velocity":0.8031496062992126,"duration":0.40329401302085444},{"name":"E5","midi":76,"time":445.143684947935,"velocity":0.8031496062992126,"duration":0.20059126302083996},{"name":"D#5","midi":75,"time":445.34638769793503,"velocity":0.8031496062992126,"duration":0.20059126302083996},{"name":"F#2","midi":42,"time":445.54909044793504,"velocity":0.8031496062992126,"duration":0.40329401302085444},{"name":"C#5","midi":73,"time":445.54909044793504,"velocity":0.8031496062992126,"duration":0.20059126302083996},{"name":"B4","midi":71,"time":445.75179319793506,"velocity":0.8031496062992126,"duration":0.20059126302083996},{"name":"B2","midi":47,"time":445.9544959479351,"velocity":0.8031496062992126,"duration":0.8023650520833598},{"name":"B4","midi":71,"time":445.9544959479351,"velocity":0.8031496062992126,"duration":0.8023650520833598},{"name":"D#5","midi":75,"time":446.1571986979351,"velocity":0.8031496062992126,"duration":0.20059126302083996},{"name":"F#5","midi":78,"time":446.3599014479351,"velocity":0.8031496062992126,"duration":0.20059126302083996},{"name":"B5","midi":83,"time":446.5626041979351,"velocity":0.8031496062992126,"duration":0.20059126302083996},{"name":"F#5","midi":78,"time":446.76530694793513,"velocity":0.8031496062992126,"duration":0.20059126302083996},{"name":"D#5","midi":75,"time":446.96800969793514,"velocity":0.8031496062992126,"duration":0.20059126302083996},{"name":"A#2","midi":46,"time":447.17071244793516,"velocity":0.8031496062992126,"duration":0.8023650520833598},{"name":"B4","midi":71,"time":447.17071244793516,"velocity":0.8031496062992126,"duration":0.8023650520833598},{"name":"D#5","midi":75,"time":447.3734151979352,"velocity":0.8031496062992126,"duration":0.20059126302083996},{"name":"F#5","midi":78,"time":447.5761179479352,"velocity":0.8031496062992126,"duration":0.20059126302083996},{"name":"B5","midi":83,"time":447.7788206979352,"velocity":0.8031496062992126,"duration":0.20059126302083996},{"name":"F#5","midi":78,"time":447.9815234479352,"velocity":0.8031496062992126,"duration":0.20059126302083996},{"name":"D#5","midi":75,"time":448.18422619793523,"velocity":0.8031496062992126,"duration":0.20059126302083996},{"name":"G#2","midi":44,"time":448.38692894793525,"velocity":0.8031496062992126,"duration":0.20059126302083996},{"name":"B4","midi":71,"time":448.38692894793525,"velocity":0.8031496062992126,"duration":2.4282100260418247},{"name":"B2","midi":47,"time":448.58963169793526,"velocity":0.8031496062992126,"duration":0.20059126302083996},{"name":"D#3","midi":51,"time":448.7923344479353,"velocity":0.8031496062992126,"duration":0.20059126302083996},{"name":"G#3","midi":56,"time":448.9950371979353,"velocity":0.8031496062992126,"duration":0.20059126302083996},{"name":"D#3","midi":51,"time":449.1977399479353,"velocity":0.8031496062992126,"duration":0.20059126302083996},{"name":"B2","midi":47,"time":449.4004426979353,"velocity":0.8031496062992126,"duration":0.20059126302083996},{"name":"F#2","midi":42,"time":449.60314544793533,"velocity":0.8031496062992126,"duration":0.20059126302083996},{"name":"B2","midi":47,"time":449.80584819793535,"velocity":0.8031496062992126,"duration":0.20059126302083996},{"name":"D#3","midi":51,"time":450.00855094793536,"velocity":0.8031496062992126,"duration":0.20059126302083996},{"name":"F#3","midi":54,"time":450.2112536979354,"velocity":0.8031496062992126,"duration":0.20059126302083996},{"name":"D#3","midi":51,"time":450.4139564479354,"velocity":0.8031496062992126,"duration":0.20059126302083996},{"name":"B2","midi":47,"time":450.6166591979354,"velocity":0.8031496062992126,"duration":0.20059126302083996},{"name":"F3","midi":53,"time":450.8193619479354,"velocity":0.8031496062992126,"duration":0.8023650520833598},{"name":"D5","midi":74,"time":451.02206469793543,"velocity":0.8031496062992126,"duration":0.20059126302083996},{"name":"F5","midi":77,"time":451.22476744793545,"velocity":0.8031496062992126,"duration":0.20059126302083996},{"name":"G#5","midi":80,"time":451.42747019793546,"velocity":0.8031496062992126,"duration":0.20059126302083996},{"name":"F5","midi":77,"time":451.6301729479355,"velocity":0.8031496062992126,"duration":0.20059126302083996},{"name":"D5","midi":74,"time":451.8328756979355,"velocity":0.8031496062992126,"duration":0.20059126302083996},{"name":"C#3","midi":49,"time":452.0355784479355,"velocity":0.8031496062992126,"duration":0.8023650520833598},{"name":"B4","midi":71,"time":452.0355784479355,"velocity":0.8031496062992126,"duration":0.8023650520833598},{"name":"D5","midi":74,"time":452.2382811979355,"velocity":0.8031496062992126,"duration":0.20059126302083996},{"name":"F5","midi":77,"time":452.44098394793554,"velocity":0.8031496062992126,"duration":0.20059126302083996},{"name":"G#5","midi":80,"time":452.64368669793555,"velocity":0.8031496062992126,"duration":0.20059126302083996},{"name":"F5","midi":77,"time":452.84638944793556,"velocity":0.8031496062992126,"duration":0.20059126302083996},{"name":"B4","midi":71,"time":453.0490921979356,"velocity":0.8031496062992126,"duration":0.20059126302083996},{"name":"F#3","midi":54,"time":453.2517949479356,"velocity":0.8031496062992126,"duration":1.2141050130209123},{"name":"A#4","midi":70,"time":453.2517949479356,"velocity":0.8031496062992126,"duration":0.20059126302083996},{"name":"F#4","midi":66,"time":453.4544976979356,"velocity":0.8031496062992126,"duration":0.20059126302083996},{"name":"G#4","midi":68,"time":453.6572004479356,"velocity":0.8031496062992126,"duration":0.20059126302083996},{"name":"A#4","midi":70,"time":453.85990319793564,"velocity":0.8031496062992126,"duration":0.20059126302083996},{"name":"B4","midi":71,"time":454.06260594793565,"velocity":0.8031496062992126,"duration":0.20059126302083996},{"name":"C#5","midi":73,"time":454.26530869793567,"velocity":0.8031496062992126,"duration":0.20059126302083996},{"name":"D#5","midi":75,"time":454.4680114479357,"velocity":0.8031496062992126,"duration":1.4168077630209268},{"name":"G#3","midi":56,"time":454.6707141979357,"velocity":0.8031496062992126,"duration":0.20059126302083996},{"name":"A#3","midi":58,"time":454.8734169479357,"velocity":0.8031496062992126,"duration":0.20059126302083996},{"name":"B3","midi":59,"time":455.0761196979357,"velocity":0.8031496062992126,"duration":0.20059126302083996},{"name":"C#4","midi":61,"time":455.27882244793574,"velocity":0.8031496062992126,"duration":0.20059126302083996},{"name":"D#4","midi":63,"time":455.48152519793575,"velocity":0.8031496062992126,"duration":0.20059126302083996},{"name":"E4","midi":64,"time":455.68422794793577,"velocity":0.8031496062992126,"duration":1.2141050130209123},{"name":"G#4","midi":68,"time":455.8869306979358,"velocity":0.8031496062992126,"duration":0.20059126302083996},{"name":"A#4","midi":70,"time":456.0896334479358,"velocity":0.8031496062992126,"duration":0.20059126302083996},{"name":"B4","midi":71,"time":456.2923361979358,"velocity":0.8031496062992126,"duration":0.20059126302083996},{"name":"C#5","midi":73,"time":456.4950389479358,"velocity":0.8031496062992126,"duration":0.20059126302083996},{"name":"D#5","midi":75,"time":456.69774169793584,"velocity":0.8031496062992126,"duration":0.20059126302083996},{"name":"E5","midi":76,"time":456.90044444793585,"velocity":0.8031496062992126,"duration":1.4168077630209268},{"name":"F#4","midi":66,"time":457.10314719793587,"velocity":0.8031496062992126,"duration":0.20059126302083996},{"name":"E4","midi":64,"time":457.3058499479359,"velocity":0.8031496062992126,"duration":0.20059126302083996},{"name":"D#4","midi":63,"time":457.5085526979359,"velocity":0.8031496062992126,"duration":0.20059126302083996},{"name":"C#4","midi":61,"time":457.7112554479359,"velocity":0.8031496062992126,"duration":0.20059126302083996},{"name":"B3","midi":59,"time":457.9139581979359,"velocity":0.8031496062992126,"duration":0.20059126302083996},{"name":"A#3","midi":58,"time":458.11666094793594,"velocity":0.8031496062992126,"duration":0.40329401302085444},{"name":"G#4","midi":68,"time":458.31936369793596,"velocity":0.8031496062992126,"duration":0.20059126302083996},{"name":"B3","midi":59,"time":458.52206644793597,"velocity":0.8031496062992126,"duration":0.40329401302085444},{"name":"F#4","midi":66,"time":458.52206644793597,"velocity":0.8031496062992126,"duration":0.20059126302083996},{"name":"E4","midi":64,"time":458.724769197936,"velocity":0.8031496062992126,"duration":0.20059126302083996},{"name":"C#4","midi":61,"time":458.927471947936,"velocity":0.8031496062992126,"duration":0.40329401302085444},{"name":"D#4","midi":63,"time":458.927471947936,"velocity":0.8031496062992126,"duration":0.20059126302083996},{"name":"E4","midi":64,"time":459.130174697936,"velocity":0.8031496062992126,"duration":0.20059126302083996},{"name":"F#3","midi":54,"time":459.332877447936,"velocity":0.8031496062992126,"duration":0.8023650520833598},{"name":"A#4","midi":70,"time":459.332877447936,"velocity":0.8031496062992126,"duration":0.5912163541667041},{"name":"G#4","midi":68,"time":459.53558019793604,"velocity":0.8031496062992126,"duration":0.20059126302083996},{"name":"F#4","midi":66,"time":459.73828294793606,"velocity":0.8031496062992126,"duration":0.20059126302083996},{"name":"E4","midi":64,"time":459.94098569793607,"velocity":0.8031496062992126,"duration":0.20059126302083996},{"name":"D#4","midi":63,"time":460.1436884479361,"velocity":0.8031496062992126,"duration":0.20059126302083996},{"name":"E4","midi":64,"time":460.3463911979361,"velocity":0.8031496062992126,"duration":0.20059126302083996},{"name":"G#3","midi":56,"time":460.5490939479361,"velocity":0.8031496062992126,"duration":0.8023650520833598},{"name":"B4","midi":71,"time":460.5490939479361,"velocity":0.8031496062992126,"duration":0.5912163541667041},{"name":"G#4","midi":68,"time":460.75179669793613,"velocity":0.8031496062992126,"duration":0.20059126302083996},{"name":"F#4","midi":66,"time":460.95449944793614,"velocity":0.8031496062992126,"duration":0.20059126302083996},{"name":"E4","midi":64,"time":461.15720219793616,"velocity":0.8031496062992126,"duration":0.20059126302083996},{"name":"D#4","midi":63,"time":461.3599049479362,"velocity":0.8031496062992126,"duration":0.20059126302083996},{"name":"E4","midi":64,"time":461.5626076979362,"velocity":0.8031496062992126,"duration":0.20059126302083996},{"name":"A#3","midi":58,"time":461.7653104479362,"velocity":0.8031496062992126,"duration":0.8023650520833598},{"name":"C#5","midi":73,"time":461.7653104479362,"velocity":0.8031496062992126,"duration":0.5912163541667041},{"name":"G#4","midi":68,"time":461.9680131979362,"velocity":0.8031496062992126,"duration":0.20059126302083996},{"name":"F#4","midi":66,"time":462.17071594793623,"velocity":0.8031496062992126,"duration":0.20059126302083996},{"name":"E4","midi":64,"time":462.37341869793624,"velocity":0.8031496062992126,"duration":0.20059126302083996},{"name":"D#4","midi":63,"time":462.57612144793626,"velocity":0.8031496062992126,"duration":0.20059126302083996},{"name":"E4","midi":64,"time":462.7788241979363,"velocity":0.8031496062992126,"duration":0.20059126302083996},{"name":"B3","midi":59,"time":462.9815269479363,"velocity":0.8031496062992126,"duration":0.40329401302085444},{"name":"D#5","midi":75,"time":462.9815269479363,"velocity":0.8031496062992126,"duration":0.20059126302083996},{"name":"C#5","midi":73,"time":463.1842296979363,"velocity":0.8031496062992126,"duration":0.20059126302083996},{"name":"A#3","midi":58,"time":463.3869324479363,"velocity":0.8031496062992126,"duration":0.40329401302085444},{"name":"B4","midi":71,"time":463.3869324479363,"velocity":0.8031496062992126,"duration":0.20059126302083996},{"name":"C#5","midi":73,"time":463.58963519793633,"velocity":0.8031496062992126,"duration":0.20059126302083996},{"name":"G#3","midi":56,"time":463.79233794793635,"velocity":0.8031496062992126,"duration":0.40329401302085444},{"name":"D#5","midi":75,"time":463.79233794793635,"velocity":0.8031496062992126,"duration":0.20059126302083996},{"name":"E5","midi":76,"time":463.99504069793636,"velocity":0.8031496062992126,"duration":0.20059126302083996},{"name":"D#3","midi":51,"time":464.1977434479364,"velocity":0.8031496062992126,"duration":0.40329401302085444},{"name":"F#5","midi":78,"time":464.1977434479364,"velocity":0.8031496062992126,"duration":0.40329401302085444},{"name":"E3","midi":52,"time":464.6031489479364,"velocity":0.8031496062992126,"duration":0.40329401302085444},{"name":"B4","midi":71,"time":464.6031489479364,"velocity":0.8031496062992126,"duration":0.40329401302085444},{"name":"F#3","midi":54,"time":465.00855444793643,"velocity":0.8031496062992126,"duration":0.40329401302085444},{"name":"A#4","midi":70,"time":465.00855444793643,"velocity":0.8031496062992126,"duration":0.40329401302085444},{"name":"B2","midi":47,"time":465.41395994793646,"velocity":0.8031496062992126,"duration":0.40329401302085444},{"name":"B4","midi":71,"time":465.41395994793646,"velocity":0.8031496062992126,"duration":1.6195105130209413},{"name":"D#3","midi":51,"time":465.8193654479365,"velocity":0.8031496062992126,"duration":0.40329401302085444},{"name":"F#3","midi":54,"time":466.2247709479365,"velocity":0.8031496062992126,"duration":0.40329401302085444},{"name":"B3","midi":59,"time":466.63017644793655,"velocity":0.8031496062992126,"duration":1.2141050130208555},{"name":"F#5","midi":78,"time":467.44098744793655,"velocity":0.8031496062992126,"duration":0.40329401302085444},{"name":"B4","midi":71,"time":467.8463929479366,"velocity":0.8031496062992126,"duration":0.40329401302085444},{"name":"D#5","midi":75,"time":468.2517984479366,"velocity":0.8031496062992126,"duration":0.40329401302085444},{"name":"F#5","midi":78,"time":468.65720394793664,"velocity":0.8031496062992126,"duration":0.40329401302085444},{"name":"B5","midi":83,"time":469.06260944793667,"velocity":0.8031496062992126,"duration":0.40329401302085444},{"name":"G#5","midi":80,"time":469.4680149479367,"velocity":0.8031496062992126,"duration":0.40329401302085444},{"name":"B3","midi":59,"time":469.8734204479367,"velocity":0.8031496062992126,"duration":0.40329401302085444},{"name":"A5","midi":81,"time":469.8734204479367,"velocity":0.8031496062992126,"duration":0.40329401302085444},{"name":"E3","midi":52,"time":470.27882594793675,"velocity":0.8031496062992126,"duration":0.40329401302085444},{"name":"G#5","midi":80,"time":470.27882594793675,"velocity":0.8031496062992126,"duration":1.6195105130209413},{"name":"G#3","midi":56,"time":470.6842314479368,"velocity":0.8031496062992126,"duration":0.40329401302085444},{"name":"B3","midi":59,"time":471.0896369479368,"velocity":0.8031496062992126,"duration":0.40329401302085444},{"name":"E4","midi":64,"time":471.49504244793684,"velocity":0.8031496062992126,"duration":0.40329401302085444},{"name":"C#4","midi":61,"time":471.90044794793687,"velocity":0.8031496062992126,"duration":0.40329401302085444},{"name":"D4","midi":62,"time":472.3058534479369,"velocity":0.8031496062992126,"duration":0.40329401302085444},{"name":"G#5","midi":80,"time":472.3058534479369,"velocity":0.8031496062992126,"duration":0.40329401302085444},{"name":"C#4","midi":61,"time":472.7112589479369,"velocity":0.8031496062992126,"duration":0.8023650520833598},{"name":"A5","midi":81,"time":472.7112589479369,"velocity":0.8031496062992126,"duration":0.20059126302083996},{"name":"G#5","midi":80,"time":472.91396169793694,"velocity":0.8031496062992126,"duration":0.20059126302083996},{"name":"A5","midi":81,"time":473.11666444793696,"velocity":0.8031496062992126,"duration":0.20059126302083996},{"name":"B5","midi":83,"time":473.31936719793697,"velocity":0.8031496062992126,"duration":0.20059126302083996},{"name":"A5","midi":81,"time":473.522069947937,"velocity":0.8031496062992126,"duration":0.20059126302083996},{"name":"G#5","midi":80,"time":473.724772697937,"velocity":0.8031496062992126,"duration":0.20059126302083996},{"name":"D4","midi":62,"time":473.927475447937,"velocity":0.8031496062992126,"duration":0.8023650520833598},{"name":"F#5","midi":78,"time":473.927475447937,"velocity":0.8031496062992126,"duration":0.20059126302083996},{"name":"F5","midi":77,"time":474.130178197937,"velocity":0.8031496062992126,"duration":0.20059126302083996},{"name":"F#5","midi":78,"time":474.33288094793704,"velocity":0.8031496062992126,"duration":0.20059126302083996},{"name":"G#5","midi":80,"time":474.53558369793706,"velocity":0.8031496062992126,"duration":0.20059126302083996},{"name":"A5","midi":81,"time":474.73828644793707,"velocity":0.8031496062992126,"duration":0.20059126302083996},{"name":"F#5","midi":78,"time":474.9409891979371,"velocity":0.8031496062992126,"duration":0.20059126302083996},{"name":"B3","midi":59,"time":475.1436919479371,"velocity":0.8031496062992126,"duration":0.8023650520833598},{"name":"G#5","midi":80,"time":475.1436919479371,"velocity":0.8031496062992126,"duration":0.20059126302083996},{"name":"F#5","midi":78,"time":475.3463946979371,"velocity":0.8031496062992126,"duration":0.20059126302083996},{"name":"G#5","midi":80,"time":475.54909744793713,"velocity":0.8031496062992126,"duration":0.20059126302083996},{"name":"A5","midi":81,"time":475.75180019793714,"velocity":0.8031496062992126,"duration":0.20059126302083996},{"name":"B5","midi":83,"time":475.95450294793716,"velocity":0.8031496062992126,"duration":0.20059126302083996},{"name":"G#5","midi":80,"time":476.1572056979372,"velocity":0.8031496062992126,"duration":0.20059126302083996},{"name":"C#4","midi":61,"time":476.3599084479372,"velocity":0.8031496062992126,"duration":0.20059126302083996},{"name":"F5","midi":77,"time":476.3599084479372,"velocity":0.8031496062992126,"duration":0.40329401302085444},{"name":"B3","midi":59,"time":476.5626111979372,"velocity":0.8031496062992126,"duration":0.20059126302083996},{"name":"C#4","midi":61,"time":476.7653139479372,"velocity":0.8031496062992126,"duration":0.20059126302083996},{"name":"C#5","midi":73,"time":476.7653139479372,"velocity":0.8031496062992126,"duration":0.40329401302085444},{"name":"D4","midi":62,"time":476.96801669793723,"velocity":0.8031496062992126,"duration":0.20059126302083996},{"name":"C#4","midi":61,"time":477.17071944793724,"velocity":0.8031496062992126,"duration":0.20059126302083996},{"name":"F5","midi":77,"time":477.17071944793724,"velocity":0.8031496062992126,"duration":0.40329401302085444},{"name":"B3","midi":59,"time":477.37342219793726,"velocity":0.8031496062992126,"duration":0.20059126302083996},{"name":"A3","midi":57,"time":477.5761249479373,"velocity":0.8031496062992126,"duration":0.20059126302078312},{"name":"F5","midi":77,"time":477.5761249479373,"velocity":0.8031496062992126,"duration":0.11190880989579455},{"name":"F#5","midi":78,"time":477.67747632293725,"velocity":0.8031496062992126,"duration":0.0992398880208043},{"name":"G#3","midi":56,"time":477.77882769793723,"velocity":0.8031496062992126,"duration":0.2005912630208968},{"name":"G#5","midi":80,"time":477.77882769793723,"velocity":0.8031496062992126,"duration":0.09923988802086114},{"name":"F#5","midi":78,"time":477.88017907293727,"velocity":0.8031496062992126,"duration":0.09923988802086114},{"name":"A3","midi":57,"time":477.9815304479373,"velocity":0.8031496062992126,"duration":0.2005912630208968},{"name":"G#5","midi":80,"time":477.9815304479373,"velocity":0.8031496062992126,"duration":0.09923988802086114},{"name":"F#5","midi":78,"time":478.08288182293734,"velocity":0.8031496062992126,"duration":0.09923988802086114},{"name":"B3","midi":59,"time":478.1842331979374,"velocity":0.8031496062992126,"duration":0.2005912630208968},{"name":"G#5","midi":80,"time":478.1842331979374,"velocity":0.8031496062992126,"duration":0.09923988802086114},{"name":"F#5","midi":78,"time":478.2855845729374,"velocity":0.8031496062992126,"duration":0.09923988802086114},{"name":"A3","midi":57,"time":478.38693594793745,"velocity":0.8031496062992126,"duration":0.2005912630208968},{"name":"G#5","midi":80,"time":478.38693594793745,"velocity":0.8031496062992126,"duration":0.09923988802086114},{"name":"F#5","midi":78,"time":478.4882873229375,"velocity":0.8031496062992126,"duration":0.09923988802086114},{"name":"G#3","midi":56,"time":478.5896386979375,"velocity":0.8031496062992126,"duration":0.2005912630208968},{"name":"G#5","midi":80,"time":478.5896386979375,"velocity":0.8031496062992126,"duration":0.09923988802086114},{"name":"F#5","midi":78,"time":478.69099007293755,"velocity":0.8031496062992126,"duration":0.09923988802086114},{"name":"F#3","midi":54,"time":478.7923414479376,"velocity":0.8031496062992126,"duration":0.2005912630208968},{"name":"G#5","midi":80,"time":478.7923414479376,"velocity":0.8031496062992126,"duration":0.09923988802086114},{"name":"F#5","midi":78,"time":478.8936928229376,"velocity":0.8031496062992126,"duration":0.09923988802086114},{"name":"E3","midi":52,"time":478.99504419793766,"velocity":0.8031496062992126,"duration":0.2005912630208968},{"name":"G#5","midi":80,"time":478.99504419793766,"velocity":0.8031496062992126,"duration":0.09923988802086114},{"name":"F#5","midi":78,"time":479.0963955729377,"velocity":0.8031496062992126,"duration":0.09923988802086114},{"name":"F#3","midi":54,"time":479.19774694793773,"velocity":0.8031496062992126,"duration":0.2005912630208968},{"name":"G#5","midi":80,"time":479.19774694793773,"velocity":0.8031496062992126,"duration":0.09923988802086114},{"name":"F#5","midi":78,"time":479.29909832293777,"velocity":0.8031496062992126,"duration":0.09923988802086114},{"name":"G#3","midi":56,"time":479.4004496979378,"velocity":0.8031496062992126,"duration":0.2005912630208968},{"name":"G#5","midi":80,"time":479.4004496979378,"velocity":0.8031496062992126,"duration":0.09923988802086114},{"name":"F#5","midi":78,"time":479.50180107293784,"velocity":0.8031496062992126,"duration":0.09923988802086114},{"name":"F#3","midi":54,"time":479.6031524479379,"velocity":0.8031496062992126,"duration":0.2005912630208968},{"name":"G#5","midi":80,"time":479.6031524479379,"velocity":0.8031496062992126,"duration":0.09923988802086114},{"name":"F#5","midi":78,"time":479.7045038229379,"velocity":0.8031496062992126,"duration":0.09923988802086114},{"name":"E3","midi":52,"time":479.80585519793794,"velocity":0.8031496062992126,"duration":0.2005912630208968},{"name":"G#5","midi":80,"time":479.80585519793794,"velocity":0.8031496062992126,"duration":0.09923988802086114},{"name":"F#5","midi":78,"time":479.907206572938,"velocity":0.8031496062992126,"duration":0.09923988802086114},{"name":"D3","midi":50,"time":480.008557947938,"velocity":0.8031496062992126,"duration":0.2005912630208968},{"name":"G#5","midi":80,"time":480.008557947938,"velocity":0.8031496062992126,"duration":0.09923988802086114},{"name":"F#5","midi":78,"time":480.10990932293805,"velocity":0.8031496062992126,"duration":0.09923988802086114},{"name":"C#3","midi":49,"time":480.2112606979381,"velocity":0.8031496062992126,"duration":0.2005912630208968},{"name":"G#5","midi":80,"time":480.2112606979381,"velocity":0.8031496062992126,"duration":0.09923988802086114},{"name":"F#5","midi":78,"time":480.3126120729381,"velocity":0.8031496062992126,"duration":0.09923988802086114},{"name":"D3","midi":50,"time":480.41396344793816,"velocity":0.8031496062992126,"duration":0.2005912630208968},{"name":"G#5","midi":80,"time":480.41396344793816,"velocity":0.8031496062992126,"duration":0.09923988802086114},{"name":"F#5","midi":78,"time":480.5153148229382,"velocity":0.8031496062992126,"duration":0.09923988802086114},{"name":"E3","midi":52,"time":480.61666619793823,"velocity":0.8031496062992126,"duration":0.2005912630208968},{"name":"G#5","midi":80,"time":480.61666619793823,"velocity":0.8031496062992126,"duration":0.09923988802086114},{"name":"F#5","midi":78,"time":480.71801757293827,"velocity":0.8031496062992126,"duration":0.6756758333334005},{"name":"D3","midi":50,"time":480.8193689479383,"velocity":0.8031496062992126,"duration":0.20059126302083996},{"name":"C#3","midi":49,"time":481.0220716979383,"velocity":0.8031496062992126,"duration":0.20059126302083996},{"name":"B2","midi":47,"time":481.22477444793833,"velocity":0.8031496062992126,"duration":0.20059126302083996},{"name":"A2","midi":45,"time":481.42747719793834,"velocity":0.8031496062992126,"duration":0.20059126302083996},{"name":"A5","midi":81,"time":481.42747719793834,"velocity":0.8031496062992126,"duration":0.20059126302083996},{"name":"B2","midi":47,"time":481.63017994793836,"velocity":0.8031496062992126,"duration":0.20059126302083996},{"name":"G#5","midi":80,"time":481.63017994793836,"velocity":0.8031496062992126,"duration":0.20059126302083996},{"name":"C#3","midi":49,"time":481.8328826979384,"velocity":0.8031496062992126,"duration":0.20059126302083996},{"name":"F#5","midi":78,"time":481.8328826979384,"velocity":0.8031496062992126,"duration":0.20059126302083996},{"name":"B2","midi":47,"time":482.0355854479384,"velocity":0.8031496062992126,"duration":0.20059126302083996},{"name":"F5","midi":77,"time":482.0355854479384,"velocity":0.8031496062992126,"duration":0.20059126302083996},{"name":"A2","midi":45,"time":482.2382881979384,"velocity":0.8031496062992126,"duration":0.20059126302083996},{"name":"F#5","midi":78,"time":482.2382881979384,"velocity":0.8031496062992126,"duration":0.20059126302083996},{"name":"G#2","midi":44,"time":482.4409909479384,"velocity":0.8031496062992126,"duration":0.8023650520833598},{"name":"B4","midi":71,"time":482.4409909479384,"velocity":0.8031496062992126,"duration":0.20059126302083996},{"name":"D5","midi":74,"time":482.64369369793843,"velocity":0.8031496062992126,"duration":0.20059126302083996},{"name":"C#5","midi":73,"time":482.84639644793845,"velocity":0.8031496062992126,"duration":0.20059126302083996},{"name":"B4","midi":71,"time":483.04909919793846,"velocity":0.8031496062992126,"duration":0.20059126302083996},{"name":"A#4","midi":70,"time":483.2518019479385,"velocity":0.8031496062992126,"duration":0.20059126302083996},{"name":"B4","midi":71,"time":483.4545046979385,"velocity":0.8031496062992126,"duration":0.20059126302083996},{"name":"B2","midi":47,"time":483.6572074479385,"velocity":0.8031496062992126,"duration":0.8023650520833598},{"name":"F5","midi":77,"time":483.6572074479385,"velocity":0.8031496062992126,"duration":0.5067568750000078},{"name":"D5","midi":74,"time":483.8599101979385,"velocity":0.8031496062992126,"duration":0.20059126302083996},{"name":"C#5","midi":73,"time":484.06261294793853,"velocity":0.8031496062992126,"duration":0.20059126302083996},{"name":"B4","midi":71,"time":484.26531569793855,"velocity":0.8031496062992126,"duration":0.20059126302083996},{"name":"A#4","midi":70,"time":484.46801844793856,"velocity":0.8031496062992126,"duration":0.20059126302083996},{"name":"B4","midi":71,"time":484.6707211979386,"velocity":0.8031496062992126,"duration":0.20059126302083996},{"name":"A2","midi":45,"time":484.8734239479386,"velocity":0.8031496062992126,"duration":0.8023650520833598},{"name":"F#5","midi":78,"time":484.8734239479386,"velocity":0.8031496062992126,"duration":0.5067568750000078},{"name":"D5","midi":74,"time":485.0761266979386,"velocity":0.8031496062992126,"duration":0.20059126302083996},{"name":"C#5","midi":73,"time":485.2788294479386,"velocity":0.8031496062992126,"duration":0.20059126302083996},{"name":"B4","midi":71,"time":485.48153219793863,"velocity":0.8031496062992126,"duration":0.20059126302083996},{"name":"A#4","midi":70,"time":485.68423494793865,"velocity":0.8031496062992126,"duration":0.20059126302083996},{"name":"B4","midi":71,"time":485.88693769793866,"velocity":0.8031496062992126,"duration":0.20059126302083996},{"name":"F2","midi":41,"time":486.0896404479387,"velocity":0.8031496062992126,"duration":0.8023650520833598},{"name":"G#5","midi":80,"time":486.0896404479387,"velocity":0.8031496062992126,"duration":0.5067568750000078},{"name":"D5","midi":74,"time":486.2923431979387,"velocity":0.8031496062992126,"duration":0.20059126302083996},{"name":"C#5","midi":73,"time":486.4950459479387,"velocity":0.8031496062992126,"duration":0.20059126302083996},{"name":"B4","midi":71,"time":486.6977486979387,"velocity":0.8031496062992126,"duration":0.20059126302083996},{"name":"A4","midi":69,"time":486.90045144793874,"velocity":0.8031496062992126,"duration":0.20059126302083996},{"name":"G#4","midi":68,"time":487.10315419793875,"velocity":0.8031496062992126,"duration":0.20059126302083996},{"name":"F#2","midi":42,"time":487.30585694793876,"velocity":0.8031496062992126,"duration":0.40329401302085444},{"name":"A4","midi":69,"time":487.30585694793876,"velocity":0.8031496062992126,"duration":0.20059126302083996},{"name":"G#4","midi":68,"time":487.5085596979388,"velocity":0.8031496062992126,"duration":0.20059126302083996},{"name":"F#3","midi":54,"time":487.7112624479388,"velocity":0.8031496062992126,"duration":0.40329401302085444},{"name":"F#4","midi":66,"time":487.7112624479388,"velocity":0.8031496062992126,"duration":0.20059126302083996},{"name":"G#4","midi":68,"time":487.9139651979388,"velocity":0.8031496062992126,"duration":0.20059126302083996},{"name":"D3","midi":50,"time":488.1166679479388,"velocity":0.8031496062992126,"duration":0.40329401302085444},{"name":"A4","midi":69,"time":488.1166679479388,"velocity":0.8031496062992126,"duration":0.20059126302083996},{"name":"B4","midi":71,"time":488.31937069793884,"velocity":0.8031496062992126,"duration":0.20059126302083996},{"name":"A2","midi":45,"time":488.52207344793885,"velocity":0.8031496062992126,"duration":0.40329401302085444},{"name":"C#5","midi":73,"time":488.52207344793885,"velocity":0.8031496062992126,"duration":0.40329401302085444},{"name":"B2","midi":47,"time":488.9274789479389,"velocity":0.8031496062992126,"duration":0.40329401302085444},{"name":"F#4","midi":66,"time":488.9274789479389,"velocity":0.8031496062992126,"duration":0.40329401302085444},{"name":"C#3","midi":49,"time":489.3328844479389,"velocity":0.8031496062992126,"duration":0.40329401302085444},{"name":"F4","midi":65,"time":489.3328844479389,"velocity":0.8031496062992126,"duration":0.40329401302085444},{"name":"F#3","midi":54,"time":489.73828994793894,"velocity":0.8031496062992126,"duration":0.40329401302085444},{"name":"F#4","midi":66,"time":489.73828994793894,"velocity":0.8031496062992126,"duration":1.6195105130209413},{"name":"E4","midi":64,"time":490.14369544793897,"velocity":0.8031496062992126,"duration":0.20059126302083996},{"name":"D4","midi":62,"time":490.346398197939,"velocity":0.8031496062992126,"duration":0.20059126302083996},{"name":"C#4","midi":61,"time":490.549100947939,"velocity":0.8031496062992126,"duration":0.20059126302083996},{"name":"B3","midi":59,"time":490.751803697939,"velocity":0.8031496062992126,"duration":0.20059126302083996},{"name":"A3","midi":57,"time":490.954506447939,"velocity":0.8031496062992126,"duration":0.20059126302083996},{"name":"B3","midi":59,"time":491.15720919793904,"velocity":0.8031496062992126,"duration":0.20059126302083996},{"name":"C#4","midi":61,"time":491.35991194793905,"velocity":0.8031496062992126,"duration":0.20059126302083996},{"name":"B3","midi":59,"time":491.56261469793907,"velocity":0.8031496062992126,"duration":0.20059126302083996},{"name":"A3","midi":57,"time":491.7653174479391,"velocity":0.8031496062992126,"duration":0.20059126302083996},{"name":"A4","midi":69,"time":491.7653174479391,"velocity":0.8031496062992126,"duration":0.40329401302085444},{"name":"G#3","midi":56,"time":491.9680201979391,"velocity":0.8031496062992126,"duration":0.20059126302083996},{"name":"F#3","midi":54,"time":492.1707229479391,"velocity":0.8031496062992126,"duration":0.2005912630208968},{"name":"G#4","midi":68,"time":492.1707229479391,"velocity":0.8031496062992126,"duration":0.09923988802086114},{"name":"A4","midi":69,"time":492.27207432293915,"velocity":0.8031496062992126,"duration":0.09923988802086114},{"name":"G#3","midi":56,"time":492.3734256979392,"velocity":0.8031496062992126,"duration":0.2005912630208968},{"name":"B4","midi":71,"time":492.3734256979392,"velocity":0.8031496062992126,"duration":0.09923988802086114},{"name":"A4","midi":69,"time":492.4747770729392,"velocity":0.8031496062992126,"duration":0.09923988802086114},{"name":"A3","midi":57,"time":492.57612844793925,"velocity":0.8031496062992126,"duration":0.2005912630208968},{"name":"B4","midi":71,"time":492.57612844793925,"velocity":0.8031496062992126,"duration":0.09923988802086114},{"name":"A4","midi":69,"time":492.6774798229393,"velocity":0.8031496062992126,"duration":0.09923988802086114},{"name":"G#3","midi":56,"time":492.7788311979393,"velocity":0.8031496062992126,"duration":0.2005912630208968},{"name":"B4","midi":71,"time":492.7788311979393,"velocity":0.8031496062992126,"duration":0.09923988802086114},{"name":"A4","midi":69,"time":492.88018257293936,"velocity":0.8031496062992126,"duration":0.09923988802086114},{"name":"F#3","midi":54,"time":492.9815339479394,"velocity":0.8031496062992126,"duration":0.2005912630208968},{"name":"B4","midi":71,"time":492.9815339479394,"velocity":0.8031496062992126,"duration":0.09923988802086114},{"name":"A4","midi":69,"time":493.08288532293943,"velocity":0.8031496062992126,"duration":0.09923988802086114},{"name":"E3","midi":52,"time":493.18423669793947,"velocity":0.8031496062992126,"duration":0.2005912630208968},{"name":"B4","midi":71,"time":493.18423669793947,"velocity":0.8031496062992126,"duration":0.09923988802086114},{"name":"A4","midi":69,"time":493.2855880729395,"velocity":0.8031496062992126,"duration":0.09923988802086114},{"name":"D#3","midi":51,"time":493.38693944793954,"velocity":0.8031496062992126,"duration":0.2005912630208968},{"name":"B4","midi":71,"time":493.38693944793954,"velocity":0.8031496062992126,"duration":0.09923988802086114},{"name":"A4","midi":69,"time":493.4882908229396,"velocity":0.8031496062992126,"duration":0.09923988802086114},{"name":"E3","midi":52,"time":493.5896421979396,"velocity":0.8031496062992126,"duration":0.2005912630208968},{"name":"B4","midi":71,"time":493.5896421979396,"velocity":0.8031496062992126,"duration":0.09923988802086114},{"name":"A4","midi":69,"time":493.69099357293965,"velocity":0.8031496062992126,"duration":0.09923988802086114},{"name":"F#3","midi":54,"time":493.7923449479397,"velocity":0.8031496062992126,"duration":0.2005912630208968},{"name":"B4","midi":71,"time":493.7923449479397,"velocity":0.8031496062992126,"duration":0.09923988802086114},{"name":"A4","midi":69,"time":493.8936963229397,"velocity":0.8031496062992126,"duration":0.09923988802086114},{"name":"E3","midi":52,"time":493.99504769793975,"velocity":0.8031496062992126,"duration":0.2005912630208968},{"name":"B4","midi":71,"time":493.99504769793975,"velocity":0.8031496062992126,"duration":0.09923988802086114},{"name":"A4","midi":69,"time":494.0963990729398,"velocity":0.8031496062992126,"duration":0.09923988802086114},{"name":"D#3","midi":51,"time":494.1977504479398,"velocity":0.8031496062992126,"duration":0.2005912630208968},{"name":"B4","midi":71,"time":494.1977504479398,"velocity":0.8031496062992126,"duration":0.09923988802086114},{"name":"A4","midi":69,"time":494.29910182293986,"velocity":0.8031496062992126,"duration":0.09923988802086114},{"name":"C#3","midi":49,"time":494.4004531979399,"velocity":0.8031496062992126,"duration":0.2005912630208968},{"name":"B4","midi":71,"time":494.4004531979399,"velocity":0.8031496062992126,"duration":0.09923988802086114},{"name":"A4","midi":69,"time":494.50180457293993,"velocity":0.8031496062992126,"duration":0.09923988802086114},{"name":"B2","midi":47,"time":494.60315594793997,"velocity":0.8031496062992126,"duration":0.2005912630208968},{"name":"B4","midi":71,"time":494.60315594793997,"velocity":0.8031496062992126,"duration":0.09923988802086114},{"name":"A4","midi":69,"time":494.70450732294,"velocity":0.8031496062992126,"duration":0.09923988802086114},{"name":"C#3","midi":49,"time":494.80585869794004,"velocity":0.8031496062992126,"duration":0.2005912630208968},{"name":"B4","midi":71,"time":494.80585869794004,"velocity":0.8031496062992126,"duration":0.09923988802086114},{"name":"A4","midi":69,"time":494.9072100729401,"velocity":0.8031496062992126,"duration":0.09923988802086114},{"name":"D#3","midi":51,"time":495.0085614479401,"velocity":0.8031496062992126,"duration":0.2005912630208968},{"name":"B4","midi":71,"time":495.0085614479401,"velocity":0.8031496062992126,"duration":0.09923988802086114},{"name":"A4","midi":69,"time":495.10991282294015,"velocity":0.8031496062992126,"duration":0.09923988802086114},{"name":"C#3","midi":49,"time":495.2112641979402,"velocity":0.8031496062992126,"duration":0.2005912630208968},{"name":"B4","midi":71,"time":495.2112641979402,"velocity":0.8031496062992126,"duration":0.09923988802086114},{"name":"A4","midi":69,"time":495.3126155729402,"velocity":0.8031496062992126,"duration":1.055743489583449},{"name":"B2","midi":47,"time":495.41396694794025,"velocity":0.8031496062992126,"duration":0.20059126302083996},{"name":"A2","midi":45,"time":495.61666969794027,"velocity":0.8031496062992126,"duration":0.20059126302083996},{"name":"G#2","midi":44,"time":495.8193724479403,"velocity":0.8031496062992126,"duration":0.20059126302083996},{"name":"A2","midi":45,"time":496.0220751979403,"velocity":0.8031496062992126,"duration":0.20059126302083996},{"name":"B2","midi":47,"time":496.2247779479403,"velocity":0.8031496062992126,"duration":0.20059126302083996},{"name":"A2","midi":45,"time":496.4274806979403,"velocity":0.8031496062992126,"duration":0.20059126302083996},{"name":"C#5","midi":73,"time":496.4274806979403,"velocity":0.8031496062992126,"duration":0.20059126302083996},{"name":"G#2","midi":44,"time":496.63018344794034,"velocity":0.8031496062992126,"duration":0.20059126302083996},{"name":"B4","midi":71,"time":496.63018344794034,"velocity":0.8031496062992126,"duration":0.20059126302083996},{"name":"F#2","midi":42,"time":496.83288619794035,"velocity":0.8031496062992126,"duration":0.20059126302083996},{"name":"A4","midi":69,"time":496.83288619794035,"velocity":0.8031496062992126,"duration":0.20059126302083996},{"name":"E2","midi":40,"time":497.03558894794037,"velocity":0.8031496062992126,"duration":0.40329401302085444},{"name":"G#4","midi":68,"time":497.03558894794037,"velocity":0.8031496062992126,"duration":0.20059126302083996},{"name":"F#4","midi":66,"time":497.2382916979404,"velocity":0.8031496062992126,"duration":0.20059126302083996},{"name":"G#2","midi":44,"time":497.4409944479404,"velocity":0.8031496062992126,"duration":0.40329401302085444},{"name":"E4","midi":64,"time":497.4409944479404,"velocity":0.8031496062992126,"duration":0.20059126302083996},{"name":"F#4","midi":66,"time":497.6436971979404,"velocity":0.8031496062992126,"duration":0.20059126302083996},{"name":"B2","midi":47,"time":497.8463999479404,"velocity":0.8031496062992126,"duration":0.40329401302085444},{"name":"G#4","midi":68,"time":497.8463999479404,"velocity":0.8031496062992126,"duration":0.20059126302083996},{"name":"A4","midi":69,"time":498.04910269794044,"velocity":0.8031496062992126,"duration":0.20059126302083996},{"name":"E3","midi":52,"time":498.25180544794046,"velocity":0.8031496062992126,"duration":0.40329401302085444},{"name":"B4","midi":71,"time":498.25180544794046,"velocity":0.8031496062992126,"duration":0.20059126302083996},{"name":"A4","midi":69,"time":498.45450819794047,"velocity":0.8031496062992126,"duration":0.20059126302083996},{"name":"B2","midi":47,"time":498.6572109479405,"velocity":0.8031496062992126,"duration":0.40329401302085444},{"name":"G#4","midi":68,"time":498.6572109479405,"velocity":0.8031496062992126,"duration":0.20059126302083996},{"name":"A4","midi":69,"time":498.8599136979405,"velocity":0.8031496062992126,"duration":0.20059126302083996},{"name":"D3","midi":50,"time":499.0626164479405,"velocity":0.8031496062992126,"duration":0.40329401302085444},{"name":"B4","midi":71,"time":499.0626164479405,"velocity":0.8031496062992126,"duration":0.20059126302083996},{"name":"C#5","midi":73,"time":499.2653191979405,"velocity":0.8031496062992126,"duration":0.20059126302083996},{"name":"G#3","midi":56,"time":499.46802194794054,"velocity":0.8031496062992126,"duration":0.20059126302083996},{"name":"D5","midi":74,"time":499.46802194794054,"velocity":0.8031496062992126,"duration":0.464527135416688},{"name":"F#3","midi":54,"time":499.67072469794056,"velocity":0.8031496062992126,"duration":0.20059126302083996},{"name":"E3","midi":52,"time":499.87342744794057,"velocity":0.8031496062992126,"duration":0.20059126302083996},{"name":"D3","midi":50,"time":500.0761301979406,"velocity":0.8031496062992126,"duration":0.20059126302083996},{"name":"F#5","midi":78,"time":500.0761301979406,"velocity":0.8031496062992126,"duration":0.20059126302083996},{"name":"C#3","midi":49,"time":500.2788329479406,"velocity":0.8031496062992126,"duration":0.20059126302083996},{"name":"E5","midi":76,"time":500.2788329479406,"velocity":0.8031496062992126,"duration":0.20059126302083996},{"name":"B2","midi":47,"time":500.4815356979406,"velocity":0.8031496062992126,"duration":0.20059126302083996},{"name":"D5","midi":74,"time":500.4815356979406,"velocity":0.8031496062992126,"duration":0.20059126302083996},{"name":"A2","midi":45,"time":500.68423844794063,"velocity":0.8031496062992126,"duration":0.40329401302085444},{"name":"C#5","midi":73,"time":500.68423844794063,"velocity":0.8031496062992126,"duration":0.20059126302083996},{"name":"B4","midi":71,"time":500.88694119794064,"velocity":0.8031496062992126,"duration":0.20059126302083996},{"name":"C#3","midi":49,"time":501.08964394794066,"velocity":0.8031496062992126,"duration":0.40329401302085444},{"name":"A4","midi":69,"time":501.08964394794066,"velocity":0.8031496062992126,"duration":0.20059126302083996},{"name":"B4","midi":71,"time":501.2923466979407,"velocity":0.8031496062992126,"duration":0.20059126302083996},{"name":"E3","midi":52,"time":501.4950494479407,"velocity":0.8031496062992126,"duration":0.40329401302085444},{"name":"C#5","midi":73,"time":501.4950494479407,"velocity":0.8031496062992126,"duration":0.20059126302083996},{"name":"D#5","midi":75,"time":501.6977521979407,"velocity":0.8031496062992126,"duration":0.20059126302083996},{"name":"A#2","midi":46,"time":501.9004549479407,"velocity":0.8031496062992126,"duration":0.40329401302085444},{"name":"E5","midi":76,"time":501.9004549479407,"velocity":0.8031496062992126,"duration":0.20059126302083996},{"name":"D#5","midi":75,"time":502.10315769794073,"velocity":0.8031496062992126,"duration":0.20059126302083996},{"name":"C#3","midi":49,"time":502.30586044794074,"velocity":0.8031496062992126,"duration":0.40329401302085444},{"name":"E5","midi":76,"time":502.30586044794074,"velocity":0.8031496062992126,"duration":0.20059126302083996},{"name":"G#5","midi":80,"time":502.50856319794076,"velocity":0.8031496062992126,"duration":0.20059126302083996},{"name":"F#3","midi":54,"time":502.7112659479408,"velocity":0.8031496062992126,"duration":0.40329401302085444},{"name":"F#5","midi":78,"time":502.7112659479408,"velocity":0.8031496062992126,"duration":0.20059126302083996},{"name":"E5","midi":76,"time":502.9139686979408,"velocity":0.8031496062992126,"duration":0.20059126302083996},{"name":"B2","midi":47,"time":503.1166714479408,"velocity":0.8031496062992126,"duration":0.40329401302085444},{"name":"D#5","midi":75,"time":503.1166714479408,"velocity":0.8031496062992126,"duration":0.20059126302083996},{"name":"C#5","midi":73,"time":503.3193741979408,"velocity":0.8031496062992126,"duration":0.20059126302083996},{"name":"D#3","midi":51,"time":503.52207694794083,"velocity":0.8031496062992126,"duration":0.40329401302085444},{"name":"B4","midi":71,"time":503.52207694794083,"velocity":0.8031496062992126,"duration":0.20059126302083996},{"name":"C#5","midi":73,"time":503.72477969794085,"velocity":0.8031496062992126,"duration":0.20059126302083996},{"name":"F#3","midi":54,"time":503.92748244794086,"velocity":0.8031496062992126,"duration":0.40329401302085444},{"name":"D#5","midi":75,"time":503.92748244794086,"velocity":0.8031496062992126,"duration":0.20059126302083996},{"name":"E5","midi":76,"time":504.1301851979409,"velocity":0.8031496062992126,"duration":0.20059126302083996},{"name":"A3","midi":57,"time":504.3328879479409,"velocity":0.8031496062992126,"duration":0.40329401302085444},{"name":"F#5","midi":78,"time":504.3328879479409,"velocity":0.8031496062992126,"duration":0.20059126302083996},{"name":"E5","midi":76,"time":504.5355906979409,"velocity":0.8031496062992126,"duration":0.20059126302083996},{"name":"F#3","midi":54,"time":504.7382934479409,"velocity":0.8031496062992126,"duration":0.40329401302085444},{"name":"D#5","midi":75,"time":504.7382934479409,"velocity":0.8031496062992126,"duration":0.20059126302083996},{"name":"E5","midi":76,"time":504.94099619794093,"velocity":0.8031496062992126,"duration":0.20059126302083996},{"name":"A3","midi":57,"time":505.14369894794095,"velocity":0.8031496062992126,"duration":0.40329401302085444},{"name":"F#5","midi":78,"time":505.14369894794095,"velocity":0.8031496062992126,"duration":0.20059126302083996},{"name":"G#5","midi":80,"time":505.34640169794096,"velocity":0.8031496062992126,"duration":0.20059126302083996},{"name":"D#4","midi":63,"time":505.549104447941,"velocity":0.8031496062992126,"duration":0.20059126302083996},{"name":"A5","midi":81,"time":505.549104447941,"velocity":0.8031496062992126,"duration":1.2141050130209123},{"name":"C#4","midi":61,"time":505.751807197941,"velocity":0.8031496062992126,"duration":0.20059126302083996},{"name":"B3","midi":59,"time":505.954509947941,"velocity":0.8031496062992126,"duration":0.20059126302083996},{"name":"A3","midi":57,"time":506.157212697941,"velocity":0.8031496062992126,"duration":0.20059126302083996},{"name":"G#3","midi":56,"time":506.35991544794103,"velocity":0.8031496062992126,"duration":0.20059126302083996},{"name":"F#3","midi":54,"time":506.56261819794105,"velocity":0.8031496062992126,"duration":0.20059126302083996},{"name":"E3","midi":52,"time":506.76532094794106,"velocity":0.8031496062992126,"duration":1.3513516666667442},{"name":"B4","midi":71,"time":506.9680236979411,"velocity":0.8031496062992126,"duration":0.20059126302083996},{"name":"C#5","midi":73,"time":507.1707264479411,"velocity":0.8031496062992126,"duration":0.20059126302083996},{"name":"D#5","midi":75,"time":507.3734291979411,"velocity":0.8031496062992126,"duration":0.20059126302083996},{"name":"E5","midi":76,"time":507.5761319479411,"velocity":0.8031496062992126,"duration":0.20059126302083996},{"name":"F#5","midi":78,"time":507.77883469794114,"velocity":0.8031496062992126,"duration":0.20059126302083996},{"name":"G#5","midi":80,"time":507.98153744794115,"velocity":0.8031496062992126,"duration":1.4168077630209268},{"name":"E3","midi":52,"time":508.18424019794116,"velocity":0.8031496062992126,"duration":0.20059126302083996},{"name":"F#3","midi":54,"time":508.3869429479412,"velocity":0.8031496062992126,"duration":0.20059126302083996},{"name":"G#3","midi":56,"time":508.5896456979412,"velocity":0.8031496062992126,"duration":0.20059126302083996},{"name":"A3","midi":57,"time":508.7923484479412,"velocity":0.8031496062992126,"duration":0.20059126302083996},{"name":"B3","midi":59,"time":508.9950511979412,"velocity":0.8031496062992126,"duration":0.20059126302083996},{"name":"C#4","midi":61,"time":509.19775394794124,"velocity":0.8031496062992126,"duration":0.8023650520833598},{"name":"A4","midi":69,"time":509.40045669794125,"velocity":0.8031496062992126,"duration":0.20059126302083996},{"name":"B4","midi":71,"time":509.60315944794127,"velocity":0.8031496062992126,"duration":0.20059126302083996},{"name":"C#5","midi":73,"time":509.8058621979413,"velocity":0.8031496062992126,"duration":0.20059126302083996},{"name":"D#5","midi":75,"time":510.0085649479413,"velocity":0.8031496062992126,"duration":0.20059126302083996},{"name":"E5","midi":76,"time":510.2112676979413,"velocity":0.8031496062992126,"duration":0.20059126302083996},{"name":"D#4","midi":63,"time":510.4139704479413,"velocity":0.8031496062992126,"duration":0.8023650520833598},{"name":"F#5","midi":78,"time":510.4139704479413,"velocity":0.8031496062992126,"duration":0.20059126302083996},{"name":"E5","midi":76,"time":510.61667319794134,"velocity":0.8031496062992126,"duration":0.20059126302083996},{"name":"D#5","midi":75,"time":510.81937594794135,"velocity":0.8031496062992126,"duration":0.20059126302083996},{"name":"C#5","midi":73,"time":511.02207869794137,"velocity":0.8031496062992126,"duration":0.20059126302083996},{"name":"B4","midi":71,"time":511.2247814479414,"velocity":0.8031496062992126,"duration":0.20059126302083996},{"name":"A4","midi":69,"time":511.4274841979414,"velocity":0.8031496062992126,"duration":0.20059126302083996},{"name":"E4","midi":64,"time":511.6301869479414,"velocity":0.8031496062992126,"duration":0.40329401302085444},{"name":"G#4","midi":68,"time":511.6301869479414,"velocity":0.8031496062992126,"duration":0.20059126302083996},{"name":"E5","midi":76,"time":511.8328896979414,"velocity":0.8031496062992126,"duration":0.20059126302083996},{"name":"G#3","midi":56,"time":512.0355924479414,"velocity":0.8031496062992126,"duration":0.40329401302074075},{"name":"D#5","midi":75,"time":512.0355924479414,"velocity":0.8031496062992126,"duration":0.20059126302078312},{"name":"C#5","midi":73,"time":512.2382951979414,"velocity":0.8031496062992126,"duration":0.20059126302078312},{"name":"A3","midi":57,"time":512.4409979479414,"velocity":0.8031496062992126,"duration":0.40329401302074075},{"name":"B4","midi":71,"time":512.4409979479414,"velocity":0.8031496062992126,"duration":0.20059126302078312},{"name":"A4","midi":69,"time":512.6437006979413,"velocity":0.8031496062992126,"duration":0.20059126302078312},{"name":"B3","midi":59,"time":512.8464034479413,"velocity":0.8031496062992126,"duration":0.40329401302085444},{"name":"G#4","midi":68,"time":512.8464034479413,"velocity":0.8031496062992126,"duration":0.40329401302085444},{"name":"A3","midi":57,"time":513.2518089479413,"velocity":0.8031496062992126,"duration":0.40329401302085444},{"name":"A4","midi":69,"time":513.2518089479413,"velocity":0.8031496062992126,"duration":0.40329401302085444},{"name":"B3","midi":59,"time":513.6572144479413,"velocity":0.8031496062992126,"duration":0.40329401302085444},{"name":"F#4","midi":66,"time":513.6572144479413,"velocity":0.8031496062992126,"duration":0.40329401302085444},{"name":"E4","midi":64,"time":514.0626199479414,"velocity":0.8031496062992126,"duration":0.8171454609374678},{"name":"E3","midi":52,"time":514.0626199479414,"velocity":0.8031496062992126,"duration":0.8171454609374678},{"name":"G#4","midi":68,"time":514.2674341849205,"velocity":0.8031496062992126,"duration":0.20270274999995763},{"name":"B4","midi":71,"time":514.4743599088788,"velocity":0.8031496062992126,"duration":0.20270274999995763},{"name":"E5","midi":76,"time":514.6812856328371,"velocity":0.8031496062992126,"duration":0.20270275000007132},{"name":"B4","midi":71,"time":514.8882113567955,"velocity":0.8031496062992126,"duration":0.20270274999995763},{"name":"G#4","midi":68,"time":515.0951370807538,"velocity":0.8031496062992126,"duration":0.20270274999995763},{"name":"E4","midi":64,"time":515.3020628047121,"velocity":0.8031496062992126,"duration":0.8171454609374678},{"name":"D#3","midi":51,"time":515.3020628047121,"velocity":0.8031496062992126,"duration":0.8171454609374678},{"name":"G#4","midi":68,"time":515.5089885286704,"velocity":0.8031496062992126,"duration":0.20270274999995763},{"name":"B4","midi":71,"time":515.7159142526287,"velocity":0.8031496062992126,"duration":0.20270274999995763},{"name":"E5","midi":76,"time":515.922839976587,"velocity":0.8031496062992126,"duration":0.20270275000007132},{"name":"B4","midi":71,"time":516.1297657005455,"velocity":0.8031496062992126,"duration":0.20270274999995763},{"name":"G#4","midi":68,"time":516.3366914245038,"velocity":0.8031496062992126,"duration":0.20270274999995763},{"name":"E4","midi":64,"time":516.5436171484621,"velocity":0.8031496062992126,"duration":2.4767742265621564},{"name":"C#3","midi":49,"time":516.5436171484621,"velocity":0.8031496062992126,"duration":0.20270274999995763},{"name":"E3","midi":52,"time":516.7484313854412,"velocity":0.8031496062992126,"duration":0.20270274999995763},{"name":"G#3","midi":56,"time":516.9553571093995,"velocity":0.8031496062992126,"duration":0.20270274999995763},{"name":"C#4","midi":61,"time":517.1622828333578,"velocity":0.8031496062992126,"duration":0.20270274999995763},{"name":"G#3","midi":56,"time":517.3692085573161,"velocity":0.8031496062992126,"duration":0.20270274999995763},{"name":"E3","midi":52,"time":517.5761342812744,"velocity":0.8031496062992126,"duration":0.20270274999995763},{"name":"B2","midi":47,"time":517.7830600052328,"velocity":0.8031496062992126,"duration":0.20270274999995763},{"name":"E3","midi":52,"time":517.9899857291911,"velocity":0.8031496062992126,"duration":0.20270274999995763},{"name":"G#3","midi":56,"time":518.1969114531494,"velocity":0.8031496062992126,"duration":0.20270274999995763},{"name":"B3","midi":59,"time":518.4038371771077,"velocity":0.8031496062992126,"duration":0.20270274999995763},{"name":"G#3","midi":56,"time":518.610762901066,"velocity":0.8031496062992126,"duration":0.20270274999995763},{"name":"E3","midi":52,"time":518.8176886250243,"velocity":0.8031496062992126,"duration":0.20270274999995763},{"name":"A#3","midi":58,"time":519.0246143489826,"velocity":0.8031496062992126,"duration":0.8171454609374678},{"name":"G4","midi":67,"time":519.2315400729409,"velocity":0.8031496062992126,"duration":0.20270274999995763},{"name":"A#4","midi":70,"time":519.43635430992,"velocity":0.8031496062992126,"duration":0.20270274999995763},{"name":"C#5","midi":73,"time":519.6432800338783,"velocity":0.8031496062992126,"duration":0.20270275000007132},{"name":"A#4","midi":70,"time":519.8502057578368,"velocity":0.8031496062992126,"duration":0.20270274999995763},{"name":"G4","midi":67,"time":520.0571314817951,"velocity":0.8031496062992126,"duration":0.20270274999995763},{"name":"E4","midi":64,"time":520.2640572057534,"velocity":0.8031496062992126,"duration":0.8171454609374678},{"name":"F#3","midi":54,"time":520.2640572057534,"velocity":0.8031496062992126,"duration":0.8171454609374678},{"name":"G4","midi":67,"time":520.4709829297117,"velocity":0.8031496062992126,"duration":0.20270274999995763},{"name":"A#4","midi":70,"time":520.67790865367,"velocity":0.8031496062992126,"duration":0.20270274999995763},{"name":"C#5","midi":73,"time":520.8848343776283,"velocity":0.8031496062992126,"duration":0.20270275000007132},{"name":"A#4","midi":70,"time":521.0917601015867,"velocity":0.8031496062992126,"duration":0.20270274999995763},{"name":"G4","midi":67,"time":521.298685825545,"velocity":0.8031496062992126,"duration":0.1858108541666752},{"name":"B2","midi":47,"time":521.5056115495033,"velocity":0.8031496062992126,"duration":0.42018590885413687},{"name":"E5","midi":76,"time":521.5056115495033,"velocity":0.8031496062992126,"duration":0.20692572395830666},{"name":"D#5","midi":75,"time":521.71676024742,"velocity":0.8031496062992126,"duration":0.20692572395830666},{"name":"E3","midi":52,"time":521.9300204323158,"velocity":0.8031496062992126,"duration":0.42018590885413687},{"name":"C#5","midi":73,"time":521.9300204323158,"velocity":0.8031496062992126,"duration":0.20692572395830666},{"name":"B4","midi":71,"time":522.1432806172116,"velocity":0.8031496062992126,"duration":0.20692572395830666},{"name":"A5","midi":81,"time":522.3565408021075,"velocity":0.8031496062992126,"duration":0.2111486979166557},{"name":"C#3","midi":49,"time":522.3565408021075,"velocity":0.8031496062992126,"duration":0.43285483072918396},{"name":"G#5","midi":80,"time":522.5740239609617,"velocity":0.8031496062992126,"duration":0.2111486979166557},{"name":"F#5","midi":78,"time":522.793618606795,"velocity":0.8031496062992126,"duration":0.2111486979166557},{"name":"G#2","midi":44,"time":522.793618606795,"velocity":0.8031496062992126,"duration":0.43285483072918396},{"name":"E5","midi":76,"time":523.0132132526284,"velocity":0.8031496062992126,"duration":0.2111486979166557},{"name":"A2","midi":45,"time":523.2328078984617,"velocity":0.8031496062992126,"duration":0.44552375260423105},{"name":"B5","midi":83,"time":523.2328078984617,"velocity":0.8031496062992126,"duration":0.21748315885417924},{"name":"A5","midi":81,"time":523.4566255182534,"velocity":0.8031496062992126,"duration":0.21748315885417924},{"name":"B2","midi":47,"time":523.6825546250243,"velocity":0.8031496062992126,"duration":0.44552375260423105},{"name":"G#5","midi":80,"time":523.6825546250243,"velocity":0.8031496062992126,"duration":0.21748315885417924},{"name":"F#5","midi":78,"time":523.9084837317952,"velocity":0.8031496062992126,"duration":0.21748315885417924},{"name":"E5","midi":76,"time":524.1428587864827,"velocity":0.8031496062992126,"duration":2.5337843749998683},{"name":"E2","midi":40,"time":524.1428587864827,"velocity":0.8031496062992126,"duration":0.44552375260411736},{"name":"G#2","midi":44,"time":524.615831869816,"velocity":0.8031496062992126,"duration":0.44552375260411736},{"name":"B2","midi":47,"time":525.1014738750243,"velocity":0.8031496062992126,"duration":0.44552375260411736},{"name":"E3","midi":52,"time":525.6314571067951,"velocity":0.8031496062992126,"duration":1.435811145833327}],"controlChanges":{"7":[{"number":7,"time":0,"value":0.7874015748031497}]},"id":1,"name":"Ger.8l","instrumentNumber":7,"instrument":"clavi","instrumentFamily":"piano","channelNumber":0,"isPercussion":false}]}