{"header":{"PPQ":240,"timeSignature":[4,4],"bpm":94.99999208333399,"name":"--------"},"startTime":0,"duration":64.42105799999996,"tracks":[{"startTime":0,"duration":0,"length":0,"notes":[],"controlChanges":{},"id":0,"name":"--------"},{"startTime":0.15789475,"duration":64.4210579999996,"length":301,"notes":[{"name":"E4","midi":64,"time":0.15789475,"velocity":0.7637795275590551,"duration":0.15789475},{"name":"A4","midi":69,"time":0.3157895,"velocity":0.7637795275590551,"duration":0.15789475000000003},{"name":"C5","midi":72,"time":0.47368425000000003,"velocity":0.7637795275590551,"duration":0.15789474999999997},{"name":"B4","midi":71,"time":0.631579,"velocity":0.7637795275590551,"duration":0.15789474999999997},{"name":"E4","midi":64,"time":0.78947375,"velocity":0.7637795275590551,"duration":0.15789474999999997},{"name":"B4","midi":71,"time":0.9473685,"velocity":0.7637795275590551,"duration":0.15789474999999997},{"name":"D5","midi":74,"time":1.10526325,"velocity":0.7637795275590551,"duration":0.15789475000000008},{"name":"C5","midi":72,"time":1.263158,"velocity":0.7637795275590551,"duration":0.25263159999999996},{"name":"E5","midi":76,"time":1.5789475,"velocity":0.7637795275590551,"duration":0.25263159999999996},{"name":"G#4","midi":68,"time":1.894737,"velocity":0.7637795275590551,"duration":0.2526316000000002},{"name":"E5","midi":76,"time":2.2105265000000003,"velocity":0.7637795275590551,"duration":0.25263159999999996},{"name":"A4","midi":69,"time":2.5263160000000005,"velocity":0.7637795275590551,"duration":0.15789475000000008},{"name":"E4","midi":64,"time":2.6842107500000005,"velocity":0.7637795275590551,"duration":0.15789475000000008},{"name":"A4","midi":69,"time":2.8421055000000006,"velocity":0.7637795275590551,"duration":0.15789475000000008},{"name":"C5","midi":72,"time":3.0000002500000007,"velocity":0.7637795275590551,"duration":0.15789475000000008},{"name":"B4","midi":71,"time":3.157895000000001,"velocity":0.7637795275590551,"duration":0.15789475000000008},{"name":"E4","midi":64,"time":3.315789750000001,"velocity":0.7637795275590551,"duration":0.15789475000000008},{"name":"B4","midi":71,"time":3.473684500000001,"velocity":0.7637795275590551,"duration":0.15789475000000008},{"name":"D5","midi":74,"time":3.631579250000001,"velocity":0.7637795275590551,"duration":0.15789475000000008},{"name":"C5","midi":72,"time":3.789474000000001,"velocity":0.7637795275590551,"duration":0.25263159999999996},{"name":"A4","midi":69,"time":4.105263500000001,"velocity":0.7637795275590551,"duration":0.5052631999999999},{"name":"E5","midi":76,"time":5.210526750000001,"velocity":0.7637795275590551,"duration":0.15789474999999964},{"name":"C5","midi":72,"time":5.368421500000001,"velocity":0.7637795275590551,"duration":0.15789474999999964},{"name":"E5","midi":76,"time":5.526316250000001,"velocity":0.7637795275590551,"duration":0.15789474999999964},{"name":"A4","midi":69,"time":5.684211,"velocity":0.7637795275590551,"duration":0.15789474999999964},{"name":"C5","midi":72,"time":5.84210575,"velocity":0.7637795275590551,"duration":0.15789474999999964},{"name":"E4","midi":64,"time":6.0000005,"velocity":0.7637795275590551,"duration":0.15789474999999964},{"name":"G4","midi":67,"time":6.157895249999999,"velocity":0.7637795275590551,"duration":0.15789474999999964},{"name":"F4","midi":65,"time":6.315789999999999,"velocity":0.7637795275590551,"duration":0.25263159999999996},{"name":"A4","midi":69,"time":6.631579499999999,"velocity":0.7637795275590551,"duration":0.25263159999999996},{"name":"D5","midi":74,"time":6.947368999999999,"velocity":0.7637795275590551,"duration":0.25263159999999996},{"name":"F5","midi":77,"time":7.263158499999999,"velocity":0.7637795275590551,"duration":0.4736842499999998},{"name":"D5","midi":74,"time":7.736842749999999,"velocity":0.7637795275590551,"duration":0.15789474999999964},{"name":"B4","midi":71,"time":7.894737499999999,"velocity":0.7637795275590551,"duration":0.15789474999999964},{"name":"D5","midi":74,"time":8.052632249999998,"velocity":0.7637795275590551,"duration":0.15789475000000053},{"name":"G4","midi":67,"time":8.210526999999999,"velocity":0.7637795275590551,"duration":0.15789475000000053},{"name":"B4","midi":71,"time":8.36842175,"velocity":0.7637795275590551,"duration":0.15789475000000053},{"name":"D4","midi":62,"time":8.5263165,"velocity":0.7637795275590551,"duration":0.15789475000000053},{"name":"F4","midi":65,"time":8.68421125,"velocity":0.7637795275590551,"duration":0.15789475000000053},{"name":"E4","midi":64,"time":8.842106000000001,"velocity":0.7637795275590551,"duration":0.25263160000000084},{"name":"G4","midi":67,"time":9.157895500000002,"velocity":0.7637795275590551,"duration":0.25263160000000084},{"name":"C5","midi":72,"time":9.473685000000003,"velocity":0.7637795275590551,"duration":0.25263160000000084},{"name":"E5","midi":76,"time":9.789474500000004,"velocity":0.7637795275590551,"duration":0.4736842499999998},{"name":"C5","midi":72,"time":10.263158750000004,"velocity":0.7637795275590551,"duration":0.15789475000000053},{"name":"A4","midi":69,"time":10.421053500000005,"velocity":0.7637795275590551,"duration":0.15789475000000053},{"name":"C5","midi":72,"time":10.578948250000005,"velocity":0.7637795275590551,"duration":0.15789475000000053},{"name":"F4","midi":65,"time":10.736843000000006,"velocity":0.7637795275590551,"duration":0.3157894999999993},{"name":"D5","midi":74,"time":11.052632500000005,"velocity":0.7637795275590551,"duration":0.4736842499999998},{"name":"B4","midi":71,"time":11.526316750000005,"velocity":0.7637795275590551,"duration":0.15789475000000053},{"name":"G4","midi":67,"time":11.684211500000005,"velocity":0.7637795275590551,"duration":0.15789475000000053},{"name":"B4","midi":71,"time":11.842106250000006,"velocity":0.7637795275590551,"duration":0.15789475000000053},{"name":"E4","midi":64,"time":12.000001000000006,"velocity":0.7637795275590551,"duration":0.3157894999999993},{"name":"C5","midi":72,"time":12.315790500000006,"velocity":0.7637795275590551,"duration":0.4736842499999998},{"name":"A4","midi":69,"time":12.789474750000005,"velocity":0.7637795275590551,"duration":0.15789475000000053},{"name":"F4","midi":65,"time":12.947369500000006,"velocity":0.7637795275590551,"duration":0.15789475000000053},{"name":"A4","midi":69,"time":13.105264250000006,"velocity":0.7637795275590551,"duration":0.15789475000000053},{"name":"D4","midi":62,"time":13.263159000000007,"velocity":0.7637795275590551,"duration":0.3157894999999993},{"name":"B4","midi":71,"time":13.578948500000006,"velocity":0.7637795275590551,"duration":0.3157894999999993},{"name":"C5","midi":72,"time":13.894738000000006,"velocity":0.7637795275590551,"duration":0.3157894999999993},{"name":"G4","midi":67,"time":15.315790750000005,"velocity":0.7637795275590551,"duration":0.15789475000000053},{"name":"C5","midi":72,"time":15.473685500000006,"velocity":0.7637795275590551,"duration":0.15789475000000053},{"name":"E5","midi":76,"time":15.631580250000006,"velocity":0.7637795275590551,"duration":0.15789475000000053},{"name":"D5","midi":74,"time":15.789475000000007,"velocity":0.7637795275590551,"duration":0.15789475000000053},{"name":"G4","midi":67,"time":15.947369750000007,"velocity":0.7637795275590551,"duration":0.15789475000000053},{"name":"D5","midi":74,"time":16.105264500000008,"velocity":0.7637795275590551,"duration":0.15789475000000053},{"name":"F5","midi":77,"time":16.263159250000008,"velocity":0.7637795275590551,"duration":0.15789475000000053},{"name":"E5","midi":76,"time":16.42105400000001,"velocity":0.7637795275590551,"duration":0.25263160000000084},{"name":"G5","midi":79,"time":16.73684350000001,"velocity":0.7637795275590551,"duration":0.25263160000000084},{"name":"B4","midi":71,"time":17.05263300000001,"velocity":0.7637795275590551,"duration":0.25263160000000084},{"name":"G5","midi":79,"time":17.368422500000012,"velocity":0.7637795275590551,"duration":0.25263160000000084},{"name":"C5","midi":72,"time":17.684212000000013,"velocity":0.7637795275590551,"duration":0.15789475000000053},{"name":"G4","midi":67,"time":17.842106750000013,"velocity":0.7637795275590551,"duration":0.15789475000000053},{"name":"C5","midi":72,"time":18.000001500000014,"velocity":0.7637795275590551,"duration":0.15789475000000053},{"name":"E5","midi":76,"time":18.157896250000015,"velocity":0.7637795275590551,"duration":0.15789475000000053},{"name":"D5","midi":74,"time":18.315791000000015,"velocity":0.7637795275590551,"duration":0.15789475000000053},{"name":"G4","midi":67,"time":18.473685750000016,"velocity":0.7637795275590551,"duration":0.15789475000000053},{"name":"D5","midi":74,"time":18.631580500000016,"velocity":0.7637795275590551,"duration":0.15789475000000053},{"name":"F5","midi":77,"time":18.789475250000017,"velocity":0.7637795275590551,"duration":0.15789475000000053},{"name":"E5","midi":76,"time":18.947370000000017,"velocity":0.7637795275590551,"duration":0.25263160000000084},{"name":"C5","midi":72,"time":19.263159500000018,"velocity":0.7637795275590551,"duration":0.25263160000000084},{"name":"G5","midi":79,"time":19.57894900000002,"velocity":0.7637795275590551,"duration":0.25263160000000084},{"name":"E5","midi":76,"time":19.89473850000002,"velocity":0.7637795275590551,"duration":0.25263160000000084},{"name":"C6","midi":84,"time":20.21052800000002,"velocity":0.7637795275590551,"duration":0.15789475000000053},{"name":"A5","midi":81,"time":20.368422750000022,"velocity":0.7637795275590551,"duration":0.15789475000000053},{"name":"E5","midi":76,"time":20.526317500000022,"velocity":0.7637795275590551,"duration":0.15789475000000053},{"name":"A5","midi":81,"time":20.684212250000023,"velocity":0.7637795275590551,"duration":0.15789475000000053},{"name":"C5","midi":72,"time":20.842107000000023,"velocity":0.7637795275590551,"duration":0.15789475000000053},{"name":"E5","midi":76,"time":21.000001750000024,"velocity":0.7637795275590551,"duration":0.15789475000000053},{"name":"A4","midi":69,"time":21.157896500000025,"velocity":0.7637795275590551,"duration":0.15789475000000053},{"name":"C5","midi":72,"time":21.315791250000025,"velocity":0.7637795275590551,"duration":0.15789475000000053},{"name":"D5","midi":74,"time":21.473686000000026,"velocity":0.7637795275590551,"duration":0.25263160000000084},{"name":"F#5","midi":78,"time":21.789475500000027,"velocity":0.7637795275590551,"duration":0.25263160000000084},{"name":"A5","midi":81,"time":22.105265000000028,"velocity":0.7637795275590551,"duration":0.25263160000000084},{"name":"C6","midi":84,"time":22.42105450000003,"velocity":0.7637795275590551,"duration":0.25263160000000084},{"name":"B5","midi":83,"time":22.73684400000003,"velocity":0.7637795275590551,"duration":0.15789475000000053},{"name":"G5","midi":79,"time":22.89473875000003,"velocity":0.7637795275590551,"duration":0.15789475000000053},{"name":"D5","midi":74,"time":23.05263350000003,"velocity":0.7637795275590551,"duration":0.15789475000000053},{"name":"G5","midi":79,"time":23.21052825000003,"velocity":0.7637795275590551,"duration":0.15789475000000053},{"name":"B4","midi":71,"time":23.368423000000032,"velocity":0.7637795275590551,"duration":0.15789475000000053},{"name":"D5","midi":74,"time":23.526317750000032,"velocity":0.7637795275590551,"duration":0.15789475000000053},{"name":"G4","midi":67,"time":23.684212500000033,"velocity":0.7637795275590551,"duration":0.15789475000000053},{"name":"B4","midi":71,"time":23.842107250000034,"velocity":0.7637795275590551,"duration":0.15789475000000053},{"name":"C5","midi":72,"time":24.000002000000034,"velocity":0.7637795275590551,"duration":0.25263160000000084},{"name":"E5","midi":76,"time":24.315791500000035,"velocity":0.7637795275590551,"duration":0.25263160000000084},{"name":"G5","midi":79,"time":24.631581000000036,"velocity":0.7637795275590551,"duration":0.25263160000000084},{"name":"B5","midi":83,"time":24.947370500000037,"velocity":0.7637795275590551,"duration":0.25263160000000084},{"name":"A5","midi":81,"time":25.26316000000004,"velocity":0.7637795275590551,"duration":0.15789475000000053},{"name":"F#5","midi":78,"time":25.42105475000004,"velocity":0.7637795275590551,"duration":0.15789475000000053},{"name":"D#5","midi":75,"time":25.57894950000004,"velocity":0.7637795275590551,"duration":0.15789475000000053},{"name":"F#5","midi":78,"time":25.73684425000004,"velocity":0.7637795275590551,"duration":0.15789475000000053},{"name":"B4","midi":71,"time":25.89473900000004,"velocity":0.7637795275590551,"duration":0.15789475000000053},{"name":"D#5","midi":75,"time":26.05263375000004,"velocity":0.7637795275590551,"duration":0.15789475000000053},{"name":"F#4","midi":66,"time":26.21052850000004,"velocity":0.7637795275590551,"duration":0.15789475000000053},{"name":"A4","midi":69,"time":26.368423250000042,"velocity":0.7637795275590551,"duration":0.15789475000000053},{"name":"G4","midi":67,"time":26.526318000000042,"velocity":0.7637795275590551,"duration":0.31578950000000106},{"name":"G5","midi":79,"time":26.842107500000044,"velocity":0.7637795275590551,"duration":0.4736842500000016},{"name":"E5","midi":76,"time":27.315791750000045,"velocity":0.7637795275590551,"duration":0.15789475000000053},{"name":"C5","midi":72,"time":27.473686500000046,"velocity":0.7637795275590551,"duration":0.15789475000000053},{"name":"E5","midi":76,"time":27.631581250000046,"velocity":0.7637795275590551,"duration":0.15789475000000053},{"name":"A4","midi":69,"time":27.789476000000047,"velocity":0.7637795275590551,"duration":0.31578950000000106},{"name":"F#5","midi":78,"time":28.105265500000048,"velocity":0.7637795275590551,"duration":0.4736842500000016},{"name":"D5","midi":74,"time":28.57894975000005,"velocity":0.7637795275590551,"duration":0.15789475000000053},{"name":"B4","midi":71,"time":28.73684450000005,"velocity":0.7637795275590551,"duration":0.15789475000000053},{"name":"D5","midi":74,"time":28.89473925000005,"velocity":0.7637795275590551,"duration":0.15789475000000053},{"name":"G4","midi":67,"time":29.05263400000005,"velocity":0.7637795275590551,"duration":0.31578950000000106},{"name":"E5","midi":76,"time":29.368423500000052,"velocity":0.7637795275590551,"duration":0.4736842500000016},{"name":"C5","midi":72,"time":29.842107750000054,"velocity":0.7637795275590551,"duration":0.15789475000000053},{"name":"A4","midi":69,"time":30.000002500000054,"velocity":0.7637795275590551,"duration":0.15789475000000053},{"name":"C5","midi":72,"time":30.157897250000055,"velocity":0.7637795275590551,"duration":0.15789475000000053},{"name":"F#4","midi":66,"time":30.315792000000055,"velocity":0.7637795275590551,"duration":0.15789475000000053},{"name":"G5","midi":79,"time":30.473686750000056,"velocity":0.7637795275590551,"duration":0.15789475000000053},{"name":"F#5","midi":78,"time":30.631581500000056,"velocity":0.7637795275590551,"duration":0.15789475000000053},{"name":"E5","midi":76,"time":30.789476250000057,"velocity":0.7637795275590551,"duration":0.15789475000000053},{"name":"D#5","midi":75,"time":30.947371000000057,"velocity":0.7637795275590551,"duration":0.15789475000000053},{"name":"F#5","midi":78,"time":31.105265750000058,"velocity":0.7637795275590551,"duration":0.15789475000000053},{"name":"B4","midi":71,"time":31.26316050000006,"velocity":0.7637795275590551,"duration":0.15789475000000053},{"name":"D#5","midi":75,"time":31.42105525000006,"velocity":0.7637795275590551,"duration":0.15789475000000053},{"name":"E5","midi":76,"time":31.57895000000006,"velocity":0.7637795275590551,"duration":0.31578950000000106},{"name":"G5","midi":79,"time":33.00000275000006,"velocity":0.7637795275590551,"duration":0.15789474999999698},{"name":"A#5","midi":82,"time":33.157897500000054,"velocity":0.7637795275590551,"duration":0.15789474999999698},{"name":"G5","midi":79,"time":33.31579225000005,"velocity":0.7637795275590551,"duration":0.15789474999999698},{"name":"E5","midi":76,"time":33.47368700000005,"velocity":0.7637795275590551,"duration":0.15789474999999698},{"name":"G5","midi":79,"time":33.631581750000045,"velocity":0.7637795275590551,"duration":0.15789474999999698},{"name":"C#5","midi":73,"time":33.78947650000004,"velocity":0.7637795275590551,"duration":0.15789474999999698},{"name":"E5","midi":76,"time":33.94737125000004,"velocity":0.7637795275590551,"duration":0.15789474999999698},{"name":"G5","midi":79,"time":34.105266000000036,"velocity":0.7637795275590551,"duration":0.15789474999999698},{"name":"E5","midi":76,"time":34.26316075000003,"velocity":0.7637795275590551,"duration":0.15789474999999698},{"name":"C#5","midi":73,"time":34.42105550000003,"velocity":0.7637795275590551,"duration":0.15789474999999698},{"name":"E5","midi":76,"time":34.57895025000003,"velocity":0.7637795275590551,"duration":0.15789474999999698},{"name":"A4","midi":69,"time":34.736845000000024,"velocity":0.7637795275590551,"duration":0.25263160000000084},{"name":"F5","midi":77,"time":35.52631875000002,"velocity":0.7637795275590551,"duration":0.15789474999999698},{"name":"A5","midi":81,"time":35.68421350000002,"velocity":0.7637795275590551,"duration":0.15789474999999698},{"name":"F5","midi":77,"time":35.84210825000002,"velocity":0.7637795275590551,"duration":0.15789474999999698},{"name":"D5","midi":74,"time":36.000003000000014,"velocity":0.7637795275590551,"duration":0.15789474999999698},{"name":"F5","midi":77,"time":36.15789775000001,"velocity":0.7637795275590551,"duration":0.15789474999999698},{"name":"B4","midi":71,"time":36.31579250000001,"velocity":0.7637795275590551,"duration":0.15789474999999698},{"name":"D5","midi":74,"time":36.473687250000005,"velocity":0.7637795275590551,"duration":0.15789474999999698},{"name":"F5","midi":77,"time":36.631582,"velocity":0.7637795275590551,"duration":0.15789474999999698},{"name":"D5","midi":74,"time":36.78947675,"velocity":0.7637795275590551,"duration":0.15789474999999698},{"name":"B4","midi":71,"time":36.947371499999996,"velocity":0.7637795275590551,"duration":0.15789474999999698},{"name":"D5","midi":74,"time":37.10526624999999,"velocity":0.7637795275590551,"duration":0.15789474999999698},{"name":"G4","midi":67,"time":37.26316099999999,"velocity":0.7637795275590551,"duration":0.25263160000000084},{"name":"E5","midi":76,"time":38.05263474999999,"velocity":0.7637795275590551,"duration":0.15789474999999698},{"name":"G5","midi":79,"time":38.210529499999986,"velocity":0.7637795275590551,"duration":0.15789474999999698},{"name":"E5","midi":76,"time":38.36842424999998,"velocity":0.7637795275590551,"duration":0.15789474999999698},{"name":"C5","midi":72,"time":38.52631899999998,"velocity":0.7637795275590551,"duration":0.15789474999999698},{"name":"E5","midi":76,"time":38.68421374999998,"velocity":0.7637795275590551,"duration":0.15789474999999698},{"name":"A4","midi":69,"time":38.84210849999997,"velocity":0.7637795275590551,"duration":0.15789474999999698},{"name":"C5","midi":72,"time":39.00000324999997,"velocity":0.7637795275590551,"duration":0.15789474999999698},{"name":"D#5","midi":75,"time":39.15789799999997,"velocity":0.7637795275590551,"duration":0.15789474999999698},{"name":"C5","midi":72,"time":39.315792749999964,"velocity":0.7637795275590551,"duration":0.15789474999999698},{"name":"A4","midi":69,"time":39.47368749999996,"velocity":0.7637795275590551,"duration":0.15789474999999698},{"name":"C5","midi":72,"time":39.63158224999996,"velocity":0.7637795275590551,"duration":0.15789474999999698},{"name":"F#4","midi":66,"time":39.789476999999955,"velocity":0.7637795275590551,"duration":0.25263160000000084},{"name":"D5","midi":74,"time":40.578950749999954,"velocity":0.7637795275590551,"duration":0.15789474999999698},{"name":"F5","midi":77,"time":40.73684549999995,"velocity":0.7637795275590551,"duration":0.15789474999999698},{"name":"D5","midi":74,"time":40.89474024999995,"velocity":0.7637795275590551,"duration":0.15789474999999698},{"name":"B4","midi":71,"time":41.052634999999945,"velocity":0.7637795275590551,"duration":0.15789474999999698},{"name":"D5","midi":74,"time":41.21052974999994,"velocity":0.7637795275590551,"duration":0.15789474999999698},{"name":"G#4","midi":68,"time":41.36842449999994,"velocity":0.7637795275590551,"duration":0.15789474999999698},{"name":"B4","midi":71,"time":41.526319249999936,"velocity":0.7637795275590551,"duration":0.15789474999999698},{"name":"D5","midi":74,"time":41.68421399999993,"velocity":0.7637795275590551,"duration":0.15789474999999698},{"name":"B4","midi":71,"time":41.84210874999993,"velocity":0.7637795275590551,"duration":0.15789474999999698},{"name":"G#4","midi":68,"time":42.00000349999993,"velocity":0.7637795275590551,"duration":0.15789474999999698},{"name":"B4","midi":71,"time":42.157898249999924,"velocity":0.7637795275590551,"duration":0.15789474999999698},{"name":"E4","midi":64,"time":42.31579299999992,"velocity":0.7637795275590551,"duration":0.25263160000000084},{"name":"E4","midi":64,"time":43.10526674999992,"velocity":0.7637795275590551,"duration":0.15789474999999698},{"name":"A4","midi":69,"time":43.26316149999992,"velocity":0.7637795275590551,"duration":0.15789474999999698},{"name":"C5","midi":72,"time":43.421056249999914,"velocity":0.7637795275590551,"duration":0.15789474999999698},{"name":"B4","midi":71,"time":43.57895099999991,"velocity":0.7637795275590551,"duration":0.15789474999999698},{"name":"E4","midi":64,"time":43.73684574999991,"velocity":0.7637795275590551,"duration":0.15789474999999698},{"name":"B4","midi":71,"time":43.894740499999905,"velocity":0.7637795275590551,"duration":0.15789474999999698},{"name":"D5","midi":74,"time":44.0526352499999,"velocity":0.7637795275590551,"duration":0.15789474999999698},{"name":"C5","midi":72,"time":44.2105299999999,"velocity":0.7637795275590551,"duration":0.25263160000000084},{"name":"A4","midi":69,"time":44.5263194999999,"velocity":0.7637795275590551,"duration":0.25263160000000084},{"name":"G#4","midi":68,"time":44.8421089999999,"velocity":0.7637795275590551,"duration":0.25263160000000084},{"name":"E4","midi":64,"time":45.1578984999999,"velocity":0.7637795275590551,"duration":0.25263160000000084},{"name":"A4","midi":69,"time":45.4736879999999,"velocity":0.7637795275590551,"duration":0.15789474999999698},{"name":"C5","midi":72,"time":45.6315827499999,"velocity":0.7637795275590551,"duration":0.15789474999999698},{"name":"E5","midi":76,"time":45.7894774999999,"velocity":0.7637795275590551,"duration":0.15789474999999698},{"name":"C5","midi":72,"time":45.947372249999894,"velocity":0.7637795275590551,"duration":0.15789474999999698},{"name":"A4","midi":69,"time":46.10526699999989,"velocity":0.7637795275590551,"duration":0.15789474999999698},{"name":"C5","midi":72,"time":46.26316174999989,"velocity":0.7637795275590551,"duration":0.15789474999999698},{"name":"F#4","midi":66,"time":46.421056499999885,"velocity":0.7637795275590551,"duration":0.15789474999999698},{"name":"A4","midi":69,"time":46.57895124999988,"velocity":0.7637795275590551,"duration":0.15789474999999698},{"name":"C5","midi":72,"time":46.73684599999988,"velocity":0.7637795275590551,"duration":0.15789474999999698},{"name":"A4","midi":69,"time":46.894740749999876,"velocity":0.7637795275590551,"duration":0.15789474999999698},{"name":"F#4","midi":66,"time":47.05263549999987,"velocity":0.7637795275590551,"duration":0.15789474999999698},{"name":"A4","midi":69,"time":47.21053024999987,"velocity":0.7637795275590551,"duration":0.15789474999999698},{"name":"D#4","midi":63,"time":47.36842499999987,"velocity":0.7637795275590551,"duration":0.15789474999999698},{"name":"C5","midi":72,"time":47.526319749999864,"velocity":0.7637795275590551,"duration":0.15789474999999698},{"name":"B4","midi":71,"time":47.68421449999986,"velocity":0.7637795275590551,"duration":0.15789474999999698},{"name":"A4","midi":69,"time":47.84210924999986,"velocity":0.7637795275590551,"duration":0.15789474999999698},{"name":"G#4","midi":68,"time":48.000003999999855,"velocity":0.7637795275590551,"duration":0.15789474999999698},{"name":"B4","midi":71,"time":48.15789874999985,"velocity":0.7637795275590551,"duration":0.15789474999999698},{"name":"D5","midi":74,"time":48.31579349999985,"velocity":0.7637795275590551,"duration":0.15789474999999698},{"name":"B4","midi":71,"time":48.473688249999846,"velocity":0.7637795275590551,"duration":0.15789474999999698},{"name":"G#4","midi":68,"time":48.63158299999984,"velocity":0.7637795275590551,"duration":0.15789474999999698},{"name":"B4","midi":71,"time":48.78947774999984,"velocity":0.7637795275590551,"duration":0.15789474999999698},{"name":"D4","midi":62,"time":48.94737249999984,"velocity":0.7637795275590551,"duration":0.15789474999999698},{"name":"F4","midi":65,"time":49.105267249999834,"velocity":0.7637795275590551,"duration":0.15789474999999698},{"name":"G#4","midi":68,"time":49.26316199999983,"velocity":0.7637795275590551,"duration":0.15789474999999698},{"name":"F4","midi":65,"time":49.42105674999983,"velocity":0.7637795275590551,"duration":0.15789474999999698},{"name":"D4","midi":62,"time":49.578951499999825,"velocity":0.7637795275590551,"duration":0.15789474999999698},{"name":"F4","midi":65,"time":49.73684624999982,"velocity":0.7637795275590551,"duration":0.15789474999999698},{"name":"B3","midi":59,"time":49.89474099999982,"velocity":0.7637795275590551,"duration":0.15789474999999698},{"name":"F4","midi":65,"time":50.052635749999816,"velocity":0.7637795275590551,"duration":0.15789474999999698},{"name":"E4","midi":64,"time":50.21053049999981,"velocity":0.7637795275590551,"duration":0.15789474999999698},{"name":"D4","midi":62,"time":50.36842524999981,"velocity":0.7637795275590551,"duration":0.15789474999999698},{"name":"C4","midi":60,"time":50.52631999999981,"velocity":0.7637795275590551,"duration":0.15789474999999698},{"name":"E4","midi":64,"time":50.6842147499998,"velocity":0.7637795275590551,"duration":0.15789474999999698},{"name":"A4","midi":69,"time":50.8421094999998,"velocity":0.7637795275590551,"duration":0.15789474999999698},{"name":"E4","midi":64,"time":51.0000042499998,"velocity":0.7637795275590551,"duration":0.15789474999999698},{"name":"C4","midi":60,"time":51.157898999999794,"velocity":0.7637795275590551,"duration":0.15789474999999698},{"name":"E4","midi":64,"time":51.31579374999979,"velocity":0.7637795275590551,"duration":0.15789474999999698},{"name":"A3","midi":57,"time":51.47368849999979,"velocity":0.7637795275590551,"duration":0.15789474999999698},{"name":"C4","midi":60,"time":51.631583249999785,"velocity":0.7637795275590551,"duration":0.15789474999999698},{"name":"D#4","midi":63,"time":51.78947799999978,"velocity":0.7637795275590551,"duration":0.15789474999999698},{"name":"C4","midi":60,"time":51.94737274999978,"velocity":0.7637795275590551,"duration":0.15789474999999698},{"name":"A3","midi":57,"time":52.105267499999776,"velocity":0.7637795275590551,"duration":0.15789474999999698},{"name":"C4","midi":60,"time":52.26316224999977,"velocity":0.7637795275590551,"duration":0.15789474999999698},{"name":"F#3","midi":54,"time":52.42105699999977,"velocity":0.7637795275590551,"duration":0.15789474999999698},{"name":"C4","midi":60,"time":52.57895174999977,"velocity":0.7637795275590551,"duration":0.15789474999999698},{"name":"B3","midi":59,"time":52.736846499999764,"velocity":0.7637795275590551,"duration":0.15789474999999698},{"name":"A3","midi":57,"time":52.89474124999976,"velocity":0.7637795275590551,"duration":0.15789474999999698},{"name":"G#3","midi":56,"time":53.05263599999976,"velocity":0.7637795275590551,"duration":0.31578950000000106},{"name":"B4","midi":71,"time":53.36842549999976,"velocity":0.7637795275590551,"duration":0.31578950000000106},{"name":"G#4","midi":68,"time":53.68421499999976,"velocity":0.7637795275590551,"duration":0.25263160000000084},{"name":"E4","midi":64,"time":54.00000449999976,"velocity":0.7637795275590551,"duration":0.25263160000000084},{"name":"E4","midi":64,"time":54.47368874999976,"velocity":0.7637795275590551,"duration":0.15789474999999698},{"name":"A4","midi":69,"time":54.631583499999756,"velocity":0.7637795275590551,"duration":0.15789474999999698},{"name":"C5","midi":72,"time":54.78947824999975,"velocity":0.7637795275590551,"duration":0.15789474999999698},{"name":"B4","midi":71,"time":54.94737299999975,"velocity":0.7637795275590551,"duration":0.15789474999999698},{"name":"E4","midi":64,"time":55.10526774999975,"velocity":0.7637795275590551,"duration":0.15789474999999698},{"name":"B4","midi":71,"time":55.263162499999744,"velocity":0.7637795275590551,"duration":0.15789474999999698},{"name":"D5","midi":74,"time":55.42105724999974,"velocity":0.7637795275590551,"duration":0.15789474999999698},{"name":"C5","midi":72,"time":55.57895199999974,"velocity":0.7637795275590551,"duration":0.15789474999999698},{"name":"A4","midi":69,"time":55.736846749999735,"velocity":0.7637795275590551,"duration":0.15789474999999698},{"name":"C5","midi":72,"time":55.89474149999973,"velocity":0.7637795275590551,"duration":0.15789474999999698},{"name":"E5","midi":76,"time":56.05263624999973,"velocity":0.7637795275590551,"duration":0.15789474999999698},{"name":"D5","midi":74,"time":56.210530999999726,"velocity":0.7637795275590551,"duration":0.15789474999999698},{"name":"B4","midi":71,"time":56.36842574999972,"velocity":0.7637795275590551,"duration":0.15789474999999698},{"name":"D5","midi":74,"time":56.52632049999972,"velocity":0.7637795275590551,"duration":0.15789474999999698},{"name":"F5","midi":77,"time":56.68421524999972,"velocity":0.7637795275590551,"duration":0.15789474999999698},{"name":"E5","midi":76,"time":56.842109999999714,"velocity":0.7637795275590551,"duration":0.15789474999999698},{"name":"C5","midi":72,"time":57.00000474999971,"velocity":0.7637795275590551,"duration":0.15789474999999698},{"name":"E5","midi":76,"time":57.15789949999971,"velocity":0.7637795275590551,"duration":0.15789474999999698},{"name":"G5","midi":79,"time":57.315794249999705,"velocity":0.7637795275590551,"duration":0.15789474999999698},{"name":"F5","midi":77,"time":57.4736889999997,"velocity":0.7637795275590551,"duration":0.15789474999999698},{"name":"E5","midi":76,"time":57.6315837499997,"velocity":0.7637795275590551,"duration":0.15789474999999698},{"name":"D5","midi":74,"time":57.789478499999696,"velocity":0.7637795275590551,"duration":0.15789474999999698},{"name":"C5","midi":72,"time":57.94737324999969,"velocity":0.7637795275590551,"duration":0.15789474999999698},{"name":"B4","midi":71,"time":58.10526799999969,"velocity":0.7637795275590551,"duration":0.15789474999999698},{"name":"C5","midi":72,"time":58.26316274999969,"velocity":0.7637795275590551,"duration":0.15789474999999698},{"name":"D5","midi":74,"time":58.421057499999684,"velocity":0.7637795275590551,"duration":0.15789474999999698},{"name":"E5","midi":76,"time":58.57895224999968,"velocity":0.7637795275590551,"duration":0.15789474999999698},{"name":"F5","midi":77,"time":58.73684699999968,"velocity":0.7637795275590551,"duration":0.15789474999999698},{"name":"D5","midi":74,"time":58.894741749999675,"velocity":0.7637795275590551,"duration":0.15789474999999698},{"name":"G#5","midi":80,"time":59.05263649999967,"velocity":0.7637795275590551,"duration":0.15789474999999698},{"name":"D5","midi":74,"time":59.21053124999967,"velocity":0.7637795275590551,"duration":0.15789474999999698},{"name":"B5","midi":83,"time":59.368425999999666,"velocity":0.7637795275590551,"duration":0.15789474999999698},{"name":"D5","midi":74,"time":59.52632074999966,"velocity":0.7637795275590551,"duration":0.15789474999999698},{"name":"C5","midi":72,"time":59.68421549999966,"velocity":0.7637795275590551,"duration":0.15789474999999698},{"name":"A5","midi":81,"time":59.842110249999656,"velocity":0.7637795275590551,"duration":0.15789474999999698},{"name":"F5","midi":77,"time":60.00000499999965,"velocity":0.7637795275590551,"duration":0.15789474999999698},{"name":"D5","midi":74,"time":60.15789974999965,"velocity":0.7637795275590551,"duration":0.15789474999999698},{"name":"B4","midi":71,"time":60.31579449999965,"velocity":0.7637795275590551,"duration":0.15789474999999698},{"name":"D5","midi":74,"time":60.473689249999644,"velocity":0.7637795275590551,"duration":0.15789474999999698},{"name":"G#4","midi":68,"time":60.63158399999964,"velocity":0.7637795275590551,"duration":0.15789474999999698},{"name":"B4","midi":71,"time":60.78947874999964,"velocity":0.7637795275590551,"duration":0.15789474999999698},{"name":"C5","midi":72,"time":60.947373499999635,"velocity":0.7637795275590551,"duration":0.15789474999999698},{"name":"A4","midi":69,"time":61.10526824999963,"velocity":0.7637795275590551,"duration":0.15789474999999698},{"name":"E4","midi":64,"time":61.26316299999963,"velocity":0.7637795275590551,"duration":0.15789474999999698},{"name":"A4","midi":69,"time":61.421057749999626,"velocity":0.7637795275590551,"duration":0.15789474999999698},{"name":"B4","midi":71,"time":61.57895249999962,"velocity":0.7637795275590551,"duration":0.15789474999999698},{"name":"G#4","midi":68,"time":61.73684724999962,"velocity":0.7637795275590551,"duration":0.15789474999999698},{"name":"A4","midi":69,"time":61.89474199999962,"velocity":0.7637795275590551,"duration":0.15789474999999698},{"name":"E4","midi":64,"time":62.052636749999614,"velocity":0.7637795275590551,"duration":0.15789474999999698},{"name":"C4","midi":60,"time":62.21053149999961,"velocity":0.7637795275590551,"duration":0.15789474999999698},{"name":"E4","midi":64,"time":62.36842624999961,"velocity":0.7637795275590551,"duration":0.15789474999999698},{"name":"A3","midi":57,"time":62.526320999999605,"velocity":0.7637795275590551,"duration":1.8947369999999992}],"controlChanges":{"7":[{"number":7,"time":0,"value":0.8661417322834646}],"10":[{"number":10,"time":0,"value":0.6299212598425197}]},"id":1,"name":"Harpsichord RH","instrumentNumber":6,"instrument":"harpsichord","instrumentFamily":"piano","channelNumber":0,"isPercussion":false},{"startTime":0,"duration":64.42105799999996,"length":263,"notes":[{"name":"A2","midi":45,"time":0,"velocity":0.7637795275590551,"duration":0.3157895},{"name":"A3","midi":57,"time":0.3157895,"velocity":0.7637795275590551,"duration":0.6315790000000001},{"name":"G#3","midi":56,"time":0.9473685000000001,"velocity":0.7637795275590551,"duration":0.31578949999999995},{"name":"A3","midi":57,"time":1.263158,"velocity":0.7637795275590551,"duration":0.15789475000000008},{"name":"E3","midi":52,"time":1.42105275,"velocity":0.7637795275590551,"duration":0.15789475000000008},{"name":"A3","midi":57,"time":1.5789475000000002,"velocity":0.7637795275590551,"duration":0.15789475000000008},{"name":"C4","midi":60,"time":1.7368422500000003,"velocity":0.7637795275590551,"duration":0.15789475000000008},{"name":"B3","midi":59,"time":1.8947370000000003,"velocity":0.7637795275590551,"duration":0.15789474999999986},{"name":"E3","midi":52,"time":2.05263175,"velocity":0.7637795275590551,"duration":0.15789475000000008},{"name":"B3","midi":59,"time":2.2105265000000003,"velocity":0.7637795275590551,"duration":0.15789475000000008},{"name":"D4","midi":62,"time":2.3684212500000004,"velocity":0.7637795275590551,"duration":0.15789475000000008},{"name":"C4","midi":60,"time":2.5263160000000005,"velocity":0.7637795275590551,"duration":0.31578950000000017},{"name":"A3","midi":57,"time":2.8421055000000006,"velocity":0.7637795275590551,"duration":0.31578950000000017},{"name":"G#3","midi":56,"time":3.157895000000001,"velocity":0.7637795275590551,"duration":0.31578950000000017},{"name":"E3","midi":52,"time":3.473684500000001,"velocity":0.7637795275590551,"duration":0.31578950000000017},{"name":"A3","midi":57,"time":3.789474000000001,"velocity":0.7637795275590551,"duration":0.15789475000000008},{"name":"E3","midi":52,"time":3.947368750000001,"velocity":0.7637795275590551,"duration":0.15789475000000008},{"name":"A3","midi":57,"time":4.105263500000001,"velocity":0.7637795275590551,"duration":0.15789474999999964},{"name":"C4","midi":60,"time":4.263158250000001,"velocity":0.7637795275590551,"duration":0.15789474999999964},{"name":"B3","midi":59,"time":4.421053000000001,"velocity":0.7637795275590551,"duration":0.15789474999999964},{"name":"E3","midi":52,"time":4.57894775,"velocity":0.7637795275590551,"duration":0.15789474999999964},{"name":"B3","midi":59,"time":4.7368425,"velocity":0.7637795275590551,"duration":0.15789474999999964},{"name":"D4","midi":62,"time":4.8947372499999995,"velocity":0.7637795275590551,"duration":0.15789474999999964},{"name":"C4","midi":60,"time":5.052631999999999,"velocity":0.7637795275590551,"duration":0.31578950000000017},{"name":"A3","midi":57,"time":5.368421499999999,"velocity":0.7637795275590551,"duration":0.31578950000000017},{"name":"C4","midi":60,"time":5.6842109999999995,"velocity":0.7637795275590551,"duration":0.31578950000000017},{"name":"A3","midi":57,"time":6.0000005,"velocity":0.7637795275590551,"duration":0.31578950000000017},{"name":"D4","midi":62,"time":6.31579,"velocity":0.7637795275590551,"duration":0.15789474999999964},{"name":"A3","midi":57,"time":6.473684749999999,"velocity":0.7637795275590551,"duration":0.15789474999999964},{"name":"F3","midi":53,"time":6.631579499999999,"velocity":0.7637795275590551,"duration":0.15789474999999964},{"name":"A3","midi":57,"time":6.789474249999999,"velocity":0.7637795275590551,"duration":0.15789474999999964},{"name":"D3","midi":50,"time":6.947368999999998,"velocity":0.7637795275590551,"duration":0.15789474999999964},{"name":"F3","midi":53,"time":7.105263749999998,"velocity":0.7637795275590551,"duration":0.15789474999999964},{"name":"A2","midi":45,"time":7.263158499999998,"velocity":0.7637795275590551,"duration":0.15789474999999964},{"name":"C3","midi":48,"time":7.421053249999997,"velocity":0.7637795275590551,"duration":0.15789474999999964},{"name":"B2","midi":47,"time":7.578947999999997,"velocity":0.7637795275590551,"duration":0.31578950000000017},{"name":"D3","midi":50,"time":7.894737499999997,"velocity":0.7637795275590551,"duration":0.31578950000000017},{"name":"G3","midi":55,"time":8.210526999999997,"velocity":0.7637795275590551,"duration":0.3157894999999993},{"name":"B3","midi":59,"time":8.526316499999997,"velocity":0.7637795275590551,"duration":0.4736842499999998},{"name":"G3","midi":55,"time":9.000000749999996,"velocity":0.7637795275590551,"duration":0.15789475000000053},{"name":"E3","midi":52,"time":9.157895499999997,"velocity":0.7637795275590551,"duration":0.15789475000000053},{"name":"G3","midi":55,"time":9.315790249999997,"velocity":0.7637795275590551,"duration":0.15789475000000053},{"name":"C3","midi":48,"time":9.473684999999998,"velocity":0.7637795275590551,"duration":0.15789475000000053},{"name":"E3","midi":52,"time":9.631579749999998,"velocity":0.7637795275590551,"duration":0.15789475000000053},{"name":"G2","midi":43,"time":9.789474499999999,"velocity":0.7637795275590551,"duration":0.15789475000000053},{"name":"B2","midi":47,"time":9.94736925,"velocity":0.7637795275590551,"duration":0.15789475000000053},{"name":"A2","midi":45,"time":10.105264,"velocity":0.7637795275590551,"duration":0.3157894999999993},{"name":"C3","midi":48,"time":10.4210535,"velocity":0.7637795275590551,"duration":0.3157894999999993},{"name":"D3","midi":50,"time":10.736842999999999,"velocity":0.7637795275590551,"duration":0.15789475000000053},{"name":"F3","midi":53,"time":10.894737749999999,"velocity":0.7637795275590551,"duration":0.15789475000000053},{"name":"B2","midi":47,"time":11.0526325,"velocity":0.7637795275590551,"duration":0.15789475000000053},{"name":"D3","midi":50,"time":11.21052725,"velocity":0.7637795275590551,"duration":0.15789475000000053},{"name":"G2","midi":43,"time":11.368422,"velocity":0.7637795275590551,"duration":0.3157894999999993},{"name":"B2","midi":47,"time":11.6842115,"velocity":0.7637795275590551,"duration":0.3157894999999993},{"name":"C3","midi":48,"time":12.000001,"velocity":0.7637795275590551,"duration":0.15789475000000053},{"name":"E3","midi":52,"time":12.15789575,"velocity":0.7637795275590551,"duration":0.15789475000000053},{"name":"A2","midi":45,"time":12.3157905,"velocity":0.7637795275590551,"duration":0.15789475000000053},{"name":"C3","midi":48,"time":12.47368525,"velocity":0.7637795275590551,"duration":0.15789475000000053},{"name":"F2","midi":41,"time":12.631580000000001,"velocity":0.7637795275590551,"duration":0.3157894999999993},{"name":"D2","midi":38,"time":12.9473695,"velocity":0.7637795275590551,"duration":0.3157894999999993},{"name":"G2","midi":43,"time":13.263159,"velocity":0.7637795275590551,"duration":0.13157895833333377},{"name":"G3","midi":55,"time":13.42105375,"velocity":0.7637795275590551,"duration":0.15789475000000053},{"name":"F3","midi":53,"time":13.578948500000001,"velocity":0.7637795275590551,"duration":0.15789475000000053},{"name":"G3","midi":55,"time":13.736843250000002,"velocity":0.7637795275590551,"duration":0.15789475000000053},{"name":"C3","midi":48,"time":13.894738000000002,"velocity":0.7637795275590551,"duration":0.13157895833333377},{"name":"G3","midi":55,"time":14.052632750000003,"velocity":0.7637795275590551,"duration":0.15789475000000053},{"name":"C4","midi":60,"time":14.210527500000003,"velocity":0.7637795275590551,"duration":0.15789475000000053},{"name":"E4","midi":64,"time":14.368422250000004,"velocity":0.7637795275590551,"duration":0.15789475000000053},{"name":"D4","midi":62,"time":14.526317000000004,"velocity":0.7637795275590551,"duration":0.15789475000000053},{"name":"G3","midi":55,"time":14.684211750000005,"velocity":0.7637795275590551,"duration":0.15789475000000053},{"name":"D4","midi":62,"time":14.842106500000005,"velocity":0.7637795275590551,"duration":0.15789475000000053},{"name":"F4","midi":65,"time":15.000001250000006,"velocity":0.7637795275590551,"duration":0.15789475000000053},{"name":"E4","midi":64,"time":15.157896000000006,"velocity":0.7637795275590551,"duration":0.3157894999999993},{"name":"C4","midi":60,"time":15.473685500000006,"velocity":0.7637795275590551,"duration":0.3157894999999993},{"name":"B3","midi":59,"time":15.789475000000005,"velocity":0.7637795275590551,"duration":0.3157894999999993},{"name":"G3","midi":55,"time":16.105264500000004,"velocity":0.7637795275590551,"duration":0.31578950000000106},{"name":"C4","midi":60,"time":16.421054000000005,"velocity":0.7637795275590551,"duration":0.15789475000000053},{"name":"G3","midi":55,"time":16.578948750000006,"velocity":0.7637795275590551,"duration":0.15789475000000053},{"name":"C4","midi":60,"time":16.736843500000006,"velocity":0.7637795275590551,"duration":0.15789475000000053},{"name":"E4","midi":64,"time":16.894738250000007,"velocity":0.7637795275590551,"duration":0.15789475000000053},{"name":"D4","midi":62,"time":17.052633000000007,"velocity":0.7637795275590551,"duration":0.15789475000000053},{"name":"G3","midi":55,"time":17.210527750000008,"velocity":0.7637795275590551,"duration":0.15789475000000053},{"name":"D4","midi":62,"time":17.36842250000001,"velocity":0.7637795275590551,"duration":0.15789475000000053},{"name":"F4","midi":65,"time":17.52631725000001,"velocity":0.7637795275590551,"duration":0.15789475000000053},{"name":"E4","midi":64,"time":17.68421200000001,"velocity":0.7637795275590551,"duration":0.31578950000000106},{"name":"C4","midi":60,"time":18.00000150000001,"velocity":0.7637795275590551,"duration":0.31578950000000106},{"name":"G4","midi":67,"time":19.10526475000001,"velocity":0.7637795275590551,"duration":0.15789475000000053},{"name":"E4","midi":64,"time":19.26315950000001,"velocity":0.7637795275590551,"duration":0.15789475000000053},{"name":"G4","midi":67,"time":19.42105425000001,"velocity":0.7637795275590551,"duration":0.15789475000000053},{"name":"C4","midi":60,"time":19.578949000000012,"velocity":0.7637795275590551,"duration":0.15789475000000053},{"name":"E4","midi":64,"time":19.736843750000013,"velocity":0.7637795275590551,"duration":0.15789475000000053},{"name":"G3","midi":55,"time":19.894738500000013,"velocity":0.7637795275590551,"duration":0.15789475000000053},{"name":"B3","midi":59,"time":20.052633250000014,"velocity":0.7637795275590551,"duration":0.15789475000000053},{"name":"A3","midi":57,"time":20.210528000000014,"velocity":0.7637795275590551,"duration":0.31578950000000106},{"name":"C4","midi":60,"time":20.526317500000015,"velocity":0.7637795275590551,"duration":0.31578950000000106},{"name":"E4","midi":64,"time":20.842107000000016,"velocity":0.7637795275590551,"duration":0.31578950000000106},{"name":"G4","midi":67,"time":21.157896500000017,"velocity":0.7637795275590551,"duration":0.31578950000000106},{"name":"F#4","midi":66,"time":21.47368600000002,"velocity":0.7637795275590551,"duration":0.15789475000000053},{"name":"A4","midi":69,"time":21.63158075000002,"velocity":0.7637795275590551,"duration":0.15789475000000053},{"name":"D4","midi":62,"time":21.78947550000002,"velocity":0.7637795275590551,"duration":0.15789475000000053},{"name":"F#4","midi":66,"time":21.94737025000002,"velocity":0.7637795275590551,"duration":0.15789475000000053},{"name":"A3","midi":57,"time":22.10526500000002,"velocity":0.7637795275590551,"duration":0.15789475000000053},{"name":"D4","midi":62,"time":22.26315975000002,"velocity":0.7637795275590551,"duration":0.15789475000000053},{"name":"F#3","midi":54,"time":22.42105450000002,"velocity":0.7637795275590551,"duration":0.15789475000000053},{"name":"A3","midi":57,"time":22.578949250000022,"velocity":0.7637795275590551,"duration":0.15789475000000053},{"name":"G3","midi":55,"time":22.736844000000023,"velocity":0.7637795275590551,"duration":0.31578950000000106},{"name":"B3","midi":59,"time":23.052633500000024,"velocity":0.7637795275590551,"duration":0.31578950000000106},{"name":"D4","midi":62,"time":23.368423000000025,"velocity":0.7637795275590551,"duration":0.31578950000000106},{"name":"F4","midi":65,"time":23.684212500000026,"velocity":0.7637795275590551,"duration":0.31578950000000106},{"name":"E4","midi":64,"time":24.000002000000027,"velocity":0.7637795275590551,"duration":0.15789475000000053},{"name":"G4","midi":67,"time":24.157896750000027,"velocity":0.7637795275590551,"duration":0.15789475000000053},{"name":"C4","midi":60,"time":24.315791500000028,"velocity":0.7637795275590551,"duration":0.15789475000000053},{"name":"E4","midi":64,"time":24.47368625000003,"velocity":0.7637795275590551,"duration":0.15789475000000053},{"name":"G3","midi":55,"time":24.63158100000003,"velocity":0.7637795275590551,"duration":0.15789475000000053},{"name":"C4","midi":60,"time":24.78947575000003,"velocity":0.7637795275590551,"duration":0.15789475000000053},{"name":"E3","midi":52,"time":24.94737050000003,"velocity":0.7637795275590551,"duration":0.15789475000000053},{"name":"G3","midi":55,"time":25.10526525000003,"velocity":0.7637795275590551,"duration":0.15789475000000053},{"name":"F#3","midi":54,"time":25.26316000000003,"velocity":0.7637795275590551,"duration":0.31578950000000106},{"name":"A3","midi":57,"time":25.578949500000032,"velocity":0.7637795275590551,"duration":0.31578950000000106},{"name":"B3","midi":59,"time":25.894739000000033,"velocity":0.7637795275590551,"duration":0.31578950000000106},{"name":"D#4","midi":63,"time":26.210528500000034,"velocity":0.7637795275590551,"duration":0.31578950000000106},{"name":"E4","midi":64,"time":26.684212750000036,"velocity":0.7637795275590551,"duration":0.15789475000000053},{"name":"C4","midi":60,"time":26.842107500000036,"velocity":0.7637795275590551,"duration":0.15789475000000053},{"name":"E4","midi":64,"time":27.000002250000037,"velocity":0.7637795275590551,"duration":0.15789475000000053},{"name":"A3","midi":57,"time":27.157897000000037,"velocity":0.7637795275590551,"duration":0.15789475000000053},{"name":"C4","midi":60,"time":27.315791750000038,"velocity":0.7637795275590551,"duration":0.15789475000000053},{"name":"E4","midi":64,"time":27.47368650000004,"velocity":0.7637795275590551,"duration":0.15789475000000053},{"name":"G4","midi":67,"time":27.63158125000004,"velocity":0.7637795275590551,"duration":0.15789475000000053},{"name":"F#4","midi":66,"time":27.78947600000004,"velocity":0.7637795275590551,"duration":0.15789475000000053},{"name":"D4","midi":62,"time":27.94737075000004,"velocity":0.7637795275590551,"duration":0.15789475000000053},{"name":"B3","midi":59,"time":28.10526550000004,"velocity":0.7637795275590551,"duration":0.15789475000000053},{"name":"D4","midi":62,"time":28.26316025000004,"velocity":0.7637795275590551,"duration":0.15789475000000053},{"name":"G3","midi":55,"time":28.42105500000004,"velocity":0.7637795275590551,"duration":0.15789475000000053},{"name":"B3","midi":59,"time":28.578949750000042,"velocity":0.7637795275590551,"duration":0.15789475000000053},{"name":"D4","midi":62,"time":28.736844500000043,"velocity":0.7637795275590551,"duration":0.15789475000000053},{"name":"F#4","midi":66,"time":28.894739250000043,"velocity":0.7637795275590551,"duration":0.15789475000000053},{"name":"E4","midi":64,"time":29.052634000000044,"velocity":0.7637795275590551,"duration":0.15789475000000053},{"name":"C4","midi":60,"time":29.210528750000044,"velocity":0.7637795275590551,"duration":0.15789475000000053},{"name":"A3","midi":57,"time":29.368423500000045,"velocity":0.7637795275590551,"duration":0.15789475000000053},{"name":"C4","midi":60,"time":29.526318250000045,"velocity":0.7637795275590551,"duration":0.15789475000000053},{"name":"F#3","midi":54,"time":29.684213000000046,"velocity":0.7637795275590551,"duration":0.15789475000000053},{"name":"A3","midi":57,"time":29.842107750000046,"velocity":0.7637795275590551,"duration":0.15789475000000053},{"name":"C4","midi":60,"time":30.000002500000047,"velocity":0.7637795275590551,"duration":0.4736842500000016},{"name":"B3","midi":59,"time":30.47368675000005,"velocity":0.7637795275590551,"duration":0.15789475000000053},{"name":"C4","midi":60,"time":30.63158150000005,"velocity":0.7637795275590551,"duration":0.15789475000000053},{"name":"A3","midi":57,"time":30.78947625000005,"velocity":0.7637795275590551,"duration":0.15789475000000053},{"name":"B3","midi":59,"time":30.94737100000005,"velocity":0.7637795275590551,"duration":0.31578950000000106},{"name":"B2","midi":47,"time":31.26316050000005,"velocity":0.7637795275590551,"duration":0.31578950000000106},{"name":"E3","midi":52,"time":31.578950000000052,"velocity":0.7637795275590551,"duration":0.15789475000000053},{"name":"E4","midi":64,"time":31.736844750000053,"velocity":0.7637795275590551,"duration":0.15789475000000053},{"name":"B3","midi":59,"time":31.894739500000053,"velocity":0.7637795275590551,"duration":0.15789475000000053},{"name":"G3","midi":55,"time":32.052634250000054,"velocity":0.7637795275590551,"duration":0.15789474999999698},{"name":"E3","midi":52,"time":32.21052900000005,"velocity":0.7637795275590551,"duration":0.15789474999999698},{"name":"B2","midi":47,"time":32.36842375000005,"velocity":0.7637795275590551,"duration":0.15789474999999698},{"name":"G2","midi":43,"time":32.526318500000045,"velocity":0.7637795275590551,"duration":0.15789474999999698},{"name":"B2","midi":47,"time":32.68421325000004,"velocity":0.7637795275590551,"duration":0.15789474999999698},{"name":"E2","midi":40,"time":32.84210800000004,"velocity":0.7637795275590551,"duration":0.31578950000000106},{"name":"E3","midi":52,"time":33.15789750000004,"velocity":0.7637795275590551,"duration":0.31578950000000106},{"name":"G3","midi":55,"time":33.47368700000004,"velocity":0.7637795275590551,"duration":0.31578950000000106},{"name":"A#3","midi":58,"time":33.78947650000004,"velocity":0.7637795275590551,"duration":0.31578950000000106},{"name":"C#3","midi":49,"time":34.10526600000004,"velocity":0.7637795275590551,"duration":0.31578950000000106},{"name":"G4","midi":67,"time":34.89473975000004,"velocity":0.7637795275590551,"duration":0.15789474999999698},{"name":"F#4","midi":66,"time":35.05263450000004,"velocity":0.7637795275590551,"duration":0.15789474999999698},{"name":"E4","midi":64,"time":35.210529250000036,"velocity":0.7637795275590551,"duration":0.15789474999999698},{"name":"D4","midi":62,"time":35.36842400000003,"velocity":0.7637795275590551,"duration":0.31578950000000106},{"name":"D3","midi":50,"time":35.684213500000034,"velocity":0.7637795275590551,"duration":0.31578950000000106},{"name":"F3","midi":53,"time":36.000003000000035,"velocity":0.7637795275590551,"duration":0.31578950000000106},{"name":"G#3","midi":56,"time":36.315792500000036,"velocity":0.7637795275590551,"duration":0.31578950000000106},{"name":"B2","midi":47,"time":36.63158200000004,"velocity":0.7637795275590551,"duration":0.31578950000000106},{"name":"F4","midi":65,"time":37.421055750000036,"velocity":0.7637795275590551,"duration":0.15789474999999698},{"name":"E4","midi":64,"time":37.57895050000003,"velocity":0.7637795275590551,"duration":0.15789474999999698},{"name":"D4","midi":62,"time":37.73684525000003,"velocity":0.7637795275590551,"duration":0.15789474999999698},{"name":"C4","midi":60,"time":37.89474000000003,"velocity":0.7637795275590551,"duration":0.31578950000000106},{"name":"C3","midi":48,"time":38.21052950000003,"velocity":0.7637795275590551,"duration":0.31578950000000106},{"name":"E3","midi":52,"time":38.52631900000003,"velocity":0.7637795275590551,"duration":0.31578950000000106},{"name":"F#3","midi":54,"time":38.84210850000003,"velocity":0.7637795275590551,"duration":0.31578950000000106},{"name":"A2","midi":45,"time":39.15789800000003,"velocity":0.7637795275590551,"duration":0.31578950000000106},{"name":"E4","midi":64,"time":39.94737175000003,"velocity":0.7637795275590551,"duration":0.15789474999999698},{"name":"D#4","midi":63,"time":40.10526650000003,"velocity":0.7637795275590551,"duration":0.15789474999999698},{"name":"C#4","midi":61,"time":40.263161250000024,"velocity":0.7637795275590551,"duration":0.15789474999999698},{"name":"B3","midi":59,"time":40.42105600000002,"velocity":0.7637795275590551,"duration":0.31578950000000106},{"name":"B2","midi":47,"time":40.73684550000002,"velocity":0.7637795275590551,"duration":0.31578950000000106},{"name":"D3","midi":50,"time":41.05263500000002,"velocity":0.7637795275590551,"duration":0.31578950000000106},{"name":"F3","midi":53,"time":41.368424500000025,"velocity":0.7637795275590551,"duration":0.31578950000000106},{"name":"G#2","midi":44,"time":41.684214000000026,"velocity":0.7637795275590551,"duration":0.31578950000000106},{"name":"D4","midi":62,"time":42.473687750000025,"velocity":0.7637795275590551,"duration":0.15789474999999698},{"name":"C4","midi":60,"time":42.63158250000002,"velocity":0.7637795275590551,"duration":0.15789474999999698},{"name":"B3","midi":59,"time":42.78947725000002,"velocity":0.7637795275590551,"duration":0.15789474999999698},{"name":"C4","midi":60,"time":42.947372000000016,"velocity":0.7637795275590551,"duration":0.31578950000000106},{"name":"A3","midi":57,"time":43.26316150000002,"velocity":0.7637795275590551,"duration":0.31578950000000106},{"name":"G#3","midi":56,"time":43.57895100000002,"velocity":0.7637795275590551,"duration":0.31578950000000106},{"name":"E3","midi":52,"time":43.89474050000002,"velocity":0.7637795275590551,"duration":0.31578950000000106},{"name":"A3","midi":57,"time":44.21053000000002,"velocity":0.7637795275590551,"duration":0.15789474999999698},{"name":"E3","midi":52,"time":44.36842475000002,"velocity":0.7637795275590551,"duration":0.15789474999999698},{"name":"A3","midi":57,"time":44.526319500000014,"velocity":0.7637795275590551,"duration":0.15789474999999698},{"name":"C4","midi":60,"time":44.68421425000001,"velocity":0.7637795275590551,"duration":0.15789474999999698},{"name":"B3","midi":59,"time":44.84210900000001,"velocity":0.7637795275590551,"duration":0.15789474999999698},{"name":"E3","midi":52,"time":45.000003750000005,"velocity":0.7637795275590551,"duration":0.15789474999999698},{"name":"B3","midi":59,"time":45.1578985,"velocity":0.7637795275590551,"duration":0.15789474999999698},{"name":"D4","midi":62,"time":45.31579325,"velocity":0.7637795275590551,"duration":0.15789474999999698},{"name":"C4","midi":60,"time":45.473687999999996,"velocity":0.7637795275590551,"duration":0.15789474999999698},{"name":"E4","midi":64,"time":45.63158274999999,"velocity":0.7637795275590551,"duration":0.15789474999999698},{"name":"A4","midi":69,"time":45.78947749999999,"velocity":0.7637795275590551,"duration":0.15789474999999698},{"name":"E4","midi":64,"time":45.94737224999999,"velocity":0.7637795275590551,"duration":0.15789474999999698},{"name":"C4","midi":60,"time":46.105266999999984,"velocity":0.7637795275590551,"duration":0.15789474999999698},{"name":"E4","midi":64,"time":46.26316174999998,"velocity":0.7637795275590551,"duration":0.15789474999999698},{"name":"A3","midi":57,"time":46.42105649999998,"velocity":0.7637795275590551,"duration":0.15789474999999698},{"name":"C4","midi":60,"time":46.578951249999974,"velocity":0.7637795275590551,"duration":0.15789474999999698},{"name":"F#3","midi":54,"time":46.73684599999997,"velocity":0.7637795275590551,"duration":0.15789474999999698},{"name":"A3","midi":57,"time":46.89474074999997,"velocity":0.7637795275590551,"duration":0.15789474999999698},{"name":"C4","midi":60,"time":47.052635499999965,"velocity":0.7637795275590551,"duration":0.15789474999999698},{"name":"A3","midi":57,"time":47.21053024999996,"velocity":0.7637795275590551,"duration":0.15789474999999698},{"name":"F#3","midi":54,"time":47.36842499999996,"velocity":0.7637795275590551,"duration":0.15789474999999698},{"name":"A3","midi":57,"time":47.526319749999956,"velocity":0.7637795275590551,"duration":0.15789474999999698},{"name":"D#3","midi":51,"time":47.68421449999995,"velocity":0.7637795275590551,"duration":0.15789474999999698},{"name":"F#3","midi":54,"time":47.84210924999995,"velocity":0.7637795275590551,"duration":0.15789474999999698},{"name":"E3","midi":52,"time":48.00000399999995,"velocity":0.7637795275590551,"duration":0.31578950000000106},{"name":"G#3","midi":56,"time":48.31579349999995,"velocity":0.7637795275590551,"duration":0.31578950000000106},{"name":"B3","midi":59,"time":48.63158299999995,"velocity":0.7637795275590551,"duration":0.31578950000000106},{"name":"G#3","midi":56,"time":48.94737249999995,"velocity":0.7637795275590551,"duration":0.31578950000000106},{"name":"E3","midi":52,"time":49.26316199999995,"velocity":0.7637795275590551,"duration":0.31578950000000106},{"name":"B2","midi":47,"time":49.57895149999995,"velocity":0.7637795275590551,"duration":0.31578950000000106},{"name":"G#2","midi":44,"time":49.894740999999954,"velocity":0.7637795275590551,"duration":0.31578950000000106},{"name":"E2","midi":40,"time":50.210530499999955,"velocity":0.7637795275590551,"duration":0.31578950000000106},{"name":"A2","midi":45,"time":50.526319999999956,"velocity":0.7637795275590551,"duration":0.31578950000000106},{"name":"C3","midi":48,"time":50.84210949999996,"velocity":0.7637795275590551,"duration":0.31578950000000106},{"name":"E3","midi":52,"time":51.15789899999996,"velocity":0.7637795275590551,"duration":0.31578950000000106},{"name":"C3","midi":48,"time":51.47368849999996,"velocity":0.7637795275590551,"duration":0.31578950000000106},{"name":"A2","midi":45,"time":51.78947799999996,"velocity":0.7637795275590551,"duration":0.31578950000000106},{"name":"C3","midi":48,"time":52.10526749999996,"velocity":0.7637795275590551,"duration":0.31578950000000106},{"name":"D#2","midi":39,"time":52.42105699999996,"velocity":0.7637795275590551,"duration":0.31578950000000106},{"name":"B3","midi":59,"time":53.21053074999996,"velocity":0.7637795275590551,"duration":0.15789474999999698},{"name":"G#3","midi":56,"time":53.36842549999996,"velocity":0.7637795275590551,"duration":0.15789474999999698},{"name":"E3","midi":52,"time":53.526320249999955,"velocity":0.7637795275590551,"duration":0.15789474999999698},{"name":"D3","midi":50,"time":53.68421499999995,"velocity":0.7637795275590551,"duration":0.15789474999999698},{"name":"B3","midi":59,"time":53.84210974999995,"velocity":0.7637795275590551,"duration":0.15789474999999698},{"name":"G#3","midi":56,"time":54.000004499999946,"velocity":0.7637795275590551,"duration":0.15789474999999698},{"name":"D3","midi":50,"time":54.15789924999994,"velocity":0.7637795275590551,"duration":0.15789474999999698},{"name":"C3","midi":48,"time":54.31579399999994,"velocity":0.7637795275590551,"duration":0.31578950000000106},{"name":"E3","midi":52,"time":54.63158349999994,"velocity":0.7637795275590551,"duration":0.31578950000000106},{"name":"G#2","midi":44,"time":54.94737299999994,"velocity":0.7637795275590551,"duration":0.31578950000000106},{"name":"E3","midi":52,"time":55.26316249999994,"velocity":0.7637795275590551,"duration":0.31578950000000106},{"name":"A2","midi":45,"time":55.578951999999944,"velocity":0.7637795275590551,"duration":0.31578950000000106},{"name":"F#3","midi":54,"time":55.894741499999945,"velocity":0.7637795275590551,"duration":0.31578950000000106},{"name":"B2","midi":47,"time":56.210530999999946,"velocity":0.7637795275590551,"duration":0.31578950000000106},{"name":"G#3","midi":56,"time":56.52632049999995,"velocity":0.7637795275590551,"duration":0.31578950000000106},{"name":"C3","midi":48,"time":56.84210999999995,"velocity":0.7637795275590551,"duration":0.31578950000000106},{"name":"A3","midi":57,"time":57.15789949999995,"velocity":0.7637795275590551,"duration":0.31578950000000106},{"name":"D3","midi":50,"time":57.47368899999995,"velocity":0.7637795275590551,"duration":0.31578950000000106},{"name":"A#3","midi":58,"time":57.78947849999995,"velocity":0.7637795275590551,"duration":0.31578950000000106},{"name":"G#3","midi":56,"time":58.10526799999995,"velocity":0.7637795275590551,"duration":0.31578950000000106},{"name":"F3","midi":53,"time":58.421057499999954,"velocity":0.7637795275590551,"duration":0.31578950000000106},{"name":"D3","midi":50,"time":58.736846999999955,"velocity":0.7637795275590551,"duration":0.31578950000000106},{"name":"B2","midi":47,"time":59.052636499999956,"velocity":0.7637795275590551,"duration":0.31578950000000106},{"name":"G#2","midi":44,"time":59.36842599999996,"velocity":0.7637795275590551,"duration":0.31578950000000106},{"name":"A2","midi":45,"time":59.68421549999996,"velocity":0.7637795275590551,"duration":0.31578950000000106},{"name":"D2","midi":38,"time":60.00000499999996,"velocity":0.7637795275590551,"duration":0.31578950000000106},{"name":"E2","midi":40,"time":60.31579449999996,"velocity":0.7637795275590551,"duration":0.31578950000000106},{"name":"F2","midi":41,"time":60.63158399999996,"velocity":0.7637795275590551,"duration":0.31578950000000106},{"name":"D#2","midi":39,"time":60.94737349999996,"velocity":0.7637795275590551,"duration":0.31578950000000106},{"name":"E2","midi":40,"time":61.26316299999996,"velocity":0.7637795275590551,"duration":0.31578950000000106},{"name":"E3","midi":52,"time":61.578952499999964,"velocity":0.7637795275590551,"duration":0.31578950000000106},{"name":"A2","midi":45,"time":61.894741999999965,"velocity":0.7637795275590551,"duration":2.5263159999999942}],"controlChanges":{"7":[{"number":7,"time":0,"value":0.8661417322834646}],"10":[{"number":10,"time":0,"value":0.3700787401574803}]},"id":2,"name":"Harpsichord LH","instrumentNumber":6,"instrument":"harpsichord","instrumentFamily":"piano","channelNumber":0,"isPercussion":false}]}