{"header":{"PPQ":240,"timeSignature":[1,4],"bpm":120,"name":""},"startTime":5.460416666666667,"duration":170.8854166666656,"tracks":[{"startTime":5.460416666666667,"duration":170.8854166666656,"length":1354,"notes":[{"name":"G#4","midi":68,"time":5.460416666666667,"velocity":0.5590551181102362,"duration":0.20624999999999982},{"name":"G#3","midi":56,"time":5.460416666666667,"velocity":0.5118110236220472,"duration":1.2125000000000004},{"name":"B3","midi":59,"time":5.4625,"velocity":0.5118110236220472,"duration":0.41249999999999964},{"name":"A#4","midi":70,"time":5.666666666666667,"velocity":0.5590551181102362,"duration":0.20833333333333304},{"name":"B4","midi":71,"time":5.875,"velocity":0.5590551181102362,"duration":0.2020833333333334},{"name":"D#4","midi":63,"time":5.877083333333333,"velocity":0.5669291338582677,"duration":0.40000000000000036},{"name":"G#4","midi":68,"time":6.079166666666667,"velocity":0.5590551181102362,"duration":0.19583333333333375},{"name":"A#4","midi":70,"time":6.277083333333334,"velocity":0.5590551181102362,"duration":0.19791666666666696},{"name":"C#4","midi":61,"time":6.279166666666667,"velocity":0.5669291338582677,"duration":0.7958333333333343},{"name":"C#5","midi":73,"time":6.4750000000000005,"velocity":0.5590551181102362,"duration":0.19791666666666696},{"name":"E5","midi":76,"time":6.675000000000001,"velocity":0.5590551181102362,"duration":0.40000000000000036},{"name":"G3","midi":55,"time":6.675000000000001,"velocity":0.5669291338582677,"duration":1.1958333333333329},{"name":"D#5","midi":75,"time":7.075000000000001,"velocity":0.5748031496062992,"duration":0.39791666666666625},{"name":"B3","midi":59,"time":7.077083333333334,"velocity":0.5669291338582677,"duration":0.39583333333333304},{"name":"C#5","midi":73,"time":7.4750000000000005,"velocity":0.5748031496062992,"duration":0.39583333333333304},{"name":"A#3","midi":58,"time":7.4750000000000005,"velocity":0.5669291338582677,"duration":0.3937499999999998},{"name":"B4","midi":71,"time":7.870833333333334,"velocity":0.5748031496062992,"duration":0.810416666666665},{"name":"G#3","midi":56,"time":7.872916666666667,"velocity":0.5669291338582677,"duration":0.19583333333333286},{"name":"A#3","midi":58,"time":8.070833333333333,"velocity":0.5669291338582677,"duration":0.1999999999999993},{"name":"G#5","midi":80,"time":8.272916666666665,"velocity":0.5275590551181102,"duration":0.8124999999999982},{"name":"B3","midi":59,"time":8.272916666666665,"velocity":0.5669291338582677,"duration":0.2020833333333325},{"name":"G#3","midi":56,"time":8.474999999999998,"velocity":0.5669291338582677,"duration":0.2062500000000007},{"name":"A#4","midi":70,"time":8.683333333333332,"velocity":0.5748031496062992,"duration":0.8020833333333321},{"name":"C#5","midi":73,"time":8.683333333333332,"velocity":0.5748031496062992,"duration":0.8041666666666654},{"name":"A#3","midi":58,"time":8.685416666666665,"velocity":0.5669291338582677,"duration":0.19791666666666607},{"name":"C#4","midi":61,"time":8.883333333333331,"velocity":0.5669291338582677,"duration":0.2020833333333325},{"name":"G5","midi":79,"time":9.087499999999997,"velocity":0.5275590551181102,"duration":1.1916666666666682},{"name":"E4","midi":64,"time":9.087499999999997,"velocity":0.5669291338582677,"duration":0.39791666666666714},{"name":"B4","midi":71,"time":9.487499999999997,"velocity":0.5748031496062992,"duration":0.3937500000000007},{"name":"D#4","midi":63,"time":9.48958333333333,"velocity":0.5669291338582677,"duration":1.1812500000000004},{"name":"A#4","midi":70,"time":9.881249999999998,"velocity":0.5748031496062992,"duration":0.3958333333333339},{"name":"C#4","midi":61,"time":9.883333333333331,"velocity":0.5669291338582677,"duration":0.3937500000000007},{"name":"G#5","midi":80,"time":10.279166666666665,"velocity":0.5275590551181102,"duration":0.19166666666666643},{"name":"D#5","midi":75,"time":10.281249999999998,"velocity":0.5748031496062992,"duration":0.3895833333333325},{"name":"B3","midi":59,"time":10.281249999999998,"velocity":0.5669291338582677,"duration":1.1770833333333304},{"name":"A#5","midi":82,"time":10.472916666666665,"velocity":0.5275590551181102,"duration":0.19583333333333286},{"name":"G#4","midi":68,"time":10.672916666666664,"velocity":0.5748031496062992,"duration":0.3916666666666657},{"name":"B5","midi":83,"time":10.672916666666664,"velocity":0.5275590551181102,"duration":0.19374999999999964},{"name":"D#5","midi":75,"time":10.868749999999997,"velocity":0.5748031496062992,"duration":0.19374999999999964},{"name":"E5","midi":76,"time":11.06458333333333,"velocity":0.5748031496062992,"duration":0.19374999999999964},{"name":"C#4","midi":61,"time":11.066666666666663,"velocity":0.5669291338582677,"duration":0.7833333333333314},{"name":"G#5","midi":80,"time":11.260416666666663,"velocity":0.5275590551181102,"duration":0.19583333333333286},{"name":"F#5","midi":78,"time":11.458333333333329,"velocity":0.5275590551181102,"duration":0.19374999999999964},{"name":"A#3","midi":58,"time":11.460416666666662,"velocity":0.5669291338582677,"duration":1.1666666666666643},{"name":"G#5","midi":80,"time":11.654166666666661,"velocity":0.5275590551181102,"duration":0.19583333333333286},{"name":"A#5","midi":82,"time":11.849999999999994,"velocity":0.5275590551181102,"duration":0.19374999999999964},{"name":"F#4","midi":66,"time":11.852083333333328,"velocity":0.5669291338582677,"duration":0.3854166666666661},{"name":"C#5","midi":73,"time":12.043749999999994,"velocity":0.5748031496062992,"duration":0.19374999999999964},{"name":"D#5","midi":75,"time":12.239583333333327,"velocity":0.5748031496062992,"duration":0.19374999999999964},{"name":"B3","midi":59,"time":12.239583333333327,"velocity":0.5669291338582677,"duration":0.7666666666666657},{"name":"F#5","midi":78,"time":12.433333333333326,"velocity":0.5275590551181102,"duration":0.19166666666666643},{"name":"E5","midi":76,"time":12.627083333333326,"velocity":0.5748031496062992,"duration":0.18958333333333321},{"name":"G#3","midi":56,"time":12.627083333333326,"velocity":0.5669291338582677,"duration":0.7562499999999996},{"name":"F#5","midi":78,"time":12.81666666666666,"velocity":0.5275590551181102,"duration":0.18958333333333321},{"name":"G#5","midi":80,"time":13.008333333333326,"velocity":0.5275590551181102,"duration":0.1875},{"name":"E4","midi":64,"time":13.008333333333326,"velocity":0.5669291338582677,"duration":1.135416666666666},{"name":"B4","midi":71,"time":13.195833333333326,"velocity":0.5748031496062992,"duration":0.18541666666666679},{"name":"C#5","midi":73,"time":13.383333333333326,"velocity":0.5748031496062992,"duration":0.18958333333333321},{"name":"E3","midi":52,"time":13.385416666666659,"velocity":0.5669291338582677,"duration":0.3770833333333332},{"name":"E5","midi":76,"time":13.572916666666659,"velocity":0.5748031496062992,"duration":0.18958333333333321},{"name":"A#4","midi":70,"time":13.764583333333325,"velocity":0.5748031496062992,"duration":0.1875},{"name":"F#3","midi":54,"time":13.764583333333325,"velocity":0.5669291338582677,"duration":0.37916666666666643},{"name":"B4","midi":71,"time":13.952083333333325,"velocity":0.5748031496062992,"duration":0.18958333333333321},{"name":"C#5","midi":73,"time":14.145833333333325,"velocity":0.5748031496062992,"duration":0.18541666666666679},{"name":"G#3","midi":56,"time":14.145833333333325,"velocity":0.5669291338582677,"duration":0.37916666666666643},{"name":"D#4","midi":63,"time":14.147916666666658,"velocity":0.5669291338582677,"duration":0.375},{"name":"F#4","midi":66,"time":14.333333333333325,"velocity":0.5669291338582677,"duration":0.18958333333333321},{"name":"C#5","midi":73,"time":14.524999999999991,"velocity":0.5748031496062992,"duration":0.18541666666666679},{"name":"A#3","midi":58,"time":14.524999999999991,"velocity":0.5669291338582677,"duration":0.3729166666666668},{"name":"C#4","midi":61,"time":14.527083333333325,"velocity":0.5669291338582677,"duration":0.37083333333333357},{"name":"E5","midi":76,"time":14.710416666666658,"velocity":0.5748031496062992,"duration":0.18541666666666679},{"name":"D#5","midi":75,"time":14.899999999999991,"velocity":0.5748031496062992,"duration":0.18333333333333357},{"name":"B3","midi":59,"time":14.899999999999991,"velocity":0.5669291338582677,"duration":0.375},{"name":"E5","midi":76,"time":15.085416666666658,"velocity":0.5748031496062992,"duration":0.1875},{"name":"C#4","midi":61,"time":15.085416666666658,"velocity":0.5669291338582677,"duration":0.1875},{"name":"F#5","midi":78,"time":15.274999999999991,"velocity":0.5275590551181102,"duration":0.18541666666666679},{"name":"D#4","midi":63,"time":15.274999999999991,"velocity":0.5669291338582677,"duration":0.18541666666666679},{"name":"D#5","midi":75,"time":15.462499999999991,"velocity":0.5748031496062992,"duration":0.18541666666666679},{"name":"B3","midi":59,"time":15.462499999999991,"velocity":0.5669291338582677,"duration":0.18333333333333357},{"name":"E5","midi":76,"time":15.647916666666658,"velocity":0.5748031496062992,"duration":0.1875},{"name":"C#4","midi":61,"time":15.649999999999991,"velocity":0.5669291338582677,"duration":0.18333333333333357},{"name":"G#5","midi":80,"time":15.835416666666658,"velocity":0.5275590551181102,"duration":0.18749999999999822},{"name":"E4","midi":64,"time":15.837499999999991,"velocity":0.5669291338582677,"duration":0.185416666666665},{"name":"B4","midi":71,"time":16.02499999999999,"velocity":0.5590551181102362,"duration":0.18333333333333357},{"name":"G#4","midi":68,"time":16.02499999999999,"velocity":0.5748031496062992,"duration":0.37083333333333357},{"name":"A#4","midi":70,"time":16.208333333333325,"velocity":0.5590551181102362,"duration":0.185416666666665},{"name":"B4","midi":71,"time":16.395833333333325,"velocity":0.5590551181102362,"duration":0.1875},{"name":"F#4","midi":66,"time":16.39791666666666,"velocity":0.5669291338582677,"duration":0.372916666666665},{"name":"A#4","midi":70,"time":16.58541666666666,"velocity":0.5590551181102362,"duration":0.185416666666665},{"name":"B4","midi":71,"time":16.77291666666666,"velocity":0.5748031496062992,"duration":0.185416666666665},{"name":"E4","midi":64,"time":16.77291666666666,"velocity":0.5669291338582677,"duration":0.375},{"name":"C#5","midi":73,"time":16.958333333333325,"velocity":0.5748031496062992,"duration":0.57083333333334},{"name":"D#4","midi":63,"time":17.14791666666666,"velocity":0.5669291338582677,"duration":0.189583333333335},{"name":"B2","midi":47,"time":17.14791666666666,"velocity":0.5669291338582677,"duration":0.1875},{"name":"E4","midi":64,"time":17.337499999999995,"velocity":0.5669291338582677,"duration":0.189583333333335},{"name":"C#3","midi":49,"time":17.33958333333333,"velocity":0.5669291338582677,"duration":0.185416666666665},{"name":"B4","midi":71,"time":17.529166666666665,"velocity":0.5748031496062992,"duration":0.756250000000005},{"name":"D#3","midi":51,"time":17.529166666666665,"velocity":0.5669291338582677,"duration":0.19166666666666998},{"name":"F#4","midi":66,"time":17.53125,"velocity":0.5669291338582677,"duration":0.1875},{"name":"D#4","midi":63,"time":17.720833333333335,"velocity":0.5669291338582677,"duration":0.1875},{"name":"B2","midi":47,"time":17.720833333333335,"velocity":0.5669291338582677,"duration":0.1875},{"name":"E4","midi":64,"time":17.91041666666667,"velocity":0.5669291338582677,"duration":0.1875},{"name":"C#3","midi":49,"time":17.912500000000005,"velocity":0.5669291338582677,"duration":0.185416666666665},{"name":"G#4","midi":68,"time":18.100000000000005,"velocity":0.5905511811023622,"duration":0.185416666666665},{"name":"E3","midi":52,"time":18.100000000000005,"velocity":0.5669291338582677,"duration":0.185416666666665},{"name":"C#4","midi":61,"time":18.287500000000005,"velocity":0.5669291338582677,"duration":1.4895833333333357},{"name":"G#3","midi":56,"time":18.28958333333334,"velocity":0.5669291338582677,"duration":0.37083333333333357},{"name":"B4","midi":71,"time":18.47083333333334,"velocity":0.5905511811023622,"duration":0.1875},{"name":"A#4","midi":70,"time":18.660416666666674,"velocity":0.5905511811023622,"duration":0.1875},{"name":"F#3","midi":54,"time":18.66250000000001,"velocity":0.5669291338582677,"duration":0.3687499999999986},{"name":"B4","midi":71,"time":18.847916666666674,"velocity":0.5905511811023622,"duration":0.18333333333333357},{"name":"C#5","midi":73,"time":19.033333333333342,"velocity":0.5905511811023622,"duration":0.185416666666665},{"name":"E3","midi":52,"time":19.033333333333342,"velocity":0.5669291338582677,"duration":0.375},{"name":"A#4","midi":70,"time":19.220833333333342,"velocity":0.5905511811023622,"duration":0.185416666666665},{"name":"F#4","midi":66,"time":19.408333333333342,"velocity":0.5669291338582677,"duration":1.2895833333333435},{"name":"D#3","midi":51,"time":19.410416666666677,"velocity":0.5669291338582677,"duration":0.18124999999999858},{"name":"E3","midi":52,"time":19.591666666666676,"velocity":0.5669291338582677,"duration":0.185416666666665},{"name":"B3","midi":59,"time":19.779166666666676,"velocity":0.5669291338582677,"duration":0.18333333333333357},{"name":"F#3","midi":54,"time":19.779166666666676,"velocity":0.5669291338582677,"duration":0.18124999999999858},{"name":"A3","midi":57,"time":19.96250000000001,"velocity":0.5669291338582677,"duration":0.18541666666666856},{"name":"D#3","midi":51,"time":19.964583333333344,"velocity":0.5669291338582677,"duration":0.18333333333333357},{"name":"C#4","midi":61,"time":20.150000000000013,"velocity":0.5669291338582677,"duration":0.18333333333333357},{"name":"F3","midi":53,"time":20.150000000000013,"velocity":0.5669291338582677,"duration":0.18333333333333357},{"name":"G#3","midi":56,"time":20.33541666666668,"velocity":0.5669291338582677,"duration":0.17916666666666714},{"name":"B3","midi":59,"time":20.33541666666668,"velocity":0.5669291338582677,"duration":0.18125000000000213},{"name":"D4","midi":62,"time":20.516666666666683,"velocity":0.5669291338582677,"duration":0.3666666666666707},{"name":"B3","midi":59,"time":20.51875000000002,"velocity":0.5669291338582677,"duration":0.3625000000000007},{"name":"F4","midi":65,"time":20.697916666666686,"velocity":0.5669291338582677,"duration":0.18333333333333357},{"name":"F#4","midi":66,"time":20.883333333333354,"velocity":0.5669291338582677,"duration":0.18333333333333357},{"name":"C#4","midi":61,"time":20.88541666666669,"velocity":0.5669291338582677,"duration":0.36875000000000213},{"name":"A3","midi":57,"time":20.88541666666669,"velocity":0.5669291338582677,"duration":0.36875000000000213},{"name":"F4","midi":65,"time":21.068750000000023,"velocity":0.5669291338582677,"duration":0.18333333333333357},{"name":"B3","midi":59,"time":21.256250000000026,"velocity":0.5669291338582677,"duration":0.33333333333333215},{"name":"F#4","midi":66,"time":21.256250000000026,"velocity":0.5669291338582677,"duration":0.18333333333333357},{"name":"G#3","midi":56,"time":21.25833333333336,"velocity":0.5669291338582677,"duration":0.3687499999999986},{"name":"G#4","midi":68,"time":21.43958333333336,"velocity":0.5984251968503937,"duration":0.1875},{"name":"F#3","midi":54,"time":21.629166666666695,"velocity":0.5669291338582677,"duration":1.1083333333333343},{"name":"C#4","midi":61,"time":21.629166666666695,"velocity":0.5669291338582677,"duration":0.18124999999999858},{"name":"D#4","midi":63,"time":21.81250000000003,"velocity":0.5669291338582677,"duration":0.185416666666665},{"name":"E4","midi":64,"time":21.997916666666693,"velocity":0.5669291338582677,"duration":0.18333333333333357},{"name":"A3","midi":57,"time":22.00000000000003,"velocity":0.5669291338582677,"duration":0.18124999999999858},{"name":"C#4","midi":61,"time":22.183333333333362,"velocity":0.5669291338582677,"duration":0.185416666666665},{"name":"G#3","midi":56,"time":22.183333333333362,"velocity":0.5669291338582677,"duration":0.185416666666665},{"name":"D#4","midi":63,"time":22.368750000000027,"velocity":0.5669291338582677,"duration":0.18541666666666856},{"name":"A3","midi":57,"time":22.370833333333362,"velocity":0.5669291338582677,"duration":0.18333333333333357},{"name":"F#4","midi":66,"time":22.554166666666696,"velocity":0.5669291338582677,"duration":0.18333333333333357},{"name":"F#3","midi":54,"time":22.55625000000003,"velocity":0.5669291338582677,"duration":0.33541666666666714},{"name":"A4","midi":69,"time":22.739583333333364,"velocity":0.5984251968503937,"duration":0.36875000000000213},{"name":"C4","midi":60,"time":22.7416666666667,"velocity":0.5669291338582677,"duration":0.36458333333333215},{"name":"F#3","midi":54,"time":22.925000000000033,"velocity":0.5669291338582677,"duration":0.18124999999999858},{"name":"G#4","midi":68,"time":23.108333333333366,"velocity":0.5984251968503937,"duration":0.3666666666666707},{"name":"E3","midi":52,"time":23.108333333333366,"velocity":0.5669291338582677,"duration":0.18125000000000213},{"name":"C#4","midi":61,"time":23.1104166666667,"velocity":0.5669291338582677,"duration":0.3625000000000007},{"name":"D#3","midi":51,"time":23.291666666666703,"velocity":0.5669291338582677,"duration":0.18124999999999858},{"name":"C#3","midi":49,"time":23.475000000000037,"velocity":0.5669291338582677,"duration":0.1770833333333357},{"name":"F#4","midi":66,"time":23.475000000000037,"velocity":0.5669291338582677,"duration":0.36041666666666927},{"name":"D#4","midi":63,"time":23.477083333333372,"velocity":0.5669291338582677,"duration":0.3583333333333343},{"name":"C3","midi":48,"time":23.652083333333373,"velocity":0.5669291338582677,"duration":0.18124999999999858},{"name":"C#3","midi":49,"time":23.83750000000004,"velocity":0.5669291338582677,"duration":1.1166666666666707},{"name":"E4","midi":64,"time":23.83750000000004,"velocity":0.5669291338582677,"duration":0.7416666666666671},{"name":"G#3","midi":56,"time":23.839583333333376,"velocity":0.5669291338582677,"duration":0.17916666666666714},{"name":"A#3","midi":58,"time":24.018750000000043,"velocity":0.5669291338582677,"duration":0.185416666666665},{"name":"B3","midi":59,"time":24.20416666666671,"velocity":0.5669291338582677,"duration":0.185416666666665},{"name":"G#3","midi":56,"time":24.39166666666671,"velocity":0.5669291338582677,"duration":0.185416666666665},{"name":"C#5","midi":73,"time":24.57916666666671,"velocity":0.5984251968503937,"duration":0.37291666666666856},{"name":"A#3","midi":58,"time":24.581250000000043,"velocity":0.5669291338582677,"duration":0.18333333333333357},{"name":"C#4","midi":61,"time":24.764583333333377,"velocity":0.5669291338582677,"duration":0.1875},{"name":"A#4","midi":70,"time":24.954166666666712,"velocity":0.5984251968503937,"duration":1.1187500000000057},{"name":"E4","midi":64,"time":24.956250000000047,"velocity":0.5669291338582677,"duration":0.37291666666666856},{"name":"G2","midi":43,"time":24.956250000000047,"velocity":0.5669291338582677,"duration":0.18333333333333357},{"name":"C#4","midi":61,"time":25.141666666666715,"velocity":0.5669291338582677,"duration":0.185416666666665},{"name":"D#4","midi":63,"time":25.329166666666715,"velocity":0.5669291338582677,"duration":0.37083333333333357},{"name":"B3","midi":59,"time":25.33125000000005,"velocity":0.5669291338582677,"duration":0.18333333333333357},{"name":"A#3","midi":58,"time":25.514583333333384,"velocity":0.5669291338582677,"duration":0.185416666666665},{"name":"C#4","midi":61,"time":25.702083333333384,"velocity":0.5669291338582677,"duration":0.3687499999999986},{"name":"G#3","midi":56,"time":25.702083333333384,"velocity":0.5669291338582677,"duration":0.18124999999999858},{"name":"G3","midi":55,"time":25.885416666666718,"velocity":0.5669291338582677,"duration":0.185416666666665},{"name":"B3","midi":59,"time":26.072916666666718,"velocity":0.5669291338582677,"duration":1.0833333333333357},{"name":"G#3","midi":56,"time":26.075000000000053,"velocity":0.5669291338582677,"duration":1.2375000000000007},{"name":"G#4","midi":68,"time":26.250000000000053,"velocity":0.5984251968503937,"duration":0.18124999999999858},{"name":"G4","midi":67,"time":26.433333333333387,"velocity":0.5669291338582677,"duration":0.17708333333333215},{"name":"A#4","midi":70,"time":26.61041666666672,"velocity":0.5984251968503937,"duration":0.17916666666666714},{"name":"G#4","midi":68,"time":26.79166666666672,"velocity":0.5984251968503937,"duration":0.18124999999999858},{"name":"F4","midi":65,"time":26.97291666666672,"velocity":0.5669291338582677,"duration":0.18333333333333357},{"name":"A#3","midi":58,"time":27.15833333333339,"velocity":0.5669291338582677,"duration":1.4666666666666686},{"name":"D4","midi":62,"time":27.15833333333339,"velocity":0.5669291338582677,"duration":0.37083333333333},{"name":"G#3","midi":56,"time":27.343750000000053,"velocity":0.5669291338582677,"duration":0.185416666666665},{"name":"D#4","midi":63,"time":27.531250000000053,"velocity":0.5669291338582677,"duration":0.36666666666666714},{"name":"F#3","midi":54,"time":27.531250000000053,"velocity":0.5669291338582677,"duration":0.18124999999999858},{"name":"F3","midi":53,"time":27.714583333333387,"velocity":0.5669291338582677,"duration":0.18333333333333357},{"name":"D#3","midi":51,"time":27.900000000000055,"velocity":0.5669291338582677,"duration":0.17708333333333215},{"name":"F4","midi":65,"time":27.900000000000055,"velocity":0.5669291338582677,"duration":0.3604166666666657},{"name":"D3","midi":50,"time":28.077083333333388,"velocity":0.5669291338582677,"duration":0.18124999999999858},{"name":"F#4","midi":66,"time":28.26041666666672,"velocity":0.5669291338582677,"duration":1.1062500000000064},{"name":"D#3","midi":51,"time":28.262500000000056,"velocity":0.5669291338582677,"duration":0.17708333333333215},{"name":"F3","midi":53,"time":28.43958333333339,"velocity":0.5669291338582677,"duration":0.18333333333333357},{"name":"D#4","midi":63,"time":28.625000000000057,"velocity":0.5669291338582677,"duration":0.37291666666666856},{"name":"F#3","midi":54,"time":28.625000000000057,"velocity":0.5669291338582677,"duration":0.18333333333333357},{"name":"A#2","midi":46,"time":28.810416666666725,"velocity":0.5669291338582677,"duration":0.1875},{"name":"G#3","midi":56,"time":29.00000000000006,"velocity":0.5669291338582677,"duration":0.7270833333333329},{"name":"B2","midi":47,"time":29.00000000000006,"velocity":0.5669291338582677,"duration":0.18124999999999858},{"name":"D#3","midi":51,"time":29.18125000000006,"velocity":0.5669291338582677,"duration":0.18333333333333357},{"name":"F4","midi":65,"time":29.366666666666728,"velocity":0.5669291338582677,"duration":1.100000000000005},{"name":"C#3","midi":49,"time":29.368750000000063,"velocity":0.5669291338582677,"duration":0.17708333333333215},{"name":"D#3","midi":51,"time":29.545833333333395,"velocity":0.5669291338582677,"duration":0.18124999999999858},{"name":"C#4","midi":61,"time":29.72916666666673,"velocity":0.5669291338582677,"duration":0.36666666666666714},{"name":"F3","midi":53,"time":29.72916666666673,"velocity":0.5669291338582677,"duration":0.18124999999999858},{"name":"G#2","midi":44,"time":29.912500000000062,"velocity":0.5669291338582677,"duration":0.18333333333333357},{"name":"F#3","midi":54,"time":30.09791666666673,"velocity":0.5669291338582677,"duration":0.7270833333333364},{"name":"A#2","midi":46,"time":30.09791666666673,"velocity":0.5669291338582677,"duration":0.18333333333333357},{"name":"C#3","midi":49,"time":30.281250000000064,"velocity":0.5669291338582677,"duration":0.18333333333333357},{"name":"D#4","midi":63,"time":30.466666666666733,"velocity":0.5669291338582677,"duration":0.5395833333333364},{"name":"B2","midi":47,"time":30.468750000000068,"velocity":0.5669291338582677,"duration":0.17708333333333215},{"name":"C#3","midi":49,"time":30.6458333333334,"velocity":0.5669291338582677,"duration":0.17916666666666714},{"name":"B3","midi":59,"time":30.827083333333402,"velocity":0.5669291338582677,"duration":0.8666666666666742},{"name":"D#3","midi":51,"time":30.827083333333402,"velocity":0.5669291338582677,"duration":0.17708333333333215},{"name":"D#4","midi":63,"time":31.00625000000007,"velocity":0.5669291338582677,"duration":0.1770833333333357},{"name":"F#2","midi":42,"time":31.008333333333404,"velocity":0.5669291338582677,"duration":0.1750000000000007},{"name":"F4","midi":65,"time":31.18541666666674,"velocity":0.5669291338582677,"duration":0.17916666666666714},{"name":"G#2","midi":44,"time":31.18541666666674,"velocity":0.5669291338582677,"duration":0.17708333333333215},{"name":"F#4","midi":66,"time":31.364583333333407,"velocity":0.5669291338582677,"duration":0.17916666666666714},{"name":"B2","midi":47,"time":31.36666666666674,"velocity":0.5669291338582677,"duration":0.17708333333333215},{"name":"G#4","midi":68,"time":31.54583333333341,"velocity":0.5984251968503937,"duration":0.5395833333333364},{"name":"D2","midi":38,"time":31.54583333333341,"velocity":0.5669291338582677,"duration":0.3604166666666657},{"name":"B3","midi":59,"time":31.72291666666674,"velocity":0.5669291338582677,"duration":0.18333333333333357},{"name":"A#3","midi":58,"time":31.906250000000075,"velocity":0.5669291338582677,"duration":0.872916666666665},{"name":"D3","midi":50,"time":31.90833333333341,"velocity":0.5669291338582677,"duration":0.35625000000000284},{"name":"D4","midi":62,"time":32.085416666666745,"velocity":0.5669291338582677,"duration":0.17916666666666714},{"name":"F4","midi":65,"time":32.266666666666744,"velocity":0.5669291338582677,"duration":0.1770833333333357},{"name":"A#2","midi":46,"time":32.266666666666744,"velocity":0.5669291338582677,"duration":0.3604166666666657},{"name":"G#4","midi":68,"time":32.44583333333341,"velocity":0.5984251968503937,"duration":0.17916666666666714},{"name":"F#4","midi":66,"time":32.62708333333341,"velocity":0.5669291338582677,"duration":0.5458333333333272},{"name":"D#3","midi":51,"time":32.62916666666674,"velocity":0.5669291338582677,"duration":0.18124999999999858},{"name":"A#3","midi":58,"time":32.81041666666674,"velocity":0.5669291338582677,"duration":0.18333333333333002},{"name":"F3","midi":53,"time":32.81250000000007,"velocity":0.5669291338582677,"duration":0.17916666666666714},{"name":"D#4","midi":63,"time":32.99375000000007,"velocity":0.5669291338582677,"duration":0.7270833333333258},{"name":"F#3","midi":54,"time":32.9958333333334,"velocity":0.5669291338582677,"duration":0.1770833333333357},{"name":"F#4","midi":66,"time":33.17500000000007,"velocity":0.5669291338582677,"duration":0.1770833333333357},{"name":"D#3","midi":51,"time":33.17500000000007,"velocity":0.5669291338582677,"duration":0.1770833333333357},{"name":"G#4","midi":68,"time":33.354166666666735,"velocity":0.5984251968503937,"duration":0.18124999999999858},{"name":"F3","midi":53,"time":33.354166666666735,"velocity":0.5669291338582677,"duration":0.17916666666666714},{"name":"B4","midi":71,"time":33.535416666666734,"velocity":0.5984251968503937,"duration":0.18333333333333002},{"name":"G#3","midi":56,"time":33.537500000000065,"velocity":0.5669291338582677,"duration":0.18124999999999858},{"name":"F#4","midi":66,"time":33.720833333333395,"velocity":0.5669291338582677,"duration":0.06458333333333144},{"name":"D4","midi":62,"time":33.72291666666673,"velocity":0.5669291338582677,"duration":1.1166666666666671},{"name":"B3","midi":59,"time":33.72291666666673,"velocity":0.5669291338582677,"duration":0.37708333333333144},{"name":"F4","midi":65,"time":33.78750000000006,"velocity":0.5669291338582677,"duration":0.06875000000000142},{"name":"F#4","midi":66,"time":33.85833333333339,"velocity":0.5669291338582677,"duration":0.06875000000000142},{"name":"F4","midi":65,"time":33.929166666666724,"velocity":0.5669291338582677,"duration":0.06875000000000142},{"name":"F#4","midi":66,"time":34.00000000000006,"velocity":0.5669291338582677,"duration":0.06875000000000142},{"name":"F4","midi":65,"time":34.06875000000006,"velocity":0.5669291338582677,"duration":0.07083333333333286},{"name":"A#3","midi":58,"time":34.10000000000006,"velocity":0.5669291338582677,"duration":0.37291666666666856},{"name":"F#4","midi":66,"time":34.14166666666672,"velocity":0.5669291338582677,"duration":0.06875000000000142},{"name":"F4","midi":65,"time":34.210416666666724,"velocity":0.5669291338582677,"duration":0.62916666666667},{"name":"G#3","midi":56,"time":34.47291666666673,"velocity":0.5669291338582677,"duration":0.3645833333333357},{"name":"F#3","midi":54,"time":34.841666666666725,"velocity":0.5669291338582677,"duration":0.17916666666666714},{"name":"D#4","midi":63,"time":34.841666666666725,"velocity":0.5669291338582677,"duration":0.3645833333333286},{"name":"F4","midi":65,"time":35.02083333333339,"velocity":0.5669291338582677,"duration":0.18333333333333002},{"name":"G#3","midi":56,"time":35.022916666666724,"velocity":0.5669291338582677,"duration":0.18124999999999858},{"name":"F#4","midi":66,"time":35.206250000000054,"velocity":0.5669291338582677,"duration":0.17916666666666003},{"name":"A#3","midi":58,"time":35.208333333333385,"velocity":0.5669291338582677,"duration":0.17499999999999716},{"name":"D#4","midi":63,"time":35.385416666666714,"velocity":0.5669291338582677,"duration":0.17916666666666714},{"name":"F#3","midi":54,"time":35.387500000000045,"velocity":0.5669291338582677,"duration":0.1770833333333357},{"name":"F4","midi":65,"time":35.56666666666671,"velocity":0.5669291338582677,"duration":0.18333333333333712},{"name":"G#3","midi":56,"time":35.56666666666671,"velocity":0.5669291338582677,"duration":0.1770833333333357},{"name":"G#4","midi":68,"time":35.74583333333338,"velocity":0.5905511811023622,"duration":0.1770833333333357},{"name":"B3","midi":59,"time":35.74583333333338,"velocity":0.5669291338582677,"duration":0.17916666666666714},{"name":"B4","midi":71,"time":35.922916666666715,"velocity":0.5905511811023622,"duration":0.36249999999999005},{"name":"D3","midi":50,"time":35.92500000000005,"velocity":0.5669291338582677,"duration":0.17499999999999716},{"name":"D#3","midi":51,"time":36.100000000000044,"velocity":0.5669291338582677,"duration":0.18333333333333002},{"name":"A#4","midi":70,"time":36.285416666666706,"velocity":0.5905511811023622,"duration":0.37083333333333},{"name":"F3","midi":53,"time":36.28750000000004,"velocity":0.5669291338582677,"duration":0.18333333333333002},{"name":"A#2","midi":46,"time":36.47083333333337,"velocity":0.5669291338582677,"duration":0.18541666666666856},{"name":"G#4","midi":68,"time":36.65833333333337,"velocity":0.5905511811023622,"duration":0.3687499999999986},{"name":"D3","midi":50,"time":36.65833333333337,"velocity":0.5669291338582677,"duration":0.18124999999999858},{"name":"F3","midi":53,"time":36.8416666666667,"velocity":0.5669291338582677,"duration":0.18541666666666856},{"name":"D#3","midi":51,"time":37.0291666666667,"velocity":0.5669291338582677,"duration":1.0958333333333243},{"name":"F#4","midi":66,"time":37.0291666666667,"velocity":0.5669291338582677,"duration":0.9145833333333258},{"name":"D#4","midi":63,"time":37.03125000000003,"velocity":0.5669291338582677,"duration":0.17916666666666714},{"name":"C#4","midi":61,"time":37.21250000000003,"velocity":0.5669291338582677,"duration":0.18541666666666856},{"name":"B3","midi":59,"time":37.397916666666696,"velocity":0.5669291338582677,"duration":0.18124999999999858},{"name":"D#4","midi":63,"time":37.579166666666694,"velocity":0.5669291338582677,"duration":0.18333333333333002},{"name":"C#4","midi":61,"time":37.764583333333356,"velocity":0.5669291338582677,"duration":0.17916666666666714},{"name":"G#4","midi":68,"time":37.945833333333354,"velocity":0.5905511811023622,"duration":0.17916666666666714},{"name":"A#3","midi":58,"time":37.945833333333354,"velocity":0.5669291338582677,"duration":0.1770833333333357},{"name":"A#4","midi":70,"time":38.12500000000002,"velocity":0.5905511811023622,"duration":0.17499999999999716},{"name":"C#3","midi":49,"time":38.12500000000002,"velocity":0.5669291338582677,"duration":1.07708333333332},{"name":"G3","midi":55,"time":38.12708333333335,"velocity":0.5669291338582677,"duration":0.35208333333333286},{"name":"B4","midi":71,"time":38.30208333333335,"velocity":0.5905511811023622,"duration":0.1770833333333357},{"name":"C#5","midi":73,"time":38.48125000000002,"velocity":0.5905511811023622,"duration":0.17499999999999716},{"name":"G#3","midi":56,"time":38.48125000000002,"velocity":0.5669291338582677,"duration":0.3583333333333272},{"name":"A#4","midi":70,"time":38.658333333333346,"velocity":0.5905511811023622,"duration":0.18124999999999858},{"name":"B4","midi":71,"time":38.841666666666676,"velocity":0.5905511811023622,"duration":0.1770833333333357},{"name":"A#3","midi":58,"time":38.841666666666676,"velocity":0.5669291338582677,"duration":0.7145833333333229},{"name":"C#5","midi":73,"time":39.02083333333334,"velocity":0.5905511811023622,"duration":0.17916666666666714},{"name":"D#5","midi":75,"time":39.20208333333334,"velocity":0.5905511811023622,"duration":0.1770833333333286},{"name":"B2","midi":47,"time":39.20416666666667,"velocity":0.5669291338582677,"duration":1.0604166666666544},{"name":"C#5","midi":73,"time":39.37916666666667,"velocity":0.5905511811023622,"duration":0.17499999999999716},{"name":"B4","midi":71,"time":39.55625,"velocity":0.5905511811023622,"duration":0.17291666666666572},{"name":"G#3","midi":56,"time":39.55833333333333,"velocity":0.5669291338582677,"duration":0.3500000000000014},{"name":"D#5","midi":75,"time":39.729166666666664,"velocity":0.5905511811023622,"duration":0.1770833333333357},{"name":"C#5","midi":73,"time":39.90833333333333,"velocity":0.5905511811023622,"duration":0.1770833333333286},{"name":"E4","midi":64,"time":39.91041666666666,"velocity":0.5669291338582677,"duration":0.71458333333333},{"name":"A#4","midi":70,"time":40.08541666666666,"velocity":0.5905511811023622,"duration":0.1770833333333357},{"name":"G4","midi":67,"time":40.26458333333333,"velocity":0.5669291338582677,"duration":0.3604166666666657},{"name":"A#2","midi":46,"time":40.26666666666666,"velocity":0.5669291338582677,"duration":0.1770833333333357},{"name":"C#3","midi":49,"time":40.443749999999994,"velocity":0.5669291338582677,"duration":0.17916666666666714},{"name":"G#4","midi":68,"time":40.62499999999999,"velocity":0.5905511811023622,"duration":0.3604166666666586},{"name":"D#4","midi":63,"time":40.627083333333324,"velocity":0.5669291338582677,"duration":0.3583333333333272},{"name":"B2","midi":47,"time":40.627083333333324,"velocity":0.5669291338582677,"duration":0.17499999999999716},{"name":"A#2","midi":46,"time":40.80416666666665,"velocity":0.5669291338582677,"duration":0.17916666666666714},{"name":"A#4","midi":70,"time":40.98749999999998,"velocity":0.5905511811023622,"duration":0.35624999999999574},{"name":"C#4","midi":61,"time":40.98749999999998,"velocity":0.5669291338582677,"duration":0.3541666666666643},{"name":"G#2","midi":44,"time":40.98749999999998,"velocity":0.5669291338582677,"duration":0.17291666666666572},{"name":"G2","midi":43,"time":41.16249999999998,"velocity":0.5669291338582677,"duration":0.17916666666666714},{"name":"B4","midi":71,"time":41.34374999999998,"velocity":0.5905511811023622,"duration":0.5333333333333172},{"name":"B3","midi":59,"time":41.34583333333331,"velocity":0.5669291338582677,"duration":0.1770833333333286},{"name":"G#2","midi":44,"time":41.34583333333331,"velocity":0.5669291338582677,"duration":0.17499999999999716},{"name":"D#4","midi":63,"time":41.52291666666664,"velocity":0.5669291338582677,"duration":0.1770833333333286},{"name":"F#2","midi":42,"time":41.52499999999997,"velocity":0.5669291338582677,"duration":0.17499999999999716},{"name":"G#4","midi":68,"time":41.69999999999997,"velocity":0.5905511811023622,"duration":0.7083333333333215},{"name":"E2","midi":40,"time":41.7020833333333,"velocity":0.5669291338582677,"duration":0.17499999999999716},{"name":"A#4","midi":70,"time":41.87916666666663,"velocity":0.5905511811023622,"duration":0.1770833333333357},{"name":"G#2","midi":44,"time":41.87916666666663,"velocity":0.5669291338582677,"duration":0.1770833333333357},{"name":"C5","midi":72,"time":42.058333333333294,"velocity":0.5905511811023622,"duration":0.1770833333333286},{"name":"F#2","midi":42,"time":42.058333333333294,"velocity":0.5669291338582677,"duration":0.17499999999999716},{"name":"C#5","midi":73,"time":42.23541666666662,"velocity":0.5905511811023622,"duration":0.17291666666666572},{"name":"D#2","midi":39,"time":42.23541666666662,"velocity":0.5669291338582677,"duration":0.17291666666666572},{"name":"D#5","midi":75,"time":42.41041666666662,"velocity":0.5905511811023622,"duration":1.0604166666666544},{"name":"F#4","midi":66,"time":42.41249999999995,"velocity":0.5669291338582677,"duration":0.16875000000000284},{"name":"C2","midi":36,"time":42.41249999999995,"velocity":0.5669291338582677,"duration":0.34583333333333144},{"name":"G#4","midi":68,"time":42.583333333333286,"velocity":0.5905511811023622,"duration":0.17499999999999716},{"name":"A4","midi":69,"time":42.75833333333328,"velocity":0.5905511811023622,"duration":0.17499999999999716},{"name":"C#2","midi":37,"time":42.760416666666615,"velocity":0.5669291338582677,"duration":0.35208333333333286},{"name":"F#4","midi":66,"time":42.93541666666661,"velocity":0.5669291338582677,"duration":0.1770833333333357},{"name":"C#5","midi":73,"time":43.11458333333328,"velocity":0.5905511811023622,"duration":0.17291666666666572},{"name":"D#2","midi":39,"time":43.11458333333328,"velocity":0.5669291338582677,"duration":0.3541666666666643},{"name":"C5","midi":72,"time":43.289583333333276,"velocity":0.5905511811023622,"duration":0.17916666666666714},{"name":"C#5","midi":73,"time":43.470833333333275,"velocity":0.5905511811023622,"duration":0.7249999999999943},{"name":"E2","midi":40,"time":43.472916666666606,"velocity":0.5669291338582677,"duration":0.1770833333333357},{"name":"D#5","midi":75,"time":43.64999999999994,"velocity":0.5905511811023622,"duration":0.18333333333333002},{"name":"F#2","midi":42,"time":43.65208333333327,"velocity":0.5669291338582677,"duration":0.17916666666666714},{"name":"E5","midi":76,"time":43.83333333333327,"velocity":0.5905511811023622,"duration":0.18124999999999858},{"name":"G#2","midi":44,"time":43.8354166666666,"velocity":0.5669291338582677,"duration":0.17916666666666714},{"name":"C#5","midi":73,"time":44.0166666666666,"velocity":0.5905511811023622,"duration":0.5374999999999943},{"name":"E2","midi":40,"time":44.0166666666666,"velocity":0.5669291338582677,"duration":0.1770833333333357},{"name":"D#5","midi":75,"time":44.19583333333327,"velocity":0.5905511811023622,"duration":0.1770833333333286},{"name":"F#2","midi":42,"time":44.1979166666666,"velocity":0.5669291338582677,"duration":0.17499999999999716},{"name":"F#5","midi":78,"time":44.37499999999993,"velocity":0.5433070866141733,"duration":0.1770833333333357},{"name":"A2","midi":45,"time":44.37499999999993,"velocity":0.5669291338582677,"duration":0.1770833333333357},{"name":"A5","midi":81,"time":44.554166666666596,"velocity":0.5433070866141733,"duration":0.3583333333333272},{"name":"C5","midi":72,"time":44.55624999999993,"velocity":0.5905511811023622,"duration":0.3541666666666643},{"name":"D#2","midi":39,"time":44.55624999999993,"velocity":0.5669291338582677,"duration":0.17291666666666572},{"name":"E2","midi":40,"time":44.731249999999925,"velocity":0.5669291338582677,"duration":0.17916666666666714},{"name":"G#5","midi":80,"time":44.91249999999992,"velocity":0.5433070866141733,"duration":0.3604166666666586},{"name":"C#5","midi":73,"time":44.914583333333255,"velocity":0.5905511811023622,"duration":0.35624999999999574},{"name":"F#2","midi":42,"time":44.914583333333255,"velocity":0.5669291338582677,"duration":0.17499999999999716},{"name":"G#2","midi":44,"time":45.09166666666658,"velocity":0.5669291338582677,"duration":0.17916666666666714},{"name":"F#5","midi":78,"time":45.27291666666658,"velocity":0.5433070866141733,"duration":0.35624999999999574},{"name":"D#5","midi":75,"time":45.27499999999991,"velocity":0.5905511811023622,"duration":0.7166666666666615},{"name":"A#2","midi":46,"time":45.27499999999991,"velocity":0.5669291338582677,"duration":0.17499999999999716},{"name":"C3","midi":48,"time":45.44999999999991,"velocity":0.5669291338582677,"duration":0.1770833333333357},{"name":"E5","midi":76,"time":45.62916666666658,"velocity":0.5905511811023622,"duration":1.4437499999999943},{"name":"C#3","midi":49,"time":45.63124999999991,"velocity":0.5669291338582677,"duration":0.1770833333333357},{"name":"D#3","midi":51,"time":45.808333333333245,"velocity":0.5669291338582677,"duration":0.18124999999999858},{"name":"C#5","midi":73,"time":45.991666666666575,"velocity":0.5905511811023622,"duration":0.3583333333333343},{"name":"E3","midi":52,"time":45.993749999999906,"velocity":0.5669291338582677,"duration":0.1770833333333357},{"name":"C#3","midi":49,"time":46.17083333333324,"velocity":0.5669291338582677,"duration":0.17916666666666714},{"name":"B4","midi":71,"time":46.35208333333324,"velocity":0.5905511811023622,"duration":0.36249999999999716},{"name":"E3","midi":52,"time":46.35208333333324,"velocity":0.5669291338582677,"duration":0.18124999999999858},{"name":"G#3","midi":56,"time":46.53333333333324,"velocity":0.5669291338582677,"duration":0.17916666666666714},{"name":"A#4","midi":70,"time":46.71458333333324,"velocity":0.5905511811023622,"duration":1.433333333333323},{"name":"F#3","midi":54,"time":46.71458333333324,"velocity":0.5669291338582677,"duration":0.17916666666666714},{"name":"G#3","midi":56,"time":46.893749999999905,"velocity":0.5669291338582677,"duration":0.17916666666666714},{"name":"F#5","midi":78,"time":47.0749999999999,"velocity":0.5433070866141733,"duration":0.3541666666666643},{"name":"A#3","midi":58,"time":47.0749999999999,"velocity":0.5669291338582677,"duration":0.17499999999999716},{"name":"F#3","midi":54,"time":47.25208333333323,"velocity":0.5669291338582677,"duration":0.1770833333333357},{"name":"E5","midi":76,"time":47.4312499999999,"velocity":0.5905511811023622,"duration":0.3604166666666657},{"name":"A#3","midi":58,"time":47.4312499999999,"velocity":0.5669291338582677,"duration":0.17916666666666714},{"name":"C#4","midi":61,"time":47.6124999999999,"velocity":0.5669291338582677,"duration":0.17916666666666714},{"name":"D#5","midi":75,"time":47.793749999999896,"velocity":0.5905511811023622,"duration":1.4145833333333044},{"name":"B2","midi":47,"time":47.793749999999896,"velocity":0.5669291338582677,"duration":0.17499999999999716},{"name":"C#3","midi":49,"time":47.970833333333225,"velocity":0.5669291338582677,"duration":0.1770833333333357},{"name":"B4","midi":71,"time":48.14999999999989,"velocity":0.5905511811023622,"duration":0.3499999999999943},{"name":"D#3","midi":51,"time":48.14999999999989,"velocity":0.5669291338582677,"duration":0.17291666666666572},{"name":"B2","midi":47,"time":48.32499999999989,"velocity":0.5669291338582677,"duration":0.17499999999999716},{"name":"A#4","midi":70,"time":48.499999999999886,"velocity":0.5905511811023622,"duration":0.3541666666666572},{"name":"D#3","midi":51,"time":48.50208333333322,"velocity":0.5669291338582677,"duration":0.17499999999999716},{"name":"F#3","midi":54,"time":48.677083333333215,"velocity":0.5669291338582677,"duration":0.17499999999999716},{"name":"G#4","midi":68,"time":48.85416666666654,"velocity":0.5905511811023622,"duration":1.4187499999999744},{"name":"E3","midi":52,"time":48.856249999999875,"velocity":0.5669291338582677,"duration":0.17499999999999716},{"name":"F#3","midi":54,"time":49.03124999999987,"velocity":0.5669291338582677,"duration":0.17499999999999716},{"name":"E5","midi":76,"time":49.2083333333332,"velocity":0.5905511811023622,"duration":0.35208333333332575},{"name":"G#3","midi":56,"time":49.21041666666653,"velocity":0.5669291338582677,"duration":0.17291666666666572},{"name":"E3","midi":52,"time":49.3833333333332,"velocity":0.5669291338582677,"duration":0.17499999999999716},{"name":"D#5","midi":75,"time":49.56041666666653,"velocity":0.5905511811023622,"duration":0.3541666666666572},{"name":"G#3","midi":56,"time":49.56249999999986,"velocity":0.5669291338582677,"duration":0.17499999999999716},{"name":"B3","midi":59,"time":49.737499999999855,"velocity":0.5669291338582677,"duration":0.17499999999999716},{"name":"C#5","midi":73,"time":49.914583333333184,"velocity":0.5905511811023622,"duration":1.42916666666666},{"name":"A#2","midi":46,"time":49.916666666666515,"velocity":0.5669291338582677,"duration":0.1770833333333357},{"name":"B2","midi":47,"time":50.09374999999985,"velocity":0.5669291338582677,"duration":0.1770833333333357},{"name":"A#4","midi":70,"time":50.27291666666652,"velocity":0.5905511811023622,"duration":0.3541666666666643},{"name":"C#3","midi":49,"time":50.27499999999985,"velocity":0.5669291338582677,"duration":0.17499999999999716},{"name":"A#2","midi":46,"time":50.44999999999985,"velocity":0.5669291338582677,"duration":0.1770833333333357},{"name":"G#4","midi":68,"time":50.629166666666514,"velocity":0.5905511811023622,"duration":0.35624999999999574},{"name":"C#3","midi":49,"time":50.629166666666514,"velocity":0.5669291338582677,"duration":0.1770833333333357},{"name":"E3","midi":52,"time":50.80833333333318,"velocity":0.5669291338582677,"duration":0.17499999999999716},{"name":"G4","midi":67,"time":50.98541666666651,"velocity":0.5669291338582677,"duration":1.0729166666666572},{"name":"D#3","midi":51,"time":50.98541666666651,"velocity":0.5669291338582677,"duration":0.1770833333333357},{"name":"F3","midi":53,"time":51.16458333333318,"velocity":0.5669291338582677,"duration":0.17916666666666714},{"name":"D#5","midi":75,"time":51.345833333333175,"velocity":0.5905511811023622,"duration":0.3541666666666643},{"name":"G3","midi":55,"time":51.345833333333175,"velocity":0.5669291338582677,"duration":0.17499999999999716},{"name":"D#3","midi":51,"time":51.522916666666504,"velocity":0.5669291338582677,"duration":0.1770833333333357},{"name":"C#5","midi":73,"time":51.70208333333317,"velocity":0.5905511811023622,"duration":0.35624999999999574},{"name":"G3","midi":55,"time":51.70208333333317,"velocity":0.5669291338582677,"duration":0.17499999999999716},{"name":"A#3","midi":58,"time":51.8791666666665,"velocity":0.5669291338582677,"duration":0.17916666666666714},{"name":"B4","midi":71,"time":52.0604166666665,"velocity":0.5590551181102362,"duration":0.17499999999999716},{"name":"G#3","midi":56,"time":52.0604166666665,"velocity":0.5669291338582677,"duration":0.17291666666666572},{"name":"G#4","midi":68,"time":52.06249999999983,"velocity":0.5275590551181102,"duration":0.3333333333333357},{"name":"A#4","midi":70,"time":52.235416666666495,"velocity":0.5905511811023622,"duration":0.17500000000000426},{"name":"A#3","midi":58,"time":52.235416666666495,"velocity":0.5669291338582677,"duration":0.17500000000000426},{"name":"G#4","midi":68,"time":52.41249999999983,"velocity":0.5905511811023622,"duration":0.17291666666666572},{"name":"B3","midi":59,"time":52.41249999999983,"velocity":0.5669291338582677,"duration":0.17083333333333428},{"name":"B4","midi":71,"time":52.5854166666665,"velocity":0.5905511811023622,"duration":0.17291666666666572},{"name":"D#3","midi":51,"time":52.5854166666665,"velocity":0.5669291338582677,"duration":0.17291666666666572},{"name":"C#5","midi":73,"time":52.760416666666494,"velocity":0.5905511811023622,"duration":0.17083333333333428},{"name":"E3","midi":52,"time":52.760416666666494,"velocity":0.5669291338582677,"duration":0.16875000000000284},{"name":"E5","midi":76,"time":52.93124999999983,"velocity":0.5905511811023622,"duration":0.17083333333333428},{"name":"G#3","midi":56,"time":52.93333333333316,"velocity":0.5669291338582677,"duration":0.16875000000000284},{"name":"A#4","midi":70,"time":53.104166666666494,"velocity":0.5905511811023622,"duration":0.17291666666666572},{"name":"F#3","midi":54,"time":53.104166666666494,"velocity":0.5669291338582677,"duration":0.17083333333333428},{"name":"G#4","midi":68,"time":53.27708333333316,"velocity":0.5905511811023622,"duration":0.17083333333332718},{"name":"G#3","midi":56,"time":53.27916666666649,"velocity":0.5669291338582677,"duration":0.1666666666666643},{"name":"F#4","midi":66,"time":53.44791666666649,"velocity":0.5669291338582677,"duration":0.17083333333333428},{"name":"A#3","midi":58,"time":53.44999999999982,"velocity":0.5669291338582677,"duration":0.16875000000000284},{"name":"A#4","midi":70,"time":53.62083333333315,"velocity":0.5905511811023622,"duration":0.17291666666666572},{"name":"C#3","midi":49,"time":53.62083333333315,"velocity":0.5669291338582677,"duration":0.17083333333333428},{"name":"B4","midi":71,"time":53.79374999999982,"velocity":0.5905511811023622,"duration":0.1770833333333286},{"name":"D#3","midi":51,"time":53.79583333333315,"velocity":0.5669291338582677,"duration":0.17499999999999716},{"name":"D#5","midi":75,"time":53.97291666666648,"velocity":0.5905511811023622,"duration":0.1770833333333286},{"name":"F#3","midi":54,"time":53.97291666666648,"velocity":0.5669291338582677,"duration":0.17499999999999716},{"name":"G#4","midi":68,"time":54.14999999999981,"velocity":0.5905511811023622,"duration":0.17499999999999716},{"name":"E3","midi":52,"time":54.14999999999981,"velocity":0.5669291338582677,"duration":0.17499999999999716},{"name":"D#5","midi":75,"time":54.324999999999804,"velocity":0.5905511811023622,"duration":0.17499999999999716},{"name":"F#3","midi":54,"time":54.327083333333135,"velocity":0.5669291338582677,"duration":0.17291666666666572},{"name":"C#5","midi":73,"time":54.50208333333313,"velocity":0.5905511811023622,"duration":0.17083333333333428},{"name":"G#3","midi":56,"time":54.50208333333313,"velocity":0.5669291338582677,"duration":0.17083333333333428},{"name":"B4","midi":71,"time":54.6749999999998,"velocity":0.5905511811023622,"duration":0.17083333333333428},{"name":"B2","midi":47,"time":54.6749999999998,"velocity":0.5669291338582677,"duration":0.16875000000000284},{"name":"A#4","midi":70,"time":54.84583333333313,"velocity":0.5905511811023622,"duration":0.17291666666666572},{"name":"C#3","midi":49,"time":54.847916666666464,"velocity":0.5669291338582677,"duration":0.17083333333333428},{"name":"G#4","midi":68,"time":55.02083333333313,"velocity":0.5905511811023622,"duration":0.17291666666666572},{"name":"E3","midi":52,"time":55.02083333333313,"velocity":0.5669291338582677,"duration":0.17083333333333428},{"name":"G4","midi":67,"time":55.193749999999795,"velocity":0.5669291338582677,"duration":0.1770833333333286},{"name":"D#3","midi":51,"time":55.19583333333313,"velocity":0.5669291338582677,"duration":0.17499999999999716},{"name":"G#4","midi":68,"time":55.372916666666455,"velocity":0.5905511811023622,"duration":0.1770833333333286},{"name":"F3","midi":53,"time":55.372916666666455,"velocity":0.5669291338582677,"duration":0.17499999999999716},{"name":"A#4","midi":70,"time":55.549999999999784,"velocity":0.5905511811023622,"duration":0.17499999999999716},{"name":"G3","midi":55,"time":55.549999999999784,"velocity":0.5669291338582677,"duration":0.17499999999999716},{"name":"G4","midi":67,"time":55.72499999999978,"velocity":0.5669291338582677,"duration":0.17499999999999716},{"name":"A#2","midi":46,"time":55.72708333333311,"velocity":0.5669291338582677,"duration":0.17083333333333428},{"name":"G#4","midi":68,"time":55.89999999999978,"velocity":0.5905511811023622,"duration":0.6958333333333258},{"name":"B2","midi":47,"time":55.89999999999978,"velocity":0.5669291338582677,"duration":0.17499999999999716},{"name":"B4","midi":71,"time":56.074999999999775,"velocity":0.5905511811023622,"duration":0.1770833333333357},{"name":"D#3","midi":51,"time":56.074999999999775,"velocity":0.5669291338582677,"duration":0.1770833333333357},{"name":"E5","midi":76,"time":56.25416666666644,"velocity":0.5905511811023622,"duration":0.33124999999999716},{"name":"C#3","midi":49,"time":56.25416666666644,"velocity":0.5669291338582677,"duration":0.17916666666666714},{"name":"D#3","midi":51,"time":56.43541666666644,"velocity":0.5669291338582677,"duration":0.17916666666666003},{"name":"G#4","midi":68,"time":56.61666666666643,"velocity":0.5905511811023622,"duration":0.3270833333333343},{"name":"E5","midi":76,"time":56.61666666666643,"velocity":0.5905511811023622,"duration":0.32500000000000284},{"name":"E3","midi":52,"time":56.61666666666643,"velocity":0.5669291338582677,"duration":0.17916666666666714},{"name":"B2","midi":47,"time":56.7958333333331,"velocity":0.5669291338582677,"duration":0.17499999999999716},{"name":"E5","midi":76,"time":56.97291666666643,"velocity":0.5905511811023622,"duration":0.3270833333333272},{"name":"G#4","midi":68,"time":56.97291666666643,"velocity":0.5905511811023622,"duration":0.3291666666666586},{"name":"C#3","midi":49,"time":56.97499999999976,"velocity":0.5669291338582677,"duration":0.17499999999999716},{"name":"E3","midi":52,"time":57.14999999999976,"velocity":0.5669291338582677,"duration":0.18124999999999858},{"name":"C#5","midi":73,"time":57.331249999999756,"velocity":0.5905511811023622,"duration":0.3395833333333229},{"name":"E5","midi":76,"time":57.33333333333309,"velocity":0.5905511811023622,"duration":0.33541666666666003},{"name":"A2","midi":45,"time":57.33333333333309,"velocity":0.5669291338582677,"duration":0.18124999999999858},{"name":"C#3","midi":49,"time":57.51666666666642,"velocity":0.5669291338582677,"duration":0.18333333333333002},{"name":"E5","midi":76,"time":57.70208333333308,"velocity":0.5905511811023622,"duration":0.3437499999999929},{"name":"C#5","midi":73,"time":57.70208333333308,"velocity":0.5905511811023622,"duration":0.3437499999999929},{"name":"E3","midi":52,"time":57.70416666666641,"velocity":0.5669291338582677,"duration":0.18333333333333002},{"name":"G#2","midi":44,"time":57.88749999999974,"velocity":0.5669291338582677,"duration":0.18958333333333144},{"name":"C#5","midi":73,"time":58.07708333333307,"velocity":0.5905511811023622,"duration":0.3479166666666629},{"name":"E5","midi":76,"time":58.0791666666664,"velocity":0.5905511811023622,"duration":0.34583333333333144},{"name":"C#3","midi":49,"time":58.0791666666664,"velocity":0.5669291338582677,"duration":0.1875},{"name":"E3","midi":52,"time":58.268749999999734,"velocity":0.5669291338582677,"duration":0.1875},{"name":"E5","midi":76,"time":58.458333333333066,"velocity":0.5905511811023622,"duration":1.1624999999999943},{"name":"C#5","midi":73,"time":58.458333333333066,"velocity":0.5905511811023622,"duration":0.16874999999999574},{"name":"G2","midi":43,"time":58.4604166666664,"velocity":0.5669291338582677,"duration":1.527083333333323},{"name":"B4","midi":71,"time":58.62708333333306,"velocity":0.5905511811023622,"duration":0.17083333333333428},{"name":"A#4","midi":70,"time":58.797916666666396,"velocity":0.5905511811023622,"duration":0.16875000000000284},{"name":"C#5","midi":73,"time":58.96874999999973,"velocity":0.5905511811023622,"duration":0.17083333333333428},{"name":"B4","midi":71,"time":59.139583333333064,"velocity":0.5905511811023622,"duration":0.1666666666666643},{"name":"G#4","midi":68,"time":59.30833333333306,"velocity":0.5905511811023622,"duration":0.1666666666666643},{"name":"A#4","midi":70,"time":59.474999999999724,"velocity":0.5905511811023622,"duration":1.3812499999999872},{"name":"D#5","midi":75,"time":59.64583333333306,"velocity":0.5905511811023622,"duration":0.1666666666666643},{"name":"C#5","midi":73,"time":59.814583333333054,"velocity":0.5905511811023622,"duration":0.17291666666666572},{"name":"A#5","midi":82,"time":59.98958333333305,"velocity":0.5433070866141733,"duration":0.17291666666666572},{"name":"G3","midi":55,"time":59.98958333333305,"velocity":0.5669291338582677,"duration":0.17083333333333428},{"name":"E5","midi":76,"time":60.16249999999972,"velocity":0.5905511811023622,"duration":0.17499999999999716},{"name":"G#3","midi":56,"time":60.16458333333305,"velocity":0.5669291338582677,"duration":0.17291666666666572},{"name":"C#5","midi":73,"time":60.339583333333046,"velocity":0.5905511811023622,"duration":0.17291666666666572},{"name":"A#3","midi":58,"time":60.339583333333046,"velocity":0.5669291338582677,"duration":0.17083333333333428},{"name":"D#5","midi":75,"time":60.51249999999971,"velocity":0.5905511811023622,"duration":0.17083333333333428},{"name":"B2","midi":47,"time":60.51458333333304,"velocity":0.5669291338582677,"duration":0.6875},{"name":"C#5","midi":73,"time":60.683333333333046,"velocity":0.5905511811023622,"duration":0.17083333333333428},{"name":"G#4","midi":68,"time":60.85624999999971,"velocity":0.5905511811023622,"duration":0.6895833333333314},{"name":"B4","midi":71,"time":60.85833333333304,"velocity":0.5905511811023622,"duration":0.16875000000000284},{"name":"D#5","midi":75,"time":61.027083333333046,"velocity":0.5905511811023622,"duration":0.17499999999999716},{"name":"C#5","midi":73,"time":61.204166666666374,"velocity":0.5905511811023622,"duration":0.16875000000000284},{"name":"E3","midi":52,"time":61.204166666666374,"velocity":0.5669291338582677,"duration":0.3395833333333371},{"name":"A#4","midi":70,"time":61.37291666666638,"velocity":0.5905511811023622,"duration":0.17083333333333428},{"name":"B4","midi":71,"time":61.54583333333304,"velocity":0.5905511811023622,"duration":0.1666666666666643},{"name":"C#3","midi":49,"time":61.547916666666374,"velocity":0.5669291338582677,"duration":0.3374999999999986},{"name":"A#4","midi":70,"time":61.71458333333304,"velocity":0.5905511811023622,"duration":0.16875000000000284},{"name":"G#4","midi":68,"time":61.88541666666637,"velocity":0.5905511811023622,"duration":0.1666666666666643},{"name":"D#3","midi":51,"time":61.887499999999704,"velocity":0.5669291338582677,"duration":0.3333333333333357},{"name":"B4","midi":71,"time":62.05208333333304,"velocity":0.5905511811023622,"duration":0.16875000000000284},{"name":"A#4","midi":70,"time":62.22291666666637,"velocity":0.5905511811023622,"duration":0.16250000000000142},{"name":"D#2","midi":39,"time":62.22291666666637,"velocity":0.5669291338582677,"duration":0.33124999999999716},{"name":"G4","midi":67,"time":62.387499999999704,"velocity":0.5669291338582677,"duration":0.1666666666666643},{"name":"G#4","midi":68,"time":62.5562499999997,"velocity":0.5905511811023622,"duration":9.552083333333307},{"name":"G#2","midi":44,"time":62.5562499999997,"velocity":0.5669291338582677,"duration":0.1666666666666643},{"name":"A#2","midi":46,"time":62.722916666666364,"velocity":0.5669291338582677,"duration":0.16458333333333286},{"name":"F#4","midi":66,"time":62.88958333333303,"velocity":0.5669291338582677,"duration":0.3395833333333371},{"name":"C3","midi":48,"time":62.88958333333303,"velocity":0.5669291338582677,"duration":0.16875000000000284},{"name":"G#2","midi":44,"time":63.05833333333303,"velocity":0.5669291338582677,"duration":0.16875000000000284},{"name":"D#4","midi":63,"time":63.229166666666366,"velocity":0.5669291338582677,"duration":0.34583333333333144},{"name":"C3","midi":48,"time":63.2312499999997,"velocity":0.5669291338582677,"duration":0.16875000000000284},{"name":"D#3","midi":51,"time":63.3999999999997,"velocity":0.5669291338582677,"duration":0.17499999999999716},{"name":"C#4","midi":61,"time":63.5749999999997,"velocity":0.5669291338582677,"duration":0.17291666666666572},{"name":"F#3","midi":54,"time":63.57708333333303,"velocity":0.5669291338582677,"duration":0.34583333333333144},{"name":"C4","midi":60,"time":63.749999999999694,"velocity":0.5669291338582677,"duration":0.17291666666666572},{"name":"E3","midi":52,"time":63.92499999999969,"velocity":0.5669291338582677,"duration":0.34791666666667},{"name":"C#4","midi":61,"time":63.92499999999969,"velocity":0.5669291338582677,"duration":0.17291666666667282},{"name":"D#4","midi":63,"time":64.0999999999997,"velocity":0.5669291338582677,"duration":0.17291666666666572},{"name":"D#3","midi":51,"time":64.2749999999997,"velocity":0.5669291338582677,"duration":0.34166666666666856},{"name":"E4","midi":64,"time":64.2749999999997,"velocity":0.5669291338582677,"duration":0.16875000000000284},{"name":"F#4","midi":66,"time":64.44583333333303,"velocity":0.5669291338582677,"duration":0.17083333333333428},{"name":"C#3","midi":49,"time":64.6187499999997,"velocity":0.5669291338582677,"duration":3.487499999999983},{"name":"E4","midi":64,"time":64.6187499999997,"velocity":0.5669291338582677,"duration":0.17291666666666572},{"name":"D#4","midi":63,"time":64.79374999999969,"velocity":0.5669291338582677,"duration":0.17499999999999716},{"name":"C#4","midi":61,"time":64.96874999999969,"velocity":0.5669291338582677,"duration":0.1770833333333286},{"name":"E4","midi":64,"time":65.14791666666635,"velocity":0.5669291338582677,"duration":0.17499999999999716},{"name":"D#4","midi":63,"time":65.32291666666634,"velocity":0.5669291338582677,"duration":0.41458333333333997},{"name":"A#3","midi":58,"time":65.73958333333302,"velocity":0.5669291338582677,"duration":0.6437499999999972},{"name":"G3","midi":55,"time":66.38541666666634,"velocity":0.5669291338582677,"duration":0.71875},{"name":"E4","midi":64,"time":66.72291666666635,"velocity":0.5669291338582677,"duration":0.3791666666666629},{"name":"D#4","midi":63,"time":67.10416666666634,"velocity":0.5669291338582677,"duration":0.28125},{"name":"G#3","midi":56,"time":67.10624999999968,"velocity":0.5669291338582677,"duration":0.7979166666666657},{"name":"C#4","midi":61,"time":67.38541666666634,"velocity":0.5669291338582677,"duration":0.5166666666666657},{"name":"C4","midi":60,"time":67.90416666666634,"velocity":0.5669291338582677,"duration":0.10625000000000284},{"name":"A#3","midi":58,"time":67.90624999999967,"velocity":0.5669291338582677,"duration":0.20000000000000284},{"name":"C#4","midi":61,"time":68.01249999999968,"velocity":0.5669291338582677,"duration":0.09166666666666856},{"name":"C4","midi":60,"time":68.10833333333301,"velocity":0.5669291338582677,"duration":3.9979166666666686},{"name":"D#4","midi":63,"time":68.10833333333301,"velocity":0.5669291338582677,"duration":4},{"name":"G#2","midi":44,"time":68.11041666666634,"velocity":0.5669291338582677,"duration":3.995833333333337},{"name":"G#3","midi":56,"time":73.46666666666633,"velocity":0.4409448818897638,"duration":0.66458333333334},{"name":"G3","midi":55,"time":74.133333333333,"velocity":0.5669291338582677,"duration":0.3291666666666657},{"name":"G#3","midi":56,"time":74.46249999999966,"velocity":0.5669291338582677,"duration":0.16249999999999432},{"name":"A#3","midi":58,"time":74.62708333333299,"velocity":0.5669291338582677,"duration":0.16249999999999432},{"name":"B3","midi":59,"time":74.79166666666632,"velocity":0.5669291338582677,"duration":0.32500000000000284},{"name":"A#3","midi":58,"time":75.11666666666632,"velocity":0.5669291338582677,"duration":0.32500000000000284},{"name":"G#3","midi":56,"time":75.44374999999965,"velocity":0.5669291338582677,"duration":0.32083333333333997},{"name":"D4","midi":62,"time":75.764583333333,"velocity":0.5669291338582677,"duration":0.32500000000000284},{"name":"D#4","midi":63,"time":76.089583333333,"velocity":0.5669291338582677,"duration":0.3229166666666714},{"name":"F#3","midi":54,"time":76.414583333333,"velocity":0.5669291338582677,"duration":0.32083333333333997},{"name":"G#3","midi":56,"time":76.73541666666634,"velocity":0.5669291338582677,"duration":0.2979166666666657},{"name":"G#3","midi":56,"time":77.05624999999966,"velocity":0.5669291338582677,"duration":0.3229166666666714},{"name":"A#3","midi":58,"time":77.37916666666634,"velocity":0.5669291338582677,"duration":0.3020833333333286},{"name":"A#3","midi":58,"time":77.702083333333,"velocity":0.5669291338582677,"duration":0.3229166666666714},{"name":"D#3","midi":51,"time":78.02499999999966,"velocity":0.5669291338582677,"duration":0.3166666666666629},{"name":"F3","midi":53,"time":78.34166666666633,"velocity":0.5669291338582677,"duration":0.31458333333333144},{"name":"F#3","midi":54,"time":78.65833333333299,"velocity":0.5669291338582677,"duration":0.9458333333333258},{"name":"D#4","midi":63,"time":78.65833333333299,"velocity":0.5669291338582677,"duration":0.6312499999999943},{"name":"C4","midi":60,"time":79.28958333333298,"velocity":0.5669291338582677,"duration":0.3125},{"name":"F3","midi":53,"time":79.60416666666632,"velocity":0.5669291338582677,"duration":0.16041666666666288},{"name":"C#4","midi":61,"time":79.60624999999965,"velocity":0.5669291338582677,"duration":0.15625},{"name":"F#3","midi":54,"time":79.76458333333298,"velocity":0.5669291338582677,"duration":0.15833333333333144},{"name":"D#4","midi":63,"time":79.76666666666631,"velocity":0.5669291338582677,"duration":0.15416666666666856},{"name":"G#3","midi":56,"time":79.92291666666631,"velocity":0.5669291338582677,"duration":0.3187499999999943},{"name":"E4","midi":64,"time":79.92499999999964,"velocity":0.5669291338582677,"duration":0.3166666666666629},{"name":"D#4","midi":63,"time":80.24374999999964,"velocity":0.5669291338582677,"duration":0.3187499999999943},{"name":"G3","midi":55,"time":80.24374999999964,"velocity":0.5669291338582677,"duration":0.15625},{"name":"G#3","midi":56,"time":80.40208333333297,"velocity":0.5669291338582677,"duration":0.15833333333333144},{"name":"A#3","midi":58,"time":80.56249999999963,"velocity":0.5669291338582677,"duration":0.3125},{"name":"C#4","midi":61,"time":80.56458333333296,"velocity":0.5669291338582677,"duration":0.3083333333333371},{"name":"G4","midi":67,"time":80.87499999999963,"velocity":0.5669291338582677,"duration":0.31041666666666856},{"name":"G#3","midi":56,"time":80.87499999999963,"velocity":0.5669291338582677,"duration":0.15416666666666856},{"name":"A#3","midi":58,"time":81.0291666666663,"velocity":0.5669291338582677,"duration":0.15625},{"name":"G#4","midi":68,"time":81.18749999999963,"velocity":0.5826771653543307,"duration":0.31041666666666856},{"name":"B3","midi":59,"time":81.18749999999963,"velocity":0.5669291338582677,"duration":0.28958333333333997},{"name":"G#3","midi":56,"time":81.4979166666663,"velocity":0.5669291338582677,"duration":0.31458333333333144},{"name":"B3","midi":59,"time":81.49999999999963,"velocity":0.5669291338582677,"duration":0.3125},{"name":"A#3","midi":58,"time":81.81458333333296,"velocity":0.5669291338582677,"duration":0.31041666666666856},{"name":"C#4","midi":61,"time":81.81458333333296,"velocity":0.5669291338582677,"duration":0.2854166666666629},{"name":"C#4","midi":61,"time":82.12499999999963,"velocity":0.5669291338582677,"duration":0.31041666666665435},{"name":"G3","midi":55,"time":82.43749999999962,"velocity":0.5669291338582677,"duration":0.3125},{"name":"D#4","midi":63,"time":82.43749999999962,"velocity":0.5669291338582677,"duration":0.28958333333333997},{"name":"D#4","midi":63,"time":82.74999999999962,"velocity":0.5669291338582677,"duration":0.3125},{"name":"G#3","midi":56,"time":83.06249999999962,"velocity":0.5669291338582677,"duration":0.6187500000000057},{"name":"F#3","midi":54,"time":83.37291666666628,"velocity":0.5669291338582677,"duration":0.3062500000000057},{"name":"G#4","midi":68,"time":83.68124999999962,"velocity":0.6062992125984252,"duration":0.6187499999999915},{"name":"C#4","midi":61,"time":83.68333333333295,"velocity":0.5669291338582677,"duration":0.8520833333333258},{"name":"E3","midi":52,"time":83.68333333333295,"velocity":0.5669291338582677,"duration":0.61666666666666},{"name":"D#3","midi":51,"time":84.30208333333294,"velocity":0.5669291338582677,"duration":0.3062500000000057},{"name":"G4","midi":67,"time":84.30208333333294,"velocity":0.5669291338582677,"duration":0.3687500000000057},{"name":"G#4","midi":68,"time":84.61041666666628,"velocity":0.5826771653543307,"duration":0.15416666666666856},{"name":"G#3","midi":56,"time":84.61041666666628,"velocity":0.5669291338582677,"duration":0.6187500000000057},{"name":"B3","midi":59,"time":84.61041666666628,"velocity":0.5669291338582677,"duration":0.15416666666666856},{"name":"A#4","midi":70,"time":84.76666666666628,"velocity":0.5826771653543307,"duration":0.15208333333333712},{"name":"C#4","midi":61,"time":84.76666666666628,"velocity":0.5669291338582677,"duration":0.15208333333333712},{"name":"B4","midi":71,"time":84.92083333333295,"velocity":0.5826771653543307,"duration":0.2750000000000057},{"name":"D#4","midi":63,"time":84.92083333333295,"velocity":0.5669291338582677,"duration":0.3062500000000057},{"name":"A#4","midi":70,"time":85.22916666666629,"velocity":0.5826771653543307,"duration":0.3083333333333371},{"name":"A#3","midi":58,"time":85.23124999999962,"velocity":0.5669291338582677,"duration":0.3062500000000057},{"name":"D4","midi":62,"time":85.23124999999962,"velocity":0.5669291338582677,"duration":0.15000000000000568},{"name":"D#4","midi":63,"time":85.38333333333296,"velocity":0.5669291338582677,"duration":0.15208333333333712},{"name":"G#4","midi":68,"time":85.53958333333296,"velocity":0.5826771653543307,"duration":0.30416666666666003},{"name":"B3","midi":59,"time":85.53958333333296,"velocity":0.5669291338582677,"duration":0.6104166666666657},{"name":"F4","midi":65,"time":85.54166666666629,"velocity":0.5669291338582677,"duration":0.3020833333333286},{"name":"D5","midi":74,"time":85.84374999999962,"velocity":0.5826771653543307,"duration":0.3062500000000057},{"name":"D#4","midi":63,"time":85.84583333333295,"velocity":0.5669291338582677,"duration":0.15208333333333712},{"name":"F4","midi":65,"time":85.99791666666628,"velocity":0.5669291338582677,"duration":0.15208333333333712},{"name":"D#5","midi":75,"time":86.15208333333295,"velocity":0.5826771653543307,"duration":0.3020833333333286},{"name":"A#3","midi":58,"time":86.15208333333295,"velocity":0.5669291338582677,"duration":0.6104166666666515},{"name":"F#4","midi":66,"time":86.15208333333295,"velocity":0.5669291338582677,"duration":0.28125},{"name":"F#4","midi":66,"time":86.45416666666628,"velocity":0.5669291338582677,"duration":0.3083333333333229},{"name":"D#4","midi":63,"time":86.45624999999961,"velocity":0.5669291338582677,"duration":0.30416666666666003},{"name":"G#4","midi":68,"time":86.76458333333294,"velocity":0.5826771653543307,"duration":0.28125},{"name":"G#3","midi":56,"time":86.76458333333294,"velocity":0.5669291338582677,"duration":1.5291666666666686},{"name":"F4","midi":65,"time":86.76666666666627,"velocity":0.5669291338582677,"duration":0.29999999999999716},{"name":"G#4","midi":68,"time":87.0687499999996,"velocity":0.5826771653543307,"duration":0.3062500000000057},{"name":"A#4","midi":70,"time":87.3749999999996,"velocity":0.5826771653543307,"duration":0.28333333333333144},{"name":"D4","midi":62,"time":87.37708333333293,"velocity":0.5669291338582677,"duration":0.30416666666666003},{"name":"A#4","midi":70,"time":87.6812499999996,"velocity":0.5826771653543307,"duration":0.3062500000000057},{"name":"D#4","midi":63,"time":87.9874999999996,"velocity":0.5669291338582677,"duration":0.6125000000000114},{"name":"F4","midi":65,"time":88.2937499999996,"velocity":0.5669291338582677,"duration":0.3062500000000057},{"name":"F#3","midi":54,"time":88.29583333333294,"velocity":0.5669291338582677,"duration":0.15000000000000568},{"name":"G#3","midi":56,"time":88.44583333333294,"velocity":0.5669291338582677,"duration":0.15416666666666856},{"name":"F#4","midi":66,"time":88.60208333333294,"velocity":0.5669291338582677,"duration":0.9124999999999801},{"name":"D#3","midi":51,"time":88.60208333333294,"velocity":0.5669291338582677,"duration":0.5749999999999886},{"name":"A#3","midi":58,"time":88.60416666666627,"velocity":0.5669291338582677,"duration":0.2854166666666629},{"name":"F#3","midi":54,"time":88.90416666666627,"velocity":0.5669291338582677,"duration":0.3062499999999915},{"name":"A#3","midi":58,"time":88.9062499999996,"velocity":0.5669291338582677,"duration":0.3020833333333286},{"name":"G#3","midi":56,"time":89.21041666666626,"velocity":0.5669291338582677,"duration":0.6062499999999886},{"name":"D#3","midi":51,"time":89.2124999999996,"velocity":0.5669291338582677,"duration":0.3020833333333286},{"name":"C3","midi":48,"time":89.2124999999996,"velocity":0.5669291338582677,"duration":0.29999999999999716},{"name":"E3","midi":52,"time":89.51666666666625,"velocity":0.5669291338582677,"duration":0.28333333333333144},{"name":"E4","midi":64,"time":89.51666666666625,"velocity":0.5669291338582677,"duration":0.14791666666666003},{"name":"C#3","midi":49,"time":89.51874999999959,"velocity":0.5669291338582677,"duration":0.14374999999999716},{"name":"F#4","midi":66,"time":89.66666666666625,"velocity":0.5669291338582677,"duration":0.15000000000000568},{"name":"D#3","midi":51,"time":89.66666666666625,"velocity":0.5669291338582677,"duration":0.14791666666667425},{"name":"G#4","midi":68,"time":89.81874999999958,"velocity":0.6062992125984252,"duration":0.30416666666666003},{"name":"E3","midi":52,"time":89.81874999999958,"velocity":0.5669291338582677,"duration":0.3020833333333286},{"name":"G4","midi":67,"time":90.12291666666624,"velocity":0.5669291338582677,"duration":0.15416666666666856},{"name":"D#4","midi":63,"time":90.12499999999957,"velocity":0.5669291338582677,"duration":0.3083333333333371},{"name":"B3","midi":59,"time":90.12499999999957,"velocity":0.5669291338582677,"duration":0.3083333333333371},{"name":"D#3","midi":51,"time":90.12499999999957,"velocity":0.5669291338582677,"duration":0.3062500000000057},{"name":"G#4","midi":68,"time":90.27708333333291,"velocity":0.6062992125984252,"duration":0.15416666666666856},{"name":"A#4","midi":70,"time":90.43541666666624,"velocity":0.6062992125984252,"duration":0.3020833333333286},{"name":"E4","midi":64,"time":90.43541666666624,"velocity":0.5669291338582677,"duration":0.29999999999999716},{"name":"C#4","midi":61,"time":90.43749999999957,"velocity":0.5669291338582677,"duration":0.6041666666666572},{"name":"C#3","midi":49,"time":90.43749999999957,"velocity":0.5669291338582677,"duration":0.2979166666666657},{"name":"G#4","midi":68,"time":90.73749999999957,"velocity":0.6062992125984252,"duration":0.14791666666666003},{"name":"G3","midi":55,"time":90.7395833333329,"velocity":0.5669291338582677,"duration":0.29999999999999716},{"name":"D#4","midi":63,"time":90.7395833333329,"velocity":0.5669291338582677,"duration":0.29999999999999716},{"name":"A#4","midi":70,"time":90.88749999999956,"velocity":0.6062992125984252,"duration":0.15000000000000568},{"name":"B4","midi":71,"time":91.04166666666623,"velocity":0.6062992125984252,"duration":0.30416666666666003},{"name":"G#3","midi":56,"time":91.04374999999956,"velocity":0.5669291338582677,"duration":0.29999999999999716},{"name":"G#4","midi":68,"time":91.34583333333289,"velocity":0.6062992125984252,"duration":0.3062499999999915},{"name":"B2","midi":47,"time":91.34791666666622,"velocity":0.5669291338582677,"duration":0.30416666666666003},{"name":"A#4","midi":70,"time":91.65416666666621,"velocity":0.6062992125984252,"duration":0.3062499999999915},{"name":"C#3","midi":49,"time":91.65416666666621,"velocity":0.5669291338582677,"duration":0.2708333333333286},{"name":"E4","midi":64,"time":91.65416666666621,"velocity":0.5669291338582677,"duration":0.30416666666666003},{"name":"C#4","midi":61,"time":91.65624999999955,"velocity":0.5669291338582677,"duration":0.3020833333333286},{"name":"C#3","midi":49,"time":91.9604166666662,"velocity":0.5669291338582677,"duration":0.29999999999999716},{"name":"D#3","midi":51,"time":92.2604166666662,"velocity":0.5669291338582677,"duration":0.2833333333333172},{"name":"D#4","midi":63,"time":92.26249999999953,"velocity":0.5669291338582677,"duration":0.3020833333333144},{"name":"G4","midi":67,"time":92.26249999999953,"velocity":0.5669291338582677,"duration":0.3041666666666458},{"name":"A#3","midi":58,"time":92.26458333333287,"velocity":0.5669291338582677,"duration":0.29999999999998295},{"name":"D#3","midi":51,"time":92.56666666666618,"velocity":0.5669291338582677,"duration":0.29999999999999716},{"name":"G#4","midi":68,"time":92.86666666666618,"velocity":0.6062992125984252,"duration":0.30416666666666003},{"name":"D#4","midi":63,"time":92.86874999999951,"velocity":0.5669291338582677,"duration":0.6062499999999886},{"name":"B3","midi":59,"time":92.86874999999951,"velocity":0.5669291338582677,"duration":0.6062499999999886},{"name":"G#2","midi":44,"time":92.87083333333284,"velocity":0.5669291338582677,"duration":0.6020833333333258},{"name":"A#4","midi":70,"time":93.17083333333284,"velocity":0.6062992125984252,"duration":0.3020833333333286},{"name":"B4","midi":71,"time":93.4749999999995,"velocity":0.6062992125984252,"duration":0.6062499999999886},{"name":"D#3","midi":51,"time":93.7749999999995,"velocity":0.5669291338582677,"duration":0.30416666666666003},{"name":"B3","midi":59,"time":93.77708333333283,"velocity":0.5669291338582677,"duration":0.29999999999999716},{"name":"F#4","midi":66,"time":93.77708333333283,"velocity":0.5669291338582677,"duration":0.3020833333333286},{"name":"C#5","midi":73,"time":94.08124999999949,"velocity":0.6062992125984252,"duration":0.3020833333333286},{"name":"G#4","midi":68,"time":94.08333333333282,"velocity":0.6062992125984252,"duration":0.29999999999999716},{"name":"E3","midi":52,"time":94.08333333333282,"velocity":0.5669291338582677,"duration":0.27916666666666856},{"name":"E4","midi":64,"time":94.08541666666615,"velocity":0.5669291338582677,"duration":0.2958333333333343},{"name":"E3","midi":52,"time":94.38541666666615,"velocity":0.5669291338582677,"duration":0.2979166666666657},{"name":"A#4","midi":70,"time":94.68541666666614,"velocity":0.6062992125984252,"duration":0.30416666666666003},{"name":"F#3","midi":54,"time":94.68541666666614,"velocity":0.5669291338582677,"duration":0.26874999999999716},{"name":"F#4","midi":66,"time":94.68749999999947,"velocity":0.5669291338582677,"duration":0.3020833333333286},{"name":"C#4","midi":61,"time":94.68749999999947,"velocity":0.5669291338582677,"duration":0.29999999999999716},{"name":"F#3","midi":54,"time":94.99166666666613,"velocity":0.5669291338582677,"duration":0.29999999999999716},{"name":"B4","midi":71,"time":95.29166666666613,"velocity":0.6062992125984252,"duration":0.2979166666666657},{"name":"F#4","midi":66,"time":95.29166666666613,"velocity":0.5669291338582677,"duration":0.5979166666666629},{"name":"D#4","midi":63,"time":95.29374999999946,"velocity":0.5669291338582677,"duration":0.5958333333333314},{"name":"B2","midi":47,"time":95.29374999999946,"velocity":0.5669291338582677,"duration":0.59375},{"name":"D#5","midi":75,"time":95.5895833333328,"velocity":0.6062992125984252,"duration":0.14791666666666003},{"name":"D5","midi":74,"time":95.73749999999946,"velocity":0.6062992125984252,"duration":0.15000000000000568},{"name":"D#5","midi":75,"time":95.8895833333328,"velocity":0.6062992125984252,"duration":0.59375},{"name":"A#4","midi":70,"time":96.1833333333328,"velocity":0.6062992125984252,"duration":0.29999999999999716},{"name":"F#3","midi":54,"time":96.1833333333328,"velocity":0.5669291338582677,"duration":0.2979166666666657},{"name":"D#4","midi":63,"time":96.1833333333328,"velocity":0.5669291338582677,"duration":0.2979166666666657},{"name":"E5","midi":76,"time":96.4833333333328,"velocity":0.6062992125984252,"duration":0.2979166666666515},{"name":"B4","midi":71,"time":96.48541666666613,"velocity":0.6062992125984252,"duration":0.29374999999998863},{"name":"G#4","midi":68,"time":96.48749999999946,"velocity":0.6062992125984252,"duration":0.2916666666666572},{"name":"G#3","midi":56,"time":96.48749999999946,"velocity":0.5669291338582677,"duration":0.2708333333333286},{"name":"G#3","midi":56,"time":96.78124999999945,"velocity":0.5669291338582677,"duration":0.2979166666666657},{"name":"D5","midi":74,"time":97.07916666666611,"velocity":0.6062992125984252,"duration":0.3020833333333286},{"name":"A#4","midi":70,"time":97.08124999999944,"velocity":0.6062992125984252,"duration":0.2979166666666657},{"name":"A#3","midi":58,"time":97.08124999999944,"velocity":0.5669291338582677,"duration":0.2770833333333371},{"name":"F4","midi":65,"time":97.08333333333277,"velocity":0.5669291338582677,"duration":0.2958333333333343},{"name":"A#3","midi":58,"time":97.38124999999944,"velocity":0.5669291338582677,"duration":0.2979166666666657},{"name":"D#5","midi":75,"time":97.6791666666661,"velocity":0.6062992125984252,"duration":0.29583333333332007},{"name":"F#4","midi":66,"time":97.68124999999944,"velocity":0.5669291338582677,"duration":0.2916666666666572},{"name":"D#4","midi":63,"time":97.68124999999944,"velocity":0.5669291338582677,"duration":0.2916666666666572},{"name":"D#3","midi":51,"time":97.68333333333277,"velocity":0.5669291338582677,"duration":0.2874999999999943},{"name":"G#4","midi":68,"time":97.97499999999943,"velocity":0.6062992125984252,"duration":0.2854166666666629},{"name":"F5","midi":77,"time":97.97499999999943,"velocity":0.5590551181102362,"duration":0.2874999999999943},{"name":"F#5","midi":78,"time":98.26249999999942,"velocity":0.5590551181102362,"duration":0.8749999999999716},{"name":"A#4","midi":70,"time":98.26458333333275,"velocity":0.6062992125984252,"duration":0.2874999999999943},{"name":"D#4","midi":63,"time":98.26458333333275,"velocity":0.5669291338582677,"duration":0.581249999999983},{"name":"B4","midi":71,"time":98.55416666666608,"velocity":0.6062992125984252,"duration":0.1458333333333286},{"name":"A#4","midi":70,"time":98.6999999999994,"velocity":0.6062992125984252,"duration":0.1458333333333286},{"name":"G#4","midi":68,"time":98.84791666666607,"velocity":0.6062992125984252,"duration":0.2874999999999943},{"name":"C4","midi":60,"time":98.84791666666607,"velocity":0.5669291338582677,"duration":0.2874999999999943},{"name":"E5","midi":76,"time":99.13749999999939,"velocity":0.6062992125984252,"duration":0.14374999999999716},{"name":"C#5","midi":73,"time":99.13958333333272,"velocity":0.6062992125984252,"duration":0.58541666666666},{"name":"C#4","midi":61,"time":99.13958333333272,"velocity":0.5669291338582677,"duration":0.14166666666666572},{"name":"F#5","midi":78,"time":99.28333333333272,"velocity":0.5590551181102362,"duration":0.1458333333333286},{"name":"D#4","midi":63,"time":99.28333333333272,"velocity":0.5669291338582677,"duration":0.1458333333333286},{"name":"G#5","midi":80,"time":99.43124999999938,"velocity":0.5590551181102362,"duration":0.29375000000000284},{"name":"E4","midi":64,"time":99.43124999999938,"velocity":0.5669291338582677,"duration":0.2916666666666714},{"name":"G5","midi":79,"time":99.72499999999938,"velocity":0.5590551181102362,"duration":0.14374999999999716},{"name":"D#5","midi":75,"time":99.72708333333271,"velocity":0.6062992125984252,"duration":0.2916666666666572},{"name":"D#4","midi":63,"time":99.72708333333271,"velocity":0.5669291338582677,"duration":0.2916666666666572},{"name":"G#5","midi":80,"time":99.87083333333271,"velocity":0.5590551181102362,"duration":0.1458333333333286},{"name":"E5","midi":76,"time":100.0208333333327,"velocity":0.6062992125984252,"duration":0.5874999999999773},{"name":"A#5","midi":82,"time":100.0208333333327,"velocity":0.5590551181102362,"duration":0.2916666666666572},{"name":"C#4","midi":61,"time":100.02291666666603,"velocity":0.5669291338582677,"duration":0.2874999999999943},{"name":"G#5","midi":80,"time":100.31249999999936,"velocity":0.5590551181102362,"duration":0.14374999999999716},{"name":"G4","midi":67,"time":100.31458333333269,"velocity":0.5669291338582677,"duration":0.2916666666666572},{"name":"A#5","midi":82,"time":100.45833333333269,"velocity":0.5590551181102362,"duration":0.1458333333333286},{"name":"D#5","midi":75,"time":100.60833333333268,"velocity":0.6062992125984252,"duration":0.5874999999999915},{"name":"B5","midi":83,"time":100.60833333333268,"velocity":0.5590551181102362,"duration":0.2916666666666714},{"name":"G#4","midi":68,"time":100.61041666666601,"velocity":0.6062992125984252,"duration":0.28958333333333997},{"name":"G#5","midi":80,"time":100.90208333333268,"velocity":0.5590551181102362,"duration":0.2916666666666572},{"name":"B3","midi":59,"time":100.90208333333268,"velocity":0.5669291338582677,"duration":0.2708333333333286},{"name":"C#5","midi":73,"time":101.19583333333267,"velocity":0.6062992125984252,"duration":1.7583333333333258},{"name":"A#5","midi":82,"time":101.19583333333267,"velocity":0.5590551181102362,"duration":0.2916666666666572},{"name":"C#4","midi":61,"time":101.197916666666,"velocity":0.5669291338582677,"duration":0.26874999999999716},{"name":"C#4","midi":61,"time":101.48958333333266,"velocity":0.5669291338582677,"duration":0.28958333333333997},{"name":"G5","midi":79,"time":101.78124999999933,"velocity":0.5590551181102362,"duration":0.2874999999999943},{"name":"D#4","midi":63,"time":101.78124999999933,"velocity":0.5669291338582677,"duration":0.26874999999999716},{"name":"D#4","midi":63,"time":102.06874999999933,"velocity":0.5669291338582677,"duration":0.28958333333333997},{"name":"G#5","midi":80,"time":102.35833333333267,"velocity":0.5354330708661418,"duration":0.2979166666666657},{"name":"G#3","midi":56,"time":102.360416666666,"velocity":0.5669291338582677,"duration":0.5916666666666686},{"name":"F#5","midi":78,"time":102.65624999999933,"velocity":0.5354330708661418,"duration":0.14791666666666003},{"name":"E5","midi":76,"time":102.80416666666599,"velocity":0.5826771653543307,"duration":0.14791666666667425},{"name":"D#5","midi":75,"time":102.954166666666,"velocity":0.6062992125984252,"duration":0.2958333333333343},{"name":"B4","midi":71,"time":102.95624999999933,"velocity":0.6062992125984252,"duration":0.5916666666666544},{"name":"E5","midi":76,"time":103.24999999999933,"velocity":0.6062992125984252,"duration":0.29583333333332007},{"name":"G#3","midi":56,"time":103.25208333333266,"velocity":0.5669291338582677,"duration":0.27291666666666003},{"name":"A4","midi":69,"time":103.54791666666598,"velocity":0.6062992125984252,"duration":1.7624999999999886},{"name":"F#5","midi":78,"time":103.54999999999932,"velocity":0.5590551181102362,"duration":0.29375000000000284},{"name":"A3","midi":57,"time":103.54999999999932,"velocity":0.5669291338582677,"duration":0.2750000000000057},{"name":"A3","midi":57,"time":103.84583333333265,"velocity":0.5669291338582677,"duration":0.28958333333333997},{"name":"D#5","midi":75,"time":104.13749999999932,"velocity":0.6062992125984252,"duration":0.28958333333332575},{"name":"B3","midi":59,"time":104.13749999999932,"velocity":0.5669291338582677,"duration":0.2708333333333286},{"name":"B3","midi":59,"time":104.42916666666598,"velocity":0.5669291338582677,"duration":0.2916666666666714},{"name":"E5","midi":76,"time":104.72083333333265,"velocity":0.6062992125984252,"duration":0.29375000000000284},{"name":"E3","midi":52,"time":104.72291666666598,"velocity":0.5669291338582677,"duration":0.58541666666666},{"name":"D#5","midi":75,"time":105.01458333333265,"velocity":0.6062992125984252,"duration":0.14791666666666003},{"name":"C#5","midi":73,"time":105.16249999999931,"velocity":0.6062992125984252,"duration":0.1458333333333286},{"name":"C5","midi":72,"time":105.31041666666597,"velocity":0.6062992125984252,"duration":0.28958333333332575},{"name":"G#4","midi":68,"time":105.3124999999993,"velocity":0.6062992125984252,"duration":0.5791666666666657},{"name":"C#5","midi":73,"time":105.5999999999993,"velocity":0.6062992125984252,"duration":0.2916666666666714},{"name":"E3","midi":52,"time":105.5999999999993,"velocity":0.5669291338582677,"duration":0.2916666666666714},{"name":"D#5","midi":75,"time":105.8937499999993,"velocity":0.6062992125984252,"duration":0.28958333333332575},{"name":"F#4","midi":66,"time":105.89583333333263,"velocity":0.5669291338582677,"duration":1.46041666666666},{"name":"F#3","midi":54,"time":105.89583333333263,"velocity":0.5669291338582677,"duration":0.26874999999999716},{"name":"F#3","midi":54,"time":106.18333333333263,"velocity":0.5669291338582677,"duration":0.29375000000000284},{"name":"C5","midi":72,"time":106.47708333333263,"velocity":0.6062992125984252,"duration":0.28958333333332575},{"name":"G#3","midi":56,"time":106.47916666666596,"velocity":0.5669291338582677,"duration":0.2708333333333286},{"name":"G#3","midi":56,"time":106.76874999999929,"velocity":0.5669291338582677,"duration":0.2916666666666714},{"name":"C#5","midi":73,"time":107.06249999999929,"velocity":0.6062992125984252,"duration":0.5874999999999915},{"name":"C#3","midi":49,"time":107.06249999999929,"velocity":0.5669291338582677,"duration":0.2916666666666714},{"name":"D#3","midi":51,"time":107.35624999999929,"velocity":0.5669291338582677,"duration":0.29374999999998863},{"name":"E4","midi":64,"time":107.35833333333262,"velocity":0.5669291338582677,"duration":0.14166666666666572},{"name":"F#4","midi":66,"time":107.50208333333262,"velocity":0.5669291338582677,"duration":0.16249999999999432},{"name":"G#4","midi":68,"time":107.65208333333261,"velocity":0.6062992125984252,"duration":0.28958333333333997},{"name":"C#3","midi":49,"time":107.65208333333261,"velocity":0.5669291338582677,"duration":0.5833333333333428},{"name":"E3","midi":52,"time":107.65416666666594,"velocity":0.5669291338582677,"duration":0.2875000000000085},{"name":"F#4","midi":66,"time":107.94374999999928,"velocity":0.5669291338582677,"duration":0.15625},{"name":"F#3","midi":54,"time":107.94374999999928,"velocity":0.5669291338582677,"duration":0.28958333333333997},{"name":"E4","midi":64,"time":108.08749999999928,"velocity":0.5669291338582677,"duration":0.1458333333333428},{"name":"G#3","midi":56,"time":108.23541666666596,"velocity":0.5669291338582677,"duration":0.8812499999999801},{"name":"D#4","midi":63,"time":108.23749999999929,"velocity":0.5669291338582677,"duration":0.2874999999999943},{"name":"C3","midi":48,"time":108.23749999999929,"velocity":0.5669291338582677,"duration":0.2874999999999943},{"name":"C#5","midi":73,"time":108.52708333333261,"velocity":0.6062992125984252,"duration":0.5895833333333229},{"name":"E4","midi":64,"time":108.52708333333261,"velocity":0.5669291338582677,"duration":0.14791666666666003},{"name":"C#3","midi":49,"time":108.52916666666594,"velocity":0.5669291338582677,"duration":0.14374999999999716},{"name":"F#4","midi":66,"time":108.67499999999927,"velocity":0.5669291338582677,"duration":0.15625},{"name":"D#3","midi":51,"time":108.67499999999927,"velocity":0.5669291338582677,"duration":0.1458333333333286},{"name":"G#4","midi":68,"time":108.8208333333326,"velocity":0.6062992125984252,"duration":0.29375000000000284},{"name":"E3","midi":52,"time":108.82291666666593,"velocity":0.5669291338582677,"duration":0.2916666666666714},{"name":"D#5","midi":75,"time":109.11666666666594,"velocity":0.6062992125984252,"duration":0.29374999999998863},{"name":"D#3","midi":51,"time":109.11874999999927,"velocity":0.5669291338582677,"duration":0.3020833333333144},{"name":"B3","midi":59,"time":109.11874999999927,"velocity":0.5669291338582677,"duration":0.29999999999998295},{"name":"G4","midi":67,"time":109.1208333333326,"velocity":0.5669291338582677,"duration":0.16041666666666288},{"name":"G#4","midi":68,"time":109.26041666666593,"velocity":0.6062992125984252,"duration":0.14791666666666003},{"name":"E5","midi":76,"time":109.41041666666592,"velocity":0.6062992125984252,"duration":0.5833333333333144},{"name":"A#4","midi":70,"time":109.41249999999926,"velocity":0.6062992125984252,"duration":0.2874999999999943},{"name":"C#4","midi":61,"time":109.41249999999926,"velocity":0.5669291338582677,"duration":0.581249999999983},{"name":"C#3","midi":49,"time":109.41458333333259,"velocity":0.5669291338582677,"duration":0.2854166666666629},{"name":"G#4","midi":68,"time":109.69999999999925,"velocity":0.6062992125984252,"duration":0.1458333333333286},{"name":"G3","midi":55,"time":109.70208333333258,"velocity":0.5669291338582677,"duration":0.28958333333332575},{"name":"A#4","midi":70,"time":109.84583333333258,"velocity":0.6062992125984252,"duration":0.1458333333333286},{"name":"D#5","midi":75,"time":109.99583333333257,"velocity":0.6062992125984252,"duration":0.58541666666666},{"name":"B4","midi":71,"time":109.99583333333257,"velocity":0.6062992125984252,"duration":0.28958333333332575},{"name":"G#3","midi":56,"time":109.9979166666659,"velocity":0.5669291338582677,"duration":0.2854166666666629},{"name":"B3","midi":59,"time":109.9979166666659,"velocity":0.5669291338582677,"duration":0.2854166666666629},{"name":"G#4","midi":68,"time":110.2854166666659,"velocity":0.6062992125984252,"duration":0.29375000000000284},{"name":"D#4","midi":63,"time":110.28749999999923,"velocity":0.5669291338582677,"duration":0.2916666666666714},{"name":"B2","midi":47,"time":110.28749999999923,"velocity":0.5669291338582677,"duration":0.28958333333333997},{"name":"C#5","midi":73,"time":110.58124999999923,"velocity":0.6062992125984252,"duration":1.464583333333323},{"name":"A#4","midi":70,"time":110.58124999999923,"velocity":0.6062992125984252,"duration":0.29374999999998863},{"name":"E4","midi":64,"time":110.58333333333256,"velocity":0.5669291338582677,"duration":0.3020833333333286},{"name":"C#3","midi":49,"time":110.58333333333256,"velocity":0.5669291338582677,"duration":0.2708333333333286},{"name":"C#3","midi":49,"time":110.87499999999922,"velocity":0.5669291338582677,"duration":0.29375000000000284},{"name":"D#4","midi":63,"time":111.16874999999922,"velocity":0.5669291338582677,"duration":0.29999999999999716},{"name":"G4","midi":67,"time":111.17083333333255,"velocity":0.5669291338582677,"duration":0.2958333333333343},{"name":"D#3","midi":51,"time":111.17083333333255,"velocity":0.5669291338582677,"duration":0.26874999999999716},{"name":"D#3","midi":51,"time":111.45833333333255,"velocity":0.5669291338582677,"duration":0.2916666666666714},{"name":"G#4","midi":68,"time":111.74999999999922,"velocity":0.6062992125984252,"duration":0.2958333333333343},{"name":"D#4","midi":63,"time":111.75208333333255,"velocity":0.5669291338582677,"duration":0.29999999999999716},{"name":"G#2","midi":44,"time":111.75208333333255,"velocity":0.5669291338582677,"duration":0.2916666666666714},{"name":"G5","midi":79,"time":112.04791666666588,"velocity":0.5590551181102362,"duration":0.2916666666666572},{"name":"A#2","midi":46,"time":112.04791666666588,"velocity":0.5669291338582677,"duration":0.28958333333332575},{"name":"G#5","midi":80,"time":112.33958333333254,"velocity":0.5590551181102362,"duration":0.29375000000000284},{"name":"G#3","midi":56,"time":112.34166666666587,"velocity":0.5669291338582677,"duration":0.5854166666666742},{"name":"B2","midi":47,"time":112.34166666666587,"velocity":0.5669291338582677,"duration":0.28958333333333997},{"name":"B4","midi":71,"time":112.63333333333254,"velocity":0.6062992125984252,"duration":0.29375000000000284},{"name":"C#3","midi":49,"time":112.63541666666588,"velocity":0.5669291338582677,"duration":0.28958333333333997},{"name":"A#4","midi":70,"time":112.92916666666588,"velocity":0.6062992125984252,"duration":0.2874999999999943},{"name":"D#3","midi":51,"time":112.92916666666588,"velocity":0.5669291338582677,"duration":0.5749999999999886},{"name":"G3","midi":55,"time":112.93124999999921,"velocity":0.5669291338582677,"duration":0.2854166666666629},{"name":"G5","midi":79,"time":113.2187499999992,"velocity":0.5590551181102362,"duration":0.28333333333333144},{"name":"G#3","midi":56,"time":113.2187499999992,"velocity":0.5669291338582677,"duration":0.14166666666666572},{"name":"A#3","midi":58,"time":113.36041666666587,"velocity":0.5669291338582677,"duration":0.14166666666666572},{"name":"G#5","midi":80,"time":113.50416666666587,"velocity":0.5590551181102362,"duration":0.28958333333332575},{"name":"B3","midi":59,"time":113.5062499999992,"velocity":0.5669291338582677,"duration":0.2854166666666629},{"name":"C#5","midi":73,"time":113.79374999999919,"velocity":0.6062992125984252,"duration":0.2916666666666572},{"name":"A#3","midi":58,"time":113.79583333333252,"velocity":0.5669291338582677,"duration":0.2874999999999943},{"name":"G4","midi":67,"time":113.79583333333252,"velocity":0.5669291338582677,"duration":0.2874999999999943},{"name":"D#3","midi":51,"time":113.79791666666586,"velocity":0.5669291338582677,"duration":0.28333333333333144},{"name":"G#4","midi":68,"time":114.08541666666585,"velocity":0.6062992125984252,"duration":0.5770833333333201},{"name":"B4","midi":71,"time":114.08749999999918,"velocity":0.6062992125984252,"duration":0.28333333333333144},{"name":"F3","midi":53,"time":114.08749999999918,"velocity":0.5669291338582677,"duration":0.5749999999999886},{"name":"G#3","midi":56,"time":114.08958333333251,"velocity":0.5669291338582677,"duration":0.28125},{"name":"G#5","midi":80,"time":114.37291666666584,"velocity":0.5590551181102362,"duration":0.2874999999999943},{"name":"D4","midi":62,"time":114.37291666666584,"velocity":0.5669291338582677,"duration":0.2874999999999943},{"name":"F#5","midi":78,"time":114.6645833333325,"velocity":0.5590551181102362,"duration":0.2854166666666629},{"name":"D#3","midi":51,"time":114.6645833333325,"velocity":0.5669291338582677,"duration":1.1562499999999858},{"name":"D#4","midi":63,"time":114.66666666666583,"velocity":0.5669291338582677,"duration":0.28125},{"name":"A#4","midi":70,"time":114.94999999999916,"velocity":0.6062992125984252,"duration":0.28958333333332575},{"name":"F#4","midi":66,"time":114.94999999999916,"velocity":0.5669291338582677,"duration":0.2874999999999943},{"name":"F#3","midi":54,"time":114.9520833333325,"velocity":0.5669291338582677,"duration":0.28333333333333144},{"name":"G#4","midi":68,"time":115.23958333333249,"velocity":0.6062992125984252,"duration":0.2854166666666629},{"name":"G#3","midi":56,"time":115.23958333333249,"velocity":0.5669291338582677,"duration":0.26874999999999716},{"name":"E4","midi":64,"time":115.24166666666582,"velocity":0.5669291338582677,"duration":0.5791666666666657},{"name":"F#5","midi":78,"time":115.52708333333248,"velocity":0.5590551181102362,"duration":0.29375000000000284},{"name":"G#3","midi":56,"time":115.52916666666582,"velocity":0.5669291338582677,"duration":0.28958333333333997},{"name":"F5","midi":77,"time":115.82291666666582,"velocity":0.5590551181102362,"duration":0.28333333333333144},{"name":"D3","midi":50,"time":115.82499999999915,"velocity":0.5669291338582677,"duration":0.5687499999999943},{"name":"A#3","midi":58,"time":115.82499999999915,"velocity":0.5669291338582677,"duration":0.2604166666666714},{"name":"G#4","midi":68,"time":116.10833333333248,"velocity":0.6062992125984252,"duration":0.28333333333333144},{"name":"F4","midi":65,"time":116.10833333333248,"velocity":0.5669291338582677,"duration":0.5729166666666572},{"name":"A#3","midi":58,"time":116.10833333333248,"velocity":0.5669291338582677,"duration":0.28333333333333144},{"name":"F#4","midi":66,"time":116.39374999999914,"velocity":0.5354330708661418,"duration":0.581249999999983},{"name":"D#3","midi":51,"time":116.39583333333248,"velocity":0.5669291338582677,"duration":0.5770833333333201},{"name":"F3","midi":53,"time":116.68124999999914,"velocity":0.5669291338582677,"duration":0.2916666666666572},{"name":"D#4","midi":63,"time":116.68333333333247,"velocity":0.5669291338582677,"duration":0.14166666666666572},{"name":"D4","midi":62,"time":116.82499999999914,"velocity":0.5669291338582677,"duration":0.1458333333333286},{"name":"D#4","midi":63,"time":116.97499999999913,"velocity":0.5669291338582677,"duration":0.5937499999999858},{"name":"F#3","midi":54,"time":116.97499999999913,"velocity":0.5669291338582677,"duration":0.8916666666666515},{"name":"D#2","midi":39,"time":117.11874999999912,"velocity":0.5669291338582677,"duration":0.15208333333333712},{"name":"E2","midi":40,"time":117.2729166666658,"velocity":0.5669291338582677,"duration":0.1458333333333286},{"name":"F#2","midi":42,"time":117.42083333333245,"velocity":0.5669291338582677,"duration":0.1458333333333286},{"name":"C4","midi":60,"time":117.56874999999911,"velocity":0.5669291338582677,"duration":0.2979166666666657},{"name":"G#2","midi":44,"time":117.57083333333244,"velocity":0.5669291338582677,"duration":0.29375000000000284},{"name":"C#4","midi":61,"time":117.86874999999911,"velocity":0.5669291338582677,"duration":0.1458333333333286},{"name":"C#3","midi":49,"time":117.86874999999911,"velocity":0.5669291338582677,"duration":0.5874999999999915},{"name":"E3","midi":52,"time":117.87083333333244,"velocity":0.5669291338582677,"duration":0.14166666666666572},{"name":"F#3","midi":54,"time":118.01458333333244,"velocity":0.5669291338582677,"duration":0.14791666666666003},{"name":"D#4","midi":63,"time":118.01666666666577,"velocity":0.5669291338582677,"duration":0.14374999999999716},{"name":"G#3","midi":56,"time":118.1624999999991,"velocity":0.5669291338582677,"duration":0.29375000000000284},{"name":"E4","midi":64,"time":118.16458333333243,"velocity":0.5669291338582677,"duration":0.28958333333333997},{"name":"D#4","midi":63,"time":118.45833333333243,"velocity":0.5669291338582677,"duration":0.2916666666666572},{"name":"D#3","midi":51,"time":118.45833333333243,"velocity":0.5669291338582677,"duration":0.2916666666666572},{"name":"G3","midi":55,"time":118.46041666666576,"velocity":0.5669291338582677,"duration":0.13958333333333428},{"name":"G#3","midi":56,"time":118.60208333333243,"velocity":0.5669291338582677,"duration":0.14791666666666003},{"name":"C#4","midi":61,"time":118.75208333333242,"velocity":0.5669291338582677,"duration":0.29375000000000284},{"name":"E3","midi":52,"time":118.75208333333242,"velocity":0.5669291338582677,"duration":0.5937499999999858},{"name":"A#3","midi":58,"time":118.75416666666575,"velocity":0.5669291338582677,"duration":0.2916666666666714},{"name":"G#3","midi":56,"time":119.04791666666576,"velocity":0.5669291338582677,"duration":0.14791666666666003},{"name":"G4","midi":67,"time":119.04791666666576,"velocity":0.5669291338582677,"duration":0.29583333333332007},{"name":"A#3","midi":58,"time":119.19583333333242,"velocity":0.5669291338582677,"duration":0.14791666666666003},{"name":"G#4","midi":68,"time":119.34583333333241,"velocity":0.6062992125984252,"duration":0.29374999999998863},{"name":"B3","midi":59,"time":119.34791666666574,"velocity":0.5669291338582677,"duration":0.27291666666666003},{"name":"D#3","midi":51,"time":119.34791666666574,"velocity":0.5669291338582677,"duration":0.5916666666666544},{"name":"G#3","midi":56,"time":119.6395833333324,"velocity":0.5669291338582677,"duration":0.29999999999999716},{"name":"B3","midi":59,"time":119.64166666666573,"velocity":0.5669291338582677,"duration":0.2958333333333343},{"name":"C#3","midi":49,"time":119.94166666666572,"velocity":0.5669291338582677,"duration":1.4666666666666544},{"name":"C#4","midi":61,"time":119.94166666666572,"velocity":0.5669291338582677,"duration":0.27291666666666003},{"name":"A#3","midi":58,"time":119.94374999999906,"velocity":0.5669291338582677,"duration":0.2916666666666572},{"name":"C#4","midi":61,"time":120.23749999999905,"velocity":0.5669291338582677,"duration":0.2916666666666714},{"name":"D#4","midi":63,"time":120.53124999999905,"velocity":0.5669291338582677,"duration":0.27291666666666003},{"name":"G3","midi":55,"time":120.53124999999905,"velocity":0.5669291338582677,"duration":0.29374999999998863},{"name":"D#4","midi":63,"time":120.82708333333237,"velocity":0.5669291338582677,"duration":0.28958333333333997},{"name":"G#3","midi":56,"time":121.11666666666571,"velocity":0.5669291338582677,"duration":0.5812499999999972},{"name":"G4","midi":67,"time":121.40833333333238,"velocity":0.5669291338582677,"duration":0.28958333333332575},{"name":"B2","midi":47,"time":121.41041666666571,"velocity":0.5669291338582677,"duration":0.14166666666666572},{"name":"A#2","midi":46,"time":121.55208333333238,"velocity":0.5669291338582677,"duration":0.14374999999999716},{"name":"G#4","midi":68,"time":121.69999999999904,"velocity":0.6062992125984252,"duration":0.8770833333333314},{"name":"B2","midi":47,"time":121.69999999999904,"velocity":0.5669291338582677,"duration":0.13958333333333428},{"name":"G#2","midi":44,"time":121.8416666666657,"velocity":0.5669291338582677,"duration":0.1458333333333286},{"name":"B3","midi":59,"time":121.98958333333236,"velocity":0.5669291338582677,"duration":0.2916666666666714},{"name":"D3","midi":50,"time":121.98958333333236,"velocity":0.5669291338582677,"duration":0.29375000000000284},{"name":"D#3","midi":51,"time":122.28333333333237,"velocity":0.5669291338582677,"duration":1.4541666666666515},{"name":"A#3","midi":58,"time":122.2854166666657,"velocity":0.5669291338582677,"duration":0.28958333333333997},{"name":"G#3","midi":56,"time":122.57708333333237,"velocity":0.5669291338582677,"duration":0.29374999999998863},{"name":"F#4","midi":66,"time":122.5791666666657,"velocity":0.5669291338582677,"duration":0.1458333333333286},{"name":"F4","midi":65,"time":122.72499999999903,"velocity":0.5669291338582677,"duration":0.1458333333333286},{"name":"F#4","midi":66,"time":122.87291666666569,"velocity":0.5669291338582677,"duration":0.13958333333333428},{"name":"A#3","midi":58,"time":122.87291666666569,"velocity":0.5669291338582677,"duration":0.28125},{"name":"D#4","midi":63,"time":123.01249999999902,"velocity":0.5669291338582677,"duration":0.14166666666666572},{"name":"A4","midi":69,"time":123.15624999999902,"velocity":0.6062992125984252,"duration":0.2854166666666629},{"name":"C4","midi":60,"time":123.15624999999902,"velocity":0.5669291338582677,"duration":0.28333333333333144},{"name":"A#4","midi":70,"time":123.44166666666568,"velocity":0.6062992125984252,"duration":1.4499999999999744},{"name":"F3","midi":53,"time":123.44374999999901,"velocity":0.5669291338582677,"duration":0.2916666666666714},{"name":"C#3","midi":49,"time":123.73749999999902,"velocity":0.5669291338582677,"duration":0.14791666666666003},{"name":"D#4","midi":63,"time":123.73958333333235,"velocity":0.5669291338582677,"duration":0.29374999999998863},{"name":"C3","midi":48,"time":123.88749999999901,"velocity":0.5669291338582677,"duration":0.14374999999999716},{"name":"C#3","midi":49,"time":124.03333333333234,"velocity":0.5669291338582677,"duration":0.14374999999999716},{"name":"F4","midi":65,"time":124.03541666666567,"velocity":0.5669291338582677,"duration":0.2874999999999943},{"name":"A#2","midi":46,"time":124.17916666666567,"velocity":0.5669291338582677,"duration":0.14374999999999716},{"name":"G4","midi":67,"time":124.324999999999,"velocity":0.5669291338582677,"duration":0.27916666666666856},{"name":"E3","midi":52,"time":124.324999999999,"velocity":0.5669291338582677,"duration":0.27916666666666856},{"name":"F3","midi":53,"time":124.606249999999,"velocity":0.5669291338582677,"duration":1.4624999999999773},{"name":"C4","midi":60,"time":124.606249999999,"velocity":0.5669291338582677,"duration":0.2854166666666629},{"name":"A4","midi":69,"time":124.89166666666566,"velocity":0.6062992125984252,"duration":0.14374999999999716},{"name":"A#3","midi":58,"time":124.89374999999899,"velocity":0.5669291338582677,"duration":0.2874999999999943},{"name":"G4","midi":67,"time":125.03541666666565,"velocity":0.5669291338582677,"duration":0.1458333333333286},{"name":"A4","midi":69,"time":125.18333333333231,"velocity":0.6062992125984252,"duration":0.14374999999999716},{"name":"C4","midi":60,"time":125.18333333333231,"velocity":0.5669291338582677,"duration":0.2916666666666572},{"name":"F4","midi":65,"time":125.32708333333231,"velocity":0.5669291338582677,"duration":0.14791666666666003},{"name":"A#4","midi":70,"time":125.4770833333323,"velocity":0.6062992125984252,"duration":0.2958333333333343},{"name":"C#4","midi":61,"time":125.4770833333323,"velocity":0.5669291338582677,"duration":0.29375000000000284},{"name":"B4","midi":71,"time":125.77291666666564,"velocity":0.6062992125984252,"duration":1.4812499999999744},{"name":"D#4","midi":63,"time":125.77499999999897,"velocity":0.5669291338582677,"duration":1.4770833333333115},{"name":"D#3","midi":51,"time":126.0708333333323,"velocity":0.5669291338582677,"duration":0.1458333333333286},{"name":"C#3","midi":49,"time":126.21874999999896,"velocity":0.5669291338582677,"duration":0.1458333333333286},{"name":"D#3","midi":51,"time":126.36666666666562,"velocity":0.5669291338582677,"duration":0.1458333333333286},{"name":"C3","midi":48,"time":126.51458333333228,"velocity":0.5669291338582677,"duration":0.14791666666666003},{"name":"F3","midi":53,"time":126.66458333333227,"velocity":0.5669291338582677,"duration":0.29375000000000284},{"name":"F#3","midi":54,"time":126.96041666666561,"velocity":0.5669291338582677,"duration":1.0208333333333144},{"name":"A#4","midi":70,"time":127.25416666666561,"velocity":0.6062992125984252,"duration":0.14374999999999716},{"name":"C#4","midi":61,"time":127.25624999999894,"velocity":0.5669291338582677,"duration":0.14166666666666572},{"name":"A4","midi":69,"time":127.39999999999894,"velocity":0.6062992125984252,"duration":0.14374999999999716},{"name":"C4","midi":60,"time":127.39999999999894,"velocity":0.5669291338582677,"duration":0.14374999999999716},{"name":"A#4","midi":70,"time":127.54583333333227,"velocity":0.6062992125984252,"duration":0.14374999999999716},{"name":"C#4","midi":61,"time":127.54583333333227,"velocity":0.5669291338582677,"duration":0.28958333333332575},{"name":"C5","midi":72,"time":127.68958333333227,"velocity":0.6062992125984252,"duration":0.1458333333333286},{"name":"C#5","midi":73,"time":127.83749999999893,"velocity":0.6062992125984252,"duration":0.5875000000000057},{"name":"A#3","midi":58,"time":127.83749999999893,"velocity":0.5669291338582677,"duration":0.4375},{"name":"E3","midi":52,"time":127.98124999999892,"velocity":0.5669291338582677,"duration":0.14374999999999716},{"name":"D#3","midi":51,"time":128.12499999999892,"velocity":0.5669291338582677,"duration":0.5958333333333599},{"name":"A#3","midi":58,"time":128.27499999999893,"velocity":0.5669291338582677,"duration":0.14791666666667425},{"name":"C5","midi":72,"time":128.42499999999893,"velocity":0.6062992125984252,"duration":0.14791666666667425},{"name":"D#4","midi":63,"time":128.42499999999893,"velocity":0.5669291338582677,"duration":0.1458333333333428},{"name":"A#4","midi":70,"time":128.5729166666656,"velocity":0.6062992125984252,"duration":0.14791666666667425},{"name":"C#4","midi":61,"time":128.57499999999894,"velocity":0.5669291338582677,"duration":0.14375000000001137},{"name":"D#5","midi":75,"time":128.7229166666656,"velocity":0.6062992125984252,"duration":0.5958333333333599},{"name":"A4","midi":69,"time":128.7229166666656,"velocity":0.6062992125984252,"duration":0.14791666666667425},{"name":"F3","midi":53,"time":128.72499999999894,"velocity":0.5669291338582677,"duration":0.591666666666697},{"name":"C4","midi":60,"time":128.72499999999894,"velocity":0.5669291338582677,"duration":0.14375000000001137},{"name":"A#4","midi":70,"time":128.87083333333229,"velocity":0.6062992125984252,"duration":0.14791666666667425},{"name":"A#3","midi":58,"time":128.87291666666562,"velocity":0.5669291338582677,"duration":0.14375000000001137},{"name":"C4","midi":60,"time":129.01874999999896,"velocity":0.5669291338582677,"duration":0.29791666666667993},{"name":"G4","midi":67,"time":129.0208333333323,"velocity":0.5669291338582677,"duration":0.1458333333333428},{"name":"A4","midi":69,"time":129.16874999999897,"velocity":0.6062992125984252,"duration":0.1458333333333428},{"name":"D5","midi":74,"time":129.31874999999897,"velocity":0.6062992125984252,"duration":0.29374999999998863},{"name":"A#4","midi":70,"time":129.3208333333323,"velocity":0.6062992125984252,"duration":1.1854166666666401},{"name":"A#3","midi":58,"time":129.3208333333323,"velocity":0.5669291338582677,"duration":0.2916666666666572},{"name":"A#2","midi":46,"time":129.32291666666563,"velocity":0.5669291338582677,"duration":0.5895833333333371},{"name":"D#5","midi":75,"time":129.61249999999896,"velocity":0.5905511811023622,"duration":0.15000000000000568},{"name":"C4","midi":60,"time":129.6145833333323,"velocity":0.5669291338582677,"duration":0.14791666666667425},{"name":"F5","midi":77,"time":129.76249999999897,"velocity":0.5433070866141733,"duration":0.14791666666667425},{"name":"D4","midi":62,"time":129.7645833333323,"velocity":0.5669291338582677,"duration":0.1458333333333428},{"name":"F#5","midi":78,"time":129.91249999999897,"velocity":0.5433070866141733,"duration":0.29583333333332007},{"name":"D#4","midi":63,"time":129.91249999999897,"velocity":0.5669291338582677,"duration":0.29583333333332007},{"name":"F5","midi":77,"time":130.21041666666562,"velocity":0.5433070866141733,"duration":0.29374999999998863},{"name":"F4","midi":65,"time":130.21041666666562,"velocity":0.5669291338582677,"duration":0.29374999999998863},{"name":"D#5","midi":75,"time":130.50624999999894,"velocity":0.5905511811023622,"duration":0.29583333333332007},{"name":"F#4","midi":66,"time":130.50624999999894,"velocity":0.5669291338582677,"duration":0.5916666666666401},{"name":"A5","midi":81,"time":130.80208333333226,"velocity":0.5196850393700787,"duration":0.29583333333332007},{"name":"C5","midi":72,"time":130.8041666666656,"velocity":0.5905511811023622,"duration":0.2916666666666572},{"name":"C#5","midi":73,"time":131.09999999999891,"velocity":0.5905511811023622,"duration":0.26874999999998295},{"name":"A#5","midi":82,"time":131.09999999999891,"velocity":0.5196850393700787,"duration":0.2874999999999943},{"name":"G#4","midi":68,"time":131.23958333333223,"velocity":0.5905511811023622,"duration":0.1458333333333428},{"name":"C#5","midi":73,"time":131.3874999999989,"velocity":0.5905511811023622,"duration":0.2874999999999943},{"name":"A#4","midi":70,"time":131.38958333333224,"velocity":0.5905511811023622,"duration":0.28333333333333144},{"name":"F#4","midi":66,"time":131.38958333333224,"velocity":0.5669291338582677,"duration":0.13958333333332007},{"name":"F4","midi":65,"time":131.5312499999989,"velocity":0.5669291338582677,"duration":0.14166666666667993},{"name":"B4","midi":71,"time":131.6749999999989,"velocity":0.5905511811023622,"duration":0.575000000000017},{"name":"D#5","midi":75,"time":131.6749999999989,"velocity":0.5905511811023622,"duration":0.26458333333332007},{"name":"D#4","midi":63,"time":131.67708333333223,"velocity":0.5669291338582677,"duration":0.13958333333332007},{"name":"C#4","midi":61,"time":131.81666666666555,"velocity":0.5669291338582677,"duration":0.14375000000001137},{"name":"D#5","midi":75,"time":131.96041666666557,"velocity":0.5905511811023622,"duration":0.2895833333333542},{"name":"B3","midi":59,"time":131.9624999999989,"velocity":0.5669291338582677,"duration":0.14166666666667993},{"name":"A#3","midi":58,"time":132.10416666666558,"velocity":0.5669291338582677,"duration":0.14375000000001137},{"name":"F5","midi":77,"time":132.24999999999892,"velocity":0.5433070866141733,"duration":0.2708333333333428},{"name":"G#3","midi":56,"time":132.25208333333225,"velocity":0.5669291338582677,"duration":0.5833333333333712},{"name":"A#3","midi":58,"time":132.39374999999893,"velocity":0.5669291338582677,"duration":0.1458333333333428},{"name":"F5","midi":77,"time":132.5416666666656,"velocity":0.5433070866141733,"duration":0.29375000000001705},{"name":"B3","midi":59,"time":132.5416666666656,"velocity":0.5669291338582677,"duration":0.1458333333333428},{"name":"C#4","midi":61,"time":132.68958333333228,"velocity":0.5669291338582677,"duration":0.14375000000001137},{"name":"A#4","midi":70,"time":132.83749999999895,"velocity":0.5905511811023622,"duration":0.29583333333332007},{"name":"D#4","midi":63,"time":132.83749999999895,"velocity":0.5669291338582677,"duration":0.5916666666666401},{"name":"F#3","midi":54,"time":132.83958333333229,"velocity":0.5669291338582677,"duration":0.2916666666666572},{"name":"F5","midi":77,"time":133.13333333333227,"velocity":0.5433070866141733,"duration":0.29583333333332007},{"name":"G#3","midi":56,"time":133.1354166666656,"velocity":0.5669291338582677,"duration":0.2916666666666572},{"name":"F#5","midi":78,"time":133.43124999999893,"velocity":0.5433070866141733,"duration":0.8812499999999659},{"name":"C#4","midi":61,"time":133.43124999999893,"velocity":0.5669291338582677,"duration":0.29583333333332007},{"name":"F#3","midi":54,"time":133.43333333333226,"velocity":0.5669291338582677,"duration":0.5895833333333087},{"name":"A#3","midi":58,"time":133.43333333333226,"velocity":0.5669291338582677,"duration":0.2916666666666572},{"name":"A#4","midi":70,"time":133.72708333333225,"velocity":0.5905511811023622,"duration":0.29374999999998863},{"name":"C#4","midi":61,"time":133.72916666666558,"velocity":0.5669291338582677,"duration":0.2916666666666572},{"name":"B4","midi":71,"time":134.02291666666557,"velocity":0.5905511811023622,"duration":0.5812500000000114},{"name":"D#4","midi":63,"time":134.0249999999989,"velocity":0.5669291338582677,"duration":1.166666666666714},{"name":"D#3","midi":51,"time":134.0249999999989,"velocity":0.5669291338582677,"duration":0.2874999999999943},{"name":"A#5","midi":82,"time":134.31458333333222,"velocity":0.5433070866141733,"duration":0.2895833333333542},{"name":"E3","midi":52,"time":134.31458333333222,"velocity":0.5669291338582677,"duration":0.14166666666667993},{"name":"F#3","midi":54,"time":134.4562499999989,"velocity":0.5669291338582677,"duration":0.1458333333333428},{"name":"B5","midi":83,"time":134.60416666666558,"velocity":0.5590551181102362,"duration":0.887500000000017},{"name":"G#3","midi":56,"time":134.6062499999989,"velocity":0.5669291338582677,"duration":0.2916666666666856},{"name":"D#5","midi":75,"time":134.74999999999892,"velocity":0.6062992125984252,"duration":0.1458333333333428},{"name":"E5","midi":76,"time":134.89999999999893,"velocity":0.6062992125984252,"duration":0.14375000000001137},{"name":"F#3","midi":54,"time":134.89999999999893,"velocity":0.5669291338582677,"duration":0.2916666666666856},{"name":"F#5","midi":78,"time":135.04374999999894,"velocity":0.5590551181102362,"duration":0.14791666666667425},{"name":"G#5","midi":80,"time":135.19374999999894,"velocity":0.5590551181102362,"duration":0.29583333333332007},{"name":"C#4","midi":61,"time":135.19583333333227,"velocity":0.5669291338582677,"duration":0.8854166666666572},{"name":"E3","midi":52,"time":135.19583333333227,"velocity":0.5669291338582677,"duration":0.29374999999998863},{"name":"E5","midi":76,"time":135.4916666666656,"velocity":0.6062992125984252,"duration":0.29374999999998863},{"name":"A#3","midi":58,"time":135.49374999999893,"velocity":0.5669291338582677,"duration":0.2916666666666572},{"name":"D#5","midi":75,"time":135.78749999999891,"velocity":0.6062992125984252,"duration":0.5895833333333371},{"name":"B3","midi":59,"time":135.78749999999891,"velocity":0.5669291338582677,"duration":0.27291666666667425},{"name":"D#3","midi":51,"time":136.08124999999893,"velocity":0.5669291338582677,"duration":0.29583333333332007},{"name":"F#4","midi":66,"time":136.08333333333226,"velocity":0.5669291338582677,"duration":0.2916666666666572},{"name":"B3","midi":59,"time":136.08333333333226,"velocity":0.5669291338582677,"duration":0.2916666666666572},{"name":"C#5","midi":73,"time":136.37916666666558,"velocity":0.6062992125984252,"duration":1.7562500000000227},{"name":"G#4","midi":68,"time":136.37916666666558,"velocity":0.6062992125984252,"duration":0.28958333333332575},{"name":"B3","midi":59,"time":136.38124999999891,"velocity":0.5669291338582677,"duration":0.2854166666666629},{"name":"E3","midi":52,"time":136.38124999999891,"velocity":0.5669291338582677,"duration":0.26458333333332007},{"name":"A#4","midi":70,"time":136.6687499999989,"velocity":0.6062992125984252,"duration":0.1416666666666515},{"name":"E3","midi":52,"time":136.67083333333224,"velocity":0.5669291338582677,"duration":0.2874999999999943},{"name":"B4","midi":71,"time":136.8124999999989,"velocity":0.6062992125984252,"duration":0.14375000000001137},{"name":"E4","midi":64,"time":136.95833333333223,"velocity":0.5669291338582677,"duration":0.8354166666666742},{"name":"A#3","midi":58,"time":136.96041666666557,"velocity":0.5669291338582677,"duration":0.2916666666666856},{"name":"F#3","midi":54,"time":136.96041666666557,"velocity":0.5669291338582677,"duration":0.27291666666667425},{"name":"F#3","midi":54,"time":137.25416666666558,"velocity":0.5669291338582677,"duration":0.29583333333332007},{"name":"B3","midi":59,"time":137.5499999999989,"velocity":0.5669291338582677,"duration":0.5854166666667027},{"name":"B2","midi":47,"time":137.5499999999989,"velocity":0.5669291338582677,"duration":0.2916666666666856},{"name":"D#4","midi":63,"time":137.8416666666656,"velocity":0.5669291338582677,"duration":0.1458333333333428},{"name":"A#2","midi":46,"time":137.84374999999892,"velocity":0.5669291338582677,"duration":0.2895833333333542},{"name":"C#4","midi":61,"time":137.98749999999893,"velocity":0.5669291338582677,"duration":0.1458333333333428},{"name":"B4","midi":71,"time":138.13749999999894,"velocity":0.6062992125984252,"duration":0.8499999999999659},{"name":"D#4","midi":63,"time":138.13749999999894,"velocity":0.5669291338582677,"duration":0.13749999999998863},{"name":"G#2","midi":44,"time":138.13958333333227,"velocity":0.5669291338582677,"duration":0.2770833333333087},{"name":"B3","midi":59,"time":138.27499999999893,"velocity":0.5669291338582677,"duration":0.13958333333332007},{"name":"C#3","midi":49,"time":138.41666666666558,"velocity":0.5669291338582677,"duration":0.28333333333333144},{"name":"F4","midi":65,"time":138.4187499999989,"velocity":0.5669291338582677,"duration":0.28125},{"name":"F#4","midi":66,"time":138.6999999999989,"velocity":0.5669291338582677,"duration":0.8604166666667084},{"name":"F#2","midi":42,"time":138.70208333333224,"velocity":0.5669291338582677,"duration":0.2854166666666629},{"name":"A#4","midi":70,"time":138.98958333333223,"velocity":0.6062992125984252,"duration":0.14166666666667993},{"name":"E2","midi":40,"time":138.98958333333223,"velocity":0.5669291338582677,"duration":0.2854166666666913},{"name":"G#4","midi":68,"time":139.13124999999891,"velocity":0.6062992125984252,"duration":0.14375000000001137},{"name":"A#4","midi":70,"time":139.27499999999893,"velocity":0.6062992125984252,"duration":0.14375000000001137},{"name":"D#2","midi":39,"time":139.27499999999893,"velocity":0.5669291338582677,"duration":0.2854166666666913},{"name":"F#4","midi":66,"time":139.41874999999894,"velocity":0.5669291338582677,"duration":0.7312499999999886},{"name":"C5","midi":72,"time":139.56041666666562,"velocity":0.6062992125984252,"duration":0.29374999999998863},{"name":"G#2","midi":44,"time":139.56249999999895,"velocity":0.5669291338582677,"duration":0.2916666666666572},{"name":"C#5","midi":73,"time":139.85624999999894,"velocity":0.6062992125984252,"duration":1.4479166666666572},{"name":"C#3","midi":49,"time":139.85624999999894,"velocity":0.5669291338582677,"duration":0.29374999999998863},{"name":"E4","midi":64,"time":140.14999999999893,"velocity":0.5669291338582677,"duration":0.14791666666667425},{"name":"B2","midi":47,"time":140.15208333333226,"velocity":0.5669291338582677,"duration":0.29791666666667993},{"name":"D#4","midi":63,"time":140.29999999999893,"velocity":0.5669291338582677,"duration":0.14791666666667425},{"name":"E4","midi":64,"time":140.44999999999894,"velocity":0.5669291338582677,"duration":0.14375000000001137},{"name":"A#2","midi":46,"time":140.44999999999894,"velocity":0.5669291338582677,"duration":0.2874999999999943},{"name":"C#4","midi":61,"time":140.59583333333228,"velocity":0.5669291338582677,"duration":0.13958333333332007},{"name":"D#3","midi":51,"time":140.73749999999893,"velocity":0.5669291338582677,"duration":0.28333333333333144},{"name":"G4","midi":67,"time":140.73958333333226,"velocity":0.5669291338582677,"duration":0.28125},{"name":"G#4","midi":68,"time":141.0229166666656,"velocity":0.6062992125984252,"duration":0.8583333333333485},{"name":"G#2","midi":44,"time":141.0229166666656,"velocity":0.5669291338582677,"duration":0.28125},{"name":"B4","midi":71,"time":141.30624999999893,"velocity":0.6062992125984252,"duration":0.14375000000001137},{"name":"F#2","midi":42,"time":141.30624999999893,"velocity":0.5669291338582677,"duration":0.2895833333333542},{"name":"A#4","midi":70,"time":141.44999999999894,"velocity":0.6062992125984252,"duration":0.14375000000001137},{"name":"B4","midi":71,"time":141.59583333333228,"velocity":0.6062992125984252,"duration":0.1416666666666515},{"name":"F2","midi":41,"time":141.5979166666656,"velocity":0.5669291338582677,"duration":0.2854166666666629},{"name":"G#4","midi":68,"time":141.73958333333226,"velocity":0.6062992125984252,"duration":1.0229166666666742},{"name":"D5","midi":74,"time":141.88333333333227,"velocity":0.6062992125984252,"duration":0.2874999999999943},{"name":"A#2","midi":46,"time":141.8854166666656,"velocity":0.5669291338582677,"duration":0.2854166666666629},{"name":"D#5","midi":75,"time":142.1729166666656,"velocity":0.6062992125984252,"duration":0.29583333333332007},{"name":"D#2","midi":39,"time":142.1729166666656,"velocity":0.5669291338582677,"duration":0.5875000000000057},{"name":"C#5","midi":73,"time":142.46874999999892,"velocity":0.6062992125984252,"duration":0.1458333333333428},{"name":"B4","midi":71,"time":142.61458333333226,"velocity":0.6062992125984252,"duration":0.1458333333333428},{"name":"A#4","midi":70,"time":142.76249999999894,"velocity":0.6062992125984252,"duration":0.28958333333332575},{"name":"F#4","midi":66,"time":142.76458333333227,"velocity":0.5669291338582677,"duration":0.581249999999983},{"name":"B4","midi":71,"time":143.05208333333226,"velocity":0.6062992125984252,"duration":0.29374999999998863},{"name":"D#3","midi":51,"time":143.0541666666656,"velocity":0.5669291338582677,"duration":0.2916666666666572},{"name":"C#5","midi":73,"time":143.34791666666558,"velocity":0.6062992125984252,"duration":0.28750000000002274},{"name":"E4","midi":64,"time":143.34999999999891,"velocity":0.5669291338582677,"duration":1.7500000000000284},{"name":"E3","midi":52,"time":143.34999999999891,"velocity":0.5669291338582677,"duration":0.26666666666667993},{"name":"E3","midi":52,"time":143.63749999999894,"velocity":0.5669291338582677,"duration":0.28958333333332575},{"name":"A#4","midi":70,"time":143.9291666666656,"velocity":0.6062992125984252,"duration":0.2895833333333542},{"name":"F#3","midi":54,"time":143.9291666666656,"velocity":0.5669291338582677,"duration":0.2708333333333428},{"name":"F#3","midi":54,"time":144.21874999999895,"velocity":0.5669291338582677,"duration":0.2916666666666572},{"name":"B4","midi":71,"time":144.51249999999894,"velocity":0.6062992125984252,"duration":0.28958333333332575},{"name":"B2","midi":47,"time":144.51249999999894,"velocity":0.5669291338582677,"duration":0.5854166666666742},{"name":"A#4","midi":70,"time":144.8041666666656,"velocity":0.6062992125984252,"duration":0.1458333333333428},{"name":"G#4","midi":68,"time":144.94999999999894,"velocity":0.6062992125984252,"duration":0.14791666666667425},{"name":"D#4","midi":63,"time":145.09999999999894,"velocity":0.5669291338582677,"duration":0.5854166666666458},{"name":"G4","midi":67,"time":145.09999999999894,"velocity":0.5669291338582677,"duration":0.2916666666666572},{"name":"G#4","midi":68,"time":145.3916666666656,"velocity":0.6062992125984252,"duration":0.2916666666666572},{"name":"B2","midi":47,"time":145.39374999999893,"velocity":0.5669291338582677,"duration":0.28958333333332575},{"name":"A#4","midi":70,"time":145.6854166666656,"velocity":0.6062992125984252,"duration":0.2895833333333542},{"name":"C#4","midi":61,"time":145.68749999999892,"velocity":0.5669291338582677,"duration":1.4520833333333485},{"name":"C#3","midi":49,"time":145.68749999999892,"velocity":0.5669291338582677,"duration":0.26666666666667993},{"name":"C#3","midi":49,"time":145.97499999999894,"velocity":0.5669291338582677,"duration":0.28958333333332575},{"name":"G4","midi":67,"time":146.2666666666656,"velocity":0.5669291338582677,"duration":0.2895833333333542},{"name":"D#3","midi":51,"time":146.2666666666656,"velocity":0.5669291338582677,"duration":0.2708333333333428},{"name":"D#3","midi":51,"time":146.55833333333229,"velocity":0.5669291338582677,"duration":0.2916666666666572},{"name":"G#4","midi":68,"time":146.84999999999894,"velocity":0.6062992125984252,"duration":0.5833333333333428},{"name":"G#2","midi":44,"time":146.84999999999894,"velocity":0.5669291338582677,"duration":0.28958333333332575},{"name":"B3","midi":59,"time":147.1416666666656,"velocity":0.5669291338582677,"duration":0.14375000000001137},{"name":"A#2","midi":46,"time":147.1416666666656,"velocity":0.5669291338582677,"duration":0.2895833333333542},{"name":"C#4","midi":61,"time":147.2854166666656,"velocity":0.5669291338582677,"duration":0.1458333333333428},{"name":"G#3","midi":56,"time":147.43333333333229,"velocity":0.5669291338582677,"duration":0.5854166666666742},{"name":"D#4","midi":63,"time":147.43541666666562,"velocity":0.5669291338582677,"duration":0.28958333333332575},{"name":"B2","midi":47,"time":147.43541666666562,"velocity":0.5669291338582677,"duration":0.2874999999999943},{"name":"C#3","midi":49,"time":147.72499999999894,"velocity":0.5669291338582677,"duration":0.29375000000001705},{"name":"C#4","midi":61,"time":147.72499999999894,"velocity":0.5669291338582677,"duration":0.14375000000001137},{"name":"B3","midi":59,"time":147.87083333333229,"velocity":0.5669291338582677,"duration":0.1458333333333428},{"name":"D#3","midi":51,"time":148.0208333333323,"velocity":0.5669291338582677,"duration":0.2916666666666572},{"name":"A#3","midi":58,"time":148.0208333333323,"velocity":0.5669291338582677,"duration":0.2916666666666572},{"name":"G3","midi":55,"time":148.02291666666562,"velocity":0.5669291338582677,"duration":0.2874999999999943},{"name":"G#4","midi":68,"time":148.31458333333228,"velocity":0.6062992125984252,"duration":0.59375},{"name":"C4","midi":60,"time":148.31458333333228,"velocity":0.5669291338582677,"duration":0.14374999999998295},{"name":"F#3","midi":54,"time":148.3166666666656,"velocity":0.5669291338582677,"duration":0.4375},{"name":"G#3","midi":56,"time":148.3166666666656,"velocity":0.5669291338582677,"duration":0.13958333333332007},{"name":"A#3","midi":58,"time":148.45833333333226,"velocity":0.5669291338582677,"duration":0.15000000000000568},{"name":"C#4","midi":61,"time":148.4604166666656,"velocity":0.5669291338582677,"duration":0.1458333333333428},{"name":"C4","midi":60,"time":148.60833333333227,"velocity":0.5669291338582677,"duration":0.29791666666667993},{"name":"D#4","midi":63,"time":148.6104166666656,"velocity":0.5669291338582677,"duration":0.2958333333333485},{"name":"G#3","midi":56,"time":148.75624999999894,"velocity":0.5669291338582677,"duration":0.14791666666667425},{"name":"A#4","midi":70,"time":148.90833333333228,"velocity":0.6062992125984252,"duration":0.30000000000001137},{"name":"A#3","midi":58,"time":148.9104166666656,"velocity":0.5669291338582677,"duration":0.2958333333333485},{"name":"D4","midi":62,"time":148.9104166666656,"velocity":0.5669291338582677,"duration":0.1458333333333428},{"name":"F#3","midi":54,"time":148.91249999999894,"velocity":0.5669291338582677,"duration":0.14166666666667993},{"name":"F3","midi":53,"time":149.05624999999895,"velocity":0.5669291338582677,"duration":0.15000000000000568},{"name":"D#4","midi":63,"time":149.05833333333229,"velocity":0.5669291338582677,"duration":0.14791666666667425},{"name":"B4","midi":71,"time":149.2083333333323,"velocity":0.6062992125984252,"duration":0.5937500000000284},{"name":"G#3","midi":56,"time":149.21041666666562,"velocity":0.5669291338582677,"duration":0.2916666666666856},{"name":"F4","midi":65,"time":149.21041666666562,"velocity":0.5669291338582677,"duration":0.29375000000001705},{"name":"D#3","midi":51,"time":149.21249999999895,"velocity":0.5669291338582677,"duration":0.14166666666667993},{"name":"D3","midi":50,"time":149.35416666666563,"velocity":0.5669291338582677,"duration":0.1458333333333428},{"name":"D#4","midi":63,"time":149.50416666666564,"velocity":0.5669291338582677,"duration":0.14791666666667425},{"name":"D4","midi":62,"time":149.50416666666564,"velocity":0.5669291338582677,"duration":0.29791666666667993},{"name":"C3","midi":48,"time":149.50624999999897,"velocity":0.5669291338582677,"duration":0.14375000000001137},{"name":"F4","midi":65,"time":149.65416666666565,"velocity":0.5669291338582677,"duration":0.1458333333333428},{"name":"A#2","midi":46,"time":149.65416666666565,"velocity":0.5669291338582677,"duration":0.1458333333333428},{"name":"A#4","midi":70,"time":149.80416666666565,"velocity":0.6062992125984252,"duration":0.5854166666666742},{"name":"D#4","midi":63,"time":149.80416666666565,"velocity":0.5669291338582677,"duration":0.2916666666666572},{"name":"F#4","midi":66,"time":149.80416666666565,"velocity":0.5669291338582677,"duration":0.2916666666666572},{"name":"G#2","midi":44,"time":149.80624999999898,"velocity":0.5669291338582677,"duration":0.13958333333332007},{"name":"F#2","midi":42,"time":149.94791666666563,"velocity":0.5669291338582677,"duration":0.1458333333333428},{"name":"D#4","midi":63,"time":150.09791666666564,"velocity":0.5669291338582677,"duration":0.2895833333333542},{"name":"F#3","midi":54,"time":150.09791666666564,"velocity":0.5669291338582677,"duration":0.2895833333333542},{"name":"G#2","midi":44,"time":150.09791666666564,"velocity":0.5669291338582677,"duration":0.14375000000001137},{"name":"A#2","midi":46,"time":150.24374999999898,"velocity":0.5669291338582677,"duration":0.14166666666667993},{"name":"G#4","midi":68,"time":150.38958333333233,"velocity":0.6062992125984252,"duration":1.7541666666666629},{"name":"F4","midi":65,"time":150.39166666666566,"velocity":0.5669291338582677,"duration":0.2854166666666629},{"name":"G#3","midi":56,"time":150.39166666666566,"velocity":0.5669291338582677,"duration":0.26458333333332007},{"name":"B2","midi":47,"time":150.393749999999,"velocity":0.5669291338582677,"duration":0.5791666666666515},{"name":"G#3","midi":56,"time":150.67916666666565,"velocity":0.5669291338582677,"duration":0.29374999999998863},{"name":"D4","midi":62,"time":150.97499999999897,"velocity":0.5669291338582677,"duration":0.2916666666666856},{"name":"A#3","midi":58,"time":150.97499999999897,"velocity":0.5669291338582677,"duration":0.2708333333333428},{"name":"A#2","midi":46,"time":150.97499999999897,"velocity":0.5669291338582677,"duration":0.2916666666666856},{"name":"A#3","midi":58,"time":151.268749999999,"velocity":0.5669291338582677,"duration":0.2916666666666572},{"name":"G#2","midi":44,"time":151.268749999999,"velocity":0.5669291338582677,"duration":0.2916666666666572},{"name":"D#3","midi":51,"time":151.56249999999898,"velocity":0.5669291338582677,"duration":0.5791666666666799},{"name":"D#4","midi":63,"time":151.56249999999898,"velocity":0.5669291338582677,"duration":0.28958333333332575},{"name":"F#2","midi":42,"time":151.5645833333323,"velocity":0.5669291338582677,"duration":0.2874999999999943},{"name":"C#4","midi":61,"time":151.85416666666563,"velocity":0.5669291338582677,"duration":0.14166666666667993},{"name":"A#2","midi":46,"time":151.85416666666563,"velocity":0.5669291338582677,"duration":0.28750000000002274},{"name":"B3","midi":59,"time":151.99791666666565,"velocity":0.5669291338582677,"duration":0.14166666666667993},{"name":"F#4","midi":66,"time":152.143749999999,"velocity":0.5669291338582677,"duration":0.5729166666666572},{"name":"A#3","midi":58,"time":152.14583333333232,"velocity":0.5669291338582677,"duration":0.28125},{"name":"D#2","midi":39,"time":152.14583333333232,"velocity":0.5669291338582677,"duration":0.5708333333333258},{"name":"B3","midi":59,"time":152.42916666666565,"velocity":0.5669291338582677,"duration":0.2854166666666629},{"name":"D#3","midi":51,"time":152.42916666666565,"velocity":0.5669291338582677,"duration":0.2854166666666629},{"name":"E4","midi":64,"time":152.71874999999898,"velocity":0.5669291338582677,"duration":1.4479166666666856},{"name":"E3","midi":52,"time":152.71874999999898,"velocity":0.5669291338582677,"duration":0.26458333333332007},{"name":"C#4","midi":61,"time":152.7208333333323,"velocity":0.5669291338582677,"duration":0.28125},{"name":"E3","midi":52,"time":153.0020833333323,"velocity":0.5669291338582677,"duration":0.2916666666666572},{"name":"A#3","midi":58,"time":153.2958333333323,"velocity":0.5669291338582677,"duration":0.2916666666666856},{"name":"F#3","midi":54,"time":153.2958333333323,"velocity":0.5669291338582677,"duration":0.27291666666667425},{"name":"F#3","midi":54,"time":153.5895833333323,"velocity":0.5669291338582677,"duration":0.2916666666666572},{"name":"B3","midi":59,"time":153.88124999999897,"velocity":0.5669291338582677,"duration":0.5729166666666856},{"name":"B2","midi":47,"time":153.88124999999897,"velocity":0.5669291338582677,"duration":0.14166666666667993},{"name":"D#3","midi":51,"time":154.02291666666565,"velocity":0.5669291338582677,"duration":0.14375000000001137},{"name":"D#4","midi":63,"time":154.168749999999,"velocity":0.5669291338582677,"duration":0.2854166666666629},{"name":"E3","midi":52,"time":154.168749999999,"velocity":0.5669291338582677,"duration":0.13958333333332007},{"name":"F#3","midi":54,"time":154.3083333333323,"velocity":0.5669291338582677,"duration":0.14375000000001137},{"name":"B4","midi":71,"time":154.45416666666566,"velocity":0.6062992125984252,"duration":1.1750000000000114},{"name":"G#3","midi":56,"time":154.456249999999,"velocity":0.5669291338582677,"duration":1.17291666666668},{"name":"B3","midi":59,"time":154.74166666666565,"velocity":0.5669291338582677,"duration":0.29791666666667993},{"name":"G#2","midi":44,"time":154.74166666666565,"velocity":0.5669291338582677,"duration":0.29791666666667993},{"name":"C#4","midi":61,"time":155.04166666666566,"velocity":0.5669291338582677,"duration":0.2708333333333428},{"name":"A2","midi":45,"time":155.04166666666566,"velocity":0.5669291338582677,"duration":0.2916666666666856},{"name":"C#4","midi":61,"time":155.33333333333235,"velocity":0.5669291338582677,"duration":0.29374999999998863},{"name":"A2","midi":45,"time":155.33541666666568,"velocity":0.5669291338582677,"duration":0.2916666666666572},{"name":"A4","midi":69,"time":155.631249999999,"velocity":0.6062992125984252,"duration":1.13958333333332},{"name":"D#4","midi":63,"time":155.631249999999,"velocity":0.5669291338582677,"duration":0.26875000000001137},{"name":"F#3","midi":54,"time":155.63333333333233,"velocity":0.5669291338582677,"duration":0.5770833333333485},{"name":"B2","midi":47,"time":155.63333333333233,"velocity":0.5669291338582677,"duration":0.28333333333335986},{"name":"D#4","midi":63,"time":155.91874999999902,"velocity":0.5669291338582677,"duration":0.2916666666666572},{"name":"B2","midi":47,"time":155.91874999999902,"velocity":0.5669291338582677,"duration":0.28958333333332575},{"name":"E3","midi":52,"time":156.212499999999,"velocity":0.5669291338582677,"duration":0.5562499999999773},{"name":"E4","midi":64,"time":156.212499999999,"velocity":0.5669291338582677,"duration":0.1354166666666572},{"name":"E2","midi":40,"time":156.21458333333234,"velocity":0.5669291338582677,"duration":0.5541666666666458},{"name":"B3","midi":59,"time":156.34791666666567,"velocity":0.5669291338582677,"duration":0.13958333333332007},{"name":"C#4","midi":61,"time":156.487499999999,"velocity":0.5669291338582677,"duration":0.13749999999998863},{"name":"D#4","midi":63,"time":156.62499999999898,"velocity":0.5669291338582677,"duration":0.14166666666667993},{"name":"E3","midi":52,"time":156.77083333333232,"velocity":0.5669291338582677,"duration":1.13958333333332},{"name":"E4","midi":64,"time":156.77291666666565,"velocity":0.5669291338582677,"duration":0.2770833333333371},{"name":"G#4","midi":68,"time":157.049999999999,"velocity":0.6062992125984252,"duration":0.28125},{"name":"B3","midi":59,"time":157.049999999999,"velocity":0.5669291338582677,"duration":0.28125},{"name":"A#4","midi":70,"time":157.33333333333232,"velocity":0.6062992125984252,"duration":0.26874999999998295},{"name":"C#4","midi":61,"time":157.33333333333232,"velocity":0.5669291338582677,"duration":0.2666666666666515},{"name":"F#4","midi":66,"time":157.33541666666565,"velocity":0.5669291338582677,"duration":1.2854166666666345},{"name":"A#4","midi":70,"time":157.61874999999898,"velocity":0.6062992125984252,"duration":0.2916666666666572},{"name":"C#4","midi":61,"time":157.6208333333323,"velocity":0.5669291338582677,"duration":0.2874999999999943},{"name":"C5","midi":72,"time":157.91249999999897,"velocity":0.6062992125984252,"duration":0.26458333333332007},{"name":"D#4","midi":63,"time":157.91249999999897,"velocity":0.5669291338582677,"duration":0.26458333333332007},{"name":"D#3","midi":51,"time":157.9145833333323,"velocity":0.5669291338582677,"duration":0.5687499999999943},{"name":"C5","midi":72,"time":158.1958333333323,"velocity":0.6062992125984252,"duration":0.2854166666666629},{"name":"D#4","midi":63,"time":158.1958333333323,"velocity":0.5669291338582677,"duration":0.2854166666666629},{"name":"C#5","midi":73,"time":158.4833333333323,"velocity":0.6062992125984252,"duration":0.5562499999999488},{"name":"G#3","midi":56,"time":158.48541666666563,"velocity":0.5669291338582677,"duration":1.0770833333332632},{"name":"C#3","midi":49,"time":158.48541666666563,"velocity":0.5669291338582677,"duration":0.27499999999997726},{"name":"D#4","midi":63,"time":158.62291666666562,"velocity":0.5669291338582677,"duration":0.1354166666666572},{"name":"D#3","midi":51,"time":158.7604166666656,"velocity":0.5669291338582677,"duration":0.27916666666664014},{"name":"E4","midi":64,"time":158.76249999999894,"velocity":0.5669291338582677,"duration":0.13749999999998863},{"name":"F#4","midi":66,"time":158.89999999999893,"velocity":0.5669291338582677,"duration":0.13749999999998863},{"name":"G#4","midi":68,"time":159.03958333333225,"velocity":0.6062992125984252,"duration":0.2854166666666629},{"name":"E3","midi":52,"time":159.04166666666558,"velocity":0.5669291338582677,"duration":0.28125},{"name":"C#5","midi":73,"time":159.3249999999989,"velocity":0.6062992125984252,"duration":0.2874999999999943},{"name":"F#4","midi":66,"time":159.3249999999989,"velocity":0.5669291338582677,"duration":0.1416666666666515},{"name":"F#3","midi":54,"time":159.32708333333224,"velocity":0.5669291338582677,"duration":0.28333333333333144},{"name":"E4","midi":64,"time":159.46666666666556,"velocity":0.5669291338582677,"duration":0.14375000000001137},{"name":"C5","midi":72,"time":159.6124999999989,"velocity":0.6062992125984252,"duration":0.2874999999999943},{"name":"G#3","midi":56,"time":159.61458333333223,"velocity":0.5669291338582677,"duration":2.8458333333333314},{"name":"D#4","midi":63,"time":159.61458333333223,"velocity":0.5669291338582677,"duration":0.28333333333333144},{"name":"C#5","midi":73,"time":159.8999999999989,"velocity":0.6062992125984252,"duration":0.14374999999998295},{"name":"G#4","midi":68,"time":159.8999999999989,"velocity":0.6062992125984252,"duration":0.5749999999999886},{"name":"A#3","midi":58,"time":159.90208333333223,"velocity":0.5669291338582677,"duration":0.13958333333332007},{"name":"D#5","midi":75,"time":160.04374999999888,"velocity":0.6062992125984252,"duration":0.14375000000001137},{"name":"C4","midi":60,"time":160.04374999999888,"velocity":0.5669291338582677,"duration":0.14166666666667993},{"name":"E5","midi":76,"time":160.1874999999989,"velocity":0.6062992125984252,"duration":0.2854166666666629},{"name":"C#4","midi":61,"time":160.18958333333222,"velocity":0.5669291338582677,"duration":0.28333333333333144},{"name":"D#5","midi":75,"time":160.4749999999989,"velocity":0.6062992125984252,"duration":0.2854166666666913},{"name":"D#4","midi":63,"time":160.4749999999989,"velocity":0.5669291338582677,"duration":0.28333333333335986},{"name":"G4","midi":67,"time":160.4749999999989,"velocity":0.5669291338582677,"duration":0.14166666666667993},{"name":"G#4","midi":68,"time":160.61666666666557,"velocity":0.6062992125984252,"duration":0.14166666666667993},{"name":"A#4","midi":70,"time":160.76041666666558,"velocity":0.6062992125984252,"duration":0.27916666666666856},{"name":"C#5","midi":73,"time":160.7624999999989,"velocity":0.6062992125984252,"duration":0.2750000000000057},{"name":"E4","midi":64,"time":160.7624999999989,"velocity":0.5669291338582677,"duration":0.5625},{"name":"G5","midi":79,"time":161.03958333333225,"velocity":0.5590551181102362,"duration":0.28333333333333144},{"name":"G#4","midi":68,"time":161.04166666666558,"velocity":0.6062992125984252,"duration":0.13749999999998863},{"name":"A#4","midi":70,"time":161.1812499999989,"velocity":0.6062992125984252,"duration":0.14166666666667993},{"name":"G#5","midi":80,"time":161.3249999999989,"velocity":0.5590551181102362,"duration":0.28333333333333144},{"name":"B4","midi":71,"time":161.3249999999989,"velocity":0.6062992125984252,"duration":0.26249999999998863},{"name":"D#4","midi":63,"time":161.32708333333224,"velocity":0.5669291338582677,"duration":0.5687499999999943},{"name":"B4","midi":71,"time":161.60833333333224,"velocity":0.6062992125984252,"duration":0.2874999999999943},{"name":"G#4","midi":68,"time":161.61041666666557,"velocity":0.6062992125984252,"duration":0.28333333333333144},{"name":"A4","midi":69,"time":161.89791666666557,"velocity":0.6062992125984252,"duration":0.28333333333333144},{"name":"C#5","midi":73,"time":161.89791666666557,"velocity":0.6062992125984252,"duration":0.26458333333332007},{"name":"E4","midi":64,"time":161.8999999999989,"velocity":0.5669291338582677,"duration":0.27916666666666856},{"name":"C#5","midi":73,"time":162.1812499999989,"velocity":0.6062992125984252,"duration":0.27916666666666856},{"name":"A4","midi":69,"time":162.4624999999989,"velocity":0.6062992125984252,"duration":0.27916666666666856},{"name":"D#5","midi":75,"time":162.4624999999989,"velocity":0.6062992125984252,"duration":0.2604166666666572},{"name":"F#3","midi":54,"time":162.46458333333223,"velocity":0.5669291338582677,"duration":1.1208333333333371},{"name":"F#4","midi":66,"time":162.46458333333223,"velocity":0.5669291338582677,"duration":0.2750000000000057},{"name":"D#5","midi":75,"time":162.74166666666557,"velocity":0.6062992125984252,"duration":0.28125},{"name":"G#4","midi":68,"time":163.02291666666557,"velocity":0.6062992125984252,"duration":0.28125},{"name":"D#4","midi":63,"time":163.0249999999989,"velocity":0.5669291338582677,"duration":0.2770833333333371},{"name":"C4","midi":60,"time":163.0249999999989,"velocity":0.5669291338582677,"duration":0.2770833333333371},{"name":"C5","midi":72,"time":163.30416666666557,"velocity":0.6062992125984252,"duration":0.27916666666666856},{"name":"C#5","midi":73,"time":163.58541666666557,"velocity":0.6062992125984252,"duration":1.1312499999999943},{"name":"G#4","midi":68,"time":163.86458333333223,"velocity":0.6062992125984252,"duration":0.28333333333333144},{"name":"E3","midi":52,"time":163.86458333333223,"velocity":0.5669291338582677,"duration":0.28125},{"name":"E4","midi":64,"time":163.86666666666557,"velocity":0.5669291338582677,"duration":0.27916666666666856},{"name":"A#4","midi":70,"time":164.14791666666557,"velocity":0.6062992125984252,"duration":0.28333333333333144},{"name":"D#4","midi":63,"time":164.14791666666557,"velocity":0.5669291338582677,"duration":0.39791666666667425},{"name":"G2","midi":43,"time":164.1499999999989,"velocity":0.5669291338582677,"duration":0.27916666666666856},{"name":"G2","midi":43,"time":164.4312499999989,"velocity":0.5669291338582677,"duration":0.28333333333333144},{"name":"B4","midi":71,"time":164.71666666666556,"velocity":0.6062992125984252,"duration":1.1270833333333314},{"name":"G#4","midi":68,"time":164.7187499999989,"velocity":0.6062992125984252,"duration":0.28333333333333144},{"name":"D#4","midi":63,"time":164.7187499999989,"velocity":0.5669291338582677,"duration":0.5625},{"name":"G#2","midi":44,"time":164.72083333333222,"velocity":0.5669291338582677,"duration":0.27916666666666856},{"name":"F#4","midi":66,"time":165.00208333333222,"velocity":0.5669291338582677,"duration":0.3062500000000057},{"name":"G#2","midi":44,"time":165.00208333333222,"velocity":0.5669291338582677,"duration":0.27916666666666856},{"name":"C#4","midi":61,"time":165.28333333333222,"velocity":0.5669291338582677,"duration":0.5583333333333371},{"name":"E4","midi":64,"time":165.28333333333222,"velocity":0.5669291338582677,"duration":0.27916666666666856},{"name":"C#2","midi":37,"time":165.28541666666555,"velocity":0.5669291338582677,"duration":0.2750000000000057},{"name":"D#4","midi":63,"time":165.5624999999989,"velocity":0.5669291338582677,"duration":0.3062500000000057},{"name":"D#2","midi":39,"time":165.56458333333222,"velocity":0.5669291338582677,"duration":0.2770833333333371},{"name":"A#4","midi":70,"time":165.8437499999989,"velocity":0.6062992125984252,"duration":0.27291666666667425},{"name":"C#4","midi":61,"time":165.84583333333222,"velocity":0.5669291338582677,"duration":0.9166666666666856},{"name":"E2","midi":40,"time":165.84583333333222,"velocity":0.5669291338582677,"duration":0.5500000000000114},{"name":"G#4","midi":68,"time":166.1187499999989,"velocity":0.6062992125984252,"duration":0.30416666666667425},{"name":"C#3","midi":49,"time":166.1187499999989,"velocity":0.5669291338582677,"duration":0.2770833333333371},{"name":"D#3","midi":51,"time":166.39791666666557,"velocity":0.5669291338582677,"duration":4.489583333333371},{"name":"G4","midi":67,"time":166.39791666666557,"velocity":0.5669291338582677,"duration":0.3062500000000057},{"name":"D#2","midi":39,"time":166.3999999999989,"velocity":0.5669291338582677,"duration":1.2312500000000455},{"name":"G#4","midi":68,"time":166.6749999999989,"velocity":0.6062992125984252,"duration":0.6812500000000341},{"name":"B3","midi":59,"time":166.6749999999989,"velocity":0.5669291338582677,"duration":0.2916666666666856},{"name":"A#3","midi":58,"time":166.96874999999892,"velocity":0.5669291338582677,"duration":0.6625000000000227},{"name":"G4","midi":67,"time":167.26874999999893,"velocity":0.5669291338582677,"duration":0.39166666666667993},{"name":"G#4","midi":68,"time":167.63333333333227,"velocity":0.6062992125984252,"duration":3.2562499999999943},{"name":"C4","midi":60,"time":167.6354166666656,"velocity":0.48031496062992124,"duration":3.2520833333333314},{"name":"G#2","midi":44,"time":167.6354166666656,"velocity":0.5039370078740157,"duration":3.25}],"controlChanges":{"7":[{"number":7,"time":0,"value":0.8267716535433071},{"number":7,"time":0,"value":0.7874015748031497},{"number":7,"time":0,"value":0.7874015748031497}],"10":[{"number":10,"time":0,"value":0.49606299212598426},{"number":10,"time":0,"value":0.3779527559055118},{"number":10,"time":0,"value":0.3779527559055118},{"number":10,"time":4.485416666666667,"value":0.5275590551181102},{"number":10,"time":4.608333333333333,"value":0.47244094488188976},{"number":10,"time":4.677083333333333,"value":0.6220472440944882},{"number":10,"time":4.677083333333333,"value":0.4566929133858268},{"number":10,"time":4.741666666666666,"value":0.4330708661417323},{"number":10,"time":4.8125,"value":0.4645669291338583},{"number":10,"time":4.8875,"value":0.5905511811023622},{"number":10,"time":4.90625,"value":0.5196850393700787},{"number":10,"time":4.964583333333334,"value":0.5826771653543307}],"64":[{"number":64,"time":175.18333333333226,"value":0},{"number":64,"time":175.1854166666656,"value":0},{"number":64,"time":175.18749999999892,"value":0},{"number":64,"time":175.2354166666656,"value":0},{"number":64,"time":175.23749999999893,"value":0},{"number":64,"time":175.23958333333226,"value":0}]},"id":0,"name":"--------","instrumentNumber":0,"instrument":"acoustic grand piano","instrumentFamily":"piano","channelNumber":0,"isPercussion":false}]}