{"header":{"PPQ":384,"timeSignature":[4,4],"bpm":120,"name":"--------"},"startTime":0,"duration":103.04817708333333,"tracks":[{"startTime":0,"duration":0,"length":0,"notes":[],"controlChanges":{},"id":0,"name":"--------"},{"startTime":0.0625,"duration":103.04817708333333,"length":539,"notes":[{"name":"G3","midi":55,"time":0.0625,"velocity":0.8031496062992126,"duration":0.9348958333333334},{"name":"D5","midi":74,"time":0.296875,"velocity":0.8031496062992126,"duration":0.23177083333333337},{"name":"A#4","midi":70,"time":0.53125,"velocity":0.8031496062992126,"duration":0.23177083333333337},{"name":"G4","midi":67,"time":0.765625,"velocity":0.8031496062992126,"duration":0.23177083333333337},{"name":"D#3","midi":51,"time":1,"velocity":0.8031496062992126,"duration":0.46614583333333326},{"name":"G5","midi":79,"time":1,"velocity":0.8031496062992126,"duration":0.46614583333333326},{"name":"D3","midi":50,"time":1.46875,"velocity":0.8031496062992126,"duration":0.9348958333333335},{"name":"F5","midi":77,"time":1.46875,"velocity":0.8031496062992126,"duration":1.4036458333333335},{"name":"A4","midi":69,"time":1.703125,"velocity":0.8031496062992126,"duration":0.23177083333333326},{"name":"F4","midi":65,"time":1.9375,"velocity":0.8031496062992126,"duration":0.23177083333333348},{"name":"D4","midi":62,"time":2.171875,"velocity":0.8031496062992126,"duration":0.23177083333333348},{"name":"A#3","midi":58,"time":2.40625,"velocity":0.8031496062992126,"duration":0.4661458333333335},{"name":"D5","midi":74,"time":2.40625,"velocity":0.8031496062992126,"duration":1.0807291666666665},{"name":"G3","midi":55,"time":2.875,"velocity":0.8031496062992126,"duration":0.9348958333333335},{"name":"D#5","midi":75,"time":2.875,"velocity":0.8031496062992126,"duration":1.403645833333333},{"name":"A#4","midi":70,"time":3.578125,"velocity":0.8031496062992126,"duration":0.23177083333333348},{"name":"A3","midi":57,"time":3.8125,"velocity":0.8031496062992126,"duration":0.46614583333333304},{"name":"C5","midi":72,"time":3.8125,"velocity":0.8031496062992126,"duration":1.169270833333333},{"name":"A#3","midi":58,"time":4.28125,"velocity":0.8031496062992126,"duration":0.23177083333333304},{"name":"D5","midi":74,"time":4.28125,"velocity":0.8031496062992126,"duration":1.403645833333333},{"name":"D4","midi":62,"time":4.515625,"velocity":0.8031496062992126,"duration":0.23177083333333304},{"name":"A#3","midi":58,"time":4.75,"velocity":0.8031496062992126,"duration":0.23177083333333304},{"name":"G3","midi":55,"time":4.984375,"velocity":0.8031496062992126,"duration":0.23177083333333304},{"name":"A4","midi":69,"time":4.984375,"velocity":0.8031496062992126,"duration":0.23177083333333304},{"name":"G4","midi":67,"time":5.21875,"velocity":0.8031496062992126,"duration":1.166666666666667},{"name":"A#4","midi":70,"time":5.21875,"velocity":0.8031496062992126,"duration":0.46614583333333304},{"name":"A4","midi":69,"time":5.6875,"velocity":0.8031496062992126,"duration":1.403645833333333},{"name":"C5","midi":72,"time":5.6875,"velocity":0.8031496062992126,"duration":0.934895833333333},{"name":"E4","midi":64,"time":6.390625,"velocity":0.8031496062992126,"duration":0.23177083333333304},{"name":"F#4","midi":66,"time":6.625,"velocity":0.8031496062992126,"duration":0.46614583333333304},{"name":"D5","midi":74,"time":6.625,"velocity":0.8031496062992126,"duration":0.46614583333333304},{"name":"G4","midi":67,"time":7.09375,"velocity":0.8031496062992126,"duration":0.23177083333333304},{"name":"A#4","midi":70,"time":7.09375,"velocity":0.8031496062992126,"duration":0.700520833333333},{"name":"F#4","midi":66,"time":7.328125,"velocity":0.8031496062992126,"duration":0.23177083333333304},{"name":"G4","midi":67,"time":7.5625,"velocity":0.8031496062992126,"duration":1.872395833333334},{"name":"A#4","midi":70,"time":7.796875,"velocity":0.8031496062992126,"duration":0.23177083333333393},{"name":"C4","midi":60,"time":8.03125,"velocity":0.8031496062992126,"duration":0.4661458333333339},{"name":"D#5","midi":75,"time":8.03125,"velocity":0.8031496062992126,"duration":0.4661458333333339},{"name":"D4","midi":62,"time":8.5,"velocity":0.8031496062992126,"duration":0.9348958333333339},{"name":"A4","midi":69,"time":8.5,"velocity":0.8031496062992126,"duration":0.7005208333333339},{"name":"A#4","midi":70,"time":9.203125,"velocity":0.8031496062992126,"duration":0.23177083333333393},{"name":"D3","midi":50,"time":9.4375,"velocity":0.8031496062992126,"duration":0.4661458333333339},{"name":"F#4","midi":66,"time":9.4375,"velocity":0.8031496062992126,"duration":0.4661458333333339},{"name":"C5","midi":72,"time":9.4375,"velocity":0.8031496062992126,"duration":0.4661458333333339},{"name":"G3","midi":55,"time":9.90625,"velocity":0.8031496062992126,"duration":0.23177083333333393},{"name":"G4","midi":67,"time":9.90625,"velocity":0.8031496062992126,"duration":1.403645833333334},{"name":"A#4","midi":70,"time":9.90625,"velocity":0.8031496062992126,"duration":1.403645833333334},{"name":"D3","midi":50,"time":10.140625,"velocity":0.8031496062992126,"duration":0.23177083333333393},{"name":"A#2","midi":46,"time":10.375,"velocity":0.8031496062992126,"duration":0.23177083333333393},{"name":"G2","midi":43,"time":10.609375,"velocity":0.8031496062992126,"duration":0.23177083333333393},{"name":"G3","midi":55,"time":10.84375,"velocity":0.8031496062992126,"duration":0.4661458333333339},{"name":"F3","midi":53,"time":11.3125,"velocity":0.8031496062992126,"duration":1.4062499999999911},{"name":"C5","midi":72,"time":11.3125,"velocity":0.8031496062992126,"duration":0.13411458333333393},{"name":"B4","midi":71,"time":11.44921875,"velocity":0.8031496062992126,"duration":0.13411458333333393},{"name":"D4","midi":62,"time":11.546875,"velocity":0.8031496062992126,"duration":0.23177083333333215},{"name":"C5","midi":72,"time":11.5859375,"velocity":0.8031496062992126,"duration":0.13932291666666607},{"name":"B4","midi":71,"time":11.727864583333332,"velocity":0.8031496062992126,"duration":0.13932291666666607},{"name":"B3","midi":59,"time":11.781249999999998,"velocity":0.8031496062992126,"duration":0.2330729166666643},{"name":"C5","midi":72,"time":11.869791666666664,"velocity":0.8031496062992126,"duration":0.13932291666666607},{"name":"B4","midi":71,"time":12.011718749999996,"velocity":0.8031496062992126,"duration":0.13932291666666607},{"name":"G3","midi":55,"time":12.016927083333329,"velocity":0.8031496062992126,"duration":0.23177083333333393},{"name":"C5","midi":72,"time":12.153645833333329,"velocity":0.8031496062992126,"duration":0.13932291666666607},{"name":"G4","midi":67,"time":12.251302083333329,"velocity":0.8031496062992126,"duration":1.8736979166666625},{"name":"B4","midi":71,"time":12.29557291666666,"velocity":0.8031496062992126,"duration":0.13932291666666607},{"name":"A4","midi":69,"time":12.437499999999993,"velocity":0.8031496062992126,"duration":0.13932291666666607},{"name":"B4","midi":71,"time":12.579427083333325,"velocity":0.8031496062992126,"duration":0.13932291666666607},{"name":"D#3","midi":51,"time":12.721354166666657,"velocity":0.8031496062992126,"duration":0.23177083333333393},{"name":"C5","midi":72,"time":12.721354166666657,"velocity":0.8031496062992126,"duration":0.7005208333333339},{"name":"G3","midi":55,"time":12.955729166666657,"velocity":0.8031496062992126,"duration":0.23177083333333393},{"name":"D#3","midi":51,"time":13.190104166666657,"velocity":0.8031496062992126,"duration":0.23177083333333393},{"name":"C3","midi":48,"time":13.424479166666657,"velocity":0.8031496062992126,"duration":0.23177083333333393},{"name":"D5","midi":74,"time":13.424479166666657,"velocity":0.8031496062992126,"duration":0.23177083333333393},{"name":"C4","midi":60,"time":13.658854166666657,"velocity":0.8031496062992126,"duration":1.403645833333334},{"name":"D#5","midi":75,"time":13.658854166666657,"velocity":0.8031496062992126,"duration":0.7005208333333339},{"name":"F4","midi":65,"time":14.127604166666657,"velocity":0.8031496062992126,"duration":0.9348958333333339},{"name":"D5","midi":74,"time":14.361979166666657,"velocity":0.8031496062992126,"duration":0.23177083333333393},{"name":"B4","midi":71,"time":14.596354166666657,"velocity":0.8031496062992126,"duration":0.23177083333333393},{"name":"G4","midi":67,"time":14.830729166666657,"velocity":0.8031496062992126,"duration":0.23177083333333393},{"name":"B3","midi":59,"time":15.065104166666657,"velocity":0.8031496062992126,"duration":0.46614583333333215},{"name":"D4","midi":62,"time":15.065104166666657,"velocity":0.8031496062992126,"duration":0.4635416666666661},{"name":"F5","midi":77,"time":15.065104166666657,"velocity":0.8031496062992126,"duration":0.46614583333333215},{"name":"C4","midi":60,"time":15.533854166666655,"velocity":0.8031496062992126,"duration":0.6835937500000018},{"name":"D#5","midi":75,"time":15.533854166666655,"velocity":0.8031496062992126,"duration":2.106770833333334},{"name":"G4","midi":67,"time":15.768229166666655,"velocity":0.8031496062992126,"duration":0.23177083333333393},{"name":"D#4","midi":63,"time":16.002604166666657,"velocity":0.8031496062992126,"duration":0.23177083333333215},{"name":"C4","midi":60,"time":16.236979166666657,"velocity":0.8031496062992126,"duration":0.23177083333333215},{"name":"A#4","midi":70,"time":16.471354166666657,"velocity":0.8031496062992126,"duration":0.46614583333333215},{"name":"A4","midi":69,"time":16.940104166666657,"velocity":0.8031496062992126,"duration":1.4036458333333321},{"name":"C4","midi":60,"time":17.174479166666657,"velocity":0.8031496062992126,"duration":0.23177083333333215},{"name":"A3","midi":57,"time":17.408854166666657,"velocity":0.8031496062992126,"duration":0.23177083333333215},{"name":"F3","midi":53,"time":17.643229166666657,"velocity":0.8031496062992126,"duration":0.23177083333333215},{"name":"D5","midi":74,"time":17.643229166666657,"velocity":0.8031496062992126,"duration":0.23177083333333215},{"name":"D#4","midi":63,"time":17.877604166666657,"velocity":0.8031496062992126,"duration":0.46614583333333215},{"name":"C5","midi":72,"time":17.877604166666657,"velocity":0.8031496062992126,"duration":0.7005208333333321},{"name":"D4","midi":62,"time":18.346354166666657,"velocity":0.8031496062992126,"duration":0.7005208333333321},{"name":"F4","midi":65,"time":18.346354166666657,"velocity":0.8031496062992126,"duration":0.68359375},{"name":"F5","midi":77,"time":18.580729166666657,"velocity":0.8031496062992126,"duration":0.23177083333333215},{"name":"D5","midi":74,"time":18.815104166666657,"velocity":0.8031496062992126,"duration":0.23177083333333215},{"name":"G4","midi":67,"time":19.049479166666657,"velocity":0.8031496062992126,"duration":0.23177083333333215},{"name":"A#4","midi":70,"time":19.049479166666657,"velocity":0.8031496062992126,"duration":1.6432291666666679},{"name":"D#4","midi":63,"time":19.283854166666657,"velocity":0.8031496062992126,"duration":0.46614583333333215},{"name":"A#5","midi":82,"time":19.283854166666657,"velocity":0.8031496062992126,"duration":0.46614583333333215},{"name":"F4","midi":65,"time":19.752604166666657,"velocity":0.8031496062992126,"duration":0.9348958333333321},{"name":"D5","midi":74,"time":19.752604166666657,"velocity":0.8031496062992126,"duration":0.7005208333333321},{"name":"D#5","midi":75,"time":20.455729166666657,"velocity":0.8031496062992126,"duration":0.23177083333333215},{"name":"F3","midi":53,"time":20.690104166666657,"velocity":0.8031496062992126,"duration":0.4661458333333357},{"name":"A4","midi":69,"time":20.690104166666657,"velocity":0.8031496062992126,"duration":0.4661458333333357},{"name":"C5","midi":72,"time":20.690104166666657,"velocity":0.8031496062992126,"duration":0.46354166666666785},{"name":"A#3","midi":58,"time":21.15885416666666,"velocity":0.8031496062992126,"duration":0.23177083333333215},{"name":"A#4","midi":70,"time":21.15885416666666,"velocity":0.8031496062992126,"duration":1.6380208333333321},{"name":"F3","midi":53,"time":21.39322916666666,"velocity":0.8031496062992126,"duration":0.23177083333333215},{"name":"D3","midi":50,"time":21.62760416666666,"velocity":0.8031496062992126,"duration":0.23177083333333215},{"name":"A#2","midi":46,"time":21.86197916666666,"velocity":0.8031496062992126,"duration":0.23177083333333215},{"name":"G#3","midi":56,"time":22.09635416666666,"velocity":0.8031496062992126,"duration":0.46614583333333215},{"name":"G3","midi":55,"time":22.56510416666666,"velocity":0.8031496062992126,"duration":0.68359375},{"name":"A#5","midi":82,"time":22.56510416666666,"velocity":0.8031496062992126,"duration":1.6380208333333321},{"name":"D4","midi":62,"time":22.79947916666666,"velocity":0.8031496062992126,"duration":0.23177083333333215},{"name":"A#3","midi":58,"time":23.03385416666666,"velocity":0.8031496062992126,"duration":0.23177083333333215},{"name":"G3","midi":55,"time":23.26822916666666,"velocity":0.8031496062992126,"duration":0.68359375},{"name":"F4","midi":65,"time":23.50260416666666,"velocity":0.8031496062992126,"duration":0.46614583333333215},{"name":"C4","midi":60,"time":23.97135416666666,"velocity":0.8031496062992126,"duration":0.46614583333333215},{"name":"D#4","midi":63,"time":23.97135416666666,"velocity":0.8031496062992126,"duration":1.6380208333333321},{"name":"G5","midi":79,"time":24.20572916666666,"velocity":0.8031496062992126,"duration":0.23177083333333215},{"name":"A#3","midi":58,"time":24.44010416666666,"velocity":0.8031496062992126,"duration":0.46614583333333215},{"name":"D#5","midi":75,"time":24.44010416666666,"velocity":0.8031496062992126,"duration":0.23177083333333215},{"name":"C5","midi":72,"time":24.67447916666666,"velocity":0.8031496062992126,"duration":0.23177083333333215},{"name":"C4","midi":60,"time":24.90885416666666,"velocity":0.8031496062992126,"duration":0.46614583333333215},{"name":"A#5","midi":82,"time":24.90885416666666,"velocity":0.8031496062992126,"duration":0.46614583333333215},{"name":"F3","midi":53,"time":25.37760416666666,"velocity":0.8031496062992126,"duration":1.4036458333333321},{"name":"A5","midi":81,"time":25.37760416666666,"velocity":0.8031496062992126,"duration":1.6380208333333321},{"name":"D#4","midi":63,"time":25.61197916666666,"velocity":0.8031496062992126,"duration":0.23177083333333215},{"name":"C4","midi":60,"time":25.84635416666666,"velocity":0.8031496062992126,"duration":0.23177083333333215},{"name":"A3","midi":57,"time":26.08072916666666,"velocity":0.8031496062992126,"duration":0.23177083333333215},{"name":"F4","midi":65,"time":26.31510416666666,"velocity":0.8031496062992126,"duration":0.46614583333333215},{"name":"A#3","midi":58,"time":26.78385416666666,"velocity":0.8031496062992126,"duration":0.46614583333333215},{"name":"D4","midi":62,"time":26.78385416666666,"velocity":0.8031496062992126,"duration":1.6380208333333321},{"name":"F5","midi":77,"time":27.01822916666666,"velocity":0.8031496062992126,"duration":0.23177083333333215},{"name":"A3","midi":57,"time":27.25260416666666,"velocity":0.8031496062992126,"duration":0.46614583333333215},{"name":"D5","midi":74,"time":27.25260416666666,"velocity":0.8031496062992126,"duration":0.23177083333333215},{"name":"A#4","midi":70,"time":27.48697916666666,"velocity":0.8031496062992126,"duration":0.23177083333333215},{"name":"A#3","midi":58,"time":27.72135416666666,"velocity":0.8031496062992126,"duration":0.46614583333333215},{"name":"A#5","midi":82,"time":27.72135416666666,"velocity":0.8031496062992126,"duration":0.46614583333333215},{"name":"E3","midi":52,"time":28.19010416666666,"velocity":0.8031496062992126,"duration":1.4036458333333321},{"name":"G5","midi":79,"time":28.19010416666666,"velocity":0.8031496062992126,"duration":1.6380208333333321},{"name":"D4","midi":62,"time":28.42447916666666,"velocity":0.8031496062992126,"duration":0.23177083333333215},{"name":"A#3","midi":58,"time":28.65885416666666,"velocity":0.8031496062992126,"duration":0.23177083333333215},{"name":"G3","midi":55,"time":28.89322916666666,"velocity":0.8031496062992126,"duration":0.23177083333333215},{"name":"E4","midi":64,"time":29.12760416666666,"velocity":0.8031496062992126,"duration":0.46614583333333215},{"name":"F3","midi":53,"time":29.59635416666666,"velocity":0.8031496062992126,"duration":1.4036458333333321},{"name":"C#4","midi":61,"time":29.59635416666666,"velocity":0.8031496062992126,"duration":0.46614583333333215},{"name":"E5","midi":76,"time":29.83072916666666,"velocity":0.8031496062992126,"duration":0.23177083333333215},{"name":"A3","midi":57,"time":30.06510416666666,"velocity":0.8031496062992126,"duration":0.46614583333333215},{"name":"C#5","midi":73,"time":30.06510416666666,"velocity":0.8031496062992126,"duration":0.23177083333333215},{"name":"A4","midi":69,"time":30.29947916666666,"velocity":0.8031496062992126,"duration":0.23177083333333215},{"name":"D4","midi":62,"time":30.53385416666666,"velocity":0.8031496062992126,"duration":0.9348958333333321},{"name":"F5","midi":77,"time":30.53385416666666,"velocity":0.8031496062992126,"duration":0.7005208333333321},{"name":"G3","midi":55,"time":31.00260416666666,"velocity":0.8031496062992126,"duration":0.46614583333333215},{"name":"D5","midi":74,"time":31.23697916666666,"velocity":0.8031496062992126,"duration":0.23177083333333215},{"name":"A3","midi":57,"time":31.47135416666666,"velocity":0.8031496062992126,"duration":0.46614583333333215},{"name":"C#4","midi":61,"time":31.47135416666666,"velocity":0.8031496062992126,"duration":0.46614583333333215},{"name":"A#4","midi":70,"time":31.47135416666666,"velocity":0.8031496062992126,"duration":0.23177083333333215},{"name":"G4","midi":67,"time":31.70572916666666,"velocity":0.8031496062992126,"duration":0.23177083333333215},{"name":"A#3","midi":58,"time":31.94010416666666,"velocity":0.8031496062992126,"duration":0.46614583333333215},{"name":"D4","midi":62,"time":31.94010416666666,"velocity":0.8031496062992126,"duration":0.46614583333333215},{"name":"E5","midi":76,"time":31.94010416666666,"velocity":0.8031496062992126,"duration":0.7005208333333321},{"name":"A3","midi":57,"time":32.40885416666666,"velocity":0.8031496062992126,"duration":1.4036458333333357},{"name":"D4","midi":62,"time":32.40885416666666,"velocity":0.8031496062992126,"duration":0.1145833333333357},{"name":"C#4","midi":61,"time":32.52604166666666,"velocity":0.8031496062992126,"duration":0.1145833333333357},{"name":"D4","midi":62,"time":32.64322916666666,"velocity":0.8031496062992126,"duration":0.1145833333333357},{"name":"G4","midi":67,"time":32.64322916666666,"velocity":0.8031496062992126,"duration":0.2317708333333357},{"name":"C#4","midi":61,"time":32.76041666666666,"velocity":0.8031496062992126,"duration":0.5833333333333357},{"name":"A#4","midi":70,"time":32.87760416666666,"velocity":0.8031496062992126,"duration":0.2317708333333357},{"name":"E5","midi":76,"time":33.11197916666666,"velocity":0.8031496062992126,"duration":0.2317708333333357},{"name":"D4","midi":62,"time":33.34635416666666,"velocity":0.8031496062992126,"duration":0.4661458333333357},{"name":"F4","midi":65,"time":33.34635416666666,"velocity":0.8031496062992126,"duration":0.2317708333333357},{"name":"D5","midi":74,"time":33.58072916666666,"velocity":0.8031496062992126,"duration":0.4661458333333357},{"name":"A3","midi":57,"time":33.81510416666666,"velocity":0.8031496062992126,"duration":1.4036458333333357},{"name":"E4","midi":64,"time":33.81510416666666,"velocity":0.8031496062992126,"duration":0.9348958333333357},{"name":"C#5","midi":73,"time":34.04947916666666,"velocity":0.8031496062992126,"duration":0.2317708333333357},{"name":"E5","midi":76,"time":34.28385416666666,"velocity":0.8031496062992126,"duration":0.2317708333333357},{"name":"G5","midi":79,"time":34.51822916666666,"velocity":0.8031496062992126,"duration":0.2317708333333357},{"name":"F4","midi":65,"time":34.75260416666666,"velocity":0.8031496062992126,"duration":0.4661458333333357},{"name":"D5","midi":74,"time":34.75260416666666,"velocity":0.8031496062992126,"duration":0.2317708333333357},{"name":"F5","midi":77,"time":34.98697916666666,"velocity":0.8031496062992126,"duration":0.4661458333333357},{"name":"A3","midi":57,"time":35.22135416666666,"velocity":0.8031496062992126,"duration":1.4036458333333357},{"name":"G4","midi":67,"time":35.22135416666666,"velocity":0.8031496062992126,"duration":0.9348958333333357},{"name":"E5","midi":76,"time":35.45572916666666,"velocity":0.8031496062992126,"duration":0.2317708333333357},{"name":"G5","midi":79,"time":35.69010416666666,"velocity":0.8031496062992126,"duration":0.2317708333333357},{"name":"A#5","midi":82,"time":35.92447916666666,"velocity":0.8031496062992126,"duration":0.2317708333333357},{"name":"F4","midi":65,"time":36.15885416666666,"velocity":0.8031496062992126,"duration":0.4661458333333357},{"name":"D5","midi":74,"time":36.15885416666666,"velocity":0.8031496062992126,"duration":0.2317708333333357},{"name":"A5","midi":81,"time":36.39322916666666,"velocity":0.8031496062992126,"duration":0.4661458333333357},{"name":"A3","midi":57,"time":36.62760416666666,"velocity":0.8031496062992126,"duration":1.4036458333333357},{"name":"E4","midi":64,"time":36.62760416666666,"velocity":0.8031496062992126,"duration":0.9348958333333357},{"name":"C#5","midi":73,"time":36.86197916666666,"velocity":0.8031496062992126,"duration":0.2317708333333357},{"name":"E5","midi":76,"time":37.09635416666666,"velocity":0.8031496062992126,"duration":0.2317708333333357},{"name":"G5","midi":79,"time":37.33072916666666,"velocity":0.8031496062992126,"duration":0.2317708333333357},{"name":"D4","midi":62,"time":37.56510416666666,"velocity":0.8031496062992126,"duration":0.4661458333333357},{"name":"B4","midi":71,"time":37.56510416666666,"velocity":0.8031496062992126,"duration":0.2317708333333357},{"name":"F5","midi":77,"time":37.79947916666666,"velocity":0.8031496062992126,"duration":0.4661458333333357},{"name":"A3","midi":57,"time":38.03385416666666,"velocity":0.8031496062992126,"duration":1.4036458333333357},{"name":"C#4","midi":61,"time":38.03385416666666,"velocity":0.8031496062992126,"duration":0.1536458333333357},{"name":"D4","midi":62,"time":38.19010416666666,"velocity":0.8031496062992126,"duration":0.1536458333333357},{"name":"A4","midi":69,"time":38.26822916666666,"velocity":0.8031496062992126,"duration":0.2317708333333357},{"name":"C#4","midi":61,"time":38.34635416666666,"velocity":0.8031496062992126,"duration":0.60546875},{"name":"C#5","midi":73,"time":38.50260416666666,"velocity":0.8031496062992126,"duration":0.2317708333333357},{"name":"E5","midi":76,"time":38.73697916666666,"velocity":0.8031496062992126,"duration":0.2317708333333357},{"name":"B3","midi":59,"time":38.97135416666666,"velocity":0.8031496062992126,"duration":0.4661458333333357},{"name":"G#4","midi":68,"time":38.97135416666666,"velocity":0.8031496062992126,"duration":0.2317708333333357},{"name":"D5","midi":74,"time":39.20572916666666,"velocity":0.8031496062992126,"duration":0.2317708333333357},{"name":"A3","midi":57,"time":39.44010416666666,"velocity":0.8031496062992126,"duration":0.68359375},{"name":"C#5","midi":73,"time":39.44010416666666,"velocity":0.8031496062992126,"duration":0.2317708333333357},{"name":"E5","midi":76,"time":39.67447916666666,"velocity":0.8031496062992126,"duration":0.2317708333333357},{"name":"C#5","midi":73,"time":39.90885416666666,"velocity":0.8031496062992126,"duration":0.2317708333333357},{"name":"G3","midi":55,"time":40.14322916666666,"velocity":0.8031496062992126,"duration":0.2317708333333357},{"name":"A4","midi":69,"time":40.14322916666666,"velocity":0.8031496062992126,"duration":0.2317708333333357},{"name":"F3","midi":53,"time":40.37760416666666,"velocity":0.8031496062992126,"duration":0.2317708333333357},{"name":"G5","midi":79,"time":40.37760416666666,"velocity":0.8031496062992126,"duration":0.4661458333333357},{"name":"E3","midi":52,"time":40.61197916666666,"velocity":0.8031496062992126,"duration":0.2317708333333357},{"name":"D3","midi":50,"time":40.84635416666666,"velocity":0.8031496062992126,"duration":0.9348958333333357},{"name":"F5","midi":77,"time":40.84635416666666,"velocity":0.8031496062992126,"duration":1.4036458333333357},{"name":"A4","midi":69,"time":41.08072916666666,"velocity":0.8031496062992126,"duration":0.2317708333333357},{"name":"F4","midi":65,"time":41.31510416666666,"velocity":0.8031496062992126,"duration":0.2317708333333357},{"name":"D4","midi":62,"time":41.54947916666666,"velocity":0.8031496062992126,"duration":0.2317708333333357},{"name":"A#2","midi":46,"time":41.78385416666666,"velocity":0.8031496062992126,"duration":0.4661458333333357},{"name":"D5","midi":74,"time":41.78385416666666,"velocity":0.8031496062992126,"duration":1.1692708333333357},{"name":"G2","midi":43,"time":42.25260416666666,"velocity":0.8031496062992126,"duration":0.9348958333333357},{"name":"D#5","midi":75,"time":42.25260416666666,"velocity":0.8031496062992126,"duration":1.4036458333333357},{"name":"A#4","midi":70,"time":42.95572916666666,"velocity":0.8031496062992126,"duration":0.2317708333333357},{"name":"A2","midi":45,"time":43.19010416666666,"velocity":0.8031496062992126,"duration":0.4661458333333357},{"name":"C5","midi":72,"time":43.19010416666666,"velocity":0.8031496062992126,"duration":1.1692708333333357},{"name":"A#2","midi":46,"time":43.65885416666666,"velocity":0.8031496062992126,"duration":0.2317708333333357},{"name":"D5","midi":74,"time":43.65885416666666,"velocity":0.8031496062992126,"duration":1.6380208333333357},{"name":"D3","midi":50,"time":43.89322916666666,"velocity":0.8031496062992126,"duration":0.2317708333333357},{"name":"A#2","midi":46,"time":44.12760416666666,"velocity":0.8031496062992126,"duration":0.2317708333333357},{"name":"G2","midi":43,"time":44.36197916666666,"velocity":0.8031496062992126,"duration":0.2317708333333357},{"name":"A4","midi":69,"time":44.36197916666666,"velocity":0.8031496062992126,"duration":0.2317708333333357},{"name":"G3","midi":55,"time":44.59635416666666,"velocity":0.8031496062992126,"duration":0.4661458333333357},{"name":"A#4","midi":70,"time":44.59635416666666,"velocity":0.8031496062992126,"duration":0.4661458333333357},{"name":"E3","midi":52,"time":45.06510416666666,"velocity":0.8031496062992126,"duration":0.7005208333333357},{"name":"G4","midi":67,"time":45.06510416666666,"velocity":0.8031496062992126,"duration":0.9348958333333357},{"name":"C#5","midi":73,"time":45.29947916666666,"velocity":0.8031496062992126,"duration":0.2317708333333357},{"name":"E5","midi":76,"time":45.53385416666666,"velocity":0.8031496062992126,"duration":0.2317708333333357},{"name":"E4","midi":64,"time":45.76822916666666,"velocity":0.8031496062992126,"duration":0.2317708333333357},{"name":"G5","midi":79,"time":45.76822916666666,"velocity":0.8031496062992126,"duration":0.2317708333333357},{"name":"D4","midi":62,"time":46.00260416666666,"velocity":0.8031496062992126,"duration":0.4661458333333286},{"name":"F4","midi":65,"time":46.00260416666666,"velocity":0.8031496062992126,"duration":0.4635416666666643},{"name":"A#5","midi":82,"time":46.00260416666666,"velocity":0.8031496062992126,"duration":0.4661458333333286},{"name":"C#4","midi":61,"time":46.47135416666665,"velocity":0.8031496062992126,"duration":0.4635416666666643},{"name":"A5","midi":81,"time":46.47135416666665,"velocity":0.8031496062992126,"duration":0.7005208333333286},{"name":"E4","midi":64,"time":46.70572916666665,"velocity":0.8031496062992126,"duration":0.2317708333333286},{"name":"C#4","midi":61,"time":46.94010416666664,"velocity":0.8031496062992126,"duration":0.4635416666666643},{"name":"A3","midi":57,"time":47.17447916666664,"velocity":0.8031496062992126,"duration":0.2317708333333286},{"name":"E5","midi":76,"time":47.17447916666664,"velocity":0.8031496062992126,"duration":0.2317708333333286},{"name":"D4","midi":62,"time":47.408854166666636,"velocity":0.8031496062992126,"duration":0.4661458333333357},{"name":"F5","midi":77,"time":47.408854166666636,"velocity":0.8031496062992126,"duration":0.4661458333333357},{"name":"A#3","midi":58,"time":47.877604166666636,"velocity":0.8031496062992126,"duration":0.4661458333333357},{"name":"F4","midi":65,"time":47.877604166666636,"velocity":0.8031496062992126,"duration":0.7005208333333357},{"name":"D5","midi":74,"time":47.877604166666636,"velocity":0.8031496062992126,"duration":0.7005208333333357},{"name":"G3","midi":55,"time":48.346354166666636,"velocity":0.8031496062992126,"duration":0.4661458333333357},{"name":"G4","midi":67,"time":48.580729166666636,"velocity":0.8031496062992126,"duration":0.2317708333333357},{"name":"E5","midi":76,"time":48.580729166666636,"velocity":0.8031496062992126,"duration":0.2317708333333357},{"name":"A3","midi":57,"time":48.815104166666636,"velocity":0.8031496062992126,"duration":0.4661458333333357},{"name":"E4","midi":64,"time":48.815104166666636,"velocity":0.8031496062992126,"duration":0.4661458333333357},{"name":"C#5","midi":73,"time":48.815104166666636,"velocity":0.8031496062992126,"duration":0.4661458333333357},{"name":"D3","midi":50,"time":49.283854166666636,"velocity":0.8031496062992126,"duration":0.4635416666666643},{"name":"D4","midi":62,"time":49.283854166666636,"velocity":0.8031496062992126,"duration":0.8789062499999929},{"name":"D5","midi":74,"time":49.283854166666636,"velocity":0.8031496062992126,"duration":0.9348958333333286},{"name":"D2","midi":38,"time":49.518229166666636,"velocity":0.8031496062992126,"duration":0.2317708333333286},{"name":"F2","midi":41,"time":49.75260416666663,"velocity":0.8031496062992126,"duration":0.2317708333333357},{"name":"A2","midi":45,"time":49.98697916666663,"velocity":0.8031496062992126,"duration":0.2317708333333357},{"name":"D3","midi":50,"time":50.22135416666663,"velocity":0.8031496062992126,"duration":0.2317708333333357},{"name":"F5","midi":77,"time":50.22135416666663,"velocity":0.8031496062992126,"duration":0.4661458333333357},{"name":"C3","midi":48,"time":50.45572916666663,"velocity":0.8031496062992126,"duration":0.2317708333333357},{"name":"B2","midi":47,"time":50.69010416666663,"velocity":0.8031496062992126,"duration":0.2317708333333357},{"name":"F5","midi":77,"time":50.69010416666663,"velocity":0.8031496062992126,"duration":2.1067708333333357},{"name":"G2","midi":43,"time":50.92447916666663,"velocity":0.8031496062992126,"duration":0.2317708333333357},{"name":"B2","midi":47,"time":51.15885416666663,"velocity":0.8031496062992126,"duration":0.2317708333333357},{"name":"D3","midi":50,"time":51.39322916666663,"velocity":0.8031496062992126,"duration":0.2317708333333357},{"name":"D5","midi":74,"time":51.39322916666663,"velocity":0.8031496062992126,"duration":0.2317708333333357},{"name":"G3","midi":55,"time":51.62760416666663,"velocity":0.8031496062992126,"duration":0.2317708333333357},{"name":"B4","midi":71,"time":51.62760416666663,"velocity":0.8031496062992126,"duration":0.4661458333333357},{"name":"F3","midi":53,"time":51.86197916666663,"velocity":0.8031496062992126,"duration":0.2317708333333357},{"name":"D#3","midi":51,"time":52.09635416666663,"velocity":0.8031496062992126,"duration":0.2317708333333357},{"name":"G4","midi":67,"time":52.09635416666663,"velocity":0.8031496062992126,"duration":0.7005208333333357},{"name":"C3","midi":48,"time":52.33072916666663,"velocity":0.8031496062992126,"duration":0.2317708333333357},{"name":"D#3","midi":51,"time":52.56510416666663,"velocity":0.8031496062992126,"duration":0.2317708333333357},{"name":"G3","midi":55,"time":52.79947916666663,"velocity":0.8031496062992126,"duration":0.2317708333333357},{"name":"B4","midi":71,"time":52.79947916666663,"velocity":0.8031496062992126,"duration":0.2317708333333357},{"name":"D5","midi":74,"time":52.79947916666663,"velocity":0.8031496062992126,"duration":0.2317708333333357},{"name":"C4","midi":60,"time":53.03385416666663,"velocity":0.8031496062992126,"duration":0.2317708333333357},{"name":"C5","midi":72,"time":53.03385416666663,"velocity":0.8031496062992126,"duration":0.4661458333333357},{"name":"D#5","midi":75,"time":53.03385416666663,"velocity":0.8031496062992126,"duration":0.4661458333333357},{"name":"A#3","midi":58,"time":53.26822916666663,"velocity":0.8031496062992126,"duration":0.2317708333333357},{"name":"A3","midi":57,"time":53.50260416666663,"velocity":0.8031496062992126,"duration":0.2317708333333357},{"name":"C5","midi":72,"time":53.50260416666663,"velocity":0.8031496062992126,"duration":2.1067708333333357},{"name":"D#5","midi":75,"time":53.50260416666663,"velocity":0.8031496062992126,"duration":2.1067708333333357},{"name":"F3","midi":53,"time":53.73697916666663,"velocity":0.8031496062992126,"duration":0.2317708333333357},{"name":"A3","midi":57,"time":53.97135416666663,"velocity":0.8031496062992126,"duration":0.2317708333333357},{"name":"C4","midi":60,"time":54.20572916666663,"velocity":0.8031496062992126,"duration":0.2317708333333357},{"name":"F4","midi":65,"time":54.44010416666663,"velocity":0.8031496062992126,"duration":0.2317708333333357},{"name":"D#4","midi":63,"time":54.67447916666663,"velocity":0.8031496062992126,"duration":0.2317708333333357},{"name":"D4","midi":62,"time":54.90885416666663,"velocity":0.8031496062992126,"duration":0.2317708333333357},{"name":"A#3","midi":58,"time":55.14322916666663,"velocity":0.8031496062992126,"duration":0.2317708333333357},{"name":"D4","midi":62,"time":55.37760416666663,"velocity":0.8031496062992126,"duration":0.2317708333333357},{"name":"F4","midi":65,"time":55.61197916666663,"velocity":0.8031496062992126,"duration":0.2317708333333357},{"name":"A4","midi":69,"time":55.61197916666663,"velocity":0.8031496062992126,"duration":0.2408854166666643},{"name":"C5","midi":72,"time":55.61197916666663,"velocity":0.8031496062992126,"duration":0.2317708333333357},{"name":"A#4","midi":70,"time":55.84635416666663,"velocity":0.8031496062992126,"duration":0.2317708333333286},{"name":"D5","midi":74,"time":55.84635416666663,"velocity":0.8031496062992126,"duration":0.4661458333333286},{"name":"A4","midi":69,"time":56.08072916666662,"velocity":0.8031496062992126,"duration":0.2317708333333357},{"name":"G4","midi":67,"time":56.31510416666662,"velocity":0.8031496062992126,"duration":1.4036458333333357},{"name":"A#4","midi":70,"time":56.31510416666662,"velocity":0.8031496062992126,"duration":0.7005208333333357},{"name":"D5","midi":74,"time":56.31510416666662,"velocity":0.8031496062992126,"duration":0.2317708333333357},{"name":"A#5","midi":82,"time":56.54947916666662,"velocity":0.8031496062992126,"duration":0.2317708333333357},{"name":"G5","midi":79,"time":56.78385416666662,"velocity":0.8031496062992126,"duration":0.2317708333333357},{"name":"A#4","midi":70,"time":57.01822916666662,"velocity":0.8031496062992126,"duration":0.2317708333333357},{"name":"D#5","midi":75,"time":57.01822916666662,"velocity":0.8031496062992126,"duration":0.2317708333333357},{"name":"D#5","midi":75,"time":57.25260416666662,"velocity":0.8031496062992126,"duration":1.1692708333333357},{"name":"C6","midi":84,"time":57.25260416666662,"velocity":0.8031496062992126,"duration":0.7005208333333357},{"name":"F4","midi":65,"time":57.72135416666662,"velocity":0.8031496062992126,"duration":1.4036458333333357},{"name":"A5","midi":81,"time":57.95572916666662,"velocity":0.8031496062992126,"duration":0.2317708333333357},{"name":"F5","midi":77,"time":58.19010416666662,"velocity":0.8031496062992126,"duration":0.2317708333333357},{"name":"A4","midi":69,"time":58.42447916666662,"velocity":0.8031496062992126,"duration":0.2317708333333357},{"name":"D5","midi":74,"time":58.42447916666662,"velocity":0.8031496062992126,"duration":0.2317708333333357},{"name":"D5","midi":74,"time":58.65885416666662,"velocity":0.8031496062992126,"duration":1.1692708333333357},{"name":"A#5","midi":82,"time":58.65885416666662,"velocity":0.8031496062992126,"duration":0.7005208333333357},{"name":"D#4","midi":63,"time":59.12760416666662,"velocity":0.8031496062992126,"duration":1.4036458333333357},{"name":"G5","midi":79,"time":59.36197916666662,"velocity":0.8031496062992126,"duration":0.2317708333333357},{"name":"D#5","midi":75,"time":59.59635416666662,"velocity":0.8031496062992126,"duration":0.2317708333333357},{"name":"G4","midi":67,"time":59.83072916666662,"velocity":0.8031496062992126,"duration":0.2317708333333357},{"name":"C5","midi":72,"time":59.83072916666662,"velocity":0.8031496062992126,"duration":0.2317708333333357},{"name":"C5","midi":72,"time":60.06510416666662,"velocity":0.8031496062992126,"duration":0.7005208333333357},{"name":"A5","midi":81,"time":60.06510416666662,"velocity":0.8031496062992126,"duration":0.4661458333333357},{"name":"D4","midi":62,"time":60.53385416666662,"velocity":0.8031496062992126,"duration":1.3671875},{"name":"F#5","midi":78,"time":60.53385416666662,"velocity":0.8031496062992126,"duration":0.9348958333333357},{"name":"F#4","midi":66,"time":60.76822916666662,"velocity":0.8031496062992126,"duration":0.2317708333333357},{"name":"A4","midi":69,"time":61.00260416666662,"velocity":0.8031496062992126,"duration":0.2317708333333357},{"name":"C5","midi":72,"time":61.23697916666662,"velocity":0.8031496062992126,"duration":0.2317708333333357},{"name":"A#4","midi":70,"time":61.47135416666662,"velocity":0.8031496062992126,"duration":0.7005208333333357},{"name":"G5","midi":79,"time":61.47135416666662,"velocity":0.8031496062992126,"duration":0.4661458333333357},{"name":"C4","midi":60,"time":61.94010416666662,"velocity":0.8031496062992126,"duration":1.4036458333333357},{"name":"D#5","midi":75,"time":61.94010416666662,"velocity":0.8031496062992126,"duration":0.7005208333333357},{"name":"D#4","midi":63,"time":62.17447916666662,"velocity":0.8031496062992126,"duration":0.2317708333333357},{"name":"G4","midi":67,"time":62.40885416666662,"velocity":0.8031496062992126,"duration":0.2317708333333357},{"name":"A#4","midi":70,"time":62.64322916666662,"velocity":0.8031496062992126,"duration":0.2317708333333357},{"name":"D5","midi":74,"time":62.64322916666662,"velocity":0.8031496062992126,"duration":0.2317708333333357},{"name":"G#4","midi":68,"time":62.87760416666662,"velocity":0.8031496062992126,"duration":0.7005208333333357},{"name":"C5","midi":72,"time":62.87760416666662,"velocity":0.8031496062992126,"duration":0.4661458333333357},{"name":"A#3","midi":58,"time":63.34635416666662,"velocity":0.8031496062992126,"duration":0.7005208333333357},{"name":"D5","midi":74,"time":63.34635416666662,"velocity":0.8031496062992126,"duration":0.7005208333333357},{"name":"F#4","midi":66,"time":63.58072916666662,"velocity":0.8031496062992126,"duration":0.2317708333333357},{"name":"G4","midi":67,"time":63.81510416666662,"velocity":0.8031496062992126,"duration":1.8723958333333357},{"name":"D4","midi":62,"time":64.04947916666663,"velocity":0.8031496062992126,"duration":0.2317708333333286},{"name":"A#4","midi":70,"time":64.04947916666663,"velocity":0.8031496062992126,"duration":0.2317708333333286},{"name":"C4","midi":60,"time":64.28385416666663,"velocity":0.8031496062992126,"duration":0.4661458333333286},{"name":"A4","midi":69,"time":64.28385416666663,"velocity":0.8031496062992126,"duration":0.2317708333333286},{"name":"C5","midi":72,"time":64.51822916666663,"velocity":0.8031496062992126,"duration":0.2317708333333286},{"name":"D4","midi":62,"time":64.75260416666663,"velocity":0.8031496062992126,"duration":0.7005208333333286},{"name":"A#4","midi":70,"time":64.75260416666663,"velocity":0.8031496062992126,"duration":0.2317708333333286},{"name":"D5","midi":74,"time":64.98697916666663,"velocity":0.8031496062992126,"duration":0.2317708333333286},{"name":"C5","midi":72,"time":65.22135416666663,"velocity":0.8031496062992126,"duration":0.2317708333333286},{"name":"C4","midi":60,"time":65.45572916666663,"velocity":0.8031496062992126,"duration":0.2317708333333286},{"name":"D#5","midi":75,"time":65.45572916666663,"velocity":0.8031496062992126,"duration":0.2317708333333286},{"name":"D4","midi":62,"time":65.69010416666663,"velocity":0.8031496062992126,"duration":0.4661458333333286},{"name":"F#4","midi":66,"time":65.69010416666663,"velocity":0.8031496062992126,"duration":0.4661458333333286},{"name":"D5","midi":74,"time":65.69010416666663,"velocity":0.8031496062992126,"duration":0.2317708333333286},{"name":"A5","midi":81,"time":65.92447916666663,"velocity":0.8031496062992126,"duration":0.2317708333333286},{"name":"G3","midi":55,"time":66.15885416666663,"velocity":0.8031496062992126,"duration":0.2317708333333286},{"name":"G4","midi":67,"time":66.15885416666663,"velocity":0.8031496062992126,"duration":1.4036458333333286},{"name":"A#4","midi":70,"time":66.15885416666663,"velocity":0.8031496062992126,"duration":1.6380208333333286},{"name":"D3","midi":50,"time":66.39322916666663,"velocity":0.8031496062992126,"duration":0.2317708333333286},{"name":"A#2","midi":46,"time":66.62760416666663,"velocity":0.8031496062992126,"duration":0.2317708333333286},{"name":"G2","midi":43,"time":66.86197916666663,"velocity":0.8031496062992126,"duration":0.2317708333333286},{"name":"F3","midi":53,"time":67.09635416666663,"velocity":0.8031496062992126,"duration":0.4661458333333286},{"name":"D#3","midi":51,"time":67.56510416666663,"velocity":0.8031496062992126,"duration":1.5625},{"name":"C4","midi":60,"time":67.56510416666663,"velocity":0.8031496062992126,"duration":0.4661458333333286},{"name":"G4","midi":67,"time":67.79947916666663,"velocity":0.8031496062992126,"duration":0.2317708333333286},{"name":"A#3","midi":58,"time":68.03385416666663,"velocity":0.8031496062992126,"duration":0.4661458333333286},{"name":"D#4","midi":63,"time":68.03385416666663,"velocity":0.8031496062992126,"duration":0.2317708333333286},{"name":"C4","midi":60,"time":68.26822916666663,"velocity":0.8031496062992126,"duration":0.2317708333333286},{"name":"C4","midi":60,"time":68.50260416666663,"velocity":0.8031496062992126,"duration":0.4661458333333286},{"name":"A#4","midi":70,"time":68.50260416666663,"velocity":0.8031496062992126,"duration":0.4661458333333286},{"name":"F4","midi":65,"time":68.97135416666663,"velocity":0.8031496062992126,"duration":1.4036458333333286},{"name":"A4","midi":69,"time":68.97135416666663,"velocity":0.8031496062992126,"duration":1.6380208333333286},{"name":"C3","midi":48,"time":69.20572916666663,"velocity":0.8031496062992126,"duration":0.2317708333333286},{"name":"A2","midi":45,"time":69.44010416666663,"velocity":0.8031496062992126,"duration":0.2317708333333286},{"name":"F2","midi":41,"time":69.67447916666663,"velocity":0.8031496062992126,"duration":0.2317708333333286},{"name":"F3","midi":53,"time":69.90885416666663,"velocity":0.8031496062992126,"duration":0.4661458333333286},{"name":"D3","midi":50,"time":70.37760416666663,"velocity":0.8031496062992126,"duration":1.5625},{"name":"A#3","midi":58,"time":70.37760416666663,"velocity":0.8031496062992126,"duration":0.4661458333333286},{"name":"F4","midi":65,"time":70.61197916666663,"velocity":0.8031496062992126,"duration":0.2317708333333286},{"name":"A3","midi":57,"time":70.84635416666663,"velocity":0.8031496062992126,"duration":0.4661458333333286},{"name":"D4","midi":62,"time":70.84635416666663,"velocity":0.8031496062992126,"duration":0.2317708333333286},{"name":"A#3","midi":58,"time":71.08072916666663,"velocity":0.8031496062992126,"duration":0.2317708333333286},{"name":"A#3","midi":58,"time":71.31510416666663,"velocity":0.8031496062992126,"duration":0.4661458333333286},{"name":"G#4","midi":68,"time":71.31510416666663,"velocity":0.8031496062992126,"duration":0.4661458333333286},{"name":"D#4","midi":63,"time":71.78385416666663,"velocity":0.8031496062992126,"duration":2.8098958333333286},{"name":"G4","midi":67,"time":71.78385416666663,"velocity":0.8031496062992126,"duration":1.6380208333333286},{"name":"A#2","midi":46,"time":72.01822916666663,"velocity":0.8031496062992126,"duration":0.2317708333333286},{"name":"G2","midi":43,"time":72.25260416666663,"velocity":0.8031496062992126,"duration":0.2317708333333286},{"name":"D#2","midi":39,"time":72.48697916666663,"velocity":0.8031496062992126,"duration":0.2317708333333286},{"name":"G2","midi":43,"time":72.72135416666663,"velocity":0.8031496062992126,"duration":0.2317708333333286},{"name":"A#2","midi":46,"time":72.95572916666663,"velocity":0.8031496062992126,"duration":0.2317708333333286},{"name":"C3","midi":48,"time":73.19010416666663,"velocity":0.8031496062992126,"duration":1.4036458333333286},{"name":"A#4","midi":70,"time":73.42447916666663,"velocity":0.8031496062992126,"duration":0.2317708333333286},{"name":"A4","midi":69,"time":73.65885416666663,"velocity":0.8031496062992126,"duration":0.2317708333333286},{"name":"C5","midi":72,"time":73.89322916666663,"velocity":0.8031496062992126,"duration":0.2317708333333286},{"name":"F#4","midi":66,"time":74.12760416666663,"velocity":0.8031496062992126,"duration":0.2317708333333286},{"name":"A4","midi":69,"time":74.36197916666663,"velocity":0.8031496062992126,"duration":0.4661458333333286},{"name":"A#2","midi":46,"time":74.59635416666663,"velocity":0.8031496062992126,"duration":1.4036458333333286},{"name":"D4","midi":62,"time":74.59635416666663,"velocity":0.8031496062992126,"duration":1.4036458333333286},{"name":"A4","midi":69,"time":74.83072916666663,"velocity":0.8031496062992126,"duration":0.2317708333333286},{"name":"G4","midi":67,"time":75.06510416666663,"velocity":0.8031496062992126,"duration":0.2317708333333286},{"name":"A#4","midi":70,"time":75.29947916666663,"velocity":0.8031496062992126,"duration":0.2317708333333286},{"name":"E4","midi":64,"time":75.53385416666663,"velocity":0.8031496062992126,"duration":0.2317708333333286},{"name":"G4","midi":67,"time":75.76822916666663,"velocity":0.8031496062992126,"duration":0.4661458333333286},{"name":"A2","midi":45,"time":76.00260416666663,"velocity":0.8031496062992126,"duration":0.7005208333333286},{"name":"C4","midi":60,"time":76.00260416666663,"velocity":0.8031496062992126,"duration":0.9270833333333286},{"name":"G4","midi":67,"time":76.23697916666663,"velocity":0.8031496062992126,"duration":0.2317708333333286},{"name":"F#4","midi":66,"time":76.47135416666663,"velocity":0.8031496062992126,"duration":0.2317708333333286},{"name":"F#2","midi":42,"time":76.70572916666663,"velocity":0.8031496062992126,"duration":0.2317708333333286},{"name":"A4","midi":69,"time":76.70572916666663,"velocity":0.8031496062992126,"duration":0.2317708333333286},{"name":"G2","midi":43,"time":76.94010416666663,"velocity":0.8031496062992126,"duration":0.4661458333333286},{"name":"C5","midi":72,"time":76.94010416666663,"velocity":0.8031496062992126,"duration":0.7005208333333286},{"name":"F#2","midi":42,"time":77.40885416666663,"velocity":0.8031496062992126,"duration":0.7005208333333286},{"name":"A#4","midi":70,"time":77.64322916666663,"velocity":0.8031496062992126,"duration":0.2317708333333286},{"name":"A4","midi":69,"time":77.87760416666663,"velocity":0.8031496062992126,"duration":0.2317708333333286},{"name":"A2","midi":45,"time":78.11197916666663,"velocity":0.8031496062992126,"duration":0.2317708333333286},{"name":"C5","midi":72,"time":78.11197916666663,"velocity":0.8031496062992126,"duration":0.2317708333333286},{"name":"C3","midi":48,"time":78.34635416666663,"velocity":0.8031496062992126,"duration":0.4661458333333286},{"name":"D#5","midi":75,"time":78.34635416666663,"velocity":0.8031496062992126,"duration":0.7005208333333286},{"name":"D2","midi":38,"time":78.81510416666663,"velocity":0.8031496062992126,"duration":0.4661458333333286},{"name":"D5","midi":74,"time":79.04947916666663,"velocity":0.8031496062992126,"duration":0.2317708333333286},{"name":"D3","midi":50,"time":79.28385416666663,"velocity":0.8031496062992126,"duration":2.3411458333333286},{"name":"C5","midi":72,"time":79.28385416666663,"velocity":0.8031496062992126,"duration":0.2317708333333286},{"name":"A#4","midi":70,"time":79.51822916666663,"velocity":0.8031496062992126,"duration":0.2317708333333286},{"name":"E3","midi":52,"time":79.75260416666663,"velocity":0.8031496062992126,"duration":0.4661458333333286},{"name":"A4","midi":69,"time":79.75260416666663,"velocity":0.8031496062992126,"duration":0.2317708333333286},{"name":"G4","midi":67,"time":79.98697916666663,"velocity":0.8031496062992126,"duration":0.2317708333333286},{"name":"F#3","midi":54,"time":80.22135416666663,"velocity":0.8031496062992126,"duration":0.9348958333333286},{"name":"C5","midi":72,"time":80.22135416666663,"velocity":0.8031496062992126,"duration":0.2317708333333286},{"name":"A#4","midi":70,"time":80.45572916666663,"velocity":0.8031496062992126,"duration":0.2317708333333286},{"name":"A4","midi":69,"time":80.69010416666663,"velocity":0.8031496062992126,"duration":0.2317708333333286},{"name":"G4","midi":67,"time":80.92447916666663,"velocity":0.8031496062992126,"duration":0.2317708333333286},{"name":"G3","midi":55,"time":81.15885416666663,"velocity":0.8031496062992126,"duration":0.4661458333333286},{"name":"F#4","midi":66,"time":81.15885416666663,"velocity":0.8031496062992126,"duration":0.2317708333333286},{"name":"E4","midi":64,"time":81.39322916666663,"velocity":0.8031496062992126,"duration":0.2317708333333286},{"name":"D3","midi":50,"time":81.62760416666663,"velocity":0.8031496062992126,"duration":1.4036458333333286},{"name":"A3","midi":57,"time":81.62760416666663,"velocity":0.8031496062992126,"duration":0.9348958333333286},{"name":"D4","midi":62,"time":81.62760416666663,"velocity":0.8031496062992126,"duration":0.2317708333333286},{"name":"F#4","midi":66,"time":81.86197916666663,"velocity":0.8031496062992126,"duration":0.2317708333333286},{"name":"A4","midi":69,"time":82.09635416666663,"velocity":0.8031496062992126,"duration":0.2317708333333286},{"name":"C5","midi":72,"time":82.33072916666663,"velocity":0.8031496062992126,"duration":0.2317708333333286},{"name":"A#3","midi":58,"time":82.56510416666663,"velocity":0.8031496062992126,"duration":0.4661458333333286},{"name":"G4","midi":67,"time":82.56510416666663,"velocity":0.8031496062992126,"duration":0.2317708333333286},{"name":"A#4","midi":70,"time":82.79947916666663,"velocity":0.8031496062992126,"duration":0.4661458333333286},{"name":"D3","midi":50,"time":83.03385416666663,"velocity":0.8031496062992126,"duration":1.4036458333333428},{"name":"C4","midi":60,"time":83.03385416666663,"velocity":0.8031496062992126,"duration":0.9348958333333286},{"name":"A4","midi":69,"time":83.26822916666663,"velocity":0.8031496062992126,"duration":0.2317708333333286},{"name":"C5","midi":72,"time":83.50260416666663,"velocity":0.8031496062992126,"duration":0.2317708333333286},{"name":"D#5","midi":75,"time":83.73697916666663,"velocity":0.8031496062992126,"duration":0.4557291666666714},{"name":"A#3","midi":58,"time":83.97135416666663,"velocity":0.8031496062992126,"duration":0.4661458333333428},{"name":"G4","midi":67,"time":83.97135416666663,"velocity":0.8031496062992126,"duration":0.2317708333333428},{"name":"D5","midi":74,"time":84.20572916666664,"velocity":0.8031496062992126,"duration":0.4661458333333286},{"name":"D3","midi":50,"time":84.44010416666664,"velocity":0.8031496062992126,"duration":1.4036458333333428},{"name":"A3","midi":57,"time":84.44010416666664,"velocity":0.8031496062992126,"duration":0.9348958333333286},{"name":"F#4","midi":66,"time":84.67447916666664,"velocity":0.8031496062992126,"duration":0.2317708333333286},{"name":"A4","midi":69,"time":84.90885416666664,"velocity":0.8031496062992126,"duration":0.2317708333333286},{"name":"C5","midi":72,"time":85.14322916666664,"velocity":0.8031496062992126,"duration":0.4557291666666714},{"name":"G3","midi":55,"time":85.37760416666664,"velocity":0.8031496062992126,"duration":0.4661458333333428},{"name":"E4","midi":64,"time":85.37760416666664,"velocity":0.8031496062992126,"duration":0.2317708333333428},{"name":"A#4","midi":70,"time":85.61197916666666,"velocity":0.8031496062992126,"duration":0.4661458333333286},{"name":"D3","midi":50,"time":85.84635416666666,"velocity":0.8031496062992126,"duration":1.4036458333333428},{"name":"F#3","midi":54,"time":85.84635416666666,"velocity":0.8031496062992126,"duration":0.9348958333333286},{"name":"D4","midi":62,"time":86.08072916666666,"velocity":0.8031496062992126,"duration":0.2317708333333286},{"name":"F#4","midi":66,"time":86.31510416666666,"velocity":0.8031496062992126,"duration":0.2317708333333286},{"name":"A4","midi":69,"time":86.54947916666666,"velocity":0.8031496062992126,"duration":0.46484375},{"name":"E3","midi":52,"time":86.78385416666666,"velocity":0.8031496062992126,"duration":0.4635416666666714},{"name":"C#4","midi":61,"time":86.78385416666666,"velocity":0.8031496062992126,"duration":0.2317708333333286},{"name":"G4","midi":67,"time":87.01822916666666,"velocity":0.8031496062992126,"duration":0.2317708333333428},{"name":"F#4","midi":66,"time":87.25260416666667,"velocity":0.8031496062992126,"duration":1.1692708333333286},{"name":"D3","midi":50,"time":87.48697916666667,"velocity":0.8031496062992126,"duration":0.734375},{"name":"F#3","midi":54,"time":87.72135416666667,"velocity":0.8031496062992126,"duration":0.2317708333333286},{"name":"A3","midi":57,"time":87.95572916666667,"velocity":0.8031496062992126,"duration":0.2317708333333286},{"name":"D4","midi":62,"time":88.2109375,"velocity":0.8031496062992126,"duration":0.68359375},{"name":"F#4","midi":66,"time":88.4453125,"velocity":0.8031496062992126,"duration":0.2317708333333286},{"name":"A4","midi":69,"time":88.6796875,"velocity":0.8031496062992126,"duration":0.2317708333333286},{"name":"C5","midi":72,"time":88.9140625,"velocity":0.8031496062992126,"duration":0.2317708333333286},{"name":"D#5","midi":75,"time":89.1484375,"velocity":0.8031496062992126,"duration":0.6835937499999858},{"name":"C4","midi":60,"time":89.40364583333333,"velocity":0.8031496062992126,"duration":0.2317708333333286},{"name":"A#3","midi":58,"time":89.65885416666666,"velocity":0.8031496062992126,"duration":0.2317708333333286},{"name":"A3","midi":57,"time":89.90494791666666,"velocity":0.8031496062992126,"duration":0.2317708333333286},{"name":"G3","midi":55,"time":90.16927083333331,"velocity":0.8031496062992126,"duration":0.9348958333333286},{"name":"D5","midi":74,"time":90.40364583333331,"velocity":0.8031496062992126,"duration":0.2317708333333286},{"name":"A#4","midi":70,"time":90.63802083333331,"velocity":0.8031496062992126,"duration":0.2317708333333286},{"name":"G4","midi":67,"time":90.87239583333331,"velocity":0.8031496062992126,"duration":0.2317708333333286},{"name":"G5","midi":79,"time":91.10677083333331,"velocity":0.8031496062992126,"duration":0.4661458333333286},{"name":"D#3","midi":51,"time":91.10677083333331,"velocity":0.8031496062992126,"duration":0.4661458333333286},{"name":"F5","midi":77,"time":91.57552083333331,"velocity":0.8031496062992126,"duration":1.4036458333333286},{"name":"D3","midi":50,"time":91.57552083333331,"velocity":0.8031496062992126,"duration":0.9348958333333286},{"name":"A4","midi":69,"time":91.80989583333331,"velocity":0.8031496062992126,"duration":0.2317708333333286},{"name":"F4","midi":65,"time":92.04427083333331,"velocity":0.8031496062992126,"duration":0.2317708333333286},{"name":"D4","midi":62,"time":92.27864583333331,"velocity":0.8031496062992126,"duration":0.2317708333333286},{"name":"D5","midi":74,"time":92.51302083333331,"velocity":0.8031496062992126,"duration":1.1692708333333286},{"name":"A#3","midi":58,"time":92.51302083333331,"velocity":0.8031496062992126,"duration":0.4661458333333286},{"name":"D#5","midi":75,"time":92.98177083333331,"velocity":0.8031496062992126,"duration":1.4036458333333286},{"name":"G3","midi":55,"time":92.98177083333331,"velocity":0.8031496062992126,"duration":0.9348958333333286},{"name":"A#4","midi":70,"time":93.68489583333331,"velocity":0.8031496062992126,"duration":0.2317708333333286},{"name":"C5","midi":72,"time":93.91927083333331,"velocity":0.8031496062992126,"duration":1.1692708333333286},{"name":"A3","midi":57,"time":93.91927083333331,"velocity":0.8031496062992126,"duration":0.4661458333333286},{"name":"D5","midi":74,"time":94.38802083333331,"velocity":0.8031496062992126,"duration":1.4036458333333286},{"name":"A#3","midi":58,"time":94.38802083333331,"velocity":0.8031496062992126,"duration":0.2317708333333286},{"name":"D4","midi":62,"time":94.62239583333331,"velocity":0.8031496062992126,"duration":0.2317708333333286},{"name":"A#3","midi":58,"time":94.85677083333331,"velocity":0.8031496062992126,"duration":0.2317708333333286},{"name":"A4","midi":69,"time":95.09114583333331,"velocity":0.8031496062992126,"duration":0.2317708333333286},{"name":"G3","midi":55,"time":95.09114583333331,"velocity":0.8031496062992126,"duration":0.2317708333333286},{"name":"A#4","midi":70,"time":95.32552083333331,"velocity":0.8031496062992126,"duration":0.4661458333333286},{"name":"G4","midi":67,"time":95.32552083333331,"velocity":0.8031496062992126,"duration":1.1692708333333286},{"name":"C5","midi":72,"time":95.79427083333331,"velocity":0.8031496062992126,"duration":0.9348958333333286},{"name":"A4","midi":69,"time":95.79427083333331,"velocity":0.8031496062992126,"duration":1.4036458333333286},{"name":"E4","midi":64,"time":96.49739583333331,"velocity":0.8031496062992126,"duration":0.2317708333333286},{"name":"D5","midi":74,"time":96.73177083333331,"velocity":0.8031496062992126,"duration":0.4661458333333286},{"name":"F#4","midi":66,"time":96.73177083333331,"velocity":0.8031496062992126,"duration":0.4661458333333286},{"name":"A#4","midi":70,"time":97.20052083333331,"velocity":0.8031496062992126,"duration":0.7239583333333286},{"name":"G4","midi":67,"time":97.20052083333331,"velocity":0.8031496062992126,"duration":0.2395833333333286},{"name":"F#4","midi":66,"time":97.44270833333331,"velocity":0.8031496062992126,"duration":0.2395833333333286},{"name":"G4","midi":67,"time":97.68489583333331,"velocity":0.8031496062992126,"duration":2.001302083333343},{"name":"A#4","midi":70,"time":97.92708333333331,"velocity":0.8031496062992126,"duration":0.2395833333333286},{"name":"D#5","midi":75,"time":98.16927083333331,"velocity":0.8031496062992126,"duration":0.4817708333333286},{"name":"C4","midi":60,"time":98.16927083333331,"velocity":0.8031496062992126,"duration":0.4817708333333286},{"name":"A#4","midi":70,"time":98.65364583333331,"velocity":0.8031496062992126,"duration":0.7734375},{"name":"D4","midi":62,"time":98.65364583333331,"velocity":0.8031496062992126,"duration":1.0325520833333428},{"name":"C5","midi":72,"time":99.42968749999999,"velocity":0.8031496062992126,"duration":0.2565104166666714},{"name":"A4","midi":69,"time":99.68880208333333,"velocity":0.8031496062992126,"duration":0.5651041666666714},{"name":"F#4","midi":66,"time":99.68880208333333,"velocity":0.8031496062992126,"duration":0.5651041666666714},{"name":"D3","midi":50,"time":99.68880208333333,"velocity":0.8031496062992126,"duration":0.5651041666666714},{"name":"G4","midi":67,"time":100.31380208333333,"velocity":0.8031496062992126,"duration":2.734375},{"name":"G2","midi":43,"time":100.31380208333333,"velocity":0.8031496062992126,"duration":2.734375}],"controlChanges":{"7":[{"number":7,"time":0,"value":0.7874015748031497}]},"id":1,"name":"Piano 1","instrumentNumber":6,"instrument":"harpsichord","instrumentFamily":"piano","channelNumber":0,"isPercussion":false}]}