{"header":{"PPQ":384,"timeSignature":[4,4],"bpm":120,"name":"--------"},"startTime":0,"duration":1047.9388020833405,"tracks":[{"startTime":0,"duration":0,"length":0,"notes":[],"controlChanges":{},"id":0,"name":"--------"},{"startTime":0.041666666666666664,"duration":1047.9388020833405,"length":8631,"notes":[{"name":"D3","midi":50,"time":0.041666666666666664,"velocity":0.84251968503937,"duration":11.576822916666666},{"name":"F3","midi":53,"time":0.2994791666666667,"velocity":0.84251968503937,"duration":1.2864583333333335},{"name":"A3","midi":57,"time":0.5572916666666667,"velocity":0.84251968503937,"duration":1.0286458333333335},{"name":"D4","midi":62,"time":0.8151041666666667,"velocity":0.84251968503937,"duration":0.7708333333333335},{"name":"F4","midi":65,"time":1.0729166666666667,"velocity":0.84251968503937,"duration":0.5091145833333335},{"name":"A4","midi":69,"time":1.3294270833333335,"velocity":0.84251968503937,"duration":0.2552083333333335},{"name":"C#4","midi":61,"time":1.5872395833333335,"velocity":0.84251968503937,"duration":0.7708333333333335},{"name":"G3","midi":55,"time":1.5872395833333335,"velocity":0.84251968503937,"duration":0.7708333333333335},{"name":"E3","midi":52,"time":1.5872395833333335,"velocity":0.84251968503937,"duration":0.7708333333333335},{"name":"G4","midi":67,"time":1.8450520833333335,"velocity":0.84251968503937,"duration":0.5091145833333335},{"name":"A#4","midi":70,"time":2.1028645833333335,"velocity":0.84251968503937,"duration":0.2552083333333335},{"name":"D4","midi":62,"time":2.3593750000000004,"velocity":0.84251968503937,"duration":0.5130208333333335},{"name":"A4","midi":69,"time":2.3593750000000004,"velocity":0.84251968503937,"duration":0.5130208333333335},{"name":"F3","midi":53,"time":2.3593750000000004,"velocity":0.84251968503937,"duration":0.7708333333333335},{"name":"A3","midi":57,"time":2.6171875000000004,"velocity":0.84251968503937,"duration":1.2851562500000004},{"name":"D4","midi":62,"time":2.8750000000000004,"velocity":0.84251968503937,"duration":1.028645833333334},{"name":"F4","midi":65,"time":3.1328125000000004,"velocity":0.84251968503937,"duration":0.2552083333333335},{"name":"A4","midi":69,"time":3.3893229166666674,"velocity":0.84251968503937,"duration":0.2552083333333335},{"name":"D5","midi":74,"time":3.6471354166666674,"velocity":0.84251968503937,"duration":0.5091145833333335},{"name":"E4","midi":64,"time":3.904947916666668,"velocity":0.84251968503937,"duration":0.7708333333333321},{"name":"G3","midi":55,"time":3.904947916666668,"velocity":0.84251968503937,"duration":0.7708333333333321},{"name":"A#3","midi":58,"time":3.904947916666668,"velocity":0.84251968503937,"duration":0.7708333333333321},{"name":"E5","midi":76,"time":4.162760416666668,"velocity":0.84251968503937,"duration":0.25520833333333304},{"name":"C#5","midi":73,"time":4.419270833333334,"velocity":0.84251968503937,"duration":0.25520833333333304},{"name":"D5","midi":74,"time":4.677083333333333,"velocity":0.84251968503937,"duration":0.25520833333333304},{"name":"F4","midi":65,"time":4.677083333333333,"velocity":0.84251968503937,"duration":0.770833333333333},{"name":"A3","midi":57,"time":4.677083333333333,"velocity":0.84251968503937,"duration":1.5429687499999991},{"name":"A4","midi":69,"time":4.934895833333333,"velocity":0.84251968503937,"duration":0.25520833333333304},{"name":"C5","midi":72,"time":5.192708333333333,"velocity":0.84251968503937,"duration":2.3138020833333313},{"name":"F#4","midi":66,"time":5.449218749999999,"velocity":0.84251968503937,"duration":2.050781249999999},{"name":"A4","midi":69,"time":5.707031249999999,"velocity":0.84251968503937,"duration":1.7942708333333321},{"name":"D4","midi":62,"time":5.964843749999999,"velocity":0.84251968503937,"duration":0.25520833333333304},{"name":"C4","midi":60,"time":6.222656249999999,"velocity":0.84251968503937,"duration":0.25520833333333304},{"name":"A#3","midi":58,"time":6.479166666666665,"velocity":0.84251968503937,"duration":0.25520833333333304},{"name":"A3","midi":57,"time":6.736979166666665,"velocity":0.84251968503937,"duration":0.25520833333333304},{"name":"A#3","midi":58,"time":6.994791666666665,"velocity":0.84251968503937,"duration":2.315104166666665},{"name":"D4","midi":62,"time":7.252604166666665,"velocity":0.84251968503937,"duration":0.5091145833333321},{"name":"F#4","midi":66,"time":7.510416666666664,"velocity":0.84251968503937,"duration":0.25520833333333304},{"name":"A4","midi":69,"time":7.76692708333333,"velocity":0.84251968503937,"duration":0.7708333333333339},{"name":"C5","midi":72,"time":8.02473958333333,"velocity":0.84251968503937,"duration":0.5091145833333339},{"name":"F#4","midi":66,"time":8.28255208333333,"velocity":0.84251968503937,"duration":0.2552083333333339},{"name":"G4","midi":67,"time":8.54036458333333,"velocity":0.84251968503937,"duration":0.7708333333333339},{"name":"A#4","midi":70,"time":8.796874999999996,"velocity":0.84251968503937,"duration":0.5091145833333339},{"name":"D4","midi":62,"time":9.054687499999996,"velocity":0.84251968503937,"duration":0.2552083333333339},{"name":"E4","midi":64,"time":9.312499999999998,"velocity":0.84251968503937,"duration":0.7708333333333321},{"name":"G3","midi":55,"time":9.312499999999998,"velocity":0.84251968503937,"duration":2.315104166666668},{"name":"G4","midi":67,"time":9.570312499999998,"velocity":0.84251968503937,"duration":0.5091145833333321},{"name":"D4","midi":62,"time":9.826822916666664,"velocity":0.84251968503937,"duration":0.25520833333333215},{"name":"C#4","midi":61,"time":10.084635416666664,"velocity":0.84251968503937,"duration":1.5416666666666679},{"name":"E3","midi":52,"time":10.084635416666664,"velocity":0.84251968503937,"duration":1.5429687500000018},{"name":"E4","midi":64,"time":10.342447916666664,"velocity":0.84251968503937,"duration":0.2552083333333339},{"name":"G4","midi":67,"time":10.600260416666664,"velocity":0.84251968503937,"duration":0.2552083333333339},{"name":"A#4","midi":70,"time":10.856770833333332,"velocity":0.84251968503937,"duration":0.2552083333333339},{"name":"A4","midi":69,"time":11.114583333333332,"velocity":0.84251968503937,"duration":0.2552083333333339},{"name":"G4","midi":67,"time":11.372395833333332,"velocity":0.84251968503937,"duration":0.2552083333333339},{"name":"D4","midi":62,"time":11.630208333333332,"velocity":0.84251968503937,"duration":0.5091145833333339},{"name":"F4","midi":65,"time":11.630208333333332,"velocity":0.84251968503937,"duration":0.2552083333333339},{"name":"D3","midi":50,"time":11.630208333333332,"velocity":0.84251968503937,"duration":0.8997395833333339},{"name":"A3","midi":57,"time":11.630208333333332,"velocity":0.84251968503937,"duration":0.8997395833333339},{"name":"E4","midi":64,"time":11.88671875,"velocity":0.84251968503937,"duration":0.25520833333333215},{"name":"D4","midi":62,"time":12.144531249999998,"velocity":0.84251968503937,"duration":0.2552083333333339},{"name":"F5","midi":77,"time":12.402343749999998,"velocity":0.84251968503937,"duration":0.12630208333333393},{"name":"E5","midi":76,"time":12.53125,"velocity":0.84251968503937,"duration":0.12630208333333393},{"name":"E3","midi":52,"time":12.53125,"velocity":0.84251968503937,"duration":0.12630208333333393},{"name":"F5","midi":77,"time":12.66015625,"velocity":0.84251968503937,"duration":0.5091145833333339},{"name":"F3","midi":53,"time":12.66015625,"velocity":0.84251968503937,"duration":0.12630208333333393},{"name":"G3","midi":55,"time":12.7890625,"velocity":0.84251968503937,"duration":0.12630208333333393},{"name":"A3","midi":57,"time":12.916666666666668,"velocity":0.84251968503937,"duration":0.25520833333333215},{"name":"F5","midi":77,"time":13.174479166666666,"velocity":0.84251968503937,"duration":0.7708333333333339},{"name":"C3","midi":48,"time":13.174479166666666,"velocity":0.84251968503937,"duration":0.2552083333333339},{"name":"E3","midi":52,"time":13.432291666666666,"velocity":0.84251968503937,"duration":0.2552083333333339},{"name":"A3","midi":57,"time":13.690104166666666,"velocity":0.84251968503937,"duration":0.2552083333333339},{"name":"G5","midi":79,"time":13.947916666666666,"velocity":0.84251968503937,"duration":0.08333333333333393},{"name":"B2","midi":47,"time":13.947916666666666,"velocity":0.84251968503937,"duration":0.2552083333333357},{"name":"F5","midi":77,"time":14.032552083333334,"velocity":0.84251968503937,"duration":0.08333333333333393},{"name":"E5","midi":76,"time":14.118489583333334,"velocity":0.84251968503937,"duration":0.08333333333333393},{"name":"F5","midi":77,"time":14.204427083333336,"velocity":0.84251968503937,"duration":0.08333333333333393},{"name":"D3","midi":50,"time":14.204427083333336,"velocity":0.84251968503937,"duration":0.2552083333333339},{"name":"G5","midi":79,"time":14.290364583333336,"velocity":0.84251968503937,"duration":0.08333333333333393},{"name":"F5","midi":77,"time":14.376302083333336,"velocity":0.84251968503937,"duration":0.08333333333333393},{"name":"G5","midi":79,"time":14.462239583333336,"velocity":0.84251968503937,"duration":0.08333333333333393},{"name":"F3","midi":53,"time":14.462239583333336,"velocity":0.84251968503937,"duration":0.2552083333333339},{"name":"F5","midi":77,"time":14.548177083333336,"velocity":0.84251968503937,"duration":0.08333333333333393},{"name":"G5","midi":79,"time":14.634114583333336,"velocity":0.84251968503937,"duration":0.08333333333333393},{"name":"F5","midi":77,"time":14.720052083333336,"velocity":0.84251968503937,"duration":0.08333333333333393},{"name":"A3","midi":57,"time":14.720052083333336,"velocity":0.84251968503937,"duration":0.2552083333333339},{"name":"G5","midi":79,"time":14.805989583333336,"velocity":0.84251968503937,"duration":0.08333333333333393},{"name":"F5","midi":77,"time":14.891927083333336,"velocity":0.84251968503937,"duration":0.08333333333333393},{"name":"G5","midi":79,"time":14.977864583333336,"velocity":0.84251968503937,"duration":0.08333333333333393},{"name":"B3","midi":59,"time":14.977864583333336,"velocity":0.84251968503937,"duration":0.2552083333333357},{"name":"F5","midi":77,"time":15.062500000000004,"velocity":0.84251968503937,"duration":0.08333333333333393},{"name":"G5","midi":79,"time":15.148437500000004,"velocity":0.84251968503937,"duration":0.08333333333333393},{"name":"F5","midi":77,"time":15.234375000000005,"velocity":0.84251968503937,"duration":0.08333333333333393},{"name":"C4","midi":60,"time":15.234375000000005,"velocity":0.84251968503937,"duration":0.2552083333333339},{"name":"G5","midi":79,"time":15.320312500000005,"velocity":0.84251968503937,"duration":0.08333333333333393},{"name":"F5","midi":77,"time":15.406250000000005,"velocity":0.84251968503937,"duration":0.08333333333333393},{"name":"G5","midi":79,"time":15.492187500000005,"velocity":0.84251968503937,"duration":0.08333333333333393},{"name":"B3","midi":59,"time":15.492187500000005,"velocity":0.84251968503937,"duration":0.2552083333333339},{"name":"F5","midi":77,"time":15.578125000000005,"velocity":0.84251968503937,"duration":0.08333333333333393},{"name":"G5","midi":79,"time":15.664062500000005,"velocity":0.84251968503937,"duration":0.08333333333333393},{"name":"F5","midi":77,"time":15.750000000000005,"velocity":0.84251968503937,"duration":0.08333333333333393},{"name":"G#3","midi":56,"time":15.750000000000005,"velocity":0.84251968503937,"duration":0.2552083333333339},{"name":"G5","midi":79,"time":15.835937500000005,"velocity":0.84251968503937,"duration":0.08333333333333393},{"name":"F5","midi":77,"time":15.921875000000005,"velocity":0.84251968503937,"duration":0.08333333333333393},{"name":"G5","midi":79,"time":16.007812500000007,"velocity":0.84251968503937,"duration":0.08333333333333215},{"name":"A3","midi":57,"time":16.007812500000007,"velocity":0.84251968503937,"duration":0.2552083333333286},{"name":"F5","midi":77,"time":16.093750000000007,"velocity":0.84251968503937,"duration":0.08333333333333215},{"name":"G5","midi":79,"time":16.17838541666667,"velocity":0.84251968503937,"duration":0.08333333333333215},{"name":"F5","midi":77,"time":16.264322916666668,"velocity":0.84251968503937,"duration":0.08333333333333215},{"name":"G#3","midi":56,"time":16.264322916666668,"velocity":0.84251968503937,"duration":2.315104166666657},{"name":"G5","midi":79,"time":16.350260416666668,"velocity":0.84251968503937,"duration":0.08333333333333215},{"name":"F5","midi":77,"time":16.436197916666668,"velocity":0.84251968503937,"duration":0.08333333333333215},{"name":"G5","midi":79,"time":16.522135416666668,"velocity":0.84251968503937,"duration":0.08333333333333215},{"name":"B3","midi":59,"time":16.522135416666668,"velocity":0.84251968503937,"duration":0.25520833333333215},{"name":"F5","midi":77,"time":16.608072916666668,"velocity":0.84251968503937,"duration":0.08333333333333215},{"name":"G5","midi":79,"time":16.694010416666668,"velocity":0.84251968503937,"duration":0.08333333333333215},{"name":"F5","midi":77,"time":16.779947916666668,"velocity":0.84251968503937,"duration":0.08333333333333215},{"name":"D4","midi":62,"time":16.779947916666668,"velocity":0.84251968503937,"duration":0.25520833333333215},{"name":"G5","midi":79,"time":16.865885416666668,"velocity":0.84251968503937,"duration":0.08333333333333215},{"name":"F5","midi":77,"time":16.951822916666668,"velocity":0.84251968503937,"duration":0.08333333333333215},{"name":"G5","midi":79,"time":17.037760416666668,"velocity":0.84251968503937,"duration":0.08333333333333215},{"name":"F4","midi":65,"time":17.037760416666668,"velocity":0.84251968503937,"duration":0.2552083333333286},{"name":"F5","midi":77,"time":17.123697916666668,"velocity":0.84251968503937,"duration":0.08333333333333215},{"name":"G5","midi":79,"time":17.208333333333332,"velocity":0.84251968503937,"duration":0.08333333333333215},{"name":"F5","midi":77,"time":17.29427083333333,"velocity":0.84251968503937,"duration":0.08333333333333215},{"name":"E4","midi":64,"time":17.29427083333333,"velocity":0.84251968503937,"duration":0.25520833333333215},{"name":"G5","midi":79,"time":17.38020833333333,"velocity":0.84251968503937,"duration":0.08333333333333215},{"name":"F5","midi":77,"time":17.46614583333333,"velocity":0.84251968503937,"duration":0.08333333333333215},{"name":"G5","midi":79,"time":17.55208333333333,"velocity":0.84251968503937,"duration":0.08333333333333215},{"name":"D4","midi":62,"time":17.55208333333333,"velocity":0.84251968503937,"duration":0.25520833333333215},{"name":"F5","midi":77,"time":17.63802083333333,"velocity":0.84251968503937,"duration":0.08333333333333215},{"name":"G5","midi":79,"time":17.72395833333333,"velocity":0.84251968503937,"duration":0.08333333333333215},{"name":"F5","midi":77,"time":17.80989583333333,"velocity":0.84251968503937,"duration":0.08333333333333215},{"name":"C4","midi":60,"time":17.80989583333333,"velocity":0.84251968503937,"duration":0.25520833333333215},{"name":"G5","midi":79,"time":17.89583333333333,"velocity":0.84251968503937,"duration":0.08333333333333215},{"name":"F5","midi":77,"time":17.98177083333333,"velocity":0.84251968503937,"duration":0.08333333333333215},{"name":"G5","midi":79,"time":18.06770833333333,"velocity":0.84251968503937,"duration":0.08333333333333215},{"name":"D4","midi":62,"time":18.06770833333333,"velocity":0.84251968503937,"duration":0.25520833333333215},{"name":"F5","midi":77,"time":18.15364583333333,"velocity":0.84251968503937,"duration":0.08333333333333215},{"name":"G5","midi":79,"time":18.23958333333333,"velocity":0.84251968503937,"duration":0.08333333333333215},{"name":"F5","midi":77,"time":18.324218749999993,"velocity":0.84251968503937,"duration":0.08333333333333215},{"name":"B3","midi":59,"time":18.324218749999993,"velocity":0.84251968503937,"duration":0.25520833333333215},{"name":"G5","midi":79,"time":18.410156249999993,"velocity":0.84251968503937,"duration":0.08333333333333215},{"name":"F5","midi":77,"time":18.496093749999993,"velocity":0.84251968503937,"duration":0.33463541666666785},{"name":"A3","midi":57,"time":18.582031249999993,"velocity":0.84251968503937,"duration":3.0846354166666607},{"name":"C4","midi":60,"time":18.582031249999993,"velocity":0.84251968503937,"duration":2.3151041666666607},{"name":"E5","midi":76,"time":18.839843749999993,"velocity":0.84251968503937,"duration":0.25520833333333215},{"name":"D5","midi":74,"time":19.097656249999993,"velocity":0.84251968503937,"duration":0.25520833333333215},{"name":"E5","midi":76,"time":19.354166666666657,"velocity":0.84251968503937,"duration":0.25520833333333215},{"name":"A5","midi":81,"time":19.611979166666657,"velocity":0.84251968503937,"duration":0.25520833333333215},{"name":"G#5","midi":80,"time":19.869791666666657,"velocity":0.84251968503937,"duration":0.25520833333333215},{"name":"A5","midi":81,"time":20.127604166666657,"velocity":0.84251968503937,"duration":0.25520833333333215},{"name":"B5","midi":83,"time":20.385416666666657,"velocity":0.84251968503937,"duration":0.25520833333333215},{"name":"C6","midi":84,"time":20.64192708333332,"velocity":0.84251968503937,"duration":0.25520833333333215},{"name":"D5","midi":74,"time":20.89973958333332,"velocity":0.84251968503937,"duration":0.25520833333333215},{"name":"B3","midi":59,"time":20.89973958333332,"velocity":0.84251968503937,"duration":1.5416666666666643},{"name":"E5","midi":76,"time":21.15755208333332,"velocity":0.84251968503937,"duration":0.25520833333333215},{"name":"F5","midi":77,"time":21.41536458333332,"velocity":0.84251968503937,"duration":0.5130208333333321},{"name":"G#3","midi":56,"time":21.671874999999986,"velocity":0.84251968503937,"duration":0.7708333333333321},{"name":"E5","midi":76,"time":21.929687499999986,"velocity":0.84251968503937,"duration":0.25520833333333215},{"name":"D5","midi":74,"time":22.187499999999986,"velocity":0.84251968503937,"duration":0.25520833333333215},{"name":"C5","midi":72,"time":22.445312499999986,"velocity":0.84251968503937,"duration":0.25520833333333215},{"name":"E3","midi":52,"time":22.445312499999986,"velocity":0.84251968503937,"duration":0.7708333333333286},{"name":"G#3","midi":56,"time":22.445312499999986,"velocity":0.84251968503937,"duration":0.7708333333333286},{"name":"D5","midi":74,"time":22.70182291666665,"velocity":0.84251968503937,"duration":0.25520833333333215},{"name":"B4","midi":71,"time":22.95963541666665,"velocity":0.84251968503937,"duration":0.25520833333333215},{"name":"C5","midi":72,"time":23.217447916666647,"velocity":0.84251968503937,"duration":3.352864583333325},{"name":"A3","midi":57,"time":23.217447916666647,"velocity":0.84251968503937,"duration":1.28515625},{"name":"A4","midi":69,"time":23.475260416666647,"velocity":0.84251968503937,"duration":1.0286458333333321},{"name":"E4","midi":64,"time":23.731770833333314,"velocity":0.84251968503937,"duration":0.25520833333333215},{"name":"C4","midi":60,"time":23.989583333333314,"velocity":0.84251968503937,"duration":0.25520833333333215},{"name":"E4","midi":64,"time":24.247395833333314,"velocity":0.84251968503937,"duration":1.286458333333325},{"name":"A3","midi":57,"time":24.50520833333331,"velocity":0.84251968503937,"duration":0.25520833333333215},{"name":"G3","midi":55,"time":24.761718749999975,"velocity":0.84251968503937,"duration":0.25520833333333215},{"name":"F3","midi":53,"time":25.019531249999975,"velocity":0.84251968503937,"duration":0.25520833333333215},{"name":"E3","midi":52,"time":25.277343749999975,"velocity":0.84251968503937,"duration":0.25520833333333215},{"name":"F3","midi":53,"time":25.53515624999997,"velocity":0.84251968503937,"duration":2.3151041666666643},{"name":"A3","midi":57,"time":25.79166666666664,"velocity":0.84251968503937,"duration":0.5091145833333321},{"name":"C4","midi":60,"time":26.04947916666664,"velocity":0.84251968503937,"duration":0.5091145833333321},{"name":"E4","midi":64,"time":26.30729166666664,"velocity":0.84251968503937,"duration":0.25520833333333215},{"name":"B4","midi":71,"time":26.56510416666664,"velocity":0.84251968503937,"duration":0.25520833333333215},{"name":"D4","midi":62,"time":26.56510416666664,"velocity":0.84251968503937,"duration":0.25520833333333215},{"name":"A4","midi":69,"time":26.82291666666664,"velocity":0.84251968503937,"duration":0.25520833333333215},{"name":"C4","midi":60,"time":26.82291666666664,"velocity":0.84251968503937,"duration":0.25520833333333215},{"name":"D5","midi":74,"time":27.079427083333304,"velocity":0.84251968503937,"duration":0.25520833333333215},{"name":"B3","midi":59,"time":27.079427083333304,"velocity":0.84251968503937,"duration":0.25520833333333215},{"name":"E5","midi":76,"time":27.337239583333304,"velocity":0.84251968503937,"duration":0.25520833333333215},{"name":"C4","midi":60,"time":27.337239583333304,"velocity":0.84251968503937,"duration":0.25520833333333215},{"name":"F5","midi":77,"time":27.595052083333304,"velocity":0.84251968503937,"duration":0.25520833333333215},{"name":"D4","midi":62,"time":27.595052083333304,"velocity":0.84251968503937,"duration":0.7708333333333321},{"name":"G#4","midi":68,"time":27.852864583333304,"velocity":0.84251968503937,"duration":0.25520833333333215},{"name":"E3","midi":52,"time":27.852864583333304,"velocity":0.84251968503937,"duration":4.626302083333332},{"name":"B4","midi":71,"time":28.109374999999968,"velocity":0.84251968503937,"duration":2.578125},{"name":"E4","midi":64,"time":28.367187499999968,"velocity":0.84251968503937,"duration":0.25520833333333215},{"name":"F4","midi":65,"time":28.624999999999968,"velocity":0.84251968503937,"duration":0.25520833333333215},{"name":"E4","midi":64,"time":28.882812499999968,"velocity":0.84251968503937,"duration":1.54296875},{"name":"D4","midi":62,"time":29.139322916666636,"velocity":0.84251968503937,"duration":0.25520833333333215},{"name":"C4","midi":60,"time":29.397135416666636,"velocity":0.84251968503937,"duration":0.25520833333333215},{"name":"D4","midi":62,"time":29.654947916666636,"velocity":0.84251968503937,"duration":0.25520833333333215},{"name":"B3","midi":59,"time":29.912760416666636,"velocity":0.84251968503937,"duration":0.25520833333333215},{"name":"C4","midi":60,"time":30.1692708333333,"velocity":0.84251968503937,"duration":1.0286458333333357},{"name":"E4","midi":64,"time":30.4270833333333,"velocity":0.84251968503937,"duration":1.2864583333333321},{"name":"G#4","midi":68,"time":30.6848958333333,"velocity":0.84251968503937,"duration":0.2552083333333357},{"name":"A4","midi":69,"time":30.942708333333304,"velocity":0.84251968503937,"duration":0.25520833333333215},{"name":"B4","midi":71,"time":31.199218749999968,"velocity":0.84251968503937,"duration":0.25520833333333215},{"name":"B3","midi":59,"time":31.199218749999968,"velocity":0.84251968503937,"duration":0.25520833333333215},{"name":"C5","midi":72,"time":31.457031249999968,"velocity":0.84251968503937,"duration":0.25520833333333215},{"name":"A3","midi":57,"time":31.457031249999968,"velocity":0.84251968503937,"duration":0.25520833333333215},{"name":"E4","midi":64,"time":31.714843749999964,"velocity":0.84251968503937,"duration":1.5416666666666714},{"name":"B3","midi":59,"time":31.714843749999964,"velocity":0.84251968503937,"duration":0.25520833333333215},{"name":"A4","midi":69,"time":31.972656249999964,"velocity":0.84251968503937,"duration":0.2552083333333357},{"name":"C4","midi":60,"time":31.972656249999964,"velocity":0.84251968503937,"duration":0.2552083333333357},{"name":"G#4","midi":68,"time":32.229166666666636,"velocity":0.84251968503937,"duration":0.2552083333333357},{"name":"D4","midi":62,"time":32.229166666666636,"velocity":0.84251968503937,"duration":0.2552083333333357},{"name":"A4","midi":69,"time":32.486979166666636,"velocity":0.84251968503937,"duration":0.7708333333333357},{"name":"A3","midi":57,"time":32.486979166666636,"velocity":0.84251968503937,"duration":1.0286458333333357},{"name":"C4","midi":60,"time":32.744791666666636,"velocity":0.84251968503937,"duration":0.2552083333333357},{"name":"B3","midi":59,"time":33.002604166666636,"velocity":0.84251968503937,"duration":0.2552083333333357},{"name":"C4","midi":60,"time":33.260416666666636,"velocity":0.84251968503937,"duration":0.2552083333333357},{"name":"A3","midi":57,"time":33.51692708333331,"velocity":0.84251968503937,"duration":0.5091145833333357},{"name":"C4","midi":60,"time":33.77473958333331,"velocity":0.84251968503937,"duration":0.2552083333333357},{"name":"E4","midi":64,"time":34.03255208333331,"velocity":0.84251968503937,"duration":0.2552083333333357},{"name":"A4","midi":69,"time":34.29036458333331,"velocity":0.84251968503937,"duration":0.2552083333333357},{"name":"C5","midi":72,"time":34.54687499999998,"velocity":0.84251968503937,"duration":0.2552083333333357},{"name":"E5","midi":76,"time":34.80468749999998,"velocity":0.84251968503937,"duration":0.2552083333333357},{"name":"A4","midi":69,"time":35.06249999999998,"velocity":0.84251968503937,"duration":0.2552083333333357},{"name":"C5","midi":72,"time":35.32031249999998,"velocity":0.84251968503937,"duration":0.2552083333333357},{"name":"E5","midi":76,"time":35.57682291666665,"velocity":0.84251968503937,"duration":0.2552083333333357},{"name":"A5","midi":81,"time":35.83463541666665,"velocity":0.84251968503937,"duration":0.2552083333333357},{"name":"E5","midi":76,"time":36.09244791666665,"velocity":0.84251968503937,"duration":0.2552083333333357},{"name":"C5","midi":72,"time":36.35026041666665,"velocity":0.84251968503937,"duration":0.2552083333333357},{"name":"E5","midi":76,"time":36.60677083333332,"velocity":0.84251968503937,"duration":0.2552083333333357},{"name":"C5","midi":72,"time":36.86458333333332,"velocity":0.84251968503937,"duration":0.2552083333333357},{"name":"A4","midi":69,"time":37.12239583333332,"velocity":0.84251968503937,"duration":0.2552083333333357},{"name":"C5","midi":72,"time":37.38020833333332,"velocity":0.84251968503937,"duration":0.1263020833333357},{"name":"B4","midi":71,"time":37.50911458333332,"velocity":0.84251968503937,"duration":0.1263020833333357},{"name":"A4","midi":69,"time":37.63671874999999,"velocity":0.84251968503937,"duration":0.1263020833333357},{"name":"G#4","midi":68,"time":37.76562499999999,"velocity":0.84251968503937,"duration":0.1263020833333357},{"name":"A4","midi":69,"time":37.89453124999999,"velocity":0.84251968503937,"duration":0.2552083333333357},{"name":"C5","midi":72,"time":38.15234374999999,"velocity":0.84251968503937,"duration":0.2552083333333357},{"name":"A4","midi":69,"time":38.41015624999999,"velocity":0.84251968503937,"duration":0.2552083333333357},{"name":"E4","midi":64,"time":38.666666666666664,"velocity":0.84251968503937,"duration":0.2552083333333357},{"name":"A4","midi":69,"time":38.924479166666664,"velocity":0.84251968503937,"duration":0.2552083333333357},{"name":"E4","midi":64,"time":39.182291666666664,"velocity":0.84251968503937,"duration":0.2552083333333357},{"name":"C4","midi":60,"time":39.440104166666664,"velocity":0.84251968503937,"duration":0.2552083333333357},{"name":"E4","midi":64,"time":39.697916666666664,"velocity":0.84251968503937,"duration":0.2552083333333357},{"name":"C4","midi":60,"time":39.954427083333336,"velocity":0.84251968503937,"duration":0.2552083333333357},{"name":"A3","midi":57,"time":40.212239583333336,"velocity":0.84251968503937,"duration":0.2552083333333357},{"name":"C4","midi":60,"time":40.470052083333336,"velocity":0.84251968503937,"duration":0.1263020833333357},{"name":"B3","midi":59,"time":40.598958333333336,"velocity":0.84251968503937,"duration":0.1263020833333357},{"name":"A3","midi":57,"time":40.727864583333336,"velocity":0.84251968503937,"duration":0.1263020833333357},{"name":"G#3","midi":56,"time":40.85546875000001,"velocity":0.84251968503937,"duration":0.1263020833333357},{"name":"A3","midi":57,"time":40.98437500000001,"velocity":0.84251968503937,"duration":0.2942708333333286},{"name":"E3","midi":52,"time":41.24869791666667,"velocity":0.84251968503937,"duration":0.26171875},{"name":"C3","midi":48,"time":41.513020833333336,"velocity":0.84251968503937,"duration":0.26171875},{"name":"A2","midi":45,"time":41.80078125,"velocity":0.84251968503937,"duration":11.575520833333357},{"name":"C3","midi":48,"time":42.057291666666664,"velocity":0.84251968503937,"duration":1.2864583333333286},{"name":"E3","midi":52,"time":42.315104166666664,"velocity":0.84251968503937,"duration":1.0286458333333286},{"name":"A3","midi":57,"time":42.572916666666664,"velocity":0.84251968503937,"duration":0.7708333333333286},{"name":"C4","midi":60,"time":42.830729166666664,"velocity":0.84251968503937,"duration":0.5091145833333286},{"name":"E4","midi":64,"time":43.08723958333333,"velocity":0.84251968503937,"duration":0.2552083333333286},{"name":"G#3","midi":56,"time":43.34505208333333,"velocity":0.84251968503937,"duration":0.7708333333333357},{"name":"D3","midi":50,"time":43.34505208333333,"velocity":0.84251968503937,"duration":0.7708333333333357},{"name":"B2","midi":47,"time":43.34505208333333,"velocity":0.84251968503937,"duration":0.7708333333333357},{"name":"D4","midi":62,"time":43.60286458333333,"velocity":0.84251968503937,"duration":0.5091145833333357},{"name":"F4","midi":65,"time":43.86067708333333,"velocity":0.84251968503937,"duration":0.2552083333333357},{"name":"E4","midi":64,"time":44.1171875,"velocity":0.84251968503937,"duration":0.5130208333333357},{"name":"A3","midi":57,"time":44.1171875,"velocity":0.84251968503937,"duration":0.5130208333333357},{"name":"C3","midi":48,"time":44.1171875,"velocity":0.84251968503937,"duration":1.5416666666666643},{"name":"E3","midi":52,"time":44.375,"velocity":0.84251968503937,"duration":1.28515625},{"name":"A3","midi":57,"time":44.6328125,"velocity":0.84251968503937,"duration":0.2552083333333357},{"name":"C4","midi":60,"time":44.890625,"velocity":0.84251968503937,"duration":0.7708333333333357},{"name":"E4","midi":64,"time":45.147135416666664,"velocity":0.84251968503937,"duration":0.5091145833333357},{"name":"A4","midi":69,"time":45.404947916666664,"velocity":0.84251968503937,"duration":0.5091145833333428},{"name":"B3","midi":59,"time":45.66276041666667,"velocity":0.84251968503937,"duration":0.7708333333333428},{"name":"D3","midi":50,"time":45.66276041666667,"velocity":0.84251968503937,"duration":0.7708333333333428},{"name":"F3","midi":53,"time":45.66276041666667,"velocity":0.84251968503937,"duration":0.7708333333333428},{"name":"B4","midi":71,"time":45.92057291666667,"velocity":0.84251968503937,"duration":0.2552083333333357},{"name":"G#4","midi":68,"time":46.17708333333334,"velocity":0.84251968503937,"duration":0.2552083333333357},{"name":"A4","midi":69,"time":46.43489583333335,"velocity":0.84251968503937,"duration":0.2552083333333357},{"name":"C4","midi":60,"time":46.43489583333335,"velocity":0.84251968503937,"duration":0.7708333333333357},{"name":"E3","midi":52,"time":46.43489583333335,"velocity":0.84251968503937,"duration":1.54296875},{"name":"E4","midi":64,"time":46.69270833333335,"velocity":0.84251968503937,"duration":0.2552083333333357},{"name":"G4","midi":67,"time":46.95052083333335,"velocity":0.84251968503937,"duration":2.3151041666666643},{"name":"C#4","midi":61,"time":47.20833333333335,"velocity":0.84251968503937,"duration":2.05078125},{"name":"E4","midi":64,"time":47.464843750000014,"velocity":0.84251968503937,"duration":1.796875},{"name":"A3","midi":57,"time":47.722656250000014,"velocity":0.84251968503937,"duration":0.2552083333333357},{"name":"G3","midi":55,"time":47.980468750000014,"velocity":0.84251968503937,"duration":0.2552083333333357},{"name":"F3","midi":53,"time":48.238281250000014,"velocity":0.84251968503937,"duration":0.2552083333333357},{"name":"E3","midi":52,"time":48.494791666666686,"velocity":0.84251968503937,"duration":0.2552083333333357},{"name":"F3","midi":53,"time":48.752604166666686,"velocity":0.84251968503937,"duration":2.3151041666666643},{"name":"A3","midi":57,"time":49.010416666666686,"velocity":0.84251968503937,"duration":0.5091145833333286},{"name":"C#4","midi":61,"time":49.26822916666668,"velocity":0.84251968503937,"duration":0.2552083333333357},{"name":"E4","midi":64,"time":49.52473958333335,"velocity":0.84251968503937,"duration":0.7708333333333357},{"name":"G4","midi":67,"time":49.78255208333335,"velocity":0.84251968503937,"duration":0.5091145833333357},{"name":"C#4","midi":61,"time":50.04036458333335,"velocity":0.84251968503937,"duration":0.2552083333333357},{"name":"D4","midi":62,"time":50.29817708333335,"velocity":0.84251968503937,"duration":0.7708333333333357},{"name":"F4","midi":65,"time":50.554687500000014,"velocity":0.84251968503937,"duration":0.5091145833333357},{"name":"A3","midi":57,"time":50.812500000000014,"velocity":0.84251968503937,"duration":0.2552083333333357},{"name":"A#3","midi":58,"time":51.07031250000002,"velocity":0.84251968503937,"duration":0.5091145833333357},{"name":"D3","midi":50,"time":51.07031250000002,"velocity":0.84251968503937,"duration":2.3151041666666714},{"name":"D4","midi":62,"time":51.32812500000002,"velocity":0.84251968503937,"duration":0.5091145833333357},{"name":"A3","midi":57,"time":51.58463541666669,"velocity":0.84251968503937,"duration":0.2552083333333286},{"name":"G#3","midi":56,"time":51.842447916666686,"velocity":0.84251968503937,"duration":1.5416666666666714},{"name":"B2","midi":47,"time":51.842447916666686,"velocity":0.84251968503937,"duration":1.542968750000007},{"name":"B3","midi":59,"time":52.100260416666686,"velocity":0.84251968503937,"duration":0.2552083333333357},{"name":"D4","midi":62,"time":52.358072916666686,"velocity":0.84251968503937,"duration":0.2552083333333357},{"name":"F4","midi":65,"time":52.61458333333336,"velocity":0.84251968503937,"duration":0.2552083333333357},{"name":"E4","midi":64,"time":52.87239583333336,"velocity":0.84251968503937,"duration":0.2552083333333357},{"name":"D4","midi":62,"time":53.13020833333336,"velocity":0.84251968503937,"duration":0.2552083333333357},{"name":"A3","midi":57,"time":53.38802083333336,"velocity":0.84251968503937,"duration":0.5091145833333357},{"name":"C4","midi":60,"time":53.38802083333336,"velocity":0.84251968503937,"duration":0.2552083333333357},{"name":"A2","midi":45,"time":53.38802083333336,"velocity":0.84251968503937,"duration":1.02864583333335},{"name":"E3","midi":52,"time":53.38802083333336,"velocity":0.84251968503937,"duration":0.7708333333333428},{"name":"B3","midi":59,"time":53.64583333333336,"velocity":0.84251968503937,"duration":0.2552083333333357},{"name":"A3","midi":57,"time":53.90234375000003,"velocity":0.84251968503937,"duration":0.2552083333333357},{"name":"C5","midi":72,"time":54.160156250000036,"velocity":0.84251968503937,"duration":0.1263020833333357},{"name":"B4","midi":71,"time":54.289062500000036,"velocity":0.84251968503937,"duration":0.1263020833333357},{"name":"C5","midi":72,"time":54.41796875000004,"velocity":0.84251968503937,"duration":0.5130208333333428},{"name":"A2","midi":45,"time":54.41796875000004,"velocity":0.84251968503937,"duration":0.1263020833333357},{"name":"A#2","midi":46,"time":54.54687500000004,"velocity":0.84251968503937,"duration":0.1263020833333357},{"name":"C3","midi":48,"time":54.67578125000004,"velocity":0.84251968503937,"duration":0.1263020833333357},{"name":"D3","midi":50,"time":54.803385416666714,"velocity":0.84251968503937,"duration":0.1263020833333357},{"name":"C5","midi":72,"time":54.93229166666672,"velocity":0.84251968503937,"duration":0.7708333333333357},{"name":"D#3","midi":51,"time":54.93229166666672,"velocity":0.84251968503937,"duration":0.2552083333333357},{"name":"C3","midi":48,"time":55.19010416666672,"velocity":0.84251968503937,"duration":0.2552083333333357},{"name":"A2","midi":45,"time":55.44791666666672,"velocity":0.84251968503937,"duration":0.2552083333333357},{"name":"D5","midi":74,"time":55.70572916666672,"velocity":0.84251968503937,"duration":0.0833333333333357},{"name":"F#2","midi":42,"time":55.70572916666672,"velocity":0.84251968503937,"duration":0.2552083333333428},{"name":"C5","midi":72,"time":55.79166666666672,"velocity":0.84251968503937,"duration":0.0833333333333357},{"name":"D5","midi":74,"time":55.87630208333339,"velocity":0.84251968503937,"duration":0.0833333333333357},{"name":"C5","midi":72,"time":55.9622395833334,"velocity":0.84251968503937,"duration":0.0833333333333357},{"name":"A2","midi":45,"time":55.9622395833334,"velocity":0.84251968503937,"duration":0.2552083333333357},{"name":"D5","midi":74,"time":56.0481770833334,"velocity":0.84251968503937,"duration":0.0833333333333357},{"name":"C5","midi":72,"time":56.1341145833334,"velocity":0.84251968503937,"duration":0.0833333333333357},{"name":"D5","midi":74,"time":56.2200520833334,"velocity":0.84251968503937,"duration":0.0833333333333357},{"name":"D3","midi":50,"time":56.2200520833334,"velocity":0.84251968503937,"duration":0.2552083333333357},{"name":"C5","midi":72,"time":56.3059895833334,"velocity":0.84251968503937,"duration":0.0833333333333357},{"name":"D5","midi":74,"time":56.3919270833334,"velocity":0.84251968503937,"duration":0.0833333333333357},{"name":"C5","midi":72,"time":56.4778645833334,"velocity":0.84251968503937,"duration":0.0833333333333357},{"name":"F#3","midi":54,"time":56.4778645833334,"velocity":0.84251968503937,"duration":0.2552083333333357},{"name":"D5","midi":74,"time":56.5638020833334,"velocity":0.84251968503937,"duration":0.0833333333333357},{"name":"C5","midi":72,"time":56.6497395833334,"velocity":0.84251968503937,"duration":0.0833333333333357},{"name":"D5","midi":74,"time":56.7356770833334,"velocity":0.84251968503937,"duration":0.0833333333333357},{"name":"A3","midi":57,"time":56.7356770833334,"velocity":0.84251968503937,"duration":0.2552083333333428},{"name":"C5","midi":72,"time":56.8216145833334,"velocity":0.84251968503937,"duration":0.0833333333333357},{"name":"D5","midi":74,"time":56.90625000000007,"velocity":0.84251968503937,"duration":0.0833333333333357},{"name":"C5","midi":72,"time":56.99218750000008,"velocity":0.84251968503937,"duration":0.0833333333333357},{"name":"C4","midi":60,"time":56.99218750000008,"velocity":0.84251968503937,"duration":0.2552083333333357},{"name":"D5","midi":74,"time":57.07812500000008,"velocity":0.84251968503937,"duration":0.0833333333333357},{"name":"C5","midi":72,"time":57.16406250000008,"velocity":0.84251968503937,"duration":0.0833333333333357},{"name":"D5","midi":74,"time":57.25000000000008,"velocity":0.84251968503937,"duration":0.0833333333333357},{"name":"D#4","midi":63,"time":57.25000000000008,"velocity":0.84251968503937,"duration":0.2552083333333357},{"name":"C5","midi":72,"time":57.33593750000008,"velocity":0.84251968503937,"duration":0.0833333333333357},{"name":"D5","midi":74,"time":57.42187500000008,"velocity":0.84251968503937,"duration":0.0833333333333357},{"name":"C5","midi":72,"time":57.50781250000008,"velocity":0.84251968503937,"duration":0.0833333333333357},{"name":"D4","midi":62,"time":57.50781250000008,"velocity":0.84251968503937,"duration":0.2552083333333357},{"name":"D5","midi":74,"time":57.59375000000008,"velocity":0.84251968503937,"duration":0.0833333333333357},{"name":"C5","midi":72,"time":57.67968750000008,"velocity":0.84251968503937,"duration":1.3645833333333357},{"name":"C4","midi":60,"time":57.76562500000008,"velocity":0.84251968503937,"duration":0.2552083333333357},{"name":"A#3","midi":58,"time":58.02213541666675,"velocity":0.84251968503937,"duration":1.0286458333333286},{"name":"D4","midi":62,"time":58.27994791666675,"velocity":0.84251968503937,"duration":0.5091145833333357},{"name":"F#4","midi":66,"time":58.53776041666675,"velocity":0.84251968503937,"duration":0.5091145833333286},{"name":"A4","midi":69,"time":58.79557291666675,"velocity":0.84251968503937,"duration":0.7708333333333357},{"name":"C5","midi":72,"time":59.052083333333414,"velocity":0.84251968503937,"duration":0.2552083333333357},{"name":"A3","midi":57,"time":59.052083333333414,"velocity":0.84251968503937,"duration":0.2552083333333357},{"name":"D#5","midi":75,"time":59.309895833333414,"velocity":0.84251968503937,"duration":0.2552083333333357},{"name":"G3","midi":55,"time":59.309895833333414,"velocity":0.84251968503937,"duration":0.2552083333333357},{"name":"F#5","midi":78,"time":59.56770833333342,"velocity":0.84251968503937,"duration":0.2552083333333357},{"name":"A3","midi":57,"time":59.56770833333342,"velocity":0.84251968503937,"duration":0.2552083333333357},{"name":"A5","midi":81,"time":59.82552083333342,"velocity":0.84251968503937,"duration":0.2552083333333357},{"name":"G3","midi":55,"time":59.82552083333342,"velocity":0.84251968503937,"duration":0.2552083333333357},{"name":"C5","midi":72,"time":60.08333333333342,"velocity":0.84251968503937,"duration":0.2552083333333357},{"name":"F#3","midi":54,"time":60.08333333333342,"velocity":0.84251968503937,"duration":0.2552083333333357},{"name":"A#4","midi":70,"time":60.33984375000009,"velocity":0.84251968503937,"duration":0.2552083333333357},{"name":"G3","midi":55,"time":60.33984375000009,"velocity":0.84251968503937,"duration":0.8997395833333357},{"name":"A4","midi":69,"time":60.59765625000009,"velocity":0.84251968503937,"duration":0.2552083333333357},{"name":"G4","midi":67,"time":60.85546875000009,"velocity":0.84251968503937,"duration":0.2552083333333357},{"name":"A#5","midi":82,"time":61.11328125000009,"velocity":0.84251968503937,"duration":0.1263020833333357},{"name":"A5","midi":81,"time":61.240885416666764,"velocity":0.84251968503937,"duration":0.1263020833333357},{"name":"G3","midi":55,"time":61.240885416666764,"velocity":0.84251968503937,"duration":0.1263020833333357},{"name":"A#5","midi":82,"time":61.369791666666764,"velocity":0.84251968503937,"duration":0.5130208333333357},{"name":"A3","midi":57,"time":61.369791666666764,"velocity":0.84251968503937,"duration":0.1263020833333357},{"name":"A#3","midi":58,"time":61.498697916666764,"velocity":0.84251968503937,"duration":0.1263020833333357},{"name":"C4","midi":60,"time":61.627604166666764,"velocity":0.84251968503937,"duration":0.1263020833333357},{"name":"D4","midi":62,"time":61.756510416666764,"velocity":0.84251968503937,"duration":0.1263020833333357},{"name":"A#5","midi":82,"time":61.885416666666764,"velocity":0.84251968503937,"duration":0.7708333333333428},{"name":"E4","midi":64,"time":61.885416666666764,"velocity":0.84251968503937,"duration":0.1263020833333357},{"name":"F4","midi":65,"time":62.014322916666764,"velocity":0.84251968503937,"duration":0.1263020833333357},{"name":"G4","midi":67,"time":62.143229166666764,"velocity":0.84251968503937,"duration":0.1263020833333357},{"name":"E4","midi":64,"time":62.270833333333435,"velocity":0.84251968503937,"duration":0.1263020833333357},{"name":"F4","midi":65,"time":62.399739583333435,"velocity":0.84251968503937,"duration":0.1263020833333357},{"name":"G4","midi":67,"time":62.528645833333435,"velocity":0.84251968503937,"duration":0.1263020833333357},{"name":"C6","midi":84,"time":62.65755208333344,"velocity":0.84251968503937,"duration":0.0833333333333357},{"name":"C#4","midi":61,"time":62.65755208333344,"velocity":0.84251968503937,"duration":0.1263020833333357},{"name":"A#5","midi":82,"time":62.73697916666678,"velocity":0.84251968503937,"duration":0.0833333333333286},{"name":"D4","midi":62,"time":62.78645833333344,"velocity":0.84251968503937,"duration":0.1263020833333357},{"name":"C6","midi":84,"time":62.81640625000011,"velocity":0.84251968503937,"duration":0.0833333333333357},{"name":"A#5","midi":82,"time":62.89453125000011,"velocity":0.84251968503937,"duration":0.0833333333333357},{"name":"E4","midi":64,"time":62.91536458333344,"velocity":0.84251968503937,"duration":0.1263020833333357},{"name":"C6","midi":84,"time":62.97395833333344,"velocity":0.84251968503937,"duration":0.0833333333333357},{"name":"C#4","midi":61,"time":63.04427083333344,"velocity":0.84251968503937,"duration":0.1263020833333357},{"name":"A#5","midi":82,"time":63.05338541666678,"velocity":0.84251968503937,"duration":0.0833333333333357},{"name":"C6","midi":84,"time":63.132812500000114,"velocity":0.84251968503937,"duration":0.0833333333333286},{"name":"D4","midi":62,"time":63.17317708333344,"velocity":0.84251968503937,"duration":0.1263020833333357},{"name":"A#5","midi":82,"time":63.21093750000011,"velocity":0.84251968503937,"duration":0.0833333333333357},{"name":"C6","midi":84,"time":63.29036458333344,"velocity":0.84251968503937,"duration":0.0833333333333357},{"name":"E4","midi":64,"time":63.30208333333344,"velocity":0.84251968503937,"duration":0.1263020833333357},{"name":"A#5","midi":82,"time":63.36979166666678,"velocity":0.84251968503937,"duration":0.0833333333333357},{"name":"G3","midi":55,"time":63.429687500000114,"velocity":0.84251968503937,"duration":0.1263020833333357},{"name":"C6","midi":84,"time":63.449218750000114,"velocity":0.84251968503937,"duration":0.0833333333333357},{"name":"A#5","midi":82,"time":63.52864583333345,"velocity":0.84251968503937,"duration":0.0833333333333357},{"name":"A3","midi":57,"time":63.558593750000114,"velocity":0.84251968503937,"duration":0.1263020833333357},{"name":"C6","midi":84,"time":63.60677083333345,"velocity":0.84251968503937,"duration":0.0833333333333357},{"name":"A#5","midi":82,"time":63.686197916666785,"velocity":0.84251968503937,"duration":0.0833333333333357},{"name":"A#3","midi":58,"time":63.68750000000012,"velocity":0.84251968503937,"duration":0.1263020833333357},{"name":"C6","midi":84,"time":63.76562500000012,"velocity":0.84251968503937,"duration":0.0833333333333357},{"name":"G3","midi":55,"time":63.81640625000012,"velocity":0.84251968503937,"duration":0.1263020833333357},{"name":"A#5","midi":82,"time":63.84505208333346,"velocity":0.84251968503937,"duration":0.0833333333333357},{"name":"C6","midi":84,"time":63.92317708333346,"velocity":0.84251968503937,"duration":0.0833333333333286},{"name":"A3","midi":57,"time":63.94531250000012,"velocity":0.84251968503937,"duration":0.1263020833333357},{"name":"A#5","midi":82,"time":64.00260416666679,"velocity":0.84251968503937,"duration":0.08333333333334281},{"name":"A#3","midi":58,"time":64.07421875000013,"velocity":0.84251968503937,"duration":0.1263020833333286},{"name":"C6","midi":84,"time":64.08203125000013,"velocity":0.84251968503937,"duration":0.0833333333333286},{"name":"A#5","midi":82,"time":64.16145833333346,"velocity":0.84251968503937,"duration":0.08333333333334281},{"name":"E3","midi":52,"time":64.20312500000013,"velocity":0.84251968503937,"duration":0.1263020833333428},{"name":"C6","midi":84,"time":64.23437500000013,"velocity":0.84251968503937,"duration":0.08333333333334281},{"name":"A#5","midi":82,"time":64.31380208333347,"velocity":0.84251968503937,"duration":0.08333333333334281},{"name":"F3","midi":53,"time":64.33203125000014,"velocity":0.84251968503937,"duration":0.1263020833333428},{"name":"C6","midi":84,"time":64.39322916666681,"velocity":0.84251968503937,"duration":0.0833333333333286},{"name":"G3","midi":55,"time":64.45963541666681,"velocity":0.84251968503937,"duration":0.1263020833333286},{"name":"A#5","midi":82,"time":64.47265625000014,"velocity":0.84251968503937,"duration":0.0833333333333286},{"name":"C6","midi":84,"time":64.55078125000014,"velocity":0.84251968503937,"duration":0.08333333333334281},{"name":"E3","midi":52,"time":64.58854166666681,"velocity":0.84251968503937,"duration":0.1263020833333286},{"name":"A#5","midi":82,"time":64.63020833333348,"velocity":0.84251968503937,"duration":0.0833333333333286},{"name":"C6","midi":84,"time":64.70963541666681,"velocity":0.84251968503937,"duration":0.0833333333333286},{"name":"F3","midi":53,"time":64.71744791666681,"velocity":0.84251968503937,"duration":0.1263020833333286},{"name":"A#5","midi":82,"time":64.78906250000014,"velocity":0.84251968503937,"duration":0.453125},{"name":"G3","midi":55,"time":64.84635416666681,"velocity":0.84251968503937,"duration":0.1263020833333286},{"name":"A2","midi":45,"time":64.97526041666681,"velocity":0.84251968503937,"duration":0.2552083333333286},{"name":"A5","midi":81,"time":65.23307291666681,"velocity":0.84251968503937,"duration":0.2552083333333286},{"name":"B2","midi":47,"time":65.23307291666681,"velocity":0.84251968503937,"duration":0.2552083333333286},{"name":"G5","midi":79,"time":65.48958333333347,"velocity":0.84251968503937,"duration":0.2552083333333286},{"name":"C#3","midi":49,"time":65.48958333333347,"velocity":0.84251968503937,"duration":0.2552083333333286},{"name":"F5","midi":77,"time":65.74739583333347,"velocity":0.84251968503937,"duration":0.2552083333333286},{"name":"D3","midi":50,"time":65.74739583333347,"velocity":0.84251968503937,"duration":0.2552083333333286},{"name":"E5","midi":76,"time":66.00520833333347,"velocity":0.84251968503937,"duration":0.2552083333333286},{"name":"E3","midi":52,"time":66.00520833333347,"velocity":0.84251968503937,"duration":0.2552083333333286},{"name":"D5","midi":74,"time":66.26302083333347,"velocity":0.84251968503937,"duration":0.2552083333333286},{"name":"F3","midi":53,"time":66.26302083333347,"velocity":0.84251968503937,"duration":0.2552083333333286},{"name":"C#5","midi":73,"time":66.52083333333347,"velocity":0.84251968503937,"duration":0.2552083333333286},{"name":"G3","midi":55,"time":66.52083333333347,"velocity":0.84251968503937,"duration":0.2552083333333286},{"name":"A5","midi":81,"time":66.77734375000013,"velocity":0.84251968503937,"duration":0.2552083333333286},{"name":"A3","midi":57,"time":66.77734375000013,"velocity":0.84251968503937,"duration":0.2552083333333286},{"name":"G5","midi":79,"time":67.03515625000013,"velocity":0.84251968503937,"duration":0.2552083333333286},{"name":"A2","midi":45,"time":67.03515625000013,"velocity":0.84251968503937,"duration":0.2552083333333286},{"name":"F5","midi":77,"time":67.29296875000013,"velocity":0.84251968503937,"duration":0.2552083333333286},{"name":"D3","midi":50,"time":67.29296875000013,"velocity":0.84251968503937,"duration":0.9388020833333286},{"name":"E5","midi":76,"time":67.55078125000013,"velocity":0.84251968503937,"duration":0.2552083333333286},{"name":"D5","midi":74,"time":67.80729166666679,"velocity":0.84251968503937,"duration":0.2552083333333286},{"name":"C5","midi":72,"time":68.06510416666679,"velocity":0.84251968503937,"duration":0.2552083333333428},{"name":"A#4","midi":70,"time":68.3229166666668,"velocity":0.84251968503937,"duration":0.2552083333333286},{"name":"D4","midi":62,"time":68.3229166666668,"velocity":0.84251968503937,"duration":0.2552083333333286},{"name":"A4","midi":69,"time":68.5807291666668,"velocity":0.84251968503937,"duration":0.2552083333333286},{"name":"C4","midi":60,"time":68.5807291666668,"velocity":0.84251968503937,"duration":0.2552083333333286},{"name":"G4","midi":67,"time":68.83723958333346,"velocity":0.84251968503937,"duration":0.2552083333333286},{"name":"A#3","midi":58,"time":68.83723958333346,"velocity":0.84251968503937,"duration":0.2552083333333286},{"name":"G5","midi":79,"time":69.09505208333346,"velocity":0.84251968503937,"duration":0.2552083333333286},{"name":"A3","midi":57,"time":69.09505208333346,"velocity":0.84251968503937,"duration":0.2552083333333286},{"name":"F5","midi":77,"time":69.35286458333346,"velocity":0.84251968503937,"duration":0.2552083333333286},{"name":"A#3","midi":58,"time":69.35286458333346,"velocity":0.84251968503937,"duration":0.2552083333333286},{"name":"E5","midi":76,"time":69.61067708333346,"velocity":0.84251968503937,"duration":0.2552083333333286},{"name":"C3","midi":48,"time":69.61067708333346,"velocity":0.84251968503937,"duration":0.9388020833333286},{"name":"D5","midi":74,"time":69.86718750000011,"velocity":0.84251968503937,"duration":0.2552083333333286},{"name":"C5","midi":72,"time":70.12500000000011,"velocity":0.84251968503937,"duration":0.2552083333333286},{"name":"A#4","midi":70,"time":70.38281250000011,"velocity":0.84251968503937,"duration":0.2552083333333428},{"name":"A4","midi":69,"time":70.64062500000013,"velocity":0.84251968503937,"duration":0.2552083333333286},{"name":"C4","midi":60,"time":70.64062500000013,"velocity":0.84251968503937,"duration":0.2552083333333286},{"name":"G4","midi":67,"time":70.89713541666679,"velocity":0.84251968503937,"duration":0.2552083333333286},{"name":"A#3","midi":58,"time":70.89713541666679,"velocity":0.84251968503937,"duration":0.2552083333333286},{"name":"F4","midi":65,"time":71.15494791666679,"velocity":0.84251968503937,"duration":0.2552083333333286},{"name":"A3","midi":57,"time":71.15494791666679,"velocity":0.84251968503937,"duration":0.2552083333333286},{"name":"F5","midi":77,"time":71.41276041666679,"velocity":0.84251968503937,"duration":0.2552083333333286},{"name":"G3","midi":55,"time":71.41276041666679,"velocity":0.84251968503937,"duration":0.2552083333333286},{"name":"E5","midi":76,"time":71.67057291666679,"velocity":0.84251968503937,"duration":0.2552083333333286},{"name":"A3","midi":57,"time":71.67057291666679,"velocity":0.84251968503937,"duration":0.2552083333333286},{"name":"D5","midi":74,"time":71.92708333333344,"velocity":0.84251968503937,"duration":0.2552083333333286},{"name":"A#2","midi":46,"time":71.92708333333344,"velocity":0.84251968503937,"duration":0.7708333333333286},{"name":"A#5","midi":82,"time":72.18489583333344,"velocity":0.84251968503937,"duration":0.2552083333333286},{"name":"A5","midi":81,"time":72.44270833333344,"velocity":0.84251968503937,"duration":0.2552083333333286},{"name":"G#5","midi":80,"time":72.70052083333344,"velocity":0.84251968503937,"duration":0.2552083333333286},{"name":"A5","midi":81,"time":72.95833333333344,"velocity":0.84251968503937,"duration":0.2552083333333286},{"name":"E5","midi":76,"time":73.2148437500001,"velocity":0.84251968503937,"duration":0.2552083333333286},{"name":"F5","midi":77,"time":73.4726562500001,"velocity":0.84251968503937,"duration":0.2552083333333286},{"name":"C#5","midi":73,"time":73.7304687500001,"velocity":0.84251968503937,"duration":0.2552083333333286},{"name":"D5","midi":74,"time":73.9882812500001,"velocity":0.84251968503937,"duration":0.375},{"name":"G#4","midi":68,"time":74.24479166666677,"velocity":0.84251968503937,"duration":0.2552083333333286},{"name":"B2","midi":47,"time":74.24479166666677,"velocity":0.84251968503937,"duration":0.7708333333333286},{"name":"B4","midi":71,"time":74.50260416666677,"velocity":0.84251968503937,"duration":0.2552083333333286},{"name":"D5","midi":74,"time":74.76041666666677,"velocity":0.84251968503937,"duration":0.2552083333333286},{"name":"F5","midi":77,"time":75.01822916666677,"velocity":0.84251968503937,"duration":0.2552083333333286},{"name":"E5","midi":76,"time":75.27473958333343,"velocity":0.84251968503937,"duration":0.2552083333333286},{"name":"D5","midi":74,"time":75.53255208333343,"velocity":0.84251968503937,"duration":0.2552083333333286},{"name":"C#5","midi":73,"time":75.79036458333343,"velocity":0.84251968503937,"duration":0.2942708333333286},{"name":"D5","midi":74,"time":76.04817708333343,"velocity":0.84251968503937,"duration":0.2552083333333286},{"name":"B4","midi":71,"time":76.30468750000009,"velocity":0.84251968503937,"duration":0.2552083333333286},{"name":"C#5","midi":73,"time":76.56250000000009,"velocity":0.84251968503937,"duration":1.5416666666666572},{"name":"A2","midi":45,"time":76.56250000000009,"velocity":0.84251968503937,"duration":0.5091145833333286},{"name":"A#4","midi":70,"time":76.82031250000009,"velocity":0.84251968503937,"duration":0.2552083333333286},{"name":"A4","midi":69,"time":77.07812500000009,"velocity":0.84251968503937,"duration":0.2552083333333286},{"name":"G#4","midi":68,"time":77.33463541666674,"velocity":0.84251968503937,"duration":0.2552083333333286},{"name":"A4","midi":69,"time":77.59244791666674,"velocity":0.84251968503937,"duration":0.2552083333333286},{"name":"E4","midi":64,"time":77.85026041666674,"velocity":0.84251968503937,"duration":0.2552083333333286},{"name":"F4","midi":65,"time":78.10807291666674,"velocity":0.84251968503937,"duration":0.2552083333333286},{"name":"D5","midi":74,"time":78.10807291666674,"velocity":0.84251968503937,"duration":0.8984374999999858},{"name":"C#4","midi":61,"time":78.3645833333334,"velocity":0.84251968503937,"duration":0.2552083333333286},{"name":"D4","midi":62,"time":78.6223958333334,"velocity":0.84251968503937,"duration":0.2552083333333286},{"name":"G#3","midi":56,"time":78.8802083333334,"velocity":0.84251968503937,"duration":0.2552083333333286},{"name":"F5","midi":77,"time":79.0091145833334,"velocity":0.84251968503937,"duration":0.1263020833333286},{"name":"E5","midi":76,"time":79.1380208333334,"velocity":0.84251968503937,"duration":0.1263020833333286},{"name":"B3","midi":59,"time":79.1380208333334,"velocity":0.84251968503937,"duration":0.2552083333333286},{"name":"D5","midi":74,"time":79.2669270833334,"velocity":0.84251968503937,"duration":0.1263020833333286},{"name":"C5","midi":72,"time":79.3958333333334,"velocity":0.84251968503937,"duration":0.1263020833333286},{"name":"D4","midi":62,"time":79.3958333333334,"velocity":0.84251968503937,"duration":0.2552083333333144},{"name":"B4","midi":71,"time":79.52343750000006,"velocity":0.84251968503937,"duration":0.1263020833333286},{"name":"A5","midi":81,"time":79.65234375000004,"velocity":0.84251968503937,"duration":0.0833333333333286},{"name":"F4","midi":65,"time":79.65234375000004,"velocity":0.84251968503937,"duration":0.2552083333333286},{"name":"G#5","midi":80,"time":79.73828125000004,"velocity":0.84251968503937,"duration":0.0833333333333286},{"name":"F#5","midi":78,"time":79.82421875000004,"velocity":0.84251968503937,"duration":0.0833333333333286},{"name":"G#5","midi":80,"time":79.91015625000004,"velocity":0.84251968503937,"duration":0.0833333333333286},{"name":"E4","midi":64,"time":79.91015625000004,"velocity":0.84251968503937,"duration":0.2552083333333286},{"name":"A5","midi":81,"time":79.99609375000004,"velocity":0.84251968503937,"duration":0.0833333333333286},{"name":"G#5","midi":80,"time":80.08203125000004,"velocity":0.84251968503937,"duration":0.0833333333333286},{"name":"A5","midi":81,"time":80.16796875000004,"velocity":0.84251968503937,"duration":0.0833333333333286},{"name":"D4","midi":62,"time":80.16796875000004,"velocity":0.84251968503937,"duration":0.2552083333333286},{"name":"G#5","midi":80,"time":80.25390625000004,"velocity":0.84251968503937,"duration":0.0833333333333286},{"name":"A5","midi":81,"time":80.33984375000004,"velocity":0.84251968503937,"duration":0.0833333333333286},{"name":"G#5","midi":80,"time":80.42578125000004,"velocity":0.84251968503937,"duration":0.0833333333333286},{"name":"C#4","midi":61,"time":80.42578125000004,"velocity":0.84251968503937,"duration":0.2552083333333144},{"name":"A5","midi":81,"time":80.5104166666667,"velocity":0.84251968503937,"duration":0.0833333333333286},{"name":"G#5","midi":80,"time":80.5963541666667,"velocity":0.84251968503937,"duration":0.0833333333333286},{"name":"A5","midi":81,"time":80.68229166666669,"velocity":0.84251968503937,"duration":0.0833333333333286},{"name":"D4","midi":62,"time":80.68229166666669,"velocity":0.84251968503937,"duration":0.2552083333333286},{"name":"G#5","midi":80,"time":80.76822916666669,"velocity":0.84251968503937,"duration":0.0833333333333286},{"name":"A5","midi":81,"time":80.85416666666669,"velocity":0.84251968503937,"duration":0.0833333333333286},{"name":"G#5","midi":80,"time":80.94010416666669,"velocity":0.84251968503937,"duration":0.0833333333333286},{"name":"B3","midi":59,"time":80.94010416666669,"velocity":0.84251968503937,"duration":0.2552083333333286},{"name":"F#5","midi":78,"time":81.02604166666669,"velocity":0.84251968503937,"duration":0.0833333333333286},{"name":"G#5","midi":80,"time":81.11197916666669,"velocity":0.84251968503937,"duration":0.0833333333333286},{"name":"A5","midi":81,"time":81.19791666666669,"velocity":0.84251968503937,"duration":0.7708333333333286},{"name":"C#4","midi":61,"time":81.19791666666669,"velocity":0.84251968503937,"duration":0.26953125},{"name":"A#3","midi":58,"time":81.47656250000001,"velocity":0.84251968503937,"duration":0.2552083333333286},{"name":"A3","midi":57,"time":81.73437500000001,"velocity":0.84251968503937,"duration":0.2552083333333286},{"name":"G#3","midi":56,"time":81.99218750000001,"velocity":0.84251968503937,"duration":0.2552083333333286},{"name":"A3","midi":57,"time":82.24869791666667,"velocity":0.84251968503937,"duration":0.2552083333333286},{"name":"E3","midi":52,"time":82.50651041666667,"velocity":0.84251968503937,"duration":0.2552083333333286},{"name":"F3","midi":53,"time":82.76432291666667,"velocity":0.84251968503937,"duration":0.2643229166666714},{"name":"C#3","midi":49,"time":83.04296875000001,"velocity":0.84251968503937,"duration":0.2747395833333286},{"name":"D3","midi":50,"time":83.34375000000001,"velocity":0.84251968503937,"duration":0.2942708333333286},{"name":"G#2","midi":44,"time":83.66536458333334,"velocity":0.84251968503937,"duration":1.1966145833333428},{"name":"F4","midi":65,"time":83.78515625000001,"velocity":0.84251968503937,"duration":0.9479166666666714},{"name":"B4","midi":71,"time":83.90364583333334,"velocity":0.84251968503937,"duration":0.4700520833333428},{"name":"D5","midi":74,"time":84.02343750000001,"velocity":0.84251968503937,"duration":0.5078125},{"name":"E5","midi":76,"time":84.52734375000001,"velocity":0.84251968503937,"duration":0.0846354166666714},{"name":"D5","midi":74,"time":84.61328125000001,"velocity":0.84251968503937,"duration":0.08984375},{"name":"C#5","midi":73,"time":84.69921875000001,"velocity":0.84251968503937,"duration":0.0846354166666714},{"name":"D5","midi":74,"time":84.78515625000001,"velocity":0.84251968503937,"duration":0.0846354166666714},{"name":"B4","midi":71,"time":84.87109375000001,"velocity":0.84251968503937,"duration":2.071614583333343},{"name":"E5","midi":76,"time":84.87109375000001,"velocity":0.84251968503937,"duration":0.1627604166666714},{"name":"F3","midi":53,"time":84.87109375000001,"velocity":0.84251968503937,"duration":2.0729166666666714},{"name":"G#2","midi":44,"time":84.87109375000001,"velocity":0.84251968503937,"duration":2.0729166666666714},{"name":"D5","midi":74,"time":85.03645833333336,"velocity":0.84251968503937,"duration":0.0846354166666714},{"name":"E5","midi":76,"time":85.12239583333336,"velocity":0.84251968503937,"duration":0.0846354166666714},{"name":"D5","midi":74,"time":85.20833333333336,"velocity":0.84251968503937,"duration":0.0846354166666714},{"name":"E5","midi":76,"time":85.29427083333336,"velocity":0.84251968503937,"duration":0.0846354166666714},{"name":"D5","midi":74,"time":85.38020833333336,"velocity":0.84251968503937,"duration":0.0846354166666714},{"name":"E5","midi":76,"time":85.46614583333336,"velocity":0.84251968503937,"duration":0.0846354166666714},{"name":"D5","midi":74,"time":85.55208333333336,"velocity":0.84251968503937,"duration":0.0846354166666714},{"name":"E5","midi":76,"time":85.63802083333336,"velocity":0.84251968503937,"duration":0.0846354166666714},{"name":"D5","midi":74,"time":85.72395833333336,"velocity":0.84251968503937,"duration":0.2591145833333286},{"name":"C#5","midi":73,"time":85.98697916666669,"velocity":0.84251968503937,"duration":0.58203125},{"name":"D5","midi":74,"time":86.55468750000001,"velocity":0.84251968503937,"duration":0.3645833333333428},{"name":"A4","midi":69,"time":86.93619791666669,"velocity":0.84251968503937,"duration":0.5221354166666572},{"name":"C#5","midi":73,"time":86.93619791666669,"velocity":0.84251968503937,"duration":0.5221354166666572},{"name":"A2","midi":45,"time":86.93619791666669,"velocity":0.84251968503937,"duration":0.2604166666666714},{"name":"E3","midi":52,"time":86.93619791666669,"velocity":0.84251968503937,"duration":0.12890625},{"name":"A3","midi":57,"time":87.09505208333336,"velocity":0.84251968503937,"duration":0.12890625},{"name":"B3","midi":59,"time":87.23697916666669,"velocity":0.84251968503937,"duration":0.12890625},{"name":"C#4","midi":61,"time":87.37109375000001,"velocity":0.84251968503937,"duration":0.12890625},{"name":"D4","midi":62,"time":87.50260416666669,"velocity":0.84251968503937,"duration":0.12890625},{"name":"E4","midi":64,"time":87.63411458333336,"velocity":0.84251968503937,"duration":0.12890625},{"name":"F4","midi":65,"time":87.76562500000003,"velocity":0.84251968503937,"duration":0.2604166666666714},{"name":"E4","midi":64,"time":88.02864583333337,"velocity":0.84251968503937,"duration":0.2604166666666714},{"name":"D4","midi":62,"time":88.29166666666671,"velocity":0.84251968503937,"duration":0.2604166666666714},{"name":"E4","midi":64,"time":88.55468750000006,"velocity":0.84251968503937,"duration":0.2604166666666714},{"name":"D4","midi":62,"time":88.81640625000006,"velocity":0.84251968503937,"duration":0.2604166666666714},{"name":"C#4","midi":61,"time":89.0794270833334,"velocity":0.84251968503937,"duration":0.2604166666666714},{"name":"D4","midi":62,"time":89.34244791666674,"velocity":0.84251968503937,"duration":1.3111979166666998},{"name":"D3","midi":50,"time":89.47265625000007,"velocity":0.84251968503937,"duration":0.1328125},{"name":"E3","midi":52,"time":89.60807291666674,"velocity":0.84251968503937,"duration":0.1328125},{"name":"F#3","midi":54,"time":89.74348958333341,"velocity":0.84251968503937,"duration":0.1328125},{"name":"G3","midi":55,"time":89.87890625000009,"velocity":0.84251968503937,"duration":0.1328125},{"name":"A3","midi":57,"time":90.01432291666676,"velocity":0.84251968503937,"duration":0.1328125},{"name":"A#3","midi":58,"time":90.14973958333343,"velocity":0.84251968503937,"duration":0.2682291666666714},{"name":"A3","midi":57,"time":90.42057291666677,"velocity":0.84251968503937,"duration":0.2682291666666714},{"name":"G3","midi":55,"time":90.69140625000011,"velocity":0.84251968503937,"duration":0.2682291666666714},{"name":"A#4","midi":70,"time":90.69140625000011,"velocity":0.84251968503937,"duration":0.2682291666666714},{"name":"A3","midi":57,"time":90.96223958333346,"velocity":0.84251968503937,"duration":0.2682291666666714},{"name":"C4","midi":60,"time":90.96223958333346,"velocity":0.84251968503937,"duration":0.5390625},{"name":"G3","midi":55,"time":91.23177083333346,"velocity":0.84251968503937,"duration":0.2682291666666714},{"name":"F#3","midi":54,"time":91.50260416666679,"velocity":0.84251968503937,"duration":0.2682291666666714},{"name":"A4","midi":69,"time":91.50260416666679,"velocity":0.84251968503937,"duration":0.2682291666666714},{"name":"G3","midi":55,"time":91.77343750000013,"velocity":0.84251968503937,"duration":0.9453125},{"name":"A#3","midi":58,"time":91.77343750000013,"velocity":0.84251968503937,"duration":0.1328125},{"name":"D4","midi":62,"time":91.9205729166668,"velocity":0.84251968503937,"duration":0.1354166666666714},{"name":"E4","midi":64,"time":92.0572916666668,"velocity":0.84251968503937,"duration":0.1354166666666714},{"name":"F4","midi":65,"time":92.1940104166668,"velocity":0.84251968503937,"duration":0.1354166666666714},{"name":"E4","midi":64,"time":92.3307291666668,"velocity":0.84251968503937,"duration":0.1354166666666714},{"name":"D4","midi":62,"time":92.4674479166668,"velocity":0.84251968503937,"duration":0.1354166666666714},{"name":"G4","midi":67,"time":92.6041666666668,"velocity":0.84251968503937,"duration":0.9557291666666714},{"name":"E3","midi":52,"time":92.7408854166668,"velocity":0.84251968503937,"duration":0.1354166666666714},{"name":"D3","midi":50,"time":92.8776041666668,"velocity":0.84251968503937,"duration":0.1354166666666714},{"name":"C#3","midi":49,"time":93.0143229166668,"velocity":0.84251968503937,"duration":0.1354166666666714},{"name":"D3","midi":50,"time":93.1510416666668,"velocity":0.84251968503937,"duration":0.1354166666666714},{"name":"E3","midi":52,"time":93.2877604166668,"velocity":0.84251968503937,"duration":0.1354166666666714},{"name":"F3","midi":53,"time":93.4244791666668,"velocity":0.84251968503937,"duration":2.1861979166666714},{"name":"A3","midi":57,"time":93.5611979166668,"velocity":0.84251968503937,"duration":0.1354166666666714},{"name":"B3","midi":59,"time":93.6979166666668,"velocity":0.84251968503937,"duration":0.1354166666666714},{"name":"C#4","midi":61,"time":93.8346354166668,"velocity":0.84251968503937,"duration":0.1354166666666714},{"name":"B3","midi":59,"time":93.9713541666668,"velocity":0.84251968503937,"duration":0.1354166666666714},{"name":"A3","midi":57,"time":94.1080729166668,"velocity":0.84251968503937,"duration":0.1354166666666714},{"name":"D4","midi":62,"time":94.2447916666668,"velocity":0.84251968503937,"duration":1.0924479166666714},{"name":"A4","midi":69,"time":94.3815104166668,"velocity":0.84251968503937,"duration":0.1354166666666714},{"name":"B4","midi":71,"time":94.5182291666668,"velocity":0.84251968503937,"duration":0.1354166666666714},{"name":"C#5","midi":73,"time":94.6549479166668,"velocity":0.84251968503937,"duration":0.1354166666666714},{"name":"D5","midi":74,"time":94.7916666666668,"velocity":0.84251968503937,"duration":0.1354166666666714},{"name":"E5","midi":76,"time":94.9283854166668,"velocity":0.84251968503937,"duration":0.1354166666666714},{"name":"F5","midi":77,"time":95.0651041666668,"velocity":0.84251968503937,"duration":0.2721354166666714},{"name":"E4","midi":64,"time":95.3385416666668,"velocity":0.84251968503937,"duration":0.2721354166666714},{"name":"E5","midi":76,"time":95.3385416666668,"velocity":0.84251968503937,"duration":0.2721354166666714},{"name":"D5","midi":74,"time":95.6119791666668,"velocity":0.84251968503937,"duration":0.2721354166666714},{"name":"F4","midi":65,"time":95.6119791666668,"velocity":0.84251968503937,"duration":0.2721354166666714},{"name":"A#3","midi":58,"time":95.6119791666668,"velocity":0.84251968503937,"duration":0.2721354166666714},{"name":"E5","midi":76,"time":95.8854166666668,"velocity":0.84251968503937,"duration":0.2721354166666714},{"name":"G4","midi":67,"time":95.8854166666668,"velocity":0.84251968503937,"duration":0.2721354166666714},{"name":"G3","midi":55,"time":95.8854166666668,"velocity":0.84251968503937,"duration":0.5455729166666714},{"name":"D5","midi":74,"time":96.1588541666668,"velocity":0.84251968503937,"duration":0.2721354166666714},{"name":"F4","midi":65,"time":96.1588541666668,"velocity":0.84251968503937,"duration":0.2721354166666714},{"name":"C#5","midi":73,"time":96.4322916666668,"velocity":0.84251968503937,"duration":0.2721354166666714},{"name":"E4","midi":64,"time":96.4322916666668,"velocity":0.84251968503937,"duration":0.2721354166666714},{"name":"A3","midi":57,"time":96.4322916666668,"velocity":0.84251968503937,"duration":0.2721354166666714},{"name":"D5","midi":74,"time":96.7057291666668,"velocity":0.84251968503937,"duration":0.1354166666666714},{"name":"D4","midi":62,"time":96.7057291666668,"velocity":0.84251968503937,"duration":0.8190104166666714},{"name":"A#3","midi":58,"time":96.7057291666668,"velocity":0.84251968503937,"duration":1.6380208333333286},{"name":"C5","midi":72,"time":96.8424479166668,"velocity":0.84251968503937,"duration":0.1354166666666714},{"name":"A#4","midi":70,"time":96.9791666666668,"velocity":0.84251968503937,"duration":0.1354166666666714},{"name":"A4","midi":69,"time":97.1158854166668,"velocity":0.84251968503937,"duration":0.1354166666666714},{"name":"G4","midi":67,"time":97.2526041666668,"velocity":0.84251968503937,"duration":0.1354166666666714},{"name":"F4","midi":65,"time":97.3893229166668,"velocity":0.84251968503937,"duration":0.1354166666666714},{"name":"E4","midi":64,"time":97.5260416666668,"velocity":0.84251968503937,"duration":0.1354166666666714},{"name":"C4","midi":60,"time":97.5260416666668,"velocity":0.84251968503937,"duration":1.6380208333333144},{"name":"G4","midi":67,"time":97.6627604166668,"velocity":0.84251968503937,"duration":0.1354166666666714},{"name":"A4","midi":69,"time":97.7994791666668,"velocity":0.84251968503937,"duration":0.1354166666666714},{"name":"A#4","midi":70,"time":97.9361979166668,"velocity":0.84251968503937,"duration":0.1354166666666714},{"name":"A4","midi":69,"time":98.0729166666668,"velocity":0.84251968503937,"duration":0.1354166666666714},{"name":"G4","midi":67,"time":98.2096354166668,"velocity":0.84251968503937,"duration":0.1354166666666572},{"name":"C5","midi":72,"time":98.34635416666679,"velocity":0.84251968503937,"duration":0.1354166666666714},{"name":"A3","midi":57,"time":98.34635416666679,"velocity":0.84251968503937,"duration":1.6380208333333144},{"name":"A#4","midi":70,"time":98.48307291666679,"velocity":0.84251968503937,"duration":0.1354166666666714},{"name":"A4","midi":69,"time":98.61979166666679,"velocity":0.84251968503937,"duration":0.1354166666666714},{"name":"G4","midi":67,"time":98.75651041666679,"velocity":0.84251968503937,"duration":0.1354166666666714},{"name":"F4","midi":65,"time":98.89322916666679,"velocity":0.84251968503937,"duration":0.1354166666666714},{"name":"E4","midi":64,"time":99.02994791666679,"velocity":0.84251968503937,"duration":0.1354166666666572},{"name":"D4","midi":62,"time":99.16666666666677,"velocity":0.84251968503937,"duration":0.1354166666666714},{"name":"A#3","midi":58,"time":99.16666666666677,"velocity":0.84251968503937,"duration":1.7656249999999858},{"name":"F4","midi":65,"time":99.30338541666677,"velocity":0.84251968503937,"duration":0.1354166666666714},{"name":"G4","midi":67,"time":99.44010416666677,"velocity":0.84251968503937,"duration":0.1354166666666714},{"name":"A4","midi":69,"time":99.57682291666677,"velocity":0.84251968503937,"duration":0.1354166666666714},{"name":"G4","midi":67,"time":99.71354166666677,"velocity":0.84251968503937,"duration":0.1354166666666714},{"name":"F4","midi":65,"time":99.85026041666677,"velocity":0.84251968503937,"duration":0.1354166666666572},{"name":"A#4","midi":70,"time":99.98697916666676,"velocity":0.84251968503937,"duration":0.1354166666666714},{"name":"G3","midi":55,"time":99.98697916666676,"velocity":0.84251968503937,"duration":0.5455729166666714},{"name":"A4","midi":69,"time":100.12369791666676,"velocity":0.84251968503937,"duration":0.1354166666666714},{"name":"G4","midi":67,"time":100.26041666666676,"velocity":0.84251968503937,"duration":0.1354166666666714},{"name":"F4","midi":65,"time":100.39713541666676,"velocity":0.84251968503937,"duration":0.1354166666666714},{"name":"E4","midi":64,"time":100.53385416666676,"velocity":0.84251968503937,"duration":0.1354166666666714},{"name":"F3","midi":53,"time":100.53385416666676,"velocity":0.84251968503937,"duration":0.2721354166666714},{"name":"D4","midi":62,"time":100.67057291666676,"velocity":0.84251968503937,"duration":0.1354166666666714},{"name":"C4","midi":60,"time":100.80729166666676,"velocity":0.84251968503937,"duration":0.9557291666666714},{"name":"E3","midi":52,"time":100.80729166666676,"velocity":0.84251968503937,"duration":0.8190104166666714},{"name":"A#3","midi":58,"time":100.94401041666676,"velocity":0.84251968503937,"duration":0.1354166666666714},{"name":"A3","midi":57,"time":101.08072916666676,"velocity":0.84251968503937,"duration":0.1354166666666714},{"name":"G3","midi":55,"time":101.21744791666676,"velocity":0.84251968503937,"duration":0.1354166666666714},{"name":"F3","midi":53,"time":101.35416666666676,"velocity":0.84251968503937,"duration":0.1354166666666714},{"name":"G3","midi":55,"time":101.49088541666676,"velocity":0.84251968503937,"duration":0.1354166666666714},{"name":"A3","midi":57,"time":101.62760416666676,"velocity":0.84251968503937,"duration":3.2760416666666714},{"name":"F3","midi":53,"time":101.62760416666676,"velocity":0.84251968503937,"duration":0.8190104166666714},{"name":"E4","midi":64,"time":101.76432291666676,"velocity":0.84251968503937,"duration":0.1354166666666714},{"name":"F4","midi":65,"time":101.90104166666676,"velocity":0.84251968503937,"duration":0.1354166666666714},{"name":"A4","midi":69,"time":102.03776041666676,"velocity":0.84251968503937,"duration":0.1354166666666714},{"name":"E4","midi":64,"time":102.17447916666676,"velocity":0.84251968503937,"duration":0.1354166666666714},{"name":"F4","midi":65,"time":102.31119791666676,"velocity":0.84251968503937,"duration":0.1354166666666714},{"name":"C4","midi":60,"time":102.44791666666676,"velocity":0.84251968503937,"duration":0.1354166666666714},{"name":"E3","midi":52,"time":102.44791666666676,"velocity":0.84251968503937,"duration":0.8190104166666714},{"name":"E4","midi":64,"time":102.58463541666676,"velocity":0.84251968503937,"duration":0.1354166666666714},{"name":"F4","midi":65,"time":102.72135416666676,"velocity":0.84251968503937,"duration":0.1354166666666714},{"name":"A4","midi":69,"time":102.85807291666676,"velocity":0.84251968503937,"duration":0.1354166666666714},{"name":"E4","midi":64,"time":102.99479166666676,"velocity":0.84251968503937,"duration":0.1354166666666714},{"name":"F4","midi":65,"time":103.13151041666676,"velocity":0.84251968503937,"duration":0.1354166666666714},{"name":"C4","midi":60,"time":103.26822916666676,"velocity":0.84251968503937,"duration":0.1354166666666714},{"name":"D3","midi":50,"time":103.26822916666676,"velocity":0.84251968503937,"duration":0.8190104166666714},{"name":"E4","midi":64,"time":103.40494791666676,"velocity":0.84251968503937,"duration":0.1354166666666714},{"name":"F4","midi":65,"time":103.54166666666676,"velocity":0.84251968503937,"duration":0.1354166666666714},{"name":"A4","midi":69,"time":103.67838541666676,"velocity":0.84251968503937,"duration":0.1354166666666714},{"name":"E4","midi":64,"time":103.81510416666676,"velocity":0.84251968503937,"duration":0.1354166666666714},{"name":"F4","midi":65,"time":103.95182291666676,"velocity":0.84251968503937,"duration":0.1354166666666714},{"name":"C4","midi":60,"time":104.08854166666676,"velocity":0.84251968503937,"duration":0.1354166666666714},{"name":"C3","midi":48,"time":104.08854166666676,"velocity":0.84251968503937,"duration":0.8190104166666714},{"name":"E4","midi":64,"time":104.22526041666676,"velocity":0.84251968503937,"duration":0.1354166666666714},{"name":"F4","midi":65,"time":104.36197916666676,"velocity":0.84251968503937,"duration":0.1354166666666714},{"name":"A4","midi":69,"time":104.49869791666676,"velocity":0.84251968503937,"duration":0.1354166666666714},{"name":"E4","midi":64,"time":104.63541666666676,"velocity":0.84251968503937,"duration":0.1354166666666714},{"name":"F4","midi":65,"time":104.77213541666676,"velocity":0.84251968503937,"duration":0.1354166666666714},{"name":"C4","midi":60,"time":104.90885416666676,"velocity":0.84251968503937,"duration":0.1354166666666714},{"name":"G3","midi":55,"time":104.90885416666676,"velocity":0.84251968503937,"duration":0.8190104166666714},{"name":"A#2","midi":46,"time":104.90885416666676,"velocity":0.84251968503937,"duration":0.8190104166666714},{"name":"E4","midi":64,"time":105.04557291666676,"velocity":0.84251968503937,"duration":0.1354166666666714},{"name":"F4","midi":65,"time":105.18229166666676,"velocity":0.84251968503937,"duration":0.1354166666666714},{"name":"A4","midi":69,"time":105.31901041666676,"velocity":0.84251968503937,"duration":0.1354166666666714},{"name":"E4","midi":64,"time":105.45572916666676,"velocity":0.84251968503937,"duration":0.1354166666666714},{"name":"F4","midi":65,"time":105.59244791666676,"velocity":0.84251968503937,"duration":0.1354166666666714},{"name":"C4","midi":60,"time":105.72916666666676,"velocity":0.84251968503937,"duration":0.1354166666666714},{"name":"F3","midi":53,"time":105.72916666666676,"velocity":0.84251968503937,"duration":0.9544270833333286},{"name":"A2","midi":45,"time":105.72916666666676,"velocity":0.84251968503937,"duration":0.8190104166666714},{"name":"E4","midi":64,"time":105.86588541666676,"velocity":0.84251968503937,"duration":0.1354166666666714},{"name":"F4","midi":65,"time":106.00260416666676,"velocity":0.84251968503937,"duration":0.1354166666666714},{"name":"A4","midi":69,"time":106.13932291666676,"velocity":0.84251968503937,"duration":0.1354166666666714},{"name":"E4","midi":64,"time":106.27604166666676,"velocity":0.84251968503937,"duration":0.1354166666666714},{"name":"F4","midi":65,"time":106.41276041666676,"velocity":0.84251968503937,"duration":0.1354166666666714},{"name":"D4","midi":62,"time":106.54947916666676,"velocity":0.84251968503937,"duration":0.2721354166666714},{"name":"A#2","midi":46,"time":106.54947916666676,"velocity":0.84251968503937,"duration":0.5416666666666714},{"name":"F3","midi":53,"time":106.68619791666676,"velocity":0.84251968503937,"duration":0.1354166666666714},{"name":"E4","midi":64,"time":106.82291666666676,"velocity":0.84251968503937,"duration":0.1354166666666714},{"name":"G3","midi":55,"time":106.82291666666676,"velocity":0.84251968503937,"duration":0.1354166666666714},{"name":"F4","midi":65,"time":106.95963541666676,"velocity":0.84251968503937,"duration":0.1354166666666714},{"name":"A3","midi":57,"time":106.95963541666676,"velocity":0.84251968503937,"duration":0.1354166666666714},{"name":"G4","midi":67,"time":107.09635416666676,"velocity":0.84251968503937,"duration":0.1354166666666714},{"name":"A#3","midi":58,"time":107.09635416666676,"velocity":0.84251968503937,"duration":0.1354166666666714},{"name":"A4","midi":69,"time":107.23307291666676,"velocity":0.84251968503937,"duration":0.1354166666666714},{"name":"C4","midi":60,"time":107.23307291666676,"velocity":0.84251968503937,"duration":0.1354166666666714},{"name":"A#4","midi":70,"time":107.36979166666676,"velocity":0.84251968503937,"duration":0.2721354166666714},{"name":"D4","midi":62,"time":107.36979166666676,"velocity":0.84251968503937,"duration":0.2721354166666714},{"name":"A4","midi":69,"time":107.64322916666676,"velocity":0.84251968503937,"duration":0.2721354166666714},{"name":"C4","midi":60,"time":107.64322916666676,"velocity":0.84251968503937,"duration":0.2721354166666714},{"name":"G4","midi":67,"time":107.91666666666676,"velocity":0.84251968503937,"duration":0.2721354166666714},{"name":"A#3","midi":58,"time":107.91666666666676,"velocity":0.84251968503937,"duration":0.2721354166666714},{"name":"A4","midi":69,"time":108.19010416666676,"velocity":0.84251968503937,"duration":0.2721354166666714},{"name":"C4","midi":60,"time":108.19010416666676,"velocity":0.84251968503937,"duration":0.2721354166666714},{"name":"G4","midi":67,"time":108.46354166666676,"velocity":0.84251968503937,"duration":0.2721354166666714},{"name":"A#3","midi":58,"time":108.46354166666676,"velocity":0.84251968503937,"duration":0.2721354166666714},{"name":"F4","midi":65,"time":108.73697916666676,"velocity":0.84251968503937,"duration":0.2721354166666714},{"name":"A3","midi":57,"time":108.73697916666676,"velocity":0.84251968503937,"duration":0.2721354166666714},{"name":"C5","midi":72,"time":109.01041666666676,"velocity":0.84251968503937,"duration":0.5455729166666714},{"name":"E4","midi":64,"time":109.01041666666676,"velocity":0.84251968503937,"duration":0.5455729166666714},{"name":"G3","midi":55,"time":109.01041666666676,"velocity":0.84251968503937,"duration":0.5416666666666714},{"name":"A#2","midi":46,"time":109.14713541666676,"velocity":0.84251968503937,"duration":0.1354166666666714},{"name":"C3","midi":48,"time":109.28385416666676,"velocity":0.84251968503937,"duration":0.1354166666666714},{"name":"D3","midi":50,"time":109.42057291666676,"velocity":0.84251968503937,"duration":0.1354166666666714},{"name":"E4","midi":64,"time":109.55729166666676,"velocity":0.84251968503937,"duration":0.2721354166666572},{"name":"C4","midi":60,"time":109.55729166666676,"velocity":0.84251968503937,"duration":0.2721354166666572},{"name":"G3","midi":55,"time":109.55729166666676,"velocity":0.84251968503937,"duration":0.2708333333333286},{"name":"C3","midi":48,"time":109.55729166666676,"velocity":0.84251968503937,"duration":0.1354166666666714},{"name":"A#2","midi":46,"time":109.69401041666676,"velocity":0.84251968503937,"duration":0.1354166666666572},{"name":"C4","midi":60,"time":109.83072916666674,"velocity":0.84251968503937,"duration":0.5455729166666714},{"name":"F4","midi":65,"time":109.83072916666674,"velocity":0.84251968503937,"duration":0.5455729166666714},{"name":"F3","midi":53,"time":109.83072916666674,"velocity":0.84251968503937,"duration":1.0924479166666572},{"name":"A2","midi":45,"time":109.83072916666674,"velocity":0.84251968503937,"duration":0.2721354166666714},{"name":"C3","midi":48,"time":110.10416666666674,"velocity":0.84251968503937,"duration":0.2721354166666714},{"name":"G4","midi":67,"time":110.37760416666674,"velocity":0.84251968503937,"duration":0.2721354166666714},{"name":"D4","midi":62,"time":110.37760416666674,"velocity":0.84251968503937,"duration":0.2721354166666714},{"name":"A#2","midi":46,"time":110.37760416666674,"velocity":0.84251968503937,"duration":0.2721354166666714},{"name":"C4","midi":60,"time":110.65104166666674,"velocity":0.84251968503937,"duration":0.8190104166666288},{"name":"A4","midi":69,"time":110.65104166666674,"velocity":0.84251968503937,"duration":0.08984375},{"name":"C3","midi":48,"time":110.65104166666674,"velocity":0.84251968503937,"duration":0.8190104166666288},{"name":"G4","midi":67,"time":110.74218750000007,"velocity":0.84251968503937,"duration":0.08984375},{"name":"A4","midi":69,"time":110.8333333333334,"velocity":0.84251968503937,"duration":0.08984375},{"name":"G4","midi":67,"time":110.92447916666673,"velocity":0.84251968503937,"duration":0.08984375},{"name":"F3","midi":53,"time":110.92447916666673,"velocity":0.84251968503937,"duration":0.2721354166666572},{"name":"A4","midi":69,"time":111.01562500000006,"velocity":0.84251968503937,"duration":0.08984375},{"name":"G4","midi":67,"time":111.10677083333339,"velocity":0.84251968503937,"duration":0.08984375},{"name":"F4","midi":65,"time":111.19791666666671,"velocity":0.84251968503937,"duration":0.08984375},{"name":"E3","midi":52,"time":111.19791666666671,"velocity":0.84251968503937,"duration":0.2721354166666572},{"name":"G4","midi":67,"time":111.28906250000004,"velocity":0.84251968503937,"duration":0.08984375},{"name":"A4","midi":69,"time":111.38020833333337,"velocity":0.84251968503937,"duration":0.08984375},{"name":"A3","midi":57,"time":111.4713541666667,"velocity":0.84251968503937,"duration":0.5416666666666572},{"name":"C4","midi":60,"time":111.4713541666667,"velocity":0.84251968503937,"duration":0.5416666666666572},{"name":"F4","midi":65,"time":111.4713541666667,"velocity":0.84251968503937,"duration":0.9557291666666572},{"name":"F3","midi":53,"time":111.4713541666667,"velocity":0.84251968503937,"duration":0.1354166666666714},{"name":"F2","midi":41,"time":111.4713541666667,"velocity":0.84251968503937,"duration":0.2708333333333286},{"name":"C3","midi":48,"time":111.6080729166667,"velocity":0.84251968503937,"duration":0.1354166666666572},{"name":"D3","midi":50,"time":111.74479166666669,"velocity":0.84251968503937,"duration":0.1354166666666714},{"name":"E3","midi":52,"time":111.88151041666669,"velocity":0.84251968503937,"duration":0.1354166666666714},{"name":"F3","midi":53,"time":112.01822916666669,"velocity":0.84251968503937,"duration":0.1354166666666714},{"name":"G3","midi":55,"time":112.15494791666669,"velocity":0.84251968503937,"duration":0.1354166666666714},{"name":"A3","midi":57,"time":112.29166666666669,"velocity":0.84251968503937,"duration":0.2721354166666714},{"name":"D4","midi":62,"time":112.42838541666669,"velocity":0.84251968503937,"duration":0.1354166666666714},{"name":"E4","midi":64,"time":112.56510416666669,"velocity":0.84251968503937,"duration":0.1354166666666714},{"name":"G3","midi":55,"time":112.56510416666669,"velocity":0.84251968503937,"duration":0.2721354166666714},{"name":"F4","midi":65,"time":112.70182291666669,"velocity":0.84251968503937,"duration":0.1354166666666714},{"name":"G4","midi":67,"time":112.83854166666669,"velocity":0.84251968503937,"duration":0.1354166666666714},{"name":"F3","midi":53,"time":112.83854166666669,"velocity":0.84251968503937,"duration":0.2721354166666714},{"name":"A4","midi":69,"time":112.97526041666669,"velocity":0.84251968503937,"duration":0.1354166666666714},{"name":"A#3","midi":58,"time":113.11197916666669,"velocity":0.84251968503937,"duration":0.1354166666666714},{"name":"G3","midi":55,"time":113.11197916666669,"velocity":0.84251968503937,"duration":0.2721354166666714},{"name":"C4","midi":60,"time":113.24869791666669,"velocity":0.84251968503937,"duration":0.1354166666666714},{"name":"D4","midi":62,"time":113.38541666666669,"velocity":0.84251968503937,"duration":0.1354166666666714},{"name":"F3","midi":53,"time":113.38541666666669,"velocity":0.84251968503937,"duration":0.2721354166666714},{"name":"E4","midi":64,"time":113.52213541666669,"velocity":0.84251968503937,"duration":0.1354166666666714},{"name":"F4","midi":65,"time":113.65885416666669,"velocity":0.84251968503937,"duration":0.1354166666666714},{"name":"E3","midi":52,"time":113.65885416666669,"velocity":0.84251968503937,"duration":0.2721354166666714},{"name":"G4","midi":67,"time":113.79557291666669,"velocity":0.84251968503937,"duration":0.2721354166666714},{"name":"A3","midi":57,"time":113.93229166666669,"velocity":0.84251968503937,"duration":1.2395833333333286},{"name":"F3","midi":53,"time":113.93229166666669,"velocity":0.84251968503937,"duration":0.9557291666666714},{"name":"F5","midi":77,"time":114.06901041666669,"velocity":0.84251968503937,"duration":0.1354166666666714},{"name":"E5","midi":76,"time":114.20572916666669,"velocity":0.84251968503937,"duration":0.1354166666666714},{"name":"D5","midi":74,"time":114.34244791666669,"velocity":0.84251968503937,"duration":0.1354166666666714},{"name":"C5","midi":72,"time":114.47916666666669,"velocity":0.84251968503937,"duration":0.1354166666666714},{"name":"A#4","midi":70,"time":114.61588541666669,"velocity":0.84251968503937,"duration":0.1354166666666714},{"name":"A4","midi":69,"time":114.75260416666669,"velocity":0.84251968503937,"duration":0.2721354166666714},{"name":"E3","midi":52,"time":114.88932291666669,"velocity":0.84251968503937,"duration":0.1354166666666714},{"name":"B4","midi":71,"time":115.02604166666669,"velocity":0.84251968503937,"duration":0.2721354166666572},{"name":"F3","midi":53,"time":115.02604166666669,"velocity":0.84251968503937,"duration":0.2708333333333286},{"name":"G3","midi":55,"time":115.16276041666669,"velocity":0.84251968503937,"duration":0.1354166666666572},{"name":"C5","midi":72,"time":115.29947916666667,"velocity":0.84251968503937,"duration":0.2721354166666714},{"name":"F3","midi":53,"time":115.29947916666667,"velocity":0.84251968503937,"duration":0.5403645833333286},{"name":"E3","midi":52,"time":115.43619791666667,"velocity":0.84251968503937,"duration":0.1354166666666714},{"name":"B4","midi":71,"time":115.57291666666667,"velocity":0.84251968503937,"duration":0.2708333333333286},{"name":"D3","midi":50,"time":115.57291666666667,"velocity":0.84251968503937,"duration":0.2708333333333286},{"name":"C5","midi":72,"time":115.84505208333333,"velocity":0.84251968503937,"duration":0.2721354166666714},{"name":"G3","midi":55,"time":115.84505208333333,"velocity":0.84251968503937,"duration":0.2721354166666714},{"name":"E3","midi":52,"time":115.84505208333333,"velocity":0.84251968503937,"duration":0.2721354166666714},{"name":"D5","midi":74,"time":116.11848958333333,"velocity":0.84251968503937,"duration":0.2721354166666714},{"name":"A3","midi":57,"time":116.11848958333333,"velocity":0.84251968503937,"duration":0.2721354166666714},{"name":"F3","midi":53,"time":116.11848958333333,"velocity":0.84251968503937,"duration":0.2721354166666714},{"name":"C5","midi":72,"time":116.39192708333333,"velocity":0.84251968503937,"duration":4.636718749999886},{"name":"G3","midi":55,"time":116.39192708333333,"velocity":0.84251968503937,"duration":0.8190104166666714},{"name":"E3","midi":52,"time":116.39192708333333,"velocity":0.84251968503937,"duration":0.9557291666666714},{"name":"A4","midi":69,"time":116.52864583333333,"velocity":0.84251968503937,"duration":0.1354166666666714},{"name":"G4","midi":67,"time":116.66536458333333,"velocity":0.84251968503937,"duration":0.1354166666666714},{"name":"F4","midi":65,"time":116.80208333333333,"velocity":0.84251968503937,"duration":0.1354166666666714},{"name":"E4","midi":64,"time":116.93880208333333,"velocity":0.84251968503937,"duration":0.1354166666666714},{"name":"D4","midi":62,"time":117.07552083333333,"velocity":0.84251968503937,"duration":0.1354166666666714},{"name":"C4","midi":60,"time":117.21223958333333,"velocity":0.84251968503937,"duration":0.2721354166666714},{"name":"G3","midi":55,"time":117.34895833333333,"velocity":0.84251968503937,"duration":0.19921875},{"name":"D4","midi":62,"time":117.48567708333333,"velocity":0.84251968503937,"duration":0.2721354166666572},{"name":"F3","midi":53,"time":117.48567708333333,"velocity":0.84251968503937,"duration":0.2708333333333286},{"name":"A3","midi":57,"time":117.62239583333333,"velocity":0.84251968503937,"duration":0.1992187499999858},{"name":"E4","midi":64,"time":117.75911458333331,"velocity":0.84251968503937,"duration":0.2721354166666572},{"name":"G3","midi":55,"time":117.75911458333331,"velocity":0.84251968503937,"duration":0.2708333333333286},{"name":"A#3","midi":58,"time":117.89583333333331,"velocity":0.84251968503937,"duration":0.1354166666666572},{"name":"D4","midi":62,"time":118.0325520833333,"velocity":0.84251968503937,"duration":0.2721354166666572},{"name":"F3","midi":53,"time":118.0325520833333,"velocity":0.84251968503937,"duration":0.2708333333333286},{"name":"A3","midi":57,"time":118.1692708333333,"velocity":0.84251968503937,"duration":0.1992187499999858},{"name":"E4","midi":64,"time":118.30598958333329,"velocity":0.84251968503937,"duration":0.2721354166666572},{"name":"G3","midi":55,"time":118.30598958333329,"velocity":0.84251968503937,"duration":0.2708333333333286},{"name":"A#3","midi":58,"time":118.44270833333329,"velocity":0.84251968503937,"duration":0.1992187499999858},{"name":"F4","midi":65,"time":118.57942708333327,"velocity":0.84251968503937,"duration":0.2721354166666572},{"name":"A3","midi":57,"time":118.57942708333327,"velocity":0.84251968503937,"duration":0.2708333333333286},{"name":"C4","midi":60,"time":118.71614583333327,"velocity":0.84251968503937,"duration":0.1354166666666572},{"name":"E4","midi":64,"time":118.85286458333326,"velocity":0.84251968503937,"duration":0.2721354166666572},{"name":"G3","midi":55,"time":118.85286458333326,"velocity":0.84251968503937,"duration":0.2708333333333286},{"name":"A#3","midi":58,"time":118.98958333333326,"velocity":0.84251968503937,"duration":0.1992187499999858},{"name":"F4","midi":65,"time":119.12630208333324,"velocity":0.84251968503937,"duration":0.2721354166666572},{"name":"A3","midi":57,"time":119.12630208333324,"velocity":0.84251968503937,"duration":0.2708333333333286},{"name":"C4","midi":60,"time":119.26302083333324,"velocity":0.84251968503937,"duration":0.1992187499999858},{"name":"G4","midi":67,"time":119.39973958333323,"velocity":0.84251968503937,"duration":0.2721354166666572},{"name":"A#3","midi":58,"time":119.39973958333323,"velocity":0.84251968503937,"duration":0.2708333333333286},{"name":"D4","midi":62,"time":119.53645833333323,"velocity":0.84251968503937,"duration":0.1354166666666572},{"name":"G4","midi":67,"time":119.67317708333321,"velocity":0.84251968503937,"duration":0.2721354166666714},{"name":"C4","midi":60,"time":119.67317708333321,"velocity":0.84251968503937,"duration":0.5455729166666714},{"name":"A3","midi":57,"time":119.67317708333321,"velocity":0.84251968503937,"duration":0.5455729166666714},{"name":"F4","midi":65,"time":119.94661458333321,"velocity":0.84251968503937,"duration":0.2721354166666714},{"name":"D#4","midi":63,"time":120.22005208333321,"velocity":0.84251968503937,"duration":0.2721354166666714},{"name":"A#3","midi":58,"time":120.22005208333321,"velocity":0.84251968503937,"duration":0.2721354166666714},{"name":"G3","midi":55,"time":120.22005208333321,"velocity":0.84251968503937,"duration":0.2721354166666714},{"name":"D#4","midi":63,"time":120.49348958333321,"velocity":0.84251968503937,"duration":0.2721354166666714},{"name":"F#3","midi":54,"time":120.49348958333321,"velocity":0.84251968503937,"duration":0.8190104166666714},{"name":"A3","midi":57,"time":120.49348958333321,"velocity":0.84251968503937,"duration":0.8190104166666714},{"name":"D4","midi":62,"time":120.76692708333321,"velocity":0.84251968503937,"duration":1.3671875},{"name":"C5","midi":72,"time":121.04036458333321,"velocity":0.84251968503937,"duration":0.2721354166666714},{"name":"B4","midi":71,"time":121.31380208333321,"velocity":0.84251968503937,"duration":0.1354166666666714},{"name":"G3","midi":55,"time":121.31380208333321,"velocity":0.84251968503937,"duration":0.9557291666666714},{"name":"A4","midi":69,"time":121.45052083333321,"velocity":0.84251968503937,"duration":0.1354166666666714},{"name":"B4","midi":71,"time":121.58723958333321,"velocity":0.84251968503937,"duration":0.1354166666666714},{"name":"C5","midi":72,"time":121.72395833333321,"velocity":0.84251968503937,"duration":0.1354166666666714},{"name":"D5","midi":74,"time":121.86067708333321,"velocity":0.84251968503937,"duration":0.1354166666666714},{"name":"E5","midi":76,"time":121.99739583333321,"velocity":0.84251968503937,"duration":0.1354166666666714},{"name":"F5","midi":77,"time":122.13411458333321,"velocity":0.84251968503937,"duration":0.2721354166666714},{"name":"B3","midi":59,"time":122.27083333333321,"velocity":0.84251968503937,"duration":0.1354166666666714},{"name":"E5","midi":76,"time":122.40755208333321,"velocity":0.84251968503937,"duration":0.2721354166666714},{"name":"C4","midi":60,"time":122.40755208333321,"velocity":0.84251968503937,"duration":0.1354166666666714},{"name":"D4","midi":62,"time":122.54427083333321,"velocity":0.84251968503937,"duration":0.1354166666666714},{"name":"D5","midi":74,"time":122.68098958333321,"velocity":0.84251968503937,"duration":0.2721354166666714},{"name":"E4","midi":64,"time":122.68098958333321,"velocity":0.84251968503937,"duration":0.1354166666666714},{"name":"F4","midi":65,"time":122.81770833333321,"velocity":0.84251968503937,"duration":0.1354166666666714},{"name":"E5","midi":76,"time":122.95442708333321,"velocity":0.84251968503937,"duration":0.1354166666666714},{"name":"G4","midi":67,"time":122.95442708333321,"velocity":0.84251968503937,"duration":0.2721354166666714},{"name":"C5","midi":72,"time":123.09114583333321,"velocity":0.84251968503937,"duration":0.1354166666666714},{"name":"D5","midi":74,"time":123.22786458333321,"velocity":0.84251968503937,"duration":0.1354166666666714},{"name":"F4","midi":65,"time":123.22786458333321,"velocity":0.84251968503937,"duration":0.2721354166666714},{"name":"E5","midi":76,"time":123.36458333333321,"velocity":0.84251968503937,"duration":0.1354166666666714},{"name":"F5","midi":77,"time":123.50130208333321,"velocity":0.84251968503937,"duration":0.1354166666666714},{"name":"E4","midi":64,"time":123.50130208333321,"velocity":0.84251968503937,"duration":0.2721354166666714},{"name":"G5","midi":79,"time":123.63802083333321,"velocity":0.84251968503937,"duration":0.1354166666666714},{"name":"A5","midi":81,"time":123.77473958333321,"velocity":0.84251968503937,"duration":0.1354166666666714},{"name":"F4","midi":65,"time":123.77473958333321,"velocity":0.84251968503937,"duration":0.5416666666666714},{"name":"F5","midi":77,"time":123.91145833333321,"velocity":0.84251968503937,"duration":0.1354166666666714},{"name":"E5","midi":76,"time":124.04817708333321,"velocity":0.84251968503937,"duration":0.1354166666666714},{"name":"G3","midi":55,"time":124.04817708333321,"velocity":0.84251968503937,"duration":0.5416666666666714},{"name":"D5","midi":74,"time":124.18489583333321,"velocity":0.84251968503937,"duration":0.1354166666666714},{"name":"E5","midi":76,"time":124.32161458333321,"velocity":0.84251968503937,"duration":0.1354166666666714},{"name":"F4","midi":65,"time":124.32161458333321,"velocity":0.84251968503937,"duration":0.2721354166666714},{"name":"F5","midi":77,"time":124.45833333333321,"velocity":0.84251968503937,"duration":0.1354166666666714},{"name":"G5","midi":79,"time":124.59505208333321,"velocity":0.84251968503937,"duration":0.1354166666666714},{"name":"E4","midi":64,"time":124.59505208333321,"velocity":0.84251968503937,"duration":0.5416666666666714},{"name":"E5","midi":76,"time":124.73177083333321,"velocity":0.84251968503937,"duration":0.1354166666666714},{"name":"D5","midi":74,"time":124.86848958333321,"velocity":0.84251968503937,"duration":0.1354166666666714},{"name":"G3","midi":55,"time":124.86848958333321,"velocity":0.84251968503937,"duration":0.5416666666666714},{"name":"C5","midi":72,"time":125.00520833333321,"velocity":0.84251968503937,"duration":0.1354166666666714},{"name":"D5","midi":74,"time":125.14192708333321,"velocity":0.84251968503937,"duration":0.1354166666666714},{"name":"E4","midi":64,"time":125.14192708333321,"velocity":0.84251968503937,"duration":0.2721354166666714},{"name":"E5","midi":76,"time":125.27864583333321,"velocity":0.84251968503937,"duration":0.1354166666666714},{"name":"F5","midi":77,"time":125.41536458333321,"velocity":0.84251968503937,"duration":0.1354166666666714},{"name":"D4","midi":62,"time":125.41536458333321,"velocity":0.84251968503937,"duration":0.5416666666666714},{"name":"D5","midi":74,"time":125.55208333333321,"velocity":0.84251968503937,"duration":0.1354166666666714},{"name":"C5","midi":72,"time":125.68880208333321,"velocity":0.84251968503937,"duration":0.1354166666666714},{"name":"G3","midi":55,"time":125.68880208333321,"velocity":0.84251968503937,"duration":0.5416666666666714},{"name":"B4","midi":71,"time":125.82552083333321,"velocity":0.84251968503937,"duration":0.1354166666666714},{"name":"C5","midi":72,"time":125.96223958333321,"velocity":0.84251968503937,"duration":0.1354166666666714},{"name":"D4","midi":62,"time":125.96223958333321,"velocity":0.84251968503937,"duration":0.2721354166666714},{"name":"D5","midi":74,"time":126.09895833333321,"velocity":0.84251968503937,"duration":0.1354166666666714},{"name":"E5","midi":76,"time":126.23567708333321,"velocity":0.84251968503937,"duration":0.1354166666666714},{"name":"C4","midi":60,"time":126.23567708333321,"velocity":0.84251968503937,"duration":0.5416666666666714},{"name":"B4","midi":71,"time":126.37239583333321,"velocity":0.84251968503937,"duration":0.1354166666666714},{"name":"C5","midi":72,"time":126.50911458333321,"velocity":0.84251968503937,"duration":0.1354166666666714},{"name":"C3","midi":48,"time":126.50911458333321,"velocity":0.84251968503937,"duration":0.5416666666666714},{"name":"E5","midi":76,"time":126.64583333333321,"velocity":0.84251968503937,"duration":0.1354166666666714},{"name":"B4","midi":71,"time":126.78255208333321,"velocity":0.84251968503937,"duration":0.1354166666666714},{"name":"C4","midi":60,"time":126.78255208333321,"velocity":0.84251968503937,"duration":0.2721354166666714},{"name":"C5","midi":72,"time":126.91927083333321,"velocity":0.84251968503937,"duration":0.1354166666666714},{"name":"F4","midi":65,"time":127.05598958333321,"velocity":0.84251968503937,"duration":0.1354166666666714},{"name":"C4","midi":60,"time":127.05598958333321,"velocity":0.84251968503937,"duration":0.5416666666666714},{"name":"B4","midi":71,"time":127.19270833333321,"velocity":0.84251968503937,"duration":0.1354166666666714},{"name":"C5","midi":72,"time":127.32942708333321,"velocity":0.84251968503937,"duration":0.1354166666666714},{"name":"D3","midi":50,"time":127.32942708333321,"velocity":0.84251968503937,"duration":0.5416666666666714},{"name":"E5","midi":76,"time":127.46614583333321,"velocity":0.84251968503937,"duration":0.1354166666666714},{"name":"B4","midi":71,"time":127.60286458333321,"velocity":0.84251968503937,"duration":0.1354166666666714},{"name":"C4","midi":60,"time":127.60286458333321,"velocity":0.84251968503937,"duration":0.2721354166666714},{"name":"C5","midi":72,"time":127.73958333333321,"velocity":0.84251968503937,"duration":0.1354166666666714},{"name":"G4","midi":67,"time":127.87630208333321,"velocity":0.84251968503937,"duration":0.1354166666666714},{"name":"C4","midi":60,"time":127.87630208333321,"velocity":0.84251968503937,"duration":0.5416666666666714},{"name":"B4","midi":71,"time":128.01302083333323,"velocity":0.84251968503937,"duration":0.1354166666666572},{"name":"C5","midi":72,"time":128.14973958333323,"velocity":0.84251968503937,"duration":0.1354166666666572},{"name":"E3","midi":52,"time":128.14973958333323,"velocity":0.84251968503937,"duration":0.5416666666666572},{"name":"E5","midi":76,"time":128.28645833333323,"velocity":0.84251968503937,"duration":0.1354166666666572},{"name":"B4","midi":71,"time":128.42317708333323,"velocity":0.84251968503937,"duration":0.1354166666666572},{"name":"C4","midi":60,"time":128.42317708333323,"velocity":0.84251968503937,"duration":0.2721354166666572},{"name":"C5","midi":72,"time":128.55989583333323,"velocity":0.84251968503937,"duration":0.1354166666666572},{"name":"A4","midi":69,"time":128.69661458333323,"velocity":0.84251968503937,"duration":0.1354166666666572},{"name":"C4","midi":60,"time":128.69661458333323,"velocity":0.84251968503937,"duration":0.5416666666666572},{"name":"B4","midi":71,"time":128.83333333333323,"velocity":0.84251968503937,"duration":0.1354166666666572},{"name":"C5","midi":72,"time":128.97005208333323,"velocity":0.84251968503937,"duration":0.1354166666666572},{"name":"F3","midi":53,"time":128.97005208333323,"velocity":0.84251968503937,"duration":0.5416666666666572},{"name":"E5","midi":76,"time":129.10677083333323,"velocity":0.84251968503937,"duration":0.1354166666666572},{"name":"B4","midi":71,"time":129.24348958333323,"velocity":0.84251968503937,"duration":0.1354166666666572},{"name":"C4","midi":60,"time":129.24348958333323,"velocity":0.84251968503937,"duration":0.2721354166666572},{"name":"C5","midi":72,"time":129.38020833333323,"velocity":0.84251968503937,"duration":0.1354166666666572},{"name":"G4","midi":67,"time":129.51692708333323,"velocity":0.84251968503937,"duration":0.1354166666666572},{"name":"C4","midi":60,"time":129.51692708333323,"velocity":0.84251968503937,"duration":0.5416666666666572},{"name":"B4","midi":71,"time":129.65364583333323,"velocity":0.84251968503937,"duration":0.1354166666666572},{"name":"C5","midi":72,"time":129.79036458333323,"velocity":0.84251968503937,"duration":0.1354166666666572},{"name":"G3","midi":55,"time":129.79036458333323,"velocity":0.84251968503937,"duration":0.5416666666666572},{"name":"E5","midi":76,"time":129.92708333333323,"velocity":0.84251968503937,"duration":0.1354166666666572},{"name":"B4","midi":71,"time":130.06380208333323,"velocity":0.84251968503937,"duration":0.1354166666666572},{"name":"C4","midi":60,"time":130.06380208333323,"velocity":0.84251968503937,"duration":0.2721354166666572},{"name":"C5","midi":72,"time":130.20052083333323,"velocity":0.84251968503937,"duration":0.1354166666666572},{"name":"F#4","midi":66,"time":130.33723958333323,"velocity":0.84251968503937,"duration":0.1354166666666572},{"name":"C4","midi":60,"time":130.33723958333323,"velocity":0.84251968503937,"duration":0.5416666666666572},{"name":"B4","midi":71,"time":130.47395833333323,"velocity":0.84251968503937,"duration":0.1354166666666572},{"name":"C5","midi":72,"time":130.61067708333323,"velocity":0.84251968503937,"duration":0.1354166666666572},{"name":"A3","midi":57,"time":130.61067708333323,"velocity":0.84251968503937,"duration":0.5416666666666572},{"name":"E5","midi":76,"time":130.74739583333323,"velocity":0.84251968503937,"duration":0.1354166666666572},{"name":"B4","midi":71,"time":130.88411458333323,"velocity":0.84251968503937,"duration":0.1354166666666572},{"name":"C4","midi":60,"time":130.88411458333323,"velocity":0.84251968503937,"duration":0.2721354166666572},{"name":"C5","midi":72,"time":131.02083333333323,"velocity":0.84251968503937,"duration":0.1354166666666572},{"name":"F4","midi":65,"time":131.15755208333323,"velocity":0.84251968503937,"duration":0.1380208333333428},{"name":"D4","midi":62,"time":131.15755208333323,"velocity":0.84251968503937,"duration":0.8346354166667709},{"name":"B3","midi":59,"time":131.15755208333323,"velocity":0.84251968503937,"duration":0.2773437500000284},{"name":"A4","midi":69,"time":131.29687499999991,"velocity":0.84251968503937,"duration":0.1380208333333428},{"name":"B4","midi":71,"time":131.4361979166666,"velocity":0.84251968503937,"duration":0.1380208333333428},{"name":"A3","midi":57,"time":131.4361979166666,"velocity":0.84251968503937,"duration":0.2773437500000284},{"name":"D5","midi":74,"time":131.5755208333333,"velocity":0.84251968503937,"duration":0.1380208333333428},{"name":"A4","midi":69,"time":131.71484374999997,"velocity":0.84251968503937,"duration":0.1380208333333428},{"name":"G3","midi":55,"time":131.71484374999997,"velocity":0.84251968503937,"duration":0.2773437500000284},{"name":"B4","midi":71,"time":131.85416666666666,"velocity":0.84251968503937,"duration":0.1380208333333428},{"name":"D#4","midi":63,"time":131.99348958333334,"velocity":0.84251968503937,"duration":0.1380208333333428},{"name":"C4","midi":60,"time":131.99348958333334,"velocity":0.84251968503937,"duration":0.8346354166667709},{"name":"G4","midi":67,"time":132.13281250000003,"velocity":0.84251968503937,"duration":0.1380208333333428},{"name":"A4","midi":69,"time":132.2721354166667,"velocity":0.84251968503937,"duration":0.1380208333333428},{"name":"F#3","midi":54,"time":132.2721354166667,"velocity":0.84251968503937,"duration":0.2773437500000284},{"name":"C5","midi":72,"time":132.4114583333334,"velocity":0.84251968503937,"duration":0.1380208333333428},{"name":"F#4","midi":66,"time":132.55078125000009,"velocity":0.84251968503937,"duration":0.1380208333333428},{"name":"A3","midi":57,"time":132.55078125000009,"velocity":0.84251968503937,"duration":0.2773437500000284},{"name":"G4","midi":67,"time":132.69010416666677,"velocity":0.84251968503937,"duration":0.1380208333333428},{"name":"D4","midi":62,"time":132.82942708333346,"velocity":0.84251968503937,"duration":0.1380208333333428},{"name":"G3","midi":55,"time":132.82942708333346,"velocity":0.84251968503937,"duration":0.8346354166667709},{"name":"F4","midi":65,"time":132.96875000000014,"velocity":0.84251968503937,"duration":0.1380208333333428},{"name":"G4","midi":67,"time":133.10807291666683,"velocity":0.84251968503937,"duration":0.1380208333333428},{"name":"B4","midi":71,"time":133.2473958333335,"velocity":0.84251968503937,"duration":0.1380208333333428},{"name":"F4","midi":65,"time":133.3867187500002,"velocity":0.84251968503937,"duration":0.1380208333333428},{"name":"G2","midi":43,"time":133.3867187500002,"velocity":0.84251968503937,"duration":0.2773437500000284},{"name":"G4","midi":67,"time":133.52604166666688,"velocity":0.84251968503937,"duration":0.1380208333333428},{"name":"C3","midi":48,"time":133.67317708333357,"velocity":0.84251968503937,"duration":0.2604166666666856},{"name":"E4","midi":64,"time":133.67317708333357,"velocity":0.84251968503937,"duration":0.955729166666714},{"name":"C5","midi":72,"time":133.67317708333357,"velocity":0.84251968503937,"duration":0.955729166666714},{"name":"C4","midi":60,"time":133.8229166666669,"velocity":0.84251968503937,"duration":0.13541666666668561},{"name":"A#3","midi":58,"time":133.95963541666694,"velocity":0.84251968503937,"duration":0.1354166666666572},{"name":"A3","midi":57,"time":134.09635416666694,"velocity":0.84251968503937,"duration":0.1354166666666572},{"name":"G3","midi":55,"time":134.23307291666694,"velocity":0.84251968503937,"duration":0.1354166666666572},{"name":"F3","midi":53,"time":134.36979166666694,"velocity":0.84251968503937,"duration":0.1354166666666572},{"name":"E3","midi":52,"time":134.50651041666694,"velocity":0.84251968503937,"duration":0.2721354166666572},{"name":"G4","midi":67,"time":134.64322916666694,"velocity":0.84251968503937,"duration":0.1354166666666572},{"name":"F#3","midi":54,"time":134.77994791666694,"velocity":0.84251968503937,"duration":0.2721354166666572},{"name":"A4","midi":69,"time":134.77994791666694,"velocity":0.84251968503937,"duration":0.1354166666666572},{"name":"B4","midi":71,"time":134.91666666666694,"velocity":0.84251968503937,"duration":0.1354166666666572},{"name":"G3","midi":55,"time":135.05338541666694,"velocity":0.84251968503937,"duration":0.2721354166666572},{"name":"C5","midi":72,"time":135.05338541666694,"velocity":0.84251968503937,"duration":0.1354166666666572},{"name":"D5","midi":74,"time":135.19010416666694,"velocity":0.84251968503937,"duration":0.1354166666666572},{"name":"F#3","midi":54,"time":135.32682291666694,"velocity":0.84251968503937,"duration":0.2721354166666572},{"name":"D#5","midi":75,"time":135.32682291666694,"velocity":0.84251968503937,"duration":0.2721354166666572},{"name":"G3","midi":55,"time":135.60026041666694,"velocity":0.84251968503937,"duration":0.2721354166666572},{"name":"D5","midi":74,"time":135.60026041666694,"velocity":0.84251968503937,"duration":0.2721354166666572},{"name":"A3","midi":57,"time":135.87369791666694,"velocity":0.84251968503937,"duration":0.2721354166666572},{"name":"C5","midi":72,"time":135.87369791666694,"velocity":0.84251968503937,"duration":0.2721354166666572},{"name":"G3","midi":55,"time":136.14713541666694,"velocity":0.84251968503937,"duration":0.6822916666666572},{"name":"A#4","midi":70,"time":136.14713541666694,"velocity":0.84251968503937,"duration":1.3671875},{"name":"G4","midi":67,"time":136.28385416666694,"velocity":0.84251968503937,"duration":0.1354166666666572},{"name":"F#4","midi":66,"time":136.42057291666694,"velocity":0.84251968503937,"duration":0.1354166666666572},{"name":"E4","midi":64,"time":136.55729166666694,"velocity":0.84251968503937,"duration":0.1354166666666572},{"name":"D4","midi":62,"time":136.69401041666694,"velocity":0.84251968503937,"duration":0.1354166666666572},{"name":"C4","midi":60,"time":136.83072916666694,"velocity":0.84251968503937,"duration":0.1354166666666572},{"name":"A#3","midi":58,"time":136.96744791666694,"velocity":0.84251968503937,"duration":0.1354166666666572},{"name":"A3","midi":57,"time":137.10416666666694,"velocity":0.84251968503937,"duration":0.1354166666666572},{"name":"G3","midi":55,"time":137.24088541666694,"velocity":0.84251968503937,"duration":0.1354166666666572},{"name":"F3","midi":53,"time":137.37760416666694,"velocity":0.84251968503937,"duration":0.1354166666666572},{"name":"E3","midi":52,"time":137.51432291666694,"velocity":0.84251968503937,"duration":0.1354166666666572},{"name":"F4","midi":65,"time":137.51432291666694,"velocity":0.84251968503937,"duration":0.2721354166666572},{"name":"G4","midi":67,"time":137.51432291666694,"velocity":0.84251968503937,"duration":0.2721354166666572},{"name":"A#4","midi":70,"time":137.51432291666694,"velocity":0.84251968503937,"duration":0.2721354166666572},{"name":"D3","midi":50,"time":137.65104166666694,"velocity":0.84251968503937,"duration":0.1354166666666572},{"name":"C3","midi":48,"time":137.78776041666694,"velocity":0.84251968503937,"duration":0.8190104166666572},{"name":"E4","midi":64,"time":137.78776041666694,"velocity":0.84251968503937,"duration":0.8190104166666572},{"name":"A#4","midi":70,"time":137.78776041666694,"velocity":0.84251968503937,"duration":0.2721354166666572},{"name":"D5","midi":74,"time":137.78776041666694,"velocity":0.84251968503937,"duration":0.2721354166666572},{"name":"C5","midi":72,"time":138.06119791666694,"velocity":0.84251968503937,"duration":0.2721354166666572},{"name":"A4","midi":69,"time":138.06119791666694,"velocity":0.84251968503937,"duration":0.2721354166666572},{"name":"A#4","midi":70,"time":138.33463541666694,"velocity":0.84251968503937,"duration":0.2721354166666572},{"name":"G4","midi":67,"time":138.33463541666694,"velocity":0.84251968503937,"duration":0.2721354166666572},{"name":"F3","midi":53,"time":138.60807291666694,"velocity":0.84251968503937,"duration":0.6822916666666572},{"name":"A4","midi":69,"time":138.60807291666694,"velocity":0.84251968503937,"duration":1.3671875},{"name":"F4","midi":65,"time":138.74479166666694,"velocity":0.84251968503937,"duration":0.1354166666666572},{"name":"E4","midi":64,"time":138.88151041666694,"velocity":0.84251968503937,"duration":0.1354166666666572},{"name":"D4","midi":62,"time":139.01822916666694,"velocity":0.84251968503937,"duration":0.1354166666666572},{"name":"C4","midi":60,"time":139.15494791666694,"velocity":0.84251968503937,"duration":0.1354166666666572},{"name":"A#3","midi":58,"time":139.29166666666694,"velocity":0.84251968503937,"duration":0.1354166666666572},{"name":"A3","midi":57,"time":139.42838541666694,"velocity":0.84251968503937,"duration":0.1354166666666572},{"name":"G3","midi":55,"time":139.56510416666694,"velocity":0.84251968503937,"duration":0.1354166666666572},{"name":"F3","midi":53,"time":139.70182291666694,"velocity":0.84251968503937,"duration":0.1354166666666572},{"name":"E3","midi":52,"time":139.83854166666694,"velocity":0.84251968503937,"duration":0.1354166666666572},{"name":"D3","midi":50,"time":139.97526041666694,"velocity":0.84251968503937,"duration":0.1354166666666572},{"name":"A4","midi":69,"time":139.97526041666694,"velocity":0.84251968503937,"duration":1.0924479166666572},{"name":"C3","midi":48,"time":140.11197916666694,"velocity":0.84251968503937,"duration":0.1354166666666572},{"name":"B2","midi":47,"time":140.24869791666694,"velocity":0.84251968503937,"duration":0.8190104166666572},{"name":"D5","midi":74,"time":140.24869791666694,"velocity":0.84251968503937,"duration":0.1354166666666572},{"name":"E5","midi":76,"time":140.38541666666694,"velocity":0.84251968503937,"duration":0.1354166666666572},{"name":"D5","midi":74,"time":140.52213541666694,"velocity":0.84251968503937,"duration":0.1354166666666572},{"name":"E5","midi":76,"time":140.65885416666694,"velocity":0.84251968503937,"duration":0.1354166666666572},{"name":"F5","midi":77,"time":140.79557291666694,"velocity":0.84251968503937,"duration":0.2721354166666572},{"name":"G4","midi":67,"time":141.06901041666694,"velocity":0.84251968503937,"duration":0.8190104166666572},{"name":"E3","midi":52,"time":141.20572916666694,"velocity":0.84251968503937,"duration":0.1354166666666572},{"name":"F3","midi":53,"time":141.34244791666694,"velocity":0.84251968503937,"duration":0.1354166666666572},{"name":"G3","midi":55,"time":141.47916666666694,"velocity":0.84251968503937,"duration":0.1354166666666572},{"name":"A3","midi":57,"time":141.61588541666694,"velocity":0.84251968503937,"duration":0.1354166666666572},{"name":"B3","midi":59,"time":141.75260416666694,"velocity":0.84251968503937,"duration":0.1354166666666572},{"name":"C#4","midi":61,"time":141.88932291666694,"velocity":0.84251968503937,"duration":0.1354166666666572},{"name":"D4","midi":62,"time":142.02604166666694,"velocity":0.84251968503937,"duration":0.1354166666666572},{"name":"E4","midi":64,"time":142.16276041666694,"velocity":0.84251968503937,"duration":0.1354166666666572},{"name":"F4","midi":65,"time":142.29947916666694,"velocity":0.84251968503937,"duration":0.1354166666666572},{"name":"E3","midi":52,"time":142.43619791666694,"velocity":0.84251968503937,"duration":0.2721354166666572},{"name":"G4","midi":67,"time":142.43619791666694,"velocity":0.84251968503937,"duration":0.5403645833333428},{"name":"A4","midi":69,"time":142.57291666666694,"velocity":0.84251968503937,"duration":0.1354166666666572},{"name":"A3","midi":57,"time":142.70963541666694,"velocity":0.84251968503937,"duration":0.5442708333333428},{"name":"A#4","midi":70,"time":142.70963541666694,"velocity":0.84251968503937,"duration":0.2708333333333428},{"name":"C#4","midi":61,"time":142.70963541666694,"velocity":0.84251968503937,"duration":0.8177083333333428},{"name":"F4","midi":65,"time":142.98177083333363,"velocity":0.84251968503937,"duration":0.2721354166666572},{"name":"A4","midi":69,"time":142.98177083333363,"velocity":0.84251968503937,"duration":0.2721354166666572},{"name":"A2","midi":45,"time":143.25520833333363,"velocity":0.84251968503937,"duration":0.2721354166666572},{"name":"E4","midi":64,"time":143.25520833333363,"velocity":0.84251968503937,"duration":0.2721354166666572},{"name":"G4","midi":67,"time":143.25520833333363,"velocity":0.84251968503937,"duration":0.2721354166666572},{"name":"D3","midi":50,"time":143.52864583333363,"velocity":0.84251968503937,"duration":0.2721354166666572},{"name":"F4","midi":65,"time":143.52864583333363,"velocity":0.84251968503937,"duration":0.2604166666666572},{"name":"D4","midi":62,"time":143.66536458333363,"velocity":0.84251968503937,"duration":0.1354166666666572},{"name":"F3","midi":53,"time":143.80208333333363,"velocity":0.84251968503937,"duration":0.2721354166666572},{"name":"C#4","midi":61,"time":143.80208333333363,"velocity":0.84251968503937,"duration":0.1354166666666572},{"name":"B3","midi":59,"time":143.93880208333363,"velocity":0.84251968503937,"duration":0.1354166666666572},{"name":"A2","midi":45,"time":144.07552083333363,"velocity":0.84251968503937,"duration":0.2721354166666572},{"name":"C#4","midi":61,"time":144.07552083333363,"velocity":0.84251968503937,"duration":0.1354166666666572},{"name":"D4","midi":62,"time":144.21223958333363,"velocity":0.84251968503937,"duration":0.1354166666666572},{"name":"E3","midi":52,"time":144.34895833333363,"velocity":0.84251968503937,"duration":0.2721354166666572},{"name":"G4","midi":67,"time":144.34895833333363,"velocity":0.84251968503937,"duration":0.2604166666666572},{"name":"E4","midi":64,"time":144.48567708333363,"velocity":0.84251968503937,"duration":0.1354166666666572},{"name":"G3","midi":55,"time":144.62239583333363,"velocity":0.84251968503937,"duration":0.2721354166666572},{"name":"D4","midi":62,"time":144.62239583333363,"velocity":0.84251968503937,"duration":0.1354166666666572},{"name":"C#4","midi":61,"time":144.75911458333363,"velocity":0.84251968503937,"duration":0.1354166666666572},{"name":"A2","midi":45,"time":144.89583333333363,"velocity":0.84251968503937,"duration":0.2721354166666572},{"name":"D4","midi":62,"time":144.89583333333363,"velocity":0.84251968503937,"duration":0.1354166666666572},{"name":"E4","midi":64,"time":145.03255208333363,"velocity":0.84251968503937,"duration":0.1354166666666572},{"name":"F3","midi":53,"time":145.16927083333363,"velocity":0.84251968503937,"duration":0.2721354166666572},{"name":"A4","midi":69,"time":145.16927083333363,"velocity":0.84251968503937,"duration":0.2604166666666572},{"name":"F4","midi":65,"time":145.30598958333363,"velocity":0.84251968503937,"duration":0.1354166666666572},{"name":"A3","midi":57,"time":145.44270833333363,"velocity":0.84251968503937,"duration":0.2721354166666572},{"name":"E4","midi":64,"time":145.44270833333363,"velocity":0.84251968503937,"duration":0.1354166666666572},{"name":"D4","midi":62,"time":145.57942708333363,"velocity":0.84251968503937,"duration":0.1354166666666572},{"name":"D3","midi":50,"time":145.71614583333363,"velocity":0.84251968503937,"duration":0.2721354166666572},{"name":"E4","midi":64,"time":145.71614583333363,"velocity":0.84251968503937,"duration":0.1354166666666572},{"name":"F4","midi":65,"time":145.85286458333363,"velocity":0.84251968503937,"duration":0.1354166666666572},{"name":"G3","midi":55,"time":145.98958333333363,"velocity":0.84251968503937,"duration":0.2721354166666572},{"name":"B4","midi":71,"time":145.98958333333363,"velocity":0.84251968503937,"duration":0.2213541666666572},{"name":"G4","midi":67,"time":146.12630208333363,"velocity":0.84251968503937,"duration":0.1354166666666572},{"name":"G2","midi":43,"time":146.26302083333363,"velocity":0.84251968503937,"duration":0.2721354166666572},{"name":"F4","midi":65,"time":146.26302083333363,"velocity":0.84251968503937,"duration":0.1354166666666572},{"name":"E4","midi":64,"time":146.39973958333363,"velocity":0.84251968503937,"duration":0.1354166666666572},{"name":"G3","midi":55,"time":146.53645833333363,"velocity":0.84251968503937,"duration":0.2721354166666572},{"name":"F4","midi":65,"time":146.53645833333363,"velocity":0.84251968503937,"duration":0.1354166666666572},{"name":"G4","midi":67,"time":146.67317708333363,"velocity":0.84251968503937,"duration":0.1354166666666572},{"name":"G3","midi":55,"time":146.80989583333363,"velocity":0.84251968503937,"duration":0.2721354166666572},{"name":"C#5","midi":73,"time":146.80989583333363,"velocity":0.84251968503937,"duration":0.1953125},{"name":"A4","midi":69,"time":146.94661458333363,"velocity":0.84251968503937,"duration":0.1354166666666572},{"name":"A2","midi":45,"time":147.08333333333363,"velocity":0.84251968503937,"duration":0.2721354166666572},{"name":"G4","midi":67,"time":147.08333333333363,"velocity":0.84251968503937,"duration":0.1354166666666572},{"name":"F4","midi":65,"time":147.22005208333363,"velocity":0.84251968503937,"duration":0.1354166666666572},{"name":"G3","midi":55,"time":147.35677083333363,"velocity":0.84251968503937,"duration":0.2721354166666572},{"name":"G4","midi":67,"time":147.35677083333363,"velocity":0.84251968503937,"duration":0.1354166666666572},{"name":"A4","midi":69,"time":147.49348958333363,"velocity":0.84251968503937,"duration":0.1354166666666572},{"name":"G3","midi":55,"time":147.63020833333363,"velocity":0.84251968503937,"duration":0.2721354166666856},{"name":"D5","midi":74,"time":147.63020833333363,"velocity":0.84251968503937,"duration":0.1692708333333428},{"name":"A#4","midi":70,"time":147.76692708333363,"velocity":0.84251968503937,"duration":0.13541666666668561},{"name":"A#2","midi":46,"time":147.90364583333366,"velocity":0.84251968503937,"duration":0.2721354166666572},{"name":"A4","midi":69,"time":147.90364583333366,"velocity":0.84251968503937,"duration":0.1354166666666572},{"name":"G4","midi":67,"time":148.04036458333366,"velocity":0.84251968503937,"duration":0.1354166666666572},{"name":"G3","midi":55,"time":148.17708333333366,"velocity":0.84251968503937,"duration":0.2721354166666572},{"name":"A4","midi":69,"time":148.17708333333366,"velocity":0.84251968503937,"duration":0.1354166666666572},{"name":"A#4","midi":70,"time":148.31380208333366,"velocity":0.84251968503937,"duration":0.1354166666666572},{"name":"C#3","midi":49,"time":148.45052083333366,"velocity":0.84251968503937,"duration":0.2721354166666572},{"name":"E5","midi":76,"time":148.45052083333366,"velocity":0.84251968503937,"duration":0.2604166666666572},{"name":"A#4","midi":70,"time":148.58723958333366,"velocity":0.84251968503937,"duration":0.1354166666666572},{"name":"E3","midi":52,"time":148.72395833333366,"velocity":0.84251968503937,"duration":0.2721354166666572},{"name":"A4","midi":69,"time":148.72395833333366,"velocity":0.84251968503937,"duration":0.1354166666666572},{"name":"G4","midi":67,"time":148.86067708333366,"velocity":0.84251968503937,"duration":0.1354166666666572},{"name":"A3","midi":57,"time":148.99739583333366,"velocity":0.84251968503937,"duration":0.2721354166666572},{"name":"F4","midi":65,"time":148.99739583333366,"velocity":0.84251968503937,"duration":0.1354166666666572},{"name":"E4","midi":64,"time":149.13411458333366,"velocity":0.84251968503937,"duration":0.1354166666666572},{"name":"D3","midi":50,"time":149.27083333333366,"velocity":0.84251968503937,"duration":0.2721354166666572},{"name":"F4","midi":65,"time":149.27083333333366,"velocity":0.84251968503937,"duration":0.1822916666666572},{"name":"A4","midi":69,"time":149.40755208333366,"velocity":0.84251968503937,"duration":0.1354166666666572},{"name":"F3","midi":53,"time":149.54427083333366,"velocity":0.84251968503937,"duration":0.2721354166666572},{"name":"A#4","midi":70,"time":149.54427083333366,"velocity":0.84251968503937,"duration":0.1354166666666572},{"name":"C5","midi":72,"time":149.68098958333366,"velocity":0.84251968503937,"duration":0.1354166666666572},{"name":"A3","midi":57,"time":149.81770833333366,"velocity":0.84251968503937,"duration":0.2721354166666572},{"name":"A#4","midi":70,"time":149.81770833333366,"velocity":0.84251968503937,"duration":0.1354166666666572},{"name":"A4","midi":69,"time":149.95442708333366,"velocity":0.84251968503937,"duration":0.1354166666666572},{"name":"A#2","midi":46,"time":150.09114583333366,"velocity":0.84251968503937,"duration":0.2721354166666572},{"name":"G4","midi":67,"time":150.09114583333366,"velocity":0.84251968503937,"duration":0.1354166666666572},{"name":"D5","midi":74,"time":150.22786458333366,"velocity":0.84251968503937,"duration":0.1354166666666572},{"name":"D3","midi":50,"time":150.36458333333366,"velocity":0.84251968503937,"duration":0.2721354166666572},{"name":"E5","midi":76,"time":150.36458333333366,"velocity":0.84251968503937,"duration":0.1354166666666572},{"name":"F5","midi":77,"time":150.50130208333366,"velocity":0.84251968503937,"duration":0.1354166666666572},{"name":"G3","midi":55,"time":150.63802083333366,"velocity":0.84251968503937,"duration":0.2721354166666572},{"name":"E5","midi":76,"time":150.63802083333366,"velocity":0.84251968503937,"duration":0.1354166666666572},{"name":"D5","midi":74,"time":150.77473958333366,"velocity":0.84251968503937,"duration":0.1354166666666572},{"name":"A3","midi":57,"time":150.91145833333366,"velocity":0.84251968503937,"duration":0.1354166666666572},{"name":"C#5","midi":73,"time":150.91145833333366,"velocity":0.84251968503937,"duration":0.68359375},{"name":"A2","midi":45,"time":151.04817708333366,"velocity":0.84251968503937,"duration":0.1354166666666572},{"name":"B2","midi":47,"time":151.18489583333366,"velocity":0.84251968503937,"duration":0.1354166666666572},{"name":"C#3","midi":49,"time":151.32161458333366,"velocity":0.84251968503937,"duration":0.1354166666666572},{"name":"D3","midi":50,"time":151.45833333333366,"velocity":0.84251968503937,"duration":0.1354166666666572},{"name":"E3","midi":52,"time":151.59505208333366,"velocity":0.84251968503937,"duration":0.1354166666666572},{"name":"F3","midi":53,"time":151.73177083333366,"velocity":0.84251968503937,"duration":0.2721354166666572},{"name":"B4","midi":71,"time":151.86848958333366,"velocity":0.84251968503937,"duration":0.1354166666666572},{"name":"E3","midi":52,"time":152.00520833333366,"velocity":0.84251968503937,"duration":0.2721354166666572},{"name":"C#5","midi":73,"time":152.00520833333366,"velocity":0.84251968503937,"duration":0.1354166666666572},{"name":"D5","midi":74,"time":152.14192708333366,"velocity":0.84251968503937,"duration":0.1354166666666572},{"name":"D3","midi":50,"time":152.27864583333366,"velocity":0.84251968503937,"duration":0.2721354166666572},{"name":"E5","midi":76,"time":152.27864583333366,"velocity":0.84251968503937,"duration":0.1354166666666572},{"name":"F5","midi":77,"time":152.41536458333366,"velocity":0.84251968503937,"duration":0.1354166666666572},{"name":"E3","midi":52,"time":152.55208333333366,"velocity":0.84251968503937,"duration":0.2721354166666572},{"name":"G5","midi":79,"time":152.55208333333366,"velocity":0.84251968503937,"duration":0.1354166666666572},{"name":"F5","midi":77,"time":152.68880208333366,"velocity":0.84251968503937,"duration":0.1354166666666572},{"name":"D3","midi":50,"time":152.82552083333366,"velocity":0.84251968503937,"duration":0.2721354166666572},{"name":"E5","midi":76,"time":152.82552083333366,"velocity":0.84251968503937,"duration":0.1354166666666572},{"name":"F5","midi":77,"time":152.96223958333366,"velocity":0.84251968503937,"duration":0.1354166666666572},{"name":"C#3","midi":49,"time":153.09895833333366,"velocity":0.84251968503937,"duration":0.2721354166666572},{"name":"G5","midi":79,"time":153.09895833333366,"velocity":0.84251968503937,"duration":0.1354166666666572},{"name":"E5","midi":76,"time":153.23567708333366,"velocity":0.84251968503937,"duration":0.1354166666666572},{"name":"D3","midi":50,"time":153.37239583333366,"velocity":0.84251968503937,"duration":0.9127604166666572},{"name":"F5","midi":77,"time":153.37239583333366,"velocity":0.84251968503937,"duration":0.1354166666666572},{"name":"D5","midi":74,"time":153.50911458333366,"velocity":0.84251968503937,"duration":0.1354166666666572},{"name":"E5","midi":76,"time":153.64583333333366,"velocity":0.84251968503937,"duration":0.1354166666666572},{"name":"F#5","midi":78,"time":153.78255208333366,"velocity":0.84251968503937,"duration":0.1354166666666572},{"name":"G5","midi":79,"time":153.91927083333366,"velocity":0.84251968503937,"duration":0.1354166666666572},{"name":"A5","midi":81,"time":154.05598958333366,"velocity":0.84251968503937,"duration":0.1354166666666572},{"name":"A#5","midi":82,"time":154.19270833333366,"velocity":0.84251968503937,"duration":0.2721354166666572},{"name":"E3","midi":52,"time":154.32942708333366,"velocity":0.84251968503937,"duration":0.1354166666666572},{"name":"F#3","midi":54,"time":154.46614583333366,"velocity":0.84251968503937,"duration":0.1354166666666572},{"name":"A5","midi":81,"time":154.46614583333366,"velocity":0.84251968503937,"duration":0.2721354166666572},{"name":"G3","midi":55,"time":154.60286458333366,"velocity":0.84251968503937,"duration":0.1354166666666572},{"name":"A3","midi":57,"time":154.73958333333366,"velocity":0.84251968503937,"duration":0.1354166666666572},{"name":"G5","midi":79,"time":154.73958333333366,"velocity":0.84251968503937,"duration":0.2721354166666572},{"name":"A#3","midi":58,"time":154.87630208333366,"velocity":0.84251968503937,"duration":0.1354166666666572},{"name":"C4","midi":60,"time":155.01302083333366,"velocity":0.84251968503937,"duration":0.1354166666666572},{"name":"A5","midi":81,"time":155.01302083333366,"velocity":0.84251968503937,"duration":0.2721354166666572},{"name":"A#3","midi":58,"time":155.14973958333366,"velocity":0.84251968503937,"duration":0.1354166666666572},{"name":"A3","midi":57,"time":155.28645833333366,"velocity":0.84251968503937,"duration":0.1354166666666572},{"name":"G5","midi":79,"time":155.28645833333366,"velocity":0.84251968503937,"duration":0.2721354166666572},{"name":"A#3","midi":58,"time":155.42317708333366,"velocity":0.84251968503937,"duration":0.1354166666666572},{"name":"C4","midi":60,"time":155.55989583333366,"velocity":0.84251968503937,"duration":0.1354166666666572},{"name":"F#5","midi":78,"time":155.55989583333366,"velocity":0.84251968503937,"duration":0.2721354166666572},{"name":"A3","midi":57,"time":155.69661458333366,"velocity":0.84251968503937,"duration":0.1354166666666572},{"name":"B3","midi":59,"time":155.83333333333366,"velocity":0.84251968503937,"duration":0.1354166666666572},{"name":"G5","midi":79,"time":155.83333333333366,"velocity":0.84251968503937,"duration":0.9557291666666572},{"name":"G3","midi":55,"time":155.97005208333366,"velocity":0.84251968503937,"duration":0.1354166666666572},{"name":"A3","midi":57,"time":156.10677083333366,"velocity":0.84251968503937,"duration":0.1354166666666572},{"name":"B3","midi":59,"time":156.24348958333366,"velocity":0.84251968503937,"duration":0.1354166666666572},{"name":"C4","midi":60,"time":156.38020833333366,"velocity":0.84251968503937,"duration":0.1354166666666572},{"name":"D4","midi":62,"time":156.51692708333366,"velocity":0.84251968503937,"duration":0.1354166666666572},{"name":"E4","midi":64,"time":156.65364583333366,"velocity":0.84251968503937,"duration":0.2721354166666572},{"name":"A4","midi":69,"time":156.79036458333366,"velocity":0.84251968503937,"duration":0.1354166666666572},{"name":"D4","midi":62,"time":156.92708333333366,"velocity":0.84251968503937,"duration":0.2721354166666572},{"name":"B4","midi":71,"time":156.92708333333366,"velocity":0.84251968503937,"duration":0.1354166666666572},{"name":"C5","midi":72,"time":157.06380208333366,"velocity":0.84251968503937,"duration":0.1354166666666572},{"name":"C4","midi":60,"time":157.20052083333366,"velocity":0.84251968503937,"duration":0.2721354166666572},{"name":"D5","midi":74,"time":157.20052083333366,"velocity":0.84251968503937,"duration":0.1354166666666572},{"name":"E5","midi":76,"time":157.33723958333366,"velocity":0.84251968503937,"duration":0.1354166666666572},{"name":"D4","midi":62,"time":157.47395833333366,"velocity":0.84251968503937,"duration":0.2721354166666572},{"name":"F5","midi":77,"time":157.47395833333366,"velocity":0.84251968503937,"duration":0.1354166666666572},{"name":"E5","midi":76,"time":157.61067708333366,"velocity":0.84251968503937,"duration":0.1354166666666572},{"name":"C4","midi":60,"time":157.74739583333366,"velocity":0.84251968503937,"duration":0.2721354166666572},{"name":"D5","midi":74,"time":157.74739583333366,"velocity":0.84251968503937,"duration":0.1354166666666572},{"name":"E5","midi":76,"time":157.88411458333366,"velocity":0.84251968503937,"duration":0.1354166666666572},{"name":"B3","midi":59,"time":158.02083333333366,"velocity":0.84251968503937,"duration":0.2721354166666572},{"name":"F5","midi":77,"time":158.02083333333366,"velocity":0.84251968503937,"duration":0.1354166666666572},{"name":"D5","midi":74,"time":158.15755208333366,"velocity":0.84251968503937,"duration":0.1354166666666572},{"name":"C4","midi":60,"time":158.29427083333366,"velocity":0.84251968503937,"duration":0.91796875},{"name":"E5","midi":76,"time":158.29427083333366,"velocity":0.84251968503937,"duration":0.1354166666666572},{"name":"C5","midi":72,"time":158.43098958333366,"velocity":0.84251968503937,"duration":0.1354166666666572},{"name":"D5","midi":74,"time":158.56770833333366,"velocity":0.84251968503937,"duration":0.1354166666666572},{"name":"E5","midi":76,"time":158.70442708333366,"velocity":0.84251968503937,"duration":0.1354166666666572},{"name":"F5","midi":77,"time":158.84114583333366,"velocity":0.84251968503937,"duration":0.1354166666666572},{"name":"G5","midi":79,"time":158.97786458333366,"velocity":0.84251968503937,"duration":0.1354166666666572},{"name":"A5","midi":81,"time":159.11458333333366,"velocity":0.84251968503937,"duration":0.2721354166666572},{"name":"D4","midi":62,"time":159.25130208333366,"velocity":0.84251968503937,"duration":0.1354166666666572},{"name":"E4","midi":64,"time":159.38802083333366,"velocity":0.84251968503937,"duration":0.1354166666666572},{"name":"G5","midi":79,"time":159.38802083333366,"velocity":0.84251968503937,"duration":0.2721354166666572},{"name":"F4","midi":65,"time":159.52473958333366,"velocity":0.84251968503937,"duration":0.1354166666666572},{"name":"G4","midi":67,"time":159.66145833333366,"velocity":0.84251968503937,"duration":0.1354166666666572},{"name":"F5","midi":77,"time":159.66145833333366,"velocity":0.84251968503937,"duration":0.2721354166666572},{"name":"A4","midi":69,"time":159.79817708333366,"velocity":0.84251968503937,"duration":0.1354166666666572},{"name":"A#4","midi":70,"time":159.93489583333366,"velocity":0.84251968503937,"duration":0.1354166666666572},{"name":"G5","midi":79,"time":159.93489583333366,"velocity":0.84251968503937,"duration":0.2721354166666572},{"name":"A4","midi":69,"time":160.07161458333366,"velocity":0.84251968503937,"duration":0.1354166666666572},{"name":"G4","midi":67,"time":160.20833333333366,"velocity":0.84251968503937,"duration":0.1354166666666572},{"name":"F5","midi":77,"time":160.20833333333366,"velocity":0.84251968503937,"duration":0.2721354166666572},{"name":"A4","midi":69,"time":160.34505208333366,"velocity":0.84251968503937,"duration":0.1354166666666572},{"name":"A#4","midi":70,"time":160.48177083333366,"velocity":0.84251968503937,"duration":0.1354166666666572},{"name":"E5","midi":76,"time":160.48177083333366,"velocity":0.84251968503937,"duration":0.2721354166666572},{"name":"G4","midi":67,"time":160.61848958333366,"velocity":0.84251968503937,"duration":0.1354166666666572},{"name":"A4","midi":69,"time":160.75520833333366,"velocity":0.84251968503937,"duration":0.1354166666666572},{"name":"F5","midi":77,"time":160.75520833333366,"velocity":0.84251968503937,"duration":0.390625},{"name":"F4","midi":65,"time":160.89192708333366,"velocity":0.84251968503937,"duration":0.1354166666666572},{"name":"E4","midi":64,"time":161.02864583333366,"velocity":0.84251968503937,"duration":0.1354166666666572},{"name":"A#5","midi":82,"time":161.02864583333366,"velocity":0.84251968503937,"duration":0.2721354166666572},{"name":"D4","midi":62,"time":161.16536458333366,"velocity":0.84251968503937,"duration":0.1354166666666572},{"name":"E4","midi":64,"time":161.30208333333366,"velocity":0.84251968503937,"duration":0.1354166666666572},{"name":"D5","midi":74,"time":161.30208333333366,"velocity":0.84251968503937,"duration":0.2721354166666572},{"name":"F4","midi":65,"time":161.43880208333366,"velocity":0.84251968503937,"duration":0.1354166666666572},{"name":"G4","midi":67,"time":161.57552083333366,"velocity":0.84251968503937,"duration":0.1354166666666572},{"name":"E5","midi":76,"time":161.57552083333366,"velocity":0.84251968503937,"duration":0.390625},{"name":"E4","midi":64,"time":161.71223958333366,"velocity":0.84251968503937,"duration":0.1354166666666572},{"name":"D4","midi":62,"time":161.84895833333366,"velocity":0.84251968503937,"duration":0.1354166666666572},{"name":"A5","midi":81,"time":161.84895833333366,"velocity":0.84251968503937,"duration":0.2721354166666572},{"name":"C4","midi":60,"time":161.98567708333366,"velocity":0.84251968503937,"duration":0.1354166666666572},{"name":"D4","midi":62,"time":162.12239583333366,"velocity":0.84251968503937,"duration":0.1354166666666572},{"name":"C5","midi":72,"time":162.12239583333366,"velocity":0.84251968503937,"duration":0.2721354166666572},{"name":"E4","midi":64,"time":162.25911458333366,"velocity":0.84251968503937,"duration":0.1354166666666572},{"name":"F4","midi":65,"time":162.39583333333366,"velocity":0.84251968503937,"duration":0.1354166666666572},{"name":"D5","midi":74,"time":162.39583333333366,"velocity":0.84251968503937,"duration":0.3645833333333428},{"name":"D4","midi":62,"time":162.53255208333366,"velocity":0.84251968503937,"duration":0.1354166666666572},{"name":"C4","midi":60,"time":162.66927083333366,"velocity":0.84251968503937,"duration":0.13541666666668561},{"name":"G5","midi":79,"time":162.66927083333366,"velocity":0.84251968503937,"duration":0.2721354166666856},{"name":"A#3","midi":58,"time":162.80598958333368,"velocity":0.84251968503937,"duration":0.1354166666666572},{"name":"C4","midi":60,"time":162.94270833333368,"velocity":0.84251968503937,"duration":0.1354166666666572},{"name":"A#4","midi":70,"time":162.94270833333368,"velocity":0.84251968503937,"duration":0.2721354166666572},{"name":"D4","midi":62,"time":163.07942708333368,"velocity":0.84251968503937,"duration":0.1354166666666572},{"name":"E4","midi":64,"time":163.21614583333368,"velocity":0.84251968503937,"duration":0.1354166666666572},{"name":"C5","midi":72,"time":163.21614583333368,"velocity":0.84251968503937,"duration":0.3385416666666572},{"name":"C4","midi":60,"time":163.35286458333368,"velocity":0.84251968503937,"duration":0.1354166666666572},{"name":"A#3","midi":58,"time":163.48958333333368,"velocity":0.84251968503937,"duration":0.1354166666666572},{"name":"F5","midi":77,"time":163.48958333333368,"velocity":0.84251968503937,"duration":0.2721354166666572},{"name":"A3","midi":57,"time":163.62630208333368,"velocity":0.84251968503937,"duration":0.1354166666666572},{"name":"A#3","midi":58,"time":163.76302083333368,"velocity":0.84251968503937,"duration":0.1354166666666572},{"name":"A4","midi":69,"time":163.76302083333368,"velocity":0.84251968503937,"duration":0.2721354166666572},{"name":"C4","midi":60,"time":163.89973958333368,"velocity":0.84251968503937,"duration":0.1354166666666572},{"name":"D4","midi":62,"time":164.03645833333368,"velocity":0.84251968503937,"duration":0.1354166666666572},{"name":"A#4","midi":70,"time":164.03645833333368,"velocity":0.84251968503937,"duration":0.3125},{"name":"A#3","midi":58,"time":164.17317708333368,"velocity":0.84251968503937,"duration":0.1354166666666572},{"name":"A3","midi":57,"time":164.30989583333368,"velocity":0.84251968503937,"duration":0.1354166666666572},{"name":"E5","midi":76,"time":164.30989583333368,"velocity":0.84251968503937,"duration":0.2721354166666572},{"name":"G3","midi":55,"time":164.44661458333368,"velocity":0.84251968503937,"duration":0.1354166666666572},{"name":"A3","midi":57,"time":164.58333333333368,"velocity":0.84251968503937,"duration":0.1354166666666572},{"name":"G4","midi":67,"time":164.58333333333368,"velocity":0.84251968503937,"duration":0.2721354166666572},{"name":"A#3","midi":58,"time":164.72005208333368,"velocity":0.84251968503937,"duration":0.1354166666666572},{"name":"C4","midi":60,"time":164.85677083333368,"velocity":0.84251968503937,"duration":0.1354166666666572},{"name":"A4","midi":69,"time":164.85677083333368,"velocity":0.84251968503937,"duration":0.2864583333333428},{"name":"A3","midi":57,"time":164.99348958333368,"velocity":0.84251968503937,"duration":0.1354166666666572},{"name":"G3","midi":55,"time":165.13020833333368,"velocity":0.84251968503937,"duration":0.13541666666668561},{"name":"D5","midi":74,"time":165.13020833333368,"velocity":0.84251968503937,"duration":0.2721354166666856},{"name":"F3","midi":53,"time":165.2669270833337,"velocity":0.84251968503937,"duration":0.1354166666666572},{"name":"G3","midi":55,"time":165.4036458333337,"velocity":0.84251968503937,"duration":0.1354166666666572},{"name":"F4","midi":65,"time":165.4036458333337,"velocity":0.84251968503937,"duration":0.2721354166666572},{"name":"A3","midi":57,"time":165.5403645833337,"velocity":0.84251968503937,"duration":0.1354166666666572},{"name":"A#3","midi":58,"time":165.6770833333337,"velocity":0.84251968503937,"duration":0.8190104166666572},{"name":"G4","midi":67,"time":165.6770833333337,"velocity":0.84251968503937,"duration":0.1354166666666572},{"name":"A4","midi":69,"time":165.8138020833337,"velocity":0.84251968503937,"duration":0.1354166666666572},{"name":"A#4","midi":70,"time":165.9505208333337,"velocity":0.84251968503937,"duration":0.1354166666666572},{"name":"D5","midi":74,"time":166.0872395833337,"velocity":0.84251968503937,"duration":0.1354166666666572},{"name":"A#4","midi":70,"time":166.2239583333337,"velocity":0.84251968503937,"duration":0.1354166666666572},{"name":"A4","midi":69,"time":166.3606770833337,"velocity":0.84251968503937,"duration":0.1354166666666572},{"name":"G4","midi":67,"time":166.4973958333337,"velocity":0.84251968503937,"duration":0.1354166666666572},{"name":"A4","midi":69,"time":166.6341145833337,"velocity":0.84251968503937,"duration":0.1354166666666572},{"name":"A#4","midi":70,"time":166.7708333333337,"velocity":0.84251968503937,"duration":0.1354166666666572},{"name":"D5","midi":74,"time":166.9075520833337,"velocity":0.84251968503937,"duration":0.1354166666666572},{"name":"A4","midi":69,"time":167.0442708333337,"velocity":0.84251968503937,"duration":0.1354166666666572},{"name":"G4","midi":67,"time":167.1809895833337,"velocity":0.84251968503937,"duration":0.1354166666666572},{"name":"A3","midi":57,"time":167.3177083333337,"velocity":0.84251968503937,"duration":0.8190104166666572},{"name":"F4","midi":65,"time":167.3177083333337,"velocity":0.84251968503937,"duration":0.1354166666666572},{"name":"G4","midi":67,"time":167.4544270833337,"velocity":0.84251968503937,"duration":0.1354166666666572},{"name":"A4","midi":69,"time":167.5911458333337,"velocity":0.84251968503937,"duration":0.1354166666666572},{"name":"D5","midi":74,"time":167.7278645833337,"velocity":0.84251968503937,"duration":0.1354166666666572},{"name":"G4","midi":67,"time":167.8645833333337,"velocity":0.84251968503937,"duration":0.1354166666666572},{"name":"F4","midi":65,"time":168.0013020833337,"velocity":0.84251968503937,"duration":0.1354166666666572},{"name":"G3","midi":55,"time":168.1380208333337,"velocity":0.84251968503937,"duration":0.8190104166666572},{"name":"E4","midi":64,"time":168.1380208333337,"velocity":0.84251968503937,"duration":0.1354166666666572},{"name":"F4","midi":65,"time":168.2747395833337,"velocity":0.84251968503937,"duration":0.1354166666666572},{"name":"G4","midi":67,"time":168.4114583333337,"velocity":0.84251968503937,"duration":0.1354166666666572},{"name":"A#4","midi":70,"time":168.5481770833337,"velocity":0.84251968503937,"duration":0.1354166666666572},{"name":"G4","midi":67,"time":168.6848958333337,"velocity":0.84251968503937,"duration":0.1354166666666572},{"name":"F4","midi":65,"time":168.8216145833337,"velocity":0.84251968503937,"duration":0.1354166666666572},{"name":"E4","midi":64,"time":168.9583333333337,"velocity":0.84251968503937,"duration":0.1354166666666572},{"name":"F4","midi":65,"time":169.0950520833337,"velocity":0.84251968503937,"duration":0.1354166666666572},{"name":"G4","midi":67,"time":169.2317708333337,"velocity":0.84251968503937,"duration":0.1354166666666572},{"name":"A#4","midi":70,"time":169.3684895833337,"velocity":0.84251968503937,"duration":0.1354166666666572},{"name":"F4","midi":65,"time":169.5052083333337,"velocity":0.84251968503937,"duration":0.1354166666666572},{"name":"E4","midi":64,"time":169.6419270833337,"velocity":0.84251968503937,"duration":0.1354166666666572},{"name":"G#3","midi":56,"time":169.7786458333337,"velocity":0.84251968503937,"duration":0.8190104166666572},{"name":"D4","midi":62,"time":169.7786458333337,"velocity":0.84251968503937,"duration":0.1354166666666572},{"name":"E4","midi":64,"time":169.9153645833337,"velocity":0.84251968503937,"duration":0.1354166666666572},{"name":"F4","midi":65,"time":170.0520833333337,"velocity":0.84251968503937,"duration":0.1354166666666572},{"name":"B4","midi":71,"time":170.1888020833337,"velocity":0.84251968503937,"duration":0.1354166666666572},{"name":"E4","midi":64,"time":170.3255208333337,"velocity":0.84251968503937,"duration":0.1354166666666572},{"name":"D4","midi":62,"time":170.4622395833337,"velocity":0.84251968503937,"duration":0.1354166666666572},{"name":"A3","midi":57,"time":170.5989583333337,"velocity":0.84251968503937,"duration":0.1354166666666572},{"name":"C#4","midi":61,"time":170.5989583333337,"velocity":0.84251968503937,"duration":0.2721354166666572},{"name":"A2","midi":45,"time":170.7356770833337,"velocity":0.84251968503937,"duration":0.1354166666666572},{"name":"B2","midi":47,"time":170.8723958333337,"velocity":0.84251968503937,"duration":0.1354166666666572},{"name":"D4","midi":62,"time":170.8723958333337,"velocity":0.84251968503937,"duration":0.1354166666666572},{"name":"C#3","midi":49,"time":171.0091145833337,"velocity":0.84251968503937,"duration":0.1354166666666572},{"name":"E4","midi":64,"time":171.0091145833337,"velocity":0.84251968503937,"duration":0.1354166666666572},{"name":"D3","midi":50,"time":171.1458333333337,"velocity":0.84251968503937,"duration":0.1354166666666572},{"name":"F4","midi":65,"time":171.1458333333337,"velocity":0.84251968503937,"duration":0.1354166666666572},{"name":"E3","midi":52,"time":171.2825520833337,"velocity":0.84251968503937,"duration":0.1354166666666572},{"name":"G4","midi":67,"time":171.2825520833337,"velocity":0.84251968503937,"duration":0.1354166666666572},{"name":"F3","midi":53,"time":171.4192708333337,"velocity":0.84251968503937,"duration":0.2721354166666572},{"name":"A4","midi":69,"time":171.4192708333337,"velocity":0.84251968503937,"duration":0.1354166666666572},{"name":"B4","midi":71,"time":171.5559895833337,"velocity":0.84251968503937,"duration":0.1354166666666572},{"name":"E3","midi":52,"time":171.6927083333337,"velocity":0.84251968503937,"duration":0.2721354166666572},{"name":"C#5","midi":73,"time":171.6927083333337,"velocity":0.84251968503937,"duration":0.1354166666666572},{"name":"D5","midi":74,"time":171.8294270833337,"velocity":0.84251968503937,"duration":0.1354166666666572},{"name":"D3","midi":50,"time":171.9661458333337,"velocity":0.84251968503937,"duration":0.2721354166666572},{"name":"E5","midi":76,"time":171.9661458333337,"velocity":0.84251968503937,"duration":0.1354166666666572},{"name":"F5","midi":77,"time":172.1028645833337,"velocity":0.84251968503937,"duration":0.1354166666666572},{"name":"E3","midi":52,"time":172.2395833333337,"velocity":0.84251968503937,"duration":0.2721354166666572},{"name":"G5","midi":79,"time":172.2395833333337,"velocity":0.84251968503937,"duration":0.1354166666666572},{"name":"F5","midi":77,"time":172.3763020833337,"velocity":0.84251968503937,"duration":0.1354166666666572},{"name":"D3","midi":50,"time":172.5130208333337,"velocity":0.84251968503937,"duration":0.2721354166666572},{"name":"E5","midi":76,"time":172.5130208333337,"velocity":0.84251968503937,"duration":0.1354166666666572},{"name":"F5","midi":77,"time":172.6497395833337,"velocity":0.84251968503937,"duration":0.1354166666666572},{"name":"C#3","midi":49,"time":172.7864583333337,"velocity":0.84251968503937,"duration":0.2721354166666572},{"name":"G5","midi":79,"time":172.7864583333337,"velocity":0.84251968503937,"duration":0.1354166666666572},{"name":"E5","midi":76,"time":172.9231770833337,"velocity":0.84251968503937,"duration":0.1354166666666572},{"name":"D3","midi":50,"time":173.0598958333337,"velocity":0.84251968503937,"duration":0.2721354166666572},{"name":"F5","midi":77,"time":173.0598958333337,"velocity":0.84251968503937,"duration":0.1354166666666572},{"name":"D5","midi":74,"time":173.1966145833337,"velocity":0.84251968503937,"duration":0.1354166666666572},{"name":"G3","midi":55,"time":173.3333333333337,"velocity":0.84251968503937,"duration":0.2721354166666572},{"name":"C5","midi":72,"time":173.3333333333337,"velocity":0.84251968503937,"duration":0.1354166666666572},{"name":"A#4","midi":70,"time":173.4700520833337,"velocity":0.84251968503937,"duration":0.1354166666666572},{"name":"A#2","midi":46,"time":173.6067708333337,"velocity":0.84251968503937,"duration":0.2721354166666572},{"name":"C5","midi":72,"time":173.6067708333337,"velocity":0.84251968503937,"duration":0.1354166666666572},{"name":"D5","midi":74,"time":173.7434895833337,"velocity":0.84251968503937,"duration":0.1354166666666572},{"name":"C3","midi":48,"time":173.8802083333337,"velocity":0.84251968503937,"duration":0.2721354166666572},{"name":"E5","midi":76,"time":173.8802083333337,"velocity":0.84251968503937,"duration":0.1354166666666572},{"name":"C5","midi":72,"time":174.0169270833337,"velocity":0.84251968503937,"duration":0.1354166666666572},{"name":"F3","midi":53,"time":174.1536458333337,"velocity":0.84251968503937,"duration":0.2721354166666572},{"name":"A#4","midi":70,"time":174.1536458333337,"velocity":0.84251968503937,"duration":0.1354166666666572},{"name":"A4","midi":69,"time":174.2903645833337,"velocity":0.84251968503937,"duration":0.1354166666666572},{"name":"A2","midi":45,"time":174.4270833333337,"velocity":0.84251968503937,"duration":0.2721354166666572},{"name":"A#4","midi":70,"time":174.4270833333337,"velocity":0.84251968503937,"duration":0.1354166666666572},{"name":"C5","midi":72,"time":174.5638020833337,"velocity":0.84251968503937,"duration":0.1354166666666572},{"name":"A#2","midi":46,"time":174.7005208333337,"velocity":0.84251968503937,"duration":0.2721354166666572},{"name":"D5","midi":74,"time":174.7005208333337,"velocity":0.84251968503937,"duration":0.1354166666666572},{"name":"A#4","midi":70,"time":174.8372395833337,"velocity":0.84251968503937,"duration":0.1354166666666572},{"name":"E3","midi":52,"time":174.9739583333337,"velocity":0.84251968503937,"duration":0.2721354166666572},{"name":"A4","midi":69,"time":174.9739583333337,"velocity":0.84251968503937,"duration":0.1354166666666572},{"name":"G4","midi":67,"time":175.1106770833337,"velocity":0.84251968503937,"duration":0.1354166666666572},{"name":"G2","midi":43,"time":175.2473958333337,"velocity":0.84251968503937,"duration":0.2721354166666572},{"name":"A4","midi":69,"time":175.2473958333337,"velocity":0.84251968503937,"duration":0.1354166666666572},{"name":"A#4","midi":70,"time":175.3841145833337,"velocity":0.84251968503937,"duration":0.1354166666666572},{"name":"A2","midi":45,"time":175.5208333333337,"velocity":0.84251968503937,"duration":0.2721354166666572},{"name":"C5","midi":72,"time":175.5208333333337,"velocity":0.84251968503937,"duration":0.1354166666666572},{"name":"A4","midi":69,"time":175.6575520833337,"velocity":0.84251968503937,"duration":0.1354166666666572},{"name":"D3","midi":50,"time":175.7942708333337,"velocity":0.84251968503937,"duration":0.2721354166666572},{"name":"G4","midi":67,"time":175.7942708333337,"velocity":0.84251968503937,"duration":0.1354166666666572},{"name":"F4","midi":65,"time":175.9309895833337,"velocity":0.84251968503937,"duration":0.1354166666666572},{"name":"F2","midi":41,"time":176.0677083333337,"velocity":0.84251968503937,"duration":0.2721354166666572},{"name":"G4","midi":67,"time":176.0677083333337,"velocity":0.84251968503937,"duration":0.1354166666666572},{"name":"A4","midi":69,"time":176.2044270833337,"velocity":0.84251968503937,"duration":0.1354166666666572},{"name":"G2","midi":43,"time":176.3411458333337,"velocity":0.84251968503937,"duration":0.2721354166666572},{"name":"A#4","midi":70,"time":176.3411458333337,"velocity":0.84251968503937,"duration":0.1354166666666572},{"name":"G4","midi":67,"time":176.4778645833337,"velocity":0.84251968503937,"duration":0.1354166666666572},{"name":"C3","midi":48,"time":176.6145833333337,"velocity":0.84251968503937,"duration":0.2721354166666572},{"name":"F4","midi":65,"time":176.6145833333337,"velocity":0.84251968503937,"duration":0.1354166666666572},{"name":"E4","midi":64,"time":176.7513020833337,"velocity":0.84251968503937,"duration":0.1354166666666572},{"name":"E2","midi":40,"time":176.8880208333337,"velocity":0.84251968503937,"duration":0.2721354166666572},{"name":"F4","midi":65,"time":176.8880208333337,"velocity":0.84251968503937,"duration":0.1354166666666572},{"name":"G4","midi":67,"time":177.0247395833337,"velocity":0.84251968503937,"duration":0.1354166666666572},{"name":"F2","midi":41,"time":177.1614583333337,"velocity":0.84251968503937,"duration":0.2721354166666572},{"name":"A4","midi":69,"time":177.1614583333337,"velocity":0.84251968503937,"duration":0.1354166666666572},{"name":"F4","midi":65,"time":177.2981770833337,"velocity":0.84251968503937,"duration":0.1354166666666572},{"name":"A#2","midi":46,"time":177.4348958333337,"velocity":0.84251968503937,"duration":0.2721354166666572},{"name":"E4","midi":64,"time":177.4348958333337,"velocity":0.84251968503937,"duration":0.1354166666666572},{"name":"D4","midi":62,"time":177.5716145833337,"velocity":0.84251968503937,"duration":0.1354166666666572},{"name":"D2","midi":38,"time":177.7083333333337,"velocity":0.84251968503937,"duration":0.2721354166666572},{"name":"E4","midi":64,"time":177.7083333333337,"velocity":0.84251968503937,"duration":0.1354166666666572},{"name":"F4","midi":65,"time":177.8450520833337,"velocity":0.84251968503937,"duration":0.1354166666666572},{"name":"E2","midi":40,"time":177.9817708333337,"velocity":0.84251968503937,"duration":0.1354166666666572},{"name":"G4","midi":67,"time":177.9817708333337,"velocity":0.84251968503937,"duration":0.8190104166666572},{"name":"A2","midi":45,"time":178.1184895833337,"velocity":0.84251968503937,"duration":0.1354166666666572},{"name":"G2","midi":43,"time":178.2552083333337,"velocity":0.84251968503937,"duration":0.1354166666666572},{"name":"F2","midi":41,"time":178.3919270833337,"velocity":0.84251968503937,"duration":0.1354166666666572},{"name":"E2","midi":40,"time":178.5286458333337,"velocity":0.84251968503937,"duration":0.1354166666666572},{"name":"D2","midi":38,"time":178.6653645833337,"velocity":0.84251968503937,"duration":0.1354166666666572},{"name":"C#2","midi":37,"time":178.8020833333337,"velocity":0.84251968503937,"duration":0.2721354166666572},{"name":"A#4","midi":70,"time":178.9388020833337,"velocity":0.84251968503937,"duration":0.1354166666666572},{"name":"D2","midi":38,"time":179.0755208333337,"velocity":0.84251968503937,"duration":0.2721354166666572},{"name":"A4","midi":69,"time":179.0755208333337,"velocity":0.84251968503937,"duration":0.1354166666666572},{"name":"G4","midi":67,"time":179.2122395833337,"velocity":0.84251968503937,"duration":0.1354166666666572},{"name":"E2","midi":40,"time":179.3489583333337,"velocity":0.84251968503937,"duration":0.2721354166666572},{"name":"F4","midi":65,"time":179.3489583333337,"velocity":0.84251968503937,"duration":0.1354166666666572},{"name":"E4","midi":64,"time":179.4856770833337,"velocity":0.84251968503937,"duration":0.1354166666666572},{"name":"D2","midi":38,"time":179.6223958333337,"velocity":0.84251968503937,"duration":0.2721354166666572},{"name":"F4","midi":65,"time":179.6223958333337,"velocity":0.84251968503937,"duration":0.1354166666666572},{"name":"A4","midi":69,"time":179.7591145833337,"velocity":0.84251968503937,"duration":0.1354166666666572},{"name":"E2","midi":40,"time":179.8958333333337,"velocity":0.84251968503937,"duration":0.2721354166666572},{"name":"G4","midi":67,"time":179.8958333333337,"velocity":0.84251968503937,"duration":0.1354166666666572},{"name":"F4","midi":65,"time":180.0325520833337,"velocity":0.84251968503937,"duration":0.1354166666666572},{"name":"F2","midi":41,"time":180.1692708333337,"velocity":0.84251968503937,"duration":0.2721354166666572},{"name":"E4","midi":64,"time":180.1692708333337,"velocity":0.84251968503937,"duration":0.1354166666666572},{"name":"D4","midi":62,"time":180.3059895833337,"velocity":0.84251968503937,"duration":0.1354166666666572},{"name":"E2","midi":40,"time":180.4427083333337,"velocity":0.84251968503937,"duration":0.2721354166666572},{"name":"C#4","midi":61,"time":180.4427083333337,"velocity":0.84251968503937,"duration":0.15625},{"name":"D4","midi":62,"time":180.5794270833337,"velocity":0.84251968503937,"duration":0.1354166666666572},{"name":"F2","midi":41,"time":180.7161458333337,"velocity":0.84251968503937,"duration":0.2721354166666572},{"name":"E4","midi":64,"time":180.7161458333337,"velocity":0.84251968503937,"duration":0.1354166666666572},{"name":"A4","midi":69,"time":180.8528645833337,"velocity":0.84251968503937,"duration":0.1354166666666572},{"name":"G2","midi":43,"time":180.9895833333337,"velocity":0.84251968503937,"duration":0.2721354166666572},{"name":"C#4","midi":61,"time":180.9895833333337,"velocity":0.84251968503937,"duration":0.1354166666666572},{"name":"E4","midi":64,"time":181.1263020833337,"velocity":0.84251968503937,"duration":0.1354166666666572},{"name":"F2","midi":41,"time":181.2630208333337,"velocity":0.84251968503937,"duration":0.2721354166666572},{"name":"D4","midi":62,"time":181.2630208333337,"velocity":0.84251968503937,"duration":0.15625},{"name":"E4","midi":64,"time":181.3997395833337,"velocity":0.84251968503937,"duration":0.1354166666666572},{"name":"G2","midi":43,"time":181.5364583333337,"velocity":0.84251968503937,"duration":0.2721354166666572},{"name":"F4","midi":65,"time":181.5364583333337,"velocity":0.84251968503937,"duration":0.1354166666666572},{"name":"A#4","midi":70,"time":181.6731770833337,"velocity":0.84251968503937,"duration":0.1354166666666572},{"name":"A2","midi":45,"time":181.8098958333337,"velocity":0.84251968503937,"duration":0.2721354166666572},{"name":"D4","midi":62,"time":181.8098958333337,"velocity":0.84251968503937,"duration":0.1354166666666572},{"name":"F4","midi":65,"time":181.9466145833337,"velocity":0.84251968503937,"duration":0.1354166666666572},{"name":"G2","midi":43,"time":182.0833333333337,"velocity":0.84251968503937,"duration":0.2721354166666572},{"name":"E4","midi":64,"time":182.0833333333337,"velocity":0.84251968503937,"duration":0.15625},{"name":"F4","midi":65,"time":182.2200520833337,"velocity":0.84251968503937,"duration":0.1354166666666572},{"name":"A2","midi":45,"time":182.3567708333337,"velocity":0.84251968503937,"duration":0.2721354166666572},{"name":"G4","midi":67,"time":182.3567708333337,"velocity":0.84251968503937,"duration":0.1354166666666572},{"name":"C5","midi":72,"time":182.4934895833337,"velocity":0.84251968503937,"duration":0.1354166666666572},{"name":"A#2","midi":46,"time":182.6302083333337,"velocity":0.84251968503937,"duration":0.2721354166666572},{"name":"E4","midi":64,"time":182.6302083333337,"velocity":0.84251968503937,"duration":0.1354166666666572},{"name":"G4","midi":67,"time":182.7669270833337,"velocity":0.84251968503937,"duration":0.1354166666666572},{"name":"A2","midi":45,"time":182.9036458333337,"velocity":0.84251968503937,"duration":0.2721354166666572},{"name":"F4","midi":65,"time":182.9036458333337,"velocity":0.84251968503937,"duration":0.15625},{"name":"G4","midi":67,"time":183.0403645833337,"velocity":0.84251968503937,"duration":0.1354166666666572},{"name":"B2","midi":47,"time":183.1770833333337,"velocity":0.84251968503937,"duration":0.2721354166666572},{"name":"A4","midi":69,"time":183.1770833333337,"velocity":0.84251968503937,"duration":0.1354166666666572},{"name":"D5","midi":74,"time":183.3138020833337,"velocity":0.84251968503937,"duration":0.1354166666666572},{"name":"C3","midi":48,"time":183.4505208333337,"velocity":0.84251968503937,"duration":0.2721354166666572},{"name":"F#4","midi":66,"time":183.4505208333337,"velocity":0.84251968503937,"duration":0.1354166666666572},{"name":"A4","midi":69,"time":183.5872395833337,"velocity":0.84251968503937,"duration":0.1354166666666572},{"name":"B2","midi":47,"time":183.7239583333337,"velocity":0.84251968503937,"duration":0.2721354166666572},{"name":"G4","midi":67,"time":183.7239583333337,"velocity":0.84251968503937,"duration":0.15625},{"name":"A4","midi":69,"time":183.8606770833337,"velocity":0.84251968503937,"duration":0.1354166666666572},{"name":"C#3","midi":49,"time":183.9973958333337,"velocity":0.84251968503937,"duration":0.2721354166666572},{"name":"B4","midi":71,"time":183.9973958333337,"velocity":0.84251968503937,"duration":0.1354166666666572},{"name":"E5","midi":76,"time":184.1341145833337,"velocity":0.84251968503937,"duration":0.1354166666666572},{"name":"D3","midi":50,"time":184.2708333333337,"velocity":0.84251968503937,"duration":0.2721354166666572},{"name":"G#4","midi":68,"time":184.2708333333337,"velocity":0.84251968503937,"duration":0.1354166666666572},{"name":"B4","midi":71,"time":184.4075520833337,"velocity":0.84251968503937,"duration":0.1354166666666572},{"name":"C#3","midi":49,"time":184.5442708333337,"velocity":0.84251968503937,"duration":0.1354166666666572},{"name":"A4","midi":69,"time":184.5442708333337,"velocity":0.84251968503937,"duration":0.1354166666666572},{"name":"F3","midi":53,"time":184.6809895833337,"velocity":0.84251968503937,"duration":0.1354166666666572},{"name":"B4","midi":71,"time":184.6809895833337,"velocity":0.84251968503937,"duration":0.1354166666666572},{"name":"E3","midi":52,"time":184.8177083333337,"velocity":0.84251968503937,"duration":0.1354166666666572},{"name":"C#5","midi":73,"time":184.8177083333337,"velocity":0.84251968503937,"duration":0.1354166666666572},{"name":"D3","midi":50,"time":184.9544270833337,"velocity":0.84251968503937,"duration":0.1354166666666572},{"name":"D5","midi":74,"time":184.9544270833337,"velocity":0.84251968503937,"duration":0.1354166666666572},{"name":"C#3","midi":49,"time":185.0911458333337,"velocity":0.84251968503937,"duration":0.1354166666666572},{"name":"E5","midi":76,"time":185.0911458333337,"velocity":0.84251968503937,"duration":0.1354166666666572},{"name":"B2","midi":47,"time":185.2278645833337,"velocity":0.84251968503937,"duration":0.1354166666666572},{"name":"F5","midi":77,"time":185.2278645833337,"velocity":0.84251968503937,"duration":0.1354166666666572},{"name":"A2","midi":45,"time":185.3645833333337,"velocity":0.84251968503937,"duration":0.2747395833333428},{"name":"G5","midi":79,"time":185.3645833333337,"velocity":0.84251968503937,"duration":0.3906250000000284},{"name":"E5","midi":76,"time":185.50260416666706,"velocity":0.84251968503937,"duration":0.13671875},{"name":"A3","midi":57,"time":185.6406250000004,"velocity":0.84251968503937,"duration":0.2747395833333428},{"name":"C#5","midi":73,"time":185.6406250000004,"velocity":0.84251968503937,"duration":0.13671875},{"name":"A4","midi":69,"time":185.77864583333374,"velocity":0.84251968503937,"duration":0.13671875},{"name":"A2","midi":45,"time":185.91666666666708,"velocity":0.84251968503937,"duration":0.2747395833333428},{"name":"C#5","midi":73,"time":185.91666666666708,"velocity":0.84251968503937,"duration":0.13671875},{"name":"E5","midi":76,"time":186.05468750000043,"velocity":0.84251968503937,"duration":0.13671875},{"name":"A2","midi":45,"time":186.19270833333377,"velocity":0.84251968503937,"duration":0.2747395833333428},{"name":"F5","midi":77,"time":186.19270833333377,"velocity":0.84251968503937,"duration":0.3906250000000284},{"name":"D5","midi":74,"time":186.3307291666671,"velocity":0.84251968503937,"duration":0.13671875},{"name":"A3","midi":57,"time":186.46875000000045,"velocity":0.84251968503937,"duration":0.2747395833333428},{"name":"B4","midi":71,"time":186.46875000000045,"velocity":0.84251968503937,"duration":0.13671875},{"name":"G#4","midi":68,"time":186.6067708333338,"velocity":0.84251968503937,"duration":0.13671875},{"name":"A2","midi":45,"time":186.74479166666714,"velocity":0.84251968503937,"duration":0.2747395833333428},{"name":"B4","midi":71,"time":186.74479166666714,"velocity":0.84251968503937,"duration":0.13671875},{"name":"D5","midi":74,"time":186.88281250000048,"velocity":0.84251968503937,"duration":0.13671875},{"name":"A2","midi":45,"time":187.02083333333383,"velocity":0.84251968503937,"duration":0.2747395833333428},{"name":"E5","midi":76,"time":187.02083333333383,"velocity":0.84251968503937,"duration":0.2604166666666856},{"name":"C#5","midi":73,"time":187.15885416666717,"velocity":0.84251968503937,"duration":0.13671875},{"name":"A3","midi":57,"time":187.2968750000005,"velocity":0.84251968503937,"duration":0.2747395833333428},{"name":"A#4","midi":70,"time":187.2968750000005,"velocity":0.84251968503937,"duration":0.13671875},{"name":"G4","midi":67,"time":187.43489583333385,"velocity":0.84251968503937,"duration":0.13671875},{"name":"A2","midi":45,"time":187.5729166666672,"velocity":0.84251968503937,"duration":0.2747395833333428},{"name":"A#4","midi":70,"time":187.5729166666672,"velocity":0.84251968503937,"duration":0.13671875},{"name":"C#5","midi":73,"time":187.71093750000054,"velocity":0.84251968503937,"duration":0.13671875},{"name":"A2","midi":45,"time":187.84895833333388,"velocity":0.84251968503937,"duration":0.2747395833333428},{"name":"D5","midi":74,"time":187.84895833333388,"velocity":0.84251968503937,"duration":0.13671875},{"name":"B4","midi":71,"time":187.98697916666723,"velocity":0.84251968503937,"duration":0.13671875},{"name":"A3","midi":57,"time":188.12500000000057,"velocity":0.84251968503937,"duration":0.2747395833333428},{"name":"G#4","midi":68,"time":188.12500000000057,"velocity":0.84251968503937,"duration":0.13671875},{"name":"F4","midi":65,"time":188.2630208333339,"velocity":0.84251968503937,"duration":0.13671875},{"name":"A2","midi":45,"time":188.40104166666725,"velocity":0.84251968503937,"duration":0.2747395833333428},{"name":"G#4","midi":68,"time":188.40104166666725,"velocity":0.84251968503937,"duration":0.13671875},{"name":"B4","midi":71,"time":188.5390625000006,"velocity":0.84251968503937,"duration":0.13671875},{"name":"A2","midi":45,"time":188.67708333333394,"velocity":0.84251968503937,"duration":0.2747395833333428},{"name":"C#5","midi":73,"time":188.67708333333394,"velocity":0.84251968503937,"duration":0.1953125},{"name":"A#4","midi":70,"time":188.81510416666728,"velocity":0.84251968503937,"duration":0.13671875},{"name":"A3","midi":57,"time":188.95312500000063,"velocity":0.84251968503937,"duration":0.2747395833333428},{"name":"G4","midi":67,"time":188.95312500000063,"velocity":0.84251968503937,"duration":0.13671875},{"name":"E4","midi":64,"time":189.09114583333397,"velocity":0.84251968503937,"duration":0.13671875},{"name":"A2","midi":45,"time":189.2291666666673,"velocity":0.84251968503937,"duration":0.2747395833333428},{"name":"G4","midi":67,"time":189.2291666666673,"velocity":0.84251968503937,"duration":0.13671875},{"name":"A#4","midi":70,"time":189.36718750000065,"velocity":0.84251968503937,"duration":0.13671875},{"name":"G2","midi":43,"time":189.505208333334,"velocity":0.84251968503937,"duration":0.2747395833333428},{"name":"C#5","midi":73,"time":189.505208333334,"velocity":0.84251968503937,"duration":0.13671875},{"name":"E5","midi":76,"time":189.64322916666734,"velocity":0.84251968503937,"duration":0.13671875},{"name":"G3","midi":55,"time":189.78125000000068,"velocity":0.84251968503937,"duration":0.2747395833333428},{"name":"D5","midi":74,"time":189.78125000000068,"velocity":0.84251968503937,"duration":0.13671875},{"name":"C#5","midi":73,"time":189.91927083333402,"velocity":0.84251968503937,"duration":0.13671875},{"name":"G2","midi":43,"time":190.05729166666737,"velocity":0.84251968503937,"duration":0.2747395833333428},{"name":"B4","midi":71,"time":190.05729166666737,"velocity":0.84251968503937,"duration":0.13671875},{"name":"A4","midi":69,"time":190.1953125000007,"velocity":0.84251968503937,"duration":0.13671875},{"name":"F2","midi":41,"time":190.33333333333405,"velocity":0.84251968503937,"duration":0.1380208333333428},{"name":"D5","midi":74,"time":190.33333333333405,"velocity":0.84251968503937,"duration":0.5208333333333997},{"name":"C#3","midi":49,"time":190.47265625000074,"velocity":0.84251968503937,"duration":0.1380208333333428},{"name":"D3","midi":50,"time":190.61197916666742,"velocity":0.84251968503937,"duration":0.1380208333333428},{"name":"A4","midi":69,"time":190.61197916666742,"velocity":0.84251968503937,"duration":0.2773437500000284},{"name":"F3","midi":53,"time":190.7513020833341,"velocity":0.84251968503937,"duration":0.1380208333333428},{"name":"C#3","midi":49,"time":190.8906250000008,"velocity":0.84251968503937,"duration":0.1380208333333428},{"name":"F4","midi":65,"time":190.8906250000008,"velocity":0.84251968503937,"duration":0.2773437500000284},{"name":"D3","midi":50,"time":191.02994791666748,"velocity":0.84251968503937,"duration":0.1380208333333428},{"name":"G2","midi":43,"time":191.16927083333417,"velocity":0.84251968503937,"duration":0.1380208333333428},{"name":"D4","midi":62,"time":191.16927083333417,"velocity":0.84251968503937,"duration":0.5208333333333997},{"name":"C#3","midi":49,"time":191.30859375000085,"velocity":0.84251968503937,"duration":0.1380208333333428},{"name":"D3","midi":50,"time":191.44791666666754,"velocity":0.84251968503937,"duration":0.1380208333333428},{"name":"A4","midi":69,"time":191.44791666666754,"velocity":0.84251968503937,"duration":0.2773437500000284},{"name":"F3","midi":53,"time":191.58723958333422,"velocity":0.84251968503937,"duration":0.1380208333333428},{"name":"C#3","midi":49,"time":191.7265625000009,"velocity":0.84251968503937,"duration":0.1380208333333428},{"name":"F4","midi":65,"time":191.7265625000009,"velocity":0.84251968503937,"duration":0.2773437500000284},{"name":"D3","midi":50,"time":191.8658854166676,"velocity":0.84251968503937,"duration":0.1380208333333428},{"name":"A2","midi":45,"time":192.00520833333428,"velocity":0.84251968503937,"duration":0.1380208333333428},{"name":"D4","midi":62,"time":192.00520833333428,"velocity":0.84251968503937,"duration":0.5208333333333997},{"name":"C#3","midi":49,"time":192.14453125000097,"velocity":0.84251968503937,"duration":0.1380208333333428},{"name":"D3","midi":50,"time":192.28385416666765,"velocity":0.84251968503937,"duration":0.1380208333333428},{"name":"A4","midi":69,"time":192.28385416666765,"velocity":0.84251968503937,"duration":0.2773437500000284},{"name":"F3","midi":53,"time":192.42317708333434,"velocity":0.84251968503937,"duration":0.1380208333333428},{"name":"C#3","midi":49,"time":192.56250000000102,"velocity":0.84251968503937,"duration":0.1380208333333428},{"name":"F4","midi":65,"time":192.56250000000102,"velocity":0.84251968503937,"duration":0.2773437500000284},{"name":"D3","midi":50,"time":192.7018229166677,"velocity":0.84251968503937,"duration":0.1380208333333428},{"name":"A#2","midi":46,"time":192.8411458333344,"velocity":0.84251968503937,"duration":0.1380208333333428},{"name":"D4","midi":62,"time":192.8411458333344,"velocity":0.84251968503937,"duration":0.5208333333333997},{"name":"C#3","midi":49,"time":192.98046875000108,"velocity":0.84251968503937,"duration":0.1380208333333428},{"name":"D3","midi":50,"time":193.11979166666777,"velocity":0.84251968503937,"duration":0.1380208333333428},{"name":"A4","midi":69,"time":193.11979166666777,"velocity":0.84251968503937,"duration":0.2773437500000284},{"name":"F3","midi":53,"time":193.25911458333445,"velocity":0.84251968503937,"duration":0.1380208333333428},{"name":"C#3","midi":49,"time":193.39843750000114,"velocity":0.84251968503937,"duration":0.1380208333333428},{"name":"F4","midi":65,"time":193.39843750000114,"velocity":0.84251968503937,"duration":0.2773437500000284},{"name":"D3","midi":50,"time":193.53776041666782,"velocity":0.84251968503937,"duration":0.1380208333333428},{"name":"B2","midi":47,"time":193.6770833333345,"velocity":0.84251968503937,"duration":0.1380208333333428},{"name":"D4","midi":62,"time":193.6770833333345,"velocity":0.84251968503937,"duration":0.5208333333333997},{"name":"C#3","midi":49,"time":193.8164062500012,"velocity":0.84251968503937,"duration":0.1380208333333428},{"name":"D3","midi":50,"time":193.95572916666788,"velocity":0.84251968503937,"duration":0.1380208333333428},{"name":"G#4","midi":68,"time":193.95572916666788,"velocity":0.84251968503937,"duration":0.2773437500000284},{"name":"F3","midi":53,"time":194.09505208333456,"velocity":0.84251968503937,"duration":0.1380208333333428},{"name":"C#3","midi":49,"time":194.23437500000125,"velocity":0.84251968503937,"duration":0.1380208333333428},{"name":"F4","midi":65,"time":194.23437500000125,"velocity":0.84251968503937,"duration":0.2773437500000284},{"name":"D3","midi":50,"time":194.37369791666794,"velocity":0.84251968503937,"duration":0.1380208333333428},{"name":"A2","midi":45,"time":194.51302083333462,"velocity":0.84251968503937,"duration":0.1380208333333428},{"name":"D4","midi":62,"time":194.51302083333462,"velocity":0.84251968503937,"duration":0.2773437500000284},{"name":"C#3","midi":49,"time":194.6523437500013,"velocity":0.84251968503937,"duration":0.1380208333333428},{"name":"D3","midi":50,"time":194.791666666668,"velocity":0.84251968503937,"duration":0.1380208333333428},{"name":"A4","midi":69,"time":194.791666666668,"velocity":0.84251968503937,"duration":0.2773437500000284},{"name":"F3","midi":53,"time":194.93098958333468,"velocity":0.84251968503937,"duration":0.1380208333333428},{"name":"C#3","midi":49,"time":195.07031250000136,"velocity":0.84251968503937,"duration":0.1380208333333428},{"name":"F4","midi":65,"time":195.07031250000136,"velocity":0.84251968503937,"duration":0.2773437500000284},{"name":"D3","midi":50,"time":195.20963541666805,"velocity":0.84251968503937,"duration":0.1380208333333428},{"name":"G#2","midi":44,"time":195.34895833333474,"velocity":0.84251968503937,"duration":0.8346354166667709},{"name":"D4","midi":62,"time":195.34895833333474,"velocity":0.84251968503937,"duration":0.1380208333333428},{"name":"E4","midi":64,"time":195.48828125000142,"velocity":0.84251968503937,"duration":0.1380208333333428},{"name":"F4","midi":65,"time":195.6276041666681,"velocity":0.84251968503937,"duration":0.1380208333333428},{"name":"B4","midi":71,"time":195.7669270833348,"velocity":0.84251968503937,"duration":0.1380208333333428},{"name":"F4","midi":65,"time":195.90625000000148,"velocity":0.84251968503937,"duration":0.1380208333333428},{"name":"E4","midi":64,"time":196.04557291666816,"velocity":0.84251968503937,"duration":0.1380208333333428},{"name":"D4","midi":62,"time":196.18489583333485,"velocity":0.84251968503937,"duration":0.1380208333333428},{"name":"E4","midi":64,"time":196.32421875000153,"velocity":0.84251968503937,"duration":0.1380208333333428},{"name":"F4","midi":65,"time":196.46354166666822,"velocity":0.84251968503937,"duration":0.1380208333333428},{"name":"B4","midi":71,"time":196.6028645833349,"velocity":0.84251968503937,"duration":0.1380208333333428},{"name":"E4","midi":64,"time":196.7421875000016,"velocity":0.84251968503937,"duration":0.1380208333333428},{"name":"D4","midi":62,"time":196.88151041666828,"velocity":0.84251968503937,"duration":0.1380208333333428},{"name":"G2","midi":43,"time":197.02083333333496,"velocity":0.84251968503937,"duration":0.6510416666667425},{"name":"C#4","midi":61,"time":197.02083333333496,"velocity":0.84251968503937,"duration":0.1380208333333428},{"name":"E4","midi":64,"time":197.16015625000165,"velocity":0.84251968503937,"duration":0.1380208333333428},{"name":"G4","midi":67,"time":197.29947916666833,"velocity":0.84251968503937,"duration":0.1380208333333428},{"name":"A#4","midi":70,"time":197.43880208333502,"velocity":0.84251968503937,"duration":0.1380208333333428},{"name":"A4","midi":69,"time":197.5781250000017,"velocity":0.84251968503937,"duration":0.1380208333333428},{"name":"G4","midi":67,"time":197.7174479166684,"velocity":0.84251968503937,"duration":0.1380208333333428},{"name":"F2","midi":41,"time":197.85677083333508,"velocity":0.84251968503937,"duration":0.1380208333333428},{"name":"A4","midi":69,"time":197.85677083333508,"velocity":0.84251968503937,"duration":0.1380208333333428},{"name":"A2","midi":45,"time":197.99609375000176,"velocity":0.84251968503937,"duration":0.1380208333333428},{"name":"G4","midi":67,"time":197.99609375000176,"velocity":0.84251968503937,"duration":0.1380208333333428},{"name":"B2","midi":47,"time":198.13541666666845,"velocity":0.84251968503937,"duration":0.1380208333333428},{"name":"F4","midi":65,"time":198.13541666666845,"velocity":0.84251968503937,"duration":0.1380208333333428},{"name":"C#3","midi":49,"time":198.27473958333513,"velocity":0.84251968503937,"duration":0.1380208333333428},{"name":"E4","midi":64,"time":198.27473958333513,"velocity":0.84251968503937,"duration":0.1380208333333428},{"name":"D3","midi":50,"time":198.41406250000182,"velocity":0.84251968503937,"duration":0.1380208333333428},{"name":"D4","midi":62,"time":198.41406250000182,"velocity":0.84251968503937,"duration":0.1380208333333428},{"name":"E3","midi":52,"time":198.5533854166685,"velocity":0.84251968503937,"duration":0.1380208333333428},{"name":"C4","midi":60,"time":198.5533854166685,"velocity":0.84251968503937,"duration":0.1380208333333428},{"name":"F3","midi":53,"time":198.6927083333352,"velocity":0.84251968503937,"duration":0.2773437500000284},{"name":"B3","midi":59,"time":198.6927083333352,"velocity":0.84251968503937,"duration":0.1380208333333428},{"name":"A3","midi":57,"time":198.83203125000188,"velocity":0.84251968503937,"duration":0.1380208333333428},{"name":"E3","midi":52,"time":198.97135416666856,"velocity":0.84251968503937,"duration":0.2773437500000284},{"name":"B3","midi":59,"time":198.97135416666856,"velocity":0.84251968503937,"duration":0.1380208333333428},{"name":"C#4","midi":61,"time":199.11067708333525,"velocity":0.84251968503937,"duration":0.1380208333333428},{"name":"D3","midi":50,"time":199.25000000000193,"velocity":0.84251968503937,"duration":0.2773437500000284},{"name":"D4","midi":62,"time":199.25000000000193,"velocity":0.84251968503937,"duration":0.1380208333333428},{"name":"E4","midi":64,"time":199.38932291666862,"velocity":0.84251968503937,"duration":0.1380208333333428},{"name":"E3","midi":52,"time":199.5286458333353,"velocity":0.84251968503937,"duration":0.2773437500000284},{"name":"C#4","midi":61,"time":199.5286458333353,"velocity":0.84251968503937,"duration":0.1380208333333428},{"name":"B3","midi":59,"time":199.667968750002,"velocity":0.84251968503937,"duration":0.1380208333333428},{"name":"D3","midi":50,"time":199.80729166666868,"velocity":0.84251968503937,"duration":0.2773437500000284},{"name":"C#4","midi":61,"time":199.80729166666868,"velocity":0.84251968503937,"duration":0.1380208333333428},{"name":"D4","midi":62,"time":199.94661458333536,"velocity":0.84251968503937,"duration":0.1380208333333428},{"name":"C#3","midi":49,"time":200.08593750000205,"velocity":0.84251968503937,"duration":0.2773437500000284},{"name":"E4","midi":64,"time":200.08593750000205,"velocity":0.84251968503937,"duration":0.1380208333333428},{"name":"G3","midi":55,"time":200.22526041666873,"velocity":0.84251968503937,"duration":0.1380208333333428},{"name":"D3","midi":50,"time":200.36458333333542,"velocity":0.84251968503937,"duration":0.5507812500000284},{"name":"F3","midi":53,"time":200.36458333333542,"velocity":0.84251968503937,"duration":0.5507812500000284},{"name":"A4","midi":69,"time":200.50260416666876,"velocity":0.84251968503937,"duration":0.13671875},{"name":"B4","midi":71,"time":200.6406250000021,"velocity":0.84251968503937,"duration":0.13671875},{"name":"C#5","midi":73,"time":200.77864583333545,"velocity":0.84251968503937,"duration":0.13671875},{"name":"C3","midi":48,"time":200.9166666666688,"velocity":0.84251968503937,"duration":0.2747395833333428},{"name":"E3","midi":52,"time":200.9166666666688,"velocity":0.84251968503937,"duration":0.2747395833333428},{"name":"D5","midi":74,"time":200.9166666666688,"velocity":0.84251968503937,"duration":0.13671875},{"name":"E5","midi":76,"time":201.05468750000213,"velocity":0.84251968503937,"duration":0.13671875},{"name":"D3","midi":50,"time":201.19270833333547,"velocity":0.84251968503937,"duration":0.2747395833333428},{"name":"A#2","midi":46,"time":201.19270833333547,"velocity":0.84251968503937,"duration":0.5455729166666856},{"name":"F5","midi":77,"time":201.19270833333547,"velocity":0.84251968503937,"duration":0.2747395833333428},{"name":"E3","midi":52,"time":201.46875000000216,"velocity":0.84251968503937,"duration":0.2734375},{"name":"E5","midi":76,"time":201.46875000000216,"velocity":0.84251968503937,"duration":0.2734375},{"name":"F3","midi":53,"time":201.7434895833355,"velocity":0.84251968503937,"duration":0.2747395833333428},{"name":"A2","midi":45,"time":201.7434895833355,"velocity":0.84251968503937,"duration":0.2747395833333428},{"name":"D5","midi":74,"time":201.7434895833355,"velocity":0.84251968503937,"duration":0.2747395833333428},{"name":"G3","midi":55,"time":202.0195312500022,"velocity":0.84251968503937,"duration":0.2747395833333428},{"name":"G2","midi":43,"time":202.0195312500022,"velocity":0.84251968503937,"duration":0.5455729166666856},{"name":"E5","midi":76,"time":202.0195312500022,"velocity":0.84251968503937,"duration":0.2747395833333428},{"name":"F3","midi":53,"time":202.29557291666887,"velocity":0.84251968503937,"duration":0.2734375},{"name":"F5","midi":77,"time":202.29557291666887,"velocity":0.84251968503937,"duration":0.13671875},{"name":"E5","midi":76,"time":202.43359375000222,"velocity":0.84251968503937,"duration":0.1354166666666572},{"name":"E3","midi":52,"time":202.57031250000222,"velocity":0.84251968503937,"duration":0.2747395833333428},{"name":"A2","midi":45,"time":202.57031250000222,"velocity":0.84251968503937,"duration":0.2747395833333428},{"name":"D5","midi":74,"time":202.57031250000222,"velocity":0.84251968503937,"duration":0.13671875},{"name":"C#5","midi":73,"time":202.70833333333556,"velocity":0.84251968503937,"duration":0.13671875},{"name":"F2","midi":41,"time":202.8463541666689,"velocity":0.84251968503937,"duration":0.826822916666714},{"name":"D3","midi":50,"time":202.8463541666689,"velocity":0.84251968503937,"duration":0.826822916666714},{"name":"A5","midi":81,"time":202.8463541666689,"velocity":0.84251968503937,"duration":0.13671875},{"name":"G5","midi":79,"time":202.98437500000225,"velocity":0.84251968503937,"duration":0.13671875},{"name":"F5","midi":77,"time":203.1223958333356,"velocity":0.84251968503937,"duration":0.13671875},{"name":"E5","midi":76,"time":203.26041666666893,"velocity":0.84251968503937,"duration":0.13671875},{"name":"D5","midi":74,"time":203.39843750000227,"velocity":0.84251968503937,"duration":0.13671875},{"name":"C#5","midi":73,"time":203.53645833333562,"velocity":0.84251968503937,"duration":0.13671875},{"name":"D5","midi":74,"time":203.67447916666896,"velocity":0.84251968503937,"duration":0.13671875},{"name":"E5","midi":76,"time":203.8125000000023,"velocity":0.84251968503937,"duration":0.13671875},{"name":"D5","midi":74,"time":203.95052083333564,"velocity":0.84251968503937,"duration":0.13671875},{"name":"E5","midi":76,"time":204.088541666669,"velocity":0.84251968503937,"duration":0.13671875},{"name":"D3","midi":50,"time":204.22656250000233,"velocity":0.84251968503937,"duration":0.13671875},{"name":"G2","midi":43,"time":204.22656250000233,"velocity":0.84251968503937,"duration":0.2734375},{"name":"F5","midi":77,"time":204.22656250000233,"velocity":0.84251968503937,"duration":0.2747395833333428},{"name":"A#4","midi":70,"time":204.22656250000233,"velocity":0.84251968503937,"duration":0.2747395833333428},{"name":"E3","midi":52,"time":204.36458333333567,"velocity":0.84251968503937,"duration":0.13671875},{"name":"F3","midi":53,"time":204.50260416666902,"velocity":0.84251968503937,"duration":0.5494791666666572},{"name":"A2","midi":45,"time":204.50260416666902,"velocity":0.84251968503937,"duration":0.5494791666666572},{"name":"A4","midi":69,"time":204.50260416666902,"velocity":0.84251968503937,"duration":0.5455729166666572},{"name":"D5","midi":74,"time":204.77864583333567,"velocity":0.84251968503937,"duration":0.2734375},{"name":"E3","midi":52,"time":205.05338541666902,"velocity":0.84251968503937,"duration":0.2747395833333428},{"name":"A2","midi":45,"time":205.05338541666902,"velocity":0.84251968503937,"duration":0.2747395833333428},{"name":"G4","midi":67,"time":205.05338541666902,"velocity":0.84251968503937,"duration":0.2747395833333428},{"name":"C#5","midi":73,"time":205.05338541666902,"velocity":0.84251968503937,"duration":0.2747395833333428},{"name":"D2","midi":38,"time":205.3294270833357,"velocity":0.84251968503937,"duration":0.8255208333333712},{"name":"D3","midi":50,"time":205.3294270833357,"velocity":0.84251968503937,"duration":0.8255208333333712},{"name":"D5","midi":74,"time":205.3294270833357,"velocity":0.84251968503937,"duration":0.2747395833333428},{"name":"F4","midi":65,"time":205.3294270833357,"velocity":0.84251968503937,"duration":0.5455729166666856},{"name":"A4","midi":69,"time":205.6054687500024,"velocity":0.84251968503937,"duration":0.2734375},{"name":"A4","midi":69,"time":205.88020833333573,"velocity":0.84251968503937,"duration":0.2747395833333428},{"name":"A4","midi":69,"time":206.15625000000242,"velocity":0.84251968503937,"duration":0.2747395833333428},{"name":"A4","midi":69,"time":206.4322916666691,"velocity":0.84251968503937,"duration":0.2747395833333428},{"name":"D4","midi":62,"time":206.7083333333358,"velocity":0.84251968503937,"duration":0.2747395833333428},{"name":"F4","midi":65,"time":206.7083333333358,"velocity":0.84251968503937,"duration":0.2747395833333428},{"name":"A4","midi":69,"time":206.7083333333358,"velocity":0.84251968503937,"duration":0.2747395833333428},{"name":"A#3","midi":58,"time":206.98437500000247,"velocity":0.84251968503937,"duration":0.2747395833333428},{"name":"A#4","midi":70,"time":206.98437500000247,"velocity":0.84251968503937,"duration":0.13671875},{"name":"G4","midi":67,"time":206.98437500000247,"velocity":0.84251968503937,"duration":0.5455729166666856},{"name":"C5","midi":72,"time":207.12239583333582,"velocity":0.84251968503937,"duration":0.13671875},{"name":"A3","midi":57,"time":207.26041666666916,"velocity":0.84251968503937,"duration":0.2734375},{"name":"D5","midi":74,"time":207.26041666666916,"velocity":0.84251968503937,"duration":0.13671875},{"name":"A#4","midi":70,"time":207.3984375000025,"velocity":0.84251968503937,"duration":0.1354166666666572},{"name":"G3","midi":55,"time":207.5351562500025,"velocity":0.84251968503937,"duration":0.2747395833333428},{"name":"F4","midi":65,"time":207.5351562500025,"velocity":0.84251968503937,"duration":0.2734375},{"name":"C5","midi":72,"time":207.5351562500025,"velocity":0.84251968503937,"duration":0.13671875},{"name":"D5","midi":74,"time":207.67317708333584,"velocity":0.84251968503937,"duration":0.13671875},{"name":"C4","midi":60,"time":207.8111979166692,"velocity":0.84251968503937,"duration":0.826822916666714},{"name":"E4","midi":64,"time":207.8111979166692,"velocity":0.84251968503937,"duration":0.826822916666714},{"name":"G4","midi":67,"time":207.8111979166692,"velocity":0.84251968503937,"duration":0.2747395833333428},{"name":"G4","midi":67,"time":208.08723958333587,"velocity":0.84251968503937,"duration":0.2747395833333428},{"name":"G4","midi":67,"time":208.36328125000256,"velocity":0.84251968503937,"duration":0.2747395833333428},{"name":"G4","midi":67,"time":208.63932291666924,"velocity":0.84251968503937,"duration":0.2747395833333428},{"name":"G4","midi":67,"time":208.91536458333593,"velocity":0.84251968503937,"duration":0.2747395833333428},{"name":"A#3","midi":58,"time":209.19140625000261,"velocity":0.84251968503937,"duration":0.2747395833333428},{"name":"G4","midi":67,"time":209.19140625000261,"velocity":0.84251968503937,"duration":0.2747395833333428},{"name":"E4","midi":64,"time":209.19140625000261,"velocity":0.84251968503937,"duration":0.2747395833333428},{"name":"A3","midi":57,"time":209.4674479166693,"velocity":0.84251968503937,"duration":0.2747395833333428},{"name":"F4","midi":65,"time":209.4674479166693,"velocity":0.84251968503937,"duration":0.5455729166666856},{"name":"A4","midi":69,"time":209.4674479166693,"velocity":0.84251968503937,"duration":0.13671875},{"name":"A#4","midi":70,"time":209.60546875000264,"velocity":0.84251968503937,"duration":0.13671875},{"name":"G3","midi":55,"time":209.743489583336,"velocity":0.84251968503937,"duration":0.2734375},{"name":"C5","midi":72,"time":209.743489583336,"velocity":0.84251968503937,"duration":0.13671875},{"name":"A4","midi":69,"time":209.88151041666933,"velocity":0.84251968503937,"duration":0.1354166666666572},{"name":"F3","midi":53,"time":210.01822916666933,"velocity":0.84251968503937,"duration":0.2747395833333428},{"name":"E4","midi":64,"time":210.01822916666933,"velocity":0.84251968503937,"duration":0.2734375},{"name":"A#4","midi":70,"time":210.01822916666933,"velocity":0.84251968503937,"duration":0.13671875},{"name":"C5","midi":72,"time":210.15625000000267,"velocity":0.84251968503937,"duration":0.13671875},{"name":"A#3","midi":58,"time":210.29427083333601,"velocity":0.84251968503937,"duration":0.5507812500000284},{"name":"D4","midi":62,"time":210.29427083333601,"velocity":0.84251968503937,"duration":1.380208333333428},{"name":"F4","midi":65,"time":210.29427083333601,"velocity":0.84251968503937,"duration":0.13671875},{"name":"G4","midi":67,"time":210.43229166666936,"velocity":0.84251968503937,"duration":0.13671875},{"name":"A4","midi":69,"time":210.5703125000027,"velocity":0.84251968503937,"duration":0.13671875},{"name":"F4","midi":65,"time":210.70833333333604,"velocity":0.84251968503937,"duration":0.13671875},{"name":"A3","midi":57,"time":210.84635416666939,"velocity":0.84251968503937,"duration":0.2747395833333428},{"name":"G4","midi":67,"time":210.84635416666939,"velocity":0.84251968503937,"duration":0.13671875},{"name":"A4","midi":69,"time":210.98437500000273,"velocity":0.84251968503937,"duration":0.13671875},{"name":"G3","midi":55,"time":211.12239583333607,"velocity":0.84251968503937,"duration":0.5507812500000284},{"name":"A#4","midi":70,"time":211.12239583333607,"velocity":0.84251968503937,"duration":0.13671875},{"name":"C5","midi":72,"time":211.2604166666694,"velocity":0.84251968503937,"duration":0.13671875},{"name":"D5","midi":74,"time":211.39843750000276,"velocity":0.84251968503937,"duration":0.13671875},{"name":"A#4","midi":70,"time":211.5364583333361,"velocity":0.84251968503937,"duration":0.13671875},{"name":"A3","midi":57,"time":211.67447916666944,"velocity":0.84251968503937,"duration":0.2747395833333428},{"name":"C4","midi":60,"time":211.67447916666944,"velocity":0.84251968503937,"duration":0.2747395833333428},{"name":"C5","midi":72,"time":211.67447916666944,"velocity":0.84251968503937,"duration":0.13671875},{"name":"D5","midi":74,"time":211.81250000000279,"velocity":0.84251968503937,"duration":0.13671875},{"name":"A#3","midi":58,"time":211.95052083333613,"velocity":0.84251968503937,"duration":0.963541666666714},{"name":"G3","midi":55,"time":211.95052083333613,"velocity":0.84251968503937,"duration":0.5507812500000284},{"name":"E5","midi":76,"time":211.95052083333613,"velocity":0.84251968503937,"duration":0.13671875},{"name":"F5","midi":77,"time":212.08854166666947,"velocity":0.84251968503937,"duration":0.13671875},{"name":"G5","midi":79,"time":212.2265625000028,"velocity":0.84251968503937,"duration":0.13671875},{"name":"E5","midi":76,"time":212.36458333333616,"velocity":0.84251968503937,"duration":0.13671875},{"name":"F3","midi":53,"time":212.5026041666695,"velocity":0.84251968503937,"duration":0.2747395833333428},{"name":"F5","midi":77,"time":212.5026041666695,"velocity":0.84251968503937,"duration":0.13671875},{"name":"G5","midi":79,"time":212.64062500000284,"velocity":0.84251968503937,"duration":0.13671875},{"name":"E3","midi":52,"time":212.77864583333618,"velocity":0.84251968503937,"duration":0.8268229166666856},{"name":"C5","midi":72,"time":212.77864583333618,"velocity":0.84251968503937,"duration":0.9648437500000284},{"name":"A#3","midi":58,"time":212.9166666666695,"velocity":0.84251968503937,"duration":0.13671875},{"name":"A3","midi":57,"time":213.05468750000284,"velocity":0.84251968503937,"duration":0.13671875},{"name":"G3","midi":55,"time":213.19270833333618,"velocity":0.84251968503937,"duration":0.13671875},{"name":"F3","midi":53,"time":213.33072916666953,"velocity":0.84251968503937,"duration":0.13671875},{"name":"G3","midi":55,"time":213.46875000000287,"velocity":0.84251968503937,"duration":0.13671875},{"name":"F3","midi":53,"time":213.6067708333362,"velocity":0.84251968503937,"duration":0.5507812500000284},{"name":"A3","midi":57,"time":213.6067708333362,"velocity":0.84251968503937,"duration":1.1028645833333997},{"name":"C5","midi":72,"time":213.74479166666956,"velocity":0.84251968503937,"duration":0.13671875},{"name":"D5","midi":74,"time":213.8828125000029,"velocity":0.84251968503937,"duration":0.13671875},{"name":"E5","midi":76,"time":214.02083333333624,"velocity":0.84251968503937,"duration":0.13671875},{"name":"E3","midi":52,"time":214.15885416666958,"velocity":0.84251968503937,"duration":0.2747395833333428},{"name":"D5","midi":74,"time":214.15885416666958,"velocity":0.84251968503937,"duration":0.13671875},{"name":"C5","midi":72,"time":214.29687500000293,"velocity":0.84251968503937,"duration":0.13671875},{"name":"D3","midi":50,"time":214.43489583333627,"velocity":0.84251968503937,"duration":0.826822916666714},{"name":"B4","midi":71,"time":214.43489583333627,"velocity":0.84251968503937,"duration":0.13671875},{"name":"C5","midi":72,"time":214.5729166666696,"velocity":0.84251968503937,"duration":0.13671875},{"name":"G3","midi":55,"time":214.71093750000296,"velocity":0.84251968503937,"duration":0.2747395833333428},{"name":"D5","midi":74,"time":214.71093750000296,"velocity":0.84251968503937,"duration":0.13671875},{"name":"E5","midi":76,"time":214.8489583333363,"velocity":0.84251968503937,"duration":0.13671875},{"name":"F3","midi":53,"time":214.98697916666964,"velocity":0.84251968503937,"duration":0.2747395833333428},{"name":"F5","midi":77,"time":214.98697916666964,"velocity":0.84251968503937,"duration":0.2734375},{"name":"B4","midi":71,"time":215.12500000000298,"velocity":0.84251968503937,"duration":0.13671875},{"name":"C3","midi":48,"time":215.26302083333633,"velocity":0.84251968503937,"duration":0.2747395833333428},{"name":"G3","midi":55,"time":215.26302083333633,"velocity":0.84251968503937,"duration":0.2747395833333428},{"name":"E5","midi":76,"time":215.26302083333633,"velocity":0.84251968503937,"duration":0.826822916666714},{"name":"C5","midi":72,"time":215.26302083333633,"velocity":0.84251968503937,"duration":0.826822916666714},{"name":"C4","midi":60,"time":215.539062500003,"velocity":0.84251968503937,"duration":0.2747395833333428},{"name":"C4","midi":60,"time":215.8151041666697,"velocity":0.84251968503937,"duration":0.2747395833333428},{"name":"C4","midi":60,"time":216.09114583333638,"velocity":0.84251968503937,"duration":0.2747395833333428},{"name":"C4","midi":60,"time":216.36718750000307,"velocity":0.84251968503937,"duration":0.2747395833333428},{"name":"C4","midi":60,"time":216.64322916666976,"velocity":0.84251968503937,"duration":0.2747395833333428},{"name":"A4","midi":69,"time":216.64322916666976,"velocity":0.84251968503937,"duration":0.2747395833333428},{"name":"F#5","midi":78,"time":216.64322916666976,"velocity":0.84251968503937,"duration":0.2747395833333428},{"name":"A#3","midi":58,"time":216.91927083333644,"velocity":0.84251968503937,"duration":0.13671875},{"name":"G5","midi":79,"time":216.91927083333644,"velocity":0.84251968503937,"duration":0.2747395833333428},{"name":"A#4","midi":70,"time":216.91927083333644,"velocity":0.84251968503937,"duration":0.2747395833333428},{"name":"A3","midi":57,"time":217.05729166666978,"velocity":0.84251968503937,"duration":0.13671875},{"name":"G3","midi":55,"time":217.19531250000313,"velocity":0.84251968503937,"duration":0.13671875},{"name":"C5","midi":72,"time":217.19531250000313,"velocity":0.84251968503937,"duration":0.2747395833333428},{"name":"A5","midi":81,"time":217.19531250000313,"velocity":0.84251968503937,"duration":0.2747395833333428},{"name":"A#3","midi":58,"time":217.33333333333647,"velocity":0.84251968503937,"duration":0.13671875},{"name":"A3","midi":57,"time":217.4713541666698,"velocity":0.84251968503937,"duration":0.13671875},{"name":"A#5","midi":82,"time":217.4713541666698,"velocity":0.84251968503937,"duration":0.2747395833333428},{"name":"D5","midi":74,"time":217.4713541666698,"velocity":0.84251968503937,"duration":0.2747395833333428},{"name":"G3","midi":55,"time":217.60937500000315,"velocity":0.84251968503937,"duration":0.13671875},{"name":"D4","midi":62,"time":217.7473958333365,"velocity":0.84251968503937,"duration":0.2747395833333428},{"name":"A4","midi":69,"time":217.7473958333365,"velocity":0.84251968503937,"duration":0.826822916666714},{"name":"F#5","midi":78,"time":217.7473958333365,"velocity":0.84251968503937,"duration":0.826822916666714},{"name":"D4","midi":62,"time":218.02343750000318,"velocity":0.84251968503937,"duration":0.2747395833333428},{"name":"D4","midi":62,"time":218.29947916666987,"velocity":0.84251968503937,"duration":0.2747395833333428},{"name":"D4","midi":62,"time":218.57552083333655,"velocity":0.84251968503937,"duration":0.2747395833333428},{"name":"D4","midi":62,"time":218.85156250000324,"velocity":0.84251968503937,"duration":0.2747395833333428},{"name":"D4","midi":62,"time":219.12760416666993,"velocity":0.84251968503937,"duration":0.2747395833333428},{"name":"B4","midi":71,"time":219.12760416666993,"velocity":0.84251968503937,"duration":0.2747395833333428},{"name":"G#5","midi":80,"time":219.12760416666993,"velocity":0.84251968503937,"duration":0.2747395833333428},{"name":"C4","midi":60,"time":219.4036458333366,"velocity":0.84251968503937,"duration":0.13671875},{"name":"C5","midi":72,"time":219.4036458333366,"velocity":0.84251968503937,"duration":0.2747395833333428},{"name":"A5","midi":81,"time":219.4036458333366,"velocity":0.84251968503937,"duration":0.2747395833333428},{"name":"B3","midi":59,"time":219.54166666666995,"velocity":0.84251968503937,"duration":0.13671875},{"name":"A3","midi":57,"time":219.6796875000033,"velocity":0.84251968503937,"duration":0.13671875},{"name":"D5","midi":74,"time":219.6796875000033,"velocity":0.84251968503937,"duration":0.2747395833333428},{"name":"B5","midi":83,"time":219.6796875000033,"velocity":0.84251968503937,"duration":0.2747395833333428},{"name":"C4","midi":60,"time":219.81770833333664,"velocity":0.84251968503937,"duration":0.13671875},{"name":"B3","midi":59,"time":219.95572916666998,"velocity":0.84251968503937,"duration":0.13671875},{"name":"C6","midi":84,"time":219.95572916666998,"velocity":0.84251968503937,"duration":0.2747395833333428},{"name":"E5","midi":76,"time":219.95572916666998,"velocity":0.84251968503937,"duration":0.2747395833333428},{"name":"A3","midi":57,"time":220.09375000000333,"velocity":0.84251968503937,"duration":0.13671875},{"name":"E4","midi":64,"time":220.23177083333667,"velocity":0.84251968503937,"duration":0.13671875},{"name":"B4","midi":71,"time":220.23177083333667,"velocity":0.84251968503937,"duration":0.2734375},{"name":"G#5","midi":80,"time":220.23177083333667,"velocity":0.84251968503937,"duration":0.13671875},{"name":"D4","midi":62,"time":220.36979166667,"velocity":0.84251968503937,"duration":0.13671875},{"name":"B5","midi":83,"time":220.36979166667,"velocity":0.84251968503937,"duration":0.13671875},{"name":"C4","midi":60,"time":220.50781250000335,"velocity":0.84251968503937,"duration":0.13671875},{"name":"A5","midi":81,"time":220.50781250000335,"velocity":0.84251968503937,"duration":0.13671875},{"name":"E4","midi":64,"time":220.6458333333367,"velocity":0.84251968503937,"duration":0.13671875},{"name":"G5","midi":79,"time":220.6458333333367,"velocity":0.84251968503937,"duration":0.13671875},{"name":"D4","midi":62,"time":220.78385416667004,"velocity":0.84251968503937,"duration":0.13671875},{"name":"F5","midi":77,"time":220.78385416667004,"velocity":0.84251968503937,"duration":0.13671875},{"name":"C4","midi":60,"time":220.92187500000338,"velocity":0.84251968503937,"duration":0.13671875},{"name":"E5","midi":76,"time":220.92187500000338,"velocity":0.84251968503937,"duration":0.13671875},{"name":"B3","midi":59,"time":221.05989583333672,"velocity":0.84251968503937,"duration":0.13671875},{"name":"D5","midi":74,"time":221.05989583333672,"velocity":0.84251968503937,"duration":0.13671875},{"name":"A3","midi":57,"time":221.19791666667007,"velocity":0.84251968503937,"duration":0.13671875},{"name":"F5","midi":77,"time":221.19791666667007,"velocity":0.84251968503937,"duration":0.13671875},{"name":"G#3","midi":56,"time":221.3359375000034,"velocity":0.84251968503937,"duration":0.13671875},{"name":"E5","midi":76,"time":221.3359375000034,"velocity":0.84251968503937,"duration":0.13671875},{"name":"B3","midi":59,"time":221.47395833333675,"velocity":0.84251968503937,"duration":0.13671875},{"name":"D5","midi":74,"time":221.47395833333675,"velocity":0.84251968503937,"duration":0.13671875},{"name":"A3","midi":57,"time":221.6119791666701,"velocity":0.84251968503937,"duration":0.13671875},{"name":"C5","midi":72,"time":221.6119791666701,"velocity":0.84251968503937,"duration":0.13671875},{"name":"G3","midi":55,"time":221.75000000000344,"velocity":0.84251968503937,"duration":0.13671875},{"name":"B4","midi":71,"time":221.75000000000344,"velocity":0.84251968503937,"duration":0.13671875},{"name":"F3","midi":53,"time":221.88802083333678,"velocity":0.84251968503937,"duration":0.13671875},{"name":"A4","midi":69,"time":221.88802083333678,"velocity":0.84251968503937,"duration":0.13671875},{"name":"E3","midi":52,"time":222.02604166667012,"velocity":0.84251968503937,"duration":0.13671875},{"name":"C5","midi":72,"time":222.02604166667012,"velocity":0.84251968503937,"duration":0.13671875},{"name":"D3","midi":50,"time":222.16406250000347,"velocity":0.84251968503937,"duration":0.13671875},{"name":"B4","midi":71,"time":222.16406250000347,"velocity":0.84251968503937,"duration":0.13671875},{"name":"F3","midi":53,"time":222.3020833333368,"velocity":0.84251968503937,"duration":0.13671875},{"name":"A4","midi":69,"time":222.3020833333368,"velocity":0.84251968503937,"duration":0.13671875},{"name":"E3","midi":52,"time":222.44010416667015,"velocity":0.84251968503937,"duration":0.13671875},{"name":"G#4","midi":68,"time":222.44010416667015,"velocity":0.84251968503937,"duration":0.13671875},{"name":"D3","midi":50,"time":222.5781250000035,"velocity":0.84251968503937,"duration":0.13671875},{"name":"A4","midi":69,"time":222.5781250000035,"velocity":0.84251968503937,"duration":0.13671875},{"name":"E3","midi":52,"time":222.71614583333684,"velocity":0.84251968503937,"duration":0.13671875},{"name":"G#4","midi":68,"time":222.71614583333684,"velocity":0.84251968503937,"duration":0.5208333333333712},{"name":"E2","midi":40,"time":222.85416666667018,"velocity":0.84251968503937,"duration":0.13671875},{"name":"F#2","midi":42,"time":222.99218750000352,"velocity":0.84251968503937,"duration":0.13671875},{"name":"E4","midi":64,"time":222.99218750000352,"velocity":0.84251968503937,"duration":0.2747395833333428},{"name":"G#2","midi":44,"time":223.13020833333687,"velocity":0.84251968503937,"duration":0.13671875},{"name":"A2","midi":45,"time":223.2682291666702,"velocity":0.84251968503937,"duration":0.13671875},{"name":"E4","midi":64,"time":223.2682291666702,"velocity":0.84251968503937,"duration":0.2747395833333428},{"name":"B2","midi":47,"time":223.40625000000355,"velocity":0.84251968503937,"duration":0.13671875},{"name":"C3","midi":48,"time":223.5442708333369,"velocity":0.84251968503937,"duration":0.2747395833333428},{"name":"E4","midi":64,"time":223.5442708333369,"velocity":0.84251968503937,"duration":1.7903645833334565},{"name":"A4","midi":69,"time":223.5442708333369,"velocity":0.84251968503937,"duration":0.13671875},{"name":"B4","midi":71,"time":223.68229166667024,"velocity":0.84251968503937,"duration":0.13671875},{"name":"B2","midi":47,"time":223.82031250000358,"velocity":0.84251968503937,"duration":0.2747395833333428},{"name":"C5","midi":72,"time":223.82031250000358,"velocity":0.84251968503937,"duration":0.13671875},{"name":"A4","midi":69,"time":223.95833333333692,"velocity":0.84251968503937,"duration":0.13671875},{"name":"A2","midi":45,"time":224.09635416667027,"velocity":0.84251968503937,"duration":0.2747395833333428},{"name":"B4","midi":71,"time":224.09635416667027,"velocity":0.84251968503937,"duration":0.13671875},{"name":"C5","midi":72,"time":224.2343750000036,"velocity":0.84251968503937,"duration":0.13671875},{"name":"B2","midi":47,"time":224.37239583333695,"velocity":0.84251968503937,"duration":0.2747395833333428},{"name":"B4","midi":71,"time":224.37239583333695,"velocity":0.84251968503937,"duration":0.13671875},{"name":"C5","midi":72,"time":224.5104166666703,"velocity":0.84251968503937,"duration":0.13671875},{"name":"A2","midi":45,"time":224.64843750000364,"velocity":0.84251968503937,"duration":0.2747395833333428},{"name":"D5","midi":74,"time":224.64843750000364,"velocity":0.84251968503937,"duration":0.13671875},{"name":"B4","midi":71,"time":224.78645833333698,"velocity":0.84251968503937,"duration":0.13671875},{"name":"G#2","midi":44,"time":224.92447916667032,"velocity":0.84251968503937,"duration":0.2747395833333428},{"name":"C5","midi":72,"time":224.92447916667032,"velocity":0.84251968503937,"duration":0.13671875},{"name":"D5","midi":74,"time":225.06250000000367,"velocity":0.84251968503937,"duration":0.13671875},{"name":"A2","midi":45,"time":225.200520833337,"velocity":0.84251968503937,"duration":0.9114583333333997},{"name":"C5","midi":72,"time":225.200520833337,"velocity":0.84251968503937,"duration":0.9635416666667425},{"name":"F#4","midi":66,"time":225.33854166667035,"velocity":0.84251968503937,"duration":0.13671875},{"name":"G4","midi":67,"time":225.4765625000037,"velocity":0.84251968503937,"duration":0.13671875},{"name":"E4","midi":64,"time":225.61458333333704,"velocity":0.84251968503937,"duration":0.13671875},{"name":"F#4","midi":66,"time":225.75260416667038,"velocity":0.84251968503937,"duration":0.13671875},{"name":"G4","midi":67,"time":225.89062500000372,"velocity":0.84251968503937,"duration":0.13671875},{"name":"F#4","midi":66,"time":226.02864583333707,"velocity":0.84251968503937,"duration":0.963541666666714},{"name":"B2","midi":47,"time":226.1666666666704,"velocity":0.84251968503937,"duration":0.13671875},{"name":"D5","midi":74,"time":226.1666666666704,"velocity":0.84251968503937,"duration":0.13671875},{"name":"C3","midi":48,"time":226.30468750000375,"velocity":0.84251968503937,"duration":0.13671875},{"name":"E5","midi":76,"time":226.30468750000375,"velocity":0.84251968503937,"duration":0.13671875},{"name":"A2","midi":45,"time":226.4427083333371,"velocity":0.84251968503937,"duration":0.13671875},{"name":"C5","midi":72,"time":226.4427083333371,"velocity":0.84251968503937,"duration":0.13671875},{"name":"B2","midi":47,"time":226.58072916667044,"velocity":0.84251968503937,"duration":0.13671875},{"name":"D5","midi":74,"time":226.58072916667044,"velocity":0.84251968503937,"duration":0.13671875},{"name":"C3","midi":48,"time":226.71875000000378,"velocity":0.84251968503937,"duration":0.13671875},{"name":"E5","midi":76,"time":226.71875000000378,"velocity":0.84251968503937,"duration":0.13671875},{"name":"B2","midi":47,"time":226.85677083333712,"velocity":0.84251968503937,"duration":0.9114583333333712},{"name":"D5","midi":74,"time":226.85677083333712,"velocity":0.84251968503937,"duration":0.8268229166666856},{"name":"G4","midi":67,"time":226.99479166667044,"velocity":0.84251968503937,"duration":0.13671875},{"name":"A4","midi":69,"time":227.13281250000378,"velocity":0.84251968503937,"duration":0.13671875},{"name":"F#4","midi":66,"time":227.27083333333712,"velocity":0.84251968503937,"duration":0.13671875},{"name":"G4","midi":67,"time":227.40885416667047,"velocity":0.84251968503937,"duration":0.13671875},{"name":"A4","midi":69,"time":227.5468750000038,"velocity":0.84251968503937,"duration":0.13671875},{"name":"G4","midi":67,"time":227.68489583333715,"velocity":0.84251968503937,"duration":0.963541666666714},{"name":"C3","midi":48,"time":227.8229166666705,"velocity":0.84251968503937,"duration":0.13671875},{"name":"E5","midi":76,"time":227.8229166666705,"velocity":0.84251968503937,"duration":0.13671875},{"name":"D3","midi":50,"time":227.96093750000384,"velocity":0.84251968503937,"duration":0.13671875},{"name":"F5","midi":77,"time":227.96093750000384,"velocity":0.84251968503937,"duration":0.13671875},{"name":"B2","midi":47,"time":228.09895833333718,"velocity":0.84251968503937,"duration":0.13671875},{"name":"D5","midi":74,"time":228.09895833333718,"velocity":0.84251968503937,"duration":0.13671875},{"name":"C3","midi":48,"time":228.23697916667052,"velocity":0.84251968503937,"duration":0.13671875},{"name":"E5","midi":76,"time":228.23697916667052,"velocity":0.84251968503937,"duration":0.13671875},{"name":"D3","midi":50,"time":228.37500000000387,"velocity":0.84251968503937,"duration":0.13671875},{"name":"F5","midi":77,"time":228.37500000000387,"velocity":0.84251968503937,"duration":0.13671875},{"name":"C3","midi":48,"time":228.5130208333372,"velocity":0.84251968503937,"duration":0.9114583333333712},{"name":"E5","midi":76,"time":228.5130208333372,"velocity":0.84251968503937,"duration":0.963541666666714},{"name":"A4","midi":69,"time":228.65104166667052,"velocity":0.84251968503937,"duration":0.13671875},{"name":"B4","midi":71,"time":228.78906250000387,"velocity":0.84251968503937,"duration":0.13671875},{"name":"G#4","midi":68,"time":228.9270833333372,"velocity":0.84251968503937,"duration":0.13671875},{"name":"A4","midi":69,"time":229.06510416667055,"velocity":0.84251968503937,"duration":0.13671875},{"name":"B4","midi":71,"time":229.2031250000039,"velocity":0.84251968503937,"duration":0.13671875},{"name":"A4","midi":69,"time":229.34114583333724,"velocity":0.84251968503937,"duration":0.963541666666714},{"name":"D3","midi":50,"time":229.47916666667058,"velocity":0.84251968503937,"duration":0.13671875},{"name":"F5","midi":77,"time":229.47916666667058,"velocity":0.84251968503937,"duration":0.13671875},{"name":"E3","midi":52,"time":229.61718750000392,"velocity":0.84251968503937,"duration":0.13671875},{"name":"G5","midi":79,"time":229.61718750000392,"velocity":0.84251968503937,"duration":0.13671875},{"name":"C#3","midi":49,"time":229.75520833333727,"velocity":0.84251968503937,"duration":0.13671875},{"name":"E5","midi":76,"time":229.75520833333727,"velocity":0.84251968503937,"duration":0.13671875},{"name":"D3","midi":50,"time":229.8932291666706,"velocity":0.84251968503937,"duration":0.13671875},{"name":"F5","midi":77,"time":229.8932291666706,"velocity":0.84251968503937,"duration":0.13671875},{"name":"E3","midi":52,"time":230.03125000000395,"velocity":0.84251968503937,"duration":0.13671875},{"name":"G5","midi":79,"time":230.03125000000395,"velocity":0.84251968503937,"duration":0.13671875},{"name":"D3","midi":50,"time":230.1692708333373,"velocity":0.84251968503937,"duration":2.4830729166667993},{"name":"F5","midi":77,"time":230.1692708333373,"velocity":0.84251968503937,"duration":0.8268229166666856},{"name":"A#4","midi":70,"time":230.3072916666706,"velocity":0.84251968503937,"duration":0.13671875},{"name":"C5","midi":72,"time":230.44531250000395,"velocity":0.84251968503937,"duration":0.13671875},{"name":"A4","midi":69,"time":230.5833333333373,"velocity":0.84251968503937,"duration":0.13671875},{"name":"F3","midi":53,"time":230.72135416667064,"velocity":0.84251968503937,"duration":0.2747395833333428},{"name":"A#4","midi":70,"time":230.72135416667064,"velocity":0.84251968503937,"duration":0.13671875},{"name":"C5","midi":72,"time":230.85937500000398,"velocity":0.84251968503937,"duration":0.13671875},{"name":"A#3","midi":58,"time":230.99739583333732,"velocity":0.84251968503937,"duration":0.5507812500000284},{"name":"D5","midi":74,"time":230.99739583333732,"velocity":0.84251968503937,"duration":0.13671875},{"name":"E5","midi":76,"time":231.13541666667066,"velocity":0.84251968503937,"duration":0.13671875},{"name":"F5","midi":77,"time":231.273437500004,"velocity":0.84251968503937,"duration":0.4023437500000284},{"name":"D5","midi":74,"time":231.41145833333735,"velocity":0.84251968503937,"duration":0.13671875},{"name":"C4","midi":60,"time":231.5494791666707,"velocity":0.84251968503937,"duration":0.2747395833333428},{"name":"E5","midi":76,"time":231.5494791666707,"velocity":0.84251968503937,"duration":0.13671875},{"name":"F5","midi":77,"time":231.68750000000404,"velocity":0.84251968503937,"duration":1.1028645833333997},{"name":"D4","midi":62,"time":231.82552083333738,"velocity":0.84251968503937,"duration":0.5507812500000284},{"name":"A#4","midi":70,"time":231.82552083333738,"velocity":0.84251968503937,"duration":0.13671875},{"name":"C5","midi":72,"time":231.96354166667072,"velocity":0.84251968503937,"duration":0.13671875},{"name":"D5","midi":74,"time":232.10156250000406,"velocity":0.84251968503937,"duration":0.13671875},{"name":"A#4","midi":70,"time":232.2395833333374,"velocity":0.84251968503937,"duration":0.13671875},{"name":"C4","midi":60,"time":232.37760416667075,"velocity":0.84251968503937,"duration":0.2747395833333428},{"name":"C5","midi":72,"time":232.37760416667075,"velocity":0.84251968503937,"duration":0.13671875},{"name":"D5","midi":74,"time":232.5156250000041,"velocity":0.84251968503937,"duration":0.13671875},{"name":"E3","midi":52,"time":232.65364583333744,"velocity":0.84251968503937,"duration":2.4830729166668277},{"name":"B3","midi":59,"time":232.65364583333744,"velocity":0.84251968503937,"duration":0.826822916666714},{"name":"G#4","midi":68,"time":232.65364583333744,"velocity":0.84251968503937,"duration":0.826822916666714},{"name":"E5","midi":76,"time":232.79166666667078,"velocity":0.84251968503937,"duration":0.13671875},{"name":"D5","midi":74,"time":232.92968750000412,"velocity":0.84251968503937,"duration":0.13671875},{"name":"F5","midi":77,"time":233.06770833333746,"velocity":0.84251968503937,"duration":0.13671875},{"name":"E5","midi":76,"time":233.2057291666708,"velocity":0.84251968503937,"duration":0.13671875},{"name":"D5","midi":74,"time":233.34375000000415,"velocity":0.84251968503937,"duration":0.13671875},{"name":"A3","midi":57,"time":233.4817708333375,"velocity":0.84251968503937,"duration":1.653645833333428},{"name":"A4","midi":69,"time":233.4817708333375,"velocity":0.84251968503937,"duration":0.2734375},{"name":"C5","midi":72,"time":233.4817708333375,"velocity":0.84251968503937,"duration":0.13671875},{"name":"B4","midi":71,"time":233.61979166667084,"velocity":0.84251968503937,"duration":0.13671875},{"name":"A4","midi":69,"time":233.75781250000418,"velocity":0.84251968503937,"duration":0.13671875},{"name":"C5","midi":72,"time":233.89583333333752,"velocity":0.84251968503937,"duration":0.13671875},{"name":"B4","midi":71,"time":234.03385416667086,"velocity":0.84251968503937,"duration":0.13671875},{"name":"A4","midi":69,"time":234.1718750000042,"velocity":0.84251968503937,"duration":0.963541666666714},{"name":"F#3","midi":54,"time":234.30989583333755,"velocity":0.84251968503937,"duration":0.826822916666714},{"name":"C4","midi":60,"time":234.30989583333755,"velocity":0.84251968503937,"duration":0.826822916666714},{"name":"D#5","midi":75,"time":234.30989583333755,"velocity":0.84251968503937,"duration":0.13671875},{"name":"E5","midi":76,"time":234.4479166666709,"velocity":0.84251968503937,"duration":0.13671875},{"name":"F#5","midi":78,"time":234.58593750000423,"velocity":0.84251968503937,"duration":0.13671875},{"name":"D#5","midi":75,"time":234.72395833333758,"velocity":0.84251968503937,"duration":0.13671875},{"name":"E5","midi":76,"time":234.86197916667092,"velocity":0.84251968503937,"duration":0.13671875},{"name":"F#5","midi":78,"time":235.00000000000426,"velocity":0.84251968503937,"duration":0.13671875},{"name":"B3","midi":59,"time":235.1380208333376,"velocity":0.84251968503937,"duration":0.5455729166666856},{"name":"G#4","midi":68,"time":235.1380208333376,"velocity":0.84251968503937,"duration":0.963541666666714},{"name":"E4","midi":64,"time":235.1380208333376,"velocity":0.84251968503937,"duration":0.8255208333333712},{"name":"E3","midi":52,"time":235.27604166667095,"velocity":0.84251968503937,"duration":0.13671875},{"name":"F#3","midi":54,"time":235.4140625000043,"velocity":0.84251968503937,"duration":0.13671875},{"name":"G#3","midi":56,"time":235.55208333333763,"velocity":0.84251968503937,"duration":0.1354166666666572},{"name":"A3","midi":57,"time":235.68880208333763,"velocity":0.84251968503937,"duration":0.13671875},{"name":"B3","midi":59,"time":235.82682291667098,"velocity":0.84251968503937,"duration":0.13671875},{"name":"C4","midi":60,"time":235.96484375000432,"velocity":0.84251968503937,"duration":0.2747395833333428},{"name":"F#4","midi":66,"time":236.10286458333766,"velocity":0.84251968503937,"duration":0.13671875},{"name":"B3","midi":59,"time":236.240885416671,"velocity":0.84251968503937,"duration":0.2747395833333428},{"name":"G#4","midi":68,"time":236.240885416671,"velocity":0.84251968503937,"duration":0.13671875},{"name":"A4","midi":69,"time":236.37890625000435,"velocity":0.84251968503937,"duration":0.13671875},{"name":"A3","midi":57,"time":236.5169270833377,"velocity":0.84251968503937,"duration":0.2747395833333428},{"name":"B4","midi":71,"time":236.5169270833377,"velocity":0.84251968503937,"duration":0.13671875},{"name":"C5","midi":72,"time":236.65494791667103,"velocity":0.84251968503937,"duration":0.13671875},{"name":"B3","midi":59,"time":236.79296875000438,"velocity":0.84251968503937,"duration":0.2747395833333428},{"name":"D5","midi":74,"time":236.79296875000438,"velocity":0.84251968503937,"duration":0.13671875},{"name":"C5","midi":72,"time":236.93098958333772,"velocity":0.84251968503937,"duration":0.13671875},{"name":"A3","midi":57,"time":237.06901041667106,"velocity":0.84251968503937,"duration":0.2747395833333428},{"name":"E5","midi":76,"time":237.06901041667106,"velocity":0.84251968503937,"duration":0.13671875},{"name":"D5","midi":74,"time":237.2070312500044,"velocity":0.84251968503937,"duration":0.13671875},{"name":"G#3","midi":56,"time":237.34505208333775,"velocity":0.84251968503937,"duration":0.2747395833333428},{"name":"C5","midi":72,"time":237.34505208333775,"velocity":0.84251968503937,"duration":0.13671875},{"name":"B4","midi":71,"time":237.4830729166711,"velocity":0.84251968503937,"duration":0.13671875},{"name":"A3","midi":57,"time":237.62109375000443,"velocity":0.84251968503937,"duration":0.9492187500000568},{"name":"C5","midi":72,"time":237.62109375000443,"velocity":0.84251968503937,"duration":0.13671875},{"name":"A4","midi":69,"time":237.75911458333778,"velocity":0.84251968503937,"duration":0.13671875},{"name":"B4","midi":71,"time":237.89713541667112,"velocity":0.84251968503937,"duration":0.13671875},{"name":"C#5","midi":73,"time":238.03515625000446,"velocity":0.84251968503937,"duration":0.13671875},{"name":"D5","midi":74,"time":238.1731770833378,"velocity":0.84251968503937,"duration":0.13671875},{"name":"E5","midi":76,"time":238.31119791667115,"velocity":0.84251968503937,"duration":0.13671875},{"name":"F5","midi":77,"time":238.4492187500045,"velocity":0.84251968503937,"duration":0.2747395833333428},{"name":"B3","midi":59,"time":238.58723958333783,"velocity":0.84251968503937,"duration":0.13671875},{"name":"C#4","midi":61,"time":238.72526041667118,"velocity":0.84251968503937,"duration":0.13671875},{"name":"E5","midi":76,"time":238.72526041667118,"velocity":0.84251968503937,"duration":0.2747395833333428},{"name":"D4","midi":62,"time":238.86328125000452,"velocity":0.84251968503937,"duration":0.13671875},{"name":"E4","midi":64,"time":239.00130208333786,"velocity":0.84251968503937,"duration":0.13671875},{"name":"D5","midi":74,"time":239.00130208333786,"velocity":0.84251968503937,"duration":0.2747395833333428},{"name":"F4","midi":65,"time":239.1393229166712,"velocity":0.84251968503937,"duration":0.13671875},{"name":"G4","midi":67,"time":239.27734375000455,"velocity":0.84251968503937,"duration":0.13671875},{"name":"E5","midi":76,"time":239.27734375000455,"velocity":0.84251968503937,"duration":0.2747395833333428},{"name":"F4","midi":65,"time":239.4153645833379,"velocity":0.84251968503937,"duration":0.13671875},{"name":"A4","midi":69,"time":239.55338541667123,"velocity":0.84251968503937,"duration":0.13671875},{"name":"D5","midi":74,"time":239.55338541667123,"velocity":0.84251968503937,"duration":0.2747395833333428},{"name":"G4","midi":67,"time":239.69140625000458,"velocity":0.84251968503937,"duration":0.13671875},{"name":"F4","midi":65,"time":239.82942708333792,"velocity":0.84251968503937,"duration":0.13671875},{"name":"C#5","midi":73,"time":239.82942708333792,"velocity":0.84251968503937,"duration":0.2747395833333428},{"name":"E4","midi":64,"time":239.96744791667126,"velocity":0.84251968503937,"duration":0.13671875},{"name":"F4","midi":65,"time":240.1054687500046,"velocity":0.84251968503937,"duration":0.13671875},{"name":"D5","midi":74,"time":240.1054687500046,"velocity":0.84251968503937,"duration":0.826822916666714},{"name":"A3","midi":57,"time":240.24348958333795,"velocity":0.84251968503937,"duration":0.13671875},{"name":"B3","midi":59,"time":240.3815104166713,"velocity":0.84251968503937,"duration":0.13671875},{"name":"C4","midi":60,"time":240.51953125000463,"velocity":0.84251968503937,"duration":0.13671875},{"name":"B3","midi":59,"time":240.65755208333798,"velocity":0.84251968503937,"duration":0.13671875},{"name":"A3","midi":57,"time":240.79557291667132,"velocity":0.84251968503937,"duration":0.13671875},{"name":"D4","midi":62,"time":240.93359375000466,"velocity":0.84251968503937,"duration":0.9648437500000568},{"name":"B4","midi":71,"time":241.071614583338,"velocity":0.84251968503937,"duration":0.13671875},{"name":"A4","midi":69,"time":241.20963541667135,"velocity":0.84251968503937,"duration":0.13671875},{"name":"G#4","midi":68,"time":241.3476562500047,"velocity":0.84251968503937,"duration":0.13671875},{"name":"A4","midi":69,"time":241.48567708333803,"velocity":0.84251968503937,"duration":0.13671875},{"name":"B4","midi":71,"time":241.62369791667138,"velocity":0.84251968503937,"duration":0.13671875},{"name":"E4","midi":64,"time":241.76171875000472,"velocity":0.84251968503937,"duration":1.7929687500001137},{"name":"G#3","midi":56,"time":241.89973958333806,"velocity":0.84251968503937,"duration":0.13671875},{"name":"A3","midi":57,"time":242.0377604166714,"velocity":0.84251968503937,"duration":0.13671875},{"name":"B3","midi":59,"time":242.17578125000475,"velocity":0.84251968503937,"duration":0.13671875},{"name":"A3","midi":57,"time":242.3138020833381,"velocity":0.84251968503937,"duration":0.13671875},{"name":"G#3","midi":56,"time":242.45182291667143,"velocity":0.84251968503937,"duration":0.13671875},{"name":"C4","midi":60,"time":242.58984375000477,"velocity":0.84251968503937,"duration":0.826822916666714},{"name":"E2","midi":40,"time":242.72786458333812,"velocity":0.84251968503937,"duration":0.13671875},{"name":"F#2","midi":42,"time":242.86588541667146,"velocity":0.84251968503937,"duration":0.13671875},{"name":"G#2","midi":44,"time":243.0039062500048,"velocity":0.84251968503937,"duration":0.13671875},{"name":"A2","midi":45,"time":243.14192708333815,"velocity":0.84251968503937,"duration":0.13671875},{"name":"B2","midi":47,"time":243.2799479166715,"velocity":0.84251968503937,"duration":0.13671875},{"name":"C3","midi":48,"time":243.41796875000483,"velocity":0.84251968503937,"duration":0.2747395833333428},{"name":"F#4","midi":66,"time":243.55598958333817,"velocity":0.84251968503937,"duration":0.13671875},{"name":"B2","midi":47,"time":243.69401041667152,"velocity":0.84251968503937,"duration":0.2747395833333428},{"name":"G#4","midi":68,"time":243.69401041667152,"velocity":0.84251968503937,"duration":0.13671875},{"name":"A4","midi":69,"time":243.83203125000486,"velocity":0.84251968503937,"duration":0.13671875},{"name":"A2","midi":45,"time":243.9700520833382,"velocity":0.84251968503937,"duration":0.2747395833333428},{"name":"B4","midi":71,"time":243.9700520833382,"velocity":0.84251968503937,"duration":0.13671875},{"name":"C5","midi":72,"time":244.10807291667155,"velocity":0.84251968503937,"duration":0.13671875},{"name":"B2","midi":47,"time":244.2460937500049,"velocity":0.84251968503937,"duration":0.2747395833333428},{"name":"D4","midi":62,"time":244.2460937500049,"velocity":0.84251968503937,"duration":0.826822916666714},{"name":"E4","midi":64,"time":244.38411458333823,"velocity":0.84251968503937,"duration":0.13671875},{"name":"A2","midi":45,"time":244.52213541667157,"velocity":0.84251968503937,"duration":0.2747395833333428},{"name":"F#4","midi":66,"time":244.52213541667157,"velocity":0.84251968503937,"duration":0.13671875},{"name":"G#4","midi":68,"time":244.66015625000492,"velocity":0.84251968503937,"duration":0.13671875},{"name":"G#2","midi":44,"time":244.79817708333826,"velocity":0.84251968503937,"duration":0.2747395833333428},{"name":"A4","midi":69,"time":244.79817708333826,"velocity":0.84251968503937,"duration":0.13671875},{"name":"B4","midi":71,"time":244.9361979166716,"velocity":0.84251968503937,"duration":0.4023437500000284},{"name":"A2","midi":45,"time":245.07421875000495,"velocity":0.84251968503937,"duration":0.13671875},{"name":"C4","midi":60,"time":245.07421875000495,"velocity":0.84251968503937,"duration":0.826822916666714},{"name":"B2","midi":47,"time":245.2122395833383,"velocity":0.84251968503937,"duration":0.13671875},{"name":"C3","midi":48,"time":245.35026041667163,"velocity":0.84251968503937,"duration":0.13671875},{"name":"E4","midi":64,"time":245.35026041667163,"velocity":0.84251968503937,"duration":0.2747395833333428},{"name":"D3","midi":50,"time":245.48828125000497,"velocity":0.84251968503937,"duration":0.13671875},{"name":"E3","midi":52,"time":245.62630208333832,"velocity":0.84251968503937,"duration":0.13671875},{"name":"A4","midi":69,"time":245.62630208333832,"velocity":0.84251968503937,"duration":0.5455729166666856},{"name":"F3","midi":53,"time":245.76432291667166,"velocity":0.84251968503937,"duration":0.13671875},{"name":"G3","midi":55,"time":245.902343750005,"velocity":0.84251968503937,"duration":0.13671875},{"name":"B3","midi":59,"time":245.902343750005,"velocity":0.84251968503937,"duration":0.5442708333333428},{"name":"E3","midi":52,"time":246.04036458333835,"velocity":0.84251968503937,"duration":0.1354166666666572},{"name":"D3","midi":50,"time":246.17708333333835,"velocity":0.84251968503937,"duration":0.13671875},{"name":"G4","midi":67,"time":246.17708333333835,"velocity":0.84251968503937,"duration":0.8255208333333712},{"name":"C3","midi":48,"time":246.3151041666717,"velocity":0.84251968503937,"duration":0.1354166666666572},{"name":"D3","midi":50,"time":246.4518229166717,"velocity":0.84251968503937,"duration":0.13671875},{"name":"B3","midi":59,"time":246.4518229166717,"velocity":0.84251968503937,"duration":0.2747395833333428},{"name":"E3","midi":52,"time":246.58984375000503,"velocity":0.84251968503937,"duration":0.13671875},{"name":"F2","midi":41,"time":246.72786458333837,"velocity":0.84251968503937,"duration":0.13671875},{"name":"A3","midi":57,"time":246.72786458333837,"velocity":0.84251968503937,"duration":0.826822916666714},{"name":"G2","midi":43,"time":246.86588541667172,"velocity":0.84251968503937,"duration":0.13671875},{"name":"A2","midi":45,"time":247.00390625000506,"velocity":0.84251968503937,"duration":0.13671875},{"name":"C4","midi":60,"time":247.00390625000506,"velocity":0.84251968503937,"duration":0.2747395833333428},{"name":"B2","midi":47,"time":247.1419270833384,"velocity":0.84251968503937,"duration":0.13671875},{"name":"C3","midi":48,"time":247.27994791667174,"velocity":0.84251968503937,"duration":0.13671875},{"name":"F4","midi":65,"time":247.27994791667174,"velocity":0.84251968503937,"duration":0.5455729166666856},{"name":"D3","midi":50,"time":247.4179687500051,"velocity":0.84251968503937,"duration":0.13671875},{"name":"G3","midi":55,"time":247.55598958333843,"velocity":0.84251968503937,"duration":0.5442708333333428},{"name":"E3","midi":52,"time":247.55598958333843,"velocity":0.84251968503937,"duration":0.13671875},{"name":"C3","midi":48,"time":247.69401041667177,"velocity":0.84251968503937,"duration":0.1354166666666572},{"name":"B2","midi":47,"time":247.83072916667177,"velocity":0.84251968503937,"duration":0.13671875},{"name":"E4","midi":64,"time":247.83072916667177,"velocity":0.84251968503937,"duration":0.8255208333333712},{"name":"A2","midi":45,"time":247.96875000000512,"velocity":0.84251968503937,"duration":0.1354166666666572},{"name":"B2","midi":47,"time":248.10546875000512,"velocity":0.84251968503937,"duration":0.13671875},{"name":"G3","midi":55,"time":248.10546875000512,"velocity":0.84251968503937,"duration":0.2734375},{"name":"C3","midi":48,"time":248.24348958333846,"velocity":0.84251968503937,"duration":0.13671875},{"name":"D2","midi":38,"time":248.3815104166718,"velocity":0.84251968503937,"duration":0.13671875},{"name":"F3","midi":53,"time":248.3815104166718,"velocity":0.84251968503937,"duration":0.826822916666714},{"name":"E2","midi":40,"time":248.51953125000514,"velocity":0.84251968503937,"duration":0.13671875},{"name":"F2","midi":41,"time":248.6575520833385,"velocity":0.84251968503937,"duration":0.13671875},{"name":"A3","midi":57,"time":248.6575520833385,"velocity":0.84251968503937,"duration":0.2747395833333428},{"name":"G2","midi":43,"time":248.79557291667183,"velocity":0.84251968503937,"duration":0.13671875},{"name":"A2","midi":45,"time":248.93359375000517,"velocity":0.84251968503937,"duration":0.13671875},{"name":"D4","midi":62,"time":248.93359375000517,"velocity":0.84251968503937,"duration":0.5507812500000284},{"name":"B2","midi":47,"time":249.07161458333852,"velocity":0.84251968503937,"duration":0.13671875},{"name":"C3","midi":48,"time":249.20963541667186,"velocity":0.84251968503937,"duration":0.13671875},{"name":"E3","midi":52,"time":249.20963541667186,"velocity":0.84251968503937,"duration":0.5455729166666856},{"name":"A2","midi":45,"time":249.3476562500052,"velocity":0.84251968503937,"duration":0.13671875},{"name":"G#2","midi":44,"time":249.48567708333854,"velocity":0.84251968503937,"duration":0.13671875},{"name":"C4","midi":60,"time":249.48567708333854,"velocity":0.84251968503937,"duration":0.690104166666714},{"name":"F#2","midi":42,"time":249.6236979166719,"velocity":0.84251968503937,"duration":0.1354166666666572},{"name":"G#2","midi":44,"time":249.7604166666719,"velocity":0.84251968503937,"duration":0.13671875},{"name":"E3","midi":52,"time":249.7604166666719,"velocity":0.84251968503937,"duration":0.2734375},{"name":"A2","midi":45,"time":249.89843750000523,"velocity":0.84251968503937,"duration":0.13671875},{"name":"F#3","midi":54,"time":250.03645833333857,"velocity":0.84251968503937,"duration":0.1380208333333428},{"name":"D#2","midi":39,"time":250.03645833333857,"velocity":0.84251968503937,"duration":2.505208333333627},{"name":"G#3","midi":56,"time":250.17578125000526,"velocity":0.84251968503937,"duration":0.1380208333333428},{"name":"A3","midi":57,"time":250.31510416667194,"velocity":0.84251968503937,"duration":0.1380208333333428},{"name":"C4","midi":60,"time":250.45442708333863,"velocity":0.84251968503937,"duration":0.1380208333333428},{"name":"F#3","midi":54,"time":250.59375000000531,"velocity":0.84251968503937,"duration":0.1380208333333428},{"name":"A3","midi":57,"time":250.733072916672,"velocity":0.84251968503937,"duration":0.1380208333333428},{"name":"D#3","midi":51,"time":250.8723958333387,"velocity":0.84251968503937,"duration":0.1380208333333428},{"name":"E3","midi":52,"time":251.01171875000537,"velocity":0.84251968503937,"duration":0.1380208333333428},{"name":"F#3","midi":54,"time":251.15104166667206,"velocity":0.84251968503937,"duration":0.1380208333333428},{"name":"A3","midi":57,"time":251.29036458333874,"velocity":0.84251968503937,"duration":0.1380208333333428},{"name":"D#3","midi":51,"time":251.42968750000543,"velocity":0.84251968503937,"duration":0.1380208333333428},{"name":"F#3","midi":54,"time":251.5690104166721,"velocity":0.84251968503937,"duration":0.1380208333333428},{"name":"B2","midi":47,"time":251.7083333333388,"velocity":0.84251968503937,"duration":0.5507812500000284},{"name":"A3","midi":57,"time":251.84765625000546,"velocity":0.84251968503937,"duration":0.1380208333333428},{"name":"F#3","midi":54,"time":251.98697916667214,"velocity":0.84251968503937,"duration":0.1380208333333428},{"name":"D#3","midi":51,"time":252.12630208333883,"velocity":0.84251968503937,"duration":0.13671875},{"name":"B2","midi":47,"time":252.26432291667217,"velocity":0.84251968503937,"duration":0.1380208333333428},{"name":"D#3","midi":51,"time":252.40364583333886,"velocity":0.84251968503937,"duration":0.1380208333333428},{"name":"E2","midi":40,"time":252.5533854166722,"velocity":0.84251968503937,"duration":0.9752604166666572},{"name":"E3","midi":52,"time":252.70442708333886,"velocity":0.84251968503937,"duration":0.1393229166666572},{"name":"F#3","midi":54,"time":252.84505208333886,"velocity":0.84251968503937,"duration":0.1393229166666572},{"name":"G#3","midi":56,"time":252.98567708333886,"velocity":0.84251968503937,"duration":0.1393229166666572},{"name":"A3","midi":57,"time":253.12630208333886,"velocity":0.84251968503937,"duration":0.1393229166666572},{"name":"B3","midi":59,"time":253.26692708333886,"velocity":0.84251968503937,"duration":0.1393229166666572},{"name":"C4","midi":60,"time":253.40755208333886,"velocity":0.84251968503937,"duration":0.2786458333333428},{"name":"F#2","midi":42,"time":253.54817708333886,"velocity":0.84251968503937,"duration":0.13932291666668561},{"name":"G#2","midi":44,"time":253.68880208333889,"velocity":0.84251968503937,"duration":0.1393229166666572},{"name":"B3","midi":59,"time":253.68880208333889,"velocity":0.84251968503937,"duration":0.2786458333333428},{"name":"A2","midi":45,"time":253.82942708333889,"velocity":0.84251968503937,"duration":0.13932291666668561},{"name":"A3","midi":57,"time":253.9700520833389,"velocity":0.84251968503937,"duration":0.2786458333333428},{"name":"B2","midi":47,"time":253.9700520833389,"velocity":0.84251968503937,"duration":0.1393229166666572},{"name":"C3","midi":48,"time":254.1106770833389,"velocity":0.84251968503937,"duration":0.13932291666668561},{"name":"B3","midi":59,"time":254.25130208333894,"velocity":0.84251968503937,"duration":0.2786458333333428},{"name":"D3","midi":50,"time":254.25130208333894,"velocity":0.84251968503937,"duration":0.1393229166666572},{"name":"C3","midi":48,"time":254.39192708333894,"velocity":0.84251968503937,"duration":0.13932291666668561},{"name":"A3","midi":57,"time":254.53255208333897,"velocity":0.84251968503937,"duration":0.2786458333333428},{"name":"E3","midi":52,"time":254.53255208333897,"velocity":0.84251968503937,"duration":0.1393229166666572},{"name":"D3","midi":50,"time":254.67317708333897,"velocity":0.84251968503937,"duration":0.13932291666668561},{"name":"C3","midi":48,"time":254.813802083339,"velocity":0.84251968503937,"duration":0.1393229166666572},{"name":"G#3","midi":56,"time":254.813802083339,"velocity":0.84251968503937,"duration":0.2786458333333428},{"name":"B2","midi":47,"time":254.954427083339,"velocity":0.84251968503937,"duration":0.13932291666668561},{"name":"A3","midi":57,"time":255.09505208333903,"velocity":0.84251968503937,"duration":0.1393229166666572},{"name":"C3","midi":48,"time":255.09505208333903,"velocity":0.84251968503937,"duration":0.1393229166666572},{"name":"B3","midi":59,"time":255.23567708333903,"velocity":0.84251968503937,"duration":0.1393229166666572},{"name":"B2","midi":47,"time":255.23567708333903,"velocity":0.84251968503937,"duration":0.1393229166666572},{"name":"C4","midi":60,"time":255.37630208333903,"velocity":0.84251968503937,"duration":0.1393229166666572},{"name":"A2","midi":45,"time":255.37630208333903,"velocity":0.84251968503937,"duration":0.1393229166666572},{"name":"D4","midi":62,"time":255.51692708333903,"velocity":0.84251968503937,"duration":0.1393229166666572},{"name":"B2","midi":47,"time":255.51692708333903,"velocity":0.84251968503937,"duration":0.1393229166666572},{"name":"E4","midi":64,"time":255.65755208333903,"velocity":0.84251968503937,"duration":0.1393229166666572},{"name":"C3","midi":48,"time":255.65755208333903,"velocity":0.84251968503937,"duration":0.1393229166666572},{"name":"F4","midi":65,"time":255.79817708333903,"velocity":0.84251968503937,"duration":0.1393229166666572},{"name":"D3","midi":50,"time":255.79817708333903,"velocity":0.84251968503937,"duration":0.1393229166666572},{"name":"G4","midi":67,"time":255.93880208333903,"velocity":0.84251968503937,"duration":0.1393229166666572},{"name":"E3","midi":52,"time":255.93880208333903,"velocity":0.84251968503937,"duration":0.1393229166666572},{"name":"F4","midi":65,"time":256.079427083339,"velocity":0.84251968503937,"duration":0.13932291666668561},{"name":"D3","midi":50,"time":256.079427083339,"velocity":0.84251968503937,"duration":0.13932291666668561},{"name":"E4","midi":64,"time":256.220052083339,"velocity":0.84251968503937,"duration":0.13932291666668561},{"name":"C#3","midi":49,"time":256.220052083339,"velocity":0.84251968503937,"duration":0.13932291666668561},{"name":"F4","midi":65,"time":256.360677083339,"velocity":0.84251968503937,"duration":0.13932291666668561},{"name":"D3","midi":50,"time":256.360677083339,"velocity":0.84251968503937,"duration":0.13932291666668561},{"name":"G4","midi":67,"time":256.501302083339,"velocity":0.84251968503937,"duration":0.13932291666668561},{"name":"E3","midi":52,"time":256.501302083339,"velocity":0.84251968503937,"duration":0.13932291666668561},{"name":"A4","midi":69,"time":256.641927083339,"velocity":0.84251968503937,"duration":0.13932291666668561},{"name":"F3","midi":53,"time":256.641927083339,"velocity":0.84251968503937,"duration":0.13932291666668561},{"name":"G4","midi":67,"time":256.782552083339,"velocity":0.84251968503937,"duration":0.234375},{"name":"A#4","midi":70,"time":256.782552083339,"velocity":0.84251968503937,"duration":0.234375},{"name":"C#4","midi":61,"time":256.782552083339,"velocity":0.84251968503937,"duration":0.234375},{"name":"E4","midi":64,"time":256.782552083339,"velocity":0.84251968503937,"duration":0.234375},{"name":"G3","midi":55,"time":256.782552083339,"velocity":0.84251968503937,"duration":0.13932291666668561},{"name":"F3","midi":53,"time":256.923177083339,"velocity":0.84251968503937,"duration":0.13932291666668561},{"name":"D4","midi":62,"time":257.063802083339,"velocity":0.84251968503937,"duration":0.234375},{"name":"A4","midi":69,"time":257.063802083339,"velocity":0.84251968503937,"duration":0.234375},{"name":"F4","midi":65,"time":257.063802083339,"velocity":0.84251968503937,"duration":0.234375},{"name":"E3","midi":52,"time":257.063802083339,"velocity":0.84251968503937,"duration":0.13932291666668561},{"name":"F3","midi":53,"time":257.204427083339,"velocity":0.84251968503937,"duration":0.13932291666668561},{"name":"G4","midi":67,"time":257.345052083339,"velocity":0.84251968503937,"duration":0.234375},{"name":"C#4","midi":61,"time":257.345052083339,"velocity":0.84251968503937,"duration":0.234375},{"name":"E4","midi":64,"time":257.345052083339,"velocity":0.84251968503937,"duration":0.234375},{"name":"G3","midi":55,"time":257.345052083339,"velocity":0.84251968503937,"duration":0.13932291666668561},{"name":"A3","midi":57,"time":257.485677083339,"velocity":0.84251968503937,"duration":0.13932291666668561},{"name":"F4","midi":65,"time":257.626302083339,"velocity":0.84251968503937,"duration":1.4049479166666856},{"name":"D3","midi":50,"time":257.626302083339,"velocity":0.84251968503937,"duration":0.8424479166666856},{"name":"D4","midi":62,"time":257.766927083339,"velocity":0.84251968503937,"duration":0.13932291666668561},{"name":"C4","midi":60,"time":257.907552083339,"velocity":0.84251968503937,"duration":0.13932291666668561},{"name":"A#3","midi":58,"time":258.048177083339,"velocity":0.84251968503937,"duration":0.13932291666668561},{"name":"A3","midi":57,"time":258.188802083339,"velocity":0.84251968503937,"duration":0.13932291666668561},{"name":"G3","midi":55,"time":258.329427083339,"velocity":0.84251968503937,"duration":0.13932291666668561},{"name":"F3","midi":53,"time":258.470052083339,"velocity":0.84251968503937,"duration":0.13932291666668561},{"name":"E3","midi":52,"time":258.610677083339,"velocity":0.84251968503937,"duration":0.13932291666668561},{"name":"D3","midi":50,"time":258.751302083339,"velocity":0.84251968503937,"duration":0.13932291666668561},{"name":"C3","midi":48,"time":258.891927083339,"velocity":0.84251968503937,"duration":0.13932291666668561},{"name":"C4","midi":60,"time":259.032552083339,"velocity":0.84251968503937,"duration":0.2799479166666856},{"name":"D4","midi":62,"time":259.032552083339,"velocity":0.84251968503937,"duration":0.2799479166666856},{"name":"F4","midi":65,"time":259.032552083339,"velocity":0.84251968503937,"duration":0.2799479166666856},{"name":"B2","midi":47,"time":259.032552083339,"velocity":0.84251968503937,"duration":0.13932291666668561},{"name":"A2","midi":45,"time":259.173177083339,"velocity":0.84251968503937,"duration":0.13932291666668561},{"name":"F4","midi":65,"time":259.313802083339,"velocity":0.84251968503937,"duration":0.2799479166666856},{"name":"A4","midi":69,"time":259.313802083339,"velocity":0.84251968503937,"duration":0.2799479166666856},{"name":"B3","midi":59,"time":259.313802083339,"velocity":0.84251968503937,"duration":0.8424479166666856},{"name":"G2","midi":43,"time":259.313802083339,"velocity":0.84251968503937,"duration":0.8424479166666856},{"name":"G4","midi":67,"time":259.595052083339,"velocity":0.84251968503937,"duration":0.2799479166666856},{"name":"E4","midi":64,"time":259.595052083339,"velocity":0.84251968503937,"duration":0.2799479166666856},{"name":"F4","midi":65,"time":259.876302083339,"velocity":0.84251968503937,"duration":0.2799479166666856},{"name":"D4","midi":62,"time":259.876302083339,"velocity":0.84251968503937,"duration":0.2799479166666856},{"name":"E4","midi":64,"time":260.157552083339,"velocity":0.84251968503937,"duration":1.4049479166666856},{"name":"C3","midi":48,"time":260.157552083339,"velocity":0.84251968503937,"duration":0.8424479166666856},{"name":"C4","midi":60,"time":260.298177083339,"velocity":0.84251968503937,"duration":0.13932291666668561},{"name":"B3","midi":59,"time":260.438802083339,"velocity":0.84251968503937,"duration":0.13932291666668561},{"name":"A3","midi":57,"time":260.579427083339,"velocity":0.84251968503937,"duration":0.13932291666668561},{"name":"G3","midi":55,"time":260.720052083339,"velocity":0.84251968503937,"duration":0.13932291666668561},{"name":"F3","midi":53,"time":260.860677083339,"velocity":0.84251968503937,"duration":0.13932291666668561},{"name":"E3","midi":52,"time":261.001302083339,"velocity":0.84251968503937,"duration":0.13932291666668561},{"name":"D3","midi":50,"time":261.141927083339,"velocity":0.84251968503937,"duration":0.13932291666668561},{"name":"C3","midi":48,"time":261.282552083339,"velocity":0.84251968503937,"duration":0.13932291666668561},{"name":"B2","midi":47,"time":261.423177083339,"velocity":0.84251968503937,"duration":0.13932291666668561},{"name":"E4","midi":64,"time":261.563802083339,"velocity":0.84251968503937,"duration":1.1236979166666856},{"name":"A2","midi":45,"time":261.563802083339,"velocity":0.84251968503937,"duration":0.13932291666668561},{"name":"G2","midi":43,"time":261.704427083339,"velocity":0.84251968503937,"duration":0.13932291666668561},{"name":"A4","midi":69,"time":261.845052083339,"velocity":0.84251968503937,"duration":0.13932291666668561},{"name":"F#2","midi":42,"time":261.845052083339,"velocity":0.84251968503937,"duration":0.8424479166666856},{"name":"B4","midi":71,"time":261.985677083339,"velocity":0.84251968503937,"duration":0.13932291666668561},{"name":"A4","midi":69,"time":262.126302083339,"velocity":0.84251968503937,"duration":0.13932291666668561},{"name":"B4","midi":71,"time":262.266927083339,"velocity":0.84251968503937,"duration":0.13932291666668561},{"name":"C5","midi":72,"time":262.407552083339,"velocity":0.84251968503937,"duration":0.2799479166666856},{"name":"D4","midi":62,"time":262.688802083339,"velocity":0.84251968503937,"duration":1.1236979166666856},{"name":"B2","midi":47,"time":262.829427083339,"velocity":0.84251968503937,"duration":0.13932291666668561},{"name":"C3","midi":48,"time":262.970052083339,"velocity":0.84251968503937,"duration":0.13932291666668561},{"name":"D3","midi":50,"time":263.110677083339,"velocity":0.84251968503937,"duration":0.13932291666668561},{"name":"E3","midi":52,"time":263.251302083339,"velocity":0.84251968503937,"duration":0.13932291666668561},{"name":"F#3","midi":54,"time":263.391927083339,"velocity":0.84251968503937,"duration":0.13932291666668561},{"name":"G#3","midi":56,"time":263.532552083339,"velocity":0.84251968503937,"duration":0.13932291666668561},{"name":"A3","midi":57,"time":263.673177083339,"velocity":0.84251968503937,"duration":0.13932291666668561},{"name":"B3","midi":59,"time":263.813802083339,"velocity":0.84251968503937,"duration":0.13932291666668561},{"name":"C4","midi":60,"time":263.954427083339,"velocity":0.84251968503937,"duration":0.13932291666668561},{"name":"A3","midi":57,"time":264.095052083339,"velocity":0.84251968503937,"duration":0.2786458333333144},{"name":"D4","midi":62,"time":264.095052083339,"velocity":0.84251968503937,"duration":0.13932291666668561},{"name":"B2","midi":47,"time":264.095052083339,"velocity":0.84251968503937,"duration":0.27994791666662877},{"name":"E4","midi":64,"time":264.235677083339,"velocity":0.84251968503937,"duration":0.13932291666662877},{"name":"G#3","midi":56,"time":264.37630208333894,"velocity":0.84251968503937,"duration":0.8424479166666856},{"name":"F4","midi":65,"time":264.37630208333894,"velocity":0.84251968503937,"duration":0.2799479166666856},{"name":"D4","midi":62,"time":264.37630208333894,"velocity":0.84251968503937,"duration":0.2799479166666856},{"name":"E3","midi":52,"time":264.37630208333894,"velocity":0.84251968503937,"duration":0.5611979166666856},{"name":"C4","midi":60,"time":264.65755208333894,"velocity":0.84251968503937,"duration":0.2799479166666856},{"name":"E4","midi":64,"time":264.65755208333894,"velocity":0.84251968503937,"duration":0.2799479166666856},{"name":"B3","midi":59,"time":264.93880208333894,"velocity":0.84251968503937,"duration":0.2799479166666856},{"name":"D4","midi":62,"time":264.93880208333894,"velocity":0.84251968503937,"duration":0.2799479166666856},{"name":"E2","midi":40,"time":264.93880208333894,"velocity":0.84251968503937,"duration":0.2799479166666856},{"name":"A3","midi":57,"time":265.22005208333894,"velocity":0.84251968503937,"duration":0.27604166666662877},{"name":"C4","midi":60,"time":265.22005208333894,"velocity":0.84251968503937,"duration":0.13802083333331439},{"name":"A2","midi":45,"time":265.22005208333894,"velocity":0.84251968503937,"duration":0.4166666666665719},{"name":"D4","midi":62,"time":265.35937500000557,"velocity":0.84251968503937,"duration":0.13802083333331439},{"name":"E4","midi":64,"time":265.4986979166722,"velocity":0.84251968503937,"duration":0.13802083333331439},{"name":"C4","midi":60,"time":265.6380208333388,"velocity":0.84251968503937,"duration":0.13802083333331439},{"name":"A2","midi":45,"time":265.6380208333388,"velocity":0.84251968503937,"duration":0.13802083333331439},{"name":"D4","midi":62,"time":265.77734375000546,"velocity":0.84251968503937,"duration":0.13802083333331439},{"name":"B2","midi":47,"time":265.77734375000546,"velocity":0.84251968503937,"duration":0.13802083333331439},{"name":"E4","midi":64,"time":265.9166666666721,"velocity":0.84251968503937,"duration":0.13802083333331439},{"name":"C3","midi":48,"time":265.9166666666721,"velocity":0.84251968503937,"duration":0.13802083333331439},{"name":"F4","midi":65,"time":266.0559895833387,"velocity":0.84251968503937,"duration":0.13802083333331439},{"name":"D3","midi":50,"time":266.0559895833387,"velocity":0.84251968503937,"duration":0.13802083333331439},{"name":"G4","midi":67,"time":266.19531250000534,"velocity":0.84251968503937,"duration":0.13802083333331439},{"name":"E3","midi":52,"time":266.19531250000534,"velocity":0.84251968503937,"duration":0.13802083333331439},{"name":"A4","midi":69,"time":266.334635416672,"velocity":0.84251968503937,"duration":0.13802083333331439},{"name":"F3","midi":53,"time":266.334635416672,"velocity":0.84251968503937,"duration":0.13802083333331439},{"name":"F4","midi":65,"time":266.4739583333386,"velocity":0.84251968503937,"duration":0.13802083333331439},{"name":"D3","midi":50,"time":266.4739583333386,"velocity":0.84251968503937,"duration":0.13802083333331439},{"name":"G4","midi":67,"time":266.61328125000523,"velocity":0.84251968503937,"duration":0.13802083333331439},{"name":"E3","midi":52,"time":266.61328125000523,"velocity":0.84251968503937,"duration":0.13802083333331439},{"name":"A4","midi":69,"time":266.75260416667186,"velocity":0.84251968503937,"duration":0.13802083333331439},{"name":"F3","midi":53,"time":266.75260416667186,"velocity":0.84251968503937,"duration":0.13802083333331439},{"name":"B4","midi":71,"time":266.8919270833385,"velocity":0.84251968503937,"duration":0.13802083333331439},{"name":"D3","midi":50,"time":266.8919270833385,"velocity":0.84251968503937,"duration":0.13802083333331439},{"name":"C5","midi":72,"time":267.0312500000051,"velocity":0.84251968503937,"duration":0.13802083333331439},{"name":"E3","midi":52,"time":267.0312500000051,"velocity":0.84251968503937,"duration":0.13802083333331439},{"name":"D5","midi":74,"time":267.17057291667174,"velocity":0.84251968503937,"duration":0.13802083333331439},{"name":"F3","midi":53,"time":267.17057291667174,"velocity":0.84251968503937,"duration":0.13802083333331439},{"name":"B4","midi":71,"time":267.3098958333384,"velocity":0.84251968503937,"duration":0.13802083333331439},{"name":"D3","midi":50,"time":267.3098958333384,"velocity":0.84251968503937,"duration":0.13802083333331439},{"name":"C5","midi":72,"time":267.449218750005,"velocity":0.84251968503937,"duration":0.13802083333331439},{"name":"E3","midi":52,"time":267.449218750005,"velocity":0.84251968503937,"duration":0.13802083333331439},{"name":"D5","midi":74,"time":267.58854166667163,"velocity":0.84251968503937,"duration":0.13802083333331439},{"name":"F3","midi":53,"time":267.58854166667163,"velocity":0.84251968503937,"duration":0.13802083333331439},{"name":"E4","midi":64,"time":267.72786458333826,"velocity":0.84251968503937,"duration":0.27734374999994316},{"name":"G#2","midi":44,"time":267.72786458333826,"velocity":0.84251968503937,"duration":0.13802083333331439},{"name":"F3","midi":53,"time":267.8671875000049,"velocity":0.84251968503937,"duration":0.13802083333331439},{"name":"F#4","midi":66,"time":268.0065104166715,"velocity":0.84251968503937,"duration":0.13802083333331439},{"name":"E3","midi":52,"time":268.0065104166715,"velocity":0.84251968503937,"duration":0.13802083333331439},{"name":"G#4","midi":68,"time":268.14583333333815,"velocity":0.84251968503937,"duration":0.13802083333331439},{"name":"D3","midi":50,"time":268.14583333333815,"velocity":0.84251968503937,"duration":0.13802083333331439},{"name":"A4","midi":69,"time":268.2851562500048,"velocity":0.84251968503937,"duration":0.13802083333331439},{"name":"C3","midi":48,"time":268.2851562500048,"velocity":0.84251968503937,"duration":0.13802083333331439},{"name":"B4","midi":71,"time":268.4244791666714,"velocity":0.84251968503937,"duration":0.13802083333331439},{"name":"B2","midi":47,"time":268.4244791666714,"velocity":0.84251968503937,"duration":0.13802083333331439},{"name":"C5","midi":72,"time":268.56380208333803,"velocity":0.84251968503937,"duration":0.27734374999994316},{"name":"A2","midi":45,"time":268.56380208333803,"velocity":0.84251968503937,"duration":0.13802083333331439},{"name":"B2","midi":47,"time":268.70312500000466,"velocity":0.84251968503937,"duration":0.13802083333331439},{"name":"B4","midi":71,"time":268.8424479166713,"velocity":0.84251968503937,"duration":0.27734374999994316},{"name":"A2","midi":45,"time":268.8424479166713,"velocity":0.84251968503937,"duration":0.13802083333331439},{"name":"G2","midi":43,"time":268.9817708333379,"velocity":0.84251968503937,"duration":0.13802083333331439},{"name":"A4","midi":69,"time":269.12109375000455,"velocity":0.84251968503937,"duration":0.27734374999994316},{"name":"F2","midi":41,"time":269.12109375000455,"velocity":0.84251968503937,"duration":0.13802083333331439},{"name":"E2","midi":40,"time":269.2604166666712,"velocity":0.84251968503937,"duration":0.13802083333331439},{"name":"B4","midi":71,"time":269.3997395833378,"velocity":0.84251968503937,"duration":0.27734375},{"name":"D2","midi":38,"time":269.3997395833378,"velocity":0.84251968503937,"duration":0.27734375},{"name":"C5","midi":72,"time":269.6783854166711,"velocity":0.84251968503937,"duration":0.13802083333331439},{"name":"D3","midi":50,"time":269.6783854166711,"velocity":0.84251968503937,"duration":0.27734374999994316},{"name":"B4","midi":71,"time":269.81770833333775,"velocity":0.84251968503937,"duration":0.13802083333331439},{"name":"A4","midi":69,"time":269.9570312500044,"velocity":0.84251968503937,"duration":0.13802083333331439},{"name":"E3","midi":52,"time":269.9570312500044,"velocity":0.84251968503937,"duration":0.27734374999994316},{"name":"G#4","midi":68,"time":270.096354166671,"velocity":0.84251968503937,"duration":0.13802083333331439},{"name":"E5","midi":76,"time":270.23567708333763,"velocity":0.84251968503937,"duration":0.13802083333331439},{"name":"C3","midi":48,"time":270.23567708333763,"velocity":0.84251968503937,"duration":0.4166666666665719},{"name":"D5","midi":74,"time":270.37500000000426,"velocity":0.84251968503937,"duration":0.13802083333331439},{"name":"C5","midi":72,"time":270.5143229166709,"velocity":0.84251968503937,"duration":0.13802083333331439},{"name":"B4","midi":71,"time":270.6536458333375,"velocity":0.84251968503937,"duration":0.13802083333331439},{"name":"C3","midi":48,"time":270.6536458333375,"velocity":0.84251968503937,"duration":0.13802083333331439},{"name":"A4","midi":69,"time":270.79296875000415,"velocity":0.84251968503937,"duration":0.13802083333331439},{"name":"D3","midi":50,"time":270.79296875000415,"velocity":0.84251968503937,"duration":0.13802083333331439},{"name":"G#4","midi":68,"time":270.9322916666708,"velocity":0.84251968503937,"duration":0.13802083333331439},{"name":"E3","midi":52,"time":270.9322916666708,"velocity":0.84251968503937,"duration":0.13802083333331439},{"name":"A4","midi":69,"time":271.0716145833374,"velocity":0.84251968503937,"duration":0.13802083333331439},{"name":"F3","midi":53,"time":271.0716145833374,"velocity":0.84251968503937,"duration":0.27734374999994316},{"name":"B4","midi":71,"time":271.21093750000404,"velocity":0.84251968503937,"duration":0.13802083333331439},{"name":"A4","midi":69,"time":271.35026041667066,"velocity":0.84251968503937,"duration":0.13802083333331439},{"name":"E3","midi":52,"time":271.35026041667066,"velocity":0.84251968503937,"duration":0.27734374999994316},{"name":"B4","midi":71,"time":271.4895833333373,"velocity":0.84251968503937,"duration":0.13802083333331439},{"name":"C5","midi":72,"time":271.6289062500039,"velocity":0.84251968503937,"duration":0.27734375},{"name":"F4","midi":65,"time":271.6289062500039,"velocity":0.84251968503937,"duration":0.27734375},{"name":"D3","midi":50,"time":271.6289062500039,"velocity":0.84251968503937,"duration":0.27734375},{"name":"E4","midi":64,"time":271.90755208333724,"velocity":0.84251968503937,"duration":0.55078125},{"name":"E3","midi":52,"time":271.90755208333724,"velocity":0.84251968503937,"duration":0.8333333333333144},{"name":"A4","midi":69,"time":272.18619791667055,"velocity":0.84251968503937,"duration":0.2760416666666856},{"name":"D4","midi":62,"time":272.46354166667055,"velocity":0.84251968503937,"duration":0.27734375},{"name":"G#4","midi":68,"time":272.46354166667055,"velocity":0.84251968503937,"duration":0.27734375},{"name":"E2","midi":40,"time":272.46354166667055,"velocity":0.84251968503937,"duration":0.27734375},{"name":"C#4","midi":61,"time":272.74218750000387,"velocity":0.84251968503937,"duration":0.140625},{"name":"A4","midi":69,"time":272.74218750000387,"velocity":0.84251968503937,"duration":0.28125},{"name":"E3","midi":52,"time":272.74218750000387,"velocity":0.84251968503937,"duration":0.2825520833333144},{"name":"A2","midi":45,"time":272.74218750000387,"velocity":0.84251968503937,"duration":0.2825520833333144},{"name":"A3","midi":57,"time":272.8841145833372,"velocity":0.84251968503937,"duration":0.140625},{"name":"B3","midi":59,"time":273.0260416666705,"velocity":0.84251968503937,"duration":0.140625},{"name":"A2","midi":45,"time":273.0260416666705,"velocity":0.84251968503937,"duration":0.2825520833333144},{"name":"C#4","midi":61,"time":273.1679687500038,"velocity":0.84251968503937,"duration":0.140625},{"name":"D4","midi":62,"time":273.3098958333371,"velocity":0.84251968503937,"duration":0.140625},{"name":"A2","midi":45,"time":273.3098958333371,"velocity":0.84251968503937,"duration":0.2825520833333144},{"name":"E4","midi":64,"time":273.45182291667044,"velocity":0.84251968503937,"duration":0.140625},{"name":"F4","midi":65,"time":273.59375000000375,"velocity":0.84251968503937,"duration":0.2825520833333144},{"name":"A2","midi":45,"time":273.59375000000375,"velocity":0.84251968503937,"duration":0.28125},{"name":"A3","midi":57,"time":273.73567708333707,"velocity":0.84251968503937,"duration":0.28125},{"name":"E4","midi":64,"time":273.8776041666704,"velocity":0.84251968503937,"duration":0.28255208333337123},{"name":"A2","midi":45,"time":273.8776041666704,"velocity":0.84251968503937,"duration":0.28125000000005684},{"name":"G3","midi":55,"time":274.01953125000375,"velocity":0.84251968503937,"duration":0.28125},{"name":"D4","midi":62,"time":274.16145833333707,"velocity":0.84251968503937,"duration":0.28255208333337123},{"name":"A3","midi":57,"time":274.16145833333707,"velocity":0.84251968503937,"duration":0.28255208333337123},{"name":"A2","midi":45,"time":274.16145833333707,"velocity":0.84251968503937,"duration":0.28125000000005684},{"name":"F3","midi":53,"time":274.30338541667044,"velocity":0.84251968503937,"duration":0.140625},{"name":"A#3","midi":58,"time":274.44531250000375,"velocity":0.84251968503937,"duration":0.2825520833333144},{"name":"E4","midi":64,"time":274.44531250000375,"velocity":0.84251968503937,"duration":0.2825520833333144},{"name":"A2","midi":45,"time":274.44531250000375,"velocity":0.84251968503937,"duration":0.28125},{"name":"G3","midi":55,"time":274.58723958333707,"velocity":0.84251968503937,"duration":0.28125},{"name":"A3","midi":57,"time":274.7291666666704,"velocity":0.84251968503937,"duration":0.28255208333337123},{"name":"D4","midi":62,"time":274.7291666666704,"velocity":0.84251968503937,"duration":0.28255208333337123},{"name":"A2","midi":45,"time":274.7291666666704,"velocity":0.84251968503937,"duration":0.28125000000005684},{"name":"F3","midi":53,"time":274.87109375000375,"velocity":0.84251968503937,"duration":0.28125},{"name":"G3","midi":55,"time":275.01302083333707,"velocity":0.84251968503937,"duration":0.28255208333337123},{"name":"C#4","midi":61,"time":275.01302083333707,"velocity":0.84251968503937,"duration":0.28255208333337123},{"name":"A2","midi":45,"time":275.01302083333707,"velocity":0.84251968503937,"duration":0.28125000000005684},{"name":"E3","midi":52,"time":275.15494791667044,"velocity":0.84251968503937,"duration":0.140625},{"name":"D4","midi":62,"time":275.29687500000375,"velocity":0.84251968503937,"duration":0.2825520833333144},{"name":"A3","midi":57,"time":275.29687500000375,"velocity":0.84251968503937,"duration":0.2825520833333144},{"name":"F3","midi":53,"time":275.29687500000375,"velocity":0.84251968503937,"duration":0.140625},{"name":"A2","midi":45,"time":275.43880208333707,"velocity":0.84251968503937,"duration":0.140625},{"name":"A3","midi":57,"time":275.5807291666704,"velocity":0.84251968503937,"duration":0.2825520833333144},{"name":"B2","midi":47,"time":275.5807291666704,"velocity":0.84251968503937,"duration":0.140625},{"name":"C#3","midi":49,"time":275.7226562500037,"velocity":0.84251968503937,"duration":0.140625},{"name":"A3","midi":57,"time":275.864583333337,"velocity":0.84251968503937,"duration":0.2825520833333144},{"name":"D3","midi":50,"time":275.864583333337,"velocity":0.84251968503937,"duration":0.140625},{"name":"E3","midi":52,"time":276.0065104166703,"velocity":0.84251968503937,"duration":0.140625},{"name":"A3","midi":57,"time":276.14843750000364,"velocity":0.84251968503937,"duration":0.28125},{"name":"F3","midi":53,"time":276.14843750000364,"velocity":0.84251968503937,"duration":0.2825520833333144},{"name":"A4","midi":69,"time":276.29036458333695,"velocity":0.84251968503937,"duration":0.28125},{"name":"A3","midi":57,"time":276.43229166667027,"velocity":0.84251968503937,"duration":0.28125000000005684},{"name":"E3","midi":52,"time":276.43229166667027,"velocity":0.84251968503937,"duration":0.28255208333337123},{"name":"G4","midi":67,"time":276.57421875000364,"velocity":0.84251968503937,"duration":0.28125},{"name":"A3","midi":57,"time":276.71614583333695,"velocity":0.84251968503937,"duration":0.28125000000005684},{"name":"D3","midi":50,"time":276.71614583333695,"velocity":0.84251968503937,"duration":0.28255208333337123},{"name":"F4","midi":65,"time":276.8580729166703,"velocity":0.84251968503937,"duration":0.140625},{"name":"A3","midi":57,"time":277.00000000000364,"velocity":0.84251968503937,"duration":0.28125},{"name":"E3","midi":52,"time":277.00000000000364,"velocity":0.84251968503937,"duration":0.2825520833333144},{"name":"G4","midi":67,"time":277.14192708333695,"velocity":0.84251968503937,"duration":0.28125},{"name":"A3","midi":57,"time":277.28385416667027,"velocity":0.84251968503937,"duration":0.28125000000005684},{"name":"D3","midi":50,"time":277.28385416667027,"velocity":0.84251968503937,"duration":0.28255208333337123},{"name":"F4","midi":65,"time":277.42578125000364,"velocity":0.84251968503937,"duration":0.28125},{"name":"A3","midi":57,"time":277.56770833333695,"velocity":0.84251968503937,"duration":0.28125000000005684},{"name":"C#3","midi":49,"time":277.56770833333695,"velocity":0.84251968503937,"duration":0.28255208333337123},{"name":"E4","midi":64,"time":277.7096354166703,"velocity":0.84251968503937,"duration":0.140625},{"name":"F4","midi":65,"time":277.85156250000364,"velocity":0.84251968503937,"duration":0.140625},{"name":"A3","midi":57,"time":277.85156250000364,"velocity":0.84251968503937,"duration":0.28125},{"name":"D3","midi":50,"time":277.85156250000364,"velocity":0.84251968503937,"duration":0.2825520833333144},{"name":"D4","midi":62,"time":277.99348958333695,"velocity":0.84251968503937,"duration":0.140625},{"name":"E4","midi":64,"time":278.13541666667027,"velocity":0.84251968503937,"duration":0.140625},{"name":"D3","midi":50,"time":278.13541666667027,"velocity":0.84251968503937,"duration":0.2825520833333144},{"name":"F#4","midi":66,"time":278.2773437500036,"velocity":0.84251968503937,"duration":0.140625},{"name":"G4","midi":67,"time":278.4192708333369,"velocity":0.84251968503937,"duration":0.140625},{"name":"D3","midi":50,"time":278.4192708333369,"velocity":0.84251968503937,"duration":0.2825520833333144},{"name":"A4","midi":69,"time":278.5611979166702,"velocity":0.84251968503937,"duration":0.140625},{"name":"A#4","midi":70,"time":278.7031250000035,"velocity":0.84251968503937,"duration":0.2825520833333144},{"name":"D3","midi":50,"time":278.7031250000035,"velocity":0.84251968503937,"duration":0.28125},{"name":"D4","midi":62,"time":278.84505208333684,"velocity":0.84251968503937,"duration":0.28125},{"name":"A4","midi":69,"time":278.98697916667015,"velocity":0.84251968503937,"duration":0.28255208333337123},{"name":"D3","midi":50,"time":278.98697916667015,"velocity":0.84251968503937,"duration":0.28125000000005684},{"name":"C4","midi":60,"time":279.1289062500035,"velocity":0.84251968503937,"duration":0.28125},{"name":"G4","midi":67,"time":279.27083333333684,"velocity":0.84251968503937,"duration":0.28255208333337123},{"name":"D4","midi":62,"time":279.27083333333684,"velocity":0.84251968503937,"duration":0.28255208333337123},{"name":"D3","midi":50,"time":279.27083333333684,"velocity":0.84251968503937,"duration":0.28125000000005684},{"name":"A#3","midi":58,"time":279.4127604166702,"velocity":0.84251968503937,"duration":0.140625},{"name":"D#4","midi":63,"time":279.5546875000035,"velocity":0.84251968503937,"duration":0.2825520833333144},{"name":"A4","midi":69,"time":279.5546875000035,"velocity":0.84251968503937,"duration":0.2825520833333144},{"name":"D3","midi":50,"time":279.5546875000035,"velocity":0.84251968503937,"duration":0.28125},{"name":"C4","midi":60,"time":279.69661458333684,"velocity":0.84251968503937,"duration":0.28125},{"name":"G4","midi":67,"time":279.83854166667015,"velocity":0.84251968503937,"duration":0.28255208333337123},{"name":"D4","midi":62,"time":279.83854166667015,"velocity":0.84251968503937,"duration":0.28255208333337123},{"name":"D3","midi":50,"time":279.83854166667015,"velocity":0.84251968503937,"duration":0.28125000000005684},{"name":"A#3","midi":58,"time":279.9804687500035,"velocity":0.84251968503937,"duration":0.28125},{"name":"F#4","midi":66,"time":280.12239583333684,"velocity":0.84251968503937,"duration":0.28255208333337123},{"name":"C4","midi":60,"time":280.12239583333684,"velocity":0.84251968503937,"duration":0.28255208333337123},{"name":"D3","midi":50,"time":280.12239583333684,"velocity":0.84251968503937,"duration":0.28125000000005684},{"name":"A3","midi":57,"time":280.2643229166702,"velocity":0.84251968503937,"duration":0.140625},{"name":"D4","midi":62,"time":280.4062500000035,"velocity":0.84251968503937,"duration":0.2825520833333144},{"name":"G4","midi":67,"time":280.4062500000035,"velocity":0.84251968503937,"duration":0.2825520833333144},{"name":"A#3","midi":58,"time":280.4062500000035,"velocity":0.84251968503937,"duration":0.140625},{"name":"D3","midi":50,"time":280.54817708333684,"velocity":0.84251968503937,"duration":0.140625},{"name":"D4","midi":62,"time":280.69010416667015,"velocity":0.84251968503937,"duration":0.2825520833333144},{"name":"E3","midi":52,"time":280.69010416667015,"velocity":0.84251968503937,"duration":0.140625},{"name":"F#3","midi":54,"time":280.83203125000347,"velocity":0.84251968503937,"duration":0.140625},{"name":"D4","midi":62,"time":280.9739583333368,"velocity":0.84251968503937,"duration":0.2825520833333144},{"name":"G3","midi":55,"time":280.9739583333368,"velocity":0.84251968503937,"duration":0.140625},{"name":"A3","midi":57,"time":281.1158854166701,"velocity":0.84251968503937,"duration":0.140625},{"name":"D4","midi":62,"time":281.2578125000034,"velocity":0.84251968503937,"duration":0.28125},{"name":"A#3","midi":58,"time":281.2578125000034,"velocity":0.84251968503937,"duration":0.2825520833333144},{"name":"D5","midi":74,"time":281.3997395833367,"velocity":0.84251968503937,"duration":0.28125},{"name":"D4","midi":62,"time":281.54166666667004,"velocity":0.84251968503937,"duration":0.28125000000005684},{"name":"A3","midi":57,"time":281.54166666667004,"velocity":0.84251968503937,"duration":0.28255208333337123},{"name":"C5","midi":72,"time":281.6835937500034,"velocity":0.84251968503937,"duration":0.28125},{"name":"D4","midi":62,"time":281.8255208333367,"velocity":0.84251968503937,"duration":0.28125000000005684},{"name":"G3","midi":55,"time":281.8255208333367,"velocity":0.84251968503937,"duration":0.28255208333337123},{"name":"A#4","midi":70,"time":281.9674479166701,"velocity":0.84251968503937,"duration":0.140625},{"name":"D4","midi":62,"time":282.1093750000034,"velocity":0.84251968503937,"duration":0.28125},{"name":"A3","midi":57,"time":282.1093750000034,"velocity":0.84251968503937,"duration":0.2825520833333144},{"name":"C5","midi":72,"time":282.2513020833367,"velocity":0.84251968503937,"duration":0.28125},{"name":"D4","midi":62,"time":282.39322916667004,"velocity":0.84251968503937,"duration":0.28125000000005684},{"name":"G3","midi":55,"time":282.39322916667004,"velocity":0.84251968503937,"duration":0.28255208333337123},{"name":"A#4","midi":70,"time":282.5351562500034,"velocity":0.84251968503937,"duration":0.28125},{"name":"D4","midi":62,"time":282.6770833333367,"velocity":0.84251968503937,"duration":0.28125000000005684},{"name":"F#3","midi":54,"time":282.6770833333367,"velocity":0.84251968503937,"duration":0.28255208333337123},{"name":"A4","midi":69,"time":282.8190104166701,"velocity":0.84251968503937,"duration":0.140625},{"name":"D4","midi":62,"time":282.9609375000034,"velocity":0.84251968503937,"duration":0.27994791666662877},{"name":"A#4","midi":70,"time":282.9609375000034,"velocity":0.84251968503937,"duration":0.27994791666662877},{"name":"G3","midi":55,"time":282.9609375000034,"velocity":0.84251968503937,"duration":0.2786458333333144},{"name":"D5","midi":74,"time":283.2630208333367,"velocity":0.84251968503937,"duration":0.2799479166666856},{"name":"D5","midi":74,"time":283.5442708333367,"velocity":0.84251968503937,"duration":0.2799479166666856},{"name":"D5","midi":74,"time":283.8255208333367,"velocity":0.84251968503937,"duration":0.2799479166666856},{"name":"D5","midi":74,"time":284.1067708333367,"velocity":0.84251968503937,"duration":0.2799479166666856},{"name":"G4","midi":67,"time":284.3880208333367,"velocity":0.84251968503937,"duration":0.2799479166666856},{"name":"D5","midi":74,"time":284.3880208333367,"velocity":0.84251968503937,"duration":0.2799479166666856},{"name":"A#4","midi":70,"time":284.3880208333367,"velocity":0.84251968503937,"duration":0.2799479166666856},{"name":"D#4","midi":63,"time":284.6692708333367,"velocity":0.84251968503937,"duration":0.2799479166666856},{"name":"D#5","midi":75,"time":284.6692708333367,"velocity":0.84251968503937,"duration":0.13932291666668561},{"name":"C5","midi":72,"time":284.6692708333367,"velocity":0.84251968503937,"duration":0.5559895833333144},{"name":"F5","midi":77,"time":284.8098958333367,"velocity":0.84251968503937,"duration":0.13932291666668561},{"name":"D4","midi":62,"time":284.9505208333367,"velocity":0.84251968503937,"duration":0.2786458333333144},{"name":"G5","midi":79,"time":284.9505208333367,"velocity":0.84251968503937,"duration":0.13932291666668561},{"name":"D#5","midi":75,"time":285.0911458333367,"velocity":0.84251968503937,"duration":0.13802083333331439},{"name":"C4","midi":60,"time":285.23046875000335,"velocity":0.84251968503937,"duration":0.27994791666662877},{"name":"A#4","midi":70,"time":285.23046875000335,"velocity":0.84251968503937,"duration":0.2786458333333144},{"name":"F5","midi":77,"time":285.23046875000335,"velocity":0.84251968503937,"duration":0.13932291666668561},{"name":"G5","midi":79,"time":285.37109375000335,"velocity":0.84251968503937,"duration":0.13932291666662877},{"name":"F4","midi":65,"time":285.5117187500033,"velocity":0.84251968503937,"duration":0.8424479166666856},{"name":"C5","midi":72,"time":285.5117187500033,"velocity":0.84251968503937,"duration":0.2799479166666856},{"name":"A4","midi":69,"time":285.5117187500033,"velocity":0.84251968503937,"duration":0.8424479166666856},{"name":"C5","midi":72,"time":285.7929687500033,"velocity":0.84251968503937,"duration":0.2799479166666856},{"name":"C5","midi":72,"time":286.0742187500033,"velocity":0.84251968503937,"duration":0.2799479166666856},{"name":"C5","midi":72,"time":286.3554687500033,"velocity":0.84251968503937,"duration":0.2799479166666856},{"name":"C5","midi":72,"time":286.6367187500033,"velocity":0.84251968503937,"duration":0.2799479166666856},{"name":"D#4","midi":63,"time":286.9179687500033,"velocity":0.84251968503937,"duration":0.2799479166666856},{"name":"C5","midi":72,"time":286.9179687500033,"velocity":0.84251968503937,"duration":0.2799479166666856},{"name":"A4","midi":69,"time":286.9179687500033,"velocity":0.84251968503937,"duration":0.2799479166666856},{"name":"D4","midi":62,"time":287.1992187500033,"velocity":0.84251968503937,"duration":0.2799479166666856},{"name":"D5","midi":74,"time":287.1992187500033,"velocity":0.84251968503937,"duration":0.13932291666668561},{"name":"A#4","midi":70,"time":287.1992187500033,"velocity":0.84251968503937,"duration":0.5559895833333144},{"name":"D#5","midi":75,"time":287.3398437500033,"velocity":0.84251968503937,"duration":0.13932291666668561},{"name":"C4","midi":60,"time":287.4804687500033,"velocity":0.84251968503937,"duration":0.2786458333333144},{"name":"F5","midi":77,"time":287.4804687500033,"velocity":0.84251968503937,"duration":0.13932291666668561},{"name":"D5","midi":74,"time":287.6210937500033,"velocity":0.84251968503937,"duration":0.13802083333331439},{"name":"A#3","midi":58,"time":287.7604166666699,"velocity":0.84251968503937,"duration":0.27994791666662877},{"name":"G#4","midi":68,"time":287.7604166666699,"velocity":0.84251968503937,"duration":0.2786458333333144},{"name":"D#5","midi":75,"time":287.7604166666699,"velocity":0.84251968503937,"duration":0.13932291666668561},{"name":"F5","midi":77,"time":287.9010416666699,"velocity":0.84251968503937,"duration":0.13932291666662877},{"name":"D#4","midi":63,"time":288.04166666666987,"velocity":0.84251968503937,"duration":0.5611979166666856},{"name":"G4","midi":67,"time":288.04166666666987,"velocity":0.84251968503937,"duration":1.40625},{"name":"A#4","midi":70,"time":288.04166666666987,"velocity":0.84251968503937,"duration":0.13932291666668561},{"name":"C5","midi":72,"time":288.18229166666987,"velocity":0.84251968503937,"duration":0.13932291666668561},{"name":"D5","midi":74,"time":288.32291666666987,"velocity":0.84251968503937,"duration":0.13932291666668561},{"name":"A#4","midi":70,"time":288.46354166666987,"velocity":0.84251968503937,"duration":0.13932291666668561},{"name":"D4","midi":62,"time":288.60416666666987,"velocity":0.84251968503937,"duration":0.2799479166666856},{"name":"C5","midi":72,"time":288.60416666666987,"velocity":0.84251968503937,"duration":0.13932291666668561},{"name":"D5","midi":74,"time":288.74479166666987,"velocity":0.84251968503937,"duration":0.13932291666668561},{"name":"C4","midi":60,"time":288.88541666666987,"velocity":0.84251968503937,"duration":0.5611979166666856},{"name":"D#5","midi":75,"time":288.88541666666987,"velocity":0.84251968503937,"duration":0.13932291666668561},{"name":"F5","midi":77,"time":289.02604166666987,"velocity":0.84251968503937,"duration":0.13932291666668561},{"name":"G5","midi":79,"time":289.16666666666987,"velocity":0.84251968503937,"duration":0.13932291666668561},{"name":"D#5","midi":75,"time":289.30729166666987,"velocity":0.84251968503937,"duration":0.13932291666668561},{"name":"D4","midi":62,"time":289.44791666666987,"velocity":0.84251968503937,"duration":0.2799479166666856},{"name":"F4","midi":65,"time":289.44791666666987,"velocity":0.84251968503937,"duration":0.2799479166666856},{"name":"F5","midi":77,"time":289.44791666666987,"velocity":0.84251968503937,"duration":0.13932291666668561},{"name":"G5","midi":79,"time":289.58854166666987,"velocity":0.84251968503937,"duration":0.13932291666668561},{"name":"C4","midi":60,"time":289.72916666666987,"velocity":0.84251968503937,"duration":0.2799479166666856},{"name":"D#4","midi":63,"time":289.72916666666987,"velocity":0.84251968503937,"duration":0.2799479166666856},{"name":"A5","midi":81,"time":289.72916666666987,"velocity":0.84251968503937,"duration":0.13932291666668561},{"name":"A#5","midi":82,"time":289.86979166666987,"velocity":0.84251968503937,"duration":0.13932291666668561},{"name":"D4","midi":62,"time":290.01041666666987,"velocity":0.84251968503937,"duration":0.2799479166666856},{"name":"A#3","midi":58,"time":290.01041666666987,"velocity":0.84251968503937,"duration":0.2799479166666856},{"name":"C6","midi":84,"time":290.01041666666987,"velocity":0.84251968503937,"duration":0.13932291666668561},{"name":"A5","midi":81,"time":290.15104166666987,"velocity":0.84251968503937,"duration":0.13932291666668561},{"name":"A3","midi":57,"time":290.29166666666987,"velocity":0.84251968503937,"duration":0.2799479166666856},{"name":"C4","midi":60,"time":290.29166666666987,"velocity":0.84251968503937,"duration":0.2799479166666856},{"name":"A#5","midi":82,"time":290.29166666666987,"velocity":0.84251968503937,"duration":0.13932291666668561},{"name":"C6","midi":84,"time":290.43229166666987,"velocity":0.84251968503937,"duration":0.13932291666668561},{"name":"D4","midi":62,"time":290.57291666666987,"velocity":0.84251968503937,"duration":0.8424479166666856},{"name":"F#5","midi":78,"time":290.57291666666987,"velocity":0.84251968503937,"duration":0.8424479166666856},{"name":"A4","midi":69,"time":290.85416666666987,"velocity":0.84251968503937,"duration":0.2799479166666856},{"name":"A4","midi":69,"time":291.13541666666987,"velocity":0.84251968503937,"duration":0.2799479166666856},{"name":"A4","midi":69,"time":291.41666666666987,"velocity":0.84251968503937,"duration":0.2799479166666856},{"name":"D#4","midi":63,"time":291.55729166666987,"velocity":0.84251968503937,"duration":0.13932291666668561},{"name":"D4","midi":62,"time":291.69791666666987,"velocity":0.84251968503937,"duration":0.13932291666668561},{"name":"A4","midi":69,"time":291.69791666666987,"velocity":0.84251968503937,"duration":0.2799479166666856},{"name":"C4","midi":60,"time":291.83854166666987,"velocity":0.84251968503937,"duration":0.13932291666668561},{"name":"A#3","midi":58,"time":291.97916666666987,"velocity":0.84251968503937,"duration":0.13932291666668561},{"name":"A4","midi":69,"time":291.97916666666987,"velocity":0.84251968503937,"duration":0.2799479166666856},{"name":"A3","midi":57,"time":292.11979166666987,"velocity":0.84251968503937,"duration":0.13932291666668561},{"name":"G3","midi":55,"time":292.26041666666987,"velocity":0.84251968503937,"duration":0.13932291666668561},{"name":"F5","midi":77,"time":292.26041666666987,"velocity":0.84251968503937,"duration":0.8424479166666856},{"name":"B4","midi":71,"time":292.26041666666987,"velocity":0.84251968503937,"duration":0.13932291666668561},{"name":"A3","midi":57,"time":292.40104166666987,"velocity":0.84251968503937,"duration":0.13932291666668561},{"name":"C5","midi":72,"time":292.40104166666987,"velocity":0.84251968503937,"duration":0.13932291666668561},{"name":"B3","midi":59,"time":292.54166666666987,"velocity":0.84251968503937,"duration":0.13932291666668561},{"name":"D5","midi":74,"time":292.54166666666987,"velocity":0.84251968503937,"duration":0.13932291666668561},{"name":"G3","midi":55,"time":292.68229166666987,"velocity":0.84251968503937,"duration":0.13932291666668561},{"name":"B4","midi":71,"time":292.68229166666987,"velocity":0.84251968503937,"duration":0.13932291666668561},{"name":"A3","midi":57,"time":292.82291666666987,"velocity":0.84251968503937,"duration":0.13932291666668561},{"name":"C5","midi":72,"time":292.82291666666987,"velocity":0.84251968503937,"duration":0.13932291666668561},{"name":"B3","midi":59,"time":292.96354166666987,"velocity":0.84251968503937,"duration":0.13932291666668561},{"name":"D5","midi":74,"time":292.96354166666987,"velocity":0.84251968503937,"duration":0.13932291666668561},{"name":"C4","midi":60,"time":293.10416666666987,"velocity":0.84251968503937,"duration":0.9830729166666856},{"name":"G4","midi":67,"time":293.10416666666987,"velocity":0.84251968503937,"duration":0.2799479166666856},{"name":"E5","midi":76,"time":293.10416666666987,"velocity":0.84251968503937,"duration":0.8424479166666856},{"name":"G4","midi":67,"time":293.38541666666987,"velocity":0.84251968503937,"duration":0.2799479166666856},{"name":"G4","midi":67,"time":293.66666666666987,"velocity":0.84251968503937,"duration":0.2799479166666856},{"name":"G4","midi":67,"time":293.94791666666987,"velocity":0.84251968503937,"duration":0.2799479166666856},{"name":"D4","midi":62,"time":294.08854166666987,"velocity":0.84251968503937,"duration":0.13932291666668561},{"name":"C4","midi":60,"time":294.22916666666987,"velocity":0.84251968503937,"duration":0.13932291666668561},{"name":"G4","midi":67,"time":294.22916666666987,"velocity":0.84251968503937,"duration":0.2799479166666856},{"name":"A#3","midi":58,"time":294.36979166666987,"velocity":0.84251968503937,"duration":0.13932291666668561},{"name":"A3","midi":57,"time":294.51041666666987,"velocity":0.84251968503937,"duration":0.13932291666668561},{"name":"G4","midi":67,"time":294.51041666666987,"velocity":0.84251968503937,"duration":0.2799479166666856},{"name":"G3","midi":55,"time":294.65104166666987,"velocity":0.84251968503937,"duration":0.13932291666668561},{"name":"F3","midi":53,"time":294.79166666666987,"velocity":0.84251968503937,"duration":0.13932291666668561},{"name":"A4","midi":69,"time":294.79166666666987,"velocity":0.84251968503937,"duration":0.13932291666668561},{"name":"D#5","midi":75,"time":294.79166666666987,"velocity":0.84251968503937,"duration":0.8424479166666856},{"name":"G3","midi":55,"time":294.93229166666987,"velocity":0.84251968503937,"duration":0.13932291666668561},{"name":"A#4","midi":70,"time":294.93229166666987,"velocity":0.84251968503937,"duration":0.13932291666668561},{"name":"A3","midi":57,"time":295.07291666666987,"velocity":0.84251968503937,"duration":0.13932291666668561},{"name":"C5","midi":72,"time":295.07291666666987,"velocity":0.84251968503937,"duration":0.13932291666668561},{"name":"F3","midi":53,"time":295.21354166666987,"velocity":0.84251968503937,"duration":0.13932291666668561},{"name":"A4","midi":69,"time":295.21354166666987,"velocity":0.84251968503937,"duration":0.13932291666668561},{"name":"G3","midi":55,"time":295.35416666666987,"velocity":0.84251968503937,"duration":0.13932291666668561},{"name":"A#4","midi":70,"time":295.35416666666987,"velocity":0.84251968503937,"duration":0.13932291666668561},{"name":"A3","midi":57,"time":295.49479166666987,"velocity":0.84251968503937,"duration":0.13932291666668561},{"name":"C5","midi":72,"time":295.49479166666987,"velocity":0.84251968503937,"duration":0.13932291666668561},{"name":"A#3","midi":58,"time":295.63541666666987,"velocity":0.84251968503937,"duration":0.13932291666668561},{"name":"D5","midi":74,"time":295.63541666666987,"velocity":0.84251968503937,"duration":0.8424479166666856},{"name":"A3","midi":57,"time":295.77604166666987,"velocity":0.84251968503937,"duration":0.13932291666668561},{"name":"A#3","midi":58,"time":295.91666666666987,"velocity":0.84251968503937,"duration":0.13932291666668561},{"name":"F5","midi":77,"time":295.91666666666987,"velocity":0.84251968503937,"duration":0.2799479166666856},{"name":"D4","midi":62,"time":296.05729166666987,"velocity":0.84251968503937,"duration":0.13932291666668561},{"name":"A3","midi":57,"time":296.19791666666987,"velocity":0.84251968503937,"duration":0.13932291666668561},{"name":"A#5","midi":82,"time":296.19791666666987,"velocity":0.84251968503937,"duration":0.2799479166666856},{"name":"A#3","midi":58,"time":296.33854166666987,"velocity":0.84251968503937,"duration":0.13932291666668561},{"name":"G3","midi":55,"time":296.47916666666987,"velocity":0.84251968503937,"duration":0.13932291666668561},{"name":"D#5","midi":75,"time":296.47916666666987,"velocity":0.84251968503937,"duration":0.8424479166666856},{"name":"A3","midi":57,"time":296.61979166666987,"velocity":0.84251968503937,"duration":0.13932291666668561},{"name":"A#3","midi":58,"time":296.76041666666987,"velocity":0.84251968503937,"duration":0.13932291666668561},{"name":"G5","midi":79,"time":296.76041666666987,"velocity":0.84251968503937,"duration":0.2799479166666856},{"name":"D4","midi":62,"time":296.90104166666987,"velocity":0.84251968503937,"duration":0.13932291666668561},{"name":"A3","midi":57,"time":297.04166666666987,"velocity":0.84251968503937,"duration":0.13932291666668561},{"name":"A#5","midi":82,"time":297.04166666666987,"velocity":0.84251968503937,"duration":0.2799479166666856},{"name":"A#3","midi":58,"time":297.18229166666987,"velocity":0.84251968503937,"duration":0.13932291666668561},{"name":"F3","midi":53,"time":297.32291666666987,"velocity":0.84251968503937,"duration":0.13932291666668561},{"name":"D5","midi":74,"time":297.32291666666987,"velocity":0.84251968503937,"duration":0.8424479166666856},{"name":"A3","midi":57,"time":297.46354166666987,"velocity":0.84251968503937,"duration":0.13932291666668561},{"name":"A#3","midi":58,"time":297.60416666666987,"velocity":0.84251968503937,"duration":0.13932291666668561},{"name":"F5","midi":77,"time":297.60416666666987,"velocity":0.84251968503937,"duration":0.2799479166666856},{"name":"D4","midi":62,"time":297.74479166666987,"velocity":0.84251968503937,"duration":0.13932291666668561},{"name":"A3","midi":57,"time":297.88541666666987,"velocity":0.84251968503937,"duration":0.13932291666668561},{"name":"A#5","midi":82,"time":297.88541666666987,"velocity":0.84251968503937,"duration":0.2799479166666856},{"name":"A#3","midi":58,"time":298.02604166666987,"velocity":0.84251968503937,"duration":0.13932291666668561},{"name":"D#3","midi":51,"time":298.16666666666987,"velocity":0.84251968503937,"duration":0.13932291666668561},{"name":"C5","midi":72,"time":298.16666666666987,"velocity":0.84251968503937,"duration":0.8424479166666856},{"name":"A3","midi":57,"time":298.30729166666987,"velocity":0.84251968503937,"duration":0.13932291666668561},{"name":"A#3","midi":58,"time":298.44791666666987,"velocity":0.84251968503937,"duration":0.13932291666668561},{"name":"G5","midi":79,"time":298.44791666666987,"velocity":0.84251968503937,"duration":0.2799479166666856},{"name":"D4","midi":62,"time":298.58854166666987,"velocity":0.84251968503937,"duration":0.13932291666668561},{"name":"A3","midi":57,"time":298.72916666666987,"velocity":0.84251968503937,"duration":0.13932291666668561},{"name":"A#5","midi":82,"time":298.72916666666987,"velocity":0.84251968503937,"duration":0.2799479166666856},{"name":"A#3","midi":58,"time":298.86979166666987,"velocity":0.84251968503937,"duration":0.13932291666668561},{"name":"D3","midi":50,"time":299.01041666666987,"velocity":0.84251968503937,"duration":0.13932291666668561},{"name":"A#4","midi":70,"time":299.01041666666987,"velocity":0.84251968503937,"duration":0.8424479166666856},{"name":"A3","midi":57,"time":299.15104166666987,"velocity":0.84251968503937,"duration":0.13932291666668561},{"name":"A#3","midi":58,"time":299.29166666666987,"velocity":0.84251968503937,"duration":0.13932291666668561},{"name":"F5","midi":77,"time":299.29166666666987,"velocity":0.84251968503937,"duration":0.2799479166666856},{"name":"D4","midi":62,"time":299.43229166666987,"velocity":0.84251968503937,"duration":0.13932291666668561},{"name":"A3","midi":57,"time":299.57291666666987,"velocity":0.84251968503937,"duration":0.13932291666668561},{"name":"A#5","midi":82,"time":299.57291666666987,"velocity":0.84251968503937,"duration":0.2799479166666856},{"name":"A#3","midi":58,"time":299.71354166666987,"velocity":0.84251968503937,"duration":0.13932291666668561},{"name":"D#3","midi":51,"time":299.85416666666987,"velocity":0.84251968503937,"duration":0.13932291666668561},{"name":"A#4","midi":70,"time":299.85416666666987,"velocity":0.84251968503937,"duration":0.8424479166666856},{"name":"A3","midi":57,"time":299.99479166666987,"velocity":0.84251968503937,"duration":0.13932291666668561},{"name":"A#3","midi":58,"time":300.13541666666987,"velocity":0.84251968503937,"duration":0.13932291666668561},{"name":"D#5","midi":75,"time":300.13541666666987,"velocity":0.84251968503937,"duration":0.2799479166666856},{"name":"D4","midi":62,"time":300.27604166666987,"velocity":0.84251968503937,"duration":0.13932291666668561},{"name":"A3","midi":57,"time":300.41666666666987,"velocity":0.84251968503937,"duration":0.13932291666668561},{"name":"G5","midi":79,"time":300.41666666666987,"velocity":0.84251968503937,"duration":0.2799479166666856},{"name":"A#3","midi":58,"time":300.55729166666987,"velocity":0.84251968503937,"duration":0.13932291666668561},{"name":"A2","midi":45,"time":300.69791666666987,"velocity":0.84251968503937,"duration":0.9830729166666856},{"name":"C5","midi":72,"time":300.69791666666987,"velocity":0.84251968503937,"duration":0.13932291666668561},{"name":"D5","midi":74,"time":300.83854166666987,"velocity":0.84251968503937,"duration":0.13932291666668561},{"name":"D#5","midi":75,"time":300.97916666666987,"velocity":0.84251968503937,"duration":0.13932291666668561},{"name":"G5","midi":79,"time":301.11979166666987,"velocity":0.84251968503937,"duration":0.13932291666668561},{"name":"D5","midi":74,"time":301.26041666666987,"velocity":0.84251968503937,"duration":0.13932291666668561},{"name":"D#5","midi":75,"time":301.40104166666987,"velocity":0.84251968503937,"duration":0.13932291666668561},{"name":"C5","midi":72,"time":301.54166666666987,"velocity":0.84251968503937,"duration":0.13932291666668561},{"name":"A#2","midi":46,"time":301.68229166666987,"velocity":0.84251968503937,"duration":0.13932291666668561},{"name":"D5","midi":74,"time":301.68229166666987,"velocity":0.84251968503937,"duration":0.13932291666668561},{"name":"C3","midi":48,"time":301.82291666666987,"velocity":0.84251968503937,"duration":0.13932291666668561},{"name":"D#5","midi":75,"time":301.82291666666987,"velocity":0.84251968503937,"duration":0.13932291666668561},{"name":"A2","midi":45,"time":301.96354166666987,"velocity":0.84251968503937,"duration":0.13932291666668561},{"name":"F5","midi":77,"time":301.96354166666987,"velocity":0.84251968503937,"duration":0.13932291666668561},{"name":"A#2","midi":46,"time":302.10416666666987,"velocity":0.84251968503937,"duration":0.13932291666668561},{"name":"G5","midi":79,"time":302.10416666666987,"velocity":0.84251968503937,"duration":0.13932291666668561},{"name":"C3","midi":48,"time":302.24479166666987,"velocity":0.84251968503937,"duration":0.13932291666668561},{"name":"A5","midi":81,"time":302.24479166666987,"velocity":0.84251968503937,"duration":0.13932291666668561},{"name":"F2","midi":41,"time":302.38541666666987,"velocity":0.84251968503937,"duration":0.2799479166666856},{"name":"A#5","midi":82,"time":302.38541666666987,"velocity":0.84251968503937,"duration":0.13932291666668561},{"name":"A5","midi":81,"time":302.52604166666987,"velocity":0.84251968503937,"duration":0.13932291666668561},{"name":"F3","midi":53,"time":302.66666666666987,"velocity":0.84251968503937,"duration":0.2799479166666856},{"name":"C6","midi":84,"time":302.66666666666987,"velocity":0.84251968503937,"duration":0.13932291666668561},{"name":"A#5","midi":82,"time":302.80729166666987,"velocity":0.84251968503937,"duration":0.13932291666668561},{"name":"D#3","midi":51,"time":302.94791666666987,"velocity":0.84251968503937,"duration":0.2799479166666856},{"name":"A5","midi":81,"time":302.94791666666987,"velocity":0.84251968503937,"duration":0.13932291666668561},{"name":"G5","midi":79,"time":303.08854166666987,"velocity":0.84251968503937,"duration":0.13932291666668561},{"name":"D3","midi":50,"time":303.22916666666987,"velocity":0.84251968503937,"duration":0.5611979166666856},{"name":"F5","midi":77,"time":303.22916666666987,"velocity":0.84251968503937,"duration":0.13932291666668561},{"name":"A#5","midi":82,"time":303.36979166666987,"velocity":0.84251968503937,"duration":0.13932291666668561},{"name":"A5","midi":81,"time":303.51041666666987,"velocity":0.84251968503937,"duration":0.13932291666668561},{"name":"G5","midi":79,"time":303.65104166666987,"velocity":0.84251968503937,"duration":0.13932291666668561},{"name":"C3","midi":48,"time":303.79166666666987,"velocity":0.84251968503937,"duration":0.2799479166666856},{"name":"F5","midi":77,"time":303.79166666666987,"velocity":0.84251968503937,"duration":0.13932291666668561},{"name":"D#5","midi":75,"time":303.93229166666987,"velocity":0.84251968503937,"duration":0.13932291666668561},{"name":"A#2","midi":46,"time":304.07291666666987,"velocity":0.84251968503937,"duration":0.2799479166666856},{"name":"D5","midi":74,"time":304.07291666666987,"velocity":0.84251968503937,"duration":0.13932291666668561},{"name":"D#5","midi":75,"time":304.21354166666987,"velocity":0.84251968503937,"duration":0.13932291666668561},{"name":"A#3","midi":58,"time":304.35416666666987,"velocity":0.84251968503937,"duration":0.2799479166666856},{"name":"F5","midi":77,"time":304.35416666666987,"velocity":0.84251968503937,"duration":0.13932291666668561},{"name":"C5","midi":72,"time":304.49479166666987,"velocity":0.84251968503937,"duration":0.13932291666668561},{"name":"G#3","midi":56,"time":304.63541666666987,"velocity":0.84251968503937,"duration":0.2799479166666856},{"name":"D5","midi":74,"time":304.63541666666987,"velocity":0.84251968503937,"duration":0.13932291666668561},{"name":"A#4","midi":70,"time":304.77604166666987,"velocity":0.84251968503937,"duration":0.13932291666668561},{"name":"G3","midi":55,"time":304.91666666666987,"velocity":0.84251968503937,"duration":0.2799479166666856},{"name":"D#5","midi":75,"time":304.91666666666987,"velocity":0.84251968503937,"duration":0.13932291666668561},{"name":"F5","midi":77,"time":305.05729166666987,"velocity":0.84251968503937,"duration":0.13932291666668561},{"name":"F3","midi":53,"time":305.19791666666987,"velocity":0.84251968503937,"duration":0.2799479166666856},{"name":"G5","midi":79,"time":305.19791666666987,"velocity":0.84251968503937,"duration":0.13932291666668561},{"name":"D5","midi":74,"time":305.33854166666987,"velocity":0.84251968503937,"duration":0.13932291666668561},{"name":"D#3","midi":51,"time":305.47916666666987,"velocity":0.84251968503937,"duration":0.2799479166666856},{"name":"D#5","midi":75,"time":305.47916666666987,"velocity":0.84251968503937,"duration":0.13932291666668561},{"name":"C5","midi":72,"time":305.61979166666987,"velocity":0.84251968503937,"duration":0.13932291666668561},{"name":"D#4","midi":63,"time":305.76041666666987,"velocity":0.84251968503937,"duration":0.13932291666668561},{"name":"F5","midi":77,"time":305.76041666666987,"velocity":0.84251968503937,"duration":0.13932291666668561},{"name":"D4","midi":62,"time":305.90104166666987,"velocity":0.84251968503937,"duration":0.13932291666668561},{"name":"G5","midi":79,"time":305.90104166666987,"velocity":0.84251968503937,"duration":0.13932291666668561},{"name":"C4","midi":60,"time":306.04166666666987,"velocity":0.84251968503937,"duration":0.13932291666668561},{"name":"A5","midi":81,"time":306.04166666666987,"velocity":0.84251968503937,"duration":0.13932291666668561},{"name":"A#3","midi":58,"time":306.18229166666987,"velocity":0.84251968503937,"duration":0.13932291666668561},{"name":"D5","midi":74,"time":306.18229166666987,"velocity":0.84251968503937,"duration":0.13932291666668561},{"name":"C4","midi":60,"time":306.32291666666987,"velocity":0.84251968503937,"duration":0.13932291666668561},{"name":"D#5","midi":75,"time":306.32291666666987,"velocity":0.84251968503937,"duration":0.13932291666668561},{"name":"A3","midi":57,"time":306.46354166666987,"velocity":0.84251968503937,"duration":0.13932291666668561},{"name":"C5","midi":72,"time":306.46354166666987,"velocity":0.84251968503937,"duration":0.13932291666668561},{"name":"A#3","midi":58,"time":306.60416666666987,"velocity":0.84251968503937,"duration":0.2799479166666856},{"name":"D5","midi":74,"time":306.60416666666987,"velocity":0.84251968503937,"duration":0.13932291666668561},{"name":"A5","midi":81,"time":306.74479166666987,"velocity":0.84251968503937,"duration":0.13932291666668561},{"name":"D3","midi":50,"time":306.88541666666987,"velocity":0.84251968503937,"duration":0.2799479166666856},{"name":"A#5","midi":82,"time":306.88541666666987,"velocity":0.84251968503937,"duration":0.13932291666668561},{"name":"F5","midi":77,"time":307.02604166666987,"velocity":0.84251968503937,"duration":0.13932291666668561},{"name":"D#3","midi":51,"time":307.16666666666987,"velocity":0.84251968503937,"duration":0.2799479166666856},{"name":"G5","midi":79,"time":307.16666666666987,"velocity":0.84251968503937,"duration":0.13932291666668561},{"name":"D#5","midi":75,"time":307.30729166666987,"velocity":0.84251968503937,"duration":0.13932291666668561},{"name":"F3","midi":53,"time":307.44791666666987,"velocity":0.84251968503937,"duration":0.2799479166666856},{"name":"D5","midi":74,"time":307.44791666666987,"velocity":0.84251968503937,"duration":0.13932291666668561},{"name":"C5","midi":72,"time":307.58854166666987,"velocity":0.84251968503937,"duration":0.13932291666668561},{"name":"D#3","midi":51,"time":307.72916666666987,"velocity":0.84251968503937,"duration":0.2799479166666856},{"name":"D#5","midi":75,"time":307.72916666666987,"velocity":0.84251968503937,"duration":0.13932291666668561},{"name":"D5","midi":74,"time":307.86979166666987,"velocity":0.84251968503937,"duration":0.13932291666668561},{"name":"F3","midi":53,"time":308.01041666666987,"velocity":0.84251968503937,"duration":0.2799479166666856},{"name":"C5","midi":72,"time":308.01041666666987,"velocity":0.84251968503937,"duration":0.13932291666668561},{"name":"D5","midi":74,"time":308.15104166666987,"velocity":0.84251968503937,"duration":0.13932291666668561},{"name":"A#2","midi":46,"time":308.29947916666987,"velocity":0.84251968503937,"duration":0.9830729166666288},{"name":"A#4","midi":70,"time":308.29947916666987,"velocity":0.84251968503937,"duration":0.390625},{"name":"D5","midi":74,"time":308.4531250000032,"velocity":0.84251968503937,"duration":0.13932291666668561},{"name":"F5","midi":77,"time":308.5937500000032,"velocity":0.84251968503937,"duration":0.13932291666668561},{"name":"A#4","midi":70,"time":308.7343750000032,"velocity":0.84251968503937,"duration":0.13932291666668561},{"name":"D5","midi":74,"time":308.8750000000032,"velocity":0.84251968503937,"duration":0.13932291666668561},{"name":"F5","midi":77,"time":309.0156250000032,"velocity":0.84251968503937,"duration":0.13932291666668561},{"name":"A#5","midi":82,"time":309.1562500000032,"velocity":0.84251968503937,"duration":0.2799479166666856},{"name":"D3","midi":50,"time":309.2968750000032,"velocity":0.84251968503937,"duration":0.13932291666668561},{"name":"D5","midi":74,"time":309.4375000000032,"velocity":0.84251968503937,"duration":0.2799479166666856},{"name":"A#5","midi":82,"time":309.4375000000032,"velocity":0.84251968503937,"duration":0.2799479166666856},{"name":"F3","midi":53,"time":309.4375000000032,"velocity":0.84251968503937,"duration":0.13932291666668561},{"name":"A#2","midi":46,"time":309.5781250000032,"velocity":0.84251968503937,"duration":0.13932291666668561},{"name":"D5","midi":74,"time":309.7187500000032,"velocity":0.84251968503937,"duration":0.2799479166666856},{"name":"A#5","midi":82,"time":309.7187500000032,"velocity":0.84251968503937,"duration":0.2799479166666856},{"name":"D3","midi":50,"time":309.7187500000032,"velocity":0.84251968503937,"duration":0.13932291666668561},{"name":"F3","midi":53,"time":309.8593750000032,"velocity":0.84251968503937,"duration":0.13932291666668561},{"name":"A#5","midi":82,"time":310.0000000000032,"velocity":0.84251968503937,"duration":0.2799479166666856},{"name":"D5","midi":74,"time":310.0000000000032,"velocity":0.84251968503937,"duration":0.2799479166666856},{"name":"A#3","midi":58,"time":310.0000000000032,"velocity":0.84251968503937,"duration":0.13932291666668561},{"name":"D4","midi":62,"time":310.1406250000032,"velocity":0.84251968503937,"duration":0.13932291666668561},{"name":"D5","midi":74,"time":310.2812500000032,"velocity":0.84251968503937,"duration":0.2799479166666856},{"name":"A#5","midi":82,"time":310.2812500000032,"velocity":0.84251968503937,"duration":0.2799479166666856},{"name":"F4","midi":65,"time":310.2812500000032,"velocity":0.84251968503937,"duration":0.13932291666668561},{"name":"A#3","midi":58,"time":310.4218750000032,"velocity":0.84251968503937,"duration":0.13932291666668561},{"name":"A#5","midi":82,"time":310.5625000000032,"velocity":0.84251968503937,"duration":0.2799479166666856},{"name":"D5","midi":74,"time":310.5625000000032,"velocity":0.84251968503937,"duration":0.2799479166666856},{"name":"D4","midi":62,"time":310.5625000000032,"velocity":0.84251968503937,"duration":0.13932291666668561},{"name":"F4","midi":65,"time":310.7031250000032,"velocity":0.84251968503937,"duration":0.13932291666668561},{"name":"C5","midi":72,"time":310.8437500000032,"velocity":0.84251968503937,"duration":0.13932291666668561},{"name":"A#5","midi":82,"time":310.8437500000032,"velocity":0.84251968503937,"duration":0.2604166666666856},{"name":"D#3","midi":51,"time":310.8437500000032,"velocity":0.84251968503937,"duration":0.41015625},{"name":"G5","midi":79,"time":310.9843750000032,"velocity":0.84251968503937,"duration":0.13932291666668561},{"name":"D#5","midi":75,"time":311.1250000000032,"velocity":0.84251968503937,"duration":0.1953125},{"name":"G5","midi":79,"time":311.2656250000032,"velocity":0.84251968503937,"duration":0.13932291666668561},{"name":"D#5","midi":75,"time":311.4062500000032,"velocity":0.84251968503937,"duration":0.1953125},{"name":"C5","midi":72,"time":311.5468750000032,"velocity":0.84251968503937,"duration":0.13932291666668561},{"name":"A5","midi":81,"time":311.6875000000032,"velocity":0.84251968503937,"duration":0.2799479166666856},{"name":"F2","midi":41,"time":311.6875000000032,"velocity":0.84251968503937,"duration":0.13932291666668561},{"name":"A2","midi":45,"time":311.8281250000032,"velocity":0.84251968503937,"duration":0.13932291666668561},{"name":"C5","midi":72,"time":311.9687500000032,"velocity":0.84251968503937,"duration":0.2799479166666856},{"name":"A5","midi":81,"time":311.9687500000032,"velocity":0.84251968503937,"duration":0.2799479166666856},{"name":"C3","midi":48,"time":311.9687500000032,"velocity":0.84251968503937,"duration":0.13932291666668561},{"name":"F2","midi":41,"time":312.1093750000032,"velocity":0.84251968503937,"duration":0.13932291666668561},{"name":"C5","midi":72,"time":312.2500000000032,"velocity":0.84251968503937,"duration":0.2799479166666856},{"name":"A5","midi":81,"time":312.2500000000032,"velocity":0.84251968503937,"duration":0.2799479166666856},{"name":"A2","midi":45,"time":312.2500000000032,"velocity":0.84251968503937,"duration":0.13932291666668561},{"name":"C3","midi":48,"time":312.3906250000032,"velocity":0.84251968503937,"duration":0.13932291666668561},{"name":"A5","midi":81,"time":312.5312500000032,"velocity":0.84251968503937,"duration":0.2799479166666856},{"name":"C5","midi":72,"time":312.5312500000032,"velocity":0.84251968503937,"duration":0.2799479166666856},{"name":"F3","midi":53,"time":312.5312500000032,"velocity":0.84251968503937,"duration":0.13932291666668561},{"name":"A3","midi":57,"time":312.6718750000032,"velocity":0.84251968503937,"duration":0.13932291666668561},{"name":"C5","midi":72,"time":312.8125000000032,"velocity":0.84251968503937,"duration":0.2799479166666856},{"name":"A5","midi":81,"time":312.8125000000032,"velocity":0.84251968503937,"duration":0.2799479166666856},{"name":"C4","midi":60,"time":312.8125000000032,"velocity":0.84251968503937,"duration":0.13932291666668561},{"name":"F3","midi":53,"time":312.9531250000032,"velocity":0.84251968503937,"duration":0.13932291666668561},{"name":"C5","midi":72,"time":313.0937500000032,"velocity":0.84251968503937,"duration":0.2799479166666856},{"name":"A5","midi":81,"time":313.0937500000032,"velocity":0.84251968503937,"duration":0.2799479166666856},{"name":"A3","midi":57,"time":313.0937500000032,"velocity":0.84251968503937,"duration":0.13932291666668561},{"name":"C4","midi":60,"time":313.2343750000032,"velocity":0.84251968503937,"duration":0.13932291666668561},{"name":"A#4","midi":70,"time":313.3750000000032,"velocity":0.84251968503937,"duration":0.13932291666668561},{"name":"G#5","midi":80,"time":313.3750000000032,"velocity":0.84251968503937,"duration":0.2604166666666856},{"name":"D3","midi":50,"time":313.3750000000032,"velocity":0.84251968503937,"duration":0.41015625},{"name":"F5","midi":77,"time":313.5156250000032,"velocity":0.84251968503937,"duration":0.13932291666668561},{"name":"D5","midi":74,"time":313.6562500000032,"velocity":0.84251968503937,"duration":0.1953125},{"name":"F5","midi":77,"time":313.7968750000032,"velocity":0.84251968503937,"duration":0.13932291666668561},{"name":"D5","midi":74,"time":313.9375000000032,"velocity":0.84251968503937,"duration":0.1953125},{"name":"A#4","midi":70,"time":314.0781250000032,"velocity":0.84251968503937,"duration":0.13932291666668561},{"name":"G5","midi":79,"time":314.2187500000032,"velocity":0.84251968503937,"duration":0.2799479166666856},{"name":"D#2","midi":39,"time":314.2187500000032,"velocity":0.84251968503937,"duration":0.13932291666668561},{"name":"G2","midi":43,"time":314.3593750000032,"velocity":0.84251968503937,"duration":0.13932291666668561},{"name":"A#4","midi":70,"time":314.5000000000032,"velocity":0.84251968503937,"duration":0.2799479166666856},{"name":"G5","midi":79,"time":314.5000000000032,"velocity":0.84251968503937,"duration":0.2799479166666856},{"name":"A#2","midi":46,"time":314.5000000000032,"velocity":0.84251968503937,"duration":0.13932291666668561},{"name":"D#2","midi":39,"time":314.6406250000032,"velocity":0.84251968503937,"duration":0.13932291666668561},{"name":"A#4","midi":70,"time":314.7812500000032,"velocity":0.84251968503937,"duration":0.2799479166666856},{"name":"G5","midi":79,"time":314.7812500000032,"velocity":0.84251968503937,"duration":0.2799479166666856},{"name":"G2","midi":43,"time":314.7812500000032,"velocity":0.84251968503937,"duration":0.13932291666668561},{"name":"A#2","midi":46,"time":314.9218750000032,"velocity":0.84251968503937,"duration":0.13932291666668561},{"name":"G5","midi":79,"time":315.0625000000032,"velocity":0.84251968503937,"duration":0.2799479166666856},{"name":"A#4","midi":70,"time":315.0625000000032,"velocity":0.84251968503937,"duration":0.2799479166666856},{"name":"D#3","midi":51,"time":315.0625000000032,"velocity":0.84251968503937,"duration":0.13932291666668561},{"name":"G3","midi":55,"time":315.2031250000032,"velocity":0.84251968503937,"duration":0.13932291666668561},{"name":"A#4","midi":70,"time":315.3437500000032,"velocity":0.84251968503937,"duration":0.2799479166666856},{"name":"G5","midi":79,"time":315.3437500000032,"velocity":0.84251968503937,"duration":0.2799479166666856},{"name":"A#3","midi":58,"time":315.3437500000032,"velocity":0.84251968503937,"duration":0.13932291666668561},{"name":"D#3","midi":51,"time":315.4843750000032,"velocity":0.84251968503937,"duration":0.13932291666668561},{"name":"G5","midi":79,"time":315.6250000000032,"velocity":0.84251968503937,"duration":0.2799479166666856},{"name":"A#4","midi":70,"time":315.6250000000032,"velocity":0.84251968503937,"duration":0.2799479166666856},{"name":"G3","midi":55,"time":315.6250000000032,"velocity":0.84251968503937,"duration":0.13932291666668561},{"name":"A#3","midi":58,"time":315.7656250000032,"velocity":0.84251968503937,"duration":0.13932291666668561},{"name":"G5","midi":79,"time":315.9062500000032,"velocity":0.84251968503937,"duration":0.8424479166666856},{"name":"D#5","midi":75,"time":315.9062500000032,"velocity":0.84251968503937,"duration":0.2799479166666856},{"name":"C3","midi":48,"time":315.9062500000032,"velocity":0.84251968503937,"duration":0.13932291666668561},{"name":"D#3","midi":51,"time":316.0468750000032,"velocity":0.84251968503937,"duration":0.13932291666668561},{"name":"D5","midi":74,"time":316.1875000000032,"velocity":0.84251968503937,"duration":0.2799479166666856},{"name":"G3","midi":55,"time":316.1875000000032,"velocity":0.84251968503937,"duration":0.13932291666668561},{"name":"C3","midi":48,"time":316.3281250000032,"velocity":0.84251968503937,"duration":0.13932291666668561},{"name":"C5","midi":72,"time":316.4687500000032,"velocity":0.84251968503937,"duration":0.2799479166666856},{"name":"D#3","midi":51,"time":316.4687500000032,"velocity":0.84251968503937,"duration":0.13932291666668561},{"name":"G3","midi":55,"time":316.6093750000032,"velocity":0.84251968503937,"duration":0.13932291666668561},{"name":"C5","midi":72,"time":316.7500000000032,"velocity":0.84251968503937,"duration":1.81640625},{"name":"C6","midi":84,"time":316.7500000000032,"velocity":0.84251968503937,"duration":0.2799479166666856},{"name":"A2","midi":45,"time":316.7500000000032,"velocity":0.84251968503937,"duration":0.13932291666668561},{"name":"C3","midi":48,"time":316.8906250000032,"velocity":0.84251968503937,"duration":0.13932291666668561},{"name":"A#5","midi":82,"time":317.0312500000032,"velocity":0.84251968503937,"duration":0.2799479166666856},{"name":"D#3","midi":51,"time":317.0312500000032,"velocity":0.84251968503937,"duration":0.13932291666668561},{"name":"A2","midi":45,"time":317.1718750000032,"velocity":0.84251968503937,"duration":0.13932291666668561},{"name":"A5","midi":81,"time":317.3125000000032,"velocity":0.84251968503937,"duration":0.2799479166666856},{"name":"C3","midi":48,"time":317.3125000000032,"velocity":0.84251968503937,"duration":0.13932291666668561},{"name":"D#3","midi":51,"time":317.4531250000032,"velocity":0.84251968503937,"duration":0.13932291666668561},{"name":"A5","midi":81,"time":317.5937500000032,"velocity":0.84251968503937,"duration":0.2799479166666856},{"name":"F#2","midi":42,"time":317.5937500000032,"velocity":0.84251968503937,"duration":0.13932291666668561},{"name":"A2","midi":45,"time":317.7343750000032,"velocity":0.84251968503937,"duration":0.13932291666668561},{"name":"G5","midi":79,"time":317.8750000000032,"velocity":0.84251968503937,"duration":0.2799479166666856},{"name":"C3","midi":48,"time":317.8750000000032,"velocity":0.84251968503937,"duration":0.13932291666668561},{"name":"F#2","midi":42,"time":318.0156250000032,"velocity":0.84251968503937,"duration":0.13932291666668561},{"name":"F#5","midi":78,"time":318.1562500000032,"velocity":0.84251968503937,"duration":0.2799479166666856},{"name":"A2","midi":45,"time":318.1562500000032,"velocity":0.84251968503937,"duration":0.13932291666668561},{"name":"C3","midi":48,"time":318.2968750000032,"velocity":0.84251968503937,"duration":0.13932291666668561},{"name":"F#5","midi":78,"time":318.4375000000032,"velocity":0.84251968503937,"duration":0.2786458333333144},{"name":"D2","midi":38,"time":318.4375000000032,"velocity":0.84251968503937,"duration":0.27994791666662877},{"name":"C5","midi":72,"time":318.5781250000032,"velocity":0.84251968503937,"duration":0.13932291666662877},{"name":"D5","midi":74,"time":318.7187500000031,"velocity":0.84251968503937,"duration":0.13932291666668561},{"name":"D3","midi":50,"time":318.7187500000031,"velocity":0.84251968503937,"duration":0.5559895833333144},{"name":"F#5","midi":78,"time":318.8593750000031,"velocity":0.84251968503937,"duration":0.13932291666668561},{"name":"C5","midi":72,"time":319.0000000000031,"velocity":0.84251968503937,"duration":0.13932291666668561},{"name":"D2","midi":38,"time":319.0000000000031,"velocity":0.84251968503937,"duration":0.2786458333333144},{"name":"D5","midi":74,"time":319.1406250000031,"velocity":0.84251968503937,"duration":0.13802083333331439},{"name":"A#4","midi":70,"time":319.27994791666976,"velocity":0.84251968503937,"duration":0.5559895833333144},{"name":"D2","midi":38,"time":319.27994791666976,"velocity":0.84251968503937,"duration":0.2799479166666856},{"name":"D5","midi":74,"time":319.42057291666976,"velocity":0.84251968503937,"duration":0.13932291666668561},{"name":"D#5","midi":75,"time":319.56119791666976,"velocity":0.84251968503937,"duration":0.13932291666668561},{"name":"D3","midi":50,"time":319.56119791666976,"velocity":0.84251968503937,"duration":0.2786458333333144},{"name":"G5","midi":79,"time":319.70182291666976,"velocity":0.84251968503937,"duration":0.13802083333331439},{"name":"D5","midi":74,"time":319.8411458333364,"velocity":0.84251968503937,"duration":0.13932291666668561},{"name":"D2","midi":38,"time":319.8411458333364,"velocity":0.84251968503937,"duration":0.2799479166666856},{"name":"D#5","midi":75,"time":319.9817708333364,"velocity":0.84251968503937,"duration":0.13932291666668561},{"name":"C5","midi":72,"time":320.1223958333364,"velocity":0.84251968503937,"duration":0.5559895833333144},{"name":"D2","midi":38,"time":320.1223958333364,"velocity":0.84251968503937,"duration":0.2799479166666856},{"name":"E5","midi":76,"time":320.2630208333364,"velocity":0.84251968503937,"duration":0.13932291666668561},{"name":"F#5","midi":78,"time":320.4036458333364,"velocity":0.84251968503937,"duration":0.13932291666668561},{"name":"D3","midi":50,"time":320.4036458333364,"velocity":0.84251968503937,"duration":0.2786458333333144},{"name":"A5","midi":81,"time":320.5442708333364,"velocity":0.84251968503937,"duration":0.13802083333331439},{"name":"E5","midi":76,"time":320.683593750003,"velocity":0.84251968503937,"duration":0.13932291666668561},{"name":"D2","midi":38,"time":320.683593750003,"velocity":0.84251968503937,"duration":0.2799479166666856},{"name":"F#5","midi":78,"time":320.824218750003,"velocity":0.84251968503937,"duration":0.13932291666668561},{"name":"D5","midi":74,"time":320.964843750003,"velocity":0.84251968503937,"duration":0.5559895833333144},{"name":"D2","midi":38,"time":320.964843750003,"velocity":0.84251968503937,"duration":0.2799479166666856},{"name":"F#5","midi":78,"time":321.105468750003,"velocity":0.84251968503937,"duration":0.13932291666668561},{"name":"G5","midi":79,"time":321.246093750003,"velocity":0.84251968503937,"duration":0.13932291666668561},{"name":"D3","midi":50,"time":321.246093750003,"velocity":0.84251968503937,"duration":0.2786458333333144},{"name":"A#5","midi":82,"time":321.386718750003,"velocity":0.84251968503937,"duration":0.13802083333331439},{"name":"F#5","midi":78,"time":321.52604166666964,"velocity":0.84251968503937,"duration":0.13932291666668561},{"name":"D2","midi":38,"time":321.52604166666964,"velocity":0.84251968503937,"duration":0.2799479166666856},{"name":"G5","midi":79,"time":321.66666666666964,"velocity":0.84251968503937,"duration":0.13932291666668561},{"name":"E5","midi":76,"time":321.80729166666964,"velocity":0.84251968503937,"duration":0.5559895833333144},{"name":"D2","midi":38,"time":321.80729166666964,"velocity":0.84251968503937,"duration":0.2799479166666856},{"name":"G5","midi":79,"time":321.94791666666964,"velocity":0.84251968503937,"duration":0.13932291666668561},{"name":"A5","midi":81,"time":322.08854166666964,"velocity":0.84251968503937,"duration":0.13932291666668561},{"name":"D3","midi":50,"time":322.08854166666964,"velocity":0.84251968503937,"duration":0.2786458333333144},{"name":"C6","midi":84,"time":322.22916666666964,"velocity":0.84251968503937,"duration":0.13802083333331439},{"name":"G5","midi":79,"time":322.36848958333627,"velocity":0.84251968503937,"duration":0.13932291666668561},{"name":"D2","midi":38,"time":322.36848958333627,"velocity":0.84251968503937,"duration":0.2799479166666856},{"name":"A5","midi":81,"time":322.50911458333627,"velocity":0.84251968503937,"duration":0.13932291666668561},{"name":"F#5","midi":78,"time":322.64973958333627,"velocity":0.84251968503937,"duration":0.5559895833333144},{"name":"D2","midi":38,"time":322.64973958333627,"velocity":0.84251968503937,"duration":0.2799479166666856},{"name":"G5","midi":79,"time":322.79036458333627,"velocity":0.84251968503937,"duration":0.13932291666668561},{"name":"A5","midi":81,"time":322.93098958333627,"velocity":0.84251968503937,"duration":0.13932291666668561},{"name":"D3","midi":50,"time":322.93098958333627,"velocity":0.84251968503937,"duration":0.2786458333333144},{"name":"C6","midi":84,"time":323.07161458333627,"velocity":0.84251968503937,"duration":0.13802083333331439},{"name":"F#5","midi":78,"time":323.2109375000029,"velocity":0.84251968503937,"duration":0.13932291666668561},{"name":"D2","midi":38,"time":323.2109375000029,"velocity":0.84251968503937,"duration":0.2799479166666856},{"name":"A5","midi":81,"time":323.3515625000029,"velocity":0.84251968503937,"duration":0.13932291666668561},{"name":"A#5","midi":82,"time":323.4921875000029,"velocity":0.84251968503937,"duration":0.13932291666668561},{"name":"G2","midi":43,"time":323.4921875000029,"velocity":0.84251968503937,"duration":0.13932291666668561},{"name":"A5","midi":81,"time":323.6328125000029,"velocity":0.84251968503937,"duration":0.13932291666668561},{"name":"A2","midi":45,"time":323.6328125000029,"velocity":0.84251968503937,"duration":0.13932291666668561},{"name":"G5","midi":79,"time":323.7734375000029,"velocity":0.84251968503937,"duration":0.13932291666668561},{"name":"A#2","midi":46,"time":323.7734375000029,"velocity":0.84251968503937,"duration":0.13932291666668561},{"name":"F5","midi":77,"time":323.9140625000029,"velocity":0.84251968503937,"duration":0.13932291666668561},{"name":"G2","midi":43,"time":323.9140625000029,"velocity":0.84251968503937,"duration":0.13932291666668561},{"name":"D#5","midi":75,"time":324.0546875000029,"velocity":0.84251968503937,"duration":0.13932291666668561},{"name":"A2","midi":45,"time":324.0546875000029,"velocity":0.84251968503937,"duration":0.13932291666668561},{"name":"D5","midi":74,"time":324.1953125000029,"velocity":0.84251968503937,"duration":0.13932291666668561},{"name":"A#2","midi":46,"time":324.1953125000029,"velocity":0.84251968503937,"duration":0.13932291666668561},{"name":"D#5","midi":75,"time":324.3359375000029,"velocity":0.84251968503937,"duration":0.13932291666668561},{"name":"C3","midi":48,"time":324.3359375000029,"velocity":0.84251968503937,"duration":0.2799479166666856},{"name":"C5","midi":72,"time":324.4765625000029,"velocity":0.84251968503937,"duration":0.13932291666668561},{"name":"A5","midi":81,"time":324.6171875000029,"velocity":0.84251968503937,"duration":0.13932291666668561},{"name":"A#2","midi":46,"time":324.6171875000029,"velocity":0.84251968503937,"duration":0.2799479166666856},{"name":"D5","midi":74,"time":324.7578125000029,"velocity":0.84251968503937,"duration":0.13932291666668561},{"name":"D#5","midi":75,"time":324.8984375000029,"velocity":0.84251968503937,"duration":0.13932291666668561},{"name":"A2","midi":45,"time":324.8984375000029,"velocity":0.84251968503937,"duration":0.2799479166666856},{"name":"C5","midi":72,"time":325.0390625000029,"velocity":0.84251968503937,"duration":0.13932291666668561},{"name":"D5","midi":74,"time":325.1796875000029,"velocity":0.84251968503937,"duration":0.13932291666668561},{"name":"A#2","midi":46,"time":325.1796875000029,"velocity":0.84251968503937,"duration":0.2799479166666856},{"name":"A#4","midi":70,"time":325.3203125000029,"velocity":0.84251968503937,"duration":0.13932291666668561},{"name":"G5","midi":79,"time":325.4609375000029,"velocity":0.84251968503937,"duration":0.13932291666668561},{"name":"A2","midi":45,"time":325.4609375000029,"velocity":0.84251968503937,"duration":0.2799479166666856},{"name":"C5","midi":72,"time":325.6015625000029,"velocity":0.84251968503937,"duration":0.13932291666668561},{"name":"D5","midi":74,"time":325.7421875000029,"velocity":0.84251968503937,"duration":0.13932291666668561},{"name":"G2","midi":43,"time":325.7421875000029,"velocity":0.84251968503937,"duration":0.2799479166666856},{"name":"A#4","midi":70,"time":325.8828125000029,"velocity":0.84251968503937,"duration":0.13932291666668561},{"name":"C5","midi":72,"time":326.0234375000029,"velocity":0.84251968503937,"duration":0.8854166666666856},{"name":"D3","midi":50,"time":326.0234375000029,"velocity":0.84251968503937,"duration":0.13932291666668561},{"name":"D4","midi":62,"time":326.1640625000029,"velocity":0.84251968503937,"duration":0.13932291666668561},{"name":"C4","midi":60,"time":326.3046875000029,"velocity":0.84251968503937,"duration":0.13932291666668561},{"name":"A#3","midi":58,"time":326.4453125000029,"velocity":0.84251968503937,"duration":0.13932291666668561},{"name":"A3","midi":57,"time":326.5859375000029,"velocity":0.84251968503937,"duration":0.13932291666668561},{"name":"G3","midi":55,"time":326.7265625000029,"velocity":0.84251968503937,"duration":0.13932291666668561},{"name":"F#3","midi":54,"time":326.8671875000029,"velocity":0.84251968503937,"duration":0.2799479166666856},{"name":"D#5","midi":75,"time":327.0078125000029,"velocity":0.84251968503937,"duration":0.13932291666668561},{"name":"D5","midi":74,"time":327.1484375000029,"velocity":0.84251968503937,"duration":0.13932291666668561},{"name":"G3","midi":55,"time":327.1484375000029,"velocity":0.84251968503937,"duration":0.2799479166666856},{"name":"C5","midi":72,"time":327.2890625000029,"velocity":0.84251968503937,"duration":0.13932291666668561},{"name":"A#4","midi":70,"time":327.4296875000029,"velocity":0.84251968503937,"duration":0.13932291666668561},{"name":"A3","midi":57,"time":327.4296875000029,"velocity":0.84251968503937,"duration":0.2799479166666856},{"name":"A4","midi":69,"time":327.5703125000029,"velocity":0.84251968503937,"duration":0.13932291666668561},{"name":"A#4","midi":70,"time":327.7109375000029,"velocity":0.84251968503937,"duration":0.13932291666668561},{"name":"G3","midi":55,"time":327.7109375000029,"velocity":0.84251968503937,"duration":0.2799479166666856},{"name":"D5","midi":74,"time":327.8515625000029,"velocity":0.84251968503937,"duration":0.13932291666668561},{"name":"C5","midi":72,"time":327.9921875000029,"velocity":0.84251968503937,"duration":0.13932291666668561},{"name":"A3","midi":57,"time":327.9921875000029,"velocity":0.84251968503937,"duration":0.2799479166666856},{"name":"A#4","midi":70,"time":328.1328125000029,"velocity":0.84251968503937,"duration":0.13932291666668561},{"name":"A4","midi":69,"time":328.2734375000029,"velocity":0.84251968503937,"duration":0.13932291666668561},{"name":"A#3","midi":58,"time":328.2734375000029,"velocity":0.84251968503937,"duration":0.2799479166666856},{"name":"G4","midi":67,"time":328.4140625000029,"velocity":0.84251968503937,"duration":0.13932291666668561},{"name":"F#4","midi":66,"time":328.5546875000029,"velocity":0.84251968503937,"duration":0.5559895833333144},{"name":"C4","midi":60,"time":328.5546875000029,"velocity":0.84251968503937,"duration":0.13932291666668561},{"name":"A3","midi":57,"time":328.6953125000029,"velocity":0.84251968503937,"duration":0.13932291666668561},{"name":"D4","midi":62,"time":328.8359375000029,"velocity":0.84251968503937,"duration":0.5546874999999432},{"name":"F#3","midi":54,"time":328.8359375000029,"velocity":0.84251968503937,"duration":0.13932291666668561},{"name":"D3","midi":50,"time":328.9765625000029,"velocity":0.84251968503937,"duration":0.13802083333331439},{"name":"D5","midi":74,"time":329.1158854166695,"velocity":0.84251968503937,"duration":0.2786458333333144},{"name":"F#3","midi":54,"time":329.1158854166695,"velocity":0.84251968503937,"duration":0.13932291666668561},{"name":"A3","midi":57,"time":329.2565104166695,"velocity":0.84251968503937,"duration":0.13802083333331439},{"name":"D5","midi":74,"time":329.39583333333616,"velocity":0.84251968503937,"duration":0.5559895833333144},{"name":"A#3","midi":58,"time":329.39583333333616,"velocity":0.84251968503937,"duration":0.13932291666668561},{"name":"G3","midi":55,"time":329.53645833333616,"velocity":0.84251968503937,"duration":0.13932291666668561},{"name":"E4","midi":64,"time":329.67708333333616,"velocity":0.84251968503937,"duration":0.5546874999999432},{"name":"E3","midi":52,"time":329.67708333333616,"velocity":0.84251968503937,"duration":0.13932291666668561},{"name":"C#3","midi":49,"time":329.81770833333616,"velocity":0.84251968503937,"duration":0.13802083333331439},{"name":"D5","midi":74,"time":329.9570312500028,"velocity":0.84251968503937,"duration":0.2786458333333144},{"name":"E3","midi":52,"time":329.9570312500028,"velocity":0.84251968503937,"duration":0.13932291666668561},{"name":"G3","midi":55,"time":330.0976562500028,"velocity":0.84251968503937,"duration":0.13802083333331439},{"name":"D5","midi":74,"time":330.2369791666694,"velocity":0.84251968503937,"duration":0.5559895833333144},{"name":"A3","midi":57,"time":330.2369791666694,"velocity":0.84251968503937,"duration":0.13932291666668561},{"name":"F#3","midi":54,"time":330.3776041666694,"velocity":0.84251968503937,"duration":0.13932291666668561},{"name":"F#4","midi":66,"time":330.5182291666694,"velocity":0.84251968503937,"duration":0.5546874999999432},{"name":"D#3","midi":51,"time":330.5182291666694,"velocity":0.84251968503937,"duration":0.13932291666668561},{"name":"C3","midi":48,"time":330.6588541666694,"velocity":0.84251968503937,"duration":0.13802083333331439},{"name":"D5","midi":74,"time":330.79817708333604,"velocity":0.84251968503937,"duration":0.2786458333333144},{"name":"D#3","midi":51,"time":330.79817708333604,"velocity":0.84251968503937,"duration":0.13932291666668561},{"name":"F#3","midi":54,"time":330.93880208333604,"velocity":0.84251968503937,"duration":0.13802083333331439},{"name":"D5","midi":74,"time":331.0781250000027,"velocity":0.84251968503937,"duration":0.5559895833333144},{"name":"G3","midi":55,"time":331.0781250000027,"velocity":0.84251968503937,"duration":0.13932291666668561},{"name":"E3","midi":52,"time":331.2187500000027,"velocity":0.84251968503937,"duration":0.13932291666668561},{"name":"G4","midi":67,"time":331.3593750000027,"velocity":0.84251968503937,"duration":0.5546874999999432},{"name":"C#3","midi":49,"time":331.3593750000027,"velocity":0.84251968503937,"duration":0.13932291666668561},{"name":"A#2","midi":46,"time":331.5000000000027,"velocity":0.84251968503937,"duration":0.13802083333331439},{"name":"D5","midi":74,"time":331.6393229166693,"velocity":0.84251968503937,"duration":0.2786458333333144},{"name":"C#3","midi":49,"time":331.6393229166693,"velocity":0.84251968503937,"duration":0.13932291666668561},{"name":"E3","midi":52,"time":331.7799479166693,"velocity":0.84251968503937,"duration":0.13802083333331439},{"name":"D5","midi":74,"time":331.91927083333593,"velocity":0.84251968503937,"duration":0.5559895833333144},{"name":"F#3","midi":54,"time":331.91927083333593,"velocity":0.84251968503937,"duration":0.13932291666668561},{"name":"D#3","midi":51,"time":332.05989583333593,"velocity":0.84251968503937,"duration":0.13932291666668561},{"name":"A4","midi":69,"time":332.20052083333593,"velocity":0.84251968503937,"duration":0.2786458333333144},{"name":"C3","midi":48,"time":332.20052083333593,"velocity":0.84251968503937,"duration":0.13932291666668561},{"name":"A2","midi":45,"time":332.34114583333593,"velocity":0.84251968503937,"duration":0.13802083333331439},{"name":"A#4","midi":70,"time":332.48046875000256,"velocity":0.84251968503937,"duration":0.2799479166666856},{"name":"C3","midi":48,"time":332.48046875000256,"velocity":0.84251968503937,"duration":0.13932291666668561},{"name":"D#3","midi":51,"time":332.62109375000256,"velocity":0.84251968503937,"duration":0.13932291666668561},{"name":"C5","midi":72,"time":332.76171875000256,"velocity":0.84251968503937,"duration":0.13932291666668561},{"name":"F#3","midi":54,"time":332.76171875000256,"velocity":0.84251968503937,"duration":0.13932291666668561},{"name":"A#4","midi":70,"time":332.90234375000256,"velocity":0.84251968503937,"duration":0.13932291666668561},{"name":"D3","midi":50,"time":332.90234375000256,"velocity":0.84251968503937,"duration":0.13932291666668561},{"name":"D5","midi":74,"time":333.04296875000256,"velocity":0.84251968503937,"duration":0.13932291666668561},{"name":"F#3","midi":54,"time":333.04296875000256,"velocity":0.84251968503937,"duration":0.13932291666668561},{"name":"C5","midi":72,"time":333.18359375000256,"velocity":0.84251968503937,"duration":0.13932291666668561},{"name":"A3","midi":57,"time":333.18359375000256,"velocity":0.84251968503937,"duration":0.13932291666668561},{"name":"A#4","midi":70,"time":333.32421875000256,"velocity":0.84251968503937,"duration":0.13932291666668561},{"name":"G3","midi":55,"time":333.32421875000256,"velocity":0.84251968503937,"duration":0.13932291666668561},{"name":"A4","midi":69,"time":333.46484375000256,"velocity":0.84251968503937,"duration":0.13932291666668561},{"name":"F#3","midi":54,"time":333.46484375000256,"velocity":0.84251968503937,"duration":0.13932291666668561},{"name":"A#4","midi":70,"time":333.60546875000256,"velocity":0.84251968503937,"duration":0.5559895833333144},{"name":"G3","midi":55,"time":333.60546875000256,"velocity":0.84251968503937,"duration":0.13932291666668561},{"name":"F#3","midi":54,"time":333.74609375000256,"velocity":0.84251968503937,"duration":0.13932291666668561},{"name":"D5","midi":74,"time":333.88671875000256,"velocity":0.84251968503937,"duration":0.8411458333333144},{"name":"G3","midi":55,"time":333.88671875000256,"velocity":0.84251968503937,"duration":0.13932291666668561},{"name":"A#3","midi":58,"time":334.02734375000256,"velocity":0.84251968503937,"duration":0.13802083333331439},{"name":"A#4","midi":70,"time":334.1666666666692,"velocity":0.84251968503937,"duration":0.8424479166666856},{"name":"F#3","midi":54,"time":334.1666666666692,"velocity":0.84251968503937,"duration":0.13932291666668561},{"name":"G3","midi":55,"time":334.3072916666692,"velocity":0.84251968503937,"duration":0.13932291666668561},{"name":"G4","midi":67,"time":334.4479166666692,"velocity":0.84251968503937,"duration":0.8424479166666856},{"name":"A#2","midi":46,"time":334.4479166666692,"velocity":0.84251968503937,"duration":0.13932291666668561},{"name":"F#3","midi":54,"time":334.5885416666692,"velocity":0.84251968503937,"duration":0.13932291666668561},{"name":"D5","midi":74,"time":334.7291666666692,"velocity":0.84251968503937,"duration":0.8424479166666856},{"name":"G3","midi":55,"time":334.7291666666692,"velocity":0.84251968503937,"duration":0.13932291666668561},{"name":"A#3","midi":58,"time":334.8697916666692,"velocity":0.84251968503937,"duration":0.13932291666668561},{"name":"A#4","midi":70,"time":335.0104166666692,"velocity":0.84251968503937,"duration":0.8424479166666856},{"name":"F#3","midi":54,"time":335.0104166666692,"velocity":0.84251968503937,"duration":0.13932291666668561},{"name":"G3","midi":55,"time":335.1510416666692,"velocity":0.84251968503937,"duration":0.13932291666668561},{"name":"G4","midi":67,"time":335.2916666666692,"velocity":0.84251968503937,"duration":0.8424479166666856},{"name":"C3","midi":48,"time":335.2916666666692,"velocity":0.84251968503937,"duration":0.13932291666668561},{"name":"F#3","midi":54,"time":335.4322916666692,"velocity":0.84251968503937,"duration":0.13932291666668561},{"name":"D5","midi":74,"time":335.5729166666692,"velocity":0.84251968503937,"duration":0.8424479166666856},{"name":"G3","midi":55,"time":335.5729166666692,"velocity":0.84251968503937,"duration":0.13932291666668561},{"name":"A#3","midi":58,"time":335.7135416666692,"velocity":0.84251968503937,"duration":0.13932291666668561},{"name":"A#4","midi":70,"time":335.8541666666692,"velocity":0.84251968503937,"duration":0.8424479166666856},{"name":"F#3","midi":54,"time":335.8541666666692,"velocity":0.84251968503937,"duration":0.13932291666668561},{"name":"G3","midi":55,"time":335.9947916666692,"velocity":0.84251968503937,"duration":0.13932291666668561},{"name":"G4","midi":67,"time":336.1354166666692,"velocity":0.84251968503937,"duration":0.8424479166666856},{"name":"D3","midi":50,"time":336.1354166666692,"velocity":0.84251968503937,"duration":0.13932291666668561},{"name":"F#3","midi":54,"time":336.2760416666692,"velocity":0.84251968503937,"duration":0.13932291666668561},{"name":"D5","midi":74,"time":336.4166666666692,"velocity":0.84251968503937,"duration":0.8424479166666856},{"name":"G3","midi":55,"time":336.4166666666692,"velocity":0.84251968503937,"duration":0.13932291666668561},{"name":"A#3","midi":58,"time":336.5572916666692,"velocity":0.84251968503937,"duration":0.13932291666668561},{"name":"A#4","midi":70,"time":336.6979166666692,"velocity":0.84251968503937,"duration":0.8424479166666856},{"name":"F#3","midi":54,"time":336.6979166666692,"velocity":0.84251968503937,"duration":0.13932291666668561},{"name":"G3","midi":55,"time":336.8385416666692,"velocity":0.84251968503937,"duration":0.13932291666668561},{"name":"G4","midi":67,"time":336.9791666666692,"velocity":0.84251968503937,"duration":0.8424479166666856},{"name":"D#3","midi":51,"time":336.9791666666692,"velocity":0.84251968503937,"duration":0.13932291666668561},{"name":"F#3","midi":54,"time":337.1197916666692,"velocity":0.84251968503937,"duration":0.13932291666668561},{"name":"D5","midi":74,"time":337.2604166666692,"velocity":0.84251968503937,"duration":0.8424479166666856},{"name":"G3","midi":55,"time":337.2604166666692,"velocity":0.84251968503937,"duration":0.13932291666668561},{"name":"A#3","midi":58,"time":337.4010416666692,"velocity":0.84251968503937,"duration":0.13932291666668561},{"name":"A#4","midi":70,"time":337.5416666666692,"velocity":0.84251968503937,"duration":0.8411458333333144},{"name":"F#3","midi":54,"time":337.5416666666692,"velocity":0.84251968503937,"duration":0.13932291666668561},{"name":"G3","midi":55,"time":337.6822916666692,"velocity":0.84251968503937,"duration":0.13932291666668561},{"name":"G4","midi":67,"time":337.8229166666692,"velocity":0.84251968503937,"duration":0.5559895833333144},{"name":"D3","midi":50,"time":337.8229166666692,"velocity":0.84251968503937,"duration":0.13932291666668561},{"name":"F#3","midi":54,"time":337.9635416666692,"velocity":0.84251968503937,"duration":0.13932291666668561},{"name":"D5","midi":74,"time":338.1041666666692,"velocity":0.84251968503937,"duration":0.2786458333333144},{"name":"G3","midi":55,"time":338.1041666666692,"velocity":0.84251968503937,"duration":0.13932291666668561},{"name":"A#3","midi":58,"time":338.2447916666692,"velocity":0.84251968503937,"duration":0.13802083333331439},{"name":"A#4","midi":70,"time":338.3841145833358,"velocity":0.84251968503937,"duration":0.2799479166666856},{"name":"F#3","midi":54,"time":338.3841145833358,"velocity":0.84251968503937,"duration":0.13932291666668561},{"name":"G3","midi":55,"time":338.5247395833358,"velocity":0.84251968503937,"duration":0.13932291666668561},{"name":"G4","midi":67,"time":338.6653645833358,"velocity":0.84251968503937,"duration":0.13932291666668561},{"name":"C#3","midi":49,"time":338.6653645833358,"velocity":0.84251968503937,"duration":0.8424479166666856},{"name":"A4","midi":69,"time":338.8059895833358,"velocity":0.84251968503937,"duration":0.13932291666668561},{"name":"A#4","midi":70,"time":338.9466145833358,"velocity":0.84251968503937,"duration":0.13932291666668561},{"name":"E5","midi":76,"time":339.0872395833358,"velocity":0.84251968503937,"duration":0.13932291666668561},{"name":"A#4","midi":70,"time":339.2278645833358,"velocity":0.84251968503937,"duration":0.13932291666668561},{"name":"A4","midi":69,"time":339.3684895833358,"velocity":0.84251968503937,"duration":0.13932291666668561},{"name":"G4","midi":67,"time":339.5091145833358,"velocity":0.84251968503937,"duration":0.13932291666668561},{"name":"A4","midi":69,"time":339.6497395833358,"velocity":0.84251968503937,"duration":0.13932291666668561},{"name":"A#4","midi":70,"time":339.7903645833358,"velocity":0.84251968503937,"duration":0.13932291666668561},{"name":"E5","midi":76,"time":339.9309895833358,"velocity":0.84251968503937,"duration":0.13932291666668561},{"name":"A4","midi":69,"time":340.0716145833358,"velocity":0.84251968503937,"duration":0.13932291666668561},{"name":"G4","midi":67,"time":340.2122395833358,"velocity":0.84251968503937,"duration":0.13932291666668561},{"name":"F#4","midi":66,"time":340.3528645833358,"velocity":0.84251968503937,"duration":0.13932291666668561},{"name":"C3","midi":48,"time":340.3528645833358,"velocity":0.84251968503937,"duration":0.8424479166666856},{"name":"A4","midi":69,"time":340.4934895833358,"velocity":0.84251968503937,"duration":0.13932291666668561},{"name":"C5","midi":72,"time":340.6341145833358,"velocity":0.84251968503937,"duration":0.13932291666668561},{"name":"D#5","midi":75,"time":340.7747395833358,"velocity":0.84251968503937,"duration":0.13932291666668561},{"name":"D5","midi":74,"time":340.9153645833358,"velocity":0.84251968503937,"duration":0.13932291666668561},{"name":"C5","midi":72,"time":341.0559895833358,"velocity":0.84251968503937,"duration":0.13932291666668561},{"name":"A#2","midi":46,"time":341.2148437500025,"velocity":0.84251968503937,"duration":0.13802083333331439},{"name":"D5","midi":74,"time":341.2148437500025,"velocity":0.84251968503937,"duration":0.13802083333331439},{"name":"D3","midi":50,"time":341.35416666666913,"velocity":0.84251968503937,"duration":0.13671875},{"name":"C5","midi":72,"time":341.35416666666913,"velocity":0.84251968503937,"duration":0.13671875},{"name":"E3","midi":52,"time":341.49218750000244,"velocity":0.84251968503937,"duration":0.140625},{"name":"A#4","midi":70,"time":341.49218750000244,"velocity":0.84251968503937,"duration":0.140625},{"name":"F#3","midi":54,"time":341.63411458333576,"velocity":0.84251968503937,"duration":0.13932291666668561},{"name":"A4","midi":69,"time":341.63411458333576,"velocity":0.84251968503937,"duration":0.13932291666668561},{"name":"G3","midi":55,"time":341.77473958333576,"velocity":0.84251968503937,"duration":0.13932291666668561},{"name":"G4","midi":67,"time":341.77473958333576,"velocity":0.84251968503937,"duration":0.13932291666668561},{"name":"A3","midi":57,"time":341.91536458333576,"velocity":0.84251968503937,"duration":0.13932291666668561},{"name":"F4","midi":65,"time":341.91536458333576,"velocity":0.84251968503937,"duration":0.13932291666668561},{"name":"A#3","midi":58,"time":342.05598958333576,"velocity":0.84251968503937,"duration":0.2799479166666856},{"name":"E4","midi":64,"time":342.05598958333576,"velocity":0.84251968503937,"duration":0.13932291666668561},{"name":"D4","midi":62,"time":342.19661458333576,"velocity":0.84251968503937,"duration":0.13932291666668561},{"name":"A3","midi":57,"time":342.33723958333576,"velocity":0.84251968503937,"duration":0.2799479166666856},{"name":"E4","midi":64,"time":342.33723958333576,"velocity":0.84251968503937,"duration":0.13932291666668561},{"name":"F#4","midi":66,"time":342.47786458333576,"velocity":0.84251968503937,"duration":0.13932291666668561},{"name":"G3","midi":55,"time":342.61848958333576,"velocity":0.84251968503937,"duration":0.2799479166666856},{"name":"G4","midi":67,"time":342.61848958333576,"velocity":0.84251968503937,"duration":0.13932291666668561},{"name":"A4","midi":69,"time":342.75911458333576,"velocity":0.84251968503937,"duration":0.13932291666668561},{"name":"A3","midi":57,"time":342.89973958333576,"velocity":0.84251968503937,"duration":0.2799479166666856},{"name":"F#4","midi":66,"time":342.89973958333576,"velocity":0.84251968503937,"duration":0.13932291666668561},{"name":"E4","midi":64,"time":343.04036458333576,"velocity":0.84251968503937,"duration":0.13932291666668561},{"name":"G3","midi":55,"time":343.18098958333576,"velocity":0.84251968503937,"duration":0.2799479166666856},{"name":"F#4","midi":66,"time":343.18098958333576,"velocity":0.84251968503937,"duration":0.13932291666668561},{"name":"G4","midi":67,"time":343.32161458333576,"velocity":0.84251968503937,"duration":0.13932291666668561},{"name":"F#3","midi":54,"time":343.46223958333576,"velocity":0.84251968503937,"duration":0.2799479166666856},{"name":"A4","midi":69,"time":343.46223958333576,"velocity":0.84251968503937,"duration":0.13932291666668561},{"name":"C4","midi":60,"time":343.60286458333576,"velocity":0.84251968503937,"duration":0.13932291666668561},{"name":"G3","midi":55,"time":343.74348958333576,"velocity":0.84251968503937,"duration":0.5611979166666856},{"name":"A#3","midi":58,"time":343.74348958333576,"velocity":0.84251968503937,"duration":0.5611979166666856},{"name":"D5","midi":74,"time":343.88411458333576,"velocity":0.84251968503937,"duration":0.13932291666668561},{"name":"E5","midi":76,"time":344.02473958333576,"velocity":0.84251968503937,"duration":0.13932291666668561},{"name":"F#5","midi":78,"time":344.16536458333576,"velocity":0.84251968503937,"duration":0.13932291666668561},{"name":"A3","midi":57,"time":344.30598958333576,"velocity":0.84251968503937,"duration":0.2799479166666856},{"name":"F3","midi":53,"time":344.30598958333576,"velocity":0.84251968503937,"duration":0.2799479166666856},{"name":"G5","midi":79,"time":344.30598958333576,"velocity":0.84251968503937,"duration":0.13932291666668561},{"name":"A5","midi":81,"time":344.44661458333576,"velocity":0.84251968503937,"duration":0.13932291666668561},{"name":"G3","midi":55,"time":344.58723958333576,"velocity":0.84251968503937,"duration":0.2799479166666856},{"name":"D#3","midi":51,"time":344.58723958333576,"velocity":0.84251968503937,"duration":0.5559895833333144},{"name":"A#5","midi":82,"time":344.58723958333576,"velocity":0.84251968503937,"duration":0.2799479166666856},{"name":"A3","midi":57,"time":344.86848958333576,"velocity":0.84251968503937,"duration":0.2786458333333144},{"name":"A5","midi":81,"time":344.86848958333576,"velocity":0.84251968503937,"duration":0.2786458333333144},{"name":"D3","midi":50,"time":345.1484375000024,"velocity":0.84251968503937,"duration":0.2799479166666856},{"name":"A#3","midi":58,"time":345.1484375000024,"velocity":0.84251968503937,"duration":0.2799479166666856},{"name":"G5","midi":79,"time":345.1484375000024,"velocity":0.84251968503937,"duration":0.2799479166666856},{"name":"C3","midi":48,"time":345.4296875000024,"velocity":0.84251968503937,"duration":0.5559895833333144},{"name":"C4","midi":60,"time":345.4296875000024,"velocity":0.84251968503937,"duration":0.2799479166666856},{"name":"A5","midi":81,"time":345.4296875000024,"velocity":0.84251968503937,"duration":0.2799479166666856},{"name":"A#3","midi":58,"time":345.7109375000024,"velocity":0.84251968503937,"duration":0.2786458333333144},{"name":"A#5","midi":82,"time":345.7109375000024,"velocity":0.84251968503937,"duration":0.13932291666668561},{"name":"A5","midi":81,"time":345.8515625000024,"velocity":0.84251968503937,"duration":0.13802083333331439},{"name":"A3","midi":57,"time":345.990885416669,"velocity":0.84251968503937,"duration":0.2799479166666856},{"name":"D3","midi":50,"time":345.990885416669,"velocity":0.84251968503937,"duration":0.2799479166666856},{"name":"G5","midi":79,"time":345.990885416669,"velocity":0.84251968503937,"duration":0.13932291666668561},{"name":"F#5","midi":78,"time":346.131510416669,"velocity":0.84251968503937,"duration":0.13932291666668561},{"name":"G3","midi":55,"time":346.272135416669,"velocity":0.84251968503937,"duration":2.2408854166666856},{"name":"D#3","midi":51,"time":346.272135416669,"velocity":0.84251968503937,"duration":1.1236979166666856},{"name":"G5","midi":79,"time":346.272135416669,"velocity":0.84251968503937,"duration":0.13932291666668561},{"name":"F5","midi":77,"time":346.412760416669,"velocity":0.84251968503937,"duration":0.13932291666668561},{"name":"D#5","midi":75,"time":346.553385416669,"velocity":0.84251968503937,"duration":0.13932291666668561},{"name":"D5","midi":74,"time":346.694010416669,"velocity":0.84251968503937,"duration":0.13932291666668561},{"name":"C5","midi":72,"time":346.834635416669,"velocity":0.84251968503937,"duration":0.13932291666668561},{"name":"B4","midi":71,"time":346.975260416669,"velocity":0.84251968503937,"duration":0.13932291666668561},{"name":"C5","midi":72,"time":347.115885416669,"velocity":0.84251968503937,"duration":0.13932291666668561},{"name":"B4","midi":71,"time":347.256510416669,"velocity":0.84251968503937,"duration":0.13932291666668561},{"name":"D3","midi":50,"time":347.397135416669,"velocity":0.84251968503937,"duration":0.2799479166666856},{"name":"C5","midi":72,"time":347.397135416669,"velocity":0.84251968503937,"duration":0.13932291666668561},{"name":"D5","midi":74,"time":347.537760416669,"velocity":0.84251968503937,"duration":0.13932291666668561},{"name":"C3","midi":48,"time":347.678385416669,"velocity":0.84251968503937,"duration":0.2799479166666856},{"name":"D#5","midi":75,"time":347.678385416669,"velocity":0.84251968503937,"duration":0.2799479166666856},{"name":"D3","midi":50,"time":347.959635416669,"velocity":0.84251968503937,"duration":0.2799479166666856},{"name":"A#4","midi":70,"time":347.959635416669,"velocity":0.84251968503937,"duration":0.2799479166666856},{"name":"C3","midi":48,"time":348.240885416669,"velocity":0.84251968503937,"duration":0.2799479166666856},{"name":"C5","midi":72,"time":348.240885416669,"velocity":0.84251968503937,"duration":0.13932291666668561},{"name":"A#4","midi":70,"time":348.381510416669,"velocity":0.84251968503937,"duration":0.13932291666668561},{"name":"F#3","midi":54,"time":348.522135416669,"velocity":0.84251968503937,"duration":0.2799479166666856},{"name":"D3","midi":50,"time":348.522135416669,"velocity":0.84251968503937,"duration":0.2799479166666856},{"name":"A4","midi":69,"time":348.522135416669,"velocity":0.84251968503937,"duration":0.13932291666668561},{"name":"A#4","midi":70,"time":348.662760416669,"velocity":0.84251968503937,"duration":0.13932291666668561},{"name":"G2","midi":43,"time":348.803385416669,"velocity":0.84251968503937,"duration":0.8424479166666856},{"name":"G3","midi":55,"time":348.803385416669,"velocity":0.84251968503937,"duration":0.8424479166666856},{"name":"G4","midi":67,"time":348.803385416669,"velocity":0.84251968503937,"duration":0.2799479166666856},{"name":"A#4","midi":70,"time":349.1054687500024,"velocity":0.84251968503937,"duration":0.2799479166666856},{"name":"A#4","midi":70,"time":349.3867187500024,"velocity":0.84251968503937,"duration":0.27994791666662877},{"name":"A#4","midi":70,"time":349.66796875000233,"velocity":0.84251968503937,"duration":0.2799479166666856},{"name":"A#4","midi":70,"time":349.94921875000233,"velocity":0.84251968503937,"duration":0.2799479166666856},{"name":"A#4","midi":70,"time":350.23046875000233,"velocity":0.84251968503937,"duration":0.2799479166666856},{"name":"D4","midi":62,"time":350.23046875000233,"velocity":0.84251968503937,"duration":0.2799479166666856},{"name":"G3","midi":55,"time":350.23046875000233,"velocity":0.84251968503937,"duration":0.2799479166666856},{"name":"E5","midi":76,"time":350.51171875000233,"velocity":0.84251968503937,"duration":0.13932291666668561},{"name":"A#3","midi":58,"time":350.51171875000233,"velocity":0.84251968503937,"duration":0.2799479166666856},{"name":"C4","midi":60,"time":350.51171875000233,"velocity":0.84251968503937,"duration":0.2799479166666856},{"name":"F5","midi":77,"time":350.65234375000233,"velocity":0.84251968503937,"duration":0.13932291666668561},{"name":"G5","midi":79,"time":350.79296875000233,"velocity":0.84251968503937,"duration":0.13932291666668561},{"name":"D4","midi":62,"time":350.79296875000233,"velocity":0.84251968503937,"duration":0.2799479166666856},{"name":"A3","midi":57,"time":350.79296875000233,"velocity":0.84251968503937,"duration":0.2799479166666856},{"name":"E5","midi":76,"time":350.93359375000233,"velocity":0.84251968503937,"duration":0.13932291666668561},{"name":"F5","midi":77,"time":351.07421875000233,"velocity":0.84251968503937,"duration":0.13932291666668561},{"name":"G3","midi":55,"time":351.07421875000233,"velocity":0.84251968503937,"duration":0.2799479166666856},{"name":"E4","midi":64,"time":351.07421875000233,"velocity":0.84251968503937,"duration":0.2799479166666856},{"name":"A#3","midi":58,"time":351.07421875000233,"velocity":0.84251968503937,"duration":0.2799479166666856},{"name":"G5","midi":79,"time":351.21484375000233,"velocity":0.84251968503937,"duration":0.13932291666668561},{"name":"A4","midi":69,"time":351.35546875000233,"velocity":0.84251968503937,"duration":0.2799479166666856},{"name":"C4","midi":60,"time":351.35546875000233,"velocity":0.84251968503937,"duration":0.8424479166666856},{"name":"F4","midi":65,"time":351.35546875000233,"velocity":0.84251968503937,"duration":0.8424479166666856},{"name":"F3","midi":53,"time":351.35546875000233,"velocity":0.84251968503937,"duration":0.8424479166666856},{"name":"A4","midi":69,"time":351.63671875000233,"velocity":0.84251968503937,"duration":0.2799479166666856},{"name":"A4","midi":69,"time":351.91796875000233,"velocity":0.84251968503937,"duration":0.2799479166666856},{"name":"A4","midi":69,"time":352.19921875000233,"velocity":0.84251968503937,"duration":0.2799479166666856},{"name":"A4","midi":69,"time":352.48046875000233,"velocity":0.84251968503937,"duration":0.2799479166666856},{"name":"A4","midi":69,"time":352.76171875000233,"velocity":0.84251968503937,"duration":0.2799479166666856},{"name":"G4","midi":67,"time":352.76171875000233,"velocity":0.84251968503937,"duration":0.2799479166666856},{"name":"A3","midi":57,"time":352.76171875000233,"velocity":0.84251968503937,"duration":0.2799479166666856},{"name":"E4","midi":64,"time":352.76171875000233,"velocity":0.84251968503937,"duration":0.2799479166666856},{"name":"C#4","midi":61,"time":352.76171875000233,"velocity":0.84251968503937,"duration":0.2799479166666856},{"name":"F4","midi":65,"time":353.04296875000233,"velocity":0.84251968503937,"duration":0.5559895833333144},{"name":"D5","midi":74,"time":353.04296875000233,"velocity":0.84251968503937,"duration":0.13932291666668561},{"name":"D4","midi":62,"time":353.04296875000233,"velocity":0.84251968503937,"duration":1.4049479166666288},{"name":"A#3","midi":58,"time":353.04296875000233,"velocity":0.84251968503937,"duration":0.5598958333333144},{"name":"E5","midi":76,"time":353.18359375000233,"velocity":0.84251968503937,"duration":0.13932291666668561},{"name":"F5","midi":77,"time":353.32421875000233,"velocity":0.84251968503937,"duration":0.13932291666668561},{"name":"D5","midi":74,"time":353.46484375000233,"velocity":0.84251968503937,"duration":0.13802083333331439},{"name":"E5","midi":76,"time":353.60416666666896,"velocity":0.84251968503937,"duration":0.13932291666668561},{"name":"C4","midi":60,"time":353.60416666666896,"velocity":0.84251968503937,"duration":0.2799479166666856},{"name":"F5","midi":77,"time":353.74479166666896,"velocity":0.84251968503937,"duration":0.13932291666668561},{"name":"G5","midi":79,"time":353.88541666666896,"velocity":0.84251968503937,"duration":0.13932291666668561},{"name":"A#3","midi":58,"time":353.88541666666896,"velocity":0.84251968503937,"duration":0.5611979166666856},{"name":"A5","midi":81,"time":354.02604166666896,"velocity":0.84251968503937,"duration":0.13932291666668561},{"name":"A#5","midi":82,"time":354.16666666666896,"velocity":0.84251968503937,"duration":0.13932291666668561},{"name":"G5","midi":79,"time":354.30729166666896,"velocity":0.84251968503937,"duration":0.13932291666668561},{"name":"A5","midi":81,"time":354.44791666666896,"velocity":0.84251968503937,"duration":0.13932291666668561},{"name":"A3","midi":57,"time":354.44791666666896,"velocity":0.84251968503937,"duration":0.2799479166666856},{"name":"C4","midi":60,"time":354.44791666666896,"velocity":0.84251968503937,"duration":0.2799479166666856},{"name":"A#5","midi":82,"time":354.58854166666896,"velocity":0.84251968503937,"duration":0.13932291666668561},{"name":"E5","midi":76,"time":354.72916666666896,"velocity":0.84251968503937,"duration":0.13932291666668561},{"name":"A#3","midi":58,"time":354.72916666666896,"velocity":0.84251968503937,"duration":0.5611979166666856},{"name":"G3","midi":55,"time":354.72916666666896,"velocity":0.84251968503937,"duration":0.5611979166666856},{"name":"F5","midi":77,"time":354.86979166666896,"velocity":0.84251968503937,"duration":0.13932291666668561},{"name":"G5","midi":79,"time":355.01041666666896,"velocity":0.84251968503937,"duration":0.13932291666668561},{"name":"E5","midi":76,"time":355.15104166666896,"velocity":0.84251968503937,"duration":0.13932291666668561},{"name":"F5","midi":77,"time":355.29166666666896,"velocity":0.84251968503937,"duration":0.13932291666668561},{"name":"F3","midi":53,"time":355.29166666666896,"velocity":0.84251968503937,"duration":0.2799479166666856},{"name":"A3","midi":57,"time":355.29166666666896,"velocity":0.84251968503937,"duration":0.2799479166666856},{"name":"G5","midi":79,"time":355.43229166666896,"velocity":0.84251968503937,"duration":0.13932291666668561},{"name":"C#5","midi":73,"time":355.57291666666896,"velocity":0.84251968503937,"duration":0.13932291666668561},{"name":"E3","midi":52,"time":355.57291666666896,"velocity":0.84251968503937,"duration":0.5611979166666856},{"name":"G3","midi":55,"time":355.57291666666896,"velocity":0.84251968503937,"duration":0.9817708333333144},{"name":"D5","midi":74,"time":355.71354166666896,"velocity":0.84251968503937,"duration":0.13932291666668561},{"name":"E5","midi":76,"time":355.85416666666896,"velocity":0.84251968503937,"duration":0.13932291666668561},{"name":"C#5","midi":73,"time":355.99479166666896,"velocity":0.84251968503937,"duration":0.13932291666668561},{"name":"D5","midi":74,"time":356.13541666666896,"velocity":0.84251968503937,"duration":0.13932291666668561},{"name":"D3","midi":50,"time":356.13541666666896,"velocity":0.84251968503937,"duration":0.2799479166666856},{"name":"E5","midi":76,"time":356.27604166666896,"velocity":0.84251968503937,"duration":0.13932291666668561},{"name":"A4","midi":69,"time":356.41666666666896,"velocity":0.84251968503937,"duration":0.9830729166666856},{"name":"C#3","midi":49,"time":356.41666666666896,"velocity":0.84251968503937,"duration":0.8424479166666856},{"name":"G3","midi":55,"time":356.55729166666896,"velocity":0.84251968503937,"duration":0.13932291666668561},{"name":"F3","midi":53,"time":356.69791666666896,"velocity":0.84251968503937,"duration":0.13932291666668561},{"name":"E3","midi":52,"time":356.83854166666896,"velocity":0.84251968503937,"duration":0.13932291666668561},{"name":"D3","midi":50,"time":356.97916666666896,"velocity":0.84251968503937,"duration":0.13932291666668561},{"name":"E3","midi":52,"time":357.11979166666896,"velocity":0.84251968503937,"duration":0.13932291666668561},{"name":"F3","midi":53,"time":357.26041666666896,"velocity":0.84251968503937,"duration":1.1236979166666856},{"name":"D3","midi":50,"time":357.26041666666896,"velocity":0.84251968503937,"duration":0.5611979166666856},{"name":"A4","midi":69,"time":357.40104166666896,"velocity":0.84251968503937,"duration":0.13932291666668561},{"name":"B4","midi":71,"time":357.54166666666896,"velocity":0.84251968503937,"duration":0.13932291666668561},{"name":"C#5","midi":73,"time":357.68229166666896,"velocity":0.84251968503937,"duration":0.13932291666668561},{"name":"D5","midi":74,"time":357.82291666666896,"velocity":0.84251968503937,"duration":0.13932291666668561},{"name":"C3","midi":48,"time":357.82291666666896,"velocity":0.84251968503937,"duration":0.2799479166666856},{"name":"E5","midi":76,"time":357.96354166666896,"velocity":0.84251968503937,"duration":0.13932291666668561},{"name":"F5","midi":77,"time":358.10416666666896,"velocity":0.84251968503937,"duration":0.13932291666668561},{"name":"A#2","midi":46,"time":358.10416666666896,"velocity":0.84251968503937,"duration":0.8424479166666856},{"name":"E5","midi":76,"time":358.24479166666896,"velocity":0.84251968503937,"duration":0.13932291666668561},{"name":"G5","midi":79,"time":358.38541666666896,"velocity":0.84251968503937,"duration":0.13932291666668561},{"name":"D3","midi":50,"time":358.38541666666896,"velocity":0.84251968503937,"duration":0.2799479166666856},{"name":"F5","midi":77,"time":358.52604166666896,"velocity":0.84251968503937,"duration":0.13932291666668561},{"name":"E5","midi":76,"time":358.66666666666896,"velocity":0.84251968503937,"duration":0.13932291666668561},{"name":"G3","midi":55,"time":358.66666666666896,"velocity":0.84251968503937,"duration":0.2799479166666856},{"name":"D5","midi":74,"time":358.80729166666896,"velocity":0.84251968503937,"duration":0.13932291666668561},{"name":"C#5","midi":73,"time":358.94791666666896,"velocity":0.84251968503937,"duration":0.5507812499999432},{"name":"A2","midi":45,"time":358.94791666666896,"velocity":0.84251968503937,"duration":0.2760416666666856},{"name":"A3","midi":57,"time":359.08723958333564,"velocity":0.84251968503937,"duration":0.13802083333331439},{"name":"B3","midi":59,"time":359.2265625000023,"velocity":0.84251968503937,"duration":0.13802083333331439},{"name":"C#4","midi":61,"time":359.3658854166689,"velocity":0.84251968503937,"duration":0.13671875},{"name":"D4","midi":62,"time":359.5039062500022,"velocity":0.84251968503937,"duration":0.13802083333331439},{"name":"E4","midi":64,"time":359.64322916666885,"velocity":0.84251968503937,"duration":0.13802083333331439},{"name":"F4","midi":65,"time":359.7825520833355,"velocity":0.84251968503937,"duration":0.27734375},{"name":"E4","midi":64,"time":360.0611979166688,"velocity":0.84251968503937,"duration":0.27734375},{"name":"D4","midi":62,"time":360.3398437500021,"velocity":0.84251968503937,"duration":0.27734375},{"name":"E4","midi":64,"time":360.6184895833354,"velocity":0.84251968503937,"duration":0.27734375},{"name":"D4","midi":62,"time":360.89713541666873,"velocity":0.84251968503937,"duration":0.27734375},{"name":"C#4","midi":61,"time":361.17578125000205,"velocity":0.84251968503937,"duration":0.27734375},{"name":"D4","midi":62,"time":361.45442708333536,"velocity":0.84251968503937,"duration":1.3919270833331439},{"name":"D3","midi":50,"time":361.59375000000205,"velocity":0.84251968503937,"duration":0.13802083333331439},{"name":"E3","midi":52,"time":361.7330729166687,"velocity":0.84251968503937,"duration":0.13802083333331439},{"name":"F#3","midi":54,"time":361.8723958333353,"velocity":0.84251968503937,"duration":0.13802083333331439},{"name":"G3","midi":55,"time":362.01171875000193,"velocity":0.84251968503937,"duration":0.13802083333331439},{"name":"A3","midi":57,"time":362.15104166666856,"velocity":0.84251968503937,"duration":0.13802083333331439},{"name":"A#3","midi":58,"time":362.2903645833352,"velocity":0.84251968503937,"duration":0.27734375},{"name":"A3","midi":57,"time":362.5690104166685,"velocity":0.84251968503937,"duration":0.27734375},{"name":"A#4","midi":70,"time":362.8476562500018,"velocity":0.84251968503937,"duration":0.27734375},{"name":"G3","midi":55,"time":362.8476562500018,"velocity":0.84251968503937,"duration":0.27734375},{"name":"C4","midi":60,"time":363.12630208333513,"velocity":0.84251968503937,"duration":0.5559895833333144},{"name":"A3","midi":57,"time":363.12630208333513,"velocity":0.84251968503937,"duration":0.27734375},{"name":"G3","midi":55,"time":363.40494791666845,"velocity":0.84251968503937,"duration":0.27734375},{"name":"A4","midi":69,"time":363.68359375000176,"velocity":0.84251968503937,"duration":0.27734375},{"name":"F#3","midi":54,"time":363.68359375000176,"velocity":0.84251968503937,"duration":0.27734375},{"name":"A#3","midi":58,"time":363.9622395833351,"velocity":0.84251968503937,"duration":0.13802083333331439},{"name":"G3","midi":55,"time":363.9622395833351,"velocity":0.84251968503937,"duration":0.973958333333087},{"name":"D4","midi":62,"time":364.1015625000017,"velocity":0.84251968503937,"duration":0.13802083333331439},{"name":"E4","midi":64,"time":364.24088541666833,"velocity":0.84251968503937,"duration":0.13802083333331439},{"name":"F4","midi":65,"time":364.38020833333496,"velocity":0.84251968503937,"duration":0.13802083333331439},{"name":"E4","midi":64,"time":364.5195312500016,"velocity":0.84251968503937,"duration":0.13802083333331439},{"name":"D4","midi":62,"time":364.6588541666682,"velocity":0.84251968503937,"duration":0.13802083333331439},{"name":"G4","midi":67,"time":364.79817708333485,"velocity":0.84251968503937,"duration":0.973958333333087},{"name":"E3","midi":52,"time":364.9375000000015,"velocity":0.84251968503937,"duration":0.13802083333331439},{"name":"D3","midi":50,"time":365.0768229166681,"velocity":0.84251968503937,"duration":0.13802083333331439},{"name":"C#3","midi":49,"time":365.21614583333474,"velocity":0.84251968503937,"duration":0.13802083333331439},{"name":"D3","midi":50,"time":365.35546875000136,"velocity":0.84251968503937,"duration":0.13802083333331439},{"name":"E3","midi":52,"time":365.494791666668,"velocity":0.84251968503937,"duration":0.13802083333331439},{"name":"F3","midi":53,"time":365.6341145833346,"velocity":0.84251968503937,"duration":2.2278645833329165},{"name":"A3","midi":57,"time":365.77343750000125,"velocity":0.84251968503937,"duration":0.13802083333331439},{"name":"B3","midi":59,"time":365.9127604166679,"velocity":0.84251968503937,"duration":0.13802083333331439},{"name":"C#4","midi":61,"time":366.0520833333345,"velocity":0.84251968503937,"duration":0.13802083333331439},{"name":"B3","midi":59,"time":366.19140625000114,"velocity":0.84251968503937,"duration":0.13802083333331439},{"name":"A3","midi":57,"time":366.33072916666777,"velocity":0.84251968503937,"duration":0.13802083333331439},{"name":"D4","midi":62,"time":366.4700520833344,"velocity":0.84251968503937,"duration":1.1132812499998295},{"name":"A4","midi":69,"time":366.6093750000011,"velocity":0.84251968503937,"duration":0.13802083333331439},{"name":"B4","midi":71,"time":366.7486979166677,"velocity":0.84251968503937,"duration":0.13802083333331439},{"name":"C#5","midi":73,"time":366.88802083333434,"velocity":0.84251968503937,"duration":0.13802083333331439},{"name":"D5","midi":74,"time":367.02734375000097,"velocity":0.84251968503937,"duration":0.13802083333331439},{"name":"E5","midi":76,"time":367.1666666666676,"velocity":0.84251968503937,"duration":0.13802083333331439},{"name":"F5","midi":77,"time":367.3059895833342,"velocity":0.84251968503937,"duration":0.27734375},{"name":"E5","midi":76,"time":367.58463541666754,"velocity":0.84251968503937,"duration":0.27734375},{"name":"E4","midi":64,"time":367.58463541666754,"velocity":0.84251968503937,"duration":0.27734375},{"name":"D5","midi":74,"time":367.86328125000085,"velocity":0.84251968503937,"duration":0.27734375},{"name":"F4","midi":65,"time":367.86328125000085,"velocity":0.84251968503937,"duration":0.27734375},{"name":"A#3","midi":58,"time":367.86328125000085,"velocity":0.84251968503937,"duration":0.27734375},{"name":"E5","midi":76,"time":368.14192708333417,"velocity":0.84251968503937,"duration":0.27734375},{"name":"G4","midi":67,"time":368.14192708333417,"velocity":0.84251968503937,"duration":0.27734375},{"name":"G3","midi":55,"time":368.14192708333417,"velocity":0.84251968503937,"duration":0.5559895833333144},{"name":"D5","midi":74,"time":368.4205729166675,"velocity":0.84251968503937,"duration":0.27734375},{"name":"F4","midi":65,"time":368.4205729166675,"velocity":0.84251968503937,"duration":0.27734375},{"name":"C#5","midi":73,"time":368.6992187500008,"velocity":0.84251968503937,"duration":0.27734375},{"name":"E4","midi":64,"time":368.6992187500008,"velocity":0.84251968503937,"duration":0.27734375},{"name":"A3","midi":57,"time":368.6992187500008,"velocity":0.84251968503937,"duration":0.27734375},{"name":"D5","midi":74,"time":368.9778645833341,"velocity":0.84251968503937,"duration":0.13802083333331439},{"name":"D4","midi":62,"time":368.9778645833341,"velocity":0.84251968503937,"duration":0.8346354166664582},{"name":"A#3","midi":58,"time":368.9778645833341,"velocity":0.84251968503937,"duration":1.6692708333329165},{"name":"C5","midi":72,"time":369.11718750000074,"velocity":0.84251968503937,"duration":0.13802083333331439},{"name":"A#4","midi":70,"time":369.25651041666737,"velocity":0.84251968503937,"duration":0.13802083333331439},{"name":"A4","midi":69,"time":369.395833333334,"velocity":0.84251968503937,"duration":0.13802083333331439},{"name":"G4","midi":67,"time":369.5351562500006,"velocity":0.84251968503937,"duration":0.13802083333331439},{"name":"F4","midi":65,"time":369.67447916666725,"velocity":0.84251968503937,"duration":0.13802083333331439},{"name":"E4","midi":64,"time":369.8138020833339,"velocity":0.84251968503937,"duration":0.13802083333331439},{"name":"C4","midi":60,"time":369.8138020833339,"velocity":0.84251968503937,"duration":1.6692708333329165},{"name":"G4","midi":67,"time":369.9531250000005,"velocity":0.84251968503937,"duration":0.13802083333331439},{"name":"A4","midi":69,"time":370.09244791666714,"velocity":0.84251968503937,"duration":0.13802083333331439},{"name":"A#4","midi":70,"time":370.23177083333377,"velocity":0.84251968503937,"duration":0.13802083333331439},{"name":"A4","midi":69,"time":370.3710937500004,"velocity":0.84251968503937,"duration":0.13802083333331439},{"name":"G4","midi":67,"time":370.510416666667,"velocity":0.84251968503937,"duration":0.13802083333331439},{"name":"C5","midi":72,"time":370.64973958333366,"velocity":0.84251968503937,"duration":0.13802083333331439},{"name":"A3","midi":57,"time":370.64973958333366,"velocity":0.84251968503937,"duration":1.6692708333329165},{"name":"A#4","midi":70,"time":370.7890625000003,"velocity":0.84251968503937,"duration":0.13802083333331439},{"name":"A4","midi":69,"time":370.9283854166669,"velocity":0.84251968503937,"duration":0.13802083333331439},{"name":"G4","midi":67,"time":371.06770833333354,"velocity":0.84251968503937,"duration":0.13802083333331439},{"name":"F4","midi":65,"time":371.20703125000017,"velocity":0.84251968503937,"duration":0.13802083333331439},{"name":"E4","midi":64,"time":371.3463541666668,"velocity":0.84251968503937,"duration":0.13802083333331439},{"name":"D4","midi":62,"time":371.4856770833334,"velocity":0.84251968503937,"duration":0.13802083333331439},{"name":"A#3","midi":58,"time":371.4856770833334,"velocity":0.84251968503937,"duration":1.8072916666662309},{"name":"F4","midi":65,"time":371.62500000000006,"velocity":0.84251968503937,"duration":0.13802083333331439},{"name":"G4","midi":67,"time":371.7643229166667,"velocity":0.84251968503937,"duration":0.13802083333331439},{"name":"A4","midi":69,"time":371.9036458333333,"velocity":0.84251968503937,"duration":0.13802083333331439},{"name":"G4","midi":67,"time":372.04296874999994,"velocity":0.84251968503937,"duration":0.13802083333331439},{"name":"F4","midi":65,"time":372.1822916666666,"velocity":0.84251968503937,"duration":0.13802083333331439},{"name":"A#4","midi":70,"time":372.3216145833332,"velocity":0.84251968503937,"duration":0.13802083333331439},{"name":"G3","midi":55,"time":372.3216145833332,"velocity":0.84251968503937,"duration":0.5559895833332007},{"name":"A4","midi":69,"time":372.46093749999983,"velocity":0.84251968503937,"duration":0.13802083333331439},{"name":"G4","midi":67,"time":372.60026041666646,"velocity":0.84251968503937,"duration":0.13802083333331439},{"name":"F4","midi":65,"time":372.7395833333331,"velocity":0.84251968503937,"duration":0.13802083333331439},{"name":"E4","midi":64,"time":372.8789062499997,"velocity":0.84251968503937,"duration":0.13802083333331439},{"name":"F3","midi":53,"time":372.8789062499997,"velocity":0.84251968503937,"duration":0.27734374999994316},{"name":"D4","midi":62,"time":373.01822916666634,"velocity":0.84251968503937,"duration":0.13802083333331439},{"name":"C4","midi":60,"time":373.157552083333,"velocity":0.84251968503937,"duration":0.9739583333331439},{"name":"E3","midi":52,"time":373.157552083333,"velocity":0.84251968503937,"duration":0.8346354166665151},{"name":"A#3","midi":58,"time":373.29687499999966,"velocity":0.84251968503937,"duration":0.13802083333331439},{"name":"A3","midi":57,"time":373.4361979166663,"velocity":0.84251968503937,"duration":0.13802083333331439},{"name":"G3","midi":55,"time":373.5755208333329,"velocity":0.84251968503937,"duration":0.13802083333331439},{"name":"F3","midi":53,"time":373.71484374999955,"velocity":0.84251968503937,"duration":0.13802083333331439},{"name":"G3","midi":55,"time":373.8541666666662,"velocity":0.84251968503937,"duration":0.13802083333331439},{"name":"F3","midi":53,"time":373.9934895833328,"velocity":0.84251968503937,"duration":0.8346354166664582},{"name":"A3","midi":57,"time":373.9934895833328,"velocity":0.84251968503937,"duration":3.3372395833324617},{"name":"E4","midi":64,"time":374.13281249999943,"velocity":0.84251968503937,"duration":0.13802083333331439},{"name":"F4","midi":65,"time":374.27213541666606,"velocity":0.84251968503937,"duration":0.13802083333331439},{"name":"A4","midi":69,"time":374.4114583333327,"velocity":0.84251968503937,"duration":0.13802083333331439},{"name":"E4","midi":64,"time":374.5507812499993,"velocity":0.84251968503937,"duration":0.13802083333331439},{"name":"F4","midi":65,"time":374.69010416666595,"velocity":0.84251968503937,"duration":0.13802083333331439},{"name":"C4","midi":60,"time":374.8294270833326,"velocity":0.84251968503937,"duration":0.13802083333331439},{"name":"E3","midi":52,"time":374.8294270833326,"velocity":0.84251968503937,"duration":0.8346354166664582},{"name":"E4","midi":64,"time":374.9687499999992,"velocity":0.84251968503937,"duration":0.13802083333331439},{"name":"F4","midi":65,"time":375.10807291666583,"velocity":0.84251968503937,"duration":0.13802083333331439},{"name":"A4","midi":69,"time":375.24739583333246,"velocity":0.84251968503937,"duration":0.13802083333331439},{"name":"E4","midi":64,"time":375.3867187499991,"velocity":0.84251968503937,"duration":0.13802083333331439},{"name":"F4","midi":65,"time":375.5260416666657,"velocity":0.84251968503937,"duration":0.13802083333331439},{"name":"C4","midi":60,"time":375.66536458333235,"velocity":0.84251968503937,"duration":0.13802083333331439},{"name":"D3","midi":50,"time":375.66536458333235,"velocity":0.84251968503937,"duration":0.8346354166664582},{"name":"E4","midi":64,"time":375.804687499999,"velocity":0.84251968503937,"duration":0.13802083333331439},{"name":"F4","midi":65,"time":375.9440104166656,"velocity":0.84251968503937,"duration":0.13802083333331439},{"name":"A4","midi":69,"time":376.08333333333223,"velocity":0.84251968503937,"duration":0.13802083333331439},{"name":"E4","midi":64,"time":376.22265624999886,"velocity":0.84251968503937,"duration":0.13802083333331439},{"name":"F4","midi":65,"time":376.3619791666655,"velocity":0.84251968503937,"duration":0.13802083333331439},{"name":"C4","midi":60,"time":376.5013020833321,"velocity":0.84251968503937,"duration":0.13802083333331439},{"name":"C3","midi":48,"time":376.5013020833321,"velocity":0.84251968503937,"duration":0.8333333333331439},{"name":"E4","midi":64,"time":376.64062499999875,"velocity":0.84251968503937,"duration":0.13802083333331439},{"name":"F4","midi":65,"time":376.7799479166654,"velocity":0.84251968503937,"duration":0.13802083333331439},{"name":"A4","midi":69,"time":376.919270833332,"velocity":0.84251968503937,"duration":0.13802083333331439},{"name":"E4","midi":64,"time":377.05859374999864,"velocity":0.84251968503937,"duration":0.13802083333331439},{"name":"F4","midi":65,"time":377.19791666666526,"velocity":0.84251968503937,"duration":0.13671875},{"name":"C4","midi":60,"time":377.3359374999986,"velocity":0.84251968503937,"duration":0.13802083333331439},{"name":"A#2","midi":46,"time":377.3359374999986,"velocity":0.84251968503937,"duration":0.8346354166664582},{"name":"G3","midi":55,"time":377.3359374999986,"velocity":0.84251968503937,"duration":0.8346354166664582},{"name":"E4","midi":64,"time":377.4752604166652,"velocity":0.84251968503937,"duration":0.13802083333331439},{"name":"F4","midi":65,"time":377.61458333333184,"velocity":0.84251968503937,"duration":0.13802083333331439},{"name":"A4","midi":69,"time":377.75390624999847,"velocity":0.84251968503937,"duration":0.13802083333331439},{"name":"E4","midi":64,"time":377.8932291666651,"velocity":0.84251968503937,"duration":0.13802083333331439},{"name":"F4","midi":65,"time":378.0325520833317,"velocity":0.84251968503937,"duration":0.13802083333331439},{"name":"C4","midi":60,"time":378.17187499999835,"velocity":0.84251968503937,"duration":0.13802083333331439},{"name":"F3","midi":53,"time":378.17187499999835,"velocity":0.84251968503937,"duration":0.9726562499997726},{"name":"A2","midi":45,"time":378.17187499999835,"velocity":0.84251968503937,"duration":0.8346354166664582},{"name":"E4","midi":64,"time":378.311197916665,"velocity":0.84251968503937,"duration":0.13802083333331439},{"name":"F4","midi":65,"time":378.4505208333316,"velocity":0.84251968503937,"duration":0.13802083333331439},{"name":"A4","midi":69,"time":378.58984374999824,"velocity":0.84251968503937,"duration":0.13802083333331439},{"name":"E4","midi":64,"time":378.72916666666487,"velocity":0.84251968503937,"duration":0.13802083333331439},{"name":"F4","midi":65,"time":378.8684895833315,"velocity":0.84251968503937,"duration":0.13802083333331439},{"name":"D4","midi":62,"time":379.0078124999981,"velocity":0.84251968503937,"duration":0.27734375},{"name":"A#2","midi":46,"time":379.0078124999981,"velocity":0.84251968503937,"duration":0.5507812499999432},{"name":"F3","midi":53,"time":379.1471354166648,"velocity":0.84251968503937,"duration":0.13802083333331439},{"name":"E4","midi":64,"time":379.28645833333144,"velocity":0.84251968503937,"duration":0.13802083333331439},{"name":"G3","midi":55,"time":379.28645833333144,"velocity":0.84251968503937,"duration":0.13802083333331439},{"name":"F4","midi":65,"time":379.42578124999807,"velocity":0.84251968503937,"duration":0.13671875},{"name":"A3","midi":57,"time":379.42578124999807,"velocity":0.84251968503937,"duration":0.13671875},{"name":"G4","midi":67,"time":379.5638020833314,"velocity":0.84251968503937,"duration":0.13802083333331439},{"name":"A#3","midi":58,"time":379.5638020833314,"velocity":0.84251968503937,"duration":0.13802083333331439},{"name":"A4","midi":69,"time":379.703124999998,"velocity":0.84251968503937,"duration":0.13802083333331439},{"name":"C4","midi":60,"time":379.703124999998,"velocity":0.84251968503937,"duration":0.13802083333331439},{"name":"A#4","midi":70,"time":379.84244791666464,"velocity":0.84251968503937,"duration":0.27734375},{"name":"D4","midi":62,"time":379.84244791666464,"velocity":0.84251968503937,"duration":0.27734375},{"name":"A4","midi":69,"time":380.12109374999795,"velocity":0.84251968503937,"duration":0.27734375},{"name":"C4","midi":60,"time":380.12109374999795,"velocity":0.84251968503937,"duration":0.27734375},{"name":"G4","midi":67,"time":380.39973958333127,"velocity":0.84251968503937,"duration":0.27734375},{"name":"A#3","midi":58,"time":380.39973958333127,"velocity":0.84251968503937,"duration":0.27734375},{"name":"A4","midi":69,"time":380.6783854166646,"velocity":0.84251968503937,"duration":0.27734375},{"name":"C4","midi":60,"time":380.6783854166646,"velocity":0.84251968503937,"duration":0.27734375},{"name":"G4","midi":67,"time":380.9570312499979,"velocity":0.84251968503937,"duration":0.27734375},{"name":"A#3","midi":58,"time":380.9570312499979,"velocity":0.84251968503937,"duration":0.27734375},{"name":"F4","midi":65,"time":381.2356770833312,"velocity":0.84251968503937,"duration":0.27734375},{"name":"A3","midi":57,"time":381.2356770833312,"velocity":0.84251968503937,"duration":0.27734375},{"name":"E4","midi":64,"time":381.5143229166645,"velocity":0.84251968503937,"duration":0.5546874999999432},{"name":"C5","midi":72,"time":381.5143229166645,"velocity":0.84251968503937,"duration":0.5546874999999432},{"name":"G3","midi":55,"time":381.5143229166645,"velocity":0.84251968503937,"duration":0.5507812499999432},{"name":"A#2","midi":46,"time":381.6536458333312,"velocity":0.84251968503937,"duration":0.13802083333331439},{"name":"C3","midi":48,"time":381.79296874999784,"velocity":0.84251968503937,"duration":0.13802083333331439},{"name":"D3","midi":50,"time":381.93229166666447,"velocity":0.84251968503937,"duration":0.13671875},{"name":"C4","midi":60,"time":382.0703124999978,"velocity":0.84251968503937,"duration":0.27734374999994316},{"name":"E4","midi":64,"time":382.0703124999978,"velocity":0.84251968503937,"duration":0.27734374999994316},{"name":"G3","midi":55,"time":382.0703124999978,"velocity":0.84251968503937,"duration":0.27604166666662877},{"name":"C3","midi":48,"time":382.0703124999978,"velocity":0.84251968503937,"duration":0.13802083333331439},{"name":"A#2","midi":46,"time":382.2096354166644,"velocity":0.84251968503937,"duration":0.13802083333331439},{"name":"F4","midi":65,"time":382.34895833333104,"velocity":0.84251968503937,"duration":0.5559895833333144},{"name":"C4","midi":60,"time":382.34895833333104,"velocity":0.84251968503937,"duration":0.5559895833333144},{"name":"F3","midi":53,"time":382.34895833333104,"velocity":0.84251968503937,"duration":1.111979166666515},{"name":"A2","midi":45,"time":382.34895833333104,"velocity":0.84251968503937,"duration":0.27734375},{"name":"C3","midi":48,"time":382.62760416666436,"velocity":0.84251968503937,"duration":0.27734375},{"name":"G4","midi":67,"time":382.90624999999767,"velocity":0.84251968503937,"duration":0.27734375},{"name":"D4","midi":62,"time":382.90624999999767,"velocity":0.84251968503937,"duration":0.27734375},{"name":"A#2","midi":46,"time":382.90624999999767,"velocity":0.84251968503937,"duration":0.27734375},{"name":"A4","midi":69,"time":383.184895833331,"velocity":0.84251968503937,"duration":0.09114583333331439},{"name":"C4","midi":60,"time":383.184895833331,"velocity":0.84251968503937,"duration":0.8307291666663446},{"name":"C3","midi":48,"time":383.184895833331,"velocity":0.84251968503937,"duration":0.8307291666663446},{"name":"G4","midi":67,"time":383.2773437499976,"velocity":0.84251968503937,"duration":0.09114583333331439},{"name":"A4","midi":69,"time":383.36979166666424,"velocity":0.84251968503937,"duration":0.09114583333331439},{"name":"G4","midi":67,"time":383.46223958333087,"velocity":0.84251968503937,"duration":0.09114583333331439},{"name":"F3","midi":53,"time":383.46223958333087,"velocity":0.84251968503937,"duration":0.2760416666665719},{"name":"A4","midi":69,"time":383.5546874999975,"velocity":0.84251968503937,"duration":0.09114583333331439},{"name":"G4","midi":67,"time":383.6471354166641,"velocity":0.84251968503937,"duration":0.09114583333331439},{"name":"F4","midi":65,"time":383.73958333333076,"velocity":0.84251968503937,"duration":0.09114583333331439},{"name":"E3","midi":52,"time":383.73958333333076,"velocity":0.84251968503937,"duration":0.2760416666665719},{"name":"G4","midi":67,"time":383.8320312499974,"velocity":0.84251968503937,"duration":0.09114583333331439},{"name":"A4","midi":69,"time":383.924479166664,"velocity":0.84251968503937,"duration":0.09114583333331439},{"name":"A3","midi":57,"time":384.01692708333064,"velocity":0.84251968503937,"duration":0.8346354166664582},{"name":"C4","midi":60,"time":384.01692708333064,"velocity":0.84251968503937,"duration":0.8346354166664582},{"name":"F4","midi":65,"time":384.01692708333064,"velocity":0.84251968503937,"duration":0.8346354166664582},{"name":"F3","midi":53,"time":384.01692708333064,"velocity":0.84251968503937,"duration":0.13802083333331439},{"name":"F2","midi":41,"time":384.01692708333064,"velocity":0.84251968503937,"duration":0.27604166666662877},{"name":"C3","midi":48,"time":384.15624999999727,"velocity":0.84251968503937,"duration":0.13802083333331439},{"name":"D3","midi":50,"time":384.2955729166639,"velocity":0.84251968503937,"duration":0.13802083333331439},{"name":"E3","midi":52,"time":384.43489583333053,"velocity":0.84251968503937,"duration":0.13802083333331439},{"name":"F3","midi":53,"time":384.57421874999716,"velocity":0.84251968503937,"duration":0.13802083333331439},{"name":"G3","midi":55,"time":384.7135416666638,"velocity":0.84251968503937,"duration":0.13802083333331439},{"name":"A3","midi":57,"time":384.8528645833304,"velocity":0.84251968503937,"duration":0.27734375},{"name":"D4","midi":62,"time":384.9921874999971,"velocity":0.84251968503937,"duration":0.13802083333331439},{"name":"E4","midi":64,"time":385.13151041666373,"velocity":0.84251968503937,"duration":0.13802083333331439},{"name":"G3","midi":55,"time":385.13151041666373,"velocity":0.84251968503937,"duration":0.27734374999994316},{"name":"F4","midi":65,"time":385.27083333333036,"velocity":0.84251968503937,"duration":0.13802083333331439},{"name":"G4","midi":67,"time":385.410156249997,"velocity":0.84251968503937,"duration":0.13802083333331439},{"name":"F3","midi":53,"time":385.410156249997,"velocity":0.84251968503937,"duration":0.27734374999994316},{"name":"A4","midi":69,"time":385.5494791666636,"velocity":0.84251968503937,"duration":0.13802083333331439},{"name":"A#3","midi":58,"time":385.68880208333024,"velocity":0.84251968503937,"duration":0.13802083333331439},{"name":"G3","midi":55,"time":385.68880208333024,"velocity":0.84251968503937,"duration":0.27734374999994316},{"name":"C4","midi":60,"time":385.8281249999969,"velocity":0.84251968503937,"duration":0.13802083333331439},{"name":"D4","midi":62,"time":385.9674479166635,"velocity":0.84251968503937,"duration":0.13802083333331439},{"name":"F3","midi":53,"time":385.9674479166635,"velocity":0.84251968503937,"duration":0.27734374999994316},{"name":"E4","midi":64,"time":386.10677083333013,"velocity":0.84251968503937,"duration":0.13802083333331439},{"name":"F4","midi":65,"time":386.24609374999676,"velocity":0.84251968503937,"duration":0.13802083333331439},{"name":"E3","midi":52,"time":386.24609374999676,"velocity":0.84251968503937,"duration":0.27734374999994316},{"name":"G4","midi":67,"time":386.3854166666634,"velocity":0.84251968503937,"duration":0.13802083333331439},{"name":"F3","midi":53,"time":386.52473958333,"velocity":0.84251968503937,"duration":0.9739583333331439},{"name":"A3","midi":57,"time":386.52473958333,"velocity":0.84251968503937,"duration":1.247395833333087},{"name":"F5","midi":77,"time":386.6640624999967,"velocity":0.84251968503937,"duration":0.13802083333331439},{"name":"E5","midi":76,"time":386.80338541666333,"velocity":0.84251968503937,"duration":0.13802083333331439},{"name":"D5","midi":74,"time":386.94270833332996,"velocity":0.84251968503937,"duration":0.13802083333331439},{"name":"C5","midi":72,"time":387.0820312499966,"velocity":0.84251968503937,"duration":0.13802083333331439},{"name":"A#4","midi":70,"time":387.2213541666632,"velocity":0.84251968503937,"duration":0.13802083333331439},{"name":"A4","midi":69,"time":387.36067708332985,"velocity":0.84251968503937,"duration":0.27734374999994316},{"name":"E3","midi":52,"time":387.4999999999965,"velocity":0.84251968503937,"duration":0.13802083333331439},{"name":"B4","midi":71,"time":387.6393229166631,"velocity":0.84251968503937,"duration":0.27604166666662877},{"name":"F3","midi":53,"time":387.6393229166631,"velocity":0.84251968503937,"duration":0.2747395833333144},{"name":"G3","midi":55,"time":387.7773437499964,"velocity":0.84251968503937,"duration":0.13802083333331439},{"name":"C5","midi":72,"time":387.91666666666305,"velocity":0.84251968503937,"duration":0.27734375},{"name":"F3","midi":53,"time":387.91666666666305,"velocity":0.84251968503937,"duration":0.55078125},{"name":"E3","midi":52,"time":388.05598958332973,"velocity":0.84251968503937,"duration":0.13802083333331439},{"name":"B4","midi":71,"time":388.19531249999636,"velocity":0.84251968503937,"duration":0.2760416666666856},{"name":"D3","midi":50,"time":388.19531249999636,"velocity":0.84251968503937,"duration":0.2760416666666856},{"name":"C5","midi":72,"time":388.47265624999636,"velocity":0.84251968503937,"duration":0.27734375},{"name":"G3","midi":55,"time":388.47265624999636,"velocity":0.84251968503937,"duration":0.27734375},{"name":"E3","midi":52,"time":388.47265624999636,"velocity":0.84251968503937,"duration":0.27734375},{"name":"D5","midi":74,"time":388.7513020833297,"velocity":0.84251968503937,"duration":0.27734375},{"name":"F3","midi":53,"time":388.7513020833297,"velocity":0.84251968503937,"duration":0.27734375},{"name":"A3","midi":57,"time":388.7513020833297,"velocity":0.84251968503937,"duration":0.27734375},{"name":"C5","midi":72,"time":389.029947916663,"velocity":0.84251968503937,"duration":4.72526041666589},{"name":"E3","midi":52,"time":389.029947916663,"velocity":0.84251968503937,"duration":1.1132812499998295},{"name":"G3","midi":55,"time":389.029947916663,"velocity":0.84251968503937,"duration":0.8346354166665151},{"name":"A4","midi":69,"time":389.1692708333297,"velocity":0.84251968503937,"duration":0.13802083333331439},{"name":"G4","midi":67,"time":389.3085937499963,"velocity":0.84251968503937,"duration":0.13802083333331439},{"name":"F4","midi":65,"time":389.44791666666293,"velocity":0.84251968503937,"duration":0.13802083333331439},{"name":"E4","midi":64,"time":389.58723958332956,"velocity":0.84251968503937,"duration":0.13802083333331439},{"name":"D4","midi":62,"time":389.7265624999962,"velocity":0.84251968503937,"duration":0.13802083333331439},{"name":"C4","midi":60,"time":389.8658854166628,"velocity":0.84251968503937,"duration":0.27734375},{"name":"G3","midi":55,"time":390.0052083333295,"velocity":0.84251968503937,"duration":0.20312499999994316},{"name":"D4","midi":62,"time":390.14453124999613,"velocity":0.84251968503937,"duration":0.27734374999994316},{"name":"F3","midi":53,"time":390.14453124999613,"velocity":0.84251968503937,"duration":0.27604166666662877},{"name":"A3","midi":57,"time":390.28385416666276,"velocity":0.84251968503937,"duration":0.20312499999994316},{"name":"E4","midi":64,"time":390.4231770833294,"velocity":0.84251968503937,"duration":0.27734374999994316},{"name":"G3","midi":55,"time":390.4231770833294,"velocity":0.84251968503937,"duration":0.27604166666662877},{"name":"A#3","midi":58,"time":390.562499999996,"velocity":0.84251968503937,"duration":0.13802083333331439},{"name":"D4","midi":62,"time":390.70182291666265,"velocity":0.84251968503937,"duration":0.27734375},{"name":"F3","midi":53,"time":390.70182291666265,"velocity":0.84251968503937,"duration":0.2760416666666856},{"name":"A3","midi":57,"time":390.84114583332934,"velocity":0.84251968503937,"duration":0.20312499999994316},{"name":"E4","midi":64,"time":390.98046874999596,"velocity":0.84251968503937,"duration":0.27734374999994316},{"name":"G3","midi":55,"time":390.98046874999596,"velocity":0.84251968503937,"duration":0.27604166666662877},{"name":"A#3","midi":58,"time":391.1197916666626,"velocity":0.84251968503937,"duration":0.20312499999994316},{"name":"F4","midi":65,"time":391.2591145833292,"velocity":0.84251968503937,"duration":0.27734374999994316},{"name":"A3","midi":57,"time":391.2591145833292,"velocity":0.84251968503937,"duration":0.27604166666662877},{"name":"C4","midi":60,"time":391.39843749999585,"velocity":0.84251968503937,"duration":0.13802083333331439},{"name":"E4","midi":64,"time":391.5377604166625,"velocity":0.84251968503937,"duration":0.27734375},{"name":"G3","midi":55,"time":391.5377604166625,"velocity":0.84251968503937,"duration":0.2760416666666856},{"name":"A#3","midi":58,"time":391.67708333332916,"velocity":0.84251968503937,"duration":0.20312499999994316},{"name":"F4","midi":65,"time":391.8164062499958,"velocity":0.84251968503937,"duration":0.27734374999994316},{"name":"A3","midi":57,"time":391.8164062499958,"velocity":0.84251968503937,"duration":0.27604166666662877},{"name":"C4","midi":60,"time":391.9557291666624,"velocity":0.84251968503937,"duration":0.20312499999994316},{"name":"G4","midi":67,"time":392.09505208332905,"velocity":0.84251968503937,"duration":0.27734374999994316},{"name":"A#3","midi":58,"time":392.09505208332905,"velocity":0.84251968503937,"duration":0.27604166666662877},{"name":"D4","midi":62,"time":392.2343749999957,"velocity":0.84251968503937,"duration":0.13802083333331439},{"name":"G4","midi":67,"time":392.3736979166623,"velocity":0.84251968503937,"duration":0.27734375},{"name":"A3","midi":57,"time":392.3736979166623,"velocity":0.84251968503937,"duration":0.5559895833333144},{"name":"C4","midi":60,"time":392.3736979166623,"velocity":0.84251968503937,"duration":0.5559895833333144},{"name":"F4","midi":65,"time":392.6523437499956,"velocity":0.84251968503937,"duration":0.27734375},{"name":"D#4","midi":63,"time":392.93098958332894,"velocity":0.84251968503937,"duration":0.27734375},{"name":"A#3","midi":58,"time":392.93098958332894,"velocity":0.84251968503937,"duration":0.27734375},{"name":"G3","midi":55,"time":392.93098958332894,"velocity":0.84251968503937,"duration":0.27734375},{"name":"D#4","midi":63,"time":393.20963541666225,"velocity":0.84251968503937,"duration":0.27734375},{"name":"F#3","midi":54,"time":393.20963541666225,"velocity":0.84251968503937,"duration":0.8346354166666288},{"name":"A3","midi":57,"time":393.20963541666225,"velocity":0.84251968503937,"duration":0.8346354166666288},{"name":"D4","midi":62,"time":393.48828124999557,"velocity":0.84251968503937,"duration":1.3932291666664014},{"name":"C5","midi":72,"time":393.7669270833289,"velocity":0.84251968503937,"duration":0.27734375},{"name":"B4","midi":71,"time":394.0455729166622,"velocity":0.84251968503937,"duration":0.13802083333331439},{"name":"G3","midi":55,"time":394.0455729166622,"velocity":0.84251968503937,"duration":0.973958333333087},{"name":"A4","midi":69,"time":394.1848958333288,"velocity":0.84251968503937,"duration":0.13802083333331439},{"name":"B4","midi":71,"time":394.32421874999545,"velocity":0.84251968503937,"duration":0.13802083333331439},{"name":"C5","midi":72,"time":394.4635416666621,"velocity":0.84251968503937,"duration":0.13802083333331439},{"name":"D5","midi":74,"time":394.6028645833287,"velocity":0.84251968503937,"duration":0.13802083333331439},{"name":"E5","midi":76,"time":394.74218749999534,"velocity":0.84251968503937,"duration":0.13802083333331439},{"name":"F5","midi":77,"time":394.88151041666197,"velocity":0.84251968503937,"duration":0.27734374999994316},{"name":"B3","midi":59,"time":395.0208333333286,"velocity":0.84251968503937,"duration":0.13802083333331439},{"name":"E5","midi":76,"time":395.1601562499952,"velocity":0.84251968503937,"duration":0.27734374999994316},{"name":"C4","midi":60,"time":395.1601562499952,"velocity":0.84251968503937,"duration":0.13802083333331439},{"name":"D4","midi":62,"time":395.29947916666185,"velocity":0.84251968503937,"duration":0.13802083333331439},{"name":"D5","midi":74,"time":395.4388020833285,"velocity":0.84251968503937,"duration":0.27734374999994316},{"name":"E4","midi":64,"time":395.4388020833285,"velocity":0.84251968503937,"duration":0.13802083333331439},{"name":"F4","midi":65,"time":395.5781249999951,"velocity":0.84251968503937,"duration":0.13802083333331439},{"name":"E5","midi":76,"time":395.71744791666174,"velocity":0.84251968503937,"duration":0.13802083333331439},{"name":"G4","midi":67,"time":395.71744791666174,"velocity":0.84251968503937,"duration":0.27734374999994316},{"name":"C5","midi":72,"time":395.85677083332837,"velocity":0.84251968503937,"duration":0.13802083333331439},{"name":"D5","midi":74,"time":395.996093749995,"velocity":0.84251968503937,"duration":0.13802083333331439},{"name":"F4","midi":65,"time":395.996093749995,"velocity":0.84251968503937,"duration":0.27734374999994316},{"name":"E5","midi":76,"time":396.1354166666616,"velocity":0.84251968503937,"duration":0.13802083333331439},{"name":"F5","midi":77,"time":396.27473958332826,"velocity":0.84251968503937,"duration":0.13802083333331439},{"name":"E4","midi":64,"time":396.27473958332826,"velocity":0.84251968503937,"duration":0.27734374999994316},{"name":"G5","midi":79,"time":396.4140624999949,"velocity":0.84251968503937,"duration":0.13802083333331439},{"name":"A5","midi":81,"time":396.5533854166615,"velocity":0.84251968503937,"duration":0.13802083333331439},{"name":"F4","midi":65,"time":396.5533854166615,"velocity":0.84251968503937,"duration":0.5507812499998863},{"name":"F5","midi":77,"time":396.69270833332814,"velocity":0.84251968503937,"duration":0.13802083333331439},{"name":"E5","midi":76,"time":396.83203124999477,"velocity":0.84251968503937,"duration":0.13802083333331439},{"name":"G3","midi":55,"time":396.83203124999477,"velocity":0.84251968503937,"duration":0.5494791666665719},{"name":"D5","midi":74,"time":396.9713541666614,"velocity":0.84251968503937,"duration":0.13671875},{"name":"E5","midi":76,"time":397.1093749999947,"velocity":0.84251968503937,"duration":0.13802083333331439},{"name":"F4","midi":65,"time":397.1093749999947,"velocity":0.84251968503937,"duration":0.27604166666662877},{"name":"F5","midi":77,"time":397.24869791666134,"velocity":0.84251968503937,"duration":0.13671875},{"name":"G5","midi":79,"time":397.38671874999466,"velocity":0.84251968503937,"duration":0.13802083333331439},{"name":"E4","midi":64,"time":397.38671874999466,"velocity":0.84251968503937,"duration":0.5507812499998863},{"name":"E5","midi":76,"time":397.5260416666613,"velocity":0.84251968503937,"duration":0.13802083333331439},{"name":"D5","midi":74,"time":397.6653645833279,"velocity":0.84251968503937,"duration":0.13802083333331439},{"name":"G3","midi":55,"time":397.6653645833279,"velocity":0.84251968503937,"duration":0.5494791666665719},{"name":"C5","midi":72,"time":397.80468749999454,"velocity":0.84251968503937,"duration":0.13671875},{"name":"D5","midi":74,"time":397.94270833332786,"velocity":0.84251968503937,"duration":0.13802083333331439},{"name":"E4","midi":64,"time":397.94270833332786,"velocity":0.84251968503937,"duration":0.27604166666662877},{"name":"E5","midi":76,"time":398.0820312499945,"velocity":0.84251968503937,"duration":0.13671875},{"name":"F5","midi":77,"time":398.2200520833278,"velocity":0.84251968503937,"duration":0.13802083333331439},{"name":"D4","midi":62,"time":398.2200520833278,"velocity":0.84251968503937,"duration":0.5507812499998863},{"name":"D5","midi":74,"time":398.35937499999443,"velocity":0.84251968503937,"duration":0.13802083333331439},{"name":"C5","midi":72,"time":398.49869791666106,"velocity":0.84251968503937,"duration":0.13802083333331439},{"name":"G3","midi":55,"time":398.49869791666106,"velocity":0.84251968503937,"duration":0.5494791666665719},{"name":"B4","midi":71,"time":398.6380208333277,"velocity":0.84251968503937,"duration":0.13671875},{"name":"C5","midi":72,"time":398.776041666661,"velocity":0.84251968503937,"duration":0.13802083333331439},{"name":"D4","midi":62,"time":398.776041666661,"velocity":0.84251968503937,"duration":0.27604166666662877},{"name":"D5","midi":74,"time":398.91536458332763,"velocity":0.84251968503937,"duration":0.13671875},{"name":"E5","midi":76,"time":399.05338541666094,"velocity":0.84251968503937,"duration":0.13802083333331439},{"name":"C4","midi":60,"time":399.05338541666094,"velocity":0.84251968503937,"duration":0.5507812499998863},{"name":"B4","midi":71,"time":399.1927083333276,"velocity":0.84251968503937,"duration":0.13802083333331439},{"name":"C5","midi":72,"time":399.3320312499942,"velocity":0.84251968503937,"duration":0.13802083333331439},{"name":"C3","midi":48,"time":399.3320312499942,"velocity":0.84251968503937,"duration":0.5494791666665719},{"name":"E5","midi":76,"time":399.47135416666083,"velocity":0.84251968503937,"duration":0.13671875},{"name":"B4","midi":71,"time":399.60937499999415,"velocity":0.84251968503937,"duration":0.13802083333331439},{"name":"C4","midi":60,"time":399.60937499999415,"velocity":0.84251968503937,"duration":0.27604166666662877},{"name":"C5","midi":72,"time":399.7486979166608,"velocity":0.84251968503937,"duration":0.13671875},{"name":"F4","midi":65,"time":399.8867187499941,"velocity":0.84251968503937,"duration":0.13802083333331439},{"name":"C4","midi":60,"time":399.8867187499941,"velocity":0.84251968503937,"duration":0.5507812499998863},{"name":"B4","midi":71,"time":400.0260416666607,"velocity":0.84251968503937,"duration":0.13802083333331439},{"name":"C5","midi":72,"time":400.16536458332735,"velocity":0.84251968503937,"duration":0.13802083333331439},{"name":"D3","midi":50,"time":400.16536458332735,"velocity":0.84251968503937,"duration":0.5494791666665719},{"name":"E5","midi":76,"time":400.304687499994,"velocity":0.84251968503937,"duration":0.13671875},{"name":"B4","midi":71,"time":400.4427083333273,"velocity":0.84251968503937,"duration":0.13802083333331439},{"name":"C4","midi":60,"time":400.4427083333273,"velocity":0.84251968503937,"duration":0.27604166666662877},{"name":"C5","midi":72,"time":400.5820312499939,"velocity":0.84251968503937,"duration":0.13671875},{"name":"G4","midi":67,"time":400.72005208332723,"velocity":0.84251968503937,"duration":0.13802083333331439},{"name":"C4","midi":60,"time":400.72005208332723,"velocity":0.84251968503937,"duration":0.5507812499998863},{"name":"B4","midi":71,"time":400.85937499999386,"velocity":0.84251968503937,"duration":0.13802083333331439},{"name":"C5","midi":72,"time":400.9986979166605,"velocity":0.84251968503937,"duration":0.13802083333331439},{"name":"E3","midi":52,"time":400.9986979166605,"velocity":0.84251968503937,"duration":0.5494791666665719},{"name":"E5","midi":76,"time":401.1380208333271,"velocity":0.84251968503937,"duration":0.13671875},{"name":"B4","midi":71,"time":401.27604166666043,"velocity":0.84251968503937,"duration":0.13802083333331439},{"name":"C4","midi":60,"time":401.27604166666043,"velocity":0.84251968503937,"duration":0.27604166666662877},{"name":"C5","midi":72,"time":401.41536458332706,"velocity":0.84251968503937,"duration":0.13671875},{"name":"A4","midi":69,"time":401.5533854166604,"velocity":0.84251968503937,"duration":0.13802083333331439},{"name":"C4","midi":60,"time":401.5533854166604,"velocity":0.84251968503937,"duration":0.5507812499998863},{"name":"B4","midi":71,"time":401.692708333327,"velocity":0.84251968503937,"duration":0.13802083333331439},{"name":"C5","midi":72,"time":401.83203124999363,"velocity":0.84251968503937,"duration":0.13802083333331439},{"name":"F3","midi":53,"time":401.83203124999363,"velocity":0.84251968503937,"duration":0.5494791666665719},{"name":"E5","midi":76,"time":401.97135416666026,"velocity":0.84251968503937,"duration":0.13671875},{"name":"B4","midi":71,"time":402.1093749999936,"velocity":0.84251968503937,"duration":0.13802083333331439},{"name":"C4","midi":60,"time":402.1093749999936,"velocity":0.84251968503937,"duration":0.27604166666662877},{"name":"C5","midi":72,"time":402.2486979166602,"velocity":0.84251968503937,"duration":0.13671875},{"name":"G4","midi":67,"time":402.3867187499935,"velocity":0.84251968503937,"duration":0.13802083333331439},{"name":"C4","midi":60,"time":402.3867187499935,"velocity":0.84251968503937,"duration":0.5507812499998863},{"name":"B4","midi":71,"time":402.52604166666015,"velocity":0.84251968503937,"duration":0.13802083333331439},{"name":"C5","midi":72,"time":402.6653645833268,"velocity":0.84251968503937,"duration":0.13802083333331439},{"name":"G3","midi":55,"time":402.6653645833268,"velocity":0.84251968503937,"duration":0.5494791666665719},{"name":"E5","midi":76,"time":402.8046874999934,"velocity":0.84251968503937,"duration":0.13671875},{"name":"B4","midi":71,"time":402.9427083333267,"velocity":0.84251968503937,"duration":0.13802083333331439},{"name":"C4","midi":60,"time":402.9427083333267,"velocity":0.84251968503937,"duration":0.27604166666662877},{"name":"C5","midi":72,"time":403.08203124999335,"velocity":0.84251968503937,"duration":0.13671875},{"name":"F#4","midi":66,"time":403.22005208332666,"velocity":0.84251968503937,"duration":0.13802083333331439},{"name":"C4","midi":60,"time":403.22005208332666,"velocity":0.84251968503937,"duration":0.5507812499998863},{"name":"B4","midi":71,"time":403.3593749999933,"velocity":0.84251968503937,"duration":0.13802083333331439},{"name":"C5","midi":72,"time":403.4986979166599,"velocity":0.84251968503937,"duration":0.13802083333331439},{"name":"A3","midi":57,"time":403.4986979166599,"velocity":0.84251968503937,"duration":0.5494791666665719},{"name":"E5","midi":76,"time":403.63802083332655,"velocity":0.84251968503937,"duration":0.13671875},{"name":"B4","midi":71,"time":403.77604166665986,"velocity":0.84251968503937,"duration":0.13802083333331439},{"name":"C4","midi":60,"time":403.77604166665986,"velocity":0.84251968503937,"duration":0.27604166666662877},{"name":"C5","midi":72,"time":403.9153645833265,"velocity":0.84251968503937,"duration":0.13671875},{"name":"F4","midi":65,"time":404.0533854166598,"velocity":0.84251968503937,"duration":0.13802083333331439},{"name":"B3","midi":59,"time":404.0533854166598,"velocity":0.84251968503937,"duration":0.27734374999994316},{"name":"D4","midi":62,"time":404.0533854166598,"velocity":0.84251968503937,"duration":0.8346354166664582},{"name":"A4","midi":69,"time":404.19270833332644,"velocity":0.84251968503937,"duration":0.13802083333331439},{"name":"B4","midi":71,"time":404.33203124999307,"velocity":0.84251968503937,"duration":0.13802083333331439},{"name":"A3","midi":57,"time":404.33203124999307,"velocity":0.84251968503937,"duration":0.27734374999994316},{"name":"D5","midi":74,"time":404.4713541666597,"velocity":0.84251968503937,"duration":0.13802083333331439},{"name":"A4","midi":69,"time":404.6106770833263,"velocity":0.84251968503937,"duration":0.13802083333331439},{"name":"G3","midi":55,"time":404.6106770833263,"velocity":0.84251968503937,"duration":0.27734374999994316},{"name":"B4","midi":71,"time":404.74999999999295,"velocity":0.84251968503937,"duration":0.13802083333331439},{"name":"D#4","midi":63,"time":404.8893229166596,"velocity":0.84251968503937,"duration":0.13802083333331439},{"name":"C4","midi":60,"time":404.8893229166596,"velocity":0.84251968503937,"duration":0.8346354166664582},{"name":"G4","midi":67,"time":405.0286458333262,"velocity":0.84251968503937,"duration":0.13802083333331439},{"name":"A4","midi":69,"time":405.16796874999284,"velocity":0.84251968503937,"duration":0.13802083333331439},{"name":"F#3","midi":54,"time":405.16796874999284,"velocity":0.84251968503937,"duration":0.27734374999994316},{"name":"C5","midi":72,"time":405.30729166665947,"velocity":0.84251968503937,"duration":0.13802083333331439},{"name":"F#4","midi":66,"time":405.4466145833261,"velocity":0.84251968503937,"duration":0.13802083333331439},{"name":"A3","midi":57,"time":405.4466145833261,"velocity":0.84251968503937,"duration":0.27734374999994316},{"name":"G4","midi":67,"time":405.5859374999927,"velocity":0.84251968503937,"duration":0.13802083333331439},{"name":"D4","midi":62,"time":405.72526041665935,"velocity":0.84251968503937,"duration":0.13802083333331439},{"name":"G3","midi":55,"time":405.72526041665935,"velocity":0.84251968503937,"duration":0.8346354166664582},{"name":"F4","midi":65,"time":405.864583333326,"velocity":0.84251968503937,"duration":0.13802083333331439},{"name":"G4","midi":67,"time":406.0039062499926,"velocity":0.84251968503937,"duration":0.13802083333331439},{"name":"B4","midi":71,"time":406.14322916665924,"velocity":0.84251968503937,"duration":0.13802083333331439},{"name":"F4","midi":65,"time":406.28255208332587,"velocity":0.84251968503937,"duration":0.13802083333331439},{"name":"G2","midi":43,"time":406.28255208332587,"velocity":0.84251968503937,"duration":0.27734374999994316},{"name":"G4","midi":67,"time":406.4218749999925,"velocity":0.84251968503937,"duration":0.13802083333331439},{"name":"C5","midi":72,"time":406.5690104166591,"velocity":0.84251968503937,"duration":0.9830729166665151},{"name":"C3","midi":48,"time":406.5690104166591,"velocity":0.84251968503937,"duration":0.26041666666662877},{"name":"E4","midi":64,"time":406.5690104166591,"velocity":0.84251968503937,"duration":0.8424479166665719},{"name":"C4","midi":60,"time":406.72265624999244,"velocity":0.84251968503937,"duration":0.13932291666662877},{"name":"A#3","midi":58,"time":406.8632812499924,"velocity":0.84251968503937,"duration":0.13932291666668561},{"name":"A3","midi":57,"time":407.0039062499924,"velocity":0.84251968503937,"duration":0.13932291666668561},{"name":"G3","midi":55,"time":407.1445312499924,"velocity":0.84251968503937,"duration":0.13932291666668561},{"name":"F3","midi":53,"time":407.2851562499924,"velocity":0.84251968503937,"duration":0.13932291666662877},{"name":"E3","midi":52,"time":407.4257812499923,"velocity":0.84251968503937,"duration":0.2799479166666856},{"name":"G4","midi":67,"time":407.5664062499923,"velocity":0.84251968503937,"duration":0.13932291666668561},{"name":"F#3","midi":54,"time":407.7070312499923,"velocity":0.84251968503937,"duration":0.2799479166666856},{"name":"A4","midi":69,"time":407.7070312499923,"velocity":0.84251968503937,"duration":0.13932291666668561},{"name":"B4","midi":71,"time":407.8476562499923,"velocity":0.84251968503937,"duration":0.13932291666668561},{"name":"G3","midi":55,"time":407.9882812499923,"velocity":0.84251968503937,"duration":0.2799479166666856},{"name":"C5","midi":72,"time":407.9882812499923,"velocity":0.84251968503937,"duration":0.13932291666668561},{"name":"D5","midi":74,"time":408.1289062499923,"velocity":0.84251968503937,"duration":0.13932291666668561},{"name":"F#3","midi":54,"time":408.2695312499923,"velocity":0.84251968503937,"duration":0.2799479166666856},{"name":"D#5","midi":75,"time":408.2695312499923,"velocity":0.84251968503937,"duration":0.2799479166666856},{"name":"G3","midi":55,"time":408.5507812499923,"velocity":0.84251968503937,"duration":0.2799479166666856},{"name":"D5","midi":74,"time":408.5507812499923,"velocity":0.84251968503937,"duration":0.2799479166666856},{"name":"A3","midi":57,"time":408.8320312499923,"velocity":0.84251968503937,"duration":0.2799479166666856},{"name":"C5","midi":72,"time":408.8320312499923,"velocity":0.84251968503937,"duration":0.2799479166666856},{"name":"G3","midi":55,"time":409.1132812499923,"velocity":0.84251968503937,"duration":0.7018229166666856},{"name":"A#4","midi":70,"time":409.1132812499923,"velocity":0.84251968503937,"duration":1.40625},{"name":"G4","midi":67,"time":409.2539062499923,"velocity":0.84251968503937,"duration":0.13932291666668561},{"name":"F#4","midi":66,"time":409.3945312499923,"velocity":0.84251968503937,"duration":0.13932291666668561},{"name":"E4","midi":64,"time":409.5351562499923,"velocity":0.84251968503937,"duration":0.13932291666668561},{"name":"D4","midi":62,"time":409.6757812499923,"velocity":0.84251968503937,"duration":0.13932291666668561},{"name":"C4","midi":60,"time":409.8164062499923,"velocity":0.84251968503937,"duration":0.13932291666668561},{"name":"A#3","midi":58,"time":409.9570312499923,"velocity":0.84251968503937,"duration":0.13932291666668561},{"name":"A3","midi":57,"time":410.0976562499923,"velocity":0.84251968503937,"duration":0.13932291666668561},{"name":"G3","midi":55,"time":410.2382812499923,"velocity":0.84251968503937,"duration":0.13932291666668561},{"name":"F3","midi":53,"time":410.3789062499923,"velocity":0.84251968503937,"duration":0.13932291666668561},{"name":"E3","midi":52,"time":410.5195312499923,"velocity":0.84251968503937,"duration":0.13932291666668561},{"name":"A#4","midi":70,"time":410.5195312499923,"velocity":0.84251968503937,"duration":0.2799479166666856},{"name":"G4","midi":67,"time":410.5195312499923,"velocity":0.84251968503937,"duration":0.2799479166666856},{"name":"F4","midi":65,"time":410.5195312499923,"velocity":0.84251968503937,"duration":0.2799479166666856},{"name":"D3","midi":50,"time":410.6601562499923,"velocity":0.84251968503937,"duration":0.13932291666668561},{"name":"C3","midi":48,"time":410.8007812499923,"velocity":0.84251968503937,"duration":0.8424479166666856},{"name":"D5","midi":74,"time":410.8007812499923,"velocity":0.84251968503937,"duration":0.2799479166666856},{"name":"A#4","midi":70,"time":410.8007812499923,"velocity":0.84251968503937,"duration":0.2799479166666856},{"name":"E4","midi":64,"time":410.8007812499923,"velocity":0.84251968503937,"duration":0.8424479166666856},{"name":"C5","midi":72,"time":411.0820312499923,"velocity":0.84251968503937,"duration":0.2799479166666856},{"name":"A4","midi":69,"time":411.0820312499923,"velocity":0.84251968503937,"duration":0.2799479166666856},{"name":"A#4","midi":70,"time":411.3632812499923,"velocity":0.84251968503937,"duration":0.2799479166666856},{"name":"G4","midi":67,"time":411.3632812499923,"velocity":0.84251968503937,"duration":0.2799479166666856},{"name":"F3","midi":53,"time":411.6445312499923,"velocity":0.84251968503937,"duration":0.7018229166666856},{"name":"A4","midi":69,"time":411.6445312499923,"velocity":0.84251968503937,"duration":1.40625},{"name":"F4","midi":65,"time":411.7851562499923,"velocity":0.84251968503937,"duration":0.13932291666668561},{"name":"E4","midi":64,"time":411.9257812499923,"velocity":0.84251968503937,"duration":0.13932291666668561},{"name":"D4","midi":62,"time":412.0664062499923,"velocity":0.84251968503937,"duration":0.13932291666668561},{"name":"C4","midi":60,"time":412.2070312499923,"velocity":0.84251968503937,"duration":0.13932291666668561},{"name":"A#3","midi":58,"time":412.3476562499923,"velocity":0.84251968503937,"duration":0.13932291666668561},{"name":"A3","midi":57,"time":412.4882812499923,"velocity":0.84251968503937,"duration":0.13932291666668561},{"name":"G3","midi":55,"time":412.6289062499923,"velocity":0.84251968503937,"duration":0.13932291666668561},{"name":"F3","midi":53,"time":412.7695312499923,"velocity":0.84251968503937,"duration":0.13932291666668561},{"name":"E3","midi":52,"time":412.9101562499923,"velocity":0.84251968503937,"duration":0.13932291666668561},{"name":"D3","midi":50,"time":413.0507812499923,"velocity":0.84251968503937,"duration":0.13932291666668561},{"name":"A4","midi":69,"time":413.0507812499923,"velocity":0.84251968503937,"duration":1.1236979166666856},{"name":"C3","midi":48,"time":413.1914062499923,"velocity":0.84251968503937,"duration":0.13932291666668561},{"name":"B2","midi":47,"time":413.3320312499923,"velocity":0.84251968503937,"duration":0.8424479166666856},{"name":"D5","midi":74,"time":413.3320312499923,"velocity":0.84251968503937,"duration":0.13932291666668561},{"name":"E5","midi":76,"time":413.4726562499923,"velocity":0.84251968503937,"duration":0.13932291666668561},{"name":"D5","midi":74,"time":413.6132812499923,"velocity":0.84251968503937,"duration":0.13932291666668561},{"name":"E5","midi":76,"time":413.7539062499923,"velocity":0.84251968503937,"duration":0.13932291666668561},{"name":"F5","midi":77,"time":413.8945312499923,"velocity":0.84251968503937,"duration":0.2799479166666856},{"name":"G4","midi":67,"time":414.1757812499923,"velocity":0.84251968503937,"duration":0.8424479166666856},{"name":"E3","midi":52,"time":414.3164062499923,"velocity":0.84251968503937,"duration":0.13932291666668561},{"name":"F3","midi":53,"time":414.4570312499923,"velocity":0.84251968503937,"duration":0.13932291666668561},{"name":"G3","midi":55,"time":414.5976562499923,"velocity":0.84251968503937,"duration":0.13932291666668561},{"name":"A3","midi":57,"time":414.7382812499923,"velocity":0.84251968503937,"duration":0.13932291666668561},{"name":"B3","midi":59,"time":414.8789062499923,"velocity":0.84251968503937,"duration":0.13932291666668561},{"name":"C#4","midi":61,"time":415.0195312499923,"velocity":0.84251968503937,"duration":0.13932291666668561},{"name":"D4","midi":62,"time":415.1601562499923,"velocity":0.84251968503937,"duration":0.13932291666668561},{"name":"E4","midi":64,"time":415.3007812499923,"velocity":0.84251968503937,"duration":0.13932291666668561},{"name":"F4","midi":65,"time":415.4414062499923,"velocity":0.84251968503937,"duration":0.13932291666668561},{"name":"E3","midi":52,"time":415.5820312499923,"velocity":0.84251968503937,"duration":0.2799479166666856},{"name":"G4","midi":67,"time":415.5820312499923,"velocity":0.84251968503937,"duration":0.5559895833333144},{"name":"A4","midi":69,"time":415.7226562499923,"velocity":0.84251968503937,"duration":0.13932291666668561},{"name":"A3","midi":57,"time":415.8632812499923,"velocity":0.84251968503937,"duration":0.5598958333333144},{"name":"A#4","midi":70,"time":415.8632812499923,"velocity":0.84251968503937,"duration":0.2786458333333144},{"name":"C#4","midi":61,"time":415.8632812499923,"velocity":0.84251968503937,"duration":0.8411458333333144},{"name":"A4","midi":69,"time":416.14322916665895,"velocity":0.84251968503937,"duration":0.2799479166666856},{"name":"F4","midi":65,"time":416.14322916665895,"velocity":0.84251968503937,"duration":0.2799479166666856},{"name":"A2","midi":45,"time":416.42447916665895,"velocity":0.84251968503937,"duration":0.2799479166666856},{"name":"G4","midi":67,"time":416.42447916665895,"velocity":0.84251968503937,"duration":0.2799479166666856},{"name":"E4","midi":64,"time":416.42447916665895,"velocity":0.84251968503937,"duration":0.2799479166666856},{"name":"D3","midi":50,"time":416.70572916665895,"velocity":0.84251968503937,"duration":0.27734375},{"name":"F4","midi":65,"time":416.70572916665895,"velocity":0.84251968503937,"duration":0.5507812499999432},{"name":"D4","midi":62,"time":416.84505208332564,"velocity":0.84251968503937,"duration":0.13802083333331439},{"name":"F3","midi":53,"time":416.98437499999227,"velocity":0.84251968503937,"duration":0.27604166666662877},{"name":"C#4","midi":61,"time":416.98437499999227,"velocity":0.84251968503937,"duration":0.13802083333331439},{"name":"B3","midi":59,"time":417.1236979166589,"velocity":0.84251968503937,"duration":0.13671875},{"name":"A2","midi":45,"time":417.2617187499922,"velocity":0.84251968503937,"duration":0.27734374999994316},{"name":"C#4","midi":61,"time":417.2617187499922,"velocity":0.84251968503937,"duration":0.13802083333331439},{"name":"D4","midi":62,"time":417.40104166665884,"velocity":0.84251968503937,"duration":0.13802083333331439},{"name":"E3","midi":52,"time":417.54036458332547,"velocity":0.84251968503937,"duration":0.27734375},{"name":"G4","midi":67,"time":417.54036458332547,"velocity":0.84251968503937,"duration":0.5507812499999432},{"name":"E4","midi":64,"time":417.67968749999216,"velocity":0.84251968503937,"duration":0.13802083333331439},{"name":"G3","midi":55,"time":417.8190104166588,"velocity":0.84251968503937,"duration":0.27604166666662877},{"name":"D4","midi":62,"time":417.8190104166588,"velocity":0.84251968503937,"duration":0.13802083333331439},{"name":"C#4","midi":61,"time":417.9583333333254,"velocity":0.84251968503937,"duration":0.13671875},{"name":"A2","midi":45,"time":418.0963541666587,"velocity":0.84251968503937,"duration":0.27734374999994316},{"name":"D4","midi":62,"time":418.0963541666587,"velocity":0.84251968503937,"duration":0.13802083333331439},{"name":"E4","midi":64,"time":418.23567708332536,"velocity":0.84251968503937,"duration":0.13802083333331439},{"name":"F3","midi":53,"time":418.374999999992,"velocity":0.84251968503937,"duration":0.27734375},{"name":"A4","midi":69,"time":418.374999999992,"velocity":0.84251968503937,"duration":0.5507812499999432},{"name":"F4","midi":65,"time":418.51432291665867,"velocity":0.84251968503937,"duration":0.13802083333331439},{"name":"A3","midi":57,"time":418.6536458333253,"velocity":0.84251968503937,"duration":0.27604166666662877},{"name":"E4","midi":64,"time":418.6536458333253,"velocity":0.84251968503937,"duration":0.13802083333331439},{"name":"D4","midi":62,"time":418.7929687499919,"velocity":0.84251968503937,"duration":0.13671875},{"name":"D3","midi":50,"time":418.93098958332524,"velocity":0.84251968503937,"duration":0.27734374999994316},{"name":"E4","midi":64,"time":418.93098958332524,"velocity":0.84251968503937,"duration":0.13802083333331439},{"name":"F4","midi":65,"time":419.07031249999187,"velocity":0.84251968503937,"duration":0.13802083333331439},{"name":"G3","midi":55,"time":419.2096354166585,"velocity":0.84251968503937,"duration":0.27734375},{"name":"B4","midi":71,"time":419.2096354166585,"velocity":0.84251968503937,"duration":0.5507812499999432},{"name":"G4","midi":67,"time":419.3489583333252,"velocity":0.84251968503937,"duration":0.13802083333331439},{"name":"G2","midi":43,"time":419.4882812499918,"velocity":0.84251968503937,"duration":0.27604166666662877},{"name":"F4","midi":65,"time":419.4882812499918,"velocity":0.84251968503937,"duration":0.13802083333331439},{"name":"E4","midi":64,"time":419.62760416665844,"velocity":0.84251968503937,"duration":0.13671875},{"name":"G3","midi":55,"time":419.76562499999176,"velocity":0.84251968503937,"duration":0.27734374999994316},{"name":"F4","midi":65,"time":419.76562499999176,"velocity":0.84251968503937,"duration":0.13802083333331439},{"name":"G4","midi":67,"time":419.9049479166584,"velocity":0.84251968503937,"duration":0.13802083333331439},{"name":"G3","midi":55,"time":420.044270833325,"velocity":0.84251968503937,"duration":0.27734375},{"name":"C#5","midi":73,"time":420.044270833325,"velocity":0.84251968503937,"duration":0.5507812499999432},{"name":"A4","midi":69,"time":420.1835937499917,"velocity":0.84251968503937,"duration":0.13802083333331439},{"name":"A2","midi":45,"time":420.32291666665833,"velocity":0.84251968503937,"duration":0.27604166666662877},{"name":"G4","midi":67,"time":420.32291666665833,"velocity":0.84251968503937,"duration":0.13802083333331439},{"name":"F4","midi":65,"time":420.46223958332496,"velocity":0.84251968503937,"duration":0.13671875},{"name":"G3","midi":55,"time":420.6002604166583,"velocity":0.84251968503937,"duration":0.27734374999994316},{"name":"G4","midi":67,"time":420.6002604166583,"velocity":0.84251968503937,"duration":0.13802083333331439},{"name":"A4","midi":69,"time":420.7395833333249,"velocity":0.84251968503937,"duration":0.13802083333331439},{"name":"G3","midi":55,"time":420.87890624999153,"velocity":0.84251968503937,"duration":0.27734375},{"name":"D5","midi":74,"time":420.87890624999153,"velocity":0.84251968503937,"duration":0.5507812499999432},{"name":"A#4","midi":70,"time":421.0182291666582,"velocity":0.84251968503937,"duration":0.13802083333331439},{"name":"A#2","midi":46,"time":421.15755208332484,"velocity":0.84251968503937,"duration":0.27604166666662877},{"name":"A4","midi":69,"time":421.15755208332484,"velocity":0.84251968503937,"duration":0.13802083333331439},{"name":"G4","midi":67,"time":421.2968749999915,"velocity":0.84251968503937,"duration":0.13671875},{"name":"G3","midi":55,"time":421.4348958333248,"velocity":0.84251968503937,"duration":0.27734374999994316},{"name":"A4","midi":69,"time":421.4348958333248,"velocity":0.84251968503937,"duration":0.13802083333331439},{"name":"A#4","midi":70,"time":421.5742187499914,"velocity":0.84251968503937,"duration":0.13802083333331439},{"name":"C#3","midi":49,"time":421.71354166665805,"velocity":0.84251968503937,"duration":0.27734375},{"name":"E5","midi":76,"time":421.71354166665805,"velocity":0.84251968503937,"duration":0.40625},{"name":"A#4","midi":70,"time":421.85286458332473,"velocity":0.84251968503937,"duration":0.13802083333331439},{"name":"E3","midi":52,"time":421.99218749999136,"velocity":0.84251968503937,"duration":0.27734375},{"name":"A4","midi":69,"time":421.99218749999136,"velocity":0.84251968503937,"duration":0.13802083333337123},{"name":"G4","midi":67,"time":422.13151041665805,"velocity":0.84251968503937,"duration":0.13802083333331439},{"name":"A3","midi":57,"time":422.2708333333247,"velocity":0.84251968503937,"duration":0.27734374999994316},{"name":"F4","midi":65,"time":422.2708333333247,"velocity":0.84251968503937,"duration":0.13802083333331439},{"name":"E4","midi":64,"time":422.4101562499913,"velocity":0.84251968503937,"duration":0.13802083333331439},{"name":"D3","midi":50,"time":422.54947916665793,"velocity":0.84251968503937,"duration":0.27734374999994316},{"name":"F4","midi":65,"time":422.54947916665793,"velocity":0.84251968503937,"duration":0.13802083333331439},{"name":"A4","midi":69,"time":422.68880208332456,"velocity":0.84251968503937,"duration":0.13802083333331439},{"name":"F3","midi":53,"time":422.8281249999912,"velocity":0.84251968503937,"duration":0.27734374999994316},{"name":"A#4","midi":70,"time":422.8281249999912,"velocity":0.84251968503937,"duration":0.13802083333331439},{"name":"C5","midi":72,"time":422.9674479166578,"velocity":0.84251968503937,"duration":0.13802083333331439},{"name":"A3","midi":57,"time":423.10677083332445,"velocity":0.84251968503937,"duration":0.27734374999994316},{"name":"A#4","midi":70,"time":423.10677083332445,"velocity":0.84251968503937,"duration":0.13802083333331439},{"name":"A4","midi":69,"time":423.2460937499911,"velocity":0.84251968503937,"duration":0.13802083333331439},{"name":"A#2","midi":46,"time":423.3854166666577,"velocity":0.84251968503937,"duration":0.27734374999994316},{"name":"G4","midi":67,"time":423.3854166666577,"velocity":0.84251968503937,"duration":0.13802083333331439},{"name":"D5","midi":74,"time":423.52473958332433,"velocity":0.84251968503937,"duration":0.13802083333331439},{"name":"D3","midi":50,"time":423.66406249999096,"velocity":0.84251968503937,"duration":0.27734374999994316},{"name":"E5","midi":76,"time":423.66406249999096,"velocity":0.84251968503937,"duration":0.13802083333331439},{"name":"F5","midi":77,"time":423.8033854166576,"velocity":0.84251968503937,"duration":0.13802083333331439},{"name":"G3","midi":55,"time":423.9427083333242,"velocity":0.84251968503937,"duration":0.27734374999994316},{"name":"E5","midi":76,"time":423.9427083333242,"velocity":0.84251968503937,"duration":0.13802083333331439},{"name":"D5","midi":74,"time":424.08203124999085,"velocity":0.84251968503937,"duration":0.13802083333331439},{"name":"A3","midi":57,"time":424.2213541666575,"velocity":0.84251968503937,"duration":0.13802083333331439},{"name":"C#5","midi":73,"time":424.2213541666575,"velocity":0.84251968503937,"duration":0.8346354166664582},{"name":"A2","midi":45,"time":424.3606770833241,"velocity":0.84251968503937,"duration":0.13802083333331439},{"name":"B2","midi":47,"time":424.49999999999073,"velocity":0.84251968503937,"duration":0.13802083333331439},{"name":"C#3","midi":49,"time":424.63932291665736,"velocity":0.84251968503937,"duration":0.13802083333331439},{"name":"D3","midi":50,"time":424.778645833324,"velocity":0.84251968503937,"duration":0.13802083333331439},{"name":"E3","midi":52,"time":424.9179687499906,"velocity":0.84251968503937,"duration":0.13802083333331439},{"name":"F3","midi":53,"time":425.05729166665725,"velocity":0.84251968503937,"duration":0.27734375},{"name":"B4","midi":71,"time":425.19661458332394,"velocity":0.84251968503937,"duration":0.13802083333331439},{"name":"E3","midi":52,"time":425.33593749999056,"velocity":0.84251968503937,"duration":0.27734374999994316},{"name":"C#5","midi":73,"time":425.33593749999056,"velocity":0.84251968503937,"duration":0.13802083333331439},{"name":"D5","midi":74,"time":425.4752604166572,"velocity":0.84251968503937,"duration":0.13802083333331439},{"name":"D3","midi":50,"time":425.6145833333238,"velocity":0.84251968503937,"duration":0.27734374999994316},{"name":"E5","midi":76,"time":425.6145833333238,"velocity":0.84251968503937,"duration":0.13802083333331439},{"name":"F5","midi":77,"time":425.75390624999045,"velocity":0.84251968503937,"duration":0.13802083333331439},{"name":"E3","midi":52,"time":425.8932291666571,"velocity":0.84251968503937,"duration":0.27734374999994316},{"name":"G5","midi":79,"time":425.8932291666571,"velocity":0.84251968503937,"duration":0.13802083333331439},{"name":"F5","midi":77,"time":426.0325520833237,"velocity":0.84251968503937,"duration":0.13802083333331439},{"name":"D3","midi":50,"time":426.17187499999034,"velocity":0.84251968503937,"duration":0.27734374999994316},{"name":"E5","midi":76,"time":426.17187499999034,"velocity":0.84251968503937,"duration":0.13802083333331439},{"name":"F5","midi":77,"time":426.31119791665697,"velocity":0.84251968503937,"duration":0.13802083333331439},{"name":"C#3","midi":49,"time":426.4505208333236,"velocity":0.84251968503937,"duration":0.27734374999994316},{"name":"G5","midi":79,"time":426.4505208333236,"velocity":0.84251968503937,"duration":0.13802083333331439},{"name":"E5","midi":76,"time":426.5898437499902,"velocity":0.84251968503937,"duration":0.13802083333331439},{"name":"D3","midi":50,"time":426.72916666665685,"velocity":0.84251968503937,"duration":0.911458333333087},{"name":"F5","midi":77,"time":426.72916666665685,"velocity":0.84251968503937,"duration":0.13802083333331439},{"name":"D5","midi":74,"time":426.8684895833235,"velocity":0.84251968503937,"duration":0.13802083333331439},{"name":"E5","midi":76,"time":427.0078124999901,"velocity":0.84251968503937,"duration":0.13802083333331439},{"name":"F#5","midi":78,"time":427.14713541665674,"velocity":0.84251968503937,"duration":0.13802083333331439},{"name":"G5","midi":79,"time":427.28645833332337,"velocity":0.84251968503937,"duration":0.13802083333331439},{"name":"A5","midi":81,"time":427.42578124999,"velocity":0.84251968503937,"duration":0.13802083333331439},{"name":"A#5","midi":82,"time":427.5651041666566,"velocity":0.84251968503937,"duration":0.27734374999994316},{"name":"E3","midi":52,"time":427.70442708332325,"velocity":0.84251968503937,"duration":0.13802083333331439},{"name":"F#3","midi":54,"time":427.8437499999899,"velocity":0.84251968503937,"duration":0.13802083333331439},{"name":"A5","midi":81,"time":427.8437499999899,"velocity":0.84251968503937,"duration":0.27734374999994316},{"name":"G3","midi":55,"time":427.9830729166565,"velocity":0.84251968503937,"duration":0.13802083333331439},{"name":"A3","midi":57,"time":428.12239583332314,"velocity":0.84251968503937,"duration":0.13802083333331439},{"name":"G5","midi":79,"time":428.12239583332314,"velocity":0.84251968503937,"duration":0.27734374999994316},{"name":"A#3","midi":58,"time":428.26171874998977,"velocity":0.84251968503937,"duration":0.13802083333331439},{"name":"C4","midi":60,"time":428.4010416666564,"velocity":0.84251968503937,"duration":0.13802083333331439},{"name":"A5","midi":81,"time":428.4010416666564,"velocity":0.84251968503937,"duration":0.27734374999994316},{"name":"A#3","midi":58,"time":428.540364583323,"velocity":0.84251968503937,"duration":0.13802083333331439},{"name":"A3","midi":57,"time":428.67968749998965,"velocity":0.84251968503937,"duration":0.13802083333331439},{"name":"G5","midi":79,"time":428.67968749998965,"velocity":0.84251968503937,"duration":0.27734374999994316},{"name":"A#3","midi":58,"time":428.8190104166563,"velocity":0.84251968503937,"duration":0.13802083333331439},{"name":"C4","midi":60,"time":428.9583333333229,"velocity":0.84251968503937,"duration":0.13802083333331439},{"name":"F#5","midi":78,"time":428.9583333333229,"velocity":0.84251968503937,"duration":0.27734374999994316},{"name":"A3","midi":57,"time":429.09765624998954,"velocity":0.84251968503937,"duration":0.13802083333331439},{"name":"B3","midi":59,"time":429.23697916665617,"velocity":0.84251968503937,"duration":0.13802083333331439},{"name":"G5","midi":79,"time":429.23697916665617,"velocity":0.84251968503937,"duration":0.8346354166664582},{"name":"G3","midi":55,"time":429.3763020833228,"velocity":0.84251968503937,"duration":0.13802083333331439},{"name":"A3","midi":57,"time":429.5156249999894,"velocity":0.84251968503937,"duration":0.13802083333331439},{"name":"B3","midi":59,"time":429.65494791665606,"velocity":0.84251968503937,"duration":0.13802083333331439},{"name":"C4","midi":60,"time":429.7942708333227,"velocity":0.84251968503937,"duration":0.13802083333331439},{"name":"D4","midi":62,"time":429.9335937499893,"velocity":0.84251968503937,"duration":0.13802083333331439},{"name":"E4","midi":64,"time":430.07291666665594,"velocity":0.84251968503937,"duration":0.27734375},{"name":"A4","midi":69,"time":430.2122395833226,"velocity":0.84251968503937,"duration":0.13802083333331439},{"name":"D4","midi":62,"time":430.35156249998926,"velocity":0.84251968503937,"duration":0.27734374999994316},{"name":"B4","midi":71,"time":430.35156249998926,"velocity":0.84251968503937,"duration":0.13802083333331439},{"name":"C5","midi":72,"time":430.4908854166559,"velocity":0.84251968503937,"duration":0.13802083333331439},{"name":"C4","midi":60,"time":430.6302083333225,"velocity":0.84251968503937,"duration":0.27734374999994316},{"name":"D5","midi":74,"time":430.6302083333225,"velocity":0.84251968503937,"duration":0.13802083333331439},{"name":"E5","midi":76,"time":430.76953124998914,"velocity":0.84251968503937,"duration":0.13802083333331439},{"name":"D4","midi":62,"time":430.9088541666558,"velocity":0.84251968503937,"duration":0.27734374999994316},{"name":"F5","midi":77,"time":430.9088541666558,"velocity":0.84251968503937,"duration":0.13802083333331439},{"name":"E5","midi":76,"time":431.0481770833224,"velocity":0.84251968503937,"duration":0.13802083333331439},{"name":"C4","midi":60,"time":431.18749999998903,"velocity":0.84251968503937,"duration":0.27734374999994316},{"name":"D5","midi":74,"time":431.18749999998903,"velocity":0.84251968503937,"duration":0.13802083333331439},{"name":"E5","midi":76,"time":431.32682291665566,"velocity":0.84251968503937,"duration":0.13802083333331439},{"name":"B3","midi":59,"time":431.4661458333223,"velocity":0.84251968503937,"duration":0.27734374999994316},{"name":"F5","midi":77,"time":431.4661458333223,"velocity":0.84251968503937,"duration":0.13802083333331439},{"name":"D5","midi":74,"time":431.6054687499889,"velocity":0.84251968503937,"duration":0.13802083333331439},{"name":"C4","midi":60,"time":431.74479166665554,"velocity":0.84251968503937,"duration":0.958333333333087},{"name":"E5","midi":76,"time":431.74479166665554,"velocity":0.84251968503937,"duration":0.13802083333331439},{"name":"C5","midi":72,"time":431.8841145833222,"velocity":0.84251968503937,"duration":0.13802083333331439},{"name":"D5","midi":74,"time":432.0234374999888,"velocity":0.84251968503937,"duration":0.13802083333331439},{"name":"E5","midi":76,"time":432.16276041665543,"velocity":0.84251968503937,"duration":0.13802083333331439},{"name":"F5","midi":77,"time":432.30208333332206,"velocity":0.84251968503937,"duration":0.13802083333331439},{"name":"G5","midi":79,"time":432.4414062499887,"velocity":0.84251968503937,"duration":0.13802083333331439},{"name":"A5","midi":81,"time":432.5807291666553,"velocity":0.84251968503937,"duration":0.27734374999994316},{"name":"D4","midi":62,"time":432.72005208332195,"velocity":0.84251968503937,"duration":0.13802083333331439},{"name":"E4","midi":64,"time":432.8593749999886,"velocity":0.84251968503937,"duration":0.13802083333331439},{"name":"G5","midi":79,"time":432.8593749999886,"velocity":0.84251968503937,"duration":0.27734374999994316},{"name":"F4","midi":65,"time":432.9986979166552,"velocity":0.84251968503937,"duration":0.13802083333331439},{"name":"G4","midi":67,"time":433.13802083332183,"velocity":0.84251968503937,"duration":0.13802083333331439},{"name":"F5","midi":77,"time":433.13802083332183,"velocity":0.84251968503937,"duration":0.27734374999994316},{"name":"A4","midi":69,"time":433.27734374998846,"velocity":0.84251968503937,"duration":0.13802083333331439},{"name":"A#4","midi":70,"time":433.4166666666551,"velocity":0.84251968503937,"duration":0.13802083333331439},{"name":"G5","midi":79,"time":433.4166666666551,"velocity":0.84251968503937,"duration":0.27734374999994316},{"name":"A4","midi":69,"time":433.5559895833217,"velocity":0.84251968503937,"duration":0.13802083333331439},{"name":"G4","midi":67,"time":433.69531249998835,"velocity":0.84251968503937,"duration":0.13802083333331439},{"name":"F5","midi":77,"time":433.69531249998835,"velocity":0.84251968503937,"duration":0.27734374999994316},{"name":"A4","midi":69,"time":433.834635416655,"velocity":0.84251968503937,"duration":0.13802083333331439},{"name":"A#4","midi":70,"time":433.9739583333216,"velocity":0.84251968503937,"duration":0.13802083333331439},{"name":"E5","midi":76,"time":433.9739583333216,"velocity":0.84251968503937,"duration":0.27734374999994316},{"name":"G4","midi":67,"time":434.11328124998823,"velocity":0.84251968503937,"duration":0.13802083333331439},{"name":"A4","midi":69,"time":434.25260416665486,"velocity":0.84251968503937,"duration":0.13802083333331439},{"name":"F5","midi":77,"time":434.25260416665486,"velocity":0.84251968503937,"duration":0.5208333333332007},{"name":"F4","midi":65,"time":434.3919270833215,"velocity":0.84251968503937,"duration":0.13802083333331439},{"name":"E4","midi":64,"time":434.5312499999881,"velocity":0.84251968503937,"duration":0.13802083333331439},{"name":"A#5","midi":82,"time":434.5312499999881,"velocity":0.84251968503937,"duration":0.27734374999994316},{"name":"D4","midi":62,"time":434.67057291665475,"velocity":0.84251968503937,"duration":0.13802083333331439},{"name":"E4","midi":64,"time":434.8098958333214,"velocity":0.84251968503937,"duration":0.13802083333331439},{"name":"D5","midi":74,"time":434.8098958333214,"velocity":0.84251968503937,"duration":0.27734374999994316},{"name":"F4","midi":65,"time":434.949218749988,"velocity":0.84251968503937,"duration":0.13802083333331439},{"name":"G4","midi":67,"time":435.08854166665463,"velocity":0.84251968503937,"duration":0.13802083333331439},{"name":"E5","midi":76,"time":435.08854166665463,"velocity":0.84251968503937,"duration":0.5208333333332007},{"name":"E4","midi":64,"time":435.22786458332126,"velocity":0.84251968503937,"duration":0.13802083333331439},{"name":"D4","midi":62,"time":435.3671874999879,"velocity":0.84251968503937,"duration":0.13802083333331439},{"name":"A5","midi":81,"time":435.3671874999879,"velocity":0.84251968503937,"duration":0.27734374999994316},{"name":"C4","midi":60,"time":435.5065104166545,"velocity":0.84251968503937,"duration":0.13802083333331439},{"name":"D4","midi":62,"time":435.64583333332115,"velocity":0.84251968503937,"duration":0.13802083333331439},{"name":"C5","midi":72,"time":435.64583333332115,"velocity":0.84251968503937,"duration":0.27734374999994316},{"name":"E4","midi":64,"time":435.7851562499878,"velocity":0.84251968503937,"duration":0.13802083333331439},{"name":"F4","midi":65,"time":435.9244791666544,"velocity":0.84251968503937,"duration":0.13802083333331439},{"name":"D5","midi":74,"time":435.9244791666544,"velocity":0.84251968503937,"duration":0.5208333333332007},{"name":"D4","midi":62,"time":436.06380208332104,"velocity":0.84251968503937,"duration":0.13802083333331439},{"name":"C4","midi":60,"time":436.20312499998766,"velocity":0.84251968503937,"duration":0.13802083333331439},{"name":"G5","midi":79,"time":436.20312499998766,"velocity":0.84251968503937,"duration":0.27734374999994316},{"name":"A#3","midi":58,"time":436.3424479166543,"velocity":0.84251968503937,"duration":0.13802083333331439},{"name":"C4","midi":60,"time":436.4817708333209,"velocity":0.84251968503937,"duration":0.13802083333331439},{"name":"A#4","midi":70,"time":436.4817708333209,"velocity":0.84251968503937,"duration":0.27734374999994316},{"name":"D4","midi":62,"time":436.62109374998755,"velocity":0.84251968503937,"duration":0.13802083333331439},{"name":"E4","midi":64,"time":436.7604166666542,"velocity":0.84251968503937,"duration":0.13802083333331439},{"name":"C5","midi":72,"time":436.7604166666542,"velocity":0.84251968503937,"duration":0.5208333333332007},{"name":"C4","midi":60,"time":436.8997395833208,"velocity":0.84251968503937,"duration":0.13802083333331439},{"name":"A#3","midi":58,"time":437.03906249998744,"velocity":0.84251968503937,"duration":0.13802083333331439},{"name":"F5","midi":77,"time":437.03906249998744,"velocity":0.84251968503937,"duration":0.27734374999994316},{"name":"A3","midi":57,"time":437.17838541665407,"velocity":0.84251968503937,"duration":0.13802083333331439},{"name":"A#3","midi":58,"time":437.3177083333207,"velocity":0.84251968503937,"duration":0.13802083333331439},{"name":"A4","midi":69,"time":437.3177083333207,"velocity":0.84251968503937,"duration":0.27734374999994316},{"name":"C4","midi":60,"time":437.4570312499873,"velocity":0.84251968503937,"duration":0.13802083333331439},{"name":"D4","midi":62,"time":437.59635416665395,"velocity":0.84251968503937,"duration":0.13802083333331439},{"name":"A#4","midi":70,"time":437.59635416665395,"velocity":0.84251968503937,"duration":0.5208333333332007},{"name":"A#3","midi":58,"time":437.7356770833206,"velocity":0.84251968503937,"duration":0.13802083333331439},{"name":"A3","midi":57,"time":437.8749999999872,"velocity":0.84251968503937,"duration":0.13802083333331439},{"name":"E5","midi":76,"time":437.8749999999872,"velocity":0.84251968503937,"duration":0.27734374999994316},{"name":"G3","midi":55,"time":438.01432291665384,"velocity":0.84251968503937,"duration":0.13802083333331439},{"name":"A3","midi":57,"time":438.15364583332047,"velocity":0.84251968503937,"duration":0.13802083333331439},{"name":"G4","midi":67,"time":438.15364583332047,"velocity":0.84251968503937,"duration":0.27734374999994316},{"name":"A#3","midi":58,"time":438.2929687499871,"velocity":0.84251968503937,"duration":0.13802083333331439},{"name":"C4","midi":60,"time":438.4322916666537,"velocity":0.84251968503937,"duration":0.13802083333331439},{"name":"A4","midi":69,"time":438.4322916666537,"velocity":0.84251968503937,"duration":0.27734374999994316},{"name":"A3","midi":57,"time":438.57161458332035,"velocity":0.84251968503937,"duration":0.13802083333331439},{"name":"G3","midi":55,"time":438.710937499987,"velocity":0.84251968503937,"duration":0.13802083333331439},{"name":"D5","midi":74,"time":438.710937499987,"velocity":0.84251968503937,"duration":0.27734374999994316},{"name":"F3","midi":53,"time":438.8502604166536,"velocity":0.84251968503937,"duration":0.13802083333331439},{"name":"G3","midi":55,"time":438.98958333332024,"velocity":0.84251968503937,"duration":0.13802083333331439},{"name":"F4","midi":65,"time":438.98958333332024,"velocity":0.84251968503937,"duration":0.27734374999994316},{"name":"A3","midi":57,"time":439.12890624998687,"velocity":0.84251968503937,"duration":0.13802083333331439},{"name":"A#3","midi":58,"time":439.2682291666535,"velocity":0.84251968503937,"duration":0.8346354166665151},{"name":"G4","midi":67,"time":439.2682291666535,"velocity":0.84251968503937,"duration":0.2604166666666856},{"name":"A4","midi":69,"time":439.4075520833202,"velocity":0.84251968503937,"duration":0.13802083333331439},{"name":"A#4","midi":70,"time":439.5468749999868,"velocity":0.84251968503937,"duration":0.13802083333331439},{"name":"D5","midi":74,"time":439.68619791665344,"velocity":0.84251968503937,"duration":0.13802083333331439},{"name":"A#4","midi":70,"time":439.82552083332007,"velocity":0.84251968503937,"duration":0.13802083333331439},{"name":"A4","midi":69,"time":439.9648437499867,"velocity":0.84251968503937,"duration":0.13802083333331439},{"name":"G4","midi":67,"time":440.1041666666533,"velocity":0.84251968503937,"duration":0.13802083333331439},{"name":"A4","midi":69,"time":440.24348958331996,"velocity":0.84251968503937,"duration":0.13802083333331439},{"name":"A#4","midi":70,"time":440.3828124999866,"velocity":0.84251968503937,"duration":0.13802083333331439},{"name":"D5","midi":74,"time":440.5221354166532,"velocity":0.84251968503937,"duration":0.13802083333331439},{"name":"A4","midi":69,"time":440.66145833331984,"velocity":0.84251968503937,"duration":0.13802083333331439},{"name":"G4","midi":67,"time":440.80078124998647,"velocity":0.84251968503937,"duration":0.13802083333331439},{"name":"A3","midi":57,"time":440.9401041666531,"velocity":0.84251968503937,"duration":0.8346354166665151},{"name":"F4","midi":65,"time":440.9401041666531,"velocity":0.84251968503937,"duration":0.1953125},{"name":"G4","midi":67,"time":441.0794270833198,"velocity":0.84251968503937,"duration":0.13802083333331439},{"name":"A4","midi":69,"time":441.2187499999864,"velocity":0.84251968503937,"duration":0.13802083333331439},{"name":"D5","midi":74,"time":441.35807291665304,"velocity":0.84251968503937,"duration":0.13802083333331439},{"name":"G4","midi":67,"time":441.4973958333197,"velocity":0.84251968503937,"duration":0.13802083333331439},{"name":"F4","midi":65,"time":441.6367187499863,"velocity":0.84251968503937,"duration":0.13802083333331439},{"name":"G3","midi":55,"time":441.77604166665293,"velocity":0.84251968503937,"duration":0.8346354166665151},{"name":"E4","midi":64,"time":441.77604166665293,"velocity":0.84251968503937,"duration":0.2604166666666856},{"name":"F4","midi":65,"time":441.9153645833196,"velocity":0.84251968503937,"duration":0.13802083333331439},{"name":"G4","midi":67,"time":442.05468749998624,"velocity":0.84251968503937,"duration":0.13802083333331439},{"name":"A#4","midi":70,"time":442.1940104166529,"velocity":0.84251968503937,"duration":0.13802083333331439},{"name":"G4","midi":67,"time":442.3333333333195,"velocity":0.84251968503937,"duration":0.13802083333331439},{"name":"F4","midi":65,"time":442.47265624998613,"velocity":0.84251968503937,"duration":0.13802083333331439},{"name":"E4","midi":64,"time":442.61197916665276,"velocity":0.84251968503937,"duration":0.13802083333331439},{"name":"F4","midi":65,"time":442.7513020833194,"velocity":0.84251968503937,"duration":0.13802083333331439},{"name":"G4","midi":67,"time":442.890624999986,"velocity":0.84251968503937,"duration":0.13802083333331439},{"name":"A#4","midi":70,"time":443.02994791665265,"velocity":0.84251968503937,"duration":0.13802083333331439},{"name":"F4","midi":65,"time":443.1692708333193,"velocity":0.84251968503937,"duration":0.13802083333331439},{"name":"E4","midi":64,"time":443.3085937499859,"velocity":0.84251968503937,"duration":0.13802083333331439},{"name":"G#3","midi":56,"time":443.44791666665253,"velocity":0.84251968503937,"duration":0.8346354166665151},{"name":"D4","midi":62,"time":443.44791666665253,"velocity":0.84251968503937,"duration":0.1953125},{"name":"E4","midi":64,"time":443.5872395833192,"velocity":0.84251968503937,"duration":0.13802083333331439},{"name":"F4","midi":65,"time":443.72656249998585,"velocity":0.84251968503937,"duration":0.13802083333331439},{"name":"B4","midi":71,"time":443.8658854166525,"velocity":0.84251968503937,"duration":0.13802083333331439},{"name":"E4","midi":64,"time":444.0052083333191,"velocity":0.84251968503937,"duration":0.13802083333331439},{"name":"D4","midi":62,"time":444.14453124998573,"velocity":0.84251968503937,"duration":0.13802083333331439},{"name":"A3","midi":57,"time":444.28385416665236,"velocity":0.84251968503937,"duration":0.13802083333331439},{"name":"C#4","midi":61,"time":444.28385416665236,"velocity":0.84251968503937,"duration":0.27734374999994316},{"name":"A2","midi":45,"time":444.423177083319,"velocity":0.84251968503937,"duration":0.13802083333331439},{"name":"B2","midi":47,"time":444.5624999999856,"velocity":0.84251968503937,"duration":0.13802083333331439},{"name":"D4","midi":62,"time":444.5624999999856,"velocity":0.84251968503937,"duration":0.13802083333331439},{"name":"C#3","midi":49,"time":444.70182291665225,"velocity":0.84251968503937,"duration":0.13802083333331439},{"name":"E4","midi":64,"time":444.70182291665225,"velocity":0.84251968503937,"duration":0.13802083333331439},{"name":"D3","midi":50,"time":444.8411458333189,"velocity":0.84251968503937,"duration":0.13802083333331439},{"name":"F4","midi":65,"time":444.8411458333189,"velocity":0.84251968503937,"duration":0.13802083333331439},{"name":"E3","midi":52,"time":444.9804687499855,"velocity":0.84251968503937,"duration":0.13802083333331439},{"name":"G4","midi":67,"time":444.9804687499855,"velocity":0.84251968503937,"duration":0.13802083333331439},{"name":"F3","midi":53,"time":445.11979166665213,"velocity":0.84251968503937,"duration":0.27734374999994316},{"name":"A4","midi":69,"time":445.11979166665213,"velocity":0.84251968503937,"duration":0.13802083333331439},{"name":"B4","midi":71,"time":445.25911458331876,"velocity":0.84251968503937,"duration":0.13802083333331439},{"name":"E3","midi":52,"time":445.3984374999854,"velocity":0.84251968503937,"duration":0.27734374999994316},{"name":"C#5","midi":73,"time":445.3984374999854,"velocity":0.84251968503937,"duration":0.13802083333331439},{"name":"D5","midi":74,"time":445.537760416652,"velocity":0.84251968503937,"duration":0.13802083333331439},{"name":"D3","midi":50,"time":445.67708333331865,"velocity":0.84251968503937,"duration":0.27734374999994316},{"name":"E5","midi":76,"time":445.67708333331865,"velocity":0.84251968503937,"duration":0.13802083333331439},{"name":"F5","midi":77,"time":445.8164062499853,"velocity":0.84251968503937,"duration":0.13802083333331439},{"name":"E3","midi":52,"time":445.9557291666519,"velocity":0.84251968503937,"duration":0.27734374999994316},{"name":"G5","midi":79,"time":445.9557291666519,"velocity":0.84251968503937,"duration":0.13802083333331439},{"name":"F5","midi":77,"time":446.09505208331854,"velocity":0.84251968503937,"duration":0.13802083333331439},{"name":"D3","midi":50,"time":446.23437499998516,"velocity":0.84251968503937,"duration":0.27734374999994316},{"name":"E5","midi":76,"time":446.23437499998516,"velocity":0.84251968503937,"duration":0.13802083333331439},{"name":"F5","midi":77,"time":446.3736979166518,"velocity":0.84251968503937,"duration":0.13802083333331439},{"name":"C#3","midi":49,"time":446.5130208333184,"velocity":0.84251968503937,"duration":0.27734374999994316},{"name":"G5","midi":79,"time":446.5130208333184,"velocity":0.84251968503937,"duration":0.13802083333331439},{"name":"E5","midi":76,"time":446.65234374998505,"velocity":0.84251968503937,"duration":0.13802083333331439},{"name":"D3","midi":50,"time":446.7916666666517,"velocity":0.84251968503937,"duration":0.27734374999994316},{"name":"F5","midi":77,"time":446.7916666666517,"velocity":0.84251968503937,"duration":0.13802083333331439},{"name":"D5","midi":74,"time":446.9309895833183,"velocity":0.84251968503937,"duration":0.13802083333331439},{"name":"G3","midi":55,"time":447.07031249998494,"velocity":0.84251968503937,"duration":0.27734374999994316},{"name":"C5","midi":72,"time":447.07031249998494,"velocity":0.84251968503937,"duration":0.13802083333331439},{"name":"A#4","midi":70,"time":447.20963541665157,"velocity":0.84251968503937,"duration":0.13802083333331439},{"name":"A#2","midi":46,"time":447.3489583333182,"velocity":0.84251968503937,"duration":0.27734374999994316},{"name":"C5","midi":72,"time":447.3489583333182,"velocity":0.84251968503937,"duration":0.13802083333331439},{"name":"D5","midi":74,"time":447.4882812499848,"velocity":0.84251968503937,"duration":0.13802083333331439},{"name":"C3","midi":48,"time":447.62760416665145,"velocity":0.84251968503937,"duration":0.27734374999994316},{"name":"E5","midi":76,"time":447.62760416665145,"velocity":0.84251968503937,"duration":0.13802083333331439},{"name":"C5","midi":72,"time":447.7669270833181,"velocity":0.84251968503937,"duration":0.13802083333331439},{"name":"F3","midi":53,"time":447.9062499999847,"velocity":0.84251968503937,"duration":0.27734374999994316},{"name":"A#4","midi":70,"time":447.9062499999847,"velocity":0.84251968503937,"duration":0.13802083333331439},{"name":"A4","midi":69,"time":448.04557291665134,"velocity":0.84251968503937,"duration":0.13802083333331439},{"name":"A2","midi":45,"time":448.18489583331797,"velocity":0.84251968503937,"duration":0.27734374999994316},{"name":"A#4","midi":70,"time":448.18489583331797,"velocity":0.84251968503937,"duration":0.13802083333331439},{"name":"C5","midi":72,"time":448.3242187499846,"velocity":0.84251968503937,"duration":0.13802083333331439},{"name":"A#2","midi":46,"time":448.4635416666512,"velocity":0.84251968503937,"duration":0.27734374999994316},{"name":"D5","midi":74,"time":448.4635416666512,"velocity":0.84251968503937,"duration":0.13802083333331439},{"name":"A#4","midi":70,"time":448.60286458331785,"velocity":0.84251968503937,"duration":0.13802083333331439},{"name":"E3","midi":52,"time":448.7421874999845,"velocity":0.84251968503937,"duration":0.27734374999994316},{"name":"A4","midi":69,"time":448.7421874999845,"velocity":0.84251968503937,"duration":0.13802083333331439},{"name":"G4","midi":67,"time":448.8815104166511,"velocity":0.84251968503937,"duration":0.13802083333331439},{"name":"G2","midi":43,"time":449.02083333331774,"velocity":0.84251968503937,"duration":0.27734374999994316},{"name":"A4","midi":69,"time":449.02083333331774,"velocity":0.84251968503937,"duration":0.13802083333331439},{"name":"A#4","midi":70,"time":449.16015624998437,"velocity":0.84251968503937,"duration":0.13802083333331439},{"name":"A2","midi":45,"time":449.299479166651,"velocity":0.84251968503937,"duration":0.27734374999994316},{"name":"C5","midi":72,"time":449.299479166651,"velocity":0.84251968503937,"duration":0.13802083333331439},{"name":"A4","midi":69,"time":449.4388020833176,"velocity":0.84251968503937,"duration":0.13802083333331439},{"name":"D3","midi":50,"time":449.57812499998425,"velocity":0.84251968503937,"duration":0.27734374999994316},{"name":"G4","midi":67,"time":449.57812499998425,"velocity":0.84251968503937,"duration":0.13802083333331439},{"name":"F4","midi":65,"time":449.7174479166509,"velocity":0.84251968503937,"duration":0.13802083333331439},{"name":"F2","midi":41,"time":449.8567708333175,"velocity":0.84251968503937,"duration":0.27734374999994316},{"name":"G4","midi":67,"time":449.8567708333175,"velocity":0.84251968503937,"duration":0.13802083333331439},{"name":"A4","midi":69,"time":449.99609374998414,"velocity":0.84251968503937,"duration":0.13802083333331439},{"name":"G2","midi":43,"time":450.13541666665077,"velocity":0.84251968503937,"duration":0.27734374999994316},{"name":"A#4","midi":70,"time":450.13541666665077,"velocity":0.84251968503937,"duration":0.13802083333331439},{"name":"G4","midi":67,"time":450.2747395833174,"velocity":0.84251968503937,"duration":0.13802083333331439},{"name":"C3","midi":48,"time":450.414062499984,"velocity":0.84251968503937,"duration":0.27734374999994316},{"name":"F4","midi":65,"time":450.414062499984,"velocity":0.84251968503937,"duration":0.13802083333331439},{"name":"E4","midi":64,"time":450.55338541665066,"velocity":0.84251968503937,"duration":0.13802083333331439},{"name":"E2","midi":40,"time":450.6927083333173,"velocity":0.84251968503937,"duration":0.27734374999994316},{"name":"F4","midi":65,"time":450.6927083333173,"velocity":0.84251968503937,"duration":0.13802083333331439},{"name":"G4","midi":67,"time":450.8320312499839,"velocity":0.84251968503937,"duration":0.13802083333331439},{"name":"F2","midi":41,"time":450.97135416665054,"velocity":0.84251968503937,"duration":0.27734374999994316},{"name":"A4","midi":69,"time":450.97135416665054,"velocity":0.84251968503937,"duration":0.13802083333331439},{"name":"F4","midi":65,"time":451.11067708331717,"velocity":0.84251968503937,"duration":0.13802083333331439},{"name":"A#2","midi":46,"time":451.2499999999838,"velocity":0.84251968503937,"duration":0.27734374999994316},{"name":"E4","midi":64,"time":451.2499999999838,"velocity":0.84251968503937,"duration":0.13802083333331439},{"name":"D4","midi":62,"time":451.3893229166504,"velocity":0.84251968503937,"duration":0.13802083333331439},{"name":"D2","midi":38,"time":451.52864583331706,"velocity":0.84251968503937,"duration":0.27734374999994316},{"name":"E4","midi":64,"time":451.52864583331706,"velocity":0.84251968503937,"duration":0.13802083333331439},{"name":"F4","midi":65,"time":451.6679687499837,"velocity":0.84251968503937,"duration":0.13802083333331439},{"name":"E2","midi":40,"time":451.8072916666503,"velocity":0.84251968503937,"duration":0.13802083333331439},{"name":"G4","midi":67,"time":451.8072916666503,"velocity":0.84251968503937,"duration":0.8346354166664582},{"name":"A2","midi":45,"time":451.94661458331694,"velocity":0.84251968503937,"duration":0.13802083333331439},{"name":"G2","midi":43,"time":452.0859374999836,"velocity":0.84251968503937,"duration":0.13802083333331439},{"name":"F2","midi":41,"time":452.2252604166502,"velocity":0.84251968503937,"duration":0.13802083333331439},{"name":"E2","midi":40,"time":452.36458333331683,"velocity":0.84251968503937,"duration":0.13802083333331439},{"name":"D2","midi":38,"time":452.50390624998346,"velocity":0.84251968503937,"duration":0.13802083333331439},{"name":"C#2","midi":37,"time":452.6432291666501,"velocity":0.84251968503937,"duration":0.27734375},{"name":"A#4","midi":70,"time":452.7825520833168,"velocity":0.84251968503937,"duration":0.13802083333331439},{"name":"D2","midi":38,"time":452.9218749999834,"velocity":0.84251968503937,"duration":0.27734374999994316},{"name":"A4","midi":69,"time":452.9218749999834,"velocity":0.84251968503937,"duration":0.13802083333331439},{"name":"G4","midi":67,"time":453.06119791665003,"velocity":0.84251968503937,"duration":0.13802083333331439},{"name":"E2","midi":40,"time":453.20052083331666,"velocity":0.84251968503937,"duration":0.27734374999994316},{"name":"F4","midi":65,"time":453.20052083331666,"velocity":0.84251968503937,"duration":0.13802083333331439},{"name":"E4","midi":64,"time":453.3398437499833,"velocity":0.84251968503937,"duration":0.13802083333331439},{"name":"D2","midi":38,"time":453.4791666666499,"velocity":0.84251968503937,"duration":0.27734374999994316},{"name":"F4","midi":65,"time":453.4791666666499,"velocity":0.84251968503937,"duration":0.13802083333331439},{"name":"A4","midi":69,"time":453.61848958331655,"velocity":0.84251968503937,"duration":0.13802083333331439},{"name":"E2","midi":40,"time":453.7578124999832,"velocity":0.84251968503937,"duration":0.27734374999994316},{"name":"G4","midi":67,"time":453.7578124999832,"velocity":0.84251968503937,"duration":0.13802083333331439},{"name":"F4","midi":65,"time":453.8971354166498,"velocity":0.84251968503937,"duration":0.13802083333331439},{"name":"F2","midi":41,"time":454.03645833331643,"velocity":0.84251968503937,"duration":0.27734374999994316},{"name":"E4","midi":64,"time":454.03645833331643,"velocity":0.84251968503937,"duration":0.13802083333331439},{"name":"D4","midi":62,"time":454.17578124998306,"velocity":0.84251968503937,"duration":0.13802083333331439},{"name":"E2","midi":40,"time":454.3151041666497,"velocity":0.84251968503937,"duration":0.27734374999994316},{"name":"C#4","midi":61,"time":454.3151041666497,"velocity":0.84251968503937,"duration":0.13802083333331439},{"name":"D4","midi":62,"time":454.4544270833163,"velocity":0.84251968503937,"duration":0.13802083333331439},{"name":"F2","midi":41,"time":454.59374999998295,"velocity":0.84251968503937,"duration":0.27734375},{"name":"E4","midi":64,"time":454.59374999998295,"velocity":0.84251968503937,"duration":0.2604166666666856},{"name":"A4","midi":69,"time":454.73307291664963,"velocity":0.84251968503937,"duration":0.13802083333331439},{"name":"G2","midi":43,"time":454.87239583331626,"velocity":0.84251968503937,"duration":0.27734374999994316},{"name":"C#4","midi":61,"time":454.87239583331626,"velocity":0.84251968503937,"duration":0.13802083333331439},{"name":"E4","midi":64,"time":455.0117187499829,"velocity":0.84251968503937,"duration":0.13802083333331439},{"name":"F2","midi":41,"time":455.1510416666495,"velocity":0.84251968503937,"duration":0.27734374999994316},{"name":"D4","midi":62,"time":455.1510416666495,"velocity":0.84251968503937,"duration":0.13802083333331439},{"name":"E4","midi":64,"time":455.29036458331615,"velocity":0.84251968503937,"duration":0.13802083333331439},{"name":"G2","midi":43,"time":455.4296874999828,"velocity":0.84251968503937,"duration":0.27734375},{"name":"F4","midi":65,"time":455.4296874999828,"velocity":0.84251968503937,"duration":0.2604166666666856},{"name":"A#4","midi":70,"time":455.56901041664946,"velocity":0.84251968503937,"duration":0.13802083333331439},{"name":"A2","midi":45,"time":455.7083333333161,"velocity":0.84251968503937,"duration":0.27734374999994316},{"name":"D4","midi":62,"time":455.7083333333161,"velocity":0.84251968503937,"duration":0.13802083333331439},{"name":"F4","midi":65,"time":455.8476562499827,"velocity":0.84251968503937,"duration":0.13802083333331439},{"name":"G2","midi":43,"time":455.98697916664935,"velocity":0.84251968503937,"duration":0.27734374999994316},{"name":"E4","midi":64,"time":455.98697916664935,"velocity":0.84251968503937,"duration":0.13802083333331439},{"name":"F4","midi":65,"time":456.126302083316,"velocity":0.84251968503937,"duration":0.13802083333331439},{"name":"A2","midi":45,"time":456.2656249999826,"velocity":0.84251968503937,"duration":0.27734375},{"name":"G4","midi":67,"time":456.2656249999826,"velocity":0.84251968503937,"duration":0.2604166666666856},{"name":"C5","midi":72,"time":456.4049479166493,"velocity":0.84251968503937,"duration":0.13802083333331439},{"name":"A#2","midi":46,"time":456.5442708333159,"velocity":0.84251968503937,"duration":0.27734374999994316},{"name":"E4","midi":64,"time":456.5442708333159,"velocity":0.84251968503937,"duration":0.13802083333331439},{"name":"G4","midi":67,"time":456.68359374998255,"velocity":0.84251968503937,"duration":0.13802083333331439},{"name":"A2","midi":45,"time":456.8229166666492,"velocity":0.84251968503937,"duration":0.27734374999994316},{"name":"F4","midi":65,"time":456.8229166666492,"velocity":0.84251968503937,"duration":0.13802083333331439},{"name":"G4","midi":67,"time":456.9622395833158,"velocity":0.84251968503937,"duration":0.13802083333331439},{"name":"B2","midi":47,"time":457.10156249998244,"velocity":0.84251968503937,"duration":0.27734375},{"name":"A4","midi":69,"time":457.10156249998244,"velocity":0.84251968503937,"duration":0.2604166666666856},{"name":"D5","midi":74,"time":457.2408854166491,"velocity":0.84251968503937,"duration":0.13802083333331439},{"name":"C3","midi":48,"time":457.38020833331575,"velocity":0.84251968503937,"duration":0.27734374999994316},{"name":"F#4","midi":66,"time":457.38020833331575,"velocity":0.84251968503937,"duration":0.13802083333331439},{"name":"A4","midi":69,"time":457.5195312499824,"velocity":0.84251968503937,"duration":0.13802083333331439},{"name":"B2","midi":47,"time":457.658854166649,"velocity":0.84251968503937,"duration":0.27734374999994316},{"name":"G4","midi":67,"time":457.658854166649,"velocity":0.84251968503937,"duration":0.13802083333331439},{"name":"A4","midi":69,"time":457.79817708331564,"velocity":0.84251968503937,"duration":0.13802083333331439},{"name":"C#3","midi":49,"time":457.93749999998226,"velocity":0.84251968503937,"duration":0.27734375},{"name":"B4","midi":71,"time":457.93749999998226,"velocity":0.84251968503937,"duration":0.2604166666666856},{"name":"E5","midi":76,"time":458.07682291664895,"velocity":0.84251968503937,"duration":0.13802083333331439},{"name":"D3","midi":50,"time":458.2161458333156,"velocity":0.84251968503937,"duration":0.27734374999994316},{"name":"G#4","midi":68,"time":458.2161458333156,"velocity":0.84251968503937,"duration":0.13802083333331439},{"name":"B4","midi":71,"time":458.3554687499822,"velocity":0.84251968503937,"duration":0.13802083333331439},{"name":"C#3","midi":49,"time":458.49479166664884,"velocity":0.84251968503937,"duration":0.13802083333331439},{"name":"A4","midi":69,"time":458.49479166664884,"velocity":0.84251968503937,"duration":0.13802083333331439},{"name":"F3","midi":53,"time":458.63411458331547,"velocity":0.84251968503937,"duration":0.13802083333331439},{"name":"B4","midi":71,"time":458.63411458331547,"velocity":0.84251968503937,"duration":0.13802083333331439},{"name":"E3","midi":52,"time":458.7734374999821,"velocity":0.84251968503937,"duration":0.13802083333331439},{"name":"C#5","midi":73,"time":458.7734374999821,"velocity":0.84251968503937,"duration":0.13802083333331439},{"name":"D3","midi":50,"time":458.9127604166487,"velocity":0.84251968503937,"duration":0.13802083333331439},{"name":"D5","midi":74,"time":458.9127604166487,"velocity":0.84251968503937,"duration":0.13802083333331439},{"name":"C#3","midi":49,"time":459.05208333331535,"velocity":0.84251968503937,"duration":0.13802083333331439},{"name":"E5","midi":76,"time":459.05208333331535,"velocity":0.84251968503937,"duration":0.13802083333331439},{"name":"B2","midi":47,"time":459.191406249982,"velocity":0.84251968503937,"duration":0.13802083333331439},{"name":"F5","midi":77,"time":459.191406249982,"velocity":0.84251968503937,"duration":0.13802083333331439},{"name":"A2","midi":45,"time":459.3307291666486,"velocity":0.84251968503937,"duration":0.27734374999994316},{"name":"G5","midi":79,"time":459.3307291666486,"velocity":0.84251968503937,"duration":0.13802083333331439},{"name":"E5","midi":76,"time":459.47005208331524,"velocity":0.84251968503937,"duration":0.13802083333331439},{"name":"A3","midi":57,"time":459.60937499998187,"velocity":0.84251968503937,"duration":0.5507812499999432},{"name":"C#5","midi":73,"time":459.60937499998187,"velocity":0.84251968503937,"duration":0.2604166666666856},{"name":"A4","midi":69,"time":459.74869791664855,"velocity":0.84251968503937,"duration":0.13802083333331439},{"name":"A2","midi":45,"time":459.8880208333152,"velocity":0.84251968503937,"duration":0.27604166666662877},{"name":"C#5","midi":73,"time":459.8880208333152,"velocity":0.84251968503937,"duration":0.13802083333331439},{"name":"E5","midi":76,"time":460.0273437499818,"velocity":0.84251968503937,"duration":0.13671875},{"name":"A2","midi":45,"time":460.1653645833151,"velocity":0.84251968503937,"duration":0.27734374999994316},{"name":"F5","midi":77,"time":460.1653645833151,"velocity":0.84251968503937,"duration":0.13802083333331439},{"name":"D5","midi":74,"time":460.30468749998175,"velocity":0.84251968503937,"duration":0.13802083333331439},{"name":"A3","midi":57,"time":460.4440104166484,"velocity":0.84251968503937,"duration":0.5507812499999432},{"name":"B4","midi":71,"time":460.4440104166484,"velocity":0.84251968503937,"duration":0.2604166666666856},{"name":"G#4","midi":68,"time":460.58333333331507,"velocity":0.84251968503937,"duration":0.13802083333331439},{"name":"A2","midi":45,"time":460.7226562499817,"velocity":0.84251968503937,"duration":0.27604166666662877},{"name":"B4","midi":71,"time":460.7226562499817,"velocity":0.84251968503937,"duration":0.13802083333331439},{"name":"D5","midi":74,"time":460.8619791666483,"velocity":0.84251968503937,"duration":0.13671875},{"name":"A2","midi":45,"time":460.99999999998164,"velocity":0.84251968503937,"duration":0.27734374999994316},{"name":"E5","midi":76,"time":460.99999999998164,"velocity":0.84251968503937,"duration":0.13802083333331439},{"name":"C#5","midi":73,"time":461.13932291664827,"velocity":0.84251968503937,"duration":0.13802083333331439},{"name":"A3","midi":57,"time":461.2786458333149,"velocity":0.84251968503937,"duration":0.5507812499999432},{"name":"A#4","midi":70,"time":461.2786458333149,"velocity":0.84251968503937,"duration":0.2604166666666856},{"name":"G4","midi":67,"time":461.4179687499816,"velocity":0.84251968503937,"duration":0.13802083333331439},{"name":"A2","midi":45,"time":461.5572916666482,"velocity":0.84251968503937,"duration":0.27604166666662877},{"name":"A#4","midi":70,"time":461.5572916666482,"velocity":0.84251968503937,"duration":0.13802083333331439},{"name":"C#5","midi":73,"time":461.69661458331484,"velocity":0.84251968503937,"duration":0.13671875},{"name":"A2","midi":45,"time":461.83463541664815,"velocity":0.84251968503937,"duration":0.27734374999994316},{"name":"D5","midi":74,"time":461.83463541664815,"velocity":0.84251968503937,"duration":0.13802083333331439},{"name":"B4","midi":71,"time":461.9739583333148,"velocity":0.84251968503937,"duration":0.13802083333331439},{"name":"A3","midi":57,"time":462.1132812499814,"velocity":0.84251968503937,"duration":0.5507812499999432},{"name":"G#4","midi":68,"time":462.1132812499814,"velocity":0.84251968503937,"duration":0.2604166666666856},{"name":"F4","midi":65,"time":462.2526041666481,"velocity":0.84251968503937,"duration":0.13802083333331439},{"name":"A2","midi":45,"time":462.3919270833147,"velocity":0.84251968503937,"duration":0.27604166666662877},{"name":"G#4","midi":68,"time":462.3919270833147,"velocity":0.84251968503937,"duration":0.13802083333331439},{"name":"B4","midi":71,"time":462.53124999998136,"velocity":0.84251968503937,"duration":0.13671875},{"name":"A2","midi":45,"time":462.66927083331467,"velocity":0.84251968503937,"duration":0.27734375},{"name":"C#5","midi":73,"time":462.66927083331467,"velocity":0.84251968503937,"duration":0.8346354166665151},{"name":"A#4","midi":70,"time":462.80859374998136,"velocity":0.84251968503937,"duration":0.13802083333331439},{"name":"A3","midi":57,"time":462.947916666648,"velocity":0.84251968503937,"duration":0.27734374999994316},{"name":"G4","midi":67,"time":462.947916666648,"velocity":0.84251968503937,"duration":0.13802083333331439},{"name":"E4","midi":64,"time":463.0872395833146,"velocity":0.84251968503937,"duration":0.13802083333331439},{"name":"A2","midi":45,"time":463.22656249998124,"velocity":0.84251968503937,"duration":0.27734374999994316},{"name":"G4","midi":67,"time":463.22656249998124,"velocity":0.84251968503937,"duration":0.13802083333331439},{"name":"A#4","midi":70,"time":463.36588541664787,"velocity":0.84251968503937,"duration":0.13802083333331439},{"name":"G2","midi":43,"time":463.5052083333145,"velocity":0.84251968503937,"duration":0.27734374999994316},{"name":"C#5","midi":73,"time":463.5052083333145,"velocity":0.84251968503937,"duration":0.13802083333331439},{"name":"E5","midi":76,"time":463.6445312499811,"velocity":0.84251968503937,"duration":0.13802083333331439},{"name":"G3","midi":55,"time":463.78385416664776,"velocity":0.84251968503937,"duration":0.5507812499998863},{"name":"D5","midi":74,"time":463.78385416664776,"velocity":0.84251968503937,"duration":0.13802083333331439},{"name":"C#5","midi":73,"time":463.9231770833144,"velocity":0.84251968503937,"duration":0.13802083333331439},{"name":"G2","midi":43,"time":464.062499999981,"velocity":0.84251968503937,"duration":0.27604166666662877},{"name":"B4","midi":71,"time":464.062499999981,"velocity":0.84251968503937,"duration":0.13802083333331439},{"name":"A4","midi":69,"time":464.20182291664764,"velocity":0.84251968503937,"duration":0.13671875},{"name":"F2","midi":41,"time":464.33984374998096,"velocity":0.84251968503937,"duration":0.13802083333331439},{"name":"D5","midi":74,"time":464.33984374998096,"velocity":0.84251968503937,"duration":0.27734374999994316},{"name":"C#3","midi":49,"time":464.4791666666476,"velocity":0.84251968503937,"duration":0.13802083333331439},{"name":"D3","midi":50,"time":464.6184895833142,"velocity":0.84251968503937,"duration":0.13802083333331439},{"name":"A4","midi":69,"time":464.6184895833142,"velocity":0.84251968503937,"duration":0.27734374999994316},{"name":"F3","midi":53,"time":464.75781249998084,"velocity":0.84251968503937,"duration":0.13802083333331439},{"name":"C#3","midi":49,"time":464.8971354166475,"velocity":0.84251968503937,"duration":0.13802083333331439},{"name":"F4","midi":65,"time":464.8971354166475,"velocity":0.84251968503937,"duration":0.27734374999994316},{"name":"D3","midi":50,"time":465.0364583333141,"velocity":0.84251968503937,"duration":0.13802083333331439},{"name":"G2","midi":43,"time":465.17578124998073,"velocity":0.84251968503937,"duration":0.13802083333331439},{"name":"D4","midi":62,"time":465.17578124998073,"velocity":0.84251968503937,"duration":0.27734374999994316},{"name":"C#3","midi":49,"time":465.31510416664736,"velocity":0.84251968503937,"duration":0.13802083333331439},{"name":"D3","midi":50,"time":465.454427083314,"velocity":0.84251968503937,"duration":0.13802083333331439},{"name":"A4","midi":69,"time":465.454427083314,"velocity":0.84251968503937,"duration":0.27734374999994316},{"name":"F3","midi":53,"time":465.5937499999806,"velocity":0.84251968503937,"duration":0.13802083333331439},{"name":"C#3","midi":49,"time":465.73307291664725,"velocity":0.84251968503937,"duration":0.13802083333331439},{"name":"F4","midi":65,"time":465.73307291664725,"velocity":0.84251968503937,"duration":0.27734374999994316},{"name":"D3","midi":50,"time":465.8723958333139,"velocity":0.84251968503937,"duration":0.13802083333331439},{"name":"A2","midi":45,"time":466.0117187499805,"velocity":0.84251968503937,"duration":0.13802083333331439},{"name":"D4","midi":62,"time":466.0117187499805,"velocity":0.84251968503937,"duration":0.27734374999994316},{"name":"C#3","midi":49,"time":466.15104166664713,"velocity":0.84251968503937,"duration":0.13802083333331439},{"name":"D3","midi":50,"time":466.29036458331376,"velocity":0.84251968503937,"duration":0.13802083333331439},{"name":"A4","midi":69,"time":466.29036458331376,"velocity":0.84251968503937,"duration":0.27734374999994316},{"name":"F3","midi":53,"time":466.4296874999804,"velocity":0.84251968503937,"duration":0.13802083333331439},{"name":"C#3","midi":49,"time":466.569010416647,"velocity":0.84251968503937,"duration":0.13802083333331439},{"name":"F4","midi":65,"time":466.569010416647,"velocity":0.84251968503937,"duration":0.27734374999994316},{"name":"D3","midi":50,"time":466.70833333331365,"velocity":0.84251968503937,"duration":0.13802083333331439},{"name":"A#2","midi":46,"time":466.8476562499803,"velocity":0.84251968503937,"duration":0.13802083333331439},{"name":"D4","midi":62,"time":466.8476562499803,"velocity":0.84251968503937,"duration":0.27734374999994316},{"name":"C#3","midi":49,"time":466.9869791666469,"velocity":0.84251968503937,"duration":0.13802083333331439},{"name":"D3","midi":50,"time":467.12630208331353,"velocity":0.84251968503937,"duration":0.13802083333331439},{"name":"A4","midi":69,"time":467.12630208331353,"velocity":0.84251968503937,"duration":0.27734374999994316},{"name":"F3","midi":53,"time":467.26562499998016,"velocity":0.84251968503937,"duration":0.13802083333331439},{"name":"C#3","midi":49,"time":467.4049479166468,"velocity":0.84251968503937,"duration":0.13802083333331439},{"name":"F4","midi":65,"time":467.4049479166468,"velocity":0.84251968503937,"duration":0.27734374999994316},{"name":"D3","midi":50,"time":467.5442708333134,"velocity":0.84251968503937,"duration":0.13802083333331439},{"name":"B2","midi":47,"time":467.68359374998005,"velocity":0.84251968503937,"duration":0.13802083333331439},{"name":"D4","midi":62,"time":467.68359374998005,"velocity":0.84251968503937,"duration":0.27734374999994316},{"name":"C#3","midi":49,"time":467.8229166666467,"velocity":0.84251968503937,"duration":0.13802083333331439},{"name":"D3","midi":50,"time":467.9622395833133,"velocity":0.84251968503937,"duration":0.13802083333331439},{"name":"G#4","midi":68,"time":467.9622395833133,"velocity":0.84251968503937,"duration":0.27734374999994316},{"name":"F3","midi":53,"time":468.10156249997993,"velocity":0.84251968503937,"duration":0.13802083333331439},{"name":"C#3","midi":49,"time":468.24088541664656,"velocity":0.84251968503937,"duration":0.13802083333331439},{"name":"F4","midi":65,"time":468.24088541664656,"velocity":0.84251968503937,"duration":0.27734374999994316},{"name":"D3","midi":50,"time":468.3802083333132,"velocity":0.84251968503937,"duration":0.13802083333331439},{"name":"A2","midi":45,"time":468.5195312499798,"velocity":0.84251968503937,"duration":0.13802083333331439},{"name":"D4","midi":62,"time":468.5195312499798,"velocity":0.84251968503937,"duration":0.27734374999994316},{"name":"C#3","midi":49,"time":468.65885416664645,"velocity":0.84251968503937,"duration":0.13802083333331439},{"name":"D3","midi":50,"time":468.7981770833131,"velocity":0.84251968503937,"duration":0.13802083333331439},{"name":"A4","midi":69,"time":468.7981770833131,"velocity":0.84251968503937,"duration":0.25651041666662877},{"name":"F3","midi":53,"time":468.9374999999797,"velocity":0.84251968503937,"duration":0.13802083333331439},{"name":"C#3","midi":49,"time":469.07682291664634,"velocity":0.84251968503937,"duration":0.13802083333331439},{"name":"F4","midi":65,"time":469.07682291664634,"velocity":0.84251968503937,"duration":0.22135416666662877},{"name":"D3","midi":50,"time":469.21614583331296,"velocity":0.84251968503937,"duration":0.13802083333331439},{"name":"G#2","midi":44,"time":469.3554687499796,"velocity":0.84251968503937,"duration":0.8346354166664582},{"name":"D4","midi":62,"time":469.3554687499796,"velocity":0.84251968503937,"duration":0.13802083333331439},{"name":"E4","midi":64,"time":469.4947916666462,"velocity":0.84251968503937,"duration":0.13802083333331439},{"name":"F4","midi":65,"time":469.63411458331285,"velocity":0.84251968503937,"duration":0.13802083333331439},{"name":"B4","midi":71,"time":469.7734374999795,"velocity":0.84251968503937,"duration":0.13802083333331439},{"name":"F4","midi":65,"time":469.9127604166461,"velocity":0.84251968503937,"duration":0.13802083333331439},{"name":"E4","midi":64,"time":470.05208333331274,"velocity":0.84251968503937,"duration":0.13802083333331439},{"name":"D4","midi":62,"time":470.19140624997937,"velocity":0.84251968503937,"duration":0.13802083333331439},{"name":"E4","midi":64,"time":470.330729166646,"velocity":0.84251968503937,"duration":0.13802083333331439},{"name":"F4","midi":65,"time":470.4700520833126,"velocity":0.84251968503937,"duration":0.13802083333331439},{"name":"B4","midi":71,"time":470.60937499997925,"velocity":0.84251968503937,"duration":0.13802083333331439},{"name":"E4","midi":64,"time":470.7486979166459,"velocity":0.84251968503937,"duration":0.13802083333331439},{"name":"D4","midi":62,"time":470.8880208333125,"velocity":0.84251968503937,"duration":0.13802083333331439},{"name":"G2","midi":43,"time":471.02734374997914,"velocity":0.84251968503937,"duration":0.8346354166664582},{"name":"C#4","midi":61,"time":471.02734374997914,"velocity":0.84251968503937,"duration":0.13802083333331439},{"name":"E4","midi":64,"time":471.16666666664577,"velocity":0.84251968503937,"duration":0.13802083333331439},{"name":"G4","midi":67,"time":471.3059895833124,"velocity":0.84251968503937,"duration":0.13802083333331439},{"name":"A#4","midi":70,"time":471.445312499979,"velocity":0.84251968503937,"duration":0.13802083333331439},{"name":"A4","midi":69,"time":471.58463541664565,"velocity":0.84251968503937,"duration":0.13802083333331439},{"name":"G4","midi":67,"time":471.7239583333123,"velocity":0.84251968503937,"duration":0.13802083333331439},{"name":"F2","midi":41,"time":471.8632812499789,"velocity":0.84251968503937,"duration":0.13802083333331439},{"name":"A4","midi":69,"time":471.8632812499789,"velocity":0.84251968503937,"duration":0.13802083333331439},{"name":"A2","midi":45,"time":472.00260416664554,"velocity":0.84251968503937,"duration":0.13802083333331439},{"name":"G4","midi":67,"time":472.00260416664554,"velocity":0.84251968503937,"duration":0.13802083333331439},{"name":"B2","midi":47,"time":472.14192708331217,"velocity":0.84251968503937,"duration":0.13802083333331439},{"name":"F4","midi":65,"time":472.14192708331217,"velocity":0.84251968503937,"duration":0.13802083333331439},{"name":"C#3","midi":49,"time":472.2812499999788,"velocity":0.84251968503937,"duration":0.13802083333331439},{"name":"E4","midi":64,"time":472.2812499999788,"velocity":0.84251968503937,"duration":0.13802083333331439},{"name":"D3","midi":50,"time":472.4205729166454,"velocity":0.84251968503937,"duration":0.13802083333331439},{"name":"D4","midi":62,"time":472.4205729166454,"velocity":0.84251968503937,"duration":0.13802083333331439},{"name":"E3","midi":52,"time":472.55989583331205,"velocity":0.84251968503937,"duration":0.13802083333331439},{"name":"C4","midi":60,"time":472.55989583331205,"velocity":0.84251968503937,"duration":0.13802083333331439},{"name":"F3","midi":53,"time":472.6992187499787,"velocity":0.84251968503937,"duration":0.27734374999994316},{"name":"B3","midi":59,"time":472.6992187499787,"velocity":0.84251968503937,"duration":0.13802083333331439},{"name":"A3","midi":57,"time":472.8385416666453,"velocity":0.84251968503937,"duration":0.13802083333331439},{"name":"E3","midi":52,"time":472.97786458331194,"velocity":0.84251968503937,"duration":0.27734374999994316},{"name":"B3","midi":59,"time":472.97786458331194,"velocity":0.84251968503937,"duration":0.13802083333331439},{"name":"C#4","midi":61,"time":473.11718749997857,"velocity":0.84251968503937,"duration":0.13802083333331439},{"name":"D3","midi":50,"time":473.2565104166452,"velocity":0.84251968503937,"duration":0.27734374999994316},{"name":"D4","midi":62,"time":473.2565104166452,"velocity":0.84251968503937,"duration":0.13802083333331439},{"name":"E4","midi":64,"time":473.3958333333118,"velocity":0.84251968503937,"duration":0.13802083333331439},{"name":"E3","midi":52,"time":473.53515624997846,"velocity":0.84251968503937,"duration":0.27734374999994316},{"name":"C#4","midi":61,"time":473.53515624997846,"velocity":0.84251968503937,"duration":0.13802083333331439},{"name":"B3","midi":59,"time":473.6744791666451,"velocity":0.84251968503937,"duration":0.13802083333331439},{"name":"D3","midi":50,"time":473.8138020833117,"velocity":0.84251968503937,"duration":0.27734374999994316},{"name":"C#4","midi":61,"time":473.8138020833117,"velocity":0.84251968503937,"duration":0.13802083333331439},{"name":"D4","midi":62,"time":473.95312499997834,"velocity":0.84251968503937,"duration":0.13802083333331439},{"name":"C#3","midi":49,"time":474.09244791664497,"velocity":0.84251968503937,"duration":0.27734374999994316},{"name":"E4","midi":64,"time":474.09244791664497,"velocity":0.84251968503937,"duration":0.13802083333331439},{"name":"G3","midi":55,"time":474.2317708333116,"velocity":0.84251968503937,"duration":0.13802083333331439},{"name":"D3","midi":50,"time":474.37109374997823,"velocity":0.84251968503937,"duration":0.5664062499999432},{"name":"F3","midi":53,"time":474.37109374997823,"velocity":0.84251968503937,"duration":0.5664062499999432},{"name":"A4","midi":69,"time":474.51302083331154,"velocity":0.84251968503937,"duration":0.140625},{"name":"B4","midi":71,"time":474.65494791664486,"velocity":0.84251968503937,"duration":0.140625},{"name":"C#5","midi":73,"time":474.7968749999782,"velocity":0.84251968503937,"duration":0.140625},{"name":"C3","midi":48,"time":474.9388020833115,"velocity":0.84251968503937,"duration":0.2825520833333144},{"name":"E3","midi":52,"time":474.9388020833115,"velocity":0.84251968503937,"duration":0.2825520833333144},{"name":"D5","midi":74,"time":474.9388020833115,"velocity":0.84251968503937,"duration":0.140625},{"name":"E5","midi":76,"time":475.0807291666448,"velocity":0.84251968503937,"duration":0.140625},{"name":"A#2","midi":46,"time":475.2226562499781,"velocity":0.84251968503937,"duration":0.5611979166666288},{"name":"D3","midi":50,"time":475.2226562499781,"velocity":0.84251968503937,"duration":0.2825520833333144},{"name":"F5","midi":77,"time":475.2226562499781,"velocity":0.84251968503937,"duration":0.2825520833333144},{"name":"E3","midi":52,"time":475.50651041664474,"velocity":0.84251968503937,"duration":0.28125},{"name":"E5","midi":76,"time":475.50651041664474,"velocity":0.84251968503937,"duration":0.28125},{"name":"A2","midi":45,"time":475.78906249997806,"velocity":0.84251968503937,"duration":0.2825520833333144},{"name":"F3","midi":53,"time":475.78906249997806,"velocity":0.84251968503937,"duration":0.2825520833333144},{"name":"D5","midi":74,"time":475.78906249997806,"velocity":0.84251968503937,"duration":0.2825520833333144},{"name":"G2","midi":43,"time":476.0729166666447,"velocity":0.84251968503937,"duration":0.5611979166666288},{"name":"G3","midi":55,"time":476.0729166666447,"velocity":0.84251968503937,"duration":0.2825520833333144},{"name":"E5","midi":76,"time":476.0729166666447,"velocity":0.84251968503937,"duration":0.2825520833333144},{"name":"F3","midi":53,"time":476.3567708333113,"velocity":0.84251968503937,"duration":0.28125},{"name":"F5","midi":77,"time":476.3567708333113,"velocity":0.84251968503937,"duration":0.140625},{"name":"E5","midi":76,"time":476.49869791664463,"velocity":0.84251968503937,"duration":0.13932291666668561},{"name":"E3","midi":52,"time":476.63932291664463,"velocity":0.84251968503937,"duration":0.2825520833333144},{"name":"A2","midi":45,"time":476.63932291664463,"velocity":0.84251968503937,"duration":0.2825520833333144},{"name":"D5","midi":74,"time":476.63932291664463,"velocity":0.84251968503937,"duration":0.140625},{"name":"C#5","midi":73,"time":476.78124999997794,"velocity":0.84251968503937,"duration":0.140625},{"name":"D3","midi":50,"time":476.92317708331126,"velocity":0.84251968503937,"duration":0.8658854166666856},{"name":"F2","midi":41,"time":476.92317708331126,"velocity":0.84251968503937,"duration":0.8658854166666856},{"name":"A5","midi":81,"time":476.92317708331126,"velocity":0.84251968503937,"duration":0.14322916666668561},{"name":"G5","midi":79,"time":477.06770833331126,"velocity":0.84251968503937,"duration":0.14322916666668561},{"name":"F5","midi":77,"time":477.21223958331126,"velocity":0.84251968503937,"duration":0.14322916666668561},{"name":"E5","midi":76,"time":477.35677083331126,"velocity":0.84251968503937,"duration":0.14322916666668561},{"name":"D5","midi":74,"time":477.50130208331126,"velocity":0.84251968503937,"duration":0.14322916666668561},{"name":"C#5","midi":73,"time":477.64583333331126,"velocity":0.84251968503937,"duration":0.14322916666668561},{"name":"D5","midi":74,"time":477.79036458331126,"velocity":0.84251968503937,"duration":0.14583333333331439},{"name":"E5","midi":76,"time":477.9374999999779,"velocity":0.84251968503937,"duration":0.14583333333331439},{"name":"D5","midi":74,"time":478.0846354166445,"velocity":0.84251968503937,"duration":0.14583333333331439},{"name":"E5","midi":76,"time":478.23177083331115,"velocity":0.84251968503937,"duration":0.14583333333331439},{"name":"G2","midi":43,"time":478.3789062499778,"velocity":0.84251968503937,"duration":0.29166666666662877},{"name":"D3","midi":50,"time":478.3789062499778,"velocity":0.84251968503937,"duration":0.14583333333331439},{"name":"A#4","midi":70,"time":478.3789062499778,"velocity":0.84251968503937,"duration":0.29296874999994316},{"name":"F5","midi":77,"time":478.3789062499778,"velocity":0.84251968503937,"duration":0.29296874999994316},{"name":"E3","midi":52,"time":478.5260416666444,"velocity":0.84251968503937,"duration":0.14583333333331439},{"name":"A2","midi":45,"time":478.67317708331103,"velocity":0.84251968503937,"duration":0.6536458333333144},{"name":"F3","midi":53,"time":478.67317708331103,"velocity":0.84251968503937,"duration":0.6536458333333144},{"name":"A4","midi":69,"time":478.67317708331103,"velocity":0.84251968503937,"duration":0.6484375},{"name":"D5","midi":74,"time":479.00130208331103,"velocity":0.84251968503937,"duration":0.3255208333333144},{"name":"A2","midi":45,"time":479.32812499997766,"velocity":0.84251968503937,"duration":0.4166666666666856},{"name":"E3","midi":52,"time":479.32812499997766,"velocity":0.84251968503937,"duration":0.4166666666666856},{"name":"C#5","midi":73,"time":479.32812499997766,"velocity":0.84251968503937,"duration":0.4166666666666856},{"name":"G4","midi":67,"time":479.32812499997766,"velocity":0.84251968503937,"duration":0.4166666666666856},{"name":"D5","midi":74,"time":479.76953124997766,"velocity":0.84251968503937,"duration":3.6458333333333144},{"name":"F4","midi":65,"time":479.76953124997766,"velocity":0.84251968503937,"duration":3.6458333333333144},{"name":"D3","midi":50,"time":479.76953124997766,"velocity":0.84251968503937,"duration":3.6458333333333144},{"name":"D2","midi":38,"time":479.76953124997766,"velocity":0.84251968503937,"duration":3.6458333333333144},{"name":"D5","midi":74,"time":485.532552083311,"velocity":0.84251968503937,"duration":0.2604166666666856},{"name":"D4","midi":62,"time":485.79557291664435,"velocity":0.84251968503937,"duration":1.0416666666667425},{"name":"F4","midi":65,"time":485.79557291664435,"velocity":0.84251968503937,"duration":1.0416666666667425},{"name":"A4","midi":69,"time":485.79557291664435,"velocity":0.84251968503937,"duration":1.0416666666667425},{"name":"D5","midi":74,"time":485.79557291664435,"velocity":0.84251968503937,"duration":1.3151041666667425},{"name":"A3","midi":57,"time":486.05859374997766,"velocity":0.84251968503937,"duration":0.12890625},{"name":"G3","midi":55,"time":486.19010416664435,"velocity":0.84251968503937,"duration":0.12890625},{"name":"F3","midi":53,"time":486.32161458331103,"velocity":0.84251968503937,"duration":0.12890625},{"name":"G3","midi":55,"time":486.4531249999777,"velocity":0.84251968503937,"duration":0.12890625},{"name":"A3","midi":57,"time":486.5846354166444,"velocity":0.84251968503937,"duration":0.2604166666666856},{"name":"D3","midi":50,"time":486.8476562499778,"velocity":0.84251968503937,"duration":5.244791666667254},{"name":"F5","midi":77,"time":487.1106770833111,"velocity":0.84251968503937,"duration":0.2604166666666856},{"name":"E5","midi":76,"time":487.37369791664446,"velocity":0.84251968503937,"duration":0.2604166666666856},{"name":"F3","midi":53,"time":487.63671874997783,"velocity":0.84251968503937,"duration":0.2604166666666856},{"name":"D5","midi":74,"time":487.63671874997783,"velocity":0.84251968503937,"duration":0.2604166666666856},{"name":"E3","midi":52,"time":487.8997395833112,"velocity":0.84251968503937,"duration":0.2604166666666856},{"name":"C#5","midi":73,"time":487.8997395833112,"velocity":0.84251968503937,"duration":0.2604166666666856},{"name":"F3","midi":53,"time":488.1627604166446,"velocity":0.84251968503937,"duration":0.2604166666666856},{"name":"D5","midi":74,"time":488.1627604166446,"velocity":0.84251968503937,"duration":0.2604166666666856},{"name":"G3","midi":55,"time":488.42578124997794,"velocity":0.84251968503937,"duration":0.7864583333333712},{"name":"E5","midi":76,"time":488.42578124997794,"velocity":0.84251968503937,"duration":0.2604166666666856},{"name":"A4","midi":69,"time":488.6888020833113,"velocity":0.84251968503937,"duration":1.0416666666667425},{"name":"C5","midi":72,"time":488.95182291664463,"velocity":0.84251968503937,"duration":0.12890625},{"name":"B4","midi":71,"time":489.0833333333113,"velocity":0.84251968503937,"duration":0.12890625},{"name":"A#3","midi":58,"time":489.214843749978,"velocity":0.84251968503937,"duration":0.2604166666666856},{"name":"C5","midi":72,"time":489.214843749978,"velocity":0.84251968503937,"duration":0.5234375000000568},{"name":"A3","midi":57,"time":489.4778645833114,"velocity":0.84251968503937,"duration":0.2604166666666856},{"name":"G3","midi":55,"time":489.74088541664474,"velocity":0.84251968503937,"duration":0.2604166666666856},{"name":"C5","midi":72,"time":489.74088541664474,"velocity":0.84251968503937,"duration":1.3151041666668561},{"name":"F#3","midi":54,"time":490.0039062499781,"velocity":0.84251968503937,"duration":0.2604166666666856},{"name":"A5","midi":81,"time":490.0039062499781,"velocity":0.84251968503937,"duration":0.7864583333334281},{"name":"G3","midi":55,"time":490.2669270833115,"velocity":0.84251968503937,"duration":0.2604166666666856},{"name":"A3","midi":57,"time":490.52994791664486,"velocity":0.84251968503937,"duration":0.7864583333334281},{"name":"D#5","midi":75,"time":490.79296874997823,"velocity":0.84251968503937,"duration":0.2604166666666856},{"name":"D5","midi":74,"time":491.0559895833116,"velocity":0.84251968503937,"duration":0.2604166666666856},{"name":"A3","midi":57,"time":491.31901041664497,"velocity":0.84251968503937,"duration":0.2604166666666856},{"name":"C5","midi":72,"time":491.31901041664497,"velocity":0.84251968503937,"duration":0.2604166666666856},{"name":"G3","midi":55,"time":491.58203124997834,"velocity":0.84251968503937,"duration":0.2604166666666856},{"name":"A#4","midi":70,"time":491.58203124997834,"velocity":0.84251968503937,"duration":0.2604166666666856},{"name":"F#3","midi":54,"time":491.8450520833117,"velocity":0.84251968503937,"duration":0.26171875},{"name":"A4","midi":69,"time":491.8450520833117,"velocity":0.84251968503937,"duration":0.26171875},{"name":"G3","midi":55,"time":492.1093749999784,"velocity":0.84251968503937,"duration":0.2604166666666856},{"name":"C5","midi":72,"time":492.1093749999784,"velocity":0.84251968503937,"duration":0.2604166666666856},{"name":"A3","midi":57,"time":492.37239583331177,"velocity":0.84251968503937,"duration":0.2604166666666856},{"name":"A#4","midi":70,"time":492.37239583331177,"velocity":0.84251968503937,"duration":0.2604166666666856},{"name":"A#3","midi":58,"time":492.63541666664514,"velocity":0.84251968503937,"duration":0.7864583333333712},{"name":"A4","midi":69,"time":492.63541666664514,"velocity":0.84251968503937,"duration":0.2604166666666856},{"name":"G4","midi":67,"time":492.8984374999785,"velocity":0.84251968503937,"duration":2.361979166666913},{"name":"A#4","midi":70,"time":493.1614583333118,"velocity":0.84251968503937,"duration":1.0416666666667993},{"name":"D5","midi":74,"time":493.2929687499785,"velocity":0.84251968503937,"duration":0.7669270833334281},{"name":"A3","midi":57,"time":493.4244791666452,"velocity":0.84251968503937,"duration":0.2604166666666856},{"name":"G5","midi":79,"time":493.4244791666452,"velocity":0.84251968503937,"duration":0.5208333333333712},{"name":"G3","midi":55,"time":493.68749999997857,"velocity":0.84251968503937,"duration":0.2604166666666856},{"name":"F3","midi":53,"time":493.95052083331194,"velocity":0.84251968503937,"duration":0.2604166666666856},{"name":"G5","midi":79,"time":493.95052083331194,"velocity":0.84251968503937,"duration":0.2604166666666856},{"name":"E3","midi":52,"time":494.2135416666453,"velocity":0.84251968503937,"duration":0.2604166666666856},{"name":"D5","midi":74,"time":494.2135416666453,"velocity":0.84251968503937,"duration":0.38411458333337123},{"name":"F3","midi":53,"time":494.4765624999787,"velocity":0.84251968503937,"duration":0.2604166666666856},{"name":"C#5","midi":73,"time":494.60807291664537,"velocity":0.84251968503937,"duration":0.12890625},{"name":"G3","midi":55,"time":494.73958333331205,"velocity":0.84251968503937,"duration":0.2604166666666856},{"name":"D5","midi":74,"time":494.73958333331205,"velocity":0.84251968503937,"duration":0.12890625},{"name":"C#5","midi":73,"time":494.87109374997874,"velocity":0.84251968503937,"duration":0.12890625},{"name":"A#3","midi":58,"time":495.0026041666454,"velocity":0.84251968503937,"duration":0.2604166666666856},{"name":"D5","midi":74,"time":495.0026041666454,"velocity":0.84251968503937,"duration":0.12890625},{"name":"E5","midi":76,"time":495.1341145833121,"velocity":0.84251968503937,"duration":0.12890625},{"name":"C#4","midi":61,"time":495.2656249999788,"velocity":0.84251968503937,"duration":0.7864583333333712},{"name":"G4","midi":67,"time":495.2656249999788,"velocity":0.84251968503937,"duration":0.5208333333333144},{"name":"A#4","midi":70,"time":495.5286458333121,"velocity":0.84251968503937,"duration":0.2604166666666856},{"name":"A4","midi":69,"time":495.7916666666455,"velocity":0.84251968503937,"duration":0.2604166666666856},{"name":"C#4","midi":61,"time":496.05468749997885,"velocity":0.84251968503937,"duration":0.2604166666666856},{"name":"G4","midi":67,"time":496.05468749997885,"velocity":0.84251968503937,"duration":0.2604166666666856},{"name":"D4","midi":62,"time":496.3177083333122,"velocity":0.84251968503937,"duration":0.7864583333334281},{"name":"F4","midi":65,"time":496.3177083333122,"velocity":0.84251968503937,"duration":0.2604166666666856},{"name":"A4","midi":69,"time":496.5807291666456,"velocity":0.84251968503937,"duration":0.12890625},{"name":"G4","midi":67,"time":496.7122395833123,"velocity":0.84251968503937,"duration":0.12890625},{"name":"F4","midi":65,"time":496.84374999997897,"velocity":0.84251968503937,"duration":0.12890625},{"name":"G4","midi":67,"time":496.97526041664565,"velocity":0.84251968503937,"duration":0.12890625},{"name":"C4","midi":60,"time":497.10677083331234,"velocity":0.84251968503937,"duration":0.2604166666666856},{"name":"A4","midi":69,"time":497.10677083331234,"velocity":0.84251968503937,"duration":0.2604166666666856},{"name":"A#3","midi":58,"time":497.3697916666457,"velocity":0.84251968503937,"duration":0.2604166666666856},{"name":"D4","midi":62,"time":497.3697916666457,"velocity":0.84251968503937,"duration":1.0416666666667993},{"name":"A3","midi":57,"time":497.6328124999791,"velocity":0.84251968503937,"duration":0.2604166666666856},{"name":"G3","midi":55,"time":497.89583333331245,"velocity":0.84251968503937,"duration":0.2604166666666856},{"name":"F3","midi":53,"time":498.1588541666458,"velocity":0.84251968503937,"duration":0.2604166666666856},{"name":"A#4","midi":70,"time":498.1588541666458,"velocity":0.84251968503937,"duration":0.2604166666666856},{"name":"E3","midi":52,"time":498.4218749999792,"velocity":0.84251968503937,"duration":0.2604166666666856},{"name":"C4","midi":60,"time":498.4218749999792,"velocity":0.84251968503937,"duration":1.0416666666667993},{"name":"G3","midi":55,"time":498.68489583331257,"velocity":0.84251968503937,"duration":0.12890625},{"name":"E4","midi":64,"time":498.68489583331257,"velocity":0.84251968503937,"duration":0.2604166666666856},{"name":"F3","midi":53,"time":498.81640624997925,"velocity":0.84251968503937,"duration":0.12890625},{"name":"E3","midi":52,"time":498.94791666664594,"velocity":0.84251968503937,"duration":0.12890625},{"name":"G4","midi":67,"time":498.94791666664594,"velocity":0.84251968503937,"duration":0.2604166666666856},{"name":"F3","midi":53,"time":499.0794270833126,"velocity":0.84251968503937,"duration":0.12890625},{"name":"G3","midi":55,"time":499.2109374999793,"velocity":0.84251968503937,"duration":0.2604166666666856},{"name":"A#4","midi":70,"time":499.2109374999793,"velocity":0.84251968503937,"duration":0.2604166666666856},{"name":"C3","midi":48,"time":499.4739583333127,"velocity":0.84251968503937,"duration":0.5234375},{"name":"E4","midi":64,"time":499.4739583333127,"velocity":0.84251968503937,"duration":1.0416666666667425},{"name":"A#4","midi":70,"time":499.736979166646,"velocity":0.84251968503937,"duration":0.2604166666666856},{"name":"C4","midi":60,"time":499.99999999997937,"velocity":0.84251968503937,"duration":0.5208333333333712},{"name":"A4","midi":69,"time":499.99999999997937,"velocity":0.84251968503937,"duration":0.2604166666666856},{"name":"G4","midi":67,"time":500.26302083331274,"velocity":0.84251968503937,"duration":0.2604166666666856},{"name":"F3","midi":53,"time":500.5260416666461,"velocity":0.84251968503937,"duration":0.7864583333334281},{"name":"F4","midi":65,"time":500.5260416666461,"velocity":0.84251968503937,"duration":1.0416666666667993},{"name":"A4","midi":69,"time":500.5260416666461,"velocity":0.84251968503937,"duration":0.2604166666666856},{"name":"C5","midi":72,"time":500.7890624999795,"velocity":0.84251968503937,"duration":0.12890625},{"name":"A#4","midi":70,"time":500.92057291664617,"velocity":0.84251968503937,"duration":0.12890625},{"name":"A4","midi":69,"time":501.05208333331285,"velocity":0.84251968503937,"duration":0.12890625},{"name":"A#4","midi":70,"time":501.18359374997954,"velocity":0.84251968503937,"duration":0.12890625},{"name":"E3","midi":52,"time":501.3151041666462,"velocity":0.84251968503937,"duration":0.2604166666666856},{"name":"C5","midi":72,"time":501.3151041666462,"velocity":0.84251968503937,"duration":0.2604166666666856},{"name":"D3","midi":50,"time":501.5781249999796,"velocity":0.84251968503937,"duration":0.2604166666666856},{"name":"F4","midi":65,"time":501.5781249999796,"velocity":0.84251968503937,"duration":1.0416666666667993},{"name":"C3","midi":48,"time":501.84114583331296,"velocity":0.84251968503937,"duration":0.2604166666666856},{"name":"A#2","midi":46,"time":502.10416666664634,"velocity":0.84251968503937,"duration":0.2604166666666856},{"name":"A2","midi":45,"time":502.3671874999797,"velocity":0.84251968503937,"duration":0.2604166666666856},{"name":"F5","midi":77,"time":502.3671874999797,"velocity":0.84251968503937,"duration":0.2604166666666856},{"name":"A#2","midi":46,"time":502.6302083333131,"velocity":0.84251968503937,"duration":0.2604166666666856},{"name":"G4","midi":67,"time":502.6302083333131,"velocity":0.84251968503937,"duration":1.0416666666667993},{"name":"D3","midi":50,"time":502.89322916664645,"velocity":0.84251968503937,"duration":0.12890625},{"name":"A#4","midi":70,"time":502.89322916664645,"velocity":0.84251968503937,"duration":0.2604166666666856},{"name":"C3","midi":48,"time":503.02473958331313,"velocity":0.84251968503937,"duration":0.12890625},{"name":"A#2","midi":46,"time":503.1562499999798,"velocity":0.84251968503937,"duration":0.12890625},{"name":"D5","midi":74,"time":503.1562499999798,"velocity":0.84251968503937,"duration":0.2604166666666856},{"name":"C3","midi":48,"time":503.2877604166465,"velocity":0.84251968503937,"duration":0.12890625},{"name":"D3","midi":50,"time":503.4192708333132,"velocity":0.84251968503937,"duration":0.2604166666666856},{"name":"F5","midi":77,"time":503.4192708333132,"velocity":0.84251968503937,"duration":0.2604166666666856},{"name":"G2","midi":43,"time":503.68229166664656,"velocity":0.84251968503937,"duration":0.5234375},{"name":"A#4","midi":70,"time":503.68229166664656,"velocity":0.84251968503937,"duration":1.0416666666667425},{"name":"F5","midi":77,"time":503.9453124999799,"velocity":0.84251968503937,"duration":0.2604166666666856},{"name":"G3","midi":55,"time":504.20833333331325,"velocity":0.84251968503937,"duration":0.5234375000000568},{"name":"E5","midi":76,"time":504.20833333331325,"velocity":0.84251968503937,"duration":0.2604166666666856},{"name":"D5","midi":74,"time":504.4713541666466,"velocity":0.84251968503937,"duration":0.2604166666666856},{"name":"A3","midi":57,"time":504.73437499998,"velocity":0.84251968503937,"duration":1.3125000000001705},{"name":"C#5","midi":73,"time":504.73437499998,"velocity":0.84251968503937,"duration":0.2604166666666856},{"name":"B4","midi":71,"time":504.99739583331336,"velocity":0.84251968503937,"duration":0.2604166666666856},{"name":"C#4","midi":61,"time":505.26041666664673,"velocity":0.84251968503937,"duration":0.5208333333333712},{"name":"A4","midi":69,"time":505.26041666664673,"velocity":0.84251968503937,"duration":0.2604166666666856},{"name":"B4","midi":71,"time":505.5234374999801,"velocity":0.84251968503937,"duration":0.2604166666666856},{"name":"F4","midi":65,"time":505.7864583333135,"velocity":0.84251968503937,"duration":1.5755208333335418},{"name":"C5","midi":72,"time":505.7864583333135,"velocity":0.84251968503937,"duration":0.12890625},{"name":"B4","midi":71,"time":505.91796874998016,"velocity":0.84251968503937,"duration":0.12890625},{"name":"C4","midi":60,"time":506.04947916664685,"velocity":0.84251968503937,"duration":0.2604166666666856},{"name":"C5","midi":72,"time":506.04947916664685,"velocity":0.84251968503937,"duration":0.5234375000000568},{"name":"B3","midi":59,"time":506.3124999999802,"velocity":0.84251968503937,"duration":0.2604166666666856},{"name":"A3","midi":57,"time":506.5755208333136,"velocity":0.84251968503937,"duration":0.2604166666666856},{"name":"C5","midi":72,"time":506.5755208333136,"velocity":0.84251968503937,"duration":0.2604166666666856},{"name":"G#3","midi":56,"time":506.83854166664696,"velocity":0.84251968503937,"duration":0.2604166666666856},{"name":"B4","midi":71,"time":506.83854166664696,"velocity":0.84251968503937,"duration":1.0416666666667425},{"name":"A3","midi":57,"time":507.10156249998033,"velocity":0.84251968503937,"duration":0.2604166666666856},{"name":"C5","midi":72,"time":507.10156249998033,"velocity":0.84251968503937,"duration":0.2604166666666856},{"name":"B3","midi":59,"time":507.3645833333137,"velocity":0.84251968503937,"duration":0.5208333333333144},{"name":"D5","midi":74,"time":507.3645833333137,"velocity":0.84251968503937,"duration":0.7669270833333712},{"name":"E3","midi":52,"time":507.627604166647,"velocity":0.84251968503937,"duration":0.2604166666666856},{"name":"G3","midi":55,"time":507.8906249999804,"velocity":0.84251968503937,"duration":0.7864583333334281},{"name":"B4","midi":71,"time":507.8906249999804,"velocity":0.84251968503937,"duration":0.7669270833334281},{"name":"E4","midi":64,"time":507.8906249999804,"velocity":0.84251968503937,"duration":1.0416666666667993},{"name":"F5","midi":77,"time":508.15364583331376,"velocity":0.84251968503937,"duration":0.2604166666666856},{"name":"E5","midi":76,"time":508.41666666664713,"velocity":0.84251968503937,"duration":0.2604166666666856},{"name":"G3","midi":55,"time":508.6796874999805,"velocity":0.84251968503937,"duration":0.2604166666666856},{"name":"D5","midi":74,"time":508.6796874999805,"velocity":0.84251968503937,"duration":0.2604166666666856},{"name":"E4","midi":64,"time":508.9427083333139,"velocity":0.84251968503937,"duration":1.3151041666668561},{"name":"G4","midi":67,"time":508.9427083333139,"velocity":0.84251968503937,"duration":0.7669270833334281},{"name":"A4","midi":69,"time":508.9427083333139,"velocity":0.84251968503937,"duration":0.7669270833334281},{"name":"C#5","midi":73,"time":508.9427083333139,"velocity":0.84251968503937,"duration":0.2604166666666856},{"name":"D5","midi":74,"time":509.20572916664725,"velocity":0.84251968503937,"duration":0.2604166666666856},{"name":"E5","midi":76,"time":509.4687499999806,"velocity":0.84251968503937,"duration":0.7864583333334281},{"name":"A#3","midi":58,"time":509.731770833314,"velocity":0.84251968503937,"duration":0.2604166666666856},{"name":"A3","midi":57,"time":509.99479166664736,"velocity":0.84251968503937,"duration":0.2604166666666856},{"name":"G3","midi":55,"time":510.25781249998073,"velocity":0.84251968503937,"duration":0.2604166666666856},{"name":"E5","midi":76,"time":510.25781249998073,"velocity":0.84251968503937,"duration":0.2604166666666856},{"name":"F3","midi":53,"time":510.5208333333141,"velocity":0.84251968503937,"duration":0.2604166666666856},{"name":"D5","midi":74,"time":510.5208333333141,"velocity":0.84251968503937,"duration":0.2604166666666856},{"name":"E3","midi":52,"time":510.7838541666475,"velocity":0.84251968503937,"duration":0.2604166666666856},{"name":"C#5","midi":73,"time":510.7838541666475,"velocity":0.84251968503937,"duration":0.2604166666666856},{"name":"F3","midi":53,"time":511.04687499998084,"velocity":0.84251968503937,"duration":0.5234375000000568},{"name":"A4","midi":69,"time":511.04687499998084,"velocity":0.84251968503937,"duration":1.5755208333333144},{"name":"D5","midi":74,"time":511.04687499998084,"velocity":0.84251968503937,"duration":0.2604166666666856},{"name":"E5","midi":76,"time":511.3098958333142,"velocity":0.84251968503937,"duration":0.2604166666666856},{"name":"E3","midi":52,"time":511.5729166666476,"velocity":0.84251968503937,"duration":0.2604166666666856},{"name":"F5","midi":77,"time":511.5729166666476,"velocity":0.84251968503937,"duration":0.7864583333333144},{"name":"D3","midi":50,"time":511.83593749998096,"velocity":0.84251968503937,"duration":0.2604166666666856},{"name":"D4","midi":62,"time":512.0989583333143,"velocity":0.84251968503937,"duration":0.7864583333331439},{"name":"F5","midi":77,"time":512.3619791666475,"velocity":0.84251968503937,"duration":0.26041666666662877},{"name":"E5","midi":76,"time":512.6249999999808,"velocity":0.84251968503937,"duration":0.26041666666662877},{"name":"D4","midi":62,"time":512.888020833314,"velocity":0.84251968503937,"duration":0.26041666666662877},{"name":"D5","midi":74,"time":512.888020833314,"velocity":0.84251968503937,"duration":0.5208333333332575},{"name":"G#3","midi":56,"time":513.1510416666473,"velocity":0.84251968503937,"duration":0.7864583333332575},{"name":"E4","midi":64,"time":513.1510416666473,"velocity":0.84251968503937,"duration":1.041666666666515},{"name":"B3","midi":59,"time":513.1510416666473,"velocity":0.84251968503937,"duration":0.7864583333332575},{"name":"B5","midi":83,"time":513.1510416666473,"velocity":0.84251968503937,"duration":0.38411458333337123},{"name":"E5","midi":76,"time":513.4140624999807,"velocity":0.84251968503937,"duration":0.26041666666662877},{"name":"F5","midi":77,"time":513.6770833333139,"velocity":0.84251968503937,"duration":0.26041666666662877},{"name":"A3","midi":57,"time":513.9401041666472,"velocity":0.84251968503937,"duration":0.12890625},{"name":"D5","midi":74,"time":513.9401041666472,"velocity":0.84251968503937,"duration":0.26041666666662877},{"name":"B3","midi":59,"time":514.0716145833138,"velocity":0.84251968503937,"duration":0.12890625},{"name":"D3","midi":50,"time":514.2031249999804,"velocity":0.84251968503937,"duration":0.26041666666662877},{"name":"D5","midi":74,"time":514.2031249999804,"velocity":0.84251968503937,"duration":0.17317708333337123},{"name":"A4","midi":69,"time":514.2031249999804,"velocity":0.84251968503937,"duration":0.7656249999998863},{"name":"C5","midi":72,"time":514.3789062499804,"velocity":0.84251968503937,"duration":0.09505208333325754},{"name":"F3","midi":53,"time":514.4661458333137,"velocity":0.84251968503937,"duration":0.25911458333337123},{"name":"D5","midi":74,"time":514.4661458333137,"velocity":0.84251968503937,"duration":0.09505208333337123},{"name":"C5","midi":72,"time":514.5533854166471,"velocity":0.84251968503937,"duration":0.09505208333337123},{"name":"D5","midi":74,"time":514.6406249999804,"velocity":0.84251968503937,"duration":0.09505208333325754},{"name":"E3","midi":52,"time":514.7278645833137,"velocity":0.84251968503937,"duration":0.26041666666662877},{"name":"C5","midi":72,"time":514.7278645833137,"velocity":0.84251968503937,"duration":0.26041666666662877},{"name":"D3","midi":50,"time":514.990885416647,"velocity":0.84251968503937,"duration":0.26041666666662877},{"name":"B4","midi":71,"time":514.990885416647,"velocity":0.84251968503937,"duration":0.26041666666662877},{"name":"G#4","midi":68,"time":514.990885416647,"velocity":0.84251968503937,"duration":0.26041666666662877},{"name":"C#3","midi":49,"time":515.2539062499802,"velocity":0.84251968503937,"duration":0.26041666666662877},{"name":"A4","midi":69,"time":515.2539062499802,"velocity":0.84251968503937,"duration":0.7864583333331439},{"name":"E5","midi":76,"time":515.2539062499802,"velocity":0.84251968503937,"duration":2.1015624999994316},{"name":"D3","midi":50,"time":515.5169270833135,"velocity":0.84251968503937,"duration":0.26041666666662877},{"name":"E3","midi":52,"time":515.7799479166467,"velocity":0.84251968503937,"duration":0.7864583333331439},{"name":"A#4","midi":70,"time":516.04296874998,"velocity":0.84251968503937,"duration":0.26041666666662877},{"name":"A4","midi":69,"time":516.3059895833132,"velocity":0.84251968503937,"duration":0.26041666666662877},{"name":"E3","midi":52,"time":516.5690104166465,"velocity":0.84251968503937,"duration":0.26041666666662877},{"name":"G4","midi":67,"time":516.5690104166465,"velocity":0.84251968503937,"duration":0.26041666666662877},{"name":"D3","midi":50,"time":516.8320312499798,"velocity":0.84251968503937,"duration":0.26041666666662877},{"name":"F4","midi":65,"time":516.8320312499798,"velocity":0.84251968503937,"duration":0.26041666666662877},{"name":"C#3","midi":49,"time":517.095052083313,"velocity":0.84251968503937,"duration":0.26041666666662877},{"name":"E4","midi":64,"time":517.095052083313,"velocity":0.84251968503937,"duration":0.26041666666662877},{"name":"D3","midi":50,"time":517.3580729166463,"velocity":0.84251968503937,"duration":0.26041666666662877},{"name":"F4","midi":65,"time":517.3580729166463,"velocity":0.84251968503937,"duration":0.5234374999998863},{"name":"E3","midi":52,"time":517.6210937499795,"velocity":0.84251968503937,"duration":0.26041666666662877},{"name":"F3","midi":53,"time":517.8841145833128,"velocity":0.84251968503937,"duration":0.7864583333332575},{"name":"E4","midi":64,"time":517.8841145833128,"velocity":0.84251968503937,"duration":0.26041666666662877},{"name":"D4","midi":62,"time":518.147135416646,"velocity":0.84251968503937,"duration":2.1015624999995453},{"name":"F4","midi":65,"time":518.4101562499794,"velocity":0.84251968503937,"duration":1.0416666666664014},{"name":"A4","midi":69,"time":518.541666666646,"velocity":0.84251968503937,"duration":0.7669270833331439},{"name":"F3","midi":53,"time":518.6731770833127,"velocity":0.84251968503937,"duration":0.26041666666662877},{"name":"D5","midi":74,"time":518.6731770833127,"velocity":0.84251968503937,"duration":0.5208333333332575},{"name":"E3","midi":52,"time":518.9361979166459,"velocity":0.84251968503937,"duration":0.26041666666662877},{"name":"D3","midi":50,"time":519.1992187499792,"velocity":0.84251968503937,"duration":0.26041666666662877},{"name":"D5","midi":74,"time":519.1992187499792,"velocity":0.84251968503937,"duration":0.26041666666662877},{"name":"B3","midi":59,"time":519.4622395833125,"velocity":0.84251968503937,"duration":0.26041666666662877},{"name":"A4","midi":69,"time":519.4622395833125,"velocity":0.84251968503937,"duration":0.3945312499998863},{"name":"E3","midi":52,"time":519.7252604166457,"velocity":0.84251968503937,"duration":0.26041666666662877},{"name":"G#4","midi":68,"time":519.8567708333123,"velocity":0.84251968503937,"duration":0.12890625},{"name":"F3","midi":53,"time":519.988281249979,"velocity":0.84251968503937,"duration":0.26041666666662877},{"name":"A4","midi":69,"time":519.988281249979,"velocity":0.84251968503937,"duration":0.12890625},{"name":"G#4","midi":68,"time":520.1197916666456,"velocity":0.84251968503937,"duration":0.12890625},{"name":"D3","midi":50,"time":520.2513020833122,"velocity":0.84251968503937,"duration":0.26041666666662877},{"name":"A4","midi":69,"time":520.2513020833122,"velocity":0.84251968503937,"duration":0.12890625},{"name":"B4","midi":71,"time":520.3828124999789,"velocity":0.84251968503937,"duration":0.12890625},{"name":"G#3","midi":56,"time":520.5143229166455,"velocity":0.84251968503937,"duration":0.7864583333332575},{"name":"D4","midi":62,"time":520.5143229166455,"velocity":0.84251968503937,"duration":0.5208333333333712},{"name":"F4","midi":65,"time":520.7773437499789,"velocity":0.84251968503937,"duration":0.26041666666662877},{"name":"E4","midi":64,"time":521.0403645833121,"velocity":0.84251968503937,"duration":0.26041666666662877},{"name":"G#3","midi":56,"time":521.3033854166454,"velocity":0.84251968503937,"duration":0.26041666666662877},{"name":"D4","midi":62,"time":521.3033854166454,"velocity":0.84251968503937,"duration":0.26041666666662877},{"name":"A3","midi":57,"time":521.5664062499786,"velocity":0.84251968503937,"duration":0.7864583333331439},{"name":"D4","midi":62,"time":521.5664062499786,"velocity":0.84251968503937,"duration":0.26041666666662877},{"name":"B3","midi":59,"time":521.8294270833119,"velocity":0.84251968503937,"duration":0.26041666666662877},{"name":"C4","midi":60,"time":522.0924479166451,"velocity":0.84251968503937,"duration":0.26041666666662877},{"name":"G3","midi":55,"time":522.3554687499784,"velocity":0.84251968503937,"duration":0.26041666666662877},{"name":"E4","midi":64,"time":522.3554687499784,"velocity":0.84251968503937,"duration":0.26041666666662877},{"name":"F3","midi":53,"time":522.6184895833117,"velocity":0.84251968503937,"duration":0.26041666666662877},{"name":"C#4","midi":61,"time":522.6184895833117,"velocity":0.84251968503937,"duration":1.0416666666664014},{"name":"E4","midi":64,"time":522.7499999999783,"velocity":0.84251968503937,"duration":0.9309895833330302},{"name":"E3","midi":52,"time":522.8815104166449,"velocity":0.84251968503937,"duration":0.26041666666662877},{"name":"G4","midi":67,"time":522.8815104166449,"velocity":0.84251968503937,"duration":0.5234374999998863},{"name":"D3","midi":50,"time":523.1445312499782,"velocity":0.84251968503937,"duration":0.26041666666662877},{"name":"C#3","midi":49,"time":523.4075520833114,"velocity":0.84251968503937,"duration":0.26041666666662877},{"name":"G4","midi":67,"time":523.4075520833114,"velocity":0.84251968503937,"duration":0.26041666666662877},{"name":"D3","midi":50,"time":523.6705729166447,"velocity":0.84251968503937,"duration":0.7864583333331439},{"name":"A3","midi":57,"time":523.6705729166447,"velocity":0.84251968503937,"duration":0.5208333333332575},{"name":"G4","midi":67,"time":523.6705729166447,"velocity":0.84251968503937,"duration":0.26041666666662877},{"name":"D4","midi":62,"time":523.6705729166447,"velocity":0.84251968503937,"duration":0.26041666666662877},{"name":"E4","midi":64,"time":523.933593749978,"velocity":0.84251968503937,"duration":0.26041666666662877},{"name":"F4","midi":65,"time":524.1966145833112,"velocity":0.84251968503937,"duration":0.26041666666662877},{"name":"E3","midi":52,"time":524.4596354166445,"velocity":0.84251968503937,"duration":0.26041666666662877},{"name":"A4","midi":69,"time":524.4596354166445,"velocity":0.84251968503937,"duration":0.26041666666662877},{"name":"D3","midi":50,"time":524.7226562499777,"velocity":0.84251968503937,"duration":0.26041666666662877},{"name":"B4","midi":71,"time":524.7226562499777,"velocity":0.84251968503937,"duration":0.26041666666662877},{"name":"C3","midi":48,"time":524.985677083311,"velocity":0.84251968503937,"duration":0.26041666666662877},{"name":"C5","midi":72,"time":524.985677083311,"velocity":0.84251968503937,"duration":0.26041666666662877},{"name":"B2","midi":47,"time":525.2486979166442,"velocity":0.84251968503937,"duration":0.26041666666662877},{"name":"D5","midi":74,"time":525.2486979166442,"velocity":0.84251968503937,"duration":0.26041666666662877},{"name":"A2","midi":45,"time":525.5117187499775,"velocity":0.84251968503937,"duration":0.26041666666662877},{"name":"D5","midi":74,"time":525.5117187499775,"velocity":0.84251968503937,"duration":0.26041666666662877},{"name":"G#2","midi":44,"time":525.7747395833107,"velocity":0.84251968503937,"duration":1.312499999999659},{"name":"D5","midi":74,"time":525.7747395833107,"velocity":0.84251968503937,"duration":0.26041666666662877},{"name":"B4","midi":71,"time":526.037760416644,"velocity":0.84251968503937,"duration":0.26041666666662877},{"name":"B2","midi":47,"time":526.037760416644,"velocity":0.84251968503937,"duration":1.0416666666664014},{"name":"G#4","midi":68,"time":526.3007812499773,"velocity":0.84251968503937,"duration":0.26041666666662877},{"name":"E3","midi":52,"time":526.3007812499773,"velocity":0.84251968503937,"duration":1.0416666666664014},{"name":"B4","midi":71,"time":526.5638020833105,"velocity":0.84251968503937,"duration":0.26041666666662877},{"name":"D5","midi":74,"time":526.8268229166438,"velocity":0.84251968503937,"duration":0.26041666666662877},{"name":"A2","midi":45,"time":527.089843749977,"velocity":0.84251968503937,"duration":0.26041666666662877},{"name":"E5","midi":76,"time":527.089843749977,"velocity":0.84251968503937,"duration":0.12890625},{"name":"F5","midi":77,"time":527.2213541666437,"velocity":0.84251968503937,"duration":0.12890625},{"name":"B2","midi":47,"time":527.3528645833103,"velocity":0.84251968503937,"duration":0.26041666666662877},{"name":"E5","midi":76,"time":527.3528645833103,"velocity":0.84251968503937,"duration":0.3906249999998863},{"name":"C3","midi":48,"time":527.6158854166436,"velocity":0.84251968503937,"duration":0.26041666666674246},{"name":"D5","midi":74,"time":527.7447916666436,"velocity":0.84251968503937,"duration":0.13020833333337123},{"name":"D3","midi":50,"time":527.8789062499769,"velocity":0.84251968503937,"duration":0.26041666666662877},{"name":"A5","midi":81,"time":527.8789062499769,"velocity":0.84251968503937,"duration":0.21614583333325754},{"name":"E5","midi":76,"time":527.8789062499769,"velocity":0.84251968503937,"duration":1.0416666666664014},{"name":"G#5","midi":80,"time":528.0924479166436,"velocity":0.84251968503937,"duration":0.12890625},{"name":"E3","midi":52,"time":528.1419270833102,"velocity":0.84251968503937,"duration":0.12890625},{"name":"A5","midi":81,"time":528.1966145833102,"velocity":0.84251968503937,"duration":0.12890625},{"name":"F3","midi":53,"time":528.2734374999768,"velocity":0.84251968503937,"duration":0.12890625},{"name":"G#5","midi":80,"time":528.3007812499768,"velocity":0.84251968503937,"duration":0.12890625},{"name":"E3","midi":52,"time":528.4049479166434,"velocity":0.84251968503937,"duration":0.26041666666662877},{"name":"A5","midi":81,"time":528.4049479166434,"velocity":0.84251968503937,"duration":0.12890625},{"name":"G#5","midi":80,"time":528.5364583333101,"velocity":0.84251968503937,"duration":0.12890625},{"name":"D3","midi":50,"time":528.6679687499767,"velocity":0.84251968503937,"duration":0.26041666666662877},{"name":"F#5","midi":78,"time":528.6679687499767,"velocity":0.84251968503937,"duration":0.12890625},{"name":"G#5","midi":80,"time":528.7994791666433,"velocity":0.84251968503937,"duration":0.12890625},{"name":"C3","midi":48,"time":528.93098958331,"velocity":0.84251968503937,"duration":0.26041666666662877},{"name":"A5","midi":81,"time":528.93098958331,"velocity":0.84251968503937,"duration":0.26041666666662877},{"name":"B2","midi":47,"time":529.1940104166432,"velocity":0.84251968503937,"duration":0.26041666666662877},{"name":"B5","midi":83,"time":529.1940104166432,"velocity":0.84251968503937,"duration":0.12890625},{"name":"C6","midi":84,"time":529.3255208333098,"velocity":0.84251968503937,"duration":0.12890625},{"name":"A2","midi":45,"time":529.4570312499765,"velocity":0.84251968503937,"duration":0.26041666666662877},{"name":"B5","midi":83,"time":529.4570312499765,"velocity":0.84251968503937,"duration":0.26041666666662877},{"name":"G#2","midi":44,"time":529.7200520833097,"velocity":0.84251968503937,"duration":0.26041666666662877},{"name":"D5","midi":74,"time":529.7200520833097,"velocity":0.84251968503937,"duration":0.26041666666662877},{"name":"B4","midi":71,"time":529.7200520833097,"velocity":0.84251968503937,"duration":0.765625},{"name":"A2","midi":45,"time":529.983072916643,"velocity":0.84251968503937,"duration":0.5221354166667425},{"name":"D5","midi":74,"time":529.983072916643,"velocity":0.84251968503937,"duration":0.14453125},{"name":"C5","midi":72,"time":530.1328124999764,"velocity":0.84251968503937,"duration":0.09505208333337123},{"name":"D5","midi":74,"time":530.2265624999764,"velocity":0.84251968503937,"duration":0.09505208333337123},{"name":"C5","midi":72,"time":530.3203124999764,"velocity":0.84251968503937,"duration":0.09505208333337123},{"name":"D5","midi":74,"time":530.4140624999764,"velocity":0.84251968503937,"duration":0.09505208333337123},{"name":"D3","midi":50,"time":530.5078124999764,"velocity":0.84251968503937,"duration":0.5234375},{"name":"A4","midi":69,"time":530.5078124999764,"velocity":0.84251968503937,"duration":1.0416666666666288},{"name":"C5","midi":72,"time":530.5078124999764,"velocity":0.84251968503937,"duration":0.26041666666674246},{"name":"B4","midi":71,"time":530.7708333333097,"velocity":0.84251968503937,"duration":0.26041666666662877},{"name":"E3","midi":52,"time":531.033854166643,"velocity":0.84251968503937,"duration":0.5234375},{"name":"C5","midi":72,"time":531.033854166643,"velocity":0.84251968503937,"duration":0.39453125},{"name":"B4","midi":71,"time":531.428385416643,"velocity":0.84251968503937,"duration":0.12890625},{"name":"E2","midi":40,"time":531.5598958333096,"velocity":0.84251968503937,"duration":0.5234374999998863},{"name":"G#4","midi":68,"time":531.5598958333096,"velocity":0.84251968503937,"duration":0.26041666666662877},{"name":"C5","midi":72,"time":531.5598958333096,"velocity":0.84251968503937,"duration":0.12890625},{"name":"B4","midi":71,"time":531.6914062499762,"velocity":0.84251968503937,"duration":0.12890625},{"name":"A4","midi":69,"time":531.8229166666429,"velocity":0.84251968503937,"duration":0.26041666666662877},{"name":"A2","midi":45,"time":532.0859374999761,"velocity":0.84251968503937,"duration":3.93098958333303},{"name":"A4","midi":69,"time":532.0859374999761,"velocity":0.84251968503937,"duration":1.3124999999997726},{"name":"E3","midi":52,"time":532.3489583333095,"velocity":0.84251968503937,"duration":0.12890625},{"name":"D3","midi":50,"time":532.4804687499761,"velocity":0.84251968503937,"duration":0.12890625},{"name":"C#3","midi":49,"time":532.6119791666428,"velocity":0.84251968503937,"duration":0.12890625},{"name":"D3","midi":50,"time":532.7434895833094,"velocity":0.84251968503937,"duration":0.12890625},{"name":"E3","midi":52,"time":532.874999999976,"velocity":0.84251968503937,"duration":0.26041666666662877},{"name":"F3","midi":53,"time":533.1380208333093,"velocity":0.84251968503937,"duration":1.0494791666666288},{"name":"B3","midi":59,"time":533.4010416666425,"velocity":0.84251968503937,"duration":0.7669270833333712},{"name":"D4","midi":62,"time":533.6640624999759,"velocity":0.84251968503937,"duration":0.5208333333333712},{"name":"G#4","midi":68,"time":533.9270833333093,"velocity":0.84251968503937,"duration":0.26041666666662877},{"name":"E3","midi":52,"time":534.1901041666425,"velocity":0.84251968503937,"duration":1.8411458333333712},{"name":"C#4","midi":61,"time":534.1901041666425,"velocity":0.84251968503937,"duration":1.8411458333333712},{"name":"A4","midi":69,"time":534.1901041666425,"velocity":0.84251968503937,"duration":1.8411458333333712},{"name":"E4","midi":64,"time":534.1901041666425,"velocity":0.84251968503937,"duration":1.8411458333333712},{"name":"E5","midi":76,"time":536.0182291666425,"velocity":0.84251968503937,"duration":0.26041666666674246},{"name":"A3","midi":57,"time":536.0182291666425,"velocity":0.84251968503937,"duration":0.26041666666674246},{"name":"A3","midi":57,"time":536.2968749999759,"velocity":0.84251968503937,"duration":1.312499999999659},{"name":"E5","midi":76,"time":536.2968749999759,"velocity":0.84251968503937,"duration":0.26041666666662877},{"name":"C#5","midi":73,"time":536.2968749999759,"velocity":0.84251968503937,"duration":0.26041666666662877},{"name":"A4","midi":69,"time":536.2968749999759,"velocity":0.84251968503937,"duration":0.26041666666662877},{"name":"G5","midi":79,"time":536.5598958333092,"velocity":0.84251968503937,"duration":0.12890625},{"name":"F5","midi":77,"time":536.6914062499758,"velocity":0.84251968503937,"duration":0.12890625},{"name":"E5","midi":76,"time":536.8229166666424,"velocity":0.84251968503937,"duration":0.12890625},{"name":"F5","midi":77,"time":536.954427083309,"velocity":0.84251968503937,"duration":0.12890625},{"name":"G5","midi":79,"time":537.0859374999757,"velocity":0.84251968503937,"duration":0.26041666666662877},{"name":"C#5","midi":73,"time":537.3489583333089,"velocity":0.84251968503937,"duration":0.26041666666662877},{"name":"G#3","midi":56,"time":537.6119791666422,"velocity":0.84251968503937,"duration":0.26041666666662877},{"name":"E5","midi":76,"time":537.6119791666422,"velocity":0.84251968503937,"duration":0.12890625},{"name":"D5","midi":74,"time":537.7434895833088,"velocity":0.84251968503937,"duration":0.12890625},{"name":"A3","midi":57,"time":537.8749999999754,"velocity":0.84251968503937,"duration":0.26041666666662877},{"name":"C#5","midi":73,"time":537.8749999999754,"velocity":0.84251968503937,"duration":0.12890625},{"name":"D5","midi":74,"time":538.0065104166421,"velocity":0.84251968503937,"duration":0.12890625},{"name":"B3","midi":59,"time":538.1380208333087,"velocity":0.84251968503937,"duration":0.26041666666662877},{"name":"E5","midi":76,"time":538.1380208333087,"velocity":0.84251968503937,"duration":0.26041666666662877},{"name":"C#4","midi":61,"time":538.401041666642,"velocity":0.84251968503937,"duration":0.26041666666662877},{"name":"A4","midi":69,"time":538.401041666642,"velocity":0.84251968503937,"duration":0.7864583333331439},{"name":"B3","midi":59,"time":538.6640624999752,"velocity":0.84251968503937,"duration":0.26041666666662877},{"name":"A3","midi":57,"time":538.9270833333085,"velocity":0.84251968503937,"duration":0.26041666666662877},{"name":"E4","midi":64,"time":539.1901041666417,"velocity":0.84251968503937,"duration":0.234375},{"name":"B4","midi":71,"time":539.1901041666417,"velocity":0.84251968503937,"duration":0.26041666666662877},{"name":"A#3","midi":58,"time":539.453124999975,"velocity":0.84251968503937,"duration":0.7864583333331439},{"name":"C#5","midi":73,"time":539.453124999975,"velocity":0.84251968503937,"duration":0.26041666666662877},{"name":"D5","midi":74,"time":539.7161458333082,"velocity":0.84251968503937,"duration":0.26041666666662877},{"name":"E5","midi":76,"time":539.9791666666415,"velocity":0.84251968503937,"duration":0.26041666666662877},{"name":"A#3","midi":58,"time":540.2421874999748,"velocity":0.84251968503937,"duration":0.32942708333325754},{"name":"F5","midi":77,"time":540.2421874999748,"velocity":0.84251968503937,"duration":0.26041666666662877},{"name":"C#3","midi":49,"time":540.505208333308,"velocity":0.84251968503937,"duration":0.7877604166665151},{"name":"G5","midi":79,"time":540.505208333308,"velocity":0.84251968503937,"duration":0.26171875},{"name":"A5","midi":81,"time":540.7695312499746,"velocity":0.84251968503937,"duration":0.26041666666662877},{"name":"A#5","midi":82,"time":541.0325520833079,"velocity":0.84251968503937,"duration":0.26041666666662877},{"name":"A3","midi":57,"time":541.2955729166412,"velocity":0.84251968503937,"duration":0.26041666666662877},{"name":"G5","midi":79,"time":541.2955729166412,"velocity":0.84251968503937,"duration":0.26041666666662877},{"name":"B3","midi":59,"time":541.5585937499744,"velocity":0.84251968503937,"duration":0.26041666666662877},{"name":"G5","midi":79,"time":541.5585937499744,"velocity":0.84251968503937,"duration":0.17317708333337123},{"name":"F5","midi":77,"time":541.7343749999744,"velocity":0.84251968503937,"duration":0.09505208333325754},{"name":"C#4","midi":61,"time":541.8216145833077,"velocity":0.84251968503937,"duration":0.25911458333337123},{"name":"G5","midi":79,"time":541.8216145833077,"velocity":0.84251968503937,"duration":0.09505208333337123},{"name":"F5","midi":77,"time":541.908854166641,"velocity":0.84251968503937,"duration":0.09505208333337123},{"name":"G5","midi":79,"time":541.9960937499744,"velocity":0.84251968503937,"duration":0.09505208333325754},{"name":"D4","midi":62,"time":542.0833333333077,"velocity":0.84251968503937,"duration":0.26041666666662877},{"name":"F5","midi":77,"time":542.0833333333077,"velocity":0.84251968503937,"duration":0.26041666666662877},{"name":"E4","midi":64,"time":542.3463541666409,"velocity":0.84251968503937,"duration":0.26041666666662877},{"name":"E5","midi":76,"time":542.3463541666409,"velocity":0.84251968503937,"duration":0.26041666666662877},{"name":"F4","midi":65,"time":542.6093749999742,"velocity":0.84251968503937,"duration":0.26041666666662877},{"name":"A5","midi":81,"time":542.6093749999742,"velocity":0.84251968503937,"duration":0.26041666666662877},{"name":"A#4","midi":70,"time":542.8723958333075,"velocity":0.84251968503937,"duration":0.26041666666662877},{"name":"G5","midi":79,"time":542.8723958333075,"velocity":0.84251968503937,"duration":0.26041666666662877},{"name":"A4","midi":69,"time":543.1354166666407,"velocity":0.84251968503937,"duration":0.26041666666662877},{"name":"F5","midi":77,"time":543.1354166666407,"velocity":0.84251968503937,"duration":0.26041666666662877},{"name":"G4","midi":67,"time":543.398437499974,"velocity":0.84251968503937,"duration":0.26041666666662877},{"name":"G5","midi":79,"time":543.398437499974,"velocity":0.84251968503937,"duration":0.12890625},{"name":"A5","midi":81,"time":543.5299479166406,"velocity":0.84251968503937,"duration":0.12890625},{"name":"F4","midi":65,"time":543.6614583333072,"velocity":0.84251968503937,"duration":0.26041666666662877},{"name":"D5","midi":74,"time":543.6614583333072,"velocity":0.84251968503937,"duration":0.26041666666662877},{"name":"E4","midi":64,"time":543.9244791666405,"velocity":0.84251968503937,"duration":0.26041666666662877},{"name":"E5","midi":76,"time":543.9244791666405,"velocity":0.84251968503937,"duration":0.12890625},{"name":"F5","midi":77,"time":544.0559895833071,"velocity":0.84251968503937,"duration":0.12890625},{"name":"D4","midi":62,"time":544.1874999999737,"velocity":0.84251968503937,"duration":0.26041666666662877},{"name":"E5","midi":76,"time":544.1874999999737,"velocity":0.84251968503937,"duration":0.26041666666662877},{"name":"C#4","midi":61,"time":544.450520833307,"velocity":0.84251968503937,"duration":0.26041666666662877},{"name":"F5","midi":77,"time":544.450520833307,"velocity":0.84251968503937,"duration":0.12890625},{"name":"G5","midi":79,"time":544.5820312499736,"velocity":0.84251968503937,"duration":0.12890625},{"name":"D4","midi":62,"time":544.7135416666403,"velocity":0.84251968503937,"duration":0.5234374999998863},{"name":"F5","midi":77,"time":544.7135416666403,"velocity":0.84251968503937,"duration":0.26041666666662877},{"name":"E5","midi":76,"time":544.9765624999735,"velocity":0.84251968503937,"duration":0.26041666666662877},{"name":"D3","midi":50,"time":545.2395833333068,"velocity":0.84251968503937,"duration":0.26041666666662877},{"name":"D5","midi":74,"time":545.2395833333068,"velocity":0.84251968503937,"duration":0.26041666666662877},{"name":"E3","midi":52,"time":545.50260416664,"velocity":0.84251968503937,"duration":0.26041666666662877},{"name":"A5","midi":81,"time":545.50260416664,"velocity":0.84251968503937,"duration":0.26041666666662877},{"name":"F#3","midi":54,"time":545.7656249999733,"velocity":0.84251968503937,"duration":0.26041666666674246},{"name":"D#5","midi":75,"time":545.7656249999733,"velocity":0.84251968503937,"duration":0.11067708333337123},{"name":"C5","midi":72,"time":545.7656249999733,"velocity":0.84251968503937,"duration":1.041666666666515},{"name":"D5","midi":74,"time":545.8710937499733,"velocity":0.84251968503937,"duration":0.11067708333337123},{"name":"D#5","midi":75,"time":545.9765624999733,"velocity":0.84251968503937,"duration":0.5598958333332575},{"name":"G3","midi":55,"time":546.0286458333067,"velocity":0.84251968503937,"duration":0.26041666666662877},{"name":"A3","midi":57,"time":546.2916666666399,"velocity":0.84251968503937,"duration":0.26041666666662877},{"name":"A#3","midi":58,"time":546.5546874999732,"velocity":0.84251968503937,"duration":0.26041666666662877},{"name":"D#5","midi":75,"time":546.5546874999732,"velocity":0.84251968503937,"duration":0.26041666666662877},{"name":"C4","midi":60,"time":546.8177083333064,"velocity":0.84251968503937,"duration":1.3138020833329165},{"name":"G4","midi":67,"time":546.8177083333064,"velocity":0.84251968503937,"duration":0.17317708333325754},{"name":"F#4","midi":66,"time":546.980468749973,"velocity":0.84251968503937,"duration":0.09505208333325754},{"name":"A3","midi":57,"time":547.0807291666397,"velocity":0.84251968503937,"duration":0.12760416666662877},{"name":"G4","midi":67,"time":547.0807291666397,"velocity":0.84251968503937,"duration":0.09505208333337123},{"name":"F#4","midi":66,"time":547.1940104166397,"velocity":0.84251968503937,"duration":0.4023437499998863},{"name":"G3","midi":55,"time":547.2109374999729,"velocity":0.84251968503937,"duration":0.12890625},{"name":"F#3","midi":54,"time":547.3424479166396,"velocity":0.84251968503937,"duration":0.12890625},{"name":"G3","midi":55,"time":547.4739583333062,"velocity":0.84251968503937,"duration":0.12890625},{"name":"A3","midi":57,"time":547.6054687499728,"velocity":0.84251968503937,"duration":0.26041666666662877},{"name":"D4","midi":62,"time":547.6054687499728,"velocity":0.84251968503937,"duration":0.26041666666662877},{"name":"D3","midi":50,"time":547.8684895833061,"velocity":0.84251968503937,"duration":1.0416666666664014},{"name":"E4","midi":64,"time":547.8684895833061,"velocity":0.84251968503937,"duration":0.26041666666662877},{"name":"C4","midi":60,"time":548.1315104166393,"velocity":0.84251968503937,"duration":0.26041666666662877},{"name":"F#4","midi":66,"time":548.1315104166393,"velocity":0.84251968503937,"duration":0.26041666666662877},{"name":"A#3","midi":58,"time":548.3945312499726,"velocity":0.84251968503937,"duration":0.26041666666662877},{"name":"G4","midi":67,"time":548.3945312499726,"velocity":0.84251968503937,"duration":0.26041666666662877},{"name":"A3","midi":57,"time":548.6575520833059,"velocity":0.84251968503937,"duration":0.26041666666662877},{"name":"A4","midi":69,"time":548.6575520833059,"velocity":0.84251968503937,"duration":0.26041666666662877},{"name":"G3","midi":55,"time":548.9205729166391,"velocity":0.84251968503937,"duration":0.26041666666662877},{"name":"A#4","midi":70,"time":548.9205729166391,"velocity":0.84251968503937,"duration":0.26041666666662877},{"name":"F3","midi":53,"time":549.1835937499724,"velocity":0.84251968503937,"duration":0.26041666666662877},{"name":"G4","midi":67,"time":549.1835937499724,"velocity":0.84251968503937,"duration":0.12890625},{"name":"A4","midi":69,"time":549.315104166639,"velocity":0.84251968503937,"duration":0.12890625},{"name":"D#3","midi":51,"time":549.4466145833056,"velocity":0.84251968503937,"duration":0.26041666666662877},{"name":"A#4","midi":70,"time":549.4466145833056,"velocity":0.84251968503937,"duration":0.12890625},{"name":"A4","midi":69,"time":549.5781249999723,"velocity":0.84251968503937,"duration":0.12890625},{"name":"D3","midi":50,"time":549.7096354166389,"velocity":0.84251968503937,"duration":0.26041666666662877},{"name":"G4","midi":67,"time":549.7096354166389,"velocity":0.84251968503937,"duration":0.26041666666662877},{"name":"C3","midi":48,"time":549.9726562499721,"velocity":0.84251968503937,"duration":0.26041666666662877},{"name":"D#5","midi":75,"time":549.9726562499721,"velocity":0.84251968503937,"duration":0.7669270833331439},{"name":"A#2","midi":46,"time":550.2356770833054,"velocity":0.84251968503937,"duration":0.26041666666662877},{"name":"G4","midi":67,"time":550.2356770833054,"velocity":0.84251968503937,"duration":0.26041666666662877},{"name":"A2","midi":45,"time":550.4986979166387,"velocity":0.84251968503937,"duration":0.26041666666662877},{"name":"C5","midi":72,"time":550.4986979166387,"velocity":0.84251968503937,"duration":0.26041666666662877},{"name":"G2","midi":43,"time":550.7617187499719,"velocity":0.84251968503937,"duration":0.26041666666662877},{"name":"A#4","midi":70,"time":550.7617187499719,"velocity":0.84251968503937,"duration":0.26041666666662877},{"name":"D#5","midi":75,"time":550.7617187499719,"velocity":0.84251968503937,"duration":0.26041666666662877},{"name":"F2","midi":41,"time":551.0247395833052,"velocity":0.84251968503937,"duration":0.26041666666662877},{"name":"D#5","midi":75,"time":551.0247395833052,"velocity":0.84251968503937,"duration":0.26041666666662877},{"name":"A4","midi":69,"time":551.0247395833052,"velocity":0.84251968503937,"duration":0.26041666666662877},{"name":"D#3","midi":51,"time":551.2877604166384,"velocity":0.84251968503937,"duration":0.26041666666662877},{"name":"F4","midi":65,"time":551.2877604166384,"velocity":0.84251968503937,"duration":0.12890625},{"name":"G4","midi":67,"time":551.4192708333051,"velocity":0.84251968503937,"duration":0.12890625},{"name":"D3","midi":50,"time":551.5507812499717,"velocity":0.84251968503937,"duration":0.26041666666662877},{"name":"A4","midi":69,"time":551.5507812499717,"velocity":0.84251968503937,"duration":0.12890625},{"name":"G4","midi":67,"time":551.6822916666383,"velocity":0.84251968503937,"duration":0.12890625},{"name":"C3","midi":48,"time":551.813802083305,"velocity":0.84251968503937,"duration":0.26041666666662877},{"name":"F4","midi":65,"time":551.813802083305,"velocity":0.84251968503937,"duration":0.26041666666662877},{"name":"A#2","midi":46,"time":552.0768229166382,"velocity":0.84251968503937,"duration":0.26041666666662877},{"name":"D5","midi":74,"time":552.0768229166382,"velocity":0.84251968503937,"duration":0.7669270833331439},{"name":"A2","midi":45,"time":552.3398437499715,"velocity":0.84251968503937,"duration":0.26041666666662877},{"name":"F4","midi":65,"time":552.3398437499715,"velocity":0.84251968503937,"duration":0.26041666666662877},{"name":"G2","midi":43,"time":552.6028645833047,"velocity":0.84251968503937,"duration":0.26041666666662877},{"name":"A#4","midi":70,"time":552.6028645833047,"velocity":0.84251968503937,"duration":0.26041666666662877},{"name":"F2","midi":41,"time":552.865885416638,"velocity":0.84251968503937,"duration":0.26041666666662877},{"name":"A4","midi":69,"time":552.865885416638,"velocity":0.84251968503937,"duration":0.26041666666662877},{"name":"D5","midi":74,"time":552.865885416638,"velocity":0.84251968503937,"duration":0.26041666666662877},{"name":"D#2","midi":39,"time":553.1289062499712,"velocity":0.84251968503937,"duration":1.312499999999659},{"name":"D5","midi":74,"time":553.1289062499712,"velocity":0.84251968503937,"duration":0.26041666666662877},{"name":"G4","midi":67,"time":553.1289062499712,"velocity":0.84251968503937,"duration":0.5208333333332575},{"name":"G5","midi":79,"time":553.3919270833045,"velocity":0.84251968503937,"duration":0.12890625},{"name":"F5","midi":77,"time":553.5234374999711,"velocity":0.84251968503937,"duration":0.12890625},{"name":"D#5","midi":75,"time":553.6549479166378,"velocity":0.84251968503937,"duration":0.12890625},{"name":"F5","midi":77,"time":553.7864583333044,"velocity":0.84251968503937,"duration":0.12890625},{"name":"G5","midi":79,"time":553.917968749971,"velocity":0.84251968503937,"duration":0.26041666666662877},{"name":"C5","midi":72,"time":554.1809895833043,"velocity":0.84251968503937,"duration":0.7669270833331439},{"name":"D#3","midi":51,"time":554.4440104166375,"velocity":0.84251968503937,"duration":0.12890625},{"name":"F#5","midi":78,"time":554.4440104166375,"velocity":0.84251968503937,"duration":0.26041666666662877},{"name":"D3","midi":50,"time":554.5755208333042,"velocity":0.84251968503937,"duration":0.12890625},{"name":"C3","midi":48,"time":554.7070312499708,"velocity":0.84251968503937,"duration":0.12890625},{"name":"G5","midi":79,"time":554.7070312499708,"velocity":0.84251968503937,"duration":0.26041666666662877},{"name":"D3","midi":50,"time":554.8385416666374,"velocity":0.84251968503937,"duration":0.12890625},{"name":"D#3","midi":51,"time":554.970052083304,"velocity":0.84251968503937,"duration":0.26041666666662877},{"name":"A5","midi":81,"time":554.970052083304,"velocity":0.84251968503937,"duration":0.26041666666662877},{"name":"C5","midi":72,"time":554.970052083304,"velocity":0.84251968503937,"duration":0.5208333333332575},{"name":"F#2","midi":42,"time":555.2330729166373,"velocity":0.84251968503937,"duration":0.5234375},{"name":"D5","midi":74,"time":555.2330729166373,"velocity":0.84251968503937,"duration":0.7669270833332575},{"name":"A#4","midi":70,"time":555.4960937499707,"velocity":0.84251968503937,"duration":0.12890625},{"name":"A4","midi":69,"time":555.6276041666373,"velocity":0.84251968503937,"duration":0.12890625},{"name":"G2","midi":43,"time":555.7591145833039,"velocity":0.84251968503937,"duration":0.26041666666662877},{"name":"A#4","midi":70,"time":555.7591145833039,"velocity":0.84251968503937,"duration":0.26041666666662877},{"name":"C3","midi":48,"time":556.0221354166372,"velocity":0.84251968503937,"duration":0.26041666666662877},{"name":"D#5","midi":75,"time":556.0221354166372,"velocity":0.84251968503937,"duration":0.26041666666662877},{"name":"G4","midi":67,"time":556.0221354166372,"velocity":0.84251968503937,"duration":0.26041666666662877},{"name":"D3","midi":50,"time":556.2851562499704,"velocity":0.84251968503937,"duration":0.5221354166667425},{"name":"F#4","midi":66,"time":556.2851562499704,"velocity":0.84251968503937,"duration":1.0403645833333712},{"name":"A#4","midi":70,"time":556.2851562499704,"velocity":0.84251968503937,"duration":0.17317708333337123},{"name":"A4","midi":69,"time":556.4609374999704,"velocity":0.84251968503937,"duration":0.09505208333337123},{"name":"A#4","midi":70,"time":556.5481770833038,"velocity":0.84251968503937,"duration":0.09505208333337123},{"name":"A4","midi":69,"time":556.6354166666372,"velocity":0.84251968503937,"duration":0.09505208333337123},{"name":"A#4","midi":70,"time":556.7226562499706,"velocity":0.84251968503937,"duration":0.09505208333325754},{"name":"C3","midi":48,"time":556.8098958333038,"velocity":0.84251968503937,"duration":0.5234375},{"name":"A4","midi":69,"time":556.8098958333038,"velocity":0.84251968503937,"duration":0.26041666666662877},{"name":"G4","midi":67,"time":557.0729166666371,"velocity":0.84251968503937,"duration":0.25130208333337123},{"name":"B2","midi":47,"time":557.3359374999704,"velocity":0.84251968503937,"duration":1.3151041666664014},{"name":"G4","midi":67,"time":557.3359374999704,"velocity":0.84251968503937,"duration":1.1718749999997726},{"name":"D3","midi":50,"time":557.5989583333038,"velocity":0.84251968503937,"duration":0.26041666666662877},{"name":"E3","midi":52,"time":557.8619791666371,"velocity":0.84251968503937,"duration":0.26041666666662877},{"name":"F#3","midi":54,"time":558.1249999999703,"velocity":0.84251968503937,"duration":0.26041666666662877},{"name":"G3","midi":55,"time":558.3880208333036,"velocity":0.84251968503937,"duration":0.5208333333332575},{"name":"C3","midi":48,"time":558.6510416666368,"velocity":0.84251968503937,"duration":0.26041666666662877},{"name":"F#4","midi":66,"time":558.6510416666368,"velocity":0.84251968503937,"duration":0.26041666666662877},{"name":"B2","midi":47,"time":558.9140624999701,"velocity":0.84251968503937,"duration":0.26041666666662877},{"name":"G4","midi":67,"time":558.9140624999701,"velocity":0.84251968503937,"duration":0.26041666666662877},{"name":"A2","midi":45,"time":559.1770833333034,"velocity":0.84251968503937,"duration":0.26041666666662877},{"name":"A4","midi":69,"time":559.1770833333034,"velocity":0.84251968503937,"duration":0.26041666666662877},{"name":"G2","midi":43,"time":559.4401041666366,"velocity":0.84251968503937,"duration":0.26041666666662877},{"name":"B4","midi":71,"time":559.4401041666366,"velocity":0.84251968503937,"duration":0.26041666666662877},{"name":"A2","midi":45,"time":559.7031249999699,"velocity":0.84251968503937,"duration":0.26041666666662877},{"name":"A4","midi":69,"time":559.7031249999699,"velocity":0.84251968503937,"duration":0.26041666666662877},{"name":"B2","midi":47,"time":559.9661458333031,"velocity":0.84251968503937,"duration":0.26041666666662877},{"name":"G4","midi":67,"time":559.9661458333031,"velocity":0.84251968503937,"duration":0.26041666666662877},{"name":"C3","midi":48,"time":560.2291666666364,"velocity":0.84251968503937,"duration":0.26041666666662877},{"name":"D5","midi":74,"time":560.2291666666364,"velocity":0.84251968503937,"duration":0.234375},{"name":"D3","midi":50,"time":560.4921874999696,"velocity":0.84251968503937,"duration":0.26041666666674246},{"name":"F4","midi":65,"time":560.4921874999696,"velocity":0.84251968503937,"duration":0.11067708333337123},{"name":"E4","midi":64,"time":560.602864583303,"velocity":0.84251968503937,"duration":0.11067708333337123},{"name":"F4","midi":65,"time":560.7135416666364,"velocity":0.84251968503937,"duration":0.5429687499998863},{"name":"E3","midi":52,"time":560.755208333303,"velocity":0.84251968503937,"duration":0.12890625},{"name":"F3","midi":53,"time":560.8867187499696,"velocity":0.84251968503937,"duration":0.12890625},{"name":"E3","midi":52,"time":561.0182291666363,"velocity":0.84251968503937,"duration":0.26041666666662877},{"name":"D3","midi":50,"time":561.2812499999695,"velocity":0.84251968503937,"duration":0.26041666666662877},{"name":"F4","midi":65,"time":561.2812499999695,"velocity":0.84251968503937,"duration":0.26041666666662877},{"name":"G3","midi":55,"time":561.5442708333028,"velocity":0.84251968503937,"duration":0.26041666666662877},{"name":"B3","midi":59,"time":561.5442708333028,"velocity":0.84251968503937,"duration":0.7864583333331439},{"name":"A3","midi":57,"time":561.807291666636,"velocity":0.84251968503937,"duration":0.26041666666662877},{"name":"G3","midi":55,"time":562.0703124999693,"velocity":0.84251968503937,"duration":0.26041666666662877},{"name":"F3","midi":53,"time":562.3333333333026,"velocity":0.84251968503937,"duration":0.26041666666662877},{"name":"G4","midi":67,"time":562.3333333333026,"velocity":0.84251968503937,"duration":0.26041666666662877},{"name":"E3","midi":52,"time":562.5963541666358,"velocity":0.84251968503937,"duration":0.5208333333332575},{"name":"A4","midi":69,"time":562.5963541666358,"velocity":0.84251968503937,"duration":0.26041666666662877},{"name":"G3","midi":55,"time":562.8593749999691,"velocity":0.84251968503937,"duration":0.26041666666662877},{"name":"B4","midi":71,"time":562.8593749999691,"velocity":0.84251968503937,"duration":0.26041666666662877},{"name":"D3","midi":50,"time":563.1223958333023,"velocity":0.84251968503937,"duration":0.5208333333332575},{"name":"A3","midi":57,"time":563.1223958333023,"velocity":0.84251968503937,"duration":0.26041666666662877},{"name":"C5","midi":72,"time":563.1223958333023,"velocity":0.84251968503937,"duration":0.26041666666662877},{"name":"B3","midi":59,"time":563.3854166666356,"velocity":0.84251968503937,"duration":0.26041666666662877},{"name":"D5","midi":74,"time":563.3854166666356,"velocity":0.84251968503937,"duration":0.26041666666662877},{"name":"C4","midi":60,"time":563.6484374999688,"velocity":0.84251968503937,"duration":0.5234374999998863},{"name":"C3","midi":48,"time":563.6484374999688,"velocity":0.84251968503937,"duration":1.3151041666664014},{"name":"E5","midi":76,"time":563.6484374999688,"velocity":0.84251968503937,"duration":0.26041666666662877},{"name":"C5","midi":72,"time":563.9114583333021,"velocity":0.84251968503937,"duration":0.12890625},{"name":"D5","midi":74,"time":564.0429687499687,"velocity":0.84251968503937,"duration":0.12890625},{"name":"G3","midi":55,"time":564.1744791666354,"velocity":0.84251968503937,"duration":0.26041666666662877},{"name":"E5","midi":76,"time":564.1744791666354,"velocity":0.84251968503937,"duration":0.12890625},{"name":"D5","midi":74,"time":564.305989583302,"velocity":0.84251968503937,"duration":0.12890625},{"name":"A3","midi":57,"time":564.4374999999686,"velocity":0.84251968503937,"duration":0.26041666666662877},{"name":"C5","midi":72,"time":564.4374999999686,"velocity":0.84251968503937,"duration":0.26041666666662877},{"name":"A#3","midi":58,"time":564.7005208333019,"velocity":0.84251968503937,"duration":1.041666666666515},{"name":"G5","midi":79,"time":564.7005208333019,"velocity":0.84251968503937,"duration":0.7864583333332575},{"name":"F3","midi":53,"time":564.9635416666353,"velocity":0.84251968503937,"duration":0.26041666666662877},{"name":"E3","midi":52,"time":565.2265624999685,"velocity":0.84251968503937,"duration":0.26041666666662877},{"name":"D3","midi":50,"time":565.4895833333018,"velocity":0.84251968503937,"duration":0.26041666666662877},{"name":"G5","midi":79,"time":565.4895833333018,"velocity":0.84251968503937,"duration":0.26041666666662877},{"name":"C#3","midi":49,"time":565.752604166635,"velocity":0.84251968503937,"duration":0.26041666666662877},{"name":"A3","midi":57,"time":565.752604166635,"velocity":0.84251968503937,"duration":1.0416666666664014},{"name":"G5","midi":79,"time":565.752604166635,"velocity":0.84251968503937,"duration":0.26041666666662877},{"name":"B2","midi":47,"time":566.0156249999683,"velocity":0.84251968503937,"duration":0.26041666666662877},{"name":"E5","midi":76,"time":566.0156249999683,"velocity":0.84251968503937,"duration":0.12890625},{"name":"D5","midi":74,"time":566.1471354166349,"velocity":0.84251968503937,"duration":0.12890625},{"name":"A2","midi":45,"time":566.2786458333015,"velocity":0.84251968503937,"duration":0.26041666666662877},{"name":"C#5","midi":73,"time":566.2786458333015,"velocity":0.84251968503937,"duration":0.12890625},{"name":"D5","midi":74,"time":566.4101562499682,"velocity":0.84251968503937,"duration":0.12890625},{"name":"E3","midi":52,"time":566.5416666666348,"velocity":0.84251968503937,"duration":0.26041666666662877},{"name":"E5","midi":76,"time":566.5416666666348,"velocity":0.84251968503937,"duration":0.26041666666662877},{"name":"A#2","midi":46,"time":566.804687499968,"velocity":0.84251968503937,"duration":0.7682291666665151},{"name":"G4","midi":67,"time":566.804687499968,"velocity":0.84251968503937,"duration":0.26041666666662877},{"name":"A#4","midi":70,"time":567.0677083333013,"velocity":0.84251968503937,"duration":0.26041666666662877},{"name":"A4","midi":69,"time":567.3307291666346,"velocity":0.84251968503937,"duration":0.26041666666662877},{"name":"A#2","midi":46,"time":567.5937499999678,"velocity":0.84251968503937,"duration":0.26041666666662877},{"name":"G4","midi":67,"time":567.5937499999678,"velocity":0.84251968503937,"duration":0.26041666666662877},{"name":"C#2","midi":37,"time":567.8567708333011,"velocity":0.84251968503937,"duration":0.7864583333332575},{"name":"E5","midi":76,"time":567.8567708333011,"velocity":0.84251968503937,"duration":2.881510416666174},{"name":"A#4","midi":70,"time":568.1197916666345,"velocity":0.84251968503937,"duration":0.26041666666662877},{"name":"A4","midi":69,"time":568.3828124999677,"velocity":0.84251968503937,"duration":0.26041666666662877},{"name":"A2","midi":45,"time":568.645833333301,"velocity":0.84251968503937,"duration":0.26041666666662877},{"name":"G4","midi":67,"time":568.645833333301,"velocity":0.84251968503937,"duration":0.26041666666662877},{"name":"B2","midi":47,"time":568.9088541666342,"velocity":0.84251968503937,"duration":0.26041666666662877},{"name":"G4","midi":67,"time":568.9088541666342,"velocity":0.84251968503937,"duration":0.17317708333337123},{"name":"F4","midi":65,"time":569.0846354166342,"velocity":0.84251968503937,"duration":0.09505208333325754},{"name":"C#3","midi":49,"time":569.1718749999675,"velocity":0.84251968503937,"duration":0.25911458333337123},{"name":"G4","midi":67,"time":569.1718749999675,"velocity":0.84251968503937,"duration":0.09505208333337123},{"name":"F4","midi":65,"time":569.2591145833009,"velocity":0.84251968503937,"duration":0.09505208333337123},{"name":"G4","midi":67,"time":569.3463541666342,"velocity":0.84251968503937,"duration":0.09505208333325754},{"name":"D3","midi":50,"time":569.4335937499675,"velocity":0.84251968503937,"duration":0.26041666666662877},{"name":"F4","midi":65,"time":569.4335937499675,"velocity":0.84251968503937,"duration":0.26041666666662877},{"name":"E3","midi":52,"time":569.6966145833007,"velocity":0.84251968503937,"duration":0.26041666666662877},{"name":"E4","midi":64,"time":569.6966145833007,"velocity":0.84251968503937,"duration":0.26041666666662877},{"name":"F3","midi":53,"time":569.959635416634,"velocity":0.84251968503937,"duration":2.1015624999995453},{"name":"A4","midi":69,"time":569.959635416634,"velocity":0.84251968503937,"duration":2.1015624999995453},{"name":"A3","midi":57,"time":570.2226562499674,"velocity":0.84251968503937,"duration":0.26041666666662877},{"name":"B3","midi":59,"time":570.4856770833006,"velocity":0.84251968503937,"duration":0.26041666666662877},{"name":"C#4","midi":61,"time":570.7486979166339,"velocity":0.84251968503937,"duration":0.26041666666662877},{"name":"G5","midi":79,"time":570.7486979166339,"velocity":0.84251968503937,"duration":0.26041666666662877},{"name":"D4","midi":62,"time":571.0117187499671,"velocity":0.84251968503937,"duration":0.26041666666662877},{"name":"F5","midi":77,"time":571.0117187499671,"velocity":0.84251968503937,"duration":0.26041666666662877},{"name":"E4","midi":64,"time":571.2747395833004,"velocity":0.84251968503937,"duration":0.26041666666662877},{"name":"E5","midi":76,"time":571.2747395833004,"velocity":0.84251968503937,"duration":0.26041666666662877},{"name":"F4","midi":65,"time":571.5377604166337,"velocity":0.84251968503937,"duration":0.7669270833331439},{"name":"D5","midi":74,"time":571.5377604166337,"velocity":0.84251968503937,"duration":0.26041666666662877},{"name":"C5","midi":72,"time":571.8007812499669,"velocity":0.84251968503937,"duration":0.26041666666662877},{"name":"G3","midi":55,"time":572.0638020833002,"velocity":0.84251968503937,"duration":2.1015624999994316},{"name":"A#4","midi":70,"time":572.0638020833002,"velocity":0.84251968503937,"duration":0.26041666666662877},{"name":"F4","midi":65,"time":572.3268229166334,"velocity":0.84251968503937,"duration":0.26041666666662877},{"name":"A4","midi":69,"time":572.3268229166334,"velocity":0.84251968503937,"duration":0.26041666666662877},{"name":"E4","midi":64,"time":572.5898437499667,"velocity":0.84251968503937,"duration":0.26041666666662877},{"name":"G4","midi":67,"time":572.5898437499667,"velocity":0.84251968503937,"duration":0.5208333333332575},{"name":"D4","midi":62,"time":572.8528645833,"velocity":0.84251968503937,"duration":0.26041666666662877},{"name":"A5","midi":81,"time":572.8528645833,"velocity":0.84251968503937,"duration":0.26041666666662877},{"name":"E4","midi":64,"time":573.1158854166332,"velocity":0.84251968503937,"duration":0.26041666666662877},{"name":"G5","midi":79,"time":573.1158854166332,"velocity":0.84251968503937,"duration":0.26041666666662877},{"name":"A#4","midi":70,"time":573.1158854166332,"velocity":0.84251968503937,"duration":1.0416666666664014},{"name":"F4","midi":65,"time":573.3789062499665,"velocity":0.84251968503937,"duration":0.26041666666662877},{"name":"F5","midi":77,"time":573.3789062499665,"velocity":0.84251968503937,"duration":0.26041666666662877},{"name":"G4","midi":67,"time":573.6419270832997,"velocity":0.84251968503937,"duration":0.7669270833331439},{"name":"E5","midi":76,"time":573.6419270832997,"velocity":0.84251968503937,"duration":0.26041666666662877},{"name":"D5","midi":74,"time":573.904947916633,"velocity":0.84251968503937,"duration":0.26041666666662877},{"name":"A3","midi":57,"time":574.1679687499662,"velocity":0.84251968503937,"duration":2.1015624999994316},{"name":"C#5","midi":73,"time":574.1679687499662,"velocity":0.84251968503937,"duration":1.312499999999659},{"name":"E4","midi":64,"time":574.4309895832995,"velocity":0.84251968503937,"duration":0.26041666666662877},{"name":"C#4","midi":61,"time":574.6940104166328,"velocity":0.84251968503937,"duration":0.26041666666662877},{"name":"E4","midi":64,"time":574.957031249966,"velocity":0.84251968503937,"duration":0.26041666666662877},{"name":"G4","midi":67,"time":575.2200520832993,"velocity":0.84251968503937,"duration":0.7864583333331439},{"name":"A#4","midi":70,"time":575.4830729166325,"velocity":0.84251968503937,"duration":0.26041666666662877},{"name":"A4","midi":69,"time":575.7460937499658,"velocity":0.84251968503937,"duration":0.5208333333332575},{"name":"G4","midi":67,"time":576.009114583299,"velocity":0.84251968503937,"duration":0.26041666666662877},{"name":"C#5","midi":73,"time":576.009114583299,"velocity":0.84251968503937,"duration":0.26041666666662877},{"name":"F4","midi":65,"time":576.2721354166323,"velocity":0.84251968503937,"duration":1.312499999999659},{"name":"A#3","midi":58,"time":576.2721354166323,"velocity":0.84251968503937,"duration":2.1015624999994316},{"name":"D5","midi":74,"time":576.2721354166323,"velocity":0.84251968503937,"duration":0.26041666666662877},{"name":"C5","midi":72,"time":576.5351562499656,"velocity":0.84251968503937,"duration":0.26041666666662877},{"name":"A#4","midi":70,"time":576.7981770832988,"velocity":0.84251968503937,"duration":0.26041666666662877},{"name":"A4","midi":69,"time":577.0611979166321,"velocity":0.84251968503937,"duration":0.26041666666662877},{"name":"G4","midi":67,"time":577.3242187499653,"velocity":0.84251968503937,"duration":0.7864583333331439},{"name":"F4","midi":65,"time":577.5872395832986,"velocity":0.84251968503937,"duration":0.26041666666662877},{"name":"E4","midi":64,"time":577.8502604166318,"velocity":0.84251968503937,"duration":0.26041666666662877},{"name":"D4","midi":62,"time":578.1132812499651,"velocity":0.84251968503937,"duration":0.26041666666662877},{"name":"G4","midi":67,"time":578.1132812499651,"velocity":0.84251968503937,"duration":0.7669270833332575},{"name":"C#4","midi":61,"time":578.3763020832984,"velocity":0.84251968503937,"duration":0.5208333333333712},{"name":"E5","midi":76,"time":578.3763020832984,"velocity":0.84251968503937,"duration":0.7864583333332575},{"name":"A#3","midi":58,"time":578.6393229166317,"velocity":0.84251968503937,"duration":0.26041666666662877},{"name":"A3","midi":57,"time":578.902343749965,"velocity":0.84251968503937,"duration":0.26041666666662877},{"name":"G3","midi":55,"time":579.1653645832982,"velocity":0.84251968503937,"duration":0.26041666666662877},{"name":"A#4","midi":70,"time":579.1653645832982,"velocity":0.84251968503937,"duration":0.26041666666662877},{"name":"F3","midi":53,"time":579.4283854166315,"velocity":0.84251968503937,"duration":0.26041666666662877},{"name":"A4","midi":69,"time":579.4283854166315,"velocity":0.84251968503937,"duration":0.26041666666662877},{"name":"E3","midi":52,"time":579.6914062499648,"velocity":0.84251968503937,"duration":0.26041666666662877},{"name":"G4","midi":67,"time":579.6914062499648,"velocity":0.84251968503937,"duration":0.26041666666662877},{"name":"D3","midi":50,"time":579.954427083298,"velocity":0.84251968503937,"duration":0.26041666666662877},{"name":"F4","midi":65,"time":579.954427083298,"velocity":0.84251968503937,"duration":0.26041666666662877},{"name":"C#3","midi":49,"time":580.2174479166313,"velocity":0.84251968503937,"duration":0.26041666666662877},{"name":"E4","midi":64,"time":580.2174479166313,"velocity":0.84251968503937,"duration":0.26041666666662877},{"name":"D3","midi":50,"time":580.4804687499645,"velocity":0.84251968503937,"duration":0.5234375},{"name":"F4","midi":65,"time":580.4804687499645,"velocity":0.84251968503937,"duration":1.041666666666515},{"name":"A4","midi":69,"time":580.7434895832979,"velocity":0.84251968503937,"duration":0.26041666666662877},{"name":"G3","midi":55,"time":581.0065104166312,"velocity":0.84251968503937,"duration":0.5234374999998863},{"name":"A#4","midi":70,"time":581.0065104166312,"velocity":0.84251968503937,"duration":0.5208333333332575},{"name":"C#5","midi":73,"time":581.0065104166312,"velocity":0.84251968503937,"duration":0.26041666666662877},{"name":"D5","midi":74,"time":581.2695312499644,"velocity":0.84251968503937,"duration":0.26041666666662877},{"name":"A3","midi":57,"time":581.5325520832977,"velocity":0.84251968503937,"duration":0.5221354166667425},{"name":"C#4","midi":61,"time":581.5325520832977,"velocity":0.84251968503937,"duration":1.0260416666666288},{"name":"F4","midi":65,"time":581.5325520832977,"velocity":0.84251968503937,"duration":0.17317708333337123},{"name":"E4","midi":64,"time":581.7083333332977,"velocity":0.84251968503937,"duration":0.09505208333337123},{"name":"F4","midi":65,"time":581.795572916631,"velocity":0.84251968503937,"duration":0.09505208333337123},{"name":"E4","midi":64,"time":581.8828124999644,"velocity":0.84251968503937,"duration":0.09505208333337123},{"name":"F4","midi":65,"time":581.9700520832978,"velocity":0.84251968503937,"duration":0.09505208333325754},{"name":"A2","midi":45,"time":582.057291666631,"velocity":0.84251968503937,"duration":0.5234374999998863},{"name":"E4","midi":64,"time":582.057291666631,"velocity":0.84251968503937,"duration":0.26041666666662877},{"name":"D4","midi":62,"time":582.3203124999643,"velocity":0.84251968503937,"duration":0.26041666666662877},{"name":"D3","midi":50,"time":582.5833333332976,"velocity":0.84251968503937,"duration":4.532552083332803},{"name":"D4","midi":62,"time":582.5833333332976,"velocity":0.84251968503937,"duration":0.27083333333337123},{"name":"A3","midi":57,"time":582.8567708332976,"velocity":0.84251968503937,"duration":0.13411458333337123},{"name":"F#4","midi":66,"time":582.8567708332976,"velocity":0.84251968503937,"duration":0.13411458333337123},{"name":"A#3","midi":58,"time":582.9934895832976,"velocity":0.84251968503937,"duration":0.13411458333337123},{"name":"G4","midi":67,"time":582.9934895832976,"velocity":0.84251968503937,"duration":0.13411458333337123},{"name":"C4","midi":60,"time":583.1302083332976,"velocity":0.84251968503937,"duration":0.13411458333337123},{"name":"A4","midi":69,"time":583.1302083332976,"velocity":0.84251968503937,"duration":0.13411458333337123},{"name":"A#3","midi":58,"time":583.2669270832976,"velocity":0.84251968503937,"duration":0.13411458333337123},{"name":"G4","midi":67,"time":583.2669270832976,"velocity":0.84251968503937,"duration":0.13411458333337123},{"name":"A3","midi":57,"time":583.4036458332976,"velocity":0.84251968503937,"duration":0.27083333333337123},{"name":"F#4","midi":66,"time":583.4036458332976,"velocity":0.84251968503937,"duration":0.27083333333337123},{"name":"A#3","midi":58,"time":583.6770833332976,"velocity":0.84251968503937,"duration":0.28125},{"name":"G4","midi":67,"time":583.6770833332976,"velocity":0.84251968503937,"duration":0.5611979166665151},{"name":"G3","midi":55,"time":583.9609374999642,"velocity":0.84251968503937,"duration":0.13932291666662877},{"name":"E4","midi":64,"time":583.9609374999642,"velocity":0.84251968503937,"duration":0.8268229166662877},{"name":"A3","midi":57,"time":584.1028645832974,"velocity":0.84251968503937,"duration":0.13802083333325754},{"name":"A#3","midi":58,"time":584.2434895832973,"velocity":0.84251968503937,"duration":0.13932291666662877},{"name":"G4","midi":67,"time":584.2434895832973,"velocity":0.84251968503937,"duration":0.5624999999997726},{"name":"A3","midi":57,"time":584.3854166666306,"velocity":0.84251968503937,"duration":0.13932291666662877},{"name":"G3","midi":55,"time":584.5273437499638,"velocity":0.84251968503937,"duration":0.2812499999998863},{"name":"C#5","midi":73,"time":584.5273437499638,"velocity":0.84251968503937,"duration":0.2812499999998863},{"name":"D5","midi":74,"time":584.8320312499637,"velocity":0.84251968503937,"duration":3.3854166666666288},{"name":"F#4","midi":66,"time":584.8320312499637,"velocity":0.84251968503937,"duration":3.3854166666666288},{"name":"A4","midi":69,"time":584.8320312499637,"velocity":0.84251968503937,"duration":3.3854166666666288},{"name":"A3","midi":57,"time":584.8320312499637,"velocity":0.84251968503937,"duration":1.2265625},{"name":"D2","midi":38,"time":586.0611979166304,"velocity":0.84251968503937,"duration":2.390625},{"name":"D5","midi":74,"time":589.388020833297,"velocity":0.84251968503937,"duration":0.26822916666662877},{"name":"F4","midi":65,"time":589.7070312499636,"velocity":0.84251968503937,"duration":0.69140625},{"name":"A4","midi":69,"time":589.7070312499636,"velocity":0.84251968503937,"duration":0.69140625},{"name":"D5","midi":74,"time":589.7070312499636,"velocity":0.84251968503937,"duration":0.7421875},{"name":"D4","midi":62,"time":589.7070312499636,"velocity":0.84251968503937,"duration":0.46744791666662877},{"name":"D3","midi":50,"time":589.9479166666302,"velocity":0.84251968503937,"duration":0.23177083333337123},{"name":"E3","midi":52,"time":590.188802083297,"velocity":0.84251968503937,"duration":0.23177083333325754},{"name":"C5","midi":72,"time":590.4296874999636,"velocity":0.84251968503937,"duration":0.23177083333337123},{"name":"F3","midi":53,"time":590.4296874999636,"velocity":0.84251968503937,"duration":0.23177083333337123},{"name":"A#4","midi":70,"time":590.6705729166304,"velocity":0.84251968503937,"duration":0.23177083333337123},{"name":"G3","midi":55,"time":590.6705729166304,"velocity":0.84251968503937,"duration":0.23177083333337123},{"name":"A4","midi":69,"time":590.9114583332971,"velocity":0.84251968503937,"duration":0.23177083333337123},{"name":"F#3","midi":54,"time":590.9114583332971,"velocity":0.84251968503937,"duration":0.23177083333337123},{"name":"G3","midi":55,"time":591.1536458332971,"velocity":0.84251968503937,"duration":0.23177083333337123},{"name":"A#4","midi":70,"time":591.1536458332971,"velocity":0.84251968503937,"duration":0.4726562500001137},{"name":"A3","midi":57,"time":591.3945312499638,"velocity":0.84251968503937,"duration":0.23177083333337123},{"name":"A#3","midi":58,"time":591.6341145832972,"velocity":0.84251968503937,"duration":0.23177083333337123},{"name":"A4","midi":69,"time":591.6341145832972,"velocity":0.84251968503937,"duration":0.08203125},{"name":"G4","midi":67,"time":591.7148437499638,"velocity":0.84251968503937,"duration":0.08203125000011369},{"name":"A4","midi":69,"time":591.7955729166306,"velocity":0.84251968503937,"duration":0.08203125},{"name":"G3","midi":55,"time":591.874999999964,"velocity":0.84251968503937,"duration":0.23177083333325754},{"name":"G4","midi":67,"time":591.874999999964,"velocity":0.84251968503937,"duration":0.44791666666662877},{"name":"A3","midi":57,"time":592.1158854166306,"velocity":0.84251968503937,"duration":0.23177083333337123},{"name":"A#3","midi":58,"time":592.3567708332973,"velocity":0.84251968503937,"duration":0.23177083333337123},{"name":"G4","midi":67,"time":592.3567708332973,"velocity":0.84251968503937,"duration":0.23177083333337123},{"name":"C#3","midi":49,"time":592.5976562499641,"velocity":0.84251968503937,"duration":0.23177083333337123},{"name":"E5","midi":76,"time":592.5976562499641,"velocity":0.84251968503937,"duration":0.7135416666668561},{"name":"A3","midi":57,"time":592.8385416666308,"velocity":0.84251968503937,"duration":0.23177083333337123},{"name":"F3","midi":53,"time":593.0781249999642,"velocity":0.84251968503937,"duration":0.23177083333337123},{"name":"D3","midi":50,"time":593.3190104166309,"velocity":0.84251968503937,"duration":0.23177083333337123},{"name":"F5","midi":77,"time":593.3190104166309,"velocity":0.84251968503937,"duration":0.23177083333337123},{"name":"G3","midi":55,"time":593.5598958332977,"velocity":0.84251968503937,"duration":0.4726562500001137},{"name":"F5","midi":77,"time":593.5598958332977,"velocity":0.84251968503937,"duration":0.23177083333337123},{"name":"E5","midi":76,"time":593.8007812499644,"velocity":0.84251968503937,"duration":0.23177083333337123},{"name":"G2","midi":43,"time":594.0416666666312,"velocity":0.84251968503937,"duration":0.23177083333337123},{"name":"D5","midi":74,"time":594.0416666666312,"velocity":0.84251968503937,"duration":0.23177083333337123},{"name":"A2","midi":45,"time":594.2825520832979,"velocity":0.84251968503937,"duration":0.23177083333337123},{"name":"C#5","midi":73,"time":594.2825520832979,"velocity":0.84251968503937,"duration":0.23177083333337123},{"name":"A#2","midi":46,"time":594.5221354166313,"velocity":0.84251968503937,"duration":0.23046875},{"name":"D5","midi":74,"time":594.5221354166313,"velocity":0.84251968503937,"duration":0.11328125},{"name":"C#5","midi":73,"time":594.6419270832979,"velocity":0.84251968503937,"duration":0.11328125},{"name":"A2","midi":45,"time":594.7617187499645,"velocity":0.84251968503937,"duration":0.23177083333337123},{"name":"D5","midi":74,"time":594.7617187499645,"velocity":0.84251968503937,"duration":0.47005208333337123},{"name":"A#2","midi":46,"time":595.0026041666313,"velocity":0.84251968503937,"duration":0.23177083333325754},{"name":"G2","midi":43,"time":595.2434895832979,"velocity":0.84251968503937,"duration":0.23177083333337123},{"name":"E5","midi":76,"time":595.2434895832979,"velocity":0.84251968503937,"duration":0.23177083333337123},{"name":"A2","midi":45,"time":595.4843749999646,"velocity":0.84251968503937,"duration":0.23177083333337123},{"name":"D5","midi":74,"time":595.4843749999646,"velocity":0.84251968503937,"duration":0.23177083333337123},{"name":"A3","midi":57,"time":595.7252604166314,"velocity":0.84251968503937,"duration":0.23177083333337123},{"name":"C#5","midi":73,"time":595.7252604166314,"velocity":0.84251968503937,"duration":0.23177083333337123},{"name":"G3","midi":55,"time":595.9648437499648,"velocity":0.84251968503937,"duration":0.23177083333337123},{"name":"B4","midi":71,"time":595.9648437499648,"velocity":0.84251968503937,"duration":0.23177083333337123},{"name":"E3","midi":52,"time":596.2057291666315,"velocity":0.84251968503937,"duration":0.23177083333337123},{"name":"A4","midi":69,"time":596.2057291666315,"velocity":0.84251968503937,"duration":0.23177083333337123},{"name":"F3","midi":53,"time":596.4466145832982,"velocity":0.84251968503937,"duration":0.23177083333337123},{"name":"B4","midi":71,"time":596.4466145832982,"velocity":0.84251968503937,"duration":0.23177083333337123},{"name":"E3","midi":52,"time":596.687499999965,"velocity":0.84251968503937,"duration":0.23177083333337123},{"name":"C#5","midi":73,"time":596.687499999965,"velocity":0.84251968503937,"duration":0.23177083333337123},{"name":"F3","midi":53,"time":596.9283854166317,"velocity":0.84251968503937,"duration":0.23177083333337123},{"name":"D5","midi":74,"time":596.9283854166317,"velocity":0.84251968503937,"duration":0.23177083333337123},{"name":"D3","midi":50,"time":597.1692708332985,"velocity":0.84251968503937,"duration":0.23177083333337123},{"name":"E5","midi":76,"time":597.1692708332985,"velocity":0.84251968503937,"duration":0.23177083333337123},{"name":"C#3","midi":49,"time":597.4088541666318,"velocity":0.84251968503937,"duration":0.23046875},{"name":"F5","midi":77,"time":597.4088541666318,"velocity":0.84251968503937,"duration":0.19140625},{"name":"E5","midi":76,"time":597.6041666666318,"velocity":0.84251968503937,"duration":0.11067708333337123},{"name":"E3","midi":52,"time":597.6484374999652,"velocity":0.84251968503937,"duration":0.23046875},{"name":"F5","midi":77,"time":597.6992187499652,"velocity":0.84251968503937,"duration":0.11067708333337123},{"name":"E5","midi":76,"time":597.7929687499652,"velocity":0.84251968503937,"duration":0.11067708333337123},{"name":"A2","midi":45,"time":597.8880208332986,"velocity":0.84251968503937,"duration":0.2304687500001137},{"name":"F5","midi":77,"time":597.8880208332986,"velocity":0.84251968503937,"duration":0.11067708333337123},{"name":"E5","midi":76,"time":598.0078124999653,"velocity":0.84251968503937,"duration":0.11067708333337123},{"name":"C#3","midi":49,"time":598.1276041666321,"velocity":0.84251968503937,"duration":0.2304687500001137},{"name":"D5","midi":74,"time":598.1276041666321,"velocity":0.84251968503937,"duration":0.11067708333337123},{"name":"E5","midi":76,"time":598.2473958332988,"velocity":0.84251968503937,"duration":0.11067708333337123},{"name":"D3","midi":50,"time":598.3671874999656,"velocity":0.84251968503937,"duration":0.23177083333337123},{"name":"F5","midi":77,"time":598.3671874999656,"velocity":0.84251968503937,"duration":0.7135416666668561},{"name":"C#3","midi":49,"time":598.6067708332989,"velocity":0.84251968503937,"duration":0.23177083333337123},{"name":"D3","midi":50,"time":598.8476562499657,"velocity":0.84251968503937,"duration":0.23177083333337123},{"name":"E3","midi":52,"time":599.0885416666324,"velocity":0.84251968503937,"duration":0.23177083333337123},{"name":"E5","midi":76,"time":599.0885416666324,"velocity":0.84251968503937,"duration":0.23177083333337123},{"name":"F3","midi":53,"time":599.3294270832992,"velocity":0.84251968503937,"duration":0.23177083333337123},{"name":"D5","midi":74,"time":599.3294270832992,"velocity":0.84251968503937,"duration":0.4726562500001137},{"name":"G3","midi":55,"time":599.5703124999659,"velocity":0.84251968503937,"duration":0.23177083333337123},{"name":"E3","midi":52,"time":599.8111979166326,"velocity":0.84251968503937,"duration":0.23177083333337123},{"name":"C5","midi":72,"time":599.8111979166326,"velocity":0.84251968503937,"duration":0.4726562500001137},{"name":"G3","midi":55,"time":600.050781249966,"velocity":0.84251968503937,"duration":0.23177083333337123},{"name":"F#3","midi":54,"time":600.2916666666328,"velocity":0.84251968503937,"duration":0.23177083333337123},{"name":"C5","midi":72,"time":600.2916666666328,"velocity":0.84251968503937,"duration":0.23177083333337123},{"name":"D3","midi":50,"time":600.5325520832995,"velocity":0.84251968503937,"duration":0.23177083333337123},{"name":"A#4","midi":70,"time":600.5325520832995,"velocity":0.84251968503937,"duration":0.23177083333337123},{"name":"E3","midi":52,"time":600.7734374999662,"velocity":0.84251968503937,"duration":0.23177083333337123},{"name":"C5","midi":72,"time":600.7734374999662,"velocity":0.84251968503937,"duration":0.23177083333337123},{"name":"F#3","midi":54,"time":601.014322916633,"velocity":0.84251968503937,"duration":0.23177083333337123},{"name":"A4","midi":69,"time":601.014322916633,"velocity":0.84251968503937,"duration":0.23177083333337123},{"name":"G3","midi":55,"time":601.2552083332997,"velocity":0.84251968503937,"duration":0.2304687500001137},{"name":"A#4","midi":70,"time":601.2552083332997,"velocity":0.84251968503937,"duration":0.11067708333337123},{"name":"A4","midi":69,"time":601.3749999999665,"velocity":0.84251968503937,"duration":0.11067708333337123},{"name":"F#3","midi":54,"time":601.4934895832998,"velocity":0.84251968503937,"duration":0.23177083333337123},{"name":"A#4","midi":70,"time":601.4934895832998,"velocity":0.84251968503937,"duration":0.47005208333337123},{"name":"G3","midi":55,"time":601.7343749999666,"velocity":0.84251968503937,"duration":0.23177083333325754},{"name":"A3","midi":57,"time":601.9752604166332,"velocity":0.84251968503937,"duration":0.23177083333337123},{"name":"A4","midi":69,"time":601.9752604166332,"velocity":0.84251968503937,"duration":0.23177083333337123},{"name":"A#3","midi":58,"time":602.2161458333,"velocity":0.84251968503937,"duration":0.23177083333337123},{"name":"G4","midi":67,"time":602.2161458333,"velocity":0.84251968503937,"duration":0.4726562500001137},{"name":"C4","midi":60,"time":602.4570312499667,"velocity":0.84251968503937,"duration":0.23177083333337123},{"name":"D4","midi":62,"time":602.6979166666334,"velocity":0.84251968503937,"duration":0.23177083333337123},{"name":"F4","midi":65,"time":602.6979166666334,"velocity":0.84251968503937,"duration":0.23177083333337123},{"name":"C4","midi":60,"time":602.9374999999668,"velocity":0.84251968503937,"duration":0.23177083333337123},{"name":"E4","midi":64,"time":602.9374999999668,"velocity":0.84251968503937,"duration":0.23177083333337123},{"name":"B3","midi":59,"time":603.1783854166335,"velocity":0.84251968503937,"duration":0.23177083333337123},{"name":"F4","midi":65,"time":603.1783854166335,"velocity":0.84251968503937,"duration":0.23177083333337123},{"name":"A3","midi":57,"time":603.4192708333003,"velocity":0.84251968503937,"duration":0.23177083333337123},{"name":"A4","midi":69,"time":603.4192708333003,"velocity":0.84251968503937,"duration":0.23177083333337123},{"name":"B3","midi":59,"time":603.660156249967,"velocity":0.84251968503937,"duration":0.23177083333337123},{"name":"G4","midi":67,"time":603.660156249967,"velocity":0.84251968503937,"duration":0.23177083333337123},{"name":"G3","midi":55,"time":603.9010416666338,"velocity":0.84251968503937,"duration":0.23177083333337123},{"name":"F4","midi":65,"time":603.9010416666338,"velocity":0.84251968503937,"duration":0.23177083333337123},{"name":"C4","midi":60,"time":604.1419270833005,"velocity":0.84251968503937,"duration":0.23177083333337123},{"name":"E4","midi":64,"time":604.1419270833005,"velocity":0.84251968503937,"duration":0.7135416666668561},{"name":"D4","midi":62,"time":604.3815104166339,"velocity":0.84251968503937,"duration":0.23177083333337123},{"name":"C4","midi":60,"time":604.6223958333006,"velocity":0.84251968503937,"duration":0.23177083333337123},{"name":"A#3","midi":58,"time":604.8632812499674,"velocity":0.84251968503937,"duration":0.23177083333337123},{"name":"D4","midi":62,"time":604.8632812499674,"velocity":0.84251968503937,"duration":0.23177083333337123},{"name":"A3","midi":57,"time":605.1041666666341,"velocity":0.84251968503937,"duration":0.23177083333337123},{"name":"C4","midi":60,"time":605.1041666666341,"velocity":0.84251968503937,"duration":0.4296875000001137},{"name":"G3","midi":55,"time":605.3450520833009,"velocity":0.84251968503937,"duration":0.23177083333337123},{"name":"F3","midi":53,"time":605.5859374999676,"velocity":0.84251968503937,"duration":0.23177083333337123},{"name":"C5","midi":72,"time":605.5859374999676,"velocity":0.84251968503937,"duration":0.4726562500001137},{"name":"E3","midi":52,"time":605.825520833301,"velocity":0.84251968503937,"duration":0.23177083333337123},{"name":"F3","midi":53,"time":606.0664062499677,"velocity":0.84251968503937,"duration":0.4726562500001137},{"name":"A#4","midi":70,"time":606.0664062499677,"velocity":0.84251968503937,"duration":0.23177083333337123},{"name":"A4","midi":69,"time":606.3072916666345,"velocity":0.84251968503937,"duration":0.23177083333337123},{"name":"G3","midi":55,"time":606.5481770833012,"velocity":0.84251968503937,"duration":0.23177083333337123},{"name":"G4","midi":67,"time":606.5481770833012,"velocity":0.84251968503937,"duration":0.23177083333337123},{"name":"A3","midi":57,"time":606.7890624999679,"velocity":0.84251968503937,"duration":0.23177083333337123},{"name":"F4","midi":65,"time":606.7890624999679,"velocity":0.84251968503937,"duration":0.23177083333337123},{"name":"A#3","midi":58,"time":607.0299479166347,"velocity":0.84251968503937,"duration":0.2304687500001137},{"name":"D5","midi":74,"time":607.0299479166347,"velocity":0.84251968503937,"duration":0.11067708333337123},{"name":"C5","midi":72,"time":607.148437499968,"velocity":0.84251968503937,"duration":0.11067708333337123},{"name":"F3","midi":53,"time":607.2682291666348,"velocity":0.84251968503937,"duration":0.23177083333337123},{"name":"D5","midi":74,"time":607.2682291666348,"velocity":0.84251968503937,"duration":0.47005208333337123},{"name":"D3","midi":50,"time":607.5091145833015,"velocity":0.84251968503937,"duration":0.23177083333325754},{"name":"F3","midi":53,"time":607.7499999999682,"velocity":0.84251968503937,"duration":0.23177083333337123},{"name":"D#5","midi":75,"time":607.7499999999682,"velocity":0.84251968503937,"duration":0.23177083333337123},{"name":"A#2","midi":46,"time":607.9908854166349,"velocity":0.84251968503937,"duration":0.23177083333337123},{"name":"D5","midi":74,"time":607.9908854166349,"velocity":0.84251968503937,"duration":0.4726562500001137},{"name":"C3","midi":48,"time":608.2317708333017,"velocity":0.84251968503937,"duration":0.23177083333337123},{"name":"D3","midi":50,"time":608.4726562499684,"velocity":0.84251968503937,"duration":0.23177083333337123},{"name":"C5","midi":72,"time":608.4726562499684,"velocity":0.84251968503937,"duration":0.23177083333337123},{"name":"E3","midi":52,"time":608.7122395833018,"velocity":0.84251968503937,"duration":0.23177083333337123},{"name":"A#4","midi":70,"time":608.7122395833018,"velocity":0.84251968503937,"duration":0.23177083333337123},{"name":"F3","midi":53,"time":608.9531249999685,"velocity":0.84251968503937,"duration":0.23177083333337123},{"name":"A4","midi":69,"time":608.9531249999685,"velocity":0.84251968503937,"duration":0.23177083333337123},{"name":"G3","midi":55,"time":609.1940104166353,"velocity":0.84251968503937,"duration":0.23177083333337123},{"name":"G4","midi":67,"time":609.1940104166353,"velocity":0.84251968503937,"duration":0.23177083333337123},{"name":"A3","midi":57,"time":609.434895833302,"velocity":0.84251968503937,"duration":0.23177083333337123},{"name":"F5","midi":77,"time":609.434895833302,"velocity":0.84251968503937,"duration":0.41276041666674246},{"name":"A#3","midi":58,"time":609.6757812499687,"velocity":0.84251968503937,"duration":0.23177083333337123},{"name":"C4","midi":60,"time":609.9153645833021,"velocity":0.84251968503937,"duration":0.23177083333337123},{"name":"F5","midi":77,"time":609.9153645833021,"velocity":0.84251968503937,"duration":0.08203125},{"name":"E5","midi":76,"time":609.9960937499687,"velocity":0.84251968503937,"duration":0.08203125000011369},{"name":"F5","midi":77,"time":610.0768229166355,"velocity":0.84251968503937,"duration":0.08203125},{"name":"G3","midi":55,"time":610.1562499999688,"velocity":0.84251968503937,"duration":0.23177083333325754},{"name":"E5","midi":76,"time":610.1562499999688,"velocity":0.84251968503937,"duration":0.47005208333325754},{"name":"C3","midi":48,"time":610.3971354166355,"velocity":0.84251968503937,"duration":0.23177083333325754},{"name":"D3","midi":50,"time":610.6380208333021,"velocity":0.84251968503937,"duration":0.23177083333337123},{"name":"D5","midi":74,"time":610.6380208333021,"velocity":0.84251968503937,"duration":0.23177083333337123},{"name":"E3","midi":52,"time":610.8789062499688,"velocity":0.84251968503937,"duration":0.23177083333337123},{"name":"C5","midi":72,"time":610.8789062499688,"velocity":0.84251968503937,"duration":0.23177083333337123},{"name":"G3","midi":55,"time":611.1197916666356,"velocity":0.84251968503937,"duration":0.23177083333337123},{"name":"A#4","midi":70,"time":611.1197916666356,"velocity":0.84251968503937,"duration":0.23177083333337123},{"name":"F3","midi":53,"time":611.359374999969,"velocity":0.84251968503937,"duration":0.23177083333337123},{"name":"A4","midi":69,"time":611.359374999969,"velocity":0.84251968503937,"duration":0.4726562500001137},{"name":"D#3","midi":51,"time":611.6002604166357,"velocity":0.84251968503937,"duration":0.23177083333337123},{"name":"D3","midi":50,"time":611.8411458333024,"velocity":0.84251968503937,"duration":0.2304687500001137},{"name":"A#4","midi":70,"time":611.8411458333024,"velocity":0.84251968503937,"duration":0.11067708333337123},{"name":"A4","midi":69,"time":611.9609374999692,"velocity":0.84251968503937,"duration":0.11067708333337123},{"name":"C3","midi":48,"time":612.0807291666359,"velocity":0.84251968503937,"duration":0.23177083333337123},{"name":"A#4","midi":70,"time":612.0807291666359,"velocity":0.84251968503937,"duration":0.4726562500001137},{"name":"A#2","midi":46,"time":612.3216145833027,"velocity":0.84251968503937,"duration":0.23177083333337123},{"name":"A2","midi":45,"time":612.5624999999694,"velocity":0.84251968503937,"duration":0.23177083333337123},{"name":"C5","midi":72,"time":612.5624999999694,"velocity":0.84251968503937,"duration":0.23177083333337123},{"name":"G2","midi":43,"time":612.8020833333028,"velocity":0.84251968503937,"duration":0.23177083333337123},{"name":"F4","midi":65,"time":612.8020833333028,"velocity":0.84251968503937,"duration":0.15234375},{"name":"E4","midi":64,"time":612.9635416666362,"velocity":0.84251968503937,"duration":0.08203125},{"name":"F2","midi":41,"time":613.0429687499695,"velocity":0.84251968503937,"duration":0.23177083333325754},{"name":"F4","midi":65,"time":613.0429687499695,"velocity":0.84251968503937,"duration":0.08203125},{"name":"E4","midi":64,"time":613.1236979166362,"velocity":0.84251968503937,"duration":0.08203125},{"name":"F4","midi":65,"time":613.2031249999695,"velocity":0.84251968503937,"duration":0.08203125},{"name":"E2","midi":40,"time":613.2838541666362,"velocity":0.84251968503937,"duration":0.23177083333337123},{"name":"E4","midi":64,"time":613.2838541666362,"velocity":0.84251968503937,"duration":0.23177083333337123},{"name":"D2","midi":38,"time":613.5247395833029,"velocity":0.84251968503937,"duration":0.23177083333337123},{"name":"F4","midi":65,"time":613.5247395833029,"velocity":0.84251968503937,"duration":0.23177083333337123},{"name":"C2","midi":36,"time":613.7656249999696,"velocity":0.84251968503937,"duration":0.4726562500001137},{"name":"G4","midi":67,"time":613.7656249999696,"velocity":0.84251968503937,"duration":0.23177083333337123},{"name":"A#4","midi":70,"time":614.0065104166364,"velocity":0.84251968503937,"duration":0.23177083333337123},{"name":"F2","midi":41,"time":614.2460937499698,"velocity":0.84251968503937,"duration":0.4726562500001137},{"name":"A4","midi":69,"time":614.2460937499698,"velocity":0.84251968503937,"duration":0.23177083333337123},{"name":"G4","midi":67,"time":614.4869791666365,"velocity":0.84251968503937,"duration":0.23177083333337123},{"name":"C3","midi":48,"time":614.7278645833032,"velocity":0.84251968503937,"duration":0.47265625},{"name":"E4","midi":64,"time":614.7278645833032,"velocity":0.84251968503937,"duration":0.9466145833334849},{"name":"A4","midi":69,"time":614.7278645833032,"velocity":0.84251968503937,"duration":0.15234375},{"name":"G4","midi":67,"time":614.8880208333032,"velocity":0.84251968503937,"duration":0.08203125},{"name":"A4","midi":69,"time":614.9687499999699,"velocity":0.84251968503937,"duration":0.08203125000011369},{"name":"G4","midi":67,"time":615.0494791666366,"velocity":0.84251968503937,"duration":0.08203125},{"name":"A4","midi":69,"time":615.12890624997,"velocity":0.84251968503937,"duration":0.08203125},{"name":"C2","midi":36,"time":615.2096354166366,"velocity":0.84251968503937,"duration":0.4726562500001137},{"name":"G4","midi":67,"time":615.2096354166366,"velocity":0.84251968503937,"duration":0.23177083333337123},{"name":"F4","midi":65,"time":615.4505208333034,"velocity":0.84251968503937,"duration":0.23177083333337123},{"name":"F2","midi":41,"time":615.6901041666367,"velocity":0.84251968503937,"duration":0.47265625},{"name":"A3","midi":57,"time":615.6901041666367,"velocity":0.84251968503937,"duration":0.47005208333337123},{"name":"F4","midi":65,"time":615.6901041666367,"velocity":0.84251968503937,"duration":1.4348958333335986},{"name":"C4","midi":60,"time":615.6901041666367,"velocity":0.84251968503937,"duration":1.4348958333335986},{"name":"A3","midi":57,"time":616.1718749999701,"velocity":0.84251968503937,"duration":0.23177083333337123},{"name":"G3","midi":55,"time":616.4127604166368,"velocity":0.84251968503937,"duration":0.23177083333337123},{"name":"F3","midi":53,"time":616.6536458333036,"velocity":0.84251968503937,"duration":0.23177083333337123},{"name":"E3","midi":52,"time":616.8945312499703,"velocity":0.84251968503937,"duration":0.23177083333337123},{"name":"D3","midi":50,"time":617.1341145833037,"velocity":0.84251968503937,"duration":0.23177083333337123},{"name":"F5","midi":77,"time":617.1341145833037,"velocity":0.84251968503937,"duration":0.4726562500001137},{"name":"D4","midi":62,"time":617.3749999999704,"velocity":0.84251968503937,"duration":0.23177083333337123},{"name":"G3","midi":55,"time":617.6158854166372,"velocity":0.84251968503937,"duration":0.23177083333337123},{"name":"F5","midi":77,"time":617.6158854166372,"velocity":0.84251968503937,"duration":0.23177083333337123},{"name":"A3","midi":57,"time":617.8567708333039,"velocity":0.84251968503937,"duration":0.23177083333337123},{"name":"E5","midi":76,"time":617.8567708333039,"velocity":0.84251968503937,"duration":0.23177083333337123},{"name":"A#3","midi":58,"time":618.0976562499707,"velocity":0.84251968503937,"duration":0.23177083333337123},{"name":"D5","midi":74,"time":618.0976562499707,"velocity":0.84251968503937,"duration":0.23177083333337123},{"name":"A3","midi":57,"time":618.3385416666374,"velocity":0.84251968503937,"duration":0.23177083333337123},{"name":"C#5","midi":73,"time":618.3385416666374,"velocity":0.84251968503937,"duration":0.23177083333337123},{"name":"G3","midi":55,"time":618.5781249999708,"velocity":0.84251968503937,"duration":0.2304687500001137},{"name":"D5","midi":74,"time":618.5781249999708,"velocity":0.84251968503937,"duration":0.11067708333337123},{"name":"C#5","midi":73,"time":618.6979166666375,"velocity":0.84251968503937,"duration":0.11067708333337123},{"name":"F#3","midi":54,"time":618.8177083333043,"velocity":0.84251968503937,"duration":0.23177083333337123},{"name":"D5","midi":74,"time":618.8177083333043,"velocity":0.84251968503937,"duration":0.4726562500001137},{"name":"E3","midi":52,"time":619.058593749971,"velocity":0.84251968503937,"duration":0.23177083333337123},{"name":"D3","midi":50,"time":619.2994791666378,"velocity":0.84251968503937,"duration":0.23177083333337123},{"name":"E5","midi":76,"time":619.2994791666378,"velocity":0.84251968503937,"duration":0.23177083333337123},{"name":"C3","midi":48,"time":619.5403645833045,"velocity":0.84251968503937,"duration":0.23177083333337123},{"name":"D5","midi":74,"time":619.5403645833045,"velocity":0.84251968503937,"duration":0.4726562500001137},{"name":"B2","midi":47,"time":619.7799479166379,"velocity":0.84251968503937,"duration":0.23177083333337123},{"name":"A2","midi":45,"time":620.0208333333046,"velocity":0.84251968503937,"duration":0.23177083333337123},{"name":"C5","midi":72,"time":620.0208333333046,"velocity":0.84251968503937,"duration":0.23177083333337123},{"name":"G2","midi":43,"time":620.2617187499714,"velocity":0.84251968503937,"duration":0.23177083333337123},{"name":"B4","midi":71,"time":620.2617187499714,"velocity":0.84251968503937,"duration":0.23177083333337123},{"name":"A2","midi":45,"time":620.5026041666381,"velocity":0.84251968503937,"duration":0.23177083333337123},{"name":"C5","midi":72,"time":620.5026041666381,"velocity":0.84251968503937,"duration":0.23177083333337123},{"name":"C3","midi":48,"time":620.7434895833048,"velocity":0.84251968503937,"duration":0.23177083333337123},{"name":"E5","midi":76,"time":620.7434895833048,"velocity":0.84251968503937,"duration":0.23177083333337123},{"name":"B2","midi":47,"time":620.9843749999716,"velocity":0.84251968503937,"duration":0.23177083333337123},{"name":"D5","midi":74,"time":620.9843749999716,"velocity":0.84251968503937,"duration":0.42057291666674246},{"name":"D3","midi":50,"time":621.223958333305,"velocity":0.84251968503937,"duration":0.23177083333337123},{"name":"C3","midi":48,"time":621.4648437499717,"velocity":0.84251968503937,"duration":0.2304687500001137},{"name":"E5","midi":76,"time":621.4648437499717,"velocity":0.84251968503937,"duration":0.11067708333337123},{"name":"D5","midi":74,"time":621.5846354166384,"velocity":0.84251968503937,"duration":0.11067708333337123},{"name":"E3","midi":52,"time":621.7044270833052,"velocity":0.84251968503937,"duration":0.23177083333337123},{"name":"E5","midi":76,"time":621.7044270833052,"velocity":0.84251968503937,"duration":0.4726562500001137},{"name":"D3","midi":50,"time":621.9453124999719,"velocity":0.84251968503937,"duration":0.23177083333337123},{"name":"C3","midi":48,"time":622.1861979166387,"velocity":0.84251968503937,"duration":0.23177083333337123},{"name":"E4","midi":64,"time":622.1861979166387,"velocity":0.84251968503937,"duration":0.23177083333337123},{"name":"B2","midi":47,"time":622.4270833333054,"velocity":0.84251968503937,"duration":0.23177083333337123},{"name":"G4","midi":67,"time":622.4270833333054,"velocity":0.84251968503937,"duration":0.23177083333337123},{"name":"A2","midi":45,"time":622.6666666666388,"velocity":0.84251968503937,"duration":0.23177083333337123},{"name":"F#4","midi":66,"time":622.6666666666388,"velocity":0.84251968503937,"duration":0.23177083333337123},{"name":"B2","midi":47,"time":622.9075520833055,"velocity":0.84251968503937,"duration":0.23177083333337123},{"name":"A4","midi":69,"time":622.9075520833055,"velocity":0.84251968503937,"duration":0.4726562500001137},{"name":"C3","midi":48,"time":623.1484374999723,"velocity":0.84251968503937,"duration":0.23177083333337123},{"name":"D3","midi":50,"time":623.389322916639,"velocity":0.84251968503937,"duration":0.2304687500001137},{"name":"A4","midi":69,"time":623.389322916639,"velocity":0.84251968503937,"duration":0.11067708333337123},{"name":"G#4","midi":68,"time":623.5091145833057,"velocity":0.84251968503937,"duration":0.11067708333337123},{"name":"E3","midi":52,"time":623.6289062499725,"velocity":0.84251968503937,"duration":0.2304687500001137},{"name":"A4","midi":69,"time":623.6289062499725,"velocity":0.84251968503937,"duration":0.11067708333337123},{"name":"G#4","midi":68,"time":623.7486979166392,"velocity":0.84251968503937,"duration":0.11067708333337123},{"name":"F3","midi":53,"time":623.868489583306,"velocity":0.84251968503937,"duration":0.2304687500001137},{"name":"A4","midi":69,"time":623.868489583306,"velocity":0.84251968503937,"duration":0.11067708333337123},{"name":"G#4","midi":68,"time":623.9869791666393,"velocity":0.84251968503937,"duration":0.11067708333337123},{"name":"E3","midi":52,"time":624.1067708333061,"velocity":0.84251968503937,"duration":0.2304687500001137},{"name":"A4","midi":69,"time":624.1067708333061,"velocity":0.84251968503937,"duration":0.11067708333337123},{"name":"B4","midi":71,"time":624.2265624999728,"velocity":0.84251968503937,"duration":0.11067708333337123},{"name":"D3","midi":50,"time":624.3463541666396,"velocity":0.84251968503937,"duration":0.2304687500001137},{"name":"C5","midi":72,"time":624.3463541666396,"velocity":0.84251968503937,"duration":0.11067708333337123},{"name":"B4","midi":71,"time":624.4661458333063,"velocity":0.84251968503937,"duration":0.11067708333337123},{"name":"C3","midi":48,"time":624.585937499973,"velocity":0.84251968503937,"duration":0.2304687500001137},{"name":"C5","midi":72,"time":624.585937499973,"velocity":0.84251968503937,"duration":0.11067708333337123},{"name":"B4","midi":71,"time":624.7057291666398,"velocity":0.84251968503937,"duration":0.11067708333337123},{"name":"D3","midi":50,"time":624.8255208333065,"velocity":0.84251968503937,"duration":0.2304687500001137},{"name":"C5","midi":72,"time":624.8255208333065,"velocity":0.84251968503937,"duration":0.11067708333337123},{"name":"B4","midi":71,"time":624.9453124999733,"velocity":0.84251968503937,"duration":0.11067708333337123},{"name":"E3","midi":52,"time":625.06510416664,"velocity":0.84251968503937,"duration":0.2304687500001137},{"name":"A4","midi":69,"time":625.06510416664,"velocity":0.84251968503937,"duration":0.11067708333337123},{"name":"B4","midi":71,"time":625.1848958333068,"velocity":0.84251968503937,"duration":0.11067708333337123},{"name":"A2","midi":45,"time":625.3033854166401,"velocity":0.84251968503937,"duration":0.23177083333337123},{"name":"C5","midi":72,"time":625.3033854166401,"velocity":0.84251968503937,"duration":0.23177083333337123},{"name":"E3","midi":52,"time":625.5442708333069,"velocity":0.84251968503937,"duration":0.23177083333337123},{"name":"B4","midi":71,"time":625.5442708333069,"velocity":0.84251968503937,"duration":0.23177083333337123},{"name":"F3","midi":53,"time":625.7851562499736,"velocity":0.84251968503937,"duration":0.23177083333337123},{"name":"D5","midi":74,"time":625.7851562499736,"velocity":0.84251968503937,"duration":0.35416666666674246},{"name":"G3","midi":55,"time":626.0260416666404,"velocity":0.84251968503937,"duration":0.23046875},{"name":"A3","midi":57,"time":626.2656249999737,"velocity":0.84251968503937,"duration":0.2304687500001137},{"name":"D5","midi":74,"time":626.2656249999737,"velocity":0.84251968503937,"duration":0.11067708333337123},{"name":"C#5","midi":73,"time":626.3854166666405,"velocity":0.84251968503937,"duration":0.11067708333337123},{"name":"G3","midi":55,"time":626.5052083333072,"velocity":0.84251968503937,"duration":0.2304687500001137},{"name":"D5","midi":74,"time":626.5052083333072,"velocity":0.84251968503937,"duration":0.11067708333337123},{"name":"C#5","midi":73,"time":626.624999999974,"velocity":0.84251968503937,"duration":0.11067708333337123},{"name":"A#3","midi":58,"time":626.7434895833073,"velocity":0.84251968503937,"duration":0.2304687500001137},{"name":"D5","midi":74,"time":626.7434895833073,"velocity":0.84251968503937,"duration":0.11067708333337123},{"name":"C#5","midi":73,"time":626.8632812499741,"velocity":0.84251968503937,"duration":0.11067708333337123},{"name":"A3","midi":57,"time":626.9830729166408,"velocity":0.84251968503937,"duration":0.2304687500001137},{"name":"D5","midi":74,"time":626.9830729166408,"velocity":0.84251968503937,"duration":0.11067708333337123},{"name":"E5","midi":76,"time":627.1028645833076,"velocity":0.84251968503937,"duration":0.11067708333337123},{"name":"G3","midi":55,"time":627.2226562499743,"velocity":0.84251968503937,"duration":0.2304687500001137},{"name":"F5","midi":77,"time":627.2226562499743,"velocity":0.84251968503937,"duration":0.11067708333337123},{"name":"E5","midi":76,"time":627.342447916641,"velocity":0.84251968503937,"duration":0.11067708333337123},{"name":"F3","midi":53,"time":627.4622395833078,"velocity":0.84251968503937,"duration":0.2304687500001137},{"name":"F5","midi":77,"time":627.4622395833078,"velocity":0.84251968503937,"duration":0.11067708333337123},{"name":"E5","midi":76,"time":627.5820312499745,"velocity":0.84251968503937,"duration":0.11067708333337123},{"name":"G3","midi":55,"time":627.7018229166413,"velocity":0.84251968503937,"duration":0.2304687500001137},{"name":"F5","midi":77,"time":627.7018229166413,"velocity":0.84251968503937,"duration":0.11067708333337123},{"name":"E5","midi":76,"time":627.821614583308,"velocity":0.84251968503937,"duration":0.11067708333337123},{"name":"A3","midi":57,"time":627.9414062499748,"velocity":0.84251968503937,"duration":0.2304687500001137},{"name":"D5","midi":74,"time":627.9414062499748,"velocity":0.84251968503937,"duration":0.11067708333337123},{"name":"E5","midi":76,"time":628.0598958333081,"velocity":0.84251968503937,"duration":0.11067708333337123},{"name":"D3","midi":50,"time":628.1796874999749,"velocity":0.84251968503937,"duration":0.23177083333337123},{"name":"F5","midi":77,"time":628.1796874999749,"velocity":0.84251968503937,"duration":0.23177083333337123},{"name":"A3","midi":57,"time":628.4205729166416,"velocity":0.84251968503937,"duration":0.23177083333337123},{"name":"E5","midi":76,"time":628.4205729166416,"velocity":0.84251968503937,"duration":0.23177083333337123},{"name":"B3","midi":59,"time":628.6614583333084,"velocity":0.84251968503937,"duration":0.23177083333337123},{"name":"G5","midi":79,"time":628.6614583333084,"velocity":0.84251968503937,"duration":0.35416666666674246},{"name":"C4","midi":60,"time":628.9023437499751,"velocity":0.84251968503937,"duration":0.23046875},{"name":"D4","midi":62,"time":629.1419270833085,"velocity":0.84251968503937,"duration":0.2304687500001137},{"name":"G5","midi":79,"time":629.1419270833085,"velocity":0.84251968503937,"duration":0.11067708333337123},{"name":"F#5","midi":78,"time":629.2617187499752,"velocity":0.84251968503937,"duration":0.11067708333337123},{"name":"E4","midi":64,"time":629.3802083333086,"velocity":0.84251968503937,"duration":0.2304687500001137},{"name":"G5","midi":79,"time":629.3802083333086,"velocity":0.84251968503937,"duration":0.11067708333337123},{"name":"F#5","midi":78,"time":629.4999999999753,"velocity":0.84251968503937,"duration":0.11067708333337123},{"name":"C4","midi":60,"time":629.6197916666421,"velocity":0.84251968503937,"duration":0.2304687500001137},{"name":"G5","midi":79,"time":629.6197916666421,"velocity":0.84251968503937,"duration":0.11067708333337123},{"name":"F#5","midi":78,"time":629.7395833333088,"velocity":0.84251968503937,"duration":0.11067708333337123},{"name":"E4","midi":64,"time":629.8593749999756,"velocity":0.84251968503937,"duration":0.2304687500001137},{"name":"G#5","midi":80,"time":629.8593749999756,"velocity":0.84251968503937,"duration":0.11067708333337123},{"name":"A5","midi":81,"time":629.9791666666423,"velocity":0.84251968503937,"duration":0.11067708333337123},{"name":"D4","midi":62,"time":630.098958333309,"velocity":0.84251968503937,"duration":0.2304687500001137},{"name":"A5","midi":81,"time":630.098958333309,"velocity":0.84251968503937,"duration":0.11067708333337123},{"name":"G#5","midi":80,"time":630.2187499999758,"velocity":0.84251968503937,"duration":0.11067708333337123},{"name":"F4","midi":65,"time":630.3385416666425,"velocity":0.84251968503937,"duration":0.2304687500001137},{"name":"A5","midi":81,"time":630.3385416666425,"velocity":0.84251968503937,"duration":0.11067708333337123},{"name":"G#5","midi":80,"time":630.4583333333093,"velocity":0.84251968503937,"duration":0.11067708333337123},{"name":"E4","midi":64,"time":630.578124999976,"velocity":0.84251968503937,"duration":0.2304687500001137},{"name":"A5","midi":81,"time":630.578124999976,"velocity":0.84251968503937,"duration":0.11067708333337123},{"name":"G#5","midi":80,"time":630.6979166666428,"velocity":0.84251968503937,"duration":0.11067708333337123},{"name":"D4","midi":62,"time":630.8164062499761,"velocity":0.84251968503937,"duration":0.2304687500001137},{"name":"F#5","midi":78,"time":630.8164062499761,"velocity":0.84251968503937,"duration":0.11067708333337123},{"name":"G#5","midi":80,"time":630.9361979166429,"velocity":0.84251968503937,"duration":0.11067708333337123},{"name":"C4","midi":60,"time":631.0559895833096,"velocity":0.84251968503937,"duration":0.23177083333337123},{"name":"A5","midi":81,"time":631.0559895833096,"velocity":0.84251968503937,"duration":0.23177083333337123},{"name":"B3","midi":59,"time":631.2968749999764,"velocity":0.84251968503937,"duration":0.23177083333337123},{"name":"D5","midi":74,"time":631.2968749999764,"velocity":0.84251968503937,"duration":0.23177083333337123},{"name":"C4","midi":60,"time":631.5377604166431,"velocity":0.84251968503937,"duration":0.23177083333337123},{"name":"E5","midi":76,"time":631.5377604166431,"velocity":0.84251968503937,"duration":0.23177083333337123},{"name":"D4","midi":62,"time":631.7786458333098,"velocity":0.84251968503937,"duration":0.23177083333337123},{"name":"F5","midi":77,"time":631.7786458333098,"velocity":0.84251968503937,"duration":0.23177083333337123},{"name":"E4","midi":64,"time":632.0195312499766,"velocity":0.84251968503937,"duration":0.4726562500001137},{"name":"C5","midi":72,"time":632.0195312499766,"velocity":0.84251968503937,"duration":0.15234375},{"name":"G#4","midi":68,"time":632.0195312499766,"velocity":0.84251968503937,"duration":0.9466145833333712},{"name":"B4","midi":71,"time":632.1796874999766,"velocity":0.84251968503937,"duration":0.08203125},{"name":"C5","midi":72,"time":632.25911458331,"velocity":0.84251968503937,"duration":0.08203125},{"name":"B4","midi":71,"time":632.3398437499766,"velocity":0.84251968503937,"duration":0.08203125000011369},{"name":"C5","midi":72,"time":632.4205729166433,"velocity":0.84251968503937,"duration":0.08203125},{"name":"E3","midi":52,"time":632.4999999999767,"velocity":0.84251968503937,"duration":0.4726562499998863},{"name":"B4","midi":71,"time":632.4999999999767,"velocity":0.84251968503937,"duration":0.23177083333325754},{"name":"A4","midi":69,"time":632.7408854166433,"velocity":0.84251968503937,"duration":0.23177083333325754},{"name":"A3","midi":57,"time":632.98177083331,"velocity":0.84251968503937,"duration":1.4322916666666288},{"name":"A4","midi":69,"time":632.98177083331,"velocity":0.84251968503937,"duration":2.62109375},{"name":"A2","midi":45,"time":633.46223958331,"velocity":0.84251968503937,"duration":1.9140625},{"name":"E3","midi":52,"time":633.9414062499766,"velocity":0.84251968503937,"duration":0.47265625},{"name":"A3","midi":57,"time":634.42317708331,"velocity":0.84251968503937,"duration":1.43359375},{"name":"C#4","midi":61,"time":634.42317708331,"velocity":0.84251968503937,"duration":1.1940104166666288},{"name":"E4","midi":64,"time":634.42317708331,"velocity":0.84251968503937,"duration":1.1940104166666288},{"name":"E5","midi":76,"time":635.4010416666433,"velocity":0.84251968503937,"duration":0.45572916666662877},{"name":"A2","midi":45,"time":635.8658854166433,"velocity":0.84251968503937,"duration":0.23177083333337123},{"name":"E5","midi":76,"time":635.8658854166433,"velocity":0.84251968503937,"duration":0.7135416666668561},{"name":"C#5","midi":73,"time":635.8658854166433,"velocity":0.84251968503937,"duration":0.7135416666668561},{"name":"A4","midi":69,"time":635.8658854166433,"velocity":0.84251968503937,"duration":0.7135416666668561},{"name":"A3","midi":57,"time":636.1067708333101,"velocity":0.84251968503937,"duration":0.23177083333337123},{"name":"G3","midi":55,"time":636.3463541666434,"velocity":0.84251968503937,"duration":0.23177083333337123},{"name":"F3","midi":53,"time":636.5872395833102,"velocity":0.84251968503937,"duration":0.23177083333337123},{"name":"F5","midi":77,"time":636.5872395833102,"velocity":0.84251968503937,"duration":0.23177083333337123},{"name":"E3","midi":52,"time":636.8281249999769,"velocity":0.84251968503937,"duration":0.23177083333337123},{"name":"G5","midi":79,"time":636.8281249999769,"velocity":0.84251968503937,"duration":0.4726562500001137},{"name":"C#3","midi":49,"time":637.0690104166437,"velocity":0.84251968503937,"duration":0.23177083333337123},{"name":"D3","midi":50,"time":637.3098958333104,"velocity":0.84251968503937,"duration":0.23177083333337123},{"name":"F5","midi":77,"time":637.3098958333104,"velocity":0.84251968503937,"duration":0.23177083333337123},{"name":"E3","midi":52,"time":637.5507812499771,"velocity":0.84251968503937,"duration":0.23177083333337123},{"name":"E5","midi":76,"time":637.5507812499771,"velocity":0.84251968503937,"duration":0.23177083333337123},{"name":"A2","midi":45,"time":637.7903645833105,"velocity":0.84251968503937,"duration":0.23177083333337123},{"name":"D5","midi":74,"time":637.7903645833105,"velocity":0.84251968503937,"duration":0.23177083333337123},{"name":"G3","midi":55,"time":638.0312499999773,"velocity":0.84251968503937,"duration":0.23177083333337123},{"name":"C#5","midi":73,"time":638.0312499999773,"velocity":0.84251968503937,"duration":0.23177083333337123},{"name":"F3","midi":53,"time":638.272135416644,"velocity":0.84251968503937,"duration":0.23177083333337123},{"name":"D5","midi":74,"time":638.272135416644,"velocity":0.84251968503937,"duration":0.23177083333337123},{"name":"E3","midi":52,"time":638.5130208333107,"velocity":0.84251968503937,"duration":0.23177083333337123},{"name":"E5","midi":76,"time":638.5130208333107,"velocity":0.84251968503937,"duration":0.23177083333337123},{"name":"D3","midi":50,"time":638.7539062499775,"velocity":0.84251968503937,"duration":0.2304687500001137},{"name":"F5","midi":77,"time":638.7539062499775,"velocity":0.84251968503937,"duration":0.11067708333337123},{"name":"E5","midi":76,"time":638.8736979166442,"velocity":0.84251968503937,"duration":0.11067708333337123},{"name":"A3","midi":57,"time":638.993489583311,"velocity":0.84251968503937,"duration":0.23177083333337123},{"name":"F5","midi":77,"time":638.993489583311,"velocity":0.84251968503937,"duration":0.4726562500001137},{"name":"D4","midi":62,"time":639.2330729166443,"velocity":0.84251968503937,"duration":0.23177083333337123},{"name":"C4","midi":60,"time":639.4739583333111,"velocity":0.84251968503937,"duration":0.23177083333337123},{"name":"E5","midi":76,"time":639.4739583333111,"velocity":0.84251968503937,"duration":0.23177083333337123},{"name":"A#3","midi":58,"time":639.7148437499778,"velocity":0.84251968503937,"duration":0.23177083333337123},{"name":"D5","midi":74,"time":639.7148437499778,"velocity":0.84251968503937,"duration":0.44270833333337123},{"name":"A3","midi":57,"time":639.9557291666446,"velocity":0.84251968503937,"duration":0.23177083333325754},{"name":"G3","midi":55,"time":640.1966145833112,"velocity":0.84251968503937,"duration":0.23177083333337123},{"name":"A#5","midi":82,"time":640.1966145833112,"velocity":0.84251968503937,"duration":0.44010416666674246},{"name":"A#3","midi":58,"time":640.437499999978,"velocity":0.84251968503937,"duration":0.23177083333337123},{"name":"C4","midi":60,"time":640.6770833333113,"velocity":0.84251968503937,"duration":0.23177083333337123},{"name":"A#5","midi":82,"time":640.6770833333113,"velocity":0.84251968503937,"duration":0.23177083333337123},{"name":"A#3","midi":58,"time":640.9179687499781,"velocity":0.84251968503937,"duration":0.23177083333337123},{"name":"A5","midi":81,"time":640.9179687499781,"velocity":0.84251968503937,"duration":0.23177083333337123},{"name":"C4","midi":60,"time":641.1588541666448,"velocity":0.84251968503937,"duration":0.23177083333337123},{"name":"G5","midi":79,"time":641.1588541666448,"velocity":0.84251968503937,"duration":0.23177083333337123},{"name":"D4","midi":62,"time":641.3997395833115,"velocity":0.84251968503937,"duration":0.23177083333337123},{"name":"F#5","midi":78,"time":641.3997395833115,"velocity":0.84251968503937,"duration":0.23177083333337123},{"name":"D#4","midi":63,"time":641.6406249999783,"velocity":0.84251968503937,"duration":0.2304687500001137},{"name":"G5","midi":79,"time":641.6406249999783,"velocity":0.84251968503937,"duration":0.11067708333337123},{"name":"F#5","midi":78,"time":641.760416666645,"velocity":0.84251968503937,"duration":0.11067708333337123},{"name":"D4","midi":62,"time":641.8802083333118,"velocity":0.84251968503937,"duration":0.23177083333337123},{"name":"G5","midi":79,"time":641.8802083333118,"velocity":0.84251968503937,"duration":0.4726562500001137},{"name":"E4","midi":64,"time":642.1197916666451,"velocity":0.84251968503937,"duration":0.23177083333337123},{"name":"F#4","midi":66,"time":642.3606770833119,"velocity":0.84251968503937,"duration":0.23177083333337123},{"name":"A5","midi":81,"time":642.3606770833119,"velocity":0.84251968503937,"duration":0.23177083333337123},{"name":"G4","midi":67,"time":642.6015624999786,"velocity":0.84251968503937,"duration":0.23177083333337123},{"name":"A#5","midi":82,"time":642.6015624999786,"velocity":0.84251968503937,"duration":0.23177083333337123},{"name":"F#4","midi":66,"time":642.8424479166454,"velocity":0.84251968503937,"duration":0.23177083333337123},{"name":"A5","midi":81,"time":642.8424479166454,"velocity":0.84251968503937,"duration":0.23177083333337123},{"name":"G4","midi":67,"time":643.0833333333121,"velocity":0.84251968503937,"duration":0.23177083333337123},{"name":"C6","midi":84,"time":643.0833333333121,"velocity":0.84251968503937,"duration":0.35416666666674246},{"name":"A4","midi":69,"time":643.3242187499789,"velocity":0.84251968503937,"duration":0.23046875},{"name":"G4","midi":67,"time":643.5624999999789,"velocity":0.84251968503937,"duration":0.23046875},{"name":"A#5","midi":82,"time":643.5624999999789,"velocity":0.84251968503937,"duration":0.19140625},{"name":"A5","midi":81,"time":643.7513020833122,"velocity":0.84251968503937,"duration":0.11067708333337123},{"name":"F#4","midi":66,"time":643.8020833333122,"velocity":0.84251968503937,"duration":0.23046875},{"name":"A#5","midi":82,"time":643.8528645833122,"velocity":0.84251968503937,"duration":0.11067708333337123},{"name":"A5","midi":81,"time":643.9466145833122,"velocity":0.84251968503937,"duration":0.11067708333337123},{"name":"E4","midi":64,"time":644.0416666666456,"velocity":0.84251968503937,"duration":0.2304687500001137},{"name":"A#5","midi":82,"time":644.0416666666456,"velocity":0.84251968503937,"duration":0.11067708333337123},{"name":"A5","midi":81,"time":644.1614583333123,"velocity":0.84251968503937,"duration":0.11067708333337123},{"name":"D4","midi":62,"time":644.2812499999791,"velocity":0.84251968503937,"duration":0.2304687500001137},{"name":"G5","midi":79,"time":644.2812499999791,"velocity":0.84251968503937,"duration":0.11067708333337123},{"name":"A5","midi":81,"time":644.4010416666458,"velocity":0.84251968503937,"duration":0.11067708333337123},{"name":"G4","midi":67,"time":644.5208333333126,"velocity":0.84251968503937,"duration":0.2304687500001137},{"name":"A#5","midi":82,"time":644.5208333333126,"velocity":0.84251968503937,"duration":0.11067708333337123},{"name":"A5","midi":81,"time":644.6406249999793,"velocity":0.84251968503937,"duration":0.11067708333337123},{"name":"G3","midi":55,"time":644.7591145833127,"velocity":0.84251968503937,"duration":0.23177083333337123},{"name":"A#5","midi":82,"time":644.7591145833127,"velocity":0.84251968503937,"duration":0.4726562500001137},{"name":"A3","midi":57,"time":644.9999999999794,"velocity":0.84251968503937,"duration":0.23177083333337123},{"name":"A#3","midi":58,"time":645.2408854166462,"velocity":0.84251968503937,"duration":0.23177083333337123},{"name":"A5","midi":81,"time":645.2408854166462,"velocity":0.84251968503937,"duration":0.23177083333337123},{"name":"C4","midi":60,"time":645.4817708333129,"velocity":0.84251968503937,"duration":0.23177083333337123},{"name":"G5","midi":79,"time":645.4817708333129,"velocity":0.84251968503937,"duration":0.23177083333337123},{"name":"D4","midi":62,"time":645.7226562499797,"velocity":0.84251968503937,"duration":0.23177083333337123},{"name":"F#5","midi":78,"time":645.7226562499797,"velocity":0.84251968503937,"duration":0.23177083333337123},{"name":"D#4","midi":63,"time":645.9635416666464,"velocity":0.84251968503937,"duration":0.23177083333337123},{"name":"G5","midi":79,"time":645.9635416666464,"velocity":0.84251968503937,"duration":0.23177083333337123},{"name":"C4","midi":60,"time":646.2031249999798,"velocity":0.84251968503937,"duration":0.23177083333337123},{"name":"A5","midi":81,"time":646.2031249999798,"velocity":0.84251968503937,"duration":0.23177083333337123},{"name":"D4","midi":62,"time":646.4440104166465,"velocity":0.84251968503937,"duration":0.47265625},{"name":"A#5","midi":82,"time":646.4440104166465,"velocity":0.84251968503937,"duration":0.15234375},{"name":"F#5","midi":78,"time":646.4440104166465,"velocity":0.84251968503937,"duration":0.9466145833334849},{"name":"A5","midi":81,"time":646.6041666666465,"velocity":0.84251968503937,"duration":0.08203125},{"name":"A#5","midi":82,"time":646.6848958333131,"velocity":0.84251968503937,"duration":0.08203125000011369},{"name":"A5","midi":81,"time":646.7656249999799,"velocity":0.84251968503937,"duration":0.08203125},{"name":"A#5","midi":82,"time":646.8450520833132,"velocity":0.84251968503937,"duration":0.08203125},{"name":"D3","midi":50,"time":646.9257812499799,"velocity":0.84251968503937,"duration":0.4726562500001137},{"name":"A5","midi":81,"time":646.9257812499799,"velocity":0.84251968503937,"duration":0.23177083333337123},{"name":"G5","midi":79,"time":647.1666666666466,"velocity":0.84251968503937,"duration":0.23177083333337123},{"name":"G3","midi":55,"time":647.4075520833134,"velocity":0.84251968503937,"duration":0.23177083333337123},{"name":"D5","midi":74,"time":647.4075520833134,"velocity":0.84251968503937,"duration":1.195312500000341},{"name":"A#4","midi":70,"time":647.4075520833134,"velocity":0.84251968503937,"duration":1.195312500000341},{"name":"G5","midi":79,"time":647.4075520833134,"velocity":0.84251968503937,"duration":1.195312500000341},{"name":"A3","midi":57,"time":647.6471354166467,"velocity":0.84251968503937,"duration":0.23177083333337123},{"name":"A#3","midi":58,"time":647.8880208333135,"velocity":0.84251968503937,"duration":0.23177083333337123},{"name":"A3","midi":57,"time":648.1289062499802,"velocity":0.84251968503937,"duration":0.23177083333337123},{"name":"G3","midi":55,"time":648.369791666647,"velocity":0.84251968503937,"duration":0.23177083333337123},{"name":"F3","midi":53,"time":648.6106770833137,"velocity":0.84251968503937,"duration":0.23177083333337123},{"name":"A5","midi":81,"time":648.6106770833137,"velocity":0.84251968503937,"duration":0.23177083333337123},{"name":"E3","midi":52,"time":648.8515624999804,"velocity":0.84251968503937,"duration":0.23177083333337123},{"name":"A#5","midi":82,"time":648.8515624999804,"velocity":0.84251968503937,"duration":0.23177083333337123},{"name":"F3","midi":53,"time":649.0911458333138,"velocity":0.84251968503937,"duration":0.23177083333337123},{"name":"A5","midi":81,"time":649.0911458333138,"velocity":0.84251968503937,"duration":0.23177083333337123},{"name":"A#2","midi":46,"time":649.3320312499806,"velocity":0.84251968503937,"duration":0.4726562500001137},{"name":"G5","midi":79,"time":649.3320312499806,"velocity":0.84251968503937,"duration":0.23177083333337123},{"name":"F5","midi":77,"time":649.5729166666473,"velocity":0.84251968503937,"duration":0.23177083333337123},{"name":"D3","midi":50,"time":649.813802083314,"velocity":0.84251968503937,"duration":0.4726562500001137},{"name":"E5","midi":76,"time":649.813802083314,"velocity":0.84251968503937,"duration":0.23177083333337123},{"name":"F5","midi":77,"time":650.0546874999808,"velocity":0.84251968503937,"duration":0.23177083333337123},{"name":"C3","midi":48,"time":650.2955729166475,"velocity":0.84251968503937,"duration":0.23177083333337123},{"name":"F5","midi":77,"time":650.2955729166475,"velocity":0.84251968503937,"duration":0.08203125},{"name":"E5","midi":76,"time":650.3749999999809,"velocity":0.84251968503937,"duration":0.08203125},{"name":"F5","midi":77,"time":650.4557291666475,"velocity":0.84251968503937,"duration":0.08203125},{"name":"G3","midi":55,"time":650.5351562499809,"velocity":0.84251968503937,"duration":0.23177083333325754},{"name":"E5","midi":76,"time":650.5351562499809,"velocity":0.84251968503937,"duration":0.39583333333325754},{"name":"C4","midi":60,"time":650.7760416666475,"velocity":0.84251968503937,"duration":0.23177083333325754},{"name":"A#3","midi":58,"time":651.0169270833142,"velocity":0.84251968503937,"duration":0.23177083333337123},{"name":"D5","midi":74,"time":651.0169270833142,"velocity":0.84251968503937,"duration":0.23177083333337123},{"name":"A3","midi":57,"time":651.2578124999809,"velocity":0.84251968503937,"duration":0.23177083333337123},{"name":"C5","midi":72,"time":651.2578124999809,"velocity":0.84251968503937,"duration":0.4726562500001137},{"name":"C4","midi":60,"time":651.4986979166476,"velocity":0.84251968503937,"duration":0.23177083333337123},{"name":"A#3","midi":58,"time":651.7395833333144,"velocity":0.84251968503937,"duration":0.23177083333337123},{"name":"C6","midi":84,"time":651.7395833333144,"velocity":0.84251968503937,"duration":0.4726562500001137},{"name":"A3","midi":57,"time":651.9791666666478,"velocity":0.84251968503937,"duration":0.23177083333337123},{"name":"G3","midi":55,"time":652.2200520833145,"velocity":0.84251968503937,"duration":0.23177083333337123},{"name":"A#5","midi":82,"time":652.2200520833145,"velocity":0.84251968503937,"duration":0.23177083333337123},{"name":"F3","midi":53,"time":652.4609374999812,"velocity":0.84251968503937,"duration":0.23177083333337123},{"name":"A5","midi":81,"time":652.4609374999812,"velocity":0.84251968503937,"duration":0.23177083333337123},{"name":"G3","midi":55,"time":652.701822916648,"velocity":0.84251968503937,"duration":0.23177083333337123},{"name":"G5","midi":79,"time":652.701822916648,"velocity":0.84251968503937,"duration":0.23177083333337123},{"name":"A3","midi":57,"time":652.9427083333147,"velocity":0.84251968503937,"duration":0.23177083333337123},{"name":"F5","midi":77,"time":652.9427083333147,"velocity":0.84251968503937,"duration":0.23177083333337123},{"name":"A#3","midi":58,"time":653.1822916666481,"velocity":0.84251968503937,"duration":0.23177083333337123},{"name":"D#5","midi":75,"time":653.1822916666481,"velocity":0.84251968503937,"duration":0.23177083333337123},{"name":"F3","midi":53,"time":653.4231770833148,"velocity":0.84251968503937,"duration":0.23177083333337123},{"name":"D5","midi":74,"time":653.4231770833148,"velocity":0.84251968503937,"duration":0.47005208333337123},{"name":"A#2","midi":46,"time":653.6640624999816,"velocity":0.84251968503937,"duration":0.23177083333325754},{"name":"C3","midi":48,"time":653.9049479166482,"velocity":0.84251968503937,"duration":0.23177083333337123},{"name":"D#5","midi":75,"time":653.9049479166482,"velocity":0.84251968503937,"duration":0.23177083333337123},{"name":"D3","midi":50,"time":654.145833333315,"velocity":0.84251968503937,"duration":0.4726562500001137},{"name":"F5","midi":77,"time":654.145833333315,"velocity":0.84251968503937,"duration":0.23177083333337123},{"name":"D#5","midi":75,"time":654.3867187499817,"velocity":0.84251968503937,"duration":0.23177083333337123},{"name":"D#3","midi":51,"time":654.6263020833151,"velocity":0.84251968503937,"duration":0.23177083333337123},{"name":"G5","midi":79,"time":654.6263020833151,"velocity":0.84251968503937,"duration":0.23177083333337123},{"name":"F3","midi":53,"time":654.8671874999818,"velocity":0.84251968503937,"duration":0.23177083333337123},{"name":"F5","midi":77,"time":654.8671874999818,"velocity":0.84251968503937,"duration":0.23177083333337123},{"name":"G3","midi":55,"time":655.1080729166486,"velocity":0.84251968503937,"duration":0.4726562500001137},{"name":"D#5","midi":75,"time":655.1080729166486,"velocity":0.84251968503937,"duration":0.23177083333337123},{"name":"D5","midi":74,"time":655.3489583333153,"velocity":0.84251968503937,"duration":0.23177083333337123},{"name":"D#3","midi":51,"time":655.589843749982,"velocity":0.84251968503937,"duration":0.4726562500001137},{"name":"C5","midi":72,"time":655.589843749982,"velocity":0.84251968503937,"duration":0.23177083333337123},{"name":"A#4","midi":70,"time":655.8307291666488,"velocity":0.84251968503937,"duration":0.23177083333337123},{"name":"F3","midi":53,"time":656.0703124999822,"velocity":0.84251968503937,"duration":1.097656250000341},{"name":"A#4","midi":70,"time":656.0703124999822,"velocity":0.84251968503937,"duration":0.23177083333337123},{"name":"A4","midi":69,"time":656.3111979166489,"velocity":0.84251968503937,"duration":0.23177083333337123},{"name":"G4","midi":67,"time":656.5520833333156,"velocity":0.84251968503937,"duration":0.23177083333337123},{"name":"F4","midi":65,"time":656.7929687499824,"velocity":0.84251968503937,"duration":0.23177083333337123},{"name":"G4","midi":67,"time":657.0338541666491,"velocity":0.84251968503937,"duration":0.23177083333337123},{"name":"D#3","midi":51,"time":657.2747395833159,"velocity":0.84251968503937,"duration":0.23177083333337123},{"name":"A4","midi":69,"time":657.2747395833159,"velocity":0.84251968503937,"duration":0.23177083333337123},{"name":"D3","midi":50,"time":657.5143229166492,"velocity":0.84251968503937,"duration":0.23177083333337123},{"name":"A#4","midi":70,"time":657.5143229166492,"velocity":0.84251968503937,"duration":0.23177083333337123},{"name":"C3","midi":48,"time":657.755208333316,"velocity":0.84251968503937,"duration":0.23177083333337123},{"name":"C5","midi":72,"time":657.755208333316,"velocity":0.84251968503937,"duration":0.23177083333337123},{"name":"A#2","midi":46,"time":657.9960937499827,"velocity":0.84251968503937,"duration":0.23177083333337123},{"name":"D5","midi":74,"time":657.9960937499827,"velocity":0.84251968503937,"duration":0.23177083333337123},{"name":"G#2","midi":44,"time":658.2369791666495,"velocity":0.84251968503937,"duration":0.23177083333337123},{"name":"D#5","midi":75,"time":658.2369791666495,"velocity":0.84251968503937,"duration":0.23177083333337123},{"name":"G2","midi":43,"time":658.4778645833162,"velocity":0.84251968503937,"duration":0.23177083333337123},{"name":"F5","midi":77,"time":658.4778645833162,"velocity":0.84251968503937,"duration":0.23177083333337123},{"name":"F2","midi":41,"time":658.718749999983,"velocity":0.84251968503937,"duration":0.23177083333337123},{"name":"D5","midi":74,"time":658.718749999983,"velocity":0.84251968503937,"duration":0.23177083333337123},{"name":"D#2","midi":39,"time":658.9583333333163,"velocity":0.84251968503937,"duration":0.23177083333337123},{"name":"G5","midi":79,"time":658.9583333333163,"velocity":0.84251968503937,"duration":0.23177083333337123},{"name":"D#3","midi":51,"time":659.1992187499831,"velocity":0.84251968503937,"duration":0.23177083333337123},{"name":"F5","midi":77,"time":659.1992187499831,"velocity":0.84251968503937,"duration":0.23177083333337123},{"name":"D3","midi":50,"time":659.4401041666498,"velocity":0.84251968503937,"duration":0.23177083333337123},{"name":"A#5","midi":82,"time":659.4401041666498,"velocity":0.84251968503937,"duration":0.4726562500001137},{"name":"C3","midi":48,"time":659.6809895833165,"velocity":0.84251968503937,"duration":0.23177083333337123},{"name":"A#2","midi":46,"time":659.9218749999833,"velocity":0.84251968503937,"duration":0.23177083333325754},{"name":"D#5","midi":75,"time":659.9218749999833,"velocity":0.84251968503937,"duration":0.15234375},{"name":"D5","midi":74,"time":660.0690104166499,"velocity":0.84251968503937,"duration":0.08203125},{"name":"D3","midi":50,"time":660.1627604166499,"velocity":0.84251968503937,"duration":0.23177083333325754},{"name":"D#5","midi":75,"time":660.1627604166499,"velocity":0.84251968503937,"duration":0.08203125},{"name":"D5","midi":74,"time":660.2552083333165,"velocity":0.84251968503937,"duration":0.39583333333337123},{"name":"G3","midi":55,"time":660.4023437499832,"velocity":0.84251968503937,"duration":0.23177083333337123},{"name":"D#3","midi":51,"time":660.6432291666499,"velocity":0.84251968503937,"duration":0.23177083333337123},{"name":"C5","midi":72,"time":660.6432291666499,"velocity":0.84251968503937,"duration":0.23177083333337123},{"name":"F3","midi":53,"time":660.8841145833167,"velocity":0.84251968503937,"duration":0.47265625},{"name":"A4","midi":69,"time":660.8841145833167,"velocity":0.84251968503937,"duration":0.9466145833334849},{"name":"D5","midi":74,"time":660.8841145833167,"velocity":0.84251968503937,"duration":0.15234375},{"name":"C5","midi":72,"time":661.0442708333167,"velocity":0.84251968503937,"duration":0.08203125},{"name":"D5","midi":74,"time":661.1249999999833,"velocity":0.84251968503937,"duration":0.08203125},{"name":"C5","midi":72,"time":661.2044270833167,"velocity":0.84251968503937,"duration":0.08203125},{"name":"D5","midi":74,"time":661.2851562499833,"velocity":0.84251968503937,"duration":0.08203125000011369},{"name":"F2","midi":41,"time":661.36588541665,"velocity":0.84251968503937,"duration":0.4726562500001137},{"name":"C5","midi":72,"time":661.36588541665,"velocity":0.84251968503937,"duration":0.23177083333337123},{"name":"A#4","midi":70,"time":661.6067708333168,"velocity":0.84251968503937,"duration":0.23177083333337123},{"name":"A#2","midi":46,"time":661.8463541666501,"velocity":0.84251968503937,"duration":0.23177083333337123},{"name":"F4","midi":65,"time":661.8463541666501,"velocity":0.84251968503937,"duration":0.9466145833335986},{"name":"D4","midi":62,"time":661.8463541666501,"velocity":0.84251968503937,"duration":0.9466145833335986},{"name":"A#4","midi":70,"time":661.8463541666501,"velocity":0.84251968503937,"duration":1.1770833333335986},{"name":"D3","midi":50,"time":662.0872395833169,"velocity":0.84251968503937,"duration":0.23177083333337123},{"name":"C3","midi":48,"time":662.3281249999836,"velocity":0.84251968503937,"duration":0.23177083333337123},{"name":"A#2","midi":46,"time":662.5690104166504,"velocity":0.84251968503937,"duration":0.23177083333337123},{"name":"A2","midi":45,"time":662.8098958333171,"velocity":0.84251968503937,"duration":0.23177083333325754},{"name":"G2","midi":43,"time":663.0507812499837,"velocity":0.84251968503937,"duration":0.23177083333337123},{"name":"F#2","midi":42,"time":663.2903645833171,"velocity":0.84251968503937,"duration":0.23177083333337123},{"name":"D5","midi":74,"time":663.2903645833171,"velocity":0.84251968503937,"duration":0.4726562500001137},{"name":"E2","midi":40,"time":663.5312499999839,"velocity":0.84251968503937,"duration":0.23177083333337123},{"name":"F#2","midi":42,"time":663.7721354166506,"velocity":0.84251968503937,"duration":0.4726562500001137},{"name":"C5","midi":72,"time":663.7721354166506,"velocity":0.84251968503937,"duration":0.23177083333337123},{"name":"A#4","midi":70,"time":664.0130208333173,"velocity":0.84251968503937,"duration":0.23177083333337123},{"name":"D3","midi":50,"time":664.2539062499841,"velocity":0.84251968503937,"duration":0.4726562500001137},{"name":"A4","midi":69,"time":664.2539062499841,"velocity":0.84251968503937,"duration":0.23177083333337123},{"name":"A#4","midi":70,"time":664.4934895833175,"velocity":0.84251968503937,"duration":0.23177083333337123},{"name":"G3","midi":55,"time":664.7343749999842,"velocity":0.84251968503937,"duration":0.7135416666668561},{"name":"C5","midi":72,"time":664.7343749999842,"velocity":0.84251968503937,"duration":0.23177083333337123},{"name":"A#4","midi":70,"time":664.9752604166509,"velocity":0.84251968503937,"duration":0.23177083333337123},{"name":"A4","midi":69,"time":665.2161458333177,"velocity":0.84251968503937,"duration":0.23177083333337123},{"name":"A3","midi":57,"time":665.4570312499844,"velocity":0.84251968503937,"duration":0.23177083333337123},{"name":"G4","midi":67,"time":665.4570312499844,"velocity":0.84251968503937,"duration":0.23177083333337123},{"name":"A#3","midi":58,"time":665.6979166666512,"velocity":0.84251968503937,"duration":0.2304687500001137},{"name":"G5","midi":79,"time":665.6979166666512,"velocity":0.84251968503937,"duration":0.11067708333337123},{"name":"F5","midi":77,"time":665.8177083333179,"velocity":0.84251968503937,"duration":0.11067708333337123},{"name":"C4","midi":60,"time":665.9361979166513,"velocity":0.84251968503937,"duration":0.23177083333337123},{"name":"G5","midi":79,"time":665.9361979166513,"velocity":0.84251968503937,"duration":0.4726562500001137},{"name":"A#3","midi":58,"time":666.177083333318,"velocity":0.84251968503937,"duration":0.23177083333337123},{"name":"A3","midi":57,"time":666.4179687499848,"velocity":0.84251968503937,"duration":0.23177083333337123},{"name":"F5","midi":77,"time":666.4179687499848,"velocity":0.84251968503937,"duration":0.23177083333337123},{"name":"G3","midi":55,"time":666.6588541666515,"velocity":0.84251968503937,"duration":0.23177083333337123},{"name":"E5","midi":76,"time":666.6588541666515,"velocity":0.84251968503937,"duration":0.23177083333337123},{"name":"F3","midi":53,"time":666.8997395833183,"velocity":0.84251968503937,"duration":0.23177083333337123},{"name":"D5","midi":74,"time":666.8997395833183,"velocity":0.84251968503937,"duration":0.23177083333337123},{"name":"G3","midi":55,"time":667.140624999985,"velocity":0.84251968503937,"duration":0.23177083333337123},{"name":"C#5","midi":73,"time":667.140624999985,"velocity":0.84251968503937,"duration":0.23177083333337123},{"name":"E3","midi":52,"time":667.3802083333184,"velocity":0.84251968503937,"duration":0.23177083333337123},{"name":"D5","midi":74,"time":667.3802083333184,"velocity":0.84251968503937,"duration":0.23177083333337123},{"name":"A3","midi":57,"time":667.6210937499851,"velocity":0.84251968503937,"duration":0.7135416666668561},{"name":"C#5","midi":73,"time":667.6210937499851,"velocity":0.84251968503937,"duration":0.23177083333337123},{"name":"E5","midi":76,"time":667.8619791666518,"velocity":0.84251968503937,"duration":0.23177083333337123},{"name":"A4","midi":69,"time":668.1028645833186,"velocity":0.84251968503937,"duration":0.23177083333337123},{"name":"G3","midi":55,"time":668.3437499999853,"velocity":0.84251968503937,"duration":0.23177083333337123},{"name":"B4","midi":71,"time":668.3437499999853,"velocity":0.84251968503937,"duration":0.23177083333337123},{"name":"F#3","midi":54,"time":668.5846354166521,"velocity":0.84251968503937,"duration":0.23177083333337123},{"name":"C5","midi":72,"time":668.5846354166521,"velocity":0.84251968503937,"duration":0.23177083333337123},{"name":"D3","midi":50,"time":668.8242187499854,"velocity":0.84251968503937,"duration":0.23177083333337123},{"name":"B4","midi":71,"time":668.8242187499854,"velocity":0.84251968503937,"duration":0.23177083333337123},{"name":"E3","midi":52,"time":669.0651041666522,"velocity":0.84251968503937,"duration":0.23177083333337123},{"name":"D5","midi":74,"time":669.0651041666522,"velocity":0.84251968503937,"duration":0.4726562500001137},{"name":"F3","midi":53,"time":669.3059895833189,"velocity":0.84251968503937,"duration":0.23177083333337123},{"name":"G3","midi":55,"time":669.5468749999857,"velocity":0.84251968503937,"duration":0.2304687500001137},{"name":"D5","midi":74,"time":669.5468749999857,"velocity":0.84251968503937,"duration":0.11067708333337123},{"name":"C#5","midi":73,"time":669.6666666666524,"velocity":0.84251968503937,"duration":0.11067708333337123},{"name":"A3","midi":57,"time":669.7864583333192,"velocity":0.84251968503937,"duration":0.2304687500001137},{"name":"D5","midi":74,"time":669.7864583333192,"velocity":0.84251968503937,"duration":0.11067708333337123},{"name":"C#5","midi":73,"time":669.9062499999859,"velocity":0.84251968503937,"duration":0.11067708333337123},{"name":"A#3","midi":58,"time":670.0260416666526,"velocity":0.84251968503937,"duration":0.2304687500001137},{"name":"D5","midi":74,"time":670.0260416666526,"velocity":0.84251968503937,"duration":0.11067708333337123},{"name":"C#5","midi":73,"time":670.144531249986,"velocity":0.84251968503937,"duration":0.11067708333337123},{"name":"A3","midi":57,"time":670.2643229166528,"velocity":0.84251968503937,"duration":0.2304687500001137},{"name":"D5","midi":74,"time":670.2643229166528,"velocity":0.84251968503937,"duration":0.11067708333337123},{"name":"E5","midi":76,"time":670.3841145833195,"velocity":0.84251968503937,"duration":0.11067708333337123},{"name":"G3","midi":55,"time":670.5039062499862,"velocity":0.84251968503937,"duration":0.2304687500001137},{"name":"F5","midi":77,"time":670.5039062499862,"velocity":0.84251968503937,"duration":0.11067708333337123},{"name":"E5","midi":76,"time":670.623697916653,"velocity":0.84251968503937,"duration":0.11067708333337123},{"name":"F3","midi":53,"time":670.7434895833197,"velocity":0.84251968503937,"duration":0.2304687500001137},{"name":"F5","midi":77,"time":670.7434895833197,"velocity":0.84251968503937,"duration":0.11067708333337123},{"name":"E5","midi":76,"time":670.8632812499865,"velocity":0.84251968503937,"duration":0.11067708333337123},{"name":"G3","midi":55,"time":670.9830729166532,"velocity":0.84251968503937,"duration":0.2304687500001137},{"name":"F5","midi":77,"time":670.9830729166532,"velocity":0.84251968503937,"duration":0.11067708333337123},{"name":"E5","midi":76,"time":671.10286458332,"velocity":0.84251968503937,"duration":0.11067708333337123},{"name":"A3","midi":57,"time":671.2226562499867,"velocity":0.84251968503937,"duration":0.2304687500001137},{"name":"D5","midi":74,"time":671.2226562499867,"velocity":0.84251968503937,"duration":0.11067708333337123},{"name":"E5","midi":76,"time":671.3424479166534,"velocity":0.84251968503937,"duration":0.11067708333337123},{"name":"D3","midi":50,"time":671.4609374999868,"velocity":0.84251968503937,"duration":0.23177083333337123},{"name":"F5","midi":77,"time":671.4609374999868,"velocity":0.84251968503937,"duration":0.23177083333337123},{"name":"A3","midi":57,"time":671.7018229166536,"velocity":0.84251968503937,"duration":0.23177083333337123},{"name":"E5","midi":76,"time":671.7018229166536,"velocity":0.84251968503937,"duration":0.23177083333337123},{"name":"A#3","midi":58,"time":671.9427083333203,"velocity":0.84251968503937,"duration":0.23177083333337123},{"name":"G5","midi":79,"time":671.9427083333203,"velocity":0.84251968503937,"duration":0.34505208333337123},{"name":"C4","midi":60,"time":672.183593749987,"velocity":0.84251968503937,"duration":0.23177083333325754},{"name":"D4","midi":62,"time":672.4244791666537,"velocity":0.84251968503937,"duration":0.2304687500001137},{"name":"G5","midi":79,"time":672.4244791666537,"velocity":0.84251968503937,"duration":0.11067708333337123},{"name":"F#5","midi":78,"time":672.5442708333204,"velocity":0.84251968503937,"duration":0.11067708333337123},{"name":"C4","midi":60,"time":672.6640624999872,"velocity":0.84251968503937,"duration":0.2304687500001137},{"name":"G5","midi":79,"time":672.6640624999872,"velocity":0.84251968503937,"duration":0.11067708333337123},{"name":"F#5","midi":78,"time":672.7838541666539,"velocity":0.84251968503937,"duration":0.11067708333337123},{"name":"D#4","midi":63,"time":672.9023437499873,"velocity":0.84251968503937,"duration":0.2304687500001137},{"name":"G5","midi":79,"time":672.9023437499873,"velocity":0.84251968503937,"duration":0.11067708333337123},{"name":"F#5","midi":78,"time":673.022135416654,"velocity":0.84251968503937,"duration":0.11067708333337123},{"name":"D4","midi":62,"time":673.1419270833208,"velocity":0.84251968503937,"duration":0.2304687500001137},{"name":"G5","midi":79,"time":673.1419270833208,"velocity":0.84251968503937,"duration":0.11067708333337123},{"name":"A5","midi":81,"time":673.2617187499875,"velocity":0.84251968503937,"duration":0.11067708333337123},{"name":"C4","midi":60,"time":673.3815104166542,"velocity":0.84251968503937,"duration":0.2304687500001137},{"name":"A#5","midi":82,"time":673.3815104166542,"velocity":0.84251968503937,"duration":0.11067708333337123},{"name":"A5","midi":81,"time":673.501302083321,"velocity":0.84251968503937,"duration":0.11067708333337123},{"name":"A#3","midi":58,"time":673.6210937499877,"velocity":0.84251968503937,"duration":0.2304687500001137},{"name":"A#5","midi":82,"time":673.6210937499877,"velocity":0.84251968503937,"duration":0.11067708333337123},{"name":"A5","midi":81,"time":673.7408854166545,"velocity":0.84251968503937,"duration":0.11067708333337123},{"name":"C4","midi":60,"time":673.8606770833212,"velocity":0.84251968503937,"duration":0.2304687500001137},{"name":"A#5","midi":82,"time":673.8606770833212,"velocity":0.84251968503937,"duration":0.11067708333337123},{"name":"A5","midi":81,"time":673.980468749988,"velocity":0.84251968503937,"duration":0.11067708333337123},{"name":"D4","midi":62,"time":674.1002604166547,"velocity":0.84251968503937,"duration":0.2304687500001137},{"name":"G5","midi":79,"time":674.1002604166547,"velocity":0.84251968503937,"duration":0.11067708333337123},{"name":"A5","midi":81,"time":674.2187499999881,"velocity":0.84251968503937,"duration":0.11067708333337123},{"name":"G3","midi":55,"time":674.3385416666548,"velocity":0.84251968503937,"duration":0.23177083333337123},{"name":"A#5","midi":82,"time":674.3385416666548,"velocity":0.84251968503937,"duration":0.23177083333337123},{"name":"A3","midi":57,"time":674.5794270833215,"velocity":0.84251968503937,"duration":0.23177083333337123},{"name":"A5","midi":81,"time":674.5794270833215,"velocity":0.84251968503937,"duration":0.23177083333337123},{"name":"A#3","midi":58,"time":674.8203124999883,"velocity":0.84251968503937,"duration":0.23177083333337123},{"name":"G5","midi":79,"time":674.8203124999883,"velocity":0.84251968503937,"duration":0.23177083333337123},{"name":"A3","midi":57,"time":675.061197916655,"velocity":0.84251968503937,"duration":0.23177083333337123},{"name":"F5","midi":77,"time":675.061197916655,"velocity":0.84251968503937,"duration":0.23177083333337123},{"name":"G3","midi":55,"time":675.3020833333218,"velocity":0.84251968503937,"duration":0.23177083333337123},{"name":"E5","midi":76,"time":675.3020833333218,"velocity":0.84251968503937,"duration":0.23177083333337123},{"name":"F3","midi":53,"time":675.5429687499885,"velocity":0.84251968503937,"duration":0.23177083333337123},{"name":"D5","midi":74,"time":675.5429687499885,"velocity":0.84251968503937,"duration":0.23177083333337123},{"name":"E3","midi":52,"time":675.7825520833219,"velocity":0.84251968503937,"duration":0.23177083333337123},{"name":"C#5","midi":73,"time":675.7825520833219,"velocity":0.84251968503937,"duration":0.23177083333337123},{"name":"D3","midi":50,"time":676.0234374999886,"velocity":0.84251968503937,"duration":0.23177083333337123},{"name":"D5","midi":74,"time":676.0234374999886,"velocity":0.84251968503937,"duration":0.23177083333337123},{"name":"C#3","midi":49,"time":676.2643229166554,"velocity":0.84251968503937,"duration":0.4726562500001137},{"name":"G4","midi":67,"time":676.2643229166554,"velocity":0.84251968503937,"duration":0.23177083333337123},{"name":"A#4","midi":70,"time":676.5052083333221,"velocity":0.84251968503937,"duration":0.23177083333337123},{"name":"D3","midi":50,"time":676.7460937499889,"velocity":0.84251968503937,"duration":0.23177083333337123},{"name":"A4","midi":69,"time":676.7460937499889,"velocity":0.84251968503937,"duration":0.23177083333337123},{"name":"E3","midi":52,"time":676.9856770833222,"velocity":0.84251968503937,"duration":0.23177083333337123},{"name":"C#5","midi":73,"time":676.9856770833222,"velocity":0.84251968503937,"duration":0.23177083333337123},{"name":"F3","midi":53,"time":677.226562499989,"velocity":0.84251968503937,"duration":0.23177083333337123},{"name":"D5","midi":74,"time":677.226562499989,"velocity":0.84251968503937,"duration":0.3515625000001137},{"name":"E3","midi":52,"time":677.4674479166557,"velocity":0.84251968503937,"duration":0.2304687500001137},{"name":"E5","midi":76,"time":677.5872395833225,"velocity":0.84251968503937,"duration":0.11067708333337123},{"name":"F3","midi":53,"time":677.7070312499892,"velocity":0.84251968503937,"duration":0.2304687500001137},{"name":"D5","midi":74,"time":677.7070312499892,"velocity":0.84251968503937,"duration":0.11067708333337123},{"name":"C#5","midi":73,"time":677.8268229166559,"velocity":0.84251968503937,"duration":0.11067708333337123},{"name":"G3","midi":55,"time":677.9466145833227,"velocity":0.84251968503937,"duration":0.2304687500001137},{"name":"D5","midi":74,"time":677.9466145833227,"velocity":0.84251968503937,"duration":0.11067708333337123},{"name":"E5","midi":76,"time":678.0664062499894,"velocity":0.84251968503937,"duration":0.11067708333337123},{"name":"A3","midi":57,"time":678.1861979166562,"velocity":0.84251968503937,"duration":0.48828125},{"name":"C#5","midi":73,"time":678.1861979166562,"velocity":0.84251968503937,"duration":0.9778645833332575},{"name":"F5","midi":77,"time":678.1861979166562,"velocity":0.84251968503937,"duration":0.15755208333337123},{"name":"E5","midi":76,"time":678.3515624999895,"velocity":0.84251968503937,"duration":0.08463541666662877},{"name":"F5","midi":77,"time":678.4335937499895,"velocity":0.84251968503937,"duration":0.08463541666662877},{"name":"E5","midi":76,"time":678.5169270833228,"velocity":0.84251968503937,"duration":0.08463541666674246},{"name":"F5","midi":77,"time":678.6002604166562,"velocity":0.84251968503937,"duration":0.08463541666662877},{"name":"A2","midi":45,"time":678.6822916666562,"velocity":0.84251968503937,"duration":0.4882812499998863},{"name":"E5","midi":76,"time":678.6822916666562,"velocity":0.84251968503937,"duration":0.23958333333325754},{"name":"D5","midi":74,"time":678.9309895833228,"velocity":0.84251968503937,"duration":0.23958333333325754},{"name":"D3","midi":50,"time":679.1796874999894,"velocity":0.84251968503937,"duration":1.6471354166666288},{"name":"D5","midi":74,"time":679.1796874999894,"velocity":0.84251968503937,"duration":4.3828125},{"name":"D2","midi":38,"time":679.7317708333228,"velocity":0.84251968503937,"duration":3.8307291666666288},{"name":"A2","midi":45,"time":680.2851562499894,"velocity":0.84251968503937,"duration":0.54296875},{"name":"F#4","midi":66,"time":680.8671874999894,"velocity":0.84251968503937,"duration":2.6953125},{"name":"A4","midi":69,"time":680.8671874999894,"velocity":0.84251968503937,"duration":2.6953125},{"name":"D3","midi":50,"time":680.8671874999894,"velocity":0.84251968503937,"duration":2.6953125},{"name":"F5","midi":77,"time":686.0820312499894,"velocity":0.84251968503937,"duration":0.8658854166666288},{"name":"A4","midi":69,"time":686.0820312499894,"velocity":0.84251968503937,"duration":0.8658854166666288},{"name":"D5","midi":74,"time":686.0820312499894,"velocity":0.84251968503937,"duration":0.8658854166666288},{"name":"D4","midi":62,"time":686.0820312499894,"velocity":0.84251968503937,"duration":0.8658854166666288},{"name":"D3","midi":50,"time":686.0820312499894,"velocity":0.84251968503937,"duration":0.8658854166666288},{"name":"G4","midi":67,"time":686.9505208333227,"velocity":0.84251968503937,"duration":1.7291666666666288},{"name":"A#4","midi":70,"time":686.9505208333227,"velocity":0.84251968503937,"duration":1.7291666666666288},{"name":"D4","midi":62,"time":686.9505208333227,"velocity":0.84251968503937,"duration":1.7291666666666288},{"name":"F5","midi":77,"time":686.9505208333227,"velocity":0.84251968503937,"duration":0.203125},{"name":"E5","midi":76,"time":687.1536458333227,"velocity":0.84251968503937,"duration":0.09244791666662877},{"name":"F5","midi":77,"time":687.2421874999893,"velocity":0.84251968503937,"duration":0.09114583333337123},{"name":"E5","midi":76,"time":687.3294270833227,"velocity":0.84251968503937,"duration":0.09114583333337123},{"name":"F5","midi":77,"time":687.416666666656,"velocity":0.84251968503937,"duration":0.09114583333337123},{"name":"E5","midi":76,"time":687.5039062499894,"velocity":0.84251968503937,"duration":0.7669270833332575},{"name":"F5","midi":77,"time":688.248697916656,"velocity":0.84251968503937,"duration":0.43098958333325754},{"name":"G5","midi":79,"time":688.6822916666559,"velocity":0.84251968503937,"duration":0.5416666666666288},{"name":"A4","midi":69,"time":688.6822916666559,"velocity":0.84251968503937,"duration":0.859375},{"name":"E4","midi":64,"time":688.6822916666559,"velocity":0.84251968503937,"duration":0.8658854166666288},{"name":"C#4","midi":61,"time":688.6822916666559,"velocity":0.84251968503937,"duration":0.8658854166666288},{"name":"F5","midi":77,"time":689.2239583333226,"velocity":0.84251968503937,"duration":0.10677083333337123},{"name":"G5","midi":79,"time":689.3333333333226,"velocity":0.84251968503937,"duration":0.10677083333337123},{"name":"A5","midi":81,"time":689.4427083333226,"velocity":0.84251968503937,"duration":0.10546875},{"name":"G5","midi":79,"time":689.5507812499892,"velocity":0.84251968503937,"duration":0.14192708333337123},{"name":"A4","midi":69,"time":689.5507812499892,"velocity":0.84251968503937,"duration":1.7317708333335986},{"name":"C4","midi":60,"time":689.5507812499892,"velocity":0.84251968503937,"duration":1.7317708333335986},{"name":"D4","midi":62,"time":689.5507812499892,"velocity":0.84251968503937,"duration":1.7317708333335986},{"name":"F#5","midi":78,"time":689.6953124999892,"velocity":0.84251968503937,"duration":0.09244791666674246},{"name":"G5","midi":79,"time":689.7786458333226,"velocity":0.84251968503937,"duration":0.09244791666674246},{"name":"F#5","midi":78,"time":689.8619791666559,"velocity":0.84251968503937,"duration":0.09244791666674246},{"name":"G5","midi":79,"time":689.9453124999893,"velocity":0.84251968503937,"duration":0.09244791666674246},{"name":"F#5","midi":78,"time":690.0286458333227,"velocity":0.84251968503937,"duration":0.8111979166667425},{"name":"F#5","midi":78,"time":690.8515624999894,"velocity":0.84251968503937,"duration":0.43098958333337123},{"name":"G5","midi":79,"time":691.2851562499894,"velocity":0.84251968503937,"duration":0.8658854166666288},{"name":"G4","midi":67,"time":691.2851562499894,"velocity":0.84251968503937,"duration":0.8658854166666288},{"name":"D5","midi":74,"time":691.2851562499894,"velocity":0.84251968503937,"duration":0.8658854166666288},{"name":"D4","midi":62,"time":691.2851562499894,"velocity":0.84251968503937,"duration":0.8658854166666288},{"name":"A#3","midi":58,"time":691.2851562499894,"velocity":0.84251968503937,"duration":0.8658854166666288},{"name":"G4","midi":67,"time":692.1536458333227,"velocity":0.84251968503937,"duration":0.8658854166666288},{"name":"A#4","midi":70,"time":692.1536458333227,"velocity":0.84251968503937,"duration":0.8658854166666288},{"name":"E5","midi":76,"time":692.1536458333227,"velocity":0.84251968503937,"duration":0.8658854166666288},{"name":"G3","midi":55,"time":692.1536458333227,"velocity":0.84251968503937,"duration":0.8658854166666288},{"name":"D5","midi":74,"time":693.0221354166559,"velocity":0.84251968503937,"duration":0.21484375},{"name":"F4","midi":65,"time":693.0221354166559,"velocity":0.84251968503937,"duration":0.8593749999998863},{"name":"B4","midi":71,"time":693.0221354166559,"velocity":0.84251968503937,"duration":0.8593749999998863},{"name":"G#3","midi":56,"time":693.0221354166559,"velocity":0.84251968503937,"duration":0.8658854166665151},{"name":"C#5","midi":73,"time":693.2395833333226,"velocity":0.84251968503937,"duration":0.21484375},{"name":"D5","midi":74,"time":693.4570312499892,"velocity":0.84251968503937,"duration":0.43098958333325754},{"name":"A4","midi":69,"time":693.8906249999891,"velocity":0.84251968503937,"duration":1.7330729166666288},{"name":"C#5","midi":73,"time":693.8906249999891,"velocity":0.84251968503937,"duration":1.2994791666666288},{"name":"E4","midi":64,"time":693.8906249999891,"velocity":0.84251968503937,"duration":0.8658854166666288},{"name":"A3","midi":57,"time":693.8906249999891,"velocity":0.84251968503937,"duration":1.7330729166666288},{"name":"D4","midi":62,"time":694.7591145833223,"velocity":0.84251968503937,"duration":0.8645833333333712},{"name":"B4","midi":71,"time":695.1927083333223,"velocity":0.84251968503937,"duration":0.43098958333337123},{"name":"E4","midi":64,"time":695.6263020833223,"velocity":0.84251968503937,"duration":0.78125},{"name":"A4","midi":69,"time":695.6263020833223,"velocity":0.84251968503937,"duration":0.78125},{"name":"G3","midi":55,"time":695.6263020833223,"velocity":0.84251968503937,"duration":0.8658854166666288},{"name":"C#4","midi":61,"time":695.6263020833223,"velocity":0.84251968503937,"duration":0.78125},{"name":"C5","midi":72,"time":696.4947916666556,"velocity":0.84251968503937,"duration":0.8658854166666288},{"name":"A4","midi":69,"time":696.4947916666556,"velocity":0.84251968503937,"duration":0.8658854166666288},{"name":"D4","midi":62,"time":696.4947916666556,"velocity":0.84251968503937,"duration":0.8658854166666288},{"name":"F#3","midi":54,"time":696.4947916666556,"velocity":0.84251968503937,"duration":0.8658854166666288},{"name":"G4","midi":67,"time":697.3632812499889,"velocity":0.84251968503937,"duration":1.7291666666667425},{"name":"F3","midi":53,"time":697.3632812499889,"velocity":0.84251968503937,"duration":1.7291666666667425},{"name":"D4","midi":62,"time":697.3632812499889,"velocity":0.84251968503937,"duration":1.7291666666667425},{"name":"C5","midi":72,"time":697.3632812499889,"velocity":0.84251968503937,"duration":0.203125},{"name":"B4","midi":71,"time":697.5729166666555,"velocity":0.84251968503937,"duration":0.09244791666662877},{"name":"C5","midi":72,"time":697.6614583333221,"velocity":0.84251968503937,"duration":0.09114583333337123},{"name":"B4","midi":71,"time":697.7486979166555,"velocity":0.84251968503937,"duration":0.09114583333337123},{"name":"C5","midi":72,"time":697.8359374999889,"velocity":0.84251968503937,"duration":0.09114583333337123},{"name":"B4","midi":71,"time":697.9231770833222,"velocity":0.84251968503937,"duration":0.73828125},{"name":"C#5","midi":73,"time":698.6614583333222,"velocity":0.84251968503937,"duration":0.43098958333337123},{"name":"D5","midi":74,"time":699.0950520833222,"velocity":0.84251968503937,"duration":0.43098958333337123},{"name":"G#4","midi":68,"time":699.0950520833222,"velocity":0.84251968503937,"duration":0.8580729166666288},{"name":"E4","midi":64,"time":699.0950520833222,"velocity":0.84251968503937,"duration":1.736979166666515},{"name":"E3","midi":52,"time":699.0950520833222,"velocity":0.84251968503937,"duration":0.8645833333332575},{"name":"E5","midi":76,"time":699.5286458333222,"velocity":0.84251968503937,"duration":0.43098958333325754},{"name":"D5","midi":74,"time":699.9622395833221,"velocity":0.84251968503937,"duration":0.21484375},{"name":"A4","midi":69,"time":699.9622395833221,"velocity":0.84251968503937,"duration":0.8697916666666288},{"name":"G3","midi":55,"time":699.9622395833221,"velocity":0.84251968503937,"duration":0.8697916666666288},{"name":"C#5","midi":73,"time":700.1796874999887,"velocity":0.84251968503937,"duration":0.10677083333337123},{"name":"D5","midi":74,"time":700.2890624999887,"velocity":0.84251968503937,"duration":0.10677083333337123},{"name":"C#5","midi":73,"time":700.3984374999887,"velocity":0.84251968503937,"duration":0.10677083333337123},{"name":"D5","midi":74,"time":700.5078124999887,"velocity":0.84251968503937,"duration":0.10677083333337123},{"name":"C#5","midi":73,"time":700.6171874999887,"velocity":0.84251968503937,"duration":0.6328125},{"name":"G4","midi":67,"time":700.8346354166554,"velocity":0.84251968503937,"duration":0.8580729166666288},{"name":"D4","midi":62,"time":700.8346354166554,"velocity":0.84251968503937,"duration":0.8645833333332575},{"name":"A#3","midi":58,"time":700.8346354166554,"velocity":0.84251968503937,"duration":0.8645833333332575},{"name":"D5","midi":74,"time":701.2682291666554,"velocity":0.84251968503937,"duration":0.43098958333325754},{"name":"E5","midi":76,"time":701.7018229166553,"velocity":0.84251968503937,"duration":0.21484375},{"name":"A#4","midi":70,"time":701.7018229166553,"velocity":0.84251968503937,"duration":0.8606770833332575},{"name":"G3","midi":55,"time":701.7018229166553,"velocity":0.84251968503937,"duration":0.8671874999998863},{"name":"C#3","midi":49,"time":701.7018229166553,"velocity":0.84251968503937,"duration":0.8671874999998863},{"name":"F5","midi":77,"time":701.9192708333219,"velocity":0.84251968503937,"duration":0.21484375},{"name":"E5","midi":76,"time":702.1367187499885,"velocity":0.84251968503937,"duration":0.21484375},{"name":"F5","midi":77,"time":702.3541666666551,"velocity":0.84251968503937,"duration":0.21484375},{"name":"G5","midi":79,"time":702.5716145833218,"velocity":0.84251968503937,"duration":0.21484375},{"name":"A4","midi":69,"time":702.5716145833218,"velocity":0.84251968503937,"duration":0.87109375},{"name":"D3","midi":50,"time":702.5716145833218,"velocity":0.84251968503937,"duration":1.7408854166666288},{"name":"D4","midi":62,"time":702.5716145833218,"velocity":0.84251968503937,"duration":0.87109375},{"name":"F5","midi":77,"time":702.7890624999884,"velocity":0.84251968503937,"duration":0.10677083333337123},{"name":"G5","midi":79,"time":702.8984374999884,"velocity":0.84251968503937,"duration":0.10677083333337123},{"name":"F5","midi":77,"time":703.0078124999884,"velocity":0.84251968503937,"duration":0.10677083333337123},{"name":"G5","midi":79,"time":703.1171874999884,"velocity":0.84251968503937,"duration":0.10677083333337123},{"name":"F5","midi":77,"time":703.2265624999884,"velocity":0.84251968503937,"duration":0.10677083333337123},{"name":"G5","midi":79,"time":703.3359374999884,"velocity":0.84251968503937,"duration":0.10677083333337123},{"name":"F5","midi":77,"time":703.4453124999884,"velocity":0.84251968503937,"duration":0.10677083333337123},{"name":"G#4","midi":68,"time":703.4453124999884,"velocity":0.84251968503937,"duration":1.30078125},{"name":"B3","midi":59,"time":703.4453124999884,"velocity":0.84251968503937,"duration":1.30078125},{"name":"G5","midi":79,"time":703.5546874999884,"velocity":0.84251968503937,"duration":0.10677083333337123},{"name":"F5","midi":77,"time":703.6640624999884,"velocity":0.84251968503937,"duration":0.21484375},{"name":"E5","midi":76,"time":703.881510416655,"velocity":0.84251968503937,"duration":0.43098958333337123},{"name":"E5","midi":76,"time":704.315104166655,"velocity":0.84251968503937,"duration":2.4739583333333712},{"name":"A3","midi":57,"time":704.315104166655,"velocity":0.84251968503937,"duration":2.59765625},{"name":"G#4","midi":68,"time":704.748697916655,"velocity":0.84251968503937,"duration":0.43098958333337123},{"name":"B3","midi":59,"time":704.748697916655,"velocity":0.84251968503937,"duration":0.43098958333337123},{"name":"A4","midi":69,"time":705.182291666655,"velocity":0.84251968503937,"duration":1.6927083333333712},{"name":"C#4","midi":61,"time":705.182291666655,"velocity":0.84251968503937,"duration":1.6927083333333712},{"name":"E5","midi":76,"time":706.9179687499884,"velocity":0.84251968503937,"duration":0.8658854166666288},{"name":"A4","midi":69,"time":706.9179687499884,"velocity":0.84251968503937,"duration":0.8658854166666288},{"name":"C#4","midi":61,"time":706.9179687499884,"velocity":0.84251968503937,"duration":0.8658854166666288},{"name":"A3","midi":57,"time":706.9179687499884,"velocity":0.84251968503937,"duration":0.8658854166666288},{"name":"A#4","midi":70,"time":707.7864583333217,"velocity":0.84251968503937,"duration":1.2981770833331439},{"name":"E5","midi":76,"time":707.7864583333217,"velocity":0.84251968503937,"duration":2.59895833333303},{"name":"C#4","midi":61,"time":707.7864583333217,"velocity":0.84251968503937,"duration":2.59895833333303},{"name":"A3","midi":57,"time":707.7864583333217,"velocity":0.84251968503937,"duration":0.203125},{"name":"G3","midi":55,"time":707.998697916655,"velocity":0.84251968503937,"duration":0.09244791666662877},{"name":"A3","midi":57,"time":708.0911458333217,"velocity":0.84251968503937,"duration":0.09244791666662877},{"name":"G3","midi":55,"time":708.1835937499883,"velocity":0.84251968503937,"duration":0.09244791666662877},{"name":"A3","midi":57,"time":708.2760416666549,"velocity":0.84251968503937,"duration":0.09244791666662877},{"name":"G3","midi":55,"time":708.3684895833215,"velocity":0.84251968503937,"duration":0.09244791666662877},{"name":"A3","midi":57,"time":708.4609374999882,"velocity":0.84251968503937,"duration":0.09244791666662877},{"name":"G3","midi":55,"time":708.5533854166548,"velocity":0.84251968503937,"duration":0.5208333333333712},{"name":"A4","midi":69,"time":709.0872395833214,"velocity":0.84251968503937,"duration":0.43098958333337123},{"name":"A3","midi":57,"time":709.0872395833214,"velocity":0.84251968503937,"duration":0.43098958333337123},{"name":"G4","midi":67,"time":709.5208333333214,"velocity":0.84251968503937,"duration":0.8671874999998863},{"name":"A#3","midi":58,"time":709.5208333333214,"velocity":0.84251968503937,"duration":0.21484375},{"name":"G3","midi":55,"time":709.7382812499881,"velocity":0.84251968503937,"duration":0.21484375},{"name":"A3","midi":57,"time":709.9557291666547,"velocity":0.84251968503937,"duration":0.43229166666662877},{"name":"D#5","midi":75,"time":710.390624999988,"velocity":0.84251968503937,"duration":1.73828125},{"name":"F4","midi":65,"time":710.390624999988,"velocity":0.84251968503937,"duration":2.6041666666666288},{"name":"A#3","midi":58,"time":710.390624999988,"velocity":0.84251968503937,"duration":0.21484375},{"name":"C4","midi":60,"time":710.390624999988,"velocity":0.84251968503937,"duration":1.73828125},{"name":"A3","midi":57,"time":710.6080729166546,"velocity":0.84251968503937,"duration":0.10677083333337123},{"name":"A#3","midi":58,"time":710.7174479166546,"velocity":0.84251968503937,"duration":0.10677083333337123},{"name":"A3","midi":57,"time":710.8268229166546,"velocity":0.84251968503937,"duration":0.10677083333337123},{"name":"A#3","midi":58,"time":710.9361979166546,"velocity":0.84251968503937,"duration":0.10677083333337123},{"name":"A3","midi":57,"time":711.0455729166546,"velocity":0.84251968503937,"duration":0.10677083333337123},{"name":"A#3","midi":58,"time":711.1549479166546,"velocity":0.84251968503937,"duration":0.10677083333337123},{"name":"A3","midi":57,"time":711.2643229166546,"velocity":0.84251968503937,"duration":0.4296875},{"name":"A3","midi":57,"time":711.6979166666546,"velocity":0.84251968503937,"duration":0.43098958333337123},{"name":"D5","midi":74,"time":712.1315104166546,"velocity":0.84251968503937,"duration":0.8658854166666288},{"name":"A#3","midi":58,"time":712.1315104166546,"velocity":0.84251968503937,"duration":0.43098958333337123},{"name":"A3","midi":57,"time":712.5651041666546,"velocity":0.84251968503937,"duration":0.43229166666662877},{"name":"G4","midi":67,"time":712.9999999999878,"velocity":0.84251968503937,"duration":0.8658854166666288},{"name":"E5","midi":76,"time":712.9999999999878,"velocity":0.84251968503937,"duration":1.2994791666666288},{"name":"G3","midi":55,"time":712.9999999999878,"velocity":0.84251968503937,"duration":0.8658854166666288},{"name":"A#3","midi":58,"time":712.9999999999878,"velocity":0.84251968503937,"duration":0.8658854166666288},{"name":"A4","midi":69,"time":713.8684895833211,"velocity":0.84251968503937,"duration":0.8580729166666288},{"name":"C4","midi":60,"time":713.8684895833211,"velocity":0.84251968503937,"duration":0.8645833333332575},{"name":"F3","midi":53,"time":713.8684895833211,"velocity":0.84251968503937,"duration":0.8645833333332575},{"name":"F5","midi":77,"time":714.3020833333211,"velocity":0.84251968503937,"duration":0.43098958333325754},{"name":"G4","midi":67,"time":714.735677083321,"velocity":0.84251968503937,"duration":1.7278645833332575},{"name":"C4","midi":60,"time":714.735677083321,"velocity":0.84251968503937,"duration":1.7278645833332575},{"name":"F5","midi":77,"time":714.735677083321,"velocity":0.84251968503937,"duration":0.24348958333337123},{"name":"E5","midi":76,"time":714.9921874999877,"velocity":0.84251968503937,"duration":0.09244791666662877},{"name":"F5","midi":77,"time":715.0885416666544,"velocity":0.84251968503937,"duration":0.09244791666662877},{"name":"E5","midi":76,"time":715.184895833321,"velocity":0.84251968503937,"duration":0.09244791666662877},{"name":"F5","midi":77,"time":715.2812499999876,"velocity":0.84251968503937,"duration":0.09244791666662877},{"name":"E5","midi":76,"time":715.3776041666542,"velocity":0.84251968503937,"duration":0.6588541666666288},{"name":"D4","midi":62,"time":715.5989583333209,"velocity":0.84251968503937,"duration":0.8645833333333712},{"name":"D5","midi":74,"time":716.0325520833209,"velocity":0.84251968503937,"duration":0.43098958333337123},{"name":"G4","midi":67,"time":716.4661458333209,"velocity":0.84251968503937,"duration":0.8424479166666288},{"name":"C5","midi":72,"time":716.4661458333209,"velocity":0.84251968503937,"duration":0.8424479166666288},{"name":"E4","midi":64,"time":716.4661458333209,"velocity":0.84251968503937,"duration":0.8424479166666288},{"name":"A#3","midi":58,"time":716.4661458333209,"velocity":0.84251968503937,"duration":0.8658854166666288},{"name":"C5","midi":72,"time":717.3346354166541,"velocity":0.84251968503937,"duration":2.600260416666515},{"name":"F5","midi":77,"time":717.3346354166541,"velocity":0.84251968503937,"duration":0.8658854166666288},{"name":"F4","midi":65,"time":717.3346354166541,"velocity":0.84251968503937,"duration":4.339843749999545},{"name":"A3","midi":57,"time":717.3346354166541,"velocity":0.84251968503937,"duration":0.8658854166666288},{"name":"G5","midi":79,"time":718.2031249999874,"velocity":0.84251968503937,"duration":1.2994791666666288},{"name":"G3","midi":55,"time":718.2031249999874,"velocity":0.84251968503937,"duration":0.8658854166666288},{"name":"F3","midi":53,"time":719.0716145833206,"velocity":0.84251968503937,"duration":0.8658854166666288},{"name":"A5","midi":81,"time":719.5052083333206,"velocity":0.84251968503937,"duration":0.43229166666662877},{"name":"D5","midi":74,"time":719.9401041666539,"velocity":0.84251968503937,"duration":0.8580729166666288},{"name":"A5","midi":81,"time":719.9401041666539,"velocity":0.84251968503937,"duration":0.43098958333337123},{"name":"A#3","midi":58,"time":719.9401041666539,"velocity":0.84251968503937,"duration":0.8645833333332575},{"name":"G5","midi":79,"time":720.3736979166539,"velocity":0.84251968503937,"duration":0.43098958333325754},{"name":"C5","midi":72,"time":720.8072916666538,"velocity":0.84251968503937,"duration":0.8580729166666288},{"name":"G5","midi":79,"time":720.8072916666538,"velocity":0.84251968503937,"duration":0.43098958333337123},{"name":"A3","midi":57,"time":720.8072916666538,"velocity":0.84251968503937,"duration":0.8645833333332575},{"name":"A5","midi":81,"time":721.2408854166538,"velocity":0.84251968503937,"duration":0.43098958333325754},{"name":"A5","midi":81,"time":721.6744791666537,"velocity":0.84251968503937,"duration":0.21484375},{"name":"A#4","midi":70,"time":721.6744791666537,"velocity":0.84251968503937,"duration":0.8593749999998863},{"name":"G4","midi":67,"time":721.6744791666537,"velocity":0.84251968503937,"duration":0.8658854166665151},{"name":"G3","midi":55,"time":721.6744791666537,"velocity":0.84251968503937,"duration":0.8658854166665151},{"name":"A#5","midi":82,"time":721.8919270833203,"velocity":0.84251968503937,"duration":0.21484375},{"name":"E5","midi":76,"time":722.1093749999869,"velocity":0.84251968503937,"duration":0.43098958333325754},{"name":"A4","midi":69,"time":722.5429687499868,"velocity":0.84251968503937,"duration":0.8580729166666288},{"name":"F5","midi":77,"time":722.5429687499868,"velocity":0.84251968503937,"duration":0.43098958333337123},{"name":"A3","midi":57,"time":722.5429687499868,"velocity":0.84251968503937,"duration":0.43098958333337123},{"name":"C4","midi":60,"time":722.5429687499868,"velocity":0.84251968503937,"duration":0.43098958333337123},{"name":"D5","midi":74,"time":722.9765624999868,"velocity":0.84251968503937,"duration":0.43098958333325754},{"name":"A#3","midi":58,"time":722.9765624999868,"velocity":0.84251968503937,"duration":0.43098958333325754},{"name":"D5","midi":74,"time":723.4101562499867,"velocity":0.84251968503937,"duration":0.18098958333337123},{"name":"G4","midi":67,"time":723.4101562499867,"velocity":0.84251968503937,"duration":0.43229166666662877},{"name":"C4","midi":60,"time":723.4101562499867,"velocity":0.84251968503937,"duration":2.1692708333329165},{"name":"E5","midi":76,"time":723.5911458333201,"velocity":0.84251968503937,"duration":0.1015625},{"name":"F5","midi":77,"time":723.6861979166534,"velocity":0.84251968503937,"duration":0.10156249999988631},{"name":"E5","midi":76,"time":723.7812499999867,"velocity":0.84251968503937,"duration":0.10156249999988631},{"name":"A4","midi":69,"time":723.84505208332,"velocity":0.84251968503937,"duration":0.43098958333303017},{"name":"F5","midi":77,"time":723.87630208332,"velocity":0.84251968503937,"duration":0.10156249999988631},{"name":"E5","midi":76,"time":723.9713541666532,"velocity":0.84251968503937,"duration":0.10156249999988631},{"name":"F5","midi":77,"time":724.0664062499865,"velocity":0.84251968503937,"duration":0.10156249999988631},{"name":"E5","midi":76,"time":724.1614583333197,"velocity":0.84251968503937,"duration":0.5546874999998863},{"name":"A#4","midi":70,"time":724.2786458333196,"velocity":0.84251968503937,"duration":1.2981770833333712},{"name":"C3","midi":48,"time":724.2786458333196,"velocity":0.84251968503937,"duration":0.8645833333333712},{"name":"F5","midi":77,"time":724.7122395833196,"velocity":0.84251968503937,"duration":0.43098958333337123},{"name":"F5","midi":77,"time":725.1458333333196,"velocity":0.84251968503937,"duration":2.4739583333333712},{"name":"F3","midi":53,"time":725.1458333333196,"velocity":0.84251968503937,"duration":2.59765625},{"name":"G4","midi":67,"time":725.5794270833196,"velocity":0.84251968503937,"duration":0.43098958333337123},{"name":"A#3","midi":58,"time":725.5794270833196,"velocity":0.84251968503937,"duration":0.43098958333337123},{"name":"A4","midi":69,"time":726.0130208333196,"velocity":0.84251968503937,"duration":1.6927083333333712},{"name":"C4","midi":60,"time":726.0130208333196,"velocity":0.84251968503937,"duration":1.6927083333333712},{"name":"D5","midi":74,"time":727.748697916653,"velocity":0.84251968503937,"duration":1.7330729166666288},{"name":"A5","midi":81,"time":727.748697916653,"velocity":0.84251968503937,"duration":0.8658854166666288},{"name":"D4","midi":62,"time":727.748697916653,"velocity":0.84251968503937,"duration":5.195312499999773},{"name":"F#3","midi":54,"time":727.748697916653,"velocity":0.84251968503937,"duration":0.8658854166666288},{"name":"G5","midi":79,"time":728.6171874999862,"velocity":0.84251968503937,"duration":0.43098958333337123},{"name":"E3","midi":52,"time":728.6171874999862,"velocity":0.84251968503937,"duration":0.8645833333333712},{"name":"F#5","midi":78,"time":729.0507812499862,"velocity":0.84251968503937,"duration":0.43098958333337123},{"name":"E5","midi":76,"time":729.4843749999862,"velocity":0.84251968503937,"duration":0.43098958333337123},{"name":"C5","midi":72,"time":729.4843749999862,"velocity":0.84251968503937,"duration":0.8580729166666288},{"name":"F#3","midi":54,"time":729.4843749999862,"velocity":0.84251968503937,"duration":0.8645833333332575},{"name":"D5","midi":74,"time":729.9179687499862,"velocity":0.84251968503937,"duration":0.43098958333325754},{"name":"A#5","midi":82,"time":730.3515624999861,"velocity":0.84251968503937,"duration":0.43098958333337123},{"name":"A#4","midi":70,"time":730.3515624999861,"velocity":0.84251968503937,"duration":1.2981770833333712},{"name":"G3","midi":55,"time":730.3515624999861,"velocity":0.84251968503937,"duration":0.8645833333333712},{"name":"G5","midi":79,"time":730.7851562499861,"velocity":0.84251968503937,"duration":0.43098958333337123},{"name":"E5","midi":76,"time":731.2187499999861,"velocity":0.84251968503937,"duration":1.2981770833333712},{"name":"A3","midi":57,"time":731.2187499999861,"velocity":0.84251968503937,"duration":0.8645833333333712},{"name":"A4","midi":69,"time":731.6523437499861,"velocity":0.84251968503937,"duration":0.43098958333337123},{"name":"G4","midi":67,"time":732.0859374999861,"velocity":0.84251968503937,"duration":0.8580729166666288},{"name":"A#3","midi":58,"time":732.0859374999861,"velocity":0.84251968503937,"duration":0.8645833333332575},{"name":"F5","midi":77,"time":732.5195312499861,"velocity":0.84251968503937,"duration":0.43098958333325754},{"name":"A4","midi":69,"time":732.953124999986,"velocity":0.84251968503937,"duration":0.8580729166666288},{"name":"G5","midi":79,"time":732.953124999986,"velocity":0.84251968503937,"duration":0.43098958333337123},{"name":"A3","midi":57,"time":732.953124999986,"velocity":0.84251968503937,"duration":0.8645833333332575},{"name":"C#4","midi":61,"time":732.953124999986,"velocity":0.84251968503937,"duration":0.8645833333332575},{"name":"E5","midi":76,"time":733.386718749986,"velocity":0.84251968503937,"duration":0.43098958333325754},{"name":"A4","midi":69,"time":733.8203124999859,"velocity":0.84251968503937,"duration":0.8658854166665151},{"name":"D5","midi":74,"time":733.8203124999859,"velocity":0.84251968503937,"duration":0.16536458333337123},{"name":"E4","midi":64,"time":733.8203124999859,"velocity":0.84251968503937,"duration":0.8593749999998863},{"name":"G3","midi":55,"time":733.8203124999859,"velocity":0.84251968503937,"duration":0.43229166666662877},{"name":"C#5","midi":73,"time":733.9882812499859,"velocity":0.84251968503937,"duration":0.1015625},{"name":"D5","midi":74,"time":734.0833333333193,"velocity":0.84251968503937,"duration":0.10156249999988631},{"name":"C#5","midi":73,"time":734.1783854166525,"velocity":0.84251968503937,"duration":0.9414062499998863},{"name":"F3","midi":53,"time":734.2552083333192,"velocity":0.84251968503937,"duration":0.43098958333325754},{"name":"F4","midi":65,"time":734.688802083319,"velocity":0.84251968503937,"duration":0.8580729166666288},{"name":"E3","midi":52,"time":734.688802083319,"velocity":0.84251968503937,"duration":0.43098958333337123},{"name":"A3","midi":57,"time":734.688802083319,"velocity":0.84251968503937,"duration":2.1679687499998863},{"name":"D5","midi":74,"time":735.122395833319,"velocity":0.84251968503937,"duration":0.43098958333325754},{"name":"D3","midi":50,"time":735.122395833319,"velocity":0.84251968503937,"duration":0.43098958333325754},{"name":"E4","midi":64,"time":735.5559895833189,"velocity":0.84251968503937,"duration":2.59765625},{"name":"E5","midi":76,"time":735.5559895833189,"velocity":0.84251968503937,"duration":0.43098958333337123},{"name":"C#3","midi":49,"time":735.5559895833189,"velocity":0.84251968503937,"duration":2.59765625},{"name":"C#5","midi":73,"time":735.9895833333189,"velocity":0.84251968503937,"duration":0.43098958333337123},{"name":"A4","midi":69,"time":736.4231770833189,"velocity":0.84251968503937,"duration":2.1692708333332575},{"name":"A#3","midi":58,"time":736.8567708333189,"velocity":0.84251968503937,"duration":0.43098958333337123},{"name":"A3","midi":57,"time":737.2903645833189,"velocity":0.84251968503937,"duration":0.43098958333337123},{"name":"G3","midi":55,"time":737.7239583333189,"velocity":0.84251968503937,"duration":0.43229166666662877},{"name":"D4","midi":62,"time":738.1588541666522,"velocity":0.84251968503937,"duration":2.16796875},{"name":"C3","midi":48,"time":738.1588541666522,"velocity":0.84251968503937,"duration":1.7317708333333712},{"name":"F#3","midi":54,"time":738.1588541666522,"velocity":0.84251968503937,"duration":1.7317708333333712},{"name":"B4","midi":71,"time":738.5924479166522,"velocity":0.84251968503937,"duration":0.43098958333337123},{"name":"C5","midi":72,"time":739.0260416666522,"velocity":0.84251968503937,"duration":0.43098958333337123},{"name":"A4","midi":69,"time":739.4596354166522,"velocity":0.84251968503937,"duration":0.43098958333337123},{"name":"B4","midi":71,"time":739.8932291666522,"velocity":0.84251968503937,"duration":0.43098958333337123},{"name":"G3","midi":55,"time":739.8932291666522,"velocity":0.84251968503937,"duration":0.8645833333333712},{"name":"B2","midi":47,"time":739.8932291666522,"velocity":0.84251968503937,"duration":1.7317708333333712},{"name":"C#5","midi":73,"time":740.3268229166522,"velocity":0.84251968503937,"duration":0.43098958333337123},{"name":"E4","midi":64,"time":740.3268229166522,"velocity":0.84251968503937,"duration":0.43098958333337123},{"name":"F4","midi":65,"time":740.7604166666522,"velocity":0.84251968503937,"duration":0.43098958333337123},{"name":"D5","midi":74,"time":740.7604166666522,"velocity":0.84251968503937,"duration":0.43098958333337123},{"name":"G#3","midi":56,"time":740.7604166666522,"velocity":0.84251968503937,"duration":0.8645833333333712},{"name":"D4","midi":62,"time":741.1940104166522,"velocity":0.84251968503937,"duration":0.43098958333337123},{"name":"B4","midi":71,"time":741.1940104166522,"velocity":0.84251968503937,"duration":0.43098958333337123},{"name":"C#5","midi":73,"time":741.6276041666522,"velocity":0.84251968503937,"duration":0.43098958333337123},{"name":"E4","midi":64,"time":741.6276041666522,"velocity":0.84251968503937,"duration":0.43098958333337123},{"name":"G3","midi":55,"time":741.6276041666522,"velocity":0.84251968503937,"duration":1.7317708333333712},{"name":"A#2","midi":46,"time":741.6276041666522,"velocity":0.84251968503937,"duration":1.7317708333333712},{"name":"F4","midi":65,"time":742.0611979166522,"velocity":0.84251968503937,"duration":0.43098958333337123},{"name":"D5","midi":74,"time":742.0611979166522,"velocity":0.84251968503937,"duration":0.43098958333337123},{"name":"E5","midi":76,"time":742.4947916666522,"velocity":0.84251968503937,"duration":0.43098958333337123},{"name":"G4","midi":67,"time":742.4947916666522,"velocity":0.84251968503937,"duration":0.43098958333337123},{"name":"C#5","midi":73,"time":742.9283854166522,"velocity":0.84251968503937,"duration":0.43098958333337123},{"name":"E4","midi":64,"time":742.9283854166522,"velocity":0.84251968503937,"duration":0.43098958333337123},{"name":"F4","midi":65,"time":743.3619791666522,"velocity":0.84251968503937,"duration":0.8645833333332575},{"name":"D5","midi":74,"time":743.3619791666522,"velocity":0.84251968503937,"duration":1.0872395833332575},{"name":"A3","midi":57,"time":743.3619791666522,"velocity":0.84251968503937,"duration":0.47916666666662877},{"name":"A2","midi":45,"time":743.3619791666522,"velocity":0.84251968503937,"duration":0.48307291666662877},{"name":"D3","midi":50,"time":743.8372395833188,"velocity":0.84251968503937,"duration":1.3658854166667425},{"name":"G2","midi":43,"time":743.8372395833188,"velocity":0.84251968503937,"duration":0.47526041666662877},{"name":"A#4","midi":70,"time":744.3124999999854,"velocity":0.84251968503937,"duration":0.9010416666667425},{"name":"A2","midi":45,"time":744.3124999999854,"velocity":0.84251968503937,"duration":2.0390625000002274},{"name":"E5","midi":76,"time":744.6002604166521,"velocity":0.84251968503937,"duration":0.1171875},{"name":"D5","midi":74,"time":744.7226562499854,"velocity":0.84251968503937,"duration":0.1171875},{"name":"C#5","midi":73,"time":744.8450520833188,"velocity":0.84251968503937,"duration":0.1171875},{"name":"D5","midi":74,"time":744.9674479166522,"velocity":0.84251968503937,"duration":0.1171875},{"name":"E5","midi":76,"time":745.0898437499856,"velocity":0.84251968503937,"duration":0.125},{"name":"A4","midi":69,"time":745.2174479166522,"velocity":0.84251968503937,"duration":0.5208333333334849},{"name":"F5","midi":77,"time":745.2174479166522,"velocity":0.84251968503937,"duration":0.16927083333337123},{"name":"B2","midi":47,"time":745.2174479166522,"velocity":0.84251968503937,"duration":0.5208333333334849},{"name":"E5","midi":76,"time":745.3749999999856,"velocity":0.84251968503937,"duration":0.16927083333337123},{"name":"F5","midi":77,"time":745.5598958333189,"velocity":0.84251968503937,"duration":0.16927083333337123},{"name":"E5","midi":76,"time":745.7213541666523,"velocity":0.84251968503937,"duration":0.359375},{"name":"G4","midi":67,"time":745.7213541666523,"velocity":0.84251968503937,"duration":1.1640625},{"name":"C#3","midi":49,"time":745.7213541666523,"velocity":0.84251968503937,"duration":0.625},{"name":"D5","midi":74,"time":746.0729166666523,"velocity":0.84251968503937,"duration":0.26041666666662877},{"name":"D2","midi":38,"time":746.3515624999857,"velocity":0.84251968503937,"duration":3.0494791666666288},{"name":"D3","midi":50,"time":746.3515624999857,"velocity":0.84251968503937,"duration":3.0494791666666288},{"name":"D5","midi":74,"time":746.3515624999857,"velocity":0.84251968503937,"duration":3.046875},{"name":"E4","midi":64,"time":746.9023437499857,"velocity":0.84251968503937,"duration":0.5416666666666288},{"name":"F4","midi":65,"time":747.4947916666523,"velocity":0.84251968503937,"duration":2.03125},{"name":"D3","midi":50,"time":749.5286458333189,"velocity":0.84251968503937,"duration":0.7552083333333712},{"name":"D4","midi":62,"time":749.5286458333189,"velocity":0.84251968503937,"duration":0.7552083333333712},{"name":"F5","midi":77,"time":749.5286458333189,"velocity":0.84251968503937,"duration":0.7486979166667425},{"name":"A4","midi":69,"time":749.5286458333189,"velocity":0.84251968503937,"duration":0.5520833333333712},{"name":"C#5","midi":73,"time":749.7174479166523,"velocity":0.84251968503937,"duration":0.1875},{"name":"D5","midi":74,"time":749.9075520833189,"velocity":0.84251968503937,"duration":0.37369791666674246},{"name":"A4","midi":69,"time":750.0963541666523,"velocity":0.84251968503937,"duration":0.1875},{"name":"D4","midi":62,"time":750.2864583333189,"velocity":0.84251968503937,"duration":0.5520833333333712},{"name":"E5","midi":76,"time":750.2864583333189,"velocity":0.84251968503937,"duration":0.9453125000001137},{"name":"A#4","midi":70,"time":750.2864583333189,"velocity":0.84251968503937,"duration":1.5130208333333712},{"name":"F4","midi":65,"time":750.4752604166523,"velocity":0.84251968503937,"duration":0.1875},{"name":"G4","midi":67,"time":750.6653645833189,"velocity":0.84251968503937,"duration":1.1341145833333712},{"name":"D4","midi":62,"time":750.8541666666523,"velocity":0.84251968503937,"duration":0.9479166666666288},{"name":"E4","midi":64,"time":751.0429687499857,"velocity":0.84251968503937,"duration":0.7565104166666288},{"name":"G5","midi":79,"time":751.231770833319,"velocity":0.84251968503937,"duration":0.1875},{"name":"F5","midi":77,"time":751.4218749999857,"velocity":0.84251968503937,"duration":0.1875},{"name":"A5","midi":81,"time":751.6119791666523,"velocity":0.84251968503937,"duration":0.1875},{"name":"E4","midi":64,"time":751.8020833333189,"velocity":0.84251968503937,"duration":0.7578124999998863},{"name":"C#4","midi":61,"time":751.8020833333189,"velocity":0.84251968503937,"duration":0.7578124999998863},{"name":"G5","midi":79,"time":751.8020833333189,"velocity":0.84251968503937,"duration":0.1875},{"name":"A4","midi":69,"time":751.8020833333189,"velocity":0.84251968503937,"duration":0.7513020833332575},{"name":"A#5","midi":82,"time":751.9921874999856,"velocity":0.84251968503937,"duration":0.1875},{"name":"A5","midi":81,"time":752.1822916666522,"velocity":0.84251968503937,"duration":0.1875},{"name":"G5","midi":79,"time":752.3723958333188,"velocity":0.84251968503937,"duration":0.1875},{"name":"C4","midi":60,"time":752.5624999999854,"velocity":0.84251968503937,"duration":1.5117187500001137},{"name":"F#5","midi":78,"time":752.5624999999854,"velocity":0.84251968503937,"duration":0.7539062500001137},{"name":"D4","midi":62,"time":752.7513020833188,"velocity":0.84251968503937,"duration":1.89453125},{"name":"F#4","midi":66,"time":752.9401041666522,"velocity":0.84251968503937,"duration":1.1341145833333712},{"name":"G4","midi":67,"time":753.1289062499856,"velocity":0.84251968503937,"duration":0.1875},{"name":"A4","midi":69,"time":753.3190104166522,"velocity":0.84251968503937,"duration":0.7486979166667425},{"name":"C5","midi":72,"time":753.5078124999856,"velocity":0.84251968503937,"duration":0.1875},{"name":"D5","midi":74,"time":753.6979166666522,"velocity":0.84251968503937,"duration":0.37369791666674246},{"name":"F#5","midi":78,"time":753.8867187499856,"velocity":0.84251968503937,"duration":0.1875},{"name":"A#3","midi":58,"time":754.0768229166522,"velocity":0.84251968503937,"duration":0.7565104166666288},{"name":"G5","midi":79,"time":754.0768229166522,"velocity":0.84251968503937,"duration":0.75},{"name":"C#5","midi":73,"time":754.2656249999856,"velocity":0.84251968503937,"duration":0.1875},{"name":"D5","midi":74,"time":754.4557291666522,"velocity":0.84251968503937,"duration":0.1875},{"name":"A4","midi":69,"time":754.6458333333188,"velocity":0.84251968503937,"duration":0.1875},{"name":"G3","midi":55,"time":754.8359374999854,"velocity":0.84251968503937,"duration":0.75},{"name":"E5","midi":76,"time":754.8359374999854,"velocity":0.84251968503937,"duration":0.9479166666666288},{"name":"A#4","midi":70,"time":754.8359374999854,"velocity":0.84251968503937,"duration":0.7565104166666288},{"name":"F#4","midi":66,"time":755.0247395833188,"velocity":0.84251968503937,"duration":0.1875},{"name":"G4","midi":67,"time":755.2148437499854,"velocity":0.84251968503937,"duration":0.1875},{"name":"D4","midi":62,"time":755.4049479166521,"velocity":0.84251968503937,"duration":0.1875},{"name":"G#3","midi":56,"time":755.5950520833187,"velocity":0.84251968503937,"duration":0.7565104166666288},{"name":"E4","midi":64,"time":755.5950520833187,"velocity":0.84251968503937,"duration":0.7565104166666288},{"name":"B4","midi":71,"time":755.5950520833187,"velocity":0.84251968503937,"duration":0.75},{"name":"D5","midi":74,"time":755.7838541666521,"velocity":0.84251968503937,"duration":0.1875},{"name":"C#5","midi":73,"time":755.9739583333187,"velocity":0.84251968503937,"duration":0.1875},{"name":"D5","midi":74,"time":756.1640624999853,"velocity":0.84251968503937,"duration":0.1875},{"name":"A3","midi":57,"time":756.354166666652,"velocity":0.84251968503937,"duration":1.5182291666664014},{"name":"E4","midi":64,"time":756.354166666652,"velocity":0.84251968503937,"duration":1.1380208333331439},{"name":"C#5","midi":73,"time":756.354166666652,"velocity":0.84251968503937,"duration":0.1875},{"name":"A4","midi":69,"time":756.354166666652,"velocity":0.84251968503937,"duration":0.9505208333331439},{"name":"E5","midi":76,"time":756.5442708333186,"velocity":0.84251968503937,"duration":0.1875},{"name":"D5","midi":74,"time":756.7343749999852,"velocity":0.84251968503937,"duration":0.1875},{"name":"B4","midi":71,"time":756.9244791666518,"velocity":0.84251968503937,"duration":0.1875},{"name":"C#5","midi":73,"time":757.1145833333185,"velocity":0.84251968503937,"duration":0.1875},{"name":"A4","midi":69,"time":757.3046874999851,"velocity":0.84251968503937,"duration":0.1875},{"name":"D4","midi":62,"time":757.4947916666517,"velocity":0.84251968503937,"duration":0.37760416666662877},{"name":"G#4","midi":68,"time":757.4947916666517,"velocity":0.84251968503937,"duration":0.1875},{"name":"B4","midi":71,"time":757.6848958333184,"velocity":0.84251968503937,"duration":0.1875},{"name":"C#4","midi":61,"time":757.874999999985,"velocity":0.84251968503937,"duration":0.7591145833331439},{"name":"G3","midi":55,"time":757.874999999985,"velocity":0.84251968503937,"duration":0.7591145833331439},{"name":"E4","midi":64,"time":757.874999999985,"velocity":0.84251968503937,"duration":0.7526041666665151},{"name":"A4","midi":69,"time":757.874999999985,"velocity":0.84251968503937,"duration":0.1875},{"name":"C#5","midi":73,"time":758.0651041666516,"velocity":0.84251968503937,"duration":0.1875},{"name":"B4","midi":71,"time":758.2552083333183,"velocity":0.84251968503937,"duration":0.1875},{"name":"D5","midi":74,"time":758.4453124999849,"velocity":0.84251968503937,"duration":0.09244791666662877},{"name":"C#5","midi":73,"time":758.5403645833181,"velocity":0.84251968503937,"duration":0.09375},{"name":"A3","midi":57,"time":758.6367187499848,"velocity":0.84251968503937,"duration":0.7578124999998863},{"name":"F#3","midi":54,"time":758.6367187499848,"velocity":0.84251968503937,"duration":0.7578124999998863},{"name":"C5","midi":72,"time":758.6367187499848,"velocity":0.84251968503937,"duration":0.1875},{"name":"D4","midi":62,"time":758.6367187499848,"velocity":0.84251968503937,"duration":0.7513020833332575},{"name":"D#5","midi":75,"time":758.8268229166514,"velocity":0.84251968503937,"duration":0.1875},{"name":"D5","midi":74,"time":759.016927083318,"velocity":0.84251968503937,"duration":0.1875},{"name":"C5","midi":72,"time":759.2070312499847,"velocity":0.84251968503937,"duration":0.1875},{"name":"F3","midi":53,"time":759.3971354166513,"velocity":0.84251968503937,"duration":1.5117187500001137},{"name":"B4","midi":71,"time":759.3971354166513,"velocity":0.84251968503937,"duration":0.9440104166668561},{"name":"G3","midi":55,"time":759.5859374999847,"velocity":0.84251968503937,"duration":0.5507812500001137},{"name":"B3","midi":59,"time":759.774739583318,"velocity":0.84251968503937,"duration":1.1341145833333712},{"name":"D4","midi":62,"time":759.9635416666514,"velocity":0.84251968503937,"duration":0.9453125},{"name":"G4","midi":67,"time":760.1523437499848,"velocity":0.84251968503937,"duration":0.75},{"name":"A4","midi":69,"time":760.3411458333181,"velocity":0.84251968503937,"duration":0.1875},{"name":"B4","midi":71,"time":760.5312499999848,"velocity":0.84251968503937,"duration":0.1875},{"name":"C#5","midi":73,"time":760.7213541666514,"velocity":0.84251968503937,"duration":0.1875},{"name":"E3","midi":52,"time":760.911458333318,"velocity":0.84251968503937,"duration":0.7578124999998863},{"name":"B3","midi":59,"time":760.911458333318,"velocity":0.84251968503937,"duration":0.7578124999998863},{"name":"E4","midi":64,"time":760.911458333318,"velocity":0.84251968503937,"duration":0.7578124999998863},{"name":"D5","midi":74,"time":760.911458333318,"velocity":0.84251968503937,"duration":0.1875},{"name":"G#4","midi":68,"time":760.911458333318,"velocity":0.84251968503937,"duration":0.7513020833332575},{"name":"F5","midi":77,"time":761.1015624999847,"velocity":0.84251968503937,"duration":0.1875},{"name":"E5","midi":76,"time":761.2916666666513,"velocity":0.84251968503937,"duration":0.1875},{"name":"D5","midi":74,"time":761.4817708333179,"velocity":0.84251968503937,"duration":0.1875},{"name":"G3","midi":55,"time":761.6718749999845,"velocity":0.84251968503937,"duration":0.7539062500001137},{"name":"C#5","midi":73,"time":761.6718749999845,"velocity":0.84251968503937,"duration":0.9466145833333712},{"name":"A#4","midi":70,"time":761.8606770833179,"velocity":0.84251968503937,"duration":0.5507812500001137},{"name":"G4","midi":67,"time":762.0494791666513,"velocity":0.84251968503937,"duration":0.37369791666674246},{"name":"E4","midi":64,"time":762.2382812499847,"velocity":0.84251968503937,"duration":0.37760416666662877},{"name":"C#4","midi":61,"time":762.4283854166513,"velocity":0.84251968503937,"duration":0.1875},{"name":"A#3","midi":58,"time":762.6184895833179,"velocity":0.84251968503937,"duration":0.1875},{"name":"D5","midi":74,"time":762.6184895833179,"velocity":0.84251968503937,"duration":0.1875},{"name":"G3","midi":55,"time":762.8085937499845,"velocity":0.84251968503937,"duration":0.1875},{"name":"C#5","midi":73,"time":762.8085937499845,"velocity":0.84251968503937,"duration":0.1875},{"name":"E3","midi":52,"time":762.9986979166512,"velocity":0.84251968503937,"duration":0.1875},{"name":"D5","midi":74,"time":762.9986979166512,"velocity":0.84251968503937,"duration":0.1875},{"name":"C#3","midi":49,"time":763.1888020833178,"velocity":0.84251968503937,"duration":0.1875},{"name":"E5","midi":76,"time":763.1888020833178,"velocity":0.84251968503937,"duration":0.1875},{"name":"E3","midi":52,"time":763.3789062499844,"velocity":0.84251968503937,"duration":0.1875},{"name":"F5","midi":77,"time":763.3789062499844,"velocity":0.84251968503937,"duration":0.1875},{"name":"C#3","midi":49,"time":763.569010416651,"velocity":0.84251968503937,"duration":0.1875},{"name":"E5","midi":76,"time":763.569010416651,"velocity":0.84251968503937,"duration":0.1875},{"name":"A2","midi":45,"time":763.7591145833177,"velocity":0.84251968503937,"duration":0.1875},{"name":"F5","midi":77,"time":763.7591145833177,"velocity":0.84251968503937,"duration":0.1875},{"name":"D3","midi":50,"time":763.9492187499843,"velocity":0.84251968503937,"duration":1.5208333333325754},{"name":"G5","midi":79,"time":763.9492187499843,"velocity":0.84251968503937,"duration":0.1875},{"name":"F3","midi":53,"time":764.1393229166509,"velocity":0.84251968503937,"duration":0.5546874999996589},{"name":"F5","midi":77,"time":764.1393229166509,"velocity":0.84251968503937,"duration":0.09244791666662877},{"name":"G5","midi":79,"time":764.2343749999842,"velocity":0.84251968503937,"duration":0.09244791666662877},{"name":"A3","midi":57,"time":764.3294270833175,"velocity":0.84251968503937,"duration":0.37630208333314386},{"name":"F5","midi":77,"time":764.3294270833175,"velocity":0.84251968503937,"duration":0.09244791666662877},{"name":"G5","midi":79,"time":764.4244791666507,"velocity":0.84251968503937,"duration":0.09244791666662877},{"name":"D4","midi":62,"time":764.519531249984,"velocity":0.84251968503937,"duration":0.5559895833330302},{"name":"F5","midi":77,"time":764.519531249984,"velocity":0.84251968503937,"duration":0.09244791666662877},{"name":"G5","midi":79,"time":764.6145833333172,"velocity":0.84251968503937,"duration":0.09375},{"name":"F4","midi":65,"time":764.7109374999839,"velocity":0.84251968503937,"duration":0.1874999999998863},{"name":"F5","midi":77,"time":764.7109374999839,"velocity":0.84251968503937,"duration":0.09244791666662877},{"name":"G5","midi":79,"time":764.8059895833171,"velocity":0.84251968503937,"duration":0.09244791666662877},{"name":"A4","midi":69,"time":764.9010416666504,"velocity":0.84251968503937,"duration":0.18880208333325754},{"name":"F5","midi":77,"time":764.9010416666504,"velocity":0.84251968503937,"duration":0.09244791666662877},{"name":"E5","midi":76,"time":764.9960937499836,"velocity":0.84251968503937,"duration":0.09375},{"name":"B3","midi":59,"time":765.0924479166503,"velocity":0.84251968503937,"duration":0.37760416666662877},{"name":"F5","midi":77,"time":765.0924479166503,"velocity":0.84251968503937,"duration":0.375},{"name":"D5","midi":74,"time":765.0924479166503,"velocity":0.84251968503937,"duration":0.1875},{"name":"G#4","midi":68,"time":765.2825520833169,"velocity":0.84251968503937,"duration":0.1875},{"name":"A3","midi":57,"time":765.4726562499835,"velocity":0.84251968503937,"duration":2.270833333333144},{"name":"E5","midi":76,"time":765.4726562499835,"velocity":0.84251968503937,"duration":0.75},{"name":"B3","midi":59,"time":765.6614583333169,"velocity":0.84251968503937,"duration":0.1875},{"name":"G#4","midi":68,"time":765.6614583333169,"velocity":0.84251968503937,"duration":0.1875},{"name":"C#4","midi":61,"time":765.8515624999835,"velocity":0.84251968503937,"duration":0.1875},{"name":"A4","midi":69,"time":765.8515624999835,"velocity":0.84251968503937,"duration":0.1875},{"name":"D4","midi":62,"time":766.0416666666501,"velocity":0.84251968503937,"duration":0.1875},{"name":"B4","midi":71,"time":766.0416666666501,"velocity":0.84251968503937,"duration":0.1875},{"name":"E4","midi":64,"time":766.2317708333168,"velocity":0.84251968503937,"duration":1.514322916666515},{"name":"C#5","midi":73,"time":766.2317708333168,"velocity":0.84251968503937,"duration":0.9544270833332575},{"name":"E5","midi":76,"time":766.4205729166501,"velocity":0.84251968503937,"duration":0.1875},{"name":"A5","midi":81,"time":766.6106770833168,"velocity":0.84251968503937,"duration":0.1875},{"name":"G#5","midi":80,"time":766.8007812499834,"velocity":0.84251968503937,"duration":0.1875},{"name":"A5","midi":81,"time":766.99088541665,"velocity":0.84251968503937,"duration":0.7552083333332575},{"name":"B4","midi":71,"time":767.17838541665,"velocity":0.84251968503937,"duration":0.1875},{"name":"C#5","midi":73,"time":767.3684895833167,"velocity":0.84251968503937,"duration":0.1875},{"name":"D5","midi":74,"time":767.5585937499833,"velocity":0.84251968503937,"duration":0.1875},{"name":"A3","midi":57,"time":767.7486979166499,"velocity":0.84251968503937,"duration":0.7486979166667425},{"name":"E5","midi":76,"time":767.7486979166499,"velocity":0.84251968503937,"duration":0.7486979166667425},{"name":"D4","midi":62,"time":767.9374999999833,"velocity":0.84251968503937,"duration":0.1875},{"name":"C#4","midi":61,"time":768.1276041666499,"velocity":0.84251968503937,"duration":1.7005208333331439},{"name":"F4","midi":65,"time":768.3164062499833,"velocity":0.84251968503937,"duration":0.1875},{"name":"G3","midi":55,"time":768.5065104166499,"velocity":0.84251968503937,"duration":0.9479166666665151},{"name":"E4","midi":64,"time":768.5065104166499,"velocity":0.84251968503937,"duration":0.1875},{"name":"E5","midi":76,"time":768.5065104166499,"velocity":0.84251968503937,"duration":2.27473958333303},{"name":"A4","midi":69,"time":768.6966145833165,"velocity":0.84251968503937,"duration":0.1875},{"name":"G4","midi":67,"time":768.8867187499832,"velocity":0.84251968503937,"duration":0.1875},{"name":"A#4","midi":70,"time":769.0768229166498,"velocity":0.84251968503937,"duration":0.1875},{"name":"A4","midi":69,"time":769.2669270833164,"velocity":0.84251968503937,"duration":0.7578124999998863},{"name":"A#3","midi":58,"time":769.4570312499831,"velocity":0.84251968503937,"duration":0.1875},{"name":"A3","midi":57,"time":769.6471354166497,"velocity":0.84251968503937,"duration":0.1875},{"name":"C4","midi":60,"time":769.8372395833163,"velocity":0.84251968503937,"duration":0.1875},{"name":"A#3","midi":58,"time":770.027343749983,"velocity":0.84251968503937,"duration":0.5520833333333712},{"name":"G4","midi":67,"time":770.027343749983,"velocity":0.84251968503937,"duration":0.7565104166666288},{"name":"G3","midi":55,"time":770.2161458333163,"velocity":0.84251968503937,"duration":0.1875},{"name":"A3","midi":57,"time":770.406249999983,"velocity":0.84251968503937,"duration":0.1875},{"name":"A#3","midi":58,"time":770.5963541666496,"velocity":0.84251968503937,"duration":0.1875},{"name":"C4","midi":60,"time":770.7864583333162,"velocity":0.84251968503937,"duration":0.7486979166667425},{"name":"A3","midi":57,"time":770.7864583333162,"velocity":0.84251968503937,"duration":1.5143229166666288},{"name":"D#5","midi":75,"time":770.7864583333162,"velocity":0.84251968503937,"duration":1.5143229166666288},{"name":"C5","midi":72,"time":770.9752604166496,"velocity":0.84251968503937,"duration":1.3229166666666288},{"name":"A4","midi":69,"time":771.164062499983,"velocity":0.84251968503937,"duration":0.1875},{"name":"G4","midi":67,"time":771.3541666666496,"velocity":0.84251968503937,"duration":0.1875},{"name":"F4","midi":65,"time":771.5442708333162,"velocity":0.84251968503937,"duration":0.9479166666666288},{"name":"D#4","midi":63,"time":771.7330729166496,"velocity":0.84251968503937,"duration":0.1875},{"name":"D4","midi":62,"time":771.9231770833162,"velocity":0.84251968503937,"duration":0.1875},{"name":"C4","midi":60,"time":772.1132812499828,"velocity":0.84251968503937,"duration":0.1875},{"name":"A#3","midi":58,"time":772.3033854166495,"velocity":0.84251968503937,"duration":0.75},{"name":"D5","midi":74,"time":772.3033854166495,"velocity":0.84251968503937,"duration":0.9479166666666288},{"name":"A4","midi":69,"time":772.4921874999828,"velocity":0.84251968503937,"duration":0.1875},{"name":"A3","midi":57,"time":772.6822916666495,"velocity":0.84251968503937,"duration":0.37760416666662877},{"name":"A#4","midi":70,"time":772.6822916666495,"velocity":0.84251968503937,"duration":0.1875},{"name":"F4","midi":65,"time":772.8723958333161,"velocity":0.84251968503937,"duration":0.1875},{"name":"A#3","midi":58,"time":773.0624999999827,"velocity":0.84251968503937,"duration":0.7565104166666288},{"name":"G3","midi":55,"time":773.0624999999827,"velocity":0.84251968503937,"duration":0.7565104166666288},{"name":"G4","midi":67,"time":773.0624999999827,"velocity":0.84251968503937,"duration":0.75},{"name":"A#4","midi":70,"time":773.2513020833161,"velocity":0.84251968503937,"duration":0.1875},{"name":"D5","midi":74,"time":773.4414062499827,"velocity":0.84251968503937,"duration":0.1875},{"name":"E5","midi":76,"time":773.6315104166493,"velocity":0.84251968503937,"duration":0.1875},{"name":"F3","midi":53,"time":773.821614583316,"velocity":0.84251968503937,"duration":0.7513020833332575},{"name":"F5","midi":77,"time":773.821614583316,"velocity":0.84251968503937,"duration":0.1875},{"name":"A4","midi":69,"time":773.821614583316,"velocity":0.84251968503937,"duration":0.7513020833332575},{"name":"C4","midi":60,"time":774.0117187499826,"velocity":0.84251968503937,"duration":0.1875},{"name":"E5","midi":76,"time":774.0117187499826,"velocity":0.84251968503937,"duration":0.1875},{"name":"D4","midi":62,"time":774.2018229166492,"velocity":0.84251968503937,"duration":0.1875},{"name":"F5","midi":77,"time":774.2018229166492,"velocity":0.84251968503937,"duration":0.1875},{"name":"B3","midi":59,"time":774.3919270833159,"velocity":0.84251968503937,"duration":0.1875},{"name":"D5","midi":74,"time":774.3919270833159,"velocity":0.84251968503937,"duration":0.1875},{"name":"C4","midi":60,"time":774.5820312499825,"velocity":0.84251968503937,"duration":1.5182291666664014},{"name":"E5","midi":76,"time":774.5820312499825,"velocity":0.84251968503937,"duration":0.1875},{"name":"G4","midi":67,"time":774.5820312499825,"velocity":0.84251968503937,"duration":1.1380208333331439},{"name":"G5","midi":79,"time":774.7721354166491,"velocity":0.84251968503937,"duration":0.1875},{"name":"G3","midi":55,"time":774.9622395833157,"velocity":0.84251968503937,"duration":0.37760416666662877},{"name":"F5","midi":77,"time":774.9622395833157,"velocity":0.84251968503937,"duration":0.1875},{"name":"D5","midi":74,"time":775.1523437499824,"velocity":0.84251968503937,"duration":0.1875},{"name":"C3","midi":48,"time":775.342447916649,"velocity":0.84251968503937,"duration":0.37760416666662877},{"name":"E5","midi":76,"time":775.342447916649,"velocity":0.84251968503937,"duration":0.1875},{"name":"C5","midi":72,"time":775.5325520833156,"velocity":0.84251968503937,"duration":0.1875},{"name":"G3","midi":55,"time":775.7226562499823,"velocity":0.84251968503937,"duration":0.37760416666662877},{"name":"B4","midi":71,"time":775.7226562499823,"velocity":0.84251968503937,"duration":0.1875},{"name":"F4","midi":65,"time":775.7226562499823,"velocity":0.84251968503937,"duration":0.375},{"name":"D5","midi":74,"time":775.9127604166489,"velocity":0.84251968503937,"duration":0.1875},{"name":"A#3","midi":58,"time":776.1028645833155,"velocity":0.84251968503937,"duration":0.7591145833331439},{"name":"C4","midi":60,"time":776.1028645833155,"velocity":0.84251968503937,"duration":0.7591145833331439},{"name":"E4","midi":64,"time":776.1028645833155,"velocity":0.84251968503937,"duration":0.7526041666665151},{"name":"C5","midi":72,"time":776.1028645833155,"velocity":0.84251968503937,"duration":0.1875},{"name":"E5","midi":76,"time":776.2929687499822,"velocity":0.84251968503937,"duration":0.1875},{"name":"D5","midi":74,"time":776.4830729166488,"velocity":0.84251968503937,"duration":0.1875},{"name":"F5","midi":77,"time":776.6731770833154,"velocity":0.84251968503937,"duration":0.09244791666662877},{"name":"E5","midi":76,"time":776.7682291666487,"velocity":0.84251968503937,"duration":0.09375},{"name":"A3","midi":57,"time":776.8645833333153,"velocity":0.84251968503937,"duration":1.1354166666666288},{"name":"F5","midi":77,"time":776.8645833333153,"velocity":0.84251968503937,"duration":0.7565104166666288},{"name":"C4","midi":60,"time":777.0533854166487,"velocity":0.84251968503937,"duration":0.1875},{"name":"F4","midi":65,"time":777.2434895833153,"velocity":0.84251968503937,"duration":0.1875},{"name":"G4","midi":67,"time":777.4335937499819,"velocity":0.84251968503937,"duration":0.1875},{"name":"A4","midi":69,"time":777.6236979166486,"velocity":0.84251968503937,"duration":0.75},{"name":"C5","midi":72,"time":777.8124999999819,"velocity":0.84251968503937,"duration":0.1875},{"name":"G3","midi":55,"time":778.0026041666486,"velocity":0.84251968503937,"duration":0.37760416666662877},{"name":"F5","midi":77,"time":778.0026041666486,"velocity":0.84251968503937,"duration":0.1875},{"name":"G5","midi":79,"time":778.1927083333152,"velocity":0.84251968503937,"duration":0.1875},{"name":"F3","midi":53,"time":778.3828124999818,"velocity":0.84251968503937,"duration":0.37630208333337123},{"name":"A5","midi":81,"time":778.3828124999818,"velocity":0.84251968503937,"duration":1.1354166666666288},{"name":"E5","midi":76,"time":778.5716145833152,"velocity":0.84251968503937,"duration":0.1875},{"name":"A3","midi":57,"time":778.7617187499818,"velocity":0.84251968503937,"duration":0.37760416666662877},{"name":"F5","midi":77,"time":778.7617187499818,"velocity":0.84251968503937,"duration":0.1875},{"name":"C5","midi":72,"time":778.9518229166484,"velocity":0.84251968503937,"duration":0.1875},{"name":"A#3","midi":58,"time":779.1419270833151,"velocity":0.84251968503937,"duration":1.1354166666666288},{"name":"D5","midi":74,"time":779.1419270833151,"velocity":0.84251968503937,"duration":0.75},{"name":"D4","midi":62,"time":779.3307291666484,"velocity":0.84251968503937,"duration":0.1875},{"name":"G4","midi":67,"time":779.5208333333151,"velocity":0.84251968503937,"duration":0.1875},{"name":"G5","midi":79,"time":779.5208333333151,"velocity":0.84251968503937,"duration":0.37760416666662877},{"name":"A4","midi":69,"time":779.7109374999817,"velocity":0.84251968503937,"duration":0.1875},{"name":"A#4","midi":70,"time":779.9010416666483,"velocity":0.84251968503937,"duration":0.75},{"name":"D5","midi":74,"time":780.0898437499817,"velocity":0.84251968503937,"duration":0.1875},{"name":"A3","midi":57,"time":780.2799479166483,"velocity":0.84251968503937,"duration":0.37760416666662877},{"name":"G5","midi":79,"time":780.2799479166483,"velocity":0.84251968503937,"duration":0.1875},{"name":"A5","midi":81,"time":780.470052083315,"velocity":0.84251968503937,"duration":0.1875},{"name":"G3","midi":55,"time":780.6601562499816,"velocity":0.84251968503937,"duration":0.37760416666662877},{"name":"A#5","midi":82,"time":780.6601562499816,"velocity":0.84251968503937,"duration":0.1875},{"name":"F5","midi":77,"time":780.8502604166482,"velocity":0.84251968503937,"duration":0.1875},{"name":"C4","midi":60,"time":781.0403645833148,"velocity":0.84251968503937,"duration":0.75},{"name":"A#3","midi":58,"time":781.0403645833148,"velocity":0.84251968503937,"duration":0.37760416666662877},{"name":"G5","midi":79,"time":781.0403645833148,"velocity":0.84251968503937,"duration":0.1875},{"name":"G4","midi":67,"time":781.0403645833148,"velocity":0.84251968503937,"duration":0.375},{"name":"E5","midi":76,"time":781.2304687499815,"velocity":0.84251968503937,"duration":0.1875},{"name":"A3","midi":57,"time":781.4205729166481,"velocity":0.84251968503937,"duration":0.37630208333337123},{"name":"F5","midi":77,"time":781.4205729166481,"velocity":0.84251968503937,"duration":0.75},{"name":"C5","midi":72,"time":781.6093749999815,"velocity":0.84251968503937,"duration":0.1875},{"name":"A#3","midi":58,"time":781.7994791666481,"velocity":0.84251968503937,"duration":0.37760416666662877},{"name":"F4","midi":65,"time":781.7994791666481,"velocity":0.84251968503937,"duration":0.75},{"name":"D5","midi":74,"time":781.7994791666481,"velocity":0.84251968503937,"duration":0.1875},{"name":"A#4","midi":70,"time":781.9895833333147,"velocity":0.84251968503937,"duration":0.1875},{"name":"C4","midi":60,"time":782.1796874999814,"velocity":0.84251968503937,"duration":0.75},{"name":"A4","midi":69,"time":782.1796874999814,"velocity":0.84251968503937,"duration":0.75},{"name":"C5","midi":72,"time":782.3684895833147,"velocity":0.84251968503937,"duration":0.1875},{"name":"E4","midi":64,"time":782.5585937499814,"velocity":0.84251968503937,"duration":0.1875},{"name":"E5","midi":76,"time":782.5585937499814,"velocity":0.84251968503937,"duration":0.1875},{"name":"D4","midi":62,"time":782.748697916648,"velocity":0.84251968503937,"duration":0.1875},{"name":"F5","midi":77,"time":782.748697916648,"velocity":0.84251968503937,"duration":0.1875},{"name":"C4","midi":60,"time":782.9388020833146,"velocity":0.84251968503937,"duration":0.75},{"name":"G5","midi":79,"time":782.9388020833146,"velocity":0.84251968503937,"duration":0.1875},{"name":"D5","midi":74,"time":783.1289062499812,"velocity":0.84251968503937,"duration":0.1875},{"name":"C3","midi":48,"time":783.3190104166479,"velocity":0.84251968503937,"duration":0.37630208333337123},{"name":"E5","midi":76,"time":783.3190104166479,"velocity":0.84251968503937,"duration":0.37369791666674246},{"name":"A#4","midi":70,"time":783.5078124999812,"velocity":0.84251968503937,"duration":0.1875},{"name":"F3","midi":53,"time":783.6979166666479,"velocity":0.84251968503937,"duration":1.5143229166666288},{"name":"A4","midi":69,"time":783.6979166666479,"velocity":0.84251968503937,"duration":0.1875},{"name":"G4","midi":67,"time":783.8880208333145,"velocity":0.84251968503937,"duration":0.1875},{"name":"A4","midi":69,"time":784.0781249999811,"velocity":0.84251968503937,"duration":0.1875},{"name":"C5","midi":72,"time":784.2682291666478,"velocity":0.84251968503937,"duration":0.1875},{"name":"F5","midi":77,"time":784.4583333333144,"velocity":0.84251968503937,"duration":1.5130208333333712},{"name":"C5","midi":72,"time":784.6471354166478,"velocity":0.84251968503937,"duration":1.3216145833333712},{"name":"A4","midi":69,"time":784.8359374999811,"velocity":0.84251968503937,"duration":1.1354166666666288},{"name":"F4","midi":65,"time":785.0247395833145,"velocity":0.84251968503937,"duration":0.9492187499998863},{"name":"C4","midi":60,"time":785.2148437499811,"velocity":0.84251968503937,"duration":0.75},{"name":"A#3","midi":58,"time":785.4036458333145,"velocity":0.84251968503937,"duration":0.1875},{"name":"A3","midi":57,"time":785.5937499999811,"velocity":0.84251968503937,"duration":0.1875},{"name":"G3","midi":55,"time":785.7838541666478,"velocity":0.84251968503937,"duration":0.1875},{"name":"F#3","midi":54,"time":785.9739583333144,"velocity":0.84251968503937,"duration":0.9453125000001137},{"name":"A3","midi":57,"time":786.1627604166478,"velocity":0.84251968503937,"duration":0.5507812500001137},{"name":"D4","midi":62,"time":786.3515624999811,"velocity":0.84251968503937,"duration":0.37369791666674246},{"name":"F#4","midi":66,"time":786.5403645833145,"velocity":0.84251968503937,"duration":0.1875},{"name":"A4","midi":69,"time":786.7304687499811,"velocity":0.84251968503937,"duration":0.75},{"name":"G3","midi":55,"time":786.9192708333145,"velocity":0.84251968503937,"duration":0.1875},{"name":"D5","midi":74,"time":786.9192708333145,"velocity":0.84251968503937,"duration":0.5533854166666288},{"name":"A3","midi":57,"time":787.1093749999811,"velocity":0.84251968503937,"duration":0.1875},{"name":"F#5","midi":78,"time":787.1093749999811,"velocity":0.84251968503937,"duration":0.375},{"name":"A#3","midi":58,"time":787.2994791666478,"velocity":0.84251968503937,"duration":0.1875},{"name":"G5","midi":79,"time":787.2994791666478,"velocity":0.84251968503937,"duration":0.1875},{"name":"C4","midi":60,"time":787.4895833333144,"velocity":0.84251968503937,"duration":0.1875},{"name":"A5","midi":81,"time":787.4895833333144,"velocity":0.84251968503937,"duration":0.1875},{"name":"D4","midi":62,"time":787.679687499981,"velocity":0.84251968503937,"duration":0.1875},{"name":"A#5","midi":82,"time":787.679687499981,"velocity":0.84251968503937,"duration":0.1875},{"name":"E4","midi":64,"time":787.8697916666476,"velocity":0.84251968503937,"duration":0.1875},{"name":"C6","midi":84,"time":787.8697916666476,"velocity":0.84251968503937,"duration":0.1875},{"name":"F#4","midi":66,"time":788.0598958333143,"velocity":0.84251968503937,"duration":0.1875},{"name":"A5","midi":81,"time":788.0598958333143,"velocity":0.84251968503937,"duration":0.1875},{"name":"G4","midi":67,"time":788.2499999999809,"velocity":0.84251968503937,"duration":1.1380208333331439},{"name":"A#5","midi":82,"time":788.2499999999809,"velocity":0.84251968503937,"duration":0.1875},{"name":"G5","midi":79,"time":788.4401041666475,"velocity":0.84251968503937,"duration":0.1875},{"name":"G3","midi":55,"time":788.6302083333142,"velocity":0.84251968503937,"duration":0.37760416666662877},{"name":"E5","midi":76,"time":788.6302083333142,"velocity":0.84251968503937,"duration":0.1875},{"name":"G5","midi":79,"time":788.8203124999808,"velocity":0.84251968503937,"duration":0.1875},{"name":"A3","midi":57,"time":789.0104166666474,"velocity":0.84251968503937,"duration":0.7513020833332575},{"name":"C#5","midi":73,"time":789.0104166666474,"velocity":0.84251968503937,"duration":0.1875},{"name":"F5","midi":77,"time":789.200520833314,"velocity":0.84251968503937,"duration":0.1875},{"name":"C#4","midi":61,"time":789.3906249999807,"velocity":0.84251968503937,"duration":0.37760416666662877},{"name":"E5","midi":76,"time":789.3906249999807,"velocity":0.84251968503937,"duration":0.1875},{"name":"A5","midi":81,"time":789.5807291666473,"velocity":0.84251968503937,"duration":0.1875},{"name":"A#3","midi":58,"time":789.7708333333139,"velocity":0.84251968503937,"duration":0.7513020833332575},{"name":"G5","midi":79,"time":789.7708333333139,"velocity":0.84251968503937,"duration":0.1875},{"name":"F5","midi":77,"time":789.9609374999806,"velocity":0.84251968503937,"duration":0.1875},{"name":"D4","midi":62,"time":790.1510416666472,"velocity":0.84251968503937,"duration":0.37760416666662877},{"name":"E5","midi":76,"time":790.1510416666472,"velocity":0.84251968503937,"duration":0.1875},{"name":"F5","midi":77,"time":790.3411458333138,"velocity":0.84251968503937,"duration":0.1875},{"name":"E3","midi":52,"time":790.5312499999804,"velocity":0.84251968503937,"duration":0.7513020833332575},{"name":"G5","midi":79,"time":790.5312499999804,"velocity":0.84251968503937,"duration":0.1875},{"name":"E5","midi":76,"time":790.7213541666471,"velocity":0.84251968503937,"duration":0.1875},{"name":"G3","midi":55,"time":790.9114583333137,"velocity":0.84251968503937,"duration":0.37760416666662877},{"name":"C#5","midi":73,"time":790.9114583333137,"velocity":0.84251968503937,"duration":0.1875},{"name":"E5","midi":76,"time":791.1015624999803,"velocity":0.84251968503937,"duration":0.1875},{"name":"F3","midi":53,"time":791.291666666647,"velocity":0.84251968503937,"duration":0.7513020833332575},{"name":"A4","midi":69,"time":791.291666666647,"velocity":0.84251968503937,"duration":0.1875},{"name":"D5","midi":74,"time":791.4817708333136,"velocity":0.84251968503937,"duration":0.1875},{"name":"A3","midi":57,"time":791.6718749999802,"velocity":0.84251968503937,"duration":0.37760416666662877},{"name":"C#5","midi":73,"time":791.6718749999802,"velocity":0.84251968503937,"duration":0.1875},{"name":"F5","midi":77,"time":791.8619791666468,"velocity":0.84251968503937,"duration":0.1875},{"name":"G3","midi":55,"time":792.0520833333135,"velocity":0.84251968503937,"duration":0.7513020833332575},{"name":"E5","midi":76,"time":792.0520833333135,"velocity":0.84251968503937,"duration":0.1875},{"name":"D5","midi":74,"time":792.2421874999801,"velocity":0.84251968503937,"duration":0.1875},{"name":"A#3","midi":58,"time":792.4322916666467,"velocity":0.84251968503937,"duration":0.37760416666662877},{"name":"C#5","midi":73,"time":792.4322916666467,"velocity":0.84251968503937,"duration":0.1875},{"name":"D5","midi":74,"time":792.6223958333134,"velocity":0.84251968503937,"duration":0.1875},{"name":"C#3","midi":49,"time":792.81249999998,"velocity":0.84251968503937,"duration":1.5182291666664014},{"name":"E5","midi":76,"time":792.81249999998,"velocity":0.84251968503937,"duration":0.1875},{"name":"C#5","midi":73,"time":793.0026041666466,"velocity":0.84251968503937,"duration":0.1875},{"name":"E3","midi":52,"time":793.1927083333132,"velocity":0.84251968503937,"duration":0.37760416666662877},{"name":"A4","midi":69,"time":793.1927083333132,"velocity":0.84251968503937,"duration":0.1875},{"name":"C#5","midi":73,"time":793.3828124999799,"velocity":0.84251968503937,"duration":0.1875},{"name":"A3","midi":57,"time":793.5729166666465,"velocity":0.84251968503937,"duration":0.37760416666662877},{"name":"E4","midi":64,"time":793.5729166666465,"velocity":0.84251968503937,"duration":0.1875},{"name":"A4","midi":69,"time":793.7630208333131,"velocity":0.84251968503937,"duration":0.1875},{"name":"E3","midi":52,"time":793.9531249999798,"velocity":0.84251968503937,"duration":0.37760416666662877},{"name":"G4","midi":67,"time":793.9531249999798,"velocity":0.84251968503937,"duration":0.1875},{"name":"A#4","midi":70,"time":794.1432291666464,"velocity":0.84251968503937,"duration":0.1875},{"name":"C#3","midi":49,"time":794.333333333313,"velocity":0.84251968503937,"duration":0.37760416666662877},{"name":"A4","midi":69,"time":794.333333333313,"velocity":0.84251968503937,"duration":0.1875},{"name":"G4","midi":67,"time":794.5234374999797,"velocity":0.84251968503937,"duration":0.1875},{"name":"A2","midi":45,"time":794.7135416666463,"velocity":0.84251968503937,"duration":0.37760416666662877},{"name":"F#4","midi":66,"time":794.7135416666463,"velocity":0.84251968503937,"duration":0.1875},{"name":"G4","midi":67,"time":794.9036458333129,"velocity":0.84251968503937,"duration":0.1875},{"name":"C3","midi":48,"time":795.0937499999795,"velocity":0.84251968503937,"duration":1.5130208333333712},{"name":"A4","midi":69,"time":795.0937499999795,"velocity":0.84251968503937,"duration":0.7539062500001137},{"name":"D3","midi":50,"time":795.2825520833129,"velocity":0.84251968503937,"duration":1.3216145833333712},{"name":"F#3","midi":54,"time":795.4713541666463,"velocity":0.84251968503937,"duration":1.1354166666666288},{"name":"A3","midi":57,"time":795.6601562499797,"velocity":0.84251968503937,"duration":0.9466145833332575},{"name":"D4","midi":62,"time":795.8502604166463,"velocity":0.84251968503937,"duration":0.75},{"name":"F#4","midi":66,"time":796.0390624999797,"velocity":0.84251968503937,"duration":0.1875},{"name":"G4","midi":67,"time":796.2291666666463,"velocity":0.84251968503937,"duration":0.1875},{"name":"A4","midi":69,"time":796.4192708333129,"velocity":0.84251968503937,"duration":0.1875},{"name":"B2","midi":47,"time":796.6302083333129,"velocity":0.84251968503937,"duration":1.5117187500001137},{"name":"D3","midi":50,"time":796.8190104166463,"velocity":0.84251968503937,"duration":1.3203125000001137},{"name":"G3","midi":55,"time":797.0078124999797,"velocity":0.84251968503937,"duration":1.1341145833333712},{"name":"B3","midi":59,"time":797.196614583313,"velocity":0.84251968503937,"duration":0.9453125},{"name":"D4","midi":62,"time":797.3854166666464,"velocity":0.84251968503937,"duration":0.75},{"name":"G4","midi":67,"time":797.5742187499798,"velocity":0.84251968503937,"duration":0.1875},{"name":"A4","midi":69,"time":797.7643229166464,"velocity":0.84251968503937,"duration":0.1875},{"name":"B4","midi":71,"time":797.954427083313,"velocity":0.84251968503937,"duration":0.1875},{"name":"A#2","midi":46,"time":798.165364583313,"velocity":0.84251968503937,"duration":1.5104166666668561},{"name":"E3","midi":52,"time":798.3541666666464,"velocity":0.84251968503937,"duration":1.3190104166668561},{"name":"G3","midi":55,"time":798.5429687499798,"velocity":0.84251968503937,"duration":1.1328125000001137},{"name":"C#4","midi":61,"time":798.7317708333131,"velocity":0.84251968503937,"duration":0.1875},{"name":"E4","midi":64,"time":798.9218749999798,"velocity":0.84251968503937,"duration":0.7473958333334849},{"name":"G4","midi":67,"time":799.1106770833131,"velocity":0.84251968503937,"duration":0.5507812500001137},{"name":"A#4","midi":70,"time":799.2994791666465,"velocity":0.84251968503937,"duration":0.37369791666674246},{"name":"C#5","midi":73,"time":799.4882812499799,"velocity":0.84251968503937,"duration":0.1875},{"name":"F3","midi":53,"time":799.6783854166465,"velocity":0.84251968503937,"duration":0.37630208333337123},{"name":"A2","midi":45,"time":799.6783854166465,"velocity":0.84251968503937,"duration":0.37630208333337123},{"name":"D5","midi":74,"time":799.6783854166465,"velocity":0.84251968503937,"duration":0.7486979166667425},{"name":"A4","midi":69,"time":799.8671874999799,"velocity":0.84251968503937,"duration":0.1875},{"name":"E3","midi":52,"time":800.0572916666465,"velocity":0.84251968503937,"duration":0.37630208333337123},{"name":"G2","midi":43,"time":800.0572916666465,"velocity":0.84251968503937,"duration":0.37630208333337123},{"name":"A#4","midi":70,"time":800.0572916666465,"velocity":0.84251968503937,"duration":0.37369791666674246},{"name":"E4","midi":64,"time":800.2460937499799,"velocity":0.84251968503937,"duration":0.1875},{"name":"A2","midi":45,"time":800.4361979166465,"velocity":0.84251968503937,"duration":0.1875},{"name":"F4","midi":65,"time":800.4361979166465,"velocity":0.84251968503937,"duration":0.9492187499998863},{"name":"D5","midi":74,"time":800.4361979166465,"velocity":0.84251968503937,"duration":0.9466145833332575},{"name":"C#4","midi":61,"time":800.6263020833131,"velocity":0.84251968503937,"duration":0.1875},{"name":"D4","midi":62,"time":800.8164062499798,"velocity":0.84251968503937,"duration":0.37369791666674246},{"name":"G#3","midi":56,"time":801.0052083333131,"velocity":0.84251968503937,"duration":0.1875},{"name":"A3","midi":57,"time":801.1953124999798,"velocity":0.84251968503937,"duration":0.7486979166667425},{"name":"E4","midi":64,"time":801.3854166666464,"velocity":0.84251968503937,"duration":0.5507812500001137},{"name":"A2","midi":45,"time":801.5742187499798,"velocity":0.84251968503937,"duration":0.37630208333337123},{"name":"G4","midi":67,"time":801.5742187499798,"velocity":0.84251968503937,"duration":0.37369791666674246},{"name":"C#5","midi":73,"time":801.7630208333131,"velocity":0.84251968503937,"duration":0.1875},{"name":"D3","midi":50,"time":801.9531249999798,"velocity":0.84251968503937,"duration":4.856770833333144},{"name":"D5","midi":74,"time":801.9531249999798,"velocity":0.84251968503937,"duration":0.7499999999998863},{"name":"G4","midi":67,"time":802.1627604166464,"velocity":0.84251968503937,"duration":0.1875},{"name":"A#3","midi":58,"time":802.1627604166464,"velocity":0.84251968503937,"duration":0.1875},{"name":"F#4","midi":66,"time":802.352864583313,"velocity":0.84251968503937,"duration":0.1875},{"name":"A3","midi":57,"time":802.352864583313,"velocity":0.84251968503937,"duration":0.1875},{"name":"E4","midi":64,"time":802.5429687499797,"velocity":0.84251968503937,"duration":0.1875},{"name":"G3","midi":55,"time":802.5429687499797,"velocity":0.84251968503937,"duration":0.1875},{"name":"F#4","midi":66,"time":802.7330729166463,"velocity":0.84251968503937,"duration":4.10546875},{"name":"A3","midi":57,"time":802.7330729166463,"velocity":0.84251968503937,"duration":4.10546875},{"name":"A4","midi":69,"time":802.9218749999797,"velocity":0.84251968503937,"duration":0.1875},{"name":"D5","midi":74,"time":803.1119791666463,"velocity":0.84251968503937,"duration":0.23307291666662877},{"name":"C#5","midi":73,"time":803.3229166666463,"velocity":0.84251968503937,"duration":0.23046875},{"name":"D5","midi":74,"time":803.5755208333129,"velocity":0.84251968503937,"duration":3.2552083333333712},{"name":"D3","midi":50,"time":808.8320312499797,"velocity":0.84251968503937,"duration":0.24479166666662877},{"name":"A5","midi":81,"time":808.8320312499797,"velocity":0.84251968503937,"duration":0.48307291666662877},{"name":"F5","midi":77,"time":808.8320312499797,"velocity":0.84251968503937,"duration":0.48307291666662877},{"name":"D4","midi":62,"time":809.0820312499797,"velocity":0.84251968503937,"duration":0.24479166666662877},{"name":"C#4","midi":61,"time":809.3320312499797,"velocity":0.84251968503937,"duration":0.24479166666662877},{"name":"A5","midi":81,"time":809.3320312499797,"velocity":0.84251968503937,"duration":0.48307291666662877},{"name":"E5","midi":76,"time":809.3320312499797,"velocity":0.84251968503937,"duration":0.48307291666662877},{"name":"A3","midi":57,"time":809.5820312499797,"velocity":0.84251968503937,"duration":0.24479166666662877},{"name":"D4","midi":62,"time":809.8320312499797,"velocity":0.84251968503937,"duration":0.24479166666662877},{"name":"F5","midi":77,"time":809.8320312499797,"velocity":0.84251968503937,"duration":0.9947916666666288},{"name":"A#5","midi":82,"time":809.8320312499797,"velocity":0.84251968503937,"duration":0.11979166666662877},{"name":"A5","midi":81,"time":809.9570312499797,"velocity":0.84251968503937,"duration":0.11979166666662877},{"name":"A3","midi":57,"time":810.0820312499797,"velocity":0.84251968503937,"duration":0.24479166666662877},{"name":"A#5","midi":82,"time":810.0820312499797,"velocity":0.84251968503937,"duration":0.11979166666662877},{"name":"A5","midi":81,"time":810.2070312499797,"velocity":0.84251968503937,"duration":0.11979166666662877},{"name":"D3","midi":50,"time":810.3320312499797,"velocity":0.84251968503937,"duration":0.24479166666662877},{"name":"A#5","midi":82,"time":810.3320312499797,"velocity":0.84251968503937,"duration":0.11979166666662877},{"name":"A5","midi":81,"time":810.4570312499797,"velocity":0.84251968503937,"duration":0.11979166666662877},{"name":"C4","midi":60,"time":810.5820312499797,"velocity":0.84251968503937,"duration":0.24479166666662877},{"name":"G5","midi":79,"time":810.5820312499797,"velocity":0.84251968503937,"duration":0.11979166666662877},{"name":"A5","midi":81,"time":810.7070312499797,"velocity":0.84251968503937,"duration":0.11979166666662877},{"name":"A#3","midi":58,"time":810.8320312499797,"velocity":0.84251968503937,"duration":0.24479166666662877},{"name":"A#5","midi":82,"time":810.8320312499797,"velocity":0.84251968503937,"duration":0.48307291666662877},{"name":"G5","midi":79,"time":810.8320312499797,"velocity":0.84251968503937,"duration":0.48307291666662877},{"name":"A3","midi":57,"time":811.0820312499797,"velocity":0.84251968503937,"duration":0.24479166666662877},{"name":"A#3","midi":58,"time":811.3320312499797,"velocity":0.84251968503937,"duration":0.24479166666662877},{"name":"A5","midi":81,"time":811.3320312499797,"velocity":0.84251968503937,"duration":0.48307291666662877},{"name":"F5","midi":77,"time":811.3320312499797,"velocity":0.84251968503937,"duration":0.48307291666662877},{"name":"G3","midi":55,"time":811.5820312499797,"velocity":0.84251968503937,"duration":0.24479166666662877},{"name":"C4","midi":60,"time":811.8320312499797,"velocity":0.84251968503937,"duration":0.24479166666662877},{"name":"E5","midi":76,"time":811.8320312499797,"velocity":0.84251968503937,"duration":0.9947916666666288},{"name":"G5","midi":79,"time":811.8320312499797,"velocity":0.84251968503937,"duration":0.9947916666666288},{"name":"G3","midi":55,"time":812.0820312499797,"velocity":0.84251968503937,"duration":0.24479166666662877},{"name":"C3","midi":48,"time":812.3320312499797,"velocity":0.84251968503937,"duration":0.24479166666662877},{"name":"G3","midi":55,"time":812.5820312499797,"velocity":0.84251968503937,"duration":0.24479166666662877},{"name":"C4","midi":60,"time":812.8320312499797,"velocity":0.84251968503937,"duration":0.24479166666662877},{"name":"E5","midi":76,"time":812.8320312499797,"velocity":0.84251968503937,"duration":0.48307291666662877},{"name":"G5","midi":79,"time":812.8320312499797,"velocity":0.84251968503937,"duration":0.48307291666662877},{"name":"D4","midi":62,"time":813.0820312499797,"velocity":0.84251968503937,"duration":0.24479166666662877},{"name":"E4","midi":64,"time":813.3320312499797,"velocity":0.84251968503937,"duration":0.24479166666662877},{"name":"E5","midi":76,"time":813.3320312499797,"velocity":0.84251968503937,"duration":0.48307291666662877},{"name":"G5","midi":79,"time":813.3320312499797,"velocity":0.84251968503937,"duration":0.48307291666662877},{"name":"D4","midi":62,"time":813.5820312499797,"velocity":0.84251968503937,"duration":0.24479166666662877},{"name":"C#4","midi":61,"time":813.8320312499797,"velocity":0.84251968503937,"duration":0.24479166666662877},{"name":"E5","midi":76,"time":813.8320312499797,"velocity":0.84251968503937,"duration":0.9947916666666288},{"name":"G5","midi":79,"time":813.8320312499797,"velocity":0.84251968503937,"duration":0.24479166666662877},{"name":"A3","midi":57,"time":814.0820312499797,"velocity":0.84251968503937,"duration":0.24479166666662877},{"name":"F5","midi":77,"time":814.0820312499797,"velocity":0.84251968503937,"duration":0.24479166666662877},{"name":"B3","midi":59,"time":814.3320312499797,"velocity":0.84251968503937,"duration":0.24479166666662877},{"name":"G5","midi":79,"time":814.3320312499797,"velocity":0.84251968503937,"duration":0.24479166666662877},{"name":"C#4","midi":61,"time":814.5820312499797,"velocity":0.84251968503937,"duration":0.24479166666662877},{"name":"A5","midi":81,"time":814.5820312499797,"velocity":0.84251968503937,"duration":0.24479166666662877},{"name":"D4","midi":62,"time":814.8320312499797,"velocity":0.84251968503937,"duration":0.24479166666662877},{"name":"D5","midi":74,"time":814.8320312499797,"velocity":0.84251968503937,"duration":0.9947916666666288},{"name":"F5","midi":77,"time":814.8320312499797,"velocity":0.84251968503937,"duration":0.24479166666662877},{"name":"C#4","midi":61,"time":815.0820312499797,"velocity":0.84251968503937,"duration":0.24479166666662877},{"name":"E5","midi":76,"time":815.0820312499797,"velocity":0.84251968503937,"duration":0.24479166666662877},{"name":"D4","midi":62,"time":815.3320312499797,"velocity":0.84251968503937,"duration":0.24479166666662877},{"name":"F5","midi":77,"time":815.3320312499797,"velocity":0.84251968503937,"duration":0.24479166666662877},{"name":"G3","midi":55,"time":815.5820312499797,"velocity":0.84251968503937,"duration":0.24479166666662877},{"name":"G5","midi":79,"time":815.5820312499797,"velocity":0.84251968503937,"duration":0.24479166666662877},{"name":"A3","midi":57,"time":815.8320312499797,"velocity":0.84251968503937,"duration":0.24479166666662877},{"name":"F5","midi":77,"time":815.8320312499797,"velocity":0.84251968503937,"duration":0.24479166666662877},{"name":"C#5","midi":73,"time":815.8320312499797,"velocity":0.84251968503937,"duration":0.48307291666662877},{"name":"A2","midi":45,"time":816.0820312499797,"velocity":0.84251968503937,"duration":0.24479166666662877},{"name":"E5","midi":76,"time":816.0820312499797,"velocity":0.84251968503937,"duration":0.24479166666662877},{"name":"D3","midi":50,"time":816.3320312499797,"velocity":0.84251968503937,"duration":0.24479166666662877},{"name":"D5","midi":74,"time":816.3320312499797,"velocity":0.84251968503937,"duration":0.24479166666662877},{"name":"E3","midi":52,"time":816.5820312499797,"velocity":0.84251968503937,"duration":0.24479166666662877},{"name":"C#5","midi":73,"time":816.5820312499797,"velocity":0.84251968503937,"duration":0.24479166666662877},{"name":"F3","midi":53,"time":816.8320312499797,"velocity":0.84251968503937,"duration":0.24479166666662877},{"name":"D5","midi":74,"time":816.8320312499797,"velocity":0.84251968503937,"duration":0.24479166666662877},{"name":"A5","midi":81,"time":816.8320312499797,"velocity":0.84251968503937,"duration":0.48307291666662877},{"name":"D3","midi":50,"time":817.0820312499797,"velocity":0.84251968503937,"duration":0.24479166666662877},{"name":"F5","midi":77,"time":817.0820312499797,"velocity":0.84251968503937,"duration":0.24479166666662877},{"name":"C#3","midi":49,"time":817.3320312499797,"velocity":0.84251968503937,"duration":0.24479166666662877},{"name":"E5","midi":76,"time":817.3320312499797,"velocity":0.84251968503937,"duration":0.24479166666662877},{"name":"A5","midi":81,"time":817.3320312499797,"velocity":0.84251968503937,"duration":0.48307291666662877},{"name":"A2","midi":45,"time":817.5820312499797,"velocity":0.84251968503937,"duration":0.24479166666662877},{"name":"G5","midi":79,"time":817.5820312499797,"velocity":0.84251968503937,"duration":0.24479166666662877},{"name":"D3","midi":50,"time":817.8320312499797,"velocity":0.84251968503937,"duration":0.24479166666662877},{"name":"F5","midi":77,"time":817.8320312499797,"velocity":0.84251968503937,"duration":0.9947916666666288},{"name":"A#5","midi":82,"time":817.8320312499797,"velocity":0.84251968503937,"duration":0.11979166666662877},{"name":"A5","midi":81,"time":817.9570312499797,"velocity":0.84251968503937,"duration":0.11979166666662877},{"name":"A2","midi":45,"time":818.0820312499797,"velocity":0.84251968503937,"duration":0.24479166666662877},{"name":"A#5","midi":82,"time":818.0820312499797,"velocity":0.84251968503937,"duration":0.11979166666662877},{"name":"A5","midi":81,"time":818.2070312499797,"velocity":0.84251968503937,"duration":0.11979166666662877},{"name":"D2","midi":38,"time":818.3320312499797,"velocity":0.84251968503937,"duration":0.24479166666662877},{"name":"A#5","midi":82,"time":818.3320312499797,"velocity":0.84251968503937,"duration":0.11979166666662877},{"name":"A5","midi":81,"time":818.4570312499797,"velocity":0.84251968503937,"duration":0.11979166666662877},{"name":"C3","midi":48,"time":818.5820312499797,"velocity":0.84251968503937,"duration":0.24479166666662877},{"name":"G5","midi":79,"time":818.5820312499797,"velocity":0.84251968503937,"duration":0.11979166666662877},{"name":"A5","midi":81,"time":818.7070312499797,"velocity":0.84251968503937,"duration":0.11979166666662877},{"name":"A#2","midi":46,"time":818.8320312499797,"velocity":0.84251968503937,"duration":0.24479166666662877},{"name":"A#5","midi":82,"time":818.8320312499797,"velocity":0.84251968503937,"duration":0.48307291666662877},{"name":"G5","midi":79,"time":818.8320312499797,"velocity":0.84251968503937,"duration":0.48307291666662877},{"name":"A2","midi":45,"time":819.0820312499797,"velocity":0.84251968503937,"duration":0.24479166666662877},{"name":"A#2","midi":46,"time":819.3320312499797,"velocity":0.84251968503937,"duration":0.24479166666662877},{"name":"A5","midi":81,"time":819.3320312499797,"velocity":0.84251968503937,"duration":0.48307291666662877},{"name":"F5","midi":77,"time":819.3320312499797,"velocity":0.84251968503937,"duration":0.48307291666662877},{"name":"G2","midi":43,"time":819.5820312499797,"velocity":0.84251968503937,"duration":0.24479166666662877},{"name":"C3","midi":48,"time":819.8320312499797,"velocity":0.84251968503937,"duration":0.24479166666662877},{"name":"E5","midi":76,"time":819.8320312499797,"velocity":0.84251968503937,"duration":0.9947916666666288},{"name":"A5","midi":81,"time":819.8320312499797,"velocity":0.84251968503937,"duration":0.48307291666662877},{"name":"G2","midi":43,"time":820.0820312499797,"velocity":0.84251968503937,"duration":0.24479166666662877},{"name":"C2","midi":36,"time":820.3320312499797,"velocity":0.84251968503937,"duration":0.24479166666662877},{"name":"G5","midi":79,"time":820.3320312499797,"velocity":0.84251968503937,"duration":0.24479166666662877},{"name":"A#2","midi":46,"time":820.5820312499797,"velocity":0.84251968503937,"duration":0.24479166666662877},{"name":"A5","midi":81,"time":820.5820312499797,"velocity":0.84251968503937,"duration":0.11979166666662877},{"name":"A#5","midi":82,"time":820.7070312499797,"velocity":0.84251968503937,"duration":0.11979166666662877},{"name":"A2","midi":45,"time":820.8320312499797,"velocity":0.84251968503937,"duration":0.24479166666662877},{"name":"C6","midi":84,"time":820.8320312499797,"velocity":0.84251968503937,"duration":0.24479166666662877},{"name":"E5","midi":76,"time":820.8320312499797,"velocity":0.84251968503937,"duration":0.9947916666666288},{"name":"A#2","midi":46,"time":821.0820312499797,"velocity":0.84251968503937,"duration":0.24479166666662877},{"name":"A#5","midi":82,"time":821.0820312499797,"velocity":0.84251968503937,"duration":0.24479166666662877},{"name":"C3","midi":48,"time":821.3320312499797,"velocity":0.84251968503937,"duration":0.24479166666662877},{"name":"A5","midi":81,"time":821.3320312499797,"velocity":0.84251968503937,"duration":0.24479166666662877},{"name":"A2","midi":45,"time":821.5820312499797,"velocity":0.84251968503937,"duration":0.24479166666662877},{"name":"G5","midi":79,"time":821.5820312499797,"velocity":0.84251968503937,"duration":0.24479166666662877},{"name":"D3","midi":50,"time":821.8320312499797,"velocity":0.84251968503937,"duration":0.24479166666662877},{"name":"D5","midi":74,"time":821.8320312499797,"velocity":0.84251968503937,"duration":0.48307291666662877},{"name":"F5","midi":77,"time":821.8320312499797,"velocity":0.84251968503937,"duration":0.24479166666662877},{"name":"E3","midi":52,"time":822.0820312499797,"velocity":0.84251968503937,"duration":0.24479166666662877},{"name":"E5","midi":76,"time":822.0820312499797,"velocity":0.84251968503937,"duration":0.24479166666662877},{"name":"F3","midi":53,"time":822.3320312499797,"velocity":0.84251968503937,"duration":0.24479166666662877},{"name":"D5","midi":74,"time":822.3320312499797,"velocity":0.84251968503937,"duration":1.4934895833333712},{"name":"D3","midi":50,"time":822.5820312499797,"velocity":0.84251968503937,"duration":0.24479166666662877},{"name":"A#5","midi":82,"time":822.5820312499797,"velocity":0.84251968503937,"duration":0.24479166666662877},{"name":"A#3","midi":58,"time":822.8320312499797,"velocity":0.84251968503937,"duration":0.24479166666662877},{"name":"A5","midi":81,"time":822.8320312499797,"velocity":0.84251968503937,"duration":0.11979166666662877},{"name":"G5","midi":79,"time":822.9570312499797,"velocity":0.84251968503937,"duration":0.11979166666662877},{"name":"A3","midi":57,"time":823.0820312499797,"velocity":0.84251968503937,"duration":0.24479166666662877},{"name":"A5","midi":81,"time":823.0820312499797,"velocity":0.84251968503937,"duration":0.11979166666662877},{"name":"G5","midi":79,"time":823.2070312499797,"velocity":0.84251968503937,"duration":0.11979166666662877},{"name":"A#3","midi":58,"time":823.3320312499797,"velocity":0.84251968503937,"duration":0.24479166666662877},{"name":"A5","midi":81,"time":823.3320312499797,"velocity":0.84251968503937,"duration":0.11979166666662877},{"name":"G5","midi":79,"time":823.4570312499797,"velocity":0.84251968503937,"duration":0.11979166666662877},{"name":"A#2","midi":46,"time":823.5820312499797,"velocity":0.84251968503937,"duration":0.24479166666674246},{"name":"F5","midi":77,"time":823.5820312499797,"velocity":0.84251968503937,"duration":0.11979166666662877},{"name":"G5","midi":79,"time":823.7070312499797,"velocity":0.84251968503937,"duration":0.11979166666674246},{"name":"A2","midi":45,"time":823.8320312499798,"velocity":0.84251968503937,"duration":0.24479166666662877},{"name":"C#5","midi":73,"time":823.8320312499798,"velocity":0.84251968503937,"duration":0.9947916666666288},{"name":"A5","midi":81,"time":823.8320312499798,"velocity":0.84251968503937,"duration":0.9947916666666288},{"name":"E3","midi":52,"time":824.0820312499798,"velocity":0.84251968503937,"duration":0.24479166666662877},{"name":"F3","midi":53,"time":824.3320312499798,"velocity":0.84251968503937,"duration":0.24479166666662877},{"name":"G3","midi":55,"time":824.5820312499798,"velocity":0.84251968503937,"duration":0.24479166666662877},{"name":"A3","midi":57,"time":824.8320312499798,"velocity":0.84251968503937,"duration":0.24479166666662877},{"name":"C5","midi":72,"time":824.8320312499798,"velocity":0.84251968503937,"duration":0.48307291666662877},{"name":"E5","midi":76,"time":824.8320312499798,"velocity":0.84251968503937,"duration":0.48307291666662877},{"name":"A2","midi":45,"time":825.0820312499798,"velocity":0.84251968503937,"duration":0.24479166666662877},{"name":"G#3","midi":56,"time":825.3320312499798,"velocity":0.84251968503937,"duration":0.24479166666662877},{"name":"B4","midi":71,"time":825.3320312499798,"velocity":0.84251968503937,"duration":0.48307291666662877},{"name":"E5","midi":76,"time":825.3320312499798,"velocity":0.84251968503937,"duration":0.48307291666662877},{"name":"E3","midi":52,"time":825.5820312499798,"velocity":0.84251968503937,"duration":0.24479166666662877},{"name":"A3","midi":57,"time":825.8320312499798,"velocity":0.84251968503937,"duration":0.24479166666662877},{"name":"C5","midi":72,"time":825.8320312499798,"velocity":0.84251968503937,"duration":0.9947916666666288},{"name":"F5","midi":77,"time":825.8320312499798,"velocity":0.84251968503937,"duration":0.11979166666662877},{"name":"E5","midi":76,"time":825.9570312499798,"velocity":0.84251968503937,"duration":0.11979166666662877},{"name":"E3","midi":52,"time":826.0820312499798,"velocity":0.84251968503937,"duration":0.24479166666662877},{"name":"F5","midi":77,"time":826.0820312499798,"velocity":0.84251968503937,"duration":0.11979166666662877},{"name":"E5","midi":76,"time":826.2070312499798,"velocity":0.84251968503937,"duration":0.11979166666662877},{"name":"A2","midi":45,"time":826.3320312499798,"velocity":0.84251968503937,"duration":0.24479166666662877},{"name":"F5","midi":77,"time":826.3320312499798,"velocity":0.84251968503937,"duration":0.11979166666662877},{"name":"E5","midi":76,"time":826.4570312499798,"velocity":0.84251968503937,"duration":0.11979166666662877},{"name":"G3","midi":55,"time":826.5820312499798,"velocity":0.84251968503937,"duration":0.24479166666662877},{"name":"D5","midi":74,"time":826.5820312499798,"velocity":0.84251968503937,"duration":0.11979166666662877},{"name":"E5","midi":76,"time":826.7070312499798,"velocity":0.84251968503937,"duration":0.11979166666662877},{"name":"F3","midi":53,"time":826.8320312499798,"velocity":0.84251968503937,"duration":0.24479166666662877},{"name":"D5","midi":74,"time":826.8320312499798,"velocity":0.84251968503937,"duration":0.48307291666662877},{"name":"F5","midi":77,"time":826.8320312499798,"velocity":0.84251968503937,"duration":0.48307291666662877},{"name":"E3","midi":52,"time":827.0820312499798,"velocity":0.84251968503937,"duration":0.24479166666662877},{"name":"F3","midi":53,"time":827.3320312499798,"velocity":0.84251968503937,"duration":0.24479166666662877},{"name":"C5","midi":72,"time":827.3320312499798,"velocity":0.84251968503937,"duration":0.48307291666662877},{"name":"E5","midi":76,"time":827.3320312499798,"velocity":0.84251968503937,"duration":0.48307291666662877},{"name":"D3","midi":50,"time":827.5820312499798,"velocity":0.84251968503937,"duration":0.24479166666662877},{"name":"G3","midi":55,"time":827.8320312499798,"velocity":0.84251968503937,"duration":0.24479166666662877},{"name":"B4","midi":71,"time":827.8320312499798,"velocity":0.84251968503937,"duration":0.9947916666666288},{"name":"D5","midi":74,"time":827.8320312499798,"velocity":0.84251968503937,"duration":0.9947916666666288},{"name":"D3","midi":50,"time":828.0820312499798,"velocity":0.84251968503937,"duration":0.24479166666662877},{"name":"G2","midi":43,"time":828.3320312499798,"velocity":0.84251968503937,"duration":0.24479166666662877},{"name":"D3","midi":50,"time":828.5820312499798,"velocity":0.84251968503937,"duration":0.24479166666662877},{"name":"G3","midi":55,"time":828.8320312499798,"velocity":0.84251968503937,"duration":0.24479166666662877},{"name":"B4","midi":71,"time":828.8320312499798,"velocity":0.84251968503937,"duration":0.48307291666662877},{"name":"D5","midi":74,"time":828.8320312499798,"velocity":0.84251968503937,"duration":0.48307291666662877},{"name":"F3","midi":53,"time":829.0820312499798,"velocity":0.84251968503937,"duration":0.24479166666662877},{"name":"G3","midi":55,"time":829.3320312499798,"velocity":0.84251968503937,"duration":0.24479166666662877},{"name":"B4","midi":71,"time":829.3320312499798,"velocity":0.84251968503937,"duration":0.48307291666662877},{"name":"G5","midi":79,"time":829.3320312499798,"velocity":0.84251968503937,"duration":0.48307291666662877},{"name":"E3","midi":52,"time":829.5820312499798,"velocity":0.84251968503937,"duration":0.24479166666662877},{"name":"A3","midi":57,"time":829.8320312499798,"velocity":0.84251968503937,"duration":0.24479166666662877},{"name":"C5","midi":72,"time":829.8320312499798,"velocity":0.84251968503937,"duration":0.9947916666666288},{"name":"F5","midi":77,"time":829.8320312499798,"velocity":0.84251968503937,"duration":0.11979166666662877},{"name":"E5","midi":76,"time":829.9570312499798,"velocity":0.84251968503937,"duration":0.11979166666662877},{"name":"G3","midi":55,"time":830.0820312499798,"velocity":0.84251968503937,"duration":0.24479166666662877},{"name":"F5","midi":77,"time":830.0820312499798,"velocity":0.84251968503937,"duration":0.11979166666662877},{"name":"E5","midi":76,"time":830.2070312499798,"velocity":0.84251968503937,"duration":0.11979166666662877},{"name":"F3","midi":53,"time":830.3320312499798,"velocity":0.84251968503937,"duration":0.24479166666662877},{"name":"F5","midi":77,"time":830.3320312499798,"velocity":0.84251968503937,"duration":0.11979166666662877},{"name":"E5","midi":76,"time":830.4570312499798,"velocity":0.84251968503937,"duration":0.11979166666662877},{"name":"E3","midi":52,"time":830.5820312499798,"velocity":0.84251968503937,"duration":0.24479166666662877},{"name":"D5","midi":74,"time":830.5820312499798,"velocity":0.84251968503937,"duration":0.11979166666662877},{"name":"E5","midi":76,"time":830.7070312499798,"velocity":0.84251968503937,"duration":0.11979166666662877},{"name":"D3","midi":50,"time":830.8320312499798,"velocity":0.84251968503937,"duration":0.24479166666662877},{"name":"F5","midi":77,"time":830.8320312499798,"velocity":0.84251968503937,"duration":0.24479166666662877},{"name":"D5","midi":74,"time":830.8320312499798,"velocity":0.84251968503937,"duration":0.48307291666662877},{"name":"B3","midi":59,"time":831.0820312499798,"velocity":0.84251968503937,"duration":0.24479166666662877},{"name":"G5","midi":79,"time":831.0820312499798,"velocity":0.84251968503937,"duration":0.24479166666662877},{"name":"C4","midi":60,"time":831.3320312499798,"velocity":0.84251968503937,"duration":0.24479166666662877},{"name":"C5","midi":72,"time":831.3320312499798,"velocity":0.84251968503937,"duration":0.48307291666662877},{"name":"E5","midi":76,"time":831.3320312499798,"velocity":0.84251968503937,"duration":0.24479166666662877},{"name":"F3","midi":53,"time":831.5820312499798,"velocity":0.84251968503937,"duration":0.24479166666662877},{"name":"F5","midi":77,"time":831.5820312499798,"velocity":0.84251968503937,"duration":0.24479166666662877},{"name":"G3","midi":55,"time":831.8320312499798,"velocity":0.84251968503937,"duration":0.24479166666662877},{"name":"B4","midi":71,"time":831.8320312499798,"velocity":0.84251968503937,"duration":0.48307291666662877},{"name":"E5","midi":76,"time":831.8320312499798,"velocity":0.84251968503937,"duration":0.24479166666662877},{"name":"G2","midi":43,"time":832.0820312499798,"velocity":0.84251968503937,"duration":0.24479166666662877},{"name":"D5","midi":74,"time":832.0820312499798,"velocity":0.84251968503937,"duration":0.24479166666662877},{"name":"C3","midi":48,"time":832.3320312499798,"velocity":0.84251968503937,"duration":0.24479166666662877},{"name":"C5","midi":72,"time":832.3320312499798,"velocity":0.84251968503937,"duration":0.48307291666662877},{"name":"A#2","midi":46,"time":832.5820312499798,"velocity":0.84251968503937,"duration":0.24479166666662877},{"name":"A2","midi":45,"time":832.8320312499798,"velocity":0.84251968503937,"duration":0.24479166666662877},{"name":"E5","midi":76,"time":832.8320312499798,"velocity":0.84251968503937,"duration":0.48307291666662877},{"name":"C5","midi":72,"time":832.8320312499798,"velocity":0.84251968503937,"duration":0.48307291666662877},{"name":"A#2","midi":46,"time":833.0820312499798,"velocity":0.84251968503937,"duration":0.24479166666662877},{"name":"C3","midi":48,"time":833.3320312499798,"velocity":0.84251968503937,"duration":0.24479166666662877},{"name":"C5","midi":72,"time":833.3320312499798,"velocity":0.84251968503937,"duration":0.48307291666662877},{"name":"F#5","midi":78,"time":833.3320312499798,"velocity":0.84251968503937,"duration":0.24479166666662877},{"name":"A2","midi":45,"time":833.5820312499798,"velocity":0.84251968503937,"duration":0.24479166666662877},{"name":"G5","midi":79,"time":833.5820312499798,"velocity":0.84251968503937,"duration":0.11979166666662877},{"name":"A5","midi":81,"time":833.7070312499798,"velocity":0.84251968503937,"duration":0.11979166666662877},{"name":"D3","midi":50,"time":833.8320312499798,"velocity":0.84251968503937,"duration":0.24479166666662877},{"name":"A4","midi":69,"time":833.8320312499798,"velocity":0.84251968503937,"duration":0.9947916666666288},{"name":"G5","midi":79,"time":833.8320312499798,"velocity":0.84251968503937,"duration":0.11979166666662877},{"name":"F#5","midi":78,"time":833.9570312499798,"velocity":0.84251968503937,"duration":0.11979166666662877},{"name":"A2","midi":45,"time":834.0820312499798,"velocity":0.84251968503937,"duration":0.24479166666662877},{"name":"G5","midi":79,"time":834.0820312499798,"velocity":0.84251968503937,"duration":0.11979166666662877},{"name":"F#5","midi":78,"time":834.2070312499798,"velocity":0.84251968503937,"duration":0.11979166666662877},{"name":"D2","midi":38,"time":834.3320312499798,"velocity":0.84251968503937,"duration":0.24479166666662877},{"name":"G5","midi":79,"time":834.3320312499798,"velocity":0.84251968503937,"duration":0.11979166666662877},{"name":"F#5","midi":78,"time":834.4570312499798,"velocity":0.84251968503937,"duration":0.11979166666662877},{"name":"C3","midi":48,"time":834.5820312499798,"velocity":0.84251968503937,"duration":0.24479166666662877},{"name":"E5","midi":76,"time":834.5820312499798,"velocity":0.84251968503937,"duration":0.11979166666662877},{"name":"F#5","midi":78,"time":834.7070312499798,"velocity":0.84251968503937,"duration":0.11979166666662877},{"name":"A#2","midi":46,"time":834.8320312499798,"velocity":0.84251968503937,"duration":0.24479166666662877},{"name":"G5","midi":79,"time":834.8320312499798,"velocity":0.84251968503937,"duration":0.48307291666662877},{"name":"D5","midi":74,"time":834.8320312499798,"velocity":0.84251968503937,"duration":0.48307291666662877},{"name":"A2","midi":45,"time":835.0820312499798,"velocity":0.84251968503937,"duration":0.24479166666662877},{"name":"G2","midi":43,"time":835.3320312499798,"velocity":0.84251968503937,"duration":0.24479166666662877},{"name":"D5","midi":74,"time":835.3320312499798,"velocity":0.84251968503937,"duration":0.48307291666662877},{"name":"A5","midi":81,"time":835.3320312499798,"velocity":0.84251968503937,"duration":0.48307291666662877},{"name":"F#2","midi":42,"time":835.5820312499798,"velocity":0.84251968503937,"duration":0.24479166666662877},{"name":"G2","midi":43,"time":835.8320312499798,"velocity":0.84251968503937,"duration":0.24479166666662877},{"name":"D5","midi":74,"time":835.8320312499798,"velocity":0.84251968503937,"duration":4.25},{"name":"A#5","midi":82,"time":835.8320312499798,"velocity":0.84251968503937,"duration":0.7447916666666288},{"name":"A#2","midi":46,"time":836.0820312499798,"velocity":0.84251968503937,"duration":0.24479166666662877},{"name":"D3","midi":50,"time":836.3320312499798,"velocity":0.84251968503937,"duration":0.24479166666662877},{"name":"G3","midi":55,"time":836.5820312499798,"velocity":0.84251968503937,"duration":0.24479166666662877},{"name":"A5","midi":81,"time":836.5820312499798,"velocity":0.84251968503937,"duration":0.11979166666662877},{"name":"A#5","midi":82,"time":836.7070312499798,"velocity":0.84251968503937,"duration":0.11979166666662877},{"name":"F#3","midi":54,"time":836.8320312499798,"velocity":0.84251968503937,"duration":0.48307291666662877},{"name":"C6","midi":84,"time":836.8320312499798,"velocity":0.84251968503937,"duration":0.24479166666662877},{"name":"A#5","midi":82,"time":837.0820312499798,"velocity":0.84251968503937,"duration":0.24479166666662877},{"name":"D3","midi":50,"time":837.3320312499798,"velocity":0.84251968503937,"duration":0.48307291666662877},{"name":"A5","midi":81,"time":837.3320312499798,"velocity":0.84251968503937,"duration":0.24479166666662877},{"name":"A#5","midi":82,"time":837.5820312499798,"velocity":0.84251968503937,"duration":0.24479166666662877},{"name":"G3","midi":55,"time":837.8320312499798,"velocity":0.84251968503937,"duration":0.48307291666662877},{"name":"C6","midi":84,"time":837.8320312499798,"velocity":0.84251968503937,"duration":0.24479166666662877},{"name":"A#5","midi":82,"time":838.0820312499798,"velocity":0.84251968503937,"duration":0.24479166666662877},{"name":"A#2","midi":46,"time":838.3320312499798,"velocity":0.84251968503937,"duration":0.48307291666662877},{"name":"A5","midi":81,"time":838.3320312499798,"velocity":0.84251968503937,"duration":0.24479166666662877},{"name":"G5","midi":79,"time":838.5820312499798,"velocity":0.84251968503937,"duration":0.24479166666662877},{"name":"C3","midi":48,"time":838.8320312499798,"velocity":0.84251968503937,"duration":0.48307291666662877},{"name":"A#5","midi":82,"time":838.8320312499798,"velocity":0.84251968503937,"duration":0.24479166666662877},{"name":"A5","midi":81,"time":839.0820312499798,"velocity":0.84251968503937,"duration":0.24479166666662877},{"name":"D3","midi":50,"time":839.3320312499798,"velocity":0.84251968503937,"duration":0.48307291666662877},{"name":"G5","midi":79,"time":839.3320312499798,"velocity":0.84251968503937,"duration":0.24479166666662877},{"name":"F#5","midi":78,"time":839.5820312499798,"velocity":0.84251968503937,"duration":0.24479166666662877},{"name":"B2","midi":47,"time":839.8320312499798,"velocity":0.84251968503937,"duration":0.48307291666662877},{"name":"G5","midi":79,"time":839.8320312499798,"velocity":0.84251968503937,"duration":6.25390625},{"name":"D#5","midi":75,"time":840.0820312499798,"velocity":0.84251968503937,"duration":0.24479166666662877},{"name":"G3","midi":55,"time":840.3320312499798,"velocity":0.84251968503937,"duration":0.48307291666662877},{"name":"F5","midi":77,"time":840.3320312499798,"velocity":0.84251968503937,"duration":0.24479166666662877},{"name":"D5","midi":74,"time":840.5820312499798,"velocity":0.84251968503937,"duration":0.24479166666662877},{"name":"A3","midi":57,"time":840.8320312499798,"velocity":0.84251968503937,"duration":0.48307291666662877},{"name":"F5","midi":77,"time":840.8320312499798,"velocity":0.84251968503937,"duration":0.24479166666662877},{"name":"D#5","midi":75,"time":841.0820312499798,"velocity":0.84251968503937,"duration":0.24479166666662877},{"name":"B3","midi":59,"time":841.3320312499798,"velocity":0.84251968503937,"duration":0.48307291666662877},{"name":"D5","midi":74,"time":841.3320312499798,"velocity":0.84251968503937,"duration":0.24479166666662877},{"name":"C5","midi":72,"time":841.5820312499798,"velocity":0.84251968503937,"duration":0.24479166666662877},{"name":"C4","midi":60,"time":841.8320312499798,"velocity":0.84251968503937,"duration":0.48307291666662877},{"name":"D#5","midi":75,"time":841.8320312499798,"velocity":0.84251968503937,"duration":0.24479166666662877},{"name":"D5","midi":74,"time":842.0820312499798,"velocity":0.84251968503937,"duration":0.24479166666662877},{"name":"D4","midi":62,"time":842.3320312499798,"velocity":0.84251968503937,"duration":0.48307291666662877},{"name":"C5","midi":72,"time":842.3320312499798,"velocity":0.84251968503937,"duration":0.24479166666662877},{"name":"B4","midi":71,"time":842.5820312499798,"velocity":0.84251968503937,"duration":0.24479166666662877},{"name":"D#4","midi":63,"time":842.8320312499798,"velocity":0.84251968503937,"duration":0.48307291666662877},{"name":"C5","midi":72,"time":842.8320312499798,"velocity":0.84251968503937,"duration":0.24479166666662877},{"name":"D5","midi":74,"time":843.0820312499798,"velocity":0.84251968503937,"duration":0.24479166666662877},{"name":"C4","midi":60,"time":843.3320312499798,"velocity":0.84251968503937,"duration":0.48307291666662877},{"name":"D#5","midi":75,"time":843.3320312499798,"velocity":0.84251968503937,"duration":0.24479166666662877},{"name":"C5","midi":72,"time":843.5820312499798,"velocity":0.84251968503937,"duration":0.24479166666662877},{"name":"G4","midi":67,"time":843.8320312499798,"velocity":0.84251968503937,"duration":0.48307291666662877},{"name":"D#5","midi":75,"time":843.8320312499798,"velocity":0.84251968503937,"duration":0.24479166666662877},{"name":"D5","midi":74,"time":844.0820312499798,"velocity":0.84251968503937,"duration":0.24479166666662877},{"name":"A4","midi":69,"time":844.3320312499798,"velocity":0.84251968503937,"duration":0.48307291666662877},{"name":"C5","midi":72,"time":844.3320312499798,"velocity":0.84251968503937,"duration":0.24479166666662877},{"name":"A#4","midi":70,"time":844.5820312499798,"velocity":0.84251968503937,"duration":0.24479166666662877},{"name":"A#4","midi":70,"time":844.8320312499798,"velocity":0.84251968503937,"duration":0.48307291666662877},{"name":"D5","midi":74,"time":844.8320312499798,"velocity":0.84251968503937,"duration":0.24479166666662877},{"name":"C5","midi":72,"time":845.0820312499798,"velocity":0.84251968503937,"duration":0.24479166666662877},{"name":"G4","midi":67,"time":845.3320312499798,"velocity":0.84251968503937,"duration":0.48307291666662877},{"name":"A#4","midi":70,"time":845.3320312499798,"velocity":0.84251968503937,"duration":0.24479166666662877},{"name":"A4","midi":69,"time":845.5820312499798,"velocity":0.84251968503937,"duration":0.24479166666662877},{"name":"D4","midi":62,"time":845.8320312499798,"velocity":0.84251968503937,"duration":1.9947916666666288},{"name":"A#4","midi":70,"time":845.8320312499798,"velocity":0.84251968503937,"duration":0.24479166666662877},{"name":"A5","midi":81,"time":846.0820312499798,"velocity":0.84251968503937,"duration":0.24479166666662877},{"name":"C5","midi":72,"time":846.0820312499798,"velocity":0.84251968503937,"duration":0.24479166666662877},{"name":"D5","midi":74,"time":846.3320312499798,"velocity":0.84251968503937,"duration":0.24479166666662877},{"name":"A#5","midi":82,"time":846.3320312499798,"velocity":0.84251968503937,"duration":0.24479166666662877},{"name":"G5","midi":79,"time":846.5820312499798,"velocity":0.84251968503937,"duration":0.24479166666662877},{"name":"A#4","midi":70,"time":846.5820312499798,"velocity":0.84251968503937,"duration":0.24479166666662877},{"name":"A#5","midi":82,"time":846.8320312499798,"velocity":0.84251968503937,"duration":0.24479166666662877},{"name":"D5","midi":74,"time":846.8320312499798,"velocity":0.84251968503937,"duration":0.24479166666662877},{"name":"C5","midi":72,"time":847.0820312499798,"velocity":0.84251968503937,"duration":0.24479166666662877},{"name":"A5","midi":81,"time":847.0820312499798,"velocity":0.84251968503937,"duration":0.24479166666662877},{"name":"A#4","midi":70,"time":847.3320312499798,"velocity":0.84251968503937,"duration":0.24479166666662877},{"name":"G5","midi":79,"time":847.3320312499798,"velocity":0.84251968503937,"duration":0.24479166666662877},{"name":"F#5","midi":78,"time":847.5820312499798,"velocity":0.84251968503937,"duration":0.24479166666662877},{"name":"A4","midi":69,"time":847.5820312499798,"velocity":0.84251968503937,"duration":0.24479166666662877},{"name":"G3","midi":55,"time":847.8320312499798,"velocity":0.84251968503937,"duration":0.24479166666662877},{"name":"G5","midi":79,"time":847.8320312499798,"velocity":0.84251968503937,"duration":0.9947916666666288},{"name":"A#4","midi":70,"time":847.8320312499798,"velocity":0.84251968503937,"duration":0.9947916666666288},{"name":"D3","midi":50,"time":848.0820312499798,"velocity":0.84251968503937,"duration":0.24479166666662877},{"name":"A#2","midi":46,"time":848.3320312499798,"velocity":0.84251968503937,"duration":0.24479166666662877},{"name":"D3","midi":50,"time":848.5820312499798,"velocity":0.84251968503937,"duration":0.24479166666662877},{"name":"G2","midi":43,"time":848.8320312499798,"velocity":0.84251968503937,"duration":0.24479166666662877},{"name":"D5","midi":74,"time":848.8320312499798,"velocity":0.84251968503937,"duration":0.48307291666662877},{"name":"A#4","midi":70,"time":848.8320312499798,"velocity":0.84251968503937,"duration":0.48307291666662877},{"name":"D3","midi":50,"time":849.0820312499798,"velocity":0.84251968503937,"duration":0.24479166666662877},{"name":"G3","midi":55,"time":849.3320312499798,"velocity":0.84251968503937,"duration":0.24479166666662877},{"name":"D5","midi":74,"time":849.3320312499798,"velocity":0.84251968503937,"duration":0.48307291666662877},{"name":"A4","midi":69,"time":849.3320312499798,"velocity":0.84251968503937,"duration":0.48307291666662877},{"name":"F3","midi":53,"time":849.5820312499798,"velocity":0.84251968503937,"duration":0.24479166666662877},{"name":"E3","midi":52,"time":849.8320312499798,"velocity":0.84251968503937,"duration":0.24479166666662877},{"name":"G4","midi":67,"time":849.8320312499798,"velocity":0.84251968503937,"duration":0.48307291666662877},{"name":"D5","midi":74,"time":849.8320312499798,"velocity":0.84251968503937,"duration":0.7447916666666288},{"name":"F3","midi":53,"time":850.0820312499798,"velocity":0.84251968503937,"duration":0.24479166666662877},{"name":"G3","midi":55,"time":850.3320312499798,"velocity":0.84251968503937,"duration":0.48307291666662877},{"name":"A#4","midi":70,"time":850.3320312499798,"velocity":0.84251968503937,"duration":0.48307291666662877},{"name":"E5","midi":76,"time":850.5820312499798,"velocity":0.84251968503937,"duration":0.11979166666662877},{"name":"D5","midi":74,"time":850.7070312499798,"velocity":0.84251968503937,"duration":0.11979166666662877},{"name":"A3","midi":57,"time":850.8320312499798,"velocity":0.84251968503937,"duration":0.24479166666662877},{"name":"C#5","midi":73,"time":850.8320312499798,"velocity":0.84251968503937,"duration":0.24479166666662877},{"name":"A4","midi":69,"time":850.8320312499798,"velocity":0.84251968503937,"duration":3.9856770833332575},{"name":"B3","midi":59,"time":851.0820312499798,"velocity":0.84251968503937,"duration":0.24479166666662877},{"name":"D5","midi":74,"time":851.0820312499798,"velocity":0.84251968503937,"duration":0.24479166666662877},{"name":"A3","midi":57,"time":851.3320312499798,"velocity":0.84251968503937,"duration":0.24479166666662877},{"name":"E5","midi":76,"time":851.3320312499798,"velocity":0.84251968503937,"duration":0.24479166666662877},{"name":"G3","midi":55,"time":851.5820312499798,"velocity":0.84251968503937,"duration":0.24479166666662877},{"name":"C#5","midi":73,"time":851.5820312499798,"velocity":0.84251968503937,"duration":0.24479166666662877},{"name":"F3","midi":53,"time":851.8320312499798,"velocity":0.84251968503937,"duration":0.48307291666662877},{"name":"D5","midi":74,"time":851.8320312499798,"velocity":0.84251968503937,"duration":0.24479166666662877},{"name":"E5","midi":76,"time":852.0820312499798,"velocity":0.84251968503937,"duration":0.24479166666662877},{"name":"D3","midi":50,"time":852.3320312499798,"velocity":0.84251968503937,"duration":0.48307291666662877},{"name":"F5","midi":77,"time":852.3320312499798,"velocity":0.84251968503937,"duration":0.24479166666662877},{"name":"D5","midi":74,"time":852.5820312499798,"velocity":0.84251968503937,"duration":0.24479166666662877},{"name":"C#3","midi":49,"time":852.8320312499798,"velocity":0.84251968503937,"duration":0.48307291666662877},{"name":"E5","midi":76,"time":852.8320312499798,"velocity":0.84251968503937,"duration":0.24479166666662877},{"name":"F5","midi":77,"time":853.0820312499798,"velocity":0.84251968503937,"duration":0.24479166666662877},{"name":"A2","midi":45,"time":853.3320312499798,"velocity":0.84251968503937,"duration":0.48307291666662877},{"name":"G5","midi":79,"time":853.3320312499798,"velocity":0.84251968503937,"duration":0.24479166666662877},{"name":"E5","midi":76,"time":853.5820312499798,"velocity":0.84251968503937,"duration":0.24479166666662877},{"name":"D3","midi":50,"time":853.8320312499798,"velocity":0.84251968503937,"duration":0.48307291666662877},{"name":"F5","midi":77,"time":853.8320312499798,"velocity":0.84251968503937,"duration":0.24479166666662877},{"name":"E5","midi":76,"time":854.0820312499798,"velocity":0.84251968503937,"duration":0.24479166666662877},{"name":"C3","midi":48,"time":854.3320312499798,"velocity":0.84251968503937,"duration":0.48307291666662877},{"name":"F5","midi":77,"time":854.3320312499798,"velocity":0.84251968503937,"duration":0.24479166666662877},{"name":"A5","midi":81,"time":854.5820312499798,"velocity":0.84251968503937,"duration":0.24479166666662877},{"name":"A#2","midi":46,"time":854.8320312499798,"velocity":0.84251968503937,"duration":0.48307291666662877},{"name":"G5","midi":79,"time":854.8320312499798,"velocity":0.84251968503937,"duration":0.24479166666662877},{"name":"F5","midi":77,"time":855.0820312499798,"velocity":0.84251968503937,"duration":0.24479166666662877},{"name":"G2","midi":43,"time":855.3320312499798,"velocity":0.84251968503937,"duration":0.48307291666662877},{"name":"E5","midi":76,"time":855.3320312499798,"velocity":0.84251968503937,"duration":0.24479166666662877},{"name":"D5","midi":74,"time":855.5820312499798,"velocity":0.84251968503937,"duration":0.24479166666662877},{"name":"A2","midi":45,"time":855.8320312499798,"velocity":0.84251968503937,"duration":0.48307291666662877},{"name":"C#5","midi":73,"time":855.8320312499798,"velocity":0.84251968503937,"duration":0.24479166666662877},{"name":"A4","midi":69,"time":856.0820312499798,"velocity":0.84251968503937,"duration":0.24479166666662877},{"name":"A3","midi":57,"time":856.3320312499798,"velocity":0.84251968503937,"duration":0.24479166666662877},{"name":"B4","midi":71,"time":856.3320312499798,"velocity":0.84251968503937,"duration":0.24479166666662877},{"name":"G3","midi":55,"time":856.5820312499798,"velocity":0.84251968503937,"duration":0.24479166666662877},{"name":"C#5","midi":73,"time":856.5820312499798,"velocity":0.84251968503937,"duration":0.24479166666662877},{"name":"F3","midi":53,"time":856.8320312499798,"velocity":0.84251968503937,"duration":0.24479166666662877},{"name":"A4","midi":69,"time":856.8320312499798,"velocity":0.84251968503937,"duration":0.48307291666662877},{"name":"D5","midi":74,"time":856.8320312499798,"velocity":0.84251968503937,"duration":0.24479166666662877},{"name":"E3","midi":52,"time":857.0820312499798,"velocity":0.84251968503937,"duration":0.24479166666662877},{"name":"E5","midi":76,"time":857.0820312499798,"velocity":0.84251968503937,"duration":0.24479166666662877},{"name":"D3","midi":50,"time":857.3320312499798,"velocity":0.84251968503937,"duration":0.24479166666662877},{"name":"A4","midi":69,"time":857.3320312499798,"velocity":0.84251968503937,"duration":0.48307291666662877},{"name":"F5","midi":77,"time":857.3320312499798,"velocity":0.84251968503937,"duration":3.4986979166666288},{"name":"C3","midi":48,"time":857.5820312499798,"velocity":0.84251968503937,"duration":0.24479166666662877},{"name":"A#2","midi":46,"time":857.8320312499798,"velocity":0.84251968503937,"duration":0.24479166666662877},{"name":"A#4","midi":70,"time":857.8320312499798,"velocity":0.84251968503937,"duration":0.11979166666662877},{"name":"A4","midi":69,"time":857.9570312499798,"velocity":0.84251968503937,"duration":0.11979166666662877},{"name":"C3","midi":48,"time":858.0820312499798,"velocity":0.84251968503937,"duration":0.24479166666662877},{"name":"A#4","midi":70,"time":858.0820312499798,"velocity":0.84251968503937,"duration":0.11979166666662877},{"name":"A4","midi":69,"time":858.2070312499798,"velocity":0.84251968503937,"duration":0.11979166666662877},{"name":"A#2","midi":46,"time":858.3320312499798,"velocity":0.84251968503937,"duration":0.24479166666662877},{"name":"A#4","midi":70,"time":858.3320312499798,"velocity":0.84251968503937,"duration":0.11979166666662877},{"name":"A4","midi":69,"time":858.4570312499798,"velocity":0.84251968503937,"duration":0.11979166666662877},{"name":"A2","midi":45,"time":858.5820312499798,"velocity":0.84251968503937,"duration":0.24479166666662877},{"name":"G4","midi":67,"time":858.5820312499798,"velocity":0.84251968503937,"duration":0.11979166666662877},{"name":"A4","midi":69,"time":858.7070312499798,"velocity":0.84251968503937,"duration":0.11979166666662877},{"name":"G2","midi":43,"time":858.8320312499798,"velocity":0.84251968503937,"duration":0.24479166666662877},{"name":"A#4","midi":70,"time":858.8320312499798,"velocity":0.84251968503937,"duration":0.48307291666662877},{"name":"A2","midi":45,"time":859.0820312499798,"velocity":0.84251968503937,"duration":0.24479166666662877},{"name":"A#2","midi":46,"time":859.3320312499798,"velocity":0.84251968503937,"duration":0.24479166666662877},{"name":"A4","midi":69,"time":859.3320312499798,"velocity":0.84251968503937,"duration":0.48307291666662877},{"name":"G2","midi":43,"time":859.5820312499798,"velocity":0.84251968503937,"duration":0.24479166666662877},{"name":"C3","midi":48,"time":859.8320312499798,"velocity":0.84251968503937,"duration":0.24479166666662877},{"name":"G4","midi":67,"time":859.8320312499798,"velocity":0.84251968503937,"duration":0.9947916666666288},{"name":"G2","midi":43,"time":860.0820312499798,"velocity":0.84251968503937,"duration":0.24479166666662877},{"name":"C2","midi":36,"time":860.3320312499798,"velocity":0.84251968503937,"duration":0.24479166666662877},{"name":"G2","midi":43,"time":860.5820312499798,"velocity":0.84251968503937,"duration":0.24479166666662877},{"name":"C3","midi":48,"time":860.8320312499798,"velocity":0.84251968503937,"duration":0.24479166666662877},{"name":"E5","midi":76,"time":860.8320312499798,"velocity":0.84251968503937,"duration":1.98828125},{"name":"G4","midi":67,"time":860.8320312499798,"velocity":0.84251968503937,"duration":0.48307291666662877},{"name":"D3","midi":50,"time":861.0820312499798,"velocity":0.84251968503937,"duration":0.24479166666662877},{"name":"E3","midi":52,"time":861.3320312499798,"velocity":0.84251968503937,"duration":0.24479166666662877},{"name":"G4","midi":67,"time":861.3320312499798,"velocity":0.84251968503937,"duration":0.48307291666662877},{"name":"D3","midi":50,"time":861.5820312499798,"velocity":0.84251968503937,"duration":0.24479166666662877},{"name":"C#3","midi":49,"time":861.8320312499798,"velocity":0.84251968503937,"duration":0.7447916666666288},{"name":"G4","midi":67,"time":861.8320312499798,"velocity":0.84251968503937,"duration":0.24479166666662877},{"name":"A#4","midi":70,"time":862.0820312499798,"velocity":0.84251968503937,"duration":0.24479166666662877},{"name":"A4","midi":69,"time":862.3320312499798,"velocity":0.84251968503937,"duration":0.24479166666662877},{"name":"C#3","midi":49,"time":862.5820312499798,"velocity":0.84251968503937,"duration":0.24479166666662877},{"name":"G4","midi":67,"time":862.5820312499798,"velocity":0.84251968503937,"duration":0.24479166666662877},{"name":"D3","midi":50,"time":862.8320312499798,"velocity":0.84251968503937,"duration":0.24479166666662877},{"name":"D5","midi":74,"time":862.8320312499798,"velocity":0.84251968503937,"duration":0.9947916666666288},{"name":"F4","midi":65,"time":862.8320312499798,"velocity":0.84251968503937,"duration":0.24479166666662877},{"name":"C3","midi":48,"time":863.0820312499798,"velocity":0.84251968503937,"duration":0.24479166666662877},{"name":"A4","midi":69,"time":863.0820312499798,"velocity":0.84251968503937,"duration":0.24479166666662877},{"name":"A#2","midi":46,"time":863.3320312499798,"velocity":0.84251968503937,"duration":0.24479166666662877},{"name":"G4","midi":67,"time":863.3320312499798,"velocity":0.84251968503937,"duration":0.24479166666662877},{"name":"G2","midi":43,"time":863.5820312499798,"velocity":0.84251968503937,"duration":0.24479166666662877},{"name":"F4","midi":65,"time":863.5820312499798,"velocity":0.84251968503937,"duration":0.24479166666662877},{"name":"A2","midi":45,"time":863.8320312499798,"velocity":0.84251968503937,"duration":0.48307291666662877},{"name":"E4","midi":64,"time":863.8320312499798,"velocity":0.84251968503937,"duration":0.48307291666662877},{"name":"C#5","midi":73,"time":863.8320312499798,"velocity":0.84251968503937,"duration":0.48307291666662877},{"name":"D2","midi":38,"time":864.3320312499798,"velocity":0.84251968503937,"duration":0.24479166666662877},{"name":"D4","midi":62,"time":864.3320312499798,"velocity":0.84251968503937,"duration":0.24479166666662877},{"name":"D5","midi":74,"time":864.3320312499798,"velocity":0.84251968503937,"duration":0.24479166666662877},{"name":"A2","midi":45,"time":864.5820312499798,"velocity":0.84251968503937,"duration":0.24479166666662877},{"name":"E5","midi":76,"time":864.5820312499798,"velocity":0.84251968503937,"duration":0.24479166666662877},{"name":"D3","midi":50,"time":864.8320312499798,"velocity":0.84251968503937,"duration":0.24479166666662877},{"name":"F5","midi":77,"time":864.8320312499798,"velocity":0.84251968503937,"duration":0.24479166666662877},{"name":"E3","midi":52,"time":865.0820312499798,"velocity":0.84251968503937,"duration":0.24479166666662877},{"name":"G5","midi":79,"time":865.0820312499798,"velocity":0.84251968503937,"duration":0.24479166666662877},{"name":"F3","midi":53,"time":865.3320312499798,"velocity":0.84251968503937,"duration":0.24479166666662877},{"name":"D5","midi":74,"time":865.3320312499798,"velocity":0.84251968503937,"duration":0.24479166666662877},{"name":"A5","midi":81,"time":865.3320312499798,"velocity":0.84251968503937,"duration":0.48307291666662877},{"name":"C#3","midi":49,"time":865.5820312499798,"velocity":0.84251968503937,"duration":0.24479166666662877},{"name":"E5","midi":76,"time":865.5820312499798,"velocity":0.84251968503937,"duration":0.24479166666662877},{"name":"D3","midi":50,"time":865.8320312499798,"velocity":0.84251968503937,"duration":0.24479166666662877},{"name":"F5","midi":77,"time":865.8320312499798,"velocity":0.84251968503937,"duration":0.9947916666666288},{"name":"A#5","midi":82,"time":865.8320312499798,"velocity":0.84251968503937,"duration":0.11979166666662877},{"name":"A5","midi":81,"time":865.9570312499798,"velocity":0.84251968503937,"duration":0.11979166666662877},{"name":"A2","midi":45,"time":866.0820312499798,"velocity":0.84251968503937,"duration":0.24479166666662877},{"name":"A#5","midi":82,"time":866.0820312499798,"velocity":0.84251968503937,"duration":0.11979166666662877},{"name":"A5","midi":81,"time":866.2070312499798,"velocity":0.84251968503937,"duration":0.11979166666662877},{"name":"D2","midi":38,"time":866.3320312499798,"velocity":0.84251968503937,"duration":0.24479166666662877},{"name":"A#5","midi":82,"time":866.3320312499798,"velocity":0.84251968503937,"duration":0.11979166666662877},{"name":"A5","midi":81,"time":866.4570312499798,"velocity":0.84251968503937,"duration":0.11979166666662877},{"name":"C3","midi":48,"time":866.5820312499798,"velocity":0.84251968503937,"duration":0.24479166666662877},{"name":"G5","midi":79,"time":866.5820312499798,"velocity":0.84251968503937,"duration":0.11979166666662877},{"name":"A5","midi":81,"time":866.7070312499798,"velocity":0.84251968503937,"duration":0.11979166666662877},{"name":"A#2","midi":46,"time":866.8320312499798,"velocity":0.84251968503937,"duration":0.24479166666662877},{"name":"A#5","midi":82,"time":866.8320312499798,"velocity":0.84251968503937,"duration":0.48307291666662877},{"name":"G5","midi":79,"time":866.8320312499798,"velocity":0.84251968503937,"duration":0.48307291666662877},{"name":"A2","midi":45,"time":867.0820312499798,"velocity":0.84251968503937,"duration":0.24479166666662877},{"name":"A#2","midi":46,"time":867.3320312499798,"velocity":0.84251968503937,"duration":0.24479166666662877},{"name":"A5","midi":81,"time":867.3320312499798,"velocity":0.84251968503937,"duration":0.48307291666662877},{"name":"F5","midi":77,"time":867.3320312499798,"velocity":0.84251968503937,"duration":0.48307291666662877},{"name":"G2","midi":43,"time":867.5820312499798,"velocity":0.84251968503937,"duration":0.24479166666662877},{"name":"C3","midi":48,"time":867.8320312499798,"velocity":0.84251968503937,"duration":0.7447916666666288},{"name":"E5","midi":76,"time":867.8320312499798,"velocity":0.84251968503937,"duration":0.9947916666666288},{"name":"G5","midi":79,"time":867.8320312499798,"velocity":0.84251968503937,"duration":0.24479166666662877},{"name":"A#5","midi":82,"time":868.0820312499798,"velocity":0.84251968503937,"duration":0.24479166666662877},{"name":"A5","midi":81,"time":868.3320312499798,"velocity":0.84251968503937,"duration":0.24479166666662877},{"name":"C#3","midi":49,"time":868.5820312499798,"velocity":0.84251968503937,"duration":0.24479166666662877},{"name":"G5","midi":79,"time":868.5820312499798,"velocity":0.84251968503937,"duration":0.24479166666662877},{"name":"D3","midi":50,"time":868.8320312499798,"velocity":0.84251968503937,"duration":0.24479166666662877},{"name":"F5","midi":77,"time":868.8320312499798,"velocity":0.84251968503937,"duration":0.24479166666662877},{"name":"E3","midi":52,"time":869.0820312499798,"velocity":0.84251968503937,"duration":0.24479166666662877},{"name":"E5","midi":76,"time":869.0820312499798,"velocity":0.84251968503937,"duration":0.24479166666662877},{"name":"F3","midi":53,"time":869.3320312499798,"velocity":0.84251968503937,"duration":0.24479166666662877},{"name":"D5","midi":74,"time":869.3320312499798,"velocity":0.84251968503937,"duration":0.24479166666662877},{"name":"G3","midi":55,"time":869.5820312499798,"velocity":0.84251968503937,"duration":0.24479166666662877},{"name":"C#5","midi":73,"time":869.5820312499798,"velocity":0.84251968503937,"duration":0.24479166666662877},{"name":"F2","midi":41,"time":869.8320312499798,"velocity":0.84251968503937,"duration":0.48307291666662877},{"name":"D5","midi":74,"time":869.8320312499798,"velocity":0.84251968503937,"duration":0.48307291666662877},{"name":"A5","midi":81,"time":869.8320312499798,"velocity":0.84251968503937,"duration":0.48307291666662877},{"name":"A2","midi":45,"time":870.8320312499798,"velocity":0.84251968503937,"duration":0.48307291666662877},{"name":"C#5","midi":73,"time":870.8320312499798,"velocity":0.84251968503937,"duration":0.48307291666662877},{"name":"E5","midi":76,"time":870.8320312499798,"velocity":0.84251968503937,"duration":0.48307291666662877},{"name":"D2","midi":38,"time":871.8320312499798,"velocity":0.84251968503937,"duration":0.7447916666666288},{"name":"D5","midi":74,"time":871.8320312499798,"velocity":0.84251968503937,"duration":0.9947916666666288},{"name":"A4","midi":69,"time":872.884114583313,"velocity":0.84251968503937,"duration":0.23177083333337123},{"name":"F#5","midi":78,"time":872.884114583313,"velocity":0.84251968503937,"duration":0.48828125},{"name":"D4","midi":62,"time":873.134114583313,"velocity":0.84251968503937,"duration":0.23177083333337123},{"name":"F#4","midi":66,"time":873.384114583313,"velocity":0.84251968503937,"duration":0.23177083333337123},{"name":"F#5","midi":78,"time":873.384114583313,"velocity":0.84251968503937,"duration":0.48828125},{"name":"A4","midi":69,"time":873.634114583313,"velocity":0.84251968503937,"duration":0.23177083333337123},{"name":"D5","midi":74,"time":873.884114583313,"velocity":0.84251968503937,"duration":0.23177083333337123},{"name":"G5","midi":79,"time":873.884114583313,"velocity":0.84251968503937,"duration":0.11979166666662877},{"name":"F#5","midi":78,"time":874.009114583313,"velocity":0.84251968503937,"duration":0.11979166666674246},{"name":"D4","midi":62,"time":874.1341145833131,"velocity":0.84251968503937,"duration":0.23177083333337123},{"name":"G5","midi":79,"time":874.1341145833131,"velocity":0.84251968503937,"duration":0.11979166666662877},{"name":"F#5","midi":78,"time":874.2591145833131,"velocity":0.84251968503937,"duration":0.11979166666674246},{"name":"C5","midi":72,"time":874.3841145833132,"velocity":0.84251968503937,"duration":0.23177083333337123},{"name":"G5","midi":79,"time":874.3841145833132,"velocity":0.84251968503937,"duration":0.11979166666662877},{"name":"F#5","midi":78,"time":874.5091145833132,"velocity":0.84251968503937,"duration":0.11979166666674246},{"name":"D4","midi":62,"time":874.6341145833134,"velocity":0.84251968503937,"duration":0.23177083333337123},{"name":"E5","midi":76,"time":874.6341145833134,"velocity":0.84251968503937,"duration":0.11979166666662877},{"name":"F#5","midi":78,"time":874.7591145833134,"velocity":0.84251968503937,"duration":0.11979166666674246},{"name":"B4","midi":71,"time":874.8841145833135,"velocity":0.84251968503937,"duration":0.23177083333337123},{"name":"G5","midi":79,"time":874.8841145833135,"velocity":0.84251968503937,"duration":0.48828125},{"name":"D4","midi":62,"time":875.1341145833135,"velocity":0.84251968503937,"duration":0.23177083333337123},{"name":"A4","midi":69,"time":875.3841145833135,"velocity":0.84251968503937,"duration":0.23177083333337123},{"name":"F#5","midi":78,"time":875.3841145833135,"velocity":0.84251968503937,"duration":0.48828125},{"name":"D4","midi":62,"time":875.6341145833135,"velocity":0.84251968503937,"duration":0.23177083333337123},{"name":"G4","midi":67,"time":875.8841145833135,"velocity":0.84251968503937,"duration":0.23177083333337123},{"name":"E5","midi":76,"time":875.8841145833135,"velocity":0.84251968503937,"duration":0.9947916666667425},{"name":"D4","midi":62,"time":876.1341145833135,"velocity":0.84251968503937,"duration":0.23177083333337123},{"name":"F#4","midi":66,"time":876.3841145833135,"velocity":0.84251968503937,"duration":0.23177083333337123},{"name":"D4","midi":62,"time":876.6341145833135,"velocity":0.84251968503937,"duration":0.23177083333337123},{"name":"G4","midi":67,"time":876.8841145833136,"velocity":0.84251968503937,"duration":0.23177083333337123},{"name":"E5","midi":76,"time":876.8841145833136,"velocity":0.84251968503937,"duration":0.48828125},{"name":"D4","midi":62,"time":877.1341145833136,"velocity":0.84251968503937,"duration":0.23177083333337123},{"name":"E4","midi":64,"time":877.3841145833136,"velocity":0.84251968503937,"duration":0.23177083333337123},{"name":"E5","midi":76,"time":877.3841145833136,"velocity":0.84251968503937,"duration":0.48828125},{"name":"G4","midi":67,"time":877.6341145833136,"velocity":0.84251968503937,"duration":0.23177083333337123},{"name":"C#5","midi":73,"time":877.8841145833136,"velocity":0.84251968503937,"duration":0.23177083333337123},{"name":"F#5","midi":78,"time":877.8841145833136,"velocity":0.84251968503937,"duration":0.11979166666662877},{"name":"E5","midi":76,"time":878.0091145833136,"velocity":0.84251968503937,"duration":0.11979166666674246},{"name":"D4","midi":62,"time":878.1341145833137,"velocity":0.84251968503937,"duration":0.23177083333337123},{"name":"F#5","midi":78,"time":878.1341145833137,"velocity":0.84251968503937,"duration":0.11979166666662877},{"name":"E5","midi":76,"time":878.2591145833137,"velocity":0.84251968503937,"duration":0.11979166666674246},{"name":"B4","midi":71,"time":878.3841145833138,"velocity":0.84251968503937,"duration":0.23177083333337123},{"name":"F#5","midi":78,"time":878.3841145833138,"velocity":0.84251968503937,"duration":0.11979166666662877},{"name":"E5","midi":76,"time":878.5091145833138,"velocity":0.84251968503937,"duration":0.11979166666674246},{"name":"D4","midi":62,"time":878.6341145833139,"velocity":0.84251968503937,"duration":0.23177083333337123},{"name":"D5","midi":74,"time":878.6341145833139,"velocity":0.84251968503937,"duration":0.11979166666662877},{"name":"E5","midi":76,"time":878.7591145833139,"velocity":0.84251968503937,"duration":0.11979166666674246},{"name":"A4","midi":69,"time":878.884114583314,"velocity":0.84251968503937,"duration":0.23177083333337123},{"name":"F#5","midi":78,"time":878.884114583314,"velocity":0.84251968503937,"duration":0.23177083333337123},{"name":"D4","midi":62,"time":879.134114583314,"velocity":0.84251968503937,"duration":0.23177083333337123},{"name":"D5","midi":74,"time":879.134114583314,"velocity":0.84251968503937,"duration":0.23177083333337123},{"name":"G4","midi":67,"time":879.384114583314,"velocity":0.84251968503937,"duration":0.23177083333337123},{"name":"E5","midi":76,"time":879.384114583314,"velocity":0.84251968503937,"duration":0.23177083333337123},{"name":"D4","midi":62,"time":879.634114583314,"velocity":0.84251968503937,"duration":0.23177083333337123},{"name":"C#5","midi":73,"time":879.634114583314,"velocity":0.84251968503937,"duration":0.23177083333337123},{"name":"F#4","midi":66,"time":879.884114583314,"velocity":0.84251968503937,"duration":0.23177083333337123},{"name":"D5","midi":74,"time":879.884114583314,"velocity":0.84251968503937,"duration":0.48828125},{"name":"D4","midi":62,"time":880.134114583314,"velocity":0.84251968503937,"duration":0.23177083333337123},{"name":"F#4","midi":66,"time":880.384114583314,"velocity":0.84251968503937,"duration":0.23177083333337123},{"name":"A4","midi":69,"time":880.384114583314,"velocity":0.84251968503937,"duration":0.48828125},{"name":"G4","midi":67,"time":880.634114583314,"velocity":0.84251968503937,"duration":0.23177083333337123},{"name":"A4","midi":69,"time":880.884114583314,"velocity":0.84251968503937,"duration":0.23177083333337123},{"name":"F#5","midi":78,"time":880.884114583314,"velocity":0.84251968503937,"duration":0.48828125},{"name":"D4","midi":62,"time":881.134114583314,"velocity":0.84251968503937,"duration":0.23177083333337123},{"name":"F#4","midi":66,"time":881.384114583314,"velocity":0.84251968503937,"duration":0.23177083333337123},{"name":"F#5","midi":78,"time":881.384114583314,"velocity":0.84251968503937,"duration":0.48828125},{"name":"A4","midi":69,"time":881.634114583314,"velocity":0.84251968503937,"duration":0.23177083333337123},{"name":"D5","midi":74,"time":881.884114583314,"velocity":0.84251968503937,"duration":0.23177083333337123},{"name":"G5","midi":79,"time":881.884114583314,"velocity":0.84251968503937,"duration":0.11979166666662877},{"name":"F#5","midi":78,"time":882.009114583314,"velocity":0.84251968503937,"duration":0.11979166666674246},{"name":"D4","midi":62,"time":882.1341145833142,"velocity":0.84251968503937,"duration":0.23177083333337123},{"name":"G5","midi":79,"time":882.1341145833142,"velocity":0.84251968503937,"duration":0.11979166666662877},{"name":"F#5","midi":78,"time":882.2591145833142,"velocity":0.84251968503937,"duration":0.11979166666674246},{"name":"C5","midi":72,"time":882.3841145833143,"velocity":0.84251968503937,"duration":0.23177083333337123},{"name":"G5","midi":79,"time":882.3841145833143,"velocity":0.84251968503937,"duration":0.11979166666662877},{"name":"F#5","midi":78,"time":882.5091145833143,"velocity":0.84251968503937,"duration":0.11979166666674246},{"name":"D4","midi":62,"time":882.6341145833144,"velocity":0.84251968503937,"duration":0.23177083333337123},{"name":"E5","midi":76,"time":882.6341145833144,"velocity":0.84251968503937,"duration":0.11979166666662877},{"name":"F#5","midi":78,"time":882.7591145833144,"velocity":0.84251968503937,"duration":0.11979166666674246},{"name":"B4","midi":71,"time":882.8841145833145,"velocity":0.84251968503937,"duration":0.23177083333337123},{"name":"G5","midi":79,"time":882.8841145833145,"velocity":0.84251968503937,"duration":0.48828125},{"name":"D4","midi":62,"time":883.1341145833145,"velocity":0.84251968503937,"duration":0.23177083333337123},{"name":"A4","midi":69,"time":883.3841145833145,"velocity":0.84251968503937,"duration":0.23177083333337123},{"name":"F#5","midi":78,"time":883.3841145833145,"velocity":0.84251968503937,"duration":0.48828125},{"name":"D4","midi":62,"time":883.6341145833145,"velocity":0.84251968503937,"duration":0.23177083333337123},{"name":"G4","midi":67,"time":883.8841145833145,"velocity":0.84251968503937,"duration":0.23177083333337123},{"name":"E5","midi":76,"time":883.8841145833145,"velocity":0.84251968503937,"duration":0.48828125},{"name":"D4","midi":62,"time":884.1341145833145,"velocity":0.84251968503937,"duration":0.23177083333337123},{"name":"F#4","midi":66,"time":884.3841145833145,"velocity":0.84251968503937,"duration":0.23177083333337123},{"name":"B5","midi":83,"time":884.3841145833145,"velocity":0.84251968503937,"duration":0.23177083333337123},{"name":"D4","midi":62,"time":884.6341145833145,"velocity":0.84251968503937,"duration":0.23177083333337123},{"name":"A5","midi":81,"time":884.6341145833145,"velocity":0.84251968503937,"duration":0.23177083333337123},{"name":"E4","midi":64,"time":884.8841145833145,"velocity":0.84251968503937,"duration":0.23177083333337123},{"name":"G5","midi":79,"time":884.8841145833145,"velocity":0.84251968503937,"duration":0.23177083333337123},{"name":"D4","midi":62,"time":885.1341145833145,"velocity":0.84251968503937,"duration":0.23177083333337123},{"name":"F#5","midi":78,"time":885.1341145833145,"velocity":0.84251968503937,"duration":0.23177083333337123},{"name":"F#4","midi":66,"time":885.3841145833145,"velocity":0.84251968503937,"duration":0.23177083333337123},{"name":"E5","midi":76,"time":885.3841145833145,"velocity":0.84251968503937,"duration":0.23177083333337123},{"name":"D4","midi":62,"time":885.6341145833145,"velocity":0.84251968503937,"duration":0.23177083333337123},{"name":"D5","midi":74,"time":885.6341145833145,"velocity":0.84251968503937,"duration":0.23177083333337123},{"name":"G4","midi":67,"time":885.8841145833145,"velocity":0.84251968503937,"duration":0.23177083333337123},{"name":"C#5","midi":73,"time":885.8841145833145,"velocity":0.84251968503937,"duration":0.23177083333337123},{"name":"D4","midi":62,"time":886.1341145833145,"velocity":0.84251968503937,"duration":0.23177083333337123},{"name":"B4","midi":71,"time":886.1341145833145,"velocity":0.84251968503937,"duration":0.23177083333337123},{"name":"F#4","midi":66,"time":886.3841145833145,"velocity":0.84251968503937,"duration":0.23177083333337123},{"name":"A4","midi":69,"time":886.3841145833145,"velocity":0.84251968503937,"duration":0.23177083333337123},{"name":"D4","midi":62,"time":886.6341145833145,"velocity":0.84251968503937,"duration":0.23177083333337123},{"name":"B4","midi":71,"time":886.6341145833145,"velocity":0.84251968503937,"duration":0.23177083333337123},{"name":"E4","midi":64,"time":886.8841145833145,"velocity":0.84251968503937,"duration":0.23177083333337123},{"name":"C#5","midi":73,"time":886.8841145833145,"velocity":0.84251968503937,"duration":0.23177083333337123},{"name":"D4","midi":62,"time":887.1341145833145,"velocity":0.84251968503937,"duration":0.23177083333337123},{"name":"D5","midi":74,"time":887.1341145833145,"velocity":0.84251968503937,"duration":0.23177083333337123},{"name":"G4","midi":67,"time":887.3841145833145,"velocity":0.84251968503937,"duration":0.23177083333337123},{"name":"E5","midi":76,"time":887.3841145833145,"velocity":0.84251968503937,"duration":0.23177083333337123},{"name":"D4","midi":62,"time":887.6341145833145,"velocity":0.84251968503937,"duration":0.23177083333337123},{"name":"C#5","midi":73,"time":887.6341145833145,"velocity":0.84251968503937,"duration":0.23177083333337123},{"name":"F#4","midi":66,"time":887.8841145833145,"velocity":0.84251968503937,"duration":0.23177083333337123},{"name":"D5","midi":74,"time":887.8841145833145,"velocity":0.84251968503937,"duration":0.9947916666667425},{"name":"D4","midi":62,"time":888.1341145833145,"velocity":0.84251968503937,"duration":0.23177083333337123},{"name":"E4","midi":64,"time":888.3841145833145,"velocity":0.84251968503937,"duration":0.23177083333337123},{"name":"D4","midi":62,"time":888.6341145833145,"velocity":0.84251968503937,"duration":0.23177083333337123},{"name":"F#4","midi":66,"time":888.8841145833146,"velocity":0.84251968503937,"duration":0.23177083333337123},{"name":"A5","midi":81,"time":888.8841145833146,"velocity":0.84251968503937,"duration":0.48828125},{"name":"D4","midi":62,"time":889.1341145833146,"velocity":0.84251968503937,"duration":0.23177083333337123},{"name":"F#4","midi":66,"time":889.3841145833146,"velocity":0.84251968503937,"duration":0.23177083333337123},{"name":"A5","midi":81,"time":889.3841145833146,"velocity":0.84251968503937,"duration":0.48828125},{"name":"A4","midi":69,"time":889.6341145833146,"velocity":0.84251968503937,"duration":0.23177083333337123},{"name":"D5","midi":74,"time":889.8841145833146,"velocity":0.84251968503937,"duration":0.23177083333337123},{"name":"B5","midi":83,"time":889.8841145833146,"velocity":0.84251968503937,"duration":0.11979166666662877},{"name":"A5","midi":81,"time":890.0091145833146,"velocity":0.84251968503937,"duration":0.11979166666674246},{"name":"A4","midi":69,"time":890.1341145833147,"velocity":0.84251968503937,"duration":0.23177083333337123},{"name":"B5","midi":83,"time":890.1341145833147,"velocity":0.84251968503937,"duration":0.11979166666662877},{"name":"A5","midi":81,"time":890.2591145833147,"velocity":0.84251968503937,"duration":0.11979166666674246},{"name":"F#4","midi":66,"time":890.3841145833148,"velocity":0.84251968503937,"duration":0.23177083333337123},{"name":"B5","midi":83,"time":890.3841145833148,"velocity":0.84251968503937,"duration":0.11979166666662877},{"name":"A5","midi":81,"time":890.5091145833148,"velocity":0.84251968503937,"duration":0.11979166666674246},{"name":"D4","midi":62,"time":890.634114583315,"velocity":0.84251968503937,"duration":0.23177083333337123},{"name":"G5","midi":79,"time":890.634114583315,"velocity":0.84251968503937,"duration":0.11979166666662877},{"name":"A5","midi":81,"time":890.759114583315,"velocity":0.84251968503937,"duration":0.11979166666674246},{"name":"G4","midi":67,"time":890.8841145833151,"velocity":0.84251968503937,"duration":0.23177083333337123},{"name":"B5","midi":83,"time":890.8841145833151,"velocity":0.84251968503937,"duration":0.23177083333337123},{"name":"D4","midi":62,"time":891.1341145833151,"velocity":0.84251968503937,"duration":0.23177083333337123},{"name":"A5","midi":81,"time":891.1341145833151,"velocity":0.84251968503937,"duration":0.23177083333337123},{"name":"A4","midi":69,"time":891.3841145833151,"velocity":0.84251968503937,"duration":0.23177083333337123},{"name":"G5","midi":79,"time":891.3841145833151,"velocity":0.84251968503937,"duration":0.23177083333337123},{"name":"D4","midi":62,"time":891.6341145833151,"velocity":0.84251968503937,"duration":0.23177083333337123},{"name":"F#5","midi":78,"time":891.6341145833151,"velocity":0.84251968503937,"duration":0.23177083333337123},{"name":"B4","midi":71,"time":891.8841145833151,"velocity":0.84251968503937,"duration":0.23177083333337123},{"name":"G5","midi":79,"time":891.8841145833151,"velocity":0.84251968503937,"duration":0.48828125},{"name":"D4","midi":62,"time":892.1341145833151,"velocity":0.84251968503937,"duration":0.23177083333337123},{"name":"C5","midi":72,"time":892.3841145833151,"velocity":0.84251968503937,"duration":0.23177083333337123},{"name":"D5","midi":74,"time":892.3841145833151,"velocity":0.84251968503937,"duration":0.48828125},{"name":"D4","midi":62,"time":892.6341145833151,"velocity":0.84251968503937,"duration":0.23177083333337123},{"name":"B4","midi":71,"time":892.8841145833151,"velocity":0.84251968503937,"duration":0.23177083333337123},{"name":"G5","midi":79,"time":892.8841145833151,"velocity":0.84251968503937,"duration":0.48828125},{"name":"D4","midi":62,"time":893.1341145833151,"velocity":0.84251968503937,"duration":0.23177083333337123},{"name":"A4","midi":69,"time":893.3841145833151,"velocity":0.84251968503937,"duration":0.23177083333337123},{"name":"A5","midi":81,"time":893.3841145833151,"velocity":0.84251968503937,"duration":0.48828125},{"name":"D4","midi":62,"time":893.6341145833151,"velocity":0.84251968503937,"duration":0.23177083333337123},{"name":"G4","midi":67,"time":893.8841145833151,"velocity":0.84251968503937,"duration":0.23177083333337123},{"name":"B5","midi":83,"time":893.8841145833151,"velocity":0.84251968503937,"duration":0.23177083333337123},{"name":"D4","midi":62,"time":894.1341145833151,"velocity":0.84251968503937,"duration":0.23177083333337123},{"name":"C6","midi":84,"time":894.1341145833151,"velocity":0.84251968503937,"duration":0.23177083333337123},{"name":"A4","midi":69,"time":894.3841145833151,"velocity":0.84251968503937,"duration":0.23177083333337123},{"name":"B5","midi":83,"time":894.3841145833151,"velocity":0.84251968503937,"duration":0.23177083333337123},{"name":"D4","midi":62,"time":894.6341145833151,"velocity":0.84251968503937,"duration":0.23177083333337123},{"name":"A5","midi":81,"time":894.6341145833151,"velocity":0.84251968503937,"duration":0.23177083333337123},{"name":"B4","midi":71,"time":894.8841145833151,"velocity":0.84251968503937,"duration":0.23177083333337123},{"name":"G5","midi":79,"time":894.8841145833151,"velocity":0.84251968503937,"duration":0.23177083333337123},{"name":"D4","midi":62,"time":895.1341145833151,"velocity":0.84251968503937,"duration":0.23177083333337123},{"name":"F#5","midi":78,"time":895.1341145833151,"velocity":0.84251968503937,"duration":0.23177083333337123},{"name":"C5","midi":72,"time":895.3841145833151,"velocity":0.84251968503937,"duration":0.23177083333337123},{"name":"E5","midi":76,"time":895.3841145833151,"velocity":0.84251968503937,"duration":0.23177083333337123},{"name":"D4","midi":62,"time":895.6341145833151,"velocity":0.84251968503937,"duration":0.23177083333337123},{"name":"D5","midi":74,"time":895.6341145833151,"velocity":0.84251968503937,"duration":0.23177083333337123},{"name":"B4","midi":71,"time":895.8841145833151,"velocity":0.84251968503937,"duration":0.23177083333337123},{"name":"G5","midi":79,"time":895.8841145833151,"velocity":0.84251968503937,"duration":0.9947916666667425},{"name":"D4","midi":62,"time":896.1341145833151,"velocity":0.84251968503937,"duration":0.23177083333337123},{"name":"A4","midi":69,"time":896.3841145833151,"velocity":0.84251968503937,"duration":0.23177083333337123},{"name":"D4","midi":62,"time":896.6341145833151,"velocity":0.84251968503937,"duration":0.23177083333337123},{"name":"G4","midi":67,"time":896.8841145833152,"velocity":0.84251968503937,"duration":0.23177083333337123},{"name":"E5","midi":76,"time":896.8841145833152,"velocity":0.84251968503937,"duration":0.48828125},{"name":"D4","midi":62,"time":897.1341145833152,"velocity":0.84251968503937,"duration":0.23177083333337123},{"name":"F#4","midi":66,"time":897.3841145833152,"velocity":0.84251968503937,"duration":0.23177083333337123},{"name":"E5","midi":76,"time":897.3841145833152,"velocity":0.84251968503937,"duration":0.48828125},{"name":"D4","midi":62,"time":897.6341145833152,"velocity":0.84251968503937,"duration":0.23177083333337123},{"name":"G4","midi":67,"time":897.8841145833152,"velocity":0.84251968503937,"duration":0.23177083333337123},{"name":"E5","midi":76,"time":897.8841145833152,"velocity":0.84251968503937,"duration":0.11979166666662877},{"name":"D5","midi":74,"time":898.0091145833152,"velocity":0.84251968503937,"duration":0.11979166666674246},{"name":"D4","midi":62,"time":898.1341145833153,"velocity":0.84251968503937,"duration":0.23177083333337123},{"name":"E5","midi":76,"time":898.1341145833153,"velocity":0.84251968503937,"duration":0.48828125},{"name":"A4","midi":69,"time":898.3841145833153,"velocity":0.84251968503937,"duration":0.23177083333337123},{"name":"D4","midi":62,"time":898.6341145833153,"velocity":0.84251968503937,"duration":0.23177083333337123},{"name":"F#5","midi":78,"time":898.6341145833153,"velocity":0.84251968503937,"duration":0.23177083333337123},{"name":"B4","midi":71,"time":898.8841145833153,"velocity":0.84251968503937,"duration":0.23177083333337123},{"name":"G5","midi":79,"time":898.8841145833153,"velocity":0.84251968503937,"duration":0.23177083333337123},{"name":"D4","midi":62,"time":899.1341145833153,"velocity":0.84251968503937,"duration":0.23177083333337123},{"name":"A5","midi":81,"time":899.1341145833153,"velocity":0.84251968503937,"duration":0.23177083333337123},{"name":"A4","midi":69,"time":899.3841145833153,"velocity":0.84251968503937,"duration":0.23177083333337123},{"name":"G5","midi":79,"time":899.3841145833153,"velocity":0.84251968503937,"duration":0.23177083333337123},{"name":"D4","midi":62,"time":899.6341145833153,"velocity":0.84251968503937,"duration":0.23177083333337123},{"name":"F#5","midi":78,"time":899.6341145833153,"velocity":0.84251968503937,"duration":0.23177083333337123},{"name":"G4","midi":67,"time":899.8841145833153,"velocity":0.84251968503937,"duration":0.23177083333337123},{"name":"E5","midi":76,"time":899.8841145833153,"velocity":0.84251968503937,"duration":0.23177083333337123},{"name":"D4","midi":62,"time":900.1341145833153,"velocity":0.84251968503937,"duration":0.23177083333337123},{"name":"D5","midi":74,"time":900.1341145833153,"velocity":0.84251968503937,"duration":0.23177083333337123},{"name":"B4","midi":71,"time":900.3841145833153,"velocity":0.84251968503937,"duration":0.23177083333337123},{"name":"C#5","midi":73,"time":900.3841145833153,"velocity":0.84251968503937,"duration":0.23177083333337123},{"name":"D4","midi":62,"time":900.6341145833153,"velocity":0.84251968503937,"duration":0.23177083333337123},{"name":"D5","midi":74,"time":900.6341145833153,"velocity":0.84251968503937,"duration":0.23177083333337123},{"name":"A4","midi":69,"time":900.8841145833153,"velocity":0.84251968503937,"duration":0.23177083333337123},{"name":"E5","midi":76,"time":900.8841145833153,"velocity":0.84251968503937,"duration":0.23177083333337123},{"name":"D4","midi":62,"time":901.1341145833153,"velocity":0.84251968503937,"duration":0.23177083333337123},{"name":"F#5","midi":78,"time":901.1341145833153,"velocity":0.84251968503937,"duration":0.23177083333337123},{"name":"G4","midi":67,"time":901.3841145833153,"velocity":0.84251968503937,"duration":0.23177083333337123},{"name":"G5","midi":79,"time":901.3841145833153,"velocity":0.84251968503937,"duration":0.23177083333337123},{"name":"D4","midi":62,"time":901.6341145833153,"velocity":0.84251968503937,"duration":0.23177083333337123},{"name":"B5","midi":83,"time":901.6341145833153,"velocity":0.84251968503937,"duration":0.23177083333337123},{"name":"F#4","midi":66,"time":901.8841145833153,"velocity":0.84251968503937,"duration":0.23177083333337123},{"name":"A5","midi":81,"time":901.8841145833153,"velocity":0.84251968503937,"duration":0.23177083333337123},{"name":"D4","midi":62,"time":902.1341145833153,"velocity":0.84251968503937,"duration":0.23177083333337123},{"name":"G5","midi":79,"time":902.1341145833153,"velocity":0.84251968503937,"duration":0.23177083333337123},{"name":"G4","midi":67,"time":902.3841145833153,"velocity":0.84251968503937,"duration":0.23177083333337123},{"name":"F#5","midi":78,"time":902.3841145833153,"velocity":0.84251968503937,"duration":0.23177083333337123},{"name":"D4","midi":62,"time":902.6341145833153,"velocity":0.84251968503937,"duration":0.23177083333337123},{"name":"E5","midi":76,"time":902.6341145833153,"velocity":0.84251968503937,"duration":0.23177083333337123},{"name":"A4","midi":69,"time":902.8841145833153,"velocity":0.84251968503937,"duration":0.23177083333337123},{"name":"F#5","midi":78,"time":902.8841145833153,"velocity":0.84251968503937,"duration":0.23177083333337123},{"name":"D4","midi":62,"time":903.1341145833153,"velocity":0.84251968503937,"duration":0.23177083333337123},{"name":"A5","midi":81,"time":903.1341145833153,"velocity":0.84251968503937,"duration":0.23177083333337123},{"name":"B4","midi":71,"time":903.3841145833153,"velocity":0.84251968503937,"duration":0.23177083333337123},{"name":"F#5","midi":78,"time":903.3841145833153,"velocity":0.84251968503937,"duration":0.23177083333337123},{"name":"D4","midi":62,"time":903.6341145833153,"velocity":0.84251968503937,"duration":0.23177083333337123},{"name":"A5","midi":81,"time":903.6341145833153,"velocity":0.84251968503937,"duration":0.23177083333337123},{"name":"C#5","midi":73,"time":903.8841145833153,"velocity":0.84251968503937,"duration":0.23177083333337123},{"name":"E5","midi":76,"time":903.8841145833153,"velocity":0.84251968503937,"duration":0.9947916666667425},{"name":"D4","midi":62,"time":904.1341145833153,"velocity":0.84251968503937,"duration":0.23177083333337123},{"name":"G4","midi":67,"time":904.3841145833153,"velocity":0.84251968503937,"duration":0.23177083333337123},{"name":"C#5","midi":73,"time":904.6341145833153,"velocity":0.84251968503937,"duration":0.23177083333337123},{"name":"D5","midi":74,"time":904.8841145833154,"velocity":0.84251968503937,"duration":0.23177083333337123},{"name":"F#5","midi":78,"time":904.8841145833154,"velocity":0.84251968503937,"duration":0.48828125},{"name":"A4","midi":69,"time":905.1341145833154,"velocity":0.84251968503937,"duration":0.23177083333337123},{"name":"D4","midi":62,"time":905.3841145833154,"velocity":0.84251968503937,"duration":0.23177083333337123},{"name":"F#5","midi":78,"time":905.3841145833154,"velocity":0.84251968503937,"duration":0.48828125},{"name":"A4","midi":69,"time":905.6341145833154,"velocity":0.84251968503937,"duration":0.23177083333337123},{"name":"D5","midi":74,"time":905.8841145833154,"velocity":0.84251968503937,"duration":0.23177083333337123},{"name":"G5","midi":79,"time":905.8841145833154,"velocity":0.84251968503937,"duration":0.11979166666662877},{"name":"F#5","midi":78,"time":906.0091145833154,"velocity":0.84251968503937,"duration":0.11979166666674246},{"name":"D4","midi":62,"time":906.1341145833155,"velocity":0.84251968503937,"duration":0.23177083333337123},{"name":"G5","midi":79,"time":906.1341145833155,"velocity":0.84251968503937,"duration":0.11979166666662877},{"name":"F#5","midi":78,"time":906.2591145833155,"velocity":0.84251968503937,"duration":0.11979166666674246},{"name":"C5","midi":72,"time":906.3841145833156,"velocity":0.84251968503937,"duration":0.23177083333337123},{"name":"G5","midi":79,"time":906.3841145833156,"velocity":0.84251968503937,"duration":0.11979166666662877},{"name":"F#5","midi":78,"time":906.5091145833156,"velocity":0.84251968503937,"duration":0.11979166666674246},{"name":"D4","midi":62,"time":906.6341145833157,"velocity":0.84251968503937,"duration":0.23177083333337123},{"name":"E5","midi":76,"time":906.6341145833157,"velocity":0.84251968503937,"duration":0.11979166666662877},{"name":"F#5","midi":78,"time":906.7591145833157,"velocity":0.84251968503937,"duration":0.11979166666674246},{"name":"B4","midi":71,"time":906.8841145833159,"velocity":0.84251968503937,"duration":0.23177083333337123},{"name":"G5","midi":79,"time":906.8841145833159,"velocity":0.84251968503937,"duration":0.48828125},{"name":"D4","midi":62,"time":907.1341145833159,"velocity":0.84251968503937,"duration":0.23177083333337123},{"name":"A4","midi":69,"time":907.3841145833159,"velocity":0.84251968503937,"duration":0.23177083333337123},{"name":"F#5","midi":78,"time":907.3841145833159,"velocity":0.84251968503937,"duration":0.48828125},{"name":"D4","midi":62,"time":907.6341145833159,"velocity":0.84251968503937,"duration":0.23177083333337123},{"name":"G4","midi":67,"time":907.8841145833159,"velocity":0.84251968503937,"duration":0.23177083333337123},{"name":"E5","midi":76,"time":907.8841145833159,"velocity":0.84251968503937,"duration":0.9947916666667425},{"name":"D4","midi":62,"time":908.1341145833159,"velocity":0.84251968503937,"duration":0.23177083333337123},{"name":"F#4","midi":66,"time":908.3841145833159,"velocity":0.84251968503937,"duration":0.23177083333337123},{"name":"D4","midi":62,"time":908.6341145833159,"velocity":0.84251968503937,"duration":0.23177083333337123},{"name":"G4","midi":67,"time":908.884114583316,"velocity":0.84251968503937,"duration":0.23177083333337123},{"name":"E5","midi":76,"time":908.884114583316,"velocity":0.84251968503937,"duration":0.48828125},{"name":"D4","midi":62,"time":909.134114583316,"velocity":0.84251968503937,"duration":0.23177083333337123},{"name":"E4","midi":64,"time":909.384114583316,"velocity":0.84251968503937,"duration":0.23177083333337123},{"name":"E5","midi":76,"time":909.384114583316,"velocity":0.84251968503937,"duration":0.48828125},{"name":"G4","midi":67,"time":909.634114583316,"velocity":0.84251968503937,"duration":0.23177083333337123},{"name":"C#5","midi":73,"time":909.884114583316,"velocity":0.84251968503937,"duration":0.23177083333337123},{"name":"F#5","midi":78,"time":909.884114583316,"velocity":0.84251968503937,"duration":0.11979166666662877},{"name":"E5","midi":76,"time":910.009114583316,"velocity":0.84251968503937,"duration":0.11979166666674246},{"name":"D4","midi":62,"time":910.1341145833161,"velocity":0.84251968503937,"duration":0.23177083333337123},{"name":"F#5","midi":78,"time":910.1341145833161,"velocity":0.84251968503937,"duration":0.11979166666662877},{"name":"E5","midi":76,"time":910.2591145833161,"velocity":0.84251968503937,"duration":0.11979166666674246},{"name":"B4","midi":71,"time":910.3841145833162,"velocity":0.84251968503937,"duration":0.23177083333337123},{"name":"F#5","midi":78,"time":910.3841145833162,"velocity":0.84251968503937,"duration":0.11979166666662877},{"name":"E5","midi":76,"time":910.5091145833162,"velocity":0.84251968503937,"duration":0.11979166666674246},{"name":"D4","midi":62,"time":910.6341145833163,"velocity":0.84251968503937,"duration":0.23177083333337123},{"name":"D5","midi":74,"time":910.6341145833163,"velocity":0.84251968503937,"duration":0.11979166666662877},{"name":"E5","midi":76,"time":910.7591145833163,"velocity":0.84251968503937,"duration":0.11979166666674246},{"name":"A4","midi":69,"time":910.8841145833164,"velocity":0.84251968503937,"duration":0.23177083333337123},{"name":"F#5","midi":78,"time":910.8841145833164,"velocity":0.84251968503937,"duration":0.23177083333337123},{"name":"D4","midi":62,"time":911.1341145833164,"velocity":0.84251968503937,"duration":0.23177083333337123},{"name":"D5","midi":74,"time":911.1341145833164,"velocity":0.84251968503937,"duration":0.23177083333337123},{"name":"G4","midi":67,"time":911.3841145833164,"velocity":0.84251968503937,"duration":0.23177083333337123},{"name":"E5","midi":76,"time":911.3841145833164,"velocity":0.84251968503937,"duration":0.23177083333337123},{"name":"D4","midi":62,"time":911.6341145833164,"velocity":0.84251968503937,"duration":0.23177083333337123},{"name":"C#5","midi":73,"time":911.6341145833164,"velocity":0.84251968503937,"duration":0.23177083333337123},{"name":"F#4","midi":66,"time":911.8841145833164,"velocity":0.84251968503937,"duration":0.23177083333337123},{"name":"D5","midi":74,"time":911.8841145833164,"velocity":0.84251968503937,"duration":0.23177083333337123},{"name":"D4","midi":62,"time":912.1341145833164,"velocity":0.84251968503937,"duration":0.23177083333337123},{"name":"A4","midi":69,"time":912.1341145833164,"velocity":0.84251968503937,"duration":0.23177083333337123},{"name":"F#4","midi":66,"time":912.3841145833164,"velocity":0.84251968503937,"duration":0.23177083333337123},{"name":"D5","midi":74,"time":912.3841145833164,"velocity":0.84251968503937,"duration":0.23177083333337123},{"name":"G4","midi":67,"time":912.6341145833164,"velocity":0.84251968503937,"duration":0.23177083333337123},{"name":"E5","midi":76,"time":912.6341145833164,"velocity":0.84251968503937,"duration":0.23177083333337123},{"name":"A4","midi":69,"time":912.8841145833164,"velocity":0.84251968503937,"duration":0.23177083333337123},{"name":"F#5","midi":78,"time":912.8841145833164,"velocity":0.84251968503937,"duration":0.48828125},{"name":"D4","midi":62,"time":913.1341145833164,"velocity":0.84251968503937,"duration":0.23177083333337123},{"name":"F#4","midi":66,"time":913.3841145833164,"velocity":0.84251968503937,"duration":0.23177083333337123},{"name":"F#5","midi":78,"time":913.3841145833164,"velocity":0.84251968503937,"duration":0.48828125},{"name":"A4","midi":69,"time":913.6341145833164,"velocity":0.84251968503937,"duration":0.23177083333337123},{"name":"D5","midi":74,"time":913.8841145833164,"velocity":0.84251968503937,"duration":0.23177083333337123},{"name":"G5","midi":79,"time":913.8841145833164,"velocity":0.84251968503937,"duration":0.11979166666662877},{"name":"F#5","midi":78,"time":914.0091145833164,"velocity":0.84251968503937,"duration":0.11979166666674246},{"name":"D4","midi":62,"time":914.1341145833165,"velocity":0.84251968503937,"duration":0.23177083333337123},{"name":"G5","midi":79,"time":914.1341145833165,"velocity":0.84251968503937,"duration":0.11979166666662877},{"name":"F#5","midi":78,"time":914.2591145833165,"velocity":0.84251968503937,"duration":0.11979166666674246},{"name":"A4","midi":69,"time":914.3841145833167,"velocity":0.84251968503937,"duration":0.23177083333337123},{"name":"G5","midi":79,"time":914.3841145833167,"velocity":0.84251968503937,"duration":0.11979166666662877},{"name":"F#5","midi":78,"time":914.5091145833167,"velocity":0.84251968503937,"duration":0.11979166666674246},{"name":"D4","midi":62,"time":914.6341145833168,"velocity":0.84251968503937,"duration":0.23177083333337123},{"name":"E5","midi":76,"time":914.6341145833168,"velocity":0.84251968503937,"duration":0.11979166666662877},{"name":"F#5","midi":78,"time":914.7591145833168,"velocity":0.84251968503937,"duration":0.11979166666674246},{"name":"B4","midi":71,"time":914.8841145833169,"velocity":0.84251968503937,"duration":0.23177083333337123},{"name":"G5","midi":79,"time":914.8841145833169,"velocity":0.84251968503937,"duration":0.23177083333337123},{"name":"D4","midi":62,"time":915.1341145833169,"velocity":0.84251968503937,"duration":0.23177083333337123},{"name":"F#5","midi":78,"time":915.1341145833169,"velocity":0.84251968503937,"duration":0.23177083333337123},{"name":"F#4","midi":66,"time":915.3841145833169,"velocity":0.84251968503937,"duration":0.23177083333337123},{"name":"E5","midi":76,"time":915.3841145833169,"velocity":0.84251968503937,"duration":0.23177083333337123},{"name":"D4","midi":62,"time":915.6341145833169,"velocity":0.84251968503937,"duration":0.23177083333337123},{"name":"D5","midi":74,"time":915.6341145833169,"velocity":0.84251968503937,"duration":0.23177083333337123},{"name":"G#4","midi":68,"time":915.8841145833169,"velocity":0.84251968503937,"duration":0.23177083333337123},{"name":"B5","midi":83,"time":915.8841145833169,"velocity":0.84251968503937,"duration":0.23177083333337123},{"name":"D4","midi":62,"time":916.1341145833169,"velocity":0.84251968503937,"duration":0.23177083333337123},{"name":"A5","midi":81,"time":916.1341145833169,"velocity":0.84251968503937,"duration":0.23177083333337123},{"name":"A4","midi":69,"time":916.3841145833169,"velocity":0.84251968503937,"duration":0.23177083333337123},{"name":"G#5","midi":80,"time":916.3841145833169,"velocity":0.84251968503937,"duration":0.23177083333337123},{"name":"D4","midi":62,"time":916.6341145833169,"velocity":0.84251968503937,"duration":0.23177083333337123},{"name":"F#5","midi":78,"time":916.6341145833169,"velocity":0.84251968503937,"duration":0.23177083333337123},{"name":"B4","midi":71,"time":916.8841145833169,"velocity":0.84251968503937,"duration":0.23177083333337123},{"name":"G#5","midi":80,"time":916.8841145833169,"velocity":0.84251968503937,"duration":0.23177083333337123},{"name":"D4","midi":62,"time":917.1341145833169,"velocity":0.84251968503937,"duration":0.23177083333337123},{"name":"A5","midi":81,"time":917.1341145833169,"velocity":0.84251968503937,"duration":0.23177083333337123},{"name":"D5","midi":74,"time":917.3841145833169,"velocity":0.84251968503937,"duration":0.23177083333337123},{"name":"B5","midi":83,"time":917.3841145833169,"velocity":0.84251968503937,"duration":0.23177083333337123},{"name":"D4","midi":62,"time":917.6341145833169,"velocity":0.84251968503937,"duration":0.23177083333337123},{"name":"G#5","midi":80,"time":917.6341145833169,"velocity":0.84251968503937,"duration":0.23177083333337123},{"name":"C#5","midi":73,"time":917.8841145833169,"velocity":0.84251968503937,"duration":0.24869791666662877},{"name":"A5","midi":81,"time":917.8841145833169,"velocity":0.84251968503937,"duration":0.24869791666662877},{"name":"D4","midi":62,"time":918.1380208333169,"velocity":0.84251968503937,"duration":0.24869791666662877},{"name":"F#5","midi":78,"time":918.1380208333169,"velocity":0.84251968503937,"duration":0.24869791666662877},{"name":"B4","midi":71,"time":918.3919270833169,"velocity":0.84251968503937,"duration":0.24869791666662877},{"name":"E5","midi":76,"time":918.3919270833169,"velocity":0.84251968503937,"duration":0.24869791666662877},{"name":"D4","midi":62,"time":918.6458333333169,"velocity":0.84251968503937,"duration":0.24869791666662877},{"name":"D5","midi":74,"time":918.6458333333169,"velocity":0.84251968503937,"duration":0.24869791666662877},{"name":"A4","midi":69,"time":918.8997395833169,"velocity":0.84251968503937,"duration":0.26302083333337123},{"name":"C#5","midi":73,"time":918.8997395833169,"velocity":0.84251968503937,"duration":0.26302083333337123},{"name":"D4","midi":62,"time":919.1679687499836,"velocity":0.84251968503937,"duration":0.26302083333337123},{"name":"B4","midi":71,"time":919.1679687499836,"velocity":0.84251968503937,"duration":0.26302083333337123},{"name":"G4","midi":67,"time":919.4361979166504,"velocity":0.84251968503937,"duration":0.28255208333337123},{"name":"C#5","midi":73,"time":919.4361979166504,"velocity":0.84251968503937,"duration":0.28255208333337123},{"name":"D4","midi":62,"time":919.7460937499837,"velocity":0.84251968503937,"duration":0.29296875},{"name":"A4","midi":69,"time":919.7460937499837,"velocity":0.84251968503937,"duration":0.29296875},{"name":"D5","midi":74,"time":920.0872395833171,"velocity":0.84251968503937,"duration":2.73046875},{"name":"D4","midi":62,"time":920.0872395833171,"velocity":0.84251968503937,"duration":2.73046875},{"name":"F#4","midi":66,"time":920.0872395833171,"velocity":0.84251968503937,"duration":2.73046875},{"name":"D4","midi":62,"time":925.2330729166505,"velocity":0.84251968503937,"duration":0.17708333333337123},{"name":"C#4","midi":61,"time":925.4114583333172,"velocity":0.84251968503937,"duration":0.17708333333337123},{"name":"D4","midi":62,"time":925.589843749984,"velocity":0.84251968503937,"duration":0.17708333333337123},{"name":"E4","midi":64,"time":925.7682291666507,"velocity":0.84251968503937,"duration":0.17708333333337123},{"name":"C#4","midi":61,"time":925.9466145833175,"velocity":0.84251968503937,"duration":0.17708333333337123},{"name":"D4","midi":62,"time":926.1249999999842,"velocity":0.84251968503937,"duration":0.17708333333337123},{"name":"F4","midi":65,"time":926.3033854166509,"velocity":0.84251968503937,"duration":0.17708333333337123},{"name":"C#4","midi":61,"time":926.4817708333177,"velocity":0.84251968503937,"duration":0.17708333333337123},{"name":"D4","midi":62,"time":926.6601562499844,"velocity":0.84251968503937,"duration":0.17708333333337123},{"name":"G4","midi":67,"time":926.8385416666512,"velocity":0.84251968503937,"duration":0.17708333333337123},{"name":"C#4","midi":61,"time":927.0169270833179,"velocity":0.84251968503937,"duration":0.17708333333337123},{"name":"D4","midi":62,"time":927.1953124999847,"velocity":0.84251968503937,"duration":0.17708333333337123},{"name":"A4","midi":69,"time":927.3736979166514,"velocity":0.84251968503937,"duration":0.17708333333337123},{"name":"C#4","midi":61,"time":927.5520833333181,"velocity":0.84251968503937,"duration":0.17708333333337123},{"name":"D4","midi":62,"time":927.7304687499849,"velocity":0.84251968503937,"duration":0.17708333333337123},{"name":"A#4","midi":70,"time":927.9088541666516,"velocity":0.84251968503937,"duration":0.17708333333337123},{"name":"A4","midi":69,"time":928.0872395833184,"velocity":0.84251968503937,"duration":0.17708333333337123},{"name":"G4","midi":67,"time":928.2656249999851,"velocity":0.84251968503937,"duration":0.17708333333337123},{"name":"F4","midi":65,"time":928.4440104166518,"velocity":0.84251968503937,"duration":0.17708333333337123},{"name":"E4","midi":64,"time":928.6223958333186,"velocity":0.84251968503937,"duration":0.17708333333337123},{"name":"D4","midi":62,"time":928.8007812499853,"velocity":0.84251968503937,"duration":0.17708333333337123},{"name":"G#4","midi":68,"time":928.9791666666521,"velocity":0.84251968503937,"duration":0.17708333333337123},{"name":"A4","midi":69,"time":929.1575520833188,"velocity":0.84251968503937,"duration":0.17708333333337123},{"name":"B4","midi":71,"time":929.3359374999856,"velocity":0.84251968503937,"duration":0.17708333333337123},{"name":"C5","midi":72,"time":929.5143229166523,"velocity":0.84251968503937,"duration":0.4739583333334849},{"name":"A3","midi":57,"time":929.5143229166523,"velocity":0.84251968503937,"duration":0.17708333333337123},{"name":"G#3","midi":56,"time":929.692708333319,"velocity":0.84251968503937,"duration":0.17708333333337123},{"name":"A3","midi":57,"time":929.8710937499858,"velocity":0.84251968503937,"duration":0.17708333333337123},{"name":"G#4","midi":68,"time":930.0494791666525,"velocity":0.84251968503937,"duration":0.4739583333334849},{"name":"B3","midi":59,"time":930.0494791666525,"velocity":0.84251968503937,"duration":0.17708333333337123},{"name":"G#3","midi":56,"time":930.2278645833193,"velocity":0.84251968503937,"duration":0.17708333333337123},{"name":"A3","midi":57,"time":930.406249999986,"velocity":0.84251968503937,"duration":0.17708333333337123},{"name":"A4","midi":69,"time":930.5846354166528,"velocity":0.84251968503937,"duration":0.4739583333334849},{"name":"C4","midi":60,"time":930.5846354166528,"velocity":0.84251968503937,"duration":0.17708333333337123},{"name":"G#3","midi":56,"time":930.7630208333195,"velocity":0.84251968503937,"duration":0.17708333333337123},{"name":"A3","midi":57,"time":930.9414062499862,"velocity":0.84251968503937,"duration":0.17708333333337123},{"name":"B4","midi":71,"time":931.119791666653,"velocity":0.84251968503937,"duration":0.4739583333334849},{"name":"D4","midi":62,"time":931.119791666653,"velocity":0.84251968503937,"duration":0.17708333333337123},{"name":"G#3","midi":56,"time":931.2981770833197,"velocity":0.84251968503937,"duration":0.17708333333337123},{"name":"A3","midi":57,"time":931.4765624999865,"velocity":0.84251968503937,"duration":0.17708333333337123},{"name":"C5","midi":72,"time":931.6549479166532,"velocity":0.84251968503937,"duration":0.4739583333334849},{"name":"E4","midi":64,"time":931.6549479166532,"velocity":0.84251968503937,"duration":0.17708333333337123},{"name":"G#3","midi":56,"time":931.83333333332,"velocity":0.84251968503937,"duration":0.17708333333337123},{"name":"A3","midi":57,"time":932.0117187499867,"velocity":0.84251968503937,"duration":0.17708333333337123},{"name":"D5","midi":74,"time":932.1901041666534,"velocity":0.84251968503937,"duration":0.17708333333337123},{"name":"F4","midi":65,"time":932.1901041666534,"velocity":0.84251968503937,"duration":0.17708333333337123},{"name":"E5","midi":76,"time":932.3684895833202,"velocity":0.84251968503937,"duration":0.17708333333337123},{"name":"E4","midi":64,"time":932.3684895833202,"velocity":0.84251968503937,"duration":0.17708333333337123},{"name":"F5","midi":77,"time":932.5468749999869,"velocity":0.84251968503937,"duration":0.17708333333337123},{"name":"D4","midi":62,"time":932.5468749999869,"velocity":0.84251968503937,"duration":0.17708333333337123},{"name":"E5","midi":76,"time":932.7252604166537,"velocity":0.84251968503937,"duration":0.17708333333337123},{"name":"C4","midi":60,"time":932.7252604166537,"velocity":0.84251968503937,"duration":0.17708333333337123},{"name":"D5","midi":74,"time":932.9036458333204,"velocity":0.84251968503937,"duration":0.17708333333337123},{"name":"B3","midi":59,"time":932.9036458333204,"velocity":0.84251968503937,"duration":0.17708333333337123},{"name":"C5","midi":72,"time":933.0820312499872,"velocity":0.84251968503937,"duration":0.17708333333337123},{"name":"A3","midi":57,"time":933.0820312499872,"velocity":0.84251968503937,"duration":0.17708333333337123},{"name":"C5","midi":72,"time":933.2604166666539,"velocity":0.84251968503937,"duration":0.17708333333337123},{"name":"D#4","midi":63,"time":933.2604166666539,"velocity":0.84251968503937,"duration":0.17708333333337123},{"name":"B4","midi":71,"time":933.4388020833206,"velocity":0.84251968503937,"duration":0.17708333333337123},{"name":"E4","midi":64,"time":933.4388020833206,"velocity":0.84251968503937,"duration":0.17708333333337123},{"name":"A4","midi":69,"time":933.6171874999874,"velocity":0.84251968503937,"duration":0.17708333333337123},{"name":"F#4","midi":66,"time":933.6171874999874,"velocity":0.84251968503937,"duration":0.17708333333337123},{"name":"A4","midi":69,"time":933.7955729166541,"velocity":0.84251968503937,"duration":0.17708333333337123},{"name":"E4","midi":64,"time":933.7955729166541,"velocity":0.84251968503937,"duration":0.4739583333334849},{"name":"G4","midi":67,"time":933.9739583333209,"velocity":0.84251968503937,"duration":0.17708333333337123},{"name":"F#4","midi":66,"time":934.1523437499876,"velocity":0.84251968503937,"duration":0.17708333333337123},{"name":"G4","midi":67,"time":934.3307291666544,"velocity":0.84251968503937,"duration":0.08854166666662877},{"name":"D#4","midi":63,"time":934.3307291666544,"velocity":0.84251968503937,"duration":0.17838541666662877},{"name":"F#4","midi":66,"time":934.4205729166544,"velocity":0.84251968503937,"duration":0.08854166666662877},{"name":"G4","midi":67,"time":934.5104166666544,"velocity":0.84251968503937,"duration":0.08854166666662877},{"name":"D4","midi":62,"time":934.5104166666544,"velocity":0.84251968503937,"duration":0.17838541666662877},{"name":"F#4","midi":66,"time":934.6002604166544,"velocity":0.84251968503937,"duration":0.08854166666662877},{"name":"E4","midi":64,"time":934.6901041666544,"velocity":0.84251968503937,"duration":0.08854166666662877},{"name":"C4","midi":60,"time":934.6901041666544,"velocity":0.84251968503937,"duration":0.17838541666662877},{"name":"F#4","midi":66,"time":934.7799479166544,"velocity":0.84251968503937,"duration":0.08854166666662877},{"name":"G4","midi":67,"time":934.8697916666544,"velocity":0.84251968503937,"duration":0.17708333333337123},{"name":"A#3","midi":58,"time":934.8697916666544,"velocity":0.84251968503937,"duration":0.17708333333337123},{"name":"A4","midi":69,"time":935.0481770833211,"velocity":0.84251968503937,"duration":0.17708333333337123},{"name":"A3","midi":57,"time":935.0481770833211,"velocity":0.84251968503937,"duration":0.17708333333337123},{"name":"A#4","midi":70,"time":935.2265624999878,"velocity":0.84251968503937,"duration":0.17708333333337123},{"name":"G3","midi":55,"time":935.2265624999878,"velocity":0.84251968503937,"duration":0.17708333333337123},{"name":"A#4","midi":70,"time":935.4049479166546,"velocity":0.84251968503937,"duration":0.17708333333337123},{"name":"C#4","midi":61,"time":935.4049479166546,"velocity":0.84251968503937,"duration":0.17708333333337123},{"name":"A4","midi":69,"time":935.5833333333213,"velocity":0.84251968503937,"duration":0.17708333333337123},{"name":"D4","midi":62,"time":935.5833333333213,"velocity":0.84251968503937,"duration":0.17708333333337123},{"name":"G4","midi":67,"time":935.7617187499881,"velocity":0.84251968503937,"duration":0.17708333333337123},{"name":"E4","midi":64,"time":935.7617187499881,"velocity":0.84251968503937,"duration":0.17708333333337123},{"name":"A4","midi":69,"time":935.9401041666548,"velocity":0.84251968503937,"duration":2.6744791666677656},{"name":"F4","midi":65,"time":935.9401041666548,"velocity":0.84251968503937,"duration":0.4739583333334849},{"name":"D3","midi":50,"time":935.9401041666548,"velocity":0.84251968503937,"duration":0.17708333333337123},{"name":"C#3","midi":49,"time":936.1184895833215,"velocity":0.84251968503937,"duration":0.17708333333337123},{"name":"D3","midi":50,"time":936.2968749999883,"velocity":0.84251968503937,"duration":0.17708333333337123},{"name":"C#4","midi":61,"time":936.475260416655,"velocity":0.84251968503937,"duration":0.4739583333334849},{"name":"E3","midi":52,"time":936.475260416655,"velocity":0.84251968503937,"duration":0.17708333333337123},{"name":"C#3","midi":49,"time":936.6536458333218,"velocity":0.84251968503937,"duration":0.17708333333337123},{"name":"D3","midi":50,"time":936.8320312499885,"velocity":0.84251968503937,"duration":0.17708333333337123},{"name":"D4","midi":62,"time":937.0104166666553,"velocity":0.84251968503937,"duration":0.4739583333334849},{"name":"F3","midi":53,"time":937.0104166666553,"velocity":0.84251968503937,"duration":0.17708333333337123},{"name":"C#3","midi":49,"time":937.188802083322,"velocity":0.84251968503937,"duration":0.17708333333337123},{"name":"D3","midi":50,"time":937.3671874999887,"velocity":0.84251968503937,"duration":0.17708333333337123},{"name":"E4","midi":64,"time":937.5455729166555,"velocity":0.84251968503937,"duration":0.4739583333334849},{"name":"G3","midi":55,"time":937.5455729166555,"velocity":0.84251968503937,"duration":0.17708333333337123},{"name":"C#3","midi":49,"time":937.7239583333222,"velocity":0.84251968503937,"duration":0.17708333333337123},{"name":"D3","midi":50,"time":937.902343749989,"velocity":0.84251968503937,"duration":0.17708333333337123},{"name":"F4","midi":65,"time":938.0807291666557,"velocity":0.84251968503937,"duration":0.4739583333334849},{"name":"A3","midi":57,"time":938.0807291666557,"velocity":0.84251968503937,"duration":0.17708333333337123},{"name":"C#3","midi":49,"time":938.2591145833225,"velocity":0.84251968503937,"duration":0.17708333333337123},{"name":"D3","midi":50,"time":938.4374999999892,"velocity":0.84251968503937,"duration":0.17708333333337123},{"name":"G4","midi":67,"time":938.6158854166559,"velocity":0.84251968503937,"duration":0.17708333333337123},{"name":"A#3","midi":58,"time":938.6158854166559,"velocity":0.84251968503937,"duration":0.17708333333337123},{"name":"A4","midi":69,"time":938.7942708333227,"velocity":0.84251968503937,"duration":0.17708333333337123},{"name":"A3","midi":57,"time":938.7942708333227,"velocity":0.84251968503937,"duration":0.17708333333337123},{"name":"A#4","midi":70,"time":938.9726562499894,"velocity":0.84251968503937,"duration":0.17708333333337123},{"name":"G3","midi":55,"time":938.9726562499894,"velocity":0.84251968503937,"duration":0.17708333333337123},{"name":"A4","midi":69,"time":939.1510416666562,"velocity":0.84251968503937,"duration":0.17708333333337123},{"name":"F3","midi":53,"time":939.1510416666562,"velocity":0.84251968503937,"duration":0.17708333333337123},{"name":"G4","midi":67,"time":939.3294270833229,"velocity":0.84251968503937,"duration":0.17708333333337123},{"name":"E3","midi":52,"time":939.3294270833229,"velocity":0.84251968503937,"duration":0.17708333333337123},{"name":"F4","midi":65,"time":939.5078124999897,"velocity":0.84251968503937,"duration":0.17708333333337123},{"name":"D3","midi":50,"time":939.5078124999897,"velocity":0.84251968503937,"duration":0.17708333333337123},{"name":"F4","midi":65,"time":939.6861979166564,"velocity":0.84251968503937,"duration":0.17708333333337123},{"name":"G#3","midi":56,"time":939.6861979166564,"velocity":0.84251968503937,"duration":0.17708333333337123},{"name":"E4","midi":64,"time":939.8645833333231,"velocity":0.84251968503937,"duration":0.17708333333337123},{"name":"A3","midi":57,"time":939.8645833333231,"velocity":0.84251968503937,"duration":0.17708333333337123},{"name":"D4","midi":62,"time":940.0429687499899,"velocity":0.84251968503937,"duration":0.17708333333337123},{"name":"B3","midi":59,"time":940.0429687499899,"velocity":0.84251968503937,"duration":0.17708333333337123},{"name":"A4","midi":69,"time":940.2213541666566,"velocity":0.84251968503937,"duration":0.17708333333337123},{"name":"E4","midi":64,"time":940.2213541666566,"velocity":0.84251968503937,"duration":2.6744791666677656},{"name":"C4","midi":60,"time":940.2213541666566,"velocity":0.84251968503937,"duration":0.4739583333334849},{"name":"G#4","midi":68,"time":940.3997395833234,"velocity":0.84251968503937,"duration":0.17708333333337123},{"name":"A4","midi":69,"time":940.5781249999901,"velocity":0.84251968503937,"duration":0.17708333333337123},{"name":"B4","midi":71,"time":940.7565104166569,"velocity":0.84251968503937,"duration":0.17708333333337123},{"name":"G#3","midi":56,"time":940.7565104166569,"velocity":0.84251968503937,"duration":0.4739583333334849},{"name":"G#4","midi":68,"time":940.9348958333236,"velocity":0.84251968503937,"duration":0.17708333333337123},{"name":"A4","midi":69,"time":941.1132812499903,"velocity":0.84251968503937,"duration":0.17708333333337123},{"name":"C5","midi":72,"time":941.2916666666571,"velocity":0.84251968503937,"duration":0.17708333333337123},{"name":"A3","midi":57,"time":941.2916666666571,"velocity":0.84251968503937,"duration":0.4739583333334849},{"name":"G#4","midi":68,"time":941.4700520833238,"velocity":0.84251968503937,"duration":0.17708333333337123},{"name":"A4","midi":69,"time":941.6484374999906,"velocity":0.84251968503937,"duration":0.17708333333337123},{"name":"D5","midi":74,"time":941.8268229166573,"velocity":0.84251968503937,"duration":0.17708333333337123},{"name":"B3","midi":59,"time":941.8268229166573,"velocity":0.84251968503937,"duration":0.4739583333334849},{"name":"G#4","midi":68,"time":942.005208333324,"velocity":0.84251968503937,"duration":0.17708333333337123},{"name":"A4","midi":69,"time":942.1835937499908,"velocity":0.84251968503937,"duration":0.17708333333337123},{"name":"E5","midi":76,"time":942.3619791666575,"velocity":0.84251968503937,"duration":0.17708333333337123},{"name":"C4","midi":60,"time":942.3619791666575,"velocity":0.84251968503937,"duration":0.4739583333334849},{"name":"G#4","midi":68,"time":942.5403645833243,"velocity":0.84251968503937,"duration":0.17708333333337123},{"name":"A4","midi":69,"time":942.718749999991,"velocity":0.84251968503937,"duration":0.17708333333337123},{"name":"F5","midi":77,"time":942.8971354166578,"velocity":0.84251968503937,"duration":0.17708333333337123},{"name":"G#4","midi":68,"time":942.8971354166578,"velocity":0.84251968503937,"duration":0.4739583333334849},{"name":"B3","midi":59,"time":942.8971354166578,"velocity":0.84251968503937,"duration":0.4739583333334849},{"name":"E5","midi":76,"time":943.0755208333245,"velocity":0.84251968503937,"duration":0.17708333333337123},{"name":"D5","midi":74,"time":943.2539062499912,"velocity":0.84251968503937,"duration":0.17708333333337123},{"name":"C#5","midi":73,"time":943.432291666658,"velocity":0.84251968503937,"duration":0.17708333333337123},{"name":"G4","midi":67,"time":943.432291666658,"velocity":0.84251968503937,"duration":0.4739583333334849},{"name":"A3","midi":57,"time":943.432291666658,"velocity":0.84251968503937,"duration":0.4739583333334849},{"name":"B4","midi":71,"time":943.6106770833247,"velocity":0.84251968503937,"duration":0.17708333333337123},{"name":"A4","midi":69,"time":943.7890624999915,"velocity":0.84251968503937,"duration":0.17708333333337123},{"name":"D#5","midi":75,"time":943.9674479166582,"velocity":0.84251968503937,"duration":0.17708333333337123},{"name":"F#4","midi":66,"time":943.9674479166582,"velocity":0.84251968503937,"duration":0.4739583333334849},{"name":"C4","midi":60,"time":943.9674479166582,"velocity":0.84251968503937,"duration":0.4739583333334849},{"name":"E5","midi":76,"time":944.145833333325,"velocity":0.84251968503937,"duration":0.17708333333337123},{"name":"F#5","midi":78,"time":944.3242187499917,"velocity":0.84251968503937,"duration":0.17708333333337123},{"name":"G5","midi":79,"time":944.5026041666584,"velocity":0.84251968503937,"duration":0.17708333333337123},{"name":"E4","midi":64,"time":944.5026041666584,"velocity":0.84251968503937,"duration":0.4739583333334849},{"name":"A#3","midi":58,"time":944.5026041666584,"velocity":0.84251968503937,"duration":0.4739583333334849},{"name":"A5","midi":81,"time":944.6809895833252,"velocity":0.84251968503937,"duration":0.17708333333337123},{"name":"A#5","midi":82,"time":944.8593749999919,"velocity":0.84251968503937,"duration":0.17708333333337123},{"name":"D#5","midi":75,"time":945.0377604166587,"velocity":0.84251968503937,"duration":0.17708333333337123},{"name":"F#4","midi":66,"time":945.0377604166587,"velocity":0.84251968503937,"duration":0.4739583333334849},{"name":"A3","midi":57,"time":945.0377604166587,"velocity":0.84251968503937,"duration":0.4739583333334849},{"name":"D5","midi":74,"time":945.2161458333254,"velocity":0.84251968503937,"duration":0.17708333333337123},{"name":"C5","midi":72,"time":945.3945312499922,"velocity":0.84251968503937,"duration":0.17708333333337123},{"name":"B4","midi":71,"time":945.5729166666589,"velocity":0.84251968503937,"duration":0.17708333333337123},{"name":"F4","midi":65,"time":945.5729166666589,"velocity":0.84251968503937,"duration":0.4739583333334849},{"name":"G3","midi":55,"time":945.5729166666589,"velocity":0.84251968503937,"duration":0.4739583333334849},{"name":"A4","midi":69,"time":945.7513020833256,"velocity":0.84251968503937,"duration":0.17708333333337123},{"name":"G4","midi":67,"time":945.9296874999924,"velocity":0.84251968503937,"duration":0.17708333333337123},{"name":"C#5","midi":73,"time":946.1080729166591,"velocity":0.84251968503937,"duration":0.17708333333337123},{"name":"E4","midi":64,"time":946.1080729166591,"velocity":0.84251968503937,"duration":0.4739583333334849},{"name":"A3","midi":57,"time":946.1080729166591,"velocity":0.84251968503937,"duration":0.4739583333334849},{"name":"D5","midi":74,"time":946.2864583333259,"velocity":0.84251968503937,"duration":0.17708333333337123},{"name":"E5","midi":76,"time":946.4648437499926,"velocity":0.84251968503937,"duration":0.17708333333337123},{"name":"F5","midi":77,"time":946.6432291666594,"velocity":0.84251968503937,"duration":0.17708333333337123},{"name":"D4","midi":62,"time":946.6432291666594,"velocity":0.84251968503937,"duration":0.4739583333334849},{"name":"D3","midi":50,"time":946.6432291666594,"velocity":0.84251968503937,"duration":4.289062500000455},{"name":"G5","midi":79,"time":946.8216145833261,"velocity":0.84251968503937,"duration":0.17708333333337123},{"name":"A5","midi":81,"time":946.9999999999928,"velocity":0.84251968503937,"duration":0.328125},{"name":"A#4","midi":70,"time":947.1783854166595,"velocity":0.84251968503937,"duration":0.47526041666674246},{"name":"F#5","midi":78,"time":947.3580729166595,"velocity":0.84251968503937,"duration":0.17708333333337123},{"name":"G5","midi":79,"time":947.5364583333262,"velocity":0.84251968503937,"duration":0.328125},{"name":"A4","midi":69,"time":947.7148437499928,"velocity":0.84251968503937,"duration":0.47526041666674246},{"name":"E5","midi":76,"time":947.8945312499928,"velocity":0.84251968503937,"duration":0.17708333333337123},{"name":"F5","midi":77,"time":948.0729166666596,"velocity":0.84251968503937,"duration":0.328125},{"name":"G4","midi":67,"time":948.2513020833262,"velocity":0.84251968503937,"duration":0.47526041666674246},{"name":"D5","midi":74,"time":948.4309895833262,"velocity":0.84251968503937,"duration":0.17708333333337123},{"name":"E5","midi":76,"time":948.609374999993,"velocity":0.84251968503937,"duration":0.328125},{"name":"F4","midi":65,"time":948.7877604166596,"velocity":0.84251968503937,"duration":0.47526041666674246},{"name":"C#5","midi":73,"time":948.9674479166596,"velocity":0.84251968503937,"duration":0.17708333333337123},{"name":"D5","midi":74,"time":949.1458333333263,"velocity":0.84251968503937,"duration":0.328125},{"name":"F#4","midi":66,"time":949.324218749993,"velocity":0.84251968503937,"duration":0.47526041666674246},{"name":"B4","midi":71,"time":949.503906249993,"velocity":0.84251968503937,"duration":0.17708333333337123},{"name":"C5","midi":72,"time":949.6822916666597,"velocity":0.84251968503937,"duration":0.328125},{"name":"G4","midi":67,"time":949.8606770833263,"velocity":0.84251968503937,"duration":0.47526041666674246},{"name":"A4","midi":69,"time":950.0403645833263,"velocity":0.84251968503937,"duration":0.17708333333337123},{"name":"A#4","midi":70,"time":950.2187499999931,"velocity":0.84251968503937,"duration":0.328125},{"name":"C#4","midi":61,"time":950.3971354166597,"velocity":0.84251968503937,"duration":0.47526041666674246},{"name":"A4","midi":69,"time":950.5768229166597,"velocity":0.84251968503937,"duration":0.17708333333337123},{"name":"G4","midi":67,"time":950.7552083333264,"velocity":0.84251968503937,"duration":0.17708333333337123},{"name":"F4","midi":65,"time":950.9335937499932,"velocity":0.84251968503937,"duration":0.4739583333334849},{"name":"A3","midi":57,"time":950.9335937499932,"velocity":0.84251968503937,"duration":2.6744791666677656},{"name":"D2","midi":38,"time":950.9335937499932,"velocity":0.84251968503937,"duration":0.17708333333337123},{"name":"C#2","midi":37,"time":951.1119791666599,"velocity":0.84251968503937,"duration":0.17708333333337123},{"name":"D2","midi":38,"time":951.2903645833267,"velocity":0.84251968503937,"duration":0.17708333333337123},{"name":"C#4","midi":61,"time":951.4687499999934,"velocity":0.84251968503937,"duration":0.4739583333334849},{"name":"E2","midi":40,"time":951.4687499999934,"velocity":0.84251968503937,"duration":0.17708333333337123},{"name":"C#2","midi":37,"time":951.6471354166601,"velocity":0.84251968503937,"duration":0.17708333333337123},{"name":"D2","midi":38,"time":951.8255208333269,"velocity":0.84251968503937,"duration":0.17708333333337123},{"name":"D4","midi":62,"time":952.0039062499936,"velocity":0.84251968503937,"duration":0.4739583333334849},{"name":"F2","midi":41,"time":952.0039062499936,"velocity":0.84251968503937,"duration":0.17708333333337123},{"name":"C#2","midi":37,"time":952.1822916666604,"velocity":0.84251968503937,"duration":0.17708333333337123},{"name":"D2","midi":38,"time":952.3606770833271,"velocity":0.84251968503937,"duration":0.17708333333337123},{"name":"E4","midi":64,"time":952.5390624999939,"velocity":0.84251968503937,"duration":0.4739583333334849},{"name":"G2","midi":43,"time":952.5390624999939,"velocity":0.84251968503937,"duration":0.17708333333337123},{"name":"C#2","midi":37,"time":952.7174479166606,"velocity":0.84251968503937,"duration":0.17708333333337123},{"name":"D2","midi":38,"time":952.8958333333273,"velocity":0.84251968503937,"duration":0.17708333333337123},{"name":"F4","midi":65,"time":953.0742187499941,"velocity":0.84251968503937,"duration":0.4739583333334849},{"name":"A2","midi":45,"time":953.0742187499941,"velocity":0.84251968503937,"duration":0.17708333333337123},{"name":"C#2","midi":37,"time":953.2526041666608,"velocity":0.84251968503937,"duration":0.17708333333337123},{"name":"D2","midi":38,"time":953.4309895833276,"velocity":0.84251968503937,"duration":0.17708333333337123},{"name":"C#5","midi":73,"time":953.6093749999943,"velocity":0.84251968503937,"duration":0.4739583333334849},{"name":"E4","midi":64,"time":953.6093749999943,"velocity":0.84251968503937,"duration":0.4739583333334849},{"name":"A#2","midi":46,"time":953.6093749999943,"velocity":0.84251968503937,"duration":0.17708333333337123},{"name":"A2","midi":45,"time":953.7877604166611,"velocity":0.84251968503937,"duration":0.17708333333337123},{"name":"G2","midi":43,"time":953.9661458333278,"velocity":0.84251968503937,"duration":0.17708333333337123},{"name":"C5","midi":72,"time":954.1445312499945,"velocity":0.84251968503937,"duration":0.4739583333334849},{"name":"D4","midi":62,"time":954.1445312499945,"velocity":0.84251968503937,"duration":0.4739583333334849},{"name":"F#2","midi":42,"time":954.1445312499945,"velocity":0.84251968503937,"duration":0.17708333333337123},{"name":"E2","midi":40,"time":954.3229166666613,"velocity":0.84251968503937,"duration":0.17708333333337123},{"name":"D2","midi":38,"time":954.501302083328,"velocity":0.84251968503937,"duration":0.17708333333337123},{"name":"B4","midi":71,"time":954.6796874999948,"velocity":0.84251968503937,"duration":0.4739583333334849},{"name":"F4","midi":65,"time":954.6796874999948,"velocity":0.84251968503937,"duration":0.4739583333334849},{"name":"G#2","midi":44,"time":954.6796874999948,"velocity":0.84251968503937,"duration":0.17708333333337123},{"name":"A2","midi":45,"time":954.8580729166615,"velocity":0.84251968503937,"duration":0.17708333333337123},{"name":"B2","midi":47,"time":955.0364583333283,"velocity":0.84251968503937,"duration":0.17708333333337123},{"name":"A4","midi":69,"time":955.214843749995,"velocity":0.84251968503937,"duration":0.4739583333334849},{"name":"D#4","midi":63,"time":955.214843749995,"velocity":0.84251968503937,"duration":0.4739583333334849},{"name":"C3","midi":48,"time":955.214843749995,"velocity":0.84251968503937,"duration":0.17708333333337123},{"name":"D3","midi":50,"time":955.3932291666617,"velocity":0.84251968503937,"duration":0.17708333333337123},{"name":"D#3","midi":51,"time":955.5716145833285,"velocity":0.84251968503937,"duration":0.17708333333337123},{"name":"B4","midi":71,"time":955.7499999999952,"velocity":0.84251968503937,"duration":0.4739583333334849},{"name":"D4","midi":62,"time":955.7499999999952,"velocity":0.84251968503937,"duration":0.4739583333334849},{"name":"G#2","midi":44,"time":955.7499999999952,"velocity":0.84251968503937,"duration":0.17708333333337123},{"name":"G2","midi":43,"time":955.928385416662,"velocity":0.84251968503937,"duration":0.17708333333337123},{"name":"F2","midi":41,"time":956.1067708333287,"velocity":0.84251968503937,"duration":0.17708333333337123},{"name":"A#4","midi":70,"time":956.2851562499955,"velocity":0.84251968503937,"duration":0.4739583333334849},{"name":"C4","midi":60,"time":956.2851562499955,"velocity":0.84251968503937,"duration":0.4739583333334849},{"name":"E2","midi":40,"time":956.2851562499955,"velocity":0.84251968503937,"duration":0.17708333333337123},{"name":"D2","midi":38,"time":956.4635416666622,"velocity":0.84251968503937,"duration":0.17708333333337123},{"name":"C2","midi":36,"time":956.6419270833289,"velocity":0.84251968503937,"duration":0.17708333333337123},{"name":"A4","midi":69,"time":956.8203124999957,"velocity":0.84251968503937,"duration":0.4739583333334849},{"name":"D#4","midi":63,"time":956.8203124999957,"velocity":0.84251968503937,"duration":0.4739583333334849},{"name":"F#2","midi":42,"time":956.8203124999957,"velocity":0.84251968503937,"duration":0.17708333333337123},{"name":"G2","midi":43,"time":956.9986979166624,"velocity":0.84251968503937,"duration":0.17708333333337123},{"name":"A2","midi":45,"time":957.1770833333292,"velocity":0.84251968503937,"duration":0.17708333333337123},{"name":"G4","midi":67,"time":957.3554687499959,"velocity":0.84251968503937,"duration":0.4739583333334849},{"name":"D4","midi":62,"time":957.3554687499959,"velocity":0.84251968503937,"duration":2.6744791666677656},{"name":"A#2","midi":46,"time":957.3554687499959,"velocity":0.84251968503937,"duration":0.17708333333337123},{"name":"A2","midi":45,"time":957.5338541666626,"velocity":0.84251968503937,"duration":0.17708333333337123},{"name":"G2","midi":43,"time":957.7122395833294,"velocity":0.84251968503937,"duration":0.17708333333337123},{"name":"A4","midi":69,"time":957.8906249999961,"velocity":0.84251968503937,"duration":0.17708333333337123},{"name":"C#3","midi":49,"time":957.8906249999961,"velocity":0.84251968503937,"duration":0.17708333333337123},{"name":"B4","midi":71,"time":958.0690104166629,"velocity":0.84251968503937,"duration":0.17708333333337123},{"name":"D3","midi":50,"time":958.0690104166629,"velocity":0.84251968503937,"duration":0.17708333333337123},{"name":"C#5","midi":73,"time":958.2473958333296,"velocity":0.84251968503937,"duration":0.17708333333337123},{"name":"E3","midi":52,"time":958.2473958333296,"velocity":0.84251968503937,"duration":0.17708333333337123},{"name":"D5","midi":74,"time":958.4257812499964,"velocity":0.84251968503937,"duration":0.17708333333337123},{"name":"F3","midi":53,"time":958.4257812499964,"velocity":0.84251968503937,"duration":0.17708333333337123},{"name":"E5","midi":76,"time":958.6041666666631,"velocity":0.84251968503937,"duration":0.17708333333337123},{"name":"E3","midi":52,"time":958.6041666666631,"velocity":0.84251968503937,"duration":0.17708333333337123},{"name":"F5","midi":77,"time":958.7825520833298,"velocity":0.84251968503937,"duration":0.17708333333337123},{"name":"D3","midi":50,"time":958.7825520833298,"velocity":0.84251968503937,"duration":0.17708333333337123},{"name":"B4","midi":71,"time":958.9609374999966,"velocity":0.84251968503937,"duration":0.4739583333334849},{"name":"G#3","midi":56,"time":958.9609374999966,"velocity":0.84251968503937,"duration":0.17708333333337123},{"name":"A3","midi":57,"time":959.1393229166633,"velocity":0.84251968503937,"duration":0.17708333333337123},{"name":"B3","midi":59,"time":959.3177083333301,"velocity":0.84251968503937,"duration":0.17708333333337123},{"name":"E5","midi":76,"time":959.4960937499968,"velocity":0.84251968503937,"duration":0.17708333333337123},{"name":"C4","midi":60,"time":959.4960937499968,"velocity":0.84251968503937,"duration":1.0690104166670835},{"name":"D#5","midi":75,"time":959.6744791666636,"velocity":0.84251968503937,"duration":0.17708333333337123},{"name":"E5","midi":76,"time":959.8528645833303,"velocity":0.84251968503937,"duration":0.17708333333337123},{"name":"F#5","midi":78,"time":960.031249999997,"velocity":0.84251968503937,"duration":0.17708333333337123},{"name":"A4","midi":69,"time":960.031249999997,"velocity":0.84251968503937,"duration":0.4739583333334849},{"name":"D#5","midi":75,"time":960.2096354166638,"velocity":0.84251968503937,"duration":0.17708333333337123},{"name":"E5","midi":76,"time":960.3880208333305,"velocity":0.84251968503937,"duration":0.17708333333337123},{"name":"G#5","midi":80,"time":960.5664062499973,"velocity":0.84251968503937,"duration":0.17708333333337123},{"name":"D4","midi":62,"time":960.5664062499973,"velocity":0.84251968503937,"duration":0.4739583333334849},{"name":"B3","midi":59,"time":960.5664062499973,"velocity":0.84251968503937,"duration":0.4739583333334849},{"name":"D#5","midi":75,"time":960.744791666664,"velocity":0.84251968503937,"duration":0.17708333333337123},{"name":"E5","midi":76,"time":960.9231770833308,"velocity":0.84251968503937,"duration":0.17708333333337123},{"name":"A5","midi":81,"time":961.1015624999975,"velocity":0.84251968503937,"duration":0.17708333333337123},{"name":"C4","midi":60,"time":961.1015624999975,"velocity":0.84251968503937,"duration":0.4739583333334849},{"name":"A3","midi":57,"time":961.1015624999975,"velocity":0.84251968503937,"duration":0.4739583333334849},{"name":"D#5","midi":75,"time":961.2799479166642,"velocity":0.84251968503937,"duration":0.17708333333337123},{"name":"E5","midi":76,"time":961.458333333331,"velocity":0.84251968503937,"duration":0.17708333333337123},{"name":"B5","midi":83,"time":961.6367187499977,"velocity":0.84251968503937,"duration":0.17708333333337123},{"name":"B3","midi":59,"time":961.6367187499977,"velocity":0.84251968503937,"duration":0.4739583333334849},{"name":"G#3","midi":56,"time":961.6367187499977,"velocity":0.84251968503937,"duration":0.4739583333334849},{"name":"D#5","midi":75,"time":961.8151041666645,"velocity":0.84251968503937,"duration":0.17708333333337123},{"name":"E5","midi":76,"time":961.9934895833312,"velocity":0.84251968503937,"duration":0.17708333333337123},{"name":"C6","midi":84,"time":962.171874999998,"velocity":0.84251968503937,"duration":0.17708333333337123},{"name":"D#4","midi":63,"time":962.171874999998,"velocity":0.84251968503937,"duration":0.4739583333334849},{"name":"F#3","midi":54,"time":962.171874999998,"velocity":0.84251968503937,"duration":0.4739583333334849},{"name":"B5","midi":83,"time":962.3502604166647,"velocity":0.84251968503937,"duration":0.17708333333337123},{"name":"A5","midi":81,"time":962.5286458333314,"velocity":0.84251968503937,"duration":0.17708333333337123},{"name":"G#5","midi":80,"time":962.7070312499982,"velocity":0.84251968503937,"duration":0.17708333333337123},{"name":"D4","midi":62,"time":962.7070312499982,"velocity":0.84251968503937,"duration":0.4739583333334849},{"name":"E3","midi":52,"time":962.7070312499982,"velocity":0.84251968503937,"duration":0.4739583333334849},{"name":"F#5","midi":78,"time":962.8854166666649,"velocity":0.84251968503937,"duration":0.17708333333337123},{"name":"E5","midi":76,"time":963.0638020833317,"velocity":0.84251968503937,"duration":0.17708333333337123},{"name":"A#5","midi":82,"time":963.2421874999984,"velocity":0.84251968503937,"duration":0.17708333333337123},{"name":"C#4","midi":61,"time":963.2421874999984,"velocity":0.84251968503937,"duration":0.4739583333334849},{"name":"A3","midi":57,"time":963.2421874999984,"velocity":0.84251968503937,"duration":0.4739583333334849},{"name":"A5","midi":81,"time":963.4205729166652,"velocity":0.84251968503937,"duration":0.17708333333337123},{"name":"G5","midi":79,"time":963.5989583333319,"velocity":0.84251968503937,"duration":0.17708333333337123},{"name":"F#5","midi":78,"time":963.7773437499986,"velocity":0.84251968503937,"duration":0.17708333333337123},{"name":"C4","midi":60,"time":963.7773437499986,"velocity":0.84251968503937,"duration":0.4739583333334849},{"name":"D3","midi":50,"time":963.7773437499986,"velocity":0.84251968503937,"duration":0.4739583333334849},{"name":"E5","midi":76,"time":963.9557291666654,"velocity":0.84251968503937,"duration":0.17708333333337123},{"name":"D5","midi":74,"time":964.1341145833321,"velocity":0.84251968503937,"duration":0.17708333333337123},{"name":"F5","midi":77,"time":964.3124999999989,"velocity":0.84251968503937,"duration":0.17708333333337123},{"name":"B3","midi":59,"time":964.3124999999989,"velocity":0.84251968503937,"duration":0.5299479166668561},{"name":"G#3","midi":56,"time":964.3124999999989,"velocity":0.84251968503937,"duration":0.4739583333334849},{"name":"E5","midi":76,"time":964.4908854166656,"velocity":0.84251968503937,"duration":0.17708333333337123},{"name":"D5","midi":74,"time":964.6692708333323,"velocity":0.84251968503937,"duration":0.17708333333337123},{"name":"C5","midi":72,"time":964.8476562499991,"velocity":0.84251968503937,"duration":0.17708333333337123},{"name":"A3","midi":57,"time":964.8476562499991,"velocity":0.84251968503937,"duration":0.4739583333334849},{"name":"B4","midi":71,"time":965.0260416666658,"velocity":0.84251968503937,"duration":0.17708333333337123},{"name":"A4","midi":69,"time":965.2044270833326,"velocity":0.84251968503937,"duration":0.7122395833334849},{"name":"D#5","midi":75,"time":965.3828124999992,"velocity":0.84251968503937,"duration":0.17708333333337123},{"name":"F#3","midi":54,"time":965.3828124999992,"velocity":0.84251968503937,"duration":0.4739583333334849},{"name":"E5","midi":76,"time":965.561197916666,"velocity":0.84251968503937,"duration":0.17708333333337123},{"name":"F#5","midi":78,"time":965.7395833333327,"velocity":0.84251968503937,"duration":0.3281250000001137},{"name":"G#4","midi":68,"time":965.9179687499994,"velocity":0.84251968503937,"duration":0.47526041666674246},{"name":"E3","midi":52,"time":965.9179687499994,"velocity":0.84251968503937,"duration":6.436197916667197},{"name":"E5","midi":76,"time":966.0976562499994,"velocity":0.84251968503937,"duration":0.17708333333337123},{"name":"F5","midi":77,"time":966.2760416666662,"velocity":0.84251968503937,"duration":0.328125},{"name":"G4","midi":67,"time":966.4544270833328,"velocity":0.84251968503937,"duration":0.47526041666674246},{"name":"D#5","midi":75,"time":966.6341145833328,"velocity":0.84251968503937,"duration":0.17708333333337123},{"name":"E5","midi":76,"time":966.8124999999995,"velocity":0.84251968503937,"duration":0.328125},{"name":"F#4","midi":66,"time":966.9908854166662,"velocity":0.84251968503937,"duration":0.47526041666674246},{"name":"D#5","midi":75,"time":967.1705729166662,"velocity":0.84251968503937,"duration":0.17708333333337123},{"name":"E5","midi":76,"time":967.3489583333329,"velocity":0.84251968503937,"duration":0.328125},{"name":"F4","midi":65,"time":967.5273437499995,"velocity":0.84251968503937,"duration":0.47526041666674246},{"name":"C#5","midi":73,"time":967.7070312499995,"velocity":0.84251968503937,"duration":0.17708333333337123},{"name":"D5","midi":74,"time":967.8854166666663,"velocity":0.84251968503937,"duration":0.328125},{"name":"E4","midi":64,"time":968.0638020833329,"velocity":0.84251968503937,"duration":0.47526041666674246},{"name":"C#5","midi":73,"time":968.2434895833329,"velocity":0.84251968503937,"duration":0.17708333333337123},{"name":"D5","midi":74,"time":968.4218749999997,"velocity":0.84251968503937,"duration":0.328125},{"name":"A4","midi":69,"time":968.6002604166663,"velocity":0.84251968503937,"duration":0.47526041666674246},{"name":"B4","midi":71,"time":968.7799479166663,"velocity":0.84251968503937,"duration":0.17708333333337123},{"name":"C5","midi":72,"time":968.958333333333,"velocity":0.84251968503937,"duration":0.328125},{"name":"D#4","midi":63,"time":969.1367187499997,"velocity":0.84251968503937,"duration":0.47526041666674246},{"name":"B4","midi":71,"time":969.3164062499997,"velocity":0.84251968503937,"duration":0.17708333333337123},{"name":"C5","midi":72,"time":969.4947916666664,"velocity":0.84251968503937,"duration":0.328125},{"name":"D4","midi":62,"time":969.673177083333,"velocity":0.84251968503937,"duration":0.47526041666674246},{"name":"A4","midi":69,"time":969.852864583333,"velocity":0.84251968503937,"duration":0.17708333333337123},{"name":"A#4","midi":70,"time":970.0312499999998,"velocity":0.84251968503937,"duration":0.328125},{"name":"C#4","midi":61,"time":970.2096354166664,"velocity":0.84251968503937,"duration":0.47526041666674246},{"name":"A4","midi":69,"time":970.3893229166664,"velocity":0.84251968503937,"duration":0.17708333333337123},{"name":"A#4","midi":70,"time":970.5677083333331,"velocity":0.84251968503937,"duration":0.328125},{"name":"C4","midi":60,"time":970.7460937499998,"velocity":0.84251968503937,"duration":0.47526041666674246},{"name":"G#4","midi":68,"time":970.9257812499998,"velocity":0.84251968503937,"duration":0.17708333333337123},{"name":"A4","midi":69,"time":971.1041666666665,"velocity":0.84251968503937,"duration":0.328125},{"name":"B3","midi":59,"time":971.2825520833331,"velocity":0.84251968503937,"duration":0.47526041666674246},{"name":"G#4","midi":68,"time":971.4622395833331,"velocity":0.84251968503937,"duration":0.17708333333337123},{"name":"A4","midi":69,"time":971.6406249999999,"velocity":0.84251968503937,"duration":0.328125},{"name":"D4","midi":62,"time":971.8190104166665,"velocity":0.84251968503937,"duration":0.47526041666674246},{"name":"F#4","midi":66,"time":971.9986979166665,"velocity":0.84251968503937,"duration":0.17708333333337123},{"name":"G#4","midi":68,"time":972.1770833333333,"velocity":0.84251968503937,"duration":0.17708333333337123},{"name":"A4","midi":69,"time":972.35546875,"velocity":0.84251968503937,"duration":0.17708333333337123},{"name":"C#4","midi":61,"time":972.35546875,"velocity":0.84251968503937,"duration":0.17708333333337123},{"name":"A3","midi":57,"time":972.35546875,"velocity":0.84251968503937,"duration":4.281250000001592},{"name":"G#4","midi":68,"time":972.5338541666667,"velocity":0.84251968503937,"duration":0.17708333333337123},{"name":"B3","midi":59,"time":972.5338541666667,"velocity":0.84251968503937,"duration":0.17708333333337123},{"name":"A4","midi":69,"time":972.7122395833335,"velocity":0.84251968503937,"duration":0.17708333333337123},{"name":"C#4","midi":61,"time":972.7122395833335,"velocity":0.84251968503937,"duration":0.17708333333337123},{"name":"B4","midi":71,"time":972.8906250000002,"velocity":0.84251968503937,"duration":0.17708333333337123},{"name":"D4","midi":62,"time":972.8906250000002,"velocity":0.84251968503937,"duration":0.17708333333337123},{"name":"G#4","midi":68,"time":973.069010416667,"velocity":0.84251968503937,"duration":0.17708333333337123},{"name":"B3","midi":59,"time":973.069010416667,"velocity":0.84251968503937,"duration":0.17708333333337123},{"name":"A4","midi":69,"time":973.2473958333337,"velocity":0.84251968503937,"duration":0.17708333333337123},{"name":"C#4","midi":61,"time":973.2473958333337,"velocity":0.84251968503937,"duration":0.17708333333337123},{"name":"C#5","midi":73,"time":973.4257812500005,"velocity":0.84251968503937,"duration":0.17708333333337123},{"name":"E4","midi":64,"time":973.4257812500005,"velocity":0.84251968503937,"duration":0.17708333333337123},{"name":"G#4","midi":68,"time":973.6041666666672,"velocity":0.84251968503937,"duration":0.17708333333337123},{"name":"B3","midi":59,"time":973.6041666666672,"velocity":0.84251968503937,"duration":0.17708333333337123},{"name":"A4","midi":69,"time":973.7825520833339,"velocity":0.84251968503937,"duration":0.17708333333337123},{"name":"C#4","midi":61,"time":973.7825520833339,"velocity":0.84251968503937,"duration":0.17708333333337123},{"name":"D5","midi":74,"time":973.9609375000007,"velocity":0.84251968503937,"duration":0.17708333333337123},{"name":"F4","midi":65,"time":973.9609375000007,"velocity":0.84251968503937,"duration":0.17708333333337123},{"name":"G#4","midi":68,"time":974.1393229166674,"velocity":0.84251968503937,"duration":0.17708333333337123},{"name":"E4","midi":64,"time":974.1393229166674,"velocity":0.84251968503937,"duration":0.17708333333337123},{"name":"A4","midi":69,"time":974.3177083333342,"velocity":0.84251968503937,"duration":0.17708333333337123},{"name":"D4","midi":62,"time":974.3177083333342,"velocity":0.84251968503937,"duration":0.17708333333337123},{"name":"E5","midi":76,"time":974.4960937500009,"velocity":0.84251968503937,"duration":0.17708333333337123},{"name":"C#4","midi":61,"time":974.4960937500009,"velocity":0.84251968503937,"duration":0.17708333333337123},{"name":"G#4","midi":68,"time":974.6744791666677,"velocity":0.84251968503937,"duration":0.17708333333337123},{"name":"B3","midi":59,"time":974.6744791666677,"velocity":0.84251968503937,"duration":0.17708333333337123},{"name":"A4","midi":69,"time":974.8528645833344,"velocity":0.84251968503937,"duration":0.17708333333337123},{"name":"C#4","midi":61,"time":974.8528645833344,"velocity":0.84251968503937,"duration":0.17708333333337123},{"name":"F5","midi":77,"time":975.0312500000011,"velocity":0.84251968503937,"duration":0.17708333333337123},{"name":"D4","midi":62,"time":975.0312500000011,"velocity":0.84251968503937,"duration":0.17708333333337123},{"name":"E5","midi":76,"time":975.2096354166679,"velocity":0.84251968503937,"duration":0.17708333333337123},{"name":"F4","midi":65,"time":975.2096354166679,"velocity":0.84251968503937,"duration":0.17708333333337123},{"name":"D5","midi":74,"time":975.3880208333346,"velocity":0.84251968503937,"duration":0.17708333333337123},{"name":"G#4","midi":68,"time":975.3880208333346,"velocity":0.84251968503937,"duration":0.17708333333337123},{"name":"C#5","midi":73,"time":975.5664062500014,"velocity":0.84251968503937,"duration":0.17708333333337123},{"name":"A4","midi":69,"time":975.5664062500014,"velocity":0.84251968503937,"duration":1.0703125000002274},{"name":"E5","midi":76,"time":975.7447916666681,"velocity":0.84251968503937,"duration":0.17708333333337123},{"name":"G#5","midi":80,"time":975.9231770833348,"velocity":0.84251968503937,"duration":0.17708333333337123},{"name":"A5","midi":81,"time":976.1015625000016,"velocity":0.84251968503937,"duration":0.53125},{"name":"E4","midi":64,"time":976.638020833335,"velocity":0.84251968503937,"duration":0.17708333333337123},{"name":"F4","midi":65,"time":976.8164062500017,"velocity":0.84251968503937,"duration":0.17708333333337123},{"name":"E4","midi":64,"time":976.9947916666684,"velocity":0.84251968503937,"duration":0.17708333333337123},{"name":"D4","midi":62,"time":977.1731770833352,"velocity":0.84251968503937,"duration":0.17708333333337123},{"name":"F4","midi":65,"time":977.3515625000019,"velocity":0.84251968503937,"duration":0.17708333333337123},{"name":"E4","midi":64,"time":977.5299479166687,"velocity":0.84251968503937,"duration":0.17708333333337123},{"name":"C4","midi":60,"time":977.7083333333354,"velocity":0.84251968503937,"duration":0.17708333333337123},{"name":"F4","midi":65,"time":977.8867187500022,"velocity":0.84251968503937,"duration":0.17708333333337123},{"name":"E4","midi":64,"time":978.0651041666689,"velocity":0.84251968503937,"duration":0.17708333333337123},{"name":"B3","midi":59,"time":978.2434895833356,"velocity":0.84251968503937,"duration":0.17708333333337123},{"name":"F4","midi":65,"time":978.4218750000024,"velocity":0.84251968503937,"duration":0.17708333333337123},{"name":"E4","midi":64,"time":978.6002604166691,"velocity":0.84251968503937,"duration":0.17708333333337123},{"name":"A3","midi":57,"time":978.7786458333359,"velocity":0.84251968503937,"duration":0.17708333333337123},{"name":"F4","midi":65,"time":978.9570312500026,"velocity":0.84251968503937,"duration":0.17708333333337123},{"name":"E4","midi":64,"time":979.1354166666694,"velocity":0.84251968503937,"duration":0.17708333333337123},{"name":"G#3","midi":56,"time":979.3138020833361,"velocity":0.84251968503937,"duration":0.17708333333337123},{"name":"A3","midi":57,"time":979.4921875000028,"velocity":0.84251968503937,"duration":0.17708333333337123},{"name":"B3","midi":59,"time":979.6705729166696,"velocity":0.84251968503937,"duration":0.17708333333337123},{"name":"C#4","midi":61,"time":979.8489583333363,"velocity":0.84251968503937,"duration":0.17708333333337123},{"name":"D4","midi":62,"time":980.0273437500031,"velocity":0.84251968503937,"duration":0.17708333333337123},{"name":"E4","midi":64,"time":980.2057291666698,"velocity":0.84251968503937,"duration":0.17708333333337123},{"name":"A#3","midi":58,"time":980.3841145833366,"velocity":0.84251968503937,"duration":0.17708333333337123},{"name":"A3","midi":57,"time":980.5625000000033,"velocity":0.84251968503937,"duration":0.17708333333337123},{"name":"G3","midi":55,"time":980.74088541667,"velocity":0.84251968503937,"duration":0.17708333333337123},{"name":"A4","midi":69,"time":980.9192708333368,"velocity":0.84251968503937,"duration":0.17708333333337123},{"name":"F3","midi":53,"time":980.9192708333368,"velocity":0.84251968503937,"duration":0.4739583333334849},{"name":"A#4","midi":70,"time":981.0976562500035,"velocity":0.84251968503937,"duration":0.17708333333337123},{"name":"A4","midi":69,"time":981.2760416666703,"velocity":0.84251968503937,"duration":0.17708333333337123},{"name":"G4","midi":67,"time":981.454427083337,"velocity":0.84251968503937,"duration":0.17708333333337123},{"name":"A#3","midi":58,"time":981.454427083337,"velocity":0.84251968503937,"duration":0.4739583333334849},{"name":"A#4","midi":70,"time":981.6328125000038,"velocity":0.84251968503937,"duration":0.17708333333337123},{"name":"A4","midi":69,"time":981.8111979166705,"velocity":0.84251968503937,"duration":0.17708333333337123},{"name":"F4","midi":65,"time":981.9895833333372,"velocity":0.84251968503937,"duration":0.17708333333337123},{"name":"A3","midi":57,"time":981.9895833333372,"velocity":0.84251968503937,"duration":0.4739583333334849},{"name":"A#4","midi":70,"time":982.167968750004,"velocity":0.84251968503937,"duration":0.17708333333337123},{"name":"A4","midi":69,"time":982.3463541666707,"velocity":0.84251968503937,"duration":0.17708333333337123},{"name":"E4","midi":64,"time":982.5247395833375,"velocity":0.84251968503937,"duration":0.17708333333337123},{"name":"G3","midi":55,"time":982.5247395833375,"velocity":0.84251968503937,"duration":0.4739583333334849},{"name":"A#4","midi":70,"time":982.7031250000042,"velocity":0.84251968503937,"duration":0.17708333333337123},{"name":"A4","midi":69,"time":982.881510416671,"velocity":0.84251968503937,"duration":0.17708333333337123},{"name":"D4","midi":62,"time":983.0598958333377,"velocity":0.84251968503937,"duration":0.17708333333337123},{"name":"F3","midi":53,"time":983.0598958333377,"velocity":0.84251968503937,"duration":0.4739583333334849},{"name":"A#4","midi":70,"time":983.2382812500044,"velocity":0.84251968503937,"duration":0.17708333333337123},{"name":"A4","midi":69,"time":983.4166666666712,"velocity":0.84251968503937,"duration":0.17708333333337123},{"name":"C#4","midi":61,"time":983.5950520833379,"velocity":0.84251968503937,"duration":0.17708333333337123},{"name":"E3","midi":52,"time":983.5950520833379,"velocity":0.84251968503937,"duration":0.17708333333337123},{"name":"D4","midi":62,"time":983.7734375000047,"velocity":0.84251968503937,"duration":0.17708333333337123},{"name":"D3","midi":50,"time":983.7734375000047,"velocity":0.84251968503937,"duration":0.17708333333337123},{"name":"E4","midi":64,"time":983.9518229166714,"velocity":0.84251968503937,"duration":0.17708333333337123},{"name":"C#3","midi":49,"time":983.9518229166714,"velocity":0.84251968503937,"duration":0.17708333333337123},{"name":"F#4","midi":66,"time":984.1302083333381,"velocity":0.84251968503937,"duration":0.17708333333337123},{"name":"D3","midi":50,"time":984.1302083333381,"velocity":0.84251968503937,"duration":0.17708333333337123},{"name":"G4","midi":67,"time":984.3085937500049,"velocity":0.84251968503937,"duration":0.17708333333337123},{"name":"E3","midi":52,"time":984.3085937500049,"velocity":0.84251968503937,"duration":0.17708333333337123},{"name":"A4","midi":69,"time":984.4869791666716,"velocity":0.84251968503937,"duration":0.17708333333337123},{"name":"F#3","midi":54,"time":984.4869791666716,"velocity":0.84251968503937,"duration":0.17708333333337123},{"name":"D#4","midi":63,"time":984.6653645833384,"velocity":0.84251968503937,"duration":0.17708333333337123},{"name":"F#3","midi":54,"time":984.6653645833384,"velocity":0.84251968503937,"duration":0.17708333333337123},{"name":"D4","midi":62,"time":984.8437500000051,"velocity":0.84251968503937,"duration":0.17708333333337123},{"name":"G3","midi":55,"time":984.8437500000051,"velocity":0.84251968503937,"duration":0.17708333333337123},{"name":"C4","midi":60,"time":985.0221354166719,"velocity":0.84251968503937,"duration":0.17708333333337123},{"name":"A3","midi":57,"time":985.0221354166719,"velocity":0.84251968503937,"duration":0.17708333333337123},{"name":"D4","midi":62,"time":985.2005208333386,"velocity":0.84251968503937,"duration":0.4739583333334849},{"name":"A3","midi":57,"time":985.2005208333386,"velocity":0.84251968503937,"duration":0.17708333333337123},{"name":"B3","midi":59,"time":985.3789062500053,"velocity":0.84251968503937,"duration":0.17708333333337123},{"name":"C4","midi":60,"time":985.5572916666721,"velocity":0.84251968503937,"duration":0.17708333333337123},{"name":"D#4","midi":63,"time":985.7356770833388,"velocity":0.84251968503937,"duration":0.17708333333337123},{"name":"C4","midi":60,"time":985.7356770833388,"velocity":0.84251968503937,"duration":0.4739583333334849},{"name":"E4","midi":64,"time":985.9140625000056,"velocity":0.84251968503937,"duration":0.17708333333337123},{"name":"F#4","midi":66,"time":986.0924479166723,"velocity":0.84251968503937,"duration":0.17708333333337123},{"name":"G#4","midi":68,"time":986.270833333339,"velocity":0.84251968503937,"duration":0.17708333333337123},{"name":"B3","midi":59,"time":986.270833333339,"velocity":0.84251968503937,"duration":0.17708333333337123},{"name":"A4","midi":69,"time":986.4492187500058,"velocity":0.84251968503937,"duration":0.17708333333337123},{"name":"A3","midi":57,"time":986.4492187500058,"velocity":0.84251968503937,"duration":0.17708333333337123},{"name":"B4","midi":71,"time":986.6276041666725,"velocity":0.84251968503937,"duration":0.17708333333337123},{"name":"G#3","midi":56,"time":986.6276041666725,"velocity":0.84251968503937,"duration":0.17708333333337123},{"name":"F4","midi":65,"time":986.8059895833393,"velocity":0.84251968503937,"duration":0.17708333333337123},{"name":"G#3","midi":56,"time":986.8059895833393,"velocity":0.84251968503937,"duration":0.17708333333337123},{"name":"E4","midi":64,"time":986.984375000006,"velocity":0.84251968503937,"duration":0.17708333333337123},{"name":"A3","midi":57,"time":986.984375000006,"velocity":0.84251968503937,"duration":0.17708333333337123},{"name":"D4","midi":62,"time":987.1627604166728,"velocity":0.84251968503937,"duration":0.17708333333337123},{"name":"B3","midi":59,"time":987.1627604166728,"velocity":0.84251968503937,"duration":0.17708333333337123},{"name":"E5","midi":76,"time":987.3411458333395,"velocity":0.84251968503937,"duration":0.17708333333337123},{"name":"C4","midi":60,"time":987.3411458333395,"velocity":0.84251968503937,"duration":0.4739583333334849},{"name":"A3","midi":57,"time":987.3411458333395,"velocity":0.84251968503937,"duration":2.6744791666677656},{"name":"F5","midi":77,"time":987.5195312500063,"velocity":0.84251968503937,"duration":0.17708333333337123},{"name":"E5","midi":76,"time":987.697916666673,"velocity":0.84251968503937,"duration":0.17708333333337123},{"name":"D5","midi":74,"time":987.8763020833397,"velocity":0.84251968503937,"duration":0.17708333333337123},{"name":"F4","midi":65,"time":987.8763020833397,"velocity":0.84251968503937,"duration":0.4739583333334849},{"name":"F5","midi":77,"time":988.0546875000065,"velocity":0.84251968503937,"duration":0.17708333333337123},{"name":"E5","midi":76,"time":988.2330729166732,"velocity":0.84251968503937,"duration":0.17708333333337123},{"name":"C5","midi":72,"time":988.41145833334,"velocity":0.84251968503937,"duration":0.17708333333337123},{"name":"E4","midi":64,"time":988.41145833334,"velocity":0.84251968503937,"duration":0.4739583333334849},{"name":"F5","midi":77,"time":988.5898437500067,"velocity":0.84251968503937,"duration":0.17708333333337123},{"name":"E5","midi":76,"time":988.7682291666734,"velocity":0.84251968503937,"duration":0.17708333333337123},{"name":"B4","midi":71,"time":988.9466145833402,"velocity":0.84251968503937,"duration":0.17708333333337123},{"name":"D4","midi":62,"time":988.9466145833402,"velocity":0.84251968503937,"duration":0.4739583333334849},{"name":"F5","midi":77,"time":989.1250000000069,"velocity":0.84251968503937,"duration":0.17708333333337123},{"name":"E5","midi":76,"time":989.3033854166737,"velocity":0.84251968503937,"duration":0.17708333333337123},{"name":"A4","midi":69,"time":989.4817708333404,"velocity":0.84251968503937,"duration":0.17708333333337123},{"name":"C4","midi":60,"time":989.4817708333404,"velocity":0.84251968503937,"duration":0.4739583333334849},{"name":"F5","midi":77,"time":989.6601562500072,"velocity":0.84251968503937,"duration":0.17708333333337123},{"name":"E5","midi":76,"time":989.8385416666739,"velocity":0.84251968503937,"duration":0.17708333333337123},{"name":"G#4","midi":68,"time":990.0169270833406,"velocity":0.84251968503937,"duration":0.17708333333337123},{"name":"B3","midi":59,"time":990.0169270833406,"velocity":0.84251968503937,"duration":0.17708333333337123},{"name":"A4","midi":69,"time":990.1953125000074,"velocity":0.84251968503937,"duration":0.17708333333337123},{"name":"A3","midi":57,"time":990.1953125000074,"velocity":0.84251968503937,"duration":0.17708333333337123},{"name":"B4","midi":71,"time":990.3736979166741,"velocity":0.84251968503937,"duration":0.17708333333337123},{"name":"G#3","midi":56,"time":990.3736979166741,"velocity":0.84251968503937,"duration":0.17708333333337123},{"name":"C#5","midi":73,"time":990.5520833333409,"velocity":0.84251968503937,"duration":0.17708333333337123},{"name":"A3","midi":57,"time":990.5520833333409,"velocity":0.84251968503937,"duration":0.17708333333337123},{"name":"D5","midi":74,"time":990.7304687500076,"velocity":0.84251968503937,"duration":0.17708333333337123},{"name":"B3","midi":59,"time":990.7304687500076,"velocity":0.84251968503937,"duration":0.17708333333337123},{"name":"E5","midi":76,"time":990.9088541666744,"velocity":0.84251968503937,"duration":0.17708333333337123},{"name":"C#4","midi":61,"time":990.9088541666744,"velocity":0.84251968503937,"duration":0.17708333333337123},{"name":"A#4","midi":70,"time":991.0872395833411,"velocity":0.84251968503937,"duration":0.17708333333337123},{"name":"C#4","midi":61,"time":991.0872395833411,"velocity":0.84251968503937,"duration":0.17708333333337123},{"name":"A4","midi":69,"time":991.2656250000078,"velocity":0.84251968503937,"duration":0.17708333333337123},{"name":"D4","midi":62,"time":991.2656250000078,"velocity":0.84251968503937,"duration":0.17708333333337123},{"name":"G4","midi":67,"time":991.4440104166746,"velocity":0.84251968503937,"duration":0.17708333333337123},{"name":"E4","midi":64,"time":991.4440104166746,"velocity":0.84251968503937,"duration":0.17708333333337123},{"name":"F4","midi":65,"time":991.6223958333413,"velocity":0.84251968503937,"duration":0.4739583333334849},{"name":"D4","midi":62,"time":991.6223958333413,"velocity":0.84251968503937,"duration":2.6744791666677656},{"name":"D3","midi":50,"time":991.6223958333413,"velocity":0.84251968503937,"duration":0.17708333333337123},{"name":"D#3","midi":51,"time":991.8007812500081,"velocity":0.84251968503937,"duration":0.17708333333337123},{"name":"D3","midi":50,"time":991.9791666666748,"velocity":0.84251968503937,"duration":0.17708333333337123},{"name":"F#4","midi":66,"time":992.1575520833416,"velocity":0.84251968503937,"duration":0.4739583333334849},{"name":"C3","midi":48,"time":992.1575520833416,"velocity":0.84251968503937,"duration":0.17708333333337123},{"name":"D#3","midi":51,"time":992.3359375000083,"velocity":0.84251968503937,"duration":0.17708333333337123},{"name":"D3","midi":50,"time":992.514322916675,"velocity":0.84251968503937,"duration":0.17708333333337123},{"name":"G4","midi":67,"time":992.6927083333418,"velocity":0.84251968503937,"duration":0.4739583333334849},{"name":"A#2","midi":46,"time":992.6927083333418,"velocity":0.84251968503937,"duration":0.17708333333337123},{"name":"D#3","midi":51,"time":992.8710937500085,"velocity":0.84251968503937,"duration":0.17708333333337123},{"name":"D3","midi":50,"time":993.0494791666753,"velocity":0.84251968503937,"duration":0.17708333333337123},{"name":"A4","midi":69,"time":993.227864583342,"velocity":0.84251968503937,"duration":0.4739583333334849},{"name":"A2","midi":45,"time":993.227864583342,"velocity":0.84251968503937,"duration":0.17708333333337123},{"name":"D#3","midi":51,"time":993.4062500000088,"velocity":0.84251968503937,"duration":0.17708333333337123},{"name":"D3","midi":50,"time":993.5846354166755,"velocity":0.84251968503937,"duration":0.17708333333337123},{"name":"A#4","midi":70,"time":993.7630208333422,"velocity":0.84251968503937,"duration":0.4739583333334849},{"name":"G2","midi":43,"time":993.7630208333422,"velocity":0.84251968503937,"duration":0.17708333333337123},{"name":"D#3","midi":51,"time":993.941406250009,"velocity":0.84251968503937,"duration":0.17708333333337123},{"name":"D3","midi":50,"time":994.1197916666757,"velocity":0.84251968503937,"duration":0.17708333333337123},{"name":"C5","midi":72,"time":994.2981770833425,"velocity":0.84251968503937,"duration":0.4739583333334849},{"name":"D#4","midi":63,"time":994.2981770833425,"velocity":0.84251968503937,"duration":0.4739583333334849},{"name":"F#2","midi":42,"time":994.2981770833425,"velocity":0.84251968503937,"duration":0.17708333333337123},{"name":"G2","midi":43,"time":994.4765625000092,"velocity":0.84251968503937,"duration":0.17708333333337123},{"name":"A2","midi":45,"time":994.654947916676,"velocity":0.84251968503937,"duration":0.17708333333337123},{"name":"D5","midi":74,"time":994.8333333333427,"velocity":0.84251968503937,"duration":0.4739583333334849},{"name":"F4","midi":65,"time":994.8333333333427,"velocity":0.84251968503937,"duration":0.4739583333334849},{"name":"B2","midi":47,"time":994.8333333333427,"velocity":0.84251968503937,"duration":0.17708333333337123},{"name":"C3","midi":48,"time":995.0117187500094,"velocity":0.84251968503937,"duration":0.17708333333337123},{"name":"D3","midi":50,"time":995.1901041666762,"velocity":0.84251968503937,"duration":0.17708333333337123},{"name":"B4","midi":71,"time":995.3684895833429,"velocity":0.84251968503937,"duration":0.4739583333334849},{"name":"D4","midi":62,"time":995.3684895833429,"velocity":0.84251968503937,"duration":0.4739583333334849},{"name":"G#2","midi":44,"time":995.3684895833429,"velocity":0.84251968503937,"duration":0.17708333333337123},{"name":"G2","midi":43,"time":995.5468750000097,"velocity":0.84251968503937,"duration":0.17708333333337123},{"name":"F2","midi":41,"time":995.7252604166764,"velocity":0.84251968503937,"duration":0.17708333333337123},{"name":"C#5","midi":73,"time":995.9036458333431,"velocity":0.84251968503937,"duration":0.4739583333334849},{"name":"G4","midi":67,"time":995.9036458333431,"velocity":0.84251968503937,"duration":0.4739583333334849},{"name":"E2","midi":40,"time":995.9036458333431,"velocity":0.84251968503937,"duration":0.17708333333337123},{"name":"D2","midi":38,"time":996.0820312500099,"velocity":0.84251968503937,"duration":0.17708333333337123},{"name":"C#2","midi":37,"time":996.2604166666766,"velocity":0.84251968503937,"duration":0.17708333333337123},{"name":"D5","midi":74,"time":996.4388020833434,"velocity":0.84251968503937,"duration":0.4739583333334849},{"name":"F4","midi":65,"time":996.4388020833434,"velocity":0.84251968503937,"duration":0.4739583333334849},{"name":"G#2","midi":44,"time":996.4388020833434,"velocity":0.84251968503937,"duration":0.17708333333337123},{"name":"A2","midi":45,"time":996.6171875000101,"velocity":0.84251968503937,"duration":0.17708333333337123},{"name":"B2","midi":47,"time":996.7955729166769,"velocity":0.84251968503937,"duration":0.17708333333337123},{"name":"E5","midi":76,"time":996.9739583333436,"velocity":0.84251968503937,"duration":0.4739583333334849},{"name":"G4","midi":67,"time":996.9739583333436,"velocity":0.84251968503937,"duration":0.4739583333334849},{"name":"C#3","midi":49,"time":996.9739583333436,"velocity":0.84251968503937,"duration":0.17708333333337123},{"name":"D3","midi":50,"time":997.1523437500103,"velocity":0.84251968503937,"duration":0.17708333333337123},{"name":"E3","midi":52,"time":997.3307291666771,"velocity":0.84251968503937,"duration":0.17708333333337123},{"name":"C#5","midi":73,"time":997.5091145833438,"velocity":0.84251968503937,"duration":0.4739583333334849},{"name":"E4","midi":64,"time":997.5091145833438,"velocity":0.84251968503937,"duration":0.4739583333334849},{"name":"A#2","midi":46,"time":997.5091145833438,"velocity":0.84251968503937,"duration":0.17708333333337123},{"name":"A2","midi":45,"time":997.6875000000106,"velocity":0.84251968503937,"duration":0.17708333333337123},{"name":"G2","midi":43,"time":997.8658854166773,"velocity":0.84251968503937,"duration":0.17708333333337123},{"name":"D5","midi":74,"time":998.0442708333441,"velocity":0.84251968503937,"duration":4.289062500000455},{"name":"A4","midi":69,"time":998.0442708333441,"velocity":0.84251968503937,"duration":0.4739583333334849},{"name":"F#2","midi":42,"time":998.0442708333441,"velocity":0.84251968503937,"duration":0.17708333333337123},{"name":"E2","midi":40,"time":998.2226562500108,"velocity":0.84251968503937,"duration":0.17708333333337123},{"name":"D2","midi":38,"time":998.4010416666775,"velocity":0.84251968503937,"duration":0.328125},{"name":"C3","midi":48,"time":998.5794270833442,"velocity":0.84251968503937,"duration":0.47526041666674246},{"name":"F#2","midi":42,"time":998.7591145833442,"velocity":0.84251968503937,"duration":0.17708333333337123},{"name":"E2","midi":40,"time":998.9375000000109,"velocity":0.84251968503937,"duration":0.328125},{"name":"D3","midi":50,"time":999.1158854166775,"velocity":0.84251968503937,"duration":0.47526041666674246},{"name":"G2","midi":43,"time":999.2955729166775,"velocity":0.84251968503937,"duration":0.17708333333337123},{"name":"F#2","midi":42,"time":999.4739583333443,"velocity":0.84251968503937,"duration":0.328125},{"name":"E3","midi":52,"time":999.6523437500109,"velocity":0.84251968503937,"duration":0.47526041666674246},{"name":"A2","midi":45,"time":999.8320312500109,"velocity":0.84251968503937,"duration":0.17708333333337123},{"name":"G2","midi":43,"time":1000.0104166666777,"velocity":0.84251968503937,"duration":0.328125},{"name":"F#3","midi":54,"time":1000.1888020833443,"velocity":0.84251968503937,"duration":0.47526041666674246},{"name":"A#2","midi":46,"time":1000.3684895833443,"velocity":0.84251968503937,"duration":0.17708333333337123},{"name":"A2","midi":45,"time":1000.546875000011,"velocity":0.84251968503937,"duration":0.328125},{"name":"F3","midi":53,"time":1000.7252604166777,"velocity":0.84251968503937,"duration":0.47526041666674246},{"name":"C3","midi":48,"time":1000.9049479166777,"velocity":0.84251968503937,"duration":0.17708333333337123},{"name":"B2","midi":47,"time":1001.0833333333444,"velocity":0.84251968503937,"duration":0.328125},{"name":"E3","midi":52,"time":1001.261718750011,"velocity":0.84251968503937,"duration":0.47526041666674246},{"name":"D3","midi":50,"time":1001.441406250011,"velocity":0.84251968503937,"duration":0.17708333333337123},{"name":"C#3","midi":49,"time":1001.6197916666778,"velocity":0.84251968503937,"duration":0.328125},{"name":"A#3","midi":58,"time":1001.7981770833444,"velocity":0.84251968503937,"duration":0.47526041666674246},{"name":"D3","midi":50,"time":1001.9778645833444,"velocity":0.84251968503937,"duration":0.17708333333337123},{"name":"E3","midi":52,"time":1002.1562500000111,"velocity":0.84251968503937,"duration":0.17708333333337123},{"name":"A5","midi":81,"time":1002.3346354166779,"velocity":0.84251968503937,"duration":0.17708333333337123},{"name":"A3","midi":57,"time":1002.3346354166779,"velocity":0.84251968503937,"duration":0.4739583333334849},{"name":"F3","midi":53,"time":1002.3346354166779,"velocity":0.84251968503937,"duration":0.4739583333334849},{"name":"A#5","midi":82,"time":1002.5130208333446,"velocity":0.84251968503937,"duration":0.17708333333337123},{"name":"A5","midi":81,"time":1002.6914062500114,"velocity":0.84251968503937,"duration":0.17708333333337123},{"name":"G5","midi":79,"time":1002.8697916666781,"velocity":0.84251968503937,"duration":0.17708333333337123},{"name":"D4","midi":62,"time":1002.8697916666781,"velocity":0.84251968503937,"duration":2.1393229166675383},{"name":"A#3","midi":58,"time":1002.8697916666781,"velocity":0.84251968503937,"duration":0.4739583333334849},{"name":"A#5","midi":82,"time":1003.0481770833449,"velocity":0.84251968503937,"duration":0.17708333333337123},{"name":"A5","midi":81,"time":1003.2265625000116,"velocity":0.84251968503937,"duration":0.17708333333337123},{"name":"F5","midi":77,"time":1003.4049479166783,"velocity":0.84251968503937,"duration":0.17708333333337123},{"name":"A3","midi":57,"time":1003.4049479166783,"velocity":0.84251968503937,"duration":0.4739583333334849},{"name":"A#5","midi":82,"time":1003.5833333333451,"velocity":0.84251968503937,"duration":0.17708333333337123},{"name":"A5","midi":81,"time":1003.7617187500118,"velocity":0.84251968503937,"duration":0.17708333333337123},{"name":"E5","midi":76,"time":1003.9401041666786,"velocity":0.84251968503937,"duration":0.17708333333337123},{"name":"G3","midi":55,"time":1003.9401041666786,"velocity":0.84251968503937,"duration":0.4739583333334849},{"name":"A#5","midi":82,"time":1004.1184895833453,"velocity":0.84251968503937,"duration":0.17708333333337123},{"name":"A5","midi":81,"time":1004.296875000012,"velocity":0.84251968503937,"duration":0.17708333333337123},{"name":"D5","midi":74,"time":1004.4752604166788,"velocity":0.84251968503937,"duration":0.17708333333337123},{"name":"F3","midi":53,"time":1004.4752604166788,"velocity":0.84251968503937,"duration":0.4739583333334849},{"name":"A#5","midi":82,"time":1004.6536458333455,"velocity":0.84251968503937,"duration":0.17708333333337123},{"name":"A5","midi":81,"time":1004.8320312500123,"velocity":0.84251968503937,"duration":0.17708333333337123},{"name":"C#5","midi":73,"time":1005.010416666679,"velocity":0.84251968503937,"duration":0.17708333333337123},{"name":"A#3","midi":58,"time":1005.010416666679,"velocity":0.84251968503937,"duration":0.4739583333334849},{"name":"G3","midi":55,"time":1005.010416666679,"velocity":0.84251968503937,"duration":0.4739583333334849},{"name":"D5","midi":74,"time":1005.1888020833458,"velocity":0.84251968503937,"duration":0.17708333333337123},{"name":"E5","midi":76,"time":1005.3671875000125,"velocity":0.84251968503937,"duration":0.17708333333337123},{"name":"F#5","midi":78,"time":1005.5455729166792,"velocity":0.84251968503937,"duration":0.17708333333337123},{"name":"C4","midi":60,"time":1005.5455729166792,"velocity":0.84251968503937,"duration":0.4739583333334849},{"name":"A3","midi":57,"time":1005.5455729166792,"velocity":0.84251968503937,"duration":0.4739583333334849},{"name":"G5","midi":79,"time":1005.723958333346,"velocity":0.84251968503937,"duration":0.17708333333337123},{"name":"A5","midi":81,"time":1005.9023437500127,"velocity":0.84251968503937,"duration":0.17708333333337123},{"name":"D#5","midi":75,"time":1006.0807291666795,"velocity":0.84251968503937,"duration":0.17708333333337123},{"name":"A3","midi":57,"time":1006.0807291666795,"velocity":0.84251968503937,"duration":0.4739583333334849},{"name":"F#3","midi":54,"time":1006.0807291666795,"velocity":0.84251968503937,"duration":0.4739583333334849},{"name":"D5","midi":74,"time":1006.2591145833462,"velocity":0.84251968503937,"duration":0.17708333333337123},{"name":"C5","midi":72,"time":1006.437500000013,"velocity":0.84251968503937,"duration":0.17708333333337123},{"name":"B4","midi":71,"time":1006.6158854166797,"velocity":0.84251968503937,"duration":0.17708333333337123},{"name":"D4","midi":62,"time":1006.6158854166797,"velocity":0.84251968503937,"duration":0.4739583333334849},{"name":"G#3","midi":56,"time":1006.6158854166797,"velocity":0.84251968503937,"duration":0.4739583333334849},{"name":"A4","midi":69,"time":1006.7942708333464,"velocity":0.84251968503937,"duration":0.17708333333337123},{"name":"G#4","midi":68,"time":1006.9726562500132,"velocity":0.84251968503937,"duration":0.17708333333337123},{"name":"D#5","midi":75,"time":1007.1510416666799,"velocity":0.84251968503937,"duration":0.17708333333337123},{"name":"C4","midi":60,"time":1007.1510416666799,"velocity":0.84251968503937,"duration":0.4739583333334849},{"name":"A3","midi":57,"time":1007.1510416666799,"velocity":0.84251968503937,"duration":0.4739583333334849},{"name":"E5","midi":76,"time":1007.3294270833467,"velocity":0.84251968503937,"duration":0.17708333333337123},{"name":"F#5","midi":78,"time":1007.5078125000134,"velocity":0.84251968503937,"duration":0.17708333333337123},{"name":"G#5","midi":80,"time":1007.6861979166802,"velocity":0.84251968503937,"duration":0.17708333333337123},{"name":"D4","midi":62,"time":1007.6861979166802,"velocity":0.84251968503937,"duration":0.4739583333334849},{"name":"B3","midi":59,"time":1007.6861979166802,"velocity":0.84251968503937,"duration":0.4739583333334849},{"name":"A5","midi":81,"time":1007.8645833333469,"velocity":0.84251968503937,"duration":0.17708333333337123},{"name":"B5","midi":83,"time":1008.0429687500136,"velocity":0.84251968503937,"duration":0.17708333333337123},{"name":"F5","midi":77,"time":1008.2213541666804,"velocity":0.84251968503937,"duration":0.17708333333337123},{"name":"B3","midi":59,"time":1008.2213541666804,"velocity":0.84251968503937,"duration":0.4739583333334849},{"name":"G#3","midi":56,"time":1008.2213541666804,"velocity":0.84251968503937,"duration":0.4739583333334849},{"name":"E5","midi":76,"time":1008.3997395833471,"velocity":0.84251968503937,"duration":0.17708333333337123},{"name":"D5","midi":74,"time":1008.5781250000139,"velocity":0.84251968503937,"duration":0.17708333333337123},{"name":"C#5","midi":73,"time":1008.7565104166806,"velocity":0.84251968503937,"duration":0.17708333333337123},{"name":"E4","midi":64,"time":1008.7565104166806,"velocity":0.84251968503937,"duration":0.4739583333334849},{"name":"A3","midi":57,"time":1008.7565104166806,"velocity":0.84251968503937,"duration":0.4739583333334849},{"name":"D5","midi":74,"time":1008.9348958333474,"velocity":0.84251968503937,"duration":0.17708333333337123},{"name":"E5","midi":76,"time":1009.1132812500141,"velocity":0.84251968503937,"duration":0.17708333333337123},{"name":"A#4","midi":70,"time":1009.2916666666808,"velocity":0.84251968503937,"duration":0.17708333333337123},{"name":"A2","midi":45,"time":1009.2916666666808,"velocity":0.84251968503937,"duration":0.17708333333337123},{"name":"A4","midi":69,"time":1009.4700520833476,"velocity":0.84251968503937,"duration":0.17708333333337123},{"name":"B2","midi":47,"time":1009.4700520833476,"velocity":0.84251968503937,"duration":0.17708333333337123},{"name":"G4","midi":67,"time":1009.6484375000143,"velocity":0.84251968503937,"duration":0.17708333333337123},{"name":"C#3","midi":49,"time":1009.6484375000143,"velocity":0.84251968503937,"duration":0.17708333333337123},{"name":"F#4","midi":66,"time":1009.8268229166811,"velocity":0.84251968503937,"duration":0.17708333333337123},{"name":"D3","midi":50,"time":1009.8268229166811,"velocity":0.84251968503937,"duration":0.17708333333337123},{"name":"G4","midi":67,"time":1010.0052083333478,"velocity":0.84251968503937,"duration":0.17708333333337123},{"name":"E3","midi":52,"time":1010.0052083333478,"velocity":0.84251968503937,"duration":0.17708333333337123},{"name":"A4","midi":69,"time":1010.1835937500146,"velocity":0.84251968503937,"duration":0.17708333333337123},{"name":"F#3","midi":54,"time":1010.1835937500146,"velocity":0.84251968503937,"duration":0.17708333333337123},{"name":"F4","midi":65,"time":1010.3619791666813,"velocity":0.84251968503937,"duration":0.17708333333337123},{"name":"G#3","midi":56,"time":1010.3619791666813,"velocity":0.84251968503937,"duration":0.17708333333337123},{"name":"E4","midi":64,"time":1010.540364583348,"velocity":0.84251968503937,"duration":0.17708333333337123},{"name":"A3","midi":57,"time":1010.540364583348,"velocity":0.84251968503937,"duration":0.17708333333337123},{"name":"D4","midi":62,"time":1010.7187500000148,"velocity":0.84251968503937,"duration":0.17708333333337123},{"name":"B3","midi":59,"time":1010.7187500000148,"velocity":0.84251968503937,"duration":0.17708333333337123},{"name":"C#4","midi":61,"time":1010.8971354166815,"velocity":0.84251968503937,"duration":1.0690104166670835},{"name":"A3","midi":57,"time":1010.8971354166815,"velocity":0.84251968503937,"duration":2.6744791666677656},{"name":"A2","midi":45,"time":1010.8971354166815,"velocity":0.84251968503937,"duration":0.17708333333337123},{"name":"A#2","midi":46,"time":1011.0755208333483,"velocity":0.84251968503937,"duration":0.17708333333337123},{"name":"A2","midi":45,"time":1011.253906250015,"velocity":0.84251968503937,"duration":0.17708333333337123},{"name":"G2","midi":43,"time":1011.4322916666817,"velocity":0.84251968503937,"duration":0.17708333333337123},{"name":"A#2","midi":46,"time":1011.6106770833485,"velocity":0.84251968503937,"duration":0.17708333333337123},{"name":"A2","midi":45,"time":1011.7890625000152,"velocity":0.84251968503937,"duration":0.17708333333337123},{"name":"D4","midi":62,"time":1011.967447916682,"velocity":0.84251968503937,"duration":0.4739583333334849},{"name":"F2","midi":41,"time":1011.967447916682,"velocity":0.84251968503937,"duration":0.17708333333337123},{"name":"A#2","midi":46,"time":1012.1458333333487,"velocity":0.84251968503937,"duration":0.17708333333337123},{"name":"A2","midi":45,"time":1012.3242187500155,"velocity":0.84251968503937,"duration":0.17708333333337123},{"name":"E4","midi":64,"time":1012.5026041666822,"velocity":0.84251968503937,"duration":0.4739583333334849},{"name":"E2","midi":40,"time":1012.5026041666822,"velocity":0.84251968503937,"duration":0.17708333333337123},{"name":"A#2","midi":46,"time":1012.680989583349,"velocity":0.84251968503937,"duration":0.17708333333337123},{"name":"A2","midi":45,"time":1012.8593750000157,"velocity":0.84251968503937,"duration":0.17708333333337123},{"name":"F4","midi":65,"time":1013.0377604166824,"velocity":0.84251968503937,"duration":0.4739583333334849},{"name":"D2","midi":38,"time":1013.0377604166824,"velocity":0.84251968503937,"duration":0.17708333333337123},{"name":"A#2","midi":46,"time":1013.2161458333492,"velocity":0.84251968503937,"duration":0.17708333333337123},{"name":"A2","midi":45,"time":1013.3945312500159,"velocity":0.84251968503937,"duration":0.17708333333337123},{"name":"A#4","midi":70,"time":1013.5729166666827,"velocity":0.84251968503937,"duration":0.4739583333334849},{"name":"G4","midi":67,"time":1013.5729166666827,"velocity":0.84251968503937,"duration":0.4739583333334849},{"name":"C#2","midi":37,"time":1013.5729166666827,"velocity":0.84251968503937,"duration":0.17708333333337123},{"name":"D2","midi":38,"time":1013.7513020833494,"velocity":0.84251968503937,"duration":0.17708333333337123},{"name":"E2","midi":40,"time":1013.9296875000161,"velocity":0.84251968503937,"duration":0.17708333333337123},{"name":"A4","midi":69,"time":1014.1080729166829,"velocity":0.84251968503937,"duration":0.4739583333334849},{"name":"D4","midi":62,"time":1014.1080729166829,"velocity":0.84251968503937,"duration":0.4739583333334849},{"name":"F#2","midi":42,"time":1014.1080729166829,"velocity":0.84251968503937,"duration":0.17708333333337123},{"name":"G2","midi":43,"time":1014.2864583333496,"velocity":0.84251968503937,"duration":0.17708333333337123},{"name":"A2","midi":45,"time":1014.4648437500164,"velocity":0.84251968503937,"duration":0.17708333333337123},{"name":"C5","midi":72,"time":1014.6432291666831,"velocity":0.84251968503937,"duration":0.4739583333334849},{"name":"A4","midi":69,"time":1014.6432291666831,"velocity":0.84251968503937,"duration":0.4739583333334849},{"name":"D#2","midi":39,"time":1014.6432291666831,"velocity":0.84251968503937,"duration":0.17708333333337123},{"name":"E2","midi":40,"time":1014.8216145833499,"velocity":0.84251968503937,"duration":0.17708333333337123},{"name":"F#2","midi":42,"time":1015.0000000000166,"velocity":0.84251968503937,"duration":0.17708333333337123},{"name":"B4","midi":71,"time":1015.1783854166833,"velocity":0.84251968503937,"duration":0.4739583333334849},{"name":"E4","midi":64,"time":1015.1783854166833,"velocity":0.84251968503937,"duration":0.4739583333334849},{"name":"G2","midi":43,"time":1015.1783854166833,"velocity":0.84251968503937,"duration":0.17708333333337123},{"name":"A2","midi":45,"time":1015.3567708333501,"velocity":0.84251968503937,"duration":0.17708333333337123},{"name":"B2","midi":47,"time":1015.5351562500168,"velocity":0.84251968503937,"duration":0.17708333333337123},{"name":"F5","midi":77,"time":1015.7135416666836,"velocity":0.84251968503937,"duration":0.17708333333337123},{"name":"D5","midi":74,"time":1015.7135416666836,"velocity":0.84251968503937,"duration":0.31119791666674246},{"name":"G#2","midi":44,"time":1015.7135416666836,"velocity":0.84251968503937,"duration":0.17708333333337123},{"name":"E5","midi":76,"time":1015.8919270833503,"velocity":0.84251968503937,"duration":0.17708333333337123},{"name":"A2","midi":45,"time":1015.8919270833503,"velocity":0.84251968503937,"duration":0.17708333333337123},{"name":"D5","midi":74,"time":1016.070312500017,"velocity":0.84251968503937,"duration":0.17708333333337123},{"name":"B2","midi":47,"time":1016.070312500017,"velocity":0.84251968503937,"duration":0.17708333333337123},{"name":"E5","midi":76,"time":1016.2486979166838,"velocity":0.84251968503937,"duration":0.17708333333337123},{"name":"A4","midi":69,"time":1016.2486979166838,"velocity":0.84251968503937,"duration":0.4739583333334849},{"name":"C#3","midi":49,"time":1016.2486979166838,"velocity":0.84251968503937,"duration":0.17708333333337123},{"name":"F5","midi":77,"time":1016.4270833333505,"velocity":0.84251968503937,"duration":0.17708333333337123},{"name":"D3","midi":50,"time":1016.4270833333505,"velocity":0.84251968503937,"duration":0.17708333333337123},{"name":"G5","midi":79,"time":1016.6054687500173,"velocity":0.84251968503937,"duration":0.17708333333337123},{"name":"E3","midi":52,"time":1016.6054687500173,"velocity":0.84251968503937,"duration":0.17708333333337123},{"name":"G5","midi":79,"time":1016.783854166684,"velocity":0.84251968503937,"duration":0.17708333333337123},{"name":"C#5","midi":73,"time":1016.783854166684,"velocity":0.84251968503937,"duration":0.4739583333334849},{"name":"A#2","midi":46,"time":1016.783854166684,"velocity":0.84251968503937,"duration":0.17708333333337123},{"name":"A5","midi":81,"time":1016.9622395833508,"velocity":0.84251968503937,"duration":0.17708333333337123},{"name":"A2","midi":45,"time":1016.9622395833508,"velocity":0.84251968503937,"duration":0.17708333333337123},{"name":"A#5","midi":82,"time":1017.1406250000175,"velocity":0.84251968503937,"duration":0.17708333333337123},{"name":"G2","midi":43,"time":1017.1406250000175,"velocity":0.84251968503937,"duration":0.17708333333337123},{"name":"D5","midi":74,"time":1017.3190104166843,"velocity":0.84251968503937,"duration":0.47395833333337123},{"name":"A5","midi":81,"time":1017.3190104166843,"velocity":0.84251968503937,"duration":6.613281250000568},{"name":"F3","midi":53,"time":1017.3190104166843,"velocity":0.84251968503937,"duration":0.47395833333337123},{"name":"A2","midi":45,"time":1017.4973958333509,"velocity":0.84251968503937,"duration":0.17708333333337123},{"name":"G#2","midi":44,"time":1017.6757812500176,"velocity":0.84251968503937,"duration":0.328125},{"name":"F#3","midi":54,"time":1017.8541666666843,"velocity":0.84251968503937,"duration":0.47526041666674246},{"name":"A#2","midi":46,"time":1018.0338541666843,"velocity":0.84251968503937,"duration":0.17708333333337123},{"name":"A2","midi":45,"time":1018.212239583351,"velocity":0.84251968503937,"duration":0.328125},{"name":"G3","midi":55,"time":1018.3906250000176,"velocity":0.84251968503937,"duration":0.47526041666674246},{"name":"A#2","midi":46,"time":1018.5703125000176,"velocity":0.84251968503937,"duration":0.17708333333337123},{"name":"A2","midi":45,"time":1018.7486979166844,"velocity":0.84251968503937,"duration":0.328125},{"name":"G#3","midi":56,"time":1018.927083333351,"velocity":0.84251968503937,"duration":0.47526041666674246},{"name":"C3","midi":48,"time":1019.106770833351,"velocity":0.84251968503937,"duration":0.17708333333337123},{"name":"B2","midi":47,"time":1019.2851562500177,"velocity":0.84251968503937,"duration":0.328125},{"name":"A3","midi":57,"time":1019.4635416666844,"velocity":0.84251968503937,"duration":0.47526041666674246},{"name":"C3","midi":48,"time":1019.6432291666844,"velocity":0.84251968503937,"duration":0.17708333333337123},{"name":"B2","midi":47,"time":1019.8216145833511,"velocity":0.84251968503937,"duration":0.328125},{"name":"E3","midi":52,"time":1020.0000000000177,"velocity":0.84251968503937,"duration":0.47526041666674246},{"name":"D3","midi":50,"time":1020.1796875000177,"velocity":0.84251968503937,"duration":0.17708333333337123},{"name":"C#3","midi":49,"time":1020.3580729166845,"velocity":0.84251968503937,"duration":0.328125},{"name":"A#3","midi":58,"time":1020.5364583333511,"velocity":0.84251968503937,"duration":0.47526041666674246},{"name":"D3","midi":50,"time":1020.7161458333511,"velocity":0.84251968503937,"duration":0.17708333333337123},{"name":"C#3","midi":49,"time":1020.8945312500178,"velocity":0.84251968503937,"duration":0.328125},{"name":"B3","midi":59,"time":1021.0729166666845,"velocity":0.84251968503937,"duration":0.47526041666674246},{"name":"E3","midi":52,"time":1021.2526041666845,"velocity":0.84251968503937,"duration":0.17708333333337123},{"name":"D#3","midi":51,"time":1021.4309895833512,"velocity":0.84251968503937,"duration":0.328125},{"name":"C4","midi":60,"time":1021.6093750000178,"velocity":0.84251968503937,"duration":0.47526041666674246},{"name":"E3","midi":52,"time":1021.7890625000178,"velocity":0.84251968503937,"duration":0.17708333333337123},{"name":"D#3","midi":51,"time":1021.9674479166846,"velocity":0.84251968503937,"duration":0.328125},{"name":"C#4","midi":61,"time":1022.1458333333512,"velocity":0.84251968503937,"duration":0.47526041666674246},{"name":"F3","midi":53,"time":1022.3255208333512,"velocity":0.84251968503937,"duration":0.17708333333337123},{"name":"E3","midi":52,"time":1022.503906250018,"velocity":0.84251968503937,"duration":0.328125},{"name":"D4","midi":62,"time":1022.6822916666846,"velocity":0.84251968503937,"duration":0.47526041666674246},{"name":"F3","midi":53,"time":1022.8619791666846,"velocity":0.84251968503937,"duration":0.17708333333337123},{"name":"E3","midi":52,"time":1023.0403645833513,"velocity":0.84251968503937,"duration":0.328125},{"name":"A3","midi":57,"time":1023.218750000018,"velocity":0.84251968503937,"duration":0.47526041666674246},{"name":"G3","midi":55,"time":1023.398437500018,"velocity":0.84251968503937,"duration":0.17708333333337123},{"name":"F#3","midi":54,"time":1023.5768229166847,"velocity":0.84251968503937,"duration":0.17708333333337123},{"name":"A#3","midi":58,"time":1023.7552083333514,"velocity":0.84251968503937,"duration":0.17708333333337123},{"name":"G3","midi":55,"time":1023.7552083333514,"velocity":0.84251968503937,"duration":0.47395833333325754},{"name":"A#5","midi":82,"time":1023.9335937500182,"velocity":0.84251968503937,"duration":0.17708333333325754},{"name":"C#4","midi":61,"time":1023.9335937500182,"velocity":0.84251968503937,"duration":0.17708333333325754},{"name":"A5","midi":81,"time":1024.1119791666847,"velocity":0.84251968503937,"duration":0.17708333333325754},{"name":"D4","midi":62,"time":1024.1119791666847,"velocity":0.84251968503937,"duration":0.3281249999997726},{"name":"G5","midi":79,"time":1024.2903645833512,"velocity":0.84251968503937,"duration":0.17708333333325754},{"name":"A#3","midi":58,"time":1024.2903645833512,"velocity":0.84251968503937,"duration":0.47395833333303017},{"name":"A#5","midi":82,"time":1024.4687500000177,"velocity":0.84251968503937,"duration":0.17708333333325754},{"name":"C#4","midi":61,"time":1024.4687500000177,"velocity":0.84251968503937,"duration":0.17708333333325754},{"name":"A5","midi":81,"time":1024.6471354166843,"velocity":0.84251968503937,"duration":0.17708333333325754},{"name":"D4","midi":62,"time":1024.6471354166843,"velocity":0.84251968503937,"duration":0.3281249999997726},{"name":"F5","midi":77,"time":1024.8255208333508,"velocity":0.84251968503937,"duration":0.17708333333325754},{"name":"A3","midi":57,"time":1024.8255208333508,"velocity":0.84251968503937,"duration":0.47395833333303017},{"name":"A#5","midi":82,"time":1025.0039062500173,"velocity":0.84251968503937,"duration":0.17708333333325754},{"name":"C#4","midi":61,"time":1025.0039062500173,"velocity":0.84251968503937,"duration":0.17708333333325754},{"name":"A5","midi":81,"time":1025.1822916666838,"velocity":0.84251968503937,"duration":0.17708333333325754},{"name":"D4","midi":62,"time":1025.1822916666838,"velocity":0.84251968503937,"duration":0.3281249999997726},{"name":"E5","midi":76,"time":1025.3606770833503,"velocity":0.84251968503937,"duration":0.17708333333325754},{"name":"G3","midi":55,"time":1025.3606770833503,"velocity":0.84251968503937,"duration":0.47395833333303017},{"name":"A#5","midi":82,"time":1025.5390625000168,"velocity":0.84251968503937,"duration":0.17708333333325754},{"name":"C#4","midi":61,"time":1025.5390625000168,"velocity":0.84251968503937,"duration":0.17708333333325754},{"name":"A5","midi":81,"time":1025.7174479166833,"velocity":0.84251968503937,"duration":0.17708333333325754},{"name":"D4","midi":62,"time":1025.7174479166833,"velocity":0.84251968503937,"duration":0.17708333333325754},{"name":"D5","midi":74,"time":1025.8958333333499,"velocity":0.84251968503937,"duration":0.17708333333325754},{"name":"F3","midi":53,"time":1025.8958333333499,"velocity":0.84251968503937,"duration":0.17708333333325754},{"name":"A#5","midi":82,"time":1026.0742187500164,"velocity":0.84251968503937,"duration":0.17708333333325754},{"name":"C#4","midi":61,"time":1026.0742187500164,"velocity":0.84251968503937,"duration":0.17708333333325754},{"name":"A5","midi":81,"time":1026.2526041666829,"velocity":0.84251968503937,"duration":0.17708333333325754},{"name":"D4","midi":62,"time":1026.2526041666829,"velocity":0.84251968503937,"duration":0.17708333333325754},{"name":"C#5","midi":73,"time":1026.4309895833494,"velocity":0.84251968503937,"duration":0.17708333333325754},{"name":"A#3","midi":58,"time":1026.4309895833494,"velocity":0.84251968503937,"duration":0.17708333333325754},{"name":"D5","midi":74,"time":1026.609375000016,"velocity":0.84251968503937,"duration":0.17708333333325754},{"name":"A3","midi":57,"time":1026.609375000016,"velocity":0.84251968503937,"duration":0.17708333333325754},{"name":"E5","midi":76,"time":1026.7877604166824,"velocity":0.84251968503937,"duration":0.17708333333325754},{"name":"G3","midi":55,"time":1026.7877604166824,"velocity":0.84251968503937,"duration":0.17708333333325754},{"name":"F5","midi":77,"time":1026.966145833349,"velocity":0.84251968503937,"duration":0.17708333333325754},{"name":"F3","midi":53,"time":1026.966145833349,"velocity":0.84251968503937,"duration":0.17708333333325754},{"name":"G5","midi":79,"time":1027.1445312500155,"velocity":0.84251968503937,"duration":0.17708333333325754},{"name":"E3","midi":52,"time":1027.1445312500155,"velocity":0.84251968503937,"duration":0.17708333333325754},{"name":"A5","midi":81,"time":1027.322916666682,"velocity":0.84251968503937,"duration":0.17708333333325754},{"name":"D3","midi":50,"time":1027.322916666682,"velocity":0.84251968503937,"duration":0.17708333333325754},{"name":"D#5","midi":75,"time":1027.5013020833485,"velocity":0.84251968503937,"duration":0.17708333333325754},{"name":"G3","midi":55,"time":1027.5013020833485,"velocity":0.84251968503937,"duration":0.17708333333325754},{"name":"D5","midi":74,"time":1027.679687500015,"velocity":0.84251968503937,"duration":0.17708333333325754},{"name":"A3","midi":57,"time":1027.679687500015,"velocity":0.84251968503937,"duration":0.17708333333325754},{"name":"C#5","midi":73,"time":1027.8580729166815,"velocity":0.84251968503937,"duration":0.17708333333325754},{"name":"A#3","midi":58,"time":1027.8580729166815,"velocity":0.84251968503937,"duration":0.17708333333325754},{"name":"D5","midi":74,"time":1028.036458333348,"velocity":0.84251968503937,"duration":0.17708333333325754},{"name":"A3","midi":57,"time":1028.036458333348,"velocity":0.84251968503937,"duration":0.17708333333325754},{"name":"C#5","midi":73,"time":1028.2148437500146,"velocity":0.84251968503937,"duration":0.17708333333325754},{"name":"A#3","midi":58,"time":1028.2148437500146,"velocity":0.84251968503937,"duration":0.17708333333325754},{"name":"D5","midi":74,"time":1028.393229166681,"velocity":0.84251968503937,"duration":0.17708333333325754},{"name":"A3","midi":57,"time":1028.393229166681,"velocity":0.84251968503937,"duration":0.17708333333325754},{"name":"E4","midi":64,"time":1028.5716145833476,"velocity":0.84251968503937,"duration":0.17708333333325754},{"name":"G3","midi":55,"time":1028.5716145833476,"velocity":0.84251968503937,"duration":0.17708333333325754},{"name":"C#5","midi":73,"time":1028.750000000014,"velocity":0.84251968503937,"duration":0.17708333333325754},{"name":"A#3","midi":58,"time":1028.750000000014,"velocity":0.84251968503937,"duration":0.17708333333325754},{"name":"D5","midi":74,"time":1028.9283854166806,"velocity":0.84251968503937,"duration":0.17708333333325754},{"name":"A3","midi":57,"time":1028.9283854166806,"velocity":0.84251968503937,"duration":0.17708333333325754},{"name":"F4","midi":65,"time":1029.1067708333471,"velocity":0.84251968503937,"duration":0.17708333333325754},{"name":"F3","midi":53,"time":1029.1067708333471,"velocity":0.84251968503937,"duration":0.17708333333325754},{"name":"C#5","midi":73,"time":1029.2851562500136,"velocity":0.84251968503937,"duration":0.17708333333325754},{"name":"A#3","midi":58,"time":1029.2851562500136,"velocity":0.84251968503937,"duration":0.17708333333325754},{"name":"D5","midi":74,"time":1029.4635416666802,"velocity":0.84251968503937,"duration":0.17708333333325754},{"name":"A3","midi":57,"time":1029.4635416666802,"velocity":0.84251968503937,"duration":0.17708333333325754},{"name":"G4","midi":67,"time":1029.6419270833467,"velocity":0.84251968503937,"duration":0.17708333333325754},{"name":"E3","midi":52,"time":1029.6419270833467,"velocity":0.84251968503937,"duration":0.17708333333325754},{"name":"C#5","midi":73,"time":1029.8203125000132,"velocity":0.84251968503937,"duration":0.17708333333325754},{"name":"A#3","midi":58,"time":1029.8203125000132,"velocity":0.84251968503937,"duration":0.17708333333325754},{"name":"D5","midi":74,"time":1029.9986979166797,"velocity":0.84251968503937,"duration":0.17708333333325754},{"name":"A3","midi":57,"time":1029.9986979166797,"velocity":0.84251968503937,"duration":0.17708333333325754},{"name":"A4","midi":69,"time":1030.1770833333462,"velocity":0.84251968503937,"duration":0.17708333333325754},{"name":"D3","midi":50,"time":1030.1770833333462,"velocity":0.84251968503937,"duration":0.17708333333325754},{"name":"C#5","midi":73,"time":1030.3554687500127,"velocity":0.84251968503937,"duration":0.17708333333325754},{"name":"A#3","midi":58,"time":1030.3554687500127,"velocity":0.84251968503937,"duration":0.17708333333325754},{"name":"D5","midi":74,"time":1030.5338541666792,"velocity":0.84251968503937,"duration":0.17708333333325754},{"name":"A3","midi":57,"time":1030.5338541666792,"velocity":0.84251968503937,"duration":0.17708333333325754},{"name":"A#4","midi":70,"time":1030.7122395833458,"velocity":0.84251968503937,"duration":0.17708333333325754},{"name":"C#3","midi":49,"time":1030.7122395833458,"velocity":0.84251968503937,"duration":0.17708333333325754},{"name":"A4","midi":69,"time":1030.8906250000123,"velocity":0.84251968503937,"duration":0.17708333333325754},{"name":"D3","midi":50,"time":1030.8906250000123,"velocity":0.84251968503937,"duration":0.17708333333325754},{"name":"G4","midi":67,"time":1031.0690104166788,"velocity":0.84251968503937,"duration":0.17708333333325754},{"name":"E3","midi":52,"time":1031.0690104166788,"velocity":0.84251968503937,"duration":0.17708333333325754},{"name":"F4","midi":65,"time":1031.2473958333453,"velocity":0.84251968503937,"duration":0.17708333333325754},{"name":"F3","midi":53,"time":1031.2473958333453,"velocity":0.84251968503937,"duration":0.17708333333325754},{"name":"E4","midi":64,"time":1031.4257812500118,"velocity":0.84251968503937,"duration":0.17708333333325754},{"name":"G3","midi":55,"time":1031.4257812500118,"velocity":0.84251968503937,"duration":0.17708333333325754},{"name":"D4","midi":62,"time":1031.6041666666783,"velocity":0.84251968503937,"duration":0.17708333333325754},{"name":"A3","midi":57,"time":1031.6041666666783,"velocity":0.84251968503937,"duration":0.17708333333325754},{"name":"F5","midi":77,"time":1031.7825520833449,"velocity":0.84251968503937,"duration":0.17708333333325754},{"name":"B3","midi":59,"time":1031.7825520833449,"velocity":0.84251968503937,"duration":0.17708333333325754},{"name":"E5","midi":76,"time":1031.9609375000114,"velocity":0.84251968503937,"duration":0.17708333333325754},{"name":"C#4","midi":61,"time":1031.9609375000114,"velocity":0.84251968503937,"duration":0.17708333333325754},{"name":"D5","midi":74,"time":1032.1393229166779,"velocity":0.84251968503937,"duration":0.17708333333325754},{"name":"D4","midi":62,"time":1032.1393229166779,"velocity":0.84251968503937,"duration":0.17708333333325754},{"name":"C#5","midi":73,"time":1032.3177083333444,"velocity":0.84251968503937,"duration":0.17708333333325754},{"name":"E4","midi":64,"time":1032.3177083333444,"velocity":0.84251968503937,"duration":0.17708333333325754},{"name":"B4","midi":71,"time":1032.496093750011,"velocity":0.84251968503937,"duration":0.17708333333325754},{"name":"F4","midi":65,"time":1032.496093750011,"velocity":0.84251968503937,"duration":0.17708333333325754},{"name":"A4","midi":69,"time":1032.6744791666774,"velocity":0.84251968503937,"duration":0.17708333333325754},{"name":"G4","midi":67,"time":1032.6744791666774,"velocity":0.84251968503937,"duration":0.17708333333325754},{"name":"A#5","midi":82,"time":1032.852864583344,"velocity":0.84251968503937,"duration":0.17708333333325754},{"name":"A4","midi":69,"time":1032.852864583344,"velocity":0.84251968503937,"duration":0.17708333333325754},{"name":"A5","midi":81,"time":1033.0312500000105,"velocity":0.84251968503937,"duration":0.17708333333325754},{"name":"B4","midi":71,"time":1033.0312500000105,"velocity":0.84251968503937,"duration":0.17708333333325754},{"name":"G5","midi":79,"time":1033.209635416677,"velocity":0.84251968503937,"duration":0.17708333333325754},{"name":"C#5","midi":73,"time":1033.209635416677,"velocity":0.84251968503937,"duration":0.17708333333325754},{"name":"F5","midi":77,"time":1033.3880208333435,"velocity":0.84251968503937,"duration":0.17708333333325754},{"name":"D5","midi":74,"time":1033.3880208333435,"velocity":0.84251968503937,"duration":0.3281249999997726},{"name":"E5","midi":76,"time":1033.56640625001,"velocity":0.84251968503937,"duration":0.17708333333325754},{"name":"D5","midi":74,"time":1033.7447916666765,"velocity":0.84251968503937,"duration":0.17708333333325754},{"name":"C5","midi":72,"time":1033.7447916666765,"velocity":0.84251968503937,"duration":0.17708333333325754},{"name":"G5","midi":79,"time":1033.923177083343,"velocity":0.84251968503937,"duration":0.17708333333325754},{"name":"A#4","midi":70,"time":1033.923177083343,"velocity":0.84251968503937,"duration":0.17708333333325754},{"name":"A5","midi":81,"time":1034.1015625000095,"velocity":0.84251968503937,"duration":0.17708333333325754},{"name":"A4","midi":69,"time":1034.1015625000095,"velocity":0.84251968503937,"duration":0.17708333333325754},{"name":"A#5","midi":82,"time":1034.279947916676,"velocity":0.84251968503937,"duration":0.3281249999997726},{"name":"G4","midi":67,"time":1034.279947916676,"velocity":0.84251968503937,"duration":0.17708333333325754},{"name":"C#5","midi":73,"time":1034.4583333333426,"velocity":0.84251968503937,"duration":0.4752604166665151},{"name":"A4","midi":69,"time":1034.4583333333426,"velocity":0.84251968503937,"duration":1.0716145833330302},{"name":"A5","midi":81,"time":1034.6380208333426,"velocity":0.84251968503937,"duration":0.17708333333325754},{"name":"A#5","midi":82,"time":1034.816406250009,"velocity":0.84251968503937,"duration":0.328125},{"name":"C5","midi":72,"time":1034.9947916666758,"velocity":0.84251968503937,"duration":0.4752604166665151},{"name":"G#5","midi":80,"time":1035.1744791666758,"velocity":0.84251968503937,"duration":0.17708333333325754},{"name":"A5","midi":81,"time":1035.3528645833424,"velocity":0.84251968503937,"duration":0.3281249999997726},{"name":"B4","midi":71,"time":1035.5312500000089,"velocity":0.84251968503937,"duration":0.4752604166665151},{"name":"A3","midi":57,"time":1035.5312500000089,"velocity":0.84251968503937,"duration":1.0716145833330302},{"name":"G#5","midi":80,"time":1035.7109375000089,"velocity":0.84251968503937,"duration":0.17708333333325754},{"name":"A5","midi":81,"time":1035.8893229166754,"velocity":0.84251968503937,"duration":0.328125},{"name":"A#4","midi":70,"time":1036.0677083333421,"velocity":0.84251968503937,"duration":0.4752604166665151},{"name":"F#5","midi":78,"time":1036.2473958333421,"velocity":0.84251968503937,"duration":0.17708333333325754},{"name":"G5","midi":79,"time":1036.4257812500086,"velocity":0.84251968503937,"duration":0.3281249999997726},{"name":"A4","midi":69,"time":1036.6041666666752,"velocity":0.84251968503937,"duration":0.4752604166665151},{"name":"A2","midi":45,"time":1036.6041666666752,"velocity":0.84251968503937,"duration":4.290364583332575},{"name":"F#5","midi":78,"time":1036.7838541666752,"velocity":0.84251968503937,"duration":0.17708333333325754},{"name":"G5","midi":79,"time":1036.9622395833417,"velocity":0.84251968503937,"duration":0.328125},{"name":"D5","midi":74,"time":1037.1406250000084,"velocity":0.84251968503937,"duration":0.4752604166665151},{"name":"E5","midi":76,"time":1037.3203125000084,"velocity":0.84251968503937,"duration":0.17708333333325754},{"name":"F5","midi":77,"time":1037.498697916675,"velocity":0.84251968503937,"duration":0.328125},{"name":"G#4","midi":68,"time":1037.6770833333417,"velocity":0.84251968503937,"duration":0.4752604166665151},{"name":"E5","midi":76,"time":1037.8567708333417,"velocity":0.84251968503937,"duration":0.17708333333325754},{"name":"F5","midi":77,"time":1038.0351562500082,"velocity":0.84251968503937,"duration":0.328125},{"name":"G4","midi":67,"time":1038.213541666675,"velocity":0.84251968503937,"duration":0.4752604166665151},{"name":"D5","midi":74,"time":1038.393229166675,"velocity":0.84251968503937,"duration":0.17708333333325754},{"name":"D#5","midi":75,"time":1038.5716145833414,"velocity":0.84251968503937,"duration":0.328125},{"name":"F#4","midi":66,"time":1038.7500000000082,"velocity":0.84251968503937,"duration":0.4752604166665151},{"name":"D5","midi":74,"time":1038.9296875000082,"velocity":0.84251968503937,"duration":0.17708333333325754},{"name":"D#5","midi":75,"time":1039.1080729166747,"velocity":0.84251968503937,"duration":0.328125},{"name":"F4","midi":65,"time":1039.2864583333414,"velocity":0.84251968503937,"duration":0.4752604166665151},{"name":"C#5","midi":73,"time":1039.4661458333414,"velocity":0.84251968503937,"duration":0.17708333333325754},{"name":"D5","midi":74,"time":1039.644531250008,"velocity":0.84251968503937,"duration":0.328125},{"name":"E4","midi":64,"time":1039.8229166666747,"velocity":0.84251968503937,"duration":0.4752604166665151},{"name":"C#5","midi":73,"time":1040.0026041666747,"velocity":0.84251968503937,"duration":0.17708333333325754},{"name":"D5","midi":74,"time":1040.1809895833412,"velocity":0.84251968503937,"duration":0.328125},{"name":"G4","midi":67,"time":1040.359375000008,"velocity":0.84251968503937,"duration":0.7187499999997726},{"name":"B4","midi":71,"time":1040.539062500008,"velocity":0.84251968503937,"duration":0.17708333333325754},{"name":"C#5","midi":73,"time":1040.7174479166745,"velocity":0.84251968503937,"duration":0.17708333333325754},{"name":"D5","midi":74,"time":1040.895833333341,"velocity":0.84251968503937,"duration":2.2005208333332575},{"name":"D3","midi":50,"time":1040.895833333341,"velocity":0.84251968503937,"duration":0.18229166666674246},{"name":"F#4","midi":66,"time":1041.079427083341,"velocity":0.84251968503937,"duration":0.18229166666674246},{"name":"D#3","midi":51,"time":1041.079427083341,"velocity":0.84251968503937,"duration":0.18229166666674246},{"name":"G4","midi":67,"time":1041.263020833341,"velocity":0.84251968503937,"duration":0.18229166666674246},{"name":"D3","midi":50,"time":1041.263020833341,"velocity":0.84251968503937,"duration":0.18229166666674246},{"name":"A4","midi":69,"time":1041.446614583341,"velocity":0.84251968503937,"duration":0.18229166666674246},{"name":"C3","midi":48,"time":1041.446614583341,"velocity":0.84251968503937,"duration":0.18229166666674246},{"name":"F#4","midi":66,"time":1041.630208333341,"velocity":0.84251968503937,"duration":0.18229166666674246},{"name":"D#3","midi":51,"time":1041.630208333341,"velocity":0.84251968503937,"duration":0.18229166666674246},{"name":"G4","midi":67,"time":1041.813802083341,"velocity":0.84251968503937,"duration":0.18229166666674246},{"name":"D3","midi":50,"time":1041.813802083341,"velocity":0.84251968503937,"duration":0.18229166666674246},{"name":"A#4","midi":70,"time":1041.997395833341,"velocity":0.84251968503937,"duration":0.18229166666674246},{"name":"A#2","midi":46,"time":1041.997395833341,"velocity":0.84251968503937,"duration":0.18229166666674246},{"name":"F#4","midi":66,"time":1042.180989583341,"velocity":0.84251968503937,"duration":0.18229166666674246},{"name":"D#3","midi":51,"time":1042.180989583341,"velocity":0.84251968503937,"duration":0.18229166666674246},{"name":"G4","midi":67,"time":1042.364583333341,"velocity":0.84251968503937,"duration":0.18229166666674246},{"name":"D3","midi":50,"time":1042.364583333341,"velocity":0.84251968503937,"duration":0.18229166666674246},{"name":"C5","midi":72,"time":1042.548177083341,"velocity":0.84251968503937,"duration":0.18229166666674246},{"name":"A2","midi":45,"time":1042.548177083341,"velocity":0.84251968503937,"duration":0.18229166666674246},{"name":"F#4","midi":66,"time":1042.731770833341,"velocity":0.84251968503937,"duration":0.18229166666674246},{"name":"D#3","midi":51,"time":1042.731770833341,"velocity":0.84251968503937,"duration":0.18229166666674246},{"name":"G4","midi":67,"time":1042.915364583341,"velocity":0.84251968503937,"duration":0.18229166666651508},{"name":"D3","midi":50,"time":1042.915364583341,"velocity":0.84251968503937,"duration":0.18229166666651508},{"name":"D5","midi":74,"time":1043.0989583333408,"velocity":0.84251968503937,"duration":0.1875},{"name":"G2","midi":43,"time":1043.0989583333408,"velocity":0.84251968503937,"duration":0.1875},{"name":"A4","midi":69,"time":1043.287760416674,"velocity":0.84251968503937,"duration":0.1875},{"name":"D#3","midi":51,"time":1043.287760416674,"velocity":0.84251968503937,"duration":0.1875},{"name":"A#4","midi":70,"time":1043.4765625000073,"velocity":0.84251968503937,"duration":0.1875},{"name":"D3","midi":50,"time":1043.4765625000073,"velocity":0.84251968503937,"duration":0.1875},{"name":"C5","midi":72,"time":1043.6653645833405,"velocity":0.84251968503937,"duration":0.1875},{"name":"F#2","midi":42,"time":1043.6653645833405,"velocity":0.84251968503937,"duration":0.1875},{"name":"A#4","midi":70,"time":1043.8541666666738,"velocity":0.84251968503937,"duration":0.1875},{"name":"G2","midi":43,"time":1043.8541666666738,"velocity":0.84251968503937,"duration":0.1875},{"name":"A4","midi":69,"time":1044.042968750007,"velocity":0.84251968503937,"duration":0.1875},{"name":"A2","midi":45,"time":1044.042968750007,"velocity":0.84251968503937,"duration":0.1875},{"name":"G4","midi":67,"time":1044.2317708333403,"velocity":0.84251968503937,"duration":0.21744791666674246},{"name":"A#2","midi":46,"time":1044.2317708333403,"velocity":0.84251968503937,"duration":0.21744791666674246},{"name":"G2","midi":43,"time":1044.4713541666738,"velocity":0.84251968503937,"duration":0.21744791666674246},{"name":"A#4","midi":70,"time":1044.4713541666738,"velocity":0.84251968503937,"duration":0.21744791666674246},{"name":"E4","midi":64,"time":1044.7278645833405,"velocity":0.84251968503937,"duration":0.25},{"name":"C#3","midi":49,"time":1044.7278645833405,"velocity":0.84251968503937,"duration":0.24869791666674246},{"name":"D2","midi":38,"time":1045.0742187500073,"velocity":0.84251968503937,"duration":2.8645833333332575},{"name":"F#4","midi":66,"time":1045.0742187500073,"velocity":0.84251968503937,"duration":2.8645833333332575},{"name":"D4","midi":62,"time":1045.0742187500073,"velocity":0.84251968503937,"duration":2.8645833333332575}],"controlChanges":{"7":[{"number":7,"time":0,"value":0.7874015748031497}]},"id":1,"name":"Piano 1","instrumentNumber":6,"instrument":"harpsichord","instrumentFamily":"piano","channelNumber":0,"isPercussion":false}]}