{"header":{"PPQ":240,"timeSignature":[2,4],"bpm":100,"name":"--------"},"startTime":0,"duration":99.60000000000093,"tracks":[{"startTime":0,"duration":0,"length":0,"notes":[],"controlChanges":{},"id":0,"name":"--------"},{"startTime":5.1,"duration":99.60000000000005,"length":334,"notes":[{"name":"C5","midi":72,"time":5.1,"velocity":0.5905511811023622,"duration":0.15000000000000036},{"name":"B4","midi":71,"time":5.25,"velocity":0.5905511811023622,"duration":0.15000000000000036},{"name":"C5","midi":72,"time":5.4,"velocity":0.5905511811023622,"duration":0.14749999999999996},{"name":"G4","midi":67,"time":5.7,"velocity":0.5905511811023622,"duration":0.14749999999999996},{"name":"E5","midi":76,"time":6,"velocity":0.5905511811023622,"duration":0.07499999999999929},{"name":"D5","midi":74,"time":6.06,"velocity":0.5905511811023622,"duration":0.07499999999999929},{"name":"E5","midi":76,"time":6.149999999999999,"velocity":0.5905511811023622,"duration":0.4500000000000002},{"name":"D5","midi":74,"time":6.599999999999999,"velocity":0.5905511811023622,"duration":0.8999999999999995},{"name":"C5","midi":72,"time":7.499999999999998,"velocity":0.5905511811023622,"duration":0.15000000000000036},{"name":"B4","midi":71,"time":7.649999999999999,"velocity":0.5905511811023622,"duration":0.15000000000000036},{"name":"C5","midi":72,"time":7.799999999999999,"velocity":0.5905511811023622,"duration":0.15000000000000036},{"name":"D5","midi":74,"time":7.949999999999999,"velocity":0.5905511811023622,"duration":0.15000000000000036},{"name":"B4","midi":71,"time":8.1,"velocity":0.5905511811023622,"duration":0.15000000000000036},{"name":"C5","midi":72,"time":8.25,"velocity":0.5905511811023622,"duration":0.15000000000000036},{"name":"A4","midi":69,"time":8.4,"velocity":0.5905511811023622,"duration":0.15000000000000036},{"name":"C5","midi":72,"time":8.55,"velocity":0.5905511811023622,"duration":0.15000000000000036},{"name":"B4","midi":71,"time":8.700000000000001,"velocity":0.5905511811023622,"duration":0.15000000000000036},{"name":"C5","midi":72,"time":8.850000000000001,"velocity":0.5905511811023622,"duration":0.15000000000000036},{"name":"D5","midi":74,"time":9.000000000000002,"velocity":0.5905511811023622,"duration":0.15000000000000036},{"name":"E5","midi":76,"time":9.150000000000002,"velocity":0.5905511811023622,"duration":0.15000000000000036},{"name":"C5","midi":72,"time":9.300000000000002,"velocity":0.5905511811023622,"duration":0.15000000000000036},{"name":"D5","midi":74,"time":9.450000000000003,"velocity":0.5905511811023622,"duration":0.15000000000000036},{"name":"B4","midi":71,"time":9.600000000000003,"velocity":0.5905511811023622,"duration":0.15000000000000036},{"name":"A4","midi":69,"time":9.750000000000004,"velocity":0.5905511811023622,"duration":0.15000000000000036},{"name":"B4","midi":71,"time":9.900000000000004,"velocity":0.5905511811023622,"duration":0.15000000000000036},{"name":"C5","midi":72,"time":10.050000000000004,"velocity":0.5905511811023622,"duration":0.15000000000000036},{"name":"B4","midi":71,"time":10.200000000000005,"velocity":0.5905511811023622,"duration":0.15000000000000036},{"name":"C5","midi":72,"time":10.350000000000005,"velocity":0.5905511811023622,"duration":0.15000000000000036},{"name":"A4","midi":69,"time":10.500000000000005,"velocity":0.5905511811023622,"duration":0.15000000000000036},{"name":"B4","midi":71,"time":10.650000000000006,"velocity":0.5905511811023622,"duration":0.15000000000000036},{"name":"C5","midi":72,"time":10.800000000000006,"velocity":0.5905511811023622,"duration":0.4499999999999993},{"name":"A4","midi":69,"time":11.250000000000005,"velocity":0.5905511811023622,"duration":0.15000000000000036},{"name":"A#4","midi":70,"time":11.400000000000006,"velocity":0.5905511811023622,"duration":0.4499999999999993},{"name":"G4","midi":67,"time":11.850000000000005,"velocity":0.5905511811023622,"duration":0.15000000000000036},{"name":"A4","midi":69,"time":12.000000000000005,"velocity":0.5905511811023622,"duration":0.5999999999999996},{"name":"B4","midi":71,"time":12.600000000000005,"velocity":0.5905511811023622,"duration":0.3000000000000007},{"name":"C5","midi":72,"time":12.900000000000006,"velocity":0.5905511811023622,"duration":0.5999999999999996},{"name":"C5","midi":72,"time":13.500000000000005,"velocity":0.5905511811023622,"duration":0.5999999999999996},{"name":"B4","midi":71,"time":14.100000000000005,"velocity":0.5905511811023622,"duration":0.3000000000000007},{"name":"C5","midi":72,"time":14.400000000000006,"velocity":0.5905511811023622,"duration":0.3000000000000007},{"name":"G5","midi":79,"time":14.700000000000006,"velocity":0.5905511811023622,"duration":0.15000000000000036},{"name":"F5","midi":77,"time":14.850000000000007,"velocity":0.5905511811023622,"duration":0.15000000000000036},{"name":"G5","midi":79,"time":15.000000000000007,"velocity":0.5905511811023622,"duration":0.14750000000000085},{"name":"C5","midi":72,"time":15.300000000000008,"velocity":0.5905511811023622,"duration":0.14750000000000085},{"name":"A5","midi":81,"time":15.600000000000009,"velocity":0.5905511811023622,"duration":0.6000000000000014},{"name":"G5","midi":79,"time":16.20000000000001,"velocity":0.5905511811023622,"duration":0.6000000000000014},{"name":"F#5","midi":78,"time":16.80000000000001,"velocity":0.5905511811023622,"duration":0.3000000000000007},{"name":"A5","midi":81,"time":17.100000000000012,"velocity":0.5905511811023622,"duration":0.14999999999999858},{"name":"G5","midi":79,"time":17.25000000000001,"velocity":0.5905511811023622,"duration":0.14999999999999858},{"name":"A5","midi":81,"time":17.40000000000001,"velocity":0.5905511811023622,"duration":0.14750000000000085},{"name":"D5","midi":74,"time":17.70000000000001,"velocity":0.5905511811023622,"duration":0.14750000000000085},{"name":"B5","midi":83,"time":18.00000000000001,"velocity":0.5905511811023622,"duration":0.6000000000000014},{"name":"A5","midi":81,"time":18.600000000000012,"velocity":0.5905511811023622,"duration":0.6000000000000014},{"name":"G#5","midi":80,"time":19.200000000000014,"velocity":0.5905511811023622,"duration":0.3000000000000007},{"name":"B5","midi":83,"time":19.500000000000014,"velocity":0.5905511811023622,"duration":0.14999999999999858},{"name":"A5","midi":81,"time":19.650000000000013,"velocity":0.5905511811023622,"duration":0.14999999999999858},{"name":"B5","midi":83,"time":19.80000000000001,"velocity":0.5905511811023622,"duration":0.14750000000000085},{"name":"E5","midi":76,"time":20.100000000000012,"velocity":0.5905511811023622,"duration":0.14750000000000085},{"name":"C6","midi":84,"time":20.400000000000013,"velocity":0.5905511811023622,"duration":1.5},{"name":"C6","midi":84,"time":21.900000000000013,"velocity":0.5905511811023622,"duration":0.3000000000000007},{"name":"B5","midi":83,"time":22.200000000000014,"velocity":0.5905511811023622,"duration":0.3000000000000007},{"name":"G5","midi":79,"time":22.500000000000014,"velocity":0.5905511811023622,"duration":0.3000000000000007},{"name":"E5","midi":76,"time":22.800000000000015,"velocity":0.5905511811023622,"duration":0.6000000000000014},{"name":"F#5","midi":78,"time":23.400000000000016,"velocity":0.5905511811023622,"duration":0.3000000000000007},{"name":"G5","midi":79,"time":23.700000000000017,"velocity":0.5905511811023622,"duration":0.6000000000000014},{"name":"F#5","midi":78,"time":24.30000000000002,"velocity":0.5905511811023622,"duration":0.14999999999999858},{"name":"E5","midi":76,"time":24.450000000000017,"velocity":0.5905511811023622,"duration":0.14999999999999858},{"name":"G5","midi":79,"time":24.600000000000016,"velocity":0.5905511811023622,"duration":0.11499999999999844},{"name":"F#5","midi":78,"time":24.695000000000014,"velocity":0.5905511811023622,"duration":0.08000000000000185},{"name":"G5","midi":79,"time":24.760000000000016,"velocity":0.5905511811023622,"duration":0.07250000000000156},{"name":"F#5","midi":78,"time":24.805000000000017,"velocity":0.5905511811023622,"duration":0.07249999999999801},{"name":"G5","midi":79,"time":24.865000000000016,"velocity":0.5905511811023622,"duration":0.07250000000000156},{"name":"F#5","midi":78,"time":24.915000000000017,"velocity":0.5905511811023622,"duration":0.14000000000000057},{"name":"G5","midi":79,"time":25.05000000000002,"velocity":0.5905511811023622,"duration":0.1474999999999973},{"name":"G5","midi":79,"time":25.200000000000017,"velocity":0.5905511811023622,"duration":0.3000000000000007},{"name":"E5","midi":76,"time":25.500000000000018,"velocity":0.5905511811023622,"duration":0.3000000000000007},{"name":"C#5","midi":73,"time":25.80000000000002,"velocity":0.5905511811023622,"duration":0.3000000000000007},{"name":"D5","midi":74,"time":26.10000000000002,"velocity":0.5905511811023622,"duration":0.4499999999999993},{"name":"G5","midi":79,"time":26.55000000000002,"velocity":0.5905511811023622,"duration":0.14999999999999858},{"name":"A#5","midi":82,"time":26.700000000000017,"velocity":0.5905511811023622,"duration":0.14999999999999858},{"name":"A5","midi":81,"time":26.850000000000016,"velocity":0.5905511811023622,"duration":0.14999999999999858},{"name":"G5","midi":79,"time":27.000000000000014,"velocity":0.5905511811023622,"duration":0.14999999999999858},{"name":"F5","midi":77,"time":27.150000000000013,"velocity":0.5905511811023622,"duration":0.14999999999999858},{"name":"E5","midi":76,"time":27.30000000000001,"velocity":0.5905511811023622,"duration":0.14999999999999858},{"name":"D5","midi":74,"time":27.45000000000001,"velocity":0.5905511811023622,"duration":0.14999999999999858},{"name":"C#5","midi":73,"time":27.60000000000001,"velocity":0.5905511811023622,"duration":0.3000000000000007},{"name":"D5","midi":74,"time":27.90000000000001,"velocity":0.5905511811023622,"duration":0.6000000000000014},{"name":"C#5","midi":73,"time":28.50000000000001,"velocity":0.5905511811023622,"duration":0.3000000000000007},{"name":"D5","midi":74,"time":29.100000000000012,"velocity":0.5905511811023622,"duration":0.14999999999999858},{"name":"C#5","midi":73,"time":29.25000000000001,"velocity":0.5905511811023622,"duration":0.14999999999999858},{"name":"D5","midi":74,"time":29.40000000000001,"velocity":0.5905511811023622,"duration":0.14750000000000085},{"name":"A4","midi":69,"time":29.70000000000001,"velocity":0.5905511811023622,"duration":0.14750000000000085},{"name":"F5","midi":77,"time":30.00000000000001,"velocity":0.5905511811023622,"duration":0.07250000000000156},{"name":"E5","midi":76,"time":30.075000000000014,"velocity":0.5905511811023622,"duration":0.07250000000000156},{"name":"F5","midi":77,"time":30.150000000000016,"velocity":0.5905511811023622,"duration":0.44750000000000156},{"name":"E5","midi":76,"time":30.60000000000002,"velocity":0.5905511811023622,"duration":0.6000000000000014},{"name":"D5","midi":74,"time":31.50000000000002,"velocity":0.5905511811023622,"duration":0.14999999999999858},{"name":"C5","midi":72,"time":31.65000000000002,"velocity":0.5905511811023622,"duration":0.14999999999999858},{"name":"D5","midi":74,"time":31.80000000000002,"velocity":0.5905511811023622,"duration":0.14999999999999858},{"name":"E5","midi":76,"time":31.950000000000017,"velocity":0.5905511811023622,"duration":0.14999999999999858},{"name":"C5","midi":72,"time":32.100000000000016,"velocity":0.5905511811023622,"duration":0.14999999999999858},{"name":"D5","midi":74,"time":32.250000000000014,"velocity":0.5905511811023622,"duration":0.14999999999999858},{"name":"B4","midi":71,"time":32.40000000000001,"velocity":0.5905511811023622,"duration":0.14999999999999858},{"name":"D5","midi":74,"time":32.55000000000001,"velocity":0.5905511811023622,"duration":0.14999999999999858},{"name":"C5","midi":72,"time":32.70000000000001,"velocity":0.5905511811023622,"duration":0.14999999999999858},{"name":"D5","midi":74,"time":32.85000000000001,"velocity":0.5905511811023622,"duration":0.14999999999999858},{"name":"E5","midi":76,"time":33.00000000000001,"velocity":0.5905511811023622,"duration":0.14999999999999858},{"name":"F5","midi":77,"time":33.150000000000006,"velocity":0.5905511811023622,"duration":0.14999999999999858},{"name":"D5","midi":74,"time":33.300000000000004,"velocity":0.5905511811023622,"duration":0.14999999999999858},{"name":"E5","midi":76,"time":33.45,"velocity":0.5905511811023622,"duration":0.14999999999999858},{"name":"C5","midi":72,"time":33.6,"velocity":0.5905511811023622,"duration":0.29999999999999716},{"name":"E5","midi":76,"time":33.9,"velocity":0.5905511811023622,"duration":0.14999999999999858},{"name":"D5","midi":74,"time":34.05,"velocity":0.5905511811023622,"duration":0.14999999999999858},{"name":"E5","midi":76,"time":34.199999999999996,"velocity":0.5905511811023622,"duration":0.2224999999999966},{"name":"C5","midi":72,"time":34.49999999999999,"velocity":0.5905511811023622,"duration":0.2224999999999966},{"name":"A5","midi":81,"time":34.79999999999999,"velocity":0.5905511811023622,"duration":0.2224999999999966},{"name":"C5","midi":72,"time":35.09999999999999,"velocity":0.5905511811023622,"duration":0.2224999999999966},{"name":"A4","midi":69,"time":35.399999999999984,"velocity":0.5905511811023622,"duration":0.2224999999999966},{"name":"D5","midi":74,"time":35.69999999999998,"velocity":0.5905511811023622,"duration":0.2224999999999966},{"name":"B4","midi":71,"time":35.99999999999998,"velocity":0.5905511811023622,"duration":0.29999999999999716},{"name":"D5","midi":74,"time":36.299999999999976,"velocity":0.5905511811023622,"duration":0.14999999999999858},{"name":"C5","midi":72,"time":36.449999999999974,"velocity":0.5905511811023622,"duration":0.14999999999999858},{"name":"D5","midi":74,"time":36.59999999999997,"velocity":0.5905511811023622,"duration":0.2224999999999966},{"name":"B4","midi":71,"time":36.89999999999997,"velocity":0.5905511811023622,"duration":0.2224999999999966},{"name":"G5","midi":79,"time":37.19999999999997,"velocity":0.5905511811023622,"duration":0.2224999999999966},{"name":"A#4","midi":70,"time":37.499999999999964,"velocity":0.5905511811023622,"duration":0.2224999999999966},{"name":"G4","midi":67,"time":37.79999999999996,"velocity":0.5905511811023622,"duration":0.2224999999999966},{"name":"C5","midi":72,"time":38.09999999999996,"velocity":0.5905511811023622,"duration":0.2224999999999966},{"name":"A4","midi":69,"time":38.399999999999956,"velocity":0.5905511811023622,"duration":0.2224999999999966},{"name":"D5","midi":74,"time":38.69999999999995,"velocity":0.5905511811023622,"duration":0.14999999999999858},{"name":"C5","midi":72,"time":38.84999999999995,"velocity":0.5905511811023622,"duration":0.14999999999999858},{"name":"D5","midi":74,"time":38.99999999999995,"velocity":0.5905511811023622,"duration":0.14999999999999858},{"name":"E5","midi":76,"time":39.14999999999995,"velocity":0.5905511811023622,"duration":0.14999999999999858},{"name":"C5","midi":72,"time":39.29999999999995,"velocity":0.5905511811023622,"duration":0.14999999999999858},{"name":"D5","midi":74,"time":39.449999999999946,"velocity":0.5905511811023622,"duration":0.14999999999999858},{"name":"B4","midi":71,"time":39.599999999999945,"velocity":0.5905511811023622,"duration":0.14999999999999858},{"name":"A4","midi":69,"time":39.74999999999994,"velocity":0.5905511811023622,"duration":0.14999999999999858},{"name":"B4","midi":71,"time":39.89999999999994,"velocity":0.5905511811023622,"duration":0.14999999999999858},{"name":"C5","midi":72,"time":40.04999999999994,"velocity":0.5905511811023622,"duration":0.14999999999999858},{"name":"B4","midi":71,"time":40.19999999999994,"velocity":0.5905511811023622,"duration":0.14999999999999858},{"name":"C5","midi":72,"time":40.34999999999994,"velocity":0.5905511811023622,"duration":0.14999999999999858},{"name":"A4","midi":69,"time":40.499999999999936,"velocity":0.5905511811023622,"duration":0.14999999999999858},{"name":"B4","midi":71,"time":40.649999999999935,"velocity":0.5905511811023622,"duration":0.14999999999999858},{"name":"G4","midi":67,"time":40.79999999999993,"velocity":0.5905511811023622,"duration":0.2224999999999966},{"name":"C5","midi":72,"time":41.09999999999993,"velocity":0.5905511811023622,"duration":0.14999999999999858},{"name":"B4","midi":71,"time":41.24999999999993,"velocity":0.5905511811023622,"duration":0.14999999999999858},{"name":"C5","midi":72,"time":41.39999999999993,"velocity":0.5905511811023622,"duration":0.14999999999999858},{"name":"D5","midi":74,"time":41.549999999999926,"velocity":0.5905511811023622,"duration":0.14999999999999858},{"name":"A#4","midi":70,"time":41.699999999999925,"velocity":0.5905511811023622,"duration":0.14999999999999858},{"name":"C5","midi":72,"time":41.84999999999992,"velocity":0.5905511811023622,"duration":0.14999999999999858},{"name":"A4","midi":69,"time":41.99999999999992,"velocity":0.5905511811023622,"duration":0.14999999999999858},{"name":"G4","midi":67,"time":42.14999999999992,"velocity":0.5905511811023622,"duration":0.14999999999999858},{"name":"A4","midi":69,"time":42.29999999999992,"velocity":0.5905511811023622,"duration":0.14999999999999858},{"name":"A#4","midi":70,"time":42.44999999999992,"velocity":0.5905511811023622,"duration":0.14999999999999858},{"name":"A4","midi":69,"time":42.599999999999916,"velocity":0.5905511811023622,"duration":0.14999999999999858},{"name":"A#4","midi":70,"time":42.749999999999915,"velocity":0.5905511811023622,"duration":0.14999999999999858},{"name":"G4","midi":67,"time":42.89999999999991,"velocity":0.5905511811023622,"duration":0.14999999999999858},{"name":"A4","midi":69,"time":43.04999999999991,"velocity":0.5905511811023622,"duration":0.14999999999999858},{"name":"G4","midi":67,"time":43.19999999999991,"velocity":0.5905511811023622,"duration":0.04999999999999716},{"name":"F4","midi":65,"time":43.24999999999991,"velocity":0.5905511811023622,"duration":0.054999999999999716},{"name":"G4","midi":67,"time":43.299999999999905,"velocity":0.5905511811023622,"duration":0.05500000000000682},{"name":"F4","midi":65,"time":43.34999999999991,"velocity":0.5905511811023622,"duration":0.05500000000000682},{"name":"G4","midi":67,"time":43.39999999999991,"velocity":0.5905511811023622,"duration":0.05500000000000682},{"name":"F4","midi":65,"time":43.44999999999992,"velocity":0.5905511811023622,"duration":0.05500000000000682},{"name":"G4","midi":67,"time":43.49999999999992,"velocity":0.5905511811023622,"duration":0.05500000000000682},{"name":"F4","midi":65,"time":43.549999999999926,"velocity":0.5905511811023622,"duration":0.05500000000000682},{"name":"G4","midi":67,"time":43.59999999999993,"velocity":0.5905511811023622,"duration":0.05500000000000682},{"name":"F4","midi":65,"time":43.649999999999935,"velocity":0.5905511811023622,"duration":0.05500000000000682},{"name":"G4","midi":67,"time":43.69999999999994,"velocity":0.5905511811023622,"duration":0.05500000000000682},{"name":"F4","midi":65,"time":43.74999999999994,"velocity":0.5905511811023622,"duration":0.05500000000000682},{"name":"G4","midi":67,"time":43.79999999999995,"velocity":0.5905511811023622,"duration":0.05500000000000682},{"name":"F4","midi":65,"time":43.84999999999995,"velocity":0.5905511811023622,"duration":0.05500000000000682},{"name":"G4","midi":67,"time":43.899999999999956,"velocity":0.5905511811023622,"duration":0.05500000000000682},{"name":"F4","midi":65,"time":43.94999999999996,"velocity":0.5905511811023622,"duration":0.05500000000000682},{"name":"G4","midi":67,"time":43.999999999999964,"velocity":0.5905511811023622,"duration":0.05500000000000682},{"name":"F4","midi":65,"time":44.04999999999997,"velocity":0.5905511811023622,"duration":0.05500000000000682},{"name":"G4","midi":67,"time":44.09999999999997,"velocity":0.5905511811023622,"duration":0.05500000000000682},{"name":"F4","midi":65,"time":44.14999999999998,"velocity":0.5905511811023622,"duration":0.05500000000000682},{"name":"G4","midi":67,"time":44.19999999999998,"velocity":0.5905511811023622,"duration":0.05500000000000682},{"name":"F4","midi":65,"time":44.249999999999986,"velocity":0.5905511811023622,"duration":0.054999999999999716},{"name":"G4","midi":67,"time":44.32499999999999,"velocity":0.5905511811023622,"duration":0.07249999999999801},{"name":"F4","midi":65,"time":44.399999999999984,"velocity":0.5905511811023622,"duration":0.14999999999999858},{"name":"D5","midi":74,"time":44.69999999999998,"velocity":0.5905511811023622,"duration":0.14999999999999858},{"name":"C5","midi":72,"time":44.84999999999998,"velocity":0.5905511811023622,"duration":0.14999999999999858},{"name":"D5","midi":74,"time":44.99999999999998,"velocity":0.5905511811023622,"duration":0.2224999999999966},{"name":"F4","midi":65,"time":45.299999999999976,"velocity":0.5905511811023622,"duration":0.2224999999999966},{"name":"E4","midi":64,"time":45.59999999999997,"velocity":0.5905511811023622,"duration":0.14999999999999858},{"name":"D4","midi":62,"time":45.74999999999997,"velocity":0.5905511811023622,"duration":0.14999999999999858},{"name":"E4","midi":64,"time":45.89999999999997,"velocity":0.5905511811023622,"duration":0.14999999999999858},{"name":"F4","midi":65,"time":46.04999999999997,"velocity":0.5905511811023622,"duration":0.14999999999999858},{"name":"E4","midi":64,"time":46.19999999999997,"velocity":0.5905511811023622,"duration":0.14999999999999858},{"name":"F4","midi":65,"time":46.349999999999966,"velocity":0.5905511811023622,"duration":0.14999999999999858},{"name":"D4","midi":62,"time":46.499999999999964,"velocity":0.5905511811023622,"duration":0.14999999999999858},{"name":"E4","midi":64,"time":46.64999999999996,"velocity":0.5905511811023622,"duration":0.14999999999999858},{"name":"C4","midi":60,"time":46.79999999999996,"velocity":0.5905511811023622,"duration":0.3725000000000023},{"name":"C4","midi":60,"time":47.249999999999964,"velocity":0.5905511811023622,"duration":0.14999999999999858},{"name":"B3","midi":59,"time":47.39999999999996,"velocity":0.5905511811023622,"duration":0.3725000000000023},{"name":"B3","midi":59,"time":47.849999999999966,"velocity":0.5905511811023622,"duration":0.14999999999999858},{"name":"A3","midi":57,"time":47.999999999999964,"velocity":0.5905511811023622,"duration":0.8999999999999986},{"name":"B3","midi":59,"time":48.89999999999996,"velocity":0.5905511811023622,"duration":0.29999999999999716},{"name":"C4","midi":60,"time":49.19999999999996,"velocity":0.5905511811023622,"duration":0.8999999999999986},{"name":"A3","midi":57,"time":50.09999999999996,"velocity":0.5905511811023622,"duration":0.2224999999999966},{"name":"D4","midi":62,"time":50.399999999999956,"velocity":0.5905511811023622,"duration":0.8999999999999986},{"name":"B3","midi":59,"time":51.299999999999955,"velocity":0.5905511811023622,"duration":0.2224999999999966},{"name":"E4","midi":64,"time":51.59999999999995,"velocity":0.5905511811023622,"duration":0.8999999999999986},{"name":"C4","midi":60,"time":52.49999999999995,"velocity":0.5905511811023622,"duration":0.2224999999999966},{"name":"F4","midi":65,"time":52.79999999999995,"velocity":0.5905511811023622,"duration":0.8999999999999986},{"name":"D4","midi":62,"time":53.699999999999946,"velocity":0.5905511811023622,"duration":0.2224999999999966},{"name":"G4","midi":67,"time":53.99999999999994,"velocity":0.5905511811023622,"duration":0.6000000000000014},{"name":"A4","midi":69,"time":54.599999999999945,"velocity":0.5905511811023622,"duration":0.29999999999999716},{"name":"B4","midi":71,"time":54.89999999999994,"velocity":0.5905511811023622,"duration":0.29999999999999716},{"name":"C5","midi":72,"time":55.19999999999994,"velocity":0.5905511811023622,"duration":4.200000000000003},{"name":"B4","midi":71,"time":59.39999999999994,"velocity":0.5905511811023622,"duration":0.6000000000000014},{"name":"C5","midi":72,"time":60.29999999999994,"velocity":0.5905511811023622,"duration":0.14999999999999858},{"name":"B4","midi":71,"time":60.44999999999994,"velocity":0.5905511811023622,"duration":0.14999999999999858},{"name":"C5","midi":72,"time":60.59999999999994,"velocity":0.5905511811023622,"duration":0.2224999999999966},{"name":"G4","midi":67,"time":60.899999999999935,"velocity":0.5905511811023622,"duration":0.2224999999999966},{"name":"E5","midi":76,"time":61.19999999999993,"velocity":0.5905511811023622,"duration":0.07500000000000284},{"name":"D5","midi":74,"time":61.26999999999993,"velocity":0.5905511811023622,"duration":0.07500000000000284},{"name":"E5","midi":76,"time":61.34999999999994,"velocity":0.5905511811023622,"duration":0.45000000000000284},{"name":"D5","midi":74,"time":61.79999999999994,"velocity":0.5905511811023622,"duration":0.6000000000000014},{"name":"C5","midi":72,"time":62.69999999999994,"velocity":0.5905511811023622,"duration":0.14999999999999858},{"name":"B4","midi":71,"time":62.84999999999994,"velocity":0.5905511811023622,"duration":0.14999999999999858},{"name":"C5","midi":72,"time":62.999999999999936,"velocity":0.5905511811023622,"duration":0.14999999999999858},{"name":"D5","midi":74,"time":63.149999999999935,"velocity":0.5905511811023622,"duration":0.14999999999999858},{"name":"B4","midi":71,"time":63.29999999999993,"velocity":0.5905511811023622,"duration":0.14999999999999858},{"name":"C5","midi":72,"time":63.44999999999993,"velocity":0.5905511811023622,"duration":0.14999999999999858},{"name":"A4","midi":69,"time":63.59999999999993,"velocity":0.5905511811023622,"duration":0.14999999999999858},{"name":"C5","midi":72,"time":63.74999999999993,"velocity":0.5905511811023622,"duration":0.14999999999999858},{"name":"B4","midi":71,"time":63.89999999999993,"velocity":0.5905511811023622,"duration":0.14999999999999858},{"name":"C5","midi":72,"time":64.04999999999993,"velocity":0.5905511811023622,"duration":0.15000000000000568},{"name":"D5","midi":74,"time":64.19999999999993,"velocity":0.5905511811023622,"duration":0.15000000000000568},{"name":"E5","midi":76,"time":64.34999999999994,"velocity":0.5905511811023622,"duration":0.15000000000000568},{"name":"C5","midi":72,"time":64.49999999999994,"velocity":0.5905511811023622,"duration":0.15000000000000568},{"name":"D5","midi":74,"time":64.64999999999995,"velocity":0.5905511811023622,"duration":0.15000000000000568},{"name":"B4","midi":71,"time":64.79999999999995,"velocity":0.5905511811023622,"duration":0.29999999999999716},{"name":"D5","midi":74,"time":65.09999999999995,"velocity":0.5905511811023622,"duration":0.15000000000000568},{"name":"C5","midi":72,"time":65.24999999999996,"velocity":0.5905511811023622,"duration":0.15000000000000568},{"name":"D5","midi":74,"time":65.39999999999996,"velocity":0.5905511811023622,"duration":0.2224999999999966},{"name":"G4","midi":67,"time":65.69999999999996,"velocity":0.5905511811023622,"duration":0.2224999999999966},{"name":"E5","midi":76,"time":65.99999999999996,"velocity":0.5905511811023622,"duration":0.5999999999999943},{"name":"D5","midi":74,"time":66.59999999999995,"velocity":0.5905511811023622,"duration":0.5999999999999943},{"name":"C5","midi":72,"time":67.19999999999995,"velocity":0.5905511811023622,"duration":0.29999999999999716},{"name":"E5","midi":76,"time":67.49999999999994,"velocity":0.5905511811023622,"duration":0.15000000000000568},{"name":"D5","midi":74,"time":67.64999999999995,"velocity":0.5905511811023622,"duration":0.15000000000000568},{"name":"E5","midi":76,"time":67.79999999999995,"velocity":0.5905511811023622,"duration":0.2224999999999966},{"name":"A4","midi":69,"time":68.09999999999995,"velocity":0.5905511811023622,"duration":0.2224999999999966},{"name":"F5","midi":77,"time":68.39999999999995,"velocity":0.5905511811023622,"duration":0.5999999999999943},{"name":"E5","midi":76,"time":68.99999999999994,"velocity":0.5905511811023622,"duration":0.5999999999999943},{"name":"D5","midi":74,"time":69.59999999999994,"velocity":0.5905511811023622,"duration":0.29999999999999716},{"name":"F5","midi":77,"time":69.89999999999993,"velocity":0.5905511811023622,"duration":0.15000000000000568},{"name":"E5","midi":76,"time":70.04999999999994,"velocity":0.5905511811023622,"duration":0.15000000000000568},{"name":"F5","midi":77,"time":70.19999999999995,"velocity":0.5905511811023622,"duration":0.2224999999999966},{"name":"B4","midi":71,"time":70.49999999999994,"velocity":0.5905511811023622,"duration":0.2224999999999966},{"name":"G5","midi":79,"time":70.79999999999994,"velocity":0.5905511811023622,"duration":0.5999999999999943},{"name":"F5","midi":77,"time":71.39999999999993,"velocity":0.5905511811023622,"duration":0.5999999999999943},{"name":"E5","midi":76,"time":71.99999999999993,"velocity":0.5905511811023622,"duration":0.29999999999999716},{"name":"F5","midi":77,"time":72.29999999999993,"velocity":0.5905511811023622,"duration":0.29999999999999716},{"name":"G5","midi":79,"time":72.59999999999992,"velocity":0.5905511811023622,"duration":1.2000000000000028},{"name":"F5","midi":77,"time":73.79999999999993,"velocity":0.5905511811023622,"duration":1.2000000000000028},{"name":"E5","midi":76,"time":74.99999999999993,"velocity":0.5905511811023622,"duration":1.2000000000000028},{"name":"D5","midi":74,"time":76.19999999999993,"velocity":0.5905511811023622,"duration":0.29999999999999716},{"name":"C5","midi":72,"time":76.49999999999993,"velocity":0.5905511811023622,"duration":0.29999999999999716},{"name":"B4","midi":71,"time":76.79999999999993,"velocity":0.5905511811023622,"duration":0.2224999999999966},{"name":"G4","midi":67,"time":77.09999999999992,"velocity":0.5905511811023622,"duration":0.2224999999999966},{"name":"C5","midi":72,"time":77.39999999999992,"velocity":0.5905511811023622,"duration":1.2000000000000028},{"name":"B4","midi":71,"time":78.59999999999992,"velocity":0.5905511811023622,"duration":0.5999999999999943},{"name":"C5","midi":72,"time":79.19999999999992,"velocity":0.5905511811023622,"duration":0.29999999999999716},{"name":"D5","midi":74,"time":79.49999999999991,"velocity":0.5905511811023622,"duration":0.29999999999999716},{"name":"G4","midi":67,"time":79.79999999999991,"velocity":0.5905511811023622,"duration":0.15000000000000568},{"name":"C5","midi":72,"time":79.94999999999992,"velocity":0.5905511811023622,"duration":0.29999999999999716},{"name":"B4","midi":71,"time":80.24999999999991,"velocity":0.5905511811023622,"duration":0.15000000000000568},{"name":"C5","midi":72,"time":80.39999999999992,"velocity":0.5905511811023622,"duration":0.15000000000000568},{"name":"F4","midi":65,"time":80.54999999999993,"velocity":0.5905511811023622,"duration":0.15000000000000568},{"name":"E4","midi":64,"time":80.69999999999993,"velocity":0.5905511811023622,"duration":0.15000000000000568},{"name":"D4","midi":62,"time":80.84999999999994,"velocity":0.5905511811023622,"duration":0.15000000000000568},{"name":"E4","midi":64,"time":80.99999999999994,"velocity":0.5905511811023622,"duration":0.15000000000000568},{"name":"F4","midi":65,"time":81.14999999999995,"velocity":0.5905511811023622,"duration":0.15000000000000568},{"name":"D4","midi":62,"time":81.29999999999995,"velocity":0.5905511811023622,"duration":0.15000000000000568},{"name":"E4","midi":64,"time":81.44999999999996,"velocity":0.5905511811023622,"duration":0.15000000000000568},{"name":"F4","midi":65,"time":81.59999999999997,"velocity":0.5905511811023622,"duration":0.15000000000000568},{"name":"E4","midi":64,"time":81.74999999999997,"velocity":0.5905511811023622,"duration":0.15000000000000568},{"name":"F4","midi":65,"time":81.89999999999998,"velocity":0.5905511811023622,"duration":0.15000000000000568},{"name":"G4","midi":67,"time":82.04999999999998,"velocity":0.5905511811023622,"duration":0.15000000000000568},{"name":"F4","midi":65,"time":82.19999999999999,"velocity":0.5905511811023622,"duration":0.15000000000000568},{"name":"G4","midi":67,"time":82.35,"velocity":0.5905511811023622,"duration":0.15000000000000568},{"name":"E4","midi":64,"time":82.5,"velocity":0.5905511811023622,"duration":0.15000000000000568},{"name":"F4","midi":65,"time":82.65,"velocity":0.5905511811023622,"duration":0.15000000000000568},{"name":"D4","midi":62,"time":82.80000000000001,"velocity":0.5905511811023622,"duration":0.15000000000000568},{"name":"C4","midi":60,"time":82.95000000000002,"velocity":0.5905511811023622,"duration":0.15000000000000568},{"name":"D4","midi":62,"time":83.10000000000002,"velocity":0.5905511811023622,"duration":0.15000000000000568},{"name":"E4","midi":64,"time":83.25000000000003,"velocity":0.5905511811023622,"duration":0.15000000000000568},{"name":"D4","midi":62,"time":83.40000000000003,"velocity":0.5905511811023622,"duration":0.15000000000000568},{"name":"E4","midi":64,"time":83.55000000000004,"velocity":0.5905511811023622,"duration":0.15000000000000568},{"name":"C4","midi":60,"time":83.70000000000005,"velocity":0.5905511811023622,"duration":0.15000000000000568},{"name":"D4","midi":62,"time":83.85000000000005,"velocity":0.5905511811023622,"duration":0.15000000000000568},{"name":"E4","midi":64,"time":84.00000000000006,"velocity":0.5905511811023622,"duration":0.15000000000000568},{"name":"D4","midi":62,"time":84.15000000000006,"velocity":0.5905511811023622,"duration":0.15000000000000568},{"name":"E4","midi":64,"time":84.30000000000007,"velocity":0.5905511811023622,"duration":0.15000000000000568},{"name":"F4","midi":65,"time":84.45000000000007,"velocity":0.5905511811023622,"duration":0.15000000000000568},{"name":"E4","midi":64,"time":84.60000000000008,"velocity":0.5905511811023622,"duration":0.15000000000000568},{"name":"F4","midi":65,"time":84.75000000000009,"velocity":0.5905511811023622,"duration":0.15000000000000568},{"name":"D4","midi":62,"time":84.90000000000009,"velocity":0.5905511811023622,"duration":0.15000000000000568},{"name":"E4","midi":64,"time":85.0500000000001,"velocity":0.5905511811023622,"duration":0.15000000000000568},{"name":"C4","midi":60,"time":85.2000000000001,"velocity":0.5905511811023622,"duration":3.9000000000000057},{"name":"B3","midi":59,"time":89.10000000000011,"velocity":0.5905511811023622,"duration":0.29999999999999716},{"name":"C4","midi":60,"time":89.4000000000001,"velocity":0.5905511811023622,"duration":0.29999999999999716},{"name":"D4","midi":62,"time":89.7000000000001,"velocity":0.5905511811023622,"duration":0.29999999999999716},{"name":"E4","midi":64,"time":90.0000000000001,"velocity":0.5905511811023622,"duration":0.29999999999999716},{"name":"G4","midi":67,"time":90.3000000000001,"velocity":0.5905511811023622,"duration":0.15000000000000568},{"name":"F4","midi":65,"time":90.4500000000001,"velocity":0.5905511811023622,"duration":0.15000000000000568},{"name":"G4","midi":67,"time":90.60000000000011,"velocity":0.5905511811023622,"duration":0.2224999999999966},{"name":"C4","midi":60,"time":90.9000000000001,"velocity":0.5905511811023622,"duration":0.2224999999999966},{"name":"A4","midi":69,"time":91.2000000000001,"velocity":0.5905511811023622,"duration":0.5999999999999943},{"name":"G4","midi":67,"time":91.8000000000001,"velocity":0.5905511811023622,"duration":0.5999999999999943},{"name":"F4","midi":65,"time":92.70000000000009,"velocity":0.5905511811023622,"duration":0.15000000000000568},{"name":"E4","midi":64,"time":92.8500000000001,"velocity":0.5905511811023622,"duration":0.15000000000000568},{"name":"F4","midi":65,"time":93.0000000000001,"velocity":0.5905511811023622,"duration":0.2224999999999966},{"name":"D4","midi":62,"time":93.3000000000001,"velocity":0.5905511811023622,"duration":0.2224999999999966},{"name":"G4","midi":67,"time":93.6000000000001,"velocity":0.5905511811023622,"duration":0.5999999999999943},{"name":"F4","midi":65,"time":94.20000000000009,"velocity":0.5905511811023622,"duration":0.5999999999999943},{"name":"E4","midi":64,"time":94.80000000000008,"velocity":0.5905511811023622,"duration":0.2224999999999966},{"name":"G#4","midi":68,"time":95.10000000000008,"velocity":0.5905511811023622,"duration":0.2224999999999966},{"name":"G4","midi":67,"time":95.40000000000008,"velocity":0.5905511811023622,"duration":0.2224999999999966},{"name":"B4","midi":71,"time":95.70000000000007,"velocity":0.5905511811023622,"duration":0.2224999999999966},{"name":"C5","midi":72,"time":96.00000000000007,"velocity":0.5905511811023622,"duration":0.2224999999999966},{"name":"F4","midi":65,"time":96.30000000000007,"velocity":0.5905511811023622,"duration":0.2224999999999966},{"name":"E4","midi":64,"time":96.60000000000007,"velocity":0.5905511811023622,"duration":0.2224999999999966},{"name":"C5","midi":72,"time":96.90000000000006,"velocity":0.5905511811023622,"duration":0.2224999999999966},{"name":"D4","midi":62,"time":97.20000000000006,"velocity":0.5905511811023622,"duration":0.2224999999999966},{"name":"C5","midi":72,"time":97.50000000000006,"velocity":0.5905511811023622,"duration":0.2224999999999966},{"name":"F4","midi":65,"time":97.80000000000005,"velocity":0.5905511811023622,"duration":0.2224999999999966},{"name":"B4","midi":71,"time":98.10000000000005,"velocity":0.5905511811023622,"duration":0.2224999999999966},{"name":"C5","midi":72,"time":98.40000000000005,"velocity":0.5905511811023622,"duration":1.2000000000000028}],"controlChanges":{"7":[{"number":7,"time":0,"value":0.7874015748031497}],"10":[{"number":10,"time":0,"value":0.6299212598425197}]},"id":1,"name":"BWV 870/2","instrumentNumber":6,"instrument":"harpsichord","instrumentFamily":"piano","channelNumber":0,"isPercussion":false},{"startTime":0.3,"duration":99.5999999999997,"length":369,"notes":[{"name":"G4","midi":67,"time":0.3,"velocity":0.5905511811023622,"duration":0.14999999999999997},{"name":"F4","midi":65,"time":0.44999999999999996,"velocity":0.5905511811023622,"duration":0.15000000000000002},{"name":"G4","midi":67,"time":0.6,"velocity":0.5905511811023622,"duration":0.14749999999999996},{"name":"C4","midi":60,"time":0.8999999999999999,"velocity":0.5905511811023622,"duration":0.14749999999999996},{"name":"A4","midi":69,"time":1.19,"velocity":0.5905511811023622,"duration":0.07499999999999996},{"name":"G4","midi":67,"time":1.26,"velocity":0.5905511811023622,"duration":0.07499999999999996},{"name":"A4","midi":69,"time":1.3499999999999999,"velocity":0.5905511811023622,"duration":0.44999999999999996},{"name":"G4","midi":67,"time":1.7999999999999998,"velocity":0.5905511811023622,"duration":0.6000000000000001},{"name":"F4","midi":65,"time":2.6999999999999997,"velocity":0.5905511811023622,"duration":0.1499999999999999},{"name":"E4","midi":64,"time":2.8499999999999996,"velocity":0.5905511811023622,"duration":0.1499999999999999},{"name":"F4","midi":65,"time":2.9999999999999996,"velocity":0.5905511811023622,"duration":0.1499999999999999},{"name":"G4","midi":67,"time":3.1499999999999995,"velocity":0.5905511811023622,"duration":0.1499999999999999},{"name":"E4","midi":64,"time":3.2999999999999994,"velocity":0.5905511811023622,"duration":0.1499999999999999},{"name":"F4","midi":65,"time":3.4499999999999993,"velocity":0.5905511811023622,"duration":0.1499999999999999},{"name":"D4","midi":62,"time":3.599999999999999,"velocity":0.5905511811023622,"duration":0.1499999999999999},{"name":"F4","midi":65,"time":3.749999999999999,"velocity":0.5905511811023622,"duration":0.1499999999999999},{"name":"E4","midi":64,"time":3.899999999999999,"velocity":0.5905511811023622,"duration":0.1499999999999999},{"name":"F4","midi":65,"time":4.049999999999999,"velocity":0.5905511811023622,"duration":0.15000000000000036},{"name":"G4","midi":67,"time":4.199999999999999,"velocity":0.5905511811023622,"duration":0.15000000000000036},{"name":"A4","midi":69,"time":4.35,"velocity":0.5905511811023622,"duration":0.15000000000000036},{"name":"F4","midi":65,"time":4.5,"velocity":0.5905511811023622,"duration":0.15000000000000036},{"name":"G4","midi":67,"time":4.65,"velocity":0.5905511811023622,"duration":0.15000000000000036},{"name":"E4","midi":64,"time":4.800000000000001,"velocity":0.5905511811023622,"duration":0.15000000000000036},{"name":"D4","midi":62,"time":4.950000000000001,"velocity":0.5905511811023622,"duration":0.15000000000000036},{"name":"E4","midi":64,"time":5.100000000000001,"velocity":0.5905511811023622,"duration":0.15000000000000036},{"name":"F4","midi":65,"time":5.250000000000002,"velocity":0.5905511811023622,"duration":0.15000000000000036},{"name":"E4","midi":64,"time":5.400000000000002,"velocity":0.5905511811023622,"duration":0.15000000000000036},{"name":"F4","midi":65,"time":5.5500000000000025,"velocity":0.5905511811023622,"duration":0.15000000000000036},{"name":"D4","midi":62,"time":5.700000000000003,"velocity":0.5905511811023622,"duration":0.15000000000000036},{"name":"E4","midi":64,"time":5.850000000000003,"velocity":0.5905511811023622,"duration":0.15000000000000036},{"name":"C4","midi":60,"time":6.0000000000000036,"velocity":0.5905511811023622,"duration":0.15000000000000036},{"name":"B3","midi":59,"time":6.150000000000004,"velocity":0.5905511811023622,"duration":0.15000000000000036},{"name":"C4","midi":60,"time":6.300000000000004,"velocity":0.5905511811023622,"duration":0.15000000000000036},{"name":"D4","midi":62,"time":6.450000000000005,"velocity":0.5905511811023622,"duration":0.15000000000000036},{"name":"C4","midi":60,"time":6.600000000000005,"velocity":0.5905511811023622,"duration":0.15000000000000036},{"name":"D4","midi":62,"time":6.750000000000005,"velocity":0.5905511811023622,"duration":0.15000000000000036},{"name":"B3","midi":59,"time":6.900000000000006,"velocity":0.5905511811023622,"duration":0.15000000000000036},{"name":"C4","midi":60,"time":7.050000000000006,"velocity":0.5905511811023622,"duration":0.15000000000000036},{"name":"A3","midi":57,"time":7.200000000000006,"velocity":0.5905511811023622,"duration":0.15000000000000036},{"name":"B3","midi":59,"time":7.350000000000007,"velocity":0.5905511811023622,"duration":0.15000000000000036},{"name":"C4","midi":60,"time":7.500000000000007,"velocity":0.5905511811023622,"duration":0.15000000000000036},{"name":"D4","midi":62,"time":7.6500000000000075,"velocity":0.5905511811023622,"duration":0.15000000000000036},{"name":"E4","midi":64,"time":7.800000000000008,"velocity":0.5905511811023622,"duration":0.15000000000000036},{"name":"F#4","midi":66,"time":7.950000000000008,"velocity":0.5905511811023622,"duration":0.15000000000000036},{"name":"G4","midi":67,"time":8.100000000000009,"velocity":0.5905511811023622,"duration":0.5999999999999996},{"name":"F#4","midi":66,"time":8.700000000000008,"velocity":0.5905511811023622,"duration":0.15000000000000036},{"name":"E4","midi":64,"time":8.850000000000009,"velocity":0.5905511811023622,"duration":0.15000000000000036},{"name":"F#4","midi":66,"time":9.000000000000009,"velocity":0.5905511811023622,"duration":0.07500000000000107},{"name":"E4","midi":64,"time":9.07000000000001,"velocity":0.5905511811023622,"duration":0.07500000000000107},{"name":"F#4","midi":66,"time":9.150000000000011,"velocity":0.5905511811023622,"duration":0.4499999999999993},{"name":"G4","midi":67,"time":9.60000000000001,"velocity":0.5905511811023622,"duration":1.3499999999999996},{"name":"E4","midi":64,"time":10.95000000000001,"velocity":0.5905511811023622,"duration":0.15000000000000036},{"name":"F4","midi":65,"time":11.10000000000001,"velocity":0.5905511811023622,"duration":0.4499999999999993},{"name":"D4","midi":62,"time":11.55000000000001,"velocity":0.5905511811023622,"duration":0.15000000000000036},{"name":"E4","midi":64,"time":11.70000000000001,"velocity":0.5905511811023622,"duration":0.5999999999999996},{"name":"D4","midi":62,"time":12.30000000000001,"velocity":0.5905511811023622,"duration":0.3000000000000007},{"name":"G4","midi":67,"time":12.60000000000001,"velocity":0.5905511811023622,"duration":0.5999999999999996},{"name":"F4","midi":65,"time":13.20000000000001,"velocity":0.5905511811023622,"duration":0.15000000000000036},{"name":"A4","midi":69,"time":13.35000000000001,"velocity":0.5905511811023622,"duration":0.15000000000000036},{"name":"G4","midi":67,"time":13.50000000000001,"velocity":0.5905511811023622,"duration":0.15000000000000036},{"name":"A4","midi":69,"time":13.650000000000011,"velocity":0.5905511811023622,"duration":0.15000000000000036},{"name":"D4","midi":62,"time":13.800000000000011,"velocity":0.5905511811023622,"duration":0.5999999999999996},{"name":"C4","midi":60,"time":14.400000000000011,"velocity":0.5905511811023622,"duration":0.14750000000000085},{"name":"C5","midi":72,"time":15.900000000000013,"velocity":0.5905511811023622,"duration":0.14999999999999858},{"name":"B4","midi":71,"time":16.05000000000001,"velocity":0.5905511811023622,"duration":0.14999999999999858},{"name":"C5","midi":72,"time":16.20000000000001,"velocity":0.5905511811023622,"duration":0.14750000000000085},{"name":"G4","midi":67,"time":16.50000000000001,"velocity":0.5905511811023622,"duration":0.14750000000000085},{"name":"D5","midi":74,"time":16.80000000000001,"velocity":0.5905511811023622,"duration":0.6000000000000014},{"name":"C5","midi":72,"time":17.400000000000013,"velocity":0.5905511811023622,"duration":0.6000000000000014},{"name":"B4","midi":71,"time":18.000000000000014,"velocity":0.5905511811023622,"duration":0.3000000000000007},{"name":"D5","midi":74,"time":18.300000000000015,"velocity":0.5905511811023622,"duration":0.14999999999999858},{"name":"C5","midi":72,"time":18.450000000000014,"velocity":0.5905511811023622,"duration":0.14999999999999858},{"name":"D5","midi":74,"time":18.600000000000012,"velocity":0.5905511811023622,"duration":0.14750000000000085},{"name":"A4","midi":69,"time":18.900000000000013,"velocity":0.5905511811023622,"duration":0.14750000000000085},{"name":"E5","midi":76,"time":19.200000000000014,"velocity":0.5905511811023622,"duration":0.6000000000000014},{"name":"D5","midi":74,"time":19.800000000000015,"velocity":0.5905511811023622,"duration":0.6000000000000014},{"name":"C5","midi":72,"time":20.400000000000016,"velocity":0.5905511811023622,"duration":0.3000000000000007},{"name":"E5","midi":76,"time":20.700000000000017,"velocity":0.5905511811023622,"duration":0.14999999999999858},{"name":"D5","midi":74,"time":20.850000000000016,"velocity":0.5905511811023622,"duration":0.14999999999999858},{"name":"E5","midi":76,"time":21.000000000000014,"velocity":0.5905511811023622,"duration":0.3000000000000007},{"name":"A5","midi":81,"time":21.300000000000015,"velocity":0.5905511811023622,"duration":0.3000000000000007},{"name":"D5","midi":74,"time":21.600000000000016,"velocity":0.5905511811023622,"duration":1.5},{"name":"C5","midi":72,"time":23.100000000000016,"velocity":0.5905511811023622,"duration":0.14999999999999858},{"name":"B4","midi":71,"time":23.250000000000014,"velocity":0.5905511811023622,"duration":0.14999999999999858},{"name":"A4","midi":69,"time":23.400000000000013,"velocity":0.5905511811023622,"duration":0.3000000000000007},{"name":"B4","midi":71,"time":23.700000000000014,"velocity":0.5905511811023622,"duration":0.6000000000000014},{"name":"A4","midi":69,"time":24.300000000000015,"velocity":0.5905511811023622,"duration":0.14999999999999858},{"name":"G4","midi":67,"time":24.450000000000014,"velocity":0.5905511811023622,"duration":0.14999999999999858},{"name":"A4","midi":69,"time":24.600000000000012,"velocity":0.5905511811023622,"duration":0.3000000000000007},{"name":"D4","midi":62,"time":24.900000000000013,"velocity":0.5905511811023622,"duration":0.3000000000000007},{"name":"B4","midi":71,"time":25.200000000000014,"velocity":0.5905511811023622,"duration":0.6000000000000014},{"name":"A4","midi":69,"time":25.800000000000015,"velocity":0.5905511811023622,"duration":0.6000000000000014},{"name":"G4","midi":67,"time":26.700000000000017,"velocity":0.5905511811023622,"duration":0.14999999999999858},{"name":"F4","midi":65,"time":26.850000000000016,"velocity":0.5905511811023622,"duration":0.14999999999999858},{"name":"G4","midi":67,"time":27.000000000000014,"velocity":0.5905511811023622,"duration":0.14999999999999858},{"name":"A4","midi":69,"time":27.150000000000013,"velocity":0.5905511811023622,"duration":0.14999999999999858},{"name":"F4","midi":65,"time":27.30000000000001,"velocity":0.5905511811023622,"duration":0.14999999999999858},{"name":"G4","midi":67,"time":27.45000000000001,"velocity":0.5905511811023622,"duration":0.14999999999999858},{"name":"E4","midi":64,"time":27.60000000000001,"velocity":0.5905511811023622,"duration":0.14999999999999858},{"name":"G4","midi":67,"time":27.750000000000007,"velocity":0.5905511811023622,"duration":0.14999999999999858},{"name":"F4","midi":65,"time":27.900000000000006,"velocity":0.5905511811023622,"duration":0.14999999999999858},{"name":"G4","midi":67,"time":28.050000000000004,"velocity":0.5905511811023622,"duration":0.14999999999999858},{"name":"A4","midi":69,"time":28.200000000000003,"velocity":0.5905511811023622,"duration":0.14999999999999858},{"name":"A#4","midi":70,"time":28.35,"velocity":0.5905511811023622,"duration":0.14999999999999858},{"name":"G4","midi":67,"time":28.5,"velocity":0.5905511811023622,"duration":0.14999999999999858},{"name":"A4","midi":69,"time":28.65,"velocity":0.5905511811023622,"duration":0.14999999999999858},{"name":"F4","midi":65,"time":28.799999999999997,"velocity":0.5905511811023622,"duration":0.14999999999999858},{"name":"E4","midi":64,"time":28.949999999999996,"velocity":0.5905511811023622,"duration":0.14999999999999858},{"name":"F4","midi":65,"time":29.099999999999994,"velocity":0.5905511811023622,"duration":0.14999999999999858},{"name":"G4","midi":67,"time":29.249999999999993,"velocity":0.5905511811023622,"duration":0.14999999999999858},{"name":"F4","midi":65,"time":29.39999999999999,"velocity":0.5905511811023622,"duration":0.14999999999999858},{"name":"G4","midi":67,"time":29.54999999999999,"velocity":0.5905511811023622,"duration":0.14999999999999858},{"name":"E4","midi":64,"time":29.69999999999999,"velocity":0.5905511811023622,"duration":0.14999999999999858},{"name":"F4","midi":65,"time":29.849999999999987,"velocity":0.5905511811023622,"duration":0.14999999999999858},{"name":"D4","midi":62,"time":29.999999999999986,"velocity":0.5905511811023622,"duration":0.14999999999999858},{"name":"C4","midi":60,"time":30.149999999999984,"velocity":0.5905511811023622,"duration":0.14999999999999858},{"name":"D4","midi":62,"time":30.299999999999983,"velocity":0.5905511811023622,"duration":0.14999999999999858},{"name":"E4","midi":64,"time":30.44999999999998,"velocity":0.5905511811023622,"duration":0.14999999999999858},{"name":"D4","midi":62,"time":30.59999999999998,"velocity":0.5905511811023622,"duration":0.14999999999999858},{"name":"E4","midi":64,"time":30.74999999999998,"velocity":0.5905511811023622,"duration":0.14999999999999858},{"name":"C4","midi":60,"time":30.899999999999977,"velocity":0.5905511811023622,"duration":0.14999999999999858},{"name":"D4","midi":62,"time":31.049999999999976,"velocity":0.5905511811023622,"duration":0.14999999999999858},{"name":"B3","midi":59,"time":31.199999999999974,"velocity":0.5905511811023622,"duration":0.14999999999999858},{"name":"C4","midi":60,"time":31.349999999999973,"velocity":0.5905511811023622,"duration":0.14999999999999858},{"name":"D4","midi":62,"time":31.49999999999997,"velocity":0.5905511811023622,"duration":0.14999999999999858},{"name":"E4","midi":64,"time":31.64999999999997,"velocity":0.5905511811023622,"duration":0.14999999999999858},{"name":"F#4","midi":66,"time":31.79999999999997,"velocity":0.5905511811023622,"duration":0.14999999999999858},{"name":"G#4","midi":68,"time":31.949999999999967,"velocity":0.5905511811023622,"duration":0.14999999999999858},{"name":"A4","midi":69,"time":32.099999999999966,"velocity":0.5905511811023622,"duration":0.6000000000000014},{"name":"G#4","midi":68,"time":32.69999999999997,"velocity":0.5905511811023622,"duration":0.14999999999999858},{"name":"F#4","midi":66,"time":32.849999999999966,"velocity":0.5905511811023622,"duration":0.14999999999999858},{"name":"A4","midi":69,"time":32.999999999999964,"velocity":0.5905511811023622,"duration":0.04999999999999716},{"name":"G#4","midi":68,"time":33.04999999999996,"velocity":0.5905511811023622,"duration":0.04999999999999716},{"name":"A4","midi":69,"time":33.09999999999996,"velocity":0.5905511811023622,"duration":0.04999999999999716},{"name":"G#4","midi":68,"time":33.149999999999956,"velocity":0.5905511811023622,"duration":0.04999999999999716},{"name":"A4","midi":69,"time":33.19999999999995,"velocity":0.5905511811023622,"duration":0.04999999999999716},{"name":"G#4","midi":68,"time":33.24999999999995,"velocity":0.5905511811023622,"duration":0.3500000000000014},{"name":"A4","midi":69,"time":33.59999999999995,"velocity":0.5905511811023622,"duration":0.14999999999999858},{"name":"G#4","midi":68,"time":33.74999999999995,"velocity":0.5905511811023622,"duration":0.14999999999999858},{"name":"A4","midi":69,"time":33.89999999999995,"velocity":0.5905511811023622,"duration":0.14999999999999858},{"name":"B4","midi":71,"time":34.04999999999995,"velocity":0.5905511811023622,"duration":0.14999999999999858},{"name":"A4","midi":69,"time":34.199999999999946,"velocity":0.5905511811023622,"duration":0.14999999999999858},{"name":"B4","midi":71,"time":34.349999999999945,"velocity":0.5905511811023622,"duration":0.14999999999999858},{"name":"G4","midi":67,"time":34.49999999999994,"velocity":0.5905511811023622,"duration":0.14999999999999858},{"name":"A4","midi":69,"time":34.64999999999994,"velocity":0.5905511811023622,"duration":0.14999999999999858},{"name":"F#4","midi":66,"time":34.79999999999994,"velocity":0.5905511811023622,"duration":0.14999999999999858},{"name":"E4","midi":64,"time":34.94999999999994,"velocity":0.5905511811023622,"duration":0.14999999999999858},{"name":"F#4","midi":66,"time":35.09999999999994,"velocity":0.5905511811023622,"duration":0.14999999999999858},{"name":"G4","midi":67,"time":35.249999999999936,"velocity":0.5905511811023622,"duration":0.14999999999999858},{"name":"F#4","midi":66,"time":35.399999999999935,"velocity":0.5905511811023622,"duration":0.14999999999999858},{"name":"G4","midi":67,"time":35.54999999999993,"velocity":0.5905511811023622,"duration":0.14999999999999858},{"name":"E4","midi":64,"time":35.69999999999993,"velocity":0.5905511811023622,"duration":0.14999999999999858},{"name":"F#4","midi":66,"time":35.84999999999993,"velocity":0.5905511811023622,"duration":0.14999999999999858},{"name":"G4","midi":67,"time":35.99999999999993,"velocity":0.5905511811023622,"duration":0.14999999999999858},{"name":"F#4","midi":66,"time":36.14999999999993,"velocity":0.5905511811023622,"duration":0.14999999999999858},{"name":"G4","midi":67,"time":36.299999999999926,"velocity":0.5905511811023622,"duration":0.14999999999999858},{"name":"A4","midi":69,"time":36.449999999999925,"velocity":0.5905511811023622,"duration":0.14999999999999858},{"name":"G4","midi":67,"time":36.59999999999992,"velocity":0.5905511811023622,"duration":0.14999999999999858},{"name":"A4","midi":69,"time":36.74999999999992,"velocity":0.5905511811023622,"duration":0.14999999999999858},{"name":"F4","midi":65,"time":36.89999999999992,"velocity":0.5905511811023622,"duration":0.14999999999999858},{"name":"G4","midi":67,"time":37.04999999999992,"velocity":0.5905511811023622,"duration":0.14999999999999858},{"name":"E4","midi":64,"time":37.19999999999992,"velocity":0.5905511811023622,"duration":0.14999999999999858},{"name":"D4","midi":62,"time":37.349999999999916,"velocity":0.5905511811023622,"duration":0.14999999999999858},{"name":"E4","midi":64,"time":37.499999999999915,"velocity":0.5905511811023622,"duration":0.14999999999999858},{"name":"F4","midi":65,"time":37.64999999999991,"velocity":0.5905511811023622,"duration":0.14999999999999858},{"name":"E4","midi":64,"time":37.79999999999991,"velocity":0.5905511811023622,"duration":0.14999999999999858},{"name":"F4","midi":65,"time":37.94999999999991,"velocity":0.5905511811023622,"duration":0.14999999999999858},{"name":"D4","midi":62,"time":38.09999999999991,"velocity":0.5905511811023622,"duration":0.14999999999999858},{"name":"E4","midi":64,"time":38.24999999999991,"velocity":0.5905511811023622,"duration":0.14999999999999858},{"name":"F4","midi":65,"time":38.399999999999906,"velocity":0.5905511811023622,"duration":0.14999999999999858},{"name":"E4","midi":64,"time":38.549999999999905,"velocity":0.5905511811023622,"duration":0.14999999999999858},{"name":"F4","midi":65,"time":38.6999999999999,"velocity":0.5905511811023622,"duration":0.14999999999999858},{"name":"G4","midi":67,"time":38.8499999999999,"velocity":0.5905511811023622,"duration":0.14999999999999858},{"name":"F4","midi":65,"time":38.9999999999999,"velocity":0.5905511811023622,"duration":0.14999999999999858},{"name":"G4","midi":67,"time":39.1499999999999,"velocity":0.5905511811023622,"duration":0.14999999999999858},{"name":"E4","midi":64,"time":39.2999999999999,"velocity":0.5905511811023622,"duration":0.14999999999999858},{"name":"F4","midi":65,"time":39.449999999999896,"velocity":0.5905511811023622,"duration":0.14999999999999858},{"name":"D4","midi":62,"time":39.599999999999895,"velocity":0.5905511811023622,"duration":0.2224999999999966},{"name":"G4","midi":67,"time":39.89999999999989,"velocity":0.5905511811023622,"duration":0.14999999999999858},{"name":"F4","midi":65,"time":40.04999999999989,"velocity":0.5905511811023622,"duration":0.14999999999999858},{"name":"G4","midi":67,"time":40.19999999999989,"velocity":0.5905511811023622,"duration":0.14999999999999858},{"name":"A4","midi":69,"time":40.34999999999989,"velocity":0.5905511811023622,"duration":0.14000000000000057},{"name":"F4","midi":65,"time":40.499999999999886,"velocity":0.5905511811023622,"duration":0.14999999999999858},{"name":"G4","midi":67,"time":40.649999999999885,"velocity":0.5905511811023622,"duration":0.14999999999999858},{"name":"E4","midi":64,"time":40.79999999999988,"velocity":0.5905511811023622,"duration":0.14999999999999858},{"name":"D4","midi":62,"time":40.94999999999988,"velocity":0.5905511811023622,"duration":0.14999999999999858},{"name":"E4","midi":64,"time":41.09999999999988,"velocity":0.5905511811023622,"duration":0.14999999999999858},{"name":"F4","midi":65,"time":41.24999999999988,"velocity":0.5905511811023622,"duration":0.14999999999999858},{"name":"E4","midi":64,"time":41.39999999999988,"velocity":0.5905511811023622,"duration":0.14999999999999858},{"name":"F4","midi":65,"time":41.549999999999876,"velocity":0.5905511811023622,"duration":0.14999999999999858},{"name":"D4","midi":62,"time":41.699999999999875,"velocity":0.5905511811023622,"duration":0.14999999999999858},{"name":"E4","midi":64,"time":41.84999999999987,"velocity":0.5905511811023622,"duration":0.14999999999999858},{"name":"C4","midi":60,"time":41.99999999999987,"velocity":0.5905511811023622,"duration":0.2224999999999966},{"name":"F4","midi":65,"time":42.29999999999987,"velocity":0.5905511811023622,"duration":0.14999999999999858},{"name":"E4","midi":64,"time":42.44999999999987,"velocity":0.5905511811023622,"duration":0.14999999999999858},{"name":"F4","midi":65,"time":42.599999999999866,"velocity":0.5905511811023622,"duration":0.14999999999999858},{"name":"G4","midi":67,"time":42.749999999999865,"velocity":0.5905511811023622,"duration":0.14000000000000057},{"name":"E4","midi":64,"time":42.899999999999864,"velocity":0.5905511811023622,"duration":0.14999999999999858},{"name":"F4","midi":65,"time":43.04999999999986,"velocity":0.5905511811023622,"duration":0.14999999999999858},{"name":"D4","midi":62,"time":43.19999999999986,"velocity":0.5905511811023622,"duration":0.14999999999999858},{"name":"C4","midi":60,"time":43.34999999999986,"velocity":0.5905511811023622,"duration":0.14999999999999858},{"name":"D4","midi":62,"time":43.49999999999986,"velocity":0.5905511811023622,"duration":0.14999999999999858},{"name":"E4","midi":64,"time":43.64999999999986,"velocity":0.5905511811023622,"duration":0.14999999999999858},{"name":"D4","midi":62,"time":43.799999999999855,"velocity":0.5905511811023622,"duration":0.14999999999999858},{"name":"E4","midi":64,"time":43.949999999999854,"velocity":0.5905511811023622,"duration":0.14999999999999858},{"name":"C4","midi":60,"time":44.09999999999985,"velocity":0.5905511811023622,"duration":0.14999999999999858},{"name":"D4","midi":62,"time":44.24999999999985,"velocity":0.5905511811023622,"duration":0.14999999999999858},{"name":"B3","midi":59,"time":44.39999999999985,"velocity":0.5905511811023622,"duration":0.14999999999999858},{"name":"A3","midi":57,"time":44.54999999999985,"velocity":0.5905511811023622,"duration":0.14999999999999858},{"name":"B3","midi":59,"time":44.69999999999985,"velocity":0.5905511811023622,"duration":0.14999999999999858},{"name":"C4","midi":60,"time":44.849999999999845,"velocity":0.5905511811023622,"duration":0.14999999999999858},{"name":"B3","midi":59,"time":44.999999999999844,"velocity":0.5905511811023622,"duration":0.14999999999999858},{"name":"C4","midi":60,"time":45.14999999999984,"velocity":0.5905511811023622,"duration":0.14999999999999858},{"name":"A3","midi":57,"time":45.29999999999984,"velocity":0.5905511811023622,"duration":0.14999999999999858},{"name":"B3","midi":59,"time":45.44999999999984,"velocity":0.5905511811023622,"duration":0.14999999999999858},{"name":"C4","midi":60,"time":45.59999999999984,"velocity":0.5905511811023622,"duration":0.8999999999999986},{"name":"B3","midi":59,"time":46.49999999999984,"velocity":0.5905511811023622,"duration":0.3725000000000023},{"name":"B3","midi":59,"time":46.94999999999984,"velocity":0.5905511811023622,"duration":0.14999999999999858},{"name":"A3","midi":57,"time":47.09999999999984,"velocity":0.5905511811023622,"duration":0.3725000000000023},{"name":"A3","midi":57,"time":47.54999999999984,"velocity":0.5905511811023622,"duration":0.14999999999999858},{"name":"G3","midi":55,"time":47.69999999999984,"velocity":0.5905511811023622,"duration":0.5225000000000009},{"name":"G3","midi":55,"time":48.29999999999984,"velocity":0.5905511811023622,"duration":0.29999999999999716},{"name":"F#3","midi":54,"time":48.59999999999984,"velocity":0.5905511811023622,"duration":0.29999999999999716},{"name":"G3","midi":55,"time":48.899999999999835,"velocity":0.5905511811023622,"duration":0.45000000000000284},{"name":"F#3","midi":54,"time":49.34999999999984,"velocity":0.5905511811023622,"duration":0.14999999999999858},{"name":"G3","midi":55,"time":49.49999999999984,"velocity":0.5905511811023622,"duration":0.14999999999999858},{"name":"E3","midi":52,"time":49.649999999999835,"velocity":0.5905511811023622,"duration":0.14999999999999858},{"name":"F#3","midi":54,"time":49.799999999999834,"velocity":0.5905511811023622,"duration":0.8999999999999986},{"name":"B3","midi":59,"time":50.69999999999983,"velocity":0.5905511811023622,"duration":0.2224999999999966},{"name":"G3","midi":55,"time":50.99999999999983,"velocity":0.5905511811023622,"duration":0.8999999999999986},{"name":"C4","midi":60,"time":51.89999999999983,"velocity":0.5905511811023622,"duration":0.2224999999999966},{"name":"A3","midi":57,"time":52.199999999999825,"velocity":0.5905511811023622,"duration":0.8999999999999986},{"name":"D4","midi":62,"time":53.099999999999824,"velocity":0.5905511811023622,"duration":0.2224999999999966},{"name":"B3","midi":59,"time":53.39999999999982,"velocity":0.5905511811023622,"duration":0.8999999999999986},{"name":"B3","midi":59,"time":54.29999999999982,"velocity":0.5905511811023622,"duration":0.29999999999999716},{"name":"C4","midi":60,"time":54.59999999999982,"velocity":0.5905511811023622,"duration":0.29999999999999716},{"name":"D4","midi":62,"time":54.899999999999814,"velocity":0.5905511811023622,"duration":0.29999999999999716},{"name":"E4","midi":64,"time":55.19999999999981,"velocity":0.5905511811023622,"duration":0.29999999999999716},{"name":"G4","midi":67,"time":55.49999999999981,"velocity":0.5905511811023622,"duration":0.14999999999999858},{"name":"F4","midi":65,"time":55.64999999999981,"velocity":0.5905511811023622,"duration":0.14999999999999858},{"name":"G4","midi":67,"time":55.799999999999805,"velocity":0.5905511811023622,"duration":0.2224999999999966},{"name":"C4","midi":60,"time":56.0999999999998,"velocity":0.5905511811023622,"duration":0.2224999999999966},{"name":"A4","midi":69,"time":56.3999999999998,"velocity":0.5905511811023622,"duration":0.07500000000000284},{"name":"G4","midi":67,"time":56.4699999999998,"velocity":0.5905511811023622,"duration":0.07500000000000284},{"name":"A4","midi":69,"time":56.549999999999805,"velocity":0.5905511811023622,"duration":0.45000000000000284},{"name":"G4","midi":67,"time":56.99999999999981,"velocity":0.5905511811023622,"duration":0.6000000000000014},{"name":"F4","midi":65,"time":57.89999999999981,"velocity":0.5905511811023622,"duration":0.14999999999999858},{"name":"E4","midi":64,"time":58.049999999999805,"velocity":0.5905511811023622,"duration":0.14999999999999858},{"name":"F4","midi":65,"time":58.199999999999804,"velocity":0.5905511811023622,"duration":0.14999999999999858},{"name":"G4","midi":67,"time":58.3499999999998,"velocity":0.5905511811023622,"duration":0.14999999999999858},{"name":"E4","midi":64,"time":58.4999999999998,"velocity":0.5905511811023622,"duration":0.14999999999999858},{"name":"F4","midi":65,"time":58.6499999999998,"velocity":0.5905511811023622,"duration":0.14999999999999858},{"name":"D4","midi":62,"time":58.7999999999998,"velocity":0.5905511811023622,"duration":0.14999999999999858},{"name":"F4","midi":65,"time":58.9499999999998,"velocity":0.5905511811023622,"duration":0.14999999999999858},{"name":"E4","midi":64,"time":59.099999999999795,"velocity":0.5905511811023622,"duration":0.14999999999999858},{"name":"F4","midi":65,"time":59.249999999999794,"velocity":0.5905511811023622,"duration":0.14999999999999858},{"name":"G4","midi":67,"time":59.39999999999979,"velocity":0.5905511811023622,"duration":0.14999999999999858},{"name":"A4","midi":69,"time":59.54999999999979,"velocity":0.5905511811023622,"duration":0.14999999999999858},{"name":"F4","midi":65,"time":59.69999999999979,"velocity":0.5905511811023622,"duration":0.14999999999999858},{"name":"G4","midi":67,"time":59.84999999999979,"velocity":0.5905511811023622,"duration":0.14999999999999858},{"name":"E4","midi":64,"time":59.99999999999979,"velocity":0.5905511811023622,"duration":0.14999999999999858},{"name":"D4","midi":62,"time":60.149999999999785,"velocity":0.5905511811023622,"duration":0.14999999999999858},{"name":"E4","midi":64,"time":60.299999999999784,"velocity":0.5905511811023622,"duration":0.14999999999999858},{"name":"F4","midi":65,"time":60.44999999999978,"velocity":0.5905511811023622,"duration":0.14999999999999858},{"name":"E4","midi":64,"time":60.59999999999978,"velocity":0.5905511811023622,"duration":0.14999999999999858},{"name":"F4","midi":65,"time":60.74999999999978,"velocity":0.5905511811023622,"duration":0.14999999999999858},{"name":"D4","midi":62,"time":60.89999999999978,"velocity":0.5905511811023622,"duration":0.14999999999999858},{"name":"E4","midi":64,"time":61.04999999999978,"velocity":0.5905511811023622,"duration":0.14999999999999858},{"name":"C4","midi":60,"time":61.199999999999775,"velocity":0.5905511811023622,"duration":0.14999999999999858},{"name":"B3","midi":59,"time":61.349999999999774,"velocity":0.5905511811023622,"duration":0.14999999999999858},{"name":"C4","midi":60,"time":61.49999999999977,"velocity":0.5905511811023622,"duration":0.14999999999999858},{"name":"D4","midi":62,"time":61.64999999999977,"velocity":0.5905511811023622,"duration":0.14999999999999858},{"name":"C4","midi":60,"time":61.79999999999977,"velocity":0.5905511811023622,"duration":0.14999999999999858},{"name":"D4","midi":62,"time":61.94999999999977,"velocity":0.5905511811023622,"duration":0.14999999999999858},{"name":"B3","midi":59,"time":62.09999999999977,"velocity":0.5905511811023622,"duration":0.14999999999999858},{"name":"C4","midi":60,"time":62.249999999999766,"velocity":0.5905511811023622,"duration":0.14999999999999858},{"name":"A3","midi":57,"time":62.399999999999764,"velocity":0.5905511811023622,"duration":0.14999999999999858},{"name":"B3","midi":59,"time":62.54999999999976,"velocity":0.5905511811023622,"duration":0.14999999999999858},{"name":"C4","midi":60,"time":62.69999999999976,"velocity":0.5905511811023622,"duration":0.14999999999999858},{"name":"D4","midi":62,"time":62.84999999999976,"velocity":0.5905511811023622,"duration":0.14999999999999858},{"name":"E4","midi":64,"time":62.99999999999976,"velocity":0.5905511811023622,"duration":0.14999999999999858},{"name":"F#4","midi":66,"time":63.14999999999976,"velocity":0.5905511811023622,"duration":0.14999999999999858},{"name":"G4","midi":67,"time":63.299999999999756,"velocity":0.5905511811023622,"duration":0.6000000000000014},{"name":"G4","midi":67,"time":63.89999999999976,"velocity":0.5905511811023622,"duration":0.6000000000000014},{"name":"F#4","midi":66,"time":64.49999999999976,"velocity":0.5905511811023622,"duration":0.29999999999999716},{"name":"G4","midi":67,"time":64.79999999999976,"velocity":0.5905511811023622,"duration":0.5999999999999943},{"name":"G4","midi":67,"time":66.29999999999976,"velocity":0.5905511811023622,"duration":0.15000000000000568},{"name":"F4","midi":65,"time":66.44999999999976,"velocity":0.5905511811023622,"duration":0.15000000000000568},{"name":"G4","midi":67,"time":66.59999999999977,"velocity":0.5905511811023622,"duration":0.2224999999999966},{"name":"D4","midi":62,"time":66.89999999999976,"velocity":0.5905511811023622,"duration":0.2224999999999966},{"name":"A4","midi":69,"time":67.19999999999976,"velocity":0.5905511811023622,"duration":0.5999999999999943},{"name":"G4","midi":67,"time":67.79999999999976,"velocity":0.5905511811023622,"duration":0.5999999999999943},{"name":"F4","midi":65,"time":68.39999999999975,"velocity":0.5905511811023622,"duration":0.29999999999999716},{"name":"A4","midi":69,"time":68.69999999999975,"velocity":0.5905511811023622,"duration":0.15000000000000568},{"name":"G4","midi":67,"time":68.84999999999975,"velocity":0.5905511811023622,"duration":0.15000000000000568},{"name":"A4","midi":69,"time":68.99999999999976,"velocity":0.5905511811023622,"duration":0.2224999999999966},{"name":"E4","midi":64,"time":69.29999999999976,"velocity":0.5905511811023622,"duration":0.2224999999999966},{"name":"B4","midi":71,"time":69.59999999999975,"velocity":0.5905511811023622,"duration":0.5999999999999943},{"name":"A4","midi":69,"time":70.19999999999975,"velocity":0.5905511811023622,"duration":0.5999999999999943},{"name":"G4","midi":67,"time":70.79999999999974,"velocity":0.5905511811023622,"duration":0.29999999999999716},{"name":"B4","midi":71,"time":71.09999999999974,"velocity":0.5905511811023622,"duration":0.15000000000000568},{"name":"A4","midi":69,"time":71.24999999999974,"velocity":0.5905511811023622,"duration":0.15000000000000568},{"name":"B4","midi":71,"time":71.39999999999975,"velocity":0.5905511811023622,"duration":0.2224999999999966},{"name":"G4","midi":67,"time":71.69999999999975,"velocity":0.5905511811023622,"duration":0.2224999999999966},{"name":"C5","midi":72,"time":71.99999999999974,"velocity":0.5905511811023622,"duration":0.5999999999999943},{"name":"A#4","midi":70,"time":72.59999999999974,"velocity":0.5905511811023622,"duration":0.5999999999999943},{"name":"A4","midi":69,"time":73.19999999999973,"velocity":0.5905511811023622,"duration":1.2000000000000028},{"name":"G4","midi":67,"time":74.39999999999974,"velocity":0.5905511811023622,"duration":1.2000000000000028},{"name":"F4","midi":65,"time":75.59999999999974,"velocity":0.5905511811023622,"duration":1.7999999999999972},{"name":"E4","midi":64,"time":77.39999999999974,"velocity":0.5905511811023622,"duration":0.5999999999999943},{"name":"D4","midi":62,"time":77.99999999999973,"velocity":0.5905511811023622,"duration":0.75},{"name":"F4","midi":65,"time":78.74999999999973,"velocity":0.5905511811023622,"duration":0.15000000000000568},{"name":"E4","midi":64,"time":78.89999999999974,"velocity":0.5905511811023622,"duration":0.15000000000000568},{"name":"D4","midi":62,"time":79.04999999999974,"velocity":0.5905511811023622,"duration":0.15000000000000568},{"name":"G4","midi":67,"time":79.19999999999975,"velocity":0.5905511811023622,"duration":0.15000000000000568},{"name":"A4","midi":69,"time":79.34999999999975,"velocity":0.5905511811023622,"duration":0.15000000000000568},{"name":"F4","midi":65,"time":79.49999999999976,"velocity":0.5905511811023622,"duration":0.15000000000000568},{"name":"G4","midi":67,"time":79.64999999999976,"velocity":0.5905511811023622,"duration":0.14749999999999375},{"name":"E4","midi":64,"time":79.79999999999976,"velocity":0.5905511811023622,"duration":0.29999999999999716},{"name":"D4","midi":62,"time":80.09999999999975,"velocity":0.5905511811023622,"duration":0.29999999999999716},{"name":"C4","midi":60,"time":80.39999999999975,"velocity":0.5905511811023622,"duration":4.497500000000002},{"name":"B3","midi":59,"time":84.89999999999975,"velocity":0.5905511811023622,"duration":0.29999999999999716},{"name":"C4","midi":60,"time":85.19999999999975,"velocity":0.5905511811023622,"duration":0.29749999999999943},{"name":"G3","midi":55,"time":85.49999999999974,"velocity":0.5905511811023622,"duration":0.15000000000000568},{"name":"F3","midi":53,"time":85.64999999999975,"velocity":0.5905511811023622,"duration":0.15000000000000568},{"name":"G3","midi":55,"time":85.79999999999976,"velocity":0.5905511811023622,"duration":0.2224999999999966},{"name":"C3","midi":48,"time":86.09999999999975,"velocity":0.5905511811023622,"duration":0.2224999999999966},{"name":"A3","midi":57,"time":86.39999999999975,"velocity":0.5905511811023622,"duration":0.07250000000000512},{"name":"G3","midi":55,"time":86.47499999999975,"velocity":0.5905511811023622,"duration":0.07250000000000512},{"name":"A3","midi":57,"time":86.54999999999976,"velocity":0.5905511811023622,"duration":0.4475000000000051},{"name":"G3","midi":55,"time":86.99999999999976,"velocity":0.5905511811023622,"duration":0.5974999999999966},{"name":"F3","midi":53,"time":87.89999999999975,"velocity":0.5905511811023622,"duration":0.15000000000000568},{"name":"E3","midi":52,"time":88.04999999999976,"velocity":0.5905511811023622,"duration":0.14749999999999375},{"name":"F3","midi":53,"time":88.19999999999975,"velocity":0.5905511811023622,"duration":0.2224999999999966},{"name":"D3","midi":50,"time":88.49999999999974,"velocity":0.5905511811023622,"duration":0.2224999999999966},{"name":"G3","midi":55,"time":88.79999999999974,"velocity":0.5905511811023622,"duration":0.5999999999999943},{"name":"A3","midi":57,"time":89.39999999999974,"velocity":0.5905511811023622,"duration":0.29999999999999716},{"name":"B3","midi":59,"time":89.69999999999973,"velocity":0.5905511811023622,"duration":0.29999999999999716},{"name":"C4","midi":60,"time":89.99999999999973,"velocity":0.5905511811023622,"duration":0.29999999999999716},{"name":"A#3","midi":58,"time":90.29999999999973,"velocity":0.5905511811023622,"duration":0.15000000000000568},{"name":"A3","midi":57,"time":90.44999999999973,"velocity":0.5905511811023622,"duration":0.15000000000000568},{"name":"A#3","midi":58,"time":90.59999999999974,"velocity":0.5905511811023622,"duration":0.2224999999999966},{"name":"E4","midi":64,"time":90.89999999999974,"velocity":0.5905511811023622,"duration":0.2224999999999966},{"name":"F4","midi":65,"time":91.19999999999973,"velocity":0.5905511811023622,"duration":0.5999999999999943},{"name":"E4","midi":64,"time":91.79999999999973,"velocity":0.5905511811023622,"duration":0.5999999999999943},{"name":"D4","midi":62,"time":93.89999999999972,"velocity":0.5905511811023622,"duration":0.15000000000000568},{"name":"C4","midi":60,"time":94.04999999999973,"velocity":0.5905511811023622,"duration":0.15000000000000568},{"name":"D4","midi":62,"time":94.19999999999973,"velocity":0.5905511811023622,"duration":0.2224999999999966},{"name":"G3","midi":55,"time":94.49999999999973,"velocity":0.5905511811023622,"duration":0.2224999999999966},{"name":"C4","midi":60,"time":94.79999999999973,"velocity":0.5905511811023622,"duration":0.2224999999999966},{"name":"F4","midi":65,"time":95.09999999999972,"velocity":0.5905511811023622,"duration":0.2224999999999966},{"name":"B3","midi":59,"time":95.09999999999972,"velocity":0.5905511811023622,"duration":0.2224999999999966},{"name":"E4","midi":64,"time":95.39999999999972,"velocity":0.5905511811023622,"duration":0.2224999999999966},{"name":"C4","midi":60,"time":95.39999999999972,"velocity":0.5905511811023622,"duration":0.2224999999999966},{"name":"D4","midi":62,"time":95.69999999999972,"velocity":0.5905511811023622,"duration":0.2224999999999966},{"name":"G#4","midi":68,"time":95.69999999999972,"velocity":0.5905511811023622,"duration":0.2224999999999966},{"name":"G4","midi":67,"time":95.99999999999972,"velocity":0.5905511811023622,"duration":0.2224999999999966},{"name":"E4","midi":64,"time":95.99999999999972,"velocity":0.5905511811023622,"duration":0.2224999999999966},{"name":"D4","midi":62,"time":96.29999999999971,"velocity":0.5905511811023622,"duration":0.2224999999999966},{"name":"B3","midi":59,"time":96.29999999999971,"velocity":0.5905511811023622,"duration":0.2224999999999966},{"name":"C4","midi":60,"time":96.59999999999971,"velocity":0.5905511811023622,"duration":0.2224999999999966},{"name":"E4","midi":64,"time":96.89999999999971,"velocity":0.5905511811023622,"duration":0.2224999999999966},{"name":"D4","midi":62,"time":97.1999999999997,"velocity":0.5905511811023622,"duration":0.2224999999999966},{"name":"A3","midi":57,"time":97.1999999999997,"velocity":0.5905511811023622,"duration":0.2224999999999966},{"name":"D4","midi":62,"time":97.7999999999997,"velocity":0.5905511811023622,"duration":0.2224999999999966},{"name":"G3","midi":55,"time":97.7999999999997,"velocity":0.5905511811023622,"duration":0.2224999999999966},{"name":"G4","midi":67,"time":98.3999999999997,"velocity":0.5905511811023622,"duration":1.2000000000000028},{"name":"E4","midi":64,"time":98.3999999999997,"velocity":0.5905511811023622,"duration":1.2000000000000028},{"name":"C4","midi":60,"time":98.3999999999997,"velocity":0.5905511811023622,"duration":1.2000000000000028}],"controlChanges":{"7":[{"number":7,"time":0,"value":0.7874015748031497}],"10":[{"number":10,"time":0,"value":0.3779527559055118}]},"id":2,"name":"from WTC II","instrumentNumber":6,"instrument":"harpsichord","instrumentFamily":"piano","channelNumber":0,"isPercussion":false},{"startTime":9.9,"duration":99.6000000000008,"length":383,"notes":[{"name":"G3","midi":55,"time":9.9,"velocity":0.5905511811023622,"duration":0.15000000000000036},{"name":"F3","midi":53,"time":10.05,"velocity":0.5905511811023622,"duration":0.15000000000000036},{"name":"G3","midi":55,"time":10.200000000000001,"velocity":0.5905511811023622,"duration":0.14750000000000085},{"name":"C3","midi":48,"time":10.500000000000002,"velocity":0.5905511811023622,"duration":0.14750000000000085},{"name":"A3","midi":57,"time":10.800000000000002,"velocity":0.5905511811023622,"duration":0.07500000000000107},{"name":"G3","midi":55,"time":10.870000000000003,"velocity":0.5905511811023622,"duration":0.07500000000000107},{"name":"A3","midi":57,"time":10.950000000000005,"velocity":0.5905511811023622,"duration":0.4499999999999993},{"name":"G3","midi":55,"time":11.400000000000004,"velocity":0.5905511811023622,"duration":0.5999999999999996},{"name":"F3","midi":53,"time":12.300000000000004,"velocity":0.5905511811023622,"duration":0.15000000000000036},{"name":"E3","midi":52,"time":12.450000000000005,"velocity":0.5905511811023622,"duration":0.15000000000000036},{"name":"F3","midi":53,"time":12.600000000000005,"velocity":0.5905511811023622,"duration":0.15000000000000036},{"name":"G3","midi":55,"time":12.750000000000005,"velocity":0.5905511811023622,"duration":0.15000000000000036},{"name":"E3","midi":52,"time":12.900000000000006,"velocity":0.5905511811023622,"duration":0.15000000000000036},{"name":"F3","midi":53,"time":13.050000000000006,"velocity":0.5905511811023622,"duration":0.15000000000000036},{"name":"D3","midi":50,"time":13.200000000000006,"velocity":0.5905511811023622,"duration":0.15000000000000036},{"name":"F3","midi":53,"time":13.350000000000007,"velocity":0.5905511811023622,"duration":0.15000000000000036},{"name":"E3","midi":52,"time":13.500000000000007,"velocity":0.5905511811023622,"duration":0.15000000000000036},{"name":"F3","midi":53,"time":13.650000000000007,"velocity":0.5905511811023622,"duration":0.15000000000000036},{"name":"G3","midi":55,"time":13.800000000000008,"velocity":0.5905511811023622,"duration":0.15000000000000036},{"name":"A3","midi":57,"time":13.950000000000008,"velocity":0.5905511811023622,"duration":0.15000000000000036},{"name":"F3","midi":53,"time":14.100000000000009,"velocity":0.5905511811023622,"duration":0.15000000000000036},{"name":"G3","midi":55,"time":14.250000000000009,"velocity":0.5905511811023622,"duration":0.15000000000000036},{"name":"E3","midi":52,"time":14.40000000000001,"velocity":0.5905511811023622,"duration":0.15000000000000036},{"name":"D3","midi":50,"time":14.55000000000001,"velocity":0.5905511811023622,"duration":0.15000000000000036},{"name":"E3","midi":52,"time":14.70000000000001,"velocity":0.5905511811023622,"duration":0.15000000000000036},{"name":"F3","midi":53,"time":14.85000000000001,"velocity":0.5905511811023622,"duration":0.15000000000000036},{"name":"E3","midi":52,"time":15.00000000000001,"velocity":0.5905511811023622,"duration":0.15000000000000036},{"name":"F3","midi":53,"time":15.150000000000011,"velocity":0.5905511811023622,"duration":0.15000000000000036},{"name":"D3","midi":50,"time":15.300000000000011,"velocity":0.5905511811023622,"duration":0.15000000000000036},{"name":"E3","midi":52,"time":15.450000000000012,"velocity":0.5905511811023622,"duration":0.15000000000000036},{"name":"F3","midi":53,"time":15.600000000000012,"velocity":0.5905511811023622,"duration":0.15000000000000036},{"name":"E3","midi":52,"time":15.750000000000012,"velocity":0.5905511811023622,"duration":0.15000000000000036},{"name":"F3","midi":53,"time":15.900000000000013,"velocity":0.5905511811023622,"duration":0.14999999999999858},{"name":"G3","midi":55,"time":16.05000000000001,"velocity":0.5905511811023622,"duration":0.14999999999999858},{"name":"F3","midi":53,"time":16.20000000000001,"velocity":0.5905511811023622,"duration":0.14999999999999858},{"name":"G3","midi":55,"time":16.35000000000001,"velocity":0.5905511811023622,"duration":0.14999999999999858},{"name":"E3","midi":52,"time":16.500000000000007,"velocity":0.5905511811023622,"duration":0.14999999999999858},{"name":"F3","midi":53,"time":16.650000000000006,"velocity":0.5905511811023622,"duration":0.14999999999999858},{"name":"D3","midi":50,"time":16.800000000000004,"velocity":0.5905511811023622,"duration":0.14999999999999858},{"name":"C#3","midi":49,"time":16.950000000000003,"velocity":0.5905511811023622,"duration":0.14999999999999858},{"name":"D3","midi":50,"time":17.1,"velocity":0.5905511811023622,"duration":0.14999999999999858},{"name":"E3","midi":52,"time":17.25,"velocity":0.5905511811023622,"duration":0.14999999999999858},{"name":"F#3","midi":54,"time":17.4,"velocity":0.5905511811023622,"duration":0.14999999999999858},{"name":"G3","midi":55,"time":17.549999999999997,"velocity":0.5905511811023622,"duration":0.14999999999999858},{"name":"E3","midi":52,"time":17.699999999999996,"velocity":0.5905511811023622,"duration":0.14999999999999858},{"name":"F#3","midi":54,"time":17.849999999999994,"velocity":0.5905511811023622,"duration":0.14999999999999858},{"name":"G3","midi":55,"time":17.999999999999993,"velocity":0.5905511811023622,"duration":0.14999999999999858},{"name":"F#3","midi":54,"time":18.14999999999999,"velocity":0.5905511811023622,"duration":0.14999999999999858},{"name":"G3","midi":55,"time":18.29999999999999,"velocity":0.5905511811023622,"duration":0.14999999999999858},{"name":"A3","midi":57,"time":18.44999999999999,"velocity":0.5905511811023622,"duration":0.14999999999999858},{"name":"G3","midi":55,"time":18.599999999999987,"velocity":0.5905511811023622,"duration":0.14999999999999858},{"name":"A3","midi":57,"time":18.749999999999986,"velocity":0.5905511811023622,"duration":0.14999999999999858},{"name":"F3","midi":53,"time":18.899999999999984,"velocity":0.5905511811023622,"duration":0.14999999999999858},{"name":"G3","midi":55,"time":19.049999999999983,"velocity":0.5905511811023622,"duration":0.14999999999999858},{"name":"E3","midi":52,"time":19.19999999999998,"velocity":0.5905511811023622,"duration":0.14999999999999858},{"name":"D3","midi":50,"time":19.34999999999998,"velocity":0.5905511811023622,"duration":0.14999999999999858},{"name":"E3","midi":52,"time":19.49999999999998,"velocity":0.5905511811023622,"duration":0.14999999999999858},{"name":"F#3","midi":54,"time":19.649999999999977,"velocity":0.5905511811023622,"duration":0.14999999999999858},{"name":"G#3","midi":56,"time":19.799999999999976,"velocity":0.5905511811023622,"duration":0.14999999999999858},{"name":"A3","midi":57,"time":19.949999999999974,"velocity":0.5905511811023622,"duration":0.14999999999999858},{"name":"F#3","midi":54,"time":20.099999999999973,"velocity":0.5905511811023622,"duration":0.14999999999999858},{"name":"G#3","midi":56,"time":20.24999999999997,"velocity":0.5905511811023622,"duration":0.14999999999999858},{"name":"A3","midi":57,"time":20.39999999999997,"velocity":0.5905511811023622,"duration":0.14999999999999858},{"name":"G#3","midi":56,"time":20.54999999999997,"velocity":0.5905511811023622,"duration":0.14999999999999858},{"name":"A3","midi":57,"time":20.699999999999967,"velocity":0.5905511811023622,"duration":0.14999999999999858},{"name":"B3","midi":59,"time":20.849999999999966,"velocity":0.5905511811023622,"duration":0.14999999999999858},{"name":"A3","midi":57,"time":20.999999999999964,"velocity":0.5905511811023622,"duration":0.14999999999999858},{"name":"B3","midi":59,"time":21.149999999999963,"velocity":0.5905511811023622,"duration":0.14999999999999858},{"name":"G3","midi":55,"time":21.29999999999996,"velocity":0.5905511811023622,"duration":0.14999999999999858},{"name":"A3","midi":57,"time":21.44999999999996,"velocity":0.5905511811023622,"duration":0.14999999999999858},{"name":"F#3","midi":54,"time":21.59999999999996,"velocity":0.5905511811023622,"duration":0.14999999999999858},{"name":"G3","midi":55,"time":21.749999999999957,"velocity":0.5905511811023622,"duration":0.14999999999999858},{"name":"E3","midi":52,"time":21.899999999999956,"velocity":0.5905511811023622,"duration":0.14999999999999858},{"name":"F#3","midi":54,"time":22.049999999999955,"velocity":0.5905511811023622,"duration":0.14999999999999858},{"name":"G3","midi":55,"time":22.199999999999953,"velocity":0.5905511811023622,"duration":0.14999999999999858},{"name":"A3","midi":57,"time":22.34999999999995,"velocity":0.5905511811023622,"duration":0.14999999999999858},{"name":"B3","midi":59,"time":22.49999999999995,"velocity":0.5905511811023622,"duration":0.14999999999999858},{"name":"G3","midi":55,"time":22.64999999999995,"velocity":0.5905511811023622,"duration":0.14999999999999858},{"name":"C4","midi":60,"time":22.799999999999947,"velocity":0.5905511811023622,"duration":0.14999999999999858},{"name":"B3","midi":59,"time":22.949999999999946,"velocity":0.5905511811023622,"duration":0.14999999999999858},{"name":"C4","midi":60,"time":23.099999999999945,"velocity":0.5905511811023622,"duration":0.14999999999999858},{"name":"D4","midi":62,"time":23.249999999999943,"velocity":0.5905511811023622,"duration":0.14999999999999858},{"name":"C4","midi":60,"time":23.39999999999994,"velocity":0.5905511811023622,"duration":0.14999999999999858},{"name":"D4","midi":62,"time":23.54999999999994,"velocity":0.5905511811023622,"duration":0.14999999999999858},{"name":"B3","midi":59,"time":23.69999999999994,"velocity":0.5905511811023622,"duration":0.14999999999999858},{"name":"C4","midi":60,"time":23.849999999999937,"velocity":0.5905511811023622,"duration":0.14999999999999858},{"name":"D4","midi":62,"time":23.999999999999936,"velocity":0.5905511811023622,"duration":1.1975000000000016},{"name":"G3","midi":55,"time":25.19999999999994,"velocity":0.5905511811023622,"duration":0.3000000000000007},{"name":"G4","midi":67,"time":25.49999999999994,"velocity":0.5905511811023622,"duration":0.14999999999999858},{"name":"F4","midi":65,"time":25.649999999999938,"velocity":0.5905511811023622,"duration":0.14999999999999858},{"name":"G4","midi":67,"time":25.799999999999937,"velocity":0.5905511811023622,"duration":0.14999999999999858},{"name":"A4","midi":69,"time":25.949999999999935,"velocity":0.5905511811023622,"duration":0.14999999999999858},{"name":"F4","midi":65,"time":26.099999999999934,"velocity":0.5905511811023622,"duration":0.14999999999999858},{"name":"G4","midi":67,"time":26.249999999999932,"velocity":0.5905511811023622,"duration":0.14999999999999858},{"name":"E4","midi":64,"time":26.39999999999993,"velocity":0.5905511811023622,"duration":1.1999999999999993},{"name":"D4","midi":62,"time":27.89999999999993,"velocity":0.5905511811023622,"duration":0.14750000000000085},{"name":"F3","midi":53,"time":28.199999999999932,"velocity":0.5905511811023622,"duration":0.14750000000000085},{"name":"A3","midi":57,"time":28.499999999999932,"velocity":0.5905511811023622,"duration":0.14750000000000085},{"name":"D3","midi":50,"time":28.799999999999933,"velocity":0.5905511811023622,"duration":0.3000000000000007},{"name":"C3","midi":48,"time":45.899999999999935,"velocity":0.5905511811023622,"duration":0.14999999999999858},{"name":"B2","midi":47,"time":46.04999999999993,"velocity":0.5905511811023622,"duration":0.14999999999999858},{"name":"C3","midi":48,"time":46.19999999999993,"velocity":0.5905511811023622,"duration":0.2224999999999966},{"name":"G2","midi":43,"time":46.49999999999993,"velocity":0.5905511811023622,"duration":0.2224999999999966},{"name":"E3","midi":52,"time":46.799999999999926,"velocity":0.5905511811023622,"duration":0.07500000000000284},{"name":"D3","midi":50,"time":46.869999999999926,"velocity":0.5905511811023622,"duration":0.07500000000000284},{"name":"E3","midi":52,"time":46.94999999999993,"velocity":0.5905511811023622,"duration":0.45000000000000284},{"name":"D3","midi":50,"time":47.399999999999935,"velocity":0.5905511811023622,"duration":0.6000000000000014},{"name":"C3","midi":48,"time":48.29999999999993,"velocity":0.5905511811023622,"duration":0.14999999999999858},{"name":"B2","midi":47,"time":48.44999999999993,"velocity":0.5905511811023622,"duration":0.14999999999999858},{"name":"C3","midi":48,"time":48.59999999999993,"velocity":0.5905511811023622,"duration":0.14999999999999858},{"name":"D3","midi":50,"time":48.74999999999993,"velocity":0.5905511811023622,"duration":0.14999999999999858},{"name":"B2","midi":47,"time":48.89999999999993,"velocity":0.5905511811023622,"duration":0.14999999999999858},{"name":"C3","midi":48,"time":49.049999999999926,"velocity":0.5905511811023622,"duration":0.14999999999999858},{"name":"A2","midi":45,"time":49.199999999999925,"velocity":0.5905511811023622,"duration":0.14999999999999858},{"name":"C3","midi":48,"time":49.34999999999992,"velocity":0.5905511811023622,"duration":0.14999999999999858},{"name":"B2","midi":47,"time":49.49999999999992,"velocity":0.5905511811023622,"duration":0.14999999999999858},{"name":"C3","midi":48,"time":49.64999999999992,"velocity":0.5905511811023622,"duration":0.14999999999999858},{"name":"D3","midi":50,"time":49.79999999999992,"velocity":0.5905511811023622,"duration":0.14999999999999858},{"name":"E3","midi":52,"time":49.94999999999992,"velocity":0.5905511811023622,"duration":0.14999999999999858},{"name":"C3","midi":48,"time":50.099999999999916,"velocity":0.5905511811023622,"duration":0.14999999999999858},{"name":"D3","midi":50,"time":50.249999999999915,"velocity":0.5905511811023622,"duration":0.14999999999999858},{"name":"B2","midi":47,"time":50.39999999999991,"velocity":0.5905511811023622,"duration":0.14999999999999858},{"name":"D3","midi":50,"time":50.54999999999991,"velocity":0.5905511811023622,"duration":0.14999999999999858},{"name":"C3","midi":48,"time":50.69999999999991,"velocity":0.5905511811023622,"duration":0.14999999999999858},{"name":"D3","midi":50,"time":50.84999999999991,"velocity":0.5905511811023622,"duration":0.14999999999999858},{"name":"E3","midi":52,"time":50.99999999999991,"velocity":0.5905511811023622,"duration":0.14999999999999858},{"name":"F3","midi":53,"time":51.149999999999906,"velocity":0.5905511811023622,"duration":0.14999999999999858},{"name":"D3","midi":50,"time":51.299999999999905,"velocity":0.5905511811023622,"duration":0.14999999999999858},{"name":"E3","midi":52,"time":51.4499999999999,"velocity":0.5905511811023622,"duration":0.14999999999999858},{"name":"C3","midi":48,"time":51.5999999999999,"velocity":0.5905511811023622,"duration":0.14999999999999858},{"name":"E3","midi":52,"time":51.7499999999999,"velocity":0.5905511811023622,"duration":0.14999999999999858},{"name":"D3","midi":50,"time":51.8999999999999,"velocity":0.5905511811023622,"duration":0.14999999999999858},{"name":"E3","midi":52,"time":52.0499999999999,"velocity":0.5905511811023622,"duration":0.14999999999999858},{"name":"F3","midi":53,"time":52.199999999999896,"velocity":0.5905511811023622,"duration":0.14999999999999858},{"name":"G3","midi":55,"time":52.349999999999895,"velocity":0.5905511811023622,"duration":0.14999999999999858},{"name":"E3","midi":52,"time":52.49999999999989,"velocity":0.5905511811023622,"duration":0.14999999999999858},{"name":"F3","midi":53,"time":52.64999999999989,"velocity":0.5905511811023622,"duration":0.14999999999999858},{"name":"D3","midi":50,"time":52.79999999999989,"velocity":0.5905511811023622,"duration":0.14999999999999858},{"name":"F3","midi":53,"time":52.94999999999989,"velocity":0.5905511811023622,"duration":0.14999999999999858},{"name":"E3","midi":52,"time":53.09999999999989,"velocity":0.5905511811023622,"duration":0.14999999999999858},{"name":"F3","midi":53,"time":53.249999999999886,"velocity":0.5905511811023622,"duration":0.14999999999999858},{"name":"G3","midi":55,"time":53.399999999999885,"velocity":0.5905511811023622,"duration":0.14999999999999858},{"name":"A3","midi":57,"time":53.54999999999988,"velocity":0.5905511811023622,"duration":0.14999999999999858},{"name":"F3","midi":53,"time":53.69999999999988,"velocity":0.5905511811023622,"duration":0.14999999999999858},{"name":"G3","midi":55,"time":53.84999999999988,"velocity":0.5905511811023622,"duration":0.14999999999999858},{"name":"E3","midi":52,"time":53.99999999999988,"velocity":0.5905511811023622,"duration":0.14999999999999858},{"name":"D3","midi":50,"time":54.14999999999988,"velocity":0.5905511811023622,"duration":0.14999999999999858},{"name":"E3","midi":52,"time":54.299999999999876,"velocity":0.5905511811023622,"duration":0.14999999999999858},{"name":"F3","midi":53,"time":54.449999999999875,"velocity":0.5905511811023622,"duration":0.14999999999999858},{"name":"E3","midi":52,"time":54.59999999999987,"velocity":0.5905511811023622,"duration":0.14999999999999858},{"name":"F3","midi":53,"time":54.74999999999987,"velocity":0.5905511811023622,"duration":0.14999999999999858},{"name":"D3","midi":50,"time":54.89999999999987,"velocity":0.5905511811023622,"duration":0.14999999999999858},{"name":"E3","midi":52,"time":55.04999999999987,"velocity":0.5905511811023622,"duration":0.14999999999999858},{"name":"C3","midi":48,"time":55.19999999999987,"velocity":0.5905511811023622,"duration":0.14999999999999858},{"name":"D3","midi":50,"time":55.349999999999866,"velocity":0.5905511811023622,"duration":0.14999999999999858},{"name":"E3","midi":52,"time":55.499999999999865,"velocity":0.5905511811023622,"duration":0.14999999999999858},{"name":"D3","midi":50,"time":55.649999999999864,"velocity":0.5905511811023622,"duration":0.14999999999999858},{"name":"C3","midi":48,"time":55.79999999999986,"velocity":0.5905511811023622,"duration":0.14999999999999858},{"name":"A#2","midi":46,"time":55.94999999999986,"velocity":0.5905511811023622,"duration":0.14999999999999858},{"name":"A2","midi":45,"time":56.09999999999986,"velocity":0.5905511811023622,"duration":0.14999999999999858},{"name":"G2","midi":43,"time":56.24999999999986,"velocity":0.5905511811023622,"duration":0.14999999999999858},{"name":"F2","midi":41,"time":56.39999999999986,"velocity":0.5905511811023622,"duration":0.14999999999999858},{"name":"E2","midi":40,"time":56.549999999999855,"velocity":0.5905511811023622,"duration":0.14999999999999858},{"name":"F2","midi":41,"time":56.699999999999854,"velocity":0.5905511811023622,"duration":0.14999999999999858},{"name":"G2","midi":43,"time":56.84999999999985,"velocity":0.5905511811023622,"duration":0.14999999999999858},{"name":"F2","midi":41,"time":56.99999999999985,"velocity":0.5905511811023622,"duration":0.14999999999999858},{"name":"G2","midi":43,"time":57.14999999999985,"velocity":0.5905511811023622,"duration":0.14999999999999858},{"name":"E2","midi":40,"time":57.29999999999985,"velocity":0.5905511811023622,"duration":0.14999999999999858},{"name":"F2","midi":41,"time":57.44999999999985,"velocity":0.5905511811023622,"duration":0.14999999999999858},{"name":"D2","midi":38,"time":57.599999999999845,"velocity":0.5905511811023622,"duration":0.14999999999999858},{"name":"A2","midi":45,"time":57.749999999999844,"velocity":0.5905511811023622,"duration":0.14999999999999858},{"name":"B2","midi":47,"time":57.89999999999984,"velocity":0.5905511811023622,"duration":0.14999999999999858},{"name":"C3","midi":48,"time":58.04999999999984,"velocity":0.5905511811023622,"duration":0.14999999999999858},{"name":"D3","midi":50,"time":58.19999999999984,"velocity":0.5905511811023622,"duration":0.14999999999999858},{"name":"E3","midi":52,"time":58.34999999999984,"velocity":0.5905511811023622,"duration":0.14999999999999858},{"name":"F3","midi":53,"time":58.49999999999984,"velocity":0.5905511811023622,"duration":0.14999999999999858},{"name":"D3","midi":50,"time":58.649999999999835,"velocity":0.5905511811023622,"duration":0.14999999999999858},{"name":"G3","midi":55,"time":58.799999999999834,"velocity":0.5905511811023622,"duration":3.6000000000000014},{"name":"B3","midi":59,"time":63.299999999999834,"velocity":0.5905511811023622,"duration":0.2224999999999966},{"name":"C4","midi":60,"time":63.59999999999983,"velocity":0.5905511811023622,"duration":0.2224999999999966},{"name":"A3","midi":57,"time":63.89999999999983,"velocity":0.5905511811023622,"duration":0.2225000000000037},{"name":"D4","midi":62,"time":64.19999999999983,"velocity":0.5905511811023622,"duration":0.2224999999999966},{"name":"D3","midi":50,"time":64.49999999999983,"velocity":0.5905511811023622,"duration":0.2224999999999966},{"name":"G2","midi":43,"time":64.79999999999983,"velocity":0.5905511811023622,"duration":0.15000000000000568},{"name":"F#2","midi":42,"time":64.94999999999983,"velocity":0.5905511811023622,"duration":0.15000000000000568},{"name":"G2","midi":43,"time":65.09999999999984,"velocity":0.5905511811023622,"duration":0.15000000000000568},{"name":"A2","midi":45,"time":65.24999999999984,"velocity":0.5905511811023622,"duration":0.15000000000000568},{"name":"B2","midi":47,"time":65.39999999999985,"velocity":0.5905511811023622,"duration":0.15000000000000568},{"name":"C3","midi":48,"time":65.54999999999986,"velocity":0.5905511811023622,"duration":0.15000000000000568},{"name":"A2","midi":45,"time":65.69999999999986,"velocity":0.5905511811023622,"duration":0.15000000000000568},{"name":"B2","midi":47,"time":65.84999999999987,"velocity":0.5905511811023622,"duration":0.15000000000000568},{"name":"C3","midi":48,"time":65.99999999999987,"velocity":0.5905511811023622,"duration":0.15000000000000568},{"name":"B2","midi":47,"time":66.14999999999988,"velocity":0.5905511811023622,"duration":0.15000000000000568},{"name":"C3","midi":48,"time":66.29999999999988,"velocity":0.5905511811023622,"duration":0.15000000000000568},{"name":"D3","midi":50,"time":66.44999999999989,"velocity":0.5905511811023622,"duration":0.15000000000000568},{"name":"C3","midi":48,"time":66.5999999999999,"velocity":0.5905511811023622,"duration":0.15000000000000568},{"name":"D3","midi":50,"time":66.7499999999999,"velocity":0.5905511811023622,"duration":0.15000000000000568},{"name":"B2","midi":47,"time":66.8999999999999,"velocity":0.5905511811023622,"duration":0.15000000000000568},{"name":"C3","midi":48,"time":67.04999999999991,"velocity":0.5905511811023622,"duration":0.15000000000000568},{"name":"A2","midi":45,"time":67.19999999999992,"velocity":0.5905511811023622,"duration":0.15000000000000568},{"name":"G#2","midi":44,"time":67.34999999999992,"velocity":0.5905511811023622,"duration":0.15000000000000568},{"name":"A2","midi":45,"time":67.49999999999993,"velocity":0.5905511811023622,"duration":0.15000000000000568},{"name":"B2","midi":47,"time":67.64999999999993,"velocity":0.5905511811023622,"duration":0.15000000000000568},{"name":"C3","midi":48,"time":67.79999999999994,"velocity":0.5905511811023622,"duration":0.15000000000000568},{"name":"D3","midi":50,"time":67.94999999999995,"velocity":0.5905511811023622,"duration":0.15000000000000568},{"name":"B2","midi":47,"time":68.09999999999995,"velocity":0.5905511811023622,"duration":0.15000000000000568},{"name":"C3","midi":48,"time":68.24999999999996,"velocity":0.5905511811023622,"duration":0.15000000000000568},{"name":"D3","midi":50,"time":68.39999999999996,"velocity":0.5905511811023622,"duration":0.15000000000000568},{"name":"C3","midi":48,"time":68.54999999999997,"velocity":0.5905511811023622,"duration":0.15000000000000568},{"name":"D3","midi":50,"time":68.69999999999997,"velocity":0.5905511811023622,"duration":0.15000000000000568},{"name":"E3","midi":52,"time":68.84999999999998,"velocity":0.5905511811023622,"duration":0.15000000000000568},{"name":"D3","midi":50,"time":68.99999999999999,"velocity":0.5905511811023622,"duration":0.15000000000000568},{"name":"E3","midi":52,"time":69.14999999999999,"velocity":0.5905511811023622,"duration":0.15000000000000568},{"name":"C3","midi":48,"time":69.3,"velocity":0.5905511811023622,"duration":0.15000000000000568},{"name":"D3","midi":50,"time":69.45,"velocity":0.5905511811023622,"duration":0.15000000000000568},{"name":"B2","midi":47,"time":69.60000000000001,"velocity":0.5905511811023622,"duration":0.15000000000000568},{"name":"A2","midi":45,"time":69.75000000000001,"velocity":0.5905511811023622,"duration":0.15000000000000568},{"name":"B2","midi":47,"time":69.90000000000002,"velocity":0.5905511811023622,"duration":0.15000000000000568},{"name":"C3","midi":48,"time":70.05000000000003,"velocity":0.5905511811023622,"duration":0.15000000000000568},{"name":"D3","midi":50,"time":70.20000000000003,"velocity":0.5905511811023622,"duration":0.15000000000000568},{"name":"E3","midi":52,"time":70.35000000000004,"velocity":0.5905511811023622,"duration":0.15000000000000568},{"name":"C3","midi":48,"time":70.50000000000004,"velocity":0.5905511811023622,"duration":0.15000000000000568},{"name":"D3","midi":50,"time":70.65000000000005,"velocity":0.5905511811023622,"duration":0.15000000000000568},{"name":"E3","midi":52,"time":70.80000000000005,"velocity":0.5905511811023622,"duration":0.15000000000000568},{"name":"D3","midi":50,"time":70.95000000000006,"velocity":0.5905511811023622,"duration":0.15000000000000568},{"name":"E3","midi":52,"time":71.10000000000007,"velocity":0.5905511811023622,"duration":0.15000000000000568},{"name":"F3","midi":53,"time":71.25000000000007,"velocity":0.5905511811023622,"duration":0.15000000000000568},{"name":"E3","midi":52,"time":71.40000000000008,"velocity":0.5905511811023622,"duration":0.15000000000000568},{"name":"F3","midi":53,"time":71.55000000000008,"velocity":0.5905511811023622,"duration":0.15000000000000568},{"name":"D3","midi":50,"time":71.70000000000009,"velocity":0.5905511811023622,"duration":0.15000000000000568},{"name":"E3","midi":52,"time":71.8500000000001,"velocity":0.5905511811023622,"duration":0.15000000000000568},{"name":"C3","midi":48,"time":72.0000000000001,"velocity":0.5905511811023622,"duration":0.15000000000000568},{"name":"B2","midi":47,"time":72.1500000000001,"velocity":0.5905511811023622,"duration":0.15000000000000568},{"name":"C3","midi":48,"time":72.30000000000011,"velocity":0.5905511811023622,"duration":0.15000000000000568},{"name":"D3","midi":50,"time":72.45000000000012,"velocity":0.5905511811023622,"duration":0.15000000000000568},{"name":"E3","midi":52,"time":72.60000000000012,"velocity":0.5905511811023622,"duration":0.15000000000000568},{"name":"F3","midi":53,"time":72.75000000000013,"velocity":0.5905511811023622,"duration":0.15000000000000568},{"name":"D3","midi":50,"time":72.90000000000013,"velocity":0.5905511811023622,"duration":0.15000000000000568},{"name":"E3","midi":52,"time":73.05000000000014,"velocity":0.5905511811023622,"duration":0.15000000000000568},{"name":"F3","midi":53,"time":73.20000000000014,"velocity":0.5905511811023622,"duration":0.15000000000000568},{"name":"G3","midi":55,"time":73.35000000000015,"velocity":0.5905511811023622,"duration":0.15000000000000568},{"name":"F3","midi":53,"time":73.50000000000016,"velocity":0.5905511811023622,"duration":0.15000000000000568},{"name":"E3","midi":52,"time":73.65000000000016,"velocity":0.5905511811023622,"duration":0.15000000000000568},{"name":"D3","midi":50,"time":73.80000000000017,"velocity":0.5905511811023622,"duration":0.15000000000000568},{"name":"C3","midi":48,"time":73.95000000000017,"velocity":0.5905511811023622,"duration":0.15000000000000568},{"name":"B2","midi":47,"time":74.10000000000018,"velocity":0.5905511811023622,"duration":0.15000000000000568},{"name":"A2","midi":45,"time":74.25000000000018,"velocity":0.5905511811023622,"duration":0.15000000000000568},{"name":"B2","midi":47,"time":74.40000000000019,"velocity":0.5905511811023622,"duration":0.15000000000000568},{"name":"G2","midi":43,"time":74.5500000000002,"velocity":0.5905511811023622,"duration":0.15000000000000568},{"name":"A2","midi":45,"time":74.7000000000002,"velocity":0.5905511811023622,"duration":0.15000000000000568},{"name":"B2","midi":47,"time":74.85000000000021,"velocity":0.5905511811023622,"duration":0.15000000000000568},{"name":"C3","midi":48,"time":75.00000000000021,"velocity":0.5905511811023622,"duration":0.15000000000000568},{"name":"D3","midi":50,"time":75.15000000000022,"velocity":0.5905511811023622,"duration":0.15000000000000568},{"name":"B2","midi":47,"time":75.30000000000022,"velocity":0.5905511811023622,"duration":0.15000000000000568},{"name":"C3","midi":48,"time":75.45000000000023,"velocity":0.5905511811023622,"duration":0.15000000000000568},{"name":"A2","midi":45,"time":75.60000000000024,"velocity":0.5905511811023622,"duration":0.15000000000000568},{"name":"C3","midi":48,"time":75.75000000000024,"velocity":0.5905511811023622,"duration":0.15000000000000568},{"name":"B2","midi":47,"time":75.90000000000025,"velocity":0.5905511811023622,"duration":0.15000000000000568},{"name":"C3","midi":48,"time":76.05000000000025,"velocity":0.5905511811023622,"duration":0.15000000000000568},{"name":"D3","midi":50,"time":76.20000000000026,"velocity":0.5905511811023622,"duration":0.15000000000000568},{"name":"E3","midi":52,"time":76.35000000000026,"velocity":0.5905511811023622,"duration":0.15000000000000568},{"name":"F3","midi":53,"time":76.50000000000027,"velocity":0.5905511811023622,"duration":0.15000000000000568},{"name":"D3","midi":50,"time":76.65000000000028,"velocity":0.5905511811023622,"duration":0.15000000000000568},{"name":"G3","midi":55,"time":76.80000000000028,"velocity":0.5905511811023622,"duration":0.15000000000000568},{"name":"A3","midi":57,"time":76.95000000000029,"velocity":0.5905511811023622,"duration":0.15000000000000568},{"name":"F3","midi":53,"time":77.10000000000029,"velocity":0.5905511811023622,"duration":0.15000000000000568},{"name":"G3","midi":55,"time":77.2500000000003,"velocity":0.5905511811023622,"duration":0.15000000000000568},{"name":"A3","midi":57,"time":77.4000000000003,"velocity":0.5905511811023622,"duration":0.15000000000000568},{"name":"B3","midi":59,"time":77.55000000000031,"velocity":0.5905511811023622,"duration":0.15000000000000568},{"name":"G3","midi":55,"time":77.70000000000032,"velocity":0.5905511811023622,"duration":0.15000000000000568},{"name":"A3","midi":57,"time":77.85000000000032,"velocity":0.5905511811023622,"duration":0.15000000000000568},{"name":"F3","midi":53,"time":78.00000000000033,"velocity":0.5905511811023622,"duration":0.15000000000000568},{"name":"G3","midi":55,"time":78.15000000000033,"velocity":0.5905511811023622,"duration":0.15000000000000568},{"name":"E3","midi":52,"time":78.30000000000034,"velocity":0.5905511811023622,"duration":0.15000000000000568},{"name":"F3","midi":53,"time":78.45000000000034,"velocity":0.5905511811023622,"duration":0.15000000000000568},{"name":"G3","midi":55,"time":78.60000000000035,"velocity":0.5905511811023622,"duration":0.15000000000000568},{"name":"A3","midi":57,"time":78.75000000000036,"velocity":0.5905511811023622,"duration":0.15000000000000568},{"name":"F3","midi":53,"time":78.90000000000036,"velocity":0.5905511811023622,"duration":0.15000000000000568},{"name":"G3","midi":55,"time":79.05000000000037,"velocity":0.5905511811023622,"duration":0.15000000000000568},{"name":"E3","midi":52,"time":79.20000000000037,"velocity":0.5905511811023622,"duration":0.29999999999999716},{"name":"F3","midi":53,"time":79.50000000000037,"velocity":0.5905511811023622,"duration":0.29999999999999716},{"name":"G3","midi":55,"time":79.80000000000037,"velocity":0.5905511811023622,"duration":0.29999999999999716},{"name":"G#3","midi":56,"time":80.10000000000036,"velocity":0.5905511811023622,"duration":0.29999999999999716},{"name":"A2","midi":45,"time":80.40000000000036,"velocity":0.5905511811023622,"duration":0.29999999999999716},{"name":"G3","midi":55,"time":80.70000000000036,"velocity":0.5905511811023622,"duration":0.15000000000000568},{"name":"F3","midi":53,"time":80.85000000000036,"velocity":0.5905511811023622,"duration":0.15000000000000568},{"name":"G3","midi":55,"time":81.00000000000037,"velocity":0.5905511811023622,"duration":0.2224999999999966},{"name":"C3","midi":48,"time":81.30000000000037,"velocity":0.5905511811023622,"duration":0.2224999999999966},{"name":"A3","midi":57,"time":81.60000000000036,"velocity":0.5905511811023622,"duration":0.07250000000000512},{"name":"G3","midi":55,"time":81.67500000000037,"velocity":0.5905511811023622,"duration":0.07250000000000512},{"name":"A3","midi":57,"time":81.75000000000037,"velocity":0.5905511811023622,"duration":0.4475000000000051},{"name":"G3","midi":55,"time":82.20000000000037,"velocity":0.5905511811023622,"duration":0.5999999999999943},{"name":"F3","midi":53,"time":83.10000000000036,"velocity":0.5905511811023622,"duration":0.15000000000000568},{"name":"E3","midi":52,"time":83.25000000000037,"velocity":0.5905511811023622,"duration":0.15000000000000568},{"name":"F3","midi":53,"time":83.40000000000038,"velocity":0.5905511811023622,"duration":0.2224999999999966},{"name":"D3","midi":50,"time":83.70000000000037,"velocity":0.5905511811023622,"duration":0.2224999999999966},{"name":"G3","midi":55,"time":84.00000000000037,"velocity":0.5905511811023622,"duration":0.07250000000000512},{"name":"F3","midi":53,"time":84.07500000000037,"velocity":0.5905511811023622,"duration":0.07250000000000512},{"name":"G3","midi":55,"time":84.15000000000038,"velocity":0.5905511811023622,"duration":0.4475000000000051},{"name":"F3","midi":53,"time":84.60000000000038,"velocity":0.5905511811023622,"duration":0.5999999999999943},{"name":"E3","midi":52,"time":85.20000000000037,"velocity":0.5905511811023622,"duration":0.15000000000000568},{"name":"D3","midi":50,"time":85.35000000000038,"velocity":0.5905511811023622,"duration":0.15000000000000568},{"name":"E3","midi":52,"time":85.50000000000038,"velocity":0.5905511811023622,"duration":0.15000000000000568},{"name":"F3","midi":53,"time":85.65000000000039,"velocity":0.5905511811023622,"duration":0.15000000000000568},{"name":"E3","midi":52,"time":85.8000000000004,"velocity":0.5905511811023622,"duration":0.15000000000000568},{"name":"F3","midi":53,"time":85.9500000000004,"velocity":0.5905511811023622,"duration":0.15000000000000568},{"name":"D3","midi":50,"time":86.1000000000004,"velocity":0.5905511811023622,"duration":0.15000000000000568},{"name":"E3","midi":52,"time":86.25000000000041,"velocity":0.5905511811023622,"duration":0.15000000000000568},{"name":"F3","midi":53,"time":86.40000000000042,"velocity":0.5905511811023622,"duration":0.15000000000000568},{"name":"E3","midi":52,"time":86.55000000000042,"velocity":0.5905511811023622,"duration":0.15000000000000568},{"name":"F3","midi":53,"time":86.70000000000043,"velocity":0.5905511811023622,"duration":0.15000000000000568},{"name":"G3","midi":55,"time":86.85000000000043,"velocity":0.5905511811023622,"duration":0.14749999999999375},{"name":"F3","midi":53,"time":87.00000000000043,"velocity":0.5905511811023622,"duration":0.15000000000000568},{"name":"G3","midi":55,"time":87.15000000000043,"velocity":0.5905511811023622,"duration":0.15000000000000568},{"name":"E3","midi":52,"time":87.30000000000044,"velocity":0.5905511811023622,"duration":0.15000000000000568},{"name":"F3","midi":53,"time":87.45000000000044,"velocity":0.5905511811023622,"duration":0.15000000000000568},{"name":"D3","midi":50,"time":87.60000000000045,"velocity":0.5905511811023622,"duration":0.15000000000000568},{"name":"C3","midi":48,"time":87.75000000000045,"velocity":0.5905511811023622,"duration":0.15000000000000568},{"name":"D3","midi":50,"time":87.90000000000046,"velocity":0.5905511811023622,"duration":0.15000000000000568},{"name":"E3","midi":52,"time":88.05000000000047,"velocity":0.5905511811023622,"duration":0.15000000000000568},{"name":"D3","midi":50,"time":88.20000000000047,"velocity":0.5905511811023622,"duration":0.15000000000000568},{"name":"C3","midi":48,"time":88.35000000000048,"velocity":0.5905511811023622,"duration":0.15000000000000568},{"name":"B2","midi":47,"time":88.50000000000048,"velocity":0.5905511811023622,"duration":0.15000000000000568},{"name":"A2","midi":45,"time":88.65000000000049,"velocity":0.5905511811023622,"duration":0.15000000000000568},{"name":"G2","midi":43,"time":88.8000000000005,"velocity":0.5905511811023622,"duration":0.15000000000000568},{"name":"F2","midi":41,"time":88.9500000000005,"velocity":0.5905511811023622,"duration":0.15000000000000568},{"name":"G2","midi":43,"time":89.1000000000005,"velocity":0.5905511811023622,"duration":0.15000000000000568},{"name":"A2","midi":45,"time":89.25000000000051,"velocity":0.5905511811023622,"duration":0.15000000000000568},{"name":"G2","midi":43,"time":89.40000000000052,"velocity":0.5905511811023622,"duration":0.15000000000000568},{"name":"F2","midi":41,"time":89.55000000000052,"velocity":0.5905511811023622,"duration":0.15000000000000568},{"name":"E2","midi":40,"time":89.70000000000053,"velocity":0.5905511811023622,"duration":0.15000000000000568},{"name":"D2","midi":38,"time":89.85000000000053,"velocity":0.5905511811023622,"duration":0.15000000000000568},{"name":"C2","midi":36,"time":90.00000000000054,"velocity":0.5905511811023622,"duration":0.15000000000000568},{"name":"C3","midi":48,"time":90.15000000000055,"velocity":0.5905511811023622,"duration":0.15000000000000568},{"name":"E3","midi":52,"time":90.30000000000055,"velocity":0.5905511811023622,"duration":0.15000000000000568},{"name":"C3","midi":48,"time":90.45000000000056,"velocity":0.5905511811023622,"duration":0.15000000000000568},{"name":"C2","midi":36,"time":90.60000000000056,"velocity":0.5905511811023622,"duration":0.15000000000000568},{"name":"C3","midi":48,"time":90.75000000000057,"velocity":0.5905511811023622,"duration":0.15000000000000568},{"name":"G3","midi":55,"time":90.90000000000057,"velocity":0.5905511811023622,"duration":0.15000000000000568},{"name":"C3","midi":48,"time":91.05000000000058,"velocity":0.5905511811023622,"duration":0.15000000000000568},{"name":"C2","midi":36,"time":91.20000000000059,"velocity":0.5905511811023622,"duration":0.15000000000000568},{"name":"D2","midi":38,"time":91.35000000000059,"velocity":0.5905511811023622,"duration":0.15000000000000568},{"name":"E2","midi":40,"time":91.5000000000006,"velocity":0.5905511811023622,"duration":0.15000000000000568},{"name":"F2","midi":41,"time":91.6500000000006,"velocity":0.5905511811023622,"duration":0.15000000000000568},{"name":"G2","midi":43,"time":91.80000000000061,"velocity":0.5905511811023622,"duration":0.15000000000000568},{"name":"A2","midi":45,"time":91.95000000000061,"velocity":0.5905511811023622,"duration":0.15000000000000568},{"name":"B2","midi":47,"time":92.10000000000062,"velocity":0.5905511811023622,"duration":0.15000000000000568},{"name":"C3","midi":48,"time":92.25000000000063,"velocity":0.5905511811023622,"duration":0.15000000000000568},{"name":"C2","midi":36,"time":92.40000000000063,"velocity":0.5905511811023622,"duration":0.15000000000000568},{"name":"C3","midi":48,"time":92.55000000000064,"velocity":0.5905511811023622,"duration":0.15000000000000568},{"name":"D3","midi":50,"time":92.70000000000064,"velocity":0.5905511811023622,"duration":0.15000000000000568},{"name":"C3","midi":48,"time":92.85000000000065,"velocity":0.5905511811023622,"duration":0.15000000000000568},{"name":"C2","midi":36,"time":93.00000000000065,"velocity":0.5905511811023622,"duration":0.15000000000000568},{"name":"C3","midi":48,"time":93.15000000000066,"velocity":0.5905511811023622,"duration":0.15000000000000568},{"name":"F3","midi":53,"time":93.30000000000067,"velocity":0.5905511811023622,"duration":0.15000000000000568},{"name":"C3","midi":48,"time":93.45000000000067,"velocity":0.5905511811023622,"duration":0.15000000000000568},{"name":"B2","midi":47,"time":93.60000000000068,"velocity":0.5905511811023622,"duration":0.15000000000000568},{"name":"C3","midi":48,"time":93.75000000000068,"velocity":0.5905511811023622,"duration":0.15000000000000568},{"name":"B2","midi":47,"time":93.90000000000069,"velocity":0.5905511811023622,"duration":0.15000000000000568},{"name":"A2","midi":45,"time":94.0500000000007,"velocity":0.5905511811023622,"duration":0.15000000000000568},{"name":"G2","midi":43,"time":94.2000000000007,"velocity":0.5905511811023622,"duration":0.15000000000000568},{"name":"F2","midi":41,"time":94.3500000000007,"velocity":0.5905511811023622,"duration":0.15000000000000568},{"name":"E2","midi":40,"time":94.50000000000071,"velocity":0.5905511811023622,"duration":0.15000000000000568},{"name":"D2","midi":38,"time":94.65000000000072,"velocity":0.5905511811023622,"duration":0.15000000000000568},{"name":"C2","midi":36,"time":94.80000000000072,"velocity":0.5905511811023622,"duration":0.15000000000000568},{"name":"C3","midi":48,"time":94.95000000000073,"velocity":0.5905511811023622,"duration":0.15000000000000568},{"name":"D3","midi":50,"time":95.10000000000073,"velocity":0.5905511811023622,"duration":0.15000000000000568},{"name":"C3","midi":48,"time":95.25000000000074,"velocity":0.5905511811023622,"duration":0.15000000000000568},{"name":"E3","midi":52,"time":95.40000000000074,"velocity":0.5905511811023622,"duration":0.15000000000000568},{"name":"C3","midi":48,"time":95.55000000000075,"velocity":0.5905511811023622,"duration":0.15000000000000568},{"name":"F3","midi":53,"time":95.70000000000076,"velocity":0.5905511811023622,"duration":0.15000000000000568},{"name":"C3","midi":48,"time":95.85000000000076,"velocity":0.5905511811023622,"duration":0.15000000000000568},{"name":"G3","midi":55,"time":96.00000000000077,"velocity":0.5905511811023622,"duration":0.15000000000000568},{"name":"C3","midi":48,"time":96.15000000000077,"velocity":0.5905511811023622,"duration":0.15000000000000568},{"name":"G#3","midi":56,"time":96.30000000000078,"velocity":0.5905511811023622,"duration":0.15000000000000568},{"name":"C3","midi":48,"time":96.45000000000078,"velocity":0.5905511811023622,"duration":0.15000000000000568},{"name":"G3","midi":55,"time":96.60000000000079,"velocity":0.5905511811023622,"duration":0.15000000000000568},{"name":"C3","midi":48,"time":96.7500000000008,"velocity":0.5905511811023622,"duration":0.15000000000000568},{"name":"B2","midi":47,"time":96.9000000000008,"velocity":0.5905511811023622,"duration":0.15000000000000568},{"name":"C3","midi":48,"time":97.05000000000081,"velocity":0.5905511811023622,"duration":0.15000000000000568},{"name":"F2","midi":41,"time":97.20000000000081,"velocity":0.5905511811023622,"duration":0.29999999999999716},{"name":"G2","midi":43,"time":97.80000000000081,"velocity":0.5905511811023622,"duration":0.29999999999999716},{"name":"C2","midi":36,"time":98.4000000000008,"velocity":0.5905511811023622,"duration":1.2000000000000028}],"controlChanges":{"7":[{"number":7,"time":0,"value":0.7874015748031497}],"10":[{"number":10,"time":0,"value":0.3700787401574803}]},"id":3,"name":"by Yo Tomita","instrumentNumber":6,"instrument":"harpsichord","instrumentFamily":"piano","channelNumber":0,"isPercussion":false},{"startTime":0.3,"duration":99.60000000000093,"length":880,"notes":[{"name":"G5","midi":79,"time":0.3,"velocity":0.5511811023622047,"duration":0.14999999999999997},{"name":"F5","midi":77,"time":0.44999999999999996,"velocity":0.5511811023622047,"duration":0.15000000000000002},{"name":"G5","midi":79,"time":0.6,"velocity":0.5511811023622047,"duration":0.14749999999999996},{"name":"C5","midi":72,"time":0.8999999999999999,"velocity":0.5511811023622047,"duration":0.14749999999999996},{"name":"A5","midi":81,"time":1.19,"velocity":0.5511811023622047,"duration":0.07499999999999996},{"name":"G5","midi":79,"time":1.26,"velocity":0.5511811023622047,"duration":0.07499999999999996},{"name":"A5","midi":81,"time":1.3499999999999999,"velocity":0.5511811023622047,"duration":0.44999999999999996},{"name":"G5","midi":79,"time":1.7999999999999998,"velocity":0.5511811023622047,"duration":0.6000000000000001},{"name":"F5","midi":77,"time":2.6999999999999997,"velocity":0.5511811023622047,"duration":0.1499999999999999},{"name":"E5","midi":76,"time":2.8499999999999996,"velocity":0.5511811023622047,"duration":0.1499999999999999},{"name":"F5","midi":77,"time":2.9999999999999996,"velocity":0.5511811023622047,"duration":0.1499999999999999},{"name":"G5","midi":79,"time":3.1499999999999995,"velocity":0.5511811023622047,"duration":0.1499999999999999},{"name":"E5","midi":76,"time":3.2999999999999994,"velocity":0.5511811023622047,"duration":0.1499999999999999},{"name":"F5","midi":77,"time":3.4499999999999993,"velocity":0.5511811023622047,"duration":0.1499999999999999},{"name":"D5","midi":74,"time":3.599999999999999,"velocity":0.5511811023622047,"duration":0.1499999999999999},{"name":"F5","midi":77,"time":3.749999999999999,"velocity":0.5511811023622047,"duration":0.1499999999999999},{"name":"E5","midi":76,"time":3.899999999999999,"velocity":0.5511811023622047,"duration":0.1499999999999999},{"name":"F5","midi":77,"time":4.049999999999999,"velocity":0.5511811023622047,"duration":0.15000000000000036},{"name":"G5","midi":79,"time":4.199999999999999,"velocity":0.5511811023622047,"duration":0.15000000000000036},{"name":"A5","midi":81,"time":4.35,"velocity":0.5511811023622047,"duration":0.15000000000000036},{"name":"F5","midi":77,"time":4.5,"velocity":0.5511811023622047,"duration":0.15000000000000036},{"name":"G5","midi":79,"time":4.65,"velocity":0.5511811023622047,"duration":0.15000000000000036},{"name":"E5","midi":76,"time":4.800000000000001,"velocity":0.5511811023622047,"duration":0.15000000000000036},{"name":"D5","midi":74,"time":4.950000000000001,"velocity":0.5511811023622047,"duration":0.15000000000000036},{"name":"C6","midi":84,"time":5.100000000000001,"velocity":0.5511811023622047,"duration":0.15000000000000036},{"name":"E5","midi":76,"time":5.100000000000001,"velocity":0.5511811023622047,"duration":0.15000000000000036},{"name":"B5","midi":83,"time":5.250000000000002,"velocity":0.5511811023622047,"duration":0.15000000000000036},{"name":"F5","midi":77,"time":5.250000000000002,"velocity":0.5511811023622047,"duration":0.15000000000000036},{"name":"C6","midi":84,"time":5.400000000000002,"velocity":0.5511811023622047,"duration":0.14749999999999996},{"name":"E5","midi":76,"time":5.400000000000002,"velocity":0.5511811023622047,"duration":0.15000000000000036},{"name":"F5","midi":77,"time":5.5500000000000025,"velocity":0.5511811023622047,"duration":0.15000000000000036},{"name":"G5","midi":79,"time":5.700000000000003,"velocity":0.5511811023622047,"duration":0.14749999999999996},{"name":"D5","midi":74,"time":5.700000000000003,"velocity":0.5511811023622047,"duration":0.15000000000000036},{"name":"E5","midi":76,"time":5.850000000000003,"velocity":0.5511811023622047,"duration":0.15000000000000036},{"name":"E6","midi":88,"time":6.0000000000000036,"velocity":0.5511811023622047,"duration":0.07499999999999929},{"name":"C5","midi":72,"time":6.0000000000000036,"velocity":0.5511811023622047,"duration":0.14999999999999858},{"name":"D6","midi":86,"time":6.060000000000003,"velocity":0.5511811023622047,"duration":0.07499999999999929},{"name":"E6","midi":88,"time":6.150000000000002,"velocity":0.5511811023622047,"duration":0.45000000000000107},{"name":"B4","midi":71,"time":6.150000000000002,"velocity":0.5511811023622047,"duration":0.15000000000000036},{"name":"C5","midi":72,"time":6.3000000000000025,"velocity":0.5511811023622047,"duration":0.15000000000000036},{"name":"D5","midi":74,"time":6.450000000000003,"velocity":0.5511811023622047,"duration":0.15000000000000036},{"name":"D6","midi":86,"time":6.600000000000003,"velocity":0.5511811023622047,"duration":0.9000000000000021},{"name":"C5","midi":72,"time":6.600000000000003,"velocity":0.5511811023622047,"duration":0.15000000000000036},{"name":"D5","midi":74,"time":6.7500000000000036,"velocity":0.5511811023622047,"duration":0.15000000000000036},{"name":"B4","midi":71,"time":6.900000000000004,"velocity":0.5511811023622047,"duration":0.15000000000000036},{"name":"C5","midi":72,"time":7.050000000000004,"velocity":0.5511811023622047,"duration":0.15000000000000036},{"name":"A4","midi":69,"time":7.200000000000005,"velocity":0.5511811023622047,"duration":0.15000000000000036},{"name":"B4","midi":71,"time":7.350000000000005,"velocity":0.5511811023622047,"duration":0.15000000000000036},{"name":"C6","midi":84,"time":7.500000000000005,"velocity":0.5511811023622047,"duration":0.15000000000000036},{"name":"C5","midi":72,"time":7.500000000000005,"velocity":0.5511811023622047,"duration":0.15000000000000036},{"name":"B5","midi":83,"time":7.650000000000006,"velocity":0.5511811023622047,"duration":0.15000000000000036},{"name":"D5","midi":74,"time":7.650000000000006,"velocity":0.5511811023622047,"duration":0.15000000000000036},{"name":"C6","midi":84,"time":7.800000000000006,"velocity":0.5511811023622047,"duration":0.15000000000000036},{"name":"E5","midi":76,"time":7.800000000000006,"velocity":0.5511811023622047,"duration":0.15000000000000036},{"name":"D6","midi":86,"time":7.950000000000006,"velocity":0.5511811023622047,"duration":0.15000000000000036},{"name":"F#5","midi":78,"time":7.950000000000006,"velocity":0.5511811023622047,"duration":0.15000000000000036},{"name":"B5","midi":83,"time":8.100000000000007,"velocity":0.5511811023622047,"duration":0.15000000000000036},{"name":"G5","midi":79,"time":8.100000000000007,"velocity":0.5511811023622047,"duration":0.6000000000000014},{"name":"C6","midi":84,"time":8.250000000000007,"velocity":0.5511811023622047,"duration":0.15000000000000036},{"name":"A5","midi":81,"time":8.400000000000007,"velocity":0.5511811023622047,"duration":0.15000000000000036},{"name":"C6","midi":84,"time":8.550000000000008,"velocity":0.5511811023622047,"duration":0.15000000000000036},{"name":"B5","midi":83,"time":8.700000000000008,"velocity":0.5511811023622047,"duration":0.15000000000000036},{"name":"F#5","midi":78,"time":8.700000000000008,"velocity":0.5511811023622047,"duration":0.15000000000000036},{"name":"C6","midi":84,"time":8.850000000000009,"velocity":0.5511811023622047,"duration":0.15000000000000036},{"name":"E5","midi":76,"time":8.850000000000009,"velocity":0.5511811023622047,"duration":0.15000000000000036},{"name":"D6","midi":86,"time":9.000000000000009,"velocity":0.5511811023622047,"duration":0.15000000000000213},{"name":"F#5","midi":78,"time":9.000000000000009,"velocity":0.5511811023622047,"duration":0.07500000000000107},{"name":"E5","midi":76,"time":9.07000000000001,"velocity":0.5511811023622047,"duration":0.07500000000000107},{"name":"E6","midi":88,"time":9.150000000000011,"velocity":0.5511811023622047,"duration":0.15000000000000036},{"name":"F#5","midi":78,"time":9.150000000000011,"velocity":0.5511811023622047,"duration":0.45000000000000107},{"name":"C6","midi":84,"time":9.300000000000011,"velocity":0.5511811023622047,"duration":0.15000000000000036},{"name":"D6","midi":86,"time":9.450000000000012,"velocity":0.5511811023622047,"duration":0.15000000000000036},{"name":"B5","midi":83,"time":9.600000000000012,"velocity":0.5511811023622047,"duration":0.15000000000000036},{"name":"G5","midi":79,"time":9.600000000000012,"velocity":0.5511811023622047,"duration":1.350000000000005},{"name":"A5","midi":81,"time":9.750000000000012,"velocity":0.5511811023622047,"duration":0.15000000000000036},{"name":"B5","midi":83,"time":9.900000000000013,"velocity":0.5511811023622047,"duration":0.15000000000000036},{"name":"G4","midi":67,"time":9.900000000000013,"velocity":0.5511811023622047,"duration":0.15000000000000036},{"name":"C6","midi":84,"time":10.050000000000013,"velocity":0.5511811023622047,"duration":0.15000000000000036},{"name":"F4","midi":65,"time":10.050000000000013,"velocity":0.5511811023622047,"duration":0.15000000000000036},{"name":"B5","midi":83,"time":10.200000000000014,"velocity":0.5511811023622047,"duration":0.15000000000000036},{"name":"G4","midi":67,"time":10.200000000000014,"velocity":0.5511811023622047,"duration":0.14750000000000085},{"name":"C6","midi":84,"time":10.350000000000014,"velocity":0.5511811023622047,"duration":0.15000000000000036},{"name":"A5","midi":81,"time":10.500000000000014,"velocity":0.5511811023622047,"duration":0.15000000000000036},{"name":"C4","midi":60,"time":10.500000000000014,"velocity":0.5511811023622047,"duration":0.14750000000000085},{"name":"B5","midi":83,"time":10.650000000000015,"velocity":0.5511811023622047,"duration":0.15000000000000036},{"name":"C6","midi":84,"time":10.800000000000015,"velocity":0.5511811023622047,"duration":0.45000000000000284},{"name":"A4","midi":69,"time":10.800000000000015,"velocity":0.5511811023622047,"duration":0.07500000000000107},{"name":"G4","midi":67,"time":10.870000000000015,"velocity":0.5511811023622047,"duration":0.07500000000000107},{"name":"E5","midi":76,"time":10.950000000000017,"velocity":0.5511811023622047,"duration":0.15000000000000036},{"name":"A4","midi":69,"time":10.950000000000017,"velocity":0.5511811023622047,"duration":0.45000000000000107},{"name":"F5","midi":77,"time":11.100000000000017,"velocity":0.5511811023622047,"duration":0.45000000000000107},{"name":"A5","midi":81,"time":11.250000000000018,"velocity":0.5511811023622047,"duration":0.15000000000000036},{"name":"A#5","midi":82,"time":11.400000000000018,"velocity":0.5511811023622047,"duration":0.45000000000000107},{"name":"G4","midi":67,"time":11.400000000000018,"velocity":0.5511811023622047,"duration":0.6000000000000014},{"name":"D5","midi":74,"time":11.550000000000018,"velocity":0.5511811023622047,"duration":0.15000000000000036},{"name":"E5","midi":76,"time":11.700000000000019,"velocity":0.5511811023622047,"duration":0.6000000000000014},{"name":"G5","midi":79,"time":11.85000000000002,"velocity":0.5511811023622047,"duration":0.15000000000000036},{"name":"A5","midi":81,"time":12.00000000000002,"velocity":0.5511811023622047,"duration":0.6000000000000014},{"name":"D5","midi":74,"time":12.30000000000002,"velocity":0.5511811023622047,"duration":0.3000000000000007},{"name":"F4","midi":65,"time":12.30000000000002,"velocity":0.5511811023622047,"duration":0.15000000000000036},{"name":"E4","midi":64,"time":12.45000000000002,"velocity":0.5511811023622047,"duration":0.15000000000000036},{"name":"B5","midi":83,"time":12.600000000000021,"velocity":0.5511811023622047,"duration":0.3000000000000007},{"name":"G5","midi":79,"time":12.600000000000021,"velocity":0.5511811023622047,"duration":0.6000000000000014},{"name":"F4","midi":65,"time":12.600000000000021,"velocity":0.5511811023622047,"duration":0.15000000000000036},{"name":"G4","midi":67,"time":12.750000000000021,"velocity":0.5511811023622047,"duration":0.15000000000000036},{"name":"C6","midi":84,"time":12.900000000000022,"velocity":0.5511811023622047,"duration":0.6000000000000014},{"name":"E4","midi":64,"time":12.900000000000022,"velocity":0.5511811023622047,"duration":0.15000000000000036},{"name":"F4","midi":65,"time":13.050000000000022,"velocity":0.5511811023622047,"duration":0.15000000000000036},{"name":"F5","midi":77,"time":13.200000000000022,"velocity":0.5511811023622047,"duration":0.15000000000000036},{"name":"D4","midi":62,"time":13.200000000000022,"velocity":0.5511811023622047,"duration":0.15000000000000036},{"name":"A5","midi":81,"time":13.350000000000023,"velocity":0.5511811023622047,"duration":0.15000000000000036},{"name":"F4","midi":65,"time":13.350000000000023,"velocity":0.5511811023622047,"duration":0.15000000000000036},{"name":"C6","midi":84,"time":13.500000000000023,"velocity":0.5511811023622047,"duration":0.6000000000000014},{"name":"G5","midi":79,"time":13.500000000000023,"velocity":0.5511811023622047,"duration":0.15000000000000036},{"name":"E4","midi":64,"time":13.500000000000023,"velocity":0.5511811023622047,"duration":0.15000000000000036},{"name":"A5","midi":81,"time":13.650000000000023,"velocity":0.5511811023622047,"duration":0.15000000000000036},{"name":"F4","midi":65,"time":13.650000000000023,"velocity":0.5511811023622047,"duration":0.15000000000000036},{"name":"D5","midi":74,"time":13.800000000000024,"velocity":0.5511811023622047,"duration":0.6000000000000014},{"name":"G4","midi":67,"time":13.800000000000024,"velocity":0.5511811023622047,"duration":0.15000000000000036},{"name":"A4","midi":69,"time":13.950000000000024,"velocity":0.5511811023622047,"duration":0.15000000000000036},{"name":"B5","midi":83,"time":14.100000000000025,"velocity":0.5511811023622047,"duration":0.3000000000000007},{"name":"F4","midi":65,"time":14.100000000000025,"velocity":0.5511811023622047,"duration":0.15000000000000036},{"name":"G4","midi":67,"time":14.250000000000025,"velocity":0.5511811023622047,"duration":0.15000000000000036},{"name":"C6","midi":84,"time":14.400000000000025,"velocity":0.5511811023622047,"duration":0.3000000000000007},{"name":"C5","midi":72,"time":14.400000000000025,"velocity":0.5511811023622047,"duration":0.14750000000000085},{"name":"E4","midi":64,"time":14.400000000000025,"velocity":0.5511811023622047,"duration":0.15000000000000036},{"name":"D4","midi":62,"time":14.550000000000026,"velocity":0.5511811023622047,"duration":0.15000000000000036},{"name":"G6","midi":91,"time":14.700000000000026,"velocity":0.5511811023622047,"duration":0.15000000000000036},{"name":"E4","midi":64,"time":14.700000000000026,"velocity":0.5511811023622047,"duration":0.15000000000000036},{"name":"F6","midi":89,"time":14.850000000000026,"velocity":0.5511811023622047,"duration":0.15000000000000036},{"name":"F4","midi":65,"time":14.850000000000026,"velocity":0.5511811023622047,"duration":0.15000000000000036},{"name":"G6","midi":91,"time":15.000000000000027,"velocity":0.5511811023622047,"duration":0.14750000000000085},{"name":"E4","midi":64,"time":15.000000000000027,"velocity":0.5511811023622047,"duration":0.15000000000000036},{"name":"F4","midi":65,"time":15.150000000000027,"velocity":0.5511811023622047,"duration":0.15000000000000036},{"name":"C6","midi":84,"time":15.300000000000027,"velocity":0.5511811023622047,"duration":0.14750000000000085},{"name":"D4","midi":62,"time":15.300000000000027,"velocity":0.5511811023622047,"duration":0.15000000000000036},{"name":"E4","midi":64,"time":15.450000000000028,"velocity":0.5511811023622047,"duration":0.15000000000000036},{"name":"A6","midi":93,"time":15.600000000000028,"velocity":0.5511811023622047,"duration":0.5999999999999996},{"name":"F4","midi":65,"time":15.600000000000028,"velocity":0.5511811023622047,"duration":0.15000000000000036},{"name":"E4","midi":64,"time":15.750000000000028,"velocity":0.5511811023622047,"duration":0.15000000000000036},{"name":"C6","midi":84,"time":15.900000000000029,"velocity":0.5511811023622047,"duration":0.15000000000000036},{"name":"F4","midi":65,"time":15.900000000000029,"velocity":0.5511811023622047,"duration":0.15000000000000036},{"name":"B5","midi":83,"time":16.05000000000003,"velocity":0.5511811023622047,"duration":0.14999999999999858},{"name":"G4","midi":67,"time":16.05000000000003,"velocity":0.5511811023622047,"duration":0.14999999999999858},{"name":"G6","midi":91,"time":16.200000000000028,"velocity":0.5511811023622047,"duration":0.6000000000000014},{"name":"C6","midi":84,"time":16.200000000000028,"velocity":0.5511811023622047,"duration":0.14750000000000085},{"name":"F4","midi":65,"time":16.200000000000028,"velocity":0.5511811023622047,"duration":0.15000000000000213},{"name":"G4","midi":67,"time":16.35000000000003,"velocity":0.5511811023622047,"duration":0.14999999999999858},{"name":"G5","midi":79,"time":16.50000000000003,"velocity":0.5511811023622047,"duration":0.14750000000000085},{"name":"E4","midi":64,"time":16.50000000000003,"velocity":0.5511811023622047,"duration":0.15000000000000213},{"name":"F4","midi":65,"time":16.65000000000003,"velocity":0.5511811023622047,"duration":0.14999999999999858},{"name":"F#6","midi":90,"time":16.80000000000003,"velocity":0.5511811023622047,"duration":0.29999999999999716},{"name":"D6","midi":86,"time":16.80000000000003,"velocity":0.5511811023622047,"duration":0.5999999999999943},{"name":"D4","midi":62,"time":16.80000000000003,"velocity":0.5511811023622047,"duration":0.14999999999999858},{"name":"C#4","midi":61,"time":16.950000000000028,"velocity":0.5511811023622047,"duration":0.14999999999999858},{"name":"A6","midi":93,"time":17.100000000000026,"velocity":0.5511811023622047,"duration":0.14999999999999858},{"name":"D4","midi":62,"time":17.100000000000026,"velocity":0.5511811023622047,"duration":0.14999999999999858},{"name":"G6","midi":91,"time":17.250000000000025,"velocity":0.5511811023622047,"duration":0.14999999999999858},{"name":"E4","midi":64,"time":17.250000000000025,"velocity":0.5511811023622047,"duration":0.14999999999999858},{"name":"A6","midi":93,"time":17.400000000000023,"velocity":0.5511811023622047,"duration":0.14750000000000085},{"name":"C6","midi":84,"time":17.400000000000023,"velocity":0.5511811023622047,"duration":0.6000000000000014},{"name":"F#4","midi":66,"time":17.400000000000023,"velocity":0.5511811023622047,"duration":0.15000000000000213},{"name":"G4","midi":67,"time":17.550000000000026,"velocity":0.5511811023622047,"duration":0.14999999999999858},{"name":"D6","midi":86,"time":17.700000000000024,"velocity":0.5511811023622047,"duration":0.14750000000000085},{"name":"E4","midi":64,"time":17.700000000000024,"velocity":0.5511811023622047,"duration":0.15000000000000213},{"name":"F#4","midi":66,"time":17.850000000000026,"velocity":0.5511811023622047,"duration":0.14999999999999858},{"name":"B6","midi":95,"time":18.000000000000025,"velocity":0.5511811023622047,"duration":0.5999999999999943},{"name":"B5","midi":83,"time":18.000000000000025,"velocity":0.5511811023622047,"duration":0.29999999999999716},{"name":"G4","midi":67,"time":18.000000000000025,"velocity":0.5511811023622047,"duration":0.14999999999999858},{"name":"F#4","midi":66,"time":18.150000000000023,"velocity":0.5511811023622047,"duration":0.14999999999999858},{"name":"D6","midi":86,"time":18.300000000000022,"velocity":0.5511811023622047,"duration":0.14999999999999858},{"name":"G4","midi":67,"time":18.300000000000022,"velocity":0.5511811023622047,"duration":0.14999999999999858},{"name":"C6","midi":84,"time":18.45000000000002,"velocity":0.5511811023622047,"duration":0.14999999999999858},{"name":"A4","midi":69,"time":18.45000000000002,"velocity":0.5511811023622047,"duration":0.14999999999999858},{"name":"A6","midi":93,"time":18.60000000000002,"velocity":0.5511811023622047,"duration":0.6000000000000014},{"name":"D6","midi":86,"time":18.60000000000002,"velocity":0.5511811023622047,"duration":0.14750000000000085},{"name":"G4","midi":67,"time":18.60000000000002,"velocity":0.5511811023622047,"duration":0.15000000000000213},{"name":"A4","midi":69,"time":18.75000000000002,"velocity":0.5511811023622047,"duration":0.14999999999999858},{"name":"A5","midi":81,"time":18.90000000000002,"velocity":0.5511811023622047,"duration":0.14750000000000085},{"name":"F4","midi":65,"time":18.90000000000002,"velocity":0.5511811023622047,"duration":0.15000000000000213},{"name":"G4","midi":67,"time":19.050000000000022,"velocity":0.5511811023622047,"duration":0.14999999999999858},{"name":"G#6","midi":92,"time":19.20000000000002,"velocity":0.5511811023622047,"duration":0.29999999999999716},{"name":"E6","midi":88,"time":19.20000000000002,"velocity":0.5511811023622047,"duration":0.5999999999999943},{"name":"E4","midi":64,"time":19.20000000000002,"velocity":0.5511811023622047,"duration":0.14999999999999858},{"name":"D4","midi":62,"time":19.35000000000002,"velocity":0.5511811023622047,"duration":0.14999999999999858},{"name":"B6","midi":95,"time":19.500000000000018,"velocity":0.5511811023622047,"duration":0.14999999999999858},{"name":"E4","midi":64,"time":19.500000000000018,"velocity":0.5511811023622047,"duration":0.14999999999999858},{"name":"A6","midi":93,"time":19.650000000000016,"velocity":0.5511811023622047,"duration":0.14999999999999858},{"name":"F#4","midi":66,"time":19.650000000000016,"velocity":0.5511811023622047,"duration":0.14999999999999858},{"name":"B6","midi":95,"time":19.800000000000015,"velocity":0.5511811023622047,"duration":0.14750000000000085},{"name":"D6","midi":86,"time":19.800000000000015,"velocity":0.5511811023622047,"duration":0.6000000000000014},{"name":"G#4","midi":68,"time":19.800000000000015,"velocity":0.5511811023622047,"duration":0.15000000000000213},{"name":"A4","midi":69,"time":19.950000000000017,"velocity":0.5511811023622047,"duration":0.14999999999999858},{"name":"E6","midi":88,"time":20.100000000000016,"velocity":0.5511811023622047,"duration":0.14750000000000085},{"name":"F#4","midi":66,"time":20.100000000000016,"velocity":0.5511811023622047,"duration":0.15000000000000213},{"name":"G#4","midi":68,"time":20.250000000000018,"velocity":0.5511811023622047,"duration":0.14999999999999858},{"name":"C7","midi":96,"time":20.400000000000016,"velocity":0.5511811023622047,"duration":1.4999999999999858},{"name":"C6","midi":84,"time":20.400000000000016,"velocity":0.5511811023622047,"duration":0.29999999999999716},{"name":"A4","midi":69,"time":20.400000000000016,"velocity":0.5511811023622047,"duration":0.14999999999999858},{"name":"G#4","midi":68,"time":20.550000000000015,"velocity":0.5511811023622047,"duration":0.14999999999999858},{"name":"E6","midi":88,"time":20.700000000000014,"velocity":0.5511811023622047,"duration":0.14999999999999858},{"name":"A4","midi":69,"time":20.700000000000014,"velocity":0.5511811023622047,"duration":0.14999999999999858},{"name":"D6","midi":86,"time":20.850000000000012,"velocity":0.5511811023622047,"duration":0.14999999999999858},{"name":"B4","midi":71,"time":20.850000000000012,"velocity":0.5511811023622047,"duration":0.14999999999999858},{"name":"E6","midi":88,"time":21.00000000000001,"velocity":0.5511811023622047,"duration":0.29999999999999716},{"name":"A4","midi":69,"time":21.00000000000001,"velocity":0.5511811023622047,"duration":0.14999999999999858},{"name":"B4","midi":71,"time":21.15000000000001,"velocity":0.5511811023622047,"duration":0.14999999999999858},{"name":"A6","midi":93,"time":21.300000000000008,"velocity":0.5511811023622047,"duration":0.29999999999999716},{"name":"G4","midi":67,"time":21.300000000000008,"velocity":0.5511811023622047,"duration":0.14999999999999858},{"name":"A4","midi":69,"time":21.450000000000006,"velocity":0.5511811023622047,"duration":0.14999999999999858},{"name":"D6","midi":86,"time":21.600000000000005,"velocity":0.5511811023622047,"duration":1.4999999999999858},{"name":"F#4","midi":66,"time":21.600000000000005,"velocity":0.5511811023622047,"duration":0.14999999999999858},{"name":"G4","midi":67,"time":21.750000000000004,"velocity":0.5511811023622047,"duration":0.14999999999999858},{"name":"C7","midi":96,"time":21.900000000000002,"velocity":0.5511811023622047,"duration":0.29999999999999716},{"name":"E4","midi":64,"time":21.900000000000002,"velocity":0.5511811023622047,"duration":0.14999999999999858},{"name":"F#4","midi":66,"time":22.05,"velocity":0.5511811023622047,"duration":0.14999999999999858},{"name":"B6","midi":95,"time":22.2,"velocity":0.5511811023622047,"duration":0.29999999999999716},{"name":"G4","midi":67,"time":22.2,"velocity":0.5511811023622047,"duration":0.14999999999999858},{"name":"A4","midi":69,"time":22.349999999999998,"velocity":0.5511811023622047,"duration":0.14999999999999858},{"name":"G6","midi":91,"time":22.499999999999996,"velocity":0.5511811023622047,"duration":0.29999999999999716},{"name":"B4","midi":71,"time":22.499999999999996,"velocity":0.5511811023622047,"duration":0.14999999999999858},{"name":"G4","midi":67,"time":22.649999999999995,"velocity":0.5511811023622047,"duration":0.14999999999999858},{"name":"E6","midi":88,"time":22.799999999999994,"velocity":0.5511811023622047,"duration":0.5999999999999943},{"name":"C5","midi":72,"time":22.799999999999994,"velocity":0.5511811023622047,"duration":0.14999999999999858},{"name":"B4","midi":71,"time":22.949999999999992,"velocity":0.5511811023622047,"duration":0.14999999999999858},{"name":"C6","midi":84,"time":23.09999999999999,"velocity":0.5511811023622047,"duration":0.14999999999999858},{"name":"C5","midi":72,"time":23.09999999999999,"velocity":0.5511811023622047,"duration":0.14999999999999858},{"name":"B5","midi":83,"time":23.24999999999999,"velocity":0.5511811023622047,"duration":0.14999999999999858},{"name":"D5","midi":74,"time":23.24999999999999,"velocity":0.5511811023622047,"duration":0.14999999999999858},{"name":"F#6","midi":90,"time":23.399999999999988,"velocity":0.5511811023622047,"duration":0.29999999999999716},{"name":"A5","midi":81,"time":23.399999999999988,"velocity":0.5511811023622047,"duration":0.29999999999999716},{"name":"C5","midi":72,"time":23.399999999999988,"velocity":0.5511811023622047,"duration":0.14999999999999858},{"name":"D5","midi":74,"time":23.549999999999986,"velocity":0.5511811023622047,"duration":0.14999999999999858},{"name":"G6","midi":91,"time":23.699999999999985,"velocity":0.5511811023622047,"duration":0.5999999999999979},{"name":"B5","midi":83,"time":23.699999999999985,"velocity":0.5511811023622047,"duration":0.5999999999999979},{"name":"B4","midi":71,"time":23.699999999999985,"velocity":0.5511811023622047,"duration":0.14999999999999858},{"name":"C5","midi":72,"time":23.849999999999984,"velocity":0.5511811023622047,"duration":0.14999999999999858},{"name":"D5","midi":74,"time":23.999999999999982,"velocity":0.5511811023622047,"duration":1.197499999999998},{"name":"F#6","midi":90,"time":24.299999999999983,"velocity":0.5511811023622047,"duration":0.14999999999999858},{"name":"A5","midi":81,"time":24.299999999999983,"velocity":0.5511811023622047,"duration":0.14999999999999858},{"name":"E6","midi":88,"time":24.44999999999998,"velocity":0.5511811023622047,"duration":0.14999999999999858},{"name":"G5","midi":79,"time":24.44999999999998,"velocity":0.5511811023622047,"duration":0.14999999999999858},{"name":"G6","midi":91,"time":24.59999999999998,"velocity":0.5511811023622047,"duration":0.11499999999999844},{"name":"A5","midi":81,"time":24.59999999999998,"velocity":0.5511811023622047,"duration":0.3000000000000007},{"name":"F#6","midi":90,"time":24.69499999999998,"velocity":0.5511811023622047,"duration":0.08000000000000185},{"name":"G6","midi":91,"time":24.75999999999998,"velocity":0.5511811023622047,"duration":0.07250000000000156},{"name":"F#6","midi":90,"time":24.804999999999982,"velocity":0.5511811023622047,"duration":0.07249999999999801},{"name":"G6","midi":91,"time":24.86499999999998,"velocity":0.5511811023622047,"duration":0.07250000000000156},{"name":"D5","midi":74,"time":24.89999999999998,"velocity":0.5511811023622047,"duration":0.3000000000000007},{"name":"F#6","midi":90,"time":24.91499999999998,"velocity":0.5511811023622047,"duration":0.14000000000000057},{"name":"G6","midi":91,"time":25.049999999999983,"velocity":0.5511811023622047,"duration":0.1474999999999973},{"name":"G6","midi":91,"time":25.19999999999998,"velocity":0.5511811023622047,"duration":0.3000000000000007},{"name":"B5","midi":83,"time":25.19999999999998,"velocity":0.5511811023622047,"duration":0.5999999999999979},{"name":"G4","midi":67,"time":25.19999999999998,"velocity":0.5511811023622047,"duration":0.3000000000000007},{"name":"E6","midi":88,"time":25.499999999999982,"velocity":0.5511811023622047,"duration":0.29999999999999716},{"name":"G5","midi":79,"time":25.499999999999982,"velocity":0.5511811023622047,"duration":0.14999999999999858},{"name":"F5","midi":77,"time":25.64999999999998,"velocity":0.5511811023622047,"duration":0.14999999999999858},{"name":"C#6","midi":85,"time":25.79999999999998,"velocity":0.5511811023622047,"duration":0.29999999999999716},{"name":"A5","midi":81,"time":25.79999999999998,"velocity":0.5511811023622047,"duration":0.29999999999999716},{"name":"G5","midi":79,"time":25.79999999999998,"velocity":0.5511811023622047,"duration":0.14999999999999858},{"name":"A5","midi":81,"time":25.949999999999978,"velocity":0.5511811023622047,"duration":0.44999999999999574},{"name":"D6","midi":86,"time":26.099999999999977,"velocity":0.5511811023622047,"duration":0.44999999999999574},{"name":"F5","midi":77,"time":26.099999999999977,"velocity":0.5511811023622047,"duration":0.14999999999999858},{"name":"G5","midi":79,"time":26.249999999999975,"velocity":0.5511811023622047,"duration":0.14999999999999858},{"name":"E5","midi":76,"time":26.399999999999974,"velocity":0.5511811023622047,"duration":1.1999999999999886},{"name":"G6","midi":91,"time":26.549999999999972,"velocity":0.5511811023622047,"duration":0.14999999999999858},{"name":"A#6","midi":94,"time":26.69999999999997,"velocity":0.5511811023622047,"duration":0.14999999999999858},{"name":"G5","midi":79,"time":26.69999999999997,"velocity":0.5511811023622047,"duration":0.14999999999999858},{"name":"A6","midi":93,"time":26.84999999999997,"velocity":0.5511811023622047,"duration":0.14999999999999858},{"name":"F5","midi":77,"time":26.84999999999997,"velocity":0.5511811023622047,"duration":0.14999999999999858},{"name":"G6","midi":91,"time":26.999999999999968,"velocity":0.5511811023622047,"duration":0.14999999999999858},{"name":"G5","midi":79,"time":26.999999999999968,"velocity":0.5511811023622047,"duration":0.14999999999999858},{"name":"F6","midi":89,"time":27.149999999999967,"velocity":0.5511811023622047,"duration":0.14999999999999858},{"name":"A5","midi":81,"time":27.149999999999967,"velocity":0.5511811023622047,"duration":0.14999999999999858},{"name":"E6","midi":88,"time":27.299999999999965,"velocity":0.5511811023622047,"duration":0.14999999999999858},{"name":"F5","midi":77,"time":27.299999999999965,"velocity":0.5511811023622047,"duration":0.14999999999999858},{"name":"D6","midi":86,"time":27.449999999999964,"velocity":0.5511811023622047,"duration":0.14999999999999858},{"name":"G5","midi":79,"time":27.449999999999964,"velocity":0.5511811023622047,"duration":0.14999999999999858},{"name":"C#6","midi":85,"time":27.599999999999962,"velocity":0.5511811023622047,"duration":0.29999999999999716},{"name":"E5","midi":76,"time":27.599999999999962,"velocity":0.5511811023622047,"duration":0.14999999999999858},{"name":"G5","midi":79,"time":27.74999999999996,"velocity":0.5511811023622047,"duration":0.14999999999999858},{"name":"D6","midi":86,"time":27.89999999999996,"velocity":0.5511811023622047,"duration":0.6000000000000014},{"name":"F5","midi":77,"time":27.89999999999996,"velocity":0.5511811023622047,"duration":0.15000000000000213},{"name":"D5","midi":74,"time":27.89999999999996,"velocity":0.5511811023622047,"duration":0.14750000000000085},{"name":"G5","midi":79,"time":28.04999999999996,"velocity":0.5511811023622047,"duration":0.14999999999999858},{"name":"A5","midi":81,"time":28.19999999999996,"velocity":0.5511811023622047,"duration":0.15000000000000213},{"name":"F4","midi":65,"time":28.19999999999996,"velocity":0.5511811023622047,"duration":0.14750000000000085},{"name":"A#5","midi":82,"time":28.349999999999962,"velocity":0.5511811023622047,"duration":0.14999999999999858},{"name":"C#6","midi":85,"time":28.49999999999996,"velocity":0.5511811023622047,"duration":0.3000000000000007},{"name":"G5","midi":79,"time":28.49999999999996,"velocity":0.5511811023622047,"duration":0.15000000000000213},{"name":"A4","midi":69,"time":28.49999999999996,"velocity":0.5511811023622047,"duration":0.14750000000000085},{"name":"A5","midi":81,"time":28.649999999999963,"velocity":0.5511811023622047,"duration":0.14999999999999858},{"name":"F5","midi":77,"time":28.79999999999996,"velocity":0.5511811023622047,"duration":0.14999999999999858},{"name":"D4","midi":62,"time":28.79999999999996,"velocity":0.5511811023622047,"duration":0.29999999999999716},{"name":"C5","midi":72,"time":45.59999999999996,"velocity":0.5511811023622047,"duration":0.8999999999999915},{"name":"E5","midi":76,"time":45.59999999999996,"velocity":0.5511811023622047,"duration":0.14999999999999858},{"name":"D5","midi":74,"time":45.74999999999996,"velocity":0.5511811023622047,"duration":0.14999999999999858},{"name":"E5","midi":76,"time":45.899999999999956,"velocity":0.5511811023622047,"duration":0.14999999999999858},{"name":"C4","midi":60,"time":45.899999999999956,"velocity":0.5511811023622047,"duration":0.14999999999999858},{"name":"F5","midi":77,"time":46.049999999999955,"velocity":0.5511811023622047,"duration":0.14999999999999858},{"name":"B3","midi":59,"time":46.049999999999955,"velocity":0.5511811023622047,"duration":0.14999999999999858},{"name":"E5","midi":76,"time":46.19999999999995,"velocity":0.5511811023622047,"duration":0.14999999999999858},{"name":"C4","midi":60,"time":46.19999999999995,"velocity":0.5511811023622047,"duration":0.2224999999999966},{"name":"F5","midi":77,"time":46.34999999999995,"velocity":0.5511811023622047,"duration":0.14999999999999858},{"name":"D5","midi":74,"time":46.49999999999995,"velocity":0.5511811023622047,"duration":0.14999999999999858},{"name":"B4","midi":71,"time":46.49999999999995,"velocity":0.5511811023622047,"duration":0.37249999999999517},{"name":"G3","midi":55,"time":46.49999999999995,"velocity":0.5511811023622047,"duration":0.2224999999999966},{"name":"E5","midi":76,"time":46.64999999999995,"velocity":0.5511811023622047,"duration":0.14999999999999858},{"name":"C5","midi":72,"time":46.79999999999995,"velocity":0.5511811023622047,"duration":0.37249999999999517},{"name":"E4","midi":64,"time":46.79999999999995,"velocity":0.5511811023622047,"duration":0.07499999999999574},{"name":"D4","midi":62,"time":46.86999999999995,"velocity":0.5511811023622047,"duration":0.07499999999999574},{"name":"B4","midi":71,"time":46.949999999999946,"velocity":0.5511811023622047,"duration":0.14999999999999858},{"name":"E4","midi":64,"time":46.949999999999946,"velocity":0.5511811023622047,"duration":0.44999999999999574},{"name":"A4","midi":69,"time":47.099999999999945,"velocity":0.5511811023622047,"duration":0.37249999999999517},{"name":"C5","midi":72,"time":47.24999999999994,"velocity":0.5511811023622047,"duration":0.14999999999999858},{"name":"B4","midi":71,"time":47.39999999999994,"velocity":0.5511811023622047,"duration":0.37249999999999517},{"name":"D4","midi":62,"time":47.39999999999994,"velocity":0.5511811023622047,"duration":0.5999999999999943},{"name":"A4","midi":69,"time":47.54999999999994,"velocity":0.5511811023622047,"duration":0.14999999999999858},{"name":"G4","midi":67,"time":47.69999999999994,"velocity":0.5511811023622047,"duration":0.5224999999999937},{"name":"B4","midi":71,"time":47.84999999999994,"velocity":0.5511811023622047,"duration":0.14999999999999858},{"name":"A4","midi":69,"time":47.999999999999936,"velocity":0.5511811023622047,"duration":0.8999999999999915},{"name":"G4","midi":67,"time":48.29999999999993,"velocity":0.5511811023622047,"duration":0.29999999999999716},{"name":"C4","midi":60,"time":48.29999999999993,"velocity":0.5511811023622047,"duration":0.14999999999999858},{"name":"B3","midi":59,"time":48.44999999999993,"velocity":0.5511811023622047,"duration":0.14999999999999858},{"name":"F#4","midi":66,"time":48.59999999999993,"velocity":0.5511811023622047,"duration":0.29999999999999716},{"name":"C4","midi":60,"time":48.59999999999993,"velocity":0.5511811023622047,"duration":0.14999999999999858},{"name":"D4","midi":62,"time":48.74999999999993,"velocity":0.5511811023622047,"duration":0.14999999999999858},{"name":"B4","midi":71,"time":48.89999999999993,"velocity":0.5511811023622047,"duration":0.29999999999999716},{"name":"G4","midi":67,"time":48.89999999999993,"velocity":0.5511811023622047,"duration":0.44999999999999574},{"name":"B3","midi":59,"time":48.89999999999993,"velocity":0.5511811023622047,"duration":0.14999999999999858},{"name":"C4","midi":60,"time":49.049999999999926,"velocity":0.5511811023622047,"duration":0.14999999999999858},{"name":"C5","midi":72,"time":49.199999999999925,"velocity":0.5511811023622047,"duration":0.8999999999999915},{"name":"A3","midi":57,"time":49.199999999999925,"velocity":0.5511811023622047,"duration":0.14999999999999858},{"name":"F#4","midi":66,"time":49.34999999999992,"velocity":0.5511811023622047,"duration":0.14999999999999858},{"name":"C4","midi":60,"time":49.34999999999992,"velocity":0.5511811023622047,"duration":0.14999999999999858},{"name":"G4","midi":67,"time":49.49999999999992,"velocity":0.5511811023622047,"duration":0.14999999999999858},{"name":"B3","midi":59,"time":49.49999999999992,"velocity":0.5511811023622047,"duration":0.14999999999999858},{"name":"E4","midi":64,"time":49.64999999999992,"velocity":0.5511811023622047,"duration":0.14999999999999858},{"name":"C4","midi":60,"time":49.64999999999992,"velocity":0.5511811023622047,"duration":0.14999999999999858},{"name":"F#4","midi":66,"time":49.79999999999992,"velocity":0.5511811023622047,"duration":0.8999999999999915},{"name":"D4","midi":62,"time":49.79999999999992,"velocity":0.5511811023622047,"duration":0.14999999999999858},{"name":"E4","midi":64,"time":49.94999999999992,"velocity":0.5511811023622047,"duration":0.14999999999999858},{"name":"A4","midi":69,"time":50.099999999999916,"velocity":0.5511811023622047,"duration":0.2224999999999966},{"name":"C4","midi":60,"time":50.099999999999916,"velocity":0.5511811023622047,"duration":0.14999999999999858},{"name":"D4","midi":62,"time":50.249999999999915,"velocity":0.5511811023622047,"duration":0.14999999999999858},{"name":"D5","midi":74,"time":50.39999999999991,"velocity":0.5511811023622047,"duration":0.8999999999999915},{"name":"B3","midi":59,"time":50.39999999999991,"velocity":0.5511811023622047,"duration":0.14999999999999858},{"name":"D4","midi":62,"time":50.54999999999991,"velocity":0.5511811023622047,"duration":0.14999999999999858},{"name":"B4","midi":71,"time":50.69999999999991,"velocity":0.5511811023622047,"duration":0.2224999999999966},{"name":"C4","midi":60,"time":50.69999999999991,"velocity":0.5511811023622047,"duration":0.14999999999999858},{"name":"D4","midi":62,"time":50.84999999999991,"velocity":0.5511811023622047,"duration":0.14999999999999858},{"name":"G4","midi":67,"time":50.99999999999991,"velocity":0.5511811023622047,"duration":0.8999999999999915},{"name":"E4","midi":64,"time":50.99999999999991,"velocity":0.5511811023622047,"duration":0.14999999999999858},{"name":"F4","midi":65,"time":51.149999999999906,"velocity":0.5511811023622047,"duration":0.14999999999999858},{"name":"B4","midi":71,"time":51.299999999999905,"velocity":0.5511811023622047,"duration":0.2224999999999966},{"name":"D4","midi":62,"time":51.299999999999905,"velocity":0.5511811023622047,"duration":0.14999999999999858},{"name":"E4","midi":64,"time":51.4499999999999,"velocity":0.5511811023622047,"duration":0.14999999999999858},{"name":"E5","midi":76,"time":51.5999999999999,"velocity":0.5511811023622047,"duration":0.8999999999999915},{"name":"C4","midi":60,"time":51.5999999999999,"velocity":0.5511811023622047,"duration":0.14999999999999858},{"name":"E4","midi":64,"time":51.7499999999999,"velocity":0.5511811023622047,"duration":0.14999999999999858},{"name":"C5","midi":72,"time":51.8999999999999,"velocity":0.5511811023622047,"duration":0.2224999999999966},{"name":"D4","midi":62,"time":51.8999999999999,"velocity":0.5511811023622047,"duration":0.14999999999999858},{"name":"E4","midi":64,"time":52.0499999999999,"velocity":0.5511811023622047,"duration":0.14999999999999858},{"name":"A4","midi":69,"time":52.199999999999896,"velocity":0.5511811023622047,"duration":0.8999999999999915},{"name":"F4","midi":65,"time":52.199999999999896,"velocity":0.5511811023622047,"duration":0.14999999999999858},{"name":"G4","midi":67,"time":52.349999999999895,"velocity":0.5511811023622047,"duration":0.14999999999999858},{"name":"C5","midi":72,"time":52.49999999999989,"velocity":0.5511811023622047,"duration":0.2224999999999966},{"name":"E4","midi":64,"time":52.49999999999989,"velocity":0.5511811023622047,"duration":0.14999999999999858},{"name":"F4","midi":65,"time":52.64999999999989,"velocity":0.5511811023622047,"duration":0.14999999999999858},{"name":"F5","midi":77,"time":52.79999999999989,"velocity":0.5511811023622047,"duration":0.8999999999999915},{"name":"D4","midi":62,"time":52.79999999999989,"velocity":0.5511811023622047,"duration":0.14999999999999858},{"name":"F4","midi":65,"time":52.94999999999989,"velocity":0.5511811023622047,"duration":0.14999999999999858},{"name":"D5","midi":74,"time":53.09999999999989,"velocity":0.5511811023622047,"duration":0.2224999999999966},{"name":"E4","midi":64,"time":53.09999999999989,"velocity":0.5511811023622047,"duration":0.14999999999999858},{"name":"F4","midi":65,"time":53.249999999999886,"velocity":0.5511811023622047,"duration":0.14999999999999858},{"name":"B4","midi":71,"time":53.399999999999885,"velocity":0.5511811023622047,"duration":0.8999999999999915},{"name":"G4","midi":67,"time":53.399999999999885,"velocity":0.5511811023622047,"duration":0.14999999999999858},{"name":"A4","midi":69,"time":53.54999999999988,"velocity":0.5511811023622047,"duration":0.14999999999999858},{"name":"D5","midi":74,"time":53.69999999999988,"velocity":0.5511811023622047,"duration":0.2224999999999966},{"name":"F4","midi":65,"time":53.69999999999988,"velocity":0.5511811023622047,"duration":0.14999999999999858},{"name":"G4","midi":67,"time":53.84999999999988,"velocity":0.5511811023622047,"duration":0.14999999999999858},{"name":"G5","midi":79,"time":53.99999999999988,"velocity":0.5511811023622047,"duration":0.5999999999999943},{"name":"E4","midi":64,"time":53.99999999999988,"velocity":0.5511811023622047,"duration":0.14999999999999858},{"name":"D4","midi":62,"time":54.14999999999988,"velocity":0.5511811023622047,"duration":0.14999999999999858},{"name":"B4","midi":71,"time":54.299999999999876,"velocity":0.5511811023622047,"duration":0.29999999999999716},{"name":"E4","midi":64,"time":54.299999999999876,"velocity":0.5511811023622047,"duration":0.14999999999999858},{"name":"F4","midi":65,"time":54.449999999999875,"velocity":0.5511811023622047,"duration":0.14999999999999858},{"name":"A5","midi":81,"time":54.59999999999987,"velocity":0.5511811023622047,"duration":0.29999999999999716},{"name":"C5","midi":72,"time":54.59999999999987,"velocity":0.5511811023622047,"duration":0.29999999999999716},{"name":"E4","midi":64,"time":54.59999999999987,"velocity":0.5511811023622047,"duration":0.14999999999999858},{"name":"F4","midi":65,"time":54.74999999999987,"velocity":0.5511811023622047,"duration":0.14999999999999858},{"name":"B5","midi":83,"time":54.89999999999987,"velocity":0.5511811023622047,"duration":0.29999999999999716},{"name":"D5","midi":74,"time":54.89999999999987,"velocity":0.5511811023622047,"duration":0.29999999999999716},{"name":"D4","midi":62,"time":54.89999999999987,"velocity":0.5511811023622047,"duration":0.14999999999999858},{"name":"E4","midi":64,"time":55.04999999999987,"velocity":0.5511811023622047,"duration":0.14999999999999858},{"name":"C6","midi":84,"time":55.19999999999987,"velocity":0.5511811023622047,"duration":4.199999999999967},{"name":"E5","midi":76,"time":55.19999999999987,"velocity":0.5511811023622047,"duration":0.29999999999999716},{"name":"C4","midi":60,"time":55.19999999999987,"velocity":0.5511811023622047,"duration":0.14999999999999858},{"name":"D4","midi":62,"time":55.349999999999866,"velocity":0.5511811023622047,"duration":0.14999999999999858},{"name":"G5","midi":79,"time":55.499999999999865,"velocity":0.5511811023622047,"duration":0.14999999999999858},{"name":"E4","midi":64,"time":55.499999999999865,"velocity":0.5511811023622047,"duration":0.14999999999999858},{"name":"F5","midi":77,"time":55.649999999999864,"velocity":0.5511811023622047,"duration":0.14999999999999858},{"name":"D4","midi":62,"time":55.649999999999864,"velocity":0.5511811023622047,"duration":0.14999999999999858},{"name":"G5","midi":79,"time":55.79999999999986,"velocity":0.5511811023622047,"duration":0.2224999999999966},{"name":"C4","midi":60,"time":55.79999999999986,"velocity":0.5511811023622047,"duration":0.14999999999999858},{"name":"A#3","midi":58,"time":55.94999999999986,"velocity":0.5511811023622047,"duration":0.14999999999999858},{"name":"C5","midi":72,"time":56.09999999999986,"velocity":0.5511811023622047,"duration":0.2224999999999966},{"name":"A3","midi":57,"time":56.09999999999986,"velocity":0.5511811023622047,"duration":0.14999999999999858},{"name":"G3","midi":55,"time":56.24999999999986,"velocity":0.5511811023622047,"duration":0.14999999999999858},{"name":"A5","midi":81,"time":56.39999999999986,"velocity":0.5511811023622047,"duration":0.07500000000000284},{"name":"F3","midi":53,"time":56.39999999999986,"velocity":0.5511811023622047,"duration":0.15000000000000568},{"name":"G5","midi":79,"time":56.46999999999986,"velocity":0.5511811023622047,"duration":0.07500000000000284},{"name":"A5","midi":81,"time":56.54999999999986,"velocity":0.5511811023622047,"duration":0.44999999999999574},{"name":"E3","midi":52,"time":56.54999999999986,"velocity":0.5511811023622047,"duration":0.14999999999999858},{"name":"F3","midi":53,"time":56.69999999999986,"velocity":0.5511811023622047,"duration":0.14999999999999858},{"name":"G3","midi":55,"time":56.84999999999986,"velocity":0.5511811023622047,"duration":0.14999999999999858},{"name":"G5","midi":79,"time":56.99999999999986,"velocity":0.5511811023622047,"duration":0.5999999999999943},{"name":"F3","midi":53,"time":56.99999999999986,"velocity":0.5511811023622047,"duration":0.14999999999999858},{"name":"G3","midi":55,"time":57.14999999999986,"velocity":0.5511811023622047,"duration":0.14999999999999858},{"name":"E3","midi":52,"time":57.299999999999855,"velocity":0.5511811023622047,"duration":0.14999999999999858},{"name":"F3","midi":53,"time":57.449999999999854,"velocity":0.5511811023622047,"duration":0.14999999999999858},{"name":"D3","midi":50,"time":57.59999999999985,"velocity":0.5511811023622047,"duration":0.14999999999999858},{"name":"A3","midi":57,"time":57.74999999999985,"velocity":0.5511811023622047,"duration":0.14999999999999858},{"name":"F5","midi":77,"time":57.89999999999985,"velocity":0.5511811023622047,"duration":0.14999999999999858},{"name":"B3","midi":59,"time":57.89999999999985,"velocity":0.5511811023622047,"duration":0.14999999999999858},{"name":"E5","midi":76,"time":58.04999999999985,"velocity":0.5511811023622047,"duration":0.14999999999999858},{"name":"C4","midi":60,"time":58.04999999999985,"velocity":0.5511811023622047,"duration":0.14999999999999858},{"name":"F5","midi":77,"time":58.19999999999985,"velocity":0.5511811023622047,"duration":0.14999999999999858},{"name":"D4","midi":62,"time":58.19999999999985,"velocity":0.5511811023622047,"duration":0.14999999999999858},{"name":"G5","midi":79,"time":58.349999999999845,"velocity":0.5511811023622047,"duration":0.14999999999999858},{"name":"E4","midi":64,"time":58.349999999999845,"velocity":0.5511811023622047,"duration":0.14999999999999858},{"name":"E5","midi":76,"time":58.499999999999844,"velocity":0.5511811023622047,"duration":0.14999999999999858},{"name":"F4","midi":65,"time":58.499999999999844,"velocity":0.5511811023622047,"duration":0.14999999999999858},{"name":"F5","midi":77,"time":58.64999999999984,"velocity":0.5511811023622047,"duration":0.14999999999999858},{"name":"D4","midi":62,"time":58.64999999999984,"velocity":0.5511811023622047,"duration":0.14999999999999858},{"name":"D5","midi":74,"time":58.79999999999984,"velocity":0.5511811023622047,"duration":0.14999999999999858},{"name":"G4","midi":67,"time":58.79999999999984,"velocity":0.5511811023622047,"duration":3.599999999999973},{"name":"F5","midi":77,"time":58.94999999999984,"velocity":0.5511811023622047,"duration":0.14999999999999858},{"name":"E5","midi":76,"time":59.09999999999984,"velocity":0.5511811023622047,"duration":0.14999999999999858},{"name":"F5","midi":77,"time":59.24999999999984,"velocity":0.5511811023622047,"duration":0.14999999999999858},{"name":"B5","midi":83,"time":59.399999999999835,"velocity":0.5511811023622047,"duration":0.5999999999999943},{"name":"G5","midi":79,"time":59.399999999999835,"velocity":0.5511811023622047,"duration":0.14999999999999858},{"name":"A5","midi":81,"time":59.549999999999834,"velocity":0.5511811023622047,"duration":0.14999999999999858},{"name":"F5","midi":77,"time":59.69999999999983,"velocity":0.5511811023622047,"duration":0.14999999999999858},{"name":"G5","midi":79,"time":59.84999999999983,"velocity":0.5511811023622047,"duration":0.14999999999999858},{"name":"E5","midi":76,"time":59.99999999999983,"velocity":0.5511811023622047,"duration":0.14999999999999858},{"name":"D5","midi":74,"time":60.14999999999983,"velocity":0.5511811023622047,"duration":0.14999999999999858},{"name":"C6","midi":84,"time":60.29999999999983,"velocity":0.5511811023622047,"duration":0.14999999999999858},{"name":"E5","midi":76,"time":60.29999999999983,"velocity":0.5511811023622047,"duration":0.14999999999999858},{"name":"B5","midi":83,"time":60.449999999999825,"velocity":0.5511811023622047,"duration":0.14999999999999858},{"name":"F5","midi":77,"time":60.449999999999825,"velocity":0.5511811023622047,"duration":0.14999999999999858},{"name":"C6","midi":84,"time":60.599999999999824,"velocity":0.5511811023622047,"duration":0.2224999999999966},{"name":"E5","midi":76,"time":60.599999999999824,"velocity":0.5511811023622047,"duration":0.14999999999999858},{"name":"F5","midi":77,"time":60.74999999999982,"velocity":0.5511811023622047,"duration":0.14999999999999858},{"name":"G5","midi":79,"time":60.89999999999982,"velocity":0.5511811023622047,"duration":0.2224999999999966},{"name":"D5","midi":74,"time":60.89999999999982,"velocity":0.5511811023622047,"duration":0.14999999999999858},{"name":"E5","midi":76,"time":61.04999999999982,"velocity":0.5511811023622047,"duration":0.14999999999999858},{"name":"E6","midi":88,"time":61.19999999999982,"velocity":0.5511811023622047,"duration":0.07500000000000284},{"name":"C5","midi":72,"time":61.19999999999982,"velocity":0.5511811023622047,"duration":0.15000000000000568},{"name":"D6","midi":86,"time":61.26999999999982,"velocity":0.5511811023622047,"duration":0.07500000000000284},{"name":"E6","midi":88,"time":61.349999999999824,"velocity":0.5511811023622047,"duration":0.44999999999999574},{"name":"B4","midi":71,"time":61.349999999999824,"velocity":0.5511811023622047,"duration":0.14999999999999858},{"name":"C5","midi":72,"time":61.49999999999982,"velocity":0.5511811023622047,"duration":0.14999999999999858},{"name":"D5","midi":74,"time":61.64999999999982,"velocity":0.5511811023622047,"duration":0.14999999999999858},{"name":"D6","midi":86,"time":61.79999999999982,"velocity":0.5511811023622047,"duration":0.5999999999999943},{"name":"C5","midi":72,"time":61.79999999999982,"velocity":0.5511811023622047,"duration":0.14999999999999858},{"name":"D5","midi":74,"time":61.94999999999982,"velocity":0.5511811023622047,"duration":0.14999999999999858},{"name":"B4","midi":71,"time":62.09999999999982,"velocity":0.5511811023622047,"duration":0.14999999999999858},{"name":"C5","midi":72,"time":62.249999999999815,"velocity":0.5511811023622047,"duration":0.14999999999999858},{"name":"A4","midi":69,"time":62.399999999999814,"velocity":0.5511811023622047,"duration":0.14999999999999858},{"name":"B4","midi":71,"time":62.54999999999981,"velocity":0.5511811023622047,"duration":0.14999999999999858},{"name":"C6","midi":84,"time":62.69999999999981,"velocity":0.5511811023622047,"duration":0.14999999999999858},{"name":"C5","midi":72,"time":62.69999999999981,"velocity":0.5511811023622047,"duration":0.14999999999999858},{"name":"B5","midi":83,"time":62.84999999999981,"velocity":0.5511811023622047,"duration":0.14999999999999858},{"name":"D5","midi":74,"time":62.84999999999981,"velocity":0.5511811023622047,"duration":0.14999999999999858},{"name":"C6","midi":84,"time":62.99999999999981,"velocity":0.5511811023622047,"duration":0.14999999999999858},{"name":"E5","midi":76,"time":62.99999999999981,"velocity":0.5511811023622047,"duration":0.14999999999999858},{"name":"D6","midi":86,"time":63.14999999999981,"velocity":0.5511811023622047,"duration":0.14999999999999858},{"name":"F#5","midi":78,"time":63.14999999999981,"velocity":0.5511811023622047,"duration":0.14999999999999858},{"name":"B5","midi":83,"time":63.299999999999805,"velocity":0.5511811023622047,"duration":0.14999999999999858},{"name":"G5","midi":79,"time":63.299999999999805,"velocity":0.5511811023622047,"duration":0.5999999999999943},{"name":"B4","midi":71,"time":63.299999999999805,"velocity":0.5511811023622047,"duration":0.2224999999999966},{"name":"C6","midi":84,"time":63.449999999999804,"velocity":0.5511811023622047,"duration":0.14999999999999858},{"name":"A5","midi":81,"time":63.5999999999998,"velocity":0.5511811023622047,"duration":0.14999999999999858},{"name":"C5","midi":72,"time":63.5999999999998,"velocity":0.5511811023622047,"duration":0.2224999999999966},{"name":"C6","midi":84,"time":63.7499999999998,"velocity":0.5511811023622047,"duration":0.14999999999999858},{"name":"B5","midi":83,"time":63.8999999999998,"velocity":0.5511811023622047,"duration":0.14999999999999858},{"name":"G5","midi":79,"time":63.8999999999998,"velocity":0.5511811023622047,"duration":0.6000000000000156},{"name":"A4","midi":69,"time":63.8999999999998,"velocity":0.5511811023622047,"duration":0.2225000000000037},{"name":"C6","midi":84,"time":64.0499999999998,"velocity":0.5511811023622047,"duration":0.15000000000000568},{"name":"D6","midi":86,"time":64.1999999999998,"velocity":0.5511811023622047,"duration":0.15000000000000568},{"name":"D5","midi":74,"time":64.1999999999998,"velocity":0.5511811023622047,"duration":0.2225000000000108},{"name":"E6","midi":88,"time":64.34999999999981,"velocity":0.5511811023622047,"duration":0.15000000000000568},{"name":"C6","midi":84,"time":64.49999999999982,"velocity":0.5511811023622047,"duration":0.15000000000000568},{"name":"F#5","midi":78,"time":64.49999999999982,"velocity":0.5511811023622047,"duration":0.30000000000001137},{"name":"D4","midi":62,"time":64.49999999999982,"velocity":0.5511811023622047,"duration":0.2225000000000108},{"name":"D6","midi":86,"time":64.64999999999982,"velocity":0.5511811023622047,"duration":0.15000000000000568},{"name":"B5","midi":83,"time":64.79999999999983,"velocity":0.5511811023622047,"duration":0.30000000000001137},{"name":"G5","midi":79,"time":64.79999999999983,"velocity":0.5511811023622047,"duration":0.6000000000000227},{"name":"G3","midi":55,"time":64.79999999999983,"velocity":0.5511811023622047,"duration":0.15000000000000568},{"name":"F#3","midi":54,"time":64.94999999999983,"velocity":0.5511811023622047,"duration":0.15000000000000568},{"name":"D6","midi":86,"time":65.09999999999984,"velocity":0.5511811023622047,"duration":0.15000000000000568},{"name":"G3","midi":55,"time":65.09999999999984,"velocity":0.5511811023622047,"duration":0.15000000000000568},{"name":"C6","midi":84,"time":65.24999999999984,"velocity":0.5511811023622047,"duration":0.15000000000000568},{"name":"A3","midi":57,"time":65.24999999999984,"velocity":0.5511811023622047,"duration":0.15000000000000568},{"name":"D6","midi":86,"time":65.39999999999985,"velocity":0.5511811023622047,"duration":0.2225000000000108},{"name":"B3","midi":59,"time":65.39999999999985,"velocity":0.5511811023622047,"duration":0.15000000000000568},{"name":"C4","midi":60,"time":65.54999999999986,"velocity":0.5511811023622047,"duration":0.15000000000000568},{"name":"G5","midi":79,"time":65.69999999999986,"velocity":0.5511811023622047,"duration":0.2225000000000108},{"name":"A3","midi":57,"time":65.69999999999986,"velocity":0.5511811023622047,"duration":0.15000000000000568},{"name":"B3","midi":59,"time":65.84999999999987,"velocity":0.5511811023622047,"duration":0.15000000000000568},{"name":"E6","midi":88,"time":65.99999999999987,"velocity":0.5511811023622047,"duration":0.6000000000000227},{"name":"C4","midi":60,"time":65.99999999999987,"velocity":0.5511811023622047,"duration":0.15000000000000568},{"name":"B3","midi":59,"time":66.14999999999988,"velocity":0.5511811023622047,"duration":0.15000000000000568},{"name":"G5","midi":79,"time":66.29999999999988,"velocity":0.5511811023622047,"duration":0.15000000000000568},{"name":"C4","midi":60,"time":66.29999999999988,"velocity":0.5511811023622047,"duration":0.15000000000000568},{"name":"F5","midi":77,"time":66.44999999999989,"velocity":0.5511811023622047,"duration":0.15000000000000568},{"name":"D4","midi":62,"time":66.44999999999989,"velocity":0.5511811023622047,"duration":0.15000000000000568},{"name":"D6","midi":86,"time":66.5999999999999,"velocity":0.5511811023622047,"duration":0.6000000000000227},{"name":"G5","midi":79,"time":66.5999999999999,"velocity":0.5511811023622047,"duration":0.2225000000000108},{"name":"C4","midi":60,"time":66.5999999999999,"velocity":0.5511811023622047,"duration":0.15000000000000568},{"name":"D4","midi":62,"time":66.7499999999999,"velocity":0.5511811023622047,"duration":0.15000000000000568},{"name":"D5","midi":74,"time":66.8999999999999,"velocity":0.5511811023622047,"duration":0.2225000000000108},{"name":"B3","midi":59,"time":66.8999999999999,"velocity":0.5511811023622047,"duration":0.15000000000000568},{"name":"C4","midi":60,"time":67.04999999999991,"velocity":0.5511811023622047,"duration":0.15000000000000568},{"name":"C6","midi":84,"time":67.19999999999992,"velocity":0.5511811023622047,"duration":0.30000000000001137},{"name":"A5","midi":81,"time":67.19999999999992,"velocity":0.5511811023622047,"duration":0.6000000000000227},{"name":"A3","midi":57,"time":67.19999999999992,"velocity":0.5511811023622047,"duration":0.15000000000000568},{"name":"G#3","midi":56,"time":67.34999999999992,"velocity":0.5511811023622047,"duration":0.15000000000000568},{"name":"E6","midi":88,"time":67.49999999999993,"velocity":0.5511811023622047,"duration":0.15000000000000568},{"name":"A3","midi":57,"time":67.49999999999993,"velocity":0.5511811023622047,"duration":0.15000000000000568},{"name":"D6","midi":86,"time":67.64999999999993,"velocity":0.5511811023622047,"duration":0.15000000000000568},{"name":"B3","midi":59,"time":67.64999999999993,"velocity":0.5511811023622047,"duration":0.15000000000000568},{"name":"E6","midi":88,"time":67.79999999999994,"velocity":0.5511811023622047,"duration":0.2225000000000108},{"name":"G5","midi":79,"time":67.79999999999994,"velocity":0.5511811023622047,"duration":0.6000000000000227},{"name":"C4","midi":60,"time":67.79999999999994,"velocity":0.5511811023622047,"duration":0.15000000000000568},{"name":"D4","midi":62,"time":67.94999999999995,"velocity":0.5511811023622047,"duration":0.15000000000000568},{"name":"A5","midi":81,"time":68.09999999999995,"velocity":0.5511811023622047,"duration":0.2225000000000108},{"name":"B3","midi":59,"time":68.09999999999995,"velocity":0.5511811023622047,"duration":0.15000000000000568},{"name":"C4","midi":60,"time":68.24999999999996,"velocity":0.5511811023622047,"duration":0.15000000000000568},{"name":"F6","midi":89,"time":68.39999999999996,"velocity":0.5511811023622047,"duration":0.6000000000000227},{"name":"F5","midi":77,"time":68.39999999999996,"velocity":0.5511811023622047,"duration":0.30000000000001137},{"name":"D4","midi":62,"time":68.39999999999996,"velocity":0.5511811023622047,"duration":0.15000000000000568},{"name":"C4","midi":60,"time":68.54999999999997,"velocity":0.5511811023622047,"duration":0.15000000000000568},{"name":"A5","midi":81,"time":68.69999999999997,"velocity":0.5511811023622047,"duration":0.15000000000000568},{"name":"D4","midi":62,"time":68.69999999999997,"velocity":0.5511811023622047,"duration":0.15000000000000568},{"name":"G5","midi":79,"time":68.84999999999998,"velocity":0.5511811023622047,"duration":0.15000000000000568},{"name":"E4","midi":64,"time":68.84999999999998,"velocity":0.5511811023622047,"duration":0.15000000000000568},{"name":"E6","midi":88,"time":68.99999999999999,"velocity":0.5511811023622047,"duration":0.6000000000000227},{"name":"A5","midi":81,"time":68.99999999999999,"velocity":0.5511811023622047,"duration":0.2225000000000108},{"name":"D4","midi":62,"time":68.99999999999999,"velocity":0.5511811023622047,"duration":0.15000000000000568},{"name":"E4","midi":64,"time":69.14999999999999,"velocity":0.5511811023622047,"duration":0.15000000000000568},{"name":"E5","midi":76,"time":69.3,"velocity":0.5511811023622047,"duration":0.2225000000000108},{"name":"C4","midi":60,"time":69.3,"velocity":0.5511811023622047,"duration":0.15000000000000568},{"name":"D4","midi":62,"time":69.45,"velocity":0.5511811023622047,"duration":0.15000000000000568},{"name":"D6","midi":86,"time":69.60000000000001,"velocity":0.5511811023622047,"duration":0.30000000000001137},{"name":"B5","midi":83,"time":69.60000000000001,"velocity":0.5511811023622047,"duration":0.6000000000000227},{"name":"B3","midi":59,"time":69.60000000000001,"velocity":0.5511811023622047,"duration":0.15000000000000568},{"name":"A3","midi":57,"time":69.75000000000001,"velocity":0.5511811023622047,"duration":0.15000000000000568},{"name":"F6","midi":89,"time":69.90000000000002,"velocity":0.5511811023622047,"duration":0.15000000000000568},{"name":"B3","midi":59,"time":69.90000000000002,"velocity":0.5511811023622047,"duration":0.15000000000000568},{"name":"E6","midi":88,"time":70.05000000000003,"velocity":0.5511811023622047,"duration":0.15000000000000568},{"name":"C4","midi":60,"time":70.05000000000003,"velocity":0.5511811023622047,"duration":0.15000000000000568},{"name":"F6","midi":89,"time":70.20000000000003,"velocity":0.5511811023622047,"duration":0.2225000000000108},{"name":"A5","midi":81,"time":70.20000000000003,"velocity":0.5511811023622047,"duration":0.6000000000000227},{"name":"D4","midi":62,"time":70.20000000000003,"velocity":0.5511811023622047,"duration":0.15000000000000568},{"name":"E4","midi":64,"time":70.35000000000004,"velocity":0.5511811023622047,"duration":0.15000000000000568},{"name":"B5","midi":83,"time":70.50000000000004,"velocity":0.5511811023622047,"duration":0.2225000000000108},{"name":"C4","midi":60,"time":70.50000000000004,"velocity":0.5511811023622047,"duration":0.15000000000000568},{"name":"D4","midi":62,"time":70.65000000000005,"velocity":0.5511811023622047,"duration":0.15000000000000568},{"name":"G6","midi":91,"time":70.80000000000005,"velocity":0.5511811023622047,"duration":0.6000000000000227},{"name":"G5","midi":79,"time":70.80000000000005,"velocity":0.5511811023622047,"duration":0.30000000000001137},{"name":"E4","midi":64,"time":70.80000000000005,"velocity":0.5511811023622047,"duration":0.15000000000000568},{"name":"D4","midi":62,"time":70.95000000000006,"velocity":0.5511811023622047,"duration":0.15000000000000568},{"name":"B5","midi":83,"time":71.10000000000007,"velocity":0.5511811023622047,"duration":0.15000000000000568},{"name":"E4","midi":64,"time":71.10000000000007,"velocity":0.5511811023622047,"duration":0.15000000000000568},{"name":"A5","midi":81,"time":71.25000000000007,"velocity":0.5511811023622047,"duration":0.15000000000000568},{"name":"F4","midi":65,"time":71.25000000000007,"velocity":0.5511811023622047,"duration":0.15000000000000568},{"name":"F6","midi":89,"time":71.40000000000008,"velocity":0.5511811023622047,"duration":0.6000000000000227},{"name":"B5","midi":83,"time":71.40000000000008,"velocity":0.5511811023622047,"duration":0.2225000000000108},{"name":"E4","midi":64,"time":71.40000000000008,"velocity":0.5511811023622047,"duration":0.15000000000000568},{"name":"F4","midi":65,"time":71.55000000000008,"velocity":0.5511811023622047,"duration":0.15000000000000568},{"name":"G5","midi":79,"time":71.70000000000009,"velocity":0.5511811023622047,"duration":0.2225000000000108},{"name":"D4","midi":62,"time":71.70000000000009,"velocity":0.5511811023622047,"duration":0.15000000000000568},{"name":"E4","midi":64,"time":71.8500000000001,"velocity":0.5511811023622047,"duration":0.15000000000000568},{"name":"E6","midi":88,"time":72.0000000000001,"velocity":0.5511811023622047,"duration":0.30000000000001137},{"name":"C6","midi":84,"time":72.0000000000001,"velocity":0.5511811023622047,"duration":0.6000000000000227},{"name":"C4","midi":60,"time":72.0000000000001,"velocity":0.5511811023622047,"duration":0.15000000000000568},{"name":"B3","midi":59,"time":72.1500000000001,"velocity":0.5511811023622047,"duration":0.15000000000000568},{"name":"F6","midi":89,"time":72.30000000000011,"velocity":0.5511811023622047,"duration":0.30000000000001137},{"name":"C4","midi":60,"time":72.30000000000011,"velocity":0.5511811023622047,"duration":0.15000000000000568},{"name":"D4","midi":62,"time":72.45000000000012,"velocity":0.5511811023622047,"duration":0.15000000000000568},{"name":"G6","midi":91,"time":72.60000000000012,"velocity":0.5511811023622047,"duration":1.2000000000000455},{"name":"A#5","midi":82,"time":72.60000000000012,"velocity":0.5511811023622047,"duration":0.6000000000000227},{"name":"E4","midi":64,"time":72.60000000000012,"velocity":0.5511811023622047,"duration":0.15000000000000568},{"name":"F4","midi":65,"time":72.75000000000013,"velocity":0.5511811023622047,"duration":0.15000000000000568},{"name":"D4","midi":62,"time":72.90000000000013,"velocity":0.5511811023622047,"duration":0.15000000000000568},{"name":"E4","midi":64,"time":73.05000000000014,"velocity":0.5511811023622047,"duration":0.15000000000000568},{"name":"A5","midi":81,"time":73.20000000000014,"velocity":0.5511811023622047,"duration":1.2000000000000455},{"name":"F4","midi":65,"time":73.20000000000014,"velocity":0.5511811023622047,"duration":0.15000000000000568},{"name":"G4","midi":67,"time":73.35000000000015,"velocity":0.5511811023622047,"duration":0.15000000000000568},{"name":"F4","midi":65,"time":73.50000000000016,"velocity":0.5511811023622047,"duration":0.15000000000000568},{"name":"E4","midi":64,"time":73.65000000000016,"velocity":0.5511811023622047,"duration":0.15000000000000568},{"name":"F6","midi":89,"time":73.80000000000017,"velocity":0.5511811023622047,"duration":1.2000000000000455},{"name":"D4","midi":62,"time":73.80000000000017,"velocity":0.5511811023622047,"duration":0.15000000000000568},{"name":"C4","midi":60,"time":73.95000000000017,"velocity":0.5511811023622047,"duration":0.15000000000000568},{"name":"B3","midi":59,"time":74.10000000000018,"velocity":0.5511811023622047,"duration":0.15000000000000568},{"name":"A3","midi":57,"time":74.25000000000018,"velocity":0.5511811023622047,"duration":0.15000000000000568},{"name":"G5","midi":79,"time":74.40000000000019,"velocity":0.5511811023622047,"duration":1.2000000000000455},{"name":"B3","midi":59,"time":74.40000000000019,"velocity":0.5511811023622047,"duration":0.15000000000000568},{"name":"G3","midi":55,"time":74.5500000000002,"velocity":0.5511811023622047,"duration":0.15000000000000568},{"name":"A3","midi":57,"time":74.7000000000002,"velocity":0.5511811023622047,"duration":0.15000000000000568},{"name":"B3","midi":59,"time":74.85000000000021,"velocity":0.5511811023622047,"duration":0.15000000000000568},{"name":"E6","midi":88,"time":75.00000000000021,"velocity":0.5511811023622047,"duration":1.2000000000000455},{"name":"C4","midi":60,"time":75.00000000000021,"velocity":0.5511811023622047,"duration":0.15000000000000568},{"name":"D4","midi":62,"time":75.15000000000022,"velocity":0.5511811023622047,"duration":0.15000000000000568},{"name":"B3","midi":59,"time":75.30000000000022,"velocity":0.5511811023622047,"duration":0.15000000000000568},{"name":"C4","midi":60,"time":75.45000000000023,"velocity":0.5511811023622047,"duration":0.15000000000000568},{"name":"F5","midi":77,"time":75.60000000000024,"velocity":0.5511811023622047,"duration":1.8000000000000682},{"name":"A3","midi":57,"time":75.60000000000024,"velocity":0.5511811023622047,"duration":0.15000000000000568},{"name":"C4","midi":60,"time":75.75000000000024,"velocity":0.5511811023622047,"duration":0.15000000000000568},{"name":"B3","midi":59,"time":75.90000000000025,"velocity":0.5511811023622047,"duration":0.15000000000000568},{"name":"C4","midi":60,"time":76.05000000000025,"velocity":0.5511811023622047,"duration":0.15000000000000568},{"name":"D6","midi":86,"time":76.20000000000026,"velocity":0.5511811023622047,"duration":0.30000000000001137},{"name":"D4","midi":62,"time":76.20000000000026,"velocity":0.5511811023622047,"duration":0.15000000000000568},{"name":"E4","midi":64,"time":76.35000000000026,"velocity":0.5511811023622047,"duration":0.15000000000000568},{"name":"C6","midi":84,"time":76.50000000000027,"velocity":0.5511811023622047,"duration":0.30000000000001137},{"name":"F4","midi":65,"time":76.50000000000027,"velocity":0.5511811023622047,"duration":0.15000000000000568},{"name":"D4","midi":62,"time":76.65000000000028,"velocity":0.5511811023622047,"duration":0.15000000000000568},{"name":"B5","midi":83,"time":76.80000000000028,"velocity":0.5511811023622047,"duration":0.2225000000000108},{"name":"G4","midi":67,"time":76.80000000000028,"velocity":0.5511811023622047,"duration":0.15000000000000568},{"name":"A4","midi":69,"time":76.95000000000029,"velocity":0.5511811023622047,"duration":0.15000000000000568},{"name":"G5","midi":79,"time":77.10000000000029,"velocity":0.5511811023622047,"duration":0.2225000000000108},{"name":"F4","midi":65,"time":77.10000000000029,"velocity":0.5511811023622047,"duration":0.15000000000000568},{"name":"G4","midi":67,"time":77.2500000000003,"velocity":0.5511811023622047,"duration":0.15000000000000568},{"name":"C6","midi":84,"time":77.4000000000003,"velocity":0.5511811023622047,"duration":1.2000000000000455},{"name":"E5","midi":76,"time":77.4000000000003,"velocity":0.5511811023622047,"duration":0.6000000000000227},{"name":"A4","midi":69,"time":77.4000000000003,"velocity":0.5511811023622047,"duration":0.15000000000000568},{"name":"B4","midi":71,"time":77.55000000000031,"velocity":0.5511811023622047,"duration":0.15000000000000568},{"name":"G4","midi":67,"time":77.70000000000032,"velocity":0.5511811023622047,"duration":0.15000000000000568},{"name":"A4","midi":69,"time":77.85000000000032,"velocity":0.5511811023622047,"duration":0.15000000000000568},{"name":"D5","midi":74,"time":78.00000000000033,"velocity":0.5511811023622047,"duration":0.7500000000000284},{"name":"F4","midi":65,"time":78.00000000000033,"velocity":0.5511811023622047,"duration":0.15000000000000568},{"name":"G4","midi":67,"time":78.15000000000033,"velocity":0.5511811023622047,"duration":0.15000000000000568},{"name":"E4","midi":64,"time":78.30000000000034,"velocity":0.5511811023622047,"duration":0.15000000000000568},{"name":"F4","midi":65,"time":78.45000000000034,"velocity":0.5511811023622047,"duration":0.15000000000000568},{"name":"B5","midi":83,"time":78.60000000000035,"velocity":0.5511811023622047,"duration":0.6000000000000227},{"name":"G4","midi":67,"time":78.60000000000035,"velocity":0.5511811023622047,"duration":0.15000000000000568},{"name":"F5","midi":77,"time":78.75000000000036,"velocity":0.5511811023622047,"duration":0.15000000000000568},{"name":"A4","midi":69,"time":78.75000000000036,"velocity":0.5511811023622047,"duration":0.15000000000000568},{"name":"E5","midi":76,"time":78.90000000000036,"velocity":0.5511811023622047,"duration":0.15000000000000568},{"name":"F4","midi":65,"time":78.90000000000036,"velocity":0.5511811023622047,"duration":0.15000000000000568},{"name":"D5","midi":74,"time":79.05000000000037,"velocity":0.5511811023622047,"duration":0.15000000000000568},{"name":"G4","midi":67,"time":79.05000000000037,"velocity":0.5511811023622047,"duration":0.15000000000000568},{"name":"C6","midi":84,"time":79.20000000000037,"velocity":0.5511811023622047,"duration":0.30000000000001137},{"name":"G5","midi":79,"time":79.20000000000037,"velocity":0.5511811023622047,"duration":0.15000000000000568},{"name":"E4","midi":64,"time":79.20000000000037,"velocity":0.5511811023622047,"duration":0.30000000000001137},{"name":"A5","midi":81,"time":79.35000000000038,"velocity":0.5511811023622047,"duration":0.15000000000000568},{"name":"D6","midi":86,"time":79.50000000000038,"velocity":0.5511811023622047,"duration":0.29999999999999716},{"name":"F5","midi":77,"time":79.50000000000038,"velocity":0.5511811023622047,"duration":0.15000000000000568},{"name":"F4","midi":65,"time":79.50000000000038,"velocity":0.5511811023622047,"duration":0.29999999999999716},{"name":"G5","midi":79,"time":79.65000000000039,"velocity":0.5511811023622047,"duration":0.14749999999999375},{"name":"G5","midi":79,"time":79.80000000000038,"velocity":0.5511811023622047,"duration":0.15000000000000568},{"name":"E5","midi":76,"time":79.80000000000038,"velocity":0.5511811023622047,"duration":0.30000000000001137},{"name":"G4","midi":67,"time":79.80000000000038,"velocity":0.5511811023622047,"duration":0.30000000000001137},{"name":"C6","midi":84,"time":79.95000000000039,"velocity":0.5511811023622047,"duration":0.30000000000001137},{"name":"D5","midi":74,"time":80.10000000000039,"velocity":0.5511811023622047,"duration":0.30000000000001137},{"name":"G#4","midi":68,"time":80.10000000000039,"velocity":0.5511811023622047,"duration":0.30000000000001137},{"name":"B5","midi":83,"time":80.2500000000004,"velocity":0.5511811023622047,"duration":0.15000000000000568},{"name":"C6","midi":84,"time":80.4000000000004,"velocity":0.5511811023622047,"duration":0.15000000000000568},{"name":"C5","midi":72,"time":80.4000000000004,"velocity":0.5511811023622047,"duration":2.700000000000088},{"name":"A3","midi":57,"time":80.4000000000004,"velocity":0.5511811023622047,"duration":0.30000000000001137},{"name":"F5","midi":77,"time":80.55000000000041,"velocity":0.5511811023622047,"duration":0.15000000000000568},{"name":"E5","midi":76,"time":80.70000000000041,"velocity":0.5511811023622047,"duration":0.15000000000000568},{"name":"G4","midi":67,"time":80.70000000000041,"velocity":0.5511811023622047,"duration":0.15000000000000568},{"name":"D5","midi":74,"time":80.85000000000042,"velocity":0.5511811023622047,"duration":0.15000000000000568},{"name":"F4","midi":65,"time":80.85000000000042,"velocity":0.5511811023622047,"duration":0.15000000000000568},{"name":"E5","midi":76,"time":81.00000000000043,"velocity":0.5511811023622047,"duration":0.15000000000000568},{"name":"G4","midi":67,"time":81.00000000000043,"velocity":0.5511811023622047,"duration":0.2225000000000108},{"name":"F5","midi":77,"time":81.15000000000043,"velocity":0.5511811023622047,"duration":0.15000000000000568},{"name":"D5","midi":74,"time":81.30000000000044,"velocity":0.5511811023622047,"duration":0.15000000000000568},{"name":"C4","midi":60,"time":81.30000000000044,"velocity":0.5511811023622047,"duration":0.2225000000000108},{"name":"E5","midi":76,"time":81.45000000000044,"velocity":0.5511811023622047,"duration":0.15000000000000568},{"name":"F5","midi":77,"time":81.60000000000045,"velocity":0.5511811023622047,"duration":0.15000000000000568},{"name":"A4","midi":69,"time":81.60000000000045,"velocity":0.5511811023622047,"duration":0.07250000000000512},{"name":"G4","midi":67,"time":81.67500000000045,"velocity":0.5511811023622047,"duration":0.07250000000000512},{"name":"E5","midi":76,"time":81.75000000000045,"velocity":0.5511811023622047,"duration":0.15000000000000568},{"name":"A4","midi":69,"time":81.75000000000045,"velocity":0.5511811023622047,"duration":0.4475000000000051},{"name":"F5","midi":77,"time":81.90000000000046,"velocity":0.5511811023622047,"duration":0.15000000000000568},{"name":"G5","midi":79,"time":82.05000000000047,"velocity":0.5511811023622047,"duration":0.14999999999999147},{"name":"F5","midi":77,"time":82.20000000000046,"velocity":0.5511811023622047,"duration":0.15000000000000568},{"name":"G4","midi":67,"time":82.20000000000046,"velocity":0.5511811023622047,"duration":0.6000000000000227},{"name":"G5","midi":79,"time":82.35000000000046,"velocity":0.5511811023622047,"duration":0.15000000000000568},{"name":"E5","midi":76,"time":82.50000000000047,"velocity":0.5511811023622047,"duration":0.15000000000000568},{"name":"F5","midi":77,"time":82.65000000000047,"velocity":0.5511811023622047,"duration":0.15000000000000568},{"name":"D5","midi":74,"time":82.80000000000048,"velocity":0.5511811023622047,"duration":0.15000000000000568},{"name":"C5","midi":72,"time":82.95000000000049,"velocity":0.5511811023622047,"duration":0.9000000000000341},{"name":"D5","midi":74,"time":83.10000000000049,"velocity":0.5511811023622047,"duration":0.15000000000000568},{"name":"F4","midi":65,"time":83.10000000000049,"velocity":0.5511811023622047,"duration":0.15000000000000568},{"name":"E5","midi":76,"time":83.2500000000005,"velocity":0.5511811023622047,"duration":0.15000000000000568},{"name":"E4","midi":64,"time":83.2500000000005,"velocity":0.5511811023622047,"duration":0.15000000000000568},{"name":"D5","midi":74,"time":83.4000000000005,"velocity":0.5511811023622047,"duration":0.15000000000000568},{"name":"F4","midi":65,"time":83.4000000000005,"velocity":0.5511811023622047,"duration":0.2225000000000108},{"name":"E5","midi":76,"time":83.55000000000051,"velocity":0.5511811023622047,"duration":0.15000000000000568},{"name":"C5","midi":72,"time":83.70000000000051,"velocity":0.5511811023622047,"duration":1.1975000000000193},{"name":"D4","midi":62,"time":83.70000000000051,"velocity":0.5511811023622047,"duration":0.2225000000000108},{"name":"D5","midi":74,"time":83.85000000000052,"velocity":0.5511811023622047,"duration":0.15000000000000568},{"name":"E5","midi":76,"time":84.00000000000053,"velocity":0.5511811023622047,"duration":0.15000000000000568},{"name":"G4","midi":67,"time":84.00000000000053,"velocity":0.5511811023622047,"duration":0.07250000000000512},{"name":"F4","midi":65,"time":84.07500000000053,"velocity":0.5511811023622047,"duration":0.07250000000000512},{"name":"D5","midi":74,"time":84.15000000000053,"velocity":0.5511811023622047,"duration":0.15000000000000568},{"name":"G4","midi":67,"time":84.15000000000053,"velocity":0.5511811023622047,"duration":0.4475000000000051},{"name":"E5","midi":76,"time":84.30000000000054,"velocity":0.5511811023622047,"duration":0.15000000000000568},{"name":"F5","midi":77,"time":84.45000000000054,"velocity":0.5511811023622047,"duration":0.14999999999999147},{"name":"E5","midi":76,"time":84.60000000000053,"velocity":0.5511811023622047,"duration":0.15000000000000568},{"name":"F4","midi":65,"time":84.60000000000053,"velocity":0.5511811023622047,"duration":0.6000000000000085},{"name":"F5","midi":77,"time":84.75000000000054,"velocity":0.5511811023622047,"duration":0.14999999999999147},{"name":"D5","midi":74,"time":84.90000000000053,"velocity":0.5511811023622047,"duration":0.15000000000000568},{"name":"B4","midi":71,"time":84.90000000000053,"velocity":0.5511811023622047,"duration":0.30000000000001137},{"name":"E5","midi":76,"time":85.05000000000054,"velocity":0.5511811023622047,"duration":0.15000000000000568},{"name":"C5","midi":72,"time":85.20000000000054,"velocity":0.5511811023622047,"duration":0.29749999999999943},{"name":"C5","midi":72,"time":85.20000000000054,"velocity":0.5511811023622047,"duration":3.900000000000091},{"name":"E4","midi":64,"time":85.20000000000054,"velocity":0.5511811023622047,"duration":0.15000000000000568},{"name":"D4","midi":62,"time":85.35000000000055,"velocity":0.5511811023622047,"duration":0.14999999999999147},{"name":"G4","midi":67,"time":85.50000000000054,"velocity":0.5511811023622047,"duration":0.15000000000000568},{"name":"E4","midi":64,"time":85.50000000000054,"velocity":0.5511811023622047,"duration":0.15000000000000568},{"name":"F4","midi":65,"time":85.65000000000055,"velocity":0.5511811023622047,"duration":0.15000000000000568},{"name":"F4","midi":65,"time":85.65000000000055,"velocity":0.5511811023622047,"duration":0.15000000000000568},{"name":"G4","midi":67,"time":85.80000000000055,"velocity":0.5511811023622047,"duration":0.2225000000000108},{"name":"E4","midi":64,"time":85.80000000000055,"velocity":0.5511811023622047,"duration":0.15000000000000568},{"name":"F4","midi":65,"time":85.95000000000056,"velocity":0.5511811023622047,"duration":0.15000000000000568},{"name":"C4","midi":60,"time":86.10000000000056,"velocity":0.5511811023622047,"duration":0.2225000000000108},{"name":"D4","midi":62,"time":86.10000000000056,"velocity":0.5511811023622047,"duration":0.15000000000000568},{"name":"E4","midi":64,"time":86.25000000000057,"velocity":0.5511811023622047,"duration":0.15000000000000568},{"name":"A4","midi":69,"time":86.40000000000057,"velocity":0.5511811023622047,"duration":0.07250000000000512},{"name":"F4","midi":65,"time":86.40000000000057,"velocity":0.5511811023622047,"duration":0.15000000000000568},{"name":"G4","midi":67,"time":86.47500000000058,"velocity":0.5511811023622047,"duration":0.07250000000000512},{"name":"A4","midi":69,"time":86.55000000000058,"velocity":0.5511811023622047,"duration":0.4475000000000051},{"name":"E4","midi":64,"time":86.55000000000058,"velocity":0.5511811023622047,"duration":0.15000000000000568},{"name":"F4","midi":65,"time":86.70000000000059,"velocity":0.5511811023622047,"duration":0.15000000000000568},{"name":"G4","midi":67,"time":86.85000000000059,"velocity":0.5511811023622047,"duration":0.14749999999999375},{"name":"G4","midi":67,"time":87.00000000000058,"velocity":0.5511811023622047,"duration":0.30000000000001137},{"name":"F4","midi":65,"time":87.00000000000058,"velocity":0.5511811023622047,"duration":0.15000000000000568},{"name":"G4","midi":67,"time":87.15000000000059,"velocity":0.5511811023622047,"duration":0.4475000000000051},{"name":"E4","midi":64,"time":87.3000000000006,"velocity":0.5511811023622047,"duration":0.15000000000000568},{"name":"F4","midi":65,"time":87.4500000000006,"velocity":0.5511811023622047,"duration":0.14999999999999147},{"name":"D4","midi":62,"time":87.60000000000059,"velocity":0.5511811023622047,"duration":0.15000000000000568},{"name":"C4","midi":60,"time":87.7500000000006,"velocity":0.5511811023622047,"duration":0.15000000000000568},{"name":"F4","midi":65,"time":87.9000000000006,"velocity":0.5511811023622047,"duration":0.15000000000000568},{"name":"D4","midi":62,"time":87.9000000000006,"velocity":0.5511811023622047,"duration":0.15000000000000568},{"name":"E4","midi":64,"time":88.05000000000061,"velocity":0.5511811023622047,"duration":0.14749999999999375},{"name":"E4","midi":64,"time":88.05000000000061,"velocity":0.5511811023622047,"duration":0.14999999999999147},{"name":"F4","midi":65,"time":88.2000000000006,"velocity":0.5511811023622047,"duration":0.2225000000000108},{"name":"D4","midi":62,"time":88.2000000000006,"velocity":0.5511811023622047,"duration":0.15000000000000568},{"name":"C4","midi":60,"time":88.3500000000006,"velocity":0.5511811023622047,"duration":0.15000000000000568},{"name":"D4","midi":62,"time":88.50000000000061,"velocity":0.5511811023622047,"duration":0.2225000000000108},{"name":"B3","midi":59,"time":88.50000000000061,"velocity":0.5511811023622047,"duration":0.15000000000000568},{"name":"A3","midi":57,"time":88.65000000000062,"velocity":0.5511811023622047,"duration":0.15000000000000568},{"name":"G4","midi":67,"time":88.80000000000062,"velocity":0.5511811023622047,"duration":0.6000000000000227},{"name":"G3","midi":55,"time":88.80000000000062,"velocity":0.5511811023622047,"duration":0.15000000000000568},{"name":"F3","midi":53,"time":88.95000000000063,"velocity":0.5511811023622047,"duration":0.15000000000000568},{"name":"B4","midi":71,"time":89.10000000000063,"velocity":0.5511811023622047,"duration":0.30000000000001137},{"name":"G3","midi":55,"time":89.10000000000063,"velocity":0.5511811023622047,"duration":0.15000000000000568},{"name":"A3","midi":57,"time":89.25000000000064,"velocity":0.5511811023622047,"duration":0.15000000000000568},{"name":"C5","midi":72,"time":89.40000000000065,"velocity":0.5511811023622047,"duration":0.30000000000001137},{"name":"A4","midi":69,"time":89.40000000000065,"velocity":0.5511811023622047,"duration":0.30000000000001137},{"name":"G3","midi":55,"time":89.40000000000065,"velocity":0.5511811023622047,"duration":0.15000000000000568},{"name":"F3","midi":53,"time":89.55000000000065,"velocity":0.5511811023622047,"duration":0.15000000000000568},{"name":"D5","midi":74,"time":89.70000000000066,"velocity":0.5511811023622047,"duration":0.30000000000001137},{"name":"B4","midi":71,"time":89.70000000000066,"velocity":0.5511811023622047,"duration":0.30000000000001137},{"name":"E3","midi":52,"time":89.70000000000066,"velocity":0.5511811023622047,"duration":0.15000000000000568},{"name":"D3","midi":50,"time":89.85000000000066,"velocity":0.5511811023622047,"duration":0.15000000000000568},{"name":"E5","midi":76,"time":90.00000000000067,"velocity":0.5511811023622047,"duration":0.30000000000001137},{"name":"C5","midi":72,"time":90.00000000000067,"velocity":0.5511811023622047,"duration":0.30000000000001137},{"name":"C3","midi":48,"time":90.00000000000067,"velocity":0.5511811023622047,"duration":0.15000000000000568},{"name":"C4","midi":60,"time":90.15000000000067,"velocity":0.5511811023622047,"duration":0.15000000000000568},{"name":"G5","midi":79,"time":90.30000000000068,"velocity":0.5511811023622047,"duration":0.15000000000000568},{"name":"A#4","midi":70,"time":90.30000000000068,"velocity":0.5511811023622047,"duration":0.15000000000000568},{"name":"E4","midi":64,"time":90.30000000000068,"velocity":0.5511811023622047,"duration":0.15000000000000568},{"name":"F5","midi":77,"time":90.45000000000068,"velocity":0.5511811023622047,"duration":0.15000000000000568},{"name":"A4","midi":69,"time":90.45000000000068,"velocity":0.5511811023622047,"duration":0.15000000000000568},{"name":"C4","midi":60,"time":90.45000000000068,"velocity":0.5511811023622047,"duration":0.15000000000000568},{"name":"G5","midi":79,"time":90.60000000000069,"velocity":0.5511811023622047,"duration":0.2225000000000108},{"name":"A#4","midi":70,"time":90.60000000000069,"velocity":0.5511811023622047,"duration":0.2225000000000108},{"name":"C3","midi":48,"time":90.60000000000069,"velocity":0.5511811023622047,"duration":0.15000000000000568},{"name":"C4","midi":60,"time":90.7500000000007,"velocity":0.5511811023622047,"duration":0.15000000000000568},{"name":"C5","midi":72,"time":90.9000000000007,"velocity":0.5511811023622047,"duration":0.2225000000000108},{"name":"E5","midi":76,"time":90.9000000000007,"velocity":0.5511811023622047,"duration":0.2225000000000108},{"name":"G4","midi":67,"time":90.9000000000007,"velocity":0.5511811023622047,"duration":0.15000000000000568},{"name":"C4","midi":60,"time":91.05000000000071,"velocity":0.5511811023622047,"duration":0.15000000000000568},{"name":"A5","midi":81,"time":91.20000000000071,"velocity":0.5511811023622047,"duration":0.6000000000000227},{"name":"F5","midi":77,"time":91.20000000000071,"velocity":0.5511811023622047,"duration":0.6000000000000227},{"name":"C3","midi":48,"time":91.20000000000071,"velocity":0.5511811023622047,"duration":0.15000000000000568},{"name":"D3","midi":50,"time":91.35000000000072,"velocity":0.5511811023622047,"duration":0.15000000000000568},{"name":"E3","midi":52,"time":91.50000000000072,"velocity":0.5511811023622047,"duration":0.15000000000000568},{"name":"F3","midi":53,"time":91.65000000000073,"velocity":0.5511811023622047,"duration":0.15000000000000568},{"name":"G5","midi":79,"time":91.80000000000074,"velocity":0.5511811023622047,"duration":0.6000000000000227},{"name":"E5","midi":76,"time":91.80000000000074,"velocity":0.5511811023622047,"duration":0.6000000000000227},{"name":"G3","midi":55,"time":91.80000000000074,"velocity":0.5511811023622047,"duration":0.15000000000000568},{"name":"A3","midi":57,"time":91.95000000000074,"velocity":0.5511811023622047,"duration":0.15000000000000568},{"name":"B3","midi":59,"time":92.10000000000075,"velocity":0.5511811023622047,"duration":0.15000000000000568},{"name":"C4","midi":60,"time":92.25000000000075,"velocity":0.5511811023622047,"duration":0.15000000000000568},{"name":"C3","midi":48,"time":92.40000000000076,"velocity":0.5511811023622047,"duration":0.15000000000000568},{"name":"C4","midi":60,"time":92.55000000000076,"velocity":0.5511811023622047,"duration":0.15000000000000568},{"name":"F5","midi":77,"time":92.70000000000077,"velocity":0.5511811023622047,"duration":0.15000000000000568},{"name":"D4","midi":62,"time":92.70000000000077,"velocity":0.5511811023622047,"duration":0.15000000000000568},{"name":"E5","midi":76,"time":92.85000000000078,"velocity":0.5511811023622047,"duration":0.15000000000000568},{"name":"C4","midi":60,"time":92.85000000000078,"velocity":0.5511811023622047,"duration":0.15000000000000568},{"name":"F5","midi":77,"time":93.00000000000078,"velocity":0.5511811023622047,"duration":0.2225000000000108},{"name":"C3","midi":48,"time":93.00000000000078,"velocity":0.5511811023622047,"duration":0.15000000000000568},{"name":"C4","midi":60,"time":93.15000000000079,"velocity":0.5511811023622047,"duration":0.15000000000000568},{"name":"D5","midi":74,"time":93.3000000000008,"velocity":0.5511811023622047,"duration":0.2225000000000108},{"name":"F4","midi":65,"time":93.3000000000008,"velocity":0.5511811023622047,"duration":0.15000000000000568},{"name":"C4","midi":60,"time":93.4500000000008,"velocity":0.5511811023622047,"duration":0.15000000000000568},{"name":"G5","midi":79,"time":93.6000000000008,"velocity":0.5511811023622047,"duration":0.6000000000000227},{"name":"B3","midi":59,"time":93.6000000000008,"velocity":0.5511811023622047,"duration":0.15000000000000568},{"name":"C4","midi":60,"time":93.75000000000081,"velocity":0.5511811023622047,"duration":0.15000000000000568},{"name":"D5","midi":74,"time":93.90000000000082,"velocity":0.5511811023622047,"duration":0.15000000000000568},{"name":"B3","midi":59,"time":93.90000000000082,"velocity":0.5511811023622047,"duration":0.15000000000000568},{"name":"C5","midi":72,"time":94.05000000000082,"velocity":0.5511811023622047,"duration":0.15000000000000568},{"name":"A3","midi":57,"time":94.05000000000082,"velocity":0.5511811023622047,"duration":0.15000000000000568},{"name":"F5","midi":77,"time":94.20000000000083,"velocity":0.5511811023622047,"duration":0.6000000000000227},{"name":"D5","midi":74,"time":94.20000000000083,"velocity":0.5511811023622047,"duration":0.2225000000000108},{"name":"G3","midi":55,"time":94.20000000000083,"velocity":0.5511811023622047,"duration":0.15000000000000568},{"name":"F3","midi":53,"time":94.35000000000083,"velocity":0.5511811023622047,"duration":0.15000000000000568},{"name":"G4","midi":67,"time":94.50000000000084,"velocity":0.5511811023622047,"duration":0.2225000000000108},{"name":"E3","midi":52,"time":94.50000000000084,"velocity":0.5511811023622047,"duration":0.15000000000000568},{"name":"D3","midi":50,"time":94.65000000000084,"velocity":0.5511811023622047,"duration":0.15000000000000568},{"name":"E5","midi":76,"time":94.80000000000085,"velocity":0.5511811023622047,"duration":0.2225000000000108},{"name":"C5","midi":72,"time":94.80000000000085,"velocity":0.5511811023622047,"duration":0.2225000000000108},{"name":"C3","midi":48,"time":94.80000000000085,"velocity":0.5511811023622047,"duration":0.15000000000000568},{"name":"C4","midi":60,"time":94.95000000000086,"velocity":0.5511811023622047,"duration":0.15000000000000568},{"name":"G#5","midi":80,"time":95.10000000000086,"velocity":0.5511811023622047,"duration":0.2225000000000108},{"name":"F5","midi":77,"time":95.10000000000086,"velocity":0.5511811023622047,"duration":0.2225000000000108},{"name":"B4","midi":71,"time":95.10000000000086,"velocity":0.5511811023622047,"duration":0.2225000000000108},{"name":"D4","midi":62,"time":95.10000000000086,"velocity":0.5511811023622047,"duration":0.15000000000000568},{"name":"C4","midi":60,"time":95.25000000000087,"velocity":0.5511811023622047,"duration":0.15000000000000568},{"name":"G5","midi":79,"time":95.40000000000087,"velocity":0.5511811023622047,"duration":0.2225000000000108},{"name":"E5","midi":76,"time":95.40000000000087,"velocity":0.5511811023622047,"duration":0.2225000000000108},{"name":"C5","midi":72,"time":95.40000000000087,"velocity":0.5511811023622047,"duration":0.2225000000000108},{"name":"E4","midi":64,"time":95.40000000000087,"velocity":0.5511811023622047,"duration":0.15000000000000568},{"name":"C4","midi":60,"time":95.55000000000088,"velocity":0.5511811023622047,"duration":0.15000000000000568},{"name":"B5","midi":83,"time":95.70000000000088,"velocity":0.5511811023622047,"duration":0.2225000000000108},{"name":"D5","midi":74,"time":95.70000000000088,"velocity":0.5511811023622047,"duration":0.2225000000000108},{"name":"G#5","midi":80,"time":95.70000000000088,"velocity":0.5511811023622047,"duration":0.2225000000000108},{"name":"F4","midi":65,"time":95.70000000000088,"velocity":0.5511811023622047,"duration":0.15000000000000568},{"name":"C4","midi":60,"time":95.85000000000089,"velocity":0.5511811023622047,"duration":0.15000000000000568},{"name":"C6","midi":84,"time":96.0000000000009,"velocity":0.5511811023622047,"duration":0.2225000000000108},{"name":"G5","midi":79,"time":96.0000000000009,"velocity":0.5511811023622047,"duration":0.2225000000000108},{"name":"E5","midi":76,"time":96.0000000000009,"velocity":0.5511811023622047,"duration":0.2225000000000108},{"name":"G4","midi":67,"time":96.0000000000009,"velocity":0.5511811023622047,"duration":0.15000000000000568},{"name":"C4","midi":60,"time":96.1500000000009,"velocity":0.5511811023622047,"duration":0.15000000000000568},{"name":"F5","midi":77,"time":96.3000000000009,"velocity":0.5511811023622047,"duration":0.2225000000000108},{"name":"D5","midi":74,"time":96.3000000000009,"velocity":0.5511811023622047,"duration":0.2225000000000108},{"name":"B4","midi":71,"time":96.3000000000009,"velocity":0.5511811023622047,"duration":0.2225000000000108},{"name":"G#4","midi":68,"time":96.3000000000009,"velocity":0.5511811023622047,"duration":0.15000000000000568},{"name":"C4","midi":60,"time":96.45000000000091,"velocity":0.5511811023622047,"duration":0.15000000000000568},{"name":"E5","midi":76,"time":96.60000000000092,"velocity":0.5511811023622047,"duration":0.2225000000000108},{"name":"C5","midi":72,"time":96.60000000000092,"velocity":0.5511811023622047,"duration":0.2225000000000108},{"name":"G4","midi":67,"time":96.60000000000092,"velocity":0.5511811023622047,"duration":0.15000000000000568},{"name":"C4","midi":60,"time":96.75000000000092,"velocity":0.5511811023622047,"duration":0.15000000000000568},{"name":"C6","midi":84,"time":96.90000000000093,"velocity":0.5511811023622047,"duration":0.2225000000000108},{"name":"E5","midi":76,"time":96.90000000000093,"velocity":0.5511811023622047,"duration":0.2225000000000108},{"name":"B3","midi":59,"time":96.90000000000093,"velocity":0.5511811023622047,"duration":0.15000000000000568},{"name":"C4","midi":60,"time":97.05000000000094,"velocity":0.5511811023622047,"duration":0.15000000000000568},{"name":"D5","midi":74,"time":97.20000000000094,"velocity":0.5511811023622047,"duration":0.2224999999999966},{"name":"D5","midi":74,"time":97.20000000000094,"velocity":0.5511811023622047,"duration":0.2224999999999966},{"name":"A4","midi":69,"time":97.20000000000094,"velocity":0.5511811023622047,"duration":0.2224999999999966},{"name":"F3","midi":53,"time":97.20000000000094,"velocity":0.5511811023622047,"duration":0.29999999999999716},{"name":"C6","midi":84,"time":97.50000000000094,"velocity":0.5511811023622047,"duration":0.2224999999999966},{"name":"F5","midi":77,"time":97.80000000000094,"velocity":0.5511811023622047,"duration":0.2224999999999966},{"name":"D5","midi":74,"time":97.80000000000094,"velocity":0.5511811023622047,"duration":0.2224999999999966},{"name":"G4","midi":67,"time":97.80000000000094,"velocity":0.5511811023622047,"duration":0.2224999999999966},{"name":"G3","midi":55,"time":97.80000000000094,"velocity":0.5511811023622047,"duration":0.29999999999999716},{"name":"B5","midi":83,"time":98.10000000000093,"velocity":0.5511811023622047,"duration":0.2224999999999966},{"name":"C6","midi":84,"time":98.40000000000093,"velocity":0.5511811023622047,"duration":1.2000000000000028},{"name":"G5","midi":79,"time":98.40000000000093,"velocity":0.5511811023622047,"duration":1.2000000000000028},{"name":"E5","midi":76,"time":98.40000000000093,"velocity":0.5511811023622047,"duration":1.2000000000000028},{"name":"C5","midi":72,"time":98.40000000000093,"velocity":0.5511811023622047,"duration":1.2000000000000028},{"name":"C3","midi":48,"time":98.40000000000093,"velocity":0.5511811023622047,"duration":1.2000000000000028}],"controlChanges":{"7":[{"number":7,"time":0,"value":0.7874015748031497}],"10":[{"number":10,"time":0,"value":0.6299212598425197}]},"id":4,"name":"Harpsichord","instrumentNumber":6,"instrument":"harpsichord","instrumentFamily":"piano","channelNumber":0,"isPercussion":false}]}