{"header":{"PPQ":240,"timeSignature":[1,4],"bpm":120,"name":""},"startTime":5.6937500000000005,"duration":203.22916666666316,"tracks":[{"startTime":5.6937500000000005,"duration":203.22916666666316,"length":1406,"notes":[{"name":"F#4","midi":66,"time":5.6937500000000005,"velocity":0.7559055118110236,"duration":0.2520833333333332},{"name":"A#4","midi":70,"time":5.947916666666667,"velocity":0.7716535433070866,"duration":0.2937500000000002},{"name":"C#5","midi":73,"time":6.24375,"velocity":0.7716535433070866,"duration":0.25624999999999964},{"name":"A#4","midi":70,"time":6.5,"velocity":0.7716535433070866,"duration":0.2666666666666666},{"name":"F#4","midi":66,"time":6.76875,"velocity":0.7559055118110236,"duration":0.28125},{"name":"C#5","midi":73,"time":7.052083333333333,"velocity":0.7716535433070866,"duration":0.20833333333333304},{"name":"D#5","midi":75,"time":7.3,"velocity":0.7716535433070866,"duration":0.08333333333333304},{"name":"F#3","midi":54,"time":7.3,"velocity":0.84251968503937,"duration":0.22708333333333286},{"name":"C#5","midi":73,"time":7.383333333333333,"velocity":0.7716535433070866,"duration":0.08333333333333304},{"name":"D#5","midi":75,"time":7.466666666666666,"velocity":0.7716535433070866,"duration":0.08958333333333357},{"name":"A#3","midi":58,"time":7.527083333333333,"velocity":0.84251968503937,"duration":0.28125},{"name":"C#5","midi":73,"time":7.5562499999999995,"velocity":0.7716535433070866,"duration":0.11041666666666661},{"name":"D#5","midi":75,"time":7.666666666666666,"velocity":0.7716535433070866,"duration":0.10416666666666696},{"name":"C#5","midi":73,"time":7.772916666666666,"velocity":0.7716535433070866,"duration":1.270833333333333},{"name":"C#4","midi":61,"time":7.810416666666666,"velocity":0.84251968503937,"duration":0.23958333333333304},{"name":"A#3","midi":58,"time":8.049999999999999,"velocity":0.84251968503937,"duration":0.23958333333333393},{"name":"F#3","midi":54,"time":8.289583333333333,"velocity":0.84251968503937,"duration":0.25},{"name":"D#4","midi":63,"time":8.539583333333333,"velocity":0.84251968503937,"duration":0.22291666666666643},{"name":"D#4","midi":63,"time":8.804166666666665,"velocity":0.84251968503937,"duration":0.7166666666666686},{"name":"A#4","midi":70,"time":9.04375,"velocity":0.7716535433070866,"duration":0.23958333333333393},{"name":"B4","midi":71,"time":9.283333333333333,"velocity":0.7716535433070866,"duration":0.4750000000000014},{"name":"C#4","midi":61,"time":9.522916666666667,"velocity":0.84251968503937,"duration":0.7125000000000021},{"name":"C#5","midi":73,"time":9.760416666666668,"velocity":0.7716535433070866,"duration":0.2375000000000007},{"name":"A#4","midi":70,"time":9.997916666666669,"velocity":0.7716535433070866,"duration":0.4750000000000014},{"name":"B3","midi":59,"time":10.23541666666667,"velocity":0.84251968503937,"duration":0.7145833333333353},{"name":"D#5","midi":75,"time":10.475000000000003,"velocity":0.7716535433070866,"duration":0.2354166666666675},{"name":"G#4","midi":68,"time":10.712500000000004,"velocity":0.7716535433070866,"duration":0.4750000000000014},{"name":"A#3","midi":58,"time":10.950000000000005,"velocity":0.84251968503937,"duration":0.7145833333333353},{"name":"A#4","midi":70,"time":11.187500000000005,"velocity":0.7716535433070866,"duration":0.2375000000000007},{"name":"F#4","midi":66,"time":11.425000000000006,"velocity":0.84251968503937,"duration":0.47291666666666643},{"name":"G#3","midi":56,"time":11.666666666666673,"velocity":0.84251968503937,"duration":0.7020833333333325},{"name":"B4","midi":71,"time":11.900000000000006,"velocity":0.7716535433070866,"duration":0.2312499999999993},{"name":"F4","midi":65,"time":12.133333333333338,"velocity":0.84251968503937,"duration":0.4729166666666682},{"name":"F#3","midi":54,"time":12.368750000000006,"velocity":0.84251968503937,"duration":0.7125000000000021},{"name":"B4","midi":71,"time":12.606250000000006,"velocity":0.7716535433070866,"duration":0.2375000000000007},{"name":"D#4","midi":63,"time":12.84583333333334,"velocity":0.84251968503937,"duration":0.4708333333333332},{"name":"F3","midi":53,"time":13.083333333333341,"velocity":0.84251968503937,"duration":0.6999999999999975},{"name":"B4","midi":71,"time":13.316666666666674,"velocity":0.7716535433070866,"duration":0.2333333333333325},{"name":"C#4","midi":61,"time":13.550000000000006,"velocity":0.84251968503937,"duration":0.2312499999999993},{"name":"F4","midi":65,"time":13.783333333333339,"velocity":0.84251968503937,"duration":0.2333333333333325},{"name":"C#3","midi":49,"time":13.785416666666672,"velocity":0.84251968503937,"duration":0.7062500000000007},{"name":"G#4","midi":68,"time":14.016666666666671,"velocity":0.7716535433070866,"duration":0.2354166666666675},{"name":"B4","midi":71,"time":14.252083333333339,"velocity":0.7716535433070866,"duration":0.2375000000000007},{"name":"A#4","midi":70,"time":14.491666666666672,"velocity":0.7716535433070866,"duration":0.2333333333333325},{"name":"F#3","midi":54,"time":14.493750000000006,"velocity":0.84251968503937,"duration":0.6979166666666643},{"name":"F#4","midi":66,"time":14.725000000000005,"velocity":0.84251968503937,"duration":0.2333333333333325},{"name":"C5","midi":72,"time":14.958333333333337,"velocity":0.7716535433070866,"duration":0.466666666666665},{"name":"G#3","midi":56,"time":15.193750000000003,"velocity":0.84251968503937,"duration":0.7020833333333325},{"name":"F#4","midi":66,"time":15.427083333333336,"velocity":0.84251968503937,"duration":0.2354166666666675},{"name":"C#5","midi":73,"time":15.662500000000003,"velocity":0.7716535433070866,"duration":0.4666666666666668},{"name":"A#3","midi":58,"time":15.897916666666669,"velocity":0.84251968503937,"duration":0.7020833333333361},{"name":"F#4","midi":66,"time":16.131250000000005,"velocity":0.84251968503937,"duration":0.23333333333333428},{"name":"D#5","midi":75,"time":16.36458333333334,"velocity":0.7716535433070866,"duration":0.4624999999999986},{"name":"C4","midi":60,"time":16.600000000000005,"velocity":0.84251968503937,"duration":0.6833333333333336},{"name":"G#4","midi":68,"time":16.827083333333338,"velocity":0.7716535433070866,"duration":0.22708333333333286},{"name":"F5","midi":77,"time":17.056250000000006,"velocity":0.7716535433070866,"duration":0.4520833333333343},{"name":"C#4","midi":61,"time":17.28333333333334,"velocity":0.84251968503937,"duration":0.6791666666666707},{"name":"G#5","midi":80,"time":17.510416666666675,"velocity":0.7716535433070866,"duration":0.22708333333333286},{"name":"C#5","midi":73,"time":17.737500000000008,"velocity":0.7716535433070866,"duration":0.4583333333333357},{"name":"G#3","midi":56,"time":17.964583333333344,"velocity":0.84251968503937,"duration":0.6937500000000014},{"name":"D#5","midi":75,"time":18.195833333333344,"velocity":0.7716535433070866,"duration":0.22916666666666785},{"name":"C5","midi":72,"time":18.42500000000001,"velocity":0.7716535433070866,"duration":0.2312499999999993},{"name":"C#5","midi":73,"time":18.658333333333346,"velocity":0.7716535433070866,"duration":0.22916666666666785},{"name":"A#3","midi":58,"time":18.66041666666668,"velocity":0.84251968503937,"duration":0.689583333333335},{"name":"F5","midi":77,"time":18.887500000000014,"velocity":0.7716535433070866,"duration":0.22916666666666785},{"name":"C#5","midi":73,"time":19.118750000000016,"velocity":0.7716535433070866,"duration":0.19166666666666643},{"name":"C#5","midi":73,"time":19.350000000000016,"velocity":0.7716535433070866,"duration":0.22291666666666643},{"name":"F3","midi":53,"time":19.350000000000016,"velocity":0.84251968503937,"duration":0.66041666666667},{"name":"F5","midi":77,"time":19.575000000000017,"velocity":0.7716535433070866,"duration":0.10416666666666785},{"name":"D#5","midi":75,"time":19.679166666666685,"velocity":0.7716535433070866,"duration":0.11041666666666572},{"name":"C#5","midi":73,"time":19.78958333333335,"velocity":0.7716535433070866,"duration":0.45000000000000284},{"name":"F#3","midi":54,"time":20.01250000000002,"velocity":0.84251968503937,"duration":0.6812500000000057},{"name":"A#5","midi":82,"time":20.24166666666669,"velocity":0.7716535433070866,"duration":0.22500000000000142},{"name":"C#5","midi":73,"time":20.468750000000025,"velocity":0.7716535433070866,"duration":0.4520833333333343},{"name":"G#3","midi":56,"time":20.693750000000026,"velocity":0.84251968503937,"duration":0.6854166666666686},{"name":"D#5","midi":75,"time":20.922916666666694,"velocity":0.7716535433070866,"duration":0.22708333333333286},{"name":"C5","midi":72,"time":21.150000000000027,"velocity":0.7716535433070866,"duration":0.22708333333333286},{"name":"C#5","midi":73,"time":21.379166666666695,"velocity":0.7716535433070866,"duration":0.22916666666666785},{"name":"C#3","midi":49,"time":21.379166666666695,"velocity":0.84251968503937,"duration":0.7166666666666686},{"name":"F5","midi":77,"time":21.608333333333363,"velocity":0.7716535433070866,"duration":0.25833333333333286},{"name":"G#5","midi":80,"time":21.866666666666696,"velocity":0.7716535433070866,"duration":0.22708333333333286},{"name":"F5","midi":77,"time":22.095833333333363,"velocity":0.7716535433070866,"duration":0.22291666666666643},{"name":"C#5","midi":73,"time":22.31875000000003,"velocity":0.7716535433070866,"duration":0.22500000000000142},{"name":"G#5","midi":80,"time":22.545833333333366,"velocity":0.7716535433070866,"duration":0.22916666666666785},{"name":"F#5","midi":78,"time":22.775000000000034,"velocity":0.7716535433070866,"duration":0.08125000000000071},{"name":"C#3","midi":49,"time":22.775000000000034,"velocity":0.84251968503937,"duration":0.2291666666666714},{"name":"G#5","midi":80,"time":22.856250000000035,"velocity":0.7716535433070866,"duration":0.08125000000000071},{"name":"A#5","midi":82,"time":22.93958333333337,"velocity":0.7716535433070866,"duration":0.09166666666666856},{"name":"F3","midi":53,"time":23.004166666666706,"velocity":0.84251968503937,"duration":0.2770833333333407},{"name":"G#5","midi":80,"time":23.033333333333374,"velocity":0.7716535433070866,"duration":0.10416666666666785},{"name":"A#5","midi":82,"time":23.139583333333377,"velocity":0.7716535433070866,"duration":0.10208333333333286},{"name":"G#5","midi":80,"time":23.243750000000045,"velocity":0.7716535433070866,"duration":0.0833333333333357},{"name":"G#3","midi":56,"time":23.28333333333338,"velocity":0.84251968503937,"duration":0.23333333333333428},{"name":"A#5","midi":82,"time":23.329166666666715,"velocity":0.7716535433070866,"duration":0.08541666666666714},{"name":"G#5","midi":80,"time":23.414583333333383,"velocity":0.7716535433070866,"duration":1.03541666666667},{"name":"F3","midi":53,"time":23.516666666666715,"velocity":0.84251968503937,"duration":0.23333333333333428},{"name":"C#3","midi":49,"time":23.75000000000005,"velocity":0.84251968503937,"duration":0.22708333333333286},{"name":"A#3","midi":58,"time":23.979166666666718,"velocity":0.84251968503937,"duration":0.19583333333333286},{"name":"A#3","midi":58,"time":24.21666666666672,"velocity":0.84251968503937,"duration":0.7000000000000028},{"name":"F5","midi":77,"time":24.450000000000053,"velocity":0.7716535433070866,"duration":0.23333333333333428},{"name":"F#5","midi":78,"time":24.685416666666722,"velocity":0.7716535433070866,"duration":0.4624999999999986},{"name":"G#3","midi":56,"time":24.91666666666672,"velocity":0.84251968503937,"duration":0.7020833333333343},{"name":"G#5","midi":80,"time":25.150000000000055,"velocity":0.7716535433070866,"duration":0.2312499999999993},{"name":"F5","midi":77,"time":25.38333333333339,"velocity":0.7716535433070866,"duration":0.46875},{"name":"F#3","midi":54,"time":25.618750000000055,"velocity":0.84251968503937,"duration":0.689583333333335},{"name":"A#5","midi":82,"time":25.85208333333339,"velocity":0.7716535433070866,"duration":0.2312499999999993},{"name":"D#5","midi":75,"time":26.08333333333339,"velocity":0.7716535433070866,"duration":0.45416666666666927},{"name":"F3","midi":53,"time":26.310416666666725,"velocity":0.84251968503937,"duration":0.6833333333333336},{"name":"F5","midi":77,"time":26.53750000000006,"velocity":0.7795275590551181,"duration":0.22708333333333286},{"name":"D5","midi":74,"time":26.766666666666726,"velocity":0.7795275590551181,"duration":0.22708333333333286},{"name":"F#5","midi":78,"time":26.995833333333394,"velocity":0.7795275590551181,"duration":0.22291666666666643},{"name":"D#3","midi":51,"time":26.995833333333394,"velocity":0.84251968503937,"duration":0.6708333333333343},{"name":"A#4","midi":70,"time":27.220833333333395,"velocity":0.7795275590551181,"duration":0.22291666666666643},{"name":"B4","midi":71,"time":27.443750000000062,"velocity":0.7795275590551181,"duration":0.45000000000000284},{"name":"C#3","midi":49,"time":27.668750000000063,"velocity":0.84251968503937,"duration":0.6833333333333371},{"name":"C#5","midi":73,"time":27.893750000000065,"velocity":0.7795275590551181,"duration":0.22916666666666785},{"name":"A#4","midi":70,"time":28.125000000000068,"velocity":0.7795275590551181,"duration":0.4520833333333343},{"name":"B2","midi":47,"time":28.354166666666735,"velocity":0.84251968503937,"duration":0.6791666666666671},{"name":"D#5","midi":75,"time":28.577083333333402,"velocity":0.7795275590551181,"duration":0.22708333333333286},{"name":"G#4","midi":68,"time":28.80625000000007,"velocity":0.7795275590551181,"duration":0.4520833333333343},{"name":"A#2","midi":46,"time":29.033333333333402,"velocity":0.84251968503937,"duration":0.6875000000000036},{"name":"A#4","midi":70,"time":29.26041666666674,"velocity":0.7795275590551181,"duration":0.2312499999999993},{"name":"F#4","midi":66,"time":29.491666666666738,"velocity":0.84251968503937,"duration":0.4583333333333357},{"name":"G#2","midi":44,"time":29.72291666666674,"velocity":0.84251968503937,"duration":0.689583333333335},{"name":"B4","midi":71,"time":29.95208333333341,"velocity":0.7795275590551181,"duration":0.2312499999999993},{"name":"E4","midi":64,"time":30.183333333333408,"velocity":0.84251968503937,"duration":0.45208333333333783},{"name":"F#2","midi":42,"time":30.41458333333341,"velocity":0.84251968503937,"duration":0.6708333333333378},{"name":"F#4","midi":66,"time":30.63750000000008,"velocity":0.84251968503937,"duration":0.220833333333335},{"name":"D#4","midi":63,"time":30.858333333333416,"velocity":0.84251968503937,"duration":0.22708333333333286},{"name":"G#4","midi":68,"time":31.087500000000084,"velocity":0.7874015748031497,"duration":0.22916666666666785},{"name":"F2","midi":41,"time":31.08958333333342,"velocity":0.84251968503937,"duration":0.6833333333333336},{"name":"D4","midi":62,"time":31.31666666666675,"velocity":0.84251968503937,"duration":0.22708333333333286},{"name":"D#4","midi":63,"time":31.54583333333342,"velocity":0.84251968503937,"duration":0.4520833333333343},{"name":"D#3","midi":51,"time":31.772916666666752,"velocity":0.84251968503937,"duration":0.6770833333333357},{"name":"D4","midi":62,"time":32.000000000000085,"velocity":0.84251968503937,"duration":0.22500000000000142},{"name":"G#4","midi":68,"time":32.22708333333342,"velocity":0.7874015748031497,"duration":0.4479166666666714},{"name":"D3","midi":50,"time":32.45000000000009,"velocity":0.84251968503937,"duration":0.6729166666666728},{"name":"F4","midi":65,"time":32.67500000000009,"velocity":0.84251968503937,"duration":0.22291666666666998},{"name":"B4","midi":71,"time":32.90000000000009,"velocity":0.7874015748031497,"duration":0.4437500000000014},{"name":"A#2","midi":46,"time":33.12291666666676,"velocity":0.84251968503937,"duration":0.6666666666666643},{"name":"G#4","midi":68,"time":33.345833333333424,"velocity":0.7874015748031497,"duration":0.22083333333333144},{"name":"F5","midi":77,"time":33.566666666666755,"velocity":0.7874015748031497,"duration":0.45000000000000284},{"name":"D#3","midi":51,"time":33.79166666666676,"velocity":0.84251968503937,"duration":0.6750000000000043},{"name":"F4","midi":65,"time":34.01666666666676,"velocity":0.84251968503937,"duration":0.22500000000000142},{"name":"F#4","midi":66,"time":34.24375000000009,"velocity":0.84251968503937,"duration":0.4479166666666714},{"name":"F#3","midi":54,"time":34.46666666666676,"velocity":0.84251968503937,"duration":0.6708333333333414},{"name":"A#4","midi":70,"time":34.69166666666676,"velocity":0.7874015748031497,"duration":0.22291666666666998},{"name":"D#5","midi":75,"time":34.91458333333343,"velocity":0.7874015748031497,"duration":0.4479166666666714},{"name":"G#3","midi":56,"time":35.139583333333434,"velocity":0.84251968503937,"duration":0.6666666666666714},{"name":"F4","midi":65,"time":35.362500000000104,"velocity":0.84251968503937,"duration":0.21875},{"name":"G#4","midi":68,"time":35.583333333333435,"velocity":0.7874015748031497,"duration":0.44583333333333286},{"name":"A#3","midi":58,"time":35.80833333333344,"velocity":0.84251968503937,"duration":0.6708333333333343},{"name":"A#4","midi":70,"time":36.0312500000001,"velocity":0.7874015748031497,"duration":0.22291666666666998},{"name":"D5","midi":74,"time":36.2562500000001,"velocity":0.7874015748031497,"duration":0.22291666666666998},{"name":"F5","midi":77,"time":36.4812500000001,"velocity":0.7795275590551181,"duration":0.07708333333333428},{"name":"D#3","midi":51,"time":36.4812500000001,"velocity":0.84251968503937,"duration":0.22708333333333286},{"name":"D#5","midi":75,"time":36.56041666666677,"velocity":0.7795275590551181,"duration":0.07916666666666572},{"name":"F5","midi":77,"time":36.641666666666765,"velocity":0.7795275590551181,"duration":0.09166666666666856},{"name":"F#3","midi":54,"time":36.71041666666677,"velocity":0.84251968503937,"duration":0.24374999999999858},{"name":"D#5","midi":75,"time":36.735416666666765,"velocity":0.7795275590551181,"duration":0.09375},{"name":"F5","midi":77,"time":36.8312500000001,"velocity":0.7795275590551181,"duration":0.08541666666666714},{"name":"D#5","midi":75,"time":36.918750000000095,"velocity":0.7795275590551181,"duration":0.08125000000000426},{"name":"A#3","midi":58,"time":36.9562500000001,"velocity":0.84251968503937,"duration":0.22708333333333286},{"name":"F5","midi":77,"time":37.0000000000001,"velocity":0.7795275590551181,"duration":0.08541666666666714},{"name":"D#5","midi":75,"time":37.08541666666677,"velocity":0.7795275590551181,"duration":0.08124999999999716},{"name":"F5","midi":77,"time":37.168750000000095,"velocity":0.7795275590551181,"duration":0.07916666666666572},{"name":"F#3","midi":54,"time":37.18333333333343,"velocity":0.84251968503937,"duration":0.22291666666666288},{"name":"D#5","midi":75,"time":37.25000000000009,"velocity":0.7795275590551181,"duration":0.08124999999999716},{"name":"F5","midi":77,"time":37.33125000000009,"velocity":0.7716535433070866,"duration":0.0833333333333357},{"name":"D#3","midi":51,"time":37.408333333333424,"velocity":0.84251968503937,"duration":0.22291666666666288},{"name":"D#5","midi":75,"time":37.41666666666676,"velocity":0.7716535433070866,"duration":0.08124999999999716},{"name":"F5","midi":77,"time":37.497916666666754,"velocity":0.7716535433070866,"duration":0.08124999999999716},{"name":"D#5","midi":75,"time":37.57916666666675,"velocity":0.7716535433070866,"duration":0.08125000000000426},{"name":"C4","midi":60,"time":37.63125000000009,"velocity":0.84251968503937,"duration":0.23749999999999716},{"name":"F5","midi":77,"time":37.66250000000009,"velocity":0.7716535433070866,"duration":0.08124999999999716},{"name":"D#5","midi":75,"time":37.743750000000084,"velocity":0.7716535433070866,"duration":0.08124999999999716},{"name":"F5","midi":77,"time":37.82500000000008,"velocity":0.7716535433070866,"duration":0.08125000000000426},{"name":"C#4","midi":61,"time":37.85416666666675,"velocity":0.7795275590551181,"duration":0.0833333333333357},{"name":"D#5","midi":75,"time":37.90833333333342,"velocity":0.7716535433070866,"duration":0.17291666666666572},{"name":"C4","midi":60,"time":37.937500000000085,"velocity":0.7795275590551181,"duration":0.0833333333333357},{"name":"C#4","midi":61,"time":38.02291666666675,"velocity":0.7795275590551181,"duration":0.0833333333333286},{"name":"F#5","midi":78,"time":38.08125000000008,"velocity":0.7716535433070866,"duration":0.2354166666666586},{"name":"C4","midi":60,"time":38.10833333333341,"velocity":0.7795275590551181,"duration":0.08749999999999858},{"name":"C#4","midi":61,"time":38.19583333333341,"velocity":0.7795275590551181,"duration":0.08124999999999716},{"name":"C4","midi":60,"time":38.27708333333341,"velocity":0.7795275590551181,"duration":0.0833333333333286},{"name":"A#5","midi":82,"time":38.31875000000007,"velocity":0.7716535433070866,"duration":0.2187499999999929},{"name":"C#4","midi":61,"time":38.36250000000007,"velocity":0.7795275590551181,"duration":0.07916666666666572},{"name":"C4","midi":60,"time":38.441666666666734,"velocity":0.7795275590551181,"duration":0.08124999999999716},{"name":"C#4","midi":61,"time":38.52500000000006,"velocity":0.7795275590551181,"duration":0.07708333333333428},{"name":"F#5","midi":78,"time":38.537500000000065,"velocity":0.7716535433070866,"duration":0.2187499999999929},{"name":"C4","midi":60,"time":38.60416666666673,"velocity":0.7795275590551181,"duration":0.07916666666666572},{"name":"C#4","midi":61,"time":38.683333333333394,"velocity":0.7795275590551181,"duration":0.08124999999999716},{"name":"D#5","midi":75,"time":38.75833333333339,"velocity":0.7716535433070866,"duration":0.2187499999999929},{"name":"C4","midi":60,"time":38.76666666666672,"velocity":0.7795275590551181,"duration":0.07916666666666572},{"name":"C#4","midi":61,"time":38.84583333333339,"velocity":0.7795275590551181,"duration":0.08124999999999716},{"name":"C4","midi":60,"time":38.927083333333385,"velocity":0.7795275590551181,"duration":0.07916666666666572},{"name":"A5","midi":81,"time":38.97708333333338,"velocity":0.7716535433070866,"duration":0.22291666666666288},{"name":"C#4","midi":61,"time":39.00833333333338,"velocity":0.7795275590551181,"duration":0.08124999999999716},{"name":"C4","midi":60,"time":39.08958333333338,"velocity":0.7795275590551181,"duration":0.07916666666666572},{"name":"C#4","midi":61,"time":39.17083333333338,"velocity":0.7795275590551181,"duration":0.07916666666666572},{"name":"A#5","midi":82,"time":39.200000000000045,"velocity":0.7007874015748031,"duration":0.07916666666666572},{"name":"C4","midi":60,"time":39.25000000000004,"velocity":0.7795275590551181,"duration":0.16875000000000284},{"name":"A5","midi":81,"time":39.27916666666671,"velocity":0.7007874015748031,"duration":0.0833333333333357},{"name":"A#5","midi":82,"time":39.36250000000005,"velocity":0.7007874015748031,"duration":0.07916666666666572},{"name":"D#4","midi":63,"time":39.42083333333338,"velocity":0.84251968503937,"duration":0.24166666666666714},{"name":"A5","midi":81,"time":39.44166666666671,"velocity":0.7007874015748031,"duration":0.08541666666666714},{"name":"A#5","midi":82,"time":39.52708333333338,"velocity":0.7007874015748031,"duration":0.09166666666666856},{"name":"A5","midi":81,"time":39.62083333333338,"velocity":0.7007874015748031,"duration":0.08749999999999858},{"name":"F#4","midi":66,"time":39.664583333333375,"velocity":0.84251968503937,"duration":0.2291666666666714},{"name":"A#5","midi":82,"time":39.71041666666671,"velocity":0.7007874015748031,"duration":0.0833333333333357},{"name":"A5","midi":81,"time":39.793750000000045,"velocity":0.7007874015748031,"duration":0.0833333333333357},{"name":"A#5","midi":82,"time":39.87708333333338,"velocity":0.7007874015748031,"duration":0.08541666666666714},{"name":"D#4","midi":63,"time":39.89375000000005,"velocity":0.84251968503937,"duration":0.22291666666666288},{"name":"A5","midi":81,"time":39.96458333333338,"velocity":0.7007874015748031,"duration":0.08124999999999716},{"name":"A#5","midi":82,"time":40.04583333333338,"velocity":0.7007874015748031,"duration":0.07916666666666572},{"name":"C4","midi":60,"time":40.11875000000004,"velocity":0.84251968503937,"duration":0.21249999999999858},{"name":"A5","midi":81,"time":40.12500000000004,"velocity":0.7007874015748031,"duration":0.07500000000000284},{"name":"A#5","midi":82,"time":40.20208333333338,"velocity":0.7007874015748031,"duration":0.07916666666666572},{"name":"A5","midi":81,"time":40.28125000000004,"velocity":0.7007874015748031,"duration":0.07916666666666572},{"name":"F#4","midi":66,"time":40.33125000000004,"velocity":0.84251968503937,"duration":0.2187499999999929},{"name":"A#5","midi":82,"time":40.36250000000004,"velocity":0.7007874015748031,"duration":0.07916666666666572},{"name":"A5","midi":81,"time":40.441666666666706,"velocity":0.7007874015748031,"duration":0.08124999999999716},{"name":"A#5","midi":82,"time":40.525000000000034,"velocity":0.7007874015748031,"duration":0.07708333333332718},{"name":"F#4","midi":66,"time":40.552083333333364,"velocity":0.84251968503937,"duration":0.2187499999999929},{"name":"A5","midi":81,"time":40.60416666666669,"velocity":0.7716535433070866,"duration":0.16458333333333286},{"name":"A#5","midi":82,"time":40.77083333333336,"velocity":0.7716535433070866,"duration":0.2187499999999929},{"name":"F4","midi":65,"time":40.77291666666669,"velocity":0.84251968503937,"duration":0.21458333333333002},{"name":"C6","midi":84,"time":40.98958333333335,"velocity":0.7716535433070866,"duration":0.22083333333333144},{"name":"D#4","midi":63,"time":40.99166666666668,"velocity":0.84251968503937,"duration":0.21875},{"name":"F5","midi":77,"time":41.21041666666668,"velocity":0.7716535433070866,"duration":0.22708333333333286},{"name":"C#4","midi":61,"time":41.21250000000001,"velocity":0.84251968503937,"duration":0.22291666666666998},{"name":"F#5","midi":78,"time":41.437500000000014,"velocity":0.7716535433070866,"duration":0.22291666666666288},{"name":"D#4","midi":63,"time":41.439583333333346,"velocity":0.84251968503937,"duration":0.22083333333333144},{"name":"D#5","midi":75,"time":41.66250000000001,"velocity":0.7716535433070866,"duration":0.22291666666666288},{"name":"F4","midi":65,"time":41.66250000000001,"velocity":0.84251968503937,"duration":0.22083333333333144},{"name":"C#5","midi":73,"time":41.88541666666667,"velocity":0.7716535433070866,"duration":0.22708333333333286},{"name":"A#3","midi":58,"time":41.8875,"velocity":0.84251968503937,"duration":0.6791666666666671},{"name":"F5","midi":77,"time":42.112500000000004,"velocity":0.7716535433070866,"duration":0.22500000000000142},{"name":"A#4","midi":70,"time":42.33958333333334,"velocity":0.7716535433070866,"duration":0.45000000000000284},{"name":"F3","midi":53,"time":42.56666666666667,"velocity":0.84251968503937,"duration":0.6687499999999957},{"name":"C5","midi":72,"time":42.79166666666667,"velocity":0.7716535433070866,"duration":0.22083333333333144},{"name":"A4","midi":69,"time":43.0125,"velocity":0.7716535433070866,"duration":0.22083333333333144},{"name":"A#4","midi":70,"time":43.235416666666666,"velocity":0.7716535433070866,"duration":0.22291666666666288},{"name":"F#3","midi":54,"time":43.2375,"velocity":0.84251968503937,"duration":0.6687500000000028},{"name":"C#5","midi":73,"time":43.45833333333333,"velocity":0.7716535433070866,"duration":0.22291666666666998},{"name":"A#4","midi":70,"time":43.68333333333333,"velocity":0.7716535433070866,"duration":0.18541666666666856},{"name":"A#4","midi":70,"time":43.90625,"velocity":0.7716535433070866,"duration":0.22083333333333144},{"name":"C#3","midi":49,"time":43.90833333333333,"velocity":0.84251968503937,"duration":0.65625},{"name":"C#5","midi":73,"time":44.12916666666666,"velocity":0.7716535433070866,"duration":0.10833333333333428},{"name":"C5","midi":72,"time":44.23958333333333,"velocity":0.7716535433070866,"duration":0.10625000000000284},{"name":"A#4","midi":70,"time":44.34791666666666,"velocity":0.7716535433070866,"duration":0.43541666666666856},{"name":"D#3","midi":51,"time":44.56458333333333,"velocity":0.84251968503937,"duration":0.6645833333333329},{"name":"F#5","midi":78,"time":44.78541666666666,"velocity":0.7716535433070866,"duration":0.22083333333333144},{"name":"A#4","midi":70,"time":45.006249999999994,"velocity":0.7716535433070866,"duration":0.4479166666666714},{"name":"F3","midi":53,"time":45.231249999999996,"velocity":0.84251968503937,"duration":0.6666666666666643},{"name":"C5","midi":72,"time":45.45625,"velocity":0.7716535433070866,"duration":0.22083333333333144},{"name":"A4","midi":69,"time":45.67708333333333,"velocity":0.7716535433070866,"duration":0.22083333333333144},{"name":"A#4","midi":70,"time":45.89999999999999,"velocity":0.7716535433070866,"duration":0.22083333333333144},{"name":"A#2","midi":46,"time":45.89999999999999,"velocity":0.84251968503937,"duration":0.6749999999999972},{"name":"C#5","midi":73,"time":46.122916666666654,"velocity":0.7716535433070866,"duration":0.22708333333333286},{"name":"F5","midi":77,"time":46.34999999999999,"velocity":0.7480314960629921,"duration":0.22291666666666998},{"name":"C#5","midi":73,"time":46.57499999999999,"velocity":0.7480314960629921,"duration":0.22083333333333144},{"name":"A#4","midi":70,"time":46.79583333333332,"velocity":0.7480314960629921,"duration":0.21875},{"name":"G5","midi":79,"time":47.01666666666665,"velocity":0.7480314960629921,"duration":0.21875},{"name":"G#5","midi":80,"time":47.23541666666665,"velocity":0.6771653543307087,"duration":0.07916666666666572},{"name":"D#3","midi":51,"time":47.23749999999998,"velocity":0.84251968503937,"duration":0.22500000000000142},{"name":"G5","midi":79,"time":47.31458333333332,"velocity":0.6771653543307087,"duration":0.08124999999999716},{"name":"G#5","midi":80,"time":47.395833333333314,"velocity":0.6771653543307087,"duration":0.09375},{"name":"G3","midi":55,"time":47.464583333333316,"velocity":0.84251968503937,"duration":0.24166666666666714},{"name":"G5","midi":79,"time":47.489583333333314,"velocity":0.6771653543307087,"duration":0.09791666666666998},{"name":"G#5","midi":80,"time":47.587499999999984,"velocity":0.6771653543307087,"duration":0.08541666666666714},{"name":"G5","midi":79,"time":47.67499999999998,"velocity":0.6771653543307087,"duration":0.07499999999999574},{"name":"A#3","midi":58,"time":47.708333333333314,"velocity":0.84251968503937,"duration":0.21666666666666146},{"name":"G#5","midi":80,"time":47.75208333333331,"velocity":0.6771653543307087,"duration":0.07708333333333428},{"name":"G5","midi":79,"time":47.829166666666644,"velocity":0.6771653543307087,"duration":0.07916666666666572},{"name":"G#5","midi":80,"time":47.91041666666664,"velocity":0.6771653543307087,"duration":0.07916666666666572},{"name":"G3","midi":55,"time":47.924999999999976,"velocity":0.84251968503937,"duration":0.2187499999999929},{"name":"G5","midi":79,"time":47.98958333333331,"velocity":0.6771653543307087,"duration":0.07916666666666572},{"name":"G#5","midi":80,"time":48.070833333333304,"velocity":0.6771653543307087,"duration":0.07916666666666572},{"name":"D#3","midi":51,"time":48.14374999999997,"velocity":0.84251968503937,"duration":0.22083333333333144},{"name":"G5","midi":79,"time":48.14999999999997,"velocity":0.6771653543307087,"duration":0.08124999999999716},{"name":"G#5","midi":80,"time":48.23124999999997,"velocity":0.6771653543307087,"duration":0.07916666666666572},{"name":"G5","midi":79,"time":48.312499999999964,"velocity":0.6850393700787402,"duration":0.08124999999999716},{"name":"C#4","midi":61,"time":48.36666666666663,"velocity":0.84251968503937,"duration":0.18333333333333002},{"name":"G#5","midi":80,"time":48.39374999999996,"velocity":0.6850393700787402,"duration":0.08124999999999716},{"name":"G5","midi":79,"time":48.47499999999996,"velocity":0.6850393700787402,"duration":0.0833333333333357},{"name":"G#5","midi":80,"time":48.560416666666626,"velocity":0.6850393700787402,"duration":0.08124999999999716},{"name":"C#4","midi":61,"time":48.587499999999956,"velocity":0.84251968503937,"duration":0.6749999999999972},{"name":"G5","midi":79,"time":48.64166666666662,"velocity":0.7559055118110236,"duration":0.17083333333333428},{"name":"A#5","midi":82,"time":48.81249999999996,"velocity":0.7795275590551181,"duration":0.22708333333333286},{"name":"D#5","midi":75,"time":49.03958333333329,"velocity":0.7795275590551181,"duration":0.22083333333333144},{"name":"C#5","midi":73,"time":49.26249999999995,"velocity":0.7795275590551181,"duration":0.22291666666666288},{"name":"G3","midi":55,"time":49.264583333333285,"velocity":0.84251968503937,"duration":0.6770833333333286},{"name":"B4","midi":71,"time":49.485416666666616,"velocity":0.7795275590551181,"duration":0.22708333333333286},{"name":"A#4","midi":70,"time":49.71458333333328,"velocity":0.7795275590551181,"duration":0.22500000000000142},{"name":"B4","midi":71,"time":49.94166666666661,"velocity":0.7795275590551181,"duration":0.21875},{"name":"G#3","midi":56,"time":49.94166666666661,"velocity":0.84251968503937,"duration":0.65625},{"name":"D#5","midi":75,"time":50.16041666666661,"velocity":0.7795275590551181,"duration":0.21875},{"name":"G#4","midi":68,"time":50.381249999999945,"velocity":0.7795275590551181,"duration":0.4375},{"name":"D#3","midi":51,"time":50.599999999999945,"velocity":0.84251968503937,"duration":0.6666666666666714},{"name":"A#4","midi":70,"time":50.818749999999945,"velocity":0.7795275590551181,"duration":0.22291666666666998},{"name":"G4","midi":67,"time":51.043749999999946,"velocity":0.84251968503937,"duration":0.22291666666666998},{"name":"G#4","midi":68,"time":51.26874999999995,"velocity":0.7795275590551181,"duration":0.22291666666666998},{"name":"E3","midi":52,"time":51.26874999999995,"velocity":0.84251968503937,"duration":0.6791666666666671},{"name":"B4","midi":71,"time":51.49374999999995,"velocity":0.7795275590551181,"duration":0.22708333333333286},{"name":"G#4","midi":68,"time":51.72083333333328,"velocity":0.7795275590551181,"duration":0.18958333333333144},{"name":"G#4","midi":68,"time":51.949999999999946,"velocity":0.7795275590551181,"duration":0.22291666666666998},{"name":"B2","midi":47,"time":51.949999999999946,"velocity":0.84251968503937,"duration":0.6645833333333329},{"name":"B4","midi":71,"time":52.172916666666616,"velocity":0.7795275590551181,"duration":0.1041666666666643},{"name":"A#4","midi":70,"time":52.27916666666661,"velocity":0.7795275590551181,"duration":0.1458333333333357},{"name":"G#4","midi":68,"time":52.38958333333328,"velocity":0.7480314960629921,"duration":0.44583333333333286},{"name":"C#3","midi":49,"time":52.61458333333328,"velocity":0.84251968503937,"duration":0.6624999999999943},{"name":"E5","midi":76,"time":52.83749999999994,"velocity":0.7795275590551181,"duration":0.21875},{"name":"G#4","midi":68,"time":53.05624999999994,"velocity":0.7795275590551181,"duration":0.4437499999999943},{"name":"D#3","midi":51,"time":53.279166666666605,"velocity":0.84251968503937,"duration":0.6624999999999943},{"name":"A#4","midi":70,"time":53.499999999999936,"velocity":0.7795275590551181,"duration":0.22083333333333144},{"name":"G4","midi":67,"time":53.72083333333327,"velocity":0.84251968503937,"duration":0.21875},{"name":"G#4","midi":68,"time":53.9416666666666,"velocity":0.7795275590551181,"duration":0.22708333333333286},{"name":"G#2","midi":44,"time":53.94374999999993,"velocity":0.84251968503937,"duration":0.6854166666666615},{"name":"B4","midi":71,"time":54.16874999999993,"velocity":0.7795275590551181,"duration":0.23749999999999716},{"name":"D#5","midi":75,"time":54.40624999999993,"velocity":0.7795275590551181,"duration":0.22083333333333144},{"name":"B4","midi":71,"time":54.62916666666659,"velocity":0.7716535433070866,"duration":0.21875},{"name":"G#4","midi":68,"time":54.84999999999992,"velocity":0.7716535433070866,"duration":0.21875},{"name":"F5","midi":77,"time":55.070833333333255,"velocity":0.7716535433070866,"duration":0.22083333333333144},{"name":"F#5","midi":78,"time":55.291666666666586,"velocity":0.6771653543307087,"duration":0.07916666666666572},{"name":"C#3","midi":49,"time":55.29374999999992,"velocity":0.84251968503937,"duration":0.21666666666666856},{"name":"F5","midi":77,"time":55.37083333333325,"velocity":0.6771653543307087,"duration":0.07916666666666572},{"name":"F#5","midi":78,"time":55.44999999999992,"velocity":0.6771653543307087,"duration":0.08541666666666714},{"name":"F3","midi":53,"time":55.51249999999992,"velocity":0.84251968503937,"duration":0.2604166666666643},{"name":"F5","midi":77,"time":55.537499999999916,"velocity":0.6771653543307087,"duration":0.09375},{"name":"F#5","midi":78,"time":55.63333333333325,"velocity":0.6771653543307087,"duration":0.09583333333333144},{"name":"F5","midi":77,"time":55.72916666666658,"velocity":0.6771653543307087,"duration":0.09166666666666856},{"name":"G#3","midi":56,"time":55.77499999999991,"velocity":0.84251968503937,"duration":0.22291666666666288},{"name":"F#5","midi":78,"time":55.82083333333325,"velocity":0.6771653543307087,"duration":0.07916666666666572},{"name":"F5","midi":77,"time":55.89999999999991,"velocity":0.6771653543307087,"duration":0.08124999999999716},{"name":"F#5","midi":78,"time":55.98333333333324,"velocity":0.6850393700787402,"duration":0.07916666666666572},{"name":"F3","midi":53,"time":55.997916666666576,"velocity":0.84251968503937,"duration":0.2187499999999929},{"name":"F5","midi":77,"time":56.06458333333324,"velocity":0.6850393700787402,"duration":0.08124999999999716},{"name":"F#5","midi":78,"time":56.145833333333236,"velocity":0.6850393700787402,"duration":0.07916666666666572},{"name":"C#3","midi":49,"time":56.2187499999999,"velocity":0.84251968503937,"duration":0.22291666666666998},{"name":"F5","midi":77,"time":56.2249999999999,"velocity":0.6850393700787402,"duration":0.08124999999999716},{"name":"F#5","midi":78,"time":56.3062499999999,"velocity":0.6850393700787402,"duration":0.0833333333333357},{"name":"F5","midi":77,"time":56.389583333333235,"velocity":0.6850393700787402,"duration":0.08125000000000426},{"name":"B3","midi":59,"time":56.44166666666657,"velocity":0.84251968503937,"duration":0.1875},{"name":"F#5","midi":78,"time":56.47291666666657,"velocity":0.6850393700787402,"duration":0.07916666666666572},{"name":"F5","midi":77,"time":56.55416666666657,"velocity":0.6850393700787402,"duration":0.08125000000000426},{"name":"F#5","midi":78,"time":56.63541666666657,"velocity":0.6850393700787402,"duration":0.08125000000000426},{"name":"B3","midi":59,"time":56.66458333333324,"velocity":0.84251968503937,"duration":0.875},{"name":"F5","midi":77,"time":56.716666666666576,"velocity":0.6850393700787402,"duration":0.17083333333333428},{"name":"C#5","midi":73,"time":56.88749999999991,"velocity":0.7795275590551181,"duration":0.21458333333333002},{"name":"F5","midi":77,"time":57.10416666666657,"velocity":0.7716535433070866,"duration":0.21666666666666856},{"name":"G#5","midi":80,"time":57.32291666666657,"velocity":0.7716535433070866,"duration":0.21666666666666856},{"name":"F5","midi":77,"time":57.54166666666657,"velocity":0.7716535433070866,"duration":0.21875},{"name":"G#3","midi":56,"time":57.54166666666657,"velocity":0.84251968503937,"duration":0.21666666666666856},{"name":"G#5","midi":80,"time":57.76041666666657,"velocity":0.7716535433070866,"duration":0.21875},{"name":"B3","midi":59,"time":57.7624999999999,"velocity":0.84251968503937,"duration":0.21666666666666856},{"name":"B5","midi":83,"time":57.9812499999999,"velocity":0.7716535433070866,"duration":1.5416666666666572},{"name":"F4","midi":65,"time":57.9812499999999,"velocity":0.84251968503937,"duration":0.21875},{"name":"G#4","midi":68,"time":58.202083333333235,"velocity":0.7716535433070866,"duration":0.21875},{"name":"F4","midi":65,"time":58.422916666666566,"velocity":0.84251968503937,"duration":0.21875},{"name":"C#4","midi":61,"time":58.641666666666566,"velocity":0.84251968503937,"duration":0.22083333333333144},{"name":"F4","midi":65,"time":58.86458333333323,"velocity":0.84251968503937,"duration":0.21875},{"name":"C#4","midi":61,"time":59.08333333333323,"velocity":0.84251968503937,"duration":0.21875},{"name":"F#3","midi":54,"time":59.30416666666656,"velocity":0.84251968503937,"duration":0.6645833333333258},{"name":"G#5","midi":80,"time":59.52499999999989,"velocity":0.7716535433070866,"duration":0.22083333333333144},{"name":"A#5","midi":82,"time":59.747916666666555,"velocity":0.7716535433070866,"duration":0.4437500000000014},{"name":"B3","midi":59,"time":59.968749999999886,"velocity":0.84251968503937,"duration":0.6708333333333414},{"name":"B5","midi":83,"time":60.19374999999989,"velocity":0.7716535433070866,"duration":0.22291666666666998},{"name":"G#5","midi":80,"time":60.41666666666656,"velocity":0.7716535433070866,"duration":0.4437500000000014},{"name":"C4","midi":60,"time":60.64166666666656,"velocity":0.84251968503937,"duration":0.6562499999999929},{"name":"F5","midi":77,"time":60.86041666666656,"velocity":0.7716535433070866,"duration":0.22083333333333144},{"name":"F#5","midi":78,"time":61.08333333333322,"velocity":0.7716535433070866,"duration":0.43541666666666146},{"name":"C#4","midi":61,"time":61.29999999999988,"velocity":0.84251968503937,"duration":0.6583333333333314},{"name":"G#5","midi":80,"time":61.51874999999988,"velocity":0.7716535433070866,"duration":0.21875},{"name":"F5","midi":77,"time":61.739583333333215,"velocity":0.7716535433070866,"duration":0.21875},{"name":"F#5","midi":78,"time":61.960416666666546,"velocity":0.7716535433070866,"duration":0.21458333333333002},{"name":"D#3","midi":51,"time":61.960416666666546,"velocity":0.84251968503937,"duration":0.65208333333333},{"name":"A#4","midi":70,"time":62.17708333333321,"velocity":0.7716535433070866,"duration":0.21666666666666856},{"name":"B4","midi":71,"time":62.39583333333321,"velocity":0.7874015748031497,"duration":0.4333333333333371},{"name":"C#3","midi":49,"time":62.612499999999876,"velocity":0.84251968503937,"duration":0.6625000000000014},{"name":"C#5","midi":73,"time":62.831249999999876,"velocity":0.8031496062992126,"duration":0.22083333333333144},{"name":"A#4","midi":70,"time":63.05208333333321,"velocity":0.8031496062992126,"duration":0.4479166666666714},{"name":"B2","midi":47,"time":63.27708333333321,"velocity":0.84251968503937,"duration":0.6666666666666714},{"name":"D#5","midi":75,"time":63.49999999999988,"velocity":0.8031496062992126,"duration":0.22291666666666998},{"name":"G#4","midi":68,"time":63.72291666666655,"velocity":0.8031496062992126,"duration":0.4416666666666629},{"name":"A#2","midi":46,"time":63.94583333333321,"velocity":0.84251968503937,"duration":0.6604166666666629},{"name":"A#4","midi":70,"time":64.16458333333321,"velocity":0.8031496062992126,"duration":0.22083333333333144},{"name":"F#4","midi":66,"time":64.38541666666654,"velocity":0.84251968503937,"duration":0.4375},{"name":"G#2","midi":44,"time":64.60624999999987,"velocity":0.84251968503937,"duration":0.6520833333333371},{"name":"F4","midi":65,"time":64.82291666666654,"velocity":0.84251968503937,"duration":0.21875},{"name":"B4","midi":71,"time":65.04166666666654,"velocity":0.8031496062992126,"duration":0.43541666666666856},{"name":"F#3","midi":54,"time":65.26041666666654,"velocity":0.84251968503937,"duration":0.6583333333333314},{"name":"G#4","midi":68,"time":65.47708333333321,"velocity":0.8031496062992126,"duration":0.22291666666666288},{"name":"D#5","midi":75,"time":65.69999999999987,"velocity":0.8031496062992126,"duration":0.4375},{"name":"F3","midi":53,"time":65.9208333333332,"velocity":0.84251968503937,"duration":0.6500000000000057},{"name":"B4","midi":71,"time":66.13749999999987,"velocity":0.8031496062992126,"duration":0.21458333333333712},{"name":"G#5","midi":80,"time":66.35416666666654,"velocity":0.8031496062992126,"duration":0.43541666666666856},{"name":"C#3","midi":49,"time":66.57291666666654,"velocity":0.84251968503937,"duration":0.6520833333333371},{"name":"F5","midi":77,"time":66.78958333333321,"velocity":0.8031496062992126,"duration":0.21666666666666856},{"name":"B4","midi":71,"time":67.00833333333321,"velocity":0.8031496062992126,"duration":0.4333333333333371},{"name":"F#3","midi":54,"time":67.22499999999988,"velocity":0.84251968503937,"duration":0.6520833333333371},{"name":"G#4","midi":68,"time":67.44166666666655,"velocity":0.8031496062992126,"duration":0.21458333333333712},{"name":"C#5","midi":73,"time":67.65833333333322,"velocity":0.8031496062992126,"duration":0.43541666666666856},{"name":"A#2","midi":46,"time":67.87916666666655,"velocity":0.84251968503937,"duration":0.6500000000000057},{"name":"A#4","midi":70,"time":68.09374999999989,"velocity":0.8031496062992126,"duration":0.21666666666666856},{"name":"F#4","midi":66,"time":68.31249999999989,"velocity":0.84251968503937,"duration":0.4333333333333371},{"name":"B2","midi":47,"time":68.52916666666655,"velocity":0.84251968503937,"duration":0.6520833333333371},{"name":"D#4","midi":63,"time":68.74583333333322,"velocity":0.84251968503937,"duration":0.21666666666666856},{"name":"B4","midi":71,"time":68.96458333333322,"velocity":0.8031496062992126,"duration":0.4333333333333371},{"name":"C#3","midi":49,"time":69.18124999999989,"velocity":0.84251968503937,"duration":0.6458333333333428},{"name":"G#4","midi":68,"time":69.39999999999989,"velocity":0.8031496062992126,"duration":0.21250000000000568},{"name":"F4","midi":65,"time":69.6124999999999,"velocity":0.84251968503937,"duration":0.21250000000000568},{"name":"F#4","midi":66,"time":69.82708333333323,"velocity":0.84251968503937,"duration":1.54583333333332},{"name":"F#2","midi":42,"time":69.82916666666657,"velocity":0.84251968503937,"duration":0.21041666666666003},{"name":"A#2","midi":46,"time":70.04166666666656,"velocity":0.84251968503937,"duration":0.2291666666666714},{"name":"C#3","midi":49,"time":70.27083333333323,"velocity":0.84251968503937,"duration":0.21666666666666856},{"name":"A#2","midi":46,"time":70.48958333333323,"velocity":0.84251968503937,"duration":0.21875},{"name":"F#2","midi":42,"time":70.70833333333323,"velocity":0.84251968503937,"duration":0.21875},{"name":"D#3","midi":51,"time":70.92916666666656,"velocity":0.84251968503937,"duration":0.1875},{"name":"D#3","midi":51,"time":71.15416666666655,"velocity":0.84251968503937,"duration":0.6520833333333371},{"name":"A#3","midi":58,"time":71.37291666666655,"velocity":0.84251968503937,"duration":0.21666666666666856},{"name":"B3","midi":59,"time":71.59166666666655,"velocity":0.84251968503937,"duration":0.4333333333333371},{"name":"C#3","midi":49,"time":71.80624999999989,"velocity":0.84251968503937,"duration":0.6479166666666742},{"name":"C#4","midi":61,"time":72.02499999999989,"velocity":0.84251968503937,"duration":0.21250000000000568},{"name":"A#3","midi":58,"time":72.23958333333323,"velocity":0.84251968503937,"duration":0.42916666666667425},{"name":"B2","midi":47,"time":72.45416666666657,"velocity":0.84251968503937,"duration":0.6437500000000114},{"name":"D#4","midi":63,"time":72.6687499999999,"velocity":0.84251968503937,"duration":0.21250000000000568},{"name":"G#3","midi":56,"time":72.88333333333324,"velocity":0.84251968503937,"duration":0.4270833333333428},{"name":"A#2","midi":46,"time":73.09791666666658,"velocity":0.84251968503937,"duration":0.6437500000000114},{"name":"A#3","midi":58,"time":73.31041666666658,"velocity":0.84251968503937,"duration":0.21458333333333712},{"name":"F#3","midi":54,"time":73.52708333333325,"velocity":0.84251968503937,"duration":0.21458333333333712},{"name":"B3","midi":59,"time":73.74166666666659,"velocity":0.84251968503937,"duration":1.5208333333333144},{"name":"G#2","midi":44,"time":73.74374999999992,"velocity":0.84251968503937,"duration":0.20416666666666572},{"name":"B2","midi":47,"time":73.94999999999992,"velocity":0.84251968503937,"duration":0.22499999999999432},{"name":"D#3","midi":51,"time":74.17708333333324,"velocity":0.84251968503937,"duration":0.21458333333333712},{"name":"B2","midi":47,"time":74.39166666666658,"velocity":0.84251968503937,"duration":0.21875},{"name":"G#2","midi":44,"time":74.61249999999991,"velocity":0.84251968503937,"duration":0.22291666666666288},{"name":"F3","midi":53,"time":74.83541666666657,"velocity":0.84251968503937,"duration":0.21458333333333712},{"name":"C#2","midi":37,"time":75.05208333333324,"velocity":0.84251968503937,"duration":1.8833333333332973},{"name":"F4","midi":65,"time":75.26458333333323,"velocity":0.84251968503937,"duration":0.21041666666666003},{"name":"G#4","midi":68,"time":75.4749999999999,"velocity":0.8188976377952756,"duration":0.21041666666666003},{"name":"F4","midi":65,"time":75.68541666666655,"velocity":0.84251968503937,"duration":0.21250000000000568},{"name":"B3","midi":59,"time":75.89791666666656,"velocity":0.84251968503937,"duration":0.2083333333333286},{"name":"G#4","midi":68,"time":76.10833333333322,"velocity":0.8188976377952756,"duration":0.20624999999999716},{"name":"A3","midi":57,"time":76.31666666666655,"velocity":0.84251968503937,"duration":0.20416666666666572},{"name":"C#4","midi":61,"time":76.52291666666655,"velocity":0.84251968503937,"duration":0.20416666666666572},{"name":"F#4","midi":66,"time":76.72708333333321,"velocity":0.84251968503937,"duration":0.2083333333333286},{"name":"C#3","midi":49,"time":76.93749999999987,"velocity":0.84251968503937,"duration":0.6249999999999858},{"name":"B3","midi":59,"time":76.93749999999987,"velocity":0.84251968503937,"duration":0.20624999999999716},{"name":"F4","midi":65,"time":77.14374999999987,"velocity":0.84251968503937,"duration":0.20624999999999716},{"name":"G#4","midi":68,"time":77.3520833333332,"velocity":0.8188976377952756,"duration":0.2083333333333286},{"name":"C#4","midi":61,"time":77.56249999999986,"velocity":0.84251968503937,"duration":0.2083333333333286},{"name":"C#2","midi":37,"time":77.56458333333319,"velocity":0.84251968503937,"duration":0.6270833333333172},{"name":"F#4","midi":66,"time":77.77291666666652,"velocity":0.84251968503937,"duration":0.21041666666666003},{"name":"A4","midi":69,"time":77.98333333333318,"velocity":0.8188976377952756,"duration":0.2083333333333286},{"name":"C#3","midi":49,"time":78.19374999999984,"velocity":0.84251968503937,"duration":0.61666666666666},{"name":"D4","midi":62,"time":78.19374999999984,"velocity":0.84251968503937,"duration":0.20416666666666572},{"name":"G#4","midi":68,"time":78.3979166666665,"velocity":0.8188976377952756,"duration":0.20416666666666572},{"name":"B4","midi":71,"time":78.60208333333317,"velocity":0.8188976377952756,"duration":0.20624999999999716},{"name":"F4","midi":65,"time":78.8104166666665,"velocity":0.84251968503937,"duration":0.2083333333333286},{"name":"C#2","midi":37,"time":78.81249999999983,"velocity":0.84251968503937,"duration":0.6187499999999915},{"name":"B4","midi":71,"time":79.02083333333316,"velocity":0.8188976377952756,"duration":0.20416666666666572},{"name":"D5","midi":74,"time":79.22708333333316,"velocity":0.8188976377952756,"duration":0.4124999999999943},{"name":"F3","midi":53,"time":79.43333333333315,"velocity":0.84251968503937,"duration":0.6208333333333229},{"name":"B4","midi":71,"time":79.64166666666648,"velocity":0.8188976377952756,"duration":0.20416666666666572},{"name":"F5","midi":77,"time":79.84791666666648,"velocity":0.8188976377952756,"duration":0.41458333333332575},{"name":"G#3","midi":56,"time":80.05416666666648,"velocity":0.84251968503937,"duration":0.6291666666666629},{"name":"D5","midi":74,"time":80.2624999999998,"velocity":0.8188976377952756,"duration":0.21250000000000568},{"name":"G#5","midi":80,"time":80.47499999999981,"velocity":0.8188976377952756,"duration":0.4166666666666572},{"name":"C#4","midi":61,"time":80.68541666666647,"velocity":0.84251968503937,"duration":0.6333333333333258},{"name":"F5","midi":77,"time":80.8937499999998,"velocity":0.8188976377952756,"duration":0.21041666666666003},{"name":"B5","midi":83,"time":81.10416666666646,"velocity":0.8188976377952756,"duration":0.21458333333333712},{"name":"A#5","midi":82,"time":81.32083333333313,"velocity":0.8188976377952756,"duration":0.2083333333333286},{"name":"F#3","midi":54,"time":81.32083333333313,"velocity":0.84251968503937,"duration":0.6354166666666572},{"name":"C#5","midi":73,"time":81.53124999999979,"velocity":0.8188976377952756,"duration":0.21250000000000568},{"name":"F#5","midi":78,"time":81.74583333333312,"velocity":0.8188976377952756,"duration":0.4229166666666657},{"name":"C#3","midi":49,"time":81.95624999999978,"velocity":0.84251968503937,"duration":0.6416666666666799},{"name":"G#5","midi":80,"time":82.16874999999979,"velocity":0.8188976377952756,"duration":0.21458333333333712},{"name":"F5","midi":77,"time":82.38333333333313,"velocity":0.8188976377952756,"duration":0.21250000000000568},{"name":"F#5","midi":78,"time":82.59791666666646,"velocity":0.8188976377952756,"duration":0.21249999999999147},{"name":"D#3","midi":51,"time":82.5999999999998,"velocity":0.84251968503937,"duration":0.6124999999999972},{"name":"A#4","midi":70,"time":82.81041666666646,"velocity":0.8188976377952756,"duration":0.20000000000000284},{"name":"F#5","midi":78,"time":83.01041666666646,"velocity":0.8188976377952756,"duration":0.16875000000000284},{"name":"F#5","midi":78,"time":83.21249999999979,"velocity":0.8188976377952756,"duration":0.20624999999999716},{"name":"A#2","midi":46,"time":83.21458333333312,"velocity":0.84251968503937,"duration":0.6250000000000142},{"name":"A#5","midi":82,"time":83.42083333333312,"velocity":0.8188976377952756,"duration":0.10208333333333997},{"name":"G#5","midi":80,"time":83.52291666666646,"velocity":0.8188976377952756,"duration":0.10208333333333997},{"name":"F#5","midi":78,"time":83.62708333333313,"velocity":0.8188976377952756,"duration":0.4166666666666714},{"name":"B2","midi":47,"time":83.83958333333314,"velocity":0.84251968503937,"duration":0.6083333333333343},{"name":"G#4","midi":68,"time":84.0437499999998,"velocity":0.8188976377952756,"duration":0.20416666666666572},{"name":"F#5","midi":78,"time":84.24791666666647,"velocity":0.8188976377952756,"duration":0.40625},{"name":"C#3","midi":49,"time":84.44791666666647,"velocity":0.84251968503937,"duration":0.6645833333333258},{"name":"G#5","midi":80,"time":84.6562499999998,"velocity":0.8188976377952756,"duration":0.21666666666666856},{"name":"F5","midi":77,"time":84.8749999999998,"velocity":0.8188976377952756,"duration":0.23541666666666572},{"name":"F#5","midi":78,"time":85.1124999999998,"velocity":0.8188976377952756,"duration":0.28125},{"name":"F#2","midi":42,"time":85.11458333333313,"velocity":0.84251968503937,"duration":3.1812500000000057},{"name":"C#5","midi":73,"time":85.38333333333313,"velocity":0.8188976377952756,"duration":0.3229166666666714},{"name":"A#4","midi":70,"time":85.69583333333313,"velocity":0.8188976377952756,"duration":0.38750000000000284},{"name":"F#4","midi":66,"time":86.07083333333313,"velocity":0.7637795275590551,"duration":2.027083333333337},{"name":"C#5","midi":73,"time":89.7187499999998,"velocity":0.7952755905511811,"duration":0.4270833333333286},{"name":"F#5","midi":78,"time":90.14791666666646,"velocity":0.7480314960629921,"duration":0.4270833333333286},{"name":"F5","midi":77,"time":90.57708333333312,"velocity":0.7480314960629921,"duration":0.4270833333333286},{"name":"F#5","midi":78,"time":91.00416666666645,"velocity":0.7480314960629921,"duration":0.4270833333333286},{"name":"F5","midi":77,"time":91.43333333333311,"velocity":0.7480314960629921,"duration":0.21250000000000568},{"name":"D#5","midi":75,"time":91.64791666666645,"velocity":0.7952755905511811,"duration":0.1770833333333286},{"name":"D#5","midi":75,"time":91.86041666666644,"velocity":0.7952755905511811,"duration":0.07916666666666572},{"name":"C#5","midi":73,"time":91.94166666666644,"velocity":0.7952755905511811,"duration":0.07708333333333428},{"name":"D#5","midi":75,"time":92.01874999999977,"velocity":0.7952755905511811,"duration":0.07708333333333428},{"name":"C#5","midi":73,"time":92.09791666666644,"velocity":0.7952755905511811,"duration":0.07708333333333428},{"name":"D#5","midi":75,"time":92.1770833333331,"velocity":0.7952755905511811,"duration":0.07708333333333428},{"name":"C#5","midi":73,"time":92.25416666666644,"velocity":0.7952755905511811,"duration":0.07708333333333428},{"name":"D#5","midi":75,"time":92.3333333333331,"velocity":0.7952755905511811,"duration":0.07708333333333428},{"name":"C#5","midi":73,"time":92.41041666666644,"velocity":0.7952755905511811,"duration":0.07916666666666572},{"name":"B4","midi":71,"time":92.50416666666644,"velocity":0.7952755905511811,"duration":0.10625000000000284},{"name":"C#5","midi":73,"time":92.61041666666644,"velocity":0.7952755905511811,"duration":0.10833333333333428},{"name":"D#5","midi":75,"time":92.71874999999977,"velocity":0.7952755905511811,"duration":0.8333333333333286},{"name":"C#5","midi":73,"time":93.9708333333331,"velocity":0.7952755905511811,"duration":0.4166666666666714},{"name":"B4","midi":71,"time":94.38749999999978,"velocity":0.7952755905511811,"duration":0.41458333333333997},{"name":"A#4","midi":70,"time":94.80416666666645,"velocity":0.7952755905511811,"duration":0.4166666666666714},{"name":"G#4","midi":68,"time":95.22291666666645,"velocity":0.7952755905511811,"duration":0.41458333333333997},{"name":"C#5","midi":73,"time":95.63749999999979,"velocity":0.7952755905511811,"duration":0.41458333333333997},{"name":"A#4","midi":70,"time":96.05416666666646,"velocity":0.7952755905511811,"duration":0.4166666666666714},{"name":"F#4","midi":66,"time":96.47291666666646,"velocity":0.8031496062992126,"duration":0.41458333333332575},{"name":"F#5","midi":78,"time":96.67916666666646,"velocity":0.7007874015748031,"duration":0.2083333333333286},{"name":"C#5","midi":73,"time":96.88958333333312,"velocity":0.7480314960629921,"duration":0.4104166666666629},{"name":"F5","midi":77,"time":96.88958333333312,"velocity":0.7007874015748031,"duration":0.20416666666666572},{"name":"F#5","midi":78,"time":97.09374999999979,"velocity":0.7007874015748031,"duration":0.20624999999999716},{"name":"G#5","midi":80,"time":97.29999999999978,"velocity":0.7007874015748031,"duration":0.20416666666666572},{"name":"C5","midi":72,"time":97.30208333333312,"velocity":0.7716535433070866,"duration":0.40833333333333144},{"name":"D#5","midi":75,"time":97.50624999999978,"velocity":0.7480314960629921,"duration":0.20208333333333428},{"name":"F5","midi":77,"time":97.71041666666645,"velocity":0.7007874015748031,"duration":0.20208333333333428},{"name":"C#5","midi":73,"time":97.71249999999978,"velocity":0.7480314960629921,"duration":0.40416666666666856},{"name":"F#5","midi":78,"time":97.91249999999978,"velocity":0.7007874015748031,"duration":0.20416666666666572},{"name":"G#5","midi":80,"time":98.11666666666645,"velocity":0.7007874015748031,"duration":0.6000000000000085},{"name":"C5","midi":72,"time":98.11874999999978,"velocity":0.7716535433070866,"duration":0.19583333333333997},{"name":"A#4","midi":70,"time":98.31666666666645,"velocity":0.7716535433070866,"duration":0.16458333333333997},{"name":"A#4","midi":70,"time":98.51666666666645,"velocity":0.7716535433070866,"duration":0.07083333333333997},{"name":"G#4","midi":68,"time":98.58749999999979,"velocity":0.7716535433070866,"duration":0.0729166666666714},{"name":"A#4","midi":70,"time":98.6624999999998,"velocity":0.7716535433070866,"duration":0.07291666666665719},{"name":"F#5","midi":78,"time":98.71666666666646,"velocity":0.7007874015748031,"duration":0.20000000000000284},{"name":"G#4","midi":68,"time":98.73541666666645,"velocity":0.7716535433070866,"duration":0.07083333333333997},{"name":"A#4","midi":70,"time":98.80833333333312,"velocity":0.7716535433070866,"duration":0.0729166666666714},{"name":"G#4","midi":68,"time":98.88333333333313,"velocity":0.7716535433070866,"duration":0.07083333333332575},{"name":"F5","midi":77,"time":98.91666666666646,"velocity":0.7007874015748031,"duration":0.20416666666666572},{"name":"A#4","midi":70,"time":98.95624999999978,"velocity":0.7716535433070866,"duration":0.07500000000000284},{"name":"G#4","midi":68,"time":99.03333333333312,"velocity":0.7716535433070866,"duration":0.07083333333333997},{"name":"D#5","midi":75,"time":99.12083333333312,"velocity":0.7480314960629921,"duration":0.2083333333333428},{"name":"F#4","midi":66,"time":99.12291666666646,"velocity":0.8031496062992126,"duration":0.10208333333333997},{"name":"G#4","midi":68,"time":99.2249999999998,"velocity":0.7716535433070866,"duration":0.10208333333333997},{"name":"C#5","midi":73,"time":99.32916666666647,"velocity":0.7480314960629921,"duration":0.20208333333333428},{"name":"A#4","midi":70,"time":99.3312499999998,"velocity":0.7716535433070866,"duration":0.8041666666666742},{"name":"D#5","midi":75,"time":99.53333333333313,"velocity":0.7480314960629921,"duration":0.20000000000000284},{"name":"F5","midi":77,"time":99.73541666666647,"velocity":0.7007874015748031,"duration":0.1979166666666714},{"name":"C5","midi":72,"time":99.93541666666647,"velocity":0.7716535433070866,"duration":0.1979166666666714},{"name":"C#5","midi":73,"time":100.13541666666647,"velocity":0.7716535433070866,"duration":0.20000000000000284},{"name":"D#5","midi":75,"time":100.3374999999998,"velocity":0.7716535433070866,"duration":0.20000000000000284},{"name":"F5","midi":77,"time":100.53958333333314,"velocity":0.7244094488188977,"duration":0.20624999999999716},{"name":"G#4","midi":68,"time":100.53958333333314,"velocity":0.7716535433070866,"duration":0.41458333333332575},{"name":"C#5","midi":73,"time":100.74791666666647,"velocity":0.7716535433070866,"duration":0.20624999999999716},{"name":"A#4","midi":70,"time":100.9562499999998,"velocity":0.7952755905511811,"duration":0.20000000000000284},{"name":"F#4","midi":66,"time":100.9562499999998,"velocity":0.8031496062992126,"duration":0.4020833333333371},{"name":"C5","midi":72,"time":101.1562499999998,"velocity":0.7952755905511811,"duration":0.20208333333333428},{"name":"C#5","midi":73,"time":101.36041666666647,"velocity":0.7952755905511811,"duration":0.8145833333333314},{"name":"F4","midi":65,"time":101.36041666666647,"velocity":0.8031496062992126,"duration":0.40416666666666856},{"name":"D#4","midi":63,"time":101.76458333333314,"velocity":0.8031496062992126,"duration":0.4104166666666629},{"name":"C5","midi":72,"time":102.1749999999998,"velocity":0.8346456692913385,"duration":0.4166666666666714},{"name":"G#4","midi":68,"time":102.17708333333313,"velocity":0.8346456692913385,"duration":0.41458333333333997},{"name":"C#5","midi":73,"time":102.59166666666647,"velocity":0.8346456692913385,"duration":1.4499999999999744},{"name":"F4","midi":65,"time":102.5937499999998,"velocity":0.84251968503937,"duration":0.40833333333333144},{"name":"C#3","midi":49,"time":103.00416666666646,"velocity":0.84251968503937,"duration":0.41458333333332575},{"name":"C#4","midi":61,"time":103.00416666666646,"velocity":0.84251968503937,"duration":0.20416666666666572},{"name":"B4","midi":71,"time":103.21041666666646,"velocity":0.8346456692913385,"duration":0.20624999999999716},{"name":"A#4","midi":70,"time":103.41874999999979,"velocity":0.8346456692913385,"duration":0.20624999999999716},{"name":"F#3","midi":54,"time":103.42083333333312,"velocity":0.84251968503937,"duration":0.4124999999999943},{"name":"B4","midi":71,"time":103.62499999999979,"velocity":0.8346456692913385,"duration":0.2083333333333286},{"name":"C#5","midi":73,"time":103.83541666666645,"velocity":0.8346456692913385,"duration":0.7958333333333201},{"name":"F3","midi":53,"time":103.83541666666645,"velocity":0.84251968503937,"duration":0.41458333333332575},{"name":"G#4","midi":68,"time":104.04166666666644,"velocity":0.8346456692913385,"duration":0.2083333333333286},{"name":"A#4","midi":70,"time":104.24999999999977,"velocity":0.8346456692913385,"duration":0.20624999999999716},{"name":"F#3","midi":54,"time":104.2520833333331,"velocity":0.84251968503937,"duration":0.4166666666666572},{"name":"B4","midi":71,"time":104.4583333333331,"velocity":0.8346456692913385,"duration":0.2083333333333286},{"name":"C#5","midi":73,"time":104.66874999999976,"velocity":0.8346456692913385,"duration":0.61666666666666},{"name":"F3","midi":53,"time":104.67083333333309,"velocity":0.84251968503937,"duration":0.20416666666666572},{"name":"D#5","midi":75,"time":104.87499999999976,"velocity":0.8346456692913385,"duration":0.2083333333333286},{"name":"D#3","midi":51,"time":104.87708333333309,"velocity":0.84251968503937,"duration":0.20624999999999716},{"name":"F5","midi":77,"time":105.08541666666642,"velocity":0.7874015748031497,"duration":0.8062500000000057},{"name":"D#3","midi":51,"time":105.08541666666642,"velocity":0.84251968503937,"duration":0.07083333333333997},{"name":"C#3","midi":49,"time":105.15833333333309,"velocity":0.84251968503937,"duration":0.0729166666666714},{"name":"D#3","midi":51,"time":105.23124999999976,"velocity":0.84251968503937,"duration":0.07291666666665719},{"name":"B4","midi":71,"time":105.28541666666642,"velocity":0.8346456692913385,"duration":0.20416666666666572},{"name":"C#3","midi":49,"time":105.30624999999975,"velocity":0.84251968503937,"duration":0.07500000000000284},{"name":"D#3","midi":51,"time":105.38124999999975,"velocity":0.84251968503937,"duration":0.0729166666666714},{"name":"C#3","midi":49,"time":105.45624999999976,"velocity":0.84251968503937,"duration":0.0729166666666714},{"name":"A#4","midi":70,"time":105.48958333333309,"velocity":0.8346456692913385,"duration":0.20000000000001705},{"name":"D#3","midi":51,"time":105.52916666666643,"velocity":0.84251968503937,"duration":0.07083333333333997},{"name":"C#3","midi":49,"time":105.6020833333331,"velocity":0.84251968503937,"duration":0.0729166666666714},{"name":"G#4","midi":68,"time":105.6895833333331,"velocity":0.8346456692913385,"duration":0.19999999999998863},{"name":"B2","midi":47,"time":105.69166666666644,"velocity":0.84251968503937,"duration":0.09791666666666288},{"name":"C#3","midi":49,"time":105.7895833333331,"velocity":0.84251968503937,"duration":0.09999999999999432},{"name":"F#5","midi":78,"time":105.89166666666642,"velocity":0.7874015748031497,"duration":0.8020833333333428},{"name":"D#3","midi":51,"time":105.89374999999976,"velocity":0.84251968503937,"duration":0.7979166666666799},{"name":"F#4","midi":66,"time":105.89374999999976,"velocity":0.84251968503937,"duration":0.19583333333333997},{"name":"G#4","midi":68,"time":106.0895833333331,"velocity":0.8346456692913385,"duration":0.20000000000000284},{"name":"A#4","midi":70,"time":106.2895833333331,"velocity":0.8346456692913385,"duration":0.20000000000000284},{"name":"F4","midi":65,"time":106.4895833333331,"velocity":0.7952755905511811,"duration":0.20208333333333428},{"name":"F#4","midi":66,"time":106.69374999999977,"velocity":0.7952755905511811,"duration":0.20208333333333428},{"name":"G#4","midi":68,"time":106.8958333333331,"velocity":0.8346456692913385,"duration":0.20416666666666572},{"name":"A#4","midi":70,"time":107.1020833333331,"velocity":0.8346456692913385,"duration":0.4166666666666572},{"name":"C#3","midi":49,"time":107.1020833333331,"velocity":0.84251968503937,"duration":0.4166666666666572},{"name":"F#4","midi":66,"time":107.3083333333331,"velocity":0.7952755905511811,"duration":0.2083333333333286},{"name":"G#4","midi":68,"time":107.52083333333309,"velocity":0.8346456692913385,"duration":0.4166666666666572},{"name":"D#4","midi":63,"time":107.52083333333309,"velocity":0.7952755905511811,"duration":0.20624999999999716},{"name":"B2","midi":47,"time":107.52291666666642,"velocity":0.84251968503937,"duration":0.4124999999999943},{"name":"F4","midi":65,"time":107.72916666666642,"velocity":0.84251968503937,"duration":0.20624999999999716},{"name":"A#4","midi":70,"time":107.93958333333308,"velocity":0.8346456692913385,"duration":0.4124999999999943},{"name":"F#4","midi":66,"time":107.93958333333308,"velocity":0.84251968503937,"duration":0.8333333333333286},{"name":"A#2","midi":46,"time":107.93958333333308,"velocity":0.84251968503937,"duration":0.4124999999999943},{"name":"B4","midi":71,"time":108.3541666666664,"velocity":0.8346456692913385,"duration":0.4166666666666714},{"name":"G#2","midi":44,"time":108.3541666666664,"velocity":0.84251968503937,"duration":0.4166666666666714},{"name":"A#4","midi":70,"time":108.7729166666664,"velocity":0.8346456692913385,"duration":0.20208333333333428},{"name":"F4","midi":65,"time":108.7729166666664,"velocity":0.84251968503937,"duration":0.40416666666666856},{"name":"C#3","midi":49,"time":108.77499999999974,"velocity":0.84251968503937,"duration":0.4020833333333371},{"name":"G#4","midi":68,"time":108.97708333333307,"velocity":0.8346456692913385,"duration":0.1979166666666714},{"name":"A#4","midi":70,"time":109.1791666666664,"velocity":0.8346456692913385,"duration":0.1979166666666714},{"name":"F#4","midi":66,"time":109.1791666666664,"velocity":0.84251968503937,"duration":0.8083333333333371},{"name":"F#2","midi":42,"time":109.18124999999974,"velocity":0.84251968503937,"duration":0.4000000000000057},{"name":"C#5","midi":73,"time":109.3791666666664,"velocity":0.8346456692913385,"duration":0.20208333333333428},{"name":"C#5","midi":73,"time":109.58333333333307,"velocity":0.8346456692913385,"duration":0.1979166666666714},{"name":"F#3","midi":54,"time":109.58333333333307,"velocity":0.84251968503937,"duration":0.40416666666666856},{"name":"A#4","midi":70,"time":109.78333333333308,"velocity":0.8346456692913385,"duration":0.20208333333333428},{"name":"G#4","midi":68,"time":109.98958333333307,"velocity":0.8346456692913385,"duration":0.20000000000000284},{"name":"F3","midi":53,"time":109.98958333333307,"velocity":0.84251968503937,"duration":0.40625},{"name":"C#5","midi":73,"time":110.1916666666664,"velocity":0.8346456692913385,"duration":0.20208333333333428},{"name":"C#5","midi":73,"time":110.39583333333307,"velocity":0.8346456692913385,"duration":0.20000000000000284},{"name":"C#3","midi":49,"time":110.3979166666664,"velocity":0.84251968503937,"duration":0.4020833333333371},{"name":"F4","midi":65,"time":110.3979166666664,"velocity":0.84251968503937,"duration":0.40416666666666856},{"name":"G#4","midi":68,"time":110.5979166666664,"velocity":0.8346456692913385,"duration":0.20208333333333428},{"name":"A#4","midi":70,"time":110.80208333333307,"velocity":0.8346456692913385,"duration":0.40416666666666856},{"name":"F#4","midi":66,"time":110.8041666666664,"velocity":0.84251968503937,"duration":0.8104166666666686},{"name":"F#3","midi":54,"time":110.8041666666664,"velocity":0.84251968503937,"duration":0.1979166666666714},{"name":"A#3","midi":58,"time":111.00208333333308,"velocity":0.84251968503937,"duration":0.20416666666666572},{"name":"C#5","midi":73,"time":111.20833333333307,"velocity":0.8188976377952756,"duration":0.40625},{"name":"A#3","midi":58,"time":111.20833333333307,"velocity":0.84251968503937,"duration":0.20000000000000284},{"name":"F#3","midi":54,"time":111.40833333333308,"velocity":0.84251968503937,"duration":0.20416666666666572},{"name":"F#5","midi":78,"time":111.6166666666664,"velocity":0.7716535433070866,"duration":1.2354166666666515},{"name":"D#3","midi":51,"time":111.6166666666664,"velocity":0.84251968503937,"duration":0.1979166666666714},{"name":"F#3","midi":54,"time":111.81458333333308,"velocity":0.84251968503937,"duration":0.20624999999999716},{"name":"A#4","midi":70,"time":112.02083333333307,"velocity":0.8188976377952756,"duration":0.4229166666666515},{"name":"F#3","midi":54,"time":112.0229166666664,"velocity":0.84251968503937,"duration":0.2083333333333286},{"name":"D#3","midi":51,"time":112.23124999999973,"velocity":0.84251968503937,"duration":0.21041666666666003},{"name":"D#5","midi":75,"time":112.44583333333306,"velocity":0.8188976377952756,"duration":0.20208333333333428},{"name":"C3","midi":48,"time":112.44583333333306,"velocity":0.84251968503937,"duration":0.40625},{"name":"G#4","midi":68,"time":112.64791666666639,"velocity":0.8188976377952756,"duration":0.20208333333333428},{"name":"F5","midi":77,"time":112.85416666666639,"velocity":0.7716535433070866,"duration":0.8083333333333371},{"name":"G#4","midi":68,"time":112.85416666666639,"velocity":0.8188976377952756,"duration":0.20416666666666572},{"name":"C#3","midi":49,"time":112.85416666666639,"velocity":0.84251968503937,"duration":0.40625},{"name":"C#5","midi":73,"time":113.06041666666638,"velocity":0.8188976377952756,"duration":0.1979166666666714},{"name":"A#4","midi":70,"time":113.26041666666639,"velocity":0.8188976377952756,"duration":0.1979166666666714},{"name":"F#3","midi":54,"time":113.26249999999972,"velocity":0.84251968503937,"duration":1.0187499999999972},{"name":"F#4","midi":66,"time":113.46041666666639,"velocity":0.84251968503937,"duration":0.17291666666666572},{"name":"D#5","midi":75,"time":113.66458333333306,"velocity":0.8188976377952756,"duration":0.20208333333333428},{"name":"F#4","midi":66,"time":113.66458333333306,"velocity":0.84251968503937,"duration":0.20000000000000284},{"name":"C#5","midi":73,"time":113.86666666666639,"velocity":0.8188976377952756,"duration":0.2083333333333286},{"name":"A#4","midi":70,"time":113.86874999999972,"velocity":0.8188976377952756,"duration":0.20416666666666572},{"name":"G#4","midi":68,"time":114.07499999999972,"velocity":0.8188976377952756,"duration":0.8187499999999943},{"name":"C5","midi":72,"time":114.07499999999972,"velocity":0.8188976377952756,"duration":0.4104166666666629},{"name":"G#3","midi":56,"time":114.28124999999972,"velocity":0.84251968503937,"duration":0.20416666666666572},{"name":"D#5","midi":75,"time":114.48749999999971,"velocity":0.8188976377952756,"duration":0.40416666666666856},{"name":"C4","midi":60,"time":114.48749999999971,"velocity":0.84251968503937,"duration":0.20208333333333428},{"name":"G#3","midi":56,"time":114.68958333333305,"velocity":0.84251968503937,"duration":0.20208333333333428},{"name":"G#5","midi":80,"time":114.89374999999971,"velocity":0.7716535433070866,"duration":1.2208333333333314},{"name":"F3","midi":53,"time":114.89583333333304,"velocity":0.84251968503937,"duration":0.20000000000000284},{"name":"G#3","midi":56,"time":115.09583333333305,"velocity":0.84251968503937,"duration":0.17499999999999716},{"name":"C5","midi":72,"time":115.29791666666638,"velocity":0.8188976377952756,"duration":0.4124999999999943},{"name":"G#3","midi":56,"time":115.29791666666638,"velocity":0.84251968503937,"duration":0.20416666666666572},{"name":"F3","midi":53,"time":115.50416666666638,"velocity":0.84251968503937,"duration":0.20416666666666572},{"name":"A#4","midi":70,"time":115.71041666666638,"velocity":0.8188976377952756,"duration":0.8104166666666686},{"name":"D3","midi":50,"time":115.71249999999971,"velocity":0.84251968503937,"duration":0.20000000000000284},{"name":"A#3","midi":58,"time":115.91458333333304,"velocity":0.84251968503937,"duration":0.1979166666666714},{"name":"F#5","midi":78,"time":116.11458333333304,"velocity":0.7716535433070866,"duration":0.20416666666666572},{"name":"A#3","midi":58,"time":116.11666666666638,"velocity":0.84251968503937,"duration":0.20000000000000284},{"name":"F5","midi":77,"time":116.31874999999971,"velocity":0.7716535433070866,"duration":0.20208333333333428},{"name":"F#3","midi":54,"time":116.32083333333304,"velocity":0.84251968503937,"duration":0.1979166666666714},{"name":"F#5","midi":78,"time":116.52291666666638,"velocity":0.7716535433070866,"duration":1.2145833333333371},{"name":"D#3","midi":51,"time":116.52291666666638,"velocity":0.84251968503937,"duration":0.20208333333333428},{"name":"F#3","midi":54,"time":116.72499999999971,"velocity":0.84251968503937,"duration":0.20208333333333428},{"name":"A#4","midi":70,"time":116.92708333333304,"velocity":0.8188976377952756,"duration":0.4000000000000057},{"name":"F#3","midi":54,"time":116.92916666666638,"velocity":0.84251968503937,"duration":0.1979166666666714},{"name":"D#3","midi":51,"time":117.12708333333305,"velocity":0.84251968503937,"duration":0.1979166666666714},{"name":"G#4","midi":68,"time":117.32708333333305,"velocity":0.8188976377952756,"duration":0.8208333333333258},{"name":"C3","midi":48,"time":117.32708333333305,"velocity":0.84251968503937,"duration":0.20000000000000284},{"name":"G#3","midi":56,"time":117.52708333333305,"velocity":0.84251968503937,"duration":0.2083333333333286},{"name":"F5","midi":77,"time":117.73749999999971,"velocity":0.7716535433070866,"duration":0.20624999999999716},{"name":"G#3","midi":56,"time":117.73958333333304,"velocity":0.84251968503937,"duration":0.20208333333333428},{"name":"D#5","midi":75,"time":117.94374999999971,"velocity":0.8188976377952756,"duration":0.20416666666666572},{"name":"F3","midi":53,"time":117.94374999999971,"velocity":0.84251968503937,"duration":0.20208333333333428},{"name":"F5","midi":77,"time":118.14999999999971,"velocity":0.7716535433070866,"duration":1.1979166666666714},{"name":"C#3","midi":49,"time":118.14999999999971,"velocity":0.84251968503937,"duration":0.19374999999999432},{"name":"F3","midi":53,"time":118.34583333333303,"velocity":0.84251968503937,"duration":0.19583333333333997},{"name":"G#4","midi":68,"time":118.5437499999997,"velocity":0.8188976377952756,"duration":0.39791666666667425},{"name":"F3","midi":53,"time":118.5437499999997,"velocity":0.84251968503937,"duration":0.19583333333333997},{"name":"C#3","midi":49,"time":118.74166666666638,"velocity":0.84251968503937,"duration":0.1979166666666714},{"name":"F#4","midi":66,"time":118.94166666666638,"velocity":0.84251968503937,"duration":1.004166666666677},{"name":"A#2","midi":46,"time":118.94374999999971,"velocity":0.84251968503937,"duration":0.20000000000000284},{"name":"C#3","midi":49,"time":119.14583333333304,"velocity":0.84251968503937,"duration":0.20000000000000284},{"name":"F5","midi":77,"time":119.34791666666638,"velocity":0.7716535433070866,"duration":0.4000000000000057},{"name":"C#3","midi":49,"time":119.34999999999971,"velocity":0.84251968503937,"duration":0.19583333333333997},{"name":"A#2","midi":46,"time":119.54791666666638,"velocity":0.84251968503937,"duration":0.1979166666666714},{"name":"D#5","midi":75,"time":119.74791666666638,"velocity":0.8188976377952756,"duration":0.4000000000000057},{"name":"F#2","midi":42,"time":119.74999999999972,"velocity":0.84251968503937,"duration":0.39791666666667425},{"name":"G#4","midi":68,"time":119.94791666666639,"velocity":0.8188976377952756,"duration":0.1979166666666714},{"name":"C#5","midi":73,"time":120.14999999999972,"velocity":0.8188976377952756,"duration":0.39791666666667425},{"name":"A#4","midi":70,"time":120.14999999999972,"velocity":0.8188976377952756,"duration":0.19583333333333997},{"name":"F#3","midi":54,"time":120.14999999999972,"velocity":0.84251968503937,"duration":0.5958333333333456},{"name":"F#4","midi":66,"time":120.34791666666639,"velocity":0.84251968503937,"duration":0.1979166666666714},{"name":"C5","midi":72,"time":120.5479166666664,"velocity":0.8188976377952756,"duration":0.39791666666667425},{"name":"D#4","midi":63,"time":120.54999999999973,"velocity":0.84251968503937,"duration":0.7916666666666714},{"name":"F#3","midi":54,"time":120.7479166666664,"velocity":0.84251968503937,"duration":0.19583333333333997},{"name":"G#4","midi":68,"time":120.94583333333307,"velocity":0.8188976377952756,"duration":0.39374999999999716},{"name":"F3","midi":53,"time":120.9479166666664,"velocity":0.84251968503937,"duration":0.19374999999999432},{"name":"D#3","midi":51,"time":121.14374999999973,"velocity":0.84251968503937,"duration":0.19583333333333997},{"name":"C#5","midi":73,"time":121.3416666666664,"velocity":0.8188976377952756,"duration":1.691666666666677},{"name":"C#3","midi":49,"time":121.3416666666664,"velocity":0.84251968503937,"duration":0.19374999999999432},{"name":"D#3","midi":51,"time":121.53749999999972,"velocity":0.84251968503937,"duration":0.19583333333333997},{"name":"G#4","midi":68,"time":121.7354166666664,"velocity":0.8188976377952756,"duration":0.39375000000001137},{"name":"F3","midi":53,"time":121.7354166666664,"velocity":0.84251968503937,"duration":0.1979166666666714},{"name":"C#3","midi":49,"time":121.93333333333307,"velocity":0.84251968503937,"duration":0.19583333333333997},{"name":"F#4","midi":66,"time":122.13124999999974,"velocity":0.84251968503937,"duration":0.4020833333333371},{"name":"A#2","midi":46,"time":122.13124999999974,"velocity":0.84251968503937,"duration":0.20208333333333428},{"name":"C3","midi":48,"time":122.33333333333307,"velocity":0.84251968503937,"duration":0.20000000000000284},{"name":"C#3","midi":49,"time":122.5354166666664,"velocity":0.84251968503937,"duration":0.1979166666666714},{"name":"F4","midi":65,"time":122.5354166666664,"velocity":0.84251968503937,"duration":0.39791666666667425},{"name":"A#2","midi":46,"time":122.73333333333308,"velocity":0.84251968503937,"duration":0.20000000000000284},{"name":"D#4","midi":63,"time":122.93541666666641,"velocity":0.84251968503937,"duration":0.39791666666666003},{"name":"F#2","midi":42,"time":122.93541666666641,"velocity":0.84251968503937,"duration":0.39791666666666003},{"name":"C#5","midi":73,"time":123.13333333333307,"velocity":0.8188976377952756,"duration":0.4000000000000057},{"name":"D#4","midi":63,"time":123.3354166666664,"velocity":0.84251968503937,"duration":0.4000000000000057},{"name":"G#2","midi":44,"time":123.3354166666664,"velocity":0.84251968503937,"duration":0.39791666666667425},{"name":"C5","midi":72,"time":123.53333333333308,"velocity":0.8188976377952756,"duration":0.20000000000000284},{"name":"C#5","midi":73,"time":123.73541666666641,"velocity":0.8188976377952756,"duration":0.3333333333333428},{"name":"F4","midi":65,"time":123.73749999999974,"velocity":0.84251968503937,"duration":0.1979166666666714},{"name":"C#2","midi":37,"time":123.73749999999974,"velocity":0.84251968503937,"duration":0.8083333333333371},{"name":"G#4","midi":68,"time":123.93541666666641,"velocity":0.8188976377952756,"duration":0.20208333333333428},{"name":"C#5","midi":73,"time":124.13749999999975,"velocity":0.8188976377952756,"duration":0.40625},{"name":"B4","midi":71,"time":124.33958333333308,"velocity":0.8188976377952756,"duration":0.20416666666666572},{"name":"F#5","midi":78,"time":124.54583333333308,"velocity":0.7716535433070866,"duration":0.4020833333333371},{"name":"A#4","midi":70,"time":124.54791666666641,"velocity":0.8188976377952756,"duration":0.1979166666666714},{"name":"B4","midi":71,"time":124.74583333333308,"velocity":0.8188976377952756,"duration":0.20208333333333428},{"name":"C#5","midi":73,"time":124.94999999999975,"velocity":0.8188976377952756,"duration":0.20000000000000284},{"name":"F5","midi":77,"time":124.94999999999975,"velocity":0.7716535433070866,"duration":0.40416666666666856},{"name":"G#4","midi":68,"time":125.15208333333308,"velocity":0.8188976377952756,"duration":0.20000000000000284},{"name":"F#5","midi":78,"time":125.35416666666642,"velocity":0.7716535433070866,"duration":0.4124999999999943},{"name":"A#4","midi":70,"time":125.35624999999975,"velocity":0.8188976377952756,"duration":0.20208333333333428},{"name":"B4","midi":71,"time":125.56041666666641,"velocity":0.8188976377952756,"duration":0.20416666666666572},{"name":"F5","midi":77,"time":125.76666666666641,"velocity":0.7716535433070866,"duration":0.20416666666666572},{"name":"C#5","midi":73,"time":125.76874999999974,"velocity":0.8188976377952756,"duration":0.4104166666666629},{"name":"F#3","midi":54,"time":125.76874999999974,"velocity":0.84251968503937,"duration":0.20000000000000284},{"name":"D#5","midi":75,"time":125.97083333333308,"velocity":0.8188976377952756,"duration":0.20624999999999716},{"name":"G#3","midi":56,"time":125.9729166666664,"velocity":0.84251968503937,"duration":0.20416666666666572},{"name":"C#5","midi":73,"time":126.1791666666664,"velocity":0.8188976377952756,"duration":0.8145833333333314},{"name":"A#3","midi":58,"time":126.18124999999974,"velocity":0.84251968503937,"duration":0.20000000000000284},{"name":"B4","midi":71,"time":126.38124999999974,"velocity":0.8188976377952756,"duration":0.20624999999999716},{"name":"F#3","midi":54,"time":126.38333333333307,"velocity":0.84251968503937,"duration":0.20416666666666572},{"name":"A#4","midi":70,"time":126.58958333333307,"velocity":0.8188976377952756,"duration":0.20000000000000284},{"name":"F#3","midi":54,"time":126.58958333333307,"velocity":0.84251968503937,"duration":0.20000000000000284},{"name":"G#4","midi":68,"time":126.7916666666664,"velocity":0.8188976377952756,"duration":0.20000000000000284},{"name":"A#3","midi":58,"time":126.7916666666664,"velocity":0.84251968503937,"duration":0.20000000000000284},{"name":"D#5","midi":75,"time":126.99583333333307,"velocity":0.8188976377952756,"duration":0.8104166666666686},{"name":"B3","midi":59,"time":126.99583333333307,"velocity":0.84251968503937,"duration":0.20000000000000284},{"name":"F#4","midi":66,"time":126.99583333333307,"velocity":0.84251968503937,"duration":0.20000000000000284},{"name":"G#4","midi":68,"time":127.1979166666664,"velocity":0.8188976377952756,"duration":0.20000000000000284},{"name":"F#3","midi":54,"time":127.19999999999973,"velocity":0.84251968503937,"duration":0.1979166666666714},{"name":"A#4","midi":70,"time":127.39999999999974,"velocity":0.8188976377952756,"duration":0.20000000000000284},{"name":"F#3","midi":54,"time":127.39999999999974,"velocity":0.84251968503937,"duration":0.20000000000000284},{"name":"B3","midi":59,"time":127.60208333333307,"velocity":0.84251968503937,"duration":0.20208333333333428},{"name":"F4","midi":65,"time":127.60208333333307,"velocity":0.84251968503937,"duration":0.20208333333333428},{"name":"F#4","midi":66,"time":127.80624999999974,"velocity":0.84251968503937,"duration":0.20000000000000284},{"name":"C#4","midi":61,"time":127.80624999999974,"velocity":0.84251968503937,"duration":0.20000000000000284},{"name":"G#4","midi":68,"time":128.00833333333307,"velocity":0.8188976377952756,"duration":0.20208333333332007},{"name":"F#3","midi":54,"time":128.00833333333307,"velocity":0.84251968503937,"duration":0.20208333333332007},{"name":"C#5","midi":73,"time":128.21249999999972,"velocity":0.8188976377952756,"duration":0.40416666666664014},{"name":"A#4","midi":70,"time":128.21249999999972,"velocity":0.8188976377952756,"duration":0.19999999999998863},{"name":"F#3","midi":54,"time":128.21458333333305,"velocity":0.84251968503937,"duration":0.1979166666666572},{"name":"F4","midi":65,"time":128.41458333333304,"velocity":0.84251968503937,"duration":0.19999999999998863},{"name":"C#4","midi":61,"time":128.41458333333304,"velocity":0.84251968503937,"duration":0.19999999999998863},{"name":"B4","midi":71,"time":128.61666666666636,"velocity":0.8188976377952756,"duration":0.40416666666664014},{"name":"F#4","midi":66,"time":128.6187499999997,"velocity":0.84251968503937,"duration":0.8083333333332803},{"name":"D#4","midi":63,"time":128.6187499999997,"velocity":0.84251968503937,"duration":0.19999999999998863},{"name":"F#3","midi":54,"time":128.81874999999968,"velocity":0.84251968503937,"duration":0.20208333333332007},{"name":"A#4","midi":70,"time":129.02291666666633,"velocity":0.8188976377952756,"duration":0.40416666666664014},{"name":"F#3","midi":54,"time":129.02291666666633,"velocity":0.84251968503937,"duration":0.19999999999998863},{"name":"D#4","midi":63,"time":129.22291666666632,"velocity":0.84251968503937,"duration":0.20208333333332007},{"name":"G#4","midi":68,"time":129.4291666666663,"velocity":0.8188976377952756,"duration":1.2124999999999204},{"name":"F4","midi":65,"time":129.4291666666663,"velocity":0.84251968503937,"duration":0.1979166666666572},{"name":"F#3","midi":54,"time":129.6291666666663,"velocity":0.84251968503937,"duration":0.19999999999998863},{"name":"C#5","midi":73,"time":129.8312499999996,"velocity":0.8188976377952756,"duration":0.4062499999999716},{"name":"F#3","midi":54,"time":129.8312499999996,"velocity":0.84251968503937,"duration":0.20208333333332007},{"name":"F4","midi":65,"time":130.03541666666626,"velocity":0.84251968503937,"duration":0.19999999999998863},{"name":"A#4","midi":70,"time":130.23749999999959,"velocity":0.8188976377952756,"duration":0.40416666666664014},{"name":"F#4","midi":66,"time":130.23958333333292,"velocity":0.84251968503937,"duration":0.1979166666666572},{"name":"F4","midi":65,"time":130.4395833333329,"velocity":0.84251968503937,"duration":0.19999999999998863},{"name":"A#4","midi":70,"time":130.64374999999956,"velocity":0.8188976377952756,"duration":0.40416666666664014},{"name":"F#4","midi":66,"time":130.64374999999956,"velocity":0.84251968503937,"duration":0.40416666666664014},{"name":"D#4","midi":63,"time":130.6458333333329,"velocity":0.84251968503937,"duration":0.19583333333332575},{"name":"C#4","midi":61,"time":130.84374999999955,"velocity":0.84251968503937,"duration":0.20208333333332007},{"name":"D#5","midi":75,"time":131.04999999999953,"velocity":0.8188976377952756,"duration":0.40625},{"name":"B3","midi":59,"time":131.04999999999953,"velocity":0.84251968503937,"duration":0.20208333333332007},{"name":"G#4","midi":68,"time":131.25208333333285,"velocity":0.8188976377952756,"duration":0.20416666666667993},{"name":"G#4","midi":68,"time":131.45833333333286,"velocity":0.8188976377952756,"duration":0.20208333333332007},{"name":"D5","midi":74,"time":131.45833333333286,"velocity":0.8188976377952756,"duration":0.40833333333333144},{"name":"B3","midi":59,"time":131.66041666666618,"velocity":0.84251968503937,"duration":0.20416666666667993},{"name":"D#5","midi":75,"time":131.8666666666662,"velocity":0.8188976377952756,"duration":0.8104166666666117},{"name":"A#3","midi":58,"time":131.86874999999952,"velocity":0.84251968503937,"duration":0.1979166666666572},{"name":"F#4","midi":66,"time":132.0687499999995,"velocity":0.84251968503937,"duration":0.19999999999998863},{"name":"A#4","midi":70,"time":132.27083333333283,"velocity":0.8188976377952756,"duration":0.40416666666664014},{"name":"F#4","midi":66,"time":132.27083333333283,"velocity":0.84251968503937,"duration":0.20208333333332007},{"name":"A#3","midi":58,"time":132.47499999999948,"velocity":0.84251968503937,"duration":0.19999999999998863},{"name":"D#5","midi":75,"time":132.6770833333328,"velocity":0.8188976377952756,"duration":0.40416666666666856},{"name":"G#3","midi":56,"time":132.67916666666613,"velocity":0.84251968503937,"duration":0.1979166666666572},{"name":"F4","midi":65,"time":132.8770833333328,"velocity":0.84251968503937,"duration":0.20416666666667993},{"name":"F5","midi":77,"time":133.0833333333328,"velocity":0.7716535433070866,"duration":0.4062499999999716},{"name":"D5","midi":74,"time":133.0833333333328,"velocity":0.8188976377952756,"duration":0.40416666666664014},{"name":"F4","midi":65,"time":133.08541666666613,"velocity":0.84251968503937,"duration":0.19999999999998863},{"name":"G#3","midi":56,"time":133.28541666666612,"velocity":0.84251968503937,"duration":0.20208333333332007},{"name":"F#5","midi":78,"time":133.48958333333277,"velocity":0.7716535433070866,"duration":0.40625},{"name":"D#5","midi":75,"time":133.4916666666661,"velocity":0.8188976377952756,"duration":0.4020833333333371},{"name":"F#3","midi":54,"time":133.4916666666661,"velocity":0.84251968503937,"duration":0.1979166666666572},{"name":"G#3","midi":56,"time":133.68958333333276,"velocity":0.84251968503937,"duration":0.20416666666667993},{"name":"G#5","midi":80,"time":133.89583333333277,"velocity":0.7716535433070866,"duration":0.4124999999999943},{"name":"F5","midi":77,"time":133.8979166666661,"velocity":0.7716535433070866,"duration":0.40833333333333144},{"name":"F#3","midi":54,"time":133.8979166666661,"velocity":0.84251968503937,"duration":0.20208333333332007},{"name":"F3","midi":53,"time":134.09999999999943,"velocity":0.84251968503937,"duration":0.20625000000001137},{"name":"A#5","midi":82,"time":134.30833333333277,"velocity":0.7716535433070866,"duration":0.4020833333333087},{"name":"F#5","midi":78,"time":134.3104166666661,"velocity":0.7716535433070866,"duration":0.39999999999997726},{"name":"D#3","midi":51,"time":134.3104166666661,"velocity":0.84251968503937,"duration":0.19583333333332575},{"name":"F3","midi":53,"time":134.50833333333276,"velocity":0.84251968503937,"duration":0.19999999999998863},{"name":"F#5","midi":78,"time":134.7124999999994,"velocity":0.7716535433070866,"duration":0.40833333333333144},{"name":"D#5","midi":75,"time":134.7124999999994,"velocity":0.8188976377952756,"duration":0.37708333333333144},{"name":"F#3","midi":54,"time":134.71458333333274,"velocity":0.84251968503937,"duration":0.19583333333332575},{"name":"D#3","midi":51,"time":134.91041666666607,"velocity":0.84251968503937,"duration":0.2083333333333428},{"name":"D#5","midi":75,"time":135.12083333333274,"velocity":0.7874015748031497,"duration":0.8229166666666572},{"name":"C5","midi":72,"time":135.12291666666607,"velocity":0.8188976377952756,"duration":0.4124999999999943},{"name":"G#3","midi":56,"time":135.12291666666607,"velocity":0.84251968503937,"duration":0.20208333333332007},{"name":"A#3","midi":58,"time":135.3249999999994,"velocity":0.84251968503937,"duration":0.20625000000001137},{"name":"G#4","midi":68,"time":135.5312499999994,"velocity":0.8188976377952756,"duration":0.4104166666666629},{"name":"G#3","midi":56,"time":135.53333333333273,"velocity":0.84251968503937,"duration":0.20208333333332007},{"name":"F#3","midi":54,"time":135.73541666666605,"velocity":0.84251968503937,"duration":0.20625000000001137},{"name":"C#5","midi":73,"time":135.9437499999994,"velocity":0.8188976377952756,"duration":0.40416666666664014},{"name":"F3","midi":53,"time":135.94583333333273,"velocity":0.84251968503937,"duration":0.19999999999998863},{"name":"F#3","midi":54,"time":136.14583333333272,"velocity":0.84251968503937,"duration":0.20208333333332007},{"name":"C5","midi":72,"time":136.34999999999937,"velocity":0.8188976377952756,"duration":0.4020833333333087},{"name":"G#5","midi":80,"time":136.34999999999937,"velocity":0.7716535433070866,"duration":0.40416666666664014},{"name":"G#3","midi":56,"time":136.34999999999937,"velocity":0.84251968503937,"duration":0.19999999999998863},{"name":"F3","midi":53,"time":136.5520833333327,"velocity":0.84251968503937,"duration":0.1979166666666572},{"name":"F5","midi":77,"time":136.754166666666,"velocity":0.7716535433070866,"duration":0.8124999999999716},{"name":"C#5","midi":73,"time":136.754166666666,"velocity":0.8188976377952756,"duration":0.40625},{"name":"A#3","midi":58,"time":136.75624999999934,"velocity":0.84251968503937,"duration":0.19999999999998863},{"name":"C4","midi":60,"time":136.95624999999933,"velocity":0.84251968503937,"duration":0.20416666666667993},{"name":"C5","midi":72,"time":137.160416666666,"velocity":0.8188976377952756,"duration":0.2041666666666515},{"name":"C#4","midi":61,"time":137.16249999999934,"velocity":0.84251968503937,"duration":0.6041666666666288},{"name":"A#4","midi":70,"time":137.36458333333266,"velocity":0.8188976377952756,"duration":0.20208333333332007},{"name":"A#4","midi":70,"time":137.5687499999993,"velocity":0.8188976377952756,"duration":0.07083333333332575},{"name":"G#4","midi":68,"time":137.63958333333264,"velocity":0.8188976377952756,"duration":0.07499999999998863},{"name":"A#4","midi":70,"time":137.71458333333263,"velocity":0.8188976377952756,"duration":0.07083333333335418},{"name":"C4","midi":60,"time":137.76666666666597,"velocity":0.84251968503937,"duration":0.2041666666666515},{"name":"G#4","midi":68,"time":137.78541666666598,"velocity":0.8188976377952756,"duration":0.07708333333332007},{"name":"A#4","midi":70,"time":137.8624999999993,"velocity":0.8188976377952756,"duration":0.07291666666665719},{"name":"G#4","midi":68,"time":137.9374999999993,"velocity":0.8188976377952756,"duration":0.07291666666665719},{"name":"F5","midi":77,"time":137.97083333333262,"velocity":0.7716535433070866,"duration":0.41041666666663446},{"name":"A#3","midi":58,"time":137.97291666666595,"velocity":0.84251968503937,"duration":0.20208333333332007},{"name":"A#4","midi":70,"time":138.01249999999928,"velocity":0.8188976377952756,"duration":0.07291666666665719},{"name":"G#4","midi":68,"time":138.08749999999927,"velocity":0.8188976377952756,"duration":0.07083333333332575},{"name":"G#3","midi":56,"time":138.17499999999927,"velocity":0.84251968503937,"duration":0.20624999999998295},{"name":"F#4","midi":66,"time":138.17499999999927,"velocity":0.84251968503937,"duration":0.09999999999999432},{"name":"G#4","midi":68,"time":138.2770833333326,"velocity":0.8188976377952756,"duration":0.10208333333332575},{"name":"A#4","midi":70,"time":138.3833333333326,"velocity":0.8188976377952756,"duration":0.7729166666666458},{"name":"D#5","midi":75,"time":138.3833333333326,"velocity":0.8188976377952756,"duration":0.19374999999999432},{"name":"F#3","midi":54,"time":138.38541666666592,"velocity":0.84251968503937,"duration":0.18958333333333144},{"name":"C5","midi":72,"time":138.57708333333258,"velocity":0.8188976377952756,"duration":0.19374999999999432},{"name":"G#3","midi":56,"time":138.5791666666659,"velocity":0.84251968503937,"duration":0.19166666666666288},{"name":"C#5","midi":73,"time":138.7729166666659,"velocity":0.8188976377952756,"duration":0.18958333333333144},{"name":"A#3","midi":58,"time":138.7729166666659,"velocity":0.84251968503937,"duration":0.18958333333333144},{"name":"F5","midi":77,"time":138.96458333333257,"velocity":0.7716535433070866,"duration":0.18958333333333144},{"name":"F3","midi":53,"time":138.96458333333257,"velocity":0.84251968503937,"duration":0.18958333333333144},{"name":"D#5","midi":75,"time":139.15624999999923,"velocity":0.8188976377952756,"duration":0.19166666666666288},{"name":"F#3","midi":54,"time":139.15833333333256,"velocity":0.84251968503937,"duration":0.1875},{"name":"C5","midi":72,"time":139.3479166666659,"velocity":0.8188976377952756,"duration":0.19166666666666288},{"name":"G#3","midi":56,"time":139.34999999999923,"velocity":0.84251968503937,"duration":0.1875},{"name":"C#5","midi":73,"time":139.53958333333256,"velocity":0.8188976377952756,"duration":0.5916666666666401},{"name":"G#4","midi":68,"time":139.5416666666659,"velocity":0.8188976377952756,"duration":0.38958333333332007},{"name":"A#3","midi":58,"time":139.5416666666659,"velocity":0.84251968503937,"duration":0.19166666666666288},{"name":"F#3","midi":54,"time":139.73541666666588,"velocity":0.84251968503937,"duration":0.19374999999999432},{"name":"D#3","midi":51,"time":139.9312499999992,"velocity":0.84251968503937,"duration":0.39999999999997726},{"name":"F#4","midi":66,"time":139.93333333333254,"velocity":0.84251968503937,"duration":0.3979166666666458},{"name":"C5","midi":72,"time":140.1312499999992,"velocity":0.8188976377952756,"duration":0.1979166666666572},{"name":"C#5","midi":73,"time":140.33333333333252,"velocity":0.8188976377952756,"duration":0.8124999999999716},{"name":"F4","midi":65,"time":140.33333333333252,"velocity":0.84251968503937,"duration":0.4020833333333087},{"name":"F3","midi":53,"time":140.33541666666585,"velocity":0.84251968503937,"duration":0.19583333333332575},{"name":"F#3","midi":54,"time":140.5333333333325,"velocity":0.84251968503937,"duration":0.20208333333332007},{"name":"D#4","midi":63,"time":140.73749999999916,"velocity":0.84251968503937,"duration":0.40833333333333144},{"name":"G#3","midi":56,"time":140.73749999999916,"velocity":0.84251968503937,"duration":0.40833333333333144},{"name":"G#4","midi":68,"time":141.14791666666582,"velocity":0.8188976377952756,"duration":0.4104166666666629},{"name":"C5","midi":72,"time":141.14791666666582,"velocity":0.8188976377952756,"duration":0.4104166666666629},{"name":"G#2","midi":44,"time":141.14999999999915,"velocity":0.84251968503937,"duration":0.40625},{"name":"C#5","midi":73,"time":141.56041666666582,"velocity":0.8188976377952756,"duration":0.8062499999999488},{"name":"F4","midi":65,"time":141.56041666666582,"velocity":0.84251968503937,"duration":0.1979166666666572},{"name":"C#3","midi":49,"time":141.56041666666582,"velocity":0.84251968503937,"duration":0.40416666666664014},{"name":"G#4","midi":68,"time":141.7604166666658,"velocity":0.8188976377952756,"duration":0.20208333333332007},{"name":"G#4","midi":68,"time":141.96458333333246,"velocity":0.8188976377952756,"duration":0.19999999999998863},{"name":"C#4","midi":61,"time":141.96458333333246,"velocity":0.84251968503937,"duration":0.4020833333333087},{"name":"F4","midi":65,"time":142.16666666666578,"velocity":0.84251968503937,"duration":0.1979166666666572},{"name":"D#4","midi":63,"time":142.3687499999991,"velocity":0.84251968503937,"duration":0.19583333333332575},{"name":"C4","midi":60,"time":142.3687499999991,"velocity":0.84251968503937,"duration":0.39999999999997726},{"name":"G#4","midi":68,"time":142.56666666666575,"velocity":0.8188976377952756,"duration":0.19999999999998863},{"name":"C5","midi":72,"time":142.76874999999907,"velocity":0.8188976377952756,"duration":0.408333333333303},{"name":"G#4","midi":68,"time":142.7708333333324,"velocity":0.8188976377952756,"duration":0.20208333333332007},{"name":"G#3","midi":56,"time":142.7708333333324,"velocity":0.84251968503937,"duration":0.40416666666664014},{"name":"D#4","midi":63,"time":142.97499999999906,"velocity":0.84251968503937,"duration":0.19999999999998863},{"name":"C#5","midi":73,"time":143.17708333333238,"velocity":0.7952755905511811,"duration":0.20208333333332007},{"name":"C#4","midi":61,"time":143.1791666666657,"velocity":0.84251968503937,"duration":0.39999999999997726},{"name":"F4","midi":65,"time":143.1791666666657,"velocity":0.84251968503937,"duration":0.7999999999999545},{"name":"F5","midi":77,"time":143.3791666666657,"velocity":0.7480314960629921,"duration":0.19999999999998863},{"name":"F5","midi":77,"time":143.58124999999902,"velocity":0.7480314960629921,"duration":0.1979166666666572},{"name":"A#3","midi":58,"time":143.58124999999902,"velocity":0.84251968503937,"duration":0.3958333333333144},{"name":"C#5","midi":73,"time":143.77916666666567,"velocity":0.7952755905511811,"duration":0.1979166666666572},{"name":"C5","midi":72,"time":143.97916666666566,"velocity":0.8188976377952756,"duration":0.19583333333332575},{"name":"A3","midi":57,"time":143.981249999999,"velocity":0.84251968503937,"duration":0.3916666666666515},{"name":"F5","midi":77,"time":144.174999999999,"velocity":0.7480314960629921,"duration":0.19583333333332575},{"name":"F5","midi":77,"time":144.37291666666565,"velocity":0.7480314960629921,"duration":0.19583333333332575},{"name":"A4","midi":69,"time":144.37499999999898,"velocity":0.8188976377952756,"duration":0.39374999999998295},{"name":"F3","midi":53,"time":144.37499999999898,"velocity":0.84251968503937,"duration":0.39374999999998295},{"name":"C5","midi":72,"time":144.5708333333323,"velocity":0.8188976377952756,"duration":0.19583333333332575},{"name":"A#4","midi":70,"time":144.7708333333323,"velocity":0.8188976377952756,"duration":0.7958333333332916},{"name":"C#5","midi":73,"time":144.7708333333323,"velocity":0.7952755905511811,"duration":0.3958333333333144},{"name":"A#3","midi":58,"time":144.77291666666562,"velocity":0.84251968503937,"duration":0.19374999999999432},{"name":"C#4","midi":61,"time":144.96666666666562,"velocity":0.84251968503937,"duration":0.1979166666666572},{"name":"F5","midi":77,"time":145.1666666666656,"velocity":0.7480314960629921,"duration":0.39999999999997726},{"name":"C#4","midi":61,"time":145.16874999999894,"velocity":0.84251968503937,"duration":0.19583333333332575},{"name":"A#3","midi":58,"time":145.3666666666656,"velocity":0.84251968503937,"duration":0.1979166666666572},{"name":"A#5","midi":82,"time":145.56874999999891,"velocity":0.7480314960629921,"duration":1.2124999999999488},{"name":"F#3","midi":54,"time":145.56874999999891,"velocity":0.84251968503937,"duration":0.1979166666666572},{"name":"A#3","midi":58,"time":145.7687499999989,"velocity":0.84251968503937,"duration":0.20625000000001137},{"name":"C#5","midi":73,"time":145.97708333333225,"velocity":0.7952755905511811,"duration":0.4020833333333087},{"name":"A#3","midi":58,"time":145.97708333333225,"velocity":0.84251968503937,"duration":0.20208333333332007},{"name":"F#3","midi":54,"time":146.1812499999989,"velocity":0.84251968503937,"duration":0.19583333333332575},{"name":"B4","midi":71,"time":146.37916666666555,"velocity":0.8188976377952756,"duration":0.802083333333286},{"name":"D#3","midi":51,"time":146.37916666666555,"velocity":0.84251968503937,"duration":0.1979166666666572},{"name":"B3","midi":59,"time":146.57916666666554,"velocity":0.84251968503937,"duration":0.19999999999998863},{"name":"G#5","midi":80,"time":146.78124999999886,"velocity":0.7480314960629921,"duration":0.20208333333332007},{"name":"B3","midi":59,"time":146.7833333333322,"velocity":0.84251968503937,"duration":0.1979166666666572},{"name":"F#5","midi":78,"time":146.98333333333218,"velocity":0.7480314960629921,"duration":0.1979166666666572},{"name":"G#3","midi":56,"time":146.98541666666551,"velocity":0.84251968503937,"duration":0.19374999999999432},{"name":"G#5","midi":80,"time":147.18333333333217,"velocity":0.7480314960629921,"duration":1.2062499999999545},{"name":"F3","midi":53,"time":147.18333333333217,"velocity":0.84251968503937,"duration":0.19166666666666288},{"name":"G#3","midi":56,"time":147.37499999999883,"velocity":0.84251968503937,"duration":0.19999999999998863},{"name":"B4","midi":71,"time":147.57499999999882,"velocity":0.8188976377952756,"duration":0.4104166666666629},{"name":"G#3","midi":56,"time":147.57499999999882,"velocity":0.84251968503937,"duration":0.20208333333332007},{"name":"F3","midi":53,"time":147.77916666666547,"velocity":0.84251968503937,"duration":0.20416666666667993},{"name":"A#4","midi":70,"time":147.9854166666655,"velocity":0.8188976377952756,"duration":0.8062499999999488},{"name":"D3","midi":50,"time":147.98749999999882,"velocity":0.84251968503937,"duration":0.1979166666666572},{"name":"A#3","midi":58,"time":148.1874999999988,"velocity":0.84251968503937,"duration":0.19999999999998863},{"name":"F#5","midi":78,"time":148.38958333333213,"velocity":0.7716535433070866,"duration":0.19999999999998863},{"name":"A#3","midi":58,"time":148.39166666666546,"velocity":0.84251968503937,"duration":0.19583333333332575},{"name":"F5","midi":77,"time":148.58958333333211,"velocity":0.7716535433070866,"duration":0.20208333333332007},{"name":"F#3","midi":54,"time":148.59166666666545,"velocity":0.84251968503937,"duration":0.1979166666666572},{"name":"F#5","midi":78,"time":148.79374999999877,"velocity":0.7716535433070866,"duration":1.1833333333332803},{"name":"D#3","midi":51,"time":148.79374999999877,"velocity":0.84251968503937,"duration":0.19374999999999432},{"name":"F#3","midi":54,"time":148.9895833333321,"velocity":0.84251968503937,"duration":0.19166666666666288},{"name":"A#4","midi":70,"time":149.1833333333321,"velocity":0.8188976377952756,"duration":0.3916666666666515},{"name":"F#3","midi":54,"time":149.1833333333321,"velocity":0.84251968503937,"duration":0.19374999999999432},{"name":"D#3","midi":51,"time":149.3791666666654,"velocity":0.84251968503937,"duration":0.19583333333332575},{"name":"G#4","midi":68,"time":149.57499999999874,"velocity":0.8188976377952756,"duration":1.8229166666666003},{"name":"B2","midi":47,"time":149.57708333333207,"velocity":0.84251968503937,"duration":0.1979166666666572},{"name":"D#3","midi":51,"time":149.77499999999873,"velocity":0.84251968503937,"duration":0.19999999999998863},{"name":"F#5","midi":78,"time":149.97708333333205,"velocity":0.7716535433070866,"duration":0.4062499999999716},{"name":"D#3","midi":51,"time":149.97916666666538,"velocity":0.84251968503937,"duration":0.19999999999998863},{"name":"B2","midi":47,"time":150.1812499999987,"velocity":0.84251968503937,"duration":0.19999999999998863},{"name":"F5","midi":77,"time":150.38333333333202,"velocity":0.7716535433070866,"duration":0.40625},{"name":"G#2","midi":44,"time":150.38541666666535,"velocity":0.84251968503937,"duration":0.19999999999998863},{"name":"B2","midi":47,"time":150.58541666666534,"velocity":0.84251968503937,"duration":0.20416666666667993},{"name":"D#5","midi":75,"time":150.79166666666535,"velocity":0.8188976377952756,"duration":0.40416666666666856},{"name":"B2","midi":47,"time":150.79166666666535,"velocity":0.84251968503937,"duration":0.19999999999998863},{"name":"G#2","midi":44,"time":150.99166666666534,"velocity":0.84251968503937,"duration":0.20416666666667993},{"name":"D5","midi":74,"time":151.19583333333202,"velocity":0.8188976377952756,"duration":0.4020833333333087},{"name":"A#2","midi":46,"time":151.19791666666535,"velocity":0.84251968503937,"duration":0.3333333333333144},{"name":"B4","midi":71,"time":151.39791666666534,"velocity":0.8188976377952756,"duration":0.19999999999998863},{"name":"A#4","midi":70,"time":151.59999999999866,"velocity":0.8188976377952756,"duration":0.1979166666666572},{"name":"A#2","midi":46,"time":151.59999999999866,"velocity":0.84251968503937,"duration":0.39374999999998295},{"name":"G#4","midi":68,"time":151.79791666666532,"velocity":0.8188976377952756,"duration":0.19583333333332575},{"name":"F#4","midi":66,"time":151.99583333333197,"velocity":0.84251968503937,"duration":0.19374999999999432},{"name":"D#3","midi":51,"time":151.99583333333197,"velocity":0.84251968503937,"duration":0.3916666666666515},{"name":"G#4","midi":68,"time":152.18958333333197,"velocity":0.8188976377952756,"duration":0.1979166666666572},{"name":"A#4","midi":70,"time":152.38958333333196,"velocity":0.8188976377952756,"duration":0.19583333333332575},{"name":"D3","midi":50,"time":152.38958333333196,"velocity":0.84251968503937,"duration":0.3979166666666458},{"name":"F4","midi":65,"time":152.58541666666528,"velocity":0.84251968503937,"duration":0.20208333333332007},{"name":"D#3","midi":51,"time":152.78958333333193,"velocity":0.84251968503937,"duration":0.3979166666666458},{"name":"F#4","midi":66,"time":152.78958333333193,"velocity":0.84251968503937,"duration":0.1979166666666572},{"name":"G#4","midi":68,"time":152.9874999999986,"velocity":0.8188976377952756,"duration":0.19999999999998863},{"name":"A#4","midi":70,"time":153.1895833333319,"velocity":0.8188976377952756,"duration":0.40416666666664014},{"name":"D#4","midi":63,"time":153.1895833333319,"velocity":0.84251968503937,"duration":0.1979166666666572},{"name":"C#3","midi":49,"time":153.19166666666524,"velocity":0.84251968503937,"duration":0.19583333333332575},{"name":"F4","midi":65,"time":153.3895833333319,"velocity":0.84251968503937,"duration":0.2041666666666515},{"name":"B2","midi":47,"time":153.3895833333319,"velocity":0.84251968503937,"duration":0.20208333333332007},{"name":"F#4","midi":66,"time":153.59583333333188,"velocity":0.84251968503937,"duration":0.1979166666666572},{"name":"B2","midi":47,"time":153.59583333333188,"velocity":0.84251968503937,"duration":0.06874999999999432},{"name":"A#2","midi":46,"time":153.6666666666652,"velocity":0.84251968503937,"duration":0.07291666666665719},{"name":"B2","midi":47,"time":153.73958333333186,"velocity":0.84251968503937,"duration":0.07083333333335418},{"name":"D#4","midi":63,"time":153.79374999999854,"velocity":0.84251968503937,"duration":0.19583333333332575},{"name":"A#2","midi":46,"time":153.81249999999855,"velocity":0.84251968503937,"duration":0.07291666666665719},{"name":"B2","midi":47,"time":153.8854166666652,"velocity":0.84251968503937,"duration":0.07083333333332575},{"name":"A#2","midi":46,"time":153.95833333333186,"velocity":0.84251968503937,"duration":0.07083333333332575},{"name":"B4","midi":71,"time":153.98958333333186,"velocity":0.7559055118110236,"duration":0.44374999999993747},{"name":"D#4","midi":63,"time":153.9916666666652,"velocity":0.84251968503937,"duration":0.1999999999999602},{"name":"B2","midi":47,"time":154.0291666666652,"velocity":0.84251968503937,"duration":0.07291666666665719},{"name":"A#2","midi":46,"time":154.10416666666518,"velocity":0.84251968503937,"duration":0.07291666666665719},{"name":"F#4","midi":66,"time":154.19166666666516,"velocity":0.84251968503937,"duration":0.20208333333332007},{"name":"G#2","midi":44,"time":154.1937499999985,"velocity":0.84251968503937,"duration":0.09791666666666288},{"name":"A#2","midi":46,"time":154.29166666666515,"velocity":0.84251968503937,"duration":0.10208333333332575},{"name":"D#5","midi":75,"time":154.3958333333318,"velocity":0.7559055118110236,"duration":2.379166666666549},{"name":"G#4","midi":68,"time":154.3958333333318,"velocity":0.7559055118110236,"duration":0.1979166666666572},{"name":"B2","midi":47,"time":154.39791666666514,"velocity":0.84251968503937,"duration":0.7958333333332916},{"name":"D#4","midi":63,"time":154.59374999999847,"velocity":0.84251968503937,"duration":0.19999999999998863},{"name":"D#4","midi":63,"time":154.79374999999845,"velocity":0.84251968503937,"duration":0.19999999999998863},{"name":"G#4","midi":68,"time":154.99374999999844,"velocity":0.8188976377952756,"duration":0.19999999999998863},{"name":"A#4","midi":70,"time":155.19583333333176,"velocity":0.8188976377952756,"duration":0.1979166666666572},{"name":"D#4","midi":63,"time":155.39374999999842,"velocity":0.84251968503937,"duration":0.19999999999998863},{"name":"D#4","midi":63,"time":155.5937499999984,"velocity":0.84251968503937,"duration":0.1979166666666572},{"name":"A#2","midi":46,"time":155.59583333333174,"velocity":0.84251968503937,"duration":0.39374999999998295},{"name":"A#4","midi":70,"time":155.7937499999984,"velocity":0.8188976377952756,"duration":0.19374999999999432},{"name":"B4","midi":71,"time":155.98958333333172,"velocity":0.8188976377952756,"duration":0.19374999999999432},{"name":"G#2","midi":44,"time":155.98958333333172,"velocity":0.84251968503937,"duration":0.3916666666666515},{"name":"D#4","midi":63,"time":156.18333333333172,"velocity":0.84251968503937,"duration":0.19583333333332575},{"name":"D#4","midi":63,"time":156.38124999999837,"velocity":0.84251968503937,"duration":0.19374999999999432},{"name":"F#2","midi":42,"time":156.38124999999837,"velocity":0.84251968503937,"duration":0.3916666666666515},{"name":"B4","midi":71,"time":156.5770833333317,"velocity":0.8188976377952756,"duration":0.19583333333332575},{"name":"G#4","midi":68,"time":156.77499999999836,"velocity":0.8188976377952756,"duration":0.989583333333286},{"name":"D5","midi":74,"time":156.77499999999836,"velocity":0.8188976377952756,"duration":0.19374999999999432},{"name":"F2","midi":41,"time":156.7770833333317,"velocity":0.84251968503937,"duration":0.3916666666666515},{"name":"D#4","midi":63,"time":156.96874999999835,"velocity":0.84251968503937,"duration":0.19999999999998863},{"name":"D#4","midi":63,"time":157.17083333333167,"velocity":0.84251968503937,"duration":0.1979166666666572},{"name":"A#2","midi":46,"time":157.17083333333167,"velocity":0.84251968503937,"duration":0.3979166666666458},{"name":"D5","midi":74,"time":157.36874999999833,"velocity":0.8188976377952756,"duration":0.19999999999998863},{"name":"D#5","midi":75,"time":157.57083333333165,"velocity":0.8188976377952756,"duration":0.7770833333333087},{"name":"D#2","midi":39,"time":157.57083333333165,"velocity":0.84251968503937,"duration":0.38749999999998863},{"name":"F#4","midi":66,"time":157.76458333333164,"velocity":0.84251968503937,"duration":0.19374999999999432},{"name":"G#4","midi":68,"time":157.96041666666497,"velocity":0.8188976377952756,"duration":0.18958333333333144},{"name":"F#2","midi":42,"time":157.96041666666497,"velocity":0.84251968503937,"duration":0.38749999999998863},{"name":"A#4","midi":70,"time":158.1499999999983,"velocity":0.8188976377952756,"duration":0.19583333333332575},{"name":"B4","midi":71,"time":158.3499999999983,"velocity":0.8188976377952756,"duration":0.7770833333333087},{"name":"G#2","midi":44,"time":158.3499999999983,"velocity":0.84251968503937,"duration":0.7770833333333087},{"name":"F5","midi":77,"time":158.53958333333162,"velocity":0.7716535433070866,"duration":0.19166666666666288},{"name":"F#5","midi":78,"time":158.73333333333161,"velocity":0.7716535433070866,"duration":0.19374999999999432},{"name":"G#5","midi":80,"time":158.92916666666494,"velocity":0.7716535433070866,"duration":0.19583333333332575},{"name":"A#4","midi":70,"time":159.12916666666493,"velocity":0.8188976377952756,"duration":0.3958333333333144},{"name":"D5","midi":74,"time":159.12916666666493,"velocity":0.8188976377952756,"duration":0.19583333333332575},{"name":"B5","midi":83,"time":159.32499999999825,"velocity":0.7716535433070866,"duration":0.1979166666666572},{"name":"F3","midi":53,"time":159.32499999999825,"velocity":0.84251968503937,"duration":0.1979166666666572},{"name":"A#5","midi":82,"time":159.52499999999824,"velocity":0.7716535433070866,"duration":0.3916666666666515},{"name":"F#3","midi":54,"time":159.52499999999824,"velocity":0.84251968503937,"duration":0.19583333333332575},{"name":"D#5","midi":75,"time":159.72083333333157,"velocity":0.8188976377952756,"duration":0.5937499999999432},{"name":"G#3","midi":56,"time":159.7229166666649,"velocity":0.84251968503937,"duration":0.19374999999999432},{"name":"G#5","midi":80,"time":159.91874999999823,"velocity":0.7716535433070866,"duration":0.07083333333332575},{"name":"A#3","midi":58,"time":159.91874999999823,"velocity":0.84251968503937,"duration":0.3937499999999545},{"name":"F#5","midi":78,"time":159.99166666666488,"velocity":0.7716535433070866,"duration":0.07083333333332575},{"name":"G#5","midi":80,"time":160.0624999999982,"velocity":0.7716535433070866,"duration":0.07083333333332575},{"name":"F#5","midi":78,"time":160.13541666666487,"velocity":0.7716535433070866,"duration":0.07083333333332575},{"name":"G#5","midi":80,"time":160.2062499999982,"velocity":0.7716535433070866,"duration":0.07291666666665719},{"name":"F#5","midi":78,"time":160.28124999999818,"velocity":0.7716535433070866,"duration":0.07291666666665719},{"name":"D5","midi":74,"time":160.3145833333315,"velocity":0.8188976377952756,"duration":0.41458333333329733},{"name":"F5","midi":77,"time":160.3145833333315,"velocity":0.7716535433070866,"duration":0.20624999999998295},{"name":"A#2","midi":46,"time":160.31666666666484,"velocity":0.84251968503937,"duration":0.4124999999999659},{"name":"D#5","midi":75,"time":160.5208333333315,"velocity":0.8188976377952756,"duration":0.17083333333332007},{"name":"D#5","midi":75,"time":160.7291666666648,"velocity":0.8188976377952756,"duration":0.40416666666664014},{"name":"D#3","midi":51,"time":160.73124999999814,"velocity":0.84251968503937,"duration":0.19999999999998863},{"name":"A#3","midi":58,"time":160.93124999999813,"velocity":0.84251968503937,"duration":0.20208333333332007},{"name":"F#5","midi":78,"time":161.13541666666478,"velocity":0.7716535433070866,"duration":0.39374999999998295},{"name":"A#3","midi":58,"time":161.13541666666478,"velocity":0.84251968503937,"duration":0.19583333333332575},{"name":"F#3","midi":54,"time":161.3312499999981,"velocity":0.84251968503937,"duration":0.1979166666666572},{"name":"B5","midi":83,"time":161.5312499999981,"velocity":0.7716535433070866,"duration":0.4020833333333087},{"name":"D#3","midi":51,"time":161.5312499999981,"velocity":0.84251968503937,"duration":0.19999999999998863},{"name":"F#3","midi":54,"time":161.73124999999808,"velocity":0.84251968503937,"duration":0.20208333333332007},{"name":"A#5","midi":82,"time":161.93541666666474,"velocity":0.7716535433070866,"duration":0.40416666666664014},{"name":"F#3","midi":54,"time":161.93541666666474,"velocity":0.84251968503937,"duration":0.20208333333332007},{"name":"D#3","midi":51,"time":162.13749999999806,"velocity":0.84251968503937,"duration":0.20208333333332007},{"name":"B5","midi":83,"time":162.3416666666647,"velocity":0.7716535433070866,"duration":2.016666666666538},{"name":"G#2","midi":44,"time":162.3416666666647,"velocity":0.84251968503937,"duration":0.20208333333332007},{"name":"D#4","midi":63,"time":162.54374999999803,"velocity":0.84251968503937,"duration":0.20208333333332007},{"name":"D#5","midi":75,"time":162.74583333333135,"velocity":0.8188976377952756,"duration":0.4020833333333087},{"name":"D#4","midi":63,"time":162.74791666666468,"velocity":0.84251968503937,"duration":0.1979166666666572},{"name":"B3","midi":59,"time":162.94583333333134,"velocity":0.84251968503937,"duration":0.20208333333332007},{"name":"G#5","midi":80,"time":163.149999999998,"velocity":0.7716535433070866,"duration":0.4020833333333087},{"name":"G#3","midi":56,"time":163.149999999998,"velocity":0.84251968503937,"duration":0.19999999999998863},{"name":"B3","midi":59,"time":163.34999999999798,"velocity":0.84251968503937,"duration":0.19999999999998863},{"name":"F#5","midi":78,"time":163.5520833333313,"velocity":0.7716535433070866,"duration":0.4062499999999716},{"name":"B3","midi":59,"time":163.55416666666463,"velocity":0.84251968503937,"duration":0.19999999999998863},{"name":"G#3","midi":56,"time":163.75624999999795,"velocity":0.84251968503937,"duration":0.19999999999998863},{"name":"G#5","midi":80,"time":163.95833333333127,"velocity":0.7716535433070866,"duration":1.6249999999999432},{"name":"F3","midi":53,"time":163.9604166666646,"velocity":0.84251968503937,"duration":0.19583333333332575},{"name":"G#3","midi":56,"time":164.15833333333126,"velocity":0.84251968503937,"duration":0.1979166666666572},{"name":"F5","midi":77,"time":164.35833333333125,"velocity":0.7716535433070866,"duration":0.4062499999999716},{"name":"G#3","midi":56,"time":164.36041666666458,"velocity":0.84251968503937,"duration":0.1979166666666572},{"name":"F3","midi":53,"time":164.56041666666457,"velocity":0.84251968503937,"duration":0.20208333333332007},{"name":"A#5","midi":82,"time":164.76458333333122,"velocity":0.7716535433070866,"duration":0.4104166666666629},{"name":"C#3","midi":49,"time":164.76666666666455,"velocity":0.84251968503937,"duration":0.20208333333332007},{"name":"F3","midi":53,"time":164.9708333333312,"velocity":0.84251968503937,"duration":0.20416666666667993},{"name":"G#5","midi":80,"time":165.17499999999788,"velocity":0.7716535433070866,"duration":0.8104166666666401},{"name":"F3","midi":53,"time":165.17499999999788,"velocity":0.84251968503937,"duration":0.20416666666667993},{"name":"C#3","midi":49,"time":165.3812499999979,"velocity":0.84251968503937,"duration":0.19999999999998863},{"name":"A#5","midi":82,"time":165.5833333333312,"velocity":0.7716535433070866,"duration":1.977083333333212},{"name":"F#2","midi":42,"time":165.58541666666454,"velocity":0.84251968503937,"duration":0.1979166666666572},{"name":"C#4","midi":61,"time":165.78541666666453,"velocity":0.84251968503937,"duration":0.1979166666666572},{"name":"C#5","midi":73,"time":165.98541666666452,"velocity":0.8188976377952756,"duration":0.4020833333333087},{"name":"C#4","midi":61,"time":165.98749999999785,"velocity":0.84251968503937,"duration":0.19583333333332575},{"name":"A#3","midi":58,"time":166.1854166666645,"velocity":0.84251968503937,"duration":0.19999999999998863},{"name":"F#5","midi":78,"time":166.38749999999783,"velocity":0.7716535433070866,"duration":0.4062499999999716},{"name":"F#3","midi":54,"time":166.38958333333116,"velocity":0.84251968503937,"duration":0.19999999999998863},{"name":"A#3","midi":58,"time":166.59166666666448,"velocity":0.84251968503937,"duration":0.19999999999998863},{"name":"F5","midi":77,"time":166.7937499999978,"velocity":0.7716535433070866,"duration":0.4062499999999716},{"name":"A#3","midi":58,"time":166.79583333333113,"velocity":0.84251968503937,"duration":0.1979166666666572},{"name":"F#3","midi":54,"time":166.99583333333112,"velocity":0.84251968503937,"duration":0.20208333333332007},{"name":"F#5","midi":78,"time":167.19999999999777,"velocity":0.7716535433070866,"duration":0.3958333333333144},{"name":"D#3","midi":51,"time":167.19999999999777,"velocity":0.84251968503937,"duration":0.19374999999999432},{"name":"F#3","midi":54,"time":167.3958333333311,"velocity":0.84251968503937,"duration":0.1979166666666572},{"name":"A#5","midi":82,"time":167.5958333333311,"velocity":0.7716535433070866,"duration":0.39999999999997726},{"name":"C#5","midi":73,"time":167.59791666666442,"velocity":0.8188976377952756,"duration":0.3979166666666458},{"name":"F#3","midi":54,"time":167.59791666666442,"velocity":0.84251968503937,"duration":0.19583333333332575},{"name":"D#3","midi":51,"time":167.79583333333107,"velocity":0.84251968503937,"duration":0.1979166666666572},{"name":"D#5","midi":75,"time":167.9979166666644,"velocity":0.8188976377952756,"duration":0.9854166666666231},{"name":"G#5","midi":80,"time":167.9979166666644,"velocity":0.7716535433070866,"duration":0.3958333333333144},{"name":"B2","midi":47,"time":167.99999999999773,"velocity":0.84251968503937,"duration":0.19374999999999432},{"name":"D#3","midi":51,"time":168.19583333333105,"velocity":0.84251968503937,"duration":0.19583333333332575},{"name":"F#5","midi":78,"time":168.3937499999977,"velocity":0.7716535433070866,"duration":0.3958333333333144},{"name":"D#3","midi":51,"time":168.39583333333104,"velocity":0.84251968503937,"duration":0.19374999999999432},{"name":"B2","midi":47,"time":168.59166666666437,"velocity":0.84251968503937,"duration":0.19583333333332575},{"name":"F5","midi":77,"time":168.78958333333102,"velocity":0.7716535433070866,"duration":0.7937499999999602},{"name":"C#3","midi":49,"time":168.79166666666436,"velocity":0.84251968503937,"duration":0.3916666666666515},{"name":"G#4","midi":68,"time":168.98541666666435,"velocity":0.8188976377952756,"duration":0.19583333333332575},{"name":"G#4","midi":68,"time":169.183333333331,"velocity":0.8188976377952756,"duration":0.1979166666666572},{"name":"C#2","midi":37,"time":169.18541666666434,"velocity":0.84251968503937,"duration":0.3979166666666458},{"name":"C#5","midi":73,"time":169.383333333331,"velocity":0.8188976377952756,"duration":0.1979166666666572},{"name":"E5","midi":76,"time":169.58541666666432,"velocity":0.8188976377952756,"duration":0.9979166666666117},{"name":"C#5","midi":73,"time":169.58541666666432,"velocity":0.8188976377952756,"duration":0.19583333333332575},{"name":"G#4","midi":68,"time":169.78333333333097,"velocity":0.8188976377952756,"duration":0.19999999999998863},{"name":"G#4","midi":68,"time":169.98333333333096,"velocity":0.8188976377952756,"duration":0.19999999999998863},{"name":"C#4","midi":61,"time":169.98333333333096,"velocity":0.84251968503937,"duration":0.19999999999998863},{"name":"B4","midi":71,"time":170.18333333333095,"velocity":0.8188976377952756,"duration":0.19999999999998863},{"name":"B3","midi":59,"time":170.18541666666428,"velocity":0.84251968503937,"duration":0.1979166666666572},{"name":"A#4","midi":70,"time":170.38333333333094,"velocity":0.8188976377952756,"duration":1.5791666666665947},{"name":"C#4","midi":61,"time":170.38541666666427,"velocity":0.84251968503937,"duration":0.3979166666666458},{"name":"C#5","midi":73,"time":170.58333333333093,"velocity":0.8188976377952756,"duration":0.19999999999998863},{"name":"C#5","midi":73,"time":170.78333333333092,"velocity":0.8188976377952756,"duration":0.1979166666666572},{"name":"F#3","midi":54,"time":170.78541666666425,"velocity":0.84251968503937,"duration":0.38958333333332007},{"name":"E5","midi":76,"time":170.98124999999757,"velocity":0.8188976377952756,"duration":0.19374999999999432},{"name":"D#5","midi":75,"time":171.1770833333309,"velocity":0.8188976377952756,"duration":0.19583333333332575},{"name":"B3","midi":59,"time":171.1770833333309,"velocity":0.84251968503937,"duration":0.3958333333333144},{"name":"B4","midi":71,"time":171.37499999999756,"velocity":0.8188976377952756,"duration":0.19583333333332575},{"name":"B4","midi":71,"time":171.5729166666642,"velocity":0.8188976377952756,"duration":0.19374999999999432},{"name":"A#3","midi":58,"time":171.57499999999754,"velocity":0.84251968503937,"duration":0.38749999999998863},{"name":"D#5","midi":75,"time":171.76874999999754,"velocity":0.8188976377952756,"duration":0.19166666666666288},{"name":"G#4","midi":68,"time":171.96458333333086,"velocity":0.8188976377952756,"duration":1.5604166666666117},{"name":"D#5","midi":75,"time":171.96458333333086,"velocity":0.8188976377952756,"duration":0.1875},{"name":"B3","midi":59,"time":171.9666666666642,"velocity":0.84251968503937,"duration":0.3812499999999943},{"name":"B4","midi":71,"time":172.1541666666642,"velocity":0.8188976377952756,"duration":0.19374999999999432},{"name":"B4","midi":71,"time":172.34999999999752,"velocity":0.8188976377952756,"duration":0.19374999999999432},{"name":"F3","midi":53,"time":172.34999999999752,"velocity":0.84251968503937,"duration":0.38958333333332007},{"name":"D#5","midi":75,"time":172.54374999999752,"velocity":0.8188976377952756,"duration":0.19583333333332575},{"name":"C#5","midi":73,"time":172.74166666666417,"velocity":0.8188976377952756,"duration":0.19374999999999432},{"name":"A#3","midi":58,"time":172.74166666666417,"velocity":0.84251968503937,"duration":0.38958333333332007},{"name":"A#4","midi":70,"time":172.93541666666417,"velocity":0.8188976377952756,"duration":0.19583333333332575},{"name":"A#4","midi":70,"time":173.13333333333082,"velocity":0.8188976377952756,"duration":0.19166666666666288},{"name":"G#3","midi":56,"time":173.13333333333082,"velocity":0.84251968503937,"duration":0.3916666666666515},{"name":"C#5","midi":73,"time":173.3249999999975,"velocity":0.8188976377952756,"duration":0.1979166666666572},{"name":"C#5","midi":73,"time":173.52499999999748,"velocity":0.8188976377952756,"duration":0.19583333333332575},{"name":"F#4","midi":66,"time":173.5270833333308,"velocity":0.84251968503937,"duration":1.5541666666666174},{"name":"A#3","midi":58,"time":173.5270833333308,"velocity":0.84251968503937,"duration":0.39374999999998295},{"name":"A#4","midi":70,"time":173.72291666666413,"velocity":0.8188976377952756,"duration":0.19583333333332575},{"name":"A#4","midi":70,"time":173.9208333333308,"velocity":0.8188976377952756,"duration":0.19166666666666288},{"name":"D#3","midi":51,"time":173.92291666666412,"velocity":0.84251968503937,"duration":0.3812499999999943},{"name":"C#5","midi":73,"time":174.11458333333078,"velocity":0.8188976377952756,"duration":0.1875},{"name":"B4","midi":71,"time":174.30416666666412,"velocity":0.8188976377952756,"duration":0.19374999999999432},{"name":"G#3","midi":56,"time":174.30624999999745,"velocity":0.84251968503937,"duration":0.3854166666666572},{"name":"G#4","midi":68,"time":174.4979166666641,"velocity":0.8188976377952756,"duration":0.19166666666666288},{"name":"G#4","midi":68,"time":174.6916666666641,"velocity":0.8188976377952756,"duration":0.19374999999999432},{"name":"F#3","midi":54,"time":174.69374999999744,"velocity":0.84251968503937,"duration":0.38749999999998863},{"name":"B4","midi":71,"time":174.8854166666641,"velocity":0.8188976377952756,"duration":0.19374999999999432},{"name":"B4","midi":71,"time":175.08333333333076,"velocity":0.8188976377952756,"duration":0.19166666666666288},{"name":"F4","midi":65,"time":175.08333333333076,"velocity":0.84251968503937,"duration":0.768749999999983},{"name":"G#3","midi":56,"time":175.08333333333076,"velocity":0.84251968503937,"duration":0.38333333333332575},{"name":"G#4","midi":68,"time":175.27499999999742,"velocity":0.8188976377952756,"duration":0.19166666666666288},{"name":"G#4","midi":68,"time":175.46666666666408,"velocity":0.8188976377952756,"duration":0.18958333333333144},{"name":"C#3","midi":49,"time":175.4687499999974,"velocity":0.84251968503937,"duration":0.3812499999999943},{"name":"B4","midi":71,"time":175.6562499999974,"velocity":0.8188976377952756,"duration":0.19374999999999432},{"name":"A#4","midi":70,"time":175.85208333333074,"velocity":0.8188976377952756,"duration":0.19166666666666288},{"name":"F#3","midi":54,"time":175.85416666666407,"velocity":0.84251968503937,"duration":0.38958333333332007},{"name":"B4","midi":71,"time":176.04583333333073,"velocity":0.8188976377952756,"duration":0.19583333333332575},{"name":"C#5","midi":73,"time":176.2437499999974,"velocity":0.8188976377952756,"duration":0.19374999999999432},{"name":"F3","midi":53,"time":176.24583333333072,"velocity":0.84251968503937,"duration":0.3854166666666572},{"name":"G#4","midi":68,"time":176.43958333333072,"velocity":0.8188976377952756,"duration":0.18958333333333144},{"name":"A#4","midi":70,"time":176.63124999999738,"velocity":0.8188976377952756,"duration":0.3854166666666572},{"name":"F#3","midi":54,"time":176.6333333333307,"velocity":0.84251968503937,"duration":0.19166666666666288},{"name":"A#3","midi":58,"time":176.82499999999737,"velocity":0.84251968503937,"duration":0.19166666666666288},{"name":"C#5","midi":73,"time":177.01874999999737,"velocity":0.8188976377952756,"duration":0.37708333333333144},{"name":"F#4","midi":66,"time":177.01874999999737,"velocity":0.84251968503937,"duration":0.37708333333333144},{"name":"A#3","midi":58,"time":177.0208333333307,"velocity":0.84251968503937,"duration":0.18333333333333712},{"name":"F#3","midi":54,"time":177.20416666666404,"velocity":0.84251968503937,"duration":0.18958333333333144},{"name":"B4","midi":71,"time":177.39791666666403,"velocity":0.8188976377952756,"duration":0.3812499999999943},{"name":"D#5","midi":75,"time":177.39791666666403,"velocity":0.8188976377952756,"duration":0.3812499999999943},{"name":"D#3","midi":51,"time":177.39999999999736,"velocity":0.84251968503937,"duration":0.18333333333333712},{"name":"F#3","midi":54,"time":177.58541666666403,"velocity":0.84251968503937,"duration":0.19166666666666288},{"name":"A#4","midi":70,"time":177.78124999999736,"velocity":0.8188976377952756,"duration":0.38749999999998863},{"name":"E5","midi":76,"time":177.78124999999736,"velocity":0.8188976377952756,"duration":0.581249999999983},{"name":"F#3","midi":54,"time":177.7833333333307,"velocity":0.84251968503937,"duration":0.18958333333333144},{"name":"D#3","midi":51,"time":177.97291666666402,"velocity":0.84251968503937,"duration":0.19583333333332575},{"name":"B4","midi":71,"time":178.17083333333068,"velocity":0.8188976377952756,"duration":0.38749999999998863},{"name":"B2","midi":47,"time":178.17083333333068,"velocity":0.84251968503937,"duration":0.3854166666666572},{"name":"D#5","midi":75,"time":178.36249999999734,"velocity":0.8188976377952756,"duration":0.19374999999999432},{"name":"C#5","midi":73,"time":178.55833333333067,"velocity":0.8188976377952756,"duration":0.19166666666666288},{"name":"A#4","midi":70,"time":178.560416666664,"velocity":0.8188976377952756,"duration":0.1875},{"name":"E5","midi":76,"time":178.74999999999733,"velocity":0.8188976377952756,"duration":0.18541666666666856},{"name":"G#4","midi":68,"time":178.74999999999733,"velocity":0.8188976377952756,"duration":0.15625},{"name":"G#4","midi":68,"time":178.93749999999733,"velocity":0.8188976377952756,"duration":0.06874999999999432},{"name":"D#5","midi":75,"time":178.93749999999733,"velocity":0.8188976377952756,"duration":0.1875},{"name":"F#4","midi":66,"time":179.00624999999732,"velocity":0.84251968503937,"duration":0.06874999999999432},{"name":"G#4","midi":68,"time":179.07708333333065,"velocity":0.8188976377952756,"duration":0.06875000000002274},{"name":"B4","midi":71,"time":179.12708333333066,"velocity":0.8188976377952756,"duration":0.19374999999999432},{"name":"F#4","midi":66,"time":179.147916666664,"velocity":0.84251968503937,"duration":0.07083333333332575},{"name":"G#4","midi":68,"time":179.21874999999733,"velocity":0.8188976377952756,"duration":0.06874999999999432},{"name":"F#4","midi":66,"time":179.28958333333065,"velocity":0.84251968503937,"duration":0.06874999999999432},{"name":"B4","midi":71,"time":179.32083333333065,"velocity":0.8188976377952756,"duration":0.19166666666663446},{"name":"B3","midi":59,"time":179.32291666666399,"velocity":0.84251968503937,"duration":0.3499999999999659},{"name":"G#4","midi":68,"time":179.35833333333065,"velocity":0.8188976377952756,"duration":0.06874999999999432},{"name":"F#4","midi":66,"time":179.42916666666397,"velocity":0.84251968503937,"duration":0.07083333333332575},{"name":"D#5","midi":75,"time":179.5124999999973,"velocity":0.8188976377952756,"duration":0.19374999999999432},{"name":"E4","midi":64,"time":179.51458333333062,"velocity":0.84251968503937,"duration":0.09375},{"name":"F#4","midi":66,"time":179.60833333333062,"velocity":0.84251968503937,"duration":0.09583333333333144},{"name":"G#4","midi":68,"time":179.70624999999728,"velocity":0.8188976377952756,"duration":0.7854166666666345},{"name":"E5","midi":76,"time":179.70624999999728,"velocity":0.8188976377952756,"duration":0.19374999999999432},{"name":"B3","midi":59,"time":179.70833333333061,"velocity":0.84251968503937,"duration":3.3312499999998693},{"name":"B4","midi":71,"time":179.9020833333306,"velocity":0.8188976377952756,"duration":0.19374999999999432},{"name":"B4","midi":71,"time":180.09791666666393,"velocity":0.8188976377952756,"duration":0.19583333333332575},{"name":"E5","midi":76,"time":180.29374999999726,"velocity":0.8188976377952756,"duration":0.1979166666666572},{"name":"F#5","midi":78,"time":180.49374999999725,"velocity":0.7716535433070866,"duration":0.19166666666666288},{"name":"B4","midi":71,"time":180.6854166666639,"velocity":0.8188976377952756,"duration":0.19583333333332575},{"name":"B4","midi":71,"time":180.88124999999724,"velocity":0.8188976377952756,"duration":0.19374999999999432},{"name":"F#4","midi":66,"time":180.88333333333057,"velocity":0.84251968503937,"duration":0.38958333333332007},{"name":"F#5","midi":78,"time":181.07499999999723,"velocity":0.7716535433070866,"duration":0.19583333333332575},{"name":"G#5","midi":80,"time":181.2729166666639,"velocity":0.7716535433070866,"duration":0.19374999999999432},{"name":"E4","midi":64,"time":181.27499999999722,"velocity":0.84251968503937,"duration":0.3916666666666515},{"name":"B4","midi":71,"time":181.46874999999721,"velocity":0.8188976377952756,"duration":0.19583333333332575},{"name":"B4","midi":71,"time":181.66666666666387,"velocity":0.8188976377952756,"duration":0.19583333333332575},{"name":"D#4","midi":63,"time":181.6687499999972,"velocity":0.84251968503937,"duration":0.3916666666666515},{"name":"G#5","midi":80,"time":181.86458333333053,"velocity":0.7716535433070866,"duration":0.19374999999999432},{"name":"A#5","midi":82,"time":182.06041666666385,"velocity":0.7716535433070866,"duration":0.19583333333332575},{"name":"C#4","midi":61,"time":182.0624999999972,"velocity":0.84251968503937,"duration":0.3916666666666515},{"name":"B4","midi":71,"time":182.2583333333305,"velocity":0.8188976377952756,"duration":0.19374999999999432},{"name":"B4","midi":71,"time":182.45416666666384,"velocity":0.8188976377952756,"duration":0.19374999999999432},{"name":"F#4","midi":66,"time":182.45624999999717,"velocity":0.84251968503937,"duration":0.38749999999998863},{"name":"A#5","midi":82,"time":182.64791666666383,"velocity":0.7716535433070866,"duration":0.19583333333332575},{"name":"B5","midi":83,"time":182.8458333333305,"velocity":0.7716535433070866,"duration":0.3916666666666515},{"name":"D#4","midi":63,"time":182.8458333333305,"velocity":0.84251968503937,"duration":0.38958333333332007},{"name":"A#3","midi":58,"time":183.03958333333048,"velocity":0.84251968503937,"duration":0.19583333333332575},{"name":"G#3","midi":56,"time":183.23749999999714,"velocity":0.84251968503937,"duration":0.19166666666666288},{"name":"D#4","midi":63,"time":183.23958333333047,"velocity":0.84251968503937,"duration":0.3854166666666572},{"name":"F#3","midi":54,"time":183.4291666666638,"velocity":0.84251968503937,"duration":0.19374999999999432},{"name":"G#4","midi":68,"time":183.62499999999713,"velocity":0.8188976377952756,"duration":0.3916666666666515},{"name":"E3","midi":52,"time":183.62499999999713,"velocity":0.84251968503937,"duration":0.19374999999999432},{"name":"C#4","midi":61,"time":183.82083333333046,"velocity":0.84251968503937,"duration":0.19374999999999432},{"name":"C#4","midi":61,"time":184.01666666666378,"velocity":0.84251968503937,"duration":0.19166666666666288},{"name":"G4","midi":67,"time":184.0187499999971,"velocity":0.84251968503937,"duration":0.38749999999998863},{"name":"E3","midi":52,"time":184.21041666666378,"velocity":0.84251968503937,"duration":0.19374999999999432},{"name":"G#4","midi":68,"time":184.40833333333043,"velocity":0.8188976377952756,"duration":0.8104166666666686},{"name":"D#3","midi":51,"time":184.40833333333043,"velocity":0.84251968503937,"duration":0.19583333333332575},{"name":"B3","midi":59,"time":184.60416666666376,"velocity":0.84251968503937,"duration":0.20208333333332007},{"name":"D#5","midi":75,"time":184.80624999999708,"velocity":0.8188976377952756,"duration":0.41250000000002274},{"name":"B3","midi":59,"time":184.8083333333304,"velocity":0.84251968503937,"duration":0.20625000000001137},{"name":"D#3","midi":51,"time":185.01458333333042,"velocity":0.84251968503937,"duration":0.20416666666667993},{"name":"G#5","midi":80,"time":185.22083333333043,"velocity":0.7716535433070866,"duration":0.4020833333333087},{"name":"C#3","midi":49,"time":185.22291666666376,"velocity":0.84251968503937,"duration":0.1979166666666572},{"name":"A#3","midi":58,"time":185.42083333333042,"velocity":0.84251968503937,"duration":0.20208333333332007},{"name":"A#4","midi":70,"time":185.62499999999707,"velocity":0.8188976377952756,"duration":0.40416666666664014},{"name":"G5","midi":79,"time":185.62499999999707,"velocity":0.7716535433070866,"duration":0.40416666666664014},{"name":"A#3","midi":58,"time":185.62499999999707,"velocity":0.84251968503937,"duration":0.19999999999998863},{"name":"C#3","midi":49,"time":185.8270833333304,"velocity":0.84251968503937,"duration":0.19999999999998863},{"name":"G#5","midi":80,"time":186.03124999999704,"velocity":0.7716535433070866,"duration":0.3958333333333144},{"name":"B4","midi":71,"time":186.03124999999704,"velocity":0.8188976377952756,"duration":0.3958333333333144},{"name":"B2","midi":47,"time":186.03333333333038,"velocity":0.84251968503937,"duration":0.19166666666666288},{"name":"C#3","midi":49,"time":186.22708333333037,"velocity":0.84251968503937,"duration":0.1979166666666572},{"name":"C#5","midi":73,"time":186.4291666666637,"velocity":0.8188976377952756,"duration":0.39374999999998295},{"name":"A#5","midi":82,"time":186.4291666666637,"velocity":0.7716535433070866,"duration":0.3958333333333144},{"name":"B2","midi":47,"time":186.43124999999702,"velocity":0.84251968503937,"duration":0.19166666666666288},{"name":"A#2","midi":46,"time":186.62291666666368,"velocity":0.84251968503937,"duration":0.19999999999998863},{"name":"D#5","midi":75,"time":186.824999999997,"velocity":0.8188976377952756,"duration":0.39999999999997726},{"name":"B5","midi":83,"time":186.824999999997,"velocity":0.7716535433070866,"duration":0.39999999999997726},{"name":"G#2","midi":44,"time":186.82708333333034,"velocity":0.84251968503937,"duration":0.1979166666666572},{"name":"A#2","midi":46,"time":187.024999999997,"velocity":0.84251968503937,"duration":0.19999999999998863},{"name":"B4","midi":71,"time":187.2270833333303,"velocity":0.8188976377952756,"duration":0.3958333333333144},{"name":"G#5","midi":80,"time":187.2270833333303,"velocity":0.7716535433070866,"duration":0.3979166666666458},{"name":"B2","midi":47,"time":187.22916666666364,"velocity":0.84251968503937,"duration":0.19583333333332575},{"name":"G#2","midi":44,"time":187.42499999999697,"velocity":0.84251968503937,"duration":0.1979166666666572},{"name":"G#4","midi":68,"time":187.62499999999696,"velocity":0.8188976377952756,"duration":0.7937499999999602},{"name":"F5","midi":77,"time":187.62499999999696,"velocity":0.7716535433070866,"duration":0.3979166666666458},{"name":"C#3","midi":49,"time":187.6270833333303,"velocity":0.84251968503937,"duration":0.19374999999999432},{"name":"D#3","midi":51,"time":187.82083333333028,"velocity":0.84251968503937,"duration":0.20208333333332007},{"name":"C#5","midi":73,"time":188.02499999999694,"velocity":0.8188976377952756,"duration":0.3916666666666515},{"name":"C#3","midi":49,"time":188.02499999999694,"velocity":0.84251968503937,"duration":0.1979166666666572},{"name":"B2","midi":47,"time":188.2229166666636,"velocity":0.84251968503937,"duration":0.19374999999999432},{"name":"F#5","midi":78,"time":188.41874999999692,"velocity":0.7716535433070866,"duration":0.3979166666666458},{"name":"A#2","midi":46,"time":188.42083333333025,"velocity":0.84251968503937,"duration":0.19374999999999432},{"name":"B2","midi":47,"time":188.61458333333024,"velocity":0.84251968503937,"duration":0.20208333333332007},{"name":"C#5","midi":73,"time":188.8187499999969,"velocity":0.8188976377952756,"duration":0.40416666666664014},{"name":"F5","midi":77,"time":188.8187499999969,"velocity":0.7716535433070866,"duration":0.40416666666664014},{"name":"C#3","midi":49,"time":188.82083333333023,"velocity":0.84251968503937,"duration":0.1979166666666572},{"name":"A#2","midi":46,"time":189.01874999999688,"velocity":0.84251968503937,"duration":0.20208333333332007},{"name":"F#5","midi":78,"time":189.22291666666354,"velocity":0.7716535433070866,"duration":0.39374999999998295},{"name":"A#4","midi":70,"time":189.22499999999687,"velocity":0.8188976377952756,"duration":0.783333333333303},{"name":"D#3","midi":51,"time":189.22499999999687,"velocity":0.84251968503937,"duration":0.19374999999999432},{"name":"F3","midi":53,"time":189.41874999999686,"velocity":0.84251968503937,"duration":0.1979166666666572},{"name":"F5","midi":77,"time":189.61874999999685,"velocity":0.7716535433070866,"duration":0.19374999999999432},{"name":"F#3","midi":54,"time":189.61874999999685,"velocity":0.84251968503937,"duration":0.5854166666666458},{"name":"D#5","midi":75,"time":189.81249999999685,"velocity":0.8188976377952756,"duration":0.16458333333332575},{"name":"D#5","midi":75,"time":190.0104166666635,"velocity":0.8188976377952756,"duration":0.06874999999999432},{"name":"C#5","midi":73,"time":190.08124999999683,"velocity":0.8188976377952756,"duration":0.07083333333332575},{"name":"D#5","midi":75,"time":190.15208333333015,"velocity":0.8188976377952756,"duration":0.07291666666668561},{"name":"F3","midi":53,"time":190.20624999999683,"velocity":0.84251968503937,"duration":0.19583333333332575},{"name":"C#5","midi":73,"time":190.22499999999684,"velocity":0.8188976377952756,"duration":0.07083333333332575},{"name":"D#5","midi":75,"time":190.2979166666635,"velocity":0.8188976377952756,"duration":0.07083333333332575},{"name":"C#5","midi":73,"time":190.37083333333015,"velocity":0.8188976377952756,"duration":0.07083333333332575},{"name":"A#4","midi":70,"time":190.40416666666349,"velocity":0.8188976377952756,"duration":0.3937499999999545},{"name":"D#3","midi":51,"time":190.40416666666349,"velocity":0.84251968503937,"duration":0.19583333333329733},{"name":"D#5","midi":75,"time":190.4437499999968,"velocity":0.8188976377952756,"duration":0.07083333333332575},{"name":"C#5","midi":73,"time":190.51666666666347,"velocity":0.8188976377952756,"duration":0.06874999999999432},{"name":"B4","midi":71,"time":190.6020833333301,"velocity":0.8188976377952756,"duration":0.09999999999999432},{"name":"C#3","midi":49,"time":190.6020833333301,"velocity":0.84251968503937,"duration":0.19583333333332575},{"name":"C#5","midi":73,"time":190.69999999999678,"velocity":0.8188976377952756,"duration":0.10208333333332575},{"name":"D#5","midi":75,"time":190.79999999999677,"velocity":0.8188976377952756,"duration":0.8104166666666401},{"name":"G#4","midi":68,"time":190.79999999999677,"velocity":0.8188976377952756,"duration":0.19583333333332575},{"name":"B2","midi":47,"time":190.79999999999677,"velocity":0.84251968503937,"duration":0.19583333333332575},{"name":"F4","midi":65,"time":190.99791666666343,"velocity":0.84251968503937,"duration":0.19374999999999432},{"name":"C#3","midi":49,"time":190.99791666666343,"velocity":0.84251968503937,"duration":0.19374999999999432},{"name":"D#3","midi":51,"time":191.19374999999675,"velocity":0.84251968503937,"duration":0.19374999999999432},{"name":"F#4","midi":66,"time":191.19374999999675,"velocity":0.84251968503937,"duration":0.19374999999999432},{"name":"A#4","midi":70,"time":191.38958333333008,"velocity":0.8188976377952756,"duration":0.19166666666666288},{"name":"A#2","midi":46,"time":191.38958333333008,"velocity":0.84251968503937,"duration":0.19166666666666288},{"name":"G#4","midi":68,"time":191.58333333333007,"velocity":0.8188976377952756,"duration":0.19374999999999432},{"name":"B2","midi":47,"time":191.58333333333007,"velocity":0.84251968503937,"duration":0.19374999999999432},{"name":"C#3","midi":49,"time":191.7791666666634,"velocity":0.84251968503937,"duration":0.19374999999999432},{"name":"F4","midi":65,"time":191.7791666666634,"velocity":0.84251968503937,"duration":0.19166666666666288},{"name":"C#5","midi":73,"time":191.9729166666634,"velocity":0.8188976377952756,"duration":0.38958333333332007},{"name":"F#4","midi":66,"time":191.97499999999673,"velocity":0.84251968503937,"duration":0.581249999999983},{"name":"D#3","midi":51,"time":191.97499999999673,"velocity":0.84251968503937,"duration":0.18958333333333144},{"name":"B2","midi":47,"time":192.1666666666634,"velocity":0.84251968503937,"duration":0.19374999999999432},{"name":"B4","midi":71,"time":192.36249999999671,"velocity":0.8188976377952756,"duration":0.3979166666666458},{"name":"G#2","midi":44,"time":192.36458333333005,"velocity":0.84251968503937,"duration":0.3958333333333144},{"name":"F4","midi":65,"time":192.55833333333004,"velocity":0.84251968503937,"duration":0.19999999999998863},{"name":"A#4","midi":70,"time":192.7624999999967,"velocity":0.8188976377952756,"duration":0.40416666666664014},{"name":"F#4","midi":66,"time":192.7624999999967,"velocity":0.84251968503937,"duration":0.7979166666666231},{"name":"A#2","midi":46,"time":192.76458333333002,"velocity":0.84251968503937,"duration":0.19583333333332575},{"name":"B2","midi":47,"time":192.96249999999668,"velocity":0.84251968503937,"duration":0.20208333333332007},{"name":"G#4","midi":68,"time":193.16666666666333,"velocity":0.8188976377952756,"duration":0.39374999999998295},{"name":"C#3","midi":49,"time":193.16874999999666,"velocity":0.84251968503937,"duration":0.38958333333332007},{"name":"C#5","midi":73,"time":193.56249999999665,"velocity":0.8188976377952756,"duration":0.3916666666666515},{"name":"F4","midi":65,"time":193.56249999999665,"velocity":0.84251968503937,"duration":0.3916666666666515},{"name":"C#2","midi":37,"time":193.56458333332998,"velocity":0.84251968503937,"duration":0.38958333333332007},{"name":"A#4","midi":70,"time":193.95624999999663,"velocity":0.8188976377952756,"duration":0.19374999999999432},{"name":"F#4","midi":66,"time":193.95624999999663,"velocity":0.84251968503937,"duration":0.7916666666666288},{"name":"F#2","midi":42,"time":193.95833333332996,"velocity":0.84251968503937,"duration":0.38958333333332007},{"name":"C#5","midi":73,"time":194.14999999999662,"velocity":0.8188976377952756,"duration":0.19583333333332575},{"name":"C#5","midi":73,"time":194.34791666666328,"velocity":0.8188976377952756,"duration":0.1979166666666572},{"name":"F#3","midi":54,"time":194.3499999999966,"velocity":0.84251968503937,"duration":0.3979166666666458},{"name":"A#4","midi":70,"time":194.54583333332994,"velocity":0.8188976377952756,"duration":0.19999999999998863},{"name":"G#4","midi":68,"time":194.7499999999966,"velocity":0.8188976377952756,"duration":0.19583333333332575},{"name":"F3","midi":53,"time":194.7499999999966,"velocity":0.84251968503937,"duration":0.3958333333333144},{"name":"C#5","midi":73,"time":194.94791666666325,"velocity":0.8188976377952756,"duration":0.19583333333332575},{"name":"C#5","midi":73,"time":195.1458333333299,"velocity":0.8188976377952756,"duration":0.19374999999999432},{"name":"C#3","midi":49,"time":195.14791666666324,"velocity":0.84251968503937,"duration":0.38749999999998863},{"name":"F4","midi":65,"time":195.14791666666324,"velocity":0.84251968503937,"duration":0.38749999999998863},{"name":"G#4","midi":68,"time":195.34166666666323,"velocity":0.8188976377952756,"duration":0.19166666666666288},{"name":"A#4","midi":70,"time":195.53749999999656,"velocity":0.8188976377952756,"duration":0.3916666666666515},{"name":"F#4","midi":66,"time":195.53749999999656,"velocity":0.84251968503937,"duration":0.7874999999999659},{"name":"F#3","midi":54,"time":195.5395833333299,"velocity":0.84251968503937,"duration":0.19166666666666288},{"name":"A#3","midi":58,"time":195.73333333332988,"velocity":0.84251968503937,"duration":0.19374999999999432},{"name":"C#5","midi":73,"time":195.9291666666632,"velocity":0.8188976377952756,"duration":0.3958333333333144},{"name":"A#3","midi":58,"time":195.93124999999654,"velocity":0.84251968503937,"duration":0.19374999999999432},{"name":"F#3","midi":54,"time":196.12708333332986,"velocity":0.84251968503937,"duration":0.1979166666666572},{"name":"F#5","midi":78,"time":196.32708333332985,"velocity":0.7716535433070866,"duration":1.5895833333333371},{"name":"D#3","midi":51,"time":196.32708333332985,"velocity":0.84251968503937,"duration":0.19166666666666288},{"name":"F#3","midi":54,"time":196.51874999999652,"velocity":0.84251968503937,"duration":0.1979166666666572},{"name":"A#4","midi":70,"time":196.71666666666317,"velocity":0.8188976377952756,"duration":0.3854166666666572},{"name":"F#3","midi":54,"time":196.7187499999965,"velocity":0.84251968503937,"duration":0.18958333333333144},{"name":"D#3","midi":51,"time":196.90833333332984,"velocity":0.84251968503937,"duration":0.21458333333333712},{"name":"G#4","midi":68,"time":197.10208333332983,"velocity":0.8188976377952756,"duration":0.19791666666668561},{"name":"B2","midi":47,"time":197.10416666666316,"velocity":0.84251968503937,"duration":0.3958333333333428},{"name":"D#5","midi":75,"time":197.29999999999652,"velocity":0.8188976377952756,"duration":0.19999999999998863},{"name":"D#5","midi":75,"time":197.50208333332984,"velocity":0.8188976377952756,"duration":0.20625000000001137},{"name":"G#2","midi":44,"time":197.50208333332984,"velocity":0.84251968503937,"duration":0.4583333333333428},{"name":"B4","midi":71,"time":197.70833333332985,"velocity":0.8188976377952756,"duration":0.2083333333333428},{"name":"F5","midi":77,"time":197.91874999999652,"velocity":0.7716535433070866,"duration":0.9520833333333485},{"name":"G#4","midi":68,"time":197.91874999999652,"velocity":0.8188976377952756,"duration":0.21458333333333712},{"name":"C#3","midi":49,"time":197.92083333332985,"velocity":0.84251968503937,"duration":0.4833333333333485},{"name":"C#5","midi":73,"time":198.1354166666632,"velocity":0.8188976377952756,"duration":0.21875},{"name":"C#5","midi":73,"time":198.3541666666632,"velocity":0.8188976377952756,"duration":0.2541666666666913},{"name":"C#2","midi":37,"time":198.35624999999652,"velocity":0.84251968503937,"duration":0.5187500000000114},{"name":"B4","midi":71,"time":198.60833333332988,"velocity":0.84251968503937,"duration":0.26249999999998863},{"name":"A#4","midi":70,"time":198.8729166666632,"velocity":0.7165354330708661,"duration":4.34166666666664},{"name":"F#5","midi":78,"time":198.8729166666632,"velocity":0.7007874015748031,"duration":4.32708333333332},{"name":"F#2","midi":42,"time":198.87499999999653,"velocity":0.8110236220472441,"duration":4.354166666666629}],"controlChanges":{"7":[{"number":7,"time":0,"value":0.8267716535433071},{"number":7,"time":0,"value":0.8661417322834646},{"number":7,"time":0,"value":0.8661417322834646}],"10":[{"number":10,"time":0,"value":0.49606299212598426},{"number":10,"time":0,"value":0.3779527559055118},{"number":10,"time":0,"value":0.3779527559055118},{"number":10,"time":5.185416666666667,"value":0.5275590551181102},{"number":10,"time":5.254166666666667,"value":0.6220472440944882},{"number":10,"time":5.260416666666667,"value":0.47244094488188976},{"number":10,"time":5.283333333333333,"value":0.4566929133858268},{"number":10,"time":5.316666666666666,"value":0.4330708661417323},{"number":10,"time":5.325,"value":0.5196850393700787},{"number":10,"time":5.354166666666667,"value":0.5905511811023622},{"number":10,"time":5.354166666666667,"value":0.4645669291338583},{"number":10,"time":5.404166666666667,"value":0.5826771653543307}]},"id":0,"name":"--------","instrumentNumber":0,"instrument":"acoustic grand piano","instrumentFamily":"piano","channelNumber":0,"isPercussion":false}]}