{"header":{"PPQ":384,"timeSignature":[3,4],"bpm":72.00002880001152,"name":"--------"},"startTime":0,"duration":1303.3197911718994,"tracks":[{"startTime":0,"duration":0,"length":0,"notes":[],"controlChanges":{},"id":0,"name":"--------"},{"startTime":0.32335056510416665,"duration":1303.3197911718994,"length":7531,"notes":[{"name":"D2","midi":38,"time":0.32335056510416665,"velocity":0.7559055118110236,"duration":1.1284717708333334},{"name":"D3","midi":50,"time":0.325520703125,"velocity":0.7559055118110236,"duration":0.9353294869791666},{"name":"A4","midi":69,"time":0.325520703125,"velocity":0.7559055118110236,"duration":2.324217820312501},{"name":"D5","midi":74,"time":0.325520703125,"velocity":0.7559055118110236,"duration":2.324217820312501},{"name":"F#5","midi":78,"time":0.325520703125,"velocity":0.7559055118110236,"duration":2.324217820312501},{"name":"D3","midi":50,"time":1.3541661249999999,"velocity":0.7559055118110236,"duration":0.10199648697916675},{"name":"E3","midi":52,"time":1.45833275,"velocity":0.7559055118110236,"duration":0.10199648697916675},{"name":"F#3","midi":54,"time":1.5624993750000002,"velocity":0.7559055118110236,"duration":0.10199648697916675},{"name":"G3","midi":55,"time":1.6666660000000004,"velocity":0.7559055118110236,"duration":0.10199648697916675},{"name":"A3","midi":57,"time":1.7708326250000006,"velocity":0.7559055118110236,"duration":0.10199648697916675},{"name":"B3","midi":59,"time":1.8749992500000008,"velocity":0.7559055118110236,"duration":0.10199648697916675},{"name":"C#4","midi":61,"time":1.979165875000001,"velocity":0.7559055118110236,"duration":0.10199648697916652},{"name":"D4","midi":62,"time":2.083332500000001,"velocity":0.7559055118110236,"duration":2.495658723958334},{"name":"B3","midi":59,"time":2.7430544583333343,"velocity":0.7559055118110236,"duration":0.1714409036458333},{"name":"F#5","midi":78,"time":2.7430544583333343,"velocity":0.7559055118110236,"duration":0.1714409036458333},{"name":"E4","midi":64,"time":2.916665500000001,"velocity":0.7559055118110236,"duration":0.6575518203124999},{"name":"G5","midi":79,"time":2.916665500000001,"velocity":0.7559055118110236,"duration":0.056423588541666625},{"name":"F#5","midi":78,"time":2.975259226562501,"velocity":0.7559055118110236,"duration":0.056423588541666625},{"name":"G5","midi":79,"time":3.033852953125001,"velocity":0.7559055118110236,"duration":0.5403643671874998},{"name":"F#4","midi":66,"time":3.5763874583333344,"velocity":0.7559055118110236,"duration":0.1714409036458333},{"name":"A5","midi":81,"time":3.5763874583333344,"velocity":0.7559055118110236,"duration":0.1714409036458333},{"name":"G4","midi":67,"time":3.749998500000001,"velocity":0.7559055118110236,"duration":0.9353294869791666},{"name":"F#5","midi":78,"time":3.749998500000001,"velocity":0.7559055118110236,"duration":0.4144963619791664},{"name":"B4","midi":71,"time":3.749998500000001,"velocity":0.7559055118110236,"duration":0.8246524479166668},{"name":"E5","midi":76,"time":4.166665000000001,"velocity":0.7559055118110236,"duration":1.2282981197916696},{"name":"E4","midi":64,"time":4.687498125000001,"velocity":0.7559055118110236,"duration":0.10199648697916697},{"name":"F#4","midi":66,"time":4.791664750000002,"velocity":0.7559055118110236,"duration":0.10199648697916697},{"name":"G4","midi":67,"time":4.895831375000002,"velocity":0.7559055118110236,"duration":0.10199648697916697},{"name":"A4","midi":69,"time":4.999998000000002,"velocity":0.7559055118110236,"duration":0.10199648697916697},{"name":"B4","midi":71,"time":5.104164625000003,"velocity":0.7559055118110236,"duration":0.10199648697916697},{"name":"C#5","midi":73,"time":5.208331250000003,"velocity":0.7559055118110236,"duration":0.10199648697916697},{"name":"D5","midi":74,"time":5.312497875000004,"velocity":0.7559055118110236,"duration":0.10199648697916697},{"name":"E5","midi":76,"time":5.416664500000004,"velocity":0.7559055118110236,"duration":1.6276035156249993},{"name":"C#4","midi":61,"time":6.076386458333337,"velocity":0.7559055118110236,"duration":0.1714409036458333},{"name":"E4","midi":64,"time":6.076386458333337,"velocity":0.7559055118110236,"duration":0.1714409036458333},{"name":"A4","midi":69,"time":6.076386458333337,"velocity":0.7559055118110236,"duration":0.1714409036458333},{"name":"B3","midi":59,"time":6.249997500000004,"velocity":0.7559055118110236,"duration":0.6575518203124995},{"name":"D4","midi":62,"time":6.249997500000004,"velocity":0.7559055118110236,"duration":0.6575518203124995},{"name":"A4","midi":69,"time":6.249997500000004,"velocity":0.7559055118110236,"duration":0.07161455468749978},{"name":"G#4","midi":68,"time":6.323782192708337,"velocity":0.7559055118110236,"duration":0.07161455468749978},{"name":"A4","midi":69,"time":6.39756688541667,"velocity":0.7559055118110236,"duration":0.07161455468749978},{"name":"G#4","midi":68,"time":6.471351578125003,"velocity":0.7559055118110236,"duration":0.43619774218749985},{"name":"A3","midi":57,"time":6.909719458333337,"velocity":0.7559055118110236,"duration":0.1714409036458333},{"name":"C#4","midi":61,"time":6.909719458333337,"velocity":0.7559055118110236,"duration":0.1714409036458333},{"name":"A4","midi":69,"time":6.909719458333337,"velocity":0.7559055118110236,"duration":0.1714409036458333},{"name":"D4","midi":62,"time":7.083330500000003,"velocity":0.7559055118110236,"duration":2.324217820312499},{"name":"B3","midi":59,"time":7.083330500000003,"velocity":0.7559055118110236,"duration":2.324217820312499},{"name":"D5","midi":74,"time":7.083330500000003,"velocity":0.7559055118110236,"duration":1.1935759114583329},{"name":"G4","midi":67,"time":8.020830125000003,"velocity":0.7559055118110236,"duration":0.10199648697916608},{"name":"A4","midi":69,"time":8.124996750000003,"velocity":0.7559055118110236,"duration":0.10199648697916608},{"name":"B4","midi":71,"time":8.229163375000002,"velocity":0.7559055118110236,"duration":0.10199648697916786},{"name":"C5","midi":72,"time":8.333330000000004,"velocity":0.7559055118110236,"duration":0.10199648697916608},{"name":"D5","midi":74,"time":8.437496625000003,"velocity":0.7559055118110236,"duration":0.10199648697916608},{"name":"E5","midi":76,"time":8.541663250000003,"velocity":0.7559055118110236,"duration":0.10199648697916608},{"name":"F#5","midi":78,"time":8.645829875000002,"velocity":0.7559055118110236,"duration":0.10199648697916608},{"name":"G5","midi":79,"time":8.749996500000002,"velocity":0.7559055118110236,"duration":2.06163111979167},{"name":"E3","midi":52,"time":9.409718458333336,"velocity":0.7559055118110236,"duration":0.1714409036458342},{"name":"B4","midi":71,"time":9.409718458333336,"velocity":0.7559055118110236,"duration":0.1714409036458342},{"name":"F#3","midi":54,"time":9.583329500000003,"velocity":0.7559055118110236,"duration":0.6575518203125004},{"name":"E5","midi":76,"time":9.583329500000003,"velocity":0.7559055118110236,"duration":0.6575518203125004},{"name":"G3","midi":55,"time":10.243051458333337,"velocity":0.7559055118110236,"duration":0.1714409036458342},{"name":"D5","midi":74,"time":10.243051458333337,"velocity":0.7559055118110236,"duration":0.1714409036458342},{"name":"A3","midi":57,"time":10.416662500000005,"velocity":0.7559055118110236,"duration":2.1701380208333347},{"name":"C#5","midi":73,"time":10.416662500000005,"velocity":0.7559055118110236,"duration":0.6575518203125004},{"name":"B3","midi":59,"time":11.076384458333338,"velocity":0.7559055118110236,"duration":0.1714409036458342},{"name":"D5","midi":74,"time":11.076384458333338,"velocity":0.7559055118110236,"duration":0.1714409036458342},{"name":"G5","midi":79,"time":11.076384458333338,"velocity":0.7559055118110236,"duration":0.1714409036458342},{"name":"C#4","midi":61,"time":11.249995500000006,"velocity":0.7559055118110236,"duration":0.6575518203125004},{"name":"A5","midi":81,"time":11.249995500000006,"velocity":0.7559055118110236,"duration":0.6575518203125004},{"name":"E5","midi":76,"time":11.249995500000006,"velocity":0.7559055118110236,"duration":0.6575518203125004},{"name":"D4","midi":62,"time":11.90971745833334,"velocity":0.7559055118110236,"duration":0.1714409036458342},{"name":"F#5","midi":78,"time":11.90971745833334,"velocity":0.7559055118110236,"duration":0.1714409036458342},{"name":"B5","midi":83,"time":11.90971745833334,"velocity":0.7559055118110236,"duration":0.1714409036458342},{"name":"E4","midi":64,"time":12.083328500000007,"velocity":0.7559055118110236,"duration":0.6228296119791654},{"name":"D5","midi":74,"time":12.083328500000007,"velocity":0.7559055118110236,"duration":0.10199648697916608},{"name":"A4","midi":69,"time":12.083328500000007,"velocity":0.7559055118110236,"duration":0.8246524479166659},{"name":"C#5","midi":73,"time":12.187495125000007,"velocity":0.7559055118110236,"duration":0.10199648697916608},{"name":"D5","midi":74,"time":12.291661750000006,"velocity":0.7559055118110236,"duration":0.10199648697916608},{"name":"C#5","midi":73,"time":12.395828375000006,"velocity":0.7559055118110236,"duration":0.10199648697916608},{"name":"D5","midi":74,"time":12.499995000000006,"velocity":0.7559055118110236,"duration":0.10199648697916786},{"name":"C#5","midi":73,"time":12.604161625000007,"velocity":0.7559055118110236,"duration":0.10199648697916608},{"name":"E3","midi":52,"time":12.708328250000006,"velocity":0.7559055118110236,"duration":0.20616311197916737},{"name":"D5","midi":74,"time":12.708328250000006,"velocity":0.7559055118110236,"duration":0.10199648697916608},{"name":"E5","midi":76,"time":12.812494875000006,"velocity":0.7559055118110236,"duration":0.10199648697916786},{"name":"C#3","midi":49,"time":12.916661500000007,"velocity":0.7559055118110236,"duration":0.622829611979169},{"name":"A4","midi":69,"time":12.916661500000007,"velocity":0.7559055118110236,"duration":0.8246524479166695},{"name":"E5","midi":76,"time":13.124994750000008,"velocity":0.7559055118110236,"duration":0.6076386458333349},{"name":"A5","midi":81,"time":13.333328000000009,"velocity":0.7559055118110236,"duration":0.20616311197916737},{"name":"A2","midi":45,"time":13.54166125000001,"velocity":0.7559055118110236,"duration":0.20616311197916737},{"name":"G5","midi":79,"time":13.54166125000001,"velocity":0.7559055118110236,"duration":0.20616311197916737},{"name":"D3","midi":50,"time":13.74999450000001,"velocity":0.7559055118110236,"duration":0.9548607291666666},{"name":"G5","midi":79,"time":13.74999450000001,"velocity":0.7559055118110236,"duration":0.4144963619791664},{"name":"D5","midi":74,"time":13.74999450000001,"velocity":0.7559055118110236,"duration":0.8246524479166659},{"name":"A4","midi":69,"time":13.74999450000001,"velocity":0.7559055118110236,"duration":1.664495861979164},{"name":"F#5","midi":78,"time":14.16666100000001,"velocity":0.7559055118110236,"duration":0.3797741536458332},{"name":"E5","midi":76,"time":14.58332750000001,"velocity":0.7559055118110236,"duration":0.4144963619791664},{"name":"C#3","midi":49,"time":14.79166075000001,"velocity":0.7559055118110236,"duration":0.10199648697916608},{"name":"B2","midi":47,"time":14.89582737500001,"velocity":0.7559055118110236,"duration":0.10199648697916608},{"name":"A2","midi":45,"time":14.99999400000001,"velocity":0.7559055118110236,"duration":0.10199648697916608},{"name":"D5","midi":74,"time":14.99999400000001,"velocity":0.7559055118110236,"duration":0.37977415364583145},{"name":"G2","midi":43,"time":15.10416062500001,"velocity":0.7559055118110236,"duration":0.10199648697916608},{"name":"F#2","midi":42,"time":15.208327250000009,"velocity":0.7559055118110236,"duration":0.10199648697916608},{"name":"E2","midi":40,"time":15.312493875000008,"velocity":0.7559055118110236,"duration":0.10199648697916608},{"name":"D2","midi":38,"time":15.416660500000008,"velocity":0.7559055118110236,"duration":0.6228296119791654},{"name":"F#5","midi":78,"time":15.416660500000008,"velocity":0.7559055118110236,"duration":1.3888883333333322},{"name":"D5","midi":74,"time":15.416660500000008,"velocity":0.7559055118110236,"duration":0.06727427864583291},{"name":"A4","midi":69,"time":15.416660500000008,"velocity":0.7559055118110236,"duration":1.3888883333333322},{"name":"C#5","midi":73,"time":15.486104916666674,"velocity":0.7559055118110236,"duration":0.06727427864583291},{"name":"D5","midi":74,"time":15.55554933333334,"velocity":0.7559055118110236,"duration":1.3519959869791673},{"name":"D3","midi":50,"time":16.041660250000007,"velocity":0.7559055118110236,"duration":0.2061631119791656},{"name":"E3","midi":52,"time":16.249993500000006,"velocity":0.7559055118110236,"duration":0.6575518203125021},{"name":"F#3","midi":54,"time":16.90971545833334,"velocity":0.7559055118110236,"duration":0.1714409036458342},{"name":"A4","midi":69,"time":16.90971545833334,"velocity":0.7559055118110236,"duration":0.1714409036458342},{"name":"F#5","midi":78,"time":16.90971545833334,"velocity":0.7559055118110236,"duration":0.1714409036458342},{"name":"G2","midi":43,"time":17.08332650000001,"velocity":0.7559055118110236,"duration":0.6575518203124986},{"name":"F#5","midi":78,"time":17.08332650000001,"velocity":0.7559055118110236,"duration":0.9353294869791675},{"name":"B4","midi":71,"time":17.08332650000001,"velocity":0.7559055118110236,"duration":0.9353294869791675},{"name":"D4","midi":62,"time":17.74304845833334,"velocity":0.7559055118110236,"duration":0.1714409036458342},{"name":"E4","midi":64,"time":17.91665950000001,"velocity":0.7559055118110236,"duration":0.6228296119791707},{"name":"B5","midi":83,"time":18.009975434895843,"velocity":0.7559055118110236,"duration":0.08897565885416725},{"name":"A5","midi":81,"time":18.103291369791677,"velocity":0.7559055118110236,"duration":0.09114579687500068},{"name":"G5","midi":79,"time":18.19660730468751,"velocity":0.7559055118110236,"duration":0.09114579687500068},{"name":"F#5","midi":78,"time":18.289923239583345,"velocity":0.7559055118110236,"duration":0.08897565885416725},{"name":"E5","midi":76,"time":18.38323917447918,"velocity":0.7559055118110236,"duration":0.09114579687500068},{"name":"D#5","midi":75,"time":18.47438497135418,"velocity":0.7559055118110236,"duration":0.09114579687500068},{"name":"F#4","midi":66,"time":18.567700906250014,"velocity":0.7559055118110236,"duration":0.1844617317708348},{"name":"C#5","midi":73,"time":18.567700906250014,"velocity":0.7559055118110236,"duration":0.09114579687500068},{"name":"B4","midi":71,"time":18.66318697916668,"velocity":0.7559055118110236,"duration":1.456162611979174},{"name":"G4","midi":67,"time":18.749992500000015,"velocity":0.7559055118110236,"duration":0.6228296119791672},{"name":"E5","midi":76,"time":18.75216263802085,"velocity":0.7559055118110236,"duration":1.456162611979174},{"name":"G2","midi":43,"time":19.374992250000016,"velocity":0.7559055118110236,"duration":0.2061631119791656},{"name":"G2","midi":43,"time":19.583325500000015,"velocity":0.7559055118110236,"duration":0.10199648697916786},{"name":"F#2","midi":42,"time":19.687492125000016,"velocity":0.7559055118110236,"duration":0.10199648697916786},{"name":"G2","midi":43,"time":19.791658750000018,"velocity":0.7559055118110236,"duration":0.10199648697916786},{"name":"F#2","midi":42,"time":19.89582537500002,"velocity":0.7559055118110236,"duration":0.10199648697916786},{"name":"G2","midi":43,"time":19.99999200000002,"velocity":0.7559055118110236,"duration":0.10199648697916786},{"name":"F#2","midi":42,"time":20.10415862500002,"velocity":0.7559055118110236,"duration":0.10199648697916786},{"name":"E2","midi":40,"time":20.208325250000023,"velocity":0.7559055118110236,"duration":0.2061631119791656},{"name":"E5","midi":76,"time":20.208325250000023,"velocity":0.7559055118110236,"duration":0.2061631119791656},{"name":"B2","midi":47,"time":20.416658500000022,"velocity":0.7559055118110236,"duration":1.664495861979173},{"name":"E5","midi":76,"time":20.416658500000022,"velocity":0.7559055118110236,"duration":0.5186629869791659},{"name":"D5","midi":74,"time":20.939661763020855,"velocity":0.7559055118110236,"duration":0.10850690104166816},{"name":"F#3","midi":54,"time":21.041658250000022,"velocity":0.7559055118110236,"duration":0.20616311197916914},{"name":"C#5","midi":73,"time":21.04599852604169,"velocity":0.7559055118110236,"duration":0.10850690104166816},{"name":"D5","midi":74,"time":21.152335289062524,"velocity":0.7559055118110236,"duration":0.10850690104166816},{"name":"G#3","midi":56,"time":21.249991500000025,"velocity":0.7559055118110236,"duration":0.6575518203125021},{"name":"E5","midi":76,"time":21.25867205208336,"velocity":0.7559055118110236,"duration":0.08680552083333382},{"name":"D5","midi":74,"time":21.33028660677086,"velocity":0.7559055118110236,"duration":0.08680552083333382},{"name":"E5","midi":76,"time":21.40190116145836,"velocity":0.7559055118110236,"duration":0.08680552083333382},{"name":"D5","midi":74,"time":21.473515716145858,"velocity":0.7559055118110236,"duration":0.08680552083333382},{"name":"E5","midi":76,"time":21.545130270833358,"velocity":0.7559055118110236,"duration":0.08680552083333382},{"name":"D5","midi":74,"time":21.616744825520858,"velocity":0.7559055118110236,"duration":0.08680552083333382},{"name":"E5","midi":76,"time":21.688359380208357,"velocity":0.7559055118110236,"duration":0.08680552083333382},{"name":"D5","midi":74,"time":21.759973934895857,"velocity":0.7559055118110236,"duration":0.12152772916666876},{"name":"A#3","midi":58,"time":21.90971345833336,"velocity":0.7559055118110236,"duration":0.1714409036458342},{"name":"C#5","midi":73,"time":21.90971345833336,"velocity":0.7559055118110236,"duration":0.1714409036458342},{"name":"B3","midi":59,"time":22.083324500000028,"velocity":0.7559055118110236,"duration":0.6575518203124986},{"name":"B4","midi":71,"time":22.083324500000028,"velocity":0.7559055118110236,"duration":2.126735260416666},{"name":"D5","midi":74,"time":22.083324500000028,"velocity":0.7559055118110236,"duration":1.888020078124999},{"name":"B2","midi":47,"time":22.74304645833336,"velocity":0.7559055118110236,"duration":0.1714409036458342},{"name":"C#3","midi":49,"time":22.916657500000028,"velocity":0.7559055118110236,"duration":0.6575518203124986},{"name":"D3","midi":50,"time":23.57637945833336,"velocity":0.7559055118110236,"duration":0.1714409036458342},{"name":"G#2","midi":44,"time":23.749990500000028,"velocity":0.7559055118110236,"duration":0.5186629869791659},{"name":"E3","midi":52,"time":24.270823625000027,"velocity":0.7559055118110236,"duration":0.10199648697916786},{"name":"D5","midi":74,"time":24.270823625000027,"velocity":0.7559055118110236,"duration":0.10199648697916786},{"name":"F#3","midi":54,"time":24.374990250000028,"velocity":0.7559055118110236,"duration":0.10199648697916786},{"name":"C#5","midi":73,"time":24.374990250000028,"velocity":0.7559055118110236,"duration":0.10199648697916786},{"name":"G#3","midi":56,"time":24.47915687500003,"velocity":0.7559055118110236,"duration":0.10199648697916786},{"name":"B4","midi":71,"time":24.47915687500003,"velocity":0.7559055118110236,"duration":0.10199648697916786},{"name":"A3","midi":57,"time":24.58332350000003,"velocity":0.7559055118110236,"duration":0.6228296119791636},{"name":"C#5","midi":73,"time":24.58332350000003,"velocity":0.7559055118110236,"duration":0.06510414062499947},{"name":"B4","midi":71,"time":24.63540681250003,"velocity":0.7559055118110236,"duration":0.06510414062499947},{"name":"C#5","midi":73,"time":24.68749012500003,"velocity":0.7559055118110236,"duration":0.5186629869791659},{"name":"B3","midi":59,"time":25.208323250000028,"velocity":0.7559055118110236,"duration":0.2061631119791656},{"name":"D5","midi":74,"time":25.208323250000028,"velocity":0.7559055118110236,"duration":0.2061631119791656},{"name":"C#4","midi":61,"time":25.416656500000027,"velocity":0.7559055118110236,"duration":0.6228296119791672},{"name":"E5","midi":76,"time":25.416656500000027,"velocity":0.7559055118110236,"duration":0.6228296119791672},{"name":"D4","midi":62,"time":26.041656250000027,"velocity":0.7559055118110236,"duration":0.2061631119791656},{"name":"F#5","midi":78,"time":26.041656250000027,"velocity":0.7559055118110236,"duration":0.2061631119791656},{"name":"D5","midi":74,"time":26.041656250000027,"velocity":0.7559055118110236,"duration":0.2061631119791656},{"name":"A4","midi":69,"time":26.041656250000027,"velocity":0.7559055118110236,"duration":0.2061631119791656},{"name":"B3","midi":59,"time":26.249989500000027,"velocity":0.7559055118110236,"duration":0.6228296119791672},{"name":"G#5","midi":80,"time":26.249989500000027,"velocity":0.7559055118110236,"duration":0.6228296119791672},{"name":"D5","midi":74,"time":26.249989500000027,"velocity":0.7559055118110236,"duration":0.6228296119791672},{"name":"B4","midi":71,"time":26.249989500000027,"velocity":0.7559055118110236,"duration":0.6228296119791672},{"name":"A3","midi":57,"time":26.874989250000027,"velocity":0.7559055118110236,"duration":0.2061631119791656},{"name":"A5","midi":81,"time":26.874989250000027,"velocity":0.7559055118110236,"duration":0.2061631119791656},{"name":"E5","midi":76,"time":26.874989250000027,"velocity":0.7559055118110236,"duration":0.2061631119791656},{"name":"C#5","midi":73,"time":26.874989250000027,"velocity":0.7559055118110236,"duration":0.2061631119791656},{"name":"E4","midi":64,"time":27.083322500000026,"velocity":0.7559055118110236,"duration":0.6228296119791636},{"name":"G#5","midi":80,"time":27.083322500000026,"velocity":0.7559055118110236,"duration":0.193142283854165},{"name":"E5","midi":76,"time":27.083322500000026,"velocity":0.7559055118110236,"duration":0.8246524479166659},{"name":"B4","midi":71,"time":27.083322500000026,"velocity":0.7559055118110236,"duration":0.8246524479166659},{"name":"F#5","midi":78,"time":27.278634921875025,"velocity":0.7559055118110236,"duration":0.193142283854165},{"name":"G#5","midi":80,"time":27.473947343750023,"velocity":0.7559055118110236,"duration":0.6488712682291684},{"name":"D4","midi":62,"time":27.708322250000023,"velocity":0.7559055118110236,"duration":0.10199648697916786},{"name":"C#4","midi":61,"time":27.812488875000025,"velocity":0.7559055118110236,"duration":0.10199648697916786},{"name":"B3","midi":59,"time":27.916655500000026,"velocity":0.7559055118110236,"duration":0.6228296119791707},{"name":"F#5","midi":78,"time":28.124988750000025,"velocity":0.7559055118110236,"duration":0.10199648697916786},{"name":"G#5","midi":80,"time":28.229155375000026,"velocity":0.7559055118110236,"duration":0.10199648697916786},{"name":"A5","midi":81,"time":28.333322000000027,"velocity":0.7559055118110236,"duration":0.10199648697916786},{"name":"G#5","midi":80,"time":28.43748862500003,"velocity":0.7559055118110236,"duration":0.10199648697916786},{"name":"D4","midi":62,"time":28.54165525000003,"velocity":0.7559055118110236,"duration":0.20616311197916914},{"name":"F#5","midi":78,"time":28.54165525000003,"velocity":0.7559055118110236,"duration":0.10199648697916786},{"name":"E5","midi":76,"time":28.64582187500003,"velocity":0.7559055118110236,"duration":0.10199648697916786},{"name":"G#3","midi":56,"time":28.749988500000033,"velocity":0.7559055118110236,"duration":0.6228296119791672},{"name":"B5","midi":83,"time":28.749988500000033,"velocity":0.7559055118110236,"duration":2.2786449218750064},{"name":"B3","midi":59,"time":29.374988250000033,"velocity":0.7559055118110236,"duration":0.2061631119791656},{"name":"G#5","midi":80,"time":29.374988250000033,"velocity":0.7559055118110236,"duration":0.2061631119791656},{"name":"E3","midi":52,"time":29.583321500000032,"velocity":0.7559055118110236,"duration":0.6228296119791672},{"name":"D5","midi":74,"time":29.583321500000032,"velocity":0.7559055118110236,"duration":0.9353294869791675},{"name":"G#3","midi":56,"time":30.208321250000033,"velocity":0.7559055118110236,"duration":0.2061631119791656},{"name":"F#2","midi":42,"time":30.416654500000032,"velocity":0.7559055118110236,"duration":1.2999126744791702},{"name":"B4","midi":71,"time":30.520821125000033,"velocity":0.7559055118110236,"duration":0.10199648697916786},{"name":"C#5","midi":73,"time":30.624987750000034,"velocity":0.7559055118110236,"duration":0.10199648697916786},{"name":"D5","midi":74,"time":30.729154375000036,"velocity":0.7559055118110236,"duration":0.10199648697916786},{"name":"C#5","midi":73,"time":30.833321000000037,"velocity":0.7559055118110236,"duration":0.10199648697916786},{"name":"B4","midi":71,"time":30.93748762500004,"velocity":0.7559055118110236,"duration":0.10199648697916786},{"name":"A4","midi":69,"time":31.04165425000004,"velocity":0.7559055118110236,"duration":0.10199648697916786},{"name":"G#4","midi":68,"time":31.14582087500004,"velocity":0.7559055118110236,"duration":0.10199648697916786},{"name":"A4","midi":69,"time":31.249987500000042,"velocity":0.7559055118110236,"duration":0.11501731510416491},{"name":"B4","midi":71,"time":31.36717495312504,"velocity":0.7559055118110236,"duration":0.11501731510416491},{"name":"C#5","midi":73,"time":31.48436240625004,"velocity":0.7559055118110236,"duration":0.11501731510416491},{"name":"D5","midi":74,"time":31.601549859375037,"velocity":0.7559055118110236,"duration":0.11501731510416491},{"name":"F#3","midi":54,"time":31.718737312500036,"velocity":0.7559055118110236,"duration":0.11501731510416491},{"name":"E5","midi":76,"time":31.718737312500036,"velocity":0.7559055118110236,"duration":0.11501731510416491},{"name":"E3","midi":52,"time":31.835924765625034,"velocity":0.7559055118110236,"duration":0.11501731510416491},{"name":"F#5","midi":78,"time":31.835924765625034,"velocity":0.7559055118110236,"duration":0.11501731510416491},{"name":"D3","midi":50,"time":31.953112218750032,"velocity":0.7559055118110236,"duration":0.1280381432291655},{"name":"G#5","midi":80,"time":31.953112218750032,"velocity":0.7559055118110236,"duration":0.1280381432291655},{"name":"C#3","midi":49,"time":32.08332050000003,"velocity":0.7559055118110236,"duration":0.6228296119791707},{"name":"A5","midi":81,"time":32.08332050000003,"velocity":0.7559055118110236,"duration":0.99826348958333},{"name":"D5","midi":74,"time":32.60415362500003,"velocity":0.7559055118110236,"duration":0.10199648697916786},{"name":"E3","midi":52,"time":32.70832025000003,"velocity":0.7559055118110236,"duration":0.2061631119791656},{"name":"C#5","midi":73,"time":32.70832025000003,"velocity":0.7559055118110236,"duration":0.10199648697916786},{"name":"B4","midi":71,"time":32.812486875000026,"velocity":0.7559055118110236,"duration":0.10199648697916786},{"name":"A2","midi":45,"time":32.916653500000024,"velocity":0.7559055118110236,"duration":0.6228296119791707},{"name":"C#5","midi":73,"time":32.916653500000024,"velocity":0.7559055118110236,"duration":1.0416662499999987},{"name":"E5","midi":76,"time":33.124986750000026,"velocity":0.7559055118110236,"duration":0.8246524479166624},{"name":"G5","midi":79,"time":33.33332000000003,"velocity":0.7559055118110236,"duration":1.2326383958333125},{"name":"C#3","midi":49,"time":33.541653250000024,"velocity":0.7559055118110236,"duration":0.2061631119791656},{"name":"D2","midi":38,"time":33.74998650000002,"velocity":0.7559055118110236,"duration":0.5186629869791659},{"name":"A2","midi":45,"time":34.270819625000016,"velocity":0.7559055118110236,"duration":0.10199648697916786},{"name":"C#5","midi":73,"time":34.270819625000016,"velocity":0.7559055118110236,"duration":0.10199648697916786},{"name":"B2","midi":47,"time":34.37498625000001,"velocity":0.7559055118110236,"duration":0.10199648697916786},{"name":"D5","midi":74,"time":34.37498625000001,"velocity":0.7559055118110236,"duration":0.10199648697916786},{"name":"C#3","midi":49,"time":34.47915287500001,"velocity":0.7559055118110236,"duration":0.10199648697916075},{"name":"E5","midi":76,"time":34.47915287500001,"velocity":0.7559055118110236,"duration":0.10199648697916075},{"name":"D3","midi":50,"time":34.5833195,"velocity":0.7559055118110236,"duration":1.4908848203124805},{"name":"F#5","midi":78,"time":34.5833195,"velocity":0.7559055118110236,"duration":0.10199648697916786},{"name":"G5","midi":79,"time":34.687486125,"velocity":0.7559055118110236,"duration":0.10199648697916786},{"name":"F#5","midi":78,"time":34.79165275,"velocity":0.7559055118110236,"duration":0.10199648697916786},{"name":"E5","midi":76,"time":34.895819374999995,"velocity":0.7559055118110236,"duration":0.10199648697916786},{"name":"D5","midi":74,"time":34.99998599999999,"velocity":0.7559055118110236,"duration":0.10199648697916786},{"name":"C#5","midi":73,"time":35.10415262499999,"velocity":0.7559055118110236,"duration":0.10199648697916786},{"name":"B4","midi":71,"time":35.20831924999999,"velocity":0.7559055118110236,"duration":0.10199648697916786},{"name":"A4","midi":69,"time":35.312485874999986,"velocity":0.7559055118110236,"duration":0.10199648697916786},{"name":"G#4","midi":68,"time":35.416652499999984,"velocity":0.7559055118110236,"duration":0.6575518203124986},{"name":"D3","midi":50,"time":36.07637445833331,"velocity":0.7559055118110236,"duration":0.17144090364583064},{"name":"B4","midi":71,"time":36.07637445833331,"velocity":0.7559055118110236,"duration":0.17144090364583064},{"name":"C#3","midi":49,"time":36.24998549999997,"velocity":0.7559055118110236,"duration":0.6575518203124986},{"name":"E5","midi":76,"time":36.24998549999997,"velocity":0.7559055118110236,"duration":1.345485572916644},{"name":"B2","midi":47,"time":36.9097074583333,"velocity":0.7559055118110236,"duration":0.17144090364583064},{"name":"G#4","midi":68,"time":36.9097074583333,"velocity":0.7559055118110236,"duration":0.17144090364583064},{"name":"C#3","midi":49,"time":37.08331849999996,"velocity":0.7559055118110236,"duration":0.2061631119791656},{"name":"A4","midi":69,"time":37.08331849999996,"velocity":0.7559055118110236,"duration":0.5186629869791517},{"name":"E3","midi":52,"time":37.29165174999996,"velocity":0.7559055118110236,"duration":0.2061631119791656},{"name":"D3","midi":50,"time":37.49998499999995,"velocity":0.7559055118110236,"duration":0.2061631119791585},{"name":"F#5","midi":78,"time":37.60415162499994,"velocity":0.7559055118110236,"duration":0.10199648697916786},{"name":"C#3","midi":49,"time":37.70831824999994,"velocity":0.7559055118110236,"duration":0.2061631119791656},{"name":"G#5","midi":80,"time":37.70831824999994,"velocity":0.7559055118110236,"duration":0.10199648697916786},{"name":"A5","midi":81,"time":37.81248487499994,"velocity":0.7559055118110236,"duration":0.10199648697916786},{"name":"B2","midi":47,"time":37.91665149999994,"velocity":0.7559055118110236,"duration":0.2061631119791585},{"name":"A5","midi":81,"time":37.91665149999994,"velocity":0.7559055118110236,"duration":0.08897565885416725},{"name":"G#5","midi":80,"time":38.007797296874934,"velocity":0.7559055118110236,"duration":0.08897565885416725},{"name":"A5","midi":81,"time":38.09894309374993,"velocity":0.7559055118110236,"duration":0.08897565885416014},{"name":"C#3","midi":49,"time":38.124984749999925,"velocity":0.7559055118110236,"duration":0.2061631119791585},{"name":"G#5","midi":80,"time":38.19008889062492,"velocity":0.7559055118110236,"duration":0.08897565885416725},{"name":"A5","midi":81,"time":38.28123468749992,"velocity":0.7559055118110236,"duration":0.08897565885416014},{"name":"A2","midi":45,"time":38.33331799999991,"velocity":0.7559055118110236,"duration":0.41449636197915396},{"name":"G#5","midi":80,"time":38.37238048437491,"velocity":0.7559055118110236,"duration":0.08897565885416725},{"name":"F#5","midi":78,"time":38.463526281249905,"velocity":0.7559055118110236,"duration":0.08897565885416725},{"name":"G#5","midi":80,"time":38.5546720781249,"velocity":0.7559055118110236,"duration":0.08897565885416725},{"name":"A5","midi":81,"time":38.6458178749999,"velocity":0.7559055118110236,"duration":0.10199648697916786},{"name":"E3","midi":52,"time":38.7499844999999,"velocity":0.7559055118110236,"duration":0.8311628619791307},{"name":"G#4","midi":68,"time":38.7499844999999,"velocity":0.7559055118110236,"duration":1.2586800520832924},{"name":"C#5","midi":73,"time":38.7499844999999,"velocity":0.7559055118110236,"duration":0.2061631119791656},{"name":"B4","midi":71,"time":38.95831774999989,"velocity":0.7559055118110236,"duration":0.06727427864583291},{"name":"C#5","midi":73,"time":39.027762166666555,"velocity":0.7559055118110236,"duration":0.06727427864583291},{"name":"B4","midi":71,"time":39.09720658333322,"velocity":0.7559055118110236,"duration":0.06727427864583291},{"name":"C#5","midi":73,"time":39.16665099999988,"velocity":0.7559055118110236,"duration":0.06727427864583291},{"name":"B4","midi":71,"time":39.236095416666544,"velocity":0.7559055118110236,"duration":0.06727427864583291},{"name":"C#5","midi":73,"time":39.305539833333206,"velocity":0.7559055118110236,"duration":0.06727427864583291},{"name":"B4","midi":71,"time":39.37498424999987,"velocity":0.7559055118110236,"duration":0.06727427864583291},{"name":"C#5","midi":73,"time":39.44442866666653,"velocity":0.7559055118110236,"duration":0.06727427864583291},{"name":"B4","midi":71,"time":39.513873083333195,"velocity":0.7559055118110236,"duration":0.48394077864583096},{"name":"E2","midi":40,"time":39.58331749999986,"velocity":0.7559055118110236,"duration":0.8311628619791662},{"name":"A4","midi":69,"time":39.999983999999856,"velocity":0.7559055118110236,"duration":0.41449636197916817},{"name":"A2","midi":45,"time":40.416650499999854,"velocity":0.7559055118110236,"duration":1.24782936197915},{"name":"A4","midi":69,"time":40.416650499999854,"velocity":0.7559055118110236,"duration":0.6228296119791636},{"name":"C#5","midi":73,"time":41.04165024999985,"velocity":0.7559055118110236,"duration":0.06727427864583291},{"name":"B4","midi":71,"time":41.11109466666651,"velocity":0.7559055118110236,"duration":0.06727427864583291},{"name":"A4","midi":69,"time":41.18053908333317,"velocity":0.7559055118110236,"duration":0.06727427864583291},{"name":"G5","midi":79,"time":41.249983499999836,"velocity":0.7559055118110236,"duration":0.6922740286458193},{"name":"B2","midi":47,"time":41.666649999999834,"velocity":0.7559055118110236,"duration":0.06727427864583291},{"name":"C#3","midi":49,"time":41.736094416666496,"velocity":0.7559055118110236,"duration":0.06727427864583291},{"name":"D3","midi":50,"time":41.80553883333316,"velocity":0.7559055118110236,"duration":0.06727427864583291},{"name":"E3","midi":52,"time":41.87498324999982,"velocity":0.7559055118110236,"duration":0.06727427864583291},{"name":"F#3","midi":54,"time":41.944427666666485,"velocity":0.7559055118110236,"duration":0.06727427864583291},{"name":"E5","midi":76,"time":41.944427666666485,"velocity":0.7559055118110236,"duration":0.1367186953124957},{"name":"G3","midi":55,"time":42.01387208333315,"velocity":0.7559055118110236,"duration":0.06727427864583291},{"name":"A3","midi":57,"time":42.08331649999981,"velocity":0.7559055118110236,"duration":1.31727377864582},{"name":"F#5","midi":78,"time":42.08331649999981,"velocity":0.7559055118110236,"duration":2.170138020833299},{"name":"E5","midi":76,"time":42.70831624999981,"velocity":0.7559055118110236,"duration":0.06727427864583291},{"name":"D5","midi":74,"time":42.777760666666474,"velocity":0.7559055118110236,"duration":0.06727427864583291},{"name":"C#5","midi":73,"time":42.84720508333314,"velocity":0.7559055118110236,"duration":0.06727427864583291},{"name":"D5","midi":74,"time":42.9166494999998,"velocity":0.7559055118110236,"duration":1.4561626119791384},{"name":"B3","midi":59,"time":43.40276041666646,"velocity":0.7559055118110236,"duration":0.06727427864583291},{"name":"C#4","midi":61,"time":43.47220483333312,"velocity":0.7559055118110236,"duration":0.06727427864583291},{"name":"D4","midi":62,"time":43.541649249999786,"velocity":0.7559055118110236,"duration":0.06727427864583291},{"name":"E4","midi":64,"time":43.61109366666645,"velocity":0.7559055118110236,"duration":0.06727427864583291},{"name":"F#4","midi":66,"time":43.68053808333311,"velocity":0.7559055118110236,"duration":0.06727427864583291},{"name":"G4","midi":67,"time":43.749982499999774,"velocity":0.7559055118110236,"duration":2.1506067786458303},{"name":"F#5","midi":78,"time":44.348940593749774,"velocity":0.7559055118110236,"duration":0.08680552083333026},{"name":"E5","midi":76,"time":44.42706556249977,"velocity":0.7559055118110236,"duration":0.08680552083333737},{"name":"D5","midi":74,"time":44.505190531249774,"velocity":0.7559055118110236,"duration":0.07378469270833676},{"name":"E5","midi":76,"time":44.58331549999978,"velocity":0.7559055118110236,"duration":2.1701380208333063},{"name":"D5","midi":74,"time":45.18227359374978,"velocity":0.7559055118110236,"duration":0.07812496874999653},{"name":"C#5","midi":73,"time":45.26039856249977,"velocity":0.7559055118110236,"duration":0.07812496874999653},{"name":"B4","midi":71,"time":45.33852353124977,"velocity":0.7559055118110236,"duration":0.07378469270833676},{"name":"C#5","midi":73,"time":45.41664849999977,"velocity":0.7559055118110236,"duration":1.4561626119791384},{"name":"A3","midi":57,"time":45.902759416666434,"velocity":0.7559055118110236,"duration":0.06727427864583291},{"name":"B3","midi":59,"time":45.9722038333331,"velocity":0.7559055118110236,"duration":0.06727427864583291},{"name":"C#4","midi":61,"time":46.04164824999976,"velocity":0.7559055118110236,"duration":0.06727427864583291},{"name":"D4","midi":62,"time":46.11109266666642,"velocity":0.7559055118110236,"duration":0.06727427864583291},{"name":"E4","midi":64,"time":46.180537083333085,"velocity":0.7559055118110236,"duration":0.06727427864583291},{"name":"F#4","midi":66,"time":46.24998149999975,"velocity":0.7559055118110236,"duration":2.2894956119791416},{"name":"E5","midi":76,"time":46.84893959374975,"velocity":0.7559055118110236,"duration":0.07595483072916664},{"name":"D5","midi":74,"time":46.927064562499744,"velocity":0.7559055118110236,"duration":0.07595483072916664},{"name":"C#5","midi":73,"time":47.00518953124974,"velocity":0.7559055118110236,"duration":0.07595483072916664},{"name":"D5","midi":74,"time":47.08331449999974,"velocity":0.7559055118110236,"duration":2.1701380208333134},{"name":"C#5","midi":73,"time":47.68227259374974,"velocity":0.7559055118110236,"duration":0.07595483072916664},{"name":"B4","midi":71,"time":47.76039756249973,"velocity":0.7559055118110236,"duration":0.07595483072916664},{"name":"A4","midi":69,"time":47.83852253124973,"velocity":0.7559055118110236,"duration":0.07595483072916664},{"name":"B4","midi":71,"time":47.916647499999726,"velocity":0.7559055118110236,"duration":1.4561626119791526},{"name":"A4","midi":69,"time":48.515605593749726,"velocity":0.7559055118110236,"duration":0.06727427864583291},{"name":"G#4","midi":68,"time":48.59373056249972,"velocity":0.7559055118110236,"duration":0.06727427864583291},{"name":"F#4","midi":66,"time":48.67185553124972,"velocity":0.7559055118110236,"duration":0.06727427864583291},{"name":"G#4","midi":68,"time":48.749980499999715,"velocity":0.7559055118110236,"duration":1.1783849453124873},{"name":"F5","midi":77,"time":49.335917765624714,"velocity":0.7559055118110236,"duration":0.07812496874999653},{"name":"E5","midi":76,"time":49.41838301041638,"velocity":0.7559055118110236,"duration":0.07812496874999653},{"name":"D5","midi":74,"time":49.50084825520804,"velocity":0.7559055118110236,"duration":0.07812496874999653},{"name":"B5","midi":83,"time":49.583313499999704,"velocity":0.7559055118110236,"duration":0.6228296119791494},{"name":"A3","midi":57,"time":49.93053558333303,"velocity":0.7559055118110236,"duration":0.06727427864583291},{"name":"B3","midi":59,"time":49.999979999999695,"velocity":0.7559055118110236,"duration":0.06727427864583291},{"name":"C4","midi":60,"time":50.06942441666636,"velocity":0.7559055118110236,"duration":0.06727427864583291},{"name":"D4","midi":62,"time":50.13886883333302,"velocity":0.7559055118110236,"duration":0.06727427864583291},{"name":"E4","midi":64,"time":50.208313249999684,"velocity":0.7559055118110236,"duration":0.06727427864583291},{"name":"G#5","midi":80,"time":50.208313249999684,"velocity":0.7559055118110236,"duration":0.06727427864583291},{"name":"F#4","midi":66,"time":50.277757666666346,"velocity":0.7559055118110236,"duration":0.06727427864583291},{"name":"F#5","midi":78,"time":50.277757666666346,"velocity":0.7559055118110236,"duration":0.06727427864583291},{"name":"G#4","midi":68,"time":50.34720208333301,"velocity":0.7559055118110236,"duration":0.06727427864583291},{"name":"E5","midi":76,"time":50.34720208333301,"velocity":0.7559055118110236,"duration":0.06727427864583291},{"name":"A4","midi":69,"time":50.41664649999967,"velocity":0.7559055118110236,"duration":0.5186629869791659},{"name":"C6","midi":84,"time":50.41664649999967,"velocity":0.7559055118110236,"duration":2.2894956119791345},{"name":"G4","midi":67,"time":50.93747962499967,"velocity":0.7559055118110236,"duration":0.10199648697916786},{"name":"F4","midi":65,"time":51.041646249999665,"velocity":0.7559055118110236,"duration":0.10199648697916786},{"name":"E4","midi":64,"time":51.14581287499966,"velocity":0.7559055118110236,"duration":0.10199648697916786},{"name":"F4","midi":65,"time":51.24997949999966,"velocity":0.7559055118110236,"duration":0.2061631119791656},{"name":"G4","midi":67,"time":51.458312749999656,"velocity":0.7559055118110236,"duration":0.2061631119791656},{"name":"A4","midi":69,"time":51.66664599999965,"velocity":0.7559055118110236,"duration":0.2061631119791656},{"name":"F4","midi":65,"time":51.87497924999965,"velocity":0.7559055118110236,"duration":0.2061631119791656},{"name":"E4","midi":64,"time":52.08331249999964,"velocity":0.7559055118110236,"duration":0.41449636197916817},{"name":"D#4","midi":63,"time":52.49997899999964,"velocity":0.7559055118110236,"duration":1.6818569661458014},{"name":"B5","midi":83,"time":52.708312249999636,"velocity":0.7559055118110236,"duration":0.06727427864583291},{"name":"A5","midi":81,"time":52.7777566666663,"velocity":0.7559055118110236,"duration":0.06727427864583291},{"name":"G#5","midi":80,"time":52.84720108333296,"velocity":0.7559055118110236,"duration":0.06727427864583291},{"name":"A5","midi":81,"time":52.916645499999625,"velocity":0.7559055118110236,"duration":1.4648431640624793},{"name":"E4","midi":64,"time":53.40275641666629,"velocity":0.7559055118110236,"duration":0.06727427864583291},{"name":"F#4","midi":66,"time":53.472200833332955,"velocity":0.7559055118110236,"duration":0.06727427864583291},{"name":"G#4","midi":68,"time":53.54164524999962,"velocity":0.7559055118110236,"duration":0.06727427864583291},{"name":"A4","midi":69,"time":53.61108966666628,"velocity":0.7559055118110236,"duration":0.06727427864583291},{"name":"B4","midi":71,"time":53.680534083332944,"velocity":0.7559055118110236,"duration":0.06727427864583291},{"name":"C5","midi":72,"time":53.74997849999961,"velocity":0.7559055118110236,"duration":0.6228296119791636},{"name":"B5","midi":83,"time":54.348936593749606,"velocity":0.7559055118110236,"duration":0.07595483072916664},{"name":"D4","midi":62,"time":54.348936593749606,"velocity":0.7559055118110236,"duration":0.06727427864583291},{"name":"C4","midi":60,"time":54.4270615624996,"velocity":0.7559055118110236,"duration":0.06727427864583291},{"name":"A5","midi":81,"time":54.4270615624996,"velocity":0.7559055118110236,"duration":0.07595483072916664},{"name":"G#5","midi":80,"time":54.5051865312496,"velocity":0.7559055118110236,"duration":0.07595483072916664},{"name":"B3","midi":59,"time":54.5051865312496,"velocity":0.7559055118110236,"duration":0.06727427864583291},{"name":"C4","midi":60,"time":54.583311499999596,"velocity":0.7559055118110236,"duration":0.31032973697916333},{"name":"A5","midi":81,"time":54.583311499999596,"velocity":0.7559055118110236,"duration":0.2061631119791656},{"name":"F#5","midi":78,"time":54.79164474999959,"velocity":0.7559055118110236,"duration":0.6076386458333332},{"name":"A3","midi":57,"time":54.89581137499959,"velocity":0.7559055118110236,"duration":0.10199648697916786},{"name":"D#3","midi":51,"time":54.99997799999959,"velocity":0.7559055118110236,"duration":0.41449636197916817},{"name":"G#5","midi":80,"time":55.20831124999959,"velocity":0.7559055118110236,"duration":0.2061631119791656},{"name":"E3","midi":52,"time":55.416644499999585,"velocity":0.7559055118110236,"duration":0.8311628619791307},{"name":"B3","midi":59,"time":55.416644499999585,"velocity":0.7559055118110236,"duration":0.8311628619791307},{"name":"A5","midi":81,"time":55.416644499999585,"velocity":0.7559055118110236,"duration":0.1367186953125028},{"name":"E5","midi":76,"time":55.416644499999585,"velocity":0.7559055118110236,"duration":0.824652447916634},{"name":"G#5","midi":80,"time":55.55553333333292,"velocity":0.7559055118110236,"duration":0.06727427864583291},{"name":"A5","midi":81,"time":55.62497774999958,"velocity":0.7559055118110236,"duration":0.06727427864583291},{"name":"G#5","midi":80,"time":55.69442216666624,"velocity":0.7559055118110236,"duration":0.06727427864583291},{"name":"A5","midi":81,"time":55.763866583332906,"velocity":0.7559055118110236,"duration":0.06727427864583291},{"name":"G#5","midi":80,"time":55.83331099999957,"velocity":0.7559055118110236,"duration":0.06727427864583291},{"name":"A5","midi":81,"time":55.90275541666623,"velocity":0.7559055118110236,"duration":0.06727427864583291},{"name":"G#5","midi":80,"time":55.972199833332894,"velocity":0.7559055118110236,"duration":0.06727427864583291},{"name":"A5","midi":81,"time":56.04164424999956,"velocity":0.7559055118110236,"duration":0.06727427864583291},{"name":"G#5","midi":80,"time":56.11108866666622,"velocity":0.7559055118110236,"duration":0.607638645833326},{"name":"E4","midi":64,"time":56.249977499999545,"velocity":0.7559055118110236,"duration":1.3020828124999966},{"name":"D5","midi":74,"time":56.249977499999545,"velocity":0.7559055118110236,"duration":0.5533851953125009},{"name":"A5","midi":81,"time":56.66664399999954,"velocity":0.7559055118110236,"duration":0.2756075286458355},{"name":"A5","midi":81,"time":56.94442166666621,"velocity":0.7559055118110236,"duration":0.5533851953125009},{"name":"A3","midi":57,"time":56.94442166666621,"velocity":0.7559055118110236,"duration":0.5533851953125009},{"name":"C#5","midi":73,"time":57.222199333332874,"velocity":0.7559055118110236,"duration":0.2756075286458355},{"name":"E5","midi":76,"time":57.49997699999954,"velocity":0.7559055118110236,"duration":0.2756075286458355},{"name":"F#5","midi":78,"time":57.777754666666205,"velocity":0.7559055118110236,"duration":0.2756075286458355},{"name":"B4","midi":71,"time":58.05553233333287,"velocity":0.7559055118110236,"duration":0.2756075286458355},{"name":"D5","midi":74,"time":58.333309999999535,"velocity":0.7559055118110236,"duration":0.2756075286458355},{"name":"E5","midi":76,"time":58.6110876666662,"velocity":0.7559055118110236,"duration":0.2756075286458355},{"name":"A4","midi":69,"time":58.888865333332866,"velocity":0.7559055118110236,"duration":0.2756075286458355},{"name":"C#5","midi":73,"time":59.16664299999953,"velocity":0.7559055118110236,"duration":0.2756075286458355},{"name":"D5","midi":74,"time":59.4444206666662,"velocity":0.7559055118110236,"duration":0.2756075286458355},{"name":"E5","midi":76,"time":59.72219833333286,"velocity":0.7559055118110236,"duration":0.1367186953125028},{"name":"D5","midi":74,"time":59.861087166666195,"velocity":0.7559055118110236,"duration":0.1367186953125028},{"name":"C#5","midi":73,"time":59.99997599999953,"velocity":0.7559055118110236,"duration":0.1367186953125028},{"name":"B4","midi":71,"time":60.13886483333286,"velocity":0.7559055118110236,"duration":0.1367186953125028},{"name":"E5","midi":76,"time":60.27775366666619,"velocity":0.7559055118110236,"duration":0.2756075286458355},{"name":"A4","midi":69,"time":60.55553133333286,"velocity":0.7559055118110236,"duration":0.2756075286458355},{"name":"C#5","midi":73,"time":60.833308999999524,"velocity":0.7559055118110236,"duration":0.2756075286458355},{"name":"D5","midi":74,"time":61.11108666666619,"velocity":0.7559055118110236,"duration":0.2756075286458355},{"name":"G#4","midi":68,"time":61.388864333332855,"velocity":0.7559055118110236,"duration":0.2756075286458355},{"name":"B4","midi":71,"time":61.66664199999952,"velocity":0.7559055118110236,"duration":0.2756075286458355},{"name":"C#5","midi":73,"time":61.944419666666185,"velocity":0.7559055118110236,"duration":0.2756075286458355},{"name":"F#5","midi":78,"time":62.22219733333285,"velocity":0.7559055118110236,"duration":0.2756075286458355},{"name":"D5","midi":74,"time":62.22219733333285,"velocity":0.7559055118110236,"duration":0.1367186953125028},{"name":"C#5","midi":73,"time":62.36108616666618,"velocity":0.7559055118110236,"duration":0.1367186953125028},{"name":"A5","midi":81,"time":62.499974999999516,"velocity":0.7559055118110236,"duration":0.2756075286458355},{"name":"B4","midi":71,"time":62.499974999999516,"velocity":0.7559055118110236,"duration":0.1367186953125028},{"name":"A4","midi":69,"time":62.63886383333285,"velocity":0.7559055118110236,"duration":0.1367186953125028},{"name":"B5","midi":83,"time":62.77775266666618,"velocity":0.7559055118110236,"duration":0.2756075286458355},{"name":"D5","midi":74,"time":62.77775266666618,"velocity":0.7559055118110236,"duration":0.34722208333333526},{"name":"E5","midi":76,"time":63.05553033333285,"velocity":0.7559055118110236,"duration":0.2756075286458355},{"name":"G#5","midi":80,"time":63.33330799999951,"velocity":0.7559055118110236,"duration":0.2756075286458355},{"name":"A5","midi":81,"time":63.61108566666618,"velocity":0.7559055118110236,"duration":0.2756075286458355},{"name":"C5","midi":72,"time":63.61108566666618,"velocity":0.7559055118110236,"duration":0.34722208333333526},{"name":"D5","midi":74,"time":63.88886333333284,"velocity":0.7559055118110236,"duration":0.2756075286458426},{"name":"F#5","midi":78,"time":64.16664099999952,"velocity":0.7559055118110236,"duration":0.2756075286458355},{"name":"G5","midi":79,"time":64.44441866666618,"velocity":0.7559055118110236,"duration":0.2756075286458355},{"name":"B4","midi":71,"time":64.44441866666618,"velocity":0.7559055118110236,"duration":0.2756075286458355},{"name":"A5","midi":81,"time":64.72219633333285,"velocity":0.7559055118110236,"duration":0.1367186953124957},{"name":"C5","midi":72,"time":64.72219633333285,"velocity":0.7559055118110236,"duration":0.1367186953124957},{"name":"G5","midi":79,"time":64.86108516666617,"velocity":0.7559055118110236,"duration":0.1367186953124957},{"name":"B4","midi":71,"time":64.86108516666617,"velocity":0.7559055118110236,"duration":0.1367186953124957},{"name":"F#5","midi":78,"time":64.9999739999995,"velocity":0.7559055118110236,"duration":0.1367186953124957},{"name":"A4","midi":69,"time":64.9999739999995,"velocity":0.7559055118110236,"duration":0.1367186953124957},{"name":"E5","midi":76,"time":65.13886283333282,"velocity":0.7559055118110236,"duration":0.1367186953124957},{"name":"G4","midi":67,"time":65.13886283333282,"velocity":0.7559055118110236,"duration":0.1367186953124957},{"name":"A5","midi":81,"time":65.27775166666615,"velocity":0.7559055118110236,"duration":0.2756075286458355},{"name":"F#4","midi":66,"time":65.27775166666615,"velocity":0.7559055118110236,"duration":0.34722208333333526},{"name":"D5","midi":74,"time":65.55552933333281,"velocity":0.7559055118110236,"duration":0.2756075286458355},{"name":"F#5","midi":78,"time":65.83330699999948,"velocity":0.7559055118110236,"duration":0.2756075286458355},{"name":"G5","midi":79,"time":66.11108466666614,"velocity":0.7559055118110236,"duration":0.2756075286458355},{"name":"A4","midi":69,"time":66.11108466666614,"velocity":0.7559055118110236,"duration":0.34722208333333526},{"name":"C#5","midi":73,"time":66.38886233333281,"velocity":0.7559055118110236,"duration":0.2756075286458355},{"name":"E5","midi":76,"time":66.66663999999948,"velocity":0.7559055118110236,"duration":0.2756075286458355},{"name":"F#5","midi":78,"time":66.94441766666614,"velocity":0.7559055118110236,"duration":0.9331593489582986},{"name":"D4","midi":62,"time":66.94441766666614,"velocity":0.7559055118110236,"duration":0.2756075286458355},{"name":"E4","midi":64,"time":67.2221953333328,"velocity":0.7559055118110236,"duration":0.1367186953124957},{"name":"F#4","midi":66,"time":67.36108416666613,"velocity":0.7559055118110236,"duration":0.1367186953124957},{"name":"G4","midi":67,"time":67.49997299999946,"velocity":0.7559055118110236,"duration":0.1367186953124957},{"name":"A4","midi":69,"time":67.63886183333278,"velocity":0.7559055118110236,"duration":0.1367186953124957},{"name":"B4","midi":71,"time":67.77775066666611,"velocity":0.7559055118110236,"duration":0.34722208333332105},{"name":"D5","midi":74,"time":67.91663949999943,"velocity":0.7559055118110236,"duration":0.1367186953124957},{"name":"E5","midi":76,"time":68.05552833333276,"velocity":0.7559055118110236,"duration":0.1367186953125099},{"name":"F#5","midi":78,"time":68.1944171666661,"velocity":0.7559055118110236,"duration":0.1367186953124957},{"name":"G#5","midi":80,"time":68.33330599999942,"velocity":0.7559055118110236,"duration":0.1367186953124957},{"name":"A5","midi":81,"time":68.47219483333275,"velocity":0.7559055118110236,"duration":0.1367186953124957},{"name":"B5","midi":83,"time":68.61108366666608,"velocity":0.7559055118110236,"duration":0.1367186953124957},{"name":"A4","midi":69,"time":68.61108366666608,"velocity":0.7559055118110236,"duration":0.34722208333332105},{"name":"A5","midi":81,"time":68.7499724999994,"velocity":0.7559055118110236,"duration":0.1367186953124957},{"name":"G#5","midi":80,"time":68.88886133333273,"velocity":0.7559055118110236,"duration":0.1367186953125099},{"name":"F#5","midi":78,"time":69.02775016666607,"velocity":0.7559055118110236,"duration":0.1367186953124957},{"name":"E5","midi":76,"time":69.16663899999939,"velocity":0.7559055118110236,"duration":0.1367186953124957},{"name":"D5","midi":74,"time":69.30552783333272,"velocity":0.7559055118110236,"duration":0.1367186953124957},{"name":"E5","midi":76,"time":69.44441666666604,"velocity":0.7559055118110236,"duration":0.9331593489582986},{"name":"G#4","midi":68,"time":69.44441666666604,"velocity":0.7559055118110236,"duration":0.2756075286458355},{"name":"A4","midi":69,"time":69.72219433333271,"velocity":0.7559055118110236,"duration":0.1367186953124957},{"name":"G#4","midi":68,"time":69.86108316666603,"velocity":0.7559055118110236,"duration":0.1367186953124957},{"name":"F#4","midi":66,"time":69.99997199999936,"velocity":0.7559055118110236,"duration":0.1367186953124957},{"name":"E4","midi":64,"time":70.13886083333269,"velocity":0.7559055118110236,"duration":0.1367186953124957},{"name":"A4","midi":69,"time":70.27774966666601,"velocity":0.7559055118110236,"duration":0.34722208333332105},{"name":"C#5","midi":73,"time":70.41663849999934,"velocity":0.7559055118110236,"duration":0.1367186953124957},{"name":"D5","midi":74,"time":70.55552733333266,"velocity":0.7559055118110236,"duration":0.1367186953125099},{"name":"E5","midi":76,"time":70.694416166666,"velocity":0.7559055118110236,"duration":0.1367186953124957},{"name":"F#5","midi":78,"time":70.83330499999933,"velocity":0.7559055118110236,"duration":0.1367186953124957},{"name":"G#5","midi":80,"time":70.97219383333265,"velocity":0.7559055118110236,"duration":0.1367186953124957},{"name":"A5","midi":81,"time":71.11108266666598,"velocity":0.7559055118110236,"duration":0.1367186953124957},{"name":"G#4","midi":68,"time":71.11108266666598,"velocity":0.7559055118110236,"duration":0.34722208333332105},{"name":"G#5","midi":80,"time":71.2499714999993,"velocity":0.7559055118110236,"duration":0.1367186953124957},{"name":"F#5","midi":78,"time":71.38886033333263,"velocity":0.7559055118110236,"duration":0.1367186953125099},{"name":"E5","midi":76,"time":71.52774916666597,"velocity":0.7559055118110236,"duration":0.1367186953124957},{"name":"D5","midi":74,"time":71.6666379999993,"velocity":0.7559055118110236,"duration":0.1367186953124957},{"name":"C#5","midi":73,"time":71.80552683333262,"velocity":0.7559055118110236,"duration":0.1367186953124957},{"name":"D5","midi":74,"time":71.94441566666595,"velocity":0.7559055118110236,"duration":0.8311628619791378},{"name":"F#4","midi":66,"time":71.94441566666595,"velocity":0.7559055118110236,"duration":0.2756075286458355},{"name":"G#4","midi":68,"time":72.22219333333261,"velocity":0.7559055118110236,"duration":0.1367186953124957},{"name":"F#4","midi":66,"time":72.36108216666594,"velocity":0.7559055118110236,"duration":0.1367186953124957},{"name":"E4","midi":64,"time":72.49997099999926,"velocity":0.7559055118110236,"duration":0.1367186953124957},{"name":"F#4","midi":66,"time":72.63885983333259,"velocity":0.7559055118110236,"duration":0.1367186953124957},{"name":"B4","midi":71,"time":72.77774866666591,"velocity":0.7559055118110236,"duration":0.5533851953124866},{"name":"G#4","midi":68,"time":72.77774866666591,"velocity":0.7559055118110236,"duration":0.2756075286458355},{"name":"B5","midi":83,"time":73.05552633333258,"velocity":0.7559055118110236,"duration":0.2756075286458213},{"name":"A4","midi":69,"time":73.05552633333258,"velocity":0.7559055118110236,"duration":0.1367186953124957},{"name":"G#4","midi":68,"time":73.1944151666659,"velocity":0.7559055118110236,"duration":0.1367186953124957},{"name":"D5","midi":74,"time":73.33330399999923,"velocity":0.7559055118110236,"duration":0.2756075286458213},{"name":"F#4","midi":66,"time":73.33330399999923,"velocity":0.7559055118110236,"duration":0.1367186953124957},{"name":"G#4","midi":68,"time":73.47219283333256,"velocity":0.7559055118110236,"duration":0.1367186953124957},{"name":"C#5","midi":73,"time":73.61108166666588,"velocity":0.7559055118110236,"duration":0.1367186953124957},{"name":"A4","midi":69,"time":73.61108166666588,"velocity":0.7559055118110236,"duration":0.2756075286458213},{"name":"D5","midi":74,"time":73.74997049999921,"velocity":0.7559055118110236,"duration":0.1367186953124957},{"name":"E5","midi":76,"time":73.88885933333253,"velocity":0.7559055118110236,"duration":0.08897565885416725},{"name":"B4","midi":71,"time":73.88885933333253,"velocity":0.7559055118110236,"duration":0.5533851953124724},{"name":"G#4","midi":68,"time":73.88885933333253,"velocity":0.7559055118110236,"duration":0.1367186953124957},{"name":"D5","midi":74,"time":73.98000513020753,"velocity":0.7559055118110236,"duration":0.08897565885416725},{"name":"F#4","midi":66,"time":74.02774816666586,"velocity":0.7559055118110236,"duration":0.1367186953124957},{"name":"E5","midi":76,"time":74.07115092708253,"velocity":0.7559055118110236,"duration":0.08897565885416725},{"name":"D5","midi":74,"time":74.16229672395752,"velocity":0.7559055118110236,"duration":0.08463538281249328},{"name":"E4","midi":64,"time":74.16663699999918,"velocity":0.7559055118110236,"duration":0.1367186953124957},{"name":"C#5","midi":73,"time":74.24910224479085,"velocity":0.7559055118110236,"duration":0.08897565885416725},{"name":"D4","midi":62,"time":74.30552583333251,"velocity":0.7559055118110236,"duration":0.1367186953124957},{"name":"D5","midi":74,"time":74.34024804166584,"velocity":0.7559055118110236,"duration":0.10199648697916075},{"name":"E5","midi":76,"time":74.44441466666584,"velocity":0.7559055118110236,"duration":1.1089405286458032},{"name":"C#4","midi":61,"time":74.44441466666584,"velocity":0.7559055118110236,"duration":0.2756075286458355},{"name":"B4","midi":71,"time":74.44441466666584,"velocity":0.7559055118110236,"duration":0.41449636197916107},{"name":"C#3","midi":49,"time":74.7221923333325,"velocity":0.7559055118110236,"duration":0.2756075286458213},{"name":"D5","midi":74,"time":74.86108116666583,"velocity":0.7559055118110236,"duration":0.1367186953124957},{"name":"E3","midi":52,"time":74.99996999999915,"velocity":0.7559055118110236,"duration":0.2756075286458213},{"name":"C#5","midi":73,"time":74.99996999999915,"velocity":0.7559055118110236,"duration":0.1367186953124957},{"name":"B4","midi":71,"time":75.13885883333248,"velocity":0.7559055118110236,"duration":0.1367186953124957},{"name":"F#3","midi":54,"time":75.2777476666658,"velocity":0.7559055118110236,"duration":0.2756075286458355},{"name":"A4","midi":69,"time":75.2777476666658,"velocity":0.7559055118110236,"duration":0.41449636197916107},{"name":"D5","midi":74,"time":75.55552533333247,"velocity":0.7559055118110236,"duration":0.8311628619791378},{"name":"B2","midi":47,"time":75.55552533333247,"velocity":0.7559055118110236,"duration":0.2756075286458213},{"name":"C#5","midi":73,"time":75.6944141666658,"velocity":0.7559055118110236,"duration":0.1367186953124957},{"name":"D3","midi":50,"time":75.83330299999912,"velocity":0.7559055118110236,"duration":0.2756075286458213},{"name":"B4","midi":71,"time":75.83330299999912,"velocity":0.7559055118110236,"duration":0.1367186953124957},{"name":"A4","midi":69,"time":75.97219183333245,"velocity":0.7559055118110236,"duration":0.1367186953124957},{"name":"E3","midi":52,"time":76.11108066666577,"velocity":0.7559055118110236,"duration":0.2756075286458355},{"name":"G#4","midi":68,"time":76.11108066666577,"velocity":0.7559055118110236,"duration":0.5533851953125009},{"name":"C#5","midi":73,"time":76.38885833333244,"velocity":0.7559055118110236,"duration":0.8311628619791662},{"name":"A2","midi":45,"time":76.38885833333244,"velocity":0.7559055118110236,"duration":0.2756075286458355},{"name":"C#3","midi":49,"time":76.6666359999991,"velocity":0.7559055118110236,"duration":0.2756075286458355},{"name":"E4","midi":64,"time":76.6666359999991,"velocity":0.7559055118110236,"duration":0.2756075286458355},{"name":"D3","midi":50,"time":76.94441366666577,"velocity":0.7559055118110236,"duration":0.2756075286458355},{"name":"F#4","midi":66,"time":76.94441366666577,"velocity":0.7559055118110236,"duration":0.831162861979152},{"name":"B4","midi":71,"time":77.22219133333243,"velocity":0.7559055118110236,"duration":0.2604165624999979},{"name":"E3","midi":52,"time":77.22219133333243,"velocity":0.7559055118110236,"duration":0.1367186953124957},{"name":"D3","midi":50,"time":77.36108016666576,"velocity":0.7559055118110236,"duration":0.1367186953125099},{"name":"D5","midi":74,"time":77.4999689999991,"velocity":0.7559055118110236,"duration":0.5533851953124866},{"name":"C#3","midi":49,"time":77.4999689999991,"velocity":0.7559055118110236,"duration":0.1367186953124957},{"name":"B2","midi":47,"time":77.63885783333242,"velocity":0.7559055118110236,"duration":0.1367186953124957},{"name":"E3","midi":52,"time":77.77774666666575,"velocity":0.7559055118110236,"duration":0.2756075286458355},{"name":"G#4","midi":68,"time":77.77774666666575,"velocity":0.7559055118110236,"duration":0.41449636197916107},{"name":"C#5","midi":73,"time":78.05552433333241,"velocity":0.7559055118110236,"duration":0.8311628619791378},{"name":"A2","midi":45,"time":78.05552433333241,"velocity":0.7559055118110236,"duration":0.2756075286458213},{"name":"B4","midi":71,"time":78.19441316666574,"velocity":0.7559055118110236,"duration":0.1367186953124957},{"name":"C#3","midi":49,"time":78.33330199999907,"velocity":0.7559055118110236,"duration":0.2756075286458213},{"name":"A4","midi":69,"time":78.33330199999907,"velocity":0.7559055118110236,"duration":0.1367186953124957},{"name":"G#4","midi":68,"time":78.47219083333239,"velocity":0.7559055118110236,"duration":0.1367186953124957},{"name":"D3","midi":50,"time":78.61107966666572,"velocity":0.7559055118110236,"duration":0.2756075286458355},{"name":"F#4","midi":66,"time":78.61107966666572,"velocity":0.7559055118110236,"duration":0.41449636197916107},{"name":"B4","midi":71,"time":78.88885733333238,"velocity":0.7559055118110236,"duration":0.8311628619791378},{"name":"G#2","midi":44,"time":78.88885733333238,"velocity":0.7559055118110236,"duration":0.2756075286458213},{"name":"A4","midi":69,"time":79.02774616666571,"velocity":0.7559055118110236,"duration":0.1367186953124957},{"name":"B2","midi":47,"time":79.16663499999903,"velocity":0.7559055118110236,"duration":0.2756075286458213},{"name":"G#4","midi":68,"time":79.16663499999903,"velocity":0.7559055118110236,"duration":0.1367186953124957},{"name":"F#4","midi":66,"time":79.30552383333236,"velocity":0.7559055118110236,"duration":0.1367186953124957},{"name":"C#3","midi":49,"time":79.44441266666568,"velocity":0.7559055118110236,"duration":0.2756075286458355},{"name":"E4","midi":64,"time":79.44441266666568,"velocity":0.7559055118110236,"duration":0.9700516953124634},{"name":"A4","midi":69,"time":79.72219033333235,"velocity":0.7559055118110236,"duration":0.29079849479164466},{"name":"D3","midi":50,"time":79.72219033333235,"velocity":0.7559055118110236,"duration":0.1367186953124957},{"name":"C#3","midi":49,"time":79.86107916666568,"velocity":0.7559055118110236,"duration":0.1367186953124957},{"name":"C#5","midi":73,"time":79.999967999999,"velocity":0.7559055118110236,"duration":0.23871518229165645},{"name":"B2","midi":47,"time":79.999967999999,"velocity":0.7559055118110236,"duration":0.1367186953124957},{"name":"A2","midi":45,"time":80.13885683333233,"velocity":0.7559055118110236,"duration":0.1367186953124957},{"name":"F#4","midi":66,"time":80.27774566666565,"velocity":0.7559055118110236,"duration":0.8311628619791236},{"name":"D3","midi":50,"time":80.27774566666565,"velocity":0.7559055118110236,"duration":0.5425345052083088},{"name":"D4","midi":62,"time":80.41663449999898,"velocity":0.7559055118110236,"duration":0.1367186953124957},{"name":"D2","midi":38,"time":80.5555233333323,"velocity":0.7559055118110236,"duration":0.2756075286458213},{"name":"E4","midi":64,"time":80.5555233333323,"velocity":0.7559055118110236,"duration":0.1367186953124957},{"name":"D4","midi":62,"time":80.69441216666563,"velocity":0.7559055118110236,"duration":0.1367186953124957},{"name":"D3","midi":50,"time":80.83330099999895,"velocity":0.7559055118110236,"duration":0.2756075286458213},{"name":"C#4","midi":61,"time":80.83330099999895,"velocity":0.7559055118110236,"duration":0.1367186953124957},{"name":"D4","midi":62,"time":80.97218983333228,"velocity":0.7559055118110236,"duration":0.2756075286458213},{"name":"G#4","midi":68,"time":81.1110786666656,"velocity":0.7559055118110236,"duration":0.8311628619791236},{"name":"E3","midi":52,"time":81.1110786666656,"velocity":0.7559055118110236,"duration":0.5425345052083088},{"name":"D4","midi":62,"time":81.24996749999893,"velocity":0.7559055118110236,"duration":0.1367186953124957},{"name":"E2","midi":40,"time":81.38885633333226,"velocity":0.7559055118110236,"duration":0.2756075286458213},{"name":"E4","midi":64,"time":81.38885633333226,"velocity":0.7559055118110236,"duration":0.1367186953124957},{"name":"D4","midi":62,"time":81.52774516666558,"velocity":0.7559055118110236,"duration":0.1367186953124957},{"name":"E3","midi":52,"time":81.66663399999891,"velocity":0.7559055118110236,"duration":0.2756075286458213},{"name":"C#4","midi":61,"time":81.66663399999891,"velocity":0.7559055118110236,"duration":0.1367186953124957},{"name":"D4","midi":62,"time":81.80552283333223,"velocity":0.7559055118110236,"duration":0.2756075286458213},{"name":"A4","midi":69,"time":81.94441166666556,"velocity":0.7559055118110236,"duration":0.824652447916634},{"name":"F#3","midi":54,"time":81.94441166666556,"velocity":0.7559055118110236,"duration":0.2756075286458213},{"name":"C#4","midi":61,"time":82.08330049999888,"velocity":0.7559055118110236,"duration":0.1367186953124957},{"name":"C#3","midi":49,"time":82.22218933333221,"velocity":0.7559055118110236,"duration":0.2756075286458213},{"name":"D4","midi":62,"time":82.22218933333221,"velocity":0.7559055118110236,"duration":0.1367186953124957},{"name":"E4","midi":64,"time":82.36107816666554,"velocity":0.7559055118110236,"duration":0.1367186953124957},{"name":"A2","midi":45,"time":82.49996699999886,"velocity":0.7559055118110236,"duration":0.2756075286458355},{"name":"F#4","midi":66,"time":82.49996699999886,"velocity":0.7559055118110236,"duration":0.1367186953124957},{"name":"G#4","midi":68,"time":82.63885583333219,"velocity":0.7559055118110236,"duration":0.12152772916667232},{"name":"F#2","midi":42,"time":82.77774466666553,"velocity":0.7559055118110236,"duration":0.2756075286458355},{"name":"A4","midi":69,"time":82.77774466666553,"velocity":0.7559055118110236,"duration":0.8311628619791378},{"name":"D5","midi":74,"time":82.91663349999887,"velocity":0.7559055118110236,"duration":0.1367186953124957},{"name":"E5","midi":76,"time":83.05552233333219,"velocity":0.7559055118110236,"duration":0.1367186953124957},{"name":"F#3","midi":54,"time":83.05552233333219,"velocity":0.7559055118110236,"duration":0.2756075286458213},{"name":"D5","midi":74,"time":83.19441116666552,"velocity":0.7559055118110236,"duration":0.1367186953124957},{"name":"C#5","midi":73,"time":83.33329999999884,"velocity":0.7559055118110236,"duration":0.1367186953124957},{"name":"F#2","midi":42,"time":83.33329999999884,"velocity":0.7559055118110236,"duration":0.2756075286458213},{"name":"D5","midi":74,"time":83.47218883333217,"velocity":0.7559055118110236,"duration":0.2756075286458213},{"name":"G#2","midi":44,"time":83.6110776666655,"velocity":0.7559055118110236,"duration":0.2756075286458213},{"name":"B4","midi":71,"time":83.6110776666655,"velocity":0.7559055118110236,"duration":0.9982634895832803},{"name":"D5","midi":74,"time":83.74996649999882,"velocity":0.7559055118110236,"duration":0.1367186953124957},{"name":"E5","midi":76,"time":83.88885533333215,"velocity":0.7559055118110236,"duration":0.1367186953124957},{"name":"G#3","midi":56,"time":83.88885533333215,"velocity":0.7559055118110236,"duration":0.2756075286458213},{"name":"D5","midi":74,"time":84.02774416666547,"velocity":0.7559055118110236,"duration":0.1367186953124957},{"name":"C#5","midi":73,"time":84.1666329999988,"velocity":0.7559055118110236,"duration":0.1367186953124957},{"name":"G#2","midi":44,"time":84.1666329999988,"velocity":0.7559055118110236,"duration":0.2756075286458213},{"name":"D5","midi":74,"time":84.30552183333212,"velocity":0.7559055118110236,"duration":0.1367186953124957},{"name":"C#5","midi":73,"time":84.44441066666545,"velocity":0.7559055118110236,"duration":0.8311628619791236},{"name":"A2","midi":45,"time":84.44441066666545,"velocity":0.7559055118110236,"duration":0.2756075286458213},{"name":"B2","midi":47,"time":84.7221883333321,"velocity":0.7559055118110236,"duration":0.1367186953124957},{"name":"G#4","midi":68,"time":84.7221883333321,"velocity":0.7559055118110236,"duration":0.2756075286458213},{"name":"A2","midi":45,"time":84.86107716666542,"velocity":0.7559055118110236,"duration":0.1367186953124957},{"name":"G#2","midi":44,"time":84.99996599999875,"velocity":0.7559055118110236,"duration":0.1367186953124957},{"name":"A4","midi":69,"time":84.99996599999875,"velocity":0.7559055118110236,"duration":0.5533851953124866},{"name":"A2","midi":45,"time":85.13885483333208,"velocity":0.7559055118110236,"duration":0.1367186953124957},{"name":"D5","midi":74,"time":85.2777436666654,"velocity":0.7559055118110236,"duration":0.8311628619791378},{"name":"B2","midi":47,"time":85.2777436666654,"velocity":0.7559055118110236,"duration":0.2756075286458355},{"name":"C#3","midi":49,"time":85.55552133333207,"velocity":0.7559055118110236,"duration":0.1367186953124957},{"name":"G#4","midi":68,"time":85.55552133333207,"velocity":0.7559055118110236,"duration":0.2756075286458213},{"name":"B2","midi":47,"time":85.69441016666539,"velocity":0.7559055118110236,"duration":0.1367186953124957},{"name":"A2","midi":45,"time":85.83329899999872,"velocity":0.7559055118110236,"duration":0.1367186953124957},{"name":"A4","midi":69,"time":85.83329899999872,"velocity":0.7559055118110236,"duration":0.5533851953124866},{"name":"B2","midi":47,"time":85.97218783333204,"velocity":0.7559055118110236,"duration":0.1367186953124957},{"name":"E5","midi":76,"time":86.11107666666537,"velocity":0.7559055118110236,"duration":0.7378469270833108},{"name":"C#3","midi":49,"time":86.11107666666537,"velocity":0.7559055118110236,"duration":0.2756075286458355},{"name":"D3","midi":50,"time":86.38885433333203,"velocity":0.7559055118110236,"duration":0.1367186953124957},{"name":"G#4","midi":68,"time":86.38885433333203,"velocity":0.7559055118110236,"duration":0.2756075286458213},{"name":"C#3","midi":49,"time":86.52774316666536,"velocity":0.7559055118110236,"duration":0.1367186953124957},{"name":"B2","midi":47,"time":86.66663199999869,"velocity":0.7559055118110236,"duration":0.1367186953124957},{"name":"A4","midi":69,"time":86.66663199999869,"velocity":0.7559055118110236,"duration":0.8246524479166482},{"name":"C#3","midi":49,"time":86.80552083333201,"velocity":0.7559055118110236,"duration":0.1367186953124957},{"name":"F#5","midi":78,"time":86.94440966666534,"velocity":0.7559055118110236,"duration":0.2756075286458355},{"name":"D3","midi":50,"time":86.94440966666534,"velocity":0.7559055118110236,"duration":0.2756075286458355},{"name":"G5","midi":79,"time":87.222187333332,"velocity":0.7559055118110236,"duration":0.1367186953124957},{"name":"F#3","midi":54,"time":87.222187333332,"velocity":0.7559055118110236,"duration":0.2756075286458213},{"name":"F#5","midi":78,"time":87.36107616666533,"velocity":0.7559055118110236,"duration":0.1367186953124957},{"name":"E5","midi":76,"time":87.495624723957,"velocity":0.7559055118110236,"duration":0.1367186953124957},{"name":"A3","midi":57,"time":87.49996499999865,"velocity":0.7559055118110236,"duration":0.2756075286458355},{"name":"D5","midi":74,"time":87.63017328124866,"velocity":0.7559055118110236,"duration":0.10416662499999063},{"name":"C6","midi":84,"time":87.77774266666532,"velocity":0.7559055118110236,"duration":0.1367186953124957},{"name":"D4","midi":62,"time":87.77774266666532,"velocity":0.7559055118110236,"duration":1.9097214583332374},{"name":"B5","midi":83,"time":87.91663149999864,"velocity":0.7559055118110236,"duration":0.1367186953124957},{"name":"A5","midi":81,"time":88.05552033333197,"velocity":0.7559055118110236,"duration":0.1367186953124957},{"name":"F4","midi":65,"time":88.05552033333197,"velocity":0.7559055118110236,"duration":0.2756075286458213},{"name":"C6","midi":84,"time":88.1944091666653,"velocity":0.7559055118110236,"duration":0.1367186953124957},{"name":"B5","midi":83,"time":88.33329799999862,"velocity":0.7559055118110236,"duration":0.1367186953124957},{"name":"A4","midi":69,"time":88.33329799999862,"velocity":0.7559055118110236,"duration":0.2756075286458213},{"name":"A5","midi":81,"time":88.47218683333195,"velocity":0.7559055118110236,"duration":0.1367186953124957},{"name":"G#5","midi":80,"time":88.61107566666527,"velocity":0.7559055118110236,"duration":0.1367186953124957},{"name":"B4","midi":71,"time":88.61107566666527,"velocity":0.7559055118110236,"duration":0.2756075286458213},{"name":"B5","midi":83,"time":88.7499644999986,"velocity":0.7559055118110236,"duration":0.1367186953124957},{"name":"A5","midi":81,"time":88.88885333333192,"velocity":0.7559055118110236,"duration":0.1367186953124957},{"name":"E4","midi":64,"time":88.88885333333192,"velocity":0.7559055118110236,"duration":0.2756075286458213},{"name":"G#5","midi":80,"time":89.02774216666525,"velocity":0.7559055118110236,"duration":0.1367186953124957},{"name":"A5","midi":81,"time":89.16663099999857,"velocity":0.7559055118110236,"duration":0.1367186953124957},{"name":"G#4","midi":68,"time":89.16663099999857,"velocity":0.7559055118110236,"duration":0.2756075286458213},{"name":"B5","midi":83,"time":89.3055198333319,"velocity":0.7559055118110236,"duration":0.1367186953124957},{"name":"E5","midi":76,"time":89.44440866666523,"velocity":0.7559055118110236,"duration":0.2756075286458355},{"name":"A4","midi":69,"time":89.44440866666523,"velocity":0.7559055118110236,"duration":0.41449636197916107},{"name":"E5","midi":76,"time":89.72218633333189,"velocity":0.7559055118110236,"duration":0.8311628619791378},{"name":"C#4","midi":61,"time":89.72218633333189,"velocity":0.7559055118110236,"duration":0.2756075286458213},{"name":"D5","midi":74,"time":89.86107516666522,"velocity":0.7559055118110236,"duration":0.1367186953124957},{"name":"E4","midi":64,"time":89.99996399999854,"velocity":0.7559055118110236,"duration":0.2756075286458213},{"name":"C#5","midi":73,"time":89.99996399999854,"velocity":0.7559055118110236,"duration":0.1367186953124957},{"name":"B4","midi":71,"time":90.13885283333187,"velocity":0.7559055118110236,"duration":0.1367186953124957},{"name":"F#4","midi":66,"time":90.2777416666652,"velocity":0.7559055118110236,"duration":0.2756075286458355},{"name":"A4","midi":69,"time":90.2777416666652,"velocity":0.7559055118110236,"duration":0.41449636197916107},{"name":"D5","midi":74,"time":90.55551933333186,"velocity":0.7559055118110236,"duration":0.8311628619791378},{"name":"B3","midi":59,"time":90.55551933333186,"velocity":0.7559055118110236,"duration":0.2756075286458213},{"name":"C#5","midi":73,"time":90.69440816666518,"velocity":0.7559055118110236,"duration":0.1367186953124957},{"name":"D4","midi":62,"time":90.83329699999851,"velocity":0.7559055118110236,"duration":0.2756075286458213},{"name":"B4","midi":71,"time":90.83329699999851,"velocity":0.7559055118110236,"duration":0.1367186953124957},{"name":"A4","midi":69,"time":90.97218583333184,"velocity":0.7559055118110236,"duration":0.1367186953124957},{"name":"E4","midi":64,"time":91.11107466666516,"velocity":0.7559055118110236,"duration":0.2756075286458355},{"name":"G#4","midi":68,"time":91.11107466666516,"velocity":0.7559055118110236,"duration":0.5533851953125009},{"name":"C#5","midi":73,"time":91.38885233333183,"velocity":0.7559055118110236,"duration":0.8246524479166624},{"name":"A3","midi":57,"time":91.38885233333183,"velocity":0.7559055118110236,"duration":0.2756075286458355},{"name":"C#4","midi":61,"time":91.66662999999849,"velocity":0.7559055118110236,"duration":0.2756075286458355},{"name":"A4","midi":69,"time":91.66662999999849,"velocity":0.7559055118110236,"duration":0.2756075286458355},{"name":"F#3","midi":54,"time":91.94440766666516,"velocity":0.7559055118110236,"duration":0.2756075286458355},{"name":"D4","midi":62,"time":91.94440766666516,"velocity":0.7559055118110236,"duration":0.8311628619791662},{"name":"F#4","midi":66,"time":92.22218533333182,"velocity":0.7559055118110236,"duration":0.2756075286458355},{"name":"A3","midi":57,"time":92.22218533333182,"velocity":0.7559055118110236,"duration":0.2756075286458355},{"name":"B4","midi":71,"time":92.49996299999849,"velocity":0.7559055118110236,"duration":0.5533851953125009},{"name":"G#3","midi":56,"time":92.49996299999849,"velocity":0.7559055118110236,"duration":0.2756075286458355},{"name":"A3","midi":57,"time":92.77774066666515,"velocity":0.7559055118110236,"duration":0.2756075286458355},{"name":"C#4","midi":61,"time":92.77774066666515,"velocity":0.7559055118110236,"duration":0.8311628619791662},{"name":"E4","midi":64,"time":93.05551833333182,"velocity":0.7559055118110236,"duration":0.2756075286458355},{"name":"C#3","midi":49,"time":93.05551833333182,"velocity":0.7559055118110236,"duration":0.2756075286458355},{"name":"A4","midi":69,"time":93.33329599999848,"velocity":0.7559055118110236,"duration":0.2756075286458355},{"name":"D3","midi":50,"time":93.33329599999848,"velocity":0.7559055118110236,"duration":0.2756075286458355},{"name":"A4","midi":69,"time":93.61107366666515,"velocity":0.7559055118110236,"duration":0.1367186953124957},{"name":"E3","midi":52,"time":93.61107366666515,"velocity":0.7559055118110236,"duration":0.5533851953125009},{"name":"B3","midi":59,"time":93.61107366666515,"velocity":0.7559055118110236,"duration":0.8311628619791662},{"name":"G#4","midi":68,"time":93.74996249999847,"velocity":0.7559055118110236,"duration":0.06727427864584001},{"name":"A4","midi":69,"time":93.81940691666514,"velocity":0.7559055118110236,"duration":0.06727427864584001},{"name":"G#4","midi":68,"time":93.88885133333181,"velocity":0.7559055118110236,"duration":0.2756075286458355},{"name":"A4","midi":69,"time":94.16662899999848,"velocity":0.7559055118110236,"duration":0.2756075286458355},{"name":"E2","midi":40,"time":94.16662899999848,"velocity":0.7559055118110236,"duration":0.2756075286458355},{"name":"A4","midi":69,"time":94.44440666666515,"velocity":0.7559055118110236,"duration":0.1367186953124957},{"name":"A2","midi":45,"time":94.44440666666515,"velocity":0.7559055118110236,"duration":0.5533851953124724},{"name":"C#3","midi":49,"time":94.44440666666515,"velocity":0.7559055118110236,"duration":0.5533851953124724},{"name":"A3","midi":57,"time":94.44440666666515,"velocity":0.7559055118110236,"duration":0.5533851953124724},{"name":"E3","midi":52,"time":94.44440666666515,"velocity":0.7559055118110236,"duration":0.5533851953124724},{"name":"B4","midi":71,"time":94.58329549999847,"velocity":0.7559055118110236,"duration":0.1367186953124957},{"name":"C#5","midi":73,"time":94.7221843333318,"velocity":0.7559055118110236,"duration":0.1367186953124957},{"name":"D5","midi":74,"time":94.86107316666512,"velocity":0.7559055118110236,"duration":0.1367186953124957},{"name":"E5","midi":76,"time":94.99996199999845,"velocity":0.7559055118110236,"duration":0.1367186953124957},{"name":"C#5","midi":73,"time":95.13885083333177,"velocity":0.7559055118110236,"duration":0.1367186953124957},{"name":"A4","midi":69,"time":95.2777396666651,"velocity":0.7559055118110236,"duration":0.8311628619791662},{"name":"B3","midi":59,"time":95.2777396666651,"velocity":0.7559055118110236,"duration":0.34722208333333526},{"name":"C#4","midi":61,"time":95.55551733333176,"velocity":0.7559055118110236,"duration":0.2756075286458355},{"name":"D4","midi":62,"time":95.83329499999843,"velocity":0.7559055118110236,"duration":0.2756075286458355},{"name":"A4","midi":69,"time":96.1110726666651,"velocity":0.7559055118110236,"duration":0.10199648697916075},{"name":"B3","midi":59,"time":96.1110726666651,"velocity":0.7559055118110236,"duration":0.34722208333332105},{"name":"G#4","midi":68,"time":96.21523929166509,"velocity":0.7559055118110236,"duration":0.10199648697916075},{"name":"A4","midi":69,"time":96.31940591666508,"velocity":0.7559055118110236,"duration":0.10199648697917496},{"name":"C#4","midi":61,"time":96.38885033333175,"velocity":0.7559055118110236,"duration":0.2756075286458355},{"name":"G#4","midi":68,"time":96.42357254166508,"velocity":0.7559055118110236,"duration":0.10199648697917496},{"name":"A4","midi":69,"time":96.52773916666509,"velocity":0.7559055118110236,"duration":0.10199648697916075},{"name":"G#4","midi":68,"time":96.63190579166508,"velocity":0.7559055118110236,"duration":0.10199648697917496},{"name":"D4","midi":62,"time":96.66662799999841,"velocity":0.7559055118110236,"duration":0.2756075286458213},{"name":"F#4","midi":66,"time":96.73607241666508,"velocity":0.7559055118110236,"duration":0.10199648697916075},{"name":"G#4","midi":68,"time":96.84023904166507,"velocity":0.7559055118110236,"duration":0.10199648697916075},{"name":"A4","midi":69,"time":96.94440566666506,"velocity":0.7559055118110236,"duration":0.2756075286458355},{"name":"A2","midi":45,"time":96.94440566666506,"velocity":0.7559055118110236,"duration":0.5533851953125009},{"name":"E3","midi":52,"time":96.94440566666506,"velocity":0.7559055118110236,"duration":0.5533851953125009},{"name":"A3","midi":57,"time":96.94440566666506,"velocity":0.7559055118110236,"duration":0.5533851953125009},{"name":"C#4","midi":61,"time":96.94440566666506,"velocity":0.7559055118110236,"duration":0.34722208333333526},{"name":"E4","midi":64,"time":97.22218333333173,"velocity":0.7559055118110236,"duration":0.2756075286458355},{"name":"G4","midi":67,"time":97.4999609999984,"velocity":0.7559055118110236,"duration":0.2756075286458355},{"name":"F#4","midi":66,"time":97.77773866666506,"velocity":0.7559055118110236,"duration":0.1367186953124957},{"name":"D4","midi":62,"time":97.77773866666506,"velocity":0.7559055118110236,"duration":0.34722208333332105},{"name":"G#4","midi":68,"time":97.91662749999838,"velocity":0.7559055118110236,"duration":0.1367186953124957},{"name":"A4","midi":69,"time":98.05551633333171,"velocity":0.7559055118110236,"duration":0.2756075286458355},{"name":"F#4","midi":66,"time":98.33329399999838,"velocity":0.7559055118110236,"duration":0.2756075286458355},{"name":"E4","midi":64,"time":98.61107166666504,"velocity":0.7559055118110236,"duration":0.2756075286458355},{"name":"C#4","midi":61,"time":98.61107166666504,"velocity":0.7559055118110236,"duration":0.34722208333333526},{"name":"G#4","midi":68,"time":98.8888493333317,"velocity":0.7559055118110236,"duration":0.2756075286458355},{"name":"A4","midi":69,"time":99.16662699999837,"velocity":0.7559055118110236,"duration":0.2756075286458355},{"name":"D4","midi":62,"time":99.44440466666504,"velocity":0.7559055118110236,"duration":0.2756075286458355},{"name":"A2","midi":45,"time":99.44440466666504,"velocity":0.7559055118110236,"duration":0.4340276041666584},{"name":"G#3","midi":56,"time":99.44440466666504,"velocity":0.7559055118110236,"duration":0.4340276041666584},{"name":"B3","midi":59,"time":99.44440466666504,"velocity":0.7559055118110236,"duration":0.4340276041666584},{"name":"E4","midi":64,"time":99.7221823333317,"velocity":0.7559055118110236,"duration":0.1367186953124957},{"name":"D4","midi":62,"time":99.86107116666503,"velocity":0.7559055118110236,"duration":0.1367186953124957},{"name":"C#4","midi":61,"time":99.99995999999835,"velocity":0.7559055118110236,"duration":0.1367186953124957},{"name":"D4","midi":62,"time":100.13884883333168,"velocity":0.7559055118110236,"duration":0.1367186953124957},{"name":"E4","midi":64,"time":100.277737666665,"velocity":0.7559055118110236,"duration":0.1367186953124957},{"name":"C#4","midi":61,"time":100.277737666665,"velocity":0.7559055118110236,"duration":0.34722208333332105},{"name":"G#4","midi":68,"time":100.41662649999833,"velocity":0.7559055118110236,"duration":0.1367186953124957},{"name":"A4","midi":69,"time":100.55551533333166,"velocity":0.7559055118110236,"duration":0.2756075286458355},{"name":"E4","midi":64,"time":100.83329299999832,"velocity":0.7559055118110236,"duration":0.2756075286458355},{"name":"D4","midi":62,"time":101.11107066666499,"velocity":0.7559055118110236,"duration":0.2756075286458355},{"name":"B3","midi":59,"time":101.11107066666499,"velocity":0.7559055118110236,"duration":0.34722208333333526},{"name":"G#4","midi":68,"time":101.38884833333165,"velocity":0.7559055118110236,"duration":0.2756075286458355},{"name":"A4","midi":69,"time":101.66662599999832,"velocity":0.7559055118110236,"duration":0.2756075286458355},{"name":"D4","midi":62,"time":101.94440366666498,"velocity":0.7559055118110236,"duration":0.8246524479166482},{"name":"A3","midi":57,"time":101.94440366666498,"velocity":0.7559055118110236,"duration":0.9548607291666542},{"name":"A2","midi":45,"time":102.08329249999832,"velocity":0.7559055118110236,"duration":0.1367186953124957},{"name":"B2","midi":47,"time":102.22218133333165,"velocity":0.7559055118110236,"duration":0.1367186953124957},{"name":"C#3","midi":49,"time":102.36107016666497,"velocity":0.7559055118110236,"duration":0.1367186953124957},{"name":"D3","midi":50,"time":102.4999589999983,"velocity":0.7559055118110236,"duration":0.1367186953124957},{"name":"E3","midi":52,"time":102.63884783333162,"velocity":0.7559055118110236,"duration":0.1367186953125099},{"name":"C#4","midi":61,"time":102.77773666666496,"velocity":0.7559055118110236,"duration":0.4123262239583312},{"name":"F#3","midi":54,"time":102.77773666666496,"velocity":0.7559055118110236,"duration":0.1367186953125099},{"name":"G3","midi":55,"time":102.9166254999983,"velocity":0.7559055118110236,"duration":0.1367186953124957},{"name":"A3","midi":57,"time":103.05551433333163,"velocity":0.7559055118110236,"duration":0.1367186953124957},{"name":"B3","midi":59,"time":103.19440316666496,"velocity":0.7559055118110236,"duration":0.1367186953124957},{"name":"C#4","midi":61,"time":103.33329199999828,"velocity":0.7559055118110236,"duration":0.1367186953124957},{"name":"D4","midi":62,"time":103.4721808333316,"velocity":0.7559055118110236,"duration":0.1367186953124957},{"name":"E4","midi":64,"time":103.61106966666493,"velocity":0.7559055118110236,"duration":0.1367186953124957},{"name":"F#4","midi":66,"time":103.74995849999826,"velocity":0.7559055118110236,"duration":0.1367186953124957},{"name":"G4","midi":67,"time":103.88884733333158,"velocity":0.7559055118110236,"duration":0.1367186953124957},{"name":"A4","midi":69,"time":104.02773616666491,"velocity":0.7559055118110236,"duration":0.1367186953124957},{"name":"B4","midi":71,"time":104.16662499999823,"velocity":0.7559055118110236,"duration":0.1367186953124957},{"name":"C#5","midi":73,"time":104.30551383333156,"velocity":0.7559055118110236,"duration":0.1367186953124957},{"name":"D5","midi":74,"time":104.44440266666489,"velocity":0.7559055118110236,"duration":0.1367186953124957},{"name":"F#4","midi":66,"time":104.44440266666489,"velocity":0.7559055118110236,"duration":0.5533851953124724},{"name":"A4","midi":69,"time":104.44440266666489,"velocity":0.7559055118110236,"duration":0.5533851953124724},{"name":"E5","midi":76,"time":104.58329149999821,"velocity":0.7559055118110236,"duration":0.1367186953124957},{"name":"F#5","midi":78,"time":104.72218033333154,"velocity":0.7559055118110236,"duration":0.1367186953124957},{"name":"G5","midi":79,"time":104.86106916666486,"velocity":0.7559055118110236,"duration":0.1367186953124957},{"name":"A5","midi":81,"time":104.99995799999819,"velocity":0.7559055118110236,"duration":0.1367186953124957},{"name":"F#5","midi":78,"time":105.13884683333151,"velocity":0.7559055118110236,"duration":0.1367186953124957},{"name":"D5","midi":74,"time":105.27773566666484,"velocity":0.7559055118110236,"duration":0.8246524479166624},{"name":"E4","midi":64,"time":105.27773566666484,"velocity":0.7559055118110236,"duration":0.34722208333333526},{"name":"F#4","midi":66,"time":105.5555133333315,"velocity":0.7559055118110236,"duration":0.2756075286458355},{"name":"G4","midi":67,"time":105.83329099999817,"velocity":0.7559055118110236,"duration":0.2756075286458355},{"name":"D5","midi":74,"time":106.11106866666483,"velocity":0.7559055118110236,"duration":0.10199648697916075},{"name":"E4","midi":64,"time":106.11106866666483,"velocity":0.7559055118110236,"duration":0.34722208333332105},{"name":"C#5","midi":73,"time":106.21523529166483,"velocity":0.7559055118110236,"duration":0.10199648697916075},{"name":"D5","midi":74,"time":106.31940191666482,"velocity":0.7559055118110236,"duration":0.10199648697917496},{"name":"F#4","midi":66,"time":106.38884633333149,"velocity":0.7559055118110236,"duration":0.2756075286458355},{"name":"C#5","midi":73,"time":106.42356854166482,"velocity":0.7559055118110236,"duration":0.10199648697917496},{"name":"D5","midi":74,"time":106.52773516666483,"velocity":0.7559055118110236,"duration":0.10199648697916075},{"name":"C#5","midi":73,"time":106.63190179166482,"velocity":0.7559055118110236,"duration":0.10199648697917496},{"name":"G4","midi":67,"time":106.66662399999815,"velocity":0.7559055118110236,"duration":0.2756075286458213},{"name":"B4","midi":71,"time":106.73606841666482,"velocity":0.7559055118110236,"duration":0.10199648697916075},{"name":"C#5","midi":73,"time":106.84023504166481,"velocity":0.7559055118110236,"duration":0.10199648697916075},{"name":"D5","midi":74,"time":106.9444016666648,"velocity":0.7559055118110236,"duration":0.2756075286458355},{"name":"D3","midi":50,"time":106.9444016666648,"velocity":0.7559055118110236,"duration":0.5533851953125009},{"name":"A3","midi":57,"time":106.9444016666648,"velocity":0.7559055118110236,"duration":0.5533851953125009},{"name":"D4","midi":62,"time":106.9444016666648,"velocity":0.7559055118110236,"duration":0.5533851953125009},{"name":"F#4","midi":66,"time":106.9444016666648,"velocity":0.7559055118110236,"duration":0.34722208333333526},{"name":"A4","midi":69,"time":107.22217933333147,"velocity":0.7559055118110236,"duration":0.2756075286458355},{"name":"C5","midi":72,"time":107.49995699999813,"velocity":0.7559055118110236,"duration":0.2756075286458355},{"name":"B4","midi":71,"time":107.7777346666648,"velocity":0.7559055118110236,"duration":0.1367186953124957},{"name":"G4","midi":67,"time":107.7777346666648,"velocity":0.7559055118110236,"duration":0.34722208333332105},{"name":"C#5","midi":73,"time":107.91662349999812,"velocity":0.7559055118110236,"duration":0.1367186953124957},{"name":"D5","midi":74,"time":108.05551233333145,"velocity":0.7559055118110236,"duration":0.2756075286458355},{"name":"B4","midi":71,"time":108.33328999999812,"velocity":0.7559055118110236,"duration":0.2756075286458355},{"name":"A4","midi":69,"time":108.61106766666478,"velocity":0.7559055118110236,"duration":0.2756075286458355},{"name":"F#4","midi":66,"time":108.61106766666478,"velocity":0.7559055118110236,"duration":0.34722208333333526},{"name":"C#5","midi":73,"time":108.88884533333145,"velocity":0.7559055118110236,"duration":0.2756075286458355},{"name":"D5","midi":74,"time":109.16662299999811,"velocity":0.7559055118110236,"duration":0.2756075286458355},{"name":"G4","midi":67,"time":109.44440066666478,"velocity":0.7559055118110236,"duration":0.2756075286458355},{"name":"D3","midi":50,"time":109.44440066666478,"velocity":0.7559055118110236,"duration":0.4340276041666584},{"name":"C#4","midi":61,"time":109.44440066666478,"velocity":0.7559055118110236,"duration":0.4340276041666584},{"name":"E4","midi":64,"time":109.44440066666478,"velocity":0.7559055118110236,"duration":0.4340276041666584},{"name":"A4","midi":69,"time":109.72217833333144,"velocity":0.7559055118110236,"duration":0.1367186953124957},{"name":"G4","midi":67,"time":109.86106716666477,"velocity":0.7559055118110236,"duration":0.1367186953124957},{"name":"F#4","midi":66,"time":109.9999559999981,"velocity":0.7559055118110236,"duration":0.1367186953124957},{"name":"G4","midi":67,"time":110.13884483333142,"velocity":0.7559055118110236,"duration":0.1367186953124957},{"name":"A4","midi":69,"time":110.27773366666474,"velocity":0.7559055118110236,"duration":0.1367186953124957},{"name":"F#4","midi":66,"time":110.27773366666474,"velocity":0.7559055118110236,"duration":0.34722208333332105},{"name":"C#5","midi":73,"time":110.41662249999807,"velocity":0.7559055118110236,"duration":0.1367186953124957},{"name":"D5","midi":74,"time":110.5555113333314,"velocity":0.7559055118110236,"duration":0.2756075286458355},{"name":"A4","midi":69,"time":110.83328899999806,"velocity":0.7559055118110236,"duration":0.2756075286458355},{"name":"G4","midi":67,"time":111.11106666666473,"velocity":0.7559055118110236,"duration":0.2756075286458355},{"name":"E4","midi":64,"time":111.11106666666473,"velocity":0.7559055118110236,"duration":0.34722208333333526},{"name":"C#5","midi":73,"time":111.38884433333139,"velocity":0.7559055118110236,"duration":0.2756075286458355},{"name":"D5","midi":74,"time":111.66662199999806,"velocity":0.7559055118110236,"duration":0.2756075286458355},{"name":"G4","midi":67,"time":111.94439966666472,"velocity":0.7559055118110236,"duration":0.8311628619791378},{"name":"D4","midi":62,"time":111.94439966666472,"velocity":0.7559055118110236,"duration":1.6644958619791055},{"name":"D2","midi":38,"time":112.08328849999806,"velocity":0.7559055118110236,"duration":0.1367186953124957},{"name":"E2","midi":40,"time":112.22217733333139,"velocity":0.7559055118110236,"duration":0.1367186953124957},{"name":"F#2","midi":42,"time":112.36106616666471,"velocity":0.7559055118110236,"duration":0.1367186953124957},{"name":"G2","midi":43,"time":112.49995499999804,"velocity":0.7559055118110236,"duration":0.1367186953124957},{"name":"A2","midi":45,"time":112.63884383333136,"velocity":0.7559055118110236,"duration":0.1367186953124957},{"name":"F#4","midi":66,"time":112.77773266666469,"velocity":0.7559055118110236,"duration":0.824652447916634},{"name":"B2","midi":47,"time":112.77773266666469,"velocity":0.7559055118110236,"duration":0.1367186953124957},{"name":"C#3","midi":49,"time":112.91662149999802,"velocity":0.7559055118110236,"duration":0.1367186953124957},{"name":"D3","midi":50,"time":113.05551033333134,"velocity":0.7559055118110236,"duration":0.1367186953124957},{"name":"E3","midi":52,"time":113.19439916666467,"velocity":0.7559055118110236,"duration":0.1367186953124957},{"name":"F#3","midi":54,"time":113.33328799999799,"velocity":0.7559055118110236,"duration":0.1367186953124957},{"name":"G3","midi":55,"time":113.47217683333132,"velocity":0.7559055118110236,"duration":0.1367186953125099},{"name":"A3","midi":57,"time":113.61106566666466,"velocity":0.7559055118110236,"duration":0.1367186953124957},{"name":"B3","midi":59,"time":113.74995449999798,"velocity":0.7559055118110236,"duration":0.1367186953124957},{"name":"C4","midi":60,"time":113.88884333333131,"velocity":0.7559055118110236,"duration":0.1367186953124957},{"name":"D4","midi":62,"time":114.02773216666463,"velocity":0.7559055118110236,"duration":0.1367186953124957},{"name":"E4","midi":64,"time":114.16662099999796,"velocity":0.7559055118110236,"duration":0.1367186953124957},{"name":"F#4","midi":66,"time":114.30550983333129,"velocity":0.7559055118110236,"duration":0.1367186953124957},{"name":"G4","midi":67,"time":114.44439866666461,"velocity":0.7559055118110236,"duration":0.1367186953124957},{"name":"B3","midi":59,"time":114.44439866666461,"velocity":0.7559055118110236,"duration":0.5533851953124866},{"name":"D4","midi":62,"time":114.44439866666461,"velocity":0.7559055118110236,"duration":0.5533851953124866},{"name":"F#4","midi":66,"time":114.58328749999794,"velocity":0.7559055118110236,"duration":0.1367186953124957},{"name":"G4","midi":67,"time":114.72217633333126,"velocity":0.7559055118110236,"duration":0.2756075286458355},{"name":"D5","midi":74,"time":114.99995399999793,"velocity":0.7559055118110236,"duration":0.4774303645833271},{"name":"B2","midi":47,"time":115.2777316666646,"velocity":0.7559055118110236,"duration":0.34722208333333526},{"name":"C#5","midi":73,"time":115.55550933333126,"velocity":0.7559055118110236,"duration":0.2756075286458355},{"name":"B4","midi":71,"time":115.83328699999792,"velocity":0.7559055118110236,"duration":0.5208331249999958},{"name":"B3","midi":59,"time":116.11106466666459,"velocity":0.7559055118110236,"duration":0.34722208333333526},{"name":"D4","midi":62,"time":116.11106466666459,"velocity":0.7559055118110236,"duration":0.34722208333333526},{"name":"A4","midi":69,"time":116.38884233333125,"velocity":0.7559055118110236,"duration":0.2756075286458355},{"name":"G4","midi":67,"time":116.66661999999792,"velocity":0.7559055118110236,"duration":0.2756075286458355},{"name":"F#4","midi":66,"time":116.94439766666459,"velocity":0.7559055118110236,"duration":0.2756075286458355},{"name":"B3","midi":59,"time":116.94439766666459,"velocity":0.7559055118110236,"duration":0.5425345052083372},{"name":"C#4","midi":61,"time":116.94439766666459,"velocity":0.7559055118110236,"duration":0.5425345052083372},{"name":"F4","midi":65,"time":117.22217533333125,"velocity":0.7559055118110236,"duration":0.2756075286458355},{"name":"C#5","midi":73,"time":117.49995299999792,"velocity":0.7559055118110236,"duration":0.4774303645833271},{"name":"A2","midi":45,"time":117.77773066666458,"velocity":0.7559055118110236,"duration":0.34722208333333526},{"name":"B4","midi":71,"time":118.05550833333125,"velocity":0.7559055118110236,"duration":0.2756075286458355},{"name":"A4","midi":69,"time":118.33328599999791,"velocity":0.7559055118110236,"duration":0.5316838151041594},{"name":"C#4","midi":61,"time":118.61106366666458,"velocity":0.7559055118110236,"duration":0.34722208333333526},{"name":"A3","midi":57,"time":118.61106366666458,"velocity":0.7559055118110236,"duration":0.34722208333333526},{"name":"G4","midi":67,"time":118.88884133333124,"velocity":0.7559055118110236,"duration":0.2756075286458355},{"name":"F#4","midi":66,"time":119.16661899999791,"velocity":0.7559055118110236,"duration":0.2756075286458355},{"name":"E4","midi":64,"time":119.44439666666457,"velocity":0.7559055118110236,"duration":0.2756075286458355},{"name":"A3","midi":57,"time":119.44439666666457,"velocity":0.7559055118110236,"duration":0.5533851953125009},{"name":"B3","midi":59,"time":119.44439666666457,"velocity":0.7559055118110236,"duration":0.5533851953125009},{"name":"D#4","midi":63,"time":119.72217433333124,"velocity":0.7559055118110236,"duration":0.2756075286458355},{"name":"B4","midi":71,"time":119.9999519999979,"velocity":0.7559055118110236,"duration":0.49913174479166855},{"name":"G2","midi":43,"time":120.27772966666457,"velocity":0.7559055118110236,"duration":0.34722208333333526},{"name":"A4","midi":69,"time":120.55550733333124,"velocity":0.7559055118110236,"duration":0.2756075286458355},{"name":"G4","midi":67,"time":120.8332849999979,"velocity":0.7559055118110236,"duration":0.5316838151041594},{"name":"B3","midi":59,"time":121.11106266666457,"velocity":0.7559055118110236,"duration":0.34722208333333526},{"name":"G3","midi":55,"time":121.11106266666457,"velocity":0.7559055118110236,"duration":0.34722208333333526},{"name":"F#4","midi":66,"time":121.38884033333123,"velocity":0.7559055118110236,"duration":0.2756075286458355},{"name":"E4","midi":64,"time":121.6666179999979,"velocity":0.7559055118110236,"duration":0.2756075286458355},{"name":"C#5","midi":73,"time":121.94439566666456,"velocity":0.7559055118110236,"duration":0.5533851953125009},{"name":"A3","midi":57,"time":121.94439566666456,"velocity":0.7559055118110236,"duration":0.5533851953125009},{"name":"G3","midi":55,"time":121.94439566666456,"velocity":0.7559055118110236,"duration":0.34722208333333526},{"name":"E4","midi":64,"time":122.22217333333123,"velocity":0.7559055118110236,"duration":0.2756075286458355},{"name":"A4","midi":69,"time":122.49995099999789,"velocity":0.7559055118110236,"duration":0.2756075286458355},{"name":"C#4","midi":61,"time":122.49995099999789,"velocity":0.7559055118110236,"duration":0.2756075286458355},{"name":"D5","midi":74,"time":122.77772866666456,"velocity":0.7559055118110236,"duration":0.5533851953125009},{"name":"F#3","midi":54,"time":122.77772866666456,"velocity":0.7559055118110236,"duration":0.34722208333333526},{"name":"A3","midi":57,"time":122.77772866666456,"velocity":0.7559055118110236,"duration":0.5533851953125009},{"name":"F#4","midi":66,"time":123.05550633333122,"velocity":0.7559055118110236,"duration":0.2756075286458355},{"name":"A4","midi":69,"time":123.33328399999789,"velocity":0.7559055118110236,"duration":0.2756075286458355},{"name":"D4","midi":62,"time":123.33328399999789,"velocity":0.7559055118110236,"duration":0.2756075286458355},{"name":"E5","midi":76,"time":123.61106166666455,"velocity":0.7559055118110236,"duration":0.5533851953125009},{"name":"G3","midi":55,"time":123.61106166666455,"velocity":0.7559055118110236,"duration":0.5533851953125009},{"name":"E3","midi":52,"time":123.61106166666455,"velocity":0.7559055118110236,"duration":0.34722208333333526},{"name":"G4","midi":67,"time":123.88883933333122,"velocity":0.7559055118110236,"duration":0.2756075286458355},{"name":"A4","midi":69,"time":124.16661699999788,"velocity":0.7559055118110236,"duration":0.2756075286458355},{"name":"C#4","midi":61,"time":124.16661699999788,"velocity":0.7559055118110236,"duration":0.2756075286458355},{"name":"F#5","midi":78,"time":124.44439466666455,"velocity":0.7559055118110236,"duration":0.4079859479166714},{"name":"D4","midi":62,"time":124.44439466666455,"velocity":0.7559055118110236,"duration":0.5533851953125009},{"name":"D3","midi":50,"time":124.44439466666455,"velocity":0.7559055118110236,"duration":0.5533851953125009},{"name":"A4","midi":69,"time":124.58328349999789,"velocity":0.7559055118110236,"duration":0.1367186953124957},{"name":"D5","midi":74,"time":124.72217233333122,"velocity":0.7559055118110236,"duration":0.1367186953125099},{"name":"F#5","midi":78,"time":124.86106116666456,"velocity":0.7559055118110236,"duration":0.1367186953124957},{"name":"D5","midi":74,"time":124.99994999999788,"velocity":0.7559055118110236,"duration":0.1367186953124957},{"name":"A4","midi":69,"time":125.1388388333312,"velocity":0.7559055118110236,"duration":0.1367186953124957},{"name":"G#4","midi":68,"time":125.27772766666453,"velocity":0.7559055118110236,"duration":0.4774303645833271},{"name":"B4","midi":71,"time":125.41661649999787,"velocity":0.7559055118110236,"duration":0.1367186953124957},{"name":"D5","midi":74,"time":125.5555053333312,"velocity":0.7559055118110236,"duration":0.1367186953124957},{"name":"F#5","midi":78,"time":125.69439416666452,"velocity":0.7559055118110236,"duration":0.1367186953125099},{"name":"D5","midi":74,"time":125.83328299999786,"velocity":0.7559055118110236,"duration":0.1367186953124957},{"name":"B4","midi":71,"time":125.97217183333119,"velocity":0.7559055118110236,"duration":0.1367186953124957},{"name":"C#4","midi":61,"time":126.11106066666451,"velocity":0.7559055118110236,"duration":0.34722208333333526},{"name":"A#4","midi":70,"time":126.11106066666451,"velocity":0.7559055118110236,"duration":0.4774303645833413},{"name":"C#5","midi":73,"time":126.24994949999785,"velocity":0.7559055118110236,"duration":0.1367186953124957},{"name":"E5","midi":76,"time":126.38883833333118,"velocity":0.7559055118110236,"duration":0.1367186953125099},{"name":"F#5","midi":78,"time":126.52772716666452,"velocity":0.7559055118110236,"duration":0.1367186953125099},{"name":"E5","midi":76,"time":126.66661599999786,"velocity":0.7559055118110236,"duration":0.1367186953124957},{"name":"C#5","midi":73,"time":126.80550483333118,"velocity":0.7559055118110236,"duration":0.1367186953124957},{"name":"D5","midi":74,"time":126.94439366666451,"velocity":0.7559055118110236,"duration":0.2756075286458355},{"name":"B3","midi":59,"time":126.94439366666451,"velocity":0.7559055118110236,"duration":0.34722208333333526},{"name":"B4","midi":71,"time":126.94439366666451,"velocity":0.7559055118110236,"duration":0.2734373906250056},{"name":"B4","midi":71,"time":127.22217133333118,"velocity":0.7559055118110236,"duration":0.5533851953125009},{"name":"D5","midi":74,"time":127.49994899999784,"velocity":0.7559055118110236,"duration":0.2756075286458355},{"name":"G5","midi":79,"time":127.7777266666645,"velocity":0.7559055118110236,"duration":0.3472220833333495},{"name":"E4","midi":64,"time":127.7777266666645,"velocity":0.7559055118110236,"duration":0.3472220833333495},{"name":"B4","midi":71,"time":128.05550433333119,"velocity":0.7559055118110236,"duration":0.2756075286458497},{"name":"D5","midi":74,"time":128.33328199999787,"velocity":0.7559055118110236,"duration":0.2756075286458213},{"name":"A5","midi":81,"time":128.61105966666452,"velocity":0.7559055118110236,"duration":0.3472220833333495},{"name":"A3","midi":57,"time":128.61105966666452,"velocity":0.7559055118110236,"duration":0.3472220833333495},{"name":"F#4","midi":66,"time":128.61105966666452,"velocity":0.7559055118110236,"duration":0.3472220833333495},{"name":"C5","midi":72,"time":128.8888373333312,"velocity":0.7559055118110236,"duration":0.2756075286458497},{"name":"D5","midi":74,"time":129.16661499999788,"velocity":0.7559055118110236,"duration":0.2756075286458213},{"name":"B5","midi":83,"time":129.44439266666453,"velocity":0.7559055118110236,"duration":0.2604165625000121},{"name":"G3","midi":55,"time":129.44439266666453,"velocity":0.7559055118110236,"duration":0.3472220833333495},{"name":"G4","midi":67,"time":129.44439266666453,"velocity":0.7559055118110236,"duration":0.3472220833333495},{"name":"D5","midi":74,"time":129.58328149999787,"velocity":0.7559055118110236,"duration":0.1367186953125099},{"name":"G5","midi":79,"time":129.7221703333312,"velocity":0.7559055118110236,"duration":0.1367186953125099},{"name":"B5","midi":83,"time":129.86105916666455,"velocity":0.7559055118110236,"duration":0.1367186953125099},{"name":"G5","midi":79,"time":129.9999479999979,"velocity":0.7559055118110236,"duration":0.1367186953125099},{"name":"D5","midi":74,"time":130.13883683333123,"velocity":0.7559055118110236,"duration":0.1367186953125099},{"name":"C#5","midi":73,"time":130.27772566666457,"velocity":0.7559055118110236,"duration":0.3472220833333495},{"name":"E5","midi":76,"time":130.4166144999979,"velocity":0.7559055118110236,"duration":0.1367186953125099},{"name":"G5","midi":79,"time":130.55550333333125,"velocity":0.7559055118110236,"duration":0.1367186953125099},{"name":"B5","midi":83,"time":130.69439216666458,"velocity":0.7559055118110236,"duration":0.1367186953125099},{"name":"G5","midi":79,"time":130.83328099999792,"velocity":0.7559055118110236,"duration":0.1367186953125099},{"name":"E5","midi":76,"time":130.97216983333126,"velocity":0.7559055118110236,"duration":0.1367186953125099},{"name":"F#4","midi":66,"time":131.1110586666646,"velocity":0.7559055118110236,"duration":0.3472220833333495},{"name":"D#5","midi":75,"time":131.1110586666646,"velocity":0.7559055118110236,"duration":0.3472220833333495},{"name":"F#5","midi":78,"time":131.24994749999794,"velocity":0.7559055118110236,"duration":0.1367186953125099},{"name":"A5","midi":81,"time":131.38883633333128,"velocity":0.7559055118110236,"duration":0.1367186953125099},{"name":"B5","midi":83,"time":131.52772516666462,"velocity":0.7559055118110236,"duration":0.1367186953125099},{"name":"A5","midi":81,"time":131.66661399999796,"velocity":0.7559055118110236,"duration":0.1367186953125099},{"name":"F#5","midi":78,"time":131.8055028333313,"velocity":0.7559055118110236,"duration":0.1367186953125099},{"name":"G5","midi":79,"time":131.94439166666464,"velocity":0.7559055118110236,"duration":0.1367186953125099},{"name":"E4","midi":64,"time":131.94439166666464,"velocity":0.7559055118110236,"duration":0.2756075286458497},{"name":"F#5","midi":78,"time":132.08328049999798,"velocity":0.7559055118110236,"duration":0.1367186953125099},{"name":"E5","midi":76,"time":132.22216933333132,"velocity":0.7559055118110236,"duration":0.1367186953125099},{"name":"G3","midi":55,"time":132.22216933333132,"velocity":0.7559055118110236,"duration":0.2756075286458497},{"name":"D#5","midi":75,"time":132.36105816666466,"velocity":0.7559055118110236,"duration":0.1367186953125099},{"name":"E5","midi":76,"time":132.499946999998,"velocity":0.7559055118110236,"duration":0.1367186953125099},{"name":"B3","midi":59,"time":132.499946999998,"velocity":0.7559055118110236,"duration":0.2756075286458497},{"name":"G5","midi":79,"time":132.63883583333134,"velocity":0.7559055118110236,"duration":0.1367186953125099},{"name":"A4","midi":69,"time":132.77772466666468,"velocity":0.7559055118110236,"duration":0.2604165625000121},{"name":"C4","midi":60,"time":132.77772466666468,"velocity":0.7559055118110236,"duration":0.2756075286458497},{"name":"F#5","midi":78,"time":132.91661349999802,"velocity":0.7559055118110236,"duration":0.1367186953125099},{"name":"E5","midi":76,"time":133.05550233333136,"velocity":0.7559055118110236,"duration":0.1367186953125099},{"name":"F#3","midi":54,"time":133.05550233333136,"velocity":0.7559055118110236,"duration":0.2756075286458497},{"name":"D#5","midi":75,"time":133.1943911666647,"velocity":0.7559055118110236,"duration":0.1367186953125099},{"name":"E5","midi":76,"time":133.33327999999804,"velocity":0.7559055118110236,"duration":0.1367186953125099},{"name":"A3","midi":57,"time":133.33327999999804,"velocity":0.7559055118110236,"duration":0.2756075286458497},{"name":"G5","midi":79,"time":133.47216883333138,"velocity":0.7559055118110236,"duration":0.1367186953125099},{"name":"G4","midi":67,"time":133.61105766666472,"velocity":0.7559055118110236,"duration":0.2604165625000121},{"name":"B3","midi":59,"time":133.61105766666472,"velocity":0.7559055118110236,"duration":0.2756075286458497},{"name":"F#5","midi":78,"time":133.74994649999806,"velocity":0.7559055118110236,"duration":0.1367186953125099},{"name":"E5","midi":76,"time":133.8888353333314,"velocity":0.7559055118110236,"duration":0.1367186953125099},{"name":"E3","midi":52,"time":133.8888353333314,"velocity":0.7559055118110236,"duration":0.2756075286458497},{"name":"D#5","midi":75,"time":134.02772416666474,"velocity":0.7559055118110236,"duration":0.1367186953125099},{"name":"E5","midi":76,"time":134.16661299999808,"velocity":0.7559055118110236,"duration":0.1367186953125099},{"name":"G3","midi":55,"time":134.16661299999808,"velocity":0.7559055118110236,"duration":0.2756075286458497},{"name":"G5","midi":79,"time":134.30550183333142,"velocity":0.7559055118110236,"duration":0.1367186953125099},{"name":"C5","midi":72,"time":134.44439066666476,"velocity":0.7559055118110236,"duration":0.1367186953125099},{"name":"A3","midi":57,"time":134.44439066666476,"velocity":0.7559055118110236,"duration":0.2756075286458497},{"name":"F#5","midi":78,"time":134.5832794999981,"velocity":0.7559055118110236,"duration":0.1367186953125099},{"name":"A5","midi":81,"time":134.72216833333144,"velocity":0.7559055118110236,"duration":0.694444166666699},{"name":"B3","midi":59,"time":134.72216833333144,"velocity":0.7559055118110236,"duration":0.1367186953125099},{"name":"A3","midi":57,"time":134.86105716666478,"velocity":0.7559055118110236,"duration":0.1367186953125099},{"name":"G3","midi":55,"time":134.99994599999812,"velocity":0.7559055118110236,"duration":0.1367186953125099},{"name":"F#3","midi":54,"time":135.13883483333146,"velocity":0.7559055118110236,"duration":0.1367186953125099},{"name":"B3","midi":59,"time":135.2777236666648,"velocity":0.7559055118110236,"duration":0.2756075286458497},{"name":"G5","midi":79,"time":135.55550133333148,"velocity":0.7559055118110236,"duration":0.1367186953125099},{"name":"E3","midi":52,"time":135.55550133333148,"velocity":0.7559055118110236,"duration":0.2756075286458497},{"name":"F#5","midi":78,"time":135.69439016666482,"velocity":0.7559055118110236,"duration":0.1367186953125099},{"name":"E5","midi":76,"time":135.83327899999816,"velocity":0.7559055118110236,"duration":0.1367186953125099},{"name":"G3","midi":55,"time":135.83327899999816,"velocity":0.7559055118110236,"duration":0.2756075286458497},{"name":"D5","midi":74,"time":135.9721678333315,"velocity":0.7559055118110236,"duration":0.1367186953125099},{"name":"C5","midi":72,"time":136.11105666666484,"velocity":0.7559055118110236,"duration":0.1367186953125099},{"name":"A3","midi":57,"time":136.11105666666484,"velocity":0.7559055118110236,"duration":0.2756075286458497},{"name":"D#5","midi":75,"time":136.24994549999818,"velocity":0.7559055118110236,"duration":0.1367186953125099},{"name":"F#5","midi":78,"time":136.38883433333152,"velocity":0.7559055118110236,"duration":0.6944441666666421},{"name":"D#3","midi":51,"time":136.38883433333152,"velocity":0.7559055118110236,"duration":0.2756075286458213},{"name":"F#3","midi":54,"time":136.66661199999817,"velocity":0.7559055118110236,"duration":0.2756075286458213},{"name":"G3","midi":55,"time":136.94438966666482,"velocity":0.7559055118110236,"duration":0.1367186953125099},{"name":"F#3","midi":54,"time":137.08327849999816,"velocity":0.7559055118110236,"duration":0.1367186953125099},{"name":"G4","midi":67,"time":137.2221673333315,"velocity":0.7559055118110236,"duration":0.2756075286458497},{"name":"E3","midi":52,"time":137.2221673333315,"velocity":0.7559055118110236,"duration":0.1367186953125099},{"name":"D#3","midi":51,"time":137.36105616666484,"velocity":0.7559055118110236,"duration":0.1367186953125099},{"name":"B4","midi":71,"time":137.49994499999818,"velocity":0.7559055118110236,"duration":0.2756075286458497},{"name":"E3","midi":52,"time":137.49994499999818,"velocity":0.7559055118110236,"duration":0.1367186953125099},{"name":"G3","midi":55,"time":137.63883383333152,"velocity":0.7559055118110236,"duration":0.1367186953125099},{"name":"C5","midi":72,"time":137.77772266666486,"velocity":0.7559055118110236,"duration":0.3038193229166666},{"name":"A2","midi":45,"time":137.77772266666486,"velocity":0.7559055118110236,"duration":0.1367186953125099},{"name":"F#3","midi":54,"time":137.9166114999982,"velocity":0.7559055118110236,"duration":0.1367186953125099},{"name":"F#4","midi":66,"time":138.05550033333154,"velocity":0.7559055118110236,"duration":0.2604165624999837},{"name":"E3","midi":52,"time":138.05550033333154,"velocity":0.7559055118110236,"duration":0.1367186953124815},{"name":"D3","midi":50,"time":138.19438916666485,"velocity":0.7559055118110236,"duration":0.1367186953125099},{"name":"A4","midi":69,"time":138.3332779999982,"velocity":0.7559055118110236,"duration":0.2604165625000121},{"name":"E3","midi":52,"time":138.3332779999982,"velocity":0.7559055118110236,"duration":0.1367186953125099},{"name":"F#3","midi":54,"time":138.47216683333153,"velocity":0.7559055118110236,"duration":0.1367186953125099},{"name":"B4","midi":71,"time":138.61105566666487,"velocity":0.7559055118110236,"duration":0.3038193229166666},{"name":"G2","midi":43,"time":138.61105566666487,"velocity":0.7559055118110236,"duration":0.1367186953125099},{"name":"F#3","midi":54,"time":138.7499444999982,"velocity":0.7559055118110236,"duration":0.1367186953125099},{"name":"E4","midi":64,"time":138.88883333333155,"velocity":0.7559055118110236,"duration":0.2604165624999837},{"name":"E3","midi":52,"time":138.88883333333155,"velocity":0.7559055118110236,"duration":0.1367186953124815},{"name":"D#3","midi":51,"time":139.02772216666486,"velocity":0.7559055118110236,"duration":0.1367186953125099},{"name":"G4","midi":67,"time":139.1666109999982,"velocity":0.7559055118110236,"duration":0.2604165625000121},{"name":"E3","midi":52,"time":139.1666109999982,"velocity":0.7559055118110236,"duration":0.1367186953125099},{"name":"G3","midi":55,"time":139.30549983333154,"velocity":0.7559055118110236,"duration":0.1367186953125099},{"name":"A4","midi":69,"time":139.44438866666488,"velocity":0.7559055118110236,"duration":0.2756075286458497},{"name":"C3","midi":48,"time":139.44438866666488,"velocity":0.7559055118110236,"duration":0.1367186953125099},{"name":"E3","midi":52,"time":139.58327749999822,"velocity":0.7559055118110236,"duration":0.1367186953125099},{"name":"B4","midi":71,"time":139.72216633333156,"velocity":0.7559055118110236,"duration":0.1367186953125099},{"name":"A3","midi":57,"time":139.72216633333156,"velocity":0.7559055118110236,"duration":0.5208331250000242},{"name":"A4","midi":69,"time":139.8610551666649,"velocity":0.7559055118110236,"duration":0.1367186953125099},{"name":"G4","midi":67,"time":139.99994399999824,"velocity":0.7559055118110236,"duration":0.1367186953125099},{"name":"F#4","midi":66,"time":140.13883283333158,"velocity":0.7559055118110236,"duration":0.1367186953125099},{"name":"B4","midi":71,"time":140.27772166666492,"velocity":0.7559055118110236,"duration":0.3038193229166666},{"name":"E4","midi":64,"time":140.5554993333316,"velocity":0.7559055118110236,"duration":0.2604165624999837},{"name":"G3","midi":55,"time":140.5554993333316,"velocity":0.7559055118110236,"duration":0.1367186953124815},{"name":"F#3","midi":54,"time":140.6943881666649,"velocity":0.7559055118110236,"duration":0.1367186953125099},{"name":"G4","midi":67,"time":140.83327699999825,"velocity":0.7559055118110236,"duration":0.2604165625000121},{"name":"E3","midi":52,"time":140.83327699999825,"velocity":0.7559055118110236,"duration":0.1367186953125099},{"name":"D3","midi":50,"time":140.9721658333316,"velocity":0.7559055118110236,"duration":0.1367186953125099},{"name":"A4","midi":69,"time":141.11105466666493,"velocity":0.7559055118110236,"duration":0.3038193229166666},{"name":"C3","midi":48,"time":141.11105466666493,"velocity":0.7559055118110236,"duration":0.1367186953125099},{"name":"D#3","midi":51,"time":141.24994349999827,"velocity":0.7559055118110236,"duration":0.1367186953125099},{"name":"D#4","midi":63,"time":141.3888323333316,"velocity":0.7559055118110236,"duration":0.2604165624999837},{"name":"F#3","midi":54,"time":141.3888323333316,"velocity":0.7559055118110236,"duration":0.5208331249999958},{"name":"F#4","midi":66,"time":141.66660999999826,"velocity":0.7559055118110236,"duration":0.2604165625000121},{"name":"G4","midi":67,"time":141.94438766666494,"velocity":0.7559055118110236,"duration":0.1367186953125099},{"name":"E4","midi":64,"time":142.08327649999828,"velocity":0.7559055118110236,"duration":0.1367186953125099},{"name":"F#4","midi":66,"time":142.22216533333162,"velocity":0.7559055118110236,"duration":0.1367186953125099},{"name":"G4","midi":67,"time":142.36105416666496,"velocity":0.7559055118110236,"duration":0.1367186953125099},{"name":"E3","midi":52,"time":142.36105416666496,"velocity":0.7559055118110236,"duration":0.1367186953125099},{"name":"A4","midi":69,"time":142.4999429999983,"velocity":0.7559055118110236,"duration":0.1367186953125099},{"name":"F#3","midi":54,"time":142.4999429999983,"velocity":0.7559055118110236,"duration":0.1367186953125099},{"name":"B4","midi":71,"time":142.63883183333164,"velocity":0.7559055118110236,"duration":0.1367186953125099},{"name":"G3","midi":55,"time":142.63883183333164,"velocity":0.7559055118110236,"duration":0.1367186953125099},{"name":"C5","midi":72,"time":142.77772066666498,"velocity":0.7559055118110236,"duration":0.1367186953125099},{"name":"A3","midi":57,"time":142.77772066666498,"velocity":0.7559055118110236,"duration":0.1367186953125099},{"name":"A4","midi":69,"time":142.91660949999832,"velocity":0.7559055118110236,"duration":0.1367186953125099},{"name":"B3","midi":59,"time":142.91660949999832,"velocity":0.7559055118110236,"duration":0.1367186953125099},{"name":"B4","midi":71,"time":143.05549833333166,"velocity":0.7559055118110236,"duration":0.1367186953125099},{"name":"A3","midi":57,"time":143.05549833333166,"velocity":0.7559055118110236,"duration":0.1367186953125099},{"name":"C#5","midi":73,"time":143.194387166665,"velocity":0.7559055118110236,"duration":0.1367186953125099},{"name":"G3","midi":55,"time":143.194387166665,"velocity":0.7559055118110236,"duration":0.1367186953125099},{"name":"D#5","midi":75,"time":143.33327599999834,"velocity":0.7559055118110236,"duration":0.1367186953125099},{"name":"F#3","midi":54,"time":143.33327599999834,"velocity":0.7559055118110236,"duration":0.1367186953125099},{"name":"E5","midi":76,"time":143.47216483333168,"velocity":0.7559055118110236,"duration":0.1367186953125099},{"name":"E3","midi":52,"time":143.47216483333168,"velocity":0.7559055118110236,"duration":0.1367186953125099},{"name":"F#5","midi":78,"time":143.61105366666501,"velocity":0.7559055118110236,"duration":0.1367186953125099},{"name":"D#3","midi":51,"time":143.61105366666501,"velocity":0.7559055118110236,"duration":0.1367186953125099},{"name":"D#5","midi":75,"time":143.74994249999835,"velocity":0.7559055118110236,"duration":0.1367186953125099},{"name":"B2","midi":47,"time":143.74994249999835,"velocity":0.7559055118110236,"duration":0.1367186953125099},{"name":"E5","midi":76,"time":143.8888313333317,"velocity":0.7559055118110236,"duration":0.1367186953125099},{"name":"C#3","midi":49,"time":143.8888313333317,"velocity":0.7559055118110236,"duration":0.1367186953125099},{"name":"F#5","midi":78,"time":144.02772016666503,"velocity":0.7559055118110236,"duration":0.1367186953125099},{"name":"D#3","midi":51,"time":144.02772016666503,"velocity":0.7559055118110236,"duration":0.1367186953125099},{"name":"G5","midi":79,"time":144.16660899999837,"velocity":0.7559055118110236,"duration":0.1367186953125099},{"name":"E3","midi":52,"time":144.16660899999837,"velocity":0.7559055118110236,"duration":0.1367186953125099},{"name":"A5","midi":81,"time":144.3054978333317,"velocity":0.7559055118110236,"duration":0.1367186953125099},{"name":"F#3","midi":54,"time":144.3054978333317,"velocity":0.7559055118110236,"duration":0.1367186953125099},{"name":"B5","midi":83,"time":144.44438666666505,"velocity":0.7559055118110236,"duration":0.1367186953125099},{"name":"G3","midi":55,"time":144.44438666666505,"velocity":0.7559055118110236,"duration":0.1367186953125099},{"name":"A5","midi":81,"time":144.5832754999984,"velocity":0.7559055118110236,"duration":0.1367186953125099},{"name":"E3","midi":52,"time":144.5832754999984,"velocity":0.7559055118110236,"duration":0.1367186953125099},{"name":"G5","midi":79,"time":144.72216433333173,"velocity":0.7559055118110236,"duration":0.1367186953125099},{"name":"F#3","midi":54,"time":144.72216433333173,"velocity":0.7559055118110236,"duration":0.1367186953125099},{"name":"F#5","midi":78,"time":144.86105316666507,"velocity":0.7559055118110236,"duration":0.1367186953125099},{"name":"G3","midi":55,"time":144.86105316666507,"velocity":0.7559055118110236,"duration":0.1367186953125099},{"name":"E5","midi":76,"time":144.9999419999984,"velocity":0.7559055118110236,"duration":0.1367186953125099},{"name":"A3","midi":57,"time":144.9999419999984,"velocity":0.7559055118110236,"duration":0.1367186953125099},{"name":"D#5","midi":75,"time":145.13883083333175,"velocity":0.7559055118110236,"duration":0.1367186953125099},{"name":"B3","midi":59,"time":145.13883083333175,"velocity":0.7559055118110236,"duration":0.1367186953125099},{"name":"E5","midi":76,"time":145.2777196666651,"velocity":0.7559055118110236,"duration":0.2756075286458497},{"name":"C4","midi":60,"time":145.2777196666651,"velocity":0.7559055118110236,"duration":0.1367186953125099},{"name":"D4","midi":62,"time":145.41660849999843,"velocity":0.7559055118110236,"duration":0.1367186953125099},{"name":"F#5","midi":78,"time":145.55549733333177,"velocity":0.7559055118110236,"duration":0.1367186953125099},{"name":"C4","midi":60,"time":145.55549733333177,"velocity":0.7559055118110236,"duration":0.1367186953125099},{"name":"G5","midi":79,"time":145.6943861666651,"velocity":0.7559055118110236,"duration":0.1367186953125099},{"name":"B3","midi":59,"time":145.6943861666651,"velocity":0.7559055118110236,"duration":0.1367186953125099},{"name":"A5","midi":81,"time":145.83327499999845,"velocity":0.7559055118110236,"duration":0.1367186953125099},{"name":"C4","midi":60,"time":145.83327499999845,"velocity":0.7559055118110236,"duration":0.1367186953125099},{"name":"F#5","midi":78,"time":145.9721638333318,"velocity":0.7559055118110236,"duration":0.1367186953125099},{"name":"A3","midi":57,"time":145.9721638333318,"velocity":0.7559055118110236,"duration":0.1367186953125099},{"name":"E5","midi":76,"time":146.11105266666513,"velocity":0.7559055118110236,"duration":0.1388888333333398},{"name":"B3","midi":59,"time":146.11105266666513,"velocity":0.7559055118110236,"duration":0.5533851953125009},{"name":"D#5","midi":75,"time":146.24994149999847,"velocity":0.7559055118110236,"duration":0.08680552083333737},{"name":"E5","midi":76,"time":146.31938591666514,"velocity":0.7559055118110236,"duration":0.08680552083333737},{"name":"D#5","midi":75,"time":146.3888303333318,"velocity":0.7559055118110236,"duration":0.2756075286458213},{"name":"E5","midi":76,"time":146.66660799999846,"velocity":0.7559055118110236,"duration":0.2756075286458213},{"name":"B2","midi":47,"time":146.66660799999846,"velocity":0.7559055118110236,"duration":0.2756075286458213},{"name":"E5","midi":76,"time":146.9443856666651,"velocity":0.7559055118110236,"duration":0.1367186953125099},{"name":"E2","midi":40,"time":146.9443856666651,"velocity":0.7559055118110236,"duration":0.8246524479166908},{"name":"D5","midi":74,"time":147.08327449999845,"velocity":0.7559055118110236,"duration":0.1367186953125099},{"name":"C5","midi":72,"time":147.2221633333318,"velocity":0.7559055118110236,"duration":0.1367186953125099},{"name":"B4","midi":71,"time":147.36105216666513,"velocity":0.7559055118110236,"duration":0.1367186953125099},{"name":"A4","midi":69,"time":147.49994099999847,"velocity":0.7559055118110236,"duration":0.1367186953125099},{"name":"G4","midi":67,"time":147.6388298333318,"velocity":0.7559055118110236,"duration":0.1367186953124815},{"name":"F#4","midi":66,"time":147.77771866666512,"velocity":0.7559055118110236,"duration":0.1367186953125099},{"name":"E4","midi":64,"time":147.91660749999846,"velocity":0.7559055118110236,"duration":0.1367186953125099},{"name":"D#4","midi":63,"time":148.0554963333318,"velocity":0.7559055118110236,"duration":0.1367186953125099},{"name":"C#4","midi":61,"time":148.19438516666514,"velocity":0.7559055118110236,"duration":0.1367186953125099},{"name":"B3","midi":59,"time":148.33327399999848,"velocity":0.7559055118110236,"duration":0.1367186953125099},{"name":"A3","midi":57,"time":148.47216283333182,"velocity":0.7559055118110236,"duration":0.1367186953125099},{"name":"G3","midi":55,"time":148.61105166666516,"velocity":0.7559055118110236,"duration":0.1367186953125099},{"name":"F#3","midi":54,"time":148.7499404999985,"velocity":0.7559055118110236,"duration":0.1367186953125099},{"name":"E3","midi":52,"time":148.88882933333184,"velocity":0.7559055118110236,"duration":0.1367186953125099},{"name":"D3","midi":50,"time":149.02771816666518,"velocity":0.7559055118110236,"duration":0.1367186953125099},{"name":"G5","midi":79,"time":149.16660699999852,"velocity":0.7559055118110236,"duration":2.22005119531255},{"name":"C#3","midi":49,"time":149.16660699999852,"velocity":0.7559055118110236,"duration":0.1367186953125099},{"name":"B2","midi":47,"time":149.30549583333186,"velocity":0.7559055118110236,"duration":0.1367186953125099},{"name":"A2","midi":45,"time":149.4443846666652,"velocity":0.7559055118110236,"duration":0.2756075286458213},{"name":"C#3","midi":49,"time":149.72216233333185,"velocity":0.7559055118110236,"duration":0.2756075286458497},{"name":"A4","midi":69,"time":149.72216233333185,"velocity":0.7559055118110236,"duration":0.1367186953125099},{"name":"B4","midi":71,"time":149.8610511666652,"velocity":0.7559055118110236,"duration":0.1367186953125099},{"name":"E3","midi":52,"time":149.99993999999853,"velocity":0.7559055118110236,"duration":0.2756075286458497},{"name":"C#5","midi":73,"time":149.99993999999853,"velocity":0.7559055118110236,"duration":0.1367186953125099},{"name":"D5","midi":74,"time":150.13882883333187,"velocity":0.7559055118110236,"duration":0.1367186953125099},{"name":"A3","midi":57,"time":150.2777176666652,"velocity":0.7559055118110236,"duration":0.2756075286458497},{"name":"E5","midi":76,"time":150.2777176666652,"velocity":0.7559055118110236,"duration":0.1367186953125099},{"name":"F#5","midi":78,"time":150.41660649999855,"velocity":0.7559055118110236,"duration":0.1367186953125099},{"name":"E3","midi":52,"time":150.5554953333319,"velocity":0.7559055118110236,"duration":0.2756075286458497},{"name":"E5","midi":76,"time":150.5554953333319,"velocity":0.7559055118110236,"duration":0.1367186953125099},{"name":"D5","midi":74,"time":150.69438416666523,"velocity":0.7559055118110236,"duration":0.1367186953125099},{"name":"A3","midi":57,"time":150.83327299999857,"velocity":0.7559055118110236,"duration":0.2756075286458497},{"name":"C#5","midi":73,"time":150.83327299999857,"velocity":0.7559055118110236,"duration":0.1367186953125099},{"name":"B4","midi":71,"time":150.9721618333319,"velocity":0.7559055118110236,"duration":0.1367186953125099},{"name":"C#4","midi":61,"time":151.11105066666525,"velocity":0.7559055118110236,"duration":0.2756075286458213},{"name":"A4","midi":69,"time":151.11105066666525,"velocity":0.7559055118110236,"duration":1.6644958619792192},{"name":"E5","midi":76,"time":151.3888283333319,"velocity":0.7559055118110236,"duration":0.2756075286458497},{"name":"D4","midi":62,"time":151.3888283333319,"velocity":0.7559055118110236,"duration":0.1367186953125099},{"name":"C#4","midi":61,"time":151.52771716666524,"velocity":0.7559055118110236,"duration":0.1367186953125099},{"name":"G5","midi":79,"time":151.66660599999858,"velocity":0.7559055118110236,"duration":0.2756075286458497},{"name":"B3","midi":59,"time":151.66660599999858,"velocity":0.7559055118110236,"duration":0.1367186953125099},{"name":"A3","midi":57,"time":151.80549483333192,"velocity":0.7559055118110236,"duration":0.1367186953125099},{"name":"F#5","midi":78,"time":151.94438366666526,"velocity":0.7559055118110236,"duration":0.1367186953125099},{"name":"D4","midi":62,"time":151.94438366666526,"velocity":0.7559055118110236,"duration":0.2756075286458497},{"name":"E5","midi":76,"time":152.0832724999986,"velocity":0.7559055118110236,"duration":0.1367186953125099},{"name":"D5","midi":74,"time":152.22216133333194,"velocity":0.7559055118110236,"duration":0.1367186953125099},{"name":"A3","midi":57,"time":152.22216133333194,"velocity":0.7559055118110236,"duration":0.2756075286458497},{"name":"E5","midi":76,"time":152.36105016666528,"velocity":0.7559055118110236,"duration":0.1367186953125099},{"name":"F#5","midi":78,"time":152.49993899999862,"velocity":0.7559055118110236,"duration":0.1367186953125099},{"name":"D4","midi":62,"time":152.49993899999862,"velocity":0.7559055118110236,"duration":0.2756075286458497},{"name":"G5","midi":79,"time":152.63882783333196,"velocity":0.7559055118110236,"duration":0.1367186953125099},{"name":"A5","midi":81,"time":152.7777166666653,"velocity":0.7559055118110236,"duration":0.19531242187500197},{"name":"F#4","midi":66,"time":152.7777166666653,"velocity":0.7559055118110236,"duration":0.2756075286458213},{"name":"G5","midi":79,"time":152.91660549999864,"velocity":0.7559055118110236,"duration":0.1367186953124815},{"name":"F#5","midi":78,"time":153.05549433333195,"velocity":0.7559055118110236,"duration":0.1367186953125099},{"name":"D4","midi":62,"time":153.05549433333195,"velocity":0.7559055118110236,"duration":0.2756075286458497},{"name":"G5","midi":79,"time":153.1943831666653,"velocity":0.7559055118110236,"duration":0.1367186953125099},{"name":"A5","midi":81,"time":153.33327199999863,"velocity":0.7559055118110236,"duration":0.1367186953125099},{"name":"F#4","midi":66,"time":153.33327199999863,"velocity":0.7559055118110236,"duration":0.2756075286458497},{"name":"B5","midi":83,"time":153.47216083333197,"velocity":0.7559055118110236,"duration":0.1367186953125099},{"name":"C6","midi":84,"time":153.6110496666653,"velocity":0.7559055118110236,"duration":0.2712672526041615},{"name":"A4","midi":69,"time":153.6110496666653,"velocity":0.7559055118110236,"duration":0.2756075286458213},{"name":"A5","midi":81,"time":153.74993849999865,"velocity":0.7559055118110236,"duration":0.1367186953124815},{"name":"G5","midi":79,"time":153.88882733333196,"velocity":0.7559055118110236,"duration":0.1367186953125099},{"name":"B4","midi":71,"time":153.88882733333196,"velocity":0.7559055118110236,"duration":0.1367186953125099},{"name":"F#5","midi":78,"time":154.0277161666653,"velocity":0.7559055118110236,"duration":0.1367186953125099},{"name":"A4","midi":69,"time":154.0277161666653,"velocity":0.7559055118110236,"duration":0.1367186953125099},{"name":"E5","midi":76,"time":154.16660499999864,"velocity":0.7559055118110236,"duration":0.1367186953125099},{"name":"G4","midi":67,"time":154.16660499999864,"velocity":0.7559055118110236,"duration":0.1367186953125099},{"name":"D5","midi":74,"time":154.30549383333198,"velocity":0.7559055118110236,"duration":0.1367186953125099},{"name":"F#4","midi":66,"time":154.30549383333198,"velocity":0.7559055118110236,"duration":0.1367186953125099},{"name":"B5","midi":83,"time":154.44438266666532,"velocity":0.7559055118110236,"duration":0.3906248437499755},{"name":"G4","midi":67,"time":154.44438266666532,"velocity":0.7559055118110236,"duration":0.2756075286458213},{"name":"E5","midi":76,"time":154.72216033333197,"velocity":0.7559055118110236,"duration":0.2756075286458213},{"name":"A4","midi":69,"time":154.72216033333197,"velocity":0.7559055118110236,"duration":0.1367186953124815},{"name":"G4","midi":67,"time":154.86104916666528,"velocity":0.7559055118110236,"duration":0.1367186953125099},{"name":"G5","midi":79,"time":154.99993799999862,"velocity":0.7559055118110236,"duration":0.2756075286458497},{"name":"F#4","midi":66,"time":154.99993799999862,"velocity":0.7559055118110236,"duration":0.1367186953125099},{"name":"E4","midi":64,"time":155.13882683333196,"velocity":0.7559055118110236,"duration":0.1367186953125099},{"name":"A5","midi":81,"time":155.2777156666653,"velocity":0.7559055118110236,"duration":0.3906248437499755},{"name":"F#4","midi":66,"time":155.2777156666653,"velocity":0.7559055118110236,"duration":0.2756075286458213},{"name":"D5","midi":74,"time":155.55549333333195,"velocity":0.7559055118110236,"duration":0.2756075286458213},{"name":"G4","midi":67,"time":155.55549333333195,"velocity":0.7559055118110236,"duration":0.1367186953124815},{"name":"F#4","midi":66,"time":155.69438216666526,"velocity":0.7559055118110236,"duration":0.1367186953125099},{"name":"F#5","midi":78,"time":155.8332709999986,"velocity":0.7559055118110236,"duration":0.2756075286458497},{"name":"E4","midi":64,"time":155.8332709999986,"velocity":0.7559055118110236,"duration":0.1367186953125099},{"name":"D4","midi":62,"time":155.97215983333194,"velocity":0.7559055118110236,"duration":0.1367186953125099},{"name":"G5","midi":79,"time":156.11104866666528,"velocity":0.7559055118110236,"duration":0.3906248437499755},{"name":"E4","midi":64,"time":156.11104866666528,"velocity":0.7559055118110236,"duration":0.2756075286458213},{"name":"C#5","midi":73,"time":156.38882633333193,"velocity":0.7559055118110236,"duration":0.2756075286458213},{"name":"F#4","midi":66,"time":156.38882633333193,"velocity":0.7559055118110236,"duration":0.1367186953124815},{"name":"E4","midi":64,"time":156.52771516666525,"velocity":0.7559055118110236,"duration":0.1367186953125099},{"name":"E5","midi":76,"time":156.66660399999859,"velocity":0.7559055118110236,"duration":0.2756075286458497},{"name":"D4","midi":62,"time":156.66660399999859,"velocity":0.7559055118110236,"duration":0.1367186953125099},{"name":"C#4","midi":61,"time":156.80549283333193,"velocity":0.7559055118110236,"duration":0.1367186953125099},{"name":"F#5","midi":78,"time":156.94438166666527,"velocity":0.7559055118110236,"duration":0.2756075286458213},{"name":"D4","midi":62,"time":156.94438166666527,"velocity":0.7559055118110236,"duration":0.2756075286458213},{"name":"G5","midi":79,"time":157.22215933333192,"velocity":0.7559055118110236,"duration":0.1367186953125099},{"name":"E4","midi":64,"time":157.22215933333192,"velocity":0.7559055118110236,"duration":0.1367186953125099},{"name":"F#5","midi":78,"time":157.36104816666526,"velocity":0.7559055118110236,"duration":0.1367186953125099},{"name":"D4","midi":62,"time":157.36104816666526,"velocity":0.7559055118110236,"duration":0.1367186953125099},{"name":"E5","midi":76,"time":157.4999369999986,"velocity":0.7559055118110236,"duration":0.1367186953125099},{"name":"C#4","midi":61,"time":157.4999369999986,"velocity":0.7559055118110236,"duration":0.1367186953125099},{"name":"D5","midi":74,"time":157.63882583333194,"velocity":0.7559055118110236,"duration":0.1367186953125099},{"name":"B3","midi":59,"time":157.63882583333194,"velocity":0.7559055118110236,"duration":0.1367186953125099},{"name":"G5","midi":79,"time":157.77771466666528,"velocity":0.7559055118110236,"duration":0.30381932291663816},{"name":"E4","midi":64,"time":157.77771466666528,"velocity":0.7559055118110236,"duration":0.2756075286458213},{"name":"C#5","midi":73,"time":158.05549233333193,"velocity":0.7559055118110236,"duration":0.2756075286458213},{"name":"F#4","midi":66,"time":158.05549233333193,"velocity":0.7559055118110236,"duration":0.1367186953124815},{"name":"E4","midi":64,"time":158.19438116666524,"velocity":0.7559055118110236,"duration":0.1367186953125099},{"name":"E5","midi":76,"time":158.33326999999858,"velocity":0.7559055118110236,"duration":0.2756075286458497},{"name":"D4","midi":62,"time":158.33326999999858,"velocity":0.7559055118110236,"duration":0.1367186953125099},{"name":"C#4","midi":61,"time":158.47215883333192,"velocity":0.7559055118110236,"duration":0.1367186953125099},{"name":"F#5","midi":78,"time":158.61104766666526,"velocity":0.7559055118110236,"duration":0.30381932291663816},{"name":"D4","midi":62,"time":158.61104766666526,"velocity":0.7559055118110236,"duration":0.2756075286458213},{"name":"B4","midi":71,"time":158.8888253333319,"velocity":0.7559055118110236,"duration":0.2756075286458213},{"name":"E4","midi":64,"time":158.8888253333319,"velocity":0.7559055118110236,"duration":0.1367186953124815},{"name":"D4","midi":62,"time":159.02771416666522,"velocity":0.7559055118110236,"duration":0.1367186953125099},{"name":"D5","midi":74,"time":159.16660299999856,"velocity":0.7559055118110236,"duration":0.2756075286458497},{"name":"C#4","midi":61,"time":159.16660299999856,"velocity":0.7559055118110236,"duration":0.1367186953125099},{"name":"B3","midi":59,"time":159.3054918333319,"velocity":0.7559055118110236,"duration":0.1367186953125099},{"name":"E5","midi":76,"time":159.44438066666524,"velocity":0.7559055118110236,"duration":0.2756075286458213},{"name":"C#4","midi":61,"time":159.44438066666524,"velocity":0.7559055118110236,"duration":0.2756075286458213},{"name":"F#5","midi":78,"time":159.7221583333319,"velocity":0.7559055118110236,"duration":0.1367186953125099},{"name":"D4","midi":62,"time":159.7221583333319,"velocity":0.7559055118110236,"duration":0.1367186953125099},{"name":"E5","midi":76,"time":159.86104716666523,"velocity":0.7559055118110236,"duration":0.1367186953125099},{"name":"C#4","midi":61,"time":159.86104716666523,"velocity":0.7559055118110236,"duration":0.1367186953125099},{"name":"D5","midi":74,"time":159.99993599999857,"velocity":0.7559055118110236,"duration":0.1367186953125099},{"name":"B3","midi":59,"time":159.99993599999857,"velocity":0.7559055118110236,"duration":0.1367186953125099},{"name":"C#5","midi":73,"time":160.1388248333319,"velocity":0.7559055118110236,"duration":0.1367186953125099},{"name":"A#3","midi":58,"time":160.1388248333319,"velocity":0.7559055118110236,"duration":0.1367186953125099},{"name":"F#5","midi":78,"time":160.27771366666525,"velocity":0.7559055118110236,"duration":0.2756075286458213},{"name":"D4","midi":62,"time":160.27771366666525,"velocity":0.7559055118110236,"duration":0.2756075286458213},{"name":"B4","midi":71,"time":160.5554913333319,"velocity":0.7559055118110236,"duration":0.2756075286458497},{"name":"E4","midi":64,"time":160.5554913333319,"velocity":0.7559055118110236,"duration":0.1367186953125099},{"name":"D4","midi":62,"time":160.69438016666524,"velocity":0.7559055118110236,"duration":0.1367186953125099},{"name":"D5","midi":74,"time":160.83326899999858,"velocity":0.7559055118110236,"duration":0.2756075286458497},{"name":"C#4","midi":61,"time":160.83326899999858,"velocity":0.7559055118110236,"duration":0.1367186953125099},{"name":"B3","midi":59,"time":160.97215783333192,"velocity":0.7559055118110236,"duration":0.1367186953125099},{"name":"E5","midi":76,"time":161.11104666666526,"velocity":0.7559055118110236,"duration":0.2756075286458213},{"name":"C#4","midi":61,"time":161.11104666666526,"velocity":0.7559055118110236,"duration":0.2756075286458213},{"name":"A#4","midi":70,"time":161.3888243333319,"velocity":0.7559055118110236,"duration":0.2756075286458497},{"name":"D4","midi":62,"time":161.3888243333319,"velocity":0.7559055118110236,"duration":0.1367186953125099},{"name":"C#4","midi":61,"time":161.52771316666525,"velocity":0.7559055118110236,"duration":0.1367186953125099},{"name":"C#5","midi":73,"time":161.6666019999986,"velocity":0.7559055118110236,"duration":0.2756075286458497},{"name":"B3","midi":59,"time":161.6666019999986,"velocity":0.7559055118110236,"duration":0.1367186953125099},{"name":"A#3","midi":58,"time":161.80549083333193,"velocity":0.7559055118110236,"duration":0.1367186953125099},{"name":"D5","midi":74,"time":161.94437966666527,"velocity":0.7559055118110236,"duration":0.2756075286458213},{"name":"B3","midi":59,"time":161.94437966666527,"velocity":0.7559055118110236,"duration":0.2756075286458213},{"name":"E5","midi":76,"time":162.22215733333192,"velocity":0.7559055118110236,"duration":0.1367186953125099},{"name":"F#3","midi":54,"time":162.22215733333192,"velocity":0.7559055118110236,"duration":0.2756075286458497},{"name":"D5","midi":74,"time":162.36104616666526,"velocity":0.7559055118110236,"duration":0.1367186953125099},{"name":"C#5","midi":73,"time":162.4999349999986,"velocity":0.7559055118110236,"duration":0.1367186953125099},{"name":"A3","midi":57,"time":162.4999349999986,"velocity":0.7559055118110236,"duration":0.2756075286458497},{"name":"B4","midi":71,"time":162.63882383333194,"velocity":0.7559055118110236,"duration":0.1367186953125099},{"name":"E5","midi":76,"time":162.77771266666528,"velocity":0.7559055118110236,"duration":0.2756075286458213},{"name":"G3","midi":55,"time":162.77771266666528,"velocity":0.7559055118110236,"duration":0.2756075286458213},{"name":"F#5","midi":78,"time":163.05549033333193,"velocity":0.7559055118110236,"duration":0.1367186953125099},{"name":"F#3","midi":54,"time":163.05549033333193,"velocity":0.7559055118110236,"duration":0.2756075286458497},{"name":"E5","midi":76,"time":163.19437916666527,"velocity":0.7559055118110236,"duration":0.1367186953125099},{"name":"D5","midi":74,"time":163.3332679999986,"velocity":0.7559055118110236,"duration":0.1367186953125099},{"name":"E3","midi":52,"time":163.3332679999986,"velocity":0.7559055118110236,"duration":0.2756075286458497},{"name":"C#5","midi":73,"time":163.47215683333195,"velocity":0.7559055118110236,"duration":0.1367186953125099},{"name":"F#5","midi":78,"time":163.6110456666653,"velocity":0.7559055118110236,"duration":0.2756075286458213},{"name":"D3","midi":50,"time":163.6110456666653,"velocity":0.7559055118110236,"duration":0.2756075286458213},{"name":"E5","midi":76,"time":163.88882333333194,"velocity":0.7559055118110236,"duration":0.1367186953125099},{"name":"F#3","midi":54,"time":163.88882333333194,"velocity":0.7559055118110236,"duration":0.2756075286458497},{"name":"D5","midi":74,"time":164.02771216666528,"velocity":0.7559055118110236,"duration":0.1367186953125099},{"name":"C#5","midi":73,"time":164.16660099999862,"velocity":0.7559055118110236,"duration":0.1367186953125099},{"name":"E3","midi":52,"time":164.16660099999862,"velocity":0.7559055118110236,"duration":0.2756075286458497},{"name":"B4","midi":71,"time":164.30548983333196,"velocity":0.7559055118110236,"duration":0.1367186953125099},{"name":"A#4","midi":70,"time":164.4443786666653,"velocity":0.7559055118110236,"duration":0.1367186953125099},{"name":"F#3","midi":54,"time":164.4443786666653,"velocity":0.7559055118110236,"duration":1.1089405286458884},{"name":"G#4","midi":68,"time":164.58326749999864,"velocity":0.7559055118110236,"duration":0.1367186953125099},{"name":"F#4","midi":66,"time":164.72215633333198,"velocity":0.7559055118110236,"duration":0.1367186953125099},{"name":"G#4","midi":68,"time":164.86104516666532,"velocity":0.7559055118110236,"duration":0.1367186953125099},{"name":"A#4","midi":70,"time":164.99993399999866,"velocity":0.7559055118110236,"duration":0.1367186953125099},{"name":"B4","midi":71,"time":165.138822833332,"velocity":0.7559055118110236,"duration":0.1367186953125099},{"name":"C#5","midi":73,"time":165.27771166666534,"velocity":0.7559055118110236,"duration":0.1367186953125099},{"name":"B4","midi":71,"time":165.41660049999868,"velocity":0.7559055118110236,"duration":0.1367186953125099},{"name":"A#4","midi":70,"time":165.55548933333202,"velocity":0.7559055118110236,"duration":0.1367186953125099},{"name":"E3","midi":52,"time":165.55548933333202,"velocity":0.7559055118110236,"duration":0.1367186953125099},{"name":"B4","midi":71,"time":165.69437816666536,"velocity":0.7559055118110236,"duration":0.1367186953125099},{"name":"D3","midi":50,"time":165.69437816666536,"velocity":0.7559055118110236,"duration":0.1367186953125099},{"name":"C#5","midi":73,"time":165.8332669999987,"velocity":0.7559055118110236,"duration":1.2478293619792282},{"name":"C#3","midi":49,"time":165.8332669999987,"velocity":0.7559055118110236,"duration":0.1367186953125099},{"name":"D5","midi":74,"time":165.97215583333204,"velocity":0.7559055118110236,"duration":0.1367186953125099},{"name":"B2","midi":47,"time":165.97215583333204,"velocity":0.7559055118110236,"duration":0.1367186953125099},{"name":"E5","midi":76,"time":166.11104466666538,"velocity":0.7559055118110236,"duration":0.9700516953125486},{"name":"A#2","midi":46,"time":166.11104466666538,"velocity":0.7559055118110236,"duration":0.1367186953125099},{"name":"B2","midi":47,"time":166.24993349999872,"velocity":0.7559055118110236,"duration":0.1367186953125099},{"name":"C#3","midi":49,"time":166.38882233333206,"velocity":0.7559055118110236,"duration":0.1367186953125099},{"name":"B2","midi":47,"time":166.5277111666654,"velocity":0.7559055118110236,"duration":0.1367186953125099},{"name":"A#2","midi":46,"time":166.66659999999874,"velocity":0.7559055118110236,"duration":0.1367186953125099},{"name":"G#2","midi":44,"time":166.80548883333208,"velocity":0.7559055118110236,"duration":0.1367186953125099},{"name":"F#2","midi":42,"time":166.94437766666542,"velocity":0.7559055118110236,"duration":0.2756075286458497},{"name":"F#5","midi":78,"time":167.08326649999876,"velocity":0.7559055118110236,"duration":0.1367186953125099},{"name":"E5","midi":76,"time":167.2221553333321,"velocity":0.7559055118110236,"duration":0.1367186953125099},{"name":"C#5","midi":73,"time":167.2221553333321,"velocity":0.7559055118110236,"duration":0.2170138020833292},{"name":"A#2","midi":46,"time":167.2221553333321,"velocity":0.7559055118110236,"duration":0.2756075286458213},{"name":"F#5","midi":78,"time":167.36104416666544,"velocity":0.7559055118110236,"duration":0.1367186953124815},{"name":"E5","midi":76,"time":167.49993299999875,"velocity":0.7559055118110236,"duration":0.1367186953125099},{"name":"C#5","midi":73,"time":167.49993299999875,"velocity":0.7559055118110236,"duration":0.2170138020833292},{"name":"C#3","midi":49,"time":167.49993299999875,"velocity":0.7559055118110236,"duration":0.2756075286458213},{"name":"F#5","midi":78,"time":167.6388218333321,"velocity":0.7559055118110236,"duration":0.1367186953124815},{"name":"D5","midi":74,"time":167.7777106666654,"velocity":0.7559055118110236,"duration":0.1367186953125099},{"name":"B4","midi":71,"time":167.7777106666654,"velocity":0.7559055118110236,"duration":0.2170138020833292},{"name":"F#3","midi":54,"time":167.7777106666654,"velocity":0.7559055118110236,"duration":1.664495861979077},{"name":"E5","midi":76,"time":167.91659949999874,"velocity":0.7559055118110236,"duration":0.1367186953124815},{"name":"D5","midi":74,"time":168.05548833333205,"velocity":0.7559055118110236,"duration":0.1367186953125099},{"name":"B4","midi":71,"time":168.05548833333205,"velocity":0.7559055118110236,"duration":0.2170138020833292},{"name":"B3","midi":59,"time":168.05548833333205,"velocity":0.7559055118110236,"duration":0.2756075286458213},{"name":"E5","midi":76,"time":168.1943771666654,"velocity":0.7559055118110236,"duration":0.1367186953124815},{"name":"D5","midi":74,"time":168.3332659999987,"velocity":0.7559055118110236,"duration":0.1367186953125099},{"name":"B4","midi":71,"time":168.3332659999987,"velocity":0.7559055118110236,"duration":0.2170138020833292},{"name":"D4","midi":62,"time":168.3332659999987,"velocity":0.7559055118110236,"duration":0.2756075286458213},{"name":"E5","midi":76,"time":168.47215483333204,"velocity":0.7559055118110236,"duration":0.1367186953124815},{"name":"C#5","midi":73,"time":168.61104366666535,"velocity":0.7559055118110236,"duration":0.30381932291663816},{"name":"A#4","midi":70,"time":168.61104366666535,"velocity":0.7559055118110236,"duration":0.30381932291663816},{"name":"E4","midi":64,"time":168.61104366666535,"velocity":0.7559055118110236,"duration":0.2756075286458213},{"name":"F#5","midi":78,"time":168.888821333332,"velocity":0.7559055118110236,"duration":0.6922740286458122},{"name":"A#3","midi":58,"time":168.888821333332,"velocity":0.7559055118110236,"duration":0.2756075286458213},{"name":"C#4","midi":61,"time":169.16659899999866,"velocity":0.7559055118110236,"duration":0.2756075286458213},{"name":"F#3","midi":54,"time":169.4443766666653,"velocity":0.7559055118110236,"duration":2.495658723958286},{"name":"D4","midi":62,"time":169.4443766666653,"velocity":0.7559055118110236,"duration":0.2756075286458497},{"name":"B4","midi":71,"time":169.58326549999865,"velocity":0.7559055118110236,"duration":0.1367186953125099},{"name":"C#5","midi":73,"time":169.72215433333199,"velocity":0.7559055118110236,"duration":0.1367186953125099},{"name":"E4","midi":64,"time":169.72215433333199,"velocity":0.7559055118110236,"duration":0.1367186953125099},{"name":"D5","midi":74,"time":169.86104316666533,"velocity":0.7559055118110236,"duration":0.1367186953125099},{"name":"D4","midi":62,"time":169.86104316666533,"velocity":0.7559055118110236,"duration":0.1367186953125099},{"name":"E5","midi":76,"time":169.99993199999867,"velocity":0.7559055118110236,"duration":0.1367186953125099},{"name":"C#4","midi":61,"time":169.99993199999867,"velocity":0.7559055118110236,"duration":0.1367186953125099},{"name":"F#5","midi":78,"time":170.138820833332,"velocity":0.7559055118110236,"duration":0.1367186953125099},{"name":"B3","midi":59,"time":170.138820833332,"velocity":0.7559055118110236,"duration":0.1367186953125099},{"name":"G5","midi":79,"time":170.27770966666534,"velocity":0.7559055118110236,"duration":0.5533851953124724},{"name":"E4","midi":64,"time":170.27770966666534,"velocity":0.7559055118110236,"duration":0.2756075286458213},{"name":"C#5","midi":73,"time":170.555487333332,"velocity":0.7559055118110236,"duration":0.2756075286458213},{"name":"A#3","midi":58,"time":170.555487333332,"velocity":0.7559055118110236,"duration":0.2756075286458213},{"name":"E5","midi":76,"time":170.83326499999865,"velocity":0.7559055118110236,"duration":0.2756075286458213},{"name":"C#4","midi":61,"time":170.83326499999865,"velocity":0.7559055118110236,"duration":0.2756075286458213},{"name":"F#5","midi":78,"time":171.1110426666653,"velocity":0.7559055118110236,"duration":0.5533851953124724},{"name":"D4","midi":62,"time":171.1110426666653,"velocity":0.7559055118110236,"duration":0.2756075286458213},{"name":"B4","midi":71,"time":171.38882033333195,"velocity":0.7559055118110236,"duration":0.2756075286458213},{"name":"G#3","midi":56,"time":171.38882033333195,"velocity":0.7559055118110236,"duration":0.2756075286458213},{"name":"D5","midi":74,"time":171.6665979999986,"velocity":0.7559055118110236,"duration":0.2756075286458213},{"name":"B3","midi":59,"time":171.6665979999986,"velocity":0.7559055118110236,"duration":0.2756075286458213},{"name":"E5","midi":76,"time":171.94437566666525,"velocity":0.7559055118110236,"duration":0.2756075286458213},{"name":"F#3","midi":54,"time":171.94437566666525,"velocity":0.7559055118110236,"duration":2.495658723958371},{"name":"C#4","midi":61,"time":171.94437566666525,"velocity":0.7559055118110236,"duration":0.2756075286458213},{"name":"A#4","midi":70,"time":172.2221533333319,"velocity":0.7559055118110236,"duration":0.17361104166667474},{"name":"F#5","midi":78,"time":172.2221533333319,"velocity":0.7559055118110236,"duration":0.1367186953125099},{"name":"D4","midi":62,"time":172.2221533333319,"velocity":0.7559055118110236,"duration":0.2756075286458497},{"name":"E5","midi":76,"time":172.36104216666524,"velocity":0.7559055118110236,"duration":0.1367186953125099},{"name":"D5","midi":74,"time":172.49993099999858,"velocity":0.7559055118110236,"duration":0.1367186953125099},{"name":"E4","midi":64,"time":172.49993099999858,"velocity":0.7559055118110236,"duration":0.2756075286458497},{"name":"C#5","midi":73,"time":172.63881983333192,"velocity":0.7559055118110236,"duration":0.1367186953125099},{"name":"F#5","midi":78,"time":172.77770866666526,"velocity":0.7559055118110236,"duration":0.3038193229166666},{"name":"D4","midi":62,"time":172.77770866666526,"velocity":0.7559055118110236,"duration":0.1367186953125099},{"name":"E4","midi":64,"time":172.9165974999986,"velocity":0.7559055118110236,"duration":0.1367186953125099},{"name":"B4","midi":71,"time":173.05548633333194,"velocity":0.7559055118110236,"duration":0.2756075286458213},{"name":"D4","midi":62,"time":173.05548633333194,"velocity":0.7559055118110236,"duration":0.1367186953124815},{"name":"E4","midi":64,"time":173.19437516666525,"velocity":0.7559055118110236,"duration":0.1367186953125099},{"name":"D5","midi":74,"time":173.3332639999986,"velocity":0.7559055118110236,"duration":0.2756075286458497},{"name":"D4","midi":62,"time":173.3332639999986,"velocity":0.7559055118110236,"duration":0.1367186953125099},{"name":"E4","midi":64,"time":173.47215283333193,"velocity":0.7559055118110236,"duration":0.1367186953125099},{"name":"E5","midi":76,"time":173.61104166666527,"velocity":0.7559055118110236,"duration":0.3038193229166666},{"name":"C#4","midi":61,"time":173.61104166666527,"velocity":0.7559055118110236,"duration":0.1367186953125099},{"name":"D4","midi":62,"time":173.7499304999986,"velocity":0.7559055118110236,"duration":0.1367186953125099},{"name":"A#4","midi":70,"time":173.88881933333195,"velocity":0.7559055118110236,"duration":0.2756075286458213},{"name":"C#4","midi":61,"time":173.88881933333195,"velocity":0.7559055118110236,"duration":0.1367186953124815},{"name":"D4","midi":62,"time":174.02770816666526,"velocity":0.7559055118110236,"duration":0.1367186953125099},{"name":"C#5","midi":73,"time":174.1665969999986,"velocity":0.7559055118110236,"duration":0.2756075286458497},{"name":"C#4","midi":61,"time":174.1665969999986,"velocity":0.7559055118110236,"duration":0.1367186953125099},{"name":"D4","midi":62,"time":174.30548583333194,"velocity":0.7559055118110236,"duration":0.1367186953125099},{"name":"D5","midi":74,"time":174.44437466666528,"velocity":0.7559055118110236,"duration":0.1367186953125099},{"name":"B4","midi":71,"time":174.44437466666528,"velocity":0.7559055118110236,"duration":0.1367186953125099},{"name":"B3","midi":59,"time":174.44437466666528,"velocity":0.7559055118110236,"duration":0.9092878307291983},{"name":"C#5","midi":73,"time":174.58326349999862,"velocity":0.7559055118110236,"duration":0.1367186953125099},{"name":"B4","midi":71,"time":174.72215233333196,"velocity":0.7559055118110236,"duration":0.1367186953125099},{"name":"C#5","midi":73,"time":174.8610411666653,"velocity":0.7559055118110236,"duration":0.1367186953125099},{"name":"D5","midi":74,"time":174.99992999999864,"velocity":0.7559055118110236,"duration":0.1367186953125099},{"name":"E5","midi":76,"time":175.13881883333198,"velocity":0.7559055118110236,"duration":0.1367186953125099},{"name":"F#5","midi":78,"time":175.27770766666532,"velocity":0.7559055118110236,"duration":0.1367186953124815},{"name":"E5","midi":76,"time":175.41659649999863,"velocity":0.7559055118110236,"duration":0.1367186953125099},{"name":"D#5","midi":75,"time":175.55548533333197,"velocity":0.7559055118110236,"duration":0.1367186953125099},{"name":"A3","midi":57,"time":175.55548533333197,"velocity":0.7559055118110236,"duration":0.1367186953125099},{"name":"E5","midi":76,"time":175.6943741666653,"velocity":0.7559055118110236,"duration":0.1367186953125099},{"name":"G3","midi":55,"time":175.6943741666653,"velocity":0.7559055118110236,"duration":0.1367186953125099},{"name":"F#5","midi":78,"time":175.83326299999865,"velocity":0.7559055118110236,"duration":1.2478293619792282},{"name":"F#3","midi":54,"time":175.83326299999865,"velocity":0.7559055118110236,"duration":0.1367186953125099},{"name":"G5","midi":79,"time":175.972151833332,"velocity":0.7559055118110236,"duration":0.1367186953125099},{"name":"E3","midi":52,"time":175.972151833332,"velocity":0.7559055118110236,"duration":0.1367186953125099},{"name":"A5","midi":81,"time":176.11104066666533,"velocity":0.7559055118110236,"duration":0.9700516953125486},{"name":"D#3","midi":51,"time":176.11104066666533,"velocity":0.7559055118110236,"duration":0.1367186953125099},{"name":"E3","midi":52,"time":176.24992949999867,"velocity":0.7559055118110236,"duration":0.1367186953125099},{"name":"F#3","midi":54,"time":176.388818333332,"velocity":0.7559055118110236,"duration":0.1367186953125099},{"name":"E3","midi":52,"time":176.52770716666535,"velocity":0.7559055118110236,"duration":0.1367186953125099},{"name":"D#3","midi":51,"time":176.6665959999987,"velocity":0.7559055118110236,"duration":0.1367186953125099},{"name":"C#3","midi":49,"time":176.80548483333203,"velocity":0.7559055118110236,"duration":0.1367186953125099},{"name":"B2","midi":47,"time":176.94437366666537,"velocity":0.7559055118110236,"duration":0.2756075286458497},{"name":"B5","midi":83,"time":177.0832624999987,"velocity":0.7559055118110236,"duration":0.1367186953125099},{"name":"A5","midi":81,"time":177.22215133333205,"velocity":0.7559055118110236,"duration":0.1367186953125099},{"name":"F#5","midi":78,"time":177.22215133333205,"velocity":0.7559055118110236,"duration":0.23871518229168487},{"name":"D#3","midi":51,"time":177.22215133333205,"velocity":0.7559055118110236,"duration":0.2756075286458497},{"name":"B5","midi":83,"time":177.3610401666654,"velocity":0.7559055118110236,"duration":0.1367186953125099},{"name":"F#5","midi":78,"time":177.49992899999873,"velocity":0.7559055118110236,"duration":0.23871518229168487},{"name":"A5","midi":81,"time":177.49992899999873,"velocity":0.7559055118110236,"duration":0.1367186953125099},{"name":"F#3","midi":54,"time":177.49992899999873,"velocity":0.7559055118110236,"duration":0.2756075286458497},{"name":"B5","midi":83,"time":177.63881783333207,"velocity":0.7559055118110236,"duration":0.1367186953125099},{"name":"E5","midi":76,"time":177.7777066666654,"velocity":0.7559055118110236,"duration":0.23871518229168487},{"name":"G5","midi":79,"time":177.7777066666654,"velocity":0.7559055118110236,"duration":0.1367186953125099},{"name":"B3","midi":59,"time":177.7777066666654,"velocity":0.7559055118110236,"duration":1.6644958619791623},{"name":"A5","midi":81,"time":177.91659549999875,"velocity":0.7559055118110236,"duration":0.1367186953125099},{"name":"E5","midi":76,"time":178.0554843333321,"velocity":0.7559055118110236,"duration":0.2170138020833292},{"name":"G5","midi":79,"time":178.0554843333321,"velocity":0.7559055118110236,"duration":0.1367186953125099},{"name":"E4","midi":64,"time":178.0554843333321,"velocity":0.7559055118110236,"duration":0.2756075286458213},{"name":"A5","midi":81,"time":178.19437316666543,"velocity":0.7559055118110236,"duration":0.1367186953124815},{"name":"E5","midi":76,"time":178.33326199999874,"velocity":0.7559055118110236,"duration":0.23871518229168487},{"name":"G5","midi":79,"time":178.33326199999874,"velocity":0.7559055118110236,"duration":0.1367186953125099},{"name":"G4","midi":67,"time":178.33326199999874,"velocity":0.7559055118110236,"duration":0.2756075286458497},{"name":"A5","midi":81,"time":178.47215083333208,"velocity":0.7559055118110236,"duration":0.1367186953125099},{"name":"F#5","midi":78,"time":178.61103966666542,"velocity":0.7559055118110236,"duration":0.34722208333332105},{"name":"D#5","midi":75,"time":178.61103966666542,"velocity":0.7559055118110236,"duration":0.34722208333332105},{"name":"A4","midi":69,"time":178.61103966666542,"velocity":0.7559055118110236,"duration":0.2756075286458213},{"name":"B5","midi":83,"time":178.88881733333207,"velocity":0.7559055118110236,"duration":0.6727427864583433},{"name":"D#4","midi":63,"time":178.88881733333207,"velocity":0.7559055118110236,"duration":0.2756075286458497},{"name":"F#4","midi":66,"time":179.16659499999875,"velocity":0.7559055118110236,"duration":0.2756075286458213},{"name":"B3","midi":59,"time":179.4443726666654,"velocity":0.7559055118110236,"duration":2.497828861979116},{"name":"G4","midi":67,"time":179.4443726666654,"velocity":0.7559055118110236,"duration":0.2756075286458497},{"name":"E5","midi":76,"time":179.58326149999874,"velocity":0.7559055118110236,"duration":0.1367186953125099},{"name":"F#5","midi":78,"time":179.72215033333208,"velocity":0.7559055118110236,"duration":0.1367186953125099},{"name":"A4","midi":69,"time":179.72215033333208,"velocity":0.7559055118110236,"duration":0.1367186953125099},{"name":"G5","midi":79,"time":179.86103916666542,"velocity":0.7559055118110236,"duration":0.1367186953125099},{"name":"G4","midi":67,"time":179.86103916666542,"velocity":0.7559055118110236,"duration":0.1367186953125099},{"name":"A5","midi":81,"time":179.99992799999876,"velocity":0.7559055118110236,"duration":0.1367186953125099},{"name":"F#4","midi":66,"time":179.99992799999876,"velocity":0.7559055118110236,"duration":0.1367186953125099},{"name":"B5","midi":83,"time":180.1388168333321,"velocity":0.7559055118110236,"duration":0.1367186953125099},{"name":"E4","midi":64,"time":180.1388168333321,"velocity":0.7559055118110236,"duration":0.1367186953125099},{"name":"C6","midi":84,"time":180.27770566666544,"velocity":0.7559055118110236,"duration":0.3689234635416483},{"name":"A4","midi":69,"time":180.27770566666544,"velocity":0.7559055118110236,"duration":0.2756075286458213},{"name":"F#5","midi":78,"time":180.5554833333321,"velocity":0.7559055118110236,"duration":0.824652447916634},{"name":"D#4","midi":63,"time":180.5554833333321,"velocity":0.7559055118110236,"duration":0.2756075286458213},{"name":"A5","midi":81,"time":180.83326099999874,"velocity":0.7559055118110236,"duration":0.2756075286458213},{"name":"F#4","midi":66,"time":180.83326099999874,"velocity":0.7559055118110236,"duration":0.2756075286458213},{"name":"B5","midi":83,"time":181.1110386666654,"velocity":0.7559055118110236,"duration":0.3689234635416483},{"name":"G4","midi":67,"time":181.1110386666654,"velocity":0.7559055118110236,"duration":0.2756075286458213},{"name":"E5","midi":76,"time":181.38881633333204,"velocity":0.7559055118110236,"duration":0.824652447916634},{"name":"C#4","midi":61,"time":181.38881633333204,"velocity":0.7559055118110236,"duration":0.2756075286458213},{"name":"G5","midi":79,"time":181.6665939999987,"velocity":0.7559055118110236,"duration":0.2756075286458213},{"name":"E4","midi":64,"time":181.6665939999987,"velocity":0.7559055118110236,"duration":0.2756075286458213},{"name":"A5","midi":81,"time":181.94437166666535,"velocity":0.7559055118110236,"duration":0.2756075286458213},{"name":"B3","midi":59,"time":181.94437166666535,"velocity":0.7559055118110236,"duration":2.6367176953125124},{"name":"F#4","midi":66,"time":181.94437166666535,"velocity":0.7559055118110236,"duration":0.2756075286458213},{"name":"B5","midi":83,"time":182.222149333332,"velocity":0.7559055118110236,"duration":0.1367186953125099},{"name":"D#5","midi":75,"time":182.222149333332,"velocity":0.7559055118110236,"duration":0.5533851953125293},{"name":"G4","midi":67,"time":182.222149333332,"velocity":0.7559055118110236,"duration":0.2756075286458497},{"name":"A5","midi":81,"time":182.36103816666534,"velocity":0.7559055118110236,"duration":0.1367186953125099},{"name":"G5","midi":79,"time":182.49992699999868,"velocity":0.7559055118110236,"duration":0.1367186953125099},{"name":"A4","midi":69,"time":182.49992699999868,"velocity":0.7559055118110236,"duration":0.2756075286458497},{"name":"F#5","midi":78,"time":182.63881583333202,"velocity":0.7559055118110236,"duration":0.1367186953125099},{"name":"B5","midi":83,"time":182.77770466666536,"velocity":0.7559055118110236,"duration":0.3038193229166666},{"name":"G4","midi":67,"time":182.77770466666536,"velocity":0.7559055118110236,"duration":0.1367186953125099},{"name":"A4","midi":69,"time":182.9165934999987,"velocity":0.7559055118110236,"duration":0.1367186953125099},{"name":"E5","midi":76,"time":183.05548233333204,"velocity":0.7559055118110236,"duration":0.8246524479166624},{"name":"G4","midi":67,"time":183.05548233333204,"velocity":0.7559055118110236,"duration":0.1367186953124815},{"name":"A4","midi":69,"time":183.19437116666535,"velocity":0.7559055118110236,"duration":0.1367186953125099},{"name":"G5","midi":79,"time":183.3332599999987,"velocity":0.7559055118110236,"duration":0.2756075286458497},{"name":"G4","midi":67,"time":183.3332599999987,"velocity":0.7559055118110236,"duration":0.1367186953125099},{"name":"A4","midi":69,"time":183.47214883333203,"velocity":0.7559055118110236,"duration":0.1367186953125099},{"name":"A5","midi":81,"time":183.61103766666537,"velocity":0.7559055118110236,"duration":0.30381932291663816},{"name":"F#4","midi":66,"time":183.61103766666537,"velocity":0.7559055118110236,"duration":0.1367186953125099},{"name":"G4","midi":67,"time":183.7499264999987,"velocity":0.7559055118110236,"duration":0.1367186953124815},{"name":"D#5","midi":75,"time":183.88881533333202,"velocity":0.7559055118110236,"duration":0.5533851953125009},{"name":"F#4","midi":66,"time":183.88881533333202,"velocity":0.7559055118110236,"duration":0.1367186953124815},{"name":"G4","midi":67,"time":184.02770416666533,"velocity":0.7559055118110236,"duration":0.1367186953125099},{"name":"F#5","midi":78,"time":184.16659299999867,"velocity":0.7559055118110236,"duration":0.2756075286458497},{"name":"F#4","midi":66,"time":184.16659299999867,"velocity":0.7559055118110236,"duration":0.1367186953125099},{"name":"G4","midi":67,"time":184.305481833332,"velocity":0.7559055118110236,"duration":0.1367186953125099},{"name":"G5","midi":79,"time":184.44437066666535,"velocity":0.7559055118110236,"duration":1.0416662500000484},{"name":"E4","midi":64,"time":184.44437066666535,"velocity":0.7559055118110236,"duration":0.2756075286458497},{"name":"E3","midi":52,"time":184.5832594999987,"velocity":0.7559055118110236,"duration":0.1367186953125099},{"name":"G3","midi":55,"time":184.72214833333203,"velocity":0.7559055118110236,"duration":0.1367186953125099},{"name":"E5","midi":76,"time":184.72214833333203,"velocity":0.7559055118110236,"duration":0.2604165625000121},{"name":"B3","midi":59,"time":184.86103716666537,"velocity":0.7559055118110236,"duration":0.1367186953125099},{"name":"E4","midi":64,"time":184.9999259999987,"velocity":0.7559055118110236,"duration":0.1367186953125099},{"name":"C#5","midi":73,"time":184.9999259999987,"velocity":0.7559055118110236,"duration":0.2604165625000121},{"name":"D4","midi":62,"time":185.13881483333205,"velocity":0.7559055118110236,"duration":0.1367186953125099},{"name":"E4","midi":64,"time":185.2777036666654,"velocity":0.7559055118110236,"duration":0.2756075286458497},{"name":"A#4","midi":70,"time":185.2777036666654,"velocity":0.7559055118110236,"duration":0.651041406250016},{"name":"F#5","midi":78,"time":185.55548133333207,"velocity":0.7559055118110236,"duration":0.1367186953125099},{"name":"A#3","midi":58,"time":185.55548133333207,"velocity":0.7559055118110236,"duration":0.2756075286458497},{"name":"E5","midi":76,"time":185.6943701666654,"velocity":0.7559055118110236,"duration":0.1367186953125099},{"name":"D5","midi":74,"time":185.83325899999875,"velocity":0.7559055118110236,"duration":0.1367186953124815},{"name":"C#4","midi":61,"time":185.83325899999875,"velocity":0.7559055118110236,"duration":0.2756075286458213},{"name":"C#5","midi":73,"time":185.97214783333206,"velocity":0.7559055118110236,"duration":0.1367186953125099},{"name":"F#5","midi":78,"time":186.1110366666654,"velocity":0.7559055118110236,"duration":0.2756075286458213},{"name":"D4","midi":62,"time":186.1110366666654,"velocity":0.7559055118110236,"duration":0.2756075286458213},{"name":"E5","midi":76,"time":186.38881433333205,"velocity":0.7559055118110236,"duration":0.1367186953125099},{"name":"G#3","midi":56,"time":186.38881433333205,"velocity":0.7559055118110236,"duration":0.2756075286458497},{"name":"B4","midi":71,"time":186.38881433333205,"velocity":0.7559055118110236,"duration":0.39062484375000395},{"name":"D5","midi":74,"time":186.5277031666654,"velocity":0.7559055118110236,"duration":0.1367186953125099},{"name":"C#5","midi":73,"time":186.66659199999873,"velocity":0.7559055118110236,"duration":0.1367186953124815},{"name":"B3","midi":59,"time":186.66659199999873,"velocity":0.7559055118110236,"duration":0.2756075286458213},{"name":"B4","midi":71,"time":186.80548083333204,"velocity":0.7559055118110236,"duration":0.1367186953125099},{"name":"E5","midi":76,"time":186.94436966666538,"velocity":0.7559055118110236,"duration":0.5533851953125009},{"name":"C#4","midi":61,"time":186.94436966666538,"velocity":0.7559055118110236,"duration":0.2756075286458213},{"name":"D4","midi":62,"time":187.22214733333203,"velocity":0.7559055118110236,"duration":0.1367186953125099},{"name":"A#4","midi":70,"time":187.22214733333203,"velocity":0.7559055118110236,"duration":0.2756075286458497},{"name":"C#4","midi":61,"time":187.36103616666537,"velocity":0.7559055118110236,"duration":0.1367186953125099},{"name":"B3","midi":59,"time":187.4999249999987,"velocity":0.7559055118110236,"duration":0.1367186953125099},{"name":"C#5","midi":73,"time":187.4999249999987,"velocity":0.7559055118110236,"duration":0.4557289843750141},{"name":"A#3","midi":58,"time":187.63881383333205,"velocity":0.7559055118110236,"duration":0.1367186953125099},{"name":"F#5","midi":78,"time":187.7777026666654,"velocity":0.7559055118110236,"duration":0.4774303645833129},{"name":"D4","midi":62,"time":187.7777026666654,"velocity":0.7559055118110236,"duration":0.2756075286458213},{"name":"G#3","midi":56,"time":188.05548033333204,"velocity":0.7559055118110236,"duration":0.2756075286458213},{"name":"B4","midi":71,"time":188.05548033333204,"velocity":0.7559055118110236,"duration":0.8311628619791236},{"name":"D5","midi":74,"time":188.3332579999987,"velocity":0.7559055118110236,"duration":0.2756075286458213},{"name":"B3","midi":59,"time":188.3332579999987,"velocity":0.7559055118110236,"duration":0.2756075286458213},{"name":"E5","midi":76,"time":188.61103566666534,"velocity":0.7559055118110236,"duration":1.1089405286458032},{"name":"C#4","midi":61,"time":188.61103566666534,"velocity":0.7559055118110236,"duration":0.2756075286458213},{"name":"F#3","midi":54,"time":188.888813333332,"velocity":0.7559055118110236,"duration":0.2756075286458213},{"name":"A#4","midi":70,"time":188.888813333332,"velocity":0.7559055118110236,"duration":0.2756075286458213},{"name":"A#3","midi":58,"time":189.16659099999865,"velocity":0.7559055118110236,"duration":0.2756075286458213},{"name":"C#5","midi":73,"time":189.16659099999865,"velocity":0.7559055118110236,"duration":0.2756075286458213},{"name":"B3","midi":59,"time":189.4443686666653,"velocity":0.7559055118110236,"duration":0.1367186953125099},{"name":"F#4","midi":66,"time":189.4443686666653,"velocity":0.7559055118110236,"duration":1.1089405286458884},{"name":"B2","midi":47,"time":189.58325749999864,"velocity":0.7559055118110236,"duration":0.1367186953125099},{"name":"D5","midi":74,"time":189.72214633333198,"velocity":0.7559055118110236,"duration":0.2756075286458497},{"name":"C#3","midi":49,"time":189.72214633333198,"velocity":0.7559055118110236,"duration":0.1367186953125099},{"name":"D3","midi":50,"time":189.86103516666532,"velocity":0.7559055118110236,"duration":0.1367186953125099},{"name":"C#5","midi":73,"time":189.99992399999866,"velocity":0.7559055118110236,"duration":0.2756075286458497},{"name":"E3","midi":52,"time":189.99992399999866,"velocity":0.7559055118110236,"duration":0.1367186953125099},{"name":"F#3","midi":54,"time":190.138812833332,"velocity":0.7559055118110236,"duration":0.1367186953125099},{"name":"B4","midi":71,"time":190.27770166666534,"velocity":0.7559055118110236,"duration":0.5533851953125293},{"name":"G3","midi":55,"time":190.27770166666534,"velocity":0.7559055118110236,"duration":0.1367186953125099},{"name":"A3","midi":57,"time":190.41659049999868,"velocity":0.7559055118110236,"duration":0.1367186953125099},{"name":"G3","midi":55,"time":190.55547933333202,"velocity":0.7559055118110236,"duration":0.1367186953125099},{"name":"E4","midi":64,"time":190.55547933333202,"velocity":0.7559055118110236,"duration":0.5533851953125293},{"name":"F#3","midi":54,"time":190.69436816666536,"velocity":0.7559055118110236,"duration":0.1367186953125099},{"name":"C#5","midi":73,"time":190.8332569999987,"velocity":0.7559055118110236,"duration":0.2756075286458497},{"name":"G3","midi":55,"time":190.8332569999987,"velocity":0.7559055118110236,"duration":0.1367186953125099},{"name":"E3","midi":52,"time":190.97214583333204,"velocity":0.7559055118110236,"duration":0.1367186953125099},{"name":"F#4","midi":66,"time":191.11103466666538,"velocity":0.7559055118110236,"duration":0.2756075286458213},{"name":"F#3","midi":54,"time":191.11103466666538,"velocity":0.7559055118110236,"duration":0.5533851953124724},{"name":"D4","midi":62,"time":191.11103466666538,"velocity":0.7559055118110236,"duration":0.5533851953124724},{"name":"B4","midi":71,"time":191.38881233333203,"velocity":0.7559055118110236,"duration":0.2756075286458213},{"name":"A#4","midi":70,"time":191.66658999999868,"velocity":0.7559055118110236,"duration":0.2756075286458213},{"name":"F#2","midi":42,"time":191.66658999999868,"velocity":0.7559055118110236,"duration":0.2756075286458213},{"name":"C#4","midi":61,"time":191.66658999999868,"velocity":0.7559055118110236,"duration":0.2756075286458213},{"name":"B4","midi":71,"time":191.94436766666533,"velocity":0.7559055118110236,"duration":0.23871518229165645},{"name":"B2","midi":47,"time":191.94436766666533,"velocity":0.7559055118110236,"duration":0.7378469270833534},{"name":"D4","midi":62,"time":191.94436766666533,"velocity":0.7559055118110236,"duration":0.5533851953125009},{"name":"F#4","midi":66,"time":192.248186989582,"velocity":0.7559055118110236,"duration":0.2756075286458497},{"name":"B4","midi":71,"time":192.51294382812367,"velocity":0.7559055118110236,"duration":0.2756075286458497},{"name":"D5","midi":74,"time":192.77770066666534,"velocity":0.7559055118110236,"duration":0.8246524479166908},{"name":"B2","midi":47,"time":192.91658949999868,"velocity":0.7559055118110236,"duration":0.1367186953125099},{"name":"D3","midi":50,"time":193.05547833333202,"velocity":0.7559055118110236,"duration":0.1367186953125099},{"name":"F#3","midi":54,"time":193.19436716666536,"velocity":0.7559055118110236,"duration":0.1367186953125099},{"name":"B3","midi":59,"time":193.3332559999987,"velocity":0.7559055118110236,"duration":0.1367186953125099},{"name":"A#3","midi":58,"time":193.47214483333204,"velocity":0.7559055118110236,"duration":0.1367186953124815},{"name":"B3","midi":59,"time":193.61103366666535,"velocity":0.7559055118110236,"duration":1.1089405286458884},{"name":"D4","midi":62,"time":193.7499224999987,"velocity":0.7559055118110236,"duration":0.1367186953125099},{"name":"F#4","midi":66,"time":193.88881133333203,"velocity":0.7559055118110236,"duration":0.1367186953125099},{"name":"D3","midi":50,"time":193.88881133333203,"velocity":0.7559055118110236,"duration":0.2756075286458497},{"name":"B4","midi":71,"time":194.02770016666537,"velocity":0.7559055118110236,"duration":0.1367186953125099},{"name":"D5","midi":74,"time":194.1665889999987,"velocity":0.7559055118110236,"duration":0.1367186953125099},{"name":"B2","midi":47,"time":194.1665889999987,"velocity":0.7559055118110236,"duration":0.2756075286458497},{"name":"C#5","midi":73,"time":194.30547783333205,"velocity":0.7559055118110236,"duration":0.1367186953125099},{"name":"D5","midi":74,"time":194.4443666666654,"velocity":0.7559055118110236,"duration":0.1367186953125099},{"name":"E3","midi":52,"time":194.4443666666654,"velocity":0.7559055118110236,"duration":0.6076386458333616},{"name":"G#4","midi":68,"time":194.58325549999873,"velocity":0.7559055118110236,"duration":0.1367186953125099},{"name":"A4","midi":69,"time":194.72214433333207,"velocity":0.7559055118110236,"duration":0.1367186953125099},{"name":"F#3","midi":54,"time":194.72214433333207,"velocity":0.7559055118110236,"duration":0.1367186953125099},{"name":"B4","midi":71,"time":194.8610331666654,"velocity":0.7559055118110236,"duration":0.1367186953125099},{"name":"G#3","midi":56,"time":194.8610331666654,"velocity":0.7559055118110236,"duration":0.1367186953125099},{"name":"C#5","midi":73,"time":194.99992199999875,"velocity":0.7559055118110236,"duration":0.1367186953125099},{"name":"A3","midi":57,"time":194.99992199999875,"velocity":0.7559055118110236,"duration":0.1367186953125099},{"name":"D5","midi":74,"time":195.1388108333321,"velocity":0.7559055118110236,"duration":0.1367186953125099},{"name":"B3","midi":59,"time":195.1388108333321,"velocity":0.7559055118110236,"duration":0.1367186953125099},{"name":"E5","midi":76,"time":195.27769966666543,"velocity":0.7559055118110236,"duration":0.2756075286458213},{"name":"C#4","midi":61,"time":195.27769966666543,"velocity":0.7559055118110236,"duration":0.34722208333332105},{"name":"A4","midi":69,"time":195.55547733333208,"velocity":0.7559055118110236,"duration":0.2756075286458497},{"name":"C#5","midi":73,"time":195.83325499999876,"velocity":0.7559055118110236,"duration":0.2756075286458213},{"name":"D5","midi":74,"time":196.1110326666654,"velocity":0.7559055118110236,"duration":0.2756075286458213},{"name":"G#3","midi":56,"time":196.1110326666654,"velocity":0.7559055118110236,"duration":0.34722208333332105},{"name":"E3","midi":52,"time":196.1110326666654,"velocity":0.7559055118110236,"duration":0.34722208333332105},{"name":"B3","midi":59,"time":196.1110326666654,"velocity":0.7559055118110236,"duration":0.34722208333332105},{"name":"G#4","midi":68,"time":196.38881033333206,"velocity":0.7559055118110236,"duration":0.2756075286458497},{"name":"B4","midi":71,"time":196.66658799999874,"velocity":0.7559055118110236,"duration":0.2756075286458213},{"name":"C#5","midi":73,"time":196.9443656666654,"velocity":0.7559055118110236,"duration":0.2756075286458213},{"name":"A2","midi":45,"time":196.9443656666654,"velocity":0.7559055118110236,"duration":0.6944441666666421},{"name":"E3","midi":52,"time":196.9443656666654,"velocity":0.7559055118110236,"duration":0.6076386458333047},{"name":"A3","midi":57,"time":196.9443656666654,"velocity":0.7559055118110236,"duration":0.6076386458333047},{"name":"E4","midi":64,"time":197.22214333333204,"velocity":0.7559055118110236,"duration":0.2756075286458213},{"name":"A4","midi":69,"time":197.4999209999987,"velocity":0.7559055118110236,"duration":0.2756075286458497},{"name":"C5","midi":72,"time":197.77769866666537,"velocity":0.7559055118110236,"duration":0.8246524479166908},{"name":"A2","midi":45,"time":197.9165874999987,"velocity":0.7559055118110236,"duration":0.1367186953125099},{"name":"C3","midi":48,"time":198.05547633333205,"velocity":0.7559055118110236,"duration":0.1367186953125099},{"name":"E3","midi":52,"time":198.1943651666654,"velocity":0.7559055118110236,"duration":0.1367186953125099},{"name":"A3","midi":57,"time":198.33325399999873,"velocity":0.7559055118110236,"duration":0.1367186953125099},{"name":"G3","midi":55,"time":198.47214283333207,"velocity":0.7559055118110236,"duration":0.1367186953124815},{"name":"A3","midi":57,"time":198.61103166666538,"velocity":0.7559055118110236,"duration":1.1089405286458884},{"name":"C4","midi":60,"time":198.74992049999872,"velocity":0.7559055118110236,"duration":0.1367186953125099},{"name":"E4","midi":64,"time":198.88880933333206,"velocity":0.7559055118110236,"duration":0.1367186953125099},{"name":"C3","midi":48,"time":198.88880933333206,"velocity":0.7559055118110236,"duration":0.2756075286458497},{"name":"A4","midi":69,"time":199.0276981666654,"velocity":0.7559055118110236,"duration":0.1367186953125099},{"name":"C5","midi":72,"time":199.16658699999874,"velocity":0.7559055118110236,"duration":0.1367186953125099},{"name":"A2","midi":45,"time":199.16658699999874,"velocity":0.7559055118110236,"duration":0.2756075286458497},{"name":"B4","midi":71,"time":199.30547583333208,"velocity":0.7559055118110236,"duration":0.1367186953125099},{"name":"C5","midi":72,"time":199.44436466666542,"velocity":0.7559055118110236,"duration":0.1367186953125099},{"name":"D3","midi":50,"time":199.44436466666542,"velocity":0.7559055118110236,"duration":0.3472220833333495},{"name":"F#4","midi":66,"time":199.58325349999876,"velocity":0.7559055118110236,"duration":0.1367186953125099},{"name":"G4","midi":67,"time":199.7221423333321,"velocity":0.7559055118110236,"duration":0.1367186953125099},{"name":"E3","midi":52,"time":199.7221423333321,"velocity":0.7559055118110236,"duration":0.1367186953125099},{"name":"A4","midi":69,"time":199.86103116666544,"velocity":0.7559055118110236,"duration":0.1367186953125099},{"name":"F#3","midi":54,"time":199.86103116666544,"velocity":0.7559055118110236,"duration":0.1367186953125099},{"name":"B4","midi":71,"time":199.99991999999878,"velocity":0.7559055118110236,"duration":0.1367186953125099},{"name":"G3","midi":55,"time":199.99991999999878,"velocity":0.7559055118110236,"duration":0.1367186953125099},{"name":"C5","midi":72,"time":200.13880883333212,"velocity":0.7559055118110236,"duration":0.1367186953125099},{"name":"A3","midi":57,"time":200.13880883333212,"velocity":0.7559055118110236,"duration":0.1367186953125099},{"name":"D5","midi":74,"time":200.27769766666546,"velocity":0.7559055118110236,"duration":0.2756075286458213},{"name":"B3","midi":59,"time":200.27769766666546,"velocity":0.7559055118110236,"duration":0.34722208333332105},{"name":"G4","midi":67,"time":200.5554753333321,"velocity":0.7559055118110236,"duration":0.2756075286458497},{"name":"B4","midi":71,"time":200.8332529999988,"velocity":0.7559055118110236,"duration":0.2756075286458213},{"name":"C5","midi":72,"time":201.11103066666544,"velocity":0.7559055118110236,"duration":0.2756075286458213},{"name":"F#3","midi":54,"time":201.11103066666544,"velocity":0.7559055118110236,"duration":0.34722208333332105},{"name":"D3","midi":50,"time":201.11103066666544,"velocity":0.7559055118110236,"duration":0.34722208333332105},{"name":"A3","midi":57,"time":201.11103066666544,"velocity":0.7559055118110236,"duration":0.34722208333332105},{"name":"F#4","midi":66,"time":201.3888083333321,"velocity":0.7559055118110236,"duration":0.2756075286458497},{"name":"A4","midi":69,"time":201.66658599999877,"velocity":0.7559055118110236,"duration":0.2756075286458213},{"name":"B4","midi":71,"time":201.94436366666542,"velocity":0.7559055118110236,"duration":0.2756075286458213},{"name":"G2","midi":43,"time":201.94436366666542,"velocity":0.7559055118110236,"duration":0.8680552083333453},{"name":"G3","midi":55,"time":201.94436366666542,"velocity":0.7559055118110236,"duration":0.6944441666666705},{"name":"D3","midi":50,"time":201.94436366666542,"velocity":0.7559055118110236,"duration":0.6944441666666705},{"name":"C5","midi":72,"time":202.22214133333208,"velocity":0.7559055118110236,"duration":0.1367186953125099},{"name":"B4","midi":71,"time":202.36103016666542,"velocity":0.7559055118110236,"duration":0.1367186953125099},{"name":"A4","midi":69,"time":202.49991899999875,"velocity":0.7559055118110236,"duration":0.1367186953125099},{"name":"G4","midi":67,"time":202.6388078333321,"velocity":0.7559055118110236,"duration":0.1367186953125099},{"name":"E5","midi":76,"time":202.77769666666543,"velocity":0.7559055118110236,"duration":1.10894052864586},{"name":"A2","midi":45,"time":202.91658549999877,"velocity":0.7559055118110236,"duration":0.1367186953125099},{"name":"B2","midi":47,"time":203.0554743333321,"velocity":0.7559055118110236,"duration":0.1367186953125099},{"name":"C#3","midi":49,"time":203.19436316666545,"velocity":0.7559055118110236,"duration":0.1367186953125099},{"name":"D3","midi":50,"time":203.3332519999988,"velocity":0.7559055118110236,"duration":0.1367186953125099},{"name":"E3","midi":52,"time":203.47214083333213,"velocity":0.7559055118110236,"duration":0.1367186953125099},{"name":"F#2","midi":42,"time":203.61102966666547,"velocity":0.7559055118110236,"duration":0.8246524479166624},{"name":"F#5","midi":78,"time":203.88880733333212,"velocity":0.7559055118110236,"duration":0.1367186953125099},{"name":"E5","midi":76,"time":204.02769616666546,"velocity":0.7559055118110236,"duration":0.1367186953125099},{"name":"D5","midi":74,"time":204.1665849999988,"velocity":0.7559055118110236,"duration":0.1367186953125099},{"name":"C#5","midi":73,"time":204.30547383333214,"velocity":0.7559055118110236,"duration":0.1367186953124815},{"name":"A5","midi":81,"time":204.44436266666546,"velocity":0.7559055118110236,"duration":1.10894052864586},{"name":"D2","midi":38,"time":204.5832514999988,"velocity":0.7559055118110236,"duration":0.1367186953125099},{"name":"E2","midi":40,"time":204.72214033333213,"velocity":0.7559055118110236,"duration":0.1367186953125099},{"name":"F#2","midi":42,"time":204.86102916666547,"velocity":0.7559055118110236,"duration":0.1367186953125099},{"name":"G2","midi":43,"time":204.99991799999881,"velocity":0.7559055118110236,"duration":0.1367186953125099},{"name":"A2","midi":45,"time":205.13880683333215,"velocity":0.7559055118110236,"duration":0.1367186953125099},{"name":"B2","midi":47,"time":205.2776956666655,"velocity":0.7559055118110236,"duration":0.5533851953125009},{"name":"B5","midi":83,"time":205.55547333333215,"velocity":0.7559055118110236,"duration":0.1367186953125099},{"name":"D3","midi":50,"time":205.55547333333215,"velocity":0.7559055118110236,"duration":0.2756075286458497},{"name":"A5","midi":81,"time":205.69436216666548,"velocity":0.7559055118110236,"duration":0.1367186953125099},{"name":"G5","midi":79,"time":205.83325099999882,"velocity":0.7559055118110236,"duration":0.1367186953125099},{"name":"G3","midi":55,"time":205.83325099999882,"velocity":0.7559055118110236,"duration":0.2756075286458497},{"name":"F#5","midi":78,"time":205.97213983333216,"velocity":0.7559055118110236,"duration":0.1367186953125099},{"name":"G5","midi":79,"time":206.1110286666655,"velocity":0.7559055118110236,"duration":0.2756075286458213},{"name":"C#3","midi":49,"time":206.1110286666655,"velocity":0.7559055118110236,"duration":0.5533851953125009},{"name":"A5","midi":81,"time":206.38880633333216,"velocity":0.7559055118110236,"duration":0.1367186953125099},{"name":"E3","midi":52,"time":206.38880633333216,"velocity":0.7559055118110236,"duration":0.2756075286458497},{"name":"G5","midi":79,"time":206.5276951666655,"velocity":0.7559055118110236,"duration":0.1367186953125099},{"name":"F#5","midi":78,"time":206.66658399999883,"velocity":0.7559055118110236,"duration":0.1367186953125099},{"name":"A3","midi":57,"time":206.66658399999883,"velocity":0.7559055118110236,"duration":0.2756075286458497},{"name":"E5","midi":76,"time":206.80547283333217,"velocity":0.7559055118110236,"duration":0.1367186953125099},{"name":"F#5","midi":78,"time":206.94436166666551,"velocity":0.7559055118110236,"duration":0.2756075286458213},{"name":"D3","midi":50,"time":206.94436166666551,"velocity":0.7559055118110236,"duration":0.5533851953125009},{"name":"G5","midi":79,"time":207.22213933333217,"velocity":0.7559055118110236,"duration":0.1367186953125099},{"name":"A3","midi":57,"time":207.22213933333217,"velocity":0.7559055118110236,"duration":0.2756075286458497},{"name":"F#5","midi":78,"time":207.3610281666655,"velocity":0.7559055118110236,"duration":0.1367186953125099},{"name":"E5","midi":76,"time":207.49991699999885,"velocity":0.7559055118110236,"duration":0.1367186953125099},{"name":"C4","midi":60,"time":207.49991699999885,"velocity":0.7559055118110236,"duration":0.2756075286458497},{"name":"D5","midi":74,"time":207.63880583333219,"velocity":0.7559055118110236,"duration":0.1367186953125099},{"name":"G5","midi":79,"time":207.77769466666552,"velocity":0.7559055118110236,"duration":0.2756075286458213},{"name":"B3","midi":59,"time":207.77769466666552,"velocity":0.7559055118110236,"duration":0.2756075286458213},{"name":"A5","midi":81,"time":208.05547233333218,"velocity":0.7559055118110236,"duration":0.1367186953125099},{"name":"A3","midi":57,"time":208.05547233333218,"velocity":0.7559055118110236,"duration":0.2756075286458497},{"name":"G5","midi":79,"time":208.19436116666552,"velocity":0.7559055118110236,"duration":0.1367186953125099},{"name":"F#5","midi":78,"time":208.33324999999886,"velocity":0.7559055118110236,"duration":0.1367186953125099},{"name":"G3","midi":55,"time":208.33324999999886,"velocity":0.7559055118110236,"duration":0.2756075286458497},{"name":"E5","midi":76,"time":208.4721388333322,"velocity":0.7559055118110236,"duration":0.1367186953125099},{"name":"A5","midi":81,"time":208.61102766666554,"velocity":0.7559055118110236,"duration":0.2756075286458213},{"name":"F#3","midi":54,"time":208.61102766666554,"velocity":0.7559055118110236,"duration":0.2756075286458213},{"name":"G5","midi":79,"time":208.8888053333322,"velocity":0.7559055118110236,"duration":0.1367186953125099},{"name":"A3","midi":57,"time":208.8888053333322,"velocity":0.7559055118110236,"duration":0.2756075286458497},{"name":"F#5","midi":78,"time":209.02769416666553,"velocity":0.7559055118110236,"duration":0.1367186953125099},{"name":"E5","midi":76,"time":209.16658299999887,"velocity":0.7559055118110236,"duration":0.1367186953125099},{"name":"G3","midi":55,"time":209.16658299999887,"velocity":0.7559055118110236,"duration":0.2756075286458497},{"name":"D5","midi":74,"time":209.3054718333322,"velocity":0.7559055118110236,"duration":0.1367186953125099},{"name":"C#5","midi":73,"time":209.44436066666555,"velocity":0.7559055118110236,"duration":0.1367186953125099},{"name":"A3","midi":57,"time":209.44436066666555,"velocity":0.7559055118110236,"duration":0.5533851953125293},{"name":"D5","midi":74,"time":209.58324949999889,"velocity":0.7559055118110236,"duration":0.1367186953125099},{"name":"C#5","midi":73,"time":209.72213833333223,"velocity":0.7559055118110236,"duration":0.1367186953125099},{"name":"B4","midi":71,"time":209.86102716666556,"velocity":0.7559055118110236,"duration":0.1367186953125099},{"name":"A4","midi":69,"time":209.9999159999989,"velocity":0.7559055118110236,"duration":0.1367186953125099},{"name":"G4","midi":67,"time":210.13880483333224,"velocity":0.7559055118110236,"duration":0.1367186953125099},{"name":"F#4","midi":66,"time":210.27769366666558,"velocity":0.7559055118110236,"duration":0.7812496875000363},{"name":"G5","midi":79,"time":210.41658249999892,"velocity":0.7559055118110236,"duration":0.1367186953125099},{"name":"F#5","midi":78,"time":210.55547133333226,"velocity":0.7559055118110236,"duration":0.1367186953125099},{"name":"E5","midi":76,"time":210.6943601666656,"velocity":0.7559055118110236,"duration":0.1367186953125099},{"name":"D5","midi":74,"time":210.83324899999894,"velocity":0.7559055118110236,"duration":0.1367186953125099},{"name":"C5","midi":72,"time":210.97213783333228,"velocity":0.7559055118110236,"duration":0.1367186953125099},{"name":"D4","midi":62,"time":211.11102666666562,"velocity":0.7559055118110236,"duration":0.7812496875000363},{"name":"E5","midi":76,"time":211.24991549999896,"velocity":0.7559055118110236,"duration":0.1367186953125099},{"name":"D5","midi":74,"time":211.3888043333323,"velocity":0.7559055118110236,"duration":0.1367186953125099},{"name":"C5","midi":72,"time":211.52769316666564,"velocity":0.7559055118110236,"duration":0.1367186953125099},{"name":"B4","midi":71,"time":211.66658199999898,"velocity":0.7559055118110236,"duration":0.1367186953125099},{"name":"A4","midi":69,"time":211.80547083333232,"velocity":0.7559055118110236,"duration":0.1367186953125099},{"name":"G3","midi":55,"time":211.94435966666566,"velocity":0.7559055118110236,"duration":0.5533851953125293},{"name":"C5","midi":72,"time":212.083248499999,"velocity":0.7559055118110236,"duration":0.1367186953125099},{"name":"B4","midi":71,"time":212.22213733333234,"velocity":0.7559055118110236,"duration":0.1367186953125099},{"name":"A4","midi":69,"time":212.36102616666568,"velocity":0.7559055118110236,"duration":0.1367186953125099},{"name":"G4","midi":67,"time":212.49991499999902,"velocity":0.7559055118110236,"duration":0.1367186953125099},{"name":"F#4","midi":66,"time":212.63880383333236,"velocity":0.7559055118110236,"duration":0.1367186953125099},{"name":"E4","midi":64,"time":212.7776926666657,"velocity":0.7559055118110236,"duration":0.5642358854166787},{"name":"F#5","midi":78,"time":212.91658149999904,"velocity":0.7559055118110236,"duration":0.1367186953125099},{"name":"E5","midi":76,"time":213.05547033333238,"velocity":0.7559055118110236,"duration":0.1367186953125099},{"name":"D5","midi":74,"time":213.19435916666572,"velocity":0.7559055118110236,"duration":0.1367186953125099},{"name":"C#5","midi":73,"time":213.33324799999906,"velocity":0.7559055118110236,"duration":0.1367186953124815},{"name":"B4","midi":71,"time":213.47213683333237,"velocity":0.7559055118110236,"duration":0.1367186953125099},{"name":"C#4","midi":61,"time":213.6110256666657,"velocity":0.7559055118110236,"duration":0.5642358854166787},{"name":"D5","midi":74,"time":213.74991449999905,"velocity":0.7559055118110236,"duration":0.1367186953125099},{"name":"C#5","midi":73,"time":213.8888033333324,"velocity":0.7559055118110236,"duration":0.1367186953125099},{"name":"B4","midi":71,"time":214.02769216666573,"velocity":0.7559055118110236,"duration":0.1367186953125099},{"name":"A4","midi":69,"time":214.16658099999907,"velocity":0.7559055118110236,"duration":0.1367186953124815},{"name":"G4","midi":67,"time":214.30546983333238,"velocity":0.7559055118110236,"duration":0.1367186953125099},{"name":"F#3","midi":54,"time":214.44435866666572,"velocity":0.7559055118110236,"duration":0.5533851953125293},{"name":"B4","midi":71,"time":214.58324749999906,"velocity":0.7559055118110236,"duration":0.1367186953125099},{"name":"A4","midi":69,"time":214.7221363333324,"velocity":0.7559055118110236,"duration":0.1367186953125099},{"name":"G4","midi":67,"time":214.86102516666574,"velocity":0.7559055118110236,"duration":0.1367186953125099},{"name":"F#4","midi":66,"time":214.99991399999908,"velocity":0.7559055118110236,"duration":0.1367186953125099},{"name":"E4","midi":64,"time":215.13880283333242,"velocity":0.7559055118110236,"duration":0.1367186953125099},{"name":"D4","midi":62,"time":215.27769166666576,"velocity":0.7559055118110236,"duration":0.28211794270833934},{"name":"E5","midi":76,"time":215.4165804999991,"velocity":0.7559055118110236,"duration":0.1367186953125099},{"name":"D5","midi":74,"time":215.55546933333244,"velocity":0.7559055118110236,"duration":0.1367186953124815},{"name":"C#5","midi":73,"time":215.69435816666575,"velocity":0.7559055118110236,"duration":0.1367186953125099},{"name":"B4","midi":71,"time":215.8332469999991,"velocity":0.7559055118110236,"duration":0.1367186953125099},{"name":"A4","midi":69,"time":215.97213583333243,"velocity":0.7559055118110236,"duration":0.1367186953125099},{"name":"B3","midi":59,"time":216.11102466666577,"velocity":0.7559055118110236,"duration":0.28211794270833934},{"name":"C5","midi":72,"time":216.2499134999991,"velocity":0.7559055118110236,"duration":0.1367186953125099},{"name":"B4","midi":71,"time":216.38880233333245,"velocity":0.7559055118110236,"duration":0.1367186953124815},{"name":"A4","midi":69,"time":216.52769116666576,"velocity":0.7559055118110236,"duration":0.1367186953125099},{"name":"G4","midi":67,"time":216.6665799999991,"velocity":0.7559055118110236,"duration":0.1367186953125099},{"name":"F#4","midi":66,"time":216.80546883333244,"velocity":0.7559055118110236,"duration":0.1367186953125099},{"name":"E3","midi":52,"time":216.94435766666578,"velocity":0.7559055118110236,"duration":0.5533851953125293},{"name":"A4","midi":69,"time":217.08324649999912,"velocity":0.7559055118110236,"duration":0.1367186953125099},{"name":"G4","midi":67,"time":217.22213533333246,"velocity":0.7559055118110236,"duration":0.1367186953125099},{"name":"F#4","midi":66,"time":217.3610241666658,"velocity":0.7559055118110236,"duration":0.1367186953125099},{"name":"E4","midi":64,"time":217.49991299999914,"velocity":0.7559055118110236,"duration":0.1367186953125099},{"name":"D4","midi":62,"time":217.63880183333248,"velocity":0.7559055118110236,"duration":0.1367186953125099},{"name":"C#4","midi":61,"time":217.77769066666582,"velocity":0.7559055118110236,"duration":0.1367186953125099},{"name":"D5","midi":74,"time":217.91657949999916,"velocity":0.7559055118110236,"duration":0.1367186953125099},{"name":"C#5","midi":73,"time":218.0554683333325,"velocity":0.7559055118110236,"duration":0.1367186953125099},{"name":"B4","midi":71,"time":218.19435716666584,"velocity":0.7559055118110236,"duration":0.1367186953125099},{"name":"A4","midi":69,"time":218.33324599999918,"velocity":0.7559055118110236,"duration":0.1367186953125099},{"name":"G4","midi":67,"time":218.47213483333252,"velocity":0.7559055118110236,"duration":0.1367186953125099},{"name":"A3","midi":57,"time":218.61102366666586,"velocity":0.7559055118110236,"duration":0.1367186953125099},{"name":"B4","midi":71,"time":218.7499124999992,"velocity":0.7559055118110236,"duration":0.1367186953125099},{"name":"A4","midi":69,"time":218.88880133333254,"velocity":0.7559055118110236,"duration":0.1367186953125099},{"name":"G4","midi":67,"time":219.02769016666588,"velocity":0.7559055118110236,"duration":0.1367186953125099},{"name":"F#4","midi":66,"time":219.16657899999922,"velocity":0.7559055118110236,"duration":0.1367186953125099},{"name":"E4","midi":64,"time":219.30546783333256,"velocity":0.7559055118110236,"duration":0.1367186953125099},{"name":"F#4","midi":66,"time":219.4443566666659,"velocity":0.7559055118110236,"duration":0.1367186953125099},{"name":"D3","midi":50,"time":219.4443566666659,"velocity":0.7559055118110236,"duration":0.9700516953125486},{"name":"A3","midi":57,"time":219.58324549999924,"velocity":0.7559055118110236,"duration":0.1367186953125099},{"name":"B3","midi":59,"time":219.72213433333258,"velocity":0.7559055118110236,"duration":0.1367186953125099},{"name":"C#4","midi":61,"time":219.86102316666592,"velocity":0.7559055118110236,"duration":0.1367186953125099},{"name":"D4","midi":62,"time":219.99991199999926,"velocity":0.7559055118110236,"duration":0.1367186953125099},{"name":"E4","midi":64,"time":220.1388008333326,"velocity":0.7559055118110236,"duration":0.1367186953125099},{"name":"F#4","midi":66,"time":220.27768966666594,"velocity":0.7559055118110236,"duration":0.1367186953125099},{"name":"D4","midi":62,"time":220.41657849999928,"velocity":0.7559055118110236,"duration":0.1367186953125099},{"name":"E3","midi":52,"time":220.41657849999928,"velocity":0.7559055118110236,"duration":0.1367186953125099},{"name":"E4","midi":64,"time":220.55546733333261,"velocity":0.7559055118110236,"duration":0.1367186953125099},{"name":"D3","midi":50,"time":220.55546733333261,"velocity":0.7559055118110236,"duration":0.1367186953125099},{"name":"F#4","midi":66,"time":220.69435616666595,"velocity":0.7559055118110236,"duration":0.1367186953125099},{"name":"C3","midi":48,"time":220.69435616666595,"velocity":0.7559055118110236,"duration":0.1367186953125099},{"name":"G4","midi":67,"time":220.8332449999993,"velocity":0.7559055118110236,"duration":0.1367186953125099},{"name":"B2","midi":47,"time":220.8332449999993,"velocity":0.7559055118110236,"duration":0.1367186953125099},{"name":"A4","midi":69,"time":220.97213383333263,"velocity":0.7559055118110236,"duration":0.1367186953125099},{"name":"A2","midi":45,"time":220.97213383333263,"velocity":0.7559055118110236,"duration":0.1367186953125099},{"name":"B4","midi":71,"time":221.11102266666597,"velocity":0.7559055118110236,"duration":0.8246524479166908},{"name":"G2","midi":43,"time":221.11102266666597,"velocity":0.7559055118110236,"duration":0.1367186953125099},{"name":"A2","midi":45,"time":221.2499114999993,"velocity":0.7559055118110236,"duration":0.1367186953125099},{"name":"G2","midi":43,"time":221.38880033333265,"velocity":0.7559055118110236,"duration":0.1367186953125099},{"name":"F#2","midi":42,"time":221.527689166666,"velocity":0.7559055118110236,"duration":0.1367186953125099},{"name":"E2","midi":40,"time":221.66657799999933,"velocity":0.7559055118110236,"duration":0.1367186953125099},{"name":"D2","midi":38,"time":221.80546683333267,"velocity":0.7559055118110236,"duration":0.1367186953124815},{"name":"C#2","midi":37,"time":221.94435566666598,"velocity":0.7559055118110236,"duration":0.8246524479166908},{"name":"C#4","midi":61,"time":222.08324449999932,"velocity":0.7559055118110236,"duration":0.1367186953125099},{"name":"D4","midi":62,"time":222.22213333333266,"velocity":0.7559055118110236,"duration":0.1367186953125099},{"name":"E4","midi":64,"time":222.361022166666,"velocity":0.7559055118110236,"duration":0.1367186953125099},{"name":"F#4","midi":66,"time":222.49991099999934,"velocity":0.7559055118110236,"duration":0.1367186953125099},{"name":"G#4","midi":68,"time":222.63879983333268,"velocity":0.7559055118110236,"duration":0.1367186953124815},{"name":"A4","midi":69,"time":222.777688666666,"velocity":0.7559055118110236,"duration":0.1367186953125099},{"name":"G#4","midi":68,"time":222.91657749999933,"velocity":0.7559055118110236,"duration":0.1367186953125099},{"name":"D3","midi":50,"time":222.91657749999933,"velocity":0.7559055118110236,"duration":0.1367186953125099},{"name":"A4","midi":69,"time":223.05546633333267,"velocity":0.7559055118110236,"duration":0.1367186953125099},{"name":"C#3","midi":49,"time":223.05546633333267,"velocity":0.7559055118110236,"duration":0.1367186953125099},{"name":"B4","midi":71,"time":223.194355166666,"velocity":0.7559055118110236,"duration":0.1367186953125099},{"name":"B2","midi":47,"time":223.194355166666,"velocity":0.7559055118110236,"duration":0.1367186953125099},{"name":"C#5","midi":73,"time":223.33324399999935,"velocity":0.7559055118110236,"duration":0.1367186953125099},{"name":"A2","midi":45,"time":223.33324399999935,"velocity":0.7559055118110236,"duration":0.1367186953125099},{"name":"D5","midi":74,"time":223.4721328333327,"velocity":0.7559055118110236,"duration":0.1367186953125099},{"name":"G2","midi":43,"time":223.4721328333327,"velocity":0.7559055118110236,"duration":0.1367186953125099},{"name":"E5","midi":76,"time":223.61102166666603,"velocity":0.7559055118110236,"duration":0.4774303645833413},{"name":"F#2","midi":42,"time":223.61102166666603,"velocity":0.7559055118110236,"duration":0.1367186953125099},{"name":"G2","midi":43,"time":223.74991049999937,"velocity":0.7559055118110236,"duration":0.1367186953125099},{"name":"F#2","midi":42,"time":223.8887993333327,"velocity":0.7559055118110236,"duration":0.1367186953125099},{"name":"E2","midi":40,"time":224.02768816666605,"velocity":0.7559055118110236,"duration":0.1367186953124815},{"name":"D2","midi":38,"time":224.16657699999936,"velocity":0.7559055118110236,"duration":0.1367186953125099},{"name":"C#2","midi":37,"time":224.3054658333327,"velocity":0.7559055118110236,"duration":0.1367186953125099},{"name":"B1","midi":35,"time":224.44435466666604,"velocity":0.7559055118110236,"duration":0.8246524479166908},{"name":"F#4","midi":66,"time":224.58324349999938,"velocity":0.7559055118110236,"duration":0.1367186953125099},{"name":"G4","midi":67,"time":224.72213233333272,"velocity":0.7559055118110236,"duration":0.1367186953125099},{"name":"A4","midi":69,"time":224.86102116666606,"velocity":0.7559055118110236,"duration":0.1367186953125099},{"name":"B4","midi":71,"time":224.9999099999994,"velocity":0.7559055118110236,"duration":0.1367186953125099},{"name":"C#5","midi":73,"time":225.13879883333274,"velocity":0.7559055118110236,"duration":0.1367186953124815},{"name":"D5","midi":74,"time":225.27768766666605,"velocity":0.7559055118110236,"duration":0.1367186953125099},{"name":"B4","midi":71,"time":225.4165764999994,"velocity":0.7559055118110236,"duration":0.1367186953125099},{"name":"C#3","midi":49,"time":225.4165764999994,"velocity":0.7559055118110236,"duration":0.1367186953125099},{"name":"C#5","midi":73,"time":225.55546533333273,"velocity":0.7559055118110236,"duration":0.1367186953125099},{"name":"B2","midi":47,"time":225.55546533333273,"velocity":0.7559055118110236,"duration":0.1367186953125099},{"name":"D5","midi":74,"time":225.69435416666607,"velocity":0.7559055118110236,"duration":0.1367186953125099},{"name":"A2","midi":45,"time":225.69435416666607,"velocity":0.7559055118110236,"duration":0.1367186953125099},{"name":"E5","midi":76,"time":225.8332429999994,"velocity":0.7559055118110236,"duration":0.1367186953125099},{"name":"G2","midi":43,"time":225.8332429999994,"velocity":0.7559055118110236,"duration":0.1367186953125099},{"name":"F#5","midi":78,"time":225.97213183333275,"velocity":0.7559055118110236,"duration":0.1367186953125099},{"name":"F#2","midi":42,"time":225.97213183333275,"velocity":0.7559055118110236,"duration":0.1367186953125099},{"name":"G5","midi":79,"time":226.1110206666661,"velocity":0.7559055118110236,"duration":0.4774303645833413},{"name":"E2","midi":40,"time":226.1110206666661,"velocity":0.7559055118110236,"duration":0.1367186953125099},{"name":"F#2","midi":42,"time":226.24990949999943,"velocity":0.7559055118110236,"duration":0.1367186953125099},{"name":"E2","midi":40,"time":226.38879833333277,"velocity":0.7559055118110236,"duration":0.1367186953125099},{"name":"D2","midi":38,"time":226.5276871666661,"velocity":0.7559055118110236,"duration":0.1367186953124815},{"name":"C#2","midi":37,"time":226.66657599999942,"velocity":0.7559055118110236,"duration":0.1367186953125099},{"name":"B1","midi":35,"time":226.80546483333276,"velocity":0.7559055118110236,"duration":0.1367186953125099},{"name":"A1","midi":33,"time":226.9443536666661,"velocity":0.7559055118110236,"duration":0.8246524479166908},{"name":"A4","midi":69,"time":227.08324249999944,"velocity":0.7559055118110236,"duration":0.1367186953125099},{"name":"B4","midi":71,"time":227.22213133333278,"velocity":0.7559055118110236,"duration":0.1367186953125099},{"name":"C5","midi":72,"time":227.36102016666612,"velocity":0.7559055118110236,"duration":0.1367186953125099},{"name":"D5","midi":74,"time":227.49990899999946,"velocity":0.7559055118110236,"duration":0.1367186953125099},{"name":"E5","midi":76,"time":227.6387978333328,"velocity":0.7559055118110236,"duration":0.1367186953124815},{"name":"F#5","midi":78,"time":227.7776866666661,"velocity":0.7559055118110236,"duration":0.1367186953125099},{"name":"E5","midi":76,"time":227.91657549999945,"velocity":0.7559055118110236,"duration":0.1367186953125099},{"name":"B2","midi":47,"time":227.91657549999945,"velocity":0.7559055118110236,"duration":0.1367186953125099},{"name":"F#5","midi":78,"time":228.0554643333328,"velocity":0.7559055118110236,"duration":0.1367186953125099},{"name":"A2","midi":45,"time":228.0554643333328,"velocity":0.7559055118110236,"duration":0.1367186953125099},{"name":"G5","midi":79,"time":228.19435316666613,"velocity":0.7559055118110236,"duration":0.1367186953125099},{"name":"G2","midi":43,"time":228.19435316666613,"velocity":0.7559055118110236,"duration":0.1367186953125099},{"name":"A5","midi":81,"time":228.33324199999947,"velocity":0.7559055118110236,"duration":0.1367186953125099},{"name":"F#2","midi":42,"time":228.33324199999947,"velocity":0.7559055118110236,"duration":0.1367186953125099},{"name":"B5","midi":83,"time":228.4721308333328,"velocity":0.7559055118110236,"duration":0.1367186953125099},{"name":"E2","midi":40,"time":228.4721308333328,"velocity":0.7559055118110236,"duration":0.1367186953125099},{"name":"C6","midi":84,"time":228.61101966666615,"velocity":0.7559055118110236,"duration":0.5533851953125293},{"name":"D2","midi":38,"time":228.61101966666615,"velocity":0.7559055118110236,"duration":0.1367186953125099},{"name":"E2","midi":40,"time":228.7499084999995,"velocity":0.7559055118110236,"duration":0.1367186953125099},{"name":"D2","midi":38,"time":228.88879733333283,"velocity":0.7559055118110236,"duration":0.1367186953125099},{"name":"C2","midi":36,"time":229.02768616666617,"velocity":0.7559055118110236,"duration":0.1367186953125099},{"name":"B1","midi":35,"time":229.1665749999995,"velocity":0.7559055118110236,"duration":0.1367186953125099},{"name":"A1","midi":33,"time":229.30546383333285,"velocity":0.7559055118110236,"duration":0.1367186953125099},{"name":"G1","midi":31,"time":229.4443526666662,"velocity":0.7559055118110236,"duration":0.1367186953125099},{"name":"D5","midi":74,"time":229.58324149999953,"velocity":0.7559055118110236,"duration":0.1367186953125099},{"name":"B1","midi":35,"time":229.58324149999953,"velocity":0.7559055118110236,"duration":0.1367186953125099},{"name":"E5","midi":76,"time":229.72213033333287,"velocity":0.7559055118110236,"duration":0.1367186953125099},{"name":"C2","midi":36,"time":229.72213033333287,"velocity":0.7559055118110236,"duration":0.1367186953125099},{"name":"F#5","midi":78,"time":229.8610191666662,"velocity":0.7559055118110236,"duration":0.1367186953125099},{"name":"D2","midi":38,"time":229.8610191666662,"velocity":0.7559055118110236,"duration":0.1367186953125099},{"name":"G5","midi":79,"time":229.99990799999955,"velocity":0.7559055118110236,"duration":0.1367186953125099},{"name":"E2","midi":40,"time":229.99990799999955,"velocity":0.7559055118110236,"duration":0.1367186953125099},{"name":"A5","midi":81,"time":230.1387968333329,"velocity":0.7559055118110236,"duration":0.1367186953125099},{"name":"F#2","midi":42,"time":230.1387968333329,"velocity":0.7559055118110236,"duration":0.1367186953125099},{"name":"B5","midi":83,"time":230.27768566666623,"velocity":0.7559055118110236,"duration":0.29296863281251717},{"name":"G2","midi":43,"time":230.27768566666623,"velocity":0.7559055118110236,"duration":0.3472220833333495},{"name":"A5","midi":81,"time":230.5554633333329,"velocity":0.7559055118110236,"duration":0.2604165625000121},{"name":"G5","midi":79,"time":230.8332409999996,"velocity":0.7559055118110236,"duration":0.4123262239583596},{"name":"G3","midi":55,"time":231.11101866666627,"velocity":0.7559055118110236,"duration":0.3472220833333495},{"name":"B3","midi":59,"time":231.11101866666627,"velocity":0.7559055118110236,"duration":0.3472220833333495},{"name":"F#5","midi":78,"time":231.38879633333295,"velocity":0.7559055118110236,"duration":0.2756075286458497},{"name":"E5","midi":76,"time":231.66657399999963,"velocity":0.7559055118110236,"duration":0.2756075286458213},{"name":"D5","midi":74,"time":231.94435166666628,"velocity":0.7559055118110236,"duration":0.2756075286458213},{"name":"G3","midi":55,"time":231.94435166666628,"velocity":0.7559055118110236,"duration":0.5533851953124724},{"name":"A3","midi":57,"time":231.94435166666628,"velocity":0.7559055118110236,"duration":0.5533851953124724},{"name":"C#5","midi":73,"time":232.22212933333293,"velocity":0.7559055118110236,"duration":0.2756075286458213},{"name":"A5","midi":81,"time":232.49990699999958,"velocity":0.7559055118110236,"duration":0.4123262239583596},{"name":"F#2","midi":42,"time":232.77768466666626,"velocity":0.7559055118110236,"duration":0.3472220833333495},{"name":"G5","midi":79,"time":233.05546233333294,"velocity":0.7559055118110236,"duration":0.2756075286458497},{"name":"F#5","midi":78,"time":233.33323999999962,"velocity":0.7559055118110236,"duration":0.4123262239583596},{"name":"F#3","midi":54,"time":233.6110176666663,"velocity":0.7559055118110236,"duration":0.3472220833333495},{"name":"A3","midi":57,"time":233.6110176666663,"velocity":0.7559055118110236,"duration":0.3472220833333495},{"name":"E5","midi":76,"time":233.88879533333298,"velocity":0.7559055118110236,"duration":0.2756075286458497},{"name":"D5","midi":74,"time":234.16657299999966,"velocity":0.7559055118110236,"duration":0.2756075286458213},{"name":"C5","midi":72,"time":234.4443506666663,"velocity":0.7559055118110236,"duration":0.2756075286458213},{"name":"F#3","midi":54,"time":234.4443506666663,"velocity":0.7559055118110236,"duration":0.5533851953124724},{"name":"G3","midi":55,"time":234.4443506666663,"velocity":0.7559055118110236,"duration":0.5533851953124724},{"name":"B4","midi":71,"time":234.72212833333296,"velocity":0.7559055118110236,"duration":0.2756075286458213},{"name":"G5","midi":79,"time":234.9999059999996,"velocity":0.7559055118110236,"duration":0.4123262239583596},{"name":"E3","midi":52,"time":235.2776836666663,"velocity":0.7559055118110236,"duration":0.3472220833333495},{"name":"F#5","midi":78,"time":235.55546133333297,"velocity":0.7559055118110236,"duration":0.2756075286458497},{"name":"E5","midi":76,"time":235.83323899999965,"velocity":0.7559055118110236,"duration":0.4123262239583596},{"name":"D3","midi":50,"time":236.11101666666633,"velocity":0.7559055118110236,"duration":0.3472220833333495},{"name":"G3","midi":55,"time":236.11101666666633,"velocity":0.7559055118110236,"duration":0.3472220833333495},{"name":"D5","midi":74,"time":236.388794333333,"velocity":0.7559055118110236,"duration":0.2756075286458497},{"name":"C#5","midi":73,"time":236.6665719999997,"velocity":0.7559055118110236,"duration":0.2756075286458213},{"name":"B4","midi":71,"time":236.94434966666634,"velocity":0.7559055118110236,"duration":0.2756075286458213},{"name":"G3","midi":55,"time":236.94434966666634,"velocity":0.7559055118110236,"duration":0.7378469270832966},{"name":"C#3","midi":49,"time":236.94434966666634,"velocity":0.7559055118110236,"duration":0.5533851953124724},{"name":"A4","midi":69,"time":237.222127333333,"velocity":0.7559055118110236,"duration":0.2756075286458213},{"name":"E5","midi":76,"time":237.49990499999964,"velocity":0.7559055118110236,"duration":0.4774303645833129},{"name":"A2","midi":45,"time":237.7776826666663,"velocity":0.7559055118110236,"duration":0.34722208333332105},{"name":"D5","midi":74,"time":238.05546033333295,"velocity":0.7559055118110236,"duration":0.2756075286458497},{"name":"C#5","midi":73,"time":238.33323799999962,"velocity":0.7559055118110236,"duration":0.4774303645833413},{"name":"A3","midi":57,"time":238.6110156666663,"velocity":0.7559055118110236,"duration":0.34722208333332105},{"name":"C#4","midi":61,"time":238.6110156666663,"velocity":0.7559055118110236,"duration":0.34722208333332105},{"name":"B4","midi":71,"time":238.88879333333296,"velocity":0.7559055118110236,"duration":0.2756075286458497},{"name":"A4","midi":69,"time":239.16657099999964,"velocity":0.7559055118110236,"duration":0.2756075286458213},{"name":"G4","midi":67,"time":239.4443486666663,"velocity":0.7559055118110236,"duration":0.2756075286458213},{"name":"D4","midi":62,"time":239.4443486666663,"velocity":0.7559055118110236,"duration":0.7812496874999795},{"name":"A3","midi":57,"time":239.4443486666663,"velocity":0.7559055118110236,"duration":0.5533851953124724},{"name":"F4","midi":65,"time":239.72212633333294,"velocity":0.7559055118110236,"duration":0.5533851953125009},{"name":"F5","midi":77,"time":239.9999039999996,"velocity":0.7559055118110236,"duration":0.4123262239583596},{"name":"A2","midi":45,"time":240.27768166666627,"velocity":0.7559055118110236,"duration":0.3472220833333495},{"name":"E5","midi":76,"time":240.55545933333295,"velocity":0.7559055118110236,"duration":0.2756075286458497},{"name":"D5","midi":74,"time":240.83323699999963,"velocity":0.7559055118110236,"duration":0.4774303645833413},{"name":"A3","midi":57,"time":241.1110146666663,"velocity":0.7559055118110236,"duration":0.34722208333332105},{"name":"D4","midi":62,"time":241.1110146666663,"velocity":0.7559055118110236,"duration":0.34722208333332105},{"name":"F4","midi":65,"time":241.1110146666663,"velocity":0.7559055118110236,"duration":0.34722208333332105},{"name":"C5","midi":72,"time":241.38879233333296,"velocity":0.7559055118110236,"duration":0.2756075286458497},{"name":"B4","midi":71,"time":241.66656999999964,"velocity":0.7559055118110236,"duration":0.2756075286458213},{"name":"A4","midi":69,"time":241.9443476666663,"velocity":0.7559055118110236,"duration":0.2756075286458213},{"name":"B3","midi":59,"time":241.9443476666663,"velocity":0.7559055118110236,"duration":0.5533851953124724},{"name":"D4","midi":62,"time":241.9443476666663,"velocity":0.7559055118110236,"duration":0.7812496874999795},{"name":"F4","midi":65,"time":241.9443476666663,"velocity":0.7559055118110236,"duration":0.5533851953124724},{"name":"G#4","midi":68,"time":242.22212533333294,"velocity":0.7559055118110236,"duration":0.2756075286458213},{"name":"B5","midi":83,"time":242.4999029999996,"velocity":0.7559055118110236,"duration":0.4123262239583596},{"name":"A2","midi":45,"time":242.77768066666627,"velocity":0.7559055118110236,"duration":0.3472220833333495},{"name":"A5","midi":81,"time":243.05545833333295,"velocity":0.7559055118110236,"duration":0.2756075286458497},{"name":"G#5","midi":80,"time":243.33323599999963,"velocity":0.7559055118110236,"duration":0.4123262239583596},{"name":"D4","midi":62,"time":243.6110136666663,"velocity":0.7559055118110236,"duration":0.3472220833333495},{"name":"B3","midi":59,"time":243.6110136666663,"velocity":0.7559055118110236,"duration":0.3472220833333495},{"name":"G#4","midi":68,"time":243.6110136666663,"velocity":0.7559055118110236,"duration":0.3472220833333495},{"name":"F#5","midi":78,"time":243.888791333333,"velocity":0.7559055118110236,"duration":0.2756075286458497},{"name":"E5","midi":76,"time":244.16656899999967,"velocity":0.7559055118110236,"duration":0.2756075286458213},{"name":"D5","midi":74,"time":244.44434666666632,"velocity":0.7559055118110236,"duration":0.1367186953125099},{"name":"A3","midi":57,"time":244.44434666666632,"velocity":0.7559055118110236,"duration":0.8246524479166908},{"name":"A4","midi":69,"time":244.44434666666632,"velocity":0.7559055118110236,"duration":0.8246524479166908},{"name":"E4","midi":64,"time":244.44434666666632,"velocity":0.7559055118110236,"duration":0.8246524479166908},{"name":"B4","midi":71,"time":244.58323549999966,"velocity":0.7559055118110236,"duration":0.1367186953125099},{"name":"C#5","midi":73,"time":244.722124333333,"velocity":0.7559055118110236,"duration":0.1367186953125099},{"name":"D5","midi":74,"time":244.86101316666634,"velocity":0.7559055118110236,"duration":0.1367186953125099},{"name":"E5","midi":76,"time":244.99990199999968,"velocity":0.7559055118110236,"duration":0.1367186953125099},{"name":"C#5","midi":73,"time":245.13879083333302,"velocity":0.7559055118110236,"duration":0.1367186953124815},{"name":"A4","midi":69,"time":245.27767966666633,"velocity":0.7559055118110236,"duration":0.8311628619792089},{"name":"A2","midi":45,"time":245.41656849999967,"velocity":0.7559055118110236,"duration":0.1367186953125099},{"name":"C#3","midi":49,"time":245.555457333333,"velocity":0.7559055118110236,"duration":0.1367186953125099},{"name":"E3","midi":52,"time":245.69434616666635,"velocity":0.7559055118110236,"duration":0.1367186953125099},{"name":"A3","midi":57,"time":245.8332349999997,"velocity":0.7559055118110236,"duration":0.1367186953125099},{"name":"C#4","midi":61,"time":245.97212383333303,"velocity":0.7559055118110236,"duration":0.1367186953125099},{"name":"A4","midi":69,"time":246.11101266666637,"velocity":0.7559055118110236,"duration":0.1367186953125099},{"name":"E4","midi":64,"time":246.11101266666637,"velocity":0.7559055118110236,"duration":0.8246524479166908},{"name":"G4","midi":67,"time":246.2499014999997,"velocity":0.7559055118110236,"duration":0.1367186953125099},{"name":"A4","midi":69,"time":246.38879033333305,"velocity":0.7559055118110236,"duration":0.1367186953125099},{"name":"D4","midi":62,"time":246.38879033333305,"velocity":0.7559055118110236,"duration":0.2756075286458497},{"name":"G4","midi":67,"time":246.5276791666664,"velocity":0.7559055118110236,"duration":0.1367186953125099},{"name":"F#4","midi":66,"time":246.66656799999973,"velocity":0.7559055118110236,"duration":0.1367186953125099},{"name":"C#4","midi":61,"time":246.66656799999973,"velocity":0.7559055118110236,"duration":0.4123262239583312},{"name":"G4","midi":67,"time":246.80545683333307,"velocity":0.7559055118110236,"duration":0.1367186953124815},{"name":"F#4","midi":66,"time":246.94434566666638,"velocity":0.7559055118110236,"duration":0.1367186953125099},{"name":"D4","midi":62,"time":246.94434566666638,"velocity":0.7559055118110236,"duration":0.5533851953125293},{"name":"A4","midi":69,"time":247.08323449999972,"velocity":0.7559055118110236,"duration":0.1367186953125099},{"name":"B4","midi":71,"time":247.22212333333306,"velocity":0.7559055118110236,"duration":0.1367186953125099},{"name":"C#5","midi":73,"time":247.3610121666664,"velocity":0.7559055118110236,"duration":0.1367186953125099},{"name":"D5","midi":74,"time":247.49990099999974,"velocity":0.7559055118110236,"duration":0.1367186953125099},{"name":"B4","midi":71,"time":247.63878983333308,"velocity":0.7559055118110236,"duration":0.1367186953125099},{"name":"G4","midi":67,"time":247.77767866666642,"velocity":0.7559055118110236,"duration":0.8311628619792089},{"name":"A2","midi":45,"time":247.91656749999976,"velocity":0.7559055118110236,"duration":0.1367186953125099},{"name":"D3","midi":50,"time":248.0554563333331,"velocity":0.7559055118110236,"duration":0.1367186953125099},{"name":"F#3","midi":54,"time":248.19434516666644,"velocity":0.7559055118110236,"duration":0.1367186953125099},{"name":"A3","midi":57,"time":248.33323399999978,"velocity":0.7559055118110236,"duration":0.1367186953125099},{"name":"C#4","midi":61,"time":248.47212283333312,"velocity":0.7559055118110236,"duration":0.1367186953125099},{"name":"G4","midi":67,"time":248.61101166666646,"velocity":0.7559055118110236,"duration":0.10199648697917496},{"name":"D4","midi":62,"time":248.61101166666646,"velocity":0.7559055118110236,"duration":0.8246524479167476},{"name":"F#4","midi":66,"time":248.7238588437498,"velocity":0.7559055118110236,"duration":0.10199648697917496},{"name":"G4","midi":67,"time":248.83670602083316,"velocity":0.7559055118110236,"duration":0.10199648697917496},{"name":"C#4","midi":61,"time":248.88878933333316,"velocity":0.7559055118110236,"duration":0.2756075286458781},{"name":"F#4","midi":66,"time":248.94955319791652,"velocity":0.7559055118110236,"duration":0.10199648697917496},{"name":"G4","midi":67,"time":249.06240037499987,"velocity":0.7559055118110236,"duration":0.10199648697917496},{"name":"B3","midi":59,"time":249.16656699999987,"velocity":0.7559055118110236,"duration":0.4123262239583312},{"name":"F#4","midi":66,"time":249.17958782812488,"velocity":0.7559055118110236,"duration":0.26475683854164345},{"name":"E4","midi":64,"time":249.44434466666652,"velocity":0.7559055118110236,"duration":0.1367186953125099},{"name":"C#4","midi":61,"time":249.44434466666652,"velocity":0.7559055118110236,"duration":0.5533851953125293},{"name":"G#4","midi":68,"time":249.58323349999986,"velocity":0.7559055118110236,"duration":0.1367186953125099},{"name":"A4","midi":69,"time":249.7221223333332,"velocity":0.7559055118110236,"duration":0.1367186953125099},{"name":"B4","midi":71,"time":249.86101116666654,"velocity":0.7559055118110236,"duration":0.1367186953125099},{"name":"C#5","midi":73,"time":249.99989999999988,"velocity":0.7559055118110236,"duration":0.1367186953125099},{"name":"A4","midi":69,"time":250.13878883333322,"velocity":0.7559055118110236,"duration":0.1367186953125099},{"name":"F#4","midi":66,"time":250.27767766666656,"velocity":0.7559055118110236,"duration":0.8311628619792089},{"name":"A2","midi":45,"time":250.4165664999999,"velocity":0.7559055118110236,"duration":0.1367186953125099},{"name":"C#3","midi":49,"time":250.55545533333324,"velocity":0.7559055118110236,"duration":0.1367186953125099},{"name":"E3","midi":52,"time":250.69434416666658,"velocity":0.7559055118110236,"duration":0.1367186953125099},{"name":"A3","midi":57,"time":250.83323299999992,"velocity":0.7559055118110236,"duration":0.1367186953125099},{"name":"B3","midi":59,"time":250.97212183333326,"velocity":0.7559055118110236,"duration":0.1367186953125099},{"name":"F#4","midi":66,"time":251.1110106666666,"velocity":0.7559055118110236,"duration":0.10199648697917496},{"name":"C#4","midi":61,"time":251.1110106666666,"velocity":0.7559055118110236,"duration":0.824652447916634},{"name":"E4","midi":64,"time":251.21083701562495,"velocity":0.7559055118110236,"duration":0.10199648697914654},{"name":"F#4","midi":66,"time":251.31066336458326,"velocity":0.7559055118110236,"duration":0.10199648697914654},{"name":"B3","midi":59,"time":251.38878833333325,"velocity":0.7559055118110236,"duration":0.2756075286458213},{"name":"E4","midi":64,"time":251.41048971354158,"velocity":0.7559055118110236,"duration":0.10199648697914654},{"name":"F#4","midi":66,"time":251.5103160624999,"velocity":0.7559055118110236,"duration":0.10199648697917496},{"name":"E4","midi":64,"time":251.6144826874999,"velocity":0.7559055118110236,"duration":0.3103297369791562},{"name":"A3","midi":57,"time":251.6665659999999,"velocity":0.7559055118110236,"duration":0.4123262239583312},{"name":"D4","midi":62,"time":251.94434366666655,"velocity":0.7559055118110236,"duration":0.1367186953125099},{"name":"B3","midi":59,"time":251.94434366666655,"velocity":0.7559055118110236,"duration":0.5533851953125293},{"name":"F#4","midi":66,"time":252.0832324999999,"velocity":0.7559055118110236,"duration":0.1367186953125099},{"name":"G#4","midi":68,"time":252.22212133333323,"velocity":0.7559055118110236,"duration":0.1367186953125099},{"name":"A4","midi":69,"time":252.36101016666657,"velocity":0.7559055118110236,"duration":0.1367186953125099},{"name":"B4","midi":71,"time":252.4998989999999,"velocity":0.7559055118110236,"duration":0.1367186953125099},{"name":"G#4","midi":68,"time":252.63878783333325,"velocity":0.7559055118110236,"duration":0.1367186953125099},{"name":"E4","midi":64,"time":252.7776766666666,"velocity":0.7559055118110236,"duration":0.8311628619792089},{"name":"A2","midi":45,"time":252.91656549999993,"velocity":0.7559055118110236,"duration":0.1367186953125099},{"name":"B2","midi":47,"time":253.05545433333327,"velocity":0.7559055118110236,"duration":0.1367186953125099},{"name":"D3","midi":50,"time":253.1943431666666,"velocity":0.7559055118110236,"duration":0.1367186953125099},{"name":"E3","midi":52,"time":253.33323199999995,"velocity":0.7559055118110236,"duration":0.1367186953125099},{"name":"G#3","midi":56,"time":253.4721208333333,"velocity":0.7559055118110236,"duration":0.1367186953125099},{"name":"E4","midi":64,"time":253.61100966666663,"velocity":0.7559055118110236,"duration":0.10199648697917496},{"name":"B3","midi":59,"time":253.61100966666663,"velocity":0.7559055118110236,"duration":0.5533851953125293},{"name":"D4","midi":62,"time":253.71517629166664,"velocity":0.7559055118110236,"duration":0.10199648697917496},{"name":"E4","midi":64,"time":253.81934291666664,"velocity":0.7559055118110236,"duration":0.10199648697917496},{"name":"A3","midi":57,"time":253.8887873333333,"velocity":0.7559055118110236,"duration":0.2756075286458497},{"name":"D4","midi":62,"time":253.92350954166665,"velocity":0.7559055118110236,"duration":0.10199648697917496},{"name":"E4","midi":64,"time":254.02767616666665,"velocity":0.7559055118110236,"duration":0.10199648697917496},{"name":"D4","midi":62,"time":254.13184279166666,"velocity":0.7559055118110236,"duration":0.10199648697917496},{"name":"G#3","midi":56,"time":254.166565,"velocity":0.7559055118110236,"duration":0.2756075286458497},{"name":"C#4","midi":61,"time":254.23600941666666,"velocity":0.7559055118110236,"duration":0.10199648697917496},{"name":"D4","midi":62,"time":254.34017604166667,"velocity":0.7559055118110236,"duration":0.10199648697917496},{"name":"C#4","midi":61,"time":254.44434266666667,"velocity":0.7559055118110236,"duration":0.1367186953125099},{"name":"A3","midi":57,"time":254.44434266666667,"velocity":0.7559055118110236,"duration":0.3472220833333495},{"name":"E4","midi":64,"time":254.5832315,"velocity":0.7559055118110236,"duration":0.1367186953125099},{"name":"D4","midi":62,"time":254.72212033333335,"velocity":0.7559055118110236,"duration":0.1367186953125099},{"name":"C#4","midi":61,"time":254.8610091666667,"velocity":0.7559055118110236,"duration":0.1367186953125099},{"name":"B3","midi":59,"time":254.99989800000003,"velocity":0.7559055118110236,"duration":0.1367186953125099},{"name":"A3","midi":57,"time":255.13878683333337,"velocity":0.7559055118110236,"duration":0.1367186953125099},{"name":"A2","midi":45,"time":255.2776756666667,"velocity":0.7559055118110236,"duration":0.3472220833333495},{"name":"A4","midi":69,"time":255.41656450000005,"velocity":0.7559055118110236,"duration":0.1367186953125099},{"name":"G4","midi":67,"time":255.5554533333334,"velocity":0.7559055118110236,"duration":0.1367186953125099},{"name":"F#4","midi":66,"time":255.69434216666673,"velocity":0.7559055118110236,"duration":0.1367186953125099},{"name":"E4","midi":64,"time":255.83323100000007,"velocity":0.7559055118110236,"duration":0.1367186953125099},{"name":"D4","midi":62,"time":255.9721198333334,"velocity":0.7559055118110236,"duration":0.1367186953124815},{"name":"C#4","midi":61,"time":256.11100866666675,"velocity":0.7559055118110236,"duration":0.3472220833333495},{"name":"A3","midi":57,"time":256.11100866666675,"velocity":0.7559055118110236,"duration":0.3472220833333495},{"name":"B4","midi":71,"time":256.2498975000001,"velocity":0.7559055118110236,"duration":0.1367186953124815},{"name":"A4","midi":69,"time":256.3887863333334,"velocity":0.7559055118110236,"duration":0.1367186953124815},{"name":"G4","midi":67,"time":256.52767516666677,"velocity":0.7559055118110236,"duration":0.1367186953124815},{"name":"F#4","midi":66,"time":256.6665640000001,"velocity":0.7559055118110236,"duration":0.1367186953124815},{"name":"E4","midi":64,"time":256.80545283333345,"velocity":0.7559055118110236,"duration":0.1367186953124815},{"name":"F#4","midi":66,"time":256.9443416666668,"velocity":0.7559055118110236,"duration":0.1367186953124815},{"name":"A3","midi":57,"time":256.9443416666668,"velocity":0.7559055118110236,"duration":0.3472220833333495},{"name":"D4","midi":62,"time":256.9443416666668,"velocity":0.7559055118110236,"duration":0.3472220833333495},{"name":"A4","midi":69,"time":257.0832305000001,"velocity":0.7559055118110236,"duration":0.1367186953124815},{"name":"G4","midi":67,"time":257.22211933333347,"velocity":0.7559055118110236,"duration":0.1367186953124815},{"name":"F#4","midi":66,"time":257.3610081666668,"velocity":0.7559055118110236,"duration":0.1367186953124815},{"name":"E4","midi":64,"time":257.49989700000015,"velocity":0.7559055118110236,"duration":0.1367186953124815},{"name":"D4","midi":62,"time":257.6387858333335,"velocity":0.7559055118110236,"duration":0.1367186953124815},{"name":"A2","midi":45,"time":257.7776746666668,"velocity":0.7559055118110236,"duration":0.3472220833333495},{"name":"D5","midi":74,"time":257.91656350000017,"velocity":0.7559055118110236,"duration":0.1367186953124815},{"name":"C#5","midi":73,"time":258.0554523333335,"velocity":0.7559055118110236,"duration":0.1367186953124815},{"name":"B4","midi":71,"time":258.19434116666685,"velocity":0.7559055118110236,"duration":0.1367186953124815},{"name":"A4","midi":69,"time":258.3332300000002,"velocity":0.7559055118110236,"duration":0.1367186953124815},{"name":"G4","midi":67,"time":258.4721188333335,"velocity":0.7559055118110236,"duration":0.1367186953124815},{"name":"A3","midi":57,"time":258.61100766666686,"velocity":0.7559055118110236,"duration":0.3472220833333495},{"name":"D4","midi":62,"time":258.61100766666686,"velocity":0.7559055118110236,"duration":0.3472220833333495},{"name":"F#4","midi":66,"time":258.61100766666686,"velocity":0.7559055118110236,"duration":0.3472220833333495},{"name":"E5","midi":76,"time":258.7498965000002,"velocity":0.7559055118110236,"duration":0.1367186953124815},{"name":"D5","midi":74,"time":258.88878533333354,"velocity":0.7559055118110236,"duration":0.1367186953124815},{"name":"C#5","midi":73,"time":259.0276741666669,"velocity":0.7559055118110236,"duration":0.1367186953124815},{"name":"B4","midi":71,"time":259.1665630000002,"velocity":0.7559055118110236,"duration":0.1367186953124815},{"name":"A4","midi":69,"time":259.30545183333356,"velocity":0.7559055118110236,"duration":0.1367186953124815},{"name":"G#4","midi":68,"time":259.4443406666669,"velocity":0.7559055118110236,"duration":0.1367186953124815},{"name":"A3","midi":57,"time":259.4443406666669,"velocity":0.7559055118110236,"duration":0.3472220833333495},{"name":"B3","midi":59,"time":259.4443406666669,"velocity":0.7559055118110236,"duration":0.3472220833333495},{"name":"D4","midi":62,"time":259.4443406666669,"velocity":0.7559055118110236,"duration":0.3472220833333495},{"name":"B4","midi":71,"time":259.58322950000024,"velocity":0.7559055118110236,"duration":0.1367186953124815},{"name":"A4","midi":69,"time":259.7221183333336,"velocity":0.7559055118110236,"duration":0.1367186953124815},{"name":"G#4","midi":68,"time":259.8610071666669,"velocity":0.7559055118110236,"duration":0.1367186953124815},{"name":"F#4","midi":66,"time":259.99989600000026,"velocity":0.7559055118110236,"duration":0.1367186953124815},{"name":"E4","midi":64,"time":260.1387848333336,"velocity":0.7559055118110236,"duration":0.1367186953124815},{"name":"A2","midi":45,"time":260.27767366666694,"velocity":0.7559055118110236,"duration":0.3472220833333495},{"name":"D5","midi":74,"time":260.4165625000003,"velocity":0.7559055118110236,"duration":0.1367186953124815},{"name":"C#5","midi":73,"time":260.5554513333336,"velocity":0.7559055118110236,"duration":0.1367186953124815},{"name":"B4","midi":71,"time":260.69434016666696,"velocity":0.7559055118110236,"duration":0.1367186953124815},{"name":"A4","midi":69,"time":260.8332290000003,"velocity":0.7559055118110236,"duration":0.1367186953124815},{"name":"G#4","midi":68,"time":260.97211783333364,"velocity":0.7559055118110236,"duration":0.1367186953124815},{"name":"B3","midi":59,"time":261.111006666667,"velocity":0.7559055118110236,"duration":0.3472220833333495},{"name":"E4","midi":64,"time":261.111006666667,"velocity":0.7559055118110236,"duration":0.3472220833333495},{"name":"G#3","midi":56,"time":261.111006666667,"velocity":0.7559055118110236,"duration":0.3472220833333495},{"name":"F#5","midi":78,"time":261.2498955000003,"velocity":0.7559055118110236,"duration":0.1367186953124815},{"name":"E5","midi":76,"time":261.38878433333366,"velocity":0.7559055118110236,"duration":0.1367186953124815},{"name":"D5","midi":74,"time":261.527673166667,"velocity":0.7559055118110236,"duration":0.1367186953124815},{"name":"C#5","midi":73,"time":261.66656200000034,"velocity":0.7559055118110236,"duration":0.1367186953124815},{"name":"B4","midi":71,"time":261.8054508333337,"velocity":0.7559055118110236,"duration":0.1367186953124815},{"name":"C#5","midi":73,"time":261.944339666667,"velocity":0.7559055118110236,"duration":0.5533851953125009},{"name":"A3","midi":57,"time":261.944339666667,"velocity":0.7559055118110236,"duration":0.2756075286458213},{"name":"B3","midi":59,"time":262.2221173333337,"velocity":0.7559055118110236,"duration":0.1367186953124815},{"name":"C#4","midi":61,"time":262.36100616666704,"velocity":0.7559055118110236,"duration":0.1367186953124815},{"name":"D4","midi":62,"time":262.4998950000004,"velocity":0.7559055118110236,"duration":0.1367186953124815},{"name":"E4","midi":64,"time":262.6387838333337,"velocity":0.7559055118110236,"duration":0.1367186953124815},{"name":"F#4","midi":66,"time":262.77767266666706,"velocity":0.7559055118110236,"duration":0.5533851953125009},{"name":"C#5","midi":73,"time":262.9165615000004,"velocity":0.7559055118110236,"duration":0.1367186953124815},{"name":"D5","midi":74,"time":263.05545033333374,"velocity":0.7559055118110236,"duration":0.1367186953124815},{"name":"E5","midi":76,"time":263.1943391666671,"velocity":0.7559055118110236,"duration":0.1367186953124815},{"name":"F#5","midi":78,"time":263.3332280000004,"velocity":0.7559055118110236,"duration":0.1367186953124815},{"name":"G5","midi":79,"time":263.47211683333376,"velocity":0.7559055118110236,"duration":0.1367186953124815},{"name":"A5","midi":81,"time":263.6110056666671,"velocity":0.7559055118110236,"duration":1.10894052864586},{"name":"E4","midi":64,"time":263.6110056666671,"velocity":0.7559055118110236,"duration":0.5533851953125009},{"name":"G5","midi":79,"time":263.74989450000044,"velocity":0.7559055118110236,"duration":0.1367186953124815},{"name":"F#5","midi":78,"time":263.8887833333338,"velocity":0.7559055118110236,"duration":0.1367186953124815},{"name":"E5","midi":76,"time":264.0276721666671,"velocity":0.7559055118110236,"duration":0.1367186953124815},{"name":"D#5","midi":75,"time":264.16656100000046,"velocity":0.7559055118110236,"duration":0.1367186953124815},{"name":"C#5","midi":73,"time":264.3054498333338,"velocity":0.7559055118110236,"duration":0.1367186953124815},{"name":"B4","midi":71,"time":264.44433866666714,"velocity":0.7559055118110236,"duration":0.8246524479167192},{"name":"D#4","midi":63,"time":264.44433866666714,"velocity":0.7559055118110236,"duration":0.2756075286458213},{"name":"G5","midi":79,"time":264.7221163333338,"velocity":0.7559055118110236,"duration":0.2756075286458213},{"name":"E4","midi":64,"time":264.7221163333338,"velocity":0.7559055118110236,"duration":0.1367186953124815},{"name":"D#4","midi":63,"time":264.86100516666716,"velocity":0.7559055118110236,"duration":0.1367186953124815},{"name":"F#5","midi":78,"time":264.9998940000005,"velocity":0.7559055118110236,"duration":0.2756075286458781},{"name":"C#4","midi":61,"time":264.9998940000005,"velocity":0.7559055118110236,"duration":0.1367186953124815},{"name":"B3","midi":59,"time":265.13878283333383,"velocity":0.7559055118110236,"duration":0.13671869531253833},{"name":"G5","midi":79,"time":265.27767166666723,"velocity":0.7559055118110236,"duration":0.2604165624999837},{"name":"E4","midi":64,"time":265.27767166666723,"velocity":0.7559055118110236,"duration":0.5533851953125009},{"name":"B4","midi":71,"time":265.41656050000057,"velocity":0.7559055118110236,"duration":0.1367186953124815},{"name":"C#5","midi":73,"time":265.5554493333339,"velocity":0.7559055118110236,"duration":0.1367186953124815},{"name":"D5","midi":74,"time":265.69433816666725,"velocity":0.7559055118110236,"duration":0.1367186953124815},{"name":"E5","midi":76,"time":265.8332270000006,"velocity":0.7559055118110236,"duration":0.1367186953124815},{"name":"F#5","midi":78,"time":265.97211583333393,"velocity":0.7559055118110236,"duration":0.1367186953124815},{"name":"G5","midi":79,"time":266.11100466666727,"velocity":0.7559055118110236,"duration":1.10894052864586},{"name":"D4","midi":62,"time":266.11100466666727,"velocity":0.7559055118110236,"duration":0.5533851953125009},{"name":"F#5","midi":78,"time":266.2498935000006,"velocity":0.7559055118110236,"duration":0.1367186953124815},{"name":"E5","midi":76,"time":266.38878233333395,"velocity":0.7559055118110236,"duration":0.1367186953124815},{"name":"D5","midi":74,"time":266.5276711666673,"velocity":0.7559055118110236,"duration":0.1367186953124815},{"name":"C#5","midi":73,"time":266.66656000000063,"velocity":0.7559055118110236,"duration":0.1367186953124815},{"name":"B4","midi":71,"time":266.80544883333397,"velocity":0.7559055118110236,"duration":0.1367186953124815},{"name":"A4","midi":69,"time":266.9443376666673,"velocity":0.7559055118110236,"duration":0.8246524479167192},{"name":"C#4","midi":61,"time":266.9443376666673,"velocity":0.7559055118110236,"duration":0.2756075286458213},{"name":"F#5","midi":78,"time":267.222115333334,"velocity":0.7559055118110236,"duration":0.2756075286458213},{"name":"D4","midi":62,"time":267.222115333334,"velocity":0.7559055118110236,"duration":0.1367186953124815},{"name":"C#4","midi":61,"time":267.3610041666673,"velocity":0.7559055118110236,"duration":0.1367186953124815},{"name":"E5","midi":76,"time":267.49989300000067,"velocity":0.7559055118110236,"duration":0.2756075286458781},{"name":"B3","midi":59,"time":267.49989300000067,"velocity":0.7559055118110236,"duration":0.1367186953124815},{"name":"A3","midi":57,"time":267.638781833334,"velocity":0.7559055118110236,"duration":0.13671869531253833},{"name":"F#5","midi":78,"time":267.7776706666674,"velocity":0.7559055118110236,"duration":0.2604165624999837},{"name":"D4","midi":62,"time":267.7776706666674,"velocity":0.7559055118110236,"duration":0.5533851953125009},{"name":"F#4","midi":66,"time":267.91655950000074,"velocity":0.7559055118110236,"duration":0.1367186953124815},{"name":"G4","midi":67,"time":268.0554483333341,"velocity":0.7559055118110236,"duration":0.1367186953124815},{"name":"A4","midi":69,"time":268.1943371666674,"velocity":0.7559055118110236,"duration":0.1367186953124815},{"name":"B4","midi":71,"time":268.33322600000076,"velocity":0.7559055118110236,"duration":0.1367186953124815},{"name":"C#5","midi":73,"time":268.4721148333341,"velocity":0.7559055118110236,"duration":0.1367186953124815},{"name":"D5","midi":74,"time":268.61100366666744,"velocity":0.7559055118110236,"duration":0.7812496875000079},{"name":"C#4","midi":61,"time":268.61100366666744,"velocity":0.7559055118110236,"duration":0.5533851953125009},{"name":"C#5","midi":73,"time":268.7498925000008,"velocity":0.7559055118110236,"duration":0.1367186953124815},{"name":"B4","midi":71,"time":268.8887813333341,"velocity":0.7559055118110236,"duration":0.1367186953124815},{"name":"A4","midi":69,"time":269.02767016666746,"velocity":0.7559055118110236,"duration":0.1367186953124815},{"name":"G4","midi":67,"time":269.1665590000008,"velocity":0.7559055118110236,"duration":0.1367186953124815},{"name":"F#4","midi":66,"time":269.30544783333414,"velocity":0.7559055118110236,"duration":0.8246524479166624},{"name":"G4","midi":67,"time":269.4443366666674,"velocity":0.7559055118110236,"duration":1.1089405286459169},{"name":"B3","midi":59,"time":269.4443366666674,"velocity":0.7559055118110236,"duration":0.2756075286458213},{"name":"C#4","midi":61,"time":269.7221143333341,"velocity":0.7559055118110236,"duration":0.1367186953124815},{"name":"B3","midi":59,"time":269.86100316666744,"velocity":0.7559055118110236,"duration":0.1367186953124815},{"name":"A3","midi":57,"time":269.9998920000008,"velocity":0.7559055118110236,"duration":0.13671869531253833},{"name":"B3","midi":59,"time":270.1387808333342,"velocity":0.7559055118110236,"duration":0.1367186953124815},{"name":"C#4","midi":61,"time":270.2776696666675,"velocity":0.7559055118110236,"duration":0.2756075286458213},{"name":"E4","midi":64,"time":270.2776696666675,"velocity":0.7559055118110236,"duration":0.8311628619791804},{"name":"E5","midi":76,"time":270.5554473333342,"velocity":0.7559055118110236,"duration":0.2756075286458213},{"name":"D4","midi":62,"time":270.5554473333342,"velocity":0.7559055118110236,"duration":0.1367186953124815},{"name":"C#4","midi":61,"time":270.69433616666754,"velocity":0.7559055118110236,"duration":0.1367186953124815},{"name":"G4","midi":67,"time":270.8332250000009,"velocity":0.7559055118110236,"duration":0.2756075286458213},{"name":"B3","midi":59,"time":270.8332250000009,"velocity":0.7559055118110236,"duration":0.1367186953124815},{"name":"C#4","midi":61,"time":270.9721138333342,"velocity":0.7559055118110236,"duration":0.1367186953124815},{"name":"F#4","midi":66,"time":271.11100266666756,"velocity":0.7559055118110236,"duration":0.1367186953124815},{"name":"D4","midi":62,"time":271.11100266666756,"velocity":0.7559055118110236,"duration":0.2756075286458213},{"name":"G4","midi":67,"time":271.2498915000009,"velocity":0.7559055118110236,"duration":0.1367186953124815},{"name":"A4","midi":69,"time":271.38878033333424,"velocity":0.7559055118110236,"duration":0.08897565885416725},{"name":"C#4","midi":61,"time":271.38878033333424,"velocity":0.7559055118110236,"duration":0.13671869531253833},{"name":"E4","midi":64,"time":271.38878033333424,"velocity":0.7559055118110236,"duration":0.9700516953128044},{"name":"G4","midi":67,"time":271.47992613020926,"velocity":0.7559055118110236,"duration":0.0889756588542241},{"name":"B3","midi":59,"time":271.52766916666764,"velocity":0.7559055118110236,"duration":0.13671869531259517},{"name":"A4","midi":69,"time":271.57107192708435,"velocity":0.7559055118110236,"duration":0.08897565885416725},{"name":"G4","midi":67,"time":271.6622177239594,"velocity":0.7559055118110236,"duration":0.0889756588542241},{"name":"A3","midi":57,"time":271.6665580000011,"velocity":0.7559055118110236,"duration":0.13671869531253833},{"name":"F#4","midi":66,"time":271.75336352083445,"velocity":0.7559055118110236,"duration":0.0889756588542241},{"name":"G3","midi":55,"time":271.8054468333345,"velocity":0.7559055118110236,"duration":0.13671869531253833},{"name":"G4","midi":67,"time":271.84450931770954,"velocity":0.7559055118110236,"duration":0.09765621093748678},{"name":"A4","midi":69,"time":271.9443356666679,"velocity":0.7559055118110236,"duration":1.10894052864586},{"name":"F#3","midi":54,"time":271.9443356666679,"velocity":0.7559055118110236,"duration":0.2756075286458213},{"name":"F#2","midi":42,"time":272.22211333333456,"velocity":0.7559055118110236,"duration":0.2756075286458213},{"name":"G4","midi":67,"time":272.3610021666679,"velocity":0.7559055118110236,"duration":0.1367186953124815},{"name":"A2","midi":45,"time":272.49989100000124,"velocity":0.7559055118110236,"duration":0.2756075286458213},{"name":"F#4","midi":66,"time":272.49989100000124,"velocity":0.7559055118110236,"duration":0.1367186953124815},{"name":"E4","midi":64,"time":272.6387798333346,"velocity":0.7559055118110236,"duration":0.1367186953124815},{"name":"B2","midi":47,"time":272.7776686666679,"velocity":0.7559055118110236,"duration":0.2756075286458213},{"name":"D4","midi":62,"time":272.7776686666679,"velocity":0.7559055118110236,"duration":0.41449636197916107},{"name":"G4","midi":67,"time":273.0554463333346,"velocity":0.7559055118110236,"duration":0.8311628619791804},{"name":"E2","midi":40,"time":273.0554463333346,"velocity":0.7559055118110236,"duration":0.2756075286458213},{"name":"F#4","midi":66,"time":273.19433516666794,"velocity":0.7559055118110236,"duration":0.1367186953124815},{"name":"G2","midi":43,"time":273.3332240000013,"velocity":0.7559055118110236,"duration":0.2756075286458213},{"name":"E4","midi":64,"time":273.3332240000013,"velocity":0.7559055118110236,"duration":0.1367186953124815},{"name":"D4","midi":62,"time":273.4721128333346,"velocity":0.7559055118110236,"duration":0.1367186953124815},{"name":"A2","midi":45,"time":273.61100166666796,"velocity":0.7559055118110236,"duration":0.2756075286458213},{"name":"C#4","midi":61,"time":273.61100166666796,"velocity":0.7559055118110236,"duration":0.5533851953125009},{"name":"F#4","midi":66,"time":273.88877933333464,"velocity":0.7559055118110236,"duration":0.8311628619791804},{"name":"D2","midi":38,"time":273.88877933333464,"velocity":0.7559055118110236,"duration":0.2756075286458213},{"name":"F#2","midi":42,"time":274.1665570000013,"velocity":0.7559055118110236,"duration":0.2756075286458213},{"name":"A3","midi":57,"time":274.1665570000013,"velocity":0.7559055118110236,"duration":0.2756075286458213},{"name":"G2","midi":43,"time":274.444334666668,"velocity":0.7559055118110236,"duration":0.2756075286458213},{"name":"B3","midi":59,"time":274.444334666668,"velocity":0.7559055118110236,"duration":0.8311628619791804},{"name":"E4","midi":64,"time":274.7221123333347,"velocity":0.7559055118110236,"duration":0.2756075286458213},{"name":"A2","midi":45,"time":274.7221123333347,"velocity":0.7559055118110236,"duration":0.1367186953124815},{"name":"G2","midi":43,"time":274.861001166668,"velocity":0.7559055118110236,"duration":0.1367186953124815},{"name":"G4","midi":67,"time":274.99989000000136,"velocity":0.7559055118110236,"duration":0.5533851953125009},{"name":"F#2","midi":42,"time":274.99989000000136,"velocity":0.7559055118110236,"duration":0.1367186953124815},{"name":"E2","midi":40,"time":275.1387788333347,"velocity":0.7559055118110236,"duration":0.1367186953124815},{"name":"A2","midi":45,"time":275.27766766666804,"velocity":0.7559055118110236,"duration":0.2756075286458213},{"name":"C#4","midi":61,"time":275.27766766666804,"velocity":0.7559055118110236,"duration":0.41449636197916107},{"name":"F#4","midi":66,"time":275.5554453333347,"velocity":0.7559055118110236,"duration":0.8311628619791804},{"name":"D2","midi":38,"time":275.5554453333347,"velocity":0.7559055118110236,"duration":0.2756075286458213},{"name":"E4","midi":64,"time":275.69433416666806,"velocity":0.7559055118110236,"duration":0.1367186953124815},{"name":"F#2","midi":42,"time":275.8332230000014,"velocity":0.7559055118110236,"duration":0.2756075286458213},{"name":"D4","midi":62,"time":275.8332230000014,"velocity":0.7559055118110236,"duration":0.1367186953124815},{"name":"C#4","midi":61,"time":275.97211183333474,"velocity":0.7559055118110236,"duration":0.1367186953124815},{"name":"G2","midi":43,"time":276.1110006666681,"velocity":0.7559055118110236,"duration":0.2756075286458213},{"name":"B3","midi":59,"time":276.1110006666681,"velocity":0.7559055118110236,"duration":0.41449636197916107},{"name":"E4","midi":64,"time":276.38877833333476,"velocity":0.7559055118110236,"duration":0.8311628619791804},{"name":"C#2","midi":37,"time":276.38877833333476,"velocity":0.7559055118110236,"duration":0.2756075286458213},{"name":"D4","midi":62,"time":276.5276671666681,"velocity":0.7559055118110236,"duration":0.1367186953124815},{"name":"E2","midi":40,"time":276.66655600000144,"velocity":0.7559055118110236,"duration":0.2756075286458213},{"name":"C#4","midi":61,"time":276.66655600000144,"velocity":0.7559055118110236,"duration":0.1367186953124815},{"name":"B3","midi":59,"time":276.8054448333348,"velocity":0.7559055118110236,"duration":0.1367186953124815},{"name":"F#2","midi":42,"time":276.9443336666681,"velocity":0.7559055118110236,"duration":0.2756075286458213},{"name":"A3","midi":57,"time":276.9443336666681,"velocity":0.7559055118110236,"duration":0.9700516953126339},{"name":"D4","midi":62,"time":277.2221113333348,"velocity":0.7559055118110236,"duration":0.23871518229168487},{"name":"G2","midi":43,"time":277.2221113333348,"velocity":0.7559055118110236,"duration":0.1367186953124815},{"name":"F#2","midi":42,"time":277.36100016666813,"velocity":0.7559055118110236,"duration":0.13671869531253833},{"name":"F#4","midi":66,"time":277.49988900000153,"velocity":0.7559055118110236,"duration":0.23871518229168487},{"name":"E2","midi":40,"time":277.49988900000153,"velocity":0.7559055118110236,"duration":0.1367186953124815},{"name":"D2","midi":38,"time":277.63877783333487,"velocity":0.7559055118110236,"duration":0.13671869531253833},{"name":"B3","midi":59,"time":277.77766666666827,"velocity":0.7559055118110236,"duration":0.8311628619791804},{"name":"G2","midi":43,"time":277.77766666666827,"velocity":0.7559055118110236,"duration":0.5533851953125009},{"name":"G3","midi":55,"time":277.9165555000016,"velocity":0.7559055118110236,"duration":0.1367186953124815},{"name":"G1","midi":31,"time":278.05544433333495,"velocity":0.7559055118110236,"duration":0.2756075286458213},{"name":"A3","midi":57,"time":278.05544433333495,"velocity":0.7559055118110236,"duration":0.1367186953124815},{"name":"G3","midi":55,"time":278.1943331666683,"velocity":0.7559055118110236,"duration":0.1367186953124815},{"name":"G2","midi":43,"time":278.3332220000016,"velocity":0.7559055118110236,"duration":0.2756075286458213},{"name":"F#3","midi":54,"time":278.3332220000016,"velocity":0.7559055118110236,"duration":0.1367186953124815},{"name":"G3","midi":55,"time":278.47211083333497,"velocity":0.7559055118110236,"duration":0.2756075286458213},{"name":"C#4","midi":61,"time":278.6109996666683,"velocity":0.7559055118110236,"duration":0.8311628619791804},{"name":"A2","midi":45,"time":278.6109996666683,"velocity":0.7559055118110236,"duration":0.5533851953125009},{"name":"G3","midi":55,"time":278.74988850000165,"velocity":0.7559055118110236,"duration":0.1367186953124815},{"name":"A1","midi":33,"time":278.888777333335,"velocity":0.7559055118110236,"duration":0.2756075286458213},{"name":"A3","midi":57,"time":278.888777333335,"velocity":0.7559055118110236,"duration":0.1367186953124815},{"name":"G3","midi":55,"time":279.0276661666683,"velocity":0.7559055118110236,"duration":0.1367186953124815},{"name":"A2","midi":45,"time":279.16655500000167,"velocity":0.7559055118110236,"duration":0.2756075286458213},{"name":"F#3","midi":54,"time":279.16655500000167,"velocity":0.7559055118110236,"duration":0.1367186953124815},{"name":"G3","midi":55,"time":279.305443833335,"velocity":0.7559055118110236,"duration":0.2756075286458213},{"name":"D4","midi":62,"time":279.44433266666834,"velocity":0.7559055118110236,"duration":0.5533851953125009},{"name":"B2","midi":47,"time":279.44433266666834,"velocity":0.7559055118110236,"duration":0.2756075286458213},{"name":"F#3","midi":54,"time":279.5832215000017,"velocity":0.7559055118110236,"duration":0.1367186953124815},{"name":"F#2","midi":42,"time":279.722110333335,"velocity":0.7559055118110236,"duration":0.2756075286458213},{"name":"G#3","midi":56,"time":279.722110333335,"velocity":0.7559055118110236,"duration":0.1367186953124815},{"name":"A#3","midi":58,"time":279.86099916666836,"velocity":0.7559055118110236,"duration":0.1367186953124815},{"name":"D2","midi":38,"time":279.9998880000017,"velocity":0.7559055118110236,"duration":0.2756075286458213},{"name":"B3","midi":59,"time":279.9998880000017,"velocity":0.7559055118110236,"duration":0.1367186953124815},{"name":"C#4","midi":61,"time":280.13877683333504,"velocity":0.7559055118110236,"duration":0.1367186953124815},{"name":"B1","midi":35,"time":280.2776656666684,"velocity":0.7559055118110236,"duration":0.2756075286458213},{"name":"D4","midi":62,"time":280.2776656666684,"velocity":0.7559055118110236,"duration":0.8311628619791804},{"name":"G4","midi":67,"time":280.4165545000017,"velocity":0.7559055118110236,"duration":0.1367186953124815},{"name":"A4","midi":69,"time":280.55544333333506,"velocity":0.7559055118110236,"duration":0.1367186953124815},{"name":"B2","midi":47,"time":280.55544333333506,"velocity":0.7559055118110236,"duration":0.2756075286458213},{"name":"G4","midi":67,"time":280.6943321666684,"velocity":0.7559055118110236,"duration":0.1367186953124815},{"name":"F#4","midi":66,"time":280.83322100000174,"velocity":0.7559055118110236,"duration":0.1367186953124815},{"name":"B1","midi":35,"time":280.83322100000174,"velocity":0.7559055118110236,"duration":0.2756075286458213},{"name":"G4","midi":67,"time":280.9721098333351,"velocity":0.7559055118110236,"duration":0.2756075286458213},{"name":"C#2","midi":37,"time":281.1109986666684,"velocity":0.7559055118110236,"duration":0.2756075286458213},{"name":"E4","midi":64,"time":281.1109986666684,"velocity":0.7559055118110236,"duration":1.10894052864586},{"name":"G4","midi":67,"time":281.24988750000176,"velocity":0.7559055118110236,"duration":0.1367186953124815},{"name":"A4","midi":69,"time":281.3887763333351,"velocity":0.7559055118110236,"duration":0.1367186953124815},{"name":"C#3","midi":49,"time":281.3887763333351,"velocity":0.7559055118110236,"duration":0.2756075286458213},{"name":"G4","midi":67,"time":281.52766516666844,"velocity":0.7559055118110236,"duration":0.1367186953124815},{"name":"F#4","midi":66,"time":281.6665540000018,"velocity":0.7559055118110236,"duration":0.1367186953124815},{"name":"C#2","midi":37,"time":281.6665540000018,"velocity":0.7559055118110236,"duration":0.2756075286458213},{"name":"G4","midi":67,"time":281.8054428333351,"velocity":0.7559055118110236,"duration":0.1367186953124815},{"name":"F#4","midi":66,"time":281.94433166666846,"velocity":0.7559055118110236,"duration":0.8311628619791804},{"name":"D2","midi":38,"time":281.94433166666846,"velocity":0.7559055118110236,"duration":0.2756075286458213},{"name":"E2","midi":40,"time":282.22210933333514,"velocity":0.7559055118110236,"duration":0.1367186953124815},{"name":"C#4","midi":61,"time":282.22210933333514,"velocity":0.7559055118110236,"duration":0.2756075286458213},{"name":"D2","midi":38,"time":282.3609981666685,"velocity":0.7559055118110236,"duration":0.1367186953124815},{"name":"C#2","midi":37,"time":282.4998870000018,"velocity":0.7559055118110236,"duration":0.1367186953124815},{"name":"D4","midi":62,"time":282.4998870000018,"velocity":0.7559055118110236,"duration":0.5533851953125009},{"name":"D2","midi":38,"time":282.63877583333516,"velocity":0.7559055118110236,"duration":0.1367186953124815},{"name":"G4","midi":67,"time":282.7776646666685,"velocity":0.7559055118110236,"duration":0.8311628619791804},{"name":"E2","midi":40,"time":282.7776646666685,"velocity":0.7559055118110236,"duration":0.2756075286458213},{"name":"F#2","midi":42,"time":283.0554423333352,"velocity":0.7559055118110236,"duration":0.1367186953124815},{"name":"C#4","midi":61,"time":283.0554423333352,"velocity":0.7559055118110236,"duration":0.2756075286458213},{"name":"E2","midi":40,"time":283.1943311666685,"velocity":0.7559055118110236,"duration":0.1367186953124815},{"name":"D2","midi":38,"time":283.33322000000186,"velocity":0.7559055118110236,"duration":0.1367186953124815},{"name":"D4","midi":62,"time":283.33322000000186,"velocity":0.7559055118110236,"duration":0.5533851953125009},{"name":"E2","midi":40,"time":283.4721088333352,"velocity":0.7559055118110236,"duration":0.1367186953124815},{"name":"A4","midi":69,"time":283.61099766666854,"velocity":0.7559055118110236,"duration":0.8311628619791804},{"name":"F#2","midi":42,"time":283.61099766666854,"velocity":0.7559055118110236,"duration":0.2756075286458213},{"name":"G2","midi":43,"time":283.8887753333352,"velocity":0.7559055118110236,"duration":0.1367186953124815},{"name":"C#4","midi":61,"time":283.8887753333352,"velocity":0.7559055118110236,"duration":0.2756075286458213},{"name":"F#2","midi":42,"time":284.02766416666856,"velocity":0.7559055118110236,"duration":0.1367186953124815},{"name":"E2","midi":40,"time":284.1665530000019,"velocity":0.7559055118110236,"duration":0.1367186953124815},{"name":"D4","midi":62,"time":284.1665530000019,"velocity":0.7559055118110236,"duration":1.085069010416703},{"name":"F#2","midi":42,"time":284.30544183333524,"velocity":0.7559055118110236,"duration":0.1367186953124815},{"name":"B4","midi":71,"time":284.4443306666686,"velocity":0.7559055118110236,"duration":0.2756075286458213},{"name":"G2","midi":43,"time":284.4443306666686,"velocity":0.7559055118110236,"duration":0.2756075286458213},{"name":"C5","midi":72,"time":284.72210833333526,"velocity":0.7559055118110236,"duration":0.1367186953124815},{"name":"B2","midi":47,"time":284.72210833333526,"velocity":0.7559055118110236,"duration":0.2756075286458213},{"name":"B4","midi":71,"time":284.8609971666686,"velocity":0.7559055118110236,"duration":0.1367186953124815},{"name":"A4","midi":69,"time":284.99988600000194,"velocity":0.7559055118110236,"duration":0.1367186953124815},{"name":"D3","midi":50,"time":284.99988600000194,"velocity":0.7559055118110236,"duration":0.2604165624999837},{"name":"G4","midi":67,"time":285.1387748333353,"velocity":0.7559055118110236,"duration":0.11284717708332437},{"name":"F5","midi":77,"time":285.27766366666856,"velocity":0.7559055118110236,"duration":0.1367186953124815},{"name":"G3","midi":55,"time":285.27766366666856,"velocity":0.7559055118110236,"duration":1.8663186979167676},{"name":"E5","midi":76,"time":285.4165525000019,"velocity":0.7559055118110236,"duration":0.1367186953124815},{"name":"D5","midi":74,"time":285.55544133333524,"velocity":0.7559055118110236,"duration":0.1367186953124815},{"name":"A#3","midi":58,"time":285.55544133333524,"velocity":0.7559055118110236,"duration":0.2756075286458213},{"name":"F5","midi":77,"time":285.6943301666686,"velocity":0.7559055118110236,"duration":0.1367186953124815},{"name":"E5","midi":76,"time":285.8332190000019,"velocity":0.7559055118110236,"duration":0.1367186953124815},{"name":"D4","midi":62,"time":285.8332190000019,"velocity":0.7559055118110236,"duration":0.2756075286458213},{"name":"D5","midi":74,"time":285.97210783333526,"velocity":0.7559055118110236,"duration":0.1367186953124815},{"name":"C#5","midi":73,"time":286.1109966666686,"velocity":0.7559055118110236,"duration":0.1367186953124815},{"name":"E4","midi":64,"time":286.1109966666686,"velocity":0.7559055118110236,"duration":0.2756075286458213},{"name":"E5","midi":76,"time":286.24988550000194,"velocity":0.7559055118110236,"duration":0.1367186953124815},{"name":"D5","midi":74,"time":286.3887743333353,"velocity":0.7559055118110236,"duration":0.1367186953124815},{"name":"A3","midi":57,"time":286.3887743333353,"velocity":0.7559055118110236,"duration":0.2756075286458213},{"name":"C#5","midi":73,"time":286.5276631666686,"velocity":0.7559055118110236,"duration":0.1367186953124815},{"name":"D5","midi":74,"time":286.66655200000196,"velocity":0.7559055118110236,"duration":0.1367186953124815},{"name":"C#4","midi":61,"time":286.66655200000196,"velocity":0.7559055118110236,"duration":0.2756075286458213},{"name":"E5","midi":76,"time":286.8054408333353,"velocity":0.7559055118110236,"duration":0.1367186953124815},{"name":"A4","midi":69,"time":286.94432966666864,"velocity":0.7559055118110236,"duration":0.4123262239583596},{"name":"D4","midi":62,"time":286.94432966666864,"velocity":0.7559055118110236,"duration":0.4144963619792179},{"name":"A5","midi":81,"time":287.2221073333353,"velocity":0.7559055118110236,"duration":0.8311628619792373},{"name":"F#3","midi":54,"time":287.2221073333353,"velocity":0.7559055118110236,"duration":0.2756075286458781},{"name":"G5","midi":79,"time":287.3609961666687,"velocity":0.7559055118110236,"duration":0.1367186953124815},{"name":"A3","midi":57,"time":287.49988500000205,"velocity":0.7559055118110236,"duration":0.2756075286458213},{"name":"F#5","midi":78,"time":287.49988500000205,"velocity":0.7559055118110236,"duration":0.1367186953124815},{"name":"E5","midi":76,"time":287.6387738333354,"velocity":0.7559055118110236,"duration":0.1367186953124815},{"name":"B3","midi":59,"time":287.77766266666873,"velocity":0.7559055118110236,"duration":0.2756075286458213},{"name":"D5","midi":74,"time":287.77766266666873,"velocity":0.7559055118110236,"duration":0.41449636197916107},{"name":"G5","midi":79,"time":288.0554403333354,"velocity":0.7559055118110236,"duration":0.8311628619791804},{"name":"E3","midi":52,"time":288.0554403333354,"velocity":0.7559055118110236,"duration":0.2756075286458213},{"name":"F#5","midi":78,"time":288.19432916666875,"velocity":0.7559055118110236,"duration":0.1367186953124815},{"name":"G3","midi":55,"time":288.3332180000021,"velocity":0.7559055118110236,"duration":0.2756075286458213},{"name":"E5","midi":76,"time":288.3332180000021,"velocity":0.7559055118110236,"duration":0.1367186953124815},{"name":"D5","midi":74,"time":288.47210683333543,"velocity":0.7559055118110236,"duration":0.1367186953124815},{"name":"A3","midi":57,"time":288.61099566666877,"velocity":0.7559055118110236,"duration":0.2756075286458213},{"name":"C#5","midi":73,"time":288.61099566666877,"velocity":0.7559055118110236,"duration":0.8311628619791804},{"name":"F#5","midi":78,"time":288.88877333333545,"velocity":0.7559055118110236,"duration":0.2756075286458213},{"name":"D3","midi":50,"time":288.88877333333545,"velocity":0.7559055118110236,"duration":0.2756075286458213},{"name":"D5","midi":74,"time":289.16655100000213,"velocity":0.7559055118110236,"duration":0.5533851953125009},{"name":"F#3","midi":54,"time":289.16655100000213,"velocity":0.7559055118110236,"duration":0.2756075286458213},{"name":"B2","midi":47,"time":289.4443286666688,"velocity":0.7559055118110236,"duration":0.2756075286458213},{"name":"G4","midi":67,"time":289.4443286666688,"velocity":0.7559055118110236,"duration":0.8311628619791804},{"name":"B4","midi":71,"time":289.7221063333355,"velocity":0.7559055118110236,"duration":0.2756075286458213},{"name":"D3","midi":50,"time":289.7221063333355,"velocity":0.7559055118110236,"duration":0.2756075286458213},{"name":"E5","midi":76,"time":289.99988400000217,"velocity":0.7559055118110236,"duration":0.5533851953125009},{"name":"C#3","midi":49,"time":289.99988400000217,"velocity":0.7559055118110236,"duration":0.2756075286458213},{"name":"D3","midi":50,"time":290.27766166666885,"velocity":0.7559055118110236,"duration":0.2756075286458213},{"name":"F#4","midi":66,"time":290.27766166666885,"velocity":0.7559055118110236,"duration":0.8311628619791804},{"name":"A4","midi":69,"time":290.5554393333355,"velocity":0.7559055118110236,"duration":0.2756075286458213},{"name":"F#2","midi":42,"time":290.5554393333355,"velocity":0.7559055118110236,"duration":0.2756075286458213},{"name":"D5","midi":74,"time":290.8332170000022,"velocity":0.7559055118110236,"duration":0.2756075286458213},{"name":"G2","midi":43,"time":290.8332170000022,"velocity":0.7559055118110236,"duration":0.2756075286458213},{"name":"D5","midi":74,"time":291.1109946666689,"velocity":0.7559055118110236,"duration":0.14105897135414125},{"name":"A2","midi":45,"time":291.1109946666689,"velocity":0.7559055118110236,"duration":0.29513877083331863},{"name":"A4","midi":69,"time":291.1109946666689,"velocity":0.7559055118110236,"duration":0.8289927239582653},{"name":"E4","midi":64,"time":291.1109946666689,"velocity":0.7559055118110236,"duration":0.8289927239582653},{"name":"C#5","midi":73,"time":291.25856405208555,"velocity":0.7559055118110236,"duration":0.09331593489582701},{"name":"D5","midi":74,"time":291.33668902083554,"velocity":0.7559055118110236,"duration":0.09331593489582701},{"name":"G2","midi":43,"time":291.4061334375022,"velocity":0.7559055118110236,"duration":0.28862835677080056},{"name":"C#5","midi":73,"time":291.4148139895855,"velocity":0.7559055118110236,"duration":0.3298609791666536},{"name":"A2","midi":45,"time":291.7012722083355,"velocity":0.7559055118110236,"duration":0.4123262239582459},{"name":"D5","midi":74,"time":291.7924180052105,"velocity":0.7559055118110236,"duration":0.24088532031248633},{"name":"D3","midi":50,"time":292.1005776041688,"velocity":0.7559055118110236,"duration":2.495658723958286},{"name":"D2","midi":38,"time":292.1005776041688,"velocity":0.7559055118110236,"duration":2.495658723958286},{"name":"A4","midi":69,"time":292.1005776041688,"velocity":0.7559055118110236,"duration":2.495658723958286},{"name":"F#4","midi":66,"time":292.1005776041688,"velocity":0.7559055118110236,"duration":2.495658723958286},{"name":"D5","midi":74,"time":292.1005776041688,"velocity":0.7559055118110236,"duration":2.495658723958286},{"name":"F#4","midi":66,"time":298.74988050000206,"velocity":0.7559055118110236,"duration":0.3689234635416483},{"name":"D2","midi":38,"time":299.166547000002,"velocity":0.7559055118110236,"duration":2.4956587239583996},{"name":"A3","midi":57,"time":299.166547000002,"velocity":0.7559055118110236,"duration":1.872829111979172},{"name":"D4","midi":62,"time":299.166547000002,"velocity":0.7559055118110236,"duration":1.872829111979172},{"name":"F#4","midi":66,"time":299.166547000002,"velocity":0.7559055118110236,"duration":1.872829111979172},{"name":"A2","midi":45,"time":299.999880000002,"velocity":0.7559055118110236,"duration":0.8311628619791804},{"name":"D3","midi":50,"time":300.83321300000205,"velocity":0.7559055118110236,"duration":2.4956587239584564},{"name":"E4","midi":64,"time":301.04154625000206,"velocity":0.7559055118110236,"duration":0.20616311197915138},{"name":"F#4","midi":66,"time":301.24987950000207,"velocity":0.7559055118110236,"duration":0.20616311197915138},{"name":"A4","midi":69,"time":301.4582127500021,"velocity":0.7559055118110236,"duration":0.20616311197920822},{"name":"E2","midi":40,"time":301.66654600000214,"velocity":0.7559055118110236,"duration":0.8311628619791804},{"name":"G4","midi":67,"time":301.66654600000214,"velocity":0.7559055118110236,"duration":0.20616311197915138},{"name":"F#4","midi":66,"time":301.87487925000215,"velocity":0.7559055118110236,"duration":0.20616311197915138},{"name":"E4","midi":64,"time":302.08321250000216,"velocity":0.7559055118110236,"duration":0.20616311197915138},{"name":"D4","midi":62,"time":302.2915457500022,"velocity":0.7559055118110236,"duration":0.20616311197915138},{"name":"F#2","midi":42,"time":302.4998790000022,"velocity":0.7559055118110236,"duration":2.4956587239583996},{"name":"D4","midi":62,"time":302.4998790000022,"velocity":0.7559055118110236,"duration":0.29513877083331863},{"name":"A4","midi":69,"time":302.79935804687716,"velocity":0.7559055118110236,"duration":0.7378469270833534},{"name":"A2","midi":45,"time":303.33321200000216,"velocity":0.7559055118110236,"duration":0.8311628619791804},{"name":"G4","midi":67,"time":303.5415452500022,"velocity":0.7559055118110236,"duration":0.20616311197915138},{"name":"F#4","midi":66,"time":303.7498785000022,"velocity":0.7559055118110236,"duration":0.20616311197915138},{"name":"E4","midi":64,"time":303.9582117500022,"velocity":0.7559055118110236,"duration":0.20616311197915138},{"name":"D3","midi":50,"time":304.1665450000022,"velocity":0.7559055118110236,"duration":2.4956587239585133},{"name":"F#4","midi":66,"time":304.1665450000022,"velocity":0.7559055118110236,"duration":0.20616311197915138},{"name":"A4","midi":69,"time":304.3748782500022,"velocity":0.7559055118110236,"duration":0.20616311197915138},{"name":"B4","midi":71,"time":304.5832115000022,"velocity":0.7559055118110236,"duration":0.20616311197915138},{"name":"C5","midi":72,"time":304.79154475000223,"velocity":0.7559055118110236,"duration":1.226127981770901},{"name":"D2","midi":38,"time":304.99987800000224,"velocity":0.7559055118110236,"duration":0.8311628619791804},{"name":"A4","midi":69,"time":305.20821125000225,"velocity":0.7559055118110236,"duration":0.20616311197915138},{"name":"G4","midi":67,"time":305.41654450000226,"velocity":0.7559055118110236,"duration":0.20616311197915138},{"name":"F#4","midi":66,"time":305.62487775000227,"velocity":0.7559055118110236,"duration":0.47743036458336974},{"name":"G2","midi":43,"time":305.8332110000023,"velocity":0.7559055118110236,"duration":0.8311628619792941},{"name":"C5","midi":72,"time":306.0415442500023,"velocity":0.7559055118110236,"duration":0.20616311197920822},{"name":"B4","midi":71,"time":306.24987750000236,"velocity":0.7559055118110236,"duration":0.20616311197915138},{"name":"A4","midi":69,"time":306.45821075000237,"velocity":0.7559055118110236,"duration":0.20616311197920822},{"name":"E2","midi":40,"time":306.66654400000243,"velocity":0.7559055118110236,"duration":0.8311628619791804},{"name":"B4","midi":71,"time":306.66654400000243,"velocity":0.7559055118110236,"duration":0.20616311197915138},{"name":"G4","midi":67,"time":306.87487725000244,"velocity":0.7559055118110236,"duration":0.20616311197915138},{"name":"E5","midi":76,"time":307.08321050000245,"velocity":0.7559055118110236,"duration":0.6228296119791707},{"name":"A2","midi":45,"time":307.49987700000247,"velocity":0.7559055118110236,"duration":1.6644958619792192},{"name":"D5","midi":74,"time":307.7082102500025,"velocity":0.7559055118110236,"duration":0.20616311197915138},{"name":"C#5","midi":73,"time":307.9165435000025,"velocity":0.7559055118110236,"duration":0.20616311197915138},{"name":"B4","midi":71,"time":308.1248767500025,"velocity":0.7559055118110236,"duration":0.20616311197915138},{"name":"C#3","midi":49,"time":308.3332100000025,"velocity":0.7559055118110236,"duration":0.8311628619791804},{"name":"A4","midi":69,"time":308.3332100000025,"velocity":0.7559055118110236,"duration":0.20616311197915138},{"name":"G4","midi":67,"time":308.5415432500025,"velocity":0.7559055118110236,"duration":0.10199648697914654},{"name":"F#4","midi":66,"time":308.6457098750025,"velocity":0.7559055118110236,"duration":0.10199648697914654},{"name":"G4","midi":67,"time":308.74987650000253,"velocity":0.7559055118110236,"duration":0.20616311197915138},{"name":"E5","midi":76,"time":308.95820975000254,"velocity":0.7559055118110236,"duration":0.20616311197915138},{"name":"D3","midi":50,"time":309.16654300000255,"velocity":0.7559055118110236,"duration":0.41449636197916107},{"name":"G4","midi":67,"time":309.16654300000255,"velocity":0.7559055118110236,"duration":0.9006072786458503},{"name":"C#3","midi":49,"time":309.58320950000257,"velocity":0.7559055118110236,"duration":0.20616311197915138},{"name":"B2","midi":47,"time":309.7915427500026,"velocity":0.7559055118110236,"duration":0.20616311197915138},{"name":"A2","midi":45,"time":309.9998760000026,"velocity":0.7559055118110236,"duration":0.20616311197915138},{"name":"F#4","midi":66,"time":310.06932041666926,"velocity":0.7559055118110236,"duration":0.06727427864581159},{"name":"G4","midi":67,"time":310.1387648333359,"velocity":0.7559055118110236,"duration":0.06727427864581159},{"name":"D3","midi":50,"time":310.2082092500026,"velocity":0.7559055118110236,"duration":0.20616311197915138},{"name":"F#4","midi":66,"time":310.2082092500026,"velocity":0.7559055118110236,"duration":0.06727427864581159},{"name":"G4","midi":67,"time":310.27765366666927,"velocity":0.7559055118110236,"duration":0.06727427864581159},{"name":"F#4","midi":66,"time":310.34709808333594,"velocity":0.7559055118110236,"duration":0.6076386458333332},{"name":"F#2","midi":42,"time":310.4165425000026,"velocity":0.7559055118110236,"duration":0.20616311197915138},{"name":"A2","midi":45,"time":310.6248757500026,"velocity":0.7559055118110236,"duration":0.20616311197915138},{"name":"D2","midi":38,"time":310.8332090000026,"velocity":0.7559055118110236,"duration":1.0394961119791333},{"name":"A4","midi":69,"time":311.0415422500026,"velocity":0.7559055118110236,"duration":0.20616311197915138},{"name":"B4","midi":71,"time":311.2498755000026,"velocity":0.7559055118110236,"duration":0.20616311197915138},{"name":"C#5","midi":73,"time":311.4582087500026,"velocity":0.7559055118110236,"duration":0.20616311197915138},{"name":"D5","midi":74,"time":311.6665420000026,"velocity":0.7559055118110236,"duration":0.20616311197915138},{"name":"A2","midi":45,"time":311.8748752500026,"velocity":0.7559055118110236,"duration":0.20616311197915138},{"name":"C#5","midi":73,"time":311.8748752500026,"velocity":0.7559055118110236,"duration":0.20616311197915138},{"name":"B2","midi":47,"time":312.0832085000026,"velocity":0.7559055118110236,"duration":0.20616311197915138},{"name":"B4","midi":71,"time":312.0832085000026,"velocity":0.7559055118110236,"duration":0.20616311197915138},{"name":"C#3","midi":49,"time":312.29154175000264,"velocity":0.7559055118110236,"duration":0.20616311197915138},{"name":"A4","midi":69,"time":312.29154175000264,"velocity":0.7559055118110236,"duration":0.20616311197915138},{"name":"D3","midi":50,"time":312.49987500000265,"velocity":0.7559055118110236,"duration":2.4956587239583996},{"name":"A4","midi":69,"time":312.49987500000265,"velocity":0.7559055118110236,"duration":0.2756075286458213},{"name":"F#5","midi":78,"time":312.7776526666693,"velocity":0.7559055118110236,"duration":1.4756938541667068},{"name":"F#3","midi":54,"time":312.91654150000267,"velocity":0.7559055118110236,"duration":0.41449636197916107},{"name":"A3","midi":57,"time":313.3332080000027,"velocity":0.7559055118110236,"duration":0.41449636197916107},{"name":"C#4","midi":61,"time":313.7498745000027,"velocity":0.7559055118110236,"duration":0.41449636197916107},{"name":"D4","midi":62,"time":314.1665410000027,"velocity":0.7559055118110236,"duration":0.4144963619791042},{"name":"G5","midi":79,"time":314.3748742500027,"velocity":0.7559055118110236,"duration":0.20616311197915138},{"name":"A3","midi":57,"time":314.5832075000027,"velocity":0.7559055118110236,"duration":0.4144963619792179},{"name":"F#5","midi":78,"time":314.5832075000027,"velocity":0.7559055118110236,"duration":0.20616311197915138},{"name":"E5","midi":76,"time":314.7915407500027,"velocity":0.7559055118110236,"duration":0.20616311197920822},{"name":"D4","midi":62,"time":314.99987400000276,"velocity":0.7559055118110236,"duration":0.41449636197916107},{"name":"F#5","midi":78,"time":314.99987400000276,"velocity":0.7559055118110236,"duration":0.20616311197915138},{"name":"D5","midi":74,"time":315.2082072500028,"velocity":0.7559055118110236,"duration":0.22786449218750704},{"name":"F#4","midi":66,"time":315.4165405000028,"velocity":0.7559055118110236,"duration":0.8246524479167192},{"name":"A#4","midi":70,"time":315.41871063802364,"velocity":0.7559055118110236,"duration":0.5642358854166787},{"name":"G3","midi":55,"time":315.8332070000028,"velocity":0.7559055118110236,"duration":2.039929739583499},{"name":"C#5","midi":73,"time":316.0415402500028,"velocity":0.7559055118110236,"duration":0.20616311197920822},{"name":"B3","midi":59,"time":316.2498735000029,"velocity":0.7559055118110236,"duration":0.41449636197916107},{"name":"B4","midi":71,"time":316.2498735000029,"velocity":0.7559055118110236,"duration":0.20616311197915138},{"name":"A#4","midi":70,"time":316.4582067500029,"velocity":0.7559055118110236,"duration":0.20616311197915138},{"name":"D4","midi":62,"time":316.6665400000029,"velocity":0.7559055118110236,"duration":0.41449636197916107},{"name":"A#4","midi":70,"time":316.6665400000029,"velocity":0.7559055118110236,"duration":0.2756075286458213},{"name":"B4","midi":71,"time":316.9443176666696,"velocity":0.7559055118110236,"duration":0.735676789062552},{"name":"F#4","midi":66,"time":317.0832065000029,"velocity":0.7559055118110236,"duration":0.41449636197916107},{"name":"G4","midi":67,"time":317.49987300000294,"velocity":0.7559055118110236,"duration":0.4144963619792179},{"name":"D5","midi":74,"time":317.70820625000295,"velocity":0.7559055118110236,"duration":0.20616311197920822},{"name":"A3","midi":57,"time":317.916539500003,"velocity":0.7559055118110236,"duration":0.41449636197916107},{"name":"C#5","midi":73,"time":317.916539500003,"velocity":0.7559055118110236,"duration":0.20616311197915138},{"name":"B4","midi":71,"time":318.124872750003,"velocity":0.7559055118110236,"duration":0.20616311197915138},{"name":"G3","midi":55,"time":318.33320600000303,"velocity":0.7559055118110236,"duration":0.41449636197916107},{"name":"C#5","midi":73,"time":318.33320600000303,"velocity":0.7559055118110236,"duration":0.20616311197915138},{"name":"D5","midi":74,"time":318.54153925000304,"velocity":0.7559055118110236,"duration":0.20616311197915138},{"name":"F#3","midi":54,"time":318.74987250000305,"velocity":0.7559055118110236,"duration":0.41449636197916107},{"name":"E5","midi":76,"time":318.74987250000305,"velocity":0.7559055118110236,"duration":0.20616311197915138},{"name":"F#5","midi":78,"time":318.95820575000306,"velocity":0.7559055118110236,"duration":0.20616311197915138},{"name":"E3","midi":52,"time":319.16653900000307,"velocity":0.7559055118110236,"duration":2.0399297395833855},{"name":"G5","midi":79,"time":319.16653900000307,"velocity":0.7559055118110236,"duration":0.1367186953124815},{"name":"F#5","midi":78,"time":319.3054278333364,"velocity":0.7559055118110236,"duration":0.1367186953124815},{"name":"E5","midi":76,"time":319.44431666666975,"velocity":0.7559055118110236,"duration":0.1367186953124815},{"name":"G3","midi":55,"time":319.5832055000031,"velocity":0.7559055118110236,"duration":0.41449636197916107},{"name":"B5","midi":83,"time":319.5832055000031,"velocity":0.7559055118110236,"duration":0.6076386458333332},{"name":"B3","midi":59,"time":319.9998720000031,"velocity":0.7559055118110236,"duration":0.4144963619791042},{"name":"A5","midi":81,"time":320.20820525000306,"velocity":0.7559055118110236,"duration":0.20616311197915138},{"name":"D#4","midi":63,"time":320.41653850000307,"velocity":0.7559055118110236,"duration":0.41449636197916107},{"name":"G5","midi":79,"time":320.41653850000307,"velocity":0.7559055118110236,"duration":0.20616311197915138},{"name":"F#5","midi":78,"time":320.6248717500031,"velocity":0.7559055118110236,"duration":0.20616311197915138},{"name":"E4","midi":64,"time":320.8332050000031,"velocity":0.7559055118110236,"duration":0.4144963619792179},{"name":"G5","midi":79,"time":320.8332050000031,"velocity":0.7559055118110236,"duration":0.1367186953124815},{"name":"F#5","midi":78,"time":320.97209383333643,"velocity":0.7559055118110236,"duration":0.1367186953124815},{"name":"E5","midi":76,"time":321.11098266666977,"velocity":0.7559055118110236,"duration":0.13671869531253833},{"name":"B3","midi":59,"time":321.24987150000317,"velocity":0.7559055118110236,"duration":0.41449636197916107},{"name":"G5","midi":79,"time":321.24987150000317,"velocity":0.7559055118110236,"duration":0.6076386458333332},{"name":"E4","midi":64,"time":321.6665380000032,"velocity":0.7559055118110236,"duration":0.4144963619791042},{"name":"F#5","midi":78,"time":321.87487125000314,"velocity":0.7559055118110236,"duration":0.20616311197915138},{"name":"G4","midi":67,"time":322.08320450000315,"velocity":0.7559055118110236,"duration":0.8246524479167192},{"name":"E5","midi":76,"time":322.08320450000315,"velocity":0.7559055118110236,"duration":0.20616311197915138},{"name":"D5","midi":74,"time":322.29153775000316,"velocity":0.7559055118110236,"duration":0.20616311197915138},{"name":"A#3","midi":58,"time":322.49987100000317,"velocity":0.7559055118110236,"duration":2.0399297395834424},{"name":"E5","midi":76,"time":322.49987100000317,"velocity":0.7559055118110236,"duration":0.1367186953124815},{"name":"D5","midi":74,"time":322.6387598333365,"velocity":0.7559055118110236,"duration":0.1367186953124815},{"name":"C#5","midi":73,"time":322.77764866666985,"velocity":0.7559055118110236,"duration":0.13671869531253833},{"name":"C#4","midi":61,"time":322.91653750000324,"velocity":0.7559055118110236,"duration":0.41449636197916107},{"name":"E5","midi":76,"time":322.91653750000324,"velocity":0.7559055118110236,"duration":0.6076386458333332},{"name":"E4","midi":64,"time":323.33320400000326,"velocity":0.7559055118110236,"duration":0.4144963619791042},{"name":"D5","midi":74,"time":323.5415372500032,"velocity":0.7559055118110236,"duration":0.20616311197915138},{"name":"G4","midi":67,"time":323.7498705000032,"velocity":0.7559055118110236,"duration":0.41449636197916107},{"name":"C#5","midi":73,"time":323.7498705000032,"velocity":0.7559055118110236,"duration":0.20616311197915138},{"name":"B4","midi":71,"time":323.95820375000324,"velocity":0.7559055118110236,"duration":0.20616311197915138},{"name":"F#4","midi":66,"time":324.16653700000325,"velocity":0.7559055118110236,"duration":2.0399297395834424},{"name":"C#5","midi":73,"time":324.16653700000325,"velocity":0.7559055118110236,"duration":0.1367186953124815},{"name":"B4","midi":71,"time":324.3054258333366,"velocity":0.7559055118110236,"duration":0.1367186953124815},{"name":"A#4","midi":70,"time":324.4443146666699,"velocity":0.7559055118110236,"duration":0.13671869531253833},{"name":"C#4","midi":61,"time":324.5832035000033,"velocity":0.7559055118110236,"duration":0.41449636197916107},{"name":"F#5","midi":78,"time":324.5832035000033,"velocity":0.7559055118110236,"duration":0.6076386458333332},{"name":"A#3","midi":58,"time":324.99987000000334,"velocity":0.7559055118110236,"duration":0.4144963619791042},{"name":"E5","midi":76,"time":325.2082032500033,"velocity":0.7559055118110236,"duration":0.20616311197915138},{"name":"F#3","midi":54,"time":325.4165365000033,"velocity":0.7559055118110236,"duration":0.41449636197916107},{"name":"D5","midi":74,"time":325.4165365000033,"velocity":0.7559055118110236,"duration":0.20616311197915138},{"name":"C#5","midi":73,"time":325.6248697500033,"velocity":0.7559055118110236,"duration":0.20616311197915138},{"name":"B3","midi":59,"time":325.8332030000033,"velocity":0.7559055118110236,"duration":2.039929739583499},{"name":"D5","midi":74,"time":325.8332030000033,"velocity":0.7559055118110236,"duration":0.20616311197915138},{"name":"B4","midi":71,"time":326.04153625000333,"velocity":0.7559055118110236,"duration":0.20616311197920822},{"name":"D4","midi":62,"time":326.2498695000034,"velocity":0.7559055118110236,"duration":0.41449636197916107},{"name":"A#4","midi":70,"time":326.2498695000034,"velocity":0.7559055118110236,"duration":0.20616311197915138},{"name":"B4","midi":71,"time":326.4582027500034,"velocity":0.7559055118110236,"duration":0.20616311197915138},{"name":"F#4","midi":66,"time":326.6665360000034,"velocity":0.7559055118110236,"duration":0.41449636197916107},{"name":"B4","midi":71,"time":326.6665360000034,"velocity":0.7559055118110236,"duration":0.20833325000000968},{"name":"D5","midi":74,"time":326.9443136666701,"velocity":0.7559055118110236,"duration":0.7617184453125105},{"name":"A4","midi":69,"time":327.08320250000344,"velocity":0.7559055118110236,"duration":0.41449636197916107},{"name":"G#4","midi":68,"time":327.49986900000346,"velocity":0.7559055118110236,"duration":0.824652447916776},{"name":"E5","midi":76,"time":327.70820225000347,"velocity":0.7559055118110236,"duration":0.10199648697914654},{"name":"F#5","midi":78,"time":327.8123688750035,"velocity":0.7559055118110236,"duration":0.10199648697920338},{"name":"B3","midi":59,"time":327.91653550000353,"velocity":0.7559055118110236,"duration":0.4144963619792179},{"name":"E5","midi":76,"time":327.91653550000353,"velocity":0.7559055118110236,"duration":0.20616311197915138},{"name":"D5","midi":74,"time":328.12486875000354,"velocity":0.7559055118110236,"duration":0.3472220833334063},{"name":"A3","midi":57,"time":328.3332020000036,"velocity":0.7559055118110236,"duration":0.8246524479167192},{"name":"E5","midi":76,"time":328.5415352500036,"velocity":0.7559055118110236,"duration":0.10199648697914654},{"name":"F#5","midi":78,"time":328.6457018750036,"velocity":0.7559055118110236,"duration":0.10199648697914654},{"name":"F#4","midi":66,"time":328.74986850000363,"velocity":0.7559055118110236,"duration":0.824652447916776},{"name":"E5","midi":76,"time":328.74986850000363,"velocity":0.7559055118110236,"duration":0.20616311197915138},{"name":"D5","midi":74,"time":328.95820175000364,"velocity":0.7559055118110236,"duration":0.20616311197920822},{"name":"G#3","midi":56,"time":329.1665350000037,"velocity":0.7559055118110236,"duration":1.2478293619791998},{"name":"D5","midi":74,"time":329.1665350000037,"velocity":0.7559055118110236,"duration":0.20616311197915138},{"name":"G#5","midi":80,"time":329.3748682500037,"velocity":0.7559055118110236,"duration":0.10199648697914654},{"name":"A5","midi":81,"time":329.4790348750037,"velocity":0.7559055118110236,"duration":0.10199648697920338},{"name":"E4","midi":64,"time":329.5832015000038,"velocity":0.7559055118110236,"duration":0.20616311197915138},{"name":"B5","midi":83,"time":329.5832015000038,"velocity":0.7559055118110236,"duration":0.6076386458333332},{"name":"D4","midi":62,"time":329.7915347500038,"velocity":0.7559055118110236,"duration":0.20616311197915138},{"name":"E4","midi":64,"time":329.9998680000038,"velocity":0.7559055118110236,"duration":0.8246524479166624},{"name":"A5","midi":81,"time":330.20820125000375,"velocity":0.7559055118110236,"duration":0.20616311197915138},{"name":"E3","midi":52,"time":330.41653450000376,"velocity":0.7559055118110236,"duration":0.4144963619792179},{"name":"G#5","midi":80,"time":330.41653450000376,"velocity":0.7559055118110236,"duration":0.20616311197915138},{"name":"F#5","midi":78,"time":330.6248677500038,"velocity":0.7559055118110236,"duration":0.20616311197920822},{"name":"F#3","midi":54,"time":330.83320100000384,"velocity":0.7559055118110236,"duration":0.8246524479166624},{"name":"E5","midi":76,"time":330.83320100000384,"velocity":0.7559055118110236,"duration":0.1367186953124815},{"name":"D5","midi":74,"time":330.9720898333372,"velocity":0.7559055118110236,"duration":0.1367186953124815},{"name":"C#5","midi":73,"time":331.1109786666705,"velocity":0.7559055118110236,"duration":0.1367186953124815},{"name":"A3","midi":57,"time":331.24986750000386,"velocity":0.7559055118110236,"duration":0.41449636197916107},{"name":"D5","midi":74,"time":331.24986750000386,"velocity":0.7559055118110236,"duration":0.5533851953125009},{"name":"G#3","midi":56,"time":331.6665340000039,"velocity":0.7559055118110236,"duration":0.8246524479167192},{"name":"C#5","midi":73,"time":331.8054228333372,"velocity":0.7559055118110236,"duration":0.1367186953124815},{"name":"B4","midi":71,"time":331.94431166667056,"velocity":0.7559055118110236,"duration":0.1367186953124815},{"name":"B3","midi":59,"time":332.0832005000039,"velocity":0.7559055118110236,"duration":0.4144963619792179},{"name":"F#5","midi":78,"time":332.0832005000039,"velocity":0.7559055118110236,"duration":0.1367186953124815},{"name":"E5","midi":76,"time":332.22208933333724,"velocity":0.7559055118110236,"duration":0.1367186953124815},{"name":"D5","midi":74,"time":332.3609781666706,"velocity":0.7559055118110236,"duration":0.13671869531253833},{"name":"A3","midi":57,"time":332.499867000004,"velocity":0.7559055118110236,"duration":2.0399297395834424},{"name":"C#5","midi":73,"time":332.499867000004,"velocity":0.7559055118110236,"duration":0.20616311197915138},{"name":"A4","midi":69,"time":332.708200250004,"velocity":0.7559055118110236,"duration":0.20616311197915138},{"name":"C#4","midi":61,"time":332.916533500004,"velocity":0.7559055118110236,"duration":0.41449636197916107},{"name":"G#4","midi":68,"time":332.916533500004,"velocity":0.7559055118110236,"duration":0.20616311197915138},{"name":"A4","midi":69,"time":333.124866750004,"velocity":0.7559055118110236,"duration":0.20616311197915138},{"name":"E4","midi":64,"time":333.333200000004,"velocity":0.7559055118110236,"duration":0.41449636197916107},{"name":"A4","midi":69,"time":333.333200000004,"velocity":0.7559055118110236,"duration":0.20616311197915138},{"name":"C#5","midi":73,"time":333.6109776666707,"velocity":0.7559055118110236,"duration":0.7378469270833534},{"name":"G4","midi":67,"time":333.74986650000403,"velocity":0.7559055118110236,"duration":0.41449636197916107},{"name":"F#4","midi":66,"time":334.16653300000405,"velocity":0.7559055118110236,"duration":0.824652447916776},{"name":"D5","midi":74,"time":334.37486625000406,"velocity":0.7559055118110236,"duration":0.10199648697914654},{"name":"E5","midi":76,"time":334.47903287500407,"velocity":0.7559055118110236,"duration":0.10199648697920338},{"name":"A3","midi":57,"time":334.5831995000041,"velocity":0.7559055118110236,"duration":0.4144963619792179},{"name":"D5","midi":74,"time":334.5831995000041,"velocity":0.7559055118110236,"duration":0.20616311197915138},{"name":"C#5","midi":73,"time":334.79153275000414,"velocity":0.7559055118110236,"duration":0.3472220833334063},{"name":"G3","midi":55,"time":334.9998660000042,"velocity":0.7559055118110236,"duration":0.8246524479167192},{"name":"D5","midi":74,"time":335.2081992500042,"velocity":0.7559055118110236,"duration":0.10199648697914654},{"name":"E5","midi":76,"time":335.3123658750042,"velocity":0.7559055118110236,"duration":0.10199648697914654},{"name":"E4","midi":64,"time":335.4165325000042,"velocity":0.7559055118110236,"duration":0.4144963619792179},{"name":"D5","midi":74,"time":335.4165325000042,"velocity":0.7559055118110236,"duration":0.20616311197915138},{"name":"C#5","midi":73,"time":335.62486575000423,"velocity":0.7559055118110236,"duration":0.20616311197920822},{"name":"D#4","midi":63,"time":335.8331990000043,"velocity":0.7559055118110236,"duration":0.41449636197916107},{"name":"F#3","midi":54,"time":335.8331990000043,"velocity":0.7559055118110236,"duration":0.824652447916776},{"name":"C5","midi":72,"time":335.8331990000043,"velocity":0.7559055118110236,"duration":0.23871518229168487},{"name":"F#5","midi":78,"time":336.08493501042096,"velocity":0.7559055118110236,"duration":0.19097214583337063},{"name":"C4","midi":60,"time":336.2498655000043,"velocity":0.7559055118110236,"duration":0.20616311197920822},{"name":"G#5","midi":80,"time":336.2715668802127,"velocity":0.7559055118110236,"duration":0.18446173177085257},{"name":"B3","midi":59,"time":336.4581987500044,"velocity":0.7559055118110236,"duration":0.20616311197920822},{"name":"A5","midi":81,"time":336.4581987500044,"velocity":0.7559055118110236,"duration":0.4144963619792179},{"name":"C4","midi":60,"time":336.66653200000445,"velocity":0.7559055118110236,"duration":0.41449636197916107},{"name":"E3","midi":52,"time":336.66653200000445,"velocity":0.7559055118110236,"duration":0.8246524479167192},{"name":"G#5","midi":80,"time":336.87486525000446,"velocity":0.7559055118110236,"duration":0.20616311197915138},{"name":"A3","midi":57,"time":337.08319850000447,"velocity":0.7559055118110236,"duration":0.824652447916776},{"name":"F#5","midi":78,"time":337.08319850000447,"velocity":0.7559055118110236,"duration":0.20616311197915138},{"name":"E5","midi":76,"time":337.2915317500045,"velocity":0.7559055118110236,"duration":0.20616311197920822},{"name":"F#3","midi":54,"time":337.49986500000455,"velocity":0.7559055118110236,"duration":0.8246524479167192},{"name":"D#5","midi":75,"time":337.49986500000455,"velocity":0.7559055118110236,"duration":0.1367186953124815},{"name":"C#5","midi":73,"time":337.6387538333379,"velocity":0.7559055118110236,"duration":0.1367186953124815},{"name":"B4","midi":71,"time":337.7776426666712,"velocity":0.7559055118110236,"duration":0.13671869531253833},{"name":"A3","midi":57,"time":337.9165315000046,"velocity":0.7559055118110236,"duration":0.8246524479166624},{"name":"C5","midi":72,"time":337.9165315000046,"velocity":0.7559055118110236,"duration":0.553385195312444},{"name":"D#3","midi":51,"time":338.3331980000046,"velocity":0.7559055118110236,"duration":0.824652447916776},{"name":"B4","midi":71,"time":338.4720868333379,"velocity":0.7559055118110236,"duration":0.1367186953124815},{"name":"A4","midi":69,"time":338.61097566667127,"velocity":0.7559055118110236,"duration":0.13671869531253833},{"name":"F#3","midi":54,"time":338.74986450000466,"velocity":0.7559055118110236,"duration":0.4144963619792179},{"name":"C5","midi":72,"time":338.74986450000466,"velocity":0.7559055118110236,"duration":0.1367186953124815},{"name":"B4","midi":71,"time":338.888753333338,"velocity":0.7559055118110236,"duration":0.1367186953124815},{"name":"A4","midi":69,"time":339.02764216667134,"velocity":0.7559055118110236,"duration":0.13671869531253833},{"name":"E3","midi":52,"time":339.16653100000474,"velocity":0.7559055118110236,"duration":0.8246524479166624},{"name":"A4","midi":69,"time":339.16653100000474,"velocity":0.7559055118110236,"duration":0.2756075286458213},{"name":"G#4","midi":68,"time":339.4443086666714,"velocity":0.7559055118110236,"duration":0.8246524479167192},{"name":"E2","midi":40,"time":339.58319750000476,"velocity":0.7559055118110236,"duration":0.41449636197916107},{"name":"E3","midi":52,"time":339.9998640000048,"velocity":0.7559055118110236,"duration":4.99131744791697},{"name":"G#3","midi":56,"time":340.4165305000048,"velocity":0.7559055118110236,"duration":0.41449636197916107},{"name":"D#5","midi":75,"time":340.5206971250048,"velocity":0.7559055118110236,"duration":0.10199648697914654},{"name":"E5","midi":76,"time":340.6248637500048,"velocity":0.7559055118110236,"duration":0.10199648697914654},{"name":"F#5","midi":78,"time":340.7290303750048,"velocity":0.7559055118110236,"duration":0.10199648697914654},{"name":"A3","midi":57,"time":340.8331970000048,"velocity":0.7559055118110236,"duration":0.41449636197916107},{"name":"E5","midi":76,"time":340.8331970000048,"velocity":0.7559055118110236,"duration":0.20616311197915138},{"name":"D#5","midi":75,"time":341.0415302500048,"velocity":0.7559055118110236,"duration":0.20616311197915138},{"name":"C4","midi":60,"time":341.24986350000484,"velocity":0.7559055118110236,"duration":0.41449636197916107},{"name":"D#5","midi":75,"time":341.24986350000484,"velocity":0.7559055118110236,"duration":0.20616311197915138},{"name":"E5","midi":76,"time":341.45819675000484,"velocity":0.7559055118110236,"duration":0.20616311197915138},{"name":"A3","midi":57,"time":341.66653000000485,"velocity":0.7559055118110236,"duration":0.41449636197916107},{"name":"E5","midi":76,"time":341.66653000000485,"velocity":0.7559055118110236,"duration":0.20616311197915138},{"name":"G#5","midi":80,"time":341.87486325000486,"velocity":0.7559055118110236,"duration":0.20616311197915138},{"name":"F#3","midi":54,"time":342.0831965000049,"velocity":0.7559055118110236,"duration":0.41449636197916107},{"name":"A5","midi":81,"time":342.0831965000049,"velocity":0.7559055118110236,"duration":0.20616311197915138},{"name":"C6","midi":84,"time":342.2915297500049,"velocity":0.7559055118110236,"duration":0.20616311197915138},{"name":"G#3","midi":56,"time":342.4998630000049,"velocity":0.7559055118110236,"duration":0.41449636197916107},{"name":"E5","midi":76,"time":342.4998630000049,"velocity":0.7559055118110236,"duration":0.10199648697914654},{"name":"F5","midi":77,"time":342.6040296250049,"velocity":0.7559055118110236,"duration":0.10199648697914654},{"name":"G5","midi":79,"time":342.7081962500049,"velocity":0.7559055118110236,"duration":0.10199648697914654},{"name":"F5","midi":77,"time":342.8123628750049,"velocity":0.7559055118110236,"duration":0.10199648697914654},{"name":"B3","midi":59,"time":342.9165295000049,"velocity":0.7559055118110236,"duration":0.4144963619792179},{"name":"E5","midi":76,"time":342.9165295000049,"velocity":0.7559055118110236,"duration":0.10199648697914654},{"name":"F5","midi":77,"time":343.0206961250049,"velocity":0.7559055118110236,"duration":0.10199648697914654},{"name":"E5","midi":76,"time":343.1248627500049,"velocity":0.7559055118110236,"duration":0.1236978671875022},{"name":"D5","midi":74,"time":343.2507307552133,"velocity":0.7559055118110236,"duration":0.490451192708349},{"name":"F#3","midi":54,"time":343.333196000005,"velocity":0.7559055118110236,"duration":0.41449636197916107},{"name":"A3","midi":57,"time":343.749862500005,"velocity":0.7559055118110236,"duration":0.41449636197916107},{"name":"C5","midi":72,"time":343.854029125005,"velocity":0.7559055118110236,"duration":0.10199648697914654},{"name":"D5","midi":74,"time":343.958195750005,"velocity":0.7559055118110236,"duration":0.10199648697914654},{"name":"E5","midi":76,"time":344.062362375005,"velocity":0.7559055118110236,"duration":0.10199648697914654},{"name":"D5","midi":74,"time":344.166529000005,"velocity":0.7559055118110236,"duration":0.20616311197915138},{"name":"G#3","midi":56,"time":344.166529000005,"velocity":0.7559055118110236,"duration":0.41449636197916107},{"name":"C5","midi":72,"time":344.37486225000504,"velocity":0.7559055118110236,"duration":0.20616311197915138},{"name":"C5","midi":72,"time":344.58319550000505,"velocity":0.7559055118110236,"duration":0.20616311197915138},{"name":"B3","midi":59,"time":344.58319550000505,"velocity":0.7559055118110236,"duration":1.6644958619793329},{"name":"D5","midi":74,"time":344.79152875000506,"velocity":0.7559055118110236,"duration":0.20616311197920822},{"name":"G#3","midi":56,"time":344.9998620000051,"velocity":0.7559055118110236,"duration":0.8246524479167192},{"name":"D5","midi":74,"time":344.9998620000051,"velocity":0.7559055118110236,"duration":0.20616311197915138},{"name":"E5","midi":76,"time":345.20819525000513,"velocity":0.7559055118110236,"duration":0.20616311197915138},{"name":"E3","midi":52,"time":345.41652850000514,"velocity":0.7559055118110236,"duration":0.4144963619792179},{"name":"G#5","midi":80,"time":345.41652850000514,"velocity":0.7559055118110236,"duration":0.20616311197915138},{"name":"B5","midi":83,"time":345.62486175000515,"velocity":0.7559055118110236,"duration":0.20616311197920822},{"name":"F3","midi":53,"time":345.8331950000052,"velocity":0.7559055118110236,"duration":2.0399297395834424},{"name":"D5","midi":74,"time":345.8331950000052,"velocity":0.7559055118110236,"duration":0.10199648697914654},{"name":"E5","midi":76,"time":345.9373616250052,"velocity":0.7559055118110236,"duration":0.10199648697914654},{"name":"F5","midi":77,"time":346.04152825000523,"velocity":0.7559055118110236,"duration":0.10199648697914654},{"name":"E5","midi":76,"time":346.14569487500523,"velocity":0.7559055118110236,"duration":0.10199648697914654},{"name":"G#3","midi":56,"time":346.24986150000524,"velocity":0.7559055118110236,"duration":0.41449636197916107},{"name":"D5","midi":74,"time":346.24986150000524,"velocity":0.7559055118110236,"duration":0.10199648697914654},{"name":"E5","midi":76,"time":346.35402812500524,"velocity":0.7559055118110236,"duration":0.10199648697914654},{"name":"D5","midi":74,"time":346.45819475000525,"velocity":0.7559055118110236,"duration":0.1367186953124815},{"name":"C5","midi":72,"time":346.5970835833386,"velocity":0.7559055118110236,"duration":0.5881074036458358},{"name":"A3","midi":57,"time":346.66652800000526,"velocity":0.7559055118110236,"duration":0.41449636197916107},{"name":"C4","midi":60,"time":347.0831945000053,"velocity":0.7559055118110236,"duration":0.41449636197916107},{"name":"B4","midi":71,"time":347.1873611250053,"velocity":0.7559055118110236,"duration":0.10199648697914654},{"name":"C5","midi":72,"time":347.2915277500053,"velocity":0.7559055118110236,"duration":0.10199648697914654},{"name":"D5","midi":74,"time":347.3956943750053,"velocity":0.7559055118110236,"duration":0.10199648697914654},{"name":"A3","midi":57,"time":347.4998610000053,"velocity":0.7559055118110236,"duration":2.039929739583499},{"name":"C5","midi":72,"time":347.4998610000053,"velocity":0.7559055118110236,"duration":0.20616311197915138},{"name":"B4","midi":71,"time":347.7081942500053,"velocity":0.7559055118110236,"duration":0.20616311197920822},{"name":"F#3","midi":54,"time":347.9165275000054,"velocity":0.7559055118110236,"duration":0.41449636197916107},{"name":"B4","midi":71,"time":347.9165275000054,"velocity":0.7559055118110236,"duration":0.20616311197915138},{"name":"C5","midi":72,"time":348.1248607500054,"velocity":0.7559055118110236,"duration":0.20616311197915138},{"name":"E3","midi":52,"time":348.3331940000054,"velocity":0.7559055118110236,"duration":0.41449636197916107},{"name":"C5","midi":72,"time":348.3331940000054,"velocity":0.7559055118110236,"duration":0.20616311197915138},{"name":"F#5","midi":78,"time":348.5415272500054,"velocity":0.7559055118110236,"duration":0.10199648697914654},{"name":"G#5","midi":80,"time":348.6456938750054,"velocity":0.7559055118110236,"duration":0.10199648697914654},{"name":"D#3","midi":51,"time":348.7498605000054,"velocity":0.7559055118110236,"duration":0.41449636197916107},{"name":"A5","midi":81,"time":348.7498605000054,"velocity":0.7559055118110236,"duration":0.17361104166667474},{"name":"C5","midi":72,"time":348.9581937500054,"velocity":0.7559055118110236,"duration":0.34505194531249117},{"name":"E3","midi":52,"time":349.16652700000543,"velocity":0.7559055118110236,"duration":3.10329736979196},{"name":"B4","midi":71,"time":349.30541583333877,"velocity":0.7559055118110236,"duration":0.1367186953124815},{"name":"A4","midi":69,"time":349.4443046666721,"velocity":0.7559055118110236,"duration":0.13671869531253833},{"name":"D4","midi":62,"time":349.5831935000055,"velocity":0.7559055118110236,"duration":0.8246524479167192},{"name":"G#3","midi":56,"time":349.5831935000055,"velocity":0.7559055118110236,"duration":0.41449636197916107},{"name":"B4","midi":71,"time":349.5831935000055,"velocity":0.7559055118110236,"duration":0.1367186953124815},{"name":"A4","midi":69,"time":349.72208233333885,"velocity":0.7559055118110236,"duration":0.1367186953124815},{"name":"G#4","midi":68,"time":349.8609711666722,"velocity":0.7559055118110236,"duration":0.1367186953124815},{"name":"A3","midi":57,"time":349.9998600000055,"velocity":0.7559055118110236,"duration":0.824652447916776},{"name":"F5","midi":77,"time":349.9998600000055,"velocity":0.7559055118110236,"duration":0.1367186953124815},{"name":"E5","midi":76,"time":350.13874883333887,"velocity":0.7559055118110236,"duration":0.1367186953124815},{"name":"D5","midi":74,"time":350.2776376666722,"velocity":0.7559055118110236,"duration":0.13671869531253833},{"name":"C4","midi":60,"time":350.4165265000056,"velocity":0.7559055118110236,"duration":0.4144963619792179},{"name":"E5","midi":76,"time":350.4165265000056,"velocity":0.7559055118110236,"duration":0.1367186953124815},{"name":"D5","midi":74,"time":350.55541533333894,"velocity":0.7559055118110236,"duration":0.1367186953124815},{"name":"C5","midi":72,"time":350.6943041666723,"velocity":0.7559055118110236,"duration":0.13671869531253833},{"name":"B3","midi":59,"time":350.8331930000057,"velocity":0.7559055118110236,"duration":0.41449636197916107},{"name":"A5","midi":81,"time":350.8331930000057,"velocity":0.7559055118110236,"duration":0.1367186953124815},{"name":"G#5","midi":80,"time":350.972081833339,"velocity":0.7559055118110236,"duration":0.1367186953124815},{"name":"F#5","midi":78,"time":351.11097066667236,"velocity":0.7559055118110236,"duration":0.1367186953124815},{"name":"E4","midi":64,"time":351.2498595000057,"velocity":0.7559055118110236,"duration":0.41449636197916107},{"name":"G#5","midi":80,"time":351.2498595000057,"velocity":0.7559055118110236,"duration":0.1367186953124815},{"name":"F#5","midi":78,"time":351.38874833333904,"velocity":0.7559055118110236,"duration":0.1367186953124815},{"name":"E5","midi":76,"time":351.5276371666724,"velocity":0.7559055118110236,"duration":0.1367186953124815},{"name":"D#4","midi":63,"time":351.6665260000057,"velocity":0.7559055118110236,"duration":0.41449636197916107},{"name":"C6","midi":84,"time":351.6665260000057,"velocity":0.7559055118110236,"duration":0.1367186953124815},{"name":"B5","midi":83,"time":351.80541483333906,"velocity":0.7559055118110236,"duration":0.1367186953124815},{"name":"A5","midi":81,"time":351.9443036666724,"velocity":0.7559055118110236,"duration":0.1367186953124815},{"name":"D4","midi":62,"time":352.08319250000574,"velocity":0.7559055118110236,"duration":0.8246524479166624},{"name":"B5","midi":83,"time":352.08319250000574,"velocity":0.7559055118110236,"duration":0.1367186953124815},{"name":"A5","midi":81,"time":352.2220813333391,"velocity":0.7559055118110236,"duration":0.1367186953124815},{"name":"G#5","midi":80,"time":352.3609701666724,"velocity":0.7559055118110236,"duration":0.1367186953124815},{"name":"F3","midi":53,"time":352.49985900000576,"velocity":0.7559055118110236,"duration":0.6076386458333332},{"name":"G#5","midi":80,"time":352.49985900000576,"velocity":0.7559055118110236,"duration":0.44053801822911964},{"name":"B3","midi":59,"time":352.9165255000057,"velocity":0.7559055118110236,"duration":0.4144963619792179},{"name":"A5","midi":81,"time":352.94256715625573,"velocity":0.7559055118110236,"duration":0.09331593489582701},{"name":"G#5","midi":80,"time":353.0380532291724,"velocity":0.7559055118110236,"duration":0.09331593489582701},{"name":"F#5","midi":78,"time":353.1335393020891,"velocity":0.7559055118110236,"duration":0.09331593489582701},{"name":"E5","midi":76,"time":353.2290253750058,"velocity":0.7559055118110236,"duration":0.10199648697914654},{"name":"C4","midi":60,"time":353.3331920000058,"velocity":0.7559055118110236,"duration":0.41449636197916107},{"name":"F#3","midi":54,"time":353.3331920000058,"velocity":0.7559055118110236,"duration":0.8246524479167192},{"name":"D#5","midi":75,"time":353.3331920000058,"velocity":0.7559055118110236,"duration":0.20616311197915138},{"name":"A5","midi":81,"time":353.5415252500058,"velocity":0.7559055118110236,"duration":0.17361104166667474},{"name":"E4","midi":64,"time":353.7498585000058,"velocity":0.7559055118110236,"duration":0.20616311197915138},{"name":"A4","midi":69,"time":353.7498585000058,"velocity":0.7559055118110236,"duration":0.4123262239583596},{"name":"D#4","midi":63,"time":353.9581917500058,"velocity":0.7559055118110236,"duration":0.16927076562501497},{"name":"E4","midi":64,"time":354.16652500000583,"velocity":0.7559055118110236,"duration":0.8246524479166624},{"name":"B4","midi":71,"time":354.37485825000584,"velocity":0.7559055118110236,"duration":0.1931422838541721},{"name":"E3","midi":52,"time":354.58319150000585,"velocity":0.7559055118110236,"duration":1.2478293619791998},{"name":"C#5","midi":73,"time":354.58319150000585,"velocity":0.7559055118110236,"duration":0.6076386458332763},{"name":"B3","midi":59,"time":354.9998580000058,"velocity":0.7559055118110236,"duration":0.41449636197916107},{"name":"G#4","midi":68,"time":354.9998580000058,"velocity":0.7559055118110236,"duration":0.20616311197915138},{"name":"D5","midi":74,"time":355.2081912500058,"velocity":0.7559055118110236,"duration":0.10199648697914654},{"name":"E5","midi":76,"time":355.31235787500583,"velocity":0.7559055118110236,"duration":0.10199648697914654},{"name":"E4","midi":64,"time":355.41652450000583,"velocity":0.7559055118110236,"duration":0.6141490598959081},{"name":"D5","midi":74,"time":355.41652450000583,"velocity":0.7559055118110236,"duration":0.11718745312498413},{"name":"C#5","midi":73,"time":355.5358820911517,"velocity":0.7559055118110236,"duration":0.11935759114584243},{"name":"B4","midi":71,"time":355.6574098203184,"velocity":0.7559055118110236,"duration":0.17361104166667474},{"name":"F#3","midi":54,"time":355.8331910000059,"velocity":0.7559055118110236,"duration":0.9548607291666826},{"name":"A4","midi":69,"time":355.8331910000059,"velocity":0.7559055118110236,"duration":1.6644958619792192},{"name":"A3","midi":57,"time":356.0415242500059,"velocity":0.7559055118110236,"duration":0.20616311197915138},{"name":"C#4","midi":61,"time":356.24985750000593,"velocity":0.7559055118110236,"duration":0.20616311197915138},{"name":"E4","midi":64,"time":356.45819075000594,"velocity":0.7559055118110236,"duration":0.20616311197915138},{"name":"D4","midi":62,"time":356.66652400000595,"velocity":0.7559055118110236,"duration":0.8246524479166624},{"name":"F#3","midi":54,"time":356.8748572500059,"velocity":0.7559055118110236,"duration":0.20616311197915138},{"name":"E3","midi":52,"time":357.0831905000059,"velocity":0.7559055118110236,"duration":0.20616311197915138},{"name":"D3","midi":50,"time":357.2915237500059,"velocity":0.7559055118110236,"duration":0.20616311197920822},{"name":"C#3","midi":49,"time":357.499857000006,"velocity":0.7559055118110236,"duration":1.388888333333398},{"name":"E3","midi":52,"time":357.708190250006,"velocity":0.7559055118110236,"duration":0.20616311197915138},{"name":"A3","midi":57,"time":357.916523500006,"velocity":0.7559055118110236,"duration":0.20616311197915138},{"name":"C#4","midi":61,"time":358.124856750006,"velocity":0.7559055118110236,"duration":0.20616311197915138},{"name":"E4","midi":64,"time":358.333190000006,"velocity":0.7559055118110236,"duration":0.8246524479167192},{"name":"F#4","midi":66,"time":358.54152325000604,"velocity":0.7559055118110236,"duration":0.20616311197915138},{"name":"G4","midi":67,"time":358.74985650000605,"velocity":0.7559055118110236,"duration":0.5186629869792228},{"name":"A2","midi":45,"time":358.95818975000606,"velocity":0.7559055118110236,"duration":0.20616311197920822},{"name":"D3","midi":50,"time":359.1665230000061,"velocity":0.7559055118110236,"duration":1.2478293619791998},{"name":"E4","midi":64,"time":359.2706896250061,"velocity":0.7559055118110236,"duration":0.10199648697914654},{"name":"F#4","midi":66,"time":359.37485625000613,"velocity":0.7559055118110236,"duration":0.10199648697914654},{"name":"G4","midi":67,"time":359.47902287500614,"velocity":0.7559055118110236,"duration":0.10199648697914654},{"name":"A3","midi":57,"time":359.58318950000614,"velocity":0.7559055118110236,"duration":0.41449636197916107},{"name":"F#4","midi":66,"time":359.58318950000614,"velocity":0.7559055118110236,"duration":0.20616311197915138},{"name":"D4","midi":62,"time":359.79152275000615,"velocity":0.7559055118110236,"duration":0.41449636197916107},{"name":"B3","midi":59,"time":359.99985600000616,"velocity":0.7559055118110236,"duration":1.2478293619791998},{"name":"D4","midi":62,"time":360.20818925000617,"velocity":0.7559055118110236,"duration":0.10199648697914654},{"name":"E4","midi":64,"time":360.3123558750062,"velocity":0.7559055118110236,"duration":0.10199648697914654},{"name":"D#3","midi":51,"time":360.4165225000062,"velocity":0.7559055118110236,"duration":0.41449636197916107},{"name":"F#4","midi":66,"time":360.4165225000062,"velocity":0.7559055118110236,"duration":0.10199648697914654},{"name":"G#4","midi":68,"time":360.5206891250062,"velocity":0.7559055118110236,"duration":0.10199648697914654},{"name":"A4","midi":69,"time":360.6248557500062,"velocity":0.7559055118110236,"duration":0.2756075286458213},{"name":"E3","midi":52,"time":360.8331890000062,"velocity":0.7559055118110236,"duration":1.2478293619791998},{"name":"F#4","midi":66,"time":360.9373556250062,"velocity":0.7559055118110236,"duration":0.10199648697914654},{"name":"G#4","midi":68,"time":361.0415222500062,"velocity":0.7559055118110236,"duration":0.10199648697914654},{"name":"A4","midi":69,"time":361.1456888750062,"velocity":0.7559055118110236,"duration":0.10199648697914654},{"name":"B3","midi":59,"time":361.2498555000062,"velocity":0.7559055118110236,"duration":0.41449636197916107},{"name":"G#4","midi":68,"time":361.2498555000062,"velocity":0.7559055118110236,"duration":0.20616311197915138},{"name":"E4","midi":64,"time":361.45818875000623,"velocity":0.7559055118110236,"duration":0.41449636197916107},{"name":"C#4","midi":61,"time":361.66652200000624,"velocity":0.7559055118110236,"duration":1.2478293619791998},{"name":"E4","midi":64,"time":361.87485525000625,"velocity":0.7559055118110236,"duration":0.10199648697914654},{"name":"F#4","midi":66,"time":361.97902187500625,"velocity":0.7559055118110236,"duration":0.10199648697914654},{"name":"F3","midi":53,"time":362.08318850000626,"velocity":0.7559055118110236,"duration":0.41449636197916107},{"name":"G#4","midi":68,"time":362.08318850000626,"velocity":0.7559055118110236,"duration":0.10199648697914654},{"name":"A4","midi":69,"time":362.18735512500626,"velocity":0.7559055118110236,"duration":0.10199648697914654},{"name":"B4","midi":71,"time":362.29152175000627,"velocity":0.7559055118110236,"duration":0.2756075286458213},{"name":"F#3","midi":54,"time":362.4998550000063,"velocity":0.7559055118110236,"duration":1.2478293619791998},{"name":"G#4","midi":68,"time":362.6040216250063,"velocity":0.7559055118110236,"duration":0.10199648697914654},{"name":"A4","midi":69,"time":362.7081882500063,"velocity":0.7559055118110236,"duration":0.10199648697914654},{"name":"B4","midi":71,"time":362.8123548750063,"velocity":0.7559055118110236,"duration":0.10199648697914654},{"name":"C#4","midi":61,"time":362.9165215000063,"velocity":0.7559055118110236,"duration":0.41449636197916107},{"name":"A4","midi":69,"time":362.9165215000063,"velocity":0.7559055118110236,"duration":0.20616311197915138},{"name":"F#4","midi":66,"time":363.1248547500063,"velocity":0.7559055118110236,"duration":0.41449636197916107},{"name":"D4","midi":62,"time":363.3331880000063,"velocity":0.7559055118110236,"duration":1.2478293619791998},{"name":"F#4","midi":66,"time":363.5415212500063,"velocity":0.7559055118110236,"duration":0.10199648697914654},{"name":"G#4","midi":68,"time":363.64568787500633,"velocity":0.7559055118110236,"duration":0.10199648697914654},{"name":"F#3","midi":54,"time":363.74985450000634,"velocity":0.7559055118110236,"duration":0.41449636197916107},{"name":"A4","midi":69,"time":363.74985450000634,"velocity":0.7559055118110236,"duration":0.10199648697914654},{"name":"B4","midi":71,"time":363.85402112500634,"velocity":0.7559055118110236,"duration":0.10199648697914654},{"name":"C#5","midi":73,"time":363.95818775000635,"velocity":0.7559055118110236,"duration":0.2756075286458213},{"name":"G#3","midi":56,"time":364.16652100000636,"velocity":0.7559055118110236,"duration":1.2478293619791998},{"name":"A4","midi":69,"time":364.27068762500636,"velocity":0.7559055118110236,"duration":0.10199648697914654},{"name":"B4","midi":71,"time":364.37485425000636,"velocity":0.7559055118110236,"duration":0.10199648697914654},{"name":"C#5","midi":73,"time":364.47902087500637,"velocity":0.7559055118110236,"duration":0.10199648697914654},{"name":"D4","midi":62,"time":364.5831875000064,"velocity":0.7559055118110236,"duration":0.41449636197916107},{"name":"B4","midi":71,"time":364.5831875000064,"velocity":0.7559055118110236,"duration":0.20616311197915138},{"name":"G#4","midi":68,"time":364.7915207500064,"velocity":0.7559055118110236,"duration":0.41449636197916107},{"name":"E4","midi":64,"time":364.9998540000064,"velocity":0.7559055118110236,"duration":1.2478293619791998},{"name":"G#4","midi":68,"time":365.2081872500064,"velocity":0.7559055118110236,"duration":0.10199648697914654},{"name":"A4","midi":69,"time":365.3123538750064,"velocity":0.7559055118110236,"duration":0.10199648697914654},{"name":"G#3","midi":56,"time":365.4165205000064,"velocity":0.7559055118110236,"duration":0.41449636197916107},{"name":"B4","midi":71,"time":365.4165205000064,"velocity":0.7559055118110236,"duration":0.10199648697914654},{"name":"C#5","midi":73,"time":365.5206871250064,"velocity":0.7559055118110236,"duration":0.10199648697914654},{"name":"D5","midi":74,"time":365.6248537500064,"velocity":0.7559055118110236,"duration":0.34505194531249117},{"name":"A3","midi":57,"time":365.83318700000643,"velocity":0.7559055118110236,"duration":0.8246524479167192},{"name":"C#5","midi":73,"time":365.9720758333398,"velocity":0.7559055118110236,"duration":0.1367186953124815},{"name":"B4","midi":71,"time":366.1109646666731,"velocity":0.7559055118110236,"duration":0.1367186953124815},{"name":"E4","midi":64,"time":366.24985350000645,"velocity":0.7559055118110236,"duration":0.824652447916776},{"name":"C#5","midi":73,"time":366.24985350000645,"velocity":0.7559055118110236,"duration":0.1367186953124815},{"name":"B4","midi":71,"time":366.3887423333398,"velocity":0.7559055118110236,"duration":0.1367186953124815},{"name":"A4","midi":69,"time":366.52763116667313,"velocity":0.7559055118110236,"duration":0.13671869531253833},{"name":"G3","midi":55,"time":366.6665200000065,"velocity":0.7559055118110236,"duration":0.824652447916776},{"name":"D5","midi":74,"time":366.6665200000065,"velocity":0.7559055118110236,"duration":0.1367186953124815},{"name":"C5","midi":72,"time":366.80540883333987,"velocity":0.7559055118110236,"duration":0.1367186953124815},{"name":"B4","midi":71,"time":366.9442976666732,"velocity":0.7559055118110236,"duration":0.13671869531253833},{"name":"E4","midi":64,"time":367.0831865000066,"velocity":0.7559055118110236,"duration":0.4144963619792179},{"name":"C5","midi":72,"time":367.0831865000066,"velocity":0.7559055118110236,"duration":0.1367186953124815},{"name":"B4","midi":71,"time":367.22207533333994,"velocity":0.7559055118110236,"duration":0.1367186953124815},{"name":"A4","midi":69,"time":367.3609641666733,"velocity":0.7559055118110236,"duration":0.13671869531253833},{"name":"F#3","midi":54,"time":367.4998530000067,"velocity":0.7559055118110236,"duration":0.8246524479167192},{"name":"C5","midi":72,"time":367.4998530000067,"velocity":0.7559055118110236,"duration":0.23654504427082657},{"name":"D#4","midi":63,"time":367.73856818229837,"velocity":0.7559055118110236,"duration":0.3124998750000145},{"name":"A3","midi":57,"time":367.9165195000067,"velocity":0.7559055118110236,"duration":0.8246524479167192},{"name":"E4","midi":64,"time":368.1248527500067,"velocity":0.7559055118110236,"duration":0.3124998750000145},{"name":"E3","midi":52,"time":368.3331860000067,"velocity":0.7559055118110236,"duration":0.824652447916776},{"name":"A4","midi":69,"time":368.47207483334006,"velocity":0.7559055118110236,"duration":0.1367186953124815},{"name":"B4","midi":71,"time":368.6109636666734,"velocity":0.7559055118110236,"duration":0.13671869531253833},{"name":"A3","midi":57,"time":368.7498525000068,"velocity":0.7559055118110236,"duration":0.4144963619792179},{"name":"C5","midi":72,"time":368.7498525000068,"velocity":0.7559055118110236,"duration":0.1367186953124815},{"name":"B4","midi":71,"time":368.88874133334014,"velocity":0.7559055118110236,"duration":0.1367186953124815},{"name":"A4","midi":69,"time":369.0276301666735,"velocity":0.7559055118110236,"duration":0.13671869531253833},{"name":"D3","midi":50,"time":369.1665190000069,"velocity":0.7559055118110236,"duration":0.8246524479167192},{"name":"F5","midi":77,"time":369.1665190000069,"velocity":0.7559055118110236,"duration":0.23654504427082657},{"name":"G#4","midi":68,"time":369.40523418229856,"velocity":0.7559055118110236,"duration":0.3124998750000145},{"name":"B3","midi":59,"time":369.5831855000069,"velocity":0.7559055118110236,"duration":0.4144963619792179},{"name":"A4","midi":69,"time":369.7915187500069,"velocity":0.7559055118110236,"duration":0.31249987500007137},{"name":"C3","midi":48,"time":369.99985200000697,"velocity":0.7559055118110236,"duration":0.8246524479167192},{"name":"E3","midi":52,"time":369.99985200000697,"velocity":0.7559055118110236,"duration":0.41449636197916107},{"name":"D5","midi":74,"time":370.1387408333403,"velocity":0.7559055118110236,"duration":0.1367186953124815},{"name":"E5","midi":76,"time":370.27762966667365,"velocity":0.7559055118110236,"duration":0.1367186953124815},{"name":"A3","midi":57,"time":370.416518500007,"velocity":0.7559055118110236,"duration":0.4144963619792179},{"name":"F5","midi":77,"time":370.416518500007,"velocity":0.7559055118110236,"duration":0.1367186953124815},{"name":"E5","midi":76,"time":370.5554073333403,"velocity":0.7559055118110236,"duration":0.1367186953124815},{"name":"D5","midi":74,"time":370.69429616667367,"velocity":0.7559055118110236,"duration":0.13671869531253833},{"name":"B2","midi":47,"time":370.83318500000706,"velocity":0.7559055118110236,"duration":0.8246524479167192},{"name":"G#5","midi":80,"time":370.83318500000706,"velocity":0.7559055118110236,"duration":0.23871518229168487},{"name":"D5","midi":74,"time":370.9720738333404,"velocity":0.7559055118110236,"duration":0.1410589713541981},{"name":"E5","midi":76,"time":371.11096266667374,"velocity":0.7559055118110236,"duration":0.1410589713541981},{"name":"D3","midi":50,"time":371.2498515000071,"velocity":0.7559055118110236,"duration":0.8246524479167192},{"name":"F5","midi":77,"time":371.2498515000071,"velocity":0.7559055118110236,"duration":0.1410589713541981},{"name":"E5","midi":76,"time":371.3887403333404,"velocity":0.7559055118110236,"duration":0.1410589713541981},{"name":"D5","midi":74,"time":371.52762916667376,"velocity":0.7559055118110236,"duration":0.1410589713541981},{"name":"A2","midi":45,"time":371.6665180000071,"velocity":0.7559055118110236,"duration":0.8246524479167192},{"name":"A5","midi":81,"time":371.6665180000071,"velocity":0.7559055118110236,"duration":0.23871518229168487},{"name":"D5","midi":74,"time":371.80540683334044,"velocity":0.7559055118110236,"duration":0.1410589713541981},{"name":"E5","midi":76,"time":371.9442956666738,"velocity":0.7559055118110236,"duration":0.1410589713541981},{"name":"D3","midi":50,"time":372.0831845000071,"velocity":0.7559055118110236,"duration":0.8246524479167192},{"name":"F5","midi":77,"time":372.0831845000071,"velocity":0.7559055118110236,"duration":0.1410589713541981},{"name":"E5","midi":76,"time":372.22207333334046,"velocity":0.7559055118110236,"duration":0.1410589713541981},{"name":"D5","midi":74,"time":372.3609621666738,"velocity":0.7559055118110236,"duration":0.13671869531253833},{"name":"G#2","midi":44,"time":372.4998510000072,"velocity":0.7559055118110236,"duration":0.41449636197916107},{"name":"B5","midi":83,"time":372.4998510000072,"velocity":0.7559055118110236,"duration":0.19531242187497355},{"name":"F5","midi":77,"time":372.60835790104886,"velocity":0.7559055118110236,"duration":0.10199648697914654},{"name":"E5","midi":76,"time":372.7168648020905,"velocity":0.7559055118110236,"duration":0.10199648697914654},{"name":"D5","midi":74,"time":372.8253717031322,"velocity":0.7559055118110236,"duration":0.10199648697914654},{"name":"G#3","midi":56,"time":372.93387860417386,"velocity":0.7559055118110236,"duration":0.397135257812522},{"name":"E5","midi":76,"time":372.93387860417386,"velocity":0.7559055118110236,"duration":0.20616311197920822},{"name":"B4","midi":71,"time":373.13353130209055,"velocity":0.7559055118110236,"duration":0.20616311197920822},{"name":"A3","midi":57,"time":373.33318400000724,"velocity":0.7559055118110236,"duration":0.824652447916776},{"name":"C5","midi":72,"time":373.33318400000724,"velocity":0.7559055118110236,"duration":0.20616311197920822},{"name":"G#4","midi":68,"time":373.5415172500073,"velocity":0.7559055118110236,"duration":0.20616311197915138},{"name":"C4","midi":60,"time":373.7498505000073,"velocity":0.7559055118110236,"duration":0.4144963619792179},{"name":"A4","midi":69,"time":373.7498505000073,"velocity":0.7559055118110236,"duration":0.23654504427082657},{"name":"D#4","midi":63,"time":373.988565682299,"velocity":0.7559055118110236,"duration":0.17361104166667474},{"name":"E3","midi":52,"time":374.1665170000074,"velocity":0.7559055118110236,"duration":1.6644958619792192},{"name":"B3","midi":59,"time":374.1665170000074,"velocity":0.7559055118110236,"duration":0.41449636197916107},{"name":"E4","midi":64,"time":374.2706836250074,"velocity":0.7559055118110236,"duration":0.10199648697914654},{"name":"F#4","midi":66,"time":374.3748502500074,"velocity":0.7559055118110236,"duration":0.10199648697914654},{"name":"G#4","midi":68,"time":374.4790168750074,"velocity":0.7559055118110236,"duration":0.10199648697914654},{"name":"A3","midi":57,"time":374.5831835000074,"velocity":0.7559055118110236,"duration":0.41449636197916107},{"name":"A4","midi":69,"time":374.5831835000074,"velocity":0.7559055118110236,"duration":0.10199648697914654},{"name":"B4","midi":71,"time":374.6873501250074,"velocity":0.7559055118110236,"duration":0.10199648697914654},{"name":"C#5","midi":73,"time":374.7915167500074,"velocity":0.7559055118110236,"duration":0.10199648697914654},{"name":"D5","midi":74,"time":374.8956833750074,"velocity":0.7559055118110236,"duration":0.3103297369791562},{"name":"B3","midi":59,"time":374.9998500000074,"velocity":0.7559055118110236,"duration":0.41449636197916107},{"name":"B4","midi":71,"time":375.20818325000744,"velocity":0.7559055118110236,"duration":0.20616311197915138},{"name":"D4","midi":62,"time":375.41651650000745,"velocity":0.7559055118110236,"duration":1.0416662500000484},{"name":"F#4","midi":66,"time":375.41651650000745,"velocity":0.7559055118110236,"duration":0.20616311197915138},{"name":"G#4","midi":68,"time":375.62484975000746,"velocity":0.7559055118110236,"duration":0.20616311197915138},{"name":"A3","midi":57,"time":375.83318300000747,"velocity":0.7559055118110236,"duration":0.41449636197916107},{"name":"A4","midi":69,"time":375.83318300000747,"velocity":0.7559055118110236,"duration":0.998263489583394},{"name":"A2","midi":45,"time":376.2498495000075,"velocity":0.7559055118110236,"duration":2.1701380208334626},{"name":"F#4","midi":66,"time":376.3540161250075,"velocity":0.7559055118110236,"duration":0.10199648697914654},{"name":"E4","midi":64,"time":376.4581827500075,"velocity":0.7559055118110236,"duration":0.10199648697914654},{"name":"D4","midi":62,"time":376.5623493750075,"velocity":0.7559055118110236,"duration":0.10199648697914654},{"name":"C#3","midi":49,"time":376.6665160000075,"velocity":0.7559055118110236,"duration":0.4144963619792179},{"name":"E4","midi":64,"time":376.6665160000075,"velocity":0.7559055118110236,"duration":0.20616311197920822},{"name":"G#4","midi":68,"time":376.87484925000757,"velocity":0.7559055118110236,"duration":0.39062484375000395},{"name":"E3","midi":52,"time":377.0831825000076,"velocity":0.7559055118110236,"duration":0.41449636197916107},{"name":"A4","midi":69,"time":377.2915157500076,"velocity":0.7559055118110236,"duration":1.2478293619791998},{"name":"A3","midi":57,"time":377.4998490000076,"velocity":0.7559055118110236,"duration":1.4539924739583512},{"name":"D4","midi":62,"time":377.4998490000076,"velocity":0.7559055118110236,"duration":0.41449636197916107},{"name":"C#4","midi":61,"time":377.9165155000076,"velocity":0.7559055118110236,"duration":0.8246524479166624},{"name":"E5","midi":76,"time":378.9581817500076,"velocity":0.7559055118110236,"duration":0.20616311197915138},{"name":"A2","midi":45,"time":379.1665150000076,"velocity":0.7559055118110236,"duration":2.4956587239583996},{"name":"C#5","midi":73,"time":379.1665150000076,"velocity":0.7559055118110236,"duration":1.872829111979172},{"name":"A4","midi":69,"time":379.1665150000076,"velocity":0.7559055118110236,"duration":1.872829111979172},{"name":"E5","midi":76,"time":379.1665150000076,"velocity":0.7559055118110236,"duration":1.872829111979172},{"name":"C#3","midi":49,"time":379.9998480000076,"velocity":0.7559055118110236,"duration":0.8311628619791804},{"name":"E3","midi":52,"time":380.83318100000764,"velocity":0.7559055118110236,"duration":0.8311628619792373},{"name":"E5","midi":76,"time":381.04151425000765,"velocity":0.7559055118110236,"duration":0.20616311197915138},{"name":"F#5","midi":78,"time":381.24984750000766,"velocity":0.7559055118110236,"duration":0.20616311197915138},{"name":"G5","midi":79,"time":381.45818075000767,"velocity":0.7559055118110236,"duration":0.20616311197920822},{"name":"A3","midi":57,"time":381.66651400000774,"velocity":0.7559055118110236,"duration":0.8311628619791804},{"name":"F#5","midi":78,"time":381.66651400000774,"velocity":0.7559055118110236,"duration":0.20616311197915138},{"name":"E5","midi":76,"time":381.87484725000775,"velocity":0.7559055118110236,"duration":0.20616311197915138},{"name":"D5","midi":74,"time":382.08318050000776,"velocity":0.7559055118110236,"duration":0.20616311197915138},{"name":"C#5","midi":73,"time":382.29151375000777,"velocity":0.7559055118110236,"duration":0.20616311197915138},{"name":"G3","midi":55,"time":382.4998470000078,"velocity":0.7559055118110236,"duration":2.4956587239583996},{"name":"E5","midi":76,"time":382.4998470000078,"velocity":0.7559055118110236,"duration":1.0394961119791333},{"name":"C#5","midi":73,"time":382.4998470000078,"velocity":0.7559055118110236,"duration":1.0394961119791333},{"name":"A5","midi":81,"time":382.4998470000078,"velocity":0.7559055118110236,"duration":1.0394961119791333},{"name":"C#4","midi":61,"time":383.33318000000776,"velocity":0.7559055118110236,"duration":0.8311628619791804},{"name":"G5","midi":79,"time":383.54151325000777,"velocity":0.7559055118110236,"duration":0.20616311197915138},{"name":"F#5","midi":78,"time":383.7498465000078,"velocity":0.7559055118110236,"duration":0.20616311197915138},{"name":"E5","midi":76,"time":383.9581797500078,"velocity":0.7559055118110236,"duration":0.20616311197915138},{"name":"E4","midi":64,"time":384.1665130000078,"velocity":0.7559055118110236,"duration":2.4956587239584564},{"name":"D5","midi":74,"time":384.1665130000078,"velocity":0.7559055118110236,"duration":0.20616311197915138},{"name":"B4","midi":71,"time":384.3748462500078,"velocity":0.7559055118110236,"duration":0.20616311197915138},{"name":"C#5","midi":73,"time":384.5831795000078,"velocity":0.7559055118110236,"duration":0.20616311197915138},{"name":"E5","midi":76,"time":384.7915127500078,"velocity":0.7559055118110236,"duration":0.3732637395833649},{"name":"G3","midi":55,"time":384.99984600000784,"velocity":0.7559055118110236,"duration":0.8311628619791804},{"name":"D5","midi":74,"time":385.20817925000784,"velocity":0.7559055118110236,"duration":0.20616311197915138},{"name":"C#5","midi":73,"time":385.41651250000785,"velocity":0.7559055118110236,"duration":0.20616311197915138},{"name":"B4","midi":71,"time":385.62484575000786,"velocity":0.7559055118110236,"duration":0.3472220833333495},{"name":"F#3","midi":54,"time":385.8331790000079,"velocity":0.7559055118110236,"duration":0.8311628619792373},{"name":"A4","midi":69,"time":386.0415122500079,"velocity":0.7559055118110236,"duration":0.20616311197915138},{"name":"C#5","midi":73,"time":386.2498455000079,"velocity":0.7559055118110236,"duration":0.20616311197915138},{"name":"D5","midi":74,"time":386.4581787500079,"velocity":0.7559055118110236,"duration":0.3472220833334063},{"name":"D4","midi":62,"time":386.66651200000797,"velocity":0.7559055118110236,"duration":1.6644958619792192},{"name":"B3","midi":59,"time":386.66651200000797,"velocity":0.7559055118110236,"duration":0.8311628619791804},{"name":"C#5","midi":73,"time":386.84880359375796,"velocity":0.7559055118110236,"duration":0.1215277291666439},{"name":"B4","midi":71,"time":386.96599104688295,"velocity":0.7559055118110236,"duration":0.11935759114584243},{"name":"F#5","midi":78,"time":387.08317850000793,"velocity":0.7559055118110236,"duration":0.20616311197920822},{"name":"G5","midi":79,"time":387.291511750008,"velocity":0.7559055118110236,"duration":0.39062484375000395},{"name":"E3","midi":52,"time":387.499845000008,"velocity":0.7559055118110236,"duration":0.8311628619791804},{"name":"E5","midi":76,"time":387.682136593758,"velocity":0.7559055118110236,"duration":0.1085069010416646},{"name":"F#5","midi":78,"time":387.7928136328205,"velocity":0.7559055118110236,"duration":0.1085069010416646},{"name":"G5","midi":79,"time":387.90349067188305,"velocity":0.7559055118110236,"duration":0.1085069010416646},{"name":"A5","midi":81,"time":388.02067812500803,"velocity":0.7559055118110236,"duration":0.1085069010416646},{"name":"B5","midi":83,"time":388.137865578133,"velocity":0.7559055118110236,"duration":0.2604165625000405},{"name":"A3","midi":57,"time":388.33317800000805,"velocity":0.7559055118110236,"duration":0.8311628619791804},{"name":"C#4","midi":61,"time":388.33317800000805,"velocity":0.7559055118110236,"duration":0.8311628619791804},{"name":"A5","midi":81,"time":388.43734462500805,"velocity":0.7559055118110236,"duration":0.10199648697914654},{"name":"G5","midi":79,"time":388.54151125000806,"velocity":0.7559055118110236,"duration":0.10199648697914654},{"name":"F#5","midi":78,"time":388.64567787500806,"velocity":0.7559055118110236,"duration":0.10199648697914654},{"name":"G5","midi":79,"time":388.74984450000807,"velocity":0.7559055118110236,"duration":0.22569435416664874},{"name":"E5","midi":76,"time":389.0059207864664,"velocity":0.7559055118110236,"duration":0.998263489583394},{"name":"D4","midi":62,"time":389.1665110000081,"velocity":0.7559055118110236,"duration":0.41449636197916107},{"name":"C#4","midi":61,"time":389.5831775000081,"velocity":0.7559055118110236,"duration":0.20616311197915138},{"name":"B3","midi":59,"time":389.7915107500081,"velocity":0.7559055118110236,"duration":0.20616311197915138},{"name":"A3","midi":57,"time":389.9998440000081,"velocity":0.7559055118110236,"duration":0.20616311197915138},{"name":"F#5","midi":78,"time":389.9998440000081,"velocity":0.7559055118110236,"duration":0.8246524479167192},{"name":"D4","midi":62,"time":390.20817725000813,"velocity":0.7559055118110236,"duration":0.20616311197915138},{"name":"F#3","midi":54,"time":390.41651050000814,"velocity":0.7559055118110236,"duration":0.20616311197915138},{"name":"A3","midi":57,"time":390.62484375000815,"velocity":0.7559055118110236,"duration":0.20616311197920822},{"name":"D3","midi":50,"time":390.8331770000082,"velocity":0.7559055118110236,"duration":0.41449636197916107},{"name":"F#5","midi":78,"time":391.04151025000823,"velocity":0.7559055118110236,"duration":0.20616311197915138},{"name":"A2","midi":45,"time":391.24984350000824,"velocity":0.7559055118110236,"duration":0.41449636197916107},{"name":"F#5","midi":78,"time":391.24984350000824,"velocity":0.7559055118110236,"duration":0.10199648697914654},{"name":"E5","midi":76,"time":391.35401012500824,"velocity":0.7559055118110236,"duration":0.10199648697914654},{"name":"F#5","midi":78,"time":391.45817675000825,"velocity":0.7559055118110236,"duration":0.20616311197915138},{"name":"D3","midi":50,"time":391.66651000000826,"velocity":0.7559055118110236,"duration":2.4956587239584564},{"name":"A5","midi":81,"time":391.66651000000826,"velocity":0.7559055118110236,"duration":0.20616311197915138},{"name":"B4","midi":71,"time":391.87484325000827,"velocity":0.7559055118110236,"duration":0.20616311197915138},{"name":"F#3","midi":54,"time":392.0831765000083,"velocity":0.7559055118110236,"duration":0.41449636197916107},{"name":"C5","midi":72,"time":392.0831765000083,"velocity":0.7559055118110236,"duration":0.6228296119791707},{"name":"A3","midi":57,"time":392.4998430000083,"velocity":0.7559055118110236,"duration":0.41449636197916107},{"name":"C5","midi":72,"time":392.7081762500083,"velocity":0.7559055118110236,"duration":0.20616311197915138},{"name":"F#3","midi":54,"time":392.9165095000083,"velocity":0.7559055118110236,"duration":0.41449636197916107},{"name":"C5","midi":72,"time":392.9165095000083,"velocity":0.7559055118110236,"duration":0.10199648697914654},{"name":"B4","midi":71,"time":393.0206761250083,"velocity":0.7559055118110236,"duration":0.10199648697914654},{"name":"C5","midi":72,"time":393.1248427500083,"velocity":0.7559055118110236,"duration":0.20616311197915138},{"name":"A3","midi":57,"time":393.33317600000834,"velocity":0.7559055118110236,"duration":0.41449636197916107},{"name":"F#5","midi":78,"time":393.33317600000834,"velocity":0.7559055118110236,"duration":0.20616311197915138},{"name":"G#4","midi":68,"time":393.54150925000835,"velocity":0.7559055118110236,"duration":0.20616311197915138},{"name":"C4","midi":60,"time":393.74984250000836,"velocity":0.7559055118110236,"duration":0.8246524479166624},{"name":"A4","midi":69,"time":393.74984250000836,"velocity":0.7559055118110236,"duration":0.4123262239583596},{"name":"D#3","midi":51,"time":394.1665090000084,"velocity":0.7559055118110236,"duration":1.2478293619791998},{"name":"B4","midi":71,"time":394.36182142188335,"velocity":0.7559055118110236,"duration":0.1085069010416646},{"name":"C#5","midi":73,"time":394.47249846094587,"velocity":0.7559055118110236,"duration":0.1085069010416646},{"name":"F#3","midi":54,"time":394.5831755000084,"velocity":0.7559055118110236,"duration":0.41449636197916107},{"name":"D#5","midi":75,"time":394.5831755000084,"velocity":0.7559055118110236,"duration":0.11501731510418267},{"name":"E5","midi":76,"time":394.70036295313344,"velocity":0.7559055118110236,"duration":0.1215277291666439},{"name":"F#5","midi":78,"time":394.8218906823001,"velocity":0.7559055118110236,"duration":0.3472220833333495},{"name":"B3","midi":59,"time":394.9998420000084,"velocity":0.7559055118110236,"duration":1.2478293619792566},{"name":"D#5","midi":75,"time":395.20383497396676,"velocity":0.7559055118110236,"duration":0.1063367630208063},{"name":"E5","midi":76,"time":395.3123418750084,"velocity":0.7559055118110236,"duration":0.10633676302086315},{"name":"B2","midi":47,"time":395.41650850000843,"velocity":0.7559055118110236,"duration":0.4144963619792179},{"name":"F#5","midi":78,"time":395.42084877605015,"velocity":0.7559055118110236,"duration":0.11067703906252291},{"name":"G5","midi":79,"time":395.53369595313353,"velocity":0.7559055118110236,"duration":0.1215277291666439},{"name":"A5","midi":81,"time":395.6552236823002,"velocity":0.7559055118110236,"duration":0.3472220833333495},{"name":"E3","midi":52,"time":395.8331750000085,"velocity":0.7559055118110236,"duration":2.039929739583499},{"name":"F#5","midi":78,"time":396.0415082500085,"velocity":0.7559055118110236,"duration":0.20616311197915138},{"name":"B3","midi":59,"time":396.24984150000853,"velocity":0.7559055118110236,"duration":0.4144963619792179},{"name":"G5","midi":79,"time":396.24984150000853,"velocity":0.7559055118110236,"duration":0.4123262239583596},{"name":"C#4","midi":61,"time":396.6665080000086,"velocity":0.7559055118110236,"duration":0.41449636197916107},{"name":"F#5","midi":78,"time":396.7706746250086,"velocity":0.7559055118110236,"duration":0.10199648697914654},{"name":"G5","midi":79,"time":396.8748412500086,"velocity":0.7559055118110236,"duration":0.10199648697914654},{"name":"A5","midi":81,"time":396.9790078750086,"velocity":0.7559055118110236,"duration":0.10199648697914654},{"name":"D#4","midi":63,"time":397.0831745000086,"velocity":0.7559055118110236,"duration":0.41449636197916107},{"name":"G5","midi":79,"time":397.0831745000086,"velocity":0.7559055118110236,"duration":0.20616311197915138},{"name":"F#5","midi":78,"time":397.29150775000863,"velocity":0.7559055118110236,"duration":0.20616311197915138},{"name":"E4","midi":64,"time":397.49984100000864,"velocity":0.7559055118110236,"duration":2.0399297395834424},{"name":"G5","midi":79,"time":397.49984100000864,"velocity":0.7559055118110236,"duration":0.11935759114584243},{"name":"F#5","midi":78,"time":397.6170284531336,"velocity":0.7559055118110236,"duration":0.11935759114589928},{"name":"E5","midi":76,"time":397.73421590625867,"velocity":0.7559055118110236,"duration":0.1909721458333138},{"name":"G3","midi":55,"time":397.91650750000866,"velocity":0.7559055118110236,"duration":0.41449636197916107},{"name":"B5","midi":83,"time":397.91650750000866,"velocity":0.7559055118110236,"duration":0.23437490624996826},{"name":"A5","midi":81,"time":398.15088240625863,"velocity":0.7559055118110236,"duration":0.3472220833334063},{"name":"F#3","midi":54,"time":398.3331740000087,"velocity":0.7559055118110236,"duration":0.41449636197916107},{"name":"G5","midi":79,"time":398.5415072500087,"velocity":0.7559055118110236,"duration":0.10199648697914654},{"name":"F#5","midi":78,"time":398.6456738750087,"velocity":0.7559055118110236,"duration":0.10199648697914654},{"name":"A3","midi":57,"time":398.7498405000087,"velocity":0.7559055118110236,"duration":0.41449636197916107},{"name":"E5","midi":76,"time":398.7498405000087,"velocity":0.7559055118110236,"duration":0.20616311197915138},{"name":"D#5","midi":75,"time":398.9581737500087,"velocity":0.7559055118110236,"duration":0.20616311197915138},{"name":"G3","midi":55,"time":399.1665070000087,"velocity":0.7559055118110236,"duration":0.4144963619792179},{"name":"E5","midi":76,"time":399.1665070000087,"velocity":0.7559055118110236,"duration":0.10199648697914654},{"name":"D#5","midi":75,"time":399.2706736250087,"velocity":0.7559055118110236,"duration":0.10199648697914654},{"name":"C#5","midi":73,"time":399.37484025000873,"velocity":0.7559055118110236,"duration":0.10199648697914654},{"name":"B4","midi":71,"time":399.47900687500874,"velocity":0.7559055118110236,"duration":0.10199648697920338},{"name":"B3","midi":59,"time":399.5831735000088,"velocity":0.7559055118110236,"duration":0.41449636197916107},{"name":"A5","midi":81,"time":399.5831735000088,"velocity":0.7559055118110236,"duration":0.22569435416664874},{"name":"G5","midi":79,"time":399.8110379921963,"velocity":0.7559055118110236,"duration":0.3472220833333495},{"name":"C#4","midi":61,"time":399.9998400000088,"velocity":0.7559055118110236,"duration":0.41449636197916107},{"name":"A#3","midi":58,"time":399.9998400000088,"velocity":0.7559055118110236,"duration":0.8246524479167192},{"name":"F#5","midi":78,"time":400.2081732500088,"velocity":0.7559055118110236,"duration":0.10199648697914654},{"name":"E5","midi":76,"time":400.31233987500883,"velocity":0.7559055118110236,"duration":0.10199648697914654},{"name":"F#4","midi":66,"time":400.41650650000884,"velocity":0.7559055118110236,"duration":0.824652447916776},{"name":"D5","midi":74,"time":400.41650650000884,"velocity":0.7559055118110236,"duration":0.20616311197915138},{"name":"C#5","midi":73,"time":400.62483975000885,"velocity":0.7559055118110236,"duration":0.20616311197920822},{"name":"B3","midi":59,"time":400.8331730000089,"velocity":0.7559055118110236,"duration":0.824652447916776},{"name":"D5","midi":74,"time":400.8331730000089,"velocity":0.7559055118110236,"duration":0.1367186953124815},{"name":"C#5","midi":73,"time":400.97206183334225,"velocity":0.7559055118110236,"duration":0.1367186953124815},{"name":"B4","midi":71,"time":401.1109506666756,"velocity":0.7559055118110236,"duration":0.13671869531253833},{"name":"D4","midi":62,"time":401.249839500009,"velocity":0.7559055118110236,"duration":0.4144963619792179},{"name":"G5","midi":79,"time":401.249839500009,"velocity":0.7559055118110236,"duration":0.22569435416664874},{"name":"F#5","midi":78,"time":401.4777039921965,"velocity":0.7559055118110236,"duration":0.2799478046875947},{"name":"B3","midi":59,"time":401.66650600000906,"velocity":0.7559055118110236,"duration":0.41449636197916107},{"name":"G3","midi":55,"time":401.66650600000906,"velocity":0.7559055118110236,"duration":0.8246524479167192},{"name":"E5","midi":76,"time":401.77067262500907,"velocity":0.7559055118110236,"duration":0.10199648697914654},{"name":"D5","midi":74,"time":401.8748392500091,"velocity":0.7559055118110236,"duration":0.10199648697914654},{"name":"C#5","midi":73,"time":401.9790058750091,"velocity":0.7559055118110236,"duration":0.10199648697914654},{"name":"E4","midi":64,"time":402.0831725000091,"velocity":0.7559055118110236,"duration":0.8246524479167192},{"name":"D5","midi":74,"time":402.0831725000091,"velocity":0.7559055118110236,"duration":0.20616311197915138},{"name":"E5","midi":76,"time":402.2915057500091,"velocity":0.7559055118110236,"duration":0.20616311197920822},{"name":"F#3","midi":54,"time":402.49983900000916,"velocity":0.7559055118110236,"duration":4.991317447916913},{"name":"B4","midi":71,"time":402.49983900000916,"velocity":0.7559055118110236,"duration":0.41449636197916107},{"name":"A#4","midi":70,"time":402.9078249479258,"velocity":0.7559055118110236,"duration":0.8246524479167192},{"name":"C#4","midi":61,"time":402.91216522396746,"velocity":0.7559055118110236,"duration":0.4144963619792179},{"name":"A#3","midi":58,"time":403.3331720000092,"velocity":0.7559055118110236,"duration":0.41449636197916107},{"name":"C#4","midi":61,"time":403.7498385000092,"velocity":0.7559055118110236,"duration":0.41449636197916107},{"name":"F5","midi":77,"time":403.8540051250092,"velocity":0.7559055118110236,"duration":0.10199648697914654},{"name":"F#5","midi":78,"time":403.9581717500092,"velocity":0.7559055118110236,"duration":0.10199648697914654},{"name":"G#5","midi":80,"time":404.06233837500923,"velocity":0.7559055118110236,"duration":0.10199648697914654},{"name":"D4","midi":62,"time":404.16650500000924,"velocity":0.7559055118110236,"duration":0.41449636197916107},{"name":"F#5","midi":78,"time":404.16650500000924,"velocity":0.7559055118110236,"duration":0.20616311197915138},{"name":"F5","midi":77,"time":404.37483825000925,"velocity":0.7559055118110236,"duration":0.20616311197915138},{"name":"C#4","midi":61,"time":404.58317150000926,"velocity":0.7559055118110236,"duration":0.41449636197916107},{"name":"F5","midi":77,"time":404.58317150000926,"velocity":0.7559055118110236,"duration":0.20616311197915138},{"name":"F#5","midi":78,"time":404.79150475000927,"velocity":0.7559055118110236,"duration":0.20616311197915138},{"name":"B3","midi":59,"time":404.9998380000093,"velocity":0.7559055118110236,"duration":0.41449636197916107},{"name":"F#5","midi":78,"time":404.9998380000093,"velocity":0.7559055118110236,"duration":0.20616311197915138},{"name":"A#5","midi":82,"time":405.2081712500093,"velocity":0.7559055118110236,"duration":0.20616311197915138},{"name":"G#3","midi":56,"time":405.4165045000093,"velocity":0.7559055118110236,"duration":0.41449636197916107},{"name":"A#5","midi":82,"time":405.4165045000093,"velocity":0.7559055118110236,"duration":0.20616311197915138},{"name":"B5","midi":83,"time":405.6248377500093,"velocity":0.7559055118110236,"duration":0.20616311197915138},{"name":"A#3","midi":58,"time":405.8331710000093,"velocity":0.7559055118110236,"duration":0.41449636197916107},{"name":"F#5","midi":78,"time":405.8331710000093,"velocity":0.7559055118110236,"duration":0.10199648697914654},{"name":"G5","midi":79,"time":405.9373376250093,"velocity":0.7559055118110236,"duration":0.10199648697914654},{"name":"A5","midi":81,"time":406.0415042500093,"velocity":0.7559055118110236,"duration":0.10199648697914654},{"name":"G5","midi":79,"time":406.14567087500933,"velocity":0.7559055118110236,"duration":0.10199648697914654},{"name":"C#4","midi":61,"time":406.24983750000933,"velocity":0.7559055118110236,"duration":0.41449636197916107},{"name":"F#5","midi":78,"time":406.24983750000933,"velocity":0.7559055118110236,"duration":0.10199648697914654},{"name":"G5","midi":79,"time":406.35400412500934,"velocity":0.7559055118110236,"duration":0.10199648697914654},{"name":"F#5","midi":78,"time":406.45817075000934,"velocity":0.7559055118110236,"duration":0.10199648697914654},{"name":"E5","midi":76,"time":406.56233737500935,"velocity":0.7559055118110236,"duration":0.5208331250000242},{"name":"G#3","midi":56,"time":406.66650400000935,"velocity":0.7559055118110236,"duration":0.41449636197916107},{"name":"B3","midi":59,"time":407.0831705000094,"velocity":0.7559055118110236,"duration":0.4144963619792179},{"name":"D#5","midi":75,"time":407.1873371250094,"velocity":0.7559055118110236,"duration":0.10199648697914654},{"name":"E5","midi":76,"time":407.2915037500094,"velocity":0.7559055118110236,"duration":0.10199648697914654},{"name":"F#5","midi":78,"time":407.3956703750094,"velocity":0.7559055118110236,"duration":0.10199648697920338},{"name":"A#3","midi":58,"time":407.49983700000945,"velocity":0.7559055118110236,"duration":0.41449636197916107},{"name":"E5","midi":76,"time":407.49983700000945,"velocity":0.7559055118110236,"duration":0.20616311197915138},{"name":"D#5","midi":75,"time":407.70817025000946,"velocity":0.7559055118110236,"duration":0.20616311197915138},{"name":"C#4","midi":61,"time":407.91650350000947,"velocity":0.7559055118110236,"duration":1.664495861979276},{"name":"D#5","midi":75,"time":407.91650350000947,"velocity":0.7559055118110236,"duration":0.20616311197915138},{"name":"E5","midi":76,"time":408.1248367500095,"velocity":0.7559055118110236,"duration":0.20616311197915138},{"name":"A#3","midi":58,"time":408.3331700000095,"velocity":0.7559055118110236,"duration":0.8246524479167192},{"name":"E5","midi":76,"time":408.3331700000095,"velocity":0.7559055118110236,"duration":0.20616311197915138},{"name":"A#5","midi":82,"time":408.5415032500095,"velocity":0.7559055118110236,"duration":0.20616311197915138},{"name":"F#3","midi":54,"time":408.7498365000095,"velocity":0.7559055118110236,"duration":0.4144963619792179},{"name":"A#5","midi":82,"time":408.7498365000095,"velocity":0.7559055118110236,"duration":0.20616311197915138},{"name":"B5","midi":83,"time":408.9581697500095,"velocity":0.7559055118110236,"duration":0.20616311197920822},{"name":"G3","midi":55,"time":409.1665030000096,"velocity":0.7559055118110236,"duration":2.0399297395834424},{"name":"E5","midi":76,"time":409.1665030000096,"velocity":0.7559055118110236,"duration":0.10199648697914654},{"name":"F#5","midi":78,"time":409.2706696250096,"velocity":0.7559055118110236,"duration":0.10199648697914654},{"name":"G5","midi":79,"time":409.3748362500096,"velocity":0.7559055118110236,"duration":0.10199648697914654},{"name":"F#5","midi":78,"time":409.4790028750096,"velocity":0.7559055118110236,"duration":0.10199648697914654},{"name":"A#3","midi":58,"time":409.5831695000096,"velocity":0.7559055118110236,"duration":0.41449636197916107},{"name":"E5","midi":76,"time":409.5831695000096,"velocity":0.7559055118110236,"duration":0.10199648697914654},{"name":"F#5","midi":78,"time":409.6873361250096,"velocity":0.7559055118110236,"duration":0.10199648697914654},{"name":"E5","midi":76,"time":409.7915027500096,"velocity":0.7559055118110236,"duration":0.10199648697914654},{"name":"D5","midi":74,"time":409.8956693750096,"velocity":0.7559055118110236,"duration":0.5208331250000242},{"name":"B3","midi":59,"time":409.9998360000096,"velocity":0.7559055118110236,"duration":0.41449636197916107},{"name":"D4","midi":62,"time":410.41650250000964,"velocity":0.7559055118110236,"duration":0.41449636197916107},{"name":"C#5","midi":73,"time":410.52066912500965,"velocity":0.7559055118110236,"duration":0.10199648697914654},{"name":"D5","midi":74,"time":410.62483575000965,"velocity":0.7559055118110236,"duration":0.10199648697914654},{"name":"E5","midi":76,"time":410.72900237500966,"velocity":0.7559055118110236,"duration":0.10199648697914654},{"name":"B3","midi":59,"time":410.83316900000966,"velocity":0.7559055118110236,"duration":1.664495861979276},{"name":"D5","midi":74,"time":410.83316900000966,"velocity":0.7559055118110236,"duration":0.20616311197915138},{"name":"C#5","midi":73,"time":411.04150225000967,"velocity":0.7559055118110236,"duration":0.20616311197920822},{"name":"G3","midi":55,"time":411.24983550000974,"velocity":0.7559055118110236,"duration":0.41449636197916107},{"name":"C#5","midi":73,"time":411.24983550000974,"velocity":0.7559055118110236,"duration":0.20616311197915138},{"name":"D5","midi":74,"time":411.45816875000975,"velocity":0.7559055118110236,"duration":0.20616311197915138},{"name":"F#3","midi":54,"time":411.66650200000976,"velocity":0.7559055118110236,"duration":0.41449636197916107},{"name":"D5","midi":74,"time":411.66650200000976,"velocity":0.7559055118110236,"duration":0.20616311197915138},{"name":"G#5","midi":80,"time":411.87483525000977,"velocity":0.7559055118110236,"duration":0.10199648697914654},{"name":"A#5","midi":82,"time":411.97900187500977,"velocity":0.7559055118110236,"duration":0.10199648697914654},{"name":"F3","midi":53,"time":412.0831685000098,"velocity":0.7559055118110236,"duration":0.41449636197916107},{"name":"B5","midi":83,"time":412.0831685000098,"velocity":0.7559055118110236,"duration":0.20616311197915138},{"name":"D5","midi":74,"time":412.2915017500098,"velocity":0.7559055118110236,"duration":0.34505194531249117},{"name":"F#3","midi":54,"time":412.4998350000098,"velocity":0.7559055118110236,"duration":0.41449636197916107},{"name":"A#3","midi":58,"time":412.4998350000098,"velocity":0.7559055118110236,"duration":0.41449636197916107},{"name":"C#5","midi":73,"time":412.63872383334314,"velocity":0.7559055118110236,"duration":0.1367186953124815},{"name":"B4","midi":71,"time":412.7776126666765,"velocity":0.7559055118110236,"duration":0.1367186953124815},{"name":"G3","midi":55,"time":412.9165015000098,"velocity":0.7559055118110236,"duration":0.41449636197916107},{"name":"C#5","midi":73,"time":412.9165015000098,"velocity":0.7559055118110236,"duration":0.1367186953124815},{"name":"B4","midi":71,"time":413.05539033334315,"velocity":0.7559055118110236,"duration":0.1367186953124815},{"name":"A#4","midi":70,"time":413.1942791666765,"velocity":0.7559055118110236,"duration":0.1367186953124815},{"name":"F#3","midi":54,"time":413.33316800000983,"velocity":0.7559055118110236,"duration":0.41449636197916107},{"name":"A#4","midi":70,"time":413.33316800000983,"velocity":0.7559055118110236,"duration":0.23654504427082657},{"name":"G5","midi":79,"time":413.5718831823015,"velocity":0.7559055118110236,"duration":0.624999750000029},{"name":"E3","midi":52,"time":413.74983450000985,"velocity":0.7559055118110236,"duration":0.41449636197916107},{"name":"A#3","midi":58,"time":413.74983450000985,"velocity":0.7559055118110236,"duration":0.41449636197916107},{"name":"B3","midi":59,"time":414.1665010000099,"velocity":0.7559055118110236,"duration":0.41449636197916107},{"name":"D#3","midi":51,"time":414.1665010000099,"velocity":0.7559055118110236,"duration":0.41449636197916107},{"name":"F#5","midi":78,"time":414.3053898333432,"velocity":0.7559055118110236,"duration":0.1367186953124815},{"name":"E5","midi":76,"time":414.44427866667655,"velocity":0.7559055118110236,"duration":0.1367186953124815},{"name":"C4","midi":60,"time":414.5831675000099,"velocity":0.7559055118110236,"duration":0.41449636197916107},{"name":"F#5","midi":78,"time":414.5831675000099,"velocity":0.7559055118110236,"duration":0.1367186953124815},{"name":"E5","midi":76,"time":414.72205633334323,"velocity":0.7559055118110236,"duration":0.1367186953124815},{"name":"D#5","midi":75,"time":414.8609451666766,"velocity":0.7559055118110236,"duration":0.1367186953124815},{"name":"B3","midi":59,"time":414.9998340000099,"velocity":0.7559055118110236,"duration":0.41449636197916107},{"name":"D#5","midi":75,"time":414.9998340000099,"velocity":0.7559055118110236,"duration":0.23654504427082657},{"name":"C6","midi":84,"time":415.2385491823016,"velocity":0.7559055118110236,"duration":0.624999750000029},{"name":"A3","midi":57,"time":415.41650050000993,"velocity":0.7559055118110236,"duration":0.41449636197916107},{"name":"D#4","midi":63,"time":415.41650050000993,"velocity":0.7559055118110236,"duration":0.41449636197916107},{"name":"G3","midi":55,"time":415.83316700000995,"velocity":0.7559055118110236,"duration":0.41449636197916107},{"name":"E4","midi":64,"time":415.83316700000995,"velocity":0.7559055118110236,"duration":0.41449636197916107},{"name":"A5","midi":81,"time":415.93733362500996,"velocity":0.7559055118110236,"duration":0.10199648697914654},{"name":"B5","midi":83,"time":416.04150025000996,"velocity":0.7559055118110236,"duration":0.10199648697914654},{"name":"C6","midi":84,"time":416.14566687500997,"velocity":0.7559055118110236,"duration":0.10199648697914654},{"name":"A3","midi":57,"time":416.24983350000997,"velocity":0.7559055118110236,"duration":0.41449636197916107},{"name":"B5","midi":83,"time":416.24983350000997,"velocity":0.7559055118110236,"duration":0.47526022656251143},{"name":"G3","midi":55,"time":416.66650000001,"velocity":0.7559055118110236,"duration":0.4144963619792179},{"name":"A5","midi":81,"time":416.7619860729267,"velocity":0.7559055118110236,"duration":0.15407979947917738},{"name":"G5","midi":79,"time":416.92257628646837,"velocity":0.7559055118110236,"duration":0.15842007552083714},{"name":"F#3","midi":54,"time":417.08316650001007,"velocity":0.7559055118110236,"duration":0.41449636197916107},{"name":"D#4","midi":63,"time":417.08316650001007,"velocity":0.7559055118110236,"duration":0.41449636197916107},{"name":"A5","midi":81,"time":417.08316650001007,"velocity":0.7559055118110236,"duration":0.1367186953124815},{"name":"G5","midi":79,"time":417.2220553333434,"velocity":0.7559055118110236,"duration":0.1367186953124815},{"name":"F#5","midi":78,"time":417.36094416667675,"velocity":0.7559055118110236,"duration":0.1367186953124815},{"name":"E3","midi":52,"time":417.4998330000101,"velocity":0.7559055118110236,"duration":0.4123262239583596},{"name":"E4","midi":64,"time":417.4998330000101,"velocity":0.7559055118110236,"duration":0.4123262239583596},{"name":"G5","midi":79,"time":417.4998330000101,"velocity":0.7559055118110236,"duration":0.10199648697914654},{"name":"F#5","midi":78,"time":417.6039996250101,"velocity":0.7559055118110236,"duration":0.10199648697914654},{"name":"E5","midi":76,"time":417.7081662500101,"velocity":0.7559055118110236,"duration":0.10199648697914654},{"name":"D#5","midi":75,"time":417.8123328750101,"velocity":0.7559055118110236,"duration":0.10199648697920338},{"name":"G2","midi":43,"time":417.91649950001016,"velocity":0.7559055118110236,"duration":0.41449636197916107},{"name":"E5","midi":76,"time":417.91649950001016,"velocity":0.7559055118110236,"duration":0.47743036458336974},{"name":"A2","midi":45,"time":418.3331660000102,"velocity":0.7559055118110236,"duration":0.41449636197916107},{"name":"D5","midi":74,"time":418.4720548333435,"velocity":0.7559055118110236,"duration":0.1367186953124815},{"name":"C5","midi":72,"time":418.61094366667686,"velocity":0.7559055118110236,"duration":0.1367186953124815},{"name":"B2","midi":47,"time":418.7498325000102,"velocity":0.7559055118110236,"duration":0.41449636197916107},{"name":"D5","midi":74,"time":418.7498325000102,"velocity":0.7559055118110236,"duration":0.1367186953124815},{"name":"C5","midi":72,"time":418.88872133334354,"velocity":0.7559055118110236,"duration":0.1367186953124815},{"name":"B4","midi":71,"time":419.0276101666769,"velocity":0.7559055118110236,"duration":0.1367186953124815},{"name":"E2","midi":40,"time":419.1664990000102,"velocity":0.7559055118110236,"duration":0.41449636197916107},{"name":"C5","midi":72,"time":419.1664990000102,"velocity":0.7559055118110236,"duration":0.20616311197915138},{"name":"G4","midi":67,"time":419.37483225001023,"velocity":0.7559055118110236,"duration":0.3472220833333495},{"name":"E3","midi":52,"time":419.58316550001024,"velocity":0.7559055118110236,"duration":0.41449636197916107},{"name":"A4","midi":69,"time":419.79149875001025,"velocity":0.7559055118110236,"duration":0.10199648697914654},{"name":"B4","midi":71,"time":419.89566537501025,"velocity":0.7559055118110236,"duration":0.10199648697914654},{"name":"C3","midi":48,"time":419.99983200001026,"velocity":0.7559055118110236,"duration":0.41449636197916107},{"name":"C5","midi":72,"time":419.99983200001026,"velocity":0.7559055118110236,"duration":0.1367186953124815},{"name":"D5","midi":74,"time":420.1387208333436,"velocity":0.7559055118110236,"duration":0.1367186953124815},{"name":"E5","midi":76,"time":420.27760966667694,"velocity":0.7559055118110236,"duration":0.1367186953124815},{"name":"G2","midi":43,"time":420.4164985000103,"velocity":0.7559055118110236,"duration":0.41449636197916107},{"name":"F5","midi":77,"time":420.4164985000103,"velocity":0.7559055118110236,"duration":0.1367186953124815},{"name":"E5","midi":76,"time":420.5553873333436,"velocity":0.7559055118110236,"duration":0.1367186953124815},{"name":"D5","midi":74,"time":420.69427616667696,"velocity":0.7559055118110236,"duration":0.1367186953124815},{"name":"E2","midi":40,"time":420.8331650000103,"velocity":0.7559055118110236,"duration":0.41449636197916107},{"name":"C5","midi":72,"time":420.8331650000103,"velocity":0.7559055118110236,"duration":0.20616311197915138},{"name":"G4","midi":67,"time":421.0414982500103,"velocity":0.7559055118110236,"duration":0.3472220833333495},{"name":"E3","midi":52,"time":421.2498315000103,"velocity":0.7559055118110236,"duration":0.41449636197916107},{"name":"A4","midi":69,"time":421.4581647500103,"velocity":0.7559055118110236,"duration":0.10199648697914654},{"name":"B4","midi":71,"time":421.56233137501033,"velocity":0.7559055118110236,"duration":0.10199648697914654},{"name":"C3","midi":48,"time":421.66649800001034,"velocity":0.7559055118110236,"duration":0.41449636197916107},{"name":"C5","midi":72,"time":421.66649800001034,"velocity":0.7559055118110236,"duration":0.1367186953124815},{"name":"D5","midi":74,"time":421.8053868333437,"velocity":0.7559055118110236,"duration":0.1367186953124815},{"name":"E5","midi":76,"time":421.944275666677,"velocity":0.7559055118110236,"duration":0.1367186953124815},{"name":"G2","midi":43,"time":422.08316450001035,"velocity":0.7559055118110236,"duration":0.41449636197916107},{"name":"F5","midi":77,"time":422.08316450001035,"velocity":0.7559055118110236,"duration":0.1367186953124815},{"name":"E5","midi":76,"time":422.2220533333437,"velocity":0.7559055118110236,"duration":0.1367186953124815},{"name":"D5","midi":74,"time":422.36094216667703,"velocity":0.7559055118110236,"duration":0.1367186953124815},{"name":"E2","midi":40,"time":422.4998310000104,"velocity":0.7559055118110236,"duration":0.41449636197916107},{"name":"C#5","midi":73,"time":422.4998310000104,"velocity":0.7559055118110236,"duration":0.20616311197915138},{"name":"A#4","midi":70,"time":422.7081642500104,"velocity":0.7559055118110236,"duration":0.28211794270833934},{"name":"E3","midi":52,"time":422.9164975000104,"velocity":0.7559055118110236,"duration":0.41449636197916107},{"name":"F#5","midi":78,"time":423.1248307500104,"velocity":0.7559055118110236,"duration":0.10199648697914654},{"name":"E5","midi":76,"time":423.2289973750104,"velocity":0.7559055118110236,"duration":0.10199648697914654},{"name":"D3","midi":50,"time":423.3331640000104,"velocity":0.7559055118110236,"duration":0.41449636197916107},{"name":"F#5","midi":78,"time":423.3331640000104,"velocity":0.7559055118110236,"duration":0.23654504427082657},{"name":"B5","midi":83,"time":423.5718791823021,"velocity":0.7559055118110236,"duration":0.21050338802081114},{"name":"G3","midi":55,"time":423.74983050001043,"velocity":0.7559055118110236,"duration":0.41449636197916107},{"name":"F#5","midi":78,"time":423.85399712501044,"velocity":0.7559055118110236,"duration":0.10199648697914654},{"name":"E5","midi":76,"time":423.95816375001044,"velocity":0.7559055118110236,"duration":0.10199648697914654},{"name":"D5","midi":74,"time":424.06233037501045,"velocity":0.7559055118110236,"duration":0.10199648697914654},{"name":"C#3","midi":49,"time":424.16649700001045,"velocity":0.7559055118110236,"duration":0.41449636197916107},{"name":"E5","midi":76,"time":424.16649700001045,"velocity":0.7559055118110236,"duration":0.20616311197915138},{"name":"C#5","midi":73,"time":424.37483025001046,"velocity":0.7559055118110236,"duration":0.3993053958333235},{"name":"B2","midi":47,"time":424.58316350001047,"velocity":0.7559055118110236,"duration":0.4144963619791042},{"name":"E5","midi":76,"time":424.7914967500104,"velocity":0.7559055118110236,"duration":0.10199648697914654},{"name":"D#5","midi":75,"time":424.89566337501043,"velocity":0.7559055118110236,"duration":0.10199648697914654},{"name":"C#3","midi":49,"time":424.99983000001043,"velocity":0.7559055118110236,"duration":0.41449636197916107},{"name":"E5","midi":76,"time":424.99983000001043,"velocity":0.7559055118110236,"duration":0.23654504427082657},{"name":"A#5","midi":82,"time":425.2385451823021,"velocity":0.7559055118110236,"duration":0.21050338802081114},{"name":"F#3","midi":54,"time":425.41649650001045,"velocity":0.7559055118110236,"duration":0.41449636197916107},{"name":"E5","midi":76,"time":425.52066312501046,"velocity":0.7559055118110236,"duration":0.10199648697914654},{"name":"D5","midi":74,"time":425.62482975001046,"velocity":0.7559055118110236,"duration":0.10199648697914654},{"name":"C#5","midi":73,"time":425.72899637501047,"velocity":0.7559055118110236,"duration":0.10199648697914654},{"name":"B2","midi":47,"time":425.8331630000105,"velocity":0.7559055118110236,"duration":0.41449636197916107},{"name":"D5","midi":74,"time":425.8331630000105,"velocity":0.7559055118110236,"duration":0.20616311197915138},{"name":"B4","midi":71,"time":426.0414962500105,"velocity":0.7559055118110236,"duration":0.3884547057292025},{"name":"D3","midi":50,"time":426.2498295000105,"velocity":0.7559055118110236,"duration":0.41449636197916107},{"name":"B5","midi":83,"time":426.4581627500105,"velocity":0.7559055118110236,"duration":0.10199648697914654},{"name":"A5","midi":81,"time":426.5623293750105,"velocity":0.7559055118110236,"duration":0.10199648697914654},{"name":"E3","midi":52,"time":426.6664960000105,"velocity":0.7559055118110236,"duration":0.41449636197916107},{"name":"G5","midi":79,"time":426.6664960000105,"velocity":0.7559055118110236,"duration":0.20616311197915138},{"name":"G5","midi":79,"time":426.8748292500105,"velocity":0.7559055118110236,"duration":0.10199648697914654},{"name":"F#5","midi":78,"time":426.9789958750105,"velocity":0.7559055118110236,"duration":0.10199648697914654},{"name":"F#3","midi":54,"time":427.08316250001053,"velocity":0.7559055118110236,"duration":0.41449636197916107},{"name":"E5","midi":76,"time":427.08316250001053,"velocity":0.7559055118110236,"duration":0.20616311197915138},{"name":"E5","midi":76,"time":427.29149575001054,"velocity":0.7559055118110236,"duration":0.10199648697914654},{"name":"D5","midi":74,"time":427.39566237501055,"velocity":0.7559055118110236,"duration":0.10199648697914654},{"name":"G3","midi":55,"time":427.49982900001055,"velocity":0.7559055118110236,"duration":0.41449636197927475},{"name":"C#5","midi":73,"time":427.49982900001055,"velocity":0.7559055118110236,"duration":0.11501731510418267},{"name":"G5","midi":79,"time":427.6170164531356,"velocity":0.7559055118110236,"duration":0.11501731510418267},{"name":"F#5","midi":78,"time":427.73420390626063,"velocity":0.7559055118110236,"duration":0.11501731510418267},{"name":"E5","midi":76,"time":427.8513913593857,"velocity":0.7559055118110236,"duration":0.13237841927082172},{"name":"E3","midi":52,"time":427.9164955000107,"velocity":0.7559055118110236,"duration":0.41449636197916107},{"name":"F#5","midi":78,"time":427.98593991667735,"velocity":0.7559055118110236,"duration":0.17144090364581643},{"name":"B4","midi":71,"time":428.159550958344,"velocity":0.7559055118110236,"duration":0.17144090364581643},{"name":"F#3","midi":54,"time":428.3331620000107,"velocity":0.7559055118110236,"duration":0.41449636197916107},{"name":"D5","midi":74,"time":428.3331620000107,"velocity":0.7559055118110236,"duration":0.41449636197916107},{"name":"F#2","midi":42,"time":428.7498285000107,"velocity":0.7559055118110236,"duration":0.41449636197916107},{"name":"D5","midi":74,"time":428.7498285000107,"velocity":0.7559055118110236,"duration":0.10199648697914654},{"name":"C#5","midi":73,"time":428.8539951250107,"velocity":0.7559055118110236,"duration":0.10199648697914654},{"name":"B4","midi":71,"time":428.95816175001073,"velocity":0.7559055118110236,"duration":0.10199648697914654},{"name":"C#5","midi":73,"time":429.06232837501074,"velocity":0.7559055118110236,"duration":0.10199648697914654},{"name":"B2","midi":47,"time":429.16649500001074,"velocity":0.7559055118110236,"duration":1.664495861979276},{"name":"B4","midi":71,"time":429.16649500001074,"velocity":0.7559055118110236,"duration":0.20616311197915138},{"name":"E4","midi":64,"time":429.37482825001075,"velocity":0.7559055118110236,"duration":0.20616311197915138},{"name":"F#4","midi":66,"time":429.58316150001076,"velocity":0.7559055118110236,"duration":0.8246524479167192},{"name":"C#4","midi":61,"time":429.79149475001077,"velocity":0.7559055118110236,"duration":0.20616311197915138},{"name":"D4","midi":62,"time":429.9998280000108,"velocity":0.7559055118110236,"duration":1.8728291119792857},{"name":"A#3","midi":58,"time":430.2081612500108,"velocity":0.7559055118110236,"duration":0.20616311197920822},{"name":"B3","midi":59,"time":430.41649450001086,"velocity":0.7559055118110236,"duration":0.20616311197915138},{"name":"F#3","midi":54,"time":430.62482775001087,"velocity":0.7559055118110236,"duration":0.20616311197915138},{"name":"D3","midi":50,"time":430.8331610000109,"velocity":0.7559055118110236,"duration":0.20616311197915138},{"name":"B2","midi":47,"time":431.0414942500109,"velocity":0.7559055118110236,"duration":0.20616311197915138},{"name":"D3","midi":50,"time":431.2498275000109,"velocity":0.7559055118110236,"duration":0.20616311197915138},{"name":"F#3","midi":54,"time":431.4581607500109,"velocity":0.7559055118110236,"duration":0.20616311197915138},{"name":"B3","midi":59,"time":431.6664940000109,"velocity":0.7559055118110236,"duration":0.8246524479167192},{"name":"D4","midi":62,"time":431.8748272500109,"velocity":0.7559055118110236,"duration":0.20616311197915138},{"name":"F#4","midi":66,"time":432.08316050001093,"velocity":0.7559055118110236,"duration":0.20616311197915138},{"name":"G4","midi":67,"time":432.29149375001094,"velocity":0.7559055118110236,"duration":0.20616311197920822},{"name":"A4","midi":69,"time":432.499827000011,"velocity":0.7559055118110236,"duration":1.2478293619791998},{"name":"F#2","midi":42,"time":432.708160250011,"velocity":0.7559055118110236,"duration":0.20616311197915138},{"name":"A2","midi":45,"time":432.91649350001103,"velocity":0.7559055118110236,"duration":0.20616311197915138},{"name":"D3","midi":50,"time":433.12482675001104,"velocity":0.7559055118110236,"duration":0.20616311197915138},{"name":"F#3","midi":54,"time":433.33316000001105,"velocity":0.7559055118110236,"duration":0.20616311197915138},{"name":"A3","midi":57,"time":433.54149325001106,"velocity":0.7559055118110236,"duration":0.20616311197915138},{"name":"D4","midi":62,"time":433.74982650001107,"velocity":0.7559055118110236,"duration":0.20616311197915138},{"name":"F#4","midi":66,"time":433.9581597500111,"velocity":0.7559055118110236,"duration":0.20616311197915138},{"name":"A4","midi":69,"time":434.1664930000111,"velocity":0.7559055118110236,"duration":0.20616311197915138},{"name":"F#4","midi":66,"time":434.3748262500111,"velocity":0.7559055118110236,"duration":0.20616311197915138},{"name":"D4","midi":62,"time":434.5831595000111,"velocity":0.7559055118110236,"duration":0.20616311197915138},{"name":"E4","midi":64,"time":434.7914927500111,"velocity":0.7559055118110236,"duration":0.20616311197915138},{"name":"D2","midi":38,"time":434.9998260000111,"velocity":0.7559055118110236,"duration":0.8311628619791804},{"name":"F#4","midi":66,"time":434.9998260000111,"velocity":0.7559055118110236,"duration":0.20616311197915138},{"name":"G4","midi":67,"time":435.20815925001114,"velocity":0.7559055118110236,"duration":0.20616311197915138},{"name":"A4","midi":69,"time":435.41649250001115,"velocity":0.7559055118110236,"duration":0.20616311197915138},{"name":"B4","midi":71,"time":435.62482575001115,"velocity":0.7559055118110236,"duration":0.20616311197915138},{"name":"G2","midi":43,"time":435.83315900001116,"velocity":0.7559055118110236,"duration":2.4956587239585133},{"name":"C5","midi":72,"time":435.83315900001116,"velocity":0.7559055118110236,"duration":0.1085069010416646},{"name":"B4","midi":71,"time":435.9438360390737,"velocity":0.7559055118110236,"duration":0.1085069010416646},{"name":"A4","midi":69,"time":436.0545130781362,"velocity":0.7559055118110236,"duration":0.1931422838541721},{"name":"B4","midi":71,"time":436.24982550001124,"velocity":0.7559055118110236,"duration":0.20616311197915138},{"name":"F#4","midi":66,"time":436.45815875001125,"velocity":0.7559055118110236,"duration":0.20616311197915138},{"name":"G4","midi":67,"time":436.66649200001126,"velocity":0.7559055118110236,"duration":0.6076386458333332},{"name":"D4","midi":62,"time":436.87482525001127,"velocity":0.7559055118110236,"duration":0.8311628619791804},{"name":"B3","midi":59,"time":437.0831585000113,"velocity":0.7559055118110236,"duration":0.20616311197915138},{"name":"D3","midi":50,"time":437.2914917500113,"velocity":0.7559055118110236,"duration":0.20616311197915138},{"name":"G3","midi":55,"time":437.4998250000113,"velocity":0.7559055118110236,"duration":2.0399297395834424},{"name":"A4","midi":69,"time":437.7081582500113,"velocity":0.7559055118110236,"duration":0.20616311197915138},{"name":"B4","midi":71,"time":437.9164915000113,"velocity":0.7559055118110236,"duration":0.20616311197915138},{"name":"C5","midi":72,"time":438.1248247500113,"velocity":0.7559055118110236,"duration":0.20616311197920822},{"name":"G2","midi":43,"time":438.3331580000114,"velocity":0.7559055118110236,"duration":0.8311628619791804},{"name":"B4","midi":71,"time":438.3331580000114,"velocity":0.7559055118110236,"duration":0.20616311197915138},{"name":"A4","midi":69,"time":438.5414912500114,"velocity":0.7559055118110236,"duration":0.20616311197915138},{"name":"B4","midi":71,"time":438.7498245000114,"velocity":0.7559055118110236,"duration":0.20616311197915138},{"name":"D#5","midi":75,"time":438.9581577500114,"velocity":0.7559055118110236,"duration":0.3689234635416483},{"name":"C3","midi":48,"time":439.16649100001143,"velocity":0.7559055118110236,"duration":0.8246524479167192},{"name":"E5","midi":76,"time":439.3748242500114,"velocity":0.7559055118110236,"duration":0.20616311197920822},{"name":"A3","midi":57,"time":439.58315750001145,"velocity":0.7559055118110236,"duration":0.8246524479167192},{"name":"A4","midi":69,"time":439.58315750001145,"velocity":0.7559055118110236,"duration":0.20616311197915138},{"name":"D#5","midi":75,"time":439.79149075001146,"velocity":0.7559055118110236,"duration":0.39062484375000395},{"name":"B2","midi":47,"time":439.9998240000115,"velocity":0.7559055118110236,"duration":0.824652447916776},{"name":"E5","midi":76,"time":440.2081572500115,"velocity":0.7559055118110236,"duration":0.20616311197920822},{"name":"B3","midi":59,"time":440.41649050001155,"velocity":0.7559055118110236,"duration":0.8246524479167192},{"name":"G4","midi":67,"time":440.41649050001155,"velocity":0.7559055118110236,"duration":0.20616311197915138},{"name":"D#5","midi":75,"time":440.62482375001156,"velocity":0.7559055118110236,"duration":0.39062484375000395},{"name":"A2","midi":45,"time":440.83315700001157,"velocity":0.7559055118110236,"duration":0.824652447916776},{"name":"E5","midi":76,"time":441.0414902500116,"velocity":0.7559055118110236,"duration":0.20616311197920822},{"name":"C4","midi":60,"time":441.24982350001164,"velocity":0.7559055118110236,"duration":0.8246524479167192},{"name":"F#4","midi":66,"time":441.24982350001164,"velocity":0.7559055118110236,"duration":0.20616311197915138},{"name":"E5","midi":76,"time":441.45815675001165,"velocity":0.7559055118110236,"duration":0.36675332552084683},{"name":"B2","midi":47,"time":441.66649000001166,"velocity":0.7559055118110236,"duration":0.824652447916776},{"name":"D#5","midi":75,"time":441.831420489595,"velocity":0.7559055118110236,"duration":0.1236978671875022},{"name":"E5","midi":76,"time":441.9572884948034,"velocity":0.7559055118110236,"duration":0.1236978671875022},{"name":"D#3","midi":51,"time":442.08315650001174,"velocity":0.7559055118110236,"duration":0.4144963619792179},{"name":"F#5","midi":78,"time":442.08315650001174,"velocity":0.7559055118110236,"duration":0.20616311197915138},{"name":"A4","midi":69,"time":442.29148975001175,"velocity":0.7559055118110236,"duration":0.345051945312548},{"name":"E3","midi":52,"time":442.4998230000118,"velocity":0.7559055118110236,"duration":1.2478293619791998},{"name":"F#4","midi":66,"time":442.63871183334516,"velocity":0.7559055118110236,"duration":0.1367186953124815},{"name":"G4","midi":67,"time":442.7776006666785,"velocity":0.7559055118110236,"duration":0.1367186953124815},{"name":"B2","midi":47,"time":442.91648950001183,"velocity":0.7559055118110236,"duration":0.41449636197916107},{"name":"A4","midi":69,"time":442.91648950001183,"velocity":0.7559055118110236,"duration":0.1367186953124815},{"name":"G4","midi":67,"time":443.0553783333452,"velocity":0.7559055118110236,"duration":0.1367186953124815},{"name":"F#4","midi":66,"time":443.1942671666785,"velocity":0.7559055118110236,"duration":0.1367186953124815},{"name":"E2","midi":40,"time":443.33315600001185,"velocity":0.7559055118110236,"duration":1.2478293619791998},{"name":"F#4","midi":66,"time":443.33315600001185,"velocity":0.7559055118110236,"duration":0.2756075286458213},{"name":"G4","midi":67,"time":443.61093366667853,"velocity":0.7559055118110236,"duration":0.694444166666699},{"name":"B2","midi":47,"time":443.7498225000119,"velocity":0.7559055118110236,"duration":0.41449636197916107},{"name":"E3","midi":52,"time":444.1664890000119,"velocity":0.7559055118110236,"duration":2.0399297395834424},{"name":"A4","midi":69,"time":444.3748222500119,"velocity":0.7559055118110236,"duration":0.10199648697914654},{"name":"B4","midi":71,"time":444.4789888750119,"velocity":0.7559055118110236,"duration":0.10199648697914654},{"name":"C#3","midi":49,"time":444.5831555000119,"velocity":0.7559055118110236,"duration":0.41449636197916107},{"name":"A4","midi":69,"time":444.5831555000119,"velocity":0.7559055118110236,"duration":0.20616311197915138},{"name":"G4","midi":67,"time":444.7914887500119,"velocity":0.7559055118110236,"duration":0.20616311197915138},{"name":"D3","midi":50,"time":444.99982200001193,"velocity":0.7559055118110236,"duration":0.41449636197916107},{"name":"G4","midi":67,"time":444.99982200001193,"velocity":0.7559055118110236,"duration":0.20616311197915138},{"name":"A4","midi":69,"time":445.20815525001194,"velocity":0.7559055118110236,"duration":0.10199648697914654},{"name":"B4","midi":71,"time":445.31232187501195,"velocity":0.7559055118110236,"duration":0.10199648697914654},{"name":"B2","midi":47,"time":445.41648850001195,"velocity":0.7559055118110236,"duration":0.41449636197916107},{"name":"A4","midi":69,"time":445.41648850001195,"velocity":0.7559055118110236,"duration":0.20616311197915138},{"name":"G4","midi":67,"time":445.62482175001196,"velocity":0.7559055118110236,"duration":0.20616311197915138},{"name":"C#3","midi":49,"time":445.83315500001197,"velocity":0.7559055118110236,"duration":1.2478293619792566},{"name":"G4","midi":67,"time":445.83315500001197,"velocity":0.7559055118110236,"duration":0.20616311197915138},{"name":"C#5","midi":73,"time":446.041488250012,"velocity":0.7559055118110236,"duration":0.10199648697914654},{"name":"D5","midi":74,"time":446.145654875012,"velocity":0.7559055118110236,"duration":0.10199648697920338},{"name":"A3","midi":57,"time":446.24982150001205,"velocity":0.7559055118110236,"duration":0.20616311197915138},{"name":"E5","midi":76,"time":446.24982150001205,"velocity":0.7559055118110236,"duration":0.5620657473958772},{"name":"G3","midi":55,"time":446.45815475001206,"velocity":0.7559055118110236,"duration":0.20616311197915138},{"name":"A3","midi":57,"time":446.66648800001207,"velocity":0.7559055118110236,"duration":0.8246524479167192},{"name":"D5","midi":74,"time":446.8748212500121,"velocity":0.7559055118110236,"duration":0.20616311197915138},{"name":"A2","midi":45,"time":447.0831545000121,"velocity":0.7559055118110236,"duration":0.4144963619792179},{"name":"C#5","midi":73,"time":447.0831545000121,"velocity":0.7559055118110236,"duration":0.20616311197915138},{"name":"B4","midi":71,"time":447.2914877500121,"velocity":0.7559055118110236,"duration":0.20616311197920822},{"name":"B2","midi":47,"time":447.49982100001216,"velocity":0.7559055118110236,"duration":0.8246524479167192},{"name":"A4","midi":69,"time":447.49982100001216,"velocity":0.7559055118110236,"duration":0.1627603515624969},{"name":"G4","midi":67,"time":447.6647514895955,"velocity":0.7559055118110236,"duration":0.1236978671875022},{"name":"F#4","midi":66,"time":447.7906194948039,"velocity":0.7559055118110236,"duration":0.1236978671875022},{"name":"D3","midi":50,"time":447.91648750001224,"velocity":0.7559055118110236,"duration":0.41449636197916107},{"name":"G4","midi":67,"time":447.91648750001224,"velocity":0.7559055118110236,"duration":0.5186629869791659},{"name":"C#3","midi":49,"time":448.33315400001226,"velocity":0.7559055118110236,"duration":0.8246524479167192},{"name":"F#4","midi":66,"time":448.4720428333456,"velocity":0.7559055118110236,"duration":0.1367186953124815},{"name":"E4","midi":64,"time":448.61093166667894,"velocity":0.7559055118110236,"duration":0.1367186953124815},{"name":"E3","midi":52,"time":448.7498205000123,"velocity":0.7559055118110236,"duration":0.4144963619792179},{"name":"B4","midi":71,"time":448.7498205000123,"velocity":0.7559055118110236,"duration":0.1367186953124815},{"name":"A4","midi":69,"time":448.8887093333456,"velocity":0.7559055118110236,"duration":0.1367186953124815},{"name":"G4","midi":67,"time":449.02759816667896,"velocity":0.7559055118110236,"duration":0.13671869531253833},{"name":"D3","midi":50,"time":449.16648700001235,"velocity":0.7559055118110236,"duration":2.0399297395834424},{"name":"F#4","midi":66,"time":449.16648700001235,"velocity":0.7559055118110236,"duration":0.20616311197915138},{"name":"D4","midi":62,"time":449.37482025001236,"velocity":0.7559055118110236,"duration":0.20616311197915138},{"name":"F#3","midi":54,"time":449.5831535000124,"velocity":0.7559055118110236,"duration":0.41449636197916107},{"name":"C#4","midi":61,"time":449.5831535000124,"velocity":0.7559055118110236,"duration":0.20616311197915138},{"name":"D4","midi":62,"time":449.7914867500124,"velocity":0.7559055118110236,"duration":0.20616311197915138},{"name":"A3","midi":57,"time":449.9998200000124,"velocity":0.7559055118110236,"duration":0.41449636197916107},{"name":"D4","midi":62,"time":449.9998200000124,"velocity":0.7559055118110236,"duration":0.23654504427082657},{"name":"F#4","midi":66,"time":450.2385351823041,"velocity":0.7559055118110236,"duration":0.694444166666699},{"name":"C4","midi":60,"time":450.4164865000124,"velocity":0.7559055118110236,"duration":0.41449636197916107},{"name":"B3","midi":59,"time":450.83315300001243,"velocity":0.7559055118110236,"duration":0.824652447916776},{"name":"G4","midi":67,"time":451.0197848698041,"velocity":0.7559055118110236,"duration":0.11284717708332437},{"name":"A4","midi":69,"time":451.13480218490827,"velocity":0.7559055118110236,"duration":0.11284717708338121},{"name":"D3","midi":50,"time":451.2498195000125,"velocity":0.7559055118110236,"duration":0.4144963619792179},{"name":"G4","midi":67,"time":451.2498195000125,"velocity":0.7559055118110236,"duration":0.20616311197915138},{"name":"F#4","midi":66,"time":451.4581527500125,"velocity":0.7559055118110236,"duration":0.20616311197920822},{"name":"C3","midi":48,"time":451.6664860000126,"velocity":0.7559055118110236,"duration":0.8246524479167192},{"name":"F#4","midi":66,"time":451.6664860000126,"velocity":0.7559055118110236,"duration":0.20616311197915138},{"name":"G4","midi":67,"time":451.8748192500126,"velocity":0.7559055118110236,"duration":0.10199648697914654},{"name":"A4","midi":69,"time":451.9789858750126,"velocity":0.7559055118110236,"duration":0.10199648697914654},{"name":"A3","midi":57,"time":452.0831525000126,"velocity":0.7559055118110236,"duration":0.4144963619792179},{"name":"G4","midi":67,"time":452.0831525000126,"velocity":0.7559055118110236,"duration":0.20616311197915138},{"name":"F#4","midi":66,"time":452.2914857500126,"velocity":0.7559055118110236,"duration":0.20616311197920822},{"name":"G#3","midi":56,"time":452.4998190000127,"velocity":0.7559055118110236,"duration":0.41449636197916107},{"name":"B2","midi":47,"time":452.4998190000127,"velocity":0.7559055118110236,"duration":0.8246524479167192},{"name":"F4","midi":65,"time":452.4998190000127,"velocity":0.7559055118110236,"duration":0.17361104166667474},{"name":"B4","midi":71,"time":452.68645086980433,"velocity":0.7559055118110236,"duration":0.1085069010416646},{"name":"C#5","midi":73,"time":452.8014681849085,"velocity":0.7559055118110236,"duration":0.1085069010416646},{"name":"F3","midi":53,"time":452.9164855000127,"velocity":0.7559055118110236,"duration":0.20616311197915138},{"name":"D5","midi":74,"time":452.9164855000127,"velocity":0.7559055118110236,"duration":0.6228296119792276},{"name":"E3","midi":52,"time":453.1248187500127,"velocity":0.7559055118110236,"duration":0.20616311197920822},{"name":"A2","midi":45,"time":453.3331520000128,"velocity":0.7559055118110236,"duration":0.8246524479167192},{"name":"F3","midi":53,"time":453.3331520000128,"velocity":0.7559055118110236,"duration":0.41449636197916107},{"name":"C#5","midi":73,"time":453.5414852500128,"velocity":0.7559055118110236,"duration":0.20616311197915138},{"name":"D3","midi":50,"time":453.7498185000128,"velocity":0.7559055118110236,"duration":0.824652447916776},{"name":"B4","midi":71,"time":453.7498185000128,"velocity":0.7559055118110236,"duration":0.20616311197915138},{"name":"A4","midi":69,"time":453.9581517500128,"velocity":0.7559055118110236,"duration":0.20616311197920822},{"name":"B2","midi":47,"time":454.16648500001287,"velocity":0.7559055118110236,"duration":0.8246524479167192},{"name":"G#4","midi":68,"time":454.16648500001287,"velocity":0.7559055118110236,"duration":0.1367186953124815},{"name":"F#4","midi":66,"time":454.3053738333462,"velocity":0.7559055118110236,"duration":0.1367186953124815},{"name":"E4","midi":64,"time":454.44426266667955,"velocity":0.7559055118110236,"duration":0.13671869531253833},{"name":"D3","midi":50,"time":454.58315150001295,"velocity":0.7559055118110236,"duration":0.8246524479166624},{"name":"F4","midi":65,"time":454.58315150001295,"velocity":0.7559055118110236,"duration":0.553385195312444},{"name":"G#2","midi":44,"time":454.9998180000129,"velocity":0.7559055118110236,"duration":0.824652447916776},{"name":"E4","midi":64,"time":455.13870683334625,"velocity":0.7559055118110236,"duration":0.1367186953124815},{"name":"D4","midi":62,"time":455.2775956666796,"velocity":0.7559055118110236,"duration":0.13671869531253833},{"name":"B2","midi":47,"time":455.416484500013,"velocity":0.7559055118110236,"duration":0.4144963619792179},{"name":"F4","midi":65,"time":455.416484500013,"velocity":0.7559055118110236,"duration":0.1367186953124815},{"name":"E4","midi":64,"time":455.5553733333463,"velocity":0.7559055118110236,"duration":0.1367186953124815},{"name":"D4","midi":62,"time":455.69426216667966,"velocity":0.7559055118110236,"duration":0.13671869531253833},{"name":"A2","midi":45,"time":455.83315100001306,"velocity":0.7559055118110236,"duration":1.6644958619792192},{"name":"C#4","midi":61,"time":455.83315100001306,"velocity":0.7559055118110236,"duration":0.1367186953124815},{"name":"B3","midi":59,"time":455.9720398333464,"velocity":0.7559055118110236,"duration":0.1367186953124815},{"name":"A3","midi":57,"time":456.11092866667974,"velocity":0.7559055118110236,"duration":0.28211794270833934},{"name":"B2","midi":47,"time":456.2498175000131,"velocity":0.7559055118110236,"duration":0.41449636197916107},{"name":"G4","midi":67,"time":456.2498175000131,"velocity":0.7559055118110236,"duration":0.5533851953125009},{"name":"C#3","midi":49,"time":456.6664840000131,"velocity":0.7559055118110236,"duration":0.41449636197916107},{"name":"F4","midi":65,"time":456.80537283334644,"velocity":0.7559055118110236,"duration":0.1367186953124815},{"name":"E4","midi":64,"time":456.9442616666798,"velocity":0.7559055118110236,"duration":0.1367186953124815},{"name":"D3","midi":50,"time":457.0831505000131,"velocity":0.7559055118110236,"duration":0.41449636197916107},{"name":"F4","midi":65,"time":457.0831505000131,"velocity":0.7559055118110236,"duration":0.1367186953124815},{"name":"E4","midi":64,"time":457.22203933334646,"velocity":0.7559055118110236,"duration":0.1367186953124815},{"name":"D4","midi":62,"time":457.3609281666798,"velocity":0.7559055118110236,"duration":0.1367186953124815},{"name":"A2","midi":45,"time":457.49981700001314,"velocity":0.7559055118110236,"duration":1.6644958619792192},{"name":"E4","midi":64,"time":457.49981700001314,"velocity":0.7559055118110236,"duration":0.1367186953124815},{"name":"D4","midi":62,"time":457.6387058333465,"velocity":0.7559055118110236,"duration":0.1367186953124815},{"name":"C#4","midi":61,"time":457.7775946666798,"velocity":0.7559055118110236,"duration":0.3472220833333495},{"name":"C#3","midi":49,"time":457.91648350001316,"velocity":0.7559055118110236,"duration":0.41449636197916107},{"name":"A#4","midi":70,"time":457.91648350001316,"velocity":0.7559055118110236,"duration":0.5533851953125009},{"name":"D3","midi":50,"time":458.3331500000132,"velocity":0.7559055118110236,"duration":0.41449636197916107},{"name":"A4","midi":69,"time":458.4720388333465,"velocity":0.7559055118110236,"duration":0.1367186953124815},{"name":"G4","midi":67,"time":458.61092766667986,"velocity":0.7559055118110236,"duration":0.1367186953124815},{"name":"F3","midi":53,"time":458.7498165000132,"velocity":0.7559055118110236,"duration":0.41449636197916107},{"name":"A4","midi":69,"time":458.7498165000132,"velocity":0.7559055118110236,"duration":0.1367186953124815},{"name":"G4","midi":67,"time":458.88870533334654,"velocity":0.7559055118110236,"duration":0.1367186953124815},{"name":"F4","midi":65,"time":459.0275941666799,"velocity":0.7559055118110236,"duration":0.1367186953124815},{"name":"A2","midi":45,"time":459.1664830000132,"velocity":0.7559055118110236,"duration":1.6276035156250828},{"name":"G4","midi":67,"time":459.1664830000132,"velocity":0.7559055118110236,"duration":0.1367186953124815},{"name":"F4","midi":65,"time":459.30537183334656,"velocity":0.7559055118110236,"duration":0.1367186953124815},{"name":"E4","midi":64,"time":459.4442606666799,"velocity":0.7559055118110236,"duration":0.28211794270833934},{"name":"E3","midi":52,"time":459.58314950001323,"velocity":0.7559055118110236,"duration":0.41449636197916107},{"name":"D5","midi":74,"time":459.58314950001323,"velocity":0.7559055118110236,"duration":0.5533851953125009},{"name":"G3","midi":55,"time":459.99981600001325,"velocity":0.7559055118110236,"duration":0.41449636197916107},{"name":"C#5","midi":73,"time":460.1387048333466,"velocity":0.7559055118110236,"duration":0.1367186953124815},{"name":"B4","midi":71,"time":460.27759366667993,"velocity":0.7559055118110236,"duration":0.1367186953124815},{"name":"A3","midi":57,"time":460.4164825000133,"velocity":0.7559055118110236,"duration":0.41449636197916107},{"name":"C#5","midi":73,"time":460.4164825000133,"velocity":0.7559055118110236,"duration":0.1367186953124815},{"name":"B4","midi":71,"time":460.5553713333466,"velocity":0.7559055118110236,"duration":0.1367186953124815},{"name":"A4","midi":69,"time":460.69426016667995,"velocity":0.7559055118110236,"duration":0.1236978671875022},{"name":"A2","midi":45,"time":460.8331490000133,"velocity":0.7559055118110236,"duration":0.6510414062500445},{"name":"G5","midi":79,"time":460.8331490000133,"velocity":0.7559055118110236,"duration":0.1367186953124815},{"name":"F#5","midi":78,"time":460.97203783334663,"velocity":0.7559055118110236,"duration":0.1367186953124815},{"name":"E5","midi":76,"time":461.11092666668,"velocity":0.7559055118110236,"duration":0.1367186953124815},{"name":"C3","midi":48,"time":461.2498155000133,"velocity":0.7559055118110236,"duration":0.4144963619792179},{"name":"F#5","midi":78,"time":461.2498155000133,"velocity":0.7559055118110236,"duration":0.1367186953124815},{"name":"E5","midi":76,"time":461.38870433334665,"velocity":0.7559055118110236,"duration":0.13671869531253833},{"name":"D5","midi":74,"time":461.52759316668005,"velocity":0.7559055118110236,"duration":0.1367186953124815},{"name":"D3","midi":50,"time":461.6664820000134,"velocity":0.7559055118110236,"duration":0.4817706406250295},{"name":"A5","midi":81,"time":461.6664820000134,"velocity":0.7559055118110236,"duration":0.3103297369791562},{"name":"C5","midi":72,"time":461.9789818750134,"velocity":0.7559055118110236,"duration":0.5208331250000242},{"name":"F#3","midi":54,"time":462.0831485000134,"velocity":0.7559055118110236,"duration":0.41449636197916107},{"name":"G3","midi":55,"time":462.4998150000134,"velocity":0.7559055118110236,"duration":1.2478293619791998},{"name":"A4","midi":69,"time":462.60398162501343,"velocity":0.7559055118110236,"duration":0.10199648697914654},{"name":"B4","midi":71,"time":462.70814825001344,"velocity":0.7559055118110236,"duration":0.10199648697914654},{"name":"C5","midi":72,"time":462.81231487501344,"velocity":0.7559055118110236,"duration":0.10199648697914654},{"name":"D4","midi":62,"time":462.91648150001345,"velocity":0.7559055118110236,"duration":0.41449636197916107},{"name":"B4","midi":71,"time":462.91648150001345,"velocity":0.7559055118110236,"duration":0.20616311197915138},{"name":"G4","midi":67,"time":463.12481475001346,"velocity":0.7559055118110236,"duration":0.4014755338541818},{"name":"E4","midi":64,"time":463.33314800001347,"velocity":0.7559055118110236,"duration":1.247829361979143},{"name":"G4","midi":67,"time":463.5414812500135,"velocity":0.7559055118110236,"duration":0.10199648697914654},{"name":"A4","midi":69,"time":463.6456478750135,"velocity":0.7559055118110236,"duration":0.10199648697914654},{"name":"G#3","midi":56,"time":463.7498145000135,"velocity":0.7559055118110236,"duration":0.41449636197916107},{"name":"B4","midi":71,"time":463.7498145000135,"velocity":0.7559055118110236,"duration":0.10199648697914654},{"name":"C#5","midi":73,"time":463.8539811250135,"velocity":0.7559055118110236,"duration":0.10199648697914654},{"name":"D5","midi":74,"time":463.9581477500135,"velocity":0.7559055118110236,"duration":0.29513877083331863},{"name":"A3","midi":57,"time":464.1664810000135,"velocity":0.7559055118110236,"duration":1.247829361979143},{"name":"B4","midi":71,"time":464.27064762501345,"velocity":0.7559055118110236,"duration":0.10199648697914654},{"name":"C#5","midi":73,"time":464.37481425001346,"velocity":0.7559055118110236,"duration":0.10199648697914654},{"name":"D5","midi":74,"time":464.47898087501346,"velocity":0.7559055118110236,"duration":0.10199648697914654},{"name":"E4","midi":64,"time":464.58314750001347,"velocity":0.7559055118110236,"duration":0.41449636197916107},{"name":"C#5","midi":73,"time":464.58314750001347,"velocity":0.7559055118110236,"duration":0.20616311197915138},{"name":"A4","midi":69,"time":464.7914807500135,"velocity":0.7559055118110236,"duration":0.36024291145832876},{"name":"F#4","midi":66,"time":464.9998140000135,"velocity":0.7559055118110236,"duration":1.247829361979143},{"name":"A4","midi":69,"time":465.2081472500135,"velocity":0.7559055118110236,"duration":0.10199648697914654},{"name":"B4","midi":71,"time":465.3123138750135,"velocity":0.7559055118110236,"duration":0.10199648697914654},{"name":"A#3","midi":58,"time":465.4164805000135,"velocity":0.7559055118110236,"duration":0.41449636197916107},{"name":"C#5","midi":73,"time":465.4164805000135,"velocity":0.7559055118110236,"duration":0.10199648697914654},{"name":"D5","midi":74,"time":465.5206471250135,"velocity":0.7559055118110236,"duration":0.10199648697914654},{"name":"E5","midi":76,"time":465.6248137500135,"velocity":0.7559055118110236,"duration":0.29513877083331863},{"name":"B3","midi":59,"time":465.8331470000135,"velocity":0.7559055118110236,"duration":1.2478293619790861},{"name":"C#5","midi":73,"time":465.9373136250135,"velocity":0.7559055118110236,"duration":0.10199648697914654},{"name":"D5","midi":74,"time":466.0414802500135,"velocity":0.7559055118110236,"duration":0.10199648697914654},{"name":"E5","midi":76,"time":466.1456468750135,"velocity":0.7559055118110236,"duration":0.10199648697914654},{"name":"F#4","midi":66,"time":466.2498135000135,"velocity":0.7559055118110236,"duration":0.41449636197916107},{"name":"D5","midi":74,"time":466.2498135000135,"velocity":0.7559055118110236,"duration":0.20616311197915138},{"name":"B4","midi":71,"time":466.4581467500135,"velocity":0.7559055118110236,"duration":0.3689234635416483},{"name":"G4","midi":67,"time":466.6664800000135,"velocity":0.7559055118110236,"duration":1.247829361979143},{"name":"B4","midi":71,"time":466.87481325001346,"velocity":0.7559055118110236,"duration":0.10199648697914654},{"name":"C#5","midi":73,"time":466.97897987501347,"velocity":0.7559055118110236,"duration":0.10199648697914654},{"name":"B3","midi":59,"time":467.08314650001347,"velocity":0.7559055118110236,"duration":0.41449636197916107},{"name":"D5","midi":74,"time":467.08314650001347,"velocity":0.7559055118110236,"duration":0.10199648697914654},{"name":"E5","midi":76,"time":467.1873131250135,"velocity":0.7559055118110236,"duration":0.10199648697914654},{"name":"F#5","midi":78,"time":467.2914797500135,"velocity":0.7559055118110236,"duration":0.29947904687503524},{"name":"C#4","midi":61,"time":467.4998130000135,"velocity":0.7559055118110236,"duration":1.2478293619791998},{"name":"D5","midi":74,"time":467.6039796250135,"velocity":0.7559055118110236,"duration":0.10199648697914654},{"name":"E5","midi":76,"time":467.7081462500135,"velocity":0.7559055118110236,"duration":0.10199648697914654},{"name":"F#5","midi":78,"time":467.8123128750135,"velocity":0.7559055118110236,"duration":0.10199648697914654},{"name":"G4","midi":67,"time":467.9164795000135,"velocity":0.7559055118110236,"duration":0.41449636197916107},{"name":"E5","midi":76,"time":467.9164795000135,"velocity":0.7559055118110236,"duration":0.20616311197915138},{"name":"C#5","midi":73,"time":468.1248127500135,"velocity":0.7559055118110236,"duration":0.37760401562502466},{"name":"A4","midi":69,"time":468.3331460000135,"velocity":0.7559055118110236,"duration":1.247829361979143},{"name":"C#5","midi":73,"time":468.54147925001354,"velocity":0.7559055118110236,"duration":0.10199648697914654},{"name":"D5","midi":74,"time":468.64564587501354,"velocity":0.7559055118110236,"duration":0.10199648697914654},{"name":"C#4","midi":61,"time":468.74981250001355,"velocity":0.7559055118110236,"duration":0.41449636197916107},{"name":"E5","midi":76,"time":468.74981250001355,"velocity":0.7559055118110236,"duration":0.10199648697914654},{"name":"F#5","midi":78,"time":468.85397912501355,"velocity":0.7559055118110236,"duration":0.10199648697914654},{"name":"G5","midi":79,"time":468.95814575001356,"velocity":0.7559055118110236,"duration":0.314670013020816},{"name":"D4","midi":62,"time":469.16647900001357,"velocity":0.7559055118110236,"duration":0.8246524479166624},{"name":"F#5","midi":78,"time":469.30536783334685,"velocity":0.7559055118110236,"duration":0.1367186953124815},{"name":"E5","midi":76,"time":469.4442566666802,"velocity":0.7559055118110236,"duration":0.1367186953124815},{"name":"A4","midi":69,"time":469.58314550001353,"velocity":0.7559055118110236,"duration":0.824652447916776},{"name":"F#5","midi":78,"time":469.58314550001353,"velocity":0.7559055118110236,"duration":0.1367186953124815},{"name":"E5","midi":76,"time":469.72203433334687,"velocity":0.7559055118110236,"duration":0.1367186953124815},{"name":"D5","midi":74,"time":469.8609231666802,"velocity":0.7559055118110236,"duration":0.13671869531253833},{"name":"C4","midi":60,"time":469.9998120000136,"velocity":0.7559055118110236,"duration":0.824652447916776},{"name":"G5","midi":79,"time":469.9998120000136,"velocity":0.7559055118110236,"duration":0.1367186953124815},{"name":"F5","midi":77,"time":470.13870083334695,"velocity":0.7559055118110236,"duration":0.1367186953124815},{"name":"E5","midi":76,"time":470.2775896666803,"velocity":0.7559055118110236,"duration":0.13671869531253833},{"name":"A4","midi":69,"time":470.4164785000137,"velocity":0.7559055118110236,"duration":0.4144963619792179},{"name":"F5","midi":77,"time":470.4164785000137,"velocity":0.7559055118110236,"duration":0.1367186953124815},{"name":"E5","midi":76,"time":470.555367333347,"velocity":0.7559055118110236,"duration":0.1367186953124815},{"name":"D5","midi":74,"time":470.69425616668036,"velocity":0.7559055118110236,"duration":0.13671869531253833},{"name":"B3","midi":59,"time":470.83314500001376,"velocity":0.7559055118110236,"duration":0.8246524479167192},{"name":"F5","midi":77,"time":470.83314500001376,"velocity":0.7559055118110236,"duration":0.23654504427082657},{"name":"G#4","midi":68,"time":471.07186018230544,"velocity":0.7559055118110236,"duration":0.3841144296874859},{"name":"D4","midi":62,"time":471.2498115000138,"velocity":0.7559055118110236,"duration":0.8246524479167192},{"name":"A4","midi":69,"time":471.4581447500138,"velocity":0.7559055118110236,"duration":0.303819322916695},{"name":"A3","midi":57,"time":471.6664780000138,"velocity":0.7559055118110236,"duration":0.824652447916776},{"name":"D5","midi":74,"time":471.80536683334714,"velocity":0.7559055118110236,"duration":0.1367186953124815},{"name":"E5","midi":76,"time":471.9442556666805,"velocity":0.7559055118110236,"duration":0.13671869531253833},{"name":"D4","midi":62,"time":472.0831445000139,"velocity":0.7559055118110236,"duration":0.4144963619792179},{"name":"F5","midi":77,"time":472.0831445000139,"velocity":0.7559055118110236,"duration":0.1367186953124815},{"name":"E5","midi":76,"time":472.2220333333472,"velocity":0.7559055118110236,"duration":0.1367186953124815},{"name":"D5","midi":74,"time":472.36092216668055,"velocity":0.7559055118110236,"duration":0.13671869531253833},{"name":"G3","midi":55,"time":472.49981100001395,"velocity":0.7559055118110236,"duration":0.8246524479167192},{"name":"A#5","midi":82,"time":472.49981100001395,"velocity":0.7559055118110236,"duration":0.2322047682291668},{"name":"C#5","midi":73,"time":472.734185906264,"velocity":0.7559055118110236,"duration":0.3255207031249938},{"name":"E4","midi":64,"time":472.91647750001397,"velocity":0.7559055118110236,"duration":0.4144963619792179},{"name":"D5","midi":74,"time":473.124810750014,"velocity":0.7559055118110236,"duration":0.3081595989584116},{"name":"F3","midi":53,"time":473.33314400001404,"velocity":0.7559055118110236,"duration":0.8246524479167192},{"name":"A3","midi":57,"time":473.33314400001404,"velocity":0.7559055118110236,"duration":0.41449636197916107},{"name":"G4","midi":67,"time":473.4720328333474,"velocity":0.7559055118110236,"duration":0.1367186953124815},{"name":"A4","midi":69,"time":473.6109216666807,"velocity":0.7559055118110236,"duration":0.1367186953124815},{"name":"D4","midi":62,"time":473.74981050001406,"velocity":0.7559055118110236,"duration":0.4144963619792179},{"name":"A#4","midi":70,"time":473.74981050001406,"velocity":0.7559055118110236,"duration":0.1367186953124815},{"name":"A4","midi":69,"time":473.8886993333474,"velocity":0.7559055118110236,"duration":0.1367186953124815},{"name":"G4","midi":67,"time":474.02758816668074,"velocity":0.7559055118110236,"duration":0.13671869531253833},{"name":"E3","midi":52,"time":474.16647700001414,"velocity":0.7559055118110236,"duration":0.8246524479167192},{"name":"C#5","midi":73,"time":474.16647700001414,"velocity":0.7559055118110236,"duration":0.1367186953124815},{"name":"G4","midi":67,"time":474.3053658333475,"velocity":0.7559055118110236,"duration":0.1367186953124815},{"name":"A4","midi":69,"time":474.4442546666808,"velocity":0.7559055118110236,"duration":0.1367186953124815},{"name":"G3","midi":55,"time":474.58314350001416,"velocity":0.7559055118110236,"duration":0.824652447916776},{"name":"A#4","midi":70,"time":474.58314350001416,"velocity":0.7559055118110236,"duration":0.1367186953124815},{"name":"A4","midi":69,"time":474.7220323333475,"velocity":0.7559055118110236,"duration":0.1367186953124815},{"name":"G4","midi":67,"time":474.86092116668084,"velocity":0.7559055118110236,"duration":0.13671869531253833},{"name":"D3","midi":50,"time":474.99981000001424,"velocity":0.7559055118110236,"duration":0.824652447916776},{"name":"D5","midi":74,"time":474.99981000001424,"velocity":0.7559055118110236,"duration":0.1367186953124815},{"name":"G4","midi":67,"time":475.1386988333476,"velocity":0.7559055118110236,"duration":0.1367186953124815},{"name":"A4","midi":69,"time":475.2775876666809,"velocity":0.7559055118110236,"duration":0.13671869531253833},{"name":"G3","midi":55,"time":475.4164765000143,"velocity":0.7559055118110236,"duration":0.4144963619792179},{"name":"A#4","midi":70,"time":475.4164765000143,"velocity":0.7559055118110236,"duration":0.1367186953124815},{"name":"A4","midi":69,"time":475.55536533334765,"velocity":0.7559055118110236,"duration":0.1367186953124815},{"name":"G4","midi":67,"time":475.694254166681,"velocity":0.7559055118110236,"duration":0.13671869531253833},{"name":"C#3","midi":49,"time":475.8331430000144,"velocity":0.7559055118110236,"duration":0.8246524479168329},{"name":"E5","midi":76,"time":475.8331430000144,"velocity":0.7559055118110236,"duration":0.11284717708332437},{"name":"A#4","midi":70,"time":475.94816031511857,"velocity":0.7559055118110236,"duration":0.11284717708332437},{"name":"A4","midi":69,"time":476.06317763022275,"velocity":0.7559055118110236,"duration":0.11284717708332437},{"name":"G4","midi":67,"time":476.17819494532694,"velocity":0.7559055118110236,"duration":0.11284717708338121},{"name":"E3","midi":52,"time":476.24980950001446,"velocity":0.7559055118110236,"duration":0.41449636197927475},{"name":"A4","midi":69,"time":476.2932122604312,"velocity":0.7559055118110236,"duration":0.18446173177085257},{"name":"E4","midi":64,"time":476.4798441302229,"velocity":0.7559055118110236,"duration":0.18446173177085257},{"name":"D3","midi":50,"time":476.6664760000146,"velocity":0.7559055118110236,"duration":0.8246524479167192},{"name":"F4","midi":65,"time":476.6664760000146,"velocity":0.7559055118110236,"duration":0.20616311197915138},{"name":"C#4","midi":61,"time":476.8748092500146,"velocity":0.7559055118110236,"duration":0.20616311197915138},{"name":"F3","midi":53,"time":477.0831425000146,"velocity":0.7559055118110236,"duration":0.824652447916776},{"name":"D4","midi":62,"time":477.0831425000146,"velocity":0.7559055118110236,"duration":0.20616311197915138},{"name":"G#3","midi":56,"time":477.2914757500146,"velocity":0.7559055118110236,"duration":0.20616311197920822},{"name":"A2","midi":45,"time":477.4998090000147,"velocity":0.7559055118110236,"duration":1.2478293619792566},{"name":"A3","midi":57,"time":477.6039756250147,"velocity":0.7559055118110236,"duration":0.10199648697914654},{"name":"B3","midi":59,"time":477.7081422500147,"velocity":0.7559055118110236,"duration":0.10199648697914654},{"name":"C#4","midi":61,"time":477.8123088750147,"velocity":0.7559055118110236,"duration":0.10199648697920338},{"name":"E3","midi":52,"time":477.91647550001477,"velocity":0.7559055118110236,"duration":0.20616311197915138},{"name":"D4","midi":62,"time":477.91647550001477,"velocity":0.7559055118110236,"duration":0.10199648697914654},{"name":"E4","midi":64,"time":478.0206421250148,"velocity":0.7559055118110236,"duration":0.10199648697914654},{"name":"D3","midi":50,"time":478.1248087500148,"velocity":0.7559055118110236,"duration":0.20616311197915138},{"name":"F#4","midi":66,"time":478.1248087500148,"velocity":0.7559055118110236,"duration":0.10199648697914654},{"name":"G4","midi":67,"time":478.2289753750148,"velocity":0.7559055118110236,"duration":0.22352421614584728},{"name":"C#3","midi":49,"time":478.3331420000148,"velocity":0.7559055118110236,"duration":0.8246524479167192},{"name":"F#4","midi":66,"time":478.47203083334813,"velocity":0.7559055118110236,"duration":0.1367186953124815},{"name":"E4","midi":64,"time":478.61091966668147,"velocity":0.7559055118110236,"duration":0.1367186953124815},{"name":"G2","midi":43,"time":478.7498085000148,"velocity":0.7559055118110236,"duration":0.4144963619792179},{"name":"F#4","midi":66,"time":478.7498085000148,"velocity":0.7559055118110236,"duration":0.1367186953124815},{"name":"E4","midi":64,"time":478.88869733334815,"velocity":0.7559055118110236,"duration":0.1367186953124815},{"name":"D4","midi":62,"time":479.0275861666815,"velocity":0.7559055118110236,"duration":0.20616311197920822},{"name":"F#2","midi":42,"time":479.1664750000149,"velocity":0.7559055118110236,"duration":0.8246524479166624},{"name":"F#4","midi":66,"time":479.2706416250149,"velocity":0.7559055118110236,"duration":0.10199648697914654},{"name":"E4","midi":64,"time":479.3748082500149,"velocity":0.7559055118110236,"duration":0.10199648697914654},{"name":"D4","midi":62,"time":479.4789748750149,"velocity":0.7559055118110236,"duration":0.10199648697914654},{"name":"D3","midi":50,"time":479.5831415000149,"velocity":0.7559055118110236,"duration":0.8246524479166055},{"name":"C5","midi":72,"time":479.5831415000149,"velocity":0.7559055118110236,"duration":0.6141490598957944},{"name":"G2","midi":43,"time":479.99980800001487,"velocity":0.7559055118110236,"duration":0.41449636197916107},{"name":"B4","midi":71,"time":480.1886100078274,"velocity":0.7559055118110236,"duration":0.1063367630208063},{"name":"A4","midi":69,"time":480.3036273229315,"velocity":0.7559055118110236,"duration":0.10633676302086315},{"name":"E3","midi":52,"time":480.4164745000149,"velocity":0.7559055118110236,"duration":0.4144963619792179},{"name":"G3","midi":55,"time":480.4164745000149,"velocity":0.7559055118110236,"duration":0.824652447916776},{"name":"B4","midi":71,"time":480.41864463803574,"velocity":0.7559055118110236,"duration":0.1801214557291928},{"name":"E5","midi":76,"time":480.64433899220245,"velocity":0.7559055118110236,"duration":0.2604165625000405},{"name":"C#3","midi":49,"time":480.83314100001496,"velocity":0.7559055118110236,"duration":0.4144963619792179},{"name":"D5","midi":74,"time":480.93730762501497,"velocity":0.7559055118110236,"duration":0.10199648697914654},{"name":"C#5","midi":73,"time":481.04147425001497,"velocity":0.7559055118110236,"duration":0.10199648697914654},{"name":"B4","midi":71,"time":481.145640875015,"velocity":0.7559055118110236,"duration":0.10199648697920338},{"name":"D3","midi":50,"time":481.24980750001504,"velocity":0.7559055118110236,"duration":0.4144963619792179},{"name":"F#3","midi":54,"time":481.24980750001504,"velocity":0.7559055118110236,"duration":0.824652447916776},{"name":"A4","midi":69,"time":481.24980750001504,"velocity":0.7559055118110236,"duration":0.1236978671875022},{"name":"D5","midi":74,"time":481.3756755052234,"velocity":0.7559055118110236,"duration":0.1236978671875022},{"name":"G#4","midi":68,"time":481.50154351043176,"velocity":0.7559055118110236,"duration":0.3016491848958367},{"name":"A2","midi":45,"time":481.6664740000151,"velocity":0.7559055118110236,"duration":0.824652447916776},{"name":"A4","midi":69,"time":481.80536283334845,"velocity":0.7559055118110236,"duration":0.1367186953124815},{"name":"D4","midi":62,"time":481.9442516666818,"velocity":0.7559055118110236,"duration":0.13671869531253833},{"name":"E3","midi":52,"time":482.0831405000152,"velocity":0.7559055118110236,"duration":0.4144963619792179},{"name":"C#4","midi":61,"time":482.0831405000152,"velocity":0.7559055118110236,"duration":0.4123262239583596},{"name":"G4","midi":67,"time":482.0831405000152,"velocity":0.7559055118110236,"duration":0.1367186953124815},{"name":"F#4","midi":66,"time":482.22202933334853,"velocity":0.7559055118110236,"duration":0.1367186953124815},{"name":"E4","midi":64,"time":482.36091816668187,"velocity":0.7559055118110236,"duration":0.13671869531253833},{"name":"F#3","midi":54,"time":482.49980700001527,"velocity":0.7559055118110236,"duration":0.41449636197916107},{"name":"D3","midi":50,"time":482.49980700001527,"velocity":0.7559055118110236,"duration":0.41449636197916107},{"name":"D4","midi":62,"time":482.49980700001527,"velocity":0.7559055118110236,"duration":1.2478293619792566},{"name":"D2","midi":38,"time":482.9164735000153,"velocity":0.7559055118110236,"duration":3.29860979166682},{"name":"B3","midi":59,"time":483.0206401250153,"velocity":0.7559055118110236,"duration":0.10199648697914654},{"name":"A3","midi":57,"time":483.1248067500153,"velocity":0.7559055118110236,"duration":0.10199648697914654},{"name":"G3","midi":55,"time":483.2289733750153,"velocity":0.7559055118110236,"duration":0.10199648697914654},{"name":"F#2","midi":42,"time":483.3331400000153,"velocity":0.7559055118110236,"duration":0.4144963619792179},{"name":"A3","midi":57,"time":483.3331400000153,"velocity":0.7559055118110236,"duration":0.2582464244791822},{"name":"C#4","midi":61,"time":483.59355656251535,"velocity":0.7559055118110236,"duration":0.4144963619792179},{"name":"A2","midi":45,"time":483.7498065000154,"velocity":0.7559055118110236,"duration":0.4144963619792179},{"name":"D4","midi":62,"time":484.0102230625154,"velocity":0.7559055118110236,"duration":1.5190966145833613},{"name":"D3","midi":50,"time":484.16647300001546,"velocity":0.7559055118110236,"duration":2.083332499999983},{"name":"G3","midi":55,"time":484.16647300001546,"velocity":0.7559055118110236,"duration":0.5620657473958204},{"name":"F#3","midi":54,"time":484.73070888543214,"velocity":0.7559055118110236,"duration":1.562499374999959},{"name":"F#4","midi":66,"time":492.0831365000154,"velocity":0.7559055118110236,"duration":0.39062484375000395},{"name":"A3","midi":57,"time":492.49980300001545,"velocity":0.7559055118110236,"duration":1.247829361979143},{"name":"D4","midi":62,"time":492.49980300001545,"velocity":0.7559055118110236,"duration":1.247829361979143},{"name":"F#4","midi":66,"time":492.49980300001545,"velocity":0.7559055118110236,"duration":1.247829361979143},{"name":"D2","midi":38,"time":492.49980300001545,"velocity":0.7559055118110236,"duration":1.6644958619791623},{"name":"D3","midi":50,"time":493.33313600001543,"velocity":0.7559055118110236,"duration":0.8311628619791804},{"name":"D4","midi":62,"time":493.74980250001545,"velocity":0.7559055118110236,"duration":0.20616311197915138},{"name":"F#4","midi":66,"time":493.95813575001546,"velocity":0.7559055118110236,"duration":0.20616311197915138},{"name":"G4","midi":67,"time":494.16646900001547,"velocity":0.7559055118110236,"duration":0.41449636197916107},{"name":"E3","midi":52,"time":494.16646900001547,"velocity":0.7559055118110236,"duration":0.8311628619791804},{"name":"D4","midi":62,"time":494.5831355000155,"velocity":0.7559055118110236,"duration":0.20616311197915138},{"name":"G4","midi":67,"time":494.7914687500155,"velocity":0.7559055118110236,"duration":0.20616311197915138},{"name":"A4","midi":69,"time":494.9998020000155,"velocity":0.7559055118110236,"duration":0.8311628619791804},{"name":"F#3","midi":54,"time":494.9998020000155,"velocity":0.7559055118110236,"duration":0.8311628619791804},{"name":"B4","midi":71,"time":495.83313500001555,"velocity":0.7559055118110236,"duration":0.20616311197915138},{"name":"G3","midi":55,"time":495.83313500001555,"velocity":0.7559055118110236,"duration":0.8311628619791804},{"name":"A4","midi":69,"time":496.04146825001555,"velocity":0.7559055118110236,"duration":0.20616311197915138},{"name":"B4","midi":71,"time":496.24980150001556,"velocity":0.7559055118110236,"duration":0.41449636197916107},{"name":"C#5","midi":73,"time":496.6664680000156,"velocity":0.7559055118110236,"duration":0.8311628619791804},{"name":"E3","midi":52,"time":496.6664680000156,"velocity":0.7559055118110236,"duration":0.8311628619791804},{"name":"D4","midi":62,"time":497.4998010000156,"velocity":0.7559055118110236,"duration":1.6644958619791623},{"name":"D5","midi":74,"time":497.4998010000156,"velocity":0.7559055118110236,"duration":1.6644958619791623},{"name":"A4","midi":69,"time":497.4998010000156,"velocity":0.7559055118110236,"duration":1.6644958619791623},{"name":"F#3","midi":54,"time":497.4998010000156,"velocity":0.7559055118110236,"duration":1.247829361979143},{"name":"D3","midi":50,"time":497.4998010000156,"velocity":0.7559055118110236,"duration":1.247829361979143},{"name":"D3","midi":50,"time":498.7498005000156,"velocity":0.7559055118110236,"duration":0.20616311197915138},{"name":"F#3","midi":54,"time":498.95813375001563,"velocity":0.7559055118110236,"duration":0.20616311197915138},{"name":"B4","midi":71,"time":499.16646700001564,"velocity":0.7559055118110236,"duration":0.8311628619791804},{"name":"E5","midi":76,"time":499.16646700001564,"velocity":0.7559055118110236,"duration":0.8311628619791804},{"name":"G3","midi":55,"time":499.16646700001564,"velocity":0.7559055118110236,"duration":0.41449636197916107},{"name":"D3","midi":50,"time":499.58313350001566,"velocity":0.7559055118110236,"duration":0.20616311197915138},{"name":"G3","midi":55,"time":499.7914667500157,"velocity":0.7559055118110236,"duration":0.20616311197915138},{"name":"C#5","midi":73,"time":499.9998000000157,"velocity":0.7559055118110236,"duration":0.8311628619791804},{"name":"F#5","midi":78,"time":499.9998000000157,"velocity":0.7559055118110236,"duration":0.8311628619791804},{"name":"A3","midi":57,"time":499.9998000000157,"velocity":0.7559055118110236,"duration":0.8311628619791804},{"name":"F#5","midi":78,"time":500.8331330000157,"velocity":0.7559055118110236,"duration":0.41449636197916107},{"name":"D5","midi":74,"time":500.8331330000157,"velocity":0.7559055118110236,"duration":0.624999750000029},{"name":"B3","midi":59,"time":500.8331330000157,"velocity":0.7559055118110236,"duration":0.8311628619791804},{"name":"G5","midi":79,"time":501.24979950001574,"velocity":0.7559055118110236,"duration":0.41449636197916107},{"name":"A4","midi":69,"time":501.66646600001576,"velocity":0.7559055118110236,"duration":1.2478293619791998},{"name":"F#5","midi":78,"time":501.66646600001576,"velocity":0.7559055118110236,"duration":0.41449636197916107},{"name":"C#4","midi":61,"time":501.66646600001576,"velocity":0.7559055118110236,"duration":0.8311628619791804},{"name":"E5","midi":76,"time":502.0831325000158,"velocity":0.7559055118110236,"duration":0.41449636197916107},{"name":"F#5","midi":78,"time":502.4997990000158,"velocity":0.7559055118110236,"duration":0.41449636197916107},{"name":"D4","midi":62,"time":502.4997990000158,"velocity":0.7559055118110236,"duration":0.8311628619791804},{"name":"D5","midi":74,"time":502.9164655000158,"velocity":0.7559055118110236,"duration":0.20616311197915138},{"name":"F#5","midi":78,"time":503.1247987500158,"velocity":0.7559055118110236,"duration":0.20616311197915138},{"name":"G5","midi":79,"time":503.33313200001584,"velocity":0.7559055118110236,"duration":0.41449636197916107},{"name":"D4","midi":62,"time":503.33313200001584,"velocity":0.7559055118110236,"duration":2.4956587239584564},{"name":"B3","midi":59,"time":503.33313200001584,"velocity":0.7559055118110236,"duration":0.8311628619791804},{"name":"D5","midi":74,"time":503.74979850001586,"velocity":0.7559055118110236,"duration":0.20616311197915138},{"name":"G5","midi":79,"time":503.95813175001587,"velocity":0.7559055118110236,"duration":0.20616311197915138},{"name":"A5","midi":81,"time":504.1664650000159,"velocity":0.7559055118110236,"duration":0.6076386458333332},{"name":"F#3","midi":54,"time":504.1664650000159,"velocity":0.7559055118110236,"duration":0.8311628619791804},{"name":"G3","midi":55,"time":504.9997980000159,"velocity":0.7559055118110236,"duration":1.664495861979276},{"name":"B4","midi":71,"time":505.41646450001593,"velocity":0.7559055118110236,"duration":0.4144963619792179},{"name":"E5","midi":76,"time":505.833131000016,"velocity":0.7559055118110236,"duration":0.41449636197916107},{"name":"B3","midi":59,"time":505.833131000016,"velocity":0.7559055118110236,"duration":1.6644958619792192},{"name":"F#5","midi":78,"time":506.24979750001603,"velocity":0.7559055118110236,"duration":0.20616311197915138},{"name":"G5","midi":79,"time":506.45813075001604,"velocity":0.7559055118110236,"duration":0.20616311197915138},{"name":"F#5","midi":78,"time":506.66646400001605,"velocity":0.7559055118110236,"duration":0.41449636197916107},{"name":"G#3","midi":56,"time":506.66646400001605,"velocity":0.7559055118110236,"duration":0.8311628619791804},{"name":"E5","midi":76,"time":507.08313050001607,"velocity":0.7559055118110236,"duration":0.41449636197916107},{"name":"D5","midi":74,"time":507.4997970000161,"velocity":0.7559055118110236,"duration":0.20616311197915138},{"name":"A3","midi":57,"time":507.4997970000161,"velocity":0.7559055118110236,"duration":3.320311171875119},{"name":"C#5","midi":73,"time":507.7081302500161,"velocity":0.7559055118110236,"duration":0.10199648697914654},{"name":"D5","midi":74,"time":507.8122968750161,"velocity":0.7559055118110236,"duration":0.10199648697914654},{"name":"C#5","midi":73,"time":507.9164635000161,"velocity":0.7559055118110236,"duration":0.10199648697914654},{"name":"D5","midi":74,"time":508.0206301250161,"velocity":0.7559055118110236,"duration":0.10199648697914654},{"name":"C#5","midi":73,"time":508.1247967500161,"velocity":0.7559055118110236,"duration":0.10199648697914654},{"name":"D5","midi":74,"time":508.2289633750161,"velocity":0.7559055118110236,"duration":0.10199648697914654},{"name":"C#5","midi":73,"time":508.3331300000161,"velocity":0.7559055118110236,"duration":0.41449636197916107},{"name":"A2","midi":45,"time":508.3331300000161,"velocity":0.7559055118110236,"duration":0.8311628619791804},{"name":"A4","midi":69,"time":508.74979650001615,"velocity":0.7559055118110236,"duration":0.20616311197915138},{"name":"C#5","midi":73,"time":508.95812975001616,"velocity":0.7559055118110236,"duration":0.20616311197915138},{"name":"D5","midi":74,"time":509.16646300001617,"velocity":0.7559055118110236,"duration":0.41449636197916107},{"name":"B2","midi":47,"time":509.16646300001617,"velocity":0.7559055118110236,"duration":0.8311628619791804},{"name":"A4","midi":69,"time":509.5831295000162,"velocity":0.7559055118110236,"duration":0.20616311197915138},{"name":"D5","midi":74,"time":509.7914627500162,"velocity":0.7559055118110236,"duration":0.20616311197915138},{"name":"E5","midi":76,"time":509.9997960000162,"velocity":0.7559055118110236,"duration":2.473957343750044},{"name":"C#3","midi":49,"time":509.9997960000162,"velocity":0.7559055118110236,"duration":0.8311628619791804},{"name":"A4","midi":69,"time":510.83312900001624,"velocity":0.7559055118110236,"duration":0.8311628619791804},{"name":"D3","midi":50,"time":510.83312900001624,"velocity":0.7559055118110236,"duration":0.41449636197916107},{"name":"C#3","midi":49,"time":511.24979550001626,"velocity":0.7559055118110236,"duration":0.41449636197916107},{"name":"G4","midi":67,"time":511.6664620000163,"velocity":0.7559055118110236,"duration":1.247829361979143},{"name":"B2","midi":47,"time":511.6664620000163,"velocity":0.7559055118110236,"duration":0.4144963619792179},{"name":"A2","midi":45,"time":512.0831285000163,"velocity":0.7559055118110236,"duration":0.4144963619791042},{"name":"D3","midi":50,"time":512.4997950000162,"velocity":0.7559055118110236,"duration":2.170138020833406},{"name":"F#4","midi":66,"time":512.9164615000162,"velocity":0.7559055118110236,"duration":0.20616311197920822},{"name":"E4","midi":64,"time":513.1247947500162,"velocity":0.7559055118110236,"duration":0.20616311197920822},{"name":"F#4","midi":66,"time":513.3331280000162,"velocity":0.7559055118110236,"duration":0.4144963619792179},{"name":"D4","midi":62,"time":513.3331280000162,"velocity":0.7559055118110236,"duration":0.4144963619792179},{"name":"A#4","midi":70,"time":513.7497945000163,"velocity":0.7559055118110236,"duration":0.4144963619792179},{"name":"C#4","midi":61,"time":513.7497945000163,"velocity":0.7559055118110236,"duration":0.4144963619792179},{"name":"B4","midi":71,"time":514.1664610000163,"velocity":0.7559055118110236,"duration":0.13671869531253833},{"name":"D4","midi":62,"time":514.1664610000163,"velocity":0.7559055118110236,"duration":0.8311628619791236},{"name":"A#4","midi":70,"time":514.3053498333496,"velocity":0.7559055118110236,"duration":0.13671869531253833},{"name":"B4","midi":71,"time":514.444238666683,"velocity":0.7559055118110236,"duration":0.9700516953124634},{"name":"G3","midi":55,"time":514.9997940000162,"velocity":0.7559055118110236,"duration":0.8311628619792373},{"name":"B3","midi":59,"time":514.9997940000162,"velocity":0.7559055118110236,"duration":1.664495861979276},{"name":"C#5","midi":73,"time":515.4164605000162,"velocity":0.7559055118110236,"duration":0.4144963619792179},{"name":"D5","midi":74,"time":515.8331270000162,"velocity":0.7559055118110236,"duration":0.4144963619792179},{"name":"E3","midi":52,"time":515.8331270000162,"velocity":0.7559055118110236,"duration":0.8311628619792373},{"name":"C#5","midi":73,"time":516.2497935000163,"velocity":0.7559055118110236,"duration":0.4144963619792179},{"name":"E5","midi":76,"time":516.6664600000163,"velocity":0.7559055118110236,"duration":0.8311628619791236},{"name":"A#3","midi":58,"time":516.6664600000163,"velocity":0.7559055118110236,"duration":0.8311628619791236},{"name":"F#3","midi":54,"time":516.6664600000163,"velocity":0.7559055118110236,"duration":0.8311628619791236},{"name":"E5","midi":76,"time":517.4997930000162,"velocity":0.7559055118110236,"duration":0.41232622395830276},{"name":"B2","midi":47,"time":517.4997930000162,"velocity":0.7559055118110236,"duration":0.4144963619791042},{"name":"D5","midi":74,"time":517.9164595000161,"velocity":0.7559055118110236,"duration":0.60763864583339},{"name":"F#3","midi":54,"time":517.9164595000161,"velocity":0.7559055118110236,"duration":0.4144963619792179},{"name":"B3","midi":59,"time":518.3331260000161,"velocity":0.7559055118110236,"duration":0.4144963619792179},{"name":"B4","midi":71,"time":518.7497925000162,"velocity":0.7559055118110236,"duration":0.20616311197920822},{"name":"D4","midi":62,"time":518.7497925000162,"velocity":0.7559055118110236,"duration":0.4144963619792179},{"name":"D5","midi":74,"time":518.9581257500162,"velocity":0.7559055118110236,"duration":0.20616311197920822},{"name":"E5","midi":76,"time":519.1664590000162,"velocity":0.7559055118110236,"duration":0.4144963619792179},{"name":"C#4","midi":61,"time":519.1664590000162,"velocity":0.7559055118110236,"duration":0.4144963619792179},{"name":"C#5","midi":73,"time":519.5831255000162,"velocity":0.7559055118110236,"duration":0.20616311197920822},{"name":"E4","midi":64,"time":519.5831255000162,"velocity":0.7559055118110236,"duration":0.4144963619792179},{"name":"E5","midi":76,"time":519.7914587500162,"velocity":0.7559055118110236,"duration":0.20616311197920822},{"name":"F#5","midi":78,"time":519.9997920000162,"velocity":0.7559055118110236,"duration":0.8311628619792373},{"name":"D4","midi":62,"time":519.9997920000162,"velocity":0.7559055118110236,"duration":0.4144963619792179},{"name":"F#4","midi":66,"time":520.4164585000162,"velocity":0.7559055118110236,"duration":0.4144963619792179},{"name":"G#5","midi":80,"time":520.8331250000163,"velocity":0.7559055118110236,"duration":0.13671869531253833},{"name":"E4","midi":64,"time":520.8331250000163,"velocity":0.7559055118110236,"duration":0.4144963619792179},{"name":"F#5","midi":78,"time":520.9720138333496,"velocity":0.7559055118110236,"duration":0.13671869531253833},{"name":"G#5","midi":80,"time":521.1109026666829,"velocity":0.7559055118110236,"duration":0.9700516953125771},{"name":"D4","midi":62,"time":521.2497915000163,"velocity":0.7559055118110236,"duration":0.4144963619792179},{"name":"C#4","midi":61,"time":521.6664580000163,"velocity":0.7559055118110236,"duration":0.4144963619792179},{"name":"A5","midi":81,"time":522.0831245000163,"velocity":0.7559055118110236,"duration":0.4144963619792179},{"name":"B3","midi":59,"time":522.0831245000163,"velocity":0.7559055118110236,"duration":0.4144963619792179},{"name":"A5","midi":81,"time":522.4997910000163,"velocity":0.7559055118110236,"duration":0.20616311197920822},{"name":"E4","midi":64,"time":522.4997910000163,"velocity":0.7559055118110236,"duration":0.4144963619791042},{"name":"G#5","midi":80,"time":522.7081242500163,"velocity":0.7559055118110236,"duration":0.11067703906246606},{"name":"A5","midi":81,"time":522.8122908750163,"velocity":0.7559055118110236,"duration":0.11067703906246606},{"name":"G#5","midi":80,"time":522.9164575000162,"velocity":0.7559055118110236,"duration":0.11067703906257975},{"name":"B3","midi":59,"time":522.9164575000162,"velocity":0.7559055118110236,"duration":0.4144963619793316},{"name":"A5","midi":81,"time":523.0206241250163,"velocity":0.7559055118110236,"duration":0.11067703906257975},{"name":"G#5","midi":80,"time":523.1247907500164,"velocity":0.7559055118110236,"duration":0.11067703906257975},{"name":"A5","midi":81,"time":523.2289573750164,"velocity":0.7559055118110236,"duration":0.11067703906246606},{"name":"G#5","midi":80,"time":523.3331240000164,"velocity":0.7559055118110236,"duration":0.4144963619792179},{"name":"E3","midi":52,"time":523.3331240000164,"velocity":0.7559055118110236,"duration":0.4144963619792179},{"name":"E5","midi":76,"time":523.7497905000164,"velocity":0.7559055118110236,"duration":0.20616311197920822},{"name":"D3","midi":50,"time":523.7497905000164,"velocity":0.7559055118110236,"duration":0.4144963619792179},{"name":"G#5","midi":80,"time":523.9581237500164,"velocity":0.7559055118110236,"duration":0.20616311197920822},{"name":"A5","midi":81,"time":524.1664570000164,"velocity":0.7559055118110236,"duration":0.4144963619792179},{"name":"C#3","midi":49,"time":524.1664570000164,"velocity":0.7559055118110236,"duration":0.4144963619792179},{"name":"E5","midi":76,"time":524.5831235000164,"velocity":0.7559055118110236,"duration":0.20616311197920822},{"name":"B2","midi":47,"time":524.5831235000164,"velocity":0.7559055118110236,"duration":0.4144963619792179},{"name":"A5","midi":81,"time":524.7914567500164,"velocity":0.7559055118110236,"duration":0.20616311197920822},{"name":"B5","midi":83,"time":524.9997900000164,"velocity":0.7559055118110236,"duration":0.8311628619792373},{"name":"A2","midi":45,"time":524.9997900000164,"velocity":0.7559055118110236,"duration":0.4144963619792179},{"name":"G#2","midi":44,"time":525.4164565000165,"velocity":0.7559055118110236,"duration":0.4144963619792179},{"name":"A5","midi":81,"time":525.8331230000165,"velocity":0.7559055118110236,"duration":0.4144963619792179},{"name":"F#2","midi":42,"time":525.8331230000165,"velocity":0.7559055118110236,"duration":0.4144963619792179},{"name":"G#5","midi":80,"time":526.2497895000165,"velocity":0.7559055118110236,"duration":0.4144963619792179},{"name":"E2","midi":40,"time":526.2497895000165,"velocity":0.7559055118110236,"duration":0.4144963619792179},{"name":"F#5","midi":78,"time":526.6664560000165,"velocity":0.7559055118110236,"duration":0.4144963619792179},{"name":"F#2","midi":42,"time":526.6664560000165,"velocity":0.7559055118110236,"duration":0.4144963619792179},{"name":"E5","midi":76,"time":527.0831225000165,"velocity":0.7559055118110236,"duration":0.4144963619792179},{"name":"G#2","midi":44,"time":527.0831225000165,"velocity":0.7559055118110236,"duration":0.4144963619792179},{"name":"D5","midi":74,"time":527.4997890000166,"velocity":0.7559055118110236,"duration":0.41232622395830276},{"name":"A2","midi":45,"time":527.4997890000166,"velocity":0.7559055118110236,"duration":0.4144963619791042},{"name":"C#5","midi":73,"time":527.9164555000165,"velocity":0.7559055118110236,"duration":0.624999750000029},{"name":"E3","midi":52,"time":527.9164555000165,"velocity":0.7559055118110236,"duration":0.4144963619792179},{"name":"A3","midi":57,"time":528.3331220000165,"velocity":0.7559055118110236,"duration":0.4144963619792179},{"name":"A4","midi":69,"time":528.7497885000165,"velocity":0.7559055118110236,"duration":0.20616311197920822},{"name":"C#4","midi":61,"time":528.7497885000165,"velocity":0.7559055118110236,"duration":0.4144963619792179},{"name":"C#5","midi":73,"time":528.9581217500165,"velocity":0.7559055118110236,"duration":0.20616311197920822},{"name":"D5","midi":74,"time":529.1664550000165,"velocity":0.7559055118110236,"duration":0.4144963619792179},{"name":"B3","midi":59,"time":529.1664550000165,"velocity":0.7559055118110236,"duration":0.4144963619792179},{"name":"A4","midi":69,"time":529.5831215000165,"velocity":0.7559055118110236,"duration":0.20616311197920822},{"name":"D4","midi":62,"time":529.5831215000165,"velocity":0.7559055118110236,"duration":0.4144963619792179},{"name":"D5","midi":74,"time":529.7914547500166,"velocity":0.7559055118110236,"duration":0.20616311197920822},{"name":"E5","midi":76,"time":529.9997880000166,"velocity":0.7559055118110236,"duration":0.8311628619792373},{"name":"C#4","midi":61,"time":529.9997880000166,"velocity":0.7559055118110236,"duration":0.4144963619792179},{"name":"E4","midi":64,"time":530.4164545000166,"velocity":0.7559055118110236,"duration":0.4144963619792179},{"name":"F#5","midi":78,"time":530.8331210000166,"velocity":0.7559055118110236,"duration":0.13671869531253833},{"name":"D4","midi":62,"time":530.8331210000166,"velocity":0.7559055118110236,"duration":0.4144963619792179},{"name":"E5","midi":76,"time":530.97200983335,"velocity":0.7559055118110236,"duration":0.13671869531253833},{"name":"F#5","midi":78,"time":531.1108986666833,"velocity":0.7559055118110236,"duration":0.9700516953125771},{"name":"C#4","midi":61,"time":531.2497875000166,"velocity":0.7559055118110236,"duration":0.4144963619792179},{"name":"B3","midi":59,"time":531.6664540000166,"velocity":0.7559055118110236,"duration":0.4144963619792179},{"name":"G5","midi":79,"time":532.0831205000167,"velocity":0.7559055118110236,"duration":0.4144963619792179},{"name":"A3","midi":57,"time":532.0831205000167,"velocity":0.7559055118110236,"duration":0.4144963619792179},{"name":"F#5","midi":78,"time":532.4997870000167,"velocity":0.7559055118110236,"duration":2.4956587239583996},{"name":"D4","midi":62,"time":532.4997870000167,"velocity":0.7559055118110236,"duration":1.664495861979276},{"name":"D3","midi":50,"time":533.3331200000167,"velocity":0.7559055118110236,"duration":0.8311628619792373},{"name":"B4","midi":71,"time":533.7497865000167,"velocity":0.7559055118110236,"duration":0.4144963619792179},{"name":"C#5","midi":73,"time":534.1664530000168,"velocity":0.7559055118110236,"duration":0.1280381432292188},{"name":"F#4","midi":66,"time":534.1664530000168,"velocity":0.7559055118110236,"duration":0.8311628619791236},{"name":"D4","midi":62,"time":534.1664530000168,"velocity":0.7559055118110236,"duration":1.6644958619790486},{"name":"B4","midi":71,"time":534.2966612812668,"velocity":0.7559055118110236,"duration":0.1280381432292188},{"name":"A4","midi":69,"time":534.4268695625168,"velocity":0.7559055118110236,"duration":0.15407979947917738},{"name":"B4","midi":71,"time":534.5831195000168,"velocity":0.7559055118110236,"duration":0.4144963619791042},{"name":"E5","midi":76,"time":534.9997860000167,"velocity":0.7559055118110236,"duration":2.4956587239583996},{"name":"G#4","midi":68,"time":534.9997860000167,"velocity":0.7559055118110236,"duration":0.8311628619791236},{"name":"A4","midi":69,"time":535.8331190000166,"velocity":0.7559055118110236,"duration":0.4144963619792179},{"name":"C#4","midi":61,"time":535.8331190000166,"velocity":0.7559055118110236,"duration":2.083332500000097},{"name":"B4","midi":71,"time":536.2497855000166,"velocity":0.7559055118110236,"duration":0.4144963619792179},{"name":"C#5","midi":73,"time":536.6664520000166,"velocity":0.7559055118110236,"duration":0.4144963619792179},{"name":"E4","midi":64,"time":536.6664520000166,"velocity":0.7559055118110236,"duration":0.8246524479167192},{"name":"A4","midi":69,"time":537.0831185000167,"velocity":0.7559055118110236,"duration":0.4144963619792179},{"name":"F#4","midi":66,"time":537.4997850000167,"velocity":0.7559055118110236,"duration":0.4144963619792179},{"name":"D5","midi":74,"time":537.4997850000167,"velocity":0.7559055118110236,"duration":3.97135257812522},{"name":"F#4","midi":66,"time":537.9164515000167,"velocity":0.7559055118110236,"duration":0.4144963619792179},{"name":"C#4","midi":61,"time":537.9164515000167,"velocity":0.7559055118110236,"duration":0.4144963619792179},{"name":"G#4","midi":68,"time":538.3331180000167,"velocity":0.7559055118110236,"duration":0.1280381432292188},{"name":"B3","midi":59,"time":538.3331180000167,"velocity":0.7559055118110236,"duration":0.4144963619792179},{"name":"F#4","midi":66,"time":538.4633262812667,"velocity":0.7559055118110236,"duration":0.1280381432292188},{"name":"E4","midi":64,"time":538.5935345625168,"velocity":0.7559055118110236,"duration":0.15407979947917738},{"name":"F#4","midi":66,"time":538.7497845000167,"velocity":0.7559055118110236,"duration":0.4144963619792179},{"name":"A3","midi":57,"time":538.7497845000167,"velocity":0.7559055118110236,"duration":0.4144963619792179},{"name":"B4","midi":71,"time":539.1664510000168,"velocity":0.7559055118110236,"duration":0.8311628619792373},{"name":"G#3","midi":56,"time":539.1664510000168,"velocity":0.7559055118110236,"duration":0.4144963619792179},{"name":"A3","midi":57,"time":539.5831175000168,"velocity":0.7559055118110236,"duration":0.4144963619792179},{"name":"E4","midi":64,"time":539.9997840000168,"velocity":0.7559055118110236,"duration":0.4144963619792179},{"name":"G#3","midi":56,"time":539.9997840000168,"velocity":0.7559055118110236,"duration":0.8311628619792373},{"name":"F#4","midi":66,"time":540.4164505000168,"velocity":0.7559055118110236,"duration":0.4144963619792179},{"name":"G#4","midi":68,"time":540.8331170000168,"velocity":0.7559055118110236,"duration":0.4144963619792179},{"name":"E3","midi":52,"time":540.8331170000168,"velocity":0.7559055118110236,"duration":0.8311628619792373},{"name":"E4","midi":64,"time":541.2497835000169,"velocity":0.7559055118110236,"duration":0.4144963619792179},{"name":"A4","midi":69,"time":541.6664500000169,"velocity":0.7559055118110236,"duration":0.41232622395830276},{"name":"C#5","midi":73,"time":541.6664500000169,"velocity":0.7559055118110236,"duration":1.664495861979276},{"name":"F#3","midi":54,"time":541.6664500000169,"velocity":0.7559055118110236,"duration":0.8246524479167192},{"name":"A3","midi":57,"time":542.0831165000169,"velocity":0.7559055118110236,"duration":0.4144963619792179},{"name":"F#4","midi":66,"time":542.4997830000169,"velocity":0.7559055118110236,"duration":0.8311628619792373},{"name":"B3","midi":59,"time":542.4997830000169,"velocity":0.7559055118110236,"duration":0.20616311197920822},{"name":"D3","midi":50,"time":542.4997830000169,"velocity":0.7559055118110236,"duration":2.4956587239583996},{"name":"A3","midi":57,"time":542.7081162500169,"velocity":0.7559055118110236,"duration":0.20616311197920822},{"name":"G#3","midi":56,"time":542.9164495000169,"velocity":0.7559055118110236,"duration":0.20616311197920822},{"name":"A3","midi":57,"time":543.124782750017,"velocity":0.7559055118110236,"duration":0.20616311197920822},{"name":"B4","midi":71,"time":543.333116000017,"velocity":0.7559055118110236,"duration":0.4144963619792179},{"name":"D4","midi":62,"time":543.333116000017,"velocity":0.7559055118110236,"duration":0.8311628619792373},{"name":"A4","midi":69,"time":543.749782500017,"velocity":0.7559055118110236,"duration":0.20616311197920822},{"name":"G#4","midi":68,"time":543.958115750017,"velocity":0.7559055118110236,"duration":0.20616311197920822},{"name":"A4","midi":69,"time":544.166449000017,"velocity":0.7559055118110236,"duration":0.4144963619792179},{"name":"C#4","midi":61,"time":544.166449000017,"velocity":0.7559055118110236,"duration":0.8311628619791236},{"name":"B4","midi":71,"time":544.583115500017,"velocity":0.7559055118110236,"duration":0.4144963619791042},{"name":"G#4","midi":68,"time":544.9997820000169,"velocity":0.7559055118110236,"duration":0.4144963619792179},{"name":"B3","midi":59,"time":544.9997820000169,"velocity":0.7559055118110236,"duration":0.8311628619792373},{"name":"D3","midi":50,"time":544.9997820000169,"velocity":0.7559055118110236,"duration":0.8311628619792373},{"name":"E4","midi":64,"time":545.4164485000169,"velocity":0.7559055118110236,"duration":0.20616311197920822},{"name":"G#4","midi":68,"time":545.624781750017,"velocity":0.7559055118110236,"duration":0.20616311197920822},{"name":"A4","midi":69,"time":545.833115000017,"velocity":0.7559055118110236,"duration":0.4144963619792179},{"name":"A3","midi":57,"time":545.833115000017,"velocity":0.7559055118110236,"duration":0.8311628619792373},{"name":"C#3","midi":49,"time":545.833115000017,"velocity":0.7559055118110236,"duration":0.8311628619792373},{"name":"E4","midi":64,"time":546.249781500017,"velocity":0.7559055118110236,"duration":0.20616311197920822},{"name":"A4","midi":69,"time":546.458114750017,"velocity":0.7559055118110236,"duration":0.20616311197920822},{"name":"B4","midi":71,"time":546.666448000017,"velocity":0.7559055118110236,"duration":0.4144963619792179},{"name":"G#3","midi":56,"time":546.666448000017,"velocity":0.7559055118110236,"duration":0.8311628619792373},{"name":"B2","midi":47,"time":546.666448000017,"velocity":0.7559055118110236,"duration":0.8311628619792373},{"name":"E4","midi":64,"time":547.083114500017,"velocity":0.7559055118110236,"duration":0.20616311197920822},{"name":"B4","midi":71,"time":547.291447750017,"velocity":0.7559055118110236,"duration":0.20616311197920822},{"name":"C#5","midi":73,"time":547.499781000017,"velocity":0.7559055118110236,"duration":0.60763864583339},{"name":"A3","midi":57,"time":547.499781000017,"velocity":0.7559055118110236,"duration":1.664495861979276},{"name":"A2","midi":45,"time":547.499781000017,"velocity":0.7559055118110236,"duration":0.8311628619792373},{"name":"E4","midi":64,"time":547.9164475000171,"velocity":0.7559055118110236,"duration":0.20616311197920822},{"name":"C#5","midi":73,"time":548.1247807500171,"velocity":0.7559055118110236,"duration":0.20616311197920822},{"name":"C#5","midi":73,"time":548.3331140000171,"velocity":0.7559055118110236,"duration":0.4144963619792179},{"name":"B3","midi":59,"time":548.3331140000171,"velocity":0.7559055118110236,"duration":1.664495861979276},{"name":"D5","midi":74,"time":548.7497805000171,"velocity":0.7559055118110236,"duration":0.7595483072916522},{"name":"G#3","midi":56,"time":549.1664470000171,"velocity":0.7559055118110236,"duration":0.8311628619792373},{"name":"C#5","midi":73,"time":549.5831135000171,"velocity":0.7559055118110236,"duration":0.20616311197920822},{"name":"B4","midi":71,"time":549.7914467500171,"velocity":0.7559055118110236,"duration":0.20616311197920822},{"name":"C#5","midi":73,"time":549.9997800000172,"velocity":0.7559055118110236,"duration":0.4144963619792179},{"name":"G3","midi":55,"time":549.9997800000172,"velocity":0.7559055118110236,"duration":0.8311628619792373},{"name":"A3","midi":57,"time":549.9997800000172,"velocity":0.7559055118110236,"duration":0.8311628619792373},{"name":"A4","midi":69,"time":550.4164465000172,"velocity":0.7559055118110236,"duration":0.20616311197920822},{"name":"C#5","midi":73,"time":550.6247797500172,"velocity":0.7559055118110236,"duration":0.20616311197920822},{"name":"D5","midi":74,"time":550.8331130000172,"velocity":0.7559055118110236,"duration":0.4144963619792179},{"name":"B3","midi":59,"time":550.8331130000172,"velocity":0.7559055118110236,"duration":0.8311628619792373},{"name":"F#3","midi":54,"time":550.8331130000172,"velocity":0.7559055118110236,"duration":0.8311628619792373},{"name":"A4","midi":69,"time":551.2497795000172,"velocity":0.7559055118110236,"duration":0.20616311197920822},{"name":"D5","midi":74,"time":551.4581127500172,"velocity":0.7559055118110236,"duration":0.20616311197920822},{"name":"E5","midi":76,"time":551.6664460000172,"velocity":0.7559055118110236,"duration":0.4144963619792179},{"name":"C#4","midi":61,"time":551.6664460000172,"velocity":0.7559055118110236,"duration":0.8311628619792373},{"name":"E3","midi":52,"time":551.6664460000172,"velocity":0.7559055118110236,"duration":0.8311628619792373},{"name":"A4","midi":69,"time":552.0831125000173,"velocity":0.7559055118110236,"duration":0.20616311197920822},{"name":"E5","midi":76,"time":552.2914457500173,"velocity":0.7559055118110236,"duration":0.20616311197920822},{"name":"F#5","midi":78,"time":552.4997790000173,"velocity":0.7559055118110236,"duration":0.60763864583339},{"name":"D4","midi":62,"time":552.4997790000173,"velocity":0.7559055118110236,"duration":1.664495861979276},{"name":"D3","midi":50,"time":552.4997790000173,"velocity":0.7559055118110236,"duration":0.8311628619792373},{"name":"A4","midi":69,"time":552.9164455000173,"velocity":0.7559055118110236,"duration":0.20616311197920822},{"name":"F#5","midi":78,"time":553.1247787500173,"velocity":0.7559055118110236,"duration":0.20616311197920822},{"name":"F#5","midi":78,"time":553.3331120000173,"velocity":0.7559055118110236,"duration":0.4144963619792179},{"name":"E4","midi":64,"time":553.3331120000173,"velocity":0.7559055118110236,"duration":1.664495861979276},{"name":"G5","midi":79,"time":553.7497785000173,"velocity":0.7559055118110236,"duration":0.7595483072916522},{"name":"C#4","midi":61,"time":554.1664450000173,"velocity":0.7559055118110236,"duration":0.8311628619792373},{"name":"F#5","midi":78,"time":554.5831115000174,"velocity":0.7559055118110236,"duration":0.20616311197920822},{"name":"E5","midi":76,"time":554.7914447500174,"velocity":0.7559055118110236,"duration":0.20616311197920822},{"name":"F#5","midi":78,"time":554.9997780000174,"velocity":0.7559055118110236,"duration":0.4144963619792179},{"name":"D4","midi":62,"time":554.9997780000174,"velocity":0.7559055118110236,"duration":3.320311171875005},{"name":"D5","midi":74,"time":555.4164445000174,"velocity":0.7559055118110236,"duration":0.20616311197920822},{"name":"F#5","midi":78,"time":555.6247777500174,"velocity":0.7559055118110236,"duration":0.20616311197920822},{"name":"G#5","midi":80,"time":555.8331110000174,"velocity":0.7559055118110236,"duration":0.4144963619792179},{"name":"B3","midi":59,"time":555.8331110000174,"velocity":0.7559055118110236,"duration":0.8311628619792373},{"name":"D5","midi":74,"time":556.2497775000174,"velocity":0.7559055118110236,"duration":0.20616311197920822},{"name":"G#5","midi":80,"time":556.4581107500175,"velocity":0.7559055118110236,"duration":0.20616311197920822},{"name":"A5","midi":81,"time":556.6664440000175,"velocity":0.7559055118110236,"duration":0.4144963619792179},{"name":"A3","midi":57,"time":556.6664440000175,"velocity":0.7559055118110236,"duration":0.8311628619792373},{"name":"D5","midi":74,"time":557.0831105000175,"velocity":0.7559055118110236,"duration":0.20616311197920822},{"name":"A5","midi":81,"time":557.2914437500175,"velocity":0.7559055118110236,"duration":0.20616311197920822},{"name":"A5","midi":81,"time":557.4997770000175,"velocity":0.7559055118110236,"duration":0.3906248437499471},{"name":"G#3","midi":56,"time":557.4997770000175,"velocity":0.7559055118110236,"duration":0.8311628619790099},{"name":"B5","midi":83,"time":557.9164435000174,"velocity":0.7559055118110236,"duration":0.6206594739581988},{"name":"A3","midi":57,"time":558.3331100000173,"velocity":0.7559055118110236,"duration":0.8311628619792373},{"name":"C#4","midi":61,"time":558.3331100000173,"velocity":0.7559055118110236,"duration":2.4956587239583996},{"name":"A5","midi":81,"time":558.5414432500173,"velocity":0.7559055118110236,"duration":0.20616311197920822},{"name":"G#5","midi":80,"time":558.7497765000173,"velocity":0.7559055118110236,"duration":0.20616311197920822},{"name":"F#5","midi":78,"time":558.9581097500173,"velocity":0.7559055118110236,"duration":0.20616311197920822},{"name":"E5","midi":76,"time":559.1664430000174,"velocity":0.7559055118110236,"duration":0.36892346354170513},{"name":"G#3","midi":56,"time":559.1664430000174,"velocity":0.7559055118110236,"duration":0.8311628619792373},{"name":"A5","midi":81,"time":559.5831095000174,"velocity":0.7559055118110236,"duration":0.6228296119792276},{"name":"F#3","midi":54,"time":559.9997760000174,"velocity":0.7559055118110236,"duration":0.8311628619791236},{"name":"G#5","midi":80,"time":560.2081092500174,"velocity":0.7559055118110236,"duration":0.20616311197920822},{"name":"F#5","midi":78,"time":560.4164425000174,"velocity":0.7559055118110236,"duration":0.20616311197920822},{"name":"E5","midi":76,"time":560.6247757500174,"velocity":0.7559055118110236,"duration":0.20616311197909454},{"name":"D5","midi":74,"time":560.8331090000173,"velocity":0.7559055118110236,"duration":0.36892346354170513},{"name":"B3","midi":59,"time":560.8331090000173,"velocity":0.7559055118110236,"duration":2.4956587239583996},{"name":"G#3","midi":56,"time":560.8331090000173,"velocity":0.7559055118110236,"duration":0.8311628619792373},{"name":"F#5","midi":78,"time":561.2497755000173,"velocity":0.7559055118110236,"duration":0.6228296119792276},{"name":"A3","midi":57,"time":561.6664420000174,"velocity":0.7559055118110236,"duration":0.8311628619792373},{"name":"E5","midi":76,"time":561.8747752500174,"velocity":0.7559055118110236,"duration":0.20616311197920822},{"name":"D5","midi":74,"time":562.0831085000174,"velocity":0.7559055118110236,"duration":0.20616311197920822},{"name":"C#5","midi":73,"time":562.2914417500174,"velocity":0.7559055118110236,"duration":0.20616311197920822},{"name":"B4","midi":71,"time":562.4997750000174,"velocity":0.7559055118110236,"duration":0.36892346354170513},{"name":"G#3","midi":56,"time":562.4997750000174,"velocity":0.7559055118110236,"duration":0.8311628619791236},{"name":"D5","midi":74,"time":562.9164415000174,"velocity":0.7559055118110236,"duration":0.6228296119791139},{"name":"E3","midi":52,"time":563.3331080000173,"velocity":0.7559055118110236,"duration":0.8311628619792373},{"name":"G#3","midi":56,"time":563.3331080000173,"velocity":0.7559055118110236,"duration":0.8311628619792373},{"name":"C#5","midi":73,"time":563.5414412500173,"velocity":0.7559055118110236,"duration":0.20616311197920822},{"name":"B4","midi":71,"time":563.7497745000173,"velocity":0.7559055118110236,"duration":0.20616311197920822},{"name":"A4","midi":69,"time":563.9581077500173,"velocity":0.7559055118110236,"duration":0.20616311197920822},{"name":"G#4","midi":68,"time":564.1664410000174,"velocity":0.7559055118110236,"duration":0.36892346354170513},{"name":"B3","midi":59,"time":564.1664410000174,"velocity":0.7559055118110236,"duration":0.8311628619792373},{"name":"D3","midi":50,"time":564.1664410000174,"velocity":0.7559055118110236,"duration":0.8311628619792373},{"name":"E5","midi":76,"time":564.5831075000174,"velocity":0.7559055118110236,"duration":0.8311628619792373},{"name":"C#3","midi":49,"time":564.9997740000174,"velocity":0.7559055118110236,"duration":0.8311628619791236},{"name":"A3","midi":57,"time":564.9997740000174,"velocity":0.7559055118110236,"duration":1.6644958619790486},{"name":"A4","midi":69,"time":565.4164405000174,"velocity":0.7559055118110236,"duration":0.39713525781246517},{"name":"C#5","midi":73,"time":565.8331070000173,"velocity":0.7559055118110236,"duration":0.8311628619791236},{"name":"D3","midi":50,"time":565.8331070000173,"velocity":0.7559055118110236,"duration":0.8311628619791236},{"name":"G#3","midi":56,"time":566.6664400000172,"velocity":0.7559055118110236,"duration":0.8311628619792373},{"name":"E3","midi":52,"time":566.6664400000172,"velocity":0.7559055118110236,"duration":0.8311628619792373},{"name":"C#5","midi":73,"time":566.668610138038,"velocity":0.7559055118110236,"duration":0.20616311197920822},{"name":"B4","midi":71,"time":566.8747732500173,"velocity":0.7559055118110236,"duration":0.20616311197920822},{"name":"A4","midi":69,"time":567.0831065000173,"velocity":0.7559055118110236,"duration":0.20616311197920822},{"name":"B4","midi":71,"time":567.2914397500173,"velocity":0.7559055118110236,"duration":0.20616311197920822},{"name":"A4","midi":69,"time":567.4997730000173,"velocity":0.7559055118110236,"duration":2.4978288619793148},{"name":"A2","midi":45,"time":567.4997730000173,"velocity":0.7559055118110236,"duration":4.991317447916799},{"name":"C#3","midi":49,"time":568.3331060000173,"velocity":0.7559055118110236,"duration":1.664495861979276},{"name":"E3","midi":52,"time":569.1664390000174,"velocity":0.7559055118110236,"duration":0.8246524479167192},{"name":"E4","midi":64,"time":569.9997720000174,"velocity":0.7559055118110236,"duration":2.0811623619791817},{"name":"A4","midi":69,"time":569.9997720000174,"velocity":0.7559055118110236,"duration":2.0811623619791817},{"name":"C#4","midi":61,"time":569.9997720000174,"velocity":0.7559055118110236,"duration":2.0811623619791817},{"name":"A3","midi":57,"time":569.9997720000174,"velocity":0.7559055118110236,"duration":2.0811623619791817},{"name":"E5","midi":76,"time":572.0831045000174,"velocity":0.7559055118110236,"duration":0.4144963619792179},{"name":"C#5","midi":73,"time":572.4997710000174,"velocity":0.7559055118110236,"duration":1.2478293619792566},{"name":"E5","midi":76,"time":572.4997710000174,"velocity":0.7559055118110236,"duration":1.2478293619792566},{"name":"A2","midi":45,"time":572.4997710000174,"velocity":0.7559055118110236,"duration":2.4956587239583996},{"name":"C#3","midi":49,"time":573.3331040000174,"velocity":0.7559055118110236,"duration":0.8311628619792373},{"name":"A5","midi":81,"time":573.7497705000175,"velocity":0.7559055118110236,"duration":0.20616311197920822},{"name":"E5","midi":76,"time":573.9581037500175,"velocity":0.7559055118110236,"duration":0.20616311197920822},{"name":"C#5","midi":73,"time":574.1664370000175,"velocity":0.7559055118110236,"duration":0.4144963619792179},{"name":"E3","midi":52,"time":574.1664370000175,"velocity":0.7559055118110236,"duration":0.8311628619791236},{"name":"E5","midi":76,"time":574.5831035000175,"velocity":0.7559055118110236,"duration":0.20616311197920822},{"name":"C#5","midi":73,"time":574.7914367500175,"velocity":0.7559055118110236,"duration":0.20616311197909454},{"name":"A4","midi":69,"time":574.9997700000174,"velocity":0.7559055118110236,"duration":0.8311628619792373},{"name":"G3","midi":55,"time":574.9997700000174,"velocity":0.7559055118110236,"duration":0.4144963619792179},{"name":"F#3","midi":54,"time":575.4164365000174,"velocity":0.7559055118110236,"duration":0.4144963619792179},{"name":"A4","midi":69,"time":575.8331030000174,"velocity":0.7559055118110236,"duration":0.4144963619792179},{"name":"A3","midi":57,"time":575.8331030000174,"velocity":0.7559055118110236,"duration":0.4144963619792179},{"name":"B4","midi":71,"time":576.2497695000175,"velocity":0.7559055118110236,"duration":0.8311628619792373},{"name":"G3","midi":55,"time":576.2497695000175,"velocity":0.7559055118110236,"duration":0.4144963619792179},{"name":"F#3","midi":54,"time":576.6664360000175,"velocity":0.7559055118110236,"duration":0.4144963619792179},{"name":"C#5","midi":73,"time":577.0831025000175,"velocity":0.7559055118110236,"duration":0.4144963619792179},{"name":"E3","midi":52,"time":577.0831025000175,"velocity":0.7559055118110236,"duration":0.4144963619792179},{"name":"D5","midi":74,"time":577.4997690000175,"velocity":0.7559055118110236,"duration":2.712672526041729},{"name":"F#3","midi":54,"time":577.4997690000175,"velocity":0.7559055118110236,"duration":1.2478293619792566},{"name":"A4","midi":69,"time":577.9164355000175,"velocity":0.7559055118110236,"duration":2.170138020833406},{"name":"F#4","midi":66,"time":578.1247687500176,"velocity":0.7559055118110236,"duration":1.961804770833396},{"name":"D4","midi":62,"time":578.3331020000176,"velocity":0.7559055118110236,"duration":2.0811623619791817},{"name":"A3","midi":57,"time":578.7497685000176,"velocity":0.7559055118110236,"duration":0.20616311197920822},{"name":"F#3","midi":54,"time":578.9581017500176,"velocity":0.7559055118110236,"duration":0.20616311197920822},{"name":"D3","midi":50,"time":579.1664350000176,"velocity":0.7559055118110236,"duration":0.4144963619792179},{"name":"F#3","midi":54,"time":579.5831015000176,"velocity":0.7559055118110236,"duration":0.20616311197920822},{"name":"D3","midi":50,"time":579.7914347500176,"velocity":0.7559055118110236,"duration":0.20616311197920822},{"name":"B2","midi":47,"time":579.9997680000176,"velocity":0.7559055118110236,"duration":0.8311628619791236},{"name":"F#5","midi":78,"time":580.4164345000175,"velocity":0.7559055118110236,"duration":0.4144963619792179},{"name":"E5","midi":76,"time":580.8331010000176,"velocity":0.7559055118110236,"duration":0.4144963619792179},{"name":"B2","midi":47,"time":580.8331010000176,"velocity":0.7559055118110236,"duration":0.4144963619792179},{"name":"D5","midi":74,"time":581.2497675000176,"velocity":0.7559055118110236,"duration":0.4144963619792179},{"name":"C3","midi":48,"time":581.2497675000176,"velocity":0.7559055118110236,"duration":0.8311628619792373},{"name":"E5","midi":76,"time":581.6664340000176,"velocity":0.7559055118110236,"duration":0.4144963619792179},{"name":"F#5","midi":78,"time":582.0831005000176,"velocity":0.7559055118110236,"duration":0.4144963619792179},{"name":"A2","midi":45,"time":582.0831005000176,"velocity":0.7559055118110236,"duration":0.4144963619792179},{"name":"G5","midi":79,"time":582.4997670000176,"velocity":0.7559055118110236,"duration":0.4144963619792179},{"name":"B2","midi":47,"time":582.4997670000176,"velocity":0.7559055118110236,"duration":0.4144963619792179},{"name":"D5","midi":74,"time":582.9164335000177,"velocity":0.7559055118110236,"duration":0.20616311197920822},{"name":"D3","midi":50,"time":582.9164335000177,"velocity":0.7559055118110236,"duration":0.4144963619792179},{"name":"G5","midi":79,"time":583.1247667500177,"velocity":0.7559055118110236,"duration":0.20616311197920822},{"name":"A5","midi":81,"time":583.3331000000177,"velocity":0.7559055118110236,"duration":0.4144963619792179},{"name":"G3","midi":55,"time":583.3331000000177,"velocity":0.7559055118110236,"duration":0.4144963619792179},{"name":"D5","midi":74,"time":583.7497665000177,"velocity":0.7559055118110236,"duration":0.20616311197920822},{"name":"F#3","midi":54,"time":583.7497665000177,"velocity":0.7559055118110236,"duration":0.4144963619792179},{"name":"A5","midi":81,"time":583.9580997500177,"velocity":0.7559055118110236,"duration":0.20616311197920822},{"name":"B5","midi":83,"time":584.1664330000177,"velocity":0.7559055118110236,"duration":1.664495861979276},{"name":"G3","midi":55,"time":584.1664330000177,"velocity":0.7559055118110236,"duration":0.4144963619792179},{"name":"B3","midi":59,"time":584.5830995000177,"velocity":0.7559055118110236,"duration":0.20616311197920822},{"name":"G3","midi":55,"time":584.7914327500177,"velocity":0.7559055118110236,"duration":0.20616311197920822},{"name":"E3","midi":52,"time":584.9997660000178,"velocity":0.7559055118110236,"duration":0.4144963619792179},{"name":"G3","midi":55,"time":585.4164325000178,"velocity":0.7559055118110236,"duration":0.20616311197920822},{"name":"E3","midi":52,"time":585.6247657500178,"velocity":0.7559055118110236,"duration":0.20616311197920822},{"name":"A5","midi":81,"time":585.8330990000178,"velocity":0.7559055118110236,"duration":0.4144963619792179},{"name":"C4","midi":60,"time":585.8330990000178,"velocity":0.7559055118110236,"duration":0.8311628619792373},{"name":"G5","midi":79,"time":586.2497655000178,"velocity":0.7559055118110236,"duration":0.4144963619792179},{"name":"F#5","midi":78,"time":586.6664320000178,"velocity":0.7559055118110236,"duration":0.4144963619792179},{"name":"A3","midi":57,"time":586.6664320000178,"velocity":0.7559055118110236,"duration":0.8311628619792373},{"name":"E5","midi":76,"time":587.0830985000179,"velocity":0.7559055118110236,"duration":0.4144963619792179},{"name":"D#5","midi":75,"time":587.4997650000179,"velocity":0.7559055118110236,"duration":2.35676989062506},{"name":"B3","midi":59,"time":587.4997650000179,"velocity":0.7559055118110236,"duration":1.2478293619792566},{"name":"B4","midi":71,"time":587.9164315000179,"velocity":0.7559055118110236,"duration":1.9531242187500766},{"name":"F#4","midi":66,"time":588.3330980000179,"velocity":0.7559055118110236,"duration":1.5299473046875391},{"name":"A3","midi":57,"time":588.7497645000179,"velocity":0.7559055118110236,"duration":0.20616311197920822},{"name":"G3","midi":55,"time":588.9580977500179,"velocity":0.7559055118110236,"duration":0.20616311197920822},{"name":"A3","midi":57,"time":589.166431000018,"velocity":0.7559055118110236,"duration":0.4144963619792179},{"name":"G3","midi":55,"time":589.583097500018,"velocity":0.7559055118110236,"duration":0.20616311197920822},{"name":"F#3","midi":54,"time":589.791430750018,"velocity":0.7559055118110236,"duration":0.20616311197920822},{"name":"F#5","midi":78,"time":589.999764000018,"velocity":0.7559055118110236,"duration":0.10199648697914654},{"name":"G3","midi":55,"time":589.999764000018,"velocity":0.7559055118110236,"duration":1.6644958619790486},{"name":"E5","midi":76,"time":590.1039306250179,"velocity":0.7559055118110236,"duration":0.10199648697914654},{"name":"F#5","midi":78,"time":590.2080972500179,"velocity":0.7559055118110236,"duration":0.10199648697914654},{"name":"E5","midi":76,"time":590.3122638750178,"velocity":0.7559055118110236,"duration":0.5186629869791659},{"name":"E5","midi":76,"time":590.8330970000178,"velocity":0.7559055118110236,"duration":0.4144963619792179},{"name":"B3","midi":59,"time":590.8330970000178,"velocity":0.7559055118110236,"duration":0.8311628619792373},{"name":"D5","midi":74,"time":591.2497635000178,"velocity":0.7559055118110236,"duration":0.4144963619792179},{"name":"C5","midi":72,"time":591.6664300000178,"velocity":0.7559055118110236,"duration":0.4144963619792179},{"name":"E4","midi":64,"time":591.6664300000178,"velocity":0.7559055118110236,"duration":1.247829361979143},{"name":"G#3","midi":56,"time":591.6664300000178,"velocity":0.7559055118110236,"duration":0.8311628619792373},{"name":"B4","midi":71,"time":592.0830965000179,"velocity":0.7559055118110236,"duration":0.4144963619792179},{"name":"C5","midi":72,"time":592.4997630000179,"velocity":0.7559055118110236,"duration":0.10199648697914654},{"name":"A3","midi":57,"time":592.4997630000179,"velocity":0.7559055118110236,"duration":1.247829361979143},{"name":"B4","midi":71,"time":592.6039296250178,"velocity":0.7559055118110236,"duration":0.10199648697914654},{"name":"C5","midi":72,"time":592.7080962500178,"velocity":0.7559055118110236,"duration":1.039496111979247},{"name":"C4","midi":60,"time":592.9164295000178,"velocity":0.7559055118110236,"duration":0.4144963619792179},{"name":"E4","midi":64,"time":593.3330960000178,"velocity":0.7559055118110236,"duration":2.4956587239583996},{"name":"A4","midi":69,"time":593.7497625000178,"velocity":0.7559055118110236,"duration":0.20616311197920822},{"name":"F#3","midi":54,"time":593.7497625000178,"velocity":0.7559055118110236,"duration":0.4144963619792179},{"name":"C5","midi":72,"time":593.9580957500178,"velocity":0.7559055118110236,"duration":0.20616311197920822},{"name":"E5","midi":76,"time":594.1664290000178,"velocity":0.7559055118110236,"duration":0.4144963619792179},{"name":"G3","midi":55,"time":594.1664290000178,"velocity":0.7559055118110236,"duration":0.4144963619792179},{"name":"C5","midi":72,"time":594.5830955000179,"velocity":0.7559055118110236,"duration":0.20616311197920822},{"name":"E3","midi":52,"time":594.5830955000179,"velocity":0.7559055118110236,"duration":0.4144963619792179},{"name":"E5","midi":76,"time":594.7914287500179,"velocity":0.7559055118110236,"duration":0.20616311197920822},{"name":"A5","midi":81,"time":594.9997620000179,"velocity":0.7559055118110236,"duration":0.3472220833333495},{"name":"F#3","midi":54,"time":594.9997620000179,"velocity":0.7559055118110236,"duration":2.4956587239585133},{"name":"C5","midi":72,"time":595.4164285000179,"velocity":0.7559055118110236,"duration":0.694444166666699},{"name":"A3","midi":57,"time":595.8330950000179,"velocity":0.7559055118110236,"duration":0.8311628619792373},{"name":"B4","midi":71,"time":596.2497615000179,"velocity":0.7559055118110236,"duration":0.8203121718750026},{"name":"D4","midi":62,"time":596.666428000018,"velocity":0.7559055118110236,"duration":1.2478293619792566},{"name":"A4","midi":69,"time":597.083094500018,"velocity":0.7559055118110236,"duration":0.36892346354170513},{"name":"B4","midi":71,"time":597.4997610000181,"velocity":0.7559055118110236,"duration":0.10199648697914654},{"name":"G3","midi":55,"time":597.4997610000181,"velocity":0.7559055118110236,"duration":1.247829361979143},{"name":"A4","midi":69,"time":597.6039276250181,"velocity":0.7559055118110236,"duration":0.10199648697914654},{"name":"B4","midi":71,"time":597.708094250018,"velocity":0.7559055118110236,"duration":1.039496111979247},{"name":"B3","midi":59,"time":597.916427500018,"velocity":0.7559055118110236,"duration":0.4144963619792179},{"name":"D4","midi":62,"time":598.333094000018,"velocity":0.7559055118110236,"duration":2.4956587239583996},{"name":"G4","midi":67,"time":598.749760500018,"velocity":0.7559055118110236,"duration":0.20616311197920822},{"name":"E3","midi":52,"time":598.749760500018,"velocity":0.7559055118110236,"duration":0.4144963619792179},{"name":"B4","midi":71,"time":598.9580937500181,"velocity":0.7559055118110236,"duration":0.20616311197920822},{"name":"D5","midi":74,"time":599.1664270000181,"velocity":0.7559055118110236,"duration":0.4144963619792179},{"name":"F#3","midi":54,"time":599.1664270000181,"velocity":0.7559055118110236,"duration":0.4144963619792179},{"name":"B4","midi":71,"time":599.5830935000181,"velocity":0.7559055118110236,"duration":0.20616311197920822},{"name":"D3","midi":50,"time":599.5830935000181,"velocity":0.7559055118110236,"duration":0.4144963619792179},{"name":"D5","midi":74,"time":599.7914267500181,"velocity":0.7559055118110236,"duration":0.20616311197920822},{"name":"G5","midi":79,"time":599.9997600000181,"velocity":0.7559055118110236,"duration":0.3472220833333495},{"name":"E3","midi":52,"time":599.9997600000181,"velocity":0.7559055118110236,"duration":2.495658723958286},{"name":"B4","midi":71,"time":600.4164265000181,"velocity":0.7559055118110236,"duration":0.694444166666699},{"name":"G3","midi":55,"time":600.8330930000182,"velocity":0.7559055118110236,"duration":0.8311628619792373},{"name":"A4","midi":69,"time":601.2497595000182,"velocity":0.7559055118110236,"duration":0.8224823098958041},{"name":"C4","midi":60,"time":601.6664260000182,"velocity":0.7559055118110236,"duration":1.247829361979143},{"name":"G4","midi":67,"time":602.0830925000181,"velocity":0.7559055118110236,"duration":0.3797741536458261},{"name":"B4","midi":71,"time":602.4997590000181,"velocity":0.7559055118110236,"duration":0.13671869531253833},{"name":"F#3","midi":54,"time":602.4997590000181,"velocity":0.7559055118110236,"duration":1.2478293619793703},{"name":"A4","midi":69,"time":602.6386478333515,"velocity":0.7559055118110236,"duration":0.13671869531253833},{"name":"G4","midi":67,"time":602.7775366666848,"velocity":0.7559055118110236,"duration":0.13671869531253833},{"name":"A4","midi":69,"time":602.9164255000181,"velocity":0.7559055118110236,"duration":0.1236978671875022},{"name":"A3","midi":57,"time":602.9164255000181,"velocity":0.7559055118110236,"duration":0.4144963619793316},{"name":"B4","midi":71,"time":603.0205921250181,"velocity":0.7559055118110236,"duration":0.12369786718761588},{"name":"A4","midi":69,"time":603.1247587500181,"velocity":0.7559055118110236,"duration":0.12369786718761588},{"name":"B4","midi":71,"time":603.2289253750182,"velocity":0.7559055118110236,"duration":0.12369786718761588},{"name":"A4","midi":69,"time":603.3330920000183,"velocity":0.7559055118110236,"duration":0.4144963619792179},{"name":"C4","midi":60,"time":603.3330920000183,"velocity":0.7559055118110236,"duration":2.4956587239583996},{"name":"F#4","midi":66,"time":603.7497585000183,"velocity":0.7559055118110236,"duration":0.20616311197920822},{"name":"A3","midi":57,"time":603.7497585000183,"velocity":0.7559055118110236,"duration":0.4144963619792179},{"name":"A4","midi":69,"time":603.9580917500183,"velocity":0.7559055118110236,"duration":0.20616311197920822},{"name":"C5","midi":72,"time":604.1664250000183,"velocity":0.7559055118110236,"duration":0.4144963619792179},{"name":"F#3","midi":54,"time":604.1664250000183,"velocity":0.7559055118110236,"duration":0.4144963619792179},{"name":"A4","midi":69,"time":604.5830915000183,"velocity":0.7559055118110236,"duration":0.20616311197920822},{"name":"E3","midi":52,"time":604.5830915000183,"velocity":0.7559055118110236,"duration":0.4144963619792179},{"name":"C5","midi":72,"time":604.7914247500183,"velocity":0.7559055118110236,"duration":0.20616311197920822},{"name":"F#5","midi":78,"time":604.9997580000183,"velocity":0.7559055118110236,"duration":0.3472220833333495},{"name":"D#3","midi":51,"time":604.9997580000183,"velocity":0.7559055118110236,"duration":2.495658723958286},{"name":"A4","midi":69,"time":605.4164245000184,"velocity":0.7559055118110236,"duration":0.7378469270832966},{"name":"F#3","midi":54,"time":605.8330910000184,"velocity":0.7559055118110236,"duration":0.8311628619791236},{"name":"G4","midi":67,"time":606.2497575000183,"velocity":0.7559055118110236,"duration":0.8311628619792373},{"name":"B3","midi":59,"time":606.6664240000183,"velocity":0.7559055118110236,"duration":1.6644958619791623},{"name":"F#4","midi":66,"time":607.0830905000183,"velocity":0.7559055118110236,"duration":0.3906248437499471},{"name":"G4","midi":67,"time":607.4997570000183,"velocity":0.7559055118110236,"duration":0.3906248437499471},{"name":"E3","midi":52,"time":607.4997570000183,"velocity":0.7559055118110236,"duration":0.8311628619791236},{"name":"C5","midi":72,"time":607.9164235000183,"velocity":0.7559055118110236,"duration":0.8311628619792373},{"name":"A3","midi":57,"time":608.3330900000183,"velocity":0.7559055118110236,"duration":0.8311628619792373},{"name":"F#3","midi":54,"time":608.3330900000183,"velocity":0.7559055118110236,"duration":0.8311628619792373},{"name":"B4","midi":71,"time":608.7497565000183,"velocity":0.7559055118110236,"duration":0.4144963619792179},{"name":"D#5","midi":75,"time":609.1664230000183,"velocity":0.7559055118110236,"duration":0.4144963619792179},{"name":"B3","midi":59,"time":609.1664230000183,"velocity":0.7559055118110236,"duration":0.8311628619792373},{"name":"G3","midi":55,"time":609.1664230000183,"velocity":0.7559055118110236,"duration":0.8311628619792373},{"name":"E5","midi":76,"time":609.5830895000183,"velocity":0.7559055118110236,"duration":0.4144963619792179},{"name":"A4","midi":69,"time":609.9997560000184,"velocity":0.7559055118110236,"duration":0.4144963619792179},{"name":"E3","midi":52,"time":609.9997560000184,"velocity":0.7559055118110236,"duration":0.8311628619792373},{"name":"C3","midi":48,"time":609.9997560000184,"velocity":0.7559055118110236,"duration":0.8311628619792373},{"name":"G5","midi":79,"time":610.4164225000184,"velocity":0.7559055118110236,"duration":0.8311628619792373},{"name":"A3","midi":57,"time":610.8330890000184,"velocity":0.7559055118110236,"duration":0.8311628619792373},{"name":"A2","midi":45,"time":610.8330890000184,"velocity":0.7559055118110236,"duration":0.8311628619792373},{"name":"F#5","midi":78,"time":611.2497555000184,"velocity":0.7559055118110236,"duration":0.4144963619792179},{"name":"E5","midi":76,"time":611.6664220000184,"velocity":0.7559055118110236,"duration":0.4144963619792179},{"name":"B2","midi":47,"time":611.6664220000184,"velocity":0.7559055118110236,"duration":0.8311628619792373},{"name":"F#3","midi":54,"time":611.6664220000184,"velocity":0.7559055118110236,"duration":0.8311628619792373},{"name":"D#5","midi":75,"time":612.0830885000184,"velocity":0.7559055118110236,"duration":0.4144963619792179},{"name":"E5","midi":76,"time":612.4997550000185,"velocity":0.7559055118110236,"duration":2.4956587239583996},{"name":"E3","midi":52,"time":612.4997550000185,"velocity":0.7559055118110236,"duration":1.2478293619792566},{"name":"E2","midi":40,"time":612.4997550000185,"velocity":0.7559055118110236,"duration":1.2478293619792566},{"name":"B4","midi":71,"time":612.9164215000185,"velocity":0.7559055118110236,"duration":1.9531242187500766},{"name":"G4","midi":67,"time":613.3330880000185,"velocity":0.7559055118110236,"duration":1.5190966145834182},{"name":"E3","midi":52,"time":613.7497545000185,"velocity":0.7559055118110236,"duration":0.20616311197920822},{"name":"G3","midi":55,"time":613.9580877500185,"velocity":0.7559055118110236,"duration":0.20616311197920822},{"name":"B3","midi":59,"time":614.1664210000185,"velocity":0.7559055118110236,"duration":0.4144963619792179},{"name":"G3","midi":55,"time":614.5830875000186,"velocity":0.7559055118110236,"duration":0.20616311197920822},{"name":"B3","midi":59,"time":614.7914207500186,"velocity":0.7559055118110236,"duration":0.20616311197909454},{"name":"G5","midi":79,"time":614.9997540000185,"velocity":0.7559055118110236,"duration":3.3246514479168354},{"name":"E4","midi":64,"time":614.9997540000185,"velocity":0.7559055118110236,"duration":1.664495861979276},{"name":"E5","midi":76,"time":615.4164205000185,"velocity":0.7559055118110236,"duration":0.20616311197920822},{"name":"B4","midi":71,"time":615.6247537500185,"velocity":0.7559055118110236,"duration":0.20616311197920822},{"name":"G4","midi":67,"time":615.8330870000185,"velocity":0.7559055118110236,"duration":0.4144963619792179},{"name":"B4","midi":71,"time":616.2497535000185,"velocity":0.7559055118110236,"duration":0.20616311197920822},{"name":"G4","midi":67,"time":616.4580867500185,"velocity":0.7559055118110236,"duration":0.20616311197920822},{"name":"E4","midi":64,"time":616.6664200000185,"velocity":0.7559055118110236,"duration":0.5859372656250343},{"name":"G4","midi":67,"time":617.0830865000186,"velocity":0.7559055118110236,"duration":0.20616311197920822},{"name":"E4","midi":64,"time":617.2914197500186,"velocity":0.7559055118110236,"duration":0.20616311197920822},{"name":"A4","midi":69,"time":617.4997530000186,"velocity":0.7559055118110236,"duration":2.907984947916816},{"name":"C#3","midi":49,"time":617.9164195000186,"velocity":0.7559055118110236,"duration":0.20616311197920822},{"name":"E3","midi":52,"time":618.1247527500186,"velocity":0.7559055118110236,"duration":0.20616311197920822},{"name":"F#5","midi":78,"time":618.3330860000186,"velocity":0.7559055118110236,"duration":0.4144963619792179},{"name":"A3","midi":57,"time":618.3330860000186,"velocity":0.7559055118110236,"duration":0.4144963619792179},{"name":"G5","midi":79,"time":618.7497525000186,"velocity":0.7559055118110236,"duration":0.4144963619792179},{"name":"E3","midi":52,"time":618.7497525000186,"velocity":0.7559055118110236,"duration":0.20616311197920822},{"name":"A3","midi":57,"time":618.9580857500187,"velocity":0.7559055118110236,"duration":0.20616311197920822},{"name":"E5","midi":76,"time":619.1664190000187,"velocity":0.7559055118110236,"duration":0.4144963619792179},{"name":"C#4","midi":61,"time":619.1664190000187,"velocity":0.7559055118110236,"duration":0.4144963619792179},{"name":"G5","midi":79,"time":619.5830855000187,"velocity":0.7559055118110236,"duration":0.4144963619792179},{"name":"A3","midi":57,"time":619.5830855000187,"velocity":0.7559055118110236,"duration":0.20616311197920822},{"name":"C#4","midi":61,"time":619.7914187500187,"velocity":0.7559055118110236,"duration":0.20616311197920822},{"name":"F#5","midi":78,"time":619.9997520000187,"velocity":0.7559055118110236,"duration":3.3246514479168354},{"name":"D4","midi":62,"time":619.9997520000187,"velocity":0.7559055118110236,"duration":1.664495861979276},{"name":"D5","midi":74,"time":620.4164185000187,"velocity":0.7559055118110236,"duration":0.20616311197920822},{"name":"A4","midi":69,"time":620.6247517500187,"velocity":0.7559055118110236,"duration":0.20616311197920822},{"name":"F#4","midi":66,"time":620.8330850000187,"velocity":0.7559055118110236,"duration":0.4144963619792179},{"name":"A4","midi":69,"time":621.2497515000188,"velocity":0.7559055118110236,"duration":0.20616311197920822},{"name":"F#4","midi":66,"time":621.4580847500188,"velocity":0.7559055118110236,"duration":0.20616311197920822},{"name":"D4","midi":62,"time":621.6664180000188,"velocity":0.7559055118110236,"duration":0.5859372656250343},{"name":"F#4","midi":66,"time":622.0830845000188,"velocity":0.7559055118110236,"duration":0.20616311197920822},{"name":"D4","midi":62,"time":622.2914177500188,"velocity":0.7559055118110236,"duration":0.20616311197920822},{"name":"G4","midi":67,"time":622.4997510000188,"velocity":0.7559055118110236,"duration":2.907984947916816},{"name":"B2","midi":47,"time":622.9164175000188,"velocity":0.7559055118110236,"duration":0.20616311197920822},{"name":"D3","midi":50,"time":623.1247507500188,"velocity":0.7559055118110236,"duration":0.20616311197920822},{"name":"E5","midi":76,"time":623.3330840000189,"velocity":0.7559055118110236,"duration":0.4144963619792179},{"name":"G3","midi":55,"time":623.3330840000189,"velocity":0.7559055118110236,"duration":0.4144963619792179},{"name":"F#5","midi":78,"time":623.7497505000189,"velocity":0.7559055118110236,"duration":0.4144963619792179},{"name":"D3","midi":50,"time":623.7497505000189,"velocity":0.7559055118110236,"duration":0.20616311197920822},{"name":"G3","midi":55,"time":623.9580837500189,"velocity":0.7559055118110236,"duration":0.20616311197920822},{"name":"D5","midi":74,"time":624.1664170000189,"velocity":0.7559055118110236,"duration":0.4144963619792179},{"name":"B3","midi":59,"time":624.1664170000189,"velocity":0.7559055118110236,"duration":0.4144963619792179},{"name":"F#5","midi":78,"time":624.5830835000189,"velocity":0.7559055118110236,"duration":0.4144963619792179},{"name":"G3","midi":55,"time":624.5830835000189,"velocity":0.7559055118110236,"duration":0.20616311197920822},{"name":"B3","midi":59,"time":624.7914167500189,"velocity":0.7559055118110236,"duration":0.20616311197920822},{"name":"E5","midi":76,"time":624.9997500000189,"velocity":0.7559055118110236,"duration":2.170138020833406},{"name":"C#4","midi":61,"time":624.9997500000189,"velocity":0.7559055118110236,"duration":0.4144963619792179},{"name":"A3","midi":57,"time":625.416416500019,"velocity":0.7559055118110236,"duration":0.20616311197920822},{"name":"C#4","midi":61,"time":625.624749750019,"velocity":0.7559055118110236,"duration":0.20616311197920822},{"name":"E4","midi":64,"time":625.833083000019,"velocity":0.7559055118110236,"duration":0.4144963619792179},{"name":"C#4","midi":61,"time":626.249749500019,"velocity":0.7559055118110236,"duration":0.20616311197920822},{"name":"E4","midi":64,"time":626.458082750019,"velocity":0.7559055118110236,"duration":0.20616311197920822},{"name":"A4","midi":69,"time":626.666416000019,"velocity":0.7559055118110236,"duration":0.4144963619792179},{"name":"E4","midi":64,"time":627.083082500019,"velocity":0.7559055118110236,"duration":0.20616311197909454},{"name":"C#4","midi":61,"time":627.083082500019,"velocity":0.7559055118110236,"duration":0.20616311197909454},{"name":"A4","midi":69,"time":627.2914157500189,"velocity":0.7559055118110236,"duration":0.20616311197920822},{"name":"A3","midi":57,"time":627.2914157500189,"velocity":0.7559055118110236,"duration":0.20616311197920822},{"name":"C#5","midi":73,"time":627.4997490000189,"velocity":0.7559055118110236,"duration":0.5208331249999674},{"name":"F#3","midi":54,"time":627.4997490000189,"velocity":0.7559055118110236,"duration":0.4144963619792179},{"name":"A4","midi":69,"time":627.916415500019,"velocity":0.7559055118110236,"duration":0.20616311197909454},{"name":"A3","midi":57,"time":627.916415500019,"velocity":0.7559055118110236,"duration":0.20616311197909454},{"name":"C#5","midi":73,"time":628.1247487500189,"velocity":0.7559055118110236,"duration":0.20616311197920822},{"name":"F#3","midi":54,"time":628.1247487500189,"velocity":0.7559055118110236,"duration":0.20616311197920822},{"name":"F#5","midi":78,"time":628.3330820000189,"velocity":0.7559055118110236,"duration":0.5208331249999674},{"name":"D3","midi":50,"time":628.3330820000189,"velocity":0.7559055118110236,"duration":0.4144963619792179},{"name":"D5","midi":74,"time":628.7497485000189,"velocity":0.7559055118110236,"duration":0.20616311197909454},{"name":"F#3","midi":54,"time":628.7497485000189,"velocity":0.7559055118110236,"duration":0.20616311197909454},{"name":"F#5","midi":78,"time":628.9580817500188,"velocity":0.7559055118110236,"duration":0.20616311197920822},{"name":"D3","midi":50,"time":628.9580817500188,"velocity":0.7559055118110236,"duration":0.20616311197920822},{"name":"A5","midi":81,"time":629.1664150000188,"velocity":0.7559055118110236,"duration":0.3472220833333495},{"name":"B2","midi":47,"time":629.1664150000188,"velocity":0.7559055118110236,"duration":0.4144963619792179},{"name":"C5","midi":72,"time":629.5830815000188,"velocity":0.7559055118110236,"duration":0.694444166666699},{"name":"D3","midi":50,"time":629.5830815000188,"velocity":0.7559055118110236,"duration":0.20616311197920822},{"name":"B2","midi":47,"time":629.7914147500188,"velocity":0.7559055118110236,"duration":0.20616311197920822},{"name":"G2","midi":43,"time":629.9997480000188,"velocity":0.7559055118110236,"duration":0.8311628619792373},{"name":"B4","midi":71,"time":630.4164145000188,"velocity":0.7559055118110236,"duration":0.694444166666699},{"name":"G3","midi":55,"time":630.8330810000189,"velocity":0.7559055118110236,"duration":0.8311628619792373},{"name":"E3","midi":52,"time":630.8330810000189,"velocity":0.7559055118110236,"duration":0.8311628619792373},{"name":"C#5","midi":73,"time":631.2497475000189,"velocity":0.7559055118110236,"duration":0.711805270833338},{"name":"D3","midi":50,"time":631.6664140000189,"velocity":0.7559055118110236,"duration":0.8311628619792373},{"name":"F#3","midi":54,"time":631.6664140000189,"velocity":0.7559055118110236,"duration":0.8311628619792373},{"name":"D5","midi":74,"time":632.0830805000189,"velocity":0.7559055118110236,"duration":1.0416662500000484},{"name":"A2","midi":45,"time":632.4997470000189,"velocity":0.7559055118110236,"duration":0.4144963619792179},{"name":"E3","midi":52,"time":632.4997470000189,"velocity":0.7559055118110236,"duration":0.8246524479167192},{"name":"C#3","midi":49,"time":632.916413500019,"velocity":0.7559055118110236,"duration":0.4144963619792179},{"name":"C#5","midi":73,"time":633.333080000019,"velocity":0.7559055118110236,"duration":0.20616311197920822},{"name":"E3","midi":52,"time":633.333080000019,"velocity":0.7559055118110236,"duration":0.4144963619792179},{"name":"B4","midi":71,"time":633.541413250019,"velocity":0.7559055118110236,"duration":0.20616311197920822},{"name":"A4","midi":69,"time":633.749746500019,"velocity":0.7559055118110236,"duration":0.20616311197920822},{"name":"G3","midi":55,"time":633.749746500019,"velocity":0.7559055118110236,"duration":0.4144963619792179},{"name":"B4","midi":71,"time":633.958079750019,"velocity":0.7559055118110236,"duration":0.20616311197920822},{"name":"C#5","midi":73,"time":634.166413000019,"velocity":0.7559055118110236,"duration":0.20616311197920822},{"name":"F#3","midi":54,"time":634.166413000019,"velocity":0.7559055118110236,"duration":0.4144963619792179},{"name":"B4","midi":71,"time":634.374746250019,"velocity":0.7559055118110236,"duration":0.20616311197920822},{"name":"A4","midi":69,"time":634.583079500019,"velocity":0.7559055118110236,"duration":0.20616311197920822},{"name":"E3","midi":52,"time":634.583079500019,"velocity":0.7559055118110236,"duration":0.4144963619792179},{"name":"B4","midi":71,"time":634.791412750019,"velocity":0.7559055118110236,"duration":0.20616311197920822},{"name":"C5","midi":72,"time":634.9997460000191,"velocity":0.7559055118110236,"duration":0.4144963619792179},{"name":"D3","midi":50,"time":634.9997460000191,"velocity":0.7559055118110236,"duration":0.4144963619792179},{"name":"F#5","midi":78,"time":635.4164125000191,"velocity":0.7559055118110236,"duration":0.20616311197920822},{"name":"A3","midi":57,"time":635.4164125000191,"velocity":0.7559055118110236,"duration":0.4144963619792179},{"name":"G5","midi":79,"time":635.6247457500191,"velocity":0.7559055118110236,"duration":0.20616311197920822},{"name":"A5","midi":81,"time":635.8330790000191,"velocity":0.7559055118110236,"duration":0.20616311197920822},{"name":"D3","midi":50,"time":635.8330790000191,"velocity":0.7559055118110236,"duration":0.4144963619792179},{"name":"G5","midi":79,"time":636.0414122500191,"velocity":0.7559055118110236,"duration":0.20616311197920822},{"name":"F#5","midi":78,"time":636.2497455000191,"velocity":0.7559055118110236,"duration":0.20616311197920822},{"name":"C3","midi":48,"time":636.2497455000191,"velocity":0.7559055118110236,"duration":0.4144963619792179},{"name":"E5","midi":76,"time":636.4580787500191,"velocity":0.7559055118110236,"duration":0.20616311197920822},{"name":"D5","midi":74,"time":636.6664120000191,"velocity":0.7559055118110236,"duration":0.4144963619792179},{"name":"B2","midi":47,"time":636.6664120000191,"velocity":0.7559055118110236,"duration":0.4144963619792179},{"name":"C5","midi":72,"time":637.0830785000192,"velocity":0.7559055118110236,"duration":0.8246524479167192},{"name":"A2","midi":45,"time":637.0830785000192,"velocity":0.7559055118110236,"duration":0.4144963619792179},{"name":"G2","midi":43,"time":637.4997450000192,"velocity":0.7559055118110236,"duration":0.4144963619792179},{"name":"B2","midi":47,"time":637.9164115000192,"velocity":0.7559055118110236,"duration":0.4144963619792179},{"name":"B4","midi":71,"time":638.3330780000192,"velocity":0.7559055118110236,"duration":0.20616311197920822},{"name":"D3","midi":50,"time":638.3330780000192,"velocity":0.7559055118110236,"duration":0.4144963619792179},{"name":"A4","midi":69,"time":638.5414112500192,"velocity":0.7559055118110236,"duration":0.20616311197920822},{"name":"G4","midi":67,"time":638.7497445000192,"velocity":0.7559055118110236,"duration":0.20616311197920822},{"name":"F#3","midi":54,"time":638.7497445000192,"velocity":0.7559055118110236,"duration":0.4144963619792179},{"name":"A4","midi":69,"time":638.9580777500192,"velocity":0.7559055118110236,"duration":0.20616311197920822},{"name":"B4","midi":71,"time":639.1664110000193,"velocity":0.7559055118110236,"duration":0.20616311197920822},{"name":"E3","midi":52,"time":639.1664110000193,"velocity":0.7559055118110236,"duration":0.4144963619792179},{"name":"A4","midi":69,"time":639.3747442500193,"velocity":0.7559055118110236,"duration":0.20616311197920822},{"name":"G4","midi":67,"time":639.5830775000193,"velocity":0.7559055118110236,"duration":0.20616311197920822},{"name":"D3","midi":50,"time":639.5830775000193,"velocity":0.7559055118110236,"duration":0.4144963619792179},{"name":"A4","midi":69,"time":639.7914107500193,"velocity":0.7559055118110236,"duration":0.20616311197920822},{"name":"B4","midi":71,"time":639.9997440000193,"velocity":0.7559055118110236,"duration":0.4144963619792179},{"name":"C#3","midi":49,"time":639.9997440000193,"velocity":0.7559055118110236,"duration":0.4144963619792179},{"name":"E5","midi":76,"time":640.4164105000193,"velocity":0.7559055118110236,"duration":0.20616311197920822},{"name":"G3","midi":55,"time":640.4164105000193,"velocity":0.7559055118110236,"duration":0.4144963619792179},{"name":"F#5","midi":78,"time":640.6247437500193,"velocity":0.7559055118110236,"duration":0.20616311197920822},{"name":"G5","midi":79,"time":640.8330770000193,"velocity":0.7559055118110236,"duration":0.20616311197920822},{"name":"C#3","midi":49,"time":640.8330770000193,"velocity":0.7559055118110236,"duration":0.4144963619792179},{"name":"F#5","midi":78,"time":641.0414102500193,"velocity":0.7559055118110236,"duration":0.20616311197920822},{"name":"E5","midi":76,"time":641.2497435000193,"velocity":0.7559055118110236,"duration":0.20616311197920822},{"name":"B2","midi":47,"time":641.2497435000193,"velocity":0.7559055118110236,"duration":0.4144963619792179},{"name":"D5","midi":74,"time":641.4580767500194,"velocity":0.7559055118110236,"duration":0.20616311197920822},{"name":"C#5","midi":73,"time":641.6664100000194,"velocity":0.7559055118110236,"duration":0.4144963619792179},{"name":"A2","midi":45,"time":641.6664100000194,"velocity":0.7559055118110236,"duration":0.4144963619792179},{"name":"B4","midi":71,"time":642.0830765000194,"velocity":0.7559055118110236,"duration":0.4144963619792179},{"name":"G2","midi":43,"time":642.0830765000194,"velocity":0.7559055118110236,"duration":0.4144963619792179},{"name":"B4","midi":71,"time":642.4997430000194,"velocity":0.7559055118110236,"duration":0.20616311197920822},{"name":"F#2","midi":42,"time":642.4997430000194,"velocity":0.7559055118110236,"duration":0.4144963619792179},{"name":"A4","midi":69,"time":642.7080762500194,"velocity":0.7559055118110236,"duration":0.20616311197920822},{"name":"D5","midi":74,"time":642.9164095000194,"velocity":0.7559055118110236,"duration":0.20616311197920822},{"name":"F#3","midi":54,"time":642.9164095000194,"velocity":0.7559055118110236,"duration":0.4144963619792179},{"name":"E5","midi":76,"time":643.1247427500194,"velocity":0.7559055118110236,"duration":0.20616311197920822},{"name":"F#5","midi":78,"time":643.3330760000194,"velocity":0.7559055118110236,"duration":0.20616311197920822},{"name":"B2","midi":47,"time":643.3330760000194,"velocity":0.7559055118110236,"duration":0.4144963619792179},{"name":"E5","midi":76,"time":643.5414092500195,"velocity":0.7559055118110236,"duration":0.20616311197920822},{"name":"D5","midi":74,"time":643.7497425000195,"velocity":0.7559055118110236,"duration":0.20616311197920822},{"name":"A2","midi":45,"time":643.7497425000195,"velocity":0.7559055118110236,"duration":0.4144963619792179},{"name":"C#5","midi":73,"time":643.9580757500195,"velocity":0.7559055118110236,"duration":0.20616311197920822},{"name":"B4","midi":71,"time":644.1664090000195,"velocity":0.7559055118110236,"duration":0.4144963619792179},{"name":"G2","midi":43,"time":644.1664090000195,"velocity":0.7559055118110236,"duration":0.4144963619792179},{"name":"A4","midi":69,"time":644.5830755000195,"velocity":0.7559055118110236,"duration":0.47743036458336974},{"name":"F#2","midi":42,"time":644.5830755000195,"velocity":0.7559055118110236,"duration":0.4144963619792179},{"name":"E2","midi":40,"time":644.9997420000195,"velocity":0.7559055118110236,"duration":0.4144963619792179},{"name":"G4","midi":67,"time":645.2080752500195,"velocity":0.7559055118110236,"duration":0.20616311197920822},{"name":"C#5","midi":73,"time":645.4164085000195,"velocity":0.7559055118110236,"duration":0.20616311197920822},{"name":"E3","midi":52,"time":645.4164085000195,"velocity":0.7559055118110236,"duration":0.4144963619792179},{"name":"D5","midi":74,"time":645.6247417500196,"velocity":0.7559055118110236,"duration":0.20616311197920822},{"name":"E5","midi":76,"time":645.8330750000196,"velocity":0.7559055118110236,"duration":0.20616311197920822},{"name":"A2","midi":45,"time":645.8330750000196,"velocity":0.7559055118110236,"duration":0.4144963619792179},{"name":"D5","midi":74,"time":646.0414082500196,"velocity":0.7559055118110236,"duration":0.20616311197920822},{"name":"C#5","midi":73,"time":646.2497415000196,"velocity":0.7559055118110236,"duration":0.20616311197920822},{"name":"G2","midi":43,"time":646.2497415000196,"velocity":0.7559055118110236,"duration":0.4144963619792179},{"name":"B4","midi":71,"time":646.4580747500196,"velocity":0.7559055118110236,"duration":0.20616311197920822},{"name":"A4","midi":69,"time":646.6664080000196,"velocity":0.7559055118110236,"duration":0.4144963619792179},{"name":"F#2","midi":42,"time":646.6664080000196,"velocity":0.7559055118110236,"duration":0.4144963619792179},{"name":"G4","midi":67,"time":647.0830745000196,"velocity":0.7559055118110236,"duration":0.4144963619792179},{"name":"E2","midi":40,"time":647.0830745000196,"velocity":0.7559055118110236,"duration":0.4144963619792179},{"name":"F#4","midi":66,"time":647.4997410000196,"velocity":0.7559055118110236,"duration":1.2478293619792566},{"name":"D2","midi":38,"time":647.4997410000196,"velocity":0.7559055118110236,"duration":0.4144963619792179},{"name":"A2","midi":45,"time":647.9164075000197,"velocity":0.7559055118110236,"duration":0.4144963619792179},{"name":"D3","midi":50,"time":648.3330740000197,"velocity":0.7559055118110236,"duration":0.4144963619792179},{"name":"D4","midi":62,"time":648.7497405000197,"velocity":0.7559055118110236,"duration":0.20616311197920822},{"name":"F#3","midi":54,"time":648.7497405000197,"velocity":0.7559055118110236,"duration":0.4144963619792179},{"name":"F#4","midi":66,"time":648.9580737500197,"velocity":0.7559055118110236,"duration":0.20616311197920822},{"name":"G4","midi":67,"time":649.1664070000197,"velocity":0.7559055118110236,"duration":0.4144963619792179},{"name":"E3","midi":52,"time":649.1664070000197,"velocity":0.7559055118110236,"duration":0.4144963619792179},{"name":"D4","midi":62,"time":649.5830735000197,"velocity":0.7559055118110236,"duration":0.20616311197920822},{"name":"G3","midi":55,"time":649.5830735000197,"velocity":0.7559055118110236,"duration":0.4144963619792179},{"name":"G4","midi":67,"time":649.7914067500197,"velocity":0.7559055118110236,"duration":0.20616311197920822},{"name":"A4","midi":69,"time":649.9997400000198,"velocity":0.7559055118110236,"duration":0.8311628619792373},{"name":"F#3","midi":54,"time":649.9997400000198,"velocity":0.7559055118110236,"duration":0.4144963619792179},{"name":"A3","midi":57,"time":650.4164065000198,"velocity":0.7559055118110236,"duration":0.4144963619792179},{"name":"A4","midi":69,"time":650.8330730000198,"velocity":0.7559055118110236,"duration":0.4144963619792179},{"name":"G3","midi":55,"time":650.8330730000198,"velocity":0.7559055118110236,"duration":0.4144963619792179},{"name":"B4","midi":71,"time":651.2497395000198,"velocity":0.7559055118110236,"duration":0.8311628619792373},{"name":"F#3","midi":54,"time":651.2497395000198,"velocity":0.7559055118110236,"duration":0.4144963619792179},{"name":"E3","midi":52,"time":651.6664060000198,"velocity":0.7559055118110236,"duration":0.4144963619792179},{"name":"C5","midi":72,"time":652.0830725000199,"velocity":0.7559055118110236,"duration":0.4144963619792179},{"name":"D3","midi":50,"time":652.0830725000199,"velocity":0.7559055118110236,"duration":0.4144963619792179},{"name":"B4","midi":71,"time":652.4997390000199,"velocity":0.7559055118110236,"duration":2.4956587239583996},{"name":"G3","midi":55,"time":652.4997390000199,"velocity":0.7559055118110236,"duration":1.664495861979276},{"name":"G2","midi":43,"time":653.3330720000199,"velocity":0.7559055118110236,"duration":0.8311628619792373},{"name":"E4","midi":64,"time":653.7497385000199,"velocity":0.7559055118110236,"duration":0.4144963619792179},{"name":"F#4","midi":66,"time":654.16640500002,"velocity":0.7559055118110236,"duration":0.1280381432292188},{"name":"G3","midi":55,"time":654.16640500002,"velocity":0.7559055118110236,"duration":1.6644958619790486},{"name":"B3","midi":59,"time":654.16640500002,"velocity":0.7559055118110236,"duration":0.8311628619791236},{"name":"E4","midi":64,"time":654.29661328127,"velocity":0.7559055118110236,"duration":0.1280381432292188},{"name":"D4","midi":62,"time":654.42682156252,"velocity":0.7559055118110236,"duration":0.15407979947917738},{"name":"E4","midi":64,"time":654.58307150002,"velocity":0.7559055118110236,"duration":0.4144963619791042},{"name":"A4","midi":69,"time":654.9997380000199,"velocity":0.7559055118110236,"duration":2.495658723958286},{"name":"C#4","midi":61,"time":654.9997380000199,"velocity":0.7559055118110236,"duration":0.8311628619791236},{"name":"D4","midi":62,"time":655.8330710000198,"velocity":0.7559055118110236,"duration":0.4144963619792179},{"name":"F#3","midi":54,"time":655.8330710000198,"velocity":0.7559055118110236,"duration":2.0616311197916275},{"name":"E4","midi":64,"time":656.2497375000198,"velocity":0.7559055118110236,"duration":0.4144963619792179},{"name":"F#4","midi":66,"time":656.6664040000198,"velocity":0.7559055118110236,"duration":0.4144963619792179},{"name":"A3","midi":57,"time":656.6664040000198,"velocity":0.7559055118110236,"duration":0.8311628619791236},{"name":"D4","midi":62,"time":657.0830705000199,"velocity":0.7559055118110236,"duration":0.4144963619791042},{"name":"G4","midi":67,"time":657.4997370000198,"velocity":0.7559055118110236,"duration":4.177515690104315},{"name":"B3","midi":59,"time":657.4997370000198,"velocity":0.7559055118110236,"duration":0.4144963619792179},{"name":"B3","midi":59,"time":657.9164035000198,"velocity":0.7559055118110236,"duration":0.4144963619792179},{"name":"F#3","midi":54,"time":657.9164035000198,"velocity":0.7559055118110236,"duration":0.4144963619792179},{"name":"C#4","midi":61,"time":658.3330700000198,"velocity":0.7559055118110236,"duration":0.1280381432292188},{"name":"E3","midi":52,"time":658.3330700000198,"velocity":0.7559055118110236,"duration":0.4144963619792179},{"name":"B3","midi":59,"time":658.4632782812698,"velocity":0.7559055118110236,"duration":0.1280381432292188},{"name":"A3","midi":57,"time":658.5934865625198,"velocity":0.7559055118110236,"duration":0.15407979947917738},{"name":"B3","midi":59,"time":658.7497365000198,"velocity":0.7559055118110236,"duration":0.4144963619792179},{"name":"D3","midi":50,"time":658.7497365000198,"velocity":0.7559055118110236,"duration":0.4144963619792179},{"name":"E4","midi":64,"time":659.1664030000198,"velocity":0.7559055118110236,"duration":0.8311628619792373},{"name":"C#3","midi":49,"time":659.1664030000198,"velocity":0.7559055118110236,"duration":0.4144963619792179},{"name":"D3","midi":50,"time":659.5830695000199,"velocity":0.7559055118110236,"duration":0.4144963619792179},{"name":"A3","midi":57,"time":659.9997360000199,"velocity":0.7559055118110236,"duration":0.4144963619792179},{"name":"C#3","midi":49,"time":659.9997360000199,"velocity":0.7559055118110236,"duration":0.8311628619792373},{"name":"B3","midi":59,"time":660.4164025000199,"velocity":0.7559055118110236,"duration":0.4144963619792179},{"name":"C#4","midi":61,"time":660.8330690000199,"velocity":0.7559055118110236,"duration":0.4144963619792179},{"name":"A2","midi":45,"time":660.8330690000199,"velocity":0.7559055118110236,"duration":0.8311628619792373},{"name":"A3","midi":57,"time":661.2497355000199,"velocity":0.7559055118110236,"duration":0.4144963619792179},{"name":"F#4","midi":66,"time":661.66640200002,"velocity":0.7559055118110236,"duration":1.6644958619791623},{"name":"D4","midi":62,"time":661.66640200002,"velocity":0.7559055118110236,"duration":0.8311628619791236},{"name":"B2","midi":47,"time":661.66640200002,"velocity":0.7559055118110236,"duration":0.8246524479166055},{"name":"D3","midi":50,"time":662.0830685000199,"velocity":0.7559055118110236,"duration":0.4144963619792179},{"name":"B3","midi":59,"time":662.4997350000199,"velocity":0.7559055118110236,"duration":0.8311628619792373},{"name":"E3","midi":52,"time":662.4997350000199,"velocity":0.7559055118110236,"duration":0.20616311197920822},{"name":"G2","midi":43,"time":662.4997350000199,"velocity":0.7559055118110236,"duration":3.320311171875119},{"name":"D3","midi":50,"time":662.7080682500199,"velocity":0.7559055118110236,"duration":0.20616311197920822},{"name":"C#3","midi":49,"time":662.9164015000199,"velocity":0.7559055118110236,"duration":0.20616311197920822},{"name":"D3","midi":50,"time":663.1247347500199,"velocity":0.7559055118110236,"duration":0.20616311197920822},{"name":"F#4","midi":66,"time":663.3330680000199,"velocity":0.7559055118110236,"duration":0.20616311197920822},{"name":"G3","midi":55,"time":663.3330680000199,"velocity":0.7559055118110236,"duration":0.8311628619792373},{"name":"E4","midi":64,"time":663.5414012500199,"velocity":0.7559055118110236,"duration":0.20616311197920822},{"name":"D4","midi":62,"time":663.7497345000199,"velocity":0.7559055118110236,"duration":0.20616311197920822},{"name":"C#4","midi":61,"time":663.95806775002,"velocity":0.7559055118110236,"duration":0.20616311197920822},{"name":"D4","midi":62,"time":664.16640100002,"velocity":0.7559055118110236,"duration":0.4144963619792179},{"name":"F#3","midi":54,"time":664.16640100002,"velocity":0.7559055118110236,"duration":0.8311628619792373},{"name":"E4","midi":64,"time":664.58306750002,"velocity":0.7559055118110236,"duration":0.4144963619792179},{"name":"C#4","midi":61,"time":664.99973400002,"velocity":0.7559055118110236,"duration":0.4144963619792179},{"name":"E3","midi":52,"time":664.99973400002,"velocity":0.7559055118110236,"duration":0.8311628619791236},{"name":"A3","midi":57,"time":665.41640050002,"velocity":0.7559055118110236,"duration":0.20616311197920822},{"name":"C#4","midi":61,"time":665.62473375002,"velocity":0.7559055118110236,"duration":0.20616311197909454},{"name":"D4","midi":62,"time":665.8330670000199,"velocity":0.7559055118110236,"duration":0.4144963619792179},{"name":"D3","midi":50,"time":665.8330670000199,"velocity":0.7559055118110236,"duration":0.8311628619792373},{"name":"F#2","midi":42,"time":665.8330670000199,"velocity":0.7559055118110236,"duration":0.8311628619792373},{"name":"A3","midi":57,"time":666.2497335000199,"velocity":0.7559055118110236,"duration":0.20616311197920822},{"name":"D4","midi":62,"time":666.45806675002,"velocity":0.7559055118110236,"duration":0.20616311197920822},{"name":"E4","midi":64,"time":666.66640000002,"velocity":0.7559055118110236,"duration":0.4144963619792179},{"name":"C#3","midi":49,"time":666.66640000002,"velocity":0.7559055118110236,"duration":0.8311628619792373},{"name":"E2","midi":40,"time":666.66640000002,"velocity":0.7559055118110236,"duration":0.8311628619792373},{"name":"A3","midi":57,"time":667.08306650002,"velocity":0.7559055118110236,"duration":0.20616311197920822},{"name":"E4","midi":64,"time":667.29139975002,"velocity":0.7559055118110236,"duration":0.20616311197920822},{"name":"F#4","midi":66,"time":667.49973300002,"velocity":0.7559055118110236,"duration":0.5859372656250343},{"name":"D3","midi":50,"time":667.49973300002,"velocity":0.7559055118110236,"duration":1.6644958619791623},{"name":"D2","midi":38,"time":667.49973300002,"velocity":0.7559055118110236,"duration":0.8311628619792373},{"name":"A3","midi":57,"time":667.91639950002,"velocity":0.7559055118110236,"duration":0.20616311197920822},{"name":"F#4","midi":66,"time":668.12473275002,"velocity":0.7559055118110236,"duration":0.20616311197920822},{"name":"G4","midi":67,"time":668.33306600002,"velocity":0.7559055118110236,"duration":1.0416662499999347},{"name":"E3","midi":52,"time":668.33306600002,"velocity":0.7559055118110236,"duration":1.6644958619791623},{"name":"C#3","midi":49,"time":669.16639900002,"velocity":0.7559055118110236,"duration":0.8311628619792373},{"name":"F#4","midi":66,"time":669.58306550002,"velocity":0.7559055118110236,"duration":0.20616311197920822},{"name":"E4","midi":64,"time":669.79139875002,"velocity":0.7559055118110236,"duration":0.20616311197920822},{"name":"F#4","midi":66,"time":669.99973200002,"velocity":0.7559055118110236,"duration":0.4144963619792179},{"name":"D3","midi":50,"time":669.99973200002,"velocity":0.7559055118110236,"duration":0.8311628619792373},{"name":"C3","midi":48,"time":669.99973200002,"velocity":0.7559055118110236,"duration":0.8311628619792373},{"name":"D4","midi":62,"time":670.41639850002,"velocity":0.7559055118110236,"duration":0.20616311197920822},{"name":"F#4","midi":66,"time":670.62473175002,"velocity":0.7559055118110236,"duration":0.20616311197920822},{"name":"G4","midi":67,"time":670.83306500002,"velocity":0.7559055118110236,"duration":0.4144963619792179},{"name":"E3","midi":52,"time":670.83306500002,"velocity":0.7559055118110236,"duration":0.8311628619792373},{"name":"B2","midi":47,"time":670.83306500002,"velocity":0.7559055118110236,"duration":0.8311628619792373},{"name":"D4","midi":62,"time":671.2497315000201,"velocity":0.7559055118110236,"duration":0.20616311197920822},{"name":"G4","midi":67,"time":671.4580647500201,"velocity":0.7559055118110236,"duration":0.20616311197920822},{"name":"A4","midi":69,"time":671.6663980000201,"velocity":0.7559055118110236,"duration":0.4144963619792179},{"name":"F#3","midi":54,"time":671.6663980000201,"velocity":0.7559055118110236,"duration":0.8311628619792373},{"name":"A2","midi":45,"time":671.6663980000201,"velocity":0.7559055118110236,"duration":0.8311628619792373},{"name":"D4","midi":62,"time":672.0830645000201,"velocity":0.7559055118110236,"duration":0.20616311197920822},{"name":"A4","midi":69,"time":672.2913977500201,"velocity":0.7559055118110236,"duration":0.20616311197920822},{"name":"B4","midi":71,"time":672.4997310000201,"velocity":0.7559055118110236,"duration":0.5859372656250343},{"name":"G3","midi":55,"time":672.4997310000201,"velocity":0.7559055118110236,"duration":1.6644958619791623},{"name":"G2","midi":43,"time":672.4997310000201,"velocity":0.7559055118110236,"duration":0.8311628619792373},{"name":"D4","midi":62,"time":672.9163975000201,"velocity":0.7559055118110236,"duration":0.20616311197920822},{"name":"B4","midi":71,"time":673.1247307500201,"velocity":0.7559055118110236,"duration":0.20616311197920822},{"name":"C5","midi":72,"time":673.3330640000202,"velocity":0.7559055118110236,"duration":1.1935759114583107},{"name":"A3","midi":57,"time":673.3330640000202,"velocity":0.7559055118110236,"duration":1.6644958619791623},{"name":"F#3","midi":54,"time":674.1663970000201,"velocity":0.7559055118110236,"duration":0.8311628619792373},{"name":"B4","midi":71,"time":674.5830635000201,"velocity":0.7559055118110236,"duration":0.20616311197920822},{"name":"A4","midi":69,"time":674.7913967500201,"velocity":0.7559055118110236,"duration":0.20616311197920822},{"name":"B4","midi":71,"time":674.9997300000201,"velocity":0.7559055118110236,"duration":0.4144963619792179},{"name":"G3","midi":55,"time":674.9997300000201,"velocity":0.7559055118110236,"duration":3.320311171875119},{"name":"G4","midi":67,"time":675.4163965000201,"velocity":0.7559055118110236,"duration":0.20616311197920822},{"name":"B4","midi":71,"time":675.6247297500202,"velocity":0.7559055118110236,"duration":0.20616311197920822},{"name":"C#5","midi":73,"time":675.8330630000202,"velocity":0.7559055118110236,"duration":0.4144963619792179},{"name":"E3","midi":52,"time":675.8330630000202,"velocity":0.7559055118110236,"duration":0.8311628619792373},{"name":"G4","midi":67,"time":676.2497295000202,"velocity":0.7559055118110236,"duration":0.20616311197920822},{"name":"C#5","midi":73,"time":676.4580627500202,"velocity":0.7559055118110236,"duration":0.20616311197920822},{"name":"D5","midi":74,"time":676.6663960000202,"velocity":0.7559055118110236,"duration":0.47743036458336974},{"name":"D3","midi":50,"time":676.6663960000202,"velocity":0.7559055118110236,"duration":0.8311628619792373},{"name":"G4","midi":67,"time":677.0830625000202,"velocity":0.7559055118110236,"duration":0.20616311197920822},{"name":"D5","midi":74,"time":677.2913957500202,"velocity":0.7559055118110236,"duration":0.20616311197920822},{"name":"E5","midi":76,"time":677.4997290000202,"velocity":0.7559055118110236,"duration":1.0394961119791333},{"name":"C#3","midi":49,"time":677.4997290000202,"velocity":0.7559055118110236,"duration":0.8311628619791236},{"name":"D3","midi":50,"time":678.3330620000202,"velocity":0.7559055118110236,"duration":0.8311628619792373},{"name":"F#3","midi":54,"time":678.3330620000202,"velocity":0.7559055118110236,"duration":2.4956587239583996},{"name":"D5","midi":74,"time":678.5413952500202,"velocity":0.7559055118110236,"duration":0.20616311197920822},{"name":"C#5","midi":73,"time":678.7497285000202,"velocity":0.7559055118110236,"duration":0.20616311197920822},{"name":"B4","midi":71,"time":678.9580617500202,"velocity":0.7559055118110236,"duration":0.20616311197920822},{"name":"A4","midi":69,"time":679.1663950000202,"velocity":0.7559055118110236,"duration":0.4144963619792179},{"name":"C#3","midi":49,"time":679.1663950000202,"velocity":0.7559055118110236,"duration":0.8311628619792373},{"name":"D5","midi":74,"time":679.5830615000202,"velocity":0.7559055118110236,"duration":0.6228296119792276},{"name":"B2","midi":47,"time":679.9997280000202,"velocity":0.7559055118110236,"duration":0.8311628619791236},{"name":"C#5","midi":73,"time":680.2080612500203,"velocity":0.7559055118110236,"duration":0.20616311197920822},{"name":"B4","midi":71,"time":680.4163945000203,"velocity":0.7559055118110236,"duration":0.20616311197920822},{"name":"A4","midi":69,"time":680.6247277500203,"velocity":0.7559055118110236,"duration":0.20616311197909454},{"name":"G4","midi":67,"time":680.8330610000202,"velocity":0.7559055118110236,"duration":0.4144963619792179},{"name":"E3","midi":52,"time":680.8330610000202,"velocity":0.7559055118110236,"duration":2.4956587239583996},{"name":"C#3","midi":49,"time":680.8330610000202,"velocity":0.7559055118110236,"duration":0.8311628619792373},{"name":"B4","midi":71,"time":681.2497275000202,"velocity":0.7559055118110236,"duration":0.6228296119792276},{"name":"D3","midi":50,"time":681.6663940000202,"velocity":0.7559055118110236,"duration":0.8311628619792373},{"name":"A4","midi":69,"time":681.8747272500202,"velocity":0.7559055118110236,"duration":0.20616311197920822},{"name":"G4","midi":67,"time":682.0830605000202,"velocity":0.7559055118110236,"duration":0.20616311197920822},{"name":"F#4","midi":66,"time":682.2913937500202,"velocity":0.7559055118110236,"duration":0.20616311197920822},{"name":"E4","midi":64,"time":682.4997270000202,"velocity":0.7559055118110236,"duration":0.4144963619792179},{"name":"C#3","midi":49,"time":682.4997270000202,"velocity":0.7559055118110236,"duration":0.8311628619791236},{"name":"G4","midi":67,"time":682.9163935000203,"velocity":0.7559055118110236,"duration":0.6228296119791139},{"name":"A2","midi":45,"time":683.3330600000202,"velocity":0.7559055118110236,"duration":0.8311628619792373},{"name":"C#3","midi":49,"time":683.3330600000202,"velocity":0.7559055118110236,"duration":0.8311628619792373},{"name":"F#4","midi":66,"time":683.5413932500202,"velocity":0.7559055118110236,"duration":0.20616311197920822},{"name":"E4","midi":64,"time":683.7497265000202,"velocity":0.7559055118110236,"duration":0.20616311197920822},{"name":"D4","midi":62,"time":683.9580597500202,"velocity":0.7559055118110236,"duration":0.20616311197920822},{"name":"C#4","midi":61,"time":684.1663930000202,"velocity":0.7559055118110236,"duration":0.4144963619792179},{"name":"G2","midi":43,"time":684.1663930000202,"velocity":0.7559055118110236,"duration":0.8311628619792373},{"name":"E3","midi":52,"time":684.1663930000202,"velocity":0.7559055118110236,"duration":0.8311628619792373},{"name":"A4","midi":69,"time":684.5830595000202,"velocity":0.7559055118110236,"duration":0.8311628619792373},{"name":"D3","midi":50,"time":684.9997260000202,"velocity":0.7559055118110236,"duration":1.6644958619791623},{"name":"F#2","midi":42,"time":684.9997260000202,"velocity":0.7559055118110236,"duration":0.8311628619792373},{"name":"D4","midi":62,"time":685.4163925000203,"velocity":0.7559055118110236,"duration":0.4144963619792179},{"name":"F#4","midi":66,"time":685.8330590000203,"velocity":0.7559055118110236,"duration":0.8311628619791236},{"name":"G2","midi":43,"time":685.8330590000203,"velocity":0.7559055118110236,"duration":0.8311628619791236},{"name":"C#4","midi":61,"time":686.6663920000202,"velocity":0.7559055118110236,"duration":0.41232622395830276},{"name":"F#4","midi":66,"time":686.6663920000202,"velocity":0.7559055118110236,"duration":0.20616311197920822},{"name":"G3","midi":55,"time":686.6663920000202,"velocity":0.7559055118110236,"duration":0.8311628619791236},{"name":"A2","midi":45,"time":686.6663920000202,"velocity":0.7559055118110236,"duration":0.8311628619791236},{"name":"E4","midi":64,"time":686.8747252500202,"velocity":0.7559055118110236,"duration":0.20616311197909454},{"name":"D4","midi":62,"time":687.0830585000201,"velocity":0.7559055118110236,"duration":0.20616311197920822},{"name":"E4","midi":64,"time":687.2913917500201,"velocity":0.7559055118110236,"duration":0.20616311197920822},{"name":"A3","midi":57,"time":687.4997250000201,"velocity":0.7559055118110236,"duration":2.4956587239583996},{"name":"D4","midi":62,"time":687.4997250000201,"velocity":0.7559055118110236,"duration":5.946178177083311},{"name":"D3","midi":50,"time":687.4997250000201,"velocity":0.7559055118110236,"duration":2.4956587239583996},{"name":"F#3","midi":54,"time":687.4997250000201,"velocity":0.7559055118110236,"duration":2.4956587239583996},{"name":"D2","midi":38,"time":688.3330580000202,"velocity":0.7559055118110236,"duration":5.138886833333231},{"name":"A2","midi":45,"time":689.1663910000202,"velocity":0.7559055118110236,"duration":0.8311628619791236},{"name":"A3","midi":57,"time":689.9997240000201,"velocity":0.7559055118110236,"duration":3.4722208333332674},{"name":"F#3","midi":54,"time":689.9997240000201,"velocity":0.7559055118110236,"duration":3.4722208333332674},{"name":"D3","midi":50,"time":689.9997240000201,"velocity":0.7559055118110236,"duration":3.4722208333332674},{"name":"A4","midi":69,"time":697.0830545000201,"velocity":0.7559055118110236,"duration":0.2604165625000405},{"name":"D4","midi":62,"time":697.4997210000201,"velocity":0.7559055118110236,"duration":0.41232622395830276},{"name":"G4","midi":67,"time":697.4997210000201,"velocity":0.7559055118110236,"duration":0.20616311197920822},{"name":"F#4","midi":66,"time":697.7080542500202,"velocity":0.7559055118110236,"duration":0.20616311197909454},{"name":"E4","midi":64,"time":697.91638750002,"velocity":0.7559055118110236,"duration":0.8311628619791236},{"name":"C#4","midi":61,"time":698.3330540000201,"velocity":0.7559055118110236,"duration":0.41232622395830276},{"name":"A3","midi":57,"time":698.3330540000201,"velocity":0.7559055118110236,"duration":0.41232622395830276},{"name":"D4","midi":62,"time":698.74972050002,"velocity":0.7559055118110236,"duration":0.8311628619791236},{"name":"F#3","midi":54,"time":699.16638700002,"velocity":0.7559055118110236,"duration":0.41232622395830276},{"name":"A3","midi":57,"time":699.16638700002,"velocity":0.7559055118110236,"duration":0.41232622395830276},{"name":"C#4","midi":61,"time":699.5830535000199,"velocity":0.7559055118110236,"duration":0.8311628619791236},{"name":"E3","midi":52,"time":699.9997200000199,"velocity":0.7559055118110236,"duration":0.41232622395830276},{"name":"G3","midi":55,"time":699.9997200000199,"velocity":0.7559055118110236,"duration":0.41232622395830276},{"name":"D4","midi":62,"time":700.4163865000198,"velocity":0.7559055118110236,"duration":0.8311628619792373},{"name":"A3","midi":57,"time":700.8330530000198,"velocity":0.7559055118110236,"duration":1.2478293619792566},{"name":"F#3","midi":54,"time":700.8330530000198,"velocity":0.7559055118110236,"duration":0.4144963619792179},{"name":"E4","midi":64,"time":701.2497195000199,"velocity":0.7559055118110236,"duration":0.20616311197920822},{"name":"E3","midi":52,"time":701.2497195000199,"velocity":0.7559055118110236,"duration":0.20616311197920822},{"name":"F#4","midi":66,"time":701.4580527500199,"velocity":0.7559055118110236,"duration":0.20616311197920822},{"name":"D3","midi":50,"time":701.4580527500199,"velocity":0.7559055118110236,"duration":0.20616311197920822},{"name":"G4","midi":67,"time":701.6663860000199,"velocity":0.7559055118110236,"duration":0.4144963619792179},{"name":"C#3","midi":49,"time":701.6663860000199,"velocity":0.7559055118110236,"duration":0.4144963619792179},{"name":"F#4","midi":66,"time":702.0830525000199,"velocity":0.7559055118110236,"duration":0.4144963619792179},{"name":"D4","midi":62,"time":702.0830525000199,"velocity":0.7559055118110236,"duration":0.4144963619792179},{"name":"A3","midi":57,"time":702.0830525000199,"velocity":0.7559055118110236,"duration":0.4144963619792179},{"name":"D3","midi":50,"time":702.0830525000199,"velocity":0.7559055118110236,"duration":0.4144963619792179},{"name":"D4","midi":62,"time":702.4997190000199,"velocity":0.7559055118110236,"duration":0.4123262239581891},{"name":"G4","midi":67,"time":702.4997190000199,"velocity":0.7559055118110236,"duration":0.10199648697914654},{"name":"A3","midi":57,"time":702.4997190000199,"velocity":0.7559055118110236,"duration":0.4123262239581891},{"name":"F#4","midi":66,"time":702.6038856250199,"velocity":0.7559055118110236,"duration":0.10199648697914654},{"name":"G4","midi":67,"time":702.7080522500198,"velocity":0.7559055118110236,"duration":0.10199648697914654},{"name":"F#4","midi":66,"time":702.8122188750198,"velocity":0.7559055118110236,"duration":0.10199648697914654},{"name":"C#4","midi":61,"time":702.9163855000197,"velocity":0.7559055118110236,"duration":0.60763864583339},{"name":"E4","midi":64,"time":702.9163855000197,"velocity":0.7559055118110236,"duration":0.60763864583339},{"name":"A2","midi":45,"time":703.3330520000197,"velocity":0.7559055118110236,"duration":4.991317447916458},{"name":"E4","midi":64,"time":703.7497185000198,"velocity":0.7559055118110236,"duration":0.4144963619792179},{"name":"A4","midi":69,"time":703.7497185000198,"velocity":0.7559055118110236,"duration":0.4144963619792179},{"name":"A3","midi":57,"time":703.7497185000198,"velocity":0.7559055118110236,"duration":0.4144963619792179},{"name":"C#3","midi":49,"time":703.7497185000198,"velocity":0.7559055118110236,"duration":0.4144963619792179},{"name":"E3","midi":52,"time":703.7497185000198,"velocity":0.7559055118110236,"duration":0.4144963619792179},{"name":"F#4","midi":66,"time":704.1663850000198,"velocity":0.7559055118110236,"duration":0.4144963619791042},{"name":"D4","midi":62,"time":704.1663850000198,"velocity":0.7559055118110236,"duration":0.4144963619791042},{"name":"A3","midi":57,"time":704.1663850000198,"velocity":0.7559055118110236,"duration":0.41232622395830276},{"name":"F#3","midi":54,"time":704.1663850000198,"velocity":0.7559055118110236,"duration":0.41232622395830276},{"name":"D3","midi":50,"time":704.1663850000198,"velocity":0.7559055118110236,"duration":0.41232622395830276},{"name":"E4","midi":64,"time":704.5830515000197,"velocity":0.7559055118110236,"duration":0.4144963619792179},{"name":"C#4","midi":61,"time":704.9997180000197,"velocity":0.7559055118110236,"duration":0.4144963619791042},{"name":"A3","midi":57,"time":704.9997180000197,"velocity":0.7559055118110236,"duration":0.41232622395830276},{"name":"G3","midi":55,"time":704.9997180000197,"velocity":0.7559055118110236,"duration":0.41232622395830276},{"name":"E3","midi":52,"time":704.9997180000197,"velocity":0.7559055118110236,"duration":0.41232622395830276},{"name":"D4","midi":62,"time":705.4163845000196,"velocity":0.7559055118110236,"duration":0.8311628619791236},{"name":"A3","midi":57,"time":705.8330510000196,"velocity":0.7559055118110236,"duration":0.41232622395830276},{"name":"F#3","midi":54,"time":705.8330510000196,"velocity":0.7559055118110236,"duration":0.41232622395830276},{"name":"C#4","midi":61,"time":706.2497175000195,"velocity":0.7559055118110236,"duration":0.8311628619791236},{"name":"A3","midi":57,"time":706.6663840000195,"velocity":0.7559055118110236,"duration":0.41232622395830276},{"name":"G3","midi":55,"time":706.6663840000195,"velocity":0.7559055118110236,"duration":0.41232622395830276},{"name":"D4","midi":62,"time":707.0830505000195,"velocity":0.7559055118110236,"duration":0.8311628619792373},{"name":"A3","midi":57,"time":707.4997170000195,"velocity":0.7559055118110236,"duration":1.2478293619792566},{"name":"F#3","midi":54,"time":707.4997170000195,"velocity":0.7559055118110236,"duration":0.4144963619792179},{"name":"E4","midi":64,"time":707.9163835000195,"velocity":0.7559055118110236,"duration":0.20616311197920822},{"name":"E3","midi":52,"time":707.9163835000195,"velocity":0.7559055118110236,"duration":0.20616311197920822},{"name":"F#4","midi":66,"time":708.1247167500195,"velocity":0.7559055118110236,"duration":0.20616311197920822},{"name":"D3","midi":50,"time":708.1247167500195,"velocity":0.7559055118110236,"duration":0.20616311197920822},{"name":"G4","midi":67,"time":708.3330500000195,"velocity":0.7559055118110236,"duration":0.4144963619792179},{"name":"C#3","midi":49,"time":708.3330500000195,"velocity":0.7559055118110236,"duration":0.4144963619792179},{"name":"D4","midi":62,"time":708.7497165000195,"velocity":0.7559055118110236,"duration":0.4144963619792179},{"name":"F#4","midi":66,"time":708.7497165000195,"velocity":0.7559055118110236,"duration":0.4144963619792179},{"name":"A3","midi":57,"time":708.7497165000195,"velocity":0.7559055118110236,"duration":0.4144963619792179},{"name":"D3","midi":50,"time":708.7497165000195,"velocity":0.7559055118110236,"duration":0.4144963619792179},{"name":"D4","midi":62,"time":709.1663830000196,"velocity":0.7559055118110236,"duration":0.4123262239581891},{"name":"G4","midi":67,"time":709.1663830000196,"velocity":0.7559055118110236,"duration":0.10199648697914654},{"name":"A3","midi":57,"time":709.1663830000196,"velocity":0.7559055118110236,"duration":0.8246524479164918},{"name":"F#4","midi":66,"time":709.2705496250195,"velocity":0.7559055118110236,"duration":0.10199648697914654},{"name":"G4","midi":67,"time":709.3747162500194,"velocity":0.7559055118110236,"duration":0.10199648697914654},{"name":"F#4","midi":66,"time":709.4788828750194,"velocity":0.7559055118110236,"duration":0.10199648697914654},{"name":"C#4","midi":61,"time":709.5830495000193,"velocity":0.7559055118110236,"duration":0.8159718958333997},{"name":"E4","midi":64,"time":709.5830495000193,"velocity":0.7559055118110236,"duration":0.60763864583339},{"name":"A2","midi":45,"time":709.5830495000193,"velocity":0.7559055118110236,"duration":0.60763864583339},{"name":"E4","midi":64,"time":710.4163825000194,"velocity":0.7559055118110236,"duration":0.4144963619792179},{"name":"C#4","midi":61,"time":710.4163825000194,"velocity":0.7559055118110236,"duration":0.4144963619792179},{"name":"A3","midi":57,"time":710.4163825000194,"velocity":0.7559055118110236,"duration":0.4144963619792179},{"name":"F#4","midi":66,"time":710.8330490000194,"velocity":0.7559055118110236,"duration":0.20616311197920822},{"name":"D4","midi":62,"time":710.8330490000194,"velocity":0.7559055118110236,"duration":0.4144963619792179},{"name":"G#4","midi":68,"time":711.0413822500194,"velocity":0.7559055118110236,"duration":0.20616311197920822},{"name":"A4","midi":69,"time":711.2497155000194,"velocity":0.7559055118110236,"duration":0.7378469270832966},{"name":"C#4","midi":61,"time":711.2497155000194,"velocity":0.7559055118110236,"duration":0.4144963619792179},{"name":"B3","midi":59,"time":711.6663820000194,"velocity":0.7559055118110236,"duration":0.4144963619791042},{"name":"G#4","midi":68,"time":712.0830485000193,"velocity":0.7559055118110236,"duration":0.20616311197920822},{"name":"A3","midi":57,"time":712.0830485000193,"velocity":0.7559055118110236,"duration":0.4144963619792179},{"name":"A4","midi":69,"time":712.2913817500194,"velocity":0.7559055118110236,"duration":0.20616311197920822},{"name":"B4","midi":71,"time":712.4997150000194,"velocity":0.7559055118110236,"duration":0.20616311197920822},{"name":"G#3","midi":56,"time":712.4997150000194,"velocity":0.7559055118110236,"duration":0.4144963619792179},{"name":"A4","midi":69,"time":712.7080482500194,"velocity":0.7559055118110236,"duration":0.20616311197920822},{"name":"G#4","midi":68,"time":712.9163815000194,"velocity":0.7559055118110236,"duration":0.20616311197920822},{"name":"A3","midi":57,"time":712.9163815000194,"velocity":0.7559055118110236,"duration":0.4144963619792179},{"name":"F#4","midi":66,"time":713.1247147500194,"velocity":0.7559055118110236,"duration":0.20616311197920822},{"name":"E4","midi":64,"time":713.3330480000194,"velocity":0.7559055118110236,"duration":0.20616311197920822},{"name":"G#3","midi":56,"time":713.3330480000194,"velocity":0.7559055118110236,"duration":0.4144963619792179},{"name":"F#4","midi":66,"time":713.5413812500194,"velocity":0.7559055118110236,"duration":0.20616311197920822},{"name":"G#4","midi":68,"time":713.7497145000194,"velocity":0.7559055118110236,"duration":0.20616311197920822},{"name":"F#3","midi":54,"time":713.7497145000194,"velocity":0.7559055118110236,"duration":0.4144963619792179},{"name":"A4","midi":69,"time":713.9580477500194,"velocity":0.7559055118110236,"duration":0.20616311197920822},{"name":"B4","midi":71,"time":714.1663810000194,"velocity":0.7559055118110236,"duration":0.20616311197920822},{"name":"E3","midi":52,"time":714.1663810000194,"velocity":0.7559055118110236,"duration":0.4144963619792179},{"name":"C#5","midi":73,"time":714.3747142500195,"velocity":0.7559055118110236,"duration":0.20616311197920822},{"name":"D5","midi":74,"time":714.5830475000195,"velocity":0.7559055118110236,"duration":0.7378469270832966},{"name":"F#3","midi":54,"time":714.5830475000195,"velocity":0.7559055118110236,"duration":0.4144963619792179},{"name":"E3","midi":52,"time":714.9997140000195,"velocity":0.7559055118110236,"duration":0.4144963619791042},{"name":"C#5","midi":73,"time":715.4163805000194,"velocity":0.7559055118110236,"duration":0.20616311197920822},{"name":"D3","midi":50,"time":715.4163805000194,"velocity":0.7559055118110236,"duration":0.4144963619792179},{"name":"D5","midi":74,"time":715.6247137500194,"velocity":0.7559055118110236,"duration":0.20616311197920822},{"name":"E5","midi":76,"time":715.8330470000194,"velocity":0.7559055118110236,"duration":0.20616311197920822},{"name":"C#3","midi":49,"time":715.8330470000194,"velocity":0.7559055118110236,"duration":0.4144963619792179},{"name":"D5","midi":74,"time":716.0413802500194,"velocity":0.7559055118110236,"duration":0.20616311197920822},{"name":"C#5","midi":73,"time":716.2497135000194,"velocity":0.7559055118110236,"duration":0.20616311197920822},{"name":"D3","midi":50,"time":716.2497135000194,"velocity":0.7559055118110236,"duration":0.4144963619792179},{"name":"B4","midi":71,"time":716.4580467500194,"velocity":0.7559055118110236,"duration":0.20616311197920822},{"name":"A4","midi":69,"time":716.6663800000194,"velocity":0.7559055118110236,"duration":0.20616311197920822},{"name":"C#3","midi":49,"time":716.6663800000194,"velocity":0.7559055118110236,"duration":0.4144963619792179},{"name":"B4","midi":71,"time":716.8747132500195,"velocity":0.7559055118110236,"duration":0.20616311197920822},{"name":"C#5","midi":73,"time":717.0830465000195,"velocity":0.7559055118110236,"duration":0.20616311197920822},{"name":"B2","midi":47,"time":717.0830465000195,"velocity":0.7559055118110236,"duration":0.4144963619792179},{"name":"D5","midi":74,"time":717.2913797500195,"velocity":0.7559055118110236,"duration":0.20616311197920822},{"name":"E5","midi":76,"time":717.4997130000195,"velocity":0.7559055118110236,"duration":0.20616311197920822},{"name":"A2","midi":45,"time":717.4997130000195,"velocity":0.7559055118110236,"duration":0.4144963619792179},{"name":"F#5","midi":78,"time":717.7080462500195,"velocity":0.7559055118110236,"duration":0.20616311197920822},{"name":"G5","midi":79,"time":717.9163795000195,"velocity":0.7559055118110236,"duration":0.7812496875000079},{"name":"B2","midi":47,"time":717.9163795000195,"velocity":0.7559055118110236,"duration":0.4144963619792179},{"name":"C#3","midi":49,"time":718.3330460000195,"velocity":0.7559055118110236,"duration":0.4144963619791042},{"name":"F#5","midi":78,"time":718.7497125000194,"velocity":0.7559055118110236,"duration":0.20616311197920822},{"name":"A2","midi":45,"time":718.7497125000194,"velocity":0.7559055118110236,"duration":0.4144963619792179},{"name":"E5","midi":76,"time":718.9580457500194,"velocity":0.7559055118110236,"duration":0.20616311197920822},{"name":"F#5","midi":78,"time":719.1663790000194,"velocity":0.7559055118110236,"duration":0.23871518229168487},{"name":"D3","midi":50,"time":719.1663790000194,"velocity":0.7559055118110236,"duration":0.8246524479167192},{"name":"A5","midi":81,"time":719.3747122500195,"velocity":0.7559055118110236,"duration":0.20616311197920822},{"name":"G5","midi":79,"time":719.5830455000195,"velocity":0.7559055118110236,"duration":0.20616311197920822},{"name":"D2","midi":38,"time":719.5830455000195,"velocity":0.7559055118110236,"duration":0.4144963619792179},{"name":"F#5","midi":78,"time":719.7913787500195,"velocity":0.7559055118110236,"duration":0.20616311197920822},{"name":"B5","midi":83,"time":719.9997120000195,"velocity":0.7559055118110236,"duration":0.19531242187497355},{"name":"D3","midi":50,"time":719.9997120000195,"velocity":0.7559055118110236,"duration":0.4144963619791042},{"name":"A5","midi":81,"time":720.2080452500195,"velocity":0.7559055118110236,"duration":0.19531242187497355},{"name":"G#5","midi":80,"time":720.4163785000194,"velocity":0.7559055118110236,"duration":0.19531242187497355},{"name":"B2","midi":47,"time":720.4163785000194,"velocity":0.7559055118110236,"duration":0.4144963619791042},{"name":"F#5","midi":78,"time":720.6247117500194,"velocity":0.7559055118110236,"duration":0.19531242187497355},{"name":"E5","midi":76,"time":720.8330450000193,"velocity":0.7559055118110236,"duration":0.23871518229168487},{"name":"C#3","midi":49,"time":720.8330450000193,"velocity":0.7559055118110236,"duration":0.4144963619791042},{"name":"A5","midi":81,"time":721.0413782500193,"velocity":0.7559055118110236,"duration":0.19531242187497355},{"name":"G#5","midi":80,"time":721.2497115000192,"velocity":0.7559055118110236,"duration":0.19531242187497355},{"name":"A2","midi":45,"time":721.2497115000192,"velocity":0.7559055118110236,"duration":0.4144963619791042},{"name":"F#5","midi":78,"time":721.4580447500192,"velocity":0.7559055118110236,"duration":0.19531242187497355},{"name":"E5","midi":76,"time":721.6663780000191,"velocity":0.7559055118110236,"duration":0.19531242187497355},{"name":"E3","midi":52,"time":721.6663780000191,"velocity":0.7559055118110236,"duration":0.8246524479167192},{"name":"D5","midi":74,"time":721.8747112500191,"velocity":0.7559055118110236,"duration":0.19531242187497355},{"name":"C#5","midi":73,"time":722.0830445000191,"velocity":0.7559055118110236,"duration":0.19531242187497355},{"name":"E2","midi":40,"time":722.0830445000191,"velocity":0.7559055118110236,"duration":0.4144963619792179},{"name":"B4","midi":71,"time":722.2913777500191,"velocity":0.7559055118110236,"duration":0.19531242187497355},{"name":"A4","midi":69,"time":722.4997110000191,"velocity":0.7559055118110236,"duration":1.0416662500000484},{"name":"A2","midi":45,"time":722.4997110000191,"velocity":0.7559055118110236,"duration":1.2478293619792566},{"name":"E5","midi":76,"time":723.7497105000192,"velocity":0.7559055118110236,"duration":0.4144963619792179},{"name":"D5","midi":74,"time":724.1663770000192,"velocity":0.7559055118110236,"duration":0.20616311197920822},{"name":"A3","midi":57,"time":724.1663770000192,"velocity":0.7559055118110236,"duration":0.41232622395830276},{"name":"C#5","midi":73,"time":724.3747102500192,"velocity":0.7559055118110236,"duration":0.20616311197909454},{"name":"B4","midi":71,"time":724.5830435000191,"velocity":0.7559055118110236,"duration":0.8311628619791236},{"name":"G3","midi":55,"time":724.9997100000191,"velocity":0.7559055118110236,"duration":0.41232622395830276},{"name":"C#4","midi":61,"time":724.9997100000191,"velocity":0.7559055118110236,"duration":0.41232622395830276},{"name":"A4","midi":69,"time":725.416376500019,"velocity":0.7559055118110236,"duration":0.8311628619791236},{"name":"D4","midi":62,"time":725.8330430000191,"velocity":0.7559055118110236,"duration":0.41232622395830276},{"name":"F#3","midi":54,"time":725.8330430000191,"velocity":0.7559055118110236,"duration":0.41232622395830276},{"name":"B4","midi":71,"time":726.249709500019,"velocity":0.7559055118110236,"duration":0.20616311197920822},{"name":"C#5","midi":73,"time":726.458042750019,"velocity":0.7559055118110236,"duration":0.20616311197920822},{"name":"D5","midi":74,"time":726.666376000019,"velocity":0.7559055118110236,"duration":0.4144963619791042},{"name":"E3","midi":52,"time":726.666376000019,"velocity":0.7559055118110236,"duration":0.41232622395830276},{"name":"G3","midi":55,"time":726.666376000019,"velocity":0.7559055118110236,"duration":0.41232622395830276},{"name":"C#5","midi":73,"time":727.0830425000189,"velocity":0.7559055118110236,"duration":0.694444166666699},{"name":"D3","midi":50,"time":727.4997090000189,"velocity":0.7559055118110236,"duration":0.4144963619792179},{"name":"F#3","midi":54,"time":727.4997090000189,"velocity":0.7559055118110236,"duration":0.8246524479167192},{"name":"D5","midi":74,"time":727.916375500019,"velocity":0.7559055118110236,"duration":0.20616311197920822},{"name":"B2","midi":47,"time":727.916375500019,"velocity":0.7559055118110236,"duration":0.20616311197920822},{"name":"E5","midi":76,"time":728.124708750019,"velocity":0.7559055118110236,"duration":0.20616311197920822},{"name":"C#3","midi":49,"time":728.124708750019,"velocity":0.7559055118110236,"duration":0.20616311197920822},{"name":"F#5","midi":78,"time":728.333042000019,"velocity":0.7559055118110236,"duration":0.4144963619792179},{"name":"D3","midi":50,"time":728.333042000019,"velocity":0.7559055118110236,"duration":0.4144963619792179},{"name":"D4","midi":62,"time":728.749708500019,"velocity":0.7559055118110236,"duration":0.8311628619792373},{"name":"B4","midi":71,"time":728.749708500019,"velocity":0.7559055118110236,"duration":0.8311628619792373},{"name":"E3","midi":52,"time":728.749708500019,"velocity":0.7559055118110236,"duration":0.4144963619792179},{"name":"F#3","midi":54,"time":729.166375000019,"velocity":0.7559055118110236,"duration":0.20616311197920822},{"name":"E3","midi":52,"time":729.374708250019,"velocity":0.7559055118110236,"duration":0.20616311197920822},{"name":"A#4","midi":70,"time":729.583041500019,"velocity":0.7559055118110236,"duration":0.47743036458336974},{"name":"C#4","midi":61,"time":729.583041500019,"velocity":0.7559055118110236,"duration":0.47743036458336974},{"name":"F#3","midi":54,"time":729.583041500019,"velocity":0.7559055118110236,"duration":0.20616311197920822},{"name":"G3","midi":55,"time":729.791374750019,"velocity":0.7559055118110236,"duration":0.20616311197920822},{"name":"F#3","midi":54,"time":729.999708000019,"velocity":0.7559055118110236,"duration":0.20616311197920822},{"name":"E3","midi":52,"time":730.208041250019,"velocity":0.7559055118110236,"duration":0.20616311197920822},{"name":"F#5","midi":78,"time":730.4163745000191,"velocity":0.7559055118110236,"duration":0.4144963619792179},{"name":"D3","midi":50,"time":730.4163745000191,"velocity":0.7559055118110236,"duration":0.20616311197920822},{"name":"C#3","midi":49,"time":730.6247077500191,"velocity":0.7559055118110236,"duration":0.20616311197920822},{"name":"E5","midi":76,"time":730.8330410000191,"velocity":0.7559055118110236,"duration":0.10199648697914654},{"name":"B2","midi":47,"time":730.8330410000191,"velocity":0.7559055118110236,"duration":0.20616311197909454},{"name":"D5","midi":74,"time":730.937207625019,"velocity":0.7559055118110236,"duration":0.10199648697914654},{"name":"E5","midi":76,"time":731.041374250019,"velocity":0.7559055118110236,"duration":0.10199648697914654},{"name":"A2","midi":45,"time":731.041374250019,"velocity":0.7559055118110236,"duration":0.20616311197909454},{"name":"D5","midi":74,"time":731.1455408750189,"velocity":0.7559055118110236,"duration":0.10199648697914654},{"name":"C#5","midi":73,"time":731.2497075000189,"velocity":0.7559055118110236,"duration":0.8311628619792373},{"name":"G2","midi":43,"time":731.2497075000189,"velocity":0.7559055118110236,"duration":0.20616311197920822},{"name":"F#2","midi":42,"time":731.4580407500189,"velocity":0.7559055118110236,"duration":0.20616311197920822},{"name":"E2","midi":40,"time":731.6663740000189,"velocity":0.7559055118110236,"duration":0.20616311197920822},{"name":"D2","midi":38,"time":731.8747072500189,"velocity":0.7559055118110236,"duration":0.20616311197920822},{"name":"B4","midi":71,"time":732.0830405000189,"velocity":0.7559055118110236,"duration":0.20616311197920822},{"name":"E2","midi":40,"time":732.0830405000189,"velocity":0.7559055118110236,"duration":0.20616311197920822},{"name":"A#4","midi":70,"time":732.2913737500189,"velocity":0.7559055118110236,"duration":0.20616311197920822},{"name":"F#2","midi":42,"time":732.2913737500189,"velocity":0.7559055118110236,"duration":0.20616311197920822},{"name":"B4","midi":71,"time":732.4997070000189,"velocity":0.7559055118110236,"duration":0.20616311197920822},{"name":"G2","midi":43,"time":732.4997070000189,"velocity":0.7559055118110236,"duration":0.4144963619792179},{"name":"D5","midi":74,"time":732.7080402500189,"velocity":0.7559055118110236,"duration":0.20616311197920822},{"name":"C#5","midi":73,"time":732.916373500019,"velocity":0.7559055118110236,"duration":0.20616311197920822},{"name":"G3","midi":55,"time":732.916373500019,"velocity":0.7559055118110236,"duration":0.694444166666699},{"name":"B4","midi":71,"time":733.124706750019,"velocity":0.7559055118110236,"duration":0.20616311197920822},{"name":"C#5","midi":73,"time":733.333040000019,"velocity":0.7559055118110236,"duration":0.20616311197920822},{"name":"D#5","midi":75,"time":733.541373250019,"velocity":0.7559055118110236,"duration":0.20616311197920822},{"name":"E5","midi":76,"time":733.749706500019,"velocity":0.7559055118110236,"duration":0.20616311197920822},{"name":"F#3","midi":54,"time":733.749706500019,"velocity":0.7559055118110236,"duration":0.4144963619792179},{"name":"F#5","midi":78,"time":733.958039750019,"velocity":0.7559055118110236,"duration":0.20616311197920822},{"name":"G5","midi":79,"time":734.166373000019,"velocity":0.7559055118110236,"duration":0.20616311197920822},{"name":"E3","midi":52,"time":734.166373000019,"velocity":0.7559055118110236,"duration":0.4144963619792179},{"name":"B5","midi":83,"time":734.374706250019,"velocity":0.7559055118110236,"duration":0.20616311197920822},{"name":"A5","midi":81,"time":734.583039500019,"velocity":0.7559055118110236,"duration":0.20616311197920822},{"name":"C4","midi":60,"time":734.583039500019,"velocity":0.7559055118110236,"duration":0.694444166666699},{"name":"G5","midi":79,"time":734.791372750019,"velocity":0.7559055118110236,"duration":0.20616311197920822},{"name":"A5","midi":81,"time":734.999706000019,"velocity":0.7559055118110236,"duration":0.20616311197920822},{"name":"B5","midi":83,"time":735.208039250019,"velocity":0.7559055118110236,"duration":0.20616311197920822},{"name":"C6","midi":84,"time":735.4163725000191,"velocity":0.7559055118110236,"duration":0.4144963619792179},{"name":"A3","midi":57,"time":735.4163725000191,"velocity":0.7559055118110236,"duration":0.4144963619792179},{"name":"E5","midi":76,"time":735.8330390000191,"velocity":0.7559055118110236,"duration":0.4144963619792179},{"name":"B3","midi":59,"time":735.8330390000191,"velocity":0.7559055118110236,"duration":0.20616311197920822},{"name":"A3","midi":57,"time":736.0413722500191,"velocity":0.7559055118110236,"duration":0.20616311197920822},{"name":"D#5","midi":75,"time":736.2497055000191,"velocity":0.7559055118110236,"duration":0.10199648697914654},{"name":"B3","midi":59,"time":736.2497055000191,"velocity":0.7559055118110236,"duration":0.20616311197909454},{"name":"E5","midi":76,"time":736.353872125019,"velocity":0.7559055118110236,"duration":0.10199648697914654},{"name":"D#5","midi":75,"time":736.458038750019,"velocity":0.7559055118110236,"duration":0.41232622395830276},{"name":"C4","midi":60,"time":736.458038750019,"velocity":0.7559055118110236,"duration":0.20616311197920822},{"name":"B3","midi":59,"time":736.666372000019,"velocity":0.7559055118110236,"duration":0.20616311197909454},{"name":"A3","midi":57,"time":736.8747052500189,"velocity":0.7559055118110236,"duration":0.20616311197920822},{"name":"B4","midi":71,"time":737.0830385000189,"velocity":0.7559055118110236,"duration":0.4144963619792179},{"name":"G3","midi":55,"time":737.0830385000189,"velocity":0.7559055118110236,"duration":0.20616311197920822},{"name":"F#3","midi":54,"time":737.2913717500189,"velocity":0.7559055118110236,"duration":0.20616311197920822},{"name":"G5","midi":79,"time":737.4997050000189,"velocity":0.7559055118110236,"duration":0.4144963619792179},{"name":"E3","midi":52,"time":737.4997050000189,"velocity":0.7559055118110236,"duration":0.20616311197920822},{"name":"B3","midi":59,"time":737.708038250019,"velocity":0.7559055118110236,"duration":0.20616311197920822},{"name":"F#5","midi":78,"time":737.916371500019,"velocity":0.7559055118110236,"duration":0.7378469270834103},{"name":"A3","midi":57,"time":737.916371500019,"velocity":0.7559055118110236,"duration":0.20616311197920822},{"name":"G3","midi":55,"time":738.124704750019,"velocity":0.7559055118110236,"duration":0.20616311197920822},{"name":"B2","midi":47,"time":738.333038000019,"velocity":0.7559055118110236,"duration":0.20616311197920822},{"name":"A3","midi":57,"time":738.541371250019,"velocity":0.7559055118110236,"duration":0.20616311197920822},{"name":"E5","midi":76,"time":738.749704500019,"velocity":0.7559055118110236,"duration":0.20616311197920822},{"name":"G3","midi":55,"time":738.749704500019,"velocity":0.7559055118110236,"duration":0.20616311197920822},{"name":"D#5","midi":75,"time":738.958037750019,"velocity":0.7559055118110236,"duration":0.20616311197920822},{"name":"F#3","midi":54,"time":738.958037750019,"velocity":0.7559055118110236,"duration":0.20616311197920822},{"name":"E5","midi":76,"time":739.166371000019,"velocity":0.7559055118110236,"duration":0.20616311197920822},{"name":"G3","midi":55,"time":739.166371000019,"velocity":0.7559055118110236,"duration":0.4144963619792179},{"name":"G5","midi":79,"time":739.374704250019,"velocity":0.7559055118110236,"duration":0.20616311197920822},{"name":"F#5","midi":78,"time":739.583037500019,"velocity":0.7559055118110236,"duration":0.20616311197920822},{"name":"B3","midi":59,"time":739.583037500019,"velocity":0.7559055118110236,"duration":0.4144963619792179},{"name":"E5","midi":76,"time":739.791370750019,"velocity":0.7559055118110236,"duration":0.20616311197920822},{"name":"D5","midi":74,"time":739.999704000019,"velocity":0.7559055118110236,"duration":0.20616311197920822},{"name":"E4","midi":64,"time":739.999704000019,"velocity":0.7559055118110236,"duration":0.3472220833333495},{"name":"C#5","midi":73,"time":740.2080372500191,"velocity":0.7559055118110236,"duration":0.20616311197920822},{"name":"B4","midi":71,"time":740.4163705000191,"velocity":0.7559055118110236,"duration":0.20616311197920822},{"name":"C#3","midi":49,"time":740.4163705000191,"velocity":0.7559055118110236,"duration":0.4144963619792179},{"name":"A4","midi":69,"time":740.6247037500191,"velocity":0.7559055118110236,"duration":0.20616311197920822},{"name":"F#5","midi":78,"time":740.8330370000191,"velocity":0.7559055118110236,"duration":0.4144963619792179},{"name":"D3","midi":50,"time":740.8330370000191,"velocity":0.7559055118110236,"duration":0.20616311197920822},{"name":"A3","midi":57,"time":741.0413702500191,"velocity":0.7559055118110236,"duration":0.20616311197920822},{"name":"E5","midi":76,"time":741.2497035000191,"velocity":0.7559055118110236,"duration":0.7378469270834103},{"name":"G3","midi":55,"time":741.2497035000191,"velocity":0.7559055118110236,"duration":0.20616311197920822},{"name":"F#3","midi":54,"time":741.4580367500191,"velocity":0.7559055118110236,"duration":0.20616311197920822},{"name":"A2","midi":45,"time":741.6663700000191,"velocity":0.7559055118110236,"duration":0.20616311197920822},{"name":"G3","midi":55,"time":741.8747032500191,"velocity":0.7559055118110236,"duration":0.20616311197920822},{"name":"D5","midi":74,"time":742.0830365000191,"velocity":0.7559055118110236,"duration":0.20616311197920822},{"name":"F#3","midi":54,"time":742.0830365000191,"velocity":0.7559055118110236,"duration":0.20616311197920822},{"name":"C#5","midi":73,"time":742.2913697500192,"velocity":0.7559055118110236,"duration":0.20616311197920822},{"name":"E3","midi":52,"time":742.2913697500192,"velocity":0.7559055118110236,"duration":0.20616311197920822},{"name":"D5","midi":74,"time":742.4997030000192,"velocity":0.7559055118110236,"duration":0.20616311197920822},{"name":"F#3","midi":54,"time":742.4997030000192,"velocity":0.7559055118110236,"duration":0.4144963619792179},{"name":"F#5","midi":78,"time":742.7080362500192,"velocity":0.7559055118110236,"duration":0.20616311197920822},{"name":"E5","midi":76,"time":742.9163695000192,"velocity":0.7559055118110236,"duration":0.20616311197920822},{"name":"A3","midi":57,"time":742.9163695000192,"velocity":0.7559055118110236,"duration":0.4144963619792179},{"name":"D5","midi":74,"time":743.1247027500192,"velocity":0.7559055118110236,"duration":0.20616311197920822},{"name":"C#5","midi":73,"time":743.3330360000192,"velocity":0.7559055118110236,"duration":0.20616311197920822},{"name":"D3","midi":50,"time":743.3330360000192,"velocity":0.7559055118110236,"duration":0.4144963619792179},{"name":"B4","midi":71,"time":743.5413692500192,"velocity":0.7559055118110236,"duration":0.20616311197920822},{"name":"A#4","midi":70,"time":743.7497025000192,"velocity":0.7559055118110236,"duration":0.20616311197920822},{"name":"F#3","midi":54,"time":743.7497025000192,"velocity":0.7559055118110236,"duration":0.36892346354170513},{"name":"B4","midi":71,"time":743.9580357500192,"velocity":0.7559055118110236,"duration":0.20616311197920822},{"name":"E5","midi":76,"time":744.1663690000192,"velocity":0.7559055118110236,"duration":0.4144963619792179},{"name":"G3","midi":55,"time":744.1663690000192,"velocity":0.7559055118110236,"duration":0.2604165625000405},{"name":"G4","midi":67,"time":744.3747022500193,"velocity":0.7559055118110236,"duration":0.20616311197920822},{"name":"D5","midi":74,"time":744.5830355000193,"velocity":0.7559055118110236,"duration":0.7378469270834103},{"name":"F#4","midi":66,"time":744.5830355000193,"velocity":0.7559055118110236,"duration":0.20616311197920822},{"name":"E4","midi":64,"time":744.7913687500193,"velocity":0.7559055118110236,"duration":0.20616311197920822},{"name":"B3","midi":59,"time":744.9997020000193,"velocity":0.7559055118110236,"duration":0.20616311197920822},{"name":"F#4","midi":66,"time":745.2080352500193,"velocity":0.7559055118110236,"duration":0.20616311197920822},{"name":"C5","midi":72,"time":745.4163685000193,"velocity":0.7559055118110236,"duration":0.20616311197920822},{"name":"E4","midi":64,"time":745.4163685000193,"velocity":0.7559055118110236,"duration":0.20616311197920822},{"name":"B4","midi":71,"time":745.6247017500193,"velocity":0.7559055118110236,"duration":0.20616311197920822},{"name":"D4","midi":62,"time":745.6247017500193,"velocity":0.7559055118110236,"duration":0.20616311197920822},{"name":"C5","midi":72,"time":745.8330350000193,"velocity":0.7559055118110236,"duration":0.20616311197920822},{"name":"E3","midi":52,"time":745.8330350000193,"velocity":0.7559055118110236,"duration":0.20616311197920822},{"name":"G5","midi":79,"time":746.0413682500193,"velocity":0.7559055118110236,"duration":0.20616311197920822},{"name":"E4","midi":64,"time":746.0413682500193,"velocity":0.7559055118110236,"duration":0.20616311197920822},{"name":"F#5","midi":78,"time":746.2497015000193,"velocity":0.7559055118110236,"duration":0.7595483072916522},{"name":"D4","midi":62,"time":746.2497015000193,"velocity":0.7559055118110236,"duration":0.20616311197920822},{"name":"C#4","midi":61,"time":746.4580347500194,"velocity":0.7559055118110236,"duration":0.20616311197920822},{"name":"G3","midi":55,"time":746.6663680000194,"velocity":0.7559055118110236,"duration":0.20616311197920822},{"name":"D4","midi":62,"time":746.8747012500194,"velocity":0.7559055118110236,"duration":0.20616311197909454},{"name":"F5","midi":77,"time":747.0830345000193,"velocity":0.7559055118110236,"duration":0.4144963619792179},{"name":"C#4","midi":61,"time":747.0830345000193,"velocity":0.7559055118110236,"duration":0.20616311197920822},{"name":"B3","midi":59,"time":747.2913677500193,"velocity":0.7559055118110236,"duration":0.20616311197920822},{"name":"F#5","midi":78,"time":747.4997010000193,"velocity":0.7559055118110236,"duration":0.3472220833333495},{"name":"A#2","midi":46,"time":747.4997010000193,"velocity":0.7559055118110236,"duration":0.4144963619792179},{"name":"B4","midi":71,"time":747.9163675000193,"velocity":0.7559055118110236,"duration":0.3472220833333495},{"name":"D3","midi":50,"time":747.9163675000193,"velocity":0.7559055118110236,"duration":0.4144963619792179},{"name":"D5","midi":74,"time":748.3330340000193,"velocity":0.7559055118110236,"duration":0.20616311197920822},{"name":"E3","midi":52,"time":748.3330340000193,"velocity":0.7559055118110236,"duration":0.4144963619792179},{"name":"C#5","midi":73,"time":748.5413672500193,"velocity":0.7559055118110236,"duration":0.20616311197920822},{"name":"B4","midi":71,"time":748.7497005000193,"velocity":0.7559055118110236,"duration":0.20616311197920822},{"name":"F#3","midi":54,"time":748.7497005000193,"velocity":0.7559055118110236,"duration":0.4144963619792179},{"name":"A#4","midi":70,"time":748.9580337500194,"velocity":0.7559055118110236,"duration":0.20616311197920822},{"name":"B4","midi":71,"time":749.1663670000194,"velocity":0.7559055118110236,"duration":0.8246524479167192},{"name":"B3","midi":59,"time":749.1663670000194,"velocity":0.7559055118110236,"duration":0.20616311197920822},{"name":"B2","midi":47,"time":749.3747002500194,"velocity":0.7559055118110236,"duration":0.20616311197920822},{"name":"C#3","midi":49,"time":749.5830335000194,"velocity":0.7559055118110236,"duration":0.20616311197920822},{"name":"D3","midi":50,"time":749.7913667500194,"velocity":0.7559055118110236,"duration":0.20616311197920822},{"name":"E3","midi":52,"time":749.9997000000194,"velocity":0.7559055118110236,"duration":0.20616311197920822},{"name":"F#3","midi":54,"time":750.2080332500194,"velocity":0.7559055118110236,"duration":0.20616311197920822},{"name":"D5","midi":74,"time":750.4163665000194,"velocity":0.7559055118110236,"duration":0.4144963619792179},{"name":"G#3","midi":56,"time":750.4163665000194,"velocity":0.7559055118110236,"duration":0.20616311197920822},{"name":"A#3","midi":58,"time":750.6246997500194,"velocity":0.7559055118110236,"duration":0.20616311197920822},{"name":"F#4","midi":66,"time":750.8330330000194,"velocity":0.7559055118110236,"duration":0.20616311197920822},{"name":"B3","midi":59,"time":750.8330330000194,"velocity":0.7559055118110236,"duration":0.20616311197920822},{"name":"A4","midi":69,"time":751.0413662500195,"velocity":0.7559055118110236,"duration":0.20616311197920822},{"name":"A3","midi":57,"time":751.0413662500195,"velocity":0.7559055118110236,"duration":0.20616311197920822},{"name":"G4","midi":67,"time":751.2496995000195,"velocity":0.7559055118110236,"duration":0.7161455468750546},{"name":"B3","midi":59,"time":751.2496995000195,"velocity":0.7559055118110236,"duration":0.20616311197920822},{"name":"D4","midi":62,"time":751.4580327500195,"velocity":0.7559055118110236,"duration":0.20616311197920822},{"name":"C#4","midi":61,"time":751.6663660000195,"velocity":0.7559055118110236,"duration":0.20616311197920822},{"name":"B3","midi":59,"time":751.8746992500195,"velocity":0.7559055118110236,"duration":0.20616311197920822},{"name":"F#4","midi":66,"time":752.0830325000195,"velocity":0.7559055118110236,"duration":0.20616311197920822},{"name":"A3","midi":57,"time":752.0830325000195,"velocity":0.7559055118110236,"duration":0.20616311197920822},{"name":"G4","midi":67,"time":752.2913657500195,"velocity":0.7559055118110236,"duration":0.20616311197920822},{"name":"G3","midi":55,"time":752.2913657500195,"velocity":0.7559055118110236,"duration":0.20616311197920822},{"name":"A4","midi":69,"time":752.4996990000195,"velocity":0.7559055118110236,"duration":0.20616311197920822},{"name":"F#3","midi":54,"time":752.4996990000195,"velocity":0.7559055118110236,"duration":0.4144963619792179},{"name":"G4","midi":67,"time":752.7080322500195,"velocity":0.7559055118110236,"duration":0.20616311197920822},{"name":"F#4","midi":66,"time":752.9163655000195,"velocity":0.7559055118110236,"duration":0.20616311197920822},{"name":"A3","midi":57,"time":752.9163655000195,"velocity":0.7559055118110236,"duration":0.4144963619792179},{"name":"E4","midi":64,"time":753.1246987500195,"velocity":0.7559055118110236,"duration":0.20616311197920822},{"name":"D4","midi":62,"time":753.3330320000196,"velocity":0.7559055118110236,"duration":0.20616311197920822},{"name":"F#3","midi":54,"time":753.3330320000196,"velocity":0.7559055118110236,"duration":0.4144963619791042},{"name":"C5","midi":72,"time":753.5413652500196,"velocity":0.7559055118110236,"duration":0.19531242187497355},{"name":"B4","midi":71,"time":753.7496985000195,"velocity":0.7559055118110236,"duration":0.19531242187497355},{"name":"D3","midi":50,"time":753.7496985000195,"velocity":0.7559055118110236,"duration":0.4144963619791042},{"name":"A4","midi":69,"time":753.9580317500195,"velocity":0.7559055118110236,"duration":0.19531242187497355},{"name":"B4","midi":71,"time":754.1663650000194,"velocity":0.7559055118110236,"duration":0.23871518229168487},{"name":"G3","midi":55,"time":754.1663650000194,"velocity":0.7559055118110236,"duration":0.4144963619791042},{"name":"G4","midi":67,"time":754.3746982500194,"velocity":0.7559055118110236,"duration":0.19531242187497355},{"name":"F#4","midi":66,"time":754.5830315000193,"velocity":0.7559055118110236,"duration":0.19531242187497355},{"name":"A2","midi":45,"time":754.5830315000193,"velocity":0.7559055118110236,"duration":0.4144963619791042},{"name":"E4","midi":64,"time":754.7913647500193,"velocity":0.7559055118110236,"duration":0.19531242187497355},{"name":"D#4","midi":63,"time":754.9996980000192,"velocity":0.7559055118110236,"duration":0.22135407812504582},{"name":"B2","midi":47,"time":754.9996980000192,"velocity":0.7559055118110236,"duration":0.4144963619792179},{"name":"A4","midi":69,"time":755.2080312500192,"velocity":0.7559055118110236,"duration":0.19531242187508724},{"name":"G4","midi":67,"time":755.4163645000192,"velocity":0.7559055118110236,"duration":0.19531242187497355},{"name":"D#3","midi":51,"time":755.4163645000192,"velocity":0.7559055118110236,"duration":0.4144963619791042},{"name":"F#4","midi":66,"time":755.6246977500192,"velocity":0.7559055118110236,"duration":0.19531242187497355},{"name":"G4","midi":67,"time":755.8330310000191,"velocity":0.7559055118110236,"duration":0.20616311197920822},{"name":"E3","midi":52,"time":755.8330310000191,"velocity":0.7559055118110236,"duration":0.4144963619792179},{"name":"F#4","midi":66,"time":756.0413642500191,"velocity":0.7559055118110236,"duration":0.20616311197920822},{"name":"E4","midi":64,"time":756.2496975000191,"velocity":0.7559055118110236,"duration":0.20616311197920822},{"name":"G2","midi":43,"time":756.2496975000191,"velocity":0.7559055118110236,"duration":0.4144963619792179},{"name":"D4","midi":62,"time":756.4580307500191,"velocity":0.7559055118110236,"duration":0.20616311197920822},{"name":"C#4","midi":61,"time":756.6663640000191,"velocity":0.7559055118110236,"duration":0.20616311197920822},{"name":"A2","midi":45,"time":756.6663640000191,"velocity":0.7559055118110236,"duration":0.4144963619792179},{"name":"G4","midi":67,"time":756.8746972500192,"velocity":0.7559055118110236,"duration":0.20616311197920822},{"name":"F#4","midi":66,"time":757.0830305000192,"velocity":0.7559055118110236,"duration":0.20616311197920822},{"name":"C#3","midi":49,"time":757.0830305000192,"velocity":0.7559055118110236,"duration":0.4144963619792179},{"name":"E4","midi":64,"time":757.2913637500192,"velocity":0.7559055118110236,"duration":0.20616311197920822},{"name":"F#4","midi":66,"time":757.4996970000192,"velocity":0.7559055118110236,"duration":0.20616311197920822},{"name":"D3","midi":50,"time":757.4996970000192,"velocity":0.7559055118110236,"duration":0.4144963619792179},{"name":"D4","midi":62,"time":757.7080302500192,"velocity":0.7559055118110236,"duration":0.20616311197920822},{"name":"C#4","midi":61,"time":757.9163635000192,"velocity":0.7559055118110236,"duration":0.20616311197920822},{"name":"F#2","midi":42,"time":757.9163635000192,"velocity":0.7559055118110236,"duration":0.4144963619792179},{"name":"B3","midi":59,"time":758.1246967500192,"velocity":0.7559055118110236,"duration":0.20616311197920822},{"name":"A#3","midi":58,"time":758.3330300000192,"velocity":0.7559055118110236,"duration":0.20616311197920822},{"name":"G2","midi":43,"time":758.3330300000192,"velocity":0.7559055118110236,"duration":0.4144963619792179},{"name":"E4","midi":64,"time":758.5413632500192,"velocity":0.7559055118110236,"duration":0.20616311197920822},{"name":"D4","midi":62,"time":758.7496965000192,"velocity":0.7559055118110236,"duration":0.20616311197920822},{"name":"A#2","midi":46,"time":758.7496965000192,"velocity":0.7559055118110236,"duration":0.4144963619792179},{"name":"C#4","midi":61,"time":758.9580297500193,"velocity":0.7559055118110236,"duration":0.20616311197920822},{"name":"D4","midi":62,"time":759.1663630000193,"velocity":0.7559055118110236,"duration":0.20616311197920822},{"name":"B2","midi":47,"time":759.1663630000193,"velocity":0.7559055118110236,"duration":0.20616311197920822},{"name":"F#4","midi":66,"time":759.3746962500193,"velocity":0.7559055118110236,"duration":0.20616311197920822},{"name":"D3","midi":50,"time":759.3746962500193,"velocity":0.7559055118110236,"duration":0.20616311197920822},{"name":"E4","midi":64,"time":759.5830295000193,"velocity":0.7559055118110236,"duration":0.20616311197920822},{"name":"C#3","midi":49,"time":759.5830295000193,"velocity":0.7559055118110236,"duration":0.20616311197920822},{"name":"D4","midi":62,"time":759.7913627500193,"velocity":0.7559055118110236,"duration":0.20616311197920822},{"name":"B2","midi":47,"time":759.7913627500193,"velocity":0.7559055118110236,"duration":0.20616311197920822},{"name":"E4","midi":64,"time":759.9996960000193,"velocity":0.7559055118110236,"duration":0.20616311197920822},{"name":"C#3","midi":49,"time":759.9996960000193,"velocity":0.7559055118110236,"duration":0.20616311197920822},{"name":"F#4","midi":66,"time":760.2080292500193,"velocity":0.7559055118110236,"duration":0.20616311197920822},{"name":"D3","midi":50,"time":760.2080292500193,"velocity":0.7559055118110236,"duration":0.20616311197920822},{"name":"G4","midi":67,"time":760.4163625000193,"velocity":0.7559055118110236,"duration":0.20616311197920822},{"name":"E3","midi":52,"time":760.4163625000193,"velocity":0.7559055118110236,"duration":0.20616311197920822},{"name":"A4","midi":69,"time":760.6246957500193,"velocity":0.7559055118110236,"duration":0.20616311197920822},{"name":"F#3","midi":54,"time":760.6246957500193,"velocity":0.7559055118110236,"duration":0.20616311197920822},{"name":"B4","midi":71,"time":760.8330290000193,"velocity":0.7559055118110236,"duration":0.20616311197920822},{"name":"G3","midi":55,"time":760.8330290000193,"velocity":0.7559055118110236,"duration":0.4144963619792179},{"name":"G4","midi":67,"time":761.0413622500193,"velocity":0.7559055118110236,"duration":0.20616311197920822},{"name":"A4","midi":69,"time":761.2496955000194,"velocity":0.7559055118110236,"duration":0.20616311197920822},{"name":"F#3","midi":54,"time":761.2496955000194,"velocity":0.7559055118110236,"duration":0.20616311197920822},{"name":"D5","midi":74,"time":761.4580287500194,"velocity":0.7559055118110236,"duration":0.20616311197920822},{"name":"E3","midi":52,"time":761.4580287500194,"velocity":0.7559055118110236,"duration":0.20616311197920822},{"name":"C#5","midi":73,"time":761.6663620000194,"velocity":0.7559055118110236,"duration":0.20616311197920822},{"name":"F#3","midi":54,"time":761.6663620000194,"velocity":0.7559055118110236,"duration":0.4144963619792179},{"name":"B4","midi":71,"time":761.8746952500194,"velocity":0.7559055118110236,"duration":0.20616311197920822},{"name":"A4","midi":69,"time":762.0830285000194,"velocity":0.7559055118110236,"duration":0.20616311197920822},{"name":"G3","midi":55,"time":762.0830285000194,"velocity":0.7559055118110236,"duration":0.4144963619792179},{"name":"G4","midi":67,"time":762.2913617500194,"velocity":0.7559055118110236,"duration":0.3103297369791562},{"name":"A3","midi":57,"time":762.4996950000194,"velocity":0.7559055118110236,"duration":0.41449636197899054},{"name":"F#4","midi":66,"time":762.6038616250194,"velocity":0.7559055118110236,"duration":0.10199648697914654},{"name":"G4","midi":67,"time":762.7080282500193,"velocity":0.7559055118110236,"duration":0.10199648697914654},{"name":"F#4","midi":66,"time":762.8121948750193,"velocity":0.7559055118110236,"duration":0.10199648697914654},{"name":"E4","midi":64,"time":762.9163615000192,"velocity":0.7559055118110236,"duration":0.41232622395830276},{"name":"G3","midi":55,"time":762.9163615000192,"velocity":0.7559055118110236,"duration":0.20616311197920822},{"name":"F#3","midi":54,"time":763.1246947500192,"velocity":0.7559055118110236,"duration":0.20616311197909454},{"name":"E3","midi":52,"time":763.3330280000191,"velocity":0.7559055118110236,"duration":0.20616311197920822},{"name":"D3","midi":50,"time":763.5413612500191,"velocity":0.7559055118110236,"duration":0.20616311197920822},{"name":"E5","midi":76,"time":763.7496945000191,"velocity":0.7559055118110236,"duration":0.4144963619792179},{"name":"C#3","midi":49,"time":763.7496945000191,"velocity":0.7559055118110236,"duration":0.20616311197920822},{"name":"B2","midi":47,"time":763.9580277500191,"velocity":0.7559055118110236,"duration":0.20616311197920822},{"name":"F5","midi":77,"time":764.1663610000192,"velocity":0.7559055118110236,"duration":0.20616311197920822},{"name":"A2","midi":45,"time":764.1663610000192,"velocity":0.7559055118110236,"duration":0.4144963619792179},{"name":"G#5","midi":80,"time":764.3746942500192,"velocity":0.7559055118110236,"duration":0.20616311197920822},{"name":"A5","midi":81,"time":764.5830275000192,"velocity":0.7559055118110236,"duration":0.6228296119792276},{"name":"D4","midi":62,"time":764.5830275000192,"velocity":0.7559055118110236,"duration":0.3797741536458261},{"name":"F4","midi":65,"time":764.5830275000192,"velocity":0.7559055118110236,"duration":0.3797741536458261},{"name":"E4","midi":64,"time":764.9996940000192,"velocity":0.7559055118110236,"duration":0.3797741536458261},{"name":"C#4","midi":61,"time":764.9996940000192,"velocity":0.7559055118110236,"duration":0.3797741536458261},{"name":"E5","midi":76,"time":765.2080272500192,"velocity":0.7559055118110236,"duration":0.20616311197909454},{"name":"F5","midi":77,"time":765.4163605000191,"velocity":0.7559055118110236,"duration":0.20616311197920822},{"name":"B3","midi":59,"time":765.4163605000191,"velocity":0.7559055118110236,"duration":0.3797741536458261},{"name":"D4","midi":62,"time":765.4163605000191,"velocity":0.7559055118110236,"duration":0.3797741536458261},{"name":"D5","midi":74,"time":765.6246937500191,"velocity":0.7559055118110236,"duration":0.20616311197909454},{"name":"E5","midi":76,"time":765.833027000019,"velocity":0.7559055118110236,"duration":0.20616311197920822},{"name":"A2","midi":45,"time":765.833027000019,"velocity":0.7559055118110236,"duration":0.4144963619792179},{"name":"D5","midi":74,"time":766.041360250019,"velocity":0.7559055118110236,"duration":0.20616311197920822},{"name":"C#5","midi":73,"time":766.249693500019,"velocity":0.7559055118110236,"duration":0.20616311197920822},{"name":"G4","midi":67,"time":766.249693500019,"velocity":0.7559055118110236,"duration":0.4014755338541818},{"name":"E4","midi":64,"time":766.249693500019,"velocity":0.7559055118110236,"duration":0.4014755338541818},{"name":"B4","midi":71,"time":766.458026750019,"velocity":0.7559055118110236,"duration":0.20616311197920822},{"name":"A4","midi":69,"time":766.666360000019,"velocity":0.7559055118110236,"duration":0.20616311197920822},{"name":"E4","midi":64,"time":766.666360000019,"velocity":0.7559055118110236,"duration":0.4014755338541818},{"name":"C#4","midi":61,"time":766.666360000019,"velocity":0.7559055118110236,"duration":0.4014755338541818},{"name":"G4","midi":67,"time":766.874693250019,"velocity":0.7559055118110236,"duration":0.20616311197920822},{"name":"F4","midi":65,"time":767.0830265000191,"velocity":0.7559055118110236,"duration":0.20616311197920822},{"name":"A3","midi":57,"time":767.0830265000191,"velocity":0.7559055118110236,"duration":0.4014755338541818},{"name":"C#4","midi":61,"time":767.0830265000191,"velocity":0.7559055118110236,"duration":0.4014755338541818},{"name":"E4","midi":64,"time":767.2913597500191,"velocity":0.7559055118110236,"duration":0.20616311197920822},{"name":"F4","midi":65,"time":767.4996930000191,"velocity":0.7559055118110236,"duration":0.20616311197920822},{"name":"A2","midi":45,"time":767.4996930000191,"velocity":0.7559055118110236,"duration":0.4144963619792179},{"name":"G#4","midi":68,"time":767.7080262500191,"velocity":0.7559055118110236,"duration":0.20616311197920822},{"name":"A4","midi":69,"time":767.9163595000191,"velocity":0.7559055118110236,"duration":0.6228296119792276},{"name":"F3","midi":53,"time":767.9163595000191,"velocity":0.7559055118110236,"duration":0.4014755338541818},{"name":"D4","midi":62,"time":767.9163595000191,"velocity":0.7559055118110236,"duration":0.4014755338541818},{"name":"C#4","midi":61,"time":768.3330260000191,"velocity":0.7559055118110236,"duration":0.4014755338541818},{"name":"E3","midi":52,"time":768.3330260000191,"velocity":0.7559055118110236,"duration":0.4014755338541818},{"name":"E4","midi":64,"time":768.5413592500191,"velocity":0.7559055118110236,"duration":0.20616311197920822},{"name":"F4","midi":65,"time":768.7496925000191,"velocity":0.7559055118110236,"duration":0.20616311197920822},{"name":"B3","midi":59,"time":768.7496925000191,"velocity":0.7559055118110236,"duration":0.4014755338541818},{"name":"D3","midi":50,"time":768.7496925000191,"velocity":0.7559055118110236,"duration":0.4014755338541818},{"name":"D4","midi":62,"time":768.9580257500191,"velocity":0.7559055118110236,"duration":0.20616311197920822},{"name":"E4","midi":64,"time":769.1663590000192,"velocity":0.7559055118110236,"duration":0.20616311197920822},{"name":"A2","midi":45,"time":769.1663590000192,"velocity":0.7559055118110236,"duration":0.4144963619792179},{"name":"D4","midi":62,"time":769.3746922500192,"velocity":0.7559055118110236,"duration":0.20616311197920822},{"name":"C#4","midi":61,"time":769.5830255000192,"velocity":0.7559055118110236,"duration":0.20616311197920822},{"name":"E3","midi":52,"time":769.5830255000192,"velocity":0.7559055118110236,"duration":0.4014755338541818},{"name":"G3","midi":55,"time":769.5830255000192,"velocity":0.7559055118110236,"duration":0.4014755338541818},{"name":"B3","midi":59,"time":769.7913587500192,"velocity":0.7559055118110236,"duration":0.20616311197920822},{"name":"A3","midi":57,"time":769.9996920000192,"velocity":0.7559055118110236,"duration":0.20616311197920822},{"name":"E3","midi":52,"time":769.9996920000192,"velocity":0.7559055118110236,"duration":0.4014755338541818},{"name":"C#3","midi":49,"time":769.9996920000192,"velocity":0.7559055118110236,"duration":0.4014755338541818},{"name":"G3","midi":55,"time":770.2080252500192,"velocity":0.7559055118110236,"duration":0.20616311197920822},{"name":"F#3","midi":54,"time":770.4163585000192,"velocity":0.7559055118110236,"duration":0.20616311197920822},{"name":"C#3","midi":49,"time":770.4163585000192,"velocity":0.7559055118110236,"duration":0.4014755338541818},{"name":"A2","midi":45,"time":770.4163585000192,"velocity":0.7559055118110236,"duration":0.4014755338541818},{"name":"E3","midi":52,"time":770.6246917500192,"velocity":0.7559055118110236,"duration":0.20616311197920822},{"name":"D3","midi":50,"time":770.8330250000192,"velocity":0.7559055118110236,"duration":0.41232622395830276},{"name":"D2","midi":38,"time":770.8330250000192,"velocity":0.7559055118110236,"duration":0.41232622395830276},{"name":"F#4","midi":66,"time":771.0413582500192,"velocity":0.7559055118110236,"duration":0.20616311197909454},{"name":"E4","midi":64,"time":771.2496915000191,"velocity":0.7559055118110236,"duration":0.7812496875000079},{"name":"A#2","midi":46,"time":771.6663580000192,"velocity":0.7559055118110236,"duration":0.41232622395830276},{"name":"C#3","midi":49,"time":771.6663580000192,"velocity":0.7559055118110236,"duration":0.41232622395830276},{"name":"F#2","midi":42,"time":771.6663580000192,"velocity":0.7559055118110236,"duration":0.41232622395830276},{"name":"D4","midi":62,"time":772.0830245000192,"velocity":0.7559055118110236,"duration":0.20616311197920822},{"name":"C#4","midi":61,"time":772.2913577500192,"velocity":0.7559055118110236,"duration":0.20616311197920822},{"name":"D4","midi":62,"time":772.4996910000192,"velocity":0.7559055118110236,"duration":0.20616311197920822},{"name":"B2","midi":47,"time":772.4996910000192,"velocity":0.7559055118110236,"duration":0.4144963619792179},{"name":"F#4","midi":66,"time":772.7080242500192,"velocity":0.7559055118110236,"duration":0.20616311197920822},{"name":"E4","midi":64,"time":772.9163575000192,"velocity":0.7559055118110236,"duration":0.20616311197920822},{"name":"F#3","midi":54,"time":772.9163575000192,"velocity":0.7559055118110236,"duration":0.4144963619792179},{"name":"D4","midi":62,"time":773.1246907500192,"velocity":0.7559055118110236,"duration":0.20616311197920822},{"name":"E4","midi":64,"time":773.3330240000192,"velocity":0.7559055118110236,"duration":0.20616311197920822},{"name":"B3","midi":59,"time":773.3330240000192,"velocity":0.7559055118110236,"duration":0.4144963619792179},{"name":"F#4","midi":66,"time":773.5413572500192,"velocity":0.7559055118110236,"duration":0.20616311197920822},{"name":"G4","midi":67,"time":773.7496905000193,"velocity":0.7559055118110236,"duration":0.20616311197920822},{"name":"A3","midi":57,"time":773.7496905000193,"velocity":0.7559055118110236,"duration":0.4144963619792179},{"name":"A4","midi":69,"time":773.9580237500193,"velocity":0.7559055118110236,"duration":0.20616311197920822},{"name":"B4","midi":71,"time":774.1663570000193,"velocity":0.7559055118110236,"duration":0.20616311197920822},{"name":"G3","midi":55,"time":774.1663570000193,"velocity":0.7559055118110236,"duration":0.4144963619792179},{"name":"A4","midi":69,"time":774.3746902500193,"velocity":0.7559055118110236,"duration":0.20616311197920822},{"name":"C5","midi":72,"time":774.5830235000193,"velocity":0.7559055118110236,"duration":0.20616311197920822},{"name":"E4","midi":64,"time":774.5830235000193,"velocity":0.7559055118110236,"duration":0.4144963619792179},{"name":"B4","midi":71,"time":774.7913567500193,"velocity":0.7559055118110236,"duration":0.20616311197920822},{"name":"A4","midi":69,"time":774.9996900000193,"velocity":0.7559055118110236,"duration":0.20616311197920822},{"name":"F#3","midi":54,"time":774.9996900000193,"velocity":0.7559055118110236,"duration":0.4144963619792179},{"name":"F#5","midi":78,"time":775.2080232500193,"velocity":0.7559055118110236,"duration":0.20616311197920822},{"name":"B4","midi":71,"time":775.4163565000193,"velocity":0.7559055118110236,"duration":0.20616311197920822},{"name":"D#4","midi":63,"time":775.4163565000193,"velocity":0.7559055118110236,"duration":0.4144963619792179},{"name":"A4","midi":69,"time":775.6246897500193,"velocity":0.7559055118110236,"duration":0.20616311197920822},{"name":"G4","midi":67,"time":775.8330230000194,"velocity":0.7559055118110236,"duration":0.20616311197920822},{"name":"E3","midi":52,"time":775.8330230000194,"velocity":0.7559055118110236,"duration":0.4144963619792179},{"name":"B4","midi":71,"time":776.0413562500194,"velocity":0.7559055118110236,"duration":0.20616311197920822},{"name":"A4","midi":69,"time":776.2496895000194,"velocity":0.7559055118110236,"duration":0.20616311197920822},{"name":"G3","midi":55,"time":776.2496895000194,"velocity":0.7559055118110236,"duration":0.4144963619792179},{"name":"G4","midi":67,"time":776.4580227500194,"velocity":0.7559055118110236,"duration":0.20616311197920822},{"name":"A4","midi":69,"time":776.6663560000194,"velocity":0.7559055118110236,"duration":0.20616311197920822},{"name":"E4","midi":64,"time":776.6663560000194,"velocity":0.7559055118110236,"duration":0.3797741536458261},{"name":"B4","midi":71,"time":776.8746892500194,"velocity":0.7559055118110236,"duration":0.20616311197909454},{"name":"C#5","midi":73,"time":777.0830225000193,"velocity":0.7559055118110236,"duration":0.20616311197920822},{"name":"D4","midi":62,"time":777.0830225000193,"velocity":0.7559055118110236,"duration":0.3797741536458261},{"name":"D5","midi":74,"time":777.2913557500193,"velocity":0.7559055118110236,"duration":0.20616311197909454},{"name":"E5","midi":76,"time":777.4996890000192,"velocity":0.7559055118110236,"duration":0.20616311197920822},{"name":"C#4","midi":61,"time":777.4996890000192,"velocity":0.7559055118110236,"duration":0.4144963619792179},{"name":"D5","midi":74,"time":777.7080222500192,"velocity":0.7559055118110236,"duration":0.20616311197920822},{"name":"F5","midi":77,"time":777.9163555000192,"velocity":0.7559055118110236,"duration":0.20616311197920822},{"name":"A4","midi":69,"time":777.9163555000192,"velocity":0.7559055118110236,"duration":0.4144963619792179},{"name":"E5","midi":76,"time":778.1246887500192,"velocity":0.7559055118110236,"duration":0.20616311197920822},{"name":"D5","midi":74,"time":778.3330220000192,"velocity":0.7559055118110236,"duration":0.20616311197920822},{"name":"B3","midi":59,"time":778.3330220000192,"velocity":0.7559055118110236,"duration":0.4144963619792179},{"name":"B5","midi":83,"time":778.5413552500193,"velocity":0.7559055118110236,"duration":0.20616311197920822},{"name":"E5","midi":76,"time":778.7496885000193,"velocity":0.7559055118110236,"duration":0.20616311197920822},{"name":"G#4","midi":68,"time":778.7496885000193,"velocity":0.7559055118110236,"duration":0.4144963619792179},{"name":"D5","midi":74,"time":778.9580217500193,"velocity":0.7559055118110236,"duration":0.20616311197920822},{"name":"C#5","midi":73,"time":779.1663550000193,"velocity":0.7559055118110236,"duration":0.20616311197920822},{"name":"A3","midi":57,"time":779.1663550000193,"velocity":0.7559055118110236,"duration":0.4144963619792179},{"name":"E5","midi":76,"time":779.3746882500193,"velocity":0.7559055118110236,"duration":0.20616311197920822},{"name":"D5","midi":74,"time":779.5830215000193,"velocity":0.7559055118110236,"duration":0.20616311197920822},{"name":"E4","midi":64,"time":779.5830215000193,"velocity":0.7559055118110236,"duration":0.4144963619792179},{"name":"C#5","midi":73,"time":779.7913547500193,"velocity":0.7559055118110236,"duration":0.20616311197920822},{"name":"D5","midi":74,"time":779.9996880000193,"velocity":0.7559055118110236,"duration":0.20616311197920822},{"name":"A4","midi":69,"time":779.9996880000193,"velocity":0.7559055118110236,"duration":0.4144963619792179},{"name":"E5","midi":76,"time":780.2080212500193,"velocity":0.7559055118110236,"duration":0.20616311197920822},{"name":"F#5","midi":78,"time":780.4163545000193,"velocity":0.7559055118110236,"duration":0.20616311197920822},{"name":"G4","midi":67,"time":780.4163545000193,"velocity":0.7559055118110236,"duration":0.4144963619792179},{"name":"G5","midi":79,"time":780.6246877500193,"velocity":0.7559055118110236,"duration":0.20616311197920822},{"name":"A5","midi":81,"time":780.8330210000194,"velocity":0.7559055118110236,"duration":0.4144963619792179},{"name":"F#4","midi":66,"time":780.8330210000194,"velocity":0.7559055118110236,"duration":0.36892346354170513},{"name":"F#2","midi":42,"time":781.2844097083528,"velocity":0.7559055118110236,"duration":0.4014755338541818},{"name":"D5","midi":74,"time":781.2844097083528,"velocity":0.7559055118110236,"duration":0.4014755338541818},{"name":"A4","midi":69,"time":781.2844097083528,"velocity":0.7559055118110236,"duration":0.4014755338541818},{"name":"G4","midi":67,"time":781.7357984166861,"velocity":0.7559055118110236,"duration":0.4014755338541818},{"name":"B4","midi":71,"time":781.7357984166861,"velocity":0.7559055118110236,"duration":0.4014755338541818},{"name":"E5","midi":76,"time":781.7357984166861,"velocity":0.7559055118110236,"duration":0.4014755338541818},{"name":"G2","midi":43,"time":781.7357984166861,"velocity":0.7559055118110236,"duration":0.4014755338541818},{"name":"C#5","midi":73,"time":782.2305898854361,"velocity":0.7559055118110236,"duration":0.41232622395830276},{"name":"A4","midi":69,"time":782.2305898854361,"velocity":0.7559055118110236,"duration":0.41232622395830276},{"name":"E4","midi":64,"time":782.2305898854361,"velocity":0.7559055118110236,"duration":0.41232622395830276},{"name":"A2","midi":45,"time":782.2305898854361,"velocity":0.7559055118110236,"duration":0.41232622395830276},{"name":"A4","midi":69,"time":782.8469090833527,"velocity":0.7559055118110236,"duration":1.6623257239583609},{"name":"F#4","midi":66,"time":782.8469090833527,"velocity":0.7559055118110236,"duration":1.6623257239583609},{"name":"D5","midi":74,"time":782.8469090833527,"velocity":0.7559055118110236,"duration":1.6623257239583609},{"name":"D2","midi":38,"time":782.8469090833527,"velocity":0.7559055118110236,"duration":1.6623257239583609},{"name":"D4","midi":62,"time":790.8330170000194,"velocity":0.7559055118110236,"duration":1.6644958619791623},{"name":"A4","midi":69,"time":790.8330170000194,"velocity":0.7559055118110236,"duration":1.6644958619791623},{"name":"F#5","midi":78,"time":790.8330170000194,"velocity":0.7559055118110236,"duration":0.13671869531253833},{"name":"E5","midi":76,"time":790.9719058333527,"velocity":0.7559055118110236,"duration":0.13671869531253833},{"name":"D5","midi":74,"time":791.110794666686,"velocity":0.7559055118110236,"duration":1.3867181953124827},{"name":"G4","midi":67,"time":792.4996830000193,"velocity":0.7559055118110236,"duration":3.331161861979126},{"name":"E4","midi":64,"time":792.4996830000193,"velocity":0.7559055118110236,"duration":3.331161861979126},{"name":"D5","midi":74,"time":792.4996830000193,"velocity":0.7559055118110236,"duration":1.6644958619791623},{"name":"C#5","midi":73,"time":794.1663490000193,"velocity":0.7559055118110236,"duration":0.20616311197920822},{"name":"D5","midi":74,"time":794.3746822500193,"velocity":0.7559055118110236,"duration":0.20616311197920822},{"name":"C#5","midi":73,"time":794.5830155000193,"velocity":0.7559055118110236,"duration":0.20616311197920822},{"name":"D5","midi":74,"time":794.7913487500193,"velocity":0.7559055118110236,"duration":0.20616311197920822},{"name":"C#5","midi":73,"time":794.9996820000193,"velocity":0.7559055118110236,"duration":0.4144963619792179},{"name":"D5","midi":74,"time":795.4163485000194,"velocity":0.7559055118110236,"duration":0.41232622395830276},{"name":"F#4","midi":66,"time":795.8330150000193,"velocity":0.7559055118110236,"duration":0.4144963619792179},{"name":"G4","midi":67,"time":796.2496815000193,"velocity":0.7559055118110236,"duration":0.4144963619792179},{"name":"A4","midi":69,"time":796.6663480000193,"velocity":0.7559055118110236,"duration":0.39279498177086225},{"name":"B4","midi":71,"time":797.061313119811,"velocity":0.7559055118110236,"duration":0.22569435416664874},{"name":"C5","midi":72,"time":797.2804970599151,"velocity":0.7559055118110236,"duration":0.2170138020833292},{"name":"A5","midi":81,"time":797.4996810000192,"velocity":0.7559055118110236,"duration":2.495658723958286},{"name":"G4","midi":67,"time":800.8330130000192,"velocity":0.7559055118110236,"duration":0.8311628619792373},{"name":"B4","midi":71,"time":800.8330130000192,"velocity":0.7559055118110236,"duration":0.4144963619792179},{"name":"A4","midi":69,"time":801.2496795000192,"velocity":0.7559055118110236,"duration":0.4144963619792179},{"name":"F#4","midi":66,"time":801.6663460000192,"velocity":0.7559055118110236,"duration":0.8311628619792373},{"name":"B4","midi":71,"time":801.6663460000192,"velocity":0.7559055118110236,"duration":0.4144963619792179},{"name":"D5","midi":74,"time":802.0830125000192,"velocity":0.7559055118110236,"duration":0.60763864583339},{"name":"E4","midi":64,"time":802.4996790000192,"velocity":0.7559055118110236,"duration":0.8311628619792373},{"name":"C#5","midi":73,"time":802.9163455000192,"velocity":0.7559055118110236,"duration":0.4144963619792179},{"name":"G4","midi":67,"time":803.3330120000193,"velocity":0.7559055118110236,"duration":0.8311628619792373},{"name":"E5","midi":76,"time":803.3330120000193,"velocity":0.7559055118110236,"duration":0.4144963619792179},{"name":"D5","midi":74,"time":803.7496785000193,"velocity":0.7559055118110236,"duration":0.4144963619792179},{"name":"A3","midi":57,"time":804.1663450000193,"velocity":0.7559055118110236,"duration":0.8311628619792373},{"name":"C#5","midi":73,"time":804.1663450000193,"velocity":0.7559055118110236,"duration":0.4144963619792179},{"name":"B4","midi":71,"time":804.5830115000193,"velocity":0.7559055118110236,"duration":0.4144963619792179},{"name":"C#4","midi":61,"time":804.9996780000193,"velocity":0.7559055118110236,"duration":0.8311628619792373},{"name":"A4","midi":69,"time":804.9996780000193,"velocity":0.7559055118110236,"duration":0.4144963619792179},{"name":"G4","midi":67,"time":805.4163445000194,"velocity":0.7559055118110236,"duration":0.4144963619792179},{"name":"D4","midi":62,"time":805.8330110000194,"velocity":0.7559055118110236,"duration":0.8311628619792373},{"name":"F#4","midi":66,"time":805.8330110000194,"velocity":0.7559055118110236,"duration":0.4144963619792179},{"name":"A4","midi":69,"time":806.2496775000194,"velocity":0.7559055118110236,"duration":0.4144963619792179},{"name":"A3","midi":57,"time":806.6663440000194,"velocity":0.7559055118110236,"duration":0.8311628619792373},{"name":"G4","midi":67,"time":806.6663440000194,"velocity":0.7559055118110236,"duration":0.4144963619792179},{"name":"F#4","midi":66,"time":807.0830105000194,"velocity":0.7559055118110236,"duration":0.4144963619792179},{"name":"D3","midi":50,"time":807.4996770000195,"velocity":0.7559055118110236,"duration":0.8311628619792373},{"name":"G4","midi":67,"time":807.4996770000195,"velocity":0.7559055118110236,"duration":0.4144963619792179},{"name":"F#4","midi":66,"time":807.9163435000195,"velocity":0.7559055118110236,"duration":0.4144963619792179},{"name":"A2","midi":45,"time":808.3330100000195,"velocity":0.7559055118110236,"duration":0.8311628619792373},{"name":"E4","midi":64,"time":808.3330100000195,"velocity":0.7559055118110236,"duration":0.4144963619792179},{"name":"F#4","midi":66,"time":808.7496765000195,"velocity":0.7559055118110236,"duration":0.4144963619792179},{"name":"F#2","midi":42,"time":809.1663430000195,"velocity":0.7559055118110236,"duration":0.8311628619792373},{"name":"E4","midi":64,"time":809.1663430000195,"velocity":0.7559055118110236,"duration":0.4535588463542126},{"name":"D4","midi":62,"time":809.6220719843946,"velocity":0.7559055118110236,"duration":0.60763864583339},{"name":"A2","midi":45,"time":809.9996760000196,"velocity":0.7559055118110236,"duration":0.8311628619792373},{"name":"E4","midi":64,"time":810.4163425000196,"velocity":0.7559055118110236,"duration":0.4144963619792179},{"name":"D2","midi":38,"time":810.8330090000196,"velocity":0.7559055118110236,"duration":0.8311628619792373},{"name":"F#4","midi":66,"time":810.8330090000196,"velocity":0.7559055118110236,"duration":0.20616311197920822},{"name":"G#4","midi":68,"time":811.0413422500196,"velocity":0.7559055118110236,"duration":0.20616311197920822},{"name":"A4","midi":69,"time":811.2496755000196,"velocity":0.7559055118110236,"duration":0.7812496875000079},{"name":"D4","midi":62,"time":811.6663420000197,"velocity":0.7559055118110236,"duration":0.4144963619791042},{"name":"B3","midi":59,"time":812.0830085000196,"velocity":0.7559055118110236,"duration":0.4144963619792179},{"name":"G#4","midi":68,"time":812.0830085000196,"velocity":0.7559055118110236,"duration":0.4144963619792179},{"name":"C#4","midi":61,"time":812.4996750000196,"velocity":0.7559055118110236,"duration":0.8311628619792373},{"name":"A4","midi":69,"time":812.4996750000196,"velocity":0.7559055118110236,"duration":0.4144963619792179},{"name":"E4","midi":64,"time":812.9163415000196,"velocity":0.7559055118110236,"duration":0.20616311197920822},{"name":"D4","midi":62,"time":813.1246747500196,"velocity":0.7559055118110236,"duration":0.20616311197920822},{"name":"A3","midi":57,"time":813.3330080000196,"velocity":0.7559055118110236,"duration":0.8311628619792373},{"name":"E4","midi":64,"time":813.3330080000196,"velocity":0.7559055118110236,"duration":0.4144963619792179},{"name":"C#5","midi":73,"time":813.7496745000196,"velocity":0.7559055118110236,"duration":0.7812496875000079},{"name":"B3","midi":59,"time":814.1663410000197,"velocity":0.7559055118110236,"duration":0.8311628619792373},{"name":"D5","midi":74,"time":814.5830075000197,"velocity":0.7559055118110236,"duration":0.4144963619792179},{"name":"G#3","midi":56,"time":814.9996740000197,"velocity":0.7559055118110236,"duration":0.8311628619792373},{"name":"E4","midi":64,"time":814.9996740000197,"velocity":0.7559055118110236,"duration":0.4144963619792179},{"name":"B4","midi":71,"time":815.4163405000197,"velocity":0.7559055118110236,"duration":0.4144963619792179},{"name":"A2","midi":45,"time":815.8330070000197,"velocity":0.7559055118110236,"duration":0.8311628619792373},{"name":"C#5","midi":73,"time":815.8330070000197,"velocity":0.7559055118110236,"duration":0.20616311197920822},{"name":"D#5","midi":75,"time":816.0413402500197,"velocity":0.7559055118110236,"duration":0.20616311197920822},{"name":"E5","midi":76,"time":816.2496735000198,"velocity":0.7559055118110236,"duration":0.7378469270832966},{"name":"A3","midi":57,"time":816.6663400000198,"velocity":0.7559055118110236,"duration":0.4144963619791042},{"name":"F#3","midi":54,"time":817.0830065000197,"velocity":0.7559055118110236,"duration":0.4144963619792179},{"name":"D#5","midi":75,"time":817.0830065000197,"velocity":0.7559055118110236,"duration":0.4144963619792179},{"name":"G#3","midi":56,"time":817.4996730000197,"velocity":0.7559055118110236,"duration":0.8311628619792373},{"name":"E5","midi":76,"time":817.4996730000197,"velocity":0.7559055118110236,"duration":0.4144963619792179},{"name":"B4","midi":71,"time":817.9163395000197,"velocity":0.7559055118110236,"duration":0.20616311197920822},{"name":"A4","midi":69,"time":818.1246727500197,"velocity":0.7559055118110236,"duration":0.20616311197920822},{"name":"E3","midi":52,"time":818.3330060000197,"velocity":0.7559055118110236,"duration":0.8311628619792373},{"name":"B4","midi":71,"time":818.3330060000197,"velocity":0.7559055118110236,"duration":0.4144963619792179},{"name":"G#5","midi":80,"time":818.7496725000198,"velocity":0.7559055118110236,"duration":0.694444166666699},{"name":"F#3","midi":54,"time":819.1663390000198,"velocity":0.7559055118110236,"duration":0.8311628619792373},{"name":"A5","midi":81,"time":819.5830055000198,"velocity":0.7559055118110236,"duration":0.4144963619792179},{"name":"D#3","midi":51,"time":819.9996720000198,"velocity":0.7559055118110236,"duration":0.8311628619792373},{"name":"B4","midi":71,"time":819.9996720000198,"velocity":0.7559055118110236,"duration":0.4144963619792179},{"name":"F#5","midi":78,"time":820.4163385000198,"velocity":0.7559055118110236,"duration":0.4144963619792179},{"name":"E2","midi":40,"time":820.8330050000199,"velocity":0.7559055118110236,"duration":0.8311628619792373},{"name":"G#5","midi":80,"time":820.8330050000199,"velocity":0.7559055118110236,"duration":0.20616311197920822},{"name":"A5","midi":81,"time":821.0413382500199,"velocity":0.7559055118110236,"duration":0.20616311197920822},{"name":"B5","midi":83,"time":821.2496715000199,"velocity":0.7559055118110236,"duration":0.798610791666647},{"name":"D3","midi":50,"time":821.6663380000199,"velocity":0.7559055118110236,"duration":0.4144963619791042},{"name":"B2","midi":47,"time":822.0830045000198,"velocity":0.7559055118110236,"duration":0.4144963619792179},{"name":"A5","midi":81,"time":822.0830045000198,"velocity":0.7559055118110236,"duration":0.20616311197920822},{"name":"G#5","midi":80,"time":822.2913377500198,"velocity":0.7559055118110236,"duration":0.20616311197920822},{"name":"C#3","midi":49,"time":822.4996710000198,"velocity":0.7559055118110236,"duration":0.8311628619791236},{"name":"F#5","midi":78,"time":822.4996710000198,"velocity":0.7559055118110236,"duration":0.24088532031248633},{"name":"E5","midi":76,"time":822.7427264583531,"velocity":0.7559055118110236,"duration":0.21484366406252775},{"name":"A5","midi":81,"time":822.9597402604364,"velocity":0.7559055118110236,"duration":0.47743036458325605},{"name":"A2","midi":45,"time":823.3330040000197,"velocity":0.7559055118110236,"duration":0.8311628619791236},{"name":"G#5","midi":80,"time":823.5413372500196,"velocity":0.7559055118110236,"duration":0.20616311197920822},{"name":"F#5","midi":78,"time":823.7496705000196,"velocity":0.7559055118110236,"duration":0.20616311197920822},{"name":"E5","midi":76,"time":823.9580037500197,"velocity":0.7559055118110236,"duration":0.20616311197920822},{"name":"F#2","midi":42,"time":824.1663370000197,"velocity":0.7559055118110236,"duration":0.8311628619790099},{"name":"D#5","midi":75,"time":824.1663370000197,"velocity":0.7559055118110236,"duration":0.2278644921874502},{"name":"E5","midi":76,"time":824.3963716302279,"velocity":0.7559055118110236,"duration":0.2278644921874502},{"name":"F#5","midi":78,"time":824.6264062604362,"velocity":0.7559055118110236,"duration":0.7161455468749409},{"name":"D#3","midi":51,"time":824.9996700000195,"velocity":0.7559055118110236,"duration":0.8311628619792373},{"name":"A4","midi":69,"time":825.4163365000195,"velocity":0.7559055118110236,"duration":0.4144963619792179},{"name":"E3","midi":52,"time":825.8330030000195,"velocity":0.7559055118110236,"duration":0.8311628619790099},{"name":"G#4","midi":68,"time":825.8330030000195,"velocity":0.7559055118110236,"duration":0.21918394010413067},{"name":"F#4","midi":66,"time":826.0543570781444,"velocity":0.7559055118110236,"duration":0.21918394010413067},{"name":"E4","midi":64,"time":826.2757111562694,"velocity":0.7559055118110236,"duration":0.3819442916666276},{"name":"E2","midi":40,"time":826.6663360000193,"velocity":0.7559055118110236,"duration":1.664495861979276},{"name":"D5","midi":74,"time":826.6663360000193,"velocity":0.7559055118110236,"duration":0.4144963619792179},{"name":"B4","midi":71,"time":827.0830025000193,"velocity":0.7559055118110236,"duration":0.4144963619792179},{"name":"G#4","midi":68,"time":827.4996690000194,"velocity":0.7559055118110236,"duration":0.4144963619792179},{"name":"E4","midi":64,"time":827.9163355000194,"velocity":0.7559055118110236,"duration":0.4144963619792179},{"name":"B3","midi":59,"time":828.3330020000194,"velocity":0.7559055118110236,"duration":0.4144963619792179},{"name":"G#3","midi":56,"time":828.7496685000194,"velocity":0.7559055118110236,"duration":0.4144963619792179},{"name":"E3","midi":52,"time":829.1663350000194,"velocity":0.7559055118110236,"duration":0.4144963619792179},{"name":"F#3","midi":54,"time":829.5830015000195,"velocity":0.7559055118110236,"duration":0.20616311197920822},{"name":"G#3","midi":56,"time":829.7913347500195,"velocity":0.7559055118110236,"duration":0.20616311197920822},{"name":"A3","midi":57,"time":829.9996680000195,"velocity":0.7559055118110236,"duration":0.20616311197920822},{"name":"B3","midi":59,"time":830.2080012500195,"velocity":0.7559055118110236,"duration":0.20616311197920822},{"name":"C#4","midi":61,"time":830.4163345000195,"velocity":0.7559055118110236,"duration":0.20616311197920822},{"name":"D4","midi":62,"time":830.6246677500195,"velocity":0.7559055118110236,"duration":0.20616311197920822},{"name":"A3","midi":57,"time":830.8330010000195,"velocity":0.7559055118110236,"duration":0.8311628619792373},{"name":"C#4","midi":61,"time":830.8330010000195,"velocity":0.7559055118110236,"duration":0.20616311197920822},{"name":"E4","midi":64,"time":831.0413342500195,"velocity":0.7559055118110236,"duration":0.20616311197920822},{"name":"A4","midi":69,"time":831.2496675000195,"velocity":0.7559055118110236,"duration":0.7812496875000079},{"name":"B3","midi":59,"time":831.6663340000196,"velocity":0.7559055118110236,"duration":0.8311628619792373},{"name":"G#4","midi":68,"time":832.0830005000196,"velocity":0.7559055118110236,"duration":0.4144963619792179},{"name":"C#4","midi":61,"time":832.4996670000196,"velocity":0.7559055118110236,"duration":0.8311628619792373},{"name":"A4","midi":69,"time":832.4996670000196,"velocity":0.7559055118110236,"duration":0.4144963619792179},{"name":"E4","midi":64,"time":832.9163335000196,"velocity":0.7559055118110236,"duration":0.20616311197920822},{"name":"A4","midi":69,"time":833.1246667500196,"velocity":0.7559055118110236,"duration":0.20616311197920822},{"name":"E4","midi":64,"time":833.3330000000196,"velocity":0.7559055118110236,"duration":0.8311628619792373},{"name":"C#5","midi":73,"time":833.3330000000196,"velocity":0.7559055118110236,"duration":0.20616311197920822},{"name":"B4","midi":71,"time":833.5413332500196,"velocity":0.7559055118110236,"duration":0.20616311197920822},{"name":"A4","midi":69,"time":833.7496665000197,"velocity":0.7559055118110236,"duration":0.20616311197920822},{"name":"G#4","midi":68,"time":833.9579997500197,"velocity":0.7559055118110236,"duration":0.20616311197920822},{"name":"C#4","midi":61,"time":834.1663330000197,"velocity":0.7559055118110236,"duration":0.8311628619792373},{"name":"A4","midi":69,"time":834.1663330000197,"velocity":0.7559055118110236,"duration":0.4144963619792179},{"name":"E4","midi":64,"time":834.5829995000197,"velocity":0.7559055118110236,"duration":0.20616311197920822},{"name":"A4","midi":69,"time":834.7913327500197,"velocity":0.7559055118110236,"duration":0.20616311197920822},{"name":"A3","midi":57,"time":834.9996660000197,"velocity":0.7559055118110236,"duration":0.8311628619792373},{"name":"C#5","midi":73,"time":834.9996660000197,"velocity":0.7559055118110236,"duration":0.20616311197920822},{"name":"B4","midi":71,"time":835.2079992500197,"velocity":0.7559055118110236,"duration":0.20616311197920822},{"name":"A4","midi":69,"time":835.4163325000197,"velocity":0.7559055118110236,"duration":0.20616311197920822},{"name":"G#4","midi":68,"time":835.6246657500197,"velocity":0.7559055118110236,"duration":0.20616311197920822},{"name":"F#3","midi":54,"time":835.8329990000198,"velocity":0.7559055118110236,"duration":0.8311628619792373},{"name":"A4","midi":69,"time":835.8329990000198,"velocity":0.7559055118110236,"duration":0.20616311197920822},{"name":"C#5","midi":73,"time":836.0630336302281,"velocity":0.7559055118110236,"duration":0.20616311197920822},{"name":"D5","midi":74,"time":836.2930682604365,"velocity":0.7559055118110236,"duration":0.624999750000029},{"name":"E3","midi":52,"time":836.6663320000198,"velocity":0.7559055118110236,"duration":0.8311628619792373},{"name":"C#5","midi":73,"time":837.0829985000198,"velocity":0.7559055118110236,"duration":0.4144963619792179},{"name":"F#3","midi":54,"time":837.4996650000198,"velocity":0.7559055118110236,"duration":0.8311628619792373},{"name":"D5","midi":74,"time":837.4996650000198,"velocity":0.7559055118110236,"duration":0.4144963619792179},{"name":"A4","midi":69,"time":837.9163315000199,"velocity":0.7559055118110236,"duration":0.20616311197920822},{"name":"D5","midi":74,"time":838.1246647500199,"velocity":0.7559055118110236,"duration":0.20616311197920822},{"name":"A3","midi":57,"time":838.3329980000199,"velocity":0.7559055118110236,"duration":0.8311628619792373},{"name":"F#5","midi":78,"time":838.3329980000199,"velocity":0.7559055118110236,"duration":0.20616311197920822},{"name":"E5","midi":76,"time":838.5413312500199,"velocity":0.7559055118110236,"duration":0.20616311197920822},{"name":"D5","midi":74,"time":838.7496645000199,"velocity":0.7559055118110236,"duration":0.20616311197920822},{"name":"C#5","midi":73,"time":838.9579977500199,"velocity":0.7559055118110236,"duration":0.20616311197920822},{"name":"F#3","midi":54,"time":839.1663310000199,"velocity":0.7559055118110236,"duration":0.8311628619792373},{"name":"D5","midi":74,"time":839.1663310000199,"velocity":0.7559055118110236,"duration":0.4144963619792179},{"name":"A4","midi":69,"time":839.5829975000199,"velocity":0.7559055118110236,"duration":0.20616311197920822},{"name":"D5","midi":74,"time":839.7913307500199,"velocity":0.7559055118110236,"duration":0.20616311197920822},{"name":"D3","midi":50,"time":839.99966400002,"velocity":0.7559055118110236,"duration":0.8311628619792373},{"name":"F#5","midi":78,"time":839.99966400002,"velocity":0.7559055118110236,"duration":0.20616311197920822},{"name":"E5","midi":76,"time":840.20799725002,"velocity":0.7559055118110236,"duration":0.20616311197920822},{"name":"D5","midi":74,"time":840.41633050002,"velocity":0.7559055118110236,"duration":0.20616311197920822},{"name":"C#5","midi":73,"time":840.62466375002,"velocity":0.7559055118110236,"duration":0.20616311197920822},{"name":"B2","midi":47,"time":840.83299700002,"velocity":0.7559055118110236,"duration":0.4144963619792179},{"name":"D5","midi":74,"time":840.83299700002,"velocity":0.7559055118110236,"duration":0.20616311197920822},{"name":"F#5","midi":78,"time":841.04133025002,"velocity":0.7559055118110236,"duration":0.20616311197920822},{"name":"G#3","midi":56,"time":841.24966350002,"velocity":0.7559055118110236,"duration":0.4144963619792179},{"name":"E5","midi":76,"time":841.24966350002,"velocity":0.7559055118110236,"duration":0.20616311197920822},{"name":"D5","midi":74,"time":841.45799675002,"velocity":0.7559055118110236,"duration":0.20616311197920822},{"name":"A3","midi":57,"time":841.66633000002,"velocity":0.7559055118110236,"duration":0.4144963619792179},{"name":"C#5","midi":73,"time":841.66633000002,"velocity":0.7559055118110236,"duration":0.20616311197920822},{"name":"B4","midi":71,"time":841.87466325002,"velocity":0.7559055118110236,"duration":0.20616311197920822},{"name":"E3","midi":52,"time":842.08299650002,"velocity":0.7559055118110236,"duration":0.4144963619792179},{"name":"C#5","midi":73,"time":842.08299650002,"velocity":0.7559055118110236,"duration":0.20616311197920822},{"name":"E5","midi":76,"time":842.29132975002,"velocity":0.7559055118110236,"duration":0.20616311197920822},{"name":"C#3","midi":49,"time":842.4996630000201,"velocity":0.7559055118110236,"duration":0.4144963619792179},{"name":"A5","midi":81,"time":842.4996630000201,"velocity":0.7559055118110236,"duration":0.4144963619792179},{"name":"B2","midi":47,"time":842.9163295000201,"velocity":0.7559055118110236,"duration":0.4144963619792179},{"name":"G#5","midi":80,"time":842.9163295000201,"velocity":0.7559055118110236,"duration":0.20616311197920822},{"name":"F#5","midi":78,"time":843.1246627500201,"velocity":0.7559055118110236,"duration":0.20616311197920822},{"name":"C#3","midi":49,"time":843.3329960000201,"velocity":0.7559055118110236,"duration":0.4144963619792179},{"name":"E5","midi":76,"time":843.3329960000201,"velocity":0.7559055118110236,"duration":0.20616311197920822},{"name":"D5","midi":74,"time":843.5413292500201,"velocity":0.7559055118110236,"duration":0.20616311197920822},{"name":"D3","midi":50,"time":843.7496625000201,"velocity":0.7559055118110236,"duration":0.4144963619792179},{"name":"C#5","midi":73,"time":843.7496625000201,"velocity":0.7559055118110236,"duration":0.20616311197920822},{"name":"B4","midi":71,"time":843.9579957500201,"velocity":0.7559055118110236,"duration":0.20616311197920822},{"name":"E3","midi":52,"time":844.1663290000201,"velocity":0.7559055118110236,"duration":0.8311628619792373},{"name":"C#5","midi":73,"time":844.1663290000201,"velocity":0.7559055118110236,"duration":0.43185746614585696},{"name":"A4","midi":69,"time":844.5829955000202,"velocity":0.7559055118110236,"duration":0.3993053958333803},{"name":"E2","midi":40,"time":844.9996620000202,"velocity":0.7559055118110236,"duration":0.8311628619792373},{"name":"E4","midi":64,"time":844.9996620000202,"velocity":0.7559055118110236,"duration":0.43185746614585696},{"name":"G#4","midi":68,"time":845.4163285000202,"velocity":0.7559055118110236,"duration":0.3993053958333803},{"name":"A2","midi":45,"time":845.8329950000202,"velocity":0.7559055118110236,"duration":4.991317447916799},{"name":"A4","midi":69,"time":845.8329950000202,"velocity":0.7559055118110236,"duration":0.4144963619792179},{"name":"E4","midi":64,"time":846.2496615000202,"velocity":0.7559055118110236,"duration":0.4144963619792179},{"name":"D3","midi":50,"time":846.6663280000203,"velocity":0.7559055118110236,"duration":0.8311628619792373},{"name":"F#4","midi":66,"time":846.6663280000203,"velocity":0.7559055118110236,"duration":0.8246524479167192},{"name":"D4","midi":62,"time":847.0829945000203,"velocity":0.7559055118110236,"duration":0.4144963619792179},{"name":"E3","midi":52,"time":847.4996610000203,"velocity":0.7559055118110236,"duration":0.8311628619792373},{"name":"C#4","midi":61,"time":847.4996610000203,"velocity":0.7559055118110236,"duration":0.8246524479167192},{"name":"A4","midi":69,"time":847.9163275000203,"velocity":0.7559055118110236,"duration":0.8246524479167192},{"name":"F3","midi":53,"time":848.3329940000203,"velocity":0.7559055118110236,"duration":0.8311628619792373},{"name":"D4","midi":62,"time":848.3329940000203,"velocity":0.7559055118110236,"duration":0.8246524479167192},{"name":"B3","midi":59,"time":848.3329940000203,"velocity":0.7559055118110236,"duration":0.8246524479167192},{"name":"G#4","midi":68,"time":848.7496605000204,"velocity":0.7559055118110236,"duration":0.4144963619792179},{"name":"E3","midi":52,"time":849.1663270000204,"velocity":0.7559055118110236,"duration":1.6644958619791623},{"name":"A3","midi":57,"time":849.1663270000204,"velocity":0.7559055118110236,"duration":1.6644958619791623},{"name":"C#4","midi":61,"time":849.1663270000204,"velocity":0.7559055118110236,"duration":1.6644958619791623},{"name":"A4","midi":69,"time":849.1663270000204,"velocity":0.7559055118110236,"duration":1.6644958619791623},{"name":"E4","midi":64,"time":849.1663270000204,"velocity":0.7559055118110236,"duration":1.6644958619791623},{"name":"E4","midi":64,"time":851.2496595000204,"velocity":0.7559055118110236,"duration":1.6644958619791623},{"name":"A3","midi":57,"time":851.2496595000204,"velocity":0.7559055118110236,"duration":1.6644958619791623},{"name":"C#5","midi":73,"time":851.2496595000204,"velocity":0.7559055118110236,"duration":0.20616311197920822},{"name":"B4","midi":71,"time":851.4579927500204,"velocity":0.7559055118110236,"duration":0.20616311197920822},{"name":"A4","midi":69,"time":851.6663260000204,"velocity":0.7559055118110236,"duration":2.9144953619791067},{"name":"B3","midi":59,"time":852.9163255000203,"velocity":0.7559055118110236,"duration":1.6644958619791623},{"name":"D4","midi":62,"time":852.9163255000203,"velocity":0.7559055118110236,"duration":1.6644958619791623},{"name":"E4","midi":64,"time":854.5829915000203,"velocity":0.7559055118110236,"duration":1.664495861979276},{"name":"C#4","midi":61,"time":854.5829915000203,"velocity":0.7559055118110236,"duration":1.664495861979276},{"name":"A4","midi":69,"time":854.5829915000203,"velocity":0.7559055118110236,"duration":0.20616311197920822},{"name":"G4","midi":67,"time":854.7913247500203,"velocity":0.7559055118110236,"duration":0.20616311197920822},{"name":"A4","midi":69,"time":854.9996580000203,"velocity":0.7559055118110236,"duration":0.20616311197920822},{"name":"G4","midi":67,"time":855.2079912500203,"velocity":0.7559055118110236,"duration":0.20616311197920822},{"name":"A4","midi":69,"time":855.4163245000203,"velocity":0.7559055118110236,"duration":0.20616311197920822},{"name":"G4","midi":67,"time":855.6246577500203,"velocity":0.7559055118110236,"duration":0.20616311197920822},{"name":"F#4","midi":66,"time":855.8329910000203,"velocity":0.7559055118110236,"duration":0.20616311197920822},{"name":"G4","midi":67,"time":856.0413242500204,"velocity":0.7559055118110236,"duration":0.20616311197920822},{"name":"A#3","midi":58,"time":856.2496575000204,"velocity":0.7559055118110236,"duration":0.2756075286458781},{"name":"B3","midi":59,"time":856.527435166687,"velocity":0.7559055118110236,"duration":0.2756075286458781},{"name":"C#4","midi":61,"time":856.8052128333537,"velocity":0.7559055118110236,"duration":0.23871518229168487},{"name":"D4","midi":62,"time":857.0829905000204,"velocity":0.7559055118110236,"duration":0.23871518229168487},{"name":"E4","midi":64,"time":857.3607681666871,"velocity":0.7559055118110236,"duration":0.23871518229168487},{"name":"F#4","midi":66,"time":857.6385458333538,"velocity":0.7559055118110236,"duration":0.2756075286458781},{"name":"E5","midi":76,"time":857.9163235000204,"velocity":0.7559055118110236,"duration":2.495658723958286},{"name":"D5","midi":74,"time":860.8329890000203,"velocity":0.7559055118110236,"duration":0.4144963619792179},{"name":"B3","midi":59,"time":860.8329890000203,"velocity":0.7559055118110236,"duration":0.8311628619792373},{"name":"C#5","midi":73,"time":861.2496555000204,"velocity":0.7559055118110236,"duration":0.4144963619792179},{"name":"B4","midi":71,"time":861.6663220000204,"velocity":0.7559055118110236,"duration":0.13671869531253833},{"name":"G4","midi":67,"time":861.6663220000204,"velocity":0.7559055118110236,"duration":0.8311628619792373},{"name":"A4","midi":69,"time":861.8052108333537,"velocity":0.7559055118110236,"duration":0.13671869531253833},{"name":"B4","midi":71,"time":861.9440996666871,"velocity":0.7559055118110236,"duration":0.13671869531253833},{"name":"G5","midi":79,"time":862.0829885000204,"velocity":0.7559055118110236,"duration":0.60763864583339},{"name":"C#4","midi":61,"time":862.4996550000204,"velocity":0.7559055118110236,"duration":0.8311628619792373},{"name":"F#5","midi":78,"time":862.7774326666871,"velocity":0.7559055118110236,"duration":0.2756075286458781},{"name":"E5","midi":76,"time":863.0552103333538,"velocity":0.7559055118110236,"duration":0.2756075286458781},{"name":"F#5","midi":78,"time":863.3329880000205,"velocity":0.7559055118110236,"duration":0.4144963619792179},{"name":"D#4","midi":63,"time":863.3329880000205,"velocity":0.7559055118110236,"duration":0.8311628619792373},{"name":"C5","midi":72,"time":863.7496545000205,"velocity":0.7559055118110236,"duration":0.60763864583339},{"name":"G3","midi":55,"time":864.1663210000205,"velocity":0.7559055118110236,"duration":0.8311628619792373},{"name":"B4","midi":71,"time":864.4440986666872,"velocity":0.7559055118110236,"duration":0.2756075286458781},{"name":"A#4","midi":70,"time":864.7218763333539,"velocity":0.7559055118110236,"duration":0.2756075286458781},{"name":"B4","midi":71,"time":864.9996540000205,"velocity":0.7559055118110236,"duration":0.4144963619792179},{"name":"E4","midi":64,"time":864.9996540000205,"velocity":0.7559055118110236,"duration":0.8311628619792373},{"name":"E5","midi":76,"time":865.4163205000206,"velocity":0.7559055118110236,"duration":0.7378469270832966},{"name":"F#3","midi":54,"time":865.8329870000206,"velocity":0.7559055118110236,"duration":0.8311628619791236},{"name":"A#4","midi":70,"time":866.2496535000205,"velocity":0.7559055118110236,"duration":0.4144963619792179},{"name":"B4","midi":71,"time":866.6663200000205,"velocity":0.7559055118110236,"duration":0.4144963619792179},{"name":"G4","midi":67,"time":866.6663200000205,"velocity":0.7559055118110236,"duration":0.8311628619792373},{"name":"C#5","midi":73,"time":867.0829865000205,"velocity":0.7559055118110236,"duration":0.4144963619792179},{"name":"B4","midi":71,"time":867.4996530000205,"velocity":0.7559055118110236,"duration":0.4144963619792179},{"name":"F#4","midi":66,"time":867.4996530000205,"velocity":0.7559055118110236,"duration":0.8311628619792373},{"name":"A#4","midi":70,"time":867.9163195000206,"velocity":0.7559055118110236,"duration":0.4144963619792179},{"name":"G#4","midi":68,"time":868.3329860000206,"velocity":0.7559055118110236,"duration":0.4144963619792179},{"name":"E4","midi":64,"time":868.3329860000206,"velocity":0.7559055118110236,"duration":0.8311628619792373},{"name":"A#4","midi":70,"time":868.7496525000206,"velocity":0.7559055118110236,"duration":0.4144963619792179},{"name":"G#4","midi":68,"time":869.1663190000206,"velocity":0.7559055118110236,"duration":0.4144963619792179},{"name":"D4","midi":62,"time":869.1663190000206,"velocity":0.7559055118110236,"duration":0.8311628619792373},{"name":"F#4","midi":66,"time":869.5829855000206,"velocity":0.7559055118110236,"duration":0.60763864583339},{"name":"C#4","midi":61,"time":869.9996520000207,"velocity":0.7559055118110236,"duration":0.8311628619792373},{"name":"A#4","midi":70,"time":870.4163185000207,"velocity":0.7559055118110236,"duration":0.20616311197920822},{"name":"C#5","midi":73,"time":870.6246517500207,"velocity":0.7559055118110236,"duration":0.20616311197920822},{"name":"D5","midi":74,"time":870.8329850000207,"velocity":0.7559055118110236,"duration":0.2278644921874502},{"name":"B3","midi":59,"time":870.8329850000207,"velocity":0.7559055118110236,"duration":0.8311628619790099},{"name":"C#5","midi":73,"time":871.063019630229,"velocity":0.7559055118110236,"duration":0.2278644921874502},{"name":"B4","midi":71,"time":871.2930542604372,"velocity":0.7559055118110236,"duration":0.7378469270832966},{"name":"A3","midi":57,"time":871.6663180000205,"velocity":0.7559055118110236,"duration":0.8311628619792373},{"name":"C#5","midi":73,"time":872.0829845000205,"velocity":0.7559055118110236,"duration":0.20616311197920822},{"name":"D#5","midi":75,"time":872.2913177500205,"velocity":0.7559055118110236,"duration":0.20616311197920822},{"name":"E5","midi":76,"time":872.4996510000205,"velocity":0.7559055118110236,"duration":0.2278644921874502},{"name":"G3","midi":55,"time":872.4996510000205,"velocity":0.7559055118110236,"duration":0.8311628619790099},{"name":"D#5","midi":75,"time":872.7296856302288,"velocity":0.7559055118110236,"duration":0.2278644921874502},{"name":"C#5","midi":73,"time":872.959720260437,"velocity":0.7559055118110236,"duration":0.7378469270832966},{"name":"A3","midi":57,"time":873.3329840000204,"velocity":0.7559055118110236,"duration":0.8311628619792373},{"name":"D#5","midi":75,"time":873.7496505000204,"velocity":0.7559055118110236,"duration":0.20616311197920822},{"name":"E5","midi":76,"time":873.9579837500204,"velocity":0.7559055118110236,"duration":0.20616311197920822},{"name":"F#5","midi":78,"time":874.1663170000204,"velocity":0.7559055118110236,"duration":0.2278644921874502},{"name":"G3","midi":55,"time":874.1663170000204,"velocity":0.7559055118110236,"duration":0.8311628619790099},{"name":"E5","midi":76,"time":874.3963516302287,"velocity":0.7559055118110236,"duration":0.2278644921874502},{"name":"D#5","midi":75,"time":874.6263862604369,"velocity":0.7559055118110236,"duration":0.7378469270832966},{"name":"F#3","midi":54,"time":874.9996500000202,"velocity":0.7559055118110236,"duration":0.8311628619792373},{"name":"E5","midi":76,"time":875.4163165000202,"velocity":0.7559055118110236,"duration":0.20616311197920822},{"name":"F#5","midi":78,"time":875.6246497500202,"velocity":0.7559055118110236,"duration":0.20616311197920822},{"name":"G5","midi":79,"time":875.8329830000202,"velocity":0.7559055118110236,"duration":0.2278644921874502},{"name":"E3","midi":52,"time":875.8329830000202,"velocity":0.7559055118110236,"duration":0.8311628619790099},{"name":"F#5","midi":78,"time":876.0630176302285,"velocity":0.7559055118110236,"duration":0.2278644921874502},{"name":"E5","midi":76,"time":876.2930522604368,"velocity":0.7559055118110236,"duration":0.41232622395830276},{"name":"D3","midi":50,"time":876.6663160000201,"velocity":0.7559055118110236,"duration":0.8311628619792373},{"name":"B4","midi":71,"time":876.8746492500201,"velocity":0.7559055118110236,"duration":0.20616311197920822},{"name":"E5","midi":76,"time":877.0829825000201,"velocity":0.7559055118110236,"duration":0.20616311197920822},{"name":"F#5","midi":78,"time":877.2913157500201,"velocity":0.7559055118110236,"duration":0.20616311197920822},{"name":"G5","midi":79,"time":877.4996490000201,"velocity":0.7559055118110236,"duration":0.20616311197920822},{"name":"C#3","midi":49,"time":877.4996490000201,"velocity":0.7559055118110236,"duration":0.8311628619792373},{"name":"F#5","midi":78,"time":877.7079822500201,"velocity":0.7559055118110236,"duration":0.20616311197920822},{"name":"E5","midi":76,"time":877.9163155000201,"velocity":0.7559055118110236,"duration":0.20616311197920822},{"name":"D5","midi":74,"time":878.1246487500201,"velocity":0.7559055118110236,"duration":0.20616311197920822},{"name":"C#5","midi":73,"time":878.3329820000201,"velocity":0.7559055118110236,"duration":0.20616311197920822},{"name":"D3","midi":50,"time":878.3329820000201,"velocity":0.7559055118110236,"duration":0.8311628619792373},{"name":"B4","midi":71,"time":878.5413152500201,"velocity":0.7559055118110236,"duration":0.20616311197920822},{"name":"A#4","midi":70,"time":878.7496485000202,"velocity":0.7559055118110236,"duration":0.20616311197920822},{"name":"G#4","midi":68,"time":878.9579817500202,"velocity":0.7559055118110236,"duration":0.20616311197920822},{"name":"A#4","midi":70,"time":879.1663150000202,"velocity":0.7559055118110236,"duration":0.6510414062501013},{"name":"C#3","midi":49,"time":879.1663150000202,"velocity":0.7559055118110236,"duration":0.831162861979351},{"name":"C#5","midi":73,"time":879.3963496302285,"velocity":0.7559055118110236,"duration":0.4340276041667721},{"name":"E5","midi":76,"time":879.6263842604369,"velocity":0.7559055118110236,"duration":0.7877601015626396},{"name":"B2","midi":47,"time":879.9996480000203,"velocity":0.7559055118110236,"duration":0.8311628619792373},{"name":"G4","midi":67,"time":880.4163145000203,"velocity":0.7559055118110236,"duration":0.4144963619792179},{"name":"F#4","midi":66,"time":880.8329810000204,"velocity":0.7559055118110236,"duration":0.20616311197920822},{"name":"A#2","midi":46,"time":880.8329810000204,"velocity":0.7559055118110236,"duration":0.8311628619792373},{"name":"G4","midi":67,"time":881.0413142500204,"velocity":0.7559055118110236,"duration":0.20616311197920822},{"name":"F#4","midi":66,"time":881.2496475000204,"velocity":0.7559055118110236,"duration":0.20616311197920822},{"name":"E4","midi":64,"time":881.4579807500204,"velocity":0.7559055118110236,"duration":0.20616311197920822},{"name":"E4","midi":64,"time":881.6663140000204,"velocity":0.7559055118110236,"duration":0.20616311197920822},{"name":"B2","midi":47,"time":881.6663140000204,"velocity":0.7559055118110236,"duration":0.8311628619792373},{"name":"F#4","midi":66,"time":881.8746472500204,"velocity":0.7559055118110236,"duration":0.20616311197920822},{"name":"E4","midi":64,"time":882.0829805000204,"velocity":0.7559055118110236,"duration":0.20616311197920822},{"name":"D4","midi":62,"time":882.2913137500204,"velocity":0.7559055118110236,"duration":0.20616311197920822},{"name":"D4","midi":62,"time":882.4996470000204,"velocity":0.7559055118110236,"duration":0.20616311197920822},{"name":"E3","midi":52,"time":882.4996470000204,"velocity":0.7559055118110236,"duration":0.8311628619792373},{"name":"E4","midi":64,"time":882.7079802500205,"velocity":0.7559055118110236,"duration":0.20616311197920822},{"name":"D4","midi":62,"time":882.9163135000205,"velocity":0.7559055118110236,"duration":0.20616311197920822},{"name":"C#4","midi":61,"time":883.1246467500205,"velocity":0.7559055118110236,"duration":0.20616311197920822},{"name":"C#4","midi":61,"time":883.3329800000205,"velocity":0.7559055118110236,"duration":0.20616311197920822},{"name":"G3","midi":55,"time":883.3329800000205,"velocity":0.7559055118110236,"duration":0.8311628619792373},{"name":"D4","midi":62,"time":883.5413132500205,"velocity":0.7559055118110236,"duration":0.20616311197920822},{"name":"C#4","midi":61,"time":883.7496465000205,"velocity":0.7559055118110236,"duration":0.20616311197920822},{"name":"B3","midi":59,"time":883.9579797500205,"velocity":0.7559055118110236,"duration":0.20616311197920822},{"name":"B3","midi":59,"time":884.1663130000205,"velocity":0.7559055118110236,"duration":0.20616311197920822},{"name":"F#3","midi":54,"time":884.1663130000205,"velocity":0.7559055118110236,"duration":0.8311628619792373},{"name":"C#4","midi":61,"time":884.3746462500205,"velocity":0.7559055118110236,"duration":0.20616311197920822},{"name":"B3","midi":59,"time":884.5829795000205,"velocity":0.7559055118110236,"duration":0.20616311197920822},{"name":"A#3","midi":58,"time":884.7913127500206,"velocity":0.7559055118110236,"duration":0.20616311197920822},{"name":"E4","midi":64,"time":884.9996460000206,"velocity":0.7559055118110236,"duration":0.41232622395830276},{"name":"F#2","midi":42,"time":884.9996460000206,"velocity":0.7559055118110236,"duration":0.8311628619792373},{"name":"D4","midi":62,"time":885.5552013333539,"velocity":0.7559055118110236,"duration":0.2756075286458781},{"name":"C#4","midi":61,"time":885.8329790000206,"velocity":0.7559055118110236,"duration":0.4144963619792179},{"name":"B2","midi":47,"time":885.8329790000206,"velocity":0.7559055118110236,"duration":0.8311628619791236},{"name":"B3","midi":59,"time":886.2496455000206,"velocity":0.7559055118110236,"duration":0.3906248437499471},{"name":"C#3","midi":49,"time":886.6663120000205,"velocity":0.7559055118110236,"duration":0.8311628619792373},{"name":"C#4","midi":61,"time":886.8746452500205,"velocity":0.7559055118110236,"duration":0.20616311197920822},{"name":"D4","midi":62,"time":887.0829785000205,"velocity":0.7559055118110236,"duration":0.20616311197920822},{"name":"E4","midi":64,"time":887.2913117500206,"velocity":0.7559055118110236,"duration":0.20616311197920822},{"name":"F#4","midi":66,"time":887.4996450000206,"velocity":0.7559055118110236,"duration":0.2278644921874502},{"name":"D3","midi":50,"time":887.4996450000206,"velocity":0.7559055118110236,"duration":0.8311628619790099},{"name":"E4","midi":64,"time":887.7296796302288,"velocity":0.7559055118110236,"duration":0.2278644921874502},{"name":"D4","midi":62,"time":887.9597142604371,"velocity":0.7559055118110236,"duration":0.5208331249999674},{"name":"E3","midi":52,"time":888.3329780000204,"velocity":0.7559055118110236,"duration":0.8311628619792373},{"name":"E4","midi":64,"time":888.5413112500204,"velocity":0.7559055118110236,"duration":0.20616311197920822},{"name":"F#4","midi":66,"time":888.7496445000204,"velocity":0.7559055118110236,"duration":0.20616311197920822},{"name":"G4","midi":67,"time":888.9579777500204,"velocity":0.7559055118110236,"duration":0.20616311197920822},{"name":"A4","midi":69,"time":889.1663110000204,"velocity":0.7559055118110236,"duration":0.2278644921874502},{"name":"F#3","midi":54,"time":889.1663110000204,"velocity":0.7559055118110236,"duration":0.8311628619790099},{"name":"G4","midi":67,"time":889.3963456302287,"velocity":0.7559055118110236,"duration":0.2278644921874502},{"name":"F#4","midi":66,"time":889.6263802604369,"velocity":0.7559055118110236,"duration":0.5208331249999674},{"name":"G3","midi":55,"time":889.9996440000202,"velocity":0.7559055118110236,"duration":0.8311628619792373},{"name":"G4","midi":67,"time":890.2079772500202,"velocity":0.7559055118110236,"duration":0.20616311197920822},{"name":"A4","midi":69,"time":890.4163105000202,"velocity":0.7559055118110236,"duration":0.20616311197920822},{"name":"B4","midi":71,"time":890.6246437500203,"velocity":0.7559055118110236,"duration":0.20616311197920822},{"name":"C5","midi":72,"time":890.8329770000203,"velocity":0.7559055118110236,"duration":0.2278644921874502},{"name":"A3","midi":57,"time":890.8329770000203,"velocity":0.7559055118110236,"duration":0.8311628619790099},{"name":"B4","midi":71,"time":891.0630116302285,"velocity":0.7559055118110236,"duration":0.2278644921874502},{"name":"A4","midi":69,"time":891.2930462604368,"velocity":0.7559055118110236,"duration":0.6944441666665853},{"name":"F#3","midi":54,"time":891.6663100000201,"velocity":0.7559055118110236,"duration":0.8311628619791236},{"name":"D#5","midi":75,"time":892.08297650002,"velocity":0.7559055118110236,"duration":0.4144963619792179},{"name":"E5","midi":76,"time":892.49964300002,"velocity":0.7559055118110236,"duration":0.38845470572914564},{"name":"G3","midi":55,"time":892.49964300002,"velocity":0.7559055118110236,"duration":0.8311628619790099},{"name":"B4","midi":71,"time":892.89026784377,"velocity":0.7559055118110236,"duration":0.21918394010413067},{"name":"A4","midi":69,"time":893.1116219218949,"velocity":0.7559055118110236,"duration":0.21918394010413067},{"name":"B4","midi":71,"time":893.3329760000198,"velocity":0.7559055118110236,"duration":0.4144963619792179},{"name":"E3","midi":52,"time":893.3329760000198,"velocity":0.7559055118110236,"duration":0.8311628619792373},{"name":"G5","midi":79,"time":893.7496425000198,"velocity":0.7559055118110236,"duration":0.7812496875000079},{"name":"E4","midi":64,"time":894.1663090000199,"velocity":0.7559055118110236,"duration":0.8311628619792373},{"name":"A5","midi":81,"time":894.5829755000199,"velocity":0.7559055118110236,"duration":0.4144963619792179},{"name":"C5","midi":72,"time":894.9996420000199,"velocity":0.7559055118110236,"duration":0.4144963619792179},{"name":"D4","midi":62,"time":894.9996420000199,"velocity":0.7559055118110236,"duration":0.8311628619792373},{"name":"B4","midi":71,"time":895.4163085000199,"velocity":0.7559055118110236,"duration":0.4144963619792179},{"name":"A4","midi":69,"time":895.8329750000199,"velocity":0.7559055118110236,"duration":0.20616311197920822},{"name":"C4","midi":60,"time":895.8329750000199,"velocity":0.7559055118110236,"duration":0.8311628619792373},{"name":"G4","midi":67,"time":896.0413082500199,"velocity":0.7559055118110236,"duration":0.20616311197920822},{"name":"A4","midi":69,"time":896.24964150002,"velocity":0.7559055118110236,"duration":0.8159718958333997},{"name":"A3","midi":57,"time":896.66630800002,"velocity":0.7559055118110236,"duration":0.8311628619792373},{"name":"G5","midi":79,"time":897.08297450002,"velocity":0.7559055118110236,"duration":0.4144963619792179},{"name":"F#5","midi":78,"time":897.49964100002,"velocity":0.7559055118110236,"duration":0.2278644921874502},{"name":"B3","midi":59,"time":897.49964100002,"velocity":0.7559055118110236,"duration":0.8311628619790099},{"name":"E5","midi":76,"time":897.7296756302283,"velocity":0.7559055118110236,"duration":0.2278644921874502},{"name":"D#5","midi":75,"time":897.9597102604365,"velocity":0.7559055118110236,"duration":0.7378469270832966},{"name":"G3","midi":55,"time":898.3329740000198,"velocity":0.7559055118110236,"duration":0.8311628619792373},{"name":"E5","midi":76,"time":898.7496405000198,"velocity":0.7559055118110236,"duration":0.20616311197920822},{"name":"G5","midi":79,"time":898.9579737500198,"velocity":0.7559055118110236,"duration":0.20616311197920822},{"name":"C6","midi":84,"time":899.1663070000199,"velocity":0.7559055118110236,"duration":0.2278644921874502},{"name":"A3","midi":57,"time":899.1663070000199,"velocity":0.7559055118110236,"duration":0.8311628619790099},{"name":"B5","midi":83,"time":899.3963416302281,"velocity":0.7559055118110236,"duration":0.2278644921874502},{"name":"A5","midi":81,"time":899.6263762604364,"velocity":0.7559055118110236,"duration":0.7378469270832966},{"name":"F#3","midi":54,"time":899.9996400000197,"velocity":0.7559055118110236,"duration":0.8311628619792373},{"name":"G#5","midi":80,"time":900.4163065000197,"velocity":0.7559055118110236,"duration":0.20616311197920822},{"name":"A5","midi":81,"time":900.6246397500197,"velocity":0.7559055118110236,"duration":0.20616311197920822},{"name":"B4","midi":71,"time":900.8329730000197,"velocity":0.7559055118110236,"duration":0.20616311197920822},{"name":"D#4","midi":63,"time":900.8329730000197,"velocity":0.7559055118110236,"duration":0.8311628619792373},{"name":"A5","midi":81,"time":901.0413062500197,"velocity":0.7559055118110236,"duration":0.20616311197920822},{"name":"G5","midi":79,"time":901.2496395000197,"velocity":0.7559055118110236,"duration":0.20616311197920822},{"name":"F#5","midi":78,"time":901.4579727500197,"velocity":0.7559055118110236,"duration":0.20616311197920822},{"name":"G5","midi":79,"time":901.6663060000197,"velocity":0.7559055118110236,"duration":0.4144963619792179},{"name":"E4","midi":64,"time":901.6663060000197,"velocity":0.7559055118110236,"duration":0.8311628619792373},{"name":"E5","midi":76,"time":902.0829725000198,"velocity":0.7559055118110236,"duration":0.4144963619792179},{"name":"C5","midi":72,"time":902.4996390000198,"velocity":0.7559055118110236,"duration":0.4144963619792179},{"name":"A3","midi":57,"time":902.4996390000198,"velocity":0.7559055118110236,"duration":0.8311628619792373},{"name":"F5","midi":77,"time":902.9163055000198,"velocity":0.7559055118110236,"duration":0.4144963619792179},{"name":"D#5","midi":75,"time":903.3329720000198,"velocity":0.7559055118110236,"duration":0.36892346354170513},{"name":"C4","midi":60,"time":903.3329720000198,"velocity":0.7559055118110236,"duration":0.8311628619791236},{"name":"E5","midi":76,"time":903.7669996041865,"velocity":0.7559055118110236,"duration":0.8138017578124845},{"name":"F#3","midi":54,"time":904.1663050000197,"velocity":0.7559055118110236,"duration":0.8311628619792373},{"name":"D#5","midi":75,"time":904.5829715000198,"velocity":0.7559055118110236,"duration":0.20616311197920822},{"name":"C#5","midi":73,"time":904.7913047500198,"velocity":0.7559055118110236,"duration":0.20616311197920822},{"name":"D#5","midi":75,"time":904.9996380000198,"velocity":0.7559055118110236,"duration":0.2278644921874502},{"name":"B3","midi":59,"time":904.9996380000198,"velocity":0.7559055118110236,"duration":0.8311628619790099},{"name":"F#5","midi":78,"time":905.229672630228,"velocity":0.7559055118110236,"duration":0.2278644921874502},{"name":"A5","midi":81,"time":905.4597072604363,"velocity":0.7559055118110236,"duration":0.6510414062499876},{"name":"E3","midi":52,"time":905.8329710000196,"velocity":0.7559055118110236,"duration":0.8311628619791236},{"name":"G5","midi":79,"time":906.2235958437697,"velocity":0.7559055118110236,"duration":0.21918394010413067},{"name":"F#5","midi":78,"time":906.4449499218946,"velocity":0.7559055118110236,"duration":0.21918394010413067},{"name":"G5","midi":79,"time":906.6663040000195,"velocity":0.7559055118110236,"duration":0.8246524479167192},{"name":"B2","midi":47,"time":906.6663040000195,"velocity":0.7559055118110236,"duration":0.8311628619792373},{"name":"E2","midi":40,"time":907.4996370000196,"velocity":0.7559055118110236,"duration":0.8311628619792373},{"name":"F#5","midi":78,"time":907.7079702500196,"velocity":0.7559055118110236,"duration":0.20616311197920822},{"name":"E5","midi":76,"time":907.9163035000196,"velocity":0.7559055118110236,"duration":0.20616311197920822},{"name":"F#5","midi":78,"time":908.1246367500196,"velocity":0.7559055118110236,"duration":0.20616311197920822},{"name":"G5","midi":79,"time":908.3329700000196,"velocity":0.7559055118110236,"duration":0.20616311197920822},{"name":"B2","midi":47,"time":908.3329700000196,"velocity":0.7559055118110236,"duration":0.8311628619792373},{"name":"F#5","midi":78,"time":908.5413032500196,"velocity":0.7559055118110236,"duration":0.20616311197920822},{"name":"E5","midi":76,"time":908.7496365000196,"velocity":0.7559055118110236,"duration":0.20616311197920822},{"name":"D5","midi":74,"time":908.9579697500196,"velocity":0.7559055118110236,"duration":0.20616311197920822},{"name":"C#5","midi":73,"time":909.1663030000196,"velocity":0.7559055118110236,"duration":0.20616311197920822},{"name":"E3","midi":52,"time":909.1663030000196,"velocity":0.7559055118110236,"duration":0.8311628619792373},{"name":"B4","midi":71,"time":909.3746362500196,"velocity":0.7559055118110236,"duration":0.20616311197920822},{"name":"A4","midi":69,"time":909.5829695000197,"velocity":0.7559055118110236,"duration":0.20616311197920822},{"name":"B4","midi":71,"time":909.7913027500197,"velocity":0.7559055118110236,"duration":0.20616311197920822},{"name":"C#5","midi":73,"time":909.9996360000197,"velocity":0.7559055118110236,"duration":0.20616311197920822},{"name":"D3","midi":50,"time":909.9996360000197,"velocity":0.7559055118110236,"duration":0.8311628619792373},{"name":"D5","midi":74,"time":910.2079692500197,"velocity":0.7559055118110236,"duration":0.20616311197920822},{"name":"E5","midi":76,"time":910.4163025000197,"velocity":0.7559055118110236,"duration":0.20616311197920822},{"name":"F#5","midi":78,"time":910.6246357500197,"velocity":0.7559055118110236,"duration":0.20616311197920822},{"name":"G5","midi":79,"time":910.8329690000197,"velocity":0.7559055118110236,"duration":0.20616311197920822},{"name":"C#3","midi":49,"time":910.8329690000197,"velocity":0.7559055118110236,"duration":0.8311628619792373},{"name":"A4","midi":69,"time":911.0413022500197,"velocity":0.7559055118110236,"duration":0.20616311197920822},{"name":"G#4","midi":68,"time":911.2496355000197,"velocity":0.7559055118110236,"duration":0.20616311197920822},{"name":"A4","midi":69,"time":911.4579687500197,"velocity":0.7559055118110236,"duration":0.20616311197920822},{"name":"B4","midi":71,"time":911.6663020000198,"velocity":0.7559055118110236,"duration":0.20616311197920822},{"name":"A2","midi":45,"time":911.6663020000198,"velocity":0.7559055118110236,"duration":0.8311628619792373},{"name":"C#5","midi":73,"time":911.8746352500198,"velocity":0.7559055118110236,"duration":0.20616311197920822},{"name":"D5","midi":74,"time":912.0829685000198,"velocity":0.7559055118110236,"duration":0.20616311197920822},{"name":"E5","midi":76,"time":912.2913017500198,"velocity":0.7559055118110236,"duration":0.20616311197920822},{"name":"F#5","midi":78,"time":912.4996350000198,"velocity":0.7559055118110236,"duration":0.3472220833333495},{"name":"D3","midi":50,"time":912.4996350000198,"velocity":0.7559055118110236,"duration":0.831162861979351},{"name":"C5","midi":72,"time":912.8902598437699,"velocity":0.7559055118110236,"duration":0.22569435416676242},{"name":"B4","midi":71,"time":913.1116139218949,"velocity":0.7559055118110236,"duration":0.21918394010424436},{"name":"C5","midi":72,"time":913.33296800002,"velocity":0.7559055118110236,"duration":0.4839407786458878},{"name":"E3","midi":52,"time":913.33296800002,"velocity":0.7559055118110236,"duration":0.8311628619792373},{"name":"G5","midi":79,"time":913.74963450002,"velocity":0.7559055118110236,"duration":0.4144963619792179},{"name":"A5","midi":81,"time":914.16630100002,"velocity":0.7559055118110236,"duration":0.4796005026041712},{"name":"F#3","midi":54,"time":914.16630100002,"velocity":0.7559055118110236,"duration":0.8311628619791236},{"name":"C5","midi":72,"time":914.58296750002,"velocity":0.7559055118110236,"duration":0.39930539583326663},{"name":"B4","midi":71,"time":914.9996340000199,"velocity":0.7559055118110236,"duration":0.4144963619792179},{"name":"D3","midi":50,"time":914.9996340000199,"velocity":0.7559055118110236,"duration":0.8311628619792373},{"name":"A4","midi":69,"time":915.4163005000199,"velocity":0.7559055118110236,"duration":0.4144963619792179},{"name":"B4","midi":71,"time":915.83296700002,"velocity":0.7559055118110236,"duration":0.20616311197920822},{"name":"G3","midi":55,"time":915.83296700002,"velocity":0.7559055118110236,"duration":0.8311628619792373},{"name":"G4","midi":67,"time":916.04130025002,"velocity":0.7559055118110236,"duration":0.20616311197920822},{"name":"F#4","midi":66,"time":916.24963350002,"velocity":0.7559055118110236,"duration":0.20616311197920822},{"name":"G4","midi":67,"time":916.45796675002,"velocity":0.7559055118110236,"duration":0.20616311197920822},{"name":"A4","midi":69,"time":916.66630000002,"velocity":0.7559055118110236,"duration":0.20616311197920822},{"name":"E3","midi":52,"time":916.66630000002,"velocity":0.7559055118110236,"duration":0.8311628619792373},{"name":"B4","midi":71,"time":916.87463325002,"velocity":0.7559055118110236,"duration":0.20616311197920822},{"name":"C#5","midi":73,"time":917.08296650002,"velocity":0.7559055118110236,"duration":0.20616311197920822},{"name":"D5","midi":74,"time":917.29129975002,"velocity":0.7559055118110236,"duration":0.20616311197920822},{"name":"C#5","midi":73,"time":917.49963300002,"velocity":0.7559055118110236,"duration":0.4144963619792179},{"name":"A3","midi":57,"time":917.49963300002,"velocity":0.7559055118110236,"duration":0.8311628619792373},{"name":"G4","midi":67,"time":917.91629950002,"velocity":0.7559055118110236,"duration":0.20616311197920822},{"name":"F#4","midi":66,"time":918.12463275002,"velocity":0.7559055118110236,"duration":0.20616311197920822},{"name":"G4","midi":67,"time":918.3329660000201,"velocity":0.7559055118110236,"duration":0.4144963619792179},{"name":"B3","midi":59,"time":918.3329660000201,"velocity":0.7559055118110236,"duration":0.8311628619792373},{"name":"D5","midi":74,"time":918.7496325000201,"velocity":0.7559055118110236,"duration":0.4144963619792179},{"name":"E5","midi":76,"time":919.1662990000201,"velocity":0.7559055118110236,"duration":0.3472220833333495},{"name":"C#4","midi":61,"time":919.1662990000201,"velocity":0.7559055118110236,"duration":0.8311628619792373},{"name":"G4","midi":67,"time":919.5829655000201,"velocity":0.7559055118110236,"duration":0.4144963619792179},{"name":"F#4","midi":66,"time":919.9996320000201,"velocity":0.7559055118110236,"duration":0.4144963619792179},{"name":"A3","midi":57,"time":919.9996320000201,"velocity":0.7559055118110236,"duration":0.8311628619792373},{"name":"E4","midi":64,"time":920.4162985000202,"velocity":0.7559055118110236,"duration":0.4144963619792179},{"name":"F#4","midi":66,"time":920.8329650000202,"velocity":0.7559055118110236,"duration":0.20616311197920822},{"name":"D4","midi":62,"time":920.8329650000202,"velocity":0.7559055118110236,"duration":0.8311628619792373},{"name":"A4","midi":69,"time":921.0412982500202,"velocity":0.7559055118110236,"duration":0.20616311197920822},{"name":"B4","midi":71,"time":921.2496315000202,"velocity":0.7559055118110236,"duration":0.20616311197920822},{"name":"C#5","midi":73,"time":921.4579647500202,"velocity":0.7559055118110236,"duration":0.20616311197920822},{"name":"D5","midi":74,"time":921.6662980000202,"velocity":0.7559055118110236,"duration":0.2278644921874502},{"name":"B3","midi":59,"time":921.6662980000202,"velocity":0.7559055118110236,"duration":0.8311628619790099},{"name":"C#5","midi":73,"time":921.8963326302285,"velocity":0.7559055118110236,"duration":0.2278644921874502},{"name":"D5","midi":74,"time":922.1263672604367,"velocity":0.7559055118110236,"duration":0.5642358854166787},{"name":"E4","midi":64,"time":922.49963100002,"velocity":0.7559055118110236,"duration":0.8311628619792373},{"name":"G#5","midi":80,"time":922.70796425002,"velocity":0.7559055118110236,"duration":0.20616311197920822},{"name":"A5","midi":81,"time":922.91629750002,"velocity":0.7559055118110236,"duration":0.20616311197920822},{"name":"B5","midi":83,"time":923.1246307500201,"velocity":0.7559055118110236,"duration":0.20616311197920822},{"name":"A5","midi":81,"time":923.3329640000201,"velocity":0.7559055118110236,"duration":0.20616311197920822},{"name":"F#4","midi":66,"time":923.3329640000201,"velocity":0.7559055118110236,"duration":0.8311628619792373},{"name":"G#5","midi":80,"time":923.5412972500201,"velocity":0.7559055118110236,"duration":0.20616311197920822},{"name":"F#5","midi":78,"time":923.7496305000201,"velocity":0.7559055118110236,"duration":0.20616311197920822},{"name":"E5","midi":76,"time":923.9579637500201,"velocity":0.7559055118110236,"duration":0.20616311197920822},{"name":"D5","midi":74,"time":924.1662970000201,"velocity":0.7559055118110236,"duration":0.2756075286458781},{"name":"G#4","midi":68,"time":924.1662970000201,"velocity":0.7559055118110236,"duration":0.8311628619792373},{"name":"C#5","midi":73,"time":924.4440746666868,"velocity":0.7559055118110236,"duration":0.2756075286458781},{"name":"D5","midi":74,"time":924.7218523333535,"velocity":0.7559055118110236,"duration":0.2756075286458781},{"name":"B5","midi":83,"time":924.9996300000201,"velocity":0.7559055118110236,"duration":0.4144963619792179},{"name":"E4","midi":64,"time":924.9996300000201,"velocity":0.7559055118110236,"duration":0.8311628619792373},{"name":"D5","midi":74,"time":925.4162965000202,"velocity":0.7559055118110236,"duration":0.4144963619792179},{"name":"D5","midi":74,"time":925.8329630000202,"velocity":0.7559055118110236,"duration":0.4448782942707794},{"name":"A4","midi":69,"time":925.8329630000202,"velocity":0.7559055118110236,"duration":0.8658850703124017},{"name":"C#5","midi":73,"time":926.2800114323118,"velocity":0.7559055118110236,"duration":0.8246524479166055},{"name":"B4","midi":71,"time":926.7010182083534,"velocity":0.7559055118110236,"duration":0.7964406536458455},{"name":"A4","midi":69,"time":927.49962900002,"velocity":0.7559055118110236,"duration":0.8311628619792373},{"name":"D5","midi":74,"time":927.70796225002,"velocity":0.7559055118110236,"duration":0.20616311197920822},{"name":"E5","midi":76,"time":927.91629550002,"velocity":0.7559055118110236,"duration":0.20616311197920822},{"name":"D5","midi":74,"time":928.1246287500201,"velocity":0.7559055118110236,"duration":0.20616311197920822},{"name":"C#5","midi":73,"time":928.3329620000201,"velocity":0.7559055118110236,"duration":0.20616311197920822},{"name":"G4","midi":67,"time":928.3329620000201,"velocity":0.7559055118110236,"duration":0.8311628619792373},{"name":"D5","midi":74,"time":928.5412952500201,"velocity":0.7559055118110236,"duration":0.20616311197920822},{"name":"C#5","midi":73,"time":928.7496285000201,"velocity":0.7559055118110236,"duration":0.20616311197920822},{"name":"B4","midi":71,"time":928.9579617500201,"velocity":0.7559055118110236,"duration":0.20616311197920822},{"name":"B4","midi":71,"time":929.1662950000201,"velocity":0.7559055118110236,"duration":0.45789912239581554},{"name":"F#4","midi":66,"time":929.1662950000201,"velocity":0.7559055118110236,"duration":0.8311628619791236},{"name":"A4","midi":69,"time":929.6263642604367,"velocity":0.7559055118110236,"duration":0.8246524479166055},{"name":"E4","midi":64,"time":929.99962800002,"velocity":0.7559055118110236,"duration":0.9982634895833371},{"name":"F#5","midi":78,"time":931.0412942500201,"velocity":0.7559055118110236,"duration":0.20616311197920822},{"name":"D4","midi":62,"time":931.0412942500201,"velocity":0.7559055118110236,"duration":1.6644958619791623},{"name":"A4","midi":69,"time":931.0412942500201,"velocity":0.7559055118110236,"duration":1.6644958619791623},{"name":"E5","midi":76,"time":931.2496275000201,"velocity":0.7559055118110236,"duration":0.20616311197920822},{"name":"D5","midi":74,"time":931.4579607500201,"velocity":0.7559055118110236,"duration":1.247829361979143},{"name":"D5","midi":74,"time":932.70796025002,"velocity":0.7559055118110236,"duration":1.6644958619791623},{"name":"G4","midi":67,"time":932.70796025002,"velocity":0.7559055118110236,"duration":2.9079849479165887},{"name":"E4","midi":64,"time":932.70796025002,"velocity":0.7559055118110236,"duration":2.9079849479165887},{"name":"C#5","midi":73,"time":934.37462625002,"velocity":0.7559055118110236,"duration":1.247829361979143},{"name":"D5","midi":74,"time":935.62462575002,"velocity":0.7559055118110236,"duration":0.41232622395830276},{"name":"F#4","midi":66,"time":936.04129225002,"velocity":0.7559055118110236,"duration":0.4144963619792179},{"name":"G4","midi":67,"time":936.45795875002,"velocity":0.7559055118110236,"duration":0.4144963619792179},{"name":"A4","midi":69,"time":936.87462525002,"velocity":0.7559055118110236,"duration":0.4144963619792179},{"name":"B4","midi":71,"time":937.29129175002,"velocity":0.7559055118110236,"duration":0.20616311197920822},{"name":"C5","midi":72,"time":937.49962500002,"velocity":0.7559055118110236,"duration":0.20616311197920822},{"name":"A5","midi":81,"time":937.70795825002,"velocity":0.7559055118110236,"duration":2.495658723958286},{"name":"G4","midi":67,"time":940.83295700002,"velocity":0.7559055118110236,"duration":0.8311628619790099},{"name":"B4","midi":71,"time":940.83295700002,"velocity":0.7559055118110236,"duration":0.2278644921874502},{"name":"C#5","midi":73,"time":941.0629916302282,"velocity":0.7559055118110236,"duration":0.2278644921874502},{"name":"D5","midi":74,"time":941.2930262604365,"velocity":0.7559055118110236,"duration":0.7378469270832966},{"name":"E4","midi":64,"time":941.6662900000198,"velocity":0.7559055118110236,"duration":0.8311628619792373},{"name":"C#5","midi":73,"time":942.0829565000198,"velocity":0.7559055118110236,"duration":0.4144963619792179},{"name":"F#4","midi":66,"time":942.4996230000198,"velocity":0.7559055118110236,"duration":0.8311628619792373},{"name":"D5","midi":74,"time":942.4996230000198,"velocity":0.7559055118110236,"duration":0.4144963619792179},{"name":"A4","midi":69,"time":942.9162895000198,"velocity":0.7559055118110236,"duration":0.20616311197920822},{"name":"G4","midi":67,"time":943.1246227500199,"velocity":0.7559055118110236,"duration":0.20616311197920822},{"name":"D4","midi":62,"time":943.3329560000199,"velocity":0.7559055118110236,"duration":0.8311628619792373},{"name":"A4","midi":69,"time":943.3329560000199,"velocity":0.7559055118110236,"duration":0.4144963619792179},{"name":"F#5","midi":78,"time":943.7496225000199,"velocity":0.7559055118110236,"duration":0.8029510677083636},{"name":"E4","midi":64,"time":944.1662890000199,"velocity":0.7559055118110236,"duration":0.8311628619792373},{"name":"G5","midi":79,"time":944.5829555000199,"velocity":0.7559055118110236,"duration":0.4144963619792179},{"name":"C#4","midi":61,"time":944.9996220000199,"velocity":0.7559055118110236,"duration":0.8311628619792373},{"name":"A4","midi":69,"time":944.9996220000199,"velocity":0.7559055118110236,"duration":0.4144963619792179},{"name":"G5","midi":79,"time":945.41628850002,"velocity":0.7559055118110236,"duration":0.4144963619792179},{"name":"D4","midi":62,"time":945.83295500002,"velocity":0.7559055118110236,"duration":0.8311628619790099},{"name":"F#5","midi":78,"time":945.83295500002,"velocity":0.7559055118110236,"duration":0.2278644921874502},{"name":"G5","midi":79,"time":946.0629896302282,"velocity":0.7559055118110236,"duration":0.2278644921874502},{"name":"A5","midi":81,"time":946.2930242604365,"velocity":0.7559055118110236,"duration":0.7378469270832966},{"name":"B3","midi":59,"time":946.6662880000198,"velocity":0.7559055118110236,"duration":0.8311628619792373},{"name":"G5","midi":79,"time":947.0829545000198,"velocity":0.7559055118110236,"duration":0.20616311197920822},{"name":"F#5","midi":78,"time":947.2912877500198,"velocity":0.7559055118110236,"duration":0.20616311197920822},{"name":"C#4","midi":61,"time":947.4996210000198,"velocity":0.7559055118110236,"duration":0.8311628619790099},{"name":"E5","midi":76,"time":947.4996210000198,"velocity":0.7559055118110236,"duration":0.2278644921874502},{"name":"F#5","midi":78,"time":947.7296556302281,"velocity":0.7559055118110236,"duration":0.2278644921874502},{"name":"G5","midi":79,"time":947.9596902604363,"velocity":0.7559055118110236,"duration":0.7378469270832966},{"name":"A3","midi":57,"time":948.3329540000196,"velocity":0.7559055118110236,"duration":0.8311628619792373},{"name":"F#5","midi":78,"time":948.7496205000197,"velocity":0.7559055118110236,"duration":0.20616311197920822},{"name":"E5","midi":76,"time":948.9579537500197,"velocity":0.7559055118110236,"duration":0.20616311197920822},{"name":"B3","midi":59,"time":949.1662870000197,"velocity":0.7559055118110236,"duration":0.8311628619790099},{"name":"D5","midi":74,"time":949.1662870000197,"velocity":0.7559055118110236,"duration":0.2278644921874502},{"name":"E5","midi":76,"time":949.3963216302279,"velocity":0.7559055118110236,"duration":0.2278644921874502},{"name":"F#5","midi":78,"time":949.6263562604362,"velocity":0.7559055118110236,"duration":0.7378469270832966},{"name":"G#3","midi":56,"time":949.9996200000195,"velocity":0.7559055118110236,"duration":0.8311628619792373},{"name":"E5","midi":76,"time":950.4162865000195,"velocity":0.7559055118110236,"duration":0.20616311197920822},{"name":"D5","midi":74,"time":950.6246197500195,"velocity":0.7559055118110236,"duration":0.20616311197920822},{"name":"A3","midi":57,"time":950.8329530000195,"velocity":0.7559055118110236,"duration":0.8311628619792373},{"name":"C#5","midi":73,"time":950.8329530000195,"velocity":0.7559055118110236,"duration":0.20616311197920822},{"name":"E5","midi":76,"time":951.0412862500195,"velocity":0.7559055118110236,"duration":0.20616311197920822},{"name":"D5","midi":74,"time":951.2496195000195,"velocity":0.7559055118110236,"duration":0.20616311197920822},{"name":"C#5","midi":73,"time":951.4579527500196,"velocity":0.7559055118110236,"duration":0.20616311197920822},{"name":"E3","midi":52,"time":951.6662860000196,"velocity":0.7559055118110236,"duration":0.8311628619792373},{"name":"D5","midi":74,"time":951.6662860000196,"velocity":0.7559055118110236,"duration":0.20616311197920822},{"name":"C#5","midi":73,"time":951.8746192500196,"velocity":0.7559055118110236,"duration":0.20616311197920822},{"name":"B4","midi":71,"time":952.0829525000196,"velocity":0.7559055118110236,"duration":0.20616311197920822},{"name":"A4","midi":69,"time":952.2912857500196,"velocity":0.7559055118110236,"duration":0.23871518229168487},{"name":"G3","midi":55,"time":952.4996190000196,"velocity":0.7559055118110236,"duration":0.8311628619792373},{"name":"F#5","midi":78,"time":952.7079522500196,"velocity":0.7559055118110236,"duration":0.20616311197920822},{"name":"E5","midi":76,"time":952.9162855000196,"velocity":0.7559055118110236,"duration":0.20616311197920822},{"name":"D5","midi":74,"time":953.1246187500196,"velocity":0.7559055118110236,"duration":0.20616311197920822},{"name":"C#3","midi":49,"time":953.3329520000196,"velocity":0.7559055118110236,"duration":0.8311628619792373},{"name":"E5","midi":76,"time":953.3329520000196,"velocity":0.7559055118110236,"duration":0.20616311197920822},{"name":"C#5","midi":73,"time":953.5412852500197,"velocity":0.7559055118110236,"duration":0.20616311197920822},{"name":"B4","midi":71,"time":953.7496185000197,"velocity":0.7559055118110236,"duration":0.20616311197920822},{"name":"A4","midi":69,"time":953.9579517500197,"velocity":0.7559055118110236,"duration":0.2604165625000405},{"name":"E3","midi":52,"time":954.1662850000197,"velocity":0.7559055118110236,"duration":0.8311628619792373},{"name":"G5","midi":79,"time":954.3746182500197,"velocity":0.7559055118110236,"duration":0.20616311197920822},{"name":"F#5","midi":78,"time":954.5829515000197,"velocity":0.7559055118110236,"duration":0.20616311197920822},{"name":"E5","midi":76,"time":954.7912847500197,"velocity":0.7559055118110236,"duration":0.20616311197920822},{"name":"A2","midi":45,"time":954.9996180000197,"velocity":0.7559055118110236,"duration":0.8311628619792373},{"name":"F#5","midi":78,"time":954.9996180000197,"velocity":0.7559055118110236,"duration":0.20616311197920822},{"name":"C#5","midi":73,"time":955.2079512500197,"velocity":0.7559055118110236,"duration":0.20616311197920822},{"name":"B4","midi":71,"time":955.4162845000197,"velocity":0.7559055118110236,"duration":0.20616311197920822},{"name":"A4","midi":69,"time":955.6246177500198,"velocity":0.7559055118110236,"duration":0.3255207031249938},{"name":"C#2","midi":37,"time":955.8329510000198,"velocity":0.7559055118110236,"duration":1.664495861979276},{"name":"A5","midi":81,"time":956.0412842500198,"velocity":0.7559055118110236,"duration":0.20616311197920822},{"name":"G5","midi":79,"time":956.2496175000198,"velocity":0.7559055118110236,"duration":0.20616311197920822},{"name":"F#5","midi":78,"time":956.4579507500198,"velocity":0.7559055118110236,"duration":0.20616311197920822},{"name":"G5","midi":79,"time":956.6662840000198,"velocity":0.7559055118110236,"duration":0.20616311197920822},{"name":"F#5","midi":78,"time":956.8746172500198,"velocity":0.7559055118110236,"duration":0.20616311197920822},{"name":"E5","midi":76,"time":957.0829505000198,"velocity":0.7559055118110236,"duration":0.20616311197920822},{"name":"D5","midi":74,"time":957.2912837500198,"velocity":0.7559055118110236,"duration":0.20616311197920822},{"name":"C#5","midi":73,"time":957.4996170000198,"velocity":0.7559055118110236,"duration":0.20616311197920822},{"name":"E5","midi":76,"time":957.7079502500198,"velocity":0.7559055118110236,"duration":0.20616311197920822},{"name":"D5","midi":74,"time":957.9162835000199,"velocity":0.7559055118110236,"duration":0.20616311197920822},{"name":"C#5","midi":73,"time":958.1246167500199,"velocity":0.7559055118110236,"duration":0.20616311197920822},{"name":"D5","midi":74,"time":958.3329500000199,"velocity":0.7559055118110236,"duration":0.20616311197920822},{"name":"C#5","midi":73,"time":958.5412832500199,"velocity":0.7559055118110236,"duration":0.20616311197920822},{"name":"B4","midi":71,"time":958.7496165000199,"velocity":0.7559055118110236,"duration":0.20616311197920822},{"name":"A4","midi":69,"time":958.9579497500199,"velocity":0.7559055118110236,"duration":0.20616311197920822},{"name":"G4","midi":67,"time":959.1662830000199,"velocity":0.7559055118110236,"duration":0.20616311197920822},{"name":"B4","midi":71,"time":959.3746162500199,"velocity":0.7559055118110236,"duration":0.20616311197920822},{"name":"A4","midi":69,"time":959.5829495000199,"velocity":0.7559055118110236,"duration":0.20616311197920822},{"name":"G4","midi":67,"time":959.79128275002,"velocity":0.7559055118110236,"duration":0.20616311197920822},{"name":"C#3","midi":49,"time":959.99961600002,"velocity":0.7559055118110236,"duration":0.8311628619792373},{"name":"A4","midi":69,"time":959.99961600002,"velocity":0.7559055118110236,"duration":0.20616311197920822},{"name":"G4","midi":67,"time":960.20794925002,"velocity":0.7559055118110236,"duration":0.20616311197920822},{"name":"F#4","midi":66,"time":960.41628250002,"velocity":0.7559055118110236,"duration":0.20616311197920822},{"name":"E4","midi":64,"time":960.62461575002,"velocity":0.7559055118110236,"duration":0.20616311197920822},{"name":"D3","midi":50,"time":960.83294900002,"velocity":0.7559055118110236,"duration":0.8311628619792373},{"name":"F#4","midi":66,"time":960.83294900002,"velocity":0.7559055118110236,"duration":0.20616311197920822},{"name":"A4","midi":69,"time":961.04128225002,"velocity":0.7559055118110236,"duration":0.20616311197920822},{"name":"D4","midi":62,"time":961.24961550002,"velocity":0.7559055118110236,"duration":0.8311628619792373},{"name":"E3","midi":52,"time":961.66628200002,"velocity":0.7559055118110236,"duration":0.8311628619792373},{"name":"C#4","midi":61,"time":962.08294850002,"velocity":0.7559055118110236,"duration":0.4144963619792179},{"name":"F#3","midi":54,"time":962.4996150000201,"velocity":0.7559055118110236,"duration":0.8311628619792373},{"name":"D4","midi":62,"time":962.4996150000201,"velocity":0.7559055118110236,"duration":0.4144963619792179},{"name":"A3","midi":57,"time":962.9162815000201,"velocity":0.7559055118110236,"duration":0.20616311197920822},{"name":"D4","midi":62,"time":963.1246147500201,"velocity":0.7559055118110236,"duration":0.20616311197920822},{"name":"A3","midi":57,"time":963.3329480000201,"velocity":0.7559055118110236,"duration":0.8311628619792373},{"name":"F#4","midi":66,"time":963.3329480000201,"velocity":0.7559055118110236,"duration":0.20616311197920822},{"name":"E4","midi":64,"time":963.5412812500201,"velocity":0.7559055118110236,"duration":0.20616311197920822},{"name":"D4","midi":62,"time":963.7496145000201,"velocity":0.7559055118110236,"duration":0.20616311197920822},{"name":"C#4","midi":61,"time":963.9579477500201,"velocity":0.7559055118110236,"duration":0.20616311197920822},{"name":"F#3","midi":54,"time":964.1662810000201,"velocity":0.7559055118110236,"duration":0.8311628619792373},{"name":"D4","midi":62,"time":964.1662810000201,"velocity":0.7559055118110236,"duration":0.4144963619792179},{"name":"A3","midi":57,"time":964.5829475000202,"velocity":0.7559055118110236,"duration":0.20616311197920822},{"name":"D4","midi":62,"time":964.7912807500202,"velocity":0.7559055118110236,"duration":0.20616311197920822},{"name":"D3","midi":50,"time":964.9996140000202,"velocity":0.7559055118110236,"duration":0.8311628619792373},{"name":"F#4","midi":66,"time":964.9996140000202,"velocity":0.7559055118110236,"duration":0.20616311197920822},{"name":"E4","midi":64,"time":965.2079472500202,"velocity":0.7559055118110236,"duration":0.20616311197920822},{"name":"D4","midi":62,"time":965.4162805000202,"velocity":0.7559055118110236,"duration":0.20616311197920822},{"name":"C#4","midi":61,"time":965.6246137500202,"velocity":0.7559055118110236,"duration":0.20616311197920822},{"name":"B2","midi":47,"time":965.8329470000202,"velocity":0.7559055118110236,"duration":0.8311628619790099},{"name":"D4","midi":62,"time":965.8329470000202,"velocity":0.7559055118110236,"duration":0.2278644921874502},{"name":"F#4","midi":66,"time":966.0629816302285,"velocity":0.7559055118110236,"duration":0.2278644921874502},{"name":"G4","midi":67,"time":966.2930162604367,"velocity":0.7559055118110236,"duration":0.6944441666665853},{"name":"A2","midi":45,"time":966.66628000002,"velocity":0.7559055118110236,"duration":0.8311628619791236},{"name":"F#4","midi":66,"time":967.08294650002,"velocity":0.7559055118110236,"duration":0.4144963619792179},{"name":"B2","midi":47,"time":967.49961300002,"velocity":0.7559055118110236,"duration":0.8311628619792373},{"name":"G4","midi":67,"time":967.49961300002,"velocity":0.7559055118110236,"duration":0.4144963619792179},{"name":"D4","midi":62,"time":967.91627950002,"velocity":0.7559055118110236,"duration":0.20616311197920822},{"name":"G4","midi":67,"time":968.12461275002,"velocity":0.7559055118110236,"duration":0.20616311197920822},{"name":"D3","midi":50,"time":968.33294600002,"velocity":0.7559055118110236,"duration":0.8311628619792373},{"name":"B4","midi":71,"time":968.33294600002,"velocity":0.7559055118110236,"duration":0.20616311197920822},{"name":"A4","midi":69,"time":968.54127925002,"velocity":0.7559055118110236,"duration":0.20616311197920822},{"name":"G4","midi":67,"time":968.74961250002,"velocity":0.7559055118110236,"duration":0.20616311197920822},{"name":"F#4","midi":66,"time":968.95794575002,"velocity":0.7559055118110236,"duration":0.20616311197920822},{"name":"B2","midi":47,"time":969.16627900002,"velocity":0.7559055118110236,"duration":0.8311628619792373},{"name":"G4","midi":67,"time":969.16627900002,"velocity":0.7559055118110236,"duration":0.4144963619792179},{"name":"D4","midi":62,"time":969.5829455000201,"velocity":0.7559055118110236,"duration":0.20616311197920822},{"name":"G4","midi":67,"time":969.7912787500201,"velocity":0.7559055118110236,"duration":0.20616311197920822},{"name":"G2","midi":43,"time":969.9996120000201,"velocity":0.7559055118110236,"duration":0.8311628619792373},{"name":"B4","midi":71,"time":969.9996120000201,"velocity":0.7559055118110236,"duration":0.20616311197920822},{"name":"A4","midi":69,"time":970.2079452500201,"velocity":0.7559055118110236,"duration":0.20616311197920822},{"name":"G4","midi":67,"time":970.4162785000201,"velocity":0.7559055118110236,"duration":0.20616311197920822},{"name":"F#4","midi":66,"time":970.6246117500201,"velocity":0.7559055118110236,"duration":0.20616311197920822},{"name":"E2","midi":40,"time":970.8329450000201,"velocity":0.7559055118110236,"duration":0.4144963619792179},{"name":"G4","midi":67,"time":970.8329450000201,"velocity":0.7559055118110236,"duration":0.20616311197920822},{"name":"B4","midi":71,"time":971.0412782500201,"velocity":0.7559055118110236,"duration":0.20616311197920822},{"name":"C#3","midi":49,"time":971.2496115000201,"velocity":0.7559055118110236,"duration":0.4144963619792179},{"name":"A4","midi":69,"time":971.2496115000201,"velocity":0.7559055118110236,"duration":0.20616311197920822},{"name":"G4","midi":67,"time":971.4579447500201,"velocity":0.7559055118110236,"duration":0.20616311197920822},{"name":"D3","midi":50,"time":971.6662780000202,"velocity":0.7559055118110236,"duration":0.4144963619792179},{"name":"F#4","midi":66,"time":971.6662780000202,"velocity":0.7559055118110236,"duration":0.20616311197920822},{"name":"E4","midi":64,"time":971.8746112500202,"velocity":0.7559055118110236,"duration":0.20616311197920822},{"name":"A2","midi":45,"time":972.0829445000202,"velocity":0.7559055118110236,"duration":0.4144963619792179},{"name":"F#4","midi":66,"time":972.0829445000202,"velocity":0.7559055118110236,"duration":0.20616311197920822},{"name":"A4","midi":69,"time":972.2912777500202,"velocity":0.7559055118110236,"duration":0.20616311197920822},{"name":"F#2","midi":42,"time":972.4996110000202,"velocity":0.7559055118110236,"duration":0.4144963619792179},{"name":"D5","midi":74,"time":972.4996110000202,"velocity":0.7559055118110236,"duration":0.4144963619792179},{"name":"E2","midi":40,"time":972.9162775000202,"velocity":0.7559055118110236,"duration":0.4144963619792179},{"name":"C#5","midi":73,"time":972.9162775000202,"velocity":0.7559055118110236,"duration":0.20616311197920822},{"name":"B4","midi":71,"time":973.1246107500202,"velocity":0.7559055118110236,"duration":0.20616311197920822},{"name":"F#2","midi":42,"time":973.3329440000202,"velocity":0.7559055118110236,"duration":0.4144963619792179},{"name":"A4","midi":69,"time":973.3329440000202,"velocity":0.7559055118110236,"duration":0.20616311197920822},{"name":"G4","midi":67,"time":973.5412772500202,"velocity":0.7559055118110236,"duration":0.20616311197920822},{"name":"G2","midi":43,"time":973.7496105000203,"velocity":0.7559055118110236,"duration":0.4144963619792179},{"name":"F#4","midi":66,"time":973.7496105000203,"velocity":0.7559055118110236,"duration":0.20616311197920822},{"name":"E4","midi":64,"time":973.9579437500203,"velocity":0.7559055118110236,"duration":0.20616311197920822},{"name":"A2","midi":45,"time":974.1662770000203,"velocity":0.7559055118110236,"duration":0.8311628619792373},{"name":"F#4","midi":66,"time":974.1662770000203,"velocity":0.7559055118110236,"duration":0.4144963619792179},{"name":"D4","midi":62,"time":974.5829435000203,"velocity":0.7559055118110236,"duration":0.4144963619792179},{"name":"A1","midi":33,"time":974.9996100000203,"velocity":0.7559055118110236,"duration":0.8311628619792373},{"name":"A3","midi":57,"time":974.9996100000203,"velocity":0.7559055118110236,"duration":0.4144963619792179},{"name":"C#4","midi":61,"time":975.4162765000203,"velocity":0.7559055118110236,"duration":0.4144963619792179},{"name":"D2","midi":38,"time":975.8329430000204,"velocity":0.7559055118110236,"duration":6.4583307500001865},{"name":"D4","midi":62,"time":975.8329430000204,"velocity":0.7559055118110236,"duration":2.4978288619793148},{"name":"F#2","midi":42,"time":976.2496095000204,"velocity":0.7559055118110236,"duration":0.4144963619792179},{"name":"A2","midi":45,"time":976.6662760000204,"velocity":0.7559055118110236,"duration":0.4144963619792179},{"name":"D3","midi":50,"time":977.0829425000204,"velocity":0.7559055118110236,"duration":5.416664500000138},{"name":"F#3","midi":54,"time":977.4996090000204,"velocity":0.7559055118110236,"duration":0.4144963619792179},{"name":"A3","midi":57,"time":977.9162755000204,"velocity":0.7559055118110236,"duration":0.8311628619792373},{"name":"D4","midi":62,"time":978.3329420000205,"velocity":0.7559055118110236,"duration":0.4144963619792179},{"name":"E3","midi":52,"time":978.7496085000205,"velocity":0.7559055118110236,"duration":0.4144963619792179},{"name":"G3","midi":55,"time":978.7496085000205,"velocity":0.7559055118110236,"duration":0.4144963619792179},{"name":"C#4","midi":61,"time":978.7496085000205,"velocity":0.7559055118110236,"duration":0.4144963619792179},{"name":"A3","midi":57,"time":979.1662750000205,"velocity":0.7559055118110236,"duration":3.3246514479167217},{"name":"F#3","midi":54,"time":979.1662750000205,"velocity":0.7559055118110236,"duration":3.3246514479167217},{"name":"D4","midi":62,"time":979.1662750000205,"velocity":0.7559055118110236,"duration":3.3246514479167217},{"name":"D3","midi":50,"time":990.8329370000206,"velocity":0.7559055118110236,"duration":1.664495861979276},{"name":"G5","midi":79,"time":990.8329370000206,"velocity":0.7559055118110236,"duration":0.20616311197920822},{"name":"F#5","midi":78,"time":991.0412702500206,"velocity":0.7559055118110236,"duration":0.20616311197920822},{"name":"G5","midi":79,"time":991.2496035000206,"velocity":0.7559055118110236,"duration":0.20616311197920822},{"name":"F#5","midi":78,"time":991.4579367500206,"velocity":0.7559055118110236,"duration":0.20616311197920822},{"name":"D4","midi":62,"time":991.6662700000206,"velocity":0.7559055118110236,"duration":0.4144963619792179},{"name":"G5","midi":79,"time":991.6662700000206,"velocity":0.7559055118110236,"duration":0.20616311197920822},{"name":"F#5","midi":78,"time":991.8746032500206,"velocity":0.7559055118110236,"duration":0.20616311197920822},{"name":"C#4","midi":61,"time":992.0829365000207,"velocity":0.7559055118110236,"duration":0.4144963619792179},{"name":"E5","midi":76,"time":992.0829365000207,"velocity":0.7559055118110236,"duration":0.20616311197920822},{"name":"F#5","midi":78,"time":992.2912697500207,"velocity":0.7559055118110236,"duration":0.20616311197920822},{"name":"B3","midi":59,"time":992.4996030000207,"velocity":0.7559055118110236,"duration":0.8311628619791236},{"name":"D4","midi":62,"time":992.4996030000207,"velocity":0.7559055118110236,"duration":1.6644958619791623},{"name":"G5","midi":79,"time":992.4996030000207,"velocity":0.7559055118110236,"duration":0.8311628619791236},{"name":"G3","midi":55,"time":993.3329360000206,"velocity":0.7559055118110236,"duration":2.4956587239583996},{"name":"E5","midi":76,"time":993.3329360000206,"velocity":0.7559055118110236,"duration":0.7161455468750546},{"name":"C#4","midi":61,"time":994.1662690000206,"velocity":0.7559055118110236,"duration":0.4144963619792179},{"name":"A5","midi":81,"time":994.1662690000206,"velocity":0.7559055118110236,"duration":0.13671869531253833},{"name":"G5","midi":79,"time":994.305157833354,"velocity":0.7559055118110236,"duration":0.13671869531253833},{"name":"A5","midi":81,"time":994.4440466666873,"velocity":0.7559055118110236,"duration":1.3867181953124827},{"name":"B3","midi":59,"time":994.5829355000207,"velocity":0.7559055118110236,"duration":0.4144963619792179},{"name":"C#4","midi":61,"time":994.9996020000207,"velocity":0.7559055118110236,"duration":0.8311628619791236},{"name":"F#3","midi":54,"time":995.8329350000206,"velocity":0.7559055118110236,"duration":0.8311628619792373},{"name":"A3","midi":57,"time":995.8329350000206,"velocity":0.7559055118110236,"duration":0.8311628619792373},{"name":"D4","midi":62,"time":995.8329350000206,"velocity":0.7559055118110236,"duration":0.8311628619792373},{"name":"D5","midi":74,"time":995.8329350000206,"velocity":0.7559055118110236,"duration":0.2756075286458781},{"name":"E5","midi":76,"time":996.1107126666873,"velocity":0.7559055118110236,"duration":0.2756075286458781},{"name":"F#5","midi":78,"time":996.388490333354,"velocity":0.7559055118110236,"duration":0.2756075286458781},{"name":"E3","midi":52,"time":996.6662680000206,"velocity":0.7559055118110236,"duration":0.8311628619792373},{"name":"G3","midi":55,"time":996.6662680000206,"velocity":0.7559055118110236,"duration":0.8311628619792373},{"name":"A3","midi":57,"time":996.6662680000206,"velocity":0.7559055118110236,"duration":0.8311628619792373},{"name":"C#4","midi":61,"time":996.6662680000206,"velocity":0.7559055118110236,"duration":0.8311628619792373},{"name":"G5","midi":79,"time":996.6662680000206,"velocity":0.7559055118110236,"duration":0.2756075286458781},{"name":"F#5","midi":78,"time":996.9440456666873,"velocity":0.7559055118110236,"duration":0.2756075286458781},{"name":"E5","midi":76,"time":997.221823333354,"velocity":0.7559055118110236,"duration":0.2756075286458781},{"name":"D3","midi":50,"time":997.4996010000207,"velocity":0.7559055118110236,"duration":0.8311628619792373},{"name":"A3","midi":57,"time":997.4996010000207,"velocity":0.7559055118110236,"duration":0.8311628619792373},{"name":"F#3","midi":54,"time":997.4996010000207,"velocity":0.7559055118110236,"duration":0.8311628619792373},{"name":"D4","midi":62,"time":997.4996010000207,"velocity":0.7559055118110236,"duration":1.664495861979276},{"name":"A5","midi":81,"time":997.4996010000207,"velocity":0.7559055118110236,"duration":0.2756075286458781},{"name":"G5","midi":79,"time":997.7773786666874,"velocity":0.7559055118110236,"duration":0.2756075286458781},{"name":"F#5","midi":78,"time":998.055156333354,"velocity":0.7559055118110236,"duration":0.2756075286458781},{"name":"A3","midi":57,"time":998.3329340000207,"velocity":0.7559055118110236,"duration":1.664495861979276},{"name":"F#5","midi":78,"time":998.3329340000207,"velocity":0.7559055118110236,"duration":0.20616311197920822},{"name":"E5","midi":76,"time":998.5412672500207,"velocity":0.7559055118110236,"duration":0.20616311197920822},{"name":"F#5","midi":78,"time":998.7496005000207,"velocity":0.7559055118110236,"duration":0.20616311197920822},{"name":"E5","midi":76,"time":998.9579337500207,"velocity":0.7559055118110236,"duration":0.20616311197920822},{"name":"C#4","midi":61,"time":999.1662670000208,"velocity":0.7559055118110236,"duration":0.8311628619792373},{"name":"F#5","midi":78,"time":999.1662670000208,"velocity":0.7559055118110236,"duration":0.20616311197920822},{"name":"E5","midi":76,"time":999.3746002500208,"velocity":0.7559055118110236,"duration":0.20616311197920822},{"name":"D5","midi":74,"time":999.5829335000208,"velocity":0.7559055118110236,"duration":0.20616311197920822},{"name":"E5","midi":76,"time":999.7912667500208,"velocity":0.7559055118110236,"duration":0.20616311197920822},{"name":"D4","midi":62,"time":999.9996000000208,"velocity":0.7559055118110236,"duration":0.4144963619792179},{"name":"D3","midi":50,"time":999.9996000000208,"velocity":0.7559055118110236,"duration":0.8246524479166055},{"name":"D5","midi":74,"time":999.9996000000208,"velocity":0.7559055118110236,"duration":0.7595483072916522},{"name":"A3","midi":57,"time":1000.4162665000208,"velocity":0.7559055118110236,"duration":0.4144963619791042},{"name":"D4","midi":62,"time":1000.8329330000207,"velocity":0.7559055118110236,"duration":0.8311628619790099},{"name":"F#5","midi":78,"time":1000.8329330000207,"velocity":0.7559055118110236,"duration":0.10199648697914654},{"name":"E5","midi":76,"time":1000.9370996250207,"velocity":0.7559055118110236,"duration":0.10199648697914654},{"name":"F#5","midi":78,"time":1001.0412662500206,"velocity":0.7559055118110236,"duration":0.9006072786457935},{"name":"D3","midi":50,"time":1001.6662660000205,"velocity":0.7559055118110236,"duration":2.495658723958286},{"name":"A3","midi":57,"time":1001.6662660000205,"velocity":0.7559055118110236,"duration":0.8311628619792373},{"name":"G5","midi":79,"time":1001.9440436666872,"velocity":0.7559055118110236,"duration":0.13671869531253833},{"name":"F#5","midi":78,"time":1002.0829325000205,"velocity":0.7559055118110236,"duration":0.13671869531253833},{"name":"E5","midi":76,"time":1002.2218213333539,"velocity":0.7559055118110236,"duration":0.13671869531253833},{"name":"F#5","midi":78,"time":1002.3607101666872,"velocity":0.7559055118110236,"duration":0.13671869531253833},{"name":"B3","midi":59,"time":1002.4995990000206,"velocity":0.7559055118110236,"duration":0.8311628619791236},{"name":"G5","midi":79,"time":1002.4995990000206,"velocity":0.7559055118110236,"duration":0.8311628619791236},{"name":"G3","midi":55,"time":1003.3329320000205,"velocity":0.7559055118110236,"duration":0.8311628619791236},{"name":"E5","midi":76,"time":1003.3329320000205,"velocity":0.7559055118110236,"duration":0.7378469270832966},{"name":"C#3","midi":49,"time":1004.1662650000204,"velocity":0.7559055118110236,"duration":0.4144963619792179},{"name":"E3","midi":52,"time":1004.1662650000204,"velocity":0.7559055118110236,"duration":1.664495861979276},{"name":"A5","midi":81,"time":1004.1662650000204,"velocity":0.7559055118110236,"duration":0.13671869531253833},{"name":"G5","midi":79,"time":1004.3051538333538,"velocity":0.7559055118110236,"duration":0.13671869531253833},{"name":"A5","midi":81,"time":1004.4440426666871,"velocity":0.7559055118110236,"duration":1.3867181953125964},{"name":"B2","midi":47,"time":1004.5829315000204,"velocity":0.7559055118110236,"duration":0.4144963619792179},{"name":"A2","midi":45,"time":1004.9995980000205,"velocity":0.7559055118110236,"duration":0.4144963619792179},{"name":"G2","midi":43,"time":1005.4162645000205,"velocity":0.7559055118110236,"duration":0.4144963619792179},{"name":"F#2","midi":42,"time":1005.8329310000205,"velocity":0.7559055118110236,"duration":0.7812496875000079},{"name":"D5","midi":74,"time":1005.8329310000205,"velocity":0.7559055118110236,"duration":0.2756075286458781},{"name":"E5","midi":76,"time":1006.1107086666872,"velocity":0.7559055118110236,"duration":0.2756075286458781},{"name":"D3","midi":50,"time":1006.386316195333,"velocity":0.7559055118110236,"duration":0.27560752864576443},{"name":"F#5","midi":78,"time":1006.3884863333539,"velocity":0.7559055118110236,"duration":0.27560752864576443},{"name":"E2","midi":40,"time":1006.6662640000204,"velocity":0.7559055118110236,"duration":0.7812496875000079},{"name":"G5","midi":79,"time":1006.6662640000204,"velocity":0.7559055118110236,"duration":0.2756075286458781},{"name":"F#5","midi":78,"time":1006.9440416666871,"velocity":0.7559055118110236,"duration":0.2756075286458781},{"name":"C#3","midi":49,"time":1007.219649195333,"velocity":0.7559055118110236,"duration":0.27560752864576443},{"name":"E5","midi":76,"time":1007.2218193333538,"velocity":0.7559055118110236,"duration":0.27560752864576443},{"name":"D2","midi":38,"time":1007.4995970000203,"velocity":0.7559055118110236,"duration":0.7812496875000079},{"name":"A5","midi":81,"time":1007.4995970000203,"velocity":0.7559055118110236,"duration":0.2756075286458781},{"name":"G5","midi":79,"time":1007.777374666687,"velocity":0.7559055118110236,"duration":0.2756075286458781},{"name":"D3","midi":50,"time":1008.0529821953329,"velocity":0.7559055118110236,"duration":0.6076386458331626},{"name":"F#5","midi":78,"time":1008.0551523333537,"velocity":0.7559055118110236,"duration":0.27560752864576443},{"name":"A2","midi":45,"time":1008.3329300000203,"velocity":0.7559055118110236,"duration":2.4956587239581722},{"name":"E5","midi":76,"time":1008.3329300000203,"velocity":0.7559055118110236,"duration":2.126735260416467},{"name":"B2","midi":47,"time":1008.7495965000202,"velocity":0.7559055118110236,"duration":0.4144963619792179},{"name":"C#3","midi":49,"time":1009.1662630000202,"velocity":0.7559055118110236,"duration":0.42317691406253743},{"name":"E3","midi":52,"time":1009.5916100521035,"velocity":0.7559055118110236,"duration":0.4058158098957847},{"name":"A3","midi":57,"time":1009.9995960000201,"velocity":0.7559055118110236,"duration":0.8246524479166055},{"name":"A4","midi":69,"time":1010.8329290000202,"velocity":0.7559055118110236,"duration":0.2756075286458781},{"name":"B4","midi":71,"time":1011.1107066666868,"velocity":0.7559055118110236,"duration":0.2756075286458781},{"name":"C#5","midi":73,"time":1011.3884843333535,"velocity":0.7559055118110236,"duration":0.2756075286458781},{"name":"D5","midi":74,"time":1011.6662620000202,"velocity":0.7559055118110236,"duration":0.2756075286458781},{"name":"C#5","midi":73,"time":1011.9440396666869,"velocity":0.7559055118110236,"duration":0.2756075286458781},{"name":"B4","midi":71,"time":1012.2218173333536,"velocity":0.7559055118110236,"duration":0.2756075286458781},{"name":"C#5","midi":73,"time":1012.4995950000202,"velocity":0.7559055118110236,"duration":0.2756075286458781},{"name":"B4","midi":71,"time":1012.7773726666869,"velocity":0.7559055118110236,"duration":0.2756075286458781},{"name":"A4","midi":69,"time":1013.0551503333536,"velocity":0.7559055118110236,"duration":0.2756075286458781},{"name":"A2","midi":45,"time":1013.3329280000203,"velocity":0.7559055118110236,"duration":0.4144963619792179},{"name":"A5","midi":81,"time":1013.3329280000203,"velocity":0.7559055118110236,"duration":0.8311628619792373},{"name":"B2","midi":47,"time":1013.7495945000203,"velocity":0.7559055118110236,"duration":0.4144963619792179},{"name":"C#3","midi":49,"time":1014.1662610000203,"velocity":0.7559055118110236,"duration":0.4144963619792179},{"name":"E5","midi":76,"time":1014.1662610000203,"velocity":0.7559055118110236,"duration":0.4144963619792179},{"name":"D3","midi":50,"time":1014.5829275000203,"velocity":0.7559055118110236,"duration":0.4144963619792179},{"name":"D5","midi":74,"time":1014.5829275000203,"velocity":0.7559055118110236,"duration":0.4144963619792179},{"name":"E3","midi":52,"time":1014.9995940000204,"velocity":0.7559055118110236,"duration":0.4144963619792179},{"name":"C#5","midi":73,"time":1014.9995940000204,"velocity":0.7559055118110236,"duration":0.4144963619792179},{"name":"F#3","midi":54,"time":1015.4162605000204,"velocity":0.7559055118110236,"duration":0.4144963619792179},{"name":"B4","midi":71,"time":1015.4162605000204,"velocity":0.7559055118110236,"duration":0.4144963619792179},{"name":"G3","midi":55,"time":1015.8329270000204,"velocity":0.7559055118110236,"duration":0.8246524479167192},{"name":"A4","midi":69,"time":1015.8329270000204,"velocity":0.7559055118110236,"duration":0.2756075286458781},{"name":"B4","midi":71,"time":1016.1107046666871,"velocity":0.7559055118110236,"duration":0.2756075286458781},{"name":"C#5","midi":73,"time":1016.3884823333537,"velocity":0.7559055118110236,"duration":0.2756075286458781},{"name":"D5","midi":74,"time":1016.6662600000204,"velocity":0.7559055118110236,"duration":0.2756075286458781},{"name":"C#5","midi":73,"time":1016.9440376666871,"velocity":0.7559055118110236,"duration":0.2756075286458781},{"name":"B4","midi":71,"time":1017.2218153333538,"velocity":0.7559055118110236,"duration":0.2756075286458781},{"name":"C#5","midi":73,"time":1017.4995930000205,"velocity":0.7559055118110236,"duration":0.2756075286458781},{"name":"B4","midi":71,"time":1017.7773706666871,"velocity":0.7559055118110236,"duration":0.2756075286458781},{"name":"A4","midi":69,"time":1018.0551483333538,"velocity":0.7559055118110236,"duration":0.2756075286458781},{"name":"A#2","midi":46,"time":1018.3329260000205,"velocity":0.7559055118110236,"duration":0.4144963619792179},{"name":"G5","midi":79,"time":1018.3329260000205,"velocity":0.7559055118110236,"duration":2.4978288619793148},{"name":"B2","midi":47,"time":1018.7495925000205,"velocity":0.7559055118110236,"duration":0.4144963619792179},{"name":"C#3","midi":49,"time":1019.1662590000205,"velocity":0.7559055118110236,"duration":0.4144963619792179},{"name":"D3","midi":50,"time":1019.5829255000206,"velocity":0.7559055118110236,"duration":0.4144963619792179},{"name":"E3","midi":52,"time":1019.9995920000206,"velocity":0.7559055118110236,"duration":0.4144963619792179},{"name":"C#3","midi":49,"time":1020.4162585000206,"velocity":0.7559055118110236,"duration":0.4144963619792179},{"name":"D3","midi":50,"time":1020.8329250000206,"velocity":0.7559055118110236,"duration":0.8311628619792373},{"name":"F#5","midi":78,"time":1020.8329250000206,"velocity":0.7559055118110236,"duration":0.2756075286458781},{"name":"E5","midi":76,"time":1021.1107026666873,"velocity":0.7559055118110236,"duration":0.2756075286458781},{"name":"D5","midi":74,"time":1021.388480333354,"velocity":0.7559055118110236,"duration":0.2756075286458781},{"name":"B3","midi":59,"time":1021.6662580000207,"velocity":0.7559055118110236,"duration":0.8311628619792373},{"name":"G3","midi":55,"time":1021.6662580000207,"velocity":0.7559055118110236,"duration":0.8311628619792373},{"name":"E4","midi":64,"time":1021.6662580000207,"velocity":0.7559055118110236,"duration":0.8311628619792373},{"name":"C#5","midi":73,"time":1021.6662580000207,"velocity":0.7559055118110236,"duration":0.2756075286458781},{"name":"D5","midi":74,"time":1021.9440356666873,"velocity":0.7559055118110236,"duration":0.2756075286458781},{"name":"E5","midi":76,"time":1022.221813333354,"velocity":0.7559055118110236,"duration":0.2756075286458781},{"name":"E3","midi":52,"time":1022.4995910000207,"velocity":0.7559055118110236,"duration":0.8311628619792373},{"name":"G3","midi":55,"time":1022.4995910000207,"velocity":0.7559055118110236,"duration":0.8311628619792373},{"name":"B3","midi":59,"time":1022.4995910000207,"velocity":0.7559055118110236,"duration":0.8311628619792373},{"name":"D5","midi":74,"time":1022.4995910000207,"velocity":0.7559055118110236,"duration":0.2756075286458781},{"name":"C#5","midi":73,"time":1022.7773686666874,"velocity":0.7559055118110236,"duration":0.2756075286458781},{"name":"B4","midi":71,"time":1023.0551463333541,"velocity":0.7559055118110236,"duration":0.2756075286458781},{"name":"F#3","midi":54,"time":1023.3329240000207,"velocity":0.7559055118110236,"duration":1.2478293619792566},{"name":"A#4","midi":70,"time":1023.3329240000207,"velocity":0.7559055118110236,"duration":0.2756075286458781},{"name":"B4","midi":71,"time":1023.6107016666874,"velocity":0.7559055118110236,"duration":0.2756075286458781},{"name":"C#5","midi":73,"time":1023.8884793333541,"velocity":0.7559055118110236,"duration":0.2756075286458781},{"name":"C#4","midi":61,"time":1024.1662570000208,"velocity":0.7559055118110236,"duration":2.4956587239585133},{"name":"B4","midi":71,"time":1024.1662570000208,"velocity":0.7559055118110236,"duration":0.2756075286458781},{"name":"A#4","midi":70,"time":1024.4440346666875,"velocity":0.7559055118110236,"duration":0.2756075286458781},{"name":"D3","midi":50,"time":1024.7196421953333,"velocity":0.7559055118110236,"duration":0.2756075286458781},{"name":"G#4","midi":68,"time":1024.7218123333541,"velocity":0.7559055118110236,"duration":0.2756075286458781},{"name":"E3","midi":52,"time":1024.9995900000208,"velocity":0.7559055118110236,"duration":0.5533851953125577},{"name":"F#4","midi":66,"time":1024.9995900000208,"velocity":0.7559055118110236,"duration":1.1089405286459169},{"name":"C#3","midi":49,"time":1025.5529751953334,"velocity":0.7559055118110236,"duration":0.2756075286458781},{"name":"D3","midi":50,"time":1025.8329230000209,"velocity":0.7559055118110236,"duration":1.664495861979276},{"name":"G#4","midi":68,"time":1026.1107006666875,"velocity":0.7559055118110236,"duration":0.2756075286458781},{"name":"A#4","midi":70,"time":1026.3884783333542,"velocity":0.7559055118110236,"duration":0.2756075286458781},{"name":"F#3","midi":54,"time":1026.666256000021,"velocity":0.7559055118110236,"duration":0.8311628619792373},{"name":"B3","midi":59,"time":1026.666256000021,"velocity":0.7559055118110236,"duration":0.8311628619792373},{"name":"B4","midi":71,"time":1026.666256000021,"velocity":0.7559055118110236,"duration":0.2756075286458781},{"name":"C#5","midi":73,"time":1026.9440336666876,"velocity":0.7559055118110236,"duration":0.2756075286458781},{"name":"D5","midi":74,"time":1027.2218113333543,"velocity":0.7559055118110236,"duration":0.2756075286458781},{"name":"C#3","midi":49,"time":1027.499589000021,"velocity":0.7559055118110236,"duration":0.8311628619792373},{"name":"A#3","midi":58,"time":1027.499589000021,"velocity":0.7559055118110236,"duration":0.8311628619792373},{"name":"F#3","midi":54,"time":1027.499589000021,"velocity":0.7559055118110236,"duration":0.8311628619792373},{"name":"E5","midi":76,"time":1027.499589000021,"velocity":0.7559055118110236,"duration":0.2756075286458781},{"name":"D5","midi":74,"time":1027.7773666666876,"velocity":0.7559055118110236,"duration":0.2756075286458781},{"name":"C#5","midi":73,"time":1028.0551443333543,"velocity":0.7559055118110236,"duration":0.2756075286458781},{"name":"B2","midi":47,"time":1028.332922000021,"velocity":0.7559055118110236,"duration":0.8311628619792373},{"name":"F#3","midi":54,"time":1028.332922000021,"velocity":0.7559055118110236,"duration":0.8311628619792373},{"name":"B3","midi":59,"time":1028.332922000021,"velocity":0.7559055118110236,"duration":0.8311628619792373},{"name":"D5","midi":74,"time":1028.332922000021,"velocity":0.7559055118110236,"duration":0.2756075286458781},{"name":"E5","midi":76,"time":1028.6106996666877,"velocity":0.7559055118110236,"duration":0.2756075286458781},{"name":"F#5","midi":78,"time":1028.8884773333543,"velocity":0.7559055118110236,"duration":0.2756075286458781},{"name":"C#3","midi":49,"time":1029.166255000021,"velocity":0.7559055118110236,"duration":0.8311628619792373},{"name":"E3","midi":52,"time":1029.166255000021,"velocity":0.7559055118110236,"duration":0.8311628619792373},{"name":"G5","midi":79,"time":1029.166255000021,"velocity":0.7559055118110236,"duration":0.2756075286458781},{"name":"F#5","midi":78,"time":1029.4440326666877,"velocity":0.7559055118110236,"duration":0.2756075286458781},{"name":"E5","midi":76,"time":1029.7218103333544,"velocity":0.7559055118110236,"duration":0.2756075286458781},{"name":"D#3","midi":51,"time":1029.999588000021,"velocity":0.7559055118110236,"duration":0.8311628619792373},{"name":"B3","midi":59,"time":1029.999588000021,"velocity":0.7559055118110236,"duration":1.664495861979276},{"name":"F#5","midi":78,"time":1029.999588000021,"velocity":0.7559055118110236,"duration":0.2756075286458781},{"name":"G5","midi":79,"time":1030.2773656666877,"velocity":0.7559055118110236,"duration":0.2756075286458781},{"name":"A5","midi":81,"time":1030.5551433333544,"velocity":0.7559055118110236,"duration":0.2756075286458781},{"name":"E3","midi":52,"time":1030.832921000021,"velocity":0.7559055118110236,"duration":0.8311628619792373},{"name":"G5","midi":79,"time":1030.832921000021,"velocity":0.7559055118110236,"duration":0.2756075286458781},{"name":"F#5","midi":78,"time":1031.1106986666878,"velocity":0.7559055118110236,"duration":0.2756075286458781},{"name":"G5","midi":79,"time":1031.3884763333544,"velocity":0.7559055118110236,"duration":0.2756075286458781},{"name":"E3","midi":52,"time":1031.6662540000211,"velocity":0.7559055118110236,"duration":0.8311628619792373},{"name":"C#3","midi":49,"time":1031.6662540000211,"velocity":0.7559055118110236,"duration":0.8311628619792373},{"name":"A4","midi":69,"time":1031.6662540000211,"velocity":0.7559055118110236,"duration":0.2756075286458781},{"name":"C#5","midi":73,"time":1031.9440316666878,"velocity":0.7559055118110236,"duration":0.2756075286458781},{"name":"E5","midi":76,"time":1032.2218093333545,"velocity":0.7559055118110236,"duration":0.2756075286458781},{"name":"C#3","midi":49,"time":1032.4995870000212,"velocity":0.7559055118110236,"duration":0.8311628619792373},{"name":"A2","midi":45,"time":1032.4995870000212,"velocity":0.7559055118110236,"duration":0.8311628619792373},{"name":"E3","midi":52,"time":1032.4995870000212,"velocity":0.7559055118110236,"duration":0.8311628619792373},{"name":"G5","midi":79,"time":1032.4995870000212,"velocity":0.7559055118110236,"duration":0.2756075286458781},{"name":"F#5","midi":78,"time":1032.7773646666878,"velocity":0.7559055118110236,"duration":0.2756075286458781},{"name":"E5","midi":76,"time":1033.0551423333545,"velocity":0.7559055118110236,"duration":0.2756075286458781},{"name":"D2","midi":38,"time":1033.3329200000212,"velocity":0.7559055118110236,"duration":0.8311628619792373},{"name":"D3","midi":50,"time":1033.3329200000212,"velocity":0.7559055118110236,"duration":0.8311628619792373},{"name":"F#5","midi":78,"time":1033.3329200000212,"velocity":0.7559055118110236,"duration":0.2756075286458781},{"name":"E5","midi":76,"time":1033.6106976666879,"velocity":0.7559055118110236,"duration":0.2756075286458781},{"name":"F#5","midi":78,"time":1033.8884753333546,"velocity":0.7559055118110236,"duration":0.2756075286458781},{"name":"C#3","midi":49,"time":1034.1662530000212,"velocity":0.7559055118110236,"duration":0.8311628619792373},{"name":"E3","midi":52,"time":1034.1662530000212,"velocity":0.7559055118110236,"duration":0.8311628619792373},{"name":"G3","midi":55,"time":1034.1662530000212,"velocity":0.7559055118110236,"duration":0.8311628619792373},{"name":"A#4","midi":70,"time":1034.1662530000212,"velocity":0.7559055118110236,"duration":0.2756075286458781},{"name":"C#5","midi":73,"time":1034.444030666688,"velocity":0.7559055118110236,"duration":0.2756075286458781},{"name":"D5","midi":74,"time":1034.7218083333546,"velocity":0.7559055118110236,"duration":0.2756075286458781},{"name":"A#2","midi":46,"time":1034.9995860000213,"velocity":0.7559055118110236,"duration":0.8311628619792373},{"name":"C#3","midi":49,"time":1034.9995860000213,"velocity":0.7559055118110236,"duration":0.8311628619792373},{"name":"F#3","midi":54,"time":1034.9995860000213,"velocity":0.7559055118110236,"duration":1.664495861979276},{"name":"E5","midi":76,"time":1034.9995860000213,"velocity":0.7559055118110236,"duration":0.2756075286458781},{"name":"D5","midi":74,"time":1035.277363666688,"velocity":0.7559055118110236,"duration":0.2756075286458781},{"name":"C#5","midi":73,"time":1035.5551413333546,"velocity":0.7559055118110236,"duration":0.2756075286458781},{"name":"B2","midi":47,"time":1035.8329190000213,"velocity":0.7559055118110236,"duration":0.8311628619792373},{"name":"D5","midi":74,"time":1035.8329190000213,"velocity":0.7559055118110236,"duration":0.2756075286458781},{"name":"C#5","midi":73,"time":1036.110696666688,"velocity":0.7559055118110236,"duration":0.2756075286458781},{"name":"B4","midi":71,"time":1036.3884743333547,"velocity":0.7559055118110236,"duration":0.2756075286458781},{"name":"E2","midi":40,"time":1036.6662520000214,"velocity":0.7559055118110236,"duration":0.8311628619792373},{"name":"E3","midi":52,"time":1036.6662520000214,"velocity":0.7559055118110236,"duration":0.8311628619792373},{"name":"C#5","midi":73,"time":1036.6662520000214,"velocity":0.7559055118110236,"duration":0.8311628619792373},{"name":"C#3","midi":49,"time":1037.4995850000214,"velocity":0.7559055118110236,"duration":0.8311628619792373},{"name":"F#2","midi":42,"time":1037.4995850000214,"velocity":0.7559055118110236,"duration":0.8311628619792373},{"name":"A#4","midi":70,"time":1037.4995850000214,"velocity":0.7559055118110236,"duration":0.8311628619792373},{"name":"B2","midi":47,"time":1038.3329180000214,"velocity":0.7559055118110236,"duration":1.1089405286459169},{"name":"B4","midi":71,"time":1038.3329180000214,"velocity":0.7559055118110236,"duration":2.4956587239585133},{"name":"F#4","midi":66,"time":1038.6106956666881,"velocity":0.7559055118110236,"duration":0.2756075286458781},{"name":"D4","midi":62,"time":1038.8884733333548,"velocity":0.7559055118110236,"duration":0.2756075286458781},{"name":"B3","midi":59,"time":1039.1662510000215,"velocity":0.7559055118110236,"duration":0.2756075286458781},{"name":"F#3","midi":54,"time":1039.4440286666882,"velocity":0.7559055118110236,"duration":0.2756075286458781},{"name":"D3","midi":50,"time":1039.7218063333548,"velocity":0.7559055118110236,"duration":0.2756075286458781},{"name":"B2","midi":47,"time":1039.9995840000215,"velocity":0.7559055118110236,"duration":0.2756075286458781},{"name":"D3","midi":50,"time":1040.2773616666882,"velocity":0.7559055118110236,"duration":0.2756075286458781},{"name":"F#3","midi":54,"time":1040.5551393333549,"velocity":0.7559055118110236,"duration":0.2756075286458781},{"name":"B3","midi":59,"time":1040.8329170000216,"velocity":0.7559055118110236,"duration":0.8311628619792373},{"name":"F#4","midi":66,"time":1040.8329170000216,"velocity":0.7559055118110236,"duration":0.13671869531253833},{"name":"D4","midi":62,"time":1040.8329170000216,"velocity":0.7559055118110236,"duration":4.991317447916799},{"name":"E4","midi":64,"time":1040.971805833355,"velocity":0.7559055118110236,"duration":0.13671869531253833},{"name":"F#4","midi":66,"time":1041.1106946666882,"velocity":0.7559055118110236,"duration":0.9700516953125771},{"name":"A3","midi":57,"time":1041.6662500000216,"velocity":0.7559055118110236,"duration":0.4144963619792179},{"name":"G3","midi":55,"time":1042.0829165000216,"velocity":0.7559055118110236,"duration":0.4144963619792179},{"name":"G4","midi":67,"time":1042.0829165000216,"velocity":0.7559055118110236,"duration":0.13671869531253833},{"name":"F#4","midi":66,"time":1042.221805333355,"velocity":0.7559055118110236,"duration":0.13671869531253833},{"name":"E4","midi":64,"time":1042.3606941666883,"velocity":0.7559055118110236,"duration":0.13671869531253833},{"name":"F#3","midi":54,"time":1042.4995830000216,"velocity":0.7559055118110236,"duration":0.4144963619792179},{"name":"F#4","midi":66,"time":1042.4995830000216,"velocity":0.7559055118110236,"duration":0.13671869531253833},{"name":"G4","midi":67,"time":1042.638471833355,"velocity":0.7559055118110236,"duration":0.694444166666699},{"name":"E3","midi":52,"time":1042.9162495000216,"velocity":0.7559055118110236,"duration":0.4144963619792179},{"name":"F#3","midi":54,"time":1043.3329160000217,"velocity":0.7559055118110236,"duration":0.2756075286458781},{"name":"A4","midi":69,"time":1043.3329160000217,"velocity":0.7559055118110236,"duration":0.8311628619792373},{"name":"G3","midi":55,"time":1043.6106936666883,"velocity":0.7559055118110236,"duration":0.2756075286458781},{"name":"A3","midi":57,"time":1043.888471333355,"velocity":0.7559055118110236,"duration":0.2756075286458781},{"name":"G3","midi":55,"time":1044.1662490000217,"velocity":0.7559055118110236,"duration":0.4144963619792179},{"name":"A4","midi":69,"time":1044.1662490000217,"velocity":0.7559055118110236,"duration":1.5624993750000158},{"name":"C5","midi":72,"time":1044.1662490000217,"velocity":0.7559055118110236,"duration":1.5624993750000158},{"name":"F#3","midi":54,"time":1044.5829155000217,"velocity":0.7559055118110236,"duration":0.4144963619792179},{"name":"E3","midi":52,"time":1044.9995820000217,"velocity":0.7559055118110236,"duration":0.4144963619792179},{"name":"D3","midi":50,"time":1045.4162485000218,"velocity":0.7559055118110236,"duration":0.41449636197899054},{"name":"G3","midi":55,"time":1045.8329150000216,"velocity":0.7559055118110236,"duration":0.5533851953125577},{"name":"B4","midi":71,"time":1045.8329150000216,"velocity":0.7559055118110236,"duration":0.2756075286458781},{"name":"C#5","midi":73,"time":1046.1106926666882,"velocity":0.7559055118110236,"duration":0.2756075286458781},{"name":"F#3","midi":54,"time":1046.3863001953341,"velocity":0.7559055118110236,"duration":0.2756075286458781},{"name":"D5","midi":74,"time":1046.388470333355,"velocity":0.7559055118110236,"duration":0.2756075286458781},{"name":"G3","midi":55,"time":1046.6662480000216,"velocity":0.7559055118110236,"duration":0.5533851953125577},{"name":"C#5","midi":73,"time":1046.6662480000216,"velocity":0.7559055118110236,"duration":0.2756075286458781},{"name":"D5","midi":74,"time":1046.9440256666883,"velocity":0.7559055118110236,"duration":0.2756075286458781},{"name":"E3","midi":52,"time":1047.2196331953342,"velocity":0.7559055118110236,"duration":0.2756075286458781},{"name":"E5","midi":76,"time":1047.221803333355,"velocity":0.7559055118110236,"duration":0.2756075286458781},{"name":"F#3","midi":54,"time":1047.4995810000216,"velocity":0.7559055118110236,"duration":0.5533851953125577},{"name":"D5","midi":74,"time":1047.4995810000216,"velocity":0.7559055118110236,"duration":0.2756075286458781},{"name":"E5","midi":76,"time":1047.7773586666883,"velocity":0.7559055118110236,"duration":0.2756075286458781},{"name":"D3","midi":50,"time":1048.0529661953342,"velocity":0.7559055118110236,"duration":0.2756075286458781},{"name":"F#5","midi":78,"time":1048.055136333355,"velocity":0.7559055118110236,"duration":0.2756075286458781},{"name":"A3","midi":57,"time":1048.3329140000217,"velocity":0.7559055118110236,"duration":0.5533851953125577},{"name":"E5","midi":76,"time":1048.3329140000217,"velocity":0.7559055118110236,"duration":0.2756075286458781},{"name":"D5","midi":74,"time":1048.6106916666884,"velocity":0.7559055118110236,"duration":0.2756075286458781},{"name":"E3","midi":52,"time":1048.8862991953342,"velocity":0.7559055118110236,"duration":0.2756075286458781},{"name":"C#5","midi":73,"time":1048.888469333355,"velocity":0.7559055118110236,"duration":0.2756075286458781},{"name":"A2","midi":45,"time":1049.1662470000217,"velocity":0.7559055118110236,"duration":0.5533851953125577},{"name":"D5","midi":74,"time":1049.1662470000217,"velocity":0.7559055118110236,"duration":0.2756075286458781},{"name":"C#5","midi":73,"time":1049.4440246666884,"velocity":0.7559055118110236,"duration":0.2756075286458781},{"name":"C#3","midi":49,"time":1049.7196321953343,"velocity":0.7559055118110236,"duration":0.2756075286458781},{"name":"B4","midi":71,"time":1049.721802333355,"velocity":0.7559055118110236,"duration":0.2756075286458781},{"name":"E3","midi":52,"time":1049.9995800000218,"velocity":0.7559055118110236,"duration":0.5533851953125577},{"name":"A4","midi":69,"time":1049.9995800000218,"velocity":0.7559055118110236,"duration":0.2756075286458781},{"name":"C#5","midi":73,"time":1050.2773576666884,"velocity":0.7559055118110236,"duration":0.2756075286458781},{"name":"G3","midi":55,"time":1050.5529651953343,"velocity":0.7559055118110236,"duration":0.2756075286458781},{"name":"E5","midi":76,"time":1050.555135333355,"velocity":0.7559055118110236,"duration":0.2756075286458781},{"name":"F#3","midi":54,"time":1050.8329130000218,"velocity":0.7559055118110236,"duration":0.8311628619792373},{"name":"A5","midi":81,"time":1050.8329130000218,"velocity":0.7559055118110236,"duration":1.1089405286459169},{"name":"D3","midi":50,"time":1051.6662460000218,"velocity":0.7559055118110236,"duration":0.8311628619792373},{"name":"A3","midi":57,"time":1051.6662460000218,"velocity":0.7559055118110236,"duration":0.8311628619792373},{"name":"F#3","midi":54,"time":1051.6662460000218,"velocity":0.7559055118110236,"duration":0.8311628619792373},{"name":"D4","midi":62,"time":1051.6662460000218,"velocity":0.7559055118110236,"duration":0.8311628619792373},{"name":"B5","midi":83,"time":1051.9440236666885,"velocity":0.7559055118110236,"duration":0.13671869531253833},{"name":"A5","midi":81,"time":1052.0829125000218,"velocity":0.7559055118110236,"duration":0.13671869531253833},{"name":"G5","midi":79,"time":1052.2218013333552,"velocity":0.7559055118110236,"duration":0.13671869531253833},{"name":"A5","midi":81,"time":1052.3606901666885,"velocity":0.7559055118110236,"duration":0.13671869531253833},{"name":"D4","midi":62,"time":1052.4995790000219,"velocity":0.7559055118110236,"duration":0.8246524479166055},{"name":"G3","midi":55,"time":1052.4995790000219,"velocity":0.7559055118110236,"duration":1.1089405286456895},{"name":"B5","midi":83,"time":1052.4995790000219,"velocity":0.7559055118110236,"duration":0.8311628619790099},{"name":"E4","midi":64,"time":1053.3329120000217,"velocity":0.7559055118110236,"duration":0.8311628619792373},{"name":"A4","midi":69,"time":1053.3329120000217,"velocity":0.7559055118110236,"duration":0.8311628619792373},{"name":"C#5","midi":73,"time":1053.3329120000217,"velocity":0.7559055118110236,"duration":0.8311628619792373},{"name":"F#3","midi":54,"time":1053.6106896666884,"velocity":0.7559055118110236,"duration":0.2756075286458781},{"name":"E3","midi":52,"time":1053.888467333355,"velocity":0.7559055118110236,"duration":0.2756075286458781},{"name":"D3","midi":50,"time":1054.1662450000217,"velocity":0.7559055118110236,"duration":0.2756075286458781},{"name":"G5","midi":79,"time":1054.1662450000217,"velocity":0.7559055118110236,"duration":1.605902135416727},{"name":"E5","midi":76,"time":1054.1662450000217,"velocity":0.7559055118110236,"duration":1.605902135416727},{"name":"A4","midi":69,"time":1054.1662450000217,"velocity":0.7559055118110236,"duration":1.605902135416727},{"name":"C#3","midi":49,"time":1054.4440226666884,"velocity":0.7559055118110236,"duration":0.2756075286458781},{"name":"B2","midi":47,"time":1054.721800333355,"velocity":0.7559055118110236,"duration":0.2756075286458781},{"name":"C#3","midi":49,"time":1054.9995780000218,"velocity":0.7559055118110236,"duration":0.2756075286458781},{"name":"B2","midi":47,"time":1055.2773556666884,"velocity":0.7559055118110236,"duration":0.2756075286458781},{"name":"A2","midi":45,"time":1055.5551333333551,"velocity":0.7559055118110236,"duration":0.2756075286458781},{"name":"D3","midi":50,"time":1055.8329110000218,"velocity":0.7559055118110236,"duration":0.8311628619792373},{"name":"F#5","midi":78,"time":1055.8329110000218,"velocity":0.7559055118110236,"duration":0.2756075286458781},{"name":"E5","midi":76,"time":1056.1106886666885,"velocity":0.7559055118110236,"duration":0.2756075286458781},{"name":"D5","midi":74,"time":1056.3884663333552,"velocity":0.7559055118110236,"duration":0.2756075286458781},{"name":"G2","midi":43,"time":1056.6662440000218,"velocity":0.7559055118110236,"duration":0.8311628619792373},{"name":"B2","midi":47,"time":1056.6662440000218,"velocity":0.7559055118110236,"duration":0.8311628619792373},{"name":"G3","midi":55,"time":1056.6662440000218,"velocity":0.7559055118110236,"duration":0.8311628619792373},{"name":"E5","midi":76,"time":1056.6662440000218,"velocity":0.7559055118110236,"duration":0.2756075286458781},{"name":"F#5","midi":78,"time":1056.9440216666885,"velocity":0.7559055118110236,"duration":0.2756075286458781},{"name":"G5","midi":79,"time":1057.2217993333552,"velocity":0.7559055118110236,"duration":0.2756075286458781},{"name":"A2","midi":45,"time":1057.4995770000219,"velocity":0.7559055118110236,"duration":0.8311628619792373},{"name":"G3","midi":55,"time":1057.4995770000219,"velocity":0.7559055118110236,"duration":1.2478293619792566},{"name":"E3","midi":52,"time":1057.4995770000219,"velocity":0.7559055118110236,"duration":0.8311628619792373},{"name":"A4","midi":69,"time":1057.4995770000219,"velocity":0.7559055118110236,"duration":0.2756075286458781},{"name":"B4","midi":71,"time":1057.7773546666886,"velocity":0.7559055118110236,"duration":0.2756075286458781},{"name":"C#5","midi":73,"time":1058.0551323333552,"velocity":0.7559055118110236,"duration":0.2756075286458781},{"name":"D3","midi":50,"time":1058.332910000022,"velocity":0.7559055118110236,"duration":1.2478293619792566},{"name":"D5","midi":74,"time":1058.332910000022,"velocity":0.7559055118110236,"duration":2.712672526041615},{"name":"E3","midi":52,"time":1058.749576500022,"velocity":0.7559055118110236,"duration":0.4144963619792179},{"name":"F#3","midi":54,"time":1059.166243000022,"velocity":0.7559055118110236,"duration":0.4144963619792179},{"name":"D3","midi":50,"time":1059.582909500022,"velocity":0.7559055118110236,"duration":1.2478293619792566},{"name":"D2","midi":38,"time":1059.999576000022,"velocity":0.7559055118110236,"duration":1.0416662499999347},{"name":"D4","midi":62,"time":1060.989158937522,"velocity":0.7559055118110236,"duration":0.9548607291665121},{"name":"F#4","midi":66,"time":1061.9440196666885,"velocity":0.7559055118110236,"duration":0.27343739062507666},{"name":"A4","midi":69,"time":1062.2217973333552,"velocity":0.7559055118110236,"duration":0.27343739062507666},{"name":"D5","midi":74,"time":1062.4995750000219,"velocity":0.7559055118110236,"duration":0.27343739062507666},{"name":"A4","midi":69,"time":1062.7773526666886,"velocity":0.7559055118110236,"duration":0.27343739062507666},{"name":"F#4","midi":66,"time":1063.0551303333552,"velocity":0.7559055118110236,"duration":0.27343739062507666},{"name":"D4","midi":62,"time":1063.332908000022,"velocity":0.7559055118110236,"duration":0.27343739062507666},{"name":"F#4","midi":66,"time":1063.6106856666886,"velocity":0.7559055118110236,"duration":0.27343739062507666},{"name":"A4","midi":69,"time":1063.8884633333553,"velocity":0.7559055118110236,"duration":0.27343739062507666},{"name":"C5","midi":72,"time":1064.166241000022,"velocity":0.7559055118110236,"duration":0.8246524479166055},{"name":"B4","midi":71,"time":1065.8329070000218,"velocity":0.7559055118110236,"duration":0.27343739062507666},{"name":"A4","midi":69,"time":1066.1106846666885,"velocity":0.7559055118110236,"duration":0.27343739062507666},{"name":"B4","midi":71,"time":1066.3884623333552,"velocity":0.7559055118110236,"duration":0.27343739062507666},{"name":"E4","midi":64,"time":1066.6662400000218,"velocity":0.7559055118110236,"duration":1.106770390624888},{"name":"F#4","midi":66,"time":1067.7773506666883,"velocity":0.7559055118110236,"duration":0.27343739062507666},{"name":"G4","midi":67,"time":1068.055128333355,"velocity":0.7559055118110236,"duration":0.27343739062507666},{"name":"A4","midi":69,"time":1068.3329060000217,"velocity":0.7559055118110236,"duration":0.27343739062507666},{"name":"G4","midi":67,"time":1068.6106836666884,"velocity":0.7559055118110236,"duration":0.27343739062507666},{"name":"A4","midi":69,"time":1068.888461333355,"velocity":0.7559055118110236,"duration":0.27343739062507666},{"name":"D4","midi":62,"time":1069.1662390000217,"velocity":0.7559055118110236,"duration":1.106770390624888},{"name":"E4","midi":64,"time":1070.2773496666882,"velocity":0.7559055118110236,"duration":0.27343739062507666},{"name":"F#4","midi":66,"time":1070.555127333355,"velocity":0.7559055118110236,"duration":0.27343739062507666},{"name":"G4","midi":67,"time":1070.8329050000216,"velocity":0.7559055118110236,"duration":0.27343739062507666},{"name":"E4","midi":64,"time":1071.1106826666883,"velocity":0.7559055118110236,"duration":0.27343739062507666},{"name":"C#4","midi":61,"time":1071.388460333355,"velocity":0.7559055118110236,"duration":0.27343739062507666},{"name":"A3","midi":57,"time":1071.6662380000216,"velocity":0.7559055118110236,"duration":0.27343739062507666},{"name":"C#4","midi":61,"time":1071.9440156666883,"velocity":0.7559055118110236,"duration":0.27343739062507666},{"name":"E4","midi":64,"time":1072.221793333355,"velocity":0.7559055118110236,"duration":0.27343739062507666},{"name":"G4","midi":67,"time":1072.4995710000217,"velocity":0.7559055118110236,"duration":0.27343739062507666},{"name":"F#4","midi":66,"time":1072.7773486666883,"velocity":0.7559055118110236,"duration":0.27343739062507666},{"name":"E4","midi":64,"time":1073.055126333355,"velocity":0.7559055118110236,"duration":0.27343739062507666},{"name":"F#4","midi":66,"time":1073.3329040000217,"velocity":0.7559055118110236,"duration":0.27343739062507666},{"name":"D4","midi":62,"time":1073.6106816666884,"velocity":0.7559055118110236,"duration":0.27343739062507666},{"name":"E4","midi":64,"time":1073.888459333355,"velocity":0.7559055118110236,"duration":0.27343739062507666},{"name":"F#4","midi":66,"time":1074.1662370000217,"velocity":0.7559055118110236,"duration":0.27343739062507666},{"name":"G#4","midi":68,"time":1074.4440146666884,"velocity":0.7559055118110236,"duration":0.27343739062507666},{"name":"A4","midi":69,"time":1074.721792333355,"velocity":0.7559055118110236,"duration":0.27343739062507666},{"name":"B4","midi":71,"time":1074.9995700000218,"velocity":0.7559055118110236,"duration":0.27343739062507666},{"name":"C#5","midi":73,"time":1075.2773476666885,"velocity":0.7559055118110236,"duration":0.27343739062507666},{"name":"D5","midi":74,"time":1075.5551253333551,"velocity":0.7559055118110236,"duration":0.27343739062507666},{"name":"C#5","midi":73,"time":1075.8329030000218,"velocity":0.7559055118110236,"duration":0.27343739062507666},{"name":"A3","midi":57,"time":1075.8329030000218,"velocity":0.7559055118110236,"duration":1.1067703906251154},{"name":"B4","midi":71,"time":1076.1106806666885,"velocity":0.7559055118110236,"duration":0.27343739062507666},{"name":"A4","midi":69,"time":1076.3884583333552,"velocity":0.7559055118110236,"duration":0.27343739062507666},{"name":"D5","midi":74,"time":1076.6662360000219,"velocity":0.7559055118110236,"duration":0.27343739062507666},{"name":"C#5","midi":73,"time":1076.9440136666885,"velocity":0.7559055118110236,"duration":0.27343739062507666},{"name":"C#4","midi":61,"time":1076.9440136666885,"velocity":0.7559055118110236,"duration":0.27343739062507666},{"name":"B4","midi":71,"time":1077.2217913333552,"velocity":0.7559055118110236,"duration":0.27343739062507666},{"name":"E4","midi":64,"time":1077.2217913333552,"velocity":0.7559055118110236,"duration":0.27343739062507666},{"name":"C#5","midi":73,"time":1077.499569000022,"velocity":0.7559055118110236,"duration":0.27343739062507666},{"name":"A4","midi":69,"time":1077.499569000022,"velocity":0.7559055118110236,"duration":0.27343739062507666},{"name":"B4","midi":71,"time":1077.7773466666886,"velocity":0.7559055118110236,"duration":0.27343739062507666},{"name":"E4","midi":64,"time":1077.7773466666886,"velocity":0.7559055118110236,"duration":0.27343739062507666},{"name":"A4","midi":69,"time":1078.0551243333553,"velocity":0.7559055118110236,"duration":0.27343739062507666},{"name":"C#4","midi":61,"time":1078.0551243333553,"velocity":0.7559055118110236,"duration":0.27343739062507666},{"name":"E5","midi":76,"time":1078.332902000022,"velocity":0.7559055118110236,"duration":1.1067703906251154},{"name":"A3","midi":57,"time":1078.332902000022,"velocity":0.7559055118110236,"duration":0.27343739062507666},{"name":"C#4","midi":61,"time":1078.6106796666886,"velocity":0.7559055118110236,"duration":0.27343739062507666},{"name":"E4","midi":64,"time":1078.8884573333553,"velocity":0.7559055118110236,"duration":0.27343739062507666},{"name":"G4","midi":67,"time":1079.166235000022,"velocity":0.7559055118110236,"duration":1.1089405286459169},{"name":"C#5","midi":73,"time":1079.4440126666886,"velocity":0.7559055118110236,"duration":0.27343739062507666},{"name":"D5","midi":74,"time":1079.7217903333553,"velocity":0.7559055118110236,"duration":0.27343739062507666},{"name":"E5","midi":76,"time":1079.999568000022,"velocity":0.7559055118110236,"duration":0.27343739062507666},{"name":"F#5","midi":78,"time":1080.2773456666887,"velocity":0.7559055118110236,"duration":0.27343739062507666},{"name":"G5","midi":79,"time":1080.5551233333554,"velocity":0.7559055118110236,"duration":0.27343739062507666},{"name":"A5","midi":81,"time":1080.832901000022,"velocity":0.7559055118110236,"duration":1.1067703906251154},{"name":"F#4","midi":66,"time":1080.832901000022,"velocity":0.7559055118110236,"duration":0.27343739062507666},{"name":"E4","midi":64,"time":1081.1106786666887,"velocity":0.7559055118110236,"duration":0.27343739062507666},{"name":"F#4","midi":66,"time":1081.3884563333554,"velocity":0.7559055118110236,"duration":0.27343739062507666},{"name":"B3","midi":59,"time":1081.666234000022,"velocity":0.7559055118110236,"duration":1.1067703906251154},{"name":"B4","midi":71,"time":1081.9440116666888,"velocity":0.7559055118110236,"duration":0.27343739062507666},{"name":"C#5","midi":73,"time":1082.2217893333554,"velocity":0.7559055118110236,"duration":0.27343739062507666},{"name":"D5","midi":74,"time":1082.4995670000221,"velocity":0.7559055118110236,"duration":0.27343739062507666},{"name":"E5","midi":76,"time":1082.7773446666888,"velocity":0.7559055118110236,"duration":0.27343739062507666},{"name":"C#4","midi":61,"time":1082.7773446666888,"velocity":0.7559055118110236,"duration":0.27343739062507666},{"name":"F#5","midi":78,"time":1083.0551223333555,"velocity":0.7559055118110236,"duration":0.27343739062507666},{"name":"D4","midi":62,"time":1083.0551223333555,"velocity":0.7559055118110236,"duration":0.27343739062507666},{"name":"G5","midi":79,"time":1083.3329000000222,"velocity":0.7559055118110236,"duration":1.1067703906251154},{"name":"E4","midi":64,"time":1083.3329000000222,"velocity":0.7559055118110236,"duration":0.27343739062507666},{"name":"D4","midi":62,"time":1083.6106776666888,"velocity":0.7559055118110236,"duration":0.27343739062507666},{"name":"E4","midi":64,"time":1083.8884553333555,"velocity":0.7559055118110236,"duration":0.27343739062507666},{"name":"A3","midi":57,"time":1084.1662330000222,"velocity":0.7559055118110236,"duration":1.1067703906251154},{"name":"A4","midi":69,"time":1084.4440106666889,"velocity":0.7559055118110236,"duration":0.27343739062507666},{"name":"B4","midi":71,"time":1084.7217883333556,"velocity":0.7559055118110236,"duration":0.27343739062507666},{"name":"C#5","midi":73,"time":1084.9995660000222,"velocity":0.7559055118110236,"duration":0.27343739062507666},{"name":"D5","midi":74,"time":1085.277343666689,"velocity":0.7559055118110236,"duration":0.27343739062507666},{"name":"B3","midi":59,"time":1085.277343666689,"velocity":0.7559055118110236,"duration":0.27343739062507666},{"name":"E5","midi":76,"time":1085.5551213333556,"velocity":0.7559055118110236,"duration":0.27343739062507666},{"name":"C#4","midi":61,"time":1085.5551213333556,"velocity":0.7559055118110236,"duration":0.27343739062507666},{"name":"F#5","midi":78,"time":1085.8328990000223,"velocity":0.7559055118110236,"duration":0.8289927239584358},{"name":"D4","midi":62,"time":1085.8328990000223,"velocity":0.7559055118110236,"duration":0.27343739062507666},{"name":"B3","midi":59,"time":1086.110676666689,"velocity":0.7559055118110236,"duration":0.27343739062507666},{"name":"G#3","midi":56,"time":1086.3884543333556,"velocity":0.7559055118110236,"duration":0.27343739062507666},{"name":"G#4","midi":68,"time":1086.6662320000223,"velocity":0.7559055118110236,"duration":0.8289927239584358},{"name":"E3","midi":52,"time":1086.6662320000223,"velocity":0.7559055118110236,"duration":0.27343739062507666},{"name":"G#3","midi":56,"time":1086.944009666689,"velocity":0.7559055118110236,"duration":0.27343739062507666},{"name":"B3","midi":59,"time":1087.2217873333557,"velocity":0.7559055118110236,"duration":0.27343739062507666},{"name":"B5","midi":83,"time":1087.4995650000224,"velocity":0.7559055118110236,"duration":1.1067703906251154},{"name":"D4","midi":62,"time":1087.4995650000224,"velocity":0.7559055118110236,"duration":0.27343739062507666},{"name":"C#4","midi":61,"time":1087.777342666689,"velocity":0.7559055118110236,"duration":0.27343739062507666},{"name":"B3","midi":59,"time":1088.0551203333557,"velocity":0.7559055118110236,"duration":0.27343739062507666},{"name":"C#4","midi":61,"time":1088.3328980000224,"velocity":0.7559055118110236,"duration":0.27343739062507666},{"name":"C#5","midi":73,"time":1088.610675666689,"velocity":0.7559055118110236,"duration":0.27343739062507666},{"name":"A3","midi":57,"time":1088.610675666689,"velocity":0.7559055118110236,"duration":0.27343739062507666},{"name":"E5","midi":76,"time":1088.8884533333558,"velocity":0.7559055118110236,"duration":0.27343739062507666},{"name":"B3","midi":59,"time":1088.8884533333558,"velocity":0.7559055118110236,"duration":0.27343739062507666},{"name":"A5","midi":81,"time":1089.1662310000224,"velocity":0.7559055118110236,"duration":0.8289927239584358},{"name":"C#4","midi":61,"time":1089.1662310000224,"velocity":0.7559055118110236,"duration":0.27343739062507666},{"name":"D#4","midi":63,"time":1089.4440086666891,"velocity":0.7559055118110236,"duration":0.27343739062507666},{"name":"E4","midi":64,"time":1089.7217863333558,"velocity":0.7559055118110236,"duration":0.27343739062507666},{"name":"D#5","midi":75,"time":1089.9995640000225,"velocity":0.7559055118110236,"duration":0.8289927239584358},{"name":"F#4","midi":66,"time":1089.9995640000225,"velocity":0.7559055118110236,"duration":0.27343739062507666},{"name":"G4","midi":67,"time":1090.2773416666892,"velocity":0.7559055118110236,"duration":0.27343739062507666},{"name":"A4","midi":69,"time":1090.5551193333558,"velocity":0.7559055118110236,"duration":0.27343739062507666},{"name":"E5","midi":76,"time":1090.8328970000225,"velocity":0.7559055118110236,"duration":0.27343739062507666},{"name":"G4","midi":67,"time":1090.8328970000225,"velocity":0.7559055118110236,"duration":0.8289927239584358},{"name":"E4","midi":64,"time":1091.1106746666892,"velocity":0.7559055118110236,"duration":0.27343739062507666},{"name":"F#4","midi":66,"time":1091.3884523333559,"velocity":0.7559055118110236,"duration":0.27343739062507666},{"name":"G4","midi":67,"time":1091.6662300000226,"velocity":0.7559055118110236,"duration":0.27343739062507666},{"name":"E4","midi":64,"time":1091.6662300000226,"velocity":0.7559055118110236,"duration":0.8289927239584358},{"name":"A4","midi":69,"time":1091.9440076666892,"velocity":0.7559055118110236,"duration":0.27343739062507666},{"name":"B4","midi":71,"time":1092.221785333356,"velocity":0.7559055118110236,"duration":0.27343739062507666},{"name":"C#5","midi":73,"time":1092.4995630000226,"velocity":0.7559055118110236,"duration":0.27343739062507666},{"name":"A#3","midi":58,"time":1092.4995630000226,"velocity":0.7559055118110236,"duration":0.8289927239584358},{"name":"D5","midi":74,"time":1092.7773406666893,"velocity":0.7559055118110236,"duration":0.27343739062507666},{"name":"E5","midi":76,"time":1093.055118333356,"velocity":0.7559055118110236,"duration":0.27343739062507666},{"name":"D5","midi":74,"time":1093.3328960000226,"velocity":0.7559055118110236,"duration":0.8289927239584358},{"name":"B3","midi":59,"time":1093.3328960000226,"velocity":0.7559055118110236,"duration":0.27343739062507666},{"name":"C#4","midi":61,"time":1093.6106736666893,"velocity":0.7559055118110236,"duration":0.27343739062507666},{"name":"D4","midi":62,"time":1093.888451333356,"velocity":0.7559055118110236,"duration":0.27343739062507666},{"name":"C6","midi":84,"time":1094.1662290000227,"velocity":0.7559055118110236,"duration":0.8289927239584358},{"name":"E4","midi":64,"time":1094.1662290000227,"velocity":0.7559055118110236,"duration":0.27343739062507666},{"name":"F#4","midi":66,"time":1094.4440066666893,"velocity":0.7559055118110236,"duration":0.27343739062507666},{"name":"G4","midi":67,"time":1094.721784333356,"velocity":0.7559055118110236,"duration":0.27343739062507666},{"name":"F#5","midi":78,"time":1094.9995620000227,"velocity":0.7559055118110236,"duration":0.8289927239584358},{"name":"A4","midi":69,"time":1094.9995620000227,"velocity":0.7559055118110236,"duration":0.27343739062507666},{"name":"B4","midi":71,"time":1095.2773396666894,"velocity":0.7559055118110236,"duration":0.27343739062507666},{"name":"C5","midi":72,"time":1095.555117333356,"velocity":0.7559055118110236,"duration":0.27343739062507666},{"name":"G5","midi":79,"time":1095.8328950000227,"velocity":0.7559055118110236,"duration":0.27343739062507666},{"name":"B4","midi":71,"time":1095.8328950000227,"velocity":0.7559055118110236,"duration":0.8289927239584358},{"name":"G4","midi":67,"time":1096.1106726666894,"velocity":0.7559055118110236,"duration":0.27343739062507666},{"name":"A4","midi":69,"time":1096.388450333356,"velocity":0.7559055118110236,"duration":0.27343739062507666},{"name":"B4","midi":71,"time":1096.6662280000228,"velocity":0.7559055118110236,"duration":0.27343739062507666},{"name":"G4","midi":67,"time":1096.6662280000228,"velocity":0.7559055118110236,"duration":0.8289927239584358},{"name":"C#5","midi":73,"time":1096.9440056666895,"velocity":0.7559055118110236,"duration":0.27343739062507666},{"name":"D5","midi":74,"time":1097.2217833333561,"velocity":0.7559055118110236,"duration":0.27343739062507666},{"name":"E5","midi":76,"time":1097.4995610000228,"velocity":0.7559055118110236,"duration":0.27343739062507666},{"name":"C#4","midi":61,"time":1097.4995610000228,"velocity":0.7559055118110236,"duration":0.8289927239584358},{"name":"F#5","midi":78,"time":1097.7773386666895,"velocity":0.7559055118110236,"duration":0.27343739062507666},{"name":"G5","midi":79,"time":1098.0551163333562,"velocity":0.7559055118110236,"duration":0.27343739062507666},{"name":"F#5","midi":78,"time":1098.3328940000229,"velocity":0.7559055118110236,"duration":0.27343739062507666},{"name":"D4","midi":62,"time":1098.3328940000229,"velocity":0.7559055118110236,"duration":1.1067703906251154},{"name":"D3","midi":50,"time":1098.3328940000229,"velocity":0.7559055118110236,"duration":1.1067703906251154},{"name":"E5","midi":76,"time":1098.6106716666895,"velocity":0.7559055118110236,"duration":0.27343739062507666},{"name":"D5","midi":74,"time":1098.8884493333562,"velocity":0.7559055118110236,"duration":0.27343739062507666},{"name":"A5","midi":81,"time":1099.166227000023,"velocity":0.7559055118110236,"duration":0.8289927239584358},{"name":"F#3","midi":54,"time":1099.4440046666896,"velocity":0.7559055118110236,"duration":0.27343739062507666},{"name":"A3","midi":57,"time":1099.7217823333563,"velocity":0.7559055118110236,"duration":0.27343739062507666},{"name":"C#5","midi":73,"time":1099.999560000023,"velocity":0.7559055118110236,"duration":1.6623257239584746},{"name":"E5","midi":76,"time":1099.999560000023,"velocity":0.7559055118110236,"duration":1.6623257239584746},{"name":"G5","midi":79,"time":1099.999560000023,"velocity":0.7559055118110236,"duration":1.6623257239584746},{"name":"D4","midi":62,"time":1099.999560000023,"velocity":0.7559055118110236,"duration":0.27343739062507666},{"name":"A3","midi":57,"time":1100.2773376666896,"velocity":0.7559055118110236,"duration":0.27343739062507666},{"name":"F#3","midi":54,"time":1100.5551153333563,"velocity":0.7559055118110236,"duration":0.27343739062507666},{"name":"D3","midi":50,"time":1100.832893000023,"velocity":0.7559055118110236,"duration":0.27343739062507666},{"name":"F#3","midi":54,"time":1101.1106706666897,"velocity":0.7559055118110236,"duration":0.27343739062507666},{"name":"A3","midi":57,"time":1101.3884483333563,"velocity":0.7559055118110236,"duration":0.27343739062507666},{"name":"D5","midi":74,"time":1101.666226000023,"velocity":0.7559055118110236,"duration":0.27343739062507666},{"name":"F#5","midi":78,"time":1101.666226000023,"velocity":0.7559055118110236,"duration":0.8246524479166055},{"name":"C4","midi":60,"time":1101.666226000023,"velocity":0.7559055118110236,"duration":0.8246524479166055},{"name":"F#4","midi":66,"time":1101.9440036666897,"velocity":0.7559055118110236,"duration":0.27343739062507666},{"name":"G4","midi":67,"time":1102.2217813333564,"velocity":0.7559055118110236,"duration":0.2734373906248493},{"name":"A4","midi":69,"time":1102.4995590000228,"velocity":0.7559055118110236,"duration":0.27343739062507666},{"name":"B4","midi":71,"time":1102.7773366666895,"velocity":0.7559055118110236,"duration":0.27343739062507666},{"name":"C5","midi":72,"time":1103.0551143333562,"velocity":0.7559055118110236,"duration":0.27343739062507666},{"name":"D5","midi":74,"time":1103.3328920000229,"velocity":0.7559055118110236,"duration":1.1089405286459169},{"name":"F#5","midi":78,"time":1103.3328920000229,"velocity":0.7559055118110236,"duration":0.8289927239584358},{"name":"B3","midi":59,"time":1103.3328920000229,"velocity":0.7559055118110236,"duration":0.27343739062507666},{"name":"A3","midi":57,"time":1103.6106696666895,"velocity":0.7559055118110236,"duration":0.27343739062507666},{"name":"B3","midi":59,"time":1103.8884473333562,"velocity":0.7559055118110236,"duration":0.27343739062507666},{"name":"G5","midi":79,"time":1104.166225000023,"velocity":0.7559055118110236,"duration":0.5533851953125577},{"name":"E3","midi":52,"time":1104.166225000023,"velocity":0.7559055118110236,"duration":1.1067703906251154},{"name":"E4","midi":64,"time":1104.4440026666896,"velocity":0.7559055118110236,"duration":0.27343739062507666},{"name":"F#4","midi":66,"time":1104.7217803333563,"velocity":0.7559055118110236,"duration":0.27343739062507666},{"name":"G4","midi":67,"time":1104.999558000023,"velocity":0.7559055118110236,"duration":0.27343739062507666},{"name":"A4","midi":69,"time":1105.2773356666896,"velocity":0.7559055118110236,"duration":0.27343739062507666},{"name":"F#3","midi":54,"time":1105.2773356666896,"velocity":0.7559055118110236,"duration":0.27343739062507666},{"name":"B4","midi":71,"time":1105.5551133333563,"velocity":0.7559055118110236,"duration":0.27343739062507666},{"name":"G3","midi":55,"time":1105.5551133333563,"velocity":0.7559055118110236,"duration":0.27343739062507666},{"name":"C#5","midi":73,"time":1105.832891000023,"velocity":0.7559055118110236,"duration":1.1089405286459169},{"name":"G5","midi":79,"time":1105.832891000023,"velocity":0.7559055118110236,"duration":0.8289927239584358},{"name":"A3","midi":57,"time":1105.832891000023,"velocity":0.7559055118110236,"duration":0.27343739062507666},{"name":"G3","midi":55,"time":1106.1106686666897,"velocity":0.7559055118110236,"duration":0.27343739062507666},{"name":"A3","midi":57,"time":1106.3884463333563,"velocity":0.7559055118110236,"duration":0.27343739062507666},{"name":"F#5","midi":78,"time":1106.666224000023,"velocity":0.7559055118110236,"duration":0.5533851953125577},{"name":"D3","midi":50,"time":1106.666224000023,"velocity":0.7559055118110236,"duration":1.1067703906251154},{"name":"D4","midi":62,"time":1106.9440016666897,"velocity":0.7559055118110236,"duration":0.27343739062507666},{"name":"E4","midi":64,"time":1107.2217793333564,"velocity":0.7559055118110236,"duration":0.27343739062507666},{"name":"F#4","midi":66,"time":1107.499557000023,"velocity":0.7559055118110236,"duration":0.27343739062507666},{"name":"G4","midi":67,"time":1107.7773346666897,"velocity":0.7559055118110236,"duration":0.27343739062507666},{"name":"E3","midi":52,"time":1107.7773346666897,"velocity":0.7559055118110236,"duration":0.27343739062507666},{"name":"A4","midi":69,"time":1108.0551123333564,"velocity":0.7559055118110236,"duration":0.27343739062507666},{"name":"F#3","midi":54,"time":1108.0551123333564,"velocity":0.7559055118110236,"duration":0.27343739062507666},{"name":"B4","midi":71,"time":1108.332890000023,"velocity":0.7559055118110236,"duration":0.8289927239584358},{"name":"D5","midi":74,"time":1108.332890000023,"velocity":0.7559055118110236,"duration":0.8289927239584358},{"name":"G3","midi":55,"time":1108.332890000023,"velocity":0.7559055118110236,"duration":0.27343739062507666},{"name":"E3","midi":52,"time":1108.6106676666898,"velocity":0.7559055118110236,"duration":0.27343739062507666},{"name":"C#3","midi":49,"time":1108.8884453333565,"velocity":0.7559055118110236,"duration":0.27343739062507666},{"name":"C#5","midi":73,"time":1109.1662230000231,"velocity":0.7559055118110236,"duration":0.8289927239584358},{"name":"A2","midi":45,"time":1109.1662230000231,"velocity":0.7559055118110236,"duration":0.27343739062507666},{"name":"C#3","midi":49,"time":1109.4440006666898,"velocity":0.7559055118110236,"duration":0.27343739062507666},{"name":"E3","midi":52,"time":1109.7217783333565,"velocity":0.7559055118110236,"duration":0.27343739062507666},{"name":"C#5","midi":73,"time":1109.9995560000232,"velocity":0.7559055118110236,"duration":0.8289927239584358},{"name":"E5","midi":76,"time":1109.9995560000232,"velocity":0.7559055118110236,"duration":1.664495861979276},{"name":"G3","midi":55,"time":1109.9995560000232,"velocity":0.7559055118110236,"duration":0.27343739062507666},{"name":"F#3","midi":54,"time":1110.2773336666899,"velocity":0.7559055118110236,"duration":0.27343739062507666},{"name":"E3","midi":52,"time":1110.5551113333565,"velocity":0.7559055118110236,"duration":0.27343739062507666},{"name":"A4","midi":69,"time":1110.8328890000232,"velocity":0.7559055118110236,"duration":0.8289927239584358},{"name":"F#3","midi":54,"time":1110.8328890000232,"velocity":0.7559055118110236,"duration":0.27343739062507666},{"name":"D3","midi":50,"time":1111.11066666669,"velocity":0.7559055118110236,"duration":0.27343739062507666},{"name":"E3","midi":52,"time":1111.3884443333566,"velocity":0.7559055118110236,"duration":0.27343739062507666},{"name":"D5","midi":74,"time":1111.6662220000233,"velocity":0.7559055118110236,"duration":0.8289927239584358},{"name":"F#3","midi":54,"time":1111.6662220000233,"velocity":0.7559055118110236,"duration":0.27343739062507666},{"name":"G3","midi":55,"time":1111.94399966669,"velocity":0.7559055118110236,"duration":0.27343739062507666},{"name":"A3","midi":57,"time":1112.2217773333566,"velocity":0.7559055118110236,"duration":0.27343739062507666},{"name":"G#5","midi":80,"time":1112.4995550000233,"velocity":0.7559055118110236,"duration":0.8289927239584358},{"name":"D5","midi":74,"time":1112.4995550000233,"velocity":0.7559055118110236,"duration":0.8289927239584358},{"name":"B3","midi":59,"time":1112.4995550000233,"velocity":0.7559055118110236,"duration":0.27343739062507666},{"name":"C#4","midi":61,"time":1112.77733266669,"velocity":0.7559055118110236,"duration":0.27343739062507666},{"name":"D4","midi":62,"time":1113.0551103333567,"velocity":0.7559055118110236,"duration":0.27343739062507666},{"name":"E5","midi":76,"time":1113.3328880000233,"velocity":0.7559055118110236,"duration":0.8289927239584358},{"name":"A5","midi":81,"time":1113.3328880000233,"velocity":0.7559055118110236,"duration":0.8289927239584358},{"name":"C#4","midi":61,"time":1113.3328880000233,"velocity":0.7559055118110236,"duration":0.27343739062507666},{"name":"B3","midi":59,"time":1113.61066566669,"velocity":0.7559055118110236,"duration":0.27343739062507666},{"name":"A3","midi":57,"time":1113.8884433333567,"velocity":0.7559055118110236,"duration":0.27343739062507666},{"name":"E4","midi":64,"time":1114.1662210000234,"velocity":0.7559055118110236,"duration":0.8289927239584358},{"name":"C#5","midi":73,"time":1114.1662210000234,"velocity":0.7559055118110236,"duration":0.8289927239584358},{"name":"B3","midi":59,"time":1114.1662210000234,"velocity":0.7559055118110236,"duration":0.27343739062507666},{"name":"A3","midi":57,"time":1114.44399866669,"velocity":0.7559055118110236,"duration":0.27343739062507666},{"name":"G3","midi":55,"time":1114.7217763333567,"velocity":0.7559055118110236,"duration":0.27343739062507666},{"name":"F#4","midi":66,"time":1114.9995540000234,"velocity":0.7559055118110236,"duration":0.8289927239584358},{"name":"D#5","midi":75,"time":1114.9995540000234,"velocity":0.7559055118110236,"duration":1.664495861979276},{"name":"A3","midi":57,"time":1114.9995540000234,"velocity":0.7559055118110236,"duration":0.27343739062507666},{"name":"G3","midi":55,"time":1115.27733166669,"velocity":0.7559055118110236,"duration":0.27343739062507666},{"name":"F#3","midi":54,"time":1115.5551093333568,"velocity":0.7559055118110236,"duration":0.27343739062507666},{"name":"B4","midi":71,"time":1115.8328870000234,"velocity":0.7559055118110236,"duration":0.8289927239584358},{"name":"G3","midi":55,"time":1115.8328870000234,"velocity":0.7559055118110236,"duration":0.27343739062507666},{"name":"E3","midi":52,"time":1116.1106646666901,"velocity":0.7559055118110236,"duration":0.27343739062507666},{"name":"F#3","midi":54,"time":1116.3884423333568,"velocity":0.7559055118110236,"duration":0.27343739062507666},{"name":"E5","midi":76,"time":1116.6662200000235,"velocity":0.7559055118110236,"duration":0.8289927239584358},{"name":"G3","midi":55,"time":1116.6662200000235,"velocity":0.7559055118110236,"duration":0.27343739062507666},{"name":"A3","midi":57,"time":1116.9439976666902,"velocity":0.7559055118110236,"duration":0.27343739062507666},{"name":"B3","midi":59,"time":1117.2217753333568,"velocity":0.7559055118110236,"duration":0.27343739062507666},{"name":"E5","midi":76,"time":1117.4995530000235,"velocity":0.7559055118110236,"duration":0.8289927239584358},{"name":"A#5","midi":82,"time":1117.4995530000235,"velocity":0.7559055118110236,"duration":0.8289927239584358},{"name":"C#4","midi":61,"time":1117.4995530000235,"velocity":0.7559055118110236,"duration":0.27343739062507666},{"name":"D4","midi":62,"time":1117.7773306666902,"velocity":0.7559055118110236,"duration":0.27343739062507666},{"name":"E4","midi":64,"time":1118.0551083333569,"velocity":0.7559055118110236,"duration":0.27343739062507666},{"name":"B5","midi":83,"time":1118.3328860000236,"velocity":0.7559055118110236,"duration":0.8289927239584358},{"name":"F#5","midi":78,"time":1118.3328860000236,"velocity":0.7559055118110236,"duration":0.8289927239584358},{"name":"D4","midi":62,"time":1118.3328860000236,"velocity":0.7559055118110236,"duration":0.27343739062507666},{"name":"C#4","midi":61,"time":1118.6106636666902,"velocity":0.7559055118110236,"duration":0.27343739062507666},{"name":"B3","midi":59,"time":1118.888441333357,"velocity":0.7559055118110236,"duration":0.27343739062507666},{"name":"F#4","midi":66,"time":1119.1662190000236,"velocity":0.7559055118110236,"duration":0.8289927239584358},{"name":"D#5","midi":75,"time":1119.1662190000236,"velocity":0.7559055118110236,"duration":0.8289927239584358},{"name":"C#4","midi":61,"time":1119.1662190000236,"velocity":0.7559055118110236,"duration":0.27343739062507666},{"name":"B3","midi":59,"time":1119.4439966666903,"velocity":0.7559055118110236,"duration":0.27343739062507666},{"name":"A3","midi":57,"time":1119.721774333357,"velocity":0.7559055118110236,"duration":0.27343739062507666},{"name":"G#4","midi":68,"time":1119.9995520000236,"velocity":0.7559055118110236,"duration":0.8289927239584358},{"name":"F5","midi":77,"time":1119.9995520000236,"velocity":0.7559055118110236,"duration":0.8289927239584358},{"name":"B3","midi":59,"time":1119.9995520000236,"velocity":0.7559055118110236,"duration":0.27343739062507666},{"name":"A3","midi":57,"time":1120.2773296666903,"velocity":0.7559055118110236,"duration":0.27343739062507666},{"name":"G#3","midi":56,"time":1120.555107333357,"velocity":0.7559055118110236,"duration":0.27343739062507666},{"name":"C#5","midi":73,"time":1120.8328850000237,"velocity":0.7559055118110236,"duration":0.8289927239584358},{"name":"F#5","midi":78,"time":1120.8328850000237,"velocity":0.7559055118110236,"duration":0.8289927239584358},{"name":"A3","midi":57,"time":1120.8328850000237,"velocity":0.7559055118110236,"duration":0.27343739062507666},{"name":"G#3","midi":56,"time":1121.1106626666904,"velocity":0.7559055118110236,"duration":0.27343739062507666},{"name":"F#3","midi":54,"time":1121.388440333357,"velocity":0.7559055118110236,"duration":0.5512150572917562},{"name":"A5","midi":81,"time":1121.6662180000237,"velocity":0.7559055118110236,"duration":0.8289927239584358},{"name":"F#5","midi":78,"time":1121.6662180000237,"velocity":0.7559055118110236,"duration":0.8289927239584358},{"name":"A3","midi":57,"time":1121.9439956666904,"velocity":0.7559055118110236,"duration":0.27343739062507666},{"name":"C#4","midi":61,"time":1122.221773333357,"velocity":0.7559055118110236,"duration":0.27343739062507666},{"name":"F#5","midi":78,"time":1122.4995510000238,"velocity":0.7559055118110236,"duration":0.8289927239584358},{"name":"A5","midi":81,"time":1122.4995510000238,"velocity":0.7559055118110236,"duration":0.8289927239584358},{"name":"E4","midi":64,"time":1122.4995510000238,"velocity":0.7559055118110236,"duration":0.27343739062507666},{"name":"D#4","midi":63,"time":1122.7773286666904,"velocity":0.7559055118110236,"duration":0.27343739062507666},{"name":"C#4","midi":61,"time":1123.0551063333571,"velocity":0.7559055118110236,"duration":0.27343739062507666},{"name":"A5","midi":81,"time":1123.3328840000238,"velocity":0.7559055118110236,"duration":1.0416662499999347},{"name":"F#5","midi":78,"time":1123.3328840000238,"velocity":0.7559055118110236,"duration":1.0416662499999347},{"name":"D#4","midi":63,"time":1123.3328840000238,"velocity":0.7559055118110236,"duration":0.27343739062507666},{"name":"F#4","midi":66,"time":1123.6106616666905,"velocity":0.7559055118110236,"duration":0.27343739062507666},{"name":"G4","midi":67,"time":1123.8884393333572,"velocity":0.7559055118110236,"duration":0.27343739062507666},{"name":"A4","midi":69,"time":1124.1662170000238,"velocity":0.7559055118110236,"duration":0.2734373906248493},{"name":"B4","midi":71,"time":1124.4439946666903,"velocity":0.7559055118110236,"duration":0.27343739062507666},{"name":"C#5","midi":73,"time":1124.721772333357,"velocity":0.7559055118110236,"duration":0.27343739062507666},{"name":"D#5","midi":75,"time":1124.9995500000236,"velocity":0.7559055118110236,"duration":0.27343739062507666},{"name":"E5","midi":76,"time":1125.2773276666903,"velocity":0.7559055118110236,"duration":0.27343739062507666},{"name":"F#5","midi":78,"time":1125.555105333357,"velocity":0.7559055118110236,"duration":0.27343739062507666},{"name":"G5","midi":79,"time":1125.8328830000237,"velocity":0.7559055118110236,"duration":0.27343739062507666},{"name":"E3","midi":52,"time":1125.8328830000237,"velocity":0.7559055118110236,"duration":1.1067703906251154},{"name":"F#5","midi":78,"time":1126.1106606666904,"velocity":0.7559055118110236,"duration":0.27343739062507666},{"name":"E5","midi":76,"time":1126.388438333357,"velocity":0.7559055118110236,"duration":0.27343739062507666},{"name":"E5","midi":76,"time":1126.6662160000237,"velocity":0.7559055118110236,"duration":0.8289927239584358},{"name":"G5","midi":79,"time":1126.6662160000237,"velocity":0.7559055118110236,"duration":0.8289927239584358},{"name":"G3","midi":55,"time":1126.9439936666904,"velocity":0.7559055118110236,"duration":0.27343739062507666},{"name":"B3","midi":59,"time":1127.221771333357,"velocity":0.7559055118110236,"duration":0.27343739062507666},{"name":"G5","midi":79,"time":1127.4995490000238,"velocity":0.7559055118110236,"duration":0.8289927239584358},{"name":"E5","midi":76,"time":1127.4995490000238,"velocity":0.7559055118110236,"duration":0.8289927239584358},{"name":"D4","midi":62,"time":1127.4995490000238,"velocity":0.7559055118110236,"duration":0.27343739062507666},{"name":"C#4","midi":61,"time":1127.7773266666904,"velocity":0.7559055118110236,"duration":0.27343739062507666},{"name":"B3","midi":59,"time":1128.0551043333571,"velocity":0.7559055118110236,"duration":0.27343739062507666},{"name":"E5","midi":76,"time":1128.3328820000238,"velocity":0.7559055118110236,"duration":1.0416662499999347},{"name":"G5","midi":79,"time":1128.3328820000238,"velocity":0.7559055118110236,"duration":1.0416662499999347},{"name":"C#4","midi":61,"time":1128.3328820000238,"velocity":0.7559055118110236,"duration":0.27343739062507666},{"name":"E4","midi":64,"time":1128.6106596666905,"velocity":0.7559055118110236,"duration":0.27343739062507666},{"name":"F#4","midi":66,"time":1128.8884373333572,"velocity":0.7559055118110236,"duration":0.27343739062507666},{"name":"G4","midi":67,"time":1129.1662150000238,"velocity":0.7559055118110236,"duration":0.2734373906248493},{"name":"A4","midi":69,"time":1129.4439926666903,"velocity":0.7559055118110236,"duration":0.27343739062507666},{"name":"B4","midi":71,"time":1129.721770333357,"velocity":0.7559055118110236,"duration":0.27343739062507666},{"name":"C#5","midi":73,"time":1129.9995480000237,"velocity":0.7559055118110236,"duration":0.27343739062507666},{"name":"D5","midi":74,"time":1130.2773256666903,"velocity":0.7559055118110236,"duration":0.27343739062507666},{"name":"E5","midi":76,"time":1130.555103333357,"velocity":0.7559055118110236,"duration":0.27343739062507666},{"name":"F#5","midi":78,"time":1130.8328810000237,"velocity":0.7559055118110236,"duration":0.27343739062507666},{"name":"D3","midi":50,"time":1130.8328810000237,"velocity":0.7559055118110236,"duration":0.8289927239584358},{"name":"D5","midi":74,"time":1131.1106586666904,"velocity":0.7559055118110236,"duration":0.27343739062507666},{"name":"B4","midi":71,"time":1131.388436333357,"velocity":0.7559055118110236,"duration":0.5512150572917562},{"name":"F#4","midi":66,"time":1131.6662140000237,"velocity":0.7559055118110236,"duration":0.8289927239584358},{"name":"D4","midi":62,"time":1131.6662140000237,"velocity":0.7559055118110236,"duration":0.8289927239584358},{"name":"A#4","midi":70,"time":1131.9439916666904,"velocity":0.7559055118110236,"duration":0.27343739062507666},{"name":"B4","midi":71,"time":1132.221769333357,"velocity":0.7559055118110236,"duration":0.27343739062507666},{"name":"C#5","midi":73,"time":1132.4995470000238,"velocity":0.7559055118110236,"duration":0.27343739062507666},{"name":"A#4","midi":70,"time":1132.4995470000238,"velocity":0.7559055118110236,"duration":0.8246524479166055},{"name":"C#4","midi":61,"time":1132.4995470000238,"velocity":0.7559055118110236,"duration":0.8289927239582084},{"name":"E4","midi":64,"time":1132.4995470000238,"velocity":0.7559055118110236,"duration":0.8289927239582084},{"name":"D5","midi":74,"time":1132.7773246666904,"velocity":0.7559055118110236,"duration":0.27343739062507666},{"name":"E5","midi":76,"time":1133.0551023333571,"velocity":0.7559055118110236,"duration":0.2734373906248493},{"name":"D5","midi":74,"time":1133.3328800000236,"velocity":0.7559055118110236,"duration":0.27343739062507666},{"name":"B2","midi":47,"time":1133.3328800000236,"velocity":0.7559055118110236,"duration":0.8289927239584358},{"name":"B4","midi":71,"time":1133.6106576666903,"velocity":0.7559055118110236,"duration":0.27343739062507666},{"name":"G4","midi":67,"time":1133.888435333357,"velocity":0.7559055118110236,"duration":0.5512150572917562},{"name":"B3","midi":59,"time":1134.1662130000236,"velocity":0.7559055118110236,"duration":0.8289927239584358},{"name":"D4","midi":62,"time":1134.1662130000236,"velocity":0.7559055118110236,"duration":0.8289927239584358},{"name":"F#4","midi":66,"time":1134.4439906666903,"velocity":0.7559055118110236,"duration":0.27343739062507666},{"name":"G4","midi":67,"time":1134.721768333357,"velocity":0.7559055118110236,"duration":0.27343739062507666},{"name":"A4","midi":69,"time":1134.9995460000237,"velocity":0.7559055118110236,"duration":0.27343739062507666},{"name":"F#4","midi":66,"time":1134.9995460000237,"velocity":0.7559055118110236,"duration":0.8289927239584358},{"name":"C4","midi":60,"time":1134.9995460000237,"velocity":0.7559055118110236,"duration":0.8289927239584358},{"name":"A3","midi":57,"time":1134.9995460000237,"velocity":0.7559055118110236,"duration":0.8289927239584358},{"name":"B4","midi":71,"time":1135.2773236666903,"velocity":0.7559055118110236,"duration":0.27343739062507666},{"name":"C5","midi":72,"time":1135.555101333357,"velocity":0.7559055118110236,"duration":0.27343739062507666},{"name":"B4","midi":71,"time":1135.8328790000237,"velocity":0.7559055118110236,"duration":0.27343739062507666},{"name":"G2","midi":43,"time":1135.8328790000237,"velocity":0.7559055118110236,"duration":0.8289927239584358},{"name":"G4","midi":67,"time":1136.1106566666904,"velocity":0.7559055118110236,"duration":0.27343739062507666},{"name":"E5","midi":76,"time":1136.388434333357,"velocity":0.7559055118110236,"duration":0.5512150572917562},{"name":"E4","midi":64,"time":1136.6662120000237,"velocity":0.7559055118110236,"duration":0.8289927239584358},{"name":"B3","midi":59,"time":1136.6662120000237,"velocity":0.7559055118110236,"duration":0.8289927239584358},{"name":"G3","midi":55,"time":1136.6662120000237,"velocity":0.7559055118110236,"duration":0.8289927239584358},{"name":"D#5","midi":75,"time":1136.9439896666904,"velocity":0.7559055118110236,"duration":0.27343739062507666},{"name":"E5","midi":76,"time":1137.221767333357,"velocity":0.7559055118110236,"duration":0.27343739062507666},{"name":"F#5","midi":78,"time":1137.4995450000238,"velocity":0.7559055118110236,"duration":0.27343739062507666},{"name":"D#4","midi":63,"time":1137.4995450000238,"velocity":0.7559055118110236,"duration":0.8289927239584358},{"name":"A3","midi":57,"time":1137.4995450000238,"velocity":0.7559055118110236,"duration":0.8289927239584358},{"name":"F#3","midi":54,"time":1137.4995450000238,"velocity":0.7559055118110236,"duration":0.8289927239584358},{"name":"G5","midi":79,"time":1137.7773226666905,"velocity":0.7559055118110236,"duration":0.27343739062507666},{"name":"A5","midi":81,"time":1138.0551003333571,"velocity":0.7559055118110236,"duration":0.27343739062507666},{"name":"G5","midi":79,"time":1138.3328780000238,"velocity":0.7559055118110236,"duration":2.7343739062500845},{"name":"E3","midi":52,"time":1138.3328780000238,"velocity":0.7559055118110236,"duration":0.8289927239584358},{"name":"E5","midi":76,"time":1138.6106556666905,"velocity":0.7559055118110236,"duration":0.27343739062507666},{"name":"C#5","midi":73,"time":1138.8884333333572,"velocity":0.7559055118110236,"duration":0.5512150572917562},{"name":"E4","midi":64,"time":1139.1662110000238,"velocity":0.7559055118110236,"duration":0.8289927239584358},{"name":"G4","midi":67,"time":1139.1662110000238,"velocity":0.7559055118110236,"duration":0.8289927239584358},{"name":"B4","midi":71,"time":1139.4439886666905,"velocity":0.7559055118110236,"duration":0.27343739062507666},{"name":"C#5","midi":73,"time":1139.7217663333572,"velocity":0.7559055118110236,"duration":0.27343739062507666},{"name":"D5","midi":74,"time":1139.999544000024,"velocity":0.7559055118110236,"duration":0.27343739062507666},{"name":"D4","midi":62,"time":1139.999544000024,"velocity":0.7559055118110236,"duration":0.8289927239584358},{"name":"F#4","midi":66,"time":1139.999544000024,"velocity":0.7559055118110236,"duration":0.8289927239584358},{"name":"C#5","midi":73,"time":1140.2773216666906,"velocity":0.7559055118110236,"duration":0.27343739062507666},{"name":"B4","midi":71,"time":1140.5550993333572,"velocity":0.7559055118110236,"duration":0.27343739062507666},{"name":"A4","midi":69,"time":1140.832877000024,"velocity":0.7559055118110236,"duration":0.27343739062507666},{"name":"C#4","midi":61,"time":1140.832877000024,"velocity":0.7559055118110236,"duration":1.0416662499999347},{"name":"C#5","midi":73,"time":1141.1106546666906,"velocity":0.7559055118110236,"duration":0.27343739062507666},{"name":"E5","midi":76,"time":1141.3884323333573,"velocity":0.7559055118110236,"duration":0.27343739062507666},{"name":"G5","midi":79,"time":1141.666210000024,"velocity":0.7559055118110236,"duration":0.2734373906248493},{"name":"E5","midi":76,"time":1141.9439876666904,"velocity":0.7559055118110236,"duration":0.27343739062507666},{"name":"C#5","midi":73,"time":1142.221765333357,"velocity":0.7559055118110236,"duration":0.27343739062507666},{"name":"A4","midi":69,"time":1142.4995430000238,"velocity":0.7559055118110236,"duration":0.27343739062507666},{"name":"E4","midi":64,"time":1142.7773206666905,"velocity":0.7559055118110236,"duration":0.27343739062507666},{"name":"C#4","midi":61,"time":1143.0550983333571,"velocity":0.7559055118110236,"duration":0.2712672526042752},{"name":"A3","midi":57,"time":1143.3328760000238,"velocity":0.7559055118110236,"duration":1.0416662499999347},{"name":"D4","midi":62,"time":1143.6106536666905,"velocity":0.7559055118110236,"duration":0.27343739062507666},{"name":"F#4","midi":66,"time":1143.8884313333572,"velocity":0.7559055118110236,"duration":0.27343739062507666},{"name":"A4","midi":69,"time":1144.1662090000239,"velocity":0.7559055118110236,"duration":0.2734373906248493},{"name":"D5","midi":74,"time":1144.4439866666903,"velocity":0.7559055118110236,"duration":0.27343739062507666},{"name":"F#5","midi":78,"time":1144.721764333357,"velocity":0.7559055118110236,"duration":0.27343739062507666},{"name":"D5","midi":74,"time":1144.9995420000237,"velocity":0.7559055118110236,"duration":0.27343739062507666},{"name":"A4","midi":69,"time":1145.2773196666903,"velocity":0.7559055118110236,"duration":0.27343739062507666},{"name":"F#4","midi":66,"time":1145.555097333357,"velocity":0.7559055118110236,"duration":0.27343739062507666},{"name":"D4","midi":62,"time":1145.8328750000237,"velocity":0.7559055118110236,"duration":0.27343739062507666},{"name":"B3","midi":59,"time":1146.1106526666904,"velocity":0.7559055118110236,"duration":0.27343739062507666},{"name":"D4","midi":62,"time":1146.388430333357,"velocity":0.7559055118110236,"duration":0.27343739062507666},{"name":"G#4","midi":68,"time":1146.6662080000237,"velocity":0.7559055118110236,"duration":0.27343739062507666},{"name":"B4","midi":71,"time":1146.9439856666904,"velocity":0.7559055118110236,"duration":0.27343739062507666},{"name":"D5","midi":74,"time":1147.221763333357,"velocity":0.7559055118110236,"duration":0.27343739062507666},{"name":"G#5","midi":80,"time":1147.4995410000238,"velocity":0.7559055118110236,"duration":0.27343739062507666},{"name":"B5","midi":83,"time":1147.7773186666905,"velocity":0.7559055118110236,"duration":0.27343739062507666},{"name":"G#5","midi":80,"time":1148.0550963333571,"velocity":0.7559055118110236,"duration":0.27343739062507666},{"name":"A5","midi":81,"time":1148.3328740000238,"velocity":0.7559055118110236,"duration":0.8246524479166055},{"name":"E5","midi":76,"time":1148.6106516666905,"velocity":0.7559055118110236,"duration":0.27343739062507666},{"name":"C#5","midi":73,"time":1148.8884293333572,"velocity":0.7559055118110236,"duration":0.2734373906248493},{"name":"A4","midi":69,"time":1149.1662070000236,"velocity":0.7559055118110236,"duration":0.8246524479166055},{"name":"E4","midi":64,"time":1149.4439846666903,"velocity":0.7559055118110236,"duration":0.27343739062507666},{"name":"C#4","midi":61,"time":1149.721762333357,"velocity":0.7559055118110236,"duration":0.2734373906248493},{"name":"A3","midi":57,"time":1149.9995400000234,"velocity":0.7559055118110236,"duration":0.8246524479166055},{"name":"C#4","midi":61,"time":1150.2773176666901,"velocity":0.7559055118110236,"duration":0.27343739062507666},{"name":"E4","midi":64,"time":1150.5550953333568,"velocity":0.7559055118110236,"duration":0.2734373906248493},{"name":"A4","midi":69,"time":1150.8328730000233,"velocity":0.7559055118110236,"duration":0.27343739062507666},{"name":"C#5","midi":73,"time":1151.11065066669,"velocity":0.7559055118110236,"duration":0.27343739062507666},{"name":"E5","midi":76,"time":1151.3884283333566,"velocity":0.7559055118110236,"duration":0.27343739062507666},{"name":"G5","midi":79,"time":1151.6662060000233,"velocity":0.7559055118110236,"duration":0.8246524479166055},{"name":"A2","midi":45,"time":1151.94398366669,"velocity":0.7559055118110236,"duration":0.27343739062507666},{"name":"C#3","midi":49,"time":1152.2217613333567,"velocity":0.7559055118110236,"duration":0.2734373906248493},{"name":"E3","midi":52,"time":1152.499539000023,"velocity":0.7559055118110236,"duration":0.27343739062507666},{"name":"A3","midi":57,"time":1152.7773166666898,"velocity":0.7559055118110236,"duration":0.27343739062507666},{"name":"C#4","midi":61,"time":1153.0550943333565,"velocity":0.7559055118110236,"duration":0.27343739062507666},{"name":"F#5","midi":78,"time":1153.3328720000231,"velocity":0.7559055118110236,"duration":0.27343739062507666},{"name":"D3","midi":50,"time":1153.3328720000231,"velocity":0.7559055118110236,"duration":0.8246524479166055},{"name":"E5","midi":76,"time":1153.6106496666898,"velocity":0.7559055118110236,"duration":0.27343739062507666},{"name":"F#5","midi":78,"time":1153.8884273333565,"velocity":0.7559055118110236,"duration":0.2734373906248493},{"name":"B4","midi":71,"time":1154.166205000023,"velocity":0.7559055118110236,"duration":1.1067703906251154},{"name":"G#2","midi":44,"time":1154.4439826666896,"velocity":0.7559055118110236,"duration":0.27343739062507666},{"name":"B2","midi":47,"time":1154.7217603333563,"velocity":0.7559055118110236,"duration":0.27343739062507666},{"name":"D3","midi":50,"time":1154.999538000023,"velocity":0.7559055118110236,"duration":0.27343739062507666},{"name":"C#5","midi":73,"time":1155.2773156666897,"velocity":0.7559055118110236,"duration":0.27343739062507666},{"name":"F#3","midi":54,"time":1155.2773156666897,"velocity":0.7559055118110236,"duration":0.27343739062507666},{"name":"D5","midi":74,"time":1155.5550933333564,"velocity":0.7559055118110236,"duration":0.27343739062507666},{"name":"B3","midi":59,"time":1155.5550933333564,"velocity":0.7559055118110236,"duration":0.27343739062507666},{"name":"E5","midi":76,"time":1155.832871000023,"velocity":0.7559055118110236,"duration":0.27343739062507666},{"name":"C#3","midi":49,"time":1155.832871000023,"velocity":0.7559055118110236,"duration":0.8246524479166055},{"name":"D5","midi":74,"time":1156.1106486666897,"velocity":0.7559055118110236,"duration":0.27343739062507666},{"name":"E5","midi":76,"time":1156.3884263333564,"velocity":0.7559055118110236,"duration":0.2734373906248493},{"name":"A4","midi":69,"time":1156.6662040000228,"velocity":0.7559055118110236,"duration":1.1067703906251154},{"name":"F#2","midi":42,"time":1156.9439816666895,"velocity":0.7559055118110236,"duration":0.27343739062507666},{"name":"A2","midi":45,"time":1157.2217593333562,"velocity":0.7559055118110236,"duration":0.27343739062507666},{"name":"C#3","midi":49,"time":1157.4995370000229,"velocity":0.7559055118110236,"duration":0.27343739062507666},{"name":"B4","midi":71,"time":1157.7773146666896,"velocity":0.7559055118110236,"duration":0.27343739062507666},{"name":"E3","midi":52,"time":1157.7773146666896,"velocity":0.7559055118110236,"duration":0.27343739062507666},{"name":"C#5","midi":73,"time":1158.0550923333562,"velocity":0.7559055118110236,"duration":0.27343739062507666},{"name":"A3","midi":57,"time":1158.0550923333562,"velocity":0.7559055118110236,"duration":0.27343739062507666},{"name":"D5","midi":74,"time":1158.332870000023,"velocity":0.7559055118110236,"duration":0.27343739062507666},{"name":"B2","midi":47,"time":1158.332870000023,"velocity":0.7559055118110236,"duration":0.8246524479166055},{"name":"B4","midi":71,"time":1158.6106476666896,"velocity":0.7559055118110236,"duration":0.27343739062507666},{"name":"G#4","midi":68,"time":1158.8884253333563,"velocity":0.7559055118110236,"duration":0.2734373906248493},{"name":"E4","midi":64,"time":1159.1662030000227,"velocity":0.7559055118110236,"duration":0.27343739062507666},{"name":"G#4","midi":68,"time":1159.4439806666894,"velocity":0.7559055118110236,"duration":0.27343739062507666},{"name":"E2","midi":40,"time":1159.4439806666894,"velocity":0.7559055118110236,"duration":0.27343739062507666},{"name":"B4","midi":71,"time":1159.721758333356,"velocity":0.7559055118110236,"duration":0.27343739062507666},{"name":"G#2","midi":44,"time":1159.721758333356,"velocity":0.7559055118110236,"duration":0.27343739062507666},{"name":"D5","midi":74,"time":1159.9995360000228,"velocity":0.7559055118110236,"duration":0.27343739062507666},{"name":"B2","midi":47,"time":1159.9995360000228,"velocity":0.7559055118110236,"duration":0.27343739062507666},{"name":"C#5","midi":73,"time":1160.2773136666895,"velocity":0.7559055118110236,"duration":0.27343739062507666},{"name":"E3","midi":52,"time":1160.2773136666895,"velocity":0.7559055118110236,"duration":0.27343739062507666},{"name":"B4","midi":71,"time":1160.5550913333561,"velocity":0.7559055118110236,"duration":0.27343739062507666},{"name":"G#3","midi":56,"time":1160.5550913333561,"velocity":0.7559055118110236,"duration":0.27343739062507666},{"name":"C#5","midi":73,"time":1160.8328690000228,"velocity":0.7559055118110236,"duration":1.6644958619790486},{"name":"A2","midi":45,"time":1160.8328690000228,"velocity":0.7559055118110236,"duration":1.1067703906251154},{"name":"G#4","midi":68,"time":1161.1106466666895,"velocity":0.7559055118110236,"duration":0.27343739062507666},{"name":"A4","midi":69,"time":1161.3884243333562,"velocity":0.7559055118110236,"duration":0.5533851953125577},{"name":"E4","midi":64,"time":1161.6662020000228,"velocity":0.7559055118110236,"duration":0.8246524479166055},{"name":"C#3","midi":49,"time":1161.9439796666895,"velocity":0.7559055118110236,"duration":0.27343739062507666},{"name":"E3","midi":52,"time":1162.2217573333562,"velocity":0.7559055118110236,"duration":0.2734373906248493},{"name":"A3","midi":57,"time":1162.4995350000227,"velocity":0.7559055118110236,"duration":0.27343739062507666},{"name":"E3","midi":52,"time":1162.7773126666893,"velocity":0.7559055118110236,"duration":0.27343739062507666},{"name":"C#3","midi":49,"time":1163.055090333356,"velocity":0.7559055118110236,"duration":0.27343739062507666},{"name":"C#5","midi":73,"time":1163.3328680000227,"velocity":0.7559055118110236,"duration":1.6644958619790486},{"name":"G#2","midi":44,"time":1163.3328680000227,"velocity":0.7559055118110236,"duration":1.1067703906251154},{"name":"G#4","midi":68,"time":1163.6106456666894,"velocity":0.7559055118110236,"duration":0.27343739062507666},{"name":"A4","midi":69,"time":1163.888423333356,"velocity":0.7559055118110236,"duration":0.542534505208323},{"name":"E4","midi":64,"time":1164.1662010000227,"velocity":0.7559055118110236,"duration":0.8246524479166055},{"name":"C#3","midi":49,"time":1164.4439786666894,"velocity":0.7559055118110236,"duration":0.27343739062507666},{"name":"E3","midi":52,"time":1164.721756333356,"velocity":0.7559055118110236,"duration":0.2734373906248493},{"name":"A3","midi":57,"time":1164.9995340000225,"velocity":0.7559055118110236,"duration":0.27343739062507666},{"name":"E3","midi":52,"time":1165.2773116666892,"velocity":0.7559055118110236,"duration":0.27343739062507666},{"name":"C#3","midi":49,"time":1165.555089333356,"velocity":0.7559055118110236,"duration":0.27343739062507666},{"name":"C5","midi":72,"time":1165.8328670000226,"velocity":0.7559055118110236,"duration":1.6644958619790486},{"name":"F#2","midi":42,"time":1165.8328670000226,"velocity":0.7559055118110236,"duration":1.1067703906251154},{"name":"G#4","midi":68,"time":1166.1106446666893,"velocity":0.7559055118110236,"duration":0.27343739062507666},{"name":"A4","midi":69,"time":1166.388422333356,"velocity":0.7559055118110236,"duration":0.542534505208323},{"name":"D#4","midi":63,"time":1166.6662000000226,"velocity":0.7559055118110236,"duration":0.8246524479166055},{"name":"A2","midi":45,"time":1166.9439776666893,"velocity":0.7559055118110236,"duration":0.27343739062507666},{"name":"B2","midi":47,"time":1167.221755333356,"velocity":0.7559055118110236,"duration":0.2734373906248493},{"name":"C3","midi":48,"time":1167.4995330000224,"velocity":0.7559055118110236,"duration":0.27343739062507666},{"name":"B2","midi":47,"time":1167.7773106666891,"velocity":0.7559055118110236,"duration":0.27343739062507666},{"name":"A2","midi":45,"time":1168.0550883333558,"velocity":0.7559055118110236,"duration":0.27343739062507666},{"name":"C5","midi":72,"time":1168.3328660000225,"velocity":0.7559055118110236,"duration":1.6644958619790486},{"name":"E2","midi":40,"time":1168.3328660000225,"velocity":0.7559055118110236,"duration":1.1067703906251154},{"name":"G#4","midi":68,"time":1168.6106436666892,"velocity":0.7559055118110236,"duration":0.27343739062507666},{"name":"A4","midi":69,"time":1168.8884213333558,"velocity":0.7559055118110236,"duration":0.542534505208323},{"name":"E4","midi":64,"time":1169.1661990000225,"velocity":0.7559055118110236,"duration":0.8246524479166055},{"name":"A2","midi":45,"time":1169.4439766666892,"velocity":0.7559055118110236,"duration":0.27343739062507666},{"name":"B2","midi":47,"time":1169.7217543333559,"velocity":0.7559055118110236,"duration":0.2734373906248493},{"name":"C3","midi":48,"time":1169.9995320000223,"velocity":0.7559055118110236,"duration":0.27343739062507666},{"name":"B2","midi":47,"time":1170.277309666689,"velocity":0.7559055118110236,"duration":0.27343739062507666},{"name":"A2","midi":45,"time":1170.5550873333557,"velocity":0.7559055118110236,"duration":0.27343739062507666},{"name":"D#2","midi":39,"time":1170.8328650000224,"velocity":0.7559055118110236,"duration":0.8289927239584358},{"name":"F#4","midi":66,"time":1171.110642666689,"velocity":0.7559055118110236,"duration":0.27343739062507666},{"name":"G#4","midi":68,"time":1171.3884203333557,"velocity":0.7559055118110236,"duration":0.27343739062507666},{"name":"A4","midi":69,"time":1171.6661980000224,"velocity":0.7559055118110236,"duration":0.27343739062507666},{"name":"D#3","midi":51,"time":1171.6661980000224,"velocity":0.7559055118110236,"duration":0.8289927239584358},{"name":"B4","midi":71,"time":1171.943975666689,"velocity":0.7559055118110236,"duration":0.27343739062507666},{"name":"C5","midi":72,"time":1172.2217533333558,"velocity":0.7559055118110236,"duration":0.5512150572917562},{"name":"D#2","midi":39,"time":1172.4995310000224,"velocity":0.7559055118110236,"duration":0.8289927239584358},{"name":"B4","midi":71,"time":1172.7773086666891,"velocity":0.7559055118110236,"duration":0.27343739062507666},{"name":"A4","midi":69,"time":1173.0550863333558,"velocity":0.7559055118110236,"duration":0.27343739062507666},{"name":"G#4","midi":68,"time":1173.3328640000225,"velocity":0.7559055118110236,"duration":0.27343739062507666},{"name":"D2","midi":38,"time":1173.3328640000225,"velocity":0.7559055118110236,"duration":1.1067703906251154},{"name":"A4","midi":69,"time":1173.6106416666892,"velocity":0.7559055118110236,"duration":0.27343739062507666},{"name":"B4","midi":71,"time":1173.8884193333558,"velocity":0.7559055118110236,"duration":0.27343739062507666},{"name":"E4","midi":64,"time":1174.1661970000225,"velocity":0.7559055118110236,"duration":1.3671869531249286},{"name":"G#4","midi":68,"time":1174.4439746666892,"velocity":0.7559055118110236,"duration":1.085069010416646},{"name":"E2","midi":40,"time":1174.4439746666892,"velocity":0.7559055118110236,"duration":0.27343739062507666},{"name":"B4","midi":71,"time":1174.7217523333559,"velocity":0.7559055118110236,"duration":0.8116316197915694},{"name":"F#2","midi":42,"time":1174.7217523333559,"velocity":0.7559055118110236,"duration":0.27343739062507666},{"name":"E5","midi":76,"time":1174.9995300000226,"velocity":0.7559055118110236,"duration":1.106770390624888},{"name":"G#2","midi":44,"time":1174.9995300000226,"velocity":0.7559055118110236,"duration":0.27343739062507666},{"name":"A2","midi":45,"time":1175.2773076666892,"velocity":0.7559055118110236,"duration":0.2734373906248493},{"name":"B2","midi":47,"time":1175.5550853333557,"velocity":0.7559055118110236,"duration":0.27343739062507666},{"name":"C#2","midi":37,"time":1175.8328630000224,"velocity":0.7559055118110236,"duration":0.8289927239584358},{"name":"D5","midi":74,"time":1176.110640666689,"velocity":0.7559055118110236,"duration":0.27343739062507666},{"name":"C#5","midi":73,"time":1176.3884183333557,"velocity":0.7559055118110236,"duration":0.27343739062507666},{"name":"B4","midi":71,"time":1176.6661960000224,"velocity":0.7559055118110236,"duration":0.27343739062507666},{"name":"D2","midi":38,"time":1176.6661960000224,"velocity":0.7559055118110236,"duration":0.8289927239584358},{"name":"C#5","midi":73,"time":1176.943973666689,"velocity":0.7559055118110236,"duration":0.27343739062507666},{"name":"A4","midi":69,"time":1177.2217513333558,"velocity":0.7559055118110236,"duration":0.27343739062507666},{"name":"E4","midi":64,"time":1177.4995290000224,"velocity":0.7559055118110236,"duration":0.27343739062507666},{"name":"E2","midi":40,"time":1177.4995290000224,"velocity":0.7559055118110236,"duration":0.8289927239584358},{"name":"A4","midi":69,"time":1177.7773066666891,"velocity":0.7559055118110236,"duration":0.27343739062507666},{"name":"G#4","midi":68,"time":1178.0550843333558,"velocity":0.7559055118110236,"duration":0.27343739062507666},{"name":"A2","midi":45,"time":1178.3328620000225,"velocity":0.7559055118110236,"duration":1.664495861979276},{"name":"C#3","midi":49,"time":1178.6106396666892,"velocity":0.7559055118110236,"duration":0.27343739062507666},{"name":"E3","midi":52,"time":1178.8884173333558,"velocity":0.7559055118110236,"duration":0.27343739062507666},{"name":"A3","midi":57,"time":1179.1661950000225,"velocity":0.7559055118110236,"duration":0.27343739062507666},{"name":"C#4","midi":61,"time":1179.4439726666892,"velocity":0.7559055118110236,"duration":0.27343739062507666},{"name":"E4","midi":64,"time":1179.7217503333559,"velocity":0.7559055118110236,"duration":0.27343739062507666},{"name":"A4","midi":69,"time":1179.9995280000226,"velocity":0.7559055118110236,"duration":0.8246524479166055},{"name":"C#4","midi":61,"time":1180.8328610000226,"velocity":0.7559055118110236,"duration":0.27343739062507666},{"name":"D4","midi":62,"time":1181.1106386666893,"velocity":0.7559055118110236,"duration":0.27343739062507666},{"name":"E4","midi":64,"time":1181.388416333356,"velocity":0.7559055118110236,"duration":0.27343739062507666},{"name":"F#3","midi":54,"time":1181.6661940000226,"velocity":0.7559055118110236,"duration":0.27343739062507666},{"name":"E4","midi":64,"time":1181.9439716666893,"velocity":0.7559055118110236,"duration":0.27343739062507666},{"name":"D4","midi":62,"time":1182.221749333356,"velocity":0.7559055118110236,"duration":0.27343739062507666},{"name":"C#4","midi":61,"time":1182.4995270000227,"velocity":0.7559055118110236,"duration":0.27343739062507666},{"name":"D4","midi":62,"time":1182.7773046666894,"velocity":0.7559055118110236,"duration":0.27343739062507666},{"name":"E4","midi":64,"time":1183.055082333356,"velocity":0.7559055118110236,"duration":0.27343739062507666},{"name":"G3","midi":55,"time":1183.3328600000227,"velocity":0.7559055118110236,"duration":0.27343739062507666},{"name":"E4","midi":64,"time":1183.6106376666894,"velocity":0.7559055118110236,"duration":0.27343739062507666},{"name":"D4","midi":62,"time":1183.888415333356,"velocity":0.7559055118110236,"duration":0.27343739062507666},{"name":"C#4","midi":61,"time":1184.1661930000228,"velocity":0.7559055118110236,"duration":0.27343739062507666},{"name":"D4","midi":62,"time":1184.4439706666894,"velocity":0.7559055118110236,"duration":0.27343739062507666},{"name":"E4","midi":64,"time":1184.7217483333561,"velocity":0.7559055118110236,"duration":0.27343739062507666},{"name":"A3","midi":57,"time":1184.9995260000228,"velocity":0.7559055118110236,"duration":0.27343739062507666},{"name":"B3","midi":59,"time":1185.2773036666895,"velocity":0.7559055118110236,"duration":0.27343739062507666},{"name":"C#4","midi":61,"time":1185.5550813333562,"velocity":0.7559055118110236,"duration":0.27343739062507666},{"name":"D4","midi":62,"time":1185.8328590000228,"velocity":0.7559055118110236,"duration":0.2712672526042752},{"name":"F#4","midi":66,"time":1186.1106366666895,"velocity":0.7559055118110236,"duration":0.27343739062507666},{"name":"A4","midi":69,"time":1186.3884143333562,"velocity":0.7559055118110236,"duration":0.27343739062507666},{"name":"G#4","midi":68,"time":1186.6661920000229,"velocity":0.7559055118110236,"duration":0.27343739062507666},{"name":"F#4","midi":66,"time":1186.9439696666896,"velocity":0.7559055118110236,"duration":0.27343739062507666},{"name":"E4","midi":64,"time":1187.2217473333562,"velocity":0.7559055118110236,"duration":0.27343739062507666},{"name":"D4","midi":62,"time":1187.499525000023,"velocity":0.7559055118110236,"duration":0.27343739062507666},{"name":"C#4","midi":61,"time":1187.7773026666896,"velocity":0.7559055118110236,"duration":0.27343739062507666},{"name":"B3","midi":59,"time":1188.0550803333563,"velocity":0.7559055118110236,"duration":0.27343739062507666},{"name":"C#4","midi":61,"time":1188.332858000023,"velocity":0.7559055118110236,"duration":0.27343739062507666},{"name":"E4","midi":64,"time":1188.6106356666896,"velocity":0.7559055118110236,"duration":0.27343739062507666},{"name":"G4","midi":67,"time":1188.8884133333563,"velocity":0.7559055118110236,"duration":0.27343739062507666},{"name":"F#4","midi":66,"time":1189.166191000023,"velocity":0.7559055118110236,"duration":0.27343739062507666},{"name":"E4","midi":64,"time":1189.4439686666897,"velocity":0.7559055118110236,"duration":0.27343739062507666},{"name":"D4","midi":62,"time":1189.7217463333564,"velocity":0.7559055118110236,"duration":0.27343739062507666},{"name":"C#4","midi":61,"time":1189.999524000023,"velocity":0.7559055118110236,"duration":0.27343739062507666},{"name":"B3","midi":59,"time":1190.2773016666897,"velocity":0.7559055118110236,"duration":0.27343739062507666},{"name":"A3","midi":57,"time":1190.5550793333564,"velocity":0.7559055118110236,"duration":0.27343739062507666},{"name":"B3","midi":59,"time":1190.832857000023,"velocity":0.7559055118110236,"duration":0.27343739062507666},{"name":"C#4","midi":61,"time":1191.1106346666897,"velocity":0.7559055118110236,"duration":0.27343739062507666},{"name":"D4","midi":62,"time":1191.3884123333564,"velocity":0.7559055118110236,"duration":0.27343739062507666},{"name":"C#4","midi":61,"time":1191.666190000023,"velocity":0.7559055118110236,"duration":0.27343739062507666},{"name":"B3","midi":59,"time":1191.9439676666898,"velocity":0.7559055118110236,"duration":0.27343739062507666},{"name":"A3","midi":57,"time":1192.2217453333565,"velocity":0.7559055118110236,"duration":0.27343739062507666},{"name":"B3","midi":59,"time":1192.4995230000231,"velocity":0.7559055118110236,"duration":0.27343739062507666},{"name":"A3","midi":57,"time":1192.7773006666898,"velocity":0.7559055118110236,"duration":0.27343739062507666},{"name":"G#3","midi":56,"time":1193.0550783333565,"velocity":0.7559055118110236,"duration":0.27343739062507666},{"name":"A3","midi":57,"time":1193.3328560000232,"velocity":0.7559055118110236,"duration":0.27343739062507666},{"name":"E4","midi":64,"time":1193.6106336666899,"velocity":0.7559055118110236,"duration":0.27343739062507666},{"name":"D4","midi":62,"time":1193.8884113333565,"velocity":0.7559055118110236,"duration":0.27343739062507666},{"name":"C#4","midi":61,"time":1194.1661890000232,"velocity":0.7559055118110236,"duration":0.27343739062507666},{"name":"B3","midi":59,"time":1194.44396666669,"velocity":0.7559055118110236,"duration":0.27343739062507666},{"name":"A3","midi":57,"time":1194.7217443333566,"velocity":0.7559055118110236,"duration":0.27343739062507666},{"name":"G3","midi":55,"time":1194.9995220000233,"velocity":0.7559055118110236,"duration":0.27343739062507666},{"name":"F#3","midi":54,"time":1195.27729966669,"velocity":0.7559055118110236,"duration":0.27343739062507666},{"name":"E3","midi":52,"time":1195.5550773333566,"velocity":0.7559055118110236,"duration":0.27343739062507666},{"name":"F#4","midi":66,"time":1195.8328550000233,"velocity":0.7559055118110236,"duration":0.27343739062507666},{"name":"D3","midi":50,"time":1195.8328550000233,"velocity":0.7559055118110236,"duration":1.1067703906251154},{"name":"G4","midi":67,"time":1196.11063266669,"velocity":0.7559055118110236,"duration":0.27343739062507666},{"name":"A4","midi":69,"time":1196.3884103333567,"velocity":0.7559055118110236,"duration":0.27343739062507666},{"name":"B3","midi":59,"time":1196.6661880000233,"velocity":0.7559055118110236,"duration":0.27343739062507666},{"name":"A4","midi":69,"time":1196.94396566669,"velocity":0.7559055118110236,"duration":0.27343739062507666},{"name":"F#3","midi":54,"time":1196.94396566669,"velocity":0.7559055118110236,"duration":0.27343739062507666},{"name":"G4","midi":67,"time":1197.2217433333567,"velocity":0.7559055118110236,"duration":0.27343739062507666},{"name":"A3","midi":57,"time":1197.2217433333567,"velocity":0.7559055118110236,"duration":0.27343739062507666},{"name":"F#4","midi":66,"time":1197.4995210000234,"velocity":0.7559055118110236,"duration":0.27343739062507666},{"name":"D4","midi":62,"time":1197.4995210000234,"velocity":0.7559055118110236,"duration":0.27343739062507666},{"name":"G4","midi":67,"time":1197.77729866669,"velocity":0.7559055118110236,"duration":0.27343739062507666},{"name":"A3","midi":57,"time":1197.77729866669,"velocity":0.7559055118110236,"duration":0.27343739062507666},{"name":"A4","midi":69,"time":1198.0550763333567,"velocity":0.7559055118110236,"duration":0.27343739062507666},{"name":"F#3","midi":54,"time":1198.0550763333567,"velocity":0.7559055118110236,"duration":0.27343739062507666},{"name":"C4","midi":60,"time":1198.3328540000234,"velocity":0.7559055118110236,"duration":0.27343739062507666},{"name":"D3","midi":50,"time":1198.3328540000234,"velocity":0.7559055118110236,"duration":0.27343739062507666},{"name":"A4","midi":69,"time":1198.61063166669,"velocity":0.7559055118110236,"duration":0.27343739062507666},{"name":"F#3","midi":54,"time":1198.61063166669,"velocity":0.7559055118110236,"duration":0.27343739062507666},{"name":"G4","midi":67,"time":1198.8884093333568,"velocity":0.7559055118110236,"duration":0.27343739062507666},{"name":"A3","midi":57,"time":1198.8884093333568,"velocity":0.7559055118110236,"duration":0.27343739062507666},{"name":"F#4","midi":66,"time":1199.1661870000235,"velocity":0.7559055118110236,"duration":0.27343739062507666},{"name":"C4","midi":60,"time":1199.1661870000235,"velocity":0.7559055118110236,"duration":0.8246524479166055},{"name":"G4","midi":67,"time":1199.4439646666901,"velocity":0.7559055118110236,"duration":0.27343739062507666},{"name":"A4","midi":69,"time":1199.7217423333568,"velocity":0.7559055118110236,"duration":0.2734373906248493},{"name":"D4","midi":62,"time":1199.9995200000233,"velocity":0.7559055118110236,"duration":0.27343739062507666},{"name":"E4","midi":64,"time":1200.27729766669,"velocity":0.7559055118110236,"duration":0.27343739062507666},{"name":"F#4","midi":66,"time":1200.5550753333566,"velocity":0.7559055118110236,"duration":0.27343739062507666},{"name":"G4","midi":67,"time":1200.8328530000233,"velocity":0.7559055118110236,"duration":0.27343739062507666},{"name":"B3","midi":59,"time":1200.8328530000233,"velocity":0.7559055118110236,"duration":0.27343739062507666},{"name":"B4","midi":71,"time":1201.11063066669,"velocity":0.7559055118110236,"duration":0.27343739062507666},{"name":"A3","midi":57,"time":1201.11063066669,"velocity":0.7559055118110236,"duration":0.27343739062507666},{"name":"D5","midi":74,"time":1201.3884083333567,"velocity":0.7559055118110236,"duration":0.27343739062507666},{"name":"B3","midi":59,"time":1201.3884083333567,"velocity":0.7559055118110236,"duration":0.27343739062507666},{"name":"C#5","midi":73,"time":1201.6661860000233,"velocity":0.7559055118110236,"duration":0.27343739062507666},{"name":"E3","midi":52,"time":1201.6661860000233,"velocity":0.7559055118110236,"duration":1.1067703906251154},{"name":"B4","midi":71,"time":1201.94396366669,"velocity":0.7559055118110236,"duration":0.27343739062507666},{"name":"A4","midi":69,"time":1202.2217413333567,"velocity":0.7559055118110236,"duration":0.27343739062507666},{"name":"G4","midi":67,"time":1202.4995190000234,"velocity":0.7559055118110236,"duration":0.27343739062507666},{"name":"F#4","midi":66,"time":1202.77729666669,"velocity":0.7559055118110236,"duration":0.27343739062507666},{"name":"F#3","midi":54,"time":1202.77729666669,"velocity":0.7559055118110236,"duration":0.27343739062507666},{"name":"E4","midi":64,"time":1203.0550743333567,"velocity":0.7559055118110236,"duration":0.27343739062507666},{"name":"G3","midi":55,"time":1203.0550743333567,"velocity":0.7559055118110236,"duration":0.27343739062507666},{"name":"F#4","midi":66,"time":1203.3328520000234,"velocity":0.7559055118110236,"duration":0.27343739062507666},{"name":"A3","midi":57,"time":1203.3328520000234,"velocity":0.7559055118110236,"duration":0.27343739062507666},{"name":"A4","midi":69,"time":1203.61062966669,"velocity":0.7559055118110236,"duration":0.27343739062507666},{"name":"G3","midi":55,"time":1203.61062966669,"velocity":0.7559055118110236,"duration":0.27343739062507666},{"name":"C5","midi":72,"time":1203.8884073333568,"velocity":0.7559055118110236,"duration":0.27343739062507666},{"name":"A3","midi":57,"time":1203.8884073333568,"velocity":0.7559055118110236,"duration":0.27343739062507666},{"name":"B4","midi":71,"time":1204.1661850000235,"velocity":0.7559055118110236,"duration":0.27343739062507666},{"name":"D3","midi":50,"time":1204.1661850000235,"velocity":0.7559055118110236,"duration":1.1067703906251154},{"name":"A4","midi":69,"time":1204.4439626666901,"velocity":0.7559055118110236,"duration":0.27343739062507666},{"name":"G4","midi":67,"time":1204.7217403333568,"velocity":0.7559055118110236,"duration":0.27343739062507666},{"name":"F#4","midi":66,"time":1204.9995180000235,"velocity":0.7559055118110236,"duration":0.27343739062507666},{"name":"E4","midi":64,"time":1205.2772956666902,"velocity":0.7559055118110236,"duration":0.27343739062507666},{"name":"E3","midi":52,"time":1205.2772956666902,"velocity":0.7559055118110236,"duration":0.27343739062507666},{"name":"D4","midi":62,"time":1205.5550733333569,"velocity":0.7559055118110236,"duration":0.27343739062507666},{"name":"F#3","midi":54,"time":1205.5550733333569,"velocity":0.7559055118110236,"duration":0.27343739062507666},{"name":"E4","midi":64,"time":1205.8328510000235,"velocity":0.7559055118110236,"duration":0.27343739062507666},{"name":"G3","midi":55,"time":1205.8328510000235,"velocity":0.7559055118110236,"duration":0.27343739062507666},{"name":"F#4","midi":66,"time":1206.1106286666902,"velocity":0.7559055118110236,"duration":0.27343739062507666},{"name":"E3","midi":52,"time":1206.1106286666902,"velocity":0.7559055118110236,"duration":0.27343739062507666},{"name":"G4","midi":67,"time":1206.388406333357,"velocity":0.7559055118110236,"duration":0.27343739062507666},{"name":"C#3","midi":49,"time":1206.388406333357,"velocity":0.7559055118110236,"duration":0.27343739062507666},{"name":"F#4","midi":66,"time":1206.6661840000236,"velocity":0.7559055118110236,"duration":0.27343739062507666},{"name":"A2","midi":45,"time":1206.6661840000236,"velocity":0.7559055118110236,"duration":0.27343739062507666},{"name":"E4","midi":64,"time":1206.9439616666903,"velocity":0.7559055118110236,"duration":0.27343739062507666},{"name":"C#3","midi":49,"time":1206.9439616666903,"velocity":0.7559055118110236,"duration":0.27343739062507666},{"name":"D4","midi":62,"time":1207.221739333357,"velocity":0.7559055118110236,"duration":0.27343739062507666},{"name":"E3","midi":52,"time":1207.221739333357,"velocity":0.7559055118110236,"duration":0.27343739062507666},{"name":"E4","midi":64,"time":1207.4995170000236,"velocity":0.7559055118110236,"duration":0.27343739062507666},{"name":"G3","midi":55,"time":1207.4995170000236,"velocity":0.7559055118110236,"duration":0.27343739062507666},{"name":"D4","midi":62,"time":1207.7772946666903,"velocity":0.7559055118110236,"duration":0.27343739062507666},{"name":"F#3","midi":54,"time":1207.7772946666903,"velocity":0.7559055118110236,"duration":0.27343739062507666},{"name":"C#4","midi":61,"time":1208.055072333357,"velocity":0.7559055118110236,"duration":0.27343739062507666},{"name":"E3","midi":52,"time":1208.055072333357,"velocity":0.7559055118110236,"duration":0.27343739062507666},{"name":"D4","midi":62,"time":1208.3328500000237,"velocity":0.7559055118110236,"duration":0.27343739062507666},{"name":"F#3","midi":54,"time":1208.3328500000237,"velocity":0.7559055118110236,"duration":0.8289927239584358},{"name":"A4","midi":69,"time":1208.6106276666903,"velocity":0.7559055118110236,"duration":0.27343739062507666},{"name":"G4","midi":67,"time":1208.888405333357,"velocity":0.7559055118110236,"duration":0.27343739062507666},{"name":"F#4","midi":66,"time":1209.1661830000237,"velocity":0.7559055118110236,"duration":0.27343739062507666},{"name":"A3","midi":57,"time":1209.1661830000237,"velocity":0.7559055118110236,"duration":0.8289927239584358},{"name":"E4","midi":64,"time":1209.4439606666904,"velocity":0.7559055118110236,"duration":0.27343739062507666},{"name":"D4","midi":62,"time":1209.721738333357,"velocity":0.7559055118110236,"duration":0.27343739062507666},{"name":"C4","midi":60,"time":1209.9995160000237,"velocity":0.7559055118110236,"duration":0.27343739062507666},{"name":"D3","midi":50,"time":1209.9995160000237,"velocity":0.7559055118110236,"duration":0.8289927239584358},{"name":"B3","midi":59,"time":1210.2772936666904,"velocity":0.7559055118110236,"duration":0.27343739062507666},{"name":"A3","midi":57,"time":1210.555071333357,"velocity":0.7559055118110236,"duration":0.27343739062507666},{"name":"B3","midi":59,"time":1210.8328490000238,"velocity":0.7559055118110236,"duration":0.8289927239584358},{"name":"G3","midi":55,"time":1210.8328490000238,"velocity":0.7559055118110236,"duration":0.27343739062507666},{"name":"D4","midi":62,"time":1211.1106266666905,"velocity":0.7559055118110236,"duration":0.27343739062507666},{"name":"C4","midi":60,"time":1211.3884043333571,"velocity":0.7559055118110236,"duration":0.27343739062507666},{"name":"D#4","midi":63,"time":1211.6661820000238,"velocity":0.7559055118110236,"duration":0.8289927239584358},{"name":"B3","midi":59,"time":1211.6661820000238,"velocity":0.7559055118110236,"duration":0.27343739062507666},{"name":"A3","midi":57,"time":1211.9439596666905,"velocity":0.7559055118110236,"duration":0.27343739062507666},{"name":"G3","midi":55,"time":1212.2217373333572,"velocity":0.7559055118110236,"duration":0.27343739062507666},{"name":"A4","midi":69,"time":1212.4995150000238,"velocity":0.7559055118110236,"duration":1.1067703906251154},{"name":"F#3","midi":54,"time":1212.4995150000238,"velocity":0.7559055118110236,"duration":0.27343739062507666},{"name":"E3","midi":52,"time":1212.7772926666905,"velocity":0.7559055118110236,"duration":0.27343739062507666},{"name":"D#3","midi":51,"time":1213.0550703333572,"velocity":0.7559055118110236,"duration":0.27343739062507666},{"name":"E3","midi":52,"time":1213.332848000024,"velocity":0.7559055118110236,"duration":0.8289927239584358},{"name":"B4","midi":71,"time":1213.6106256666906,"velocity":0.7559055118110236,"duration":0.27343739062507666},{"name":"A4","midi":69,"time":1213.8884033333572,"velocity":0.7559055118110236,"duration":0.27343739062507666},{"name":"G#4","midi":68,"time":1214.166181000024,"velocity":0.7559055118110236,"duration":0.27343739062507666},{"name":"B2","midi":47,"time":1214.166181000024,"velocity":0.7559055118110236,"duration":0.8289927239584358},{"name":"F#4","midi":66,"time":1214.4439586666906,"velocity":0.7559055118110236,"duration":0.27343739062507666},{"name":"E4","midi":64,"time":1214.7217363333573,"velocity":0.7559055118110236,"duration":0.27343739062507666},{"name":"D4","midi":62,"time":1214.999514000024,"velocity":0.7559055118110236,"duration":0.27343739062507666},{"name":"G#3","midi":56,"time":1214.999514000024,"velocity":0.7559055118110236,"duration":0.8289927239584358},{"name":"C#4","midi":61,"time":1215.2772916666906,"velocity":0.7559055118110236,"duration":0.27343739062507666},{"name":"B3","midi":59,"time":1215.5550693333573,"velocity":0.7559055118110236,"duration":0.27343739062507666},{"name":"C#4","midi":61,"time":1215.832847000024,"velocity":0.7559055118110236,"duration":0.8289927239584358},{"name":"A3","midi":57,"time":1215.832847000024,"velocity":0.7559055118110236,"duration":0.27343739062507666},{"name":"E4","midi":64,"time":1216.1106246666907,"velocity":0.7559055118110236,"duration":0.27343739062507666},{"name":"D4","midi":62,"time":1216.3884023333574,"velocity":0.7559055118110236,"duration":0.27343739062507666},{"name":"F4","midi":65,"time":1216.666180000024,"velocity":0.7559055118110236,"duration":0.8289927239584358},{"name":"C#4","midi":61,"time":1216.666180000024,"velocity":0.7559055118110236,"duration":0.27343739062507666},{"name":"B3","midi":59,"time":1216.9439576666907,"velocity":0.7559055118110236,"duration":0.27343739062507666},{"name":"A3","midi":57,"time":1217.2217353333574,"velocity":0.7559055118110236,"duration":0.27343739062507666},{"name":"B4","midi":71,"time":1217.499513000024,"velocity":0.7559055118110236,"duration":1.6644958619790486},{"name":"G#3","midi":56,"time":1217.499513000024,"velocity":0.7559055118110236,"duration":0.27343739062507666},{"name":"F#3","midi":54,"time":1217.7772906666908,"velocity":0.7559055118110236,"duration":0.27343739062507666},{"name":"F3","midi":53,"time":1218.0550683333574,"velocity":0.7559055118110236,"duration":0.27343739062507666},{"name":"C#5","midi":73,"time":1218.3328460000241,"velocity":0.7559055118110236,"duration":0.27343739062507666},{"name":"F#3","midi":54,"time":1218.3328460000241,"velocity":0.7559055118110236,"duration":0.8246524479166055},{"name":"D5","midi":74,"time":1218.6106236666908,"velocity":0.7559055118110236,"duration":0.27343739062507666},{"name":"E5","midi":76,"time":1218.8884013333575,"velocity":0.7559055118110236,"duration":0.2734373906248493},{"name":"A#4","midi":70,"time":1219.166179000024,"velocity":0.7559055118110236,"duration":0.27343739062507666},{"name":"F#4","midi":66,"time":1219.166179000024,"velocity":0.7559055118110236,"duration":1.664495861979276},{"name":"E5","midi":76,"time":1219.4439566666906,"velocity":0.7559055118110236,"duration":0.27343739062507666},{"name":"D5","midi":74,"time":1219.7217343333573,"velocity":0.7559055118110236,"duration":0.27343739062507666},{"name":"C#5","midi":73,"time":1219.999512000024,"velocity":0.7559055118110236,"duration":0.27343739062507666},{"name":"A#3","midi":58,"time":1219.999512000024,"velocity":0.7559055118110236,"duration":0.8289927239584358},{"name":"D5","midi":74,"time":1220.2772896666906,"velocity":0.7559055118110236,"duration":0.27343739062507666},{"name":"E5","midi":76,"time":1220.5550673333573,"velocity":0.7559055118110236,"duration":0.27343739062507666},{"name":"D4","midi":62,"time":1220.832845000024,"velocity":0.7559055118110236,"duration":0.8246524479166055},{"name":"G#4","midi":68,"time":1220.832845000024,"velocity":0.7559055118110236,"duration":0.27343739062507666},{"name":"B3","midi":59,"time":1220.832845000024,"velocity":0.7559055118110236,"duration":0.8289927239582084},{"name":"E5","midi":76,"time":1221.1106226666907,"velocity":0.7559055118110236,"duration":0.27343739062507666},{"name":"D5","midi":74,"time":1221.3884003333574,"velocity":0.7559055118110236,"duration":0.2734373906248493},{"name":"E4","midi":64,"time":1221.6661780000238,"velocity":0.7559055118110236,"duration":0.8246524479166055},{"name":"C#5","midi":73,"time":1221.6661780000238,"velocity":0.7559055118110236,"duration":0.27343739062507666},{"name":"E3","midi":52,"time":1221.6661780000238,"velocity":0.7559055118110236,"duration":0.8289927239582084},{"name":"D5","midi":74,"time":1221.9439556666905,"velocity":0.7559055118110236,"duration":0.27343739062507666},{"name":"E5","midi":76,"time":1222.2217333333572,"velocity":0.7559055118110236,"duration":0.2734373906248493},{"name":"A#4","midi":70,"time":1222.4995110000236,"velocity":0.7559055118110236,"duration":0.27343739062507666},{"name":"C#4","midi":61,"time":1222.4995110000236,"velocity":0.7559055118110236,"duration":0.8289927239584358},{"name":"F#3","midi":54,"time":1222.4995110000236,"velocity":0.7559055118110236,"duration":0.8289927239584358},{"name":"B4","midi":71,"time":1222.7772886666903,"velocity":0.7559055118110236,"duration":0.27343739062507666},{"name":"C#5","midi":73,"time":1223.055066333357,"velocity":0.7559055118110236,"duration":0.27343739062507666},{"name":"D5","midi":74,"time":1223.3328440000237,"velocity":0.7559055118110236,"duration":0.27343739062507666},{"name":"B3","midi":59,"time":1223.3328440000237,"velocity":0.7559055118110236,"duration":1.1089405286459169},{"name":"B2","midi":47,"time":1223.3328440000237,"velocity":0.7559055118110236,"duration":0.8289927239584358},{"name":"F#5","midi":78,"time":1223.6106216666903,"velocity":0.7559055118110236,"duration":0.27343739062507666},{"name":"A5","midi":81,"time":1223.888399333357,"velocity":0.7559055118110236,"duration":0.27343739062507666},{"name":"G#5","midi":80,"time":1224.1661770000237,"velocity":0.7559055118110236,"duration":0.27343739062507666},{"name":"E3","midi":52,"time":1224.1661770000237,"velocity":0.7559055118110236,"duration":0.8246524479166055},{"name":"F#5","midi":78,"time":1224.4439546666904,"velocity":0.7559055118110236,"duration":0.27343739062507666},{"name":"C#4","midi":61,"time":1224.4439546666904,"velocity":0.7559055118110236,"duration":0.27343739062507666},{"name":"E5","midi":76,"time":1224.721732333357,"velocity":0.7559055118110236,"duration":0.2734373906248493},{"name":"D4","midi":62,"time":1224.721732333357,"velocity":0.7559055118110236,"duration":0.2734373906248493},{"name":"D5","midi":74,"time":1224.9995100000235,"velocity":0.7559055118110236,"duration":0.27343739062507666},{"name":"E4","midi":64,"time":1224.9995100000235,"velocity":0.7559055118110236,"duration":0.27343739062507666},{"name":"C#5","midi":73,"time":1225.2772876666902,"velocity":0.7559055118110236,"duration":0.27343739062507666},{"name":"F#4","midi":66,"time":1225.2772876666902,"velocity":0.7559055118110236,"duration":0.27343739062507666},{"name":"B4","midi":71,"time":1225.5550653333569,"velocity":0.7559055118110236,"duration":0.27343739062507666},{"name":"G#4","midi":68,"time":1225.5550653333569,"velocity":0.7559055118110236,"duration":0.27343739062507666},{"name":"C#5","midi":73,"time":1225.8328430000236,"velocity":0.7559055118110236,"duration":0.27343739062507666},{"name":"A2","midi":45,"time":1225.8328430000236,"velocity":0.7559055118110236,"duration":0.8289927239584358},{"name":"A4","midi":69,"time":1225.8328430000236,"velocity":0.7559055118110236,"duration":1.1089405286459169},{"name":"E5","midi":76,"time":1226.1106206666902,"velocity":0.7559055118110236,"duration":0.27343739062507666},{"name":"G5","midi":79,"time":1226.388398333357,"velocity":0.7559055118110236,"duration":0.27343739062507666},{"name":"F#5","midi":78,"time":1226.6661760000236,"velocity":0.7559055118110236,"duration":0.27343739062507666},{"name":"D3","midi":50,"time":1226.6661760000236,"velocity":0.7559055118110236,"duration":0.8246524479166055},{"name":"E5","midi":76,"time":1226.9439536666903,"velocity":0.7559055118110236,"duration":0.27343739062507666},{"name":"B3","midi":59,"time":1226.9439536666903,"velocity":0.7559055118110236,"duration":0.27343739062507666},{"name":"D5","midi":74,"time":1227.221731333357,"velocity":0.7559055118110236,"duration":0.2734373906248493},{"name":"C#4","midi":61,"time":1227.221731333357,"velocity":0.7559055118110236,"duration":0.2734373906248493},{"name":"C5","midi":72,"time":1227.4995090000234,"velocity":0.7559055118110236,"duration":0.27343739062507666},{"name":"D4","midi":62,"time":1227.4995090000234,"velocity":0.7559055118110236,"duration":0.27343739062507666},{"name":"B4","midi":71,"time":1227.77728666669,"velocity":0.7559055118110236,"duration":0.27343739062507666},{"name":"E4","midi":64,"time":1227.77728666669,"velocity":0.7559055118110236,"duration":0.27343739062507666},{"name":"A4","midi":69,"time":1228.0550643333568,"velocity":0.7559055118110236,"duration":0.27343739062507666},{"name":"F#4","midi":66,"time":1228.0550643333568,"velocity":0.7559055118110236,"duration":0.27343739062507666},{"name":"G4","midi":67,"time":1228.3328420000234,"velocity":0.7559055118110236,"duration":0.8246524479166055},{"name":"B4","midi":71,"time":1228.3328420000234,"velocity":0.7559055118110236,"duration":0.27343739062507666},{"name":"G2","midi":43,"time":1228.3328420000234,"velocity":0.7559055118110236,"duration":0.8289927239582084},{"name":"C5","midi":72,"time":1228.6106196666901,"velocity":0.7559055118110236,"duration":0.27343739062507666},{"name":"D5","midi":74,"time":1228.8883973333568,"velocity":0.7559055118110236,"duration":0.2734373906248493},{"name":"C5","midi":72,"time":1229.1661750000233,"velocity":0.7559055118110236,"duration":0.27343739062507666},{"name":"G3","midi":55,"time":1229.1661750000233,"velocity":0.7559055118110236,"duration":2.4956587239585133},{"name":"E3","midi":52,"time":1229.1661750000233,"velocity":0.7559055118110236,"duration":0.8289927239584358},{"name":"B4","midi":71,"time":1229.44395266669,"velocity":0.7559055118110236,"duration":0.27343739062507666},{"name":"A4","midi":69,"time":1229.7217303333566,"velocity":0.7559055118110236,"duration":0.27343739062507666},{"name":"B4","midi":71,"time":1229.9995080000233,"velocity":0.7559055118110236,"duration":0.27343739062507666},{"name":"D3","midi":50,"time":1229.9995080000233,"velocity":0.7559055118110236,"duration":0.8289927239584358},{"name":"A4","midi":69,"time":1230.27728566669,"velocity":0.7559055118110236,"duration":0.27343739062507666},{"name":"G4","midi":67,"time":1230.5550633333567,"velocity":0.7559055118110236,"duration":0.27343739062507666},{"name":"A4","midi":69,"time":1230.8328410000233,"velocity":0.7559055118110236,"duration":0.27343739062507666},{"name":"C#3","midi":49,"time":1230.8328410000233,"velocity":0.7559055118110236,"duration":0.8289927239584358},{"name":"B4","midi":71,"time":1231.11061866669,"velocity":0.7559055118110236,"duration":0.27343739062507666},{"name":"C5","midi":72,"time":1231.3883963333567,"velocity":0.7559055118110236,"duration":0.27343739062507666},{"name":"B4","midi":71,"time":1231.6661740000234,"velocity":0.7559055118110236,"duration":0.27343739062507666},{"name":"D#3","midi":51,"time":1231.6661740000234,"velocity":0.7559055118110236,"duration":0.8289927239584358},{"name":"F#3","midi":54,"time":1231.6661740000234,"velocity":0.7559055118110236,"duration":0.8289927239584358},{"name":"A4","midi":69,"time":1231.94395166669,"velocity":0.7559055118110236,"duration":0.27343739062507666},{"name":"G4","midi":67,"time":1232.2217293333567,"velocity":0.7559055118110236,"duration":0.27343739062507666},{"name":"A4","midi":69,"time":1232.4995070000234,"velocity":0.7559055118110236,"duration":0.27343739062507666},{"name":"B2","midi":47,"time":1232.4995070000234,"velocity":0.7559055118110236,"duration":0.8289927239584358},{"name":"D#3","midi":51,"time":1232.4995070000234,"velocity":0.7559055118110236,"duration":0.8289927239584358},{"name":"G4","midi":67,"time":1232.77728466669,"velocity":0.7559055118110236,"duration":0.27343739062507666},{"name":"F#4","midi":66,"time":1233.0550623333568,"velocity":0.7559055118110236,"duration":0.27343739062507666},{"name":"G4","midi":67,"time":1233.3328400000235,"velocity":0.7559055118110236,"duration":0.27343739062507666},{"name":"E3","midi":52,"time":1233.3328400000235,"velocity":0.7559055118110236,"duration":0.8289927239584358},{"name":"E2","midi":40,"time":1233.3328400000235,"velocity":0.7559055118110236,"duration":0.8289927239584358},{"name":"B5","midi":83,"time":1233.6106176666901,"velocity":0.7559055118110236,"duration":0.27343739062507666},{"name":"A5","midi":81,"time":1233.8883953333568,"velocity":0.7559055118110236,"duration":0.27343739062507666},{"name":"G5","midi":79,"time":1234.1661730000235,"velocity":0.7559055118110236,"duration":0.27343739062507666},{"name":"B3","midi":59,"time":1234.1661730000235,"velocity":0.7559055118110236,"duration":0.8289927239584358},{"name":"F#5","midi":78,"time":1234.4439506666902,"velocity":0.7559055118110236,"duration":0.27343739062507666},{"name":"E5","midi":76,"time":1234.7217283333569,"velocity":0.7559055118110236,"duration":0.27343739062507666},{"name":"D5","midi":74,"time":1234.9995060000235,"velocity":0.7559055118110236,"duration":0.27343739062507666},{"name":"G3","midi":55,"time":1234.9995060000235,"velocity":0.7559055118110236,"duration":1.664495861979276},{"name":"E4","midi":64,"time":1234.9995060000235,"velocity":0.7559055118110236,"duration":0.8289927239584358},{"name":"C#5","midi":73,"time":1235.2772836666902,"velocity":0.7559055118110236,"duration":0.27343739062507666},{"name":"B4","midi":71,"time":1235.555061333357,"velocity":0.7559055118110236,"duration":0.27343739062507666},{"name":"C#5","midi":73,"time":1235.8328390000236,"velocity":0.7559055118110236,"duration":0.27343739062507666},{"name":"A3","midi":57,"time":1235.8328390000236,"velocity":0.7559055118110236,"duration":3.320311171875119},{"name":"D5","midi":74,"time":1236.1106166666902,"velocity":0.7559055118110236,"duration":0.27343739062507666},{"name":"E5","midi":76,"time":1236.388394333357,"velocity":0.7559055118110236,"duration":0.27343739062507666},{"name":"D5","midi":74,"time":1236.6661720000236,"velocity":0.7559055118110236,"duration":0.27343739062507666},{"name":"F#3","midi":54,"time":1236.6661720000236,"velocity":0.7559055118110236,"duration":0.8289927239584358},{"name":"E5","midi":76,"time":1236.9439496666903,"velocity":0.7559055118110236,"duration":0.27343739062507666},{"name":"F#5","midi":78,"time":1237.221727333357,"velocity":0.7559055118110236,"duration":0.27343739062507666},{"name":"E5","midi":76,"time":1237.4995050000236,"velocity":0.7559055118110236,"duration":0.27343739062507666},{"name":"C#3","midi":49,"time":1237.4995050000236,"velocity":0.7559055118110236,"duration":0.8289927239584358},{"name":"F#5","midi":78,"time":1237.7772826666903,"velocity":0.7559055118110236,"duration":0.27343739062507666},{"name":"G5","midi":79,"time":1238.055060333357,"velocity":0.7559055118110236,"duration":0.27343739062507666},{"name":"F#5","midi":78,"time":1238.3328380000237,"velocity":0.7559055118110236,"duration":0.27343739062507666},{"name":"D3","midi":50,"time":1238.3328380000237,"velocity":0.7559055118110236,"duration":0.8289927239584358},{"name":"A5","midi":81,"time":1238.6106156666904,"velocity":0.7559055118110236,"duration":0.27343739062507666},{"name":"G5","midi":79,"time":1238.888393333357,"velocity":0.7559055118110236,"duration":0.27343739062507666},{"name":"F#5","midi":78,"time":1239.1661710000237,"velocity":0.7559055118110236,"duration":0.27343739062507666},{"name":"A3","midi":57,"time":1239.1661710000237,"velocity":0.7559055118110236,"duration":0.8289927239584358},{"name":"E5","midi":76,"time":1239.4439486666904,"velocity":0.7559055118110236,"duration":0.27343739062507666},{"name":"D5","midi":74,"time":1239.721726333357,"velocity":0.7559055118110236,"duration":0.27343739062507666},{"name":"C5","midi":72,"time":1239.9995040000238,"velocity":0.7559055118110236,"duration":0.27343739062507666},{"name":"F#4","midi":66,"time":1239.9995040000238,"velocity":0.7559055118110236,"duration":1.664495861979276},{"name":"D4","midi":62,"time":1239.9995040000238,"velocity":0.7559055118110236,"duration":0.8289927239584358},{"name":"B4","midi":71,"time":1240.2772816666904,"velocity":0.7559055118110236,"duration":0.27343739062507666},{"name":"A#4","midi":70,"time":1240.5550593333571,"velocity":0.7559055118110236,"duration":0.27343739062507666},{"name":"B4","midi":71,"time":1240.8328370000238,"velocity":0.7559055118110236,"duration":0.27343739062507666},{"name":"G3","midi":55,"time":1240.8328370000238,"velocity":0.7559055118110236,"duration":0.8289927239584358},{"name":"C#5","midi":73,"time":1241.1106146666905,"velocity":0.7559055118110236,"duration":0.27343739062507666},{"name":"D5","midi":74,"time":1241.3883923333572,"velocity":0.7559055118110236,"duration":0.27343739062507666},{"name":"C#5","midi":73,"time":1241.6661700000238,"velocity":0.7559055118110236,"duration":0.27343739062507666},{"name":"E4","midi":64,"time":1241.6661700000238,"velocity":0.7559055118110236,"duration":0.8289927239584358},{"name":"D5","midi":74,"time":1241.9439476666905,"velocity":0.7559055118110236,"duration":0.27343739062507666},{"name":"E5","midi":76,"time":1242.2217253333572,"velocity":0.7559055118110236,"duration":0.27343739062507666},{"name":"B4","midi":71,"time":1242.4995030000239,"velocity":0.7559055118110236,"duration":1.664495861979276},{"name":"D5","midi":74,"time":1242.4995030000239,"velocity":0.7559055118110236,"duration":0.27343739062507666},{"name":"G4","midi":67,"time":1242.4995030000239,"velocity":0.7559055118110236,"duration":0.8289927239584358},{"name":"E5","midi":76,"time":1242.7772806666906,"velocity":0.7559055118110236,"duration":0.27343739062507666},{"name":"F#5","midi":78,"time":1243.0550583333572,"velocity":0.7559055118110236,"duration":0.27343739062507666},{"name":"E5","midi":76,"time":1243.332836000024,"velocity":0.7559055118110236,"duration":0.8289927239584358},{"name":"C#3","midi":49,"time":1243.332836000024,"velocity":0.7559055118110236,"duration":0.27343739062507666},{"name":"D3","midi":50,"time":1243.6106136666906,"velocity":0.7559055118110236,"duration":0.27343739062507666},{"name":"E3","midi":52,"time":1243.8883913333573,"velocity":0.7559055118110236,"duration":0.27343739062507666},{"name":"A#4","midi":70,"time":1244.166169000024,"velocity":0.7559055118110236,"duration":0.8289927239584358},{"name":"C#5","midi":73,"time":1244.166169000024,"velocity":0.7559055118110236,"duration":0.8289927239584358},{"name":"F#2","midi":42,"time":1244.166169000024,"velocity":0.7559055118110236,"duration":0.27343739062507666},{"name":"E3","midi":52,"time":1244.4439466666906,"velocity":0.7559055118110236,"duration":0.27343739062507666},{"name":"D3","midi":50,"time":1244.7217243333573,"velocity":0.7559055118110236,"duration":0.27343739062507666},{"name":"G5","midi":79,"time":1244.999502000024,"velocity":0.7559055118110236,"duration":0.8289927239584358},{"name":"E5","midi":76,"time":1244.999502000024,"velocity":0.7559055118110236,"duration":0.8289927239584358},{"name":"C#3","midi":49,"time":1244.999502000024,"velocity":0.7559055118110236,"duration":0.27343739062507666},{"name":"D3","midi":50,"time":1245.2772796666907,"velocity":0.7559055118110236,"duration":0.27343739062507666},{"name":"E3","midi":52,"time":1245.5550573333574,"velocity":0.7559055118110236,"duration":0.27343739062507666},{"name":"F#5","midi":78,"time":1245.832835000024,"velocity":0.7559055118110236,"duration":0.8289927239584358},{"name":"D5","midi":74,"time":1245.832835000024,"velocity":0.7559055118110236,"duration":0.8289927239584358},{"name":"G#2","midi":44,"time":1245.832835000024,"velocity":0.7559055118110236,"duration":0.27343739062507666},{"name":"E3","midi":52,"time":1246.1106126666907,"velocity":0.7559055118110236,"duration":0.27343739062507666},{"name":"D3","midi":50,"time":1246.3883903333574,"velocity":0.7559055118110236,"duration":0.27343739062507666},{"name":"E5","midi":76,"time":1246.666168000024,"velocity":0.7559055118110236,"duration":1.664495861979276},{"name":"C#3","midi":49,"time":1246.666168000024,"velocity":0.7559055118110236,"duration":0.27343739062507666},{"name":"D3","midi":50,"time":1246.9439456666908,"velocity":0.7559055118110236,"duration":0.27343739062507666},{"name":"E3","midi":52,"time":1247.2217233333574,"velocity":0.7559055118110236,"duration":0.27343739062507666},{"name":"C#5","midi":73,"time":1247.499501000024,"velocity":0.7559055118110236,"duration":0.8289927239584358},{"name":"A#2","midi":46,"time":1247.499501000024,"velocity":0.7559055118110236,"duration":0.27343739062507666},{"name":"B2","midi":47,"time":1247.7772786666908,"velocity":0.7559055118110236,"duration":0.27343739062507666},{"name":"C#3","midi":49,"time":1248.0550563333575,"velocity":0.7559055118110236,"duration":0.27343739062507666},{"name":"B4","midi":71,"time":1248.3328340000241,"velocity":0.7559055118110236,"duration":1.664495861979276},{"name":"F#5","midi":78,"time":1248.3328340000241,"velocity":0.7559055118110236,"duration":0.8289927239584358},{"name":"B2","midi":47,"time":1248.3328340000241,"velocity":0.7559055118110236,"duration":0.27343739062507666},{"name":"D3","midi":50,"time":1248.6106116666908,"velocity":0.7559055118110236,"duration":0.27343739062507666},{"name":"F#3","midi":54,"time":1248.8883893333575,"velocity":0.7559055118110236,"duration":0.27343739062507666},{"name":"B5","midi":83,"time":1249.1661670000242,"velocity":0.7559055118110236,"duration":2.4956587239585133},{"name":"G#3","midi":56,"time":1249.1661670000242,"velocity":0.7559055118110236,"duration":0.27343739062507666},{"name":"F#3","midi":54,"time":1249.4439446666909,"velocity":0.7559055118110236,"duration":0.27343739062507666},{"name":"E3","midi":52,"time":1249.7217223333575,"velocity":0.7559055118110236,"duration":0.27343739062507666},{"name":"G#5","midi":80,"time":1249.9995000000242,"velocity":0.7559055118110236,"duration":0.8289927239584358},{"name":"D3","midi":50,"time":1249.9995000000242,"velocity":0.7559055118110236,"duration":0.27343739062507666},{"name":"C#3","midi":49,"time":1250.277277666691,"velocity":0.7559055118110236,"duration":0.27343739062507666},{"name":"B2","midi":47,"time":1250.5550553333576,"velocity":0.7559055118110236,"duration":0.27343739062507666},{"name":"E5","midi":76,"time":1250.8328330000243,"velocity":0.7559055118110236,"duration":0.8289927239584358},{"name":"C#3","midi":49,"time":1250.8328330000243,"velocity":0.7559055118110236,"duration":0.27343739062507666},{"name":"E3","midi":52,"time":1251.110610666691,"velocity":0.7559055118110236,"duration":0.27343739062507666},{"name":"G3","midi":55,"time":1251.3883883333576,"velocity":0.7559055118110236,"duration":0.27343739062507666},{"name":"A5","midi":81,"time":1251.6661660000243,"velocity":0.7559055118110236,"duration":0.8289927239584358},{"name":"F#3","midi":54,"time":1251.6661660000243,"velocity":0.7559055118110236,"duration":0.27343739062507666},{"name":"E3","midi":52,"time":1251.943943666691,"velocity":0.7559055118110236,"duration":0.27343739062507666},{"name":"D3","midi":50,"time":1252.2217213333577,"velocity":0.7559055118110236,"duration":0.27343739062507666},{"name":"G5","midi":79,"time":1252.4994990000243,"velocity":0.7559055118110236,"duration":0.8289927239584358},{"name":"E5","midi":76,"time":1252.4994990000243,"velocity":0.7559055118110236,"duration":1.1089405286459169},{"name":"C#3","midi":49,"time":1252.4994990000243,"velocity":0.7559055118110236,"duration":0.27343739062507666},{"name":"B2","midi":47,"time":1252.777276666691,"velocity":0.7559055118110236,"duration":0.27343739062507666},{"name":"A2","midi":45,"time":1253.0550543333577,"velocity":0.7559055118110236,"duration":0.27343739062507666},{"name":"F#5","midi":78,"time":1253.3328320000244,"velocity":0.7559055118110236,"duration":0.8246524479166055},{"name":"D3","midi":50,"time":1253.3328320000244,"velocity":0.7559055118110236,"duration":0.8289927239582084},{"name":"F#4","midi":66,"time":1253.610609666691,"velocity":0.7559055118110236,"duration":0.27343739062507666},{"name":"G4","midi":67,"time":1253.8883873333577,"velocity":0.7559055118110236,"duration":0.2734373906248493},{"name":"A4","midi":69,"time":1254.1661650000242,"velocity":0.7559055118110236,"duration":0.27343739062507666},{"name":"D4","midi":62,"time":1254.1661650000242,"velocity":0.7559055118110236,"duration":0.8289927239584358},{"name":"B4","midi":71,"time":1254.4439426666909,"velocity":0.7559055118110236,"duration":0.27343739062507666},{"name":"C#5","midi":73,"time":1254.7217203333576,"velocity":0.7559055118110236,"duration":0.27343739062507666},{"name":"D5","midi":74,"time":1254.9994980000242,"velocity":0.7559055118110236,"duration":0.27343739062507666},{"name":"B3","midi":59,"time":1254.9994980000242,"velocity":0.7559055118110236,"duration":0.8289927239584358},{"name":"E5","midi":76,"time":1255.277275666691,"velocity":0.7559055118110236,"duration":0.27343739062507666},{"name":"F#5","midi":78,"time":1255.5550533333576,"velocity":0.7559055118110236,"duration":1.3780376432291632},{"name":"B4","midi":71,"time":1255.8328310000243,"velocity":0.7559055118110236,"duration":0.27343739062507666},{"name":"G#3","midi":56,"time":1255.8328310000243,"velocity":0.7559055118110236,"duration":0.27343739062507666},{"name":"C#5","midi":73,"time":1256.110608666691,"velocity":0.7559055118110236,"duration":0.27343739062507666},{"name":"A3","midi":57,"time":1256.110608666691,"velocity":0.7559055118110236,"duration":0.27343739062507666},{"name":"D5","midi":74,"time":1256.3883863333576,"velocity":0.7559055118110236,"duration":0.27343739062507666},{"name":"B3","midi":59,"time":1256.3883863333576,"velocity":0.7559055118110236,"duration":0.5512150572915289},{"name":"G#4","midi":68,"time":1256.6661640000243,"velocity":0.7559055118110236,"duration":1.9314228385414935},{"name":"F#5","midi":78,"time":1256.9439416666908,"velocity":0.7559055118110236,"duration":0.27343739062507666},{"name":"A3","midi":57,"time":1256.9439416666908,"velocity":0.7559055118110236,"duration":0.27343739062507666},{"name":"E5","midi":76,"time":1257.2217193333574,"velocity":0.7559055118110236,"duration":0.27343739062507666},{"name":"G#3","midi":56,"time":1257.2217193333574,"velocity":0.7559055118110236,"duration":0.27343739062507666},{"name":"D5","midi":74,"time":1257.4994970000241,"velocity":0.7559055118110236,"duration":0.27343739062507666},{"name":"F#3","midi":54,"time":1257.4994970000241,"velocity":0.7559055118110236,"duration":0.27343739062507666},{"name":"C#5","midi":73,"time":1257.7772746666908,"velocity":0.7559055118110236,"duration":0.27343739062507666},{"name":"E3","midi":52,"time":1257.7772746666908,"velocity":0.7559055118110236,"duration":0.27343739062507666},{"name":"B4","midi":71,"time":1258.0550523333575,"velocity":0.7559055118110236,"duration":0.27343739062507666},{"name":"D3","midi":50,"time":1258.0550523333575,"velocity":0.7559055118110236,"duration":0.27343739062507666},{"name":"E5","midi":76,"time":1258.3328300000242,"velocity":0.7559055118110236,"duration":2.207030367187599},{"name":"C#3","midi":49,"time":1258.3328300000242,"velocity":0.7559055118110236,"duration":0.8289927239584358},{"name":"E4","midi":64,"time":1258.6106076666908,"velocity":0.7559055118110236,"duration":0.27343739062507666},{"name":"F#4","midi":66,"time":1258.8883853333575,"velocity":0.7559055118110236,"duration":0.27343739062507666},{"name":"G#4","midi":68,"time":1259.1661630000242,"velocity":0.7559055118110236,"duration":0.27343739062507666},{"name":"C#4","midi":61,"time":1259.1661630000242,"velocity":0.7559055118110236,"duration":0.8289927239584358},{"name":"A4","midi":69,"time":1259.4439406666909,"velocity":0.7559055118110236,"duration":0.27343739062507666},{"name":"B4","midi":71,"time":1259.7217183333576,"velocity":0.7559055118110236,"duration":0.27343739062507666},{"name":"C#5","midi":73,"time":1259.9994960000242,"velocity":0.7559055118110236,"duration":0.27343739062507666},{"name":"A3","midi":57,"time":1259.9994960000242,"velocity":0.7559055118110236,"duration":0.8289927239584358},{"name":"D5","midi":74,"time":1260.277273666691,"velocity":0.7559055118110236,"duration":0.27343739062507666},{"name":"E5","midi":76,"time":1260.5550513333576,"velocity":0.7559055118110236,"duration":1.3715272291667588},{"name":"A4","midi":69,"time":1260.8328290000243,"velocity":0.7559055118110236,"duration":0.27343739062507666},{"name":"F#3","midi":54,"time":1260.8328290000243,"velocity":0.7559055118110236,"duration":0.27343739062507666},{"name":"B4","midi":71,"time":1261.110606666691,"velocity":0.7559055118110236,"duration":0.27343739062507666},{"name":"G#3","midi":56,"time":1261.110606666691,"velocity":0.7559055118110236,"duration":0.27343739062507666},{"name":"C#5","midi":73,"time":1261.3883843333576,"velocity":0.7559055118110236,"duration":0.27343739062507666},{"name":"A3","midi":57,"time":1261.3883843333576,"velocity":0.7559055118110236,"duration":0.5512150572917562},{"name":"F#4","midi":66,"time":1261.6661620000243,"velocity":0.7559055118110236,"duration":1.931422838541721},{"name":"E5","midi":76,"time":1261.943939666691,"velocity":0.7559055118110236,"duration":0.27343739062507666},{"name":"G#3","midi":56,"time":1261.943939666691,"velocity":0.7559055118110236,"duration":0.27343739062507666},{"name":"D5","midi":74,"time":1262.2217173333577,"velocity":0.7559055118110236,"duration":0.27343739062507666},{"name":"F#3","midi":54,"time":1262.2217173333577,"velocity":0.7559055118110236,"duration":0.27343739062507666},{"name":"C#5","midi":73,"time":1262.4994950000244,"velocity":0.7559055118110236,"duration":0.27343739062507666},{"name":"E3","midi":52,"time":1262.4994950000244,"velocity":0.7559055118110236,"duration":0.27343739062507666},{"name":"B4","midi":71,"time":1262.777272666691,"velocity":0.7559055118110236,"duration":0.27343739062507666},{"name":"D3","midi":50,"time":1262.777272666691,"velocity":0.7559055118110236,"duration":0.27343739062507666},{"name":"A4","midi":69,"time":1263.0550503333577,"velocity":0.7559055118110236,"duration":0.27343739062507666},{"name":"C#3","midi":49,"time":1263.0550503333577,"velocity":0.7559055118110236,"duration":0.27343739062507666},{"name":"D5","midi":74,"time":1263.3328280000244,"velocity":0.7559055118110236,"duration":2.207030367187599},{"name":"B2","midi":47,"time":1263.3328280000244,"velocity":0.7559055118110236,"duration":0.8289927239584358},{"name":"D4","midi":62,"time":1263.610605666691,"velocity":0.7559055118110236,"duration":0.27343739062507666},{"name":"E4","midi":64,"time":1263.8883833333578,"velocity":0.7559055118110236,"duration":0.27343739062507666},{"name":"F#4","midi":66,"time":1264.1661610000244,"velocity":0.7559055118110236,"duration":0.27343739062507666},{"name":"B3","midi":59,"time":1264.1661610000244,"velocity":0.7559055118110236,"duration":0.8289927239584358},{"name":"G#4","midi":68,"time":1264.443938666691,"velocity":0.7559055118110236,"duration":0.27343739062507666},{"name":"A4","midi":69,"time":1264.7217163333578,"velocity":0.7559055118110236,"duration":0.27343739062507666},{"name":"B4","midi":71,"time":1264.9994940000245,"velocity":0.7559055118110236,"duration":0.27343739062507666},{"name":"G#3","midi":56,"time":1264.9994940000245,"velocity":0.7559055118110236,"duration":0.8289927239584358},{"name":"C#5","midi":73,"time":1265.2772716666911,"velocity":0.7559055118110236,"duration":0.27343739062507666},{"name":"D5","midi":74,"time":1265.5550493333578,"velocity":0.7559055118110236,"duration":1.3715272291667588},{"name":"G#4","midi":68,"time":1265.8328270000245,"velocity":0.7559055118110236,"duration":0.27343739062507666},{"name":"E3","midi":52,"time":1265.8328270000245,"velocity":0.7559055118110236,"duration":0.27343739062507666},{"name":"A4","midi":69,"time":1266.1106046666912,"velocity":0.7559055118110236,"duration":0.27343739062507666},{"name":"F#3","midi":54,"time":1266.1106046666912,"velocity":0.7559055118110236,"duration":0.27343739062507666},{"name":"B4","midi":71,"time":1266.3883823333579,"velocity":0.7559055118110236,"duration":0.27343739062507666},{"name":"G#3","midi":56,"time":1266.3883823333579,"velocity":0.7559055118110236,"duration":0.5512150572917562},{"name":"E4","midi":64,"time":1266.6661600000245,"velocity":0.7559055118110236,"duration":2.4956587239585133},{"name":"D5","midi":74,"time":1266.9439376666912,"velocity":0.7559055118110236,"duration":0.27343739062507666},{"name":"F#3","midi":54,"time":1266.9439376666912,"velocity":0.7559055118110236,"duration":0.27343739062507666},{"name":"C#5","midi":73,"time":1267.221715333358,"velocity":0.7559055118110236,"duration":0.27343739062507666},{"name":"E3","midi":52,"time":1267.221715333358,"velocity":0.7559055118110236,"duration":0.27343739062507666},{"name":"B4","midi":71,"time":1267.4994930000246,"velocity":0.7559055118110236,"duration":0.27343739062507666},{"name":"D3","midi":50,"time":1267.4994930000246,"velocity":0.7559055118110236,"duration":0.27343739062507666},{"name":"A4","midi":69,"time":1267.7772706666913,"velocity":0.7559055118110236,"duration":0.27343739062507666},{"name":"C#3","midi":49,"time":1267.7772706666913,"velocity":0.7559055118110236,"duration":0.27343739062507666},{"name":"G#4","midi":68,"time":1268.055048333358,"velocity":0.7559055118110236,"duration":0.27343739062507666},{"name":"B2","midi":47,"time":1268.055048333358,"velocity":0.7559055118110236,"duration":0.27343739062507666},{"name":"C#5","midi":73,"time":1268.3328260000246,"velocity":0.7559055118110236,"duration":0.27343739062507666},{"name":"A2","midi":45,"time":1268.3328260000246,"velocity":0.7559055118110236,"duration":0.27343739062507666},{"name":"B4","midi":71,"time":1268.6106036666913,"velocity":0.7559055118110236,"duration":0.27343739062507666},{"name":"B2","midi":47,"time":1268.6106036666913,"velocity":0.7559055118110236,"duration":0.27343739062507666},{"name":"A4","midi":69,"time":1268.888381333358,"velocity":0.7559055118110236,"duration":0.27343739062507666},{"name":"C#3","midi":49,"time":1268.888381333358,"velocity":0.7559055118110236,"duration":0.27343739062507666},{"name":"D5","midi":74,"time":1269.1661590000247,"velocity":0.7559055118110236,"duration":1.664495861979276},{"name":"B2","midi":47,"time":1269.1661590000247,"velocity":0.7559055118110236,"duration":0.27343739062507666},{"name":"C#5","midi":73,"time":1269.4439366666913,"velocity":0.7559055118110236,"duration":0.27343739062507666},{"name":"A3","midi":57,"time":1269.4439366666913,"velocity":0.7559055118110236,"duration":0.27343739062507666},{"name":"B4","midi":71,"time":1269.721714333358,"velocity":0.7559055118110236,"duration":0.27343739062507666},{"name":"G3","midi":55,"time":1269.721714333358,"velocity":0.7559055118110236,"duration":0.27343739062507666},{"name":"A4","midi":69,"time":1269.9994920000247,"velocity":0.7559055118110236,"duration":0.27343739062507666},{"name":"F#3","midi":54,"time":1269.9994920000247,"velocity":0.7559055118110236,"duration":0.27343739062507666},{"name":"B4","midi":71,"time":1270.2772696666914,"velocity":0.7559055118110236,"duration":0.27343739062507666},{"name":"G3","midi":55,"time":1270.2772696666914,"velocity":0.7559055118110236,"duration":0.27343739062507666},{"name":"G4","midi":67,"time":1270.555047333358,"velocity":0.7559055118110236,"duration":1.931422838541721},{"name":"A3","midi":57,"time":1270.555047333358,"velocity":0.7559055118110236,"duration":0.27343739062507666},{"name":"E5","midi":76,"time":1270.8328250000247,"velocity":0.7559055118110236,"duration":0.27343739062507666},{"name":"C#3","midi":49,"time":1270.8328250000247,"velocity":0.7559055118110236,"duration":0.27343739062507666},{"name":"F#5","midi":78,"time":1271.1106026666914,"velocity":0.7559055118110236,"duration":0.27343739062507666},{"name":"A3","midi":57,"time":1271.1106026666914,"velocity":0.7559055118110236,"duration":0.27343739062507666},{"name":"E5","midi":76,"time":1271.388380333358,"velocity":0.7559055118110236,"duration":0.27343739062507666},{"name":"G3","midi":55,"time":1271.388380333358,"velocity":0.7559055118110236,"duration":0.27343739062507666},{"name":"D5","midi":74,"time":1271.6661580000248,"velocity":0.7559055118110236,"duration":0.27343739062507666},{"name":"F#3","midi":54,"time":1271.6661580000248,"velocity":0.7559055118110236,"duration":0.27343739062507666},{"name":"B4","midi":71,"time":1271.9439356666915,"velocity":0.7559055118110236,"duration":0.27343739062507666},{"name":"G3","midi":55,"time":1271.9439356666915,"velocity":0.7559055118110236,"duration":0.27343739062507666},{"name":"C5","midi":72,"time":1272.2217133333581,"velocity":0.7559055118110236,"duration":0.8246524479166055},{"name":"A3","midi":57,"time":1272.2217133333581,"velocity":0.7559055118110236,"duration":0.27343739062507666},{"name":"F#4","midi":66,"time":1272.4994910000248,"velocity":0.7559055118110236,"duration":0.5512150572915289},{"name":"D3","midi":50,"time":1272.4994910000248,"velocity":0.7559055118110236,"duration":0.27343739062507666},{"name":"E3","midi":52,"time":1272.7772686666915,"velocity":0.7559055118110236,"duration":0.2734373906248493},{"name":"A5","midi":81,"time":1273.055046333358,"velocity":0.7559055118110236,"duration":0.27343739062507666},{"name":"F#3","midi":54,"time":1273.055046333358,"velocity":0.7559055118110236,"duration":0.27343739062507666},{"name":"B5","midi":83,"time":1273.3328240000246,"velocity":0.7559055118110236,"duration":0.27343739062507666},{"name":"G3","midi":55,"time":1273.3328240000246,"velocity":0.7559055118110236,"duration":0.27343739062507666},{"name":"A5","midi":81,"time":1273.6106016666913,"velocity":0.7559055118110236,"duration":0.27343739062507666},{"name":"B3","midi":59,"time":1273.6106016666913,"velocity":0.7559055118110236,"duration":0.27343739062507666},{"name":"B5","midi":83,"time":1273.888379333358,"velocity":0.7559055118110236,"duration":0.27343739062507666},{"name":"D4","midi":62,"time":1273.888379333358,"velocity":0.7559055118110236,"duration":0.27343739062507666},{"name":"E5","midi":76,"time":1274.1661570000247,"velocity":0.7559055118110236,"duration":1.1067703906251154},{"name":"C#4","midi":61,"time":1274.1661570000247,"velocity":0.7559055118110236,"duration":0.27343739062507666},{"name":"B3","midi":59,"time":1274.4439346666913,"velocity":0.7559055118110236,"duration":0.27343739062507666},{"name":"A3","midi":57,"time":1274.721712333358,"velocity":0.7559055118110236,"duration":0.27343739062507666},{"name":"G3","midi":55,"time":1274.9994900000247,"velocity":0.7559055118110236,"duration":0.27343739062507666},{"name":"F#5","midi":78,"time":1275.2772676666914,"velocity":0.7559055118110236,"duration":0.27343739062507666},{"name":"F#3","midi":54,"time":1275.2772676666914,"velocity":0.7559055118110236,"duration":0.27343739062507666},{"name":"G5","midi":79,"time":1275.555045333358,"velocity":0.7559055118110236,"duration":0.27343739062507666},{"name":"E3","midi":52,"time":1275.555045333358,"velocity":0.7559055118110236,"duration":0.27343739062507666},{"name":"A5","midi":81,"time":1275.8328230000247,"velocity":0.7559055118110236,"duration":0.27343739062507666},{"name":"F#3","midi":54,"time":1275.8328230000247,"velocity":0.7559055118110236,"duration":0.27343739062507666},{"name":"G5","midi":79,"time":1276.1106006666914,"velocity":0.7559055118110236,"duration":0.27343739062507666},{"name":"A3","midi":57,"time":1276.1106006666914,"velocity":0.7559055118110236,"duration":0.27343739062507666},{"name":"A5","midi":81,"time":1276.388378333358,"velocity":0.7559055118110236,"duration":0.27343739062507666},{"name":"C4","midi":60,"time":1276.388378333358,"velocity":0.7559055118110236,"duration":0.27343739062507666},{"name":"D5","midi":74,"time":1276.6661560000248,"velocity":0.7559055118110236,"duration":1.1067703906251154},{"name":"B3","midi":59,"time":1276.6661560000248,"velocity":0.7559055118110236,"duration":0.27343739062507666},{"name":"A3","midi":57,"time":1276.9439336666915,"velocity":0.7559055118110236,"duration":0.27343739062507666},{"name":"G3","midi":55,"time":1277.2217113333581,"velocity":0.7559055118110236,"duration":0.27343739062507666},{"name":"F#3","midi":54,"time":1277.4994890000248,"velocity":0.7559055118110236,"duration":0.27343739062507666},{"name":"E5","midi":76,"time":1277.7772666666915,"velocity":0.7559055118110236,"duration":0.27343739062507666},{"name":"E3","midi":52,"time":1277.7772666666915,"velocity":0.7559055118110236,"duration":0.27343739062507666},{"name":"F#5","midi":78,"time":1278.0550443333582,"velocity":0.7559055118110236,"duration":0.27343739062507666},{"name":"D3","midi":50,"time":1278.0550443333582,"velocity":0.7559055118110236,"duration":0.27343739062507666},{"name":"G5","midi":79,"time":1278.3328220000249,"velocity":0.7559055118110236,"duration":0.27343739062507666},{"name":"E3","midi":52,"time":1278.3328220000249,"velocity":0.7559055118110236,"duration":0.27343739062507666},{"name":"E5","midi":76,"time":1278.6105996666915,"velocity":0.7559055118110236,"duration":0.27343739062507666},{"name":"F#3","midi":54,"time":1278.6105996666915,"velocity":0.7559055118110236,"duration":0.27343739062507666},{"name":"C#5","midi":73,"time":1278.8883773333582,"velocity":0.7559055118110236,"duration":0.27343739062507666},{"name":"G3","midi":55,"time":1278.8883773333582,"velocity":0.7559055118110236,"duration":0.27343739062507666},{"name":"A4","midi":69,"time":1279.166155000025,"velocity":0.7559055118110236,"duration":0.27343739062507666},{"name":"F#3","midi":54,"time":1279.166155000025,"velocity":0.7559055118110236,"duration":0.27343739062507666},{"name":"C#5","midi":73,"time":1279.4439326666916,"velocity":0.7559055118110236,"duration":0.27343739062507666},{"name":"E3","midi":52,"time":1279.4439326666916,"velocity":0.7559055118110236,"duration":0.27343739062507666},{"name":"E5","midi":76,"time":1279.7217103333583,"velocity":0.7559055118110236,"duration":0.27343739062507666},{"name":"D3","midi":50,"time":1279.7217103333583,"velocity":0.7559055118110236,"duration":0.27343739062507666},{"name":"G5","midi":79,"time":1279.999488000025,"velocity":0.7559055118110236,"duration":0.27343739062507666},{"name":"E3","midi":52,"time":1279.999488000025,"velocity":0.7559055118110236,"duration":0.27343739062507666},{"name":"F#5","midi":78,"time":1280.2772656666916,"velocity":0.7559055118110236,"duration":0.27343739062507666},{"name":"D3","midi":50,"time":1280.2772656666916,"velocity":0.7559055118110236,"duration":0.27343739062507666},{"name":"E5","midi":76,"time":1280.5550433333583,"velocity":0.7559055118110236,"duration":0.27343739062507666},{"name":"C#3","midi":49,"time":1280.5550433333583,"velocity":0.7559055118110236,"duration":0.27343739062507666},{"name":"F#5","midi":78,"time":1280.832821000025,"velocity":0.7559055118110236,"duration":1.6644958619790486},{"name":"D3","midi":50,"time":1280.832821000025,"velocity":0.7559055118110236,"duration":1.1067703906251154},{"name":"C#5","midi":73,"time":1281.1105986666917,"velocity":0.7559055118110236,"duration":0.27343739062507666},{"name":"D5","midi":74,"time":1281.3883763333583,"velocity":0.7559055118110236,"duration":0.5533851953125577},{"name":"A4","midi":69,"time":1281.666154000025,"velocity":0.7559055118110236,"duration":0.8246524479166055},{"name":"F#3","midi":54,"time":1281.9439316666917,"velocity":0.7559055118110236,"duration":0.27343739062507666},{"name":"A3","midi":57,"time":1282.2217093333584,"velocity":0.7559055118110236,"duration":0.2734373906248493},{"name":"D4","midi":62,"time":1282.4994870000248,"velocity":0.7559055118110236,"duration":0.27343739062507666},{"name":"A3","midi":57,"time":1282.7772646666915,"velocity":0.7559055118110236,"duration":0.27343739062507666},{"name":"F#3","midi":54,"time":1283.0550423333582,"velocity":0.7559055118110236,"duration":0.27343739062507666},{"name":"F#5","midi":78,"time":1283.3328200000249,"velocity":0.7559055118110236,"duration":1.6644958619790486},{"name":"C#3","midi":49,"time":1283.3328200000249,"velocity":0.7559055118110236,"duration":1.1067703906251154},{"name":"C#5","midi":73,"time":1283.6105976666915,"velocity":0.7559055118110236,"duration":0.27343739062507666},{"name":"D5","midi":74,"time":1283.8883753333582,"velocity":0.7559055118110236,"duration":0.5533851953125577},{"name":"A4","midi":69,"time":1284.166153000025,"velocity":0.7559055118110236,"duration":0.8246524479166055},{"name":"F#3","midi":54,"time":1284.4439306666916,"velocity":0.7559055118110236,"duration":0.27343739062507666},{"name":"A3","midi":57,"time":1284.7217083333583,"velocity":0.7559055118110236,"duration":0.2734373906248493},{"name":"D4","midi":62,"time":1284.9994860000247,"velocity":0.7559055118110236,"duration":0.27343739062507666},{"name":"A3","midi":57,"time":1285.2772636666914,"velocity":0.7559055118110236,"duration":0.27343739062507666},{"name":"F#3","midi":54,"time":1285.555041333358,"velocity":0.7559055118110236,"duration":0.27343739062507666},{"name":"F5","midi":77,"time":1285.8328190000248,"velocity":0.7559055118110236,"duration":1.6644958619790486},{"name":"B2","midi":47,"time":1285.8328190000248,"velocity":0.7559055118110236,"duration":1.1067703906251154},{"name":"C#5","midi":73,"time":1286.1105966666914,"velocity":0.7559055118110236,"duration":0.27343739062507666},{"name":"D5","midi":74,"time":1286.3883743333581,"velocity":0.7559055118110236,"duration":0.5533851953125577},{"name":"G#4","midi":68,"time":1286.6661520000248,"velocity":0.7559055118110236,"duration":0.8246524479166055},{"name":"D3","midi":50,"time":1286.9439296666915,"velocity":0.7559055118110236,"duration":0.27343739062507666},{"name":"E3","midi":52,"time":1287.2217073333582,"velocity":0.7559055118110236,"duration":0.2734373906248493},{"name":"F3","midi":53,"time":1287.4994850000246,"velocity":0.7559055118110236,"duration":0.27343739062507666},{"name":"E3","midi":52,"time":1287.7772626666913,"velocity":0.7559055118110236,"duration":0.27343739062507666},{"name":"D3","midi":50,"time":1288.055040333358,"velocity":0.7559055118110236,"duration":0.27343739062507666},{"name":"F5","midi":77,"time":1288.3328180000246,"velocity":0.7559055118110236,"duration":1.6644958619790486},{"name":"A2","midi":45,"time":1288.3328180000246,"velocity":0.7559055118110236,"duration":1.1067703906251154},{"name":"C#5","midi":73,"time":1288.6105956666913,"velocity":0.7559055118110236,"duration":0.27343739062507666},{"name":"D5","midi":74,"time":1288.888373333358,"velocity":0.7559055118110236,"duration":0.5533851953125577},{"name":"A4","midi":69,"time":1289.1661510000247,"velocity":0.7559055118110236,"duration":0.8246524479166055},{"name":"D3","midi":50,"time":1289.4439286666914,"velocity":0.7559055118110236,"duration":0.27343739062507666},{"name":"E3","midi":52,"time":1289.721706333358,"velocity":0.7559055118110236,"duration":0.2734373906248493},{"name":"F3","midi":53,"time":1289.9994840000245,"velocity":0.7559055118110236,"duration":0.27343739062507666},{"name":"E3","midi":52,"time":1290.2772616666912,"velocity":0.7559055118110236,"duration":0.27343739062507666},{"name":"D3","midi":50,"time":1290.5550393333579,"velocity":0.7559055118110236,"duration":0.27343739062507666},{"name":"G#2","midi":44,"time":1290.8328170000245,"velocity":0.7559055118110236,"duration":0.8289927239584358},{"name":"B4","midi":71,"time":1291.1105946666912,"velocity":0.7559055118110236,"duration":0.27343739062507666},{"name":"C#5","midi":73,"time":1291.388372333358,"velocity":0.7559055118110236,"duration":0.27343739062507666},{"name":"D5","midi":74,"time":1291.6661500000246,"velocity":0.7559055118110236,"duration":0.27343739062507666},{"name":"G#3","midi":56,"time":1291.6661500000246,"velocity":0.7559055118110236,"duration":0.8289927239584358},{"name":"E5","midi":76,"time":1291.9439276666913,"velocity":0.7559055118110236,"duration":0.27343739062507666},{"name":"F5","midi":77,"time":1292.221705333358,"velocity":0.7559055118110236,"duration":0.5512150572917562},{"name":"G#2","midi":44,"time":1292.4994830000246,"velocity":0.7559055118110236,"duration":0.8289927239584358},{"name":"E5","midi":76,"time":1292.7772606666913,"velocity":0.7559055118110236,"duration":0.27343739062507666},{"name":"D5","midi":74,"time":1293.055038333358,"velocity":0.7559055118110236,"duration":0.27343739062507666},{"name":"C#5","midi":73,"time":1293.3328160000246,"velocity":0.7559055118110236,"duration":0.27343739062507666},{"name":"G2","midi":43,"time":1293.3328160000246,"velocity":0.7559055118110236,"duration":1.1067703906251154},{"name":"D5","midi":74,"time":1293.6105936666913,"velocity":0.7559055118110236,"duration":0.27343739062507666},{"name":"E5","midi":76,"time":1293.888371333358,"velocity":0.7559055118110236,"duration":0.27343739062507666},{"name":"A4","midi":69,"time":1294.1661490000247,"velocity":0.7559055118110236,"duration":1.3671869531249286},{"name":"C#5","midi":73,"time":1294.4439266666914,"velocity":0.7559055118110236,"duration":1.085069010416646},{"name":"A2","midi":45,"time":1294.4439266666914,"velocity":0.7559055118110236,"duration":0.27343739062507666},{"name":"E5","midi":76,"time":1294.721704333358,"velocity":0.7559055118110236,"duration":0.8029510677083636},{"name":"B2","midi":47,"time":1294.721704333358,"velocity":0.7559055118110236,"duration":0.27343739062507666},{"name":"A5","midi":81,"time":1294.9994820000247,"velocity":0.7559055118110236,"duration":1.106770390624888},{"name":"C#3","midi":49,"time":1294.9994820000247,"velocity":0.7559055118110236,"duration":0.27343739062507666},{"name":"D3","midi":50,"time":1295.2772596666914,"velocity":0.7559055118110236,"duration":0.2734373906248493},{"name":"E3","midi":52,"time":1295.5550373333579,"velocity":0.7559055118110236,"duration":0.27343739062507666},{"name":"F#2","midi":42,"time":1295.8328150000245,"velocity":0.7559055118110236,"duration":0.8289927239584358},{"name":"G5","midi":79,"time":1296.1105926666912,"velocity":0.7559055118110236,"duration":0.27343739062507666},{"name":"F#5","midi":78,"time":1296.388370333358,"velocity":0.7559055118110236,"duration":0.27343739062507666},{"name":"E5","midi":76,"time":1296.6661480000246,"velocity":0.7559055118110236,"duration":0.27343739062507666},{"name":"G2","midi":43,"time":1296.6661480000246,"velocity":0.7559055118110236,"duration":0.8289927239584358},{"name":"F#5","midi":78,"time":1296.9439256666913,"velocity":0.7559055118110236,"duration":0.27343739062507666},{"name":"D5","midi":74,"time":1297.221703333358,"velocity":0.7559055118110236,"duration":0.27343739062507666},{"name":"A4","midi":69,"time":1297.4994810000246,"velocity":0.7559055118110236,"duration":0.27343739062507666},{"name":"A2","midi":45,"time":1297.4994810000246,"velocity":0.7559055118110236,"duration":0.8289927239584358},{"name":"D5","midi":74,"time":1297.7772586666913,"velocity":0.7559055118110236,"duration":0.27343739062507666},{"name":"C#5","midi":73,"time":1298.055036333358,"velocity":0.7559055118110236,"duration":0.27343739062507666},{"name":"D5","midi":74,"time":1298.3328140000247,"velocity":0.7559055118110236,"duration":0.8246524479166055},{"name":"D2","midi":38,"time":1298.3328140000247,"velocity":0.7559055118110236,"duration":1.106770390624888},{"name":"A4","midi":69,"time":1298.6105916666913,"velocity":0.7559055118110236,"duration":0.27343739062507666},{"name":"F#4","midi":66,"time":1298.888369333358,"velocity":0.7559055118110236,"duration":0.2734373906248493},{"name":"D4","midi":62,"time":1299.1661470000245,"velocity":0.7559055118110236,"duration":0.542534505208323},{"name":"A3","midi":57,"time":1299.4439246666911,"velocity":0.7559055118110236,"duration":0.27343739062507666},{"name":"F#3","midi":54,"time":1299.7217023333578,"velocity":0.7559055118110236,"duration":0.27343739062507666},{"name":"D3","midi":50,"time":1299.9994800000245,"velocity":0.7559055118110236,"duration":3.3203111718748914}],"controlChanges":{"7":[{"number":7,"time":0,"value":0.7874015748031497}]},"id":1,"name":"Harpsichord","instrumentNumber":7,"instrument":"clavi","instrumentFamily":"piano","channelNumber":0,"isPercussion":false}]}