{"header":{"PPQ":384,"timeSignature":[4,4],"bpm":120,"name":"--------"},"startTime":0,"duration":107.11067708333367,"tracks":[{"startTime":0,"duration":0,"length":0,"notes":[],"controlChanges":{},"id":0,"name":"--------"},{"startTime":0.0625,"duration":107.11067708333367,"length":559,"notes":[{"name":"D3","midi":50,"time":0.0625,"velocity":0.7637795275590551,"duration":0.5742187500000001},{"name":"D5","midi":74,"time":0.3515625,"velocity":0.7637795275590551,"duration":0.27604166666666674},{"name":"E3","midi":52,"time":0.6393229166666667,"velocity":0.7637795275590551,"duration":0.5729166666666667},{"name":"C#5","midi":73,"time":0.6393229166666667,"velocity":0.7637795275590551,"duration":0.27604166666666674},{"name":"D5","midi":74,"time":0.9270833333333335,"velocity":0.7637795275590551,"duration":0.27604166666666674},{"name":"F3","midi":53,"time":1.2148437500000002,"velocity":0.7637795275590551,"duration":0.57421875},{"name":"A4","midi":69,"time":1.2148437500000002,"velocity":0.7637795275590551,"duration":0.57421875},{"name":"D3","midi":50,"time":1.791666666666667,"velocity":0.7637795275590551,"duration":0.57421875},{"name":"F5","midi":77,"time":1.791666666666667,"velocity":0.7637795275590551,"duration":0.8619791666666665},{"name":"A3","midi":57,"time":2.3684895833333335,"velocity":0.7637795275590551,"duration":0.5729166666666665},{"name":"E5","midi":76,"time":2.65625,"velocity":0.7637795275590551,"duration":0.2760416666666665},{"name":"B3","midi":59,"time":2.9440104166666665,"velocity":0.7637795275590551,"duration":0.5729166666666665},{"name":"D5","midi":74,"time":2.9440104166666665,"velocity":0.7637795275590551,"duration":0.2760416666666665},{"name":"E5","midi":76,"time":3.231770833333333,"velocity":0.7637795275590551,"duration":0.2760416666666665},{"name":"C#4","midi":61,"time":3.5195312499999996,"velocity":0.7637795275590551,"duration":0.5742187500000004},{"name":"A4","midi":69,"time":3.5195312499999996,"velocity":0.7637795275590551,"duration":0.5742187500000004},{"name":"A3","midi":57,"time":4.096354166666667,"velocity":0.7637795275590551,"duration":0.57421875},{"name":"G5","midi":79,"time":4.096354166666667,"velocity":0.7637795275590551,"duration":0.861979166666667},{"name":"D4","midi":62,"time":4.673177083333334,"velocity":0.7637795275590551,"duration":1.4361979166666679},{"name":"A4","midi":69,"time":4.960937500000001,"velocity":0.7637795275590551,"duration":0.27604166666666696},{"name":"F5","midi":77,"time":4.960937500000001,"velocity":0.7637795275590551,"duration":0.27604166666666696},{"name":"G#4","midi":68,"time":5.248697916666668,"velocity":0.7637795275590551,"duration":0.27604166666666696},{"name":"E5","midi":76,"time":5.248697916666668,"velocity":0.7637795275590551,"duration":0.27604166666666696},{"name":"A4","midi":69,"time":5.536458333333335,"velocity":0.7637795275590551,"duration":0.27604166666666696},{"name":"D5","midi":74,"time":5.536458333333335,"velocity":0.7637795275590551,"duration":0.27604166666666696},{"name":"E4","midi":64,"time":5.824218750000002,"velocity":0.7637795275590551,"duration":0.572916666666667},{"name":"A5","midi":81,"time":5.824218750000002,"velocity":0.7637795275590551,"duration":1.4361979166666679},{"name":"C4","midi":60,"time":6.111979166666669,"velocity":0.7637795275590551,"duration":0.27604166666666696},{"name":"B3","midi":59,"time":6.399739583333336,"velocity":0.7637795275590551,"duration":0.27604166666666696},{"name":"C5","midi":72,"time":6.399739583333336,"velocity":0.7637795275590551,"duration":0.8606770833333339},{"name":"A3","midi":57,"time":6.687500000000003,"velocity":0.7637795275590551,"duration":0.27604166666666696},{"name":"E4","midi":64,"time":6.97526041666667,"velocity":0.7637795275590551,"duration":1.1484375000000018},{"name":"B4","midi":71,"time":7.263020833333337,"velocity":0.7637795275590551,"duration":0.27604166666666696},{"name":"G#5","midi":80,"time":7.263020833333337,"velocity":0.7637795275590551,"duration":0.27604166666666696},{"name":"A4","midi":69,"time":7.5507812500000036,"velocity":0.7637795275590551,"duration":0.27604166666666696},{"name":"F#5","midi":78,"time":7.5507812500000036,"velocity":0.7637795275590551,"duration":0.27604166666666696},{"name":"B4","midi":71,"time":7.8385416666666705,"velocity":0.7637795275590551,"duration":0.27604166666666696},{"name":"G#5","midi":80,"time":7.8385416666666705,"velocity":0.7637795275590551,"duration":0.27604166666666696},{"name":"E3","midi":52,"time":8.126302083333337,"velocity":0.7637795275590551,"duration":1.1406250000000036},{"name":"E4","midi":64,"time":8.126302083333337,"velocity":0.7637795275590551,"duration":0.5742187500000018},{"name":"A5","midi":81,"time":8.126302083333337,"velocity":0.7637795275590551,"duration":0.18880208333333393},{"name":"G#5","midi":80,"time":8.317708333333337,"velocity":0.7637795275590551,"duration":0.10546875},{"name":"A5","midi":81,"time":8.414062500000004,"velocity":0.7637795275590551,"duration":0.10546875000000178},{"name":"G#5","midi":80,"time":8.510416666666671,"velocity":0.7637795275590551,"duration":0.10546875000000178},{"name":"A5","midi":81,"time":8.60677083333334,"velocity":0.7637795275590551,"duration":0.10546875},{"name":"D5","midi":74,"time":8.703125000000005,"velocity":0.7637795275590551,"duration":0.8606770833333357},{"name":"G#5","midi":80,"time":8.703125000000005,"velocity":0.7637795275590551,"duration":0.27604166666666785},{"name":"A5","midi":81,"time":8.990885416666673,"velocity":0.7637795275590551,"duration":0.2708333333333339},{"name":"A2","midi":45,"time":9.278645833333341,"velocity":0.7637795275590551,"duration":2.2994791666666625},{"name":"A5","midi":81,"time":9.278645833333341,"velocity":0.7637795275590551,"duration":1.4361979166666643},{"name":"C5","midi":72,"time":9.566406250000007,"velocity":0.7637795275590551,"duration":0.2760416666666661},{"name":"B4","midi":71,"time":9.854166666666673,"velocity":0.7637795275590551,"duration":0.2760416666666661},{"name":"C5","midi":72,"time":10.14192708333334,"velocity":0.7637795275590551,"duration":0.2760416666666661},{"name":"F5","midi":77,"time":10.429687500000005,"velocity":0.7637795275590551,"duration":1.4361979166666643},{"name":"D5","midi":74,"time":10.717447916666671,"velocity":0.7637795275590551,"duration":0.2760416666666661},{"name":"C#5","midi":73,"time":11.005208333333337,"velocity":0.7637795275590551,"duration":0.2760416666666661},{"name":"D5","midi":74,"time":11.292968750000004,"velocity":0.7637795275590551,"duration":0.2760416666666661},{"name":"G5","midi":79,"time":11.58072916666667,"velocity":0.7637795275590551,"duration":2.3007812499999964},{"name":"B4","midi":71,"time":11.868489583333336,"velocity":0.7637795275590551,"duration":0.2760416666666661},{"name":"A4","midi":69,"time":12.156250000000002,"velocity":0.7637795275590551,"duration":0.2760416666666661},{"name":"B4","midi":71,"time":12.444010416666668,"velocity":0.7637795275590551,"duration":0.2760416666666661},{"name":"E5","midi":76,"time":12.731770833333334,"velocity":0.7637795275590551,"duration":1.1406249999999982},{"name":"C#5","midi":73,"time":13.020833333333334,"velocity":0.7637795275590551,"duration":0.2760416666666661},{"name":"B4","midi":71,"time":13.30859375,"velocity":0.7637795275590551,"duration":0.2760416666666661},{"name":"C#5","midi":73,"time":13.596354166666666,"velocity":0.7637795275590551,"duration":0.2760416666666661},{"name":"F5","midi":77,"time":13.884114583333332,"velocity":0.7637795275590551,"duration":1.7252604166666643},{"name":"D3","midi":50,"time":14.173177083333332,"velocity":0.7637795275590551,"duration":0.2760416666666661},{"name":"C#3","midi":49,"time":14.460937499999998,"velocity":0.7637795275590551,"duration":0.2760416666666661},{"name":"A4","midi":69,"time":14.460937499999998,"velocity":0.7637795275590551,"duration":0.5729166666666661},{"name":"D3","midi":50,"time":14.748697916666664,"velocity":0.7637795275590551,"duration":0.2760416666666661},{"name":"A2","midi":45,"time":15.03645833333333,"velocity":0.7637795275590551,"duration":0.5729166666666661},{"name":"D5","midi":74,"time":15.03645833333333,"velocity":0.7637795275590551,"duration":0.2760416666666661},{"name":"E5","midi":76,"time":15.324218749999996,"velocity":0.7637795275590551,"duration":0.2760416666666661},{"name":"F3","midi":53,"time":15.611979166666663,"velocity":0.7637795275590551,"duration":0.8606770833333339},{"name":"D5","midi":74,"time":15.611979166666663,"velocity":0.7637795275590551,"duration":0.2760416666666661},{"name":"A5","midi":81,"time":15.611979166666663,"velocity":0.7637795275590551,"duration":0.5729166666666661},{"name":"C5","midi":72,"time":15.899739583333329,"velocity":0.7637795275590551,"duration":0.27604166666666785},{"name":"B4","midi":71,"time":16.187499999999996,"velocity":0.7637795275590551,"duration":0.8606770833333357},{"name":"G5","midi":79,"time":16.187499999999996,"velocity":0.7637795275590551,"duration":1.4361979166666714},{"name":"E3","midi":52,"time":16.475260416666664,"velocity":0.7637795275590551,"duration":0.27604166666666785},{"name":"D3","midi":50,"time":16.763020833333332,"velocity":0.7637795275590551,"duration":0.27604166666666785},{"name":"E3","midi":52,"time":17.05078125,"velocity":0.7637795275590551,"duration":0.27604166666666785},{"name":"C#5","midi":73,"time":17.05078125,"velocity":0.7637795275590551,"duration":0.27604166666666785},{"name":"A2","midi":45,"time":17.338541666666668,"velocity":0.7637795275590551,"duration":0.5742187500000036},{"name":"D5","midi":74,"time":17.338541666666668,"velocity":0.7637795275590551,"duration":0.18880208333333215},{"name":"C#5","midi":73,"time":17.529947916666668,"velocity":0.7637795275590551,"duration":0.09375},{"name":"D5","midi":74,"time":17.626302083333336,"velocity":0.7637795275590551,"duration":0.09375},{"name":"F5","midi":77,"time":17.626302083333336,"velocity":0.7637795275590551,"duration":0.27734375000000355},{"name":"C#5","midi":73,"time":17.722656250000004,"velocity":0.7637795275590551,"duration":0.09375},{"name":"D5","midi":74,"time":17.81901041666667,"velocity":0.7637795275590551,"duration":0.09375},{"name":"G3","midi":55,"time":17.91536458333334,"velocity":0.7637795275590551,"duration":0.8632812500000036},{"name":"C#5","midi":73,"time":17.91536458333334,"velocity":0.7637795275590551,"duration":0.5703125000000036},{"name":"E5","midi":76,"time":17.91536458333334,"velocity":0.7637795275590551,"duration":0.27604166666666785},{"name":"F5","midi":77,"time":18.203125000000007,"velocity":0.7637795275590551,"duration":0.27604166666666785},{"name":"D5","midi":74,"time":18.49218750000001,"velocity":0.7637795275590551,"duration":0.27083333333333215},{"name":"F3","midi":53,"time":18.78125000000001,"velocity":0.7637795275590551,"duration":0.27604166666666785},{"name":"D5","midi":74,"time":18.78125000000001,"velocity":0.7637795275590551,"duration":0.27604166666666785},{"name":"E3","midi":52,"time":19.06901041666668,"velocity":0.7637795275590551,"duration":0.27604166666666785},{"name":"C#5","midi":73,"time":19.06901041666668,"velocity":0.7637795275590551,"duration":0.27604166666666785},{"name":"D3","midi":50,"time":19.356770833333346,"velocity":0.7637795275590551,"duration":0.27604166666666785},{"name":"D5","midi":74,"time":19.356770833333346,"velocity":0.7637795275590551,"duration":0.27604166666666785},{"name":"A#3","midi":58,"time":19.644531250000014,"velocity":0.7637795275590551,"duration":1.4375000000000036},{"name":"G4","midi":67,"time":19.644531250000014,"velocity":0.7637795275590551,"duration":1.4375000000000036},{"name":"A#5","midi":82,"time":19.933593750000014,"velocity":0.7637795275590551,"duration":0.27604166666666785},{"name":"A5","midi":81,"time":20.221354166666682,"velocity":0.7637795275590551,"duration":0.27604166666666785},{"name":"A#5","midi":82,"time":20.50911458333335,"velocity":0.7637795275590551,"duration":0.27604166666666785},{"name":"E5","midi":76,"time":20.796875000000018,"velocity":0.7637795275590551,"duration":1.4361979166666714},{"name":"E3","midi":52,"time":21.084635416666686,"velocity":0.7637795275590551,"duration":0.27604166666666785},{"name":"C5","midi":72,"time":21.084635416666686,"velocity":0.7637795275590551,"duration":0.27604166666666785},{"name":"D3","midi":50,"time":21.372395833333353,"velocity":0.7637795275590551,"duration":0.27604166666666785},{"name":"A#4","midi":70,"time":21.372395833333353,"velocity":0.7637795275590551,"duration":0.27604166666666785},{"name":"C3","midi":48,"time":21.66015625000002,"velocity":0.7637795275590551,"duration":0.27604166666666785},{"name":"C5","midi":72,"time":21.66015625000002,"velocity":0.7637795275590551,"duration":0.27604166666666785},{"name":"A3","midi":57,"time":21.94791666666669,"velocity":0.7637795275590551,"duration":1.4361979166666714},{"name":"F4","midi":65,"time":21.94791666666669,"velocity":0.7637795275590551,"duration":1.4361979166666714},{"name":"A5","midi":81,"time":22.235677083333357,"velocity":0.7637795275590551,"duration":0.27604166666666785},{"name":"G5","midi":79,"time":22.523437500000025,"velocity":0.7637795275590551,"duration":0.27604166666666785},{"name":"A5","midi":81,"time":22.811197916666693,"velocity":0.7637795275590551,"duration":0.27604166666666785},{"name":"D5","midi":74,"time":23.09895833333336,"velocity":0.7637795275590551,"duration":1.4361979166666714},{"name":"D3","midi":50,"time":23.38671875000003,"velocity":0.7637795275590551,"duration":0.27604166666666785},{"name":"A#4","midi":70,"time":23.38671875000003,"velocity":0.7637795275590551,"duration":0.27604166666666785},{"name":"C3","midi":48,"time":23.674479166666696,"velocity":0.7637795275590551,"duration":0.27604166666666785},{"name":"A4","midi":69,"time":23.674479166666696,"velocity":0.7637795275590551,"duration":0.27604166666666785},{"name":"D3","midi":50,"time":23.962239583333364,"velocity":0.7637795275590551,"duration":0.27604166666666785},{"name":"C5","midi":72,"time":23.962239583333364,"velocity":0.7637795275590551,"duration":0.27604166666666785},{"name":"G2","midi":43,"time":24.250000000000032,"velocity":0.7637795275590551,"duration":0.5729166666666679},{"name":"A#4","midi":70,"time":24.250000000000032,"velocity":0.7637795275590551,"duration":1.4361979166666714},{"name":"D5","midi":74,"time":24.5377604166667,"velocity":0.7637795275590551,"duration":0.27604166666666785},{"name":"F3","midi":53,"time":24.825520833333368,"velocity":0.7637795275590551,"duration":0.8606770833333357},{"name":"E5","midi":76,"time":24.825520833333368,"velocity":0.7637795275590551,"duration":0.27604166666666785},{"name":"F5","midi":77,"time":25.113281250000036,"velocity":0.7637795275590551,"duration":0.27604166666666785},{"name":"G5","midi":79,"time":25.401041666666703,"velocity":0.7637795275590551,"duration":1.4361979166666714},{"name":"E3","midi":52,"time":25.68880208333337,"velocity":0.7637795275590551,"duration":0.27604166666666785},{"name":"C5","midi":72,"time":25.68880208333337,"velocity":0.7637795275590551,"duration":0.27604166666666785},{"name":"D3","midi":50,"time":25.97656250000004,"velocity":0.7637795275590551,"duration":0.27604166666666785},{"name":"A#4","midi":70,"time":25.97656250000004,"velocity":0.7637795275590551,"duration":0.27604166666666785},{"name":"E3","midi":52,"time":26.264322916666707,"velocity":0.7637795275590551,"duration":0.27604166666666785},{"name":"A4","midi":69,"time":26.264322916666707,"velocity":0.7637795275590551,"duration":0.27604166666666785},{"name":"C3","midi":48,"time":26.552083333333375,"velocity":0.7637795275590551,"duration":0.5729166666666679},{"name":"A#4","midi":70,"time":26.552083333333375,"velocity":0.7637795275590551,"duration":0.27604166666666785},{"name":"A4","midi":69,"time":26.839843750000043,"velocity":0.7637795275590551,"duration":0.27604166666666785},{"name":"F5","midi":77,"time":26.839843750000043,"velocity":0.7637795275590551,"duration":0.27604166666666785},{"name":"A#3","midi":58,"time":27.12760416666671,"velocity":0.7637795275590551,"duration":0.8606770833333357},{"name":"G4","midi":67,"time":27.12760416666671,"velocity":0.7637795275590551,"duration":0.27604166666666785},{"name":"E5","midi":76,"time":27.12760416666671,"velocity":0.7637795275590551,"duration":0.27604166666666785},{"name":"F4","midi":65,"time":27.41536458333338,"velocity":0.7637795275590551,"duration":0.27604166666666785},{"name":"D5","midi":74,"time":27.41536458333338,"velocity":0.7637795275590551,"duration":0.27604166666666785},{"name":"E4","midi":64,"time":27.703125000000046,"velocity":0.7637795275590551,"duration":0.5729166666666679},{"name":"C5","midi":72,"time":27.703125000000046,"velocity":0.7637795275590551,"duration":2.587239583333343},{"name":"A3","midi":57,"time":27.990885416666714,"velocity":0.7637795275590551,"duration":0.27604166666666785},{"name":"G3","midi":55,"time":28.278645833333382,"velocity":0.7637795275590551,"duration":0.27604166666666785},{"name":"A#4","midi":70,"time":28.278645833333382,"velocity":0.7637795275590551,"duration":0.8606770833333357},{"name":"A3","midi":57,"time":28.56640625000005,"velocity":0.7637795275590551,"duration":0.27604166666666785},{"name":"F3","midi":53,"time":28.854166666666718,"velocity":0.7637795275590551,"duration":0.5729166666666679},{"name":"A4","midi":69,"time":29.141927083333385,"velocity":0.7637795275590551,"duration":0.27604166666666785},{"name":"D#4","midi":63,"time":29.429687500000053,"velocity":0.7637795275590551,"duration":0.5729166666666679},{"name":"G4","midi":67,"time":29.429687500000053,"velocity":0.7637795275590551,"duration":0.27604166666666785},{"name":"A4","midi":69,"time":29.71744791666672,"velocity":0.7637795275590551,"duration":0.27604166666666785},{"name":"D4","midi":62,"time":30.00520833333339,"velocity":0.7637795275590551,"duration":0.5729166666666679},{"name":"F4","midi":65,"time":30.00520833333339,"velocity":0.7637795275590551,"duration":3.450520833333332},{"name":"A#4","midi":70,"time":30.292968750000057,"velocity":0.7637795275590551,"duration":0.27604166666666785},{"name":"C4","midi":60,"time":30.580729166666725,"velocity":0.7637795275590551,"duration":0.5729166666666679},{"name":"A4","midi":69,"time":30.580729166666725,"velocity":0.7637795275590551,"duration":0.27604166666666785},{"name":"A#4","midi":70,"time":30.868489583333393,"velocity":0.7637795275590551,"duration":0.27604166666666785},{"name":"A#3","midi":58,"time":31.15625000000006,"velocity":0.7637795275590551,"duration":0.5729166666666679},{"name":"G4","midi":67,"time":31.15625000000006,"velocity":0.7637795275590551,"duration":0.27604166666666785},{"name":"D5","midi":74,"time":31.44401041666673,"velocity":0.7637795275590551,"duration":0.27604166666666785},{"name":"A3","midi":57,"time":31.731770833333396,"velocity":0.7637795275590551,"duration":0.5729166666666679},{"name":"C5","midi":72,"time":31.731770833333396,"velocity":0.7637795275590551,"duration":0.27604166666666785},{"name":"D5","midi":74,"time":32.019531250000064,"velocity":0.7637795275590551,"duration":0.2760416666666643},{"name":"A#3","midi":58,"time":32.30729166666673,"velocity":0.7637795275590551,"duration":0.5729166666666643},{"name":"G4","midi":67,"time":32.30729166666673,"velocity":0.7637795275590551,"duration":0.2760416666666643},{"name":"A#4","midi":70,"time":32.59505208333339,"velocity":0.7637795275590551,"duration":0.2760416666666643},{"name":"G3","midi":55,"time":32.88281250000006,"velocity":0.7637795275590551,"duration":0.5729166666666643},{"name":"A4","midi":69,"time":32.88281250000006,"velocity":0.7637795275590551,"duration":0.2760416666666643},{"name":"A#4","midi":70,"time":33.17057291666672,"velocity":0.7637795275590551,"duration":0.5729166666666643},{"name":"C4","midi":60,"time":33.458333333333385,"velocity":0.7637795275590551,"duration":0.5729166666666643},{"name":"E4","midi":64,"time":33.458333333333385,"velocity":0.7637795275590551,"duration":1.1393229166666572},{"name":"C5","midi":72,"time":33.74609375000005,"velocity":0.7637795275590551,"duration":0.2760416666666643},{"name":"C3","midi":48,"time":34.033854166666714,"velocity":0.7637795275590551,"duration":0.5729166666666643},{"name":"A#4","midi":70,"time":34.033854166666714,"velocity":0.7637795275590551,"duration":0.2760416666666643},{"name":"C5","midi":72,"time":34.32161458333338,"velocity":0.7637795275590551,"duration":0.2760416666666643},{"name":"F2","midi":41,"time":34.60937500000004,"velocity":0.7637795275590551,"duration":0.57421875},{"name":"A4","midi":69,"time":34.60937500000004,"velocity":0.7637795275590551,"duration":1.726562499999993},{"name":"F4","midi":65,"time":34.89843750000004,"velocity":0.7637795275590551,"duration":0.2760416666666643},{"name":"G2","midi":43,"time":35.18619791666671,"velocity":0.7637795275590551,"duration":0.5729166666666643},{"name":"E4","midi":64,"time":35.18619791666671,"velocity":0.7637795275590551,"duration":0.2760416666666643},{"name":"F4","midi":65,"time":35.47395833333337,"velocity":0.7637795275590551,"duration":0.2760416666666643},{"name":"A2","midi":45,"time":35.761718750000036,"velocity":0.7637795275590551,"duration":0.57421875},{"name":"C4","midi":60,"time":35.761718750000036,"velocity":0.7637795275590551,"duration":0.57421875},{"name":"F2","midi":41,"time":36.3385416666667,"velocity":0.7637795275590551,"duration":0.57421875},{"name":"A4","midi":69,"time":36.3385416666667,"velocity":0.7637795275590551,"duration":0.8619791666666643},{"name":"F5","midi":77,"time":36.3385416666667,"velocity":0.7637795275590551,"duration":0.8619791666666643},{"name":"C3","midi":48,"time":36.915364583333364,"velocity":0.7637795275590551,"duration":0.5729166666666643},{"name":"G4","midi":67,"time":37.20312500000003,"velocity":0.7637795275590551,"duration":0.2760416666666643},{"name":"E5","midi":76,"time":37.20312500000003,"velocity":0.7637795275590551,"duration":1.437499999999993},{"name":"D3","midi":50,"time":37.49088541666669,"velocity":0.7637795275590551,"duration":0.5729166666666643},{"name":"F4","midi":65,"time":37.49088541666669,"velocity":0.7637795275590551,"duration":0.2760416666666643},{"name":"G4","midi":67,"time":37.77864583333336,"velocity":0.7637795275590551,"duration":0.2760416666666643},{"name":"E3","midi":52,"time":38.06640625000002,"velocity":0.7637795275590551,"duration":0.57421875},{"name":"C4","midi":60,"time":38.06640625000002,"velocity":0.7637795275590551,"duration":0.57421875},{"name":"C3","midi":48,"time":38.643229166666686,"velocity":0.7637795275590551,"duration":0.57421875},{"name":"A#4","midi":70,"time":38.643229166666686,"velocity":0.7637795275590551,"duration":0.8619791666666643},{"name":"G5","midi":79,"time":38.643229166666686,"velocity":0.7637795275590551,"duration":0.8619791666666643},{"name":"F3","midi":53,"time":39.22005208333335,"velocity":0.7637795275590551,"duration":0.5729166666666643},{"name":"A4","midi":69,"time":39.507812500000014,"velocity":0.7637795275590551,"duration":1.437499999999993},{"name":"F5","midi":77,"time":39.507812500000014,"velocity":0.7637795275590551,"duration":0.2760416666666643},{"name":"G3","midi":55,"time":39.79557291666668,"velocity":0.7637795275590551,"duration":0.5729166666666643},{"name":"E5","midi":76,"time":39.79557291666668,"velocity":0.7637795275590551,"duration":0.2760416666666643},{"name":"F5","midi":77,"time":40.08333333333334,"velocity":0.7637795275590551,"duration":0.2760416666666643},{"name":"A3","midi":57,"time":40.37109375000001,"velocity":0.7637795275590551,"duration":0.57421875},{"name":"C5","midi":72,"time":40.37109375000001,"velocity":0.7637795275590551,"duration":0.57421875},{"name":"F3","midi":53,"time":40.94791666666667,"velocity":0.7637795275590551,"duration":0.57421875},{"name":"F5","midi":77,"time":40.94791666666667,"velocity":0.7637795275590551,"duration":0.8619791666666643},{"name":"A5","midi":81,"time":40.94791666666667,"velocity":0.7637795275590551,"duration":0.8619791666666643},{"name":"C4","midi":60,"time":41.524739583333336,"velocity":0.7637795275590551,"duration":0.5729166666666643},{"name":"E5","midi":76,"time":41.8125,"velocity":0.7637795275590551,"duration":1.437499999999993},{"name":"G5","midi":79,"time":41.8125,"velocity":0.7637795275590551,"duration":0.2760416666666643},{"name":"D4","midi":62,"time":42.100260416666664,"velocity":0.7637795275590551,"duration":0.5729166666666643},{"name":"F5","midi":77,"time":42.100260416666664,"velocity":0.7637795275590551,"duration":0.2760416666666643},{"name":"G5","midi":79,"time":42.38802083333333,"velocity":0.7637795275590551,"duration":0.2760416666666643},{"name":"E4","midi":64,"time":42.67578124999999,"velocity":0.7637795275590551,"duration":0.57421875},{"name":"C5","midi":72,"time":42.67578124999999,"velocity":0.7637795275590551,"duration":0.57421875},{"name":"C4","midi":60,"time":43.25260416666666,"velocity":0.7637795275590551,"duration":0.57421875},{"name":"G5","midi":79,"time":43.25260416666666,"velocity":0.7637795275590551,"duration":0.8619791666666643},{"name":"A#5","midi":82,"time":43.25260416666666,"velocity":0.7637795275590551,"duration":0.8619791666666643},{"name":"F4","midi":65,"time":43.82942708333332,"velocity":0.7637795275590551,"duration":0.2760416666666643},{"name":"C4","midi":60,"time":44.117187499999986,"velocity":0.7637795275590551,"duration":0.2760416666666643},{"name":"F5","midi":77,"time":44.117187499999986,"velocity":0.7637795275590551,"duration":1.148437499999993},{"name":"A5","midi":81,"time":44.117187499999986,"velocity":0.7637795275590551,"duration":2.29947916666665},{"name":"A#3","midi":58,"time":44.40494791666665,"velocity":0.7637795275590551,"duration":0.2760416666666643},{"name":"C4","midi":60,"time":44.692708333333314,"velocity":0.7637795275590551,"duration":0.2760416666666643},{"name":"F3","midi":53,"time":44.98046874999998,"velocity":0.7637795275590551,"duration":0.5729166666666643},{"name":"E5","midi":76,"time":45.26822916666664,"velocity":0.7637795275590551,"duration":0.2760416666666643},{"name":"F4","midi":65,"time":45.55598958333331,"velocity":0.7637795275590551,"duration":0.8606770833333286},{"name":"D5","midi":74,"time":45.55598958333331,"velocity":0.7637795275590551,"duration":0.2760416666666643},{"name":"C5","midi":72,"time":45.84374999999997,"velocity":0.7637795275590551,"duration":0.2760416666666643},{"name":"A#4","midi":70,"time":46.131510416666636,"velocity":0.7637795275590551,"duration":1.4361979166666572},{"name":"A#3","midi":58,"time":46.4192708333333,"velocity":0.7637795275590551,"duration":0.2760416666666643},{"name":"D5","midi":74,"time":46.4192708333333,"velocity":0.7637795275590551,"duration":0.2760416666666643},{"name":"A3","midi":57,"time":46.707031249999964,"velocity":0.7637795275590551,"duration":0.2760416666666643},{"name":"C#5","midi":73,"time":46.707031249999964,"velocity":0.7637795275590551,"duration":0.2760416666666643},{"name":"A#3","midi":58,"time":46.99479166666663,"velocity":0.7637795275590551,"duration":0.2760416666666643},{"name":"D5","midi":74,"time":46.99479166666663,"velocity":0.7637795275590551,"duration":0.2760416666666643},{"name":"E3","midi":52,"time":47.28255208333329,"velocity":0.7637795275590551,"duration":0.5729166666666643},{"name":"G5","midi":79,"time":47.28255208333329,"velocity":0.7637795275590551,"duration":1.4361979166666572},{"name":"A4","midi":69,"time":47.57031249999996,"velocity":0.7637795275590551,"duration":0.2760416666666643},{"name":"E4","midi":64,"time":47.85807291666662,"velocity":0.7637795275590551,"duration":0.8606770833333286},{"name":"A#4","midi":70,"time":47.85807291666662,"velocity":0.7637795275590551,"duration":0.2760416666666643},{"name":"G4","midi":67,"time":48.145833333333286,"velocity":0.7637795275590551,"duration":0.2760416666666643},{"name":"C#5","midi":73,"time":48.43359374999995,"velocity":0.7637795275590551,"duration":1.148437499999993},{"name":"A3","midi":57,"time":48.721354166666615,"velocity":0.7637795275590551,"duration":0.2760416666666643},{"name":"F5","midi":77,"time":48.721354166666615,"velocity":0.7637795275590551,"duration":0.2760416666666643},{"name":"G3","midi":55,"time":49.00911458333328,"velocity":0.7637795275590551,"duration":0.2760416666666643},{"name":"E5","midi":76,"time":49.00911458333328,"velocity":0.7637795275590551,"duration":0.2760416666666643},{"name":"A3","midi":57,"time":49.29687499999994,"velocity":0.7637795275590551,"duration":0.2760416666666643},{"name":"G5","midi":79,"time":49.29687499999994,"velocity":0.7637795275590551,"duration":0.2760416666666643},{"name":"D3","midi":50,"time":49.58463541666661,"velocity":0.7637795275590551,"duration":0.5729166666666643},{"name":"D5","midi":74,"time":49.58463541666661,"velocity":0.7637795275590551,"duration":0.2760416666666643},{"name":"F5","midi":77,"time":49.58463541666661,"velocity":0.7637795275590551,"duration":1.4361979166666572},{"name":"A#4","midi":70,"time":49.87239583333327,"velocity":0.7637795275590551,"duration":0.2760416666666643},{"name":"D4","midi":62,"time":50.160156249999936,"velocity":0.7637795275590551,"duration":1.148437499999993},{"name":"A4","midi":69,"time":50.160156249999936,"velocity":0.7637795275590551,"duration":0.2760416666666643},{"name":"A#4","midi":70,"time":50.4479166666666,"velocity":0.7637795275590551,"duration":0.2760416666666643},{"name":"G#4","midi":68,"time":50.735677083333265,"velocity":0.7637795275590551,"duration":0.5729166666666643},{"name":"E5","midi":76,"time":51.02343749999993,"velocity":0.7637795275590551,"duration":0.2760416666666643},{"name":"C4","midi":60,"time":51.31119791666659,"velocity":0.7637795275590551,"duration":0.8606770833333286},{"name":"A4","midi":69,"time":51.31119791666659,"velocity":0.7637795275590551,"duration":0.5729166666666643},{"name":"D5","midi":74,"time":51.31119791666659,"velocity":0.7637795275590551,"duration":0.2760416666666643},{"name":"E5","midi":76,"time":51.59895833333326,"velocity":0.7637795275590551,"duration":0.2760416666666643},{"name":"F#4","midi":66,"time":51.88671874999992,"velocity":0.7637795275590551,"duration":0.5729166666666643},{"name":"A4","midi":69,"time":51.88671874999992,"velocity":0.7637795275590551,"duration":0.5729166666666643},{"name":"B3","midi":59,"time":52.174479166666586,"velocity":0.7637795275590551,"duration":0.2760416666666643},{"name":"A3","midi":57,"time":52.46223958333325,"velocity":0.7637795275590551,"duration":0.2760416666666643},{"name":"F4","midi":65,"time":52.46223958333325,"velocity":0.7637795275590551,"duration":0.5729166666666643},{"name":"D5","midi":74,"time":52.46223958333325,"velocity":0.7637795275590551,"duration":0.8606770833333286},{"name":"B3","midi":59,"time":52.749999999999915,"velocity":0.7637795275590551,"duration":0.2760416666666643},{"name":"G#3","midi":56,"time":53.03776041666658,"velocity":0.7637795275590551,"duration":0.5729166666666643},{"name":"E4","midi":64,"time":53.03776041666658,"velocity":0.7637795275590551,"duration":1.148437499999993},{"name":"C5","midi":72,"time":53.32552083333324,"velocity":0.7637795275590551,"duration":0.2760416666666643},{"name":"A3","midi":57,"time":53.61328124999991,"velocity":0.7637795275590551,"duration":0.8606770833333286},{"name":"B4","midi":71,"time":53.61328124999991,"velocity":0.7637795275590551,"duration":0.2760416666666643},{"name":"C5","midi":72,"time":53.90104166666657,"velocity":0.7637795275590551,"duration":0.2760416666666643},{"name":"D#4","midi":63,"time":54.188802083333236,"velocity":0.7637795275590551,"duration":0.5729166666666643},{"name":"F#4","midi":66,"time":54.188802083333236,"velocity":0.7637795275590551,"duration":0.5729166666666643},{"name":"G#3","midi":56,"time":54.4765624999999,"velocity":0.7637795275590551,"duration":0.2760416666666643},{"name":"F#3","midi":54,"time":54.764322916666565,"velocity":0.7637795275590551,"duration":0.2760416666666643},{"name":"D4","midi":62,"time":54.764322916666565,"velocity":0.7637795275590551,"duration":0.5729166666666643},{"name":"B4","midi":71,"time":54.764322916666565,"velocity":0.7637795275590551,"duration":0.8606770833333286},{"name":"G#3","midi":56,"time":55.05208333333323,"velocity":0.7637795275590551,"duration":0.2760416666666643},{"name":"A3","midi":57,"time":55.33984374999989,"velocity":0.7637795275590551,"duration":0.5729166666666643},{"name":"C#4","midi":61,"time":55.33984374999989,"velocity":0.7637795275590551,"duration":0.5729166666666643},{"name":"A4","midi":69,"time":55.62760416666656,"velocity":0.7637795275590551,"duration":0.2760416666666643},{"name":"D#3","midi":51,"time":55.91536458333322,"velocity":0.7637795275590551,"duration":0.5729166666666643},{"name":"C4","midi":60,"time":55.91536458333322,"velocity":0.7637795275590551,"duration":0.5729166666666643},{"name":"G#4","midi":68,"time":55.91536458333322,"velocity":0.7637795275590551,"duration":0.2760416666666643},{"name":"A4","midi":69,"time":56.203124999999886,"velocity":0.7637795275590551,"duration":0.5729166666666643},{"name":"E3","midi":52,"time":56.49088541666655,"velocity":0.7637795275590551,"duration":0.5729166666666643},{"name":"B3","midi":59,"time":56.49088541666655,"velocity":0.7637795275590551,"duration":1.1497395833333286},{"name":"G#4","midi":68,"time":56.778645833333215,"velocity":0.7637795275590551,"duration":0.2760416666666643},{"name":"E2","midi":40,"time":57.06640624999988,"velocity":0.7637795275590551,"duration":0.57421875},{"name":"F#4","midi":66,"time":57.06640624999988,"velocity":0.7637795275590551,"duration":0.2760416666666643},{"name":"G#4","midi":68,"time":57.35416666666654,"velocity":0.7637795275590551,"duration":0.2708333333333357},{"name":"A2","midi":45,"time":57.64322916666654,"velocity":0.7637795275590551,"duration":0.57421875},{"name":"A3","midi":57,"time":57.64322916666654,"velocity":0.7637795275590551,"duration":1.140624999999993},{"name":"A4","midi":69,"time":57.93229166666654,"velocity":0.7637795275590551,"duration":0.2760416666666643},{"name":"B2","midi":47,"time":58.22005208333321,"velocity":0.7637795275590551,"duration":0.5729166666666643},{"name":"G#4","midi":68,"time":58.22005208333321,"velocity":0.7637795275590551,"duration":0.2760416666666643},{"name":"A4","midi":69,"time":58.50781249999987,"velocity":0.7637795275590551,"duration":0.2760416666666643},{"name":"C3","midi":48,"time":58.795572916666536,"velocity":0.7637795275590551,"duration":0.57421875},{"name":"E4","midi":64,"time":58.795572916666536,"velocity":0.7637795275590551,"duration":0.57421875},{"name":"A2","midi":45,"time":59.3723958333332,"velocity":0.7637795275590551,"duration":0.57421875},{"name":"C5","midi":72,"time":59.3723958333332,"velocity":0.7637795275590551,"duration":0.8619791666666643},{"name":"E3","midi":52,"time":59.949218749999865,"velocity":0.7637795275590551,"duration":0.5729166666666643},{"name":"B4","midi":71,"time":60.23697916666653,"velocity":0.7637795275590551,"duration":0.2760416666666643},{"name":"F#3","midi":54,"time":60.524739583333194,"velocity":0.7637795275590551,"duration":0.5729166666666643},{"name":"A4","midi":69,"time":60.524739583333194,"velocity":0.7637795275590551,"duration":0.2760416666666643},{"name":"B4","midi":71,"time":60.81249999999986,"velocity":0.7637795275590551,"duration":0.2760416666666643},{"name":"G#3","midi":56,"time":61.10026041666652,"velocity":0.7637795275590551,"duration":0.57421875},{"name":"E4","midi":64,"time":61.10026041666652,"velocity":0.7637795275590551,"duration":0.57421875},{"name":"E3","midi":52,"time":61.67708333333319,"velocity":0.7637795275590551,"duration":0.57421875},{"name":"D5","midi":74,"time":61.67708333333319,"velocity":0.7637795275590551,"duration":0.8619791666666643},{"name":"A3","midi":57,"time":62.25390624999985,"velocity":0.7637795275590551,"duration":1.1393229166666572},{"name":"E4","midi":64,"time":62.541666666666515,"velocity":0.7637795275590551,"duration":0.2760416666666643},{"name":"C5","midi":72,"time":62.541666666666515,"velocity":0.7637795275590551,"duration":0.2760416666666643},{"name":"D#4","midi":63,"time":62.82942708333318,"velocity":0.7637795275590551,"duration":0.2760416666666643},{"name":"B4","midi":71,"time":62.82942708333318,"velocity":0.7637795275590551,"duration":0.2760416666666643},{"name":"E4","midi":64,"time":63.117187499999844,"velocity":0.7637795275590551,"duration":0.2760416666666643},{"name":"C5","midi":72,"time":63.117187499999844,"velocity":0.7637795275590551,"duration":0.2760416666666643},{"name":"A3","midi":57,"time":63.40494791666651,"velocity":0.7637795275590551,"duration":0.57421875},{"name":"D#5","midi":75,"time":63.40494791666651,"velocity":0.7637795275590551,"duration":1.437500000000007},{"name":"G3","midi":55,"time":63.69401041666651,"velocity":0.7637795275590551,"duration":0.2760416666666643},{"name":"F#3","midi":54,"time":63.98177083333317,"velocity":0.7637795275590551,"duration":0.2760416666666714},{"name":"G4","midi":67,"time":63.98177083333317,"velocity":0.7637795275590551,"duration":0.8606770833333428},{"name":"G3","midi":55,"time":64.26953124999984,"velocity":0.7637795275590551,"duration":0.2760416666666714},{"name":"D3","midi":50,"time":64.55729166666652,"velocity":0.7637795275590551,"duration":0.5729166666666714},{"name":"F#4","midi":66,"time":64.84505208333319,"velocity":0.7637795275590551,"duration":0.2760416666666714},{"name":"D5","midi":74,"time":64.84505208333319,"velocity":0.7637795275590551,"duration":1.1393229166666856},{"name":"C3","midi":48,"time":65.13281249999986,"velocity":0.7637795275590551,"duration":0.5729166666666714},{"name":"E4","midi":64,"time":65.13281249999986,"velocity":0.7637795275590551,"duration":0.2760416666666714},{"name":"F#4","midi":66,"time":65.42057291666653,"velocity":0.7637795275590551,"duration":0.2760416666666714},{"name":"A#2","midi":46,"time":65.7083333333332,"velocity":0.7637795275590551,"duration":0.5729166666666714},{"name":"D4","midi":62,"time":65.7083333333332,"velocity":0.7637795275590551,"duration":0.5729166666666714},{"name":"A2","midi":45,"time":66.28385416666654,"velocity":0.7637795275590551,"duration":0.57421875},{"name":"C5","midi":72,"time":66.28385416666654,"velocity":0.7637795275590551,"duration":0.8619791666666714},{"name":"F#5","midi":78,"time":66.28385416666654,"velocity":0.7637795275590551,"duration":0.57421875},{"name":"G2","midi":43,"time":66.86067708333321,"velocity":0.7637795275590551,"duration":0.2760416666666714},{"name":"G5","midi":79,"time":66.86067708333321,"velocity":0.7637795275590551,"duration":2.5872395833333712},{"name":"G3","midi":55,"time":67.14843749999989,"velocity":0.7637795275590551,"duration":0.2760416666666714},{"name":"A#4","midi":70,"time":67.14843749999989,"velocity":0.7637795275590551,"duration":0.2760416666666714},{"name":"F#3","midi":54,"time":67.43619791666656,"velocity":0.7637795275590551,"duration":0.2760416666666714},{"name":"A4","midi":69,"time":67.43619791666656,"velocity":0.7637795275590551,"duration":0.2760416666666714},{"name":"G3","midi":55,"time":67.72395833333323,"velocity":0.7637795275590551,"duration":0.2760416666666714},{"name":"A#4","midi":70,"time":67.72395833333323,"velocity":0.7637795275590551,"duration":0.2760416666666714},{"name":"D3","midi":50,"time":68.0117187499999,"velocity":0.7637795275590551,"duration":0.5729166666666714},{"name":"C5","midi":72,"time":68.0117187499999,"velocity":0.7637795275590551,"duration":0.2760416666666714},{"name":"D5","midi":74,"time":68.29947916666657,"velocity":0.7637795275590551,"duration":0.2760416666666714},{"name":"A#3","midi":58,"time":68.58723958333324,"velocity":0.7637795275590551,"duration":0.8606770833333428},{"name":"C5","midi":72,"time":68.58723958333324,"velocity":0.7637795275590551,"duration":0.2760416666666714},{"name":"D5","midi":74,"time":68.87499999999991,"velocity":0.7637795275590551,"duration":0.2760416666666714},{"name":"D#5","midi":75,"time":69.16276041666659,"velocity":0.7637795275590551,"duration":1.4361979166666856},{"name":"A3","midi":57,"time":69.45052083333326,"velocity":0.7637795275590551,"duration":0.2760416666666714},{"name":"F#5","midi":78,"time":69.45052083333326,"velocity":0.7637795275590551,"duration":0.2760416666666714},{"name":"G3","midi":55,"time":69.73828124999993,"velocity":0.7637795275590551,"duration":0.2760416666666714},{"name":"A#5","midi":82,"time":69.73828124999993,"velocity":0.7637795275590551,"duration":0.2760416666666714},{"name":"A3","midi":57,"time":70.0260416666666,"velocity":0.7637795275590551,"duration":0.2760416666666714},{"name":"A5","midi":81,"time":70.0260416666666,"velocity":0.7637795275590551,"duration":0.2760416666666714},{"name":"D3","midi":50,"time":70.31380208333327,"velocity":0.7637795275590551,"duration":0.5729166666666714},{"name":"F#5","midi":78,"time":70.31380208333327,"velocity":0.7637795275590551,"duration":1.1484375000000142},{"name":"D5","midi":74,"time":70.60156249999994,"velocity":0.7637795275590551,"duration":0.2760416666666714},{"name":"C4","midi":60,"time":70.88932291666661,"velocity":0.7637795275590551,"duration":0.8619791666666714},{"name":"D#5","midi":75,"time":70.88932291666661,"velocity":0.7637795275590551,"duration":0.2760416666666714},{"name":"C5","midi":72,"time":71.17708333333329,"velocity":0.7637795275590551,"duration":0.2760416666666714},{"name":"D5","midi":74,"time":71.46484374999996,"velocity":0.7637795275590551,"duration":0.2708333333333286},{"name":"G5","midi":79,"time":71.46484374999996,"velocity":0.7637795275590551,"duration":0.27734375},{"name":"A#3","midi":58,"time":71.75390624999996,"velocity":0.7637795275590551,"duration":0.2760416666666714},{"name":"D5","midi":74,"time":71.75390624999996,"velocity":0.7637795275590551,"duration":0.2760416666666714},{"name":"A3","midi":57,"time":72.04166666666663,"velocity":0.7637795275590551,"duration":0.2760416666666714},{"name":"C5","midi":72,"time":72.04166666666663,"velocity":0.7637795275590551,"duration":0.2760416666666714},{"name":"A#3","midi":58,"time":72.3294270833333,"velocity":0.7637795275590551,"duration":0.2760416666666714},{"name":"D5","midi":74,"time":72.3294270833333,"velocity":0.7637795275590551,"duration":0.2760416666666714},{"name":"C4","midi":60,"time":72.61718749999997,"velocity":0.7637795275590551,"duration":0.2760416666666714},{"name":"G4","midi":67,"time":72.61718749999997,"velocity":0.7637795275590551,"duration":0.5729166666666714},{"name":"A#3","midi":58,"time":72.90494791666664,"velocity":0.7637795275590551,"duration":0.2760416666666714},{"name":"A3","midi":57,"time":73.19270833333331,"velocity":0.7637795275590551,"duration":0.2760416666666714},{"name":"F5","midi":77,"time":73.19270833333331,"velocity":0.7637795275590551,"duration":0.8606770833333428},{"name":"G3","midi":55,"time":73.48046874999999,"velocity":0.7637795275590551,"duration":0.2760416666666714},{"name":"C4","midi":60,"time":73.76822916666666,"velocity":0.7637795275590551,"duration":0.5729166666666714},{"name":"E5","midi":76,"time":74.05598958333333,"velocity":0.7637795275590551,"duration":0.2760416666666714},{"name":"D4","midi":62,"time":74.34375,"velocity":0.7637795275590551,"duration":0.5729166666666714},{"name":"D5","midi":74,"time":74.34375,"velocity":0.7637795275590551,"duration":0.2760416666666714},{"name":"E5","midi":76,"time":74.63151041666667,"velocity":0.7637795275590551,"duration":0.2760416666666714},{"name":"E4","midi":64,"time":74.91927083333334,"velocity":0.7637795275590551,"duration":0.57421875},{"name":"C5","midi":72,"time":74.91927083333334,"velocity":0.7637795275590551,"duration":0.57421875},{"name":"C4","midi":60,"time":75.49609375000001,"velocity":0.7637795275590551,"duration":0.57421875},{"name":"A#5","midi":82,"time":75.49609375000001,"velocity":0.7637795275590551,"duration":0.8619791666666714},{"name":"F3","midi":53,"time":76.07291666666669,"velocity":0.7637795275590551,"duration":1.723958333333357},{"name":"F4","midi":65,"time":76.36067708333336,"velocity":0.7637795275590551,"duration":0.2760416666666714},{"name":"A5","midi":81,"time":76.36067708333336,"velocity":0.7637795275590551,"duration":0.2760416666666714},{"name":"E4","midi":64,"time":76.64843750000003,"velocity":0.7637795275590551,"duration":0.2760416666666714},{"name":"G5","midi":79,"time":76.64843750000003,"velocity":0.7637795275590551,"duration":0.2760416666666714},{"name":"F4","midi":65,"time":76.9361979166667,"velocity":0.7637795275590551,"duration":0.2760416666666714},{"name":"A#5","midi":82,"time":76.9361979166667,"velocity":0.7637795275590551,"duration":0.2760416666666714},{"name":"C4","midi":60,"time":77.22395833333337,"velocity":0.7637795275590551,"duration":0.5729166666666714},{"name":"A5","midi":81,"time":77.22395833333337,"velocity":0.7637795275590551,"duration":0.2760416666666714},{"name":"G5","midi":79,"time":77.51171875000004,"velocity":0.7637795275590551,"duration":0.2760416666666714},{"name":"F3","midi":53,"time":77.79947916666671,"velocity":0.7637795275590551,"duration":0.5729166666666714},{"name":"A4","midi":69,"time":77.79947916666671,"velocity":0.7637795275590551,"duration":0.8606770833333428},{"name":"F5","midi":77,"time":77.79947916666671,"velocity":0.7637795275590551,"duration":0.2760416666666714},{"name":"E5","midi":76,"time":78.08723958333339,"velocity":0.7637795275590551,"duration":0.2760416666666714},{"name":"A#3","midi":58,"time":78.37500000000006,"velocity":0.7637795275590551,"duration":0.5729166666666714},{"name":"D5","midi":74,"time":78.37500000000006,"velocity":0.7637795275590551,"duration":1.4361979166666856},{"name":"G4","midi":67,"time":78.66276041666673,"velocity":0.7637795275590551,"duration":0.2760416666666714},{"name":"A3","midi":57,"time":78.9505208333334,"velocity":0.7637795275590551,"duration":0.5729166666666714},{"name":"F4","midi":65,"time":78.9505208333334,"velocity":0.7637795275590551,"duration":0.2760416666666714},{"name":"G4","midi":67,"time":79.23828125000007,"velocity":0.7637795275590551,"duration":0.2760416666666714},{"name":"G3","midi":55,"time":79.52604166666674,"velocity":0.7637795275590551,"duration":0.5729166666666714},{"name":"A#3","midi":58,"time":79.52604166666674,"velocity":0.7637795275590551,"duration":0.5729166666666714},{"name":"F5","midi":77,"time":79.81380208333341,"velocity":0.7637795275590551,"duration":0.2760416666666714},{"name":"A#3","midi":58,"time":80.10156250000009,"velocity":0.7637795275590551,"duration":0.5729166666666714},{"name":"G4","midi":67,"time":80.10156250000009,"velocity":0.7637795275590551,"duration":0.8606770833333428},{"name":"E5","midi":76,"time":80.10156250000009,"velocity":0.7637795275590551,"duration":0.2760416666666714},{"name":"D5","midi":74,"time":80.38932291666676,"velocity":0.7637795275590551,"duration":0.2760416666666714},{"name":"A3","midi":57,"time":80.67708333333343,"velocity":0.7637795275590551,"duration":0.5729166666666714},{"name":"C#5","midi":73,"time":80.67708333333343,"velocity":0.7637795275590551,"duration":1.4361979166666856},{"name":"F4","midi":65,"time":80.9648437500001,"velocity":0.7637795275590551,"duration":0.2760416666666714},{"name":"G3","midi":55,"time":81.25260416666677,"velocity":0.7637795275590551,"duration":0.5729166666666714},{"name":"E4","midi":64,"time":81.25260416666677,"velocity":0.7637795275590551,"duration":0.2760416666666714},{"name":"F4","midi":65,"time":81.54036458333344,"velocity":0.7637795275590551,"duration":0.2760416666666714},{"name":"F3","midi":53,"time":81.82812500000011,"velocity":0.7637795275590551,"duration":0.5729166666666714},{"name":"A3","midi":57,"time":81.82812500000011,"velocity":0.7637795275590551,"duration":0.5729166666666714},{"name":"A4","midi":69,"time":82.11588541666679,"velocity":0.7637795275590551,"duration":0.2760416666666714},{"name":"D3","midi":50,"time":82.40364583333346,"velocity":0.7637795275590551,"duration":0.5729166666666714},{"name":"F4","midi":65,"time":82.40364583333346,"velocity":0.7637795275590551,"duration":0.8606770833333428},{"name":"D5","midi":74,"time":82.40364583333346,"velocity":0.7637795275590551,"duration":0.2760416666666714},{"name":"C5","midi":72,"time":82.69140625000013,"velocity":0.7637795275590551,"duration":0.2760416666666714},{"name":"G3","midi":55,"time":82.9791666666668,"velocity":0.7637795275590551,"duration":0.5729166666666714},{"name":"A#4","midi":70,"time":82.9791666666668,"velocity":0.7637795275590551,"duration":2.5872395833333712},{"name":"E4","midi":64,"time":83.26692708333347,"velocity":0.7637795275590551,"duration":0.2760416666666714},{"name":"F3","midi":53,"time":83.55468750000014,"velocity":0.7637795275590551,"duration":0.5729166666666714},{"name":"D4","midi":62,"time":83.55468750000014,"velocity":0.7637795275590551,"duration":0.2760416666666714},{"name":"F4","midi":65,"time":83.84244791666681,"velocity":0.7637795275590551,"duration":0.2760416666666714},{"name":"G3","midi":55,"time":84.13020833333348,"velocity":0.7637795275590551,"duration":0.5729166666666714},{"name":"D#4","midi":63,"time":84.13020833333348,"velocity":0.7637795275590551,"duration":0.2760416666666714},{"name":"D4","midi":62,"time":84.41796875000016,"velocity":0.7637795275590551,"duration":0.2760416666666714},{"name":"E3","midi":52,"time":84.70572916666683,"velocity":0.7637795275590551,"duration":0.5729166666666714},{"name":"C#4","midi":61,"time":84.70572916666683,"velocity":0.7637795275590551,"duration":0.2760416666666714},{"name":"D4","midi":62,"time":84.9934895833335,"velocity":0.7637795275590551,"duration":0.2760416666666714},{"name":"A3","midi":57,"time":85.28125000000017,"velocity":0.7637795275590551,"duration":0.5729166666666714},{"name":"C#4","midi":61,"time":85.28125000000017,"velocity":0.7637795275590551,"duration":0.5729166666666714},{"name":"A4","midi":69,"time":85.56901041666684,"velocity":0.7637795275590551,"duration":0.2760416666666714},{"name":"B3","midi":59,"time":85.85677083333351,"velocity":0.7637795275590551,"duration":0.5729166666666714},{"name":"D4","midi":62,"time":85.85677083333351,"velocity":0.7637795275590551,"duration":0.5729166666666714},{"name":"G#4","midi":68,"time":85.85677083333351,"velocity":0.7637795275590551,"duration":0.2760416666666714},{"name":"B4","midi":71,"time":86.14453125000018,"velocity":0.7637795275590551,"duration":0.2760416666666714},{"name":"C#4","midi":61,"time":86.43229166666686,"velocity":0.7637795275590551,"duration":0.5729166666666714},{"name":"E4","midi":64,"time":86.43229166666686,"velocity":0.7637795275590551,"duration":1.1718750000000142},{"name":"A4","midi":69,"time":86.43229166666686,"velocity":0.7637795275590551,"duration":0.2760416666666714},{"name":"G4","midi":67,"time":86.72005208333353,"velocity":0.7637795275590551,"duration":0.2760416666666714},{"name":"A3","midi":57,"time":87.0078125000002,"velocity":0.7637795275590551,"duration":0.5729166666666714},{"name":"F4","midi":65,"time":87.0078125000002,"velocity":0.7637795275590551,"duration":0.2760416666666714},{"name":"G4","midi":67,"time":87.29557291666687,"velocity":0.7637795275590551,"duration":0.2760416666666714},{"name":"D4","midi":62,"time":87.58333333333354,"velocity":0.7637795275590551,"duration":0.2760416666666572},{"name":"F4","midi":65,"time":87.58333333333354,"velocity":0.7637795275590551,"duration":1.4361979166666714},{"name":"D3","midi":50,"time":87.8710937500002,"velocity":0.7637795275590551,"duration":0.2760416666666714},{"name":"C#3","midi":49,"time":88.15885416666687,"velocity":0.7637795275590551,"duration":0.2760416666666714},{"name":"A3","midi":57,"time":88.15885416666687,"velocity":0.7637795275590551,"duration":0.5729166666666714},{"name":"D3","midi":50,"time":88.44661458333354,"velocity":0.7637795275590551,"duration":0.2760416666666714},{"name":"A2","midi":45,"time":88.73437500000021,"velocity":0.7637795275590551,"duration":0.5729166666666714},{"name":"D4","midi":62,"time":88.73437500000021,"velocity":0.7637795275590551,"duration":1.4361979166666856},{"name":"A4","midi":69,"time":89.02213541666688,"velocity":0.7637795275590551,"duration":0.2760416666666714},{"name":"F3","midi":53,"time":89.30989583333356,"velocity":0.7637795275590551,"duration":0.8606770833333428},{"name":"G4","midi":67,"time":89.30989583333356,"velocity":0.7637795275590551,"duration":0.2760416666666714},{"name":"A4","midi":69,"time":89.59765625000023,"velocity":0.7637795275590551,"duration":0.2760416666666714},{"name":"A#4","midi":70,"time":89.8854166666669,"velocity":0.7637795275590551,"duration":0.5729166666666714},{"name":"E3","midi":52,"time":90.17317708333357,"velocity":0.7637795275590551,"duration":0.2760416666666714},{"name":"G4","midi":67,"time":90.17317708333357,"velocity":0.7637795275590551,"duration":0.2760416666666714},{"name":"D3","midi":50,"time":90.46093750000024,"velocity":0.7637795275590551,"duration":0.2760416666666714},{"name":"F4","midi":65,"time":90.46093750000024,"velocity":0.7637795275590551,"duration":0.2760416666666714},{"name":"B4","midi":71,"time":90.46093750000024,"velocity":0.7637795275590551,"duration":0.5729166666666714},{"name":"E3","midi":52,"time":90.74869791666691,"velocity":0.7637795275590551,"duration":0.2760416666666714},{"name":"G4","midi":67,"time":90.74869791666691,"velocity":0.7637795275590551,"duration":0.2760416666666714},{"name":"A2","midi":45,"time":91.03645833333358,"velocity":0.7637795275590551,"duration":0.5729166666666714},{"name":"E4","midi":64,"time":91.03645833333358,"velocity":0.7637795275590551,"duration":0.2760416666666714},{"name":"C5","midi":72,"time":91.03645833333358,"velocity":0.7637795275590551,"duration":0.5729166666666714},{"name":"A#4","midi":70,"time":91.32421875000026,"velocity":0.7637795275590551,"duration":0.2760416666666714},{"name":"G3","midi":55,"time":91.61197916666693,"velocity":0.7637795275590551,"duration":0.8606770833333428},{"name":"A4","midi":69,"time":91.61197916666693,"velocity":0.7637795275590551,"duration":0.2760416666666714},{"name":"C#5","midi":73,"time":91.61197916666693,"velocity":0.7637795275590551,"duration":0.5729166666666714},{"name":"G4","midi":67,"time":91.8997395833336,"velocity":0.7637795275590551,"duration":0.2760416666666714},{"name":"A4","midi":69,"time":92.18750000000027,"velocity":0.7637795275590551,"duration":0.2760416666666714},{"name":"D5","midi":74,"time":92.18750000000027,"velocity":0.7637795275590551,"duration":4.026041666666728},{"name":"F#3","midi":54,"time":92.47526041666694,"velocity":0.7637795275590551,"duration":0.2760416666666714},{"name":"D4","midi":62,"time":92.47526041666694,"velocity":0.7637795275590551,"duration":0.2760416666666714},{"name":"E3","midi":52,"time":92.76302083333361,"velocity":0.7637795275590551,"duration":0.2760416666666714},{"name":"C5","midi":72,"time":92.76302083333361,"velocity":0.7637795275590551,"duration":0.8606770833333428},{"name":"F#3","midi":54,"time":93.05078125000028,"velocity":0.7637795275590551,"duration":0.2760416666666714},{"name":"D3","midi":50,"time":93.33854166666696,"velocity":0.7637795275590551,"duration":0.5729166666666714},{"name":"A#4","midi":70,"time":93.62630208333363,"velocity":0.7637795275590551,"duration":0.2760416666666714},{"name":"C4","midi":60,"time":93.9140625000003,"velocity":0.7637795275590551,"duration":0.5729166666666714},{"name":"A4","midi":69,"time":93.9140625000003,"velocity":0.7637795275590551,"duration":0.2760416666666714},{"name":"A#4","midi":70,"time":94.20182291666697,"velocity":0.7637795275590551,"duration":0.2760416666666714},{"name":"A#3","midi":58,"time":94.48958333333364,"velocity":0.7637795275590551,"duration":0.5729166666666714},{"name":"A4","midi":69,"time":94.48958333333364,"velocity":0.7637795275590551,"duration":0.2760416666666714},{"name":"G4","midi":67,"time":94.77734375000031,"velocity":0.7637795275590551,"duration":0.2760416666666714},{"name":"A3","midi":57,"time":95.06510416666698,"velocity":0.7637795275590551,"duration":0.5729166666666714},{"name":"F#4","midi":66,"time":95.06510416666698,"velocity":0.7637795275590551,"duration":0.2760416666666714},{"name":"G4","midi":67,"time":95.35286458333366,"velocity":0.7637795275590551,"duration":0.2760416666666714},{"name":"A#3","midi":58,"time":95.64062500000033,"velocity":0.7637795275590551,"duration":0.2760416666666714},{"name":"D4","midi":62,"time":95.64062500000033,"velocity":0.7637795275590551,"duration":0.5729166666666714},{"name":"A3","midi":57,"time":95.928385416667,"velocity":0.7637795275590551,"duration":0.2760416666666714},{"name":"G3","midi":55,"time":96.21614583333367,"velocity":0.7637795275590551,"duration":0.2760416666666714},{"name":"A#4","midi":70,"time":96.21614583333367,"velocity":0.7637795275590551,"duration":0.86328125},{"name":"D5","midi":74,"time":96.21614583333367,"velocity":0.7637795275590551,"duration":0.5729166666666714},{"name":"A3","midi":57,"time":96.50390625000034,"velocity":0.7637795275590551,"duration":0.2760416666666714},{"name":"G3","midi":55,"time":96.79166666666701,"velocity":0.7637795275590551,"duration":0.2786458333333286},{"name":"C#5","midi":73,"time":96.79166666666701,"velocity":0.7637795275590551,"duration":0.5781249999999858},{"name":"F#3","midi":54,"time":97.08203125000034,"velocity":0.7637795275590551,"duration":0.2786458333333286},{"name":"A4","midi":69,"time":97.08203125000034,"velocity":0.7637795275590551,"duration":0.2786458333333286},{"name":"E3","midi":52,"time":97.37239583333367,"velocity":0.7637795275590551,"duration":0.2786458333333286},{"name":"G4","midi":67,"time":97.37239583333367,"velocity":0.7637795275590551,"duration":0.2786458333333286},{"name":"C5","midi":72,"time":97.37239583333367,"velocity":0.7637795275590551,"duration":0.5781249999999858},{"name":"F#3","midi":54,"time":97.662760416667,"velocity":0.7637795275590551,"duration":0.2786458333333286},{"name":"A4","midi":69,"time":97.662760416667,"velocity":0.7637795275590551,"duration":0.2786458333333286},{"name":"G3","midi":55,"time":97.95312500000033,"velocity":0.7637795275590551,"duration":0.28125},{"name":"D4","midi":62,"time":97.95312500000033,"velocity":0.7637795275590551,"duration":0.5833333333333286},{"name":"B4","midi":71,"time":97.95312500000033,"velocity":0.7637795275590551,"duration":0.5833333333333286},{"name":"F3","midi":53,"time":98.24609375000033,"velocity":0.7637795275590551,"duration":0.28125},{"name":"D#3","midi":51,"time":98.53906250000033,"velocity":0.7637795275590551,"duration":0.28125},{"name":"G4","midi":67,"time":98.53906250000033,"velocity":0.7637795275590551,"duration":0.8802083333333286},{"name":"A#4","midi":70,"time":98.53906250000033,"velocity":0.7637795275590551,"duration":0.5833333333333286},{"name":"D3","midi":50,"time":98.83203125000033,"velocity":0.7637795275590551,"duration":0.28125},{"name":"C#3","midi":49,"time":99.12500000000033,"velocity":0.7637795275590551,"duration":0.5911458333333286},{"name":"A4","midi":69,"time":99.12500000000033,"velocity":0.7637795275590551,"duration":1.1861979166666572},{"name":"F4","midi":65,"time":99.42187500000033,"velocity":0.7637795275590551,"duration":0.28515625},{"name":"D3","midi":50,"time":99.71875000000033,"velocity":0.7637795275590551,"duration":0.8893229166666572},{"name":"E4","midi":64,"time":99.71875000000033,"velocity":0.7637795275590551,"duration":0.28515625},{"name":"F4","midi":65,"time":100.01692708333366,"velocity":0.7637795275590551,"duration":0.28515625},{"name":"B3","midi":59,"time":100.31380208333366,"velocity":0.7637795275590551,"duration":0.5911458333333286},{"name":"G#4","midi":68,"time":100.31380208333366,"velocity":0.7637795275590551,"duration":0.5911458333333286},{"name":"C#3","midi":49,"time":100.61067708333366,"velocity":0.7637795275590551,"duration":0.28515625},{"name":"B2","midi":47,"time":100.90755208333366,"velocity":0.7637795275590551,"duration":0.28515625},{"name":"E4","midi":64,"time":100.90755208333366,"velocity":0.7637795275590551,"duration":0.8919270833333286},{"name":"G4","midi":67,"time":100.90755208333366,"velocity":0.7637795275590551,"duration":0.5924479166666572},{"name":"C#3","midi":49,"time":101.20572916666698,"velocity":0.7637795275590551,"duration":0.28515625},{"name":"D3","midi":50,"time":101.50260416666698,"velocity":0.7637795275590551,"duration":0.5963541666666714},{"name":"F#4","midi":66,"time":101.50260416666698,"velocity":0.7637795275590551,"duration":0.5963541666666714},{"name":"D4","midi":62,"time":101.80208333333366,"velocity":0.7637795275590551,"duration":0.2877604166666714},{"name":"G#2","midi":44,"time":102.10156250000033,"velocity":0.7637795275590551,"duration":0.59765625},{"name":"C#4","midi":61,"time":102.10156250000033,"velocity":0.7637795275590551,"duration":0.2877604166666714},{"name":"F4","midi":65,"time":102.10156250000033,"velocity":0.7637795275590551,"duration":0.59765625},{"name":"D4","midi":62,"time":102.40234375000033,"velocity":0.7637795275590551,"duration":0.62890625},{"name":"A2","midi":45,"time":102.701822916667,"velocity":0.7637795275590551,"duration":1.4127604166666714},{"name":"E4","midi":64,"time":102.701822916667,"velocity":0.7637795275590551,"duration":1.4010416666666714},{"name":"C#4","midi":61,"time":103.03515625000033,"velocity":0.7637795275590551,"duration":0.3190104166666714},{"name":"B3","midi":59,"time":103.36848958333367,"velocity":0.7637795275590551,"duration":0.359375},{"name":"C#4","midi":61,"time":103.74348958333367,"velocity":0.7637795275590551,"duration":0.359375},{"name":"D2","midi":38,"time":104.11848958333367,"velocity":0.7637795275590551,"duration":2.9921875},{"name":"D4","midi":62,"time":104.11848958333367,"velocity":0.7637795275590551,"duration":2.9921875}],"controlChanges":{"7":[{"number":7,"time":0,"value":0.7874015748031497}]},"id":1,"name":"Piano 1","instrumentNumber":6,"instrument":"harpsichord","instrumentFamily":"piano","channelNumber":0,"isPercussion":false}]}