{"header":{"PPQ":240,"timeSignature":[1,4],"bpm":120,"name":""},"startTime":6.0145833333333325,"duration":139.0145833333321,"tracks":[{"startTime":6.0145833333333325,"duration":139.0145833333321,"length":1583,"notes":[{"name":"A#3","midi":58,"time":6.0145833333333325,"velocity":0.6456692913385826,"duration":0.35416666666666696},{"name":"F4","midi":65,"time":6.104166666666666,"velocity":0.6456692913385826,"duration":0.08750000000000036},{"name":"D5","midi":74,"time":6.19375,"velocity":0.6377952755905512,"duration":0.08541666666666625},{"name":"F4","midi":65,"time":6.281249999999999,"velocity":0.6456692913385826,"duration":0.08750000000000036},{"name":"A3","midi":57,"time":6.370833333333333,"velocity":0.6456692913385826,"duration":0.3437499999999982},{"name":"F4","midi":65,"time":6.456249999999999,"velocity":0.6456692913385826,"duration":0.08541666666666625},{"name":"C5","midi":72,"time":6.543749999999998,"velocity":0.6377952755905512,"duration":0.08333333333333304},{"name":"F4","midi":65,"time":6.629166666666665,"velocity":0.6456692913385826,"duration":0.08541666666666625},{"name":"A#3","midi":58,"time":6.716666666666664,"velocity":0.6456692913385826,"duration":0.33333333333333215},{"name":"F4","midi":65,"time":6.797916666666664,"velocity":0.6456692913385826,"duration":0.08333333333333304},{"name":"D5","midi":74,"time":6.88333333333333,"velocity":0.6377952755905512,"duration":0.08333333333333304},{"name":"F4","midi":65,"time":6.966666666666663,"velocity":0.6456692913385826,"duration":0.08333333333333304},{"name":"F3","midi":53,"time":7.0520833333333295,"velocity":0.6456692913385826,"duration":0.33541666666666536},{"name":"A4","midi":69,"time":7.1354166666666625,"velocity":0.6377952755905512,"duration":0.08541666666666625},{"name":"F5","midi":77,"time":7.220833333333329,"velocity":0.6377952755905512,"duration":0.08333333333333304},{"name":"A4","midi":69,"time":7.304166666666662,"velocity":0.6377952755905512,"duration":0.08124999999999982},{"name":"G3","midi":55,"time":7.387499999999995,"velocity":0.6456692913385826,"duration":0.33333333333333215},{"name":"D4","midi":62,"time":7.470833333333328,"velocity":0.6456692913385826,"duration":0.08333333333333304},{"name":"A#4","midi":70,"time":7.554166666666661,"velocity":0.6377952755905512,"duration":0.08124999999999982},{"name":"D4","midi":62,"time":7.637499999999994,"velocity":0.6456692913385826,"duration":0.08333333333333304},{"name":"F3","midi":53,"time":7.72291666666666,"velocity":0.6456692913385826,"duration":0.33333333333333304},{"name":"D4","midi":62,"time":7.80416666666666,"velocity":0.6456692913385826,"duration":0.08124999999999982},{"name":"A4","midi":69,"time":7.887499999999993,"velocity":0.6377952755905512,"duration":0.08541666666666625},{"name":"D4","midi":62,"time":7.972916666666659,"velocity":0.6456692913385826,"duration":0.08333333333333393},{"name":"G3","midi":55,"time":8.058333333333326,"velocity":0.6456692913385826,"duration":0.3354166666666689},{"name":"D4","midi":62,"time":8.139583333333327,"velocity":0.6456692913385826,"duration":0.08541666666666714},{"name":"A#4","midi":70,"time":8.224999999999994,"velocity":0.6377952755905512,"duration":0.08333333333333393},{"name":"D4","midi":62,"time":8.308333333333328,"velocity":0.6456692913385826,"duration":0.08541666666666714},{"name":"D3","midi":50,"time":8.393749999999995,"velocity":0.6456692913385826,"duration":0.33750000000000213},{"name":"F4","midi":65,"time":8.474999999999996,"velocity":0.6456692913385826,"duration":0.08541666666666714},{"name":"D5","midi":74,"time":8.560416666666663,"velocity":0.6377952755905512,"duration":0.08541666666666714},{"name":"F4","midi":65,"time":8.647916666666664,"velocity":0.6456692913385826,"duration":0.08125000000000071},{"name":"D#3","midi":51,"time":8.731249999999998,"velocity":0.6456692913385826,"duration":0.3333333333333357},{"name":"A#3","midi":58,"time":8.812499999999998,"velocity":0.6456692913385826,"duration":0.08333333333333393},{"name":"G4","midi":67,"time":8.897916666666665,"velocity":0.6456692913385826,"duration":0.08125000000000071},{"name":"A#3","midi":58,"time":8.98125,"velocity":0.6456692913385826,"duration":0.08333333333333393},{"name":"D3","midi":50,"time":9.066666666666666,"velocity":0.6456692913385826,"duration":0.3333333333333357},{"name":"A#3","midi":58,"time":9.147916666666667,"velocity":0.6456692913385826,"duration":0.08333333333333393},{"name":"F4","midi":65,"time":9.233333333333334,"velocity":0.6456692913385826,"duration":0.08333333333333393},{"name":"A#3","midi":58,"time":9.316666666666668,"velocity":0.6456692913385826,"duration":0.08333333333333393},{"name":"D#3","midi":51,"time":9.402083333333335,"velocity":0.6456692913385826,"duration":0.33750000000000213},{"name":"A#3","midi":58,"time":9.483333333333336,"velocity":0.6456692913385826,"duration":0.08541666666666714},{"name":"G4","midi":67,"time":9.568750000000003,"velocity":0.6456692913385826,"duration":0.08541666666666714},{"name":"A#3","midi":58,"time":9.656250000000004,"velocity":0.6456692913385826,"duration":0.08333333333333393},{"name":"A#2","midi":46,"time":9.739583333333337,"velocity":0.6456692913385826,"duration":0.33958333333333535},{"name":"D4","midi":62,"time":9.825000000000005,"velocity":0.6456692913385826,"duration":0.08333333333333393},{"name":"A#4","midi":70,"time":9.910416666666672,"velocity":0.6377952755905512,"duration":0.08333333333333393},{"name":"D4","midi":62,"time":9.993750000000006,"velocity":0.6456692913385826,"duration":0.08333333333333393},{"name":"C3","midi":48,"time":10.079166666666673,"velocity":0.6456692913385826,"duration":0.3354166666666689},{"name":"D4","midi":62,"time":10.162500000000007,"velocity":0.6456692913385826,"duration":0.08541666666666714},{"name":"D#4","midi":63,"time":10.247916666666674,"velocity":0.6456692913385826,"duration":0.08333333333333393},{"name":"D4","midi":62,"time":10.331250000000008,"velocity":0.6456692913385826,"duration":0.08333333333333393},{"name":"A#2","midi":46,"time":10.416666666666675,"velocity":0.6456692913385826,"duration":0.3312500000000025},{"name":"D4","midi":62,"time":10.497916666666676,"velocity":0.6456692913385826,"duration":0.08333333333333393},{"name":"G4","midi":67,"time":10.58125000000001,"velocity":0.6456692913385826,"duration":0.08333333333333393},{"name":"D4","midi":62,"time":10.666666666666677,"velocity":0.6456692913385826,"duration":0.08125000000000071},{"name":"A2","midi":45,"time":10.75000000000001,"velocity":0.6456692913385826,"duration":0.3312500000000025},{"name":"C4","midi":60,"time":10.831250000000011,"velocity":0.6456692913385826,"duration":0.08333333333333393},{"name":"F4","midi":65,"time":10.916666666666679,"velocity":0.6456692913385826,"duration":0.08125000000000071},{"name":"C4","midi":60,"time":10.99791666666668,"velocity":0.6456692913385826,"duration":0.08333333333333393},{"name":"F2","midi":41,"time":11.083333333333346,"velocity":0.6456692913385826,"duration":0.3333333333333357},{"name":"A3","midi":57,"time":11.164583333333347,"velocity":0.6456692913385826,"duration":0.08333333333333393},{"name":"D#4","midi":63,"time":11.247916666666681,"velocity":0.6456692913385826,"duration":0.08333333333333393},{"name":"A3","midi":57,"time":11.331250000000015,"velocity":0.6456692913385826,"duration":0.08333333333333393},{"name":"A#3","midi":58,"time":11.416666666666682,"velocity":0.6456692913385826,"duration":0.3312500000000025},{"name":"D4","midi":62,"time":11.497916666666683,"velocity":0.6456692913385826,"duration":0.08333333333333393},{"name":"F4","midi":65,"time":11.581250000000017,"velocity":0.6456692913385826,"duration":0.08333333333333393},{"name":"D4","midi":62,"time":11.666666666666684,"velocity":0.6456692913385826,"duration":0.08125000000000071},{"name":"F3","midi":53,"time":11.750000000000018,"velocity":0.6456692913385826,"duration":0.3312500000000025},{"name":"A#3","midi":58,"time":11.831250000000018,"velocity":0.6456692913385826,"duration":0.08333333333333393},{"name":"D4","midi":62,"time":11.916666666666686,"velocity":0.6456692913385826,"duration":0.08125000000000071},{"name":"A#3","midi":58,"time":11.997916666666686,"velocity":0.6456692913385826,"duration":0.08333333333333393},{"name":"D3","midi":50,"time":12.083333333333353,"velocity":0.6456692913385826,"duration":0.3333333333333357},{"name":"F3","midi":53,"time":12.164583333333354,"velocity":0.6456692913385826,"duration":0.08333333333333393},{"name":"A#3","midi":58,"time":12.247916666666688,"velocity":0.6456692913385826,"duration":0.08333333333333393},{"name":"F3","midi":53,"time":12.331250000000022,"velocity":0.6456692913385826,"duration":0.08333333333333393},{"name":"A#2","midi":46,"time":12.41666666666669,"velocity":0.6456692913385826,"duration":0.3312500000000025},{"name":"D3","midi":50,"time":12.500000000000023,"velocity":0.6456692913385826,"duration":0.08125000000000071},{"name":"F3","midi":53,"time":12.581250000000024,"velocity":0.6456692913385826,"duration":0.08333333333333393},{"name":"D3","midi":50,"time":12.666666666666691,"velocity":0.6456692913385826,"duration":0.08125000000000071},{"name":"G2","midi":43,"time":12.750000000000025,"velocity":0.6456692913385826,"duration":0.08125000000000071},{"name":"D3","midi":50,"time":12.831250000000026,"velocity":0.6456692913385826,"duration":0.08125000000000071},{"name":"E3","midi":52,"time":12.91458333333336,"velocity":0.6456692913385826,"duration":0.08125000000000071},{"name":"F#3","midi":54,"time":12.99583333333336,"velocity":0.6456692913385826,"duration":0.08125000000000071},{"name":"G3","midi":55,"time":13.077083333333361,"velocity":0.6456692913385826,"duration":0.08125000000000071},{"name":"A3","midi":57,"time":13.160416666666695,"velocity":0.6456692913385826,"duration":0.08333333333333393},{"name":"A#3","midi":58,"time":13.243750000000029,"velocity":0.6456692913385826,"duration":0.08125000000000071},{"name":"C4","midi":60,"time":13.32500000000003,"velocity":0.6456692913385826,"duration":0.08125000000000071},{"name":"A#3","midi":58,"time":13.408333333333363,"velocity":0.6456692913385826,"duration":0.08125000000000071},{"name":"G3","midi":55,"time":13.489583333333364,"velocity":0.6456692913385826,"duration":0.08125000000000071},{"name":"A3","midi":57,"time":13.572916666666698,"velocity":0.6456692913385826,"duration":0.08125000000000071},{"name":"A#3","midi":58,"time":13.656250000000032,"velocity":0.6456692913385826,"duration":0.08125000000000071},{"name":"C4","midi":60,"time":13.737500000000033,"velocity":0.6456692913385826,"duration":0.08125000000000071},{"name":"D4","midi":62,"time":13.820833333333367,"velocity":0.6456692913385826,"duration":0.0791666666666675},{"name":"E4","midi":64,"time":13.902083333333367,"velocity":0.6456692913385826,"duration":0.08125000000000071},{"name":"F4","midi":65,"time":13.983333333333368,"velocity":0.6456692913385826,"duration":0.08333333333333393},{"name":"C4","midi":60,"time":14.068750000000035,"velocity":0.6456692913385826,"duration":0.3312500000000025},{"name":"E4","midi":64,"time":14.150000000000036,"velocity":0.6456692913385826,"duration":0.08333333333333393},{"name":"G4","midi":67,"time":14.23333333333337,"velocity":0.6456692913385826,"duration":0.08333333333333393},{"name":"E4","midi":64,"time":14.318750000000037,"velocity":0.6456692913385826,"duration":0.08125000000000071},{"name":"G3","midi":55,"time":14.400000000000038,"velocity":0.6456692913385826,"duration":0.3354166666666689},{"name":"C4","midi":60,"time":14.483333333333372,"velocity":0.6456692913385826,"duration":0.08333333333333393},{"name":"E4","midi":64,"time":14.568750000000039,"velocity":0.6456692913385826,"duration":0.08125000000000071},{"name":"C4","midi":60,"time":14.65000000000004,"velocity":0.6456692913385826,"duration":0.08333333333333393},{"name":"E3","midi":52,"time":14.735416666666707,"velocity":0.6456692913385826,"duration":0.3333333333333357},{"name":"G3","midi":55,"time":14.81875000000004,"velocity":0.6456692913385826,"duration":0.08125000000000071},{"name":"C4","midi":60,"time":14.900000000000041,"velocity":0.6456692913385826,"duration":0.08333333333333393},{"name":"G3","midi":55,"time":14.985416666666708,"velocity":0.6456692913385826,"duration":0.08333333333333393},{"name":"C3","midi":48,"time":15.070833333333375,"velocity":0.6456692913385826,"duration":0.32916666666666927},{"name":"E3","midi":52,"time":15.150000000000043,"velocity":0.6456692913385826,"duration":0.08333333333333393},{"name":"G3","midi":55,"time":15.233333333333377,"velocity":0.6456692913385826,"duration":0.08541666666666714},{"name":"E3","midi":52,"time":15.318750000000044,"velocity":0.6456692913385826,"duration":0.08125000000000071},{"name":"A2","midi":45,"time":15.402083333333378,"velocity":0.6456692913385826,"duration":0.08125000000000071},{"name":"E3","midi":52,"time":15.485416666666712,"velocity":0.6456692913385826,"duration":0.08125000000000071},{"name":"F3","midi":53,"time":15.566666666666713,"velocity":0.6456692913385826,"duration":0.08125000000000071},{"name":"G3","midi":55,"time":15.650000000000047,"velocity":0.6456692913385826,"duration":0.08125000000000071},{"name":"A3","midi":57,"time":15.73333333333338,"velocity":0.6456692913385826,"duration":0.08125000000000071},{"name":"B3","midi":59,"time":15.814583333333381,"velocity":0.6456692913385826,"duration":0.08333333333333393},{"name":"C4","midi":60,"time":15.900000000000048,"velocity":0.6456692913385826,"duration":0.0791666666666675},{"name":"D4","midi":62,"time":15.981250000000049,"velocity":0.6456692913385826,"duration":0.08125000000000071},{"name":"C4","midi":60,"time":16.06250000000005,"velocity":0.6456692913385826,"duration":0.08333333333333215},{"name":"A3","midi":57,"time":16.147916666666717,"velocity":0.6456692913385826,"duration":0.07916666666666572},{"name":"B3","midi":59,"time":16.229166666666718,"velocity":0.6456692913385826,"duration":0.07916666666666572},{"name":"C4","midi":60,"time":16.308333333333383,"velocity":0.6456692913385826,"duration":0.08125000000000071},{"name":"D4","midi":62,"time":16.39166666666672,"velocity":0.6456692913385826,"duration":0.08125000000000071},{"name":"E4","midi":64,"time":16.47291666666672,"velocity":0.6456692913385826,"duration":0.08125000000000071},{"name":"F4","midi":65,"time":16.55416666666672,"velocity":0.6456692913385826,"duration":0.07916666666666572},{"name":"G4","midi":67,"time":16.63541666666672,"velocity":0.6456692913385826,"duration":0.07916666666666572},{"name":"D4","midi":62,"time":16.714583333333387,"velocity":0.6456692913385826,"duration":0.33541666666666714},{"name":"F4","midi":65,"time":16.79791666666672,"velocity":0.6456692913385826,"duration":0.08333333333333215},{"name":"A4","midi":69,"time":16.883333333333386,"velocity":0.6456692913385826,"duration":0.08125000000000071},{"name":"F4","midi":65,"time":16.964583333333387,"velocity":0.6456692913385826,"duration":0.08333333333333215},{"name":"A3","midi":57,"time":17.050000000000054,"velocity":0.6456692913385826,"duration":0.3333333333333357},{"name":"D4","midi":62,"time":17.131250000000055,"velocity":0.6456692913385826,"duration":0.08333333333333215},{"name":"F4","midi":65,"time":17.214583333333387,"velocity":0.6456692913385826,"duration":0.08333333333333215},{"name":"D4","midi":62,"time":17.300000000000054,"velocity":0.6456692913385826,"duration":0.08125000000000071},{"name":"F3","midi":53,"time":17.38333333333339,"velocity":0.6456692913385826,"duration":0.33125000000000426},{"name":"A3","midi":57,"time":17.46458333333339,"velocity":0.6456692913385826,"duration":0.08333333333333215},{"name":"D4","midi":62,"time":17.550000000000058,"velocity":0.6456692913385826,"duration":0.08125000000000071},{"name":"A3","midi":57,"time":17.633333333333393,"velocity":0.6456692913385826,"duration":0.08125000000000071},{"name":"D3","midi":50,"time":17.71666666666673,"velocity":0.6456692913385826,"duration":0.3333333333333357},{"name":"F3","midi":53,"time":17.79791666666673,"velocity":0.6456692913385826,"duration":0.08333333333333215},{"name":"A3","midi":57,"time":17.883333333333397,"velocity":0.6456692913385826,"duration":0.08125000000000071},{"name":"F3","midi":53,"time":17.964583333333398,"velocity":0.6456692913385826,"duration":0.08333333333333215},{"name":"A#2","midi":46,"time":18.050000000000065,"velocity":0.6456692913385826,"duration":0.3333333333333357},{"name":"F3","midi":53,"time":18.131250000000065,"velocity":0.6456692913385826,"duration":0.08333333333333215},{"name":"D4","midi":62,"time":18.214583333333398,"velocity":0.6456692913385826,"duration":0.08333333333333215},{"name":"F3","midi":53,"time":18.300000000000065,"velocity":0.6456692913385826,"duration":0.08125000000000071},{"name":"G2","midi":43,"time":18.3833333333334,"velocity":0.6456692913385826,"duration":0.33125000000000426},{"name":"F3","midi":53,"time":18.4645833333334,"velocity":0.6456692913385826,"duration":0.08333333333333215},{"name":"A#3","midi":58,"time":18.550000000000068,"velocity":0.6456692913385826,"duration":0.08125000000000071},{"name":"F3","midi":53,"time":18.633333333333404,"velocity":0.6456692913385826,"duration":0.08125000000000071},{"name":"A2","midi":45,"time":18.71666666666674,"velocity":0.6456692913385826,"duration":0.3333333333333357},{"name":"F3","midi":53,"time":18.79791666666674,"velocity":0.6456692913385826,"duration":0.08333333333333215},{"name":"C4","midi":60,"time":18.883333333333407,"velocity":0.6456692913385826,"duration":0.08333333333333215},{"name":"F3","midi":53,"time":18.96666666666674,"velocity":0.6456692913385826,"duration":0.08125000000000071},{"name":"F2","midi":41,"time":19.050000000000075,"velocity":0.6456692913385826,"duration":0.3333333333333357},{"name":"F3","midi":53,"time":19.131250000000076,"velocity":0.6456692913385826,"duration":0.08541666666666714},{"name":"D#4","midi":63,"time":19.218750000000078,"velocity":0.6456692913385826,"duration":0.07916666666666572},{"name":"F3","midi":53,"time":19.30000000000008,"velocity":0.6456692913385826,"duration":0.08333333333333215},{"name":"A#2","midi":46,"time":19.38333333333341,"velocity":0.6456692913385826,"duration":0.3374999999999986},{"name":"F3","midi":53,"time":19.466666666666743,"velocity":0.6456692913385826,"duration":0.08333333333333215},{"name":"D4","midi":62,"time":19.550000000000075,"velocity":0.6456692913385826,"duration":0.08541666666666714},{"name":"F3","midi":53,"time":19.635416666666742,"velocity":0.6456692913385826,"duration":0.08541666666666714},{"name":"G2","midi":43,"time":19.722916666666745,"velocity":0.6456692913385826,"duration":0.33333333333333925},{"name":"F3","midi":53,"time":19.804166666666745,"velocity":0.6456692913385826,"duration":0.08541666666666714},{"name":"A#3","midi":58,"time":19.889583333333412,"velocity":0.6456692913385826,"duration":0.08125000000000071},{"name":"F3","midi":53,"time":19.972916666666748,"velocity":0.6456692913385826,"duration":0.08125000000000071},{"name":"A2","midi":45,"time":20.056250000000084,"velocity":0.6456692913385826,"duration":0.33333333333333215},{"name":"F3","midi":53,"time":20.137500000000085,"velocity":0.6456692913385826,"duration":0.08333333333333215},{"name":"C4","midi":60,"time":20.220833333333417,"velocity":0.6456692913385826,"duration":0.08333333333333215},{"name":"F3","midi":53,"time":20.306250000000084,"velocity":0.6456692913385826,"duration":0.08333333333333215},{"name":"F2","midi":41,"time":20.39166666666675,"velocity":0.6456692913385826,"duration":0.3312500000000007},{"name":"F3","midi":53,"time":20.470833333333417,"velocity":0.6456692913385826,"duration":0.08333333333333215},{"name":"D#4","midi":63,"time":20.556250000000084,"velocity":0.6456692913385826,"duration":0.08333333333333215},{"name":"F3","midi":53,"time":20.639583333333416,"velocity":0.6456692913385826,"duration":0.08125000000000071},{"name":"A#2","midi":46,"time":20.72291666666675,"velocity":0.6456692913385826,"duration":0.33333333333333925},{"name":"F3","midi":53,"time":20.804166666666752,"velocity":0.6456692913385826,"duration":0.08541666666666714},{"name":"D4","midi":62,"time":20.88958333333342,"velocity":0.6456692913385826,"duration":0.08125000000000071},{"name":"F3","midi":53,"time":20.972916666666755,"velocity":0.6456692913385826,"duration":0.08125000000000071},{"name":"B2","midi":47,"time":21.05625000000009,"velocity":0.6456692913385826,"duration":0.3333333333333357},{"name":"G3","midi":55,"time":21.139583333333423,"velocity":0.6456692913385826,"duration":0.08125000000000071},{"name":"F4","midi":65,"time":21.22291666666676,"velocity":0.6456692913385826,"duration":0.08125000000000071},{"name":"G3","midi":55,"time":21.306250000000095,"velocity":0.6456692913385826,"duration":0.08333333333333215},{"name":"C3","midi":48,"time":21.39166666666676,"velocity":0.6456692913385826,"duration":0.3312500000000007},{"name":"G3","midi":55,"time":21.470833333333427,"velocity":0.6456692913385826,"duration":0.08333333333333215},{"name":"E4","midi":64,"time":21.556250000000095,"velocity":0.6456692913385826,"duration":0.08333333333333215},{"name":"G3","midi":55,"time":21.639583333333427,"velocity":0.6456692913385826,"duration":0.08125000000000071},{"name":"C#3","midi":49,"time":21.722916666666762,"velocity":0.6456692913385826,"duration":0.33333333333333925},{"name":"A3","midi":57,"time":21.804166666666763,"velocity":0.6456692913385826,"duration":0.08541666666666714},{"name":"G4","midi":67,"time":21.88958333333343,"velocity":0.6456692913385826,"duration":0.08125000000000071},{"name":"A3","midi":57,"time":21.972916666666766,"velocity":0.6456692913385826,"duration":0.08125000000000071},{"name":"D3","midi":50,"time":22.0562500000001,"velocity":0.6456692913385826,"duration":0.3333333333333357},{"name":"A3","midi":57,"time":22.139583333333434,"velocity":0.6456692913385826,"duration":0.08125000000000071},{"name":"F4","midi":65,"time":22.22291666666677,"velocity":0.6456692913385826,"duration":0.08125000000000071},{"name":"A3","midi":57,"time":22.306250000000105,"velocity":0.6456692913385826,"duration":0.08333333333333215},{"name":"D2","midi":38,"time":22.391666666666772,"velocity":0.6456692913385826,"duration":0.3312500000000007},{"name":"A#3","midi":58,"time":22.470833333333438,"velocity":0.6456692913385826,"duration":0.08333333333333215},{"name":"A4","midi":69,"time":22.556250000000105,"velocity":0.6377952755905512,"duration":0.08333333333333215},{"name":"A#3","midi":58,"time":22.639583333333437,"velocity":0.6456692913385826,"duration":0.08125000000000071},{"name":"E2","midi":40,"time":22.722916666666773,"velocity":0.6456692913385826,"duration":0.33125000000000426},{"name":"A#3","midi":58,"time":22.804166666666774,"velocity":0.6456692913385826,"duration":0.08541666666666714},{"name":"G4","midi":67,"time":22.88958333333344,"velocity":0.6456692913385826,"duration":0.08125000000000071},{"name":"A#3","midi":58,"time":22.972916666666777,"velocity":0.6456692913385826,"duration":0.07916666666666572},{"name":"E3","midi":52,"time":23.054166666666777,"velocity":0.6456692913385826,"duration":0.3291666666666728},{"name":"C4","midi":60,"time":23.135416666666778,"velocity":0.6456692913385826,"duration":0.08125000000000071},{"name":"A#4","midi":70,"time":23.218750000000114,"velocity":0.6377952755905512,"duration":0.08125000000000071},{"name":"C4","midi":60,"time":23.30208333333345,"velocity":0.6456692913385826,"duration":0.08125000000000071},{"name":"F3","midi":53,"time":23.385416666666785,"velocity":0.6456692913385826,"duration":0.3270833333333343},{"name":"C4","midi":60,"time":23.46458333333345,"velocity":0.6456692913385826,"duration":0.08333333333333215},{"name":"A4","midi":69,"time":23.547916666666783,"velocity":0.6377952755905512,"duration":0.08125000000000071},{"name":"C4","midi":60,"time":23.629166666666784,"velocity":0.6456692913385826,"duration":0.08125000000000071},{"name":"F2","midi":41,"time":23.71250000000012,"velocity":0.6456692913385826,"duration":0.32500000000000284},{"name":"D4","midi":62,"time":23.79375000000012,"velocity":0.6456692913385826,"duration":0.07916666666666572},{"name":"C5","midi":72,"time":23.87500000000012,"velocity":0.6377952755905512,"duration":0.07916666666666572},{"name":"D4","midi":62,"time":23.95625000000012,"velocity":0.6456692913385826,"duration":0.08125000000000071},{"name":"G2","midi":43,"time":24.039583333333457,"velocity":0.6456692913385826,"duration":0.32916666666666927},{"name":"D4","midi":62,"time":24.118750000000123,"velocity":0.6456692913385826,"duration":0.08333333333333215},{"name":"A#4","midi":70,"time":24.20416666666679,"velocity":0.6377952755905512,"duration":0.08125000000000071},{"name":"D4","midi":62,"time":24.28541666666679,"velocity":0.6456692913385826,"duration":0.08125000000000071},{"name":"G3","midi":55,"time":24.368750000000126,"velocity":0.6456692913385826,"duration":0.3354166666666636},{"name":"E4","midi":64,"time":24.450000000000127,"velocity":0.6456692913385826,"duration":0.08333333333333215},{"name":"D5","midi":74,"time":24.53333333333346,"velocity":0.6377952755905512,"duration":0.08749999999999858},{"name":"E4","midi":64,"time":24.620833333333458,"velocity":0.6456692913385826,"duration":0.08333333333333215},{"name":"A3","midi":57,"time":24.706250000000125,"velocity":0.6456692913385826,"duration":0.07916666666666572},{"name":"C4","midi":60,"time":24.78541666666679,"velocity":0.6456692913385826,"duration":0.08333333333333215},{"name":"D4","midi":62,"time":24.870833333333458,"velocity":0.6456692913385826,"duration":0.07916666666666572},{"name":"E4","midi":64,"time":24.95208333333346,"velocity":0.6456692913385826,"duration":0.08333333333333215},{"name":"F4","midi":65,"time":25.03541666666679,"velocity":0.6456692913385826,"duration":0.08333333333333215},{"name":"G4","midi":67,"time":25.118750000000123,"velocity":0.6456692913385826,"duration":0.08333333333333215},{"name":"A4","midi":69,"time":25.202083333333455,"velocity":0.6062992125984252,"duration":0.08333333333333215},{"name":"A#4","midi":70,"time":25.287500000000122,"velocity":0.6062992125984252,"duration":0.08125000000000071},{"name":"C5","midi":72,"time":25.368750000000123,"velocity":0.6062992125984252,"duration":0.08125000000000071},{"name":"A#4","midi":70,"time":25.450000000000124,"velocity":0.6062992125984252,"duration":0.08125000000000071},{"name":"A4","midi":69,"time":25.53333333333346,"velocity":0.6062992125984252,"duration":0.07916666666666572},{"name":"G4","midi":67,"time":25.612500000000125,"velocity":0.6456692913385826,"duration":0.07916666666666572},{"name":"F4","midi":65,"time":25.693750000000126,"velocity":0.6456692913385826,"duration":0.07708333333333428},{"name":"D#4","midi":63,"time":25.77083333333346,"velocity":0.6456692913385826,"duration":0.07708333333333428},{"name":"D4","midi":62,"time":25.85000000000013,"velocity":0.6456692913385826,"duration":0.07499999999999929},{"name":"C4","midi":60,"time":25.927083333333464,"velocity":0.6456692913385826,"duration":0.07916666666666572},{"name":"D4","midi":62,"time":26.00625000000013,"velocity":0.6456692913385826,"duration":0.07916666666666572},{"name":"A#3","midi":58,"time":26.08750000000013,"velocity":0.6456692913385826,"duration":0.08125000000000071},{"name":"A3","midi":57,"time":26.16875000000013,"velocity":0.6456692913385826,"duration":0.07916666666666572},{"name":"G3","midi":55,"time":26.25000000000013,"velocity":0.6456692913385826,"duration":0.08125000000000071},{"name":"F3","midi":53,"time":26.333333333333467,"velocity":0.6456692913385826,"duration":0.08125000000000071},{"name":"D#3","midi":51,"time":26.414583333333468,"velocity":0.6456692913385826,"duration":0.08125000000000071},{"name":"D3","midi":50,"time":26.497916666666804,"velocity":0.6456692913385826,"duration":0.07916666666666572},{"name":"C3","midi":48,"time":26.579166666666804,"velocity":0.6456692913385826,"duration":0.08125000000000071},{"name":"A#2","midi":46,"time":26.660416666666805,"velocity":0.6456692913385826,"duration":0.08125000000000071},{"name":"C3","midi":48,"time":26.74375000000014,"velocity":0.6456692913385826,"duration":0.08125000000000071},{"name":"D3","midi":50,"time":26.82500000000014,"velocity":0.6456692913385826,"duration":0.08125000000000071},{"name":"C3","midi":48,"time":26.906250000000142,"velocity":0.6456692913385826,"duration":0.08125000000000071},{"name":"A#2","midi":46,"time":26.989583333333478,"velocity":0.6456692913385826,"duration":0.08125000000000071},{"name":"A2","midi":45,"time":27.07083333333348,"velocity":0.6456692913385826,"duration":0.08125000000000071},{"name":"G2","midi":43,"time":27.15208333333348,"velocity":0.6456692913385826,"duration":0.08333333333333215},{"name":"F2","midi":41,"time":27.237500000000146,"velocity":0.6456692913385826,"duration":0.08333333333333215},{"name":"E2","midi":40,"time":27.32083333333348,"velocity":0.6456692913385826,"duration":0.33541666666666714},{"name":"C4","midi":60,"time":27.40208333333348,"velocity":0.6456692913385826,"duration":0.08541666666666714},{"name":"A#4","midi":70,"time":27.48958333333348,"velocity":0.6456692913385826,"duration":0.08333333333333215},{"name":"C4","midi":60,"time":27.572916666666814,"velocity":0.6456692913385826,"duration":0.08333333333333215},{"name":"F2","midi":41,"time":27.65833333333348,"velocity":0.6456692913385826,"duration":0.33750000000000213},{"name":"C4","midi":60,"time":27.73958333333348,"velocity":0.6456692913385826,"duration":0.08541666666666714},{"name":"A4","midi":69,"time":27.82500000000015,"velocity":0.6456692913385826,"duration":0.08541666666666714},{"name":"C4","midi":60,"time":27.910416666666816,"velocity":0.6456692913385826,"duration":0.08333333333333215},{"name":"D2","midi":38,"time":27.995833333333483,"velocity":0.6456692913385826,"duration":0.341666666666665},{"name":"A#3","midi":58,"time":28.079166666666815,"velocity":0.6456692913385826,"duration":0.08541666666666714},{"name":"A4","midi":69,"time":28.164583333333482,"velocity":0.6456692913385826,"duration":0.08541666666666714},{"name":"A#3","midi":58,"time":28.25000000000015,"velocity":0.6456692913385826,"duration":0.08749999999999858},{"name":"E2","midi":40,"time":28.339583333333483,"velocity":0.6456692913385826,"duration":0.33750000000000213},{"name":"A#3","midi":58,"time":28.420833333333483,"velocity":0.6456692913385826,"duration":0.08541666666666714},{"name":"G4","midi":67,"time":28.50625000000015,"velocity":0.6456692913385826,"duration":0.08333333333333215},{"name":"A#3","midi":58,"time":28.591666666666818,"velocity":0.6456692913385826,"duration":0.08333333333333215},{"name":"F2","midi":41,"time":28.677083333333485,"velocity":0.6456692913385826,"duration":0.33958333333333357},{"name":"A3","midi":57,"time":28.762500000000152,"velocity":0.6456692913385826,"duration":0.08333333333333215},{"name":"G4","midi":67,"time":28.84791666666682,"velocity":0.6456692913385826,"duration":0.08333333333333215},{"name":"A3","midi":57,"time":28.933333333333486,"velocity":0.6456692913385826,"duration":0.08333333333333215},{"name":"A2","midi":45,"time":29.018750000000153,"velocity":0.6456692913385826,"duration":0.3354166666666707},{"name":"A3","midi":57,"time":29.100000000000154,"velocity":0.6456692913385826,"duration":0.08333333333333215},{"name":"F4","midi":65,"time":29.18541666666682,"velocity":0.6456692913385826,"duration":0.08541666666666714},{"name":"A3","midi":57,"time":29.272916666666823,"velocity":0.6456692913385826,"duration":0.08125000000000071},{"name":"A#2","midi":46,"time":29.35625000000016,"velocity":0.6456692913385826,"duration":0.33541666666666714},{"name":"G3","midi":55,"time":29.43958333333349,"velocity":0.6456692913385826,"duration":0.08333333333333215},{"name":"F4","midi":65,"time":29.52500000000016,"velocity":0.6456692913385826,"duration":0.08125000000000071},{"name":"G3","midi":55,"time":29.608333333333494,"velocity":0.6456692913385826,"duration":0.08333333333333215},{"name":"C3","midi":48,"time":29.691666666666826,"velocity":0.6456692913385826,"duration":0.3374999999999986},{"name":"G3","midi":55,"time":29.77500000000016,"velocity":0.6456692913385826,"duration":0.08333333333333215},{"name":"E4","midi":64,"time":29.860416666666826,"velocity":0.6456692913385826,"duration":0.08541666666666714},{"name":"G3","midi":55,"time":29.945833333333493,"velocity":0.6456692913385826,"duration":0.08333333333333215},{"name":"A3","midi":57,"time":30.03125000000016,"velocity":0.6456692913385826,"duration":0.08125000000000071},{"name":"F2","midi":41,"time":30.03125000000016,"velocity":0.6456692913385826,"duration":0.33541666666666714},{"name":"C4","midi":60,"time":30.114583333333496,"velocity":0.6456692913385826,"duration":0.08333333333333215},{"name":"F4","midi":65,"time":30.197916666666828,"velocity":0.6456692913385826,"duration":0.08333333333333215},{"name":"C4","midi":60,"time":30.28125000000016,"velocity":0.6456692913385826,"duration":0.08333333333333215},{"name":"A3","midi":57,"time":30.366666666666827,"velocity":0.6456692913385826,"duration":0.08333333333333215},{"name":"F4","midi":65,"time":30.45000000000016,"velocity":0.6456692913385826,"duration":0.08333333333333215},{"name":"C4","midi":60,"time":30.53333333333349,"velocity":0.6456692913385826,"duration":0.08333333333333215},{"name":"A3","midi":57,"time":30.61875000000016,"velocity":0.6456692913385826,"duration":0.08125000000000071},{"name":"F3","midi":53,"time":30.702083333333494,"velocity":0.6456692913385826,"duration":0.08125000000000071},{"name":"A3","midi":57,"time":30.783333333333495,"velocity":0.6456692913385826,"duration":0.08333333333333215},{"name":"C4","midi":60,"time":30.868750000000162,"velocity":0.6456692913385826,"duration":0.08125000000000071},{"name":"A3","midi":57,"time":30.950000000000163,"velocity":0.6456692913385826,"duration":0.08125000000000071},{"name":"F3","midi":53,"time":31.031250000000163,"velocity":0.6456692913385826,"duration":0.08125000000000071},{"name":"C4","midi":60,"time":31.1145833333335,"velocity":0.6456692913385826,"duration":0.08541666666666714},{"name":"A3","midi":57,"time":31.200000000000166,"velocity":0.6456692913385826,"duration":0.08333333333333215},{"name":"F3","midi":53,"time":31.2833333333335,"velocity":0.6456692913385826,"duration":0.08541666666666714},{"name":"C3","midi":48,"time":31.3708333333335,"velocity":0.6456692913385826,"duration":0.08333333333333215},{"name":"F3","midi":53,"time":31.456250000000168,"velocity":0.6456692913385826,"duration":0.08333333333333215},{"name":"E3","midi":52,"time":31.5395833333335,"velocity":0.6456692913385826,"duration":0.08333333333333215},{"name":"D3","midi":50,"time":31.625000000000167,"velocity":0.6456692913385826,"duration":0.07916666666666572},{"name":"C3","midi":48,"time":31.706250000000168,"velocity":0.6456692913385826,"duration":0.08125000000000071},{"name":"A#2","midi":46,"time":31.78750000000017,"velocity":0.6456692913385826,"duration":0.08333333333333215},{"name":"A2","midi":45,"time":31.872916666666836,"velocity":0.6456692913385826,"duration":0.07916666666666572},{"name":"G2","midi":43,"time":31.954166666666836,"velocity":0.6456692913385826,"duration":0.08124999999999716},{"name":"F2","midi":41,"time":32.03541666666683,"velocity":0.6456692913385826,"duration":0.0833333333333357},{"name":"A2","midi":45,"time":32.1208333333335,"velocity":0.6456692913385826,"duration":0.08124999999999716},{"name":"C3","midi":48,"time":32.20416666666683,"velocity":0.6456692913385826,"duration":0.08541666666666714},{"name":"F3","midi":53,"time":32.289583333333496,"velocity":0.6456692913385826,"duration":0.0833333333333357},{"name":"A3","midi":57,"time":32.37500000000016,"velocity":0.6456692913385826,"duration":0.0833333333333357},{"name":"C4","midi":60,"time":32.46041666666683,"velocity":0.6456692913385826,"duration":0.08749999999999858},{"name":"D#4","midi":63,"time":32.54791666666683,"velocity":0.6456692913385826,"duration":0.08749999999999858},{"name":"F#4","midi":66,"time":32.63541666666683,"velocity":0.6456692913385826,"duration":0.08749999999999858},{"name":"D2","midi":38,"time":32.72500000000016,"velocity":0.6456692913385826,"duration":0.6875},{"name":"F5","midi":77,"time":33.41458333333349,"velocity":0.6062992125984252,"duration":0.6708333333333201},{"name":"A#4","midi":70,"time":33.41458333333349,"velocity":0.6062992125984252,"duration":0.6708333333333201},{"name":"D5","midi":74,"time":33.41666666666682,"velocity":0.6062992125984252,"duration":0.6666666666666572},{"name":"G#4","midi":68,"time":33.41666666666682,"velocity":0.6062992125984252,"duration":0.6666666666666572},{"name":"F3","midi":53,"time":33.41875000000015,"velocity":0.6456692913385826,"duration":0.6624999999999943},{"name":"A#3","midi":58,"time":33.41875000000015,"velocity":0.6456692913385826,"duration":0.6624999999999943},{"name":"D4","midi":62,"time":33.42083333333348,"velocity":0.6456692913385826,"duration":0.6583333333333314},{"name":"D3","midi":50,"time":33.42083333333348,"velocity":0.6456692913385826,"duration":0.6583333333333314},{"name":"A#4","midi":70,"time":34.08750000000014,"velocity":0.6062992125984252,"duration":0.1729166666666586},{"name":"G#4","midi":68,"time":34.08750000000014,"velocity":0.6062992125984252,"duration":0.17083333333332718},{"name":"F5","midi":77,"time":34.08958333333347,"velocity":0.6062992125984252,"duration":0.16874999999999574},{"name":"D5","midi":74,"time":34.08958333333347,"velocity":0.6062992125984252,"duration":0.1666666666666643},{"name":"A#3","midi":58,"time":34.091666666666804,"velocity":0.6456692913385826,"duration":0.16458333333333286},{"name":"F3","midi":53,"time":34.091666666666804,"velocity":0.6456692913385826,"duration":0.16250000000000142},{"name":"D3","midi":50,"time":34.093750000000135,"velocity":0.6456692913385826,"duration":0.16041666666666998},{"name":"D4","midi":62,"time":34.093750000000135,"velocity":0.6456692913385826,"duration":0.16041666666666998},{"name":"D5","midi":74,"time":34.2604166666668,"velocity":0.6062992125984252,"duration":0.6958333333333258},{"name":"F5","midi":77,"time":34.26250000000013,"velocity":0.6062992125984252,"duration":0.6916666666666629},{"name":"B4","midi":71,"time":34.26250000000013,"velocity":0.6062992125984252,"duration":0.6937499999999943},{"name":"G4","midi":67,"time":34.26458333333346,"velocity":0.6456692913385826,"duration":0.6895833333333314},{"name":"D3","midi":50,"time":34.26458333333346,"velocity":0.6456692913385826,"duration":0.6895833333333314},{"name":"G3","midi":55,"time":34.266666666666794,"velocity":0.6456692913385826,"duration":0.6854166666666686},{"name":"B2","midi":47,"time":34.266666666666794,"velocity":0.6456692913385826,"duration":0.6854166666666686},{"name":"G5","midi":79,"time":35.03125000000013,"velocity":0.6062992125984252,"duration":0.08124999999999716},{"name":"G#5","midi":80,"time":35.112500000000125,"velocity":0.6062992125984252,"duration":0.07916666666666572},{"name":"G5","midi":79,"time":35.19375000000012,"velocity":0.6062992125984252,"duration":0.07916666666666572},{"name":"F5","midi":77,"time":35.27291666666679,"velocity":0.6062992125984252,"duration":0.07916666666666572},{"name":"D#5","midi":75,"time":35.352083333333454,"velocity":0.6062992125984252,"duration":0.07916666666666572},{"name":"D5","midi":74,"time":35.43333333333345,"velocity":0.6062992125984252,"duration":0.07916666666666572},{"name":"D#5","midi":75,"time":35.51250000000012,"velocity":0.6062992125984252,"duration":0.07708333333333428},{"name":"F5","midi":77,"time":35.59166666666678,"velocity":0.6062992125984252,"duration":0.08124999999999716},{"name":"D#5","midi":75,"time":35.67291666666678,"velocity":0.6062992125984252,"duration":0.07916666666666572},{"name":"D5","midi":74,"time":35.752083333333445,"velocity":0.6062992125984252,"duration":0.07916666666666572},{"name":"C5","midi":72,"time":35.83333333333344,"velocity":0.6062992125984252,"duration":0.08124999999999716},{"name":"B4","midi":71,"time":35.91458333333344,"velocity":0.6062992125984252,"duration":0.07916666666666572},{"name":"C5","midi":72,"time":35.99583333333344,"velocity":0.6062992125984252,"duration":0.07916666666666572},{"name":"D5","midi":74,"time":36.077083333333434,"velocity":0.6062992125984252,"duration":0.08124999999999716},{"name":"C5","midi":72,"time":36.15833333333343,"velocity":0.6062992125984252,"duration":0.07916666666666572},{"name":"B4","midi":71,"time":36.23958333333343,"velocity":0.6062992125984252,"duration":0.08124999999999716},{"name":"A4","midi":69,"time":36.320833333333425,"velocity":0.6062992125984252,"duration":0.08124999999999716},{"name":"G4","midi":67,"time":36.40208333333342,"velocity":0.6456692913385826,"duration":0.08124999999999716},{"name":"A4","midi":69,"time":36.48541666666675,"velocity":0.6062992125984252,"duration":0.08124999999999716},{"name":"B4","midi":71,"time":36.56666666666675,"velocity":0.6062992125984252,"duration":0.08124999999999716},{"name":"A4","midi":69,"time":36.65000000000008,"velocity":0.6062992125984252,"duration":0.07916666666666572},{"name":"G4","midi":67,"time":36.731250000000074,"velocity":0.6456692913385826,"duration":0.0833333333333357},{"name":"F4","midi":65,"time":36.81458333333341,"velocity":0.6456692913385826,"duration":0.08124999999999716},{"name":"D#4","midi":63,"time":36.89791666666674,"velocity":0.6456692913385826,"duration":0.07916666666666572},{"name":"D4","midi":62,"time":36.979166666666735,"velocity":0.6456692913385826,"duration":0.08124999999999716},{"name":"C4","midi":60,"time":37.06041666666673,"velocity":0.6456692913385826,"duration":0.08124999999999716},{"name":"A#3","midi":58,"time":37.14375000000006,"velocity":0.6456692913385826,"duration":0.08124999999999716},{"name":"G#3","midi":56,"time":37.22500000000006,"velocity":0.6456692913385826,"duration":0.07916666666666572},{"name":"G3","midi":55,"time":37.304166666666724,"velocity":0.6456692913385826,"duration":0.08124999999999716},{"name":"F3","midi":53,"time":37.38750000000005,"velocity":0.6456692913385826,"duration":0.08124999999999716},{"name":"D#3","midi":51,"time":37.46875000000005,"velocity":0.6456692913385826,"duration":0.07916666666666572},{"name":"D3","midi":50,"time":37.55000000000005,"velocity":0.6456692913385826,"duration":0.07708333333333428},{"name":"C3","midi":48,"time":37.62916666666671,"velocity":0.6456692913385826,"duration":0.07916666666666572},{"name":"B2","midi":47,"time":37.70833333333338,"velocity":0.6456692913385826,"duration":0.07916666666666572},{"name":"A2","midi":45,"time":37.787500000000044,"velocity":0.6456692913385826,"duration":0.07916666666666572},{"name":"G2","midi":43,"time":37.86666666666671,"velocity":0.6456692913385826,"duration":0.07708333333333428},{"name":"F2","midi":41,"time":37.945833333333375,"velocity":0.6456692913385826,"duration":0.07916666666666572},{"name":"D#2","midi":39,"time":38.02500000000004,"velocity":0.6456692913385826,"duration":0.08124999999999716},{"name":"D2","midi":38,"time":38.10625000000004,"velocity":0.6456692913385826,"duration":0.0833333333333357},{"name":"C2","midi":36,"time":38.191666666666706,"velocity":0.6456692913385826,"duration":0.7124999999999986},{"name":"A#4","midi":70,"time":38.904166666666704,"velocity":0.6456692913385826,"duration":0.5999999999999872},{"name":"D#5","midi":75,"time":38.906250000000036,"velocity":0.6456692913385826,"duration":0.5958333333333243},{"name":"C5","midi":72,"time":38.906250000000036,"velocity":0.6456692913385826,"duration":0.5979166666666558},{"name":"G4","midi":67,"time":38.90833333333337,"velocity":0.6456692913385826,"duration":0.5916666666666615},{"name":"D#3","midi":51,"time":38.90833333333337,"velocity":0.6456692913385826,"duration":0.5937499999999929},{"name":"C4","midi":60,"time":38.9104166666667,"velocity":0.6456692913385826,"duration":0.58958333333333},{"name":"G3","midi":55,"time":38.9104166666667,"velocity":0.6456692913385826,"duration":0.58958333333333},{"name":"C3","midi":48,"time":38.91250000000003,"velocity":0.6456692913385826,"duration":0.5854166666666671},{"name":"A#4","midi":70,"time":39.50625000000002,"velocity":0.6456692913385826,"duration":0.21249999999999147},{"name":"C5","midi":72,"time":39.50625000000002,"velocity":0.6456692913385826,"duration":0.21249999999999147},{"name":"D#5","midi":75,"time":39.508333333333354,"velocity":0.6456692913385826,"duration":0.21041666666666003},{"name":"D#3","midi":51,"time":39.508333333333354,"velocity":0.6456692913385826,"duration":0.2083333333333286},{"name":"G4","midi":67,"time":39.510416666666686,"velocity":0.6456692913385826,"duration":0.20416666666666572},{"name":"G3","midi":55,"time":39.510416666666686,"velocity":0.6456692913385826,"duration":0.20416666666666572},{"name":"C4","midi":60,"time":39.51250000000002,"velocity":0.6456692913385826,"duration":0.20208333333333428},{"name":"C3","midi":48,"time":39.51250000000002,"velocity":0.6456692913385826,"duration":0.20000000000000284},{"name":"C5","midi":72,"time":39.720833333333346,"velocity":0.6456692913385826,"duration":0.7187499999999929},{"name":"A4","midi":69,"time":39.720833333333346,"velocity":0.6456692913385826,"duration":0.7187499999999929},{"name":"D#5","midi":75,"time":39.72291666666668,"velocity":0.6456692913385826,"duration":0.71458333333333},{"name":"F3","midi":53,"time":39.72291666666668,"velocity":0.6456692913385826,"duration":0.7937499999999957},{"name":"C4","midi":60,"time":39.72500000000001,"velocity":0.6456692913385826,"duration":0.7104166666666671},{"name":"F4","midi":65,"time":39.72500000000001,"velocity":0.6456692913385826,"duration":0.7104166666666671},{"name":"A3","midi":57,"time":39.72500000000001,"velocity":0.6456692913385826,"duration":0.7124999999999986},{"name":"C3","midi":48,"time":40.518750000000004,"velocity":0.6456692913385826,"duration":0.08124999999999716},{"name":"D3","midi":50,"time":40.60208333333333,"velocity":0.6456692913385826,"duration":0.08124999999999716},{"name":"D#3","midi":51,"time":40.68333333333333,"velocity":0.6456692913385826,"duration":0.08124999999999716},{"name":"F3","midi":53,"time":40.76666666666666,"velocity":0.6456692913385826,"duration":0.08124999999999716},{"name":"G3","midi":55,"time":40.847916666666656,"velocity":0.6456692913385826,"duration":0.08124999999999716},{"name":"A3","midi":57,"time":40.92916666666665,"velocity":0.6456692913385826,"duration":0.0833333333333357},{"name":"A#3","midi":58,"time":41.01458333333332,"velocity":0.6456692913385826,"duration":0.08124999999999716},{"name":"A3","midi":57,"time":41.09583333333332,"velocity":0.6456692913385826,"duration":0.08124999999999716},{"name":"G3","midi":55,"time":41.177083333333314,"velocity":0.6456692913385826,"duration":0.08124999999999716},{"name":"F3","midi":53,"time":41.26041666666664,"velocity":0.6456692913385826,"duration":0.08124999999999716},{"name":"G3","midi":55,"time":41.34166666666664,"velocity":0.6456692913385826,"duration":0.0833333333333357},{"name":"A3","midi":57,"time":41.424999999999976,"velocity":0.6456692913385826,"duration":0.0833333333333357},{"name":"A#3","midi":58,"time":41.51041666666664,"velocity":0.6456692913385826,"duration":0.08124999999999716},{"name":"C4","midi":60,"time":41.59166666666664,"velocity":0.6456692913385826,"duration":0.0833333333333357},{"name":"D4","midi":62,"time":41.674999999999976,"velocity":0.6456692913385826,"duration":0.08124999999999716},{"name":"C4","midi":60,"time":41.758333333333304,"velocity":0.6456692913385826,"duration":0.08124999999999716},{"name":"A#3","midi":58,"time":41.8395833333333,"velocity":0.6456692913385826,"duration":0.0833333333333357},{"name":"A3","midi":57,"time":41.92499999999997,"velocity":0.6456692913385826,"duration":0.07708333333333428},{"name":"A#3","midi":58,"time":42.004166666666634,"velocity":0.6456692913385826,"duration":0.08124999999999716},{"name":"C4","midi":60,"time":42.08541666666663,"velocity":0.6456692913385826,"duration":0.08124999999999716},{"name":"D4","midi":62,"time":42.16874999999996,"velocity":0.6456692913385826,"duration":0.08124999999999716},{"name":"D#4","midi":63,"time":42.24999999999996,"velocity":0.6456692913385826,"duration":0.07916666666666572},{"name":"F4","midi":65,"time":42.32916666666662,"velocity":0.6456692913385826,"duration":0.08124999999999716},{"name":"D#4","midi":63,"time":42.41249999999995,"velocity":0.6456692913385826,"duration":0.08124999999999716},{"name":"D4","midi":62,"time":42.49374999999995,"velocity":0.6456692913385826,"duration":0.0833333333333357},{"name":"C4","midi":60,"time":42.577083333333285,"velocity":0.6456692913385826,"duration":0.08124999999999716},{"name":"D4","midi":62,"time":42.66041666666661,"velocity":0.6456692913385826,"duration":0.0833333333333357},{"name":"D#4","midi":63,"time":42.74374999999995,"velocity":0.6456692913385826,"duration":0.0833333333333357},{"name":"F4","midi":65,"time":42.827083333333285,"velocity":0.6456692913385826,"duration":0.08124999999999716},{"name":"G4","midi":67,"time":42.91041666666661,"velocity":0.6456692913385826,"duration":0.0833333333333357},{"name":"A4","midi":69,"time":42.99374999999995,"velocity":0.6062992125984252,"duration":0.08124999999999716},{"name":"A#4","midi":70,"time":43.074999999999946,"velocity":0.6062992125984252,"duration":0.0833333333333357},{"name":"C5","midi":72,"time":43.16041666666661,"velocity":0.6062992125984252,"duration":0.08124999999999716},{"name":"D5","midi":74,"time":43.24166666666661,"velocity":0.6062992125984252,"duration":0.0833333333333357},{"name":"D#5","midi":75,"time":43.324999999999946,"velocity":0.6062992125984252,"duration":0.0833333333333357},{"name":"F5","midi":77,"time":43.41041666666661,"velocity":0.5748031496062992,"duration":0.0833333333333357},{"name":"G5","midi":79,"time":43.49374999999995,"velocity":0.5748031496062992,"duration":0.0833333333333357},{"name":"A5","midi":81,"time":43.577083333333285,"velocity":0.5748031496062992,"duration":0.08124999999999716},{"name":"F5","midi":77,"time":43.66041666666661,"velocity":0.5748031496062992,"duration":0.0833333333333357},{"name":"A#5","midi":82,"time":43.74374999999995,"velocity":0.5748031496062992,"duration":0.71458333333333},{"name":"A#4","midi":70,"time":44.45833333333328,"velocity":0.6299212598425197,"duration":0.5354166666666558},{"name":"D5","midi":74,"time":44.46041666666661,"velocity":0.6299212598425197,"duration":0.5312499999999929},{"name":"G#4","midi":68,"time":44.46041666666661,"velocity":0.6299212598425197,"duration":0.5333333333333243},{"name":"A#3","midi":58,"time":44.46041666666661,"velocity":0.6456692913385826,"duration":0.5312499999999929},{"name":"D3","midi":50,"time":44.46249999999994,"velocity":0.6456692913385826,"duration":0.52708333333333},{"name":"F4","midi":65,"time":44.46249999999994,"velocity":0.6456692913385826,"duration":0.5291666666666615},{"name":"F3","midi":53,"time":44.46458333333327,"velocity":0.6456692913385826,"duration":0.5249999999999986},{"name":"A#2","midi":46,"time":44.46458333333327,"velocity":0.6456692913385826,"duration":0.5229166666666671},{"name":"G#4","midi":68,"time":44.995833333333266,"velocity":0.6299212598425197,"duration":0.17499999999999005},{"name":"A#4","midi":70,"time":44.995833333333266,"velocity":0.6299212598425197,"duration":0.1770833333333215},{"name":"D5","midi":74,"time":44.9979166666666,"velocity":0.6299212598425197,"duration":0.1729166666666586},{"name":"F4","midi":65,"time":44.9979166666666,"velocity":0.6456692913385826,"duration":0.17083333333332718},{"name":"A#3","midi":58,"time":44.99999999999993,"velocity":0.6456692913385826,"duration":0.16874999999999574},{"name":"D3","midi":50,"time":44.99999999999993,"velocity":0.6456692913385826,"duration":0.16874999999999574},{"name":"F3","midi":53,"time":44.99999999999993,"velocity":0.6456692913385826,"duration":0.1666666666666643},{"name":"A#2","midi":46,"time":45.00208333333326,"velocity":0.6456692913385826,"duration":0.16458333333333286},{"name":"D5","midi":74,"time":45.17291666666659,"velocity":0.6299212598425197,"duration":0.7041666666666586},{"name":"A#4","midi":70,"time":45.17499999999992,"velocity":0.6299212598425197,"duration":0.7020833333333272},{"name":"D#3","midi":51,"time":45.17499999999992,"velocity":0.6456692913385826,"duration":0.6999999999999957},{"name":"D#4","midi":63,"time":45.17499999999992,"velocity":0.6456692913385826,"duration":0.6999999999999957},{"name":"A#3","midi":58,"time":45.17708333333325,"velocity":0.6456692913385826,"duration":0.6958333333333329},{"name":"G3","midi":55,"time":45.17708333333325,"velocity":0.6456692913385826,"duration":0.6979166666666643},{"name":"G4","midi":67,"time":45.17916666666658,"velocity":0.6456692913385826,"duration":0.6937500000000014},{"name":"A#4","midi":70,"time":45.87916666666658,"velocity":0.6299212598425197,"duration":0.5874999999999915},{"name":"C#5","midi":73,"time":45.87916666666658,"velocity":0.6299212598425197,"duration":0.5874999999999915},{"name":"G3","midi":55,"time":45.88124999999991,"velocity":0.6456692913385826,"duration":0.5833333333333286},{"name":"E3","midi":52,"time":45.88124999999991,"velocity":0.6456692913385826,"duration":0.5833333333333286},{"name":"A#3","midi":58,"time":45.88333333333324,"velocity":0.6456692913385826,"duration":0.5791666666666657},{"name":"G4","midi":67,"time":45.88333333333324,"velocity":0.6456692913385826,"duration":0.5791666666666657},{"name":"C5","midi":72,"time":46.4687499999999,"velocity":0.6299212598425197,"duration":0.1729166666666586},{"name":"A#4","midi":70,"time":46.4687499999999,"velocity":0.6299212598425197,"duration":0.17499999999999005},{"name":"E3","midi":52,"time":46.47083333333323,"velocity":0.6456692913385826,"duration":0.16874999999999574},{"name":"G4","midi":67,"time":46.47083333333323,"velocity":0.6456692913385826,"duration":0.17083333333332718},{"name":"G3","midi":55,"time":46.47291666666656,"velocity":0.6456692913385826,"duration":0.16458333333333286},{"name":"C4","midi":60,"time":46.47291666666656,"velocity":0.6456692913385826,"duration":0.1666666666666643},{"name":"C5","midi":72,"time":46.64374999999989,"velocity":0.6299212598425197,"duration":0.9145833333333258},{"name":"A4","midi":69,"time":46.64583333333322,"velocity":0.6299212598425197,"duration":0.8291666666666586},{"name":"A3","midi":57,"time":46.64583333333322,"velocity":0.6456692913385826,"duration":0.8291666666666586},{"name":"F4","midi":65,"time":46.64791666666655,"velocity":0.6456692913385826,"duration":0.8249999999999957},{"name":"F3","midi":53,"time":46.64791666666655,"velocity":0.6456692913385826,"duration":0.8249999999999957},{"name":"D#4","midi":63,"time":46.649999999999885,"velocity":0.6456692913385826,"duration":0.8208333333333329},{"name":"C4","midi":60,"time":46.649999999999885,"velocity":0.6456692913385826,"duration":0.8208333333333329},{"name":"C5","midi":72,"time":47.558333333333216,"velocity":0.6299212598425197,"duration":0.08541666666666714},{"name":"A4","midi":69,"time":47.645833333333215,"velocity":0.6062992125984252,"duration":0.08749999999999858},{"name":"F4","midi":65,"time":47.73333333333321,"velocity":0.6456692913385826,"duration":0.08749999999999858},{"name":"D#4","midi":63,"time":47.82083333333321,"velocity":0.6456692913385826,"duration":0.0833333333333357},{"name":"F4","midi":65,"time":47.90416666666655,"velocity":0.6456692913385826,"duration":0.0833333333333357},{"name":"A4","midi":69,"time":47.989583333333215,"velocity":0.6062992125984252,"duration":0.0833333333333357},{"name":"C5","midi":72,"time":48.07291666666655,"velocity":0.6062992125984252,"duration":0.0833333333333357},{"name":"A4","midi":69,"time":48.156249999999886,"velocity":0.6062992125984252,"duration":0.08124999999999716},{"name":"C5","midi":72,"time":48.239583333333215,"velocity":0.6062992125984252,"duration":0.0833333333333357},{"name":"A4","midi":69,"time":48.32291666666655,"velocity":0.6062992125984252,"duration":0.08124999999999716},{"name":"F4","midi":65,"time":48.40416666666655,"velocity":0.6456692913385826,"duration":0.08124999999999716},{"name":"D#4","midi":63,"time":48.487499999999876,"velocity":0.6456692913385826,"duration":0.08124999999999716},{"name":"F4","midi":65,"time":48.56874999999987,"velocity":0.6456692913385826,"duration":0.08124999999999716},{"name":"A4","midi":69,"time":48.64999999999987,"velocity":0.6062992125984252,"duration":0.0833333333333357},{"name":"C5","midi":72,"time":48.73541666666654,"velocity":0.6062992125984252,"duration":0.07916666666666572},{"name":"F#5","midi":78,"time":48.816666666666535,"velocity":0.6062992125984252,"duration":0.07916666666666572},{"name":"F5","midi":77,"time":48.8958333333332,"velocity":0.6062992125984252,"duration":0.07916666666666572},{"name":"D#5","midi":75,"time":48.9770833333332,"velocity":0.6062992125984252,"duration":0.07708333333333428},{"name":"C#5","midi":73,"time":49.056249999999864,"velocity":0.6062992125984252,"duration":0.07708333333333428},{"name":"C5","midi":72,"time":49.1333333333332,"velocity":0.6062992125984252,"duration":0.07708333333333428},{"name":"A#4","midi":70,"time":49.212499999999864,"velocity":0.6062992125984252,"duration":0.07708333333333428},{"name":"A4","midi":69,"time":49.2895833333332,"velocity":0.6062992125984252,"duration":0.07916666666666572},{"name":"G4","midi":67,"time":49.368749999999864,"velocity":0.6456692913385826,"duration":0.08124999999999716},{"name":"A4","midi":69,"time":49.44999999999986,"velocity":0.6062992125984252,"duration":0.07916666666666572},{"name":"F4","midi":65,"time":49.52916666666653,"velocity":0.6456692913385826,"duration":0.07708333333333428},{"name":"A4","midi":69,"time":49.60833333333319,"velocity":0.6062992125984252,"duration":0.07708333333333428},{"name":"C5","midi":72,"time":49.68541666666653,"velocity":0.6062992125984252,"duration":0.07708333333333428},{"name":"D#5","midi":75,"time":49.76458333333319,"velocity":0.6062992125984252,"duration":0.07708333333333428},{"name":"F#5","midi":78,"time":49.84166666666653,"velocity":0.6062992125984252,"duration":0.07708333333333428},{"name":"A5","midi":81,"time":49.92083333333319,"velocity":0.6062992125984252,"duration":0.07916666666666572},{"name":"C6","midi":84,"time":49.99999999999986,"velocity":0.6062992125984252,"duration":0.07708333333333428},{"name":"A#5","midi":82,"time":50.07708333333319,"velocity":0.6062992125984252,"duration":0.2395833333333357},{"name":"C5","midi":72,"time":50.31874999999986,"velocity":0.6456692913385826,"duration":0.08124999999999716},{"name":"C#5","midi":73,"time":50.39999999999986,"velocity":0.6456692913385826,"duration":0.34583333333333144},{"name":"A4","midi":69,"time":50.485416666666524,"velocity":0.6456692913385826,"duration":0.08541666666666714},{"name":"A#4","midi":70,"time":50.57291666666652,"velocity":0.6456692913385826,"duration":0.0833333333333357},{"name":"E4","midi":64,"time":50.65833333333319,"velocity":0.6456692913385826,"duration":0.08749999999999858},{"name":"C4","midi":60,"time":50.74791666666652,"velocity":0.6456692913385826,"duration":0.33124999999999716},{"name":"F2","midi":41,"time":50.74791666666652,"velocity":0.6456692913385826,"duration":0.6666666666666572},{"name":"F4","midi":65,"time":50.77291666666652,"velocity":0.6456692913385826,"duration":0.6416666666666586},{"name":"C3","midi":48,"time":50.77499999999985,"velocity":0.6456692913385826,"duration":0.6374999999999957},{"name":"A#4","midi":70,"time":50.79999999999985,"velocity":0.6456692913385826,"duration":0.6124999999999972},{"name":"D#3","midi":51,"time":50.80208333333318,"velocity":0.6456692913385826,"duration":0.6083333333333343},{"name":"C5","midi":72,"time":50.83124999999985,"velocity":0.6456692913385826,"duration":0.5791666666666657},{"name":"F3","midi":53,"time":50.83124999999985,"velocity":0.6456692913385826,"duration":0.7437499999999915},{"name":"D4","midi":62,"time":51.07916666666652,"velocity":0.6456692913385826,"duration":0.3291666666666657},{"name":"C5","midi":72,"time":51.41666666666651,"velocity":0.6456692913385826,"duration":0.6624999999999943},{"name":"A4","midi":69,"time":51.41666666666651,"velocity":0.6456692913385826,"duration":0.6645833333333258},{"name":"D#3","midi":51,"time":51.41874999999984,"velocity":0.6456692913385826,"duration":0.6583333333333314},{"name":"F4","midi":65,"time":51.41874999999984,"velocity":0.6456692913385826,"duration":0.6604166666666629},{"name":"F3","midi":53,"time":51.41874999999984,"velocity":0.6456692913385826,"duration":0.3229166666666643},{"name":"C3","midi":48,"time":51.42083333333317,"velocity":0.6456692913385826,"duration":0.6541666666666686},{"name":"F2","midi":41,"time":51.42083333333317,"velocity":0.6456692913385826,"duration":0.65625},{"name":"G3","midi":55,"time":51.741666666666504,"velocity":0.6456692913385826,"duration":0.3333333333333357},{"name":"A#4","midi":70,"time":52.081249999999834,"velocity":0.6456692913385826,"duration":0.8104166666666544},{"name":"F4","midi":65,"time":52.083333333333165,"velocity":0.6456692913385826,"duration":0.8083333333333229},{"name":"D4","midi":62,"time":52.083333333333165,"velocity":0.6456692913385826,"duration":0.8874999999999886},{"name":"F3","midi":53,"time":52.0854166666665,"velocity":0.6456692913385826,"duration":0.80416666666666},{"name":"G#3","midi":56,"time":52.0854166666665,"velocity":0.6456692913385826,"duration":0.80416666666666},{"name":"D3","midi":50,"time":52.08749999999983,"velocity":0.6456692913385826,"duration":0.7999999999999972},{"name":"A#2","midi":46,"time":52.08749999999983,"velocity":0.6456692913385826,"duration":0.7999999999999972},{"name":"F4","midi":65,"time":52.972916666666485,"velocity":0.6456692913385826,"duration":0.08124999999999716},{"name":"D4","midi":62,"time":53.056249999999814,"velocity":0.6456692913385826,"duration":0.0833333333333357},{"name":"A#3","midi":58,"time":53.13958333333315,"velocity":0.6456692913385826,"duration":0.0833333333333357},{"name":"G#3","midi":56,"time":53.22499999999982,"velocity":0.6456692913385826,"duration":0.08124999999999716},{"name":"A#3","midi":58,"time":53.308333333333145,"velocity":0.6456692913385826,"duration":0.0833333333333357},{"name":"D4","midi":62,"time":53.39374999999981,"velocity":0.6456692913385826,"duration":0.0833333333333357},{"name":"F4","midi":65,"time":53.47708333333315,"velocity":0.6456692913385826,"duration":0.08541666666666714},{"name":"D4","midi":62,"time":53.562499999999815,"velocity":0.6456692913385826,"duration":0.08124999999999716},{"name":"F4","midi":65,"time":53.64374999999981,"velocity":0.6456692913385826,"duration":0.08124999999999716},{"name":"D4","midi":62,"time":53.72499999999981,"velocity":0.6456692913385826,"duration":0.0833333333333357},{"name":"A#3","midi":58,"time":53.808333333333145,"velocity":0.6456692913385826,"duration":0.0833333333333357},{"name":"G#3","midi":56,"time":53.89166666666648,"velocity":0.6456692913385826,"duration":0.0833333333333357},{"name":"A#3","midi":58,"time":53.97499999999982,"velocity":0.6456692913385826,"duration":0.08124999999999716},{"name":"D4","midi":62,"time":54.056249999999814,"velocity":0.6456692913385826,"duration":0.08124999999999716},{"name":"F4","midi":65,"time":54.13958333333314,"velocity":0.6456692913385826,"duration":0.0833333333333357},{"name":"B4","midi":71,"time":54.22291666666648,"velocity":0.6456692913385826,"duration":0.08124999999999716},{"name":"G#4","midi":68,"time":54.304166666666475,"velocity":0.6456692913385826,"duration":0.0833333333333357},{"name":"F4","midi":65,"time":54.38749999999981,"velocity":0.6456692913385826,"duration":0.08541666666666714},{"name":"D4","midi":62,"time":54.47291666666648,"velocity":0.6456692913385826,"duration":0.0833333333333357},{"name":"B3","midi":59,"time":54.556249999999814,"velocity":0.6456692913385826,"duration":0.08541666666666714},{"name":"G#3","midi":56,"time":54.64374999999981,"velocity":0.6456692913385826,"duration":0.0833333333333357},{"name":"F3","midi":53,"time":54.72916666666648,"velocity":0.6456692913385826,"duration":0.08541666666666714},{"name":"D4","midi":62,"time":54.81458333333315,"velocity":0.6456692913385826,"duration":0.05833333333333002},{"name":"G3","midi":55,"time":54.902083333333145,"velocity":0.6456692913385826,"duration":0.38333333333333997},{"name":"D4","midi":62,"time":54.902083333333145,"velocity":0.6456692913385826,"duration":0.06875000000000142},{"name":"D#4","midi":63,"time":54.97083333333315,"velocity":0.6456692913385826,"duration":0.06666666666666998},{"name":"F4","midi":65,"time":55.03958333333315,"velocity":0.6456692913385826,"duration":0.06666666666666998},{"name":"D#4","midi":63,"time":55.10624999999982,"velocity":0.6456692913385826,"duration":0.06666666666666998},{"name":"F4","midi":65,"time":55.17291666666649,"velocity":0.6456692913385826,"duration":0.05624999999999858},{"name":"D#4","midi":63,"time":55.23124999999982,"velocity":0.6456692913385826,"duration":0.13750000000000284},{"name":"D4","midi":62,"time":55.36874999999982,"velocity":0.6456692913385826,"duration":0.07916666666666572},{"name":"C4","midi":60,"time":55.44999999999982,"velocity":0.6456692913385826,"duration":0.07708333333333428},{"name":"D4","midi":62,"time":55.529166666666484,"velocity":0.6456692913385826,"duration":0.07916666666666572},{"name":"D#4","midi":63,"time":55.60833333333315,"velocity":0.6456692913385826,"duration":0.07916666666666572},{"name":"D4","midi":62,"time":55.68958333333315,"velocity":0.6456692913385826,"duration":0.07916666666666572},{"name":"C4","midi":60,"time":55.76874999999981,"velocity":0.6456692913385826,"duration":0.07916666666666572},{"name":"A#3","midi":58,"time":55.84999999999981,"velocity":0.6456692913385826,"duration":0.07916666666666572},{"name":"A3","midi":57,"time":55.93124999999981,"velocity":0.6456692913385826,"duration":0.07916666666666572},{"name":"A#3","midi":58,"time":56.01041666666647,"velocity":0.6456692913385826,"duration":0.07916666666666572},{"name":"C4","midi":60,"time":56.09166666666647,"velocity":0.6456692913385826,"duration":0.08124999999999716},{"name":"A#3","midi":58,"time":56.17291666666647,"velocity":0.6456692913385826,"duration":0.08124999999999716},{"name":"A3","midi":57,"time":56.254166666666464,"velocity":0.6456692913385826,"duration":0.07916666666666572},{"name":"G3","midi":55,"time":56.33541666666646,"velocity":0.6456692913385826,"duration":0.08124999999999716},{"name":"F3","midi":53,"time":56.41666666666646,"velocity":0.6456692913385826,"duration":0.08124999999999716},{"name":"G3","midi":55,"time":56.49999999999979,"velocity":0.6456692913385826,"duration":0.07916666666666572},{"name":"A3","midi":57,"time":56.581249999999784,"velocity":0.6456692913385826,"duration":0.08124999999999716},{"name":"G3","midi":55,"time":56.66249999999978,"velocity":0.6456692913385826,"duration":0.0833333333333357},{"name":"F3","midi":53,"time":56.74791666666645,"velocity":0.6456692913385826,"duration":0.07916666666666572},{"name":"D#3","midi":51,"time":56.829166666666445,"velocity":0.6456692913385826,"duration":0.08124999999999716},{"name":"D3","midi":50,"time":56.91041666666644,"velocity":0.6456692913385826,"duration":0.0833333333333357},{"name":"D#3","midi":51,"time":56.99583333333311,"velocity":0.6456692913385826,"duration":0.08124999999999716},{"name":"F3","midi":53,"time":57.07916666666644,"velocity":0.6456692913385826,"duration":0.0833333333333357},{"name":"D#3","midi":51,"time":57.162499999999774,"velocity":0.6456692913385826,"duration":0.0833333333333357},{"name":"D3","midi":50,"time":57.24791666666644,"velocity":0.6456692913385826,"duration":0.08124999999999716},{"name":"C3","midi":48,"time":57.33124999999977,"velocity":0.6456692913385826,"duration":0.08749999999999858},{"name":"A#2","midi":46,"time":57.41874999999977,"velocity":0.6456692913385826,"duration":0.08541666666666714},{"name":"A2","midi":45,"time":57.504166666666436,"velocity":0.6456692913385826,"duration":0.08541666666666714},{"name":"A#2","midi":46,"time":57.591666666666434,"velocity":0.6456692913385826,"duration":0.34375},{"name":"D3","midi":50,"time":57.6770833333331,"velocity":0.6456692913385826,"duration":0.08541666666666714},{"name":"F3","midi":53,"time":57.76249999999977,"velocity":0.6456692913385826,"duration":0.08541666666666714},{"name":"D3","midi":50,"time":57.84999999999977,"velocity":0.6456692913385826,"duration":0.0833333333333357},{"name":"D3","midi":50,"time":57.935416666666434,"velocity":0.6456692913385826,"duration":0.3395833333333371},{"name":"F3","midi":53,"time":58.0208333333331,"velocity":0.6456692913385826,"duration":0.0833333333333357},{"name":"A#3","midi":58,"time":58.10416666666644,"velocity":0.6456692913385826,"duration":0.08541666666666714},{"name":"F3","midi":53,"time":58.191666666666436,"velocity":0.6456692913385826,"duration":0.0833333333333357},{"name":"F3","midi":53,"time":58.27499999999977,"velocity":0.6456692913385826,"duration":0.32499999999998863},{"name":"A#3","midi":58,"time":58.35624999999977,"velocity":0.6456692913385826,"duration":0.08124999999999716},{"name":"D4","midi":62,"time":58.4395833333331,"velocity":0.6456692913385826,"duration":0.07916666666666572},{"name":"A#3","midi":58,"time":58.51874999999976,"velocity":0.6456692913385826,"duration":0.08124999999999716},{"name":"A#3","midi":58,"time":58.59999999999976,"velocity":0.6456692913385826,"duration":0.3604166666666586},{"name":"D4","midi":62,"time":58.69166666666643,"velocity":0.6456692913385826,"duration":0.08958333333333002},{"name":"F4","midi":65,"time":58.78124999999976,"velocity":0.6456692913385826,"duration":0.08958333333333002},{"name":"D4","midi":62,"time":58.87083333333309,"velocity":0.6456692913385826,"duration":0.08958333333333002},{"name":"D4","midi":62,"time":58.96249999999975,"velocity":0.6456692913385826,"duration":0.3812499999999943},{"name":"F4","midi":65,"time":59.05624999999975,"velocity":0.6456692913385826,"duration":0.09583333333333144},{"name":"A#4","midi":70,"time":59.15208333333308,"velocity":0.6062992125984252,"duration":0.09583333333333144},{"name":"F4","midi":65,"time":59.24791666666641,"velocity":0.6456692913385826,"duration":0.09583333333333144},{"name":"F4","midi":65,"time":59.345833333333076,"velocity":0.6456692913385826,"duration":0.3958333333333357},{"name":"A#4","midi":70,"time":59.43124999999974,"velocity":0.6062992125984252,"duration":0.09583333333333144},{"name":"D5","midi":74,"time":59.527083333333074,"velocity":0.6062992125984252,"duration":0.10833333333333428},{"name":"A#4","midi":70,"time":59.63541666666641,"velocity":0.6062992125984252,"duration":0.10625000000000284},{"name":"A#4","midi":70,"time":59.74374999999974,"velocity":0.6062992125984252,"duration":0.6937500000000014},{"name":"D5","midi":74,"time":59.89791666666641,"velocity":0.6062992125984252,"duration":0.15416666666666856},{"name":"F5","midi":77,"time":60.05416666666641,"velocity":0.6062992125984252,"duration":0.14999999999999858},{"name":"D5","midi":74,"time":60.20624999999974,"velocity":0.6062992125984252,"duration":0.23125000000000284},{"name":"A#5","midi":82,"time":60.439583333333076,"velocity":0.6062992125984252,"duration":0.9979166666666686},{"name":"F4","midi":65,"time":62.21458333333308,"velocity":0.6456692913385826,"duration":0.27708333333333},{"name":"G4","midi":67,"time":62.49166666666641,"velocity":0.6456692913385826,"duration":0.27708333333333},{"name":"F4","midi":65,"time":62.77083333333307,"velocity":0.6456692913385826,"duration":0.27916666666666856},{"name":"A#4","midi":70,"time":63.05208333333307,"velocity":0.5905511811023622,"duration":0.28333333333333144},{"name":"D4","midi":62,"time":63.337499999999736,"velocity":0.6456692913385826,"duration":0.27916666666666856},{"name":"C4","midi":60,"time":63.618749999999736,"velocity":0.6456692913385826,"duration":0.27708333333333},{"name":"A4","midi":69,"time":63.8979166666664,"velocity":0.5905511811023622,"duration":0.13333333333333286},{"name":"G4","midi":67,"time":64.03124999999973,"velocity":0.6456692913385826,"duration":0.13750000000000284},{"name":"A#4","midi":70,"time":64.16874999999973,"velocity":0.5905511811023622,"duration":0.13333333333333997},{"name":"A4","midi":69,"time":64.30208333333307,"velocity":0.5905511811023622,"duration":0.13333333333333997},{"name":"G4","midi":67,"time":64.43749999999974,"velocity":0.6456692913385826,"duration":0.13124999999999432},{"name":"F4","midi":65,"time":64.56874999999974,"velocity":0.6456692913385826,"duration":0.13124999999999432},{"name":"C5","midi":72,"time":64.69999999999973,"velocity":0.5905511811023622,"duration":0.26250000000000284},{"name":"D#4","midi":63,"time":64.96249999999974,"velocity":0.6456692913385826,"duration":0.26250000000000284},{"name":"D4","midi":62,"time":65.22708333333307,"velocity":0.6456692913385826,"duration":0.26250000000000284},{"name":"A#4","midi":70,"time":65.4916666666664,"velocity":0.5905511811023622,"duration":0.13124999999999432},{"name":"C5","midi":72,"time":65.6229166666664,"velocity":0.5905511811023622,"duration":0.13124999999999432},{"name":"A4","midi":69,"time":65.75416666666639,"velocity":0.5905511811023622,"duration":0.12916666666666288},{"name":"A#4","midi":70,"time":65.88541666666639,"velocity":0.5905511811023622,"duration":0.13124999999999432},{"name":"C5","midi":72,"time":66.01666666666638,"velocity":0.5905511811023622,"duration":0.12916666666666288},{"name":"D5","midi":74,"time":66.14791666666638,"velocity":0.5905511811023622,"duration":0.12916666666666288},{"name":"D#5","midi":75,"time":66.27916666666637,"velocity":0.5905511811023622,"duration":0.12916666666666288},{"name":"D5","midi":74,"time":66.40833333333303,"velocity":0.5905511811023622,"duration":0.12916666666666288},{"name":"C5","midi":72,"time":66.53958333333303,"velocity":0.5905511811023622,"duration":0.12916666666666288},{"name":"D#5","midi":75,"time":66.66874999999969,"velocity":0.5905511811023622,"duration":0.12708333333333144},{"name":"D5","midi":74,"time":66.79791666666635,"velocity":0.5905511811023622,"duration":0.12916666666666288},{"name":"C5","midi":72,"time":66.92916666666635,"velocity":0.5905511811023622,"duration":0.13124999999999432},{"name":"A#4","midi":70,"time":67.06041666666634,"velocity":0.5905511811023622,"duration":0.13124999999999432},{"name":"C5","midi":72,"time":67.19374999999967,"velocity":0.5905511811023622,"duration":0.12916666666666288},{"name":"A4","midi":69,"time":67.32291666666633,"velocity":0.5905511811023622,"duration":0.13124999999999432},{"name":"A#4","midi":70,"time":67.45416666666632,"velocity":0.5905511811023622,"duration":0.13124999999999432},{"name":"C5","midi":72,"time":67.58749999999965,"velocity":0.5905511811023622,"duration":0.13124999999999432},{"name":"D5","midi":74,"time":67.71874999999964,"velocity":0.5905511811023622,"duration":0.13124999999999432},{"name":"D#5","midi":75,"time":67.84999999999964,"velocity":0.5905511811023622,"duration":0.12916666666666288},{"name":"D5","midi":74,"time":67.98124999999963,"velocity":0.5905511811023622,"duration":0.13124999999999432},{"name":"C5","midi":72,"time":68.11249999999963,"velocity":0.5905511811023622,"duration":0.13124999999999432},{"name":"D#5","midi":75,"time":68.24583333333295,"velocity":0.5905511811023622,"duration":0.12916666666666288},{"name":"D5","midi":74,"time":68.37708333333295,"velocity":0.5905511811023622,"duration":0.39791666666666003},{"name":"A#3","midi":58,"time":68.64374999999961,"velocity":0.6456692913385826,"duration":0.26458333333332007},{"name":"C5","midi":72,"time":68.77499999999961,"velocity":0.5905511811023622,"duration":0.13124999999999432},{"name":"A#4","midi":70,"time":68.90833333333293,"velocity":0.5905511811023622,"duration":0.13333333333332575},{"name":"D4","midi":62,"time":68.91041666666626,"velocity":0.6456692913385826,"duration":0.26458333333332007},{"name":"A4","midi":69,"time":69.04166666666626,"velocity":0.5905511811023622,"duration":0.13124999999999432},{"name":"A#4","midi":70,"time":69.17499999999959,"velocity":0.5905511811023622,"duration":0.12916666666666288},{"name":"A#3","midi":58,"time":69.17499999999959,"velocity":0.6456692913385826,"duration":0.2645833333333343},{"name":"C5","midi":72,"time":69.30624999999958,"velocity":0.5905511811023622,"duration":0.13333333333333997},{"name":"D5","midi":74,"time":69.44166666666625,"velocity":0.5905511811023622,"duration":0.2645833333333343},{"name":"F4","midi":65,"time":69.44166666666625,"velocity":0.6456692913385826,"duration":0.26250000000000284},{"name":"F5","midi":77,"time":69.70624999999959,"velocity":0.5905511811023622,"duration":0.5291666666666686},{"name":"A3","midi":57,"time":69.70833333333292,"velocity":0.6456692913385826,"duration":0.2604166666666714},{"name":"G3","midi":55,"time":69.97083333333292,"velocity":0.6456692913385826,"duration":0.2645833333333343},{"name":"A#4","midi":70,"time":70.23749999999959,"velocity":0.5905511811023622,"duration":0.26458333333332007},{"name":"E4","midi":64,"time":70.23749999999959,"velocity":0.6456692913385826,"duration":0.12916666666666288},{"name":"D4","midi":62,"time":70.36874999999958,"velocity":0.6456692913385826,"duration":0.13124999999999432},{"name":"A4","midi":69,"time":70.5020833333329,"velocity":0.5905511811023622,"duration":0.2666666666666657},{"name":"F4","midi":65,"time":70.50416666666624,"velocity":0.6456692913385826,"duration":0.12916666666666288},{"name":"E4","midi":64,"time":70.6333333333329,"velocity":0.6456692913385826,"duration":0.13333333333333997},{"name":"A#4","midi":70,"time":70.76874999999957,"velocity":0.5905511811023622,"duration":0.26249999999998863},{"name":"D4","midi":62,"time":70.7708333333329,"velocity":0.6456692913385826,"duration":0.12916666666666288},{"name":"C4","midi":60,"time":70.89999999999957,"velocity":0.6456692913385826,"duration":0.13124999999999432},{"name":"E5","midi":76,"time":71.03333333333289,"velocity":0.5905511811023622,"duration":0.2645833333333343},{"name":"G4","midi":67,"time":71.03333333333289,"velocity":0.6456692913385826,"duration":0.2645833333333343},{"name":"G5","midi":79,"time":71.29999999999956,"velocity":0.5905511811023622,"duration":0.5270833333333371},{"name":"A#3","midi":58,"time":71.29999999999956,"velocity":0.6456692913385826,"duration":0.26250000000000284},{"name":"A3","midi":57,"time":71.56458333333289,"velocity":0.6456692913385826,"duration":0.26250000000000284},{"name":"A4","midi":69,"time":71.82916666666623,"velocity":0.5669291338582677,"duration":0.13333333333332575},{"name":"F4","midi":65,"time":71.82916666666623,"velocity":0.6456692913385826,"duration":0.13124999999999432},{"name":"A#4","midi":70,"time":71.96249999999955,"velocity":0.5669291338582677,"duration":0.13333333333332575},{"name":"G4","midi":67,"time":71.96458333333288,"velocity":0.6456692913385826,"duration":0.13124999999999432},{"name":"C5","midi":72,"time":72.09791666666621,"velocity":0.5669291338582677,"duration":0.26249999999998863},{"name":"E4","midi":64,"time":72.09791666666621,"velocity":0.6456692913385826,"duration":0.12916666666666288},{"name":"F4","midi":65,"time":72.22708333333287,"velocity":0.6456692913385826,"duration":0.13124999999999432},{"name":"C5","midi":72,"time":72.3604166666662,"velocity":0.5669291338582677,"duration":0.26458333333332007},{"name":"G4","midi":67,"time":72.36249999999953,"velocity":0.6456692913385826,"duration":0.13124999999999432},{"name":"A4","midi":69,"time":72.49374999999952,"velocity":0.5669291338582677,"duration":0.13124999999999432},{"name":"C5","midi":72,"time":72.62708333333285,"velocity":0.5669291338582677,"duration":0.2604166666666572},{"name":"A#4","midi":70,"time":72.62708333333285,"velocity":0.5669291338582677,"duration":0.12708333333333144},{"name":"A4","midi":69,"time":72.75624999999951,"velocity":0.5669291338582677,"duration":0.13124999999999432},{"name":"C5","midi":72,"time":72.88958333333284,"velocity":0.5669291338582677,"duration":0.26249999999998863},{"name":"G4","midi":67,"time":72.88958333333284,"velocity":0.6456692913385826,"duration":0.12916666666666288},{"name":"A#4","midi":70,"time":73.02083333333283,"velocity":0.5669291338582677,"duration":0.13124999999999432},{"name":"C5","midi":72,"time":73.15208333333283,"velocity":0.5669291338582677,"duration":0.13124999999999432},{"name":"A4","midi":69,"time":73.15416666666616,"velocity":0.5669291338582677,"duration":0.12916666666666288},{"name":"A#4","midi":70,"time":73.28541666666615,"velocity":0.5669291338582677,"duration":0.13124999999999432},{"name":"G4","midi":67,"time":73.28541666666615,"velocity":0.6456692913385826,"duration":0.13124999999999432},{"name":"A4","midi":69,"time":73.41666666666615,"velocity":0.5669291338582677,"duration":0.13333333333332575},{"name":"F4","midi":65,"time":73.41874999999948,"velocity":0.6456692913385826,"duration":0.13124999999999432},{"name":"A#4","midi":70,"time":73.54999999999947,"velocity":0.5669291338582677,"duration":0.13124999999999432},{"name":"G4","midi":67,"time":73.5520833333328,"velocity":0.6456692913385826,"duration":0.12916666666666288},{"name":"C5","midi":72,"time":73.6833333333328,"velocity":0.5669291338582677,"duration":0.2666666666666515},{"name":"E4","midi":64,"time":73.68541666666613,"velocity":0.6456692913385826,"duration":0.12916666666666288},{"name":"F4","midi":65,"time":73.81666666666612,"velocity":0.6456692913385826,"duration":0.13124999999999432},{"name":"C5","midi":72,"time":73.94999999999945,"velocity":0.5669291338582677,"duration":0.2645833333333343},{"name":"G4","midi":67,"time":73.94999999999945,"velocity":0.6456692913385826,"duration":0.12916666666666288},{"name":"A4","midi":69,"time":74.08124999999944,"velocity":0.5669291338582677,"duration":0.13333333333333997},{"name":"C5","midi":72,"time":74.21666666666611,"velocity":0.5669291338582677,"duration":0.26249999999998863},{"name":"A#4","midi":70,"time":74.21666666666611,"velocity":0.5669291338582677,"duration":0.12916666666666288},{"name":"A4","midi":69,"time":74.34791666666611,"velocity":0.5669291338582677,"duration":0.12916666666666288},{"name":"C5","midi":72,"time":74.4791666666661,"velocity":0.5669291338582677,"duration":0.2666666666666515},{"name":"G4","midi":67,"time":74.48124999999943,"velocity":0.6456692913385826,"duration":0.13124999999999432},{"name":"A#4","midi":70,"time":74.61249999999943,"velocity":0.5669291338582677,"duration":0.13124999999999432},{"name":"C5","midi":72,"time":74.74583333333275,"velocity":0.5669291338582677,"duration":0.5312499999999858},{"name":"A4","midi":69,"time":74.74791666666609,"velocity":0.5669291338582677,"duration":0.39374999999999716},{"name":"F3","midi":53,"time":75.01041666666609,"velocity":0.6456692913385826,"duration":0.2666666666666515},{"name":"G4","midi":67,"time":75.14374999999941,"velocity":0.6456692913385826,"duration":0.13124999999999432},{"name":"G3","midi":55,"time":75.27916666666607,"velocity":0.6456692913385826,"duration":0.26249999999998863},{"name":"F4","midi":65,"time":75.27916666666607,"velocity":0.6456692913385826,"duration":0.12916666666666288},{"name":"D#4","midi":63,"time":75.40833333333273,"velocity":0.6456692913385826,"duration":0.13124999999999432},{"name":"F3","midi":53,"time":75.54166666666606,"velocity":0.6456692913385826,"duration":0.26458333333332007},{"name":"D4","midi":62,"time":75.54374999999939,"velocity":0.6456692913385826,"duration":0.13124999999999432},{"name":"D#4","midi":63,"time":75.67499999999939,"velocity":0.6456692913385826,"duration":0.13124999999999432},{"name":"F4","midi":65,"time":75.80833333333271,"velocity":0.6456692913385826,"duration":0.2645833333333343},{"name":"A#3","midi":58,"time":75.80833333333271,"velocity":0.6456692913385826,"duration":0.2666666666666657},{"name":"D5","midi":74,"time":75.93749999999937,"velocity":0.5905511811023622,"duration":0.1354166666666714},{"name":"A#4","midi":70,"time":76.07499999999938,"velocity":0.5905511811023622,"duration":0.5291666666666686},{"name":"D3","midi":50,"time":76.07499999999938,"velocity":0.6456692913385826,"duration":0.2645833333333343},{"name":"D5","midi":74,"time":76.20416666666604,"velocity":0.5905511811023622,"duration":0.13333333333333997},{"name":"D#5","midi":75,"time":76.33958333333271,"velocity":0.5905511811023622,"duration":0.26250000000000284},{"name":"C3","midi":48,"time":76.34166666666604,"velocity":0.6456692913385826,"duration":0.2604166666666714},{"name":"A3","midi":57,"time":76.60416666666605,"velocity":0.6456692913385826,"duration":0.12916666666666288},{"name":"D#4","midi":63,"time":76.60624999999938,"velocity":0.6456692913385826,"duration":0.25833333333332575},{"name":"G3","midi":55,"time":76.73541666666604,"velocity":0.6456692913385826,"duration":0.12916666666666288},{"name":"D4","midi":62,"time":76.86666666666603,"velocity":0.6456692913385826,"duration":0.2604166666666572},{"name":"A#3","midi":58,"time":76.86666666666603,"velocity":0.6456692913385826,"duration":0.12916666666666288},{"name":"A3","midi":57,"time":76.99791666666603,"velocity":0.6456692913385826,"duration":0.12708333333333144},{"name":"G3","midi":55,"time":77.12708333333269,"velocity":0.6456692913385826,"duration":0.13124999999999432},{"name":"D#4","midi":63,"time":77.12916666666602,"velocity":0.6456692913385826,"duration":0.26249999999998863},{"name":"F3","midi":53,"time":77.25833333333269,"velocity":0.6456692913385826,"duration":0.13124999999999432},{"name":"A4","midi":69,"time":77.39166666666601,"velocity":0.5905511811023622,"duration":0.26458333333332007},{"name":"C4","midi":60,"time":77.39374999999934,"velocity":0.6456692913385826,"duration":0.2604166666666572},{"name":"D#5","midi":75,"time":77.522916666666,"velocity":0.5905511811023622,"duration":0.13124999999999432},{"name":"C5","midi":72,"time":77.65624999999933,"velocity":0.5905511811023622,"duration":0.5270833333333371},{"name":"D#3","midi":51,"time":77.65833333333266,"velocity":0.6456692913385826,"duration":0.26250000000000284},{"name":"D#5","midi":75,"time":77.78749999999933,"velocity":0.5905511811023622,"duration":0.13333333333333997},{"name":"F5","midi":77,"time":77.922916666666,"velocity":0.5905511811023622,"duration":0.2604166666666714},{"name":"D3","midi":50,"time":77.922916666666,"velocity":0.6456692913385826,"duration":0.2604166666666714},{"name":"A#3","midi":58,"time":78.185416666666,"velocity":0.6456692913385826,"duration":0.12916666666666288},{"name":"D4","midi":62,"time":78.185416666666,"velocity":0.6456692913385826,"duration":0.12916666666666288},{"name":"C4","midi":60,"time":78.316666666666,"velocity":0.6456692913385826,"duration":0.12916666666666288},{"name":"D#4","midi":63,"time":78.316666666666,"velocity":0.6456692913385826,"duration":0.12916666666666288},{"name":"F4","midi":65,"time":78.44791666666599,"velocity":0.6456692913385826,"duration":0.25833333333332575},{"name":"A3","midi":57,"time":78.44791666666599,"velocity":0.6456692913385826,"duration":0.12708333333333144},{"name":"A#3","midi":58,"time":78.57499999999932,"velocity":0.6456692913385826,"duration":0.13124999999999432},{"name":"A4","midi":69,"time":78.70833333333265,"velocity":0.5905511811023622,"duration":0.12916666666666288},{"name":"F4","midi":65,"time":78.70833333333265,"velocity":0.6456692913385826,"duration":0.2604166666666572},{"name":"C4","midi":60,"time":78.71041666666598,"velocity":0.6456692913385826,"duration":0.12708333333333144},{"name":"A#4","midi":70,"time":78.83749999999931,"velocity":0.5905511811023622,"duration":0.13124999999999432},{"name":"D4","midi":62,"time":78.83958333333264,"velocity":0.6456692913385826,"duration":0.12708333333333144},{"name":"C5","midi":72,"time":78.97083333333264,"velocity":0.5905511811023622,"duration":0.12916666666666288},{"name":"F4","midi":65,"time":78.97083333333264,"velocity":0.6456692913385826,"duration":0.26249999999998863},{"name":"D#4","midi":63,"time":78.97291666666597,"velocity":0.6456692913385826,"duration":0.12708333333333144},{"name":"A#4","midi":70,"time":79.0999999999993,"velocity":0.5905511811023622,"duration":0.13124999999999432},{"name":"D4","midi":62,"time":79.10208333333263,"velocity":0.6456692913385826,"duration":0.12916666666666288},{"name":"A4","midi":69,"time":79.23333333333262,"velocity":0.5905511811023622,"duration":0.13124999999999432},{"name":"F4","midi":65,"time":79.23333333333262,"velocity":0.6456692913385826,"duration":0.26249999999998863},{"name":"C4","midi":60,"time":79.23541666666596,"velocity":0.6456692913385826,"duration":0.12708333333333144},{"name":"C5","midi":72,"time":79.36458333333262,"velocity":0.5905511811023622,"duration":0.12916666666666288},{"name":"D#4","midi":63,"time":79.36666666666595,"velocity":0.6456692913385826,"duration":0.12708333333333144},{"name":"A#4","midi":70,"time":79.49583333333261,"velocity":0.5905511811023622,"duration":0.5270833333333087},{"name":"D4","midi":62,"time":79.49791666666594,"velocity":0.6456692913385826,"duration":0.12708333333333144},{"name":"F4","midi":65,"time":79.49791666666594,"velocity":0.6456692913385826,"duration":0.12708333333333144},{"name":"C4","midi":60,"time":79.6270833333326,"velocity":0.6456692913385826,"duration":0.13124999999999432},{"name":"D#4","midi":63,"time":79.6270833333326,"velocity":0.6456692913385826,"duration":0.12916666666666288},{"name":"A#3","midi":58,"time":79.7583333333326,"velocity":0.6456692913385826,"duration":0.13124999999999432},{"name":"D4","midi":62,"time":79.76041666666593,"velocity":0.6456692913385826,"duration":0.12916666666666288},{"name":"D#4","midi":63,"time":79.89166666666593,"velocity":0.6456692913385826,"duration":0.12916666666666288},{"name":"C4","midi":60,"time":79.89166666666593,"velocity":0.6456692913385826,"duration":0.13124999999999432},{"name":"A3","midi":57,"time":80.02499999999925,"velocity":0.6456692913385826,"duration":0.125},{"name":"F4","midi":65,"time":80.02499999999925,"velocity":0.6456692913385826,"duration":0.25833333333332575},{"name":"A#3","midi":58,"time":80.15208333333258,"velocity":0.6456692913385826,"duration":0.13124999999999432},{"name":"A4","midi":69,"time":80.28541666666591,"velocity":0.5905511811023622,"duration":0.12916666666666288},{"name":"F4","midi":65,"time":80.28541666666591,"velocity":0.6456692913385826,"duration":0.2604166666666572},{"name":"C4","midi":60,"time":80.28749999999924,"velocity":0.6456692913385826,"duration":0.125},{"name":"A#4","midi":70,"time":80.41458333333257,"velocity":0.5905511811023622,"duration":0.12916666666666288},{"name":"D4","midi":62,"time":80.4166666666659,"velocity":0.6456692913385826,"duration":0.12708333333333144},{"name":"C5","midi":72,"time":80.54583333333257,"velocity":0.5905511811023622,"duration":0.12916666666666288},{"name":"F4","midi":65,"time":80.5479166666659,"velocity":0.6456692913385826,"duration":0.2562499999999943},{"name":"D#4","midi":63,"time":80.5479166666659,"velocity":0.6456692913385826,"duration":0.125},{"name":"A#4","midi":70,"time":80.67499999999923,"velocity":0.5905511811023622,"duration":0.12916666666666288},{"name":"D4","midi":62,"time":80.67499999999923,"velocity":0.6456692913385826,"duration":0.12708333333333144},{"name":"A4","midi":69,"time":80.80624999999922,"velocity":0.5905511811023622,"duration":0.12916666666666288},{"name":"F4","midi":65,"time":80.80624999999922,"velocity":0.6456692913385826,"duration":0.2604166666666572},{"name":"C4","midi":60,"time":80.80833333333256,"velocity":0.6456692913385826,"duration":0.12708333333333144},{"name":"C5","midi":72,"time":80.93749999999922,"velocity":0.5905511811023622,"duration":0.12916666666666288},{"name":"D#4","midi":63,"time":80.93749999999922,"velocity":0.6456692913385826,"duration":0.12708333333333144},{"name":"A#4","midi":70,"time":81.06874999999921,"velocity":0.5905511811023622,"duration":0.25833333333332575},{"name":"F4","midi":65,"time":81.06874999999921,"velocity":0.6456692913385826,"duration":0.5270833333333087},{"name":"D4","midi":62,"time":81.07083333333254,"velocity":0.6456692913385826,"duration":0.2562499999999943},{"name":"A#4","midi":70,"time":81.32916666666587,"velocity":0.5905511811023622,"duration":0.26458333333332007},{"name":"D3","midi":50,"time":81.32916666666587,"velocity":0.6456692913385826,"duration":0.13124999999999432},{"name":"C3","midi":48,"time":81.4624999999992,"velocity":0.6456692913385826,"duration":0.13124999999999432},{"name":"D5","midi":74,"time":81.59583333333252,"velocity":0.5905511811023622,"duration":0.26458333333332007},{"name":"A#2","midi":46,"time":81.59791666666585,"velocity":0.6456692913385826,"duration":0.12916666666666288},{"name":"A2","midi":45,"time":81.72708333333252,"velocity":0.6456692913385826,"duration":0.13124999999999432},{"name":"A#4","midi":70,"time":81.86041666666584,"velocity":0.5905511811023622,"duration":0.2645833333333343},{"name":"A#2","midi":46,"time":81.86249999999917,"velocity":0.6456692913385826,"duration":0.12916666666666288},{"name":"C3","midi":48,"time":81.99166666666584,"velocity":0.6456692913385826,"duration":0.13333333333333997},{"name":"F5","midi":77,"time":82.12708333333251,"velocity":0.5905511811023622,"duration":0.26874999999999716},{"name":"D3","midi":50,"time":82.12708333333251,"velocity":0.6456692913385826,"duration":0.2666666666666657},{"name":"A3","midi":57,"time":82.2583333333325,"velocity":0.6456692913385826,"duration":0.1354166666666714},{"name":"A4","midi":69,"time":82.3958333333325,"velocity":0.5905511811023622,"duration":0.2604166666666572},{"name":"F3","midi":53,"time":82.39791666666584,"velocity":0.6456692913385826,"duration":0.52291666666666},{"name":"A3","midi":57,"time":82.52291666666584,"velocity":0.6456692913385826,"duration":0.13124999999999432},{"name":"A#3","midi":58,"time":82.65624999999916,"velocity":0.6456692913385826,"duration":0.2645833333333343},{"name":"G4","midi":67,"time":82.6583333333325,"velocity":0.6456692913385826,"duration":0.2604166666666714},{"name":"E5","midi":76,"time":82.92291666666583,"velocity":0.5905511811023622,"duration":0.12708333333333144},{"name":"A#2","midi":46,"time":82.92291666666583,"velocity":0.6456692913385826,"duration":0.2604166666666572},{"name":"D5","midi":74,"time":83.05208333333249,"velocity":0.5905511811023622,"duration":0.12916666666666288},{"name":"F5","midi":77,"time":83.18333333333248,"velocity":0.5905511811023622,"duration":0.12916666666666288},{"name":"A2","midi":45,"time":83.18333333333248,"velocity":0.6456692913385826,"duration":0.26458333333332007},{"name":"E5","midi":76,"time":83.31458333333248,"velocity":0.5905511811023622,"duration":0.13124999999999432},{"name":"D5","midi":74,"time":83.4479166666658,"velocity":0.5905511811023622,"duration":0.12916666666666288},{"name":"A#2","midi":46,"time":83.44999999999914,"velocity":0.6456692913385826,"duration":0.25833333333332575},{"name":"C5","midi":72,"time":83.5791666666658,"velocity":0.5905511811023622,"duration":0.12916666666666288},{"name":"G5","midi":79,"time":83.7104166666658,"velocity":0.5905511811023622,"duration":0.26250000000000284},{"name":"E3","midi":52,"time":83.7104166666658,"velocity":0.6456692913385826,"duration":0.26250000000000284},{"name":"A#3","midi":58,"time":83.83958333333246,"velocity":0.6456692913385826,"duration":0.13333333333333997},{"name":"A#4","midi":70,"time":83.97499999999913,"velocity":0.5905511811023622,"duration":0.26249999999998863},{"name":"G3","midi":55,"time":83.97499999999913,"velocity":0.6456692913385826,"duration":0.5208333333333144},{"name":"A#3","midi":58,"time":84.10416666666579,"velocity":0.6456692913385826,"duration":0.13124999999999432},{"name":"A4","midi":69,"time":84.23749999999912,"velocity":0.5905511811023622,"duration":0.25833333333332575},{"name":"C4","midi":60,"time":84.23958333333245,"velocity":0.6456692913385826,"duration":0.2541666666666629},{"name":"F5","midi":77,"time":84.49791666666577,"velocity":0.5905511811023622,"duration":0.12708333333333144},{"name":"A2","midi":45,"time":84.49791666666577,"velocity":0.6456692913385826,"duration":0.12708333333333144},{"name":"G5","midi":79,"time":84.6249999999991,"velocity":0.5905511811023622,"duration":0.12916666666666288},{"name":"A#2","midi":46,"time":84.62708333333244,"velocity":0.6456692913385826,"duration":0.12708333333333144},{"name":"E5","midi":76,"time":84.7562499999991,"velocity":0.5905511811023622,"duration":0.12708333333333144},{"name":"C3","midi":48,"time":84.7562499999991,"velocity":0.6456692913385826,"duration":0.2604166666666572},{"name":"F5","midi":77,"time":84.88541666666576,"velocity":0.5905511811023622,"duration":0.13124999999999432},{"name":"G5","midi":79,"time":85.01874999999909,"velocity":0.5905511811023622,"duration":0.13124999999999432},{"name":"E3","midi":52,"time":85.01874999999909,"velocity":0.6456692913385826,"duration":0.12916666666666288},{"name":"C3","midi":48,"time":85.02083333333242,"velocity":0.6456692913385826,"duration":0.25833333333332575},{"name":"A5","midi":81,"time":85.14999999999908,"velocity":0.5905511811023622,"duration":0.12916666666666288},{"name":"F3","midi":53,"time":85.14999999999908,"velocity":0.6456692913385826,"duration":0.12708333333333144},{"name":"A#5","midi":82,"time":85.28124999999908,"velocity":0.5905511811023622,"duration":0.13124999999999432},{"name":"G3","midi":55,"time":85.28124999999908,"velocity":0.6456692913385826,"duration":0.13124999999999432},{"name":"C3","midi":48,"time":85.28333333333241,"velocity":0.6456692913385826,"duration":0.2604166666666572},{"name":"A5","midi":81,"time":85.4145833333324,"velocity":0.5905511811023622,"duration":0.12916666666666288},{"name":"F3","midi":53,"time":85.4145833333324,"velocity":0.6456692913385826,"duration":0.12708333333333144},{"name":"G5","midi":79,"time":85.5458333333324,"velocity":0.5905511811023622,"duration":0.12916666666666288},{"name":"E3","midi":52,"time":85.5458333333324,"velocity":0.6456692913385826,"duration":0.12916666666666288},{"name":"C3","midi":48,"time":85.54791666666573,"velocity":0.6456692913385826,"duration":0.2604166666666572},{"name":"A#5","midi":82,"time":85.67499999999906,"velocity":0.5905511811023622,"duration":0.13124999999999432},{"name":"G3","midi":55,"time":85.67708333333239,"velocity":0.6456692913385826,"duration":0.12916666666666288},{"name":"A5","midi":81,"time":85.80833333333238,"velocity":0.5905511811023622,"duration":0.12916666666666288},{"name":"F3","midi":53,"time":85.81041666666572,"velocity":0.6456692913385826,"duration":0.2562499999999943},{"name":"C3","midi":48,"time":85.81041666666572,"velocity":0.6456692913385826,"duration":0.125},{"name":"G5","midi":79,"time":85.93749999999905,"velocity":0.5905511811023622,"duration":0.12708333333333144},{"name":"A#2","midi":46,"time":85.93958333333238,"velocity":0.6456692913385826,"duration":0.125},{"name":"F5","midi":77,"time":86.06666666666571,"velocity":0.5905511811023622,"duration":0.12916666666666288},{"name":"A2","midi":45,"time":86.06874999999904,"velocity":0.6456692913385826,"duration":0.125},{"name":"G5","midi":79,"time":86.19583333333237,"velocity":0.5905511811023622,"duration":0.12708333333333144},{"name":"A#2","midi":46,"time":86.1979166666657,"velocity":0.6456692913385826,"duration":0.125},{"name":"E5","midi":76,"time":86.32499999999904,"velocity":0.5905511811023622,"duration":0.125},{"name":"C3","midi":48,"time":86.32499999999904,"velocity":0.6456692913385826,"duration":0.2541666666666629},{"name":"F5","midi":77,"time":86.44999999999904,"velocity":0.5905511811023622,"duration":0.12916666666666288},{"name":"G5","midi":79,"time":86.5791666666657,"velocity":0.5905511811023622,"duration":0.12916666666666288},{"name":"E3","midi":52,"time":86.58124999999903,"velocity":0.6456692913385826,"duration":0.12708333333333144},{"name":"C3","midi":48,"time":86.58124999999903,"velocity":0.6456692913385826,"duration":0.25833333333332575},{"name":"A5","midi":81,"time":86.7104166666657,"velocity":0.5905511811023622,"duration":0.12916666666666288},{"name":"F3","midi":53,"time":86.7104166666657,"velocity":0.6456692913385826,"duration":0.12708333333333144},{"name":"A#5","midi":82,"time":86.84166666666569,"velocity":0.5905511811023622,"duration":0.12708333333333144},{"name":"G3","midi":55,"time":86.84166666666569,"velocity":0.6456692913385826,"duration":0.12708333333333144},{"name":"C3","midi":48,"time":86.84374999999902,"velocity":0.6456692913385826,"duration":0.2562500000000085},{"name":"A5","midi":81,"time":86.97083333333235,"velocity":0.5905511811023622,"duration":0.12083333333333712},{"name":"F3","midi":53,"time":86.97083333333235,"velocity":0.6456692913385826,"duration":0.1291666666666771},{"name":"G5","midi":79,"time":87.10208333333236,"velocity":0.5905511811023622,"duration":0.12291666666666856},{"name":"E3","midi":52,"time":87.10208333333236,"velocity":0.6456692913385826,"duration":0.12916666666666288},{"name":"C3","midi":48,"time":87.10416666666569,"velocity":0.6456692913385826,"duration":0.2604166666666714},{"name":"A#5","midi":82,"time":87.23333333333235,"velocity":0.5905511811023622,"duration":0.12083333333333712},{"name":"G3","midi":55,"time":87.23333333333235,"velocity":0.6456692913385826,"duration":0.13125000000000853},{"name":"A5","midi":81,"time":87.3666666666657,"velocity":0.5905511811023622,"duration":0.11874999999999147},{"name":"F3","midi":53,"time":87.3666666666657,"velocity":0.6456692913385826,"duration":0.12708333333333144},{"name":"F2","midi":41,"time":87.36874999999903,"velocity":0.6456692913385826,"duration":0.2562500000000085},{"name":"A#5","midi":82,"time":87.49583333333236,"velocity":0.5905511811023622,"duration":0.12083333333333712},{"name":"A3","midi":57,"time":87.49583333333236,"velocity":0.6456692913385826,"duration":0.1291666666666771},{"name":"A5","midi":81,"time":87.62499999999903,"velocity":0.5905511811023622,"duration":0.11874999999999147},{"name":"A#3","midi":58,"time":87.62708333333237,"velocity":0.6456692913385826,"duration":0.125},{"name":"G5","midi":79,"time":87.75208333333237,"velocity":0.5905511811023622,"duration":0.12083333333333712},{"name":"C4","midi":60,"time":87.7541666666657,"velocity":0.6456692913385826,"duration":0.1291666666666771},{"name":"F#5","midi":78,"time":87.88333333333237,"velocity":0.5905511811023622,"duration":0.11875000000000568},{"name":"D4","midi":62,"time":87.88333333333237,"velocity":0.6456692913385826,"duration":0.2583333333333542},{"name":"G5","midi":79,"time":88.01041666666572,"velocity":0.5905511811023622,"duration":0.12083333333333712},{"name":"A5","midi":81,"time":88.14374999999906,"velocity":0.5905511811023622,"duration":0.12083333333333712},{"name":"D4","midi":62,"time":88.14374999999906,"velocity":0.6456692913385826,"duration":0.26250000000001705},{"name":"F#3","midi":54,"time":88.14583333333239,"velocity":0.6456692913385826,"duration":0.1291666666666771},{"name":"A#5","midi":82,"time":88.27499999999907,"velocity":0.5905511811023622,"duration":0.12083333333333712},{"name":"G3","midi":55,"time":88.27499999999907,"velocity":0.6456692913385826,"duration":0.13125000000000853},{"name":"C6","midi":84,"time":88.40833333333241,"velocity":0.5905511811023622,"duration":0.12083333333333712},{"name":"A3","midi":57,"time":88.41041666666574,"velocity":0.6456692913385826,"duration":0.1291666666666771},{"name":"D4","midi":62,"time":88.41041666666574,"velocity":0.6456692913385826,"duration":0.26250000000001705},{"name":"A#5","midi":82,"time":88.53958333333242,"velocity":0.5905511811023622,"duration":0.12291666666666856},{"name":"G3","midi":55,"time":88.54166666666575,"velocity":0.6456692913385826,"duration":0.1291666666666771},{"name":"A5","midi":81,"time":88.67291666666576,"velocity":0.5905511811023622,"duration":0.12083333333333712},{"name":"D4","midi":62,"time":88.67499999999909,"velocity":0.6456692913385826,"duration":0.26250000000001705},{"name":"F#3","midi":54,"time":88.67499999999909,"velocity":0.6456692913385826,"duration":0.1291666666666771},{"name":"C6","midi":84,"time":88.8062499999991,"velocity":0.5905511811023622,"duration":0.12083333333333712},{"name":"A3","midi":57,"time":88.8062499999991,"velocity":0.6456692913385826,"duration":0.13125000000000853},{"name":"A#5","midi":82,"time":88.93958333333244,"velocity":0.5905511811023622,"duration":0.11875000000000568},{"name":"G3","midi":55,"time":88.93958333333244,"velocity":0.6456692913385826,"duration":0.2583333333333542},{"name":"D4","midi":62,"time":88.93958333333244,"velocity":0.6456692913385826,"duration":0.12708333333334565},{"name":"A5","midi":81,"time":89.06874999999911,"velocity":0.5905511811023622,"duration":0.11875000000000568},{"name":"C4","midi":60,"time":89.06874999999911,"velocity":0.6456692913385826,"duration":0.1291666666666771},{"name":"G5","midi":79,"time":89.19999999999912,"velocity":0.5905511811023622,"duration":0.11875000000000568},{"name":"A#3","midi":58,"time":89.19999999999912,"velocity":0.6456692913385826,"duration":0.12708333333334565},{"name":"A5","midi":81,"time":89.32708333333247,"velocity":0.5905511811023622,"duration":0.12291666666666856},{"name":"C4","midi":60,"time":89.3291666666658,"velocity":0.6456692913385826,"duration":0.12708333333333144},{"name":"F#5","midi":78,"time":89.45833333333246,"velocity":0.5905511811023622,"duration":0.12291666666666856},{"name":"D4","midi":62,"time":89.45833333333246,"velocity":0.6456692913385826,"duration":0.2604166666666856},{"name":"G5","midi":79,"time":89.58958333333247,"velocity":0.5905511811023622,"duration":0.12083333333333712},{"name":"A5","midi":81,"time":89.72083333333248,"velocity":0.5905511811023622,"duration":0.11874999999999147},{"name":"D4","midi":62,"time":89.72083333333248,"velocity":0.6456692913385826,"duration":0.25833333333333997},{"name":"F#3","midi":54,"time":89.72291666666581,"velocity":0.6456692913385826,"duration":0.12708333333333144},{"name":"A#5","midi":82,"time":89.84999999999914,"velocity":0.5905511811023622,"duration":0.12083333333333712},{"name":"G3","midi":55,"time":89.84999999999914,"velocity":0.6456692913385826,"duration":0.1291666666666771},{"name":"C6","midi":84,"time":89.98124999999915,"velocity":0.5905511811023622,"duration":0.11874999999999147},{"name":"D4","midi":62,"time":89.98124999999915,"velocity":0.6456692913385826,"duration":0.2604166666666714},{"name":"A3","midi":57,"time":89.98333333333248,"velocity":0.6456692913385826,"duration":0.125},{"name":"A#5","midi":82,"time":90.11041666666581,"velocity":0.5905511811023622,"duration":0.12083333333333712},{"name":"G3","midi":55,"time":90.11041666666581,"velocity":0.6456692913385826,"duration":0.13125000000000853},{"name":"A5","midi":81,"time":90.24374999999915,"velocity":0.5905511811023622,"duration":0.11666666666666003},{"name":"D4","midi":62,"time":90.24374999999915,"velocity":0.6456692913385826,"duration":0.2604166666666714},{"name":"F#3","midi":54,"time":90.24583333333248,"velocity":0.6456692913385826,"duration":0.125},{"name":"C6","midi":84,"time":90.37291666666582,"velocity":0.5905511811023622,"duration":0.12083333333333712},{"name":"A3","midi":57,"time":90.37291666666582,"velocity":0.6456692913385826,"duration":0.1291666666666771},{"name":"A#5","midi":82,"time":90.50416666666582,"velocity":0.5905511811023622,"duration":0.11874999999999147},{"name":"D4","midi":62,"time":90.50624999999916,"velocity":0.6456692913385826,"duration":0.2562500000000085},{"name":"G3","midi":55,"time":90.50624999999916,"velocity":0.6456692913385826,"duration":0.2541666666666771},{"name":"A5","midi":81,"time":90.63124999999916,"velocity":0.5905511811023622,"duration":0.12083333333333712},{"name":"G5","midi":79,"time":90.76249999999916,"velocity":0.5905511811023622,"duration":0.11666666666666003},{"name":"D3","midi":50,"time":90.7645833333325,"velocity":0.6456692913385826,"duration":0.2500000000000142},{"name":"F5","midi":77,"time":90.88749999999916,"velocity":0.5905511811023622,"duration":0.11875000000000568},{"name":"D#5","midi":75,"time":91.01666666666584,"velocity":0.5905511811023622,"duration":0.11666666666666003},{"name":"C3","midi":48,"time":91.01666666666584,"velocity":0.6456692913385826,"duration":0.25},{"name":"F5","midi":77,"time":91.14166666666584,"velocity":0.5905511811023622,"duration":0.11666666666666003},{"name":"G5","midi":79,"time":91.26874999999917,"velocity":0.5905511811023622,"duration":0.11875000000000568},{"name":"D3","midi":50,"time":91.26874999999917,"velocity":0.6456692913385826,"duration":0.25208333333334565},{"name":"A5","midi":81,"time":91.39583333333252,"velocity":0.5905511811023622,"duration":0.11666666666666003},{"name":"A#5","midi":82,"time":91.52291666666585,"velocity":0.5905511811023622,"duration":0.11875000000000568},{"name":"G2","midi":43,"time":91.52291666666585,"velocity":0.6456692913385826,"duration":0.2541666666666913},{"name":"A5","midi":81,"time":91.6499999999992,"velocity":0.5905511811023622,"duration":0.11875000000000568},{"name":"G5","midi":79,"time":91.77708333333254,"velocity":0.5905511811023622,"duration":0.12291666666666856},{"name":"D#3","midi":51,"time":91.77916666666587,"velocity":0.6456692913385826,"duration":0.25625000000002274},{"name":"A#5","midi":82,"time":91.90833333333255,"velocity":0.5905511811023622,"duration":0.11875000000000568},{"name":"A5","midi":81,"time":92.0354166666659,"velocity":0.5905511811023622,"duration":0.12708333333333144},{"name":"F3","midi":53,"time":92.03749999999923,"velocity":0.6456692913385826,"duration":0.25208333333333144},{"name":"G5","midi":79,"time":92.16458333333256,"velocity":0.5905511811023622,"duration":0.125},{"name":"F5","midi":77,"time":92.29166666666589,"velocity":0.5905511811023622,"duration":0.12291666666666856},{"name":"C3","midi":48,"time":92.29166666666589,"velocity":0.6456692913385826,"duration":0.24791666666666856},{"name":"D#5","midi":75,"time":92.41666666666589,"velocity":0.5905511811023622,"duration":0.12291666666666856},{"name":"D5","midi":74,"time":92.54166666666589,"velocity":0.5905511811023622,"duration":0.12291666666666856},{"name":"A#2","midi":46,"time":92.54166666666589,"velocity":0.6456692913385826,"duration":0.25},{"name":"D#5","midi":75,"time":92.66666666666589,"velocity":0.5905511811023622,"duration":0.125},{"name":"F5","midi":77,"time":92.79374999999922,"velocity":0.5905511811023622,"duration":0.125},{"name":"C3","midi":48,"time":92.79374999999922,"velocity":0.6456692913385826,"duration":0.25208333333333144},{"name":"G5","midi":79,"time":92.91874999999922,"velocity":0.5905511811023622,"duration":0.125},{"name":"A5","midi":81,"time":93.04583333333255,"velocity":0.5905511811023622,"duration":0.12291666666666856},{"name":"F2","midi":41,"time":93.04583333333255,"velocity":0.6456692913385826,"duration":0.2541666666666629},{"name":"G5","midi":79,"time":93.17083333333255,"velocity":0.5905511811023622,"duration":0.12708333333333144},{"name":"F5","midi":77,"time":93.29999999999922,"velocity":0.5905511811023622,"duration":0.125},{"name":"D3","midi":50,"time":93.29999999999922,"velocity":0.6456692913385826,"duration":0.25208333333333144},{"name":"A5","midi":81,"time":93.42499999999922,"velocity":0.5905511811023622,"duration":0.12708333333333144},{"name":"G5","midi":79,"time":93.55416666666588,"velocity":0.5905511811023622,"duration":0.12291666666666856},{"name":"D#3","midi":51,"time":93.55416666666588,"velocity":0.6456692913385826,"duration":0.25208333333333144},{"name":"F5","midi":77,"time":93.67916666666588,"velocity":0.5905511811023622,"duration":0.12708333333333144},{"name":"D#5","midi":75,"time":93.80833333333254,"velocity":0.5905511811023622,"duration":0.12291666666666856},{"name":"A#2","midi":46,"time":93.80833333333254,"velocity":0.6456692913385826,"duration":0.25},{"name":"D5","midi":74,"time":93.93333333333254,"velocity":0.5905511811023622,"duration":0.125},{"name":"C5","midi":72,"time":94.06041666666587,"velocity":0.5905511811023622,"duration":0.12291666666666856},{"name":"A2","midi":45,"time":94.06041666666587,"velocity":0.6456692913385826,"duration":0.25},{"name":"D5","midi":74,"time":94.18541666666587,"velocity":0.5905511811023622,"duration":0.125},{"name":"D#5","midi":75,"time":94.3124999999992,"velocity":0.5905511811023622,"duration":0.12291666666666856},{"name":"A#2","midi":46,"time":94.3124999999992,"velocity":0.6456692913385826,"duration":0.25208333333333144},{"name":"F5","midi":77,"time":94.4374999999992,"velocity":0.5905511811023622,"duration":0.12708333333333144},{"name":"G5","midi":79,"time":94.56666666666587,"velocity":0.5905511811023622,"duration":0.12291666666666856},{"name":"D#2","midi":39,"time":94.56666666666587,"velocity":0.6456692913385826,"duration":0.25208333333333144},{"name":"F#5","midi":78,"time":94.69166666666587,"velocity":0.5905511811023622,"duration":0.12708333333333144},{"name":"E5","midi":76,"time":94.82083333333253,"velocity":0.5905511811023622,"duration":0.12291666666666856},{"name":"C3","midi":48,"time":94.82083333333253,"velocity":0.6456692913385826,"duration":0.25208333333333144},{"name":"G5","midi":79,"time":94.94583333333253,"velocity":0.5905511811023622,"duration":0.12708333333333144},{"name":"F#5","midi":78,"time":95.07499999999919,"velocity":0.5905511811023622,"duration":0.125},{"name":"D3","midi":50,"time":95.07499999999919,"velocity":0.6456692913385826,"duration":0.2541666666666629},{"name":"E5","midi":76,"time":95.19999999999919,"velocity":0.5905511811023622,"duration":0.12708333333333144},{"name":"D5","midi":74,"time":95.32916666666586,"velocity":0.5905511811023622,"duration":0.12708333333333144},{"name":"D4","midi":62,"time":95.33124999999919,"velocity":0.6456692913385826,"duration":0.2562499999999943},{"name":"C5","midi":72,"time":95.45624999999919,"velocity":0.5905511811023622,"duration":0.12916666666666288},{"name":"A#4","midi":70,"time":95.58749999999918,"velocity":0.5905511811023622,"duration":0.12916666666666288},{"name":"D#4","midi":63,"time":95.58958333333251,"velocity":0.6456692913385826,"duration":0.2562499999999943},{"name":"A4","midi":69,"time":95.71666666666584,"velocity":0.5905511811023622,"duration":0.12708333333333144},{"name":"A#4","midi":70,"time":95.84583333333251,"velocity":0.5905511811023622,"duration":0.12916666666666288},{"name":"D4","midi":62,"time":95.84791666666584,"velocity":0.6456692913385826,"duration":0.2562499999999943},{"name":"C5","midi":72,"time":95.97499999999917,"velocity":0.5905511811023622,"duration":0.12916666666666288},{"name":"D5","midi":74,"time":96.10624999999916,"velocity":0.5905511811023622,"duration":0.25833333333332575},{"name":"G4","midi":67,"time":96.10624999999916,"velocity":0.6456692913385826,"duration":0.2562499999999943},{"name":"G3","midi":55,"time":96.23124999999916,"velocity":0.6456692913385826,"duration":0.13124999999999432},{"name":"G5","midi":79,"time":96.36458333333249,"velocity":0.5905511811023622,"duration":0.5166666666666515},{"name":"A#3","midi":58,"time":96.36666666666582,"velocity":0.6456692913385826,"duration":0.25833333333332575},{"name":"D#3","midi":51,"time":96.36666666666582,"velocity":0.6456692913385826,"duration":0.125},{"name":"G3","midi":55,"time":96.49374999999915,"velocity":0.6456692913385826,"duration":0.13124999999999432},{"name":"A3","midi":57,"time":96.62499999999915,"velocity":0.6456692913385826,"duration":0.2562499999999943},{"name":"C3","midi":48,"time":96.62708333333248,"velocity":0.6456692913385826,"duration":0.25208333333333144},{"name":"C5","midi":72,"time":96.88333333333247,"velocity":0.5905511811023622,"duration":0.2541666666666629},{"name":"F#4","midi":66,"time":96.88333333333247,"velocity":0.6456692913385826,"duration":0.125},{"name":"E4","midi":64,"time":97.00833333333247,"velocity":0.6456692913385826,"duration":0.12708333333333144},{"name":"A#4","midi":70,"time":97.13749999999914,"velocity":0.5905511811023622,"duration":0.2541666666666629},{"name":"G4","midi":67,"time":97.13958333333247,"velocity":0.6456692913385826,"duration":0.12291666666666856},{"name":"F#4","midi":66,"time":97.26249999999914,"velocity":0.6456692913385826,"duration":0.12708333333333144},{"name":"C5","midi":72,"time":97.3916666666658,"velocity":0.5905511811023622,"duration":0.2541666666666629},{"name":"E4","midi":64,"time":97.39374999999913,"velocity":0.6456692913385826,"duration":0.12291666666666856},{"name":"D4","midi":62,"time":97.5166666666658,"velocity":0.6456692913385826,"duration":0.12916666666666288},{"name":"F#5","midi":78,"time":97.64583333333246,"velocity":0.5905511811023622,"duration":0.2562499999999943},{"name":"A4","midi":69,"time":97.6479166666658,"velocity":0.5905511811023622,"duration":0.25208333333333144},{"name":"A3","midi":57,"time":97.7729166666658,"velocity":0.6456692913385826,"duration":0.12708333333333144},{"name":"A5","midi":81,"time":97.90208333333246,"velocity":0.5905511811023622,"duration":0.5062499999999943},{"name":"F#3","midi":54,"time":97.90416666666579,"velocity":0.6456692913385826,"duration":0.12083333333333712},{"name":"C4","midi":60,"time":97.90416666666579,"velocity":0.6456692913385826,"duration":0.25208333333333144},{"name":"A3","midi":57,"time":98.02708333333246,"velocity":0.6456692913385826,"duration":0.12708333333333144},{"name":"A#3","midi":58,"time":98.15624999999912,"velocity":0.6456692913385826,"duration":0.25},{"name":"D3","midi":50,"time":98.15833333333245,"velocity":0.6456692913385826,"duration":0.24791666666666856},{"name":"A#4","midi":70,"time":98.41041666666578,"velocity":0.5905511811023622,"duration":0.125},{"name":"G4","midi":67,"time":98.41041666666578,"velocity":0.6456692913385826,"duration":0.125},{"name":"C5","midi":72,"time":98.53541666666578,"velocity":0.5905511811023622,"duration":0.12708333333333144},{"name":"A4","midi":69,"time":98.53749999999911,"velocity":0.5905511811023622,"duration":0.12291666666666856},{"name":"D5","midi":74,"time":98.66249999999911,"velocity":0.5905511811023622,"duration":0.25208333333333144},{"name":"F#4","midi":66,"time":98.66458333333244,"velocity":0.6456692913385826,"duration":0.12291666666666856},{"name":"G4","midi":67,"time":98.78749999999911,"velocity":0.6456692913385826,"duration":0.125},{"name":"D5","midi":74,"time":98.91458333333244,"velocity":0.5905511811023622,"duration":0.2541666666666629},{"name":"A4","midi":69,"time":98.91666666666578,"velocity":0.5905511811023622,"duration":0.12291666666666856},{"name":"F#2","midi":42,"time":98.91666666666578,"velocity":0.6456692913385826,"duration":0.12291666666666856},{"name":"A#4","midi":70,"time":99.04166666666578,"velocity":0.5905511811023622,"duration":0.12708333333333144},{"name":"G2","midi":43,"time":99.04166666666578,"velocity":0.6456692913385826,"duration":0.125},{"name":"D5","midi":74,"time":99.17083333333244,"velocity":0.5905511811023622,"duration":0.25208333333333144},{"name":"C5","midi":72,"time":99.17083333333244,"velocity":0.5905511811023622,"duration":0.12291666666666856},{"name":"A2","midi":45,"time":99.17291666666577,"velocity":0.6456692913385826,"duration":0.12083333333333712},{"name":"A#4","midi":70,"time":99.29583333333244,"velocity":0.5905511811023622,"duration":0.12708333333333144},{"name":"G2","midi":43,"time":99.29583333333244,"velocity":0.6456692913385826,"duration":0.125},{"name":"A4","midi":69,"time":99.4249999999991,"velocity":0.5905511811023622,"duration":0.12083333333333712},{"name":"D5","midi":74,"time":99.4249999999991,"velocity":0.5905511811023622,"duration":0.25},{"name":"F#2","midi":42,"time":99.4249999999991,"velocity":0.6456692913385826,"duration":0.12083333333333712},{"name":"C5","midi":72,"time":99.54791666666577,"velocity":0.5905511811023622,"duration":0.12708333333333144},{"name":"A2","midi":45,"time":99.54791666666577,"velocity":0.6456692913385826,"duration":0.125},{"name":"D5","midi":74,"time":99.6749999999991,"velocity":0.5905511811023622,"duration":0.125},{"name":"A#4","midi":70,"time":99.67708333333243,"velocity":0.5905511811023622,"duration":0.12291666666666856},{"name":"G2","midi":43,"time":99.67708333333243,"velocity":0.6456692913385826,"duration":0.25},{"name":"C5","midi":72,"time":99.7999999999991,"velocity":0.5905511811023622,"duration":0.125},{"name":"A4","midi":69,"time":99.80208333333243,"velocity":0.5905511811023622,"duration":0.12291666666666856},{"name":"A#4","midi":70,"time":99.92708333333243,"velocity":0.5905511811023622,"duration":0.125},{"name":"G4","midi":67,"time":99.92916666666576,"velocity":0.6456692913385826,"duration":0.12083333333333712},{"name":"C5","midi":72,"time":100.05208333333243,"velocity":0.5905511811023622,"duration":0.125},{"name":"A4","midi":69,"time":100.05416666666576,"velocity":0.5905511811023622,"duration":0.12291666666666856},{"name":"D5","midi":74,"time":100.17916666666576,"velocity":0.5905511811023622,"duration":0.25208333333333144},{"name":"F#4","midi":66,"time":100.17916666666576,"velocity":0.6456692913385826,"duration":0.12291666666666856},{"name":"G4","midi":67,"time":100.30416666666576,"velocity":0.6456692913385826,"duration":0.12708333333333144},{"name":"A4","midi":69,"time":100.43333333333243,"velocity":0.5905511811023622,"duration":0.125},{"name":"D5","midi":74,"time":100.43333333333243,"velocity":0.5905511811023622,"duration":0.2541666666666629},{"name":"F#2","midi":42,"time":100.43541666666576,"velocity":0.6456692913385826,"duration":0.12083333333333712},{"name":"A#4","midi":70,"time":100.55833333333243,"velocity":0.5905511811023622,"duration":0.12708333333333144},{"name":"G2","midi":43,"time":100.56041666666576,"velocity":0.6456692913385826,"duration":0.125},{"name":"D5","midi":74,"time":100.68749999999909,"velocity":0.5905511811023622,"duration":0.2541666666666629},{"name":"C5","midi":72,"time":100.68958333333242,"velocity":0.5905511811023622,"duration":0.12291666666666856},{"name":"A2","midi":45,"time":100.68958333333242,"velocity":0.6456692913385826,"duration":0.12083333333333712},{"name":"A#4","midi":70,"time":100.81249999999909,"velocity":0.5905511811023622,"duration":0.12708333333333144},{"name":"G2","midi":43,"time":100.81458333333242,"velocity":0.6456692913385826,"duration":0.125},{"name":"D5","midi":74,"time":100.94166666666575,"velocity":0.5905511811023622,"duration":0.25208333333333144},{"name":"A4","midi":69,"time":100.94374999999908,"velocity":0.5905511811023622,"duration":0.12291666666666856},{"name":"F#2","midi":42,"time":100.94374999999908,"velocity":0.6456692913385826,"duration":0.12083333333333712},{"name":"C5","midi":72,"time":101.06666666666575,"velocity":0.5905511811023622,"duration":0.125},{"name":"A2","midi":45,"time":101.06874999999908,"velocity":0.6456692913385826,"duration":0.12291666666666856},{"name":"D5","midi":74,"time":101.19374999999908,"velocity":0.5905511811023622,"duration":0.25208333333333144},{"name":"A#4","midi":70,"time":101.19583333333242,"velocity":0.5905511811023622,"duration":0.12083333333333712},{"name":"G2","midi":43,"time":101.19583333333242,"velocity":0.6456692913385826,"duration":0.24791666666666856},{"name":"C5","midi":72,"time":101.31874999999908,"velocity":0.5905511811023622,"duration":0.125},{"name":"D5","midi":74,"time":101.44583333333242,"velocity":0.5905511811023622,"duration":0.12291666666666856},{"name":"G3","midi":55,"time":101.44791666666575,"velocity":0.6456692913385826,"duration":0.25},{"name":"D#5","midi":75,"time":101.57083333333242,"velocity":0.5905511811023622,"duration":0.12708333333333144},{"name":"D5","midi":74,"time":101.69999999999908,"velocity":0.5905511811023622,"duration":0.12708333333333144},{"name":"A#3","midi":58,"time":101.69999999999908,"velocity":0.6456692913385826,"duration":0.2562499999999943},{"name":"C5","midi":72,"time":101.82708333333241,"velocity":0.5905511811023622,"duration":0.12708333333333144},{"name":"A#4","midi":70,"time":101.95624999999907,"velocity":0.5905511811023622,"duration":0.12916666666666288},{"name":"G3","midi":55,"time":101.9583333333324,"velocity":0.6456692913385826,"duration":0.2562499999999943},{"name":"G#4","midi":68,"time":102.08541666666574,"velocity":0.5905511811023622,"duration":0.12708333333333144},{"name":"C4","midi":60,"time":102.2145833333324,"velocity":0.6456692913385826,"duration":0.2541666666666629},{"name":"G4","midi":67,"time":102.21666666666573,"velocity":0.6456692913385826,"duration":0.25208333333333144},{"name":"D#5","midi":75,"time":102.34166666666573,"velocity":0.5905511811023622,"duration":0.12708333333333144},{"name":"C5","midi":72,"time":102.4708333333324,"velocity":0.5905511811023622,"duration":0.5124999999999886},{"name":"D#3","midi":51,"time":102.4708333333324,"velocity":0.6456692913385826,"duration":0.2541666666666629},{"name":"D#5","midi":75,"time":102.5958333333324,"velocity":0.5905511811023622,"duration":0.12708333333333144},{"name":"F5","midi":77,"time":102.72499999999906,"velocity":0.5905511811023622,"duration":0.25833333333332575},{"name":"D3","midi":50,"time":102.72499999999906,"velocity":0.6456692913385826,"duration":0.2562499999999943},{"name":"B3","midi":59,"time":102.98333333333238,"velocity":0.6456692913385826,"duration":0.12916666666666288},{"name":"F4","midi":65,"time":102.98541666666571,"velocity":0.6456692913385826,"duration":0.25833333333332575},{"name":"A3","midi":57,"time":103.11249999999905,"velocity":0.6456692913385826,"duration":0.12916666666666288},{"name":"C4","midi":60,"time":103.24374999999904,"velocity":0.6456692913385826,"duration":0.12708333333333144},{"name":"D#4","midi":63,"time":103.24583333333237,"velocity":0.6456692913385826,"duration":0.2541666666666629},{"name":"B3","midi":59,"time":103.37083333333237,"velocity":0.6456692913385826,"duration":0.12708333333333144},{"name":"A3","midi":57,"time":103.49999999999903,"velocity":0.6456692913385826,"duration":0.125},{"name":"F4","midi":65,"time":103.49999999999903,"velocity":0.6456692913385826,"duration":0.25208333333333144},{"name":"G3","midi":55,"time":103.62499999999903,"velocity":0.6456692913385826,"duration":0.12708333333333144},{"name":"B4","midi":71,"time":103.7541666666657,"velocity":0.5905511811023622,"duration":0.25208333333333144},{"name":"D4","midi":62,"time":103.7541666666657,"velocity":0.6456692913385826,"duration":0.25},{"name":"F5","midi":77,"time":103.87708333333237,"velocity":0.5905511811023622,"duration":0.12708333333333144},{"name":"D5","midi":74,"time":104.00624999999903,"velocity":0.5905511811023622,"duration":0.5124999999999886},{"name":"F3","midi":53,"time":104.00833333333236,"velocity":0.6456692913385826,"duration":0.25},{"name":"F5","midi":77,"time":104.13124999999903,"velocity":0.5905511811023622,"duration":0.12708333333333144},{"name":"G5","midi":79,"time":104.26041666666569,"velocity":0.5905511811023622,"duration":0.2562499999999943},{"name":"D#3","midi":51,"time":104.26041666666569,"velocity":0.6456692913385826,"duration":0.2562499999999943},{"name":"C4","midi":60,"time":104.51874999999902,"velocity":0.6456692913385826,"duration":0.12708333333333144},{"name":"D#4","midi":63,"time":104.52083333333235,"velocity":0.6456692913385826,"duration":0.12291666666666856},{"name":"D4","midi":62,"time":104.64583333333235,"velocity":0.6456692913385826,"duration":0.125},{"name":"F4","midi":65,"time":104.64791666666568,"velocity":0.6456692913385826,"duration":0.12291666666666856},{"name":"G4","midi":67,"time":104.77291666666568,"velocity":0.6456692913385826,"duration":0.25208333333333144},{"name":"B3","midi":59,"time":104.77291666666568,"velocity":0.6456692913385826,"duration":0.125},{"name":"C4","midi":60,"time":104.89999999999901,"velocity":0.6456692913385826,"duration":0.125},{"name":"B4","midi":71,"time":105.02499999999901,"velocity":0.5905511811023622,"duration":0.125},{"name":"G4","midi":67,"time":105.02708333333234,"velocity":0.6456692913385826,"duration":0.25},{"name":"D4","midi":62,"time":105.02708333333234,"velocity":0.6456692913385826,"duration":0.12291666666666856},{"name":"C5","midi":72,"time":105.15208333333234,"velocity":0.5905511811023622,"duration":0.125},{"name":"D#4","midi":63,"time":105.15208333333234,"velocity":0.6456692913385826,"duration":0.12291666666666856},{"name":"D5","midi":74,"time":105.27916666666567,"velocity":0.5905511811023622,"duration":0.12291666666666856},{"name":"G4","midi":67,"time":105.27916666666567,"velocity":0.6456692913385826,"duration":0.25208333333333144},{"name":"F4","midi":65,"time":105.281249999999,"velocity":0.6456692913385826,"duration":0.12083333333333712},{"name":"C5","midi":72,"time":105.40416666666567,"velocity":0.5905511811023622,"duration":0.12708333333333144},{"name":"D#4","midi":63,"time":105.40416666666567,"velocity":0.6456692913385826,"duration":0.125},{"name":"B4","midi":71,"time":105.53333333333234,"velocity":0.5905511811023622,"duration":0.12291666666666856},{"name":"G4","midi":67,"time":105.53333333333234,"velocity":0.6456692913385826,"duration":0.25208333333333144},{"name":"D4","midi":62,"time":105.53541666666567,"velocity":0.6456692913385826,"duration":0.12083333333333712},{"name":"D5","midi":74,"time":105.65833333333234,"velocity":0.5905511811023622,"duration":0.12708333333333144},{"name":"F4","midi":65,"time":105.65833333333234,"velocity":0.6456692913385826,"duration":0.125},{"name":"C5","midi":72,"time":105.787499999999,"velocity":0.5905511811023622,"duration":0.24791666666666856},{"name":"G4","midi":67,"time":105.787499999999,"velocity":0.6456692913385826,"duration":0.12083333333333712},{"name":"D#4","midi":63,"time":105.78958333333233,"velocity":0.6456692913385826,"duration":0.11875000000000568},{"name":"F4","midi":65,"time":105.91041666666567,"velocity":0.6456692913385826,"duration":0.12291666666666856},{"name":"D4","midi":62,"time":105.91041666666567,"velocity":0.6456692913385826,"duration":0.125},{"name":"C4","midi":60,"time":106.037499999999,"velocity":0.6456692913385826,"duration":0.12083333333333712},{"name":"D#4","midi":63,"time":106.037499999999,"velocity":0.6456692913385826,"duration":0.12083333333333712},{"name":"D4","midi":62,"time":106.16041666666567,"velocity":0.6456692913385826,"duration":0.125},{"name":"F4","midi":65,"time":106.16041666666567,"velocity":0.6456692913385826,"duration":0.12291666666666856},{"name":"B3","midi":59,"time":106.28541666666567,"velocity":0.6456692913385826,"duration":0.12291666666666856},{"name":"G4","midi":67,"time":106.287499999999,"velocity":0.6456692913385826,"duration":0.24791666666666856},{"name":"C4","midi":60,"time":106.40833333333234,"velocity":0.6456692913385826,"duration":0.125},{"name":"B4","midi":71,"time":106.53541666666567,"velocity":0.5905511811023622,"duration":0.12291666666666856},{"name":"G4","midi":67,"time":106.537499999999,"velocity":0.6456692913385826,"duration":0.24791666666666856},{"name":"D4","midi":62,"time":106.537499999999,"velocity":0.6456692913385826,"duration":0.12083333333333712},{"name":"C5","midi":72,"time":106.66041666666567,"velocity":0.5905511811023622,"duration":0.125},{"name":"D#4","midi":63,"time":106.66041666666567,"velocity":0.6456692913385826,"duration":0.12291666666666856},{"name":"D5","midi":74,"time":106.787499999999,"velocity":0.5905511811023622,"duration":0.12291666666666856},{"name":"G4","midi":67,"time":106.787499999999,"velocity":0.6456692913385826,"duration":0.25208333333333144},{"name":"F4","midi":65,"time":106.78958333333233,"velocity":0.6456692913385826,"duration":0.12083333333333712},{"name":"C5","midi":72,"time":106.912499999999,"velocity":0.5905511811023622,"duration":0.12708333333333144},{"name":"D#4","midi":63,"time":106.912499999999,"velocity":0.6456692913385826,"duration":0.125},{"name":"B4","midi":71,"time":107.04166666666566,"velocity":0.5905511811023622,"duration":0.12291666666666856},{"name":"G4","midi":67,"time":107.04166666666566,"velocity":0.6456692913385826,"duration":0.25},{"name":"D4","midi":62,"time":107.043749999999,"velocity":0.6456692913385826,"duration":0.12083333333333712},{"name":"D5","midi":74,"time":107.16666666666566,"velocity":0.5905511811023622,"duration":0.125},{"name":"F4","midi":65,"time":107.16666666666566,"velocity":0.6456692913385826,"duration":0.125},{"name":"C5","midi":72,"time":107.293749999999,"velocity":0.5905511811023622,"duration":0.25},{"name":"G4","midi":67,"time":107.293749999999,"velocity":0.6456692913385826,"duration":0.25},{"name":"D#4","midi":63,"time":107.29583333333233,"velocity":0.6456692913385826,"duration":0.12083333333333712},{"name":"D4","midi":62,"time":107.41666666666566,"velocity":0.6456692913385826,"duration":0.12708333333333144},{"name":"D#5","midi":75,"time":107.54583333333233,"velocity":0.5905511811023622,"duration":0.25},{"name":"C4","midi":60,"time":107.54583333333233,"velocity":0.6456692913385826,"duration":0.12291666666666856},{"name":"A#3","midi":58,"time":107.67083333333233,"velocity":0.6456692913385826,"duration":0.125},{"name":"D5","midi":74,"time":107.79791666666566,"velocity":0.5905511811023622,"duration":0.25},{"name":"A3","midi":57,"time":107.79791666666566,"velocity":0.6456692913385826,"duration":0.12291666666666856},{"name":"A#3","midi":58,"time":107.92083333333233,"velocity":0.6456692913385826,"duration":0.12708333333333144},{"name":"D#5","midi":75,"time":108.04999999999899,"velocity":0.5905511811023622,"duration":0.25208333333333144},{"name":"C4","midi":60,"time":108.04999999999899,"velocity":0.6456692913385826,"duration":0.12291666666666856},{"name":"D4","midi":62,"time":108.17499999999899,"velocity":0.6456692913385826,"duration":0.125},{"name":"C5","midi":72,"time":108.30208333333232,"velocity":0.5669291338582677,"duration":0.2541666666666629},{"name":"D#4","midi":63,"time":108.30416666666565,"velocity":0.6456692913385826,"duration":0.12291666666666856},{"name":"D4","midi":62,"time":108.42708333333232,"velocity":0.6456692913385826,"duration":0.12708333333333144},{"name":"A5","midi":81,"time":108.55624999999898,"velocity":0.49606299212598426,"duration":0.2562499999999943},{"name":"D#5","midi":75,"time":108.55833333333231,"velocity":0.5669291338582677,"duration":0.2541666666666629},{"name":"C4","midi":60,"time":108.55833333333231,"velocity":0.6456692913385826,"duration":0.125},{"name":"D#4","midi":63,"time":108.68333333333231,"velocity":0.6456692913385826,"duration":0.12708333333333144},{"name":"F5","midi":77,"time":108.81458333333231,"velocity":0.5669291338582677,"duration":0.24791666666666856},{"name":"A#5","midi":82,"time":108.81458333333231,"velocity":0.49606299212598426,"duration":0.24791666666666856},{"name":"D4","midi":62,"time":108.81666666666564,"velocity":0.6456692913385826,"duration":0.12083333333333712},{"name":"C4","midi":60,"time":108.93749999999898,"velocity":0.6456692913385826,"duration":0.12291666666666856},{"name":"D5","midi":74,"time":109.06458333333231,"velocity":0.5669291338582677,"duration":0.24583333333333712},{"name":"A#3","midi":58,"time":109.06458333333231,"velocity":0.6456692913385826,"duration":0.12083333333333712},{"name":"A3","midi":57,"time":109.18541666666565,"velocity":0.6456692913385826,"duration":0.12291666666666856},{"name":"C5","midi":72,"time":109.31041666666565,"velocity":0.5669291338582677,"duration":0.24791666666666856},{"name":"G3","midi":55,"time":109.31249999999898,"velocity":0.6456692913385826,"duration":0.12083333333333712},{"name":"A3","midi":57,"time":109.43333333333231,"velocity":0.6456692913385826,"duration":0.12291666666666856},{"name":"D5","midi":74,"time":109.55833333333231,"velocity":0.5669291338582677,"duration":0.25},{"name":"A#3","midi":58,"time":109.56041666666565,"velocity":0.6456692913385826,"duration":0.12083333333333712},{"name":"C4","midi":60,"time":109.68124999999898,"velocity":0.6456692913385826,"duration":0.125},{"name":"A#4","midi":70,"time":109.80833333333231,"velocity":0.5669291338582677,"duration":0.25},{"name":"D4","midi":62,"time":109.81041666666565,"velocity":0.6456692913385826,"duration":0.12083333333333712},{"name":"C4","midi":60,"time":109.93124999999898,"velocity":0.6456692913385826,"duration":0.125},{"name":"G5","midi":79,"time":110.05833333333231,"velocity":0.49606299212598426,"duration":0.25},{"name":"D5","midi":74,"time":110.06041666666565,"velocity":0.5669291338582677,"duration":0.24791666666666856},{"name":"A#3","midi":58,"time":110.06041666666565,"velocity":0.6456692913385826,"duration":0.12083333333333712},{"name":"D4","midi":62,"time":110.18124999999898,"velocity":0.6456692913385826,"duration":0.125},{"name":"D#5","midi":75,"time":110.31041666666565,"velocity":0.5669291338582677,"duration":0.25},{"name":"A5","midi":81,"time":110.31041666666565,"velocity":0.49606299212598426,"duration":0.25},{"name":"C4","midi":60,"time":110.31249999999898,"velocity":0.6456692913385826,"duration":0.12083333333333712},{"name":"A#3","midi":58,"time":110.43333333333231,"velocity":0.6456692913385826,"duration":0.125},{"name":"C5","midi":72,"time":110.56249999999898,"velocity":0.5669291338582677,"duration":0.24583333333333712},{"name":"A3","midi":57,"time":110.56249999999898,"velocity":0.6456692913385826,"duration":0.12083333333333712},{"name":"G3","midi":55,"time":110.68333333333231,"velocity":0.6456692913385826,"duration":0.12291666666666856},{"name":"A#4","midi":70,"time":110.80833333333231,"velocity":0.5669291338582677,"duration":0.24791666666666856},{"name":"F#3","midi":54,"time":110.81041666666565,"velocity":0.6456692913385826,"duration":0.12083333333333712},{"name":"G3","midi":55,"time":110.93124999999898,"velocity":0.6456692913385826,"duration":0.12291666666666856},{"name":"C5","midi":72,"time":111.05624999999898,"velocity":0.5669291338582677,"duration":0.25},{"name":"A3","midi":57,"time":111.05833333333231,"velocity":0.6456692913385826,"duration":0.12083333333333712},{"name":"A#3","midi":58,"time":111.17916666666565,"velocity":0.6456692913385826,"duration":0.125},{"name":"A4","midi":69,"time":111.30624999999898,"velocity":0.5669291338582677,"duration":0.25},{"name":"C4","midi":60,"time":111.30833333333231,"velocity":0.6456692913385826,"duration":0.12083333333333712},{"name":"A#3","midi":58,"time":111.42916666666565,"velocity":0.6456692913385826,"duration":0.125},{"name":"F#5","midi":78,"time":111.55624999999898,"velocity":0.49606299212598426,"duration":0.25208333333333144},{"name":"C5","midi":72,"time":111.55833333333231,"velocity":0.5669291338582677,"duration":0.25},{"name":"A3","midi":57,"time":111.55833333333231,"velocity":0.6456692913385826,"duration":0.12291666666666856},{"name":"C4","midi":60,"time":111.68124999999898,"velocity":0.6456692913385826,"duration":0.125},{"name":"D5","midi":74,"time":111.81041666666565,"velocity":0.5669291338582677,"duration":0.25833333333332575},{"name":"G5","midi":79,"time":111.81041666666565,"velocity":0.49606299212598426,"duration":0.12708333333333144},{"name":"A#3","midi":58,"time":111.81249999999898,"velocity":0.6456692913385826,"duration":0.2562499999999943},{"name":"F5","midi":77,"time":111.93749999999898,"velocity":0.5669291338582677,"duration":0.12916666666666288},{"name":"E5","midi":76,"time":112.0708333333323,"velocity":0.5669291338582677,"duration":0.12708333333333144},{"name":"A#3","midi":58,"time":112.0708333333323,"velocity":0.6456692913385826,"duration":0.25833333333332575},{"name":"G3","midi":55,"time":112.07291666666563,"velocity":0.6456692913385826,"duration":0.2562499999999943},{"name":"D5","midi":74,"time":112.19791666666563,"velocity":0.5669291338582677,"duration":0.12916666666666288},{"name":"C#5","midi":73,"time":112.32916666666563,"velocity":0.5669291338582677,"duration":0.12916666666666288},{"name":"F3","midi":53,"time":112.33124999999896,"velocity":0.6456692913385826,"duration":0.25833333333332575},{"name":"A3","midi":57,"time":112.33124999999896,"velocity":0.6456692913385826,"duration":0.25833333333332575},{"name":"D5","midi":74,"time":112.45833333333229,"velocity":0.5669291338582677,"duration":0.12916666666666288},{"name":"E5","midi":76,"time":112.58958333333229,"velocity":0.5669291338582677,"duration":0.12708333333333144},{"name":"A#3","midi":58,"time":112.59166666666562,"velocity":0.6456692913385826,"duration":0.25833333333332575},{"name":"G3","midi":55,"time":112.59166666666562,"velocity":0.6456692913385826,"duration":0.25833333333332575},{"name":"F5","midi":77,"time":112.71874999999895,"velocity":0.5669291338582677,"duration":0.12916666666666288},{"name":"G5","midi":79,"time":112.84999999999894,"velocity":0.5669291338582677,"duration":0.125},{"name":"G3","midi":55,"time":112.84999999999894,"velocity":0.6456692913385826,"duration":0.2541666666666629},{"name":"E3","midi":52,"time":112.85208333333227,"velocity":0.6456692913385826,"duration":0.5104166666666572},{"name":"F5","midi":77,"time":112.97499999999894,"velocity":0.5669291338582677,"duration":0.12708333333333144},{"name":"E5","midi":76,"time":113.10624999999894,"velocity":0.5669291338582677,"duration":0.125},{"name":"C#4","midi":61,"time":113.10624999999894,"velocity":0.6456692913385826,"duration":0.2541666666666629},{"name":"G5","midi":79,"time":113.23333333333227,"velocity":0.5669291338582677,"duration":0.12708333333333144},{"name":"F5","midi":77,"time":113.36249999999893,"velocity":0.5669291338582677,"duration":0.125},{"name":"D3","midi":50,"time":113.36458333333226,"velocity":0.6456692913385826,"duration":0.2541666666666629},{"name":"D4","midi":62,"time":113.36458333333226,"velocity":0.6456692913385826,"duration":0.2562499999999943},{"name":"D#5","midi":75,"time":113.48958333333226,"velocity":0.5669291338582677,"duration":0.12916666666666288},{"name":"D5","midi":74,"time":113.62083333333226,"velocity":0.5669291338582677,"duration":0.125},{"name":"G#3","midi":56,"time":113.62083333333226,"velocity":0.6456692913385826,"duration":0.2562499999999943},{"name":"F3","midi":53,"time":113.62291666666559,"velocity":0.6456692913385826,"duration":0.2541666666666629},{"name":"C5","midi":72,"time":113.74791666666559,"velocity":0.5669291338582677,"duration":0.12708333333333144},{"name":"B4","midi":71,"time":113.87916666666558,"velocity":0.5669291338582677,"duration":0.125},{"name":"G3","midi":55,"time":113.87916666666558,"velocity":0.6456692913385826,"duration":0.2541666666666629},{"name":"D#3","midi":51,"time":113.88124999999891,"velocity":0.6456692913385826,"duration":0.25208333333333144},{"name":"C5","midi":72,"time":114.00416666666558,"velocity":0.5669291338582677,"duration":0.12708333333333144},{"name":"D5","midi":74,"time":114.13541666666558,"velocity":0.5669291338582677,"duration":0.125},{"name":"G#3","midi":56,"time":114.13541666666558,"velocity":0.6456692913385826,"duration":0.2541666666666629},{"name":"F3","midi":53,"time":114.13749999999891,"velocity":0.6456692913385826,"duration":0.25208333333333144},{"name":"D#5","midi":75,"time":114.26041666666558,"velocity":0.5669291338582677,"duration":0.12708333333333144},{"name":"F5","midi":77,"time":114.39166666666557,"velocity":0.5669291338582677,"duration":0.12291666666666856},{"name":"F3","midi":53,"time":114.39166666666557,"velocity":0.6456692913385826,"duration":0.25208333333333144},{"name":"D3","midi":50,"time":114.3937499999989,"velocity":0.6456692913385826,"duration":0.5083333333333258},{"name":"D#5","midi":75,"time":114.51458333333224,"velocity":0.5669291338582677,"duration":0.12708333333333144},{"name":"D5","midi":74,"time":114.6437499999989,"velocity":0.5669291338582677,"duration":0.12916666666666288},{"name":"B3","midi":59,"time":114.64583333333223,"velocity":0.6456692913385826,"duration":0.2541666666666629},{"name":"F5","midi":77,"time":114.77291666666557,"velocity":0.5669291338582677,"duration":0.12708333333333144},{"name":"D#5","midi":75,"time":114.90208333333223,"velocity":0.5669291338582677,"duration":0.12291666666666856},{"name":"C4","midi":60,"time":114.90416666666556,"velocity":0.6456692913385826,"duration":0.24791666666666856},{"name":"C3","midi":48,"time":114.90416666666556,"velocity":0.6456692913385826,"duration":0.24791666666666856},{"name":"C5","midi":72,"time":115.02708333333223,"velocity":0.5669291338582677,"duration":0.12291666666666856},{"name":"B4","midi":71,"time":115.15416666666556,"velocity":0.5669291338582677,"duration":0.12291666666666856},{"name":"C4","midi":60,"time":115.15416666666556,"velocity":0.6456692913385826,"duration":0.25},{"name":"A4","midi":69,"time":115.27916666666556,"velocity":0.5669291338582677,"duration":0.125},{"name":"D#4","midi":63,"time":115.40624999999889,"velocity":0.6456692913385826,"duration":0.25208333333333144},{"name":"G4","midi":67,"time":115.40624999999889,"velocity":0.6456692913385826,"duration":0.12291666666666856},{"name":"F4","midi":65,"time":115.53124999999889,"velocity":0.6456692913385826,"duration":0.12708333333333144},{"name":"G4","midi":67,"time":115.66041666666555,"velocity":0.6456692913385826,"duration":0.12291666666666856},{"name":"C4","midi":60,"time":115.66041666666555,"velocity":0.6456692913385826,"duration":0.25208333333333144},{"name":"C5","midi":72,"time":115.78541666666555,"velocity":0.5669291338582677,"duration":0.12708333333333144},{"name":"D#5","midi":75,"time":115.91458333333222,"velocity":0.5669291338582677,"duration":0.7604166666666572},{"name":"G4","midi":67,"time":115.91458333333222,"velocity":0.6456692913385826,"duration":0.25208333333333144},{"name":"C3","midi":48,"time":116.03749999999889,"velocity":0.6456692913385826,"duration":0.12916666666666288},{"name":"D#3","midi":51,"time":116.16874999999888,"velocity":0.6456692913385826,"duration":0.12291666666666856},{"name":"A#3","midi":58,"time":116.16874999999888,"velocity":0.6456692913385826,"duration":0.25},{"name":"C3","midi":48,"time":116.29374999999888,"velocity":0.6456692913385826,"duration":0.125},{"name":"F3","midi":53,"time":116.42083333333221,"velocity":0.6456692913385826,"duration":0.25208333333333144},{"name":"G#3","midi":56,"time":116.42083333333221,"velocity":0.6456692913385826,"duration":0.25208333333333144},{"name":"G#4","midi":68,"time":116.67499999999887,"velocity":0.5669291338582677,"duration":0.2541666666666629},{"name":"D4","midi":62,"time":116.67499999999887,"velocity":0.6456692913385826,"duration":0.125},{"name":"C4","midi":60,"time":116.79999999999887,"velocity":0.6456692913385826,"duration":0.12708333333333144},{"name":"G4","midi":67,"time":116.92916666666554,"velocity":0.6456692913385826,"duration":0.2562499999999943},{"name":"D#4","midi":63,"time":116.93124999999887,"velocity":0.6456692913385826,"duration":0.125},{"name":"D4","midi":62,"time":117.05624999999887,"velocity":0.6456692913385826,"duration":0.12916666666666288},{"name":"G#4","midi":68,"time":117.18541666666553,"velocity":0.5669291338582677,"duration":0.2541666666666629},{"name":"C4","midi":60,"time":117.18749999999886,"velocity":0.6456692913385826,"duration":0.125},{"name":"A#3","midi":58,"time":117.31249999999886,"velocity":0.6456692913385826,"duration":0.125},{"name":"D5","midi":74,"time":117.44166666666553,"velocity":0.5669291338582677,"duration":0.25208333333333144},{"name":"F4","midi":65,"time":117.44166666666553,"velocity":0.6456692913385826,"duration":0.25},{"name":"A#2","midi":46,"time":117.5645833333322,"velocity":0.6456692913385826,"duration":0.12708333333333144},{"name":"F5","midi":77,"time":117.69374999999886,"velocity":0.5669291338582677,"duration":0.5},{"name":"G#3","midi":56,"time":117.69374999999886,"velocity":0.6456692913385826,"duration":0.24791666666666856},{"name":"D3","midi":50,"time":117.69583333333219,"velocity":0.6456692913385826,"duration":0.11875000000000568},{"name":"A#2","midi":46,"time":117.81666666666553,"velocity":0.6456692913385826,"duration":0.125},{"name":"D#3","midi":51,"time":117.94374999999886,"velocity":0.6456692913385826,"duration":0.24791666666666856},{"name":"G3","midi":55,"time":117.94374999999886,"velocity":0.6456692913385826,"duration":0.12083333333333712},{"name":"A#3","midi":58,"time":118.06666666666553,"velocity":0.6456692913385826,"duration":0.125},{"name":"A#4","midi":70,"time":118.19374999999886,"velocity":0.5669291338582677,"duration":0.24791666666666856},{"name":"C4","midi":60,"time":118.19583333333219,"velocity":0.6456692913385826,"duration":0.11875000000000568},{"name":"D4","midi":62,"time":118.31666666666553,"velocity":0.6456692913385826,"duration":0.125},{"name":"C5","midi":72,"time":118.44374999999886,"velocity":0.5669291338582677,"duration":0.24791666666666856},{"name":"D#4","midi":63,"time":118.44374999999886,"velocity":0.6456692913385826,"duration":0.12291666666666856},{"name":"D4","midi":62,"time":118.56874999999886,"velocity":0.6456692913385826,"duration":0.12291666666666856},{"name":"A#4","midi":70,"time":118.69374999999886,"velocity":0.5669291338582677,"duration":0.24791666666666856},{"name":"D#4","midi":63,"time":118.69374999999886,"velocity":0.6456692913385826,"duration":0.12083333333333712},{"name":"F4","midi":65,"time":118.81666666666553,"velocity":0.6456692913385826,"duration":0.125},{"name":"D#5","midi":75,"time":118.94374999999886,"velocity":0.5669291338582677,"duration":0.25208333333333144},{"name":"G4","midi":67,"time":118.94374999999886,"velocity":0.6456692913385826,"duration":0.25},{"name":"D#3","midi":51,"time":119.06666666666553,"velocity":0.6456692913385826,"duration":0.12708333333333144},{"name":"D#4","midi":63,"time":119.19583333333219,"velocity":0.6456692913385826,"duration":0.5062499999999943},{"name":"G4","midi":67,"time":119.19791666666552,"velocity":0.6456692913385826,"duration":0.25},{"name":"G3","midi":55,"time":119.19791666666552,"velocity":0.6456692913385826,"duration":0.12291666666666856},{"name":"D#3","midi":51,"time":119.32291666666552,"velocity":0.6456692913385826,"duration":0.125},{"name":"A#3","midi":58,"time":119.44999999999885,"velocity":0.6456692913385826,"duration":0.25},{"name":"F4","midi":65,"time":119.44999999999885,"velocity":0.6456692913385826,"duration":0.25208333333333144},{"name":"D5","midi":74,"time":119.70416666666551,"velocity":0.5669291338582677,"duration":0.12291666666666856},{"name":"G#3","midi":56,"time":119.70416666666551,"velocity":0.6456692913385826,"duration":0.25},{"name":"C5","midi":72,"time":119.82708333333218,"velocity":0.5669291338582677,"duration":0.125},{"name":"D#5","midi":75,"time":119.95416666666551,"velocity":0.5669291338582677,"duration":0.12291666666666856},{"name":"G3","midi":55,"time":119.95624999999885,"velocity":0.6456692913385826,"duration":0.24583333333333712},{"name":"D5","midi":74,"time":120.07708333333218,"velocity":0.5669291338582677,"duration":0.12291666666666856},{"name":"C5","midi":72,"time":120.20208333333218,"velocity":0.5669291338582677,"duration":0.12291666666666856},{"name":"G#3","midi":56,"time":120.20416666666551,"velocity":0.6456692913385826,"duration":0.24583333333333712},{"name":"A#4","midi":70,"time":120.32499999999885,"velocity":0.5669291338582677,"duration":0.125},{"name":"F5","midi":77,"time":120.44999999999885,"velocity":0.5669291338582677,"duration":0.25},{"name":"D4","midi":62,"time":120.45208333333218,"velocity":0.6456692913385826,"duration":0.24583333333333712},{"name":"A#3","midi":58,"time":120.57291666666552,"velocity":0.6456692913385826,"duration":0.125},{"name":"G#4","midi":68,"time":120.69999999999885,"velocity":0.5669291338582677,"duration":0.2458333333333229},{"name":"F4","midi":65,"time":120.69999999999885,"velocity":0.6456692913385826,"duration":0.4999999999999858},{"name":"D4","midi":62,"time":120.70208333333218,"velocity":0.6456692913385826,"duration":0.11666666666666003},{"name":"A#3","midi":58,"time":120.82083333333217,"velocity":0.6456692913385826,"duration":0.125},{"name":"D#4","midi":63,"time":120.9479166666655,"velocity":0.6456692913385826,"duration":0.25},{"name":"G4","midi":67,"time":120.9479166666655,"velocity":0.6456692913385826,"duration":0.25},{"name":"D#5","midi":75,"time":121.19999999999884,"velocity":0.5669291338582677,"duration":0.125},{"name":"G3","midi":55,"time":121.19999999999884,"velocity":0.6456692913385826,"duration":0.12291666666666856},{"name":"F5","midi":77,"time":121.32499999999884,"velocity":0.5669291338582677,"duration":0.125},{"name":"G#3","midi":56,"time":121.32499999999884,"velocity":0.6456692913385826,"duration":0.125},{"name":"D5","midi":74,"time":121.44999999999884,"velocity":0.5669291338582677,"duration":0.125},{"name":"A#3","midi":58,"time":121.45208333333217,"velocity":0.6456692913385826,"duration":0.25},{"name":"D#5","midi":75,"time":121.57499999999884,"velocity":0.5669291338582677,"duration":0.125},{"name":"F5","midi":77,"time":121.70208333333217,"velocity":0.5669291338582677,"duration":0.125},{"name":"A#3","midi":58,"time":121.7041666666655,"velocity":0.6456692913385826,"duration":0.25208333333333144},{"name":"D3","midi":50,"time":121.7041666666655,"velocity":0.6456692913385826,"duration":0.12291666666666856},{"name":"G5","midi":79,"time":121.8291666666655,"velocity":0.5669291338582677,"duration":0.12708333333333144},{"name":"D#3","midi":51,"time":121.8291666666655,"velocity":0.6456692913385826,"duration":0.12708333333333144},{"name":"G#5","midi":80,"time":121.95833333333216,"velocity":0.5669291338582677,"duration":0.12291666666666856},{"name":"A#3","midi":58,"time":121.95833333333216,"velocity":0.6456692913385826,"duration":0.25208333333333144},{"name":"F3","midi":53,"time":121.9604166666655,"velocity":0.6456692913385826,"duration":0.12083333333333712},{"name":"G5","midi":79,"time":122.08333333333216,"velocity":0.5669291338582677,"duration":0.12708333333333144},{"name":"D#3","midi":51,"time":122.08333333333216,"velocity":0.6456692913385826,"duration":0.125},{"name":"F5","midi":77,"time":122.21249999999883,"velocity":0.5669291338582677,"duration":0.125},{"name":"A#3","midi":58,"time":122.21249999999883,"velocity":0.6456692913385826,"duration":0.25208333333333144},{"name":"D3","midi":50,"time":122.21458333333216,"velocity":0.6456692913385826,"duration":0.12083333333333712},{"name":"G#5","midi":80,"time":122.33749999999883,"velocity":0.5669291338582677,"duration":0.125},{"name":"F3","midi":53,"time":122.33749999999883,"velocity":0.6456692913385826,"duration":0.125},{"name":"G5","midi":79,"time":122.46458333333216,"velocity":0.5669291338582677,"duration":0.12291666666666856},{"name":"A#3","midi":58,"time":122.46458333333216,"velocity":0.6456692913385826,"duration":0.12083333333333712},{"name":"D#3","midi":51,"time":122.46666666666549,"velocity":0.6456692913385826,"duration":0.24791666666666856},{"name":"F5","midi":77,"time":122.58749999999883,"velocity":0.5669291338582677,"duration":0.125},{"name":"G#3","midi":56,"time":122.58958333333216,"velocity":0.6456692913385826,"duration":0.12291666666666856},{"name":"D#5","midi":75,"time":122.71458333333216,"velocity":0.5669291338582677,"duration":0.12083333333333712},{"name":"G3","midi":55,"time":122.71458333333216,"velocity":0.6456692913385826,"duration":0.12083333333333712},{"name":"G5","midi":79,"time":122.83749999999883,"velocity":0.5669291338582677,"duration":0.125},{"name":"G#3","midi":56,"time":122.83958333333216,"velocity":0.6456692913385826,"duration":0.12291666666666856},{"name":"D5","midi":74,"time":122.96458333333216,"velocity":0.5669291338582677,"duration":0.12083333333333712},{"name":"A#3","midi":58,"time":122.96458333333216,"velocity":0.6456692913385826,"duration":0.24583333333333712},{"name":"D#5","midi":75,"time":123.08749999999883,"velocity":0.5669291338582677,"duration":0.12291666666666856},{"name":"F5","midi":77,"time":123.21249999999883,"velocity":0.5669291338582677,"duration":0.12291666666666856},{"name":"A#3","midi":58,"time":123.21249999999883,"velocity":0.6456692913385826,"duration":0.24791666666666856},{"name":"D3","midi":50,"time":123.21458333333216,"velocity":0.6456692913385826,"duration":0.11875000000000568},{"name":"G5","midi":79,"time":123.3354166666655,"velocity":0.5669291338582677,"duration":0.12291666666666856},{"name":"D#3","midi":51,"time":123.33749999999883,"velocity":0.6456692913385826,"duration":0.12083333333333712},{"name":"G#5","midi":80,"time":123.4604166666655,"velocity":0.5669291338582677,"duration":0.12291666666666856},{"name":"F3","midi":53,"time":123.46249999999883,"velocity":0.6456692913385826,"duration":0.11875000000000568},{"name":"A#3","midi":58,"time":123.46249999999883,"velocity":0.6456692913385826,"duration":0.24583333333333712},{"name":"G5","midi":79,"time":123.58333333333216,"velocity":0.5669291338582677,"duration":0.12291666666666856},{"name":"D#3","midi":51,"time":123.5854166666655,"velocity":0.6456692913385826,"duration":0.12083333333333712},{"name":"F5","midi":77,"time":123.70833333333216,"velocity":0.5669291338582677,"duration":0.12291666666666856},{"name":"A#3","midi":58,"time":123.7104166666655,"velocity":0.6456692913385826,"duration":0.24583333333333712},{"name":"D3","midi":50,"time":123.7104166666655,"velocity":0.6456692913385826,"duration":0.11875000000000568},{"name":"G#5","midi":80,"time":123.83124999999883,"velocity":0.5669291338582677,"duration":0.12291666666666856},{"name":"F3","midi":53,"time":123.83333333333216,"velocity":0.6456692913385826,"duration":0.12083333333333712},{"name":"G5","midi":79,"time":123.95624999999883,"velocity":0.5669291338582677,"duration":0.38749999999998863},{"name":"D#3","midi":51,"time":123.95833333333216,"velocity":0.6456692913385826,"duration":0.2562499999999943},{"name":"A#3","midi":58,"time":123.95833333333216,"velocity":0.6456692913385826,"duration":0.2562499999999943},{"name":"D#4","midi":63,"time":124.21666666666549,"velocity":0.6456692913385826,"duration":0.25833333333332575},{"name":"F5","midi":77,"time":124.34583333333215,"velocity":0.5669291338582677,"duration":0.12916666666666288},{"name":"D#5","midi":75,"time":124.47499999999881,"velocity":0.5669291338582677,"duration":0.12916666666666288},{"name":"G4","midi":67,"time":124.47708333333215,"velocity":0.6456692913385826,"duration":0.25833333333332575},{"name":"D5","midi":74,"time":124.60416666666548,"velocity":0.5669291338582677,"duration":0.12916666666666288},{"name":"D#5","midi":75,"time":124.73541666666547,"velocity":0.5669291338582677,"duration":0.12708333333333144},{"name":"D#4","midi":63,"time":124.7374999999988,"velocity":0.6456692913385826,"duration":0.2562499999999943},{"name":"F5","midi":77,"time":124.8624999999988,"velocity":0.5669291338582677,"duration":0.12916666666666288},{"name":"G5","midi":79,"time":124.9937499999988,"velocity":0.5669291338582677,"duration":0.25833333333332575},{"name":"A#4","midi":70,"time":124.99583333333213,"velocity":0.5669291338582677,"duration":0.2541666666666629},{"name":"D#3","midi":51,"time":125.12083333333213,"velocity":0.6456692913385826,"duration":0.12916666666666288},{"name":"A#5","midi":82,"time":125.25208333333212,"velocity":0.5669291338582677,"duration":0.52291666666666},{"name":"D4","midi":62,"time":125.25416666666545,"velocity":0.6456692913385826,"duration":0.25833333333332575},{"name":"G3","midi":55,"time":125.25416666666545,"velocity":0.6456692913385826,"duration":0.125},{"name":"D#3","midi":51,"time":125.38124999999879,"velocity":0.6456692913385826,"duration":0.13124999999999432},{"name":"C4","midi":60,"time":125.51458333333211,"velocity":0.6456692913385826,"duration":0.25833333333333997},{"name":"F3","midi":53,"time":125.51458333333211,"velocity":0.6456692913385826,"duration":0.25833333333333997},{"name":"D#5","midi":75,"time":125.77499999999878,"velocity":0.5669291338582677,"duration":0.25208333333333144},{"name":"A4","midi":69,"time":125.77499999999878,"velocity":0.5669291338582677,"duration":0.125},{"name":"G4","midi":67,"time":125.89999999999878,"velocity":0.6456692913385826,"duration":0.125},{"name":"D5","midi":74,"time":126.02708333333211,"velocity":0.5669291338582677,"duration":0.2562499999999943},{"name":"A#4","midi":70,"time":126.02916666666545,"velocity":0.5669291338582677,"duration":0.125},{"name":"A4","midi":69,"time":126.15416666666545,"velocity":0.5669291338582677,"duration":0.12708333333333144},{"name":"D#5","midi":75,"time":126.28333333333211,"velocity":0.5669291338582677,"duration":0.2541666666666629},{"name":"G4","midi":67,"time":126.28541666666544,"velocity":0.6456692913385826,"duration":0.12291666666666856},{"name":"F4","midi":65,"time":126.40833333333211,"velocity":0.6456692913385826,"duration":0.12708333333333144},{"name":"A5","midi":81,"time":126.53749999999877,"velocity":0.5669291338582677,"duration":0.25833333333332575},{"name":"C5","midi":72,"time":126.5395833333321,"velocity":0.5669291338582677,"duration":0.2562499999999943},{"name":"F3","midi":53,"time":126.6645833333321,"velocity":0.6456692913385826,"duration":0.12916666666666288},{"name":"C6","midi":84,"time":126.79791666666543,"velocity":0.5669291338582677,"duration":0.5041666666666629},{"name":"D#4","midi":63,"time":126.79791666666543,"velocity":0.6456692913385826,"duration":0.2541666666666629},{"name":"A3","midi":57,"time":126.79999999999876,"velocity":0.6456692913385826,"duration":0.12291666666666856},{"name":"F3","midi":53,"time":126.92291666666543,"velocity":0.6456692913385826,"duration":0.12708333333333144},{"name":"D4","midi":62,"time":127.05208333333209,"velocity":0.6456692913385826,"duration":0.24791666666666856},{"name":"A#3","midi":58,"time":127.05208333333209,"velocity":0.6456692913385826,"duration":0.24791666666666856},{"name":"D5","midi":74,"time":127.30416666666542,"velocity":0.5118110236220472,"duration":0.12083333333333712},{"name":"A#4","midi":70,"time":127.30416666666542,"velocity":0.5118110236220472,"duration":0.12083333333333712},{"name":"C5","midi":72,"time":127.42708333333209,"velocity":0.5118110236220472,"duration":0.12291666666666856},{"name":"D#5","midi":75,"time":127.42708333333209,"velocity":0.5118110236220472,"duration":0.12291666666666856},{"name":"F5","midi":77,"time":127.54999999999876,"velocity":0.5118110236220472,"duration":0.24791666666666856},{"name":"A4","midi":69,"time":127.55208333333209,"velocity":0.5118110236220472,"duration":0.12083333333333712},{"name":"A#4","midi":70,"time":127.67499999999876,"velocity":0.5118110236220472,"duration":0.12291666666666856},{"name":"F5","midi":77,"time":127.79999999999876,"velocity":0.5118110236220472,"duration":0.25},{"name":"C5","midi":72,"time":127.79999999999876,"velocity":0.5118110236220472,"duration":0.125},{"name":"A3","midi":57,"time":127.79999999999876,"velocity":0.6456692913385826,"duration":0.12291666666666856},{"name":"D5","midi":74,"time":127.92499999999876,"velocity":0.5118110236220472,"duration":0.12291666666666856},{"name":"A#3","midi":58,"time":127.92499999999876,"velocity":0.6456692913385826,"duration":0.12291666666666856},{"name":"F5","midi":77,"time":128.04999999999876,"velocity":0.5118110236220472,"duration":0.25},{"name":"D#5","midi":75,"time":128.04999999999876,"velocity":0.5118110236220472,"duration":0.125},{"name":"C4","midi":60,"time":128.0520833333321,"velocity":0.6456692913385826,"duration":0.12083333333333712},{"name":"D5","midi":74,"time":128.17499999999876,"velocity":0.5118110236220472,"duration":0.125},{"name":"A#3","midi":58,"time":128.17499999999876,"velocity":0.6456692913385826,"duration":0.125},{"name":"F5","midi":77,"time":128.3020833333321,"velocity":0.5118110236220472,"duration":0.25208333333333144},{"name":"C5","midi":72,"time":128.3020833333321,"velocity":0.5118110236220472,"duration":0.125},{"name":"A3","midi":57,"time":128.30416666666542,"velocity":0.6456692913385826,"duration":0.12291666666666856},{"name":"D#5","midi":75,"time":128.42916666666542,"velocity":0.5118110236220472,"duration":0.125},{"name":"C4","midi":60,"time":128.42916666666542,"velocity":0.6456692913385826,"duration":0.12291666666666856},{"name":"F5","midi":77,"time":128.55624999999876,"velocity":0.5118110236220472,"duration":0.12291666666666856},{"name":"D5","midi":74,"time":128.55624999999876,"velocity":0.5118110236220472,"duration":0.12291666666666856},{"name":"A#3","midi":58,"time":128.5583333333321,"velocity":0.6456692913385826,"duration":0.24791666666666856},{"name":"D#5","midi":75,"time":128.68124999999876,"velocity":0.5118110236220472,"duration":0.125},{"name":"C5","midi":72,"time":128.68124999999876,"velocity":0.5118110236220472,"duration":0.12291666666666856},{"name":"D5","midi":74,"time":128.8083333333321,"velocity":0.5118110236220472,"duration":0.12291666666666856},{"name":"A#4","midi":70,"time":128.8083333333321,"velocity":0.5118110236220472,"duration":0.12291666666666856},{"name":"C5","midi":72,"time":128.9333333333321,"velocity":0.5118110236220472,"duration":0.12291666666666856},{"name":"D#5","midi":75,"time":128.9333333333321,"velocity":0.5118110236220472,"duration":0.125},{"name":"F5","midi":77,"time":129.0583333333321,"velocity":0.5118110236220472,"duration":0.24791666666666856},{"name":"A4","midi":69,"time":129.06041666666542,"velocity":0.5118110236220472,"duration":0.12083333333333712},{"name":"A#4","midi":70,"time":129.18124999999876,"velocity":0.5118110236220472,"duration":0.12291666666666856},{"name":"F5","midi":77,"time":129.30624999999876,"velocity":0.5118110236220472,"duration":0.25208333333333144},{"name":"C5","midi":72,"time":129.3083333333321,"velocity":0.5118110236220472,"duration":0.12083333333333712},{"name":"A3","midi":57,"time":129.3083333333321,"velocity":0.6456692913385826,"duration":0.12083333333333712},{"name":"D5","midi":74,"time":129.43124999999876,"velocity":0.5118110236220472,"duration":0.12708333333333144},{"name":"A#3","midi":58,"time":129.43124999999876,"velocity":0.6456692913385826,"duration":0.125},{"name":"F5","midi":77,"time":129.56041666666542,"velocity":0.5118110236220472,"duration":0.2541666666666629},{"name":"D#5","midi":75,"time":129.56041666666542,"velocity":0.5118110236220472,"duration":0.12291666666666856},{"name":"C4","midi":60,"time":129.56249999999875,"velocity":0.6456692913385826,"duration":0.12083333333333712},{"name":"D5","midi":74,"time":129.68541666666542,"velocity":0.5118110236220472,"duration":0.12916666666666288},{"name":"A#3","midi":58,"time":129.68541666666542,"velocity":0.6456692913385826,"duration":0.12708333333333144},{"name":"F5","midi":77,"time":129.8166666666654,"velocity":0.5118110236220472,"duration":0.25},{"name":"C5","midi":72,"time":129.8166666666654,"velocity":0.5118110236220472,"duration":0.12291666666666856},{"name":"A3","midi":57,"time":129.81874999999874,"velocity":0.6456692913385826,"duration":0.12083333333333712},{"name":"D#5","midi":75,"time":129.9416666666654,"velocity":0.5118110236220472,"duration":0.125},{"name":"C4","midi":60,"time":129.9416666666654,"velocity":0.6456692913385826,"duration":0.12291666666666856},{"name":"F5","midi":77,"time":130.06874999999874,"velocity":0.5118110236220472,"duration":0.24375000000000568},{"name":"D5","midi":74,"time":130.06874999999874,"velocity":0.5118110236220472,"duration":0.24375000000000568},{"name":"A#3","midi":58,"time":130.07083333333208,"velocity":0.6456692913385826,"duration":0.11666666666667425},{"name":"F3","midi":53,"time":130.18749999999875,"velocity":0.6456692913385826,"duration":0.12291666666666856},{"name":"D3","midi":50,"time":130.31458333333208,"velocity":0.6456692913385826,"duration":0.11875000000000568},{"name":"F3","midi":53,"time":130.31458333333208,"velocity":0.6456692913385826,"duration":0.11875000000000568},{"name":"G3","midi":55,"time":130.43541666666542,"velocity":0.6456692913385826,"duration":0.12083333333333712},{"name":"D#3","midi":51,"time":130.43541666666542,"velocity":0.6456692913385826,"duration":0.12291666666666856},{"name":"F3","midi":53,"time":130.5583333333321,"velocity":0.6456692913385826,"duration":0.24583333333333712},{"name":"A3","midi":57,"time":130.56041666666542,"velocity":0.6456692913385826,"duration":0.11875000000000568},{"name":"A#3","midi":58,"time":130.67916666666542,"velocity":0.6456692913385826,"duration":0.12291666666666856},{"name":"A4","midi":69,"time":130.80416666666542,"velocity":0.5669291338582677,"duration":0.12291666666666856},{"name":"F3","midi":53,"time":130.80624999999876,"velocity":0.6456692913385826,"duration":0.24583333333333712},{"name":"C4","midi":60,"time":130.80624999999876,"velocity":0.6456692913385826,"duration":0.12083333333333712},{"name":"A#4","midi":70,"time":130.92916666666542,"velocity":0.5669291338582677,"duration":0.12291666666666856},{"name":"D4","midi":62,"time":130.92916666666542,"velocity":0.6456692913385826,"duration":0.12083333333333712},{"name":"C5","midi":72,"time":131.05416666666542,"velocity":0.5669291338582677,"duration":0.12083333333333712},{"name":"D#4","midi":63,"time":131.05416666666542,"velocity":0.6456692913385826,"duration":0.12083333333333712},{"name":"F3","midi":53,"time":131.05624999999876,"velocity":0.6456692913385826,"duration":0.24375000000000568},{"name":"A#4","midi":70,"time":131.1770833333321,"velocity":0.5669291338582677,"duration":0.12083333333333712},{"name":"D4","midi":62,"time":131.1770833333321,"velocity":0.6456692913385826,"duration":0.12083333333333712},{"name":"A4","midi":69,"time":131.29999999999876,"velocity":0.5669291338582677,"duration":0.12291666666666856},{"name":"C4","midi":60,"time":131.29999999999876,"velocity":0.6456692913385826,"duration":0.12083333333333712},{"name":"F3","midi":53,"time":131.3020833333321,"velocity":0.6456692913385826,"duration":0.24583333333333712},{"name":"C5","midi":72,"time":131.42291666666543,"velocity":0.5669291338582677,"duration":0.12291666666666856},{"name":"D#4","midi":63,"time":131.42499999999876,"velocity":0.6456692913385826,"duration":0.12083333333333712},{"name":"A#4","midi":70,"time":131.54791666666543,"velocity":0.5669291338582677,"duration":0.24791666666666856},{"name":"D4","midi":62,"time":131.54999999999876,"velocity":0.6456692913385826,"duration":0.12083333333333712},{"name":"F3","midi":53,"time":131.54999999999876,"velocity":0.6456692913385826,"duration":0.11875000000000568},{"name":"D#3","midi":51,"time":131.6708333333321,"velocity":0.6456692913385826,"duration":0.12291666666666856},{"name":"C4","midi":60,"time":131.67291666666543,"velocity":0.6456692913385826,"duration":0.12083333333333712},{"name":"D3","midi":50,"time":131.7958333333321,"velocity":0.6456692913385826,"duration":0.12083333333333712},{"name":"A#3","midi":58,"time":131.79791666666543,"velocity":0.6456692913385826,"duration":0.11666666666667425},{"name":"D#3","midi":51,"time":131.91666666666544,"velocity":0.6456692913385826,"duration":0.12291666666666856},{"name":"C4","midi":60,"time":131.91874999999877,"velocity":0.6456692913385826,"duration":0.12083333333333712},{"name":"F3","midi":53,"time":132.04166666666544,"velocity":0.6456692913385826,"duration":0.24791666666666856},{"name":"A3","midi":57,"time":132.04166666666544,"velocity":0.6456692913385826,"duration":0.12291666666666856},{"name":"A#3","midi":58,"time":132.1645833333321,"velocity":0.6456692913385826,"duration":0.12291666666666856},{"name":"A4","midi":69,"time":132.2895833333321,"velocity":0.5669291338582677,"duration":0.12083333333333712},{"name":"C4","midi":60,"time":132.2895833333321,"velocity":0.6456692913385826,"duration":0.11875000000000568},{"name":"F3","midi":53,"time":132.29166666666544,"velocity":0.6456692913385826,"duration":0.24166666666667425},{"name":"A#4","midi":70,"time":132.41249999999877,"velocity":0.5669291338582677,"duration":0.12083333333333712},{"name":"D4","midi":62,"time":132.41249999999877,"velocity":0.6456692913385826,"duration":0.11875000000000568},{"name":"C5","midi":72,"time":132.53541666666544,"velocity":0.5669291338582677,"duration":0.12291666666666856},{"name":"D#4","midi":63,"time":132.53541666666544,"velocity":0.6456692913385826,"duration":0.12291666666666856},{"name":"F3","midi":53,"time":132.53541666666544,"velocity":0.6456692913385826,"duration":0.24791666666666856},{"name":"A#4","midi":70,"time":132.6583333333321,"velocity":0.5669291338582677,"duration":0.125},{"name":"D4","midi":62,"time":132.66041666666544,"velocity":0.6456692913385826,"duration":0.12083333333333712},{"name":"A4","midi":69,"time":132.7833333333321,"velocity":0.5669291338582677,"duration":0.12291666666666856},{"name":"F3","midi":53,"time":132.78541666666544,"velocity":0.6456692913385826,"duration":0.24583333333333712},{"name":"C4","midi":60,"time":132.78541666666544,"velocity":0.6456692913385826,"duration":0.12083333333333712},{"name":"C5","midi":72,"time":132.9083333333321,"velocity":0.5669291338582677,"duration":0.12291666666666856},{"name":"D#4","midi":63,"time":132.9083333333321,"velocity":0.6456692913385826,"duration":0.12083333333333712},{"name":"A#4","midi":70,"time":133.0333333333321,"velocity":0.5669291338582677,"duration":0.24375000000000568},{"name":"D4","midi":62,"time":133.0333333333321,"velocity":0.6456692913385826,"duration":0.24375000000000568},{"name":"F3","midi":53,"time":133.03541666666544,"velocity":0.6456692913385826,"duration":0.11875000000000568},{"name":"D#3","midi":51,"time":133.15416666666545,"velocity":0.6456692913385826,"duration":0.12083333333333712},{"name":"A#4","midi":70,"time":133.27916666666545,"velocity":0.5905511811023622,"duration":0.25208333333333144},{"name":"G5","midi":79,"time":133.27916666666545,"velocity":0.5905511811023622,"duration":0.25208333333333144},{"name":"D3","midi":50,"time":133.27916666666545,"velocity":0.6456692913385826,"duration":0.12291666666666856},{"name":"D#3","midi":51,"time":133.40208333333211,"velocity":0.6456692913385826,"duration":0.12708333333333144},{"name":"A#4","midi":70,"time":133.5333333333321,"velocity":0.5905511811023622,"duration":0.5354166666666629},{"name":"D5","midi":74,"time":133.5333333333321,"velocity":0.5905511811023622,"duration":0.5374999999999943},{"name":"F3","midi":53,"time":133.53541666666544,"velocity":0.6456692913385826,"duration":0.2541666666666629},{"name":"D#3","midi":51,"time":133.79166666666544,"velocity":0.6456692913385826,"duration":0.2770833333333371},{"name":"C5","midi":72,"time":134.0708333333321,"velocity":0.5905511811023622,"duration":0.6062499999999886},{"name":"A4","midi":69,"time":134.07291666666544,"velocity":0.5905511811023622,"duration":0.2874999999999943},{"name":"F3","midi":53,"time":134.07291666666544,"velocity":0.6456692913385826,"duration":0.2874999999999943},{"name":"D#4","midi":63,"time":134.36249999999876,"velocity":0.6456692913385826,"duration":0.31458333333333144},{"name":"F2","midi":41,"time":134.36249999999876,"velocity":0.6456692913385826,"duration":0.3125},{"name":"A#4","midi":70,"time":134.67916666666542,"velocity":0.5433070866141733,"duration":4.337500000000006},{"name":"D4","midi":62,"time":134.67916666666542,"velocity":0.5748031496062992,"duration":4.335416666666674},{"name":"A#2","midi":46,"time":134.68124999999876,"velocity":0.5984251968503937,"duration":4.333333333333343}],"controlChanges":{"7":[{"number":7,"time":0,"value":0.8267716535433071},{"number":7,"time":0,"value":0.7874015748031497},{"number":7,"time":0,"value":0.7874015748031497}],"10":[{"number":10,"time":0,"value":0.5039370078740157},{"number":10,"time":0,"value":0.49606299212598426},{"number":10,"time":0,"value":0.3700787401574803},{"number":10,"time":5.356249999999999,"value":0.6220472440944882},{"number":10,"time":5.393749999999999,"value":0.5275590551181102},{"number":10,"time":5.435416666666665,"value":0.5196850393700787},{"number":10,"time":5.435416666666665,"value":0.47244094488188976},{"number":10,"time":5.479166666666665,"value":0.5905511811023622},{"number":10,"time":5.522916666666665,"value":0.4566929133858268},{"number":10,"time":5.5354166666666655,"value":0.5826771653543307},{"number":10,"time":5.549999999999999,"value":0.4330708661417323},{"number":10,"time":5.579166666666666,"value":0.4645669291338583}],"64":[{"number":64,"time":141.82916666666543,"value":0},{"number":64,"time":141.83124999999876,"value":0},{"number":64,"time":141.8333333333321,"value":0},{"number":64,"time":141.8833333333321,"value":0},{"number":64,"time":141.88541666666544,"value":0},{"number":64,"time":141.88749999999877,"value":0}]},"id":0,"name":"--------","instrumentNumber":0,"instrument":"acoustic grand piano","instrumentFamily":"piano","channelNumber":0,"isPercussion":false}]}