{"header":{"PPQ":240,"timeSignature":[1,4],"bpm":120,"name":""},"startTime":5.470833333333332,"duration":151.77291666666525,"tracks":[{"startTime":5.470833333333332,"duration":151.77291666666525,"length":1790,"notes":[{"name":"A4","midi":69,"time":5.470833333333332,"velocity":0.5905511811023622,"duration":0.14791666666666625},{"name":"A2","midi":45,"time":5.4729166666666655,"velocity":0.6062992125984252,"duration":0.5937499999999982},{"name":"B4","midi":71,"time":5.620833333333332,"velocity":0.5905511811023622,"duration":0.14374999999999982},{"name":"C#5","midi":73,"time":5.766666666666665,"velocity":0.5669291338582677,"duration":0.14791666666666625},{"name":"A4","midi":69,"time":5.916666666666664,"velocity":0.5905511811023622,"duration":0.14791666666666625},{"name":"F#5","midi":78,"time":6.066666666666664,"velocity":0.4881889763779528,"duration":0.30208333333333304},{"name":"A3","midi":57,"time":6.068749999999997,"velocity":0.6062992125984252,"duration":0.6041666666666661},{"name":"F#5","midi":78,"time":6.37083333333333,"velocity":0.4881889763779528,"duration":0.30208333333333304},{"name":"E5","midi":76,"time":6.674999999999996,"velocity":0.4881889763779528,"duration":0.14791666666666625},{"name":"G#3","midi":56,"time":6.674999999999996,"velocity":0.6062992125984252,"duration":0.5958333333333323},{"name":"D#5","midi":75,"time":6.824999999999996,"velocity":0.5669291338582677,"duration":0.14791666666666625},{"name":"E5","midi":76,"time":6.974999999999995,"velocity":0.4881889763779528,"duration":0.2937500000000002},{"name":"G3","midi":55,"time":7.270833333333329,"velocity":0.6062992125984252,"duration":0.5895833333333318},{"name":"E5","midi":76,"time":7.416666666666662,"velocity":0.4881889763779528,"duration":0.14791666666666625},{"name":"F#5","midi":78,"time":7.564583333333328,"velocity":0.4881889763779528,"duration":0.14791666666666625},{"name":"E4","midi":64,"time":7.564583333333328,"velocity":0.6062992125984252,"duration":0.5895833333333336},{"name":"G5","midi":79,"time":7.712499999999994,"velocity":0.4881889763779528,"duration":0.14791666666666625},{"name":"A5","midi":81,"time":7.86041666666666,"velocity":0.4881889763779528,"duration":0.14583333333333393},{"name":"F#3","midi":54,"time":7.862499999999994,"velocity":0.6062992125984252,"duration":0.5875000000000021},{"name":"G5","midi":79,"time":8.006249999999994,"velocity":0.4881889763779528,"duration":0.14791666666666714},{"name":"F#5","midi":78,"time":8.156249999999995,"velocity":0.4881889763779528,"duration":0.1437500000000007},{"name":"A3","midi":57,"time":8.156249999999995,"velocity":0.6062992125984252,"duration":0.29375000000000107},{"name":"A5","midi":81,"time":8.299999999999995,"velocity":0.4881889763779528,"duration":0.14791666666666714},{"name":"D5","midi":74,"time":8.449999999999996,"velocity":0.5669291338582677,"duration":0.1416666666666675},{"name":"B3","midi":59,"time":8.449999999999996,"velocity":0.6062992125984252,"duration":0.5812500000000025},{"name":"C#5","midi":73,"time":8.593749999999996,"velocity":0.5669291338582677,"duration":0.1437500000000007},{"name":"B4","midi":71,"time":8.73958333333333,"velocity":0.5905511811023622,"duration":0.1437500000000007},{"name":"D4","midi":62,"time":8.73958333333333,"velocity":0.6062992125984252,"duration":0.5833333333333357},{"name":"A5","midi":81,"time":8.885416666666664,"velocity":0.4645669291338583,"duration":0.1437500000000007},{"name":"G#5","midi":80,"time":9.031249999999998,"velocity":0.4645669291338583,"duration":0.1437500000000007},{"name":"E3","midi":52,"time":9.033333333333331,"velocity":0.6062992125984252,"duration":0.5812500000000025},{"name":"F#5","midi":78,"time":9.177083333333332,"velocity":0.4645669291338583,"duration":0.14583333333333393},{"name":"E5","midi":76,"time":9.325,"velocity":0.4645669291338583,"duration":0.1437500000000007},{"name":"G#3","midi":56,"time":9.325,"velocity":0.6062992125984252,"duration":0.2875000000000014},{"name":"G#5","midi":80,"time":9.46875,"velocity":0.4645669291338583,"duration":0.1437500000000007},{"name":"C#5","midi":73,"time":9.614583333333334,"velocity":0.5826771653543307,"duration":0.14166666666666572},{"name":"A3","midi":57,"time":9.616666666666667,"velocity":0.6062992125984252,"duration":0.6375000000000011},{"name":"B4","midi":71,"time":9.75625,"velocity":0.6062992125984252,"duration":0.14583333333333393},{"name":"A4","midi":69,"time":9.902083333333334,"velocity":0.6062992125984252,"duration":0.15208333333333357},{"name":"C#4","midi":61,"time":9.904166666666667,"velocity":0.6062992125984252,"duration":0.5833333333333357},{"name":"G5","midi":79,"time":10.05,"velocity":0.48031496062992124,"duration":0.14583333333333393},{"name":"F#5","midi":78,"time":10.197916666666668,"velocity":0.48031496062992124,"duration":0.14791666666666714},{"name":"D3","midi":50,"time":10.197916666666668,"velocity":0.6062992125984252,"duration":0.5791666666666693},{"name":"E5","midi":76,"time":10.341666666666669,"velocity":0.48031496062992124,"duration":0.15000000000000036},{"name":"D5","midi":74,"time":10.489583333333336,"velocity":0.5826771653543307,"duration":0.16250000000000142},{"name":"B3","midi":59,"time":10.489583333333336,"velocity":0.6062992125984252,"duration":0.1437500000000007},{"name":"F#5","midi":78,"time":10.63541666666667,"velocity":0.48031496062992124,"duration":0.16250000000000142},{"name":"A3","midi":57,"time":10.63541666666667,"velocity":0.6062992125984252,"duration":0.11875000000000036},{"name":"B4","midi":71,"time":10.77916666666667,"velocity":0.6062992125984252,"duration":0.16458333333333286},{"name":"E3","midi":52,"time":10.77916666666667,"velocity":0.6062992125984252,"duration":0.5854166666666689},{"name":"A3","midi":57,"time":10.781250000000004,"velocity":0.6062992125984252,"duration":0.05000000000000071},{"name":"G#3","midi":56,"time":10.833333333333337,"velocity":0.6062992125984252,"duration":0.052083333333333925},{"name":"A3","midi":57,"time":10.887500000000005,"velocity":0.6062992125984252,"duration":0.049999999999998934},{"name":"F#5","midi":78,"time":10.925000000000004,"velocity":0.48031496062992124,"duration":0.15000000000000036},{"name":"G#3","midi":56,"time":10.939583333333337,"velocity":0.6062992125984252,"duration":0.052083333333333925},{"name":"A3","midi":57,"time":10.993750000000004,"velocity":0.6062992125984252,"duration":0.052083333333333925},{"name":"G#3","midi":56,"time":11.047916666666671,"velocity":0.6062992125984252,"duration":0.1437500000000007},{"name":"E5","midi":76,"time":11.070833333333338,"velocity":0.5039370078740157,"duration":0.15000000000000036},{"name":"D5","midi":74,"time":11.216666666666672,"velocity":0.6062992125984252,"duration":0.14583333333333393},{"name":"G#3","midi":56,"time":11.216666666666672,"velocity":0.6062992125984252,"duration":0.14583333333333393},{"name":"C#5","midi":73,"time":11.36458333333334,"velocity":0.6062992125984252,"duration":0.14166666666666572},{"name":"A3","midi":57,"time":11.366666666666672,"velocity":0.6062992125984252,"duration":0.25833333333333286},{"name":"A2","midi":45,"time":11.366666666666672,"velocity":0.6062992125984252,"duration":0.2833333333333332},{"name":"B4","midi":71,"time":11.508333333333338,"velocity":0.6062992125984252,"duration":0.1416666666666675},{"name":"A4","midi":69,"time":11.652083333333339,"velocity":0.6062992125984252,"duration":0.1416666666666675},{"name":"A3","midi":57,"time":11.652083333333339,"velocity":0.6062992125984252,"duration":0.2875000000000014},{"name":"B4","midi":71,"time":11.79583333333334,"velocity":0.6062992125984252,"duration":0.1416666666666675},{"name":"C#5","midi":73,"time":11.93958333333334,"velocity":0.6062992125984252,"duration":0.14166666666666572},{"name":"G#3","midi":56,"time":11.941666666666674,"velocity":0.6062992125984252,"duration":0.28541666666666643},{"name":"D#5","midi":75,"time":12.08333333333334,"velocity":0.6062992125984252,"duration":0.1416666666666675},{"name":"E5","midi":76,"time":12.22708333333334,"velocity":0.48031496062992124,"duration":0.14166666666666572},{"name":"F#3","midi":54,"time":12.229166666666673,"velocity":0.6062992125984252,"duration":0.2833333333333332},{"name":"F#5","midi":78,"time":12.368750000000006,"velocity":0.48031496062992124,"duration":0.1437500000000007},{"name":"G#5","midi":80,"time":12.51458333333334,"velocity":0.48031496062992124,"duration":0.14583333333333393},{"name":"E3","midi":52,"time":12.51458333333334,"velocity":0.6062992125984252,"duration":0.1437500000000007},{"name":"A5","midi":81,"time":12.660416666666674,"velocity":0.48031496062992124,"duration":0.1416666666666675},{"name":"F#3","midi":54,"time":12.660416666666674,"velocity":0.6062992125984252,"duration":0.1416666666666675},{"name":"B5","midi":83,"time":12.804166666666674,"velocity":0.48031496062992124,"duration":0.1437500000000007},{"name":"G#3","midi":56,"time":12.804166666666674,"velocity":0.6062992125984252,"duration":0.1437500000000007},{"name":"G#5","midi":80,"time":12.947916666666675,"velocity":0.48031496062992124,"duration":0.1437500000000007},{"name":"E3","midi":52,"time":12.950000000000008,"velocity":0.6062992125984252,"duration":0.1416666666666675},{"name":"E5","midi":76,"time":13.093750000000009,"velocity":0.48031496062992124,"duration":0.5750000000000028},{"name":"C#4","midi":61,"time":13.093750000000009,"velocity":0.6062992125984252,"duration":0.2875000000000014},{"name":"F#5","midi":78,"time":13.235416666666676,"velocity":0.48031496062992124,"duration":0.14583333333333393},{"name":"G#5","midi":80,"time":13.383333333333344,"velocity":0.48031496062992124,"duration":0.1416666666666675},{"name":"C#4","midi":61,"time":13.383333333333344,"velocity":0.6062992125984252,"duration":0.2875000000000014},{"name":"E5","midi":76,"time":13.525000000000011,"velocity":0.48031496062992124,"duration":0.14583333333333393},{"name":"D#5","midi":75,"time":13.672916666666678,"velocity":0.5826771653543307,"duration":0.5749999999999975},{"name":"F#5","midi":78,"time":13.672916666666678,"velocity":0.48031496062992124,"duration":0.14166666666666572},{"name":"C#4","midi":61,"time":13.675000000000011,"velocity":0.6062992125984252,"duration":0.1374999999999993},{"name":"G#5","midi":80,"time":13.814583333333344,"velocity":0.48031496062992124,"duration":0.14374999999999893},{"name":"A#3","midi":58,"time":13.816666666666677,"velocity":0.6062992125984252,"duration":0.1395833333333325},{"name":"A5","midi":81,"time":13.958333333333343,"velocity":0.4566929133858268,"duration":0.14166666666666572},{"name":"B3","midi":59,"time":13.960416666666676,"velocity":0.6062992125984252,"duration":0.28541666666666643},{"name":"F#5","midi":78,"time":14.102083333333342,"velocity":0.4566929133858268,"duration":0.1437500000000007},{"name":"D5","midi":74,"time":14.247916666666676,"velocity":0.5826771653543307,"duration":0.5708333333333346},{"name":"B4","midi":71,"time":14.250000000000009,"velocity":0.6062992125984252,"duration":0.28125},{"name":"B3","midi":59,"time":14.389583333333341,"velocity":0.6062992125984252,"duration":0.1416666666666675},{"name":"B5","midi":83,"time":14.533333333333342,"velocity":0.4566929133858268,"duration":0.5645833333333332},{"name":"C#4","midi":61,"time":14.533333333333342,"velocity":0.6062992125984252,"duration":0.1416666666666675},{"name":"D4","midi":62,"time":14.67500000000001,"velocity":0.6062992125984252,"duration":0.1416666666666675},{"name":"C#5","midi":73,"time":14.81875000000001,"velocity":0.6062992125984252,"duration":0.5562499999999968},{"name":"E4","midi":64,"time":14.820833333333344,"velocity":0.6062992125984252,"duration":0.13541666666666607},{"name":"D4","midi":62,"time":14.958333333333343,"velocity":0.6062992125984252,"duration":0.1395833333333325},{"name":"E5","midi":76,"time":15.100000000000009,"velocity":0.4566929133858268,"duration":0.2749999999999986},{"name":"C#4","midi":61,"time":15.100000000000009,"velocity":0.6062992125984252,"duration":0.13541666666666607},{"name":"E4","midi":64,"time":15.235416666666675,"velocity":0.6062992125984252,"duration":0.1374999999999993},{"name":"F#5","midi":78,"time":15.375000000000007,"velocity":0.4566929133858268,"duration":0.5541666666666636},{"name":"A3","midi":57,"time":15.37708333333334,"velocity":0.6062992125984252,"duration":0.13124999999999964},{"name":"G#3","midi":56,"time":15.510416666666673,"velocity":0.6062992125984252,"duration":0.1395833333333325},{"name":"A5","midi":81,"time":15.652083333333339,"velocity":0.4566929133858268,"duration":0.5604166666666703},{"name":"F#3","midi":54,"time":15.652083333333339,"velocity":0.6062992125984252,"duration":0.1395833333333325},{"name":"E4","midi":64,"time":15.791666666666671,"velocity":0.6062992125984252,"duration":0.1374999999999993},{"name":"B4","midi":71,"time":15.931250000000004,"velocity":0.6062992125984252,"duration":0.5666666666666753},{"name":"D#4","midi":63,"time":15.931250000000004,"velocity":0.6062992125984252,"duration":0.13750000000000107},{"name":"C#4","midi":61,"time":16.07083333333334,"velocity":0.6062992125984252,"duration":0.13958333333333428},{"name":"D#5","midi":75,"time":16.21250000000001,"velocity":0.5590551181102362,"duration":0.283333333333335},{"name":"B3","midi":59,"time":16.214583333333344,"velocity":0.6062992125984252,"duration":0.1374999999999993},{"name":"D#4","midi":63,"time":16.35416666666668,"velocity":0.6062992125984252,"duration":0.14166666666666572},{"name":"E5","midi":76,"time":16.49791666666668,"velocity":0.4566929133858268,"duration":1.1270833333333528},{"name":"G#3","midi":56,"time":16.500000000000014,"velocity":0.6062992125984252,"duration":0.13541666666666785},{"name":"F#3","midi":54,"time":16.635416666666682,"velocity":0.6062992125984252,"duration":0.13958333333333428},{"name":"G#5","midi":80,"time":16.775000000000016,"velocity":0.4566929133858268,"duration":0.2791666666666721},{"name":"E3","midi":52,"time":16.77708333333335,"velocity":0.6062992125984252,"duration":0.13541666666666785},{"name":"D4","midi":62,"time":16.914583333333354,"velocity":0.6062992125984252,"duration":0.13958333333333428},{"name":"A5","midi":81,"time":17.05416666666669,"velocity":0.4566929133858268,"duration":0.13958333333333428},{"name":"C#4","midi":61,"time":17.056250000000023,"velocity":0.6062992125984252,"duration":0.1374999999999993},{"name":"G#5","midi":80,"time":17.195833333333358,"velocity":0.4566929133858268,"duration":0.14166666666666572},{"name":"B3","midi":59,"time":17.195833333333358,"velocity":0.6062992125984252,"duration":0.14166666666666572},{"name":"F#5","midi":78,"time":17.33958333333336,"velocity":0.4566929133858268,"duration":0.13958333333333428},{"name":"A3","midi":57,"time":17.33958333333336,"velocity":0.6062992125984252,"duration":0.13958333333333428},{"name":"A5","midi":81,"time":17.481250000000028,"velocity":0.4566929133858268,"duration":0.14166666666666927},{"name":"C#4","midi":61,"time":17.483333333333363,"velocity":0.6062992125984252,"duration":0.13958333333333428},{"name":"D#5","midi":75,"time":17.625000000000032,"velocity":0.5590551181102362,"duration":0.5562500000000092},{"name":"F#3","midi":54,"time":17.625000000000032,"velocity":0.6062992125984252,"duration":0.1374999999999993},{"name":"A5","midi":81,"time":17.76250000000003,"velocity":0.4566929133858268,"duration":0.13958333333333428},{"name":"C#4","midi":61,"time":17.764583333333366,"velocity":0.6062992125984252,"duration":0.1374999999999993},{"name":"G#5","midi":80,"time":17.902083333333366,"velocity":0.48031496062992124,"duration":0.13958333333333783},{"name":"B3","midi":59,"time":17.9041666666667,"velocity":0.6062992125984252,"duration":0.13541666666666785},{"name":"F#5","midi":78,"time":18.041666666666703,"velocity":0.48031496062992124,"duration":0.13958333333333783},{"name":"A3","midi":57,"time":18.04375000000004,"velocity":0.6062992125984252,"duration":0.13541666666666785},{"name":"E5","midi":76,"time":18.183333333333376,"velocity":0.48031496062992124,"duration":0.5562500000000057},{"name":"G#3","midi":56,"time":18.183333333333376,"velocity":0.6062992125984252,"duration":0.13541666666666785},{"name":"F#3","midi":54,"time":18.318750000000044,"velocity":0.6062992125984252,"duration":0.13958333333333428},{"name":"B4","midi":71,"time":18.45833333333338,"velocity":0.6062992125984252,"duration":0.28125000000000355},{"name":"E3","midi":52,"time":18.460416666666713,"velocity":0.6062992125984252,"duration":0.1374999999999993},{"name":"F#3","midi":54,"time":18.600000000000048,"velocity":0.6062992125984252,"duration":0.1374999999999993},{"name":"E5","midi":76,"time":18.741666666666717,"velocity":0.5039370078740157,"duration":0.27500000000000213},{"name":"G#3","midi":56,"time":18.741666666666717,"velocity":0.6062992125984252,"duration":0.13333333333333286},{"name":"A3","midi":57,"time":18.877083333333385,"velocity":0.6062992125984252,"duration":0.13958333333333428},{"name":"G5","midi":79,"time":19.018750000000054,"velocity":0.5039370078740157,"duration":0.2770833333333371},{"name":"E5","midi":76,"time":19.018750000000054,"velocity":0.5039370078740157,"duration":0.2770833333333371},{"name":"B3","midi":59,"time":19.02083333333339,"velocity":0.6062992125984252,"duration":0.13333333333333286},{"name":"C#4","midi":61,"time":19.154166666666722,"velocity":0.6062992125984252,"duration":0.13958333333333428},{"name":"G5","midi":79,"time":19.297916666666726,"velocity":0.5039370078740157,"duration":0.2729166666666707},{"name":"E5","midi":76,"time":19.297916666666726,"velocity":0.5039370078740157,"duration":0.2750000000000057},{"name":"D4","midi":62,"time":19.30000000000006,"velocity":0.6062992125984252,"duration":0.13125000000000142},{"name":"E4","midi":64,"time":19.433333333333398,"velocity":0.6062992125984252,"duration":0.1374999999999993},{"name":"D5","midi":74,"time":19.572916666666732,"velocity":0.5826771653543307,"duration":0.2770833333333371},{"name":"F#5","midi":78,"time":19.575000000000067,"velocity":0.5039370078740157,"duration":0.27500000000000213},{"name":"F#4","midi":66,"time":19.575000000000067,"velocity":0.6062992125984252,"duration":0.13541666666666785},{"name":"D4","midi":62,"time":19.710416666666735,"velocity":0.6062992125984252,"duration":0.1374999999999993},{"name":"B3","midi":59,"time":19.85000000000007,"velocity":0.6062992125984252,"duration":0.1374999999999993},{"name":"C#4","midi":61,"time":19.989583333333403,"velocity":0.6062992125984252,"duration":0.13541666666666785},{"name":"F#5","midi":78,"time":20.127083333333406,"velocity":0.5039370078740157,"duration":0.27916666666666856},{"name":"D5","midi":74,"time":20.127083333333406,"velocity":0.5826771653543307,"duration":0.27708333333333357},{"name":"D4","midi":62,"time":20.12916666666674,"velocity":0.6062992125984252,"duration":0.1374999999999993},{"name":"B3","midi":59,"time":20.26666666666674,"velocity":0.6062992125984252,"duration":0.1374999999999993},{"name":"F#5","midi":78,"time":20.406250000000075,"velocity":0.5039370078740157,"duration":0.2770833333333371},{"name":"D5","midi":74,"time":20.40833333333341,"velocity":0.5826771653543307,"duration":0.27500000000000213},{"name":"C#4","midi":61,"time":20.40833333333341,"velocity":0.6062992125984252,"duration":0.13541666666666785},{"name":"D4","midi":62,"time":20.545833333333412,"velocity":0.6062992125984252,"duration":0.1374999999999993},{"name":"E5","midi":76,"time":20.685416666666747,"velocity":0.5039370078740157,"duration":0.27500000000000213},{"name":"C#5","midi":73,"time":20.685416666666747,"velocity":0.6062992125984252,"duration":0.27291666666666714},{"name":"E4","midi":64,"time":20.68750000000008,"velocity":0.6062992125984252,"duration":0.13333333333333286},{"name":"C#4","midi":61,"time":20.820833333333415,"velocity":0.6062992125984252,"duration":0.1374999999999993},{"name":"A3","midi":57,"time":20.96041666666675,"velocity":0.6062992125984252,"duration":0.13541666666666785},{"name":"B3","midi":59,"time":21.09791666666675,"velocity":0.6062992125984252,"duration":0.13541666666666785},{"name":"C#5","midi":73,"time":21.235416666666755,"velocity":0.6062992125984252,"duration":0.27500000000000213},{"name":"E5","midi":76,"time":21.235416666666755,"velocity":0.5039370078740157,"duration":0.2770833333333371},{"name":"C#4","midi":61,"time":21.23750000000009,"velocity":0.6062992125984252,"duration":0.13541666666666785},{"name":"A3","midi":57,"time":21.372916666666757,"velocity":0.6062992125984252,"duration":0.1374999999999993},{"name":"E5","midi":76,"time":21.51250000000009,"velocity":0.5039370078740157,"duration":0.2770833333333371},{"name":"C#5","midi":73,"time":21.514583333333427,"velocity":0.6062992125984252,"duration":0.27500000000000213},{"name":"B3","midi":59,"time":21.514583333333427,"velocity":0.6062992125984252,"duration":0.13333333333333286},{"name":"C#4","midi":61,"time":21.650000000000095,"velocity":0.6062992125984252,"duration":0.1374999999999993},{"name":"B4","midi":71,"time":21.791666666666764,"velocity":0.6062992125984252,"duration":0.2791666666666721},{"name":"D5","midi":74,"time":21.791666666666764,"velocity":0.5826771653543307,"duration":0.2791666666666721},{"name":"D4","midi":62,"time":21.7937500000001,"velocity":0.6062992125984252,"duration":0.13333333333333286},{"name":"B3","midi":59,"time":21.929166666666767,"velocity":0.6062992125984252,"duration":0.13958333333333428},{"name":"G#3","midi":56,"time":22.070833333333436,"velocity":0.6062992125984252,"duration":0.1374999999999993},{"name":"A3","midi":57,"time":22.208333333333435,"velocity":0.6062992125984252,"duration":0.14166666666666572},{"name":"D5","midi":74,"time":22.3500000000001,"velocity":0.5826771653543307,"duration":0.27500000000000213},{"name":"B3","midi":59,"time":22.3500000000001,"velocity":0.6062992125984252,"duration":0.1374999999999993},{"name":"G#3","midi":56,"time":22.4875000000001,"velocity":0.6062992125984252,"duration":0.13541666666666785},{"name":"D5","midi":74,"time":22.625000000000103,"velocity":0.6062992125984252,"duration":0.2770833333333371},{"name":"A3","midi":57,"time":22.625000000000103,"velocity":0.6062992125984252,"duration":0.5562500000000057},{"name":"B3","midi":59,"time":22.76041666666677,"velocity":0.6062992125984252,"duration":0.13958333333333428},{"name":"C#5","midi":73,"time":22.90208333333344,"velocity":0.6062992125984252,"duration":0.27916666666666856},{"name":"C#4","midi":61,"time":22.904166666666775,"velocity":0.6062992125984252,"duration":0.1374999999999993},{"name":"A3","midi":57,"time":23.041666666666774,"velocity":0.6062992125984252,"duration":0.14166666666666927},{"name":"A5","midi":81,"time":23.183333333333444,"velocity":0.5905511811023622,"duration":0.5562500000000057},{"name":"F#4","midi":66,"time":23.18541666666678,"velocity":0.6062992125984252,"duration":0.27500000000000213},{"name":"C#4","midi":61,"time":23.320833333333447,"velocity":0.6062992125984252,"duration":0.1374999999999993},{"name":"F#4","midi":66,"time":23.46041666666678,"velocity":0.6062992125984252,"duration":0.27708333333333357},{"name":"A3","midi":57,"time":23.462500000000116,"velocity":0.6062992125984252,"duration":0.1374999999999993},{"name":"F#3","midi":54,"time":23.600000000000115,"velocity":0.6062992125984252,"duration":0.1374999999999993},{"name":"G#5","midi":80,"time":23.73958333333345,"velocity":0.5354330708661418,"duration":0.5541666666666707},{"name":"C#4","midi":61,"time":23.741666666666784,"velocity":0.6062992125984252,"duration":0.5500000000000007},{"name":"F#4","midi":66,"time":23.741666666666784,"velocity":0.6062992125984252,"duration":0.13541666666666785},{"name":"D#4","midi":63,"time":23.877083333333452,"velocity":0.6062992125984252,"duration":0.1374999999999993},{"name":"E4","midi":64,"time":24.016666666666787,"velocity":0.6062992125984252,"duration":0.2749999999999986},{"name":"G5","midi":79,"time":24.29375000000012,"velocity":0.5039370078740157,"duration":0.5479166666666693},{"name":"E4","midi":64,"time":24.429166666666788,"velocity":0.6062992125984252,"duration":0.6916666666666735},{"name":"F#4","midi":66,"time":24.566666666666787,"velocity":0.6062992125984252,"duration":0.1374999999999993},{"name":"G4","midi":67,"time":24.70625000000012,"velocity":0.6062992125984252,"duration":0.13541666666666785},{"name":"F#5","midi":78,"time":24.843750000000124,"velocity":0.5039370078740157,"duration":0.5562500000000092},{"name":"A4","midi":69,"time":24.843750000000124,"velocity":0.6062992125984252,"duration":0.13541666666666785},{"name":"G4","midi":67,"time":24.979166666666792,"velocity":0.6062992125984252,"duration":0.13958333333333428},{"name":"F#4","midi":66,"time":25.12083333333346,"velocity":0.6062992125984252,"duration":0.13541666666666785},{"name":"A3","midi":57,"time":25.122916666666796,"velocity":0.6062992125984252,"duration":0.27500000000000213},{"name":"A4","midi":69,"time":25.258333333333464,"velocity":0.6062992125984252,"duration":0.13958333333333428},{"name":"B5","midi":83,"time":25.400000000000134,"velocity":0.5275590551181102,"duration":0.5541666666666742},{"name":"D4","midi":62,"time":25.400000000000134,"velocity":0.6062992125984252,"duration":0.13541666666666785},{"name":"C#4","midi":61,"time":25.5354166666668,"velocity":0.6062992125984252,"duration":0.14166666666666572},{"name":"D4","midi":62,"time":25.677083333333467,"velocity":0.6062992125984252,"duration":0.5520833333333428},{"name":"B3","midi":59,"time":25.679166666666802,"velocity":0.6062992125984252,"duration":0.13541666666666785},{"name":"A4","midi":69,"time":25.816666666666805,"velocity":0.6062992125984252,"duration":0.13541666666666785},{"name":"G#4","midi":68,"time":25.954166666666808,"velocity":0.6062992125984252,"duration":0.13750000000000284},{"name":"E5","midi":76,"time":25.956250000000143,"velocity":0.5039370078740157,"duration":0.5541666666666707},{"name":"F#4","midi":66,"time":26.09166666666681,"velocity":0.6062992125984252,"duration":0.1374999999999993},{"name":"G#3","midi":56,"time":26.231250000000145,"velocity":0.6062992125984252,"duration":0.27916666666666856},{"name":"E4","midi":64,"time":26.231250000000145,"velocity":0.6062992125984252,"duration":0.1374999999999993},{"name":"G#4","midi":68,"time":26.37083333333348,"velocity":0.6062992125984252,"duration":0.1374999999999993},{"name":"A5","midi":81,"time":26.51250000000015,"velocity":0.5905511811023622,"duration":1.1145833333333428},{"name":"C#4","midi":61,"time":26.51250000000015,"velocity":0.6062992125984252,"duration":0.1374999999999993},{"name":"B3","midi":59,"time":26.650000000000148,"velocity":0.6062992125984252,"duration":0.1374999999999993},{"name":"A3","midi":57,"time":26.787500000000147,"velocity":0.6062992125984252,"duration":0.13958333333333428},{"name":"C#4","midi":61,"time":26.789583333333482,"velocity":0.6062992125984252,"duration":0.27708333333333357},{"name":"G4","midi":67,"time":26.92708333333348,"velocity":0.6062992125984252,"duration":0.1374999999999993},{"name":"F#4","midi":66,"time":27.066666666666816,"velocity":0.6062992125984252,"duration":0.13750000000000284},{"name":"D4","midi":62,"time":27.06875000000015,"velocity":0.6062992125984252,"duration":0.2770833333333371},{"name":"E4","midi":64,"time":27.206250000000153,"velocity":0.6062992125984252,"duration":0.13958333333333428},{"name":"B3","midi":59,"time":27.347916666666823,"velocity":0.6062992125984252,"duration":0.27916666666666856},{"name":"D4","midi":62,"time":27.347916666666823,"velocity":0.6062992125984252,"duration":0.13958333333333428},{"name":"F#4","midi":66,"time":27.487500000000157,"velocity":0.6062992125984252,"duration":0.1374999999999993},{"name":"G#5","midi":80,"time":27.62708333333349,"velocity":0.5039370078740157,"duration":0.7020833333333414},{"name":"B3","midi":59,"time":27.629166666666826,"velocity":0.6062992125984252,"duration":0.1374999999999993},{"name":"F#4","midi":66,"time":27.766666666666826,"velocity":0.6062992125984252,"duration":0.13958333333333428},{"name":"E3","midi":52,"time":27.90625000000016,"velocity":0.6062992125984252,"duration":0.28333333333333854},{"name":"E4","midi":64,"time":27.908333333333495,"velocity":0.6062992125984252,"duration":0.1374999999999993},{"name":"D4","midi":62,"time":28.04791666666683,"velocity":0.6062992125984252,"duration":0.13958333333333428},{"name":"C#4","midi":61,"time":28.1895833333335,"velocity":0.6062992125984252,"duration":0.5645833333333385},{"name":"A3","midi":57,"time":28.191666666666833,"velocity":0.6062992125984252,"duration":0.28125},{"name":"F#5","midi":78,"time":28.331250000000168,"velocity":0.5039370078740157,"duration":0.14166666666666572},{"name":"F5","midi":77,"time":28.47500000000017,"velocity":0.5039370078740157,"duration":0.1374999999999993},{"name":"G#3","midi":56,"time":28.47500000000017,"velocity":0.6062992125984252,"duration":0.27708333333333357},{"name":"G#5","midi":80,"time":28.612500000000168,"velocity":0.5039370078740157,"duration":0.13958333333333428},{"name":"F#5","midi":78,"time":28.754166666666837,"velocity":0.5039370078740157,"duration":1.110416666666687},{"name":"A3","midi":57,"time":28.756250000000172,"velocity":0.6062992125984252,"duration":0.2770833333333371},{"name":"E5","midi":76,"time":28.89166666666684,"velocity":0.5039370078740157,"duration":0.13958333333333428},{"name":"D5","midi":74,"time":29.03333333333351,"velocity":0.6062992125984252,"duration":0.13750000000000284},{"name":"F#3","midi":54,"time":29.035416666666844,"velocity":0.6062992125984252,"duration":0.27291666666666714},{"name":"C#5","midi":73,"time":29.170833333333512,"velocity":0.6062992125984252,"duration":0.1374999999999993},{"name":"B4","midi":71,"time":29.310416666666846,"velocity":0.6062992125984252,"duration":0.13541666666666785},{"name":"G#3","midi":56,"time":29.310416666666846,"velocity":0.6062992125984252,"duration":0.2750000000000057},{"name":"A4","midi":69,"time":29.44791666666685,"velocity":0.6062992125984252,"duration":0.13541666666666785},{"name":"G#4","midi":68,"time":29.585416666666852,"velocity":0.6062992125984252,"duration":0.13750000000000284},{"name":"B3","midi":59,"time":29.587500000000187,"velocity":0.6062992125984252,"duration":0.27500000000000213},{"name":"B4","midi":71,"time":29.722916666666855,"velocity":0.6062992125984252,"duration":0.13958333333333428},{"name":"F5","midi":77,"time":29.864583333333524,"velocity":0.5039370078740157,"duration":0.5604166666666792},{"name":"C#4","midi":61,"time":29.86666666666686,"velocity":0.6062992125984252,"duration":0.2770833333333371},{"name":"D5","midi":74,"time":30.002083333333527,"velocity":0.6062992125984252,"duration":0.13958333333333428},{"name":"C#5","midi":73,"time":30.143750000000196,"velocity":0.6062992125984252,"duration":0.13750000000000284},{"name":"C#3","midi":49,"time":30.14583333333353,"velocity":0.6062992125984252,"duration":0.2770833333333371},{"name":"B4","midi":71,"time":30.283333333333534,"velocity":0.6062992125984252,"duration":0.13958333333333428},{"name":"F#5","midi":78,"time":30.425000000000203,"velocity":0.5039370078740157,"duration":0.13750000000000284},{"name":"A4","midi":69,"time":30.425000000000203,"velocity":0.6062992125984252,"duration":0.5520833333333428},{"name":"F#3","midi":54,"time":30.427083333333538,"velocity":0.6062992125984252,"duration":0.27291666666666714},{"name":"G#5","midi":80,"time":30.562500000000206,"velocity":0.5039370078740157,"duration":0.1374999999999993},{"name":"A5","midi":81,"time":30.70208333333354,"velocity":0.5275590551181102,"duration":0.13541666666666785},{"name":"F#2","midi":42,"time":30.70208333333354,"velocity":0.6062992125984252,"duration":0.2750000000000057},{"name":"F#5","midi":78,"time":30.839583333333543,"velocity":0.5039370078740157,"duration":0.13541666666666785},{"name":"D5","midi":74,"time":30.97916666666688,"velocity":0.6062992125984252,"duration":0.27083333333333215},{"name":"F#3","midi":54,"time":30.97916666666688,"velocity":0.6062992125984252,"duration":0.5479166666666693},{"name":"C#5","midi":73,"time":31.112500000000214,"velocity":0.6062992125984252,"duration":0.1374999999999993},{"name":"D5","midi":74,"time":31.252083333333548,"velocity":0.6062992125984252,"duration":0.27500000000000213},{"name":"B4","midi":71,"time":31.252083333333548,"velocity":0.6062992125984252,"duration":0.13541666666666785},{"name":"A4","midi":69,"time":31.38958333333355,"velocity":0.6062992125984252,"duration":0.1374999999999993},{"name":"G#4","midi":68,"time":31.529166666666885,"velocity":0.6062992125984252,"duration":0.41666666666666785},{"name":"D5","midi":74,"time":31.529166666666885,"velocity":0.6062992125984252,"duration":0.13541666666666785},{"name":"F3","midi":53,"time":31.53125000000022,"velocity":0.6062992125984252,"duration":0.5562499999999986},{"name":"C5","midi":72,"time":31.664583333333553,"velocity":0.6062992125984252,"duration":0.13958333333333428},{"name":"C#5","midi":73,"time":31.804166666666887,"velocity":0.6062992125984252,"duration":0.28125},{"name":"G#3","midi":56,"time":31.945833333333553,"velocity":0.6062992125984252,"duration":0.13958333333333428},{"name":"E3","midi":52,"time":32.08750000000022,"velocity":0.6062992125984252,"duration":0.5479166666666657},{"name":"C#4","midi":61,"time":32.08750000000022,"velocity":0.6062992125984252,"duration":0.8270833333333343},{"name":"C#5","midi":73,"time":32.22291666666688,"velocity":0.6062992125984252,"duration":0.1354166666666643},{"name":"D5","midi":74,"time":32.35833333333355,"velocity":0.6062992125984252,"duration":0.13958333333333428},{"name":"E5","midi":76,"time":32.49791666666688,"velocity":0.5275590551181102,"duration":0.13750000000000284},{"name":"F#5","midi":78,"time":32.637500000000216,"velocity":0.5275590551181102,"duration":0.13750000000000284},{"name":"D#3","midi":51,"time":32.637500000000216,"velocity":0.6062992125984252,"duration":0.5562499999999986},{"name":"E5","midi":76,"time":32.77500000000022,"velocity":0.5275590551181102,"duration":0.13750000000000284},{"name":"D#5","midi":75,"time":32.91458333333355,"velocity":0.6062992125984252,"duration":0.13749999999999574},{"name":"F#3","midi":54,"time":32.916666666666885,"velocity":0.6062992125984252,"duration":0.2749999999999986},{"name":"F#5","midi":78,"time":33.05416666666688,"velocity":0.5275590551181102,"duration":0.13750000000000284},{"name":"B4","midi":71,"time":33.193750000000215,"velocity":0.6062992125984252,"duration":0.13749999999999574},{"name":"G#3","midi":56,"time":33.195833333333546,"velocity":0.6062992125984252,"duration":0.5541666666666671},{"name":"A4","midi":69,"time":33.33125000000021,"velocity":0.6062992125984252,"duration":0.13958333333333428},{"name":"G#4","midi":68,"time":33.472916666666876,"velocity":0.6062992125984252,"duration":0.13750000000000284},{"name":"B3","midi":59,"time":33.472916666666876,"velocity":0.6062992125984252,"duration":0.5541666666666742},{"name":"F#5","midi":78,"time":33.61250000000021,"velocity":0.5275590551181102,"duration":0.13750000000000284},{"name":"F5","midi":77,"time":33.75000000000021,"velocity":0.5275590551181102,"duration":0.13958333333333428},{"name":"C#3","midi":49,"time":33.752083333333545,"velocity":0.6062992125984252,"duration":0.5604166666666686},{"name":"D#5","midi":75,"time":33.88958333333355,"velocity":0.6062992125984252,"duration":0.13750000000000284},{"name":"C#5","midi":73,"time":34.02916666666688,"velocity":0.6062992125984252,"duration":0.13958333333333428},{"name":"F3","midi":53,"time":34.02916666666688,"velocity":0.6062992125984252,"duration":0.28333333333333144},{"name":"B5","midi":83,"time":34.17083333333355,"velocity":0.5275590551181102,"duration":0.13958333333333428},{"name":"A5","midi":81,"time":34.314583333333545,"velocity":0.5275590551181102,"duration":0.1354166666666643},{"name":"F#3","midi":54,"time":34.314583333333545,"velocity":0.6062992125984252,"duration":0.5562499999999986},{"name":"G#5","midi":80,"time":34.45000000000021,"velocity":0.5275590551181102,"duration":0.13958333333333428},{"name":"F#5","midi":78,"time":34.58958333333354,"velocity":0.5275590551181102,"duration":0.13958333333333428},{"name":"A3","midi":57,"time":34.591666666666875,"velocity":0.6062992125984252,"duration":0.55833333333333},{"name":"F5","midi":77,"time":34.72916666666688,"velocity":0.5275590551181102,"duration":0.13958333333333428},{"name":"F#5","midi":78,"time":34.87083333333354,"velocity":0.5275590551181102,"duration":0.13749999999999574},{"name":"D3","midi":50,"time":34.872916666666875,"velocity":0.6062992125984252,"duration":0.27708333333333},{"name":"F5","midi":77,"time":35.01041666666687,"velocity":0.5275590551181102,"duration":0.13958333333333428},{"name":"F#5","midi":78,"time":35.152083333333536,"velocity":0.5275590551181102,"duration":0.13749999999999574},{"name":"G#3","midi":56,"time":35.152083333333536,"velocity":0.6062992125984252,"duration":0.13749999999999574},{"name":"B2","midi":47,"time":35.15416666666687,"velocity":0.6062992125984252,"duration":0.27708333333333},{"name":"G#5","midi":80,"time":35.29166666666686,"velocity":0.5275590551181102,"duration":0.13750000000000284},{"name":"F#3","midi":54,"time":35.29166666666686,"velocity":0.6062992125984252,"duration":0.13750000000000284},{"name":"G#5","midi":80,"time":35.4312500000002,"velocity":0.5275590551181102,"duration":0.41874999999999574},{"name":"F3","midi":53,"time":35.43333333333353,"velocity":0.6062992125984252,"duration":0.27708333333333},{"name":"C#3","midi":49,"time":35.43333333333353,"velocity":0.6062992125984252,"duration":0.5604166666666615},{"name":"B3","midi":59,"time":35.71250000000019,"velocity":0.6062992125984252,"duration":0.27916666666666856},{"name":"F#5","midi":78,"time":35.852083333333525,"velocity":0.5275590551181102,"duration":0.13958333333333428},{"name":"F#5","midi":78,"time":35.99375000000019,"velocity":0.5275590551181102,"duration":0.55416666666666},{"name":"F#3","midi":54,"time":35.99583333333352,"velocity":0.6062992125984252,"duration":0.5499999999999972},{"name":"A3","midi":57,"time":35.99583333333352,"velocity":0.6062992125984252,"duration":0.13333333333333286},{"name":"D5","midi":74,"time":36.129166666666855,"velocity":0.6062992125984252,"duration":0.13958333333333428},{"name":"C#5","midi":73,"time":36.27083333333352,"velocity":0.6062992125984252,"duration":0.1354166666666643},{"name":"B4","midi":71,"time":36.408333333333516,"velocity":0.6062992125984252,"duration":0.13750000000000284},{"name":"A4","midi":69,"time":36.54791666666685,"velocity":0.6062992125984252,"duration":0.1354166666666643},{"name":"G#4","midi":68,"time":36.683333333333515,"velocity":0.6062992125984252,"duration":0.13958333333333428},{"name":"A5","midi":81,"time":36.82291666666685,"velocity":0.5275590551181102,"duration":0.27291666666666714},{"name":"F#4","midi":66,"time":36.82291666666685,"velocity":0.6062992125984252,"duration":0.13750000000000284},{"name":"E4","midi":64,"time":36.96041666666685,"velocity":0.6062992125984252,"duration":0.1354166666666643},{"name":"A5","midi":81,"time":37.09791666666685,"velocity":0.5275590551181102,"duration":0.2749999999999986},{"name":"D#4","midi":63,"time":37.10000000000018,"velocity":0.6062992125984252,"duration":0.5499999999999972},{"name":"C#4","midi":61,"time":37.23333333333351,"velocity":0.6062992125984252,"duration":0.13958333333333428},{"name":"G#5","midi":80,"time":37.37500000000018,"velocity":0.5275590551181102,"duration":0.2749999999999986},{"name":"B3","midi":59,"time":37.37500000000018,"velocity":0.6062992125984252,"duration":0.1354166666666643},{"name":"A3","midi":57,"time":37.51041666666684,"velocity":0.6062992125984252,"duration":0.13750000000000284},{"name":"G#3","midi":56,"time":37.650000000000176,"velocity":0.6062992125984252,"duration":0.1354166666666643},{"name":"F#3","midi":54,"time":37.78750000000017,"velocity":0.6062992125984252,"duration":0.1354166666666643},{"name":"E5","midi":76,"time":37.922916666666836,"velocity":0.5275590551181102,"duration":0.4104166666666629},{"name":"G#5","midi":80,"time":37.92500000000017,"velocity":0.5275590551181102,"duration":0.2749999999999986},{"name":"E3","midi":52,"time":37.92500000000017,"velocity":0.6062992125984252,"duration":0.1354166666666643},{"name":"A#3","midi":58,"time":38.06041666666683,"velocity":0.6062992125984252,"duration":0.13750000000000284},{"name":"G#5","midi":80,"time":38.200000000000166,"velocity":0.5275590551181102,"duration":0.27291666666666714},{"name":"B2","midi":47,"time":38.200000000000166,"velocity":0.6062992125984252,"duration":0.5479166666666657},{"name":"E5","midi":76,"time":38.33541666666683,"velocity":0.5275590551181102,"duration":0.13750000000000284},{"name":"F#5","midi":78,"time":38.475000000000165,"velocity":0.5275590551181102,"duration":0.27291666666666714},{"name":"D#5","midi":75,"time":38.475000000000165,"velocity":0.6062992125984252,"duration":0.13333333333333286},{"name":"C#5","midi":73,"time":38.6083333333335,"velocity":0.6062992125984252,"duration":0.13750000000000284},{"name":"B4","midi":71,"time":38.75000000000016,"velocity":0.6062992125984252,"duration":0.13125000000000142},{"name":"A4","midi":69,"time":38.883333333333496,"velocity":0.6062992125984252,"duration":0.1354166666666643},{"name":"B5","midi":83,"time":39.01875000000016,"velocity":0.5275590551181102,"duration":0.27291666666666003},{"name":"G#4","midi":68,"time":39.02083333333349,"velocity":0.6062992125984252,"duration":0.13333333333333286},{"name":"F#4","midi":66,"time":39.154166666666825,"velocity":0.6062992125984252,"duration":0.1354166666666643},{"name":"B5","midi":83,"time":39.29166666666682,"velocity":0.5275590551181102,"duration":0.2645833333333343},{"name":"E4","midi":64,"time":39.29375000000015,"velocity":0.6062992125984252,"duration":0.5333333333333314},{"name":"D#4","midi":63,"time":39.42500000000015,"velocity":0.6062992125984252,"duration":0.13125000000000142},{"name":"A5","midi":81,"time":39.558333333333486,"velocity":0.5275590551181102,"duration":0.26874999999999716},{"name":"C#4","midi":61,"time":39.558333333333486,"velocity":0.6062992125984252,"duration":0.13333333333333286},{"name":"B3","midi":59,"time":39.69375000000015,"velocity":0.6062992125984252,"duration":0.13125000000000142},{"name":"A3","midi":57,"time":39.829166666666815,"velocity":0.6062992125984252,"duration":0.13333333333333286},{"name":"G#3","midi":56,"time":39.96250000000015,"velocity":0.6062992125984252,"duration":0.13750000000000284},{"name":"F#5","midi":78,"time":40.10000000000015,"velocity":0.5275590551181102,"duration":0.40208333333333},{"name":"A5","midi":81,"time":40.10208333333348,"velocity":0.5275590551181102,"duration":0.2666666666666657},{"name":"F#3","midi":54,"time":40.10208333333348,"velocity":0.6062992125984252,"duration":0.13125000000000142},{"name":"D#4","midi":63,"time":40.235416666666815,"velocity":0.6062992125984252,"duration":0.13333333333333286},{"name":"A5","midi":81,"time":40.37083333333348,"velocity":0.5275590551181102,"duration":0.2666666666666657},{"name":"E3","midi":52,"time":40.37083333333348,"velocity":0.6062992125984252,"duration":0.5291666666666686},{"name":"F#5","midi":78,"time":40.50208333333348,"velocity":0.5275590551181102,"duration":0.13333333333333286},{"name":"E5","midi":76,"time":40.637500000000145,"velocity":0.5275590551181102,"duration":0.13125000000000142},{"name":"G#5","midi":80,"time":40.639583333333476,"velocity":0.5275590551181102,"duration":0.2604166666666714},{"name":"D5","midi":74,"time":40.768750000000146,"velocity":0.6062992125984252,"duration":0.12916666666666998},{"name":"C#5","midi":73,"time":40.90000000000015,"velocity":0.6062992125984252,"duration":0.12916666666666998},{"name":"B4","midi":71,"time":41.03125000000015,"velocity":0.6062992125984252,"duration":0.13125000000000142},{"name":"E5","midi":76,"time":41.16250000000015,"velocity":0.5275590551181102,"duration":0.2708333333333286},{"name":"A4","midi":69,"time":41.16458333333348,"velocity":0.6062992125984252,"duration":0.13333333333333286},{"name":"G#4","midi":68,"time":41.297916666666815,"velocity":0.6062992125984252,"duration":0.1354166666666643},{"name":"E5","midi":76,"time":41.43333333333348,"velocity":0.5275590551181102,"duration":0.27291666666666003},{"name":"F#4","midi":66,"time":41.43541666666681,"velocity":0.6062992125984252,"duration":0.5437499999999957},{"name":"E4","midi":64,"time":41.56875000000014,"velocity":0.6062992125984252,"duration":0.1354166666666643},{"name":"A4","midi":69,"time":41.70625000000014,"velocity":0.6062992125984252,"duration":0.27291666666666714},{"name":"D4","midi":62,"time":41.70625000000014,"velocity":0.6062992125984252,"duration":0.13750000000000284},{"name":"C#4","midi":61,"time":41.84375000000014,"velocity":0.6062992125984252,"duration":0.1354166666666643},{"name":"D5","midi":74,"time":41.98125000000014,"velocity":0.6062992125984252,"duration":0.27291666666666003},{"name":"B3","midi":59,"time":41.98125000000014,"velocity":0.6062992125984252,"duration":0.13333333333333286},{"name":"A3","midi":57,"time":42.1166666666668,"velocity":0.6062992125984252,"duration":0.1354166666666643},{"name":"B4","midi":71,"time":42.2541666666668,"velocity":0.6062992125984252,"duration":0.2708333333333357},{"name":"D5","midi":74,"time":42.2541666666668,"velocity":0.6062992125984252,"duration":0.27291666666666714},{"name":"G#3","midi":56,"time":42.25625000000013,"velocity":0.6062992125984252,"duration":0.13125000000000142},{"name":"B3","midi":59,"time":42.38750000000013,"velocity":0.6062992125984252,"duration":0.13750000000000284},{"name":"B4","midi":71,"time":42.527083333333465,"velocity":0.6062992125984252,"duration":0.27291666666666714},{"name":"D5","midi":74,"time":42.527083333333465,"velocity":0.6062992125984252,"duration":0.27291666666666714},{"name":"A2","midi":45,"time":42.5291666666668,"velocity":0.6062992125984252,"duration":0.13125000000000142},{"name":"B2","midi":47,"time":42.66250000000013,"velocity":0.6062992125984252,"duration":0.13750000000000284},{"name":"C#5","midi":73,"time":42.802083333333464,"velocity":0.6062992125984252,"duration":0.2749999999999986},{"name":"C#3","midi":49,"time":42.802083333333464,"velocity":0.6062992125984252,"duration":0.13333333333333286},{"name":"E4","midi":64,"time":42.804166666666795,"velocity":0.6062992125984252,"duration":0.2708333333333357},{"name":"A2","midi":45,"time":42.9354166666668,"velocity":0.6062992125984252,"duration":0.13958333333333428},{"name":"A4","midi":69,"time":43.07708333333346,"velocity":0.6062992125984252,"duration":0.5520833333333357},{"name":"F#3","midi":54,"time":43.079166666666794,"velocity":0.6062992125984252,"duration":0.2708333333333357},{"name":"E5","midi":76,"time":43.210416666666795,"velocity":0.5275590551181102,"duration":0.13958333333333428},{"name":"D5","midi":74,"time":43.35000000000013,"velocity":0.6062992125984252,"duration":0.13958333333333428},{"name":"F#3","midi":54,"time":43.35208333333346,"velocity":0.6062992125984252,"duration":0.2750000000000057},{"name":"C#5","midi":73,"time":43.489583333333464,"velocity":0.6062992125984252,"duration":0.13750000000000284},{"name":"G#4","midi":68,"time":43.6291666666668,"velocity":0.6062992125984252,"duration":0.54999999999999},{"name":"B4","midi":71,"time":43.63125000000013,"velocity":0.6062992125984252,"duration":0.1354166666666643},{"name":"F#3","midi":54,"time":43.63125000000013,"velocity":0.6062992125984252,"duration":0.13333333333333286},{"name":"C#5","midi":73,"time":43.766666666666794,"velocity":0.6062992125984252,"duration":0.13749999999999574},{"name":"D#3","midi":51,"time":43.768750000000125,"velocity":0.6062992125984252,"duration":0.13333333333333286},{"name":"D5","midi":74,"time":43.90416666666679,"velocity":0.6062992125984252,"duration":0.1354166666666643},{"name":"E3","midi":52,"time":43.90625000000012,"velocity":0.6062992125984252,"duration":0.2708333333333357},{"name":"B4","midi":71,"time":44.039583333333454,"velocity":0.6062992125984252,"duration":0.13750000000000284},{"name":"G4","midi":67,"time":44.17916666666679,"velocity":0.6062992125984252,"duration":0.5458333333333272},{"name":"E4","midi":64,"time":44.18125000000012,"velocity":0.6062992125984252,"duration":0.2708333333333357},{"name":"E3","midi":52,"time":44.31250000000012,"velocity":0.6062992125984252,"duration":0.13750000000000284},{"name":"E5","midi":76,"time":44.452083333333455,"velocity":0.5275590551181102,"duration":0.5458333333333201},{"name":"F#3","midi":54,"time":44.45416666666679,"velocity":0.6062992125984252,"duration":0.1354166666666643},{"name":"G3","midi":55,"time":44.58958333333345,"velocity":0.6062992125984252,"duration":0.1354166666666643},{"name":"F#4","midi":66,"time":44.72708333333345,"velocity":0.6062992125984252,"duration":0.5416666666666572},{"name":"A3","midi":57,"time":44.72708333333345,"velocity":0.6062992125984252,"duration":0.13333333333333286},{"name":"G3","midi":55,"time":44.86250000000011,"velocity":0.6062992125984252,"duration":0.1354166666666643},{"name":"A4","midi":69,"time":45.00000000000011,"velocity":0.6062992125984252,"duration":0.26874999999999716},{"name":"F#3","midi":54,"time":45.00000000000011,"velocity":0.6062992125984252,"duration":0.13333333333333286},{"name":"A3","midi":57,"time":45.13541666666677,"velocity":0.6062992125984252,"duration":0.13125000000000142},{"name":"B4","midi":71,"time":45.270833333333435,"velocity":0.6062992125984252,"duration":0.5374999999999943},{"name":"D3","midi":50,"time":45.270833333333435,"velocity":0.6062992125984252,"duration":0.13125000000000142},{"name":"C#3","midi":49,"time":45.40416666666677,"velocity":0.6062992125984252,"duration":0.13333333333333286},{"name":"D5","midi":74,"time":45.5375000000001,"velocity":0.6062992125984252,"duration":0.5395833333333258},{"name":"B2","midi":47,"time":45.53958333333343,"velocity":0.6062992125984252,"duration":0.13125000000000142},{"name":"A3","midi":57,"time":45.672916666666765,"velocity":0.6062992125984252,"duration":0.13333333333333286},{"name":"G#3","midi":56,"time":45.80833333333343,"velocity":0.6062992125984252,"duration":0.13333333333333286},{"name":"E4","midi":64,"time":45.81041666666676,"velocity":0.6062992125984252,"duration":0.5395833333333258},{"name":"F#3","midi":54,"time":45.94166666666676,"velocity":0.6062992125984252,"duration":0.1354166666666643},{"name":"G#4","midi":68,"time":46.07916666666676,"velocity":0.6062992125984252,"duration":0.2708333333333286},{"name":"E3","midi":52,"time":46.07916666666676,"velocity":0.6062992125984252,"duration":0.13125000000000142},{"name":"G#3","midi":56,"time":46.21250000000009,"velocity":0.6062992125984252,"duration":0.1354166666666643},{"name":"A4","midi":69,"time":46.35000000000009,"velocity":0.6062992125984252,"duration":1.0791666666666586},{"name":"C#3","midi":49,"time":46.35000000000009,"velocity":0.6062992125984252,"duration":0.13125000000000142},{"name":"B2","midi":47,"time":46.48125000000009,"velocity":0.6062992125984252,"duration":0.13750000000000284},{"name":"C#5","midi":73,"time":46.61875000000009,"velocity":0.6062992125984252,"duration":0.26874999999999716},{"name":"A2","midi":45,"time":46.61875000000009,"velocity":0.6062992125984252,"duration":0.1354166666666643},{"name":"G3","midi":55,"time":46.754166666666755,"velocity":0.6062992125984252,"duration":0.13333333333333286},{"name":"D5","midi":74,"time":46.88958333333342,"velocity":0.6062992125984252,"duration":0.1354166666666643},{"name":"F#3","midi":54,"time":46.89166666666675,"velocity":0.6062992125984252,"duration":0.13333333333333286},{"name":"C#5","midi":73,"time":47.025000000000084,"velocity":0.6062992125984252,"duration":0.13333333333333286},{"name":"E3","midi":52,"time":47.025000000000084,"velocity":0.6062992125984252,"duration":0.13333333333333286},{"name":"B4","midi":71,"time":47.15833333333342,"velocity":0.6062992125984252,"duration":0.13749999999999574},{"name":"D3","midi":50,"time":47.16041666666675,"velocity":0.6062992125984252,"duration":0.13333333333333286},{"name":"C#5","midi":73,"time":47.29583333333341,"velocity":0.6062992125984252,"duration":0.13333333333333286},{"name":"F#3","midi":54,"time":47.297916666666744,"velocity":0.6062992125984252,"duration":0.12916666666666998},{"name":"D5","midi":74,"time":47.43125000000008,"velocity":0.6062992125984252,"duration":0.13333333333333286},{"name":"G#4","midi":68,"time":47.43125000000008,"velocity":0.6062992125984252,"duration":0.5416666666666572},{"name":"B2","midi":47,"time":47.43333333333341,"velocity":0.6062992125984252,"duration":0.13125000000000142},{"name":"C#5","midi":73,"time":47.56666666666674,"velocity":0.6062992125984252,"duration":0.13333333333333286},{"name":"F#3","midi":54,"time":47.56666666666674,"velocity":0.6062992125984252,"duration":0.13125000000000142},{"name":"D5","midi":74,"time":47.700000000000074,"velocity":0.6062992125984252,"duration":0.1354166666666643},{"name":"E3","midi":52,"time":47.700000000000074,"velocity":0.6062992125984252,"duration":0.13333333333333286},{"name":"E5","midi":76,"time":47.83541666666674,"velocity":0.5275590551181102,"duration":0.1354166666666643},{"name":"D3","midi":50,"time":47.83750000000007,"velocity":0.6062992125984252,"duration":0.13333333333333286},{"name":"A4","midi":69,"time":47.972916666666734,"velocity":0.6062992125984252,"duration":0.5416666666666572},{"name":"C#3","midi":49,"time":47.975000000000065,"velocity":0.6062992125984252,"duration":0.13333333333333286},{"name":"B4","midi":71,"time":48.1083333333334,"velocity":0.6062992125984252,"duration":0.1354166666666643},{"name":"B2","midi":47,"time":48.11041666666673,"velocity":0.6062992125984252,"duration":0.13125000000000142},{"name":"C#5","midi":73,"time":48.24375000000006,"velocity":0.6062992125984252,"duration":0.1354166666666643},{"name":"A2","midi":45,"time":48.245833333333394,"velocity":0.6062992125984252,"duration":0.13125000000000142},{"name":"A4","midi":69,"time":48.37916666666673,"velocity":0.6062992125984252,"duration":0.13749999999999574},{"name":"C#3","midi":49,"time":48.38125000000006,"velocity":0.6062992125984252,"duration":0.13333333333333286},{"name":"F#5","midi":78,"time":48.51666666666672,"velocity":0.5275590551181102,"duration":0.2749999999999986},{"name":"A3","midi":57,"time":48.518750000000054,"velocity":0.6062992125984252,"duration":0.5499999999999972},{"name":"D3","midi":50,"time":48.518750000000054,"velocity":0.6062992125984252,"duration":0.13333333333333286},{"name":"E3","midi":52,"time":48.65208333333339,"velocity":0.6062992125984252,"duration":0.13750000000000284},{"name":"F#5","midi":78,"time":48.79166666666672,"velocity":0.5275590551181102,"duration":0.2749999999999986},{"name":"D3","midi":50,"time":48.79375000000005,"velocity":0.6062992125984252,"duration":0.13333333333333286},{"name":"C#3","midi":49,"time":48.92916666666672,"velocity":0.6062992125984252,"duration":0.13750000000000284},{"name":"F#5","midi":78,"time":49.06875000000005,"velocity":0.5275590551181102,"duration":0.13333333333333286},{"name":"G#3","midi":56,"time":49.07083333333338,"velocity":0.6062992125984252,"duration":0.5437499999999957},{"name":"B2","midi":47,"time":49.07083333333338,"velocity":0.6062992125984252,"duration":0.13125000000000142},{"name":"D#5","midi":75,"time":49.204166666666715,"velocity":0.6062992125984252,"duration":0.13749999999999574},{"name":"A2","midi":45,"time":49.204166666666715,"velocity":0.6062992125984252,"duration":0.1354166666666643},{"name":"E5","midi":76,"time":49.34166666666671,"velocity":0.5275590551181102,"duration":0.2708333333333357},{"name":"G#2","midi":44,"time":49.34375000000004,"velocity":0.6062992125984252,"duration":0.13125000000000142},{"name":"B2","midi":47,"time":49.475000000000044,"velocity":0.6062992125984252,"duration":0.13750000000000284},{"name":"G3","midi":55,"time":49.61458333333338,"velocity":0.6062992125984252,"duration":0.5437499999999957},{"name":"C#3","midi":49,"time":49.61666666666671,"velocity":0.6062992125984252,"duration":0.26874999999999716},{"name":"E5","midi":76,"time":49.74791666666671,"velocity":0.5275590551181102,"duration":0.1354166666666643},{"name":"F#5","midi":78,"time":49.88541666666671,"velocity":0.5275590551181102,"duration":0.1354166666666643},{"name":"E3","midi":52,"time":49.88750000000004,"velocity":0.6062992125984252,"duration":0.5499999999999972},{"name":"G5","midi":79,"time":50.02083333333337,"velocity":0.5275590551181102,"duration":0.13750000000000284},{"name":"A5","midi":81,"time":50.160416666666706,"velocity":0.5275590551181102,"duration":0.1354166666666643},{"name":"F#3","midi":54,"time":50.160416666666706,"velocity":0.6062992125984252,"duration":0.5562499999999915},{"name":"G5","midi":79,"time":50.2979166666667,"velocity":0.5275590551181102,"duration":0.13750000000000284},{"name":"F#5","midi":78,"time":50.437500000000036,"velocity":0.5275590551181102,"duration":0.13749999999999574},{"name":"A2","midi":45,"time":50.43958333333337,"velocity":0.6062992125984252,"duration":0.2749999999999986},{"name":"A5","midi":81,"time":50.57500000000003,"velocity":0.5275590551181102,"duration":0.13958333333333428},{"name":"D5","midi":74,"time":50.7166666666667,"velocity":0.6062992125984252,"duration":0.1354166666666643},{"name":"B3","midi":59,"time":50.71875000000003,"velocity":0.6062992125984252,"duration":0.5458333333333272},{"name":"C#5","midi":73,"time":50.85208333333336,"velocity":0.6062992125984252,"duration":0.13750000000000284},{"name":"B4","midi":71,"time":50.991666666666696,"velocity":0.6062992125984252,"duration":0.1354166666666643},{"name":"D3","midi":50,"time":50.991666666666696,"velocity":0.6062992125984252,"duration":0.54999999999999},{"name":"A5","midi":81,"time":51.12916666666669,"velocity":0.5275590551181102,"duration":0.1354166666666643},{"name":"G#5","midi":80,"time":51.26666666666669,"velocity":0.5275590551181102,"duration":0.1354166666666643},{"name":"E3","midi":52,"time":51.26666666666669,"velocity":0.6062992125984252,"duration":0.54999999999999},{"name":"F#5","midi":78,"time":51.40208333333335,"velocity":0.5275590551181102,"duration":0.13958333333333428},{"name":"E5","midi":76,"time":51.541666666666686,"velocity":0.5275590551181102,"duration":0.1354166666666643},{"name":"G#2","midi":44,"time":51.54375000000002,"velocity":0.6062992125984252,"duration":0.27291666666666003},{"name":"G#5","midi":80,"time":51.67916666666668,"velocity":0.5275590551181102,"duration":0.1354166666666643},{"name":"C#5","midi":73,"time":51.81875000000001,"velocity":0.6062992125984252,"duration":0.13333333333333286},{"name":"A3","midi":57,"time":51.81875000000001,"velocity":0.6062992125984252,"duration":0.5458333333333272},{"name":"B4","midi":71,"time":51.95416666666667,"velocity":0.6062992125984252,"duration":0.1354166666666643},{"name":"A4","midi":69,"time":52.08958333333334,"velocity":0.6062992125984252,"duration":0.14791666666666714},{"name":"C#3","midi":49,"time":52.08958333333334,"velocity":0.6062992125984252,"duration":0.5437499999999957},{"name":"G5","midi":79,"time":52.225,"velocity":0.5275590551181102,"duration":0.13750000000000284},{"name":"F#5","midi":78,"time":52.364583333333336,"velocity":0.5275590551181102,"duration":0.14791666666666714},{"name":"D3","midi":50,"time":52.364583333333336,"velocity":0.6062992125984252,"duration":0.6458333333333144},{"name":"E5","midi":76,"time":52.5,"velocity":0.5275590551181102,"duration":0.13333333333333286},{"name":"D5","midi":74,"time":52.635416666666664,"velocity":0.6062992125984252,"duration":0.1458333333333286},{"name":"B2","midi":47,"time":52.635416666666664,"velocity":0.6062992125984252,"duration":0.13125000000000142},{"name":"F#5","midi":78,"time":52.76875,"velocity":0.5275590551181102,"duration":0.1458333333333215},{"name":"A2","midi":45,"time":52.77083333333333,"velocity":0.6062992125984252,"duration":0.12916666666666288},{"name":"B4","midi":71,"time":52.90208333333332,"velocity":0.6062992125984252,"duration":0.13333333333332575},{"name":"G#2","midi":44,"time":52.904166666666654,"velocity":0.6062992125984252,"duration":0.5374999999999872},{"name":"F#5","midi":78,"time":53.03541666666665,"velocity":0.5275590551181102,"duration":0.13333333333333286},{"name":"D3","midi":50,"time":53.03749999999998,"velocity":0.6062992125984252,"duration":0.14166666666666572},{"name":"E5","midi":76,"time":53.16874999999998,"velocity":0.5275590551181102,"duration":0.1354166666666643},{"name":"C#3","midi":49,"time":53.17083333333331,"velocity":0.6062992125984252,"duration":0.14374999999999716},{"name":"D5","midi":74,"time":53.304166666666646,"velocity":0.6062992125984252,"duration":0.1354166666666643},{"name":"B2","midi":47,"time":53.30624999999998,"velocity":0.6062992125984252,"duration":0.13333333333333286},{"name":"C#5","midi":73,"time":53.44166666666664,"velocity":0.6062992125984252,"duration":0.13125000000000142},{"name":"A2","midi":45,"time":53.44374999999997,"velocity":0.6062992125984252,"duration":0.2645833333333343},{"name":"B4","midi":71,"time":53.574999999999974,"velocity":0.6062992125984252,"duration":0.13333333333333286},{"name":"B2","midi":47,"time":53.574999999999974,"velocity":0.6062992125984252,"duration":0.13125000000000142},{"name":"A4","midi":69,"time":53.71041666666664,"velocity":0.6062992125984252,"duration":0.14374999999999716},{"name":"C#3","midi":49,"time":53.71041666666664,"velocity":0.6062992125984252,"duration":0.14374999999999716},{"name":"C#5","midi":73,"time":53.84374999999997,"velocity":0.6062992125984252,"duration":0.14374999999999716},{"name":"A2","midi":45,"time":53.84374999999997,"velocity":0.6062992125984252,"duration":0.12916666666666288},{"name":"D3","midi":50,"time":53.974999999999966,"velocity":0.6062992125984252,"duration":0.13125000000000142},{"name":"F#4","midi":66,"time":53.974999999999966,"velocity":0.6062992125984252,"duration":0.13333333333333286},{"name":"E4","midi":64,"time":54.1083333333333,"velocity":0.6062992125984252,"duration":0.13333333333333286},{"name":"E3","midi":52,"time":54.11041666666663,"velocity":0.6062992125984252,"duration":0.13125000000000142},{"name":"F#3","midi":54,"time":54.24374999999996,"velocity":0.6062992125984252,"duration":0.14374999999999716},{"name":"D4","midi":62,"time":54.24374999999996,"velocity":0.6062992125984252,"duration":0.14374999999999716},{"name":"F#4","midi":66,"time":54.377083333333296,"velocity":0.6062992125984252,"duration":0.14791666666666003},{"name":"D3","midi":50,"time":54.377083333333296,"velocity":0.6062992125984252,"duration":0.1458333333333286},{"name":"B3","midi":59,"time":54.51249999999996,"velocity":0.6062992125984252,"duration":0.13749999999999574},{"name":"G#3","midi":56,"time":54.51458333333329,"velocity":0.6062992125984252,"duration":0.1354166666666643},{"name":"C#4","midi":61,"time":54.649999999999956,"velocity":0.6062992125984252,"duration":0.13125000000000142},{"name":"A3","midi":57,"time":54.65208333333329,"velocity":0.6062992125984252,"duration":0.12916666666666998},{"name":"D4","midi":62,"time":54.78333333333329,"velocity":0.6062992125984252,"duration":0.13125000000000142},{"name":"G#3","midi":56,"time":54.78333333333329,"velocity":0.6062992125984252,"duration":0.13125000000000142},{"name":"E4","midi":64,"time":54.91458333333329,"velocity":0.6062992125984252,"duration":0.1354166666666643},{"name":"F#3","midi":54,"time":54.91666666666662,"velocity":0.6062992125984252,"duration":0.13333333333333286},{"name":"F#4","midi":66,"time":55.049999999999955,"velocity":0.6062992125984252,"duration":0.13333333333333286},{"name":"E3","midi":52,"time":55.052083333333286,"velocity":0.6062992125984252,"duration":0.13125000000000142},{"name":"G#4","midi":68,"time":55.18541666666662,"velocity":0.6062992125984252,"duration":0.13333333333333286},{"name":"D4","midi":62,"time":55.18541666666662,"velocity":0.6062992125984252,"duration":0.13125000000000142},{"name":"A4","midi":69,"time":55.31874999999995,"velocity":0.6062992125984252,"duration":0.12916666666666288},{"name":"C#4","midi":61,"time":55.32083333333328,"velocity":0.6062992125984252,"duration":0.12708333333333144},{"name":"B4","midi":71,"time":55.449999999999946,"velocity":0.6062992125984252,"duration":0.12916666666666998},{"name":"B3","midi":59,"time":55.449999999999946,"velocity":0.6062992125984252,"duration":0.12916666666666998},{"name":"C#5","midi":73,"time":55.58124999999995,"velocity":0.6062992125984252,"duration":0.12916666666666288},{"name":"A3","midi":57,"time":55.58124999999995,"velocity":0.6062992125984252,"duration":0.12708333333333144},{"name":"D5","midi":74,"time":55.71041666666661,"velocity":0.6062992125984252,"duration":0.12916666666666288},{"name":"F#3","midi":54,"time":55.71249999999994,"velocity":0.6062992125984252,"duration":0.12708333333333144},{"name":"E5","midi":76,"time":55.841666666666605,"velocity":0.5275590551181102,"duration":0.12708333333333144},{"name":"E3","midi":52,"time":55.841666666666605,"velocity":0.6062992125984252,"duration":0.125},{"name":"F#5","midi":78,"time":55.968749999999936,"velocity":0.5275590551181102,"duration":0.12708333333333144},{"name":"D3","midi":50,"time":55.97083333333327,"velocity":0.6062992125984252,"duration":0.125},{"name":"G#5","midi":80,"time":56.0979166666666,"velocity":0.5275590551181102,"duration":0.12708333333333144},{"name":"C#3","midi":49,"time":56.0979166666666,"velocity":0.6062992125984252,"duration":0.12708333333333144},{"name":"A5","midi":81,"time":56.22499999999993,"velocity":0.5275590551181102,"duration":0.12708333333333144},{"name":"B2","midi":47,"time":56.22499999999993,"velocity":0.6062992125984252,"duration":0.125},{"name":"B5","midi":83,"time":56.35416666666659,"velocity":0.5275590551181102,"duration":0.13125000000000142},{"name":"A2","midi":45,"time":56.35416666666659,"velocity":0.6062992125984252,"duration":0.13125000000000142},{"name":"G#5","midi":80,"time":56.487499999999926,"velocity":0.5275590551181102,"duration":0.12916666666666998},{"name":"G#2","midi":44,"time":56.487499999999926,"velocity":0.6062992125984252,"duration":0.12916666666666998},{"name":"A5","midi":81,"time":56.61874999999993,"velocity":0.5275590551181102,"duration":0.9687499999999929},{"name":"F#2","midi":42,"time":56.61874999999993,"velocity":0.6062992125984252,"duration":0.13125000000000142},{"name":"G#5","midi":80,"time":56.75208333333326,"velocity":0.5275590551181102,"duration":0.13749999999999574},{"name":"E2","midi":40,"time":56.75416666666659,"velocity":0.6062992125984252,"duration":0.13333333333333286},{"name":"F#5","midi":78,"time":56.889583333333256,"velocity":0.5275590551181102,"duration":0.1354166666666643},{"name":"D2","midi":38,"time":56.889583333333256,"velocity":0.6062992125984252,"duration":0.2749999999999986},{"name":"E5","midi":76,"time":57.02708333333325,"velocity":0.5275590551181102,"duration":0.13750000000000284},{"name":"D5","midi":74,"time":57.166666666666586,"velocity":0.6062992125984252,"duration":0.13750000000000284},{"name":"E2","midi":40,"time":57.166666666666586,"velocity":0.6062992125984252,"duration":0.27916666666666856},{"name":"C#5","midi":73,"time":57.30416666666659,"velocity":0.6062992125984252,"duration":0.13958333333333428},{"name":"B4","midi":71,"time":57.445833333333255,"velocity":0.6062992125984252,"duration":0.28333333333333144},{"name":"E3","midi":52,"time":57.447916666666586,"velocity":0.6062992125984252,"duration":0.28125},{"name":"G#5","midi":80,"time":57.58958333333325,"velocity":0.5275590551181102,"duration":0.13750000000000284},{"name":"A5","midi":81,"time":57.73124999999992,"velocity":0.4330708661417323,"duration":1.4624999999999986},{"name":"A4","midi":69,"time":57.73124999999992,"velocity":0.5118110236220472,"duration":1.4624999999999986},{"name":"A2","midi":45,"time":57.73333333333325,"velocity":0.6062992125984252,"duration":1.4583333333333357},{"name":"A4","midi":69,"time":60.791666666666586,"velocity":0.5669291338582677,"duration":0.2604166666666643},{"name":"G#4","midi":68,"time":61.56041666666658,"velocity":0.5669291338582677,"duration":0.19166666666666998},{"name":"C#5","midi":73,"time":61.754166666666585,"velocity":0.5669291338582677,"duration":0.19375000000000142},{"name":"A4","midi":69,"time":61.947916666666586,"velocity":0.5669291338582677,"duration":0.19375000000000142},{"name":"D5","midi":74,"time":62.14166666666659,"velocity":0.5669291338582677,"duration":0.19375000000000142},{"name":"B4","midi":71,"time":62.33541666666659,"velocity":0.5669291338582677,"duration":0.19375000000000142},{"name":"E5","midi":76,"time":62.52916666666659,"velocity":0.4881889763779528,"duration":0.19375000000000142},{"name":"E4","midi":64,"time":62.53124999999992,"velocity":0.6062992125984252,"duration":0.24374999999999858},{"name":"C#5","midi":73,"time":62.72499999999992,"velocity":0.5669291338582677,"duration":0.19166666666666288},{"name":"F#5","midi":78,"time":62.91874999999992,"velocity":0.47244094488188976,"duration":0.19166666666666998},{"name":"E5","midi":76,"time":63.11249999999992,"velocity":0.47244094488188976,"duration":0.19166666666666998},{"name":"A5","midi":81,"time":63.30624999999992,"velocity":0.47244094488188976,"duration":0.19166666666666998},{"name":"C#4","midi":61,"time":63.30624999999992,"velocity":0.6062992125984252,"duration":0.19166666666666998},{"name":"D5","midi":74,"time":63.49999999999992,"velocity":0.5511811023622047,"duration":0.38333333333333997},{"name":"F#4","midi":66,"time":63.49999999999992,"velocity":0.6062992125984252,"duration":0.19166666666666998},{"name":"E4","midi":64,"time":63.69166666666659,"velocity":0.6062992125984252,"duration":0.19166666666666998},{"name":"A4","midi":69,"time":63.88541666666659,"velocity":0.5511811023622047,"duration":0.18958333333333854},{"name":"C#5","midi":73,"time":63.88541666666659,"velocity":0.5511811023622047,"duration":0.18958333333333854},{"name":"D#5","midi":75,"time":64.07708333333326,"velocity":0.5511811023622047,"duration":0.18958333333333144},{"name":"F#4","midi":66,"time":64.07708333333326,"velocity":0.6062992125984252,"duration":0.1875},{"name":"G#5","midi":80,"time":64.2666666666666,"velocity":0.47244094488188976,"duration":0.1875},{"name":"B4","midi":71,"time":64.26874999999993,"velocity":0.5511811023622047,"duration":0.18333333333333712},{"name":"E5","midi":76,"time":64.4541666666666,"velocity":0.47244094488188976,"duration":0.1875},{"name":"G#4","midi":68,"time":64.45624999999993,"velocity":0.5511811023622047,"duration":0.18333333333333712},{"name":"A5","midi":81,"time":64.6416666666666,"velocity":0.47244094488188976,"duration":0.18333333333333712},{"name":"C#5","midi":73,"time":64.6416666666666,"velocity":0.5511811023622047,"duration":0.18333333333333712},{"name":"B4","midi":71,"time":64.82708333333326,"velocity":0.5511811023622047,"duration":0.18333333333333712},{"name":"G#5","midi":80,"time":64.82708333333326,"velocity":0.47244094488188976,"duration":0.3708333333333371},{"name":"E5","midi":76,"time":65.01249999999993,"velocity":0.47244094488188976,"duration":0.18541666666666856},{"name":"A4","midi":69,"time":65.19999999999993,"velocity":0.5511811023622047,"duration":0.375},{"name":"F#5","midi":78,"time":65.19999999999993,"velocity":0.47244094488188976,"duration":0.18541666666666856},{"name":"B4","midi":71,"time":65.3854166666666,"velocity":0.5511811023622047,"duration":0.18958333333333144},{"name":"E5","midi":76,"time":65.57499999999993,"velocity":0.47244094488188976,"duration":0.1875},{"name":"G#4","midi":68,"time":65.57708333333326,"velocity":0.5511811023622047,"duration":0.18541666666666856},{"name":"D5","midi":74,"time":65.76249999999993,"velocity":0.5511811023622047,"duration":0.37708333333333144},{"name":"B4","midi":71,"time":65.76458333333326,"velocity":0.5511811023622047,"duration":0.18333333333333712},{"name":"E4","midi":64,"time":65.94999999999993,"velocity":0.6062992125984252,"duration":0.18958333333333144},{"name":"A3","midi":57,"time":65.94999999999993,"velocity":0.6062992125984252,"duration":0.2645833333333343},{"name":"C#5","midi":73,"time":66.1416666666666,"velocity":0.5511811023622047,"duration":0.1875},{"name":"A4","midi":69,"time":66.1416666666666,"velocity":0.5511811023622047,"duration":0.1875},{"name":"D#5","midi":75,"time":66.33124999999993,"velocity":0.5511811023622047,"duration":0.19166666666666288},{"name":"F#4","midi":66,"time":66.33333333333326,"velocity":0.6062992125984252,"duration":0.18958333333333144},{"name":"E5","midi":76,"time":66.52291666666659,"velocity":0.47244094488188976,"duration":0.18958333333333144},{"name":"G#4","midi":68,"time":66.52499999999992,"velocity":0.5511811023622047,"duration":0.5729166666666572},{"name":"B4","midi":71,"time":66.71249999999992,"velocity":0.5511811023622047,"duration":0.19166666666666288},{"name":"G#3","midi":56,"time":66.71249999999992,"velocity":0.6062992125984252,"duration":0.19166666666666288},{"name":"E5","midi":76,"time":66.90624999999991,"velocity":0.47244094488188976,"duration":0.3812499999999943},{"name":"C#4","midi":61,"time":66.90624999999991,"velocity":0.6062992125984252,"duration":0.18958333333333144},{"name":"C#5","midi":73,"time":67.09791666666658,"velocity":0.5511811023622047,"duration":0.18958333333333144},{"name":"A3","midi":57,"time":67.09999999999991,"velocity":0.6062992125984252,"duration":0.18541666666666856},{"name":"F#5","midi":78,"time":67.28958333333324,"velocity":0.47244094488188976,"duration":0.3812499999999943},{"name":"A4","midi":69,"time":67.28958333333324,"velocity":0.5511811023622047,"duration":0.18958333333333144},{"name":"D4","midi":62,"time":67.29166666666657,"velocity":0.6062992125984252,"duration":0.18541666666666856},{"name":"D5","midi":74,"time":67.47916666666657,"velocity":0.5511811023622047,"duration":0.18958333333333144},{"name":"B3","midi":59,"time":67.4812499999999,"velocity":0.6062992125984252,"duration":0.1875},{"name":"G#5","midi":80,"time":67.67083333333323,"velocity":0.47244094488188976,"duration":0.3812499999999943},{"name":"B4","midi":71,"time":67.67291666666657,"velocity":0.5511811023622047,"duration":0.1875},{"name":"E4","midi":64,"time":67.67291666666657,"velocity":0.6062992125984252,"duration":0.1875},{"name":"E5","midi":76,"time":67.8624999999999,"velocity":0.47244094488188976,"duration":0.1875},{"name":"C#4","midi":61,"time":67.8624999999999,"velocity":0.6062992125984252,"duration":0.1875},{"name":"A5","midi":81,"time":68.05208333333323,"velocity":0.47244094488188976,"duration":0.19166666666666288},{"name":"D5","midi":74,"time":68.05416666666656,"velocity":0.5511811023622047,"duration":0.3791666666666629},{"name":"F#4","midi":66,"time":68.05416666666656,"velocity":0.6062992125984252,"duration":0.1875},{"name":"G#5","midi":80,"time":68.24374999999989,"velocity":0.47244094488188976,"duration":0.3812499999999943},{"name":"E4","midi":64,"time":68.24583333333322,"velocity":0.6062992125984252,"duration":0.18541666666666856},{"name":"A4","midi":69,"time":68.43333333333322,"velocity":0.5511811023622047,"duration":0.19166666666666288},{"name":"C#5","midi":73,"time":68.43541666666655,"velocity":0.5511811023622047,"duration":0.38333333333332575},{"name":"F#5","midi":78,"time":68.62499999999989,"velocity":0.47244094488188976,"duration":0.19374999999999432},{"name":"D4","midi":62,"time":68.62708333333322,"velocity":0.6062992125984252,"duration":0.3854166666666572},{"name":"B4","midi":71,"time":68.82083333333321,"velocity":0.5511811023622047,"duration":0.18958333333333144},{"name":"G#5","midi":80,"time":68.82083333333321,"velocity":0.47244094488188976,"duration":0.18958333333333144},{"name":"A5","midi":81,"time":69.01249999999987,"velocity":0.47244094488188976,"duration":0.5729166666666572},{"name":"E5","midi":76,"time":69.0145833333332,"velocity":0.47244094488188976,"duration":0.18541666666666856},{"name":"C#4","midi":61,"time":69.0145833333332,"velocity":0.6062992125984252,"duration":0.18541666666666856},{"name":"F#5","midi":78,"time":69.2020833333332,"velocity":0.47244094488188976,"duration":0.19166666666666288},{"name":"D#4","midi":63,"time":69.2020833333332,"velocity":0.6062992125984252,"duration":0.18958333333333144},{"name":"B4","midi":71,"time":69.39374999999987,"velocity":0.5511811023622047,"duration":0.18958333333333144},{"name":"E3","midi":52,"time":69.3958333333332,"velocity":0.6062992125984252,"duration":0.27291666666666003},{"name":"G#5","midi":80,"time":69.58749999999986,"velocity":0.47244094488188976,"duration":0.18958333333333144},{"name":"E5","midi":76,"time":69.58749999999986,"velocity":0.47244094488188976,"duration":0.1875},{"name":"B5","midi":83,"time":69.7770833333332,"velocity":0.47244094488188976,"duration":0.1916666666666771},{"name":"D5","midi":74,"time":69.77916666666653,"velocity":0.5511811023622047,"duration":0.38333333333333997},{"name":"E5","midi":76,"time":69.9708333333332,"velocity":0.47244094488188976,"duration":0.38333333333332575},{"name":"C#5","midi":73,"time":70.16249999999987,"velocity":0.5511811023622047,"duration":0.09583333333333144},{"name":"C#3","midi":49,"time":70.1645833333332,"velocity":0.6062992125984252,"duration":0.18958333333333144},{"name":"B4","midi":71,"time":70.2583333333332,"velocity":0.5511811023622047,"duration":0.09375},{"name":"D#5","midi":75,"time":70.35624999999986,"velocity":0.5511811023622047,"duration":0.1875},{"name":"C#5","midi":73,"time":70.35624999999986,"velocity":0.5511811023622047,"duration":0.09166666666666856},{"name":"F#3","midi":54,"time":70.35833333333319,"velocity":0.6062992125984252,"duration":0.18541666666666856},{"name":"A4","midi":69,"time":70.44999999999986,"velocity":0.5511811023622047,"duration":0.09166666666666856},{"name":"E5","midi":76,"time":70.54583333333319,"velocity":0.47244094488188976,"duration":0.7520833333333314},{"name":"G#4","midi":68,"time":70.54583333333319,"velocity":0.5511811023622047,"duration":0.1875},{"name":"E3","midi":52,"time":70.54791666666652,"velocity":0.6062992125984252,"duration":0.18541666666666856},{"name":"C#5","midi":73,"time":70.73333333333319,"velocity":0.5511811023622047,"duration":0.18958333333333144},{"name":"A3","midi":57,"time":70.73541666666652,"velocity":0.6062992125984252,"duration":0.18541666666666856},{"name":"A4","midi":69,"time":70.92291666666652,"velocity":0.5511811023622047,"duration":0.1875},{"name":"F#3","midi":54,"time":70.92291666666652,"velocity":0.6062992125984252,"duration":0.1875},{"name":"F#4","midi":66,"time":71.11249999999986,"velocity":0.6062992125984252,"duration":0.18333333333333712},{"name":"B3","midi":59,"time":71.11249999999986,"velocity":0.6062992125984252,"duration":0.18333333333333712},{"name":"D5","midi":74,"time":71.29791666666652,"velocity":0.5511811023622047,"duration":0.18333333333333712},{"name":"B4","midi":71,"time":71.29791666666652,"velocity":0.5511811023622047,"duration":0.18333333333333712},{"name":"G#3","midi":56,"time":71.29999999999986,"velocity":0.6062992125984252,"duration":0.18125000000000568},{"name":"C#5","midi":73,"time":71.48333333333319,"velocity":0.5511811023622047,"duration":0.18541666666666856},{"name":"A4","midi":69,"time":71.48541666666652,"velocity":0.5511811023622047,"duration":0.36666666666666003},{"name":"C#4","midi":61,"time":71.48541666666652,"velocity":0.6062992125984252,"duration":0.18125000000000568},{"name":"D5","midi":74,"time":71.66874999999986,"velocity":0.5511811023622047,"duration":0.3708333333333229},{"name":"B3","midi":59,"time":71.67083333333319,"velocity":0.6062992125984252,"duration":0.17916666666666003},{"name":"G#4","midi":68,"time":71.85208333333318,"velocity":0.5511811023622047,"duration":0.18541666666666856},{"name":"E4","midi":64,"time":71.85416666666652,"velocity":0.6062992125984252,"duration":0.18333333333333712},{"name":"C#5","midi":73,"time":72.03958333333318,"velocity":0.5511811023622047,"duration":0.18541666666666856},{"name":"A4","midi":69,"time":72.04166666666652,"velocity":0.5511811023622047,"duration":0.18125000000000568},{"name":"A3","midi":57,"time":72.04166666666652,"velocity":0.6062992125984252,"duration":0.36666666666667425},{"name":"B4","midi":71,"time":72.22499999999985,"velocity":0.5511811023622047,"duration":0.7458333333333371},{"name":"D4","midi":62,"time":72.22499999999985,"velocity":0.6062992125984252,"duration":0.7437500000000057},{"name":"G#3","midi":56,"time":72.41041666666652,"velocity":0.6062992125984252,"duration":0.18541666666666856},{"name":"B3","midi":59,"time":72.59583333333319,"velocity":0.6062992125984252,"duration":0.1875},{"name":"C#3","midi":49,"time":72.78333333333319,"velocity":0.6062992125984252,"duration":0.7437500000000057},{"name":"A4","midi":69,"time":72.97083333333319,"velocity":0.5511811023622047,"duration":0.18541666666666856},{"name":"C#4","midi":61,"time":72.97291666666652,"velocity":0.6062992125984252,"duration":0.18125000000000568},{"name":"C#5","midi":73,"time":73.15624999999986,"velocity":0.5511811023622047,"duration":0.18541666666666856},{"name":"E4","midi":64,"time":73.15833333333319,"velocity":0.6062992125984252,"duration":0.18333333333333712},{"name":"A3","midi":57,"time":73.34374999999986,"velocity":0.6062992125984252,"duration":0.5583333333333371},{"name":"F#4","midi":66,"time":73.34374999999986,"velocity":0.6062992125984252,"duration":0.6520833333333371},{"name":"A2","midi":45,"time":73.5270833333332,"velocity":0.6062992125984252,"duration":0.18541666666666856},{"name":"D3","midi":50,"time":73.7145833333332,"velocity":0.6062992125984252,"duration":0.18541666666666856},{"name":"D4","midi":62,"time":73.9020833333332,"velocity":0.6062992125984252,"duration":0.7729166666666458},{"name":"B2","midi":47,"time":73.90416666666653,"velocity":0.6062992125984252,"duration":0.1875},{"name":"G#4","midi":68,"time":73.9958333333332,"velocity":0.5511811023622047,"duration":0.07916666666666572},{"name":"A4","midi":69,"time":74.09166666666653,"velocity":0.5511811023622047,"duration":0.04999999999999716},{"name":"E3","midi":52,"time":74.09374999999986,"velocity":0.6062992125984252,"duration":0.1979166666666572},{"name":"G#4","midi":68,"time":74.14166666666652,"velocity":0.5511811023622047,"duration":0.04791666666666572},{"name":"A4","midi":69,"time":74.18958333333319,"velocity":0.5511811023622047,"duration":0.052083333333328596},{"name":"G#4","midi":68,"time":74.24166666666652,"velocity":0.5511811023622047,"duration":0.04999999999999716},{"name":"A4","midi":69,"time":74.29374999999985,"velocity":0.5511811023622047,"duration":0.04791666666666572},{"name":"E2","midi":40,"time":74.29374999999985,"velocity":0.6062992125984252,"duration":0.1979166666666572},{"name":"G#4","midi":68,"time":74.34166666666651,"velocity":0.5511811023622047,"duration":0.04999999999999716},{"name":"F#4","midi":66,"time":74.39166666666651,"velocity":0.6062992125984252,"duration":0.19166666666666288},{"name":"G#4","midi":68,"time":74.4416666666665,"velocity":0.5511811023622047,"duration":0.04999999999999716},{"name":"A4","midi":69,"time":74.49374999999984,"velocity":0.5511811023622047,"duration":0.18125000000000568},{"name":"A2","midi":45,"time":74.49374999999984,"velocity":0.6062992125984252,"duration":0.17916666666667425},{"name":"A3","midi":57,"time":74.67499999999984,"velocity":0.6062992125984252,"duration":0.5479166666666657},{"name":"C#4","midi":61,"time":74.67708333333317,"velocity":0.6062992125984252,"duration":0.1770833333333286},{"name":"F#4","midi":66,"time":74.85624999999983,"velocity":0.6062992125984252,"duration":0.18125000000000568},{"name":"B3","midi":59,"time":75.03749999999984,"velocity":0.6062992125984252,"duration":0.18333333333333712},{"name":"G#4","midi":68,"time":75.2229166666665,"velocity":0.5511811023622047,"duration":0.17916666666666003},{"name":"E4","midi":64,"time":75.22499999999984,"velocity":0.6062992125984252,"duration":0.1770833333333286},{"name":"G#3","midi":56,"time":75.22499999999984,"velocity":0.6062992125984252,"duration":0.17499999999999716},{"name":"G#4","midi":68,"time":75.4041666666665,"velocity":0.5511811023622047,"duration":0.36249999999999716},{"name":"C#5","midi":73,"time":75.4041666666665,"velocity":0.5511811023622047,"duration":0.17916666666666003},{"name":"E3","midi":52,"time":75.40624999999983,"velocity":0.6062992125984252,"duration":0.1770833333333286},{"name":"A4","midi":69,"time":75.58541666666649,"velocity":0.5511811023622047,"duration":0.18125000000000568},{"name":"F#3","midi":54,"time":75.58541666666649,"velocity":0.6062992125984252,"duration":0.18125000000000568},{"name":"D5","midi":74,"time":75.76874999999983,"velocity":0.5511811023622047,"duration":0.18124999999999147},{"name":"F#4","midi":66,"time":75.76874999999983,"velocity":0.6062992125984252,"duration":0.18124999999999147},{"name":"B2","midi":47,"time":75.77083333333316,"velocity":0.6062992125984252,"duration":0.1770833333333286},{"name":"B4","midi":71,"time":75.94999999999982,"velocity":0.5511811023622047,"duration":0.17916666666666003},{"name":"G#4","midi":68,"time":75.94999999999982,"velocity":0.5511811023622047,"duration":0.3645833333333286},{"name":"E3","midi":52,"time":75.95208333333315,"velocity":0.6062992125984252,"duration":0.1770833333333286},{"name":"E5","midi":76,"time":76.13124999999981,"velocity":0.47244094488188976,"duration":0.18333333333333712},{"name":"C#3","midi":49,"time":76.13333333333314,"velocity":0.6062992125984252,"duration":0.18125000000000568},{"name":"C#5","midi":73,"time":76.31666666666648,"velocity":0.5511811023622047,"duration":0.1833333333333229},{"name":"A4","midi":69,"time":76.31874999999981,"velocity":0.5511811023622047,"duration":0.18124999999999147},{"name":"F#3","midi":54,"time":76.31874999999981,"velocity":0.6062992125984252,"duration":0.17916666666666003},{"name":"F#5","midi":78,"time":76.4999999999998,"velocity":0.47244094488188976,"duration":0.1833333333333229},{"name":"B4","midi":71,"time":76.50208333333313,"velocity":0.5511811023622047,"duration":0.18124999999999147},{"name":"D3","midi":50,"time":76.50208333333313,"velocity":0.6062992125984252,"duration":0.17916666666666003},{"name":"C#5","midi":73,"time":76.68541666666646,"velocity":0.5511811023622047,"duration":0.5458333333333059},{"name":"E5","midi":76,"time":76.68541666666646,"velocity":0.47244094488188976,"duration":0.18124999999999147},{"name":"A3","midi":57,"time":76.68749999999979,"velocity":0.6062992125984252,"duration":0.17916666666666003},{"name":"A5","midi":81,"time":76.86874999999978,"velocity":0.47244094488188976,"duration":0.18124999999999147},{"name":"F#3","midi":54,"time":76.86874999999978,"velocity":0.6062992125984252,"duration":0.17916666666666003},{"name":"D5","midi":74,"time":77.04999999999977,"velocity":0.5511811023622047,"duration":0.36249999999998295},{"name":"B3","midi":59,"time":77.04999999999977,"velocity":0.6062992125984252,"duration":0.17916666666666003},{"name":"B4","midi":71,"time":77.23124999999976,"velocity":0.5511811023622047,"duration":0.36666666666666003},{"name":"E3","midi":52,"time":77.23333333333309,"velocity":0.6062992125984252,"duration":0.17916666666666003},{"name":"C#5","midi":73,"time":77.41458333333308,"velocity":0.5511811023622047,"duration":0.18333333333333712},{"name":"A3","midi":57,"time":77.41458333333308,"velocity":0.6062992125984252,"duration":0.18125000000000568},{"name":"A4","midi":69,"time":77.59999999999975,"velocity":0.5511811023622047,"duration":0.3645833333333286},{"name":"D#5","midi":75,"time":77.59999999999975,"velocity":0.5511811023622047,"duration":0.18124999999999147},{"name":"F#3","midi":54,"time":77.59999999999975,"velocity":0.6062992125984252,"duration":0.17916666666666003},{"name":"E5","midi":76,"time":77.78124999999974,"velocity":0.47244094488188976,"duration":0.7249999999999801},{"name":"C#4","midi":61,"time":77.78333333333308,"velocity":0.6062992125984252,"duration":0.36249999999999716},{"name":"G#4","midi":68,"time":77.96458333333308,"velocity":0.5511811023622047,"duration":0.17916666666666003},{"name":"C#5","midi":73,"time":78.14583333333307,"velocity":0.5511811023622047,"duration":0.18124999999999147},{"name":"B3","midi":59,"time":78.1479166666664,"velocity":0.6062992125984252,"duration":0.1770833333333286},{"name":"A#3","midi":58,"time":78.32708333333306,"velocity":0.6062992125984252,"duration":0.1770833333333286},{"name":"F#4","midi":66,"time":78.3291666666664,"velocity":0.6062992125984252,"duration":0.17499999999999716},{"name":"D5","midi":74,"time":78.50624999999972,"velocity":0.5511811023622047,"duration":0.17916666666666003},{"name":"B4","midi":71,"time":78.50833333333306,"velocity":0.5511811023622047,"duration":0.541666666666643},{"name":"B3","midi":59,"time":78.50833333333306,"velocity":0.6062992125984252,"duration":0.17499999999999716},{"name":"G5","midi":79,"time":78.68541666666638,"velocity":0.47244094488188976,"duration":0.18124999999999147},{"name":"E3","midi":52,"time":78.68749999999972,"velocity":0.6062992125984252,"duration":0.17916666666666003},{"name":"C#5","midi":73,"time":78.86874999999971,"velocity":0.5511811023622047,"duration":0.17916666666666003},{"name":"F#3","midi":54,"time":78.86874999999971,"velocity":0.6062992125984252,"duration":0.7229166666666629},{"name":"F#5","midi":78,"time":79.0499999999997,"velocity":0.47244094488188976,"duration":0.18125000000000568},{"name":"A4","midi":69,"time":79.0499999999997,"velocity":0.5511811023622047,"duration":0.3645833333333428},{"name":"D5","midi":74,"time":79.23333333333304,"velocity":0.5511811023622047,"duration":0.18125000000000568},{"name":"B4","midi":71,"time":79.41666666666637,"velocity":0.5511811023622047,"duration":0.7062499999999972},{"name":"G#4","midi":68,"time":79.41666666666637,"velocity":0.5511811023622047,"duration":0.7062499999999972},{"name":"F3","midi":53,"time":79.5937499999997,"velocity":0.6062992125984252,"duration":0.17499999999999716},{"name":"G#3","midi":56,"time":79.7687499999997,"velocity":0.6062992125984252,"duration":0.17500000000001137},{"name":"A2","midi":45,"time":79.94583333333304,"velocity":0.6062992125984252,"duration":0.3541666666666572},{"name":"A4","midi":69,"time":80.1249999999997,"velocity":0.5511811023622047,"duration":0.17499999999999716},{"name":"F#4","midi":66,"time":80.1249999999997,"velocity":0.6062992125984252,"duration":0.5395833333333115},{"name":"D5","midi":74,"time":80.30208333333303,"velocity":0.5511811023622047,"duration":0.17916666666666003},{"name":"B2","midi":47,"time":80.30208333333303,"velocity":0.6062992125984252,"duration":0.17916666666666003},{"name":"G#4","midi":68,"time":80.48124999999969,"velocity":0.5511811023622047,"duration":0.18124999999999147},{"name":"C#3","midi":49,"time":80.48333333333302,"velocity":0.6062992125984252,"duration":0.36249999999998295},{"name":"C#5","midi":73,"time":80.66458333333301,"velocity":0.5511811023622047,"duration":0.17916666666666003},{"name":"F4","midi":65,"time":80.66458333333301,"velocity":0.6062992125984252,"duration":0.17916666666666003},{"name":"B4","midi":71,"time":80.845833333333,"velocity":0.5511811023622047,"duration":0.1770833333333286},{"name":"G#4","midi":68,"time":80.845833333333,"velocity":0.5511811023622047,"duration":0.3541666666666572},{"name":"C#2","midi":37,"time":80.84791666666634,"velocity":0.6062992125984252,"duration":0.17499999999999716},{"name":"A4","midi":69,"time":81.02499999999966,"velocity":0.5511811023622047,"duration":0.7020833333333201},{"name":"F#2","midi":42,"time":81.02499999999966,"velocity":0.6062992125984252,"duration":0.17499999999999716},{"name":"F#4","midi":66,"time":81.19999999999966,"velocity":0.6062992125984252,"duration":0.17499999999999716},{"name":"E4","midi":64,"time":81.37499999999966,"velocity":0.6062992125984252,"duration":0.17499999999999716},{"name":"D4","midi":62,"time":81.55208333333299,"velocity":0.6062992125984252,"duration":0.3499999999999943},{"name":"G#4","midi":68,"time":81.72708333333298,"velocity":0.5511811023622047,"duration":0.17499999999999716},{"name":"F3","midi":53,"time":81.72916666666632,"velocity":0.6062992125984252,"duration":0.17083333333333428},{"name":"C#4","midi":61,"time":81.90416666666631,"velocity":0.6062992125984252,"duration":0.35208333333332575},{"name":"F#4","midi":66,"time":81.90416666666631,"velocity":0.6062992125984252,"duration":0.17291666666666572},{"name":"A3","midi":57,"time":81.90624999999964,"velocity":0.6062992125984252,"duration":0.17083333333333428},{"name":"D5","midi":74,"time":82.07916666666631,"velocity":0.5511811023622047,"duration":0.7083333333333144},{"name":"F#3","midi":54,"time":82.07916666666631,"velocity":0.6062992125984252,"duration":0.17499999999999716},{"name":"B3","midi":59,"time":82.25624999999964,"velocity":0.6062992125984252,"duration":0.1770833333333286},{"name":"B4","midi":71,"time":82.43333333333297,"velocity":0.5511811023622047,"duration":0.17916666666666003},{"name":"G#3","midi":56,"time":82.4354166666663,"velocity":0.6062992125984252,"duration":0.17499999999999716},{"name":"F4","midi":65,"time":82.61249999999963,"velocity":0.6062992125984252,"duration":0.17291666666666572},{"name":"C#4","midi":61,"time":82.61458333333296,"velocity":0.6062992125984252,"duration":0.17083333333333428},{"name":"C#5","midi":73,"time":82.78749999999962,"velocity":0.5511811023622047,"duration":0.17499999999999716},{"name":"F#4","midi":66,"time":82.78958333333296,"velocity":0.6062992125984252,"duration":0.3479166666666629},{"name":"A3","midi":57,"time":82.78958333333296,"velocity":0.6062992125984252,"duration":0.17083333333333428},{"name":"F#5","midi":78,"time":82.96249999999962,"velocity":0.47244094488188976,"duration":0.35208333333332575},{"name":"D4","midi":62,"time":82.96458333333295,"velocity":0.6062992125984252,"duration":0.17291666666666572},{"name":"G#4","midi":68,"time":83.13958333333295,"velocity":0.5511811023622047,"duration":0.17499999999999716},{"name":"C#4","midi":61,"time":83.13958333333295,"velocity":0.6062992125984252,"duration":0.17291666666666572},{"name":"E5","midi":76,"time":83.31666666666628,"velocity":0.47244094488188976,"duration":0.17499999999999716},{"name":"A#4","midi":70,"time":83.31666666666628,"velocity":0.5511811023622047,"duration":0.17291666666666572},{"name":"F#4","midi":66,"time":83.31874999999961,"velocity":0.6062992125984252,"duration":0.17083333333333428},{"name":"D5","midi":74,"time":83.49166666666628,"velocity":0.5511811023622047,"duration":0.17499999999999716},{"name":"B4","midi":71,"time":83.49374999999961,"velocity":0.5511811023622047,"duration":0.17083333333333428},{"name":"B3","midi":59,"time":83.49374999999961,"velocity":0.6062992125984252,"duration":0.3479166666666629},{"name":"C#5","midi":73,"time":83.66666666666627,"velocity":0.5511811023622047,"duration":0.6999999999999886},{"name":"E4","midi":64,"time":83.6687499999996,"velocity":0.6062992125984252,"duration":0.52291666666666},{"name":"G3","midi":55,"time":83.84166666666627,"velocity":0.6062992125984252,"duration":0.17499999999999716},{"name":"A#3","midi":58,"time":84.0187499999996,"velocity":0.6062992125984252,"duration":0.17291666666666572},{"name":"D4","midi":62,"time":84.1937499999996,"velocity":0.6062992125984252,"duration":0.3479166666666629},{"name":"B3","midi":59,"time":84.1937499999996,"velocity":0.6062992125984252,"duration":0.17083333333333428},{"name":"B4","midi":71,"time":84.36666666666626,"velocity":0.5511811023622047,"duration":0.17291666666666572},{"name":"B2","midi":47,"time":84.3687499999996,"velocity":0.6062992125984252,"duration":0.17083333333333428},{"name":"A#4","midi":70,"time":84.54166666666626,"velocity":0.5511811023622047,"duration":0.17499999999999716},{"name":"G4","midi":67,"time":84.54374999999959,"velocity":0.6062992125984252,"duration":0.17291666666666572},{"name":"E3","midi":52,"time":84.54374999999959,"velocity":0.6062992125984252,"duration":0.17083333333333428},{"name":"B4","midi":71,"time":84.71874999999959,"velocity":0.5511811023622047,"duration":0.3479166666666629},{"name":"F#4","midi":66,"time":84.71874999999959,"velocity":0.6062992125984252,"duration":0.17083333333333428},{"name":"D3","midi":50,"time":84.72083333333292,"velocity":0.6062992125984252,"duration":0.16875000000000284},{"name":"E4","midi":64,"time":84.89166666666625,"velocity":0.6062992125984252,"duration":0.3541666666666572},{"name":"G3","midi":55,"time":84.89166666666625,"velocity":0.6062992125984252,"duration":0.17291666666666572},{"name":"C#5","midi":73,"time":85.06666666666625,"velocity":0.5511811023622047,"duration":0.17916666666666003},{"name":"E3","midi":52,"time":85.06874999999958,"velocity":0.6062992125984252,"duration":0.17499999999999716},{"name":"D4","midi":62,"time":85.24791666666624,"velocity":0.6062992125984252,"duration":0.3479166666666629},{"name":"F#4","midi":66,"time":85.24791666666624,"velocity":0.6062992125984252,"duration":0.17291666666666572},{"name":"F#3","midi":54,"time":85.24999999999957,"velocity":0.6062992125984252,"duration":0.34583333333333144},{"name":"B4","midi":71,"time":85.42083333333291,"velocity":0.5511811023622047,"duration":0.17291666666666572},{"name":"A#4","midi":70,"time":85.5958333333329,"velocity":0.5511811023622047,"duration":0.1770833333333286},{"name":"C#4","midi":61,"time":85.59791666666624,"velocity":0.6062992125984252,"duration":0.17291666666666572},{"name":"F#2","midi":42,"time":85.59791666666624,"velocity":0.6062992125984252,"duration":0.17291666666666572},{"name":"B4","midi":71,"time":85.77291666666623,"velocity":0.5511811023622047,"duration":0.1770833333333286},{"name":"D4","midi":62,"time":85.77291666666623,"velocity":0.6062992125984252,"duration":0.1770833333333286},{"name":"B2","midi":47,"time":85.77499999999957,"velocity":0.6062992125984252,"duration":0.17291666666666572},{"name":"D5","midi":74,"time":85.94999999999956,"velocity":0.5511811023622047,"duration":0.5249999999999915},{"name":"F#4","midi":66,"time":85.9520833333329,"velocity":0.6062992125984252,"duration":0.17083333333333428},{"name":"B4","midi":71,"time":86.12291666666623,"velocity":0.5511811023622047,"duration":0.17499999999999716},{"name":"G#4","midi":68,"time":86.29999999999956,"velocity":0.5511811023622047,"duration":0.35208333333332575},{"name":"C#5","midi":73,"time":86.47499999999955,"velocity":0.5511811023622047,"duration":0.17499999999999716},{"name":"E3","midi":52,"time":86.47499999999955,"velocity":0.6062992125984252,"duration":0.17499999999999716},{"name":"F#5","midi":78,"time":86.65208333333288,"velocity":0.47244094488188976,"duration":0.3541666666666572},{"name":"C#5","midi":73,"time":86.65416666666621,"velocity":0.5511811023622047,"duration":0.17291666666666572},{"name":"A3","midi":57,"time":86.65416666666621,"velocity":0.6062992125984252,"duration":0.17083333333333428},{"name":"B4","midi":71,"time":86.82708333333288,"velocity":0.5511811023622047,"duration":0.1770833333333286},{"name":"G#3","midi":56,"time":86.82916666666621,"velocity":0.6062992125984252,"duration":0.17499999999999716},{"name":"E5","midi":76,"time":87.00624999999954,"velocity":0.47244094488188976,"duration":0.1770833333333286},{"name":"C#4","midi":61,"time":87.00833333333287,"velocity":0.6062992125984252,"duration":0.17291666666666572},{"name":"A5","midi":81,"time":87.18333333333287,"velocity":0.47244094488188976,"duration":0.3499999999999943},{"name":"C#5","midi":73,"time":87.1854166666662,"velocity":0.5511811023622047,"duration":0.17499999999999716},{"name":"A3","midi":57,"time":87.1854166666662,"velocity":0.6062992125984252,"duration":0.17499999999999716},{"name":"B4","midi":71,"time":87.36249999999953,"velocity":0.5511811023622047,"duration":0.6874999999999858},{"name":"D#4","midi":63,"time":87.36249999999953,"velocity":0.6062992125984252,"duration":0.16875000000000284},{"name":"G#5","midi":80,"time":87.53333333333286,"velocity":0.47244094488188976,"duration":0.08541666666666003},{"name":"B3","midi":59,"time":87.5354166666662,"velocity":0.6062992125984252,"duration":0.16874999999998863},{"name":"F#5","midi":78,"time":87.61874999999952,"velocity":0.47244094488188976,"duration":0.08541666666666003},{"name":"G#5","midi":80,"time":87.70624999999951,"velocity":0.47244094488188976,"duration":0.34166666666666856},{"name":"E4","midi":64,"time":87.70624999999951,"velocity":0.6062992125984252,"duration":0.16875000000000284},{"name":"A3","midi":57,"time":87.87708333333285,"velocity":0.6062992125984252,"duration":0.6875},{"name":"F#5","midi":78,"time":88.04999999999951,"velocity":0.47244094488188976,"duration":0.17083333333333428},{"name":"A4","midi":69,"time":88.04999999999951,"velocity":0.5511811023622047,"duration":0.17083333333333428},{"name":"E5","midi":76,"time":88.22291666666618,"velocity":0.47244094488188976,"duration":0.34166666666666856},{"name":"C#5","midi":73,"time":88.22291666666618,"velocity":0.5511811023622047,"duration":0.16875000000000284},{"name":"F#4","midi":66,"time":88.39374999999951,"velocity":0.6062992125984252,"duration":0.6895833333333314},{"name":"D#5","midi":75,"time":88.56666666666618,"velocity":0.5511811023622047,"duration":0.17499999999999716},{"name":"B3","midi":59,"time":88.56666666666618,"velocity":0.6062992125984252,"duration":0.17291666666666572},{"name":"F#5","midi":78,"time":88.74166666666618,"velocity":0.47244094488188976,"duration":0.17083333333333428},{"name":"F#3","midi":54,"time":88.74374999999951,"velocity":0.6062992125984252,"duration":0.16875000000000284},{"name":"B4","midi":71,"time":88.91458333333284,"velocity":0.5511811023622047,"duration":0.8604166666666657},{"name":"G#3","midi":56,"time":88.91458333333284,"velocity":0.6062992125984252,"duration":0.6875},{"name":"E4","midi":64,"time":89.08541666666618,"velocity":0.6062992125984252,"duration":0.17291666666666572},{"name":"G#4","midi":68,"time":89.25833333333284,"velocity":0.5511811023622047,"duration":0.17083333333333428},{"name":"C#4","midi":61,"time":89.43124999999951,"velocity":0.6062992125984252,"duration":0.5187499999999972},{"name":"C#3","midi":49,"time":89.60208333333284,"velocity":0.6062992125984252,"duration":0.17291666666666572},{"name":"A4","midi":69,"time":89.77499999999951,"velocity":0.5511811023622047,"duration":0.35208333333332575},{"name":"F#3","midi":54,"time":89.77708333333284,"velocity":0.6062992125984252,"duration":0.17291666666666572},{"name":"F#4","midi":66,"time":89.95208333333284,"velocity":0.6062992125984252,"duration":0.17291666666666572},{"name":"D#3","midi":51,"time":89.95208333333284,"velocity":0.6062992125984252,"duration":0.17499999999999716},{"name":"G#4","midi":68,"time":90.12916666666617,"velocity":0.5511811023622047,"duration":0.5249999999999915},{"name":"B3","midi":59,"time":90.12916666666617,"velocity":0.6062992125984252,"duration":0.17499999999999716},{"name":"E3","midi":52,"time":90.1312499999995,"velocity":0.6062992125984252,"duration":0.3499999999999943},{"name":"E4","midi":64,"time":90.3062499999995,"velocity":0.6062992125984252,"duration":0.17291666666666572},{"name":"C#4","midi":61,"time":90.48333333333282,"velocity":0.6062992125984252,"duration":0.5187499999999972},{"name":"A2","midi":45,"time":90.48333333333282,"velocity":0.6062992125984252,"duration":0.6916666666666629},{"name":"F#4","midi":66,"time":90.65416666666616,"velocity":0.6062992125984252,"duration":0.17499999999999716},{"name":"A4","midi":69,"time":90.82916666666615,"velocity":0.5511811023622047,"duration":0.17083333333333428},{"name":"D#4","midi":63,"time":91.00208333333282,"velocity":0.6062992125984252,"duration":0.17291666666666572},{"name":"B3","midi":59,"time":91.00416666666615,"velocity":0.6062992125984252,"duration":0.34583333333333144},{"name":"B4","midi":71,"time":91.17708333333282,"velocity":0.5511811023622047,"duration":0.17291666666666572},{"name":"G#2","midi":44,"time":91.17708333333282,"velocity":0.6062992125984252,"duration":0.17291666666666572},{"name":"G#4","midi":68,"time":91.35208333333281,"velocity":0.5511811023622047,"duration":0.17083333333333428},{"name":"C#3","midi":49,"time":91.35208333333281,"velocity":0.6062992125984252,"duration":0.16875000000000284},{"name":"E4","midi":64,"time":91.35208333333281,"velocity":0.6062992125984252,"duration":0.5125000000000028},{"name":"C#5","midi":73,"time":91.52291666666615,"velocity":0.5511811023622047,"duration":0.17083333333333428},{"name":"A2","midi":45,"time":91.52499999999948,"velocity":0.6062992125984252,"duration":0.16875000000000284},{"name":"F#4","midi":66,"time":91.69583333333281,"velocity":0.6062992125984252,"duration":0.34583333333333144},{"name":"B2","midi":47,"time":91.69583333333281,"velocity":0.6062992125984252,"duration":0.34375},{"name":"D#4","midi":63,"time":91.86666666666615,"velocity":0.6062992125984252,"duration":0.17291666666666572},{"name":"E4","midi":64,"time":92.04166666666615,"velocity":0.6062992125984252,"duration":0.16875000000000284},{"name":"E2","midi":40,"time":92.04374999999948,"velocity":0.6062992125984252,"duration":0.16458333333333997},{"name":"E5","midi":76,"time":92.21041666666615,"velocity":0.47244094488188976,"duration":0.1666666666666714},{"name":"B4","midi":71,"time":92.37708333333282,"velocity":0.5511811023622047,"duration":0.1666666666666714},{"name":"C#5","midi":73,"time":92.54374999999949,"velocity":0.5511811023622047,"duration":0.1666666666666714},{"name":"F#5","midi":78,"time":92.7124999999995,"velocity":0.47244094488188976,"duration":0.16458333333333997},{"name":"A4","midi":69,"time":92.7124999999995,"velocity":0.5511811023622047,"duration":0.16458333333333997},{"name":"C#5","midi":73,"time":92.87916666666617,"velocity":0.5511811023622047,"duration":0.16875000000000284},{"name":"E4","midi":64,"time":92.87916666666617,"velocity":0.6062992125984252,"duration":0.1666666666666714},{"name":"D5","midi":74,"time":93.04791666666617,"velocity":0.5511811023622047,"duration":0.6729166666666799},{"name":"F#4","midi":66,"time":93.0499999999995,"velocity":0.6062992125984252,"duration":0.16458333333333997},{"name":"B4","midi":71,"time":93.21666666666617,"velocity":0.5511811023622047,"duration":0.1666666666666714},{"name":"F#4","midi":66,"time":93.38333333333284,"velocity":0.6062992125984252,"duration":0.1666666666666714},{"name":"G#4","midi":68,"time":93.55208333333285,"velocity":0.5511811023622047,"duration":0.33541666666667425},{"name":"B4","midi":71,"time":93.72291666666618,"velocity":0.5511811023622047,"duration":0.16458333333333997},{"name":"E5","midi":76,"time":93.88958333333285,"velocity":0.47244094488188976,"duration":0.16458333333333997},{"name":"C#5","midi":73,"time":94.05624999999952,"velocity":0.5511811023622047,"duration":0.16875000000000284},{"name":"E4","midi":64,"time":94.05624999999952,"velocity":0.6062992125984252,"duration":0.16875000000000284},{"name":"F#5","midi":78,"time":94.22708333333286,"velocity":0.47244094488188976,"duration":0.16875000000000284},{"name":"A4","midi":69,"time":94.22708333333286,"velocity":0.5511811023622047,"duration":0.16875000000000284},{"name":"D5","midi":74,"time":94.39791666666619,"velocity":0.5511811023622047,"duration":0.16875000000000284},{"name":"F#4","midi":66,"time":94.39791666666619,"velocity":0.6062992125984252,"duration":0.1666666666666714},{"name":"G#5","midi":80,"time":94.5666666666662,"velocity":0.47244094488188976,"duration":0.1666666666666714},{"name":"B4","midi":71,"time":94.56874999999953,"velocity":0.5511811023622047,"duration":0.16458333333333997},{"name":"E5","midi":76,"time":94.7354166666662,"velocity":0.47244094488188976,"duration":0.17083333333333428},{"name":"G#4","midi":68,"time":94.7354166666662,"velocity":0.5511811023622047,"duration":0.17083333333333428},{"name":"A5","midi":81,"time":94.90624999999953,"velocity":0.47244094488188976,"duration":0.16875000000000284},{"name":"C#5","midi":73,"time":94.90833333333286,"velocity":0.5511811023622047,"duration":0.1666666666666714},{"name":"F#5","midi":78,"time":95.07708333333287,"velocity":0.47244094488188976,"duration":0.3395833333333371},{"name":"A4","midi":69,"time":95.07708333333287,"velocity":0.5511811023622047,"duration":0.17083333333333428},{"name":"D5","midi":74,"time":95.24999999999953,"velocity":0.5511811023622047,"duration":0.5104166666666714},{"name":"B5","midi":83,"time":95.41874999999953,"velocity":0.47244094488188976,"duration":0.17083333333333428},{"name":"E5","midi":76,"time":95.5916666666662,"velocity":0.47244094488188976,"duration":0.16875000000000284},{"name":"A5","midi":81,"time":95.7604166666662,"velocity":0.47244094488188976,"duration":0.5125000000000028},{"name":"C#5","midi":73,"time":95.76249999999953,"velocity":0.5511811023622047,"duration":0.1666666666666714},{"name":"F#5","midi":78,"time":95.93124999999954,"velocity":0.47244094488188976,"duration":0.16875000000000284},{"name":"B4","midi":71,"time":96.09999999999954,"velocity":0.5511811023622047,"duration":0.2562499999999943},{"name":"G#5","midi":80,"time":96.2729166666662,"velocity":0.47244094488188976,"duration":0.34166666666664014},{"name":"F#5","midi":78,"time":96.35624999999953,"velocity":0.47244094488188976,"duration":0.08541666666666003},{"name":"E5","midi":76,"time":96.44374999999953,"velocity":0.47244094488188976,"duration":0.0833333333333286},{"name":"D5","midi":74,"time":96.52916666666619,"velocity":0.5511811023622047,"duration":0.08541666666666003},{"name":"A5","midi":81,"time":96.61666666666618,"velocity":0.47244094488188976,"duration":0.17083333333332007},{"name":"C#5","midi":73,"time":96.61666666666618,"velocity":0.5511811023622047,"duration":0.0833333333333286},{"name":"A2","midi":45,"time":96.61874999999951,"velocity":0.6062992125984252,"duration":0.16874999999998863},{"name":"D5","midi":74,"time":96.6999999999995,"velocity":0.5511811023622047,"duration":0.08541666666666003},{"name":"E5","midi":76,"time":96.78958333333283,"velocity":0.47244094488188976,"duration":0.08124999999999716},{"name":"C#5","midi":73,"time":96.87083333333283,"velocity":0.5511811023622047,"duration":0.08541666666666003},{"name":"B4","midi":71,"time":96.95624999999949,"velocity":0.5511811023622047,"duration":0.08541666666666003},{"name":"A4","midi":69,"time":97.04374999999948,"velocity":0.5511811023622047,"duration":0.0833333333333286},{"name":"G#4","midi":68,"time":97.12916666666614,"velocity":0.5511811023622047,"duration":0.0833333333333286},{"name":"A4","midi":69,"time":97.21249999999947,"velocity":0.5511811023622047,"duration":0.08541666666666003},{"name":"B4","midi":71,"time":97.29999999999946,"velocity":0.5511811023622047,"duration":0.08124999999999716},{"name":"G#2","midi":44,"time":97.29999999999946,"velocity":0.6062992125984252,"duration":0.16874999999998863},{"name":"G#4","midi":68,"time":97.38333333333279,"velocity":0.5511811023622047,"duration":0.08541666666666003},{"name":"F#4","midi":66,"time":97.47083333333278,"velocity":0.6062992125984252,"duration":0.0833333333333286},{"name":"C#3","midi":49,"time":97.47083333333278,"velocity":0.6062992125984252,"duration":0.17083333333332007},{"name":"E4","midi":64,"time":97.5541666666661,"velocity":0.6062992125984252,"duration":0.08541666666666003},{"name":"F#4","midi":66,"time":97.6416666666661,"velocity":0.6062992125984252,"duration":0.0833333333333286},{"name":"A2","midi":45,"time":97.64374999999943,"velocity":0.6062992125984252,"duration":0.16874999999998863},{"name":"E4","midi":64,"time":97.72708333333276,"velocity":0.6062992125984252,"duration":0.08541666666666003},{"name":"D3","midi":50,"time":97.81458333333275,"velocity":0.6062992125984252,"duration":0.17083333333332007},{"name":"F#4","midi":66,"time":97.81458333333275,"velocity":0.6062992125984252,"duration":0.0833333333333286},{"name":"A4","midi":69,"time":97.89999999999941,"velocity":0.5511811023622047,"duration":0.0833333333333286},{"name":"G#4","midi":68,"time":97.98541666666607,"velocity":0.5511811023622047,"duration":0.08541666666666003},{"name":"B2","midi":47,"time":97.9874999999994,"velocity":0.6062992125984252,"duration":0.16874999999998863},{"name":"F#4","midi":66,"time":98.07083333333273,"velocity":0.6062992125984252,"duration":0.08541666666666003},{"name":"G#4","midi":68,"time":98.15833333333272,"velocity":0.5511811023622047,"duration":0.08124999999999716},{"name":"E3","midi":52,"time":98.15833333333272,"velocity":0.6062992125984252,"duration":0.16874999999998863},{"name":"B4","midi":71,"time":98.24166666666605,"velocity":0.5511811023622047,"duration":0.0833333333333286},{"name":"A4","midi":69,"time":98.32708333333271,"velocity":0.5511811023622047,"duration":0.08541666666666003},{"name":"C#3","midi":49,"time":98.32916666666604,"velocity":0.6062992125984252,"duration":0.16874999999998863},{"name":"G#4","midi":68,"time":98.41249999999937,"velocity":0.5511811023622047,"duration":0.0833333333333286},{"name":"A4","midi":69,"time":98.49791666666603,"velocity":0.5511811023622047,"duration":0.0833333333333286},{"name":"F#3","midi":54,"time":98.49999999999936,"velocity":0.6062992125984252,"duration":0.1666666666666572},{"name":"B4","midi":71,"time":98.58333333333269,"velocity":0.5511811023622047,"duration":0.0833333333333286},{"name":"C#5","midi":73,"time":98.66874999999935,"velocity":0.5511811023622047,"duration":0.0833333333333286},{"name":"E3","midi":52,"time":98.66874999999935,"velocity":0.6062992125984252,"duration":0.17083333333332007},{"name":"B4","midi":71,"time":98.75208333333268,"velocity":0.5511811023622047,"duration":0.08541666666666003},{"name":"C#5","midi":73,"time":98.83958333333267,"velocity":0.5511811023622047,"duration":0.08541666666666003},{"name":"A3","midi":57,"time":98.841666666666,"velocity":0.6062992125984252,"duration":0.16874999999998863},{"name":"D5","midi":74,"time":98.92499999999933,"velocity":0.5511811023622047,"duration":0.08541666666666003},{"name":"E5","midi":76,"time":99.01249999999932,"velocity":0.47244094488188976,"duration":0.0833333333333286},{"name":"D3","midi":50,"time":99.01249999999932,"velocity":0.6062992125984252,"duration":0.34166666666664014},{"name":"F#5","midi":78,"time":99.09791666666598,"velocity":0.47244094488188976,"duration":0.0833333333333286},{"name":"G#5","midi":80,"time":99.18333333333264,"velocity":0.47244094488188976,"duration":0.08541666666666003},{"name":"B5","midi":83,"time":99.2687499999993,"velocity":0.47244094488188976,"duration":0.08541666666666003},{"name":"A5","midi":81,"time":99.35624999999929,"velocity":0.47244094488188976,"duration":0.0833333333333286},{"name":"C#3","midi":49,"time":99.35624999999929,"velocity":0.6062992125984252,"duration":0.17083333333332007},{"name":"G#5","midi":80,"time":99.44166666666595,"velocity":0.47244094488188976,"duration":0.0833333333333286},{"name":"F#5","midi":78,"time":99.52708333333261,"velocity":0.47244094488188976,"duration":0.08749999999999147},{"name":"D#3","midi":51,"time":99.52916666666594,"velocity":0.6062992125984252,"duration":0.17291666666666572},{"name":"A5","midi":81,"time":99.6145833333326,"velocity":0.47244094488188976,"duration":0.08750000000000568},{"name":"G#5","midi":80,"time":99.70416666666594,"velocity":0.47244094488188976,"duration":0.08749999999999147},{"name":"E4","midi":64,"time":99.70416666666594,"velocity":0.6062992125984252,"duration":0.17708333333331439},{"name":"E3","midi":52,"time":99.70624999999927,"velocity":0.6062992125984252,"duration":0.17499999999998295},{"name":"A5","midi":81,"time":99.79374999999926,"velocity":0.47244094488188976,"duration":0.08541666666666003},{"name":"B5","midi":83,"time":99.88333333333259,"velocity":0.47244094488188976,"duration":0.08541666666666003},{"name":"F#3","midi":54,"time":99.88333333333259,"velocity":0.6062992125984252,"duration":0.17499999999999716},{"name":"F#5","midi":78,"time":99.97083333333258,"velocity":0.47244094488188976,"duration":0.08750000000000568},{"name":"E5","midi":76,"time":100.06041666666592,"velocity":0.47244094488188976,"duration":0.08958333333333712},{"name":"G#3","midi":56,"time":100.06041666666592,"velocity":0.6062992125984252,"duration":0.1770833333333286},{"name":"D5","midi":74,"time":100.14999999999925,"velocity":0.5511811023622047,"duration":0.08541666666666003},{"name":"C#5","midi":73,"time":100.23749999999924,"velocity":0.5511811023622047,"duration":0.17916666666666003},{"name":"A3","midi":57,"time":100.23958333333258,"velocity":0.6062992125984252,"duration":0.1770833333333286},{"name":"C#4","midi":61,"time":100.41874999999924,"velocity":0.6062992125984252,"duration":0.1770833333333286},{"name":"F#4","midi":66,"time":100.59583333333256,"velocity":0.6062992125984252,"duration":0.1770833333333286},{"name":"E4","midi":64,"time":100.77499999999922,"velocity":0.6062992125984252,"duration":0.17499999999999716},{"name":"A4","midi":69,"time":100.95208333333255,"velocity":0.5511811023622047,"duration":0.1770833333333286},{"name":"C#5","midi":73,"time":100.95208333333255,"velocity":0.5511811023622047,"duration":0.17916666666666003},{"name":"A2","midi":45,"time":100.95416666666588,"velocity":0.6062992125984252,"duration":0.17499999999999716},{"name":"A4","midi":69,"time":101.13124999999921,"velocity":0.5511811023622047,"duration":0.17499999999999716},{"name":"F#4","midi":66,"time":101.13333333333254,"velocity":0.6062992125984252,"duration":0.17291666666666572},{"name":"D3","midi":50,"time":101.13333333333254,"velocity":0.6062992125984252,"duration":0.17083333333333428},{"name":"D5","midi":74,"time":101.30833333333254,"velocity":0.5511811023622047,"duration":0.1770833333333286},{"name":"B4","midi":71,"time":101.30833333333254,"velocity":0.5511811023622047,"duration":0.17499999999999716},{"name":"B2","midi":47,"time":101.30833333333254,"velocity":0.6062992125984252,"duration":0.17499999999999716},{"name":"B4","midi":71,"time":101.48541666666587,"velocity":0.5511811023622047,"duration":0.1770833333333286},{"name":"G#4","midi":68,"time":101.4874999999992,"velocity":0.5511811023622047,"duration":0.17499999999999716},{"name":"E3","midi":52,"time":101.4874999999992,"velocity":0.6062992125984252,"duration":0.17291666666666572},{"name":"E5","midi":76,"time":101.66458333333253,"velocity":0.47244094488188976,"duration":0.1770833333333286},{"name":"C#5","midi":73,"time":101.66458333333253,"velocity":0.5511811023622047,"duration":0.17499999999999716},{"name":"C#3","midi":49,"time":101.66666666666586,"velocity":0.6062992125984252,"duration":0.17291666666666572},{"name":"C#5","midi":73,"time":101.84166666666586,"velocity":0.5511811023622047,"duration":0.1770833333333286},{"name":"A4","midi":69,"time":101.84374999999919,"velocity":0.5511811023622047,"duration":0.17499999999999716},{"name":"F#3","midi":54,"time":101.84374999999919,"velocity":0.6062992125984252,"duration":0.17291666666666572},{"name":"F#5","midi":78,"time":102.02083333333252,"velocity":0.47244094488188976,"duration":0.1770833333333286},{"name":"D5","midi":74,"time":102.02083333333252,"velocity":0.5511811023622047,"duration":0.17499999999999716},{"name":"D3","midi":50,"time":102.02291666666585,"velocity":0.6062992125984252,"duration":0.17291666666666572},{"name":"E5","midi":76,"time":102.19791666666585,"velocity":0.47244094488188976,"duration":0.1770833333333286},{"name":"C#5","midi":73,"time":102.19999999999918,"velocity":0.5511811023622047,"duration":0.17499999999999716},{"name":"A3","midi":57,"time":102.19999999999918,"velocity":0.6062992125984252,"duration":0.17291666666666572},{"name":"A5","midi":81,"time":102.37499999999918,"velocity":0.47244094488188976,"duration":0.1770833333333286},{"name":"F#5","midi":78,"time":102.37708333333251,"velocity":0.47244094488188976,"duration":0.17499999999999716},{"name":"F#3","midi":54,"time":102.37708333333251,"velocity":0.6062992125984252,"duration":0.17291666666666572},{"name":"G#5","midi":80,"time":102.55416666666584,"velocity":0.47244094488188976,"duration":0.04375000000000284},{"name":"D#5","midi":75,"time":102.55416666666584,"velocity":0.5511811023622047,"duration":0.36041666666667993},{"name":"B3","midi":59,"time":102.55624999999917,"velocity":0.6062992125984252,"duration":0.08750000000000568},{"name":"F#5","midi":78,"time":102.59791666666584,"velocity":0.47244094488188976,"duration":0.04583333333333428},{"name":"G#5","midi":80,"time":102.6458333333325,"velocity":0.47244094488188976,"duration":0.041666666666671404},{"name":"A3","midi":57,"time":102.6458333333325,"velocity":0.6062992125984252,"duration":0.08750000000000568},{"name":"F#5","midi":78,"time":102.68749999999918,"velocity":0.47244094488188976,"duration":0.04583333333333428},{"name":"G#5","midi":80,"time":102.73541666666584,"velocity":0.47244094488188976,"duration":0.041666666666671404},{"name":"G#3","midi":56,"time":102.73541666666584,"velocity":0.6062992125984252,"duration":0.08958333333333712},{"name":"F#5","midi":78,"time":102.77708333333251,"velocity":0.47244094488188976,"duration":0.04583333333333428},{"name":"G#5","midi":80,"time":102.82499999999918,"velocity":0.47244094488188976,"duration":0.041666666666671404},{"name":"F#3","midi":54,"time":102.82499999999918,"velocity":0.6062992125984252,"duration":0.08958333333333712},{"name":"F#5","midi":78,"time":102.86874999999918,"velocity":0.47244094488188976,"duration":0.04375000000000284},{"name":"E5","midi":76,"time":102.91666666666585,"velocity":0.47244094488188976,"duration":0.18333333333333712},{"name":"G#3","midi":56,"time":102.91666666666585,"velocity":0.6062992125984252,"duration":0.08750000000000568},{"name":"F#5","midi":78,"time":103.00624999999918,"velocity":0.47244094488188976,"duration":0.09166666666666856},{"name":"A3","midi":57,"time":103.00624999999918,"velocity":0.6062992125984252,"duration":0.09166666666666856},{"name":"G#5","midi":80,"time":103.09999999999918,"velocity":0.47244094488188976,"duration":0.08750000000000568},{"name":"B3","midi":59,"time":103.09999999999918,"velocity":0.6062992125984252,"duration":0.08750000000000568},{"name":"E5","midi":76,"time":103.18958333333252,"velocity":0.47244094488188976,"duration":0.08958333333333712},{"name":"G#3","midi":56,"time":103.18958333333252,"velocity":0.6062992125984252,"duration":0.08958333333333712},{"name":"G#5","midi":80,"time":103.28124999999919,"velocity":0.47244094488188976,"duration":0.09166666666666856},{"name":"F#3","midi":54,"time":103.28124999999919,"velocity":0.6062992125984252,"duration":0.08958333333333712},{"name":"A5","midi":81,"time":103.37291666666586,"velocity":0.47244094488188976,"duration":0.09166666666666856},{"name":"E3","midi":52,"time":103.37499999999919,"velocity":0.6062992125984252,"duration":0.08750000000000568},{"name":"B5","midi":83,"time":103.46458333333253,"velocity":0.47244094488188976,"duration":0.17916666666666003},{"name":"D#3","midi":51,"time":103.46666666666586,"velocity":0.6062992125984252,"duration":0.08541666666666003},{"name":"E3","midi":52,"time":103.55416666666585,"velocity":0.6062992125984252,"duration":0.08958333333333712},{"name":"F#3","midi":54,"time":103.64583333333252,"velocity":0.6062992125984252,"duration":0.08958333333333712},{"name":"D#4","midi":63,"time":103.64583333333252,"velocity":0.6062992125984252,"duration":0.17916666666667425},{"name":"D#3","midi":51,"time":103.73541666666586,"velocity":0.6062992125984252,"duration":0.08958333333333712},{"name":"G#4","midi":68,"time":103.82708333333252,"velocity":0.5511811023622047,"duration":0.18125000000000568},{"name":"C#3","midi":49,"time":103.82708333333252,"velocity":0.6062992125984252,"duration":0.08958333333333712},{"name":"B2","midi":47,"time":103.91874999999919,"velocity":0.6062992125984252,"duration":0.08750000000000568},{"name":"C#3","midi":49,"time":104.00833333333253,"velocity":0.6062992125984252,"duration":0.09166666666666856},{"name":"E4","midi":64,"time":104.01041666666586,"velocity":0.6062992125984252,"duration":0.17916666666667425},{"name":"B2","midi":47,"time":104.0999999999992,"velocity":0.6062992125984252,"duration":0.08958333333333712},{"name":"A4","midi":69,"time":104.19166666666587,"velocity":0.5511811023622047,"duration":0.18125000000000568},{"name":"C#3","midi":49,"time":104.19166666666587,"velocity":0.6062992125984252,"duration":0.08958333333333712},{"name":"E3","midi":52,"time":104.2812499999992,"velocity":0.6062992125984252,"duration":0.08958333333333712},{"name":"D#3","midi":51,"time":104.37291666666587,"velocity":0.6062992125984252,"duration":0.08958333333333712},{"name":"F#4","midi":66,"time":104.3749999999992,"velocity":0.6062992125984252,"duration":0.17916666666667425},{"name":"C#3","midi":49,"time":104.46458333333254,"velocity":0.6062992125984252,"duration":0.08750000000000568},{"name":"B4","midi":71,"time":104.55416666666588,"velocity":0.5511811023622047,"duration":0.17916666666667425},{"name":"D#3","midi":51,"time":104.55624999999921,"velocity":0.6062992125984252,"duration":0.08750000000000568},{"name":"F#3","midi":54,"time":104.64374999999922,"velocity":0.6062992125984252,"duration":0.08958333333333712},{"name":"G#4","midi":68,"time":104.73541666666588,"velocity":0.5511811023622047,"duration":0.17916666666667425},{"name":"E3","midi":52,"time":104.73541666666588,"velocity":0.6062992125984252,"duration":0.08750000000000568},{"name":"D#3","midi":51,"time":104.82499999999922,"velocity":0.6062992125984252,"duration":0.08958333333333712},{"name":"C#5","midi":73,"time":104.91666666666589,"velocity":0.5511811023622047,"duration":0.17916666666666003},{"name":"E3","midi":52,"time":104.91666666666589,"velocity":0.6062992125984252,"duration":0.08541666666666003},{"name":"F#3","midi":54,"time":105.00416666666588,"velocity":0.6062992125984252,"duration":0.08958333333333712},{"name":"B4","midi":71,"time":105.09583333333255,"velocity":0.5511811023622047,"duration":0.17916666666667425},{"name":"G#3","midi":56,"time":105.09583333333255,"velocity":0.6062992125984252,"duration":0.08750000000000568},{"name":"F#3","midi":54,"time":105.18541666666589,"velocity":0.6062992125984252,"duration":0.08958333333333712},{"name":"E5","midi":76,"time":105.27499999999922,"velocity":0.47244094488188976,"duration":0.18125000000000568},{"name":"G#3","midi":56,"time":105.27499999999922,"velocity":0.6062992125984252,"duration":0.09166666666666856},{"name":"A3","midi":57,"time":105.36666666666589,"velocity":0.6062992125984252,"duration":0.08958333333333712},{"name":"A4","midi":69,"time":105.45833333333256,"velocity":0.5511811023622047,"duration":0.36041666666667993},{"name":"B3","midi":59,"time":105.45833333333256,"velocity":0.6062992125984252,"duration":0.08750000000000568},{"name":"C#4","midi":61,"time":105.54583333333257,"velocity":0.6062992125984252,"duration":0.08958333333333712},{"name":"D#4","midi":63,"time":105.63749999999924,"velocity":0.6062992125984252,"duration":0.08958333333333712},{"name":"F#4","midi":66,"time":105.7291666666659,"velocity":0.6062992125984252,"duration":0.08958333333333712},{"name":"F#4","midi":66,"time":105.82083333333257,"velocity":0.6062992125984252,"duration":0.17916666666667425},{"name":"E4","midi":64,"time":105.82083333333257,"velocity":0.6062992125984252,"duration":0.08958333333333712},{"name":"D#4","midi":63,"time":105.91041666666591,"velocity":0.6062992125984252,"duration":0.08958333333333712},{"name":"B4","midi":71,"time":106.00208333333258,"velocity":0.5511811023622047,"duration":0.18333333333333712},{"name":"C#4","midi":61,"time":106.00208333333258,"velocity":0.6062992125984252,"duration":0.08958333333333712},{"name":"B3","midi":59,"time":106.09374999999925,"velocity":0.6062992125984252,"duration":0.08958333333333712},{"name":"G#4","midi":68,"time":106.18541666666592,"velocity":0.5511811023622047,"duration":0.1875},{"name":"E4","midi":64,"time":106.18749999999925,"velocity":0.6062992125984252,"duration":0.18541666666666856},{"name":"B5","midi":83,"time":106.37499999999925,"velocity":0.47244094488188976,"duration":0.09166666666666856},{"name":"E3","midi":52,"time":106.37499999999925,"velocity":0.6062992125984252,"duration":0.18333333333333712},{"name":"A5","midi":81,"time":106.46666666666592,"velocity":0.47244094488188976,"duration":0.09999999999999432},{"name":"G#5","midi":80,"time":106.56041666666592,"velocity":0.47244094488188976,"duration":0.10208333333332575},{"name":"A3","midi":57,"time":106.56041666666592,"velocity":0.6062992125984252,"duration":0.17916666666666003},{"name":"F#5","midi":78,"time":106.64999999999924,"velocity":0.47244094488188976,"duration":0.09583333333333144},{"name":"E5","midi":76,"time":106.7416666666659,"velocity":0.47244094488188976,"duration":0.09583333333331723},{"name":"G#3","midi":56,"time":106.7416666666659,"velocity":0.6062992125984252,"duration":0.1833333333333229},{"name":"F#5","midi":78,"time":106.83124999999923,"velocity":0.47244094488188976,"duration":0.09999999999999432},{"name":"G#5","midi":80,"time":106.92708333333256,"velocity":0.47244094488188976,"duration":0.09791666666666288},{"name":"E4","midi":64,"time":106.92708333333256,"velocity":0.6062992125984252,"duration":0.18541666666666856},{"name":"E5","midi":76,"time":107.01874999999923,"velocity":0.47244094488188976,"duration":0.10208333333332575},{"name":"D5","midi":74,"time":107.11458333333256,"velocity":0.5511811023622047,"duration":0.09166666666665435},{"name":"A3","midi":57,"time":107.11458333333256,"velocity":0.6062992125984252,"duration":0.18541666666665435},{"name":"C#5","midi":73,"time":107.20624999999922,"velocity":0.5511811023622047,"duration":0.09375},{"name":"D5","midi":74,"time":107.30208333333255,"velocity":0.5511811023622047,"duration":0.08958333333333712},{"name":"F#4","midi":66,"time":107.30208333333255,"velocity":0.6062992125984252,"duration":0.18541666666666856},{"name":"C#5","midi":73,"time":107.39374999999922,"velocity":0.5511811023622047,"duration":0.09166666666666856},{"name":"D5","midi":74,"time":107.48749999999922,"velocity":0.5511811023622047,"duration":0.09999999999999432},{"name":"B3","midi":59,"time":107.48958333333255,"velocity":0.6062992125984252,"duration":0.18541666666666856},{"name":"F#5","midi":78,"time":107.58124999999922,"velocity":0.47244094488188976,"duration":0.09375},{"name":"E5","midi":76,"time":107.67499999999922,"velocity":0.47244094488188976,"duration":0.09583333333333144},{"name":"G#4","midi":68,"time":107.67708333333255,"velocity":0.5511811023622047,"duration":0.1875},{"name":"D5","midi":74,"time":107.77083333333255,"velocity":0.5511811023622047,"duration":0.09375},{"name":"C#5","midi":73,"time":107.86666666666588,"velocity":0.5511811023622047,"duration":0.18958333333333144},{"name":"A4","midi":69,"time":107.86666666666588,"velocity":0.5511811023622047,"duration":0.09375},{"name":"F#4","midi":66,"time":107.96041666666588,"velocity":0.6062992125984252,"duration":0.09583333333333144},{"name":"A4","midi":69,"time":108.05833333333254,"velocity":0.5511811023622047,"duration":0.18958333333333144},{"name":"E4","midi":64,"time":108.05833333333254,"velocity":0.6062992125984252,"duration":0.09166666666666856},{"name":"D4","midi":62,"time":108.14999999999921,"velocity":0.6062992125984252,"duration":0.09583333333333144},{"name":"D5","midi":74,"time":108.24791666666587,"velocity":0.5511811023622047,"duration":0.18958333333333144},{"name":"C#4","midi":61,"time":108.2499999999992,"velocity":0.6062992125984252,"duration":0.09166666666666856},{"name":"B3","midi":59,"time":108.3437499999992,"velocity":0.6062992125984252,"duration":0.09166666666666856},{"name":"C#5","midi":73,"time":108.4374999999992,"velocity":0.5511811023622047,"duration":0.19166666666666288},{"name":"A3","midi":57,"time":108.43958333333254,"velocity":0.6062992125984252,"duration":0.09166666666666856},{"name":"B3","midi":59,"time":108.53333333333254,"velocity":0.6062992125984252,"duration":0.09375},{"name":"A5","midi":81,"time":108.62916666666587,"velocity":0.47244094488188976,"duration":0.18958333333333144},{"name":"C#4","midi":61,"time":108.6312499999992,"velocity":0.6062992125984252,"duration":0.09166666666666856},{"name":"A3","midi":57,"time":108.72291666666587,"velocity":0.6062992125984252,"duration":0.09583333333333144},{"name":"D5","midi":74,"time":108.82083333333253,"velocity":0.5511811023622047,"duration":0.1875},{"name":"G3","midi":55,"time":108.82083333333253,"velocity":0.6062992125984252,"duration":0.09375},{"name":"F#3","midi":54,"time":108.91458333333253,"velocity":0.6062992125984252,"duration":0.09375},{"name":"B4","midi":71,"time":109.01041666666586,"velocity":0.5511811023622047,"duration":0.18958333333333144},{"name":"G3","midi":55,"time":109.01041666666586,"velocity":0.6062992125984252,"duration":0.09375},{"name":"F#3","midi":54,"time":109.10416666666586,"velocity":0.6062992125984252,"duration":0.09583333333333144},{"name":"E5","midi":76,"time":109.19999999999919,"velocity":0.47244094488188976,"duration":0.18958333333333144},{"name":"G3","midi":55,"time":109.20208333333252,"velocity":0.6062992125984252,"duration":0.09166666666666856},{"name":"B3","midi":59,"time":109.29583333333252,"velocity":0.6062992125984252,"duration":0.09166666666666856},{"name":"C#5","midi":73,"time":109.38958333333252,"velocity":0.5511811023622047,"duration":0.18958333333333144},{"name":"A3","midi":57,"time":109.39166666666586,"velocity":0.6062992125984252,"duration":0.09166666666666856},{"name":"G3","midi":55,"time":109.48541666666586,"velocity":0.6062992125984252,"duration":0.09166666666666856},{"name":"D5","midi":74,"time":109.57916666666586,"velocity":0.5511811023622047,"duration":0.18958333333333144},{"name":"F#3","midi":54,"time":109.58124999999919,"velocity":0.6062992125984252,"duration":0.09375},{"name":"G3","midi":55,"time":109.67499999999919,"velocity":0.6062992125984252,"duration":0.09375},{"name":"A3","midi":57,"time":109.77083333333252,"velocity":0.6062992125984252,"duration":0.18958333333333144},{"name":"F#3","midi":54,"time":109.86458333333252,"velocity":0.6062992125984252,"duration":0.09375},{"name":"D4","midi":62,"time":109.96041666666585,"velocity":0.6062992125984252,"duration":0.3812499999999943},{"name":"E3","midi":52,"time":109.96041666666585,"velocity":0.6062992125984252,"duration":0.09375},{"name":"D3","midi":50,"time":110.05416666666585,"velocity":0.6062992125984252,"duration":0.09583333333333144},{"name":"A3","midi":57,"time":110.14999999999918,"velocity":0.6062992125984252,"duration":0.2854166666666629},{"name":"C#4","midi":61,"time":110.34166666666584,"velocity":0.6062992125984252,"duration":0.19166666666666288},{"name":"E4","midi":64,"time":110.34166666666584,"velocity":0.6062992125984252,"duration":0.19374999999999432},{"name":"F#3","midi":54,"time":110.43749999999918,"velocity":0.6062992125984252,"duration":0.09583333333333144},{"name":"A4","midi":69,"time":110.53541666666584,"velocity":0.5511811023622047,"duration":0.18958333333333144},{"name":"F#4","midi":66,"time":110.53749999999917,"velocity":0.6062992125984252,"duration":0.17291666666666572},{"name":"G3","midi":55,"time":110.53749999999917,"velocity":0.6062992125984252,"duration":0.08958333333333712},{"name":"A3","midi":57,"time":110.62708333333251,"velocity":0.6062992125984252,"duration":0.09583333333333144},{"name":"F#4","midi":66,"time":110.72499999999917,"velocity":0.6062992125984252,"duration":0.18958333333333144},{"name":"D4","midi":62,"time":110.72499999999917,"velocity":0.6062992125984252,"duration":0.19374999999999432},{"name":"B3","midi":59,"time":110.7270833333325,"velocity":0.6062992125984252,"duration":0.09375},{"name":"A3","midi":57,"time":110.82291666666583,"velocity":0.6062992125984252,"duration":0.09375},{"name":"B4","midi":71,"time":110.91874999999916,"velocity":0.5511811023622047,"duration":0.19374999999999432},{"name":"G3","midi":55,"time":110.9208333333325,"velocity":0.6062992125984252,"duration":0.09166666666666856},{"name":"G4","midi":67,"time":110.9208333333325,"velocity":0.6062992125984252,"duration":0.19166666666666288},{"name":"B3","midi":59,"time":111.0145833333325,"velocity":0.6062992125984252,"duration":0.09583333333333144},{"name":"C#5","midi":73,"time":111.11458333333249,"velocity":0.5511811023622047,"duration":0.3812499999999943},{"name":"E4","midi":64,"time":111.11458333333249,"velocity":0.6062992125984252,"duration":0.18958333333333144},{"name":"A3","midi":57,"time":111.11666666666582,"velocity":0.6062992125984252,"duration":0.08958333333333712},{"name":"G3","midi":55,"time":111.20833333333249,"velocity":0.6062992125984252,"duration":0.09375},{"name":"A4","midi":69,"time":111.30416666666582,"velocity":0.5511811023622047,"duration":0.18958333333333144},{"name":"F#3","midi":54,"time":111.30624999999915,"velocity":0.6062992125984252,"duration":0.09375},{"name":"E3","midi":52,"time":111.39999999999915,"velocity":0.6062992125984252,"duration":0.09375},{"name":"D5","midi":74,"time":111.49583333333248,"velocity":0.5511811023622047,"duration":0.18958333333333144},{"name":"D3","midi":50,"time":111.49791666666582,"velocity":0.6062992125984252,"duration":0.08958333333333712},{"name":"F#4","midi":66,"time":111.49791666666582,"velocity":0.6062992125984252,"duration":0.18541666666666856},{"name":"F#3","midi":54,"time":111.58749999999915,"velocity":0.6062992125984252,"duration":0.09583333333333144},{"name":"G5","midi":79,"time":111.68541666666582,"velocity":0.47244094488188976,"duration":0.37708333333333144},{"name":"B4","midi":71,"time":111.68749999999915,"velocity":0.5511811023622047,"duration":0.18541666666666856},{"name":"E3","midi":52,"time":111.68749999999915,"velocity":0.6062992125984252,"duration":0.08958333333333712},{"name":"D3","midi":50,"time":111.77708333333248,"velocity":0.6062992125984252,"duration":0.09375},{"name":"A4","midi":69,"time":111.87291666666582,"velocity":0.5511811023622047,"duration":0.18958333333333144},{"name":"C#3","midi":49,"time":111.87499999999915,"velocity":0.6062992125984252,"duration":0.08958333333333712},{"name":"A2","midi":45,"time":111.96666666666582,"velocity":0.6062992125984252,"duration":0.09375},{"name":"F#5","midi":78,"time":112.06458333333248,"velocity":0.47244094488188976,"duration":0.1875},{"name":"D5","midi":74,"time":112.06458333333248,"velocity":0.5511811023622047,"duration":0.1875},{"name":"B2","midi":47,"time":112.06666666666581,"velocity":0.6062992125984252,"duration":0.08750000000000568},{"name":"C#3","midi":49,"time":112.15624999999915,"velocity":0.6062992125984252,"duration":0.09375},{"name":"E5","midi":76,"time":112.25416666666581,"velocity":0.47244094488188976,"duration":0.1875},{"name":"G4","midi":67,"time":112.25416666666581,"velocity":0.6062992125984252,"duration":0.3791666666666629},{"name":"D3","midi":50,"time":112.25624999999914,"velocity":0.6062992125984252,"duration":0.08958333333333712},{"name":"E3","midi":52,"time":112.34583333333248,"velocity":0.6062992125984252,"duration":0.09583333333333144},{"name":"A4","midi":69,"time":112.44374999999914,"velocity":0.5511811023622047,"duration":0.1875},{"name":"F#3","midi":54,"time":112.44374999999914,"velocity":0.6062992125984252,"duration":0.09375},{"name":"G3","midi":55,"time":112.53749999999914,"velocity":0.6062992125984252,"duration":0.09375},{"name":"D5","midi":74,"time":112.63333333333247,"velocity":0.5511811023622047,"duration":0.19166666666666288},{"name":"F#4","midi":66,"time":112.6354166666658,"velocity":0.6062992125984252,"duration":0.18958333333333144},{"name":"A3","midi":57,"time":112.6354166666658,"velocity":0.6062992125984252,"duration":0.09166666666666856},{"name":"F#3","midi":54,"time":112.72708333333247,"velocity":0.6062992125984252,"duration":0.09583333333333144},{"name":"C#5","midi":73,"time":112.82499999999914,"velocity":0.5511811023622047,"duration":0.19166666666666288},{"name":"E4","midi":64,"time":112.82708333333247,"velocity":0.6062992125984252,"duration":0.18958333333333144},{"name":"G3","midi":55,"time":112.82708333333247,"velocity":0.6062992125984252,"duration":0.09166666666666856},{"name":"A3","midi":57,"time":112.92083333333247,"velocity":0.6062992125984252,"duration":0.09375},{"name":"D5","midi":74,"time":113.01874999999913,"velocity":0.5511811023622047,"duration":0.18541666666666856},{"name":"F#4","midi":66,"time":113.01874999999913,"velocity":0.6062992125984252,"duration":0.18541666666666856},{"name":"D3","midi":50,"time":113.02083333333246,"velocity":0.6062992125984252,"duration":0.18125000000000568},{"name":"F#5","midi":78,"time":113.20624999999913,"velocity":0.47244094488188976,"duration":0.09166666666666856},{"name":"E5","midi":76,"time":113.2979166666658,"velocity":0.47244094488188976,"duration":0.09166666666666856},{"name":"D5","midi":74,"time":113.38958333333247,"velocity":0.5511811023622047,"duration":0.09375},{"name":"C#5","midi":73,"time":113.48333333333247,"velocity":0.5511811023622047,"duration":0.09166666666666856},{"name":"B4","midi":71,"time":113.57499999999914,"velocity":0.5511811023622047,"duration":0.18958333333333144},{"name":"D5","midi":74,"time":113.66874999999914,"velocity":0.5511811023622047,"duration":0.09375},{"name":"E5","midi":76,"time":113.76458333333247,"velocity":0.47244094488188976,"duration":0.5624999999999858},{"name":"C#5","midi":73,"time":113.7666666666658,"velocity":0.5511811023622047,"duration":0.09583333333333144},{"name":"C#3","midi":49,"time":113.7666666666658,"velocity":0.6062992125984252,"duration":0.18333333333333712},{"name":"B4","midi":71,"time":113.85624999999914,"velocity":0.5511811023622047,"duration":0.10208333333332575},{"name":"A#4","midi":70,"time":113.94999999999914,"velocity":0.5511811023622047,"duration":0.09374999999998579},{"name":"F#3","midi":54,"time":113.95208333333247,"velocity":0.6062992125984252,"duration":0.18541666666665435},{"name":"G#4","midi":68,"time":114.04374999999912,"velocity":0.5511811023622047,"duration":0.09375},{"name":"D3","midi":50,"time":114.13958333333245,"velocity":0.6062992125984252,"duration":0.18541666666666856},{"name":"F#4","midi":66,"time":114.13958333333245,"velocity":0.6062992125984252,"duration":0.09166666666666856},{"name":"C#5","midi":73,"time":114.23124999999912,"velocity":0.5511811023622047,"duration":0.09375},{"name":"D5","midi":74,"time":114.32708333333245,"velocity":0.5511811023622047,"duration":0.5666666666666629},{"name":"B4","midi":71,"time":114.32916666666578,"velocity":0.5511811023622047,"duration":0.09166666666666856},{"name":"G3","midi":55,"time":114.32916666666578,"velocity":0.6062992125984252,"duration":0.1875},{"name":"A4","midi":69,"time":114.42083333333245,"velocity":0.5511811023622047,"duration":0.09375},{"name":"E3","midi":52,"time":114.51666666666578,"velocity":0.6062992125984252,"duration":0.18541666666666856},{"name":"G4","midi":67,"time":114.51874999999912,"velocity":0.6062992125984252,"duration":0.08958333333333712},{"name":"F#4","midi":66,"time":114.61041666666578,"velocity":0.6062992125984252,"duration":0.08958333333333712},{"name":"E4","midi":64,"time":114.70416666666578,"velocity":0.6062992125984252,"duration":0.09375},{"name":"A#3","midi":58,"time":114.70416666666578,"velocity":0.6062992125984252,"duration":0.18958333333333144},{"name":"B4","midi":71,"time":114.79791666666578,"velocity":0.5511811023622047,"duration":0.09375},{"name":"C#5","midi":73,"time":114.89374999999912,"velocity":0.5511811023622047,"duration":0.37708333333333144},{"name":"A#4","midi":70,"time":114.89583333333245,"velocity":0.5511811023622047,"duration":0.09583333333333144},{"name":"F#3","midi":54,"time":114.89583333333245,"velocity":0.6062992125984252,"duration":0.18333333333333712},{"name":"G#4","midi":68,"time":114.98541666666578,"velocity":0.5511811023622047,"duration":0.09999999999999432},{"name":"B3","midi":59,"time":115.07916666666578,"velocity":0.6062992125984252,"duration":0.18958333333333144},{"name":"F#4","midi":66,"time":115.08124999999912,"velocity":0.6062992125984252,"duration":0.09375},{"name":"E4","midi":64,"time":115.17499999999912,"velocity":0.6062992125984252,"duration":0.09375},{"name":"D4","midi":62,"time":115.27083333333245,"velocity":0.6062992125984252,"duration":0.18541666666666856},{"name":"G#3","midi":56,"time":115.27083333333245,"velocity":0.6062992125984252,"duration":0.18541666666666856},{"name":"B4","midi":71,"time":115.36458333333245,"velocity":0.5511811023622047,"duration":0.09166666666666856},{"name":"A#4","midi":70,"time":115.45833333333245,"velocity":0.5511811023622047,"duration":0.09166666666666856},{"name":"C#4","midi":61,"time":115.46041666666578,"velocity":0.6062992125984252,"duration":0.3604166666666657},{"name":"B4","midi":71,"time":115.54999999999912,"velocity":0.5511811023622047,"duration":0.09583333333333144},{"name":"C#5","midi":73,"time":115.64791666666578,"velocity":0.5511811023622047,"duration":0.08958333333333712},{"name":"A#3","midi":58,"time":115.64791666666578,"velocity":0.6062992125984252,"duration":0.1875},{"name":"D5","midi":74,"time":115.73958333333245,"velocity":0.5511811023622047,"duration":0.09375},{"name":"E5","midi":76,"time":115.83541666666578,"velocity":0.47244094488188976,"duration":0.09375},{"name":"D4","midi":62,"time":115.83749999999911,"velocity":0.6062992125984252,"duration":0.1875},{"name":"D5","midi":74,"time":115.93124999999911,"velocity":0.5511811023622047,"duration":0.09375},{"name":"E5","midi":76,"time":116.02499999999911,"velocity":0.47244094488188976,"duration":0.09375},{"name":"B4","midi":71,"time":116.02708333333244,"velocity":0.5511811023622047,"duration":0.3791666666666771},{"name":"B3","midi":59,"time":116.02708333333244,"velocity":0.6062992125984252,"duration":0.1875},{"name":"F#5","midi":78,"time":116.11874999999911,"velocity":0.47244094488188976,"duration":0.09583333333333144},{"name":"G5","midi":79,"time":116.21666666666577,"velocity":0.47244094488188976,"duration":0.10208333333333997},{"name":"E4","midi":64,"time":116.21666666666577,"velocity":0.6062992125984252,"duration":0.3854166666666714},{"name":"E5","midi":76,"time":116.31041666666577,"velocity":0.47244094488188976,"duration":0.1041666666666714},{"name":"A#5","midi":82,"time":116.40833333333245,"velocity":0.47244094488188976,"duration":0.09583333333333144},{"name":"C#5","midi":73,"time":116.40833333333245,"velocity":0.5511811023622047,"duration":0.19583333333332575},{"name":"F#5","midi":78,"time":116.50416666666578,"velocity":0.47244094488188976,"duration":0.09791666666666288},{"name":"B5","midi":83,"time":116.60416666666578,"velocity":0.47244094488188976,"duration":0.09583333333333144},{"name":"F#4","midi":66,"time":116.60624999999911,"velocity":0.6062992125984252,"duration":0.38958333333332007},{"name":"D4","midi":62,"time":116.60624999999911,"velocity":0.6062992125984252,"duration":0.19374999999999432},{"name":"A5","midi":81,"time":116.69999999999911,"velocity":0.47244094488188976,"duration":0.09791666666666288},{"name":"G5","midi":79,"time":116.7999999999991,"velocity":0.47244094488188976,"duration":0.09583333333333144},{"name":"C#4","midi":61,"time":116.7999999999991,"velocity":0.6062992125984252,"duration":0.19583333333332575},{"name":"F#5","midi":78,"time":116.89791666666576,"velocity":0.47244094488188976,"duration":0.09583333333333144},{"name":"E5","midi":76,"time":116.99791666666576,"velocity":0.47244094488188976,"duration":0.09166666666666856},{"name":"G4","midi":67,"time":116.99791666666576,"velocity":0.6062992125984252,"duration":0.19166666666666288},{"name":"B3","midi":59,"time":116.99999999999909,"velocity":0.6062992125984252,"duration":0.18958333333333144},{"name":"D5","midi":74,"time":117.09166666666576,"velocity":0.5511811023622047,"duration":0.09583333333333144},{"name":"C#5","midi":73,"time":117.19166666666575,"velocity":0.5511811023622047,"duration":0.09375},{"name":"E4","midi":64,"time":117.19166666666575,"velocity":0.6062992125984252,"duration":0.19166666666666288},{"name":"G3","midi":55,"time":117.19374999999908,"velocity":0.6062992125984252,"duration":0.18958333333333144},{"name":"B4","midi":71,"time":117.28749999999908,"velocity":0.5511811023622047,"duration":0.09375},{"name":"A#4","midi":70,"time":117.38541666666575,"velocity":0.5511811023622047,"duration":0.09375},{"name":"F#4","midi":66,"time":117.38541666666575,"velocity":0.6062992125984252,"duration":0.19374999999999432},{"name":"D3","midi":50,"time":117.38749999999908,"velocity":0.6062992125984252,"duration":0.19166666666666288},{"name":"B4","midi":71,"time":117.48124999999908,"velocity":0.5511811023622047,"duration":0.09583333333333144},{"name":"G5","midi":79,"time":117.58124999999907,"velocity":0.47244094488188976,"duration":0.09375},{"name":"B3","midi":59,"time":117.58124999999907,"velocity":0.6062992125984252,"duration":0.19374999999999432},{"name":"E3","midi":52,"time":117.5833333333324,"velocity":0.6062992125984252,"duration":0.19166666666666288},{"name":"F#5","midi":78,"time":117.6770833333324,"velocity":0.47244094488188976,"duration":0.09791666666666288},{"name":"E5","midi":76,"time":117.7770833333324,"velocity":0.47244094488188976,"duration":0.09583333333333144},{"name":"A#3","midi":58,"time":117.7770833333324,"velocity":0.6062992125984252,"duration":0.38958333333332007},{"name":"F#3","midi":54,"time":117.77916666666573,"velocity":0.6062992125984252,"duration":0.19166666666666288},{"name":"D5","midi":74,"time":117.87291666666573,"velocity":0.5511811023622047,"duration":0.09791666666666288},{"name":"C#5","midi":73,"time":117.97291666666572,"velocity":0.5511811023622047,"duration":0.09375},{"name":"F#2","midi":42,"time":117.97291666666572,"velocity":0.6062992125984252,"duration":0.19166666666666288},{"name":"B4","midi":71,"time":118.06666666666572,"velocity":0.5511811023622047,"duration":0.09791666666666288},{"name":"B4","midi":71,"time":118.16666666666572,"velocity":0.5511811023622047,"duration":0.19166666666666288},{"name":"B2","midi":47,"time":118.16874999999905,"velocity":0.6062992125984252,"duration":0.09166666666666856},{"name":"F#3","midi":54,"time":118.26041666666572,"velocity":0.6062992125984252,"duration":0.09791666666666288},{"name":"D5","midi":74,"time":118.36041666666571,"velocity":0.5511811023622047,"duration":0.5791666666666515},{"name":"F#4","midi":66,"time":118.36041666666571,"velocity":0.6062992125984252,"duration":0.19374999999999432},{"name":"B3","midi":59,"time":118.36249999999905,"velocity":0.6062992125984252,"duration":0.09375},{"name":"A3","midi":57,"time":118.45624999999905,"velocity":0.6062992125984252,"duration":0.09791666666666288},{"name":"B4","midi":71,"time":118.55624999999904,"velocity":0.5511811023622047,"duration":0.19166666666666288},{"name":"G#3","midi":56,"time":118.55624999999904,"velocity":0.6062992125984252,"duration":0.09375},{"name":"F#3","midi":54,"time":118.64999999999904,"velocity":0.6062992125984252,"duration":0.09583333333333144},{"name":"G#4","midi":68,"time":118.7479166666657,"velocity":0.5511811023622047,"duration":0.7708333333333144},{"name":"E3","midi":52,"time":118.74999999999903,"velocity":0.6062992125984252,"duration":0.09166666666666856},{"name":"F#3","midi":54,"time":118.84374999999903,"velocity":0.6062992125984252,"duration":0.09375},{"name":"B4","midi":71,"time":118.93958333333237,"velocity":0.5511811023622047,"duration":0.19166666666666288},{"name":"E3","midi":52,"time":118.9416666666657,"velocity":0.6062992125984252,"duration":0.09375},{"name":"D3","midi":50,"time":119.0354166666657,"velocity":0.6062992125984252,"duration":0.09375},{"name":"E5","midi":76,"time":119.13124999999903,"velocity":0.47244094488188976,"duration":0.19374999999999432},{"name":"C#3","midi":49,"time":119.13333333333236,"velocity":0.6062992125984252,"duration":0.09166666666666856},{"name":"B2","midi":47,"time":119.22708333333236,"velocity":0.6062992125984252,"duration":0.09791666666666288},{"name":"C#5","midi":73,"time":119.32499999999902,"velocity":0.5511811023622047,"duration":0.19166666666666288},{"name":"A2","midi":45,"time":119.32708333333235,"velocity":0.6062992125984252,"duration":0.09375},{"name":"B2","midi":47,"time":119.42083333333235,"velocity":0.6062992125984252,"duration":0.09583333333333144},{"name":"F#5","midi":78,"time":119.51874999999902,"velocity":0.47244094488188976,"duration":0.19374999999999432},{"name":"C#5","midi":73,"time":119.52083333333235,"velocity":0.5511811023622047,"duration":0.19166666666666288},{"name":"A2","midi":45,"time":119.52083333333235,"velocity":0.6062992125984252,"duration":0.09375},{"name":"G#2","midi":44,"time":119.61458333333235,"velocity":0.6062992125984252,"duration":0.09583333333333144},{"name":"A4","midi":69,"time":119.71249999999901,"velocity":0.5669291338582677,"duration":0.3854166666666572},{"name":"D#5","midi":75,"time":119.71458333333234,"velocity":0.5669291338582677,"duration":0.18958333333333144},{"name":"F#2","midi":42,"time":119.71458333333234,"velocity":0.6062992125984252,"duration":0.09375},{"name":"E2","midi":40,"time":119.80833333333234,"velocity":0.6062992125984252,"duration":0.09583333333333144},{"name":"B4","midi":71,"time":119.906249999999,"velocity":0.5669291338582677,"duration":0.7541666666666629},{"name":"D#2","midi":39,"time":119.906249999999,"velocity":0.6062992125984252,"duration":0.09375},{"name":"B2","midi":47,"time":119.999999999999,"velocity":0.6062992125984252,"duration":0.09791666666666288},{"name":"G#4","midi":68,"time":120.09791666666567,"velocity":0.5669291338582677,"duration":0.1875},{"name":"E3","midi":52,"time":120.099999999999,"velocity":0.6062992125984252,"duration":0.09166666666666856},{"name":"D#3","midi":51,"time":120.19166666666567,"velocity":0.6062992125984252,"duration":0.09375},{"name":"C#3","midi":49,"time":120.28541666666567,"velocity":0.6062992125984252,"duration":0.09166666666666856},{"name":"D#4","midi":63,"time":120.287499999999,"velocity":0.6062992125984252,"duration":0.18541666666666856},{"name":"B2","midi":47,"time":120.37708333333234,"velocity":0.6062992125984252,"duration":0.09375},{"name":"E4","midi":64,"time":120.47291666666567,"velocity":0.6062992125984252,"duration":0.7520833333333314},{"name":"C#3","midi":49,"time":120.47291666666567,"velocity":0.6062992125984252,"duration":0.09166666666666856},{"name":"G#3","midi":56,"time":120.56666666666567,"velocity":0.6062992125984252,"duration":0.09166666666666856},{"name":"G#4","midi":68,"time":120.66041666666567,"velocity":0.5669291338582677,"duration":0.1875},{"name":"C#4","midi":61,"time":120.662499999999,"velocity":0.6062992125984252,"duration":0.08958333333333712},{"name":"B3","midi":59,"time":120.75416666666567,"velocity":0.6062992125984252,"duration":0.09375},{"name":"C#5","midi":73,"time":120.849999999999,"velocity":0.5669291338582677,"duration":0.18541666666666856},{"name":"A3","midi":57,"time":120.849999999999,"velocity":0.6062992125984252,"duration":0.09166666666666856},{"name":"G#3","midi":56,"time":120.94166666666567,"velocity":0.6062992125984252,"duration":0.09375},{"name":"A4","midi":69,"time":121.037499999999,"velocity":0.5669291338582677,"duration":0.7562499999999943},{"name":"F#3","midi":54,"time":121.037499999999,"velocity":0.6062992125984252,"duration":0.09375},{"name":"G#3","midi":56,"time":121.131249999999,"velocity":0.6062992125984252,"duration":0.09375},{"name":"F#3","midi":54,"time":121.22708333333233,"velocity":0.6062992125984252,"duration":0.09166666666666856},{"name":"C#4","midi":61,"time":121.22708333333233,"velocity":0.6062992125984252,"duration":0.1875},{"name":"E3","midi":52,"time":121.32083333333233,"velocity":0.6062992125984252,"duration":0.09166666666666856},{"name":"D#3","midi":51,"time":121.41458333333233,"velocity":0.6062992125984252,"duration":0.09166666666666856},{"name":"F#4","midi":66,"time":121.41666666666566,"velocity":0.6062992125984252,"duration":0.1875},{"name":"C#3","midi":49,"time":121.50833333333233,"velocity":0.6062992125984252,"duration":0.09375},{"name":"D#4","midi":63,"time":121.60416666666566,"velocity":0.6062992125984252,"duration":0.1875},{"name":"B2","midi":47,"time":121.606249999999,"velocity":0.6062992125984252,"duration":0.09166666666666856},{"name":"C#3","midi":49,"time":121.69791666666566,"velocity":0.6062992125984252,"duration":0.09375},{"name":"B4","midi":71,"time":121.793749999999,"velocity":0.5669291338582677,"duration":0.5562500000000057},{"name":"G#4","midi":68,"time":121.79583333333233,"velocity":0.5669291338582677,"duration":0.18125000000000568},{"name":"B2","midi":47,"time":121.79583333333233,"velocity":0.6062992125984252,"duration":0.08750000000000568},{"name":"A2","midi":45,"time":121.88333333333233,"velocity":0.6062992125984252,"duration":0.09375},{"name":"F4","midi":65,"time":121.97916666666566,"velocity":0.6062992125984252,"duration":0.18541666666666856},{"name":"G#2","midi":44,"time":121.97916666666566,"velocity":0.6062992125984252,"duration":0.09166666666666856},{"name":"F#2","midi":42,"time":122.07291666666566,"velocity":0.6062992125984252,"duration":0.08958333333333712},{"name":"C#4","midi":61,"time":122.16458333333233,"velocity":0.6062992125984252,"duration":0.7520833333333314},{"name":"F2","midi":41,"time":122.16666666666566,"velocity":0.6062992125984252,"duration":0.08750000000000568},{"name":"C#3","midi":49,"time":122.256249999999,"velocity":0.6062992125984252,"duration":0.09375},{"name":"A4","midi":69,"time":122.349999999999,"velocity":0.5669291338582677,"duration":0.1875},{"name":"F#3","midi":54,"time":122.35208333333233,"velocity":0.6062992125984252,"duration":0.08958333333333712},{"name":"E3","midi":52,"time":122.44166666666567,"velocity":0.6062992125984252,"duration":0.09583333333333144},{"name":"F4","midi":65,"time":122.53958333333233,"velocity":0.6062992125984252,"duration":0.1875},{"name":"D3","midi":50,"time":122.53958333333233,"velocity":0.6062992125984252,"duration":0.09166666666666856},{"name":"C#3","midi":49,"time":122.631249999999,"velocity":0.6062992125984252,"duration":0.09583333333333144},{"name":"F#4","midi":66,"time":122.72916666666566,"velocity":0.6062992125984252,"duration":0.7479166666666686},{"name":"D3","midi":50,"time":122.72916666666566,"velocity":0.6062992125984252,"duration":0.09166666666666856},{"name":"E3","midi":52,"time":122.82291666666566,"velocity":0.6062992125984252,"duration":0.09166666666666856},{"name":"D3","midi":50,"time":122.91666666666566,"velocity":0.6062992125984252,"duration":0.08958333333333712},{"name":"A3","midi":57,"time":122.918749999999,"velocity":0.6062992125984252,"duration":0.18333333333333712},{"name":"C#3","midi":49,"time":123.00833333333233,"velocity":0.6062992125984252,"duration":0.09166666666666856},{"name":"D4","midi":62,"time":123.10208333333233,"velocity":0.6062992125984252,"duration":0.1875},{"name":"B2","midi":47,"time":123.10416666666566,"velocity":0.6062992125984252,"duration":0.09166666666666856},{"name":"A2","midi":45,"time":123.19583333333233,"velocity":0.6062992125984252,"duration":0.09375},{"name":"B3","midi":59,"time":123.29166666666566,"velocity":0.6062992125984252,"duration":0.7562499999999943},{"name":"G#2","midi":44,"time":123.29166666666566,"velocity":0.6062992125984252,"duration":0.09166666666666856},{"name":"A2","midi":45,"time":123.38333333333233,"velocity":0.6062992125984252,"duration":0.09375},{"name":"D#4","midi":63,"time":123.47916666666566,"velocity":0.6062992125984252,"duration":0.1875},{"name":"G#2","midi":44,"time":123.47916666666566,"velocity":0.6062992125984252,"duration":0.09166666666666856},{"name":"F#2","midi":42,"time":123.57291666666566,"velocity":0.6062992125984252,"duration":0.09166666666666856},{"name":"G#4","midi":68,"time":123.66666666666566,"velocity":0.5669291338582677,"duration":0.19166666666666288},{"name":"F2","midi":41,"time":123.668749999999,"velocity":0.6062992125984252,"duration":0.09166666666666856},{"name":"D#2","midi":39,"time":123.762499999999,"velocity":0.6062992125984252,"duration":0.09375},{"name":"F4","midi":65,"time":123.85833333333233,"velocity":0.6062992125984252,"duration":0.09166666666666856},{"name":"C#2","midi":37,"time":123.86041666666566,"velocity":0.6062992125984252,"duration":0.18541666666666856},{"name":"C#4","midi":61,"time":123.95208333333233,"velocity":0.6062992125984252,"duration":0.09375},{"name":"D#4","midi":63,"time":124.04791666666566,"velocity":0.6062992125984252,"duration":0.09375},{"name":"A3","midi":57,"time":124.04999999999899,"velocity":0.6062992125984252,"duration":0.1875},{"name":"A2","midi":45,"time":124.04999999999899,"velocity":0.6062992125984252,"duration":0.18541666666666856},{"name":"F4","midi":65,"time":124.14166666666566,"velocity":0.6062992125984252,"duration":0.09375},{"name":"F#4","midi":66,"time":124.23749999999899,"velocity":0.6062992125984252,"duration":0.09375},{"name":"B3","midi":59,"time":124.23958333333232,"velocity":0.6062992125984252,"duration":0.18958333333333144},{"name":"D3","midi":50,"time":124.23958333333232,"velocity":0.6062992125984252,"duration":0.1875},{"name":"G#4","midi":68,"time":124.33124999999899,"velocity":0.5669291338582677,"duration":0.09583333333333144},{"name":"A4","midi":69,"time":124.42916666666565,"velocity":0.5669291338582677,"duration":0.09166666666666856},{"name":"C#3","midi":49,"time":124.43124999999898,"velocity":0.6062992125984252,"duration":0.1875},{"name":"F3","midi":53,"time":124.43124999999898,"velocity":0.6062992125984252,"duration":0.1875},{"name":"F#4","midi":66,"time":124.52291666666565,"velocity":0.6062992125984252,"duration":0.09583333333333144},{"name":"G#4","midi":68,"time":124.62083333333231,"velocity":0.5669291338582677,"duration":0.09166666666666856},{"name":"F#3","midi":54,"time":124.62083333333231,"velocity":0.6062992125984252,"duration":0.18541666666666856},{"name":"A4","midi":69,"time":124.71249999999898,"velocity":0.5669291338582677,"duration":0.09375},{"name":"B4","midi":71,"time":124.80624999999898,"velocity":0.5669291338582677,"duration":0.09375},{"name":"D#3","midi":51,"time":124.80833333333231,"velocity":0.6062992125984252,"duration":0.1875},{"name":"C#5","midi":73,"time":124.90208333333231,"velocity":0.5669291338582677,"duration":0.09375},{"name":"D5","midi":74,"time":124.99791666666565,"velocity":0.5669291338582677,"duration":0.09375},{"name":"G#3","midi":56,"time":124.99999999999898,"velocity":0.6062992125984252,"duration":0.18958333333333144},{"name":"B4","midi":71,"time":125.09166666666565,"velocity":0.5669291338582677,"duration":0.09583333333333144},{"name":"C#5","midi":73,"time":125.18958333333231,"velocity":0.5669291338582677,"duration":0.09375},{"name":"F3","midi":53,"time":125.19166666666564,"velocity":0.6062992125984252,"duration":0.1875},{"name":"D#5","midi":75,"time":125.28541666666564,"velocity":0.5669291338582677,"duration":0.09166666666666856},{"name":"F5","midi":77,"time":125.37916666666564,"velocity":0.4881889763779528,"duration":0.09583333333333144},{"name":"A3","midi":57,"time":125.38124999999897,"velocity":0.6062992125984252,"duration":0.18958333333333144},{"name":"F#5","midi":78,"time":125.47499999999897,"velocity":0.4881889763779528,"duration":0.09583333333333144},{"name":"D5","midi":74,"time":125.57291666666563,"velocity":0.5669291338582677,"duration":0.09166666666666856},{"name":"F#3","midi":54,"time":125.57291666666563,"velocity":0.6062992125984252,"duration":0.18541666666666856},{"name":"E5","midi":76,"time":125.6645833333323,"velocity":0.4881889763779528,"duration":0.09375},{"name":"D5","midi":74,"time":125.76041666666563,"velocity":0.5669291338582677,"duration":0.09375},{"name":"B3","midi":59,"time":125.76041666666563,"velocity":0.6062992125984252,"duration":0.18958333333333144},{"name":"C#5","midi":73,"time":125.85416666666563,"velocity":0.5669291338582677,"duration":0.09375},{"name":"B4","midi":71,"time":125.94999999999897,"velocity":0.5669291338582677,"duration":0.09166666666666856},{"name":"G#3","midi":56,"time":125.94999999999897,"velocity":0.6062992125984252,"duration":0.1875},{"name":"A4","midi":69,"time":126.04374999999897,"velocity":0.5669291338582677,"duration":0.09166666666666856},{"name":"G#4","midi":68,"time":126.13749999999897,"velocity":0.5669291338582677,"duration":0.09375},{"name":"C#4","midi":61,"time":126.1395833333323,"velocity":0.6062992125984252,"duration":0.1875},{"name":"B4","midi":71,"time":126.2333333333323,"velocity":0.5669291338582677,"duration":0.09166666666666856},{"name":"A4","midi":69,"time":126.3270833333323,"velocity":0.5669291338582677,"duration":0.09583333333333144},{"name":"A3","midi":57,"time":126.32916666666563,"velocity":0.6062992125984252,"duration":0.18958333333333144},{"name":"G#4","midi":68,"time":126.42291666666563,"velocity":0.5669291338582677,"duration":0.09583333333333144},{"name":"D4","midi":62,"time":126.52083333333229,"velocity":0.6062992125984252,"duration":0.2916666666666572},{"name":"F#4","midi":66,"time":126.52083333333229,"velocity":0.6062992125984252,"duration":0.09375},{"name":"F4","midi":65,"time":126.61458333333229,"velocity":0.6062992125984252,"duration":0.09791666666666288},{"name":"B4","midi":71,"time":126.71249999999895,"velocity":0.5669291338582677,"duration":0.71875},{"name":"E4","midi":64,"time":126.81249999999895,"velocity":0.6062992125984252,"duration":0.10208333333333997},{"name":"G#4","midi":68,"time":126.91458333333229,"velocity":0.5669291338582677,"duration":0.20624999999999716},{"name":"D4","midi":62,"time":126.91666666666562,"velocity":0.6062992125984252,"duration":0.09999999999999432},{"name":"C#4","midi":61,"time":127.01666666666561,"velocity":0.6062992125984252,"duration":0.1041666666666714},{"name":"B3","midi":59,"time":127.12291666666562,"velocity":0.6062992125984252,"duration":0.10208333333333997},{"name":"D#4","midi":63,"time":127.12291666666562,"velocity":0.6062992125984252,"duration":0.20625000000001137},{"name":"A3","midi":57,"time":127.22499999999896,"velocity":0.6062992125984252,"duration":0.10208333333333997},{"name":"G#3","midi":56,"time":127.32916666666563,"velocity":0.6062992125984252,"duration":0.21041666666666003},{"name":"F4","midi":65,"time":127.33124999999896,"velocity":0.6062992125984252,"duration":0.2083333333333286},{"name":"A4","midi":69,"time":127.43333333333229,"velocity":0.5669291338582677,"duration":0.1041666666666714},{"name":"B4","midi":71,"time":127.54166666666562,"velocity":0.5669291338582677,"duration":0.09999999999999432},{"name":"C#4","midi":61,"time":127.54166666666562,"velocity":0.6062992125984252,"duration":0.2041666666666515},{"name":"F3","midi":53,"time":127.54374999999895,"velocity":0.6062992125984252,"duration":0.20208333333332007},{"name":"G#4","midi":68,"time":127.64374999999895,"velocity":0.5669291338582677,"duration":0.09999999999999432},{"name":"A4","midi":69,"time":127.7479166666656,"velocity":0.5669291338582677,"duration":0.3062499999999915},{"name":"F#4","midi":66,"time":127.7479166666656,"velocity":0.6062992125984252,"duration":0.4124999999999801},{"name":"F#3","midi":54,"time":127.74999999999893,"velocity":0.6062992125984252,"duration":0.20000000000000284},{"name":"B2","midi":47,"time":127.94999999999894,"velocity":0.6062992125984252,"duration":0.20833333333331439},{"name":"B4","midi":71,"time":128.0541666666656,"velocity":0.5669291338582677,"duration":0.10416666666665719},{"name":"G#4","midi":68,"time":128.16041666666558,"velocity":0.5669291338582677,"duration":0.31041666666666856},{"name":"F4","midi":65,"time":128.16249999999891,"velocity":0.6062992125984252,"duration":0.4124999999999943},{"name":"C#3","midi":49,"time":128.16249999999891,"velocity":0.6062992125984252,"duration":0.20416666666667993},{"name":"C#2","midi":37,"time":128.3666666666656,"velocity":0.6062992125984252,"duration":0.20833333333331439},{"name":"F#4","midi":66,"time":128.47083333333225,"velocity":0.6062992125984252,"duration":0.10416666666665719},{"name":"F#4","midi":66,"time":128.57708333333224,"velocity":0.6062992125984252,"duration":0.19583333333332575},{"name":"F#2","midi":42,"time":128.57708333333224,"velocity":0.6062992125984252,"duration":0.19583333333332575},{"name":"C#4","midi":61,"time":128.7749999999989,"velocity":0.6062992125984252,"duration":0.19583333333332575},{"name":"A2","midi":45,"time":128.7749999999989,"velocity":0.6062992125984252,"duration":0.19583333333332575},{"name":"F#4","midi":66,"time":128.97291666666555,"velocity":0.6062992125984252,"duration":0.19374999999999432},{"name":"F#2","midi":42,"time":128.97291666666555,"velocity":0.6062992125984252,"duration":0.19374999999999432},{"name":"C#3","midi":49,"time":129.16874999999888,"velocity":0.6062992125984252,"duration":0.3916666666666515},{"name":"E4","midi":64,"time":129.16874999999888,"velocity":0.6062992125984252,"duration":0.3916666666666515},{"name":"G#3","midi":56,"time":129.36249999999887,"velocity":0.6062992125984252,"duration":0.19583333333332575},{"name":"A4","midi":69,"time":129.56041666666553,"velocity":0.5669291338582677,"duration":0.19374999999999432},{"name":"C#4","midi":61,"time":129.56249999999886,"velocity":0.6062992125984252,"duration":0.19166666666666288},{"name":"A2","midi":45,"time":129.56249999999886,"velocity":0.6062992125984252,"duration":0.18958333333333144},{"name":"F#4","midi":66,"time":129.75416666666553,"velocity":0.6062992125984252,"duration":0.19374999999999432},{"name":"A3","midi":57,"time":129.75624999999886,"velocity":0.6062992125984252,"duration":0.19166666666666288},{"name":"D3","midi":50,"time":129.75624999999886,"velocity":0.6062992125984252,"duration":0.19166666666666288},{"name":"B4","midi":71,"time":129.94999999999885,"velocity":0.5669291338582677,"duration":0.19374999999999432},{"name":"D4","midi":62,"time":129.94999999999885,"velocity":0.6062992125984252,"duration":0.19166666666666288},{"name":"B2","midi":47,"time":129.94999999999885,"velocity":0.6062992125984252,"duration":0.19166666666666288},{"name":"G#4","midi":68,"time":130.14374999999885,"velocity":0.5669291338582677,"duration":0.19374999999999432},{"name":"B3","midi":59,"time":130.14583333333218,"velocity":0.6062992125984252,"duration":0.18958333333333144},{"name":"E3","midi":52,"time":130.14583333333218,"velocity":0.6062992125984252,"duration":0.18958333333333144},{"name":"C#5","midi":73,"time":130.33749999999884,"velocity":0.5669291338582677,"duration":0.19166666666666288},{"name":"E4","midi":64,"time":130.33749999999884,"velocity":0.6062992125984252,"duration":0.18958333333333144},{"name":"C#3","midi":49,"time":130.33958333333217,"velocity":0.6062992125984252,"duration":0.1875},{"name":"A4","midi":69,"time":130.5291666666655,"velocity":0.5669291338582677,"duration":0.19374999999999432},{"name":"C#4","midi":61,"time":130.53124999999883,"velocity":0.6062992125984252,"duration":0.19166666666666288},{"name":"F#3","midi":54,"time":130.53124999999883,"velocity":0.6062992125984252,"duration":0.18958333333333144},{"name":"D5","midi":74,"time":130.72499999999883,"velocity":0.5669291338582677,"duration":0.38749999999998863},{"name":"F#4","midi":66,"time":130.72499999999883,"velocity":0.6062992125984252,"duration":0.19374999999999432},{"name":"D3","midi":50,"time":130.72499999999883,"velocity":0.6062992125984252,"duration":0.19166666666666288},{"name":"A3","midi":57,"time":130.91874999999882,"velocity":0.6062992125984252,"duration":0.19374999999999432},{"name":"E4","midi":64,"time":130.92083333333215,"velocity":0.6062992125984252,"duration":0.18958333333333144},{"name":"C#5","midi":73,"time":131.11458333333215,"velocity":0.5669291338582677,"duration":0.19374999999999432},{"name":"A4","midi":69,"time":131.11458333333215,"velocity":0.5669291338582677,"duration":0.19374999999999432},{"name":"A2","midi":45,"time":131.11666666666548,"velocity":0.6062992125984252,"duration":0.18958333333333144},{"name":"B4","midi":71,"time":131.31041666666547,"velocity":0.5669291338582677,"duration":0.19166666666666288},{"name":"D4","midi":62,"time":131.31041666666547,"velocity":0.6062992125984252,"duration":0.38749999999998863},{"name":"B2","midi":47,"time":131.3124999999988,"velocity":0.6062992125984252,"duration":0.1875},{"name":"E4","midi":64,"time":131.50208333333214,"velocity":0.6062992125984252,"duration":0.19374999999999432},{"name":"C#3","midi":49,"time":131.50416666666547,"velocity":0.6062992125984252,"duration":0.19166666666666288},{"name":"A4","midi":69,"time":131.69791666666546,"velocity":0.5669291338582677,"duration":0.5770833333333201},{"name":"C#4","midi":61,"time":131.6999999999988,"velocity":0.6062992125984252,"duration":0.18958333333333144},{"name":"F#3","midi":54,"time":131.6999999999988,"velocity":0.6062992125984252,"duration":0.18958333333333144},{"name":"D#4","midi":63,"time":131.89166666666546,"velocity":0.6062992125984252,"duration":0.18958333333333144},{"name":"B2","midi":47,"time":131.89166666666546,"velocity":0.6062992125984252,"duration":0.18958333333333144},{"name":"E4","midi":64,"time":132.08333333333212,"velocity":0.6062992125984252,"duration":0.18958333333333144},{"name":"E3","midi":52,"time":132.08333333333212,"velocity":0.6062992125984252,"duration":0.38333333333332575},{"name":"G#4","midi":68,"time":132.27499999999878,"velocity":0.5669291338582677,"duration":0.19166666666666288},{"name":"B3","midi":59,"time":132.27499999999878,"velocity":0.6062992125984252,"duration":0.18958333333333144},{"name":"B4","midi":71,"time":132.46874999999878,"velocity":0.5669291338582677,"duration":0.1875},{"name":"D4","midi":62,"time":132.46874999999878,"velocity":0.6062992125984252,"duration":0.3812499999999943},{"name":"E4","midi":64,"time":132.6583333333321,"velocity":0.6062992125984252,"duration":0.19166666666666288},{"name":"A4","midi":69,"time":132.84999999999877,"velocity":0.5669291338582677,"duration":0.3854166666666572},{"name":"C#3","midi":49,"time":132.8520833333321,"velocity":0.6062992125984252,"duration":0.18958333333333144},{"name":"C#4","midi":61,"time":132.8520833333321,"velocity":0.6062992125984252,"duration":0.18958333333333144},{"name":"F#3","midi":54,"time":133.04374999999877,"velocity":0.6062992125984252,"duration":0.18958333333333144},{"name":"D#4","midi":63,"time":133.04374999999877,"velocity":0.6062992125984252,"duration":0.18958333333333144},{"name":"G#4","midi":68,"time":133.23541666666543,"velocity":0.5669291338582677,"duration":0.18958333333333144},{"name":"E4","midi":64,"time":133.23749999999876,"velocity":0.6062992125984252,"duration":0.3791666666666629},{"name":"E3","midi":52,"time":133.23749999999876,"velocity":0.6062992125984252,"duration":0.18541666666666856},{"name":"C#5","midi":73,"time":133.42499999999876,"velocity":0.5669291338582677,"duration":0.19166666666666288},{"name":"A3","midi":57,"time":133.42499999999876,"velocity":0.6062992125984252,"duration":0.18958333333333144},{"name":"A4","midi":69,"time":133.61874999999876,"velocity":0.5669291338582677,"duration":0.18958333333333144},{"name":"F#4","midi":66,"time":133.61874999999876,"velocity":0.6062992125984252,"duration":0.3812499999999943},{"name":"F#3","midi":54,"time":133.6208333333321,"velocity":0.6062992125984252,"duration":0.18541666666666856},{"name":"D5","midi":74,"time":133.8083333333321,"velocity":0.5669291338582677,"duration":0.5729166666666572},{"name":"B3","midi":59,"time":133.81041666666542,"velocity":0.6062992125984252,"duration":0.18958333333333144},{"name":"B4","midi":71,"time":133.99999999999875,"velocity":0.5669291338582677,"duration":0.18958333333333144},{"name":"G#3","midi":56,"time":134.00208333333208,"velocity":0.6062992125984252,"duration":0.1875},{"name":"E4","midi":64,"time":134.1916666666654,"velocity":0.6062992125984252,"duration":0.3812499999999943},{"name":"C#4","midi":61,"time":134.1916666666654,"velocity":0.6062992125984252,"duration":0.1875},{"name":"C#5","midi":73,"time":134.38124999999874,"velocity":0.5669291338582677,"duration":0.18958333333333144},{"name":"A3","midi":57,"time":134.38124999999874,"velocity":0.6062992125984252,"duration":0.18958333333333144},{"name":"F#5","midi":78,"time":134.5729166666654,"velocity":0.4881889763779528,"duration":0.5708333333333258},{"name":"D4","midi":62,"time":134.5729166666654,"velocity":0.6062992125984252,"duration":0.1875},{"name":"F#3","midi":54,"time":134.7604166666654,"velocity":0.6062992125984252,"duration":0.18958333333333144},{"name":"C#4","midi":61,"time":134.76249999999874,"velocity":0.6062992125984252,"duration":0.1875},{"name":"B3","midi":59,"time":134.95208333333207,"velocity":0.6062992125984252,"duration":0.18958333333333144},{"name":"G#3","midi":56,"time":134.95208333333207,"velocity":0.6062992125984252,"duration":0.19166666666666288},{"name":"E5","midi":76,"time":135.14583333333206,"velocity":0.4881889763779528,"duration":0.18541666666666856},{"name":"G#4","midi":68,"time":135.14583333333206,"velocity":0.5669291338582677,"duration":0.18541666666666856},{"name":"E3","midi":52,"time":135.1479166666654,"velocity":0.6062992125984252,"duration":0.18125000000000568},{"name":"B4","midi":71,"time":135.33333333333206,"velocity":0.5669291338582677,"duration":0.1875},{"name":"D5","midi":74,"time":135.33333333333206,"velocity":0.5669291338582677,"duration":0.375},{"name":"G#3","midi":56,"time":135.3354166666654,"velocity":0.6062992125984252,"duration":0.18541666666666856},{"name":"E4","midi":64,"time":135.5229166666654,"velocity":0.6062992125984252,"duration":0.7479166666666686},{"name":"A3","midi":57,"time":135.5229166666654,"velocity":0.6062992125984252,"duration":0.18541666666666856},{"name":"C#5","midi":73,"time":135.7104166666654,"velocity":0.5669291338582677,"duration":0.5604166666666686},{"name":"A2","midi":45,"time":135.7104166666654,"velocity":0.6062992125984252,"duration":0.1875},{"name":"C#3","midi":49,"time":135.89999999999873,"velocity":0.6062992125984252,"duration":0.18541666666666856},{"name":"D2","midi":38,"time":136.08749999999873,"velocity":0.6062992125984252,"duration":0.375},{"name":"B4","midi":71,"time":136.2729166666654,"velocity":0.5669291338582677,"duration":0.1875},{"name":"D4","midi":62,"time":136.2729166666654,"velocity":0.6062992125984252,"duration":0.1875},{"name":"A4","midi":69,"time":136.46249999999873,"velocity":0.5669291338582677,"duration":0.38333333333332575},{"name":"D3","midi":50,"time":136.46458333333206,"velocity":0.6062992125984252,"duration":0.3791666666666629},{"name":"F#4","midi":66,"time":136.46458333333206,"velocity":0.6062992125984252,"duration":0.1875},{"name":"B3","midi":59,"time":136.65208333333206,"velocity":0.6062992125984252,"duration":0.7562499999999943},{"name":"G#4","midi":68,"time":136.84583333333205,"velocity":0.5669291338582677,"duration":0.1875},{"name":"E3","midi":52,"time":136.84791666666538,"velocity":0.6062992125984252,"duration":0.18333333333333712},{"name":"B4","midi":71,"time":137.03333333333205,"velocity":0.5669291338582677,"duration":0.18958333333333144},{"name":"B2","midi":47,"time":137.03541666666538,"velocity":0.6062992125984252,"duration":0.1875},{"name":"E5","midi":76,"time":137.22499999999872,"velocity":0.4881889763779528,"duration":0.9270833333333428},{"name":"C#3","midi":49,"time":137.22499999999872,"velocity":0.6062992125984252,"duration":0.7437500000000057},{"name":"A3","midi":57,"time":137.40833333333205,"velocity":0.6062992125984252,"duration":0.1875},{"name":"C#4","midi":61,"time":137.59791666666538,"velocity":0.6062992125984252,"duration":0.18333333333333712},{"name":"F#4","midi":66,"time":137.78333333333205,"velocity":0.6062992125984252,"duration":0.5583333333333371},{"name":"F#2","midi":42,"time":137.96874999999872,"velocity":0.6062992125984252,"duration":0.18333333333333712},{"name":"D5","midi":74,"time":138.1541666666654,"velocity":0.5669291338582677,"duration":0.3708333333333371},{"name":"B2","midi":47,"time":138.1541666666654,"velocity":0.6062992125984252,"duration":0.18541666666666856},{"name":"B4","midi":71,"time":138.3416666666654,"velocity":0.5669291338582677,"duration":0.18333333333333712},{"name":"G#2","midi":44,"time":138.34374999999872,"velocity":0.6062992125984252,"duration":0.18125000000000568},{"name":"C#5","midi":73,"time":138.52708333333206,"velocity":0.5669291338582677,"duration":0.5645833333333314},{"name":"E4","midi":64,"time":138.52708333333206,"velocity":0.6062992125984252,"duration":0.18333333333333712},{"name":"A2","midi":45,"time":138.5291666666654,"velocity":0.6062992125984252,"duration":0.3708333333333371},{"name":"A4","midi":69,"time":138.7104166666654,"velocity":0.5669291338582677,"duration":0.18958333333333144},{"name":"F#4","midi":66,"time":138.89999999999873,"velocity":0.6062992125984252,"duration":0.5749999999999886},{"name":"D2","midi":38,"time":138.89999999999873,"velocity":0.6062992125984252,"duration":0.19166666666666288},{"name":"B4","midi":71,"time":139.0916666666654,"velocity":0.5669291338582677,"duration":0.18958333333333144},{"name":"D3","midi":50,"time":139.09374999999872,"velocity":0.6062992125984252,"duration":0.5687499999999943},{"name":"D5","midi":74,"time":139.28333333333205,"velocity":0.5669291338582677,"duration":0.18958333333333144},{"name":"G#4","midi":68,"time":139.47499999999872,"velocity":0.5669291338582677,"duration":0.1875},{"name":"E4","midi":64,"time":139.47499999999872,"velocity":0.6062992125984252,"duration":0.3791666666666629},{"name":"E5","midi":76,"time":139.66458333333205,"velocity":0.4881889763779528,"duration":0.18958333333333144},{"name":"C#3","midi":49,"time":139.66666666666538,"velocity":0.6062992125984252,"duration":0.18541666666666856},{"name":"C#5","midi":73,"time":139.85416666666538,"velocity":0.5669291338582677,"duration":0.18958333333333144},{"name":"A4","midi":69,"time":139.8562499999987,"velocity":0.5669291338582677,"duration":0.3791666666666629},{"name":"F#3","midi":54,"time":139.85833333333204,"velocity":0.6062992125984252,"duration":0.18541666666666856},{"name":"F#5","midi":78,"time":140.04583333333204,"velocity":0.4881889763779528,"duration":0.1875},{"name":"D3","midi":50,"time":140.04583333333204,"velocity":0.6062992125984252,"duration":0.1875},{"name":"B4","midi":71,"time":140.23541666666537,"velocity":0.5669291338582677,"duration":0.37708333333333144},{"name":"A4","midi":69,"time":140.2374999999987,"velocity":0.5669291338582677,"duration":0.1875},{"name":"E3","midi":52,"time":140.2374999999987,"velocity":0.6062992125984252,"duration":0.18541666666666856},{"name":"G#4","midi":68,"time":140.4249999999987,"velocity":0.5669291338582677,"duration":0.1875},{"name":"E2","midi":40,"time":140.4249999999987,"velocity":0.6062992125984252,"duration":0.18541666666666856},{"name":"A4","midi":69,"time":140.61458333333204,"velocity":0.5669291338582677,"duration":0.1833333333333087},{"name":"A2","midi":45,"time":140.61458333333204,"velocity":0.6062992125984252,"duration":0.16874999999998863},{"name":"E5","midi":76,"time":140.79791666666534,"velocity":0.49606299212598426,"duration":0.09166666666666856},{"name":"A2","midi":45,"time":140.79999999999868,"velocity":0.6062992125984252,"duration":0.18125000000000568},{"name":"D5","midi":74,"time":140.889583333332,"velocity":0.5669291338582677,"duration":0.09166666666666856},{"name":"C#5","midi":73,"time":140.983333333332,"velocity":0.5669291338582677,"duration":0.08958333333333712},{"name":"D3","midi":50,"time":140.983333333332,"velocity":0.6062992125984252,"duration":0.18333333333333712},{"name":"B4","midi":71,"time":141.07499999999868,"velocity":0.5669291338582677,"duration":0.08958333333333712},{"name":"A4","midi":69,"time":141.16666666666535,"velocity":0.5669291338582677,"duration":0.08750000000000568},{"name":"C#3","midi":49,"time":141.16874999999868,"velocity":0.6062992125984252,"duration":0.17916666666667425},{"name":"B4","midi":71,"time":141.2562499999987,"velocity":0.5669291338582677,"duration":0.09166666666666856},{"name":"C#5","midi":73,"time":141.3499999999987,"velocity":0.5669291338582677,"duration":0.08750000000000568},{"name":"A3","midi":57,"time":141.3499999999987,"velocity":0.6062992125984252,"duration":0.17916666666667425},{"name":"A4","midi":69,"time":141.4374999999987,"velocity":0.5669291338582677,"duration":0.09166666666666856},{"name":"G4","midi":67,"time":141.5312499999987,"velocity":0.6062992125984252,"duration":0.09375},{"name":"D3","midi":50,"time":141.5312499999987,"velocity":0.6062992125984252,"duration":0.1875},{"name":"F#4","midi":66,"time":141.6249999999987,"velocity":0.6062992125984252,"duration":0.09166666666666856},{"name":"G4","midi":67,"time":141.7187499999987,"velocity":0.6062992125984252,"duration":0.09166666666666856},{"name":"B3","midi":59,"time":141.72083333333202,"velocity":0.6062992125984252,"duration":0.18333333333333712},{"name":"F#4","midi":66,"time":141.8124999999987,"velocity":0.6062992125984252,"duration":0.08958333333333712},{"name":"G4","midi":67,"time":141.90416666666536,"velocity":0.6062992125984252,"duration":0.09375},{"name":"E3","midi":52,"time":141.9062499999987,"velocity":0.6062992125984252,"duration":0.18333333333333712},{"name":"B4","midi":71,"time":141.99791666666536,"velocity":0.5669291338582677,"duration":0.09166666666666856},{"name":"A4","midi":69,"time":142.09166666666536,"velocity":0.5669291338582677,"duration":0.09166666666666856},{"name":"C#4","midi":61,"time":142.09166666666536,"velocity":0.6062992125984252,"duration":0.18333333333333712},{"name":"G4","midi":67,"time":142.18333333333203,"velocity":0.6062992125984252,"duration":0.09166666666666856},{"name":"F#4","midi":66,"time":142.27708333333203,"velocity":0.6062992125984252,"duration":0.19166666666666288},{"name":"D4","midi":62,"time":142.27708333333203,"velocity":0.6062992125984252,"duration":0.09583333333333144},{"name":"C#4","midi":61,"time":142.3749999999987,"velocity":0.6062992125984252,"duration":0.09166666666666856},{"name":"D4","midi":62,"time":142.4687499999987,"velocity":0.6062992125984252,"duration":0.19166666666666288},{"name":"B3","midi":59,"time":142.47083333333202,"velocity":0.6062992125984252,"duration":0.09166666666666856},{"name":"A3","midi":57,"time":142.56458333333202,"velocity":0.6062992125984252,"duration":0.09375},{"name":"A4","midi":69,"time":142.66041666666536,"velocity":0.5669291338582677,"duration":0.18958333333333144},{"name":"G#3","midi":56,"time":142.6624999999987,"velocity":0.6062992125984252,"duration":0.09166666666666856},{"name":"F#3","midi":54,"time":142.7562499999987,"velocity":0.6062992125984252,"duration":0.09375},{"name":"G#4","midi":68,"time":142.8499999999987,"velocity":0.5669291338582677,"duration":0.19166666666666288},{"name":"E3","midi":52,"time":142.85208333333202,"velocity":0.6062992125984252,"duration":0.09375},{"name":"F#3","midi":54,"time":142.94583333333202,"velocity":0.6062992125984252,"duration":0.09583333333333144},{"name":"E5","midi":76,"time":143.04374999999868,"velocity":0.4881889763779528,"duration":0.1875},{"name":"G#3","midi":56,"time":143.04374999999868,"velocity":0.6062992125984252,"duration":0.09375},{"name":"E3","midi":52,"time":143.13749999999868,"velocity":0.6062992125984252,"duration":0.09375},{"name":"A4","midi":69,"time":143.233333333332,"velocity":0.5669291338582677,"duration":0.19166666666666288},{"name":"D3","midi":50,"time":143.233333333332,"velocity":0.6062992125984252,"duration":0.09375},{"name":"C#3","midi":49,"time":143.327083333332,"velocity":0.6062992125984252,"duration":0.09583333333333144},{"name":"F#5","midi":78,"time":143.42499999999868,"velocity":0.4881889763779528,"duration":0.19166666666666288},{"name":"D3","midi":50,"time":143.42499999999868,"velocity":0.6062992125984252,"duration":0.09375},{"name":"C#3","midi":49,"time":143.520833333332,"velocity":0.6062992125984252,"duration":0.09375},{"name":"B4","midi":71,"time":143.61666666666534,"velocity":0.5669291338582677,"duration":0.18958333333333144},{"name":"D3","midi":50,"time":143.61874999999867,"velocity":0.6062992125984252,"duration":0.08958333333333712},{"name":"F#3","midi":54,"time":143.71041666666534,"velocity":0.6062992125984252,"duration":0.09375},{"name":"G#5","midi":80,"time":143.80624999999867,"velocity":0.4881889763779528,"duration":0.19374999999999432},{"name":"E3","midi":52,"time":143.808333333332,"velocity":0.6062992125984252,"duration":0.09166666666666856},{"name":"D3","midi":50,"time":143.902083333332,"velocity":0.6062992125984252,"duration":0.09583333333333144},{"name":"A5","midi":81,"time":143.99999999999866,"velocity":0.4881889763779528,"duration":0.18958333333333144},{"name":"C#3","midi":49,"time":143.99999999999866,"velocity":0.6062992125984252,"duration":0.09166666666666856},{"name":"B2","midi":47,"time":144.09374999999866,"velocity":0.6062992125984252,"duration":0.09375},{"name":"C#5","midi":73,"time":144.189583333332,"velocity":0.5669291338582677,"duration":0.5729166666666572},{"name":"E5","midi":76,"time":144.189583333332,"velocity":0.49606299212598426,"duration":0.5749999999999886},{"name":"A2","midi":45,"time":144.19166666666533,"velocity":0.6062992125984252,"duration":0.09166666666666856},{"name":"B2","midi":47,"time":144.28541666666533,"velocity":0.6062992125984252,"duration":0.09375},{"name":"C#3","midi":49,"time":144.38124999999866,"velocity":0.6062992125984252,"duration":0.09375},{"name":"A2","midi":45,"time":144.47499999999866,"velocity":0.6062992125984252,"duration":0.09583333333333144},{"name":"D3","midi":50,"time":144.570833333332,"velocity":0.6062992125984252,"duration":0.09583333333333144},{"name":"C#3","midi":49,"time":144.66666666666532,"velocity":0.6062992125984252,"duration":0.09583333333333144},{"name":"D5","midi":74,"time":144.76458333333198,"velocity":0.5669291338582677,"duration":0.1875},{"name":"B4","midi":71,"time":144.76666666666532,"velocity":0.5669291338582677,"duration":0.18333333333333712},{"name":"D3","midi":50,"time":144.76666666666532,"velocity":0.6062992125984252,"duration":0.08958333333333712},{"name":"E3","midi":52,"time":144.85624999999865,"velocity":0.6062992125984252,"duration":0.09375},{"name":"F#5","midi":78,"time":144.95208333333198,"velocity":0.49606299212598426,"duration":0.18958333333333144},{"name":"A4","midi":69,"time":144.95416666666532,"velocity":0.5669291338582677,"duration":0.37708333333333144},{"name":"C#3","midi":49,"time":144.95416666666532,"velocity":0.6062992125984252,"duration":0.09166666666666856},{"name":"D3","midi":50,"time":145.04791666666532,"velocity":0.6062992125984252,"duration":0.09166666666666856},{"name":"B4","midi":71,"time":145.14166666666532,"velocity":0.5669291338582677,"duration":0.7562499999999943},{"name":"E3","midi":52,"time":145.14374999999865,"velocity":0.6062992125984252,"duration":0.08958333333333712},{"name":"D3","midi":50,"time":145.23541666666532,"velocity":0.6062992125984252,"duration":0.09375},{"name":"G#4","midi":68,"time":145.33124999999865,"velocity":0.5669291338582677,"duration":0.18958333333333144},{"name":"E3","midi":52,"time":145.33333333333198,"velocity":0.6062992125984252,"duration":0.09166666666666856},{"name":"F#3","midi":54,"time":145.42499999999865,"velocity":0.6062992125984252,"duration":0.09583333333333144},{"name":"D3","midi":50,"time":145.5229166666653,"velocity":0.6062992125984252,"duration":0.09166666666666856},{"name":"E4","midi":64,"time":145.5229166666653,"velocity":0.6062992125984252,"duration":0.18541666666666856},{"name":"E3","midi":52,"time":145.61458333333198,"velocity":0.6062992125984252,"duration":0.09375},{"name":"C#4","midi":61,"time":145.7104166666653,"velocity":0.6062992125984252,"duration":0.1875},{"name":"F#3","midi":54,"time":145.7104166666653,"velocity":0.6062992125984252,"duration":0.09166666666666856},{"name":"G#3","midi":56,"time":145.80208333333198,"velocity":0.6062992125984252,"duration":0.09375},{"name":"A4","midi":69,"time":145.89999999999864,"velocity":0.5669291338582677,"duration":0.18541666666666856},{"name":"D4","midi":62,"time":145.89999999999864,"velocity":0.6062992125984252,"duration":0.18541666666666856},{"name":"F#3","midi":54,"time":145.89999999999864,"velocity":0.6062992125984252,"duration":0.08958333333333712},{"name":"E3","midi":52,"time":145.9916666666653,"velocity":0.6062992125984252,"duration":0.09166666666666856},{"name":"G4","midi":67,"time":146.08749999999864,"velocity":0.6062992125984252,"duration":0.1875},{"name":"E4","midi":64,"time":146.08749999999864,"velocity":0.6062992125984252,"duration":0.375},{"name":"D3","midi":50,"time":146.08958333333197,"velocity":0.6062992125984252,"duration":0.08958333333333712},{"name":"C#3","midi":49,"time":146.18124999999864,"velocity":0.6062992125984252,"duration":0.09375},{"name":"F#4","midi":66,"time":146.27499999999864,"velocity":0.6062992125984252,"duration":0.5687499999999943},{"name":"D3","midi":50,"time":146.27708333333197,"velocity":0.6062992125984252,"duration":0.09166666666666856},{"name":"E3","midi":52,"time":146.36874999999864,"velocity":0.6062992125984252,"duration":0.09375},{"name":"A3","midi":57,"time":146.46458333333197,"velocity":0.6062992125984252,"duration":0.1875},{"name":"D3","midi":50,"time":146.46458333333197,"velocity":0.6062992125984252,"duration":0.09375},{"name":"C#3","midi":49,"time":146.55833333333197,"velocity":0.6062992125984252,"duration":0.09375},{"name":"D4","midi":62,"time":146.6541666666653,"velocity":0.6062992125984252,"duration":0.3791666666666629},{"name":"B2","midi":47,"time":146.6541666666653,"velocity":0.6062992125984252,"duration":0.09166666666666856},{"name":"A2","midi":45,"time":146.7479166666653,"velocity":0.6062992125984252,"duration":0.09375},{"name":"B4","midi":71,"time":146.84374999999864,"velocity":0.5905511811023622,"duration":0.18958333333333144},{"name":"G#2","midi":44,"time":146.84583333333197,"velocity":0.6062992125984252,"duration":0.08958333333333712},{"name":"B2","midi":47,"time":146.93749999999864,"velocity":0.6062992125984252,"duration":0.09375},{"name":"C#4","midi":61,"time":147.0354166666653,"velocity":0.6062992125984252,"duration":0.5625},{"name":"E4","midi":64,"time":147.0354166666653,"velocity":0.6062992125984252,"duration":0.1875},{"name":"A2","midi":45,"time":147.03749999999863,"velocity":0.6062992125984252,"duration":0.08958333333333712},{"name":"G#2","midi":44,"time":147.1291666666653,"velocity":0.6062992125984252,"duration":0.09375},{"name":"A4","midi":69,"time":147.22499999999863,"velocity":0.5905511811023622,"duration":0.1875},{"name":"F#2","midi":42,"time":147.22499999999863,"velocity":0.6062992125984252,"duration":0.09166666666666856},{"name":"E2","midi":40,"time":147.3166666666653,"velocity":0.6062992125984252,"duration":0.09583333333333144},{"name":"D4","midi":62,"time":147.41458333333196,"velocity":0.6062992125984252,"duration":0.5520833333333428},{"name":"F#2","midi":42,"time":147.41458333333196,"velocity":0.6062992125984252,"duration":0.08958333333333712},{"name":"A2","midi":45,"time":147.5041666666653,"velocity":0.6062992125984252,"duration":0.09166666666666856},{"name":"B3","midi":59,"time":147.5979166666653,"velocity":0.6062992125984252,"duration":0.18333333333333712},{"name":"G#2","midi":44,"time":147.59999999999863,"velocity":0.6062992125984252,"duration":0.08750000000000568},{"name":"F#2","midi":42,"time":147.68958333333197,"velocity":0.6062992125984252,"duration":0.08958333333333712},{"name":"D4","midi":62,"time":147.78124999999864,"velocity":0.6062992125984252,"duration":0.375},{"name":"E2","midi":40,"time":147.78333333333197,"velocity":0.6062992125984252,"duration":0.08958333333333712},{"name":"D2","midi":38,"time":147.8729166666653,"velocity":0.6062992125984252,"duration":0.09375},{"name":"G#3","midi":56,"time":147.96874999999864,"velocity":0.6062992125984252,"duration":0.1875},{"name":"C#2","midi":37,"time":147.96874999999864,"velocity":0.6062992125984252,"duration":0.08958333333333712},{"name":"C#3","midi":49,"time":148.05833333333197,"velocity":0.6062992125984252,"duration":0.09583333333333144},{"name":"C#4","midi":61,"time":148.15624999999864,"velocity":0.6062992125984252,"duration":0.19583333333332575},{"name":"E4","midi":64,"time":148.15833333333197,"velocity":0.6062992125984252,"duration":0.19166666666666288},{"name":"D3","midi":50,"time":148.1604166666653,"velocity":0.6062992125984252,"duration":0.08958333333333712},{"name":"E3","midi":52,"time":148.24999999999864,"velocity":0.6062992125984252,"duration":0.09999999999999432},{"name":"A4","midi":69,"time":148.35208333333196,"velocity":0.5905511811023622,"duration":0.41874999999998863},{"name":"C#4","midi":61,"time":148.3541666666653,"velocity":0.6062992125984252,"duration":0.19999999999998863},{"name":"F#3","midi":54,"time":148.3541666666653,"velocity":0.6062992125984252,"duration":0.09583333333333144},{"name":"G#3","midi":56,"time":148.44999999999862,"velocity":0.6062992125984252,"duration":0.10208333333332575},{"name":"A3","midi":57,"time":148.55416666666528,"velocity":0.6062992125984252,"duration":0.10416666666665719},{"name":"F#4","midi":66,"time":148.55416666666528,"velocity":0.6062992125984252,"duration":0.21458333333333712},{"name":"D3","midi":50,"time":148.65833333333194,"velocity":0.6062992125984252,"duration":0.11041666666667993},{"name":"A4","midi":69,"time":148.77083333333195,"velocity":0.5905511811023622,"duration":0.23124999999998863},{"name":"E3","midi":52,"time":148.77291666666528,"velocity":0.6062992125984252,"duration":0.22708333333332575},{"name":"B3","midi":59,"time":148.77291666666528,"velocity":0.6062992125984252,"duration":0.48749999999998295},{"name":"G#4","midi":68,"time":149.00208333333194,"velocity":0.5905511811023622,"duration":0.2541666666666629},{"name":"E2","midi":40,"time":149.00208333333194,"velocity":0.6062992125984252,"duration":0.25208333333333144},{"name":"A4","midi":69,"time":149.2562499999986,"velocity":0.5118110236220472,"duration":2.504166666666663},{"name":"A2","midi":45,"time":149.25833333333193,"velocity":0.5039370078740157,"duration":2.5083333333333258},{"name":"C#4","midi":61,"time":149.26041666666526,"velocity":0.5433070866141733,"duration":2.5124999999999886}],"controlChanges":{"7":[{"number":7,"time":0,"value":0.8267716535433071},{"number":7,"time":0,"value":0.7874015748031497},{"number":7,"time":0,"value":0.7874015748031497}],"10":[{"number":10,"time":0,"value":0.49606299212598426},{"number":10,"time":0,"value":0.3779527559055118},{"number":10,"time":0,"value":0.3700787401574803},{"number":10,"time":4.5375,"value":0.47244094488188976},{"number":10,"time":4.633333333333333,"value":0.4566929133858268},{"number":10,"time":4.664583333333333,"value":0.5275590551181102},{"number":10,"time":4.6708333333333325,"value":0.4330708661417323},{"number":10,"time":4.731249999999999,"value":0.4645669291338583},{"number":10,"time":4.749999999999999,"value":0.6220472440944882},{"number":10,"time":4.760416666666666,"value":0.5196850393700787},{"number":10,"time":4.802083333333333,"value":0.5905511811023622},{"number":10,"time":4.902083333333333,"value":0.5826771653543307}]},"id":0,"name":"--------","instrumentNumber":0,"instrument":"acoustic grand piano","instrumentFamily":"piano","channelNumber":0,"isPercussion":false}]}