{"header":{"PPQ":480,"timeSignature":[4,4],"bpm":120,"name":""},"startTime":1.8291666666666666,"duration":172.59895833333312,"tracks":[{"startTime":1.8291666666666666,"duration":172.59895833333312,"length":637,"notes":[{"name":"G3","midi":55,"time":1.8291666666666666,"velocity":0.5590551181102362,"duration":1.5260416666666665},{"name":"G2","midi":43,"time":1.8427083333333332,"velocity":0.49606299212598426,"duration":22.501041666666683},{"name":"D3","midi":50,"time":1.853125,"velocity":0.5354330708661418,"duration":1.3427083333333334},{"name":"D4","midi":62,"time":1.8635416666666667,"velocity":0.5511811023622047,"duration":0.6614583333333333},{"name":"G4","midi":67,"time":1.8833333333333333,"velocity":0.5354330708661418,"duration":1.0802083333333332},{"name":"A#4","midi":70,"time":1.8947916666666667,"velocity":0.5118110236220472,"duration":0.721875},{"name":"C4","midi":60,"time":2.6458333333333335,"velocity":0.6062992125984252,"duration":0.5979166666666664},{"name":"A4","midi":69,"time":2.7197916666666666,"velocity":0.4251968503937008,"duration":0.5552083333333333},{"name":"D#3","midi":51,"time":3.359375,"velocity":0.5354330708661418,"duration":5.559375000000001},{"name":"A4","midi":69,"time":3.379166666666667,"velocity":0.6299212598425197,"duration":1.740625},{"name":"C4","midi":60,"time":3.385416666666667,"velocity":0.6062992125984252,"duration":2.841666666666667},{"name":"C5","midi":72,"time":5.048958333333333,"velocity":0.6220472440944882,"duration":0.2510416666666675},{"name":"A#4","midi":70,"time":5.2093750000000005,"velocity":0.49606299212598426,"duration":0.25625000000000053},{"name":"C5","midi":72,"time":5.425000000000001,"velocity":0.6299212598425197,"duration":0.5187499999999998},{"name":"A4","midi":69,"time":5.873958333333334,"velocity":0.6771653543307087,"duration":0.6145833333333321},{"name":"A3","midi":57,"time":6.415625,"velocity":0.5118110236220472,"duration":2.1156249999999996},{"name":"C4","midi":60,"time":6.435416666666667,"velocity":0.5669291338582677,"duration":2.413541666666667},{"name":"F#4","midi":66,"time":6.436458333333333,"velocity":0.5826771653543307,"duration":1.4822916666666668},{"name":"A4","midi":69,"time":7.845833333333333,"velocity":0.6220472440944882,"duration":0.1885416666666675},{"name":"G4","midi":67,"time":7.996875,"velocity":0.6299212598425197,"duration":0.20937500000000053},{"name":"A4","midi":69,"time":8.163541666666667,"velocity":0.7637795275590551,"duration":0.44374999999999964},{"name":"D#4","midi":63,"time":8.639583333333334,"velocity":0.6062992125984252,"duration":0.3406249999999993},{"name":"F#3","midi":54,"time":9.139583333333334,"velocity":0.47244094488188976,"duration":2.4343749999999957},{"name":"A3","midi":57,"time":9.162500000000001,"velocity":0.5590551181102362,"duration":2.405208333333329},{"name":"D#4","midi":63,"time":9.183333333333335,"velocity":0.6062992125984252,"duration":1.0718749999999986},{"name":"C3","midi":48,"time":9.190625000000002,"velocity":0.49606299212598426,"duration":2.392708333333328},{"name":"D4","midi":62,"time":10.239583333333334,"velocity":0.6614173228346457,"duration":0.11979166666666607},{"name":"D#4","midi":63,"time":10.348958333333334,"velocity":0.6220472440944882,"duration":0.10312499999999858},{"name":"D4","midi":62,"time":10.41875,"velocity":0.5905511811023622,"duration":0.7458333333333318},{"name":"C4","midi":60,"time":11.465624999999998,"velocity":0.5748031496062992,"duration":0.27291666666666536},{"name":"G3","midi":55,"time":11.87708333333333,"velocity":0.49606299212598426,"duration":1.590625000000001},{"name":"D3","midi":50,"time":11.899999999999997,"velocity":0.4881889763779528,"duration":4.0635416666666675},{"name":"A#3","midi":58,"time":11.93333333333333,"velocity":0.5275590551181102,"duration":1.4989583333333343},{"name":"A3","midi":57,"time":13.290624999999997,"velocity":0.6220472440944882,"duration":0.5541666666666654},{"name":"G3","midi":55,"time":13.779166666666663,"velocity":0.4881889763779528,"duration":2.1833333333333336},{"name":"D4","midi":62,"time":15.00833333333333,"velocity":0.6692913385826772,"duration":0.8416666666666668},{"name":"A#3","midi":58,"time":15.019791666666663,"velocity":0.6141732283464567,"duration":0.5208333333333321},{"name":"F4","midi":65,"time":15.527083333333328,"velocity":0.6299212598425197,"duration":0.32187500000000036},{"name":"E4","midi":64,"time":15.799999999999995,"velocity":0.6771653543307087,"duration":0.4010416666666696},{"name":"G3","midi":55,"time":16.107291666666665,"velocity":0.5905511811023622,"duration":2.8770833333333385},{"name":"D3","midi":50,"time":16.12395833333333,"velocity":0.6220472440944882,"duration":2.200000000000003},{"name":"F4","midi":65,"time":16.13958333333333,"velocity":0.6614173228346457,"duration":1.7343750000000036},{"name":"B3","midi":59,"time":16.151041666666664,"velocity":0.5826771653543307,"duration":1.6635416666666707},{"name":"D4","midi":62,"time":17.6,"velocity":0.6771653543307087,"duration":0.6947916666666636},{"name":"C3","midi":48,"time":18.236458333333335,"velocity":0.6220472440944882,"duration":0.689583333333335},{"name":"C4","midi":60,"time":18.245833333333334,"velocity":0.5826771653543307,"duration":0.9718750000000007},{"name":"E4","midi":64,"time":18.246875,"velocity":0.7244094488188977,"duration":0.548958333333335},{"name":"G4","midi":67,"time":18.776041666666668,"velocity":0.6141732283464567,"duration":0.34166666666666856},{"name":"D3","midi":50,"time":18.798958333333335,"velocity":0.6614173228346457,"duration":0.38645833333333357},{"name":"F#4","midi":66,"time":19.059375000000003,"velocity":0.6220472440944882,"duration":0.4156249999999986},{"name":"D#3","midi":51,"time":19.436458333333334,"velocity":0.5590551181102362,"duration":2.5229166666666707},{"name":"A3","midi":57,"time":19.442708333333336,"velocity":0.6062992125984252,"duration":2.4229166666666693},{"name":"C4","midi":60,"time":19.447916666666668,"velocity":0.6535433070866141,"duration":2.653125000000003},{"name":"G4","midi":67,"time":19.448958333333334,"velocity":0.6771653543307087,"duration":1.5093750000000021},{"name":"A4","midi":69,"time":20.91041666666667,"velocity":0.6614173228346457,"duration":0.38854166666666856},{"name":"F#4","midi":66,"time":21.261458333333337,"velocity":0.6614173228346457,"duration":0.40625},{"name":"G4","midi":67,"time":21.615625000000005,"velocity":0.6535433070866141,"duration":0.31770833333333215},{"name":"F#4","midi":66,"time":21.875000000000004,"velocity":0.6299212598425197,"duration":0.2562500000000014},{"name":"G4","midi":67,"time":22.131250000000005,"velocity":0.6692913385826772,"duration":0.2604166666666643},{"name":"A#3","midi":58,"time":22.368750000000006,"velocity":0.41732283464566927,"duration":1.873958333333345},{"name":"E3","midi":52,"time":22.38229166666667,"velocity":0.6062992125984252,"duration":2.040625000000013},{"name":"C#4","midi":61,"time":22.42604166666667,"velocity":0.5118110236220472,"duration":1.8427083333333485},{"name":"A4","midi":69,"time":22.44166666666667,"velocity":0.5748031496062992,"duration":0.2427083333333364},{"name":"G4","midi":67,"time":22.66666666666667,"velocity":0.5905511811023622,"duration":0.1145833333333357},{"name":"A4","midi":69,"time":22.79583333333334,"velocity":0.5826771653543307,"duration":0.10208333333333286},{"name":"G4","midi":67,"time":22.907291666666673,"velocity":0.6377952755905512,"duration":0.08541666666666714},{"name":"A4","midi":69,"time":22.996875000000006,"velocity":0.7086614173228346,"duration":0.08020833333333499},{"name":"G4","midi":67,"time":23.095833333333342,"velocity":0.7244094488188977,"duration":0.07291666666666785},{"name":"A4","midi":69,"time":23.202083333333345,"velocity":0.7007874015748031,"duration":0.07291666666666785},{"name":"G4","midi":67,"time":23.28541666666668,"velocity":0.7007874015748031,"duration":0.07291666666666785},{"name":"A4","midi":69,"time":23.385416666666682,"velocity":0.7007874015748031,"duration":0.07291666666666785},{"name":"G4","midi":67,"time":23.468750000000018,"velocity":0.5669291338582677,"duration":0.2666666666666657},{"name":"F#4","midi":66,"time":23.92708333333335,"velocity":0.5826771653543307,"duration":0.30833333333333357},{"name":"G4","midi":67,"time":24.182291666666682,"velocity":0.5748031496062992,"duration":0.24375000000000213},{"name":"D3","midi":50,"time":24.510416666666686,"velocity":0.4566929133858268,"duration":1.6479166666666671},{"name":"A4","midi":69,"time":24.551041666666684,"velocity":0.5039370078740157,"duration":1.5895833333333336},{"name":"C#4","midi":61,"time":25.41770833333335,"velocity":0.47244094488188976,"duration":0.7135416666666679},{"name":"E3","midi":52,"time":25.41770833333335,"velocity":0.5118110236220472,"duration":0.6197916666666679},{"name":"F#3","midi":54,"time":26.44062500000002,"velocity":0.4409448818897638,"duration":2.0979166666666664},{"name":"A4","midi":69,"time":26.444791666666685,"velocity":0.5590551181102362,"duration":2.1291666666666664},{"name":"A3","midi":57,"time":26.466666666666686,"velocity":0.4645669291338583,"duration":2.049999999999997},{"name":"D3","midi":50,"time":26.467708333333352,"velocity":0.48031496062992124,"duration":2.067708333333332},{"name":"D4","midi":62,"time":26.467708333333352,"velocity":0.5039370078740157,"duration":2.0749999999999993},{"name":"G2","midi":43,"time":29.054166666666685,"velocity":0.5433070866141733,"duration":24.86666666666665},{"name":"D3","midi":50,"time":29.110416666666683,"velocity":0.6141732283464567,"duration":1.5447916666666615},{"name":"G3","midi":55,"time":29.150000000000016,"velocity":0.5826771653543307,"duration":1.86666666666666},{"name":"D4","midi":62,"time":29.221875000000015,"velocity":0.49606299212598426,"duration":1.3197916666666636},{"name":"G4","midi":67,"time":29.22604166666668,"velocity":0.6141732283464567,"duration":1.1895833333333314},{"name":"A4","midi":69,"time":29.359375000000014,"velocity":0.6535433070866141,"duration":0.11562499999999787},{"name":"A#4","midi":70,"time":29.40729166666668,"velocity":0.6299212598425197,"duration":0.9781249999999986},{"name":"A4","midi":69,"time":30.202083333333345,"velocity":0.7244094488188977,"duration":0.3562499999999993},{"name":"C4","midi":60,"time":30.853125000000013,"velocity":0.4409448818897638,"duration":3.457291666666663},{"name":"A4","midi":69,"time":30.87812500000001,"velocity":0.5826771653543307,"duration":0.09687499999999716},{"name":"D#3","midi":51,"time":30.90625000000001,"velocity":0.5118110236220472,"duration":6.713541666666668},{"name":"G4","midi":67,"time":30.961458333333344,"velocity":0.7244094488188977,"duration":0.12187499999999574},{"name":"A4","midi":69,"time":31.044791666666676,"velocity":0.6614173228346457,"duration":1.2979166666666657},{"name":"C5","midi":72,"time":32.43229166666667,"velocity":0.6535433070866141,"duration":0.22708333333333286},{"name":"A#4","midi":70,"time":32.614583333333336,"velocity":0.7322834645669292,"duration":0.20624999999999716},{"name":"A4","midi":69,"time":32.79375,"velocity":0.6062992125984252,"duration":0.21562499999999574},{"name":"C5","midi":72,"time":32.96875,"velocity":0.6456692913385826,"duration":0.17812500000000142},{"name":"A#4","midi":70,"time":33.13125,"velocity":0.7401574803149606,"duration":0.18437500000000284},{"name":"D5","midi":74,"time":33.319791666666674,"velocity":0.6299212598425197,"duration":0.08125000000000426},{"name":"C5","midi":72,"time":33.38750000000001,"velocity":0.7165354330708661,"duration":0.07187499999999858},{"name":"C5","midi":72,"time":33.51875000000001,"velocity":0.7952755905511811,"duration":0.5177083333333314},{"name":"A#4","midi":70,"time":33.976041666666674,"velocity":0.6456692913385826,"duration":0.2906249999999986},{"name":"A4","midi":69,"time":34.20208333333334,"velocity":0.6850393700787402,"duration":0.2562500000000085},{"name":"A3","midi":57,"time":34.417708333333344,"velocity":0.5590551181102362,"duration":3.184375000000003},{"name":"G4","midi":67,"time":34.453125000000014,"velocity":0.6850393700787402,"duration":1.0093749999999986},{"name":"C4","midi":60,"time":34.463541666666686,"velocity":0.5275590551181102,"duration":3.2208333333333243},{"name":"G4","midi":67,"time":35.61354166666668,"velocity":0.7480314960629921,"duration":0.13125000000000142},{"name":"F#4","midi":66,"time":35.72500000000001,"velocity":0.5354330708661418,"duration":0.1250000000000071},{"name":"G4","midi":67,"time":35.83750000000001,"velocity":0.6220472440944882,"duration":0.09479166666667282},{"name":"F#4","midi":66,"time":35.92500000000002,"velocity":0.6220472440944882,"duration":1.2135416666666572},{"name":"G4","midi":67,"time":36.00208333333335,"velocity":0.6614173228346457,"duration":0.0989583333333286},{"name":"A4","midi":69,"time":36.980208333333344,"velocity":0.5590551181102362,"duration":0.20624999999999716},{"name":"G4","midi":67,"time":37.14479166666668,"velocity":0.6062992125984252,"duration":0.09791666666666288},{"name":"G4","midi":67,"time":37.28750000000001,"velocity":0.7244094488188977,"duration":0.1979166666666714},{"name":"A4","midi":69,"time":37.44791666666668,"velocity":0.7716535433070866,"duration":0.15312500000000284},{"name":"D#4","midi":63,"time":37.61875000000001,"velocity":0.8188976377952756,"duration":0.3020833333333286},{"name":"F#3","midi":54,"time":38.09375000000001,"velocity":0.5118110236220472,"duration":3.281249999999993},{"name":"C3","midi":48,"time":38.101041666666674,"velocity":0.6220472440944882,"duration":3.3302083333333243},{"name":"D#4","midi":63,"time":38.105208333333344,"velocity":0.6692913385826772,"duration":1.2312500000000028},{"name":"A3","midi":57,"time":38.111458333333346,"velocity":0.5905511811023622,"duration":3.432291666666657},{"name":"D4","midi":62,"time":39.292708333333344,"velocity":0.6456692913385826,"duration":0.20625000000000426},{"name":"C4","midi":60,"time":39.468750000000014,"velocity":0.6929133858267716,"duration":0.21041666666666714},{"name":"D4","midi":62,"time":39.627083333333346,"velocity":0.8503937007874016,"duration":0.11145833333333854},{"name":"D4","midi":62,"time":39.86666666666668,"velocity":0.8582677165354331,"duration":0.1510416666666643},{"name":"D#4","midi":63,"time":40.000000000000014,"velocity":0.6771653543307087,"duration":0.11354166666666288},{"name":"D4","midi":62,"time":40.09895833333334,"velocity":0.5984251968503937,"duration":0.11354166666666288},{"name":"D#4","midi":63,"time":40.18750000000001,"velocity":0.8740157480314961,"duration":0.09791666666666288},{"name":"D4","midi":62,"time":40.27708333333334,"velocity":0.7244094488188977,"duration":0.09166666666666856},{"name":"D#4","midi":63,"time":40.34791666666667,"velocity":0.7874015748031497,"duration":0.08645833333333286},{"name":"D4","midi":62,"time":40.43854166666667,"velocity":0.6614173228346457,"duration":0.18854166666666572},{"name":"D#4","midi":63,"time":40.50104166666667,"velocity":0.6456692913385826,"duration":0.046875},{"name":"D#4","midi":63,"time":40.61041666666667,"velocity":0.6771653543307087,"duration":0.12083333333333002},{"name":"D4","midi":62,"time":40.696875000000006,"velocity":0.6614173228346457,"duration":0.5166666666666657},{"name":"D#4","midi":63,"time":41.364583333333336,"velocity":0.6771653543307087,"duration":0.11354166666666288},{"name":"C4","midi":60,"time":41.52395833333333,"velocity":0.8110236220472441,"duration":0.09062500000000284},{"name":"D3","midi":50,"time":41.67604166666667,"velocity":0.5905511811023622,"duration":4.47187499999999},{"name":"G3","midi":55,"time":41.69895833333334,"velocity":0.5039370078740157,"duration":1.48854166666667},{"name":"C4","midi":60,"time":41.72708333333334,"velocity":0.6062992125984252,"duration":0.14166666666666572},{"name":"A#3","midi":58,"time":41.87500000000001,"velocity":0.5433070866141733,"duration":0.10312500000000568},{"name":"C4","midi":60,"time":41.97395833333334,"velocity":0.5826771653543307,"duration":0.07916666666666572},{"name":"A#3","midi":58,"time":42.060416666666676,"velocity":0.6062992125984252,"duration":0.08958333333333002},{"name":"C4","midi":60,"time":42.138541666666676,"velocity":0.7795275590551181,"duration":0.06979166666666003},{"name":"A#3","midi":58,"time":42.21354166666667,"velocity":0.6141732283464567,"duration":0.06354166666666572},{"name":"C4","midi":60,"time":42.26770833333334,"velocity":0.7795275590551181,"duration":0.10000000000000142},{"name":"A#3","midi":58,"time":42.33854166666667,"velocity":0.6141732283464567,"duration":0.921875},{"name":"A3","midi":57,"time":43.18020833333334,"velocity":0.6377952755905512,"duration":0.49791666666666146},{"name":"G3","midi":55,"time":43.61979166666667,"velocity":0.5433070866141733,"duration":2.480208333333323},{"name":"A#3","midi":58,"time":44.95104166666667,"velocity":0.6456692913385826,"duration":0.8802083333333286},{"name":"D4","midi":62,"time":44.952083333333334,"velocity":0.7874015748031497,"duration":0.6729166666666657},{"name":"F4","midi":65,"time":45.56458333333333,"velocity":0.7637795275590551,"duration":0.34583333333333144},{"name":"E4","midi":64,"time":45.86770833333333,"velocity":0.7244094488188977,"duration":0.2083333333333286},{"name":"G3","midi":55,"time":46.199999999999996,"velocity":0.47244094488188976,"duration":1.7604166666666643},{"name":"D3","midi":50,"time":46.211458333333326,"velocity":0.7007874015748031,"duration":1.78125},{"name":"B3","midi":59,"time":46.26874999999999,"velocity":0.5984251968503937,"duration":1.4906250000000014},{"name":"E4","midi":64,"time":46.27812499999999,"velocity":0.6614173228346457,"duration":0.2239583333333357},{"name":"F4","midi":65,"time":46.41458333333332,"velocity":0.7244094488188977,"duration":1.33229166666667},{"name":"D4","midi":62,"time":47.66562499999999,"velocity":0.7244094488188977,"duration":0.5166666666666728},{"name":"G3","midi":55,"time":48.05416666666666,"velocity":0.6141732283464567,"duration":1.25833333333334},{"name":"C3","midi":48,"time":48.06666666666666,"velocity":0.5590551181102362,"duration":1.1427083333333314},{"name":"C4","midi":60,"time":48.15416666666666,"velocity":0.6614173228346457,"duration":0.7885416666666671},{"name":"F4","midi":65,"time":48.178124999999994,"velocity":0.7480314960629921,"duration":0.2822916666666657},{"name":"E4","midi":64,"time":48.418749999999996,"velocity":0.7874015748031497,"duration":0.2395833333333357},{"name":"D3","midi":50,"time":48.59791666666666,"velocity":0.6299212598425197,"duration":0.27708333333333},{"name":"G4","midi":67,"time":48.619791666666664,"velocity":1,"duration":0.2552083333333286},{"name":"F#4","midi":66,"time":48.824999999999996,"velocity":1,"duration":0.18958333333333144},{"name":"D#3","midi":51,"time":49.23020833333333,"velocity":0.5669291338582677,"duration":3.198958333333323},{"name":"F#4","midi":66,"time":49.251041666666666,"velocity":0.6692913385826772,"duration":0.20000000000000284},{"name":"C#4","midi":61,"time":49.26770833333333,"velocity":0.5590551181102362,"duration":3.10104166666666},{"name":"A3","midi":57,"time":49.275,"velocity":0.6062992125984252,"duration":3.104166666666657},{"name":"G4","midi":67,"time":49.41041666666667,"velocity":0.7637795275590551,"duration":1.5364583333333357},{"name":"A4","midi":69,"time":50.880208333333336,"velocity":0.7086614173228346,"duration":0.44479166666666714},{"name":"G4","midi":67,"time":51.34791666666667,"velocity":0.7165354330708661,"duration":0.1041666666666643},{"name":"F#4","midi":66,"time":51.454166666666666,"velocity":0.6850393700787402,"duration":0.38749999999999574},{"name":"G4","midi":67,"time":51.760416666666664,"velocity":0.8031496062992126,"duration":0.2708333333333286},{"name":"F#4","midi":66,"time":51.977083333333326,"velocity":0.6929133858267716,"duration":0.3072916666666643},{"name":"G4","midi":67,"time":52.24166666666666,"velocity":0.6929133858267716,"duration":0.18645833333332718},{"name":"C#4","midi":61,"time":52.60520833333332,"velocity":0.5511811023622047,"duration":1.097916666666677},{"name":"E3","midi":52,"time":52.627083333333324,"velocity":0.4645669291338583,"duration":1.5718750000000057},{"name":"A4","midi":69,"time":52.642708333333324,"velocity":0.7716535433070866,"duration":0.24062500000000853},{"name":"A#3","midi":58,"time":52.64999999999999,"velocity":0.5669291338582677,"duration":1.4125000000000085},{"name":"G4","midi":67,"time":52.86354166666666,"velocity":0.7165354330708661,"duration":0.11666666666666714},{"name":"A4","midi":69,"time":52.97083333333333,"velocity":0.7244094488188977,"duration":0.11770833333333286},{"name":"G4","midi":67,"time":53.08125,"velocity":0.6850393700787402,"duration":0.10000000000000142},{"name":"A4","midi":69,"time":53.16770833333333,"velocity":0.8031496062992126,"duration":0.08645833333333286},{"name":"G4","midi":67,"time":53.266666666666666,"velocity":0.7244094488188977,"duration":0.0885416666666643},{"name":"A4","midi":69,"time":53.344791666666666,"velocity":0.6771653543307087,"duration":0.06458333333333144},{"name":"G4","midi":67,"time":53.45729166666666,"velocity":0.5669291338582677,"duration":0.14479166666666998},{"name":"A4","midi":69,"time":53.62083333333333,"velocity":0.3700787401574803,"duration":0.0989583333333357},{"name":"F#4","midi":66,"time":53.73229166666667,"velocity":0.7716535433070866,"duration":0.25208333333333144},{"name":"G4","midi":67,"time":53.928125,"velocity":0.6456692913385826,"duration":0.38229166666666003},{"name":"D3","midi":50,"time":54.231249999999996,"velocity":0.41732283464566927,"duration":4.119791666666664},{"name":"A#4","midi":70,"time":54.2375,"velocity":0.5275590551181102,"duration":0.328125},{"name":"A4","midi":69,"time":54.52916666666666,"velocity":0.6456692913385826,"duration":1.4739583333333357},{"name":"E3","midi":52,"time":55.224999999999994,"velocity":0.5196850393700787,"duration":0.8208333333333329},{"name":"C#4","midi":61,"time":55.2375,"velocity":0.5590551181102362,"duration":0.7760416666666643},{"name":"A3","midi":57,"time":56.365624999999994,"velocity":0.4330708661417323,"duration":2.0479166666666657},{"name":"F#3","midi":54,"time":56.36666666666666,"velocity":0.48031496062992124,"duration":2.0479166666666657},{"name":"A4","midi":69,"time":56.37604166666666,"velocity":0.5669291338582677,"duration":2.1395833333333343},{"name":"D4","midi":62,"time":56.38020833333333,"velocity":0.5433070866141733,"duration":1.9750000000000014},{"name":"A#4","midi":70,"time":58.91562499999999,"velocity":0.6614173228346457,"duration":0.7333333333333414},{"name":"A#3","midi":58,"time":58.934374999999996,"velocity":0.5039370078740157,"duration":4.012500000000024},{"name":"F3","midi":53,"time":58.94895833333333,"velocity":0.5669291338582677,"duration":4.24791666666669},{"name":"D3","midi":50,"time":58.94895833333333,"velocity":0.5669291338582677,"duration":4.072916666666693},{"name":"F4","midi":65,"time":58.949999999999996,"velocity":0.6220472440944882,"duration":0.7958333333333343},{"name":"D5","midi":74,"time":59.536458333333336,"velocity":0.7244094488188977,"duration":0.3218749999999915},{"name":"F4","midi":65,"time":60.115624999999994,"velocity":0.5196850393700787,"duration":2.26666666666668},{"name":"A#4","midi":70,"time":60.16145833333333,"velocity":0.5275590551181102,"duration":1.2666666666666728},{"name":"D5","midi":74,"time":60.27083333333333,"velocity":0.6220472440944882,"duration":1.640625000000007},{"name":"F5","midi":77,"time":60.37708333333333,"velocity":0.7480314960629921,"duration":1.2520833333333385},{"name":"A#4","midi":70,"time":61.91979166666667,"velocity":0.6692913385826772,"duration":0.11354166666666998},{"name":"G#4","midi":68,"time":62.25833333333334,"velocity":0.6377952755905512,"duration":0.45520833333333854},{"name":"F4","midi":65,"time":62.47708333333334,"velocity":0.6456692913385826,"duration":0.2645833333333414},{"name":"G4","midi":67,"time":62.69375000000001,"velocity":0.7401574803149606,"duration":0.20937500000000853},{"name":"G3","midi":55,"time":63.24687500000002,"velocity":0.36220472440944884,"duration":3.156250000000014},{"name":"B2","midi":47,"time":63.254166666666684,"velocity":0.5905511811023622,"duration":5.4510416666666615},{"name":"G4","midi":67,"time":63.27916666666668,"velocity":0.6141732283464567,"duration":1.5833333333333428},{"name":"F4","midi":65,"time":63.27916666666668,"velocity":0.6220472440944882,"duration":1.56354166666668},{"name":"D4","midi":62,"time":63.285416666666684,"velocity":0.5511811023622047,"duration":1.5010416666666728},{"name":"D5","midi":74,"time":65.30520833333335,"velocity":0.6771653543307087,"duration":3},{"name":"F5","midi":77,"time":65.87083333333335,"velocity":0.7007874015748031,"duration":0.5562500000000199},{"name":"F3","midi":53,"time":66.31770833333336,"velocity":0.5196850393700787,"duration":1.1250000000000142},{"name":"G#5","midi":80,"time":66.34583333333336,"velocity":0.6929133858267716,"duration":1.1322916666666742},{"name":"D#3","midi":51,"time":67.4104166666667,"velocity":0.5275590551181102,"duration":0.7031249999999858},{"name":"G5","midi":79,"time":67.44583333333337,"velocity":0.6614173228346457,"duration":0.659374999999983},{"name":"F5","midi":77,"time":67.99687500000002,"velocity":0.5275590551181102,"duration":0.3187500000000085},{"name":"D3","midi":50,"time":68.00104166666668,"velocity":0.5275590551181102,"duration":0.7677083333333314},{"name":"G#5","midi":80,"time":68.31979166666669,"velocity":0.5905511811023622,"duration":0.18437499999998863},{"name":"G5","midi":79,"time":68.46562500000002,"velocity":0.5905511811023622,"duration":0.2135416666666572},{"name":"C3","midi":48,"time":68.67604166666668,"velocity":0.5669291338582677,"duration":2.948958333333337},{"name":"D#5","midi":75,"time":68.70729166666668,"velocity":0.5511811023622047,"duration":1.20416666666668},{"name":"G4","midi":67,"time":68.728125,"velocity":0.6062992125984252,"duration":1.1989583333333513},{"name":"G3","midi":55,"time":69.68333333333335,"velocity":0.5826771653543307,"duration":1.1781249999999943},{"name":"D5","midi":74,"time":70.17500000000003,"velocity":0.6456692913385826,"duration":0.3791666666666629},{"name":"F4","midi":65,"time":70.18229166666669,"velocity":0.5669291338582677,"duration":0.328125},{"name":"C4","midi":60,"time":70.76770833333336,"velocity":0.48031496062992124,"duration":0.7406249999999943},{"name":"C5","midi":72,"time":70.78645833333336,"velocity":0.6062992125984252,"duration":0.7249999999999943},{"name":"D#4","midi":63,"time":70.79270833333335,"velocity":0.5354330708661418,"duration":0.7479166666666686},{"name":"F#2","midi":42,"time":72.01354166666668,"velocity":0.5590551181102362,"duration":0.89895833333334},{"name":"C5","midi":72,"time":72.03645833333334,"velocity":0.7401574803149606,"duration":0.9093750000000114},{"name":"D#5","midi":75,"time":72.04895833333335,"velocity":0.6850393700787402,"duration":9.102083333333326},{"name":"A4","midi":69,"time":72.05833333333335,"velocity":0.7244094488188977,"duration":2.1999999999999886},{"name":"A2","midi":45,"time":72.54062500000002,"velocity":0.6614173228346457,"duration":0.43541666666666856},{"name":"C3","midi":48,"time":72.91875000000002,"velocity":0.6771653543307087,"duration":0.4427083333333428},{"name":"F#4","midi":66,"time":72.93645833333335,"velocity":0.5984251968503937,"duration":1.6281249999999972},{"name":"A2","midi":45,"time":73.30937500000003,"velocity":0.6771653543307087,"duration":0.2447916666666572},{"name":"G2","midi":43,"time":73.60729166666668,"velocity":0.5590551181102362,"duration":0.0729166666666714},{"name":"A2","midi":45,"time":73.69687500000002,"velocity":0.5748031496062992,"duration":0.10624999999998863},{"name":"G2","midi":43,"time":73.76354166666668,"velocity":0.8346456692913385,"duration":0.3812499999999943},{"name":"F#2","midi":42,"time":74.12812500000001,"velocity":0.6929133858267716,"duration":0.38333333333333997},{"name":"G2","midi":43,"time":74.47708333333334,"velocity":0.6062992125984252,"duration":0.4906250000000085},{"name":"A#4","midi":70,"time":74.51250000000002,"velocity":0.6062992125984252,"duration":0.6385416666666686},{"name":"C#5","midi":73,"time":74.51666666666668,"velocity":0.6456692913385826,"duration":0.9083333333333314},{"name":"A#2","midi":46,"time":74.91562500000002,"velocity":0.6929133858267716,"duration":0.4156249999999915},{"name":"C#3","midi":49,"time":75.29479166666668,"velocity":0.5748031496062992,"duration":0.48749999999998295},{"name":"A#4","midi":70,"time":75.30208333333334,"velocity":0.6220472440944882,"duration":1.5302083333333059},{"name":"G4","midi":67,"time":75.31145833333335,"velocity":0.6299212598425197,"duration":1.1374999999999744},{"name":"A#2","midi":46,"time":75.72916666666667,"velocity":0.6456692913385826,"duration":0.23229166666665435},{"name":"G#2","midi":44,"time":75.99895833333332,"velocity":0.6377952755905512,"duration":0.07187500000000568},{"name":"A#2","midi":46,"time":76.09166666666665,"velocity":0.5984251968503937,"duration":0.08541666666666003},{"name":"G#2","midi":44,"time":76.14166666666665,"velocity":0.7401574803149606,"duration":0.390625},{"name":"G2","midi":43,"time":76.49583333333332,"velocity":0.7086614173228346,"duration":0.3968749999999943},{"name":"G#2","midi":44,"time":76.86249999999998,"velocity":0.6614173228346457,"duration":0.5645833333333314},{"name":"F4","midi":65,"time":76.93020833333331,"velocity":0.6614173228346457,"duration":0.6187500000000057},{"name":"B4","midi":71,"time":76.93541666666664,"velocity":0.7165354330708661,"duration":0.9354166666666828},{"name":"B2","midi":47,"time":77.36874999999998,"velocity":0.7322834645669292,"duration":0.39895833333333997},{"name":"D3","midi":50,"time":77.79687499999999,"velocity":0.5511811023622047,"duration":0.5937500000000142},{"name":"F4","midi":65,"time":77.84999999999998,"velocity":0.6535433070866141,"duration":3.302083333333357},{"name":"G#4","midi":68,"time":77.85937499999999,"velocity":0.6614173228346457,"duration":1.0000000000000142},{"name":"B2","midi":47,"time":78.34791666666666,"velocity":0.7165354330708661,"duration":0.48125000000000284},{"name":"A#2","midi":46,"time":78.84791666666666,"velocity":0.5669291338582677,"duration":0.10625000000000284},{"name":"B4","midi":71,"time":78.89270833333333,"velocity":0.5826771653543307,"duration":1.8093750000000028},{"name":"B2","midi":47,"time":78.93125,"velocity":0.7244094488188977,"duration":0.14895833333332575},{"name":"A#2","midi":46,"time":79.04583333333333,"velocity":0.6141732283464567,"duration":0.5},{"name":"G#2","midi":44,"time":79.50625,"velocity":0.6377952755905512,"duration":0.5687500000000085},{"name":"D#3","midi":51,"time":80.028125,"velocity":0.5590551181102362,"duration":1.4406249999999972},{"name":"G#4","midi":68,"time":80.653125,"velocity":0.5826771653543307,"duration":0.7260416666666742},{"name":"A#4","midi":70,"time":81.41979166666668,"velocity":0.5039370078740157,"duration":1.1291666666666629},{"name":"D#5","midi":75,"time":81.42708333333334,"velocity":0.5511811023622047,"duration":1.0031249999999972},{"name":"D#2","midi":39,"time":81.434375,"velocity":0.4566929133858268,"duration":1.26666666666668},{"name":"G4","midi":67,"time":81.44895833333334,"velocity":0.5196850393700787,"duration":1.1750000000000114},{"name":"E2","midi":40,"time":83.63437500000002,"velocity":0.5826771653543307,"duration":8.686458333333334},{"name":"C#5","midi":73,"time":83.65208333333335,"velocity":0.7716535433070866,"duration":0.6020833333333258},{"name":"A#4","midi":70,"time":84.20625000000001,"velocity":0.5984251968503937,"duration":1.80416666666666},{"name":"G#4","midi":68,"time":84.68541666666668,"velocity":0.7007874015748031,"duration":0.1041666666666714},{"name":"E3","midi":52,"time":84.70104166666668,"velocity":0.5118110236220472,"duration":2.897916666666646},{"name":"C#4","midi":61,"time":84.71250000000002,"velocity":0.4881889763779528,"duration":2.116666666666646},{"name":"G4","midi":67,"time":84.82708333333335,"velocity":0.5433070866141733,"duration":1.4843749999999858},{"name":"A#4","midi":70,"time":86.26041666666667,"velocity":0.6535433070866141,"duration":0.1979166666666572},{"name":"G#4","midi":68,"time":86.440625,"velocity":0.5590551181102362,"duration":0.23541666666666572},{"name":"A#4","midi":70,"time":86.64791666666666,"velocity":0.6141732283464567,"duration":0.5},{"name":"G4","midi":67,"time":87.24583333333332,"velocity":0.7322834645669292,"duration":0.5822916666666771},{"name":"F4","midi":65,"time":87.91875,"velocity":0.5826771653543307,"duration":0.2749999999999915},{"name":"C#4","midi":61,"time":87.92291666666667,"velocity":0.4566929133858268,"duration":1.403125000000017},{"name":"E3","midi":52,"time":87.93333333333334,"velocity":0.5196850393700787,"duration":2.17395833333336},{"name":"E4","midi":64,"time":88.14375,"velocity":0.6535433070866141,"duration":1.1979166666666856},{"name":"G4","midi":67,"time":88.246875,"velocity":0.3464566929133858,"duration":0.8000000000000114},{"name":"G4","midi":67,"time":89.33541666666669,"velocity":0.5905511811023622,"duration":0.20729166666666288},{"name":"F4","midi":65,"time":89.51666666666668,"velocity":0.5748031496062992,"duration":0.17395833333334565},{"name":"G4","midi":67,"time":89.66041666666669,"velocity":0.7795275590551181,"duration":1.9000000000000057},{"name":"E4","midi":64,"time":90.03333333333336,"velocity":0.7401574803149606,"duration":0.4072916666666657},{"name":"D4","midi":62,"time":90.53125000000003,"velocity":0.5511811023622047,"duration":0.21250000000000568},{"name":"E3","midi":52,"time":90.54062500000003,"velocity":0.5511811023622047,"duration":1.7854166666666487},{"name":"G3","midi":55,"time":90.5572916666667,"velocity":0.5275590551181102,"duration":0.9770833333333258},{"name":"C#4","midi":61,"time":90.6979166666667,"velocity":0.6377952755905512,"duration":0.8677083333333258},{"name":"A#4","midi":70,"time":92.13020833333336,"velocity":0.7795275590551181,"duration":0.21041666666666003},{"name":"A4","midi":69,"time":92.28437500000003,"velocity":0.7795275590551181,"duration":0.16562499999999147},{"name":"F#2","midi":42,"time":92.51562500000001,"velocity":0.5826771653543307,"duration":4.417708333333351},{"name":"A4","midi":69,"time":92.55104166666668,"velocity":0.8346456692913385,"duration":0.40625},{"name":"C5","midi":72,"time":92.93020833333334,"velocity":0.6929133858267716,"duration":0.15208333333333712},{"name":"A#4","midi":70,"time":93.03750000000001,"velocity":0.6220472440944882,"duration":0.15000000000000568},{"name":"A4","midi":69,"time":93.15833333333335,"velocity":0.5275590551181102,"duration":2.2843750000000114},{"name":"A#4","midi":70,"time":93.29270833333335,"velocity":0.7165354330708661,"duration":0.19479166666667425},{"name":"C5","midi":72,"time":93.45833333333336,"velocity":0.7165354330708661,"duration":2.1552083333333343},{"name":"A3","midi":57,"time":93.86354166666669,"velocity":0.5984251968503937,"duration":2.9406250000000114},{"name":"D4","midi":62,"time":93.87395833333336,"velocity":0.6535433070866141,"duration":1.5},{"name":"E4","midi":64,"time":95.39687500000002,"velocity":0.5826771653543307,"duration":0.125},{"name":"F#4","midi":66,"time":95.55312500000002,"velocity":0.8031496062992126,"duration":0.1145833333333286},{"name":"G4","midi":67,"time":95.77708333333335,"velocity":0.6220472440944882,"duration":0.14791666666666003},{"name":"F#4","midi":66,"time":95.92187500000001,"velocity":0.5354330708661418,"duration":0.12187500000000284},{"name":"G4","midi":67,"time":96.04479166666668,"velocity":0.5826771653543307,"duration":0.09479166666666572},{"name":"F#4","midi":66,"time":96.12500000000001,"velocity":0.6220472440944882,"duration":0.11145833333333144},{"name":"G4","midi":67,"time":96.22187500000001,"velocity":0.6929133858267716,"duration":0.08229166666666288},{"name":"F#4","midi":66,"time":96.30312500000001,"velocity":0.6062992125984252,"duration":0.09687500000001137},{"name":"G4","midi":67,"time":96.39062500000001,"velocity":0.6929133858267716,"duration":0.06770833333334281},{"name":"F#4","midi":66,"time":96.47500000000002,"velocity":0.5590551181102362,"duration":0.06666666666666288},{"name":"G4","midi":67,"time":96.54270833333335,"velocity":0.5826771653543307,"duration":0.11875000000000568},{"name":"F#4","midi":66,"time":96.62916666666669,"velocity":0.6692913385826772,"duration":0.16562500000000568},{"name":"E4","midi":64,"time":96.78541666666669,"velocity":0.5748031496062992,"duration":0.18437500000001705},{"name":"F#4","midi":66,"time":96.94375000000004,"velocity":0.6141732283464567,"duration":0.16875000000000284},{"name":"F2","midi":41,"time":97.3197916666667,"velocity":0.41732283464566927,"duration":1.2562500000000085},{"name":"B3","midi":59,"time":97.37083333333337,"velocity":0.5196850393700787,"duration":0.8802083333333428},{"name":"D4","midi":62,"time":97.4166666666667,"velocity":0.5590551181102362,"duration":1.1281250000000114},{"name":"G4","midi":67,"time":97.52187500000004,"velocity":0.6062992125984252,"duration":5.875},{"name":"B2","midi":47,"time":97.9260416666667,"velocity":0.6771653543307087,"duration":0.46875},{"name":"D3","midi":50,"time":98.32395833333338,"velocity":0.5748031496062992,"duration":0.5187499999999972},{"name":"B3","midi":59,"time":98.35833333333338,"velocity":0.5669291338582677,"duration":1.4197916666666686},{"name":"F4","midi":65,"time":98.37500000000004,"velocity":0.6456692913385826,"duration":1.6770833333333286},{"name":"F3","midi":53,"time":98.8010416666667,"velocity":0.6771653543307087,"duration":0.3958333333333286},{"name":"G#3","midi":56,"time":99.15937500000004,"velocity":0.6456692913385826,"duration":0.45000000000000284},{"name":"D3","midi":50,"time":99.56875000000004,"velocity":0.6299212598425197,"duration":0.41979166666666856},{"name":"D#4","midi":63,"time":99.96250000000005,"velocity":0.6535433070866141,"duration":0.7718749999999801},{"name":"D#3","midi":51,"time":99.96875000000004,"velocity":0.5984251968503937,"duration":0.4489583333333229},{"name":"C4","midi":60,"time":99.9729166666667,"velocity":0.6141732283464567,"duration":0.6343749999999915},{"name":"B2","midi":47,"time":100.38333333333337,"velocity":0.7480314960629921,"duration":0.3999999999999915},{"name":"C3","midi":48,"time":100.77708333333337,"velocity":0.6456692913385826,"duration":0.5437499999999886},{"name":"C4","midi":60,"time":100.82708333333336,"velocity":0.6456692913385826,"duration":1.5364583333333286},{"name":"D#4","midi":63,"time":100.83437500000002,"velocity":0.5669291338582677,"duration":1.5031249999999972},{"name":"G#2","midi":44,"time":101.21250000000002,"velocity":0.7874015748031497,"duration":0.4989583333333343},{"name":"F#2","midi":42,"time":101.65625000000001,"velocity":0.7086614173228346,"duration":0.5906250000000028},{"name":"G2","midi":43,"time":102.21666666666668,"velocity":0.6771653543307087,"duration":0.6885416666666799},{"name":"C#2","midi":37,"time":102.84270833333336,"velocity":0.5984251968503937,"duration":1.5697916666666742},{"name":"E4","midi":64,"time":102.8541666666667,"velocity":0.6220472440944882,"duration":0.5427083333333371},{"name":"A#3","midi":58,"time":102.8697916666667,"velocity":0.5511811023622047,"duration":0.859375},{"name":"A4","midi":69,"time":103.68333333333337,"velocity":0.5984251968503937,"duration":0.27916666666666856},{"name":"A#4","midi":70,"time":103.98958333333337,"velocity":0.5590551181102362,"duration":0.3291666666666657},{"name":"G4","midi":67,"time":104.25625000000004,"velocity":0.6771653543307087,"duration":0.2916666666666714},{"name":"D2","midi":38,"time":104.51458333333338,"velocity":0.6062992125984252,"duration":2.058333333333323},{"name":"F#4","midi":66,"time":104.56250000000004,"velocity":0.5354330708661418,"duration":0.2802083333333343},{"name":"G4","midi":67,"time":104.81875000000004,"velocity":0.6614173228346457,"duration":0.2645833333333485},{"name":"C#4","midi":61,"time":105.04166666666671,"velocity":0.6141732283464567,"duration":0.33541666666666003},{"name":"A#4","midi":70,"time":105.27604166666671,"velocity":0.5826771653543307,"duration":0.37187499999998863},{"name":"D3","midi":50,"time":105.6135416666667,"velocity":0.44881889763779526,"duration":1.4104166666666487},{"name":"C4","midi":60,"time":105.63750000000005,"velocity":0.5826771653543307,"duration":1.0833333333333144},{"name":"D4","midi":62,"time":105.64166666666671,"velocity":0.5433070866141733,"duration":1.06979166666666},{"name":"G4","midi":67,"time":105.6479166666667,"velocity":0.6614173228346457,"duration":0.7312500000000028},{"name":"A4","midi":69,"time":106.40208333333337,"velocity":0.6929133858267716,"duration":0.23125000000000284},{"name":"F#4","midi":66,"time":106.62812500000004,"velocity":0.7874015748031497,"duration":0.09062499999998863},{"name":"G2","midi":43,"time":106.92708333333336,"velocity":0.6299212598425197,"duration":3.9604166666666742},{"name":"C4","midi":60,"time":107.01145833333335,"velocity":0.6377952755905512,"duration":0.7781250000000028},{"name":"D4","midi":62,"time":107.01458333333335,"velocity":0.5511811023622047,"duration":1.0562500000000057},{"name":"G4","midi":67,"time":107.02395833333335,"velocity":0.6141732283464567,"duration":1.4166666666666714},{"name":"A3","midi":57,"time":107.71250000000002,"velocity":0.5354330708661418,"duration":0.8614583333333314},{"name":"G3","midi":55,"time":108.49270833333335,"velocity":0.5039370078740157,"duration":2.4916666666666742},{"name":"A#3","midi":58,"time":108.52500000000002,"velocity":0.5275590551181102,"duration":2.1510416666666714},{"name":"G4","midi":67,"time":108.52708333333335,"velocity":0.7007874015748031,"duration":2.500000000000014},{"name":"D4","midi":62,"time":108.53333333333335,"velocity":0.6377952755905512,"duration":2.1364583333333513},{"name":"A#3","midi":58,"time":111.4385416666667,"velocity":0.5275590551181102,"duration":4.033333333333303},{"name":"F3","midi":53,"time":111.44375000000002,"velocity":0.5905511811023622,"duration":4.09999999999998},{"name":"A#4","midi":70,"time":111.45520833333336,"velocity":0.6614173228346457,"duration":0.6812500000000057},{"name":"F4","midi":65,"time":111.45625000000003,"velocity":0.7007874015748031,"duration":0.75},{"name":"D3","midi":50,"time":111.46041666666669,"velocity":0.5275590551181102,"duration":4.161458333333314},{"name":"D5","midi":74,"time":112.0260416666667,"velocity":0.7480314960629921,"duration":0.2604166666666572},{"name":"F4","midi":65,"time":112.52083333333336,"velocity":0.5118110236220472,"duration":0.9677083333333343},{"name":"A#4","midi":70,"time":112.58645833333335,"velocity":0.5039370078740157,"duration":0.9697916666666657},{"name":"D5","midi":74,"time":112.6572916666667,"velocity":0.7480314960629921,"duration":0.9499999999999886},{"name":"F5","midi":77,"time":112.73854166666669,"velocity":0.7480314960629921,"duration":0.8812499999999943},{"name":"G5","midi":79,"time":113.80833333333335,"velocity":0.937007874015748,"duration":0.24166666666666003},{"name":"F5","midi":77,"time":114.03437500000001,"velocity":0.7401574803149606,"duration":0.23854166666666288},{"name":"D#5","midi":75,"time":114.20937500000001,"velocity":0.7244094488188977,"duration":0.20729166666666288},{"name":"D5","midi":74,"time":114.37395833333333,"velocity":0.7401574803149606,"duration":0.1614583333333286},{"name":"C5","midi":72,"time":114.53020833333333,"velocity":0.6771653543307087,"duration":0.13333333333332575},{"name":"A#4","midi":70,"time":114.69895833333332,"velocity":0.7007874015748031,"duration":0.10729166666665435},{"name":"G#4","midi":68,"time":114.79999999999998,"velocity":0.7007874015748031,"duration":0.11041666666666572},{"name":"A#4","midi":70,"time":114.88124999999998,"velocity":0.7007874015748031,"duration":0.08958333333333712},{"name":"G4","midi":67,"time":114.96562499999999,"velocity":0.7007874015748031,"duration":0.12187499999998863},{"name":"G#4","midi":68,"time":115.08437499999998,"velocity":0.7401574803149606,"duration":0.21041666666667425},{"name":"F4","midi":65,"time":115.24895833333332,"velocity":0.7952755905511811,"duration":0.18125000000000568},{"name":"G4","midi":67,"time":115.40208333333332,"velocity":0.8031496062992126,"duration":0.19479166666667425},{"name":"B2","midi":47,"time":115.840625,"velocity":0.5433070866141733,"duration":6.060416666666683},{"name":"G3","midi":55,"time":115.85104166666667,"velocity":0.5590551181102362,"duration":2.887500000000003},{"name":"D4","midi":62,"time":115.87083333333334,"velocity":0.6535433070866141,"duration":1.13333333333334},{"name":"G4","midi":67,"time":115.87083333333334,"velocity":0.6299212598425197,"duration":1.16458333333334},{"name":"F4","midi":65,"time":115.871875,"velocity":0.6456692913385826,"duration":1.1218750000000028},{"name":"D5","midi":74,"time":117.64687500000001,"velocity":0.7637795275590551,"duration":0.4572916666666771},{"name":"C5","midi":72,"time":117.98333333333335,"velocity":0.6771653543307087,"duration":0.2562500000000085},{"name":"B4","midi":71,"time":118.24375000000002,"velocity":0.7874015748031497,"duration":0.15000000000000568},{"name":"D5","midi":74,"time":118.49062500000002,"velocity":0.7165354330708661,"duration":0.12916666666666288},{"name":"F5","midi":77,"time":118.59166666666668,"velocity":0.6456692913385826,"duration":0.15937499999999716},{"name":"G#5","midi":80,"time":118.70104166666668,"velocity":0.6614173228346457,"duration":0.7333333333333343},{"name":"F3","midi":53,"time":118.70416666666668,"velocity":0.5748031496062992,"duration":0.9114583333333428},{"name":"D#3","midi":51,"time":119.77395833333335,"velocity":0.5590551181102362,"duration":0.2604166666666572},{"name":"G#5","midi":80,"time":119.81562500000003,"velocity":0.7322834645669292,"duration":0.23333333333332007},{"name":"F3","midi":53,"time":120.00833333333335,"velocity":0.5118110236220472,"duration":0.13229166666664582},{"name":"G5","midi":79,"time":120.02812500000002,"velocity":0.7795275590551181,"duration":0.10624999999998863},{"name":"G#5","midi":80,"time":120.12395833333335,"velocity":0.6614173228346457,"duration":0.08541666666664582},{"name":"D#3","midi":51,"time":120.12812500000001,"velocity":0.5748031496062992,"duration":0.10416666666664298},{"name":"G5","midi":79,"time":120.20416666666667,"velocity":0.6141732283464567,"duration":0.07499999999998863},{"name":"F3","midi":53,"time":120.225,"velocity":0.5984251968503937,"duration":0.11145833333333144},{"name":"G#5","midi":80,"time":120.26666666666665,"velocity":0.6220472440944882,"duration":0.07500000000000284},{"name":"D#3","midi":51,"time":120.30624999999999,"velocity":0.6220472440944882,"duration":0.8104166666666828},{"name":"G5","midi":79,"time":120.31145833333332,"velocity":0.6614173228346457,"duration":0.7927083333333513},{"name":"D3","midi":50,"time":121.05416666666666,"velocity":0.5354330708661418,"duration":1.0979166666666913},{"name":"F5","midi":77,"time":121.0625,"velocity":0.6850393700787402,"duration":0.2697916666666771},{"name":"G5","midi":79,"time":121.35416666666667,"velocity":0.5590551181102362,"duration":0.09895833333334281},{"name":"G#5","midi":80,"time":121.42812500000001,"velocity":0.6771653543307087,"duration":0.13125000000000853},{"name":"G5","midi":79,"time":121.50000000000001,"velocity":0.6299212598425197,"duration":0.234375},{"name":"F5","midi":77,"time":121.72291666666668,"velocity":0.7007874015748031,"duration":0.10000000000000853},{"name":"F5","midi":77,"time":122.10625000000002,"velocity":0.5590551181102362,"duration":0.21250000000000568},{"name":"G4","midi":67,"time":122.10729166666668,"velocity":0.7165354330708661,"duration":1.2791666666666828},{"name":"C3","midi":48,"time":122.11979166666669,"velocity":0.41732283464566927,"duration":2.621875000000017},{"name":"D#5","midi":75,"time":122.24895833333335,"velocity":0.6535433070866141,"duration":1.0062500000000227},{"name":"G3","midi":55,"time":123.0541666666667,"velocity":0.5669291338582677,"duration":1.0249999999999915},{"name":"D5","midi":74,"time":123.52395833333337,"velocity":0.6929133858267716,"duration":0.1979166666666714},{"name":"F4","midi":65,"time":123.53645833333337,"velocity":0.6456692913385826,"duration":0.4749999999999943},{"name":"C5","midi":72,"time":123.99062500000004,"velocity":0.48031496062992124,"duration":0.6062499999999886},{"name":"C4","midi":60,"time":124.0322916666667,"velocity":0.5905511811023622,"duration":0.6072916666666686},{"name":"D#4","midi":63,"time":124.03645833333336,"velocity":0.5590551181102362,"duration":0.44062499999999716},{"name":"F#2","midi":42,"time":125.14583333333337,"velocity":0.6220472440944882,"duration":0.7989583333333314},{"name":"C5","midi":72,"time":125.18854166666671,"velocity":0.7165354330708661,"duration":0.80416666666666},{"name":"D#5","midi":75,"time":125.19270833333337,"velocity":0.7165354330708661,"duration":12.604166666666714},{"name":"A4","midi":69,"time":125.20000000000003,"velocity":0.7244094488188977,"duration":0.5166666666666657},{"name":"A2","midi":45,"time":125.62500000000003,"velocity":0.6456692913385826,"duration":0.484375},{"name":"C3","midi":48,"time":126.0666666666667,"velocity":0.5984251968503937,"duration":0.4635416666666572},{"name":"F#4","midi":66,"time":126.10520833333337,"velocity":0.5590551181102362,"duration":1.7708333333333144},{"name":"A4","midi":69,"time":126.10937500000003,"velocity":0.6456692913385826,"duration":1.78020833333332},{"name":"D#3","midi":51,"time":126.48750000000003,"velocity":0.6692913385826772,"duration":0.31562499999999716},{"name":"D3","midi":50,"time":126.75625000000002,"velocity":0.6771653543307087,"duration":0.28854166666666003},{"name":"C3","midi":48,"time":126.99687500000002,"velocity":0.6062992125984252,"duration":0.2906249999999915},{"name":"A#2","midi":46,"time":127.23854166666668,"velocity":0.6456692913385826,"duration":0.2906250000000057},{"name":"A2","midi":45,"time":127.45729166666668,"velocity":0.7165354330708661,"duration":0.2614583333333371},{"name":"G2","midi":43,"time":127.66875000000002,"velocity":0.7480314960629921,"duration":0.21666666666666856},{"name":"A2","midi":45,"time":127.92187500000001,"velocity":0.6220472440944882,"duration":0.1833333333333229},{"name":"F#2","midi":42,"time":128.04479166666667,"velocity":0.6771653543307087,"duration":0.3177083333333428},{"name":"G2","midi":43,"time":128.34583333333333,"velocity":0.5826771653543307,"duration":0.5666666666666629},{"name":"A#4","midi":70,"time":128.353125,"velocity":0.6377952755905512,"duration":0.6510416666666572},{"name":"C#5","midi":73,"time":128.35729166666667,"velocity":0.6141732283464567,"duration":3.1999999999999886},{"name":"A#2","midi":46,"time":128.78333333333333,"velocity":0.8740157480314961,"duration":0.36145833333333144},{"name":"C#3","midi":49,"time":129.134375,"velocity":0.5826771653543307,"duration":0.3739583333332632},{"name":"A#4","midi":70,"time":129.15729166666665,"velocity":0.6299212598425197,"duration":2.63854166666664},{"name":"G4","midi":67,"time":129.16979166666664,"velocity":0.6299212598425197,"duration":2.417708333333337},{"name":"C3","midi":48,"time":129.4572916666666,"velocity":0.5433070866141733,"duration":0.3552083333333371},{"name":"C#3","midi":49,"time":129.74374999999995,"velocity":0.6535433070866141,"duration":0.328125},{"name":"F3","midi":53,"time":130.0041666666666,"velocity":0.7401574803149606,"duration":0.33437500000002274},{"name":"D#3","midi":51,"time":130.29166666666663,"velocity":0.6771653543307087,"duration":0.37604166666667993},{"name":"C#3","midi":49,"time":130.61979166666663,"velocity":0.6456692913385826,"duration":0.3072916666666856},{"name":"C3","midi":48,"time":130.90416666666664,"velocity":0.6850393700787402,"duration":0.2614583333333371},{"name":"A#2","midi":46,"time":131.12395833333332,"velocity":0.5590551181102362,"duration":0.19999999999998863},{"name":"G#2","midi":44,"time":131.34687499999998,"velocity":0.7874015748031497,"duration":0.17395833333333144},{"name":"A#2","midi":46,"time":131.54999999999998,"velocity":0.7795275590551181,"duration":0.18749999999997158},{"name":"G2","midi":43,"time":131.67604166666663,"velocity":0.7007874015748031,"duration":0.33958333333336554},{"name":"G#2","midi":44,"time":131.96874999999997,"velocity":0.6692913385826772,"duration":0.7822916666667084},{"name":"B4","midi":71,"time":131.97395833333331,"velocity":0.6377952755905512,"duration":1.592708333333377},{"name":"F4","midi":65,"time":131.97916666666666,"velocity":0.6456692913385826,"duration":5.709375000000108},{"name":"A#2","midi":46,"time":132.50104166666668,"velocity":0.6141732283464567,"duration":0.32500000000001705},{"name":"B2","midi":47,"time":132.8010416666667,"velocity":0.6141732283464567,"duration":0.37291666666666856},{"name":"D3","midi":50,"time":133.10416666666669,"velocity":0.6377952755905512,"duration":0.4124999999999943},{"name":"F3","midi":53,"time":133.48020833333337,"velocity":0.5590551181102362,"duration":0.36249999999998295},{"name":"G#4","midi":68,"time":133.5041666666667,"velocity":0.5669291338582677,"duration":1.5364583333333712},{"name":"D#3","midi":51,"time":133.81250000000003,"velocity":0.6456692913385826,"duration":0.2041666666666515},{"name":"D3","midi":50,"time":133.96562500000002,"velocity":0.6614173228346457,"duration":0.18958333333333144},{"name":"F3","midi":53,"time":134.13020833333334,"velocity":0.7007874015748031,"duration":0.3697916666666856},{"name":"D3","midi":50,"time":134.45208333333335,"velocity":0.6771653543307087,"duration":0.44479166666670267},{"name":"B2","midi":47,"time":134.8760416666667,"velocity":0.6614173228346457,"duration":0.7968750000000568},{"name":"A#4","midi":70,"time":134.8770833333334,"velocity":0.6771653543307087,"duration":0.715625000000017},{"name":"A#2","midi":46,"time":135.64062500000009,"velocity":0.5590551181102362,"duration":0.3989583333333542},{"name":"B4","midi":71,"time":135.71145833333344,"velocity":0.6771653543307087,"duration":0.5374999999999943},{"name":"B2","midi":47,"time":136.0437500000001,"velocity":0.6299212598425197,"duration":0.19895833333333712},{"name":"G#2","midi":44,"time":136.20520833333345,"velocity":0.7165354330708661,"duration":0.3697916666666572},{"name":"B4","midi":71,"time":136.38541666666677,"velocity":0.3937007874015748,"duration":0.8947916666666629},{"name":"D#3","midi":51,"time":136.50729166666676,"velocity":0.6456692913385826,"duration":1.6760416666666629},{"name":"G#4","midi":68,"time":137.17916666666676,"velocity":0.5826771653543307,"duration":0.8541666666666572},{"name":"D#2","midi":39,"time":138.00729166666676,"velocity":0.5039370078740157,"duration":1.8364583333333258},{"name":"A#4","midi":70,"time":138.05208333333343,"velocity":0.5118110236220472,"duration":1.67083333333332},{"name":"G4","midi":67,"time":138.0562500000001,"velocity":0.5826771653543307,"duration":1.63958333333332},{"name":"D#5","midi":75,"time":138.06979166666676,"velocity":0.7007874015748031,"duration":1.7510416666666515},{"name":"E2","midi":40,"time":140.14062500000009,"velocity":0.5590551181102362,"duration":10.563541666666566},{"name":"C#5","midi":73,"time":140.1500000000001,"velocity":0.6850393700787402,"duration":0.5427083333333371},{"name":"B4","midi":71,"time":140.68854166666677,"velocity":0.7244094488188977,"duration":0.3010416666666629},{"name":"A#4","midi":70,"time":141.02708333333342,"velocity":0.9212598425196851,"duration":1.7593750000000057},{"name":"E3","midi":52,"time":141.42708333333343,"velocity":0.5590551181102362,"duration":2.6468749999999943},{"name":"C#4","midi":61,"time":141.45729166666675,"velocity":0.5354330708661418,"duration":1.3500000000000227},{"name":"G#4","midi":68,"time":141.45833333333343,"velocity":0.4881889763779528,"duration":0.18124999999997726},{"name":"G4","midi":67,"time":141.60416666666674,"velocity":0.7086614173228346,"duration":0.7479166666666686},{"name":"G4","midi":67,"time":142.54479166666675,"velocity":0.7165354330708661,"duration":0.26770833333335986},{"name":"G#4","midi":68,"time":142.75729166666676,"velocity":0.6692913385826772,"duration":0.11041666666667993},{"name":"A#4","midi":70,"time":142.99166666666676,"velocity":0.8031496062992126,"duration":0.1302083333333428},{"name":"G#4","midi":68,"time":143.1593750000001,"velocity":0.4330708661417323,"duration":0.0625},{"name":"A#4","midi":70,"time":143.23333333333343,"velocity":0.5669291338582677,"duration":0.037499999999994316},{"name":"G#4","midi":68,"time":143.28958333333344,"velocity":0.6062992125984252,"duration":0.08958333333333712},{"name":"A#4","midi":70,"time":143.35833333333343,"velocity":0.8188976377952756,"duration":0.140625},{"name":"G#4","midi":68,"time":143.46145833333344,"velocity":0.6535433070866141,"duration":0.11145833333333144},{"name":"G4","midi":67,"time":143.61770833333344,"velocity":0.5748031496062992,"duration":0.21562499999998863},{"name":"G#4","midi":68,"time":143.79166666666677,"velocity":0.6614173228346457,"duration":0.26458333333332007},{"name":"A#4","midi":70,"time":144.02083333333343,"velocity":0.7007874015748031,"duration":0.25},{"name":"G#4","midi":68,"time":144.23437500000009,"velocity":0.5826771653543307,"duration":0.13333333333335418},{"name":"G4","midi":67,"time":144.3812500000001,"velocity":0.5433070866141733,"duration":0.13437499999997726},{"name":"G#4","midi":68,"time":144.48541666666677,"velocity":0.7480314960629921,"duration":0.13437499999997726},{"name":"G4","midi":67,"time":144.67500000000007,"velocity":0.6299212598425197,"duration":2.052083333333343},{"name":"F4","midi":65,"time":144.7583333333334,"velocity":0.6692913385826772,"duration":0.13333333333332575},{"name":"E3","midi":52,"time":145.00000000000006,"velocity":0.5354330708661418,"duration":3.38854166666664},{"name":"F4","midi":65,"time":145.02395833333338,"velocity":0.6377952755905512,"duration":0.2072916666666913},{"name":"C#4","midi":61,"time":145.02812500000005,"velocity":0.5196850393700787,"duration":2.0072916666666742},{"name":"E4","midi":64,"time":145.1989583333334,"velocity":0.7086614173228346,"duration":1.5031250000000114},{"name":"G4","midi":67,"time":146.65937500000007,"velocity":0.6220472440944882,"duration":0.24062499999999432},{"name":"F4","midi":65,"time":146.84479166666674,"velocity":0.6771653543307087,"duration":0.3291666666666515},{"name":"A4","midi":69,"time":147.1260416666667,"velocity":0.7795275590551181,"duration":0.16250000000002274},{"name":"G4","midi":67,"time":147.25000000000006,"velocity":0.6771653543307087,"duration":0.11041666666667993},{"name":"G4","midi":67,"time":147.4020833333334,"velocity":0.9212598425196851,"duration":0.18437499999998863},{"name":"A4","midi":69,"time":147.55520833333338,"velocity":0.7637795275590551,"duration":0.11979166666665719},{"name":"A#4","midi":70,"time":147.6479166666667,"velocity":0.8031496062992126,"duration":0.1260416666666515},{"name":"A4","midi":69,"time":147.7479166666667,"velocity":0.8031496062992126,"duration":0.08020833333333144},{"name":"G4","midi":67,"time":147.82083333333335,"velocity":0.5984251968503937,"duration":0.11145833333333144},{"name":"F4","midi":65,"time":147.90833333333336,"velocity":0.8582677165354331,"duration":0.13333333333332575},{"name":"E4","midi":64,"time":148.01250000000002,"velocity":0.7086614173228346,"duration":0.20729166666666288},{"name":"F4","midi":65,"time":148.19375000000002,"velocity":0.8503937007874016,"duration":0.13229166666667425},{"name":"G4","midi":67,"time":148.29375000000002,"velocity":0.7165354330708661,"duration":0.20937500000002274},{"name":"G3","midi":55,"time":148.49270833333335,"velocity":0.6456692913385826,"duration":1.0093750000000057},{"name":"D4","midi":62,"time":148.49375000000003,"velocity":0.7401574803149606,"duration":0.20729166666666288},{"name":"E3","midi":52,"time":148.49895833333338,"velocity":0.6141732283464567,"duration":2.3114583333332632},{"name":"C#4","midi":61,"time":148.63437500000003,"velocity":0.6929133858267716,"duration":0.9593749999999943},{"name":"E4","midi":64,"time":149.81875000000002,"velocity":0.7165354330708661,"duration":0.39270833333333144},{"name":"G4","midi":67,"time":150.13333333333335,"velocity":0.9212598425196851,"duration":0.37812499999998295},{"name":"A#4","midi":70,"time":150.43645833333335,"velocity":0.8188976377952756,"duration":0.20104166666664014},{"name":"A4","midi":69,"time":150.58854166666666,"velocity":0.7401574803149606,"duration":0.15312499999998863},{"name":"F#2","midi":42,"time":150.83229166666663,"velocity":0.7007874015748031,"duration":3.860416666666623},{"name":"A4","midi":69,"time":150.89999999999995,"velocity":1,"duration":0.31354166666667993},{"name":"C5","midi":72,"time":151.1770833333333,"velocity":0.7637795275590551,"duration":0.10416666666668561},{"name":"A#4","midi":70,"time":151.2927083333333,"velocity":0.6299212598425197,"duration":0.16770833333333712},{"name":"A4","midi":69,"time":151.42499999999998,"velocity":0.6850393700787402,"duration":1.9020833333332803},{"name":"A#4","midi":70,"time":151.55624999999998,"velocity":0.7244094488188977,"duration":0.10624999999998863},{"name":"C5","midi":72,"time":151.64999999999998,"velocity":0.6377952755905512,"duration":1.5187499999999545},{"name":"A3","midi":57,"time":151.88437499999995,"velocity":0.6535433070866141,"duration":2.7281249999999773},{"name":"D4","midi":62,"time":151.88749999999996,"velocity":0.7244094488188977,"duration":0.6135416666666629},{"name":"D4","midi":62,"time":152.7479166666666,"velocity":0.7401574803149606,"duration":0.20520833333333144},{"name":"E4","midi":64,"time":152.91770833333328,"velocity":0.7244094488188977,"duration":0.1979166666666572},{"name":"F#4","midi":66,"time":153.0729166666666,"velocity":0.8188976377952756,"duration":0.140625},{"name":"G4","midi":67,"time":153.2447916666666,"velocity":0.6929133858267716,"duration":0.15416666666666856},{"name":"F#4","midi":66,"time":153.38749999999993,"velocity":0.8188976377952756,"duration":0.11666666666667425},{"name":"G4","midi":67,"time":153.5052083333333,"velocity":0.5354330708661418,"duration":0.09270833333332007},{"name":"F#4","midi":66,"time":153.5760416666666,"velocity":0.7244094488188977,"duration":0.10833333333332007},{"name":"G4","midi":67,"time":153.6947916666666,"velocity":0.5039370078740157,"duration":0.09270833333332007},{"name":"F#4","midi":66,"time":153.75208333333325,"velocity":0.7244094488188977,"duration":0.10416666666668561},{"name":"G4","midi":67,"time":153.85312499999992,"velocity":0.5748031496062992,"duration":0.10416666666668561},{"name":"F#4","midi":66,"time":153.9322916666666,"velocity":0.7165354330708661,"duration":0.07083333333332575},{"name":"G4","midi":67,"time":154.02187499999994,"velocity":0.7007874015748031,"duration":0.08333333333331439},{"name":"F#4","midi":66,"time":154.09270833333326,"velocity":0.4645669291338583,"duration":0.078125},{"name":"G4","midi":67,"time":154.16874999999993,"velocity":0.7007874015748031,"duration":0.05208333333334281},{"name":"F#4","midi":66,"time":154.24895833333326,"velocity":0.7165354330708661,"duration":0.2822916666666515},{"name":"E4","midi":64,"time":154.48749999999993,"velocity":0.6377952755905512,"duration":0.2239583333333428},{"name":"F#4","midi":66,"time":154.66458333333327,"velocity":0.8110236220472441,"duration":0.12083333333333712},{"name":"F2","midi":41,"time":154.9322916666666,"velocity":0.5354330708661418,"duration":0.4999999999999716},{"name":"D4","midi":62,"time":154.98437499999994,"velocity":0.5748031496062992,"duration":1.0406249999999488},{"name":"B3","midi":59,"time":154.99270833333327,"velocity":0.5590551181102362,"duration":0.6874999999999716},{"name":"G4","midi":67,"time":155.03749999999994,"velocity":0.7165354330708661,"duration":7.280208333333263},{"name":"B2","midi":47,"time":155.48437499999991,"velocity":0.6692913385826772,"duration":0.5145833333333201},{"name":"D3","midi":50,"time":155.92291666666657,"velocity":0.6771653543307087,"duration":0.48333333333332007},{"name":"F4","midi":65,"time":155.96666666666655,"velocity":0.6456692913385826,"duration":1.82708333333332},{"name":"B3","midi":59,"time":155.96979166666657,"velocity":0.6062992125984252,"duration":1.60833333333332},{"name":"F3","midi":53,"time":156.3677083333332,"velocity":0.5984251968503937,"duration":0.38854166666666856},{"name":"G#3","midi":56,"time":156.72083333333322,"velocity":0.7401574803149606,"duration":0.23229166666666856},{"name":"G3","midi":55,"time":156.93958333333322,"velocity":0.6614173228346457,"duration":0.16458333333335418},{"name":"F3","midi":53,"time":157.0718749999999,"velocity":0.7165354330708661,"duration":0.16458333333335418},{"name":"D#3","midi":51,"time":157.18854166666657,"velocity":0.6929133858267716,"duration":0.16249999999999432},{"name":"F3","midi":53,"time":157.32916666666657,"velocity":0.6614173228346457,"duration":0.18958333333333144},{"name":"D3","midi":50,"time":157.47604166666656,"velocity":0.8031496062992126,"duration":0.33124999999998295},{"name":"D#3","midi":51,"time":157.80104166666655,"velocity":0.6456692913385826,"duration":0.37708333333333144},{"name":"D#4","midi":63,"time":157.83541666666653,"velocity":0.8582677165354331,"duration":0.809375000000017},{"name":"C4","midi":60,"time":157.8364583333332,"velocity":0.6771653543307087,"duration":0.8843750000000057},{"name":"D3","midi":50,"time":158.1177083333332,"velocity":0.7165354330708661,"duration":0.23854166666666288},{"name":"C3","midi":48,"time":158.31562499999987,"velocity":0.7874015748031497,"duration":0.22812500000000568},{"name":"D3","midi":50,"time":158.5312499999999,"velocity":0.7716535433070866,"duration":0.16249999999999432},{"name":"B2","midi":47,"time":158.65104166666654,"velocity":0.8503937007874016,"duration":0.2197916666666515},{"name":"C3","midi":48,"time":158.81354166666654,"velocity":0.7795275590551181,"duration":0.33229166666663446},{"name":"D#4","midi":63,"time":158.82604166666653,"velocity":0.6141732283464567,"duration":2.2822916666666515},{"name":"C4","midi":60,"time":158.8302083333332,"velocity":0.6614173228346457,"duration":2.229166666666657},{"name":"D#3","midi":51,"time":159.12187499999985,"velocity":0.889763779527559,"duration":0.18645833333332007},{"name":"D3","midi":50,"time":159.3385416666665,"velocity":0.5590551181102362,"duration":0.2333333333333485},{"name":"C3","midi":48,"time":159.54687499999983,"velocity":0.7637795275590551,"duration":0.20000000000001705},{"name":"A#2","midi":46,"time":159.89895833333318,"velocity":0.8346456692913385,"duration":0.2354166666666515},{"name":"G#2","midi":44,"time":160.09062499999985,"velocity":0.6771653543307087,"duration":0.20624999999998295},{"name":"A#2","midi":46,"time":160.2729166666665,"velocity":0.9212598425196851,"duration":0.18125000000000568},{"name":"G2","midi":43,"time":160.4135416666665,"velocity":0.7244094488188977,"duration":0.1770833333333428},{"name":"G#2","midi":44,"time":160.5541666666665,"velocity":0.9212598425196851,"duration":0.18333333333333712},{"name":"F#2","midi":42,"time":160.68749999999983,"velocity":0.6141732283464567,"duration":0.2083333333333428},{"name":"G2","midi":43,"time":160.88437499999984,"velocity":0.7401574803149606,"duration":0.6281250000000114},{"name":"C#2","midi":37,"time":161.5229166666665,"velocity":0.7165354330708661,"duration":1.7916666666666856},{"name":"E4","midi":64,"time":161.53958333333318,"velocity":0.6614173228346457,"duration":0.5989583333333428},{"name":"A#3","midi":58,"time":161.55520833333318,"velocity":0.5826771653543307,"duration":0.6239583333333485},{"name":"A4","midi":69,"time":162.51666666666654,"velocity":0.6692913385826772,"duration":0.328125},{"name":"A#4","midi":70,"time":162.90104166666654,"velocity":0.6929133858267716,"duration":0.3072916666666572},{"name":"G4","midi":67,"time":163.17812499999988,"velocity":0.7637795275590551,"duration":0.16458333333329733},{"name":"D2","midi":38,"time":163.44687499999984,"velocity":0.6299212598425197,"duration":2.647916666666589},{"name":"F#4","midi":66,"time":163.59583333333316,"velocity":0.6692913385826772,"duration":0.3489583333333144},{"name":"G4","midi":67,"time":163.91458333333316,"velocity":0.7165354330708661,"duration":0.3333333333333144},{"name":"C#4","midi":61,"time":164.1749999999998,"velocity":0.8110236220472441,"duration":0.28437499999998295},{"name":"A#4","midi":70,"time":164.41770833333314,"velocity":0.5590551181102362,"duration":0.17812499999999432},{"name":"D3","midi":50,"time":164.79583333333312,"velocity":0.5354330708661418,"duration":1.9770833333332973},{"name":"C4","midi":60,"time":164.83749999999978,"velocity":0.5118110236220472,"duration":1.3447916666666515},{"name":"D4","midi":62,"time":164.84374999999977,"velocity":0.48031496062992124,"duration":1.3177083333333144},{"name":"G4","midi":67,"time":164.84895833333312,"velocity":0.5826771653543307,"duration":0.11562499999999432},{"name":"F#4","midi":66,"time":164.95208333333312,"velocity":0.6377952755905512,"duration":0.11145833333330302},{"name":"G4","midi":67,"time":165.05729166666643,"velocity":0.7401574803149606,"duration":0.831249999999983},{"name":"A4","midi":69,"time":166.2895833333331,"velocity":0.5275590551181102,"duration":0.125},{"name":"F#4","midi":66,"time":166.39999999999978,"velocity":0.889763779527559,"duration":0.10833333333332007},{"name":"G2","midi":43,"time":166.66041666666644,"velocity":0.5039370078740157,"duration":6.04895833333336},{"name":"C4","midi":60,"time":166.7333333333331,"velocity":0.4015748031496063,"duration":0.9947916666666856},{"name":"D4","midi":62,"time":166.7395833333331,"velocity":0.5669291338582677,"duration":1.1895833333333599},{"name":"G4","midi":67,"time":166.7395833333331,"velocity":0.6535433070866141,"duration":1.7927083333333655},{"name":"A3","midi":57,"time":167.6114583333331,"velocity":0.6299212598425197,"duration":0.8854166666666856},{"name":"G3","midi":55,"time":168.63020833333312,"velocity":0.5118110236220472,"duration":4.085416666666674},{"name":"A3","midi":57,"time":168.76562499999977,"velocity":0.5354330708661418,"duration":0.15208333333333712},{"name":"A#3","midi":58,"time":168.82187499999978,"velocity":0.5433070866141733,"duration":3.8270833333333485},{"name":"D4","midi":62,"time":168.9333333333331,"velocity":0.6299212598425197,"duration":3.684375000000017},{"name":"G4","midi":67,"time":169.02083333333312,"velocity":0.5826771653543307,"duration":3.578125}],"controlChanges":{"7":[{"number":7,"time":0,"value":0.905511811023622}],"64":[{"number":64,"time":0.9833333333333333,"value":1},{"number":64,"time":1.0614583333333334,"value":0},{"number":64,"time":2.0947916666666666,"value":1},{"number":64,"time":3.4083333333333337,"value":0},{"number":64,"time":3.5864583333333337,"value":1},{"number":64,"time":5.578125000000001,"value":0},{"number":64,"time":5.6416666666666675,"value":1},{"number":64,"time":6.498958333333333,"value":0},{"number":64,"time":6.71875,"value":1},{"number":64,"time":9.234375000000002,"value":0},{"number":64,"time":9.412500000000001,"value":1},{"number":64,"time":10.524999999999999,"value":0},{"number":64,"time":10.727083333333331,"value":1},{"number":64,"time":12.079166666666664,"value":0},{"number":64,"time":12.31145833333333,"value":1},{"number":64,"time":13.801041666666663,"value":0},{"number":64,"time":13.942708333333329,"value":1},{"number":64,"time":15.046874999999996,"value":0},{"number":64,"time":15.186458333333329,"value":1},{"number":64,"time":16.21875,"value":0},{"number":64,"time":16.377083333333335,"value":1},{"number":64,"time":18.305208333333333,"value":0},{"number":64,"time":18.455208333333335,"value":1},{"number":64,"time":19.496875000000003,"value":0},{"number":64,"time":19.656250000000004,"value":1},{"number":64,"time":22.492708333333336,"value":0},{"number":64,"time":22.625000000000004,"value":1},{"number":64,"time":24.608333333333352,"value":0},{"number":64,"time":24.888541666666686,"value":1},{"number":64,"time":26.559375000000017,"value":0},{"number":64,"time":26.769791666666684,"value":1},{"number":64,"time":29.31458333333335,"value":0},{"number":64,"time":29.49479166666668,"value":1},{"number":64,"time":31.069791666666674,"value":0},{"number":64,"time":31.250000000000007,"value":1},{"number":64,"time":33.62916666666668,"value":0},{"number":64,"time":33.763541666666676,"value":1},{"number":64,"time":34.526041666666686,"value":0},{"number":64,"time":34.71666666666668,"value":1},{"number":64,"time":36.09166666666668,"value":0},{"number":64,"time":36.33854166666668,"value":1},{"number":64,"time":38.11875000000001,"value":0},{"number":64,"time":38.36354166666668,"value":1},{"number":64,"time":41.810416666666676,"value":0},{"number":64,"time":41.995833333333344,"value":1},{"number":64,"time":42.31458333333334,"value":0},{"number":64,"time":42.54375000000001,"value":1},{"number":64,"time":43.47708333333334,"value":0},{"number":64,"time":45.14895833333333,"value":1},{"number":64,"time":46.482291666666654,"value":0},{"number":64,"time":46.65104166666666,"value":1},{"number":64,"time":48.15520833333333,"value":0},{"number":64,"time":48.354166666666664,"value":1},{"number":64,"time":49.39791666666667,"value":0},{"number":64,"time":49.579166666666666,"value":1},{"number":64,"time":52.72604166666666,"value":0},{"number":64,"time":52.89479166666666,"value":1},{"number":64,"time":54.199999999999996,"value":0},{"number":64,"time":54.38437499999999,"value":1},{"number":64,"time":55.20104166666666,"value":0},{"number":64,"time":55.39270833333333,"value":1},{"number":64,"time":56.40416666666666,"value":0},{"number":64,"time":56.58229166666666,"value":1},{"number":64,"time":58.92083333333333,"value":0},{"number":64,"time":59.079166666666666,"value":1},{"number":64,"time":60.25104166666666,"value":0},{"number":64,"time":60.42916666666667,"value":1},{"number":64,"time":63.29791666666669,"value":0},{"number":64,"time":63.479166666666686,"value":1},{"number":64,"time":65.38125000000002,"value":0},{"number":64,"time":65.55208333333336,"value":1},{"number":64,"time":66.3760416666667,"value":0},{"number":64,"time":66.53125000000004,"value":1},{"number":64,"time":67.51458333333336,"value":0},{"number":64,"time":67.67708333333336,"value":1},{"number":64,"time":68.82812500000001,"value":0},{"number":64,"time":69.00937500000002,"value":1},{"number":64,"time":69.99270833333335,"value":0},{"number":64,"time":70.18333333333335,"value":1},{"number":64,"time":70.81458333333335,"value":0},{"number":64,"time":71.03020833333335,"value":1},{"number":64,"time":72.10937500000001,"value":0},{"number":64,"time":72.26458333333335,"value":1},{"number":64,"time":72.95729166666669,"value":0},{"number":64,"time":73.09687500000003,"value":1},{"number":64,"time":73.65104166666669,"value":0},{"number":64,"time":73.78541666666668,"value":1},{"number":64,"time":74.48750000000001,"value":0},{"number":64,"time":74.64062500000001,"value":1},{"number":64,"time":75.36354166666668,"value":0},{"number":64,"time":75.55000000000001,"value":1},{"number":64,"time":76.07395833333332,"value":0},{"number":64,"time":76.20312499999999,"value":1},{"number":64,"time":76.94583333333331,"value":0},{"number":64,"time":77.09374999999997,"value":1},{"number":64,"time":78.20833333333333,"value":0},{"number":64,"time":78.34895833333333,"value":1},{"number":64,"time":78.90208333333334,"value":0},{"number":64,"time":79.01666666666667,"value":1},{"number":64,"time":79.21145833333333,"value":0},{"number":64,"time":79.36770833333333,"value":1},{"number":64,"time":79.96145833333334,"value":0},{"number":64,"time":80.12083333333334,"value":1},{"number":64,"time":81.55520833333334,"value":0},{"number":64,"time":81.734375,"value":1},{"number":64,"time":83.71770833333335,"value":0},{"number":64,"time":83.86562500000001,"value":1},{"number":64,"time":84.95937500000001,"value":0},{"number":64,"time":85.16250000000001,"value":1},{"number":64,"time":86.69479166666666,"value":0},{"number":64,"time":86.84583333333333,"value":1},{"number":64,"time":88.20729166666666,"value":0},{"number":64,"time":88.42916666666667,"value":1},{"number":64,"time":89.7197916666667,"value":0},{"number":64,"time":89.90937500000003,"value":1},{"number":64,"time":90.66250000000004,"value":0},{"number":64,"time":90.90520833333336,"value":1},{"number":64,"time":92.56666666666668,"value":0},{"number":64,"time":92.728125,"value":1},{"number":64,"time":94.41145833333336,"value":0},{"number":64,"time":94.55000000000003,"value":1},{"number":64,"time":97.55833333333337,"value":0},{"number":64,"time":97.7572916666667,"value":1},{"number":64,"time":98.42083333333338,"value":0},{"number":64,"time":98.58020833333337,"value":1},{"number":64,"time":100.0041666666667,"value":0},{"number":64,"time":100.18333333333337,"value":1},{"number":64,"time":100.85625000000002,"value":0},{"number":64,"time":101.02500000000002,"value":1},{"number":64,"time":102.91875000000003,"value":0},{"number":64,"time":103.06770833333337,"value":1},{"number":64,"time":104.63125000000004,"value":0},{"number":64,"time":104.75000000000004,"value":1},{"number":64,"time":105.72500000000004,"value":0},{"number":64,"time":105.85312500000003,"value":1},{"number":64,"time":107.12291666666668,"value":0},{"number":64,"time":107.32291666666669,"value":1},{"number":64,"time":108.59062500000002,"value":0},{"number":64,"time":108.83333333333336,"value":1},{"number":64,"time":111.48854166666669,"value":0},{"number":64,"time":111.67187500000003,"value":1},{"number":64,"time":112.67500000000003,"value":0},{"number":64,"time":112.82187500000002,"value":1},{"number":64,"time":115.10312499999998,"value":0},{"number":64,"time":115.20624999999998,"value":1},{"number":64,"time":115.91250000000001,"value":0},{"number":64,"time":116.071875,"value":1},{"number":64,"time":118.77708333333335,"value":0},{"number":64,"time":118.91875000000002,"value":1},{"number":64,"time":120.43437499999999,"value":0},{"number":64,"time":120.57187499999999,"value":1},{"number":64,"time":122.29062500000002,"value":0},{"number":64,"time":122.46770833333336,"value":1},{"number":64,"time":123.96875000000004,"value":0},{"number":64,"time":124.12916666666669,"value":1},{"number":64,"time":125.2166666666667,"value":0},{"number":64,"time":125.38020833333336,"value":1},{"number":64,"time":126.29375000000003,"value":0},{"number":64,"time":126.40520833333336,"value":1},{"number":64,"time":128.38750000000002,"value":0},{"number":64,"time":128.56770833333334,"value":1},{"number":64,"time":129.21562499999996,"value":0},{"number":64,"time":129.29062499999995,"value":1},{"number":64,"time":132.06770833333334,"value":0},{"number":64,"time":132.228125,"value":1},{"number":64,"time":133.93854166666668,"value":0},{"number":64,"time":134.99166666666673,"value":1},{"number":64,"time":136.55416666666676,"value":0},{"number":64,"time":136.69479166666676,"value":1},{"number":64,"time":138.16250000000008,"value":0},{"number":64,"time":138.39270833333342,"value":1},{"number":64,"time":140.16770833333342,"value":0},{"number":64,"time":140.31145833333343,"value":1},{"number":64,"time":141.57395833333342,"value":0},{"number":64,"time":141.74479166666674,"value":1},{"number":64,"time":145.1510416666667,"value":0},{"number":64,"time":145.30729166666674,"value":1},{"number":64,"time":148.57812500000003,"value":0},{"number":64,"time":148.71875000000003,"value":1},{"number":64,"time":150.87604166666662,"value":0},{"number":64,"time":151.0354166666666,"value":1},{"number":64,"time":151.86249999999995,"value":0},{"number":64,"time":151.9145833333333,"value":1},{"number":64,"time":155.0479166666666,"value":0},{"number":64,"time":155.24583333333325,"value":1},{"number":64,"time":156.0864583333332,"value":0},{"number":64,"time":156.23749999999987,"value":1},{"number":64,"time":157.81354166666654,"value":0},{"number":64,"time":158.98437499999986,"value":1},{"number":64,"time":160.57395833333317,"value":0},{"number":64,"time":160.67499999999984,"value":1},{"number":64,"time":161.57812499999986,"value":0},{"number":64,"time":161.73437499999986,"value":1},{"number":64,"time":163.67083333333315,"value":0},{"number":64,"time":163.82916666666648,"value":1},{"number":64,"time":165.08437499999977,"value":0},{"number":64,"time":165.2552083333331,"value":1},{"number":64,"time":166.8677083333331,"value":0},{"number":64,"time":167.04791666666642,"value":1},{"number":64,"time":168.9708333333331,"value":0},{"number":64,"time":169.20208333333312,"value":1},{"number":64,"time":169.5593749999998,"value":0}],"91":[{"number":91,"time":0,"value":1}],"121":[{"number":121,"time":0,"value":1},{"number":121,"time":173.9999999999998,"value":1}]},"id":0,"name":"Bach's 3rd English Suite: 4. Sarabande","instrumentNumber":6,"instrument":"harpsichord","instrumentFamily":"piano","channelNumber":0,"isPercussion":false}]}