{"header":{"PPQ":384,"timeSignature":[4,4],"bpm":64.99999458333379,"name":"--------"},"startTime":0,"duration":434.8534016223975,"tracks":[{"startTime":0,"duration":0,"length":0,"notes":[],"controlChanges":{},"id":0,"name":"--------"},{"startTime":0.23076924999999998,"duration":434.8534016223975,"length":2792,"notes":[{"name":"D5","midi":74,"time":0.23076924999999998,"velocity":0.8031496062992126,"duration":0.19230770833333333},{"name":"D5","midi":74,"time":0.46153849999999996,"velocity":0.8031496062992126,"duration":0.9615385416666667},{"name":"D3","midi":50,"time":0.46153849999999996,"velocity":0.8031496062992126,"duration":3.966346484374998},{"name":"A4","midi":69,"time":0.6923077499999999,"velocity":0.8031496062992126,"duration":0.22836540364583335},{"name":"A#4","midi":70,"time":0.9230769999999999,"velocity":0.8031496062992126,"duration":0.22836540364583335},{"name":"G4","midi":67,"time":1.15384625,"velocity":0.8031496062992126,"duration":0.22836540364583335},{"name":"A4","midi":69,"time":1.3846155,"velocity":0.8031496062992126,"duration":0.9134616145833332},{"name":"F4","midi":65,"time":1.61538475,"velocity":0.8031496062992126,"duration":0.22836540364583335},{"name":"E4","midi":64,"time":1.846154,"velocity":0.8031496062992126,"duration":0.22836540364583313},{"name":"D4","midi":62,"time":2.0769232499999997,"velocity":0.8031496062992126,"duration":0.22836540364583335},{"name":"C#4","midi":61,"time":2.3076924999999995,"velocity":0.8031496062992126,"duration":1.8437501536458325},{"name":"A#4","midi":70,"time":2.5384617499999993,"velocity":0.8031496062992126,"duration":0.6730769791666664},{"name":"E5","midi":76,"time":2.769230999999999,"velocity":0.8031496062992126,"duration":0.22836540364583335},{"name":"G5","midi":79,"time":3.000000249999999,"velocity":0.8031496062992126,"duration":0.4567308072916667},{"name":"A4","midi":69,"time":3.230769499999999,"velocity":0.8031496062992126,"duration":1.843750153645832},{"name":"G5","midi":79,"time":3.461538749999999,"velocity":0.8031496062992126,"duration":0.22836540364583335},{"name":"F5","midi":77,"time":3.692307999999999,"velocity":0.8031496062992126,"duration":0.22836540364583335},{"name":"E5","midi":76,"time":3.9230772499999986,"velocity":0.8031496062992126,"duration":0.22836540364583335},{"name":"G5","midi":79,"time":4.153846499999998,"velocity":0.8031496062992126,"duration":0.22836540364583335},{"name":"D4","midi":62,"time":4.153846499999998,"velocity":0.8031496062992126,"duration":0.45913465364583317},{"name":"F5","midi":77,"time":4.384615749999998,"velocity":0.8031496062992126,"duration":0.22836540364583335},{"name":"E5","midi":76,"time":4.615384999999998,"velocity":0.8031496062992126,"duration":0.22836540364583335},{"name":"A3","midi":57,"time":4.615384999999998,"velocity":0.8031496062992126,"duration":0.4447115755208335},{"name":"D5","midi":74,"time":4.846154249999998,"velocity":0.8031496062992126,"duration":0.22836540364583335},{"name":"F5","midi":77,"time":5.076923499999998,"velocity":0.8031496062992126,"duration":0.9134616145833325},{"name":"D4","midi":62,"time":5.076923499999998,"velocity":0.8031496062992126,"duration":0.11298077864583345},{"name":"C4","midi":60,"time":5.192308124999998,"velocity":0.8031496062992126,"duration":0.11298077864583345},{"name":"A4","midi":69,"time":5.3076927499999975,"velocity":0.8031496062992126,"duration":0.22836540364583335},{"name":"D4","midi":62,"time":5.3076927499999975,"velocity":0.8031496062992126,"duration":0.8413462239583325},{"name":"A#4","midi":70,"time":5.538461999999997,"velocity":0.8031496062992126,"duration":0.22836540364583335},{"name":"F4","midi":65,"time":5.769231249999997,"velocity":0.8031496062992126,"duration":0.22836540364583335},{"name":"G4","midi":67,"time":6.000000499999997,"velocity":0.8031496062992126,"duration":0.8365385312499996},{"name":"A#4","midi":70,"time":6.115385124999997,"velocity":0.8031496062992126,"duration":0.6971154427083333},{"name":"E5","midi":76,"time":6.230769749999997,"velocity":0.8031496062992126,"duration":0.45913465364583317},{"name":"D4","midi":62,"time":6.230769749999997,"velocity":0.8031496062992126,"duration":0.22836540364583335},{"name":"C4","midi":60,"time":6.461538999999997,"velocity":0.8031496062992126,"duration":0.22836540364583335},{"name":"E5","midi":76,"time":6.692308249999996,"velocity":0.8031496062992126,"duration":0.21634617187500016},{"name":"A#3","midi":58,"time":6.692308249999996,"velocity":0.8031496062992126,"duration":0.22836540364583335},{"name":"A5","midi":81,"time":6.923077499999996,"velocity":0.8031496062992126,"duration":0.22836540364583335},{"name":"C4","midi":60,"time":6.923077499999996,"velocity":0.8031496062992126,"duration":0.45913465364583317},{"name":"E4","midi":64,"time":6.923077499999996,"velocity":0.8031496062992126,"duration":0.45913465364583317},{"name":"E5","midi":76,"time":7.153846749999996,"velocity":0.8031496062992126,"duration":0.22836540364583335},{"name":"A4","midi":69,"time":7.384615999999996,"velocity":0.8031496062992126,"duration":0.6250000520833332},{"name":"F5","midi":77,"time":7.384615999999996,"velocity":0.8031496062992126,"duration":0.22836540364583335},{"name":"A3","midi":57,"time":7.384615999999996,"velocity":0.8031496062992126,"duration":0.45913465364583317},{"name":"C#5","midi":73,"time":7.615385249999996,"velocity":0.8031496062992126,"duration":0.22836540364583335},{"name":"D5","midi":74,"time":7.8461544999999955,"velocity":0.8031496062992126,"duration":1.1298077864583327},{"name":"A#3","midi":58,"time":7.8461544999999955,"velocity":0.8031496062992126,"duration":0.45913465364583317},{"name":"A4","midi":69,"time":8.076923749999995,"velocity":0.8031496062992126,"duration":0.22836540364583335},{"name":"A#4","midi":70,"time":8.307692999999995,"velocity":0.8031496062992126,"duration":0.22836540364583335},{"name":"A3","midi":57,"time":8.307692999999995,"velocity":0.8031496062992126,"duration":0.45913465364583317},{"name":"F4","midi":65,"time":8.538462249999995,"velocity":0.8031496062992126,"duration":0.22836540364583335},{"name":"G4","midi":67,"time":8.769231499999995,"velocity":0.8031496062992126,"duration":1.7788463020833323},{"name":"A#3","midi":58,"time":8.769231499999995,"velocity":0.8031496062992126,"duration":0.45913465364583317},{"name":"F5","midi":77,"time":9.000000749999995,"velocity":0.8031496062992126,"duration":0.22836540364583335},{"name":"E5","midi":76,"time":9.230769999999994,"velocity":0.8031496062992126,"duration":0.22836540364583335},{"name":"G3","midi":55,"time":9.230769999999994,"velocity":0.8031496062992126,"duration":0.45913465364583317},{"name":"G5","midi":79,"time":9.461539249999994,"velocity":0.8031496062992126,"duration":0.22836540364583335},{"name":"D5","midi":74,"time":9.692308499999994,"velocity":0.8031496062992126,"duration":0.22836540364583335},{"name":"A3","midi":57,"time":9.692308499999994,"velocity":0.8031496062992126,"duration":0.45913465364583317},{"name":"C#5","midi":73,"time":9.923077749999994,"velocity":0.8031496062992126,"duration":0.21634617187499927},{"name":"B4","midi":71,"time":10.153846999999994,"velocity":0.8031496062992126,"duration":0.22836540364583335},{"name":"G3","midi":55,"time":10.153846999999994,"velocity":0.8031496062992126,"duration":0.45913465364583317},{"name":"A4","midi":69,"time":10.384616249999993,"velocity":0.8031496062992126,"duration":0.18028847656250058},{"name":"C5","midi":72,"time":10.615385499999993,"velocity":0.8031496062992126,"duration":1.153846249999999},{"name":"F#3","midi":54,"time":10.615385499999993,"velocity":0.8031496062992126,"duration":0.45913465364583317},{"name":"G4","midi":67,"time":10.846154749999993,"velocity":0.8031496062992126,"duration":0.22836540364583335},{"name":"A4","midi":69,"time":11.076923999999993,"velocity":0.8031496062992126,"duration":0.22836540364583335},{"name":"D3","midi":50,"time":11.076923999999993,"velocity":0.8031496062992126,"duration":0.45913465364583317},{"name":"F#4","midi":66,"time":11.307693249999993,"velocity":0.8031496062992126,"duration":0.22836540364583335},{"name":"G4","midi":67,"time":11.538462499999993,"velocity":0.8031496062992126,"duration":0.4567308072916667},{"name":"G3","midi":55,"time":11.538462499999993,"velocity":0.8031496062992126,"duration":0.45913465364583317},{"name":"A#4","midi":70,"time":11.769231749999992,"velocity":0.8031496062992126,"duration":1.7788463020833305},{"name":"D4","midi":62,"time":12.000000999999992,"velocity":0.8031496062992126,"duration":0.22836540364583335},{"name":"G2","midi":43,"time":12.000000999999992,"velocity":0.8031496062992126,"duration":0.42067311197916624},{"name":"F4","midi":65,"time":12.230770249999992,"velocity":0.8031496062992126,"duration":0.22836540364583335},{"name":"D#4","midi":63,"time":12.461539499999992,"velocity":0.8031496062992126,"duration":0.22836540364583158},{"name":"G3","midi":55,"time":12.461539499999992,"velocity":0.8031496062992126,"duration":0.11298077864583256},{"name":"F#3","midi":54,"time":12.57692412499999,"velocity":0.8031496062992126,"duration":0.11298077864583256},{"name":"G4","midi":67,"time":12.69230874999999,"velocity":0.8031496062992126,"duration":0.22836540364583335},{"name":"G3","midi":55,"time":12.69230874999999,"velocity":0.8031496062992126,"duration":0.45913465364583317},{"name":"C#4","midi":61,"time":12.92307799999999,"velocity":0.8031496062992126,"duration":0.22836540364583335},{"name":"D4","midi":62,"time":13.15384724999999,"velocity":0.8031496062992126,"duration":0.22836540364583335},{"name":"G3","midi":55,"time":13.15384724999999,"velocity":0.8031496062992126,"duration":0.21634617187499927},{"name":"C#4","midi":61,"time":13.38461649999999,"velocity":0.8031496062992126,"duration":0.9134616145833334},{"name":"G3","midi":55,"time":13.38461649999999,"velocity":0.8031496062992126,"duration":0.673076979166666},{"name":"E4","midi":64,"time":13.615385749999989,"velocity":0.8031496062992126,"duration":0.22836540364583335},{"name":"A4","midi":69,"time":13.846154999999989,"velocity":0.8031496062992126,"duration":1.153846249999999},{"name":"F3","midi":53,"time":14.076924249999989,"velocity":0.8031496062992126,"duration":0.1153846250000008},{"name":"E3","midi":52,"time":14.19230887499999,"velocity":0.8031496062992126,"duration":0.11538462499999902},{"name":"F3","midi":53,"time":14.307693499999989,"velocity":0.8031496062992126,"duration":1.6129809036458322},{"name":"A3","midi":57,"time":14.538462749999988,"velocity":0.8031496062992126,"duration":0.22836540364583335},{"name":"D4","midi":62,"time":14.769231999999988,"velocity":0.8031496062992126,"duration":0.4567308072916667},{"name":"A#4","midi":70,"time":15.000001249999988,"velocity":0.8031496062992126,"duration":0.22836540364583335},{"name":"G4","midi":67,"time":15.230770499999988,"velocity":0.8031496062992126,"duration":1.1538462500000009},{"name":"D4","midi":62,"time":15.461539749999988,"velocity":0.8031496062992126,"duration":0.22836540364583335},{"name":"E4","midi":64,"time":15.692308999999987,"velocity":0.8031496062992126,"duration":0.22836540364583335},{"name":"B3","midi":59,"time":15.923078249999987,"velocity":0.8031496062992126,"duration":0.22836540364583335},{"name":"G3","midi":55,"time":15.923078249999987,"velocity":0.8031496062992126,"duration":0.11298077864583256},{"name":"F3","midi":53,"time":16.038462874999986,"velocity":0.8031496062992126,"duration":0.11298077864583433},{"name":"C#4","midi":61,"time":16.153847499999987,"velocity":0.8031496062992126,"duration":0.9134616145833299},{"name":"E3","midi":52,"time":16.153847499999987,"velocity":0.8031496062992126,"duration":0.45913465364583317},{"name":"F4","midi":65,"time":16.38461674999999,"velocity":0.8031496062992126,"duration":0.22836540364583158},{"name":"E4","midi":64,"time":16.615385999999987,"velocity":0.8031496062992126,"duration":0.22836540364583158},{"name":"A3","midi":57,"time":16.615385999999987,"velocity":0.8031496062992126,"duration":0.4591346536458296},{"name":"F4","midi":65,"time":16.846155249999985,"velocity":0.8031496062992126,"duration":0.22836540364583158},{"name":"G4","midi":67,"time":17.076924499999983,"velocity":0.8031496062992126,"duration":0.22836540364583158},{"name":"D3","midi":50,"time":17.076924499999983,"velocity":0.8031496062992126,"duration":0.9134616145833299},{"name":"F4","midi":65,"time":17.30769374999998,"velocity":0.8031496062992126,"duration":0.21634617187499927},{"name":"E4","midi":64,"time":17.53846299999998,"velocity":0.8031496062992126,"duration":0.22836540364583158},{"name":"D4","midi":62,"time":17.769232249999977,"velocity":0.8031496062992126,"duration":0.19230770833333466},{"name":"A#4","midi":70,"time":18.00000149999998,"velocity":0.8031496062992126,"duration":0.11298077864583433},{"name":"A4","midi":69,"time":18.11538612499998,"velocity":0.8031496062992126,"duration":0.11298077864583433},{"name":"A#4","midi":70,"time":18.23077074999998,"velocity":0.8031496062992126,"duration":0.4591346536458296},{"name":"D4","midi":62,"time":18.23077074999998,"velocity":0.8031496062992126,"duration":0.22836540364583158},{"name":"C4","midi":60,"time":18.461539999999978,"velocity":0.8031496062992126,"duration":0.22836540364583158},{"name":"A#4","midi":70,"time":18.692309249999976,"velocity":0.8031496062992126,"duration":0.22836540364583158},{"name":"A#3","midi":58,"time":18.692309249999976,"velocity":0.8031496062992126,"duration":0.22836540364583158},{"name":"A#4","midi":70,"time":18.923078499999974,"velocity":0.8031496062992126,"duration":0.23798078906250097},{"name":"C4","midi":60,"time":18.923078499999974,"velocity":0.8031496062992126,"duration":0.45913465364583317},{"name":"G4","midi":67,"time":19.153847749999976,"velocity":0.8031496062992126,"duration":0.22836540364583158},{"name":"A4","midi":69,"time":19.384616999999974,"velocity":0.8031496062992126,"duration":0.22836540364583158},{"name":"A#3","midi":58,"time":19.384616999999974,"velocity":0.8031496062992126,"duration":0.4591346536458296},{"name":"C5","midi":72,"time":19.615386249999972,"velocity":0.8031496062992126,"duration":0.22836540364583158},{"name":"D#5","midi":75,"time":19.84615549999997,"velocity":0.8031496062992126,"duration":1.6009616718749982},{"name":"A3","midi":57,"time":19.84615549999997,"velocity":0.8031496062992126,"duration":0.45913465364583317},{"name":"C5","midi":72,"time":20.07692474999997,"velocity":0.8031496062992126,"duration":0.673076979166666},{"name":"A4","midi":69,"time":20.30769399999997,"velocity":0.8031496062992126,"duration":0.4567308072916667},{"name":"F3","midi":53,"time":20.30769399999997,"velocity":0.8031496062992126,"duration":0.45913465364583317},{"name":"F4","midi":65,"time":20.53846324999997,"velocity":0.8031496062992126,"duration":1.1298077864583291},{"name":"A#3","midi":58,"time":20.76923249999997,"velocity":0.8031496062992126,"duration":0.45913465364583317},{"name":"A4","midi":69,"time":21.00000174999997,"velocity":0.8031496062992126,"duration":0.22836540364583158},{"name":"A#4","midi":70,"time":21.23077099999997,"velocity":0.8031496062992126,"duration":0.43269234374999854},{"name":"A#2","midi":46,"time":21.23077099999997,"velocity":0.8031496062992126,"duration":0.42067311197916624},{"name":"D5","midi":74,"time":21.461540249999967,"velocity":0.8031496062992126,"duration":0.19230770833333466},{"name":"G4","midi":67,"time":21.69230949999997,"velocity":0.8031496062992126,"duration":0.9134616145833299},{"name":"A#3","midi":58,"time":21.69230949999997,"velocity":0.8031496062992126,"duration":0.11298077864583433},{"name":"A3","midi":57,"time":21.80769412499997,"velocity":0.8031496062992126,"duration":0.11298077864583433},{"name":"A#4","midi":70,"time":21.92307874999997,"velocity":0.8031496062992126,"duration":0.22836540364583158},{"name":"A#3","midi":58,"time":21.92307874999997,"velocity":0.8031496062992126,"duration":0.4591346536458296},{"name":"D5","midi":74,"time":22.153847999999968,"velocity":0.8031496062992126,"duration":0.22836540364583158},{"name":"G5","midi":79,"time":22.384617249999966,"velocity":0.8031496062992126,"duration":0.22836540364583158},{"name":"A#3","midi":58,"time":22.384617249999966,"velocity":0.8031496062992126,"duration":0.21634617187499927},{"name":"C5","midi":72,"time":22.615386499999964,"velocity":0.8031496062992126,"duration":1.1538462499999973},{"name":"A#3","midi":58,"time":22.615386499999964,"velocity":0.8031496062992126,"duration":0.673076979166666},{"name":"G4","midi":67,"time":22.846155749999966,"velocity":0.8031496062992126,"duration":0.22836540364583158},{"name":"A4","midi":69,"time":23.076924999999964,"velocity":0.8031496062992126,"duration":0.22836540364583158},{"name":"E4","midi":64,"time":23.30769424999996,"velocity":0.8031496062992126,"duration":0.22836540364583513},{"name":"C4","midi":60,"time":23.30769424999996,"velocity":0.8031496062992126,"duration":0.11298077864583433},{"name":"A#3","midi":58,"time":23.423078874999963,"velocity":0.8031496062992126,"duration":0.11298077864583433},{"name":"F#4","midi":66,"time":23.538463499999963,"velocity":0.8031496062992126,"duration":0.9134616145833263},{"name":"A3","midi":57,"time":23.538463499999963,"velocity":0.8031496062992126,"duration":0.22836540364583158},{"name":"A#4","midi":70,"time":23.76923274999996,"velocity":0.8031496062992126,"duration":0.22836540364583158},{"name":"D4","midi":62,"time":23.76923274999996,"velocity":0.8031496062992126,"duration":0.22836540364583158},{"name":"A4","midi":69,"time":24.00000199999996,"velocity":0.8031496062992126,"duration":0.22836540364583158},{"name":"C4","midi":60,"time":24.00000199999996,"velocity":0.8031496062992126,"duration":0.22836540364583158},{"name":"A#4","midi":70,"time":24.230771249999957,"velocity":0.8031496062992126,"duration":0.22836540364583158},{"name":"D4","midi":62,"time":24.230771249999957,"velocity":0.8031496062992126,"duration":0.22836540364583158},{"name":"C5","midi":72,"time":24.461540499999956,"velocity":0.8031496062992126,"duration":0.22836540364583158},{"name":"G3","midi":55,"time":24.461540499999956,"velocity":0.8031496062992126,"duration":0.901442382812494},{"name":"A4","midi":69,"time":24.692309749999954,"velocity":0.8031496062992126,"duration":0.21634617187499927},{"name":"A#4","midi":70,"time":24.92307899999995,"velocity":0.8031496062992126,"duration":0.22836540364583158},{"name":"G4","midi":67,"time":25.15384824999995,"velocity":0.8031496062992126,"duration":0.20432694010416697},{"name":"E5","midi":76,"time":25.38461749999995,"velocity":0.8031496062992126,"duration":0.11298077864583433},{"name":"D5","midi":74,"time":25.500002124999952,"velocity":0.8031496062992126,"duration":0.11298077864583433},{"name":"E5","midi":76,"time":25.615386749999953,"velocity":0.8031496062992126,"duration":0.4591346536458296},{"name":"C#4","midi":61,"time":25.615386749999953,"velocity":0.8031496062992126,"duration":0.22836540364583158},{"name":"D4","midi":62,"time":25.84615599999995,"velocity":0.8031496062992126,"duration":0.22836540364583158},{"name":"E5","midi":76,"time":26.07692524999995,"velocity":0.8031496062992126,"duration":0.22596155729166512},{"name":"E4","midi":64,"time":26.07692524999995,"velocity":0.8031496062992126,"duration":0.22836540364583158},{"name":"E5","midi":76,"time":26.307694499999947,"velocity":0.8031496062992126,"duration":0.22596155729166512},{"name":"F3","midi":53,"time":26.307694499999947,"velocity":0.8031496062992126,"duration":0.4591346536458296},{"name":"A5","midi":81,"time":26.538463749999945,"velocity":0.8031496062992126,"duration":0.22836540364583158},{"name":"F5","midi":77,"time":26.769232999999943,"velocity":0.8031496062992126,"duration":0.22836540364583158},{"name":"F4","midi":65,"time":26.769232999999943,"velocity":0.8031496062992126,"duration":0.6899039036458312},{"name":"C#5","midi":73,"time":27.00000224999994,"velocity":0.8031496062992126,"duration":0.22836540364583158},{"name":"D5","midi":74,"time":27.23077149999994,"velocity":0.8031496062992126,"duration":0.11298077864583433},{"name":"C#5","midi":73,"time":27.34615612499994,"velocity":0.8031496062992126,"duration":0.11298077864583433},{"name":"D5","midi":74,"time":27.46154074999994,"velocity":0.8031496062992126,"duration":0.4591346536458296},{"name":"F4","midi":65,"time":27.46154074999994,"velocity":0.8031496062992126,"duration":0.22836540364583158},{"name":"E4","midi":64,"time":27.69230999999994,"velocity":0.8031496062992126,"duration":0.22836540364583158},{"name":"D5","midi":74,"time":27.923079249999937,"velocity":0.8031496062992126,"duration":0.22836540364583158},{"name":"D4","midi":62,"time":27.923079249999937,"velocity":0.8031496062992126,"duration":0.22836540364583158},{"name":"G5","midi":79,"time":28.153848499999935,"velocity":0.8031496062992126,"duration":1.1538462499999973},{"name":"E4","midi":64,"time":28.153848499999935,"velocity":0.8031496062992126,"duration":0.45913465364583317},{"name":"D5","midi":74,"time":28.384617749999936,"velocity":0.8031496062992126,"duration":0.22836540364583158},{"name":"E5","midi":76,"time":28.615386999999934,"velocity":0.8031496062992126,"duration":0.22836540364583158},{"name":"G3","midi":55,"time":28.615386999999934,"velocity":0.8031496062992126,"duration":0.4591346536458296},{"name":"B4","midi":71,"time":28.846156249999932,"velocity":0.8031496062992126,"duration":0.22836540364583158},{"name":"C#5","midi":73,"time":29.07692549999993,"velocity":0.8031496062992126,"duration":0.9134616145833334},{"name":"A3","midi":57,"time":29.07692549999993,"velocity":0.8031496062992126,"duration":0.45913465364583317},{"name":"G5","midi":79,"time":29.307694749999932,"velocity":0.8031496062992126,"duration":0.22836540364583158},{"name":"G5","midi":79,"time":29.53846399999993,"velocity":0.8031496062992126,"duration":0.11298077864583433},{"name":"A2","midi":45,"time":29.53846399999993,"velocity":0.8031496062992126,"duration":0.45913465364583317},{"name":"F5","midi":77,"time":29.65384862499993,"velocity":0.8031496062992126,"duration":0.11298077864583433},{"name":"E5","midi":76,"time":29.76923324999993,"velocity":0.8031496062992126,"duration":0.22836540364583158},{"name":"F5","midi":77,"time":30.00000249999993,"velocity":0.8031496062992126,"duration":0.22836540364583158},{"name":"D3","midi":50,"time":30.00000249999993,"velocity":0.8031496062992126,"duration":1.0817308593749928},{"name":"C#5","midi":73,"time":30.230771749999928,"velocity":0.8031496062992126,"duration":0.22836540364583158},{"name":"D5","midi":74,"time":30.461540999999926,"velocity":0.8031496062992126,"duration":0.22836540364583158},{"name":"F5","midi":77,"time":30.692310249999924,"velocity":0.8031496062992126,"duration":0.22836540364583158},{"name":"A#5","midi":82,"time":30.923079499999922,"velocity":0.8031496062992126,"duration":0.11298077864583433},{"name":"A5","midi":81,"time":31.038464124999923,"velocity":0.8031496062992126,"duration":0.11298077864583433},{"name":"A#5","midi":82,"time":31.153848749999923,"velocity":0.8031496062992126,"duration":0.43269234374999854},{"name":"E3","midi":52,"time":31.153848749999923,"velocity":0.8031496062992126,"duration":0.22836540364583158},{"name":"F3","midi":53,"time":31.38461799999992,"velocity":0.8031496062992126,"duration":0.22836540364583513},{"name":"A#5","midi":82,"time":31.615387249999923,"velocity":0.8031496062992126,"duration":0.22836540364583158},{"name":"G3","midi":55,"time":31.615387249999923,"velocity":0.8031496062992126,"duration":0.22836540364583158},{"name":"A#5","midi":82,"time":31.84615649999992,"velocity":0.8031496062992126,"duration":0.22836540364583158},{"name":"C3","midi":48,"time":31.84615649999992,"velocity":0.8031496062992126,"duration":1.1177885546875217},{"name":"A5","midi":81,"time":32.07692574999992,"velocity":0.8031496062992126,"duration":0.11298077864583433},{"name":"G5","midi":79,"time":32.19231037499993,"velocity":0.8031496062992126,"duration":0.11298077864583433},{"name":"F5","midi":77,"time":32.30769499999993,"velocity":0.8031496062992126,"duration":0.11298077864583433},{"name":"G5","midi":79,"time":32.423079624999936,"velocity":0.8031496062992126,"duration":0.11298077864583433},{"name":"E5","midi":76,"time":32.53846424999994,"velocity":0.8031496062992126,"duration":0.22836540364583158},{"name":"A5","midi":81,"time":32.76923349999994,"velocity":0.8031496062992126,"duration":1.1274039401041733},{"name":"G5","midi":79,"time":33.00000274999994,"velocity":0.8031496062992126,"duration":0.22836540364583158},{"name":"D3","midi":50,"time":33.00000274999994,"velocity":0.8031496062992126,"duration":0.22836540364583158},{"name":"F5","midi":77,"time":33.230771999999945,"velocity":0.8031496062992126,"duration":0.22836540364583158},{"name":"E3","midi":52,"time":33.230771999999945,"velocity":0.8031496062992126,"duration":0.22836540364583158},{"name":"E5","midi":76,"time":33.46154124999995,"velocity":0.8031496062992126,"duration":0.22836540364583158},{"name":"F3","midi":53,"time":33.46154124999995,"velocity":0.8031496062992126,"duration":0.22836540364583158},{"name":"D5","midi":74,"time":33.69231049999995,"velocity":0.8031496062992126,"duration":1.3822116536458466},{"name":"A#2","midi":46,"time":33.69231049999995,"velocity":0.8031496062992126,"duration":0.87740391927084},{"name":"G5","midi":79,"time":33.92307974999995,"velocity":0.8031496062992126,"duration":0.22836540364583158},{"name":"A#5","midi":82,"time":34.15384899999995,"velocity":0.8031496062992126,"duration":0.22836540364583158},{"name":"A5","midi":81,"time":34.38461824999995,"velocity":0.8031496062992126,"duration":0.22836540364583868},{"name":"G5","midi":79,"time":34.61538749999996,"velocity":0.8031496062992126,"duration":0.22836540364583158},{"name":"A#3","midi":58,"time":34.61538749999996,"velocity":0.8031496062992126,"duration":1.1514424036458522},{"name":"F5","midi":77,"time":34.84615674999996,"velocity":0.8031496062992126,"duration":0.22836540364583158},{"name":"E5","midi":76,"time":35.076925999999965,"velocity":0.8031496062992126,"duration":0.22836540364583158},{"name":"D5","midi":74,"time":35.307695249999966,"velocity":0.8031496062992126,"duration":0.22836540364583158},{"name":"D5","midi":74,"time":35.53846449999997,"velocity":0.8031496062992126,"duration":0.09855770052083557},{"name":"C#5","midi":73,"time":35.63942604687497,"velocity":0.8031496062992126,"duration":0.09855770052083557},{"name":"D5","midi":74,"time":35.74038759374998,"velocity":0.8031496062992126,"duration":0.09855770052083557},{"name":"A3","midi":57,"time":35.769233749999984,"velocity":0.8031496062992126,"duration":0.22836540364583158},{"name":"C#5","midi":73,"time":35.841349140624985,"velocity":0.8031496062992126,"duration":0.3846154166666693},{"name":"A#3","midi":58,"time":36.000002999999985,"velocity":0.8031496062992126,"duration":0.22836540364583868},{"name":"D5","midi":74,"time":36.230772249999994,"velocity":0.8031496062992126,"duration":0.22836540364583158},{"name":"A3","midi":57,"time":36.230772249999994,"velocity":0.8031496062992126,"duration":0.22836540364583158},{"name":"E5","midi":76,"time":36.461541499999996,"velocity":0.8031496062992126,"duration":0.22836540364583158},{"name":"G3","midi":55,"time":36.461541499999996,"velocity":0.8031496062992126,"duration":0.22836540364583158},{"name":"F5","midi":77,"time":36.69231075,"velocity":0.8031496062992126,"duration":0.22836540364583158},{"name":"F3","midi":53,"time":36.69231075,"velocity":0.8031496062992126,"duration":0.22836540364583158},{"name":"G5","midi":79,"time":36.92308,"velocity":0.8031496062992126,"duration":0.6730769791666731},{"name":"E3","midi":52,"time":36.92308,"velocity":0.8031496062992126,"duration":0.22836540364583158},{"name":"A#4","midi":70,"time":37.15384925,"velocity":0.8031496062992126,"duration":0.22836540364583158},{"name":"D3","midi":50,"time":37.15384925,"velocity":0.8031496062992126,"duration":0.22836540364583158},{"name":"A4","midi":69,"time":37.3846185,"velocity":0.8031496062992126,"duration":1.3822116536458608},{"name":"C#3","midi":49,"time":37.3846185,"velocity":0.8031496062992126,"duration":0.9134616145833405},{"name":"F5","midi":77,"time":37.615387750000004,"velocity":0.8031496062992126,"duration":0.22836540364583158},{"name":"E5","midi":76,"time":37.846157000000005,"velocity":0.8031496062992126,"duration":0.22836540364583158},{"name":"A3","midi":57,"time":37.846157000000005,"velocity":0.8031496062992126,"duration":0.9134616145833547},{"name":"F5","midi":77,"time":38.07692625000001,"velocity":0.8031496062992126,"duration":0.22836540364583868},{"name":"G5","midi":79,"time":38.307695500000015,"velocity":0.8031496062992126,"duration":0.11298077864583433},{"name":"D3","midi":50,"time":38.307695500000015,"velocity":0.8031496062992126,"duration":0.8894231510416901},{"name":"F5","midi":77,"time":38.42308012500002,"velocity":0.8031496062992126,"duration":0.11298077864583433},{"name":"G5","midi":79,"time":38.538464750000024,"velocity":0.8031496062992126,"duration":0.11298077864583433},{"name":"F5","midi":77,"time":38.65384937500003,"velocity":0.8031496062992126,"duration":0.11298077864583433},{"name":"G5","midi":79,"time":38.76923400000003,"velocity":0.8031496062992126,"duration":0.11298077864583433},{"name":"D5","midi":74,"time":38.76923400000003,"velocity":0.8031496062992126,"duration":0.45673080729167026},{"name":"G#3","midi":56,"time":38.76923400000003,"velocity":0.8031496062992126,"duration":0.43269234375000565},{"name":"F5","midi":77,"time":38.88461862500004,"velocity":0.8031496062992126,"duration":0.11298077864583433},{"name":"E5","midi":76,"time":39.00000325000004,"velocity":0.8031496062992126,"duration":0.22836540364583158},{"name":"E5","midi":76,"time":39.23077250000004,"velocity":0.8031496062992126,"duration":1.8437501536458498},{"name":"A3","midi":57,"time":39.23077250000004,"velocity":0.8031496062992126,"duration":5.536058153645868},{"name":"A2","midi":45,"time":39.23077250000004,"velocity":0.8031496062992126,"duration":5.536058153645868},{"name":"B4","midi":71,"time":39.461541750000045,"velocity":0.8031496062992126,"duration":0.22836540364583158},{"name":"C#5","midi":73,"time":39.692311000000046,"velocity":0.8031496062992126,"duration":0.22836540364583158},{"name":"A4","midi":69,"time":39.92308025000005,"velocity":0.8031496062992126,"duration":0.22836540364583158},{"name":"A#4","midi":70,"time":40.15384950000005,"velocity":0.8031496062992126,"duration":0.45673080729167026},{"name":"G4","midi":67,"time":40.38461875000005,"velocity":0.8031496062992126,"duration":0.22836540364583868},{"name":"F4","midi":65,"time":40.61538800000006,"velocity":0.8031496062992126,"duration":0.22836540364583158},{"name":"E4","midi":64,"time":40.84615725000006,"velocity":0.8031496062992126,"duration":0.22836540364583158},{"name":"F4","midi":65,"time":41.07692650000006,"velocity":0.8031496062992126,"duration":0.9134616145833405},{"name":"A4","midi":69,"time":41.307695750000065,"velocity":0.8031496062992126,"duration":0.22836540364583158},{"name":"D5","midi":74,"time":41.538465000000066,"velocity":0.8031496062992126,"duration":0.22836540364583158},{"name":"F5","midi":77,"time":41.76923425000007,"velocity":0.8031496062992126,"duration":0.45673080729167026},{"name":"G#4","midi":68,"time":42.00000350000007,"velocity":0.8031496062992126,"duration":0.9134616145833405},{"name":"F5","midi":77,"time":42.23077275000007,"velocity":0.8031496062992126,"duration":0.22836540364583158},{"name":"E5","midi":76,"time":42.46154200000007,"velocity":0.8031496062992126,"duration":0.22836540364583158},{"name":"D5","midi":74,"time":42.692311250000074,"velocity":0.8031496062992126,"duration":0.22836540364583868},{"name":"A4","midi":69,"time":42.92308050000008,"velocity":0.8031496062992126,"duration":1.612980903645827},{"name":"C#5","midi":73,"time":43.03846512500008,"velocity":0.8031496062992126,"duration":1.4903847395833267},{"name":"E5","midi":76,"time":43.15384975000008,"velocity":0.8031496062992126,"duration":1.3701924218749966},{"name":"A5","midi":81,"time":43.269234375000075,"velocity":0.8031496062992126,"duration":1.2500001041666664},{"name":"E5","midi":76,"time":44.53846525000008,"velocity":0.8031496062992126,"duration":0.1923077083333311},{"name":"E5","midi":76,"time":44.76923450000008,"velocity":0.8031496062992126,"duration":0.22836540364583158},{"name":"A3","midi":57,"time":44.76923450000008,"velocity":0.8031496062992126,"duration":2.8846156250000305},{"name":"A5","midi":81,"time":45.00000375000008,"velocity":0.8031496062992126,"duration":0.22836540364583158},{"name":"G5","midi":79,"time":45.230773000000084,"velocity":0.8031496062992126,"duration":0.22836540364583158},{"name":"C#4","midi":61,"time":45.230773000000084,"velocity":0.8031496062992126,"duration":0.45913465364583317},{"name":"E5","midi":76,"time":45.461542250000086,"velocity":0.8031496062992126,"duration":0.22836540364583158},{"name":"F5","midi":77,"time":45.69231150000009,"velocity":0.8031496062992126,"duration":0.22836540364583158},{"name":"D4","midi":62,"time":45.69231150000009,"velocity":0.8031496062992126,"duration":0.4591346536458403},{"name":"D5","midi":74,"time":45.92308075000009,"velocity":0.8031496062992126,"duration":0.21634617187500282},{"name":"D5","midi":74,"time":46.1538500000001,"velocity":0.8031496062992126,"duration":0.11298077864583433},{"name":"F4","midi":65,"time":46.1538500000001,"velocity":0.8031496062992126,"duration":0.4591346536458403},{"name":"C#5","midi":73,"time":46.2692346250001,"velocity":0.8031496062992126,"duration":0.11298077864583433},{"name":"B4","midi":71,"time":46.38461925000011,"velocity":0.8031496062992126,"duration":0.22836540364583158},{"name":"C#5","midi":73,"time":46.61538850000011,"velocity":0.8031496062992126,"duration":2.0673078645833485},{"name":"E4","midi":64,"time":46.61538850000011,"velocity":0.8031496062992126,"duration":0.9134616145833405},{"name":"A4","midi":69,"time":46.84615775000011,"velocity":0.8031496062992126,"duration":0.22836540364583158},{"name":"A#4","midi":70,"time":47.07692700000011,"velocity":0.8031496062992126,"duration":1.3822116536458395},{"name":"G4","midi":67,"time":47.30769625000011,"velocity":0.8031496062992126,"duration":1.153846250000008},{"name":"E4","midi":64,"time":47.538465500000115,"velocity":0.8031496062992126,"duration":0.9134616145833334},{"name":"A#3","midi":58,"time":47.76923475000011,"velocity":0.8031496062992126,"duration":0.22836540364583158},{"name":"A3","midi":57,"time":48.00000400000011,"velocity":0.8031496062992126,"duration":0.22836540364583158},{"name":"G3","midi":55,"time":48.23077325000011,"velocity":0.8031496062992126,"duration":0.22836540364583868},{"name":"F3","midi":53,"time":48.46154250000012,"velocity":0.8031496062992126,"duration":1.3822116536458395},{"name":"E5","midi":76,"time":48.69231175000012,"velocity":0.8031496062992126,"duration":0.22836540364583158},{"name":"D5","midi":74,"time":48.923081000000124,"velocity":0.8031496062992126,"duration":0.22836540364583158},{"name":"A3","midi":57,"time":48.923081000000124,"velocity":0.8031496062992126,"duration":0.45913465364583317},{"name":"A#4","midi":70,"time":49.153850250000126,"velocity":0.8031496062992126,"duration":0.22836540364583158},{"name":"G4","midi":67,"time":49.38461950000013,"velocity":0.8031496062992126,"duration":0.22836540364583158},{"name":"B3","midi":59,"time":49.38461950000013,"velocity":0.8031496062992126,"duration":0.45913465364583317},{"name":"A#4","midi":70,"time":49.61538875000013,"velocity":0.8031496062992126,"duration":0.22836540364583158},{"name":"A4","midi":69,"time":49.84615800000013,"velocity":0.8031496062992126,"duration":0.22836540364583158},{"name":"E3","midi":52,"time":49.84615800000013,"velocity":0.8031496062992126,"duration":0.45913465364583317},{"name":"C#4","midi":61,"time":49.84615800000013,"velocity":0.8031496062992126,"duration":0.45913465364583317},{"name":"G4","midi":67,"time":50.07692725000013,"velocity":0.8031496062992126,"duration":0.22836540364583158},{"name":"F4","midi":65,"time":50.307696500000134,"velocity":0.8031496062992126,"duration":0.22836540364583158},{"name":"D3","midi":50,"time":50.307696500000134,"velocity":0.8031496062992126,"duration":1.153846250000008},{"name":"C#4","midi":61,"time":50.538465750000135,"velocity":0.8031496062992126,"duration":0.22836540364583158},{"name":"D4","midi":62,"time":50.76923500000014,"velocity":0.8031496062992126,"duration":1.3822116536458395},{"name":"F3","midi":53,"time":50.76923500000014,"velocity":0.8031496062992126,"duration":0.6899039036458348},{"name":"F4","midi":65,"time":51.00000425000014,"velocity":0.8031496062992126,"duration":0.21634617187500282},{"name":"A#4","midi":70,"time":51.23077350000014,"velocity":0.8031496062992126,"duration":0.6899039036458348},{"name":"G3","midi":55,"time":51.46154275000014,"velocity":0.8031496062992126,"duration":0.22836540364583158},{"name":"A3","midi":57,"time":51.69231200000014,"velocity":0.8031496062992126,"duration":0.22836540364583158},{"name":"A#4","midi":70,"time":51.923081250000145,"velocity":0.8031496062992126,"duration":0.22836540364583158},{"name":"A#3","midi":58,"time":51.923081250000145,"velocity":0.8031496062992126,"duration":0.22836540364583158},{"name":"A#4","midi":70,"time":52.153850500000146,"velocity":0.8031496062992126,"duration":0.22836540364583158},{"name":"D#4","midi":63,"time":52.153850500000146,"velocity":0.8031496062992126,"duration":0.6730769791666731},{"name":"C4","midi":60,"time":52.153850500000146,"velocity":0.8031496062992126,"duration":0.45913465364583317},{"name":"G4","midi":67,"time":52.38461975000015,"velocity":0.8031496062992126,"duration":0.22836540364583158},{"name":"A4","midi":69,"time":52.61538900000015,"velocity":0.8031496062992126,"duration":0.22836540364583868},{"name":"A#3","midi":58,"time":52.61538900000015,"velocity":0.8031496062992126,"duration":0.4591346536458403},{"name":"C5","midi":72,"time":52.84615825000016,"velocity":0.8031496062992126,"duration":0.22836540364583158},{"name":"D#5","midi":75,"time":53.07692750000016,"velocity":0.8031496062992126,"duration":1.153846250000008},{"name":"A3","midi":57,"time":53.07692750000016,"velocity":0.8031496062992126,"duration":0.45913465364583317},{"name":"C5","midi":72,"time":53.30769675000016,"velocity":0.8031496062992126,"duration":0.22836540364583158},{"name":"A4","midi":69,"time":53.53846600000016,"velocity":0.8031496062992126,"duration":0.22836540364583158},{"name":"F3","midi":53,"time":53.53846600000016,"velocity":0.8031496062992126,"duration":0.45913465364583317},{"name":"F4","midi":65,"time":53.769235250000165,"velocity":0.8031496062992126,"duration":0.3846154166666693},{"name":"A#3","midi":58,"time":54.000004500000166,"velocity":0.8031496062992126,"duration":1.153846250000008},{"name":"C5","midi":72,"time":54.23077375000017,"velocity":0.8031496062992126,"duration":0.22836540364583158},{"name":"D5","midi":74,"time":54.46154300000017,"velocity":0.8031496062992126,"duration":0.22836540364583158},{"name":"F#5","midi":78,"time":54.69231225000017,"velocity":0.8031496062992126,"duration":0.22836540364583158},{"name":"C4","midi":60,"time":54.69231225000017,"velocity":0.8031496062992126,"duration":0.22836540364583158},{"name":"G5","midi":79,"time":54.92308150000017,"velocity":0.8031496062992126,"duration":0.6466346692708385},{"name":"D4","midi":62,"time":54.92308150000017,"velocity":0.8031496062992126,"duration":0.9134616145833476},{"name":"G3","midi":55,"time":55.153850750000174,"velocity":0.8031496062992126,"duration":0.22836540364583158},{"name":"A3","midi":57,"time":55.384620000000176,"velocity":0.8031496062992126,"duration":0.22836540364583868},{"name":"G5","midi":79,"time":55.615389250000185,"velocity":0.8031496062992126,"duration":0.22836540364583868},{"name":"A#3","midi":58,"time":55.615389250000185,"velocity":0.8031496062992126,"duration":0.22836540364583868},{"name":"G5","midi":79,"time":55.84615850000019,"velocity":0.8031496062992126,"duration":0.22836540364583158},{"name":"D#3","midi":51,"time":55.84615850000019,"velocity":0.8031496062992126,"duration":1.153846250000008},{"name":"D5","midi":74,"time":56.076927750000195,"velocity":0.8031496062992126,"duration":0.22836540364583158},{"name":"D#5","midi":75,"time":56.307697000000196,"velocity":0.8031496062992126,"duration":0.22836540364583158},{"name":"G3","midi":55,"time":56.307697000000196,"velocity":0.8031496062992126,"duration":0.45913465364583317},{"name":"B4","midi":71,"time":56.5384662500002,"velocity":0.8031496062992126,"duration":0.22836540364583158},{"name":"C5","midi":72,"time":56.7692355000002,"velocity":0.8031496062992126,"duration":1.843750153645857},{"name":"A3","midi":57,"time":56.7692355000002,"velocity":0.8031496062992126,"duration":0.9134616145833405},{"name":"A4","midi":69,"time":57.0000047500002,"velocity":0.8031496062992126,"duration":0.22836540364583158},{"name":"C3","midi":48,"time":57.0000047500002,"velocity":0.8031496062992126,"duration":0.22836540364583158},{"name":"A#4","midi":70,"time":57.2307740000002,"velocity":0.8031496062992126,"duration":0.22836540364583158},{"name":"D3","midi":50,"time":57.2307740000002,"velocity":0.8031496062992126,"duration":0.22836540364583158},{"name":"G4","midi":67,"time":57.461543250000204,"velocity":0.8031496062992126,"duration":0.22836540364583868},{"name":"D#3","midi":51,"time":57.461543250000204,"velocity":0.8031496062992126,"duration":0.22836540364583868},{"name":"F#4","midi":66,"time":57.69231250000021,"velocity":0.8031496062992126,"duration":0.9134616145833405},{"name":"D3","midi":50,"time":57.69231250000021,"velocity":0.8031496062992126,"duration":3.2211541145833777},{"name":"C4","midi":60,"time":57.923081750000215,"velocity":0.8031496062992126,"duration":0.22836540364583158},{"name":"D4","midi":62,"time":58.153851000000216,"velocity":0.8031496062992126,"duration":0.22836540364583158},{"name":"A3","midi":57,"time":58.38462025000022,"velocity":0.8031496062992126,"duration":0.22836540364583868},{"name":"A#3","midi":58,"time":58.61538950000023,"velocity":0.8031496062992126,"duration":1.3822116536458466},{"name":"F#4","midi":66,"time":58.84615875000023,"velocity":0.8031496062992126,"duration":0.22836540364583158},{"name":"A4","midi":69,"time":59.07692800000023,"velocity":0.8031496062992126,"duration":0.22836540364583158},{"name":"D#5","midi":75,"time":59.30769725000023,"velocity":0.8031496062992126,"duration":0.22836540364583158},{"name":"D5","midi":74,"time":59.53846650000023,"velocity":0.8031496062992126,"duration":0.22836540364583158},{"name":"C5","midi":72,"time":59.769235750000234,"velocity":0.8031496062992126,"duration":0.11298077864583433},{"name":"A#4","midi":70,"time":59.88462037500024,"velocity":0.8031496062992126,"duration":0.11298077864583433},{"name":"A4","midi":69,"time":60.00000500000024,"velocity":0.8031496062992126,"duration":0.11298077864583433},{"name":"C4","midi":60,"time":60.00000500000024,"velocity":0.8031496062992126,"duration":0.4591346536458403},{"name":"A#4","midi":70,"time":60.11538962500025,"velocity":0.8031496062992126,"duration":0.11298077864583433},{"name":"G4","midi":67,"time":60.23077425000025,"velocity":0.8031496062992126,"duration":0.45913465364583317},{"name":"D4","midi":62,"time":60.46154350000025,"velocity":0.8031496062992126,"duration":1.153846250000015},{"name":"F#4","midi":66,"time":60.692312750000255,"velocity":0.8031496062992126,"duration":0.22836540364583868},{"name":"A4","midi":69,"time":60.923082000000264,"velocity":0.8031496062992126,"duration":0.22836540364583158},{"name":"D3","midi":50,"time":60.923082000000264,"velocity":0.8031496062992126,"duration":0.45913465364583317},{"name":"C5","midi":72,"time":61.153851250000265,"velocity":0.8031496062992126,"duration":0.22836540364583158},{"name":"A#4","midi":70,"time":61.38462050000027,"velocity":0.8031496062992126,"duration":0.22836540364583158},{"name":"G3","midi":55,"time":61.38462050000027,"velocity":0.8031496062992126,"duration":0.9134616145833405},{"name":"A4","midi":69,"time":61.61538975000027,"velocity":0.8031496062992126,"duration":0.22836540364583158},{"name":"C4","midi":60,"time":61.61538975000027,"velocity":0.8031496062992126,"duration":0.22836540364583158},{"name":"G4","midi":67,"time":61.84615900000027,"velocity":0.8031496062992126,"duration":0.22836540364583158},{"name":"A#3","midi":58,"time":61.84615900000027,"velocity":0.8031496062992126,"duration":0.22836540364583158},{"name":"A4","midi":69,"time":62.07692825000027,"velocity":0.8031496062992126,"duration":0.22836540364583868},{"name":"A3","midi":57,"time":62.07692825000027,"velocity":0.8031496062992126,"duration":0.22836540364583868},{"name":"A#4","midi":70,"time":62.30769750000028,"velocity":0.8031496062992126,"duration":0.11298077864583433},{"name":"G3","midi":55,"time":62.30769750000028,"velocity":0.8031496062992126,"duration":0.22836540364583868},{"name":"A4","midi":69,"time":62.423082125000285,"velocity":0.8031496062992126,"duration":0.11298077864583433},{"name":"A#4","midi":70,"time":62.53846675000029,"velocity":0.8031496062992126,"duration":0.40865388020833393},{"name":"F3","midi":53,"time":62.53846675000029,"velocity":0.8031496062992126,"duration":0.22836540364583158},{"name":"E3","midi":52,"time":62.76923600000029,"velocity":0.8031496062992126,"duration":0.22836540364583158},{"name":"A#4","midi":70,"time":63.00000525000029,"velocity":0.8031496062992126,"duration":0.22836540364583158},{"name":"D3","midi":50,"time":63.00000525000029,"velocity":0.8031496062992126,"duration":0.22836540364583158},{"name":"A#4","midi":70,"time":63.230774500000294,"velocity":0.8031496062992126,"duration":0.22836540364583158},{"name":"C3","midi":48,"time":63.230774500000294,"velocity":0.8031496062992126,"duration":0.45913465364583317},{"name":"G5","midi":79,"time":63.461543750000295,"velocity":0.8031496062992126,"duration":0.22836540364583158},{"name":"E5","midi":76,"time":63.6923130000003,"velocity":0.8031496062992126,"duration":0.22836540364583158},{"name":"D3","midi":50,"time":63.6923130000003,"velocity":0.8031496062992126,"duration":0.45913465364583317},{"name":"C5","midi":72,"time":63.9230822500003,"velocity":0.8031496062992126,"duration":0.22836540364583158},{"name":"C5","midi":72,"time":64.1538515000003,"velocity":0.8031496062992126,"duration":0.11298077864583433},{"name":"C4","midi":60,"time":64.1538515000003,"velocity":0.8031496062992126,"duration":1.1538462500000293},{"name":"E3","midi":52,"time":64.1538515000003,"velocity":0.8031496062992126,"duration":0.4591346536458474},{"name":"A#4","midi":70,"time":64.2692361250003,"velocity":0.8031496062992126,"duration":0.11298077864583433},{"name":"C5","midi":72,"time":64.38462075000031,"velocity":0.8031496062992126,"duration":0.11298077864583433},{"name":"A#4","midi":70,"time":64.50000537500031,"velocity":0.8031496062992126,"duration":0.11298077864583433},{"name":"C5","midi":72,"time":64.61539000000032,"velocity":0.8031496062992126,"duration":0.11298077864583433},{"name":"C3","midi":48,"time":64.61539000000032,"velocity":0.8031496062992126,"duration":0.4591346536458474},{"name":"A#4","midi":70,"time":64.73077462500032,"velocity":0.8031496062992126,"duration":0.11298077864583433},{"name":"A4","midi":69,"time":64.84615925000033,"velocity":0.8031496062992126,"duration":0.11298077864583433},{"name":"A#4","midi":70,"time":64.96154387500033,"velocity":0.8031496062992126,"duration":0.11298077864583433},{"name":"A4","midi":69,"time":65.07692850000034,"velocity":0.8031496062992126,"duration":0.6250000520833368},{"name":"F3","midi":53,"time":65.07692850000034,"velocity":0.8031496062992126,"duration":0.673076979166666},{"name":"C4","midi":60,"time":65.30769775000033,"velocity":0.8031496062992126,"duration":0.22836540364583868},{"name":"B3","midi":59,"time":65.53846700000034,"velocity":0.8031496062992126,"duration":0.22836540364582447},{"name":"B4","midi":71,"time":65.76923625000033,"velocity":0.8031496062992126,"duration":0.22836540364583868},{"name":"A3","midi":57,"time":65.76923625000033,"velocity":0.8031496062992126,"duration":0.22836540364583868},{"name":"C#5","midi":73,"time":66.00000550000034,"velocity":0.8031496062992126,"duration":0.22836540364583868},{"name":"G3","midi":55,"time":66.00000550000034,"velocity":0.8031496062992126,"duration":0.22836540364583868},{"name":"D5","midi":74,"time":66.23077475000035,"velocity":0.8031496062992126,"duration":0.22836540364583868},{"name":"F3","midi":53,"time":66.23077475000035,"velocity":0.8031496062992126,"duration":0.22836540364583868},{"name":"E5","midi":76,"time":66.46154400000036,"velocity":0.8031496062992126,"duration":0.22836540364583868},{"name":"E3","midi":52,"time":66.46154400000036,"velocity":0.8031496062992126,"duration":0.22836540364583868},{"name":"F5","midi":77,"time":66.69231325000037,"velocity":0.8031496062992126,"duration":0.22836540364583868},{"name":"D3","midi":50,"time":66.69231325000037,"velocity":0.8031496062992126,"duration":0.22836540364583868},{"name":"G5","midi":79,"time":66.92308250000038,"velocity":0.8031496062992126,"duration":0.22836540364583868},{"name":"C#3","midi":49,"time":66.92308250000038,"velocity":0.8031496062992126,"duration":0.4591346536458474},{"name":"A5","midi":81,"time":67.15385175000038,"velocity":0.8031496062992126,"duration":0.11298077864583433},{"name":"A#5","midi":82,"time":67.26923637500039,"velocity":0.8031496062992126,"duration":0.11298077864583433},{"name":"A5","midi":81,"time":67.3846210000004,"velocity":0.8031496062992126,"duration":0.11298077864583433},{"name":"A2","midi":45,"time":67.3846210000004,"velocity":0.8031496062992126,"duration":0.4591346536458474},{"name":"A#5","midi":82,"time":67.5000056250004,"velocity":0.8031496062992126,"duration":0.11298077864583433},{"name":"G5","midi":79,"time":67.6153902500004,"velocity":0.8031496062992126,"duration":0.22836540364583868},{"name":"F5","midi":77,"time":67.84615950000041,"velocity":0.8031496062992126,"duration":0.22836540364583868},{"name":"D3","midi":50,"time":67.84615950000041,"velocity":0.8031496062992126,"duration":0.4591346536458474},{"name":"G5","midi":79,"time":68.07692875000042,"velocity":0.8031496062992126,"duration":0.11298077864583433},{"name":"F5","midi":77,"time":68.19231337500042,"velocity":0.8031496062992126,"duration":0.11298077864583433},{"name":"E5","midi":76,"time":68.30769800000043,"velocity":0.8031496062992126,"duration":0.11298077864583433},{"name":"G2","midi":43,"time":68.30769800000043,"velocity":0.8031496062992126,"duration":0.4591346536458474},{"name":"F5","midi":77,"time":68.42308262500043,"velocity":0.8031496062992126,"duration":0.11298077864583433},{"name":"D5","midi":74,"time":68.53846725000044,"velocity":0.8031496062992126,"duration":0.22836540364583868},{"name":"D5","midi":74,"time":68.76923650000045,"velocity":0.8031496062992126,"duration":0.22836540364583868},{"name":"A2","midi":45,"time":68.76923650000045,"velocity":0.8031496062992126,"duration":0.43269234375000565},{"name":"C#5","midi":73,"time":69.00000575000045,"velocity":0.8031496062992126,"duration":0.22836540364582447},{"name":"B4","midi":71,"time":69.23077500000045,"velocity":0.8031496062992126,"duration":0.22836540364583868},{"name":"A3","midi":57,"time":69.23077500000045,"velocity":0.8031496062992126,"duration":0.6899039036458561},{"name":"A4","midi":69,"time":69.46154425000046,"velocity":0.8031496062992126,"duration":0.21634617187500282},{"name":"E5","midi":76,"time":69.69231350000047,"velocity":0.8031496062992126,"duration":0.11298077864583433},{"name":"D5","midi":74,"time":69.80769812500047,"velocity":0.8031496062992126,"duration":0.11298077864583433},{"name":"E5","midi":76,"time":69.92308275000048,"velocity":0.8031496062992126,"duration":0.40865388020834814},{"name":"G3","midi":55,"time":69.92308275000048,"velocity":0.8031496062992126,"duration":0.22836540364583868},{"name":"F3","midi":53,"time":70.15385200000048,"velocity":0.8031496062992126,"duration":0.22836540364583868},{"name":"E5","midi":76,"time":70.38462125000049,"velocity":0.8031496062992126,"duration":0.22836540364583868},{"name":"E3","midi":52,"time":70.38462125000049,"velocity":0.8031496062992126,"duration":0.22836540364583868},{"name":"E5","midi":76,"time":70.6153905000005,"velocity":0.8031496062992126,"duration":0.22836540364583868},{"name":"F3","midi":53,"time":70.6153905000005,"velocity":0.8031496062992126,"duration":1.382211653645868},{"name":"C#5","midi":73,"time":70.84615975000051,"velocity":0.8031496062992126,"duration":0.22836540364583868},{"name":"D5","midi":74,"time":71.07692900000052,"velocity":0.8031496062992126,"duration":0.22836540364583868},{"name":"A3","midi":57,"time":71.07692900000052,"velocity":0.8031496062992126,"duration":0.4591346536458474},{"name":"F5","midi":77,"time":71.30769825000053,"velocity":0.8031496062992126,"duration":0.22836540364583868},{"name":"G5","midi":79,"time":71.53846750000054,"velocity":0.8031496062992126,"duration":1.6105770572917066},{"name":"B3","midi":59,"time":71.53846750000054,"velocity":0.8031496062992126,"duration":0.45913465364583317},{"name":"A4","midi":69,"time":71.76923675000053,"velocity":0.8031496062992126,"duration":0.22836540364583868},{"name":"A#4","midi":70,"time":72.00000600000054,"velocity":0.8031496062992126,"duration":0.22836540364583868},{"name":"E3","midi":52,"time":72.00000600000054,"velocity":0.8031496062992126,"duration":0.4591346536458474},{"name":"C#4","midi":61,"time":72.00000600000054,"velocity":0.8031496062992126,"duration":0.4591346536458474},{"name":"G4","midi":67,"time":72.23077525000055,"velocity":0.8031496062992126,"duration":0.3365384895833472},{"name":"D4","midi":62,"time":72.46154450000056,"velocity":0.8031496062992126,"duration":2.3052886536458885},{"name":"D3","midi":50,"time":72.46154450000056,"velocity":0.8031496062992126,"duration":1.6201924427083867},{"name":"A4","midi":69,"time":72.69231375000057,"velocity":0.8031496062992126,"duration":0.22836540364583868},{"name":"C#5","midi":73,"time":72.92308300000057,"velocity":0.8031496062992126,"duration":0.22836540364583868},{"name":"G5","midi":79,"time":73.15385225000058,"velocity":0.8031496062992126,"duration":0.22836540364583868},{"name":"F5","midi":77,"time":73.38462150000059,"velocity":0.8031496062992126,"duration":1.153846250000015},{"name":"D5","midi":74,"time":73.61539075000059,"velocity":0.8031496062992126,"duration":0.22836540364583868},{"name":"A#4","midi":70,"time":73.8461600000006,"velocity":0.8031496062992126,"duration":0.22836540364583868},{"name":"A4","midi":69,"time":74.0769292500006,"velocity":0.8031496062992126,"duration":0.22836540364583868},{"name":"G4","midi":67,"time":74.30769850000061,"velocity":0.8031496062992126,"duration":0.673076979166666},{"name":"A#4","midi":70,"time":74.5384677500006,"velocity":0.8031496062992126,"duration":0.22836540364583868},{"name":"D#5","midi":75,"time":74.76923700000062,"velocity":0.8031496062992126,"duration":0.673076979166666},{"name":"C4","midi":60,"time":74.76923700000062,"velocity":0.8031496062992126,"duration":0.22836540364582447},{"name":"G4","midi":67,"time":75.00000625000061,"velocity":0.8031496062992126,"duration":0.22836540364583868},{"name":"A#3","midi":58,"time":75.00000625000061,"velocity":0.8031496062992126,"duration":0.22836540364583868},{"name":"A4","midi":69,"time":75.23077550000062,"velocity":0.8031496062992126,"duration":1.153846250000015},{"name":"C4","midi":60,"time":75.23077550000062,"velocity":0.8031496062992126,"duration":0.45913465364583317},{"name":"C5","midi":72,"time":75.46154475000061,"velocity":0.8031496062992126,"duration":0.22836540364583868},{"name":"D5","midi":74,"time":75.69231400000062,"velocity":0.8031496062992126,"duration":0.22836540364583868},{"name":"F3","midi":53,"time":75.69231400000062,"velocity":0.8031496062992126,"duration":0.4591346536458474},{"name":"D#5","midi":75,"time":75.92308325000063,"velocity":0.8031496062992126,"duration":0.22836540364583868},{"name":"D5","midi":74,"time":76.15385250000064,"velocity":0.8031496062992126,"duration":0.673076979166666},{"name":"A#3","midi":58,"time":76.15385250000064,"velocity":0.8031496062992126,"duration":1.5384616666666915},{"name":"A4","midi":69,"time":76.38462175000063,"velocity":0.8031496062992126,"duration":0.22836540364583868},{"name":"A#4","midi":70,"time":76.61539100000064,"velocity":0.8031496062992126,"duration":0.45673080729166315},{"name":"D5","midi":74,"time":76.84616025000064,"velocity":0.8031496062992126,"duration":0.45673080729167737},{"name":"E4","midi":64,"time":77.07692950000065,"velocity":0.8031496062992126,"duration":1.1538462500000293},{"name":"G4","midi":67,"time":77.30769875000065,"velocity":0.8031496062992126,"duration":0.22836540364583868},{"name":"C5","midi":72,"time":77.53846800000066,"velocity":0.8031496062992126,"duration":1.6105770572917066},{"name":"A#3","midi":58,"time":77.76923725000066,"velocity":0.8031496062992126,"duration":0.22836540364583868},{"name":"A3","midi":57,"time":78.00000650000067,"velocity":0.8031496062992126,"duration":0.22836540364583868},{"name":"A#4","midi":70,"time":78.23077575000067,"velocity":0.8031496062992126,"duration":0.22836540364583868},{"name":"G3","midi":55,"time":78.23077575000067,"velocity":0.8031496062992126,"duration":0.22836540364583868},{"name":"A4","midi":69,"time":78.46154500000068,"velocity":0.8031496062992126,"duration":0.22836540364583868},{"name":"F#3","midi":54,"time":78.46154500000068,"velocity":0.8031496062992126,"duration":0.22836540364583868},{"name":"G4","midi":67,"time":78.69231425000069,"velocity":0.8031496062992126,"duration":0.22836540364583868},{"name":"E3","midi":52,"time":78.69231425000069,"velocity":0.8031496062992126,"duration":0.22836540364583868},{"name":"F#4","midi":66,"time":78.9230835000007,"velocity":0.8031496062992126,"duration":0.6730769791666802},{"name":"D3","midi":50,"time":78.9230835000007,"velocity":0.8031496062992126,"duration":0.22836540364583868},{"name":"D#5","midi":75,"time":79.15385275000071,"velocity":0.8031496062992126,"duration":0.22836540364583868},{"name":"C3","midi":48,"time":79.15385275000071,"velocity":0.8031496062992126,"duration":0.22836540364583868},{"name":"D5","midi":74,"time":79.38462200000072,"velocity":0.8031496062992126,"duration":0.22836540364582447},{"name":"A#2","midi":46,"time":79.38462200000072,"velocity":0.8031496062992126,"duration":0.22836540364582447},{"name":"C5","midi":72,"time":79.61539125000071,"velocity":0.8031496062992126,"duration":0.22836540364583868},{"name":"A2","midi":45,"time":79.61539125000071,"velocity":0.8031496062992126,"duration":0.22836540364583868},{"name":"A#4","midi":70,"time":79.84616050000072,"velocity":0.8031496062992126,"duration":0.9134616145833405},{"name":"G2","midi":43,"time":79.84616050000072,"velocity":0.8031496062992126,"duration":0.8653846875000113},{"name":"F#4","midi":66,"time":80.07692975000072,"velocity":0.8031496062992126,"duration":0.22836540364583868},{"name":"G4","midi":67,"time":80.30769900000072,"velocity":0.8031496062992126,"duration":0.22836540364583868},{"name":"D4","midi":62,"time":80.53846825000073,"velocity":0.8031496062992126,"duration":0.22836540364582447},{"name":"D#4","midi":63,"time":80.76923750000073,"velocity":0.8031496062992126,"duration":0.9134616145833405},{"name":"G3","midi":55,"time":80.76923750000073,"velocity":0.8031496062992126,"duration":1.151442403645845},{"name":"G4","midi":67,"time":81.00000675000072,"velocity":0.8031496062992126,"duration":0.22836540364583868},{"name":"A4","midi":69,"time":81.23077600000073,"velocity":0.8031496062992126,"duration":0.22836540364583868},{"name":"A#4","midi":70,"time":81.46154525000074,"velocity":0.8031496062992126,"duration":0.22836540364582447},{"name":"C#4","midi":61,"time":81.69231450000073,"velocity":0.8031496062992126,"duration":0.9134616145833547},{"name":"E4","midi":64,"time":81.92308375000074,"velocity":0.8031496062992126,"duration":0.22836540364583868},{"name":"F3","midi":53,"time":81.92308375000074,"velocity":0.8031496062992126,"duration":0.22836540364583868},{"name":"A4","midi":69,"time":82.15385300000075,"velocity":0.8031496062992126,"duration":0.6490385156250085},{"name":"E3","midi":52,"time":82.15385300000075,"velocity":0.8031496062992126,"duration":0.22836540364583868},{"name":"D3","midi":50,"time":82.38462225000076,"velocity":0.8031496062992126,"duration":0.22836540364582447},{"name":"C#3","midi":49,"time":82.61539150000075,"velocity":0.8031496062992126,"duration":0.22836540364583868},{"name":"B4","midi":71,"time":82.84616075000076,"velocity":0.8031496062992126,"duration":0.22836540364583868},{"name":"B2","midi":47,"time":82.84616075000076,"velocity":0.8031496062992126,"duration":0.22836540364583868},{"name":"A2","midi":45,"time":83.07693000000077,"velocity":0.8031496062992126,"duration":0.2331730963541645},{"name":"C#5","midi":73,"time":83.07693000000077,"velocity":0.8031496062992126,"duration":0.2331730963541645},{"name":"G2","midi":43,"time":83.3125069427091,"velocity":0.8031496062992126,"duration":0.2331730963541645},{"name":"D5","midi":74,"time":83.3125069427091,"velocity":0.8031496062992126,"duration":0.2331730963541645},{"name":"F2","midi":41,"time":83.55048773177161,"velocity":0.8031496062992126,"duration":0.6923077500000261},{"name":"E5","midi":76,"time":83.55048773177161,"velocity":0.8031496062992126,"duration":0.2331730963541645},{"name":"A2","midi":45,"time":83.78846852083412,"velocity":0.8031496062992126,"duration":0.2331730963541787},{"name":"F5","midi":77,"time":83.78846852083412,"velocity":0.8031496062992126,"duration":0.11538462500000435},{"name":"G5","midi":79,"time":83.90866083854246,"velocity":0.8031496062992126,"duration":0.11538462500000435},{"name":"F5","midi":77,"time":84.02644930989663,"velocity":0.8031496062992126,"duration":0.11778847135416015},{"name":"D3","midi":50,"time":84.02644930989663,"velocity":0.8031496062992126,"duration":0.9663462343750098},{"name":"G5","midi":79,"time":84.14664162760496,"velocity":0.8031496062992126,"duration":0.11778847135417436},{"name":"E5","midi":76,"time":84.26923779166748,"velocity":0.8031496062992126,"duration":0.23798078906250453},{"name":"G2","midi":43,"time":84.26923779166748,"velocity":0.8031496062992126,"duration":0.23798078906250453},{"name":"F5","midi":77,"time":84.51443011979248,"velocity":0.8031496062992126,"duration":0.11778847135416015},{"name":"A2","midi":45,"time":84.51443011979248,"velocity":0.8031496062992126,"duration":0.9663462343749956},{"name":"E5","midi":76,"time":84.63702628385498,"velocity":0.8031496062992126,"duration":0.11778847135416015},{"name":"F5","midi":77,"time":84.75962244791748,"velocity":0.8031496062992126,"duration":0.11778847135416015},{"name":"E5","midi":76,"time":84.87981476562581,"velocity":0.8031496062992126,"duration":0.11778847135417436},{"name":"F5","midi":77,"time":84.98077631250081,"velocity":0.8031496062992126,"duration":0.11778847135417436},{"name":"C#3","midi":49,"time":85.00481477604248,"velocity":0.8031496062992126,"duration":0.49759619531249655},{"name":"E5","midi":76,"time":85.11539170833414,"velocity":0.8031496062992126,"duration":0.11778847135416015},{"name":"D5","midi":74,"time":85.24519941145914,"velocity":0.8031496062992126,"duration":0.24278848177083034},{"name":"D2","midi":38,"time":85.50721866406332,"velocity":0.8031496062992126,"duration":5.250000437499992},{"name":"D3","midi":50,"time":85.50721866406332,"velocity":0.8031496062992126,"duration":5.250000437499992},{"name":"D5","midi":74,"time":85.50721866406332,"velocity":0.8031496062992126,"duration":1.757211684895836},{"name":"A#4","midi":70,"time":85.75962253125081,"velocity":0.8031496062992126,"duration":0.24278848177083034},{"name":"C5","midi":72,"time":86.01202639843831,"velocity":0.8031496062992126,"duration":0.2500000208333404},{"name":"A4","midi":69,"time":86.26923795833414,"velocity":0.8031496062992126,"duration":0.2500000208333404},{"name":"A#4","midi":70,"time":86.52885336458415,"velocity":0.8031496062992126,"duration":0.2500000208333262},{"name":"F#4","midi":66,"time":86.79087261718831,"velocity":0.8031496062992126,"duration":0.2500000208333404},{"name":"G4","midi":67,"time":87.05048802343832,"velocity":0.8031496062992126,"duration":0.7740385260416645},{"name":"C#5","midi":73,"time":87.31491112239665,"velocity":0.8031496062992126,"duration":0.2572115598958362},{"name":"D5","midi":74,"time":87.58173806770915,"velocity":0.8031496062992126,"duration":3.5264426015624935},{"name":"E4","midi":64,"time":87.85096885937581,"velocity":0.8031496062992126,"duration":0.2572115598958362},{"name":"F#4","midi":66,"time":88.12019965104248,"velocity":0.8031496062992126,"duration":3.0552887161458244},{"name":"A4","midi":69,"time":88.39183428906331,"velocity":0.8031496062992126,"duration":2.766827153645835},{"name":"D4","midi":62,"time":88.74039201041748,"velocity":0.8031496062992126,"duration":2.4495194348958336},{"name":"A4","midi":69,"time":92.3077000000008,"velocity":0.8031496062992126,"duration":0.1923077083333311},{"name":"A4","midi":69,"time":92.5384692500008,"velocity":0.8031496062992126,"duration":0.6899039036458419},{"name":"D3","midi":50,"time":92.5384692500008,"velocity":0.8031496062992126,"duration":3.6826926145834022},{"name":"F3","midi":53,"time":93.0000077500008,"velocity":0.8031496062992126,"duration":0.4591346536458474},{"name":"G4","midi":67,"time":93.23077700000081,"velocity":0.8031496062992126,"duration":0.22836540364583868},{"name":"F4","midi":65,"time":93.46154625000082,"velocity":0.8031496062992126,"duration":0.22836540364583868},{"name":"A3","midi":57,"time":93.46154625000082,"velocity":0.8031496062992126,"duration":1.382211653645868},{"name":"E4","midi":64,"time":93.69231550000083,"velocity":0.8031496062992126,"duration":0.22836540364583868},{"name":"F4","midi":65,"time":93.92308475000084,"velocity":0.8031496062992126,"duration":0.22836540364583868},{"name":"D4","midi":62,"time":94.15385400000085,"velocity":0.8031496062992126,"duration":0.22836540364583868},{"name":"A#4","midi":70,"time":94.38462325000086,"velocity":0.8031496062992126,"duration":0.673076979166666},{"name":"G4","midi":67,"time":94.61539250000085,"velocity":0.8031496062992126,"duration":0.9134616145833405},{"name":"E4","midi":64,"time":94.84616175000086,"velocity":0.8031496062992126,"duration":0.22836540364582447},{"name":"G3","midi":55,"time":94.84616175000086,"velocity":0.8031496062992126,"duration":0.45913465364583317},{"name":"C#4","midi":61,"time":95.07693100000085,"velocity":0.8031496062992126,"duration":0.22836540364583868},{"name":"A#4","midi":70,"time":95.07693100000085,"velocity":0.8031496062992126,"duration":0.22836540364583868},{"name":"D4","midi":62,"time":95.30770025000086,"velocity":0.8031496062992126,"duration":1.3293270338541845},{"name":"A4","midi":69,"time":95.30770025000086,"velocity":0.8031496062992126,"duration":1.3293270338541845},{"name":"A3","midi":57,"time":95.30770025000086,"velocity":0.8031496062992126,"duration":0.6899039036458419},{"name":"E4","midi":64,"time":95.53846950000086,"velocity":0.8031496062992126,"duration":0.22836540364583868},{"name":"F4","midi":65,"time":95.76923875000087,"velocity":0.8031496062992126,"duration":0.11298077864583433},{"name":"E4","midi":64,"time":95.88462337500087,"velocity":0.8031496062992126,"duration":0.11298077864583433},{"name":"F4","midi":65,"time":96.00000800000088,"velocity":0.8031496062992126,"duration":0.6370192838541726},{"name":"G3","midi":55,"time":96.00000800000088,"velocity":0.8031496062992126,"duration":0.22836540364582447},{"name":"F3","midi":53,"time":96.23077725000087,"velocity":0.8031496062992126,"duration":0.22836540364583868},{"name":"E3","midi":52,"time":96.46154650000088,"velocity":0.8031496062992126,"duration":0.22836540364583868},{"name":"D4","midi":62,"time":96.69231575000089,"velocity":0.8031496062992126,"duration":0.4591346536458474},{"name":"F4","midi":65,"time":96.69231575000089,"velocity":0.8031496062992126,"duration":0.4591346536458474},{"name":"A4","midi":69,"time":96.69231575000089,"velocity":0.8031496062992126,"duration":0.4591346536458474},{"name":"F3","midi":53,"time":96.69231575000089,"velocity":0.8031496062992126,"duration":0.22836540364583868},{"name":"D3","midi":50,"time":96.9230850000009,"velocity":0.8031496062992126,"duration":0.22836540364583868},{"name":"D5","midi":74,"time":97.1538542500009,"velocity":0.8031496062992126,"duration":0.22836540364583868},{"name":"D4","midi":62,"time":97.1538542500009,"velocity":0.8031496062992126,"duration":0.9134616145833547},{"name":"G4","midi":67,"time":97.1538542500009,"velocity":0.8031496062992126,"duration":0.9134616145833547},{"name":"A#3","midi":58,"time":97.1538542500009,"velocity":0.8031496062992126,"duration":0.11298077864583433},{"name":"A3","midi":57,"time":97.26923887500091,"velocity":0.8031496062992126,"duration":0.11298077864583433},{"name":"C#5","midi":73,"time":97.38462350000091,"velocity":0.8031496062992126,"duration":0.22836540364583868},{"name":"A#3","midi":58,"time":97.38462350000091,"velocity":0.8031496062992126,"duration":0.4591346536458474},{"name":"D5","midi":74,"time":97.61539275000092,"velocity":0.8031496062992126,"duration":0.22836540364583868},{"name":"E5","midi":76,"time":97.84616200000093,"velocity":0.8031496062992126,"duration":0.22836540364582447},{"name":"A#3","midi":58,"time":97.84616200000093,"velocity":0.8031496062992126,"duration":0.22836540364582447},{"name":"A4","midi":69,"time":98.07693125000092,"velocity":0.8031496062992126,"duration":0.6730769791666802},{"name":"E4","midi":64,"time":98.07693125000092,"velocity":0.8031496062992126,"duration":0.45673080729167737},{"name":"D5","midi":74,"time":98.07693125000092,"velocity":0.8031496062992126,"duration":0.22836540364583868},{"name":"A3","midi":57,"time":98.07693125000092,"velocity":0.8031496062992126,"duration":1.3822116536458537},{"name":"C#5","midi":73,"time":98.30770050000093,"velocity":0.8031496062992126,"duration":0.22836540364583868},{"name":"D4","midi":62,"time":98.53846975000094,"velocity":0.8031496062992126,"duration":0.9134616145833405},{"name":"B4","midi":71,"time":98.53846975000094,"velocity":0.8031496062992126,"duration":0.22836540364582447},{"name":"A4","midi":69,"time":98.76923900000094,"velocity":0.8031496062992126,"duration":0.22836540364583868},{"name":"E5","midi":76,"time":99.00000825000095,"velocity":0.8031496062992126,"duration":0.9134616145833405},{"name":"G5","midi":79,"time":99.00000825000095,"velocity":0.8031496062992126,"duration":0.22836540364583868},{"name":"F5","midi":77,"time":99.23077750000095,"velocity":0.8031496062992126,"duration":0.22836540364582447},{"name":"C#4","midi":61,"time":99.46154675000095,"velocity":0.8031496062992126,"duration":0.45673080729167737},{"name":"G5","midi":79,"time":99.46154675000095,"velocity":0.8031496062992126,"duration":0.22836540364583868},{"name":"A3","midi":57,"time":99.46154675000095,"velocity":0.8031496062992126,"duration":0.4591346536458474},{"name":"A5","midi":81,"time":99.69231600000096,"velocity":0.8031496062992126,"duration":0.22836540364583868},{"name":"D5","midi":74,"time":99.92308525000097,"velocity":0.8031496062992126,"duration":0.45673080729167737},{"name":"G5","midi":79,"time":99.92308525000097,"velocity":0.8031496062992126,"duration":0.11298077864583433},{"name":"D4","midi":62,"time":99.92308525000097,"velocity":0.8031496062992126,"duration":0.45673080729167737},{"name":"F5","midi":77,"time":100.03846987500097,"velocity":0.8031496062992126,"duration":0.11298077864583433},{"name":"G5","midi":79,"time":100.15385450000097,"velocity":0.8031496062992126,"duration":0.11298077864583433},{"name":"C#4","midi":61,"time":100.15385450000097,"velocity":0.8031496062992126,"duration":0.22836540364583868},{"name":"F5","midi":77,"time":100.26923912500098,"velocity":0.8031496062992126,"duration":0.11298077864583433},{"name":"G#4","midi":68,"time":100.38462375000098,"velocity":0.8031496062992126,"duration":0.45673080729167737},{"name":"G5","midi":79,"time":100.38462375000098,"velocity":0.8031496062992126,"duration":0.11298077864583433},{"name":"D4","midi":62,"time":100.38462375000098,"velocity":0.8031496062992126,"duration":0.22836540364583868},{"name":"F5","midi":77,"time":100.50000837500099,"velocity":0.8031496062992126,"duration":0.11298077864583433},{"name":"E5","midi":76,"time":100.61539300000099,"velocity":0.8031496062992126,"duration":0.22836540364583868},{"name":"E4","midi":64,"time":100.61539300000099,"velocity":0.8031496062992126,"duration":0.22836540364583868},{"name":"A4","midi":69,"time":100.846162250001,"velocity":0.8031496062992126,"duration":1.2019231770833727},{"name":"E5","midi":76,"time":100.846162250001,"velocity":0.8031496062992126,"duration":1.2019231770833727},{"name":"D4","midi":62,"time":100.846162250001,"velocity":0.8031496062992126,"duration":0.22836540364583868},{"name":"C#4","midi":61,"time":101.07693150000101,"velocity":0.8031496062992126,"duration":0.22836540364583868},{"name":"B3","midi":59,"time":101.30770075000102,"velocity":0.8031496062992126,"duration":0.22836540364583868},{"name":"A3","midi":57,"time":101.53847000000103,"velocity":0.8031496062992126,"duration":0.22836540364583868},{"name":"G3","midi":55,"time":101.76923925000104,"velocity":0.8031496062992126,"duration":0.22836540364583868},{"name":"F#3","midi":54,"time":102.00000850000104,"velocity":0.8031496062992126,"duration":0.22836540364582447},{"name":"A4","midi":69,"time":102.23077775000104,"velocity":0.8031496062992126,"duration":0.4591346536458474},{"name":"C#5","midi":73,"time":102.23077775000104,"velocity":0.8031496062992126,"duration":0.4591346536458474},{"name":"E5","midi":76,"time":102.23077775000104,"velocity":0.8031496062992126,"duration":0.4591346536458474},{"name":"G3","midi":55,"time":102.23077775000104,"velocity":0.8031496062992126,"duration":0.22836540364583868},{"name":"A3","midi":57,"time":102.46154700000105,"velocity":0.8031496062992126,"duration":0.22836540364583868},{"name":"A5","midi":81,"time":102.69231625000106,"velocity":0.8031496062992126,"duration":0.22836540364583868},{"name":"A4","midi":69,"time":102.69231625000106,"velocity":0.8031496062992126,"duration":0.5769231250000217},{"name":"D5","midi":74,"time":102.69231625000106,"velocity":0.8031496062992126,"duration":0.22836540364583868},{"name":"F#3","midi":54,"time":102.69231625000106,"velocity":0.8031496062992126,"duration":0.6899039036458561},{"name":"C5","midi":72,"time":102.92308550000106,"velocity":0.8031496062992126,"duration":0.22836540364583868},{"name":"D5","midi":74,"time":103.15385475000107,"velocity":0.8031496062992126,"duration":0.22836540364583868},{"name":"A4","midi":69,"time":103.38462400000108,"velocity":0.8031496062992126,"duration":0.22836540364583868},{"name":"G3","midi":55,"time":103.38462400000108,"velocity":0.8031496062992126,"duration":0.22836540364583868},{"name":"C5","midi":72,"time":103.61539325000109,"velocity":0.8031496062992126,"duration":0.22836540364583868},{"name":"G3","midi":55,"time":103.61539325000109,"velocity":0.8031496062992126,"duration":0.6899039036458561},{"name":"A#4","midi":70,"time":103.8461625000011,"velocity":0.8031496062992126,"duration":0.22836540364583868},{"name":"A4","midi":69,"time":104.07693175000111,"velocity":0.8031496062992126,"duration":0.22836540364583868},{"name":"G4","midi":67,"time":104.30770100000112,"velocity":0.8031496062992126,"duration":0.22836540364583868},{"name":"F3","midi":53,"time":104.30770100000112,"velocity":0.8031496062992126,"duration":0.22836540364583868},{"name":"G4","midi":67,"time":104.53847025000113,"velocity":0.8031496062992126,"duration":1.1538462500000435},{"name":"A#4","midi":70,"time":104.53847025000113,"velocity":0.8031496062992126,"duration":0.6899039036458561},{"name":"E3","midi":52,"time":104.53847025000113,"velocity":0.8031496062992126,"duration":0.22836540364583868},{"name":"D3","midi":50,"time":104.76923950000113,"velocity":0.8031496062992126,"duration":0.22836540364583868},{"name":"E3","midi":52,"time":105.00000875000114,"velocity":0.8031496062992126,"duration":0.22836540364583868},{"name":"C5","midi":72,"time":105.23077800000115,"velocity":0.8031496062992126,"duration":0.22836540364583868},{"name":"C3","midi":48,"time":105.23077800000115,"velocity":0.8031496062992126,"duration":0.22836540364583868},{"name":"A4","midi":69,"time":105.46154725000116,"velocity":0.8031496062992126,"duration":0.6730769791666802},{"name":"F3","midi":53,"time":105.46154725000116,"velocity":0.8031496062992126,"duration":0.22836540364583868},{"name":"D3","midi":50,"time":105.69231650000117,"velocity":0.8031496062992126,"duration":0.22836540364583868},{"name":"F4","midi":65,"time":105.92308575000118,"velocity":0.8031496062992126,"duration":1.3822116536458537},{"name":"C3","midi":48,"time":105.92308575000118,"velocity":0.8031496062992126,"duration":0.22836540364582447},{"name":"A#4","midi":70,"time":106.15385500000117,"velocity":0.8031496062992126,"duration":0.22836540364583868},{"name":"A#2","midi":46,"time":106.15385500000117,"velocity":0.8031496062992126,"duration":0.22836540364583868},{"name":"C5","midi":72,"time":106.38462425000118,"velocity":0.8031496062992126,"duration":0.6899039036458419},{"name":"A2","midi":45,"time":106.38462425000118,"velocity":0.8031496062992126,"duration":1.382211653645868},{"name":"C3","midi":48,"time":106.61539350000118,"velocity":0.8031496062992126,"duration":0.22836540364583868},{"name":"D3","midi":50,"time":106.84616275000118,"velocity":0.8031496062992126,"duration":0.22836540364583868},{"name":"A#4","midi":70,"time":107.0769320000012,"velocity":0.8031496062992126,"duration":0.22836540364583868},{"name":"E3","midi":52,"time":107.0769320000012,"velocity":0.8031496062992126,"duration":0.22836540364583868},{"name":"A4","midi":69,"time":107.3077012500012,"velocity":0.8031496062992126,"duration":0.22836540364583868},{"name":"F3","midi":53,"time":107.3077012500012,"velocity":0.8031496062992126,"duration":2.524038671875047},{"name":"G4","midi":67,"time":107.53847050000121,"velocity":0.8031496062992126,"duration":0.22836540364583868},{"name":"A4","midi":69,"time":107.76923975000122,"velocity":0.8031496062992126,"duration":0.22836540364583868},{"name":"G2","midi":43,"time":107.76923975000122,"velocity":0.8031496062992126,"duration":0.4591346536458474},{"name":"F4","midi":65,"time":108.00000900000123,"velocity":0.8031496062992126,"duration":0.22836540364583868},{"name":"D#5","midi":75,"time":108.23077825000124,"velocity":0.8031496062992126,"duration":0.673076979166666},{"name":"A2","midi":45,"time":108.23077825000124,"velocity":0.8031496062992126,"duration":0.45913465364583317},{"name":"C5","midi":72,"time":108.46154750000123,"velocity":0.8031496062992126,"duration":0.22836540364583868},{"name":"A4","midi":69,"time":108.69231675000124,"velocity":0.8031496062992126,"duration":0.45673080729166315},{"name":"F2","midi":41,"time":108.69231675000124,"velocity":0.8031496062992126,"duration":0.45913465364583317},{"name":"F5","midi":77,"time":108.92308600000123,"velocity":0.8031496062992126,"duration":0.22836540364583868},{"name":"D5","midi":74,"time":109.15385525000124,"velocity":0.8031496062992126,"duration":1.3052885703125128},{"name":"A#2","midi":46,"time":109.15385525000124,"velocity":0.8031496062992126,"duration":0.9134616145833405},{"name":"A4","midi":69,"time":109.38462450000124,"velocity":0.8031496062992126,"duration":0.22836540364583868},{"name":"A#4","midi":70,"time":109.61539375000125,"velocity":0.8031496062992126,"duration":0.11298077864583433},{"name":"A4","midi":69,"time":109.73077837500125,"velocity":0.8031496062992126,"duration":0.11298077864583433},{"name":"A#4","midi":70,"time":109.84616300000125,"velocity":0.8031496062992126,"duration":0.6129808203125009},{"name":"D#3","midi":51,"time":109.84616300000125,"velocity":0.8031496062992126,"duration":0.22836540364582447},{"name":"D3","midi":50,"time":110.07693225000125,"velocity":0.8031496062992126,"duration":0.22836540364583868},{"name":"C3","midi":48,"time":110.30770150000126,"velocity":0.8031496062992126,"duration":0.22836540364582447},{"name":"A#4","midi":70,"time":110.53847075000125,"velocity":0.8031496062992126,"duration":0.4591346536458474},{"name":"D5","midi":74,"time":110.53847075000125,"velocity":0.8031496062992126,"duration":0.4591346536458474},{"name":"F4","midi":65,"time":110.53847075000125,"velocity":0.8031496062992126,"duration":0.4591346536458474},{"name":"D3","midi":50,"time":110.53847075000125,"velocity":0.8031496062992126,"duration":0.22836540364583868},{"name":"A#2","midi":46,"time":110.76924000000126,"velocity":0.8031496062992126,"duration":0.22836540364583868},{"name":"G4","midi":67,"time":111.00000925000127,"velocity":0.8031496062992126,"duration":0.6730769791666802},{"name":"C5","midi":72,"time":111.00000925000127,"velocity":0.8031496062992126,"duration":0.6730769791666802},{"name":"E5","midi":76,"time":111.00000925000127,"velocity":0.8031496062992126,"duration":0.22836540364583868},{"name":"A#3","midi":58,"time":111.00000925000127,"velocity":0.8031496062992126,"duration":0.6899039036458419},{"name":"D5","midi":74,"time":111.23077850000128,"velocity":0.8031496062992126,"duration":0.22836540364583868},{"name":"E5","midi":76,"time":111.46154775000129,"velocity":0.8031496062992126,"duration":0.22836540364582447},{"name":"F5","midi":77,"time":111.69231700000128,"velocity":0.8031496062992126,"duration":0.22836540364583868},{"name":"A4","midi":69,"time":111.69231700000128,"velocity":0.8031496062992126,"duration":0.6730769791666802},{"name":"A3","midi":57,"time":111.69231700000128,"velocity":0.8031496062992126,"duration":0.22836540364583868},{"name":"A#4","midi":70,"time":111.92308625000129,"velocity":0.8031496062992126,"duration":0.673076979166666},{"name":"G3","midi":55,"time":111.92308625000129,"velocity":0.8031496062992126,"duration":0.22836540364583868},{"name":"D3","midi":50,"time":112.1538555000013,"velocity":0.8031496062992126,"duration":0.22836540364582447},{"name":"G4","midi":67,"time":112.3846247500013,"velocity":0.8031496062992126,"duration":0.9134616145833405},{"name":"E3","midi":52,"time":112.3846247500013,"velocity":0.8031496062992126,"duration":0.22836540364582447},{"name":"C5","midi":72,"time":112.61539400000129,"velocity":0.8031496062992126,"duration":0.22836540364583868},{"name":"C3","midi":48,"time":112.61539400000129,"velocity":0.8031496062992126,"duration":0.22836540364583868},{"name":"A4","midi":69,"time":112.8461632500013,"velocity":0.8031496062992126,"duration":0.673076979166666},{"name":"F3","midi":53,"time":112.8461632500013,"velocity":0.8031496062992126,"duration":0.22836540364583868},{"name":"C3","midi":48,"time":113.0769325000013,"velocity":0.8031496062992126,"duration":0.22836540364582447},{"name":"F4","midi":65,"time":113.3077017500013,"velocity":0.8031496062992126,"duration":0.9134616145833405},{"name":"D3","midi":50,"time":113.3077017500013,"velocity":0.8031496062992126,"duration":0.22836540364582447},{"name":"G4","midi":67,"time":113.5384710000013,"velocity":0.8031496062992126,"duration":0.22836540364583868},{"name":"B2","midi":47,"time":113.5384710000013,"velocity":0.8031496062992126,"duration":0.22836540364583868},{"name":"G4","midi":67,"time":113.7692402500013,"velocity":0.8031496062992126,"duration":0.673076979166666},{"name":"D3","midi":50,"time":113.7692402500013,"velocity":0.8031496062992126,"duration":0.22836540364583868},{"name":"C#3","midi":49,"time":114.00000950000131,"velocity":0.8031496062992126,"duration":0.22836540364582447},{"name":"E4","midi":64,"time":114.2307787500013,"velocity":0.8031496062992126,"duration":0.8653846874999971},{"name":"B2","midi":47,"time":114.2307787500013,"velocity":0.8031496062992126,"duration":0.22836540364582447},{"name":"F4","midi":65,"time":114.4615480000013,"velocity":0.8031496062992126,"duration":0.22836540364583868},{"name":"A2","midi":45,"time":114.4615480000013,"velocity":0.8031496062992126,"duration":0.22836540364583868},{"name":"F4","midi":65,"time":114.69231725000131,"velocity":0.8031496062992126,"duration":0.673076979166666},{"name":"D3","midi":50,"time":114.69231725000131,"velocity":0.8031496062992126,"duration":1.3822116536458537},{"name":"E3","midi":52,"time":114.9230865000013,"velocity":0.8031496062992126,"duration":0.22836540364583868},{"name":"D4","midi":62,"time":115.15385575000131,"velocity":0.8031496062992126,"duration":0.22836540364582447},{"name":"F3","midi":53,"time":115.15385575000131,"velocity":0.8031496062992126,"duration":0.22836540364582447},{"name":"C#4","midi":61,"time":115.38462500000131,"velocity":0.8031496062992126,"duration":0.22836540364583868},{"name":"E4","midi":64,"time":115.38462500000131,"velocity":0.8031496062992126,"duration":0.22836540364583868},{"name":"G3","midi":55,"time":115.38462500000131,"velocity":0.8031496062992126,"duration":0.22836540364583868},{"name":"D4","midi":62,"time":115.61539425000132,"velocity":0.8031496062992126,"duration":2.0673078645833556},{"name":"F4","midi":65,"time":115.61539425000132,"velocity":0.8031496062992126,"duration":0.22836540364583868},{"name":"A3","midi":57,"time":115.61539425000132,"velocity":0.8031496062992126,"duration":0.9134616145833547},{"name":"G4","midi":67,"time":115.84616350000132,"velocity":0.8031496062992126,"duration":0.22836540364583868},{"name":"F4","midi":65,"time":116.07693275000133,"velocity":0.8031496062992126,"duration":0.22836540364583868},{"name":"C3","midi":48,"time":116.07693275000133,"velocity":0.8031496062992126,"duration":0.45913465364583317},{"name":"G4","midi":67,"time":116.30770200000134,"velocity":0.8031496062992126,"duration":0.22836540364582447},{"name":"A4","midi":69,"time":116.53847125000134,"velocity":0.8031496062992126,"duration":0.11298077864583433},{"name":"A#3","midi":58,"time":116.53847125000134,"velocity":0.8031496062992126,"duration":0.9206731536458364},{"name":"A#2","midi":46,"time":116.53847125000134,"velocity":0.8031496062992126,"duration":0.9206731536458364},{"name":"G4","midi":67,"time":116.649048182293,"velocity":0.8031496062992126,"duration":0.10817308593750852},{"name":"A4","midi":69,"time":116.75962511458468,"velocity":0.8031496062992126,"duration":0.1081730859374943},{"name":"G4","midi":67,"time":116.87020204687634,"velocity":0.8031496062992126,"duration":0.1081730859374943},{"name":"A4","midi":69,"time":116.98077897916801,"velocity":0.8031496062992126,"duration":0.1081730859374943},{"name":"G4","midi":67,"time":117.09135591145967,"velocity":0.8031496062992126,"duration":0.1250000104166702},{"name":"A4","midi":69,"time":117.23077900000135,"velocity":0.8031496062992126,"duration":0.20192309374999695},{"name":"A4","midi":69,"time":117.46154825000134,"velocity":0.8031496062992126,"duration":1.153846250000015},{"name":"A2","midi":45,"time":117.46154825000134,"velocity":0.8031496062992126,"duration":2.500000208333347},{"name":"E3","midi":52,"time":117.46154825000134,"velocity":0.8031496062992126,"duration":1.8437501536458427},{"name":"D4","midi":62,"time":117.69231750000134,"velocity":0.8031496062992126,"duration":0.22836540364583868},{"name":"E4","midi":64,"time":117.92308675000135,"velocity":0.8031496062992126,"duration":0.22836540364583868},{"name":"B3","midi":59,"time":118.15385600000135,"velocity":0.8031496062992126,"duration":0.22836540364583868},{"name":"C#4","midi":61,"time":118.38462525000136,"velocity":0.8031496062992126,"duration":1.3822116536458253},{"name":"E4","midi":64,"time":118.61539450000136,"velocity":0.8031496062992126,"duration":1.1538462500000009},{"name":"A4","midi":69,"time":118.84616375000135,"velocity":0.8031496062992126,"duration":0.9134616145833405},{"name":"A3","midi":57,"time":119.30770225000136,"velocity":0.8031496062992126,"duration":0.5769231250000075},{"name":"A4","midi":69,"time":120.00001000000135,"velocity":0.8031496062992126,"duration":0.1923077083333311},{"name":"C#4","midi":61,"time":120.23077925000135,"velocity":0.8031496062992126,"duration":0.6899039036458419},{"name":"E4","midi":64,"time":120.23077925000135,"velocity":0.8031496062992126,"duration":0.6899039036458419},{"name":"A4","midi":69,"time":120.23077925000135,"velocity":0.8031496062992126,"duration":0.6899039036458419},{"name":"A2","midi":45,"time":120.23077925000135,"velocity":0.8031496062992126,"duration":1.382211653645868},{"name":"E3","midi":52,"time":120.46154850000134,"velocity":0.8031496062992126,"duration":0.22836540364583868},{"name":"F3","midi":53,"time":120.69231775000135,"velocity":0.8031496062992126,"duration":0.22836540364583868},{"name":"B4","midi":71,"time":120.92308700000136,"velocity":0.8031496062992126,"duration":0.22836540364583868},{"name":"G3","midi":55,"time":120.92308700000136,"velocity":0.8031496062992126,"duration":0.22836540364583868},{"name":"C#5","midi":73,"time":121.15385625000137,"velocity":0.8031496062992126,"duration":0.22836540364583868},{"name":"A3","midi":57,"time":121.15385625000137,"velocity":0.8031496062992126,"duration":2.7644233072917075},{"name":"D5","midi":74,"time":121.38462550000138,"velocity":0.8031496062992126,"duration":0.22836540364583868},{"name":"C#5","midi":73,"time":121.61539475000139,"velocity":0.8031496062992126,"duration":0.22836540364583868},{"name":"B2","midi":47,"time":121.61539475000139,"velocity":0.8031496062992126,"duration":0.4591346536458474},{"name":"E5","midi":76,"time":121.8461640000014,"velocity":0.8031496062992126,"duration":0.22836540364583868},{"name":"E4","midi":64,"time":122.0769332500014,"velocity":0.8031496062992126,"duration":0.9134616145833263},{"name":"A4","midi":69,"time":122.0769332500014,"velocity":0.8031496062992126,"duration":0.11298077864583433},{"name":"C#3","midi":49,"time":122.0769332500014,"velocity":0.8031496062992126,"duration":0.45673080729166315},{"name":"G4","midi":67,"time":122.18991402864724,"velocity":0.8031496062992126,"duration":0.11298077864583433},{"name":"A4","midi":69,"time":122.30289480729307,"velocity":0.8031496062992126,"duration":0.11298077864583433},{"name":"E3","midi":52,"time":122.30770250000141,"velocity":0.8031496062992126,"duration":0.6730769791666518},{"name":"G4","midi":67,"time":122.4158755859389,"velocity":0.8031496062992126,"duration":0.3437500286458288},{"name":"A2","midi":45,"time":122.5384717500014,"velocity":0.8031496062992126,"duration":0.45913465364581896},{"name":"A4","midi":69,"time":122.7692410000014,"velocity":0.8031496062992126,"duration":0.22836540364582447},{"name":"D4","midi":62,"time":123.0000102500014,"velocity":0.8031496062992126,"duration":0.6730769791666802},{"name":"G4","midi":67,"time":123.0000102500014,"velocity":0.8031496062992126,"duration":0.22836540364583868},{"name":"D3","midi":50,"time":123.0000102500014,"velocity":0.8031496062992126,"duration":0.6899039036458419},{"name":"F4","midi":65,"time":123.2307795000014,"velocity":0.8031496062992126,"duration":0.22836540364583868},{"name":"E4","midi":64,"time":123.46154875000141,"velocity":0.8031496062992126,"duration":0.22836540364582447},{"name":"D4","midi":62,"time":123.6923180000014,"velocity":0.8031496062992126,"duration":0.20432694010416697},{"name":"E3","midi":52,"time":123.6923180000014,"velocity":0.8031496062992126,"duration":0.22836540364583868},{"name":"A4","midi":69,"time":123.92308725000142,"velocity":0.8031496062992126,"duration":0.11298077864583433},{"name":"F3","midi":53,"time":123.92308725000142,"velocity":0.8031496062992126,"duration":0.22836540364583868},{"name":"G4","midi":67,"time":124.03847187500142,"velocity":0.8031496062992126,"duration":0.11298077864583433},{"name":"A4","midi":69,"time":124.15385650000142,"velocity":0.8031496062992126,"duration":0.4591346536458474},{"name":"G3","midi":55,"time":124.15385650000142,"velocity":0.8031496062992126,"duration":0.22836540364583868},{"name":"F3","midi":53,"time":124.38462575000143,"velocity":0.8031496062992126,"duration":0.22836540364583868},{"name":"A#4","midi":70,"time":124.61539500000144,"velocity":0.8031496062992126,"duration":0.11298077864583433},{"name":"A3","midi":57,"time":124.61539500000144,"velocity":0.8031496062992126,"duration":0.22836540364583868},{"name":"C5","midi":72,"time":124.73077962500145,"velocity":0.8031496062992126,"duration":0.11298077864583433},{"name":"D4","midi":62,"time":124.84616425000145,"velocity":0.8031496062992126,"duration":1.3822116536458395},{"name":"G4","midi":67,"time":124.84616425000145,"velocity":0.8031496062992126,"duration":0.11298077864583433},{"name":"C3","midi":48,"time":124.84616425000145,"velocity":0.8031496062992126,"duration":0.673076979166666},{"name":"F#4","midi":66,"time":124.95193348958479,"velocity":0.8031496062992126,"duration":0.11298077864582012},{"name":"G4","midi":67,"time":125.05770272916811,"velocity":0.8031496062992126,"duration":0.11298077864583433},{"name":"A3","midi":57,"time":125.07693350000145,"velocity":0.8031496062992126,"duration":0.22836540364583868},{"name":"F#4","midi":66,"time":125.16347196875145,"velocity":0.8031496062992126,"duration":0.37259618489582635},{"name":"D3","midi":50,"time":125.30770275000145,"velocity":0.8031496062992126,"duration":0.45673080729166315},{"name":"F#4","midi":66,"time":125.53847200000145,"velocity":0.8031496062992126,"duration":0.22836540364583868},{"name":"C3","midi":48,"time":125.53847200000145,"velocity":0.8031496062992126,"duration":0.22836540364583868},{"name":"G4","midi":67,"time":125.76924125000146,"velocity":0.8031496062992126,"duration":0.6250000520833368},{"name":"A#2","midi":46,"time":125.76924125000146,"velocity":0.8031496062992126,"duration":0.9134616145833405},{"name":"D3","midi":50,"time":126.00001050000145,"velocity":0.8031496062992126,"duration":0.22836540364583868},{"name":"E3","midi":52,"time":126.23077975000146,"velocity":0.8031496062992126,"duration":0.22836540364583868},{"name":"A4","midi":69,"time":126.46154900000147,"velocity":0.8031496062992126,"duration":0.22836540364582447},{"name":"F#3","midi":54,"time":126.46154900000147,"velocity":0.8031496062992126,"duration":0.22836540364582447},{"name":"A#4","midi":70,"time":126.69231825000146,"velocity":0.8031496062992126,"duration":0.22836540364583868},{"name":"G3","midi":55,"time":126.69231825000146,"velocity":0.8031496062992126,"duration":0.22836540364583868},{"name":"C5","midi":72,"time":126.92308750000147,"velocity":0.8031496062992126,"duration":0.22836540364583868},{"name":"D#3","midi":51,"time":126.92308750000147,"velocity":0.8031496062992126,"duration":0.22836540364583868},{"name":"D5","midi":74,"time":127.15385675000148,"velocity":0.8031496062992126,"duration":0.22836540364583868},{"name":"F3","midi":53,"time":127.15385675000148,"velocity":0.8031496062992126,"duration":0.22836540364583868},{"name":"D#5","midi":75,"time":127.38462600000149,"velocity":0.8031496062992126,"duration":0.22836540364583868},{"name":"D3","midi":50,"time":127.38462600000149,"velocity":0.8031496062992126,"duration":0.22836540364583868},{"name":"D5","midi":74,"time":127.6153952500015,"velocity":0.8031496062992126,"duration":0.9134616145833121},{"name":"C3","midi":48,"time":127.6153952500015,"velocity":0.8031496062992126,"duration":0.22836540364583868},{"name":"D#5","midi":75,"time":127.7307798750015,"velocity":0.8031496062992126,"duration":0.11298077864583433},{"name":"B2","midi":47,"time":127.8461645000015,"velocity":0.8031496062992126,"duration":0.22836540364583868},{"name":"F5","midi":77,"time":127.8461645000015,"velocity":0.8031496062992126,"duration":0.45673080729166315},{"name":"A2","midi":45,"time":128.0769337500015,"velocity":0.8031496062992126,"duration":0.22836540364582447},{"name":"G5","midi":79,"time":128.30770300000148,"velocity":0.8031496062992126,"duration":0.22836540364582447},{"name":"G2","midi":43,"time":128.30770300000148,"velocity":0.8031496062992126,"duration":0.22836540364582447},{"name":"C5","midi":72,"time":128.53847225000146,"velocity":0.8031496062992126,"duration":0.6730769791666376},{"name":"F5","midi":77,"time":128.53847225000146,"velocity":0.8031496062992126,"duration":0.22836540364582447},{"name":"C3","midi":48,"time":128.53847225000146,"velocity":0.8031496062992126,"duration":1.151442403645774},{"name":"D#5","midi":75,"time":128.76924150000144,"velocity":0.8031496062992126,"duration":0.22836540364582447},{"name":"D5","midi":74,"time":129.00001075000142,"velocity":0.8031496062992126,"duration":0.2283654036458529},{"name":"C5","midi":72,"time":129.23078000000143,"velocity":0.8031496062992126,"duration":0.20432694010415275},{"name":"F#4","midi":66,"time":129.4615492500014,"velocity":0.8031496062992126,"duration":0.6730769791666376},{"name":"A4","midi":69,"time":129.5769338750014,"velocity":0.8031496062992126,"duration":0.5600962005208032},{"name":"D5","midi":74,"time":129.6923185000014,"velocity":0.8031496062992126,"duration":0.45913465364580475},{"name":"A2","midi":45,"time":129.6923185000014,"velocity":0.8031496062992126,"duration":0.22836540364582447},{"name":"A#2","midi":46,"time":129.92308775000137,"velocity":0.8031496062992126,"duration":0.22836540364582447},{"name":"G4","midi":67,"time":130.15385700000135,"velocity":0.8031496062992126,"duration":0.22836540364582447},{"name":"D3","midi":50,"time":130.15385700000135,"velocity":0.8031496062992126,"duration":0.22836540364582447},{"name":"G4","midi":67,"time":130.38462625000133,"velocity":0.8031496062992126,"duration":0.11298077864583433},{"name":"D#3","midi":51,"time":130.38462625000133,"velocity":0.8031496062992126,"duration":0.22836540364582447},{"name":"F#4","midi":66,"time":130.50001087500132,"velocity":0.8031496062992126,"duration":0.11298077864583433},{"name":"G4","midi":67,"time":130.6153955000013,"velocity":0.8031496062992126,"duration":0.11298077864583433},{"name":"C3","midi":48,"time":130.6153955000013,"velocity":0.8031496062992126,"duration":0.22836540364582447},{"name":"F#4","midi":66,"time":130.7307801250013,"velocity":0.8031496062992126,"duration":0.3437500286458146},{"name":"A3","midi":57,"time":130.8461647500013,"velocity":0.8031496062992126,"duration":0.22836540364582447},{"name":"G4","midi":67,"time":131.07693400000127,"velocity":0.8031496062992126,"duration":0.22836540364582447},{"name":"A#3","midi":58,"time":131.07693400000127,"velocity":0.8031496062992126,"duration":0.22836540364582447},{"name":"D4","midi":62,"time":131.30770325000125,"velocity":0.8031496062992126,"duration":1.3822116536457827},{"name":"F#3","midi":54,"time":131.30770325000125,"velocity":0.8031496062992126,"duration":0.45913465364583317},{"name":"F#4","midi":66,"time":131.53847250000126,"velocity":0.8031496062992126,"duration":0.22836540364582447},{"name":"A4","midi":69,"time":131.76924175000124,"velocity":0.8031496062992126,"duration":0.22836540364582447},{"name":"D3","midi":50,"time":131.76924175000124,"velocity":0.8031496062992126,"duration":0.45913465364580475},{"name":"C5","midi":72,"time":132.00001100000122,"velocity":0.8031496062992126,"duration":0.22836540364582447},{"name":"A#4","midi":70,"time":132.2307802500012,"velocity":0.8031496062992126,"duration":0.673076979166666},{"name":"G4","midi":67,"time":132.2307802500012,"velocity":0.8031496062992126,"duration":0.9134616145833263},{"name":"G3","midi":55,"time":132.2307802500012,"velocity":0.8031496062992126,"duration":0.45913465364583317},{"name":"D#4","midi":63,"time":132.6923187500012,"velocity":0.8031496062992126,"duration":0.45673080729167737},{"name":"C3","midi":48,"time":132.6923187500012,"velocity":0.8031496062992126,"duration":0.45913465364583317},{"name":"A4","midi":69,"time":132.9230880000012,"velocity":0.8031496062992126,"duration":0.22836540364582447},{"name":"F#4","midi":66,"time":133.15385725000118,"velocity":0.8031496062992126,"duration":0.6730769791666091},{"name":"A#4","midi":70,"time":133.15385725000118,"velocity":0.8031496062992126,"duration":0.11298077864583433},{"name":"D3","midi":50,"time":133.15385725000118,"velocity":0.8031496062992126,"duration":0.45913465364580475},{"name":"A4","midi":69,"time":133.26924187500117,"velocity":0.8031496062992126,"duration":0.11298077864583433},{"name":"A#4","midi":70,"time":133.38462650000116,"velocity":0.8031496062992126,"duration":0.11298077864583433},{"name":"A4","midi":69,"time":133.50001112500115,"velocity":0.8031496062992126,"duration":0.11298077864583433},{"name":"A#4","midi":70,"time":133.61539575000114,"velocity":0.8031496062992126,"duration":0.11298077864583433},{"name":"D2","midi":38,"time":133.61539575000114,"velocity":0.8031496062992126,"duration":0.45913465364580475},{"name":"A4","midi":69,"time":133.73078037500113,"velocity":0.8031496062992126,"duration":0.11298077864583433},{"name":"G4","midi":67,"time":133.84616500000112,"velocity":0.8031496062992126,"duration":0.22836540364582447},{"name":"G4","midi":67,"time":134.0769342500011,"velocity":0.8031496062992126,"duration":1.2980770312499317},{"name":"G2","midi":43,"time":134.0769342500011,"velocity":0.8031496062992126,"duration":0.9206731536457937},{"name":"D#4","midi":63,"time":134.3077035000011,"velocity":0.8031496062992126,"duration":0.22836540364582447},{"name":"D4","midi":62,"time":134.5384727500011,"velocity":0.8031496062992126,"duration":0.22836540364582447},{"name":"C4","midi":60,"time":134.76924200000107,"velocity":0.8031496062992126,"duration":0.22836540364582447},{"name":"A#3","midi":58,"time":135.00001125000105,"velocity":0.8031496062992126,"duration":0.22836540364582447},{"name":"A3","midi":57,"time":135.23078050000103,"velocity":0.8031496062992126,"duration":0.22836540364582447},{"name":"G4","midi":67,"time":135.461549750001,"velocity":0.8031496062992126,"duration":0.22836540364582447},{"name":"A#3","midi":58,"time":135.461549750001,"velocity":0.8031496062992126,"duration":0.22836540364582447},{"name":"A4","midi":69,"time":135.692319000001,"velocity":0.8031496062992126,"duration":0.11298077864583433},{"name":"G3","midi":55,"time":135.692319000001,"velocity":0.8031496062992126,"duration":0.22836540364582447},{"name":"A#4","midi":70,"time":135.80770362500098,"velocity":0.8031496062992126,"duration":0.11298077864583433},{"name":"F4","midi":65,"time":135.92308825000097,"velocity":0.8031496062992126,"duration":0.22836540364582447},{"name":"A#4","midi":70,"time":135.92308825000097,"velocity":0.8031496062992126,"duration":0.6730769791666376},{"name":"E4","midi":64,"time":136.15385750000095,"velocity":0.8031496062992126,"duration":0.22836540364582447},{"name":"G2","midi":43,"time":136.15385750000095,"velocity":0.8031496062992126,"duration":0.22836540364582447},{"name":"F4","midi":65,"time":136.38462675000093,"velocity":0.8031496062992126,"duration":0.2283654036458529},{"name":"A2","midi":45,"time":136.38462675000093,"velocity":0.8031496062992126,"duration":0.2283654036458529},{"name":"G4","midi":67,"time":136.61539600000094,"velocity":0.8031496062992126,"duration":0.22836540364582447},{"name":"A#4","midi":70,"time":136.61539600000094,"velocity":0.8031496062992126,"duration":0.22836540364582447},{"name":"A#2","midi":46,"time":136.61539600000094,"velocity":0.8031496062992126,"duration":0.22836540364582447},{"name":"F4","midi":65,"time":136.84616525000092,"velocity":0.8031496062992126,"duration":0.45913465364583317},{"name":"A#4","midi":70,"time":136.84616525000092,"velocity":0.8031496062992126,"duration":1.2500001041665882},{"name":"C3","midi":48,"time":136.84616525000092,"velocity":0.8031496062992126,"duration":0.9134616145832979},{"name":"G3","midi":55,"time":137.07693450000093,"velocity":0.8031496062992126,"duration":0.22836540364582447},{"name":"E4","midi":64,"time":137.3077037500009,"velocity":0.8031496062992126,"duration":0.865384687499926},{"name":"A3","midi":57,"time":137.3077037500009,"velocity":0.8031496062992126,"duration":0.22836540364582447},{"name":"A#3","midi":58,"time":137.5384730000009,"velocity":0.8031496062992126,"duration":0.22836540364582447},{"name":"C4","midi":60,"time":137.76924225000087,"velocity":0.8031496062992126,"duration":0.22836540364582447},{"name":"D4","midi":62,"time":138.00001150000085,"velocity":0.8031496062992126,"duration":0.22836540364582447},{"name":"A4","midi":69,"time":138.23078075000083,"velocity":0.8031496062992126,"duration":0.22836540364582447},{"name":"C4","midi":60,"time":138.23078075000083,"velocity":0.8031496062992126,"duration":0.22836540364582447},{"name":"B4","midi":71,"time":138.4615500000008,"velocity":0.8031496062992126,"duration":0.11298077864583433},{"name":"D#4","midi":63,"time":138.4615500000008,"velocity":0.8031496062992126,"duration":0.22836540364582447},{"name":"C5","midi":72,"time":138.5769346250008,"velocity":0.8031496062992126,"duration":0.11298077864583433},{"name":"C5","midi":72,"time":138.6923192500008,"velocity":0.8031496062992126,"duration":0.11538462499999014},{"name":"A4","midi":69,"time":138.6923192500008,"velocity":0.8031496062992126,"duration":0.9134616145832695},{"name":"G3","midi":55,"time":138.6923192500008,"velocity":0.8031496062992126,"duration":0.22836540364582447},{"name":"B4","midi":71,"time":138.80770387500078,"velocity":0.8031496062992126,"duration":0.11538462499999014},{"name":"C5","midi":72,"time":138.92308850000077,"velocity":0.8031496062992126,"duration":0.45673080729164894},{"name":"F#3","midi":54,"time":138.92308850000077,"velocity":0.8031496062992126,"duration":0.22836540364582447},{"name":"E3","midi":52,"time":139.15385775000075,"velocity":0.8031496062992126,"duration":0.22836540364582447},{"name":"C5","midi":72,"time":139.38462700000073,"velocity":0.8031496062992126,"duration":0.22836540364582447},{"name":"D3","midi":50,"time":139.38462700000073,"velocity":0.8031496062992126,"duration":0.22836540364582447},{"name":"A4","midi":69,"time":139.6153962500007,"velocity":0.8031496062992126,"duration":0.45913465364583317},{"name":"C5","midi":72,"time":139.6153962500007,"velocity":0.8031496062992126,"duration":0.45913465364583317},{"name":"G3","midi":55,"time":139.6153962500007,"velocity":0.8031496062992126,"duration":0.6899039036458134},{"name":"G4","midi":67,"time":140.0769347500007,"velocity":0.8031496062992126,"duration":0.6250000520832941},{"name":"B4","midi":71,"time":140.0769347500007,"velocity":0.8031496062992126,"duration":0.6250000520832941},{"name":"A3","midi":57,"time":140.30770400000068,"velocity":0.8031496062992126,"duration":0.22836540364582447},{"name":"G3","midi":55,"time":140.53847325000066,"velocity":0.8031496062992126,"duration":0.22836540364582447},{"name":"B4","midi":71,"time":140.76924250000064,"velocity":0.8031496062992126,"duration":0.22836540364582447},{"name":"F3","midi":53,"time":140.76924250000064,"velocity":0.8031496062992126,"duration":0.22836540364582447},{"name":"C#5","midi":73,"time":141.00001175000062,"velocity":0.8031496062992126,"duration":0.22836540364582447},{"name":"G3","midi":55,"time":141.00001175000062,"velocity":0.8031496062992126,"duration":0.22836540364582447},{"name":"D5","midi":74,"time":141.2307810000006,"velocity":0.8031496062992126,"duration":0.22836540364582447},{"name":"E3","midi":52,"time":141.2307810000006,"velocity":0.8031496062992126,"duration":0.22836540364582447},{"name":"E5","midi":76,"time":141.46155025000058,"velocity":0.8031496062992126,"duration":0.22836540364582447},{"name":"A#3","midi":58,"time":141.46155025000058,"velocity":0.8031496062992126,"duration":0.689903903645785},{"name":"F5","midi":77,"time":141.69231950000056,"velocity":0.8031496062992126,"duration":0.22836540364582447},{"name":"E5","midi":76,"time":141.92308875000055,"velocity":0.8031496062992126,"duration":0.22836540364582447},{"name":"G5","midi":79,"time":142.15385800000053,"velocity":0.8031496062992126,"duration":0.22836540364582447},{"name":"A#3","midi":58,"time":142.15385800000053,"velocity":0.8031496062992126,"duration":0.22836540364582447},{"name":"A#4","midi":70,"time":142.3846272500005,"velocity":0.8031496062992126,"duration":0.22836540364582447},{"name":"C#3","midi":49,"time":142.3846272500005,"velocity":0.8031496062992126,"duration":0.9134616145832695},{"name":"G4","midi":67,"time":142.6153965000005,"velocity":0.8031496062992126,"duration":0.22836540364582447},{"name":"A4","midi":69,"time":142.84616575000047,"velocity":0.8031496062992126,"duration":0.22836540364582447},{"name":"E3","midi":52,"time":142.84616575000047,"velocity":0.8031496062992126,"duration":0.45913465364580475},{"name":"G5","midi":79,"time":143.07693500000045,"velocity":0.8031496062992126,"duration":0.22836540364582447},{"name":"F5","midi":77,"time":143.30770425000043,"velocity":0.8031496062992126,"duration":0.22836540364582447},{"name":"D3","midi":50,"time":143.30770425000043,"velocity":0.8031496062992126,"duration":0.9134616145832695},{"name":"C#5","midi":73,"time":143.5384735000004,"velocity":0.8031496062992126,"duration":0.22836540364582447},{"name":"D5","midi":74,"time":143.7692427500004,"velocity":0.8031496062992126,"duration":0.22836540364582447},{"name":"F3","midi":53,"time":143.7692427500004,"velocity":0.8031496062992126,"duration":0.45913465364580475},{"name":"A#5","midi":82,"time":144.00001200000037,"velocity":0.8031496062992126,"duration":0.22836540364582447},{"name":"A5","midi":81,"time":144.23078125000035,"velocity":0.8031496062992126,"duration":0.22836540364582447},{"name":"A#2","midi":46,"time":144.23078125000035,"velocity":0.8031496062992126,"duration":0.9134616145832695},{"name":"G5","midi":79,"time":144.46155050000033,"velocity":0.8031496062992126,"duration":0.22836540364582447},{"name":"F5","midi":77,"time":144.6923197500003,"velocity":0.8031496062992126,"duration":0.22836540364582447},{"name":"G3","midi":55,"time":144.6923197500003,"velocity":0.8031496062992126,"duration":0.45913465364580475},{"name":"E5","midi":76,"time":144.9230890000003,"velocity":0.8031496062992126,"duration":0.22836540364582447},{"name":"D5","midi":74,"time":145.15385825000027,"velocity":0.8031496062992126,"duration":0.22836540364582447},{"name":"A3","midi":57,"time":145.15385825000027,"velocity":0.8031496062992126,"duration":0.689903903645785},{"name":"A2","midi":45,"time":145.15385825000027,"velocity":0.8031496062992126,"duration":0.6490385156249658},{"name":"C#5","midi":73,"time":145.38462750000025,"velocity":0.8031496062992126,"duration":0.22836540364582447},{"name":"B4","midi":71,"time":145.61539675000023,"velocity":0.8031496062992126,"duration":0.22836540364582447},{"name":"A4","midi":69,"time":145.8461660000002,"velocity":0.8031496062992126,"duration":0.19230770833334532},{"name":"G3","midi":55,"time":145.8461660000002,"velocity":0.8031496062992126,"duration":0.2283654036458529},{"name":"A5","midi":81,"time":146.07693525000022,"velocity":0.8031496062992126,"duration":0.689903903645785},{"name":"F#3","midi":54,"time":146.07693525000022,"velocity":0.8031496062992126,"duration":0.22836540364582447},{"name":"E3","midi":52,"time":146.3077045000002,"velocity":0.8031496062992126,"duration":0.22836540364582447},{"name":"F#3","midi":54,"time":146.53847375000018,"velocity":0.8031496062992126,"duration":0.22836540364582447},{"name":"C5","midi":72,"time":146.76924300000016,"velocity":0.8031496062992126,"duration":0.22836540364582447},{"name":"D3","midi":50,"time":146.76924300000016,"velocity":0.8031496062992126,"duration":0.22836540364582447},{"name":"C5","midi":72,"time":147.00001225000014,"velocity":0.8031496062992126,"duration":0.22836540364582447},{"name":"D4","midi":62,"time":147.00001225000014,"velocity":0.8031496062992126,"duration":1.550480898437371},{"name":"A#4","midi":70,"time":147.23078150000012,"velocity":0.8031496062992126,"duration":0.22836540364582447},{"name":"C5","midi":72,"time":147.4615507500001,"velocity":0.8031496062992126,"duration":0.22836540364582447},{"name":"F#3","midi":54,"time":147.4615507500001,"velocity":0.8031496062992126,"duration":0.45913465364580475},{"name":"A4","midi":69,"time":147.69232000000008,"velocity":0.8031496062992126,"duration":0.22836540364582447},{"name":"C5","midi":72,"time":147.92308925000006,"velocity":0.8031496062992126,"duration":0.22836540364582447},{"name":"G3","midi":55,"time":147.92308925000006,"velocity":0.8031496062992126,"duration":0.689903903645785},{"name":"A#4","midi":70,"time":148.15385850000004,"velocity":0.8031496062992126,"duration":0.22836540364582447},{"name":"A4","midi":69,"time":148.38462775000002,"velocity":0.8031496062992126,"duration":0.22836540364582447},{"name":"G4","midi":67,"time":148.615397,"velocity":0.8031496062992126,"duration":0.1682692447916736},{"name":"F3","midi":53,"time":148.615397,"velocity":0.8031496062992126,"duration":0.2283654036458529},{"name":"G5","midi":79,"time":148.84616625,"velocity":0.8031496062992126,"duration":0.689903903645785},{"name":"E3","midi":52,"time":148.84616625,"velocity":0.8031496062992126,"duration":0.22836540364582447},{"name":"D3","midi":50,"time":149.0769355,"velocity":0.8031496062992126,"duration":0.22836540364582447},{"name":"C#3","midi":49,"time":149.30770474999997,"velocity":0.8031496062992126,"duration":0.22836540364582447},{"name":"F5","midi":77,"time":149.53847399999995,"velocity":0.8031496062992126,"duration":0.22836540364582447},{"name":"D3","midi":50,"time":149.53847399999995,"velocity":0.8031496062992126,"duration":0.22836540364582447},{"name":"E5","midi":76,"time":149.76924324999993,"velocity":0.8031496062992126,"duration":0.22836540364582447},{"name":"G2","midi":43,"time":149.76924324999993,"velocity":0.8031496062992126,"duration":0.45913465364580475},{"name":"D5","midi":74,"time":150.0000124999999,"velocity":0.8031496062992126,"duration":0.22836540364582447},{"name":"C#5","midi":73,"time":150.2307817499999,"velocity":0.8031496062992126,"duration":0.22836540364582447},{"name":"A#2","midi":46,"time":150.2307817499999,"velocity":0.8031496062992126,"duration":0.45913465364580475},{"name":"D5","midi":74,"time":150.46155099999987,"velocity":0.8031496062992126,"duration":0.22836540364582447},{"name":"D5","midi":74,"time":150.69232024999985,"velocity":0.8031496062992126,"duration":0.22836540364582447},{"name":"A2","midi":45,"time":150.69232024999985,"velocity":0.8031496062992126,"duration":0.689903903645785},{"name":"C#5","midi":73,"time":150.92308949999983,"velocity":0.8031496062992126,"duration":0.22836540364582447},{"name":"B4","midi":71,"time":151.1538587499998,"velocity":0.8031496062992126,"duration":0.22836540364582447},{"name":"A#2","midi":46,"time":151.3846279999998,"velocity":0.8031496062992126,"duration":0.2331730963541645},{"name":"A4","midi":69,"time":151.3846279999998,"velocity":0.8031496062992126,"duration":0.20913463281249278},{"name":"A2","midi":45,"time":151.6202049427081,"velocity":0.8031496062992126,"duration":0.2331730963541645},{"name":"D4","midi":62,"time":151.6202049427081,"velocity":0.8031496062992126,"duration":0.810096221354172},{"name":"F4","midi":65,"time":151.74039726041644,"velocity":0.8031496062992126,"duration":0.6923077499999977},{"name":"G2","midi":43,"time":151.85818573177062,"velocity":0.8031496062992126,"duration":0.2331730963541645},{"name":"A#4","midi":70,"time":151.85818573177062,"velocity":0.8031496062992126,"duration":0.471153885416669},{"name":"A2","midi":45,"time":152.09616652083312,"velocity":0.8031496062992126,"duration":0.2331730963541645},{"name":"F2","midi":41,"time":152.33414730989563,"velocity":0.8031496062992126,"duration":0.23317309635413608},{"name":"C5","midi":72,"time":152.33414730989563,"velocity":0.8031496062992126,"duration":0.23317309635413608},{"name":"G2","midi":43,"time":152.5721280989581,"velocity":0.8031496062992126,"duration":0.471153885416669},{"name":"D#4","midi":63,"time":152.5721280989581,"velocity":0.8031496062992126,"duration":0.4687500390625132},{"name":"A#4","midi":70,"time":152.5721280989581,"velocity":0.8031496062992126,"duration":0.2331730963541645},{"name":"A4","midi":69,"time":152.8101088880206,"velocity":0.8031496062992126,"duration":0.2331730963541645},{"name":"G3","midi":55,"time":153.0480896770831,"velocity":0.8031496062992126,"duration":0.7091346744791451},{"name":"A#4","midi":70,"time":153.0480896770831,"velocity":0.8031496062992126,"duration":0.2331730963541645},{"name":"G4","midi":67,"time":153.28607046614562,"velocity":0.8031496062992126,"duration":0.2331730963541645},{"name":"A4","midi":69,"time":153.52164740885394,"velocity":0.8031496062992126,"duration":1.4230770416666587},{"name":"E3","midi":52,"time":153.7596281979164,"velocity":0.8031496062992126,"duration":0.2331730963541645},{"name":"C#5","midi":73,"time":153.7596281979164,"velocity":0.8031496062992126,"duration":0.2331730963541645},{"name":"C#3","midi":49,"time":153.99760898697892,"velocity":0.8031496062992126,"duration":0.2331730963541645},{"name":"E5","midi":76,"time":153.99760898697892,"velocity":0.8031496062992126,"duration":0.2331730963541645},{"name":"G5","midi":79,"time":154.23558977604142,"velocity":0.8031496062992126,"duration":0.23798078906250453},{"name":"A2","midi":45,"time":154.23558977604142,"velocity":0.8031496062992126,"duration":0.23798078906250453},{"name":"D5","midi":74,"time":154.47837825781227,"velocity":0.8031496062992126,"duration":0.9663462343750098},{"name":"F5","midi":77,"time":154.47837825781227,"velocity":0.8031496062992126,"duration":0.7115385208333294},{"name":"D3","midi":50,"time":154.47837825781227,"velocity":0.8031496062992126,"duration":0.4831731171875049},{"name":"A#4","midi":70,"time":154.96876291406227,"velocity":0.8031496062992126,"duration":0.4807692708333491},{"name":"G3","midi":55,"time":154.96876291406227,"velocity":0.8031496062992126,"duration":0.4831731171875049},{"name":"E5","midi":76,"time":155.21395524218727,"velocity":0.8031496062992126,"duration":0.24278848177084456},{"name":"A3","midi":57,"time":155.4639552630206,"velocity":0.8031496062992126,"duration":0.4975961953124681},{"name":"C#5","midi":73,"time":155.4639552630206,"velocity":0.8031496062992126,"duration":0.9951923906249647},{"name":"F5","midi":77,"time":155.4639552630206,"velocity":0.8031496062992126,"duration":0.12019231770833017},{"name":"A4","midi":69,"time":155.4639552630206,"velocity":0.8031496062992126,"duration":0.4951923489583123},{"name":"E5","midi":76,"time":155.58895527343728,"velocity":0.8031496062992126,"duration":0.12019231770833017},{"name":"F5","midi":77,"time":155.7163591302081,"velocity":0.8031496062992126,"duration":0.12019231770833017},{"name":"E5","midi":76,"time":155.84376298697893,"velocity":0.8031496062992126,"duration":0.12019231770830174},{"name":"A2","midi":45,"time":155.96876299739557,"velocity":0.8031496062992126,"duration":0.49759619531249655},{"name":"G4","midi":67,"time":155.96876299739557,"velocity":0.8031496062992126,"duration":0.730769291666661},{"name":"F5","midi":77,"time":155.96876299739557,"velocity":0.8031496062992126,"duration":0.12019231770833017},{"name":"E5","midi":76,"time":156.0961668541664,"velocity":0.8031496062992126,"duration":0.12019231770833017},{"name":"D5","midi":74,"time":156.22116686458307,"velocity":0.8031496062992126,"duration":0.2500000208333404},{"name":"D5","midi":74,"time":156.4783784244789,"velocity":0.8031496062992126,"duration":4.187500348958338},{"name":"D3","midi":50,"time":156.4783784244789,"velocity":0.8031496062992126,"duration":4.187500348958338},{"name":"G4","midi":67,"time":156.7379938307289,"velocity":0.8031496062992126,"duration":0.2500000208333404},{"name":"A4","midi":69,"time":157.00001308333307,"velocity":0.8031496062992126,"duration":0.2500000208333404},{"name":"F#3","midi":54,"time":157.00001308333307,"velocity":0.8031496062992126,"duration":0.5120192734375166},{"name":"E4","midi":64,"time":157.2596284895831,"velocity":0.8031496062992126,"duration":0.2572115598958362},{"name":"A3","midi":57,"time":157.52405158854143,"velocity":0.8031496062992126,"duration":0.5264423515624799},{"name":"F#4","midi":66,"time":157.52405158854143,"velocity":0.8031496062992126,"duration":3.125000260416641},{"name":"A4","midi":69,"time":157.7908785338539,"velocity":0.8031496062992126,"duration":2.8581733151041533},{"name":"D2","midi":38,"time":158.13462856249973,"velocity":0.8031496062992126,"duration":2.5889425234375096},{"name":"D3","midi":50,"time":164.30770599999974,"velocity":0.8031496062992126,"duration":0.9206731536458221},{"name":"D4","midi":62,"time":164.30770599999974,"velocity":0.8031496062992126,"duration":0.9206731536458221},{"name":"F4","midi":65,"time":164.30770599999974,"velocity":0.8031496062992126,"duration":0.9206731536458221},{"name":"A4","midi":69,"time":164.30770599999974,"velocity":0.8031496062992126,"duration":0.9206731536458221},{"name":"D3","midi":50,"time":165.23078299999972,"velocity":0.8031496062992126,"duration":0.9206731536458221},{"name":"D4","midi":62,"time":165.23078299999972,"velocity":0.8031496062992126,"duration":0.9206731536458221},{"name":"A#4","midi":70,"time":165.23078299999972,"velocity":0.8031496062992126,"duration":0.45913465364583317},{"name":"G4","midi":67,"time":165.23078299999972,"velocity":0.8031496062992126,"duration":0.9134616145833263},{"name":"A4","midi":69,"time":165.6923214999997,"velocity":0.8031496062992126,"duration":0.45913465364583317},{"name":"D3","midi":50,"time":166.1538599999997,"velocity":0.8031496062992126,"duration":0.9206731536458221},{"name":"D4","midi":62,"time":166.1538599999997,"velocity":0.8031496062992126,"duration":0.9206731536458221},{"name":"C#5","midi":73,"time":166.1538599999997,"velocity":0.8031496062992126,"duration":0.45913465364583317},{"name":"F4","midi":65,"time":166.1538599999997,"velocity":0.8031496062992126,"duration":0.9134616145833263},{"name":"D5","midi":74,"time":166.61539849999969,"velocity":0.8031496062992126,"duration":0.45913465364583317},{"name":"D3","midi":50,"time":167.07693699999967,"velocity":0.8031496062992126,"duration":1.3822116536458111},{"name":"A#3","midi":58,"time":167.07693699999967,"velocity":0.8031496062992126,"duration":0.45913465364583317},{"name":"G4","midi":67,"time":167.07693699999967,"velocity":0.8031496062992126,"duration":0.45913465364583317},{"name":"E4","midi":64,"time":167.07693699999967,"velocity":0.8031496062992126,"duration":0.9134616145833263},{"name":"A3","midi":57,"time":167.53847549999966,"velocity":0.8031496062992126,"duration":0.45913465364583317},{"name":"A4","midi":69,"time":167.53847549999966,"velocity":0.8031496062992126,"duration":0.45913465364583317},{"name":"G3","midi":55,"time":168.00001399999965,"velocity":0.8031496062992126,"duration":2.307692499999945},{"name":"E4","midi":64,"time":168.00001399999965,"velocity":0.8031496062992126,"duration":2.235577109374958},{"name":"A#4","midi":70,"time":168.00001399999965,"velocity":0.8031496062992126,"duration":2.043269401041613},{"name":"F3","midi":53,"time":168.46155249999964,"velocity":0.8031496062992126,"duration":0.45913465364583317},{"name":"E3","midi":52,"time":168.92309099999963,"velocity":0.8031496062992126,"duration":0.45913465364583317},{"name":"D3","midi":50,"time":169.38462949999962,"velocity":0.8031496062992126,"duration":0.45913465364583317},{"name":"C#3","midi":49,"time":169.8461679999996,"velocity":0.8031496062992126,"duration":0.9134616145833263},{"name":"E3","midi":52,"time":170.3077064999996,"velocity":0.8031496062992126,"duration":0.45913465364583317},{"name":"A4","midi":69,"time":170.3077064999996,"velocity":0.8031496062992126,"duration":0.45913465364583317},{"name":"C#3","midi":49,"time":170.7692449999996,"velocity":0.8031496062992126,"duration":0.9206731536458221},{"name":"A3","midi":57,"time":170.7692449999996,"velocity":0.8031496062992126,"duration":0.9206731536458221},{"name":"G4","midi":67,"time":170.7692449999996,"velocity":0.8031496062992126,"duration":0.45913465364583317},{"name":"E4","midi":64,"time":170.7692449999996,"velocity":0.8031496062992126,"duration":0.9134616145833263},{"name":"E5","midi":76,"time":171.23078349999957,"velocity":0.8031496062992126,"duration":0.45913465364583317},{"name":"C#3","midi":49,"time":171.69232199999956,"velocity":0.8031496062992126,"duration":0.9206731536458221},{"name":"A3","midi":57,"time":171.69232199999956,"velocity":0.8031496062992126,"duration":0.9206731536458221},{"name":"A4","midi":69,"time":171.69232199999956,"velocity":0.8031496062992126,"duration":0.45913465364583317},{"name":"E4","midi":64,"time":171.69232199999956,"velocity":0.8031496062992126,"duration":0.9134616145833263},{"name":"G4","midi":67,"time":172.15386049999955,"velocity":0.8031496062992126,"duration":0.45913465364583317},{"name":"C3","midi":48,"time":172.61539899999954,"velocity":0.8031496062992126,"duration":1.3822116536458111},{"name":"A3","midi":57,"time":172.61539899999954,"velocity":0.8031496062992126,"duration":0.45913465364583317},{"name":"F#4","midi":66,"time":172.61539899999954,"velocity":0.8031496062992126,"duration":0.45913465364583317},{"name":"D4","midi":62,"time":172.61539899999954,"velocity":0.8031496062992126,"duration":0.9134616145833263},{"name":"G3","midi":55,"time":173.07693749999953,"velocity":0.8031496062992126,"duration":0.45913465364583317},{"name":"G4","midi":67,"time":173.07693749999953,"velocity":0.8031496062992126,"duration":0.45913465364583317},{"name":"F#3","midi":54,"time":173.53847599999952,"velocity":0.8031496062992126,"duration":2.5240386718749335},{"name":"D4","midi":62,"time":173.53847599999952,"velocity":0.8031496062992126,"duration":2.163461718749943},{"name":"A4","midi":69,"time":173.53847599999952,"velocity":0.8031496062992126,"duration":1.8437501536458},{"name":"D#3","midi":51,"time":174.0000144999995,"velocity":0.8031496062992126,"duration":0.45913465364583317},{"name":"D3","midi":50,"time":174.4615529999995,"velocity":0.8031496062992126,"duration":0.45913465364583317},{"name":"C3","midi":48,"time":174.9230914999995,"velocity":0.8031496062992126,"duration":0.45913465364583317},{"name":"A#2","midi":46,"time":175.38462999999948,"velocity":0.8031496062992126,"duration":0.9206731536458221},{"name":"D5","midi":74,"time":175.84616849999946,"velocity":0.8031496062992126,"duration":0.45913465364583317},{"name":"A#2","midi":46,"time":176.30770699999945,"velocity":0.8031496062992126,"duration":0.9206731536458221},{"name":"G3","midi":55,"time":176.30770699999945,"velocity":0.8031496062992126,"duration":0.9206731536458221},{"name":"A#4","midi":70,"time":176.30770699999945,"velocity":0.8031496062992126,"duration":0.45913465364583317},{"name":"D4","midi":62,"time":176.30770699999945,"velocity":0.8031496062992126,"duration":0.9134616145833263},{"name":"A4","midi":69,"time":176.76924549999944,"velocity":0.8031496062992126,"duration":0.45913465364583317},{"name":"G3","midi":55,"time":177.23078399999943,"velocity":0.8031496062992126,"duration":0.9206731536458221},{"name":"A#2","midi":46,"time":177.23078399999943,"velocity":0.8031496062992126,"duration":0.9206731536458221},{"name":"G4","midi":67,"time":177.23078399999943,"velocity":0.8031496062992126,"duration":0.45913465364583317},{"name":"D4","midi":62,"time":177.23078399999943,"velocity":0.8031496062992126,"duration":0.9134616145833263},{"name":"F#4","midi":66,"time":177.69232249999942,"velocity":0.8031496062992126,"duration":0.45913465364583317},{"name":"A2","midi":45,"time":178.1538609999994,"velocity":0.8031496062992126,"duration":0.9206731536458221},{"name":"A3","midi":57,"time":178.1538609999994,"velocity":0.8031496062992126,"duration":0.9206731536458221},{"name":"G4","midi":67,"time":178.1538609999994,"velocity":0.8031496062992126,"duration":0.45913465364583317},{"name":"C#4","midi":61,"time":178.1538609999994,"velocity":0.8031496062992126,"duration":0.9134616145833263},{"name":"A#4","midi":70,"time":178.6153994999994,"velocity":0.8031496062992126,"duration":0.45913465364583317},{"name":"E3","midi":52,"time":179.0769379999994,"velocity":0.8031496062992126,"duration":0.9206731536458221},{"name":"A2","midi":45,"time":179.0769379999994,"velocity":0.8031496062992126,"duration":0.9206731536458221},{"name":"A4","midi":69,"time":179.0769379999994,"velocity":0.8031496062992126,"duration":0.45913465364583317},{"name":"C#4","midi":61,"time":179.0769379999994,"velocity":0.8031496062992126,"duration":0.9134616145833263},{"name":"G4","midi":67,"time":179.53847649999938,"velocity":0.8031496062992126,"duration":0.45913465364583317},{"name":"A2","midi":45,"time":180.00001499999937,"velocity":0.8031496062992126,"duration":0.9134616145833263},{"name":"A3","midi":57,"time":180.00001499999937,"velocity":0.8031496062992126,"duration":0.45913465364583317},{"name":"F4","midi":65,"time":180.00001499999937,"velocity":0.8031496062992126,"duration":0.45913465364583317},{"name":"C#4","midi":61,"time":180.00001499999937,"velocity":0.8031496062992126,"duration":0.9134616145833263},{"name":"G3","midi":55,"time":180.46155349999935,"velocity":0.8031496062992126,"duration":0.45913465364583317},{"name":"E4","midi":64,"time":180.46155349999935,"velocity":0.8031496062992126,"duration":0.45913465364583317},{"name":"A2","midi":45,"time":180.92309199999934,"velocity":0.8031496062992126,"duration":0.9206731536458221},{"name":"F3","midi":53,"time":180.92309199999934,"velocity":0.8031496062992126,"duration":0.9206731536458221},{"name":"D4","midi":62,"time":180.92309199999934,"velocity":0.8031496062992126,"duration":0.9134616145833263},{"name":"F4","midi":65,"time":181.38463049999933,"velocity":0.8031496062992126,"duration":0.45913465364583317},{"name":"G2","midi":43,"time":181.84616899999932,"velocity":0.8031496062992126,"duration":0.9206731536458221},{"name":"G3","midi":55,"time":181.84616899999932,"velocity":0.8031496062992126,"duration":0.9206731536458221},{"name":"A#4","midi":70,"time":181.84616899999932,"velocity":0.8031496062992126,"duration":0.673076979166666},{"name":"G4","midi":67,"time":182.3077074999993,"velocity":0.8031496062992126,"duration":0.45913465364583317},{"name":"A#2","midi":46,"time":182.7692459999993,"velocity":0.8031496062992126,"duration":0.9134616145833263},{"name":"G3","midi":55,"time":182.7692459999993,"velocity":0.8031496062992126,"duration":0.45913465364583317},{"name":"G4","midi":67,"time":182.7692459999993,"velocity":0.8031496062992126,"duration":0.9134616145833263},{"name":"D#5","midi":75,"time":182.7692459999993,"velocity":0.8031496062992126,"duration":0.45913465364583317},{"name":"E3","midi":52,"time":183.2307844999993,"velocity":0.8031496062992126,"duration":0.45913465364583317},{"name":"C#5","midi":73,"time":183.2307844999993,"velocity":0.8031496062992126,"duration":0.45913465364583317},{"name":"A2","midi":45,"time":183.69232299999928,"velocity":0.8031496062992126,"duration":0.9134616145833263},{"name":"F3","midi":53,"time":183.69232299999928,"velocity":0.8031496062992126,"duration":0.45913465364583317},{"name":"D5","midi":74,"time":183.69232299999928,"velocity":0.8031496062992126,"duration":0.9134616145833263},{"name":"G#5","midi":80,"time":183.69232299999928,"velocity":0.8031496062992126,"duration":0.45913465364583317},{"name":"A4","midi":69,"time":183.69232299999928,"velocity":0.8031496062992126,"duration":0.9134616145833263},{"name":"D3","midi":50,"time":184.15386149999927,"velocity":0.8031496062992126,"duration":0.45913465364583317},{"name":"A5","midi":81,"time":184.15386149999927,"velocity":0.8031496062992126,"duration":0.45913465364583317},{"name":"A2","midi":45,"time":184.61539999999925,"velocity":0.8031496062992126,"duration":1.6346155208333357},{"name":"E3","midi":52,"time":184.61539999999925,"velocity":0.8031496062992126,"duration":1.3822116536458395},{"name":"A4","midi":69,"time":184.61539999999925,"velocity":0.8031496062992126,"duration":1.3822116536458395},{"name":"C#5","midi":73,"time":184.61539999999925,"velocity":0.8031496062992126,"duration":1.3822116536458395},{"name":"A2","midi":45,"time":186.46155399999927,"velocity":0.8031496062992126,"duration":0.9206731536458221},{"name":"A4","midi":69,"time":186.46155399999927,"velocity":0.8031496062992126,"duration":0.9206731536458221},{"name":"C#5","midi":73,"time":186.46155399999927,"velocity":0.8031496062992126,"duration":0.9206731536458221},{"name":"E5","midi":76,"time":186.46155399999927,"velocity":0.8031496062992126,"duration":0.9206731536458221},{"name":"A#2","midi":46,"time":187.38463099999925,"velocity":0.8031496062992126,"duration":0.45913465364583317},{"name":"C#5","midi":73,"time":187.38463099999925,"velocity":0.8031496062992126,"duration":0.9206731536458221},{"name":"E5","midi":76,"time":187.38463099999925,"velocity":0.8031496062992126,"duration":0.9206731536458221},{"name":"G4","midi":67,"time":187.38463099999925,"velocity":0.8031496062992126,"duration":0.9206731536458221},{"name":"A2","midi":45,"time":187.84616949999923,"velocity":0.8031496062992126,"duration":0.45913465364583317},{"name":"C#3","midi":49,"time":188.30770799999922,"velocity":0.8031496062992126,"duration":0.45913465364583317},{"name":"F4","midi":65,"time":188.30770799999922,"velocity":0.8031496062992126,"duration":0.9206731536458221},{"name":"A4","midi":69,"time":188.30770799999922,"velocity":0.8031496062992126,"duration":0.9206731536458221},{"name":"F5","midi":77,"time":188.30770799999922,"velocity":0.8031496062992126,"duration":0.9206731536458221},{"name":"D5","midi":74,"time":188.30770799999922,"velocity":0.8031496062992126,"duration":0.9206731536458221},{"name":"D3","midi":50,"time":188.7692464999992,"velocity":0.8031496062992126,"duration":0.45913465364583317},{"name":"G2","midi":43,"time":189.2307849999992,"velocity":0.8031496062992126,"duration":0.45913465364583317},{"name":"E4","midi":64,"time":189.2307849999992,"velocity":0.8031496062992126,"duration":0.9206731536458221},{"name":"C#5","midi":73,"time":189.2307849999992,"velocity":0.8031496062992126,"duration":0.9206731536458221},{"name":"A4","midi":69,"time":189.2307849999992,"velocity":0.8031496062992126,"duration":0.9206731536458221},{"name":"A2","midi":45,"time":189.6923234999992,"velocity":0.8031496062992126,"duration":0.45913465364583317},{"name":"A#2","midi":46,"time":190.15386199999918,"velocity":0.8031496062992126,"duration":2.3028848072916333},{"name":"E4","midi":64,"time":190.15386199999918,"velocity":0.8031496062992126,"duration":0.45913465364583317},{"name":"G4","midi":67,"time":190.15386199999918,"velocity":0.8031496062992126,"duration":0.45913465364583317},{"name":"C#5","midi":73,"time":190.15386199999918,"velocity":0.8031496062992126,"duration":1.5625001302082921},{"name":"A#4","midi":70,"time":190.61540049999917,"velocity":0.8031496062992126,"duration":0.45913465364583317},{"name":"G4","midi":67,"time":190.61540049999917,"velocity":0.8031496062992126,"duration":0.45913465364583317},{"name":"F4","midi":65,"time":191.07693899999916,"velocity":0.8031496062992126,"duration":0.45913465364583317},{"name":"A4","midi":69,"time":191.07693899999916,"velocity":0.8031496062992126,"duration":0.45913465364583317},{"name":"G4","midi":67,"time":191.53847749999915,"velocity":0.8031496062992126,"duration":0.48076927083332066},{"name":"E4","midi":64,"time":191.53847749999915,"velocity":0.8031496062992126,"duration":0.48076927083332066},{"name":"D#4","midi":63,"time":192.01924677083247,"velocity":0.8031496062992126,"duration":0.9206731536458506},{"name":"C5","midi":72,"time":192.01924677083247,"velocity":0.8031496062992126,"duration":0.9206731536458506},{"name":"F#4","midi":66,"time":192.01924677083247,"velocity":0.8031496062992126,"duration":0.9206731536458506},{"name":"A2","midi":45,"time":192.48078527083248,"velocity":0.8031496062992126,"duration":0.45913465364583317},{"name":"G2","midi":43,"time":192.94232377083247,"velocity":0.8031496062992126,"duration":0.45913465364583317},{"name":"C5","midi":72,"time":192.94232377083247,"velocity":0.8031496062992126,"duration":0.45913465364583317},{"name":"D#4","midi":63,"time":192.94232377083247,"velocity":0.8031496062992126,"duration":0.45913465364583317},{"name":"G4","midi":67,"time":192.94232377083247,"velocity":0.8031496062992126,"duration":0.9134616145833263},{"name":"D#3","midi":51,"time":193.40386227083246,"velocity":0.8031496062992126,"duration":0.45913465364583317},{"name":"A#4","midi":70,"time":193.40386227083246,"velocity":0.8031496062992126,"duration":0.45913465364583317},{"name":"A2","midi":45,"time":193.86540077083245,"velocity":0.8031496062992126,"duration":0.45913465364583317},{"name":"D#5","midi":75,"time":193.86540077083245,"velocity":0.8031496062992126,"duration":1.3822116536458111},{"name":"C5","midi":72,"time":193.86540077083245,"velocity":0.8031496062992126,"duration":0.9134616145833263},{"name":"F#4","midi":66,"time":193.86540077083245,"velocity":0.8031496062992126,"duration":0.45913465364583317},{"name":"G2","midi":43,"time":194.32693927083244,"velocity":0.8031496062992126,"duration":0.45913465364583317},{"name":"G4","midi":67,"time":194.32693927083244,"velocity":0.8031496062992126,"duration":0.45913465364583317},{"name":"F#2","midi":42,"time":194.78847777083243,"velocity":0.8031496062992126,"duration":0.45913465364583317},{"name":"A4","midi":69,"time":194.78847777083243,"velocity":0.8031496062992126,"duration":0.9134616145833263},{"name":"C5","midi":72,"time":194.78847777083243,"velocity":0.8031496062992126,"duration":0.9134616145833263},{"name":"G2","midi":43,"time":195.25001627083242,"velocity":0.8031496062992126,"duration":0.45913465364583317},{"name":"D5","midi":74,"time":195.25001627083242,"velocity":0.8031496062992126,"duration":0.45913465364583317},{"name":"A2","midi":45,"time":195.7115547708324,"velocity":0.8031496062992126,"duration":1.0576923958332998},{"name":"D#3","midi":51,"time":195.7115547708324,"velocity":0.8031496062992126,"duration":0.9134616145833263},{"name":"F#3","midi":54,"time":195.7115547708324,"velocity":0.8031496062992126,"duration":1.0576923958332998},{"name":"C5","midi":72,"time":195.7115547708324,"velocity":0.8031496062992126,"duration":0.3846154166666622},{"name":"F#5","midi":78,"time":196.2307855833324,"velocity":0.8031496062992126,"duration":0.45913465364583317},{"name":"G5","midi":79,"time":196.69232408333238,"velocity":0.8031496062992126,"duration":0.45913465364583317},{"name":"A5","midi":81,"time":197.15386258333237,"velocity":0.8031496062992126,"duration":0.45913465364583317},{"name":"A#5","midi":82,"time":197.61540108333236,"velocity":0.8031496062992126,"duration":0.9206731536458221},{"name":"D5","midi":74,"time":197.61540108333236,"velocity":0.8031496062992126,"duration":0.9206731536458221},{"name":"F#5","midi":78,"time":197.61540108333236,"velocity":0.8031496062992126,"duration":0.9206731536458221},{"name":"D3","midi":50,"time":198.07693958333235,"velocity":0.8031496062992126,"duration":0.45913465364583317},{"name":"G5","midi":79,"time":198.53847808333234,"velocity":0.8031496062992126,"duration":0.9206731536458221},{"name":"A#5","midi":82,"time":198.53847808333234,"velocity":0.8031496062992126,"duration":0.9206731536458221},{"name":"D5","midi":74,"time":198.53847808333234,"velocity":0.8031496062992126,"duration":0.9206731536458221},{"name":"A#2","midi":46,"time":198.53847808333234,"velocity":0.8031496062992126,"duration":0.45913465364583317},{"name":"A2","midi":45,"time":199.00001658333233,"velocity":0.8031496062992126,"duration":0.45913465364583317},{"name":"A#5","midi":82,"time":199.4615550833323,"velocity":0.8031496062992126,"duration":0.8894231510416546},{"name":"D5","midi":74,"time":199.4615550833323,"velocity":0.8031496062992126,"duration":0.8894231510416546},{"name":"G5","midi":79,"time":199.4615550833323,"velocity":0.8031496062992126,"duration":0.8894231510416546},{"name":"G2","midi":43,"time":199.4615550833323,"velocity":0.8031496062992126,"duration":0.45913465364583317},{"name":"F2","midi":41,"time":199.9230935833323,"velocity":0.8031496062992126,"duration":0.45913465364583317},{"name":"D5","midi":74,"time":200.3846320833323,"velocity":0.8031496062992126,"duration":0.45913465364583317},{"name":"G5","midi":79,"time":200.3846320833323,"velocity":0.8031496062992126,"duration":0.45913465364583317},{"name":"A#5","midi":82,"time":200.3846320833323,"velocity":0.8031496062992126,"duration":0.45913465364583317},{"name":"D#2","midi":39,"time":200.3846320833323,"velocity":0.8031496062992126,"duration":0.9134616145833263},{"name":"A5","midi":81,"time":200.84617058333228,"velocity":0.8031496062992126,"duration":0.45913465364583317},{"name":"C5","midi":72,"time":200.84617058333228,"velocity":0.8031496062992126,"duration":0.45913465364583317},{"name":"C6","midi":84,"time":201.30770908333227,"velocity":0.8031496062992126,"duration":0.45913465364583317},{"name":"D#5","midi":75,"time":201.30770908333227,"velocity":0.8031496062992126,"duration":0.45913465364583317},{"name":"D5","midi":74,"time":201.76924758333226,"velocity":0.8031496062992126,"duration":0.45913465364583317},{"name":"A#5","midi":82,"time":201.76924758333226,"velocity":0.8031496062992126,"duration":0.45913465364583317},{"name":"A#2","midi":46,"time":201.76924758333226,"velocity":0.8031496062992126,"duration":0.45913465364583317},{"name":"A5","midi":81,"time":202.23078608333225,"velocity":0.8031496062992126,"duration":0.45913465364583317},{"name":"C5","midi":72,"time":202.23078608333225,"velocity":0.8031496062992126,"duration":0.45913465364583317},{"name":"C3","midi":48,"time":202.23078608333225,"velocity":0.8031496062992126,"duration":0.45913465364583317},{"name":"A#4","midi":70,"time":202.69232458333224,"velocity":0.8031496062992126,"duration":0.45913465364583317},{"name":"G5","midi":79,"time":202.69232458333224,"velocity":0.8031496062992126,"duration":0.45913465364583317},{"name":"D3","midi":50,"time":202.69232458333224,"velocity":0.8031496062992126,"duration":0.45913465364583317},{"name":"A4","midi":69,"time":203.15386308333223,"velocity":0.8031496062992126,"duration":0.45913465364583317},{"name":"F#5","midi":78,"time":203.15386308333223,"velocity":0.8031496062992126,"duration":0.45913465364583317},{"name":"D#3","midi":51,"time":203.15386308333223,"velocity":0.8031496062992126,"duration":0.9206731536458221},{"name":"G5","midi":79,"time":203.61540158333221,"velocity":0.8031496062992126,"duration":0.45913465364583317},{"name":"A#4","midi":70,"time":203.61540158333221,"velocity":0.8031496062992126,"duration":0.45913465364583317},{"name":"D5","midi":74,"time":204.0769400833322,"velocity":0.8031496062992126,"duration":0.45913465364583317},{"name":"A#5","midi":82,"time":204.0769400833322,"velocity":0.8031496062992126,"duration":0.45913465364583317},{"name":"F#3","midi":54,"time":204.0769400833322,"velocity":0.8031496062992126,"duration":0.9206731536458221},{"name":"D3","midi":50,"time":204.0769400833322,"velocity":0.8031496062992126,"duration":1.2740385677083168},{"name":"C5","midi":72,"time":204.5384785833322,"velocity":0.8031496062992126,"duration":0.45913465364583317},{"name":"A5","midi":81,"time":204.5384785833322,"velocity":0.8031496062992126,"duration":0.45913465364583317},{"name":"G5","midi":79,"time":205.00001708333218,"velocity":0.8031496062992126,"duration":0.45913465364583317},{"name":"A#4","midi":70,"time":205.00001708333218,"velocity":0.8031496062992126,"duration":0.45913465364583317},{"name":"D2","midi":38,"time":205.00001708333218,"velocity":0.8031496062992126,"duration":0.9206731536458221},{"name":"A4","midi":69,"time":205.46155558333217,"velocity":0.8031496062992126,"duration":0.45913465364583317},{"name":"F#5","midi":78,"time":205.46155558333217,"velocity":0.8031496062992126,"duration":0.45913465364583317},{"name":"G5","midi":79,"time":205.92309408333216,"velocity":0.8031496062992126,"duration":0.9206731536458221},{"name":"A#4","midi":70,"time":205.92309408333216,"velocity":0.8031496062992126,"duration":0.9206731536458221},{"name":"G2","midi":43,"time":205.92309408333216,"velocity":0.8031496062992126,"duration":0.45913465364583317},{"name":"D3","midi":50,"time":206.38463258333215,"velocity":0.8031496062992126,"duration":0.45913465364583317},{"name":"G5","midi":79,"time":206.84617108333214,"velocity":0.8031496062992126,"duration":1.3822116536458111},{"name":"D5","midi":74,"time":206.84617108333214,"velocity":0.8031496062992126,"duration":1.3822116536458111},{"name":"A#4","midi":70,"time":206.84617108333214,"velocity":0.8031496062992126,"duration":1.3822116536458111},{"name":"D#3","midi":51,"time":206.84617108333214,"velocity":0.8031496062992126,"duration":0.45913465364583317},{"name":"D3","midi":50,"time":207.30770958333213,"velocity":0.8031496062992126,"duration":0.45913465364583317},{"name":"F#3","midi":54,"time":207.76924808333212,"velocity":0.8031496062992126,"duration":0.45913465364583317},{"name":"G3","midi":55,"time":208.2307865833321,"velocity":0.8031496062992126,"duration":0.48076927083332066},{"name":"A#2","midi":46,"time":208.7500173958321,"velocity":0.8031496062992126,"duration":0.9206731536458221},{"name":"G4","midi":67,"time":208.7500173958321,"velocity":0.8031496062992126,"duration":0.9206731536458221},{"name":"E5","midi":76,"time":208.7500173958321,"velocity":0.8031496062992126,"duration":0.9206731536458221},{"name":"C5","midi":72,"time":208.7500173958321,"velocity":0.8031496062992126,"duration":0.9206731536458221},{"name":"A#3","midi":58,"time":209.67309439583207,"velocity":0.8031496062992126,"duration":0.9206731536458221},{"name":"G4","midi":67,"time":209.67309439583207,"velocity":0.8031496062992126,"duration":0.9206731536458221},{"name":"D5","midi":74,"time":209.67309439583207,"velocity":0.8031496062992126,"duration":0.45913465364583317},{"name":"F5","midi":77,"time":209.67309439583207,"velocity":0.8031496062992126,"duration":0.45913465364583317},{"name":"E5","midi":76,"time":210.13463289583206,"velocity":0.8031496062992126,"duration":0.45913465364583317},{"name":"C5","midi":72,"time":210.13463289583206,"velocity":0.8031496062992126,"duration":0.45913465364583317},{"name":"A#3","midi":58,"time":210.59617139583204,"velocity":0.8031496062992126,"duration":0.9206731536458221},{"name":"G4","midi":67,"time":210.59617139583204,"velocity":0.8031496062992126,"duration":1.3822116536458111},{"name":"E5","midi":76,"time":210.59617139583204,"velocity":0.8031496062992126,"duration":0.45913465364583317},{"name":"G5","midi":79,"time":210.59617139583204,"velocity":0.8031496062992126,"duration":0.45913465364583317},{"name":"F5","midi":77,"time":211.05770989583203,"velocity":0.8031496062992126,"duration":0.45913465364583317},{"name":"A5","midi":81,"time":211.05770989583203,"velocity":0.8031496062992126,"duration":0.45913465364583317},{"name":"A3","midi":57,"time":211.51924839583202,"velocity":0.8031496062992126,"duration":1.3822116536458111},{"name":"E5","midi":76,"time":211.51924839583202,"velocity":0.8031496062992126,"duration":0.45913465364583317},{"name":"A#4","midi":70,"time":211.51924839583202,"velocity":0.8031496062992126,"duration":0.45913465364583317},{"name":"F4","midi":65,"time":211.980786895832,"velocity":0.8031496062992126,"duration":0.45913465364583317},{"name":"F5","midi":77,"time":211.980786895832,"velocity":0.8031496062992126,"duration":0.45913465364583317},{"name":"C5","midi":72,"time":211.980786895832,"velocity":0.8031496062992126,"duration":0.45913465364583317},{"name":"A4","midi":69,"time":212.442325395832,"velocity":0.8031496062992126,"duration":1.3822116536458111},{"name":"F5","midi":77,"time":212.442325395832,"velocity":0.8031496062992126,"duration":2.163461718749943},{"name":"C5","midi":72,"time":212.442325395832,"velocity":0.8031496062992126,"duration":1.3822116536458111},{"name":"C4","midi":60,"time":212.903863895832,"velocity":0.8031496062992126,"duration":0.45913465364583317},{"name":"A#3","midi":58,"time":213.36540239583198,"velocity":0.8031496062992126,"duration":0.45913465364583317},{"name":"A3","midi":57,"time":213.82694089583197,"velocity":0.8031496062992126,"duration":0.45913465364583317},{"name":"G#3","midi":56,"time":214.28847939583196,"velocity":0.8031496062992126,"duration":0.9134616145833263},{"name":"D4","midi":62,"time":214.28847939583196,"velocity":0.8031496062992126,"duration":0.45913465364583317},{"name":"B4","midi":71,"time":214.28847939583196,"velocity":0.8031496062992126,"duration":0.9134616145833263},{"name":"B3","midi":59,"time":214.75001789583195,"velocity":0.8031496062992126,"duration":0.45913465364583317},{"name":"E5","midi":76,"time":214.75001789583195,"velocity":0.8031496062992126,"duration":0.45913465364583317},{"name":"E4","midi":64,"time":215.21155639583193,"velocity":0.8031496062992126,"duration":0.9206731536458221},{"name":"G#3","midi":56,"time":215.21155639583193,"velocity":0.8031496062992126,"duration":0.9206731536458221},{"name":"D5","midi":74,"time":215.21155639583193,"velocity":0.8031496062992126,"duration":0.45913465364583317},{"name":"B4","midi":71,"time":215.21155639583193,"velocity":0.8031496062992126,"duration":0.9134616145833263},{"name":"B5","midi":83,"time":215.67309489583192,"velocity":0.8031496062992126,"duration":0.45913465364583317},{"name":"G#3","midi":56,"time":216.1346333958319,"velocity":0.8031496062992126,"duration":0.9206731536458221},{"name":"E4","midi":64,"time":216.1346333958319,"velocity":0.8031496062992126,"duration":1.3822116536458111},{"name":"E5","midi":76,"time":216.1346333958319,"velocity":0.8031496062992126,"duration":0.45913465364583317},{"name":"B4","midi":71,"time":216.1346333958319,"velocity":0.8031496062992126,"duration":0.9134616145833263},{"name":"D5","midi":74,"time":216.5961718958319,"velocity":0.8031496062992126,"duration":0.45913465364583317},{"name":"G3","midi":55,"time":217.0577103958319,"velocity":0.8031496062992126,"duration":1.3822116536458111},{"name":"C#5","midi":73,"time":217.0577103958319,"velocity":0.8031496062992126,"duration":0.45913465364583317},{"name":"A4","midi":69,"time":217.0577103958319,"velocity":0.8031496062992126,"duration":0.9134616145833263},{"name":"D4","midi":62,"time":217.51924889583188,"velocity":0.8031496062992126,"duration":0.45913465364583317},{"name":"D5","midi":74,"time":217.51924889583188,"velocity":0.8031496062992126,"duration":0.45913465364583317},{"name":"C#4","midi":61,"time":217.98078739583187,"velocity":0.8031496062992126,"duration":1.3822116536458111},{"name":"E5","midi":76,"time":217.98078739583187,"velocity":0.8031496062992126,"duration":2.307692499999945},{"name":"A4","midi":69,"time":217.98078739583187,"velocity":0.8031496062992126,"duration":1.6346155208333073},{"name":"A#3","midi":58,"time":218.44232589583186,"velocity":0.8031496062992126,"duration":0.45913465364583317},{"name":"A3","midi":57,"time":218.90386439583185,"velocity":0.8031496062992126,"duration":0.45913465364583317},{"name":"G3","midi":55,"time":219.36540289583183,"velocity":0.8031496062992126,"duration":0.45913465364583317},{"name":"F4","midi":65,"time":219.82694139583182,"velocity":0.8031496062992126,"duration":0.9206731536458221},{"name":"F3","midi":53,"time":219.82694139583182,"velocity":0.8031496062992126,"duration":0.9206731536458221},{"name":"A4","midi":69,"time":219.82694139583182,"velocity":0.8031496062992126,"duration":0.9134616145833263},{"name":"A5","midi":81,"time":220.2884798958318,"velocity":0.8031496062992126,"duration":0.45913465364583317},{"name":"F3","midi":53,"time":220.7500183958318,"velocity":0.8031496062992126,"duration":0.9206731536458221},{"name":"D4","midi":62,"time":220.7500183958318,"velocity":0.8031496062992126,"duration":0.9206731536458221},{"name":"F5","midi":77,"time":220.7500183958318,"velocity":0.8031496062992126,"duration":0.45913465364583317},{"name":"A4","midi":69,"time":220.7500183958318,"velocity":0.8031496062992126,"duration":0.9134616145833263},{"name":"E5","midi":76,"time":221.2115568958318,"velocity":0.8031496062992126,"duration":0.45913465364583317},{"name":"F3","midi":53,"time":221.67309539583178,"velocity":0.8031496062992126,"duration":0.9206731536458221},{"name":"D4","midi":62,"time":221.67309539583178,"velocity":0.8031496062992126,"duration":0.9206731536458221},{"name":"A4","midi":69,"time":221.67309539583178,"velocity":0.8031496062992126,"duration":0.9134616145833263},{"name":"D5","midi":74,"time":221.67309539583178,"velocity":0.8031496062992126,"duration":0.45913465364583317},{"name":"C5","midi":72,"time":222.13463389583177,"velocity":0.8031496062992126,"duration":0.45913465364583317},{"name":"A#4","midi":70,"time":222.59617239583176,"velocity":0.8031496062992126,"duration":0.471153885416669},{"name":"G4","midi":67,"time":222.59617239583176,"velocity":0.8031496062992126,"duration":0.9399039244791538},{"name":"D4","midi":62,"time":222.59617239583176,"velocity":0.8031496062992126,"duration":0.9471154635416497},{"name":"F3","midi":53,"time":222.59617239583176,"velocity":0.8031496062992126,"duration":0.9471154635416497},{"name":"G5","midi":79,"time":223.06973012760258,"velocity":0.8031496062992126,"duration":0.471153885416669},{"name":"G4","midi":67,"time":223.54569170572756,"velocity":0.8031496062992126,"duration":0.9399039244791823},{"name":"C#5","midi":73,"time":223.54569170572756,"velocity":0.8031496062992126,"duration":0.471153885416669},{"name":"E4","midi":64,"time":223.54569170572756,"velocity":0.8031496062992126,"duration":0.9399039244791823},{"name":"E3","midi":52,"time":223.54569170572756,"velocity":0.8031496062992126,"duration":0.471153885416669},{"name":"A#4","midi":70,"time":224.02165328385257,"velocity":0.8031496062992126,"duration":0.471153885416669},{"name":"D3","midi":50,"time":224.02165328385257,"velocity":0.8031496062992126,"duration":0.471153885416669},{"name":"E4","midi":64,"time":224.49761486197758,"velocity":0.8031496062992126,"duration":0.9399039244791538},{"name":"A4","midi":69,"time":224.49761486197758,"velocity":0.8031496062992126,"duration":0.471153885416669},{"name":"A3","midi":57,"time":224.49761486197758,"velocity":0.8031496062992126,"duration":0.9471154635416497},{"name":"C#3","midi":49,"time":224.49761486197758,"velocity":0.8031496062992126,"duration":0.9471154635416497},{"name":"G4","midi":67,"time":224.9711725937484,"velocity":0.8031496062992126,"duration":0.4447115755208415},{"name":"D3","midi":50,"time":225.4471341718734,"velocity":0.8031496062992126,"duration":0.4831731171875049},{"name":"A3","midi":57,"time":225.4471341718734,"velocity":0.8031496062992126,"duration":0.4831731171875049},{"name":"F4","midi":65,"time":225.4471341718734,"velocity":0.8031496062992126,"duration":0.4831731171875049},{"name":"D4","midi":62,"time":225.4471341718734,"velocity":0.8031496062992126,"duration":0.4831731171875049},{"name":"G3","midi":55,"time":225.93511498176923,"velocity":0.8031496062992126,"duration":0.4831731171875049},{"name":"E3","midi":52,"time":225.93511498176923,"velocity":0.8031496062992126,"duration":0.4831731171875049},{"name":"C#4","midi":61,"time":225.93511498176923,"velocity":0.8031496062992126,"duration":0.4831731171875049},{"name":"A#4","midi":70,"time":225.93511498176923,"velocity":0.8031496062992126,"duration":0.4831731171875049},{"name":"F3","midi":53,"time":226.42549963801923,"velocity":0.8031496062992126,"duration":0.4831731171875049},{"name":"G#4","midi":68,"time":226.42549963801923,"velocity":0.8031496062992126,"duration":0.4831731171875049},{"name":"D4","midi":62,"time":226.42549963801923,"velocity":0.8031496062992126,"duration":0.9663462343750098},{"name":"A4","midi":69,"time":226.91588429426923,"velocity":0.8031496062992126,"duration":0.4687500390625132},{"name":"D3","midi":50,"time":226.91588429426923,"velocity":0.8031496062992126,"duration":0.49759619531249655},{"name":"A4","midi":69,"time":227.41828818229007,"velocity":0.8031496062992126,"duration":0.49759619531249655},{"name":"F5","midi":77,"time":227.41828818229007,"velocity":0.8031496062992126,"duration":0.49759619531249655},{"name":"A3","midi":57,"time":227.41828818229007,"velocity":0.8031496062992126,"duration":0.9951923906249931},{"name":"C#4","midi":61,"time":227.41828818229007,"velocity":0.8031496062992126,"duration":0.49759619531249655},{"name":"G4","midi":67,"time":227.92309591666506,"velocity":0.8031496062992126,"duration":0.49759619531249655},{"name":"E5","midi":76,"time":227.92309591666506,"velocity":0.8031496062992126,"duration":0.4687500390625132},{"name":"E4","midi":64,"time":227.92309591666506,"velocity":0.8031496062992126,"duration":0.49759619531249655},{"name":"D3","midi":50,"time":228.42790365104005,"velocity":0.8031496062992126,"duration":1.0552885494791724},{"name":"A#3","midi":58,"time":228.42790365104005,"velocity":0.8031496062992126,"duration":1.0552885494791724},{"name":"E4","midi":64,"time":228.42790365104005,"velocity":0.8031496062992126,"duration":0.5120192734374882},{"name":"C#5","midi":73,"time":228.42790365104005,"velocity":0.8031496062992126,"duration":0.5120192734374882},{"name":"G4","midi":67,"time":228.42790365104005,"velocity":0.8031496062992126,"duration":1.0504808567708324},{"name":"D5","midi":74,"time":228.94473061718588,"velocity":0.8031496062992126,"duration":0.5192308125000125},{"name":"D4","midi":62,"time":228.94473061718588,"velocity":0.8031496062992126,"duration":0.5384615833333442},{"name":"F#4","midi":66,"time":229.5000191249984,"velocity":0.8031496062992126,"duration":2.0673078645833414},{"name":"D5","midi":74,"time":229.5000191249984,"velocity":0.8031496062992126,"duration":2.0817309427083615},{"name":"D4","midi":62,"time":229.5000191249984,"velocity":0.8031496062992126,"duration":2.0673078645833414},{"name":"D3","midi":50,"time":229.5000191249984,"velocity":0.8031496062992126,"duration":2.0721155572916814},{"name":"A3","midi":57,"time":229.5000191249984,"velocity":0.8031496062992126,"duration":2.0673078645833414},{"name":"D5","midi":74,"time":236.30771199999842,"velocity":0.8031496062992126,"duration":0.22836540364582447},{"name":"F4","midi":65,"time":236.30771199999842,"velocity":0.8031496062992126,"duration":0.45913465364580475},{"name":"D4","midi":62,"time":236.30771199999842,"velocity":0.8031496062992126,"duration":2.7668271536456075},{"name":"F5","midi":77,"time":236.5384812499984,"velocity":0.8031496062992126,"duration":0.22836540364582447},{"name":"A#5","midi":82,"time":236.76925049999838,"velocity":0.8031496062992126,"duration":0.22836540364582447},{"name":"G4","midi":67,"time":236.76925049999838,"velocity":0.8031496062992126,"duration":0.45913465364580475},{"name":"E5","midi":76,"time":237.00001974999836,"velocity":0.8031496062992126,"duration":0.22836540364582447},{"name":"F5","midi":77,"time":237.23078899999834,"velocity":0.8031496062992126,"duration":0.22836540364582447},{"name":"A4","midi":69,"time":237.23078899999834,"velocity":0.8031496062992126,"duration":0.45913465364580475},{"name":"A5","midi":81,"time":237.46155824999832,"velocity":0.8031496062992126,"duration":0.22836540364582447},{"name":"A#4","midi":70,"time":237.6923274999983,"velocity":0.8031496062992126,"duration":0.22836540364582447},{"name":"G4","midi":67,"time":237.6923274999983,"velocity":0.8031496062992126,"duration":0.45913465364580475},{"name":"D5","midi":74,"time":237.92309674999828,"velocity":0.8031496062992126,"duration":0.22836540364582447},{"name":"G5","midi":79,"time":238.15386599999826,"velocity":0.8031496062992126,"duration":0.22836540364582447},{"name":"F4","midi":65,"time":238.15386599999826,"velocity":0.8031496062992126,"duration":0.22836540364582447},{"name":"C#5","midi":73,"time":238.38463524999824,"velocity":0.8031496062992126,"duration":0.22836540364582447},{"name":"E4","midi":64,"time":238.38463524999824,"velocity":0.8031496062992126,"duration":0.22836540364582447},{"name":"D5","midi":74,"time":238.61540449999822,"velocity":0.8031496062992126,"duration":0.22836540364582447},{"name":"F4","midi":65,"time":238.61540449999822,"velocity":0.8031496062992126,"duration":0.689903903645785},{"name":"F5","midi":77,"time":238.8461737499982,"velocity":0.8031496062992126,"duration":0.22836540364582447},{"name":"G4","midi":67,"time":239.07694299999818,"velocity":0.8031496062992126,"duration":0.45913465364580475},{"name":"A#3","midi":58,"time":239.07694299999818,"velocity":0.8031496062992126,"duration":1.3822116536457258},{"name":"E4","midi":64,"time":239.30771224999816,"velocity":0.8031496062992126,"duration":0.22836540364582447},{"name":"A4","midi":69,"time":239.53848149999814,"velocity":0.8031496062992126,"duration":0.11298077864583433},{"name":"D4","midi":62,"time":239.53848149999814,"velocity":0.8031496062992126,"duration":0.22836540364582447},{"name":"G4","midi":67,"time":239.65386612499813,"velocity":0.8031496062992126,"duration":0.11298077864583433},{"name":"A4","midi":69,"time":239.76925074999812,"velocity":0.8031496062992126,"duration":0.11298077864583433},{"name":"C#4","midi":61,"time":239.76925074999812,"velocity":0.8031496062992126,"duration":0.22836540364582447},{"name":"G4","midi":67,"time":239.8846353749981,"velocity":0.8031496062992126,"duration":0.11298077864583433},{"name":"A4","midi":69,"time":240.0000199999981,"velocity":0.8031496062992126,"duration":0.11298077864583433},{"name":"D4","midi":62,"time":240.0000199999981,"velocity":0.8031496062992126,"duration":0.22836540364582447},{"name":"G4","midi":67,"time":240.1154046249981,"velocity":0.8031496062992126,"duration":0.11298077864583433},{"name":"F4","midi":65,"time":240.23078924999808,"velocity":0.8031496062992126,"duration":0.11298077864583433},{"name":"E4","midi":64,"time":240.23078924999808,"velocity":0.8031496062992126,"duration":0.22836540364582447},{"name":"G4","midi":67,"time":240.34617387499807,"velocity":0.8031496062992126,"duration":0.11298077864583433},{"name":"A4","midi":69,"time":240.46155849999806,"velocity":0.8031496062992126,"duration":1.6129809036457345},{"name":"D4","midi":62,"time":240.46155849999806,"velocity":0.8031496062992126,"duration":0.22836540364582447},{"name":"A3","midi":57,"time":240.46155849999806,"velocity":0.8031496062992126,"duration":0.9134616145832695},{"name":"C#4","midi":61,"time":240.69232774999804,"velocity":0.8031496062992126,"duration":0.22836540364582447},{"name":"B3","midi":59,"time":240.92309699999802,"velocity":0.8031496062992126,"duration":0.22836540364582447},{"name":"C#4","midi":61,"time":241.153866249998,"velocity":0.8031496062992126,"duration":0.22836540364582447},{"name":"A3","midi":57,"time":241.38463549999798,"velocity":0.8031496062992126,"duration":0.45913465364583317},{"name":"G3","midi":55,"time":241.615404749998,"velocity":0.8031496062992126,"duration":0.22836540364582447},{"name":"D4","midi":62,"time":241.84617399999797,"velocity":0.8031496062992126,"duration":0.45913465364580475},{"name":"F3","midi":53,"time":241.84617399999797,"velocity":0.8031496062992126,"duration":1.8437501536456864},{"name":"F5","midi":77,"time":242.07694324999795,"velocity":0.8031496062992126,"duration":0.22836540364582447},{"name":"E5","midi":76,"time":242.30771249999793,"velocity":0.8031496062992126,"duration":0.22836540364582447},{"name":"C4","midi":60,"time":242.30771249999793,"velocity":0.8031496062992126,"duration":0.22836540364582447},{"name":"D5","midi":74,"time":242.5384817499979,"velocity":0.8031496062992126,"duration":0.22836540364582447},{"name":"B3","midi":59,"time":242.5384817499979,"velocity":0.8031496062992126,"duration":0.22836540364582447},{"name":"E5","midi":76,"time":242.7692509999979,"velocity":0.8031496062992126,"duration":0.22836540364582447},{"name":"C4","midi":60,"time":242.7692509999979,"velocity":0.8031496062992126,"duration":0.22836540364582447},{"name":"A5","midi":81,"time":243.00002024999787,"velocity":0.8031496062992126,"duration":0.22836540364582447},{"name":"A3","midi":57,"time":243.00002024999787,"velocity":0.8031496062992126,"duration":0.22836540364582447},{"name":"D5","midi":74,"time":243.23078949999785,"velocity":0.8031496062992126,"duration":0.22836540364582447},{"name":"G#3","midi":56,"time":243.23078949999785,"velocity":0.8031496062992126,"duration":0.45913465364580475},{"name":"A5","midi":81,"time":243.46155874999783,"velocity":0.8031496062992126,"duration":0.22836540364582447},{"name":"G#5","midi":80,"time":243.69232799999781,"velocity":0.8031496062992126,"duration":0.22836540364582447},{"name":"B3","midi":59,"time":243.69232799999781,"velocity":0.8031496062992126,"duration":0.11298077864583433},{"name":"E3","midi":52,"time":243.69232799999781,"velocity":0.8031496062992126,"duration":0.45913465364580475},{"name":"A3","midi":57,"time":243.8077126249978,"velocity":0.8031496062992126,"duration":0.11298077864583433},{"name":"F#5","midi":78,"time":243.9230972499978,"velocity":0.8031496062992126,"duration":0.22836540364582447},{"name":"G#3","midi":56,"time":243.9230972499978,"velocity":0.8031496062992126,"duration":0.11298077864583433},{"name":"A3","midi":57,"time":244.03848187499779,"velocity":0.8031496062992126,"duration":0.11298077864583433},{"name":"G#5","midi":80,"time":244.15386649999778,"velocity":0.8031496062992126,"duration":0.22836540364582447},{"name":"B3","midi":59,"time":244.15386649999778,"velocity":0.8031496062992126,"duration":0.45913465364580475},{"name":"D3","midi":50,"time":244.15386649999778,"velocity":0.8031496062992126,"duration":0.45913465364580475},{"name":"B5","midi":83,"time":244.38463574999776,"velocity":0.8031496062992126,"duration":0.22836540364582447},{"name":"A5","midi":81,"time":244.61540499999774,"velocity":0.8031496062992126,"duration":0.22836540364582447},{"name":"E3","midi":52,"time":244.61540499999774,"velocity":0.8031496062992126,"duration":0.45913465364580475},{"name":"C3","midi":48,"time":244.61540499999774,"velocity":0.8031496062992126,"duration":0.45913465364580475},{"name":"E5","midi":76,"time":244.84617424999772,"velocity":0.8031496062992126,"duration":0.22836540364582447},{"name":"D5","midi":74,"time":245.0769434999977,"velocity":0.8031496062992126,"duration":0.22836540364582447},{"name":"A3","midi":57,"time":245.0769434999977,"velocity":0.8031496062992126,"duration":0.45913465364580475},{"name":"D3","midi":50,"time":245.0769434999977,"velocity":0.8031496062992126,"duration":0.45913465364580475},{"name":"C5","midi":72,"time":245.30771274999768,"velocity":0.8031496062992126,"duration":0.22836540364582447},{"name":"B4","midi":71,"time":245.53848199999766,"velocity":0.8031496062992126,"duration":0.22836540364582447},{"name":"G#3","midi":56,"time":245.53848199999766,"velocity":0.8031496062992126,"duration":0.45913465364580475},{"name":"E3","midi":52,"time":245.53848199999766,"velocity":0.8031496062992126,"duration":0.45913465364580475},{"name":"C5","midi":72,"time":245.76925124999764,"velocity":0.8031496062992126,"duration":0.22836540364582447},{"name":"B4","midi":71,"time":246.00002049999762,"velocity":0.8031496062992126,"duration":0.45913465364583317},{"name":"A3","midi":57,"time":246.00002049999762,"velocity":0.8031496062992126,"duration":1.1538462499999866},{"name":"A2","midi":45,"time":246.00002049999762,"velocity":0.8031496062992126,"duration":1.1538462499999866},{"name":"A4","midi":69,"time":246.44232822916427,"velocity":0.8031496062992126,"duration":0.9086539218749863},{"name":"A4","midi":69,"time":247.38463599999758,"velocity":0.8031496062992126,"duration":0.45913465364583317},{"name":"F4","midi":65,"time":247.38463599999758,"velocity":0.8031496062992126,"duration":2.7668271536456643},{"name":"F3","midi":53,"time":247.38463599999758,"velocity":0.8031496062992126,"duration":0.45673080729167737},{"name":"A3","midi":57,"time":247.6154052499976,"velocity":0.8031496062992126,"duration":0.22836540364582447},{"name":"C5","midi":72,"time":247.84617449999757,"velocity":0.8031496062992126,"duration":0.11298077864583433},{"name":"D4","midi":62,"time":247.84617449999757,"velocity":0.8031496062992126,"duration":0.22836540364582447},{"name":"A#4","midi":70,"time":247.96155912499756,"velocity":0.8031496062992126,"duration":0.11298077864583433},{"name":"A4","midi":69,"time":248.07694374999755,"velocity":0.8031496062992126,"duration":0.11298077864583433},{"name":"G3","midi":55,"time":248.07694374999755,"velocity":0.8031496062992126,"duration":0.22836540364582447},{"name":"A#4","midi":70,"time":248.19232837499754,"velocity":0.8031496062992126,"duration":0.11298077864583433},{"name":"C5","midi":72,"time":248.30771299999753,"velocity":0.8031496062992126,"duration":0.45913465364580475},{"name":"A3","midi":57,"time":248.30771299999753,"velocity":0.8031496062992126,"duration":0.22836540364582447},{"name":"C4","midi":60,"time":248.53848224999751,"velocity":0.8031496062992126,"duration":0.22836540364582447},{"name":"A#4","midi":70,"time":248.7692514999975,"velocity":0.8031496062992126,"duration":0.45913465364583317},{"name":"D3","midi":50,"time":248.7692514999975,"velocity":0.8031496062992126,"duration":0.45673080729167737},{"name":"F3","midi":53,"time":249.0000207499975,"velocity":0.8031496062992126,"duration":0.22836540364582447},{"name":"A4","midi":69,"time":249.23078999999748,"velocity":0.8031496062992126,"duration":0.22836540364582447},{"name":"A#3","midi":58,"time":249.23078999999748,"velocity":0.8031496062992126,"duration":0.22836540364582447},{"name":"G4","midi":67,"time":249.46155924999746,"velocity":0.8031496062992126,"duration":0.22836540364582447},{"name":"E3","midi":52,"time":249.46155924999746,"velocity":0.8031496062992126,"duration":0.22836540364582447},{"name":"A4","midi":69,"time":249.69232849999744,"velocity":0.8031496062992126,"duration":0.5769231249999507},{"name":"F3","midi":53,"time":249.69232849999744,"velocity":0.8031496062992126,"duration":0.22836540364582447},{"name":"A3","midi":57,"time":249.92309774999742,"velocity":0.8031496062992126,"duration":0.22836540364582447},{"name":"D4","midi":62,"time":250.1538669999974,"velocity":0.8031496062992126,"duration":1.3822116536457258},{"name":"A#2","midi":46,"time":250.1538669999974,"velocity":0.8031496062992126,"duration":0.45913465364580475},{"name":"G4","midi":67,"time":250.38463624999738,"velocity":0.8031496062992126,"duration":0.22836540364582447},{"name":"F4","midi":65,"time":250.61540549999737,"velocity":0.8031496062992126,"duration":0.22836540364582447},{"name":"C3","midi":48,"time":250.61540549999737,"velocity":0.8031496062992126,"duration":0.11298077864583433},{"name":"B2","midi":47,"time":250.73079012499736,"velocity":0.8031496062992126,"duration":0.11298077864583433},{"name":"E4","midi":64,"time":250.84617474999735,"velocity":0.8031496062992126,"duration":0.22836540364582447},{"name":"C3","midi":48,"time":250.84617474999735,"velocity":0.8031496062992126,"duration":0.11298077864583433},{"name":"B2","midi":47,"time":250.96155937499734,"velocity":0.8031496062992126,"duration":0.11298077864583433},{"name":"F4","midi":65,"time":251.07694399999733,"velocity":0.8031496062992126,"duration":0.22836540364582447},{"name":"C3","midi":48,"time":251.07694399999733,"velocity":0.8031496062992126,"duration":0.11298077864583433},{"name":"B2","midi":47,"time":251.19232862499732,"velocity":0.8031496062992126,"duration":0.11298077864583433},{"name":"G4","midi":67,"time":251.3077132499973,"velocity":0.8031496062992126,"duration":0.22836540364582447},{"name":"A2","midi":45,"time":251.3077132499973,"velocity":0.8031496062992126,"duration":0.11298077864583433},{"name":"B2","midi":47,"time":251.4230978749973,"velocity":0.8031496062992126,"duration":0.11298077864583433},{"name":"F4","midi":65,"time":251.5384824999973,"velocity":0.8031496062992126,"duration":0.22836540364582447},{"name":"C4","midi":60,"time":251.5384824999973,"velocity":0.8031496062992126,"duration":0.9134616145832695},{"name":"C3","midi":48,"time":251.5384824999973,"velocity":0.8031496062992126,"duration":0.45913465364580475},{"name":"E4","midi":64,"time":251.76925174999727,"velocity":0.8031496062992126,"duration":0.22836540364582447},{"name":"D4","midi":62,"time":252.00002099999725,"velocity":0.8031496062992126,"duration":0.22836540364582447},{"name":"D3","midi":50,"time":252.00002099999725,"velocity":0.8031496062992126,"duration":0.45913465364580475},{"name":"E4","midi":64,"time":252.23079024999723,"velocity":0.8031496062992126,"duration":0.22836540364582447},{"name":"C4","midi":60,"time":252.4615594999972,"velocity":0.8031496062992126,"duration":0.3846154166666622},{"name":"E3","midi":52,"time":252.4615594999972,"velocity":0.8031496062992126,"duration":0.45913465364583317},{"name":"A#3","midi":58,"time":252.69232874999722,"velocity":0.8031496062992126,"duration":0.22836540364582447},{"name":"F4","midi":65,"time":252.9230979999972,"velocity":0.8031496062992126,"duration":3.2283656536455965},{"name":"A3","midi":57,"time":252.9230979999972,"velocity":0.8031496062992126,"duration":0.22836540364582447},{"name":"D#3","midi":51,"time":252.9230979999972,"velocity":0.8031496062992126,"duration":0.45913465364580475},{"name":"C4","midi":60,"time":253.15386724999718,"velocity":0.8031496062992126,"duration":0.22836540364582447},{"name":"D4","midi":62,"time":253.38463649999716,"velocity":0.8031496062992126,"duration":0.22836540364582447},{"name":"F3","midi":53,"time":253.38463649999716,"velocity":0.8031496062992126,"duration":0.22836540364582447},{"name":"G3","midi":55,"time":253.61540574999714,"velocity":0.8031496062992126,"duration":0.22836540364582447},{"name":"D#3","midi":51,"time":253.61540574999714,"velocity":0.8031496062992126,"duration":0.22836540364582447},{"name":"A3","midi":57,"time":253.84617499999712,"velocity":0.8031496062992126,"duration":0.22836540364582447},{"name":"D3","midi":50,"time":253.84617499999712,"velocity":0.8031496062992126,"duration":0.22836540364582447},{"name":"C4","midi":60,"time":254.0769442499971,"velocity":0.8031496062992126,"duration":0.22836540364582447},{"name":"C3","midi":48,"time":254.0769442499971,"velocity":0.8031496062992126,"duration":0.22836540364582447},{"name":"F3","midi":53,"time":254.30771349999708,"velocity":0.8031496062992126,"duration":0.22836540364582447},{"name":"D3","midi":50,"time":254.30771349999708,"velocity":0.8031496062992126,"duration":0.45913465364580475},{"name":"A3","midi":57,"time":254.53848274999706,"velocity":0.8031496062992126,"duration":0.22836540364582447},{"name":"A#3","midi":58,"time":254.76925199999704,"velocity":0.8031496062992126,"duration":0.22836540364582447},{"name":"C3","midi":48,"time":254.76925199999704,"velocity":0.8031496062992126,"duration":0.22836540364582447},{"name":"E3","midi":52,"time":255.00002124999702,"velocity":0.8031496062992126,"duration":0.22836540364582447},{"name":"A#2","midi":46,"time":255.00002124999702,"velocity":0.8031496062992126,"duration":0.22836540364582447},{"name":"F3","midi":53,"time":255.230790499997,"velocity":0.8031496062992126,"duration":0.22836540364582447},{"name":"A2","midi":45,"time":255.230790499997,"velocity":0.8031496062992126,"duration":0.22836540364582447},{"name":"A3","midi":57,"time":255.46155974999698,"velocity":0.8031496062992126,"duration":0.22836540364582447},{"name":"G2","midi":43,"time":255.46155974999698,"velocity":0.8031496062992126,"duration":0.22836540364582447},{"name":"C4","midi":60,"time":255.69232899999696,"velocity":0.8031496062992126,"duration":0.45913465364583317},{"name":"A2","midi":45,"time":255.69232899999696,"velocity":0.8031496062992126,"duration":0.45913465364583317},{"name":"G4","midi":67,"time":256.153867499997,"velocity":0.8031496062992126,"duration":0.38461541666669063},{"name":"A#3","midi":58,"time":256.153867499997,"velocity":0.8031496062992126,"duration":0.2283654036458529},{"name":"A#2","midi":46,"time":256.153867499997,"velocity":0.8031496062992126,"duration":0.45913465364583317},{"name":"A3","midi":57,"time":256.384636749997,"velocity":0.8031496062992126,"duration":0.22836540364579605},{"name":"E4","midi":64,"time":256.615405999997,"velocity":0.8031496062992126,"duration":0.38461541666669063},{"name":"G3","midi":55,"time":256.615405999997,"velocity":0.8031496062992126,"duration":0.2283654036458529},{"name":"C3","midi":48,"time":256.615405999997,"velocity":0.8031496062992126,"duration":0.45913465364583317},{"name":"A3","midi":57,"time":256.84617524999703,"velocity":0.8031496062992126,"duration":0.22836540364579605},{"name":"F4","midi":65,"time":257.076944499997,"velocity":0.8031496062992126,"duration":0.2283654036458529},{"name":"F3","midi":53,"time":257.076944499997,"velocity":0.8031496062992126,"duration":0.9134616145834684},{"name":"E4","midi":64,"time":257.30771374999705,"velocity":0.8031496062992126,"duration":0.2283654036458529},{"name":"F4","midi":65,"time":257.5384829999971,"velocity":0.8031496062992126,"duration":0.2283654036458529},{"name":"F2","midi":41,"time":257.5384829999971,"velocity":0.8031496062992126,"duration":0.45913465364589},{"name":"G4","midi":67,"time":257.7692522499971,"velocity":0.8031496062992126,"duration":0.2283654036458529},{"name":"A4","midi":69,"time":258.00002149999716,"velocity":0.8031496062992126,"duration":0.2283654036458529},{"name":"G2","midi":43,"time":258.00002149999716,"velocity":0.8031496062992126,"duration":0.45913465364589},{"name":"A#4","midi":70,"time":258.2307907499972,"velocity":0.8031496062992126,"duration":0.2283654036458529},{"name":"C5","midi":72,"time":258.46155999999723,"velocity":0.8031496062992126,"duration":0.2283654036458529},{"name":"A2","midi":45,"time":258.46155999999723,"velocity":0.8031496062992126,"duration":0.45913465364589},{"name":"D#5","midi":75,"time":258.6923292499973,"velocity":0.8031496062992126,"duration":0.2283654036458529},{"name":"D5","midi":74,"time":258.9230984999973,"velocity":0.8031496062992126,"duration":0.2283654036458529},{"name":"F3","midi":53,"time":258.9230984999973,"velocity":0.8031496062992126,"duration":0.2283654036458529},{"name":"A#2","midi":46,"time":258.9230984999973,"velocity":0.8031496062992126,"duration":0.6899039036459271},{"name":"C5","midi":72,"time":259.15386774999735,"velocity":0.8031496062992126,"duration":0.2283654036458529},{"name":"E3","midi":52,"time":259.15386774999735,"velocity":0.8031496062992126,"duration":0.2283654036458529},{"name":"D5","midi":74,"time":259.3846369999974,"velocity":0.8031496062992126,"duration":0.2283654036458529},{"name":"F3","midi":53,"time":259.3846369999974,"velocity":0.8031496062992126,"duration":0.4567308072917058},{"name":"A#4","midi":70,"time":259.6154062499974,"velocity":0.8031496062992126,"duration":0.2283654036458529},{"name":"G2","midi":43,"time":259.6154062499974,"velocity":0.8031496062992126,"duration":0.2283654036458529},{"name":"G4","midi":67,"time":259.84617549999746,"velocity":0.8031496062992126,"duration":0.2283654036458529},{"name":"C3","midi":48,"time":259.84617549999746,"velocity":0.8031496062992126,"duration":0.2283654036458529},{"name":"F5","midi":77,"time":260.0769447499975,"velocity":0.8031496062992126,"duration":0.2283654036458529},{"name":"B2","midi":47,"time":260.0769447499975,"velocity":0.8031496062992126,"duration":0.2283654036458529},{"name":"E5","midi":76,"time":260.30771399999753,"velocity":0.8031496062992126,"duration":0.2283654036458529},{"name":"G3","midi":55,"time":260.30771399999753,"velocity":0.8031496062992126,"duration":0.2283654036458529},{"name":"C3","midi":48,"time":260.30771399999753,"velocity":0.8031496062992126,"duration":0.6899039036459271},{"name":"D5","midi":74,"time":260.53848324999757,"velocity":0.8031496062992126,"duration":0.2283654036458529},{"name":"F3","midi":53,"time":260.53848324999757,"velocity":0.8031496062992126,"duration":0.2283654036458529},{"name":"E5","midi":76,"time":260.7692524999976,"velocity":0.8031496062992126,"duration":0.2283654036458529},{"name":"G3","midi":55,"time":260.7692524999976,"velocity":0.8031496062992126,"duration":0.4567308072917058},{"name":"C5","midi":72,"time":261.00002174999764,"velocity":0.8031496062992126,"duration":0.2283654036458529},{"name":"A2","midi":45,"time":261.00002174999764,"velocity":0.8031496062992126,"duration":0.2283654036458529},{"name":"A4","midi":69,"time":261.2307909999977,"velocity":0.8031496062992126,"duration":0.2283654036458529},{"name":"D3","midi":50,"time":261.2307909999977,"velocity":0.8031496062992126,"duration":0.2283654036458529},{"name":"G5","midi":79,"time":261.4615602499977,"velocity":0.8031496062992126,"duration":0.2283654036458529},{"name":"C#3","midi":49,"time":261.4615602499977,"velocity":0.8031496062992126,"duration":0.2283654036458529},{"name":"F5","midi":77,"time":261.69232949999775,"velocity":0.8031496062992126,"duration":0.2283654036458529},{"name":"A3","midi":57,"time":261.69232949999775,"velocity":0.8031496062992126,"duration":0.45913465364589},{"name":"D3","midi":50,"time":261.69232949999775,"velocity":0.8031496062992126,"duration":0.45913465364589},{"name":"E5","midi":76,"time":261.9230987499978,"velocity":0.8031496062992126,"duration":0.2283654036458529},{"name":"F5","midi":77,"time":262.15386799999783,"velocity":0.8031496062992126,"duration":0.2283654036458529},{"name":"D4","midi":62,"time":262.15386799999783,"velocity":0.8031496062992126,"duration":0.45913465364589},{"name":"A#3","midi":58,"time":262.15386799999783,"velocity":0.8031496062992126,"duration":0.8173077604167815},{"name":"D5","midi":74,"time":262.38463724999787,"velocity":0.8031496062992126,"duration":0.2283654036458529},{"name":"E5","midi":76,"time":262.6154064999979,"velocity":0.8031496062992126,"duration":0.2283654036458529},{"name":"C#4","midi":61,"time":262.6154064999979,"velocity":0.8031496062992126,"duration":0.2283654036458529},{"name":"D5","midi":74,"time":262.84617574999794,"velocity":0.8031496062992126,"duration":0.2283654036458529},{"name":"D4","midi":62,"time":262.84617574999794,"velocity":0.8031496062992126,"duration":0.2283654036458529},{"name":"C#5","midi":73,"time":263.076944999998,"velocity":0.8031496062992126,"duration":0.2283654036458529},{"name":"E4","midi":64,"time":263.076944999998,"velocity":0.8031496062992126,"duration":0.45913465364589},{"name":"A3","midi":57,"time":263.076944999998,"velocity":0.8031496062992126,"duration":0.2283654036458529},{"name":"B4","midi":71,"time":263.307714249998,"velocity":0.8031496062992126,"duration":0.2283654036458529},{"name":"G3","midi":55,"time":263.307714249998,"velocity":0.8031496062992126,"duration":0.2283654036458529},{"name":"C#5","midi":73,"time":263.53848349999805,"velocity":0.8031496062992126,"duration":0.2283654036458529},{"name":"A3","midi":57,"time":263.53848349999805,"velocity":0.8031496062992126,"duration":0.45913465364589},{"name":"F3","midi":53,"time":263.53848349999805,"velocity":0.8031496062992126,"duration":0.2283654036458529},{"name":"A4","midi":69,"time":263.7692527499981,"velocity":0.8031496062992126,"duration":0.2283654036458529},{"name":"E3","midi":52,"time":263.7692527499981,"velocity":0.8031496062992126,"duration":0.2283654036458529},{"name":"D5","midi":74,"time":264.0000219999981,"velocity":0.8031496062992126,"duration":3.1250002604169254},{"name":"A4","midi":69,"time":264.0000219999981,"velocity":0.8031496062992126,"duration":0.45913465364583317},{"name":"F#3","midi":54,"time":264.0000219999981,"velocity":0.8031496062992126,"duration":0.45673080729164894},{"name":"A3","midi":57,"time":264.2307912499981,"velocity":0.8031496062992126,"duration":0.2283654036458529},{"name":"C5","midi":72,"time":264.46156049999814,"velocity":0.8031496062992126,"duration":0.11298077864580591},{"name":"D4","midi":62,"time":264.46156049999814,"velocity":0.8031496062992126,"duration":0.22836540364579605},{"name":"A#4","midi":70,"time":264.57694512499813,"velocity":0.8031496062992126,"duration":0.11298077864580591},{"name":"A4","midi":69,"time":264.6923297499981,"velocity":0.8031496062992126,"duration":0.11298077864580591},{"name":"G3","midi":55,"time":264.6923297499981,"velocity":0.8031496062992126,"duration":0.22836540364579605},{"name":"A#4","midi":70,"time":264.8077143749981,"velocity":0.8031496062992126,"duration":0.11298077864580591},{"name":"C5","midi":72,"time":264.9230989999981,"velocity":0.8031496062992126,"duration":0.45913465364589},{"name":"A3","midi":57,"time":264.9230989999981,"velocity":0.8031496062992126,"duration":0.2283654036458529},{"name":"C4","midi":60,"time":265.15386824999814,"velocity":0.8031496062992126,"duration":0.2283654036458529},{"name":"C5","midi":72,"time":265.3846374999982,"velocity":0.8031496062992126,"duration":0.2283654036458529},{"name":"D3","midi":50,"time":265.3846374999982,"velocity":0.8031496062992126,"duration":0.4567308072917058},{"name":"A#4","midi":70,"time":265.6154067499982,"velocity":0.8031496062992126,"duration":0.2283654036458529},{"name":"G3","midi":55,"time":265.6154067499982,"velocity":0.8031496062992126,"duration":0.2283654036458529},{"name":"A4","midi":69,"time":265.84617599999825,"velocity":0.8031496062992126,"duration":0.2283654036458529},{"name":"A#3","midi":58,"time":265.84617599999825,"velocity":0.8031496062992126,"duration":0.2283654036458529},{"name":"G4","midi":67,"time":266.0769452499983,"velocity":0.8031496062992126,"duration":0.2283654036458529},{"name":"E3","midi":52,"time":266.0769452499983,"velocity":0.8031496062992126,"duration":0.2283654036458529},{"name":"A4","midi":69,"time":266.3077144999983,"velocity":0.8031496062992126,"duration":0.45913465364589},{"name":"F3","midi":53,"time":266.3077144999983,"velocity":0.8031496062992126,"duration":0.2283654036458529},{"name":"A3","midi":57,"time":266.53848374999836,"velocity":0.8031496062992126,"duration":0.2283654036458529},{"name":"F4","midi":65,"time":266.7692529999984,"velocity":0.8031496062992126,"duration":0.4326923437499772},{"name":"A#2","midi":46,"time":266.7692529999984,"velocity":0.8031496062992126,"duration":0.45913465364583317},{"name":"F5","midi":77,"time":267.2307914999984,"velocity":0.8031496062992126,"duration":0.2283654036458529},{"name":"G4","midi":67,"time":267.2307914999984,"velocity":0.8031496062992126,"duration":0.45913465364589},{"name":"G2","midi":43,"time":267.2307914999984,"velocity":0.8031496062992126,"duration":0.45913465364589},{"name":"E5","midi":76,"time":267.46156074999845,"velocity":0.8031496062992126,"duration":0.2283654036458529},{"name":"D5","midi":74,"time":267.6923299999985,"velocity":0.8031496062992126,"duration":0.2283654036458529},{"name":"E4","midi":64,"time":267.6923299999985,"velocity":0.8031496062992126,"duration":0.45913465364589},{"name":"A2","midi":45,"time":267.6923299999985,"velocity":0.8031496062992126,"duration":0.45913465364589},{"name":"C#5","midi":73,"time":267.92309924999853,"velocity":0.8031496062992126,"duration":0.2283654036458529},{"name":"D5","midi":74,"time":268.15386849999857,"velocity":0.8031496062992126,"duration":1.3701924218750037},{"name":"D4","midi":62,"time":268.15386849999857,"velocity":0.8031496062992126,"duration":1.153846250000015},{"name":"D3","midi":50,"time":268.15386849999857,"velocity":0.8031496062992126,"duration":1.2980770312499885},{"name":"D2","midi":38,"time":268.15386849999857,"velocity":0.8031496062992126,"duration":1.153846250000015},{"name":"A4","midi":69,"time":269.53848399999856,"velocity":0.8031496062992126,"duration":0.38461541666669063},{"name":"F4","midi":65,"time":269.53848399999856,"velocity":0.8031496062992126,"duration":0.45913465364583317},{"name":"D3","midi":50,"time":269.53848399999856,"velocity":0.8031496062992126,"duration":0.45913465364583317},{"name":"A#4","midi":70,"time":270.0000224999986,"velocity":0.8031496062992126,"duration":0.11298077864580591},{"name":"F4","midi":65,"time":270.0000224999986,"velocity":0.8031496062992126,"duration":0.9206731536457369},{"name":"D4","midi":62,"time":270.0000224999986,"velocity":0.8031496062992126,"duration":0.4591346536457763},{"name":"A4","midi":69,"time":270.11540712499857,"velocity":0.8031496062992126,"duration":0.11298077864580591},{"name":"A#4","midi":70,"time":270.23079174999856,"velocity":0.8031496062992126,"duration":0.11298077864580591},{"name":"A4","midi":69,"time":270.34617637499855,"velocity":0.8031496062992126,"duration":0.11298077864580591},{"name":"A#4","midi":70,"time":270.46156099999854,"velocity":0.8031496062992126,"duration":0.11298077864580591},{"name":"C4","midi":60,"time":270.46156099999854,"velocity":0.8031496062992126,"duration":0.4591346536457763},{"name":"A4","midi":69,"time":270.57694562499853,"velocity":0.8031496062992126,"duration":0.11298077864580591},{"name":"G4","midi":67,"time":270.6923302499985,"velocity":0.8031496062992126,"duration":0.11298077864580591},{"name":"A4","midi":69,"time":270.8077148749985,"velocity":0.8031496062992126,"duration":0.11298077864580591},{"name":"A#4","midi":70,"time":270.9230994999985,"velocity":0.8031496062992126,"duration":0.2283654036458529},{"name":"G4","midi":67,"time":270.9230994999985,"velocity":0.8031496062992126,"duration":1.1514424036460014},{"name":"A#3","midi":58,"time":270.9230994999985,"velocity":0.8031496062992126,"duration":0.45913465364589},{"name":"C5","midi":72,"time":271.15386874999854,"velocity":0.8031496062992126,"duration":0.2283654036458529},{"name":"D5","midi":74,"time":271.3846379999986,"velocity":0.8031496062992126,"duration":0.2283654036458529},{"name":"A3","midi":57,"time":271.3846379999986,"velocity":0.8031496062992126,"duration":0.2283654036458529},{"name":"A#4","midi":70,"time":271.6154072499986,"velocity":0.8031496062992126,"duration":0.2283654036458529},{"name":"G3","midi":55,"time":271.6154072499986,"velocity":0.8031496062992126,"duration":0.2283654036458529},{"name":"C5","midi":72,"time":271.84617649999865,"velocity":0.8031496062992126,"duration":0.2283654036458529},{"name":"A3","midi":57,"time":271.84617649999865,"velocity":0.8031496062992126,"duration":0.2283654036458529},{"name":"A4","midi":69,"time":272.0769457499987,"velocity":0.8031496062992126,"duration":0.2283654036458529},{"name":"F4","midi":65,"time":272.0769457499987,"velocity":0.8031496062992126,"duration":0.2283654036458529},{"name":"A#3","midi":58,"time":272.0769457499987,"velocity":0.8031496062992126,"duration":0.2283654036458529},{"name":"G4","midi":67,"time":272.3077149999987,"velocity":0.8031496062992126,"duration":0.4326923437499772},{"name":"E4","midi":64,"time":272.3077149999987,"velocity":0.8031496062992126,"duration":0.4326923437499772},{"name":"C4","midi":60,"time":272.3077149999987,"velocity":0.8031496062992126,"duration":0.45913465364583317},{"name":"A4","midi":69,"time":272.76925349999874,"velocity":0.8031496062992126,"duration":0.11298077864580591},{"name":"E4","midi":64,"time":272.76925349999874,"velocity":0.8031496062992126,"duration":0.9206731536459074},{"name":"C3","midi":48,"time":272.76925349999874,"velocity":0.8031496062992126,"duration":0.22836540364579605},{"name":"A#4","midi":70,"time":272.88463812499873,"velocity":0.8031496062992126,"duration":0.11298077864580591},{"name":"C5","midi":72,"time":273.0000227499987,"velocity":0.8031496062992126,"duration":0.45913465364589},{"name":"A#2","midi":46,"time":273.0000227499987,"velocity":0.8031496062992126,"duration":0.2283654036458529},{"name":"A2","midi":45,"time":273.23079199999876,"velocity":0.8031496062992126,"duration":0.2283654036458529},{"name":"A#4","midi":70,"time":273.4615612499988,"velocity":0.8031496062992126,"duration":0.2283654036458529},{"name":"G2","midi":43,"time":273.4615612499988,"velocity":0.8031496062992126,"duration":0.2283654036458529},{"name":"A4","midi":69,"time":273.69233049999883,"velocity":0.8031496062992126,"duration":0.2283654036458529},{"name":"F4","midi":65,"time":273.69233049999883,"velocity":0.8031496062992126,"duration":0.9134616145834684},{"name":"F2","midi":41,"time":273.69233049999883,"velocity":0.8031496062992126,"duration":0.45913465364589},{"name":"G4","midi":67,"time":273.92309974999887,"velocity":0.8031496062992126,"duration":0.2283654036458529},{"name":"A#4","midi":70,"time":274.1538689999989,"velocity":0.8031496062992126,"duration":0.2283654036458529},{"name":"G2","midi":43,"time":274.1538689999989,"velocity":0.8031496062992126,"duration":0.45913465364589},{"name":"A4","midi":69,"time":274.38463824999894,"velocity":0.8031496062992126,"duration":0.2283654036458529},{"name":"G4","midi":67,"time":274.615407499999,"velocity":0.8031496062992126,"duration":0.2283654036458529},{"name":"A2","midi":45,"time":274.615407499999,"velocity":0.8031496062992126,"duration":0.45913465364589},{"name":"F4","midi":65,"time":274.846176749999,"velocity":0.8031496062992126,"duration":0.2283654036458529},{"name":"D5","midi":74,"time":275.07694599999905,"velocity":0.8031496062992126,"duration":2.8846156250001513},{"name":"F4","midi":65,"time":275.07694599999905,"velocity":0.8031496062992126,"duration":0.38461541666669063},{"name":"A#2","midi":46,"time":275.07694599999905,"velocity":0.8031496062992126,"duration":0.2283654036458529},{"name":"F3","midi":53,"time":275.3077152499991,"velocity":0.8031496062992126,"duration":0.22836540364579605},{"name":"G4","midi":67,"time":275.5384844999991,"velocity":0.8031496062992126,"duration":0.11298077864580591},{"name":"A#3","midi":58,"time":275.5384844999991,"velocity":0.8031496062992126,"duration":0.22836540364579605},{"name":"F4","midi":65,"time":275.65386912499906,"velocity":0.8031496062992126,"duration":0.11298077864580591},{"name":"G4","midi":67,"time":275.76925374999905,"velocity":0.8031496062992126,"duration":0.11298077864580591},{"name":"A3","midi":57,"time":275.76925374999905,"velocity":0.8031496062992126,"duration":0.22836540364579605},{"name":"F4","midi":65,"time":275.88463837499904,"velocity":0.8031496062992126,"duration":0.11298077864580591},{"name":"G4","midi":67,"time":276.00002299999903,"velocity":0.8031496062992126,"duration":0.11298077864580591},{"name":"G3","midi":55,"time":276.00002299999903,"velocity":0.8031496062992126,"duration":0.22836540364579605},{"name":"F4","midi":65,"time":276.115407624999,"velocity":0.8031496062992126,"duration":0.11298077864580591},{"name":"E4","midi":64,"time":276.230792249999,"velocity":0.8031496062992126,"duration":0.11298077864580591},{"name":"F3","midi":53,"time":276.230792249999,"velocity":0.8031496062992126,"duration":0.22836540364579605},{"name":"F4","midi":65,"time":276.346176874999,"velocity":0.8031496062992126,"duration":0.11298077864580591},{"name":"G4","midi":67,"time":276.461561499999,"velocity":0.8031496062992126,"duration":0.2283654036458529},{"name":"E3","midi":52,"time":276.461561499999,"velocity":0.8031496062992126,"duration":0.2283654036458529},{"name":"A4","midi":69,"time":276.69233074999903,"velocity":0.8031496062992126,"duration":0.2283654036458529},{"name":"C#3","midi":49,"time":276.69233074999903,"velocity":0.8031496062992126,"duration":0.2283654036458529},{"name":"A#4","midi":70,"time":276.92309999999907,"velocity":0.8031496062992126,"duration":0.2283654036458529},{"name":"D3","midi":50,"time":276.92309999999907,"velocity":0.8031496062992126,"duration":0.2283654036458529},{"name":"G4","midi":67,"time":277.1538692499991,"velocity":0.8031496062992126,"duration":0.2283654036458529},{"name":"E3","midi":52,"time":277.1538692499991,"velocity":0.8031496062992126,"duration":0.2283654036458529},{"name":"A4","midi":69,"time":277.38463849999914,"velocity":0.8031496062992126,"duration":0.2283654036458529},{"name":"F3","midi":53,"time":277.38463849999914,"velocity":0.8031496062992126,"duration":0.2283654036458529},{"name":"F4","midi":65,"time":277.6154077499992,"velocity":0.8031496062992126,"duration":0.2283654036458529},{"name":"G3","midi":55,"time":277.6154077499992,"velocity":0.8031496062992126,"duration":0.2283654036458529},{"name":"E4","midi":64,"time":277.8461769999992,"velocity":0.8031496062992126,"duration":1.3822116536459816},{"name":"A3","midi":57,"time":277.8461769999992,"velocity":0.8031496062992126,"duration":0.45913465364583317},{"name":"D5","midi":74,"time":278.0769462499992,"velocity":0.8031496062992126,"duration":0.2283654036458529},{"name":"C#5","midi":73,"time":278.30771549999923,"velocity":0.8031496062992126,"duration":0.2283654036458529},{"name":"A2","midi":45,"time":278.30771549999923,"velocity":0.8031496062992126,"duration":0.45913465364589},{"name":"B4","midi":71,"time":278.53848474999927,"velocity":0.8031496062992126,"duration":0.2283654036458529},{"name":"A4","midi":69,"time":278.7692539999993,"velocity":0.8031496062992126,"duration":0.2283654036458529},{"name":"A3","midi":57,"time":278.7692539999993,"velocity":0.8031496062992126,"duration":0.45913465364589},{"name":"G4","midi":67,"time":279.00002324999934,"velocity":0.8031496062992126,"duration":0.2283654036458529},{"name":"F4","midi":65,"time":279.2307924999994,"velocity":0.8031496062992126,"duration":0.2283654036458529},{"name":"D4","midi":62,"time":279.2307924999994,"velocity":0.8031496062992126,"duration":0.9134616145834684},{"name":"D3","midi":50,"time":279.2307924999994,"velocity":0.8031496062992126,"duration":0.45913465364589},{"name":"E4","midi":64,"time":279.4615617499994,"velocity":0.8031496062992126,"duration":0.2283654036458529},{"name":"G4","midi":67,"time":279.69233099999946,"velocity":0.8031496062992126,"duration":0.2283654036458529},{"name":"F2","midi":41,"time":279.69233099999946,"velocity":0.8031496062992126,"duration":0.45913465364589},{"name":"F4","midi":65,"time":279.9231002499995,"velocity":0.8031496062992126,"duration":0.2283654036458529},{"name":"E4","midi":64,"time":280.15386949999953,"velocity":0.8031496062992126,"duration":0.2283654036458529},{"name":"A2","midi":45,"time":280.15386949999953,"velocity":0.8031496062992126,"duration":0.44711542187502573},{"name":"D4","midi":62,"time":280.38463874999957,"velocity":0.8031496062992126,"duration":0.20432694010418118},{"name":"A4","midi":69,"time":280.61540799999955,"velocity":0.8031496062992126,"duration":0.40865388020836235},{"name":"F4","midi":65,"time":280.61540799999955,"velocity":0.8031496062992126,"duration":0.40865388020836235},{"name":"D2","midi":38,"time":280.61540799999955,"velocity":0.8031496062992126,"duration":0.2283654036458529},{"name":"A2","midi":45,"time":280.8461772499996,"velocity":0.8031496062992126,"duration":0.2283654036458529},{"name":"A#4","midi":70,"time":281.0769464999996,"velocity":0.8031496062992126,"duration":0.11298077864580591},{"name":"F4","midi":65,"time":281.0769464999996,"velocity":0.8031496062992126,"duration":2.716346380208506},{"name":"D3","midi":50,"time":281.0769464999996,"velocity":0.8031496062992126,"duration":0.22836540364579605},{"name":"A4","midi":69,"time":281.1923311249996,"velocity":0.8031496062992126,"duration":0.11298077864580591},{"name":"A#4","midi":70,"time":281.3077157499996,"velocity":0.8031496062992126,"duration":0.11298077864580591},{"name":"C3","midi":48,"time":281.3077157499996,"velocity":0.8031496062992126,"duration":0.22836540364579605},{"name":"A4","midi":69,"time":281.4231003749996,"velocity":0.8031496062992126,"duration":0.11298077864580591},{"name":"A#4","midi":70,"time":281.5384849999996,"velocity":0.8031496062992126,"duration":0.11298077864580591},{"name":"A#2","midi":46,"time":281.5384849999996,"velocity":0.8031496062992126,"duration":0.22836540364579605},{"name":"A4","midi":69,"time":281.6538696249996,"velocity":0.8031496062992126,"duration":0.11298077864580591},{"name":"G4","midi":67,"time":281.76925424999956,"velocity":0.8031496062992126,"duration":0.11298077864580591},{"name":"A2","midi":45,"time":281.76925424999956,"velocity":0.8031496062992126,"duration":0.22836540364579605},{"name":"A4","midi":69,"time":281.88463887499955,"velocity":0.8031496062992126,"duration":0.11298077864580591},{"name":"A#4","midi":70,"time":282.00002349999954,"velocity":0.8031496062992126,"duration":0.2283654036458529},{"name":"G2","midi":43,"time":282.00002349999954,"velocity":0.8031496062992126,"duration":0.2283654036458529},{"name":"C5","midi":72,"time":282.2307927499996,"velocity":0.8031496062992126,"duration":0.2283654036458529},{"name":"A2","midi":45,"time":282.2307927499996,"velocity":0.8031496062992126,"duration":0.2283654036458529},{"name":"D5","midi":74,"time":282.4615619999996,"velocity":0.8031496062992126,"duration":0.2283654036458529},{"name":"A#2","midi":46,"time":282.4615619999996,"velocity":0.8031496062992126,"duration":0.2283654036458529},{"name":"A#4","midi":70,"time":282.69233124999965,"velocity":0.8031496062992126,"duration":0.2283654036458529},{"name":"G2","midi":43,"time":282.69233124999965,"velocity":0.8031496062992126,"duration":0.2283654036458529},{"name":"C5","midi":72,"time":282.9231004999997,"velocity":0.8031496062992126,"duration":0.2283654036458529},{"name":"A2","midi":45,"time":282.9231004999997,"velocity":0.8031496062992126,"duration":0.2283654036458529},{"name":"A4","midi":69,"time":283.1538697499997,"velocity":0.8031496062992126,"duration":0.2283654036458529},{"name":"A#2","midi":46,"time":283.1538697499997,"velocity":0.8031496062992126,"duration":0.2283654036458529},{"name":"G4","midi":67,"time":283.38463899999977,"velocity":0.8031496062992126,"duration":0.40865388020836235},{"name":"C3","midi":48,"time":283.38463899999977,"velocity":0.8031496062992126,"duration":0.2283654036458529},{"name":"G3","midi":55,"time":283.6154082499998,"velocity":0.8031496062992126,"duration":0.2283654036458529},{"name":"A4","midi":69,"time":283.84617749999984,"velocity":0.8031496062992126,"duration":0.11298077864580591},{"name":"E4","midi":64,"time":283.84617749999984,"velocity":0.8031496062992126,"duration":2.644230989583491},{"name":"C4","midi":60,"time":283.84617749999984,"velocity":0.8031496062992126,"duration":0.22836540364579605},{"name":"G4","midi":67,"time":283.96156212499983,"velocity":0.8031496062992126,"duration":0.11298077864580591},{"name":"A4","midi":69,"time":284.0769467499998,"velocity":0.8031496062992126,"duration":0.11298077864580591},{"name":"A#3","midi":58,"time":284.0769467499998,"velocity":0.8031496062992126,"duration":0.22836540364579605},{"name":"G4","midi":67,"time":284.1923313749998,"velocity":0.8031496062992126,"duration":0.11298077864580591},{"name":"A4","midi":69,"time":284.3077159999998,"velocity":0.8031496062992126,"duration":0.11298077864580591},{"name":"A3","midi":57,"time":284.3077159999998,"velocity":0.8031496062992126,"duration":0.22836540364579605},{"name":"G4","midi":67,"time":284.4231006249998,"velocity":0.8031496062992126,"duration":0.11298077864580591},{"name":"F4","midi":65,"time":284.5384852499998,"velocity":0.8031496062992126,"duration":0.11298077864580591},{"name":"G3","midi":55,"time":284.5384852499998,"velocity":0.8031496062992126,"duration":0.22836540364579605},{"name":"G4","midi":67,"time":284.65386987499977,"velocity":0.8031496062992126,"duration":0.11298077864580591},{"name":"A4","midi":69,"time":284.76925449999976,"velocity":0.8031496062992126,"duration":0.2283654036458529},{"name":"F3","midi":53,"time":284.76925449999976,"velocity":0.8031496062992126,"duration":0.2283654036458529},{"name":"A#4","midi":70,"time":285.0000237499998,"velocity":0.8031496062992126,"duration":0.2283654036458529},{"name":"G3","midi":55,"time":285.0000237499998,"velocity":0.8031496062992126,"duration":0.2283654036458529},{"name":"C5","midi":72,"time":285.23079299999984,"velocity":0.8031496062992126,"duration":0.2283654036458529},{"name":"A3","midi":57,"time":285.23079299999984,"velocity":0.8031496062992126,"duration":0.2283654036458529},{"name":"A4","midi":69,"time":285.4615622499999,"velocity":0.8031496062992126,"duration":0.2283654036458529},{"name":"F3","midi":53,"time":285.4615622499999,"velocity":0.8031496062992126,"duration":0.2283654036458529},{"name":"A#4","midi":70,"time":285.6923314999999,"velocity":0.8031496062992126,"duration":0.2283654036458529},{"name":"G3","midi":55,"time":285.6923314999999,"velocity":0.8031496062992126,"duration":0.2283654036458529},{"name":"G4","midi":67,"time":285.92310074999995,"velocity":0.8031496062992126,"duration":0.2283654036458529},{"name":"A3","midi":57,"time":285.92310074999995,"velocity":0.8031496062992126,"duration":0.2283654036458529},{"name":"F4","midi":65,"time":286.15387,"velocity":0.8031496062992126,"duration":0.40865388020836235},{"name":"A#3","midi":58,"time":286.15387,"velocity":0.8031496062992126,"duration":0.2283654036458529},{"name":"C4","midi":60,"time":286.38463925,"velocity":0.8031496062992126,"duration":0.2283654036458529},{"name":"G4","midi":67,"time":286.61540850000006,"velocity":0.8031496062992126,"duration":0.11298077864580591},{"name":"D4","midi":62,"time":286.61540850000006,"velocity":0.8031496062992126,"duration":1.3822116536458111},{"name":"A#3","midi":58,"time":286.61540850000006,"velocity":0.8031496062992126,"duration":0.22836540364579605},{"name":"F4","midi":65,"time":286.73079312500005,"velocity":0.8031496062992126,"duration":0.11298077864580591},{"name":"G4","midi":67,"time":286.84617775000004,"velocity":0.8031496062992126,"duration":0.11298077864580591},{"name":"A3","midi":57,"time":286.84617775000004,"velocity":0.8031496062992126,"duration":0.22836540364579605},{"name":"F4","midi":65,"time":286.961562375,"velocity":0.8031496062992126,"duration":0.11298077864580591},{"name":"G4","midi":67,"time":287.076947,"velocity":0.8031496062992126,"duration":0.11298077864580591},{"name":"G3","midi":55,"time":287.076947,"velocity":0.8031496062992126,"duration":0.22836540364579605},{"name":"F4","midi":65,"time":287.192331625,"velocity":0.8031496062992126,"duration":0.11298077864580591},{"name":"E4","midi":64,"time":287.30771625,"velocity":0.8031496062992126,"duration":0.11298077864580591},{"name":"F3","midi":53,"time":287.30771625,"velocity":0.8031496062992126,"duration":0.22836540364579605},{"name":"F4","midi":65,"time":287.423100875,"velocity":0.8031496062992126,"duration":0.11298077864580591},{"name":"G4","midi":67,"time":287.5384855,"velocity":0.8031496062992126,"duration":0.2283654036458529},{"name":"E3","midi":52,"time":287.5384855,"velocity":0.8031496062992126,"duration":0.2283654036458529},{"name":"A4","midi":69,"time":287.76925475,"velocity":0.8031496062992126,"duration":0.2283654036458529},{"name":"F3","midi":53,"time":287.76925475,"velocity":0.8031496062992126,"duration":0.2283654036458529},{"name":"A#4","midi":70,"time":288.00002400000005,"velocity":0.8031496062992126,"duration":0.2283654036458529},{"name":"C#4","midi":61,"time":288.00002400000005,"velocity":0.8031496062992126,"duration":0.9206731536459642},{"name":"G3","midi":55,"time":288.00002400000005,"velocity":0.8031496062992126,"duration":0.2283654036458529},{"name":"A4","midi":69,"time":288.2307932500001,"velocity":0.8031496062992126,"duration":0.2283654036458529},{"name":"F3","midi":53,"time":288.2307932500001,"velocity":0.8031496062992126,"duration":0.2283654036458529},{"name":"A#4","midi":70,"time":288.4615625000001,"velocity":0.8031496062992126,"duration":0.2283654036458529},{"name":"G3","midi":55,"time":288.4615625000001,"velocity":0.8031496062992126,"duration":0.2283654036458529},{"name":"G4","midi":67,"time":288.69233175000016,"velocity":0.8031496062992126,"duration":0.20913463281249278},{"name":"E3","midi":52,"time":288.69233175000016,"velocity":0.8031496062992126,"duration":0.2283654036458529},{"name":"A4","midi":69,"time":288.9231010000002,"velocity":0.8031496062992126,"duration":0.45913465364583317},{"name":"D4","midi":62,"time":288.9231010000002,"velocity":0.8031496062992126,"duration":0.9206731536459074},{"name":"F3","midi":53,"time":288.9231010000002,"velocity":0.8031496062992126,"duration":0.45913465364583317},{"name":"G4","midi":67,"time":289.3846395000002,"velocity":0.8031496062992126,"duration":0.2283654036458529},{"name":"G3","midi":55,"time":289.3846395000002,"velocity":0.8031496062992126,"duration":0.45913465364589},{"name":"F4","midi":65,"time":289.61540875000026,"velocity":0.8031496062992126,"duration":0.2283654036458529},{"name":"E4","midi":64,"time":289.8461780000003,"velocity":0.8031496062992126,"duration":0.2283654036458529},{"name":"C#4","midi":61,"time":289.8461780000003,"velocity":0.8031496062992126,"duration":0.45913465364589},{"name":"A3","midi":57,"time":289.8461780000003,"velocity":0.8031496062992126,"duration":0.45913465364589},{"name":"F4","midi":65,"time":290.07694725000033,"velocity":0.8031496062992126,"duration":0.2283654036458529},{"name":"D4","midi":62,"time":290.30771650000037,"velocity":0.8031496062992126,"duration":1.153846250000015},{"name":"D3","midi":50,"time":290.30771650000037,"velocity":0.8031496062992126,"duration":0.45913465364583317},{"name":"A2","midi":45,"time":290.7692550000004,"velocity":0.8031496062992126,"duration":0.45913465364583317},{"name":"D2","midi":38,"time":291.2307935000004,"velocity":0.8031496062992126,"duration":0.45913465364583317},{"name":"D3","midi":50,"time":291.7500243125004,"velocity":0.8031496062992126,"duration":0.45913465364589},{"name":"A4","midi":69,"time":291.7500243125004,"velocity":0.8031496062992126,"duration":0.2283654036458529},{"name":"G4","midi":67,"time":291.9807935625004,"velocity":0.8031496062992126,"duration":0.2283654036458529},{"name":"E3","midi":52,"time":292.21156281250046,"velocity":0.8031496062992126,"duration":0.11298077864580591},{"name":"F4","midi":65,"time":292.21156281250046,"velocity":0.8031496062992126,"duration":0.22836540364579605},{"name":"D3","midi":50,"time":292.32694743750045,"velocity":0.8031496062992126,"duration":0.11298077864580591},{"name":"E3","midi":52,"time":292.44233206250044,"velocity":0.8031496062992126,"duration":0.11298077864580591},{"name":"G4","midi":67,"time":292.44233206250044,"velocity":0.8031496062992126,"duration":0.22836540364579605},{"name":"D3","midi":50,"time":292.55771668750043,"velocity":0.8031496062992126,"duration":0.11298077864580591},{"name":"E3","midi":52,"time":292.6731013125004,"velocity":0.8031496062992126,"duration":0.11298077864580591},{"name":"A4","midi":69,"time":292.6731013125004,"velocity":0.8031496062992126,"duration":0.22836540364579605},{"name":"D3","midi":50,"time":292.7884859375004,"velocity":0.8031496062992126,"duration":0.11298077864580591},{"name":"C3","midi":48,"time":292.9038705625004,"velocity":0.8031496062992126,"duration":0.11298077864580591},{"name":"A#4","midi":70,"time":292.9038705625004,"velocity":0.8031496062992126,"duration":0.22836540364579605},{"name":"D3","midi":50,"time":293.0192551875004,"velocity":0.8031496062992126,"duration":0.11298077864580591},{"name":"E3","midi":52,"time":293.1346398125004,"velocity":0.8031496062992126,"duration":1.3822116536458111},{"name":"G3","midi":55,"time":293.1346398125004,"velocity":0.8031496062992126,"duration":0.45913465364589},{"name":"C5","midi":72,"time":293.1346398125004,"velocity":0.8031496062992126,"duration":0.2283654036458529},{"name":"G4","midi":67,"time":293.3654090625004,"velocity":0.8031496062992126,"duration":0.2283654036458529},{"name":"A3","midi":57,"time":293.59617831250046,"velocity":0.8031496062992126,"duration":0.11298077864580591},{"name":"A4","midi":69,"time":293.59617831250046,"velocity":0.8031496062992126,"duration":0.22836540364579605},{"name":"G3","midi":55,"time":293.71156293750045,"velocity":0.8031496062992126,"duration":0.11298077864580591},{"name":"A3","midi":57,"time":293.82694756250044,"velocity":0.8031496062992126,"duration":0.11298077864580591},{"name":"A#4","midi":70,"time":293.82694756250044,"velocity":0.8031496062992126,"duration":0.22836540364579605},{"name":"G3","midi":55,"time":293.9423321875004,"velocity":0.8031496062992126,"duration":0.11298077864580591},{"name":"A3","midi":57,"time":294.0577168125004,"velocity":0.8031496062992126,"duration":0.11298077864580591},{"name":"C5","midi":72,"time":294.0577168125004,"velocity":0.8031496062992126,"duration":0.22836540364579605},{"name":"G3","midi":55,"time":294.1731014375004,"velocity":0.8031496062992126,"duration":0.11298077864580591},{"name":"F#3","midi":54,"time":294.2884860625004,"velocity":0.8031496062992126,"duration":0.11298077864580591},{"name":"A#4","midi":70,"time":294.2884860625004,"velocity":0.8031496062992126,"duration":0.22836540364579605},{"name":"G3","midi":55,"time":294.4038706875004,"velocity":0.8031496062992126,"duration":0.11298077864580591},{"name":"F#3","midi":54,"time":294.5192553125004,"velocity":0.8031496062992126,"duration":0.45913465364589},{"name":"A3","midi":57,"time":294.5192553125004,"velocity":0.8031496062992126,"duration":1.3822116536458111},{"name":"C5","midi":72,"time":294.5192553125004,"velocity":0.8031496062992126,"duration":0.2283654036458529},{"name":"D#5","midi":75,"time":294.7500245625004,"velocity":0.8031496062992126,"duration":0.2283654036458529},{"name":"G3","midi":55,"time":294.98079381250045,"velocity":0.8031496062992126,"duration":0.11298077864580591},{"name":"D5","midi":74,"time":294.98079381250045,"velocity":0.8031496062992126,"duration":0.22836540364579605},{"name":"F#3","midi":54,"time":295.09617843750044,"velocity":0.8031496062992126,"duration":0.11298077864580591},{"name":"G3","midi":55,"time":295.21156306250043,"velocity":0.8031496062992126,"duration":0.11298077864580591},{"name":"C5","midi":72,"time":295.21156306250043,"velocity":0.8031496062992126,"duration":0.22836540364579605},{"name":"F#3","midi":54,"time":295.3269476875004,"velocity":0.8031496062992126,"duration":0.11298077864580591},{"name":"G3","midi":55,"time":295.4423323125004,"velocity":0.8031496062992126,"duration":0.11298077864580591},{"name":"A#4","midi":70,"time":295.4423323125004,"velocity":0.8031496062992126,"duration":0.22836540364579605},{"name":"F#3","midi":54,"time":295.5577169375004,"velocity":0.8031496062992126,"duration":0.11298077864580591},{"name":"E3","midi":52,"time":295.6731015625004,"velocity":0.8031496062992126,"duration":0.11298077864580591},{"name":"A4","midi":69,"time":295.6731015625004,"velocity":0.8031496062992126,"duration":0.22836540364579605},{"name":"F#3","midi":54,"time":295.7884861875004,"velocity":0.8031496062992126,"duration":0.11298077864580591},{"name":"G3","midi":55,"time":295.9038708125004,"velocity":0.8031496062992126,"duration":1.3822116536460385},{"name":"A#4","midi":70,"time":295.9038708125004,"velocity":0.8031496062992126,"duration":0.2283654036458529},{"name":"A4","midi":69,"time":296.1346400625004,"velocity":0.8031496062992126,"duration":0.2283654036458529},{"name":"D3","midi":50,"time":296.36540931250045,"velocity":0.8031496062992126,"duration":0.45913465364589},{"name":"C5","midi":72,"time":296.36540931250045,"velocity":0.8031496062992126,"duration":0.2283654036458529},{"name":"A#4","midi":70,"time":296.5961785625005,"velocity":0.8031496062992126,"duration":0.2283654036458529},{"name":"G2","midi":43,"time":296.8269478125005,"velocity":0.8031496062992126,"duration":0.43269234375003407},{"name":"A4","midi":69,"time":296.8269478125005,"velocity":0.8031496062992126,"duration":0.2283654036458529},{"name":"G4","midi":67,"time":297.05771706250056,"velocity":0.8031496062992126,"duration":0.1923077083333169},{"name":"G3","midi":55,"time":297.2884863125006,"velocity":0.8031496062992126,"duration":0.2283654036458529},{"name":"E4","midi":64,"time":297.2884863125006,"velocity":0.8031496062992126,"duration":0.45913465364589},{"name":"C#5","midi":73,"time":297.2884863125006,"velocity":0.8031496062992126,"duration":0.45913465364589},{"name":"F3","midi":53,"time":297.51925556250063,"velocity":0.8031496062992126,"duration":0.2283654036458529},{"name":"G3","midi":55,"time":297.75002481250067,"velocity":0.8031496062992126,"duration":0.22836540364579605},{"name":"E4","midi":64,"time":297.75002481250067,"velocity":0.8031496062992126,"duration":0.9206731536457369},{"name":"D5","midi":74,"time":297.75002481250067,"velocity":0.8031496062992126,"duration":0.11298077864580591},{"name":"C#5","midi":73,"time":297.86540943750066,"velocity":0.8031496062992126,"duration":0.11298077864580591},{"name":"A#3","midi":58,"time":297.98079406250065,"velocity":0.8031496062992126,"duration":0.22836540364579605},{"name":"D5","midi":74,"time":297.98079406250065,"velocity":0.8031496062992126,"duration":0.11298077864580591},{"name":"C#5","midi":73,"time":298.09617868750064,"velocity":0.8031496062992126,"duration":0.11298077864580591},{"name":"A3","midi":57,"time":298.21156331250063,"velocity":0.8031496062992126,"duration":0.22836540364579605},{"name":"D5","midi":74,"time":298.21156331250063,"velocity":0.8031496062992126,"duration":0.11298077864580591},{"name":"C#5","midi":73,"time":298.3269479375006,"velocity":0.8031496062992126,"duration":0.11298077864580591},{"name":"G3","midi":55,"time":298.4423325625006,"velocity":0.8031496062992126,"duration":0.22836540364579605},{"name":"B4","midi":71,"time":298.4423325625006,"velocity":0.8031496062992126,"duration":0.11298077864580591},{"name":"C#5","midi":73,"time":298.5577171875006,"velocity":0.8031496062992126,"duration":0.11298077864580591},{"name":"F3","midi":53,"time":298.6731018125006,"velocity":0.8031496062992126,"duration":0.2283654036458529},{"name":"A4","midi":69,"time":298.6731018125006,"velocity":0.8031496062992126,"duration":0.45913465364589},{"name":"D5","midi":74,"time":298.6731018125006,"velocity":0.8031496062992126,"duration":0.40865388020836235},{"name":"A3","midi":57,"time":298.9038710625006,"velocity":0.8031496062992126,"duration":0.2283654036458529},{"name":"G3","midi":55,"time":299.13464031250066,"velocity":0.8031496062992126,"duration":0.22836540364579605},{"name":"A4","midi":69,"time":299.13464031250066,"velocity":0.8031496062992126,"duration":1.3822116536458111},{"name":"E5","midi":76,"time":299.13464031250066,"velocity":0.8031496062992126,"duration":0.11298077864580591},{"name":"D5","midi":74,"time":299.25002493750065,"velocity":0.8031496062992126,"duration":0.11298077864580591},{"name":"F3","midi":53,"time":299.36540956250064,"velocity":0.8031496062992126,"duration":0.22836540364579605},{"name":"E5","midi":76,"time":299.36540956250064,"velocity":0.8031496062992126,"duration":0.11298077864580591},{"name":"D5","midi":74,"time":299.48079418750063,"velocity":0.8031496062992126,"duration":0.11298077864580591},{"name":"E3","midi":52,"time":299.5961788125006,"velocity":0.8031496062992126,"duration":0.22836540364579605},{"name":"E5","midi":76,"time":299.5961788125006,"velocity":0.8031496062992126,"duration":0.11298077864580591},{"name":"D5","midi":74,"time":299.7115634375006,"velocity":0.8031496062992126,"duration":0.11298077864580591},{"name":"D3","midi":50,"time":299.8269480625006,"velocity":0.8031496062992126,"duration":0.22836540364579605},{"name":"C#5","midi":73,"time":299.8269480625006,"velocity":0.8031496062992126,"duration":0.11298077864580591},{"name":"D5","midi":74,"time":299.9423326875006,"velocity":0.8031496062992126,"duration":0.11298077864580591},{"name":"C#3","midi":49,"time":300.0577173125006,"velocity":0.8031496062992126,"duration":0.45913465364589},{"name":"E5","midi":76,"time":300.0577173125006,"velocity":0.8031496062992126,"duration":0.2283654036458529},{"name":"F5","midi":77,"time":300.2884865625006,"velocity":0.8031496062992126,"duration":0.2283654036458529},{"name":"A2","midi":45,"time":300.51925581250066,"velocity":0.8031496062992126,"duration":0.45913465364589},{"name":"C#5","midi":73,"time":300.51925581250066,"velocity":0.8031496062992126,"duration":0.45913465364589},{"name":"G5","midi":79,"time":300.51925581250066,"velocity":0.8031496062992126,"duration":0.2283654036458529},{"name":"E5","midi":76,"time":300.7500250625007,"velocity":0.8031496062992126,"duration":0.2283654036458529},{"name":"D3","midi":50,"time":300.98079431250073,"velocity":0.8031496062992126,"duration":0.45913465364583317},{"name":"D5","midi":74,"time":300.98079431250073,"velocity":0.8031496062992126,"duration":0.2163461718749886},{"name":"F5","midi":77,"time":300.98079431250073,"velocity":0.8031496062992126,"duration":0.22836540364579605},{"name":"D5","midi":74,"time":301.2115635625007,"velocity":0.8031496062992126,"duration":0.2283654036458529},{"name":"A2","midi":45,"time":301.44233281250075,"velocity":0.8031496062992126,"duration":0.45913465364589},{"name":"C#5","midi":73,"time":301.44233281250075,"velocity":0.8031496062992126,"duration":0.4567308072917058},{"name":"F5","midi":77,"time":301.44233281250075,"velocity":0.8031496062992126,"duration":0.2283654036458529},{"name":"E5","midi":76,"time":301.6731020625008,"velocity":0.8031496062992126,"duration":0.2283654036458529},{"name":"B2","midi":47,"time":301.9038713125008,"velocity":0.8031496062992126,"duration":0.45913465364589},{"name":"D5","midi":74,"time":301.9038713125008,"velocity":0.8031496062992126,"duration":0.2283654036458529},{"name":"C#5","midi":73,"time":302.13464056250086,"velocity":0.8031496062992126,"duration":0.2283654036458529},{"name":"C#3","midi":49,"time":302.3654098125009,"velocity":0.8031496062992126,"duration":0.45913465364589},{"name":"B4","midi":71,"time":302.3654098125009,"velocity":0.8031496062992126,"duration":0.2283654036458529},{"name":"A4","midi":69,"time":302.59617906250094,"velocity":0.8031496062992126,"duration":0.23076925000003712},{"name":"D3","midi":50,"time":302.84617908333433,"velocity":0.8031496062992126,"duration":0.45913465364583317},{"name":"F4","midi":65,"time":302.84617908333433,"velocity":0.8031496062992126,"duration":0.45913465364583317},{"name":"A4","midi":69,"time":302.84617908333433,"velocity":0.8031496062992126,"duration":0.3605769531250189},{"name":"D4","midi":62,"time":303.30771758333435,"velocity":0.8031496062992126,"duration":0.4591346536457763},{"name":"F4","midi":65,"time":303.30771758333435,"velocity":0.8031496062992126,"duration":0.9206731536457369},{"name":"A#4","midi":70,"time":303.30771758333435,"velocity":0.8031496062992126,"duration":0.11298077864580591},{"name":"A4","midi":69,"time":303.42310220833434,"velocity":0.8031496062992126,"duration":0.11298077864580591},{"name":"A#4","midi":70,"time":303.53848683333433,"velocity":0.8031496062992126,"duration":0.11298077864580591},{"name":"A4","midi":69,"time":303.6538714583343,"velocity":0.8031496062992126,"duration":0.11298077864580591},{"name":"C4","midi":60,"time":303.7692560833343,"velocity":0.8031496062992126,"duration":0.4591346536457763},{"name":"A#4","midi":70,"time":303.7692560833343,"velocity":0.8031496062992126,"duration":0.11298077864580591},{"name":"A4","midi":69,"time":303.8846407083343,"velocity":0.8031496062992126,"duration":0.11298077864580591},{"name":"G4","midi":67,"time":304.0000253333343,"velocity":0.8031496062992126,"duration":0.11298077864580591},{"name":"A4","midi":69,"time":304.1154099583343,"velocity":0.8031496062992126,"duration":0.11298077864580591},{"name":"A#3","midi":58,"time":304.2307945833343,"velocity":0.8031496062992126,"duration":0.45913465364589},{"name":"G4","midi":67,"time":304.2307945833343,"velocity":0.8031496062992126,"duration":1.1514424036460014},{"name":"A#4","midi":70,"time":304.2307945833343,"velocity":0.8031496062992126,"duration":0.2283654036458529},{"name":"C5","midi":72,"time":304.4615638333343,"velocity":0.8031496062992126,"duration":0.2283654036458529},{"name":"A3","midi":57,"time":304.69233308333435,"velocity":0.8031496062992126,"duration":0.2283654036458529},{"name":"D5","midi":74,"time":304.69233308333435,"velocity":0.8031496062992126,"duration":0.2283654036458529},{"name":"G3","midi":55,"time":304.9231023333344,"velocity":0.8031496062992126,"duration":0.2283654036458529},{"name":"A#4","midi":70,"time":304.9231023333344,"velocity":0.8031496062992126,"duration":0.2283654036458529},{"name":"A3","midi":57,"time":305.1538715833344,"velocity":0.8031496062992126,"duration":0.2283654036458529},{"name":"C5","midi":72,"time":305.1538715833344,"velocity":0.8031496062992126,"duration":0.2283654036458529},{"name":"A#3","midi":58,"time":305.38464083333446,"velocity":0.8031496062992126,"duration":0.2283654036458529},{"name":"F4","midi":65,"time":305.38464083333446,"velocity":0.8031496062992126,"duration":0.2283654036458529},{"name":"A4","midi":69,"time":305.38464083333446,"velocity":0.8031496062992126,"duration":0.2283654036458529},{"name":"C4","midi":60,"time":305.6154100833345,"velocity":0.8031496062992126,"duration":0.45913465364583317},{"name":"E4","midi":64,"time":305.6154100833345,"velocity":0.8031496062992126,"duration":0.45913465364583317},{"name":"G4","midi":67,"time":305.6154100833345,"velocity":0.8031496062992126,"duration":0.3605769531250189},{"name":"C3","midi":48,"time":306.0769485833345,"velocity":0.8031496062992126,"duration":0.22836540364579605},{"name":"E4","midi":64,"time":306.0769485833345,"velocity":0.8031496062992126,"duration":0.9206731536459074},{"name":"A4","midi":69,"time":306.0769485833345,"velocity":0.8031496062992126,"duration":0.11298077864580591},{"name":"A#4","midi":70,"time":306.1923332083345,"velocity":0.8031496062992126,"duration":0.11298077864580591},{"name":"A#2","midi":46,"time":306.3077178333345,"velocity":0.8031496062992126,"duration":0.2283654036458529},{"name":"C5","midi":72,"time":306.3077178333345,"velocity":0.8031496062992126,"duration":0.45913465364589},{"name":"A2","midi":45,"time":306.53848708333453,"velocity":0.8031496062992126,"duration":0.2283654036458529},{"name":"G2","midi":43,"time":306.76925633333457,"velocity":0.8031496062992126,"duration":0.2283654036458529},{"name":"A#4","midi":70,"time":306.76925633333457,"velocity":0.8031496062992126,"duration":0.2283654036458529},{"name":"F2","midi":41,"time":307.0000255833346,"velocity":0.8031496062992126,"duration":0.45913465364589},{"name":"F4","midi":65,"time":307.0000255833346,"velocity":0.8031496062992126,"duration":0.9134616145834684},{"name":"A4","midi":69,"time":307.0000255833346,"velocity":0.8031496062992126,"duration":0.2283654036458529},{"name":"G4","midi":67,"time":307.23079483333464,"velocity":0.8031496062992126,"duration":0.2283654036458529},{"name":"G2","midi":43,"time":307.4615640833347,"velocity":0.8031496062992126,"duration":0.45913465364589},{"name":"A#4","midi":70,"time":307.4615640833347,"velocity":0.8031496062992126,"duration":0.2283654036458529},{"name":"A4","midi":69,"time":307.6923333333347,"velocity":0.8031496062992126,"duration":0.2283654036458529},{"name":"A2","midi":45,"time":307.92310258333475,"velocity":0.8031496062992126,"duration":0.45913465364589},{"name":"G4","midi":67,"time":307.92310258333475,"velocity":0.8031496062992126,"duration":0.2283654036458529},{"name":"F4","midi":65,"time":308.1538718333348,"velocity":0.8031496062992126,"duration":0.2283654036458529},{"name":"A#2","midi":46,"time":308.3846410833348,"velocity":0.8031496062992126,"duration":0.2283654036458529},{"name":"F4","midi":65,"time":308.3846410833348,"velocity":0.8031496062992126,"duration":0.3365384895833472},{"name":"D5","midi":74,"time":308.3846410833348,"velocity":0.8031496062992126,"duration":2.8846156250001513},{"name":"F3","midi":53,"time":308.61541033333486,"velocity":0.8031496062992126,"duration":0.22836540364579605},{"name":"A#3","midi":58,"time":308.84617958333484,"velocity":0.8031496062992126,"duration":0.22836540364579605},{"name":"G4","midi":67,"time":308.84617958333484,"velocity":0.8031496062992126,"duration":0.11298077864580591},{"name":"F4","midi":65,"time":308.96156420833483,"velocity":0.8031496062992126,"duration":0.11298077864580591},{"name":"A3","midi":57,"time":309.0769488333348,"velocity":0.8031496062992126,"duration":0.22836540364579605},{"name":"G4","midi":67,"time":309.0769488333348,"velocity":0.8031496062992126,"duration":0.11298077864580591},{"name":"F4","midi":65,"time":309.1923334583348,"velocity":0.8031496062992126,"duration":0.11298077864580591},{"name":"G3","midi":55,"time":309.3077180833348,"velocity":0.8031496062992126,"duration":0.22836540364579605},{"name":"G4","midi":67,"time":309.3077180833348,"velocity":0.8031496062992126,"duration":0.11298077864580591},{"name":"F4","midi":65,"time":309.4231027083348,"velocity":0.8031496062992126,"duration":0.11298077864580591},{"name":"F3","midi":53,"time":309.5384873333348,"velocity":0.8031496062992126,"duration":0.22836540364579605},{"name":"E4","midi":64,"time":309.5384873333348,"velocity":0.8031496062992126,"duration":0.11298077864580591},{"name":"F4","midi":65,"time":309.6538719583348,"velocity":0.8031496062992126,"duration":0.11298077864580591},{"name":"E3","midi":52,"time":309.76925658333477,"velocity":0.8031496062992126,"duration":0.2283654036458529},{"name":"G4","midi":67,"time":309.76925658333477,"velocity":0.8031496062992126,"duration":0.2283654036458529},{"name":"C#3","midi":49,"time":310.0000258333348,"velocity":0.8031496062992126,"duration":0.2283654036458529},{"name":"A4","midi":69,"time":310.0000258333348,"velocity":0.8031496062992126,"duration":0.2283654036458529},{"name":"D3","midi":50,"time":310.23079508333484,"velocity":0.8031496062992126,"duration":0.2283654036458529},{"name":"A#4","midi":70,"time":310.23079508333484,"velocity":0.8031496062992126,"duration":0.2283654036458529},{"name":"E3","midi":52,"time":310.4615643333349,"velocity":0.8031496062992126,"duration":0.2283654036458529},{"name":"G4","midi":67,"time":310.4615643333349,"velocity":0.8031496062992126,"duration":0.2283654036458529},{"name":"F3","midi":53,"time":310.6923335833349,"velocity":0.8031496062992126,"duration":0.2283654036458529},{"name":"A4","midi":69,"time":310.6923335833349,"velocity":0.8031496062992126,"duration":0.2283654036458529},{"name":"G3","midi":55,"time":310.92310283333495,"velocity":0.8031496062992126,"duration":0.2283654036458529},{"name":"F4","midi":65,"time":310.92310283333495,"velocity":0.8031496062992126,"duration":0.2283654036458529},{"name":"A3","midi":57,"time":311.153872083335,"velocity":0.8031496062992126,"duration":0.45913465364583317},{"name":"E4","midi":64,"time":311.153872083335,"velocity":0.8031496062992126,"duration":1.3822116536459816},{"name":"D5","midi":74,"time":311.38464133333497,"velocity":0.8031496062992126,"duration":0.2283654036458529},{"name":"A2","midi":45,"time":311.615410583335,"velocity":0.8031496062992126,"duration":0.45913465364589},{"name":"C#5","midi":73,"time":311.615410583335,"velocity":0.8031496062992126,"duration":0.2283654036458529},{"name":"B4","midi":71,"time":311.84617983333504,"velocity":0.8031496062992126,"duration":0.2283654036458529},{"name":"A3","midi":57,"time":312.0769490833351,"velocity":0.8031496062992126,"duration":0.45913465364589},{"name":"A4","midi":69,"time":312.0769490833351,"velocity":0.8031496062992126,"duration":0.2283654036458529},{"name":"G4","midi":67,"time":312.3077183333351,"velocity":0.8031496062992126,"duration":0.2283654036458529},{"name":"D3","midi":50,"time":312.53848758333515,"velocity":0.8031496062992126,"duration":0.45913465364589},{"name":"D4","midi":62,"time":312.53848758333515,"velocity":0.8031496062992126,"duration":0.9134616145834684},{"name":"F4","midi":65,"time":312.53848758333515,"velocity":0.8031496062992126,"duration":0.2283654036458529},{"name":"E4","midi":64,"time":312.7692568333352,"velocity":0.8031496062992126,"duration":0.2283654036458529},{"name":"F2","midi":41,"time":313.00002608333523,"velocity":0.8031496062992126,"duration":0.45913465364589},{"name":"G4","midi":67,"time":313.00002608333523,"velocity":0.8031496062992126,"duration":0.2283654036458529},{"name":"F4","midi":65,"time":313.23079533333527,"velocity":0.8031496062992126,"duration":0.2283654036458529},{"name":"A2","midi":45,"time":313.4615645833353,"velocity":0.8031496062992126,"duration":0.45913465364589},{"name":"E4","midi":64,"time":313.4615645833353,"velocity":0.8031496062992126,"duration":0.2283654036458529},{"name":"D4","midi":62,"time":313.69233383333534,"velocity":0.8031496062992126,"duration":0.20432694010418118},{"name":"D2","midi":38,"time":313.98079539583534,"velocity":0.8031496062992126,"duration":0.2331730963541645},{"name":"F4","midi":65,"time":313.98079539583534,"velocity":0.8031496062992126,"duration":0.47115388541669745},{"name":"A4","midi":69,"time":313.98079539583534,"velocity":0.8031496062992126,"duration":0.370192338541699},{"name":"A2","midi":45,"time":314.2163723385437,"velocity":0.8031496062992126,"duration":0.2331730963541645},{"name":"D3","midi":50,"time":314.4543531276062,"velocity":0.8031496062992126,"duration":0.23317309635410766},{"name":"F4","midi":65,"time":314.4543531276062,"velocity":0.8031496062992126,"duration":2.8485579296872174},{"name":"A#4","midi":70,"time":314.4543531276062,"velocity":0.8031496062992126,"duration":0.11538462499999014},{"name":"A4","midi":69,"time":314.5745454453145,"velocity":0.8031496062992126,"duration":0.11538462499999014},{"name":"C3","midi":48,"time":314.6923339166687,"velocity":0.8031496062992126,"duration":0.23317309635410766},{"name":"A#4","midi":70,"time":314.6923339166687,"velocity":0.8031496062992126,"duration":0.11538462499999014},{"name":"A4","midi":69,"time":314.812526234377,"velocity":0.8031496062992126,"duration":0.11538462499999014},{"name":"A#2","midi":46,"time":314.9303147057312,"velocity":0.8031496062992126,"duration":0.2331730963541645},{"name":"A#4","midi":70,"time":314.9303147057312,"velocity":0.8031496062992126,"duration":0.11538462499999014},{"name":"A4","midi":69,"time":315.04810317708535,"velocity":0.8031496062992126,"duration":0.11538462499999014},{"name":"A2","midi":45,"time":315.16829549479365,"velocity":0.8031496062992126,"duration":0.2331730963541645},{"name":"G4","midi":67,"time":315.16829549479365,"velocity":0.8031496062992126,"duration":0.11538462499999014},{"name":"A4","midi":69,"time":315.2860839661478,"velocity":0.8031496062992126,"duration":0.11538462499999014},{"name":"G2","midi":43,"time":315.40627628385613,"velocity":0.8031496062992126,"duration":0.2331730963541645},{"name":"A#4","midi":70,"time":315.40627628385613,"velocity":0.8031496062992126,"duration":0.2331730963541645},{"name":"A2","midi":45,"time":315.6442570729186,"velocity":0.8031496062992126,"duration":0.2331730963541645},{"name":"C5","midi":72,"time":315.6442570729186,"velocity":0.8031496062992126,"duration":0.2331730963541645},{"name":"A#2","midi":46,"time":315.8822378619811,"velocity":0.8031496062992126,"duration":0.2331730963541645},{"name":"D5","midi":74,"time":315.8822378619811,"velocity":0.8031496062992126,"duration":0.2331730963541645},{"name":"G2","midi":43,"time":316.11781480468943,"velocity":0.8031496062992126,"duration":0.2331730963541645},{"name":"A#4","midi":70,"time":316.11781480468943,"velocity":0.8031496062992126,"duration":0.2331730963541645},{"name":"A2","midi":45,"time":316.3557955937519,"velocity":0.8031496062992126,"duration":0.2331730963541645},{"name":"C5","midi":72,"time":316.3557955937519,"velocity":0.8031496062992126,"duration":0.2331730963541645},{"name":"A#2","midi":46,"time":316.5937763828144,"velocity":0.8031496062992126,"duration":0.2331730963541645},{"name":"A4","midi":69,"time":316.5937763828144,"velocity":0.8031496062992126,"duration":0.2331730963541645},{"name":"G4","midi":67,"time":316.83175717187686,"velocity":0.8031496062992126,"duration":0.37980772395826534},{"name":"C3","midi":48,"time":316.83175717187686,"velocity":0.8031496062992126,"duration":0.2379807890624761},{"name":"G3","midi":55,"time":317.07454565364765,"velocity":0.8031496062992126,"duration":0.2379807890624761},{"name":"A4","midi":69,"time":317.3197379817726,"velocity":0.8031496062992126,"duration":0.11778847135417436},{"name":"E4","midi":64,"time":317.3197379817726,"velocity":0.8031496062992126,"duration":2.9326925520831537},{"name":"C4","midi":60,"time":317.3197379817726,"velocity":0.8031496062992126,"duration":0.2379807890624761},{"name":"G4","midi":67,"time":317.4423341458351,"velocity":0.8031496062992126,"duration":0.11778847135417436},{"name":"A4","midi":69,"time":317.5649303098976,"velocity":0.8031496062992126,"duration":0.11778847135417436},{"name":"A#3","midi":58,"time":317.5649303098976,"velocity":0.8031496062992126,"duration":0.2379807890624761},{"name":"G4","midi":67,"time":317.6875264739601,"velocity":0.8031496062992126,"duration":0.11778847135417436},{"name":"A4","midi":69,"time":317.81012263802256,"velocity":0.8031496062992126,"duration":0.11778847135417436},{"name":"A3","midi":57,"time":317.81012263802256,"velocity":0.8031496062992126,"duration":0.23798078906253295},{"name":"G4","midi":67,"time":317.9303149557309,"velocity":0.8031496062992126,"duration":0.11778847135417436},{"name":"F4","midi":65,"time":318.0553149661476,"velocity":0.8031496062992126,"duration":0.11778847135417436},{"name":"G3","midi":55,"time":318.0553149661476,"velocity":0.8031496062992126,"duration":0.23798078906253295},{"name":"G4","midi":67,"time":318.17550728385595,"velocity":0.8031496062992126,"duration":0.11778847135417436},{"name":"A4","midi":69,"time":318.3005072942726,"velocity":0.8031496062992126,"duration":0.2379807890624761},{"name":"F3","midi":53,"time":318.3005072942726,"velocity":0.8031496062992126,"duration":0.2379807890624761},{"name":"A#4","midi":70,"time":318.5456996223976,"velocity":0.8031496062992126,"duration":0.2379807890624761},{"name":"G3","midi":55,"time":318.5456996223976,"velocity":0.8031496062992126,"duration":0.2379807890624761},{"name":"C5","midi":72,"time":318.79089195052256,"velocity":0.8031496062992126,"duration":0.2379807890624761},{"name":"A3","midi":57,"time":318.79089195052256,"velocity":0.8031496062992126,"duration":0.2379807890624761},{"name":"A4","midi":69,"time":319.03368043229335,"velocity":0.8031496062992126,"duration":0.2379807890624761},{"name":"F3","midi":53,"time":319.03368043229335,"velocity":0.8031496062992126,"duration":0.2379807890624761},{"name":"A#4","midi":70,"time":319.2788727604183,"velocity":0.8031496062992126,"duration":0.2379807890624761},{"name":"G3","midi":55,"time":319.2788727604183,"velocity":0.8031496062992126,"duration":0.2379807890624761},{"name":"G4","midi":67,"time":319.5240650885433,"velocity":0.8031496062992126,"duration":0.2379807890624761},{"name":"A3","midi":57,"time":319.5240650885433,"velocity":0.8031496062992126,"duration":0.2379807890624761},{"name":"A#3","midi":58,"time":319.76925741666827,"velocity":0.8031496062992126,"duration":0.24278848177084456},{"name":"F4","midi":65,"time":319.76925741666827,"velocity":0.8031496062992126,"duration":0.38942310937500224},{"name":"C4","midi":60,"time":320.0192574375016,"velocity":0.8031496062992126,"duration":0.24278848177084456},{"name":"A#3","midi":58,"time":320.27166130468913,"velocity":0.8031496062992126,"duration":0.24278848177084456},{"name":"D4","midi":62,"time":320.27166130468913,"velocity":0.8031496062992126,"duration":1.5072116640627655},{"name":"G4","midi":67,"time":320.27166130468913,"velocity":0.8031496062992126,"duration":0.12019231770835859},{"name":"F4","midi":65,"time":320.3966613151058,"velocity":0.8031496062992126,"duration":0.12019231770835859},{"name":"A3","midi":57,"time":320.52406517187666,"velocity":0.8031496062992126,"duration":0.24278848177084456},{"name":"G4","midi":67,"time":320.52406517187666,"velocity":0.8031496062992126,"duration":0.12019231770835859},{"name":"F4","midi":65,"time":320.6490651822933,"velocity":0.8031496062992126,"duration":0.12019231770835859},{"name":"G3","midi":55,"time":320.7764690390642,"velocity":0.8031496062992126,"duration":0.2427884817709014},{"name":"G4","midi":67,"time":320.7764690390642,"velocity":0.8031496062992126,"duration":0.12019231770835859},{"name":"F4","midi":65,"time":320.8990652031267,"velocity":0.8031496062992126,"duration":0.12019231770835859},{"name":"F3","midi":53,"time":321.02887290625176,"velocity":0.8031496062992126,"duration":0.2427884817709014},{"name":"E4","midi":64,"time":321.02887290625176,"velocity":0.8031496062992126,"duration":0.12019231770835859},{"name":"F4","midi":65,"time":321.1514690703143,"velocity":0.8031496062992126,"duration":0.12019231770835859},{"name":"E3","midi":52,"time":321.28127677343934,"velocity":0.8031496062992126,"duration":0.24278848177084456},{"name":"G4","midi":67,"time":321.28127677343934,"velocity":0.8031496062992126,"duration":0.24278848177084456},{"name":"F3","midi":53,"time":321.53368064062687,"velocity":0.8031496062992126,"duration":0.24278848177084456},{"name":"A4","midi":69,"time":321.53368064062687,"velocity":0.8031496062992126,"duration":0.24278848177084456},{"name":"G3","midi":55,"time":321.7860845078144,"velocity":0.8031496062992126,"duration":0.24278848177084456},{"name":"C#4","midi":61,"time":321.7860845078144,"velocity":0.8031496062992126,"duration":1.0024039296875458},{"name":"A#4","midi":70,"time":321.7860845078144,"velocity":0.8031496062992126,"duration":0.24278848177084456},{"name":"F3","midi":53,"time":322.03608452864773,"velocity":0.8031496062992126,"duration":0.24278848177084456},{"name":"A4","midi":69,"time":322.03608452864773,"velocity":0.8031496062992126,"duration":0.24278848177084456},{"name":"G3","midi":55,"time":322.28848839583526,"velocity":0.8031496062992126,"duration":0.24278848177084456},{"name":"A#4","midi":70,"time":322.28848839583526,"velocity":0.8031496062992126,"duration":0.24278848177084456},{"name":"E3","midi":52,"time":322.5408922630228,"velocity":0.8031496062992126,"duration":0.24278848177084456},{"name":"G4","midi":67,"time":322.5408922630228,"velocity":0.8031496062992126,"duration":0.24278848177084456},{"name":"A4","midi":69,"time":322.79329613021025,"velocity":0.8031496062992126,"duration":0.5120192734374882},{"name":"D4","midi":62,"time":322.79329613021025,"velocity":0.8031496062992126,"duration":1.031250085937529},{"name":"F3","midi":53,"time":322.79329613021025,"velocity":0.8031496062992126,"duration":0.5120192734374882},{"name":"G4","midi":67,"time":323.31252694271024,"velocity":0.8031496062992126,"duration":0.2500000208333404},{"name":"G3","midi":55,"time":323.31252694271024,"velocity":0.8031496062992126,"duration":0.512019273437545},{"name":"F4","midi":65,"time":323.57214234896026,"velocity":0.8031496062992126,"duration":0.2500000208333404},{"name":"A3","midi":57,"time":323.84377698698114,"velocity":0.8031496062992126,"duration":0.5552885078124632},{"name":"C#4","midi":61,"time":323.84377698698114,"velocity":0.8031496062992126,"duration":0.5552885078124632},{"name":"E4","midi":64,"time":323.84377698698114,"velocity":0.8031496062992126,"duration":0.2716346380208279},{"name":"F4","midi":65,"time":324.1274308567728,"velocity":0.8031496062992126,"duration":0.2716346380208279},{"name":"D4","midi":62,"time":324.4086808802103,"velocity":0.8031496062992126,"duration":2.3269232708333902},{"name":"D3","midi":50,"time":324.4086808802103,"velocity":0.8031496062992126,"duration":0.5697115859375117},{"name":"A2","midi":45,"time":324.99521939062697,"velocity":0.8031496062992126,"duration":0.6009615885416792},{"name":"D2","midi":38,"time":325.615411750002,"velocity":0.8031496062992126,"duration":1.451923197916642},{"name":"A4","midi":69,"time":330.461566000002,"velocity":0.8031496062992126,"duration":0.2163461718749886},{"name":"D5","midi":74,"time":330.692335250002,"velocity":0.8031496062992126,"duration":0.6899039036458134},{"name":"A4","midi":69,"time":331.384643000002,"velocity":0.8031496062992126,"duration":0.2163461718749886},{"name":"A#4","midi":70,"time":331.61541225000195,"velocity":0.8031496062992126,"duration":0.5745192786458233},{"name":"A4","midi":69,"time":332.19233537500196,"velocity":0.8031496062992126,"duration":0.11298077864580591},{"name":"G4","midi":67,"time":332.30772000000195,"velocity":0.8031496062992126,"duration":0.11298077864580591},{"name":"F4","midi":65,"time":332.42310462500194,"velocity":0.8031496062992126,"duration":0.11298077864580591},{"name":"E4","midi":64,"time":332.53848925000193,"velocity":0.8031496062992126,"duration":0.6899039036458134},{"name":"G4","midi":67,"time":333.2307970000019,"velocity":0.8031496062992126,"duration":0.2163461718749886},{"name":"F4","midi":65,"time":333.4615662500019,"velocity":0.8031496062992126,"duration":0.6899039036458134},{"name":"D5","midi":74,"time":334.1538740000019,"velocity":0.8031496062992126,"duration":0.22836540364579605},{"name":"E4","midi":64,"time":334.1538740000019,"velocity":0.8031496062992126,"duration":0.11298077864580591},{"name":"D4","midi":62,"time":334.2692586250019,"velocity":0.8031496062992126,"duration":0.11298077864580591},{"name":"A5","midi":81,"time":334.3846432500019,"velocity":0.8031496062992126,"duration":0.6899039036457566},{"name":"D4","midi":62,"time":334.3846432500019,"velocity":0.8031496062992126,"duration":0.11298077864580591},{"name":"C#4","midi":61,"time":334.5000278750019,"velocity":0.8031496062992126,"duration":0.11298077864580591},{"name":"D4","midi":62,"time":334.61541250000187,"velocity":0.8031496062992126,"duration":0.11298077864580591},{"name":"C#4","midi":61,"time":334.73079712500186,"velocity":0.8031496062992126,"duration":0.11298077864580591},{"name":"D4","midi":62,"time":334.84618175000185,"velocity":0.8031496062992126,"duration":0.11298077864580591},{"name":"C#4","midi":61,"time":334.96156637500184,"velocity":0.8031496062992126,"duration":0.11298077864580591},{"name":"E5","midi":76,"time":335.0769510000018,"velocity":0.8031496062992126,"duration":0.22836540364579605},{"name":"D4","midi":62,"time":335.0769510000018,"velocity":0.8031496062992126,"duration":0.11298077864580591},{"name":"C#4","midi":61,"time":335.1923356250018,"velocity":0.8031496062992126,"duration":0.11298077864580591},{"name":"F5","midi":77,"time":335.3077202500018,"velocity":0.8031496062992126,"duration":0.5745192786458233},{"name":"D4","midi":62,"time":335.3077202500018,"velocity":0.8031496062992126,"duration":0.9206731536457937},{"name":"E5","midi":76,"time":335.8846433750018,"velocity":0.8031496062992126,"duration":0.11298077864580591},{"name":"D5","midi":74,"time":336.0000280000018,"velocity":0.8031496062992126,"duration":0.11298077864580591},{"name":"C5","midi":72,"time":336.1154126250018,"velocity":0.8031496062992126,"duration":0.11298077864580591},{"name":"B4","midi":71,"time":336.2307972500018,"velocity":0.8031496062992126,"duration":0.6899039036458134},{"name":"G4","midi":67,"time":336.2307972500018,"velocity":0.8031496062992126,"duration":1.6129809036458482},{"name":"D5","midi":74,"time":336.9231050000018,"velocity":0.8031496062992126,"duration":0.2283654036458529},{"name":"C#5","midi":73,"time":337.1538742500018,"velocity":0.8031496062992126,"duration":0.6899039036458134},{"name":"D5","midi":74,"time":337.8461820000018,"velocity":0.8031496062992126,"duration":0.11298077864580591},{"name":"C#4","midi":61,"time":337.8461820000018,"velocity":0.8031496062992126,"duration":0.22836540364579605},{"name":"A3","midi":57,"time":337.8461820000018,"velocity":0.8031496062992126,"duration":0.22836540364579605},{"name":"E5","midi":76,"time":337.9615666250018,"velocity":0.8031496062992126,"duration":0.11298077864580591},{"name":"F5","midi":77,"time":338.0769512500018,"velocity":0.8031496062992126,"duration":0.6899039036458134},{"name":"D4","midi":62,"time":338.0769512500018,"velocity":0.8031496062992126,"duration":0.6899039036458134},{"name":"G5","midi":79,"time":338.7692590000018,"velocity":0.8031496062992126,"duration":0.2283654036458529},{"name":"C#5","midi":73,"time":338.7692590000018,"velocity":0.8031496062992126,"duration":0.2283654036458529},{"name":"A3","midi":57,"time":338.7692590000018,"velocity":0.8031496062992126,"duration":0.2283654036458529},{"name":"E5","midi":76,"time":339.00002825000183,"velocity":0.8031496062992126,"duration":1.6826924479166223},{"name":"D5","midi":74,"time":339.00002825000183,"velocity":0.8031496062992126,"duration":0.9206731536457937},{"name":"A#3","midi":58,"time":339.00002825000183,"velocity":0.8031496062992126,"duration":0.5745192786458233},{"name":"A3","midi":57,"time":339.57695137500184,"velocity":0.8031496062992126,"duration":0.11298077864580591},{"name":"G3","midi":55,"time":339.69233600000183,"velocity":0.8031496062992126,"duration":0.11298077864580591},{"name":"F3","midi":53,"time":339.8077206250018,"velocity":0.8031496062992126,"duration":0.11298077864580591},{"name":"C#5","midi":73,"time":339.9231052500018,"velocity":0.8031496062992126,"duration":0.6899039036458134},{"name":"E3","midi":52,"time":339.9231052500018,"velocity":0.8031496062992126,"duration":0.6899039036458134},{"name":"D5","midi":74,"time":340.6154130000018,"velocity":0.8031496062992126,"duration":0.11298077864580591},{"name":"G3","midi":55,"time":340.6154130000018,"velocity":0.8031496062992126,"duration":0.22836540364579605},{"name":"E5","midi":76,"time":340.7307976250018,"velocity":0.8031496062992126,"duration":0.11298077864580591},{"name":"A4","midi":69,"time":340.8461822500018,"velocity":0.8031496062992126,"duration":0.6730769791666944},{"name":"F3","midi":53,"time":340.8461822500018,"velocity":0.8031496062992126,"duration":1.382211653645868},{"name":"A4","midi":69,"time":341.53849000000184,"velocity":0.8031496062992126,"duration":0.9134616145832979},{"name":"D5","midi":74,"time":341.7692592500018,"velocity":0.8031496062992126,"duration":0.6899039036458134},{"name":"A4","midi":69,"time":342.4615670000018,"velocity":0.8031496062992126,"duration":0.2283654036458529},{"name":"D4","midi":62,"time":342.4615670000018,"velocity":0.8031496062992126,"duration":0.2283654036458529},{"name":"F#3","midi":54,"time":342.4615670000018,"velocity":0.8031496062992126,"duration":0.2283654036458529},{"name":"A#4","midi":70,"time":342.69233625000186,"velocity":0.8031496062992126,"duration":0.5745192786458233},{"name":"D4","midi":62,"time":342.69233625000186,"velocity":0.8031496062992126,"duration":0.9206731536457937},{"name":"G3","midi":55,"time":342.69233625000186,"velocity":0.8031496062992126,"duration":0.6899039036458134},{"name":"A4","midi":69,"time":343.26925937500187,"velocity":0.8031496062992126,"duration":0.11298077864580591},{"name":"G4","midi":67,"time":343.38464400000186,"velocity":0.8031496062992126,"duration":0.11298077864580591},{"name":"E3","midi":52,"time":343.38464400000186,"velocity":0.8031496062992126,"duration":0.22836540364579605},{"name":"F4","midi":65,"time":343.50002862500185,"velocity":0.8031496062992126,"duration":0.11298077864580591},{"name":"E4","midi":64,"time":343.61541325000184,"velocity":0.8031496062992126,"duration":0.6899039036458134},{"name":"C#4","midi":61,"time":343.61541325000184,"velocity":0.8031496062992126,"duration":0.9206731536458506},{"name":"A3","midi":57,"time":343.61541325000184,"velocity":0.8031496062992126,"duration":0.6899039036458134},{"name":"G4","midi":67,"time":344.30772100000183,"velocity":0.8031496062992126,"duration":0.2283654036458529},{"name":"A2","midi":45,"time":344.30772100000183,"velocity":0.8031496062992126,"duration":0.2283654036458529},{"name":"F4","midi":65,"time":344.53849025000187,"velocity":0.8031496062992126,"duration":0.6899039036458134},{"name":"D4","midi":62,"time":344.53849025000187,"velocity":0.8031496062992126,"duration":0.6899039036458134},{"name":"D3","midi":50,"time":344.53849025000187,"velocity":0.8031496062992126,"duration":0.6899039036458134},{"name":"E4","midi":64,"time":345.23079800000187,"velocity":0.8031496062992126,"duration":0.11298077864580591},{"name":"C3","midi":48,"time":345.23079800000187,"velocity":0.8031496062992126,"duration":0.22836540364579605},{"name":"D4","midi":62,"time":345.34618262500186,"velocity":0.8031496062992126,"duration":0.11298077864580591},{"name":"G4","midi":67,"time":345.46156725000185,"velocity":0.8031496062992126,"duration":0.6899039036458134},{"name":"A#4","midi":70,"time":345.46156725000185,"velocity":0.8031496062992126,"duration":1.6129809036457914},{"name":"A#2","midi":46,"time":345.46156725000185,"velocity":0.8031496062992126,"duration":0.6899039036458134},{"name":"D4","midi":62,"time":346.15387500000185,"velocity":0.8031496062992126,"duration":0.22836540364579605},{"name":"A2","midi":45,"time":346.15387500000185,"velocity":0.8031496062992126,"duration":0.11298077864580591},{"name":"G2","midi":43,"time":346.26925962500184,"velocity":0.8031496062992126,"duration":0.11298077864580591},{"name":"E4","midi":64,"time":346.3846442500018,"velocity":0.8031496062992126,"duration":0.9206731536457937},{"name":"C3","midi":48,"time":346.3846442500018,"velocity":0.8031496062992126,"duration":2.40384635416666},{"name":"A4","midi":69,"time":347.0769520000018,"velocity":0.8031496062992126,"duration":0.11298077864580591},{"name":"G4","midi":67,"time":347.1923366250018,"velocity":0.8031496062992126,"duration":0.11298077864580591},{"name":"A4","midi":69,"time":347.3077212500018,"velocity":0.8031496062992126,"duration":0.6899039036458134},{"name":"F4","midi":65,"time":347.3077212500018,"velocity":0.8031496062992126,"duration":1.6129809036458482},{"name":"A#4","midi":70,"time":348.0000290000018,"velocity":0.8031496062992126,"duration":0.2283654036458529},{"name":"G4","midi":67,"time":348.23079825000184,"velocity":0.8031496062992126,"duration":0.6899039036458134},{"name":"G4","midi":67,"time":348.92310600000184,"velocity":0.8031496062992126,"duration":0.22836540364579605},{"name":"E4","midi":64,"time":348.92310600000184,"velocity":0.8031496062992126,"duration":0.22836540364579605},{"name":"C3","midi":48,"time":348.92310600000184,"velocity":0.8031496062992126,"duration":0.11298077864580591},{"name":"A#2","midi":46,"time":349.0384906250018,"velocity":0.8031496062992126,"duration":0.11298077864580591},{"name":"C5","midi":72,"time":349.1538752500018,"velocity":0.8031496062992126,"duration":1.6129809036457914},{"name":"A4","midi":69,"time":349.1538752500018,"velocity":0.8031496062992126,"duration":0.6899039036458134},{"name":"A2","midi":45,"time":349.1538752500018,"velocity":0.8031496062992126,"duration":0.6899039036458134},{"name":"E4","midi":64,"time":349.8461830000018,"velocity":0.8031496062992126,"duration":0.22836540364579605},{"name":"A#2","midi":46,"time":349.8461830000018,"velocity":0.8031496062992126,"duration":0.11298077864580591},{"name":"C3","midi":48,"time":349.9615676250018,"velocity":0.8031496062992126,"duration":0.11298077864580591},{"name":"F#4","midi":66,"time":350.0769522500018,"velocity":0.8031496062992126,"duration":0.9206731536457937},{"name":"D2","midi":38,"time":350.0769522500018,"velocity":0.8031496062992126,"duration":2.40384635416666},{"name":"A#4","midi":70,"time":350.7692600000018,"velocity":0.8031496062992126,"duration":0.11298077864580591},{"name":"A4","midi":69,"time":350.8846446250018,"velocity":0.8031496062992126,"duration":0.11298077864580591},{"name":"A#4","midi":70,"time":351.0000292500018,"velocity":0.8031496062992126,"duration":0.6899039036458134},{"name":"G4","midi":67,"time":351.0000292500018,"velocity":0.8031496062992126,"duration":1.6129809036458482},{"name":"C5","midi":72,"time":351.69233700000177,"velocity":0.8031496062992126,"duration":0.2283654036458529},{"name":"A4","midi":69,"time":351.9231062500018,"velocity":0.8031496062992126,"duration":0.6899039036458134},{"name":"A4","midi":69,"time":352.6154140000018,"velocity":0.8031496062992126,"duration":0.22836540364579605},{"name":"F#4","midi":66,"time":352.6154140000018,"velocity":0.8031496062992126,"duration":0.22836540364579605},{"name":"D3","midi":50,"time":352.6154140000018,"velocity":0.8031496062992126,"duration":0.11298077864580591},{"name":"E3","midi":52,"time":352.7307986250018,"velocity":0.8031496062992126,"duration":0.11298077864580591},{"name":"D5","midi":74,"time":352.8461832500018,"velocity":0.8031496062992126,"duration":1.6129809036457914},{"name":"B4","midi":71,"time":352.8461832500018,"velocity":0.8031496062992126,"duration":0.6899039036458134},{"name":"F3","midi":53,"time":352.8461832500018,"velocity":0.8031496062992126,"duration":0.6899039036458134},{"name":"A4","midi":69,"time":353.5384910000018,"velocity":0.8031496062992126,"duration":0.22836540364579605},{"name":"E3","midi":52,"time":353.5384910000018,"velocity":0.8031496062992126,"duration":0.11298077864580591},{"name":"D3","midi":50,"time":353.6538756250018,"velocity":0.8031496062992126,"duration":0.11298077864580591},{"name":"G#4","midi":68,"time":353.76926025000176,"velocity":0.8031496062992126,"duration":0.9206731536457937},{"name":"E3","midi":52,"time":353.76926025000176,"velocity":0.8031496062992126,"duration":2.40384635416666},{"name":"C5","midi":72,"time":354.46156800000176,"velocity":0.8031496062992126,"duration":0.11298077864580591},{"name":"B4","midi":71,"time":354.57695262500175,"velocity":0.8031496062992126,"duration":0.11298077864580591},{"name":"C5","midi":72,"time":354.69233725000174,"velocity":0.8031496062992126,"duration":0.6899039036458134},{"name":"A4","midi":69,"time":354.69233725000174,"velocity":0.8031496062992126,"duration":1.6129809036458482},{"name":"D5","midi":74,"time":355.38464500000174,"velocity":0.8031496062992126,"duration":0.2283654036458529},{"name":"E5","midi":76,"time":355.6154142500018,"velocity":0.8031496062992126,"duration":2.536057903645826},{"name":"A4","midi":69,"time":356.3077220000018,"velocity":0.8031496062992126,"duration":0.2283654036458529},{"name":"B3","midi":59,"time":356.3077220000018,"velocity":0.8031496062992126,"duration":0.2283654036458529},{"name":"G#4","midi":68,"time":356.5384912500018,"velocity":0.8031496062992126,"duration":0.6899039036458134},{"name":"E4","midi":64,"time":356.5384912500018,"velocity":0.8031496062992126,"duration":0.6899039036458134},{"name":"A4","midi":69,"time":357.2307990000018,"velocity":0.8031496062992126,"duration":0.11298077864580591},{"name":"B3","midi":59,"time":357.2307990000018,"velocity":0.8031496062992126,"duration":0.22836540364579605},{"name":"B4","midi":71,"time":357.3461836250018,"velocity":0.8031496062992126,"duration":0.11298077864580591},{"name":"E4","midi":64,"time":357.4615682500018,"velocity":0.8031496062992126,"duration":0.45673080729164894},{"name":"C4","midi":60,"time":357.4615682500018,"velocity":0.8031496062992126,"duration":0.5745192786458233},{"name":"B3","midi":59,"time":358.0384913750018,"velocity":0.8031496062992126,"duration":0.11298077864580591},{"name":"A4","midi":69,"time":358.1538760000018,"velocity":0.8031496062992126,"duration":0.22836540364579605},{"name":"A3","midi":57,"time":358.1538760000018,"velocity":0.8031496062992126,"duration":0.11298077864580591},{"name":"G3","midi":55,"time":358.2692606250018,"velocity":0.8031496062992126,"duration":0.11298077864580591},{"name":"D5","midi":74,"time":358.38464525000177,"velocity":0.8031496062992126,"duration":0.6899039036458134},{"name":"F#3","midi":54,"time":358.38464525000177,"velocity":0.8031496062992126,"duration":0.6899039036458134},{"name":"D5","midi":74,"time":359.07695300000177,"velocity":0.8031496062992126,"duration":0.2283654036458529},{"name":"A3","midi":57,"time":359.07695300000177,"velocity":0.8031496062992126,"duration":0.2283654036458529},{"name":"D5","midi":74,"time":359.3077222500018,"velocity":0.8031496062992126,"duration":0.5745192786458233},{"name":"G#3","midi":56,"time":359.3077222500018,"velocity":0.8031496062992126,"duration":0.9206731536457937},{"name":"C5","midi":72,"time":359.8846453750018,"velocity":0.8031496062992126,"duration":0.11298077864580591},{"name":"B4","midi":71,"time":360.0000300000018,"velocity":0.8031496062992126,"duration":0.11298077864580591},{"name":"E4","midi":64,"time":360.0000300000018,"velocity":0.8031496062992126,"duration":0.22836540364579605},{"name":"C5","midi":72,"time":360.1154146250018,"velocity":0.8031496062992126,"duration":0.11298077864580591},{"name":"D5","midi":74,"time":360.2307992500018,"velocity":0.8031496062992126,"duration":0.11298077864580591},{"name":"A4","midi":69,"time":360.2307992500018,"velocity":0.8031496062992126,"duration":0.6899039036457566},{"name":"A3","midi":57,"time":360.2307992500018,"velocity":0.8031496062992126,"duration":1.802884765624981},{"name":"C5","midi":72,"time":360.34618387500177,"velocity":0.8031496062992126,"duration":0.11298077864580591},{"name":"D5","midi":74,"time":360.46156850000176,"velocity":0.8031496062992126,"duration":0.11298077864580591},{"name":"C5","midi":72,"time":360.57695312500175,"velocity":0.8031496062992126,"duration":0.11298077864580591},{"name":"D5","midi":74,"time":360.69233775000174,"velocity":0.8031496062992126,"duration":0.11298077864580591},{"name":"C5","midi":72,"time":360.80772237500173,"velocity":0.8031496062992126,"duration":0.11298077864580591},{"name":"B4","midi":71,"time":360.9231070000017,"velocity":0.8031496062992126,"duration":0.2283654036458529},{"name":"E4","midi":64,"time":360.9231070000017,"velocity":0.8031496062992126,"duration":0.2283654036458529},{"name":"B4","midi":71,"time":361.15387625000176,"velocity":0.8031496062992126,"duration":2.536057903645826},{"name":"F4","midi":65,"time":361.15387625000176,"velocity":0.8031496062992126,"duration":0.5745192786458233},{"name":"E4","midi":64,"time":361.73079937500177,"velocity":0.8031496062992126,"duration":0.11298077864580591},{"name":"D4","midi":62,"time":361.84618400000176,"velocity":0.8031496062992126,"duration":0.11298077864580591},{"name":"C4","midi":60,"time":361.96156862500175,"velocity":0.8031496062992126,"duration":0.11298077864586276},{"name":"B3","midi":59,"time":362.0769532500018,"velocity":0.8031496062992126,"duration":0.6899039036458134},{"name":"G#3","midi":56,"time":362.0769532500018,"velocity":0.8031496062992126,"duration":0.6899039036458134},{"name":"D4","midi":62,"time":362.7692610000018,"velocity":0.8031496062992126,"duration":0.22836540364579605},{"name":"A3","midi":57,"time":362.7692610000018,"velocity":0.8031496062992126,"duration":0.11298077864580591},{"name":"B3","midi":59,"time":362.8846456250018,"velocity":0.8031496062992126,"duration":0.11298077864580591},{"name":"C4","midi":60,"time":363.00003025000177,"velocity":0.8031496062992126,"duration":0.6899039036458134},{"name":"E3","midi":52,"time":363.00003025000177,"velocity":0.8031496062992126,"duration":1.382211653645868},{"name":"E5","midi":76,"time":363.69233800000177,"velocity":0.8031496062992126,"duration":0.2283654036458529},{"name":"B3","midi":59,"time":363.69233800000177,"velocity":0.8031496062992126,"duration":0.2283654036458529},{"name":"A5","midi":81,"time":363.9231072500018,"velocity":0.8031496062992126,"duration":0.6899039036458134},{"name":"C4","midi":60,"time":363.9231072500018,"velocity":0.8031496062992126,"duration":1.6129809036458482},{"name":"E5","midi":76,"time":364.6154150000018,"velocity":0.8031496062992126,"duration":0.2283654036458529},{"name":"C3","midi":48,"time":364.6154150000018,"velocity":0.8031496062992126,"duration":0.2283654036458529},{"name":"F5","midi":77,"time":364.84618425000184,"velocity":0.8031496062992126,"duration":0.5745192786458233},{"name":"D3","midi":50,"time":364.84618425000184,"velocity":0.8031496062992126,"duration":2.0745194036458656},{"name":"E5","midi":76,"time":365.42310737500185,"velocity":0.8031496062992126,"duration":0.11298077864580591},{"name":"D5","midi":74,"time":365.53849200000184,"velocity":0.8031496062992126,"duration":0.11298077864580591},{"name":"A3","midi":57,"time":365.53849200000184,"velocity":0.8031496062992126,"duration":0.22836540364579605},{"name":"C5","midi":72,"time":365.6538766250018,"velocity":0.8031496062992126,"duration":0.11298077864580591},{"name":"B4","midi":71,"time":365.7692612500018,"velocity":0.8031496062992126,"duration":0.6899039036458134},{"name":"D4","midi":62,"time":365.7692612500018,"velocity":0.8031496062992126,"duration":0.6899039036458134},{"name":"D5","midi":74,"time":366.4615690000018,"velocity":0.8031496062992126,"duration":0.2283654036458529},{"name":"F4","midi":65,"time":366.4615690000018,"velocity":0.8031496062992126,"duration":0.2283654036458529},{"name":"G#4","midi":68,"time":366.69233825000185,"velocity":0.8031496062992126,"duration":0.6899039036459271},{"name":"E4","midi":64,"time":366.69233825000185,"velocity":0.8031496062992126,"duration":0.7884616041667982},{"name":"D3","midi":50,"time":366.9231075000019,"velocity":0.8031496062992126,"duration":0.2283654036458529},{"name":"C3","midi":48,"time":367.1538767500019,"velocity":0.8031496062992126,"duration":0.2283654036458529},{"name":"F#4","midi":66,"time":367.38464600000196,"velocity":0.8031496062992126,"duration":0.11298077864586276},{"name":"B2","midi":47,"time":367.38464600000196,"velocity":0.8031496062992126,"duration":0.2283654036458529},{"name":"E4","midi":64,"time":367.500030625002,"velocity":0.8031496062992126,"duration":0.11298077864580591},{"name":"C5","midi":72,"time":367.615415250002,"velocity":0.8031496062992126,"duration":0.6899039036459271},{"name":"A4","midi":69,"time":367.615415250002,"velocity":0.8031496062992126,"duration":0.9206731536459642},{"name":"A2","midi":45,"time":367.615415250002,"velocity":0.8031496062992126,"duration":0.2283654036458529},{"name":"G2","midi":43,"time":367.84618450000204,"velocity":0.8031496062992126,"duration":0.2283654036458529},{"name":"F2","midi":41,"time":368.0769537500021,"velocity":0.8031496062992126,"duration":0.2283654036458529},{"name":"C5","midi":72,"time":368.3077230000021,"velocity":0.8031496062992126,"duration":0.2283654036458529},{"name":"E2","midi":40,"time":368.3077230000021,"velocity":0.8031496062992126,"duration":0.2283654036458529},{"name":"C5","midi":72,"time":368.53849225000215,"velocity":0.8031496062992126,"duration":0.5745192786458233},{"name":"A4","midi":69,"time":368.53849225000215,"velocity":0.8031496062992126,"duration":0.9206731536457937},{"name":"D2","midi":38,"time":368.53849225000215,"velocity":0.8031496062992126,"duration":0.6899039036458134},{"name":"D5","midi":74,"time":369.11541537500216,"velocity":0.8031496062992126,"duration":0.11298077864580591},{"name":"C5","midi":72,"time":369.23080000000215,"velocity":0.8031496062992126,"duration":0.11298077864580591},{"name":"D3","midi":50,"time":369.23080000000215,"velocity":0.8031496062992126,"duration":0.22836540364579605},{"name":"B4","midi":71,"time":369.34618462500214,"velocity":0.8031496062992126,"duration":0.11298077864580591},{"name":"C5","midi":72,"time":369.4615692500021,"velocity":0.8031496062992126,"duration":0.11298077864580591},{"name":"G#4","midi":68,"time":369.4615692500021,"velocity":0.8031496062992126,"duration":0.9134616145832979},{"name":"E3","midi":52,"time":369.4615692500021,"velocity":0.8031496062992126,"duration":0.6899039036457566},{"name":"B4","midi":71,"time":369.5769538750021,"velocity":0.8031496062992126,"duration":0.11298077864580591},{"name":"C5","midi":72,"time":369.6923385000021,"velocity":0.8031496062992126,"duration":0.11298077864580591},{"name":"B4","midi":71,"time":369.8077231250021,"velocity":0.8031496062992126,"duration":0.11298077864580591},{"name":"C5","midi":72,"time":369.9231077500021,"velocity":0.8031496062992126,"duration":0.11298077864580591},{"name":"B4","midi":71,"time":370.0384923750021,"velocity":0.8031496062992126,"duration":0.11298077864580591},{"name":"A4","midi":69,"time":370.15387700000207,"velocity":0.8031496062992126,"duration":0.2283654036458529},{"name":"E2","midi":40,"time":370.15387700000207,"velocity":0.8031496062992126,"duration":0.2283654036458529},{"name":"A4","midi":69,"time":370.3846462500021,"velocity":0.8031496062992126,"duration":3.4375002864583166},{"name":"A2","midi":45,"time":370.3846462500021,"velocity":0.8031496062992126,"duration":3.4375002864583166},{"name":"G4","midi":67,"time":370.9615693750021,"velocity":0.8031496062992126,"duration":0.11298077864580591},{"name":"F4","midi":65,"time":371.0769540000021,"velocity":0.8031496062992126,"duration":0.11298077864580591},{"name":"C#3","midi":49,"time":371.0769540000021,"velocity":0.8031496062992126,"duration":0.22836540364579605},{"name":"E4","midi":64,"time":371.1923386250021,"velocity":0.8031496062992126,"duration":0.11298077864580591},{"name":"F4","midi":65,"time":371.3077232500021,"velocity":0.8031496062992126,"duration":0.6899039036458134},{"name":"D3","midi":50,"time":371.3077232500021,"velocity":0.8031496062992126,"duration":0.6899039036458134},{"name":"D4","midi":62,"time":372.0000310000021,"velocity":0.8031496062992126,"duration":0.8052885286458604},{"name":"F3","midi":53,"time":372.0000310000021,"velocity":0.8031496062992126,"duration":0.2283654036458529},{"name":"E3","midi":52,"time":372.2308002500021,"velocity":0.8031496062992126,"duration":1.5817309010416238},{"name":"D4","midi":62,"time":372.8077233750021,"velocity":0.8031496062992126,"duration":0.11298077864580591},{"name":"C#4","midi":61,"time":372.9231080000021,"velocity":0.8031496062992126,"duration":0.11298077864580591},{"name":"B3","midi":59,"time":373.0384926250021,"velocity":0.8031496062992126,"duration":0.11298077864580591},{"name":"C#4","midi":61,"time":373.1538772500021,"velocity":0.8031496062992126,"duration":0.45673080729164894},{"name":"E4","midi":64,"time":373.90387731250206,"velocity":0.8031496062992126,"duration":0.2283654036458529},{"name":"A3","midi":57,"time":374.1346465625021,"velocity":0.8031496062992126,"duration":0.6899039036458134},{"name":"D4","midi":62,"time":374.8269543125021,"velocity":0.8031496062992126,"duration":0.2283654036458529},{"name":"C#4","midi":61,"time":375.05772356250213,"velocity":0.8031496062992126,"duration":0.5745192786458233},{"name":"D4","midi":62,"time":375.63464668750214,"velocity":0.8031496062992126,"duration":0.11298077864580591},{"name":"E4","midi":64,"time":375.75003131250213,"velocity":0.8031496062992126,"duration":0.11298077864580591},{"name":"F4","midi":65,"time":375.8654159375021,"velocity":0.8031496062992126,"duration":0.11298077864580591},{"name":"G4","midi":67,"time":375.9808005625021,"velocity":0.8031496062992126,"duration":0.6899039036458134},{"name":"E4","midi":64,"time":376.6731083125021,"velocity":0.8031496062992126,"duration":0.2283654036458529},{"name":"F4","midi":65,"time":376.90387756250215,"velocity":0.8031496062992126,"duration":1.497596278645858},{"name":"A3","midi":57,"time":377.59618531250214,"velocity":0.8031496062992126,"duration":0.2283654036458529},{"name":"D3","midi":50,"time":377.8269545625022,"velocity":0.8031496062992126,"duration":0.6899039036458134},{"name":"E4","midi":64,"time":378.4038776875022,"velocity":0.8031496062992126,"duration":0.11298077864580591},{"name":"G3","midi":55,"time":378.5192623125022,"velocity":0.8031496062992126,"duration":0.22836540364579605},{"name":"F4","midi":65,"time":378.5192623125022,"velocity":0.8031496062992126,"duration":0.11298077864580591},{"name":"G4","midi":67,"time":378.63464693750217,"velocity":0.8031496062992126,"duration":0.11298077864580591},{"name":"F#3","midi":54,"time":378.75003156250216,"velocity":0.8031496062992126,"duration":0.5745192786458233},{"name":"A4","midi":69,"time":378.75003156250216,"velocity":0.8031496062992126,"duration":1.4975962786458012},{"name":"G3","midi":55,"time":379.32695468750217,"velocity":0.8031496062992126,"duration":0.11298077864580591},{"name":"A3","midi":57,"time":379.44233931250216,"velocity":0.8031496062992126,"duration":0.11298077864580591},{"name":"A#3","midi":58,"time":379.55772393750215,"velocity":0.8031496062992126,"duration":0.11298077864580591},{"name":"C4","midi":60,"time":379.67310856250214,"velocity":0.8031496062992126,"duration":0.6899039036458134},{"name":"F#4","midi":66,"time":380.25003168750214,"velocity":0.8031496062992126,"duration":0.11298077864580591},{"name":"A3","midi":57,"time":380.36541631250213,"velocity":0.8031496062992126,"duration":0.22836540364579605},{"name":"G4","midi":67,"time":380.36541631250213,"velocity":0.8031496062992126,"duration":0.11298077864580591},{"name":"A4","midi":69,"time":380.4808009375021,"velocity":0.8031496062992126,"duration":0.11298077864580591},{"name":"A#3","midi":58,"time":380.5961855625021,"velocity":0.8031496062992126,"duration":1.4423078125000188},{"name":"D4","midi":62,"time":380.5961855625021,"velocity":0.8031496062992126,"duration":0.9206731536458506},{"name":"D5","midi":74,"time":381.2884933125021,"velocity":0.8031496062992126,"duration":0.2283654036458529},{"name":"E4","midi":64,"time":381.51926256250215,"velocity":0.8031496062992126,"duration":1.4975962786458012},{"name":"G4","midi":67,"time":381.51926256250215,"velocity":0.8031496062992126,"duration":0.6899039036458134},{"name":"A#3","midi":58,"time":382.09618568750216,"velocity":0.8031496062992126,"duration":0.11298077864580591},{"name":"A3","midi":57,"time":382.21157031250215,"velocity":0.8031496062992126,"duration":0.11298077864580591},{"name":"D5","midi":74,"time":382.21157031250215,"velocity":0.8031496062992126,"duration":0.22836540364579605},{"name":"G3","midi":55,"time":382.32695493750214,"velocity":0.8031496062992126,"duration":0.11298077864580591},{"name":"A3","midi":57,"time":382.4423395625021,"velocity":0.8031496062992126,"duration":1.6346155208332789},{"name":"C#5","midi":73,"time":382.4423395625021,"velocity":0.8031496062992126,"duration":0.5745192786458233},{"name":"F4","midi":65,"time":383.01926268750213,"velocity":0.8031496062992126,"duration":0.11298077864580591},{"name":"D5","midi":74,"time":383.01926268750213,"velocity":0.8031496062992126,"duration":0.11298077864580591},{"name":"E4","midi":64,"time":383.1346473125021,"velocity":0.8031496062992126,"duration":0.11298077864580591},{"name":"E5","midi":76,"time":383.1346473125021,"velocity":0.8031496062992126,"duration":0.11298077864580591},{"name":"D4","midi":62,"time":383.2500319375021,"velocity":0.8031496062992126,"duration":0.11298077864580591},{"name":"F5","midi":77,"time":383.2500319375021,"velocity":0.8031496062992126,"duration":0.11298077864580591},{"name":"D4","midi":62,"time":383.3654165625021,"velocity":0.8031496062992126,"duration":0.11298077864580591},{"name":"G5","midi":79,"time":383.3654165625021,"velocity":0.8031496062992126,"duration":0.6899039036457566},{"name":"C#4","midi":61,"time":383.4808011875021,"velocity":0.8031496062992126,"duration":0.11298077864580591},{"name":"D4","midi":62,"time":383.5961858125021,"velocity":0.8031496062992126,"duration":0.11298077864580591},{"name":"C#4","midi":61,"time":383.7115704375021,"velocity":0.8031496062992126,"duration":0.11298077864580591},{"name":"D4","midi":62,"time":383.82695506250207,"velocity":0.8031496062992126,"duration":0.11298077864580591},{"name":"C#4","midi":61,"time":383.94233968750206,"velocity":0.8031496062992126,"duration":0.11298077864580591},{"name":"B3","midi":59,"time":384.05772431250205,"velocity":0.8031496062992126,"duration":0.11298077864586276},{"name":"E5","midi":76,"time":384.05772431250205,"velocity":0.8031496062992126,"duration":0.2283654036458529},{"name":"C#4","midi":61,"time":384.1731089375021,"velocity":0.8031496062992126,"duration":0.11298077864580591},{"name":"D3","midi":50,"time":384.2884935625021,"velocity":0.8031496062992126,"duration":0.6899039036458703},{"name":"D4","midi":62,"time":384.2884935625021,"velocity":0.8031496062992126,"duration":0.6730769791666944},{"name":"F5","midi":77,"time":384.2884935625021,"velocity":0.8031496062992126,"duration":1.8437501536458285},{"name":"D4","midi":62,"time":384.98080131250214,"velocity":0.8031496062992126,"duration":0.11298077864580591},{"name":"A4","midi":69,"time":384.98080131250214,"velocity":0.8031496062992126,"duration":0.2163461718749886},{"name":"C4","midi":60,"time":385.0961859375021,"velocity":0.8031496062992126,"duration":0.11298077864580591},{"name":"B3","midi":59,"time":385.2115705625021,"velocity":0.8031496062992126,"duration":0.6899039036458134},{"name":"D4","midi":62,"time":385.2115705625021,"velocity":0.8031496062992126,"duration":0.6899039036458134},{"name":"C4","midi":60,"time":385.9038783125021,"velocity":0.8031496062992126,"duration":0.11298077864580591},{"name":"A4","midi":69,"time":385.9038783125021,"velocity":0.8031496062992126,"duration":0.22836540364579605},{"name":"D4","midi":62,"time":386.0192629375021,"velocity":0.8031496062992126,"duration":0.11298077864580591},{"name":"D3","midi":50,"time":386.1346475625021,"velocity":0.8031496062992126,"duration":0.5745192786458233},{"name":"G#4","midi":68,"time":386.1346475625021,"velocity":0.8031496062992126,"duration":0.5745192786458233},{"name":"E5","midi":76,"time":386.1346475625021,"velocity":0.8031496062992126,"duration":2.5360579036457125},{"name":"F3","midi":53,"time":386.7115706875021,"velocity":0.8031496062992126,"duration":0.11298077864580591},{"name":"A4","midi":69,"time":386.7115706875021,"velocity":0.8031496062992126,"duration":0.11298077864580591},{"name":"E3","midi":52,"time":386.8269553125021,"velocity":0.8031496062992126,"duration":0.11298077864580591},{"name":"B4","midi":71,"time":386.8269553125021,"velocity":0.8031496062992126,"duration":0.11298077864580591},{"name":"D3","midi":50,"time":386.9423399375021,"velocity":0.8031496062992126,"duration":0.11298077864580591},{"name":"C5","midi":72,"time":386.9423399375021,"velocity":0.8031496062992126,"duration":0.11298077864580591},{"name":"A3","midi":57,"time":387.0577245625021,"velocity":0.8031496062992126,"duration":0.11298077864580591},{"name":"D5","midi":74,"time":387.0577245625021,"velocity":0.8031496062992126,"duration":0.6899039036457566},{"name":"G#3","midi":56,"time":387.17310918750206,"velocity":0.8031496062992126,"duration":0.11298077864580591},{"name":"A3","midi":57,"time":387.28849381250205,"velocity":0.8031496062992126,"duration":0.11298077864580591},{"name":"G#3","midi":56,"time":387.40387843750204,"velocity":0.8031496062992126,"duration":0.11298077864580591},{"name":"A3","midi":57,"time":387.51926306250203,"velocity":0.8031496062992126,"duration":0.11298077864580591},{"name":"G#3","midi":56,"time":387.634647687502,"velocity":0.8031496062992126,"duration":0.11298077864580591},{"name":"F#3","midi":54,"time":387.750032312502,"velocity":0.8031496062992126,"duration":0.11298077864580591},{"name":"B4","midi":71,"time":387.750032312502,"velocity":0.8031496062992126,"duration":0.22836540364579605},{"name":"E3","midi":52,"time":387.865416937502,"velocity":0.8031496062992126,"duration":0.11298077864580591},{"name":"A3","midi":57,"time":387.980801562502,"velocity":0.8031496062992126,"duration":0.6899039036458134},{"name":"C5","midi":72,"time":387.980801562502,"velocity":0.8031496062992126,"duration":2.5360579036457693},{"name":"A2","midi":45,"time":388.673109312502,"velocity":0.8031496062992126,"duration":0.11298077864580591},{"name":"E5","midi":76,"time":388.673109312502,"velocity":0.8031496062992126,"duration":0.22836540364579605},{"name":"B2","midi":47,"time":388.788493937502,"velocity":0.8031496062992126,"duration":0.11298077864580591},{"name":"C3","midi":48,"time":388.903878562502,"velocity":0.8031496062992126,"duration":0.6899039036458134},{"name":"A4","midi":69,"time":388.903878562502,"velocity":0.8031496062992126,"duration":0.6899039036458134},{"name":"B2","midi":47,"time":389.59618631250197,"velocity":0.8031496062992126,"duration":0.11298077864580591},{"name":"E5","midi":76,"time":389.59618631250197,"velocity":0.8031496062992126,"duration":0.22836540364579605},{"name":"A2","midi":45,"time":389.71157093750196,"velocity":0.8031496062992126,"duration":0.11298077864580591},{"name":"D3","midi":50,"time":389.82695556250195,"velocity":0.8031496062992126,"duration":2.16346171875},{"name":"F5","midi":77,"time":389.82695556250195,"velocity":0.8031496062992126,"duration":1.6129809036457914},{"name":"D5","midi":74,"time":390.51926331250195,"velocity":0.8031496062992126,"duration":0.11298077864580591},{"name":"E5","midi":76,"time":390.63464793750194,"velocity":0.8031496062992126,"duration":0.11298077864580591},{"name":"D5","midi":74,"time":390.75003256250193,"velocity":0.8031496062992126,"duration":0.6899039036458134},{"name":"C5","midi":72,"time":391.4423403125019,"velocity":0.8031496062992126,"duration":0.2283654036458529},{"name":"E5","midi":76,"time":391.4423403125019,"velocity":0.8031496062992126,"duration":0.2283654036458529},{"name":"B4","midi":71,"time":391.67310956250196,"velocity":0.8031496062992126,"duration":2.5360579036457693},{"name":"D5","midi":74,"time":391.67310956250196,"velocity":0.8031496062992126,"duration":0.6899039036458134},{"name":"G2","midi":43,"time":392.36541731250196,"velocity":0.8031496062992126,"duration":0.11298077864580591},{"name":"D5","midi":74,"time":392.36541731250196,"velocity":0.8031496062992126,"duration":0.22836540364579605},{"name":"A2","midi":45,"time":392.48080193750195,"velocity":0.8031496062992126,"duration":0.11298077864580591},{"name":"B2","midi":47,"time":392.59618656250194,"velocity":0.8031496062992126,"duration":0.6899039036458134},{"name":"G4","midi":67,"time":392.59618656250194,"velocity":0.8031496062992126,"duration":0.6899039036458134},{"name":"A2","midi":45,"time":393.28849431250194,"velocity":0.8031496062992126,"duration":0.11298077864580591},{"name":"D5","midi":74,"time":393.28849431250194,"velocity":0.8031496062992126,"duration":0.22836540364579605},{"name":"G2","midi":43,"time":393.40387893750193,"velocity":0.8031496062992126,"duration":0.11298077864580591},{"name":"C3","midi":48,"time":393.5192635625019,"velocity":0.8031496062992126,"duration":1.442307812499962},{"name":"E5","midi":76,"time":393.5192635625019,"velocity":0.8031496062992126,"duration":1.6129809036457914},{"name":"C5","midi":72,"time":394.2115713125019,"velocity":0.8031496062992126,"duration":0.11298077864580591},{"name":"D5","midi":74,"time":394.3269559375019,"velocity":0.8031496062992126,"duration":0.11298077864580591},{"name":"C5","midi":72,"time":394.4423405625019,"velocity":0.8031496062992126,"duration":0.6899039036458134},{"name":"C3","midi":48,"time":395.0192636875019,"velocity":0.8031496062992126,"duration":0.11298077864580591},{"name":"D3","midi":50,"time":395.1346483125019,"velocity":0.8031496062992126,"duration":0.11298077864580591},{"name":"B4","midi":71,"time":395.1346483125019,"velocity":0.8031496062992126,"duration":0.22836540364579605},{"name":"D5","midi":74,"time":395.1346483125019,"velocity":0.8031496062992126,"duration":0.22836540364579605},{"name":"E3","midi":52,"time":395.2500329375019,"velocity":0.8031496062992126,"duration":0.11298077864580591},{"name":"F3","midi":53,"time":395.3654175625019,"velocity":0.8031496062992126,"duration":0.6899039036458134},{"name":"A4","midi":69,"time":395.3654175625019,"velocity":0.8031496062992126,"duration":0.9134616145832979},{"name":"C5","midi":72,"time":395.3654175625019,"velocity":0.8031496062992126,"duration":0.5745192786458233},{"name":"C5","midi":72,"time":395.9423406875019,"velocity":0.8031496062992126,"duration":0.11298077864580591},{"name":"A3","midi":57,"time":396.0577253125019,"velocity":0.8031496062992126,"duration":0.22836540364579605},{"name":"D5","midi":74,"time":396.0577253125019,"velocity":0.8031496062992126,"duration":0.11298077864580591},{"name":"E5","midi":76,"time":396.17310993750186,"velocity":0.8031496062992126,"duration":0.11298077864580591},{"name":"D3","midi":50,"time":396.28849456250185,"velocity":0.8031496062992126,"duration":0.6899039036458134},{"name":"F5","midi":77,"time":396.28849456250185,"velocity":0.8031496062992126,"duration":0.5745192786458233},{"name":"E5","midi":76,"time":396.86541768750186,"velocity":0.8031496062992126,"duration":0.11298077864580591},{"name":"A3","midi":57,"time":396.98080231250185,"velocity":0.8031496062992126,"duration":0.22836540364579605},{"name":"F5","midi":77,"time":396.98080231250185,"velocity":0.8031496062992126,"duration":0.11298077864580591},{"name":"D5","midi":74,"time":397.09618693750184,"velocity":0.8031496062992126,"duration":0.11298077864580591},{"name":"G#3","midi":56,"time":397.21157156250183,"velocity":0.8031496062992126,"duration":0.5745192786458233},{"name":"B5","midi":83,"time":397.21157156250183,"velocity":0.8031496062992126,"duration":1.6346155208333357},{"name":"A3","midi":57,"time":397.78849468750184,"velocity":0.8031496062992126,"duration":0.11298077864580591},{"name":"B3","midi":59,"time":397.90387931250183,"velocity":0.8031496062992126,"duration":0.11298077864580591},{"name":"A5","midi":81,"time":397.90387931250183,"velocity":0.8031496062992126,"duration":0.22836540364579605},{"name":"C4","midi":60,"time":398.0192639375018,"velocity":0.8031496062992126,"duration":0.11298077864580591},{"name":"D4","midi":62,"time":398.1346485625018,"velocity":0.8031496062992126,"duration":0.6899039036458134},{"name":"G#5","midi":80,"time":398.1346485625018,"velocity":0.8031496062992126,"duration":0.6899039036458134},{"name":"B3","midi":59,"time":398.8269563125018,"velocity":0.8031496062992126,"duration":0.2283654036458529},{"name":"A5","midi":81,"time":398.8269563125018,"velocity":0.8031496062992126,"duration":0.11298077864586276},{"name":"B5","midi":83,"time":398.94234093750185,"velocity":0.8031496062992126,"duration":0.8197116067707952},{"name":"C4","midi":60,"time":399.05772556250184,"velocity":0.8031496062992126,"duration":0.6899039036458134},{"name":"E5","midi":76,"time":399.05772556250184,"velocity":0.8031496062992126,"duration":1.4975962786458012},{"name":"B3","midi":59,"time":399.75003331250184,"velocity":0.8031496062992126,"duration":0.22836540364579605},{"name":"A5","midi":81,"time":399.75003331250184,"velocity":0.8031496062992126,"duration":0.11298077864580591},{"name":"G#5","midi":80,"time":399.86541793750183,"velocity":0.8031496062992126,"duration":0.11298077864580591},{"name":"C4","midi":60,"time":399.9808025625018,"velocity":0.8031496062992126,"duration":0.6899039036458134},{"name":"A5","midi":81,"time":399.9808025625018,"velocity":0.8031496062992126,"duration":1.5384616666666489},{"name":"D5","midi":74,"time":400.55772568750183,"velocity":0.8031496062992126,"duration":0.11298077864580591},{"name":"D4","midi":62,"time":400.6731103125018,"velocity":0.8031496062992126,"duration":0.22836540364579605},{"name":"E5","midi":76,"time":400.6731103125018,"velocity":0.8031496062992126,"duration":0.11298077864580591},{"name":"F5","midi":77,"time":400.7884949375018,"velocity":0.8031496062992126,"duration":0.11298077864580591},{"name":"E4","midi":64,"time":400.9038795625018,"velocity":0.8031496062992126,"duration":0.6899039036458134},{"name":"B4","midi":71,"time":400.9038795625018,"velocity":0.8031496062992126,"duration":1.4975962786458012},{"name":"F4","midi":65,"time":401.5961873125018,"velocity":0.8031496062992126,"duration":0.22836540364579605},{"name":"G5","midi":79,"time":401.5961873125018,"velocity":0.8031496062992126,"duration":0.11298077864580591},{"name":"F#5","midi":78,"time":401.7115719375018,"velocity":0.8031496062992126,"duration":0.11298077864580591},{"name":"E4","midi":64,"time":401.8269565625018,"velocity":0.8031496062992126,"duration":0.6899039036458134},{"name":"G5","midi":79,"time":401.8269565625018,"velocity":0.8031496062992126,"duration":1.6129809036457914},{"name":"B4","midi":71,"time":402.4038796875018,"velocity":0.8031496062992126,"duration":0.11298077864580591},{"name":"D4","midi":62,"time":402.5192643125018,"velocity":0.8031496062992126,"duration":0.22836540364579605},{"name":"C#5","midi":73,"time":402.5192643125018,"velocity":0.8031496062992126,"duration":0.11298077864580591},{"name":"D5","midi":74,"time":402.63464893750177,"velocity":0.8031496062992126,"duration":0.11298077864580591},{"name":"C#4","midi":61,"time":402.75003356250176,"velocity":0.8031496062992126,"duration":0.5745192786458233},{"name":"E5","midi":76,"time":402.75003356250176,"velocity":0.8031496062992126,"duration":1.4975962786458012},{"name":"A3","midi":57,"time":403.32695668750176,"velocity":0.8031496062992126,"duration":0.11298077864580591},{"name":"B3","midi":59,"time":403.44234131250175,"velocity":0.8031496062992126,"duration":0.11298077864580591},{"name":"A5","midi":81,"time":403.44234131250175,"velocity":0.8031496062992126,"duration":0.22836540364579605},{"name":"C#4","midi":61,"time":403.55772593750174,"velocity":0.8031496062992126,"duration":0.11298077864580591},{"name":"D4","midi":62,"time":403.67311056250173,"velocity":0.8031496062992126,"duration":0.5745192786458233},{"name":"F5","midi":77,"time":403.67311056250173,"velocity":0.8031496062992126,"duration":1.4975962786458012},{"name":"D3","midi":50,"time":404.25003368750174,"velocity":0.8031496062992126,"duration":0.11298077864580591},{"name":"D5","midi":74,"time":404.25003368750174,"velocity":0.8031496062992126,"duration":0.11298077864580591},{"name":"E3","midi":52,"time":404.36541831250173,"velocity":0.8031496062992126,"duration":0.11298077864580591},{"name":"C#5","midi":73,"time":404.36541831250173,"velocity":0.8031496062992126,"duration":0.11298077864580591},{"name":"F3","midi":53,"time":404.4808029375017,"velocity":0.8031496062992126,"duration":0.11298077864580591},{"name":"D5","midi":74,"time":404.4808029375017,"velocity":0.8031496062992126,"duration":0.11298077864580591},{"name":"C3","midi":48,"time":404.5961875625017,"velocity":0.8031496062992126,"duration":0.13221154947916602},{"name":"G4","midi":67,"time":404.5961875625017,"velocity":0.8031496062992126,"duration":2.403846354166717},{"name":"A#2","midi":46,"time":404.7259952656267,"velocity":0.8031496062992126,"duration":0.13221154947916602},{"name":"C3","midi":48,"time":404.85820681510586,"velocity":0.8031496062992126,"duration":0.13221154947916602},{"name":"A#2","midi":46,"time":404.990418364585,"velocity":0.8031496062992126,"duration":0.13221154947916602},{"name":"C3","midi":48,"time":405.12022606771,"velocity":0.8031496062992126,"duration":0.13221154947922287},{"name":"F5","midi":77,"time":405.1731106875017,"velocity":0.8031496062992126,"duration":0.11298077864586276},{"name":"A#2","midi":46,"time":405.25243761718923,"velocity":0.8031496062992126,"duration":0.13221154947922287},{"name":"E5","midi":76,"time":405.28849531250177,"velocity":0.8031496062992126,"duration":0.11298077864586276},{"name":"C3","midi":48,"time":405.38464916666845,"velocity":0.8031496062992126,"duration":0.13221154947916602},{"name":"F5","midi":77,"time":405.4038799375018,"velocity":0.8031496062992126,"duration":0.11298077864580591},{"name":"A#2","midi":46,"time":405.5168607161476,"velocity":0.8031496062992126,"duration":0.13221154947916602},{"name":"G5","midi":79,"time":405.5192645625018,"velocity":0.8031496062992126,"duration":0.11298077864580591},{"name":"F5","midi":77,"time":405.6346491875018,"velocity":0.8031496062992126,"duration":0.11298077864580591},{"name":"C3","midi":48,"time":405.6466684192726,"velocity":0.8031496062992126,"duration":0.13221154947916602},{"name":"E5","midi":76,"time":405.7500338125018,"velocity":0.8031496062992126,"duration":0.34375002864584303},{"name":"A#2","midi":46,"time":405.77887996875177,"velocity":0.8031496062992126,"duration":0.13221154947916602},{"name":"C3","midi":48,"time":405.91109151823093,"velocity":0.8031496062992126,"duration":0.13221154947916602},{"name":"A#2","midi":46,"time":406.0408992213559,"velocity":0.8031496062992126,"duration":0.3605769531250189},{"name":"F5","midi":77,"time":406.0961876875018,"velocity":0.8031496062992126,"duration":0.11298077864580591},{"name":"E5","midi":76,"time":406.2115723125018,"velocity":0.8031496062992126,"duration":0.11298077864580591},{"name":"D5","midi":74,"time":406.3269569375018,"velocity":0.8031496062992126,"duration":0.11298077864580591},{"name":"A2","midi":45,"time":406.4423415625018,"velocity":0.8031496062992126,"duration":0.6730769791666376},{"name":"C#5","midi":73,"time":406.4423415625018,"velocity":0.8031496062992126,"duration":1.8437501536458853},{"name":"E4","midi":64,"time":407.1346493125018,"velocity":0.8031496062992126,"duration":0.2283654036458529},{"name":"A4","midi":69,"time":407.3654185625018,"velocity":0.8031496062992126,"duration":0.6899039036458134},{"name":"E4","midi":64,"time":408.0577263125018,"velocity":0.8031496062992126,"duration":0.2283654036458529},{"name":"F4","midi":65,"time":408.28849556250185,"velocity":0.8031496062992126,"duration":0.5745192786458233},{"name":"E4","midi":64,"time":408.86541868750186,"velocity":0.8031496062992126,"duration":0.11298077864580591},{"name":"D4","midi":62,"time":408.98080331250185,"velocity":0.8031496062992126,"duration":0.11298077864580591},{"name":"A4","midi":69,"time":408.98080331250185,"velocity":0.8031496062992126,"duration":0.22836540364579605},{"name":"C4","midi":60,"time":409.09618793750184,"velocity":0.8031496062992126,"duration":0.11298077864580591},{"name":"B3","midi":59,"time":409.21157256250183,"velocity":0.8031496062992126,"duration":0.6899039036458134},{"name":"D5","midi":74,"time":409.21157256250183,"velocity":0.8031496062992126,"duration":0.6899039036458134},{"name":"D4","midi":62,"time":409.9038803125018,"velocity":0.8031496062992126,"duration":0.2283654036458529},{"name":"A4","midi":69,"time":409.9038803125018,"velocity":0.8031496062992126,"duration":0.2283654036458529},{"name":"C#4","midi":61,"time":410.13464956250186,"velocity":0.8031496062992126,"duration":1.8437501536458285},{"name":"A#4","midi":70,"time":410.13464956250186,"velocity":0.8031496062992126,"duration":0.5745192786458233},{"name":"A4","midi":69,"time":410.71157268750187,"velocity":0.8031496062992126,"duration":0.11298077864580591},{"name":"E3","midi":52,"time":410.82695731250186,"velocity":0.8031496062992126,"duration":0.22836540364579605},{"name":"G4","midi":67,"time":410.82695731250186,"velocity":0.8031496062992126,"duration":0.11298077864580591},{"name":"F4","midi":65,"time":410.94234193750185,"velocity":0.8031496062992126,"duration":0.11298077864580591},{"name":"A3","midi":57,"time":411.05772656250184,"velocity":0.8031496062992126,"duration":0.6899039036458134},{"name":"E4","midi":64,"time":411.05772656250184,"velocity":0.8031496062992126,"duration":0.6899039036458134},{"name":"E3","midi":52,"time":411.75003431250184,"velocity":0.8031496062992126,"duration":0.2283654036458529},{"name":"G4","midi":67,"time":411.75003431250184,"velocity":0.8031496062992126,"duration":0.2283654036458529},{"name":"F3","midi":53,"time":411.9808035625019,"velocity":0.8031496062992126,"duration":0.5745192786458233},{"name":"D4","midi":62,"time":411.9808035625019,"velocity":0.8031496062992126,"duration":1.8437501536458285},{"name":"F4","midi":65,"time":411.9808035625019,"velocity":0.8031496062992126,"duration":0.6899039036458134},{"name":"E3","midi":52,"time":412.5577266875019,"velocity":0.8031496062992126,"duration":0.11298077864580591},{"name":"D3","midi":50,"time":412.6731113125019,"velocity":0.8031496062992126,"duration":0.11298077864580591},{"name":"D5","midi":74,"time":412.6731113125019,"velocity":0.8031496062992126,"duration":0.22836540364579605},{"name":"C3","midi":48,"time":412.78849593750186,"velocity":0.8031496062992126,"duration":0.11298077864580591},{"name":"A#2","midi":46,"time":412.90388056250185,"velocity":0.8031496062992126,"duration":0.6899039036458134},{"name":"G4","midi":67,"time":412.90388056250185,"velocity":0.8031496062992126,"duration":0.6899039036458134},{"name":"D3","midi":50,"time":413.59618831250185,"velocity":0.8031496062992126,"duration":0.2283654036458529},{"name":"D5","midi":74,"time":413.59618831250185,"velocity":0.8031496062992126,"duration":0.2283654036458529},{"name":"G2","midi":43,"time":413.8269575625019,"velocity":0.8031496062992126,"duration":0.5745192786458233},{"name":"E4","midi":64,"time":413.8269575625019,"velocity":0.8031496062992126,"duration":0.9134616145832979},{"name":"C#5","midi":73,"time":413.8269575625019,"velocity":0.8031496062992126,"duration":0.5745192786458233},{"name":"F3","midi":53,"time":414.4038806875019,"velocity":0.8031496062992126,"duration":0.11298077864580591},{"name":"D5","midi":74,"time":414.4038806875019,"velocity":0.8031496062992126,"duration":0.11298077864580591},{"name":"E3","midi":52,"time":414.5192653125019,"velocity":0.8031496062992126,"duration":0.11298077864580591},{"name":"E5","midi":76,"time":414.5192653125019,"velocity":0.8031496062992126,"duration":0.11298077864580591},{"name":"D3","midi":50,"time":414.6346499375019,"velocity":0.8031496062992126,"duration":0.11298077864580591},{"name":"F5","midi":77,"time":414.6346499375019,"velocity":0.8031496062992126,"duration":0.11298077864580591},{"name":"D3","midi":50,"time":414.75003456250187,"velocity":0.8031496062992126,"duration":0.11298077864580591},{"name":"G5","midi":79,"time":414.75003456250187,"velocity":0.8031496062992126,"duration":0.6899039036457566},{"name":"C#3","midi":49,"time":414.86541918750186,"velocity":0.8031496062992126,"duration":0.11298077864580591},{"name":"D3","midi":50,"time":414.98080381250185,"velocity":0.8031496062992126,"duration":0.11298077864580591},{"name":"C#3","midi":49,"time":415.09618843750184,"velocity":0.8031496062992126,"duration":0.11298077864580591},{"name":"D3","midi":50,"time":415.2115730625018,"velocity":0.8031496062992126,"duration":0.11298077864580591},{"name":"C#3","midi":49,"time":415.3269576875018,"velocity":0.8031496062992126,"duration":0.11298077864580591},{"name":"B2","midi":47,"time":415.4423423125018,"velocity":0.8031496062992126,"duration":0.11298077864580591},{"name":"E5","midi":76,"time":415.4423423125018,"velocity":0.8031496062992126,"duration":0.22836540364579605},{"name":"C#3","midi":49,"time":415.5577269375018,"velocity":0.8031496062992126,"duration":0.11298077864580591},{"name":"D3","midi":50,"time":415.6731115625018,"velocity":0.8031496062992126,"duration":0.5745192786458233},{"name":"F#5","midi":78,"time":415.6731115625018,"velocity":0.8031496062992126,"duration":0.5745192786458233},{"name":"A#3","midi":58,"time":416.2500346875018,"velocity":0.8031496062992126,"duration":0.11298077864580591},{"name":"G5","midi":79,"time":416.2500346875018,"velocity":0.8031496062992126,"duration":0.11298077864580591},{"name":"A3","midi":57,"time":416.3654193125018,"velocity":0.8031496062992126,"duration":0.11298077864580591},{"name":"A5","midi":81,"time":416.3654193125018,"velocity":0.8031496062992126,"duration":0.11298077864580591},{"name":"G3","midi":55,"time":416.4808039375018,"velocity":0.8031496062992126,"duration":0.11298077864580591},{"name":"A#5","midi":82,"time":416.4808039375018,"velocity":0.8031496062992126,"duration":0.11298077864580591},{"name":"G3","midi":55,"time":416.59618856250177,"velocity":0.8031496062992126,"duration":0.11298077864580591},{"name":"C6","midi":84,"time":416.59618856250177,"velocity":0.8031496062992126,"duration":0.6899039036457566},{"name":"F#3","midi":54,"time":416.71157318750176,"velocity":0.8031496062992126,"duration":0.11298077864580591},{"name":"G3","midi":55,"time":416.82695781250175,"velocity":0.8031496062992126,"duration":0.11298077864580591},{"name":"F#3","midi":54,"time":416.94234243750174,"velocity":0.8031496062992126,"duration":0.11298077864580591},{"name":"G3","midi":55,"time":417.0577270625017,"velocity":0.8031496062992126,"duration":0.11298077864580591},{"name":"F#3","midi":54,"time":417.1731116875017,"velocity":0.8031496062992126,"duration":0.11298077864580591},{"name":"E3","midi":52,"time":417.2884963125017,"velocity":0.8031496062992126,"duration":0.11298077864580591},{"name":"A5","midi":81,"time":417.2884963125017,"velocity":0.8031496062992126,"duration":0.22836540364579605},{"name":"F#3","midi":54,"time":417.4038809375017,"velocity":0.8031496062992126,"duration":0.11298077864580591},{"name":"G3","midi":55,"time":417.5192655625017,"velocity":0.8031496062992126,"duration":0.5745192786458233},{"name":"A#5","midi":82,"time":417.5192655625017,"velocity":0.8031496062992126,"duration":1.6129809036457914},{"name":"A3","midi":57,"time":418.0961886875017,"velocity":0.8031496062992126,"duration":0.11298077864580591},{"name":"G3","midi":55,"time":418.2115733125017,"velocity":0.8031496062992126,"duration":0.11298077864580591},{"name":"D5","midi":74,"time":418.2115733125017,"velocity":0.8031496062992126,"duration":0.22836540364579605},{"name":"F3","midi":53,"time":418.3269579375017,"velocity":0.8031496062992126,"duration":0.11298077864580591},{"name":"E3","midi":52,"time":418.44234256250166,"velocity":0.8031496062992126,"duration":0.5745192786458233},{"name":"G5","midi":79,"time":418.44234256250166,"velocity":0.8031496062992126,"duration":0.6899039036458134},{"name":"F3","midi":53,"time":419.0192656875017,"velocity":0.8031496062992126,"duration":0.11298077864580591},{"name":"E3","midi":52,"time":419.13465031250166,"velocity":0.8031496062992126,"duration":0.11298077864580591},{"name":"D5","midi":74,"time":419.13465031250166,"velocity":0.8031496062992126,"duration":0.22836540364579605},{"name":"A5","midi":81,"time":419.13465031250166,"velocity":0.8031496062992126,"duration":0.22836540364579605},{"name":"D3","midi":50,"time":419.25003493750165,"velocity":0.8031496062992126,"duration":0.11298077864580591},{"name":"C#3","midi":49,"time":419.36541956250164,"velocity":0.8031496062992126,"duration":0.6899039036458134},{"name":"E5","midi":76,"time":419.36541956250164,"velocity":0.8031496062992126,"duration":0.5745192786458233},{"name":"G5","midi":79,"time":419.36541956250164,"velocity":0.8031496062992126,"duration":0.9206731536457937},{"name":"D5","midi":74,"time":419.94234268750165,"velocity":0.8031496062992126,"duration":0.11298077864580591},{"name":"A2","midi":45,"time":420.05772731250164,"velocity":0.8031496062992126,"duration":0.22836540364579605},{"name":"C#5","midi":73,"time":420.05772731250164,"velocity":0.8031496062992126,"duration":0.11298077864580591},{"name":"B4","midi":71,"time":420.17311193750163,"velocity":0.8031496062992126,"duration":0.11298077864580591},{"name":"D3","midi":50,"time":420.2884965625016,"velocity":0.8031496062992126,"duration":0.6899039036458134},{"name":"A4","midi":69,"time":420.2884965625016,"velocity":0.8031496062992126,"duration":0.6899039036458134},{"name":"F5","midi":77,"time":420.2884965625016,"velocity":0.8031496062992126,"duration":1.1514424036458308},{"name":"D2","midi":38,"time":420.9808043125016,"velocity":0.8031496062992126,"duration":0.2379807890624761},{"name":"C5","midi":72,"time":420.9808043125016,"velocity":0.8031496062992126,"duration":0.2379807890624761},{"name":"G2","midi":43,"time":421.2211889479183,"velocity":0.8031496062992126,"duration":1.8846155416665056},{"name":"A#4","midi":70,"time":421.2211889479183,"velocity":0.8031496062992126,"duration":0.7283654453124768},{"name":"E5","midi":76,"time":421.4663812760433,"velocity":0.8031496062992126,"duration":0.2379807890624761},{"name":"D5","midi":74,"time":421.7115736041683,"velocity":0.8031496062992126,"duration":0.2379807890624761},{"name":"G4","midi":67,"time":421.95676593229325,"velocity":0.8031496062992126,"duration":0.2379807890624761},{"name":"C#5","midi":73,"time":421.95676593229325,"velocity":0.8031496062992126,"duration":0.2379807890624761},{"name":"D4","midi":62,"time":422.2019582604182,"velocity":0.8031496062992126,"duration":0.72836544531242},{"name":"D5","midi":74,"time":422.2019582604182,"velocity":0.8031496062992126,"duration":0.2379807890624761},{"name":"E5","midi":76,"time":422.4471505885432,"velocity":0.8031496062992126,"duration":0.2379807890624761},{"name":"F5","midi":77,"time":422.69234291666817,"velocity":0.8031496062992126,"duration":0.2379807890624761},{"name":"F4","midi":65,"time":422.93753524479314,"velocity":0.8031496062992126,"duration":0.2379807890624761},{"name":"G5","midi":79,"time":422.93753524479314,"velocity":0.8031496062992126,"duration":0.11778847135417436},{"name":"A5","midi":81,"time":423.0601314088556,"velocity":0.8031496062992126,"duration":0.11778847135417436},{"name":"G3","midi":55,"time":423.180323726564,"velocity":0.8031496062992126,"duration":2.512019440104268},{"name":"E4","midi":64,"time":423.180323726564,"velocity":0.8031496062992126,"duration":0.6081731276041751},{"name":"A#5","midi":82,"time":423.180323726564,"velocity":0.8031496062992126,"duration":0.6081731276041751},{"name":"F4","midi":65,"time":423.79570839323065,"velocity":0.8031496062992126,"duration":0.11778847135417436},{"name":"A5","midi":81,"time":423.79570839323065,"velocity":0.8031496062992126,"duration":0.11778847135417436},{"name":"G4","midi":67,"time":423.915900710939,"velocity":0.8031496062992126,"duration":0.11778847135417436},{"name":"G5","midi":79,"time":423.915900710939,"velocity":0.8031496062992126,"duration":0.11778847135417436},{"name":"A4","midi":69,"time":424.0409007213557,"velocity":0.8031496062992126,"duration":0.11778847135417436},{"name":"F5","midi":77,"time":424.0409007213557,"velocity":0.8031496062992126,"duration":0.11778847135417436},{"name":"A#4","midi":70,"time":424.16109303906404,"velocity":0.8031496062992126,"duration":0.72836544531242},{"name":"E5","midi":76,"time":424.16109303906404,"velocity":0.8031496062992126,"duration":0.2379807890624761},{"name":"F5","midi":77,"time":424.406285367189,"velocity":0.8031496062992126,"duration":0.2379807890624761},{"name":"G5","midi":79,"time":424.651477695314,"velocity":0.8031496062992126,"duration":0.2379807890624761},{"name":"E5","midi":76,"time":424.89667002343896,"velocity":0.8031496062992126,"duration":0.24278848177084456},{"name":"G4","midi":67,"time":424.89667002343896,"velocity":0.8031496062992126,"duration":0.24278848177084456},{"name":"D5","midi":74,"time":425.1466700442723,"velocity":0.8031496062992126,"duration":0.12019231770835859},{"name":"A4","midi":69,"time":425.1466700442723,"velocity":0.8031496062992126,"duration":0.8629808411459976},{"name":"C#5","midi":73,"time":425.27407390104315,"velocity":0.8031496062992126,"duration":0.12019231770835859},{"name":"D5","midi":74,"time":425.3966700651057,"velocity":0.8031496062992126,"duration":0.12019231770835859},{"name":"C#5","midi":73,"time":425.52647776823073,"velocity":0.8031496062992126,"duration":0.12019231770835859},{"name":"D5","midi":74,"time":425.6490739322933,"velocity":0.8031496062992126,"duration":0.12019231770830174},{"name":"C#5","midi":73,"time":425.77888163541826,"velocity":0.8031496062992126,"duration":0.12019231770835859},{"name":"G3","midi":55,"time":425.77888163541826,"velocity":0.8031496062992126,"duration":0.12019231770835859},{"name":"B4","midi":71,"time":425.9014777994808,"velocity":0.8031496062992126,"duration":0.12019231770830174},{"name":"F3","midi":53,"time":425.9014777994808,"velocity":0.8031496062992126,"duration":0.12019231770830174},{"name":"A4","midi":69,"time":426.0288816562516,"velocity":0.8031496062992126,"duration":0.12019231770835859},{"name":"E3","midi":52,"time":426.0288816562516,"velocity":0.8031496062992126,"duration":0.12019231770835859},{"name":"F5","midi":77,"time":426.15388166666827,"velocity":0.8031496062992126,"duration":0.7500000625000212},{"name":"D5","midi":74,"time":426.15388166666827,"velocity":0.8031496062992126,"duration":1.002403929687489},{"name":"D3","midi":50,"time":426.15388166666827,"velocity":0.8031496062992126,"duration":0.625000052083351},{"name":"C3","midi":48,"time":426.7860932578141,"velocity":0.8031496062992126,"duration":0.12019231770835859},{"name":"A#2","midi":46,"time":426.9110932682308,"velocity":0.8031496062992126,"duration":0.12259616406248597},{"name":"F5","midi":77,"time":426.9110932682308,"velocity":0.8031496062992126,"duration":0.25000002083328354},{"name":"A2","midi":45,"time":427.04090097135577,"velocity":0.8031496062992126,"duration":0.12259616406248597},{"name":"G2","midi":43,"time":427.16590098177244,"velocity":0.8031496062992126,"duration":0.7716346796875087},{"name":"D5","midi":74,"time":427.16590098177244,"velocity":0.8031496062992126,"duration":1.0312500859374722},{"name":"F5","midi":77,"time":427.16590098177244,"velocity":0.8031496062992126,"duration":0.6418269765625269},{"name":"G5","midi":79,"time":427.8197471901058,"velocity":0.8031496062992126,"duration":0.12259616406248597},{"name":"G3","midi":55,"time":427.94715104687657,"velocity":0.8031496062992126,"duration":0.2500000208333404},{"name":"F5","midi":77,"time":427.94715104687657,"velocity":0.8031496062992126,"duration":0.12259616406248597},{"name":"E5","midi":76,"time":428.07936259635574,"velocity":0.8031496062992126,"duration":0.12259616406248597},{"name":"A3","midi":57,"time":428.2091702994807,"velocity":0.8031496062992126,"duration":0.771634679687395},{"name":"C#5","midi":73,"time":428.2091702994807,"velocity":0.8031496062992126,"duration":1.0240385468749196},{"name":"F5","midi":77,"time":428.2091702994807,"velocity":0.8031496062992126,"duration":0.12259616406248597},{"name":"E5","midi":76,"time":428.3389780026057,"velocity":0.8031496062992126,"duration":0.12259616406248597},{"name":"F5","midi":77,"time":428.4687857057307,"velocity":0.8031496062992126,"duration":0.12259616406248597},{"name":"E5","midi":76,"time":428.59859340885566,"velocity":0.8031496062992126,"duration":0.12259616406248597},{"name":"F5","midi":77,"time":428.72840111198065,"velocity":0.8031496062992126,"duration":0.12259616406248597},{"name":"E5","midi":76,"time":428.8582088151056,"velocity":0.8031496062992126,"duration":0.12259616406248597},{"name":"D5","midi":74,"time":428.9904203645848,"velocity":0.8031496062992126,"duration":0.2572115598958362},{"name":"A2","midi":45,"time":428.9904203645848,"velocity":0.8031496062992126,"duration":0.2572115598958362},{"name":"D5","midi":74,"time":429.25243961718894,"velocity":0.8031496062992126,"duration":5.331731213541843},{"name":"D3","midi":50,"time":429.25243961718894,"velocity":0.8031496062992126,"duration":5.329327367187659},{"name":"C5","midi":72,"time":429.92551659635564,"velocity":0.8031496062992126,"duration":0.1250000104166702},{"name":"A#4","midi":70,"time":430.0529204531265,"velocity":0.8031496062992126,"duration":0.1250000104166702},{"name":"F#3","midi":54,"time":430.0529204531265,"velocity":0.8031496062992126,"duration":0.2572115598958362},{"name":"A4","midi":69,"time":430.18993969531397,"velocity":0.8031496062992126,"duration":0.1250000104166702},{"name":"A#4","midi":70,"time":430.3245550911473,"velocity":0.8031496062992126,"duration":0.7932692968749961},{"name":"G3","midi":55,"time":430.3245550911473,"velocity":0.8031496062992126,"duration":0.7932692968749961},{"name":"G4","midi":67,"time":431.127439773439,"velocity":0.8031496062992126,"duration":0.9807693125000014},{"name":"A#3","midi":58,"time":431.127439773439,"velocity":0.8031496062992126,"duration":0.2716346380208279},{"name":"A3","midi":57,"time":431.4062859505223,"velocity":0.8031496062992126,"duration":3.3894233593751437},{"name":"G4","midi":67,"time":432.1779206302098,"velocity":0.8031496062992126,"duration":0.15865385937502197},{"name":"F#4","midi":66,"time":432.3558052604182,"velocity":0.8031496062992126,"duration":0.15865385937502197},{"name":"E4","midi":64,"time":432.5312860442724,"velocity":0.8031496062992126,"duration":0.15865385937502197},{"name":"F#4","midi":66,"time":432.7163822135433,"velocity":0.8031496062992126,"duration":2.1370194088542007}],"controlChanges":{"7":[{"number":7,"time":0,"value":0.7874015748031497}]},"id":1,"name":"Ger.8l","instrumentNumber":7,"instrument":"clavi","instrumentFamily":"piano","channelNumber":0,"isPercussion":false}]}