{"header":{"PPQ":384,"timeSignature":[4,4],"bpm":120,"name":"--------"},"startTime":0,"duration":760.0052083333558,"tracks":[{"startTime":0,"duration":0,"length":0,"notes":[],"controlChanges":{},"id":0,"name":"--------"},{"startTime":0.4049479166666667,"duration":760.0052083333558,"length":5313,"notes":[{"name":"D5","midi":74,"time":0.4049479166666667,"velocity":0.8031496062992126,"duration":0.3997395833333333},{"name":"D5","midi":74,"time":0.8098958333333334,"velocity":0.8031496062992126,"duration":0.39973958333333337},{"name":"A#4","midi":70,"time":1.21484375,"velocity":0.8031496062992126,"duration":0.39973958333333326},{"name":"A#4","midi":70,"time":1.6197916666666665,"velocity":0.8031496062992126,"duration":0.3997395833333335},{"name":"G4","midi":67,"time":1.6197916666666665,"velocity":0.8031496062992126,"duration":0.3997395833333335},{"name":"A#4","midi":70,"time":2.0247395833333335,"velocity":0.8031496062992126,"duration":0.3997395833333335},{"name":"G4","midi":67,"time":2.0247395833333335,"velocity":0.8031496062992126,"duration":0.3997395833333335},{"name":"F#4","midi":66,"time":2.4296875000000004,"velocity":0.8031496062992126,"duration":0.39973958333333304},{"name":"A4","midi":69,"time":2.4296875000000004,"velocity":0.8031496062992126,"duration":0.19791666666666652},{"name":"G4","midi":67,"time":2.631510416666667,"velocity":0.8031496062992126,"duration":0.19791666666666652},{"name":"F#4","midi":66,"time":2.834635416666667,"velocity":0.8031496062992126,"duration":0.39973958333333304},{"name":"D4","midi":62,"time":2.834635416666667,"velocity":0.8031496062992126,"duration":0.39973958333333304},{"name":"A4","midi":69,"time":2.834635416666667,"velocity":0.8031496062992126,"duration":0.19791666666666652},{"name":"A#4","midi":70,"time":3.0364583333333335,"velocity":0.8031496062992126,"duration":0.19791666666666652},{"name":"F#4","midi":66,"time":3.2395833333333335,"velocity":0.8031496062992126,"duration":0.39973958333333304},{"name":"D4","midi":62,"time":3.2395833333333335,"velocity":0.8031496062992126,"duration":0.39973958333333304},{"name":"A4","midi":69,"time":3.2395833333333335,"velocity":0.8031496062992126,"duration":0.19791666666666652},{"name":"A#4","midi":70,"time":3.44140625,"velocity":0.8031496062992126,"duration":0.19791666666666652},{"name":"A#3","midi":58,"time":3.64453125,"velocity":0.8031496062992126,"duration":0.39973958333333304},{"name":"D4","midi":62,"time":3.64453125,"velocity":0.8031496062992126,"duration":0.39973958333333304},{"name":"G4","midi":67,"time":3.64453125,"velocity":0.8031496062992126,"duration":0.19791666666666652},{"name":"F#4","midi":66,"time":3.8463541666666665,"velocity":0.8031496062992126,"duration":0.19791666666666652},{"name":"D4","midi":62,"time":4.049479166666666,"velocity":0.8031496062992126,"duration":0.3997395833333339},{"name":"A#3","midi":58,"time":4.049479166666666,"velocity":0.8031496062992126,"duration":0.3997395833333339},{"name":"G3","midi":55,"time":4.049479166666666,"velocity":0.8031496062992126,"duration":0.3997395833333339},{"name":"G4","midi":67,"time":4.049479166666666,"velocity":0.8031496062992126,"duration":0.19791666666666696},{"name":"A4","midi":69,"time":4.251302083333333,"velocity":0.8031496062992126,"duration":0.19791666666666696},{"name":"A#3","midi":58,"time":4.454427083333333,"velocity":0.8031496062992126,"duration":0.3997395833333339},{"name":"D4","midi":62,"time":4.454427083333333,"velocity":0.8031496062992126,"duration":0.3997395833333339},{"name":"G3","midi":55,"time":4.454427083333333,"velocity":0.8031496062992126,"duration":0.3997395833333339},{"name":"A#4","midi":70,"time":4.454427083333333,"velocity":0.8031496062992126,"duration":0.19791666666666696},{"name":"C5","midi":72,"time":4.65625,"velocity":0.8031496062992126,"duration":0.19791666666666696},{"name":"D4","midi":62,"time":4.859375,"velocity":0.8031496062992126,"duration":0.39973958333333304},{"name":"A3","midi":57,"time":4.859375,"velocity":0.8031496062992126,"duration":0.39973958333333304},{"name":"F#3","midi":54,"time":4.859375,"velocity":0.8031496062992126,"duration":0.39973958333333304},{"name":"D5","midi":74,"time":4.859375,"velocity":0.8031496062992126,"duration":0.19791666666666696},{"name":"C5","midi":72,"time":5.0625,"velocity":0.8031496062992126,"duration":0.19791666666666607},{"name":"D3","midi":50,"time":5.264322916666666,"velocity":0.8031496062992126,"duration":0.39973958333333304},{"name":"A3","midi":57,"time":5.264322916666666,"velocity":0.8031496062992126,"duration":0.39973958333333304},{"name":"F#3","midi":54,"time":5.264322916666666,"velocity":0.8031496062992126,"duration":0.39973958333333304},{"name":"D5","midi":74,"time":5.264322916666666,"velocity":0.8031496062992126,"duration":0.19791666666666696},{"name":"E5","midi":76,"time":5.467447916666666,"velocity":0.8031496062992126,"duration":0.19791666666666607},{"name":"D3","midi":50,"time":5.669270833333332,"velocity":0.8031496062992126,"duration":0.39973958333333304},{"name":"F#3","midi":54,"time":5.669270833333332,"velocity":0.8031496062992126,"duration":0.39973958333333304},{"name":"A3","midi":57,"time":5.669270833333332,"velocity":0.8031496062992126,"duration":0.39973958333333304},{"name":"F#5","midi":78,"time":5.669270833333332,"velocity":0.8031496062992126,"duration":0.19791666666666696},{"name":"D5","midi":74,"time":5.872395833333332,"velocity":0.8031496062992126,"duration":0.19791666666666607},{"name":"A#2","midi":46,"time":6.074218749999998,"velocity":0.8031496062992126,"duration":0.39973958333333304},{"name":"G3","midi":55,"time":6.074218749999998,"velocity":0.8031496062992126,"duration":0.39973958333333304},{"name":"D3","midi":50,"time":6.074218749999998,"velocity":0.8031496062992126,"duration":0.39973958333333304},{"name":"G5","midi":79,"time":6.074218749999998,"velocity":0.8031496062992126,"duration":0.19791666666666696},{"name":"F#5","midi":78,"time":6.277343749999998,"velocity":0.8031496062992126,"duration":0.19791666666666607},{"name":"G2","midi":43,"time":6.479166666666664,"velocity":0.8031496062992126,"duration":0.39973958333333304},{"name":"A#2","midi":46,"time":6.479166666666664,"velocity":0.8031496062992126,"duration":0.39973958333333304},{"name":"G3","midi":55,"time":6.479166666666664,"velocity":0.8031496062992126,"duration":0.39973958333333304},{"name":"D3","midi":50,"time":6.479166666666664,"velocity":0.8031496062992126,"duration":0.39973958333333304},{"name":"G5","midi":79,"time":6.479166666666664,"velocity":0.8031496062992126,"duration":0.19791666666666696},{"name":"A5","midi":81,"time":6.682291666666664,"velocity":0.8031496062992126,"duration":0.19791666666666607},{"name":"A#2","midi":46,"time":6.88411458333333,"velocity":0.8031496062992126,"duration":0.39973958333333304},{"name":"G2","midi":43,"time":6.88411458333333,"velocity":0.8031496062992126,"duration":0.39973958333333304},{"name":"D3","midi":50,"time":6.88411458333333,"velocity":0.8031496062992126,"duration":0.39973958333333304},{"name":"A#5","midi":82,"time":6.88411458333333,"velocity":0.8031496062992126,"duration":0.19791666666666696},{"name":"G5","midi":79,"time":7.08723958333333,"velocity":0.8031496062992126,"duration":0.19791666666666607},{"name":"A2","midi":45,"time":7.2890624999999964,"velocity":0.8031496062992126,"duration":0.9270833333333339},{"name":"F#2","midi":42,"time":7.2890624999999964,"velocity":0.8031496062992126,"duration":0.9270833333333339},{"name":"D2","midi":38,"time":7.2890624999999964,"velocity":0.8031496062992126,"duration":0.9270833333333339},{"name":"D3","midi":50,"time":7.2890624999999964,"velocity":0.8031496062992126,"duration":0.9270833333333339},{"name":"A5","midi":81,"time":7.2890624999999964,"velocity":0.8031496062992126,"duration":0.19791666666666696},{"name":"G5","midi":79,"time":7.4921874999999964,"velocity":0.8031496062992126,"duration":0.19791666666666696},{"name":"F#5","midi":78,"time":7.694010416666663,"velocity":0.8031496062992126,"duration":0.19791666666666696},{"name":"E5","midi":76,"time":7.897135416666663,"velocity":0.8031496062992126,"duration":0.19791666666666696},{"name":"D5","midi":74,"time":8.09895833333333,"velocity":0.8031496062992126,"duration":0.19791666666666607},{"name":"C5","midi":72,"time":8.30208333333333,"velocity":0.8031496062992126,"duration":0.19791666666666607},{"name":"A#4","midi":70,"time":8.503906249999996,"velocity":0.8031496062992126,"duration":0.3997395833333339},{"name":"A4","midi":69,"time":8.707031249999996,"velocity":0.8031496062992126,"duration":0.19791666666666785},{"name":"G4","midi":67,"time":8.908854166666664,"velocity":0.8031496062992126,"duration":0.19791666666666607},{"name":"D5","midi":74,"time":8.908854166666664,"velocity":0.8031496062992126,"duration":0.3997395833333339},{"name":"A#4","midi":70,"time":8.908854166666664,"velocity":0.8031496062992126,"duration":0.3997395833333339},{"name":"G5","midi":79,"time":8.908854166666664,"velocity":0.8031496062992126,"duration":0.3997395833333339},{"name":"F4","midi":65,"time":9.111979166666664,"velocity":0.8031496062992126,"duration":0.19791666666666785},{"name":"D#4","midi":63,"time":9.313802083333332,"velocity":0.8031496062992126,"duration":0.19791666666666607},{"name":"D5","midi":74,"time":9.313802083333332,"velocity":0.8031496062992126,"duration":0.3997395833333339},{"name":"A#4","midi":70,"time":9.313802083333332,"velocity":0.8031496062992126,"duration":0.3997395833333339},{"name":"G5","midi":79,"time":9.313802083333332,"velocity":0.8031496062992126,"duration":0.3997395833333339},{"name":"D4","midi":62,"time":9.516927083333332,"velocity":0.8031496062992126,"duration":0.19791666666666785},{"name":"C4","midi":60,"time":9.71875,"velocity":0.8031496062992126,"duration":0.19791666666666607},{"name":"D#5","midi":75,"time":9.71875,"velocity":0.8031496062992126,"duration":0.19791666666666607},{"name":"C5","midi":72,"time":9.71875,"velocity":0.8031496062992126,"duration":0.59765625},{"name":"D4","midi":62,"time":9.921875,"velocity":0.8031496062992126,"duration":0.19791666666666607},{"name":"F5","midi":77,"time":9.921875,"velocity":0.8031496062992126,"duration":0.19791666666666607},{"name":"C4","midi":60,"time":10.125,"velocity":0.8031496062992126,"duration":0.19791666666666607},{"name":"D#5","midi":75,"time":10.125,"velocity":0.8031496062992126,"duration":0.19791666666666607},{"name":"A#3","midi":58,"time":10.326822916666666,"velocity":0.8031496062992126,"duration":0.19791666666666607},{"name":"D5","midi":74,"time":10.326822916666666,"velocity":0.8031496062992126,"duration":0.19791666666666607},{"name":"A3","midi":57,"time":10.529947916666666,"velocity":0.8031496062992126,"duration":0.19791666666666607},{"name":"C5","midi":72,"time":10.529947916666666,"velocity":0.8031496062992126,"duration":0.19791666666666607},{"name":"G3","midi":55,"time":10.731770833333332,"velocity":0.8031496062992126,"duration":0.19791666666666607},{"name":"A#4","midi":70,"time":10.731770833333332,"velocity":0.8031496062992126,"duration":0.19791666666666607},{"name":"F3","midi":53,"time":10.934895833333332,"velocity":0.8031496062992126,"duration":0.19791666666666607},{"name":"A4","midi":69,"time":10.934895833333332,"velocity":0.8031496062992126,"duration":0.39973958333333215},{"name":"G4","midi":67,"time":11.136718749999998,"velocity":0.8031496062992126,"duration":0.19791666666666607},{"name":"F4","midi":65,"time":11.339843749999998,"velocity":0.8031496062992126,"duration":0.19791666666666607},{"name":"F5","midi":77,"time":11.339843749999998,"velocity":0.8031496062992126,"duration":0.39973958333333215},{"name":"C5","midi":72,"time":11.339843749999998,"velocity":0.8031496062992126,"duration":0.39973958333333215},{"name":"A4","midi":69,"time":11.339843749999998,"velocity":0.8031496062992126,"duration":0.39973958333333215},{"name":"D#4","midi":63,"time":11.541666666666664,"velocity":0.8031496062992126,"duration":0.19791666666666607},{"name":"D4","midi":62,"time":11.744791666666664,"velocity":0.8031496062992126,"duration":0.19791666666666607},{"name":"A4","midi":69,"time":11.744791666666664,"velocity":0.8031496062992126,"duration":0.39973958333333215},{"name":"F5","midi":77,"time":11.744791666666664,"velocity":0.8031496062992126,"duration":0.39973958333333215},{"name":"C5","midi":72,"time":11.744791666666664,"velocity":0.8031496062992126,"duration":0.39973958333333215},{"name":"C4","midi":60,"time":11.94661458333333,"velocity":0.8031496062992126,"duration":0.19791666666666607},{"name":"A#3","midi":58,"time":12.14973958333333,"velocity":0.8031496062992126,"duration":0.19791666666666607},{"name":"D5","midi":74,"time":12.14973958333333,"velocity":0.8031496062992126,"duration":0.19791666666666607},{"name":"A#4","midi":70,"time":12.14973958333333,"velocity":0.8031496062992126,"duration":0.58984375},{"name":"C4","midi":60,"time":12.351562499999996,"velocity":0.8031496062992126,"duration":0.19791666666666607},{"name":"D#5","midi":75,"time":12.351562499999996,"velocity":0.8031496062992126,"duration":0.19791666666666607},{"name":"A#3","midi":58,"time":12.554687499999996,"velocity":0.8031496062992126,"duration":0.19791666666666785},{"name":"D5","midi":74,"time":12.554687499999996,"velocity":0.8031496062992126,"duration":0.19791666666666785},{"name":"A3","midi":57,"time":12.756510416666664,"velocity":0.8031496062992126,"duration":0.19791666666666607},{"name":"C5","midi":72,"time":12.756510416666664,"velocity":0.8031496062992126,"duration":0.19791666666666607},{"name":"G3","midi":55,"time":12.959635416666664,"velocity":0.8031496062992126,"duration":0.19791666666666607},{"name":"A#4","midi":70,"time":12.959635416666664,"velocity":0.8031496062992126,"duration":0.19791666666666607},{"name":"F3","midi":53,"time":13.16145833333333,"velocity":0.8031496062992126,"duration":0.19791666666666607},{"name":"A4","midi":69,"time":13.16145833333333,"velocity":0.8031496062992126,"duration":0.19791666666666607},{"name":"D#3","midi":51,"time":13.36458333333333,"velocity":0.8031496062992126,"duration":0.19791666666666607},{"name":"G4","midi":67,"time":13.36458333333333,"velocity":0.8031496062992126,"duration":0.39973958333333215},{"name":"F4","midi":65,"time":13.566406249999996,"velocity":0.8031496062992126,"duration":0.19791666666666607},{"name":"D#4","midi":63,"time":13.769531249999996,"velocity":0.8031496062992126,"duration":0.19791666666666607},{"name":"D#5","midi":75,"time":13.769531249999996,"velocity":0.8031496062992126,"duration":0.39973958333333215},{"name":"A#4","midi":70,"time":13.769531249999996,"velocity":0.8031496062992126,"duration":0.39973958333333215},{"name":"G4","midi":67,"time":13.769531249999996,"velocity":0.8031496062992126,"duration":0.39973958333333215},{"name":"D4","midi":62,"time":13.971354166666663,"velocity":0.8031496062992126,"duration":0.19791666666666607},{"name":"C4","midi":60,"time":14.174479166666663,"velocity":0.8031496062992126,"duration":0.19791666666666607},{"name":"D#5","midi":75,"time":14.174479166666663,"velocity":0.8031496062992126,"duration":0.39973958333333215},{"name":"A#4","midi":70,"time":14.174479166666663,"velocity":0.8031496062992126,"duration":0.39973958333333215},{"name":"G4","midi":67,"time":14.174479166666663,"velocity":0.8031496062992126,"duration":0.39973958333333215},{"name":"A#3","midi":58,"time":14.376302083333329,"velocity":0.8031496062992126,"duration":0.19791666666666607},{"name":"A3","midi":57,"time":14.579427083333329,"velocity":0.8031496062992126,"duration":0.19791666666666607},{"name":"C5","midi":72,"time":14.579427083333329,"velocity":0.8031496062992126,"duration":0.19791666666666607},{"name":"G4","midi":67,"time":14.579427083333329,"velocity":0.8031496062992126,"duration":0.8046875},{"name":"A#3","midi":58,"time":14.781249999999995,"velocity":0.8031496062992126,"duration":0.19791666666666607},{"name":"D5","midi":74,"time":14.781249999999995,"velocity":0.8031496062992126,"duration":0.19791666666666607},{"name":"A3","midi":57,"time":14.984374999999995,"velocity":0.8031496062992126,"duration":0.19791666666666607},{"name":"C5","midi":72,"time":14.984374999999995,"velocity":0.8031496062992126,"duration":0.19791666666666607},{"name":"G3","midi":55,"time":15.187499999999995,"velocity":0.8031496062992126,"duration":0.19791666666666785},{"name":"A#4","midi":70,"time":15.187499999999995,"velocity":0.8031496062992126,"duration":0.19791666666666785},{"name":"F#3","midi":54,"time":15.389322916666663,"velocity":0.8031496062992126,"duration":0.19791666666666607},{"name":"A4","midi":69,"time":15.389322916666663,"velocity":0.8031496062992126,"duration":0.19791666666666607},{"name":"E3","midi":52,"time":15.592447916666663,"velocity":0.8031496062992126,"duration":0.19791666666666607},{"name":"G4","midi":67,"time":15.592447916666663,"velocity":0.8031496062992126,"duration":0.19791666666666607},{"name":"D3","midi":50,"time":15.794270833333329,"velocity":0.8031496062992126,"duration":0.19791666666666607},{"name":"F#4","midi":66,"time":15.794270833333329,"velocity":0.8031496062992126,"duration":0.39973958333333215},{"name":"D#3","midi":51,"time":15.997395833333329,"velocity":0.8031496062992126,"duration":0.1979166666666643},{"name":"D3","midi":50,"time":16.199218749999993,"velocity":0.8031496062992126,"duration":0.19791666666666785},{"name":"A4","midi":69,"time":16.199218749999993,"velocity":0.8031496062992126,"duration":0.39973958333333215},{"name":"F#4","midi":66,"time":16.199218749999993,"velocity":0.8031496062992126,"duration":0.39973958333333215},{"name":"D5","midi":74,"time":16.199218749999993,"velocity":0.8031496062992126,"duration":0.39973958333333215},{"name":"C3","midi":48,"time":16.402343749999993,"velocity":0.8031496062992126,"duration":0.1979166666666643},{"name":"A#2","midi":46,"time":16.604166666666657,"velocity":0.8031496062992126,"duration":0.19791666666666785},{"name":"A4","midi":69,"time":16.604166666666657,"velocity":0.8031496062992126,"duration":0.39973958333333215},{"name":"F#4","midi":66,"time":16.604166666666657,"velocity":0.8031496062992126,"duration":0.39973958333333215},{"name":"D5","midi":74,"time":16.604166666666657,"velocity":0.8031496062992126,"duration":0.39973958333333215},{"name":"A2","midi":45,"time":16.807291666666657,"velocity":0.8031496062992126,"duration":0.1979166666666643},{"name":"G2","midi":43,"time":17.00911458333332,"velocity":0.8031496062992126,"duration":0.19791666666666785},{"name":"D4","midi":62,"time":17.00911458333332,"velocity":0.8031496062992126,"duration":1.212239583333325},{"name":"A#4","midi":70,"time":17.00911458333332,"velocity":0.8031496062992126,"duration":0.39973958333333215},{"name":"G4","midi":67,"time":17.00911458333332,"velocity":0.8031496062992126,"duration":0.39973958333333215},{"name":"A2","midi":45,"time":17.21223958333332,"velocity":0.8031496062992126,"duration":0.1979166666666643},{"name":"G2","midi":43,"time":17.414062499999986,"velocity":0.8031496062992126,"duration":0.19791666666666785},{"name":"A#4","midi":70,"time":17.414062499999986,"velocity":0.8031496062992126,"duration":0.39973958333333215},{"name":"G4","midi":67,"time":17.414062499999986,"velocity":0.8031496062992126,"duration":0.39973958333333215},{"name":"F2","midi":41,"time":17.617187499999986,"velocity":0.8031496062992126,"duration":0.1979166666666643},{"name":"D#2","midi":39,"time":17.81901041666665,"velocity":0.8031496062992126,"duration":0.19791666666666785},{"name":"A#4","midi":70,"time":17.81901041666665,"velocity":0.8031496062992126,"duration":0.39973958333333215},{"name":"G4","midi":67,"time":17.81901041666665,"velocity":0.8031496062992126,"duration":0.39973958333333215},{"name":"D2","midi":38,"time":18.02213541666665,"velocity":0.8031496062992126,"duration":0.1979166666666643},{"name":"C2","midi":36,"time":18.223958333333314,"velocity":0.8031496062992126,"duration":0.39973958333333215},{"name":"D#4","midi":63,"time":18.223958333333314,"velocity":0.8031496062992126,"duration":0.19791666666666785},{"name":"A#4","midi":70,"time":18.223958333333314,"velocity":0.8031496062992126,"duration":1.212239583333325},{"name":"D4","midi":62,"time":18.427083333333314,"velocity":0.8031496062992126,"duration":0.1979166666666643},{"name":"C3","midi":48,"time":18.62890624999998,"velocity":0.8031496062992126,"duration":0.39973958333333215},{"name":"D#4","midi":63,"time":18.62890624999998,"velocity":0.8031496062992126,"duration":0.19791666666666785},{"name":"F4","midi":65,"time":18.83203124999998,"velocity":0.8031496062992126,"duration":0.1979166666666643},{"name":"C3","midi":48,"time":19.033854166666643,"velocity":0.8031496062992126,"duration":0.39973958333333215},{"name":"G4","midi":67,"time":19.033854166666643,"velocity":0.8031496062992126,"duration":0.19791666666666785},{"name":"D#4","midi":63,"time":19.236979166666643,"velocity":0.8031496062992126,"duration":0.1979166666666643},{"name":"F2","midi":41,"time":19.438802083333307,"velocity":0.8031496062992126,"duration":0.39973958333333215},{"name":"A4","midi":69,"time":19.438802083333307,"velocity":0.8031496062992126,"duration":2.42578125},{"name":"C4","midi":60,"time":19.438802083333307,"velocity":0.8031496062992126,"duration":0.19791666666666785},{"name":"G4","midi":67,"time":19.641927083333307,"velocity":0.8031496062992126,"duration":0.1979166666666643},{"name":"F3","midi":53,"time":19.84374999999997,"velocity":0.8031496062992126,"duration":0.39973958333333215},{"name":"F4","midi":65,"time":19.84374999999997,"velocity":0.8031496062992126,"duration":0.19791666666666785},{"name":"D#4","midi":63,"time":20.04687499999997,"velocity":0.8031496062992126,"duration":0.1979166666666643},{"name":"F3","midi":53,"time":20.249999999999968,"velocity":0.8031496062992126,"duration":0.3997395833333357},{"name":"D4","midi":62,"time":20.249999999999968,"velocity":0.8031496062992126,"duration":0.19791666666666785},{"name":"C4","midi":60,"time":20.451822916666636,"velocity":0.8031496062992126,"duration":0.19791666666666785},{"name":"A#3","midi":58,"time":20.654947916666636,"velocity":0.8031496062992126,"duration":0.3997395833333357},{"name":"D4","midi":62,"time":20.654947916666636,"velocity":0.8031496062992126,"duration":0.19791666666666785},{"name":"C4","midi":60,"time":20.856770833333304,"velocity":0.8031496062992126,"duration":0.19791666666666785},{"name":"A#2","midi":46,"time":21.059895833333304,"velocity":0.8031496062992126,"duration":0.3997395833333357},{"name":"D4","midi":62,"time":21.059895833333304,"velocity":0.8031496062992126,"duration":0.19791666666666785},{"name":"D#4","midi":63,"time":21.26171874999997,"velocity":0.8031496062992126,"duration":0.19791666666666785},{"name":"A#2","midi":46,"time":21.46484374999997,"velocity":0.8031496062992126,"duration":0.3997395833333357},{"name":"F4","midi":65,"time":21.46484374999997,"velocity":0.8031496062992126,"duration":0.19791666666666785},{"name":"D4","midi":62,"time":21.66666666666664,"velocity":0.8031496062992126,"duration":0.19791666666666785},{"name":"D#2","midi":39,"time":21.86979166666664,"velocity":0.8031496062992126,"duration":0.3997395833333357},{"name":"A#3","midi":58,"time":21.86979166666664,"velocity":0.8031496062992126,"duration":0.19791666666666785},{"name":"G4","midi":67,"time":21.86979166666664,"velocity":0.8031496062992126,"duration":2.425781250000007},{"name":"F4","midi":65,"time":22.071614583333307,"velocity":0.8031496062992126,"duration":0.19791666666666785},{"name":"D#3","midi":51,"time":22.274739583333307,"velocity":0.8031496062992126,"duration":0.3997395833333357},{"name":"D#4","midi":63,"time":22.274739583333307,"velocity":0.8031496062992126,"duration":0.19791666666666785},{"name":"D4","midi":62,"time":22.476562499999975,"velocity":0.8031496062992126,"duration":0.19791666666666785},{"name":"D#3","midi":51,"time":22.679687499999975,"velocity":0.8031496062992126,"duration":0.3997395833333357},{"name":"C4","midi":60,"time":22.679687499999975,"velocity":0.8031496062992126,"duration":0.19791666666666785},{"name":"A#3","midi":58,"time":22.881510416666643,"velocity":0.8031496062992126,"duration":0.19791666666666785},{"name":"A3","midi":57,"time":23.084635416666643,"velocity":0.8031496062992126,"duration":0.3997395833333357},{"name":"C4","midi":60,"time":23.084635416666643,"velocity":0.8031496062992126,"duration":0.19791666666666785},{"name":"A#3","midi":58,"time":23.28645833333331,"velocity":0.8031496062992126,"duration":0.19791666666666785},{"name":"A2","midi":45,"time":23.48958333333331,"velocity":0.8031496062992126,"duration":0.3997395833333357},{"name":"C4","midi":60,"time":23.48958333333331,"velocity":0.8031496062992126,"duration":0.19791666666666785},{"name":"D4","midi":62,"time":23.69140624999998,"velocity":0.8031496062992126,"duration":0.19791666666666785},{"name":"A2","midi":45,"time":23.89453124999998,"velocity":0.8031496062992126,"duration":0.3997395833333357},{"name":"D#4","midi":63,"time":23.89453124999998,"velocity":0.8031496062992126,"duration":0.19791666666666785},{"name":"C4","midi":60,"time":24.096354166666647,"velocity":0.8031496062992126,"duration":0.19791666666666785},{"name":"D2","midi":38,"time":24.299479166666647,"velocity":0.8031496062992126,"duration":0.58984375},{"name":"F#4","midi":66,"time":24.299479166666647,"velocity":0.8031496062992126,"duration":1.2122395833333321},{"name":"A3","midi":57,"time":24.299479166666647,"velocity":0.8031496062992126,"duration":0.19791666666666785},{"name":"D#4","midi":63,"time":24.501302083333314,"velocity":0.8031496062992126,"duration":0.19791666666666785},{"name":"D4","midi":62,"time":24.704427083333314,"velocity":0.8031496062992126,"duration":0.1979166666666643},{"name":"C4","midi":60,"time":24.90624999999998,"velocity":0.8031496062992126,"duration":0.19791666666666785},{"name":"A#3","midi":58,"time":25.10937499999998,"velocity":0.8031496062992126,"duration":0.19791666666666785},{"name":"A3","midi":57,"time":25.31249999999998,"velocity":0.8031496062992126,"duration":0.19791666666666785},{"name":"A#3","midi":58,"time":25.514322916666647,"velocity":0.8031496062992126,"duration":0.19791666666666785},{"name":"A4","midi":69,"time":25.514322916666647,"velocity":0.8031496062992126,"duration":0.09635416666666785},{"name":"G4","midi":67,"time":25.615885416666647,"velocity":0.8031496062992126,"duration":0.09635416666666785},{"name":"D4","midi":62,"time":25.717447916666647,"velocity":0.8031496062992126,"duration":0.19791666666666785},{"name":"F#4","midi":66,"time":25.717447916666647,"velocity":0.8031496062992126,"duration":0.09635416666666785},{"name":"G4","midi":67,"time":25.817708333333314,"velocity":0.8031496062992126,"duration":0.09635416666666785},{"name":"C4","midi":60,"time":25.919270833333314,"velocity":0.8031496062992126,"duration":0.19791666666666785},{"name":"A4","midi":69,"time":25.919270833333314,"velocity":0.8031496062992126,"duration":0.09635416666666785},{"name":"G4","midi":67,"time":26.020833333333314,"velocity":0.8031496062992126,"duration":0.09635416666666785},{"name":"A#3","midi":58,"time":26.122395833333314,"velocity":0.8031496062992126,"duration":0.19791666666666785},{"name":"A4","midi":69,"time":26.122395833333314,"velocity":0.8031496062992126,"duration":0.09635416666666785},{"name":"G4","midi":67,"time":26.222656249999982,"velocity":0.8031496062992126,"duration":0.09635416666666785},{"name":"A3","midi":57,"time":26.324218749999982,"velocity":0.8031496062992126,"duration":0.19791666666666785},{"name":"A4","midi":69,"time":26.324218749999982,"velocity":0.8031496062992126,"duration":0.09635416666666785},{"name":"G4","midi":67,"time":26.425781249999982,"velocity":0.8031496062992126,"duration":0.09635416666666785},{"name":"G3","midi":55,"time":26.527343749999982,"velocity":0.8031496062992126,"duration":0.19791666666666785},{"name":"F#4","midi":66,"time":26.527343749999982,"velocity":0.8031496062992126,"duration":0.09635416666666785},{"name":"G4","midi":67,"time":26.62760416666665,"velocity":0.8031496062992126,"duration":0.09635416666666785},{"name":"F#3","midi":54,"time":26.72916666666665,"velocity":0.8031496062992126,"duration":0.19791666666666785},{"name":"A4","midi":69,"time":26.72916666666665,"velocity":0.8031496062992126,"duration":0.39973958333333215},{"name":"G3","midi":55,"time":26.93229166666665,"velocity":0.8031496062992126,"duration":0.1979166666666643},{"name":"F#3","midi":54,"time":27.134114583333314,"velocity":0.8031496062992126,"duration":0.19791666666666785},{"name":"D5","midi":74,"time":27.134114583333314,"velocity":0.8031496062992126,"duration":0.39973958333333215},{"name":"A4","midi":69,"time":27.134114583333314,"velocity":0.8031496062992126,"duration":0.39973958333333215},{"name":"F#4","midi":66,"time":27.134114583333314,"velocity":0.8031496062992126,"duration":0.39973958333333215},{"name":"E3","midi":52,"time":27.337239583333314,"velocity":0.8031496062992126,"duration":0.1979166666666643},{"name":"D3","midi":50,"time":27.53906249999998,"velocity":0.8031496062992126,"duration":0.19791666666666785},{"name":"F#4","midi":66,"time":27.53906249999998,"velocity":0.8031496062992126,"duration":0.39973958333333215},{"name":"D5","midi":74,"time":27.53906249999998,"velocity":0.8031496062992126,"duration":0.39973958333333215},{"name":"A4","midi":69,"time":27.53906249999998,"velocity":0.8031496062992126,"duration":0.39973958333333215},{"name":"C3","midi":48,"time":27.74218749999998,"velocity":0.8031496062992126,"duration":0.1979166666666643},{"name":"B2","midi":47,"time":27.944010416666643,"velocity":0.8031496062992126,"duration":0.19791666666666785},{"name":"F5","midi":77,"time":27.944010416666643,"velocity":0.8031496062992126,"duration":0.39973958333333215},{"name":"B4","midi":71,"time":27.944010416666643,"velocity":0.8031496062992126,"duration":0.39973958333333215},{"name":"G4","midi":67,"time":27.944010416666643,"velocity":0.8031496062992126,"duration":0.39973958333333215},{"name":"D5","midi":74,"time":27.944010416666643,"velocity":0.8031496062992126,"duration":0.39973958333333215},{"name":"A2","midi":45,"time":28.147135416666643,"velocity":0.8031496062992126,"duration":0.1979166666666643},{"name":"G2","midi":43,"time":28.348958333333307,"velocity":0.8031496062992126,"duration":0.19791666666666785},{"name":"G4","midi":67,"time":28.348958333333307,"velocity":0.8031496062992126,"duration":0.39973958333333215},{"name":"F5","midi":77,"time":28.348958333333307,"velocity":0.8031496062992126,"duration":0.39973958333333215},{"name":"D5","midi":74,"time":28.348958333333307,"velocity":0.8031496062992126,"duration":0.39973958333333215},{"name":"B4","midi":71,"time":28.348958333333307,"velocity":0.8031496062992126,"duration":0.39973958333333215},{"name":"F2","midi":41,"time":28.552083333333307,"velocity":0.8031496062992126,"duration":0.1979166666666643},{"name":"E2","midi":40,"time":28.75390624999997,"velocity":0.8031496062992126,"duration":0.19791666666666785},{"name":"F5","midi":77,"time":28.75390624999997,"velocity":0.8031496062992126,"duration":0.39973958333333215},{"name":"B4","midi":71,"time":28.75390624999997,"velocity":0.8031496062992126,"duration":0.39973958333333215},{"name":"G4","midi":67,"time":28.75390624999997,"velocity":0.8031496062992126,"duration":0.39973958333333215},{"name":"D5","midi":74,"time":28.75390624999997,"velocity":0.8031496062992126,"duration":0.39973958333333215},{"name":"D2","midi":38,"time":28.95703124999997,"velocity":0.8031496062992126,"duration":0.1979166666666643},{"name":"C2","midi":36,"time":29.158854166666636,"velocity":0.8031496062992126,"duration":0.39973958333333215},{"name":"G4","midi":67,"time":29.158854166666636,"velocity":0.8031496062992126,"duration":0.7721354166666643},{"name":"D5","midi":74,"time":29.158854166666636,"velocity":0.8031496062992126,"duration":0.39973958333333215},{"name":"B4","midi":71,"time":29.158854166666636,"velocity":0.8031496062992126,"duration":0.39973958333333215},{"name":"F5","midi":77,"time":29.158854166666636,"velocity":0.8031496062992126,"duration":0.39973958333333215},{"name":"G3","midi":55,"time":29.5638020833333,"velocity":0.8031496062992126,"duration":0.19791666666666785},{"name":"C5","midi":72,"time":29.5638020833333,"velocity":0.8031496062992126,"duration":0.37760416666666785},{"name":"E5","midi":76,"time":29.5638020833333,"velocity":0.8031496062992126,"duration":0.37760416666666785},{"name":"F3","midi":53,"time":29.7669270833333,"velocity":0.8031496062992126,"duration":0.19791666666666785},{"name":"E3","midi":52,"time":29.968749999999968,"velocity":0.8031496062992126,"duration":0.19791666666666785},{"name":"G4","midi":67,"time":29.968749999999968,"velocity":0.8031496062992126,"duration":0.39973958333333215},{"name":"E5","midi":76,"time":29.968749999999968,"velocity":0.8031496062992126,"duration":0.39973958333333215},{"name":"C5","midi":72,"time":29.968749999999968,"velocity":0.8031496062992126,"duration":0.39973958333333215},{"name":"D3","midi":50,"time":30.171874999999968,"velocity":0.8031496062992126,"duration":0.1979166666666643},{"name":"C#3","midi":49,"time":30.374999999999964,"velocity":0.8031496062992126,"duration":0.19791666666666785},{"name":"C#5","midi":73,"time":30.374999999999964,"velocity":0.8031496062992126,"duration":0.3997395833333357},{"name":"A4","midi":69,"time":30.374999999999964,"velocity":0.8031496062992126,"duration":0.3997395833333357},{"name":"G5","midi":79,"time":30.374999999999964,"velocity":0.8031496062992126,"duration":0.3997395833333357},{"name":"E5","midi":76,"time":30.374999999999964,"velocity":0.8031496062992126,"duration":0.3997395833333357},{"name":"B2","midi":47,"time":30.576822916666632,"velocity":0.8031496062992126,"duration":0.19791666666666785},{"name":"A2","midi":45,"time":30.779947916666632,"velocity":0.8031496062992126,"duration":0.19791666666666785},{"name":"A4","midi":69,"time":30.779947916666632,"velocity":0.8031496062992126,"duration":0.3997395833333357},{"name":"G5","midi":79,"time":30.779947916666632,"velocity":0.8031496062992126,"duration":0.3997395833333357},{"name":"E5","midi":76,"time":30.779947916666632,"velocity":0.8031496062992126,"duration":0.3997395833333357},{"name":"C#5","midi":73,"time":30.779947916666632,"velocity":0.8031496062992126,"duration":0.3997395833333357},{"name":"G2","midi":43,"time":30.9817708333333,"velocity":0.8031496062992126,"duration":0.19791666666666785},{"name":"F#2","midi":42,"time":31.1848958333333,"velocity":0.8031496062992126,"duration":0.19791666666666785},{"name":"C#5","midi":73,"time":31.1848958333333,"velocity":0.8031496062992126,"duration":0.3997395833333357},{"name":"A4","midi":69,"time":31.1848958333333,"velocity":0.8031496062992126,"duration":0.3997395833333357},{"name":"G5","midi":79,"time":31.1848958333333,"velocity":0.8031496062992126,"duration":0.3997395833333357},{"name":"E5","midi":76,"time":31.1848958333333,"velocity":0.8031496062992126,"duration":0.3997395833333357},{"name":"E2","midi":40,"time":31.386718749999968,"velocity":0.8031496062992126,"duration":0.19791666666666785},{"name":"D2","midi":38,"time":31.589843749999968,"velocity":0.8031496062992126,"duration":0.39973958333333215},{"name":"C#5","midi":73,"time":31.589843749999968,"velocity":0.8031496062992126,"duration":0.39973958333333215},{"name":"G5","midi":79,"time":31.589843749999968,"velocity":0.8031496062992126,"duration":0.39973958333333215},{"name":"E5","midi":76,"time":31.589843749999968,"velocity":0.8031496062992126,"duration":0.39973958333333215},{"name":"A4","midi":69,"time":31.589843749999968,"velocity":0.8031496062992126,"duration":0.7682291666666679},{"name":"C4","midi":60,"time":31.994791666666632,"velocity":0.8031496062992126,"duration":0.19791666666666785},{"name":"F#5","midi":78,"time":31.994791666666632,"velocity":0.8031496062992126,"duration":0.37760416666666785},{"name":"D5","midi":74,"time":31.994791666666632,"velocity":0.8031496062992126,"duration":0.37760416666666785},{"name":"A#3","midi":58,"time":32.1966145833333,"velocity":0.8031496062992126,"duration":0.1979166666666643},{"name":"A3","midi":57,"time":32.3997395833333,"velocity":0.8031496062992126,"duration":0.1979166666666643},{"name":"F#5","midi":78,"time":32.3997395833333,"velocity":0.8031496062992126,"duration":0.3645833333333286},{"name":"D5","midi":74,"time":32.3997395833333,"velocity":0.8031496062992126,"duration":0.3645833333333286},{"name":"A4","midi":69,"time":32.3997395833333,"velocity":0.8031496062992126,"duration":0.3645833333333286},{"name":"G3","midi":55,"time":32.601562499999964,"velocity":0.8031496062992126,"duration":0.1979166666666643},{"name":"F#3","midi":54,"time":32.804687499999964,"velocity":0.8031496062992126,"duration":0.1979166666666643},{"name":"D5","midi":74,"time":32.804687499999964,"velocity":0.8031496062992126,"duration":0.3997395833333286},{"name":"C5","midi":72,"time":32.804687499999964,"velocity":0.8031496062992126,"duration":0.3997395833333286},{"name":"A5","midi":81,"time":32.804687499999964,"velocity":0.8031496062992126,"duration":0.3997395833333286},{"name":"E3","midi":52,"time":33.00651041666663,"velocity":0.8031496062992126,"duration":0.1979166666666643},{"name":"D3","midi":50,"time":33.20963541666663,"velocity":0.8031496062992126,"duration":0.1979166666666643},{"name":"D5","midi":74,"time":33.20963541666663,"velocity":0.8031496062992126,"duration":0.3997395833333286},{"name":"C5","midi":72,"time":33.20963541666663,"velocity":0.8031496062992126,"duration":0.3997395833333286},{"name":"A5","midi":81,"time":33.20963541666663,"velocity":0.8031496062992126,"duration":0.3997395833333286},{"name":"C3","midi":48,"time":33.41145833333329,"velocity":0.8031496062992126,"duration":0.1979166666666643},{"name":"A#2","midi":46,"time":33.61458333333329,"velocity":0.8031496062992126,"duration":0.1979166666666643},{"name":"A5","midi":81,"time":33.61458333333329,"velocity":0.8031496062992126,"duration":0.3997395833333286},{"name":"C5","midi":72,"time":33.61458333333329,"velocity":0.8031496062992126,"duration":0.3997395833333286},{"name":"D5","midi":74,"time":33.61458333333329,"velocity":0.8031496062992126,"duration":0.3997395833333286},{"name":"A2","midi":45,"time":33.81640624999996,"velocity":0.8031496062992126,"duration":0.1979166666666643},{"name":"G2","midi":43,"time":34.01953124999996,"velocity":0.8031496062992126,"duration":0.1979166666666643},{"name":"A5","midi":81,"time":34.01953124999996,"velocity":0.8031496062992126,"duration":0.3997395833333286},{"name":"C5","midi":72,"time":34.01953124999996,"velocity":0.8031496062992126,"duration":0.3997395833333286},{"name":"D5","midi":74,"time":34.01953124999996,"velocity":0.8031496062992126,"duration":0.8007812499999929},{"name":"F#2","midi":42,"time":34.22135416666662,"velocity":0.8031496062992126,"duration":0.1979166666666643},{"name":"G2","midi":43,"time":34.42447916666662,"velocity":0.8031496062992126,"duration":0.1979166666666643},{"name":"A#4","midi":70,"time":34.42447916666662,"velocity":0.8031496062992126,"duration":0.3997395833333286},{"name":"G5","midi":79,"time":34.42447916666662,"velocity":0.8031496062992126,"duration":0.3997395833333286},{"name":"A2","midi":45,"time":34.626302083333286,"velocity":0.8031496062992126,"duration":0.1979166666666643},{"name":"A#2","midi":46,"time":34.829427083333286,"velocity":0.8031496062992126,"duration":0.1979166666666643},{"name":"F5","midi":77,"time":34.829427083333286,"velocity":0.8031496062992126,"duration":0.3997395833333286},{"name":"D5","midi":74,"time":34.829427083333286,"velocity":0.8031496062992126,"duration":0.3997395833333286},{"name":"G4","midi":67,"time":34.829427083333286,"velocity":0.8031496062992126,"duration":0.3997395833333286},{"name":"G2","midi":43,"time":35.03124999999995,"velocity":0.8031496062992126,"duration":0.1979166666666643},{"name":"C3","midi":48,"time":35.23437499999995,"velocity":0.8031496062992126,"duration":0.1979166666666643},{"name":"D#5","midi":75,"time":35.23437499999995,"velocity":0.8031496062992126,"duration":0.3997395833333357},{"name":"C5","midi":72,"time":35.23437499999995,"velocity":0.8031496062992126,"duration":0.3997395833333357},{"name":"G4","midi":67,"time":35.23437499999995,"velocity":0.8031496062992126,"duration":1.2122395833333428},{"name":"A#2","midi":46,"time":35.43749999999995,"velocity":0.8031496062992126,"duration":0.1979166666666714},{"name":"C3","midi":48,"time":35.63932291666662,"velocity":0.8031496062992126,"duration":0.1979166666666643},{"name":"D5","midi":74,"time":35.63932291666662,"velocity":0.8031496062992126,"duration":0.3997395833333357},{"name":"A#4","midi":70,"time":35.63932291666662,"velocity":0.8031496062992126,"duration":0.3997395833333357},{"name":"D3","midi":50,"time":35.84244791666662,"velocity":0.8031496062992126,"duration":0.1979166666666714},{"name":"D#3","midi":51,"time":36.04427083333329,"velocity":0.8031496062992126,"duration":0.1979166666666643},{"name":"A4","midi":69,"time":36.04427083333329,"velocity":0.8031496062992126,"duration":0.484375},{"name":"C5","midi":72,"time":36.04427083333329,"velocity":0.8031496062992126,"duration":0.58984375},{"name":"C3","midi":48,"time":36.24739583333329,"velocity":0.8031496062992126,"duration":0.1979166666666643},{"name":"D3","midi":50,"time":36.44921874999996,"velocity":0.8031496062992126,"duration":0.1979166666666714},{"name":"F#4","midi":66,"time":36.44921874999996,"velocity":0.8031496062992126,"duration":0.8007812500000071},{"name":"A4","midi":69,"time":36.55078124999996,"velocity":0.8031496062992126,"duration":0.6953125000000071},{"name":"E3","midi":52,"time":36.652343749999964,"velocity":0.8031496062992126,"duration":0.1979166666666643},{"name":"C5","midi":72,"time":36.652343749999964,"velocity":0.8031496062992126,"duration":0.3997395833333286},{"name":"F#3","midi":54,"time":36.85416666666663,"velocity":0.8031496062992126,"duration":0.1979166666666643},{"name":"D3","midi":50,"time":37.05729166666663,"velocity":0.8031496062992126,"duration":0.1979166666666714},{"name":"D5","midi":74,"time":37.05729166666663,"velocity":0.8031496062992126,"duration":0.1979166666666714},{"name":"G3","midi":55,"time":37.2591145833333,"velocity":0.8031496062992126,"duration":0.3997395833333357},{"name":"G4","midi":67,"time":37.2591145833333,"velocity":0.8031496062992126,"duration":0.8007812500000071},{"name":"D4","midi":62,"time":37.2591145833333,"velocity":0.8031496062992126,"duration":0.3997395833333357},{"name":"C5","midi":72,"time":37.2591145833333,"velocity":0.8031496062992126,"duration":0.1979166666666643},{"name":"A#4","midi":70,"time":37.4622395833333,"velocity":0.8031496062992126,"duration":0.3997395833333357},{"name":"C3","midi":48,"time":37.66406249999997,"velocity":0.8031496062992126,"duration":0.3997395833333357},{"name":"A4","midi":69,"time":37.86718749999997,"velocity":0.8031496062992126,"duration":0.1979166666666714},{"name":"D3","midi":50,"time":38.06901041666664,"velocity":0.8031496062992126,"duration":0.3997395833333357},{"name":"F#4","midi":66,"time":38.06901041666664,"velocity":0.8031496062992126,"duration":0.8007812500000071},{"name":"A#4","midi":70,"time":38.06901041666664,"velocity":0.8031496062992126,"duration":0.0963541666666643},{"name":"A4","midi":69,"time":38.17057291666664,"velocity":0.8031496062992126,"duration":0.0963541666666643},{"name":"A#4","midi":70,"time":38.27213541666664,"velocity":0.8031496062992126,"duration":0.0963541666666643},{"name":"A4","midi":69,"time":38.37369791666664,"velocity":0.8031496062992126,"duration":0.0963541666666714},{"name":"D2","midi":38,"time":38.473958333333314,"velocity":0.8031496062992126,"duration":0.3997395833333357},{"name":"A#4","midi":70,"time":38.473958333333314,"velocity":0.8031496062992126,"duration":0.0963541666666643},{"name":"A4","midi":69,"time":38.575520833333314,"velocity":0.8031496062992126,"duration":0.0963541666666643},{"name":"G4","midi":67,"time":38.677083333333314,"velocity":0.8031496062992126,"duration":0.1979166666666714},{"name":"G2","midi":43,"time":38.878906249999986,"velocity":0.8031496062992126,"duration":0.7552083333333286},{"name":"G4","midi":67,"time":38.878906249999986,"velocity":0.8031496062992126,"duration":0.1979166666666643},{"name":"A4","midi":69,"time":39.102864583333314,"velocity":0.8031496062992126,"duration":0.1979166666666643},{"name":"A#4","midi":70,"time":39.30468749999998,"velocity":0.8031496062992126,"duration":0.1979166666666643},{"name":"G4","midi":67,"time":39.50781249999998,"velocity":0.8031496062992126,"duration":0.1979166666666714},{"name":"F#4","midi":66,"time":39.70963541666665,"velocity":0.8031496062992126,"duration":0.1979166666666643},{"name":"G4","midi":67,"time":39.91276041666665,"velocity":0.8031496062992126,"duration":0.1979166666666643},{"name":"D4","midi":62,"time":40.114583333333314,"velocity":0.8031496062992126,"duration":0.3997395833333357},{"name":"G4","midi":67,"time":40.317708333333314,"velocity":0.8031496062992126,"duration":0.1979166666666714},{"name":"A#4","midi":70,"time":40.52083333333332,"velocity":0.8031496062992126,"duration":0.1979166666666643},{"name":"G4","midi":67,"time":40.722656249999986,"velocity":0.8031496062992126,"duration":0.1979166666666643},{"name":"C#5","midi":73,"time":40.925781249999986,"velocity":0.8031496062992126,"duration":0.1979166666666643},{"name":"G4","midi":67,"time":41.12760416666665,"velocity":0.8031496062992126,"duration":0.1979166666666643},{"name":"D5","midi":74,"time":41.33072916666665,"velocity":0.8031496062992126,"duration":0.3997395833333286},{"name":"D4","midi":62,"time":41.532552083333314,"velocity":0.8031496062992126,"duration":0.0963541666666643},{"name":"E4","midi":64,"time":41.634114583333314,"velocity":0.8031496062992126,"duration":0.0963541666666643},{"name":"A5","midi":81,"time":41.735677083333314,"velocity":0.8031496062992126,"duration":0.3997395833333286},{"name":"F4","midi":65,"time":41.735677083333314,"velocity":0.8031496062992126,"duration":0.1979166666666643},{"name":"D4","midi":62,"time":41.93749999999998,"velocity":0.8031496062992126,"duration":0.1979166666666643},{"name":"A5","midi":81,"time":42.14062499999998,"velocity":0.8031496062992126,"duration":0.3997395833333286},{"name":"C#4","midi":61,"time":42.14062499999998,"velocity":0.8031496062992126,"duration":0.1979166666666643},{"name":"D4","midi":62,"time":42.34244791666664,"velocity":0.8031496062992126,"duration":0.1979166666666643},{"name":"F5","midi":77,"time":42.54557291666664,"velocity":0.8031496062992126,"duration":0.3997395833333286},{"name":"A3","midi":57,"time":42.54557291666664,"velocity":0.8031496062992126,"duration":0.1979166666666643},{"name":"D4","midi":62,"time":42.74739583333331,"velocity":0.8031496062992126,"duration":0.1979166666666643},{"name":"D5","midi":74,"time":42.95052083333331,"velocity":0.8031496062992126,"duration":0.3997395833333286},{"name":"F4","midi":65,"time":42.95052083333331,"velocity":0.8031496062992126,"duration":0.1979166666666643},{"name":"D4","midi":62,"time":43.15234374999997,"velocity":0.8031496062992126,"duration":0.1979166666666643},{"name":"D5","midi":74,"time":43.35546874999997,"velocity":0.8031496062992126,"duration":0.3997395833333286},{"name":"G#4","midi":68,"time":43.35546874999997,"velocity":0.8031496062992126,"duration":0.1979166666666643},{"name":"D4","midi":62,"time":43.557291666666636,"velocity":0.8031496062992126,"duration":0.1979166666666643},{"name":"D5","midi":74,"time":43.760416666666636,"velocity":0.8031496062992126,"duration":0.1979166666666643},{"name":"A4","midi":69,"time":43.760416666666636,"velocity":0.8031496062992126,"duration":0.3997395833333286},{"name":"B4","midi":71,"time":43.9622395833333,"velocity":0.8031496062992126,"duration":0.1979166666666643},{"name":"C5","midi":72,"time":44.1653645833333,"velocity":0.8031496062992126,"duration":0.1979166666666643},{"name":"A4","midi":69,"time":44.1653645833333,"velocity":0.8031496062992126,"duration":0.3997395833333286},{"name":"E5","midi":76,"time":44.367187499999964,"velocity":0.8031496062992126,"duration":0.1979166666666643},{"name":"F5","midi":77,"time":44.570312499999964,"velocity":0.8031496062992126,"duration":0.1979166666666643},{"name":"A4","midi":69,"time":44.570312499999964,"velocity":0.8031496062992126,"duration":0.3997395833333286},{"name":"C5","midi":72,"time":44.77213541666663,"velocity":0.8031496062992126,"duration":0.1979166666666643},{"name":"A#4","midi":70,"time":44.97526041666663,"velocity":0.8031496062992126,"duration":0.1979166666666643},{"name":"A4","midi":69,"time":44.97526041666663,"velocity":0.8031496062992126,"duration":0.3997395833333286},{"name":"C5","midi":72,"time":45.17708333333329,"velocity":0.8031496062992126,"duration":0.1979166666666643},{"name":"D5","midi":74,"time":45.38020833333329,"velocity":0.8031496062992126,"duration":0.1979166666666643},{"name":"G4","midi":67,"time":45.38020833333329,"velocity":0.8031496062992126,"duration":0.3997395833333357},{"name":"A#4","midi":70,"time":45.58333333333329,"velocity":0.8031496062992126,"duration":0.1979166666666714},{"name":"D#5","midi":75,"time":45.785156249999964,"velocity":0.8031496062992126,"duration":0.1979166666666643},{"name":"G4","midi":67,"time":45.785156249999964,"velocity":0.8031496062992126,"duration":0.3997395833333357},{"name":"A#4","midi":70,"time":45.988281249999964,"velocity":0.8031496062992126,"duration":0.1979166666666714},{"name":"A4","midi":69,"time":46.190104166666636,"velocity":0.8031496062992126,"duration":0.1979166666666643},{"name":"G4","midi":67,"time":46.190104166666636,"velocity":0.8031496062992126,"duration":0.3997395833333357},{"name":"C5","midi":72,"time":46.393229166666636,"velocity":0.8031496062992126,"duration":0.1979166666666714},{"name":"D5","midi":74,"time":46.59505208333331,"velocity":0.8031496062992126,"duration":0.1979166666666643},{"name":"F4","midi":65,"time":46.59505208333331,"velocity":0.8031496062992126,"duration":0.3997395833333357},{"name":"D#5","midi":75,"time":46.79817708333331,"velocity":0.8031496062992126,"duration":0.1979166666666714},{"name":"F5","midi":77,"time":46.99999999999998,"velocity":0.8031496062992126,"duration":0.1979166666666643},{"name":"F4","midi":65,"time":46.99999999999998,"velocity":0.8031496062992126,"duration":0.5052083333333286},{"name":"D5","midi":74,"time":47.20312499999998,"velocity":0.8031496062992126,"duration":0.1979166666666643},{"name":"C5","midi":72,"time":47.40494791666664,"velocity":0.8031496062992126,"duration":0.1979166666666643},{"name":"B4","midi":71,"time":47.60807291666664,"velocity":0.8031496062992126,"duration":0.1979166666666643},{"name":"F4","midi":65,"time":47.60807291666664,"velocity":0.8031496062992126,"duration":0.1979166666666643},{"name":"C5","midi":72,"time":47.80989583333331,"velocity":0.8031496062992126,"duration":0.3997395833333357},{"name":"D#4","midi":63,"time":47.80989583333331,"velocity":0.8031496062992126,"duration":0.1979166666666643},{"name":"D4","midi":62,"time":48.01302083333331,"velocity":0.8031496062992126,"duration":0.1979166666666714},{"name":"C5","midi":72,"time":48.21484374999998,"velocity":0.8031496062992126,"duration":0.3997395833333357},{"name":"C4","midi":60,"time":48.21484374999998,"velocity":0.8031496062992126,"duration":0.1979166666666643},{"name":"D#4","midi":63,"time":48.41796874999998,"velocity":0.8031496062992126,"duration":0.1979166666666714},{"name":"C5","midi":72,"time":48.61979166666665,"velocity":0.8031496062992126,"duration":0.1979166666666643},{"name":"G#3","midi":56,"time":48.61979166666665,"velocity":0.8031496062992126,"duration":0.3997395833333357},{"name":"D5","midi":74,"time":48.82291666666665,"velocity":0.8031496062992126,"duration":0.1979166666666714},{"name":"D#5","midi":75,"time":49.02473958333332,"velocity":0.8031496062992126,"duration":0.1979166666666643},{"name":"C4","midi":60,"time":49.02473958333332,"velocity":0.8031496062992126,"duration":0.3997395833333357},{"name":"C5","midi":72,"time":49.22786458333332,"velocity":0.8031496062992126,"duration":0.1979166666666714},{"name":"F#5","midi":78,"time":49.42968749999999,"velocity":0.8031496062992126,"duration":0.1979166666666643},{"name":"D#4","midi":63,"time":49.42968749999999,"velocity":0.8031496062992126,"duration":0.3997395833333357},{"name":"C5","midi":72,"time":49.63281249999999,"velocity":0.8031496062992126,"duration":0.1979166666666714},{"name":"A5","midi":81,"time":49.834635416666664,"velocity":0.8031496062992126,"duration":0.1979166666666643},{"name":"F#3","midi":54,"time":49.834635416666664,"velocity":0.8031496062992126,"duration":0.3997395833333357},{"name":"D#5","midi":75,"time":50.037760416666664,"velocity":0.8031496062992126,"duration":0.1979166666666714},{"name":"D5","midi":74,"time":50.239583333333336,"velocity":0.8031496062992126,"duration":0.1979166666666643},{"name":"A3","midi":57,"time":50.239583333333336,"velocity":0.8031496062992126,"duration":0.3997395833333357},{"name":"C5","midi":72,"time":50.442708333333336,"velocity":0.8031496062992126,"duration":0.1979166666666714},{"name":"A#4","midi":70,"time":50.64583333333334,"velocity":0.8031496062992126,"duration":0.1979166666666643},{"name":"D4","midi":62,"time":50.64583333333334,"velocity":0.8031496062992126,"duration":0.3997395833333286},{"name":"A4","midi":69,"time":50.84765625000001,"velocity":0.8031496062992126,"duration":0.1979166666666643},{"name":"A#4","midi":70,"time":51.05078125000001,"velocity":0.8031496062992126,"duration":0.3997395833333286},{"name":"G4","midi":67,"time":51.05078125000001,"velocity":0.8031496062992126,"duration":0.3997395833333286},{"name":"G3","midi":55,"time":51.25260416666667,"velocity":0.8031496062992126,"duration":0.0963541666666643},{"name":"A3","midi":57,"time":51.35416666666667,"velocity":0.8031496062992126,"duration":0.0963541666666643},{"name":"D5","midi":74,"time":51.45572916666667,"velocity":0.8031496062992126,"duration":0.3997395833333286},{"name":"G4","midi":67,"time":51.45572916666667,"velocity":0.8031496062992126,"duration":0.3997395833333286},{"name":"A#3","midi":58,"time":51.45572916666667,"velocity":0.8031496062992126,"duration":0.1979166666666643},{"name":"G3","midi":55,"time":51.657552083333336,"velocity":0.8031496062992126,"duration":0.1979166666666643},{"name":"C#5","midi":73,"time":51.860677083333336,"velocity":0.8031496062992126,"duration":0.3997395833333286},{"name":"D5","midi":74,"time":51.860677083333336,"velocity":0.8031496062992126,"duration":0.3997395833333286},{"name":"A4","midi":69,"time":51.860677083333336,"velocity":0.8031496062992126,"duration":0.3997395833333286},{"name":"F#3","midi":54,"time":51.860677083333336,"velocity":0.8031496062992126,"duration":0.1979166666666643},{"name":"G3","midi":55,"time":52.0625,"velocity":0.8031496062992126,"duration":0.1979166666666643},{"name":"A4","midi":69,"time":52.265625,"velocity":0.8031496062992126,"duration":0.3997395833333286},{"name":"A#4","midi":70,"time":52.265625,"velocity":0.8031496062992126,"duration":0.3997395833333286},{"name":"D3","midi":50,"time":52.265625,"velocity":0.8031496062992126,"duration":0.1979166666666643},{"name":"G3","midi":55,"time":52.467447916666664,"velocity":0.8031496062992126,"duration":0.1979166666666643},{"name":"A#4","midi":70,"time":52.670572916666664,"velocity":0.8031496062992126,"duration":0.3997395833333286},{"name":"G4","midi":67,"time":52.670572916666664,"velocity":0.8031496062992126,"duration":0.3997395833333286},{"name":"A#3","midi":58,"time":52.670572916666664,"velocity":0.8031496062992126,"duration":0.1979166666666643},{"name":"G3","midi":55,"time":52.87239583333333,"velocity":0.8031496062992126,"duration":0.1979166666666643},{"name":"A#4","midi":70,"time":53.07552083333333,"velocity":0.8031496062992126,"duration":0.3997395833333286},{"name":"G4","midi":67,"time":53.07552083333333,"velocity":0.8031496062992126,"duration":0.3997395833333286},{"name":"C#4","midi":61,"time":53.07552083333333,"velocity":0.8031496062992126,"duration":0.1979166666666643},{"name":"G3","midi":55,"time":53.27734374999999,"velocity":0.8031496062992126,"duration":0.1979166666666643},{"name":"A4","midi":69,"time":53.48046874999999,"velocity":0.8031496062992126,"duration":0.1979166666666643},{"name":"G4","midi":67,"time":53.48046874999999,"velocity":0.8031496062992126,"duration":0.3997395833333286},{"name":"D4","midi":62,"time":53.48046874999999,"velocity":0.8031496062992126,"duration":0.8007812499999929},{"name":"A5","midi":81,"time":53.68229166666666,"velocity":0.8031496062992126,"duration":0.1979166666666643},{"name":"D5","midi":74,"time":53.88541666666666,"velocity":0.8031496062992126,"duration":0.1979166666666643},{"name":"F4","midi":65,"time":53.88541666666666,"velocity":0.8031496062992126,"duration":0.3997395833333286},{"name":"A5","midi":81,"time":54.08723958333332,"velocity":0.8031496062992126,"duration":0.1979166666666643},{"name":"C#5","midi":73,"time":54.29036458333332,"velocity":0.8031496062992126,"duration":0.1979166666666643},{"name":"E4","midi":64,"time":54.29036458333332,"velocity":0.8031496062992126,"duration":0.3997395833333286},{"name":"G5","midi":79,"time":54.492187499999986,"velocity":0.8031496062992126,"duration":0.1979166666666643},{"name":"F5","midi":77,"time":54.695312499999986,"velocity":0.8031496062992126,"duration":0.1979166666666643},{"name":"D4","midi":62,"time":54.695312499999986,"velocity":0.8031496062992126,"duration":0.3997395833333286},{"name":"D3","midi":50,"time":54.695312499999986,"velocity":0.8031496062992126,"duration":0.3997395833333286},{"name":"A5","midi":81,"time":54.89713541666665,"velocity":0.8031496062992126,"duration":0.1979166666666643},{"name":"D5","midi":74,"time":55.10026041666665,"velocity":0.8031496062992126,"duration":0.1979166666666643},{"name":"F4","midi":65,"time":55.10026041666665,"velocity":0.8031496062992126,"duration":0.3997395833333286},{"name":"A5","midi":81,"time":55.302083333333314,"velocity":0.8031496062992126,"duration":0.1979166666666643},{"name":"C#5","midi":73,"time":55.505208333333314,"velocity":0.8031496062992126,"duration":0.1979166666666643},{"name":"E4","midi":64,"time":55.505208333333314,"velocity":0.8031496062992126,"duration":0.3997395833333357},{"name":"G5","midi":79,"time":55.708333333333314,"velocity":0.8031496062992126,"duration":0.1979166666666714},{"name":"F5","midi":77,"time":55.910156249999986,"velocity":0.8031496062992126,"duration":0.1979166666666643},{"name":"D4","midi":62,"time":55.910156249999986,"velocity":0.8031496062992126,"duration":2.4257812500000213},{"name":"D5","midi":74,"time":56.113281249999986,"velocity":0.8031496062992126,"duration":0.1979166666666643},{"name":"B4","midi":71,"time":56.31510416666665,"velocity":0.8031496062992126,"duration":0.1979166666666643},{"name":"G3","midi":55,"time":56.31510416666665,"velocity":0.8031496062992126,"duration":0.3997395833333357},{"name":"F5","midi":77,"time":56.51822916666665,"velocity":0.8031496062992126,"duration":0.1979166666666714},{"name":"A4","midi":69,"time":56.72005208333332,"velocity":0.8031496062992126,"duration":0.1979166666666643},{"name":"A3","midi":57,"time":56.72005208333332,"velocity":0.8031496062992126,"duration":0.3997395833333357},{"name":"F5","midi":77,"time":56.92317708333332,"velocity":0.8031496062992126,"duration":0.1979166666666714},{"name":"G4","midi":67,"time":57.12499999999999,"velocity":0.8031496062992126,"duration":0.1979166666666643},{"name":"B3","midi":59,"time":57.12499999999999,"velocity":0.8031496062992126,"duration":0.3997395833333357},{"name":"F5","midi":77,"time":57.32812499999999,"velocity":0.8031496062992126,"duration":0.1979166666666714},{"name":"A4","midi":69,"time":57.529947916666664,"velocity":0.8031496062992126,"duration":0.1979166666666643},{"name":"A3","midi":57,"time":57.529947916666664,"velocity":0.8031496062992126,"duration":0.3997395833333357},{"name":"F5","midi":77,"time":57.733072916666664,"velocity":0.8031496062992126,"duration":0.1979166666666714},{"name":"B4","midi":71,"time":57.934895833333336,"velocity":0.8031496062992126,"duration":0.1979166666666643},{"name":"G3","midi":55,"time":57.934895833333336,"velocity":0.8031496062992126,"duration":0.3997395833333357},{"name":"F5","midi":77,"time":58.138020833333336,"velocity":0.8031496062992126,"duration":0.1979166666666714},{"name":"D#5","midi":75,"time":58.33984375000001,"velocity":0.8031496062992126,"duration":0.1979166666666643},{"name":"C4","midi":60,"time":58.33984375000001,"velocity":0.8031496062992126,"duration":0.80078125},{"name":"G5","midi":79,"time":58.54296875000001,"velocity":0.8031496062992126,"duration":0.1979166666666643},{"name":"C5","midi":72,"time":58.74479166666667,"velocity":0.8031496062992126,"duration":0.1979166666666643},{"name":"D#4","midi":63,"time":58.74479166666667,"velocity":0.8031496062992126,"duration":0.3997395833333357},{"name":"G5","midi":79,"time":58.94791666666667,"velocity":0.8031496062992126,"duration":0.1979166666666714},{"name":"B4","midi":71,"time":59.14973958333334,"velocity":0.8031496062992126,"duration":0.1979166666666643},{"name":"D4","midi":62,"time":59.14973958333334,"velocity":0.8031496062992126,"duration":0.3997395833333357},{"name":"F5","midi":77,"time":59.35286458333334,"velocity":0.8031496062992126,"duration":0.1979166666666714},{"name":"D#5","midi":75,"time":59.554687500000014,"velocity":0.8031496062992126,"duration":0.1979166666666643},{"name":"C3","midi":48,"time":59.554687500000014,"velocity":0.8031496062992126,"duration":0.3997395833333357},{"name":"C4","midi":60,"time":59.554687500000014,"velocity":0.8031496062992126,"duration":0.3997395833333357},{"name":"G5","midi":79,"time":59.757812500000014,"velocity":0.8031496062992126,"duration":0.1979166666666714},{"name":"C5","midi":72,"time":59.959635416666686,"velocity":0.8031496062992126,"duration":0.1979166666666643},{"name":"D#4","midi":63,"time":59.959635416666686,"velocity":0.8031496062992126,"duration":0.3997395833333357},{"name":"G5","midi":79,"time":60.162760416666686,"velocity":0.8031496062992126,"duration":0.1979166666666714},{"name":"B4","midi":71,"time":60.36458333333336,"velocity":0.8031496062992126,"duration":0.1979166666666643},{"name":"D4","midi":62,"time":60.36458333333336,"velocity":0.8031496062992126,"duration":0.3997395833333357},{"name":"F5","midi":77,"time":60.56770833333336,"velocity":0.8031496062992126,"duration":0.1979166666666714},{"name":"D#5","midi":75,"time":60.770833333333364,"velocity":0.8031496062992126,"duration":0.1979166666666643},{"name":"C4","midi":60,"time":60.770833333333364,"velocity":0.8031496062992126,"duration":2.425781249999986},{"name":"C5","midi":72,"time":60.97265625000003,"velocity":0.8031496062992126,"duration":0.1979166666666643},{"name":"A4","midi":69,"time":61.17578125000003,"velocity":0.8031496062992126,"duration":0.1979166666666643},{"name":"F3","midi":53,"time":61.17578125000003,"velocity":0.8031496062992126,"duration":0.3997395833333286},{"name":"D#5","midi":75,"time":61.37760416666669,"velocity":0.8031496062992126,"duration":0.1979166666666643},{"name":"G4","midi":67,"time":61.58072916666669,"velocity":0.8031496062992126,"duration":0.1979166666666643},{"name":"G3","midi":55,"time":61.58072916666669,"velocity":0.8031496062992126,"duration":0.3997395833333286},{"name":"D#5","midi":75,"time":61.78255208333336,"velocity":0.8031496062992126,"duration":0.1979166666666643},{"name":"F4","midi":65,"time":61.98567708333336,"velocity":0.8031496062992126,"duration":0.1979166666666643},{"name":"A3","midi":57,"time":61.98567708333336,"velocity":0.8031496062992126,"duration":0.3997395833333286},{"name":"D#5","midi":75,"time":62.18750000000002,"velocity":0.8031496062992126,"duration":0.1979166666666643},{"name":"G4","midi":67,"time":62.39062500000002,"velocity":0.8031496062992126,"duration":0.1979166666666643},{"name":"G3","midi":55,"time":62.39062500000002,"velocity":0.8031496062992126,"duration":0.3997395833333286},{"name":"D#5","midi":75,"time":62.592447916666686,"velocity":0.8031496062992126,"duration":0.1979166666666643},{"name":"A4","midi":69,"time":62.795572916666686,"velocity":0.8031496062992126,"duration":0.1979166666666643},{"name":"F3","midi":53,"time":62.795572916666686,"velocity":0.8031496062992126,"duration":0.3997395833333286},{"name":"D#5","midi":75,"time":62.99739583333335,"velocity":0.8031496062992126,"duration":0.1979166666666643},{"name":"D5","midi":74,"time":63.20052083333335,"velocity":0.8031496062992126,"duration":0.3997395833333286},{"name":"A#3","midi":58,"time":63.20052083333335,"velocity":0.8031496062992126,"duration":0.1979166666666643},{"name":"C4","midi":60,"time":63.402343750000014,"velocity":0.8031496062992126,"duration":0.1979166666666643},{"name":"F5","midi":77,"time":63.605468750000014,"velocity":0.8031496062992126,"duration":0.3997395833333286},{"name":"D4","midi":62,"time":63.605468750000014,"velocity":0.8031496062992126,"duration":0.1979166666666643},{"name":"A#3","midi":58,"time":63.80729166666668,"velocity":0.8031496062992126,"duration":0.1979166666666643},{"name":"F5","midi":77,"time":64.01041666666667,"velocity":0.8031496062992126,"duration":0.3997395833333428},{"name":"A3","midi":57,"time":64.01041666666667,"velocity":0.8031496062992126,"duration":0.1979166666666714},{"name":"A#3","midi":58,"time":64.21223958333334,"velocity":0.8031496062992126,"duration":0.1979166666666714},{"name":"D5","midi":74,"time":64.41536458333334,"velocity":0.8031496062992126,"duration":0.3997395833333428},{"name":"F3","midi":53,"time":64.41536458333334,"velocity":0.8031496062992126,"duration":0.1979166666666714},{"name":"A#3","midi":58,"time":64.61718750000001,"velocity":0.8031496062992126,"duration":0.1979166666666714},{"name":"A#4","midi":70,"time":64.82031250000001,"velocity":0.8031496062992126,"duration":0.3997395833333428},{"name":"D5","midi":74,"time":64.82031250000001,"velocity":0.8031496062992126,"duration":0.3997395833333428},{"name":"D4","midi":62,"time":64.82031250000001,"velocity":0.8031496062992126,"duration":0.1979166666666714},{"name":"A#3","midi":58,"time":65.02213541666669,"velocity":0.8031496062992126,"duration":0.1979166666666714},{"name":"A#4","midi":70,"time":65.22526041666669,"velocity":0.8031496062992126,"duration":0.3997395833333428},{"name":"D5","midi":74,"time":65.22526041666669,"velocity":0.8031496062992126,"duration":0.3997395833333428},{"name":"E4","midi":64,"time":65.22526041666669,"velocity":0.8031496062992126,"duration":0.1979166666666714},{"name":"A#3","midi":58,"time":65.42708333333336,"velocity":0.8031496062992126,"duration":0.1979166666666714},{"name":"C5","midi":72,"time":65.63020833333336,"velocity":0.8031496062992126,"duration":0.1979166666666714},{"name":"A#4","midi":70,"time":65.63020833333336,"velocity":0.8031496062992126,"duration":0.3997395833333286},{"name":"F4","midi":65,"time":65.63020833333336,"velocity":0.8031496062992126,"duration":0.8007812499999858},{"name":"C6","midi":84,"time":65.83333333333336,"velocity":0.8031496062992126,"duration":0.1979166666666572},{"name":"F5","midi":77,"time":66.03515625000001,"velocity":0.8031496062992126,"duration":0.1979166666666714},{"name":"A4","midi":69,"time":66.03515625000001,"velocity":0.8031496062992126,"duration":0.3997395833333286},{"name":"C6","midi":84,"time":66.23828125000001,"velocity":0.8031496062992126,"duration":0.1979166666666572},{"name":"E5","midi":76,"time":66.44010416666667,"velocity":0.8031496062992126,"duration":0.1979166666666714},{"name":"G4","midi":67,"time":66.44010416666667,"velocity":0.8031496062992126,"duration":0.3997395833333286},{"name":"A#5","midi":82,"time":66.64322916666667,"velocity":0.8031496062992126,"duration":0.1979166666666572},{"name":"A5","midi":81,"time":66.84505208333333,"velocity":0.8031496062992126,"duration":0.1979166666666714},{"name":"F4","midi":65,"time":66.84505208333333,"velocity":0.8031496062992126,"duration":0.3997395833333286},{"name":"F3","midi":53,"time":66.84505208333333,"velocity":0.8031496062992126,"duration":0.3997395833333286},{"name":"C6","midi":84,"time":67.04817708333333,"velocity":0.8031496062992126,"duration":0.1979166666666572},{"name":"F5","midi":77,"time":67.24999999999999,"velocity":0.8031496062992126,"duration":0.1979166666666714},{"name":"A4","midi":69,"time":67.24999999999999,"velocity":0.8031496062992126,"duration":0.3997395833333286},{"name":"C6","midi":84,"time":67.45312499999999,"velocity":0.8031496062992126,"duration":0.1979166666666572},{"name":"E5","midi":76,"time":67.65494791666664,"velocity":0.8031496062992126,"duration":0.1979166666666714},{"name":"G4","midi":67,"time":67.65494791666664,"velocity":0.8031496062992126,"duration":0.3997395833333286},{"name":"A#5","midi":82,"time":67.85807291666664,"velocity":0.8031496062992126,"duration":0.1979166666666572},{"name":"A5","midi":81,"time":68.0598958333333,"velocity":0.8031496062992126,"duration":0.1979166666666714},{"name":"F4","midi":65,"time":68.0598958333333,"velocity":0.8031496062992126,"duration":2.4257812499999574},{"name":"F5","midi":77,"time":68.2630208333333,"velocity":0.8031496062992126,"duration":0.1979166666666714},{"name":"D5","midi":74,"time":68.46484374999997,"velocity":0.8031496062992126,"duration":0.1979166666666714},{"name":"A#3","midi":58,"time":68.46484374999997,"velocity":0.8031496062992126,"duration":0.3997395833333286},{"name":"G#5","midi":80,"time":68.66796874999997,"velocity":0.8031496062992126,"duration":0.1979166666666572},{"name":"C5","midi":72,"time":68.86979166666663,"velocity":0.8031496062992126,"duration":0.1979166666666714},{"name":"C4","midi":60,"time":68.86979166666663,"velocity":0.8031496062992126,"duration":0.3997395833333286},{"name":"G#5","midi":80,"time":69.07291666666663,"velocity":0.8031496062992126,"duration":0.1979166666666572},{"name":"A#4","midi":70,"time":69.27473958333329,"velocity":0.8031496062992126,"duration":0.1979166666666714},{"name":"D4","midi":62,"time":69.27473958333329,"velocity":0.8031496062992126,"duration":0.3997395833333286},{"name":"G#5","midi":80,"time":69.47786458333329,"velocity":0.8031496062992126,"duration":0.1979166666666572},{"name":"C5","midi":72,"time":69.67968749999994,"velocity":0.8031496062992126,"duration":0.1979166666666714},{"name":"C4","midi":60,"time":69.67968749999994,"velocity":0.8031496062992126,"duration":0.3997395833333286},{"name":"G#5","midi":80,"time":69.88281249999994,"velocity":0.8031496062992126,"duration":0.1979166666666572},{"name":"D5","midi":74,"time":70.0846354166666,"velocity":0.8031496062992126,"duration":0.1979166666666714},{"name":"A#3","midi":58,"time":70.0846354166666,"velocity":0.8031496062992126,"duration":0.3997395833333286},{"name":"G#5","midi":80,"time":70.2877604166666,"velocity":0.8031496062992126,"duration":0.1979166666666572},{"name":"G5","midi":79,"time":70.48958333333326,"velocity":0.8031496062992126,"duration":0.1979166666666714},{"name":"D#4","midi":63,"time":70.48958333333326,"velocity":0.8031496062992126,"duration":0.80078125},{"name":"A#5","midi":82,"time":70.69270833333326,"velocity":0.8031496062992126,"duration":0.1979166666666714},{"name":"D#5","midi":75,"time":70.89583333333326,"velocity":0.8031496062992126,"duration":0.1979166666666714},{"name":"G4","midi":67,"time":70.89583333333326,"velocity":0.8031496062992126,"duration":0.3997395833333286},{"name":"A#5","midi":82,"time":71.09765624999993,"velocity":0.8031496062992126,"duration":0.1979166666666572},{"name":"D5","midi":74,"time":71.30078124999991,"velocity":0.8031496062992126,"duration":0.1979166666666714},{"name":"F4","midi":65,"time":71.30078124999991,"velocity":0.8031496062992126,"duration":0.3997395833333428},{"name":"G#5","midi":80,"time":71.50260416666659,"velocity":0.8031496062992126,"duration":0.1979166666666714},{"name":"G5","midi":79,"time":71.70572916666659,"velocity":0.8031496062992126,"duration":0.1979166666666714},{"name":"D#4","midi":63,"time":71.70572916666659,"velocity":0.8031496062992126,"duration":0.3997395833333428},{"name":"D#3","midi":51,"time":71.70572916666659,"velocity":0.8031496062992126,"duration":0.3997395833333428},{"name":"A#5","midi":82,"time":71.90755208333326,"velocity":0.8031496062992126,"duration":0.1979166666666714},{"name":"D#5","midi":75,"time":72.11067708333326,"velocity":0.8031496062992126,"duration":0.1979166666666714},{"name":"G4","midi":67,"time":72.11067708333326,"velocity":0.8031496062992126,"duration":0.3997395833333428},{"name":"A#5","midi":82,"time":72.31249999999993,"velocity":0.8031496062992126,"duration":0.1979166666666714},{"name":"D5","midi":74,"time":72.51562499999993,"velocity":0.8031496062992126,"duration":0.1979166666666714},{"name":"F4","midi":65,"time":72.51562499999993,"velocity":0.8031496062992126,"duration":0.3997395833333428},{"name":"G#5","midi":80,"time":72.7174479166666,"velocity":0.8031496062992126,"duration":0.1979166666666714},{"name":"G5","midi":79,"time":72.9205729166666,"velocity":0.8031496062992126,"duration":0.1979166666666714},{"name":"D#4","midi":63,"time":72.9205729166666,"velocity":0.8031496062992126,"duration":2.4257812500000284},{"name":"D#5","midi":75,"time":73.12239583333327,"velocity":0.8031496062992126,"duration":0.1979166666666714},{"name":"C5","midi":72,"time":73.32552083333327,"velocity":0.8031496062992126,"duration":0.1979166666666714},{"name":"A3","midi":57,"time":73.32552083333327,"velocity":0.8031496062992126,"duration":0.3997395833333428},{"name":"G5","midi":79,"time":73.52734374999994,"velocity":0.8031496062992126,"duration":0.1979166666666714},{"name":"A#4","midi":70,"time":73.73046874999994,"velocity":0.8031496062992126,"duration":0.1979166666666714},{"name":"A#3","midi":58,"time":73.73046874999994,"velocity":0.8031496062992126,"duration":0.3997395833333428},{"name":"G5","midi":79,"time":73.93229166666661,"velocity":0.8031496062992126,"duration":0.1979166666666714},{"name":"A4","midi":69,"time":74.13541666666661,"velocity":0.8031496062992126,"duration":0.1979166666666714},{"name":"C4","midi":60,"time":74.13541666666661,"velocity":0.8031496062992126,"duration":0.3997395833333428},{"name":"G5","midi":79,"time":74.33723958333329,"velocity":0.8031496062992126,"duration":0.1979166666666714},{"name":"A#4","midi":70,"time":74.54036458333329,"velocity":0.8031496062992126,"duration":0.1979166666666714},{"name":"A#3","midi":58,"time":74.54036458333329,"velocity":0.8031496062992126,"duration":0.3997395833333428},{"name":"G5","midi":79,"time":74.74218749999996,"velocity":0.8031496062992126,"duration":0.1979166666666714},{"name":"C5","midi":72,"time":74.94531249999996,"velocity":0.8031496062992126,"duration":0.1979166666666714},{"name":"A3","midi":57,"time":74.94531249999996,"velocity":0.8031496062992126,"duration":0.3997395833333428},{"name":"G5","midi":79,"time":75.14713541666663,"velocity":0.8031496062992126,"duration":0.1979166666666714},{"name":"F#5","midi":78,"time":75.35026041666663,"velocity":0.8031496062992126,"duration":0.3997395833333428},{"name":"D4","midi":62,"time":75.35026041666663,"velocity":0.8031496062992126,"duration":0.1979166666666714},{"name":"C4","midi":60,"time":75.5520833333333,"velocity":0.8031496062992126,"duration":0.1979166666666714},{"name":"D5","midi":74,"time":75.7552083333333,"velocity":0.8031496062992126,"duration":0.3997395833333286},{"name":"G5","midi":79,"time":75.7552083333333,"velocity":0.8031496062992126,"duration":0.3997395833333286},{"name":"A#3","midi":58,"time":75.7552083333333,"velocity":0.8031496062992126,"duration":0.1979166666666714},{"name":"C4","midi":60,"time":75.9583333333333,"velocity":0.8031496062992126,"duration":0.1979166666666572},{"name":"C5","midi":72,"time":76.16015624999996,"velocity":0.8031496062992126,"duration":0.3997395833333286},{"name":"F5","midi":77,"time":76.16015624999996,"velocity":0.8031496062992126,"duration":0.3997395833333286},{"name":"A3","midi":57,"time":76.16015624999996,"velocity":0.8031496062992126,"duration":0.1979166666666714},{"name":"A#3","midi":58,"time":76.36328124999996,"velocity":0.8031496062992126,"duration":0.1979166666666572},{"name":"A#4","midi":70,"time":76.56510416666661,"velocity":0.8031496062992126,"duration":0.3997395833333286},{"name":"D#5","midi":75,"time":76.56510416666661,"velocity":0.8031496062992126,"duration":0.3997395833333286},{"name":"G3","midi":55,"time":76.56510416666661,"velocity":0.8031496062992126,"duration":0.1979166666666714},{"name":"A#3","midi":58,"time":76.76822916666661,"velocity":0.8031496062992126,"duration":0.1979166666666572},{"name":"A4","midi":69,"time":76.97005208333327,"velocity":0.8031496062992126,"duration":0.3997395833333286},{"name":"D5","midi":74,"time":76.97005208333327,"velocity":0.8031496062992126,"duration":0.3997395833333286},{"name":"F3","midi":53,"time":76.97005208333327,"velocity":0.8031496062992126,"duration":0.1979166666666714},{"name":"A#3","midi":58,"time":77.17317708333327,"velocity":0.8031496062992126,"duration":0.1979166666666572},{"name":"G4","midi":67,"time":77.37499999999993,"velocity":0.8031496062992126,"duration":0.3997395833333286},{"name":"C5","midi":72,"time":77.37499999999993,"velocity":0.8031496062992126,"duration":0.3997395833333286},{"name":"D#3","midi":51,"time":77.37499999999993,"velocity":0.8031496062992126,"duration":0.1979166666666714},{"name":"A#3","midi":58,"time":77.57812499999993,"velocity":0.8031496062992126,"duration":0.1979166666666572},{"name":"F5","midi":77,"time":77.77994791666659,"velocity":0.8031496062992126,"duration":0.3997395833333286},{"name":"A#4","midi":70,"time":77.77994791666659,"velocity":0.8031496062992126,"duration":0.3997395833333286},{"name":"F4","midi":65,"time":77.77994791666659,"velocity":0.8031496062992126,"duration":0.8007812499999858},{"name":"D3","midi":50,"time":77.77994791666659,"velocity":0.8031496062992126,"duration":0.1979166666666714},{"name":"A#3","midi":58,"time":77.98307291666659,"velocity":0.8031496062992126,"duration":0.1979166666666572},{"name":"A4","midi":69,"time":78.18489583333324,"velocity":0.8031496062992126,"duration":0.4427083333333286},{"name":"D#5","midi":75,"time":78.18489583333324,"velocity":0.8031496062992126,"duration":0.5052083333333286},{"name":"C3","midi":48,"time":78.18489583333324,"velocity":0.8031496062992126,"duration":0.1979166666666714},{"name":"A#3","midi":58,"time":78.38802083333324,"velocity":0.8031496062992126,"duration":0.1979166666666572},{"name":"F4","midi":65,"time":78.5898437499999,"velocity":0.8031496062992126,"duration":0.6028645833333428},{"name":"A#2","midi":46,"time":78.5898437499999,"velocity":0.8031496062992126,"duration":0.1979166666666714},{"name":"A#4","midi":70,"time":78.6914062499999,"velocity":0.8031496062992126,"duration":0.6953125},{"name":"D5","midi":74,"time":78.7929687499999,"velocity":0.8031496062992126,"duration":0.3997395833333428},{"name":"A#3","midi":58,"time":78.7929687499999,"velocity":0.8031496062992126,"duration":0.1979166666666714},{"name":"D#3","midi":51,"time":78.99479166666657,"velocity":0.8031496062992126,"duration":0.3997395833333286},{"name":"G5","midi":79,"time":79.19791666666657,"velocity":0.8031496062992126,"duration":0.1979166666666572},{"name":"A4","midi":69,"time":79.39973958333323,"velocity":0.8031496062992126,"duration":0.5898437499999858},{"name":"D5","midi":74,"time":79.39973958333323,"velocity":0.8031496062992126,"duration":0.0963541666666714},{"name":"F3","midi":53,"time":79.39973958333323,"velocity":0.8031496062992126,"duration":0.3997395833333286},{"name":"C5","midi":72,"time":79.50130208333323,"velocity":0.8031496062992126,"duration":0.0963541666666714},{"name":"D5","midi":74,"time":79.60286458333323,"velocity":0.8031496062992126,"duration":0.0963541666666714},{"name":"C5","midi":72,"time":79.70442708333323,"velocity":0.8031496062992126,"duration":0.09635416666665719},{"name":"D5","midi":74,"time":79.80468749999989,"velocity":0.8031496062992126,"duration":0.0963541666666714},{"name":"F2","midi":41,"time":79.80468749999989,"velocity":0.8031496062992126,"duration":0.3997395833333144},{"name":"C5","midi":72,"time":79.90624999999989,"velocity":0.8031496062992126,"duration":0.09635416666665719},{"name":"A#4","midi":70,"time":80.00781249999987,"velocity":0.8031496062992126,"duration":0.1979166666666572},{"name":"A#4","midi":70,"time":80.20963541666653,"velocity":0.8031496062992126,"duration":0.3997395833333286},{"name":"A#2","midi":46,"time":80.20963541666653,"velocity":0.8031496062992126,"duration":1.2122395833333144},{"name":"F5","midi":77,"time":80.61458333333319,"velocity":0.8031496062992126,"duration":0.3997395833333286},{"name":"F5","midi":77,"time":81.02083333333319,"velocity":0.8031496062992126,"duration":0.3997395833333286},{"name":"D5","midi":74,"time":81.42578124999984,"velocity":0.8031496062992126,"duration":0.3997395833333286},{"name":"A#4","midi":70,"time":81.8307291666665,"velocity":0.8031496062992126,"duration":0.3997395833333286},{"name":"D5","midi":74,"time":81.8307291666665,"velocity":0.8031496062992126,"duration":0.3997395833333286},{"name":"A#4","midi":70,"time":82.23567708333316,"velocity":0.8031496062992126,"duration":0.3997395833333286},{"name":"D5","midi":74,"time":82.23567708333316,"velocity":0.8031496062992126,"duration":0.3997395833333286},{"name":"C5","midi":72,"time":82.64062499999982,"velocity":0.8031496062992126,"duration":0.1979166666666714},{"name":"A4","midi":69,"time":82.64062499999982,"velocity":0.8031496062992126,"duration":0.3997395833333428},{"name":"A#4","midi":70,"time":82.84244791666649,"velocity":0.8031496062992126,"duration":0.1979166666666714},{"name":"C5","midi":72,"time":83.04557291666649,"velocity":0.8031496062992126,"duration":0.1979166666666714},{"name":"A4","midi":69,"time":83.04557291666649,"velocity":0.8031496062992126,"duration":0.3997395833333428},{"name":"F4","midi":65,"time":83.04557291666649,"velocity":0.8031496062992126,"duration":0.3997395833333428},{"name":"D5","midi":74,"time":83.24739583333316,"velocity":0.8031496062992126,"duration":0.1979166666666714},{"name":"C5","midi":72,"time":83.45052083333316,"velocity":0.8031496062992126,"duration":0.1979166666666714},{"name":"A4","midi":69,"time":83.45052083333316,"velocity":0.8031496062992126,"duration":0.3997395833333428},{"name":"F4","midi":65,"time":83.45052083333316,"velocity":0.8031496062992126,"duration":0.3997395833333428},{"name":"D5","midi":74,"time":83.65234374999983,"velocity":0.8031496062992126,"duration":0.1979166666666714},{"name":"A#4","midi":70,"time":83.85546874999983,"velocity":0.8031496062992126,"duration":0.1979166666666714},{"name":"D4","midi":62,"time":83.85546874999983,"velocity":0.8031496062992126,"duration":0.3997395833333428},{"name":"F4","midi":65,"time":83.85546874999983,"velocity":0.8031496062992126,"duration":0.3997395833333428},{"name":"A4","midi":69,"time":84.0572916666665,"velocity":0.8031496062992126,"duration":0.1979166666666714},{"name":"A#4","midi":70,"time":84.2604166666665,"velocity":0.8031496062992126,"duration":0.1979166666666714},{"name":"F4","midi":65,"time":84.2604166666665,"velocity":0.8031496062992126,"duration":0.3997395833333428},{"name":"A#3","midi":58,"time":84.2604166666665,"velocity":0.8031496062992126,"duration":0.3997395833333428},{"name":"D4","midi":62,"time":84.2604166666665,"velocity":0.8031496062992126,"duration":0.3997395833333428},{"name":"C5","midi":72,"time":84.46223958333317,"velocity":0.8031496062992126,"duration":0.1979166666666714},{"name":"D5","midi":74,"time":84.66536458333317,"velocity":0.8031496062992126,"duration":0.1979166666666714},{"name":"D4","midi":62,"time":84.66536458333317,"velocity":0.8031496062992126,"duration":0.3997395833333428},{"name":"F4","midi":65,"time":84.66536458333317,"velocity":0.8031496062992126,"duration":0.3997395833333428},{"name":"A#3","midi":58,"time":84.66536458333317,"velocity":0.8031496062992126,"duration":0.3997395833333428},{"name":"D#5","midi":75,"time":84.86718749999984,"velocity":0.8031496062992126,"duration":0.1979166666666714},{"name":"F5","midi":77,"time":85.07031249999984,"velocity":0.8031496062992126,"duration":0.1979166666666714},{"name":"A3","midi":57,"time":85.07031249999984,"velocity":0.8031496062992126,"duration":0.3997395833333428},{"name":"C4","midi":60,"time":85.07031249999984,"velocity":0.8031496062992126,"duration":0.3997395833333428},{"name":"F4","midi":65,"time":85.07031249999984,"velocity":0.8031496062992126,"duration":0.3997395833333428},{"name":"E5","midi":76,"time":85.27213541666652,"velocity":0.8031496062992126,"duration":0.1979166666666714},{"name":"F5","midi":77,"time":85.47526041666652,"velocity":0.8031496062992126,"duration":0.1979166666666714},{"name":"A3","midi":57,"time":85.47526041666652,"velocity":0.8031496062992126,"duration":0.3997395833333428},{"name":"C4","midi":60,"time":85.47526041666652,"velocity":0.8031496062992126,"duration":0.3997395833333428},{"name":"F3","midi":53,"time":85.47526041666652,"velocity":0.8031496062992126,"duration":0.3997395833333428},{"name":"G5","midi":79,"time":85.67708333333319,"velocity":0.8031496062992126,"duration":0.1979166666666714},{"name":"A5","midi":81,"time":85.88020833333319,"velocity":0.8031496062992126,"duration":0.1979166666666714},{"name":"C4","midi":60,"time":85.88020833333319,"velocity":0.8031496062992126,"duration":0.3997395833333286},{"name":"A3","midi":57,"time":85.88020833333319,"velocity":0.8031496062992126,"duration":0.3997395833333286},{"name":"F3","midi":53,"time":85.88020833333319,"velocity":0.8031496062992126,"duration":0.3997395833333286},{"name":"F5","midi":77,"time":86.08333333333319,"velocity":0.8031496062992126,"duration":0.1979166666666572},{"name":"A#5","midi":82,"time":86.28515624999984,"velocity":0.8031496062992126,"duration":0.1979166666666714},{"name":"A#3","midi":58,"time":86.28515624999984,"velocity":0.8031496062992126,"duration":0.3997395833333286},{"name":"D3","midi":50,"time":86.28515624999984,"velocity":0.8031496062992126,"duration":0.3997395833333286},{"name":"F3","midi":53,"time":86.28515624999984,"velocity":0.8031496062992126,"duration":0.3997395833333286},{"name":"A5","midi":81,"time":86.48828124999984,"velocity":0.8031496062992126,"duration":0.1979166666666572},{"name":"A#5","midi":82,"time":86.6901041666665,"velocity":0.8031496062992126,"duration":0.1979166666666714},{"name":"A#2","midi":46,"time":86.6901041666665,"velocity":0.8031496062992126,"duration":0.3997395833333286},{"name":"D3","midi":50,"time":86.6901041666665,"velocity":0.8031496062992126,"duration":0.3997395833333286},{"name":"F3","midi":53,"time":86.6901041666665,"velocity":0.8031496062992126,"duration":0.3997395833333286},{"name":"C6","midi":84,"time":86.8932291666665,"velocity":0.8031496062992126,"duration":0.1979166666666572},{"name":"A5","midi":81,"time":87.09505208333316,"velocity":0.8031496062992126,"duration":0.1979166666666714},{"name":"F3","midi":53,"time":87.09505208333316,"velocity":0.8031496062992126,"duration":0.3997395833333286},{"name":"D3","midi":50,"time":87.09505208333316,"velocity":0.8031496062992126,"duration":0.3997395833333286},{"name":"A#2","midi":46,"time":87.09505208333316,"velocity":0.8031496062992126,"duration":0.3997395833333286},{"name":"A#5","midi":82,"time":87.29817708333316,"velocity":0.8031496062992126,"duration":0.1979166666666572},{"name":"C6","midi":84,"time":87.49999999999982,"velocity":0.8031496062992126,"duration":0.1979166666666714},{"name":"C3","midi":48,"time":87.49999999999982,"velocity":0.8031496062992126,"duration":0.9270833333333428},{"name":"F3","midi":53,"time":87.49999999999982,"velocity":0.8031496062992126,"duration":0.9270833333333428},{"name":"F2","midi":41,"time":87.49999999999982,"velocity":0.8031496062992126,"duration":0.9270833333333428},{"name":"A2","midi":45,"time":87.49999999999982,"velocity":0.8031496062992126,"duration":0.9270833333333428},{"name":"A#5","midi":82,"time":87.70312499999982,"velocity":0.8031496062992126,"duration":0.1979166666666714},{"name":"A5","midi":81,"time":87.90494791666649,"velocity":0.8031496062992126,"duration":0.1979166666666714},{"name":"G5","midi":79,"time":88.10807291666649,"velocity":0.8031496062992126,"duration":0.1979166666666714},{"name":"F5","midi":77,"time":88.30989583333316,"velocity":0.8031496062992126,"duration":0.1979166666666714},{"name":"D#5","midi":75,"time":88.51302083333316,"velocity":0.8031496062992126,"duration":0.1979166666666714},{"name":"D5","midi":74,"time":88.71484374999983,"velocity":0.8031496062992126,"duration":0.3997395833333286},{"name":"C5","midi":72,"time":88.91796874999983,"velocity":0.8031496062992126,"duration":0.1979166666666572},{"name":"D5","midi":74,"time":89.11979166666649,"velocity":0.8031496062992126,"duration":0.3997395833333286},{"name":"F5","midi":77,"time":89.11979166666649,"velocity":0.8031496062992126,"duration":0.3997395833333286},{"name":"A#5","midi":82,"time":89.11979166666649,"velocity":0.8031496062992126,"duration":0.3997395833333286},{"name":"A#4","midi":70,"time":89.11979166666649,"velocity":0.8031496062992126,"duration":0.1979166666666714},{"name":"A4","midi":69,"time":89.32291666666649,"velocity":0.8031496062992126,"duration":0.1979166666666572},{"name":"A#5","midi":82,"time":89.52473958333314,"velocity":0.8031496062992126,"duration":0.3997395833333286},{"name":"D5","midi":74,"time":89.52473958333314,"velocity":0.8031496062992126,"duration":0.3997395833333286},{"name":"F5","midi":77,"time":89.52473958333314,"velocity":0.8031496062992126,"duration":0.3997395833333286},{"name":"G4","midi":67,"time":89.52473958333314,"velocity":0.8031496062992126,"duration":0.1979166666666714},{"name":"F4","midi":65,"time":89.72786458333314,"velocity":0.8031496062992126,"duration":0.1979166666666572},{"name":"D5","midi":74,"time":89.9296874999998,"velocity":0.8031496062992126,"duration":0.58984375},{"name":"G5","midi":79,"time":89.9296874999998,"velocity":0.8031496062992126,"duration":0.1979166666666714},{"name":"D#4","midi":63,"time":89.9296874999998,"velocity":0.8031496062992126,"duration":0.1979166666666714},{"name":"A5","midi":81,"time":90.1328124999998,"velocity":0.8031496062992126,"duration":0.1979166666666714},{"name":"F4","midi":65,"time":90.1328124999998,"velocity":0.8031496062992126,"duration":0.1979166666666714},{"name":"G5","midi":79,"time":90.33463541666647,"velocity":0.8031496062992126,"duration":0.1979166666666572},{"name":"D#4","midi":63,"time":90.33463541666647,"velocity":0.8031496062992126,"duration":0.1979166666666572},{"name":"F5","midi":77,"time":90.53776041666646,"velocity":0.8031496062992126,"duration":0.1979166666666714},{"name":"D4","midi":62,"time":90.53776041666646,"velocity":0.8031496062992126,"duration":0.1979166666666714},{"name":"D#5","midi":75,"time":90.73958333333313,"velocity":0.8031496062992126,"duration":0.1979166666666714},{"name":"C4","midi":60,"time":90.73958333333313,"velocity":0.8031496062992126,"duration":0.1979166666666714},{"name":"D5","midi":74,"time":90.94270833333313,"velocity":0.8031496062992126,"duration":0.1979166666666714},{"name":"A#3","midi":58,"time":90.94270833333313,"velocity":0.8031496062992126,"duration":0.1979166666666714},{"name":"C5","midi":72,"time":91.14583333333313,"velocity":0.8031496062992126,"duration":0.3997395833333428},{"name":"A3","midi":57,"time":91.14583333333313,"velocity":0.8031496062992126,"duration":0.1979166666666714},{"name":"A#4","midi":70,"time":91.3476562499998,"velocity":0.8031496062992126,"duration":0.1979166666666714},{"name":"C5","midi":72,"time":91.5507812499998,"velocity":0.8031496062992126,"duration":0.3997395833333428},{"name":"D#5","midi":75,"time":91.5507812499998,"velocity":0.8031496062992126,"duration":0.3997395833333428},{"name":"A5","midi":81,"time":91.5507812499998,"velocity":0.8031496062992126,"duration":0.3997395833333428},{"name":"A4","midi":69,"time":91.5507812499998,"velocity":0.8031496062992126,"duration":0.1979166666666714},{"name":"G4","midi":67,"time":91.75260416666647,"velocity":0.8031496062992126,"duration":0.1979166666666714},{"name":"C5","midi":72,"time":91.95572916666647,"velocity":0.8031496062992126,"duration":0.3997395833333428},{"name":"D#5","midi":75,"time":91.95572916666647,"velocity":0.8031496062992126,"duration":0.3997395833333428},{"name":"A5","midi":81,"time":91.95572916666647,"velocity":0.8031496062992126,"duration":0.3997395833333428},{"name":"F4","midi":65,"time":91.95572916666647,"velocity":0.8031496062992126,"duration":0.1979166666666714},{"name":"D#4","midi":63,"time":92.15755208333314,"velocity":0.8031496062992126,"duration":0.1979166666666714},{"name":"F5","midi":77,"time":92.36067708333314,"velocity":0.8031496062992126,"duration":0.1979166666666714},{"name":"C5","midi":72,"time":92.36067708333314,"velocity":0.8031496062992126,"duration":0.58984375},{"name":"D4","midi":62,"time":92.36067708333314,"velocity":0.8031496062992126,"duration":0.1979166666666714},{"name":"G5","midi":79,"time":92.56249999999982,"velocity":0.8031496062992126,"duration":0.1979166666666714},{"name":"D#4","midi":63,"time":92.56249999999982,"velocity":0.8031496062992126,"duration":0.1979166666666714},{"name":"F5","midi":77,"time":92.76562499999982,"velocity":0.8031496062992126,"duration":0.1979166666666572},{"name":"D4","midi":62,"time":92.76562499999982,"velocity":0.8031496062992126,"duration":0.1979166666666572},{"name":"D#5","midi":75,"time":92.96744791666647,"velocity":0.8031496062992126,"duration":0.1979166666666714},{"name":"C4","midi":60,"time":92.96744791666647,"velocity":0.8031496062992126,"duration":0.1979166666666714},{"name":"D5","midi":74,"time":93.17057291666647,"velocity":0.8031496062992126,"duration":0.1979166666666714},{"name":"A#3","midi":58,"time":93.17057291666647,"velocity":0.8031496062992126,"duration":0.1979166666666714},{"name":"C5","midi":72,"time":93.37239583333314,"velocity":0.8031496062992126,"duration":0.1979166666666714},{"name":"A3","midi":57,"time":93.37239583333314,"velocity":0.8031496062992126,"duration":0.1979166666666714},{"name":"A#4","midi":70,"time":93.57552083333314,"velocity":0.8031496062992126,"duration":0.3997395833333428},{"name":"G3","midi":55,"time":93.57552083333314,"velocity":0.8031496062992126,"duration":0.1979166666666714},{"name":"A4","midi":69,"time":93.77734374999982,"velocity":0.8031496062992126,"duration":0.1979166666666714},{"name":"G5","midi":79,"time":93.98046874999982,"velocity":0.8031496062992126,"duration":0.3997395833333428},{"name":"A#4","midi":70,"time":93.98046874999982,"velocity":0.8031496062992126,"duration":0.3997395833333428},{"name":"D5","midi":74,"time":93.98046874999982,"velocity":0.8031496062992126,"duration":0.3997395833333428},{"name":"G4","midi":67,"time":93.98046874999982,"velocity":0.8031496062992126,"duration":0.1979166666666714},{"name":"F4","midi":65,"time":94.18229166666649,"velocity":0.8031496062992126,"duration":0.1979166666666714},{"name":"G5","midi":79,"time":94.38541666666649,"velocity":0.8031496062992126,"duration":0.3997395833333428},{"name":"A#4","midi":70,"time":94.38541666666649,"velocity":0.8031496062992126,"duration":0.3997395833333428},{"name":"D5","midi":74,"time":94.38541666666649,"velocity":0.8031496062992126,"duration":0.3997395833333428},{"name":"D#4","midi":63,"time":94.38541666666649,"velocity":0.8031496062992126,"duration":0.1979166666666714},{"name":"D4","midi":62,"time":94.58723958333316,"velocity":0.8031496062992126,"duration":0.1979166666666714},{"name":"D#5","midi":75,"time":94.79036458333316,"velocity":0.8031496062992126,"duration":0.1979166666666714},{"name":"A#4","midi":70,"time":94.79036458333316,"velocity":0.8031496062992126,"duration":0.58984375},{"name":"C4","midi":60,"time":94.79036458333316,"velocity":0.8031496062992126,"duration":0.1979166666666714},{"name":"F5","midi":77,"time":94.99218749999983,"velocity":0.8031496062992126,"duration":0.1979166666666714},{"name":"D4","midi":62,"time":94.99218749999983,"velocity":0.8031496062992126,"duration":0.1979166666666714},{"name":"D#5","midi":75,"time":95.19531249999983,"velocity":0.8031496062992126,"duration":0.1979166666666572},{"name":"C4","midi":60,"time":95.19531249999983,"velocity":0.8031496062992126,"duration":0.1979166666666572},{"name":"D5","midi":74,"time":95.39713541666649,"velocity":0.8031496062992126,"duration":0.1979166666666714},{"name":"A#3","midi":58,"time":95.39713541666649,"velocity":0.8031496062992126,"duration":0.1979166666666714},{"name":"C5","midi":72,"time":95.60026041666649,"velocity":0.8031496062992126,"duration":0.1979166666666714},{"name":"A3","midi":57,"time":95.60026041666649,"velocity":0.8031496062992126,"duration":0.1979166666666714},{"name":"A#4","midi":70,"time":95.80208333333316,"velocity":0.8031496062992126,"duration":0.1979166666666714},{"name":"G3","midi":55,"time":95.80208333333316,"velocity":0.8031496062992126,"duration":0.1979166666666714},{"name":"A4","midi":69,"time":96.00520833333316,"velocity":0.8031496062992126,"duration":0.3997395833333286},{"name":"F3","midi":53,"time":96.00520833333316,"velocity":0.8031496062992126,"duration":0.1979166666666714},{"name":"G3","midi":55,"time":96.20833333333316,"velocity":0.8031496062992126,"duration":0.1979166666666572},{"name":"C5","midi":72,"time":96.41015624999982,"velocity":0.8031496062992126,"duration":0.3997395833333286},{"name":"F5","midi":77,"time":96.41015624999982,"velocity":0.8031496062992126,"duration":0.3997395833333286},{"name":"A4","midi":69,"time":96.41015624999982,"velocity":0.8031496062992126,"duration":0.3997395833333286},{"name":"F3","midi":53,"time":96.41015624999982,"velocity":0.8031496062992126,"duration":0.1979166666666714},{"name":"D#3","midi":51,"time":96.61328124999982,"velocity":0.8031496062992126,"duration":0.1979166666666572},{"name":"F5","midi":77,"time":96.81510416666647,"velocity":0.8031496062992126,"duration":0.3997395833333286},{"name":"A4","midi":69,"time":96.81510416666647,"velocity":0.8031496062992126,"duration":0.3997395833333286},{"name":"C5","midi":72,"time":96.81510416666647,"velocity":0.8031496062992126,"duration":0.3997395833333286},{"name":"D3","midi":50,"time":96.81510416666647,"velocity":0.8031496062992126,"duration":0.1979166666666714},{"name":"C3","midi":48,"time":97.01822916666647,"velocity":0.8031496062992126,"duration":0.1979166666666572},{"name":"D5","midi":74,"time":97.22005208333313,"velocity":0.8031496062992126,"duration":0.3997395833333286},{"name":"F4","midi":65,"time":97.22005208333313,"velocity":0.8031496062992126,"duration":1.2122395833333002},{"name":"A#4","midi":70,"time":97.22005208333313,"velocity":0.8031496062992126,"duration":0.3997395833333286},{"name":"A#2","midi":46,"time":97.22005208333313,"velocity":0.8031496062992126,"duration":0.1979166666666714},{"name":"C3","midi":48,"time":97.42317708333313,"velocity":0.8031496062992126,"duration":0.1979166666666572},{"name":"A#4","midi":70,"time":97.62499999999979,"velocity":0.8031496062992126,"duration":0.3997395833333286},{"name":"D5","midi":74,"time":97.62499999999979,"velocity":0.8031496062992126,"duration":0.3997395833333286},{"name":"A#2","midi":46,"time":97.62499999999979,"velocity":0.8031496062992126,"duration":0.1979166666666714},{"name":"A2","midi":45,"time":97.82812499999979,"velocity":0.8031496062992126,"duration":0.1979166666666572},{"name":"D5","midi":74,"time":98.02994791666644,"velocity":0.8031496062992126,"duration":0.3997395833333286},{"name":"A#4","midi":70,"time":98.02994791666644,"velocity":0.8031496062992126,"duration":0.3997395833333286},{"name":"G2","midi":43,"time":98.02994791666644,"velocity":0.8031496062992126,"duration":0.1979166666666714},{"name":"F2","midi":41,"time":98.23307291666644,"velocity":0.8031496062992126,"duration":0.1979166666666572},{"name":"D5","midi":74,"time":98.4348958333331,"velocity":0.8031496062992126,"duration":1.2122395833333002},{"name":"G4","midi":67,"time":98.4348958333331,"velocity":0.8031496062992126,"duration":0.1979166666666714},{"name":"D#2","midi":39,"time":98.4348958333331,"velocity":0.8031496062992126,"duration":0.3997395833333286},{"name":"F4","midi":65,"time":98.6380208333331,"velocity":0.8031496062992126,"duration":0.1979166666666572},{"name":"G4","midi":67,"time":98.83984374999976,"velocity":0.8031496062992126,"duration":0.1979166666666714},{"name":"D#3","midi":51,"time":98.83984374999976,"velocity":0.8031496062992126,"duration":0.3997395833333286},{"name":"A4","midi":69,"time":99.04296874999976,"velocity":0.8031496062992126,"duration":0.1979166666666572},{"name":"A#4","midi":70,"time":99.24479166666642,"velocity":0.8031496062992126,"duration":0.1979166666666714},{"name":"D#3","midi":51,"time":99.24479166666642,"velocity":0.8031496062992126,"duration":0.3997395833333286},{"name":"G4","midi":67,"time":99.44791666666642,"velocity":0.8031496062992126,"duration":0.1979166666666572},{"name":"C5","midi":72,"time":99.64973958333307,"velocity":0.8031496062992126,"duration":2.4257812499999716},{"name":"A3","midi":57,"time":99.64973958333307,"velocity":0.8031496062992126,"duration":0.3997395833333286},{"name":"A#4","midi":70,"time":99.85286458333307,"velocity":0.8031496062992126,"duration":0.1979166666666572},{"name":"A4","midi":69,"time":100.05468749999973,"velocity":0.8031496062992126,"duration":0.1979166666666714},{"name":"A2","midi":45,"time":100.05468749999973,"velocity":0.8031496062992126,"duration":0.3997395833333286},{"name":"G4","midi":67,"time":100.25781249999973,"velocity":0.8031496062992126,"duration":0.1979166666666572},{"name":"F4","midi":65,"time":100.45963541666639,"velocity":0.8031496062992126,"duration":0.1979166666666714},{"name":"A2","midi":45,"time":100.45963541666639,"velocity":0.8031496062992126,"duration":0.3997395833333286},{"name":"D#4","midi":63,"time":100.66276041666639,"velocity":0.8031496062992126,"duration":0.1979166666666572},{"name":"F4","midi":65,"time":100.86458333333304,"velocity":0.8031496062992126,"duration":0.1979166666666714},{"name":"D2","midi":38,"time":100.86458333333304,"velocity":0.8031496062992126,"duration":0.3997395833333286},{"name":"D#4","midi":63,"time":101.06770833333304,"velocity":0.8031496062992126,"duration":0.1979166666666572},{"name":"F4","midi":65,"time":101.27083333333303,"velocity":0.8031496062992126,"duration":0.1979166666666714},{"name":"D3","midi":50,"time":101.27083333333303,"velocity":0.8031496062992126,"duration":0.3997395833333428},{"name":"G4","midi":67,"time":101.4726562499997,"velocity":0.8031496062992126,"duration":0.1979166666666714},{"name":"A4","midi":69,"time":101.6757812499997,"velocity":0.8031496062992126,"duration":0.1979166666666714},{"name":"D3","midi":50,"time":101.6757812499997,"velocity":0.8031496062992126,"duration":0.3997395833333428},{"name":"F4","midi":65,"time":101.87760416666637,"velocity":0.8031496062992126,"duration":0.1979166666666714},{"name":"D4","midi":62,"time":102.08072916666637,"velocity":0.8031496062992126,"duration":0.1979166666666714},{"name":"A#4","midi":70,"time":102.08072916666637,"velocity":0.8031496062992126,"duration":2.4257812500000284},{"name":"G3","midi":55,"time":102.08072916666637,"velocity":0.8031496062992126,"duration":0.3997395833333428},{"name":"A4","midi":69,"time":102.28255208333304,"velocity":0.8031496062992126,"duration":0.1979166666666714},{"name":"G4","midi":67,"time":102.48567708333304,"velocity":0.8031496062992126,"duration":0.1979166666666714},{"name":"G2","midi":43,"time":102.48567708333304,"velocity":0.8031496062992126,"duration":0.3997395833333428},{"name":"F4","midi":65,"time":102.68749999999972,"velocity":0.8031496062992126,"duration":0.1979166666666714},{"name":"D#4","midi":63,"time":102.89062499999972,"velocity":0.8031496062992126,"duration":0.1979166666666714},{"name":"G2","midi":43,"time":102.89062499999972,"velocity":0.8031496062992126,"duration":0.3997395833333428},{"name":"D4","midi":62,"time":103.09244791666639,"velocity":0.8031496062992126,"duration":0.1979166666666714},{"name":"D#4","midi":63,"time":103.29557291666639,"velocity":0.8031496062992126,"duration":0.1979166666666714},{"name":"C2","midi":36,"time":103.29557291666639,"velocity":0.8031496062992126,"duration":0.3997395833333428},{"name":"D4","midi":62,"time":103.49739583333306,"velocity":0.8031496062992126,"duration":0.1979166666666714},{"name":"D#4","midi":63,"time":103.70052083333306,"velocity":0.8031496062992126,"duration":0.1979166666666714},{"name":"C3","midi":48,"time":103.70052083333306,"velocity":0.8031496062992126,"duration":0.3997395833333428},{"name":"F4","midi":65,"time":103.90234374999973,"velocity":0.8031496062992126,"duration":0.1979166666666714},{"name":"G4","midi":67,"time":104.10546874999973,"velocity":0.8031496062992126,"duration":0.1979166666666714},{"name":"C3","midi":48,"time":104.10546874999973,"velocity":0.8031496062992126,"duration":0.3997395833333428},{"name":"D#4","midi":63,"time":104.3072916666664,"velocity":0.8031496062992126,"duration":0.1979166666666714},{"name":"C4","midi":60,"time":104.5104166666664,"velocity":0.8031496062992126,"duration":0.1979166666666714},{"name":"A4","midi":69,"time":104.5104166666664,"velocity":0.8031496062992126,"duration":1.212239583333357},{"name":"F3","midi":53,"time":104.5104166666664,"velocity":0.8031496062992126,"duration":1.2096354166666856},{"name":"G4","midi":67,"time":104.71223958333307,"velocity":0.8031496062992126,"duration":0.1979166666666714},{"name":"F4","midi":65,"time":104.91536458333307,"velocity":0.8031496062992126,"duration":0.1979166666666714},{"name":"D#4","midi":63,"time":105.11718749999974,"velocity":0.8031496062992126,"duration":0.1979166666666714},{"name":"D4","midi":62,"time":105.32031249999974,"velocity":0.8031496062992126,"duration":0.1979166666666714},{"name":"C4","midi":60,"time":105.52213541666642,"velocity":0.8031496062992126,"duration":0.1979166666666714},{"name":"A4","midi":69,"time":105.72526041666643,"velocity":0.8031496062992126,"duration":0.0963541666666714},{"name":"D4","midi":62,"time":105.72526041666643,"velocity":0.8031496062992126,"duration":0.1979166666666714},{"name":"A#4","midi":70,"time":105.82682291666643,"velocity":0.8031496062992126,"duration":0.0963541666666714},{"name":"C5","midi":72,"time":105.9270833333331,"velocity":0.8031496062992126,"duration":0.0963541666666714},{"name":"F4","midi":65,"time":105.9270833333331,"velocity":0.8031496062992126,"duration":0.1979166666666714},{"name":"A#4","midi":70,"time":106.0286458333331,"velocity":0.8031496062992126,"duration":0.0963541666666714},{"name":"C5","midi":72,"time":106.1302083333331,"velocity":0.8031496062992126,"duration":0.0963541666666714},{"name":"D#4","midi":63,"time":106.1302083333331,"velocity":0.8031496062992126,"duration":0.1979166666666714},{"name":"A#4","midi":70,"time":106.2317708333331,"velocity":0.8031496062992126,"duration":0.0963541666666714},{"name":"C5","midi":72,"time":106.3333333333331,"velocity":0.8031496062992126,"duration":0.0963541666666714},{"name":"D4","midi":62,"time":106.3333333333331,"velocity":0.8031496062992126,"duration":0.1979166666666714},{"name":"A#4","midi":70,"time":106.43359374999977,"velocity":0.8031496062992126,"duration":0.0963541666666714},{"name":"C5","midi":72,"time":106.53515624999977,"velocity":0.8031496062992126,"duration":0.0963541666666714},{"name":"C4","midi":60,"time":106.53515624999977,"velocity":0.8031496062992126,"duration":0.1979166666666714},{"name":"A#4","midi":70,"time":106.63671874999977,"velocity":0.8031496062992126,"duration":0.0963541666666714},{"name":"A4","midi":69,"time":106.73828124999977,"velocity":0.8031496062992126,"duration":0.0963541666666714},{"name":"A#3","midi":58,"time":106.73828124999977,"velocity":0.8031496062992126,"duration":0.1979166666666714},{"name":"A#4","midi":70,"time":106.83854166666644,"velocity":0.8031496062992126,"duration":0.0963541666666714},{"name":"C5","midi":72,"time":106.94010416666644,"velocity":0.8031496062992126,"duration":0.3997395833333286},{"name":"A3","midi":57,"time":106.94010416666644,"velocity":0.8031496062992126,"duration":0.1979166666666714},{"name":"A#3","midi":58,"time":107.14322916666644,"velocity":0.8031496062992126,"duration":0.1979166666666572},{"name":"C5","midi":72,"time":107.3450520833331,"velocity":0.8031496062992126,"duration":0.3997395833333286},{"name":"F4","midi":65,"time":107.3450520833331,"velocity":0.8031496062992126,"duration":0.3997395833333286},{"name":"A4","midi":69,"time":107.3450520833331,"velocity":0.8031496062992126,"duration":0.3997395833333286},{"name":"A3","midi":57,"time":107.3450520833331,"velocity":0.8031496062992126,"duration":0.1979166666666714},{"name":"G3","midi":55,"time":107.5481770833331,"velocity":0.8031496062992126,"duration":0.1979166666666572},{"name":"A4","midi":69,"time":107.74999999999976,"velocity":0.8031496062992126,"duration":0.3997395833333286},{"name":"C5","midi":72,"time":107.74999999999976,"velocity":0.8031496062992126,"duration":0.3997395833333286},{"name":"F4","midi":65,"time":107.74999999999976,"velocity":0.8031496062992126,"duration":0.3997395833333286},{"name":"F3","midi":53,"time":107.74999999999976,"velocity":0.8031496062992126,"duration":0.1979166666666714},{"name":"D#3","midi":51,"time":107.95312499999976,"velocity":0.8031496062992126,"duration":0.1979166666666572},{"name":"F5","midi":77,"time":108.15494791666642,"velocity":0.8031496062992126,"duration":0.3997395833333286},{"name":"G#4","midi":68,"time":108.15494791666642,"velocity":0.8031496062992126,"duration":0.3997395833333286},{"name":"A#4","midi":70,"time":108.15494791666642,"velocity":0.8031496062992126,"duration":1.9986979166666288},{"name":"D3","midi":50,"time":108.15494791666642,"velocity":0.8031496062992126,"duration":0.1979166666666714},{"name":"C3","midi":48,"time":108.35807291666642,"velocity":0.8031496062992126,"duration":0.1979166666666572},{"name":"F5","midi":77,"time":108.55989583333307,"velocity":0.8031496062992126,"duration":0.3997395833333286},{"name":"G#4","midi":68,"time":108.55989583333307,"velocity":0.8031496062992126,"duration":0.3997395833333286},{"name":"A#2","midi":46,"time":108.55989583333307,"velocity":0.8031496062992126,"duration":0.1979166666666714},{"name":"G#2","midi":44,"time":108.76302083333307,"velocity":0.8031496062992126,"duration":0.1979166666666572},{"name":"F5","midi":77,"time":108.96484374999973,"velocity":0.8031496062992126,"duration":0.3997395833333286},{"name":"G#4","midi":68,"time":108.96484374999973,"velocity":0.8031496062992126,"duration":0.3997395833333286},{"name":"G2","midi":43,"time":108.96484374999973,"velocity":0.8031496062992126,"duration":0.1979166666666714},{"name":"F2","midi":41,"time":109.16796874999973,"velocity":0.8031496062992126,"duration":0.1979166666666572},{"name":"F5","midi":77,"time":109.36979166666639,"velocity":0.8031496062992126,"duration":0.3997395833333286},{"name":"G#4","midi":68,"time":109.36979166666639,"velocity":0.8031496062992126,"duration":0.3997395833333286},{"name":"D#2","midi":39,"time":109.36979166666639,"velocity":0.8031496062992126,"duration":0.3997395833333286},{"name":"D#5","midi":75,"time":109.77473958333304,"velocity":0.8031496062992126,"duration":0.3776041666666714},{"name":"G4","midi":67,"time":109.77473958333304,"velocity":0.8031496062992126,"duration":0.3776041666666714},{"name":"A#3","midi":58,"time":109.77473958333304,"velocity":0.8031496062992126,"duration":0.1979166666666714},{"name":"G#3","midi":56,"time":109.97786458333304,"velocity":0.8031496062992126,"duration":0.1979166666666714},{"name":"D#5","midi":75,"time":110.17968749999972,"velocity":0.8031496062992126,"duration":0.3997395833333286},{"name":"G4","midi":67,"time":110.17968749999972,"velocity":0.8031496062992126,"duration":0.3997395833333286},{"name":"A#4","midi":70,"time":110.17968749999972,"velocity":0.8031496062992126,"duration":0.3997395833333286},{"name":"G3","midi":55,"time":110.17968749999972,"velocity":0.8031496062992126,"duration":0.1979166666666714},{"name":"F3","midi":53,"time":110.38281249999972,"velocity":0.8031496062992126,"duration":0.1979166666666572},{"name":"G5","midi":79,"time":110.58463541666637,"velocity":0.8031496062992126,"duration":0.3997395833333286},{"name":"A#4","midi":70,"time":110.58463541666637,"velocity":0.8031496062992126,"duration":0.3997395833333286},{"name":"C5","midi":72,"time":110.58463541666637,"velocity":0.8031496062992126,"duration":1.9531249999999716},{"name":"E3","midi":52,"time":110.58463541666637,"velocity":0.8031496062992126,"duration":0.1979166666666714},{"name":"D3","midi":50,"time":110.78776041666637,"velocity":0.8031496062992126,"duration":0.1979166666666572},{"name":"G5","midi":79,"time":110.98958333333303,"velocity":0.8031496062992126,"duration":0.3997395833333286},{"name":"A#4","midi":70,"time":110.98958333333303,"velocity":0.8031496062992126,"duration":0.3997395833333286},{"name":"C3","midi":48,"time":110.98958333333303,"velocity":0.8031496062992126,"duration":0.1979166666666714},{"name":"A#2","midi":46,"time":111.19270833333303,"velocity":0.8031496062992126,"duration":0.1979166666666572},{"name":"G5","midi":79,"time":111.39583333333302,"velocity":0.8031496062992126,"duration":0.3997395833333428},{"name":"A#4","midi":70,"time":111.39583333333302,"velocity":0.8031496062992126,"duration":0.3997395833333428},{"name":"A2","midi":45,"time":111.39583333333302,"velocity":0.8031496062992126,"duration":0.1979166666666714},{"name":"G2","midi":43,"time":111.59765624999969,"velocity":0.8031496062992126,"duration":0.1979166666666714},{"name":"A#4","midi":70,"time":111.80078124999969,"velocity":0.8031496062992126,"duration":0.3997395833333286},{"name":"G5","midi":79,"time":111.80078124999969,"velocity":0.8031496062992126,"duration":0.3997395833333286},{"name":"F2","midi":41,"time":111.80078124999969,"velocity":0.8031496062992126,"duration":0.3997395833333286},{"name":"A4","midi":69,"time":112.20572916666634,"velocity":0.8031496062992126,"duration":0.3776041666666714},{"name":"F5","midi":77,"time":112.20572916666634,"velocity":0.8031496062992126,"duration":0.3776041666666714},{"name":"D#4","midi":63,"time":112.20572916666634,"velocity":0.8031496062992126,"duration":0.1979166666666714},{"name":"D4","midi":62,"time":112.40755208333302,"velocity":0.8031496062992126,"duration":0.1979166666666714},{"name":"F5","midi":77,"time":112.61067708333302,"velocity":0.8031496062992126,"duration":0.3997395833333428},{"name":"A4","midi":69,"time":112.61067708333302,"velocity":0.8031496062992126,"duration":0.3997395833333428},{"name":"C5","midi":72,"time":112.61067708333302,"velocity":0.8031496062992126,"duration":0.3997395833333428},{"name":"C4","midi":60,"time":112.61067708333302,"velocity":0.8031496062992126,"duration":0.1979166666666714},{"name":"A#3","midi":58,"time":112.81249999999969,"velocity":0.8031496062992126,"duration":0.1979166666666714},{"name":"D#5","midi":75,"time":113.01562499999969,"velocity":0.8031496062992126,"duration":0.3997395833333428},{"name":"F5","midi":77,"time":113.01562499999969,"velocity":0.8031496062992126,"duration":2.4257812500000284},{"name":"C5","midi":72,"time":113.01562499999969,"velocity":0.8031496062992126,"duration":0.3997395833333428},{"name":"A3","midi":57,"time":113.01562499999969,"velocity":0.8031496062992126,"duration":0.1979166666666714},{"name":"G3","midi":55,"time":113.21744791666636,"velocity":0.8031496062992126,"duration":0.1979166666666714},{"name":"D#5","midi":75,"time":113.42057291666636,"velocity":0.8031496062992126,"duration":0.3997395833333428},{"name":"C5","midi":72,"time":113.42057291666636,"velocity":0.8031496062992126,"duration":0.3997395833333428},{"name":"F3","midi":53,"time":113.42057291666636,"velocity":0.8031496062992126,"duration":0.1979166666666714},{"name":"D#3","midi":51,"time":113.62239583333303,"velocity":0.8031496062992126,"duration":0.1979166666666714},{"name":"D#5","midi":75,"time":113.82552083333303,"velocity":0.8031496062992126,"duration":0.3997395833333428},{"name":"C5","midi":72,"time":113.82552083333303,"velocity":0.8031496062992126,"duration":0.3997395833333428},{"name":"D3","midi":50,"time":113.82552083333303,"velocity":0.8031496062992126,"duration":0.1979166666666714},{"name":"C3","midi":48,"time":114.0273437499997,"velocity":0.8031496062992126,"duration":0.1979166666666714},{"name":"D#5","midi":75,"time":114.2304687499997,"velocity":0.8031496062992126,"duration":0.3997395833333428},{"name":"C5","midi":72,"time":114.2304687499997,"velocity":0.8031496062992126,"duration":0.3997395833333428},{"name":"A#2","midi":46,"time":114.2304687499997,"velocity":0.8031496062992126,"duration":0.1979166666666714},{"name":"A2","midi":45,"time":114.43229166666637,"velocity":0.8031496062992126,"duration":0.1979166666666714},{"name":"D5","midi":74,"time":114.63541666666637,"velocity":0.8031496062992126,"duration":0.3997395833333428},{"name":"A#4","midi":70,"time":114.63541666666637,"velocity":0.8031496062992126,"duration":0.3997395833333428},{"name":"A#2","midi":46,"time":114.63541666666637,"velocity":0.8031496062992126,"duration":0.1979166666666714},{"name":"C3","midi":48,"time":114.83723958333304,"velocity":0.8031496062992126,"duration":0.1979166666666714},{"name":"A#4","midi":70,"time":115.04036458333304,"velocity":0.8031496062992126,"duration":0.3997395833333428},{"name":"G#4","midi":68,"time":115.04036458333304,"velocity":0.8031496062992126,"duration":0.3997395833333428},{"name":"D3","midi":50,"time":115.04036458333304,"velocity":0.8031496062992126,"duration":0.1979166666666714},{"name":"A#2","midi":46,"time":115.24218749999972,"velocity":0.8031496062992126,"duration":0.1979166666666714},{"name":"A#4","midi":70,"time":115.44531249999972,"velocity":0.8031496062992126,"duration":1.2122395833333286},{"name":"D#5","midi":75,"time":115.44531249999972,"velocity":0.8031496062992126,"duration":0.3997395833333428},{"name":"G4","midi":67,"time":115.44531249999972,"velocity":0.8031496062992126,"duration":0.3997395833333428},{"name":"D#3","midi":51,"time":115.44531249999972,"velocity":0.8031496062992126,"duration":0.1979166666666714},{"name":"D3","midi":50,"time":115.64713541666639,"velocity":0.8031496062992126,"duration":0.1979166666666714},{"name":"D5","midi":74,"time":115.85026041666639,"velocity":0.8031496062992126,"duration":0.3997395833333428},{"name":"F4","midi":65,"time":115.85026041666639,"velocity":0.8031496062992126,"duration":0.3997395833333428},{"name":"D#3","midi":51,"time":115.85026041666639,"velocity":0.8031496062992126,"duration":0.1979166666666714},{"name":"F3","midi":53,"time":116.05208333333306,"velocity":0.8031496062992126,"duration":0.1979166666666714},{"name":"D#4","midi":63,"time":116.25520833333306,"velocity":0.8031496062992126,"duration":0.3997395833333286},{"name":"C5","midi":72,"time":116.25520833333306,"velocity":0.8031496062992126,"duration":0.3997395833333286},{"name":"G3","midi":55,"time":116.25520833333306,"velocity":0.8031496062992126,"duration":0.1979166666666714},{"name":"D#3","midi":51,"time":116.45833333333306,"velocity":0.8031496062992126,"duration":0.1979166666666572},{"name":"D#4","midi":63,"time":116.66015624999972,"velocity":0.8031496062992126,"duration":0.6028645833333428},{"name":"A4","midi":69,"time":116.66015624999972,"velocity":0.8031496062992126,"duration":0.80078125},{"name":"C5","midi":72,"time":116.66015624999972,"velocity":0.8031496062992126,"duration":0.6028645833333428},{"name":"F3","midi":53,"time":116.66015624999972,"velocity":0.8031496062992126,"duration":0.1979166666666714},{"name":"G3","midi":55,"time":116.86328124999972,"velocity":0.8031496062992126,"duration":0.1979166666666714},{"name":"A3","midi":57,"time":117.06510416666639,"velocity":0.8031496062992126,"duration":0.1979166666666714},{"name":"F4","midi":65,"time":117.26822916666639,"velocity":0.8031496062992126,"duration":0.1979166666666572},{"name":"D5","midi":74,"time":117.26822916666639,"velocity":0.8031496062992126,"duration":0.1979166666666572},{"name":"F3","midi":53,"time":117.26822916666639,"velocity":0.8031496062992126,"duration":0.1979166666666572},{"name":"D4","midi":62,"time":117.47005208333304,"velocity":0.8031496062992126,"duration":0.58984375},{"name":"A#3","midi":58,"time":117.47005208333304,"velocity":0.8031496062992126,"duration":0.3997395833333286},{"name":"F4","midi":65,"time":117.57161458333304,"velocity":0.8031496062992126,"duration":0.30078125},{"name":"A#4","midi":70,"time":117.67317708333304,"velocity":0.8031496062992126,"duration":0.3997395833333286},{"name":"G4","midi":67,"time":117.87499999999972,"velocity":0.8031496062992126,"duration":0.3997395833333144},{"name":"D#3","midi":51,"time":117.87499999999972,"velocity":0.8031496062992126,"duration":0.3997395833333144},{"name":"D#4","midi":63,"time":118.0781249999997,"velocity":0.8031496062992126,"duration":0.1979166666666572},{"name":"C5","midi":72,"time":118.0781249999997,"velocity":0.8031496062992126,"duration":0.1979166666666572},{"name":"C4","midi":60,"time":118.27994791666636,"velocity":0.8031496062992126,"duration":0.80078125},{"name":"A#4","midi":70,"time":118.27994791666636,"velocity":0.8031496062992126,"duration":0.0963541666666714},{"name":"F3","midi":53,"time":118.27994791666636,"velocity":0.8031496062992126,"duration":0.3997395833333428},{"name":"A4","midi":69,"time":118.38151041666636,"velocity":0.8031496062992126,"duration":0.0963541666666714},{"name":"A#4","midi":70,"time":118.48307291666636,"velocity":0.8031496062992126,"duration":0.0963541666666714},{"name":"A4","midi":69,"time":118.58333333333303,"velocity":0.8031496062992126,"duration":0.0963541666666714},{"name":"A#4","midi":70,"time":118.68489583333303,"velocity":0.8031496062992126,"duration":0.0963541666666714},{"name":"F2","midi":41,"time":118.68489583333303,"velocity":0.8031496062992126,"duration":0.3997395833333286},{"name":"A4","midi":69,"time":118.78645833333303,"velocity":0.8031496062992126,"duration":0.0963541666666714},{"name":"A#4","midi":70,"time":118.88802083333303,"velocity":0.8031496062992126,"duration":0.1979166666666572},{"name":"D4","midi":62,"time":119.08984374999969,"velocity":0.8031496062992126,"duration":0.3997395833333428},{"name":"F4","midi":65,"time":119.08984374999969,"velocity":0.8031496062992126,"duration":0.3997395833333428},{"name":"A#4","midi":70,"time":119.08984374999969,"velocity":0.8031496062992126,"duration":0.1979166666666714},{"name":"A#2","midi":46,"time":119.08984374999969,"velocity":0.8031496062992126,"duration":0.3997395833333428},{"name":"C5","midi":72,"time":119.31380208333303,"velocity":0.8031496062992126,"duration":0.1979166666666714},{"name":"F4","midi":65,"time":119.5156249999997,"velocity":0.8031496062992126,"duration":0.3997395833333286},{"name":"D5","midi":74,"time":119.5156249999997,"velocity":0.8031496062992126,"duration":0.1979166666666714},{"name":"A#4","midi":70,"time":119.7187499999997,"velocity":0.8031496062992126,"duration":0.1979166666666572},{"name":"F4","midi":65,"time":119.92057291666636,"velocity":0.8031496062992126,"duration":0.3997395833333286},{"name":"A4","midi":69,"time":119.92057291666636,"velocity":0.8031496062992126,"duration":0.1979166666666714},{"name":"A#4","midi":70,"time":120.12369791666636,"velocity":0.8031496062992126,"duration":0.1979166666666572},{"name":"D4","midi":62,"time":120.32552083333302,"velocity":0.8031496062992126,"duration":0.3997395833333286},{"name":"F4","midi":65,"time":120.32552083333302,"velocity":0.8031496062992126,"duration":0.1979166666666714},{"name":"A#4","midi":70,"time":120.52864583333302,"velocity":0.8031496062992126,"duration":0.1979166666666572},{"name":"A#3","midi":58,"time":120.73046874999967,"velocity":0.8031496062992126,"duration":0.3997395833333286},{"name":"D5","midi":74,"time":120.73046874999967,"velocity":0.8031496062992126,"duration":0.1979166666666714},{"name":"A#4","midi":70,"time":120.93359374999967,"velocity":0.8031496062992126,"duration":0.1979166666666572},{"name":"A#3","midi":58,"time":121.13541666666633,"velocity":0.8031496062992126,"duration":0.3997395833333286},{"name":"E5","midi":76,"time":121.13541666666633,"velocity":0.8031496062992126,"duration":0.1979166666666714},{"name":"A#4","midi":70,"time":121.33854166666633,"velocity":0.8031496062992126,"duration":0.1979166666666572},{"name":"A3","midi":57,"time":121.54166666666632,"velocity":0.8031496062992126,"duration":0.1979166666666714},{"name":"F5","midi":77,"time":121.54166666666632,"velocity":0.8031496062992126,"duration":0.3997395833333428},{"name":"G3","midi":55,"time":121.74348958333299,"velocity":0.8031496062992126,"duration":0.1979166666666714},{"name":"A3","midi":57,"time":121.94661458333299,"velocity":0.8031496062992126,"duration":0.1979166666666714},{"name":"C6","midi":84,"time":121.94661458333299,"velocity":0.8031496062992126,"duration":0.3997395833333428},{"name":"F3","midi":53,"time":122.14843749999966,"velocity":0.8031496062992126,"duration":0.1979166666666714},{"name":"E3","midi":52,"time":122.35156249999966,"velocity":0.8031496062992126,"duration":0.1979166666666714},{"name":"C6","midi":84,"time":122.35156249999966,"velocity":0.8031496062992126,"duration":0.3997395833333428},{"name":"F3","midi":53,"time":122.55338541666633,"velocity":0.8031496062992126,"duration":0.1979166666666714},{"name":"C3","midi":48,"time":122.75651041666633,"velocity":0.8031496062992126,"duration":0.1979166666666714},{"name":"A5","midi":81,"time":122.75651041666633,"velocity":0.8031496062992126,"duration":0.3997395833333428},{"name":"F3","midi":53,"time":122.958333333333,"velocity":0.8031496062992126,"duration":0.1979166666666714},{"name":"A3","midi":57,"time":123.161458333333,"velocity":0.8031496062992126,"duration":0.1979166666666714},{"name":"F5","midi":77,"time":123.161458333333,"velocity":0.8031496062992126,"duration":0.3997395833333428},{"name":"F3","midi":53,"time":123.36328124999967,"velocity":0.8031496062992126,"duration":0.1979166666666714},{"name":"B3","midi":59,"time":123.56640624999967,"velocity":0.8031496062992126,"duration":0.1979166666666714},{"name":"F5","midi":77,"time":123.56640624999967,"velocity":0.8031496062992126,"duration":0.3997395833333428},{"name":"F3","midi":53,"time":123.76822916666634,"velocity":0.8031496062992126,"duration":0.1979166666666714},{"name":"C4","midi":60,"time":123.97135416666634,"velocity":0.8031496062992126,"duration":0.3997395833333428},{"name":"D#5","midi":75,"time":123.97135416666634,"velocity":0.8031496062992126,"duration":0.1979166666666714},{"name":"D5","midi":74,"time":124.17317708333302,"velocity":0.8031496062992126,"duration":0.1979166666666714},{"name":"G3","midi":55,"time":124.37630208333302,"velocity":0.8031496062992126,"duration":0.3997395833333428},{"name":"D#5","midi":75,"time":124.37630208333302,"velocity":0.8031496062992126,"duration":0.1979166666666714},{"name":"C5","midi":72,"time":124.57812499999969,"velocity":0.8031496062992126,"duration":0.1979166666666714},{"name":"G3","midi":55,"time":124.78124999999969,"velocity":0.8031496062992126,"duration":0.3997395833333428},{"name":"B4","midi":71,"time":124.78124999999969,"velocity":0.8031496062992126,"duration":0.1979166666666714},{"name":"C5","midi":72,"time":124.98307291666636,"velocity":0.8031496062992126,"duration":0.1979166666666714},{"name":"D#3","midi":51,"time":125.18619791666636,"velocity":0.8031496062992126,"duration":0.3997395833333428},{"name":"G4","midi":67,"time":125.18619791666636,"velocity":0.8031496062992126,"duration":0.1979166666666714},{"name":"C5","midi":72,"time":125.38802083333303,"velocity":0.8031496062992126,"duration":0.1979166666666714},{"name":"C3","midi":48,"time":125.59114583333303,"velocity":0.8031496062992126,"duration":0.3997395833333428},{"name":"D#5","midi":75,"time":125.59114583333303,"velocity":0.8031496062992126,"duration":0.1979166666666714},{"name":"C5","midi":72,"time":125.7929687499997,"velocity":0.8031496062992126,"duration":0.1979166666666714},{"name":"C3","midi":48,"time":125.9960937499997,"velocity":0.8031496062992126,"duration":0.3997395833333428},{"name":"F#5","midi":78,"time":125.9960937499997,"velocity":0.8031496062992126,"duration":0.1979166666666714},{"name":"C5","midi":72,"time":126.19791666666637,"velocity":0.8031496062992126,"duration":0.1979166666666714},{"name":"A#2","midi":46,"time":126.40104166666637,"velocity":0.8031496062992126,"duration":0.1979166666666714},{"name":"G5","midi":79,"time":126.40104166666637,"velocity":0.8031496062992126,"duration":0.3997395833333286},{"name":"A2","midi":45,"time":126.60416666666637,"velocity":0.8031496062992126,"duration":0.1979166666666572},{"name":"A#2","midi":46,"time":126.80598958333303,"velocity":0.8031496062992126,"duration":0.1979166666666714},{"name":"D5","midi":74,"time":126.80598958333303,"velocity":0.8031496062992126,"duration":0.3997395833333286},{"name":"G2","midi":43,"time":127.00911458333303,"velocity":0.8031496062992126,"duration":0.1979166666666572},{"name":"F#2","midi":42,"time":127.21093749999969,"velocity":0.8031496062992126,"duration":0.1979166666666714},{"name":"D5","midi":74,"time":127.21093749999969,"velocity":0.8031496062992126,"duration":0.3997395833333286},{"name":"G2","midi":43,"time":127.41406249999969,"velocity":0.8031496062992126,"duration":0.1979166666666572},{"name":"D2","midi":38,"time":127.61588541666634,"velocity":0.8031496062992126,"duration":0.1979166666666714},{"name":"A#4","midi":70,"time":127.61588541666634,"velocity":0.8031496062992126,"duration":0.3997395833333428},{"name":"G2","midi":43,"time":127.81901041666634,"velocity":0.8031496062992126,"duration":0.19791666666668561},{"name":"A#2","midi":46,"time":128.02083333333303,"velocity":0.8031496062992126,"duration":0.1979166666666572},{"name":"G4","midi":67,"time":128.02083333333303,"velocity":0.8031496062992126,"duration":0.3997395833333428},{"name":"G2","midi":43,"time":128.22395833333303,"velocity":0.8031496062992126,"duration":0.19791666666668561},{"name":"C#3","midi":49,"time":128.42578124999972,"velocity":0.8031496062992126,"duration":0.1979166666666572},{"name":"G4","midi":67,"time":128.42578124999972,"velocity":0.8031496062992126,"duration":0.3997395833333428},{"name":"G2","midi":43,"time":128.62890624999972,"velocity":0.8031496062992126,"duration":0.19791666666668561},{"name":"D3","midi":50,"time":128.8307291666664,"velocity":0.8031496062992126,"duration":0.1979166666666572},{"name":"F4","midi":65,"time":128.8307291666664,"velocity":0.8031496062992126,"duration":0.3997395833333428},{"name":"E3","midi":52,"time":129.0338541666664,"velocity":0.8031496062992126,"duration":0.19791666666668561},{"name":"F3","midi":53,"time":129.2356770833331,"velocity":0.8031496062992126,"duration":0.1979166666666572},{"name":"A5","midi":81,"time":129.2356770833331,"velocity":0.8031496062992126,"duration":0.3997395833333428},{"name":"D3","midi":50,"time":129.4388020833331,"velocity":0.8031496062992126,"duration":0.19791666666668561},{"name":"C#3","midi":49,"time":129.64062499999977,"velocity":0.8031496062992126,"duration":0.1979166666666572},{"name":"A5","midi":81,"time":129.64062499999977,"velocity":0.8031496062992126,"duration":0.3997395833333428},{"name":"D3","midi":50,"time":129.84374999999977,"velocity":0.8031496062992126,"duration":0.19791666666668561},{"name":"A2","midi":45,"time":130.04557291666646,"velocity":0.8031496062992126,"duration":0.1979166666666572},{"name":"F5","midi":77,"time":130.04557291666646,"velocity":0.8031496062992126,"duration":0.3997395833333428},{"name":"D3","midi":50,"time":130.24869791666646,"velocity":0.8031496062992126,"duration":0.19791666666668561},{"name":"F3","midi":53,"time":130.45052083333314,"velocity":0.8031496062992126,"duration":0.1979166666666572},{"name":"D5","midi":74,"time":130.45052083333314,"velocity":0.8031496062992126,"duration":0.3997395833333428},{"name":"D3","midi":50,"time":130.65364583333314,"velocity":0.8031496062992126,"duration":0.19791666666668561},{"name":"G#3","midi":56,"time":130.85546874999983,"velocity":0.8031496062992126,"duration":0.1979166666666572},{"name":"D5","midi":74,"time":130.85546874999983,"velocity":0.8031496062992126,"duration":0.3997395833333428},{"name":"D3","midi":50,"time":131.05859374999983,"velocity":0.8031496062992126,"duration":0.19791666666668561},{"name":"A3","midi":57,"time":131.26041666666652,"velocity":0.8031496062992126,"duration":0.3997395833333428},{"name":"C#5","midi":73,"time":131.26041666666652,"velocity":0.8031496062992126,"duration":0.1979166666666572},{"name":"B4","midi":71,"time":131.46354166666652,"velocity":0.8031496062992126,"duration":0.19791666666668561},{"name":"A4","midi":69,"time":131.66666666666654,"velocity":0.8031496062992126,"duration":0.3997395833333144},{"name":"C#5","midi":73,"time":131.66666666666654,"velocity":0.8031496062992126,"duration":0.1979166666666572},{"name":"D5","midi":74,"time":131.8684895833332,"velocity":0.8031496062992126,"duration":0.1979166666666572},{"name":"A4","midi":69,"time":132.0716145833332,"velocity":0.8031496062992126,"duration":0.3997395833333144},{"name":"B4","midi":71,"time":132.0716145833332,"velocity":0.8031496062992126,"duration":0.1979166666666572},{"name":"C#5","midi":73,"time":132.27343749999986,"velocity":0.8031496062992126,"duration":0.1979166666666572},{"name":"F4","midi":65,"time":132.47656249999986,"velocity":0.8031496062992126,"duration":0.3997395833333144},{"name":"D5","midi":74,"time":132.47656249999986,"velocity":0.8031496062992126,"duration":0.1979166666666572},{"name":"C#5","midi":73,"time":132.67838541666652,"velocity":0.8031496062992126,"duration":0.1979166666666572},{"name":"D4","midi":62,"time":132.88151041666652,"velocity":0.8031496062992126,"duration":0.3997395833333144},{"name":"F4","midi":65,"time":132.88151041666652,"velocity":0.8031496062992126,"duration":0.3997395833333144},{"name":"D5","midi":74,"time":132.88151041666652,"velocity":0.8031496062992126,"duration":0.1979166666666572},{"name":"E5","midi":76,"time":133.08333333333317,"velocity":0.8031496062992126,"duration":0.1979166666666572},{"name":"D4","midi":62,"time":133.28645833333317,"velocity":0.8031496062992126,"duration":0.3997395833333144},{"name":"F4","midi":65,"time":133.28645833333317,"velocity":0.8031496062992126,"duration":0.3997395833333144},{"name":"C#5","midi":73,"time":133.28645833333317,"velocity":0.8031496062992126,"duration":0.1979166666666572},{"name":"D5","midi":74,"time":133.48828124999983,"velocity":0.8031496062992126,"duration":0.1979166666666572},{"name":"C#4","midi":61,"time":133.69140624999983,"velocity":0.8031496062992126,"duration":0.1979166666666572},{"name":"E4","midi":64,"time":133.69140624999983,"velocity":0.8031496062992126,"duration":0.3997395833333144},{"name":"E5","midi":76,"time":133.69140624999983,"velocity":0.8031496062992126,"duration":0.3997395833333144},{"name":"B3","midi":59,"time":133.8932291666665,"velocity":0.8031496062992126,"duration":0.1979166666666572},{"name":"A3","midi":57,"time":134.0963541666665,"velocity":0.8031496062992126,"duration":0.3997395833333144},{"name":"C#4","midi":61,"time":134.0963541666665,"velocity":0.8031496062992126,"duration":0.1979166666666572},{"name":"A4","midi":69,"time":134.0963541666665,"velocity":0.8031496062992126,"duration":0.3997395833333144},{"name":"D4","midi":62,"time":134.29817708333314,"velocity":0.8031496062992126,"duration":0.1979166666666572},{"name":"A3","midi":57,"time":134.50130208333314,"velocity":0.8031496062992126,"duration":0.3997395833333144},{"name":"B3","midi":59,"time":134.50130208333314,"velocity":0.8031496062992126,"duration":0.1979166666666572},{"name":"C#4","midi":61,"time":134.7031249999998,"velocity":0.8031496062992126,"duration":0.1979166666666572},{"name":"F3","midi":53,"time":134.9062499999998,"velocity":0.8031496062992126,"duration":0.3997395833333144},{"name":"A3","midi":57,"time":134.9062499999998,"velocity":0.8031496062992126,"duration":0.3997395833333144},{"name":"D4","midi":62,"time":134.9062499999998,"velocity":0.8031496062992126,"duration":0.1979166666666572},{"name":"C#4","midi":61,"time":135.10807291666646,"velocity":0.8031496062992126,"duration":0.1979166666666572},{"name":"D3","midi":50,"time":135.31119791666646,"velocity":0.8031496062992126,"duration":0.3997395833333144},{"name":"F3","midi":53,"time":135.31119791666646,"velocity":0.8031496062992126,"duration":0.3997395833333144},{"name":"A3","midi":57,"time":135.31119791666646,"velocity":0.8031496062992126,"duration":0.3997395833333144},{"name":"D4","midi":62,"time":135.31119791666646,"velocity":0.8031496062992126,"duration":0.1979166666666572},{"name":"E4","midi":64,"time":135.51302083333312,"velocity":0.8031496062992126,"duration":0.1979166666666572},{"name":"F3","midi":53,"time":135.71614583333312,"velocity":0.8031496062992126,"duration":0.3997395833333144},{"name":"D3","midi":50,"time":135.71614583333312,"velocity":0.8031496062992126,"duration":0.3997395833333144},{"name":"A3","midi":57,"time":135.71614583333312,"velocity":0.8031496062992126,"duration":0.3997395833333144},{"name":"F4","midi":65,"time":135.71614583333312,"velocity":0.8031496062992126,"duration":0.1979166666666572},{"name":"G4","midi":67,"time":135.91796874999977,"velocity":0.8031496062992126,"duration":0.1979166666666572},{"name":"C#3","midi":49,"time":136.12109374999977,"velocity":0.8031496062992126,"duration":0.3997395833333144},{"name":"E3","midi":52,"time":136.12109374999977,"velocity":0.8031496062992126,"duration":0.3997395833333144},{"name":"A3","midi":57,"time":136.12109374999977,"velocity":0.8031496062992126,"duration":0.3997395833333144},{"name":"A4","midi":69,"time":136.12109374999977,"velocity":0.8031496062992126,"duration":0.1979166666666572},{"name":"G4","midi":67,"time":136.32291666666643,"velocity":0.8031496062992126,"duration":0.1979166666666572},{"name":"A2","midi":45,"time":136.52604166666643,"velocity":0.8031496062992126,"duration":0.3997395833333428},{"name":"C#3","midi":49,"time":136.52604166666643,"velocity":0.8031496062992126,"duration":0.3997395833333428},{"name":"E3","midi":52,"time":136.52604166666643,"velocity":0.8031496062992126,"duration":0.3997395833333428},{"name":"A4","midi":69,"time":136.52604166666643,"velocity":0.8031496062992126,"duration":0.1979166666666572},{"name":"B4","midi":71,"time":136.72916666666643,"velocity":0.8031496062992126,"duration":0.19791666666668561},{"name":"C#3","midi":49,"time":136.93098958333312,"velocity":0.8031496062992126,"duration":0.3997395833333428},{"name":"A2","midi":45,"time":136.93098958333312,"velocity":0.8031496062992126,"duration":0.3997395833333428},{"name":"E3","midi":52,"time":136.93098958333312,"velocity":0.8031496062992126,"duration":0.3997395833333428},{"name":"C#5","midi":73,"time":136.93098958333312,"velocity":0.8031496062992126,"duration":0.1979166666666572},{"name":"A4","midi":69,"time":137.13411458333312,"velocity":0.8031496062992126,"duration":0.19791666666668561},{"name":"F2","midi":41,"time":137.3359374999998,"velocity":0.8031496062992126,"duration":0.3997395833333428},{"name":"A2","midi":45,"time":137.3359374999998,"velocity":0.8031496062992126,"duration":0.3997395833333428},{"name":"D3","midi":50,"time":137.3359374999998,"velocity":0.8031496062992126,"duration":0.3997395833333428},{"name":"D5","midi":74,"time":137.3359374999998,"velocity":0.8031496062992126,"duration":0.1979166666666572},{"name":"C#5","midi":73,"time":137.5390624999998,"velocity":0.8031496062992126,"duration":0.19791666666668561},{"name":"F2","midi":41,"time":137.7408854166665,"velocity":0.8031496062992126,"duration":0.3997395833333428},{"name":"D2","midi":38,"time":137.7408854166665,"velocity":0.8031496062992126,"duration":0.3997395833333428},{"name":"D3","midi":50,"time":137.7408854166665,"velocity":0.8031496062992126,"duration":0.3997395833333428},{"name":"A2","midi":45,"time":137.7408854166665,"velocity":0.8031496062992126,"duration":0.3997395833333428},{"name":"D5","midi":74,"time":137.7408854166665,"velocity":0.8031496062992126,"duration":0.1979166666666572},{"name":"E5","midi":76,"time":137.9440104166665,"velocity":0.8031496062992126,"duration":0.19791666666668561},{"name":"F2","midi":41,"time":138.14583333333317,"velocity":0.8031496062992126,"duration":0.3997395833333428},{"name":"A2","midi":45,"time":138.14583333333317,"velocity":0.8031496062992126,"duration":0.3997395833333428},{"name":"D2","midi":38,"time":138.14583333333317,"velocity":0.8031496062992126,"duration":0.3997395833333428},{"name":"F5","midi":77,"time":138.14583333333317,"velocity":0.8031496062992126,"duration":0.1979166666666572},{"name":"G5","midi":79,"time":138.34895833333317,"velocity":0.8031496062992126,"duration":0.19791666666668561},{"name":"A2","midi":45,"time":138.55078124999986,"velocity":0.8031496062992126,"duration":0.80078125},{"name":"C#2","midi":37,"time":138.55078124999986,"velocity":0.8031496062992126,"duration":0.80078125},{"name":"E2","midi":40,"time":138.55078124999986,"velocity":0.8031496062992126,"duration":0.80078125},{"name":"A5","midi":81,"time":138.55078124999986,"velocity":0.8031496062992126,"duration":0.1979166666666572},{"name":"A#5","midi":82,"time":138.75390624999986,"velocity":0.8031496062992126,"duration":0.1979166666666572},{"name":"A4","midi":69,"time":138.95572916666652,"velocity":0.8031496062992126,"duration":0.3997395833333428},{"name":"A5","midi":81,"time":138.95572916666652,"velocity":0.8031496062992126,"duration":0.1979166666666572},{"name":"G5","midi":79,"time":139.15885416666652,"velocity":0.8031496062992126,"duration":0.19791666666668561},{"name":"A4","midi":69,"time":139.3606770833332,"velocity":0.8031496062992126,"duration":0.3997395833333428},{"name":"F5","midi":77,"time":139.3606770833332,"velocity":0.8031496062992126,"duration":0.1979166666666572},{"name":"E5","midi":76,"time":139.5638020833332,"velocity":0.8031496062992126,"duration":0.19791666666668561},{"name":"D5","midi":74,"time":139.7656249999999,"velocity":0.8031496062992126,"duration":0.1979166666666572},{"name":"F5","midi":77,"time":139.7656249999999,"velocity":0.8031496062992126,"duration":0.3997395833333428},{"name":"E5","midi":76,"time":139.9687499999999,"velocity":0.8031496062992126,"duration":0.19791666666668561},{"name":"D5","midi":74,"time":140.17057291666657,"velocity":0.8031496062992126,"duration":0.1979166666666572},{"name":"A5","midi":81,"time":140.17057291666657,"velocity":0.8031496062992126,"duration":0.3997395833333428},{"name":"F5","midi":77,"time":140.17057291666657,"velocity":0.8031496062992126,"duration":0.3997395833333428},{"name":"C5","midi":72,"time":140.37369791666657,"velocity":0.8031496062992126,"duration":0.19791666666668561},{"name":"A#4","midi":70,"time":140.57552083333326,"velocity":0.8031496062992126,"duration":0.1979166666666572},{"name":"F5","midi":77,"time":140.57552083333326,"velocity":0.8031496062992126,"duration":0.3997395833333428},{"name":"A5","midi":81,"time":140.57552083333326,"velocity":0.8031496062992126,"duration":0.3997395833333428},{"name":"A4","midi":69,"time":140.77864583333326,"velocity":0.8031496062992126,"duration":0.19791666666668561},{"name":"G4","midi":67,"time":140.98046874999994,"velocity":0.8031496062992126,"duration":0.1979166666666572},{"name":"F5","midi":77,"time":140.98046874999994,"velocity":0.8031496062992126,"duration":0.58984375},{"name":"A#5","midi":82,"time":140.98046874999994,"velocity":0.8031496062992126,"duration":0.1979166666666572},{"name":"A4","midi":69,"time":141.18359374999994,"velocity":0.8031496062992126,"duration":0.1979166666666572},{"name":"C6","midi":84,"time":141.18359374999994,"velocity":0.8031496062992126,"duration":0.1979166666666572},{"name":"G4","midi":67,"time":141.3854166666666,"velocity":0.8031496062992126,"duration":0.19791666666668561},{"name":"A#5","midi":82,"time":141.3854166666666,"velocity":0.8031496062992126,"duration":0.19791666666668561},{"name":"F4","midi":65,"time":141.58854166666663,"velocity":0.8031496062992126,"duration":0.1979166666666572},{"name":"A5","midi":81,"time":141.58854166666663,"velocity":0.8031496062992126,"duration":0.1979166666666572},{"name":"E4","midi":64,"time":141.79166666666663,"velocity":0.8031496062992126,"duration":0.1979166666666572},{"name":"G5","midi":79,"time":141.79166666666663,"velocity":0.8031496062992126,"duration":0.1979166666666572},{"name":"D4","midi":62,"time":141.9934895833333,"velocity":0.8031496062992126,"duration":0.1979166666666572},{"name":"F5","midi":77,"time":141.9934895833333,"velocity":0.8031496062992126,"duration":0.1979166666666572},{"name":"C4","midi":60,"time":142.1966145833333,"velocity":0.8031496062992126,"duration":0.1979166666666572},{"name":"E5","midi":76,"time":142.1966145833333,"velocity":0.8031496062992126,"duration":0.3997395833333144},{"name":"D4","midi":62,"time":142.39843749999994,"velocity":0.8031496062992126,"duration":0.1979166666666572},{"name":"C4","midi":60,"time":142.60156249999994,"velocity":0.8031496062992126,"duration":0.1979166666666572},{"name":"G5","midi":79,"time":142.60156249999994,"velocity":0.8031496062992126,"duration":0.3997395833333144},{"name":"E5","midi":76,"time":142.60156249999994,"velocity":0.8031496062992126,"duration":0.3997395833333144},{"name":"A#3","midi":58,"time":142.8033854166666,"velocity":0.8031496062992126,"duration":0.1979166666666572},{"name":"A3","midi":57,"time":143.0065104166666,"velocity":0.8031496062992126,"duration":0.1979166666666572},{"name":"G5","midi":79,"time":143.0065104166666,"velocity":0.8031496062992126,"duration":0.3997395833333144},{"name":"E5","midi":76,"time":143.0065104166666,"velocity":0.8031496062992126,"duration":0.3997395833333144},{"name":"G3","midi":55,"time":143.20833333333326,"velocity":0.8031496062992126,"duration":0.1979166666666572},{"name":"F3","midi":53,"time":143.41145833333326,"velocity":0.8031496062992126,"duration":0.1979166666666572},{"name":"E5","midi":76,"time":143.41145833333326,"velocity":0.8031496062992126,"duration":0.58984375},{"name":"A5","midi":81,"time":143.41145833333326,"velocity":0.8031496062992126,"duration":0.1979166666666572},{"name":"G3","midi":55,"time":143.61328124999991,"velocity":0.8031496062992126,"duration":0.1979166666666572},{"name":"A#5","midi":82,"time":143.61328124999991,"velocity":0.8031496062992126,"duration":0.1979166666666572},{"name":"F3","midi":53,"time":143.81640624999991,"velocity":0.8031496062992126,"duration":0.19791666666668561},{"name":"A5","midi":81,"time":143.81640624999991,"velocity":0.8031496062992126,"duration":0.19791666666668561},{"name":"E3","midi":52,"time":144.0182291666666,"velocity":0.8031496062992126,"duration":0.1979166666666572},{"name":"G5","midi":79,"time":144.0182291666666,"velocity":0.8031496062992126,"duration":0.1979166666666572},{"name":"D3","midi":50,"time":144.2213541666666,"velocity":0.8031496062992126,"duration":0.1979166666666572},{"name":"F5","midi":77,"time":144.2213541666666,"velocity":0.8031496062992126,"duration":0.1979166666666572},{"name":"C3","midi":48,"time":144.42317708333326,"velocity":0.8031496062992126,"duration":0.1979166666666572},{"name":"E5","midi":76,"time":144.42317708333326,"velocity":0.8031496062992126,"duration":0.1979166666666572},{"name":"A#2","midi":46,"time":144.62630208333326,"velocity":0.8031496062992126,"duration":0.1979166666666572},{"name":"D5","midi":74,"time":144.62630208333326,"velocity":0.8031496062992126,"duration":0.1979166666666572},{"name":"C3","midi":48,"time":144.82812499999991,"velocity":0.8031496062992126,"duration":0.1979166666666572},{"name":"C#5","midi":73,"time":144.82812499999991,"velocity":0.8031496062992126,"duration":0.1979166666666572},{"name":"A#2","midi":46,"time":145.03124999999991,"velocity":0.8031496062992126,"duration":0.1979166666666572},{"name":"D5","midi":74,"time":145.03124999999991,"velocity":0.8031496062992126,"duration":0.1979166666666572},{"name":"A2","midi":45,"time":145.23307291666657,"velocity":0.8031496062992126,"duration":0.1979166666666572},{"name":"E5","midi":76,"time":145.23307291666657,"velocity":0.8031496062992126,"duration":0.1979166666666572},{"name":"G2","midi":43,"time":145.43619791666657,"velocity":0.8031496062992126,"duration":0.1979166666666572},{"name":"F5","midi":77,"time":145.43619791666657,"velocity":0.8031496062992126,"duration":0.1979166666666572},{"name":"F2","midi":41,"time":145.63802083333323,"velocity":0.8031496062992126,"duration":0.1979166666666572},{"name":"D5","midi":74,"time":145.63802083333323,"velocity":0.8031496062992126,"duration":0.1979166666666572},{"name":"E2","midi":40,"time":145.84114583333323,"velocity":0.8031496062992126,"duration":0.1979166666666572},{"name":"G5","midi":79,"time":145.84114583333323,"velocity":0.8031496062992126,"duration":0.3997395833333144},{"name":"D2","midi":38,"time":146.0429687499999,"velocity":0.8031496062992126,"duration":0.1979166666666572},{"name":"E2","midi":40,"time":146.2460937499999,"velocity":0.8031496062992126,"duration":0.1979166666666572},{"name":"G5","midi":79,"time":146.2460937499999,"velocity":0.8031496062992126,"duration":0.3997395833333144},{"name":"D5","midi":74,"time":146.2460937499999,"velocity":0.8031496062992126,"duration":0.3997395833333144},{"name":"A#4","midi":70,"time":146.2460937499999,"velocity":0.8031496062992126,"duration":0.3997395833333144},{"name":"F2","midi":41,"time":146.44791666666654,"velocity":0.8031496062992126,"duration":0.1979166666666572},{"name":"G2","midi":43,"time":146.65104166666654,"velocity":0.8031496062992126,"duration":0.1979166666666572},{"name":"D5","midi":74,"time":146.65104166666654,"velocity":0.8031496062992126,"duration":0.3997395833333428},{"name":"G5","midi":79,"time":146.65104166666654,"velocity":0.8031496062992126,"duration":0.8007812500000284},{"name":"A#4","midi":70,"time":146.65104166666654,"velocity":0.8031496062992126,"duration":0.3997395833333428},{"name":"E2","midi":40,"time":146.85416666666654,"velocity":0.8031496062992126,"duration":0.19791666666668561},{"name":"A2","midi":45,"time":147.05598958333323,"velocity":0.8031496062992126,"duration":0.1979166666666572},{"name":"C#5","midi":73,"time":147.05598958333323,"velocity":0.8031496062992126,"duration":0.3997395833333428},{"name":"A#4","midi":70,"time":147.05598958333323,"velocity":0.8031496062992126,"duration":0.3997395833333428},{"name":"G2","midi":43,"time":147.25911458333323,"velocity":0.8031496062992126,"duration":0.19791666666668561},{"name":"A2","midi":45,"time":147.46093749999991,"velocity":0.8031496062992126,"duration":0.1979166666666572},{"name":"E5","midi":76,"time":147.46093749999991,"velocity":0.8031496062992126,"duration":0.3997395833333428},{"name":"C#5","midi":73,"time":147.46093749999991,"velocity":0.8031496062992126,"duration":0.3997395833333428},{"name":"A4","midi":69,"time":147.46093749999991,"velocity":0.8031496062992126,"duration":0.3997395833333428},{"name":"B2","midi":47,"time":147.66406249999991,"velocity":0.8031496062992126,"duration":0.19791666666668561},{"name":"C#3","midi":49,"time":147.8658854166666,"velocity":0.8031496062992126,"duration":0.1979166666666572},{"name":"A4","midi":69,"time":147.8658854166666,"velocity":0.8031496062992126,"duration":0.3997395833333428},{"name":"E5","midi":76,"time":147.8658854166666,"velocity":0.8031496062992126,"duration":0.3997395833333428},{"name":"C#5","midi":73,"time":147.8658854166666,"velocity":0.8031496062992126,"duration":0.3997395833333428},{"name":"A2","midi":45,"time":148.0690104166666,"velocity":0.8031496062992126,"duration":0.19791666666668561},{"name":"A#3","midi":58,"time":148.2708333333333,"velocity":0.8031496062992126,"duration":0.3997395833333428},{"name":"G4","midi":67,"time":148.2708333333333,"velocity":0.8031496062992126,"duration":0.5898437500000284},{"name":"E4","midi":64,"time":148.2708333333333,"velocity":0.8031496062992126,"duration":0.08203125},{"name":"D4","midi":62,"time":148.3723958333333,"velocity":0.8031496062992126,"duration":0.09635416666665719},{"name":"E4","midi":64,"time":148.4739583333333,"velocity":0.8031496062992126,"duration":0.5898437500000284},{"name":"C#3","midi":49,"time":148.67578124999997,"velocity":0.8031496062992126,"duration":0.3997395833333428},{"name":"A4","midi":69,"time":148.87890624999997,"velocity":0.8031496062992126,"duration":0.19791666666668561},{"name":"D3","midi":50,"time":149.08072916666666,"velocity":0.8031496062992126,"duration":0.3997395833333428},{"name":"F4","midi":65,"time":149.08072916666666,"velocity":0.8031496062992126,"duration":0.6028645833333428},{"name":"D4","midi":62,"time":149.08072916666666,"velocity":0.8031496062992126,"duration":0.8007812500000284},{"name":"G3","midi":55,"time":149.48567708333334,"velocity":0.8031496062992126,"duration":0.3997395833333428},{"name":"E4","midi":64,"time":149.68880208333334,"velocity":0.8031496062992126,"duration":0.19791666666668561},{"name":"A3","midi":57,"time":149.89062500000003,"velocity":0.8031496062992126,"duration":0.3997395833333428},{"name":"F4","midi":65,"time":149.89062500000003,"velocity":0.8031496062992126,"duration":0.09635416666665719},{"name":"C#4","midi":61,"time":149.89062500000003,"velocity":0.8031496062992126,"duration":0.8007812500000284},{"name":"E4","midi":64,"time":149.99218750000003,"velocity":0.8031496062992126,"duration":0.09635416666665719},{"name":"F4","midi":65,"time":150.09375000000003,"velocity":0.8031496062992126,"duration":0.09635416666665719},{"name":"E4","midi":64,"time":150.19531250000003,"velocity":0.8031496062992126,"duration":0.09635416666668561},{"name":"A2","midi":45,"time":150.2955729166667,"velocity":0.8031496062992126,"duration":0.3997395833333428},{"name":"F4","midi":65,"time":150.2955729166667,"velocity":0.8031496062992126,"duration":0.09635416666665719},{"name":"E4","midi":64,"time":150.3971354166667,"velocity":0.8031496062992126,"duration":0.09635416666665719},{"name":"D4","midi":62,"time":150.4986979166667,"velocity":0.8031496062992126,"duration":0.19791666666668561},{"name":"D2","midi":38,"time":150.7005208333334,"velocity":0.8031496062992126,"duration":1.0117187499999716},{"name":"D4","midi":62,"time":150.7005208333334,"velocity":0.8031496062992126,"duration":0.1979166666666572},{"name":"E4","midi":64,"time":150.9036458333334,"velocity":0.8031496062992126,"duration":0.1979166666666572},{"name":"F4","midi":65,"time":151.10546875000006,"velocity":0.8031496062992126,"duration":0.1979166666666572},{"name":"D4","midi":62,"time":151.30859375000006,"velocity":0.8031496062992126,"duration":0.1979166666666572},{"name":"C#4","midi":61,"time":151.5104166666667,"velocity":0.8031496062992126,"duration":0.1979166666666572},{"name":"D4","midi":62,"time":151.7135416666667,"velocity":0.8031496062992126,"duration":0.1979166666666572},{"name":"A3","midi":57,"time":151.9166666666667,"velocity":0.8031496062992126,"duration":0.1979166666666572},{"name":"D4","midi":62,"time":152.11848958333337,"velocity":0.8031496062992126,"duration":0.1979166666666572},{"name":"F4","midi":65,"time":152.32161458333337,"velocity":0.8031496062992126,"duration":0.1979166666666572},{"name":"D4","midi":62,"time":152.52343750000003,"velocity":0.8031496062992126,"duration":0.1979166666666572},{"name":"G#4","midi":68,"time":152.72656250000003,"velocity":0.8031496062992126,"duration":0.1979166666666572},{"name":"D4","midi":62,"time":152.92838541666669,"velocity":0.8031496062992126,"duration":0.1979166666666572},{"name":"A4","midi":69,"time":153.13151041666669,"velocity":0.8031496062992126,"duration":0.3997395833333144},{"name":"A3","midi":57,"time":153.33333333333334,"velocity":0.8031496062992126,"duration":0.09635416666665719},{"name":"B3","midi":59,"time":153.43489583333334,"velocity":0.8031496062992126,"duration":0.09635416666665719},{"name":"C4","midi":60,"time":153.53645833333334,"velocity":0.8031496062992126,"duration":0.1979166666666572},{"name":"E5","midi":76,"time":153.53645833333334,"velocity":0.8031496062992126,"duration":0.3997395833333144},{"name":"A3","midi":57,"time":153.73828125,"velocity":0.8031496062992126,"duration":0.1979166666666572},{"name":"G#3","midi":56,"time":153.94140625,"velocity":0.8031496062992126,"duration":0.1979166666666572},{"name":"E5","midi":76,"time":153.94140625,"velocity":0.8031496062992126,"duration":0.3997395833333144},{"name":"A3","midi":57,"time":154.14322916666666,"velocity":0.8031496062992126,"duration":0.1979166666666572},{"name":"E3","midi":52,"time":154.34635416666666,"velocity":0.8031496062992126,"duration":0.1979166666666572},{"name":"C5","midi":72,"time":154.34635416666666,"velocity":0.8031496062992126,"duration":0.3997395833333144},{"name":"A3","midi":57,"time":154.54817708333331,"velocity":0.8031496062992126,"duration":0.1979166666666572},{"name":"C4","midi":60,"time":154.75130208333331,"velocity":0.8031496062992126,"duration":0.1979166666666572},{"name":"A4","midi":69,"time":154.75130208333331,"velocity":0.8031496062992126,"duration":0.3997395833333144},{"name":"A3","midi":57,"time":154.95312499999997,"velocity":0.8031496062992126,"duration":0.1979166666666572},{"name":"D#4","midi":63,"time":155.15624999999997,"velocity":0.8031496062992126,"duration":0.1979166666666572},{"name":"A4","midi":69,"time":155.15624999999997,"velocity":0.8031496062992126,"duration":0.3997395833333144},{"name":"A3","midi":57,"time":155.35807291666663,"velocity":0.8031496062992126,"duration":0.1979166666666572},{"name":"E4","midi":64,"time":155.56119791666663,"velocity":0.8031496062992126,"duration":0.3997395833333144},{"name":"A4","midi":69,"time":155.56119791666663,"velocity":0.8031496062992126,"duration":0.1979166666666572},{"name":"F#4","midi":66,"time":155.7630208333333,"velocity":0.8031496062992126,"duration":0.1979166666666572},{"name":"E4","midi":64,"time":155.9661458333333,"velocity":0.8031496062992126,"duration":0.3997395833333144},{"name":"G4","midi":67,"time":155.9661458333333,"velocity":0.8031496062992126,"duration":0.1979166666666572},{"name":"B4","midi":71,"time":156.16796874999994,"velocity":0.8031496062992126,"duration":0.1979166666666572},{"name":"E4","midi":64,"time":156.37109374999994,"velocity":0.8031496062992126,"duration":0.3997395833333144},{"name":"C5","midi":72,"time":156.37109374999994,"velocity":0.8031496062992126,"duration":0.1979166666666572},{"name":"G4","midi":67,"time":156.5729166666666,"velocity":0.8031496062992126,"duration":0.1979166666666572},{"name":"E4","midi":64,"time":156.7760416666666,"velocity":0.8031496062992126,"duration":0.3997395833333428},{"name":"F4","midi":65,"time":156.7760416666666,"velocity":0.8031496062992126,"duration":0.1979166666666572},{"name":"G4","midi":67,"time":156.9791666666666,"velocity":0.8031496062992126,"duration":0.19791666666668561},{"name":"D4","midi":62,"time":157.1809895833333,"velocity":0.8031496062992126,"duration":0.3997395833333428},{"name":"A4","midi":69,"time":157.1809895833333,"velocity":0.8031496062992126,"duration":0.1979166666666572},{"name":"F4","midi":65,"time":157.3841145833333,"velocity":0.8031496062992126,"duration":0.19791666666668561},{"name":"D4","midi":62,"time":157.58593749999997,"velocity":0.8031496062992126,"duration":0.3997395833333428},{"name":"A#4","midi":70,"time":157.58593749999997,"velocity":0.8031496062992126,"duration":0.1979166666666572},{"name":"F4","midi":65,"time":157.78906249999997,"velocity":0.8031496062992126,"duration":0.19791666666668561},{"name":"D4","midi":62,"time":157.99088541666666,"velocity":0.8031496062992126,"duration":0.3997395833333428},{"name":"E4","midi":64,"time":157.99088541666666,"velocity":0.8031496062992126,"duration":0.1979166666666572},{"name":"G4","midi":67,"time":158.19401041666666,"velocity":0.8031496062992126,"duration":0.19791666666668561},{"name":"C4","midi":60,"time":158.39583333333334,"velocity":0.8031496062992126,"duration":0.3997395833333428},{"name":"A4","midi":69,"time":158.39583333333334,"velocity":0.8031496062992126,"duration":0.1979166666666572},{"name":"A#4","midi":70,"time":158.59895833333334,"velocity":0.8031496062992126,"duration":0.19791666666668561},{"name":"C4","midi":60,"time":158.80078125000003,"velocity":0.8031496062992126,"duration":0.5052083333333144},{"name":"C5","midi":72,"time":158.80078125000003,"velocity":0.8031496062992126,"duration":0.1979166666666572},{"name":"A4","midi":69,"time":159.00390625000003,"velocity":0.8031496062992126,"duration":0.1979166666666572},{"name":"G4","midi":67,"time":159.20572916666669,"velocity":0.8031496062992126,"duration":0.1979166666666572},{"name":"C4","midi":60,"time":159.40885416666669,"velocity":0.8031496062992126,"duration":0.1979166666666572},{"name":"F#4","midi":66,"time":159.40885416666669,"velocity":0.8031496062992126,"duration":0.1979166666666572},{"name":"A#3","midi":58,"time":159.61067708333334,"velocity":0.8031496062992126,"duration":0.1979166666666572},{"name":"G4","midi":67,"time":159.61067708333334,"velocity":0.8031496062992126,"duration":0.3997395833333428},{"name":"A3","midi":57,"time":159.81380208333334,"velocity":0.8031496062992126,"duration":0.19791666666668561},{"name":"G3","midi":55,"time":160.01562500000003,"velocity":0.8031496062992126,"duration":0.1979166666666572},{"name":"G4","midi":67,"time":160.01562500000003,"velocity":0.8031496062992126,"duration":0.3997395833333428},{"name":"A#3","midi":58,"time":160.21875000000003,"velocity":0.8031496062992126,"duration":0.19791666666668561},{"name":"C#3","midi":49,"time":160.4205729166667,"velocity":0.8031496062992126,"duration":0.3997395833333428},{"name":"G4","midi":67,"time":160.4205729166667,"velocity":0.8031496062992126,"duration":0.1979166666666572},{"name":"A4","midi":69,"time":160.6236979166667,"velocity":0.8031496062992126,"duration":0.19791666666668561},{"name":"G3","midi":55,"time":160.8255208333334,"velocity":0.8031496062992126,"duration":0.3997395833333428},{"name":"A#4","midi":70,"time":160.8255208333334,"velocity":0.8031496062992126,"duration":0.1979166666666572},{"name":"G4","midi":67,"time":161.0286458333334,"velocity":0.8031496062992126,"duration":0.19791666666668561},{"name":"A#3","midi":58,"time":161.23046875000009,"velocity":0.8031496062992126,"duration":0.3997395833333428},{"name":"C#5","midi":73,"time":161.23046875000009,"velocity":0.8031496062992126,"duration":0.1979166666666572},{"name":"G4","midi":67,"time":161.43359375000009,"velocity":0.8031496062992126,"duration":0.19791666666668561},{"name":"C#3","midi":49,"time":161.63541666666677,"velocity":0.8031496062992126,"duration":0.3997395833333428},{"name":"E5","midi":76,"time":161.63541666666677,"velocity":0.8031496062992126,"duration":0.1979166666666572},{"name":"A#4","midi":70,"time":161.83854166666677,"velocity":0.8031496062992126,"duration":0.19791666666668561},{"name":"E3","midi":52,"time":162.0416666666668,"velocity":0.8031496062992126,"duration":0.3997395833333144},{"name":"A4","midi":69,"time":162.0416666666668,"velocity":0.8031496062992126,"duration":0.1979166666666572},{"name":"G4","midi":67,"time":162.24348958333346,"velocity":0.8031496062992126,"duration":0.1979166666666572},{"name":"A3","midi":57,"time":162.44661458333346,"velocity":0.8031496062992126,"duration":0.3997395833333144},{"name":"F4","midi":65,"time":162.44661458333346,"velocity":0.8031496062992126,"duration":0.1979166666666572},{"name":"E4","midi":64,"time":162.6484375000001,"velocity":0.8031496062992126,"duration":0.1979166666666572},{"name":"D3","midi":50,"time":162.8515625000001,"velocity":0.8031496062992126,"duration":0.3997395833333144},{"name":"F4","midi":65,"time":162.8515625000001,"velocity":0.8031496062992126,"duration":0.1979166666666572},{"name":"G4","midi":67,"time":163.05338541666677,"velocity":0.8031496062992126,"duration":0.1979166666666572},{"name":"F3","midi":53,"time":163.25651041666677,"velocity":0.8031496062992126,"duration":0.3997395833333144},{"name":"G#4","midi":68,"time":163.25651041666677,"velocity":0.8031496062992126,"duration":0.1979166666666572},{"name":"F4","midi":65,"time":163.45833333333343,"velocity":0.8031496062992126,"duration":0.1979166666666572},{"name":"G#3","midi":56,"time":163.66145833333343,"velocity":0.8031496062992126,"duration":0.3997395833333144},{"name":"B4","midi":71,"time":163.66145833333343,"velocity":0.8031496062992126,"duration":0.1979166666666572},{"name":"F4","midi":65,"time":163.86328125000009,"velocity":0.8031496062992126,"duration":0.1979166666666572},{"name":"B3","midi":59,"time":164.06640625000009,"velocity":0.8031496062992126,"duration":0.3997395833333144},{"name":"D5","midi":74,"time":164.06640625000009,"velocity":0.8031496062992126,"duration":0.1979166666666572},{"name":"G#4","midi":68,"time":164.26822916666674,"velocity":0.8031496062992126,"duration":0.1979166666666572},{"name":"D4","midi":62,"time":164.47135416666674,"velocity":0.8031496062992126,"duration":0.3997395833333144},{"name":"G4","midi":67,"time":164.47135416666674,"velocity":0.8031496062992126,"duration":0.1979166666666572},{"name":"F4","midi":65,"time":164.6731770833334,"velocity":0.8031496062992126,"duration":0.1979166666666572},{"name":"G3","midi":55,"time":164.8763020833334,"velocity":0.8031496062992126,"duration":0.3997395833333144},{"name":"D#4","midi":63,"time":164.8763020833334,"velocity":0.8031496062992126,"duration":0.1979166666666572},{"name":"D4","midi":62,"time":165.07812500000006,"velocity":0.8031496062992126,"duration":0.1979166666666572},{"name":"C4","midi":60,"time":165.28125000000006,"velocity":0.8031496062992126,"duration":0.3997395833333428},{"name":"D#4","midi":63,"time":165.28125000000006,"velocity":0.8031496062992126,"duration":0.3997395833333428},{"name":"C3","midi":48,"time":165.48046875000006,"velocity":0.8031496062992126,"duration":0.09635416666665719},{"name":"D3","midi":50,"time":165.59375000000006,"velocity":0.8031496062992126,"duration":0.09635416666668561},{"name":"C5","midi":72,"time":165.70703125000009,"velocity":0.8031496062992126,"duration":0.3997395833333144},{"name":"G5","midi":79,"time":165.70703125000009,"velocity":0.8031496062992126,"duration":0.3997395833333144},{"name":"G4","midi":67,"time":165.70703125000009,"velocity":0.8031496062992126,"duration":0.3997395833333144},{"name":"D#3","midi":51,"time":165.70703125000009,"velocity":0.8031496062992126,"duration":0.1979166666666572},{"name":"C3","midi":48,"time":165.90885416666674,"velocity":0.8031496062992126,"duration":0.1979166666666572},{"name":"G5","midi":79,"time":166.11197916666674,"velocity":0.8031496062992126,"duration":0.3997395833333144},{"name":"G4","midi":67,"time":166.11197916666674,"velocity":0.8031496062992126,"duration":0.3997395833333144},{"name":"C5","midi":72,"time":166.11197916666674,"velocity":0.8031496062992126,"duration":0.3997395833333144},{"name":"B2","midi":47,"time":166.11197916666674,"velocity":0.8031496062992126,"duration":0.1979166666666572},{"name":"C3","midi":48,"time":166.3138020833334,"velocity":0.8031496062992126,"duration":0.1979166666666572},{"name":"D#5","midi":75,"time":166.5169270833334,"velocity":0.8031496062992126,"duration":0.3997395833333144},{"name":"G4","midi":67,"time":166.5169270833334,"velocity":0.8031496062992126,"duration":0.3997395833333144},{"name":"D5","midi":74,"time":166.5169270833334,"velocity":0.8031496062992126,"duration":0.3997395833333144},{"name":"G2","midi":43,"time":166.5169270833334,"velocity":0.8031496062992126,"duration":0.1979166666666572},{"name":"C3","midi":48,"time":166.71875000000006,"velocity":0.8031496062992126,"duration":0.1979166666666572},{"name":"G4","midi":67,"time":166.92187500000006,"velocity":0.8031496062992126,"duration":0.3997395833333428},{"name":"C5","midi":72,"time":166.92187500000006,"velocity":0.8031496062992126,"duration":0.3997395833333428},{"name":"D#5","midi":75,"time":166.92187500000006,"velocity":0.8031496062992126,"duration":0.3997395833333428},{"name":"D#3","midi":51,"time":166.92187500000006,"velocity":0.8031496062992126,"duration":0.1979166666666572},{"name":"C3","midi":48,"time":167.12500000000006,"velocity":0.8031496062992126,"duration":0.19791666666668561},{"name":"D#5","midi":75,"time":167.32682291666674,"velocity":0.8031496062992126,"duration":0.3997395833333428},{"name":"A4","midi":69,"time":167.32682291666674,"velocity":0.8031496062992126,"duration":0.3997395833333428},{"name":"C5","midi":72,"time":167.32682291666674,"velocity":0.8031496062992126,"duration":0.3997395833333428},{"name":"F#3","midi":54,"time":167.32682291666674,"velocity":0.8031496062992126,"duration":0.1979166666666572},{"name":"C3","midi":48,"time":167.52994791666674,"velocity":0.8031496062992126,"duration":0.19791666666668561},{"name":"D5","midi":74,"time":167.73177083333343,"velocity":0.8031496062992126,"duration":0.1979166666666572},{"name":"A#4","midi":70,"time":167.73177083333343,"velocity":0.8031496062992126,"duration":0.3997395833333428},{"name":"G3","midi":55,"time":167.73177083333343,"velocity":0.8031496062992126,"duration":0.8007812500000284},{"name":"D5","midi":74,"time":167.93489583333343,"velocity":0.8031496062992126,"duration":0.19791666666668561},{"name":"G4","midi":67,"time":168.1367187500001,"velocity":0.8031496062992126,"duration":0.1979166666666572},{"name":"A#3","midi":58,"time":168.1367187500001,"velocity":0.8031496062992126,"duration":0.3997395833333428},{"name":"D5","midi":74,"time":168.3398437500001,"velocity":0.8031496062992126,"duration":0.19791666666668561},{"name":"F#4","midi":66,"time":168.5416666666668,"velocity":0.8031496062992126,"duration":0.1979166666666572},{"name":"A3","midi":57,"time":168.5416666666668,"velocity":0.8031496062992126,"duration":0.3997395833333428},{"name":"C5","midi":72,"time":168.7447916666668,"velocity":0.8031496062992126,"duration":0.19791666666668561},{"name":"A#4","midi":70,"time":168.94661458333348,"velocity":0.8031496062992126,"duration":0.1979166666666572},{"name":"G3","midi":55,"time":168.94661458333348,"velocity":0.8031496062992126,"duration":0.3997395833333428},{"name":"G2","midi":43,"time":168.94661458333348,"velocity":0.8031496062992126,"duration":0.3997395833333428},{"name":"D5","midi":74,"time":169.14973958333348,"velocity":0.8031496062992126,"duration":0.19791666666668561},{"name":"G4","midi":67,"time":169.35156250000017,"velocity":0.8031496062992126,"duration":0.1979166666666572},{"name":"A#3","midi":58,"time":169.35156250000017,"velocity":0.8031496062992126,"duration":0.3997395833333428},{"name":"D5","midi":74,"time":169.55468750000017,"velocity":0.8031496062992126,"duration":0.19791666666668561},{"name":"F#4","midi":66,"time":169.75651041666686,"velocity":0.8031496062992126,"duration":0.1979166666666572},{"name":"A3","midi":57,"time":169.75651041666686,"velocity":0.8031496062992126,"duration":0.3997395833333428},{"name":"C5","midi":72,"time":169.95963541666686,"velocity":0.8031496062992126,"duration":0.19791666666668561},{"name":"A#4","midi":70,"time":170.16145833333354,"velocity":0.8031496062992126,"duration":0.1979166666666572},{"name":"G3","midi":55,"time":170.16145833333354,"velocity":0.8031496062992126,"duration":2.425781250000057},{"name":"G4","midi":67,"time":170.36458333333354,"velocity":0.8031496062992126,"duration":0.1979166666666572},{"name":"E4","midi":64,"time":170.5664062500002,"velocity":0.8031496062992126,"duration":0.1979166666666572},{"name":"C3","midi":48,"time":170.5664062500002,"velocity":0.8031496062992126,"duration":0.3997395833333428},{"name":"A#4","midi":70,"time":170.7695312500002,"velocity":0.8031496062992126,"duration":0.19791666666668561},{"name":"D4","midi":62,"time":170.97135416666688,"velocity":0.8031496062992126,"duration":0.1979166666666572},{"name":"D3","midi":50,"time":170.97135416666688,"velocity":0.8031496062992126,"duration":0.3997395833333428},{"name":"A#4","midi":70,"time":171.17447916666688,"velocity":0.8031496062992126,"duration":0.19791666666668561},{"name":"C4","midi":60,"time":171.37630208333357,"velocity":0.8031496062992126,"duration":0.1979166666666572},{"name":"E3","midi":52,"time":171.37630208333357,"velocity":0.8031496062992126,"duration":0.3997395833333428},{"name":"A#4","midi":70,"time":171.57942708333357,"velocity":0.8031496062992126,"duration":0.19791666666668561},{"name":"D4","midi":62,"time":171.78125000000026,"velocity":0.8031496062992126,"duration":0.1979166666666572},{"name":"D3","midi":50,"time":171.78125000000026,"velocity":0.8031496062992126,"duration":0.3997395833333428},{"name":"A#4","midi":70,"time":171.98437500000026,"velocity":0.8031496062992126,"duration":0.19791666666668561},{"name":"E4","midi":64,"time":172.18750000000028,"velocity":0.8031496062992126,"duration":0.1979166666666572},{"name":"C3","midi":48,"time":172.18750000000028,"velocity":0.8031496062992126,"duration":0.3997395833333144},{"name":"A#4","midi":70,"time":172.38932291666694,"velocity":0.8031496062992126,"duration":0.1979166666666572},{"name":"G#4","midi":68,"time":172.59244791666694,"velocity":0.8031496062992126,"duration":0.1979166666666572},{"name":"F3","midi":53,"time":172.59244791666694,"velocity":0.8031496062992126,"duration":0.8007812499999716},{"name":"C5","midi":72,"time":172.7942708333336,"velocity":0.8031496062992126,"duration":0.1979166666666572},{"name":"F4","midi":65,"time":172.9973958333336,"velocity":0.8031496062992126,"duration":0.1979166666666572},{"name":"G#3","midi":56,"time":172.9973958333336,"velocity":0.8031496062992126,"duration":0.3997395833333144},{"name":"C5","midi":72,"time":173.19921875000026,"velocity":0.8031496062992126,"duration":0.1979166666666572},{"name":"E4","midi":64,"time":173.40234375000026,"velocity":0.8031496062992126,"duration":0.1979166666666572},{"name":"G3","midi":55,"time":173.40234375000026,"velocity":0.8031496062992126,"duration":0.3997395833333144},{"name":"A#4","midi":70,"time":173.6041666666669,"velocity":0.8031496062992126,"duration":0.1979166666666572},{"name":"G#4","midi":68,"time":173.8072916666669,"velocity":0.8031496062992126,"duration":0.1979166666666572},{"name":"F3","midi":53,"time":173.8072916666669,"velocity":0.8031496062992126,"duration":0.3997395833333144},{"name":"F2","midi":41,"time":173.8072916666669,"velocity":0.8031496062992126,"duration":0.3997395833333144},{"name":"C5","midi":72,"time":174.00911458333357,"velocity":0.8031496062992126,"duration":0.1979166666666572},{"name":"F4","midi":65,"time":174.21223958333357,"velocity":0.8031496062992126,"duration":0.1979166666666572},{"name":"G#3","midi":56,"time":174.21223958333357,"velocity":0.8031496062992126,"duration":0.3997395833333144},{"name":"C5","midi":72,"time":174.41406250000023,"velocity":0.8031496062992126,"duration":0.1979166666666572},{"name":"E4","midi":64,"time":174.61718750000023,"velocity":0.8031496062992126,"duration":0.1979166666666572},{"name":"G3","midi":55,"time":174.61718750000023,"velocity":0.8031496062992126,"duration":0.3997395833333144},{"name":"A#4","midi":70,"time":174.81901041666688,"velocity":0.8031496062992126,"duration":0.1979166666666572},{"name":"G#4","midi":68,"time":175.02213541666688,"velocity":0.8031496062992126,"duration":0.1979166666666572},{"name":"F3","midi":53,"time":175.02213541666688,"velocity":0.8031496062992126,"duration":2.4257812499999716},{"name":"F4","midi":65,"time":175.22395833333354,"velocity":0.8031496062992126,"duration":0.1979166666666572},{"name":"D4","midi":62,"time":175.42708333333354,"velocity":0.8031496062992126,"duration":0.1979166666666572},{"name":"A#2","midi":46,"time":175.42708333333354,"velocity":0.8031496062992126,"duration":0.3997395833333144},{"name":"G#4","midi":68,"time":175.6289062500002,"velocity":0.8031496062992126,"duration":0.1979166666666572},{"name":"C4","midi":60,"time":175.8320312500002,"velocity":0.8031496062992126,"duration":0.1979166666666572},{"name":"C3","midi":48,"time":175.8320312500002,"velocity":0.8031496062992126,"duration":0.3997395833333144},{"name":"G#4","midi":68,"time":176.03385416666686,"velocity":0.8031496062992126,"duration":0.1979166666666572},{"name":"A#3","midi":58,"time":176.23697916666686,"velocity":0.8031496062992126,"duration":0.1979166666666572},{"name":"D3","midi":50,"time":176.23697916666686,"velocity":0.8031496062992126,"duration":0.3997395833333144},{"name":"G#4","midi":68,"time":176.4388020833335,"velocity":0.8031496062992126,"duration":0.1979166666666572},{"name":"C4","midi":60,"time":176.6419270833335,"velocity":0.8031496062992126,"duration":0.1979166666666572},{"name":"C3","midi":48,"time":176.6419270833335,"velocity":0.8031496062992126,"duration":0.3997395833333144},{"name":"G#4","midi":68,"time":176.84375000000017,"velocity":0.8031496062992126,"duration":0.1979166666666572},{"name":"D4","midi":62,"time":177.04687500000017,"velocity":0.8031496062992126,"duration":0.1979166666666572},{"name":"A#2","midi":46,"time":177.04687500000017,"velocity":0.8031496062992126,"duration":0.3997395833333428},{"name":"G#4","midi":68,"time":177.25000000000017,"velocity":0.8031496062992126,"duration":0.19791666666668561},{"name":"G4","midi":67,"time":177.45182291666686,"velocity":0.8031496062992126,"duration":0.3997395833333428},{"name":"D#3","midi":51,"time":177.45182291666686,"velocity":0.8031496062992126,"duration":0.1979166666666572},{"name":"F3","midi":53,"time":177.65494791666686,"velocity":0.8031496062992126,"duration":0.19791666666668561},{"name":"A#5","midi":82,"time":177.85677083333354,"velocity":0.8031496062992126,"duration":0.3997395833333428},{"name":"G3","midi":55,"time":177.85677083333354,"velocity":0.8031496062992126,"duration":0.1979166666666572},{"name":"D#3","midi":51,"time":178.05989583333354,"velocity":0.8031496062992126,"duration":0.19791666666668561},{"name":"A#5","midi":82,"time":178.26171875000023,"velocity":0.8031496062992126,"duration":0.3997395833333428},{"name":"D3","midi":50,"time":178.26171875000023,"velocity":0.8031496062992126,"duration":0.1979166666666572},{"name":"D#3","midi":51,"time":178.46484375000023,"velocity":0.8031496062992126,"duration":0.19791666666668561},{"name":"G5","midi":79,"time":178.6666666666669,"velocity":0.8031496062992126,"duration":0.3997395833333428},{"name":"A#2","midi":46,"time":178.6666666666669,"velocity":0.8031496062992126,"duration":0.1979166666666572},{"name":"D#3","midi":51,"time":178.8697916666669,"velocity":0.8031496062992126,"duration":0.19791666666668561},{"name":"D#5","midi":75,"time":179.0716145833336,"velocity":0.8031496062992126,"duration":0.3997395833333428},{"name":"G5","midi":79,"time":179.0716145833336,"velocity":0.8031496062992126,"duration":0.3997395833333428},{"name":"G3","midi":55,"time":179.0716145833336,"velocity":0.8031496062992126,"duration":0.1979166666666572},{"name":"D#3","midi":51,"time":179.2747395833336,"velocity":0.8031496062992126,"duration":0.19791666666668561},{"name":"G5","midi":79,"time":179.47656250000028,"velocity":0.8031496062992126,"duration":0.3997395833333428},{"name":"D#5","midi":75,"time":179.47656250000028,"velocity":0.8031496062992126,"duration":0.3997395833333428},{"name":"A3","midi":57,"time":179.47656250000028,"velocity":0.8031496062992126,"duration":0.1979166666666572},{"name":"D#3","midi":51,"time":179.67968750000028,"velocity":0.8031496062992126,"duration":0.19791666666668561},{"name":"D5","midi":74,"time":179.88151041666697,"velocity":0.8031496062992126,"duration":0.3997395833333428},{"name":"F5","midi":77,"time":179.88151041666697,"velocity":0.8031496062992126,"duration":0.1979166666666572},{"name":"A#3","midi":58,"time":179.88151041666697,"velocity":0.8031496062992126,"duration":0.8007812500000284},{"name":"F5","midi":77,"time":180.08463541666697,"velocity":0.8031496062992126,"duration":0.19791666666668561},{"name":"A#4","midi":70,"time":180.28645833333366,"velocity":0.8031496062992126,"duration":0.1979166666666572},{"name":"D4","midi":62,"time":180.28645833333366,"velocity":0.8031496062992126,"duration":0.3997395833333428},{"name":"F5","midi":77,"time":180.48958333333366,"velocity":0.8031496062992126,"duration":0.19791666666668561},{"name":"A4","midi":69,"time":180.69140625000034,"velocity":0.8031496062992126,"duration":0.1979166666666572},{"name":"C4","midi":60,"time":180.69140625000034,"velocity":0.8031496062992126,"duration":0.3997395833333428},{"name":"D#5","midi":75,"time":180.89453125000034,"velocity":0.8031496062992126,"duration":0.19791666666668561},{"name":"D5","midi":74,"time":181.09635416666703,"velocity":0.8031496062992126,"duration":0.1979166666666572},{"name":"A#3","midi":58,"time":181.09635416666703,"velocity":0.8031496062992126,"duration":0.3997395833333428},{"name":"A#2","midi":46,"time":181.09635416666703,"velocity":0.8031496062992126,"duration":0.3997395833333428},{"name":"F5","midi":77,"time":181.29947916666703,"velocity":0.8031496062992126,"duration":0.19791666666668561},{"name":"A#4","midi":70,"time":181.5013020833337,"velocity":0.8031496062992126,"duration":0.1979166666666572},{"name":"D4","midi":62,"time":181.5013020833337,"velocity":0.8031496062992126,"duration":0.3997395833333428},{"name":"F5","midi":77,"time":181.7044270833337,"velocity":0.8031496062992126,"duration":0.19791666666668561},{"name":"A4","midi":69,"time":181.9062500000004,"velocity":0.8031496062992126,"duration":0.1979166666666572},{"name":"C4","midi":60,"time":181.9062500000004,"velocity":0.8031496062992126,"duration":0.3997395833333428},{"name":"D#5","midi":75,"time":182.1093750000004,"velocity":0.8031496062992126,"duration":0.19791666666668561},{"name":"D5","midi":74,"time":182.31250000000043,"velocity":0.8031496062992126,"duration":0.1979166666666572},{"name":"A#3","midi":58,"time":182.31250000000043,"velocity":0.8031496062992126,"duration":2.425781249999943},{"name":"A#4","midi":70,"time":182.51432291666708,"velocity":0.8031496062992126,"duration":0.1979166666666572},{"name":"G4","midi":67,"time":182.71744791666708,"velocity":0.8031496062992126,"duration":0.1979166666666572},{"name":"D#3","midi":51,"time":182.71744791666708,"velocity":0.8031496062992126,"duration":0.3997395833333144},{"name":"C#5","midi":73,"time":182.91927083333374,"velocity":0.8031496062992126,"duration":0.1979166666666572},{"name":"F4","midi":65,"time":183.12239583333374,"velocity":0.8031496062992126,"duration":0.1979166666666572},{"name":"F3","midi":53,"time":183.12239583333374,"velocity":0.8031496062992126,"duration":0.3997395833333144},{"name":"C#5","midi":73,"time":183.3242187500004,"velocity":0.8031496062992126,"duration":0.1979166666666572},{"name":"D#4","midi":63,"time":183.5273437500004,"velocity":0.8031496062992126,"duration":0.1979166666666572},{"name":"G3","midi":55,"time":183.5273437500004,"velocity":0.8031496062992126,"duration":0.3997395833333144},{"name":"C#5","midi":73,"time":183.72916666666706,"velocity":0.8031496062992126,"duration":0.1979166666666572},{"name":"F4","midi":65,"time":183.93229166666706,"velocity":0.8031496062992126,"duration":0.1979166666666572},{"name":"F3","midi":53,"time":183.93229166666706,"velocity":0.8031496062992126,"duration":0.3997395833333144},{"name":"C#5","midi":73,"time":184.1341145833337,"velocity":0.8031496062992126,"duration":0.1979166666666572},{"name":"G4","midi":67,"time":184.3372395833337,"velocity":0.8031496062992126,"duration":0.1979166666666572},{"name":"D#3","midi":51,"time":184.3372395833337,"velocity":0.8031496062992126,"duration":0.3997395833333144},{"name":"C#5","midi":73,"time":184.53906250000037,"velocity":0.8031496062992126,"duration":0.1979166666666572},{"name":"C5","midi":72,"time":184.74218750000037,"velocity":0.8031496062992126,"duration":0.1979166666666572},{"name":"G#3","midi":56,"time":184.74218750000037,"velocity":0.8031496062992126,"duration":0.8007812499999716},{"name":"D#5","midi":75,"time":184.94401041666703,"velocity":0.8031496062992126,"duration":0.1979166666666572},{"name":"G#4","midi":68,"time":185.14713541666703,"velocity":0.8031496062992126,"duration":0.1979166666666572},{"name":"C4","midi":60,"time":185.14713541666703,"velocity":0.8031496062992126,"duration":0.3997395833333144},{"name":"D#5","midi":75,"time":185.34895833333368,"velocity":0.8031496062992126,"duration":0.1979166666666572},{"name":"G4","midi":67,"time":185.55208333333368,"velocity":0.8031496062992126,"duration":0.1979166666666572},{"name":"A#3","midi":58,"time":185.55208333333368,"velocity":0.8031496062992126,"duration":0.3997395833333144},{"name":"C#5","midi":73,"time":185.75390625000034,"velocity":0.8031496062992126,"duration":0.1979166666666572},{"name":"C5","midi":72,"time":185.95703125000034,"velocity":0.8031496062992126,"duration":0.1979166666666572},{"name":"G#3","midi":56,"time":185.95703125000034,"velocity":0.8031496062992126,"duration":0.3997395833333144},{"name":"G#2","midi":44,"time":185.95703125000034,"velocity":0.8031496062992126,"duration":0.3997395833333144},{"name":"D#5","midi":75,"time":186.158854166667,"velocity":0.8031496062992126,"duration":0.1979166666666572},{"name":"G#4","midi":68,"time":186.361979166667,"velocity":0.8031496062992126,"duration":0.1979166666666572},{"name":"C4","midi":60,"time":186.361979166667,"velocity":0.8031496062992126,"duration":0.3997395833333144},{"name":"D#5","midi":75,"time":186.56380208333366,"velocity":0.8031496062992126,"duration":0.1979166666666572},{"name":"G4","midi":67,"time":186.76692708333366,"velocity":0.8031496062992126,"duration":0.1979166666666572},{"name":"A#3","midi":58,"time":186.76692708333366,"velocity":0.8031496062992126,"duration":0.3997395833333144},{"name":"C#5","midi":73,"time":186.9687500000003,"velocity":0.8031496062992126,"duration":0.1979166666666572},{"name":"C5","midi":72,"time":187.1718750000003,"velocity":0.8031496062992126,"duration":0.1979166666666572},{"name":"G#3","midi":56,"time":187.1718750000003,"velocity":0.8031496062992126,"duration":2.4257812500000853},{"name":"G#4","midi":68,"time":187.3750000000003,"velocity":0.8031496062992126,"duration":0.1979166666666572},{"name":"F4","midi":65,"time":187.57682291666697,"velocity":0.8031496062992126,"duration":0.1979166666666572},{"name":"D3","midi":50,"time":187.57682291666697,"velocity":0.8031496062992126,"duration":0.3997395833333428},{"name":"C5","midi":72,"time":187.77994791666697,"velocity":0.8031496062992126,"duration":0.19791666666668561},{"name":"D#4","midi":63,"time":187.98177083333366,"velocity":0.8031496062992126,"duration":0.1979166666666572},{"name":"D#3","midi":51,"time":187.98177083333366,"velocity":0.8031496062992126,"duration":0.3997395833333428},{"name":"C5","midi":72,"time":188.18489583333366,"velocity":0.8031496062992126,"duration":0.19791666666668561},{"name":"D4","midi":62,"time":188.38671875000034,"velocity":0.8031496062992126,"duration":0.1979166666666572},{"name":"F3","midi":53,"time":188.38671875000034,"velocity":0.8031496062992126,"duration":0.3997395833333428},{"name":"C5","midi":72,"time":188.58984375000034,"velocity":0.8031496062992126,"duration":0.19791666666668561},{"name":"D#4","midi":63,"time":188.79166666666703,"velocity":0.8031496062992126,"duration":0.1979166666666572},{"name":"D#3","midi":51,"time":188.79166666666703,"velocity":0.8031496062992126,"duration":0.3997395833333428},{"name":"C5","midi":72,"time":188.99479166666703,"velocity":0.8031496062992126,"duration":0.19791666666668561},{"name":"F4","midi":65,"time":189.1966145833337,"velocity":0.8031496062992126,"duration":0.1979166666666572},{"name":"D3","midi":50,"time":189.1966145833337,"velocity":0.8031496062992126,"duration":0.3997395833333428},{"name":"C5","midi":72,"time":189.3997395833337,"velocity":0.8031496062992126,"duration":0.19791666666668561},{"name":"B4","midi":71,"time":189.6015625000004,"velocity":0.8031496062992126,"duration":0.3997395833333428},{"name":"G3","midi":55,"time":189.6015625000004,"velocity":0.8031496062992126,"duration":0.3997395833333428},{"name":"F3","midi":53,"time":189.8046875000004,"velocity":0.8031496062992126,"duration":0.19791666666668561},{"name":"G4","midi":67,"time":190.00651041666708,"velocity":0.8031496062992126,"duration":0.3997395833333428},{"name":"C5","midi":72,"time":190.00651041666708,"velocity":0.8031496062992126,"duration":0.3997395833333428},{"name":"D#3","midi":51,"time":190.00651041666708,"velocity":0.8031496062992126,"duration":0.1979166666666572},{"name":"F3","midi":53,"time":190.20963541666708,"velocity":0.8031496062992126,"duration":0.19791666666668561},{"name":"F4","midi":65,"time":190.41145833333377,"velocity":0.8031496062992126,"duration":0.3997395833333428},{"name":"A#4","midi":70,"time":190.41145833333377,"velocity":0.8031496062992126,"duration":0.3997395833333428},{"name":"D3","midi":50,"time":190.41145833333377,"velocity":0.8031496062992126,"duration":0.1979166666666572},{"name":"D#3","midi":51,"time":190.61458333333377,"velocity":0.8031496062992126,"duration":0.19791666666668561},{"name":"D#4","midi":63,"time":190.81640625000045,"velocity":0.8031496062992126,"duration":0.3997395833333428},{"name":"G#4","midi":68,"time":190.81640625000045,"velocity":0.8031496062992126,"duration":0.3997395833333428},{"name":"C3","midi":48,"time":190.81640625000045,"velocity":0.8031496062992126,"duration":0.1979166666666572},{"name":"D#3","midi":51,"time":191.01953125000045,"velocity":0.8031496062992126,"duration":0.19791666666668561},{"name":"G4","midi":67,"time":191.22135416666714,"velocity":0.8031496062992126,"duration":0.3997395833333428},{"name":"D4","midi":62,"time":191.22135416666714,"velocity":0.8031496062992126,"duration":0.3997395833333428},{"name":"A#2","midi":46,"time":191.22135416666714,"velocity":0.8031496062992126,"duration":0.1979166666666572},{"name":"D#3","midi":51,"time":191.42447916666714,"velocity":0.8031496062992126,"duration":0.19791666666668561},{"name":"C4","midi":60,"time":191.62630208333383,"velocity":0.8031496062992126,"duration":0.3997395833333428},{"name":"F4","midi":65,"time":191.62630208333383,"velocity":0.8031496062992126,"duration":0.3997395833333428},{"name":"G#2","midi":44,"time":191.62630208333383,"velocity":0.8031496062992126,"duration":0.1979166666666572},{"name":"D#3","midi":51,"time":191.82942708333383,"velocity":0.8031496062992126,"duration":0.19791666666668561},{"name":"A#3","midi":58,"time":192.0312500000005,"velocity":0.8031496062992126,"duration":0.3997395833333428},{"name":"D#4","midi":63,"time":192.0312500000005,"velocity":0.8031496062992126,"duration":0.3997395833333428},{"name":"A#4","midi":70,"time":192.0312500000005,"velocity":0.8031496062992126,"duration":0.3997395833333428},{"name":"G2","midi":43,"time":192.0312500000005,"velocity":0.8031496062992126,"duration":0.1979166666666572},{"name":"D#3","midi":51,"time":192.2343750000005,"velocity":0.8031496062992126,"duration":0.19791666666668561},{"name":"D4","midi":62,"time":192.43750000000054,"velocity":0.8031496062992126,"duration":0.3997395833333144},{"name":"G#4","midi":68,"time":192.43750000000054,"velocity":0.8031496062992126,"duration":0.3997395833333144},{"name":"F2","midi":41,"time":192.43750000000054,"velocity":0.8031496062992126,"duration":0.1979166666666572},{"name":"D#3","midi":51,"time":192.6393229166672,"velocity":0.8031496062992126,"duration":0.1979166666666572},{"name":"D#4","midi":63,"time":192.8424479166672,"velocity":0.8031496062992126,"duration":0.8007812499999716},{"name":"G4","midi":67,"time":192.8424479166672,"velocity":0.8031496062992126,"duration":0.6028645833333144},{"name":"D#2","midi":39,"time":192.8424479166672,"velocity":0.8031496062992126,"duration":0.1979166666666572},{"name":"D#3","midi":51,"time":193.04427083333385,"velocity":0.8031496062992126,"duration":0.1979166666666572},{"name":"G#2","midi":44,"time":193.24739583333385,"velocity":0.8031496062992126,"duration":0.3997395833333144},{"name":"C5","midi":72,"time":193.4492187500005,"velocity":0.8031496062992126,"duration":0.1979166666666572},{"name":"G4","midi":67,"time":193.6523437500005,"velocity":0.8031496062992126,"duration":0.09635416666665719},{"name":"D4","midi":62,"time":193.6523437500005,"velocity":0.8031496062992126,"duration":0.8007812499999716},{"name":"A#2","midi":46,"time":193.6523437500005,"velocity":0.8031496062992126,"duration":0.3997395833333144},{"name":"F4","midi":65,"time":193.75260416666717,"velocity":0.8031496062992126,"duration":0.09635416666665719},{"name":"G4","midi":67,"time":193.85416666666717,"velocity":0.8031496062992126,"duration":0.09635416666665719},{"name":"F4","midi":65,"time":193.95572916666717,"velocity":0.8031496062992126,"duration":0.09635416666665719},{"name":"G4","midi":67,"time":194.05729166666717,"velocity":0.8031496062992126,"duration":0.09635416666665719},{"name":"A#2","midi":46,"time":194.05729166666717,"velocity":0.8031496062992126,"duration":0.3997395833333144},{"name":"F4","midi":65,"time":194.15755208333383,"velocity":0.8031496062992126,"duration":0.09635416666665719},{"name":"D#4","midi":63,"time":194.25911458333383,"velocity":0.8031496062992126,"duration":0.1979166666666572},{"name":"D#4","midi":63,"time":194.46223958333383,"velocity":0.8031496062992126,"duration":0.3997395833333428},{"name":"D#2","midi":39,"time":194.46223958333383,"velocity":0.8031496062992126,"duration":0.6028645833333428},{"name":"A#4","midi":70,"time":194.8671875000005,"velocity":0.8031496062992126,"duration":0.3997395833333144},{"name":"G#4","midi":68,"time":195.06901041666717,"velocity":0.8031496062992126,"duration":0.1979166666666572},{"name":"A#4","midi":70,"time":195.27213541666717,"velocity":0.8031496062992126,"duration":0.3997395833333144},{"name":"G4","midi":67,"time":195.27213541666717,"velocity":0.8031496062992126,"duration":0.1979166666666572},{"name":"F4","midi":65,"time":195.47395833333383,"velocity":0.8031496062992126,"duration":0.1979166666666572},{"name":"C5","midi":72,"time":195.67708333333383,"velocity":0.8031496062992126,"duration":0.18229166666668561},{"name":"E4","midi":64,"time":195.67708333333383,"velocity":0.8031496062992126,"duration":0.19791666666668561},{"name":"A#4","midi":70,"time":195.85026041666717,"velocity":0.8031496062992126,"duration":0.09635416666668561},{"name":"F4","midi":65,"time":195.8789062500005,"velocity":0.8031496062992126,"duration":0.1979166666666572},{"name":"A4","midi":69,"time":195.93489583333385,"velocity":0.8031496062992126,"duration":0.09635416666665719},{"name":"A#4","midi":70,"time":196.02083333333385,"velocity":0.8031496062992126,"duration":0.09635416666665719},{"name":"G4","midi":67,"time":196.0820312500005,"velocity":0.8031496062992126,"duration":0.19791666666668561},{"name":"C5","midi":72,"time":196.10677083333385,"velocity":0.8031496062992126,"duration":0.09635416666665719},{"name":"A#4","midi":70,"time":196.19270833333385,"velocity":0.8031496062992126,"duration":0.09635416666668561},{"name":"C5","midi":72,"time":196.27864583333385,"velocity":0.8031496062992126,"duration":0.09635416666668561},{"name":"E4","midi":64,"time":196.2838541666672,"velocity":0.8031496062992126,"duration":0.19791666666668561},{"name":"A#4","midi":70,"time":196.36458333333388,"velocity":0.8031496062992126,"duration":0.09635416666665719},{"name":"C5","midi":72,"time":196.45052083333388,"velocity":0.8031496062992126,"duration":0.09635416666665719},{"name":"C#4","midi":61,"time":196.48697916666723,"velocity":0.8031496062992126,"duration":0.1979166666666572},{"name":"A#4","midi":70,"time":196.53645833333388,"velocity":0.8031496062992126,"duration":0.09635416666665719},{"name":"C5","midi":72,"time":196.62109375000054,"velocity":0.8031496062992126,"duration":0.09635416666665719},{"name":"E4","midi":64,"time":196.68880208333388,"velocity":0.8031496062992126,"duration":0.19791666666662877},{"name":"A#4","midi":70,"time":196.70703125000054,"velocity":0.8031496062992126,"duration":0.09635416666665719},{"name":"C5","midi":72,"time":196.79296875000054,"velocity":0.8031496062992126,"duration":0.09635416666662877},{"name":"A#4","midi":70,"time":196.88020833333385,"velocity":0.8031496062992126,"duration":0.09635416666662877},{"name":"A#3","midi":58,"time":196.89192708333383,"velocity":0.8031496062992126,"duration":0.1979166666666572},{"name":"C5","midi":72,"time":196.96484375000048,"velocity":0.8031496062992126,"duration":0.09635416666665719},{"name":"A#4","midi":70,"time":197.05078125000048,"velocity":0.8031496062992126,"duration":0.09635416666665719},{"name":"C4","midi":60,"time":197.09375000000048,"velocity":0.8031496062992126,"duration":0.1979166666666572},{"name":"C5","midi":72,"time":197.13671875000048,"velocity":0.8031496062992126,"duration":0.09635416666665719},{"name":"A#4","midi":70,"time":197.22265625000048,"velocity":0.8031496062992126,"duration":0.09635416666665719},{"name":"C#4","midi":61,"time":197.29687500000048,"velocity":0.8031496062992126,"duration":0.19791666666668561},{"name":"C5","midi":72,"time":197.30859375000048,"velocity":0.8031496062992126,"duration":0.09635416666665719},{"name":"A#4","midi":70,"time":197.39322916666714,"velocity":0.8031496062992126,"duration":0.09635416666668561},{"name":"C5","midi":72,"time":197.48046875000048,"velocity":0.8031496062992126,"duration":0.09635416666668561},{"name":"A#3","midi":58,"time":197.5000000000005,"velocity":0.8031496062992126,"duration":0.1979166666666572},{"name":"A#4","midi":70,"time":197.5664062500005,"velocity":0.8031496062992126,"duration":0.09635416666665719},{"name":"C5","midi":72,"time":197.6523437500005,"velocity":0.8031496062992126,"duration":0.09635416666665719},{"name":"G3","midi":55,"time":197.70182291666717,"velocity":0.8031496062992126,"duration":0.1979166666666572},{"name":"A#4","midi":70,"time":197.7382812500005,"velocity":0.8031496062992126,"duration":0.09635416666665719},{"name":"C5","midi":72,"time":197.8242187500005,"velocity":0.8031496062992126,"duration":0.09635416666665719},{"name":"A#3","midi":58,"time":197.90494791666717,"velocity":0.8031496062992126,"duration":0.1979166666666572},{"name":"A#4","midi":70,"time":197.9101562500005,"velocity":0.8031496062992126,"duration":0.4062499999999716},{"name":"E3","midi":52,"time":198.10677083333383,"velocity":0.8031496062992126,"duration":0.1979166666666572},{"name":"G#4","midi":68,"time":198.30989583333383,"velocity":0.8031496062992126,"duration":0.1979166666666572},{"name":"F3","midi":53,"time":198.30989583333383,"velocity":0.8031496062992126,"duration":0.1979166666666572},{"name":"A#4","midi":70,"time":198.51171875000048,"velocity":0.8031496062992126,"duration":0.1979166666666572},{"name":"G3","midi":55,"time":198.51171875000048,"velocity":0.8031496062992126,"duration":0.1979166666666572},{"name":"C#5","midi":73,"time":198.71484375000048,"velocity":0.8031496062992126,"duration":0.1979166666666572},{"name":"E3","midi":52,"time":198.71484375000048,"velocity":0.8031496062992126,"duration":0.1979166666666572},{"name":"C5","midi":72,"time":198.91666666666714,"velocity":0.8031496062992126,"duration":0.1979166666666572},{"name":"C3","midi":48,"time":198.91666666666714,"velocity":0.8031496062992126,"duration":0.1979166666666572},{"name":"A#4","midi":70,"time":199.11979166666714,"velocity":0.8031496062992126,"duration":0.1979166666666572},{"name":"E3","midi":52,"time":199.11979166666714,"velocity":0.8031496062992126,"duration":0.1979166666666572},{"name":"G#4","midi":68,"time":199.3216145833338,"velocity":0.8031496062992126,"duration":0.1979166666666572},{"name":"F2","midi":41,"time":199.3216145833338,"velocity":0.8031496062992126,"duration":0.6028645833333144},{"name":"A#4","midi":70,"time":199.5247395833338,"velocity":0.8031496062992126,"duration":0.1979166666666572},{"name":"G#4","midi":68,"time":199.72656250000045,"velocity":0.8031496062992126,"duration":0.3997395833333428},{"name":"G4","midi":67,"time":199.92968750000045,"velocity":0.8031496062992126,"duration":0.19791666666668561},{"name":"G#4","midi":68,"time":200.13151041666714,"velocity":0.8031496062992126,"duration":0.3997395833333428},{"name":"F4","midi":65,"time":200.13151041666714,"velocity":0.8031496062992126,"duration":0.1979166666666572},{"name":"D#4","midi":63,"time":200.33463541666714,"velocity":0.8031496062992126,"duration":0.19791666666668561},{"name":"A#4","midi":70,"time":200.53645833333383,"velocity":0.8031496062992126,"duration":0.2604166666666572},{"name":"D4","midi":62,"time":200.53645833333383,"velocity":0.8031496062992126,"duration":0.1979166666666572},{"name":"D#4","midi":63,"time":200.73958333333383,"velocity":0.8031496062992126,"duration":0.1979166666666572},{"name":"G#4","midi":68,"time":200.80078125000048,"velocity":0.8031496062992126,"duration":0.09635416666665719},{"name":"G4","midi":67,"time":200.88671875000048,"velocity":0.8031496062992126,"duration":0.09635416666665719},{"name":"F4","midi":65,"time":200.94140625000048,"velocity":0.8031496062992126,"duration":0.19791666666668561},{"name":"G#4","midi":68,"time":200.97135416666714,"velocity":0.8031496062992126,"duration":0.09635416666668561},{"name":"A#4","midi":70,"time":201.05468750000048,"velocity":0.8031496062992126,"duration":0.09635416666668561},{"name":"G#4","midi":68,"time":201.1406250000005,"velocity":0.8031496062992126,"duration":0.09635416666665719},{"name":"D4","midi":62,"time":201.1445312500005,"velocity":0.8031496062992126,"duration":0.1979166666666572},{"name":"A#4","midi":70,"time":201.22526041666717,"velocity":0.8031496062992126,"duration":0.09635416666665719},{"name":"G#4","midi":68,"time":201.31119791666717,"velocity":0.8031496062992126,"duration":0.09635416666665719},{"name":"A#3","midi":58,"time":201.34635416666717,"velocity":0.8031496062992126,"duration":0.1979166666666572},{"name":"A#4","midi":70,"time":201.39583333333383,"velocity":0.8031496062992126,"duration":0.09635416666665719},{"name":"G#4","midi":68,"time":201.48046875000048,"velocity":0.8031496062992126,"duration":0.09635416666668561},{"name":"D4","midi":62,"time":201.54947916666717,"velocity":0.8031496062992126,"duration":0.1979166666666572},{"name":"A#4","midi":70,"time":201.56510416666717,"velocity":0.8031496062992126,"duration":0.09635416666665719},{"name":"G#4","midi":68,"time":201.65104166666717,"velocity":0.8031496062992126,"duration":0.09635416666665719},{"name":"A#4","midi":70,"time":201.73437500000048,"velocity":0.8031496062992126,"duration":0.09635416666665719},{"name":"G#3","midi":56,"time":201.75130208333383,"velocity":0.8031496062992126,"duration":0.1979166666666572},{"name":"G#4","midi":68,"time":201.82031250000048,"velocity":0.8031496062992126,"duration":0.09635416666665719},{"name":"A#4","midi":70,"time":201.90625000000048,"velocity":0.8031496062992126,"duration":0.09635416666668561},{"name":"A#3","midi":58,"time":201.95442708333383,"velocity":0.8031496062992126,"duration":0.19791666666668561},{"name":"G#4","midi":68,"time":201.99088541666717,"velocity":0.8031496062992126,"duration":0.09635416666668561},{"name":"A#4","midi":70,"time":202.0742187500005,"velocity":0.8031496062992126,"duration":0.09635416666665719},{"name":"C4","midi":60,"time":202.1562500000005,"velocity":0.8031496062992126,"duration":0.1979166666666572},{"name":"G#4","midi":68,"time":202.1601562500005,"velocity":0.8031496062992126,"duration":0.09635416666665719},{"name":"A#4","midi":70,"time":202.24479166666717,"velocity":0.8031496062992126,"duration":0.09635416666665719},{"name":"G#4","midi":68,"time":202.33072916666717,"velocity":0.8031496062992126,"duration":0.09635416666668561},{"name":"G#3","midi":56,"time":202.3593750000005,"velocity":0.8031496062992126,"duration":0.1979166666666572},{"name":"A#4","midi":70,"time":202.41536458333385,"velocity":0.8031496062992126,"duration":0.09635416666665719},{"name":"G#4","midi":68,"time":202.5000000000005,"velocity":0.8031496062992126,"duration":0.09635416666665719},{"name":"F3","midi":53,"time":202.5625000000005,"velocity":0.8031496062992126,"duration":0.1979166666666572},{"name":"A#4","midi":70,"time":202.5859375000005,"velocity":0.8031496062992126,"duration":0.09635416666665719},{"name":"G#4","midi":68,"time":202.67317708333383,"velocity":0.8031496062992126,"duration":0.4895833333333428},{"name":"G#3","midi":56,"time":202.76432291666717,"velocity":0.8031496062992126,"duration":0.1979166666666572},{"name":"D3","midi":50,"time":202.96744791666717,"velocity":0.8031496062992126,"duration":0.1979166666666572},{"name":"G4","midi":67,"time":203.16927083333383,"velocity":0.8031496062992126,"duration":0.1979166666666572},{"name":"D#3","midi":51,"time":203.16927083333383,"velocity":0.8031496062992126,"duration":0.1979166666666572},{"name":"G#4","midi":68,"time":203.37239583333383,"velocity":0.8031496062992126,"duration":0.1979166666666572},{"name":"F3","midi":53,"time":203.37239583333383,"velocity":0.8031496062992126,"duration":0.1979166666666572},{"name":"C5","midi":72,"time":203.57421875000048,"velocity":0.8031496062992126,"duration":0.1979166666666572},{"name":"D3","midi":50,"time":203.57421875000048,"velocity":0.8031496062992126,"duration":0.1979166666666572},{"name":"A#4","midi":70,"time":203.77734375000048,"velocity":0.8031496062992126,"duration":0.1979166666666572},{"name":"A#2","midi":46,"time":203.77734375000048,"velocity":0.8031496062992126,"duration":0.1979166666666572},{"name":"G#4","midi":68,"time":203.97916666666714,"velocity":0.8031496062992126,"duration":0.1979166666666572},{"name":"D3","midi":50,"time":203.97916666666714,"velocity":0.8031496062992126,"duration":0.1979166666666572},{"name":"G4","midi":67,"time":204.18229166666714,"velocity":0.8031496062992126,"duration":0.1979166666666572},{"name":"D#2","midi":39,"time":204.18229166666714,"velocity":0.8031496062992126,"duration":0.6028645833333428},{"name":"A4","midi":69,"time":204.40494791666714,"velocity":0.8031496062992126,"duration":0.09635416666665719},{"name":"B4","midi":71,"time":204.50651041666714,"velocity":0.8031496062992126,"duration":0.09635416666665719},{"name":"C5","midi":72,"time":204.60807291666714,"velocity":0.8031496062992126,"duration":0.3997395833333428},{"name":"A#4","midi":70,"time":204.80989583333383,"velocity":0.8031496062992126,"duration":0.1979166666666572},{"name":"A4","midi":69,"time":205.01302083333383,"velocity":0.8031496062992126,"duration":0.1979166666666572},{"name":"C5","midi":72,"time":205.01302083333383,"velocity":0.8031496062992126,"duration":0.3997395833333144},{"name":"G4","midi":67,"time":205.21484375000048,"velocity":0.8031496062992126,"duration":0.1979166666666572},{"name":"F#4","midi":66,"time":205.41796875000048,"velocity":0.8031496062992126,"duration":0.19791666666668561},{"name":"D5","midi":74,"time":205.41796875000048,"velocity":0.8031496062992126,"duration":0.18619791666668561},{"name":"C5","midi":72,"time":205.58723958333383,"velocity":0.8031496062992126,"duration":0.09635416666668561},{"name":"G4","midi":67,"time":205.61979166666717,"velocity":0.8031496062992126,"duration":0.19791666666668561},{"name":"B4","midi":71,"time":205.67057291666717,"velocity":0.8031496062992126,"duration":0.09635416666668561},{"name":"C5","midi":72,"time":205.7539062500005,"velocity":0.8031496062992126,"duration":0.09635416666668561},{"name":"A4","midi":69,"time":205.8229166666672,"velocity":0.8031496062992126,"duration":0.19791666666668561},{"name":"D5","midi":74,"time":205.8385416666672,"velocity":0.8031496062992126,"duration":0.09635416666665719},{"name":"C5","midi":72,"time":205.92317708333385,"velocity":0.8031496062992126,"duration":0.09635416666668561},{"name":"D5","midi":74,"time":206.0065104166672,"velocity":0.8031496062992126,"duration":0.09635416666668561},{"name":"F#4","midi":66,"time":206.02473958333388,"velocity":0.8031496062992126,"duration":0.1979166666666572},{"name":"C5","midi":72,"time":206.09114583333388,"velocity":0.8031496062992126,"duration":0.09635416666665719},{"name":"D5","midi":74,"time":206.17578125000054,"velocity":0.8031496062992126,"duration":0.09635416666668561},{"name":"D#4","midi":63,"time":206.22786458333388,"velocity":0.8031496062992126,"duration":0.1979166666666572},{"name":"C5","midi":72,"time":206.26041666666723,"velocity":0.8031496062992126,"duration":0.09635416666665719},{"name":"D5","midi":74,"time":206.34244791666723,"velocity":0.8031496062992126,"duration":0.09635416666665719},{"name":"C5","midi":72,"time":206.42708333333388,"velocity":0.8031496062992126,"duration":0.09635416666665719},{"name":"F#4","midi":66,"time":206.42968750000054,"velocity":0.8031496062992126,"duration":0.1979166666666572},{"name":"D5","midi":74,"time":206.51171875000054,"velocity":0.8031496062992126,"duration":0.09635416666665719},{"name":"C5","midi":72,"time":206.5963541666672,"velocity":0.8031496062992126,"duration":0.09635416666668561},{"name":"C4","midi":60,"time":206.63281250000054,"velocity":0.8031496062992126,"duration":0.19791666666668561},{"name":"D5","midi":74,"time":206.67968750000054,"velocity":0.8031496062992126,"duration":0.09635416666668561},{"name":"C5","midi":72,"time":206.76432291666723,"velocity":0.8031496062992126,"duration":0.09635416666665719},{"name":"D4","midi":62,"time":206.83463541666723,"velocity":0.8031496062992126,"duration":0.19791666666668561},{"name":"D5","midi":74,"time":206.84895833333388,"velocity":0.8031496062992126,"duration":0.09635416666668561},{"name":"C5","midi":72,"time":206.93229166666723,"velocity":0.8031496062992126,"duration":0.09635416666668561},{"name":"D5","midi":74,"time":207.01562500000057,"velocity":0.8031496062992126,"duration":0.09635416666668561},{"name":"D#4","midi":63,"time":207.03776041666725,"velocity":0.8031496062992126,"duration":0.1979166666666572},{"name":"C5","midi":72,"time":207.10026041666725,"velocity":0.8031496062992126,"duration":0.09635416666665719},{"name":"D5","midi":74,"time":207.1848958333339,"velocity":0.8031496062992126,"duration":0.09635416666668561},{"name":"C4","midi":60,"time":207.2395833333339,"velocity":0.8031496062992126,"duration":0.1979166666666572},{"name":"C5","midi":72,"time":207.26822916666725,"velocity":0.8031496062992126,"duration":0.09635416666665719},{"name":"D5","midi":74,"time":207.35416666666725,"velocity":0.8031496062992126,"duration":0.09635416666662877},{"name":"C5","midi":72,"time":207.44010416666723,"velocity":0.8031496062992126,"duration":0.09635416666665719},{"name":"A3","midi":57,"time":207.44270833333388,"velocity":0.8031496062992126,"duration":0.1979166666666572},{"name":"D5","midi":74,"time":207.52604166666723,"velocity":0.8031496062992126,"duration":0.09635416666665719},{"name":"C5","midi":72,"time":207.61328125000054,"velocity":0.8031496062992126,"duration":0.4296875},{"name":"C4","midi":60,"time":207.64583333333388,"velocity":0.8031496062992126,"duration":0.1979166666666572},{"name":"F#3","midi":54,"time":207.84765625000054,"velocity":0.8031496062992126,"duration":0.1979166666666572},{"name":"G3","midi":55,"time":208.05078125000054,"velocity":0.8031496062992126,"duration":0.1979166666666572},{"name":"A#4","midi":70,"time":208.05078125000054,"velocity":0.8031496062992126,"duration":0.1979166666666572},{"name":"A3","midi":57,"time":208.2526041666672,"velocity":0.8031496062992126,"duration":0.1979166666666572},{"name":"C5","midi":72,"time":208.2526041666672,"velocity":0.8031496062992126,"duration":0.1979166666666572},{"name":"F#3","midi":54,"time":208.4557291666672,"velocity":0.8031496062992126,"duration":0.1979166666666572},{"name":"D#5","midi":75,"time":208.4557291666672,"velocity":0.8031496062992126,"duration":0.1979166666666572},{"name":"D3","midi":50,"time":208.65755208333385,"velocity":0.8031496062992126,"duration":0.1979166666666572},{"name":"D5","midi":74,"time":208.65755208333385,"velocity":0.8031496062992126,"duration":0.1979166666666572},{"name":"F#3","midi":54,"time":208.86067708333385,"velocity":0.8031496062992126,"duration":0.1979166666666572},{"name":"C5","midi":72,"time":208.86067708333385,"velocity":0.8031496062992126,"duration":0.1979166666666572},{"name":"G2","midi":43,"time":209.0625000000005,"velocity":0.8031496062992126,"duration":0.3997395833333428},{"name":"A#4","midi":70,"time":209.0625000000005,"velocity":0.8031496062992126,"duration":0.1979166666666572},{"name":"A4","midi":69,"time":209.2656250000005,"velocity":0.8031496062992126,"duration":0.19791666666668561},{"name":"A#2","midi":46,"time":209.4674479166672,"velocity":0.8031496062992126,"duration":0.3997395833333428},{"name":"G4","midi":67,"time":209.4674479166672,"velocity":0.8031496062992126,"duration":0.1979166666666572},{"name":"D#5","midi":75,"time":209.6705729166672,"velocity":0.8031496062992126,"duration":0.19791666666668561},{"name":"D#3","midi":51,"time":209.87239583333388,"velocity":0.8031496062992126,"duration":0.3645833333333428},{"name":"F#4","midi":66,"time":209.87239583333388,"velocity":0.8031496062992126,"duration":0.1979166666666572},{"name":"G4","midi":67,"time":210.07552083333388,"velocity":0.8031496062992126,"duration":0.19791666666668561},{"name":"F2","midi":41,"time":210.27734375000057,"velocity":0.8031496062992126,"duration":0.3997395833333428},{"name":"A4","midi":69,"time":210.27734375000057,"velocity":0.8031496062992126,"duration":0.1979166666666572},{"name":"G4","midi":67,"time":210.48046875000057,"velocity":0.8031496062992126,"duration":0.19791666666668561},{"name":"A2","midi":45,"time":210.68229166666725,"velocity":0.8031496062992126,"duration":0.3997395833333428},{"name":"F4","midi":65,"time":210.68229166666725,"velocity":0.8031496062992126,"duration":0.1979166666666572},{"name":"D5","midi":74,"time":210.88541666666725,"velocity":0.8031496062992126,"duration":0.19791666666668561},{"name":"D3","midi":50,"time":211.08723958333394,"velocity":0.8031496062992126,"duration":0.3645833333333428},{"name":"E4","midi":64,"time":211.08723958333394,"velocity":0.8031496062992126,"duration":0.1979166666666572},{"name":"F4","midi":65,"time":211.29036458333394,"velocity":0.8031496062992126,"duration":0.19791666666668561},{"name":"D#2","midi":39,"time":211.49218750000063,"velocity":0.8031496062992126,"duration":0.3997395833333428},{"name":"G4","midi":67,"time":211.49218750000063,"velocity":0.8031496062992126,"duration":0.1979166666666572},{"name":"F4","midi":65,"time":211.69531250000063,"velocity":0.8031496062992126,"duration":0.19791666666668561},{"name":"G2","midi":43,"time":211.8971354166673,"velocity":0.8031496062992126,"duration":0.3997395833333428},{"name":"D#4","midi":63,"time":211.8971354166673,"velocity":0.8031496062992126,"duration":0.1979166666666572},{"name":"C5","midi":72,"time":212.1002604166673,"velocity":0.8031496062992126,"duration":0.19791666666668561},{"name":"C3","midi":48,"time":212.302083333334,"velocity":0.8031496062992126,"duration":0.3645833333333428},{"name":"D4","midi":62,"time":212.302083333334,"velocity":0.8031496062992126,"duration":0.1979166666666572},{"name":"E4","midi":64,"time":212.505208333334,"velocity":0.8031496062992126,"duration":0.19791666666668561},{"name":"D2","midi":38,"time":212.70833333333402,"velocity":0.8031496062992126,"duration":1.212239583333286},{"name":"F#4","midi":66,"time":212.70833333333402,"velocity":0.8031496062992126,"duration":0.1979166666666572},{"name":"E4","midi":64,"time":212.91015625000068,"velocity":0.8031496062992126,"duration":0.1979166666666572},{"name":"D3","midi":50,"time":213.11328125000068,"velocity":0.8031496062992126,"duration":1.2122395833332575},{"name":"D4","midi":62,"time":213.11328125000068,"velocity":0.8031496062992126,"duration":0.1979166666666572},{"name":"C5","midi":72,"time":213.31510416666734,"velocity":0.8031496062992126,"duration":0.1979166666666572},{"name":"E4","midi":64,"time":213.51822916666734,"velocity":0.8031496062992126,"duration":0.1979166666666572},{"name":"F#4","midi":66,"time":213.720052083334,"velocity":0.8031496062992126,"duration":0.1979166666666572},{"name":"D2","midi":38,"time":213.92317708333397,"velocity":0.8031496062992126,"duration":1.2122395833332575},{"name":"G4","midi":67,"time":213.92317708333397,"velocity":0.8031496062992126,"duration":0.1979166666666572},{"name":"F#4","midi":66,"time":214.12500000000063,"velocity":0.8031496062992126,"duration":0.1979166666666572},{"name":"D3","midi":50,"time":214.3281250000006,"velocity":0.8031496062992126,"duration":1.2122395833332575},{"name":"E4","midi":64,"time":214.3281250000006,"velocity":0.8031496062992126,"duration":0.1979166666666572},{"name":"A#4","midi":70,"time":214.52994791666725,"velocity":0.8031496062992126,"duration":0.1979166666666572},{"name":"C#4","midi":61,"time":214.73307291666725,"velocity":0.8031496062992126,"duration":0.1979166666666572},{"name":"D4","midi":62,"time":214.9348958333339,"velocity":0.8031496062992126,"duration":0.1979166666666572},{"name":"D2","midi":38,"time":215.13802083333388,"velocity":0.8031496062992126,"duration":1.2122395833332575},{"name":"E4","midi":64,"time":215.13802083333388,"velocity":0.8031496062992126,"duration":0.1979166666666572},{"name":"D4","midi":62,"time":215.33984375000054,"velocity":0.8031496062992126,"duration":0.1979166666666572},{"name":"D3","midi":50,"time":215.5429687500005,"velocity":0.8031496062992126,"duration":1.2122395833332575},{"name":"C#4","midi":61,"time":215.5429687500005,"velocity":0.8031496062992126,"duration":0.1979166666666572},{"name":"A4","midi":69,"time":215.74479166666717,"velocity":0.8031496062992126,"duration":0.1979166666666572},{"name":"E4","midi":64,"time":215.94791666666717,"velocity":0.8031496062992126,"duration":0.1979166666666572},{"name":"F#4","midi":66,"time":216.14973958333383,"velocity":0.8031496062992126,"duration":0.1979166666666572},{"name":"D2","midi":38,"time":216.3528645833338,"velocity":0.8031496062992126,"duration":0.3997395833333144},{"name":"G4","midi":67,"time":216.3528645833338,"velocity":0.8031496062992126,"duration":0.1979166666666572},{"name":"F#4","midi":66,"time":216.55468750000045,"velocity":0.8031496062992126,"duration":0.1979166666666572},{"name":"D3","midi":50,"time":216.75781250000043,"velocity":0.8031496062992126,"duration":0.3997395833333144},{"name":"E4","midi":64,"time":216.75781250000043,"velocity":0.8031496062992126,"duration":0.1979166666666572},{"name":"D4","midi":62,"time":216.95963541666708,"velocity":0.8031496062992126,"duration":0.1979166666666572},{"name":"D3","midi":50,"time":217.16276041666708,"velocity":0.8031496062992126,"duration":0.3997395833333144},{"name":"E4","midi":64,"time":217.16276041666708,"velocity":0.8031496062992126,"duration":0.1979166666666572},{"name":"F#4","midi":66,"time":217.36458333333374,"velocity":0.8031496062992126,"duration":0.1979166666666572},{"name":"A#2","midi":46,"time":217.56770833333374,"velocity":0.8031496062992126,"duration":0.1979166666666572},{"name":"G4","midi":67,"time":217.56770833333374,"velocity":0.8031496062992126,"duration":0.3997395833333428},{"name":"A2","midi":45,"time":217.77083333333374,"velocity":0.8031496062992126,"duration":0.19791666666668561},{"name":"G2","midi":43,"time":217.97265625000043,"velocity":0.8031496062992126,"duration":0.1979166666666572},{"name":"G3","midi":55,"time":217.97265625000043,"velocity":0.8031496062992126,"duration":0.3997395833333428},{"name":"A2","midi":45,"time":218.17578125000043,"velocity":0.8031496062992126,"duration":0.19791666666668561},{"name":"A#2","midi":46,"time":218.3776041666671,"velocity":0.8031496062992126,"duration":0.1979166666666572},{"name":"G3","midi":55,"time":218.3776041666671,"velocity":0.8031496062992126,"duration":0.3997395833333428},{"name":"C3","midi":48,"time":218.5807291666671,"velocity":0.8031496062992126,"duration":0.19791666666668561},{"name":"D3","midi":50,"time":218.7825520833338,"velocity":0.8031496062992126,"duration":0.1979166666666572},{"name":"F#3","midi":54,"time":218.7825520833338,"velocity":0.8031496062992126,"duration":0.3997395833333428},{"name":"C3","midi":48,"time":218.9856770833338,"velocity":0.8031496062992126,"duration":0.19791666666668561},{"name":"D3","midi":50,"time":219.18750000000048,"velocity":0.8031496062992126,"duration":0.1979166666666572},{"name":"D4","midi":62,"time":219.18750000000048,"velocity":0.8031496062992126,"duration":0.3997395833333428},{"name":"E3","midi":52,"time":219.39062500000048,"velocity":0.8031496062992126,"duration":0.19791666666668561},{"name":"F#3","midi":54,"time":219.59244791666717,"velocity":0.8031496062992126,"duration":0.1979166666666572},{"name":"D4","midi":62,"time":219.59244791666717,"velocity":0.8031496062992126,"duration":0.3997395833333428},{"name":"D3","midi":50,"time":219.79557291666717,"velocity":0.8031496062992126,"duration":0.19791666666668561},{"name":"G3","midi":55,"time":219.99739583333385,"velocity":0.8031496062992126,"duration":0.1979166666666572},{"name":"A#3","midi":58,"time":219.99739583333385,"velocity":0.8031496062992126,"duration":0.3997395833333428},{"name":"F#3","midi":54,"time":220.20052083333385,"velocity":0.8031496062992126,"duration":0.19791666666668561},{"name":"G3","midi":55,"time":220.40234375000054,"velocity":0.8031496062992126,"duration":0.1979166666666572},{"name":"G4","midi":67,"time":220.40234375000054,"velocity":0.8031496062992126,"duration":0.3997395833333428},{"name":"A3","midi":57,"time":220.60546875000054,"velocity":0.8031496062992126,"duration":0.19791666666668561},{"name":"A#3","midi":58,"time":220.80729166666723,"velocity":0.8031496062992126,"duration":0.1979166666666572},{"name":"G4","midi":67,"time":220.80729166666723,"velocity":0.8031496062992126,"duration":0.3997395833333428},{"name":"C4","midi":60,"time":221.01041666666723,"velocity":0.8031496062992126,"duration":0.19791666666668561},{"name":"D4","midi":62,"time":221.2122395833339,"velocity":0.8031496062992126,"duration":0.1979166666666572},{"name":"F#4","midi":66,"time":221.2122395833339,"velocity":0.8031496062992126,"duration":0.3997395833333428},{"name":"C4","midi":60,"time":221.4153645833339,"velocity":0.8031496062992126,"duration":0.19791666666668561},{"name":"D4","midi":62,"time":221.6171875000006,"velocity":0.8031496062992126,"duration":0.1979166666666572},{"name":"D5","midi":74,"time":221.6171875000006,"velocity":0.8031496062992126,"duration":0.3997395833333428},{"name":"E4","midi":64,"time":221.8203125000006,"velocity":0.8031496062992126,"duration":0.19791666666668561},{"name":"F#4","midi":66,"time":222.02213541666728,"velocity":0.8031496062992126,"duration":0.1979166666666572},{"name":"D5","midi":74,"time":222.02213541666728,"velocity":0.8031496062992126,"duration":0.3997395833333428},{"name":"D4","midi":62,"time":222.22526041666728,"velocity":0.8031496062992126,"duration":0.19791666666668561},{"name":"G4","midi":67,"time":222.42708333333397,"velocity":0.8031496062992126,"duration":0.3997395833333428},{"name":"A#4","midi":70,"time":222.42708333333397,"velocity":0.8031496062992126,"duration":0.1979166666666572},{"name":"A4","midi":69,"time":222.63020833333397,"velocity":0.8031496062992126,"duration":0.19791666666668561},{"name":"A#3","midi":58,"time":222.833333333334,"velocity":0.8031496062992126,"duration":0.3997395833333144},{"name":"G3","midi":55,"time":222.833333333334,"velocity":0.8031496062992126,"duration":0.3997395833333144},{"name":"D4","midi":62,"time":222.833333333334,"velocity":0.8031496062992126,"duration":0.3997395833333144},{"name":"G4","midi":67,"time":222.833333333334,"velocity":0.8031496062992126,"duration":0.1979166666666572},{"name":"A4","midi":69,"time":223.03515625000065,"velocity":0.8031496062992126,"duration":0.1979166666666572},{"name":"A#3","midi":58,"time":223.23828125000065,"velocity":0.8031496062992126,"duration":0.3997395833333144},{"name":"G3","midi":55,"time":223.23828125000065,"velocity":0.8031496062992126,"duration":0.3997395833333144},{"name":"D4","midi":62,"time":223.23828125000065,"velocity":0.8031496062992126,"duration":0.3997395833333144},{"name":"A#4","midi":70,"time":223.23828125000065,"velocity":0.8031496062992126,"duration":0.1979166666666572},{"name":"C5","midi":72,"time":223.4401041666673,"velocity":0.8031496062992126,"duration":0.1979166666666572},{"name":"F#3","midi":54,"time":223.6432291666673,"velocity":0.8031496062992126,"duration":0.3997395833333144},{"name":"A3","midi":57,"time":223.6432291666673,"velocity":0.8031496062992126,"duration":0.3997395833333144},{"name":"D4","midi":62,"time":223.6432291666673,"velocity":0.8031496062992126,"duration":0.3997395833333144},{"name":"D5","midi":74,"time":223.6432291666673,"velocity":0.8031496062992126,"duration":0.1979166666666572},{"name":"C5","midi":72,"time":223.84505208333397,"velocity":0.8031496062992126,"duration":0.1979166666666572},{"name":"A3","midi":57,"time":224.04817708333397,"velocity":0.8031496062992126,"duration":0.3997395833333144},{"name":"F#3","midi":54,"time":224.04817708333397,"velocity":0.8031496062992126,"duration":0.3997395833333144},{"name":"D3","midi":50,"time":224.04817708333397,"velocity":0.8031496062992126,"duration":0.3997395833333144},{"name":"D5","midi":74,"time":224.04817708333397,"velocity":0.8031496062992126,"duration":0.1979166666666572},{"name":"E5","midi":76,"time":224.25000000000063,"velocity":0.8031496062992126,"duration":0.1979166666666572},{"name":"F#3","midi":54,"time":224.45312500000063,"velocity":0.8031496062992126,"duration":0.3997395833333144},{"name":"D3","midi":50,"time":224.45312500000063,"velocity":0.8031496062992126,"duration":0.3997395833333144},{"name":"A3","midi":57,"time":224.45312500000063,"velocity":0.8031496062992126,"duration":0.3997395833333144},{"name":"F#5","midi":78,"time":224.45312500000063,"velocity":0.8031496062992126,"duration":0.1979166666666572},{"name":"D5","midi":74,"time":224.65494791666728,"velocity":0.8031496062992126,"duration":0.1979166666666572},{"name":"D3","midi":50,"time":224.85807291666728,"velocity":0.8031496062992126,"duration":0.3997395833333144},{"name":"A#2","midi":46,"time":224.85807291666728,"velocity":0.8031496062992126,"duration":0.3997395833333144},{"name":"G3","midi":55,"time":224.85807291666728,"velocity":0.8031496062992126,"duration":0.3997395833333144},{"name":"G5","midi":79,"time":224.85807291666728,"velocity":0.8031496062992126,"duration":0.1979166666666572},{"name":"F#5","midi":78,"time":225.05989583333394,"velocity":0.8031496062992126,"duration":0.1979166666666572},{"name":"D3","midi":50,"time":225.26302083333394,"velocity":0.8031496062992126,"duration":0.3997395833333144},{"name":"A#2","midi":46,"time":225.26302083333394,"velocity":0.8031496062992126,"duration":0.3997395833333144},{"name":"G2","midi":43,"time":225.26302083333394,"velocity":0.8031496062992126,"duration":0.3997395833333144},{"name":"G5","midi":79,"time":225.26302083333394,"velocity":0.8031496062992126,"duration":0.1979166666666572},{"name":"A5","midi":81,"time":225.4648437500006,"velocity":0.8031496062992126,"duration":0.1979166666666572},{"name":"G2","midi":43,"time":225.6679687500006,"velocity":0.8031496062992126,"duration":0.3997395833333144},{"name":"A#2","midi":46,"time":225.6679687500006,"velocity":0.8031496062992126,"duration":0.3997395833333144},{"name":"D3","midi":50,"time":225.6679687500006,"velocity":0.8031496062992126,"duration":0.3997395833333144},{"name":"A#5","midi":82,"time":225.6679687500006,"velocity":0.8031496062992126,"duration":0.1979166666666572},{"name":"G5","midi":79,"time":225.86979166666725,"velocity":0.8031496062992126,"duration":0.1979166666666572},{"name":"D2","midi":38,"time":226.07291666666725,"velocity":0.8031496062992126,"duration":0.9270833333333144},{"name":"A2","midi":45,"time":226.07291666666725,"velocity":0.8031496062992126,"duration":0.9270833333333144},{"name":"F#2","midi":42,"time":226.07291666666725,"velocity":0.8031496062992126,"duration":0.9270833333333144},{"name":"D3","midi":50,"time":226.07291666666725,"velocity":0.8031496062992126,"duration":0.9270833333333144},{"name":"A5","midi":81,"time":226.07291666666725,"velocity":0.8031496062992126,"duration":0.1979166666666572},{"name":"G5","midi":79,"time":226.2747395833339,"velocity":0.8031496062992126,"duration":0.1979166666666572},{"name":"F#5","midi":78,"time":226.4778645833339,"velocity":0.8031496062992126,"duration":0.1979166666666572},{"name":"E5","midi":76,"time":226.67968750000057,"velocity":0.8031496062992126,"duration":0.1979166666666572},{"name":"D5","midi":74,"time":226.88281250000057,"velocity":0.8031496062992126,"duration":0.1979166666666572},{"name":"C5","midi":72,"time":227.08463541666723,"velocity":0.8031496062992126,"duration":0.1979166666666572},{"name":"A#4","midi":70,"time":227.28776041666723,"velocity":0.8031496062992126,"duration":0.3997395833333144},{"name":"A4","midi":69,"time":227.48958333333388,"velocity":0.8031496062992126,"duration":0.1979166666666572},{"name":"G4","midi":67,"time":227.69270833333388,"velocity":0.8031496062992126,"duration":0.1979166666666572},{"name":"D5","midi":74,"time":227.69270833333388,"velocity":0.8031496062992126,"duration":0.3997395833333428},{"name":"A#4","midi":70,"time":227.69270833333388,"velocity":0.8031496062992126,"duration":0.3997395833333428},{"name":"G5","midi":79,"time":227.69270833333388,"velocity":0.8031496062992126,"duration":0.3997395833333428},{"name":"F4","midi":65,"time":227.89583333333388,"velocity":0.8031496062992126,"duration":0.19791666666668561},{"name":"D#4","midi":63,"time":228.09765625000057,"velocity":0.8031496062992126,"duration":0.1979166666666572},{"name":"D5","midi":74,"time":228.09765625000057,"velocity":0.8031496062992126,"duration":0.3997395833333428},{"name":"G5","midi":79,"time":228.09765625000057,"velocity":0.8031496062992126,"duration":0.3997395833333428},{"name":"A#4","midi":70,"time":228.09765625000057,"velocity":0.8031496062992126,"duration":0.3997395833333428},{"name":"D4","midi":62,"time":228.30078125000057,"velocity":0.8031496062992126,"duration":0.19791666666668561},{"name":"C4","midi":60,"time":228.50260416666725,"velocity":0.8031496062992126,"duration":0.1979166666666572},{"name":"D#5","midi":75,"time":228.50260416666725,"velocity":0.8031496062992126,"duration":0.1979166666666572},{"name":"C5","midi":72,"time":228.50260416666725,"velocity":0.8031496062992126,"duration":0.58984375},{"name":"D4","midi":62,"time":228.70572916666725,"velocity":0.8031496062992126,"duration":0.1979166666666572},{"name":"F5","midi":77,"time":228.70572916666725,"velocity":0.8031496062992126,"duration":0.1979166666666572},{"name":"C4","midi":60,"time":228.9075520833339,"velocity":0.8031496062992126,"duration":0.19791666666668561},{"name":"D#5","midi":75,"time":228.9075520833339,"velocity":0.8031496062992126,"duration":0.19791666666668561},{"name":"A#3","midi":58,"time":229.11067708333394,"velocity":0.8031496062992126,"duration":0.1979166666666572},{"name":"D5","midi":74,"time":229.11067708333394,"velocity":0.8031496062992126,"duration":0.1979166666666572},{"name":"A3","midi":57,"time":229.3125000000006,"velocity":0.8031496062992126,"duration":0.1979166666666572},{"name":"C5","midi":72,"time":229.3125000000006,"velocity":0.8031496062992126,"duration":0.1979166666666572},{"name":"G3","midi":55,"time":229.5156250000006,"velocity":0.8031496062992126,"duration":0.1979166666666572},{"name":"A#4","midi":70,"time":229.5156250000006,"velocity":0.8031496062992126,"duration":0.1979166666666572},{"name":"F3","midi":53,"time":229.71744791666725,"velocity":0.8031496062992126,"duration":0.1979166666666572},{"name":"A4","midi":69,"time":229.71744791666725,"velocity":0.8031496062992126,"duration":0.3997395833333428},{"name":"G4","midi":67,"time":229.92057291666725,"velocity":0.8031496062992126,"duration":0.19791666666668561},{"name":"F4","midi":65,"time":230.12239583333394,"velocity":0.8031496062992126,"duration":0.1979166666666572},{"name":"A4","midi":69,"time":230.12239583333394,"velocity":0.8031496062992126,"duration":0.3997395833333428},{"name":"F5","midi":77,"time":230.12239583333394,"velocity":0.8031496062992126,"duration":0.3997395833333428},{"name":"C5","midi":72,"time":230.12239583333394,"velocity":0.8031496062992126,"duration":0.3997395833333428},{"name":"D#4","midi":63,"time":230.32552083333394,"velocity":0.8031496062992126,"duration":0.19791666666668561},{"name":"D4","midi":62,"time":230.52734375000063,"velocity":0.8031496062992126,"duration":0.1979166666666572},{"name":"F5","midi":77,"time":230.52734375000063,"velocity":0.8031496062992126,"duration":0.3997395833333428},{"name":"C5","midi":72,"time":230.52734375000063,"velocity":0.8031496062992126,"duration":0.3997395833333428},{"name":"A4","midi":69,"time":230.52734375000063,"velocity":0.8031496062992126,"duration":0.3997395833333428},{"name":"C4","midi":60,"time":230.73046875000063,"velocity":0.8031496062992126,"duration":0.19791666666668561},{"name":"A#3","midi":58,"time":230.9322916666673,"velocity":0.8031496062992126,"duration":0.1979166666666572},{"name":"D5","midi":74,"time":230.9322916666673,"velocity":0.8031496062992126,"duration":0.1979166666666572},{"name":"A#4","midi":70,"time":230.9322916666673,"velocity":0.8031496062992126,"duration":0.58984375},{"name":"C4","midi":60,"time":231.1354166666673,"velocity":0.8031496062992126,"duration":0.1979166666666572},{"name":"D#5","midi":75,"time":231.1354166666673,"velocity":0.8031496062992126,"duration":0.1979166666666572},{"name":"A#3","midi":58,"time":231.33723958333397,"velocity":0.8031496062992126,"duration":0.19791666666668561},{"name":"D5","midi":74,"time":231.33723958333397,"velocity":0.8031496062992126,"duration":0.19791666666668561},{"name":"A3","midi":57,"time":231.540364583334,"velocity":0.8031496062992126,"duration":0.1979166666666572},{"name":"C5","midi":72,"time":231.540364583334,"velocity":0.8031496062992126,"duration":0.1979166666666572},{"name":"G3","midi":55,"time":231.74218750000065,"velocity":0.8031496062992126,"duration":0.1979166666666572},{"name":"A#4","midi":70,"time":231.74218750000065,"velocity":0.8031496062992126,"duration":0.1979166666666572},{"name":"F3","midi":53,"time":231.94531250000065,"velocity":0.8031496062992126,"duration":0.1979166666666572},{"name":"A4","midi":69,"time":231.94531250000065,"velocity":0.8031496062992126,"duration":0.1979166666666572},{"name":"D#3","midi":51,"time":232.1471354166673,"velocity":0.8031496062992126,"duration":0.1979166666666572},{"name":"G4","midi":67,"time":232.1471354166673,"velocity":0.8031496062992126,"duration":0.3997395833333428},{"name":"F4","midi":65,"time":232.3502604166673,"velocity":0.8031496062992126,"duration":0.19791666666668561},{"name":"D#4","midi":63,"time":232.552083333334,"velocity":0.8031496062992126,"duration":0.1979166666666572},{"name":"G4","midi":67,"time":232.552083333334,"velocity":0.8031496062992126,"duration":0.3997395833333428},{"name":"D#5","midi":75,"time":232.552083333334,"velocity":0.8031496062992126,"duration":0.3997395833333428},{"name":"A#4","midi":70,"time":232.552083333334,"velocity":0.8031496062992126,"duration":0.3997395833333428},{"name":"D4","midi":62,"time":232.755208333334,"velocity":0.8031496062992126,"duration":0.19791666666668561},{"name":"C4","midi":60,"time":232.95833333333402,"velocity":0.8031496062992126,"duration":0.1979166666666572},{"name":"G4","midi":67,"time":232.95833333333402,"velocity":0.8031496062992126,"duration":0.3997395833333144},{"name":"D#5","midi":75,"time":232.95833333333402,"velocity":0.8031496062992126,"duration":0.3997395833333144},{"name":"A#4","midi":70,"time":232.95833333333402,"velocity":0.8031496062992126,"duration":0.3997395833333144},{"name":"A#3","midi":58,"time":233.16015625000068,"velocity":0.8031496062992126,"duration":0.1979166666666572},{"name":"A3","midi":57,"time":233.36328125000068,"velocity":0.8031496062992126,"duration":0.1979166666666572},{"name":"C5","midi":72,"time":233.36328125000068,"velocity":0.8031496062992126,"duration":0.1979166666666572},{"name":"G4","midi":67,"time":233.36328125000068,"velocity":0.8031496062992126,"duration":0.58984375},{"name":"A#3","midi":58,"time":233.56510416666734,"velocity":0.8031496062992126,"duration":0.1979166666666572},{"name":"D5","midi":74,"time":233.56510416666734,"velocity":0.8031496062992126,"duration":0.1979166666666572},{"name":"A3","midi":57,"time":233.76822916666734,"velocity":0.8031496062992126,"duration":0.19791666666668561},{"name":"C5","midi":72,"time":233.76822916666734,"velocity":0.8031496062992126,"duration":0.19791666666668561},{"name":"G3","midi":55,"time":233.97005208333402,"velocity":0.8031496062992126,"duration":0.1979166666666572},{"name":"A#4","midi":70,"time":233.97005208333402,"velocity":0.8031496062992126,"duration":0.1979166666666572},{"name":"F#3","midi":54,"time":234.17317708333402,"velocity":0.8031496062992126,"duration":0.1979166666666572},{"name":"A4","midi":69,"time":234.17317708333402,"velocity":0.8031496062992126,"duration":0.1979166666666572},{"name":"E3","midi":52,"time":234.37500000000068,"velocity":0.8031496062992126,"duration":0.1979166666666572},{"name":"G4","midi":67,"time":234.37500000000068,"velocity":0.8031496062992126,"duration":0.1979166666666572},{"name":"D3","midi":50,"time":234.57812500000068,"velocity":0.8031496062992126,"duration":0.1979166666666572},{"name":"F#4","midi":66,"time":234.57812500000068,"velocity":0.8031496062992126,"duration":0.3997395833333144},{"name":"D#3","midi":51,"time":234.77994791666734,"velocity":0.8031496062992126,"duration":0.1979166666666572},{"name":"D3","midi":50,"time":234.98307291666734,"velocity":0.8031496062992126,"duration":0.1979166666666572},{"name":"A4","midi":69,"time":234.98307291666734,"velocity":0.8031496062992126,"duration":0.3997395833333144},{"name":"F#4","midi":66,"time":234.98307291666734,"velocity":0.8031496062992126,"duration":0.3997395833333144},{"name":"D5","midi":74,"time":234.98307291666734,"velocity":0.8031496062992126,"duration":0.3997395833333144},{"name":"C3","midi":48,"time":235.184895833334,"velocity":0.8031496062992126,"duration":0.1979166666666572},{"name":"A#2","midi":46,"time":235.388020833334,"velocity":0.8031496062992126,"duration":0.1979166666666572},{"name":"A4","midi":69,"time":235.388020833334,"velocity":0.8031496062992126,"duration":0.3997395833333144},{"name":"F#4","midi":66,"time":235.388020833334,"velocity":0.8031496062992126,"duration":0.3997395833333144},{"name":"D5","midi":74,"time":235.388020833334,"velocity":0.8031496062992126,"duration":0.3997395833333144},{"name":"A2","midi":45,"time":235.58984375000065,"velocity":0.8031496062992126,"duration":0.1979166666666572},{"name":"G2","midi":43,"time":235.79296875000065,"velocity":0.8031496062992126,"duration":0.1979166666666572},{"name":"D4","midi":62,"time":235.79296875000065,"velocity":0.8031496062992126,"duration":0.3997395833333144},{"name":"A#4","midi":70,"time":235.79296875000065,"velocity":0.8031496062992126,"duration":0.3997395833333144},{"name":"G4","midi":67,"time":235.79296875000065,"velocity":0.8031496062992126,"duration":0.3997395833333144},{"name":"A2","midi":45,"time":235.9947916666673,"velocity":0.8031496062992126,"duration":0.1979166666666572},{"name":"G2","midi":43,"time":236.1979166666673,"velocity":0.8031496062992126,"duration":0.1979166666666572},{"name":"A#4","midi":70,"time":236.1979166666673,"velocity":0.8031496062992126,"duration":0.3997395833333144},{"name":"D4","midi":62,"time":236.1979166666673,"velocity":0.8031496062992126,"duration":0.3997395833333144},{"name":"G4","midi":67,"time":236.1979166666673,"velocity":0.8031496062992126,"duration":0.3997395833333144},{"name":"F2","midi":41,"time":236.39973958333397,"velocity":0.8031496062992126,"duration":0.1979166666666572},{"name":"D#2","midi":39,"time":236.60286458333397,"velocity":0.8031496062992126,"duration":0.1979166666666572},{"name":"A#4","midi":70,"time":236.60286458333397,"velocity":0.8031496062992126,"duration":0.3997395833333144},{"name":"D4","midi":62,"time":236.60286458333397,"velocity":0.8031496062992126,"duration":0.3997395833333144},{"name":"G4","midi":67,"time":236.60286458333397,"velocity":0.8031496062992126,"duration":0.3997395833333144},{"name":"D2","midi":38,"time":236.80468750000063,"velocity":0.8031496062992126,"duration":0.1979166666666572},{"name":"C2","midi":36,"time":237.00781250000063,"velocity":0.8031496062992126,"duration":0.3997395833333144},{"name":"D#4","midi":63,"time":237.00781250000063,"velocity":0.8031496062992126,"duration":0.1979166666666572},{"name":"A#4","midi":70,"time":237.00781250000063,"velocity":0.8031496062992126,"duration":1.2122395833333428},{"name":"D4","midi":62,"time":237.20963541666728,"velocity":0.8031496062992126,"duration":0.1979166666666572},{"name":"C3","midi":48,"time":237.41276041666728,"velocity":0.8031496062992126,"duration":0.3997395833333144},{"name":"D#4","midi":63,"time":237.41276041666728,"velocity":0.8031496062992126,"duration":0.1979166666666572},{"name":"F4","midi":65,"time":237.61458333333394,"velocity":0.8031496062992126,"duration":0.1979166666666572},{"name":"C3","midi":48,"time":237.81770833333394,"velocity":0.8031496062992126,"duration":0.3997395833333428},{"name":"G4","midi":67,"time":237.81770833333394,"velocity":0.8031496062992126,"duration":0.1979166666666572},{"name":"D#4","midi":63,"time":238.02083333333394,"velocity":0.8031496062992126,"duration":0.19791666666668561},{"name":"F2","midi":41,"time":238.22265625000063,"velocity":0.8031496062992126,"duration":0.3997395833333428},{"name":"A4","midi":69,"time":238.22265625000063,"velocity":0.8031496062992126,"duration":2.4257812500001137},{"name":"C4","midi":60,"time":238.22265625000063,"velocity":0.8031496062992126,"duration":0.1979166666666572},{"name":"G4","midi":67,"time":238.42578125000063,"velocity":0.8031496062992126,"duration":0.19791666666668561},{"name":"F3","midi":53,"time":238.6276041666673,"velocity":0.8031496062992126,"duration":0.3997395833333428},{"name":"F4","midi":65,"time":238.6276041666673,"velocity":0.8031496062992126,"duration":0.1979166666666572},{"name":"D#4","midi":63,"time":238.8307291666673,"velocity":0.8031496062992126,"duration":0.19791666666668561},{"name":"F3","midi":53,"time":239.032552083334,"velocity":0.8031496062992126,"duration":0.3997395833333428},{"name":"D4","midi":62,"time":239.032552083334,"velocity":0.8031496062992126,"duration":0.1979166666666572},{"name":"C4","midi":60,"time":239.235677083334,"velocity":0.8031496062992126,"duration":0.19791666666668561},{"name":"A#3","midi":58,"time":239.43750000000068,"velocity":0.8031496062992126,"duration":0.3997395833333428},{"name":"D4","midi":62,"time":239.43750000000068,"velocity":0.8031496062992126,"duration":0.1979166666666572},{"name":"C4","midi":60,"time":239.64062500000068,"velocity":0.8031496062992126,"duration":0.19791666666668561},{"name":"A#2","midi":46,"time":239.84244791666737,"velocity":0.8031496062992126,"duration":0.3997395833333428},{"name":"D4","midi":62,"time":239.84244791666737,"velocity":0.8031496062992126,"duration":0.1979166666666572},{"name":"D#4","midi":63,"time":240.04557291666737,"velocity":0.8031496062992126,"duration":0.19791666666668561},{"name":"A#2","midi":46,"time":240.24739583333405,"velocity":0.8031496062992126,"duration":0.3997395833333428},{"name":"F4","midi":65,"time":240.24739583333405,"velocity":0.8031496062992126,"duration":0.1979166666666572},{"name":"D4","midi":62,"time":240.45052083333405,"velocity":0.8031496062992126,"duration":0.19791666666668561},{"name":"D#2","midi":39,"time":240.65234375000074,"velocity":0.8031496062992126,"duration":0.3997395833333428},{"name":"A#3","midi":58,"time":240.65234375000074,"velocity":0.8031496062992126,"duration":0.1979166666666572},{"name":"G4","midi":67,"time":240.65234375000074,"velocity":0.8031496062992126,"duration":2.4257812500001137},{"name":"F4","midi":65,"time":240.85546875000074,"velocity":0.8031496062992126,"duration":0.19791666666668561},{"name":"D#3","midi":51,"time":241.05729166666742,"velocity":0.8031496062992126,"duration":0.3997395833333428},{"name":"D#4","midi":63,"time":241.05729166666742,"velocity":0.8031496062992126,"duration":0.1979166666666572},{"name":"D4","midi":62,"time":241.26041666666742,"velocity":0.8031496062992126,"duration":0.19791666666668561},{"name":"D#3","midi":51,"time":241.4622395833341,"velocity":0.8031496062992126,"duration":0.3997395833333428},{"name":"C4","midi":60,"time":241.4622395833341,"velocity":0.8031496062992126,"duration":0.1979166666666572},{"name":"A#3","midi":58,"time":241.6653645833341,"velocity":0.8031496062992126,"duration":0.19791666666668561},{"name":"A3","midi":57,"time":241.8671875000008,"velocity":0.8031496062992126,"duration":0.3997395833333428},{"name":"C4","midi":60,"time":241.8671875000008,"velocity":0.8031496062992126,"duration":0.1979166666666572},{"name":"A#3","midi":58,"time":242.0703125000008,"velocity":0.8031496062992126,"duration":0.19791666666668561},{"name":"A2","midi":45,"time":242.27213541666748,"velocity":0.8031496062992126,"duration":0.3997395833333428},{"name":"C4","midi":60,"time":242.27213541666748,"velocity":0.8031496062992126,"duration":0.1979166666666572},{"name":"D4","midi":62,"time":242.47526041666748,"velocity":0.8031496062992126,"duration":0.19791666666668561},{"name":"A2","midi":45,"time":242.67708333333417,"velocity":0.8031496062992126,"duration":0.3997395833333428},{"name":"D#4","midi":63,"time":242.67708333333417,"velocity":0.8031496062992126,"duration":0.1979166666666572},{"name":"C4","midi":60,"time":242.88020833333417,"velocity":0.8031496062992126,"duration":0.19791666666668561},{"name":"D2","midi":38,"time":243.0833333333342,"velocity":0.8031496062992126,"duration":1.0117187499999716},{"name":"A3","midi":57,"time":243.0833333333342,"velocity":0.8031496062992126,"duration":0.1979166666666572},{"name":"F#4","midi":66,"time":243.0833333333342,"velocity":0.8031496062992126,"duration":1.212239583333286},{"name":"D#4","midi":63,"time":243.28515625000085,"velocity":0.8031496062992126,"duration":0.1979166666666572},{"name":"D4","midi":62,"time":243.48828125000085,"velocity":0.8031496062992126,"duration":0.1979166666666572},{"name":"C4","midi":60,"time":243.6901041666675,"velocity":0.8031496062992126,"duration":0.1979166666666572},{"name":"A#3","midi":58,"time":243.8932291666675,"velocity":0.8031496062992126,"duration":0.1979166666666572},{"name":"A3","midi":57,"time":244.09505208333417,"velocity":0.8031496062992126,"duration":0.1979166666666572},{"name":"A#3","midi":58,"time":244.29817708333414,"velocity":0.8031496062992126,"duration":0.1979166666666572},{"name":"A4","midi":69,"time":244.29817708333414,"velocity":0.8031496062992126,"duration":0.20833333333331439},{"name":"G4","midi":67,"time":244.48958333333414,"velocity":0.8031496062992126,"duration":0.12239583333331439},{"name":"D4","midi":62,"time":244.5000000000008,"velocity":0.8031496062992126,"duration":0.1979166666666572},{"name":"A4","midi":69,"time":244.6171875000008,"velocity":0.8031496062992126,"duration":0.09635416666665719},{"name":"C4","midi":60,"time":244.7031250000008,"velocity":0.8031496062992126,"duration":0.19791666666662877},{"name":"G4","midi":67,"time":244.70572916666745,"velocity":0.8031496062992126,"duration":0.09635416666665719},{"name":"A4","midi":69,"time":244.7942708333341,"velocity":0.8031496062992126,"duration":0.09635416666665719},{"name":"G4","midi":67,"time":244.89453125000077,"velocity":0.8031496062992126,"duration":0.09635416666665719},{"name":"A#3","midi":58,"time":244.90494791666742,"velocity":0.8031496062992126,"duration":0.1979166666666572},{"name":"A4","midi":69,"time":244.98307291666742,"velocity":0.8031496062992126,"duration":0.09635416666665719},{"name":"G4","midi":67,"time":245.07161458333408,"velocity":0.8031496062992126,"duration":0.09635416666668561},{"name":"A3","midi":57,"time":245.10807291666742,"velocity":0.8031496062992126,"duration":0.19791666666668561},{"name":"A4","midi":69,"time":245.16015625000077,"velocity":0.8031496062992126,"duration":0.09635416666668561},{"name":"G4","midi":67,"time":245.2473958333341,"velocity":0.8031496062992126,"duration":0.09635416666665719},{"name":"G3","midi":55,"time":245.3098958333341,"velocity":0.8031496062992126,"duration":0.1979166666666572},{"name":"F#4","midi":66,"time":245.33593750000077,"velocity":0.8031496062992126,"duration":0.09635416666665719},{"name":"G4","midi":67,"time":245.42447916666742,"velocity":0.8031496062992126,"duration":0.09635416666668561},{"name":"F#3","midi":54,"time":245.5130208333341,"velocity":0.8031496062992126,"duration":0.1979166666666572},{"name":"A4","midi":69,"time":245.5130208333341,"velocity":0.8031496062992126,"duration":0.3997395833333144},{"name":"G3","midi":55,"time":245.71484375000077,"velocity":0.8031496062992126,"duration":0.1979166666666572},{"name":"F#3","midi":54,"time":245.91796875000077,"velocity":0.8031496062992126,"duration":0.1979166666666572},{"name":"D5","midi":74,"time":245.91796875000077,"velocity":0.8031496062992126,"duration":0.3997395833333144},{"name":"A4","midi":69,"time":245.91796875000077,"velocity":0.8031496062992126,"duration":0.3997395833333144},{"name":"F#4","midi":66,"time":245.91796875000077,"velocity":0.8031496062992126,"duration":0.3997395833333144},{"name":"E3","midi":52,"time":246.11979166666742,"velocity":0.8031496062992126,"duration":0.1979166666666572},{"name":"D3","midi":50,"time":246.32291666666742,"velocity":0.8031496062992126,"duration":0.1979166666666572},{"name":"A4","midi":69,"time":246.32291666666742,"velocity":0.8031496062992126,"duration":0.3997395833333144},{"name":"F#4","midi":66,"time":246.32291666666742,"velocity":0.8031496062992126,"duration":0.3997395833333144},{"name":"D5","midi":74,"time":246.32291666666742,"velocity":0.8031496062992126,"duration":0.3997395833333144},{"name":"C3","midi":48,"time":246.52473958333408,"velocity":0.8031496062992126,"duration":0.1979166666666572},{"name":"B2","midi":47,"time":246.72786458333408,"velocity":0.8031496062992126,"duration":0.1979166666666572},{"name":"F5","midi":77,"time":246.72786458333408,"velocity":0.8031496062992126,"duration":0.3997395833333144},{"name":"D5","midi":74,"time":246.72786458333408,"velocity":0.8031496062992126,"duration":0.3997395833333144},{"name":"B4","midi":71,"time":246.72786458333408,"velocity":0.8031496062992126,"duration":0.3997395833333144},{"name":"G4","midi":67,"time":246.72786458333408,"velocity":0.8031496062992126,"duration":0.3997395833333144},{"name":"A2","midi":45,"time":246.92968750000074,"velocity":0.8031496062992126,"duration":0.1979166666666572},{"name":"G2","midi":43,"time":247.13281250000074,"velocity":0.8031496062992126,"duration":0.1979166666666572},{"name":"F5","midi":77,"time":247.13281250000074,"velocity":0.8031496062992126,"duration":0.3997395833333144},{"name":"D5","midi":74,"time":247.13281250000074,"velocity":0.8031496062992126,"duration":0.3997395833333144},{"name":"B4","midi":71,"time":247.13281250000074,"velocity":0.8031496062992126,"duration":0.3997395833333144},{"name":"G4","midi":67,"time":247.13281250000074,"velocity":0.8031496062992126,"duration":0.3997395833333144},{"name":"F2","midi":41,"time":247.3346354166674,"velocity":0.8031496062992126,"duration":0.1979166666666572},{"name":"E2","midi":40,"time":247.5377604166674,"velocity":0.8031496062992126,"duration":0.1979166666666572},{"name":"G4","midi":67,"time":247.5377604166674,"velocity":0.8031496062992126,"duration":0.3997395833333144},{"name":"D5","midi":74,"time":247.5377604166674,"velocity":0.8031496062992126,"duration":0.3997395833333144},{"name":"B4","midi":71,"time":247.5377604166674,"velocity":0.8031496062992126,"duration":0.3997395833333144},{"name":"F5","midi":77,"time":247.5377604166674,"velocity":0.8031496062992126,"duration":0.3997395833333144},{"name":"D2","midi":38,"time":247.73958333333405,"velocity":0.8031496062992126,"duration":0.1979166666666572},{"name":"C2","midi":36,"time":247.94270833333405,"velocity":0.8031496062992126,"duration":0.3997395833333428},{"name":"B4","midi":71,"time":247.94270833333405,"velocity":0.8031496062992126,"duration":0.3997395833333428},{"name":"G4","midi":67,"time":247.94270833333405,"velocity":0.8031496062992126,"duration":0.3997395833333428},{"name":"F5","midi":77,"time":247.94270833333405,"velocity":0.8031496062992126,"duration":0.3997395833333428},{"name":"D5","midi":74,"time":247.94270833333405,"velocity":0.8031496062992126,"duration":0.3997395833333428},{"name":"G3","midi":55,"time":248.34765625000074,"velocity":0.8031496062992126,"duration":0.1979166666666572},{"name":"C5","midi":72,"time":248.34765625000074,"velocity":0.8031496062992126,"duration":0.3997395833333428},{"name":"G4","midi":67,"time":248.34765625000074,"velocity":0.8031496062992126,"duration":0.3997395833333428},{"name":"E5","midi":76,"time":248.34765625000074,"velocity":0.8031496062992126,"duration":0.3997395833333428},{"name":"F3","midi":53,"time":248.55078125000074,"velocity":0.8031496062992126,"duration":0.19791666666668561},{"name":"E3","midi":52,"time":248.75260416666742,"velocity":0.8031496062992126,"duration":0.1979166666666572},{"name":"E5","midi":76,"time":248.75260416666742,"velocity":0.8031496062992126,"duration":0.3997395833333428},{"name":"C5","midi":72,"time":248.75260416666742,"velocity":0.8031496062992126,"duration":0.3997395833333428},{"name":"G4","midi":67,"time":248.75260416666742,"velocity":0.8031496062992126,"duration":0.3997395833333428},{"name":"D3","midi":50,"time":248.95572916666742,"velocity":0.8031496062992126,"duration":0.19791666666668561},{"name":"C#3","midi":49,"time":249.1575520833341,"velocity":0.8031496062992126,"duration":0.1979166666666572},{"name":"G5","midi":79,"time":249.1575520833341,"velocity":0.8031496062992126,"duration":0.3997395833333428},{"name":"E5","midi":76,"time":249.1575520833341,"velocity":0.8031496062992126,"duration":0.3997395833333428},{"name":"C#5","midi":73,"time":249.1575520833341,"velocity":0.8031496062992126,"duration":0.3997395833333428},{"name":"A4","midi":69,"time":249.1575520833341,"velocity":0.8031496062992126,"duration":0.3997395833333428},{"name":"B2","midi":47,"time":249.3606770833341,"velocity":0.8031496062992126,"duration":0.19791666666668561},{"name":"A2","midi":45,"time":249.5625000000008,"velocity":0.8031496062992126,"duration":0.1979166666666572},{"name":"C#5","midi":73,"time":249.5625000000008,"velocity":0.8031496062992126,"duration":0.3997395833333428},{"name":"A4","midi":69,"time":249.5625000000008,"velocity":0.8031496062992126,"duration":0.3997395833333428},{"name":"G5","midi":79,"time":249.5625000000008,"velocity":0.8031496062992126,"duration":0.3997395833333428},{"name":"E5","midi":76,"time":249.5625000000008,"velocity":0.8031496062992126,"duration":0.3997395833333428},{"name":"G2","midi":43,"time":249.7656250000008,"velocity":0.8031496062992126,"duration":0.19791666666668561},{"name":"F#2","midi":42,"time":249.96744791666748,"velocity":0.8031496062992126,"duration":0.1979166666666572},{"name":"G5","midi":79,"time":249.96744791666748,"velocity":0.8031496062992126,"duration":0.3997395833333428},{"name":"E5","midi":76,"time":249.96744791666748,"velocity":0.8031496062992126,"duration":0.3997395833333428},{"name":"C#5","midi":73,"time":249.96744791666748,"velocity":0.8031496062992126,"duration":0.3997395833333428},{"name":"A4","midi":69,"time":249.96744791666748,"velocity":0.8031496062992126,"duration":0.3997395833333428},{"name":"E2","midi":40,"time":250.17057291666748,"velocity":0.8031496062992126,"duration":0.19791666666668561},{"name":"D2","midi":38,"time":250.37239583333417,"velocity":0.8031496062992126,"duration":0.3997395833333428},{"name":"C#5","midi":73,"time":250.37239583333417,"velocity":0.8031496062992126,"duration":0.3997395833333428},{"name":"A4","midi":69,"time":250.37239583333417,"velocity":0.8031496062992126,"duration":0.3997395833333428},{"name":"G5","midi":79,"time":250.37239583333417,"velocity":0.8031496062992126,"duration":0.3997395833333428},{"name":"E5","midi":76,"time":250.37239583333417,"velocity":0.8031496062992126,"duration":0.3997395833333428},{"name":"C4","midi":60,"time":250.77734375000085,"velocity":0.8031496062992126,"duration":0.1979166666666572},{"name":"A4","midi":69,"time":250.77734375000085,"velocity":0.8031496062992126,"duration":0.3997395833333428},{"name":"F#5","midi":78,"time":250.77734375000085,"velocity":0.8031496062992126,"duration":0.3997395833333428},{"name":"D5","midi":74,"time":250.77734375000085,"velocity":0.8031496062992126,"duration":0.3997395833333428},{"name":"A#3","midi":58,"time":250.98046875000085,"velocity":0.8031496062992126,"duration":0.19791666666668561},{"name":"A3","midi":57,"time":251.18229166666754,"velocity":0.8031496062992126,"duration":0.1979166666666572},{"name":"F#5","midi":78,"time":251.18229166666754,"velocity":0.8031496062992126,"duration":0.3997395833333428},{"name":"D5","midi":74,"time":251.18229166666754,"velocity":0.8031496062992126,"duration":0.3997395833333428},{"name":"A4","midi":69,"time":251.18229166666754,"velocity":0.8031496062992126,"duration":0.3997395833333428},{"name":"G3","midi":55,"time":251.38541666666754,"velocity":0.8031496062992126,"duration":0.19791666666668561},{"name":"F#3","midi":54,"time":251.58723958333422,"velocity":0.8031496062992126,"duration":0.1979166666666572},{"name":"D5","midi":74,"time":251.58723958333422,"velocity":0.8031496062992126,"duration":0.3997395833333428},{"name":"C5","midi":72,"time":251.58723958333422,"velocity":0.8031496062992126,"duration":0.3997395833333428},{"name":"A5","midi":81,"time":251.58723958333422,"velocity":0.8031496062992126,"duration":0.3997395833333428},{"name":"E3","midi":52,"time":251.79036458333422,"velocity":0.8031496062992126,"duration":0.19791666666668561},{"name":"D3","midi":50,"time":251.9921875000009,"velocity":0.8031496062992126,"duration":0.1979166666666572},{"name":"C5","midi":72,"time":251.9921875000009,"velocity":0.8031496062992126,"duration":0.3997395833333428},{"name":"A5","midi":81,"time":251.9921875000009,"velocity":0.8031496062992126,"duration":0.3997395833333428},{"name":"D5","midi":74,"time":251.9921875000009,"velocity":0.8031496062992126,"duration":0.3997395833333428},{"name":"C3","midi":48,"time":252.1953125000009,"velocity":0.8031496062992126,"duration":0.19791666666668561},{"name":"A#2","midi":46,"time":252.3971354166676,"velocity":0.8031496062992126,"duration":0.1979166666666572},{"name":"A5","midi":81,"time":252.3971354166676,"velocity":0.8031496062992126,"duration":0.3997395833333428},{"name":"C5","midi":72,"time":252.3971354166676,"velocity":0.8031496062992126,"duration":0.3997395833333428},{"name":"D5","midi":74,"time":252.3971354166676,"velocity":0.8031496062992126,"duration":0.3997395833333428},{"name":"A2","midi":45,"time":252.6002604166676,"velocity":0.8031496062992126,"duration":0.19791666666668561},{"name":"G2","midi":43,"time":252.80208333333428,"velocity":0.8031496062992126,"duration":0.2044270833333428},{"name":"A5","midi":81,"time":252.80208333333428,"velocity":0.8031496062992126,"duration":0.4127604166666856},{"name":"D5","midi":74,"time":252.80208333333428,"velocity":0.8031496062992126,"duration":0.826822916666714},{"name":"C5","midi":72,"time":252.80208333333428,"velocity":0.8031496062992126,"duration":0.4127604166666856},{"name":"F#2","midi":42,"time":253.01171875000097,"velocity":0.8031496062992126,"duration":0.2044270833333428},{"name":"G2","midi":43,"time":253.2200520833343,"velocity":0.8031496062992126,"duration":0.2044270833333428},{"name":"G5","midi":79,"time":253.2200520833343,"velocity":0.8031496062992126,"duration":0.4127604166666856},{"name":"A#4","midi":70,"time":253.2200520833343,"velocity":0.8031496062992126,"duration":0.4127604166666856},{"name":"A2","midi":45,"time":253.429687500001,"velocity":0.8031496062992126,"duration":0.2044270833333428},{"name":"A#2","midi":46,"time":253.63802083333434,"velocity":0.8031496062992126,"duration":0.2044270833333428},{"name":"F5","midi":77,"time":253.63802083333434,"velocity":0.8031496062992126,"duration":0.4127604166666856},{"name":"A4","midi":69,"time":253.63802083333434,"velocity":0.8031496062992126,"duration":0.4127604166666856},{"name":"D5","midi":74,"time":253.63802083333434,"velocity":0.8031496062992126,"duration":0.4127604166666856},{"name":"G2","midi":43,"time":253.84635416666768,"velocity":0.8031496062992126,"duration":0.2044270833333428},{"name":"C3","midi":48,"time":254.05598958333437,"velocity":0.8031496062992126,"duration":0.2057291666666572},{"name":"C5","midi":72,"time":254.05598958333437,"velocity":0.8031496062992126,"duration":0.4166666666666572},{"name":"G4","midi":67,"time":254.05598958333437,"velocity":0.8031496062992126,"duration":1.2630208333333144},{"name":"D#5","midi":75,"time":254.05598958333437,"velocity":0.8031496062992126,"duration":0.4166666666666572},{"name":"A#2","midi":46,"time":254.26692708333437,"velocity":0.8031496062992126,"duration":0.2057291666666572},{"name":"C3","midi":48,"time":254.47786458333437,"velocity":0.8031496062992126,"duration":0.2057291666666572},{"name":"A#4","midi":70,"time":254.47786458333437,"velocity":0.8031496062992126,"duration":0.4166666666666572},{"name":"D5","midi":74,"time":254.47786458333437,"velocity":0.8031496062992126,"duration":0.4166666666666572},{"name":"D3","midi":50,"time":254.68880208333437,"velocity":0.8031496062992126,"duration":0.2057291666666572},{"name":"D#3","midi":51,"time":254.89973958333437,"velocity":0.8031496062992126,"duration":0.2057291666666572},{"name":"A4","midi":69,"time":254.89973958333437,"velocity":0.8031496062992126,"duration":0.4166666666666572},{"name":"C5","midi":72,"time":254.89973958333437,"velocity":0.8031496062992126,"duration":0.4166666666666572},{"name":"C3","midi":48,"time":255.11067708333437,"velocity":0.8031496062992126,"duration":0.2057291666666572},{"name":"D3","midi":50,"time":255.32161458333434,"velocity":0.8031496062992126,"duration":0.21484375},{"name":"F#4","midi":66,"time":255.32161458333434,"velocity":0.8031496062992126,"duration":0.6536458333333428},{"name":"A4","midi":69,"time":255.43098958333434,"velocity":0.8031496062992126,"duration":0.75390625},{"name":"E3","midi":52,"time":255.54036458333434,"velocity":0.8031496062992126,"duration":0.21484375},{"name":"C5","midi":72,"time":255.54036458333434,"velocity":0.8031496062992126,"duration":0.43359375},{"name":"F#3","midi":54,"time":255.76041666666768,"velocity":0.8031496062992126,"duration":0.21484375},{"name":"D3","midi":50,"time":255.97916666666768,"velocity":0.8031496062992126,"duration":0.21484374999997158},{"name":"D5","midi":74,"time":255.97916666666768,"velocity":0.8031496062992126,"duration":0.21484374999997158},{"name":"G3","midi":55,"time":256.19921875000097,"velocity":0.8031496062992126,"duration":0.4700520833333144},{"name":"D4","midi":62,"time":256.19921875000097,"velocity":0.8031496062992126,"duration":0.7057291666666288},{"name":"A#4","midi":70,"time":256.19921875000097,"velocity":0.8031496062992126,"duration":0.7057291666666288},{"name":"G4","midi":67,"time":256.19921875000097,"velocity":0.8031496062992126,"duration":0.7057291666666288},{"name":"C3","midi":48,"time":256.6731770833343,"velocity":0.8031496062992126,"duration":0.46744791666662877},{"name":"A4","midi":69,"time":256.9101562500009,"velocity":0.8031496062992126,"duration":0.23177083333331439},{"name":"D3","midi":50,"time":257.1458333333342,"velocity":0.8031496062992126,"duration":0.5664062500000568},{"name":"F#4","midi":66,"time":257.1458333333342,"velocity":0.8031496062992126,"duration":0.8372395833334281},{"name":"A#4","midi":70,"time":257.1458333333342,"velocity":0.8031496062992126,"duration":0.13671875},{"name":"A4","midi":69,"time":257.2890625000009,"velocity":0.8031496062992126,"duration":0.13671875},{"name":"A#4","midi":70,"time":257.4322916666676,"velocity":0.8031496062992126,"duration":0.13671875},{"name":"A4","midi":69,"time":257.5768229166676,"velocity":0.8031496062992126,"duration":0.13671875},{"name":"D2","midi":38,"time":257.7200520833343,"velocity":0.8031496062992126,"duration":0.5716145833333712},{"name":"A#4","midi":70,"time":257.7200520833343,"velocity":0.8031496062992126,"duration":0.13671875},{"name":"A4","midi":69,"time":257.86328125000097,"velocity":0.8031496062992126,"duration":0.13802083333337123},{"name":"G4","midi":67,"time":258.00911458333434,"velocity":0.8031496062992126,"duration":0.2825520833333144},{"name":"G4","midi":67,"time":258.31901041666765,"velocity":0.8031496062992126,"duration":3.2552083333333144},{"name":"G2","midi":43,"time":258.31901041666765,"velocity":0.8031496062992126,"duration":3.2552083333333144},{"name":"A#4","midi":70,"time":264.08854166666765,"velocity":0.8031496062992126,"duration":0.390625},{"name":"A#4","midi":70,"time":264.51822916666765,"velocity":0.8031496062992126,"duration":1.2460937499998863},{"name":"G4","midi":67,"time":264.51822916666765,"velocity":0.8031496062992126,"duration":1.0013020833332575},{"name":"G2","midi":43,"time":264.79427083333434,"velocity":0.8031496062992126,"duration":0.23567708333331439},{"name":"A#2","midi":46,"time":265.03385416666765,"velocity":0.8031496062992126,"duration":0.23567708333331439},{"name":"D3","midi":50,"time":265.2747395833343,"velocity":0.8031496062992126,"duration":0.23567708333331439},{"name":"G3","midi":55,"time":265.5156250000009,"velocity":0.8031496062992126,"duration":0.23567708333331439},{"name":"A#3","midi":58,"time":265.7552083333342,"velocity":0.8031496062992126,"duration":0.23567708333331439},{"name":"G5","midi":79,"time":265.7552083333342,"velocity":0.8031496062992126,"duration":0.23567708333331439},{"name":"A3","midi":57,"time":265.99609375000085,"velocity":0.8031496062992126,"duration":0.23567708333331439},{"name":"F#5","midi":78,"time":265.99609375000085,"velocity":0.8031496062992126,"duration":0.23567708333331439},{"name":"G3","midi":55,"time":266.2369791666675,"velocity":0.8031496062992126,"duration":0.23567708333331439},{"name":"G5","midi":79,"time":266.2369791666675,"velocity":0.8031496062992126,"duration":0.23567708333331439},{"name":"F#3","midi":54,"time":266.4765625000008,"velocity":0.8031496062992126,"duration":0.23567708333331439},{"name":"C5","midi":72,"time":266.4765625000008,"velocity":0.8031496062992126,"duration":1.197916666666515},{"name":"A4","midi":69,"time":266.4765625000008,"velocity":0.8031496062992126,"duration":0.9531249999998863},{"name":"G3","midi":55,"time":266.7174479166674,"velocity":0.8031496062992126,"duration":0.23567708333331439},{"name":"A3","midi":57,"time":266.95833333333405,"velocity":0.8031496062992126,"duration":0.23567708333331439},{"name":"D#3","midi":51,"time":267.19791666666737,"velocity":0.8031496062992126,"duration":0.23567708333331439},{"name":"D3","midi":50,"time":267.438802083334,"velocity":0.8031496062992126,"duration":0.23567708333331439},{"name":"C3","midi":48,"time":267.6796875000006,"velocity":0.8031496062992126,"duration":0.23567708333331439},{"name":"A5","midi":81,"time":267.6796875000006,"velocity":0.8031496062992126,"duration":0.23567708333331439},{"name":"A#2","midi":46,"time":267.91927083333394,"velocity":0.8031496062992126,"duration":0.23567708333331439},{"name":"G5","midi":79,"time":267.91927083333394,"velocity":0.8031496062992126,"duration":0.23567708333331439},{"name":"A2","midi":45,"time":268.16015625000057,"velocity":0.8031496062992126,"duration":0.23567708333331439},{"name":"A5","midi":81,"time":268.16015625000057,"velocity":0.8031496062992126,"duration":0.23567708333331439},{"name":"A#2","midi":46,"time":268.4010416666672,"velocity":0.8031496062992126,"duration":1.197916666666515},{"name":"D5","midi":74,"time":268.4010416666672,"velocity":0.8031496062992126,"duration":0.23567708333331439},{"name":"G4","midi":67,"time":268.6419270833338,"velocity":0.8031496062992126,"duration":0.23567708333331439},{"name":"A#4","midi":70,"time":268.88151041666714,"velocity":0.8031496062992126,"duration":0.23567708333331439},{"name":"D5","midi":74,"time":269.12239583333377,"velocity":0.8031496062992126,"duration":0.23567708333331439},{"name":"G5","midi":79,"time":269.3632812500004,"velocity":0.8031496062992126,"duration":0.23567708333331439},{"name":"D3","midi":50,"time":269.6028645833337,"velocity":0.8031496062992126,"duration":0.23567708333331439},{"name":"A#5","midi":82,"time":269.6028645833337,"velocity":0.8031496062992126,"duration":0.23567708333331439},{"name":"C3","midi":48,"time":269.84375000000034,"velocity":0.8031496062992126,"duration":0.23567708333331439},{"name":"A5","midi":81,"time":269.84375000000034,"velocity":0.8031496062992126,"duration":0.23567708333331439},{"name":"D#3","midi":51,"time":270.08463541666697,"velocity":0.8031496062992126,"duration":0.23567708333331439},{"name":"G5","midi":79,"time":270.08463541666697,"velocity":0.8031496062992126,"duration":0.23567708333331439},{"name":"D3","midi":50,"time":270.3242187500003,"velocity":0.8031496062992126,"duration":1.197916666666515},{"name":"F#5","midi":78,"time":270.3242187500003,"velocity":0.8031496062992126,"duration":0.23567708333331439},{"name":"G5","midi":79,"time":270.5651041666669,"velocity":0.8031496062992126,"duration":0.23567708333331439},{"name":"A5","midi":81,"time":270.80598958333354,"velocity":0.8031496062992126,"duration":0.23567708333331439},{"name":"D#5","midi":75,"time":271.04557291666686,"velocity":0.8031496062992126,"duration":0.23567708333331439},{"name":"D5","midi":74,"time":271.2864583333335,"velocity":0.8031496062992126,"duration":0.23567708333331439},{"name":"E3","midi":52,"time":271.5273437500001,"velocity":0.8031496062992126,"duration":0.23567708333331439},{"name":"C5","midi":72,"time":271.5273437500001,"velocity":0.8031496062992126,"duration":0.23567708333331439},{"name":"F#3","midi":54,"time":271.7669270833334,"velocity":0.8031496062992126,"duration":0.23567708333331439},{"name":"A#4","midi":70,"time":271.7669270833334,"velocity":0.8031496062992126,"duration":0.23567708333331439},{"name":"D3","midi":50,"time":272.00781250000006,"velocity":0.8031496062992126,"duration":0.23567708333331439},{"name":"A4","midi":69,"time":272.00781250000006,"velocity":0.8031496062992126,"duration":0.23567708333331439},{"name":"G3","midi":55,"time":272.2486979166667,"velocity":0.8031496062992126,"duration":1.4427083333332007},{"name":"A#4","midi":70,"time":272.2486979166667,"velocity":0.8031496062992126,"duration":1.205729166666572},{"name":"G4","midi":67,"time":272.4908854166667,"velocity":0.8031496062992126,"duration":0.23567708333331439},{"name":"F4","midi":65,"time":272.7317708333333,"velocity":0.8031496062992126,"duration":0.23567708333331439},{"name":"D4","midi":62,"time":272.97135416666663,"velocity":0.8031496062992126,"duration":0.23567708333331439},{"name":"D#4","midi":63,"time":273.21223958333326,"velocity":0.8031496062992126,"duration":1.205729166666572},{"name":"A#4","midi":70,"time":273.45442708333326,"velocity":0.8031496062992126,"duration":0.23567708333331439},{"name":"D#3","midi":51,"time":273.6953124999999,"velocity":0.8031496062992126,"duration":0.47656249999994316},{"name":"C5","midi":72,"time":273.6953124999999,"velocity":0.8031496062992126,"duration":0.23567708333331439},{"name":"D#5","midi":75,"time":273.9361979166665,"velocity":0.8031496062992126,"duration":0.23567708333331439},{"name":"F3","midi":53,"time":274.17578124999983,"velocity":0.8031496062992126,"duration":1.4427083333332007},{"name":"A4","midi":69,"time":274.17578124999983,"velocity":0.8031496062992126,"duration":1.205729166666572},{"name":"F4","midi":65,"time":274.41927083333314,"velocity":0.8031496062992126,"duration":0.23567708333331439},{"name":"D#4","midi":63,"time":274.65885416666646,"velocity":0.8031496062992126,"duration":0.23567708333331439},{"name":"C4","midi":60,"time":274.8997395833331,"velocity":0.8031496062992126,"duration":0.23567708333331439},{"name":"D4","midi":62,"time":275.1406249999997,"velocity":0.8031496062992126,"duration":1.205729166666572},{"name":"A4","midi":69,"time":275.3828124999997,"velocity":0.8031496062992126,"duration":0.23567708333331439},{"name":"D3","midi":50,"time":275.62369791666634,"velocity":0.8031496062992126,"duration":0.47656249999994316},{"name":"A#4","midi":70,"time":275.62369791666634,"velocity":0.8031496062992126,"duration":0.23567708333331439},{"name":"D5","midi":74,"time":275.86328124999966,"velocity":0.8031496062992126,"duration":0.23567708333331439},{"name":"D#3","midi":51,"time":276.1041666666663,"velocity":0.8031496062992126,"duration":1.4427083333332007},{"name":"G4","midi":67,"time":276.1041666666663,"velocity":0.8031496062992126,"duration":1.205729166666572},{"name":"D#4","midi":63,"time":276.3463541666663,"velocity":0.8031496062992126,"duration":0.23567708333331439},{"name":"D4","midi":62,"time":276.5872395833329,"velocity":0.8031496062992126,"duration":0.23567708333331439},{"name":"A#3","midi":58,"time":276.82812499999955,"velocity":0.8031496062992126,"duration":0.23567708333331439},{"name":"C4","midi":60,"time":277.06770833333286,"velocity":0.8031496062992126,"duration":1.4427083333332007},{"name":"G4","midi":67,"time":277.3111979166662,"velocity":0.8031496062992126,"duration":0.23567708333331439},{"name":"C3","midi":48,"time":277.5507812499995,"velocity":0.8031496062992126,"duration":0.47656249999994316},{"name":"A4","midi":69,"time":277.5507812499995,"velocity":0.8031496062992126,"duration":0.23567708333331439},{"name":"C5","midi":72,"time":277.7916666666661,"velocity":0.8031496062992126,"duration":0.23567708333331439},{"name":"D3","midi":50,"time":278.03255208333275,"velocity":0.8031496062992126,"duration":2.403645833333087},{"name":"F#4","midi":66,"time":278.03255208333275,"velocity":0.8031496062992126,"duration":0.23567708333331439},{"name":"A4","midi":69,"time":278.27213541666606,"velocity":0.8031496062992126,"duration":0.23567708333331439},{"name":"A3","midi":57,"time":278.51302083333275,"velocity":0.8031496062992126,"duration":0.47656249999994316},{"name":"C5","midi":72,"time":278.51302083333275,"velocity":0.8031496062992126,"duration":0.23567708333331439},{"name":"D5","midi":74,"time":278.7539062499994,"velocity":0.8031496062992126,"duration":0.23567708333331439},{"name":"A#3","midi":58,"time":278.9934895833327,"velocity":0.8031496062992126,"duration":0.47656249999994316},{"name":"G4","midi":67,"time":278.9934895833327,"velocity":0.8031496062992126,"duration":0.23567708333331439},{"name":"A#4","midi":70,"time":279.2343749999993,"velocity":0.8031496062992126,"duration":0.23567708333331439},{"name":"G3","midi":55,"time":279.47526041666595,"velocity":0.8031496062992126,"duration":0.47656249999994316},{"name":"D5","midi":74,"time":279.47526041666595,"velocity":0.8031496062992126,"duration":0.23567708333331439},{"name":"D#5","midi":75,"time":279.7161458333326,"velocity":0.8031496062992126,"duration":0.23567708333331439},{"name":"F#3","midi":54,"time":279.9557291666659,"velocity":0.8031496062992126,"duration":0.47656249999994316},{"name":"A4","midi":69,"time":279.9557291666659,"velocity":0.8031496062992126,"duration":0.23567708333331439},{"name":"C5","midi":72,"time":280.1966145833325,"velocity":0.8031496062992126,"duration":0.23567708333331439},{"name":"C3","midi":48,"time":280.43749999999915,"velocity":0.8031496062992126,"duration":0.47656249999994316},{"name":"A3","midi":57,"time":280.43749999999915,"velocity":0.8031496062992126,"duration":0.47656249999994316},{"name":"D5","midi":74,"time":280.43749999999915,"velocity":0.8031496062992126,"duration":0.23567708333331439},{"name":"F#5","midi":78,"time":280.67708333333246,"velocity":0.8031496062992126,"duration":0.23567708333331439},{"name":"A#2","midi":46,"time":280.9179687499991,"velocity":0.8031496062992126,"duration":0.47656249999994316},{"name":"D3","midi":50,"time":280.9179687499991,"velocity":0.8031496062992126,"duration":1.4401041666664582},{"name":"A#4","midi":70,"time":280.9179687499991,"velocity":0.8031496062992126,"duration":0.23567708333331439},{"name":"D5","midi":74,"time":281.1588541666657,"velocity":0.8031496062992126,"duration":0.23567708333331439},{"name":"G2","midi":43,"time":281.39843749999903,"velocity":0.8031496062992126,"duration":0.47656249999994316},{"name":"F#5","midi":78,"time":281.39843749999903,"velocity":0.8031496062992126,"duration":0.23567708333331439},{"name":"G5","midi":79,"time":281.63932291666566,"velocity":0.8031496062992126,"duration":0.23567708333331439},{"name":"D2","midi":38,"time":281.8802083333323,"velocity":0.8031496062992126,"duration":0.47656249999994316},{"name":"A5","midi":81,"time":281.8802083333323,"velocity":0.8031496062992126,"duration":0.23567708333331439},{"name":"G5","midi":79,"time":282.1197916666656,"velocity":0.8031496062992126,"duration":0.23567708333331439},{"name":"D4","midi":62,"time":282.36067708333223,"velocity":0.8031496062992126,"duration":0.7161458333332575},{"name":"F#5","midi":78,"time":282.36067708333223,"velocity":0.8031496062992126,"duration":0.23567708333331439},{"name":"E5","midi":76,"time":282.60156249999886,"velocity":0.8031496062992126,"duration":0.23567708333331439},{"name":"D5","midi":74,"time":282.8411458333322,"velocity":0.8031496062992126,"duration":0.23567708333331439},{"name":"C4","midi":60,"time":283.0820312499988,"velocity":0.8031496062992126,"duration":0.23567708333331439},{"name":"D#5","midi":75,"time":283.0820312499988,"velocity":0.8031496062992126,"duration":0.23567708333331439},{"name":"B3","midi":59,"time":283.32291666666544,"velocity":0.8031496062992126,"duration":0.23567708333337123},{"name":"F5","midi":77,"time":283.32291666666544,"velocity":0.8031496062992126,"duration":0.11588541666668561},{"name":"D#5","midi":75,"time":283.4427083333321,"velocity":0.8031496062992126,"duration":0.11588541666668561},{"name":"A3","midi":57,"time":283.5624999999988,"velocity":0.8031496062992126,"duration":0.23567708333331439},{"name":"D5","midi":74,"time":283.5624999999988,"velocity":0.8031496062992126,"duration":0.11588541666668561},{"name":"D#5","midi":75,"time":283.6835937499988,"velocity":0.8031496062992126,"duration":0.11588541666662877},{"name":"G3","midi":55,"time":283.80338541666544,"velocity":0.8031496062992126,"duration":0.23567708333337123},{"name":"B4","midi":71,"time":283.80338541666544,"velocity":0.8031496062992126,"duration":1.201822916666572},{"name":"D5","midi":74,"time":283.9231770833321,"velocity":0.8031496062992126,"duration":1.065104166666572},{"name":"D3","midi":50,"time":284.0442708333321,"velocity":0.8031496062992126,"duration":0.23567708333331439},{"name":"F5","midi":77,"time":284.0442708333321,"velocity":0.8031496062992126,"duration":1.440104166666572},{"name":"G3","midi":55,"time":284.28385416666544,"velocity":0.8031496062992126,"duration":0.23567708333331439},{"name":"B3","midi":59,"time":284.52473958333206,"velocity":0.8031496062992126,"duration":0.23567708333331439},{"name":"D4","midi":62,"time":284.7656249999987,"velocity":0.8031496062992126,"duration":0.23567708333331439},{"name":"D#4","midi":63,"time":285.005208333332,"velocity":0.8031496062992126,"duration":0.23567708333331439},{"name":"C5","midi":72,"time":285.005208333332,"velocity":0.8031496062992126,"duration":0.23567708333331439},{"name":"D4","midi":62,"time":285.24609374999864,"velocity":0.8031496062992126,"duration":0.23567708333337123},{"name":"D5","midi":74,"time":285.24609374999864,"velocity":0.8031496062992126,"duration":0.11588541666668561},{"name":"C5","midi":72,"time":285.3658854166653,"velocity":0.8031496062992126,"duration":0.11588541666668561},{"name":"C4","midi":60,"time":285.4869791666654,"velocity":0.8031496062992126,"duration":0.23567708333337123},{"name":"B4","midi":71,"time":285.4869791666654,"velocity":0.8031496062992126,"duration":0.11588541666668561},{"name":"C5","midi":72,"time":285.60677083333206,"velocity":0.8031496062992126,"duration":0.11588541666668561},{"name":"B3","midi":59,"time":285.72786458333206,"velocity":0.8031496062992126,"duration":0.23567708333331439},{"name":"D5","midi":74,"time":285.72786458333206,"velocity":0.8031496062992126,"duration":0.23567708333331439},{"name":"C4","midi":60,"time":285.9674479166654,"velocity":0.8031496062992126,"duration":0.23567708333331439},{"name":"D#5","midi":75,"time":285.9674479166654,"velocity":0.8031496062992126,"duration":0.23567708333331439},{"name":"D4","midi":62,"time":286.208333333332,"velocity":0.8031496062992126,"duration":0.23567708333337123},{"name":"F5","midi":77,"time":286.208333333332,"velocity":0.8031496062992126,"duration":0.11588541666668561},{"name":"D#5","midi":75,"time":286.3281249999987,"velocity":0.8031496062992126,"duration":0.11588541666668561},{"name":"G#3","midi":56,"time":286.4492187499987,"velocity":0.8031496062992126,"duration":0.23567708333337123},{"name":"D5","midi":74,"time":286.4492187499987,"velocity":0.8031496062992126,"duration":0.11588541666668561},{"name":"D#5","midi":75,"time":286.5690104166654,"velocity":0.8031496062992126,"duration":0.11588541666668561},{"name":"G3","midi":55,"time":286.68880208333206,"velocity":0.8031496062992126,"duration":0.23567708333331439},{"name":"F5","midi":77,"time":286.68880208333206,"velocity":0.8031496062992126,"duration":0.23567708333331439},{"name":"F3","midi":53,"time":286.9296874999987,"velocity":0.8031496062992126,"duration":0.23567708333331439},{"name":"G#5","midi":80,"time":286.9296874999987,"velocity":0.8031496062992126,"duration":0.23567708333331439},{"name":"D#3","midi":51,"time":287.1705729166653,"velocity":0.8031496062992126,"duration":0.23567708333331439},{"name":"G5","midi":79,"time":287.1705729166653,"velocity":0.8031496062992126,"duration":0.23567708333331439},{"name":"D3","midi":50,"time":287.41015624999864,"velocity":0.8031496062992126,"duration":0.23567708333331439},{"name":"F5","midi":77,"time":287.41015624999864,"velocity":0.8031496062992126,"duration":0.23567708333331439},{"name":"C3","midi":48,"time":287.65104166666526,"velocity":0.8031496062992126,"duration":1.197916666666515},{"name":"D#5","midi":75,"time":287.65104166666526,"velocity":0.8031496062992126,"duration":0.23567708333331439},{"name":"C5","midi":72,"time":287.8919270833319,"velocity":0.8031496062992126,"duration":0.23567708333331439},{"name":"D#5","midi":75,"time":288.1315104166652,"velocity":0.8031496062992126,"duration":0.23567708333331439},{"name":"G5","midi":79,"time":288.37239583333184,"velocity":0.8031496062992126,"duration":0.23567708333331439},{"name":"C6","midi":84,"time":288.61328124999847,"velocity":0.8031496062992126,"duration":0.23567708333331439},{"name":"C3","midi":48,"time":288.8528645833318,"velocity":0.8031496062992126,"duration":0.23567708333331439},{"name":"A#5","midi":82,"time":288.8528645833318,"velocity":0.8031496062992126,"duration":0.23567708333331439},{"name":"D#3","midi":51,"time":289.0937499999984,"velocity":0.8031496062992126,"duration":0.23567708333331439},{"name":"A5","midi":81,"time":289.0937499999984,"velocity":0.8031496062992126,"duration":0.23567708333331439},{"name":"G3","midi":55,"time":289.33463541666504,"velocity":0.8031496062992126,"duration":0.23567708333331439},{"name":"G5","midi":79,"time":289.33463541666504,"velocity":0.8031496062992126,"duration":0.23567708333331439},{"name":"C4","midi":60,"time":289.57421874999835,"velocity":0.8031496062992126,"duration":0.47656249999994316},{"name":"F#5","midi":78,"time":289.57421874999835,"velocity":0.8031496062992126,"duration":0.23567708333331439},{"name":"G5","midi":79,"time":289.815104166665,"velocity":0.8031496062992126,"duration":0.23567708333331439},{"name":"D3","midi":50,"time":290.0559895833316,"velocity":0.8031496062992126,"duration":0.47656249999994316},{"name":"C3","midi":48,"time":290.0559895833316,"velocity":0.8031496062992126,"duration":0.47656249999994316},{"name":"A5","midi":81,"time":290.0559895833316,"velocity":0.8031496062992126,"duration":0.23567708333331439},{"name":"D#5","midi":75,"time":290.2955729166649,"velocity":0.8031496062992126,"duration":0.23567708333331439},{"name":"A#2","midi":46,"time":290.53645833333155,"velocity":0.8031496062992126,"duration":0.47656249999994316},{"name":"E3","midi":52,"time":290.53645833333155,"velocity":0.8031496062992126,"duration":0.47656249999994316},{"name":"D5","midi":74,"time":290.53645833333155,"velocity":0.8031496062992126,"duration":0.23567708333331439},{"name":"C5","midi":72,"time":290.7773437499982,"velocity":0.8031496062992126,"duration":0.23567708333331439},{"name":"A2","midi":45,"time":291.0169270833315,"velocity":0.8031496062992126,"duration":0.47656249999994316},{"name":"F#3","midi":54,"time":291.0169270833315,"velocity":0.8031496062992126,"duration":0.47656249999994316},{"name":"A#4","midi":70,"time":291.0169270833315,"velocity":0.8031496062992126,"duration":0.23567708333331439},{"name":"A4","midi":69,"time":291.2578124999981,"velocity":0.8031496062992126,"duration":0.23567708333331439},{"name":"G2","midi":43,"time":291.49869791666475,"velocity":0.8031496062992126,"duration":1.9531249999997726},{"name":"A#4","midi":70,"time":291.49869791666475,"velocity":0.8031496062992126,"duration":1.9205729166664582},{"name":"G3","midi":55,"time":291.74088541666475,"velocity":0.8031496062992126,"duration":0.23567708333331439},{"name":"A#3","midi":58,"time":291.9817708333314,"velocity":0.8031496062992126,"duration":0.23567708333331439},{"name":"D4","midi":62,"time":292.2213541666647,"velocity":0.8031496062992126,"duration":0.23567708333331439},{"name":"G4","midi":67,"time":292.4622395833313,"velocity":0.8031496062992126,"duration":0.23567708333331439},{"name":"F4","midi":65,"time":292.70312499999795,"velocity":0.8031496062992126,"duration":0.23567708333331439},{"name":"D#4","midi":63,"time":292.9440104166646,"velocity":0.8031496062992126,"duration":0.23567708333331439},{"name":"D4","midi":62,"time":293.1835937499979,"velocity":0.8031496062992126,"duration":0.23567708333331439},{"name":"C#4","midi":61,"time":293.4244791666645,"velocity":0.8031496062992126,"duration":0.23567708333331439},{"name":"A4","midi":69,"time":293.4244791666645,"velocity":0.8031496062992126,"duration":2.1588541666664014},{"name":"D4","midi":62,"time":293.66536458333115,"velocity":0.8031496062992126,"duration":0.23567708333331439},{"name":"E4","midi":64,"time":293.90494791666447,"velocity":0.8031496062992126,"duration":0.23567708333331439},{"name":"A#3","midi":58,"time":294.1458333333311,"velocity":0.8031496062992126,"duration":0.23567708333331439},{"name":"A3","midi":57,"time":294.3867187499977,"velocity":0.8031496062992126,"duration":0.23567708333331439},{"name":"G3","midi":55,"time":294.62630208333104,"velocity":0.8031496062992126,"duration":0.23567708333331439},{"name":"F3","midi":53,"time":294.86718749999767,"velocity":0.8031496062992126,"duration":0.23567708333331439},{"name":"E3","midi":52,"time":295.1080729166643,"velocity":0.8031496062992126,"duration":0.23567708333331439},{"name":"F2","midi":41,"time":295.3476562499976,"velocity":0.8031496062992126,"duration":1.201822916666515},{"name":"D3","midi":50,"time":295.3476562499976,"velocity":0.8031496062992126,"duration":1.201822916666515},{"name":"D4","midi":62,"time":295.58854166666424,"velocity":0.8031496062992126,"duration":0.23567708333331439},{"name":"F4","midi":65,"time":295.82942708333087,"velocity":0.8031496062992126,"duration":0.23567708333331439},{"name":"A4","midi":69,"time":296.0690104166642,"velocity":0.8031496062992126,"duration":0.23567708333331439},{"name":"D5","midi":74,"time":296.3098958333308,"velocity":0.8031496062992126,"duration":0.23567708333331439},{"name":"F5","midi":77,"time":296.55078124999744,"velocity":0.8031496062992126,"duration":0.23567708333331439},{"name":"A3","midi":57,"time":296.79036458333076,"velocity":0.8031496062992126,"duration":0.47656249999994316},{"name":"F3","midi":53,"time":296.79036458333076,"velocity":0.8031496062992126,"duration":0.47656249999994316},{"name":"E5","midi":76,"time":296.79036458333076,"velocity":0.8031496062992126,"duration":0.23567708333331439},{"name":"D5","midi":74,"time":297.0312499999974,"velocity":0.8031496062992126,"duration":0.23567708333331439},{"name":"G3","midi":55,"time":297.272135416664,"velocity":0.8031496062992126,"duration":0.9531249999998863},{"name":"E3","midi":52,"time":297.272135416664,"velocity":0.8031496062992126,"duration":0.47656249999994316},{"name":"C#5","midi":73,"time":297.272135416664,"velocity":0.8031496062992126,"duration":0.23567708333331439},{"name":"D5","midi":74,"time":297.5117187499973,"velocity":0.8031496062992126,"duration":0.23567708333331439},{"name":"D3","midi":50,"time":297.75260416666396,"velocity":0.8031496062992126,"duration":0.47656249999994316},{"name":"E5","midi":76,"time":297.75260416666396,"velocity":0.8031496062992126,"duration":0.23567708333331439},{"name":"A#4","midi":70,"time":297.9934895833306,"velocity":0.8031496062992126,"duration":0.23567708333331439},{"name":"C#3","midi":49,"time":298.2330729166639,"velocity":0.8031496062992126,"duration":0.47656249999994316},{"name":"E3","midi":52,"time":298.2330729166639,"velocity":0.8031496062992126,"duration":0.9531249999998863},{"name":"A4","midi":69,"time":298.2330729166639,"velocity":0.8031496062992126,"duration":0.23567708333331439},{"name":"G4","midi":67,"time":298.47395833333053,"velocity":0.8031496062992126,"duration":0.23567708333331439},{"name":"A2","midi":45,"time":298.71484374999716,"velocity":0.8031496062992126,"duration":0.47656249999994316},{"name":"F4","midi":65,"time":298.71484374999716,"velocity":0.8031496062992126,"duration":0.23567708333331439},{"name":"E4","midi":64,"time":298.9557291666638,"velocity":0.8031496062992126,"duration":0.23567708333331439},{"name":"D3","midi":50,"time":299.1953124999971,"velocity":0.8031496062992126,"duration":0.47656249999994316},{"name":"F#4","midi":66,"time":299.1953124999971,"velocity":0.8031496062992126,"duration":0.23567708333331439},{"name":"G4","midi":67,"time":299.43619791666373,"velocity":0.8031496062992126,"duration":0.23567708333331439},{"name":"C3","midi":48,"time":299.67708333333036,"velocity":0.8031496062992126,"duration":0.47656249999994316},{"name":"A4","midi":69,"time":299.67708333333036,"velocity":0.8031496062992126,"duration":0.23567708333331439},{"name":"D#4","midi":63,"time":299.9166666666637,"velocity":0.8031496062992126,"duration":0.23567708333331439},{"name":"A#2","midi":46,"time":300.1575520833303,"velocity":0.8031496062992126,"duration":0.47656249999994316},{"name":"D4","midi":62,"time":300.1575520833303,"velocity":0.8031496062992126,"duration":0.23567708333331439},{"name":"C4","midi":60,"time":300.39843749999693,"velocity":0.8031496062992126,"duration":0.23567708333331439},{"name":"A2","midi":45,"time":300.63802083333024,"velocity":0.8031496062992126,"duration":0.47656249999994316},{"name":"A#3","midi":58,"time":300.63802083333024,"velocity":0.8031496062992126,"duration":0.23567708333331439},{"name":"A3","midi":57,"time":300.8789062499969,"velocity":0.8031496062992126,"duration":0.23567708333331439},{"name":"G2","midi":43,"time":301.1197916666635,"velocity":0.8031496062992126,"duration":0.47656249999994316},{"name":"A#3","midi":58,"time":301.1197916666635,"velocity":0.8031496062992126,"duration":0.23567708333331439},{"name":"C4","midi":60,"time":301.3593749999968,"velocity":0.8031496062992126,"duration":0.23567708333331439},{"name":"D4","midi":62,"time":301.60026041666345,"velocity":0.8031496062992126,"duration":0.23567708333331439},{"name":"F2","midi":41,"time":301.60026041666345,"velocity":0.8031496062992126,"duration":0.47656249999994316},{"name":"G#3","midi":56,"time":301.8411458333301,"velocity":0.8031496062992126,"duration":0.23567708333331439},{"name":"G3","midi":55,"time":302.0807291666634,"velocity":0.8031496062992126,"duration":0.23567708333331439},{"name":"D#2","midi":39,"time":302.0807291666634,"velocity":0.8031496062992126,"duration":0.47656249999994316},{"name":"F3","midi":53,"time":302.32161458333,"velocity":0.8031496062992126,"duration":0.23567708333331439},{"name":"D#3","midi":51,"time":302.56249999999665,"velocity":0.8031496062992126,"duration":0.23567708333331439},{"name":"D2","midi":38,"time":302.56249999999665,"velocity":0.8031496062992126,"duration":0.47656249999994316},{"name":"D3","midi":50,"time":302.80208333332996,"velocity":0.8031496062992126,"duration":0.23567708333331439},{"name":"E2","midi":40,"time":303.0429687499966,"velocity":0.8031496062992126,"duration":0.7018229166666288},{"name":"C#3","midi":49,"time":303.0429687499966,"velocity":0.8031496062992126,"duration":0.23567708333331439},{"name":"D3","midi":50,"time":303.2838541666632,"velocity":0.8031496062992126,"duration":0.23567708333331439},{"name":"E3","midi":52,"time":303.52343749999653,"velocity":0.8031496062992126,"duration":0.23567708333337123},{"name":"A#2","midi":46,"time":303.7643229166632,"velocity":0.8031496062992126,"duration":0.23567708333331439},{"name":"A2","midi":45,"time":304.00520833332985,"velocity":0.8031496062992126,"duration":0.23567708333331439},{"name":"G2","midi":43,"time":304.24479166666316,"velocity":0.8031496062992126,"duration":0.23567708333331439},{"name":"F2","midi":41,"time":304.4856770833298,"velocity":0.8031496062992126,"duration":0.23567708333331439},{"name":"D5","midi":74,"time":304.4856770833298,"velocity":0.8031496062992126,"duration":0.11588541666668561},{"name":"C#5","midi":73,"time":304.6067708333298,"velocity":0.8031496062992126,"duration":0.11588541666662877},{"name":"E2","midi":40,"time":304.7265624999964,"velocity":0.8031496062992126,"duration":0.23567708333337123},{"name":"B4","midi":71,"time":304.7265624999964,"velocity":0.8031496062992126,"duration":0.11588541666668561},{"name":"C#5","midi":73,"time":304.8463541666631,"velocity":0.8031496062992126,"duration":0.11588541666668561},{"name":"F2","midi":41,"time":304.9674479166631,"velocity":0.8031496062992126,"duration":0.4778645833333144},{"name":"D5","midi":74,"time":304.9674479166631,"velocity":0.8031496062992126,"duration":0.9544270833332575},{"name":"E5","midi":76,"time":305.2096354166631,"velocity":0.8031496062992126,"duration":0.23567708333331439},{"name":"G2","midi":43,"time":305.45052083332973,"velocity":0.8031496062992126,"duration":0.47656249999994316},{"name":"F5","midi":77,"time":305.45052083332973,"velocity":0.8031496062992126,"duration":0.23567708333331439},{"name":"A#5","midi":82,"time":305.69010416666305,"velocity":0.8031496062992126,"duration":0.23567708333331439},{"name":"A2","midi":45,"time":305.9309895833297,"velocity":0.8031496062992126,"duration":0.4765625},{"name":"C#5","midi":73,"time":305.9309895833297,"velocity":0.8031496062992126,"duration":0.953125},{"name":"F5","midi":77,"time":305.9309895833297,"velocity":0.8031496062992126,"duration":0.20833333333331439},{"name":"E5","midi":76,"time":306.154947916663,"velocity":0.8031496062992126,"duration":0.11588541666662877},{"name":"F5","midi":77,"time":306.2499999999963,"velocity":0.8031496062992126,"duration":0.11588541666668561},{"name":"E5","midi":76,"time":306.3437499999963,"velocity":0.8031496062992126,"duration":0.11588541666674246},{"name":"A2","midi":45,"time":306.4114583333297,"velocity":0.8031496062992126,"duration":0.4765625},{"name":"F5","midi":77,"time":306.43749999999636,"velocity":0.8031496062992126,"duration":0.11588541666668561},{"name":"E5","midi":76,"time":306.53255208332973,"velocity":0.8031496062992126,"duration":0.11588541666662877},{"name":"D5","midi":74,"time":306.65234374999636,"velocity":0.8031496062992126,"duration":0.23567708333331439},{"name":"D2","midi":38,"time":306.893229166663,"velocity":0.8031496062992126,"duration":0.9531249999998863},{"name":"D5","midi":74,"time":306.893229166663,"velocity":0.8031496062992126,"duration":0.23567708333331439},{"name":"C5","midi":72,"time":307.1328124999963,"velocity":0.8031496062992126,"duration":0.23567708333331439},{"name":"A#4","midi":70,"time":307.37369791666293,"velocity":0.8031496062992126,"duration":0.23567708333331439},{"name":"A4","midi":69,"time":307.61458333332956,"velocity":0.8031496062992126,"duration":0.23567708333331439},{"name":"G4","midi":67,"time":307.8541666666629,"velocity":0.8031496062992126,"duration":0.9570312499999432},{"name":"A4","midi":69,"time":308.0976562499962,"velocity":0.8031496062992126,"duration":0.23567708333331439},{"name":"A#4","midi":70,"time":308.3372395833295,"velocity":0.8031496062992126,"duration":0.4778645833333144},{"name":"C#4","midi":61,"time":308.5807291666628,"velocity":0.8031496062992126,"duration":0.23567708333331439},{"name":"D4","midi":62,"time":308.82031249999613,"velocity":0.8031496062992126,"duration":1.4427083333332575},{"name":"F#4","midi":66,"time":308.82031249999613,"velocity":0.8031496062992126,"duration":1.4427083333332575},{"name":"A4","midi":69,"time":308.94140624999613,"velocity":0.8031496062992126,"duration":1.4427083333332575},{"name":"F#3","midi":54,"time":309.0611979166628,"velocity":0.8031496062992126,"duration":0.23567708333331439},{"name":"D5","midi":74,"time":309.0611979166628,"velocity":0.8031496062992126,"duration":1.440104166666572},{"name":"G3","midi":55,"time":309.30208333332945,"velocity":0.8031496062992126,"duration":0.23567708333331439},{"name":"A3","midi":57,"time":309.54166666666276,"velocity":0.8031496062992126,"duration":0.23567708333331439},{"name":"D3","midi":50,"time":309.7825520833294,"velocity":0.8031496062992126,"duration":0.9596354166666288},{"name":"A4","midi":69,"time":310.5065104166627,"velocity":0.8031496062992126,"duration":0.23567708333331439},{"name":"D3","midi":50,"time":310.746093749996,"velocity":0.8031496062992126,"duration":1.197916666666515},{"name":"A4","midi":69,"time":310.746093749996,"velocity":0.8031496062992126,"duration":0.23567708333331439},{"name":"A5","midi":81,"time":310.98697916666265,"velocity":0.8031496062992126,"duration":0.23567708333331439},{"name":"F#5","midi":78,"time":311.2278645833293,"velocity":0.8031496062992126,"duration":0.23567708333331439},{"name":"D5","midi":74,"time":311.4674479166626,"velocity":0.8031496062992126,"duration":0.23567708333331439},{"name":"A4","midi":69,"time":311.7083333333292,"velocity":0.8031496062992126,"duration":0.23567708333331439},{"name":"A3","midi":57,"time":311.94921874999585,"velocity":0.8031496062992126,"duration":0.23567708333331439},{"name":"F#4","midi":66,"time":311.94921874999585,"velocity":0.8031496062992126,"duration":0.23567708333331439},{"name":"A#3","midi":58,"time":312.18880208332916,"velocity":0.8031496062992126,"duration":0.23567708333331439},{"name":"G4","midi":67,"time":312.18880208332916,"velocity":0.8031496062992126,"duration":0.23567708333331439},{"name":"C4","midi":60,"time":312.4296874999958,"velocity":0.8031496062992126,"duration":0.23567708333331439},{"name":"A4","midi":69,"time":312.4296874999958,"velocity":0.8031496062992126,"duration":0.23567708333331439},{"name":"F3","midi":53,"time":312.6705729166624,"velocity":0.8031496062992126,"duration":0.47656249999994316},{"name":"B4","midi":71,"time":312.6705729166624,"velocity":0.8031496062992126,"duration":0.23567708333331439},{"name":"A4","midi":69,"time":312.91015624999574,"velocity":0.8031496062992126,"duration":0.23567708333331439},{"name":"D#3","midi":51,"time":313.15104166666237,"velocity":0.8031496062992126,"duration":0.47656249999994316},{"name":"C4","midi":60,"time":313.15104166666237,"velocity":0.8031496062992126,"duration":0.9531249999998863},{"name":"G4","midi":67,"time":313.15104166666237,"velocity":0.8031496062992126,"duration":0.23567708333331439},{"name":"C5","midi":72,"time":313.391927083329,"velocity":0.8031496062992126,"duration":0.23567708333331439},{"name":"F3","midi":53,"time":313.6315104166623,"velocity":0.8031496062992126,"duration":0.47656249999994316},{"name":"D5","midi":74,"time":313.6315104166623,"velocity":0.8031496062992126,"duration":0.23567708333331439},{"name":"D#5","midi":75,"time":313.87239583332894,"velocity":0.8031496062992126,"duration":0.23567708333331439},{"name":"G3","midi":55,"time":314.11328124999557,"velocity":0.8031496062992126,"duration":0.47656249999994316},{"name":"B3","midi":59,"time":314.11328124999557,"velocity":0.8031496062992126,"duration":0.47656249999994316},{"name":"F5","midi":77,"time":314.11328124999557,"velocity":0.8031496062992126,"duration":0.23567708333331439},{"name":"G5","midi":79,"time":314.3541666666622,"velocity":0.8031496062992126,"duration":0.23567708333331439},{"name":"C3","midi":48,"time":314.5937499999955,"velocity":0.8031496062992126,"duration":0.47656250000005684},{"name":"F5","midi":77,"time":314.5937499999955,"velocity":0.8031496062992126,"duration":0.09765625},{"name":"D#5","midi":75,"time":314.6822916666622,"velocity":0.8031496062992126,"duration":0.09765625},{"name":"F5","midi":77,"time":314.7695312499955,"velocity":0.8031496062992126,"duration":0.09765625000005684},{"name":"C4","midi":60,"time":314.8346354166622,"velocity":0.8031496062992126,"duration":0.23567708333337123},{"name":"D#5","midi":75,"time":314.8567708333289,"velocity":0.8031496062992126,"duration":0.23828125},{"name":"G3","midi":55,"time":315.0755208333289,"velocity":0.8031496062992126,"duration":0.23567708333331439},{"name":"D5","midi":74,"time":315.0755208333289,"velocity":0.8031496062992126,"duration":0.23567708333331439},{"name":"D#3","midi":51,"time":315.3151041666622,"velocity":0.8031496062992126,"duration":0.23567708333331439},{"name":"C5","midi":72,"time":315.3151041666622,"velocity":0.8031496062992126,"duration":0.23567708333331439},{"name":"C3","midi":48,"time":315.5559895833288,"velocity":0.8031496062992126,"duration":0.23567708333337123},{"name":"G5","midi":79,"time":315.5559895833288,"velocity":0.8031496062992126,"duration":0.11588541666668561},{"name":"F5","midi":77,"time":315.6757812499955,"velocity":0.8031496062992126,"duration":0.11588541666668561},{"name":"B2","midi":47,"time":315.7968749999955,"velocity":0.8031496062992126,"duration":0.23567708333331439},{"name":"G5","midi":79,"time":315.7968749999955,"velocity":0.8031496062992126,"duration":0.47656249999994316},{"name":"C3","midi":48,"time":316.0364583333288,"velocity":0.8031496062992126,"duration":0.23567708333331439},{"name":"D3","midi":50,"time":316.27734374999545,"velocity":0.8031496062992126,"duration":0.23567708333331439},{"name":"G5","midi":79,"time":316.27734374999545,"velocity":0.8031496062992126,"duration":0.23567708333331439},{"name":"E3","midi":52,"time":316.5182291666621,"velocity":0.8031496062992126,"duration":0.23567708333331439},{"name":"G5","midi":79,"time":316.5182291666621,"velocity":0.8031496062992126,"duration":0.23567708333331439},{"name":"D3","midi":50,"time":316.7578124999954,"velocity":0.8031496062992126,"duration":0.23567708333331439},{"name":"A#4","midi":70,"time":316.7578124999954,"velocity":0.8031496062992126,"duration":0.23567708333331439},{"name":"C3","midi":48,"time":316.998697916662,"velocity":0.8031496062992126,"duration":0.23567708333331439},{"name":"A4","midi":69,"time":316.998697916662,"velocity":0.8031496062992126,"duration":0.23567708333331439},{"name":"F3","midi":53,"time":317.23958333332865,"velocity":0.8031496062992126,"duration":0.23567708333331439},{"name":"C5","midi":72,"time":317.23958333332865,"velocity":0.8031496062992126,"duration":0.23567708333331439},{"name":"G3","midi":55,"time":317.47916666666197,"velocity":0.8031496062992126,"duration":0.23567708333331439},{"name":"A#4","midi":70,"time":317.47916666666197,"velocity":0.8031496062992126,"duration":0.23567708333331439},{"name":"A3","midi":57,"time":317.7200520833286,"velocity":0.8031496062992126,"duration":0.23567708333331439},{"name":"A4","midi":69,"time":317.7200520833286,"velocity":0.8031496062992126,"duration":0.23567708333331439},{"name":"A#3","midi":58,"time":317.9609374999952,"velocity":0.8031496062992126,"duration":0.23567708333331439},{"name":"G4","midi":67,"time":317.9609374999952,"velocity":0.8031496062992126,"duration":0.23567708333331439},{"name":"C4","midi":60,"time":318.20052083332854,"velocity":0.8031496062992126,"duration":0.23567708333331439},{"name":"E5","midi":76,"time":318.20052083332854,"velocity":0.8031496062992126,"duration":0.23567708333331439},{"name":"A3","midi":57,"time":318.44140624999517,"velocity":0.8031496062992126,"duration":0.23567708333331439},{"name":"E5","midi":76,"time":318.44140624999517,"velocity":0.8031496062992126,"duration":0.23567708333331439},{"name":"F5","midi":77,"time":318.6692708333285,"velocity":0.8031496062992126,"duration":0.11588541666662877},{"name":"G3","midi":55,"time":318.6822916666618,"velocity":0.8031496062992126,"duration":0.23567708333331439},{"name":"E5","midi":76,"time":318.7565104166618,"velocity":0.8031496062992126,"duration":0.11588541666662877},{"name":"F5","midi":77,"time":318.8437499999951,"velocity":0.8031496062992126,"duration":0.3125},{"name":"F3","midi":53,"time":318.9218749999951,"velocity":0.8031496062992126,"duration":0.4765625},{"name":"D#5","midi":75,"time":319.1627604166618,"velocity":0.8031496062992126,"duration":0.23567708333331439},{"name":"A#3","midi":58,"time":319.4036458333284,"velocity":0.8031496062992126,"duration":0.47656249999994316},{"name":"D5","midi":74,"time":319.4036458333284,"velocity":0.8031496062992126,"duration":0.23567708333331439},{"name":"C5","midi":72,"time":319.64322916666174,"velocity":0.8031496062992126,"duration":0.23567708333331439},{"name":"D3","midi":50,"time":319.88411458332837,"velocity":0.8031496062992126,"duration":0.47656249999994316},{"name":"A#4","midi":70,"time":319.88411458332837,"velocity":0.8031496062992126,"duration":0.23567708333331439},{"name":"A4","midi":69,"time":320.124999999995,"velocity":0.8031496062992126,"duration":0.23567708333331439},{"name":"D#3","midi":51,"time":320.3658854166616,"velocity":0.8031496062992126,"duration":0.47656249999994316},{"name":"G4","midi":67,"time":320.3658854166616,"velocity":0.8031496062992126,"duration":0.23567708333331439},{"name":"F4","midi":65,"time":320.60546874999494,"velocity":0.8031496062992126,"duration":0.23567708333331439},{"name":"D#2","midi":39,"time":320.84635416666157,"velocity":0.8031496062992126,"duration":0.47656249999994316},{"name":"G4","midi":67,"time":320.84635416666157,"velocity":0.8031496062992126,"duration":0.23567708333331439},{"name":"A#4","midi":70,"time":321.0872395833282,"velocity":0.8031496062992126,"duration":0.23567708333331439},{"name":"D#3","midi":51,"time":321.3268229166615,"velocity":0.8031496062992126,"duration":0.47656249999994316},{"name":"C5","midi":72,"time":321.3268229166615,"velocity":0.8031496062992126,"duration":0.23567708333331439},{"name":"D5","midi":74,"time":321.56770833332814,"velocity":0.8031496062992126,"duration":0.23567708333331439},{"name":"C3","midi":48,"time":321.80859374999477,"velocity":0.8031496062992126,"duration":0.47656249999994316},{"name":"D#5","midi":75,"time":321.80859374999477,"velocity":0.8031496062992126,"duration":0.23567708333331439},{"name":"C5","midi":72,"time":322.0481770833281,"velocity":0.8031496062992126,"duration":0.23567708333331439},{"name":"F3","midi":53,"time":322.2890624999947,"velocity":0.8031496062992126,"duration":0.23567708333331439},{"name":"A#4","midi":70,"time":322.2890624999947,"velocity":0.8031496062992126,"duration":0.23567708333331439},{"name":"F2","midi":41,"time":322.52994791666134,"velocity":0.8031496062992126,"duration":0.23567708333331439},{"name":"A4","midi":69,"time":322.52994791666134,"velocity":0.8031496062992126,"duration":0.23567708333331439},{"name":"A2","midi":45,"time":322.76953124999466,"velocity":0.8031496062992126,"duration":0.23567708333331439},{"name":"G4","midi":67,"time":322.76953124999466,"velocity":0.8031496062992126,"duration":0.23567708333331439},{"name":"C3","midi":48,"time":323.0104166666613,"velocity":0.8031496062992126,"duration":0.23567708333331439},{"name":"F4","midi":65,"time":323.0104166666613,"velocity":0.8031496062992126,"duration":0.23567708333331439},{"name":"D#3","midi":51,"time":323.2513020833279,"velocity":0.8031496062992126,"duration":0.23567708333331439},{"name":"F5","midi":77,"time":323.2513020833279,"velocity":0.8031496062992126,"duration":0.7161458333332575},{"name":"G3","midi":55,"time":323.49088541666123,"velocity":0.8031496062992126,"duration":0.23567708333331439},{"name":"F3","midi":53,"time":323.73177083332786,"velocity":0.8031496062992126,"duration":0.23567708333331439},{"name":"D#3","midi":51,"time":323.9726562499945,"velocity":0.8031496062992126,"duration":0.23567708333331439},{"name":"A4","midi":69,"time":323.9726562499945,"velocity":0.8031496062992126,"duration":0.23567708333331439},{"name":"D3","midi":50,"time":324.2122395833278,"velocity":0.8031496062992126,"duration":0.23567708333331439},{"name":"A#4","midi":70,"time":324.2122395833278,"velocity":0.8031496062992126,"duration":0.23567708333331439},{"name":"C3","midi":48,"time":324.45312499999443,"velocity":0.8031496062992126,"duration":0.23567708333331439},{"name":"D#5","midi":75,"time":324.45312499999443,"velocity":0.8031496062992126,"duration":0.23567708333331439},{"name":"A#2","midi":46,"time":324.69401041666106,"velocity":0.8031496062992126,"duration":0.23567708333331439},{"name":"D5","midi":74,"time":324.69401041666106,"velocity":0.8031496062992126,"duration":0.23567708333331439},{"name":"D#3","midi":51,"time":324.9335937499944,"velocity":0.8031496062992126,"duration":0.23567708333331439},{"name":"C5","midi":72,"time":324.9335937499944,"velocity":0.8031496062992126,"duration":0.23567708333331439},{"name":"F3","midi":53,"time":325.174479166661,"velocity":0.8031496062992126,"duration":0.47656249999994316},{"name":"D5","midi":74,"time":325.174479166661,"velocity":0.8031496062992126,"duration":0.22265625},{"name":"A4","midi":69,"time":325.174479166661,"velocity":0.8031496062992126,"duration":0.9531249999999432},{"name":"C5","midi":72,"time":325.3984374999943,"velocity":0.8031496062992126,"duration":0.09765625},{"name":"D5","midi":74,"time":325.49348958332763,"velocity":0.8031496062992126,"duration":0.09765625},{"name":"C5","midi":72,"time":325.58723958332763,"velocity":0.8031496062992126,"duration":0.09765625},{"name":"F2","midi":41,"time":325.65494791666094,"velocity":0.8031496062992126,"duration":0.4765625},{"name":"D5","midi":74,"time":325.68098958332763,"velocity":0.8031496062992126,"duration":0.09765625},{"name":"C5","midi":72,"time":325.77604166666094,"velocity":0.8031496062992126,"duration":0.11588541666668561},{"name":"A#4","midi":70,"time":325.89583333332763,"velocity":0.8031496062992126,"duration":0.23567708333331439},{"name":"A#2","midi":46,"time":326.13671874999426,"velocity":0.8031496062992126,"duration":0.23567708333331439},{"name":"A#4","midi":70,"time":326.13671874999426,"velocity":0.8031496062992126,"duration":1.197916666666515},{"name":"A#3","midi":58,"time":326.3776041666609,"velocity":0.8031496062992126,"duration":0.23567708333331439},{"name":"F3","midi":53,"time":326.6171874999942,"velocity":0.8031496062992126,"duration":0.23567708333331439},{"name":"D3","midi":50,"time":326.85807291666083,"velocity":0.8031496062992126,"duration":0.23567708333331439},{"name":"A#2","midi":46,"time":327.09895833332746,"velocity":0.8031496062992126,"duration":0.23567708333331439},{"name":"G2","midi":43,"time":327.3385416666608,"velocity":0.8031496062992126,"duration":0.23567708333331439},{"name":"D5","midi":74,"time":327.3385416666608,"velocity":0.8031496062992126,"duration":0.23567708333331439},{"name":"A2","midi":45,"time":327.5794270833274,"velocity":0.8031496062992126,"duration":0.23567708333331439},{"name":"C5","midi":72,"time":327.5794270833274,"velocity":0.8031496062992126,"duration":0.23567708333331439},{"name":"A#2","midi":46,"time":327.82031249999403,"velocity":0.8031496062992126,"duration":0.23567708333331439},{"name":"D5","midi":74,"time":327.82031249999403,"velocity":0.8031496062992126,"duration":0.23567708333331439},{"name":"C3","midi":48,"time":328.05989583332735,"velocity":0.8031496062992126,"duration":0.23567708333331439},{"name":"D#4","midi":63,"time":328.05989583332735,"velocity":0.8031496062992126,"duration":0.23567708333331439},{"name":"A#2","midi":46,"time":328.300781249994,"velocity":0.8031496062992126,"duration":0.23567708333331439},{"name":"D4","midi":62,"time":328.300781249994,"velocity":0.8031496062992126,"duration":0.23567708333331439},{"name":"A2","midi":45,"time":328.5416666666606,"velocity":0.8031496062992126,"duration":0.23567708333331439},{"name":"C4","midi":60,"time":328.5416666666606,"velocity":0.8031496062992126,"duration":0.6510416666666288},{"name":"D3","midi":50,"time":328.7812499999939,"velocity":0.8031496062992126,"duration":0.23567708333331439},{"name":"E3","midi":52,"time":329.02213541666055,"velocity":0.8031496062992126,"duration":0.23567708333337123},{"name":"F#3","midi":54,"time":329.26302083332723,"velocity":0.8031496062992126,"duration":0.23567708333331439},{"name":"A4","midi":69,"time":329.26302083332723,"velocity":0.8031496062992126,"duration":0.23567708333331439},{"name":"G3","midi":55,"time":329.50260416666055,"velocity":0.8031496062992126,"duration":0.23567708333331439},{"name":"A#4","midi":70,"time":329.50260416666055,"velocity":0.8031496062992126,"duration":0.23567708333331439},{"name":"A3","midi":57,"time":329.7434895833272,"velocity":0.8031496062992126,"duration":0.23567708333331439},{"name":"C5","midi":72,"time":329.7434895833272,"velocity":0.8031496062992126,"duration":0.23567708333331439},{"name":"D3","midi":50,"time":329.9843749999938,"velocity":0.8031496062992126,"duration":1.197916666666515},{"name":"F#4","midi":66,"time":329.9843749999938,"velocity":0.8031496062992126,"duration":0.23567708333331439},{"name":"D5","midi":74,"time":330.2239583333271,"velocity":0.8031496062992126,"duration":0.23567708333331439},{"name":"A4","midi":69,"time":330.46484374999375,"velocity":0.8031496062992126,"duration":0.23567708333331439},{"name":"F#4","midi":66,"time":330.7057291666604,"velocity":0.8031496062992126,"duration":0.23567708333331439},{"name":"D4","midi":62,"time":330.9453124999937,"velocity":0.8031496062992126,"duration":0.23567708333331439},{"name":"G3","midi":55,"time":331.1861979166603,"velocity":0.8031496062992126,"duration":0.23567708333331439},{"name":"C#4","midi":61,"time":331.1861979166603,"velocity":0.8031496062992126,"duration":0.23567708333331439},{"name":"F#3","midi":54,"time":331.42708333332695,"velocity":0.8031496062992126,"duration":0.23567708333331439},{"name":"D4","midi":62,"time":331.42708333332695,"velocity":0.8031496062992126,"duration":0.23567708333331439},{"name":"G3","midi":55,"time":331.66666666666026,"velocity":0.8031496062992126,"duration":0.23567708333331439},{"name":"E4","midi":64,"time":331.66666666666026,"velocity":0.8031496062992126,"duration":0.23567708333331439},{"name":"C3","midi":48,"time":331.9075520833269,"velocity":0.8031496062992126,"duration":0.47656249999994316},{"name":"F#4","midi":66,"time":331.9075520833269,"velocity":0.8031496062992126,"duration":0.23567708333331439},{"name":"E4","midi":64,"time":332.1484374999935,"velocity":0.8031496062992126,"duration":0.23567708333331439},{"name":"A#2","midi":46,"time":332.38932291666015,"velocity":0.8031496062992126,"duration":0.47656249999994316},{"name":"G3","midi":55,"time":332.38932291666015,"velocity":0.8031496062992126,"duration":0.9531249999998863},{"name":"D4","midi":62,"time":332.38932291666015,"velocity":0.8031496062992126,"duration":0.23567708333331439},{"name":"G4","midi":67,"time":332.62890624999346,"velocity":0.8031496062992126,"duration":0.23567708333331439},{"name":"C3","midi":48,"time":332.8697916666601,"velocity":0.8031496062992126,"duration":0.47656249999994316},{"name":"A4","midi":69,"time":332.8697916666601,"velocity":0.8031496062992126,"duration":0.23567708333331439},{"name":"A#4","midi":70,"time":333.1106770833267,"velocity":0.8031496062992126,"duration":0.23567708333331439},{"name":"F#3","midi":54,"time":333.35026041666003,"velocity":0.8031496062992126,"duration":0.47656249999994316},{"name":"D3","midi":50,"time":333.35026041666003,"velocity":0.8031496062992126,"duration":0.47656249999994316},{"name":"C5","midi":72,"time":333.35026041666003,"velocity":0.8031496062992126,"duration":0.23567708333331439},{"name":"D5","midi":74,"time":333.59114583332666,"velocity":0.8031496062992126,"duration":0.23567708333331439},{"name":"G3","midi":55,"time":333.8320312499933,"velocity":0.8031496062992126,"duration":0.47656249999994316},{"name":"A#4","midi":70,"time":333.8320312499933,"velocity":0.8031496062992126,"duration":0.23567708333331439},{"name":"G2","midi":43,"time":334.0716145833266,"velocity":0.8031496062992126,"duration":0.23567708333331439},{"name":"A4","midi":69,"time":334.0716145833266,"velocity":0.8031496062992126,"duration":0.23567708333331439},{"name":"A#2","midi":46,"time":334.31249999999324,"velocity":0.8031496062992126,"duration":0.23567708333331439},{"name":"G4","midi":67,"time":334.31249999999324,"velocity":0.8031496062992126,"duration":0.23567708333331439},{"name":"D3","midi":50,"time":334.55338541665986,"velocity":0.8031496062992126,"duration":0.23567708333331439},{"name":"A4","midi":69,"time":334.55338541665986,"velocity":0.8031496062992126,"duration":0.23567708333331439},{"name":"G3","midi":55,"time":334.7929687499932,"velocity":0.8031496062992126,"duration":0.23567708333331439},{"name":"A#4","midi":70,"time":334.7929687499932,"velocity":0.8031496062992126,"duration":0.23567708333331439},{"name":"G3","midi":55,"time":335.0338541666598,"velocity":0.8031496062992126,"duration":0.23567708333331439},{"name":"C5","midi":72,"time":335.0338541666598,"velocity":0.8031496062992126,"duration":0.23567708333331439},{"name":"F3","midi":53,"time":335.27473958332644,"velocity":0.8031496062992126,"duration":0.23567708333331439},{"name":"D5","midi":74,"time":335.27473958332644,"velocity":0.8031496062992126,"duration":0.23567708333331439},{"name":"D#3","midi":51,"time":335.51432291665975,"velocity":0.8031496062992126,"duration":0.23567708333331439},{"name":"D#5","midi":75,"time":335.51432291665975,"velocity":0.8031496062992126,"duration":0.23567708333331439},{"name":"D3","midi":50,"time":335.7552083333264,"velocity":0.8031496062992126,"duration":0.23567708333331439},{"name":"F5","midi":77,"time":335.7552083333264,"velocity":0.8031496062992126,"duration":0.47656249999994316},{"name":"D#3","midi":51,"time":335.996093749993,"velocity":0.8031496062992126,"duration":0.23567708333331439},{"name":"F3","midi":53,"time":336.2356770833263,"velocity":0.8031496062992126,"duration":0.23567708333331439},{"name":"A#4","midi":70,"time":336.2356770833263,"velocity":0.8031496062992126,"duration":0.47656249999994316},{"name":"C3","midi":48,"time":336.47656249999295,"velocity":0.8031496062992126,"duration":0.23567708333331439},{"name":"A#2","midi":46,"time":336.7174479166596,"velocity":0.8031496062992126,"duration":0.23567708333337123},{"name":"G#5","midi":80,"time":336.7174479166596,"velocity":0.8031496062992126,"duration":0.11588541666668561},{"name":"G5","midi":79,"time":336.83723958332627,"velocity":0.8031496062992126,"duration":0.11588541666668561},{"name":"G#2","midi":44,"time":336.95703124999295,"velocity":0.8031496062992126,"duration":0.23567708333331439},{"name":"G#5","midi":80,"time":336.95703124999295,"velocity":0.8031496062992126,"duration":0.47656249999994316},{"name":"G2","midi":43,"time":337.1979166666596,"velocity":0.8031496062992126,"duration":0.23567708333331439},{"name":"F2","midi":41,"time":337.4388020833262,"velocity":0.8031496062992126,"duration":0.23567708333331439},{"name":"A#5","midi":82,"time":337.4388020833262,"velocity":0.8031496062992126,"duration":0.23567708333331439},{"name":"D#2","midi":39,"time":337.6783854166595,"velocity":0.8031496062992126,"duration":0.9596354166665719},{"name":"G5","midi":79,"time":337.6783854166595,"velocity":0.8031496062992126,"duration":1.923177083333087},{"name":"F5","midi":77,"time":337.92187499999284,"velocity":0.8031496062992126,"duration":0.23567708333331439},{"name":"D#5","midi":75,"time":338.16145833332615,"velocity":0.8031496062992126,"duration":0.23567708333331439},{"name":"D5","midi":74,"time":338.4023437499928,"velocity":0.8031496062992126,"duration":0.23567708333331439},{"name":"D#3","midi":51,"time":338.6432291666594,"velocity":0.8031496062992126,"duration":1.197916666666515},{"name":"C5","midi":72,"time":338.6432291666594,"velocity":0.8031496062992126,"duration":0.23567708333331439},{"name":"D5","midi":74,"time":338.88411458332604,"velocity":0.8031496062992126,"duration":0.23567708333331439},{"name":"D#5","midi":75,"time":339.12369791665935,"velocity":0.8031496062992126,"duration":0.23567708333331439},{"name":"A#4","midi":70,"time":339.364583333326,"velocity":0.8031496062992126,"duration":0.23567708333331439},{"name":"F5","midi":77,"time":339.6054687499926,"velocity":0.8031496062992126,"duration":1.201822916666515},{"name":"A4","midi":69,"time":339.6054687499926,"velocity":0.8031496062992126,"duration":0.9570312499998863},{"name":"G4","midi":67,"time":339.8450520833259,"velocity":0.8031496062992126,"duration":0.23567708333331439},{"name":"F4","midi":65,"time":340.08593749999255,"velocity":0.8031496062992126,"duration":0.23567708333331439},{"name":"D#4","midi":63,"time":340.3268229166592,"velocity":0.8031496062992126,"duration":0.23567708333331439},{"name":"D4","midi":62,"time":340.5664062499925,"velocity":0.8031496062992126,"duration":0.23567708333331439},{"name":"G#4","midi":68,"time":340.5664062499925,"velocity":0.8031496062992126,"duration":1.201822916666515},{"name":"D#4","midi":63,"time":340.8072916666591,"velocity":0.8031496062992126,"duration":0.23567708333331439},{"name":"D#5","midi":75,"time":340.8072916666591,"velocity":0.8031496062992126,"duration":0.23567708333331439},{"name":"F4","midi":65,"time":341.04817708332575,"velocity":0.8031496062992126,"duration":0.23567708333331439},{"name":"D5","midi":74,"time":341.04817708332575,"velocity":0.8031496062992126,"duration":0.23567708333331439},{"name":"G#3","midi":56,"time":341.28776041665907,"velocity":0.8031496062992126,"duration":0.23567708333331439},{"name":"C5","midi":72,"time":341.28776041665907,"velocity":0.8031496062992126,"duration":0.23567708333331439},{"name":"G3","midi":55,"time":341.5286458333257,"velocity":0.8031496062992126,"duration":0.23567708333331439},{"name":"B4","midi":71,"time":341.5286458333257,"velocity":0.8031496062992126,"duration":0.23567708333331439},{"name":"F3","midi":53,"time":341.7695312499923,"velocity":0.8031496062992126,"duration":0.23567708333331439},{"name":"A4","midi":69,"time":341.7695312499923,"velocity":0.8031496062992126,"duration":0.23567708333331439},{"name":"D#3","midi":51,"time":342.00911458332564,"velocity":0.8031496062992126,"duration":0.23567708333331439},{"name":"G4","midi":67,"time":342.00911458332564,"velocity":0.8031496062992126,"duration":1.440104166666515},{"name":"D3","midi":50,"time":342.24999999999227,"velocity":0.8031496062992126,"duration":0.23567708333331439},{"name":"C3","midi":48,"time":342.4908854166589,"velocity":0.8031496062992126,"duration":0.23567708333337123},{"name":"D#5","midi":75,"time":342.4908854166589,"velocity":0.8031496062992126,"duration":0.11588541666668561},{"name":"D5","midi":74,"time":342.6106770833256,"velocity":0.8031496062992126,"duration":0.11588541666668561},{"name":"D3","midi":50,"time":342.73046874999227,"velocity":0.8031496062992126,"duration":0.23567708333331439},{"name":"D#5","midi":75,"time":342.73046874999227,"velocity":0.8031496062992126,"duration":0.47656249999994316},{"name":"D#3","midi":51,"time":342.9713541666589,"velocity":0.8031496062992126,"duration":0.23567708333331439},{"name":"G2","midi":43,"time":343.2122395833255,"velocity":0.8031496062992126,"duration":0.23567708333331439},{"name":"D#5","midi":75,"time":343.2122395833255,"velocity":0.8031496062992126,"duration":0.23567708333331439},{"name":"F#2","midi":42,"time":343.45182291665884,"velocity":0.8031496062992126,"duration":0.47656249999994316},{"name":"D#5","midi":75,"time":343.45182291665884,"velocity":0.8031496062992126,"duration":0.23567708333331439},{"name":"A4","midi":69,"time":343.45182291665884,"velocity":0.8031496062992126,"duration":0.47656249999994316},{"name":"D5","midi":74,"time":343.69270833332547,"velocity":0.8031496062992126,"duration":0.23567708333331439},{"name":"G2","midi":43,"time":343.9335937499921,"velocity":0.8031496062992126,"duration":0.47656249999994316},{"name":"C5","midi":72,"time":343.9335937499921,"velocity":0.8031496062992126,"duration":0.23567708333331439},{"name":"A#4","midi":70,"time":344.1731770833254,"velocity":0.8031496062992126,"duration":0.23567708333331439},{"name":"C3","midi":48,"time":344.41406249999204,"velocity":0.8031496062992126,"duration":0.47656249999994316},{"name":"A4","midi":69,"time":344.41406249999204,"velocity":0.8031496062992126,"duration":0.23567708333331439},{"name":"A#4","midi":70,"time":344.65494791665867,"velocity":0.8031496062992126,"duration":0.23567708333331439},{"name":"A2","midi":45,"time":344.8958333333253,"velocity":0.8031496062992126,"duration":0.47656249999994316},{"name":"C5","midi":72,"time":344.8958333333253,"velocity":0.8031496062992126,"duration":0.23567708333331439},{"name":"G4","midi":67,"time":345.1354166666586,"velocity":0.8031496062992126,"duration":0.23567708333331439},{"name":"D3","midi":50,"time":345.37630208332524,"velocity":0.8031496062992126,"duration":0.7161458333332575},{"name":"F#4","midi":66,"time":345.37630208332524,"velocity":0.8031496062992126,"duration":0.23567708333331439},{"name":"G4","midi":67,"time":345.61718749999187,"velocity":0.8031496062992126,"duration":0.23567708333331439},{"name":"A4","midi":69,"time":345.8567708333252,"velocity":0.8031496062992126,"duration":0.47656249999994316},{"name":"D#4","midi":63,"time":346.0976562499918,"velocity":0.8031496062992126,"duration":0.23567708333331439},{"name":"D4","midi":62,"time":346.33854166665844,"velocity":0.8031496062992126,"duration":0.23567708333337123},{"name":"A4","midi":69,"time":346.33854166665844,"velocity":0.8031496062992126,"duration":0.11588541666668561},{"name":"G4","midi":67,"time":346.45833333332513,"velocity":0.8031496062992126,"duration":0.11588541666668561},{"name":"C4","midi":60,"time":346.5781249999918,"velocity":0.8031496062992126,"duration":0.23567708333331439},{"name":"A4","midi":69,"time":346.5781249999918,"velocity":0.8031496062992126,"duration":0.47656249999994316},{"name":"A#3","midi":58,"time":346.81901041665844,"velocity":0.8031496062992126,"duration":0.23567708333331439},{"name":"A3","midi":57,"time":347.0598958333251,"velocity":0.8031496062992126,"duration":0.23567708333331439},{"name":"A4","midi":69,"time":347.0598958333251,"velocity":0.8031496062992126,"duration":0.23567708333331439},{"name":"A#3","midi":58,"time":347.2994791666584,"velocity":0.8031496062992126,"duration":0.23567708333331439},{"name":"A4","midi":69,"time":347.2994791666584,"velocity":0.8031496062992126,"duration":0.23567708333331439},{"name":"C4","midi":60,"time":347.540364583325,"velocity":0.8031496062992126,"duration":0.23567708333331439},{"name":"G4","midi":67,"time":347.540364583325,"velocity":0.8031496062992126,"duration":0.23567708333331439},{"name":"D4","midi":62,"time":347.78124999999164,"velocity":0.8031496062992126,"duration":0.23567708333331439},{"name":"F#4","midi":66,"time":347.78124999999164,"velocity":0.8031496062992126,"duration":0.23567708333331439},{"name":"A#3","midi":58,"time":348.02083333332496,"velocity":0.8031496062992126,"duration":0.23567708333331439},{"name":"G4","midi":67,"time":348.02083333332496,"velocity":0.8031496062992126,"duration":0.23567708333331439},{"name":"A3","midi":57,"time":348.2617187499916,"velocity":0.8031496062992126,"duration":0.23567708333331439},{"name":"C5","midi":72,"time":348.2617187499916,"velocity":0.8031496062992126,"duration":0.7018229166666288},{"name":"G3","midi":55,"time":348.5026041666582,"velocity":0.8031496062992126,"duration":0.23567708333331439},{"name":"A#4","midi":70,"time":348.5026041666582,"velocity":0.8031496062992126,"duration":0.23567708333331439},{"name":"F#3","midi":54,"time":348.74218749999153,"velocity":0.8031496062992126,"duration":0.23567708333337123},{"name":"A4","midi":69,"time":348.74218749999153,"velocity":0.8031496062992126,"duration":0.23567708333337123},{"name":"E3","midi":52,"time":348.9830729166582,"velocity":0.8031496062992126,"duration":0.23567708333331439},{"name":"C5","midi":72,"time":348.9830729166582,"velocity":0.8031496062992126,"duration":0.23567708333331439},{"name":"G4","midi":67,"time":348.9830729166582,"velocity":0.8031496062992126,"duration":0.23567708333331439},{"name":"F#3","midi":54,"time":349.22395833332484,"velocity":0.8031496062992126,"duration":0.23567708333331439},{"name":"C5","midi":72,"time":349.22395833332484,"velocity":0.8031496062992126,"duration":1.4374999999998295},{"name":"A4","midi":69,"time":349.22395833332484,"velocity":0.8031496062992126,"duration":1.4374999999998295},{"name":"G3","midi":55,"time":349.46354166665816,"velocity":0.8031496062992126,"duration":0.23567708333331439},{"name":"A3","midi":57,"time":349.7044270833248,"velocity":0.8031496062992126,"duration":0.23567708333331439},{"name":"D#3","midi":51,"time":349.9453124999914,"velocity":0.8031496062992126,"duration":0.23567708333331439},{"name":"D3","midi":50,"time":350.18489583332473,"velocity":0.8031496062992126,"duration":0.23567708333331439},{"name":"C3","midi":48,"time":350.42578124999136,"velocity":0.8031496062992126,"duration":0.23567708333331439},{"name":"A#2","midi":46,"time":350.666666666658,"velocity":0.8031496062992126,"duration":0.23567708333337123},{"name":"G4","midi":67,"time":350.666666666658,"velocity":0.8031496062992126,"duration":0.11588541666668561},{"name":"F#4","midi":66,"time":350.7864583333247,"velocity":0.8031496062992126,"duration":0.11588541666668561},{"name":"A2","midi":45,"time":350.9075520833247,"velocity":0.8031496062992126,"duration":0.23567708333337123},{"name":"E4","midi":64,"time":350.9075520833247,"velocity":0.8031496062992126,"duration":0.11588541666668561},{"name":"F#4","midi":66,"time":351.02734374999136,"velocity":0.8031496062992126,"duration":0.11588541666668561},{"name":"A#2","midi":46,"time":351.14713541665805,"velocity":0.8031496062992126,"duration":0.484375},{"name":"G4","midi":67,"time":351.14713541665805,"velocity":0.8031496062992126,"duration":0.9700520833332575},{"name":"A4","midi":69,"time":351.39192708332473,"velocity":0.8031496062992126,"duration":0.23958333333331439},{"name":"C3","midi":48,"time":351.63671874999136,"velocity":0.8031496062992126,"duration":0.48437499999994316},{"name":"A#4","midi":70,"time":351.63671874999136,"velocity":0.8031496062992126,"duration":0.23958333333331439},{"name":"D#5","midi":75,"time":351.881510416658,"velocity":0.8031496062992126,"duration":0.23958333333331439},{"name":"D3","midi":50,"time":352.1263020833246,"velocity":0.8031496062992126,"duration":0.48437499999994316},{"name":"F#4","midi":66,"time":352.1263020833246,"velocity":0.8031496062992126,"duration":0.7148437499998863},{"name":"A#4","midi":70,"time":352.1263020833246,"velocity":0.8031496062992126,"duration":0.1171875},{"name":"A4","midi":69,"time":352.24869791665793,"velocity":0.8031496062992126,"duration":0.1171875},{"name":"A#4","midi":70,"time":352.37109374999125,"velocity":0.8031496062992126,"duration":0.1171875},{"name":"A4","midi":69,"time":352.49348958332456,"velocity":0.8031496062992126,"duration":0.1171875},{"name":"D2","midi":38,"time":352.6158854166579,"velocity":0.8031496062992126,"duration":0.48437499999994316},{"name":"A#4","midi":70,"time":352.6158854166579,"velocity":0.8031496062992126,"duration":0.1171875},{"name":"A4","midi":69,"time":352.7382812499912,"velocity":0.8031496062992126,"duration":0.1171875},{"name":"G4","midi":67,"time":352.8606770833245,"velocity":0.8031496062992126,"duration":0.23958333333331439},{"name":"G2","midi":43,"time":353.10546874999113,"velocity":0.8031496062992126,"duration":1.317708333333428},{"name":"G4","midi":67,"time":353.10546874999113,"velocity":0.8031496062992126,"duration":2.364583333333428},{"name":"F4","midi":65,"time":353.36848958332445,"velocity":0.8031496062992126,"duration":0.2565104166666856},{"name":"D#4","midi":63,"time":353.63281249999113,"velocity":0.8031496062992126,"duration":0.2565104166666856},{"name":"D4","midi":62,"time":353.8958333333245,"velocity":0.8031496062992126,"duration":0.2565104166666856},{"name":"C4","midi":60,"time":354.1601562499912,"velocity":0.8031496062992126,"duration":0.2565104166666856},{"name":"D4","midi":62,"time":354.42317708332456,"velocity":0.8031496062992126,"duration":0.2565104166666856},{"name":"D#4","midi":63,"time":354.68749999999125,"velocity":0.8031496062992126,"duration":0.5208333333333144},{"name":"F#3","midi":54,"time":354.95052083332456,"velocity":0.8031496062992126,"duration":0.2565104166666856},{"name":"G3","midi":55,"time":355.21484374999125,"velocity":0.8031496062992126,"duration":4.781249999999943},{"name":"A#3","midi":58,"time":355.21484374999125,"velocity":0.8031496062992126,"duration":4.781249999999943},{"name":"D4","midi":62,"time":355.36458333332456,"velocity":0.8031496062992126,"duration":4.645833333333314},{"name":"A#2","midi":46,"time":355.5143229166579,"velocity":0.8031496062992126,"duration":0.29296875},{"name":"G4","midi":67,"time":355.5143229166579,"velocity":0.8031496062992126,"duration":4.489583333333314},{"name":"C3","midi":48,"time":355.81380208332456,"velocity":0.8031496062992126,"duration":0.29296875},{"name":"D3","midi":50,"time":356.11328124999125,"velocity":0.8031496062992126,"duration":0.3567708333333144},{"name":"G2","midi":43,"time":356.4752604166579,"velocity":0.8031496062992126,"duration":3.58984375},{"name":"D4","midi":62,"time":362.10677083332456,"velocity":0.8031496062992126,"duration":0.2421875},{"name":"G3","midi":55,"time":362.35156249999125,"velocity":0.8031496062992126,"duration":1.220052083333428},{"name":"D4","midi":62,"time":362.35156249999125,"velocity":0.8031496062992126,"duration":1.7057291666667425},{"name":"C4","midi":60,"time":362.59635416665793,"velocity":0.8031496062992126,"duration":0.2421875},{"name":"A#3","midi":58,"time":362.8411458333246,"velocity":0.8031496062992126,"duration":0.2421875},{"name":"A3","midi":57,"time":363.0859374999913,"velocity":0.8031496062992126,"duration":0.2421875},{"name":"A#3","midi":58,"time":363.330729166658,"velocity":0.8031496062992126,"duration":0.9778645833333712},{"name":"F#3","midi":54,"time":363.5755208333247,"velocity":0.8031496062992126,"duration":0.2421875},{"name":"G3","midi":55,"time":363.819010416658,"velocity":0.8031496062992126,"duration":0.2421875},{"name":"D3","midi":50,"time":364.0638020833247,"velocity":0.8031496062992126,"duration":0.2421875},{"name":"D4","midi":62,"time":364.0638020833247,"velocity":0.8031496062992126,"duration":0.2421875},{"name":"D#3","midi":51,"time":364.31119791665805,"velocity":0.8031496062992126,"duration":0.2421875},{"name":"G4","midi":67,"time":364.31119791665805,"velocity":0.8031496062992126,"duration":0.2421875},{"name":"C3","midi":48,"time":364.55598958332473,"velocity":0.8031496062992126,"duration":0.2421875},{"name":"A4","midi":69,"time":364.55598958332473,"velocity":0.8031496062992126,"duration":0.2421875},{"name":"D3","midi":50,"time":364.8007812499914,"velocity":0.8031496062992126,"duration":0.2421875},{"name":"F#4","midi":66,"time":364.8007812499914,"velocity":0.8031496062992126,"duration":0.2421875},{"name":"D#3","midi":51,"time":365.0455729166581,"velocity":0.8031496062992126,"duration":0.2421875},{"name":"G4","midi":67,"time":365.0455729166581,"velocity":0.8031496062992126,"duration":0.2421875},{"name":"F#2","midi":42,"time":365.2903645833248,"velocity":0.8031496062992126,"duration":0.9778645833333712},{"name":"A4","midi":69,"time":365.2903645833248,"velocity":0.8031496062992126,"duration":1.7096354166667993},{"name":"D#4","midi":63,"time":365.5351562499915,"velocity":0.8031496062992126,"duration":0.2421875},{"name":"D4","midi":62,"time":365.7786458333248,"velocity":0.8031496062992126,"duration":0.2421875},{"name":"C4","midi":60,"time":366.0234374999915,"velocity":0.8031496062992126,"duration":0.2421875},{"name":"D4","midi":62,"time":366.27083333332484,"velocity":0.8031496062992126,"duration":0.11979166666668561},{"name":"C4","midi":60,"time":366.3932291666582,"velocity":0.8031496062992126,"duration":0.11979166666668561},{"name":"A3","midi":57,"time":366.5156249999916,"velocity":0.8031496062992126,"duration":0.2421875},{"name":"D4","midi":62,"time":366.5156249999916,"velocity":0.8031496062992126,"duration":0.4869791666666856},{"name":"A#3","midi":58,"time":366.7604166666583,"velocity":0.8031496062992126,"duration":0.2421875},{"name":"C4","midi":60,"time":367.00520833332496,"velocity":0.8031496062992126,"duration":0.2421875},{"name":"D4","midi":62,"time":367.00520833332496,"velocity":0.8031496062992126,"duration":0.2421875},{"name":"F#3","midi":54,"time":367.24999999999164,"velocity":0.8031496062992126,"duration":0.2421875},{"name":"A4","midi":69,"time":367.24999999999164,"velocity":0.8031496062992126,"duration":0.2421875},{"name":"G3","midi":55,"time":367.49479166665833,"velocity":0.8031496062992126,"duration":0.2421875},{"name":"A#4","midi":70,"time":367.49479166665833,"velocity":0.8031496062992126,"duration":0.2421875},{"name":"A3","midi":57,"time":367.73828124999164,"velocity":0.8031496062992126,"duration":0.2421875},{"name":"G4","midi":67,"time":367.73828124999164,"velocity":0.8031496062992126,"duration":0.2421875},{"name":"D3","midi":50,"time":367.98307291665833,"velocity":0.8031496062992126,"duration":0.2421875},{"name":"A4","midi":69,"time":367.98307291665833,"velocity":0.8031496062992126,"duration":0.2421875},{"name":"G3","midi":55,"time":368.227864583325,"velocity":0.8031496062992126,"duration":0.4869791666666856},{"name":"A#4","midi":70,"time":368.227864583325,"velocity":0.8031496062992126,"duration":1.708333333333428},{"name":"A4","midi":69,"time":368.4726562499917,"velocity":0.8031496062992126,"duration":0.2421875},{"name":"D3","midi":50,"time":368.7174479166584,"velocity":0.8031496062992126,"duration":0.4869791666666856},{"name":"G4","midi":67,"time":368.7174479166584,"velocity":0.8031496062992126,"duration":0.2421875},{"name":"F#4","midi":66,"time":368.9622395833251,"velocity":0.8031496062992126,"duration":0.2421875},{"name":"D#3","midi":51,"time":369.20703124999176,"velocity":0.8031496062992126,"duration":0.4869791666666856},{"name":"G4","midi":67,"time":369.20703124999176,"velocity":0.8031496062992126,"duration":0.2421875},{"name":"D4","midi":62,"time":369.45182291665844,"velocity":0.8031496062992126,"duration":0.2421875},{"name":"G3","midi":55,"time":369.69661458332513,"velocity":0.8031496062992126,"duration":0.4869791666666856},{"name":"D#4","midi":63,"time":369.69661458332513,"velocity":0.8031496062992126,"duration":0.2421875},{"name":"A#4","midi":70,"time":369.9414062499918,"velocity":0.8031496062992126,"duration":0.2421875},{"name":"C3","midi":48,"time":370.1861979166585,"velocity":0.8031496062992126,"duration":0.4869791666666856},{"name":"A4","midi":69,"time":370.1861979166585,"velocity":0.8031496062992126,"duration":0.2421875},{"name":"C5","midi":72,"time":370.4309895833252,"velocity":0.8031496062992126,"duration":0.2421875},{"name":"D#3","midi":51,"time":370.6744791666585,"velocity":0.8031496062992126,"duration":0.4869791666666856},{"name":"F#4","midi":66,"time":370.6744791666585,"velocity":0.8031496062992126,"duration":0.2421875},{"name":"G4","midi":67,"time":370.9192708333252,"velocity":0.8031496062992126,"duration":0.2421875},{"name":"D3","midi":50,"time":371.16406249999187,"velocity":0.8031496062992126,"duration":0.7317708333333712},{"name":"G4","midi":67,"time":371.16406249999187,"velocity":0.8031496062992126,"duration":0.11979166666668561},{"name":"F#4","midi":66,"time":371.26041666665856,"velocity":0.8031496062992126,"duration":0.11979166666668561},{"name":"G4","midi":67,"time":371.35677083332524,"velocity":0.8031496062992126,"duration":0.11979166666668561},{"name":"F#4","midi":66,"time":371.4531249999919,"velocity":0.8031496062992126,"duration":0.1953125},{"name":"E4","midi":64,"time":371.65364583332524,"velocity":0.8031496062992126,"duration":0.2421875},{"name":"C3","midi":48,"time":371.8984374999919,"velocity":0.8031496062992126,"duration":0.2421875},{"name":"D4","midi":62,"time":371.8984374999919,"velocity":0.8031496062992126,"duration":0.2421875},{"name":"A#2","midi":46,"time":372.1432291666586,"velocity":0.8031496062992126,"duration":0.2421875},{"name":"D5","midi":74,"time":372.1432291666586,"velocity":0.8031496062992126,"duration":0.7317708333333712},{"name":"A2","midi":45,"time":372.3880208333253,"velocity":0.8031496062992126,"duration":0.2421875},{"name":"A#2","midi":46,"time":372.632812499992,"velocity":0.8031496062992126,"duration":0.2421875},{"name":"G2","midi":43,"time":372.87760416665867,"velocity":0.8031496062992126,"duration":0.2421875},{"name":"D#5","midi":75,"time":372.87760416665867,"velocity":0.8031496062992126,"duration":0.2421875},{"name":"D3","midi":50,"time":373.12239583332536,"velocity":0.8031496062992126,"duration":0.4869791666666856},{"name":"D5","midi":74,"time":373.12239583332536,"velocity":0.8031496062992126,"duration":0.2421875},{"name":"C5","midi":72,"time":373.36718749999204,"velocity":0.8031496062992126,"duration":0.2421875},{"name":"D2","midi":38,"time":373.6119791666587,"velocity":0.8031496062992126,"duration":0.48697916666662877},{"name":"A#4","midi":70,"time":373.6119791666587,"velocity":0.8031496062992126,"duration":0.2421875},{"name":"A4","midi":69,"time":373.85546874999204,"velocity":0.8031496062992126,"duration":0.2421875},{"name":"G2","midi":43,"time":374.10026041665867,"velocity":0.8031496062992126,"duration":1.4648437500001137},{"name":"A#4","midi":70,"time":374.10026041665867,"velocity":0.8031496062992126,"duration":0.2421875},{"name":"A4","midi":69,"time":374.34505208332536,"velocity":0.8031496062992126,"duration":0.2421875},{"name":"A#2","midi":46,"time":374.58984374999204,"velocity":0.8031496062992126,"duration":0.4869791666666856},{"name":"G4","midi":67,"time":374.58984374999204,"velocity":0.8031496062992126,"duration":0.2421875},{"name":"A4","midi":69,"time":374.8346354166587,"velocity":0.8031496062992126,"duration":0.2421875},{"name":"D3","midi":50,"time":375.0794270833254,"velocity":0.8031496062992126,"duration":0.4869791666666856},{"name":"A#4","midi":70,"time":375.0794270833254,"velocity":0.8031496062992126,"duration":0.2421875},{"name":"C5","midi":72,"time":375.3242187499921,"velocity":0.8031496062992126,"duration":0.2421875},{"name":"G3","midi":55,"time":375.5690104166588,"velocity":0.8031496062992126,"duration":0.4869791666666856},{"name":"D5","midi":74,"time":375.5690104166588,"velocity":0.8031496062992126,"duration":0.2421875},{"name":"D#5","midi":75,"time":375.81380208332547,"velocity":0.8031496062992126,"duration":0.2421875},{"name":"F3","midi":53,"time":376.05859374999216,"velocity":0.8031496062992126,"duration":0.4869791666666856},{"name":"F5","midi":77,"time":376.05859374999216,"velocity":0.8031496062992126,"duration":0.20833333333331439},{"name":"D#5","midi":75,"time":376.27343749999216,"velocity":0.8031496062992126,"duration":0.11067708333337123},{"name":"F5","midi":77,"time":376.38151041665884,"velocity":0.8031496062992126,"duration":0.11067708333331439},{"name":"D#5","midi":75,"time":376.49088541665884,"velocity":0.8031496062992126,"duration":0.11067708333331439},{"name":"D#3","midi":51,"time":376.5481770833255,"velocity":0.8031496062992126,"duration":0.4869791666665719},{"name":"F5","midi":77,"time":376.60026041665884,"velocity":0.8031496062992126,"duration":0.11067708333331439},{"name":"D#5","midi":75,"time":376.70963541665884,"velocity":0.8031496062992126,"duration":0.11067708333331439},{"name":"D5","midi":74,"time":376.81770833332547,"velocity":0.8031496062992126,"duration":0.11067708333331439},{"name":"D#5","midi":75,"time":376.92708333332547,"velocity":0.8031496062992126,"duration":0.11067708333325754},{"name":"D3","midi":50,"time":377.0364583333254,"velocity":0.8031496062992126,"duration":0.2421875},{"name":"F5","midi":77,"time":377.0364583333254,"velocity":0.8031496062992126,"duration":0.7317708333333712},{"name":"F3","midi":53,"time":377.2812499999921,"velocity":0.8031496062992126,"duration":0.2421875},{"name":"G3","midi":55,"time":377.5260416666588,"velocity":0.8031496062992126,"duration":0.2421875},{"name":"A3","midi":57,"time":377.77083333332547,"velocity":0.8031496062992126,"duration":0.2421875},{"name":"D#5","midi":75,"time":377.77083333332547,"velocity":0.8031496062992126,"duration":0.2421875},{"name":"A#3","midi":58,"time":378.01562499999216,"velocity":0.8031496062992126,"duration":0.2421875},{"name":"D5","midi":74,"time":378.01562499999216,"velocity":0.8031496062992126,"duration":0.2421875},{"name":"A3","midi":57,"time":378.26041666665884,"velocity":0.8031496062992126,"duration":0.2421875},{"name":"C5","midi":72,"time":378.26041666665884,"velocity":0.8031496062992126,"duration":0.2421875},{"name":"A#3","midi":58,"time":378.5052083333255,"velocity":0.8031496062992126,"duration":0.2421875},{"name":"A#4","midi":70,"time":378.5052083333255,"velocity":0.8031496062992126,"duration":0.2421875},{"name":"C4","midi":60,"time":378.7499999999922,"velocity":0.8031496062992126,"duration":0.2421875},{"name":"A4","midi":69,"time":378.7499999999922,"velocity":0.8031496062992126,"duration":0.2421875},{"name":"D4","midi":62,"time":378.9947916666589,"velocity":0.8031496062992126,"duration":0.4869791666666856},{"name":"A#4","midi":70,"time":378.9947916666589,"velocity":0.8031496062992126,"duration":0.2421875},{"name":"C5","midi":72,"time":379.2395833333256,"velocity":0.8031496062992126,"duration":0.2421875},{"name":"A#3","midi":58,"time":379.48437499999227,"velocity":0.8031496062992126,"duration":0.4869791666666856},{"name":"F4","midi":65,"time":379.48437499999227,"velocity":0.8031496062992126,"duration":0.2421875},{"name":"G#4","midi":68,"time":379.72916666665895,"velocity":0.8031496062992126,"duration":0.2421875},{"name":"D#4","midi":63,"time":379.97265624999227,"velocity":0.8031496062992126,"duration":0.2421875},{"name":"G4","midi":67,"time":379.97265624999227,"velocity":0.8031496062992126,"duration":0.4869791666666856},{"name":"F4","midi":65,"time":380.21744791665895,"velocity":0.8031496062992126,"duration":0.2421875},{"name":"D#4","midi":63,"time":380.46223958332564,"velocity":0.8031496062992126,"duration":0.2421875},{"name":"G5","midi":79,"time":380.46223958332564,"velocity":0.8031496062992126,"duration":0.7317708333333712},{"name":"D4","midi":62,"time":380.7070312499923,"velocity":0.8031496062992126,"duration":0.2421875},{"name":"C4","midi":60,"time":380.951822916659,"velocity":0.8031496062992126,"duration":0.4869791666666856},{"name":"F5","midi":77,"time":381.1966145833257,"velocity":0.8031496062992126,"duration":0.2421875},{"name":"D4","midi":62,"time":381.4414062499924,"velocity":0.8031496062992126,"duration":0.4869791666666856},{"name":"D#5","midi":75,"time":381.4414062499924,"velocity":0.8031496062992126,"duration":0.2421875},{"name":"D5","midi":74,"time":381.68619791665907,"velocity":0.8031496062992126,"duration":0.2421875},{"name":"D#4","midi":63,"time":381.93098958332575,"velocity":0.8031496062992126,"duration":0.4869791666666856},{"name":"C5","midi":72,"time":381.93098958332575,"velocity":0.8031496062992126,"duration":0.2421875},{"name":"D5","midi":74,"time":382.17578124999244,"velocity":0.8031496062992126,"duration":0.2421875},{"name":"C4","midi":60,"time":382.4205729166591,"velocity":0.8031496062992126,"duration":0.4869791666666856},{"name":"D#5","midi":75,"time":382.4205729166591,"velocity":0.8031496062992126,"duration":0.2421875},{"name":"A#4","midi":70,"time":382.6653645833258,"velocity":0.8031496062992126,"duration":0.2421875},{"name":"F4","midi":65,"time":382.9088541666591,"velocity":0.8031496062992126,"duration":0.4869791666666856},{"name":"A4","midi":69,"time":382.9088541666591,"velocity":0.8031496062992126,"duration":0.2421875},{"name":"C5","midi":72,"time":383.1536458333258,"velocity":0.8031496062992126,"duration":0.2421875},{"name":"D#4","midi":63,"time":383.3984374999925,"velocity":0.8031496062992126,"duration":0.4869791666666856},{"name":"D5","midi":74,"time":383.3984374999925,"velocity":0.8031496062992126,"duration":0.2421875},{"name":"D#5","midi":75,"time":383.6432291666592,"velocity":0.8031496062992126,"duration":0.2421875},{"name":"D4","midi":62,"time":383.88802083332587,"velocity":0.8031496062992126,"duration":0.4869791666666856},{"name":"F5","midi":77,"time":383.88802083332587,"velocity":0.8031496062992126,"duration":0.2421875},{"name":"D#5","midi":75,"time":384.13281249999255,"velocity":0.8031496062992126,"duration":0.2421875},{"name":"C4","midi":60,"time":384.37760416665924,"velocity":0.8031496062992126,"duration":0.2421875},{"name":"F5","midi":77,"time":384.37760416665924,"velocity":0.8031496062992126,"duration":0.2421875},{"name":"A#3","midi":58,"time":384.6223958333259,"velocity":0.8031496062992126,"duration":0.2421875},{"name":"G5","midi":79,"time":384.6223958333259,"velocity":0.8031496062992126,"duration":0.2421875},{"name":"F4","midi":65,"time":384.8671874999926,"velocity":0.8031496062992126,"duration":0.4869791666666856},{"name":"F5","midi":77,"time":384.8671874999926,"velocity":0.8031496062992126,"duration":0.2421875},{"name":"D#5","midi":75,"time":385.1119791666593,"velocity":0.8031496062992126,"duration":0.2421875},{"name":"F3","midi":53,"time":385.356770833326,"velocity":0.8031496062992126,"duration":0.4869791666666856},{"name":"D5","midi":74,"time":385.356770833326,"velocity":0.8031496062992126,"duration":0.2421875},{"name":"C5","midi":72,"time":385.60156249999267,"velocity":0.8031496062992126,"duration":0.2421875},{"name":"A#3","midi":58,"time":385.84635416665935,"velocity":0.8031496062992126,"duration":0.48697916666662877},{"name":"C5","midi":72,"time":385.84635416665935,"velocity":0.8031496062992126,"duration":0.2421875},{"name":"D5","midi":74,"time":386.08984374999267,"velocity":0.8031496062992126,"duration":0.2421875},{"name":"A#2","midi":46,"time":386.3346354166593,"velocity":0.8031496062992126,"duration":0.2421875},{"name":"C5","midi":72,"time":386.3346354166593,"velocity":0.8031496062992126,"duration":0.2421875},{"name":"A2","midi":45,"time":386.579427083326,"velocity":0.8031496062992126,"duration":0.2421875},{"name":"A#4","midi":70,"time":386.579427083326,"velocity":0.8031496062992126,"duration":0.2421875},{"name":"G2","midi":43,"time":386.82421874999267,"velocity":0.8031496062992126,"duration":0.2421875},{"name":"D5","midi":74,"time":386.82421874999267,"velocity":0.8031496062992126,"duration":0.7330729166666856},{"name":"G5","midi":79,"time":386.946614583326,"velocity":0.8031496062992126,"duration":0.6132812500000568},{"name":"F#2","midi":42,"time":387.06901041665935,"velocity":0.8031496062992126,"duration":0.2421875},{"name":"A#5","midi":82,"time":387.06901041665935,"velocity":0.8031496062992126,"duration":0.4869791666666856},{"name":"G2","midi":43,"time":387.31380208332604,"velocity":0.8031496062992126,"duration":0.2421875},{"name":"A2","midi":45,"time":387.56119791665935,"velocity":0.8031496062992126,"duration":0.2421875},{"name":"A5","midi":81,"time":387.56119791665935,"velocity":0.8031496062992126,"duration":0.2421875},{"name":"A#2","midi":46,"time":387.80468749999267,"velocity":0.8031496062992126,"duration":0.4869791666666856},{"name":"G5","midi":79,"time":387.80468749999267,"velocity":0.8031496062992126,"duration":0.2421875},{"name":"A5","midi":81,"time":388.04947916665935,"velocity":0.8031496062992126,"duration":0.2421875},{"name":"G2","midi":43,"time":388.29427083332604,"velocity":0.8031496062992126,"duration":0.4869791666666856},{"name":"A#5","midi":82,"time":388.29427083332604,"velocity":0.8031496062992126,"duration":0.2421875},{"name":"F5","midi":77,"time":388.5390624999927,"velocity":0.8031496062992126,"duration":0.2421875},{"name":"C3","midi":48,"time":388.7838541666594,"velocity":0.8031496062992126,"duration":0.24218749999994316},{"name":"F5","midi":77,"time":388.7838541666594,"velocity":0.8031496062992126,"duration":0.22135416666662877},{"name":"D#5","midi":75,"time":389.0039062499927,"velocity":0.8031496062992126,"duration":0.11979166666662877},{"name":"B2","midi":47,"time":389.02864583332604,"velocity":0.8031496062992126,"duration":0.2421875},{"name":"F5","midi":77,"time":389.10026041665935,"velocity":0.8031496062992126,"duration":0.11979166666668561},{"name":"D#5","midi":75,"time":389.19661458332604,"velocity":0.8031496062992126,"duration":0.11979166666668561},{"name":"C3","midi":48,"time":389.2734374999927,"velocity":0.8031496062992126,"duration":0.24218750000005684},{"name":"F5","midi":77,"time":389.2929687499927,"velocity":0.8031496062992126,"duration":0.11979166666668561},{"name":"D#5","midi":75,"time":389.3893229166594,"velocity":0.8031496062992126,"duration":0.11979166666668561},{"name":"D3","midi":50,"time":389.51822916665947,"velocity":0.8031496062992126,"duration":0.2421875},{"name":"D5","midi":74,"time":389.51822916665947,"velocity":0.8031496062992126,"duration":0.2421875},{"name":"D#3","midi":51,"time":389.76302083332615,"velocity":0.8031496062992126,"duration":0.4869791666666856},{"name":"C5","midi":72,"time":389.76302083332615,"velocity":0.8031496062992126,"duration":0.2421875},{"name":"D5","midi":74,"time":390.00781249999284,"velocity":0.8031496062992126,"duration":0.2421875},{"name":"D3","midi":50,"time":390.2526041666595,"velocity":0.8031496062992126,"duration":0.4869791666666856},{"name":"D#5","midi":75,"time":390.2526041666595,"velocity":0.8031496062992126,"duration":0.2421875},{"name":"A#4","midi":70,"time":390.4973958333262,"velocity":0.8031496062992126,"duration":0.2421875},{"name":"C3","midi":48,"time":390.7421874999929,"velocity":0.8031496062992126,"duration":0.48697916666662877},{"name":"A4","midi":69,"time":390.7421874999929,"velocity":0.8031496062992126,"duration":0.2421875},{"name":"A#4","midi":70,"time":390.9856770833262,"velocity":0.8031496062992126,"duration":0.2421875},{"name":"A2","midi":45,"time":391.23046874999284,"velocity":0.8031496062992126,"duration":0.4869791666666856},{"name":"C5","midi":72,"time":391.23046874999284,"velocity":0.8031496062992126,"duration":0.2421875},{"name":"G4","midi":67,"time":391.4752604166595,"velocity":0.8031496062992126,"duration":0.2421875},{"name":"D3","midi":50,"time":391.7200520833262,"velocity":0.8031496062992126,"duration":0.9778645833333712},{"name":"F#4","midi":66,"time":391.7200520833262,"velocity":0.8031496062992126,"duration":0.2421875},{"name":"G4","midi":67,"time":391.9648437499929,"velocity":0.8031496062992126,"duration":0.2421875},{"name":"A4","midi":69,"time":392.2096354166596,"velocity":0.8031496062992126,"duration":0.2421875},{"name":"D#4","midi":63,"time":392.45442708332627,"velocity":0.8031496062992126,"duration":0.2421875},{"name":"D4","midi":62,"time":392.7018229166596,"velocity":0.8031496062992126,"duration":0.2421875},{"name":"E4","midi":64,"time":392.9453124999929,"velocity":0.8031496062992126,"duration":0.2421875},{"name":"F#4","midi":66,"time":393.1901041666596,"velocity":0.8031496062992126,"duration":0.4869791666666856},{"name":"C4","midi":60,"time":393.43489583332627,"velocity":0.8031496062992126,"duration":0.2421875},{"name":"A#3","midi":58,"time":393.67968749999295,"velocity":0.8031496062992126,"duration":0.2421875},{"name":"G4","midi":67,"time":393.67968749999295,"velocity":0.8031496062992126,"duration":0.4869791666666856},{"name":"C4","midi":60,"time":393.92447916665964,"velocity":0.8031496062992126,"duration":0.2421875},{"name":"D4","midi":62,"time":394.1692708333263,"velocity":0.8031496062992126,"duration":0.2421875},{"name":"A#4","midi":70,"time":394.1692708333263,"velocity":0.8031496062992126,"duration":0.2421875},{"name":"F#3","midi":54,"time":394.414062499993,"velocity":0.8031496062992126,"duration":0.2421875},{"name":"A4","midi":69,"time":394.414062499993,"velocity":0.8031496062992126,"duration":0.2421875},{"name":"G3","midi":55,"time":394.6588541666597,"velocity":0.8031496062992126,"duration":0.2421875},{"name":"A#4","midi":70,"time":394.6588541666597,"velocity":0.8031496062992126,"duration":0.4869791666666856},{"name":"A3","midi":57,"time":394.9036458333264,"velocity":0.8031496062992126,"duration":0.2421875},{"name":"A#3","midi":58,"time":395.14843749999307,"velocity":0.8031496062992126,"duration":0.2421875},{"name":"G4","midi":67,"time":395.14843749999307,"velocity":0.8031496062992126,"duration":0.4869791666666856},{"name":"D3","midi":50,"time":395.39322916665975,"velocity":0.8031496062992126,"duration":0.2421875},{"name":"D#3","midi":51,"time":395.63802083332644,"velocity":0.8031496062992126,"duration":0.24218750000005684},{"name":"G5","midi":79,"time":395.63802083332644,"velocity":0.8031496062992126,"duration":0.11979166666668561},{"name":"F5","midi":77,"time":395.7604166666598,"velocity":0.8031496062992126,"duration":0.11979166666668561},{"name":"F3","midi":53,"time":395.8815104166598,"velocity":0.8031496062992126,"duration":0.2421875},{"name":"G5","midi":79,"time":395.8815104166598,"velocity":0.8031496062992126,"duration":0.4869791666666856},{"name":"G3","midi":55,"time":396.1263020833265,"velocity":0.8031496062992126,"duration":0.2421875},{"name":"C3","midi":48,"time":396.3710937499932,"velocity":0.8031496062992126,"duration":0.2421875},{"name":"G#5","midi":80,"time":396.3710937499932,"velocity":0.8031496062992126,"duration":0.2421875},{"name":"B2","midi":47,"time":396.61588541665986,"velocity":0.8031496062992126,"duration":0.2421875},{"name":"G5","midi":79,"time":396.61588541665986,"velocity":0.8031496062992126,"duration":0.2421875},{"name":"C3","midi":48,"time":396.86067708332655,"velocity":0.8031496062992126,"duration":0.2421875},{"name":"F5","midi":77,"time":396.86067708332655,"velocity":0.8031496062992126,"duration":0.2421875},{"name":"D3","midi":50,"time":397.10546874999324,"velocity":0.8031496062992126,"duration":0.2421875},{"name":"D#5","midi":75,"time":397.10546874999324,"velocity":0.8031496062992126,"duration":0.2421875},{"name":"G2","midi":43,"time":397.3502604166599,"velocity":0.8031496062992126,"duration":0.2421875},{"name":"D5","midi":74,"time":397.3502604166599,"velocity":0.8031496062992126,"duration":0.2421875},{"name":"C3","midi":48,"time":397.5950520833266,"velocity":0.8031496062992126,"duration":0.9778645833333712},{"name":"D#5","midi":75,"time":397.5950520833266,"velocity":0.8031496062992126,"duration":1.4674479166667425},{"name":"D5","midi":74,"time":397.8398437499933,"velocity":0.8031496062992126,"duration":0.2421875},{"name":"C5","midi":72,"time":398.08463541666,"velocity":0.8031496062992126,"duration":0.2421875},{"name":"A#4","midi":70,"time":398.32942708332666,"velocity":0.8031496062992126,"duration":0.2421875},{"name":"C5","midi":72,"time":398.57552083332666,"velocity":0.8031496062992126,"duration":0.4869791666666856},{"name":"A4","midi":69,"time":398.82031249999335,"velocity":0.8031496062992126,"duration":0.2421875},{"name":"A#4","midi":70,"time":399.06510416666003,"velocity":0.8031496062992126,"duration":0.24218749999994316},{"name":"D#5","midi":75,"time":399.15624999999335,"velocity":0.8031496062992126,"duration":0.3984375},{"name":"G5","midi":79,"time":399.24739583332666,"velocity":0.8031496062992126,"duration":0.3125},{"name":"C5","midi":72,"time":399.30989583332666,"velocity":0.8031496062992126,"duration":0.2421875},{"name":"F#4","midi":66,"time":399.55468749999335,"velocity":0.8031496062992126,"duration":0.2421875},{"name":"A5","midi":81,"time":399.55468749999335,"velocity":0.8031496062992126,"duration":1.4648437500000568},{"name":"D5","midi":74,"time":399.55468749999335,"velocity":0.8031496062992126,"duration":0.2421875},{"name":"G4","midi":67,"time":399.79947916666003,"velocity":0.8031496062992126,"duration":0.2421875},{"name":"C5","midi":72,"time":399.79947916666003,"velocity":0.8031496062992126,"duration":0.2421875},{"name":"A4","midi":69,"time":400.0442708333267,"velocity":0.8031496062992126,"duration":0.2421875},{"name":"A#4","midi":70,"time":400.0442708333267,"velocity":0.8031496062992126,"duration":0.2421875},{"name":"D4","midi":62,"time":400.2890624999934,"velocity":0.8031496062992126,"duration":0.2421875},{"name":"A4","midi":69,"time":400.2890624999934,"velocity":0.8031496062992126,"duration":0.2421875},{"name":"G4","midi":67,"time":400.5338541666601,"velocity":0.8031496062992126,"duration":0.2421875},{"name":"A#4","midi":70,"time":400.5338541666601,"velocity":0.8031496062992126,"duration":1.4648437500000568},{"name":"F4","midi":65,"time":400.7773437499934,"velocity":0.8031496062992126,"duration":0.2421875},{"name":"E4","midi":64,"time":401.0221354166601,"velocity":0.8031496062992126,"duration":0.2421875},{"name":"G5","midi":79,"time":401.0221354166601,"velocity":0.8031496062992126,"duration":0.2421875},{"name":"D4","midi":62,"time":401.2669270833268,"velocity":0.8031496062992126,"duration":0.2421875},{"name":"F5","midi":77,"time":401.2669270833268,"velocity":0.8031496062992126,"duration":0.2421875},{"name":"E4","midi":64,"time":401.51171874999346,"velocity":0.8031496062992126,"duration":0.2421875},{"name":"G5","midi":79,"time":401.51171874999346,"velocity":0.8031496062992126,"duration":2.5625000000001705},{"name":"C#4","midi":61,"time":401.75651041666015,"velocity":0.8031496062992126,"duration":0.2421875},{"name":"D4","midi":62,"time":402.00130208332683,"velocity":0.8031496062992126,"duration":0.2421875},{"name":"A4","midi":69,"time":402.00130208332683,"velocity":0.8031496062992126,"duration":0.2421875},{"name":"E4","midi":64,"time":402.2460937499935,"velocity":0.8031496062992126,"duration":0.2421875},{"name":"G4","midi":67,"time":402.2460937499935,"velocity":0.8031496062992126,"duration":0.2421875},{"name":"A3","midi":57,"time":402.4908854166602,"velocity":0.8031496062992126,"duration":0.2421875},{"name":"C#5","midi":73,"time":402.4908854166602,"velocity":0.8031496062992126,"duration":0.2421875},{"name":"B3","midi":59,"time":402.7356770833269,"velocity":0.8031496062992126,"duration":0.2421875},{"name":"D5","midi":74,"time":402.7356770833269,"velocity":0.8031496062992126,"duration":0.2421875},{"name":"C#4","midi":61,"time":402.9804687499936,"velocity":0.8031496062992126,"duration":0.2421875},{"name":"E5","midi":76,"time":402.9804687499936,"velocity":0.8031496062992126,"duration":0.2421875},{"name":"G3","midi":55,"time":403.22526041666026,"velocity":0.8031496062992126,"duration":0.2421875},{"name":"A#4","midi":70,"time":403.22526041666026,"velocity":0.8031496062992126,"duration":0.2421875},{"name":"F3","midi":53,"time":403.47005208332695,"velocity":0.8031496062992126,"duration":1.4648437500000568},{"name":"A4","midi":69,"time":403.47005208332695,"velocity":0.8031496062992126,"duration":1.4648437500000568},{"name":"A3","midi":57,"time":403.71484374999363,"velocity":0.8031496062992126,"duration":0.2421875},{"name":"B3","midi":59,"time":403.95833333332695,"velocity":0.8031496062992126,"duration":0.2421875},{"name":"C#4","midi":61,"time":404.20312499999363,"velocity":0.8031496062992126,"duration":0.2421875},{"name":"A5","midi":81,"time":404.20312499999363,"velocity":0.8031496062992126,"duration":0.2421875},{"name":"D4","midi":62,"time":404.4479166666603,"velocity":0.8031496062992126,"duration":0.9778645833334281},{"name":"G5","midi":79,"time":404.4479166666603,"velocity":0.8031496062992126,"duration":0.22135416666668561},{"name":"F5","midi":77,"time":404.6744791666603,"velocity":0.8031496062992126,"duration":0.11979166666668561},{"name":"G5","midi":79,"time":404.770833333327,"velocity":0.8031496062992126,"duration":0.11979166666668561},{"name":"F5","midi":77,"time":404.8671874999937,"velocity":0.8031496062992126,"duration":0.11979166666668561},{"name":"G3","midi":55,"time":404.9374999999937,"velocity":0.8031496062992126,"duration":0.48697916666674246},{"name":"G5","midi":79,"time":404.9635416666604,"velocity":0.8031496062992126,"duration":0.11979166666668561},{"name":"F5","midi":77,"time":405.05989583332706,"velocity":0.8031496062992126,"duration":0.11979166666668561},{"name":"E5","midi":76,"time":405.18229166666043,"velocity":0.8031496062992126,"duration":0.2421875},{"name":"A3","midi":57,"time":405.42968749999375,"velocity":0.8031496062992126,"duration":0.98046875},{"name":"F5","midi":77,"time":405.42968749999375,"velocity":0.8031496062992126,"duration":0.1953125},{"name":"C#5","midi":73,"time":405.42968749999375,"velocity":0.8031496062992126,"duration":0.7330729166666288},{"name":"E5","midi":76,"time":405.63020833332706,"velocity":0.8031496062992126,"duration":0.11979166666662877},{"name":"F5","midi":77,"time":405.7330729166604,"velocity":0.8031496062992126,"duration":0.11979166666668561},{"name":"E5","midi":76,"time":405.8346354166604,"velocity":0.8031496062992126,"duration":0.11979166666668561},{"name":"A2","midi":45,"time":405.91796874999375,"velocity":0.8031496062992126,"duration":0.48828125},{"name":"F5","midi":77,"time":405.93749999999375,"velocity":0.8031496062992126,"duration":0.11979166666662877},{"name":"E5","midi":76,"time":406.04036458332706,"velocity":0.8031496062992126,"duration":0.11979166666662877},{"name":"D5","midi":74,"time":406.16536458332706,"velocity":0.8031496062992126,"duration":0.2421875},{"name":"D3","midi":50,"time":406.41276041666043,"velocity":0.8031496062992126,"duration":1.4713541666666856},{"name":"D5","midi":74,"time":406.41276041666043,"velocity":0.8031496062992126,"duration":1.4713541666666856},{"name":"D2","midi":38,"time":406.9036458333271,"velocity":0.8031496062992126,"duration":2.4544270833333712},{"name":"A2","midi":45,"time":407.3945312499938,"velocity":0.8031496062992126,"duration":0.48828125},{"name":"D3","midi":50,"time":407.8867187499938,"velocity":0.8031496062992126,"duration":1.4700520833333712},{"name":"A4","midi":69,"time":407.8867187499938,"velocity":0.8031496062992126,"duration":1.2252604166666856},{"name":"F#4","midi":66,"time":407.8867187499938,"velocity":0.8031496062992126,"duration":1.2252604166666856},{"name":"A5","midi":81,"time":409.1145833333272,"velocity":0.8031496062992126,"duration":0.2421875},{"name":"D3","midi":50,"time":409.3593749999938,"velocity":0.8031496062992126,"duration":0.9778645833333712},{"name":"A5","midi":81,"time":409.3593749999938,"velocity":0.8031496062992126,"duration":0.9778645833333712},{"name":"G5","midi":79,"time":409.6041666666605,"velocity":0.8031496062992126,"duration":0.2421875},{"name":"F#5","midi":78,"time":409.8476562499938,"velocity":0.8031496062992126,"duration":0.2421875},{"name":"E5","midi":76,"time":410.0924479166605,"velocity":0.8031496062992126,"duration":0.2421875},{"name":"F#5","midi":78,"time":410.33984374999386,"velocity":0.8031496062992126,"duration":0.4869791666666856},{"name":"D#5","midi":75,"time":410.58463541666055,"velocity":0.8031496062992126,"duration":0.2421875},{"name":"D5","midi":74,"time":410.82942708332723,"velocity":0.8031496062992126,"duration":0.2421875},{"name":"F#5","midi":78,"time":410.82942708332723,"velocity":0.8031496062992126,"duration":0.4869791666666856},{"name":"C5","midi":72,"time":411.0742187499939,"velocity":0.8031496062992126,"duration":0.2421875},{"name":"A#4","midi":70,"time":411.3190104166606,"velocity":0.8031496062992126,"duration":0.2421875},{"name":"D5","midi":74,"time":411.4101562499939,"velocity":0.8031496062992126,"duration":1.848958333333428},{"name":"G5","midi":79,"time":411.5026041666606,"velocity":0.8031496062992126,"duration":0.55859375},{"name":"A4","midi":69,"time":411.5638020833273,"velocity":0.8031496062992126,"duration":0.2421875},{"name":"G4","midi":67,"time":411.8072916666606,"velocity":0.8031496062992126,"duration":0.2421875},{"name":"F#4","midi":66,"time":412.0520833333273,"velocity":0.8031496062992126,"duration":0.2421875},{"name":"A5","midi":81,"time":412.0520833333273,"velocity":0.8031496062992126,"duration":0.2421875},{"name":"G4","midi":67,"time":412.296874999994,"velocity":0.8031496062992126,"duration":0.4869791666666856},{"name":"A5","midi":81,"time":412.296874999994,"velocity":0.8031496062992126,"duration":0.2421875},{"name":"A#5","midi":82,"time":412.54166666666066,"velocity":0.8031496062992126,"duration":0.4869791666666856},{"name":"G3","midi":55,"time":412.78645833332735,"velocity":0.8031496062992126,"duration":0.2421875},{"name":"A3","midi":57,"time":413.03124999999403,"velocity":0.8031496062992126,"duration":0.2421875},{"name":"A5","midi":81,"time":413.03124999999403,"velocity":0.8031496062992126,"duration":0.2421875},{"name":"A#3","midi":58,"time":413.2760416666607,"velocity":0.8031496062992126,"duration":0.4869791666666856},{"name":"G5","midi":79,"time":413.2760416666607,"velocity":0.8031496062992126,"duration":0.2421875},{"name":"A5","midi":81,"time":413.5208333333274,"velocity":0.8031496062992126,"duration":0.2421875},{"name":"G3","midi":55,"time":413.7656249999941,"velocity":0.8031496062992126,"duration":0.4869791666666856},{"name":"A#5","midi":82,"time":413.7656249999941,"velocity":0.8031496062992126,"duration":0.2421875},{"name":"F5","midi":77,"time":414.0104166666608,"velocity":0.8031496062992126,"duration":0.2421875},{"name":"C4","midi":60,"time":414.25520833332746,"velocity":0.8031496062992126,"duration":0.4869791666666856},{"name":"F5","midi":77,"time":414.25520833332746,"velocity":0.8031496062992126,"duration":0.2421875},{"name":"E5","midi":76,"time":414.49999999999415,"velocity":0.8031496062992126,"duration":0.2421875},{"name":"A#3","midi":58,"time":414.74479166666083,"velocity":0.8031496062992126,"duration":0.48697916666662877},{"name":"D5","midi":74,"time":414.74479166666083,"velocity":0.8031496062992126,"duration":0.2421875},{"name":"C5","midi":72,"time":414.98828124999415,"velocity":0.8031496062992126,"duration":0.2421875},{"name":"A3","midi":57,"time":415.2330729166608,"velocity":0.8031496062992126,"duration":0.2421875},{"name":"C6","midi":84,"time":415.2330729166608,"velocity":0.8031496062992126,"duration":0.7317708333333712},{"name":"C4","midi":60,"time":415.47786458332746,"velocity":0.8031496062992126,"duration":0.2421875},{"name":"D4","midi":62,"time":415.72265624999415,"velocity":0.8031496062992126,"duration":0.2421875},{"name":"E4","midi":64,"time":415.96744791666083,"velocity":0.8031496062992126,"duration":0.2421875},{"name":"G5","midi":79,"time":415.96744791666083,"velocity":0.8031496062992126,"duration":0.2421875},{"name":"F4","midi":65,"time":416.2122395833275,"velocity":0.8031496062992126,"duration":0.4869791666666856},{"name":"A5","midi":81,"time":416.2122395833275,"velocity":0.8031496062992126,"duration":0.2421875},{"name":"E5","midi":76,"time":416.4570312499942,"velocity":0.8031496062992126,"duration":0.2421875},{"name":"A#3","midi":58,"time":416.7018229166609,"velocity":0.8031496062992126,"duration":0.4869791666666856},{"name":"F5","midi":77,"time":416.7018229166609,"velocity":0.8031496062992126,"duration":0.2421875},{"name":"A#5","midi":82,"time":416.9466145833276,"velocity":0.8031496062992126,"duration":0.2421875},{"name":"C4","midi":60,"time":417.19140624999426,"velocity":0.8031496062992126,"duration":0.9778645833334281},{"name":"A5","midi":81,"time":417.19140624999426,"velocity":0.8031496062992126,"duration":0.22135416666668561},{"name":"E5","midi":76,"time":417.19140624999426,"velocity":0.8031496062992126,"duration":0.9778645833334281},{"name":"G5","midi":79,"time":417.41796874999426,"velocity":0.8031496062992126,"duration":0.11979166666668561},{"name":"A5","midi":81,"time":417.51562499999426,"velocity":0.8031496062992126,"duration":0.11979166666668561},{"name":"G5","midi":79,"time":417.61067708332763,"velocity":0.8031496062992126,"duration":0.11979166666668561},{"name":"C3","midi":48,"time":417.68098958332763,"velocity":0.8031496062992126,"duration":0.48697916666674246},{"name":"A5","midi":81,"time":417.7070312499943,"velocity":0.8031496062992126,"duration":0.11979166666668561},{"name":"G5","midi":79,"time":417.803385416661,"velocity":0.8031496062992126,"duration":0.11979166666668561},{"name":"F5","midi":77,"time":417.924479166661,"velocity":0.8031496062992126,"duration":0.11979166666668561},{"name":"G5","midi":79,"time":418.0468749999944,"velocity":0.8031496062992126,"duration":0.11979166666668561},{"name":"F3","midi":53,"time":418.1718749999944,"velocity":0.8031496062992126,"duration":0.2421875},{"name":"F5","midi":77,"time":418.1718749999944,"velocity":0.8031496062992126,"duration":1.220052083333428},{"name":"G3","midi":55,"time":418.41666666666106,"velocity":0.8031496062992126,"duration":0.2421875},{"name":"G#3","midi":56,"time":418.66145833332774,"velocity":0.8031496062992126,"duration":0.2421875},{"name":"G3","midi":55,"time":418.90624999999443,"velocity":0.8031496062992126,"duration":0.2421875},{"name":"F3","midi":53,"time":419.1510416666611,"velocity":0.8031496062992126,"duration":0.2421875},{"name":"D#3","midi":51,"time":419.3958333333278,"velocity":0.8031496062992126,"duration":0.2421875},{"name":"G5","midi":79,"time":419.3958333333278,"velocity":0.8031496062992126,"duration":0.2421875},{"name":"D3","midi":50,"time":419.6406249999945,"velocity":0.8031496062992126,"duration":0.2421875},{"name":"G#5","midi":80,"time":419.6406249999945,"velocity":0.8031496062992126,"duration":0.2421875},{"name":"D#3","midi":51,"time":419.8841145833278,"velocity":0.8031496062992126,"duration":0.2421875},{"name":"G5","midi":79,"time":419.8841145833278,"velocity":0.8031496062992126,"duration":0.2421875},{"name":"B2","midi":47,"time":420.1289062499945,"velocity":0.8031496062992126,"duration":0.4869791666666856},{"name":"F5","midi":77,"time":420.1289062499945,"velocity":0.8031496062992126,"duration":0.2421875},{"name":"D#5","midi":75,"time":420.3736979166612,"velocity":0.8031496062992126,"duration":0.2421875},{"name":"C3","midi":48,"time":420.61848958332786,"velocity":0.8031496062992126,"duration":0.4869791666666856},{"name":"D5","midi":74,"time":420.61848958332786,"velocity":0.8031496062992126,"duration":0.2421875},{"name":"D#5","midi":75,"time":420.86328124999454,"velocity":0.8031496062992126,"duration":0.2421875},{"name":"G2","midi":43,"time":421.10807291666123,"velocity":0.8031496062992126,"duration":0.4869791666666856},{"name":"C5","midi":72,"time":421.10807291666123,"velocity":0.8031496062992126,"duration":0.2421875},{"name":"B4","midi":71,"time":421.3528645833279,"velocity":0.8031496062992126,"duration":0.2421875},{"name":"G3","midi":55,"time":421.5976562499946,"velocity":0.8031496062992126,"duration":0.2421875},{"name":"A4","midi":69,"time":421.5976562499946,"velocity":0.8031496062992126,"duration":0.2421875},{"name":"F3","midi":53,"time":421.8424479166613,"velocity":0.8031496062992126,"duration":0.2421875},{"name":"G4","midi":67,"time":421.8424479166613,"velocity":0.8031496062992126,"duration":0.2421875},{"name":"D#3","midi":51,"time":422.08723958332797,"velocity":0.8031496062992126,"duration":0.4869791666666856},{"name":"C5","midi":72,"time":422.08723958332797,"velocity":0.8031496062992126,"duration":0.2421875},{"name":"B4","midi":71,"time":422.33203124999466,"velocity":0.8031496062992126,"duration":0.2421875},{"name":"G#3","midi":56,"time":422.57682291666134,"velocity":0.8031496062992126,"duration":0.48697916666662877},{"name":"C5","midi":72,"time":422.57682291666134,"velocity":0.8031496062992126,"duration":0.2421875},{"name":"D#5","midi":75,"time":422.82031249999466,"velocity":0.8031496062992126,"duration":0.2421875},{"name":"F3","midi":53,"time":423.0651041666613,"velocity":0.8031496062992126,"duration":0.4869791666666856},{"name":"D5","midi":74,"time":423.0651041666613,"velocity":0.8031496062992126,"duration":0.2421875},{"name":"D#5","midi":75,"time":423.30989583332797,"velocity":0.8031496062992126,"duration":0.2421875},{"name":"G3","midi":55,"time":423.55468749999466,"velocity":0.8031496062992126,"duration":0.4869791666666856},{"name":"F5","midi":77,"time":423.55468749999466,"velocity":0.8031496062992126,"duration":0.2421875},{"name":"D5","midi":74,"time":423.79947916666134,"velocity":0.8031496062992126,"duration":0.2421875},{"name":"C3","midi":48,"time":424.044270833328,"velocity":0.8031496062992126,"duration":0.4869791666666856},{"name":"F5","midi":77,"time":424.044270833328,"velocity":0.8031496062992126,"duration":0.2421875},{"name":"D#5","midi":75,"time":424.2890624999947,"velocity":0.8031496062992126,"duration":0.2421875},{"name":"C4","midi":60,"time":424.5338541666614,"velocity":0.8031496062992126,"duration":0.2421875},{"name":"D5","midi":74,"time":424.5338541666614,"velocity":0.8031496062992126,"duration":0.2421875},{"name":"A#3","midi":58,"time":424.7786458333281,"velocity":0.8031496062992126,"duration":0.2421875},{"name":"C5","midi":72,"time":424.7786458333281,"velocity":0.8031496062992126,"duration":0.2421875},{"name":"G#3","midi":56,"time":425.02343749999477,"velocity":0.8031496062992126,"duration":0.4869791666666856},{"name":"D5","midi":74,"time":425.02343749999477,"velocity":0.8031496062992126,"duration":0.2421875},{"name":"E5","midi":76,"time":425.26822916666146,"velocity":0.8031496062992126,"duration":0.2421875},{"name":"C#4","midi":61,"time":425.51302083332814,"velocity":0.8031496062992126,"duration":0.4869791666666856},{"name":"F5","midi":77,"time":425.51302083332814,"velocity":0.8031496062992126,"duration":0.2421875},{"name":"G5","midi":79,"time":425.7578124999948,"velocity":0.8031496062992126,"duration":0.2421875},{"name":"A#3","midi":58,"time":426.00130208332814,"velocity":0.8031496062992126,"duration":0.48697916666662877},{"name":"G#5","midi":80,"time":426.00130208332814,"velocity":0.8031496062992126,"duration":0.20833333333331439},{"name":"G5","midi":79,"time":426.21484374999477,"velocity":0.8031496062992126,"duration":0.11979166666668561},{"name":"G#5","midi":80,"time":426.32421874999477,"velocity":0.8031496062992126,"duration":0.11979166666668561},{"name":"G5","midi":79,"time":426.43359374999477,"velocity":0.8031496062992126,"duration":0.11979166666668561},{"name":"C4","midi":60,"time":426.49088541666146,"velocity":0.8031496062992126,"duration":0.4869791666666856},{"name":"G#5","midi":80,"time":426.54427083332814,"velocity":0.8031496062992126,"duration":0.11979166666662877},{"name":"G5","midi":79,"time":426.65234374999477,"velocity":0.8031496062992126,"duration":0.11979166666668561},{"name":"F5","midi":77,"time":426.76171874999477,"velocity":0.8031496062992126,"duration":0.11979166666668561},{"name":"G5","midi":79,"time":426.87109374999477,"velocity":0.8031496062992126,"duration":0.11979166666674246},{"name":"F3","midi":53,"time":426.9804687499948,"velocity":0.8031496062992126,"duration":0.2421875},{"name":"G#5","midi":80,"time":426.9804687499948,"velocity":0.8031496062992126,"duration":0.7317708333333712},{"name":"D#3","midi":51,"time":427.2252604166615,"velocity":0.8031496062992126,"duration":0.2421875},{"name":"F3","midi":53,"time":427.4700520833282,"velocity":0.8031496062992126,"duration":0.2421875},{"name":"D3","midi":50,"time":427.7148437499949,"velocity":0.8031496062992126,"duration":0.2421875},{"name":"B4","midi":71,"time":427.7148437499949,"velocity":0.8031496062992126,"duration":0.2421875},{"name":"D#3","midi":51,"time":427.95963541666157,"velocity":0.8031496062992126,"duration":0.24218750000005684},{"name":"C5","midi":72,"time":427.95963541666157,"velocity":0.8031496062992126,"duration":0.11979166666668561},{"name":"B4","midi":71,"time":428.08203124999494,"velocity":0.8031496062992126,"duration":0.11979166666668561},{"name":"G#3","midi":56,"time":428.2044270833283,"velocity":0.8031496062992126,"duration":0.2421875},{"name":"C5","midi":72,"time":428.2044270833283,"velocity":0.8031496062992126,"duration":0.4869791666666856},{"name":"G3","midi":55,"time":428.449218749995,"velocity":0.8031496062992126,"duration":0.2421875},{"name":"F3","midi":53,"time":428.6940104166617,"velocity":0.8031496062992126,"duration":0.2421875},{"name":"D5","midi":74,"time":428.6940104166617,"velocity":0.8031496062992126,"duration":0.2421875},{"name":"G3","midi":55,"time":428.937499999995,"velocity":0.8031496062992126,"duration":0.4869791666666856},{"name":"D#5","midi":75,"time":428.937499999995,"velocity":0.8031496062992126,"duration":0.18229166666668561},{"name":"B4","midi":71,"time":428.937499999995,"velocity":0.8031496062992126,"duration":0.7330729166667425},{"name":"D5","midi":74,"time":429.124999999995,"velocity":0.8031496062992126,"duration":0.11979166666668561},{"name":"D#5","midi":75,"time":429.234374999995,"velocity":0.8031496062992126,"duration":0.11979166666668561},{"name":"D5","midi":74,"time":429.343749999995,"velocity":0.8031496062992126,"duration":0.11979166666674246},{"name":"G2","midi":43,"time":429.42708333332837,"velocity":0.8031496062992126,"duration":0.48828125000005684},{"name":"D#5","midi":75,"time":429.45312499999505,"velocity":0.8031496062992126,"duration":0.11979166666668561},{"name":"D5","midi":74,"time":429.56249999999505,"velocity":0.8031496062992126,"duration":0.11979166666668561},{"name":"C5","midi":72,"time":429.67447916666174,"velocity":0.8031496062992126,"duration":0.2421875},{"name":"C2","midi":36,"time":429.9192708333284,"velocity":0.8031496062992126,"duration":0.48828125},{"name":"C5","midi":72,"time":429.9192708333284,"velocity":0.8031496062992126,"duration":1.2226562500000568},{"name":"C4","midi":60,"time":430.4101562499951,"velocity":0.8031496062992126,"duration":0.2421875},{"name":"A#3","midi":58,"time":430.6549479166618,"velocity":0.8031496062992126,"duration":0.2421875},{"name":"C4","midi":60,"time":430.8997395833285,"velocity":0.8031496062992126,"duration":0.2421875},{"name":"A#3","midi":58,"time":431.14453124999517,"velocity":0.8031496062992126,"duration":0.2421875},{"name":"D5","midi":74,"time":431.14453124999517,"velocity":0.8031496062992126,"duration":0.2421875},{"name":"A3","midi":57,"time":431.38932291666185,"velocity":0.8031496062992126,"duration":0.2421875},{"name":"D#5","midi":75,"time":431.38932291666185,"velocity":0.8031496062992126,"duration":0.2421875},{"name":"A#3","midi":58,"time":431.63411458332854,"velocity":0.8031496062992126,"duration":0.2421875},{"name":"D5","midi":74,"time":431.63411458332854,"velocity":0.8031496062992126,"duration":0.2421875},{"name":"D#3","midi":51,"time":431.8789062499952,"velocity":0.8031496062992126,"duration":0.4869791666666856},{"name":"C5","midi":72,"time":431.8789062499952,"velocity":0.8031496062992126,"duration":0.2421875},{"name":"A#4","midi":70,"time":432.1236979166619,"velocity":0.8031496062992126,"duration":0.2421875},{"name":"G3","midi":55,"time":432.3684895833286,"velocity":0.8031496062992126,"duration":0.4869791666666856},{"name":"A4","midi":69,"time":432.3684895833286,"velocity":0.8031496062992126,"duration":0.2421875},{"name":"A#4","midi":70,"time":432.6132812499953,"velocity":0.8031496062992126,"duration":0.2421875},{"name":"F3","midi":53,"time":432.8567708333286,"velocity":0.8031496062992126,"duration":0.4869791666666856},{"name":"A#4","midi":70,"time":432.8567708333286,"velocity":0.8031496062992126,"duration":0.2421875},{"name":"A4","midi":69,"time":433.1015624999953,"velocity":0.8031496062992126,"duration":0.2421875},{"name":"D#3","midi":51,"time":433.34635416666197,"velocity":0.8031496062992126,"duration":0.4869791666666856},{"name":"G4","midi":67,"time":433.34635416666197,"velocity":0.8031496062992126,"duration":0.2421875},{"name":"F4","midi":65,"time":433.59114583332865,"velocity":0.8031496062992126,"duration":0.2421875},{"name":"D3","midi":50,"time":433.83593749999534,"velocity":0.8031496062992126,"duration":0.4869791666666856},{"name":"G4","midi":67,"time":433.83593749999534,"velocity":0.8031496062992126,"duration":0.2421875},{"name":"A4","midi":69,"time":434.080729166662,"velocity":0.8031496062992126,"duration":0.2421875},{"name":"G3","midi":55,"time":434.3255208333287,"velocity":0.8031496062992126,"duration":0.4869791666666856},{"name":"A#4","midi":70,"time":434.3255208333287,"velocity":0.8031496062992126,"duration":0.2421875},{"name":"C5","midi":72,"time":434.5703124999954,"velocity":0.8031496062992126,"duration":0.2421875},{"name":"D#3","midi":51,"time":434.8151041666621,"velocity":0.8031496062992126,"duration":0.48697916666662877},{"name":"D5","midi":74,"time":434.8151041666621,"velocity":0.8031496062992126,"duration":0.20833333333331439},{"name":"C5","midi":72,"time":435.0286458333287,"velocity":0.8031496062992126,"duration":0.11979166666668561},{"name":"D5","midi":74,"time":435.1380208333287,"velocity":0.8031496062992126,"duration":0.11979166666668561},{"name":"C5","midi":72,"time":435.2473958333287,"velocity":0.8031496062992126,"duration":0.11979166666668561},{"name":"F3","midi":53,"time":435.3046874999954,"velocity":0.8031496062992126,"duration":0.4869791666666856},{"name":"D5","midi":74,"time":435.3567708333287,"velocity":0.8031496062992126,"duration":0.11979166666668561},{"name":"C5","midi":72,"time":435.4661458333287,"velocity":0.8031496062992126,"duration":0.11979166666668561},{"name":"A#4","midi":70,"time":435.5755208333287,"velocity":0.8031496062992126,"duration":0.11979166666668561},{"name":"C5","midi":72,"time":435.6848958333287,"velocity":0.8031496062992126,"duration":0.11979166666668561},{"name":"A#2","midi":46,"time":435.7929687499954,"velocity":0.8031496062992126,"duration":0.4869791666666856},{"name":"D5","midi":74,"time":435.7929687499954,"velocity":0.8031496062992126,"duration":1.950520833333485},{"name":"C5","midi":72,"time":436.0377604166621,"velocity":0.8031496062992126,"duration":0.2421875},{"name":"F3","midi":53,"time":436.28255208332877,"velocity":0.8031496062992126,"duration":0.4869791666666856},{"name":"A#4","midi":70,"time":436.28255208332877,"velocity":0.8031496062992126,"duration":0.2421875},{"name":"A4","midi":69,"time":436.52734374999545,"velocity":0.8031496062992126,"duration":0.2421875},{"name":"A#3","midi":58,"time":436.77213541666214,"velocity":0.8031496062992126,"duration":1.220052083333428},{"name":"A#4","midi":70,"time":436.77213541666214,"velocity":0.8031496062992126,"duration":0.2421875},{"name":"G4","midi":67,"time":437.0169270833288,"velocity":0.8031496062992126,"duration":0.2421875},{"name":"A4","midi":69,"time":437.2617187499955,"velocity":0.8031496062992126,"duration":0.2421875},{"name":"A#4","midi":70,"time":437.5065104166622,"velocity":0.8031496062992126,"duration":0.2421875},{"name":"E4","midi":64,"time":437.7513020833289,"velocity":0.8031496062992126,"duration":0.9778645833333712},{"name":"D4","midi":62,"time":437.99609374999557,"velocity":0.8031496062992126,"duration":0.2421875},{"name":"G4","midi":67,"time":437.99609374999557,"velocity":0.8031496062992126,"duration":0.2421875},{"name":"C4","midi":60,"time":438.24088541666225,"velocity":0.8031496062992126,"duration":0.2421875},{"name":"A4","midi":69,"time":438.24088541666225,"velocity":0.8031496062992126,"duration":0.2421875},{"name":"A#3","midi":58,"time":438.48567708332894,"velocity":0.8031496062992126,"duration":0.2421875},{"name":"A#4","midi":70,"time":438.48567708332894,"velocity":0.8031496062992126,"duration":0.2421875},{"name":"A3","midi":57,"time":438.73177083332894,"velocity":0.8031496062992126,"duration":0.4869791666666856},{"name":"C5","midi":72,"time":438.73177083332894,"velocity":0.8031496062992126,"duration":2.192708333333485},{"name":"A#4","midi":70,"time":438.9765624999956,"velocity":0.8031496062992126,"duration":0.2421875},{"name":"G3","midi":55,"time":439.2213541666623,"velocity":0.8031496062992126,"duration":0.4869791666666856},{"name":"A4","midi":69,"time":439.2213541666623,"velocity":0.8031496062992126,"duration":0.2421875},{"name":"G4","midi":67,"time":439.466145833329,"velocity":0.8031496062992126,"duration":0.2421875},{"name":"F#3","midi":54,"time":439.7109374999957,"velocity":0.8031496062992126,"duration":1.2226562500000568},{"name":"A4","midi":69,"time":439.7109374999957,"velocity":0.8031496062992126,"duration":0.2421875},{"name":"F#4","midi":66,"time":439.95572916666237,"velocity":0.8031496062992126,"duration":0.2421875},{"name":"G4","midi":67,"time":440.20052083332905,"velocity":0.8031496062992126,"duration":0.2421875},{"name":"A4","midi":69,"time":440.44531249999574,"velocity":0.8031496062992126,"duration":0.2421875},{"name":"D4","midi":62,"time":440.6901041666624,"velocity":0.8031496062992126,"duration":0.9804687500000568},{"name":"D3","midi":50,"time":440.9361979166624,"velocity":0.8031496062992126,"duration":0.2421875},{"name":"C5","midi":72,"time":440.9361979166624,"velocity":0.8031496062992126,"duration":0.2421875},{"name":"E3","midi":52,"time":441.1809895833291,"velocity":0.8031496062992126,"duration":0.2421875},{"name":"A#4","midi":70,"time":441.1809895833291,"velocity":0.8031496062992126,"duration":0.2421875},{"name":"F#3","midi":54,"time":441.4257812499958,"velocity":0.8031496062992126,"duration":0.2421875},{"name":"A4","midi":69,"time":441.4257812499958,"velocity":0.8031496062992126,"duration":0.2421875},{"name":"G3","midi":55,"time":441.6718749999958,"velocity":0.8031496062992126,"duration":0.4869791666666856},{"name":"A#4","midi":70,"time":441.6718749999958,"velocity":0.8031496062992126,"duration":1.7057291666667993},{"name":"A4","midi":69,"time":441.9166666666625,"velocity":0.8031496062992126,"duration":0.2421875},{"name":"D3","midi":50,"time":442.16145833332916,"velocity":0.8031496062992126,"duration":0.4869791666666856},{"name":"G4","midi":67,"time":442.16145833332916,"velocity":0.8031496062992126,"duration":0.2421875},{"name":"F#4","midi":66,"time":442.40624999999585,"velocity":0.8031496062992126,"duration":0.2421875},{"name":"G2","midi":43,"time":442.65104166666254,"velocity":0.8031496062992126,"duration":0.9778645833333712},{"name":"G4","midi":67,"time":442.65104166666254,"velocity":0.8031496062992126,"duration":0.2421875},{"name":"D#4","midi":63,"time":442.8958333333292,"velocity":0.8031496062992126,"duration":0.2421875},{"name":"F4","midi":65,"time":443.1406249999959,"velocity":0.8031496062992126,"duration":0.2421875},{"name":"G4","midi":67,"time":443.3854166666626,"velocity":0.8031496062992126,"duration":0.2421875},{"name":"A#4","midi":70,"time":443.3854166666626,"velocity":0.8031496062992126,"duration":0.2421875},{"name":"D4","midi":62,"time":443.6315104166626,"velocity":0.8031496062992126,"duration":0.22135416666668561},{"name":"A#4","midi":70,"time":443.6315104166626,"velocity":0.8031496062992126,"duration":0.2421875},{"name":"C#4","midi":61,"time":443.8450520833293,"velocity":0.8031496062992126,"duration":0.11979166666668561},{"name":"A4","midi":69,"time":443.8763020833293,"velocity":0.8031496062992126,"duration":0.2421875},{"name":"D4","midi":62,"time":443.9544270833293,"velocity":0.8031496062992126,"duration":0.11979166666668561},{"name":"C#4","midi":61,"time":444.0638020833293,"velocity":0.8031496062992126,"duration":0.11979166666668561},{"name":"A#4","midi":70,"time":444.12109374999596,"velocity":0.8031496062992126,"duration":0.2421875},{"name":"D4","midi":62,"time":444.1731770833293,"velocity":0.8031496062992126,"duration":0.11979166666668561},{"name":"C#4","midi":61,"time":444.2825520833293,"velocity":0.8031496062992126,"duration":0.11979166666674246},{"name":"G4","midi":67,"time":444.36588541666265,"velocity":0.8031496062992126,"duration":0.23567708333337123},{"name":"B3","midi":59,"time":444.39192708332934,"velocity":0.8031496062992126,"duration":0.11979166666668561},{"name":"C#4","midi":61,"time":444.50130208332934,"velocity":0.8031496062992126,"duration":0.11979166666668561},{"name":"D4","midi":62,"time":444.61067708332934,"velocity":0.8031496062992126,"duration":2.192708333333485},{"name":"G4","midi":67,"time":444.61067708332934,"velocity":0.8031496062992126,"duration":0.3268229166666856},{"name":"A#3","midi":58,"time":444.855468749996,"velocity":0.8031496062992126,"duration":0.2421875},{"name":"F#4","midi":66,"time":444.91536458332934,"velocity":0.8031496062992126,"duration":0.11979166666668561},{"name":"G4","midi":67,"time":445.01302083332934,"velocity":0.8031496062992126,"duration":0.11979166666668561},{"name":"A3","midi":57,"time":445.1002604166627,"velocity":0.8031496062992126,"duration":0.2421875},{"name":"F#4","midi":66,"time":445.13411458332934,"velocity":0.8031496062992126,"duration":0.11979166666668561},{"name":"G4","midi":67,"time":445.230468749996,"velocity":0.8031496062992126,"duration":0.11979166666668561},{"name":"F#4","midi":66,"time":445.3268229166627,"velocity":0.8031496062992126,"duration":0.11979166666668561},{"name":"G3","midi":55,"time":445.3450520833294,"velocity":0.8031496062992126,"duration":0.2421875},{"name":"G4","midi":67,"time":445.4231770833294,"velocity":0.8031496062992126,"duration":0.11979166666668561},{"name":"F#4","midi":66,"time":445.5195312499961,"velocity":0.8031496062992126,"duration":0.11979166666668561},{"name":"A3","midi":57,"time":445.5898437499961,"velocity":0.8031496062992126,"duration":0.24218750000005684},{"name":"G4","midi":67,"time":445.61588541666276,"velocity":0.8031496062992126,"duration":0.11979166666668561},{"name":"F#4","midi":66,"time":445.71223958332945,"velocity":0.8031496062992126,"duration":0.11979166666668561},{"name":"G4","midi":67,"time":445.80859374999613,"velocity":0.8031496062992126,"duration":0.11979166666668561},{"name":"D3","midi":50,"time":445.8346354166628,"velocity":0.8031496062992126,"duration":0.2421875},{"name":"F#4","midi":66,"time":445.9049479166628,"velocity":0.8031496062992126,"duration":0.16927083333331439},{"name":"D#3","midi":51,"time":446.0794270833295,"velocity":0.8031496062992126,"duration":0.2421875},{"name":"G4","midi":67,"time":446.0794270833295,"velocity":0.8031496062992126,"duration":0.2421875},{"name":"C3","midi":48,"time":446.3242187499962,"velocity":0.8031496062992126,"duration":0.2421875},{"name":"A4","midi":69,"time":446.3242187499962,"velocity":0.8031496062992126,"duration":0.2421875},{"name":"B2","midi":47,"time":446.5677083333295,"velocity":0.8031496062992126,"duration":0.24348958333331439},{"name":"G4","midi":67,"time":446.5677083333295,"velocity":0.8031496062992126,"duration":0.24348958333331439},{"name":"C3","midi":48,"time":446.8151041666628,"velocity":0.8031496062992126,"duration":0.2421875},{"name":"F4","midi":65,"time":446.8151041666628,"velocity":0.8031496062992126,"duration":0.2421875},{"name":"D3","midi":50,"time":447.0598958333295,"velocity":0.8031496062992126,"duration":0.2421875},{"name":"D#4","midi":63,"time":447.0598958333295,"velocity":0.8031496062992126,"duration":0.2421875},{"name":"G2","midi":43,"time":447.3046874999962,"velocity":0.8031496062992126,"duration":0.2421875},{"name":"D4","midi":62,"time":447.3046874999962,"velocity":0.8031496062992126,"duration":0.2421875},{"name":"C3","midi":48,"time":447.5494791666629,"velocity":0.8031496062992126,"duration":0.2421875},{"name":"D#4","midi":63,"time":447.5494791666629,"velocity":0.8031496062992126,"duration":0.9778645833333712},{"name":"D3","midi":50,"time":447.79427083332956,"velocity":0.8031496062992126,"duration":0.2421875},{"name":"A#3","midi":58,"time":447.79427083332956,"velocity":0.8031496062992126,"duration":0.2421875},{"name":"C3","midi":48,"time":448.03906249999625,"velocity":0.8031496062992126,"duration":0.2421875},{"name":"A3","midi":57,"time":448.03906249999625,"velocity":0.8031496062992126,"duration":0.2421875},{"name":"A#2","midi":46,"time":448.28385416666293,"velocity":0.8031496062992126,"duration":0.2421875},{"name":"G3","midi":55,"time":448.28385416666293,"velocity":0.8031496062992126,"duration":0.2421875},{"name":"A2","midi":45,"time":448.52994791666293,"velocity":0.8031496062992126,"duration":0.4869791666666856},{"name":"C4","midi":60,"time":448.52994791666293,"velocity":0.8031496062992126,"duration":0.2421875},{"name":"D#4","midi":63,"time":448.7747395833296,"velocity":0.8031496062992126,"duration":0.2421875},{"name":"A#2","midi":46,"time":449.0195312499963,"velocity":0.8031496062992126,"duration":0.4869791666666856},{"name":"G4","midi":67,"time":449.0195312499963,"velocity":0.8031496062992126,"duration":0.2421875},{"name":"A#4","midi":70,"time":449.264322916663,"velocity":0.8031496062992126,"duration":0.2421875},{"name":"C3","midi":48,"time":449.5091145833297,"velocity":0.8031496062992126,"duration":0.2421875},{"name":"A4","midi":69,"time":449.5091145833297,"velocity":0.8031496062992126,"duration":0.2421875},{"name":"D#3","midi":51,"time":449.75390624999636,"velocity":0.8031496062992126,"duration":0.2421875},{"name":"F#4","midi":66,"time":449.75390624999636,"velocity":0.8031496062992126,"duration":0.2421875},{"name":"D3","midi":50,"time":449.99869791666305,"velocity":0.8031496062992126,"duration":0.2421875},{"name":"G4","midi":67,"time":449.99869791666305,"velocity":0.8031496062992126,"duration":0.2421875},{"name":"C3","midi":48,"time":450.24218749999636,"velocity":0.8031496062992126,"duration":0.2421875},{"name":"A4","midi":69,"time":450.24218749999636,"velocity":0.8031496062992126,"duration":0.2421875},{"name":"F#3","midi":54,"time":450.48697916666305,"velocity":0.8031496062992126,"duration":0.4869791666666856},{"name":"D4","midi":62,"time":450.48697916666305,"velocity":0.8031496062992126,"duration":0.9778645833333712},{"name":"F#4","midi":66,"time":450.73177083332973,"velocity":0.8031496062992126,"duration":0.2421875},{"name":"D3","midi":50,"time":450.9765624999964,"velocity":0.8031496062992126,"duration":0.4869791666666856},{"name":"A4","midi":69,"time":450.9765624999964,"velocity":0.8031496062992126,"duration":0.2421875},{"name":"C5","midi":72,"time":451.2213541666631,"velocity":0.8031496062992126,"duration":0.2421875},{"name":"G3","midi":55,"time":451.4687499999964,"velocity":0.8031496062992126,"duration":0.4869791666666856},{"name":"C5","midi":72,"time":451.4687499999964,"velocity":0.8031496062992126,"duration":0.20442708333331439},{"name":"G4","midi":67,"time":451.4687499999964,"velocity":0.8031496062992126,"duration":0.7330729166667425},{"name":"A#4","midi":70,"time":451.6953124999964,"velocity":0.8031496062992126,"duration":0.11979166666668561},{"name":"C5","midi":72,"time":451.7916666666631,"velocity":0.8031496062992126,"duration":0.11979166666668561},{"name":"A#4","midi":70,"time":451.8880208333298,"velocity":0.8031496062992126,"duration":0.11979166666668561},{"name":"C3","midi":48,"time":451.9583333333298,"velocity":0.8031496062992126,"duration":0.4908854166666856},{"name":"C5","midi":72,"time":451.9843749999965,"velocity":0.8031496062992126,"duration":0.11979166666668561},{"name":"A#4","midi":70,"time":452.08072916666316,"velocity":0.8031496062992126,"duration":0.11979166666668561},{"name":"A4","midi":69,"time":452.20442708332985,"velocity":0.8031496062992126,"duration":0.24348958333331439},{"name":"D3","midi":50,"time":452.45182291666316,"velocity":0.8031496062992126,"duration":1.0143229166668561},{"name":"A#4","midi":70,"time":452.45182291666316,"velocity":0.8031496062992126,"duration":0.12369791666668561},{"name":"F#4","midi":66,"time":452.45182291666316,"velocity":0.8031496062992126,"duration":0.7591145833335418},{"name":"A4","midi":69,"time":452.57812499999653,"velocity":0.8031496062992126,"duration":0.12369791666668561},{"name":"A#4","midi":70,"time":452.7044270833299,"velocity":0.8031496062992126,"duration":0.12369791666668561},{"name":"A4","midi":69,"time":452.8307291666633,"velocity":0.8031496062992126,"duration":0.12369791666668561},{"name":"D2","midi":38,"time":452.95703124999665,"velocity":0.8031496062992126,"duration":0.5052083333333712},{"name":"A#4","midi":70,"time":452.95703124999665,"velocity":0.8031496062992126,"duration":0.12369791666668561},{"name":"A4","midi":69,"time":453.08463541666333,"velocity":0.8031496062992126,"duration":0.12369791666668561},{"name":"G4","midi":67,"time":453.21223958333,"velocity":0.8031496062992126,"duration":0.25},{"name":"G2","midi":43,"time":453.46744791666333,"velocity":0.8031496062992126,"duration":4.4921875},{"name":"G4","midi":67,"time":453.46744791666333,"velocity":0.8031496062992126,"duration":4.4921875},{"name":"A#2","midi":46,"time":454.00390624999665,"velocity":0.8031496062992126,"duration":0.53125},{"name":"D3","midi":50,"time":454.53776041666333,"velocity":0.8031496062992126,"duration":0.53125},{"name":"G3","midi":55,"time":455.07161458333,"velocity":0.8031496062992126,"duration":2.8645833333333144},{"name":"D4","midi":62,"time":455.07161458333,"velocity":0.8031496062992126,"duration":2.8645833333333144},{"name":"A#3","midi":58,"time":455.07161458333,"velocity":0.8031496062992126,"duration":2.8645833333333144},{"name":"A#4","midi":70,"time":460.38671874999665,"velocity":0.8031496062992126,"duration":0.5286458333333144},{"name":"G4","midi":67,"time":460.38671874999665,"velocity":0.8031496062992126,"duration":0.5286458333333144},{"name":"D4","midi":62,"time":460.38671874999665,"velocity":0.8031496062992126,"duration":0.5286458333333144},{"name":"G3","midi":55,"time":460.38671874999665,"velocity":0.8031496062992126,"duration":1.0651041666666288},{"name":"D3","midi":50,"time":460.38671874999665,"velocity":0.8031496062992126,"duration":1.0651041666666288},{"name":"G2","midi":43,"time":460.38671874999665,"velocity":0.8031496062992126,"duration":10.656250000000227},{"name":"C4","midi":60,"time":460.92317708332996,"velocity":0.8031496062992126,"duration":0.5286458333333144},{"name":"A4","midi":69,"time":460.92317708332996,"velocity":0.8031496062992126,"duration":0.5286458333333144},{"name":"A4","midi":69,"time":461.45833333332996,"velocity":0.8031496062992126,"duration":1.59765625},{"name":"C4","midi":60,"time":461.45833333332996,"velocity":0.8031496062992126,"duration":3.2057291666666856},{"name":"D#3","midi":51,"time":461.45833333332996,"velocity":0.8031496062992126,"duration":6.411458333333428},{"name":"C5","midi":72,"time":463.06380208332996,"velocity":0.8031496062992126,"duration":0.2604166666666856},{"name":"A#4","midi":70,"time":463.33203124999665,"velocity":0.8031496062992126,"duration":0.2604166666666856},{"name":"C5","midi":72,"time":463.59895833333,"velocity":0.8031496062992126,"duration":0.5286458333333144},{"name":"A4","midi":69,"time":464.13541666666333,"velocity":0.8031496062992126,"duration":0.5286458333333144},{"name":"C4","midi":60,"time":464.67057291666333,"velocity":0.8031496062992126,"duration":3.2057291666667425},{"name":"F#4","midi":66,"time":464.67057291666333,"velocity":0.8031496062992126,"duration":1.59765625},{"name":"A3","midi":57,"time":464.67057291666333,"velocity":0.8031496062992126,"duration":3.2057291666667425},{"name":"A4","midi":69,"time":466.27604166666333,"velocity":0.8031496062992126,"duration":0.2604166666666856},{"name":"G4","midi":67,"time":466.54427083333,"velocity":0.8031496062992126,"duration":0.2604166666666856},{"name":"A4","midi":69,"time":466.8124999999967,"velocity":0.8031496062992126,"duration":0.5286458333333144},{"name":"D#4","midi":63,"time":467.3476562499967,"velocity":0.8031496062992126,"duration":0.5286458333333712},{"name":"A3","midi":57,"time":467.8841145833301,"velocity":0.8031496062992126,"duration":2.1406250000001137},{"name":"D#4","midi":63,"time":467.8841145833301,"velocity":0.8031496062992126,"duration":1.0651041666666856},{"name":"C3","midi":48,"time":467.8841145833301,"velocity":0.8031496062992126,"duration":2.138020833333428},{"name":"F#3","midi":54,"time":467.8841145833301,"velocity":0.8031496062992126,"duration":2.138020833333428},{"name":"D#4","midi":63,"time":468.95572916666345,"velocity":0.8031496062992126,"duration":0.171875},{"name":"D4","midi":62,"time":469.13411458333013,"velocity":0.8031496062992126,"duration":0.171875},{"name":"D#4","midi":63,"time":469.31380208333013,"velocity":0.8031496062992126,"duration":0.171875},{"name":"D4","midi":62,"time":469.49348958333013,"velocity":0.8031496062992126,"duration":0.2604166666666856},{"name":"C4","midi":60,"time":469.7604166666635,"velocity":0.8031496062992126,"duration":0.2604166666666856},{"name":"A#3","midi":58,"time":470.0273437499969,"velocity":0.8031496062992126,"duration":1.59765625},{"name":"G3","midi":55,"time":470.0273437499969,"velocity":0.8031496062992126,"duration":2.13671875},{"name":"D3","midi":50,"time":470.0273437499969,"velocity":0.8031496062992126,"duration":4.277343750000057},{"name":"G2","midi":43,"time":471.0794270833302,"velocity":0.8031496062992126,"duration":11.787760416667027},{"name":"A3","midi":57,"time":471.63151041666356,"velocity":0.8031496062992126,"duration":0.5286458333333144},{"name":"G3","midi":55,"time":472.1653645833302,"velocity":0.8031496062992126,"duration":1.0651041666666856},{"name":"A#3","midi":58,"time":473.23697916666356,"velocity":0.8031496062992126,"duration":1.0598958333333712},{"name":"D4","midi":62,"time":473.23697916666356,"velocity":0.8031496062992126,"duration":0.5286458333333144},{"name":"F4","midi":65,"time":473.7734374999969,"velocity":0.8031496062992126,"duration":0.2604166666666856},{"name":"E4","midi":64,"time":474.04036458333024,"velocity":0.8031496062992126,"duration":0.26302083333337123},{"name":"B3","midi":59,"time":474.3111979166636,"velocity":0.8031496062992126,"duration":2.13671875},{"name":"F4","midi":65,"time":474.3111979166636,"velocity":0.8031496062992126,"duration":1.59765625},{"name":"G3","midi":55,"time":474.3111979166636,"velocity":0.8031496062992126,"duration":3.2057291666666288},{"name":"D3","midi":50,"time":474.3111979166636,"velocity":0.8031496062992126,"duration":2.1341145833333144},{"name":"D4","midi":62,"time":475.9166666666636,"velocity":0.8031496062992126,"duration":0.5286458333333144},{"name":"E4","midi":64,"time":476.44921874999693,"velocity":0.8031496062992126,"duration":0.5286458333333144},{"name":"C4","midi":60,"time":476.44921874999693,"velocity":0.8031496062992126,"duration":1.0598958333333144},{"name":"C3","midi":48,"time":476.44921874999693,"velocity":0.8031496062992126,"duration":0.5286458333333144},{"name":"G4","midi":67,"time":476.98567708333024,"velocity":0.8031496062992126,"duration":0.2604166666666856},{"name":"D3","midi":50,"time":476.98567708333024,"velocity":0.8031496062992126,"duration":0.53125},{"name":"F#4","midi":66,"time":477.25390624999693,"velocity":0.8031496062992126,"duration":0.2630208333333144},{"name":"G4","midi":67,"time":477.52343749999693,"velocity":0.8031496062992126,"duration":1.59765625},{"name":"C4","midi":60,"time":477.52343749999693,"velocity":0.8031496062992126,"duration":3.2057291666667425},{"name":"A3","midi":57,"time":477.52343749999693,"velocity":0.8031496062992126,"duration":3.2057291666667425},{"name":"D#3","midi":51,"time":477.52343749999693,"velocity":0.8031496062992126,"duration":3.2057291666667425},{"name":"A4","midi":69,"time":479.12890624999693,"velocity":0.8031496062992126,"duration":0.5286458333333144},{"name":"F#4","midi":66,"time":479.66406249999693,"velocity":0.8031496062992126,"duration":0.2604166666666856},{"name":"G4","midi":67,"time":479.9322916666636,"velocity":0.8031496062992126,"duration":0.2604166666666856},{"name":"F#4","midi":66,"time":480.2005208333303,"velocity":0.8031496062992126,"duration":0.2604166666666856},{"name":"G4","midi":67,"time":480.468749999997,"velocity":0.8031496062992126,"duration":0.2604166666666856},{"name":"C#4","midi":61,"time":480.73567708333036,"velocity":0.8031496062992126,"duration":2.138020833333485},{"name":"A4","midi":69,"time":480.73567708333036,"velocity":0.8031496062992126,"duration":0.2604166666666856},{"name":"A#3","midi":58,"time":480.73567708333036,"velocity":0.8031496062992126,"duration":2.1367187500001705},{"name":"E3","midi":52,"time":480.73567708333036,"velocity":0.8031496062992126,"duration":2.1367187500001705},{"name":"G4","midi":67,"time":481.00390624999704,"velocity":0.8031496062992126,"duration":0.2604166666666856},{"name":"A4","midi":69,"time":481.27213541666373,"velocity":0.8031496062992126,"duration":0.2604166666666856},{"name":"G4","midi":67,"time":481.5390624999971,"velocity":0.8031496062992126,"duration":0.2604166666666856},{"name":"A4","midi":69,"time":481.8072916666638,"velocity":0.8031496062992126,"duration":0.2604166666666856},{"name":"G4","midi":67,"time":482.0755208333305,"velocity":0.8031496062992126,"duration":0.2604166666666856},{"name":"F#4","midi":66,"time":482.34374999999716,"velocity":0.8031496062992126,"duration":0.2604166666666856},{"name":"G4","midi":67,"time":482.61067708333053,"velocity":0.8031496062992126,"duration":0.2604166666666856},{"name":"A4","midi":69,"time":482.87760416666384,"velocity":0.8031496062992126,"duration":1.05859375},{"name":"D3","midi":50,"time":482.87760416666384,"velocity":0.8031496062992126,"duration":1.05859375},{"name":"C#4","midi":61,"time":483.41276041666384,"velocity":0.8031496062992126,"duration":0.5286458333333144},{"name":"E3","midi":52,"time":483.41276041666384,"velocity":0.8031496062992126,"duration":0.5286458333333144},{"name":"D4","midi":62,"time":483.94921874999716,"velocity":0.8031496062992126,"duration":2.1341145833333144},{"name":"A4","midi":69,"time":483.94921874999716,"velocity":0.8031496062992126,"duration":2.1341145833333144},{"name":"A3","midi":57,"time":483.94921874999716,"velocity":0.8031496062992126,"duration":2.1341145833333144},{"name":"D3","midi":50,"time":483.94921874999716,"velocity":0.8031496062992126,"duration":2.1341145833333144},{"name":"F#3","midi":54,"time":483.94921874999716,"velocity":0.8031496062992126,"duration":2.1341145833333144},{"name":"F3","midi":53,"time":486.1106770833305,"velocity":0.8031496062992126,"duration":4.278645833333428},{"name":"D3","midi":50,"time":486.1106770833305,"velocity":0.8031496062992126,"duration":4.278645833333428},{"name":"A#3","midi":58,"time":486.1106770833305,"velocity":0.8031496062992126,"duration":4.278645833333428},{"name":"F4","midi":65,"time":486.1106770833305,"velocity":0.8031496062992126,"duration":1.05859375},{"name":"A#4","midi":70,"time":486.1106770833305,"velocity":0.8031496062992126,"duration":0.5286458333333144},{"name":"D5","midi":74,"time":486.6458333333305,"velocity":0.8031496062992126,"duration":0.5286458333333144},{"name":"F4","midi":65,"time":487.1822916666638,"velocity":0.8031496062992126,"duration":2.3971354166666856},{"name":"D5","midi":74,"time":487.1822916666638,"velocity":0.8031496062992126,"duration":1.59765625},{"name":"A#4","midi":70,"time":487.1822916666638,"velocity":0.8031496062992126,"duration":1.59765625},{"name":"F5","midi":77,"time":487.1822916666638,"velocity":0.8031496062992126,"duration":1.59765625},{"name":"A#4","midi":70,"time":488.7877604166638,"velocity":0.8031496062992126,"duration":0.5286458333333144},{"name":"G#4","midi":68,"time":489.3229166666638,"velocity":0.8031496062992126,"duration":0.26302083333337123},{"name":"F4","midi":65,"time":489.59244791666384,"velocity":0.8031496062992126,"duration":0.5286458333333712},{"name":"G4","midi":67,"time":489.86067708333053,"velocity":0.8031496062992126,"duration":0.5286458333333712},{"name":"G3","midi":55,"time":490.3971354166639,"velocity":0.8031496062992126,"duration":3.2057291666666288},{"name":"B2","midi":47,"time":490.3971354166639,"velocity":0.8031496062992126,"duration":5.356770833333485},{"name":"D4","midi":62,"time":490.3971354166639,"velocity":0.8031496062992126,"duration":2.1341145833333144},{"name":"G4","midi":67,"time":490.3971354166639,"velocity":0.8031496062992126,"duration":2.1341145833333144},{"name":"F4","midi":65,"time":490.3971354166639,"velocity":0.8031496062992126,"duration":2.1341145833333144},{"name":"D5","midi":74,"time":492.5377604166639,"velocity":0.8031496062992126,"duration":3.2096354166667993},{"name":"F5","midi":77,"time":493.0729166666639,"velocity":0.8031496062992126,"duration":0.5286458333333144},{"name":"F3","midi":53,"time":493.6093749999972,"velocity":0.8031496062992126,"duration":1.0651041666666856},{"name":"G#5","midi":80,"time":493.6093749999972,"velocity":0.8031496062992126,"duration":1.0651041666666856},{"name":"D#3","midi":51,"time":494.6809895833306,"velocity":0.8031496062992126,"duration":0.5286458333333712},{"name":"G#5","midi":80,"time":494.6809895833306,"velocity":0.8031496062992126,"duration":0.2604166666666856},{"name":"G5","midi":79,"time":494.94921874999727,"velocity":0.8031496062992126,"duration":0.2604166666666856},{"name":"D3","midi":50,"time":495.21614583333064,"velocity":0.8031496062992126,"duration":0.5312500000000568},{"name":"F5","midi":77,"time":495.21614583333064,"velocity":0.8031496062992126,"duration":0.2604166666666856},{"name":"G#5","midi":80,"time":495.4843749999973,"velocity":0.8031496062992126,"duration":0.12760416666668561},{"name":"G5","midi":79,"time":495.619791666664,"velocity":0.8031496062992126,"duration":0.12760416666668561},{"name":"C3","midi":48,"time":495.7539062499974,"velocity":0.8031496062992126,"duration":3.2057291666666288},{"name":"G4","midi":67,"time":495.7539062499974,"velocity":0.8031496062992126,"duration":1.59765625},{"name":"D#5","midi":75,"time":495.7539062499974,"velocity":0.8031496062992126,"duration":1.59765625},{"name":"G3","midi":55,"time":496.8242187499974,"velocity":0.8031496062992126,"duration":1.0651041666666288},{"name":"D5","midi":74,"time":497.3593749999974,"velocity":0.8031496062992126,"duration":0.5286458333333144},{"name":"F4","midi":65,"time":497.3593749999974,"velocity":0.8031496062992126,"duration":0.5286458333333144},{"name":"C4","midi":60,"time":497.8958333333307,"velocity":0.8031496062992126,"duration":1.0651041666666288},{"name":"C5","midi":72,"time":497.8958333333307,"velocity":0.8031496062992126,"duration":1.0651041666666288},{"name":"D#4","midi":63,"time":497.8958333333307,"velocity":0.8031496062992126,"duration":1.0651041666666288},{"name":"F#2","midi":42,"time":498.967447916664,"velocity":0.8031496062992126,"duration":0.5286458333333144},{"name":"A4","midi":69,"time":498.967447916664,"velocity":0.8031496062992126,"duration":1.0651041666666288},{"name":"D#5","midi":75,"time":498.967447916664,"velocity":0.8031496062992126,"duration":10.691406249999943},{"name":"C5","midi":72,"time":498.967447916664,"velocity":0.8031496062992126,"duration":1.0651041666666288},{"name":"A2","midi":45,"time":499.502604166664,"velocity":0.8031496062992126,"duration":0.5286458333333144},{"name":"C3","midi":48,"time":500.0390624999973,"velocity":0.8031496062992126,"duration":0.5286458333333144},{"name":"A4","midi":69,"time":500.0390624999973,"velocity":0.8031496062992126,"duration":2.13671875},{"name":"F#4","midi":66,"time":500.0390624999973,"velocity":0.8031496062992126,"duration":2.13671875},{"name":"A2","midi":45,"time":500.5742187499973,"velocity":0.8031496062992126,"duration":0.5286458333333144},{"name":"A2","midi":45,"time":501.11067708333064,"velocity":0.8031496062992126,"duration":0.2604166666666856},{"name":"G2","midi":43,"time":501.377604166664,"velocity":0.8031496062992126,"duration":0.2604166666666856},{"name":"F#2","midi":42,"time":501.6458333333307,"velocity":0.8031496062992126,"duration":0.5286458333333144},{"name":"G2","midi":43,"time":502.182291666664,"velocity":0.8031496062992126,"duration":0.5286458333333144},{"name":"D5","midi":74,"time":502.182291666664,"velocity":0.8031496062992126,"duration":1.0651041666666288},{"name":"A#4","midi":70,"time":502.182291666664,"velocity":0.8031496062992126,"duration":1.0651041666666288},{"name":"A#2","midi":46,"time":502.717447916664,"velocity":0.8031496062992126,"duration":0.5286458333333144},{"name":"C#3","midi":49,"time":503.2539062499973,"velocity":0.8031496062992126,"duration":0.5286458333333144},{"name":"G4","midi":67,"time":503.2539062499973,"velocity":0.8031496062992126,"duration":2.13671875},{"name":"A#4","midi":70,"time":503.2539062499973,"velocity":0.8031496062992126,"duration":2.13671875},{"name":"A#2","midi":46,"time":503.7890624999973,"velocity":0.8031496062992126,"duration":0.5286458333333144},{"name":"A#2","midi":46,"time":504.32552083333064,"velocity":0.8031496062992126,"duration":0.2604166666666856},{"name":"G#2","midi":44,"time":504.592447916664,"velocity":0.8031496062992126,"duration":0.2604166666666856},{"name":"G2","midi":43,"time":504.8606770833307,"velocity":0.8031496062992126,"duration":0.5286458333333144},{"name":"G#2","midi":44,"time":505.39583333333064,"velocity":0.8031496062992126,"duration":0.5286458333333144},{"name":"F4","midi":65,"time":505.39583333333064,"velocity":0.8031496062992126,"duration":1.0651041666666288},{"name":"B4","midi":71,"time":505.39583333333064,"velocity":0.8031496062992126,"duration":1.0651041666666288},{"name":"B2","midi":47,"time":505.93229166666396,"velocity":0.8031496062992126,"duration":0.5286458333333144},{"name":"D3","midi":50,"time":506.46744791666396,"velocity":0.8031496062992126,"duration":0.5286458333333144},{"name":"F4","midi":65,"time":506.46744791666396,"velocity":0.8031496062992126,"duration":3.2083333333333144},{"name":"G#4","midi":68,"time":506.46744791666396,"velocity":0.8031496062992126,"duration":1.0651041666666288},{"name":"B2","midi":47,"time":507.00390624999727,"velocity":0.8031496062992126,"duration":0.5286458333333144},{"name":"B2","midi":47,"time":507.53906249999727,"velocity":0.8031496062992126,"duration":0.2604166666666856},{"name":"B4","midi":71,"time":507.53906249999727,"velocity":0.8031496062992126,"duration":1.0651041666666856},{"name":"A#2","midi":46,"time":507.80729166666396,"velocity":0.8031496062992126,"duration":0.2604166666666856},{"name":"G#2","midi":44,"time":508.07552083333064,"velocity":0.8031496062992126,"duration":0.5286458333333144},{"name":"D#3","midi":51,"time":508.61067708333064,"velocity":0.8031496062992126,"duration":1.0651041666666288},{"name":"B4","midi":71,"time":508.61067708333064,"velocity":0.8031496062992126,"duration":0.5286458333333144},{"name":"G#4","midi":68,"time":509.14713541666396,"velocity":0.8031496062992126,"duration":0.5286458333333144},{"name":"D#2","midi":39,"time":509.68229166666396,"velocity":0.8031496062992126,"duration":2.1875},{"name":"G4","midi":67,"time":509.68229166666396,"velocity":0.8031496062992126,"duration":2.1875},{"name":"A#4","midi":70,"time":509.68229166666396,"velocity":0.8031496062992126,"duration":2.1875},{"name":"D#5","midi":75,"time":509.68229166666396,"velocity":0.8031496062992126,"duration":2.1875},{"name":"E2","midi":40,"time":511.86588541666396,"velocity":0.8031496062992126,"duration":9.615885416666458},{"name":"C#5","midi":73,"time":511.86588541666396,"velocity":0.8031496062992126,"duration":0.5286458333333144},{"name":"A#4","midi":70,"time":512.4010416666639,"velocity":0.8031496062992126,"duration":0.5286458333333712},{"name":"E3","midi":52,"time":512.9374999999973,"velocity":0.8031496062992126,"duration":2.1367187499998863},{"name":"G4","midi":67,"time":512.9374999999973,"velocity":0.8031496062992126,"duration":1.59765625},{"name":"C#4","midi":61,"time":512.9374999999973,"velocity":0.8031496062992126,"duration":2.1367187499998863},{"name":"A#4","midi":70,"time":512.9374999999973,"velocity":0.8031496062992126,"duration":1.59765625},{"name":"A#4","midi":70,"time":514.5416666666639,"velocity":0.8031496062992126,"duration":0.26041666666662877},{"name":"G#4","midi":68,"time":514.8098958333305,"velocity":0.8031496062992126,"duration":0.26041666666662877},{"name":"A#4","midi":70,"time":515.0755208333305,"velocity":0.8031496062992126,"duration":0.5286458333333712},{"name":"G4","midi":67,"time":515.6119791666639,"velocity":0.8031496062992126,"duration":0.5286458333333712},{"name":"E3","midi":52,"time":516.1471354166639,"velocity":0.8031496062992126,"duration":2.1367187499998863},{"name":"C#4","midi":61,"time":516.1471354166639,"velocity":0.8031496062992126,"duration":2.1367187499998863},{"name":"G4","midi":67,"time":516.1471354166639,"velocity":0.8031496062992126,"duration":1.59765625},{"name":"E4","midi":64,"time":516.1471354166639,"velocity":0.8031496062992126,"duration":1.59765625},{"name":"G4","midi":67,"time":517.7526041666639,"velocity":0.8031496062992126,"duration":0.26041666666662877},{"name":"F4","midi":65,"time":518.0208333333305,"velocity":0.8031496062992126,"duration":0.26041666666662877},{"name":"G4","midi":67,"time":518.2864583333304,"velocity":0.8031496062992126,"duration":0.5286458333333712},{"name":"E4","midi":64,"time":518.8216145833304,"velocity":0.8031496062992126,"duration":0.5286458333333712},{"name":"E3","midi":52,"time":519.3580729166638,"velocity":0.8031496062992126,"duration":2.1341145833333712},{"name":"C#4","midi":61,"time":519.3580729166638,"velocity":0.8031496062992126,"duration":1.59765625},{"name":"G3","midi":55,"time":519.3580729166638,"velocity":0.8031496062992126,"duration":2.13671875},{"name":"E4","midi":64,"time":519.3580729166638,"velocity":0.8031496062992126,"duration":1.59765625},{"name":"A#4","midi":70,"time":520.9635416666638,"velocity":0.8031496062992126,"duration":0.26041666666662877},{"name":"A4","midi":69,"time":521.230468749997,"velocity":0.8031496062992126,"duration":0.26041666666674246},{"name":"F#2","midi":42,"time":521.4973958333304,"velocity":0.8031496062992126,"duration":1.0690104166664014},{"name":"A4","midi":69,"time":521.4973958333304,"velocity":0.8031496062992126,"duration":0.26041666666662877},{"name":"C5","midi":72,"time":521.7643229166637,"velocity":0.8031496062992126,"duration":0.12760416666662877},{"name":"A#4","midi":70,"time":521.8997395833303,"velocity":0.8031496062992126,"duration":0.12760416666662877},{"name":"A4","midi":69,"time":522.0351562499969,"velocity":0.8031496062992126,"duration":0.12760416666662877},{"name":"A#4","midi":70,"time":522.1692708333302,"velocity":0.8031496062992126,"duration":0.12760416666662877},{"name":"C5","midi":72,"time":522.3046874999968,"velocity":0.8031496062992126,"duration":1.05859375},{"name":"A3","midi":57,"time":522.5729166666634,"velocity":0.8031496062992126,"duration":2.144531249999659},{"name":"D4","midi":62,"time":522.5729166666634,"velocity":0.8031496062992126,"duration":1.953124999999659},{"name":"E4","midi":64,"time":523.3763020833302,"velocity":0.8031496062992126,"duration":0.12760416666662877},{"name":"F#4","midi":66,"time":523.5117187499968,"velocity":0.8031496062992126,"duration":0.12760416666662877},{"name":"G4","midi":67,"time":523.6458333333301,"velocity":0.8031496062992126,"duration":0.12760416666662877},{"name":"F#4","midi":66,"time":523.7812499999967,"velocity":0.8031496062992126,"duration":0.12760416666662877},{"name":"G4","midi":67,"time":523.9166666666633,"velocity":0.8031496062992126,"duration":0.12760416666662877},{"name":"F#4","midi":66,"time":524.0507812499966,"velocity":0.8031496062992126,"duration":0.12760416666662877},{"name":"G4","midi":67,"time":524.1861979166632,"velocity":0.8031496062992126,"duration":0.12760416666662877},{"name":"F#4","midi":66,"time":524.3216145833298,"velocity":0.8031496062992126,"duration":0.12760416666662877},{"name":"E4","midi":64,"time":524.4557291666631,"velocity":0.8031496062992126,"duration":0.14973958333337123},{"name":"F#4","midi":66,"time":524.5885416666631,"velocity":0.8031496062992126,"duration":0.15104166666662877},{"name":"F2","midi":41,"time":524.7239583333297,"velocity":0.8031496062992126,"duration":0.5286458333333712},{"name":"G4","midi":67,"time":524.7239583333297,"velocity":0.8031496062992126,"duration":6.731770833333599},{"name":"D4","midi":62,"time":524.7239583333297,"velocity":0.8031496062992126,"duration":1.0651041666667425},{"name":"B3","midi":59,"time":524.7239583333297,"velocity":0.8031496062992126,"duration":1.0651041666667425},{"name":"B2","midi":47,"time":525.2604166666631,"velocity":0.8031496062992126,"duration":0.5286458333333712},{"name":"D3","midi":50,"time":525.7955729166631,"velocity":0.8031496062992126,"duration":0.5286458333333712},{"name":"F4","midi":65,"time":525.7955729166631,"velocity":0.8031496062992126,"duration":2.1367187500001137},{"name":"B3","midi":59,"time":525.7955729166631,"velocity":0.8031496062992126,"duration":2.1367187500001137},{"name":"F3","midi":53,"time":526.3320312499965,"velocity":0.8031496062992126,"duration":0.5286458333333712},{"name":"G#3","midi":56,"time":526.8671874999965,"velocity":0.8031496062992126,"duration":0.5286458333333712},{"name":"D3","midi":50,"time":527.4036458333298,"velocity":0.8031496062992126,"duration":0.5286458333333712},{"name":"D#3","midi":51,"time":527.9388020833298,"velocity":0.8031496062992126,"duration":0.5286458333333712},{"name":"D#4","midi":63,"time":527.9388020833298,"velocity":0.8031496062992126,"duration":1.0651041666667425},{"name":"C4","midi":60,"time":527.9388020833298,"velocity":0.8031496062992126,"duration":1.0651041666667425},{"name":"B2","midi":47,"time":528.4752604166632,"velocity":0.8031496062992126,"duration":0.5286458333333712},{"name":"C3","midi":48,"time":529.0104166666632,"velocity":0.8031496062992126,"duration":0.5286458333333712},{"name":"C4","midi":60,"time":529.0104166666632,"velocity":0.8031496062992126,"duration":2.1367187500001137},{"name":"D#4","midi":63,"time":529.0104166666632,"velocity":0.8031496062992126,"duration":2.1367187500001137},{"name":"G#2","midi":44,"time":529.5455729166632,"velocity":0.8031496062992126,"duration":0.5286458333333712},{"name":"F#2","midi":42,"time":530.0820312499966,"velocity":0.8031496062992126,"duration":0.5286458333333712},{"name":"G2","midi":43,"time":530.6171874999966,"velocity":0.8031496062992126,"duration":0.5286458333333712},{"name":"A#3","midi":58,"time":531.1744791666633,"velocity":0.8031496062992126,"duration":0.5494791666666288},{"name":"E4","midi":64,"time":531.1744791666633,"velocity":0.8031496062992126,"duration":0.35807291666662877},{"name":"C#2","midi":37,"time":531.1744791666633,"velocity":0.8031496062992126,"duration":1.1067708333332575},{"name":"A4","midi":69,"time":531.4947916666633,"velocity":0.8031496062992126,"duration":0.27083333333325754},{"name":"A#4","midi":70,"time":531.7734374999966,"velocity":0.8031496062992126,"duration":0.27083333333337123},{"name":"G4","midi":67,"time":532.0507812499966,"velocity":0.8031496062992126,"duration":0.27083333333337123},{"name":"F#4","midi":66,"time":532.32942708333,"velocity":0.8031496062992126,"duration":0.25911458333337123},{"name":"D2","midi":38,"time":532.32942708333,"velocity":0.8031496062992126,"duration":2.2187500000002274},{"name":"G4","midi":67,"time":532.6054687499967,"velocity":0.8031496062992126,"duration":0.31380208333337123},{"name":"C#4","midi":61,"time":532.8841145833301,"velocity":0.8031496062992126,"duration":0.5494791666667425},{"name":"A#4","midi":70,"time":533.1627604166634,"velocity":0.8031496062992126,"duration":0.28645833333337123},{"name":"A4","midi":69,"time":533.4414062499968,"velocity":0.8031496062992126,"duration":0.28776041666674246},{"name":"D4","midi":62,"time":533.4414062499968,"velocity":0.8031496062992126,"duration":1.1002604166667425},{"name":"C4","midi":60,"time":533.4414062499968,"velocity":0.8031496062992126,"duration":1.1002604166667425},{"name":"G4","midi":67,"time":533.7200520833302,"velocity":0.8031496062992126,"duration":0.27083333333337123},{"name":"A4","midi":69,"time":533.9986979166636,"velocity":0.8031496062992126,"duration":0.27083333333337123},{"name":"F#4","midi":66,"time":534.2773437499969,"velocity":0.8031496062992126,"duration":0.27083333333325754},{"name":"G4","midi":67,"time":534.5546874999968,"velocity":0.8031496062992126,"duration":1.2356770833333712},{"name":"D4","midi":62,"time":534.5546874999968,"velocity":0.8031496062992126,"duration":1.2356770833333712},{"name":"C4","midi":60,"time":534.5546874999968,"velocity":0.8031496062992126,"duration":0.6171875},{"name":"G2","midi":43,"time":534.5546874999968,"velocity":0.8031496062992126,"duration":4.975260416666629},{"name":"A3","midi":57,"time":535.1796874999968,"velocity":0.8031496062992126,"duration":0.6171875},{"name":"D4","midi":62,"time":535.8033854166634,"velocity":0.8031496062992126,"duration":3.7395833333333712},{"name":"G4","midi":67,"time":535.8033854166634,"velocity":0.8031496062992126,"duration":3.7395833333333712},{"name":"A#3","midi":58,"time":535.8033854166634,"velocity":0.8031496062992126,"duration":3.7395833333333712},{"name":"G3","midi":55,"time":535.8033854166634,"velocity":0.8031496062992126,"duration":3.7395833333333712},{"name":"G2","midi":43,"time":541.9192708333302,"velocity":0.8031496062992126,"duration":0.46614583333337123},{"name":"G5","midi":79,"time":541.9192708333302,"velocity":0.8031496062992126,"duration":0.46614583333337123},{"name":"D3","midi":50,"time":542.3867187499969,"velocity":0.8031496062992126,"duration":0.46614583333337123},{"name":"A#5","midi":82,"time":542.3867187499969,"velocity":0.8031496062992126,"duration":0.23177083333337123},{"name":"A5","midi":81,"time":542.6210937499969,"velocity":0.8031496062992126,"duration":0.23177083333337123},{"name":"G3","midi":55,"time":542.8554687499969,"velocity":0.8031496062992126,"duration":0.46614583333337123},{"name":"A#5","midi":82,"time":542.8554687499969,"velocity":0.8031496062992126,"duration":0.46614583333337123},{"name":"A#3","midi":58,"time":543.3242187499969,"velocity":0.8031496062992126,"duration":0.46614583333337123},{"name":"G5","midi":79,"time":543.3242187499969,"velocity":0.8031496062992126,"duration":0.23177083333337123},{"name":"D5","midi":74,"time":543.5585937499969,"velocity":0.8031496062992126,"duration":0.23177083333337123},{"name":"C4","midi":60,"time":543.7916666666637,"velocity":0.8031496062992126,"duration":0.46614583333337123},{"name":"A5","midi":81,"time":543.7916666666637,"velocity":0.8031496062992126,"duration":0.46614583333337123},{"name":"D4","midi":62,"time":544.2604166666637,"velocity":0.8031496062992126,"duration":0.46614583333337123},{"name":"F#5","midi":78,"time":544.2604166666637,"velocity":0.8031496062992126,"duration":0.23177083333337123},{"name":"D5","midi":74,"time":544.4947916666637,"velocity":0.8031496062992126,"duration":0.23177083333337123},{"name":"D#4","midi":63,"time":544.7291666666637,"velocity":0.8031496062992126,"duration":0.23177083333337123},{"name":"G5","midi":79,"time":544.7291666666637,"velocity":0.8031496062992126,"duration":0.9335937500001137},{"name":"F4","midi":65,"time":544.9635416666637,"velocity":0.8031496062992126,"duration":0.23177083333337123},{"name":"D#4","midi":63,"time":545.1966145833304,"velocity":0.8031496062992126,"duration":0.23177083333337123},{"name":"D4","midi":62,"time":545.4309895833304,"velocity":0.8031496062992126,"duration":0.23177083333337123},{"name":"C4","midi":60,"time":545.6653645833304,"velocity":0.8031496062992126,"duration":0.23177083333337123},{"name":"D#5","midi":75,"time":545.6653645833304,"velocity":0.8031496062992126,"duration":0.46614583333337123},{"name":"A#3","midi":58,"time":545.8997395833304,"velocity":0.8031496062992126,"duration":0.23177083333337123},{"name":"A3","midi":57,"time":546.1341145833304,"velocity":0.8031496062992126,"duration":0.23177083333337123},{"name":"C5","midi":72,"time":546.1341145833304,"velocity":0.8031496062992126,"duration":0.23177083333337123},{"name":"C4","midi":60,"time":546.3671874999972,"velocity":0.8031496062992126,"duration":0.23177083333337123},{"name":"A4","midi":69,"time":546.3671874999972,"velocity":0.8031496062992126,"duration":0.23177083333337123},{"name":"A#3","midi":58,"time":546.6015624999972,"velocity":0.8031496062992126,"duration":0.23177083333337123},{"name":"D5","midi":74,"time":546.6015624999972,"velocity":0.8031496062992126,"duration":0.46614583333337123},{"name":"A3","midi":57,"time":546.8359374999972,"velocity":0.8031496062992126,"duration":0.23177083333337123},{"name":"G3","midi":55,"time":547.0703124999972,"velocity":0.8031496062992126,"duration":0.23177083333337123},{"name":"A#4","midi":70,"time":547.0703124999972,"velocity":0.8031496062992126,"duration":0.23177083333337123},{"name":"A#3","midi":58,"time":547.3046874999972,"velocity":0.8031496062992126,"duration":0.23177083333337123},{"name":"G4","midi":67,"time":547.3046874999972,"velocity":0.8031496062992126,"duration":0.23177083333337123},{"name":"A3","midi":57,"time":547.5390624999972,"velocity":0.8031496062992126,"duration":0.23177083333337123},{"name":"C5","midi":72,"time":547.5390624999972,"velocity":0.8031496062992126,"duration":0.23177083333337123},{"name":"G3","midi":55,"time":547.7721354166639,"velocity":0.8031496062992126,"duration":0.23177083333337123},{"name":"A4","midi":69,"time":547.7721354166639,"velocity":0.8031496062992126,"duration":0.23177083333337123},{"name":"F#3","midi":54,"time":548.0065104166639,"velocity":0.8031496062992126,"duration":0.23177083333337123},{"name":"D5","midi":74,"time":548.0065104166639,"velocity":0.8031496062992126,"duration":0.46614583333337123},{"name":"D3","midi":50,"time":548.2408854166639,"velocity":0.8031496062992126,"duration":0.23177083333337123},{"name":"G3","midi":55,"time":548.4752604166639,"velocity":0.8031496062992126,"duration":0.46614583333337123},{"name":"A#4","midi":70,"time":548.4752604166639,"velocity":0.8031496062992126,"duration":0.46614583333337123},{"name":"D3","midi":50,"time":548.9427083333306,"velocity":0.8031496062992126,"duration":0.46614583333337123},{"name":"A4","midi":69,"time":548.9427083333306,"velocity":0.8031496062992126,"duration":0.23177083333337123},{"name":"G4","midi":67,"time":549.1770833333306,"velocity":0.8031496062992126,"duration":0.23177083333337123},{"name":"A#2","midi":46,"time":549.4114583333306,"velocity":0.8031496062992126,"duration":0.46614583333337123},{"name":"G5","midi":79,"time":549.4114583333306,"velocity":0.8031496062992126,"duration":0.46614583333337123},{"name":"D3","midi":50,"time":549.8802083333306,"velocity":0.8031496062992126,"duration":0.46614583333337123},{"name":"A#5","midi":82,"time":549.8802083333306,"velocity":0.8031496062992126,"duration":0.23177083333337123},{"name":"A5","midi":81,"time":550.1145833333306,"velocity":0.8031496062992126,"duration":0.23177083333337123},{"name":"G3","midi":55,"time":550.3476562499974,"velocity":0.8031496062992126,"duration":0.46614583333337123},{"name":"A#5","midi":82,"time":550.3476562499974,"velocity":0.8031496062992126,"duration":0.46614583333337123},{"name":"A#3","midi":58,"time":550.8164062499974,"velocity":0.8031496062992126,"duration":0.46614583333337123},{"name":"G5","midi":79,"time":550.8164062499974,"velocity":0.8031496062992126,"duration":0.23177083333337123},{"name":"D5","midi":74,"time":551.0507812499974,"velocity":0.8031496062992126,"duration":0.23177083333337123},{"name":"C4","midi":60,"time":551.2851562499974,"velocity":0.8031496062992126,"duration":0.46614583333337123},{"name":"A5","midi":81,"time":551.2851562499974,"velocity":0.8031496062992126,"duration":0.46614583333337123},{"name":"D4","midi":62,"time":551.7526041666641,"velocity":0.8031496062992126,"duration":0.46614583333337123},{"name":"F#5","midi":78,"time":551.7526041666641,"velocity":0.8031496062992126,"duration":0.23177083333337123},{"name":"D5","midi":74,"time":551.9869791666641,"velocity":0.8031496062992126,"duration":0.23177083333337123},{"name":"D#4","midi":63,"time":552.2213541666641,"velocity":0.8031496062992126,"duration":0.23177083333337123},{"name":"G5","midi":79,"time":552.2213541666641,"velocity":0.8031496062992126,"duration":0.69921875},{"name":"F4","midi":65,"time":552.4557291666641,"velocity":0.8031496062992126,"duration":0.23177083333337123},{"name":"D#4","midi":63,"time":552.6901041666641,"velocity":0.8031496062992126,"duration":0.23177083333337123},{"name":"D4","midi":62,"time":552.9231770833309,"velocity":0.8031496062992126,"duration":0.23177083333337123},{"name":"F5","midi":77,"time":552.9231770833309,"velocity":0.8031496062992126,"duration":0.23177083333337123},{"name":"C4","midi":60,"time":553.1575520833309,"velocity":0.8031496062992126,"duration":0.23177083333337123},{"name":"D#5","midi":75,"time":553.1575520833309,"velocity":0.8031496062992126,"duration":0.23177083333337123},{"name":"A#3","midi":58,"time":553.3919270833309,"velocity":0.8031496062992126,"duration":0.23177083333337123},{"name":"D5","midi":74,"time":553.3919270833309,"velocity":0.8031496062992126,"duration":0.23177083333337123},{"name":"A3","midi":57,"time":553.6263020833309,"velocity":0.8031496062992126,"duration":0.23177083333337123},{"name":"C5","midi":72,"time":553.6263020833309,"velocity":0.8031496062992126,"duration":0.23177083333337123},{"name":"G3","midi":55,"time":553.8606770833309,"velocity":0.8031496062992126,"duration":0.23177083333337123},{"name":"A#4","midi":70,"time":553.8606770833309,"velocity":0.8031496062992126,"duration":0.23177083333337123},{"name":"F3","midi":53,"time":554.0937499999976,"velocity":0.8031496062992126,"duration":0.46614583333337123},{"name":"A5","midi":81,"time":554.0937499999976,"velocity":0.8031496062992126,"duration":0.23177083333337123},{"name":"A#5","midi":82,"time":554.3281249999976,"velocity":0.8031496062992126,"duration":0.23177083333337123},{"name":"G3","midi":55,"time":554.5624999999976,"velocity":0.8031496062992126,"duration":0.46614583333337123},{"name":"D5","midi":74,"time":554.5624999999976,"velocity":0.8031496062992126,"duration":0.23177083333337123},{"name":"D#5","midi":75,"time":554.7968749999976,"velocity":0.8031496062992126,"duration":0.23177083333337123},{"name":"D#3","midi":51,"time":555.0312499999976,"velocity":0.8031496062992126,"duration":0.46614583333337123},{"name":"F5","midi":77,"time":555.0312499999976,"velocity":0.8031496062992126,"duration":0.23177083333337123},{"name":"C5","midi":72,"time":555.2656249999976,"velocity":0.8031496062992126,"duration":0.23177083333337123},{"name":"F3","midi":53,"time":555.4986979166644,"velocity":0.8031496062992126,"duration":0.46614583333337123},{"name":"D5","midi":74,"time":555.4986979166644,"velocity":0.8031496062992126,"duration":0.46614583333337123},{"name":"A#2","midi":46,"time":555.9674479166644,"velocity":0.8031496062992126,"duration":0.23177083333337123},{"name":"C5","midi":72,"time":555.9674479166644,"velocity":0.8031496062992126,"duration":0.46614583333337123},{"name":"F3","midi":53,"time":556.2018229166644,"velocity":0.8031496062992126,"duration":0.23177083333337123},{"name":"G3","midi":55,"time":556.4361979166644,"velocity":0.8031496062992126,"duration":0.23177083333337123},{"name":"A#4","midi":70,"time":556.4361979166644,"velocity":0.8031496062992126,"duration":0.46614583333337123},{"name":"A3","midi":57,"time":556.6705729166644,"velocity":0.8031496062992126,"duration":0.23177083333337123},{"name":"A#3","midi":58,"time":556.9036458333311,"velocity":0.8031496062992126,"duration":0.46614583333337123},{"name":"D5","midi":74,"time":556.9036458333311,"velocity":0.8031496062992126,"duration":0.46614583333337123},{"name":"C4","midi":60,"time":557.3723958333311,"velocity":0.8031496062992126,"duration":0.46614583333337123},{"name":"F5","midi":77,"time":557.3723958333311,"velocity":0.8031496062992126,"duration":0.23177083333337123},{"name":"D#5","midi":75,"time":557.6067708333311,"velocity":0.8031496062992126,"duration":0.23177083333337123},{"name":"D4","midi":62,"time":557.8411458333311,"velocity":0.8031496062992126,"duration":0.46614583333337123},{"name":"F5","midi":77,"time":557.8411458333311,"velocity":0.8031496062992126,"duration":0.46614583333337123},{"name":"A#3","midi":58,"time":558.3085937499978,"velocity":0.8031496062992126,"duration":0.46614583333337123},{"name":"D5","midi":74,"time":558.3085937499978,"velocity":0.8031496062992126,"duration":0.23177083333337123},{"name":"A#4","midi":70,"time":558.5429687499978,"velocity":0.8031496062992126,"duration":0.23177083333337123},{"name":"D#4","midi":63,"time":558.7773437499978,"velocity":0.8031496062992126,"duration":0.46614583333337123},{"name":"G5","midi":79,"time":558.7773437499978,"velocity":0.8031496062992126,"duration":0.46614583333337123},{"name":"C4","midi":60,"time":559.2460937499978,"velocity":0.8031496062992126,"duration":0.4661458333334849},{"name":"D#5","midi":75,"time":559.2460937499978,"velocity":0.8031496062992126,"duration":0.23177083333337123},{"name":"A#4","midi":70,"time":559.4791666666646,"velocity":0.8031496062992126,"duration":0.23177083333337123},{"name":"D4","midi":62,"time":559.7135416666647,"velocity":0.8031496062992126,"duration":0.23177083333337123},{"name":"F5","midi":77,"time":559.7135416666647,"velocity":0.8031496062992126,"duration":0.93359375},{"name":"C4","midi":60,"time":559.9479166666647,"velocity":0.8031496062992126,"duration":0.23177083333337123},{"name":"A#3","midi":58,"time":560.1822916666647,"velocity":0.8031496062992126,"duration":0.23177083333337123},{"name":"A3","midi":57,"time":560.4166666666647,"velocity":0.8031496062992126,"duration":0.23177083333337123},{"name":"G3","midi":55,"time":560.6497395833314,"velocity":0.8031496062992126,"duration":0.46614583333337123},{"name":"A#5","midi":82,"time":560.6497395833314,"velocity":0.8031496062992126,"duration":0.23177083333337123},{"name":"A5","midi":81,"time":560.8841145833314,"velocity":0.8031496062992126,"duration":0.23177083333337123},{"name":"F3","midi":53,"time":561.1184895833314,"velocity":0.8031496062992126,"duration":0.46614583333337123},{"name":"G5","midi":79,"time":561.1184895833314,"velocity":0.8031496062992126,"duration":0.23177083333337123},{"name":"A5","midi":81,"time":561.3528645833314,"velocity":0.8031496062992126,"duration":0.23177083333337123},{"name":"E3","midi":52,"time":561.5872395833314,"velocity":0.8031496062992126,"duration":0.46614583333337123},{"name":"A#5","midi":82,"time":561.5872395833314,"velocity":0.8031496062992126,"duration":0.23177083333337123},{"name":"G5","midi":79,"time":561.8216145833314,"velocity":0.8031496062992126,"duration":0.23177083333337123},{"name":"C3","midi":48,"time":562.0546874999982,"velocity":0.8031496062992126,"duration":0.46614583333337123},{"name":"E5","midi":76,"time":562.0546874999982,"velocity":0.8031496062992126,"duration":0.23177083333337123},{"name":"C5","midi":72,"time":562.2890624999982,"velocity":0.8031496062992126,"duration":0.23177083333337123},{"name":"D3","midi":50,"time":562.5234374999982,"velocity":0.8031496062992126,"duration":0.46614583333337123},{"name":"A#5","midi":82,"time":562.5234374999982,"velocity":0.8031496062992126,"duration":0.23177083333337123},{"name":"A5","midi":81,"time":562.7578124999982,"velocity":0.8031496062992126,"duration":0.23177083333337123},{"name":"E3","midi":52,"time":562.9921874999982,"velocity":0.8031496062992126,"duration":0.4661458333334849},{"name":"G5","midi":79,"time":562.9921874999982,"velocity":0.8031496062992126,"duration":0.23177083333337123},{"name":"A5","midi":81,"time":563.2252604166649,"velocity":0.8031496062992126,"duration":0.23177083333337123},{"name":"F3","midi":53,"time":563.459635416665,"velocity":0.8031496062992126,"duration":0.46614583333337123},{"name":"A#5","midi":82,"time":563.459635416665,"velocity":0.8031496062992126,"duration":0.23177083333337123},{"name":"A5","midi":81,"time":563.694010416665,"velocity":0.8031496062992126,"duration":0.23177083333337123},{"name":"G3","midi":55,"time":563.928385416665,"velocity":0.8031496062992126,"duration":0.23177083333337123},{"name":"G5","midi":79,"time":563.928385416665,"velocity":0.8031496062992126,"duration":0.23177083333337123},{"name":"A3","midi":57,"time":564.162760416665,"velocity":0.8031496062992126,"duration":0.23177083333337123},{"name":"F5","midi":77,"time":564.162760416665,"velocity":0.8031496062992126,"duration":0.23177083333337123},{"name":"A#3","midi":58,"time":564.397135416665,"velocity":0.8031496062992126,"duration":0.4661458333334849},{"name":"G5","midi":79,"time":564.397135416665,"velocity":0.8031496062992126,"duration":0.23177083333337123},{"name":"F5","midi":77,"time":564.6302083333318,"velocity":0.8031496062992126,"duration":0.23177083333337123},{"name":"G3","midi":55,"time":564.8645833333319,"velocity":0.8031496062992126,"duration":0.46614583333337123},{"name":"E5","midi":76,"time":564.8645833333319,"velocity":0.8031496062992126,"duration":0.23177083333337123},{"name":"F5","midi":77,"time":565.0989583333319,"velocity":0.8031496062992126,"duration":0.23177083333337123},{"name":"E3","midi":52,"time":565.3333333333319,"velocity":0.8031496062992126,"duration":0.46614583333337123},{"name":"G5","midi":79,"time":565.3333333333319,"velocity":0.8031496062992126,"duration":0.23177083333337123},{"name":"E5","midi":76,"time":565.5677083333319,"velocity":0.8031496062992126,"duration":0.23177083333337123},{"name":"A2","midi":45,"time":565.8007812499986,"velocity":0.8031496062992126,"duration":0.46614583333337123},{"name":"C#5","midi":73,"time":565.8007812499986,"velocity":0.8031496062992126,"duration":0.23177083333337123},{"name":"A4","midi":69,"time":566.0351562499986,"velocity":0.8031496062992126,"duration":0.23177083333337123},{"name":"B2","midi":47,"time":566.2695312499986,"velocity":0.8031496062992126,"duration":0.46614583333337123},{"name":"G5","midi":79,"time":566.2695312499986,"velocity":0.8031496062992126,"duration":0.23177083333337123},{"name":"F5","midi":77,"time":566.5039062499986,"velocity":0.8031496062992126,"duration":0.23177083333337123},{"name":"C#3","midi":49,"time":566.7382812499986,"velocity":0.8031496062992126,"duration":0.46614583333337123},{"name":"E5","midi":76,"time":566.7382812499986,"velocity":0.8031496062992126,"duration":0.23177083333337123},{"name":"F5","midi":77,"time":566.9726562499986,"velocity":0.8031496062992126,"duration":0.23177083333337123},{"name":"D3","midi":50,"time":567.2057291666654,"velocity":0.8031496062992126,"duration":0.46614583333337123},{"name":"G5","midi":79,"time":567.2057291666654,"velocity":0.8031496062992126,"duration":0.23177083333337123},{"name":"F5","midi":77,"time":567.4401041666654,"velocity":0.8031496062992126,"duration":0.23177083333337123},{"name":"D2","midi":38,"time":567.6744791666654,"velocity":0.8031496062992126,"duration":0.46614583333337123},{"name":"E5","midi":76,"time":567.6744791666654,"velocity":0.8031496062992126,"duration":0.23177083333337123},{"name":"D5","midi":74,"time":567.9088541666654,"velocity":0.8031496062992126,"duration":0.23177083333337123},{"name":"D4","midi":62,"time":568.1432291666654,"velocity":0.8031496062992126,"duration":0.46614583333337123},{"name":"A5","midi":81,"time":568.1432291666654,"velocity":0.8031496062992126,"duration":0.46614583333337123},{"name":"F4","midi":65,"time":568.6106770833321,"velocity":0.8031496062992126,"duration":0.23177083333337123},{"name":"A5","midi":81,"time":568.6106770833321,"velocity":0.8031496062992126,"duration":0.46614583333337123},{"name":"E4","midi":64,"time":568.8450520833321,"velocity":0.8031496062992126,"duration":0.23177083333337123},{"name":"F4","midi":65,"time":569.0794270833321,"velocity":0.8031496062992126,"duration":0.4609375},{"name":"A#5","midi":82,"time":569.0794270833321,"velocity":0.8031496062992126,"duration":0.11328125},{"name":"A5","midi":81,"time":569.1914062499987,"velocity":0.8031496062992126,"duration":0.11328125},{"name":"A#5","midi":82,"time":569.2851562499987,"velocity":0.8031496062992126,"duration":0.11328125},{"name":"A5","midi":81,"time":569.3789062499987,"velocity":0.8031496062992126,"duration":0.11328125},{"name":"A#5","midi":82,"time":569.4726562499987,"velocity":0.8031496062992126,"duration":0.11328125},{"name":"D4","midi":62,"time":569.5429687499987,"velocity":0.8031496062992126,"duration":0.22916666666662877},{"name":"A5","midi":81,"time":569.5690104166654,"velocity":0.8031496062992126,"duration":0.11328125},{"name":"A#5","midi":82,"time":569.6640624999987,"velocity":0.8031496062992126,"duration":0.11328125},{"name":"A5","midi":81,"time":569.7604166666654,"velocity":0.8031496062992126,"duration":0.11328125000011369},{"name":"A3","midi":57,"time":569.7760416666654,"velocity":0.8031496062992126,"duration":0.22916666666674246},{"name":"A#5","midi":82,"time":569.8567708333321,"velocity":0.8031496062992126,"duration":0.11328125},{"name":"A5","midi":81,"time":569.9505208333321,"velocity":0.8031496062992126,"duration":0.11328125},{"name":"E4","midi":64,"time":570.0078124999987,"velocity":0.8031496062992126,"duration":0.4609375},{"name":"A#5","midi":82,"time":570.0468749999987,"velocity":0.8031496062992126,"duration":0.11328125},{"name":"A5","midi":81,"time":570.1419270833321,"velocity":0.8031496062992126,"duration":0.11328125},{"name":"A#5","midi":82,"time":570.2382812499987,"velocity":0.8031496062992126,"duration":0.11328125},{"name":"A5","midi":81,"time":570.3333333333321,"velocity":0.8031496062992126,"duration":0.11328125},{"name":"A#5","midi":82,"time":570.4270833333321,"velocity":0.8031496062992126,"duration":0.11328125},{"name":"C#4","midi":61,"time":570.4713541666654,"velocity":0.8031496062992126,"duration":0.22916666666674246},{"name":"A5","midi":81,"time":570.5234374999987,"velocity":0.8031496062992126,"duration":0.11328125},{"name":"A#5","midi":82,"time":570.6184895833321,"velocity":0.8031496062992126,"duration":0.11328125},{"name":"A3","midi":57,"time":570.7031249999987,"velocity":0.8031496062992126,"duration":0.22916666666674246},{"name":"A5","midi":81,"time":570.7161458333321,"velocity":0.8031496062992126,"duration":0.34765625},{"name":"D4","midi":62,"time":570.9361979166655,"velocity":0.8031496062992126,"duration":0.93359375},{"name":"F5","midi":77,"time":571.1692708333321,"velocity":0.8031496062992126,"duration":0.23177083333337123},{"name":"G5","midi":79,"time":571.4036458333321,"velocity":0.8031496062992126,"duration":0.23177083333337123},{"name":"A5","midi":81,"time":571.6380208333321,"velocity":0.8031496062992126,"duration":0.23177083333337123},{"name":"G3","midi":55,"time":571.8723958333321,"velocity":0.8031496062992126,"duration":0.46614583333337123},{"name":"A#5","midi":82,"time":571.8723958333321,"velocity":0.8031496062992126,"duration":0.23177083333337123},{"name":"A5","midi":81,"time":572.1067708333321,"velocity":0.8031496062992126,"duration":0.23177083333337123},{"name":"A3","midi":57,"time":572.3398437499989,"velocity":0.8031496062992126,"duration":0.46614583333337123},{"name":"G5","midi":79,"time":572.3398437499989,"velocity":0.8031496062992126,"duration":0.23177083333337123},{"name":"F5","midi":77,"time":572.5742187499989,"velocity":0.8031496062992126,"duration":0.23177083333337123},{"name":"A#3","midi":58,"time":572.8085937499989,"velocity":0.8031496062992126,"duration":0.46614583333337123},{"name":"E5","midi":76,"time":572.8085937499989,"velocity":0.8031496062992126,"duration":0.23177083333337123},{"name":"D5","midi":74,"time":573.0429687499989,"velocity":0.8031496062992126,"duration":0.23177083333337123},{"name":"G3","midi":55,"time":573.2773437499989,"velocity":0.8031496062992126,"duration":0.46614583333337123},{"name":"C#5","midi":73,"time":573.2773437499989,"velocity":0.8031496062992126,"duration":0.23177083333337123},{"name":"D5","midi":74,"time":573.5117187499989,"velocity":0.8031496062992126,"duration":0.23177083333337123},{"name":"A3","midi":57,"time":573.7447916666656,"velocity":0.8031496062992126,"duration":0.46614583333337123},{"name":"G5","midi":79,"time":573.7447916666656,"velocity":0.8031496062992126,"duration":0.23177083333337123},{"name":"F5","midi":77,"time":573.9791666666656,"velocity":0.8031496062992126,"duration":0.23177083333337123},{"name":"A2","midi":45,"time":574.2135416666656,"velocity":0.8031496062992126,"duration":0.46614583333337123},{"name":"E5","midi":76,"time":574.2135416666656,"velocity":0.8031496062992126,"duration":0.23177083333337123},{"name":"F5","midi":77,"time":574.4479166666656,"velocity":0.8031496062992126,"duration":0.23177083333337123},{"name":"D2","midi":38,"time":574.6822916666656,"velocity":0.8031496062992126,"duration":0.23177083333337123},{"name":"D5","midi":74,"time":574.6822916666656,"velocity":0.8031496062992126,"duration":0.9335937500001137},{"name":"D3","midi":50,"time":574.9166666666656,"velocity":0.8031496062992126,"duration":0.23177083333337123},{"name":"D#3","midi":51,"time":575.1497395833323,"velocity":0.8031496062992126,"duration":0.23177083333337123},{"name":"F3","midi":53,"time":575.3841145833323,"velocity":0.8031496062992126,"duration":0.23177083333337123},{"name":"G3","midi":55,"time":575.6184895833323,"velocity":0.8031496062992126,"duration":0.11328125},{"name":"D5","midi":74,"time":575.6184895833323,"velocity":0.8031496062992126,"duration":0.46354166666662877},{"name":"F#3","midi":54,"time":575.734374999999,"velocity":0.8031496062992126,"duration":0.11328125},{"name":"G3","midi":55,"time":575.8502604166656,"velocity":0.8031496062992126,"duration":0.23177083333337123},{"name":"G3","midi":55,"time":576.0846354166656,"velocity":0.8031496062992126,"duration":0.11328125},{"name":"F5","midi":77,"time":576.0846354166656,"velocity":0.8031496062992126,"duration":0.22916666666662877},{"name":"F#3","midi":54,"time":576.2005208333322,"velocity":0.8031496062992126,"duration":0.11328125},{"name":"G3","midi":55,"time":576.3164062499989,"velocity":0.8031496062992126,"duration":0.23177083333337123},{"name":"D#5","midi":75,"time":576.3164062499989,"velocity":0.8031496062992126,"duration":0.23177083333337123},{"name":"G3","midi":55,"time":576.5507812499989,"velocity":0.8031496062992126,"duration":0.11328125},{"name":"F5","midi":77,"time":576.5507812499989,"velocity":0.8031496062992126,"duration":0.46354166666662877},{"name":"F#3","midi":54,"time":576.6666666666655,"velocity":0.8031496062992126,"duration":0.11328125},{"name":"G3","midi":55,"time":576.7825520833321,"velocity":0.8031496062992126,"duration":2.572916666666856},{"name":"D5","midi":74,"time":577.0169270833321,"velocity":0.8031496062992126,"duration":0.23177083333337123},{"name":"B4","midi":71,"time":577.2513020833321,"velocity":0.8031496062992126,"duration":0.23177083333337123},{"name":"G#5","midi":80,"time":577.4856770833321,"velocity":0.8031496062992126,"duration":0.46614583333337123},{"name":"F5","midi":77,"time":577.9531249999989,"velocity":0.8031496062992126,"duration":0.23177083333337123},{"name":"D5","midi":74,"time":578.1874999999989,"velocity":0.8031496062992126,"duration":0.23177083333337123},{"name":"D#5","midi":75,"time":578.4218749999989,"velocity":0.8031496062992126,"duration":0.46614583333337123},{"name":"C5","midi":72,"time":578.8906249999989,"velocity":0.8031496062992126,"duration":0.23177083333337123},{"name":"G4","midi":67,"time":579.1236979166656,"velocity":0.8031496062992126,"duration":0.23177083333337123},{"name":"G3","midi":55,"time":579.3580729166656,"velocity":0.8031496062992126,"duration":0.11328125},{"name":"G5","midi":79,"time":579.3580729166656,"velocity":0.8031496062992126,"duration":0.46354166666662877},{"name":"F#3","midi":54,"time":579.4739583333322,"velocity":0.8031496062992126,"duration":0.11328125},{"name":"G3","midi":55,"time":579.5898437499989,"velocity":0.8031496062992126,"duration":0.23177083333337123},{"name":"G3","midi":55,"time":579.8242187499989,"velocity":0.8031496062992126,"duration":0.11328125},{"name":"D#5","midi":75,"time":579.8242187499989,"velocity":0.8031496062992126,"duration":0.22916666666662877},{"name":"F#3","midi":54,"time":579.9401041666655,"velocity":0.8031496062992126,"duration":0.11328125},{"name":"G3","midi":55,"time":580.0559895833321,"velocity":0.8031496062992126,"duration":0.23177083333337123},{"name":"C5","midi":72,"time":580.0559895833321,"velocity":0.8031496062992126,"duration":0.23177083333337123},{"name":"G3","midi":55,"time":580.2903645833321,"velocity":0.8031496062992126,"duration":0.93359375},{"name":"D5","midi":74,"time":580.2903645833321,"velocity":0.8031496062992126,"duration":0.46614583333337123},{"name":"A#4","midi":70,"time":580.7591145833321,"velocity":0.8031496062992126,"duration":0.23177083333337123},{"name":"G4","midi":67,"time":580.9934895833321,"velocity":0.8031496062992126,"duration":0.23177083333337123},{"name":"G3","midi":55,"time":581.2278645833321,"velocity":0.8031496062992126,"duration":0.11328125},{"name":"G5","midi":79,"time":581.2278645833321,"velocity":0.8031496062992126,"duration":0.46354166666662877},{"name":"F#3","midi":54,"time":581.3437499999987,"velocity":0.8031496062992126,"duration":0.11328125},{"name":"G3","midi":55,"time":581.4596354166654,"velocity":0.8031496062992126,"duration":0.23177083333337123},{"name":"G3","midi":55,"time":581.6940104166654,"velocity":0.8031496062992126,"duration":0.4661458333334849},{"name":"D5","midi":74,"time":581.6940104166654,"velocity":0.8031496062992126,"duration":0.23177083333337123},{"name":"A#4","midi":70,"time":581.9270833333321,"velocity":0.8031496062992126,"duration":0.23177083333337123},{"name":"G3","midi":55,"time":582.1614583333322,"velocity":0.8031496062992126,"duration":0.93359375},{"name":"C5","midi":72,"time":582.1614583333322,"velocity":0.8031496062992126,"duration":0.46614583333337123},{"name":"A4","midi":69,"time":582.6302083333322,"velocity":0.8031496062992126,"duration":0.23177083333337123},{"name":"F#4","midi":66,"time":582.8645833333322,"velocity":0.8031496062992126,"duration":0.23177083333337123},{"name":"G3","midi":55,"time":583.097656249999,"velocity":0.8031496062992126,"duration":0.23177083333337123},{"name":"D#5","midi":75,"time":583.097656249999,"velocity":0.8031496062992126,"duration":0.46614583333337123},{"name":"G3","midi":55,"time":583.332031249999,"velocity":0.8031496062992126,"duration":0.23177083333337123},{"name":"G3","midi":55,"time":583.566406249999,"velocity":0.8031496062992126,"duration":0.23177083333337123},{"name":"C5","midi":72,"time":583.566406249999,"velocity":0.8031496062992126,"duration":0.23177083333337123},{"name":"G3","midi":55,"time":583.800781249999,"velocity":0.8031496062992126,"duration":0.23177083333337123},{"name":"A4","midi":69,"time":583.800781249999,"velocity":0.8031496062992126,"duration":0.23177083333337123},{"name":"G3","midi":55,"time":584.035156249999,"velocity":0.8031496062992126,"duration":0.23177083333337123},{"name":"D5","midi":74,"time":584.035156249999,"velocity":0.8031496062992126,"duration":0.46614583333337123},{"name":"G3","midi":55,"time":584.269531249999,"velocity":0.8031496062992126,"duration":0.23177083333337123},{"name":"G3","midi":55,"time":584.5026041666657,"velocity":0.8031496062992126,"duration":0.23177083333337123},{"name":"A#4","midi":70,"time":584.5026041666657,"velocity":0.8031496062992126,"duration":0.23177083333337123},{"name":"G3","midi":55,"time":584.7369791666657,"velocity":0.8031496062992126,"duration":0.23177083333337123},{"name":"G4","midi":67,"time":584.7369791666657,"velocity":0.8031496062992126,"duration":0.23177083333337123},{"name":"G3","midi":55,"time":584.9713541666657,"velocity":0.8031496062992126,"duration":0.23177083333337123},{"name":"C5","midi":72,"time":584.9713541666657,"velocity":0.8031496062992126,"duration":0.23177083333337123},{"name":"F#3","midi":54,"time":585.2057291666657,"velocity":0.8031496062992126,"duration":0.23177083333337123},{"name":"A4","midi":69,"time":585.2057291666657,"velocity":0.8031496062992126,"duration":0.23177083333337123},{"name":"G3","midi":55,"time":585.4401041666657,"velocity":0.8031496062992126,"duration":0.46614583333337123},{"name":"A#4","midi":70,"time":585.4401041666657,"velocity":0.8031496062992126,"duration":0.23177083333337123},{"name":"G4","midi":67,"time":585.6744791666657,"velocity":0.8031496062992126,"duration":0.23177083333337123},{"name":"D3","midi":50,"time":585.9075520833325,"velocity":0.8031496062992126,"duration":0.46614583333337123},{"name":"A4","midi":69,"time":585.9075520833325,"velocity":0.8031496062992126,"duration":0.23177083333337123},{"name":"D4","midi":62,"time":586.1419270833325,"velocity":0.8031496062992126,"duration":0.23177083333337123},{"name":"C3","midi":48,"time":586.3763020833325,"velocity":0.8031496062992126,"duration":0.46614583333337123},{"name":"E4","midi":64,"time":586.3763020833325,"velocity":0.8031496062992126,"duration":0.23177083333337123},{"name":"F#4","midi":66,"time":586.6106770833325,"velocity":0.8031496062992126,"duration":0.23177083333337123},{"name":"A#2","midi":46,"time":586.8450520833325,"velocity":0.8031496062992126,"duration":0.4661458333334849},{"name":"G4","midi":67,"time":586.8450520833325,"velocity":0.8031496062992126,"duration":0.23177083333337123},{"name":"A4","midi":69,"time":587.0781249999992,"velocity":0.8031496062992126,"duration":0.23177083333337123},{"name":"D3","midi":50,"time":587.3124999999993,"velocity":0.8031496062992126,"duration":0.46614583333337123},{"name":"A#4","midi":70,"time":587.3124999999993,"velocity":0.8031496062992126,"duration":0.23177083333337123},{"name":"G4","midi":67,"time":587.5468749999993,"velocity":0.8031496062992126,"duration":0.23177083333337123},{"name":"F#2","midi":42,"time":587.7812499999993,"velocity":0.8031496062992126,"duration":0.46614583333337123},{"name":"D#5","midi":75,"time":587.7812499999993,"velocity":0.8031496062992126,"duration":0.23177083333337123},{"name":"C5","midi":72,"time":588.0156249999993,"velocity":0.8031496062992126,"duration":0.23177083333337123},{"name":"D3","midi":50,"time":588.2499999999993,"velocity":0.8031496062992126,"duration":0.4661458333334849},{"name":"D5","midi":74,"time":588.2499999999993,"velocity":0.8031496062992126,"duration":0.23177083333337123},{"name":"A#4","midi":70,"time":588.4830729166661,"velocity":0.8031496062992126,"duration":0.23177083333337123},{"name":"G2","midi":43,"time":588.7174479166662,"velocity":0.8031496062992126,"duration":0.46614583333337123},{"name":"C5","midi":72,"time":588.7174479166662,"velocity":0.8031496062992126,"duration":0.23177083333337123},{"name":"A4","midi":69,"time":588.9518229166662,"velocity":0.8031496062992126,"duration":0.23177083333337123},{"name":"D3","midi":50,"time":589.1861979166662,"velocity":0.8031496062992126,"duration":0.46614583333337123},{"name":"A#4","midi":70,"time":589.1861979166662,"velocity":0.8031496062992126,"duration":0.23177083333337123},{"name":"G4","midi":67,"time":589.4205729166662,"velocity":0.8031496062992126,"duration":0.23177083333337123},{"name":"D2","midi":38,"time":589.6536458333329,"velocity":0.8031496062992126,"duration":0.46614583333337123},{"name":"A4","midi":69,"time":589.6536458333329,"velocity":0.8031496062992126,"duration":0.5208333333333712},{"name":"D3","midi":50,"time":590.1223958333329,"velocity":0.8031496062992126,"duration":0.23177083333337123},{"name":"D4","midi":62,"time":590.1223958333329,"velocity":0.8031496062992126,"duration":0.36458333333337123},{"name":"C3","midi":48,"time":590.3567708333329,"velocity":0.8031496062992126,"duration":0.23177083333337123},{"name":"A#2","midi":46,"time":590.5911458333329,"velocity":0.8031496062992126,"duration":0.46614583333337123},{"name":"G4","midi":67,"time":590.5911458333329,"velocity":0.8031496062992126,"duration":0.46614583333337123},{"name":"A2","midi":45,"time":591.0585937499997,"velocity":0.8031496062992126,"duration":0.46614583333337123},{"name":"A#4","midi":70,"time":591.0585937499997,"velocity":0.8031496062992126,"duration":0.23177083333337123},{"name":"A4","midi":69,"time":591.2929687499997,"velocity":0.8031496062992126,"duration":0.23177083333337123},{"name":"G2","midi":43,"time":591.5273437499997,"velocity":0.8031496062992126,"duration":0.5859375},{"name":"A#4","midi":70,"time":591.5273437499997,"velocity":0.8031496062992126,"duration":0.28645833333337123},{"name":"F#4","midi":66,"time":591.7617187499997,"velocity":0.8031496062992126,"duration":0.23177083333337123},{"name":"G4","midi":67,"time":591.9960937499997,"velocity":0.8031496062992126,"duration":0.23177083333337123},{"name":"D4","midi":62,"time":592.2291666666664,"velocity":0.8031496062992126,"duration":0.23177083333337123},{"name":"F2","midi":41,"time":592.4635416666664,"velocity":0.8031496062992126,"duration":0.5859375},{"name":"B4","midi":71,"time":592.4635416666664,"velocity":0.8031496062992126,"duration":0.28645833333337123},{"name":"F4","midi":65,"time":592.6979166666664,"velocity":0.8031496062992126,"duration":0.23177083333337123},{"name":"G4","midi":67,"time":592.9322916666664,"velocity":0.8031496062992126,"duration":0.23177083333337123},{"name":"D4","midi":62,"time":593.1666666666664,"velocity":0.8031496062992126,"duration":0.23177083333337123},{"name":"D#2","midi":39,"time":593.4010416666664,"velocity":0.8031496062992126,"duration":0.46614583333325754},{"name":"C5","midi":72,"time":593.4010416666664,"velocity":0.8031496062992126,"duration":0.28645833333325754},{"name":"D4","midi":62,"time":593.634114583333,"velocity":0.8031496062992126,"duration":0.23177083333325754},{"name":"G3","midi":55,"time":593.868489583333,"velocity":0.8031496062992126,"duration":0.23177083333337123},{"name":"D#4","midi":63,"time":593.868489583333,"velocity":0.8031496062992126,"duration":0.23177083333337123},{"name":"F3","midi":53,"time":594.102864583333,"velocity":0.8031496062992126,"duration":0.23177083333337123},{"name":"G4","midi":67,"time":594.102864583333,"velocity":0.8031496062992126,"duration":0.23177083333337123},{"name":"D#3","midi":51,"time":594.337239583333,"velocity":0.8031496062992126,"duration":0.46614583333337123},{"name":"C5","midi":72,"time":594.337239583333,"velocity":0.8031496062992126,"duration":0.23177083333337123},{"name":"G4","midi":67,"time":594.571614583333,"velocity":0.8031496062992126,"duration":0.23177083333337123},{"name":"D3","midi":50,"time":594.8046874999998,"velocity":0.8031496062992126,"duration":0.46614583333337123},{"name":"D5","midi":74,"time":594.8046874999998,"velocity":0.8031496062992126,"duration":0.23177083333337123},{"name":"G4","midi":67,"time":595.0390624999998,"velocity":0.8031496062992126,"duration":0.23177083333337123},{"name":"C3","midi":48,"time":595.2734374999998,"velocity":0.8031496062992126,"duration":0.5859375},{"name":"D#5","midi":75,"time":595.2734374999998,"velocity":0.8031496062992126,"duration":0.28645833333337123},{"name":"B4","midi":71,"time":595.5078124999998,"velocity":0.8031496062992126,"duration":0.23177083333337123},{"name":"C5","midi":72,"time":595.7421874999998,"velocity":0.8031496062992126,"duration":0.23177083333337123},{"name":"G4","midi":67,"time":595.9765624999998,"velocity":0.8031496062992126,"duration":0.23177083333337123},{"name":"A#2","midi":46,"time":596.2096354166665,"velocity":0.8031496062992126,"duration":0.5859375},{"name":"E5","midi":76,"time":596.2096354166665,"velocity":0.8031496062992126,"duration":0.28645833333337123},{"name":"A#4","midi":70,"time":596.4440104166665,"velocity":0.8031496062992126,"duration":0.23177083333337123},{"name":"C5","midi":72,"time":596.6783854166665,"velocity":0.8031496062992126,"duration":0.23177083333337123},{"name":"G4","midi":67,"time":596.9127604166665,"velocity":0.8031496062992126,"duration":0.23177083333337123},{"name":"A2","midi":45,"time":597.1471354166665,"velocity":0.8031496062992126,"duration":0.46614583333337123},{"name":"F5","midi":77,"time":597.1471354166665,"velocity":0.8031496062992126,"duration":0.28645833333337123},{"name":"G4","midi":67,"time":597.3815104166665,"velocity":0.8031496062992126,"duration":0.23177083333337123},{"name":"C4","midi":60,"time":597.6145833333333,"velocity":0.8031496062992126,"duration":0.23177083333337123},{"name":"A4","midi":69,"time":597.6145833333333,"velocity":0.8031496062992126,"duration":0.23177083333337123},{"name":"A#3","midi":58,"time":597.8489583333333,"velocity":0.8031496062992126,"duration":0.23177083333337123},{"name":"C5","midi":72,"time":597.8489583333333,"velocity":0.8031496062992126,"duration":0.23177083333337123},{"name":"A3","midi":57,"time":598.0833333333333,"velocity":0.8031496062992126,"duration":0.46614583333337123},{"name":"F#5","midi":78,"time":598.0833333333333,"velocity":0.8031496062992126,"duration":0.28645833333337123},{"name":"C5","midi":72,"time":598.3177083333333,"velocity":0.8031496062992126,"duration":0.23177083333337123},{"name":"G3","midi":55,"time":598.5520833333333,"velocity":0.8031496062992126,"duration":0.46614583333325754},{"name":"G5","midi":79,"time":598.5520833333333,"velocity":0.8031496062992126,"duration":0.28645833333325754},{"name":"C5","midi":72,"time":598.7851562499999,"velocity":0.8031496062992126,"duration":0.23177083333325754},{"name":"F#3","midi":54,"time":599.0195312499999,"velocity":0.8031496062992126,"duration":0.5859375},{"name":"A5","midi":81,"time":599.0195312499999,"velocity":0.8031496062992126,"duration":0.28645833333337123},{"name":"E5","midi":76,"time":599.2539062499999,"velocity":0.8031496062992126,"duration":0.23177083333337123},{"name":"F#5","midi":78,"time":599.4882812499999,"velocity":0.8031496062992126,"duration":0.28645833333337123},{"name":"D5","midi":74,"time":599.7226562499999,"velocity":0.8031496062992126,"duration":0.23177083333337123},{"name":"E3","midi":52,"time":599.9570312499999,"velocity":0.8031496062992126,"duration":0.5859375000001137},{"name":"A#5","midi":82,"time":599.9570312499999,"velocity":0.8031496062992126,"duration":0.23177083333337123},{"name":"F#5","midi":78,"time":600.1901041666666,"velocity":0.8031496062992126,"duration":0.23177083333337123},{"name":"G5","midi":79,"time":600.4244791666666,"velocity":0.8031496062992126,"duration":0.23177083333337123},{"name":"D5","midi":74,"time":600.6588541666666,"velocity":0.8031496062992126,"duration":0.23177083333337123},{"name":"D3","midi":50,"time":600.8932291666666,"velocity":0.8031496062992126,"duration":0.46614583333337123},{"name":"C6","midi":84,"time":600.8932291666666,"velocity":0.8031496062992126,"duration":0.23177083333337123},{"name":"A5","midi":81,"time":601.1276041666666,"velocity":0.8031496062992126,"duration":0.23177083333337123},{"name":"F#3","midi":54,"time":601.3606770833334,"velocity":0.8031496062992126,"duration":0.46614583333337123},{"name":"D5","midi":74,"time":601.3606770833334,"velocity":0.8031496062992126,"duration":0.23177083333337123},{"name":"C6","midi":84,"time":601.5950520833334,"velocity":0.8031496062992126,"duration":0.23177083333337123},{"name":"G3","midi":55,"time":601.8294270833334,"velocity":0.8031496062992126,"duration":0.46614583333337123},{"name":"A#5","midi":82,"time":601.8294270833334,"velocity":0.8031496062992126,"duration":0.23177083333337123},{"name":"A5","midi":81,"time":602.0638020833334,"velocity":0.8031496062992126,"duration":0.23177083333337123},{"name":"A3","midi":57,"time":602.2981770833334,"velocity":0.8031496062992126,"duration":0.46614583333337123},{"name":"G5","midi":79,"time":602.2981770833334,"velocity":0.8031496062992126,"duration":0.23177083333337123},{"name":"F#5","midi":78,"time":602.5325520833334,"velocity":0.8031496062992126,"duration":0.23177083333337123},{"name":"A#3","midi":58,"time":602.7656250000001,"velocity":0.8031496062992126,"duration":0.46614583333337123},{"name":"G5","midi":79,"time":602.7656250000001,"velocity":0.8031496062992126,"duration":0.23177083333337123},{"name":"D5","midi":74,"time":603.0000000000001,"velocity":0.8031496062992126,"duration":0.23177083333337123},{"name":"C4","midi":60,"time":603.2343750000001,"velocity":0.8031496062992126,"duration":0.46614583333337123},{"name":"D#5","midi":75,"time":603.2343750000001,"velocity":0.8031496062992126,"duration":0.23177083333337123},{"name":"C5","midi":72,"time":603.4687500000001,"velocity":0.8031496062992126,"duration":0.23177083333337123},{"name":"D4","midi":62,"time":603.7031250000001,"velocity":0.8031496062992126,"duration":0.4609374999998863},{"name":"C5","midi":72,"time":603.7031250000001,"velocity":0.8031496062992126,"duration":0.11328125},{"name":"A#4","midi":70,"time":603.8190104166667,"velocity":0.8031496062992126,"duration":0.11328125},{"name":"C5","midi":72,"time":603.9348958333334,"velocity":0.8031496062992126,"duration":0.11328125},{"name":"A#4","midi":70,"time":604.05078125,"velocity":0.8031496062992126,"duration":0.11328125},{"name":"D3","midi":50,"time":604.1666666666666,"velocity":0.8031496062992126,"duration":0.46614583333337123},{"name":"A4","midi":69,"time":604.1666666666666,"velocity":0.8031496062992126,"duration":0.23177083333337123},{"name":"G4","midi":67,"time":604.4010416666666,"velocity":0.8031496062992126,"duration":0.23177083333337123},{"name":"G2","midi":43,"time":604.6354166666666,"velocity":0.8031496062992126,"duration":0.93359375},{"name":"G4","midi":67,"time":604.6354166666666,"velocity":0.8031496062992126,"duration":0.93359375},{"name":"G3","midi":55,"time":605.5716145833333,"velocity":0.8031496062992126,"duration":3.7356770833337123},{"name":"B3","midi":59,"time":605.5716145833333,"velocity":0.8031496062992126,"duration":0.46614583333337123},{"name":"D4","midi":62,"time":605.5716145833333,"velocity":0.8031496062992126,"duration":0.46614583333337123},{"name":"A3","midi":57,"time":606.0403645833333,"velocity":0.8031496062992126,"duration":0.4661458333334849},{"name":"E4","midi":64,"time":606.0403645833333,"velocity":0.8031496062992126,"duration":0.23177083333337123},{"name":"C4","midi":60,"time":606.2734375,"velocity":0.8031496062992126,"duration":0.23177083333337123},{"name":"B3","midi":59,"time":606.5078125000001,"velocity":0.8031496062992126,"duration":0.46614583333337123},{"name":"D4","midi":62,"time":606.5078125000001,"velocity":0.8031496062992126,"duration":0.46614583333337123},{"name":"C4","midi":60,"time":606.9765625000001,"velocity":0.8031496062992126,"duration":0.46614583333337123},{"name":"G4","midi":67,"time":606.9765625000001,"velocity":0.8031496062992126,"duration":0.23177083333337123},{"name":"A4","midi":69,"time":607.2109375000001,"velocity":0.8031496062992126,"duration":0.23177083333337123},{"name":"D4","midi":62,"time":607.4453125000001,"velocity":0.8031496062992126,"duration":0.46614583333337123},{"name":"B4","midi":71,"time":607.4453125000001,"velocity":0.8031496062992126,"duration":0.46614583333337123},{"name":"C4","midi":60,"time":607.9127604166669,"velocity":0.8031496062992126,"duration":0.46614583333337123},{"name":"A4","midi":69,"time":607.9127604166669,"velocity":0.8031496062992126,"duration":0.23177083333337123},{"name":"F#4","midi":66,"time":608.1471354166669,"velocity":0.8031496062992126,"duration":0.23177083333337123},{"name":"B3","midi":59,"time":608.3815104166669,"velocity":0.8031496062992126,"duration":0.46614583333337123},{"name":"G4","midi":67,"time":608.3815104166669,"velocity":0.8031496062992126,"duration":0.46614583333337123},{"name":"C4","midi":60,"time":608.8489583333336,"velocity":0.8031496062992126,"duration":0.46354166666674246},{"name":"D4","midi":62,"time":608.8489583333336,"velocity":0.8031496062992126,"duration":0.46354166666674246},{"name":"B3","midi":59,"time":609.315104166667,"velocity":0.8031496062992126,"duration":0.46614583333337123},{"name":"G3","midi":55,"time":609.315104166667,"velocity":0.8031496062992126,"duration":2.8046875000001137},{"name":"G4","midi":67,"time":609.315104166667,"velocity":0.8031496062992126,"duration":0.46614583333337123},{"name":"A3","midi":57,"time":609.783854166667,"velocity":0.8031496062992126,"duration":0.46614583333337123},{"name":"A4","midi":69,"time":609.783854166667,"velocity":0.8031496062992126,"duration":0.23177083333337123},{"name":"F#4","midi":66,"time":610.018229166667,"velocity":0.8031496062992126,"duration":0.23177083333337123},{"name":"B3","midi":59,"time":610.252604166667,"velocity":0.8031496062992126,"duration":0.46614583333337123},{"name":"G4","midi":67,"time":610.252604166667,"velocity":0.8031496062992126,"duration":0.23177083333337123},{"name":"A4","midi":69,"time":610.486979166667,"velocity":0.8031496062992126,"duration":0.23177083333337123},{"name":"C4","midi":60,"time":610.7200520833337,"velocity":0.8031496062992126,"duration":0.46614583333337123},{"name":"B4","midi":71,"time":610.7200520833337,"velocity":0.8031496062992126,"duration":0.23177083333337123},{"name":"C5","midi":72,"time":610.9544270833337,"velocity":0.8031496062992126,"duration":0.23177083333337123},{"name":"B3","midi":59,"time":611.1888020833337,"velocity":0.8031496062992126,"duration":0.46614583333337123},{"name":"D5","midi":74,"time":611.1888020833337,"velocity":0.8031496062992126,"duration":0.23177083333337123},{"name":"B4","midi":71,"time":611.4231770833337,"velocity":0.8031496062992126,"duration":0.23177083333337123},{"name":"A3","midi":57,"time":611.6575520833337,"velocity":0.8031496062992126,"duration":0.46614583333337123},{"name":"C5","midi":72,"time":611.6575520833337,"velocity":0.8031496062992126,"duration":0.23177083333337123},{"name":"A4","midi":69,"time":611.8906250000005,"velocity":0.8031496062992126,"duration":0.23177083333325754},{"name":"G3","midi":55,"time":612.1250000000005,"velocity":0.8031496062992126,"duration":0.93359375},{"name":"B4","midi":71,"time":612.1250000000005,"velocity":0.8031496062992126,"duration":0.93359375},{"name":"G3","midi":55,"time":613.0625000000005,"velocity":0.8031496062992126,"duration":3.7356770833337123},{"name":"B3","midi":59,"time":613.0625000000005,"velocity":0.8031496062992126,"duration":0.46614583333337123},{"name":"D5","midi":74,"time":613.0625000000005,"velocity":0.8031496062992126,"duration":0.46614583333337123},{"name":"A3","midi":57,"time":613.5299479166672,"velocity":0.8031496062992126,"duration":0.46614583333337123},{"name":"E5","midi":76,"time":613.5299479166672,"velocity":0.8031496062992126,"duration":0.23177083333337123},{"name":"C5","midi":72,"time":613.7643229166672,"velocity":0.8031496062992126,"duration":0.23177083333337123},{"name":"B3","midi":59,"time":613.9986979166672,"velocity":0.8031496062992126,"duration":0.46614583333337123},{"name":"D5","midi":74,"time":613.9986979166672,"velocity":0.8031496062992126,"duration":0.46614583333337123},{"name":"E4","midi":64,"time":614.4674479166672,"velocity":0.8031496062992126,"duration":0.4661458333334849},{"name":"C5","midi":72,"time":614.4674479166672,"velocity":0.8031496062992126,"duration":0.23177083333337123},{"name":"A4","midi":69,"time":614.7005208333339,"velocity":0.8031496062992126,"duration":0.23177083333337123},{"name":"D4","midi":62,"time":614.934895833334,"velocity":0.8031496062992126,"duration":0.46614583333337123},{"name":"B4","midi":71,"time":614.934895833334,"velocity":0.8031496062992126,"duration":0.23177083333337123},{"name":"G4","midi":67,"time":615.169270833334,"velocity":0.8031496062992126,"duration":0.23177083333337123},{"name":"C4","midi":60,"time":615.403645833334,"velocity":0.8031496062992126,"duration":0.46614583333337123},{"name":"A4","midi":69,"time":615.403645833334,"velocity":0.8031496062992126,"duration":0.23177083333337123},{"name":"F#4","midi":66,"time":615.638020833334,"velocity":0.8031496062992126,"duration":0.23177083333337123},{"name":"C4","midi":60,"time":615.8710937500008,"velocity":0.8031496062992126,"duration":0.23177083333337123},{"name":"G4","midi":67,"time":615.8710937500008,"velocity":0.8031496062992126,"duration":0.46614583333337123},{"name":"B3","midi":59,"time":616.1054687500008,"velocity":0.8031496062992126,"duration":0.23177083333337123},{"name":"A3","midi":57,"time":616.3398437500008,"velocity":0.8031496062992126,"duration":0.23177083333337123},{"name":"D4","midi":62,"time":616.3398437500008,"velocity":0.8031496062992126,"duration":0.46354166666674246},{"name":"B3","midi":59,"time":616.5742187500008,"velocity":0.8031496062992126,"duration":0.22916666666674246},{"name":"C4","midi":60,"time":616.8059895833342,"velocity":0.8031496062992126,"duration":0.46614583333337123},{"name":"G3","midi":55,"time":616.8059895833342,"velocity":0.8031496062992126,"duration":3.7356770833335986},{"name":"E4","midi":64,"time":616.8059895833342,"velocity":0.8031496062992126,"duration":0.23177083333337123},{"name":"D4","midi":62,"time":617.0403645833342,"velocity":0.8031496062992126,"duration":0.23177083333337123},{"name":"B3","midi":59,"time":617.2747395833342,"velocity":0.8031496062992126,"duration":0.46614583333337123},{"name":"G4","midi":67,"time":617.2747395833342,"velocity":0.8031496062992126,"duration":0.23177083333337123},{"name":"D4","midi":62,"time":617.5091145833342,"velocity":0.8031496062992126,"duration":0.23177083333337123},{"name":"C4","midi":60,"time":617.7421875000009,"velocity":0.8031496062992126,"duration":0.46614583333337123},{"name":"E4","midi":64,"time":617.7421875000009,"velocity":0.8031496062992126,"duration":0.23177083333337123},{"name":"D4","midi":62,"time":617.9765625000009,"velocity":0.8031496062992126,"duration":0.23177083333337123},{"name":"B3","midi":59,"time":618.2109375000009,"velocity":0.8031496062992126,"duration":0.46614583333337123},{"name":"G4","midi":67,"time":618.2109375000009,"velocity":0.8031496062992126,"duration":0.23177083333337123},{"name":"D4","midi":62,"time":618.4453125000009,"velocity":0.8031496062992126,"duration":0.23177083333337123},{"name":"C4","midi":60,"time":618.6796875000009,"velocity":0.8031496062992126,"duration":0.4661458333334849},{"name":"E4","midi":64,"time":618.6796875000009,"velocity":0.8031496062992126,"duration":0.23177083333337123},{"name":"D4","midi":62,"time":618.9127604166677,"velocity":0.8031496062992126,"duration":0.23177083333337123},{"name":"C4","midi":60,"time":619.1471354166678,"velocity":0.8031496062992126,"duration":0.23177083333337123},{"name":"A4","midi":69,"time":619.1471354166678,"velocity":0.8031496062992126,"duration":0.46614583333337123},{"name":"A3","midi":57,"time":619.3815104166678,"velocity":0.8031496062992126,"duration":0.23177083333337123},{"name":"C4","midi":60,"time":619.6158854166678,"velocity":0.8031496062992126,"duration":0.9322916666666288},{"name":"A4","midi":69,"time":619.6158854166678,"velocity":0.8031496062992126,"duration":0.9322916666666288},{"name":"F#4","midi":66,"time":619.6158854166678,"velocity":0.8031496062992126,"duration":0.9322916666666288},{"name":"C4","midi":60,"time":620.550781250001,"velocity":0.8031496062992126,"duration":0.46614583333337123},{"name":"G3","midi":55,"time":620.550781250001,"velocity":0.8031496062992126,"duration":3.7356770833337123},{"name":"A4","midi":69,"time":620.550781250001,"velocity":0.8031496062992126,"duration":0.46614583333337123},{"name":"D4","midi":62,"time":621.0182291666678,"velocity":0.8031496062992126,"duration":0.46614583333337123},{"name":"B4","midi":71,"time":621.0182291666678,"velocity":0.8031496062992126,"duration":0.23177083333337123},{"name":"G4","midi":67,"time":621.2526041666678,"velocity":0.8031496062992126,"duration":0.23177083333337123},{"name":"E4","midi":64,"time":621.4869791666678,"velocity":0.8031496062992126,"duration":0.46614583333337123},{"name":"C5","midi":72,"time":621.4869791666678,"velocity":0.8031496062992126,"duration":0.46614583333337123},{"name":"D4","midi":62,"time":621.9557291666678,"velocity":0.8031496062992126,"duration":0.4661458333334849},{"name":"B4","midi":71,"time":621.9557291666678,"velocity":0.8031496062992126,"duration":0.23177083333337123},{"name":"G4","midi":67,"time":622.1888020833345,"velocity":0.8031496062992126,"duration":0.23177083333337123},{"name":"C4","midi":60,"time":622.4231770833346,"velocity":0.8031496062992126,"duration":0.46614583333337123},{"name":"E5","midi":76,"time":622.4231770833346,"velocity":0.8031496062992126,"duration":0.23177083333337123},{"name":"C5","midi":72,"time":622.6575520833346,"velocity":0.8031496062992126,"duration":0.23177083333337123},{"name":"B3","midi":59,"time":622.8919270833346,"velocity":0.8031496062992126,"duration":0.46614583333337123},{"name":"D5","midi":74,"time":622.8919270833346,"velocity":0.8031496062992126,"duration":0.23177083333337123},{"name":"B4","midi":71,"time":623.1263020833346,"velocity":0.8031496062992126,"duration":0.23177083333337123},{"name":"A3","midi":57,"time":623.3593750000014,"velocity":0.8031496062992126,"duration":0.46614583333337123},{"name":"C5","midi":72,"time":623.3593750000014,"velocity":0.8031496062992126,"duration":0.23177083333337123},{"name":"B4","midi":71,"time":623.5937500000014,"velocity":0.8031496062992126,"duration":0.23177083333337123},{"name":"B3","midi":59,"time":623.8281250000014,"velocity":0.8031496062992126,"duration":0.46354166666674246},{"name":"A4","midi":69,"time":623.8281250000014,"velocity":0.8031496062992126,"duration":0.23177083333337123},{"name":"G4","midi":67,"time":624.0625000000014,"velocity":0.8031496062992126,"duration":0.22916666666674246},{"name":"C4","midi":60,"time":624.2942708333347,"velocity":0.8031496062992126,"duration":0.46614583333337123},{"name":"G3","midi":55,"time":624.2942708333347,"velocity":0.8031496062992126,"duration":3.7356770833335986},{"name":"A4","midi":69,"time":624.2942708333347,"velocity":0.8031496062992126,"duration":0.23177083333337123},{"name":"B4","midi":71,"time":624.5286458333347,"velocity":0.8031496062992126,"duration":0.23177083333337123},{"name":"D4","midi":62,"time":624.7630208333347,"velocity":0.8031496062992126,"duration":0.46614583333337123},{"name":"C5","midi":72,"time":624.7630208333347,"velocity":0.8031496062992126,"duration":0.23177083333337123},{"name":"B4","midi":71,"time":624.9973958333347,"velocity":0.8031496062992126,"duration":0.23177083333337123},{"name":"C4","midi":60,"time":625.2304687500015,"velocity":0.8031496062992126,"duration":0.46614583333337123},{"name":"A4","midi":69,"time":625.2304687500015,"velocity":0.8031496062992126,"duration":0.23177083333337123},{"name":"G4","midi":67,"time":625.4648437500015,"velocity":0.8031496062992126,"duration":0.23177083333337123},{"name":"E4","midi":64,"time":625.6992187500015,"velocity":0.8031496062992126,"duration":0.46614583333337123},{"name":"F#4","midi":66,"time":625.6992187500015,"velocity":0.8031496062992126,"duration":0.23177083333337123},{"name":"G4","midi":67,"time":625.9335937500015,"velocity":0.8031496062992126,"duration":0.23177083333337123},{"name":"D4","midi":62,"time":626.1679687500015,"velocity":0.8031496062992126,"duration":0.4661458333334849},{"name":"A4","midi":69,"time":626.1679687500015,"velocity":0.8031496062992126,"duration":0.23177083333337123},{"name":"G4","midi":67,"time":626.4010416666682,"velocity":0.8031496062992126,"duration":0.23177083333337123},{"name":"C4","midi":60,"time":626.6354166666683,"velocity":0.8031496062992126,"duration":0.46614583333337123},{"name":"F#4","midi":66,"time":626.6354166666683,"velocity":0.8031496062992126,"duration":0.23177083333337123},{"name":"E4","midi":64,"time":626.8697916666683,"velocity":0.8031496062992126,"duration":0.23177083333337123},{"name":"B3","midi":59,"time":627.1041666666683,"velocity":0.8031496062992126,"duration":0.46614583333337123},{"name":"D4","midi":62,"time":627.1041666666683,"velocity":0.8031496062992126,"duration":1.3997395833332575},{"name":"C4","midi":60,"time":627.5729166666683,"velocity":0.8031496062992126,"duration":0.46354166666662877},{"name":"B3","midi":59,"time":628.0390625000016,"velocity":0.8031496062992126,"duration":0.46614583333337123},{"name":"G3","midi":55,"time":628.0390625000016,"velocity":0.8031496062992126,"duration":3.7356770833337123},{"name":"A3","midi":57,"time":628.5065104166683,"velocity":0.8031496062992126,"duration":0.46614583333337123},{"name":"E4","midi":64,"time":628.5065104166683,"velocity":0.8031496062992126,"duration":0.23177083333337123},{"name":"C4","midi":60,"time":628.7408854166683,"velocity":0.8031496062992126,"duration":0.23177083333337123},{"name":"B3","midi":59,"time":628.9752604166683,"velocity":0.8031496062992126,"duration":0.46614583333337123},{"name":"D4","midi":62,"time":628.9752604166683,"velocity":0.8031496062992126,"duration":0.46614583333337123},{"name":"C4","midi":60,"time":629.4440104166683,"velocity":0.8031496062992126,"duration":0.4661458333334849},{"name":"G4","midi":67,"time":629.4440104166683,"velocity":0.8031496062992126,"duration":0.23177083333337123},{"name":"A4","midi":69,"time":629.6770833333351,"velocity":0.8031496062992126,"duration":0.23177083333337123},{"name":"D4","midi":62,"time":629.9114583333352,"velocity":0.8031496062992126,"duration":0.46614583333337123},{"name":"B4","midi":71,"time":629.9114583333352,"velocity":0.8031496062992126,"duration":0.46614583333337123},{"name":"C4","midi":60,"time":630.3802083333352,"velocity":0.8031496062992126,"duration":0.46614583333337123},{"name":"A4","midi":69,"time":630.3802083333352,"velocity":0.8031496062992126,"duration":0.23177083333337123},{"name":"F#4","midi":66,"time":630.6145833333352,"velocity":0.8031496062992126,"duration":0.23177083333337123},{"name":"B3","midi":59,"time":630.8476562500019,"velocity":0.8031496062992126,"duration":0.9322916666667425},{"name":"G4","midi":67,"time":630.8476562500019,"velocity":0.8031496062992126,"duration":0.46614583333337123},{"name":"D4","midi":62,"time":631.3164062500019,"velocity":0.8031496062992126,"duration":0.47786458333337123},{"name":"B4","midi":71,"time":631.8033854166687,"velocity":0.8031496062992126,"duration":0.23177083333337123},{"name":"G3","midi":55,"time":631.8033854166687,"velocity":0.8031496062992126,"duration":5.865885416666401},{"name":"D4","midi":62,"time":631.8033854166687,"velocity":0.8031496062992126,"duration":0.7018229166666288},{"name":"F#4","midi":66,"time":632.0377604166687,"velocity":0.8031496062992126,"duration":0.23177083333337123},{"name":"G4","midi":67,"time":632.2721354166687,"velocity":0.8031496062992126,"duration":0.28645833333325754},{"name":"D4","midi":62,"time":632.5078125000019,"velocity":0.8031496062992126,"duration":0.24479166666662877},{"name":"B3","midi":59,"time":632.7630208333352,"velocity":0.8031496062992126,"duration":0.9335937499998863},{"name":"D5","midi":74,"time":632.7630208333352,"velocity":0.8031496062992126,"duration":0.23177083333337123},{"name":"F#4","midi":66,"time":632.9973958333352,"velocity":0.8031496062992126,"duration":0.23177083333337123},{"name":"G4","midi":67,"time":633.2317708333352,"velocity":0.8031496062992126,"duration":0.28645833333325754},{"name":"D4","midi":62,"time":633.4648437500018,"velocity":0.8031496062992126,"duration":0.24479166666662877},{"name":"B4","midi":71,"time":633.7200520833351,"velocity":0.8031496062992126,"duration":0.23177083333337123},{"name":"D4","midi":62,"time":633.7200520833351,"velocity":0.8031496062992126,"duration":0.6966145833333712},{"name":"F#4","midi":66,"time":633.9544270833351,"velocity":0.8031496062992126,"duration":0.23177083333337123},{"name":"G4","midi":67,"time":634.1888020833351,"velocity":0.8031496062992126,"duration":0.33854166666674246},{"name":"D4","midi":62,"time":634.4453125000018,"velocity":0.8031496062992126,"duration":0.24479166666662877},{"name":"B3","midi":59,"time":634.7213541666684,"velocity":0.8031496062992126,"duration":3.05859375},{"name":"D4","midi":62,"time":634.7213541666684,"velocity":0.8031496062992126,"duration":3.05859375},{"name":"G4","midi":67,"time":634.7213541666684,"velocity":0.8031496062992126,"duration":3.05859375},{"name":"D5","midi":74,"time":639.8268229166684,"velocity":0.8031496062992126,"duration":0.19921875},{"name":"D#5","midi":75,"time":640.0494791666684,"velocity":0.8031496062992126,"duration":0.21875},{"name":"D5","midi":74,"time":640.2734375000018,"velocity":0.8031496062992126,"duration":0.20833333333337123},{"name":"C5","midi":72,"time":640.4947916666686,"velocity":0.8031496062992126,"duration":0.19921875},{"name":"A#4","midi":70,"time":640.7187500000019,"velocity":0.8031496062992126,"duration":0.21875},{"name":"A4","midi":69,"time":640.9427083333353,"velocity":0.8031496062992126,"duration":0.20833333333337123},{"name":"G4","midi":67,"time":641.164062500002,"velocity":0.8031496062992126,"duration":0.19921875},{"name":"F#4","midi":66,"time":641.386718750002,"velocity":0.8031496062992126,"duration":0.21875},{"name":"A4","midi":69,"time":641.6106770833354,"velocity":0.8031496062992126,"duration":0.20833333333337123},{"name":"D4","midi":62,"time":641.8320312500022,"velocity":0.8031496062992126,"duration":0.19921875},{"name":"C4","midi":60,"time":642.0559895833355,"velocity":0.8031496062992126,"duration":0.21875},{"name":"A#3","midi":58,"time":642.2799479166689,"velocity":0.8031496062992126,"duration":0.20833333333337123},{"name":"A3","midi":57,"time":642.5013020833356,"velocity":0.8031496062992126,"duration":0.19921875},{"name":"A#3","midi":58,"time":642.7239583333356,"velocity":0.8031496062992126,"duration":0.21875},{"name":"D4","midi":62,"time":642.947916666669,"velocity":0.8031496062992126,"duration":0.20833333333337123},{"name":"G4","midi":67,"time":643.1692708333358,"velocity":0.8031496062992126,"duration":0.19921875},{"name":"A3","midi":57,"time":643.3932291666691,"velocity":0.8031496062992126,"duration":0.21875},{"name":"G4","midi":67,"time":643.6171875000025,"velocity":0.8031496062992126,"duration":0.20833333333337123},{"name":"F#4","midi":66,"time":643.8385416666692,"velocity":0.8031496062992126,"duration":0.19921875},{"name":"G4","midi":67,"time":644.0625000000026,"velocity":0.8031496062992126,"duration":0.21875},{"name":"A#4","midi":70,"time":644.2851562500026,"velocity":0.8031496062992126,"duration":0.20833333333337123},{"name":"A4","midi":69,"time":644.5065104166694,"velocity":0.8031496062992126,"duration":0.19921875},{"name":"A#4","midi":70,"time":644.7304687500027,"velocity":0.8031496062992126,"duration":0.21875},{"name":"D5","midi":74,"time":644.9544270833361,"velocity":0.8031496062992126,"duration":0.20833333333337123},{"name":"G4","midi":67,"time":645.1757812500028,"velocity":0.8031496062992126,"duration":0.19921875},{"name":"C5","midi":72,"time":645.1757812500028,"velocity":0.8031496062992126,"duration":0.19921875},{"name":"A#4","midi":70,"time":645.3997395833362,"velocity":0.8031496062992126,"duration":0.21875},{"name":"D5","midi":74,"time":645.3997395833362,"velocity":0.8031496062992126,"duration":0.8880208333334849},{"name":"A4","midi":69,"time":645.6223958333362,"velocity":0.8031496062992126,"duration":0.20833333333337123},{"name":"G4","midi":67,"time":645.843750000003,"velocity":0.8031496062992126,"duration":0.19921875},{"name":"F4","midi":65,"time":646.0677083333363,"velocity":0.8031496062992126,"duration":0.21875},{"name":"E4","midi":64,"time":646.2916666666697,"velocity":0.8031496062992126,"duration":0.20833333333337123},{"name":"E5","midi":76,"time":646.2916666666697,"velocity":0.8031496062992126,"duration":0.20833333333337123},{"name":"D4","midi":62,"time":646.5130208333364,"velocity":0.8031496062992126,"duration":0.19921875},{"name":"F5","midi":77,"time":646.5130208333364,"velocity":0.8031496062992126,"duration":0.19921875},{"name":"C#4","midi":61,"time":646.7369791666698,"velocity":0.8031496062992126,"duration":0.21875},{"name":"E5","midi":76,"time":646.7369791666698,"velocity":0.8031496062992126,"duration":0.8880208333333712},{"name":"E4","midi":64,"time":646.9596354166698,"velocity":0.8031496062992126,"duration":0.20833333333337123},{"name":"A3","midi":57,"time":647.1822916666698,"velocity":0.8031496062992126,"duration":0.19921875},{"name":"G3","midi":55,"time":647.4049479166698,"velocity":0.8031496062992126,"duration":0.21875},{"name":"F3","midi":53,"time":647.6289062500032,"velocity":0.8031496062992126,"duration":0.20833333333337123},{"name":"F5","midi":77,"time":647.6289062500032,"velocity":0.8031496062992126,"duration":0.20833333333337123},{"name":"E3","midi":52,"time":647.8502604166699,"velocity":0.8031496062992126,"duration":0.19921875},{"name":"G5","midi":79,"time":647.8502604166699,"velocity":0.8031496062992126,"duration":0.19921875},{"name":"F3","midi":53,"time":648.0742187500033,"velocity":0.8031496062992126,"duration":0.21875},{"name":"A5","midi":81,"time":648.0742187500033,"velocity":0.8031496062992126,"duration":0.21875},{"name":"A3","midi":57,"time":648.2968750000033,"velocity":0.8031496062992126,"duration":0.20833333333337123},{"name":"G5","midi":79,"time":648.2968750000033,"velocity":0.8031496062992126,"duration":0.20833333333337123},{"name":"D4","midi":62,"time":648.5195312500033,"velocity":0.8031496062992126,"duration":0.19921875},{"name":"F5","midi":77,"time":648.5195312500033,"velocity":0.8031496062992126,"duration":0.19921875},{"name":"E3","midi":52,"time":648.7421875000033,"velocity":0.8031496062992126,"duration":0.21875},{"name":"G5","midi":79,"time":648.7421875000033,"velocity":0.8031496062992126,"duration":0.21875},{"name":"D4","midi":62,"time":648.9661458333367,"velocity":0.8031496062992126,"duration":0.20833333333337123},{"name":"F5","midi":77,"time":648.9661458333367,"velocity":0.8031496062992126,"duration":0.20833333333337123},{"name":"C#4","midi":61,"time":649.1875000000034,"velocity":0.8031496062992126,"duration":0.19921875},{"name":"E5","midi":76,"time":649.1875000000034,"velocity":0.8031496062992126,"duration":0.19921875},{"name":"D4","midi":62,"time":649.4114583333368,"velocity":0.8031496062992126,"duration":0.8880208333334849},{"name":"F5","midi":77,"time":649.4114583333368,"velocity":0.8031496062992126,"duration":0.21875},{"name":"G5","midi":79,"time":649.6354166666702,"velocity":0.8031496062992126,"duration":0.20833333333337123},{"name":"A5","midi":81,"time":649.8567708333369,"velocity":0.8031496062992126,"duration":0.19921875},{"name":"D5","midi":74,"time":650.0794270833369,"velocity":0.8031496062992126,"duration":0.8880208333334849},{"name":"E4","midi":64,"time":650.3033854166703,"velocity":0.8031496062992126,"duration":0.20833333333337123},{"name":"F4","midi":65,"time":650.524739583337,"velocity":0.8031496062992126,"duration":0.19921875},{"name":"E4","midi":64,"time":650.7486979166704,"velocity":0.8031496062992126,"duration":0.8880208333334849},{"name":"C5","midi":72,"time":650.9726562500038,"velocity":0.8031496062992126,"duration":0.20833333333337123},{"name":"A#4","midi":70,"time":651.1940104166705,"velocity":0.8031496062992126,"duration":0.19921875},{"name":"C5","midi":72,"time":651.4166666666705,"velocity":0.8031496062992126,"duration":1.1093750000002274},{"name":"F#4","midi":66,"time":651.6406250000039,"velocity":0.8031496062992126,"duration":0.20833333333337123},{"name":"G4","midi":67,"time":651.8619791666706,"velocity":0.8031496062992126,"duration":0.19921875},{"name":"A4","midi":69,"time":652.085937500004,"velocity":0.8031496062992126,"duration":0.21875},{"name":"G4","midi":67,"time":652.3098958333374,"velocity":0.8031496062992126,"duration":0.20833333333337123},{"name":"F#4","midi":66,"time":652.5312500000041,"velocity":0.8031496062992126,"duration":0.19921875},{"name":"D5","midi":74,"time":652.5312500000041,"velocity":0.8031496062992126,"duration":0.19921875},{"name":"G4","midi":67,"time":652.7552083333375,"velocity":0.8031496062992126,"duration":0.21875},{"name":"A#4","midi":70,"time":652.7552083333375,"velocity":0.8031496062992126,"duration":0.44010416666674246},{"name":"F#4","midi":66,"time":652.9778645833375,"velocity":0.8031496062992126,"duration":0.20833333333337123},{"name":"E4","midi":64,"time":653.1992187500042,"velocity":0.8031496062992126,"duration":0.19921875},{"name":"C5","midi":72,"time":653.1992187500042,"velocity":0.8031496062992126,"duration":0.19921875},{"name":"F#4","midi":66,"time":653.4231770833376,"velocity":0.8031496062992126,"duration":0.21875},{"name":"A4","midi":69,"time":653.4231770833376,"velocity":0.8031496062992126,"duration":0.44010416666674246},{"name":"E4","midi":64,"time":653.647135416671,"velocity":0.8031496062992126,"duration":0.20833333333337123},{"name":"D4","midi":62,"time":653.8684895833377,"velocity":0.8031496062992126,"duration":0.19921875},{"name":"A#4","midi":70,"time":653.8684895833377,"velocity":0.8031496062992126,"duration":0.19921875},{"name":"E4","midi":64,"time":654.0924479166711,"velocity":0.8031496062992126,"duration":0.21875},{"name":"C5","midi":72,"time":654.0924479166711,"velocity":0.8031496062992126,"duration":0.44010416666674246},{"name":"G4","midi":67,"time":654.3151041666711,"velocity":0.8031496062992126,"duration":0.20833333333337123},{"name":"F#4","midi":66,"time":654.5364583333378,"velocity":0.8031496062992126,"duration":0.19921875},{"name":"D4","midi":62,"time":654.5364583333378,"velocity":0.8031496062992126,"duration":0.19921875},{"name":"D5","midi":74,"time":654.5364583333378,"velocity":0.8031496062992126,"duration":0.19921875},{"name":"G4","midi":67,"time":654.7604166666712,"velocity":0.8031496062992126,"duration":0.8880208333334849},{"name":"D#4","midi":63,"time":654.7604166666712,"velocity":0.8031496062992126,"duration":0.21875},{"name":"A#4","midi":70,"time":654.7604166666712,"velocity":0.8031496062992126,"duration":0.44010416666674246},{"name":"D4","midi":62,"time":654.9843750000045,"velocity":0.8031496062992126,"duration":0.20833333333337123},{"name":"C4","midi":60,"time":655.2057291666713,"velocity":0.8031496062992126,"duration":0.19921875},{"name":"C5","midi":72,"time":655.2057291666713,"velocity":0.8031496062992126,"duration":0.19921875},{"name":"A#3","midi":58,"time":655.4296875000047,"velocity":0.8031496062992126,"duration":0.21875},{"name":"D5","midi":74,"time":655.4296875000047,"velocity":0.8031496062992126,"duration":1.1093750000001137},{"name":"A3","midi":57,"time":655.6523437500047,"velocity":0.8031496062992126,"duration":0.20833333333337123},{"name":"A4","midi":69,"time":655.6523437500047,"velocity":0.8031496062992126,"duration":0.20833333333337123},{"name":"A#4","midi":70,"time":655.8750000000047,"velocity":0.8031496062992126,"duration":0.19921875},{"name":"G3","midi":55,"time":655.8750000000047,"velocity":0.8031496062992126,"duration":0.19921875},{"name":"A4","midi":69,"time":656.0976562500047,"velocity":0.8031496062992126,"duration":0.8880208333334849},{"name":"F#3","midi":54,"time":656.0976562500047,"velocity":0.8031496062992126,"duration":0.21875},{"name":"A3","midi":57,"time":656.321614583338,"velocity":0.8031496062992126,"duration":0.20833333333337123},{"name":"D3","midi":50,"time":656.5429687500048,"velocity":0.8031496062992126,"duration":0.19921875},{"name":"E5","midi":76,"time":656.5429687500048,"velocity":0.8031496062992126,"duration":0.19921875},{"name":"C3","midi":48,"time":656.7669270833381,"velocity":0.8031496062992126,"duration":0.21875},{"name":"F#5","midi":78,"time":656.7669270833381,"velocity":0.8031496062992126,"duration":0.6640625000001137},{"name":"A#4","midi":70,"time":656.9908854166715,"velocity":0.8031496062992126,"duration":0.20833333333337123},{"name":"A#2","midi":46,"time":656.9908854166715,"velocity":0.8031496062992126,"duration":0.20833333333337123},{"name":"A2","midi":45,"time":657.2122395833383,"velocity":0.8031496062992126,"duration":0.19921875},{"name":"C5","midi":72,"time":657.2122395833383,"velocity":0.8031496062992126,"duration":0.19921875},{"name":"D5","midi":74,"time":657.4348958333383,"velocity":0.8031496062992126,"duration":0.21875},{"name":"A#2","midi":46,"time":657.4348958333383,"velocity":0.8031496062992126,"duration":0.21875},{"name":"G5","midi":79,"time":657.4348958333383,"velocity":0.8031496062992126,"duration":0.6640625000001137},{"name":"C5","midi":72,"time":657.6588541666716,"velocity":0.8031496062992126,"duration":0.20833333333337123},{"name":"D3","midi":50,"time":657.6588541666716,"velocity":0.8031496062992126,"duration":0.20833333333337123},{"name":"A#4","midi":70,"time":657.8802083333384,"velocity":0.8031496062992126,"duration":0.19921875},{"name":"G3","midi":55,"time":657.8802083333384,"velocity":0.8031496062992126,"duration":0.19921875},{"name":"C5","midi":72,"time":658.1041666666717,"velocity":0.8031496062992126,"duration":0.21875},{"name":"A2","midi":45,"time":658.1041666666717,"velocity":0.8031496062992126,"duration":0.21875},{"name":"A5","midi":81,"time":658.1041666666717,"velocity":0.8031496062992126,"duration":1.3320312500002274},{"name":"A#4","midi":70,"time":658.3281250000051,"velocity":0.8031496062992126,"duration":0.20833333333337123},{"name":"G3","midi":55,"time":658.3281250000051,"velocity":0.8031496062992126,"duration":0.20833333333337123},{"name":"F#3","midi":54,"time":658.5494791666719,"velocity":0.8031496062992126,"duration":0.19921875},{"name":"A4","midi":69,"time":658.5494791666719,"velocity":0.8031496062992126,"duration":0.19921875},{"name":"A#4","midi":70,"time":658.7721354166719,"velocity":0.8031496062992126,"duration":1.3346354166669698},{"name":"G3","midi":55,"time":658.7721354166719,"velocity":0.8031496062992126,"duration":0.21875},{"name":"A#3","midi":58,"time":658.9960937500052,"velocity":0.8031496062992126,"duration":0.20833333333337123},{"name":"A3","midi":57,"time":659.217447916672,"velocity":0.8031496062992126,"duration":0.19921875},{"name":"A#3","midi":58,"time":659.4414062500053,"velocity":0.8031496062992126,"duration":0.21875},{"name":"G5","midi":79,"time":659.4414062500053,"velocity":0.8031496062992126,"duration":0.8880208333334849},{"name":"D4","midi":62,"time":659.6653645833387,"velocity":0.8031496062992126,"duration":0.20833333333337123},{"name":"C4","midi":60,"time":659.8867187500055,"velocity":0.8031496062992126,"duration":0.19921875},{"name":"A4","midi":69,"time":660.1093750000055,"velocity":0.8031496062992126,"duration":1.3346354166669698},{"name":"D4","midi":62,"time":660.1093750000055,"velocity":0.8031496062992126,"duration":0.8880208333334849},{"name":"F5","midi":77,"time":660.3333333333388,"velocity":0.8031496062992126,"duration":0.20833333333337123},{"name":"E5","midi":76,"time":660.5546875000056,"velocity":0.8031496062992126,"duration":0.19921875},{"name":"F5","midi":77,"time":660.7786458333389,"velocity":0.8031496062992126,"duration":1.3320312500002274},{"name":"A3","midi":57,"time":661.0026041666723,"velocity":0.8031496062992126,"duration":0.20833333333337123},{"name":"D3","midi":50,"time":661.223958333339,"velocity":0.8031496062992126,"duration":0.19921875},{"name":"G4","midi":67,"time":661.4479166666724,"velocity":0.8031496062992126,"duration":1.3346354166668561},{"name":"D#3","midi":51,"time":661.4479166666724,"velocity":0.8031496062992126,"duration":0.21875},{"name":"G3","midi":55,"time":661.6705729166724,"velocity":0.8031496062992126,"duration":0.20833333333337123},{"name":"F3","midi":53,"time":661.8919270833392,"velocity":0.8031496062992126,"duration":0.19921875},{"name":"G3","midi":55,"time":662.1158854166725,"velocity":0.8031496062992126,"duration":0.21875},{"name":"D#5","midi":75,"time":662.1158854166725,"velocity":0.8031496062992126,"duration":0.8880208333333712},{"name":"A#3","midi":58,"time":662.3398437500059,"velocity":0.8031496062992126,"duration":0.20833333333337123},{"name":"A3","midi":57,"time":662.5611979166727,"velocity":0.8031496062992126,"duration":0.19921875},{"name":"F4","midi":65,"time":662.7851562500059,"velocity":0.8031496062992126,"duration":1.3346354166668561},{"name":"A#3","midi":58,"time":662.7851562500059,"velocity":0.8031496062992126,"duration":0.8880208333334849},{"name":"D5","midi":74,"time":663.0078125000059,"velocity":0.8031496062992126,"duration":0.20833333333337123},{"name":"C5","midi":72,"time":663.2291666666727,"velocity":0.8031496062992126,"duration":0.19921875},{"name":"D5","midi":74,"time":663.453125000006,"velocity":0.8031496062992126,"duration":1.33203125},{"name":"F3","midi":53,"time":663.6770833333394,"velocity":0.8031496062992126,"duration":0.20833333333337123},{"name":"A#2","midi":46,"time":663.8984375000061,"velocity":0.8031496062992126,"duration":0.19921875},{"name":"D#4","midi":63,"time":664.1223958333394,"velocity":0.8031496062992126,"duration":1.3346354166667425},{"name":"C3","midi":48,"time":664.1223958333394,"velocity":0.8031496062992126,"duration":0.21875},{"name":"D#3","midi":51,"time":664.3450520833394,"velocity":0.8031496062992126,"duration":0.20833333333337123},{"name":"D3","midi":50,"time":664.5677083333394,"velocity":0.8031496062992126,"duration":0.19921875},{"name":"D#3","midi":51,"time":664.7903645833394,"velocity":0.8031496062992126,"duration":0.21875},{"name":"C5","midi":72,"time":664.7903645833394,"velocity":0.8031496062992126,"duration":0.8880208333333712},{"name":"G3","midi":55,"time":665.0143229166728,"velocity":0.8031496062992126,"duration":0.20833333333337123},{"name":"F3","midi":53,"time":665.2356770833395,"velocity":0.8031496062992126,"duration":0.19921875},{"name":"G3","midi":55,"time":665.4596354166728,"velocity":0.8031496062992126,"duration":1.1002604166668561},{"name":"D4","midi":62,"time":665.4596354166728,"velocity":0.8031496062992126,"duration":0.8880208333334849},{"name":"A#4","midi":70,"time":665.6835937500061,"velocity":0.8031496062992126,"duration":0.20833333333337123},{"name":"A4","midi":69,"time":665.9049479166729,"velocity":0.8031496062992126,"duration":0.19921875},{"name":"A#4","midi":70,"time":666.1276041666729,"velocity":0.8031496062992126,"duration":0.8880208333334849},{"name":"F4","midi":65,"time":666.3515625000063,"velocity":0.8031496062992126,"duration":0.20833333333337123},{"name":"E4","midi":64,"time":666.572916666673,"velocity":0.8031496062992126,"duration":0.19921875},{"name":"C#3","midi":49,"time":666.572916666673,"velocity":0.8031496062992126,"duration":0.19921875},{"name":"F4","midi":65,"time":666.7968750000064,"velocity":0.8031496062992126,"duration":0.44270833333337123},{"name":"D3","midi":50,"time":666.7968750000064,"velocity":0.8031496062992126,"duration":0.44270833333337123},{"name":"A4","midi":69,"time":667.0208333333397,"velocity":0.8031496062992126,"duration":0.6653645833334849},{"name":"C3","midi":48,"time":667.2434895833397,"velocity":0.8031496062992126,"duration":0.19921875},{"name":"E4","midi":64,"time":667.2434895833397,"velocity":0.8031496062992126,"duration":0.19921875},{"name":"C3","midi":48,"time":667.4674479166731,"velocity":0.8031496062992126,"duration":0.10677083333337123},{"name":"D4","midi":62,"time":667.4674479166731,"velocity":0.8031496062992126,"duration":0.8893229166670835},{"name":"A#2","midi":46,"time":667.5794270833399,"velocity":0.8031496062992126,"duration":0.10677083333337123},{"name":"C3","midi":48,"time":667.6914062500066,"velocity":0.8031496062992126,"duration":0.10677083333337123},{"name":"A4","midi":69,"time":667.6914062500066,"velocity":0.8031496062992126,"duration":0.2109375000001137},{"name":"A#2","midi":46,"time":667.8033854166733,"velocity":0.8031496062992126,"duration":0.10677083333337123},{"name":"C3","midi":48,"time":667.9140625000067,"velocity":0.8031496062992126,"duration":0.10677083333337123},{"name":"G4","midi":67,"time":667.9140625000067,"velocity":0.8031496062992126,"duration":0.1992187500001137},{"name":"A#2","midi":46,"time":668.0260416666734,"velocity":0.8031496062992126,"duration":0.10677083333337123},{"name":"A2","midi":45,"time":668.1380208333402,"velocity":0.8031496062992126,"duration":0.6601562500001137},{"name":"A4","midi":69,"time":668.1380208333402,"velocity":0.8031496062992126,"duration":0.6601562500001137},{"name":"C#4","midi":61,"time":668.3619791666736,"velocity":0.8031496062992126,"duration":0.20833333333337123},{"name":"B3","midi":59,"time":668.5833333333403,"velocity":0.8031496062992126,"duration":0.19921875},{"name":"C#4","midi":61,"time":668.8046875000069,"velocity":0.8031496062992126,"duration":0.6575520833333712},{"name":"E4","midi":64,"time":669.0260416666736,"velocity":0.8031496062992126,"duration":0.20833333333337123},{"name":"A3","midi":57,"time":669.2473958333403,"velocity":0.8031496062992126,"duration":0.19921875},{"name":"G4","midi":67,"time":669.2473958333403,"velocity":0.8031496062992126,"duration":0.19921875},{"name":"D4","midi":62,"time":669.4687500000069,"velocity":0.8031496062992126,"duration":0.8880208333334849},{"name":"A#3","midi":58,"time":669.4687500000069,"velocity":0.8031496062992126,"duration":0.21875},{"name":"F4","midi":65,"time":669.4687500000069,"velocity":0.8031496062992126,"duration":0.8880208333334849},{"name":"A3","midi":57,"time":669.6927083333403,"velocity":0.8031496062992126,"duration":0.20833333333337123},{"name":"G3","midi":55,"time":669.914062500007,"velocity":0.8031496062992126,"duration":0.19921875},{"name":"F3","midi":53,"time":670.1380208333404,"velocity":0.8031496062992126,"duration":0.21875},{"name":"E4","midi":64,"time":670.3619791666738,"velocity":0.8031496062992126,"duration":0.20833333333337123},{"name":"E3","midi":52,"time":670.3619791666738,"velocity":0.8031496062992126,"duration":0.20833333333337123},{"name":"G4","midi":67,"time":670.3619791666738,"velocity":0.8031496062992126,"duration":0.20833333333337123},{"name":"D3","midi":50,"time":670.5833333333405,"velocity":0.8031496062992126,"duration":0.19921875},{"name":"F4","midi":65,"time":670.5833333333405,"velocity":0.8031496062992126,"duration":0.19921875},{"name":"A4","midi":69,"time":670.5833333333405,"velocity":0.8031496062992126,"duration":0.19921875},{"name":"C#3","midi":49,"time":670.8072916666739,"velocity":0.8031496062992126,"duration":0.21875},{"name":"E4","midi":64,"time":670.8072916666739,"velocity":0.8031496062992126,"duration":0.8880208333334849},{"name":"G4","midi":67,"time":670.8072916666739,"velocity":0.8031496062992126,"duration":0.8880208333334849},{"name":"E3","midi":52,"time":671.0299479166739,"velocity":0.8031496062992126,"duration":0.20833333333337123},{"name":"A2","midi":45,"time":671.2513020833406,"velocity":0.8031496062992126,"duration":0.19921875},{"name":"G2","midi":43,"time":671.475260416674,"velocity":0.8031496062992126,"duration":0.21875},{"name":"F2","midi":41,"time":671.6992187500074,"velocity":0.8031496062992126,"duration":0.20833333333337123},{"name":"F4","midi":65,"time":671.6992187500074,"velocity":0.8031496062992126,"duration":0.20833333333337123},{"name":"A4","midi":69,"time":671.6992187500074,"velocity":0.8031496062992126,"duration":0.20833333333337123},{"name":"G4","midi":67,"time":671.9205729166741,"velocity":0.8031496062992126,"duration":0.19921875},{"name":"E2","midi":40,"time":671.9205729166741,"velocity":0.8031496062992126,"duration":0.19921875},{"name":"A#4","midi":70,"time":671.9205729166741,"velocity":0.8031496062992126,"duration":0.19921875},{"name":"F2","midi":41,"time":672.1445312500075,"velocity":0.8031496062992126,"duration":0.21875},{"name":"A4","midi":69,"time":672.1445312500075,"velocity":0.8031496062992126,"duration":0.6601562500001137},{"name":"A2","midi":45,"time":672.3671875000075,"velocity":0.8031496062992126,"duration":0.20833333333337123},{"name":"D5","midi":74,"time":672.3671875000075,"velocity":0.8031496062992126,"duration":0.20833333333337123},{"name":"D3","midi":50,"time":672.5885416666742,"velocity":0.8031496062992126,"duration":0.19921875},{"name":"F5","midi":77,"time":672.5885416666742,"velocity":0.8031496062992126,"duration":0.44010416666662877},{"name":"E2","midi":40,"time":672.8111979166742,"velocity":0.8031496062992126,"duration":0.21875},{"name":"G4","midi":67,"time":672.8111979166742,"velocity":0.8031496062992126,"duration":0.6601562500001137},{"name":"D3","midi":50,"time":673.0338541666742,"velocity":0.8031496062992126,"duration":0.20833333333337123},{"name":"G5","midi":79,"time":673.0338541666742,"velocity":0.8031496062992126,"duration":0.20833333333337123},{"name":"C#3","midi":49,"time":673.255208333341,"velocity":0.8031496062992126,"duration":0.19921875},{"name":"E5","midi":76,"time":673.255208333341,"velocity":0.8031496062992126,"duration":0.19921875},{"name":"D3","midi":50,"time":673.4765625000077,"velocity":0.8031496062992126,"duration":0.8880208333334849},{"name":"F5","midi":77,"time":673.4765625000077,"velocity":0.8031496062992126,"duration":0.21875},{"name":"A5","midi":81,"time":673.7005208333411,"velocity":0.8031496062992126,"duration":0.20833333333337123},{"name":"G5","midi":79,"time":673.9218750000078,"velocity":0.8031496062992126,"duration":0.19921875},{"name":"A5","midi":81,"time":674.1458333333412,"velocity":0.8031496062992126,"duration":0.6640625000001137},{"name":"F3","midi":53,"time":674.3697916666746,"velocity":0.8031496062992126,"duration":0.20833333333337123},{"name":"E3","midi":52,"time":674.5911458333413,"velocity":0.8031496062992126,"duration":0.19921875},{"name":"F3","midi":53,"time":674.8151041666747,"velocity":0.8031496062992126,"duration":0.21875},{"name":"A4","midi":69,"time":674.8151041666747,"velocity":0.8031496062992126,"duration":0.21875},{"name":"A3","midi":57,"time":675.0377604166747,"velocity":0.8031496062992126,"duration":0.20833333333337123},{"name":"C#5","midi":73,"time":675.0377604166747,"velocity":0.8031496062992126,"duration":0.20833333333337123},{"name":"G3","midi":55,"time":675.2591145833414,"velocity":0.8031496062992126,"duration":0.19921875},{"name":"B4","midi":71,"time":675.2591145833414,"velocity":0.8031496062992126,"duration":0.19921875},{"name":"A3","midi":57,"time":675.4830729166748,"velocity":0.8031496062992126,"duration":0.6640625000001137},{"name":"C#5","midi":73,"time":675.4830729166748,"velocity":0.8031496062992126,"duration":0.21875},{"name":"E5","midi":76,"time":675.7070312500082,"velocity":0.8031496062992126,"duration":0.20833333333337123},{"name":"D5","midi":74,"time":675.9283854166749,"velocity":0.8031496062992126,"duration":0.19921875},{"name":"A2","midi":45,"time":676.1523437500083,"velocity":0.8031496062992126,"duration":0.21875},{"name":"E5","midi":76,"time":676.1523437500083,"velocity":0.8031496062992126,"duration":0.6640625000001137},{"name":"C#3","midi":49,"time":676.3750000000083,"velocity":0.8031496062992126,"duration":0.20833333333337123},{"name":"B2","midi":47,"time":676.596354166675,"velocity":0.8031496062992126,"duration":0.19921875},{"name":"C#3","midi":49,"time":676.8203125000084,"velocity":0.8031496062992126,"duration":0.21875},{"name":"E4","midi":64,"time":676.8203125000084,"velocity":0.8031496062992126,"duration":0.21875},{"name":"E3","midi":52,"time":677.0442708333418,"velocity":0.8031496062992126,"duration":0.20833333333337123},{"name":"G4","midi":67,"time":677.0442708333418,"velocity":0.8031496062992126,"duration":0.20833333333337123},{"name":"D3","midi":50,"time":677.2656250000085,"velocity":0.8031496062992126,"duration":0.19921875},{"name":"F4","midi":65,"time":677.2656250000085,"velocity":0.8031496062992126,"duration":0.19921875},{"name":"E3","midi":52,"time":677.4895833333419,"velocity":0.8031496062992126,"duration":0.8880208333334849},{"name":"G4","midi":67,"time":677.4895833333419,"velocity":0.8031496062992126,"duration":0.21875},{"name":"A#4","midi":70,"time":677.7122395833419,"velocity":0.8031496062992126,"duration":0.20833333333337123},{"name":"A4","midi":69,"time":677.9335937500086,"velocity":0.8031496062992126,"duration":0.19921875},{"name":"A#4","midi":70,"time":678.157552083342,"velocity":0.8031496062992126,"duration":0.6640625000001137},{"name":"G3","midi":55,"time":678.3815104166754,"velocity":0.8031496062992126,"duration":0.20833333333337123},{"name":"F3","midi":53,"time":678.6028645833421,"velocity":0.8031496062992126,"duration":0.19921875},{"name":"G3","midi":55,"time":678.8268229166755,"velocity":0.8031496062992126,"duration":0.8880208333333712},{"name":"C#4","midi":61,"time":678.8268229166755,"velocity":0.8031496062992126,"duration":0.21875},{"name":"E4","midi":64,"time":679.0494791666755,"velocity":0.8031496062992126,"duration":0.20833333333337123},{"name":"D4","midi":62,"time":679.2721354166755,"velocity":0.8031496062992126,"duration":0.19921875},{"name":"E4","midi":64,"time":679.4947916666755,"velocity":0.8031496062992126,"duration":0.21875},{"name":"A#3","midi":58,"time":679.7187500000089,"velocity":0.8031496062992126,"duration":0.20833333333337123},{"name":"G4","midi":67,"time":679.7187500000089,"velocity":0.8031496062992126,"duration":0.20833333333337123},{"name":"A3","midi":57,"time":679.9401041666756,"velocity":0.8031496062992126,"duration":0.19921875},{"name":"F4","midi":65,"time":679.9401041666756,"velocity":0.8031496062992126,"duration":0.19921875},{"name":"A#3","midi":58,"time":680.164062500009,"velocity":0.8031496062992126,"duration":0.21875},{"name":"G4","midi":67,"time":680.164062500009,"velocity":0.8031496062992126,"duration":0.21875},{"name":"G3","midi":55,"time":680.3880208333424,"velocity":0.8031496062992126,"duration":0.20833333333337123},{"name":"A#4","midi":70,"time":680.3880208333424,"velocity":0.8031496062992126,"duration":0.20833333333337123},{"name":"F3","midi":53,"time":680.6093750000091,"velocity":0.8031496062992126,"duration":0.19921875},{"name":"A4","midi":69,"time":680.6093750000091,"velocity":0.8031496062992126,"duration":0.19921875},{"name":"E3","midi":52,"time":680.8320312500091,"velocity":0.8031496062992126,"duration":0.21875},{"name":"A#4","midi":70,"time":680.8320312500091,"velocity":0.8031496062992126,"duration":0.21875},{"name":"F3","midi":53,"time":681.0559895833425,"velocity":0.8031496062992126,"duration":0.20833333333337123},{"name":"A4","midi":69,"time":681.0559895833425,"velocity":0.8031496062992126,"duration":0.20833333333337123},{"name":"G3","midi":55,"time":681.2773437500092,"velocity":0.8031496062992126,"duration":0.19921875},{"name":"G4","midi":67,"time":681.2773437500092,"velocity":0.8031496062992126,"duration":0.19921875},{"name":"A2","midi":45,"time":681.5013020833426,"velocity":0.8031496062992126,"duration":0.48697916666674246},{"name":"C#5","midi":73,"time":681.5013020833426,"velocity":0.8031496062992126,"duration":0.21875},{"name":"A#4","midi":70,"time":681.725260416676,"velocity":0.8031496062992126,"duration":0.20833333333337123},{"name":"A4","midi":69,"time":681.9466145833427,"velocity":0.8031496062992126,"duration":0.19921875},{"name":"B2","midi":47,"time":682.1692708333427,"velocity":0.8031496062992126,"duration":0.48697916666674246},{"name":"D5","midi":74,"time":682.1692708333427,"velocity":0.8031496062992126,"duration":0.21875},{"name":"A4","midi":69,"time":682.3932291666761,"velocity":0.8031496062992126,"duration":0.20833333333337123},{"name":"G4","midi":67,"time":682.6145833333428,"velocity":0.8031496062992126,"duration":0.19921875},{"name":"C#3","midi":49,"time":682.8385416666762,"velocity":0.8031496062992126,"duration":0.44010416666674246},{"name":"E5","midi":76,"time":682.8385416666762,"velocity":0.8031496062992126,"duration":0.21875},{"name":"A4","midi":69,"time":683.0625000000095,"velocity":0.8031496062992126,"duration":0.20833333333337123},{"name":"A2","midi":45,"time":683.2838541666763,"velocity":0.8031496062992126,"duration":0.19921875},{"name":"G4","midi":67,"time":683.2838541666763,"velocity":0.8031496062992126,"duration":0.19921875},{"name":"B2","midi":47,"time":683.5078125000097,"velocity":0.8031496062992126,"duration":0.44010416666674246},{"name":"F4","midi":65,"time":683.5078125000097,"velocity":0.8031496062992126,"duration":0.21875},{"name":"G4","midi":67,"time":683.7304687500097,"velocity":0.8031496062992126,"duration":0.20833333333337123},{"name":"C#3","midi":49,"time":683.9518229166764,"velocity":0.8031496062992126,"duration":0.19921875},{"name":"E4","midi":64,"time":683.9518229166764,"velocity":0.8031496062992126,"duration":0.19921875},{"name":"D3","midi":50,"time":684.1757812500098,"velocity":0.8031496062992126,"duration":0.48697916666674246},{"name":"F4","midi":65,"time":684.1757812500098,"velocity":0.8031496062992126,"duration":0.21875},{"name":"E4","midi":64,"time":684.3997395833431,"velocity":0.8031496062992126,"duration":0.20833333333337123},{"name":"D4","midi":62,"time":684.6210937500099,"velocity":0.8031496062992126,"duration":0.19921875},{"name":"E3","midi":52,"time":684.8450520833433,"velocity":0.8031496062992126,"duration":0.48697916666674246},{"name":"G4","midi":67,"time":684.8450520833433,"velocity":0.8031496062992126,"duration":0.21875},{"name":"E4","midi":64,"time":685.0677083333433,"velocity":0.8031496062992126,"duration":0.20833333333337123},{"name":"D4","midi":62,"time":685.28906250001,"velocity":0.8031496062992126,"duration":0.19921875},{"name":"F3","midi":53,"time":685.5130208333434,"velocity":0.8031496062992126,"duration":0.48697916666674246},{"name":"A4","midi":69,"time":685.5130208333434,"velocity":0.8031496062992126,"duration":0.21875},{"name":"E4","midi":64,"time":685.7369791666767,"velocity":0.8031496062992126,"duration":0.20833333333337123},{"name":"D4","midi":62,"time":685.9583333333435,"velocity":0.8031496062992126,"duration":0.19921875},{"name":"G3","midi":55,"time":686.1822916666769,"velocity":0.8031496062992126,"duration":0.82421875},{"name":"A#4","midi":70,"time":686.1822916666769,"velocity":0.8031496062992126,"duration":0.21875},{"name":"E4","midi":64,"time":686.4049479166769,"velocity":0.8031496062992126,"duration":0.20833333333337123},{"name":"D4","midi":62,"time":686.6276041666769,"velocity":0.8031496062992126,"duration":0.19921875},{"name":"C#4","midi":61,"time":686.8502604166769,"velocity":0.8031496062992126,"duration":0.21875},{"name":"F3","midi":53,"time":687.0742187500102,"velocity":0.8031496062992126,"duration":0.20833333333337123},{"name":"D4","midi":62,"time":687.0742187500102,"velocity":0.8031496062992126,"duration":0.20833333333337123},{"name":"E3","midi":52,"time":687.295572916677,"velocity":0.8031496062992126,"duration":0.19921875},{"name":"E4","midi":64,"time":687.295572916677,"velocity":0.8031496062992126,"duration":0.19921875},{"name":"F3","midi":53,"time":687.5195312500103,"velocity":0.8031496062992126,"duration":0.21875},{"name":"A3","midi":57,"time":687.5195312500103,"velocity":0.8031496062992126,"duration":0.44010416666674246},{"name":"C#4","midi":61,"time":687.7421875000103,"velocity":0.8031496062992126,"duration":0.20833333333337123},{"name":"D4","midi":62,"time":687.9648437500105,"velocity":0.8031496062992126,"duration":0.19921875},{"name":"A5","midi":81,"time":687.9648437500105,"velocity":0.8031496062992126,"duration":0.19921875},{"name":"G3","midi":55,"time":688.1875000000105,"velocity":0.8031496062992126,"duration":0.21875},{"name":"A#5","midi":82,"time":688.1875000000105,"velocity":0.8031496062992126,"duration":0.21875},{"name":"C#4","midi":61,"time":688.4114583333438,"velocity":0.8031496062992126,"duration":0.20833333333337123},{"name":"A5","midi":81,"time":688.4114583333438,"velocity":0.8031496062992126,"duration":0.20833333333337123},{"name":"D4","midi":62,"time":688.6328125000106,"velocity":0.8031496062992126,"duration":0.19921875},{"name":"G5","midi":79,"time":688.6328125000106,"velocity":0.8031496062992126,"duration":0.19921875},{"name":"G#3","midi":56,"time":688.856770833344,"velocity":0.8031496062992126,"duration":0.21875},{"name":"F5","midi":77,"time":688.856770833344,"velocity":0.8031496062992126,"duration":0.21875},{"name":"C#4","midi":61,"time":689.0807291666773,"velocity":0.8031496062992126,"duration":0.20833333333337123},{"name":"E5","midi":76,"time":689.0807291666773,"velocity":0.8031496062992126,"duration":0.20833333333337123},{"name":"D4","midi":62,"time":689.3020833333441,"velocity":0.8031496062992126,"duration":0.19921875},{"name":"D5","midi":74,"time":689.3020833333441,"velocity":0.8031496062992126,"duration":0.19921875},{"name":"A3","midi":57,"time":689.5247395833441,"velocity":0.8031496062992126,"duration":0.21875},{"name":"C#5","midi":73,"time":689.5247395833441,"velocity":0.8031496062992126,"duration":0.21875},{"name":"C#4","midi":61,"time":689.7486979166774,"velocity":0.8031496062992126,"duration":0.20833333333337123},{"name":"E5","midi":76,"time":689.7486979166774,"velocity":0.8031496062992126,"duration":0.20833333333337123},{"name":"D4","midi":62,"time":689.9700520833442,"velocity":0.8031496062992126,"duration":0.19921875},{"name":"A4","midi":69,"time":689.9700520833442,"velocity":0.8031496062992126,"duration":0.19921875},{"name":"E4","midi":64,"time":690.1940104166775,"velocity":0.8031496062992126,"duration":0.21875},{"name":"G4","midi":67,"time":690.1940104166775,"velocity":0.8031496062992126,"duration":0.21875},{"name":"D4","midi":62,"time":690.4179687500109,"velocity":0.8031496062992126,"duration":0.20833333333337123},{"name":"F4","midi":65,"time":690.4179687500109,"velocity":0.8031496062992126,"duration":0.20833333333337123},{"name":"C#4","midi":61,"time":690.6393229166777,"velocity":0.8031496062992126,"duration":0.19921875},{"name":"E4","midi":64,"time":690.6393229166777,"velocity":0.8031496062992126,"duration":0.19921875},{"name":"D4","midi":62,"time":690.8619791666777,"velocity":0.8031496062992126,"duration":0.21875},{"name":"F4","midi":65,"time":690.8619791666777,"velocity":0.8031496062992126,"duration":0.21875},{"name":"F3","midi":53,"time":691.085937500011,"velocity":0.8031496062992126,"duration":0.20833333333337123},{"name":"A4","midi":69,"time":691.085937500011,"velocity":0.8031496062992126,"duration":0.20833333333337123},{"name":"G3","midi":55,"time":691.3072916666778,"velocity":0.8031496062992126,"duration":0.19921875},{"name":"D5","midi":74,"time":691.3072916666778,"velocity":0.8031496062992126,"duration":0.19921875},{"name":"A3","midi":57,"time":691.5312500000111,"velocity":0.8031496062992126,"duration":0.21875},{"name":"E4","midi":64,"time":691.5312500000111,"velocity":0.8031496062992126,"duration":0.21875},{"name":"G3","midi":55,"time":691.7552083333445,"velocity":0.8031496062992126,"duration":0.20833333333337123},{"name":"D5","midi":74,"time":691.7552083333445,"velocity":0.8031496062992126,"duration":0.20833333333337123},{"name":"A3","midi":57,"time":691.9765625000113,"velocity":0.8031496062992126,"duration":0.19921875},{"name":"C#5","midi":73,"time":691.9765625000113,"velocity":0.8031496062992126,"duration":0.19921875},{"name":"D3","midi":50,"time":692.2005208333446,"velocity":0.8031496062992126,"duration":0.21875},{"name":"D5","midi":74,"time":692.2005208333446,"velocity":0.8031496062992126,"duration":0.21875},{"name":"F#3","midi":54,"time":692.4231770833446,"velocity":0.8031496062992126,"duration":0.20833333333337123},{"name":"A4","midi":69,"time":692.4231770833446,"velocity":0.8031496062992126,"duration":0.20833333333337123},{"name":"A3","midi":57,"time":692.6445312500114,"velocity":0.8031496062992126,"duration":0.19921875},{"name":"F#4","midi":66,"time":692.6445312500114,"velocity":0.8031496062992126,"duration":0.19921875},{"name":"D4","midi":62,"time":692.8684895833447,"velocity":0.8031496062992126,"duration":0.44010416666662877},{"name":"A3","midi":57,"time":693.3138020833447,"velocity":0.8031496062992126,"duration":0.19921875},{"name":"F#3","midi":54,"time":693.5377604166781,"velocity":0.8031496062992126,"duration":0.21875},{"name":"G3","midi":55,"time":693.7604166666781,"velocity":0.8031496062992126,"duration":0.20833333333337123},{"name":"A3","midi":57,"time":693.9817708333449,"velocity":0.8031496062992126,"duration":0.19921875},{"name":"A#3","midi":58,"time":694.2057291666782,"velocity":0.8031496062992126,"duration":0.21875},{"name":"C4","midi":60,"time":694.4296875000116,"velocity":0.8031496062992126,"duration":0.20833333333337123},{"name":"D4","midi":62,"time":694.6510416666783,"velocity":0.8031496062992126,"duration":0.19921875},{"name":"D#4","midi":63,"time":694.8750000000117,"velocity":0.8031496062992126,"duration":0.21875},{"name":"C4","midi":60,"time":695.0976562500117,"velocity":0.8031496062992126,"duration":0.20833333333337123},{"name":"G4","midi":67,"time":695.3203125000117,"velocity":0.8031496062992126,"duration":0.19921875},{"name":"A4","midi":69,"time":695.5429687500117,"velocity":0.8031496062992126,"duration":0.21875},{"name":"A#4","midi":70,"time":695.7669270833451,"velocity":0.8031496062992126,"duration":0.20833333333337123},{"name":"C5","midi":72,"time":695.9882812500118,"velocity":0.8031496062992126,"duration":0.19921875},{"name":"A#4","midi":70,"time":696.2122395833452,"velocity":0.8031496062992126,"duration":0.21875},{"name":"G4","midi":67,"time":696.4361979166786,"velocity":0.8031496062992126,"duration":0.20833333333337123},{"name":"D4","midi":62,"time":696.6575520833453,"velocity":0.8031496062992126,"duration":0.19921875},{"name":"C5","midi":72,"time":696.8802083333453,"velocity":0.8031496062992126,"duration":0.21875},{"name":"E4","midi":64,"time":697.1041666666787,"velocity":0.8031496062992126,"duration":0.20833333333337123},{"name":"F#4","midi":66,"time":697.3255208333454,"velocity":0.8031496062992126,"duration":0.19921875},{"name":"G4","midi":67,"time":697.5494791666788,"velocity":0.8031496062992126,"duration":0.21875},{"name":"E4","midi":64,"time":697.7734375000122,"velocity":0.8031496062992126,"duration":0.20833333333337123},{"name":"F4","midi":65,"time":697.9947916666789,"velocity":0.8031496062992126,"duration":0.19921875},{"name":"E4","midi":64,"time":698.2174479166789,"velocity":0.8031496062992126,"duration":0.21875},{"name":"C#4","midi":61,"time":698.4414062500123,"velocity":0.8031496062992126,"duration":0.20833333333337123},{"name":"D2","midi":38,"time":698.662760416679,"velocity":0.8031496062992126,"duration":0.19921875},{"name":"D4","midi":62,"time":698.662760416679,"velocity":0.8031496062992126,"duration":0.19921875},{"name":"C#2","midi":37,"time":698.8867187500124,"velocity":0.8031496062992126,"duration":0.21875},{"name":"A4","midi":69,"time":698.8867187500124,"velocity":0.8031496062992126,"duration":0.8880208333334849},{"name":"D2","midi":38,"time":699.1106770833458,"velocity":0.8031496062992126,"duration":0.20833333333337123},{"name":"E2","midi":40,"time":699.3320312500125,"velocity":0.8031496062992126,"duration":0.19921875},{"name":"F2","midi":41,"time":699.5546875000125,"velocity":0.8031496062992126,"duration":0.21875},{"name":"G2","midi":43,"time":699.7786458333459,"velocity":0.8031496062992126,"duration":0.20833333333337123},{"name":"G4","midi":67,"time":699.7786458333459,"velocity":0.8031496062992126,"duration":0.20833333333337123},{"name":"A2","midi":45,"time":700.0000000000126,"velocity":0.8031496062992126,"duration":0.19921875},{"name":"F4","midi":65,"time":700.0000000000126,"velocity":0.8031496062992126,"duration":0.19921875},{"name":"A#2","midi":46,"time":700.223958333346,"velocity":0.8031496062992126,"duration":0.21875},{"name":"G4","midi":67,"time":700.223958333346,"velocity":0.8031496062992126,"duration":0.8880208333334849},{"name":"G2","midi":43,"time":700.4479166666794,"velocity":0.8031496062992126,"duration":0.20833333333337123},{"name":"D3","midi":50,"time":700.6692708333461,"velocity":0.8031496062992126,"duration":0.19921875},{"name":"E3","midi":52,"time":700.8932291666795,"velocity":0.8031496062992126,"duration":0.21875},{"name":"F3","midi":53,"time":701.1158854166795,"velocity":0.8031496062992126,"duration":0.20833333333337123},{"name":"F4","midi":65,"time":701.1158854166795,"velocity":0.8031496062992126,"duration":0.20833333333337123},{"name":"G3","midi":55,"time":701.3372395833462,"velocity":0.8031496062992126,"duration":0.19921875},{"name":"E4","midi":64,"time":701.3372395833462,"velocity":0.8031496062992126,"duration":0.19921875},{"name":"F3","midi":53,"time":701.5611979166796,"velocity":0.8031496062992126,"duration":0.21875},{"name":"D4","midi":62,"time":701.5611979166796,"velocity":0.8031496062992126,"duration":0.21875},{"name":"D3","midi":50,"time":701.785156250013,"velocity":0.8031496062992126,"duration":0.20833333333337123},{"name":"E4","midi":64,"time":701.785156250013,"velocity":0.8031496062992126,"duration":0.20833333333337123},{"name":"A2","midi":45,"time":702.0065104166797,"velocity":0.8031496062992126,"duration":0.19921875},{"name":"F4","midi":65,"time":702.0065104166797,"velocity":0.8031496062992126,"duration":0.19921875},{"name":"G3","midi":55,"time":702.2304687500131,"velocity":0.8031496062992126,"duration":0.21875},{"name":"E4","midi":64,"time":702.2304687500131,"velocity":0.8031496062992126,"duration":0.21875},{"name":"B2","midi":47,"time":702.4531250000131,"velocity":0.8031496062992126,"duration":0.20833333333337123},{"name":"A4","midi":69,"time":702.4531250000131,"velocity":0.8031496062992126,"duration":0.20833333333337123},{"name":"C#3","midi":49,"time":702.6744791666798,"velocity":0.8031496062992126,"duration":0.19921875},{"name":"G4","midi":67,"time":702.6744791666798,"velocity":0.8031496062992126,"duration":0.19921875},{"name":"D3","midi":50,"time":702.8984375000132,"velocity":0.8031496062992126,"duration":0.8880208333334849},{"name":"F4","midi":65,"time":702.8984375000132,"velocity":0.8031496062992126,"duration":0.21875},{"name":"E4","midi":64,"time":703.1223958333466,"velocity":0.8031496062992126,"duration":0.20833333333337123},{"name":"D4","midi":62,"time":703.3437500000133,"velocity":0.8031496062992126,"duration":0.19921875},{"name":"A#4","midi":70,"time":703.5677083333467,"velocity":0.8031496062992126,"duration":0.8880208333333712},{"name":"C3","midi":48,"time":703.7903645833467,"velocity":0.8031496062992126,"duration":0.20833333333337123},{"name":"A#2","midi":46,"time":704.0130208333467,"velocity":0.8031496062992126,"duration":0.19921875},{"name":"C3","midi":48,"time":704.2356770833467,"velocity":0.8031496062992126,"duration":1.1093750000002274},{"name":"A4","midi":69,"time":704.45963541668,"velocity":0.8031496062992126,"duration":0.20833333333337123},{"name":"G4","midi":67,"time":704.6809895833468,"velocity":0.8031496062992126,"duration":0.19921875},{"name":"A4","midi":69,"time":704.9049479166802,"velocity":0.8031496062992126,"duration":0.21875},{"name":"G4","midi":67,"time":705.1289062500135,"velocity":0.8031496062992126,"duration":0.20833333333337123},{"name":"D3","midi":50,"time":705.3502604166803,"velocity":0.8031496062992126,"duration":0.19921875},{"name":"F#4","midi":66,"time":705.3502604166803,"velocity":0.8031496062992126,"duration":0.19921875},{"name":"D#3","midi":51,"time":705.5729166666803,"velocity":0.8031496062992126,"duration":0.21875},{"name":"G4","midi":67,"time":705.5729166666803,"velocity":0.8031496062992126,"duration":0.44010416666674246},{"name":"D3","midi":50,"time":705.7968750000136,"velocity":0.8031496062992126,"duration":0.20833333333337123},{"name":"C3","midi":48,"time":706.0182291666804,"velocity":0.8031496062992126,"duration":0.19921875},{"name":"D#5","midi":75,"time":706.0182291666804,"velocity":0.8031496062992126,"duration":0.19921875},{"name":"D3","midi":50,"time":706.2421875000138,"velocity":0.8031496062992126,"duration":0.21875},{"name":"F4","midi":65,"time":706.2421875000138,"velocity":0.8031496062992126,"duration":0.44010416666674246},{"name":"C3","midi":48,"time":706.4661458333471,"velocity":0.8031496062992126,"duration":0.20833333333337123},{"name":"B2","midi":47,"time":706.6875000000139,"velocity":0.8031496062992126,"duration":0.19921875},{"name":"D5","midi":74,"time":706.6875000000139,"velocity":0.8031496062992126,"duration":0.19921875},{"name":"C3","midi":48,"time":706.9101562500139,"velocity":0.8031496062992126,"duration":0.44010416666674246},{"name":"D#4","midi":63,"time":706.9101562500139,"velocity":0.8031496062992126,"duration":0.21875},{"name":"D4","midi":62,"time":707.1341145833472,"velocity":0.8031496062992126,"duration":0.20833333333337123},{"name":"A3","midi":57,"time":707.355468750014,"velocity":0.8031496062992126,"duration":0.19921875},{"name":"C4","midi":60,"time":707.355468750014,"velocity":0.8031496062992126,"duration":0.19921875},{"name":"A#2","midi":46,"time":707.5794270833474,"velocity":0.8031496062992126,"duration":0.44010416666674246},{"name":"D4","midi":62,"time":707.5794270833474,"velocity":0.8031496062992126,"duration":0.21875},{"name":"C4","midi":60,"time":707.8033854166807,"velocity":0.8031496062992126,"duration":0.20833333333337123},{"name":"G3","midi":55,"time":708.0247395833475,"velocity":0.8031496062992126,"duration":0.19921875},{"name":"A#3","midi":58,"time":708.0247395833475,"velocity":0.8031496062992126,"duration":0.19921875},{"name":"A3","midi":57,"time":708.2486979166808,"velocity":0.8031496062992126,"duration":0.21875},{"name":"C4","midi":60,"time":708.2486979166808,"velocity":0.8031496062992126,"duration":0.44010416666674246},{"name":"G3","midi":55,"time":708.4713541666808,"velocity":0.8031496062992126,"duration":0.20833333333337123},{"name":"F#3","midi":54,"time":708.6927083333476,"velocity":0.8031496062992126,"duration":0.19921875},{"name":"A4","midi":69,"time":708.6927083333476,"velocity":0.8031496062992126,"duration":0.19921875},{"name":"G3","midi":55,"time":708.916666666681,"velocity":0.8031496062992126,"duration":0.21875},{"name":"A#3","midi":58,"time":708.916666666681,"velocity":0.8031496062992126,"duration":0.44010416666674246},{"name":"F3","midi":53,"time":709.1406250000143,"velocity":0.8031496062992126,"duration":0.20833333333337123},{"name":"D#3","midi":51,"time":709.3619791666811,"velocity":0.8031496062992126,"duration":0.19921875},{"name":"C4","midi":60,"time":709.3619791666811,"velocity":0.8031496062992126,"duration":0.19921875},{"name":"G4","midi":67,"time":709.3619791666811,"velocity":0.8031496062992126,"duration":0.19921875},{"name":"D3","midi":50,"time":709.5859375000144,"velocity":0.8031496062992126,"duration":0.21875},{"name":"D4","midi":62,"time":709.5859375000144,"velocity":0.8031496062992126,"duration":0.8880208333334849},{"name":"F#4","midi":66,"time":709.5859375000144,"velocity":0.8031496062992126,"duration":0.21875},{"name":"E3","midi":52,"time":709.8085937500144,"velocity":0.8031496062992126,"duration":0.20833333333337123},{"name":"G4","midi":67,"time":709.8085937500144,"velocity":0.8031496062992126,"duration":0.20833333333337123},{"name":"F#3","midi":54,"time":710.0299479166812,"velocity":0.8031496062992126,"duration":0.19921875},{"name":"A4","midi":69,"time":710.0299479166812,"velocity":0.8031496062992126,"duration":0.19921875},{"name":"G3","midi":55,"time":710.2539062500146,"velocity":0.8031496062992126,"duration":0.8880208333334849},{"name":"A#4","midi":70,"time":710.2539062500146,"velocity":0.8031496062992126,"duration":0.21875},{"name":"C4","midi":60,"time":710.4778645833479,"velocity":0.8031496062992126,"duration":0.20833333333337123},{"name":"C5","midi":72,"time":710.4778645833479,"velocity":0.8031496062992126,"duration":0.20833333333337123},{"name":"A#3","midi":58,"time":710.6992187500147,"velocity":0.8031496062992126,"duration":0.19921875},{"name":"D5","midi":74,"time":710.6992187500147,"velocity":0.8031496062992126,"duration":0.19921875},{"name":"C4","midi":60,"time":710.923177083348,"velocity":0.8031496062992126,"duration":0.8880208333334849},{"name":"D#5","midi":75,"time":710.923177083348,"velocity":0.8031496062992126,"duration":0.21875},{"name":"A3","midi":57,"time":711.145833333348,"velocity":0.8031496062992126,"duration":0.20833333333337123},{"name":"C5","midi":72,"time":711.145833333348,"velocity":0.8031496062992126,"duration":0.20833333333337123},{"name":"A#3","midi":58,"time":711.3671875000148,"velocity":0.8031496062992126,"duration":0.19921875},{"name":"G5","midi":79,"time":711.3671875000148,"velocity":0.8031496062992126,"duration":0.19921875},{"name":"F#3","midi":54,"time":711.5911458333482,"velocity":0.8031496062992126,"duration":0.6601562500001137},{"name":"A5","midi":81,"time":711.5911458333482,"velocity":0.8031496062992126,"duration":0.21875},{"name":"A#3","midi":58,"time":711.8151041666815,"velocity":0.8031496062992126,"duration":0.20833333333337123},{"name":"A#5","midi":82,"time":711.8151041666815,"velocity":0.8031496062992126,"duration":0.20833333333337123},{"name":"A3","midi":57,"time":712.0364583333483,"velocity":0.8031496062992126,"duration":0.19921875},{"name":"C6","midi":84,"time":712.0364583333483,"velocity":0.8031496062992126,"duration":0.19921875},{"name":"G3","midi":55,"time":712.2578125000149,"velocity":0.8031496062992126,"duration":0.6601562500001137},{"name":"A#5","midi":82,"time":712.2578125000149,"velocity":0.8031496062992126,"duration":0.21875},{"name":"G5","midi":79,"time":712.4817708333483,"velocity":0.8031496062992126,"duration":0.20833333333337123},{"name":"D#3","midi":51,"time":712.703125000015,"velocity":0.8031496062992126,"duration":0.19921875},{"name":"D5","midi":74,"time":712.703125000015,"velocity":0.8031496062992126,"duration":0.19921875},{"name":"C3","midi":48,"time":712.9244791666816,"velocity":0.8031496062992126,"duration":0.44270833333337123},{"name":"A3","midi":57,"time":712.9244791666816,"velocity":0.8031496062992126,"duration":0.21875},{"name":"C6","midi":84,"time":712.9244791666816,"velocity":0.8031496062992126,"duration":0.21875},{"name":"A#3","midi":58,"time":713.148437500015,"velocity":0.8031496062992126,"duration":0.20833333333337123},{"name":"E5","midi":76,"time":713.148437500015,"velocity":0.8031496062992126,"duration":0.20833333333337123},{"name":"D3","midi":50,"time":713.3697916666816,"velocity":0.8031496062992126,"duration":0.19921875},{"name":"C4","midi":60,"time":713.3697916666816,"velocity":0.8031496062992126,"duration":0.19921875},{"name":"F#5","midi":78,"time":713.3697916666816,"velocity":0.8031496062992126,"duration":0.19921875},{"name":"G3","midi":55,"time":713.593750000015,"velocity":0.8031496062992126,"duration":1.3372395833337123},{"name":"A#3","midi":58,"time":713.593750000015,"velocity":0.8031496062992126,"duration":0.6640625000001137},{"name":"G5","midi":79,"time":713.593750000015,"velocity":0.8031496062992126,"duration":0.21875},{"name":"D5","midi":74,"time":713.816406250015,"velocity":0.8031496062992126,"duration":0.20833333333337123},{"name":"D#5","midi":75,"time":714.0377604166817,"velocity":0.8031496062992126,"duration":0.19921875},{"name":"C4","midi":60,"time":714.2617187500151,"velocity":0.8031496062992126,"duration":0.10677083333337123},{"name":"F5","midi":77,"time":714.2617187500151,"velocity":0.8031496062992126,"duration":0.2187500000001137},{"name":"B3","midi":59,"time":714.3736979166819,"velocity":0.8031496062992126,"duration":0.10677083333337123},{"name":"C4","midi":60,"time":714.4856770833486,"velocity":0.8031496062992126,"duration":0.10677083333337123},{"name":"C5","midi":72,"time":714.4856770833486,"velocity":0.8031496062992126,"duration":0.2109375000001137},{"name":"B3","midi":59,"time":714.5976562500153,"velocity":0.8031496062992126,"duration":0.10677083333337123},{"name":"A3","midi":57,"time":714.7096354166821,"velocity":0.8031496062992126,"duration":0.10677083333337123},{"name":"D5","midi":74,"time":714.7096354166821,"velocity":0.8031496062992126,"duration":0.19921875},{"name":"B3","midi":59,"time":714.8203125000155,"velocity":0.8031496062992126,"duration":0.10677083333325754},{"name":"C4","midi":60,"time":714.9322916666821,"velocity":0.8031496062992126,"duration":0.21875},{"name":"D#5","midi":75,"time":714.9322916666821,"velocity":0.8031496062992126,"duration":0.6640625000001137},{"name":"G3","midi":55,"time":715.1562500000155,"velocity":0.8031496062992126,"duration":0.20833333333337123},{"name":"A3","midi":57,"time":715.3776041666822,"velocity":0.8031496062992126,"duration":0.19921875},{"name":"A#3","midi":58,"time":715.6015625000156,"velocity":0.8031496062992126,"duration":0.2187500000001137},{"name":"F5","midi":77,"time":715.6015625000156,"velocity":0.8031496062992126,"duration":0.10677083333337123},{"name":"E5","midi":76,"time":715.7135416666823,"velocity":0.8031496062992126,"duration":0.10677083333337123},{"name":"F3","midi":53,"time":715.8255208333491,"velocity":0.8031496062992126,"duration":0.2109375},{"name":"F5","midi":77,"time":715.8255208333491,"velocity":0.8031496062992126,"duration":0.10677083333337123},{"name":"E5","midi":76,"time":715.9361979166824,"velocity":0.8031496062992126,"duration":0.10677083333325754},{"name":"G3","midi":55,"time":716.0481770833491,"velocity":0.8031496062992126,"duration":0.1992187500001137},{"name":"D5","midi":74,"time":716.0481770833491,"velocity":0.8031496062992126,"duration":0.10677083333337123},{"name":"E5","midi":76,"time":716.1601562500158,"velocity":0.8031496062992126,"duration":0.10677083333337123},{"name":"A3","midi":57,"time":716.2721354166825,"velocity":0.8031496062992126,"duration":0.44010416666674246},{"name":"F5","midi":77,"time":716.2721354166825,"velocity":0.8031496062992126,"duration":0.21875},{"name":"C5","midi":72,"time":716.4960937500159,"velocity":0.8031496062992126,"duration":0.20833333333337123},{"name":"F3","midi":53,"time":716.7174479166827,"velocity":0.8031496062992126,"duration":0.19921875},{"name":"D5","midi":74,"time":716.7174479166827,"velocity":0.8031496062992126,"duration":0.19921875},{"name":"G3","midi":55,"time":716.941406250016,"velocity":0.8031496062992126,"duration":0.44010416666674246},{"name":"D#5","midi":75,"time":716.941406250016,"velocity":0.8031496062992126,"duration":0.21875},{"name":"A#4","midi":70,"time":717.164062500016,"velocity":0.8031496062992126,"duration":0.20833333333337123},{"name":"A3","midi":57,"time":717.3854166666828,"velocity":0.8031496062992126,"duration":0.19921875},{"name":"C5","midi":72,"time":717.3854166666828,"velocity":0.8031496062992126,"duration":0.19921875},{"name":"A#3","midi":58,"time":717.6093750000161,"velocity":0.8031496062992126,"duration":0.21875},{"name":"D5","midi":74,"time":717.6093750000161,"velocity":0.8031496062992126,"duration":0.21875},{"name":"F#3","midi":54,"time":717.8333333333495,"velocity":0.8031496062992126,"duration":0.20833333333337123},{"name":"A4","midi":69,"time":717.8333333333495,"velocity":0.8031496062992126,"duration":0.20833333333337123},{"name":"G3","midi":55,"time":718.0546875000163,"velocity":0.8031496062992126,"duration":0.19921875},{"name":"A#4","midi":70,"time":718.0546875000163,"velocity":0.8031496062992126,"duration":0.19921875},{"name":"A3","midi":57,"time":718.2786458333496,"velocity":0.8031496062992126,"duration":0.21875},{"name":"C5","midi":72,"time":718.2786458333496,"velocity":0.8031496062992126,"duration":0.21875},{"name":"E3","midi":52,"time":718.5013020833496,"velocity":0.8031496062992126,"duration":0.20833333333337123},{"name":"G4","midi":67,"time":718.5013020833496,"velocity":0.8031496062992126,"duration":0.20833333333337123},{"name":"F#3","midi":54,"time":718.7226562500164,"velocity":0.8031496062992126,"duration":0.19921875},{"name":"A4","midi":69,"time":718.7226562500164,"velocity":0.8031496062992126,"duration":0.19921875},{"name":"G3","midi":55,"time":718.9466145833497,"velocity":0.8031496062992126,"duration":0.21875},{"name":"A#4","midi":70,"time":718.9466145833497,"velocity":0.8031496062992126,"duration":0.44010416666674246},{"name":"D3","midi":50,"time":719.1705729166831,"velocity":0.8031496062992126,"duration":0.20833333333337123},{"name":"D#3","midi":51,"time":719.3919270833499,"velocity":0.8031496062992126,"duration":0.19921875},{"name":"G5","midi":79,"time":719.3919270833499,"velocity":0.8031496062992126,"duration":0.19921875},{"name":"F3","midi":53,"time":719.6158854166832,"velocity":0.8031496062992126,"duration":0.21875},{"name":"G#4","midi":68,"time":719.6158854166832,"velocity":0.8031496062992126,"duration":0.44010416666674246},{"name":"C3","midi":48,"time":719.8385416666832,"velocity":0.8031496062992126,"duration":0.20833333333337123},{"name":"D3","midi":50,"time":720.0611979166833,"velocity":0.8031496062992126,"duration":0.19921875},{"name":"F5","midi":77,"time":720.0611979166833,"velocity":0.8031496062992126,"duration":0.19921875},{"name":"D#3","midi":51,"time":720.2838541666833,"velocity":0.8031496062992126,"duration":0.21875},{"name":"G4","midi":67,"time":720.2838541666833,"velocity":0.8031496062992126,"duration":0.44010416666674246},{"name":"B2","midi":47,"time":720.5078125000167,"velocity":0.8031496062992126,"duration":0.20833333333337123},{"name":"C3","midi":48,"time":720.7291666666835,"velocity":0.8031496062992126,"duration":0.19921875},{"name":"D#5","midi":75,"time":720.7291666666835,"velocity":0.8031496062992126,"duration":0.19921875},{"name":"D3","midi":50,"time":720.9531250000168,"velocity":0.8031496062992126,"duration":0.21875},{"name":"F4","midi":65,"time":720.9531250000168,"velocity":0.8031496062992126,"duration":0.44010416666674246},{"name":"A2","midi":45,"time":721.1757812500168,"velocity":0.8031496062992126,"duration":0.20833333333337123},{"name":"B2","midi":47,"time":721.3984375000169,"velocity":0.8031496062992126,"duration":0.19921875},{"name":"D5","midi":74,"time":721.3984375000169,"velocity":0.8031496062992126,"duration":0.19921875},{"name":"C3","midi":48,"time":721.6210937500169,"velocity":0.8031496062992126,"duration":0.21875},{"name":"D#4","midi":63,"time":721.6210937500169,"velocity":0.8031496062992126,"duration":0.21875},{"name":"D3","midi":50,"time":721.8450520833503,"velocity":0.8031496062992126,"duration":0.20833333333337123},{"name":"F4","midi":65,"time":721.8450520833503,"velocity":0.8031496062992126,"duration":0.20833333333337123},{"name":"D#3","midi":51,"time":722.066406250017,"velocity":0.8031496062992126,"duration":0.19921875},{"name":"G4","midi":67,"time":722.066406250017,"velocity":0.8031496062992126,"duration":0.19921875},{"name":"F3","midi":53,"time":722.2903645833504,"velocity":0.8031496062992126,"duration":0.21875},{"name":"D4","midi":62,"time":722.2903645833504,"velocity":0.8031496062992126,"duration":0.21875},{"name":"G3","midi":55,"time":722.5143229166838,"velocity":0.8031496062992126,"duration":0.20833333333337123},{"name":"D#4","midi":63,"time":722.5143229166838,"velocity":0.8031496062992126,"duration":0.20833333333337123},{"name":"G#3","midi":56,"time":722.7356770833505,"velocity":0.8031496062992126,"duration":0.19921875},{"name":"C4","midi":60,"time":722.7356770833505,"velocity":0.8031496062992126,"duration":0.19921875},{"name":"G3","midi":55,"time":722.9583333333505,"velocity":0.8031496062992126,"duration":0.21875},{"name":"B3","midi":59,"time":722.9583333333505,"velocity":0.8031496062992126,"duration":0.21875},{"name":"A3","midi":57,"time":723.1822916666839,"velocity":0.8031496062992126,"duration":0.20833333333337123},{"name":"C4","midi":60,"time":723.1822916666839,"velocity":0.8031496062992126,"duration":0.20833333333337123},{"name":"B3","midi":59,"time":723.4036458333507,"velocity":0.8031496062992126,"duration":0.19921875},{"name":"D4","midi":62,"time":723.4036458333507,"velocity":0.8031496062992126,"duration":0.19921875},{"name":"C3","midi":48,"time":723.627604166684,"velocity":0.8031496062992126,"duration":0.21875},{"name":"D#4","midi":63,"time":723.627604166684,"velocity":0.8031496062992126,"duration":0.21875},{"name":"D3","midi":50,"time":723.8515625000174,"velocity":0.8031496062992126,"duration":0.20833333333337123},{"name":"F4","midi":65,"time":723.8515625000174,"velocity":0.8031496062992126,"duration":0.20833333333337123},{"name":"D#3","midi":51,"time":724.0729166666841,"velocity":0.8031496062992126,"duration":0.19921875},{"name":"G4","midi":67,"time":724.0729166666841,"velocity":0.8031496062992126,"duration":0.19921875},{"name":"F3","midi":53,"time":724.2955729166841,"velocity":0.8031496062992126,"duration":0.21875},{"name":"G#4","midi":68,"time":724.2955729166841,"velocity":0.8031496062992126,"duration":0.21875},{"name":"G3","midi":55,"time":724.5195312500175,"velocity":0.8031496062992126,"duration":0.20833333333337123},{"name":"F4","midi":65,"time":724.5195312500175,"velocity":0.8031496062992126,"duration":0.20833333333337123},{"name":"G#3","midi":56,"time":724.7408854166843,"velocity":0.8031496062992126,"duration":0.19921875},{"name":"C5","midi":72,"time":724.7408854166843,"velocity":0.8031496062992126,"duration":0.19921875},{"name":"B2","midi":47,"time":724.9648437500176,"velocity":0.8031496062992126,"duration":0.21875},{"name":"D5","midi":74,"time":724.9648437500176,"velocity":0.8031496062992126,"duration":0.21875},{"name":"C3","midi":48,"time":725.188802083351,"velocity":0.8031496062992126,"duration":0.20833333333337123},{"name":"D#5","midi":75,"time":725.188802083351,"velocity":0.8031496062992126,"duration":0.20833333333337123},{"name":"D3","midi":50,"time":725.4101562500177,"velocity":0.8031496062992126,"duration":0.19921875},{"name":"F5","midi":77,"time":725.4101562500177,"velocity":0.8031496062992126,"duration":0.19921875},{"name":"D#3","midi":51,"time":725.6341145833511,"velocity":0.8031496062992126,"duration":0.44010416666674246},{"name":"G5","midi":79,"time":725.6341145833511,"velocity":0.8031496062992126,"duration":0.21875},{"name":"D#5","midi":75,"time":725.8567708333511,"velocity":0.8031496062992126,"duration":0.20833333333337123},{"name":"G#3","midi":56,"time":726.0781250000178,"velocity":0.8031496062992126,"duration":0.19921875},{"name":"C5","midi":72,"time":726.0781250000178,"velocity":0.8031496062992126,"duration":0.19921875},{"name":"D3","midi":50,"time":726.3020833333512,"velocity":0.8031496062992126,"duration":0.44010416666674246},{"name":"F5","midi":77,"time":726.3020833333512,"velocity":0.8031496062992126,"duration":0.21875},{"name":"A4","midi":69,"time":726.5260416666846,"velocity":0.8031496062992126,"duration":0.20833333333337123},{"name":"G3","midi":55,"time":726.7473958333513,"velocity":0.8031496062992126,"duration":0.19921875},{"name":"B4","midi":71,"time":726.7473958333513,"velocity":0.8031496062992126,"duration":0.19921875},{"name":"C3","midi":48,"time":726.9713541666847,"velocity":0.8031496062992126,"duration":0.8346354166667425},{"name":"D#5","midi":75,"time":726.9713541666847,"velocity":0.8031496062992126,"duration":0.21875},{"name":"C5","midi":72,"time":727.1940104166847,"velocity":0.8031496062992126,"duration":0.20833333333337123},{"name":"A4","midi":69,"time":727.4153645833514,"velocity":0.8031496062992126,"duration":0.19921875},{"name":"D5","midi":74,"time":727.6393229166848,"velocity":0.8031496062992126,"duration":0.21875},{"name":"F#4","midi":66,"time":727.8632812500182,"velocity":0.8031496062992126,"duration":0.20833333333337123},{"name":"A#3","midi":58,"time":728.0846354166849,"velocity":0.8031496062992126,"duration":0.19921875},{"name":"G4","midi":67,"time":728.0846354166849,"velocity":0.8031496062992126,"duration":0.19921875},{"name":"A3","midi":57,"time":728.3085937500183,"velocity":0.8031496062992126,"duration":1.0013020833333712},{"name":"C5","midi":72,"time":728.3085937500183,"velocity":0.8031496062992126,"duration":0.21875},{"name":"A4","midi":69,"time":728.5312500000183,"velocity":0.8031496062992126,"duration":0.20833333333337123},{"name":"F#4","midi":66,"time":728.7539062500183,"velocity":0.8031496062992126,"duration":0.19921875},{"name":"A#4","midi":70,"time":728.9765625000183,"velocity":0.8031496062992126,"duration":0.21875},{"name":"D4","midi":62,"time":729.2005208333517,"velocity":0.8031496062992126,"duration":0.2109375},{"name":"G3","midi":55,"time":729.424479166685,"velocity":0.8031496062992126,"duration":0.19921875},{"name":"D#4","midi":63,"time":729.424479166685,"velocity":0.8031496062992126,"duration":0.19921875},{"name":"F3","midi":53,"time":729.647135416685,"velocity":0.8031496062992126,"duration":1.001302083333485},{"name":"A4","midi":69,"time":729.647135416685,"velocity":0.8031496062992126,"duration":0.21875},{"name":"F4","midi":65,"time":729.8710937500184,"velocity":0.8031496062992126,"duration":0.20833333333337123},{"name":"D4","midi":62,"time":730.0924479166852,"velocity":0.8031496062992126,"duration":0.19921875},{"name":"G4","midi":67,"time":730.3164062500185,"velocity":0.8031496062992126,"duration":0.21875},{"name":"A#3","midi":58,"time":730.5403645833519,"velocity":0.8031496062992126,"duration":0.2109375},{"name":"D#3","midi":51,"time":730.7630208333519,"velocity":0.8031496062992126,"duration":0.19921875},{"name":"C4","midi":60,"time":730.7630208333519,"velocity":0.8031496062992126,"duration":0.19921875},{"name":"F#2","midi":42,"time":730.9869791666853,"velocity":0.8031496062992126,"duration":0.21875},{"name":"D4","midi":62,"time":730.9869791666853,"velocity":0.8031496062992126,"duration":0.8880208333334849},{"name":"G2","midi":43,"time":731.2109375000186,"velocity":0.8031496062992126,"duration":0.20833333333337123},{"name":"A2","midi":45,"time":731.4322916666854,"velocity":0.8031496062992126,"duration":0.19921875},{"name":"A#2","midi":46,"time":731.6562500000188,"velocity":0.8031496062992126,"duration":0.21875},{"name":"C3","midi":48,"time":731.8789062500188,"velocity":0.8031496062992126,"duration":0.20833333333337123},{"name":"E4","midi":64,"time":731.8789062500188,"velocity":0.8031496062992126,"duration":0.20833333333337123},{"name":"D3","midi":50,"time":732.1002604166855,"velocity":0.8031496062992126,"duration":0.19921875},{"name":"F#4","midi":66,"time":732.1002604166855,"velocity":0.8031496062992126,"duration":0.19921875},{"name":"D#3","midi":51,"time":732.3242187500189,"velocity":0.8031496062992126,"duration":0.21875},{"name":"G4","midi":67,"time":732.3242187500189,"velocity":0.8031496062992126,"duration":0.21875},{"name":"C3","midi":48,"time":732.5481770833522,"velocity":0.8031496062992126,"duration":0.20833333333337123},{"name":"A4","midi":69,"time":732.5481770833522,"velocity":0.8031496062992126,"duration":0.20833333333337123},{"name":"G3","midi":55,"time":732.769531250019,"velocity":0.8031496062992126,"duration":0.19921875},{"name":"A#4","midi":70,"time":732.769531250019,"velocity":0.8031496062992126,"duration":0.19921875},{"name":"A3","midi":57,"time":732.9934895833524,"velocity":0.8031496062992126,"duration":0.21875},{"name":"C5","midi":72,"time":732.9934895833524,"velocity":0.8031496062992126,"duration":0.21875},{"name":"A#3","midi":58,"time":733.2161458333524,"velocity":0.8031496062992126,"duration":0.20833333333337123},{"name":"D5","midi":74,"time":733.2161458333524,"velocity":0.8031496062992126,"duration":0.20833333333337123},{"name":"C4","midi":60,"time":733.4388020833524,"velocity":0.8031496062992126,"duration":0.19921875},{"name":"D#5","midi":75,"time":733.4388020833524,"velocity":0.8031496062992126,"duration":0.19921875},{"name":"A#3","midi":58,"time":733.6614583333524,"velocity":0.8031496062992126,"duration":0.21875},{"name":"D5","midi":74,"time":733.6614583333524,"velocity":0.8031496062992126,"duration":0.44010416666674246},{"name":"G3","midi":55,"time":733.8854166666857,"velocity":0.8031496062992126,"duration":0.20833333333337123},{"name":"D3","midi":50,"time":734.1067708333525,"velocity":0.8031496062992126,"duration":0.19921875},{"name":"A#5","midi":82,"time":734.1067708333525,"velocity":0.8031496062992126,"duration":0.19921875},{"name":"C4","midi":60,"time":734.3307291666858,"velocity":0.8031496062992126,"duration":0.21875},{"name":"D#5","midi":75,"time":734.3307291666858,"velocity":0.8031496062992126,"duration":0.21875},{"name":"E3","midi":52,"time":734.5546875000192,"velocity":0.8031496062992126,"duration":0.20833333333337123},{"name":"D5","midi":74,"time":734.5546875000192,"velocity":0.8031496062992126,"duration":0.20833333333337123},{"name":"F#3","midi":54,"time":734.776041666686,"velocity":0.8031496062992126,"duration":0.19921875},{"name":"C5","midi":72,"time":734.776041666686,"velocity":0.8031496062992126,"duration":0.19921875},{"name":"G3","midi":55,"time":734.998697916686,"velocity":0.8031496062992126,"duration":0.21875},{"name":"A#4","midi":70,"time":734.998697916686,"velocity":0.8031496062992126,"duration":0.44010416666674246},{"name":"D3","midi":50,"time":735.2226562500193,"velocity":0.8031496062992126,"duration":0.20833333333337123},{"name":"A#2","midi":46,"time":735.4440104166861,"velocity":0.8031496062992126,"duration":0.19921875},{"name":"G5","midi":79,"time":735.4440104166861,"velocity":0.8031496062992126,"duration":0.19921875},{"name":"G#3","midi":56,"time":735.6679687500194,"velocity":0.8031496062992126,"duration":0.21875},{"name":"C5","midi":72,"time":735.6679687500194,"velocity":0.8031496062992126,"duration":0.21875},{"name":"C3","midi":48,"time":735.8919270833528,"velocity":0.8031496062992126,"duration":0.20833333333337123},{"name":"A#4","midi":70,"time":735.8919270833528,"velocity":0.8031496062992126,"duration":0.20833333333337123},{"name":"D3","midi":50,"time":736.1132812500196,"velocity":0.8031496062992126,"duration":0.19921875},{"name":"G#4","midi":68,"time":736.1132812500196,"velocity":0.8031496062992126,"duration":0.19921875},{"name":"D#3","midi":51,"time":736.3359375000196,"velocity":0.8031496062992126,"duration":0.21875},{"name":"G4","midi":67,"time":736.3359375000196,"velocity":0.8031496062992126,"duration":0.44010416666674246},{"name":"A#2","midi":46,"time":736.5598958333529,"velocity":0.8031496062992126,"duration":0.20833333333337123},{"name":"G2","midi":43,"time":736.7812500000197,"velocity":0.8031496062992126,"duration":0.19921875},{"name":"D#5","midi":75,"time":736.7812500000197,"velocity":0.8031496062992126,"duration":0.19921875},{"name":"F3","midi":53,"time":737.005208333353,"velocity":0.8031496062992126,"duration":0.21875},{"name":"G#4","midi":68,"time":737.005208333353,"velocity":0.8031496062992126,"duration":0.21875},{"name":"A2","midi":45,"time":737.2291666666864,"velocity":0.8031496062992126,"duration":0.20833333333337123},{"name":"G4","midi":67,"time":737.2291666666864,"velocity":0.8031496062992126,"duration":0.20833333333337123},{"name":"B2","midi":47,"time":737.4505208333532,"velocity":0.8031496062992126,"duration":0.19921875},{"name":"F4","midi":65,"time":737.4505208333532,"velocity":0.8031496062992126,"duration":0.19921875},{"name":"C3","midi":48,"time":737.6744791666865,"velocity":0.8031496062992126,"duration":0.48697916666674246},{"name":"D#4","midi":63,"time":737.6744791666865,"velocity":0.8031496062992126,"duration":0.21875},{"name":"C5","midi":72,"time":737.8971354166865,"velocity":0.8031496062992126,"duration":0.20833333333337123},{"name":"D#4","midi":63,"time":738.1184895833533,"velocity":0.8031496062992126,"duration":0.19921875},{"name":"G2","midi":43,"time":738.3424479166866,"velocity":0.8031496062992126,"duration":0.48697916666674246},{"name":"D4","midi":62,"time":738.3424479166866,"velocity":0.8031496062992126,"duration":0.21875},{"name":"C5","midi":72,"time":738.56640625002,"velocity":0.8031496062992126,"duration":0.20833333333337123},{"name":"A#4","midi":70,"time":738.7877604166868,"velocity":0.8031496062992126,"duration":0.19921875},{"name":"E2","midi":40,"time":739.0117187500201,"velocity":0.8031496062992126,"duration":0.48697916666674246},{"name":"C4","midi":60,"time":739.0117187500201,"velocity":0.8031496062992126,"duration":0.21875},{"name":"A#4","midi":70,"time":739.2343750000201,"velocity":0.8031496062992126,"duration":0.20833333333337123},{"name":"A4","midi":69,"time":739.4557291666869,"velocity":0.8031496062992126,"duration":0.19921875},{"name":"F#2","midi":42,"time":739.6796875000202,"velocity":0.8031496062992126,"duration":0.48697916666674246},{"name":"D4","midi":62,"time":739.6796875000202,"velocity":0.8031496062992126,"duration":0.21875},{"name":"C5","midi":72,"time":739.9036458333536,"velocity":0.8031496062992126,"duration":0.20833333333337123},{"name":"A#4","midi":70,"time":740.1250000000203,"velocity":0.8031496062992126,"duration":0.19921875},{"name":"G2","midi":43,"time":740.3489583333537,"velocity":0.8031496062992126,"duration":0.48697916666674246},{"name":"E4","midi":64,"time":740.3489583333537,"velocity":0.8031496062992126,"duration":0.21875},{"name":"D5","midi":74,"time":740.5716145833537,"velocity":0.8031496062992126,"duration":0.20833333333337123},{"name":"C5","midi":72,"time":740.7929687500205,"velocity":0.8031496062992126,"duration":0.19921875},{"name":"A2","midi":45,"time":741.0169270833538,"velocity":0.8031496062992126,"duration":0.48697916666674246},{"name":"F#4","midi":66,"time":741.0169270833538,"velocity":0.8031496062992126,"duration":0.21875},{"name":"D#5","midi":75,"time":741.2408854166872,"velocity":0.8031496062992126,"duration":0.20833333333337123},{"name":"D5","midi":74,"time":741.462239583354,"velocity":0.8031496062992126,"duration":0.19921875},{"name":"A#2","midi":46,"time":741.6861979166873,"velocity":0.8031496062992126,"duration":0.48697916666662877},{"name":"G4","midi":67,"time":741.6861979166873,"velocity":0.8031496062992126,"duration":0.21875},{"name":"C5","midi":72,"time":741.9088541666873,"velocity":0.8031496062992126,"duration":0.20833333333337123},{"name":"A#4","midi":70,"time":742.1315104166873,"velocity":0.8031496062992126,"duration":0.19921875},{"name":"C3","midi":48,"time":742.3541666666873,"velocity":0.8031496062992126,"duration":0.48697916666674246},{"name":"A4","midi":69,"time":742.3541666666873,"velocity":0.8031496062992126,"duration":0.21875},{"name":"A#4","midi":70,"time":742.5781250000207,"velocity":0.8031496062992126,"duration":0.20833333333337123},{"name":"G4","midi":67,"time":742.7994791666874,"velocity":0.8031496062992126,"duration":0.19921875},{"name":"D3","midi":50,"time":743.0234375000208,"velocity":0.8031496062992126,"duration":0.4843749999998863},{"name":"F#4","midi":66,"time":743.0234375000208,"velocity":0.8031496062992126,"duration":0.44010416666662877},{"name":"D#4","midi":63,"time":743.2447916666874,"velocity":0.8031496062992126,"duration":0.20833333333337123},{"name":"D4","midi":62,"time":743.4661458333541,"velocity":0.8031496062992126,"duration":0.19921875},{"name":"E3","midi":52,"time":743.6901041666874,"velocity":0.8031496062992126,"duration":0.4843749999998863},{"name":"G4","midi":67,"time":743.6901041666874,"velocity":0.8031496062992126,"duration":0.44010416666662877},{"name":"D4","midi":62,"time":743.9114583333541,"velocity":0.8031496062992126,"duration":0.20833333333337123},{"name":"C4","midi":60,"time":744.1328125000207,"velocity":0.8031496062992126,"duration":0.19921875},{"name":"F#3","midi":54,"time":744.3567708333541,"velocity":0.8031496062992126,"duration":0.4374999999998863},{"name":"A4","midi":69,"time":744.3567708333541,"velocity":0.8031496062992126,"duration":0.41536458333325754},{"name":"D4","midi":62,"time":744.5781250000207,"velocity":0.8031496062992126,"duration":0.20833333333325754},{"name":"D2","midi":38,"time":744.7994791666873,"velocity":0.8031496062992126,"duration":0.19921875},{"name":"C4","midi":60,"time":744.7994791666873,"velocity":0.8031496062992126,"duration":0.19921875},{"name":"E2","midi":40,"time":745.0234375000207,"velocity":0.8031496062992126,"duration":0.44010416666674246},{"name":"A#3","midi":58,"time":745.0234375000207,"velocity":0.8031496062992126,"duration":0.21875},{"name":"C4","midi":60,"time":745.2460937500207,"velocity":0.8031496062992126,"duration":0.20833333333337123},{"name":"F#2","midi":42,"time":745.4674479166874,"velocity":0.8031496062992126,"duration":0.19921875},{"name":"A3","midi":57,"time":745.4674479166874,"velocity":0.8031496062992126,"duration":0.19921875},{"name":"G2","midi":43,"time":745.6914062500208,"velocity":0.8031496062992126,"duration":0.48697916666662877},{"name":"A#3","midi":58,"time":745.6914062500208,"velocity":0.8031496062992126,"duration":0.31119791666662877},{"name":"A3","midi":57,"time":745.9127604166874,"velocity":0.8031496062992126,"duration":0.2109375},{"name":"G3","midi":55,"time":746.1367187500208,"velocity":0.8031496062992126,"duration":0.19921875},{"name":"A2","midi":45,"time":746.3606770833542,"velocity":0.8031496062992126,"duration":0.48697916666662877},{"name":"C4","midi":60,"time":746.3606770833542,"velocity":0.8031496062992126,"duration":0.31119791666662877},{"name":"A3","midi":57,"time":746.5820312500208,"velocity":0.8031496062992126,"duration":0.2109375},{"name":"G3","midi":55,"time":746.8046875000208,"velocity":0.8031496062992126,"duration":0.19921875},{"name":"A#2","midi":46,"time":747.0286458333542,"velocity":0.8031496062992126,"duration":0.48697916666662877},{"name":"D4","midi":62,"time":747.0286458333542,"velocity":0.8031496062992126,"duration":0.31119791666662877},{"name":"A3","midi":57,"time":747.2500000000208,"velocity":0.8031496062992126,"duration":0.2109375},{"name":"G3","midi":55,"time":747.4739583333542,"velocity":0.8031496062992126,"duration":0.19921875},{"name":"C3","midi":48,"time":747.6979166666875,"velocity":0.8031496062992126,"duration":0.48697916666662877},{"name":"D#4","midi":63,"time":747.6979166666875,"velocity":0.8031496062992126,"duration":0.26041666666662877},{"name":"A3","midi":57,"time":747.9192708333542,"velocity":0.8031496062992126,"duration":0.2109375},{"name":"G3","midi":55,"time":748.1432291666875,"velocity":0.8031496062992126,"duration":0.19921875},{"name":"D3","midi":50,"time":748.3658854166875,"velocity":0.8031496062992126,"duration":0.21875},{"name":"F#3","midi":54,"time":748.3658854166875,"velocity":0.8031496062992126,"duration":0.21875},{"name":"E3","midi":52,"time":748.5898437500209,"velocity":0.8031496062992126,"duration":0.20833333333337123},{"name":"G3","midi":55,"time":748.5898437500209,"velocity":0.8031496062992126,"duration":0.20833333333337123},{"name":"F#3","midi":54,"time":748.8111979166877,"velocity":0.8031496062992126,"duration":0.19921875},{"name":"A3","midi":57,"time":748.8111979166877,"velocity":0.8031496062992126,"duration":0.19921875},{"name":"G2","midi":43,"time":749.035156250021,"velocity":0.8031496062992126,"duration":0.21875},{"name":"A#3","midi":58,"time":749.035156250021,"velocity":0.8031496062992126,"duration":0.21875},{"name":"A2","midi":45,"time":749.2591145833544,"velocity":0.8031496062992126,"duration":0.20833333333337123},{"name":"C4","midi":60,"time":749.2591145833544,"velocity":0.8031496062992126,"duration":0.20833333333337123},{"name":"A#2","midi":46,"time":749.4804687500211,"velocity":0.8031496062992126,"duration":0.19921875},{"name":"D4","midi":62,"time":749.4804687500211,"velocity":0.8031496062992126,"duration":0.19921875},{"name":"C3","midi":48,"time":749.7031250000211,"velocity":0.8031496062992126,"duration":0.21875},{"name":"D#4","midi":63,"time":749.7031250000211,"velocity":0.8031496062992126,"duration":0.28645833333337123},{"name":"D3","midi":50,"time":749.9270833333545,"velocity":0.8031496062992126,"duration":0.20833333333337123},{"name":"C4","midi":60,"time":749.9270833333545,"velocity":0.8031496062992126,"duration":0.20833333333337123},{"name":"D#3","midi":51,"time":750.1484375000213,"velocity":0.8031496062992126,"duration":0.19921875},{"name":"G4","midi":67,"time":750.1484375000213,"velocity":0.8031496062992126,"duration":0.19921875},{"name":"F#2","midi":42,"time":750.3723958333546,"velocity":0.8031496062992126,"duration":0.21875},{"name":"A4","midi":69,"time":750.3723958333546,"velocity":0.8031496062992126,"duration":0.21875},{"name":"G2","midi":43,"time":750.596354166688,"velocity":0.8031496062992126,"duration":0.20833333333337123},{"name":"A#4","midi":70,"time":750.596354166688,"velocity":0.8031496062992126,"duration":0.20833333333337123},{"name":"A2","midi":45,"time":750.8177083333547,"velocity":0.8031496062992126,"duration":0.19921875},{"name":"C5","midi":72,"time":750.8177083333547,"velocity":0.8031496062992126,"duration":0.19921875},{"name":"A#2","midi":46,"time":751.0403645833547,"velocity":0.8031496062992126,"duration":0.44010416666662877},{"name":"D5","midi":74,"time":751.0403645833547,"velocity":0.8031496062992126,"duration":0.2734375},{"name":"A#4","midi":70,"time":751.2643229166881,"velocity":0.8031496062992126,"duration":0.20833333333325754},{"name":"D#3","midi":51,"time":751.4856770833547,"velocity":0.8031496062992126,"duration":0.19921875},{"name":"G4","midi":67,"time":751.4856770833547,"velocity":0.8031496062992126,"duration":0.19921875},{"name":"A2","midi":45,"time":751.7096354166881,"velocity":0.8031496062992126,"duration":0.44010416666674246},{"name":"C5","midi":72,"time":751.7096354166881,"velocity":0.8031496062992126,"duration":0.21875},{"name":"E4","midi":64,"time":751.9335937500215,"velocity":0.8031496062992126,"duration":0.20833333333337123},{"name":"D4","midi":62,"time":752.1549479166882,"velocity":0.8031496062992126,"duration":0.19921875},{"name":"F#4","midi":66,"time":752.1549479166882,"velocity":0.8031496062992126,"duration":0.19921875},{"name":"D#4","midi":63,"time":752.3789062500216,"velocity":0.8031496062992126,"duration":0.21875},{"name":"G4","midi":67,"time":752.3789062500216,"velocity":0.8031496062992126,"duration":0.7812500000001137},{"name":"D4","midi":62,"time":752.6015625000216,"velocity":0.8031496062992126,"duration":0.20833333333337123},{"name":"C4","midi":60,"time":752.8229166666883,"velocity":0.8031496062992126,"duration":0.19921875},{"name":"D5","midi":74,"time":752.8229166666883,"velocity":0.8031496062992126,"duration":0.19921875},{"name":"A#3","midi":58,"time":753.0468750000217,"velocity":0.8031496062992126,"duration":0.21875},{"name":"G5","midi":79,"time":753.0468750000217,"velocity":0.8031496062992126,"duration":0.21875},{"name":"A3","midi":57,"time":753.2708333333551,"velocity":0.8031496062992126,"duration":0.20833333333337123},{"name":"F5","midi":77,"time":753.2708333333551,"velocity":0.8031496062992126,"duration":0.20833333333337123},{"name":"G3","midi":55,"time":753.4921875000218,"velocity":0.8031496062992126,"duration":0.19921875},{"name":"D#5","midi":75,"time":753.4921875000218,"velocity":0.8031496062992126,"duration":0.19921875},{"name":"F#3","midi":54,"time":753.7161458333552,"velocity":0.8031496062992126,"duration":0.21875},{"name":"D5","midi":74,"time":753.7161458333552,"velocity":0.8031496062992126,"duration":0.21875},{"name":"A3","midi":57,"time":753.9388020833552,"velocity":0.8031496062992126,"duration":0.20833333333337123},{"name":"C5","midi":72,"time":753.9388020833552,"velocity":0.8031496062992126,"duration":0.20833333333337123},{"name":"D3","midi":50,"time":754.1601562500219,"velocity":0.8031496062992126,"duration":0.19921875},{"name":"A#4","midi":70,"time":754.1601562500219,"velocity":0.8031496062992126,"duration":0.19921875},{"name":"C3","midi":48,"time":754.3841145833553,"velocity":0.8031496062992126,"duration":0.21875},{"name":"A4","midi":69,"time":754.3841145833553,"velocity":0.8031496062992126,"duration":0.21875},{"name":"A#2","midi":46,"time":754.6080729166887,"velocity":0.8031496062992126,"duration":0.20833333333337123},{"name":"G4","midi":67,"time":754.6080729166887,"velocity":0.8031496062992126,"duration":0.20833333333337123},{"name":"A2","midi":45,"time":754.8294270833554,"velocity":0.8031496062992126,"duration":0.19921875},{"name":"F#4","midi":66,"time":754.8294270833554,"velocity":0.8031496062992126,"duration":0.19921875},{"name":"A#2","midi":46,"time":755.0533854166888,"velocity":0.8031496062992126,"duration":0.21875},{"name":"G4","midi":67,"time":755.0533854166888,"velocity":0.8031496062992126,"duration":0.21875},{"name":"G3","midi":55,"time":755.2760416666888,"velocity":0.8031496062992126,"duration":0.20833333333337123},{"name":"D#5","midi":75,"time":755.2760416666888,"velocity":0.8031496062992126,"duration":0.20833333333337123},{"name":"C3","midi":48,"time":755.4986979166888,"velocity":0.8031496062992126,"duration":0.19921875},{"name":"D5","midi":74,"time":755.4986979166888,"velocity":0.8031496062992126,"duration":0.19921875},{"name":"D3","midi":50,"time":755.7213541666888,"velocity":0.8031496062992126,"duration":0.2187500000001137},{"name":"C5","midi":72,"time":755.7213541666888,"velocity":0.8031496062992126,"duration":0.10677083333337123},{"name":"A#4","midi":70,"time":755.8333333333555,"velocity":0.8031496062992126,"duration":0.10677083333337123},{"name":"C3","midi":48,"time":755.9453125000223,"velocity":0.8031496062992126,"duration":0.20833333333337123},{"name":"A4","midi":69,"time":755.9453125000223,"velocity":0.8031496062992126,"duration":0.20833333333337123},{"name":"D3","midi":50,"time":756.166666666689,"velocity":0.8031496062992126,"duration":0.19921875},{"name":"G4","midi":67,"time":756.166666666689,"velocity":0.8031496062992126,"duration":0.19921875},{"name":"G2","midi":43,"time":756.3906250000224,"velocity":0.8031496062992126,"duration":0.26041666666662877},{"name":"G4","midi":67,"time":756.3906250000224,"velocity":0.8031496062992126,"duration":0.26041666666662877},{"name":"A#2","midi":46,"time":756.6562500000224,"velocity":0.8031496062992126,"duration":0.25},{"name":"D4","midi":62,"time":756.6562500000224,"velocity":0.8031496062992126,"duration":0.25},{"name":"A#3","midi":58,"time":756.9427083333558,"velocity":0.8031496062992126,"duration":0.265625},{"name":"D3","midi":50,"time":756.9427083333558,"velocity":0.8031496062992126,"duration":0.265625},{"name":"G3","midi":55,"time":757.2708333333558,"velocity":0.8031496062992126,"duration":2.734375}],"controlChanges":{"7":[{"number":7,"time":0,"value":0.7874015748031497}]},"id":1,"name":"Piano 1","instrumentNumber":6,"instrument":"harpsichord","instrumentFamily":"piano","channelNumber":0,"isPercussion":false}]}