{"header":{"PPQ":384,"timeSignature":[4,4],"bpm":120,"name":"--------"},"startTime":0,"duration":824.0572916666671,"tracks":[{"startTime":0,"duration":0,"length":0,"notes":[],"controlChanges":{},"id":0,"name":"--------"},{"startTime":0.21354166666666666,"duration":824.0572916666671,"length":6348,"notes":[{"name":"C4","midi":60,"time":0.21354166666666666,"velocity":0.8031496062992126,"duration":0.21093749999999997},{"name":"D4","midi":62,"time":0.4270833333333333,"velocity":0.8031496062992126,"duration":0.21093749999999994},{"name":"E4","midi":64,"time":0.6406249999999999,"velocity":0.8031496062992126,"duration":0.2109375},{"name":"F4","midi":65,"time":0.8541666666666665,"velocity":0.8031496062992126,"duration":0.2109375},{"name":"G4","midi":67,"time":1.0677083333333333,"velocity":0.8031496062992126,"duration":0.2109375},{"name":"A4","midi":69,"time":1.28125,"velocity":0.8031496062992126,"duration":0.2109375},{"name":"F4","midi":65,"time":1.49609375,"velocity":0.8031496062992126,"duration":0.2109375},{"name":"A#4","midi":70,"time":1.7096354166666667,"velocity":0.8031496062992126,"duration":0.2109375},{"name":"C5","midi":72,"time":1.9231770833333335,"velocity":0.8031496062992126,"duration":0.2109375},{"name":"A#4","midi":70,"time":2.13671875,"velocity":0.8031496062992126,"duration":0.2109375},{"name":"A4","midi":69,"time":2.3502604166666665,"velocity":0.8031496062992126,"duration":0.2109375},{"name":"G4","midi":67,"time":2.563802083333333,"velocity":0.8031496062992126,"duration":0.2109375},{"name":"C5","midi":72,"time":2.778645833333333,"velocity":0.8031496062992126,"duration":0.2109375},{"name":"A#4","midi":70,"time":2.9921874999999996,"velocity":0.8031496062992126,"duration":0.2109375},{"name":"C5","midi":72,"time":3.205729166666666,"velocity":0.8031496062992126,"duration":0.2109375},{"name":"A4","midi":69,"time":3.4192708333333326,"velocity":0.8031496062992126,"duration":0.35546875},{"name":"C3","midi":48,"time":3.632812499999999,"velocity":0.8031496062992126,"duration":0.2109375},{"name":"D3","midi":50,"time":3.8463541666666656,"velocity":0.8031496062992126,"duration":0.21093750000000044},{"name":"F4","midi":65,"time":3.8463541666666656,"velocity":0.8031496062992126,"duration":0.3333333333333335},{"name":"E3","midi":52,"time":4.061197916666666,"velocity":0.8031496062992126,"duration":0.2109375},{"name":"F3","midi":53,"time":4.274739583333333,"velocity":0.8031496062992126,"duration":0.2109375},{"name":"F5","midi":77,"time":4.274739583333333,"velocity":0.8031496062992126,"duration":0.11067708333333304},{"name":"E5","midi":76,"time":4.381510416666666,"velocity":0.8031496062992126,"duration":0.11067708333333393},{"name":"G3","midi":55,"time":4.48828125,"velocity":0.8031496062992126,"duration":0.2109375},{"name":"F5","midi":77,"time":4.48828125,"velocity":0.8031496062992126,"duration":0.42447916666666696},{"name":"A3","midi":57,"time":4.701822916666667,"velocity":0.8031496062992126,"duration":0.2109375},{"name":"F3","midi":53,"time":4.915364583333334,"velocity":0.8031496062992126,"duration":0.2109375},{"name":"F5","midi":77,"time":4.915364583333334,"velocity":0.8031496062992126,"duration":0.2109375},{"name":"A#3","midi":58,"time":5.128906250000001,"velocity":0.8031496062992126,"duration":0.2109375},{"name":"F5","midi":77,"time":5.128906250000001,"velocity":0.8031496062992126,"duration":0.6380208333333339},{"name":"C4","midi":60,"time":5.343750000000001,"velocity":0.8031496062992126,"duration":0.2109375},{"name":"A#3","midi":58,"time":5.557291666666668,"velocity":0.8031496062992126,"duration":0.2109375},{"name":"A3","midi":57,"time":5.770833333333335,"velocity":0.8031496062992126,"duration":0.2109375},{"name":"G5","midi":79,"time":5.770833333333335,"velocity":0.8031496062992126,"duration":0.2109375},{"name":"G3","midi":55,"time":5.984375000000002,"velocity":0.8031496062992126,"duration":0.2109375000000009},{"name":"F5","midi":77,"time":5.984375000000002,"velocity":0.8031496062992126,"duration":0.13932291666666696},{"name":"E5","midi":76,"time":6.126302083333336,"velocity":0.8031496062992126,"duration":0.07942708333333393},{"name":"C4","midi":60,"time":6.19791666666667,"velocity":0.8031496062992126,"duration":0.20833333333333393},{"name":"F5","midi":77,"time":6.19791666666667,"velocity":0.8031496062992126,"duration":0.08203125},{"name":"E5","midi":76,"time":6.269531250000003,"velocity":0.8031496062992126,"duration":0.08203125000000089},{"name":"F5","midi":77,"time":6.341145833333337,"velocity":0.8031496062992126,"duration":0.08203125},{"name":"A#3","midi":58,"time":6.411458333333337,"velocity":0.8031496062992126,"duration":0.2109375},{"name":"E5","midi":76,"time":6.411458333333337,"velocity":0.8031496062992126,"duration":0.2109375},{"name":"C4","midi":60,"time":6.6250000000000036,"velocity":0.8031496062992126,"duration":0.2109375},{"name":"F5","midi":77,"time":6.6250000000000036,"velocity":0.8031496062992126,"duration":0.2109375},{"name":"A3","midi":57,"time":6.8398437500000036,"velocity":0.8031496062992126,"duration":0.3997395833333339},{"name":"F5","midi":77,"time":6.8398437500000036,"velocity":0.8031496062992126,"duration":0.2109375},{"name":"G5","midi":79,"time":7.0533854166666705,"velocity":0.8031496062992126,"duration":0.2109375},{"name":"F3","midi":53,"time":7.2669270833333375,"velocity":0.8031496062992126,"duration":0.37369791666666696},{"name":"F5","midi":77,"time":7.2669270833333375,"velocity":0.8031496062992126,"duration":0.2109375},{"name":"E5","midi":76,"time":7.480468750000004,"velocity":0.8031496062992126,"duration":0.2109375},{"name":"F4","midi":65,"time":7.694010416666671,"velocity":0.8031496062992126,"duration":0.10416666666666696},{"name":"D5","midi":74,"time":7.694010416666671,"velocity":0.8031496062992126,"duration":0.2109375000000009},{"name":"E4","midi":64,"time":7.800781250000005,"velocity":0.8031496062992126,"duration":0.10416666666666696},{"name":"F4","midi":65,"time":7.907552083333339,"velocity":0.8031496062992126,"duration":0.4244791666666661},{"name":"E5","midi":76,"time":7.907552083333339,"velocity":0.8031496062992126,"duration":0.2109375},{"name":"F5","midi":77,"time":8.12239583333334,"velocity":0.8031496062992126,"duration":0.2109375},{"name":"F4","midi":65,"time":8.335937500000005,"velocity":0.8031496062992126,"duration":0.2109375},{"name":"A5","midi":81,"time":8.335937500000005,"velocity":0.8031496062992126,"duration":0.2109375},{"name":"F4","midi":65,"time":8.549479166666671,"velocity":0.8031496062992126,"duration":0.6380208333333321},{"name":"B4","midi":71,"time":8.549479166666671,"velocity":0.8031496062992126,"duration":0.2109375},{"name":"C5","midi":72,"time":8.763020833333337,"velocity":0.8031496062992126,"duration":0.2109375},{"name":"D5","midi":74,"time":8.976562500000004,"velocity":0.8031496062992126,"duration":0.2109375},{"name":"G4","midi":67,"time":9.19010416666667,"velocity":0.8031496062992126,"duration":0.2109375},{"name":"G5","midi":79,"time":9.19010416666667,"velocity":0.8031496062992126,"duration":0.2109375},{"name":"F4","midi":65,"time":9.40494791666667,"velocity":0.8031496062992126,"duration":0.10416666666666607},{"name":"C5","midi":72,"time":9.40494791666667,"velocity":0.8031496062992126,"duration":0.21093749999999822},{"name":"E4","midi":64,"time":9.511718750000002,"velocity":0.8031496062992126,"duration":0.10416666666666607},{"name":"F4","midi":65,"time":9.618489583333334,"velocity":0.8031496062992126,"duration":0.10416666666666607},{"name":"D5","midi":74,"time":9.618489583333334,"velocity":0.8031496062992126,"duration":0.21093749999999822},{"name":"E4","midi":64,"time":9.725260416666666,"velocity":0.8031496062992126,"duration":0.10416666666666607},{"name":"F4","midi":65,"time":9.832031249999998,"velocity":0.8031496062992126,"duration":0.10416666666666607},{"name":"E5","midi":76,"time":9.832031249999998,"velocity":0.8031496062992126,"duration":0.21093749999999822},{"name":"E4","midi":64,"time":9.93880208333333,"velocity":0.8031496062992126,"duration":0.10416666666666607},{"name":"E4","midi":64,"time":10.045572916666663,"velocity":0.8031496062992126,"duration":0.2109375},{"name":"G5","midi":79,"time":10.045572916666663,"velocity":0.8031496062992126,"duration":0.2109375},{"name":"E4","midi":64,"time":10.259114583333329,"velocity":0.8031496062992126,"duration":0.4244791666666661},{"name":"A4","midi":69,"time":10.259114583333329,"velocity":0.8031496062992126,"duration":0.2109375},{"name":"B4","midi":71,"time":10.472656249999995,"velocity":0.8031496062992126,"duration":0.2109375},{"name":"A3","midi":57,"time":10.687499999999995,"velocity":0.8031496062992126,"duration":0.3776041666666661},{"name":"C5","midi":72,"time":10.687499999999995,"velocity":0.8031496062992126,"duration":0.2109375},{"name":"F5","midi":77,"time":10.90104166666666,"velocity":0.8031496062992126,"duration":0.2109375},{"name":"D4","midi":62,"time":11.114583333333327,"velocity":0.8031496062992126,"duration":0.10416666666666607},{"name":"B4","midi":71,"time":11.114583333333327,"velocity":0.8031496062992126,"duration":0.21093749999999822},{"name":"C4","midi":60,"time":11.221354166666659,"velocity":0.8031496062992126,"duration":0.10416666666666607},{"name":"D4","midi":62,"time":11.328124999999991,"velocity":0.8031496062992126,"duration":0.4244791666666661},{"name":"C5","midi":72,"time":11.328124999999991,"velocity":0.8031496062992126,"duration":0.2109375},{"name":"D5","midi":74,"time":11.541666666666657,"velocity":0.8031496062992126,"duration":0.2109375},{"name":"D4","midi":62,"time":11.755208333333323,"velocity":0.8031496062992126,"duration":0.2109375},{"name":"F5","midi":77,"time":11.755208333333323,"velocity":0.8031496062992126,"duration":0.2109375},{"name":"D4","midi":62,"time":11.96874999999999,"velocity":0.8031496062992126,"duration":0.6380208333333321},{"name":"G4","midi":67,"time":11.96874999999999,"velocity":0.8031496062992126,"duration":0.2109375},{"name":"A4","midi":69,"time":12.18359374999999,"velocity":0.8031496062992126,"duration":0.2109375},{"name":"B4","midi":71,"time":12.397135416666655,"velocity":0.8031496062992126,"duration":0.2109375},{"name":"E4","midi":64,"time":12.610677083333321,"velocity":0.8031496062992126,"duration":0.2109375},{"name":"E5","midi":76,"time":12.610677083333321,"velocity":0.8031496062992126,"duration":0.2109375},{"name":"D4","midi":62,"time":12.824218749999988,"velocity":0.8031496062992126,"duration":0.10416666666666607},{"name":"A4","midi":69,"time":12.824218749999988,"velocity":0.8031496062992126,"duration":0.21093749999999822},{"name":"C4","midi":60,"time":12.93098958333332,"velocity":0.8031496062992126,"duration":0.10416666666666607},{"name":"D4","midi":62,"time":13.037760416666652,"velocity":0.8031496062992126,"duration":0.10416666666666607},{"name":"B4","midi":71,"time":13.037760416666652,"velocity":0.8031496062992126,"duration":0.21093749999999822},{"name":"C4","midi":60,"time":13.144531249999984,"velocity":0.8031496062992126,"duration":0.10416666666666607},{"name":"D4","midi":62,"time":13.251302083333316,"velocity":0.8031496062992126,"duration":0.10416666666666607},{"name":"C5","midi":72,"time":13.251302083333316,"velocity":0.8031496062992126,"duration":0.2109375},{"name":"C4","midi":60,"time":13.359374999999982,"velocity":0.8031496062992126,"duration":0.10416666666666785},{"name":"C4","midi":60,"time":13.466145833333316,"velocity":0.8031496062992126,"duration":0.2109375},{"name":"E5","midi":76,"time":13.466145833333316,"velocity":0.8031496062992126,"duration":0.2109375},{"name":"C4","midi":60,"time":13.679687499999982,"velocity":0.8031496062992126,"duration":0.2109375},{"name":"F4","midi":65,"time":13.679687499999982,"velocity":0.8031496062992126,"duration":0.4244791666666661},{"name":"E4","midi":64,"time":13.893229166666648,"velocity":0.8031496062992126,"duration":0.2109375},{"name":"D4","midi":62,"time":14.106770833333314,"velocity":0.8031496062992126,"duration":0.2109375},{"name":"A4","midi":69,"time":14.106770833333314,"velocity":0.8031496062992126,"duration":0.4244791666666661},{"name":"C4","midi":60,"time":14.32031249999998,"velocity":0.8031496062992126,"duration":0.2109375},{"name":"B3","midi":59,"time":14.533854166666647,"velocity":0.8031496062992126,"duration":0.21093749999999822},{"name":"D5","midi":74,"time":14.533854166666647,"velocity":0.8031496062992126,"duration":0.10416666666666607},{"name":"C5","midi":72,"time":14.640624999999979,"velocity":0.8031496062992126,"duration":0.10416666666666607},{"name":"A3","midi":57,"time":14.748697916666645,"velocity":0.8031496062992126,"duration":0.2109375},{"name":"D5","midi":74,"time":14.748697916666645,"velocity":0.8031496062992126,"duration":0.4244791666666661},{"name":"G3","midi":55,"time":14.96223958333331,"velocity":0.8031496062992126,"duration":0.2109375},{"name":"F3","midi":53,"time":15.175781249999977,"velocity":0.8031496062992126,"duration":0.2109375},{"name":"D5","midi":74,"time":15.175781249999977,"velocity":0.8031496062992126,"duration":0.2109375},{"name":"E3","midi":52,"time":15.389322916666643,"velocity":0.8031496062992126,"duration":1.0416666666666679},{"name":"D5","midi":74,"time":15.389322916666643,"velocity":0.8031496062992126,"duration":0.2109375},{"name":"G4","midi":67,"time":15.602864583333309,"velocity":0.8031496062992126,"duration":0.2109375},{"name":"A4","midi":69,"time":15.816406249999975,"velocity":0.8031496062992126,"duration":0.2109375},{"name":"B4","midi":71,"time":16.031249999999975,"velocity":0.8031496062992126,"duration":0.2109375},{"name":"C5","midi":72,"time":16.244791666666643,"velocity":0.8031496062992126,"duration":0.2109375},{"name":"D3","midi":50,"time":16.45833333333331,"velocity":0.8031496062992126,"duration":0.2109375},{"name":"D5","midi":74,"time":16.45833333333331,"velocity":0.8031496062992126,"duration":0.2109375},{"name":"C3","midi":48,"time":16.67187499999998,"velocity":0.8031496062992126,"duration":0.2109375},{"name":"E5","midi":76,"time":16.67187499999998,"velocity":0.8031496062992126,"duration":0.2109375},{"name":"B2","midi":47,"time":16.885416666666647,"velocity":0.8031496062992126,"duration":0.2109375},{"name":"C5","midi":72,"time":16.885416666666647,"velocity":0.8031496062992126,"duration":0.2109375},{"name":"A2","midi":45,"time":17.098958333333314,"velocity":0.8031496062992126,"duration":0.2109375},{"name":"F5","midi":77,"time":17.098958333333314,"velocity":0.8031496062992126,"duration":0.2109375},{"name":"G2","midi":43,"time":17.312499999999982,"velocity":0.8031496062992126,"duration":0.2109375},{"name":"G5","midi":79,"time":17.312499999999982,"velocity":0.8031496062992126,"duration":0.2109375},{"name":"A2","midi":45,"time":17.527343749999982,"velocity":0.8031496062992126,"duration":0.2109375},{"name":"F5","midi":77,"time":17.527343749999982,"velocity":0.8031496062992126,"duration":0.2109375},{"name":"F2","midi":41,"time":17.74088541666665,"velocity":0.8031496062992126,"duration":0.2109375},{"name":"E5","midi":76,"time":17.74088541666665,"velocity":0.8031496062992126,"duration":0.2109375},{"name":"G2","midi":43,"time":17.954427083333318,"velocity":0.8031496062992126,"duration":0.42447916666666785},{"name":"D5","midi":74,"time":17.954427083333318,"velocity":0.8031496062992126,"duration":0.2109375},{"name":"G5","midi":79,"time":18.167968749999986,"velocity":0.8031496062992126,"duration":0.2109375},{"name":"G3","midi":55,"time":18.381510416666654,"velocity":0.8031496062992126,"duration":0.42447916666666785},{"name":"F5","midi":77,"time":18.381510416666654,"velocity":0.8031496062992126,"duration":0.2109375},{"name":"G5","midi":79,"time":18.59505208333332,"velocity":0.8031496062992126,"duration":0.2109375},{"name":"C3","midi":48,"time":18.80989583333332,"velocity":0.8031496062992126,"duration":0.2109375},{"name":"E5","midi":76,"time":18.80989583333332,"velocity":0.8031496062992126,"duration":0.3515625},{"name":"G3","midi":55,"time":19.02343749999999,"velocity":0.8031496062992126,"duration":0.2109375},{"name":"A3","midi":57,"time":19.236979166666657,"velocity":0.8031496062992126,"duration":0.2109375},{"name":"C5","midi":72,"time":19.236979166666657,"velocity":0.8031496062992126,"duration":0.3515625},{"name":"B3","midi":59,"time":19.450520833333325,"velocity":0.8031496062992126,"duration":0.2109375},{"name":"C4","midi":60,"time":19.664062499999993,"velocity":0.8031496062992126,"duration":0.2109375},{"name":"C6","midi":84,"time":19.664062499999993,"velocity":0.8031496062992126,"duration":0.11067708333333215},{"name":"B5","midi":83,"time":19.770833333333325,"velocity":0.8031496062992126,"duration":0.1106770833333357},{"name":"D4","midi":62,"time":19.87760416666666,"velocity":0.8031496062992126,"duration":0.2109375},{"name":"C6","midi":84,"time":19.87760416666666,"velocity":0.8031496062992126,"duration":0.42447916666666785},{"name":"E4","midi":64,"time":20.09244791666666,"velocity":0.8031496062992126,"duration":0.2109375},{"name":"C4","midi":60,"time":20.30598958333333,"velocity":0.8031496062992126,"duration":0.2109375},{"name":"C6","midi":84,"time":20.30598958333333,"velocity":0.8031496062992126,"duration":0.2109375},{"name":"F4","midi":65,"time":20.519531249999996,"velocity":0.8031496062992126,"duration":0.2109375},{"name":"C6","midi":84,"time":20.519531249999996,"velocity":0.8031496062992126,"duration":0.5312500000000036},{"name":"G4","midi":67,"time":20.733072916666664,"velocity":0.8031496062992126,"duration":0.2109375},{"name":"F4","midi":65,"time":20.946614583333332,"velocity":0.8031496062992126,"duration":0.21093750000000355},{"name":"B5","midi":83,"time":21.053385416666668,"velocity":0.8031496062992126,"duration":0.10416666666666785},{"name":"E4","midi":64,"time":21.160156250000004,"velocity":0.8031496062992126,"duration":0.21093750000000355},{"name":"C6","midi":84,"time":21.160156250000004,"velocity":0.8031496062992126,"duration":0.10416666666666785},{"name":"A5","midi":81,"time":21.26692708333334,"velocity":0.8031496062992126,"duration":0.10416666666666785},{"name":"D4","midi":62,"time":21.375000000000007,"velocity":0.8031496062992126,"duration":0.2109375},{"name":"B5","midi":83,"time":21.375000000000007,"velocity":0.8031496062992126,"duration":0.14453125},{"name":"A5","midi":81,"time":21.48177083333334,"velocity":0.8031496062992126,"duration":0.14453125000000355},{"name":"G4","midi":67,"time":21.588541666666675,"velocity":0.8031496062992126,"duration":0.2109375},{"name":"B5","midi":83,"time":21.588541666666675,"velocity":0.8031496062992126,"duration":0.42447916666666785},{"name":"F4","midi":65,"time":21.802083333333343,"velocity":0.8031496062992126,"duration":0.2109375},{"name":"G4","midi":67,"time":22.01562500000001,"velocity":0.8031496062992126,"duration":0.2109375},{"name":"B5","midi":83,"time":22.01562500000001,"velocity":0.8031496062992126,"duration":0.2109375},{"name":"C4","midi":60,"time":22.22916666666668,"velocity":0.8031496062992126,"duration":0.2109375},{"name":"B5","midi":83,"time":22.22916666666668,"velocity":0.8031496062992126,"duration":0.42447916666666785},{"name":"D4","midi":62,"time":22.442708333333346,"velocity":0.8031496062992126,"duration":0.2109375},{"name":"E4","midi":64,"time":22.656250000000014,"velocity":0.8031496062992126,"duration":0.2109375},{"name":"E5","midi":76,"time":22.656250000000014,"velocity":0.8031496062992126,"duration":0.3515625},{"name":"F4","midi":65,"time":22.871093750000014,"velocity":0.8031496062992126,"duration":0.2109375},{"name":"F3","midi":53,"time":23.084635416666682,"velocity":0.8031496062992126,"duration":0.21093750000000355},{"name":"A5","midi":81,"time":23.084635416666682,"velocity":0.8031496062992126,"duration":0.10416666666666785},{"name":"G5","midi":79,"time":23.191406250000018,"velocity":0.8031496062992126,"duration":0.10416666666666785},{"name":"G3","midi":55,"time":23.298177083333353,"velocity":0.8031496062992126,"duration":0.2109375},{"name":"A5","midi":81,"time":23.298177083333353,"velocity":0.8031496062992126,"duration":0.42447916666666785},{"name":"A3","midi":57,"time":23.51171875000002,"velocity":0.8031496062992126,"duration":0.2109375},{"name":"C4","midi":60,"time":23.72526041666669,"velocity":0.8031496062992126,"duration":0.2109375},{"name":"A5","midi":81,"time":23.72526041666669,"velocity":0.8031496062992126,"duration":0.2109375},{"name":"B3","midi":59,"time":23.938802083333357,"velocity":0.8031496062992126,"duration":0.2109375},{"name":"A5","midi":81,"time":23.938802083333357,"velocity":0.8031496062992126,"duration":0.6380208333333357},{"name":"C4","midi":60,"time":24.153645833333357,"velocity":0.8031496062992126,"duration":0.2109375},{"name":"D4","midi":62,"time":24.367187500000025,"velocity":0.8031496062992126,"duration":0.2109375},{"name":"F4","midi":65,"time":24.580729166666693,"velocity":0.8031496062992126,"duration":0.21093750000000355},{"name":"G5","midi":79,"time":24.580729166666693,"velocity":0.8031496062992126,"duration":0.10416666666666785},{"name":"F5","midi":77,"time":24.68750000000003,"velocity":0.8031496062992126,"duration":0.10416666666666785},{"name":"E3","midi":52,"time":24.794270833333364,"velocity":0.8031496062992126,"duration":0.2109375},{"name":"G5","midi":79,"time":24.794270833333364,"velocity":0.8031496062992126,"duration":0.16796875},{"name":"F5","midi":77,"time":24.901041666666696,"velocity":0.8031496062992126,"duration":0.16796875000000355},{"name":"F3","midi":53,"time":25.007812500000032,"velocity":0.8031496062992126,"duration":0.2109375},{"name":"G5","midi":79,"time":25.007812500000032,"velocity":0.8031496062992126,"duration":0.42447916666666785},{"name":"G3","midi":55,"time":25.2213541666667,"velocity":0.8031496062992126,"duration":0.2109375},{"name":"B3","midi":59,"time":25.4361979166667,"velocity":0.8031496062992126,"duration":0.2109375},{"name":"G5","midi":79,"time":25.4361979166667,"velocity":0.8031496062992126,"duration":0.2109375},{"name":"A3","midi":57,"time":25.649739583333368,"velocity":0.8031496062992126,"duration":0.2109375},{"name":"G5","midi":79,"time":25.649739583333368,"velocity":0.8031496062992126,"duration":0.42447916666666785},{"name":"B3","midi":59,"time":25.863281250000036,"velocity":0.8031496062992126,"duration":0.2109375},{"name":"C4","midi":60,"time":26.076822916666703,"velocity":0.8031496062992126,"duration":0.2109375},{"name":"C5","midi":72,"time":26.076822916666703,"velocity":0.8031496062992126,"duration":0.3515625},{"name":"E4","midi":64,"time":26.29036458333337,"velocity":0.8031496062992126,"duration":0.2109375},{"name":"D3","midi":50,"time":26.50390625000004,"velocity":0.8031496062992126,"duration":0.21093749999999645},{"name":"F5","midi":77,"time":26.50390625000004,"velocity":0.8031496062992126,"duration":0.1510416666666643},{"name":"E5","midi":76,"time":26.61067708333337,"velocity":0.8031496062992126,"duration":0.1510416666666643},{"name":"E3","midi":52,"time":26.718750000000036,"velocity":0.8031496062992126,"duration":0.2109375},{"name":"F5","midi":77,"time":26.718750000000036,"velocity":0.8031496062992126,"duration":0.42447916666666785},{"name":"F3","midi":53,"time":26.932291666666703,"velocity":0.8031496062992126,"duration":0.2109375},{"name":"A3","midi":57,"time":27.14583333333337,"velocity":0.8031496062992126,"duration":0.2109375},{"name":"F5","midi":77,"time":27.14583333333337,"velocity":0.8031496062992126,"duration":0.2109375},{"name":"G3","midi":55,"time":27.35937500000004,"velocity":0.8031496062992126,"duration":0.42447916666666785},{"name":"F5","midi":77,"time":27.35937500000004,"velocity":0.8031496062992126,"duration":0.2109375},{"name":"A5","midi":81,"time":27.572916666666707,"velocity":0.8031496062992126,"duration":0.2109375},{"name":"C3","midi":48,"time":27.786458333333375,"velocity":0.8031496062992126,"duration":0.42447916666666785},{"name":"G5","midi":79,"time":27.786458333333375,"velocity":0.8031496062992126,"duration":0.2109375},{"name":"F5","midi":77,"time":28.000000000000043,"velocity":0.8031496062992126,"duration":0.2109375},{"name":"C4","midi":60,"time":28.214843750000043,"velocity":0.8031496062992126,"duration":0.10416666666666785},{"name":"E5","midi":76,"time":28.214843750000043,"velocity":0.8031496062992126,"duration":0.21093750000000355},{"name":"B3","midi":59,"time":28.32161458333338,"velocity":0.8031496062992126,"duration":0.10416666666666785},{"name":"C4","midi":60,"time":28.428385416666714,"velocity":0.8031496062992126,"duration":0.42447916666666785},{"name":"F5","midi":77,"time":28.428385416666714,"velocity":0.8031496062992126,"duration":0.2109375},{"name":"G5","midi":79,"time":28.641927083333382,"velocity":0.8031496062992126,"duration":0.2109375},{"name":"C4","midi":60,"time":28.85546875000005,"velocity":0.8031496062992126,"duration":0.2109375},{"name":"E5","midi":76,"time":28.85546875000005,"velocity":0.8031496062992126,"duration":0.2109375},{"name":"C4","midi":60,"time":29.069010416666718,"velocity":0.8031496062992126,"duration":0.6380208333333357},{"name":"F5","midi":77,"time":29.069010416666718,"velocity":0.8031496062992126,"duration":0.2109375},{"name":"G5","midi":79,"time":29.282552083333385,"velocity":0.8031496062992126,"duration":0.2109375},{"name":"F5","midi":77,"time":29.497395833333385,"velocity":0.8031496062992126,"duration":0.2109375},{"name":"D4","midi":62,"time":29.710937500000053,"velocity":0.8031496062992126,"duration":0.2109375},{"name":"E5","midi":76,"time":29.710937500000053,"velocity":0.8031496062992126,"duration":0.2109375},{"name":"C4","midi":60,"time":29.92447916666672,"velocity":0.8031496062992126,"duration":0.1549479166666643},{"name":"D5","midi":74,"time":29.92447916666672,"velocity":0.8031496062992126,"duration":0.21093749999999645},{"name":"A#3","midi":58,"time":30.058593750000053,"velocity":0.8031496062992126,"duration":0.13020833333333215},{"name":"G5","midi":79,"time":30.138020833333385,"velocity":0.8031496062992126,"duration":0.2109375},{"name":"C4","midi":60,"time":30.169270833333385,"velocity":0.8031496062992126,"duration":0.10807291666666785},{"name":"A#3","midi":58,"time":30.257812500000053,"velocity":0.8031496062992126,"duration":0.08854166666666785},{"name":"C4","midi":60,"time":30.347656250000053,"velocity":0.8031496062992126,"duration":0.10807291666666785},{"name":"F5","midi":77,"time":30.351562500000053,"velocity":0.8031496062992126,"duration":0.21093750000000355},{"name":"A#3","midi":58,"time":30.43619791666672,"velocity":0.8031496062992126,"duration":0.10807291666666785},{"name":"G5","midi":79,"time":30.565104166666725,"velocity":0.8031496062992126,"duration":0.2109375},{"name":"A#3","midi":58,"time":30.565104166666725,"velocity":0.8031496062992126,"duration":0.2109375},{"name":"A#3","midi":58,"time":30.779947916666725,"velocity":0.8031496062992126,"duration":0.42447916666666785},{"name":"E5","midi":76,"time":30.779947916666725,"velocity":0.8031496062992126,"duration":0.2109375},{"name":"C5","midi":72,"time":30.993489583333393,"velocity":0.8031496062992126,"duration":0.2109375},{"name":"C4","midi":60,"time":31.20703125000006,"velocity":0.8031496062992126,"duration":0.2109375},{"name":"D5","midi":74,"time":31.20703125000006,"velocity":0.8031496062992126,"duration":0.2109375},{"name":"A#3","midi":58,"time":31.42057291666673,"velocity":0.8031496062992126,"duration":0.2109375},{"name":"E5","midi":76,"time":31.42057291666673,"velocity":0.8031496062992126,"duration":0.2109375},{"name":"A3","midi":57,"time":31.634114583333396,"velocity":0.8031496062992126,"duration":0.2109375},{"name":"F5","midi":77,"time":31.634114583333396,"velocity":0.8031496062992126,"duration":0.2109375},{"name":"G3","midi":55,"time":31.847656250000064,"velocity":0.8031496062992126,"duration":0.2109375},{"name":"G5","midi":79,"time":31.847656250000064,"velocity":0.8031496062992126,"duration":0.2109375},{"name":"F3","midi":53,"time":32.062500000000064,"velocity":0.8031496062992126,"duration":0.2109375},{"name":"A5","midi":81,"time":32.062500000000064,"velocity":0.8031496062992126,"duration":0.2109375},{"name":"E3","midi":52,"time":32.27604166666673,"velocity":0.8031496062992126,"duration":0.2109375},{"name":"F5","midi":77,"time":32.27604166666673,"velocity":0.8031496062992126,"duration":0.2109375},{"name":"D3","midi":50,"time":32.48958333333339,"velocity":0.8031496062992126,"duration":0.2109375},{"name":"A#5","midi":82,"time":32.48958333333339,"velocity":0.8031496062992126,"duration":0.2109375},{"name":"C3","midi":48,"time":32.70312500000006,"velocity":0.8031496062992126,"duration":0.2109375},{"name":"C6","midi":84,"time":32.70312500000006,"velocity":0.8031496062992126,"duration":0.2109375},{"name":"D3","midi":50,"time":32.91666666666672,"velocity":0.8031496062992126,"duration":0.2109375},{"name":"A#5","midi":82,"time":32.91666666666672,"velocity":0.8031496062992126,"duration":0.2109375},{"name":"A#2","midi":46,"time":33.130208333333385,"velocity":0.8031496062992126,"duration":0.2109375},{"name":"A5","midi":81,"time":33.130208333333385,"velocity":0.8031496062992126,"duration":0.2109375},{"name":"C3","midi":48,"time":33.34375000000005,"velocity":0.8031496062992126,"duration":0.4244791666666643},{"name":"G5","midi":79,"time":33.34375000000005,"velocity":0.8031496062992126,"duration":0.2109375},{"name":"C6","midi":84,"time":33.55859375000005,"velocity":0.8031496062992126,"duration":0.2109375},{"name":"C2","midi":36,"time":33.772135416666714,"velocity":0.8031496062992126,"duration":0.4244791666666643},{"name":"A#5","midi":82,"time":33.772135416666714,"velocity":0.8031496062992126,"duration":0.2109375},{"name":"C6","midi":84,"time":33.98567708333338,"velocity":0.8031496062992126,"duration":0.2109375},{"name":"F2","midi":41,"time":34.19921875000004,"velocity":0.8031496062992126,"duration":1.0677083333333286},{"name":"A5","midi":81,"time":34.19921875000004,"velocity":0.8031496062992126,"duration":0.2109375},{"name":"A#5","midi":82,"time":34.41276041666671,"velocity":0.8031496062992126,"duration":0.2109375},{"name":"A5","midi":81,"time":34.62630208333337,"velocity":0.8031496062992126,"duration":0.2109375},{"name":"G5","midi":79,"time":34.84114583333337,"velocity":0.8031496062992126,"duration":0.2109375},{"name":"F5","midi":77,"time":35.054687500000036,"velocity":0.8031496062992126,"duration":0.2109375},{"name":"E5","midi":76,"time":35.26822916666671,"velocity":0.8031496062992126,"duration":0.2109375},{"name":"F3","midi":53,"time":35.48177083333337,"velocity":0.8031496062992126,"duration":0.4244791666666643},{"name":"D5","midi":74,"time":35.48177083333337,"velocity":0.8031496062992126,"duration":0.2109375},{"name":"C5","midi":72,"time":35.695312500000036,"velocity":0.8031496062992126,"duration":0.2109375},{"name":"G3","midi":55,"time":35.9088541666667,"velocity":0.8031496062992126,"duration":0.2109375},{"name":"B4","midi":71,"time":35.9088541666667,"velocity":0.8031496062992126,"duration":0.2109375},{"name":"C4","midi":60,"time":36.1236979166667,"velocity":0.8031496062992126,"duration":0.2109375},{"name":"G4","midi":67,"time":36.1236979166667,"velocity":0.8031496062992126,"duration":0.2109375},{"name":"B3","midi":59,"time":36.337239583333364,"velocity":0.8031496062992126,"duration":0.2109375},{"name":"A4","midi":69,"time":36.337239583333364,"velocity":0.8031496062992126,"duration":0.2109375},{"name":"A3","midi":57,"time":36.55078125000003,"velocity":0.8031496062992126,"duration":0.2109375},{"name":"B4","midi":71,"time":36.55078125000003,"velocity":0.8031496062992126,"duration":0.2109375},{"name":"G3","midi":55,"time":36.76432291666669,"velocity":0.8031496062992126,"duration":0.2109375},{"name":"C5","midi":72,"time":36.76432291666669,"velocity":0.8031496062992126,"duration":0.2109375},{"name":"F3","midi":53,"time":36.97786458333336,"velocity":0.8031496062992126,"duration":0.2109375},{"name":"D5","midi":74,"time":36.97786458333336,"velocity":0.8031496062992126,"duration":0.2109375},{"name":"E3","midi":52,"time":37.19140625000002,"velocity":0.8031496062992126,"duration":0.2109375},{"name":"E5","midi":76,"time":37.19140625000002,"velocity":0.8031496062992126,"duration":0.2109375},{"name":"D3","midi":50,"time":37.40625000000002,"velocity":0.8031496062992126,"duration":0.2109375},{"name":"F5","midi":77,"time":37.40625000000002,"velocity":0.8031496062992126,"duration":0.2109375},{"name":"C3","midi":48,"time":37.619791666666686,"velocity":0.8031496062992126,"duration":0.4244791666666643},{"name":"G5","midi":79,"time":37.619791666666686,"velocity":0.8031496062992126,"duration":0.3177083333333357},{"name":"A5","midi":81,"time":37.940104166666686,"velocity":0.8031496062992126,"duration":0.1041666666666643},{"name":"F3","midi":53,"time":38.046875000000014,"velocity":0.8031496062992126,"duration":0.4244791666666501},{"name":"G5","midi":79,"time":38.046875000000014,"velocity":0.8031496062992126,"duration":0.1041666666666643},{"name":"F5","midi":77,"time":38.15364583333334,"velocity":0.8031496062992126,"duration":0.1041666666666643},{"name":"G5","midi":79,"time":38.26041666666667,"velocity":0.8031496062992126,"duration":0.1041666666666643},{"name":"A5","midi":81,"time":38.3671875,"velocity":0.8031496062992126,"duration":0.1041666666666643},{"name":"G3","midi":55,"time":38.47395833333333,"velocity":0.8031496062992126,"duration":0.4244791666666643},{"name":"E5","midi":76,"time":38.47395833333333,"velocity":0.8031496062992126,"duration":0.1393229166666643},{"name":"D5","midi":74,"time":38.61718749999999,"velocity":0.8031496062992126,"duration":0.1041666666666643},{"name":"E5","midi":76,"time":38.68749999999999,"velocity":0.8031496062992126,"duration":0.1041666666666643},{"name":"D5","midi":74,"time":38.75911458333332,"velocity":0.8031496062992126,"duration":0.1041666666666714},{"name":"E5","midi":76,"time":38.83072916666666,"velocity":0.8031496062992126,"duration":0.1041666666666714},{"name":"G2","midi":43,"time":38.90234374999999,"velocity":0.8031496062992126,"duration":0.4244791666666643},{"name":"D5","midi":74,"time":38.90234374999999,"velocity":0.8031496062992126,"duration":0.2109375},{"name":"C5","midi":72,"time":39.11588541666666,"velocity":0.8031496062992126,"duration":0.2109375},{"name":"C2","midi":36,"time":39.32942708333332,"velocity":0.8031496062992126,"duration":0.8515624999999929},{"name":"C5","midi":72,"time":39.32942708333332,"velocity":0.8031496062992126,"duration":0.2109375},{"name":"G4","midi":67,"time":39.542968749999986,"velocity":0.8031496062992126,"duration":0.2109375},{"name":"A4","midi":69,"time":39.75651041666665,"velocity":0.8031496062992126,"duration":0.2109375},{"name":"B4","midi":71,"time":39.970052083333314,"velocity":0.8031496062992126,"duration":0.2109375},{"name":"C4","midi":60,"time":40.184895833333314,"velocity":0.8031496062992126,"duration":0.1041666666666643},{"name":"C5","midi":72,"time":40.184895833333314,"velocity":0.8031496062992126,"duration":0.2109374999999929},{"name":"B3","midi":59,"time":40.29166666666664,"velocity":0.8031496062992126,"duration":0.1041666666666643},{"name":"C4","midi":60,"time":40.39843749999997,"velocity":0.8031496062992126,"duration":0.4244791666666643},{"name":"D5","midi":74,"time":40.39843749999997,"velocity":0.8031496062992126,"duration":0.2109375},{"name":"E5","midi":76,"time":40.611979166666636,"velocity":0.8031496062992126,"duration":0.2109375},{"name":"C4","midi":60,"time":40.8255208333333,"velocity":0.8031496062992126,"duration":0.2109375},{"name":"C5","midi":72,"time":40.8255208333333,"velocity":0.8031496062992126,"duration":0.2109375},{"name":"C4","midi":60,"time":41.039062499999964,"velocity":0.8031496062992126,"duration":0.6380208333333286},{"name":"F5","midi":77,"time":41.039062499999964,"velocity":0.8031496062992126,"duration":0.2109375},{"name":"G5","midi":79,"time":41.25260416666663,"velocity":0.8031496062992126,"duration":0.2109375},{"name":"F5","midi":77,"time":41.46744791666663,"velocity":0.8031496062992126,"duration":0.2109375},{"name":"D4","midi":62,"time":41.68098958333329,"velocity":0.8031496062992126,"duration":0.2109375},{"name":"E5","midi":76,"time":41.68098958333329,"velocity":0.8031496062992126,"duration":0.2109375},{"name":"C4","midi":60,"time":41.89453124999996,"velocity":0.8031496062992126,"duration":0.1041666666666643},{"name":"D5","midi":74,"time":41.89453124999996,"velocity":0.8031496062992126,"duration":0.2109374999999929},{"name":"A#3","midi":58,"time":42.001302083333286,"velocity":0.8031496062992126,"duration":0.1041666666666643},{"name":"C4","midi":60,"time":42.108072916666615,"velocity":0.8031496062992126,"duration":0.1041666666666643},{"name":"G5","midi":79,"time":42.108072916666615,"velocity":0.8031496062992126,"duration":0.2109374999999929},{"name":"A#3","midi":58,"time":42.21484374999994,"velocity":0.8031496062992126,"duration":0.1041666666666643},{"name":"C4","midi":60,"time":42.32161458333327,"velocity":0.8031496062992126,"duration":0.1041666666666643},{"name":"F5","midi":77,"time":42.32161458333327,"velocity":0.8031496062992126,"duration":0.2109374999999929},{"name":"A#3","midi":58,"time":42.4283854166666,"velocity":0.8031496062992126,"duration":0.1041666666666643},{"name":"A#3","midi":58,"time":42.53515624999993,"velocity":0.8031496062992126,"duration":0.2109375},{"name":"G5","midi":79,"time":42.53515624999993,"velocity":0.8031496062992126,"duration":0.2109375},{"name":"A#3","midi":58,"time":42.74999999999993,"velocity":0.8031496062992126,"duration":0.2109375},{"name":"E5","midi":76,"time":42.74999999999993,"velocity":0.8031496062992126,"duration":0.3515625},{"name":"C3","midi":48,"time":42.96354166666659,"velocity":0.8031496062992126,"duration":0.2109375},{"name":"D3","midi":50,"time":43.17708333333326,"velocity":0.8031496062992126,"duration":0.2109375},{"name":"C5","midi":72,"time":43.17708333333326,"velocity":0.8031496062992126,"duration":0.3515625},{"name":"E3","midi":52,"time":43.39062499999992,"velocity":0.8031496062992126,"duration":0.2109375},{"name":"F3","midi":53,"time":43.604166666666586,"velocity":0.8031496062992126,"duration":0.2109374999999929},{"name":"F5","midi":77,"time":43.604166666666586,"velocity":0.8031496062992126,"duration":0.1041666666666643},{"name":"E5","midi":76,"time":43.710937499999915,"velocity":0.8031496062992126,"duration":0.1041666666666643},{"name":"G3","midi":55,"time":43.81770833333324,"velocity":0.8031496062992126,"duration":0.2109375},{"name":"F5","midi":77,"time":43.81770833333324,"velocity":0.8031496062992126,"duration":0.4244791666666643},{"name":"A3","midi":57,"time":44.03124999999991,"velocity":0.8031496062992126,"duration":0.2109375},{"name":"F3","midi":53,"time":44.24609374999991,"velocity":0.8031496062992126,"duration":0.2109375},{"name":"F5","midi":77,"time":44.24609374999991,"velocity":0.8031496062992126,"duration":0.2109375},{"name":"A#3","midi":58,"time":44.45963541666657,"velocity":0.8031496062992126,"duration":0.2109375},{"name":"F5","midi":77,"time":44.45963541666657,"velocity":0.8031496062992126,"duration":0.6380208333333286},{"name":"C4","midi":60,"time":44.673177083333236,"velocity":0.8031496062992126,"duration":0.2109375},{"name":"A#3","midi":58,"time":44.8867187499999,"velocity":0.8031496062992126,"duration":0.2109375},{"name":"A3","midi":57,"time":45.100260416666565,"velocity":0.8031496062992126,"duration":0.2109375},{"name":"G5","midi":79,"time":45.100260416666565,"velocity":0.8031496062992126,"duration":0.2109375},{"name":"G3","midi":55,"time":45.31380208333323,"velocity":0.8031496062992126,"duration":0.2109375},{"name":"D#5","midi":75,"time":45.31380208333323,"velocity":0.8031496062992126,"duration":0.1041666666666643},{"name":"D5","midi":74,"time":45.42187499999989,"velocity":0.8031496062992126,"duration":0.1041666666666714},{"name":"C4","midi":60,"time":45.52864583333323,"velocity":0.8031496062992126,"duration":0.2109375},{"name":"D#5","midi":75,"time":45.52864583333323,"velocity":0.8031496062992126,"duration":0.4244791666666643},{"name":"A#3","midi":58,"time":45.74218749999989,"velocity":0.8031496062992126,"duration":0.2109375},{"name":"C4","midi":60,"time":45.95572916666656,"velocity":0.8031496062992126,"duration":0.2109375},{"name":"D#5","midi":75,"time":45.95572916666656,"velocity":0.8031496062992126,"duration":0.2109375},{"name":"A3","midi":57,"time":46.16927083333322,"velocity":0.8031496062992126,"duration":0.4244791666666643},{"name":"D#5","midi":75,"time":46.16927083333322,"velocity":0.8031496062992126,"duration":0.2109375},{"name":"F4","midi":65,"time":46.382812499999886,"velocity":0.8031496062992126,"duration":0.2109375},{"name":"F3","midi":53,"time":46.59635416666655,"velocity":0.8031496062992126,"duration":0.4244791666666643},{"name":"G4","midi":67,"time":46.59635416666655,"velocity":0.8031496062992126,"duration":0.2109375},{"name":"A4","midi":69,"time":46.81119791666655,"velocity":0.8031496062992126,"duration":0.2109375},{"name":"A#3","midi":58,"time":47.024739583333215,"velocity":0.8031496062992126,"duration":0.1041666666666643},{"name":"A#4","midi":70,"time":47.024739583333215,"velocity":0.8031496062992126,"duration":0.2109374999999929},{"name":"A3","midi":57,"time":47.13151041666654,"velocity":0.8031496062992126,"duration":0.1041666666666643},{"name":"A#3","midi":58,"time":47.23828124999987,"velocity":0.8031496062992126,"duration":0.4244791666666643},{"name":"C5","midi":72,"time":47.23828124999987,"velocity":0.8031496062992126,"duration":0.2109375},{"name":"D5","midi":74,"time":47.451822916666536,"velocity":0.8031496062992126,"duration":0.2109375},{"name":"A#3","midi":58,"time":47.6653645833332,"velocity":0.8031496062992126,"duration":0.2109375},{"name":"A#4","midi":70,"time":47.6653645833332,"velocity":0.8031496062992126,"duration":0.2109375},{"name":"A#3","midi":58,"time":47.878906249999865,"velocity":0.8031496062992126,"duration":0.6380208333333286},{"name":"D#5","midi":75,"time":47.878906249999865,"velocity":0.8031496062992126,"duration":0.2109375},{"name":"F5","midi":77,"time":48.093749999999865,"velocity":0.8031496062992126,"duration":0.2109375},{"name":"D#5","midi":75,"time":48.30729166666653,"velocity":0.8031496062992126,"duration":0.2109375},{"name":"C4","midi":60,"time":48.520833333333194,"velocity":0.8031496062992126,"duration":0.2109375},{"name":"D5","midi":74,"time":48.520833333333194,"velocity":0.8031496062992126,"duration":0.2109375},{"name":"A#3","midi":58,"time":48.73437499999986,"velocity":0.8031496062992126,"duration":0.1041666666666643},{"name":"C5","midi":72,"time":48.73437499999986,"velocity":0.8031496062992126,"duration":0.2109374999999929},{"name":"A3","midi":57,"time":48.84114583333319,"velocity":0.8031496062992126,"duration":0.1041666666666643},{"name":"A#3","midi":58,"time":48.947916666666515,"velocity":0.8031496062992126,"duration":0.1041666666666643},{"name":"F5","midi":77,"time":48.947916666666515,"velocity":0.8031496062992126,"duration":0.2109374999999929},{"name":"A3","midi":57,"time":49.054687499999844,"velocity":0.8031496062992126,"duration":0.1041666666666643},{"name":"A#3","midi":58,"time":49.16145833333317,"velocity":0.8031496062992126,"duration":0.1041666666666643},{"name":"D#5","midi":75,"time":49.16145833333317,"velocity":0.8031496062992126,"duration":0.2109374999999929},{"name":"A3","midi":57,"time":49.2682291666665,"velocity":0.8031496062992126,"duration":0.1041666666666643},{"name":"G3","midi":55,"time":49.37499999999983,"velocity":0.8031496062992126,"duration":0.1041666666666643},{"name":"F5","midi":77,"time":49.37499999999983,"velocity":0.8031496062992126,"duration":0.2109375},{"name":"A3","midi":57,"time":49.483072916666494,"velocity":0.8031496062992126,"duration":0.1041666666666714},{"name":"A#3","midi":58,"time":49.58984374999983,"velocity":0.8031496062992126,"duration":0.2109375},{"name":"D5","midi":74,"time":49.58984374999983,"velocity":0.8031496062992126,"duration":0.6510416666666572},{"name":"D3","midi":50,"time":49.803385416666494,"velocity":0.8031496062992126,"duration":0.2109375},{"name":"E3","midi":52,"time":50.01692708333316,"velocity":0.8031496062992126,"duration":0.2109375},{"name":"A#4","midi":70,"time":50.01692708333316,"velocity":0.8031496062992126,"duration":0.3255208333333286},{"name":"F3","midi":53,"time":50.23046874999982,"velocity":0.8031496062992126,"duration":0.2109375},{"name":"G3","midi":55,"time":50.44401041666649,"velocity":0.8031496062992126,"duration":0.2109374999999929},{"name":"D5","midi":74,"time":50.44401041666649,"velocity":0.8031496062992126,"duration":0.6380208333333215},{"name":"G5","midi":79,"time":50.44661458333315,"velocity":0.8031496062992126,"duration":0.6354166666666572},{"name":"A#5","midi":82,"time":50.449218749999815,"velocity":0.8031496062992126,"duration":0.6328124999999929},{"name":"A3","midi":57,"time":50.657552083333144,"velocity":0.8031496062992126,"duration":0.2109375},{"name":"A#3","midi":58,"time":50.872395833333144,"velocity":0.8031496062992126,"duration":0.2109375},{"name":"G3","midi":55,"time":51.08593749999981,"velocity":0.8031496062992126,"duration":0.203125},{"name":"A#5","midi":82,"time":51.08593749999981,"velocity":0.8031496062992126,"duration":0.203125},{"name":"G5","midi":79,"time":51.08593749999981,"velocity":0.8031496062992126,"duration":0.203125},{"name":"D5","midi":74,"time":51.08593749999981,"velocity":0.8031496062992126,"duration":0.203125},{"name":"C4","midi":60,"time":51.29947916666647,"velocity":0.8031496062992126,"duration":0.2109375},{"name":"E5","midi":76,"time":51.29947916666647,"velocity":0.8031496062992126,"duration":0.6380208333333286},{"name":"G5","midi":79,"time":51.30208333333314,"velocity":0.8031496062992126,"duration":0.6380208333333286},{"name":"A#5","midi":82,"time":51.30338541666647,"velocity":0.8031496062992126,"duration":0.6380208333333286},{"name":"C3","midi":48,"time":51.51302083333314,"velocity":0.8031496062992126,"duration":0.2109375},{"name":"D3","midi":50,"time":51.7265624999998,"velocity":0.8031496062992126,"duration":0.2109375},{"name":"E3","midi":52,"time":51.940104166666465,"velocity":0.8031496062992126,"duration":0.2109375},{"name":"E5","midi":76,"time":51.940104166666465,"velocity":0.8031496062992126,"duration":0.2109375},{"name":"C6","midi":84,"time":51.940104166666465,"velocity":0.8031496062992126,"duration":0.2109375},{"name":"G5","midi":79,"time":51.940104166666465,"velocity":0.8031496062992126,"duration":0.2109375},{"name":"F3","midi":53,"time":52.154947916666465,"velocity":0.8031496062992126,"duration":0.2109375},{"name":"E5","midi":76,"time":52.154947916666465,"velocity":0.8031496062992126,"duration":0.6380208333333286},{"name":"F5","midi":77,"time":52.1562499999998,"velocity":0.8031496062992126,"duration":0.6380208333333286},{"name":"A5","midi":81,"time":52.158854166666465,"velocity":0.8031496062992126,"duration":0.6067708333333286},{"name":"G3","midi":55,"time":52.36848958333313,"velocity":0.8031496062992126,"duration":0.2109375},{"name":"A3","midi":57,"time":52.582031249999794,"velocity":0.8031496062992126,"duration":0.2109375},{"name":"F3","midi":53,"time":52.795572916666465,"velocity":0.8031496062992126,"duration":0.2109375},{"name":"F5","midi":77,"time":52.795572916666465,"velocity":0.8031496062992126,"duration":0.2109375},{"name":"E5","midi":76,"time":52.795572916666465,"velocity":0.8031496062992126,"duration":0.2109375},{"name":"A5","midi":81,"time":52.795572916666465,"velocity":0.8031496062992126,"duration":0.2109375},{"name":"A#3","midi":58,"time":53.00911458333313,"velocity":0.8031496062992126,"duration":0.2109375},{"name":"D5","midi":74,"time":53.00911458333313,"velocity":0.8031496062992126,"duration":0.4244791666666643},{"name":"A5","midi":81,"time":53.00911458333313,"velocity":0.8031496062992126,"duration":0.4244791666666643},{"name":"F5","midi":77,"time":53.00911458333313,"velocity":0.8031496062992126,"duration":0.8450520833333286},{"name":"A3","midi":57,"time":53.222656249999794,"velocity":0.8031496062992126,"duration":0.2109375},{"name":"G3","midi":55,"time":53.437499999999794,"velocity":0.8031496062992126,"duration":0.2109375},{"name":"D5","midi":74,"time":53.437499999999794,"velocity":0.8031496062992126,"duration":0.4244791666666643},{"name":"F3","midi":53,"time":53.65104166666646,"velocity":0.8031496062992126,"duration":0.2109375},{"name":"E3","midi":52,"time":53.86458333333312,"velocity":0.8031496062992126,"duration":0.2109375},{"name":"D5","midi":74,"time":53.86458333333312,"velocity":0.8031496062992126,"duration":0.6380208333333286},{"name":"G5","midi":79,"time":53.86458333333312,"velocity":0.8031496062992126,"duration":0.6380208333333286},{"name":"D3","midi":50,"time":54.07812499999979,"velocity":0.8031496062992126,"duration":0.2109375},{"name":"C3","midi":48,"time":54.29166666666645,"velocity":0.8031496062992126,"duration":0.2109375},{"name":"A#2","midi":46,"time":54.505208333333115,"velocity":0.8031496062992126,"duration":0.2109375},{"name":"D5","midi":74,"time":54.505208333333115,"velocity":0.8031496062992126,"duration":0.2109375},{"name":"G5","midi":79,"time":54.505208333333115,"velocity":0.8031496062992126,"duration":0.2109375},{"name":"A2","midi":45,"time":54.71874999999978,"velocity":0.8031496062992126,"duration":0.2109375},{"name":"G5","midi":79,"time":54.71874999999978,"velocity":0.8031496062992126,"duration":0.6380208333333286},{"name":"C5","midi":72,"time":54.71874999999978,"velocity":0.8031496062992126,"duration":0.6380208333333286},{"name":"A#2","midi":46,"time":54.93359374999978,"velocity":0.8031496062992126,"duration":0.2109375},{"name":"C3","midi":48,"time":55.147135416666444,"velocity":0.8031496062992126,"duration":0.2109375},{"name":"E3","midi":52,"time":55.36067708333311,"velocity":0.8031496062992126,"duration":0.2109375},{"name":"A5","midi":81,"time":55.36067708333311,"velocity":0.8031496062992126,"duration":0.2109375},{"name":"C5","midi":72,"time":55.36067708333311,"velocity":0.8031496062992126,"duration":0.2109375},{"name":"D3","midi":50,"time":55.57421874999977,"velocity":0.8031496062992126,"duration":0.2109375},{"name":"F5","midi":77,"time":55.57421874999977,"velocity":0.8031496062992126,"duration":0.6380208333333286},{"name":"C5","midi":72,"time":55.57421874999977,"velocity":0.8031496062992126,"duration":0.6380208333333286},{"name":"E3","midi":52,"time":55.78776041666644,"velocity":0.8031496062992126,"duration":0.2109375},{"name":"F3","midi":53,"time":56.0013020833331,"velocity":0.8031496062992126,"duration":0.2109375},{"name":"A3","midi":57,"time":56.2161458333331,"velocity":0.8031496062992126,"duration":0.2109375},{"name":"C5","midi":72,"time":56.2161458333331,"velocity":0.8031496062992126,"duration":0.2109375},{"name":"F5","midi":77,"time":56.2161458333331,"velocity":0.8031496062992126,"duration":0.2109375},{"name":"G3","midi":55,"time":56.429687499999766,"velocity":0.8031496062992126,"duration":0.2109375},{"name":"A#4","midi":70,"time":56.429687499999766,"velocity":0.8031496062992126,"duration":0.6380208333333286},{"name":"F5","midi":77,"time":56.429687499999766,"velocity":0.8031496062992126,"duration":0.6380208333333286},{"name":"G2","midi":43,"time":56.64322916666643,"velocity":0.8031496062992126,"duration":0.2109375},{"name":"A2","midi":45,"time":56.856770833333094,"velocity":0.8031496062992126,"duration":0.2109375},{"name":"A#2","midi":46,"time":57.07031249999976,"velocity":0.8031496062992126,"duration":0.2109375},{"name":"A#4","midi":70,"time":57.07031249999976,"velocity":0.8031496062992126,"duration":0.2109375},{"name":"G5","midi":79,"time":57.07031249999976,"velocity":0.8031496062992126,"duration":0.2109375},{"name":"C3","midi":48,"time":57.28385416666642,"velocity":0.8031496062992126,"duration":0.2109375000000071},{"name":"F5","midi":77,"time":57.28385416666642,"velocity":0.8031496062992126,"duration":0.1419270833333357},{"name":"A#4","midi":70,"time":57.28385416666642,"velocity":0.8031496062992126,"duration":0.6380208333333286},{"name":"E5","midi":76,"time":57.427083333333094,"velocity":0.8031496062992126,"duration":0.0859375},{"name":"A2","midi":45,"time":57.49869791666643,"velocity":0.8031496062992126,"duration":0.2109374999999929},{"name":"F5","midi":77,"time":57.51562499999976,"velocity":0.8031496062992126,"duration":0.0859375},{"name":"E5","midi":76,"time":57.60546874999976,"velocity":0.8031496062992126,"duration":0.0859375},{"name":"F5","midi":77,"time":57.69401041666642,"velocity":0.8031496062992126,"duration":0.0859375},{"name":"A#2","midi":46,"time":57.71223958333309,"velocity":0.8031496062992126,"duration":0.2109375},{"name":"E5","midi":76,"time":57.78255208333309,"velocity":0.8031496062992126,"duration":0.1601562499999929},{"name":"C3","midi":48,"time":57.92578124999975,"velocity":0.8031496062992126,"duration":0.2109374999999929},{"name":"A#4","midi":70,"time":57.92578124999975,"velocity":0.8031496062992126,"duration":0.2109374999999929},{"name":"F5","midi":77,"time":57.928385416666416,"velocity":0.8031496062992126,"duration":0.2083333333333286},{"name":"D2","midi":38,"time":58.13932291666641,"velocity":0.8031496062992126,"duration":1.0677083333333286},{"name":"F5","midi":77,"time":58.13932291666641,"velocity":0.8031496062992126,"duration":0.4244791666666643},{"name":"A4","midi":69,"time":58.13932291666641,"velocity":0.8031496062992126,"duration":0.4244791666666643},{"name":"D4","midi":62,"time":58.56640624999974,"velocity":0.8031496062992126,"duration":0.2109375},{"name":"E4","midi":64,"time":58.78124999999974,"velocity":0.8031496062992126,"duration":0.2109375},{"name":"F4","midi":65,"time":58.9947916666664,"velocity":0.8031496062992126,"duration":0.2109375},{"name":"G4","midi":67,"time":59.20833333333307,"velocity":0.8031496062992126,"duration":0.2109375},{"name":"D3","midi":50,"time":59.42187499999974,"velocity":0.8031496062992126,"duration":0.4244791666666643},{"name":"A4","midi":69,"time":59.42187499999974,"velocity":0.8031496062992126,"duration":0.2109375},{"name":"F4","midi":65,"time":59.6354166666664,"velocity":0.8031496062992126,"duration":0.2109375},{"name":"G3","midi":55,"time":59.848958333333066,"velocity":0.8031496062992126,"duration":0.2109375},{"name":"A#4","midi":70,"time":59.848958333333066,"velocity":0.8031496062992126,"duration":0.2109375},{"name":"A3","midi":57,"time":60.06249999999973,"velocity":0.8031496062992126,"duration":0.2109375},{"name":"C5","midi":72,"time":60.06249999999973,"velocity":0.8031496062992126,"duration":0.2109375},{"name":"G3","midi":55,"time":60.27734374999973,"velocity":0.8031496062992126,"duration":0.2109375},{"name":"A#4","midi":70,"time":60.27734374999973,"velocity":0.8031496062992126,"duration":0.2109375},{"name":"F3","midi":53,"time":60.490885416666394,"velocity":0.8031496062992126,"duration":0.2109375},{"name":"A4","midi":69,"time":60.490885416666394,"velocity":0.8031496062992126,"duration":0.2109375},{"name":"E3","midi":52,"time":60.70442708333306,"velocity":0.8031496062992126,"duration":0.2109375},{"name":"G4","midi":67,"time":60.70442708333306,"velocity":0.8031496062992126,"duration":0.2109375},{"name":"C3","midi":48,"time":60.91796874999972,"velocity":0.8031496062992126,"duration":0.2109375},{"name":"C5","midi":72,"time":60.91796874999972,"velocity":0.8031496062992126,"duration":0.2109375},{"name":"D3","midi":50,"time":61.13151041666639,"velocity":0.8031496062992126,"duration":0.2109375},{"name":"A#4","midi":70,"time":61.13151041666639,"velocity":0.8031496062992126,"duration":0.2109375},{"name":"E3","midi":52,"time":61.34505208333305,"velocity":0.8031496062992126,"duration":0.2109375},{"name":"C5","midi":72,"time":61.34505208333305,"velocity":0.8031496062992126,"duration":0.2109375},{"name":"F3","midi":53,"time":61.55989583333305,"velocity":0.8031496062992126,"duration":0.2109375},{"name":"A4","midi":69,"time":61.55989583333305,"velocity":0.8031496062992126,"duration":0.3515625},{"name":"G3","midi":55,"time":61.773437499999716,"velocity":0.8031496062992126,"duration":0.2109375},{"name":"F3","midi":53,"time":61.98697916666638,"velocity":0.8031496062992126,"duration":0.2109375},{"name":"C4","midi":60,"time":61.98697916666638,"velocity":0.8031496062992126,"duration":0.3515625},{"name":"E3","midi":52,"time":62.200520833333044,"velocity":0.8031496062992126,"duration":0.2109375},{"name":"D3","midi":50,"time":62.41406249999971,"velocity":0.8031496062992126,"duration":0.2109375},{"name":"F4","midi":65,"time":62.41406249999971,"velocity":0.8031496062992126,"duration":0.1145833333333357},{"name":"E4","midi":64,"time":62.520833333333044,"velocity":0.8031496062992126,"duration":0.1145833333333286},{"name":"C3","midi":48,"time":62.62760416666637,"velocity":0.8031496062992126,"duration":0.2109375},{"name":"F4","midi":65,"time":62.62760416666637,"velocity":0.8031496062992126,"duration":0.4244791666666643},{"name":"A#2","midi":46,"time":62.84244791666637,"velocity":0.8031496062992126,"duration":0.2109375},{"name":"A2","midi":45,"time":63.05598958333304,"velocity":0.8031496062992126,"duration":0.2109375},{"name":"A3","midi":57,"time":63.05598958333304,"velocity":0.8031496062992126,"duration":0.2109375},{"name":"F4","midi":65,"time":63.05598958333304,"velocity":0.8031496062992126,"duration":0.2109375},{"name":"C4","midi":60,"time":63.05598958333304,"velocity":0.8031496062992126,"duration":0.2109375},{"name":"A#2","midi":46,"time":63.2695312499997,"velocity":0.8031496062992126,"duration":0.4244791666666643},{"name":"G3","midi":55,"time":63.2695312499997,"velocity":0.8031496062992126,"duration":0.6223958333333286},{"name":"F4","midi":65,"time":63.2695312499997,"velocity":0.8031496062992126,"duration":0.8450520833333286},{"name":"D4","midi":62,"time":63.2695312499997,"velocity":0.8031496062992126,"duration":0.2109375},{"name":"C4","midi":60,"time":63.483072916666366,"velocity":0.8031496062992126,"duration":0.2109375},{"name":"G2","midi":43,"time":63.69661458333303,"velocity":0.8031496062992126,"duration":0.4244791666666714},{"name":"A#3","midi":58,"time":63.69661458333303,"velocity":0.8031496062992126,"duration":0.2109375},{"name":"A3","midi":57,"time":63.910156249999694,"velocity":0.8031496062992126,"duration":0.2109375000000071},{"name":"C3","midi":48,"time":64.1249999999997,"velocity":0.8031496062992126,"duration":0.4244791666666714},{"name":"E4","midi":64,"time":64.1249999999997,"velocity":0.8031496062992126,"duration":0.6223958333333428},{"name":"G3","midi":55,"time":64.1249999999997,"velocity":0.8031496062992126,"duration":0.421875},{"name":"C4","midi":60,"time":64.33854166666637,"velocity":0.8031496062992126,"duration":0.2109375},{"name":"C2","midi":36,"time":64.55208333333304,"velocity":0.8031496062992126,"duration":0.4244791666666714},{"name":"A#3","midi":58,"time":64.55208333333304,"velocity":0.8031496062992126,"duration":0.2109375},{"name":"C4","midi":60,"time":64.76562499999972,"velocity":0.8031496062992126,"duration":0.2109375},{"name":"E4","midi":64,"time":64.76562499999972,"velocity":0.8031496062992126,"duration":0.2109375},{"name":"F2","midi":41,"time":64.97916666666639,"velocity":0.8031496062992126,"duration":0.4244791666666714},{"name":"F4","midi":65,"time":64.97916666666639,"velocity":0.8031496062992126,"duration":1.2799479166666856},{"name":"A3","midi":57,"time":64.97916666666639,"velocity":0.8031496062992126,"duration":0.8450520833333428},{"name":"F3","midi":53,"time":65.40624999999973,"velocity":0.8031496062992126,"duration":0.2109375},{"name":"E3","midi":52,"time":65.62109374999973,"velocity":0.8031496062992126,"duration":0.2109375},{"name":"F3","midi":53,"time":65.8346354166664,"velocity":0.8031496062992126,"duration":0.4244791666666714},{"name":"F5","midi":77,"time":66.04817708333307,"velocity":0.8031496062992126,"duration":0.2109375},{"name":"G3","midi":55,"time":66.26171874999974,"velocity":0.8031496062992126,"duration":0.4244791666666714},{"name":"E5","midi":76,"time":66.26171874999974,"velocity":0.8031496062992126,"duration":0.2447916666666714},{"name":"F5","midi":77,"time":66.47526041666642,"velocity":0.8031496062992126,"duration":0.2109375},{"name":"A3","midi":57,"time":66.68880208333309,"velocity":0.8031496062992126,"duration":0.4244791666666572},{"name":"C5","midi":72,"time":66.68880208333309,"velocity":0.8031496062992126,"duration":0.2669270833333286},{"name":"F5","midi":77,"time":66.90364583333309,"velocity":0.8031496062992126,"duration":0.2109374999999858},{"name":"A#3","midi":58,"time":67.11718749999974,"velocity":0.8031496062992126,"duration":0.4244791666666714},{"name":"D5","midi":74,"time":67.11718749999974,"velocity":0.8031496062992126,"duration":0.2669270833333428},{"name":"F5","midi":77,"time":67.33072916666642,"velocity":0.8031496062992126,"duration":0.2109375},{"name":"A3","midi":57,"time":67.54427083333309,"velocity":0.8031496062992126,"duration":0.4244791666666714},{"name":"C5","midi":72,"time":67.54427083333309,"velocity":0.8031496062992126,"duration":0.2669270833333428},{"name":"F5","midi":77,"time":67.75781249999976,"velocity":0.8031496062992126,"duration":0.2109375},{"name":"G3","midi":55,"time":67.97135416666643,"velocity":0.8031496062992126,"duration":0.4244791666666572},{"name":"A#4","midi":70,"time":67.97135416666643,"velocity":0.8031496062992126,"duration":0.2669270833333286},{"name":"F5","midi":77,"time":68.18619791666643,"velocity":0.8031496062992126,"duration":0.2109374999999858},{"name":"F3","midi":53,"time":68.39973958333309,"velocity":0.8031496062992126,"duration":2.1367187500000426},{"name":"A4","midi":69,"time":68.39973958333309,"velocity":0.8031496062992126,"duration":0.2669270833333428},{"name":"F5","midi":77,"time":68.61328124999976,"velocity":0.8031496062992126,"duration":0.2109375},{"name":"D4","midi":62,"time":68.82682291666643,"velocity":0.8031496062992126,"duration":0.4244791666666714},{"name":"A#4","midi":70,"time":68.82682291666643,"velocity":0.8031496062992126,"duration":0.2109375},{"name":"F5","midi":77,"time":69.0403645833331,"velocity":0.8031496062992126,"duration":0.2109375},{"name":"C4","midi":60,"time":69.25390624999977,"velocity":0.8031496062992126,"duration":0.4244791666666714},{"name":"A4","midi":69,"time":69.25390624999977,"velocity":0.8031496062992126,"duration":0.2109375},{"name":"F5","midi":77,"time":69.46874999999977,"velocity":0.8031496062992126,"duration":0.2109375},{"name":"A#3","midi":58,"time":69.68229166666644,"velocity":0.8031496062992126,"duration":0.4244791666666714},{"name":"G4","midi":67,"time":69.68229166666644,"velocity":0.8031496062992126,"duration":0.2109375},{"name":"F5","midi":77,"time":69.89583333333312,"velocity":0.8031496062992126,"duration":0.2109375},{"name":"A3","midi":57,"time":70.10937499999979,"velocity":0.8031496062992126,"duration":0.4244791666666714},{"name":"F4","midi":65,"time":70.10937499999979,"velocity":0.8031496062992126,"duration":0.2109375},{"name":"F5","midi":77,"time":70.32291666666646,"velocity":0.8031496062992126,"duration":0.2109375},{"name":"A#3","midi":58,"time":70.53645833333313,"velocity":0.8031496062992126,"duration":0.4244791666666714},{"name":"F3","midi":53,"time":70.53645833333313,"velocity":0.8031496062992126,"duration":0.4244791666666714},{"name":"G4","midi":67,"time":70.53645833333313,"velocity":0.8031496062992126,"duration":0.2109375},{"name":"F5","midi":77,"time":70.7499999999998,"velocity":0.8031496062992126,"duration":0.2109375},{"name":"E3","midi":52,"time":70.9648437499998,"velocity":0.8031496062992126,"duration":0.4244791666666714},{"name":"C4","midi":60,"time":70.9648437499998,"velocity":0.8031496062992126,"duration":0.4244791666666714},{"name":"A4","midi":69,"time":70.9648437499998,"velocity":0.8031496062992126,"duration":0.2109375},{"name":"F5","midi":77,"time":71.17838541666647,"velocity":0.8031496062992126,"duration":0.2109375},{"name":"D3","midi":50,"time":71.39192708333314,"velocity":0.8031496062992126,"duration":0.4244791666666714},{"name":"D4","midi":62,"time":71.39192708333314,"velocity":0.8031496062992126,"duration":0.4244791666666714},{"name":"B4","midi":71,"time":71.39192708333314,"velocity":0.8031496062992126,"duration":0.2109375},{"name":"F5","midi":77,"time":71.60546874999982,"velocity":0.8031496062992126,"duration":0.2109375},{"name":"C3","midi":48,"time":71.81901041666649,"velocity":0.8031496062992126,"duration":0.8450520833333428},{"name":"G3","midi":55,"time":71.81901041666649,"velocity":0.8031496062992126,"duration":1.0664062500000142},{"name":"C5","midi":72,"time":71.81901041666649,"velocity":0.8031496062992126,"duration":0.2109375},{"name":"E5","midi":76,"time":71.81901041666649,"velocity":0.8031496062992126,"duration":0.2109375},{"name":"G4","midi":67,"time":72.03255208333316,"velocity":0.8031496062992126,"duration":0.2109375},{"name":"A4","midi":69,"time":72.24739583333316,"velocity":0.8031496062992126,"duration":0.2109375},{"name":"B4","midi":71,"time":72.46093749999983,"velocity":0.8031496062992126,"duration":0.2109375},{"name":"C5","midi":72,"time":72.6744791666665,"velocity":0.8031496062992126,"duration":0.2109375},{"name":"C4","midi":60,"time":72.88802083333317,"velocity":0.8031496062992126,"duration":0.2109375},{"name":"D5","midi":74,"time":72.88802083333317,"velocity":0.8031496062992126,"duration":0.2109375},{"name":"B3","midi":59,"time":73.10156249999984,"velocity":0.8031496062992126,"duration":0.2109375000000142},{"name":"E5","midi":76,"time":73.10156249999984,"velocity":0.8031496062992126,"duration":0.1041666666666714},{"name":"D5","midi":74,"time":73.20833333333319,"velocity":0.8031496062992126,"duration":0.1041666666666714},{"name":"C4","midi":60,"time":73.31510416666653,"velocity":0.8031496062992126,"duration":0.2109375000000142},{"name":"C5","midi":72,"time":73.31510416666653,"velocity":0.8031496062992126,"duration":0.1041666666666714},{"name":"D5","midi":74,"time":73.42187499999987,"velocity":0.8031496062992126,"duration":0.1041666666666714},{"name":"G3","midi":55,"time":73.52994791666654,"velocity":0.8031496062992126,"duration":0.2109375},{"name":"E5","midi":76,"time":73.52994791666654,"velocity":0.8031496062992126,"duration":0.4244791666666714},{"name":"C4","midi":60,"time":73.74348958333321,"velocity":0.8031496062992126,"duration":0.2109375},{"name":"A3","midi":57,"time":73.95703124999989,"velocity":0.8031496062992126,"duration":0.2109375},{"name":"F5","midi":77,"time":73.95703124999989,"velocity":0.8031496062992126,"duration":0.4244791666666714},{"name":"C4","midi":60,"time":74.17057291666656,"velocity":0.8031496062992126,"duration":0.2109375},{"name":"G3","midi":55,"time":74.38411458333323,"velocity":0.8031496062992126,"duration":0.2109375},{"name":"E5","midi":76,"time":74.38411458333323,"velocity":0.8031496062992126,"duration":0.4244791666666714},{"name":"C4","midi":60,"time":74.5976562499999,"velocity":0.8031496062992126,"duration":0.2109375},{"name":"F3","midi":53,"time":74.8124999999999,"velocity":0.8031496062992126,"duration":0.2109375},{"name":"D5","midi":74,"time":74.8124999999999,"velocity":0.8031496062992126,"duration":0.4244791666666714},{"name":"C4","midi":60,"time":75.02604166666657,"velocity":0.8031496062992126,"duration":0.2109375},{"name":"E3","midi":52,"time":75.23958333333324,"velocity":0.8031496062992126,"duration":0.2109375},{"name":"C5","midi":72,"time":75.23958333333324,"velocity":0.8031496062992126,"duration":2.1367187500000426},{"name":"C4","midi":60,"time":75.45312499999991,"velocity":0.8031496062992126,"duration":0.2109375},{"name":"F3","midi":53,"time":75.66666666666659,"velocity":0.8031496062992126,"duration":0.2109375},{"name":"A5","midi":81,"time":75.66666666666659,"velocity":0.8031496062992126,"duration":0.4244791666666714},{"name":"C4","midi":60,"time":75.88020833333326,"velocity":0.8031496062992126,"duration":0.2109375},{"name":"E3","midi":52,"time":76.09374999999993,"velocity":0.8031496062992126,"duration":0.2109375},{"name":"G5","midi":79,"time":76.09374999999993,"velocity":0.8031496062992126,"duration":0.4244791666666714},{"name":"C4","midi":60,"time":76.30859374999993,"velocity":0.8031496062992126,"duration":0.2109375},{"name":"D3","midi":50,"time":76.5221354166666,"velocity":0.8031496062992126,"duration":0.2109375},{"name":"F5","midi":77,"time":76.5221354166666,"velocity":0.8031496062992126,"duration":0.4244791666666714},{"name":"C4","midi":60,"time":76.73567708333327,"velocity":0.8031496062992126,"duration":0.2109375},{"name":"C3","midi":48,"time":76.94921874999994,"velocity":0.8031496062992126,"duration":0.2109375},{"name":"E5","midi":76,"time":76.94921874999994,"velocity":0.8031496062992126,"duration":0.4244791666666714},{"name":"C4","midi":60,"time":77.16276041666661,"velocity":0.8031496062992126,"duration":0.2109375},{"name":"D3","midi":50,"time":77.37630208333329,"velocity":0.8031496062992126,"duration":0.2109375},{"name":"C5","midi":72,"time":77.37630208333329,"velocity":0.8031496062992126,"duration":0.4244791666666714},{"name":"F5","midi":77,"time":77.37630208333329,"velocity":0.8031496062992126,"duration":0.4244791666666714},{"name":"C4","midi":60,"time":77.59114583333329,"velocity":0.8031496062992126,"duration":0.2109375},{"name":"E3","midi":52,"time":77.80468749999996,"velocity":0.8031496062992126,"duration":0.2109375},{"name":"G5","midi":79,"time":77.80468749999996,"velocity":0.8031496062992126,"duration":0.4244791666666714},{"name":"B4","midi":71,"time":77.80468749999996,"velocity":0.8031496062992126,"duration":0.4244791666666714},{"name":"C4","midi":60,"time":78.01822916666663,"velocity":0.8031496062992126,"duration":0.2109375},{"name":"F3","midi":53,"time":78.2317708333333,"velocity":0.8031496062992126,"duration":0.2109375},{"name":"A4","midi":69,"time":78.2317708333333,"velocity":0.8031496062992126,"duration":0.4244791666666714},{"name":"A5","midi":81,"time":78.2317708333333,"velocity":0.8031496062992126,"duration":0.4244791666666714},{"name":"C4","midi":60,"time":78.44531249999997,"velocity":0.8031496062992126,"duration":0.2109375},{"name":"B3","midi":59,"time":78.65885416666664,"velocity":0.8031496062992126,"duration":0.4244791666666714},{"name":"G3","midi":55,"time":78.65885416666664,"velocity":0.8031496062992126,"duration":0.4244791666666714},{"name":"B4","midi":71,"time":78.65885416666664,"velocity":0.8031496062992126,"duration":0.421875},{"name":"D5","midi":74,"time":78.65885416666664,"velocity":0.8031496062992126,"duration":0.6223958333333428},{"name":"G4","midi":67,"time":78.87369791666664,"velocity":0.8031496062992126,"duration":0.2109375},{"name":"G2","midi":43,"time":79.08723958333331,"velocity":0.8031496062992126,"duration":0.6223958333333428},{"name":"B4","midi":71,"time":79.08723958333331,"velocity":0.8031496062992126,"duration":0.2109375},{"name":"D5","midi":74,"time":79.30078124999999,"velocity":0.8031496062992126,"duration":0.2109375},{"name":"B4","midi":71,"time":79.51432291666666,"velocity":0.8031496062992126,"duration":0.421875},{"name":"G4","midi":67,"time":79.72786458333333,"velocity":0.8031496062992126,"duration":0.2109375},{"name":"G3","midi":55,"time":79.94140625,"velocity":0.8031496062992126,"duration":0.4244791666666714},{"name":"B4","midi":71,"time":79.94140625,"velocity":0.8031496062992126,"duration":0.2109375},{"name":"D5","midi":74,"time":80.15625,"velocity":0.8031496062992126,"duration":0.2109375},{"name":"D3","midi":50,"time":80.36979166666667,"velocity":0.8031496062992126,"duration":0.8450520833333428},{"name":"F5","midi":77,"time":80.36979166666667,"velocity":0.8031496062992126,"duration":0.421875},{"name":"D4","midi":62,"time":80.58333333333334,"velocity":0.8031496062992126,"duration":0.2109375},{"name":"F4","midi":65,"time":80.79687500000001,"velocity":0.8031496062992126,"duration":0.2109375},{"name":"F5","midi":77,"time":80.79687500000001,"velocity":0.8031496062992126,"duration":0.421875},{"name":"A4","midi":69,"time":81.01041666666669,"velocity":0.8031496062992126,"duration":0.2109375},{"name":"F4","midi":65,"time":81.22395833333336,"velocity":0.8031496062992126,"duration":0.2109375},{"name":"F5","midi":77,"time":81.22395833333336,"velocity":0.8031496062992126,"duration":0.421875},{"name":"D4","midi":62,"time":81.43750000000003,"velocity":0.8031496062992126,"duration":0.2109375},{"name":"F4","midi":65,"time":81.65234375000003,"velocity":0.8031496062992126,"duration":0.2109375},{"name":"F5","midi":77,"time":81.65234375000003,"velocity":0.8031496062992126,"duration":0.421875},{"name":"A4","midi":69,"time":81.8658854166667,"velocity":0.8031496062992126,"duration":0.2109375},{"name":"F5","midi":77,"time":82.07942708333337,"velocity":0.8031496062992126,"duration":0.4244791666666714},{"name":"B4","midi":71,"time":82.07942708333337,"velocity":0.8031496062992126,"duration":0.4244791666666714},{"name":"G3","midi":55,"time":82.29296875000004,"velocity":0.8031496062992126,"duration":0.2109375},{"name":"B3","midi":59,"time":82.50651041666671,"velocity":0.8031496062992126,"duration":0.2109375},{"name":"F5","midi":77,"time":82.50651041666671,"velocity":0.8031496062992126,"duration":0.4244791666666714},{"name":"D5","midi":74,"time":82.50651041666671,"velocity":0.8031496062992126,"duration":0.4244791666666714},{"name":"D4","midi":62,"time":82.72005208333339,"velocity":0.8031496062992126,"duration":0.2109375},{"name":"B3","midi":59,"time":82.93489583333339,"velocity":0.8031496062992126,"duration":0.2109375},{"name":"F5","midi":77,"time":82.93489583333339,"velocity":0.8031496062992126,"duration":0.4244791666666714},{"name":"D5","midi":74,"time":82.93489583333339,"velocity":0.8031496062992126,"duration":0.4244791666666714},{"name":"G3","midi":55,"time":83.14843750000006,"velocity":0.8031496062992126,"duration":0.2109375},{"name":"B3","midi":59,"time":83.36197916666673,"velocity":0.8031496062992126,"duration":0.2109375},{"name":"F5","midi":77,"time":83.36197916666673,"velocity":0.8031496062992126,"duration":0.4244791666666714},{"name":"D5","midi":74,"time":83.36197916666673,"velocity":0.8031496062992126,"duration":0.4244791666666714},{"name":"D4","midi":62,"time":83.5755208333334,"velocity":0.8031496062992126,"duration":0.3111979166666714},{"name":"E5","midi":76,"time":83.78906250000007,"velocity":0.8031496062992126,"duration":0.4244791666666714},{"name":"D5","midi":74,"time":83.78906250000007,"velocity":0.8031496062992126,"duration":0.4244791666666714},{"name":"G4","midi":67,"time":83.78906250000007,"velocity":0.8031496062992126,"duration":0.4244791666666714},{"name":"C3","midi":48,"time":84.00260416666674,"velocity":0.8031496062992126,"duration":0.2109375},{"name":"E3","midi":52,"time":84.21744791666674,"velocity":0.8031496062992126,"duration":0.2109375},{"name":"G4","midi":67,"time":84.21744791666674,"velocity":0.8031496062992126,"duration":0.4244791666666714},{"name":"D5","midi":74,"time":84.21744791666674,"velocity":0.8031496062992126,"duration":0.4244791666666714},{"name":"E5","midi":76,"time":84.21744791666674,"velocity":0.8031496062992126,"duration":0.4244791666666714},{"name":"G3","midi":55,"time":84.43098958333341,"velocity":0.8031496062992126,"duration":0.2109375},{"name":"E3","midi":52,"time":84.64453125000009,"velocity":0.8031496062992126,"duration":0.2109375},{"name":"C5","midi":72,"time":84.64453125000009,"velocity":0.8031496062992126,"duration":0.4244791666666714},{"name":"G4","midi":67,"time":84.64453125000009,"velocity":0.8031496062992126,"duration":0.4244791666666714},{"name":"E5","midi":76,"time":84.64453125000009,"velocity":0.8031496062992126,"duration":0.4244791666666714},{"name":"C3","midi":48,"time":84.85807291666676,"velocity":0.8031496062992126,"duration":0.2109375},{"name":"E3","midi":52,"time":85.07161458333343,"velocity":0.8031496062992126,"duration":0.2109375},{"name":"G4","midi":67,"time":85.07161458333343,"velocity":0.8031496062992126,"duration":0.4244791666666714},{"name":"E5","midi":76,"time":85.07161458333343,"velocity":0.8031496062992126,"duration":0.4244791666666714},{"name":"C5","midi":72,"time":85.07161458333343,"velocity":0.8031496062992126,"duration":0.4244791666666714},{"name":"G3","midi":55,"time":85.2851562500001,"velocity":0.8031496062992126,"duration":0.2109375},{"name":"A3","midi":57,"time":85.5000000000001,"velocity":0.8031496062992126,"duration":0.2109375},{"name":"C5","midi":72,"time":85.5000000000001,"velocity":0.8031496062992126,"duration":0.4244791666666714},{"name":"F4","midi":65,"time":85.5000000000001,"velocity":0.8031496062992126,"duration":0.4244791666666714},{"name":"E5","midi":76,"time":85.5000000000001,"velocity":0.8031496062992126,"duration":0.4244791666666714},{"name":"F2","midi":41,"time":85.71354166666677,"velocity":0.8031496062992126,"duration":0.2109375},{"name":"A2","midi":45,"time":85.92708333333344,"velocity":0.8031496062992126,"duration":0.2109375},{"name":"E5","midi":76,"time":85.92708333333344,"velocity":0.8031496062992126,"duration":0.4244791666666714},{"name":"C5","midi":72,"time":85.92708333333344,"velocity":0.8031496062992126,"duration":0.4244791666666714},{"name":"F4","midi":65,"time":85.92708333333344,"velocity":0.8031496062992126,"duration":0.4244791666666714},{"name":"C3","midi":48,"time":86.14062500000011,"velocity":0.8031496062992126,"duration":0.2109375},{"name":"A2","midi":45,"time":86.35416666666679,"velocity":0.8031496062992126,"duration":0.2109375},{"name":"C5","midi":72,"time":86.35416666666679,"velocity":0.8031496062992126,"duration":0.4244791666666714},{"name":"F4","midi":65,"time":86.35416666666679,"velocity":0.8031496062992126,"duration":0.4244791666666714},{"name":"E5","midi":76,"time":86.35416666666679,"velocity":0.8031496062992126,"duration":0.4244791666666714},{"name":"F2","midi":41,"time":86.56770833333346,"velocity":0.8031496062992126,"duration":0.2109375},{"name":"A2","midi":45,"time":86.78125000000013,"velocity":0.8031496062992126,"duration":0.2109375},{"name":"E5","midi":76,"time":86.78125000000013,"velocity":0.8031496062992126,"duration":0.4244791666666714},{"name":"C5","midi":72,"time":86.78125000000013,"velocity":0.8031496062992126,"duration":0.4244791666666714},{"name":"F4","midi":65,"time":86.78125000000013,"velocity":0.8031496062992126,"duration":0.4244791666666714},{"name":"C3","midi":48,"time":86.99609375000013,"velocity":0.8031496062992126,"duration":0.2109375},{"name":"B2","midi":47,"time":87.2096354166668,"velocity":0.8031496062992126,"duration":0.2109375},{"name":"F4","midi":65,"time":87.2096354166668,"velocity":0.8031496062992126,"duration":0.4244791666666714},{"name":"D5","midi":74,"time":87.2096354166668,"velocity":0.8031496062992126,"duration":0.4244791666666714},{"name":"G4","midi":67,"time":87.2096354166668,"velocity":0.8031496062992126,"duration":0.4244791666666714},{"name":"G2","midi":43,"time":87.42317708333347,"velocity":0.8031496062992126,"duration":0.2109375},{"name":"B2","midi":47,"time":87.63671875000014,"velocity":0.8031496062992126,"duration":0.2109375},{"name":"F4","midi":65,"time":87.63671875000014,"velocity":0.8031496062992126,"duration":0.4244791666666714},{"name":"D5","midi":74,"time":87.63671875000014,"velocity":0.8031496062992126,"duration":0.4244791666666714},{"name":"G4","midi":67,"time":87.63671875000014,"velocity":0.8031496062992126,"duration":0.4244791666666714},{"name":"D3","midi":50,"time":87.85026041666681,"velocity":0.8031496062992126,"duration":0.2109375},{"name":"B2","midi":47,"time":88.06380208333348,"velocity":0.8031496062992126,"duration":0.2109375},{"name":"G4","midi":67,"time":88.06380208333348,"velocity":0.8031496062992126,"duration":0.4244791666666714},{"name":"F4","midi":65,"time":88.06380208333348,"velocity":0.8031496062992126,"duration":0.4244791666666714},{"name":"D5","midi":74,"time":88.06380208333348,"velocity":0.8031496062992126,"duration":0.4244791666666714},{"name":"G2","midi":43,"time":88.27864583333348,"velocity":0.8031496062992126,"duration":0.2109375},{"name":"B2","midi":47,"time":88.49218750000016,"velocity":0.8031496062992126,"duration":0.2109375},{"name":"G4","midi":67,"time":88.49218750000016,"velocity":0.8031496062992126,"duration":0.4244791666666714},{"name":"F4","midi":65,"time":88.49218750000016,"velocity":0.8031496062992126,"duration":0.4244791666666714},{"name":"D5","midi":74,"time":88.49218750000016,"velocity":0.8031496062992126,"duration":0.4244791666666714},{"name":"D3","midi":50,"time":88.70572916666683,"velocity":0.8031496062992126,"duration":0.2109375},{"name":"E2","midi":40,"time":88.9192708333335,"velocity":0.8031496062992126,"duration":0.4244791666666714},{"name":"F4","midi":65,"time":88.9192708333335,"velocity":0.8031496062992126,"duration":0.4244791666666714},{"name":"D5","midi":74,"time":88.9192708333335,"velocity":0.8031496062992126,"duration":0.4244791666666714},{"name":"G4","midi":67,"time":88.9192708333335,"velocity":0.8031496062992126,"duration":0.4244791666666714},{"name":"E3","midi":52,"time":89.34635416666684,"velocity":0.8031496062992126,"duration":0.2109375},{"name":"G4","midi":67,"time":89.34635416666684,"velocity":0.8031496062992126,"duration":0.4244791666666714},{"name":"E4","midi":64,"time":89.34635416666684,"velocity":0.8031496062992126,"duration":0.4244791666666714},{"name":"C5","midi":72,"time":89.34635416666684,"velocity":0.8031496062992126,"duration":0.4244791666666714},{"name":"F3","midi":53,"time":89.56119791666684,"velocity":0.8031496062992126,"duration":0.2109375},{"name":"G3","midi":55,"time":89.77473958333351,"velocity":0.8031496062992126,"duration":0.4244791666666714},{"name":"C5","midi":72,"time":89.77473958333351,"velocity":0.8031496062992126,"duration":0.4244791666666714},{"name":"G4","midi":67,"time":89.77473958333351,"velocity":0.8031496062992126,"duration":0.4244791666666714},{"name":"D4","midi":62,"time":89.77473958333351,"velocity":0.8031496062992126,"duration":0.4244791666666714},{"name":"G2","midi":43,"time":90.20182291666686,"velocity":0.8031496062992126,"duration":0.4244791666666998},{"name":"G4","midi":67,"time":90.20182291666686,"velocity":0.8031496062992126,"duration":0.4244791666666998},{"name":"D4","midi":62,"time":90.20182291666686,"velocity":0.8031496062992126,"duration":0.4244791666666998},{"name":"C5","midi":72,"time":90.20182291666686,"velocity":0.8031496062992126,"duration":0.1041666666666714},{"name":"B4","midi":71,"time":90.3085937500002,"velocity":0.8031496062992126,"duration":0.1041666666666714},{"name":"A4","midi":69,"time":90.41536458333354,"velocity":0.8031496062992126,"duration":0.1041666666666714},{"name":"B4","midi":71,"time":90.52213541666688,"velocity":0.8031496062992126,"duration":0.1041666666666714},{"name":"C2","midi":36,"time":90.62890625000023,"velocity":0.8031496062992126,"duration":0.8515625000000142},{"name":"E4","midi":64,"time":90.62890625000023,"velocity":0.8031496062992126,"duration":0.8450520833333428},{"name":"C5","midi":72,"time":90.62890625000023,"velocity":0.8031496062992126,"duration":0.2109375},{"name":"G4","midi":67,"time":90.62890625000023,"velocity":0.8031496062992126,"duration":0.2109375},{"name":"G3","midi":55,"time":90.84375000000023,"velocity":0.8031496062992126,"duration":0.2109375},{"name":"A3","midi":57,"time":91.0572916666669,"velocity":0.8031496062992126,"duration":0.2109375},{"name":"B3","midi":59,"time":91.27083333333357,"velocity":0.8031496062992126,"duration":0.2109375},{"name":"C3","midi":48,"time":91.48437500000024,"velocity":0.8031496062992126,"duration":0.1041666666666714},{"name":"C4","midi":60,"time":91.48437500000024,"velocity":0.8031496062992126,"duration":0.2109375000000142},{"name":"B2","midi":47,"time":91.59114583333358,"velocity":0.8031496062992126,"duration":0.1041666666666714},{"name":"C3","midi":48,"time":91.69791666666693,"velocity":0.8031496062992126,"duration":0.4244791666666714},{"name":"D4","midi":62,"time":91.69791666666693,"velocity":0.8031496062992126,"duration":0.2109375},{"name":"E4","midi":64,"time":91.9114583333336,"velocity":0.8031496062992126,"duration":0.2109375},{"name":"C3","midi":48,"time":92.12500000000027,"velocity":0.8031496062992126,"duration":0.2109375},{"name":"C4","midi":60,"time":92.12500000000027,"velocity":0.8031496062992126,"duration":0.2109375},{"name":"C3","midi":48,"time":92.33984375000027,"velocity":0.8031496062992126,"duration":0.6380208333333428},{"name":"F4","midi":65,"time":92.33984375000027,"velocity":0.8031496062992126,"duration":0.2109375},{"name":"G4","midi":67,"time":92.55338541666694,"velocity":0.8031496062992126,"duration":0.2109375},{"name":"F4","midi":65,"time":92.76692708333361,"velocity":0.8031496062992126,"duration":0.2109375},{"name":"D3","midi":50,"time":92.98046875000028,"velocity":0.8031496062992126,"duration":0.2109375},{"name":"E4","midi":64,"time":92.98046875000028,"velocity":0.8031496062992126,"duration":0.2109375},{"name":"C3","midi":48,"time":93.19401041666696,"velocity":0.8031496062992126,"duration":0.1223958333333286},{"name":"D4","midi":62,"time":93.19401041666696,"velocity":0.8031496062992126,"duration":0.2109375},{"name":"B2","midi":47,"time":93.30078125000028,"velocity":0.8031496062992126,"duration":0.12239583333334281},{"name":"C3","midi":48,"time":93.40755208333363,"velocity":0.8031496062992126,"duration":0.12239583333334281},{"name":"G4","midi":67,"time":93.40755208333363,"velocity":0.8031496062992126,"duration":0.2109375000000142},{"name":"B2","midi":47,"time":93.5156250000003,"velocity":0.8031496062992126,"duration":0.12239583333334281},{"name":"C3","midi":48,"time":93.62239583333364,"velocity":0.8031496062992126,"duration":0.1223958333333286},{"name":"F4","midi":65,"time":93.62239583333364,"velocity":0.8031496062992126,"duration":0.2109375},{"name":"B2","midi":47,"time":93.72916666666697,"velocity":0.8031496062992126,"duration":0.12239583333334281},{"name":"C3","midi":48,"time":93.83593750000031,"velocity":0.8031496062992126,"duration":0.2109375},{"name":"G4","midi":67,"time":93.83593750000031,"velocity":0.8031496062992126,"duration":0.2109375},{"name":"C3","midi":48,"time":94.04947916666698,"velocity":0.8031496062992126,"duration":0.2109375},{"name":"E4","midi":64,"time":94.04947916666698,"velocity":0.8031496062992126,"duration":0.4244791666666714},{"name":"G2","midi":43,"time":94.26302083333366,"velocity":0.8031496062992126,"duration":0.2109375},{"name":"A2","midi":45,"time":94.47656250000033,"velocity":0.8031496062992126,"duration":0.2109375},{"name":"C4","midi":60,"time":94.47656250000033,"velocity":0.8031496062992126,"duration":0.4244791666666714},{"name":"B2","midi":47,"time":94.690104166667,"velocity":0.8031496062992126,"duration":0.2109375},{"name":"C3","midi":48,"time":94.904947916667,"velocity":0.8031496062992126,"duration":0.2109375},{"name":"C5","midi":72,"time":94.904947916667,"velocity":0.8031496062992126,"duration":0.4244791666666714},{"name":"D3","midi":50,"time":95.11848958333367,"velocity":0.8031496062992126,"duration":0.2109375},{"name":"E3","midi":52,"time":95.33203125000034,"velocity":0.8031496062992126,"duration":0.2109375},{"name":"E4","midi":64,"time":95.33203125000034,"velocity":0.8031496062992126,"duration":0.4244791666666714},{"name":"C5","midi":72,"time":95.33203125000034,"velocity":0.8031496062992126,"duration":0.4244791666666714},{"name":"C3","midi":48,"time":95.54557291666701,"velocity":0.8031496062992126,"duration":0.2109375},{"name":"F3","midi":53,"time":95.75911458333368,"velocity":0.8031496062992126,"duration":0.2109375},{"name":"C5","midi":72,"time":95.75911458333368,"velocity":0.8031496062992126,"duration":0.4244791666666714},{"name":"D4","midi":62,"time":95.75911458333368,"velocity":0.8031496062992126,"duration":0.8450520833333428},{"name":"G3","midi":55,"time":95.97265625000036,"velocity":0.8031496062992126,"duration":0.2109375},{"name":"F3","midi":53,"time":96.18750000000036,"velocity":0.8031496062992126,"duration":0.2109375},{"name":"B4","midi":71,"time":96.18750000000036,"velocity":0.8031496062992126,"duration":0.2109375},{"name":"E3","midi":52,"time":96.40104166666703,"velocity":0.8031496062992126,"duration":0.2109375},{"name":"C5","midi":72,"time":96.40104166666703,"velocity":0.8031496062992126,"duration":0.2109375},{"name":"D3","midi":50,"time":96.6145833333337,"velocity":0.8031496062992126,"duration":0.2109375},{"name":"D5","midi":74,"time":96.6145833333337,"velocity":0.8031496062992126,"duration":0.4244791666666714},{"name":"G3","midi":55,"time":96.82812500000037,"velocity":0.8031496062992126,"duration":0.2109375},{"name":"F3","midi":53,"time":97.04166666666704,"velocity":0.8031496062992126,"duration":0.2109375},{"name":"D5","midi":74,"time":97.04166666666704,"velocity":0.8031496062992126,"duration":0.4244791666666714},{"name":"B4","midi":71,"time":97.04166666666704,"velocity":0.8031496062992126,"duration":0.4244791666666714},{"name":"G3","midi":55,"time":97.25520833333371,"velocity":0.8031496062992126,"duration":0.2109375},{"name":"E3","midi":52,"time":97.46875000000038,"velocity":0.8031496062992126,"duration":0.2109375},{"name":"D5","midi":74,"time":97.46875000000038,"velocity":0.8031496062992126,"duration":0.4244791666666714},{"name":"G4","midi":67,"time":97.46875000000038,"velocity":0.8031496062992126,"duration":0.8450520833333428},{"name":"G3","midi":55,"time":97.68359375000038,"velocity":0.8031496062992126,"duration":0.2109375},{"name":"A3","midi":57,"time":97.89713541666706,"velocity":0.8031496062992126,"duration":0.2109375},{"name":"C5","midi":72,"time":97.89713541666706,"velocity":0.8031496062992126,"duration":0.2109375},{"name":"B3","midi":59,"time":98.11067708333373,"velocity":0.8031496062992126,"duration":0.2109375},{"name":"D5","midi":74,"time":98.11067708333373,"velocity":0.8031496062992126,"duration":0.2109375},{"name":"C4","midi":60,"time":98.3242187500004,"velocity":0.8031496062992126,"duration":0.2109375},{"name":"E5","midi":76,"time":98.3242187500004,"velocity":0.8031496062992126,"duration":0.4244791666666714},{"name":"D4","midi":62,"time":98.53776041666707,"velocity":0.8031496062992126,"duration":0.2109375},{"name":"E4","midi":64,"time":98.75130208333374,"velocity":0.8031496062992126,"duration":0.2109375},{"name":"E5","midi":76,"time":98.75130208333374,"velocity":0.8031496062992126,"duration":0.4244791666666714},{"name":"C5","midi":72,"time":98.75130208333374,"velocity":0.8031496062992126,"duration":0.4244791666666714},{"name":"C4","midi":60,"time":98.96614583333374,"velocity":0.8031496062992126,"duration":0.2109375},{"name":"F4","midi":65,"time":99.17968750000041,"velocity":0.8031496062992126,"duration":0.2109375},{"name":"A4","midi":69,"time":99.17968750000041,"velocity":0.8031496062992126,"duration":0.8450520833333428},{"name":"E5","midi":76,"time":99.17968750000041,"velocity":0.8031496062992126,"duration":0.4244791666666714},{"name":"G4","midi":67,"time":99.39322916666708,"velocity":0.8031496062992126,"duration":0.2109375},{"name":"F4","midi":65,"time":99.60677083333375,"velocity":0.8031496062992126,"duration":0.2109375},{"name":"D5","midi":74,"time":99.60677083333375,"velocity":0.8031496062992126,"duration":0.2109375},{"name":"E4","midi":64,"time":99.82031250000043,"velocity":0.8031496062992126,"duration":0.2109375},{"name":"E5","midi":76,"time":99.82031250000043,"velocity":0.8031496062992126,"duration":0.2109375},{"name":"D4","midi":62,"time":100.0338541666671,"velocity":0.8031496062992126,"duration":0.2109375},{"name":"F5","midi":77,"time":100.0338541666671,"velocity":0.8031496062992126,"duration":0.4244791666666714},{"name":"E4","midi":64,"time":100.2486979166671,"velocity":0.8031496062992126,"duration":0.2109375},{"name":"F4","midi":65,"time":100.46223958333377,"velocity":0.8031496062992126,"duration":0.2109375},{"name":"F5","midi":77,"time":100.46223958333377,"velocity":0.8031496062992126,"duration":0.4244791666666714},{"name":"A4","midi":69,"time":100.46223958333377,"velocity":0.8031496062992126,"duration":0.4244791666666714},{"name":"D4","midi":62,"time":100.67578125000044,"velocity":0.8031496062992126,"duration":0.2109375},{"name":"G4","midi":67,"time":100.88932291666711,"velocity":0.8031496062992126,"duration":0.2109375},{"name":"F5","midi":77,"time":100.88932291666711,"velocity":0.8031496062992126,"duration":0.4244791666666714},{"name":"B4","midi":71,"time":100.88932291666711,"velocity":0.8031496062992126,"duration":0.8450520833333428},{"name":"A4","midi":69,"time":101.10286458333378,"velocity":0.8031496062992126,"duration":0.2109375},{"name":"G4","midi":67,"time":101.31640625000045,"velocity":0.8031496062992126,"duration":0.2109375},{"name":"E5","midi":76,"time":101.31640625000045,"velocity":0.8031496062992126,"duration":0.2109375},{"name":"F4","midi":65,"time":101.53125000000045,"velocity":0.8031496062992126,"duration":0.2109375},{"name":"F5","midi":77,"time":101.53125000000045,"velocity":0.8031496062992126,"duration":0.2109375},{"name":"E4","midi":64,"time":101.74479166666713,"velocity":0.8031496062992126,"duration":0.2109375},{"name":"G5","midi":79,"time":101.74479166666713,"velocity":0.8031496062992126,"duration":0.4244791666666714},{"name":"F4","midi":65,"time":101.9583333333338,"velocity":0.8031496062992126,"duration":0.2109375},{"name":"G4","midi":67,"time":102.17187500000047,"velocity":0.8031496062992126,"duration":0.2109375},{"name":"G5","midi":79,"time":102.17187500000047,"velocity":0.8031496062992126,"duration":0.4244791666666714},{"name":"B4","midi":71,"time":102.17187500000047,"velocity":0.8031496062992126,"duration":0.4244791666666714},{"name":"E4","midi":64,"time":102.38541666666714,"velocity":0.8031496062992126,"duration":0.2109375},{"name":"A4","midi":69,"time":102.59895833333381,"velocity":0.8031496062992126,"duration":0.4244791666666714},{"name":"C5","midi":72,"time":102.59895833333381,"velocity":0.8031496062992126,"duration":1.7070312500000284},{"name":"G5","midi":79,"time":102.59895833333381,"velocity":0.8031496062992126,"duration":0.2109375},{"name":"B5","midi":83,"time":102.81250000000048,"velocity":0.8031496062992126,"duration":0.2109375},{"name":"G4","midi":67,"time":103.02734375000048,"velocity":0.8031496062992126,"duration":0.4244791666666714},{"name":"A5","midi":81,"time":103.02734375000048,"velocity":0.8031496062992126,"duration":0.2109375},{"name":"G5","midi":79,"time":103.24088541666715,"velocity":0.8031496062992126,"duration":0.2109375},{"name":"A4","midi":69,"time":103.45442708333383,"velocity":0.8031496062992126,"duration":0.4244791666666714},{"name":"F#5","midi":78,"time":103.45442708333383,"velocity":0.8031496062992126,"duration":0.2109375},{"name":"G5","midi":79,"time":103.6679687500005,"velocity":0.8031496062992126,"duration":0.2109375},{"name":"D4","midi":62,"time":103.88151041666717,"velocity":0.8031496062992126,"duration":0.4244791666666714},{"name":"E5","midi":76,"time":103.88151041666717,"velocity":0.8031496062992126,"duration":0.2109375},{"name":"F#5","midi":78,"time":104.09505208333384,"velocity":0.8031496062992126,"duration":0.2109375},{"name":"G4","midi":67,"time":104.30989583333384,"velocity":0.8031496062992126,"duration":1.0664062500000142},{"name":"G5","midi":79,"time":104.30989583333384,"velocity":0.8031496062992126,"duration":0.421875},{"name":"C5","midi":72,"time":104.52343750000051,"velocity":0.8031496062992126,"duration":0.2109375},{"name":"D5","midi":74,"time":104.73697916666718,"velocity":0.8031496062992126,"duration":0.421875},{"name":"B4","midi":71,"time":104.73697916666718,"velocity":0.8031496062992126,"duration":0.2109375},{"name":"A4","midi":69,"time":104.95052083333385,"velocity":0.8031496062992126,"duration":0.2109375},{"name":"B4","midi":71,"time":105.16406250000053,"velocity":0.8031496062992126,"duration":0.6380208333333286},{"name":"G5","midi":79,"time":105.16406250000053,"velocity":0.8031496062992126,"duration":0.6380208333333286},{"name":"F4","midi":65,"time":105.37760416666718,"velocity":0.8031496062992126,"duration":0.2109375},{"name":"E4","midi":64,"time":105.59244791666718,"velocity":0.8031496062992126,"duration":0.2109375},{"name":"D4","midi":62,"time":105.80598958333385,"velocity":0.8031496062992126,"duration":0.2109375},{"name":"B4","midi":71,"time":105.80598958333385,"velocity":0.8031496062992126,"duration":0.2109375},{"name":"G5","midi":79,"time":105.80598958333385,"velocity":0.8031496062992126,"duration":0.2109375},{"name":"C#4","midi":61,"time":106.01953125000053,"velocity":0.8031496062992126,"duration":0.2109375},{"name":"G5","midi":79,"time":106.01953125000053,"velocity":0.8031496062992126,"duration":0.6380208333333428},{"name":"A4","midi":69,"time":106.01953125000053,"velocity":0.8031496062992126,"duration":0.8450520833333428},{"name":"A3","midi":57,"time":106.2330729166672,"velocity":0.8031496062992126,"duration":0.2109375},{"name":"B3","midi":59,"time":106.44661458333387,"velocity":0.8031496062992126,"duration":0.2109375},{"name":"C#4","midi":61,"time":106.66015625000054,"velocity":0.8031496062992126,"duration":0.2109375},{"name":"A5","midi":81,"time":106.66015625000054,"velocity":0.8031496062992126,"duration":0.2109375},{"name":"D4","midi":62,"time":106.87500000000054,"velocity":0.8031496062992126,"duration":0.2109375000000142},{"name":"F5","midi":77,"time":106.87500000000054,"velocity":0.8031496062992126,"duration":0.1041666666666714},{"name":"A4","midi":69,"time":106.87500000000054,"velocity":0.8031496062992126,"duration":0.638020833333357},{"name":"E5","midi":76,"time":106.98177083333388,"velocity":0.8031496062992126,"duration":0.1041666666666714},{"name":"E4","midi":64,"time":107.08854166666723,"velocity":0.8031496062992126,"duration":0.2109375},{"name":"F5","midi":77,"time":107.08854166666723,"velocity":0.8031496062992126,"duration":0.421875},{"name":"F4","midi":65,"time":107.3020833333339,"velocity":0.8031496062992126,"duration":0.2109375},{"name":"D4","midi":62,"time":107.51562500000057,"velocity":0.8031496062992126,"duration":0.2109375},{"name":"A4","midi":69,"time":107.51562500000057,"velocity":0.8031496062992126,"duration":0.2109375},{"name":"F5","midi":77,"time":107.51562500000057,"velocity":0.8031496062992126,"duration":0.2109375},{"name":"G4","midi":67,"time":107.72916666666724,"velocity":0.8031496062992126,"duration":0.2109375},{"name":"F5","midi":77,"time":107.72916666666724,"velocity":0.8031496062992126,"duration":0.6223958333333428},{"name":"B4","midi":71,"time":107.72916666666724,"velocity":0.8031496062992126,"duration":0.845052083333357},{"name":"A4","midi":69,"time":107.94270833333391,"velocity":0.8031496062992126,"duration":0.2109375},{"name":"G4","midi":67,"time":108.15625000000058,"velocity":0.8031496062992126,"duration":0.2109375},{"name":"F4","midi":65,"time":108.37109375000058,"velocity":0.8031496062992126,"duration":0.2109375000000142},{"name":"E5","midi":76,"time":108.37109375000058,"velocity":0.8031496062992126,"duration":0.1041666666666714},{"name":"D5","midi":74,"time":108.47786458333393,"velocity":0.8031496062992126,"duration":0.1041666666666714},{"name":"E4","midi":64,"time":108.58463541666727,"velocity":0.8031496062992126,"duration":0.2109375},{"name":"C5","midi":72,"time":108.58463541666727,"velocity":0.8031496062992126,"duration":0.6380208333333428},{"name":"D5","midi":74,"time":108.6914062500006,"velocity":0.8031496062992126,"duration":0.2109375000000142},{"name":"A4","midi":69,"time":108.79817708333394,"velocity":0.8031496062992126,"duration":0.2109375},{"name":"E5","midi":76,"time":108.79817708333394,"velocity":0.8031496062992126,"duration":0.421875},{"name":"G4","midi":67,"time":109.01171875000061,"velocity":0.8031496062992126,"duration":0.2109375},{"name":"A4","midi":69,"time":109.22526041666728,"velocity":0.8031496062992126,"duration":0.2109375},{"name":"C5","midi":72,"time":109.22526041666728,"velocity":0.8031496062992126,"duration":0.2109375},{"name":"E5","midi":76,"time":109.22526041666728,"velocity":0.8031496062992126,"duration":0.2109375},{"name":"F4","midi":65,"time":109.43880208333395,"velocity":0.8031496062992126,"duration":1.0677083333333428},{"name":"E5","midi":76,"time":109.43880208333395,"velocity":0.8031496062992126,"duration":0.2109375},{"name":"A4","midi":69,"time":109.43880208333395,"velocity":0.8031496062992126,"duration":0.8450520833333428},{"name":"G5","midi":79,"time":109.65364583333395,"velocity":0.8031496062992126,"duration":0.2109375},{"name":"F5","midi":77,"time":109.86718750000063,"velocity":0.8031496062992126,"duration":0.2109375},{"name":"E5","midi":76,"time":110.0807291666673,"velocity":0.8031496062992126,"duration":0.2109375},{"name":"D5","midi":74,"time":110.29427083333397,"velocity":0.8031496062992126,"duration":0.2109375},{"name":"C5","midi":72,"time":110.50781250000063,"velocity":0.8031496062992126,"duration":0.2109375},{"name":"F3","midi":53,"time":110.7213541666673,"velocity":0.8031496062992126,"duration":0.6380208333333428},{"name":"B4","midi":71,"time":110.7213541666673,"velocity":0.8031496062992126,"duration":0.2109375},{"name":"A4","midi":69,"time":110.9361979166673,"velocity":0.8031496062992126,"duration":0.2109375},{"name":"B4","midi":71,"time":111.14973958333397,"velocity":0.8031496062992126,"duration":0.4244791666666714},{"name":"A3","midi":57,"time":111.36328125000064,"velocity":0.8031496062992126,"duration":0.2109375},{"name":"G3","midi":55,"time":111.57682291666731,"velocity":0.8031496062992126,"duration":0.2109375},{"name":"G4","midi":67,"time":111.57682291666731,"velocity":0.8031496062992126,"duration":0.4244791666666714},{"name":"F3","midi":53,"time":111.79036458333398,"velocity":0.8031496062992126,"duration":0.2109375},{"name":"E3","midi":52,"time":112.00390625000065,"velocity":0.8031496062992126,"duration":0.2109375},{"name":"C5","midi":72,"time":112.00390625000065,"velocity":0.8031496062992126,"duration":0.6380208333333428},{"name":"D3","midi":50,"time":112.21875000000065,"velocity":0.8031496062992126,"duration":0.2109375},{"name":"C3","midi":48,"time":112.43229166666733,"velocity":0.8031496062992126,"duration":0.2109375},{"name":"B2","midi":47,"time":112.645833333334,"velocity":0.8031496062992126,"duration":0.2109375},{"name":"C5","midi":72,"time":112.645833333334,"velocity":0.8031496062992126,"duration":0.2109375},{"name":"E4","midi":64,"time":112.645833333334,"velocity":0.8031496062992126,"duration":0.2109375},{"name":"A2","midi":45,"time":112.85937500000067,"velocity":0.8031496062992126,"duration":0.2109375},{"name":"E4","midi":64,"time":112.85937500000067,"velocity":0.8031496062992126,"duration":0.6380208333333428},{"name":"C5","midi":72,"time":112.85937500000067,"velocity":0.8031496062992126,"duration":0.6380208333333428},{"name":"G2","midi":43,"time":113.07291666666734,"velocity":0.8031496062992126,"duration":0.2109375},{"name":"A2","midi":45,"time":113.28645833333401,"velocity":0.8031496062992126,"duration":0.2109375},{"name":"F2","midi":41,"time":113.50000000000068,"velocity":0.8031496062992126,"duration":0.2109375},{"name":"D5","midi":74,"time":113.50000000000068,"velocity":0.8031496062992126,"duration":0.2109375},{"name":"F4","midi":65,"time":113.50000000000068,"velocity":0.8031496062992126,"duration":0.2109375},{"name":"G2","midi":43,"time":113.71484375000068,"velocity":0.8031496062992126,"duration":0.4244791666666714},{"name":"D4","midi":62,"time":113.71484375000068,"velocity":0.8031496062992126,"duration":0.6380208333333428},{"name":"C5","midi":72,"time":113.71484375000068,"velocity":0.8031496062992126,"duration":0.14453125},{"name":"B4","midi":71,"time":113.84765625000068,"velocity":0.8031496062992126,"duration":0.1041666666666714},{"name":"C5","midi":72,"time":113.94140625000068,"velocity":0.8031496062992126,"duration":0.1041666666666714},{"name":"B4","midi":71,"time":114.03515625000068,"velocity":0.8031496062992126,"duration":0.3111979166666714},{"name":"G3","midi":55,"time":114.14192708333402,"velocity":0.8031496062992126,"duration":0.4244791666666714},{"name":"E4","midi":64,"time":114.3554687500007,"velocity":0.8031496062992126,"duration":0.2109375},{"name":"C5","midi":72,"time":114.3554687500007,"velocity":0.8031496062992126,"duration":0.2109375},{"name":"C2","midi":36,"time":114.56901041666737,"velocity":0.8031496062992126,"duration":0.4244791666666714},{"name":"C5","midi":72,"time":114.56901041666737,"velocity":0.8031496062992126,"duration":0.8450520833333428},{"name":"E4","midi":64,"time":114.56901041666737,"velocity":0.8031496062992126,"duration":0.8450520833333428},{"name":"C3","midi":48,"time":114.99739583333404,"velocity":0.8031496062992126,"duration":0.2109375},{"name":"B2","midi":47,"time":115.21093750000071,"velocity":0.8031496062992126,"duration":0.2109375},{"name":"C3","midi":48,"time":115.42447916666738,"velocity":0.8031496062992126,"duration":0.4244791666666714},{"name":"C5","midi":72,"time":115.63802083333405,"velocity":0.8031496062992126,"duration":0.2109375},{"name":"D3","midi":50,"time":115.85156250000072,"velocity":0.8031496062992126,"duration":0.4244791666666714},{"name":"B4","midi":71,"time":115.85156250000072,"velocity":0.8031496062992126,"duration":0.2109375},{"name":"C5","midi":72,"time":116.0651041666674,"velocity":0.8031496062992126,"duration":0.2109375},{"name":"E3","midi":52,"time":116.2799479166674,"velocity":0.8031496062992126,"duration":0.4244791666666714},{"name":"G4","midi":67,"time":116.2799479166674,"velocity":0.8031496062992126,"duration":0.3111979166666714},{"name":"C5","midi":72,"time":116.49348958333407,"velocity":0.8031496062992126,"duration":0.2109375},{"name":"F3","midi":53,"time":116.70703125000074,"velocity":0.8031496062992126,"duration":0.4244791666666714},{"name":"A4","midi":69,"time":116.70703125000074,"velocity":0.8031496062992126,"duration":0.3111979166666714},{"name":"C5","midi":72,"time":116.92057291666741,"velocity":0.8031496062992126,"duration":0.2109375},{"name":"E3","midi":52,"time":117.13411458333408,"velocity":0.8031496062992126,"duration":0.4244791666666714},{"name":"G4","midi":67,"time":117.13411458333408,"velocity":0.8031496062992126,"duration":0.3111979166666714},{"name":"C5","midi":72,"time":117.34765625000075,"velocity":0.8031496062992126,"duration":0.2109375},{"name":"D3","midi":50,"time":117.56250000000075,"velocity":0.8031496062992126,"duration":0.4244791666666714},{"name":"F4","midi":65,"time":117.56250000000075,"velocity":0.8031496062992126,"duration":0.3111979166666714},{"name":"C5","midi":72,"time":117.77604166666742,"velocity":0.8031496062992126,"duration":0.2109375},{"name":"C3","midi":48,"time":117.9895833333341,"velocity":0.8031496062992126,"duration":2.1367187500000426},{"name":"E4","midi":64,"time":117.9895833333341,"velocity":0.8031496062992126,"duration":0.3111979166666714},{"name":"C5","midi":72,"time":118.20312500000077,"velocity":0.8031496062992126,"duration":0.2109375},{"name":"A3","midi":57,"time":118.41666666666744,"velocity":0.8031496062992126,"duration":0.4244791666666714},{"name":"F4","midi":65,"time":118.41666666666744,"velocity":0.8031496062992126,"duration":0.2109375},{"name":"C5","midi":72,"time":118.63020833333411,"velocity":0.8031496062992126,"duration":0.2109375},{"name":"G3","midi":55,"time":118.84375000000078,"velocity":0.8031496062992126,"duration":0.4244791666666714},{"name":"E4","midi":64,"time":118.84375000000078,"velocity":0.8031496062992126,"duration":0.2109375},{"name":"C5","midi":72,"time":119.05859375000078,"velocity":0.8031496062992126,"duration":0.2109375},{"name":"F3","midi":53,"time":119.27213541666745,"velocity":0.8031496062992126,"duration":0.4244791666666714},{"name":"D4","midi":62,"time":119.27213541666745,"velocity":0.8031496062992126,"duration":0.2109375},{"name":"C5","midi":72,"time":119.48567708333412,"velocity":0.8031496062992126,"duration":0.2109375},{"name":"E3","midi":52,"time":119.6992187500008,"velocity":0.8031496062992126,"duration":0.4244791666666714},{"name":"C4","midi":60,"time":119.6992187500008,"velocity":0.8031496062992126,"duration":0.2109375},{"name":"C5","midi":72,"time":119.91276041666747,"velocity":0.8031496062992126,"duration":0.2109375},{"name":"C3","midi":48,"time":120.12630208333414,"velocity":0.8031496062992126,"duration":0.4244791666666714},{"name":"F#3","midi":54,"time":120.12630208333414,"velocity":0.8031496062992126,"duration":0.4244791666666714},{"name":"D4","midi":62,"time":120.12630208333414,"velocity":0.8031496062992126,"duration":0.2109375},{"name":"C5","midi":72,"time":120.34114583333414,"velocity":0.8031496062992126,"duration":0.2109375},{"name":"A#2","midi":46,"time":120.55468750000081,"velocity":0.8031496062992126,"duration":0.4244791666666714},{"name":"G3","midi":55,"time":120.55468750000081,"velocity":0.8031496062992126,"duration":0.4244791666666714},{"name":"E4","midi":64,"time":120.55468750000081,"velocity":0.8031496062992126,"duration":0.2109375},{"name":"C5","midi":72,"time":120.76822916666748,"velocity":0.8031496062992126,"duration":0.2109375},{"name":"A2","midi":45,"time":120.98177083333415,"velocity":0.8031496062992126,"duration":0.4244791666666714},{"name":"A3","midi":57,"time":120.98177083333415,"velocity":0.8031496062992126,"duration":0.4244791666666714},{"name":"F#4","midi":66,"time":120.98177083333415,"velocity":0.8031496062992126,"duration":0.2109375},{"name":"C5","midi":72,"time":121.19531250000082,"velocity":0.8031496062992126,"duration":0.2109375},{"name":"D3","midi":50,"time":121.4088541666675,"velocity":0.8031496062992126,"duration":1.0234375000000142},{"name":"G2","midi":43,"time":121.4088541666675,"velocity":0.8031496062992126,"duration":0.8450520833333428},{"name":"G4","midi":67,"time":121.4088541666675,"velocity":0.8031496062992126,"duration":0.2109375},{"name":"A#4","midi":70,"time":121.4088541666675,"velocity":0.8031496062992126,"duration":0.421875},{"name":"D4","midi":62,"time":121.6236979166675,"velocity":0.8031496062992126,"duration":0.2109375},{"name":"E4","midi":64,"time":121.83723958333417,"velocity":0.8031496062992126,"duration":0.2109375},{"name":"F#4","midi":66,"time":122.05078125000084,"velocity":0.8031496062992126,"duration":0.2109375},{"name":"G4","midi":67,"time":122.26432291666751,"velocity":0.8031496062992126,"duration":0.2109375},{"name":"G3","midi":55,"time":122.47786458333418,"velocity":0.8031496062992126,"duration":0.2109375},{"name":"A4","midi":69,"time":122.47786458333418,"velocity":0.8031496062992126,"duration":0.2109375},{"name":"F#3","midi":54,"time":122.69140625000085,"velocity":0.8031496062992126,"duration":0.2109375000000142},{"name":"A#4","midi":70,"time":122.69140625000085,"velocity":0.8031496062992126,"duration":0.1041666666666714},{"name":"A4","midi":69,"time":122.7981770833342,"velocity":0.8031496062992126,"duration":0.1041666666666714},{"name":"G3","midi":55,"time":122.90625000000087,"velocity":0.8031496062992126,"duration":0.2109375000000142},{"name":"G4","midi":67,"time":122.90625000000087,"velocity":0.8031496062992126,"duration":0.1041666666666714},{"name":"A4","midi":69,"time":123.01302083333421,"velocity":0.8031496062992126,"duration":0.1041666666666714},{"name":"D3","midi":50,"time":123.11979166666755,"velocity":0.8031496062992126,"duration":0.2109375},{"name":"A#4","midi":70,"time":123.11979166666755,"velocity":0.8031496062992126,"duration":0.4244791666666714},{"name":"G3","midi":55,"time":123.33333333333422,"velocity":0.8031496062992126,"duration":0.2109375},{"name":"D#3","midi":51,"time":123.5468750000009,"velocity":0.8031496062992126,"duration":0.2109375},{"name":"C5","midi":72,"time":123.5468750000009,"velocity":0.8031496062992126,"duration":0.4244791666666714},{"name":"G3","midi":55,"time":123.76041666666757,"velocity":0.8031496062992126,"duration":0.2109375},{"name":"D3","midi":50,"time":123.97395833333424,"velocity":0.8031496062992126,"duration":0.2109375},{"name":"A#4","midi":70,"time":123.97395833333424,"velocity":0.8031496062992126,"duration":0.4244791666666714},{"name":"G3","midi":55,"time":124.18750000000091,"velocity":0.8031496062992126,"duration":0.2109375},{"name":"C3","midi":48,"time":124.40234375000091,"velocity":0.8031496062992126,"duration":0.2109375},{"name":"A4","midi":69,"time":124.40234375000091,"velocity":0.8031496062992126,"duration":0.4244791666666714},{"name":"G3","midi":55,"time":124.61588541666758,"velocity":0.8031496062992126,"duration":0.2109375},{"name":"A#2","midi":46,"time":124.82942708333425,"velocity":0.8031496062992126,"duration":0.2109375},{"name":"G4","midi":67,"time":124.82942708333425,"velocity":0.8031496062992126,"duration":2.1367187500000426},{"name":"G3","midi":55,"time":125.04296875000092,"velocity":0.8031496062992126,"duration":0.2109375},{"name":"C3","midi":48,"time":125.2565104166676,"velocity":0.8031496062992126,"duration":0.2109375},{"name":"D#5","midi":75,"time":125.2565104166676,"velocity":0.8031496062992126,"duration":0.4244791666666714},{"name":"G3","midi":55,"time":125.47005208333427,"velocity":0.8031496062992126,"duration":0.2109375},{"name":"A#2","midi":46,"time":125.68489583333427,"velocity":0.8031496062992126,"duration":0.2109375},{"name":"D5","midi":74,"time":125.68489583333427,"velocity":0.8031496062992126,"duration":0.4244791666666714},{"name":"G3","midi":55,"time":125.89843750000094,"velocity":0.8031496062992126,"duration":0.2109375},{"name":"A2","midi":45,"time":126.11197916666761,"velocity":0.8031496062992126,"duration":0.2109375},{"name":"C5","midi":72,"time":126.11197916666761,"velocity":0.8031496062992126,"duration":0.4244791666666714},{"name":"G3","midi":55,"time":126.32552083333428,"velocity":0.8031496062992126,"duration":0.2109375},{"name":"G2","midi":43,"time":126.53906250000095,"velocity":0.8031496062992126,"duration":0.2109375},{"name":"A#4","midi":70,"time":126.53906250000095,"velocity":0.8031496062992126,"duration":0.4244791666666714},{"name":"G3","midi":55,"time":126.75260416666762,"velocity":0.8031496062992126,"duration":0.2109375},{"name":"A2","midi":45,"time":126.96744791666762,"velocity":0.8031496062992126,"duration":0.2109375},{"name":"G4","midi":67,"time":126.96744791666762,"velocity":0.8031496062992126,"duration":0.4244791666666714},{"name":"C5","midi":72,"time":126.96744791666762,"velocity":0.8031496062992126,"duration":0.4244791666666714},{"name":"G3","midi":55,"time":127.1809895833343,"velocity":0.8031496062992126,"duration":0.2109375},{"name":"B2","midi":47,"time":127.39453125000097,"velocity":0.8031496062992126,"duration":0.2109375},{"name":"F4","midi":65,"time":127.39453125000097,"velocity":0.8031496062992126,"duration":0.4244791666666714},{"name":"D5","midi":74,"time":127.39453125000097,"velocity":0.8031496062992126,"duration":0.4244791666666714},{"name":"G3","midi":55,"time":127.60807291666764,"velocity":0.8031496062992126,"duration":0.2109375},{"name":"C#3","midi":49,"time":127.82161458333431,"velocity":0.8031496062992126,"duration":0.2109375},{"name":"E4","midi":64,"time":127.82161458333431,"velocity":0.8031496062992126,"duration":0.4244791666666572},{"name":"E5","midi":76,"time":127.82161458333431,"velocity":0.8031496062992126,"duration":0.4244791666666572},{"name":"G3","midi":55,"time":128.03515625000097,"velocity":0.8031496062992126,"duration":0.2109375},{"name":"F3","midi":53,"time":128.25000000000097,"velocity":0.8031496062992126,"duration":0.2109375},{"name":"D4","midi":62,"time":128.25000000000097,"velocity":0.8031496062992126,"duration":0.4244791666666572},{"name":"A4","midi":69,"time":128.25000000000097,"velocity":0.8031496062992126,"duration":0.4244791666666572},{"name":"G3","midi":55,"time":128.46354166666762,"velocity":0.8031496062992126,"duration":0.2109375},{"name":"F3","midi":53,"time":128.67708333333428,"velocity":0.8031496062992126,"duration":0.2109375},{"name":"A4","midi":69,"time":128.67708333333428,"velocity":0.8031496062992126,"duration":0.421875},{"name":"D4","midi":62,"time":128.67708333333428,"velocity":0.8031496062992126,"duration":0.2109375},{"name":"E3","midi":52,"time":128.89062500000094,"velocity":0.8031496062992126,"duration":0.2109375},{"name":"E4","midi":64,"time":128.89062500000094,"velocity":0.8031496062992126,"duration":0.2109375},{"name":"D3","midi":50,"time":129.1041666666676,"velocity":0.8031496062992126,"duration":0.2109375},{"name":"D5","midi":74,"time":129.1041666666676,"velocity":0.8031496062992126,"duration":0.6380208333333144},{"name":"F4","midi":65,"time":129.1041666666676,"velocity":0.8031496062992126,"duration":0.6380208333333144},{"name":"E3","midi":52,"time":129.31770833333425,"velocity":0.8031496062992126,"duration":0.2109375},{"name":"F3","midi":53,"time":129.5312500000009,"velocity":0.8031496062992126,"duration":0.2109375},{"name":"D3","midi":50,"time":129.7460937500009,"velocity":0.8031496062992126,"duration":0.2109375},{"name":"F4","midi":65,"time":129.7460937500009,"velocity":0.8031496062992126,"duration":0.2109375},{"name":"D5","midi":74,"time":129.7460937500009,"velocity":0.8031496062992126,"duration":0.2109375},{"name":"G3","midi":55,"time":129.95963541666757,"velocity":0.8031496062992126,"duration":0.2109375},{"name":"E4","midi":64,"time":129.95963541666757,"velocity":0.8031496062992126,"duration":0.8450520833333144},{"name":"D5","midi":74,"time":129.95963541666757,"velocity":0.8031496062992126,"duration":0.6380208333333144},{"name":"A3","midi":57,"time":130.17317708333422,"velocity":0.8031496062992126,"duration":0.2109375},{"name":"G3","midi":55,"time":130.38671875000088,"velocity":0.8031496062992126,"duration":0.2109375},{"name":"F3","midi":53,"time":130.60026041666754,"velocity":0.8031496062992126,"duration":0.2109375},{"name":"E5","midi":76,"time":130.60026041666754,"velocity":0.8031496062992126,"duration":0.2109375},{"name":"E3","midi":52,"time":130.8138020833342,"velocity":0.8031496062992126,"duration":0.2109375},{"name":"D5","midi":74,"time":130.8138020833342,"velocity":0.8031496062992126,"duration":0.10416666666668561},{"name":"C#5","midi":73,"time":130.91276041666754,"velocity":0.8031496062992126,"duration":0.10416666666665719},{"name":"D5","midi":74,"time":130.99479166666754,"velocity":0.8031496062992126,"duration":0.10416666666665719},{"name":"A3","midi":57,"time":131.0286458333342,"velocity":0.8031496062992126,"duration":0.2109375},{"name":"C#5","midi":73,"time":131.07682291666754,"velocity":0.8031496062992126,"duration":0.10416666666665719},{"name":"D5","midi":74,"time":131.15885416666754,"velocity":0.8031496062992126,"duration":0.10416666666665719},{"name":"G3","midi":55,"time":131.24218750000085,"velocity":0.8031496062992126,"duration":0.2109375},{"name":"C#5","midi":73,"time":131.24218750000085,"velocity":0.8031496062992126,"duration":0.2109375},{"name":"A3","midi":57,"time":131.4557291666675,"velocity":0.8031496062992126,"duration":0.2109375},{"name":"D5","midi":74,"time":131.4557291666675,"velocity":0.8031496062992126,"duration":0.2109375},{"name":"F3","midi":53,"time":131.66927083333417,"velocity":0.8031496062992126,"duration":0.8450520833333144},{"name":"D5","midi":74,"time":131.66927083333417,"velocity":0.8031496062992126,"duration":0.2109375},{"name":"A4","midi":69,"time":131.88281250000082,"velocity":0.8031496062992126,"duration":0.2109375},{"name":"A3","midi":57,"time":132.09635416666748,"velocity":0.8031496062992126,"duration":0.4244791666666572},{"name":"B4","midi":71,"time":132.09635416666748,"velocity":0.8031496062992126,"duration":0.2109375},{"name":"C#5","midi":73,"time":132.31119791666748,"velocity":0.8031496062992126,"duration":0.2109375},{"name":"D4","midi":62,"time":132.52473958333414,"velocity":0.8031496062992126,"duration":0.4244791666666572},{"name":"D5","midi":74,"time":132.52473958333414,"velocity":0.8031496062992126,"duration":0.2109375},{"name":"E5","midi":76,"time":132.7382812500008,"velocity":0.8031496062992126,"duration":0.2109375},{"name":"A#3","midi":58,"time":132.95182291666745,"velocity":0.8031496062992126,"duration":0.4244791666666572},{"name":"D4","midi":62,"time":132.95182291666745,"velocity":0.8031496062992126,"duration":0.4244791666666572},{"name":"F5","midi":77,"time":132.95182291666745,"velocity":0.8031496062992126,"duration":0.2109375},{"name":"D5","midi":74,"time":133.1653645833341,"velocity":0.8031496062992126,"duration":0.2109375},{"name":"A#3","midi":58,"time":133.37890625000077,"velocity":0.8031496062992126,"duration":0.8450520833333144},{"name":"D4","midi":62,"time":133.37890625000077,"velocity":0.8031496062992126,"duration":0.4244791666666572},{"name":"G5","midi":79,"time":133.37890625000077,"velocity":0.8031496062992126,"duration":0.2109375},{"name":"A5","midi":81,"time":133.59375000000077,"velocity":0.8031496062992126,"duration":0.2109375},{"name":"C#4","midi":61,"time":133.80729166666742,"velocity":0.8031496062992126,"duration":0.2109375},{"name":"G5","midi":79,"time":133.80729166666742,"velocity":0.8031496062992126,"duration":0.2109375},{"name":"D4","midi":62,"time":134.02083333333408,"velocity":0.8031496062992126,"duration":0.2109375},{"name":"F5","midi":77,"time":134.02083333333408,"velocity":0.8031496062992126,"duration":0.2109375},{"name":"E4","midi":64,"time":134.23437500000074,"velocity":0.8031496062992126,"duration":0.4244791666666572},{"name":"E5","midi":76,"time":134.23437500000074,"velocity":0.8031496062992126,"duration":0.2109375},{"name":"A5","midi":81,"time":134.4479166666674,"velocity":0.8031496062992126,"duration":0.2109375},{"name":"A3","midi":57,"time":134.66145833333405,"velocity":0.8031496062992126,"duration":0.4244791666666572},{"name":"C#4","midi":61,"time":134.66145833333405,"velocity":0.8031496062992126,"duration":0.4244791666666572},{"name":"E4","midi":64,"time":134.66145833333405,"velocity":0.8031496062992126,"duration":0.4244791666666572},{"name":"G5","midi":79,"time":134.66145833333405,"velocity":0.8031496062992126,"duration":0.2109375},{"name":"A5","midi":81,"time":134.8750000000007,"velocity":0.8031496062992126,"duration":0.2109375},{"name":"E4","midi":64,"time":135.0898437500007,"velocity":0.8031496062992126,"duration":0.4244791666666572},{"name":"D3","midi":50,"time":135.0898437500007,"velocity":0.8031496062992126,"duration":0.6223958333333144},{"name":"A3","midi":57,"time":135.0898437500007,"velocity":0.8031496062992126,"duration":0.8450520833333144},{"name":"F5","midi":77,"time":135.0898437500007,"velocity":0.8031496062992126,"duration":0.2109375},{"name":"G5","midi":79,"time":135.30338541666737,"velocity":0.8031496062992126,"duration":0.2109375},{"name":"D4","midi":62,"time":135.51692708333402,"velocity":0.8031496062992126,"duration":0.2109375},{"name":"F5","midi":77,"time":135.51692708333402,"velocity":0.8031496062992126,"duration":0.2109375},{"name":"E4","midi":64,"time":135.73046875000068,"velocity":0.8031496062992126,"duration":0.2109375},{"name":"E5","midi":76,"time":135.73046875000068,"velocity":0.8031496062992126,"duration":0.2109375},{"name":"F4","midi":65,"time":135.94401041666734,"velocity":0.8031496062992126,"duration":0.4244791666666572},{"name":"D5","midi":74,"time":135.94401041666734,"velocity":0.8031496062992126,"duration":0.2109375},{"name":"F5","midi":77,"time":136.157552083334,"velocity":0.8031496062992126,"duration":0.2109375},{"name":"F4","midi":65,"time":136.372395833334,"velocity":0.8031496062992126,"duration":0.4244791666666572},{"name":"D4","midi":62,"time":136.372395833334,"velocity":0.8031496062992126,"duration":0.4244791666666572},{"name":"G5","midi":79,"time":136.372395833334,"velocity":0.8031496062992126,"duration":0.2109375},{"name":"A5","midi":81,"time":136.58593750000065,"velocity":0.8031496062992126,"duration":0.2109375},{"name":"D4","midi":62,"time":136.7994791666673,"velocity":0.8031496062992126,"duration":0.421875},{"name":"G3","midi":55,"time":136.7994791666673,"velocity":0.8031496062992126,"duration":0.421875},{"name":"F4","midi":65,"time":136.7994791666673,"velocity":0.8031496062992126,"duration":0.4244791666666572},{"name":"A#5","midi":82,"time":136.7994791666673,"velocity":0.8031496062992126,"duration":0.2109375},{"name":"C6","midi":84,"time":137.01302083333397,"velocity":0.8031496062992126,"duration":0.2109375},{"name":"E4","midi":64,"time":137.22656250000063,"velocity":0.8031496062992126,"duration":0.2109375},{"name":"A#5","midi":82,"time":137.22656250000063,"velocity":0.8031496062992126,"duration":0.2109375},{"name":"F4","midi":65,"time":137.44010416666728,"velocity":0.8031496062992126,"duration":0.2109375},{"name":"A5","midi":81,"time":137.44010416666728,"velocity":0.8031496062992126,"duration":0.2109375},{"name":"G4","midi":67,"time":137.65494791666728,"velocity":0.8031496062992126,"duration":0.4244791666666572},{"name":"G5","midi":79,"time":137.65494791666728,"velocity":0.8031496062992126,"duration":0.2109375},{"name":"C6","midi":84,"time":137.86848958333394,"velocity":0.8031496062992126,"duration":0.2109375},{"name":"E4","midi":64,"time":138.0820312500006,"velocity":0.8031496062992126,"duration":0.4244791666666572},{"name":"C4","midi":60,"time":138.0820312500006,"velocity":0.8031496062992126,"duration":0.4244791666666572},{"name":"G4","midi":67,"time":138.0820312500006,"velocity":0.8031496062992126,"duration":0.4244791666666572},{"name":"A#5","midi":82,"time":138.0820312500006,"velocity":0.8031496062992126,"duration":0.2109375},{"name":"C6","midi":84,"time":138.29557291666725,"velocity":0.8031496062992126,"duration":0.2109375},{"name":"G4","midi":67,"time":138.5091145833339,"velocity":0.8031496062992126,"duration":0.4244791666666572},{"name":"C4","midi":60,"time":138.5091145833339,"velocity":0.8031496062992126,"duration":0.8450520833333144},{"name":"F3","midi":53,"time":138.5091145833339,"velocity":0.8031496062992126,"duration":0.8450520833333144},{"name":"A5","midi":81,"time":138.5091145833339,"velocity":0.8031496062992126,"duration":0.2109375},{"name":"A#5","midi":82,"time":138.72265625000057,"velocity":0.8031496062992126,"duration":0.2109375},{"name":"F4","midi":65,"time":138.93750000000057,"velocity":0.8031496062992126,"duration":0.2109375},{"name":"A5","midi":81,"time":138.93750000000057,"velocity":0.8031496062992126,"duration":0.2109375},{"name":"G4","midi":67,"time":139.15104166666723,"velocity":0.8031496062992126,"duration":0.2109375},{"name":"G5","midi":79,"time":139.15104166666723,"velocity":0.8031496062992126,"duration":0.2109375},{"name":"A4","midi":69,"time":139.36458333333388,"velocity":0.8031496062992126,"duration":0.4244791666666572},{"name":"F5","midi":77,"time":139.36458333333388,"velocity":0.8031496062992126,"duration":0.2109375},{"name":"E5","midi":76,"time":139.57812500000054,"velocity":0.8031496062992126,"duration":0.2109375},{"name":"A4","midi":69,"time":139.7916666666672,"velocity":0.8031496062992126,"duration":0.4244791666666572},{"name":"F4","midi":65,"time":139.7916666666672,"velocity":0.8031496062992126,"duration":0.4244791666666572},{"name":"D5","midi":74,"time":139.7916666666672,"velocity":0.8031496062992126,"duration":0.2109375},{"name":"C#5","midi":73,"time":140.00520833333385,"velocity":0.8031496062992126,"duration":0.2109375},{"name":"B3","midi":59,"time":140.2187500000005,"velocity":0.8031496062992126,"duration":0.4244791666666572},{"name":"D5","midi":74,"time":140.2187500000005,"velocity":0.8031496062992126,"duration":1.7070312499999432},{"name":"A4","midi":69,"time":140.2187500000005,"velocity":0.8031496062992126,"duration":0.2109375},{"name":"C5","midi":72,"time":140.4335937500005,"velocity":0.8031496062992126,"duration":0.2109375},{"name":"C4","midi":60,"time":140.64713541666717,"velocity":0.8031496062992126,"duration":0.2109375},{"name":"B4","midi":71,"time":140.64713541666717,"velocity":0.8031496062992126,"duration":0.2109375},{"name":"D4","midi":62,"time":140.86067708333383,"velocity":0.8031496062992126,"duration":0.2109375},{"name":"A4","midi":69,"time":140.86067708333383,"velocity":0.8031496062992126,"duration":0.2109375},{"name":"E4","midi":64,"time":141.07421875000048,"velocity":0.8031496062992126,"duration":0.4244791666666572},{"name":"G#4","midi":68,"time":141.07421875000048,"velocity":0.8031496062992126,"duration":0.2109375},{"name":"A4","midi":69,"time":141.28776041666714,"velocity":0.8031496062992126,"duration":0.2109375},{"name":"E3","midi":52,"time":141.5013020833338,"velocity":0.8031496062992126,"duration":0.4244791666666572},{"name":"F#4","midi":66,"time":141.5013020833338,"velocity":0.8031496062992126,"duration":0.2109375},{"name":"G#4","midi":68,"time":141.7161458333338,"velocity":0.8031496062992126,"duration":0.2109375},{"name":"A3","midi":57,"time":141.92968750000045,"velocity":0.8031496062992126,"duration":1.0664062499999716},{"name":"A4","midi":69,"time":141.92968750000045,"velocity":0.8031496062992126,"duration":1.4869791666666288},{"name":"D5","midi":74,"time":142.1432291666671,"velocity":0.8031496062992126,"duration":0.2109375},{"name":"C5","midi":72,"time":142.35677083333377,"velocity":0.8031496062992126,"duration":0.2109375},{"name":"B4","midi":71,"time":142.57031250000043,"velocity":0.8031496062992126,"duration":0.2109375},{"name":"C5","midi":72,"time":142.78385416666708,"velocity":0.8031496062992126,"duration":0.2109375},{"name":"G3","midi":55,"time":142.99869791666708,"velocity":0.8031496062992126,"duration":0.2109375},{"name":"B4","midi":71,"time":142.99869791666708,"velocity":0.8031496062992126,"duration":0.2109375},{"name":"F3","midi":53,"time":143.21223958333374,"velocity":0.8031496062992126,"duration":0.2109375},{"name":"C5","midi":72,"time":143.21223958333374,"velocity":0.8031496062992126,"duration":0.2109375},{"name":"E3","midi":52,"time":143.4257812500004,"velocity":0.8031496062992126,"duration":0.2109375},{"name":"A4","midi":69,"time":143.4257812500004,"velocity":0.8031496062992126,"duration":0.2109375},{"name":"D3","midi":50,"time":143.63932291666706,"velocity":0.8031496062992126,"duration":0.2109375},{"name":"A#4","midi":70,"time":143.63932291666706,"velocity":0.8031496062992126,"duration":1.4908854166666288},{"name":"A#2","midi":46,"time":143.8528645833337,"velocity":0.8031496062992126,"duration":0.2109375},{"name":"C3","midi":48,"time":144.06640625000037,"velocity":0.8031496062992126,"duration":0.2109375},{"name":"D3","midi":50,"time":144.28125000000037,"velocity":0.8031496062992126,"duration":0.2109375},{"name":"A4","midi":69,"time":144.28125000000037,"velocity":0.8031496062992126,"duration":0.2109375},{"name":"D#3","midi":51,"time":144.49479166666703,"velocity":0.8031496062992126,"duration":0.2109375},{"name":"G4","midi":67,"time":144.49479166666703,"velocity":0.8031496062992126,"duration":1.4908854166666288},{"name":"F3","midi":53,"time":144.70833333333368,"velocity":0.8031496062992126,"duration":0.2109375},{"name":"G3","midi":55,"time":144.92187500000034,"velocity":0.8031496062992126,"duration":0.2109375},{"name":"D#3","midi":51,"time":145.135416666667,"velocity":0.8031496062992126,"duration":0.2109375},{"name":"A#4","midi":70,"time":145.135416666667,"velocity":0.8031496062992126,"duration":0.2109375},{"name":"C#3","midi":49,"time":145.34895833333366,"velocity":0.8031496062992126,"duration":0.2109375},{"name":"A4","midi":69,"time":145.34895833333366,"velocity":0.8031496062992126,"duration":1.4908854166666288},{"name":"D3","midi":50,"time":145.5625000000003,"velocity":0.8031496062992126,"duration":0.2109375},{"name":"C#3","midi":49,"time":145.7773437500003,"velocity":0.8031496062992126,"duration":0.2109375},{"name":"B2","midi":47,"time":145.99088541666697,"velocity":0.8031496062992126,"duration":0.2109375},{"name":"G4","midi":67,"time":145.99088541666697,"velocity":0.8031496062992126,"duration":0.2109375},{"name":"A2","midi":45,"time":146.20442708333363,"velocity":0.8031496062992126,"duration":0.2109375},{"name":"F4","midi":65,"time":146.20442708333363,"velocity":0.8031496062992126,"duration":0.6380208333333144},{"name":"D3","midi":50,"time":146.41796875000028,"velocity":0.8031496062992126,"duration":0.2109375},{"name":"C3","midi":48,"time":146.63151041666694,"velocity":0.8031496062992126,"duration":0.2109375},{"name":"D3","midi":50,"time":146.8450520833336,"velocity":0.8031496062992126,"duration":0.2109375},{"name":"A4","midi":69,"time":146.8450520833336,"velocity":0.8031496062992126,"duration":0.2109375},{"name":"F4","midi":65,"time":146.8450520833336,"velocity":0.8031496062992126,"duration":0.421875},{"name":"G2","midi":43,"time":147.0598958333336,"velocity":0.8031496062992126,"duration":0.8515624999999716},{"name":"A4","midi":69,"time":147.0598958333336,"velocity":0.8031496062992126,"duration":0.2109375},{"name":"E4","midi":64,"time":147.27343750000026,"velocity":0.8031496062992126,"duration":0.2109375},{"name":"C5","midi":72,"time":147.27343750000026,"velocity":0.8031496062992126,"duration":0.2109375},{"name":"A#4","midi":70,"time":147.4869791666669,"velocity":0.8031496062992126,"duration":0.2109375},{"name":"D4","midi":62,"time":147.4869791666669,"velocity":0.8031496062992126,"duration":0.2109375},{"name":"C4","midi":60,"time":147.70052083333357,"velocity":0.8031496062992126,"duration":0.2109375},{"name":"A4","midi":69,"time":147.70052083333357,"velocity":0.8031496062992126,"duration":0.2109375},{"name":"A#3","midi":58,"time":147.91406250000023,"velocity":0.8031496062992126,"duration":0.2109375},{"name":"G4","midi":67,"time":147.91406250000023,"velocity":0.8031496062992126,"duration":0.2109375},{"name":"A3","midi":57,"time":148.12760416666688,"velocity":0.8031496062992126,"duration":0.2109375},{"name":"F4","midi":65,"time":148.12760416666688,"velocity":0.8031496062992126,"duration":0.2109375},{"name":"G3","midi":55,"time":148.34244791666688,"velocity":0.8031496062992126,"duration":0.2109375},{"name":"E4","midi":64,"time":148.34244791666688,"velocity":0.8031496062992126,"duration":0.2109375},{"name":"F3","midi":53,"time":148.55598958333354,"velocity":0.8031496062992126,"duration":0.2109375},{"name":"D4","midi":62,"time":148.55598958333354,"velocity":0.8031496062992126,"duration":0.2109375},{"name":"E3","midi":52,"time":148.7695312500002,"velocity":0.8031496062992126,"duration":0.8450520833333144},{"name":"C#4","midi":61,"time":148.7695312500002,"velocity":0.8031496062992126,"duration":0.4244791666666572},{"name":"A#2","midi":46,"time":148.98307291666686,"velocity":0.8031496062992126,"duration":0.2109375},{"name":"A2","midi":45,"time":149.1966145833335,"velocity":0.8031496062992126,"duration":0.2109375},{"name":"A3","midi":57,"time":149.1966145833335,"velocity":0.8031496062992126,"duration":0.4244791666666572},{"name":"G2","midi":43,"time":149.41015625000017,"velocity":0.8031496062992126,"duration":0.2109375},{"name":"F2","midi":41,"time":149.62500000000017,"velocity":0.8031496062992126,"duration":0.2109375},{"name":"D4","midi":62,"time":149.62500000000017,"velocity":0.8031496062992126,"duration":0.6380208333333144},{"name":"A4","midi":69,"time":149.62500000000017,"velocity":0.8031496062992126,"duration":0.6380208333333144},{"name":"A3","midi":57,"time":149.62500000000017,"velocity":0.8031496062992126,"duration":0.6380208333333144},{"name":"E2","midi":40,"time":149.83854166666683,"velocity":0.8031496062992126,"duration":0.2109375},{"name":"D2","midi":38,"time":150.05208333333348,"velocity":0.8031496062992126,"duration":0.2109375},{"name":"C#2","midi":37,"time":150.26562500000014,"velocity":0.8031496062992126,"duration":0.2109375},{"name":"E4","midi":64,"time":150.26562500000014,"velocity":0.8031496062992126,"duration":0.2109375},{"name":"A3","midi":57,"time":150.26562500000014,"velocity":0.8031496062992126,"duration":0.2109375},{"name":"D2","midi":38,"time":150.4791666666668,"velocity":0.8031496062992126,"duration":0.4244791666666572},{"name":"D4","midi":62,"time":150.4791666666668,"velocity":0.8031496062992126,"duration":0.8450520833333144},{"name":"F4","midi":65,"time":150.4791666666668,"velocity":0.8031496062992126,"duration":0.6223958333333144},{"name":"A3","midi":57,"time":150.4791666666668,"velocity":0.8031496062992126,"duration":0.4244791666666572},{"name":"G2","midi":43,"time":150.9062500000001,"velocity":0.8031496062992126,"duration":0.4244791666666572},{"name":"B3","midi":59,"time":150.9062500000001,"velocity":0.8031496062992126,"duration":0.421875},{"name":"G4","midi":67,"time":151.1210937500001,"velocity":0.8031496062992126,"duration":0.2109375},{"name":"A2","midi":45,"time":151.33463541666677,"velocity":0.8031496062992126,"duration":0.4244791666666572},{"name":"F4","midi":65,"time":151.33463541666677,"velocity":0.8031496062992126,"duration":0.15104166666668561},{"name":"C#4","midi":61,"time":151.33463541666677,"velocity":0.8031496062992126,"duration":0.6223958333333144},{"name":"E4","midi":64,"time":151.4765625000001,"velocity":0.8031496062992126,"duration":0.10416666666665719},{"name":"F4","midi":65,"time":151.5742187500001,"velocity":0.8031496062992126,"duration":0.10416666666665719},{"name":"E4","midi":64,"time":151.67317708333343,"velocity":0.8031496062992126,"duration":0.10416666666665719},{"name":"A2","midi":45,"time":151.76171875000009,"velocity":0.8031496062992126,"duration":0.4244791666666572},{"name":"F4","midi":65,"time":151.77083333333343,"velocity":0.8031496062992126,"duration":0.10416666666665719},{"name":"E4","midi":64,"time":151.86848958333343,"velocity":0.8031496062992126,"duration":0.10416666666665719},{"name":"D4","midi":62,"time":151.97526041666674,"velocity":0.8031496062992126,"duration":0.2109375},{"name":"D2","midi":38,"time":152.1888020833334,"velocity":0.8031496062992126,"duration":1.0677083333333144},{"name":"D4","midi":62,"time":152.1888020833334,"velocity":0.8031496062992126,"duration":0.2109375},{"name":"E4","midi":64,"time":152.4036458333334,"velocity":0.8031496062992126,"duration":0.2109375},{"name":"F4","midi":65,"time":152.61718750000006,"velocity":0.8031496062992126,"duration":0.2109375},{"name":"A4","midi":69,"time":152.8307291666667,"velocity":0.8031496062992126,"duration":0.2109375},{"name":"F4","midi":65,"time":153.04427083333337,"velocity":0.8031496062992126,"duration":0.2109375},{"name":"G4","midi":67,"time":153.25781250000006,"velocity":0.8031496062992126,"duration":0.2109375},{"name":"D4","midi":62,"time":153.4713541666667,"velocity":0.8031496062992126,"duration":0.4244791666666572},{"name":"A4","midi":69,"time":153.4713541666667,"velocity":0.8031496062992126,"duration":0.2109375},{"name":"D5","midi":74,"time":153.6861979166667,"velocity":0.8031496062992126,"duration":0.2109375},{"name":"B3","midi":59,"time":153.89973958333337,"velocity":0.8031496062992126,"duration":0.4244791666666572},{"name":"G4","midi":67,"time":153.89973958333337,"velocity":0.8031496062992126,"duration":0.2109375},{"name":"A4","midi":69,"time":154.11328125000003,"velocity":0.8031496062992126,"duration":0.2109375},{"name":"G3","midi":55,"time":154.32682291666669,"velocity":0.8031496062992126,"duration":0.6223958333333144},{"name":"B4","midi":71,"time":154.32682291666669,"velocity":0.8031496062992126,"duration":0.2109375},{"name":"D5","midi":74,"time":154.54036458333334,"velocity":0.8031496062992126,"duration":0.2109375},{"name":"B4","midi":71,"time":154.75390625,"velocity":0.8031496062992126,"duration":0.2109375},{"name":"C5","midi":72,"time":154.96875,"velocity":0.8031496062992126,"duration":0.2109375},{"name":"G3","midi":55,"time":155.18229166666666,"velocity":0.8031496062992126,"duration":0.4244791666666572},{"name":"D5","midi":74,"time":155.18229166666666,"velocity":0.8031496062992126,"duration":0.2109375},{"name":"G5","midi":79,"time":155.39583333333331,"velocity":0.8031496062992126,"duration":0.2109375},{"name":"E3","midi":52,"time":155.60937499999997,"velocity":0.8031496062992126,"duration":0.4244791666666572},{"name":"C4","midi":60,"time":155.60937499999997,"velocity":0.8031496062992126,"duration":0.2109375},{"name":"D4","midi":62,"time":155.82291666666663,"velocity":0.8031496062992126,"duration":0.2109375},{"name":"C3","midi":48,"time":156.0364583333333,"velocity":0.8031496062992126,"duration":0.6223958333333144},{"name":"E4","midi":64,"time":156.0364583333333,"velocity":0.8031496062992126,"duration":0.2109375},{"name":"G4","midi":67,"time":156.24999999999994,"velocity":0.8031496062992126,"duration":0.2109375},{"name":"E4","midi":64,"time":156.46484374999994,"velocity":0.8031496062992126,"duration":0.2109375},{"name":"F4","midi":65,"time":156.6783854166666,"velocity":0.8031496062992126,"duration":0.2109375},{"name":"C4","midi":60,"time":156.89192708333326,"velocity":0.8031496062992126,"duration":0.4244791666666572},{"name":"G4","midi":67,"time":156.89192708333326,"velocity":0.8031496062992126,"duration":0.2109375},{"name":"C5","midi":72,"time":157.10546874999991,"velocity":0.8031496062992126,"duration":0.2109375},{"name":"A3","midi":57,"time":157.31901041666657,"velocity":0.8031496062992126,"duration":0.4244791666666572},{"name":"F4","midi":65,"time":157.31901041666657,"velocity":0.8031496062992126,"duration":0.2109375},{"name":"G4","midi":67,"time":157.53255208333323,"velocity":0.8031496062992126,"duration":0.2109375},{"name":"F3","midi":53,"time":157.74739583333323,"velocity":0.8031496062992126,"duration":0.6223958333333144},{"name":"A4","midi":69,"time":157.74739583333323,"velocity":0.8031496062992126,"duration":0.2109375},{"name":"C5","midi":72,"time":157.9609374999999,"velocity":0.8031496062992126,"duration":0.2109375},{"name":"A4","midi":69,"time":158.17447916666654,"velocity":0.8031496062992126,"duration":0.2109375},{"name":"A#4","midi":70,"time":158.3880208333332,"velocity":0.8031496062992126,"duration":0.2109375},{"name":"F3","midi":53,"time":158.60156249999986,"velocity":0.8031496062992126,"duration":0.4244791666666572},{"name":"C5","midi":72,"time":158.60156249999986,"velocity":0.8031496062992126,"duration":0.2109375},{"name":"F5","midi":77,"time":158.81510416666652,"velocity":0.8031496062992126,"duration":0.2109375},{"name":"D3","midi":50,"time":159.02994791666652,"velocity":0.8031496062992126,"duration":0.4244791666666572},{"name":"B3","midi":59,"time":159.02994791666652,"velocity":0.8031496062992126,"duration":0.2109375},{"name":"C4","midi":60,"time":159.24348958333317,"velocity":0.8031496062992126,"duration":0.2109375},{"name":"B2","midi":47,"time":159.45703124999983,"velocity":0.8031496062992126,"duration":0.6223958333333144},{"name":"D4","midi":62,"time":159.45703124999983,"velocity":0.8031496062992126,"duration":0.2109375},{"name":"F4","midi":65,"time":159.6705729166665,"velocity":0.8031496062992126,"duration":0.2109375},{"name":"D4","midi":62,"time":159.88411458333314,"velocity":0.8031496062992126,"duration":0.2109375},{"name":"E4","midi":64,"time":160.0976562499998,"velocity":0.8031496062992126,"duration":0.2109375},{"name":"B3","midi":59,"time":160.3124999999998,"velocity":0.8031496062992126,"duration":0.4244791666666572},{"name":"F4","midi":65,"time":160.3124999999998,"velocity":0.8031496062992126,"duration":0.2109375},{"name":"B4","midi":71,"time":160.52604166666646,"velocity":0.8031496062992126,"duration":0.2109375},{"name":"G#3","midi":56,"time":160.73958333333312,"velocity":0.8031496062992126,"duration":0.4244791666666572},{"name":"E4","midi":64,"time":160.73958333333312,"velocity":0.8031496062992126,"duration":0.2109375},{"name":"F#4","midi":66,"time":160.95312499999977,"velocity":0.8031496062992126,"duration":0.2109375},{"name":"E3","midi":52,"time":161.16666666666643,"velocity":0.8031496062992126,"duration":0.6223958333333144},{"name":"G#4","midi":68,"time":161.16666666666643,"velocity":0.8031496062992126,"duration":0.2109375},{"name":"B4","midi":71,"time":161.3802083333331,"velocity":0.8031496062992126,"duration":0.2109375},{"name":"G#4","midi":68,"time":161.59374999999974,"velocity":0.8031496062992126,"duration":0.2109375},{"name":"A4","midi":69,"time":161.80859374999974,"velocity":0.8031496062992126,"duration":0.2109375},{"name":"E3","midi":52,"time":162.0221354166664,"velocity":0.8031496062992126,"duration":0.4244791666666572},{"name":"B4","midi":71,"time":162.0221354166664,"velocity":0.8031496062992126,"duration":0.2109375},{"name":"E5","midi":76,"time":162.23567708333306,"velocity":0.8031496062992126,"duration":0.2109375},{"name":"C3","midi":48,"time":162.44921874999972,"velocity":0.8031496062992126,"duration":0.4244791666666572},{"name":"A4","midi":69,"time":162.44921874999972,"velocity":0.8031496062992126,"duration":0.2109375},{"name":"B4","midi":71,"time":162.66276041666637,"velocity":0.8031496062992126,"duration":0.2109375},{"name":"A2","midi":45,"time":162.87630208333303,"velocity":0.8031496062992126,"duration":0.6223958333333144},{"name":"C5","midi":72,"time":162.87630208333303,"velocity":0.8031496062992126,"duration":0.2109375},{"name":"E5","midi":76,"time":163.09114583333303,"velocity":0.8031496062992126,"duration":0.2109375},{"name":"G4","midi":67,"time":163.3046874999997,"velocity":0.8031496062992126,"duration":0.2109375},{"name":"A4","midi":69,"time":163.51822916666634,"velocity":0.8031496062992126,"duration":0.2109375},{"name":"C#3","midi":49,"time":163.731770833333,"velocity":0.8031496062992126,"duration":0.4244791666666572},{"name":"A#4","midi":70,"time":163.731770833333,"velocity":0.8031496062992126,"duration":0.2109375},{"name":"E5","midi":76,"time":163.94531249999966,"velocity":0.8031496062992126,"duration":0.2109375},{"name":"D3","midi":50,"time":164.15885416666632,"velocity":0.8031496062992126,"duration":0.4244791666666572},{"name":"F#4","midi":66,"time":164.15885416666632,"velocity":0.8031496062992126,"duration":0.2109375},{"name":"G4","midi":67,"time":164.37369791666632,"velocity":0.8031496062992126,"duration":0.2109375},{"name":"D2","midi":38,"time":164.58723958333297,"velocity":0.8031496062992126,"duration":0.6223958333333144},{"name":"A4","midi":69,"time":164.58723958333297,"velocity":0.8031496062992126,"duration":0.2109375},{"name":"E5","midi":76,"time":164.80078124999963,"velocity":0.8031496062992126,"duration":0.2109375},{"name":"F4","midi":65,"time":165.0143229166663,"velocity":0.8031496062992126,"duration":0.2109375},{"name":"G4","midi":67,"time":165.22786458333294,"velocity":0.8031496062992126,"duration":0.2109375},{"name":"F3","midi":53,"time":165.4414062499996,"velocity":0.8031496062992126,"duration":0.4244791666666572},{"name":"A4","midi":69,"time":165.4414062499996,"velocity":0.8031496062992126,"duration":0.2109375},{"name":"D5","midi":74,"time":165.6562499999996,"velocity":0.8031496062992126,"duration":0.2109375},{"name":"G#2","midi":44,"time":165.86979166666626,"velocity":0.8031496062992126,"duration":0.4244791666666572},{"name":"E4","midi":64,"time":165.86979166666626,"velocity":0.8031496062992126,"duration":0.2109375},{"name":"F#4","midi":66,"time":166.08333333333292,"velocity":0.8031496062992126,"duration":0.2109375},{"name":"E3","midi":52,"time":166.29687499999957,"velocity":0.8031496062992126,"duration":0.6223958333333144},{"name":"G#4","midi":68,"time":166.29687499999957,"velocity":0.8031496062992126,"duration":0.2109375},{"name":"D5","midi":74,"time":166.51041666666623,"velocity":0.8031496062992126,"duration":0.2109375},{"name":"E4","midi":64,"time":166.7239583333329,"velocity":0.8031496062992126,"duration":0.2109375},{"name":"G#4","midi":68,"time":166.93749999999955,"velocity":0.8031496062992126,"duration":0.2109375},{"name":"A3","midi":57,"time":167.15234374999955,"velocity":0.8031496062992126,"duration":0.4244791666666572},{"name":"A4","midi":69,"time":167.15234374999955,"velocity":0.8031496062992126,"duration":0.2109375},{"name":"C5","midi":72,"time":167.3658854166662,"velocity":0.8031496062992126,"duration":0.2109375},{"name":"B3","midi":59,"time":167.57942708333286,"velocity":0.8031496062992126,"duration":0.4244791666666572},{"name":"D#4","midi":63,"time":167.57942708333286,"velocity":0.8031496062992126,"duration":0.2109375},{"name":"E4","midi":64,"time":167.79296874999952,"velocity":0.8031496062992126,"duration":0.2109375},{"name":"A3","midi":57,"time":168.00651041666617,"velocity":0.8031496062992126,"duration":0.4244791666666572},{"name":"F#4","midi":66,"time":168.00651041666617,"velocity":0.8031496062992126,"duration":0.2109375},{"name":"C5","midi":72,"time":168.22005208333283,"velocity":0.8031496062992126,"duration":0.2109375},{"name":"B3","midi":59,"time":168.43489583333283,"velocity":0.8031496062992126,"duration":0.4244791666666572},{"name":"D4","midi":62,"time":168.43489583333283,"velocity":0.8031496062992126,"duration":0.2109375},{"name":"E4","midi":64,"time":168.6484374999995,"velocity":0.8031496062992126,"duration":0.2109375},{"name":"G#3","midi":56,"time":168.86197916666615,"velocity":0.8031496062992126,"duration":0.4244791666666572},{"name":"F4","midi":65,"time":168.86197916666615,"velocity":0.8031496062992126,"duration":0.2109375},{"name":"B4","midi":71,"time":169.0755208333328,"velocity":0.8031496062992126,"duration":0.2669270833333144},{"name":"A3","midi":57,"time":169.28906249999946,"velocity":0.8031496062992126,"duration":0.4244791666666572},{"name":"C#4","midi":61,"time":169.28906249999946,"velocity":0.8031496062992126,"duration":0.2109375},{"name":"D4","midi":62,"time":169.50260416666612,"velocity":0.8031496062992126,"duration":0.2109375},{"name":"G3","midi":55,"time":169.71744791666612,"velocity":0.8031496062992126,"duration":0.4244791666666572},{"name":"E4","midi":64,"time":169.71744791666612,"velocity":0.8031496062992126,"duration":0.2109375},{"name":"B4","midi":71,"time":169.93098958333277,"velocity":0.8031496062992126,"duration":0.3333333333333144},{"name":"F3","midi":53,"time":170.14453124999943,"velocity":0.8031496062992126,"duration":0.4244791666666572},{"name":"C4","midi":60,"time":170.14453124999943,"velocity":0.8031496062992126,"duration":0.2109375},{"name":"D4","midi":62,"time":170.3580729166661,"velocity":0.8031496062992126,"duration":0.2109375},{"name":"C3","midi":48,"time":170.57161458333275,"velocity":0.8031496062992126,"duration":0.4244791666666572},{"name":"E4","midi":64,"time":170.57161458333275,"velocity":0.8031496062992126,"duration":0.2109375},{"name":"A4","midi":69,"time":170.7851562499994,"velocity":0.8031496062992126,"duration":0.4453125},{"name":"D3","midi":50,"time":170.9999999999994,"velocity":0.8031496062992126,"duration":0.4244791666666572},{"name":"B3","midi":59,"time":170.9999999999994,"velocity":0.8031496062992126,"duration":0.2109375},{"name":"C4","midi":60,"time":171.21354166666606,"velocity":0.8031496062992126,"duration":0.2109375},{"name":"B2","midi":47,"time":171.42708333333272,"velocity":0.8031496062992126,"duration":0.4244791666666572},{"name":"D4","midi":62,"time":171.42708333333272,"velocity":0.8031496062992126,"duration":0.2109375},{"name":"A4","midi":69,"time":171.64062499999937,"velocity":0.8031496062992126,"duration":0.6223958333333144},{"name":"E3","midi":52,"time":171.85416666666603,"velocity":0.8031496062992126,"duration":0.4244791666666572},{"name":"B3","midi":59,"time":171.85416666666603,"velocity":0.8031496062992126,"duration":0.2109375},{"name":"C4","midi":60,"time":172.0677083333327,"velocity":0.8031496062992126,"duration":0.2109375},{"name":"E2","midi":40,"time":172.28124999999935,"velocity":0.8031496062992126,"duration":0.4244791666666572},{"name":"D4","midi":62,"time":172.28124999999935,"velocity":0.8031496062992126,"duration":0.2109375},{"name":"G#4","midi":68,"time":172.49609374999935,"velocity":0.8031496062992126,"duration":0.2109375},{"name":"A2","midi":45,"time":172.709635416666,"velocity":0.8031496062992126,"duration":0.2109375},{"name":"A4","midi":69,"time":172.709635416666,"velocity":0.8031496062992126,"duration":1.2799479166666288},{"name":"C4","midi":60,"time":172.709635416666,"velocity":0.8031496062992126,"duration":0.8450520833333144},{"name":"E3","midi":52,"time":172.92317708333266,"velocity":0.8031496062992126,"duration":0.2109375},{"name":"F#3","midi":54,"time":173.13671874999932,"velocity":0.8031496062992126,"duration":0.2109375},{"name":"G#3","midi":56,"time":173.35026041666598,"velocity":0.8031496062992126,"duration":0.2109375},{"name":"A3","midi":57,"time":173.56380208333263,"velocity":0.8031496062992126,"duration":0.2109375},{"name":"B3","midi":59,"time":173.77864583333263,"velocity":0.8031496062992126,"duration":0.2109375},{"name":"C4","midi":60,"time":173.9921874999993,"velocity":0.8031496062992126,"duration":0.2109375},{"name":"A3","midi":57,"time":174.20572916666595,"velocity":0.8031496062992126,"duration":0.2109375},{"name":"D4","midi":62,"time":174.4192708333326,"velocity":0.8031496062992126,"duration":0.2109375},{"name":"E4","midi":64,"time":174.63281249999926,"velocity":0.8031496062992126,"duration":0.2109375},{"name":"D4","midi":62,"time":174.84635416666592,"velocity":0.8031496062992126,"duration":0.2109375},{"name":"C4","midi":60,"time":175.06119791666592,"velocity":0.8031496062992126,"duration":0.2109375},{"name":"B3","midi":59,"time":175.27473958333258,"velocity":0.8031496062992126,"duration":0.2109375},{"name":"E4","midi":64,"time":175.48828124999923,"velocity":0.8031496062992126,"duration":0.2109375},{"name":"D4","midi":62,"time":175.7018229166659,"velocity":0.8031496062992126,"duration":0.2109375},{"name":"E4","midi":64,"time":175.91536458333255,"velocity":0.8031496062992126,"duration":0.2109375},{"name":"C4","midi":60,"time":176.1289062499992,"velocity":0.8031496062992126,"duration":0.3776041666666572},{"name":"F5","midi":77,"time":176.3437499999992,"velocity":0.8031496062992126,"duration":0.2109375},{"name":"E3","midi":52,"time":176.55729166666586,"velocity":0.8031496062992126,"duration":0.4244791666666572},{"name":"E5","midi":76,"time":176.55729166666586,"velocity":0.8031496062992126,"duration":0.2109375},{"name":"D5","midi":74,"time":176.77083333333252,"velocity":0.8031496062992126,"duration":0.2109375},{"name":"A3","midi":57,"time":176.98437499999918,"velocity":0.8031496062992126,"duration":0.4244791666666572},{"name":"C5","midi":72,"time":176.98437499999918,"velocity":0.8031496062992126,"duration":0.2109375},{"name":"B4","midi":71,"time":177.19791666666583,"velocity":0.8031496062992126,"duration":0.2109375},{"name":"A3","midi":57,"time":177.4114583333325,"velocity":0.8031496062992126,"duration":0.4244791666666572},{"name":"A4","midi":69,"time":177.4114583333325,"velocity":0.8031496062992126,"duration":0.2109375},{"name":"C5","midi":72,"time":177.62499999999915,"velocity":0.8031496062992126,"duration":0.2109375},{"name":"A3","midi":57,"time":177.83984374999915,"velocity":0.8031496062992126,"duration":0.4244791666666572},{"name":"F4","midi":65,"time":177.83984374999915,"velocity":0.8031496062992126,"duration":0.2669270833333144},{"name":"E5","midi":76,"time":178.0533854166658,"velocity":0.8031496062992126,"duration":0.2109375},{"name":"G#3","midi":56,"time":178.26692708333246,"velocity":0.8031496062992126,"duration":0.2109375},{"name":"D5","midi":74,"time":178.26692708333246,"velocity":0.8031496062992126,"duration":0.2109375},{"name":"A3","midi":57,"time":178.48046874999912,"velocity":0.8031496062992126,"duration":0.2109375},{"name":"C5","midi":72,"time":178.48046874999912,"velocity":0.8031496062992126,"duration":0.2109375},{"name":"B3","midi":59,"time":178.69401041666578,"velocity":0.8031496062992126,"duration":0.4244791666666572},{"name":"B4","midi":71,"time":178.69401041666578,"velocity":0.8031496062992126,"duration":0.2109375},{"name":"A4","midi":69,"time":178.90755208333243,"velocity":0.8031496062992126,"duration":0.2109375},{"name":"B3","midi":59,"time":179.12239583333243,"velocity":0.8031496062992126,"duration":0.4244791666666572},{"name":"G#4","midi":68,"time":179.12239583333243,"velocity":0.8031496062992126,"duration":0.2109375},{"name":"B4","midi":71,"time":179.3359374999991,"velocity":0.8031496062992126,"duration":0.2109375},{"name":"B3","midi":59,"time":179.54947916666575,"velocity":0.8031496062992126,"duration":0.4244791666666572},{"name":"E4","midi":64,"time":179.54947916666575,"velocity":0.8031496062992126,"duration":0.2669270833333144},{"name":"D5","midi":74,"time":179.7630208333324,"velocity":0.8031496062992126,"duration":0.2109375},{"name":"A3","midi":57,"time":179.97656249999906,"velocity":0.8031496062992126,"duration":0.2109375},{"name":"C5","midi":72,"time":179.97656249999906,"velocity":0.8031496062992126,"duration":0.2109375},{"name":"B3","midi":59,"time":180.19010416666572,"velocity":0.8031496062992126,"duration":0.2109375},{"name":"B4","midi":71,"time":180.19010416666572,"velocity":0.8031496062992126,"duration":0.2109375},{"name":"C4","midi":60,"time":180.40494791666572,"velocity":0.8031496062992126,"duration":0.4244791666666572},{"name":"A4","midi":69,"time":180.40494791666572,"velocity":0.8031496062992126,"duration":0.2109375},{"name":"G4","midi":67,"time":180.61848958333238,"velocity":0.8031496062992126,"duration":0.2109375},{"name":"C4","midi":60,"time":180.83203124999903,"velocity":0.8031496062992126,"duration":0.6380208333333144},{"name":"F4","midi":65,"time":180.83203124999903,"velocity":0.8031496062992126,"duration":0.2109375},{"name":"A4","midi":69,"time":181.0455729166657,"velocity":0.8031496062992126,"duration":0.2109375},{"name":"D4","midi":62,"time":181.25911458333235,"velocity":0.8031496062992126,"duration":0.8450520833333144},{"name":"C4","midi":60,"time":181.472656249999,"velocity":0.8031496062992126,"duration":0.2109375},{"name":"B3","midi":59,"time":181.687499999999,"velocity":0.8031496062992126,"duration":0.2109375},{"name":"G#4","midi":68,"time":181.687499999999,"velocity":0.8031496062992126,"duration":0.2109375},{"name":"A3","midi":57,"time":181.90104166666566,"velocity":0.8031496062992126,"duration":0.2109375},{"name":"A4","midi":69,"time":181.90104166666566,"velocity":0.8031496062992126,"duration":0.2109375},{"name":"G#3","midi":56,"time":182.11458333333232,"velocity":0.8031496062992126,"duration":0.2109375},{"name":"B4","midi":71,"time":182.11458333333232,"velocity":0.8031496062992126,"duration":0.4244791666666572},{"name":"F#3","midi":54,"time":182.32812499999898,"velocity":0.8031496062992126,"duration":0.2109375},{"name":"E3","midi":52,"time":182.54166666666563,"velocity":0.8031496062992126,"duration":0.2109375},{"name":"D4","midi":62,"time":182.54166666666563,"velocity":0.8031496062992126,"duration":0.4244791666666572},{"name":"G#4","midi":68,"time":182.54166666666563,"velocity":0.8031496062992126,"duration":0.4244791666666572},{"name":"B4","midi":71,"time":182.54166666666563,"velocity":0.8031496062992126,"duration":0.4244791666666572},{"name":"G#3","midi":56,"time":182.7552083333323,"velocity":0.8031496062992126,"duration":0.2109375},{"name":"C3","midi":48,"time":182.96874999999895,"velocity":0.8031496062992126,"duration":0.2109375},{"name":"E4","midi":64,"time":182.96874999999895,"velocity":0.8031496062992126,"duration":0.4244791666666572},{"name":"G#4","midi":68,"time":182.96874999999895,"velocity":0.8031496062992126,"duration":0.4244791666666572},{"name":"B4","midi":71,"time":182.96874999999895,"velocity":0.8031496062992126,"duration":0.4244791666666572},{"name":"F3","midi":53,"time":183.18359374999895,"velocity":0.8031496062992126,"duration":0.2109375},{"name":"E3","midi":52,"time":183.3971354166656,"velocity":0.8031496062992126,"duration":0.2109375},{"name":"A4","midi":69,"time":183.3971354166656,"velocity":0.8031496062992126,"duration":0.2109375},{"name":"D3","midi":50,"time":183.61067708333226,"velocity":0.8031496062992126,"duration":0.2109375},{"name":"B4","midi":71,"time":183.61067708333226,"velocity":0.8031496062992126,"duration":0.2109375},{"name":"C3","midi":48,"time":183.82421874999892,"velocity":0.8031496062992126,"duration":0.2109375},{"name":"C5","midi":72,"time":183.82421874999892,"velocity":0.8031496062992126,"duration":0.4244791666666572},{"name":"B2","midi":47,"time":184.03776041666558,"velocity":0.8031496062992126,"duration":0.2109375},{"name":"A2","midi":45,"time":184.25130208333223,"velocity":0.8031496062992126,"duration":0.2109375},{"name":"E4","midi":64,"time":184.25130208333223,"velocity":0.8031496062992126,"duration":0.4244791666666572},{"name":"C5","midi":72,"time":184.25130208333223,"velocity":0.8031496062992126,"duration":0.4244791666666572},{"name":"A4","midi":69,"time":184.25130208333223,"velocity":0.8031496062992126,"duration":0.4244791666666572},{"name":"C3","midi":48,"time":184.46614583333223,"velocity":0.8031496062992126,"duration":0.2109375},{"name":"F#2","midi":42,"time":184.6796874999989,"velocity":0.8031496062992126,"duration":0.2109375},{"name":"A4","midi":69,"time":184.6796874999989,"velocity":0.8031496062992126,"duration":0.4244791666666572},{"name":"C5","midi":72,"time":184.6796874999989,"velocity":0.8031496062992126,"duration":0.4244791666666572},{"name":"D4","midi":62,"time":184.6796874999989,"velocity":0.8031496062992126,"duration":0.8450520833333144},{"name":"E3","midi":52,"time":184.89322916666555,"velocity":0.8031496062992126,"duration":0.2109375},{"name":"D3","midi":50,"time":185.1067708333322,"velocity":0.8031496062992126,"duration":0.2109375},{"name":"B4","midi":71,"time":185.1067708333322,"velocity":0.8031496062992126,"duration":0.2109375},{"name":"G#4","midi":68,"time":185.1067708333322,"velocity":0.8031496062992126,"duration":0.2109375},{"name":"C3","midi":48,"time":185.32031249999886,"velocity":0.8031496062992126,"duration":0.2109375},{"name":"A4","midi":69,"time":185.32031249999886,"velocity":0.8031496062992126,"duration":0.2109375},{"name":"C5","midi":72,"time":185.32031249999886,"velocity":0.8031496062992126,"duration":0.2109375},{"name":"B2","midi":47,"time":185.53385416666552,"velocity":0.8031496062992126,"duration":0.2109375},{"name":"B4","midi":71,"time":185.53385416666552,"velocity":0.8031496062992126,"duration":0.4244791666666572},{"name":"D5","midi":74,"time":185.53385416666552,"velocity":0.8031496062992126,"duration":0.4244791666666572},{"name":"A2","midi":45,"time":185.74869791666552,"velocity":0.8031496062992126,"duration":0.2109375},{"name":"G#2","midi":44,"time":185.96223958333218,"velocity":0.8031496062992126,"duration":0.2109375},{"name":"D5","midi":74,"time":185.96223958333218,"velocity":0.8031496062992126,"duration":0.4244791666666572},{"name":"B4","midi":71,"time":185.96223958333218,"velocity":0.8031496062992126,"duration":0.4244791666666572},{"name":"F4","midi":65,"time":185.96223958333218,"velocity":0.8031496062992126,"duration":0.4244791666666572},{"name":"B2","midi":47,"time":186.17578124999883,"velocity":0.8031496062992126,"duration":0.2109375},{"name":"E2","midi":40,"time":186.3893229166655,"velocity":0.8031496062992126,"duration":0.4244791666666572},{"name":"E4","midi":64,"time":186.3893229166655,"velocity":0.8031496062992126,"duration":0.8450520833333144},{"name":"D5","midi":74,"time":186.3893229166655,"velocity":0.8031496062992126,"duration":0.4244791666666572},{"name":"B4","midi":71,"time":186.3893229166655,"velocity":0.8031496062992126,"duration":0.4244791666666572},{"name":"C3","midi":48,"time":186.8164062499988,"velocity":0.8031496062992126,"duration":0.2109375},{"name":"C5","midi":72,"time":186.8164062499988,"velocity":0.8031496062992126,"duration":0.2109375},{"name":"A4","midi":69,"time":186.8164062499988,"velocity":0.8031496062992126,"duration":0.2109375},{"name":"D3","midi":50,"time":187.0312499999988,"velocity":0.8031496062992126,"duration":0.2109375},{"name":"B4","midi":71,"time":187.0312499999988,"velocity":0.8031496062992126,"duration":0.2109375},{"name":"E3","midi":52,"time":187.24479166666546,"velocity":0.8031496062992126,"duration":0.42447916666660035},{"name":"C5","midi":72,"time":187.24479166666546,"velocity":0.8031496062992126,"duration":0.10416666666665719},{"name":"G#4","midi":68,"time":187.24479166666546,"velocity":0.8031496062992126,"duration":0.6223958333332291},{"name":"B4","midi":71,"time":187.35156249999878,"velocity":0.8031496062992126,"duration":0.10416666666665719},{"name":"C5","midi":72,"time":187.4583333333321,"velocity":0.8031496062992126,"duration":0.10416666666665719},{"name":"B4","midi":71,"time":187.5651041666654,"velocity":0.8031496062992126,"duration":0.10416666666665719},{"name":"E2","midi":40,"time":187.67187499999872,"velocity":0.8031496062992126,"duration":0.42447916666662877},{"name":"C5","midi":72,"time":187.67187499999872,"velocity":0.8031496062992126,"duration":0.10416666666665719},{"name":"B4","midi":71,"time":187.77864583333204,"velocity":0.8031496062992126,"duration":0.10416666666665719},{"name":"A4","midi":69,"time":187.88541666666535,"velocity":0.8031496062992126,"duration":0.2109375},{"name":"A2","midi":45,"time":188.098958333332,"velocity":0.8031496062992126,"duration":0.4244791666666572},{"name":"A4","midi":69,"time":188.098958333332,"velocity":0.8031496062992126,"duration":0.2109375},{"name":"A4","midi":69,"time":188.31249999999866,"velocity":0.8031496062992126,"duration":0.2109375},{"name":"A3","midi":57,"time":188.52734374999866,"velocity":0.8031496062992126,"duration":0.4244791666666572},{"name":"C5","midi":72,"time":188.52734374999866,"velocity":0.8031496062992126,"duration":0.2109375},{"name":"E5","midi":76,"time":188.74088541666532,"velocity":0.8031496062992126,"duration":0.2109375},{"name":"A3","midi":57,"time":188.95442708333198,"velocity":0.8031496062992126,"duration":0.4244791666666572},{"name":"C5","midi":72,"time":188.95442708333198,"velocity":0.8031496062992126,"duration":0.2109375},{"name":"A4","midi":69,"time":189.16796874999864,"velocity":0.8031496062992126,"duration":0.2109375},{"name":"G3","midi":55,"time":189.3815104166653,"velocity":0.8031496062992126,"duration":0.4244791666666572},{"name":"C5","midi":72,"time":189.3815104166653,"velocity":0.8031496062992126,"duration":0.2109375},{"name":"E5","midi":76,"time":189.59505208333195,"velocity":0.8031496062992126,"duration":0.2239583333333428},{"name":"F3","midi":53,"time":189.80989583333195,"velocity":0.8031496062992126,"duration":0.8450520833333712},{"name":"A5","midi":81,"time":189.80989583333195,"velocity":0.8031496062992126,"duration":0.4218750000000284},{"name":"F4","midi":65,"time":190.02343749999864,"velocity":0.8031496062992126,"duration":0.4218750000000284},{"name":"A4","midi":69,"time":190.23697916666532,"velocity":0.8031496062992126,"duration":0.2109375},{"name":"A5","midi":81,"time":190.23697916666532,"velocity":0.8031496062992126,"duration":0.421875},{"name":"C5","midi":72,"time":190.45052083333198,"velocity":0.8031496062992126,"duration":0.2109375},{"name":"A4","midi":69,"time":190.66406249999864,"velocity":0.8031496062992126,"duration":0.2109375},{"name":"A5","midi":81,"time":190.66406249999864,"velocity":0.8031496062992126,"duration":0.421875},{"name":"F4","midi":65,"time":190.8776041666653,"velocity":0.8031496062992126,"duration":0.2109375},{"name":"A4","midi":69,"time":191.0924479166653,"velocity":0.8031496062992126,"duration":0.2109375},{"name":"A5","midi":81,"time":191.0924479166653,"velocity":0.8031496062992126,"duration":0.421875},{"name":"C5","midi":72,"time":191.30598958333195,"velocity":0.8031496062992126,"duration":0.2109375},{"name":"A5","midi":81,"time":191.5195312499986,"velocity":0.8031496062992126,"duration":0.4244791666666572},{"name":"D5","midi":74,"time":191.5195312499986,"velocity":0.8031496062992126,"duration":0.4244791666666572},{"name":"A#3","midi":58,"time":191.73307291666526,"velocity":0.8031496062992126,"duration":0.2109375},{"name":"D4","midi":62,"time":191.94661458333192,"velocity":0.8031496062992126,"duration":0.2109375},{"name":"F5","midi":77,"time":191.94661458333192,"velocity":0.8031496062992126,"duration":0.4244791666666572},{"name":"A5","midi":81,"time":191.94661458333192,"velocity":0.8031496062992126,"duration":0.4244791666666572},{"name":"F4","midi":65,"time":192.16015624999858,"velocity":0.8031496062992126,"duration":0.2109375},{"name":"D4","midi":62,"time":192.37499999999858,"velocity":0.8031496062992126,"duration":0.2109375},{"name":"A5","midi":81,"time":192.37499999999858,"velocity":0.8031496062992126,"duration":0.4244791666666572},{"name":"F5","midi":77,"time":192.37499999999858,"velocity":0.8031496062992126,"duration":0.4244791666666572},{"name":"A#3","midi":58,"time":192.58854166666524,"velocity":0.8031496062992126,"duration":0.2109375},{"name":"D4","midi":62,"time":192.8020833333319,"velocity":0.8031496062992126,"duration":0.2109375},{"name":"A5","midi":81,"time":192.8020833333319,"velocity":0.8031496062992126,"duration":0.4244791666666572},{"name":"F5","midi":77,"time":192.8020833333319,"velocity":0.8031496062992126,"duration":0.4244791666666572},{"name":"F4","midi":65,"time":193.01562499999855,"velocity":0.8031496062992126,"duration":0.3111979166666572},{"name":"F5","midi":77,"time":193.2291666666652,"velocity":0.8031496062992126,"duration":0.4244791666666572},{"name":"G4","midi":67,"time":193.2291666666652,"velocity":0.8031496062992126,"duration":0.4244791666666572},{"name":"G5","midi":79,"time":193.2291666666652,"velocity":0.8031496062992126,"duration":0.4244791666666572},{"name":"E3","midi":52,"time":193.44270833333186,"velocity":0.8031496062992126,"duration":0.2109375},{"name":"G3","midi":55,"time":193.65624999999852,"velocity":0.8031496062992126,"duration":0.2109375},{"name":"G5","midi":79,"time":193.65624999999852,"velocity":0.8031496062992126,"duration":0.4244791666666572},{"name":"F5","midi":77,"time":193.65624999999852,"velocity":0.8031496062992126,"duration":0.4244791666666572},{"name":"A#4","midi":70,"time":193.65624999999852,"velocity":0.8031496062992126,"duration":0.4244791666666572},{"name":"A#3","midi":58,"time":193.87109374999852,"velocity":0.8031496062992126,"duration":0.2109375},{"name":"G3","midi":55,"time":194.08463541666518,"velocity":0.8031496062992126,"duration":0.2109375},{"name":"A#4","midi":70,"time":194.08463541666518,"velocity":0.8031496062992126,"duration":0.4244791666666572},{"name":"E5","midi":76,"time":194.08463541666518,"velocity":0.8031496062992126,"duration":0.4244791666666572},{"name":"G5","midi":79,"time":194.08463541666518,"velocity":0.8031496062992126,"duration":0.4244791666666572},{"name":"E3","midi":52,"time":194.29817708333184,"velocity":0.8031496062992126,"duration":0.2109375},{"name":"G3","midi":55,"time":194.5117187499985,"velocity":0.8031496062992126,"duration":0.2109375},{"name":"E5","midi":76,"time":194.5117187499985,"velocity":0.8031496062992126,"duration":0.4244791666666572},{"name":"A#4","midi":70,"time":194.5117187499985,"velocity":0.8031496062992126,"duration":0.4244791666666572},{"name":"G5","midi":79,"time":194.5117187499985,"velocity":0.8031496062992126,"duration":0.4244791666666572},{"name":"A#3","midi":58,"time":194.72526041666515,"velocity":0.8031496062992126,"duration":0.2109375},{"name":"C#4","midi":61,"time":194.9388020833318,"velocity":0.8031496062992126,"duration":0.2109375},{"name":"E5","midi":76,"time":194.9388020833318,"velocity":0.8031496062992126,"duration":0.4244791666666572},{"name":"A4","midi":69,"time":194.9388020833318,"velocity":0.8031496062992126,"duration":0.4244791666666572},{"name":"G5","midi":79,"time":194.9388020833318,"velocity":0.8031496062992126,"duration":0.4244791666666572},{"name":"A2","midi":45,"time":195.1536458333318,"velocity":0.8031496062992126,"duration":0.2109375},{"name":"C#3","midi":49,"time":195.36718749999847,"velocity":0.8031496062992126,"duration":0.2109375},{"name":"E5","midi":76,"time":195.36718749999847,"velocity":0.8031496062992126,"duration":0.4244791666666572},{"name":"A4","midi":69,"time":195.36718749999847,"velocity":0.8031496062992126,"duration":0.4244791666666572},{"name":"G5","midi":79,"time":195.36718749999847,"velocity":0.8031496062992126,"duration":0.4244791666666572},{"name":"E3","midi":52,"time":195.58072916666512,"velocity":0.8031496062992126,"duration":0.2109375},{"name":"C#3","midi":49,"time":195.79427083333178,"velocity":0.8031496062992126,"duration":0.2109375},{"name":"E5","midi":76,"time":195.79427083333178,"velocity":0.8031496062992126,"duration":0.4244791666666572},{"name":"A4","midi":69,"time":195.79427083333178,"velocity":0.8031496062992126,"duration":0.4244791666666572},{"name":"G5","midi":79,"time":195.79427083333178,"velocity":0.8031496062992126,"duration":0.4244791666666572},{"name":"A2","midi":45,"time":196.00781249999844,"velocity":0.8031496062992126,"duration":0.2109375},{"name":"C#3","midi":49,"time":196.2213541666651,"velocity":0.8031496062992126,"duration":0.2109375},{"name":"E5","midi":76,"time":196.2213541666651,"velocity":0.8031496062992126,"duration":0.4244791666666572},{"name":"A4","midi":69,"time":196.2213541666651,"velocity":0.8031496062992126,"duration":0.4244791666666572},{"name":"G5","midi":79,"time":196.2213541666651,"velocity":0.8031496062992126,"duration":0.4244791666666572},{"name":"E3","midi":52,"time":196.4361979166651,"velocity":0.8031496062992126,"duration":0.2109375},{"name":"F3","midi":53,"time":196.64973958333175,"velocity":0.8031496062992126,"duration":0.2109375},{"name":"A4","midi":69,"time":196.64973958333175,"velocity":0.8031496062992126,"duration":0.8450520833333144},{"name":"G5","midi":79,"time":196.64973958333175,"velocity":0.8031496062992126,"duration":0.4244791666666572},{"name":"E5","midi":76,"time":196.64973958333175,"velocity":0.8031496062992126,"duration":0.4244791666666572},{"name":"D2","midi":38,"time":196.8632812499984,"velocity":0.8031496062992126,"duration":0.2109375},{"name":"F2","midi":41,"time":197.07682291666507,"velocity":0.8031496062992126,"duration":0.2109375},{"name":"F5","midi":77,"time":197.07682291666507,"velocity":0.8031496062992126,"duration":0.4244791666666572},{"name":"D5","midi":74,"time":197.07682291666507,"velocity":0.8031496062992126,"duration":0.4244791666666572},{"name":"A2","midi":45,"time":197.29036458333172,"velocity":0.8031496062992126,"duration":0.2109375},{"name":"F2","midi":41,"time":197.50390624999838,"velocity":0.8031496062992126,"duration":0.2109375},{"name":"F5","midi":77,"time":197.50390624999838,"velocity":0.8031496062992126,"duration":0.4244791666666572},{"name":"A4","midi":69,"time":197.50390624999838,"velocity":0.8031496062992126,"duration":0.4244791666666572},{"name":"D5","midi":74,"time":197.50390624999838,"velocity":0.8031496062992126,"duration":0.4244791666666572},{"name":"D2","midi":38,"time":197.71874999999838,"velocity":0.8031496062992126,"duration":0.2109375},{"name":"F2","midi":41,"time":197.93229166666504,"velocity":0.8031496062992126,"duration":0.2109375},{"name":"F5","midi":77,"time":197.93229166666504,"velocity":0.8031496062992126,"duration":0.4244791666666572},{"name":"D5","midi":74,"time":197.93229166666504,"velocity":0.8031496062992126,"duration":0.4244791666666572},{"name":"A4","midi":69,"time":197.93229166666504,"velocity":0.8031496062992126,"duration":0.4244791666666572},{"name":"A2","midi":45,"time":198.1458333333317,"velocity":0.8031496062992126,"duration":0.2109375},{"name":"A#2","midi":46,"time":198.35937499999835,"velocity":0.8031496062992126,"duration":1.0677083333333144},{"name":"D5","midi":74,"time":198.35937499999835,"velocity":0.8031496062992126,"duration":0.5781249999999716},{"name":"F5","midi":77,"time":198.35937499999835,"velocity":0.8031496062992126,"duration":0.8450520833333144},{"name":"G4","midi":67,"time":198.35937499999835,"velocity":0.8031496062992126,"duration":0.2109375},{"name":"G4","midi":67,"time":198.572916666665,"velocity":0.8031496062992126,"duration":0.2109375},{"name":"A#4","midi":70,"time":198.78645833333167,"velocity":0.8031496062992126,"duration":0.2109375},{"name":"D5","midi":74,"time":198.99999999999832,"velocity":0.8031496062992126,"duration":0.2109375},{"name":"A#4","midi":70,"time":199.21484374999832,"velocity":0.8031496062992126,"duration":0.2109375},{"name":"G4","midi":67,"time":199.428385416665,"velocity":0.8031496062992126,"duration":0.2109375},{"name":"A#3","midi":58,"time":199.64192708333167,"velocity":0.8031496062992126,"duration":0.4244791666666572},{"name":"A#4","midi":70,"time":199.64192708333167,"velocity":0.8031496062992126,"duration":0.2109375},{"name":"D5","midi":74,"time":199.85546874999832,"velocity":0.8031496062992126,"duration":0.2109375},{"name":"C#3","midi":49,"time":200.06901041666498,"velocity":0.8031496062992126,"duration":0.4244791666666572},{"name":"E5","midi":76,"time":200.06901041666498,"velocity":0.8031496062992126,"duration":0.375},{"name":"D3","midi":50,"time":200.49739583333164,"velocity":0.8031496062992126,"duration":0.4244791666666572},{"name":"F4","midi":65,"time":200.49739583333164,"velocity":0.8031496062992126,"duration":0.4244791666666572},{"name":"D5","midi":74,"time":200.49739583333164,"velocity":0.8031496062992126,"duration":0.4244791666666572},{"name":"A4","midi":69,"time":200.49739583333164,"velocity":0.8031496062992126,"duration":0.4244791666666572},{"name":"A3","midi":57,"time":200.92447916666495,"velocity":0.8031496062992126,"duration":0.4244791666666572},{"name":"E4","midi":64,"time":200.92447916666495,"velocity":0.8031496062992126,"duration":0.4244791666666572},{"name":"D5","midi":74,"time":200.92447916666495,"velocity":0.8031496062992126,"duration":0.4244791666666572},{"name":"A4","midi":69,"time":200.92447916666495,"velocity":0.8031496062992126,"duration":0.4244791666666572},{"name":"A2","midi":45,"time":201.35156249999827,"velocity":0.8031496062992126,"duration":0.42447916666660035},{"name":"E4","midi":64,"time":201.35156249999827,"velocity":0.8031496062992126,"duration":0.42447916666660035},{"name":"G4","midi":67,"time":201.35156249999827,"velocity":0.8031496062992126,"duration":0.42447916666660035},{"name":"D5","midi":74,"time":201.35156249999827,"velocity":0.8031496062992126,"duration":0.10416666666665719},{"name":"A4","midi":69,"time":201.35156249999827,"velocity":0.8031496062992126,"duration":0.42447916666660035},{"name":"C#5","midi":73,"time":201.45833333333158,"velocity":0.8031496062992126,"duration":0.10416666666665719},{"name":"B4","midi":71,"time":201.5651041666649,"velocity":0.8031496062992126,"duration":0.10416666666665719},{"name":"C#5","midi":73,"time":201.6718749999982,"velocity":0.8031496062992126,"duration":0.10416666666665719},{"name":"D2","midi":38,"time":201.77994791666487,"velocity":0.8031496062992126,"duration":1.067708333333286},{"name":"F4","midi":65,"time":201.77994791666487,"velocity":0.8031496062992126,"duration":0.2109375},{"name":"D5","midi":74,"time":201.77994791666487,"velocity":0.8031496062992126,"duration":0.2109375},{"name":"A4","midi":69,"time":201.77994791666487,"velocity":0.8031496062992126,"duration":0.2109375},{"name":"A3","midi":57,"time":201.99348958333152,"velocity":0.8031496062992126,"duration":0.2109375},{"name":"B3","midi":59,"time":202.20703124999818,"velocity":0.8031496062992126,"duration":0.2109375},{"name":"C#4","midi":61,"time":202.42057291666484,"velocity":0.8031496062992126,"duration":0.2109375},{"name":"D4","midi":62,"time":202.6341145833315,"velocity":0.8031496062992126,"duration":0.2109375},{"name":"E4","midi":64,"time":202.84765624999815,"velocity":0.8031496062992126,"duration":0.2109375},{"name":"D3","midi":50,"time":203.06249999999815,"velocity":0.8031496062992126,"duration":0.4244791666666572},{"name":"A3","midi":57,"time":203.06249999999815,"velocity":0.8031496062992126,"duration":0.4244791666666572},{"name":"F4","midi":65,"time":203.06249999999815,"velocity":0.8031496062992126,"duration":0.2109375},{"name":"D4","midi":62,"time":203.2760416666648,"velocity":0.8031496062992126,"duration":0.2109375},{"name":"A#3","midi":58,"time":203.48958333333147,"velocity":0.8031496062992126,"duration":0.8450520833333144},{"name":"D3","midi":50,"time":203.48958333333147,"velocity":0.8031496062992126,"duration":0.4244791666666572},{"name":"G4","midi":67,"time":203.48958333333147,"velocity":0.8031496062992126,"duration":0.2109375},{"name":"A4","midi":69,"time":203.70312499999812,"velocity":0.8031496062992126,"duration":0.2109375},{"name":"E3","midi":52,"time":203.91666666666478,"velocity":0.8031496062992126,"duration":0.2109375},{"name":"G4","midi":67,"time":203.91666666666478,"velocity":0.8031496062992126,"duration":0.2109375},{"name":"D3","midi":50,"time":204.13020833333144,"velocity":0.8031496062992126,"duration":0.2109375},{"name":"F4","midi":65,"time":204.13020833333144,"velocity":0.8031496062992126,"duration":0.2109375},{"name":"C3","midi":48,"time":204.3437499999981,"velocity":0.8031496062992126,"duration":0.4244791666666572},{"name":"E4","midi":64,"time":204.3437499999981,"velocity":0.8031496062992126,"duration":0.2109375},{"name":"A4","midi":69,"time":204.5585937499981,"velocity":0.8031496062992126,"duration":0.2109375},{"name":"C3","midi":48,"time":204.77213541666475,"velocity":0.8031496062992126,"duration":0.4244791666666572},{"name":"E3","midi":52,"time":204.77213541666475,"velocity":0.8031496062992126,"duration":0.4244791666666572},{"name":"G4","midi":67,"time":204.77213541666475,"velocity":0.8031496062992126,"duration":0.2109375},{"name":"A4","midi":69,"time":204.9856770833314,"velocity":0.8031496062992126,"duration":0.2109375},{"name":"C3","midi":48,"time":205.19921874999807,"velocity":0.8031496062992126,"duration":0.4244791666666572},{"name":"A3","midi":57,"time":205.19921874999807,"velocity":0.8031496062992126,"duration":0.8450520833333144},{"name":"F#4","midi":66,"time":205.19921874999807,"velocity":0.8031496062992126,"duration":0.2669270833333144},{"name":"D4","midi":62,"time":205.41276041666472,"velocity":0.8031496062992126,"duration":0.2109375},{"name":"D3","midi":50,"time":205.62630208333138,"velocity":0.8031496062992126,"duration":0.2109375},{"name":"E4","midi":64,"time":205.62630208333138,"velocity":0.8031496062992126,"duration":0.2109375},{"name":"C3","midi":48,"time":205.84114583333138,"velocity":0.8031496062992126,"duration":0.2109375},{"name":"F#4","midi":66,"time":205.84114583333138,"velocity":0.8031496062992126,"duration":0.2109375},{"name":"A#2","midi":46,"time":206.05468749999804,"velocity":0.8031496062992126,"duration":0.4244791666666572},{"name":"G4","midi":67,"time":206.05468749999804,"velocity":0.8031496062992126,"duration":0.2109375},{"name":"A4","midi":69,"time":206.2682291666647,"velocity":0.8031496062992126,"duration":0.2109375},{"name":"A#2","midi":46,"time":206.48177083333135,"velocity":0.8031496062992126,"duration":0.4244791666666572},{"name":"G3","midi":55,"time":206.48177083333135,"velocity":0.8031496062992126,"duration":0.4244791666666572},{"name":"A#4","midi":70,"time":206.48177083333135,"velocity":0.8031496062992126,"duration":0.2109375},{"name":"G4","midi":67,"time":206.695312499998,"velocity":0.8031496062992126,"duration":0.2109375},{"name":"A#2","midi":46,"time":206.90885416666467,"velocity":0.8031496062992126,"duration":0.4244791666666572},{"name":"E3","midi":52,"time":206.90885416666467,"velocity":0.8031496062992126,"duration":0.8450520833333144},{"name":"C5","midi":72,"time":206.90885416666467,"velocity":0.8031496062992126,"duration":0.421875},{"name":"E4","midi":64,"time":207.12369791666467,"velocity":0.8031496062992126,"duration":0.2109375},{"name":"C3","midi":48,"time":207.33723958333132,"velocity":0.8031496062992126,"duration":0.2109375},{"name":"F4","midi":65,"time":207.33723958333132,"velocity":0.8031496062992126,"duration":0.2109375},{"name":"A#2","midi":46,"time":207.55078124999798,"velocity":0.8031496062992126,"duration":0.2109375},{"name":"G4","midi":67,"time":207.55078124999798,"velocity":0.8031496062992126,"duration":0.2109375},{"name":"A2","midi":45,"time":207.76432291666464,"velocity":0.8031496062992126,"duration":0.4244791666666572},{"name":"A4","midi":69,"time":207.76432291666464,"velocity":0.8031496062992126,"duration":0.2109375},{"name":"A#4","midi":70,"time":207.9778645833313,"velocity":0.8031496062992126,"duration":0.2109375},{"name":"A2","midi":45,"time":208.19140624999795,"velocity":0.8031496062992126,"duration":0.4244791666666572},{"name":"F#3","midi":54,"time":208.19140624999795,"velocity":0.8031496062992126,"duration":0.4244791666666572},{"name":"C5","midi":72,"time":208.19140624999795,"velocity":0.8031496062992126,"duration":0.2109375},{"name":"A4","midi":69,"time":208.40624999999795,"velocity":0.8031496062992126,"duration":0.2109375},{"name":"A#3","midi":58,"time":208.6197916666646,"velocity":0.8031496062992126,"duration":0.8450520833333144},{"name":"A2","midi":45,"time":208.6197916666646,"velocity":0.8031496062992126,"duration":0.4244791666666572},{"name":"D5","midi":74,"time":208.6197916666646,"velocity":0.8031496062992126,"duration":0.2109375},{"name":"F#4","midi":66,"time":208.83333333333127,"velocity":0.8031496062992126,"duration":0.2109375},{"name":"A#2","midi":46,"time":209.04687499999793,"velocity":0.8031496062992126,"duration":0.2109375},{"name":"G4","midi":67,"time":209.04687499999793,"velocity":0.8031496062992126,"duration":0.2109375},{"name":"A2","midi":45,"time":209.26041666666458,"velocity":0.8031496062992126,"duration":0.2109375},{"name":"A4","midi":69,"time":209.26041666666458,"velocity":0.8031496062992126,"duration":0.2109375},{"name":"G2","midi":43,"time":209.47395833333124,"velocity":0.8031496062992126,"duration":0.4244791666666572},{"name":"A#4","midi":70,"time":209.47395833333124,"velocity":0.8031496062992126,"duration":0.2669270833333144},{"name":"C5","midi":72,"time":209.6874999999979,"velocity":0.8031496062992126,"duration":0.2109375},{"name":"G3","midi":55,"time":209.9023437499979,"velocity":0.8031496062992126,"duration":0.4244791666666572},{"name":"A#3","midi":58,"time":209.9023437499979,"velocity":0.8031496062992126,"duration":0.4244791666666572},{"name":"D5","midi":74,"time":209.9023437499979,"velocity":0.8031496062992126,"duration":0.2109375},{"name":"A#4","midi":70,"time":210.11588541666455,"velocity":0.8031496062992126,"duration":0.2109375},{"name":"G3","midi":55,"time":210.3294270833312,"velocity":0.8031496062992126,"duration":0.4244791666666572},{"name":"C4","midi":60,"time":210.3294270833312,"velocity":0.8031496062992126,"duration":0.4244791666666572},{"name":"A3","midi":57,"time":210.3294270833312,"velocity":0.8031496062992126,"duration":0.4244791666666572},{"name":"D#5","midi":75,"time":210.3294270833312,"velocity":0.8031496062992126,"duration":0.2109375},{"name":"D5","midi":74,"time":210.54296874999787,"velocity":0.8031496062992126,"duration":0.2109375},{"name":"A3","midi":57,"time":210.75651041666453,"velocity":0.8031496062992126,"duration":0.2109375},{"name":"C5","midi":72,"time":210.75651041666453,"velocity":0.8031496062992126,"duration":0.2109375},{"name":"G3","midi":55,"time":210.97005208333118,"velocity":0.8031496062992126,"duration":0.2109375},{"name":"A#4","midi":70,"time":210.97005208333118,"velocity":0.8031496062992126,"duration":0.2109375},{"name":"F#3","midi":54,"time":211.18489583333118,"velocity":0.8031496062992126,"duration":0.4244791666666572},{"name":"A4","midi":69,"time":211.18489583333118,"velocity":0.8031496062992126,"duration":0.2109375},{"name":"D5","midi":74,"time":211.39843749999784,"velocity":0.8031496062992126,"duration":0.2109375},{"name":"F#3","midi":54,"time":211.6119791666645,"velocity":0.8031496062992126,"duration":0.4244791666666572},{"name":"D3","midi":50,"time":211.6119791666645,"velocity":0.8031496062992126,"duration":0.4244791666666572},{"name":"C5","midi":72,"time":211.6119791666645,"velocity":0.8031496062992126,"duration":0.2109375},{"name":"D5","midi":74,"time":211.82552083333115,"velocity":0.8031496062992126,"duration":0.2109375},{"name":"G3","midi":55,"time":212.0390624999978,"velocity":0.8031496062992126,"duration":0.2109375},{"name":"A#4","midi":70,"time":212.0390624999978,"velocity":0.8031496062992126,"duration":1.2799479166666288},{"name":"F3","midi":53,"time":212.25260416666447,"velocity":0.8031496062992126,"duration":0.2109375},{"name":"A4","midi":69,"time":212.25260416666447,"velocity":0.8031496062992126,"duration":0.2109375},{"name":"D#3","midi":51,"time":212.46744791666447,"velocity":0.8031496062992126,"duration":0.2109375},{"name":"G4","midi":67,"time":212.46744791666447,"velocity":0.8031496062992126,"duration":0.2109375},{"name":"D3","midi":50,"time":212.68098958333113,"velocity":0.8031496062992126,"duration":0.2109375},{"name":"F4","midi":65,"time":212.68098958333113,"velocity":0.8031496062992126,"duration":0.2109375},{"name":"C3","midi":48,"time":212.89453124999778,"velocity":0.8031496062992126,"duration":0.2109375},{"name":"D#4","midi":63,"time":212.89453124999778,"velocity":0.8031496062992126,"duration":0.8450520833333144},{"name":"F3","midi":53,"time":213.10807291666444,"velocity":0.8031496062992126,"duration":0.2109375},{"name":"D#3","midi":51,"time":213.3216145833311,"velocity":0.8031496062992126,"duration":0.2109375},{"name":"A4","midi":69,"time":213.3216145833311,"velocity":0.8031496062992126,"duration":0.8450520833333144},{"name":"F3","midi":53,"time":213.53515624999775,"velocity":0.8031496062992126,"duration":0.2109375},{"name":"A#2","midi":46,"time":213.74999999999775,"velocity":0.8031496062992126,"duration":0.2109375},{"name":"D4","midi":62,"time":213.74999999999775,"velocity":0.8031496062992126,"duration":0.8450520833333144},{"name":"C3","midi":48,"time":213.9635416666644,"velocity":0.8031496062992126,"duration":0.2109375},{"name":"D3","midi":50,"time":214.17708333333107,"velocity":0.8031496062992126,"duration":0.2109375},{"name":"G4","midi":67,"time":214.17708333333107,"velocity":0.8031496062992126,"duration":0.8450520833333144},{"name":"D#3","midi":51,"time":214.39062499999773,"velocity":0.8031496062992126,"duration":0.2109375},{"name":"A2","midi":45,"time":214.60416666666438,"velocity":0.8031496062992126,"duration":0.2109375},{"name":"C4","midi":60,"time":214.60416666666438,"velocity":0.8031496062992126,"duration":0.8450520833333144},{"name":"D3","midi":50,"time":214.81770833333104,"velocity":0.8031496062992126,"duration":0.2109375},{"name":"C3","midi":48,"time":215.0312499999977,"velocity":0.8031496062992126,"duration":0.2109375},{"name":"F#4","midi":66,"time":215.0312499999977,"velocity":0.8031496062992126,"duration":0.4244791666666572},{"name":"D3","midi":50,"time":215.2460937499977,"velocity":0.8031496062992126,"duration":0.2109375},{"name":"G2","midi":43,"time":215.45963541666436,"velocity":0.8031496062992126,"duration":0.4244791666666572},{"name":"G4","midi":67,"time":215.45963541666436,"velocity":0.8031496062992126,"duration":0.2109375},{"name":"A#3","midi":58,"time":215.45963541666436,"velocity":0.8031496062992126,"duration":0.421875},{"name":"F4","midi":65,"time":215.673177083331,"velocity":0.8031496062992126,"duration":0.2109375},{"name":"A#2","midi":46,"time":215.88671874999767,"velocity":0.8031496062992126,"duration":0.4244791666666572},{"name":"D#4","midi":63,"time":215.88671874999767,"velocity":0.8031496062992126,"duration":0.2109375},{"name":"D4","midi":62,"time":216.10026041666433,"velocity":0.8031496062992126,"duration":0.2109375},{"name":"C3","midi":48,"time":216.31380208333098,"velocity":0.8031496062992126,"duration":0.4244791666666572},{"name":"D#4","midi":63,"time":216.31380208333098,"velocity":0.8031496062992126,"duration":0.8450520833333144},{"name":"A#3","midi":58,"time":216.52864583333098,"velocity":0.8031496062992126,"duration":0.2109375},{"name":"A2","midi":45,"time":216.74218749999764,"velocity":0.8031496062992126,"duration":0.4244791666666572},{"name":"C4","midi":60,"time":216.74218749999764,"velocity":0.8031496062992126,"duration":0.421875},{"name":"F#3","midi":54,"time":216.9557291666643,"velocity":0.8031496062992126,"duration":0.2109375},{"name":"A#2","midi":46,"time":217.16927083333096,"velocity":0.8031496062992126,"duration":0.4244791666666572},{"name":"G3","midi":55,"time":217.16927083333096,"velocity":0.8031496062992126,"duration":0.2109375},{"name":"D#4","midi":63,"time":217.3828124999976,"velocity":0.8031496062992126,"duration":0.2109375},{"name":"C3","midi":48,"time":217.59635416666427,"velocity":0.8031496062992126,"duration":0.4244791666666572},{"name":"D4","midi":62,"time":217.59635416666427,"velocity":0.8031496062992126,"duration":0.2109375},{"name":"C4","midi":60,"time":217.81119791666427,"velocity":0.8031496062992126,"duration":0.2109375},{"name":"D3","midi":50,"time":218.02473958333093,"velocity":0.8031496062992126,"duration":0.4244791666666572},{"name":"A#3","midi":58,"time":218.02473958333093,"velocity":0.8031496062992126,"duration":0.3111979166666572},{"name":"G4","midi":67,"time":218.23828124999758,"velocity":0.8031496062992126,"duration":0.2669270833333144},{"name":"D2","midi":38,"time":218.45182291666424,"velocity":0.8031496062992126,"duration":0.4244791666666572},{"name":"A3","midi":57,"time":218.45182291666424,"velocity":0.8031496062992126,"duration":0.2669270833333144},{"name":"F#4","midi":66,"time":218.6653645833309,"velocity":0.8031496062992126,"duration":0.2109375},{"name":"G2","midi":43,"time":218.87890624999756,"velocity":0.8031496062992126,"duration":0.2669270833333428},{"name":"G4","midi":67,"time":218.87890624999756,"velocity":0.8031496062992126,"duration":0.35546875},{"name":"D3","midi":50,"time":219.09374999999756,"velocity":0.8031496062992126,"duration":0.2109375},{"name":"E3","midi":52,"time":219.3072916666642,"velocity":0.8031496062992126,"duration":0.2109375},{"name":"A#4","midi":70,"time":219.3072916666642,"velocity":0.8031496062992126,"duration":0.2109375},{"name":"F#3","midi":54,"time":219.52083333333087,"velocity":0.8031496062992126,"duration":0.2109375},{"name":"A4","midi":69,"time":219.52083333333087,"velocity":0.8031496062992126,"duration":0.2109375},{"name":"G3","midi":55,"time":219.73437499999753,"velocity":0.8031496062992126,"duration":0.2109375},{"name":"A#4","midi":70,"time":219.73437499999753,"velocity":0.8031496062992126,"duration":0.4244791666666572},{"name":"A3","midi":57,"time":219.94791666666418,"velocity":0.8031496062992126,"duration":0.2109375},{"name":"A#3","midi":58,"time":220.16145833333084,"velocity":0.8031496062992126,"duration":0.2109375},{"name":"A#4","midi":70,"time":220.16145833333084,"velocity":0.8031496062992126,"duration":0.4244791666666572},{"name":"G5","midi":79,"time":220.16145833333084,"velocity":0.8031496062992126,"duration":0.4244791666666572},{"name":"G3","midi":55,"time":220.3749999999975,"velocity":0.8031496062992126,"duration":0.2109375},{"name":"C4","midi":60,"time":220.5898437499975,"velocity":0.8031496062992126,"duration":0.2109375},{"name":"A4","midi":69,"time":220.5898437499975,"velocity":0.8031496062992126,"duration":0.8450520833333144},{"name":"G5","midi":79,"time":220.5898437499975,"velocity":0.8031496062992126,"duration":0.4244791666666572},{"name":"D4","midi":62,"time":220.80338541666416,"velocity":0.8031496062992126,"duration":0.2109375},{"name":"C4","midi":60,"time":221.0169270833308,"velocity":0.8031496062992126,"duration":0.2109375},{"name":"A5","midi":81,"time":221.0169270833308,"velocity":0.8031496062992126,"duration":0.2109375},{"name":"A#3","midi":58,"time":221.23046874999747,"velocity":0.8031496062992126,"duration":0.2109375},{"name":"G5","midi":79,"time":221.23046874999747,"velocity":0.8031496062992126,"duration":0.2109375},{"name":"A3","midi":57,"time":221.44401041666413,"velocity":0.8031496062992126,"duration":0.2109375},{"name":"F5","midi":77,"time":221.44401041666413,"velocity":0.8031496062992126,"duration":0.4244791666666572},{"name":"D4","midi":62,"time":221.65755208333078,"velocity":0.8031496062992126,"duration":0.2109375},{"name":"C4","midi":60,"time":221.87239583333078,"velocity":0.8031496062992126,"duration":0.2109375},{"name":"F5","midi":77,"time":221.87239583333078,"velocity":0.8031496062992126,"duration":0.4244791666666572},{"name":"A4","midi":69,"time":221.87239583333078,"velocity":0.8031496062992126,"duration":0.4244791666666572},{"name":"D4","midi":62,"time":222.08593749999744,"velocity":0.8031496062992126,"duration":0.2109375},{"name":"A#3","midi":58,"time":222.2994791666641,"velocity":0.8031496062992126,"duration":0.2109375},{"name":"F5","midi":77,"time":222.2994791666641,"velocity":0.8031496062992126,"duration":0.4244791666666572},{"name":"G4","midi":67,"time":222.2994791666641,"velocity":0.8031496062992126,"duration":0.8450520833333144},{"name":"G3","midi":55,"time":222.51302083333076,"velocity":0.8031496062992126,"duration":0.2109375},{"name":"A3","midi":57,"time":222.7265624999974,"velocity":0.8031496062992126,"duration":0.2109375},{"name":"G5","midi":79,"time":222.7265624999974,"velocity":0.8031496062992126,"duration":0.2109375},{"name":"A#3","midi":58,"time":222.94010416666407,"velocity":0.8031496062992126,"duration":0.2109375},{"name":"F5","midi":77,"time":222.94010416666407,"velocity":0.8031496062992126,"duration":0.2109375},{"name":"C4","midi":60,"time":223.15494791666407,"velocity":0.8031496062992126,"duration":0.2109375},{"name":"D#5","midi":75,"time":223.15494791666407,"velocity":0.8031496062992126,"duration":0.4244791666666572},{"name":"D4","midi":62,"time":223.36848958333073,"velocity":0.8031496062992126,"duration":0.2109375},{"name":"D#4","midi":63,"time":223.58203124999739,"velocity":0.8031496062992126,"duration":0.2109375},{"name":"C5","midi":72,"time":223.58203124999739,"velocity":0.8031496062992126,"duration":0.4244791666666572},{"name":"D#5","midi":75,"time":223.58203124999739,"velocity":0.8031496062992126,"duration":0.4244791666666572},{"name":"C4","midi":60,"time":223.79557291666404,"velocity":0.8031496062992126,"duration":0.2109375},{"name":"F4","midi":65,"time":224.0091145833307,"velocity":0.8031496062992126,"duration":0.2109375},{"name":"A4","midi":69,"time":224.0091145833307,"velocity":0.8031496062992126,"duration":0.8450520833333144},{"name":"D#5","midi":75,"time":224.0091145833307,"velocity":0.8031496062992126,"duration":0.4244791666666572},{"name":"A3","midi":57,"time":224.22265624999736,"velocity":0.8031496062992126,"duration":0.2109375},{"name":"A#3","midi":58,"time":224.43749999999736,"velocity":0.8031496062992126,"duration":0.2109375},{"name":"F5","midi":77,"time":224.43749999999736,"velocity":0.8031496062992126,"duration":0.2109375},{"name":"C4","midi":60,"time":224.651041666664,"velocity":0.8031496062992126,"duration":0.2109375},{"name":"D#5","midi":75,"time":224.651041666664,"velocity":0.8031496062992126,"duration":0.2109375},{"name":"D4","midi":62,"time":224.86458333333067,"velocity":0.8031496062992126,"duration":0.2109375},{"name":"D5","midi":74,"time":224.86458333333067,"velocity":0.8031496062992126,"duration":0.4244791666666572},{"name":"D#4","midi":63,"time":225.07812499999733,"velocity":0.8031496062992126,"duration":0.2109375},{"name":"F4","midi":65,"time":225.29166666666399,"velocity":0.8031496062992126,"duration":0.2109375},{"name":"D5","midi":74,"time":225.29166666666399,"velocity":0.8031496062992126,"duration":0.4244791666666572},{"name":"C5","midi":72,"time":225.29166666666399,"velocity":0.8031496062992126,"duration":0.4244791666666572},{"name":"D4","midi":62,"time":225.50520833333064,"velocity":0.8031496062992126,"duration":0.2109375},{"name":"G4","midi":67,"time":225.7187499999973,"velocity":0.8031496062992126,"duration":0.2109375},{"name":"D5","midi":74,"time":225.7187499999973,"velocity":0.8031496062992126,"duration":0.4244791666666572},{"name":"A#4","midi":70,"time":225.7187499999973,"velocity":0.8031496062992126,"duration":0.8450520833333144},{"name":"A#3","midi":58,"time":225.9335937499973,"velocity":0.8031496062992126,"duration":0.2109375},{"name":"C4","midi":60,"time":226.14713541666396,"velocity":0.8031496062992126,"duration":0.2109375},{"name":"D#5","midi":75,"time":226.14713541666396,"velocity":0.8031496062992126,"duration":0.2109375},{"name":"D4","midi":62,"time":226.36067708333061,"velocity":0.8031496062992126,"duration":0.2109375},{"name":"D5","midi":74,"time":226.36067708333061,"velocity":0.8031496062992126,"duration":0.2109375},{"name":"D#4","midi":63,"time":226.57421874999727,"velocity":0.8031496062992126,"duration":0.2109375},{"name":"C5","midi":72,"time":226.57421874999727,"velocity":0.8031496062992126,"duration":0.4244791666666572},{"name":"F4","midi":65,"time":226.78776041666393,"velocity":0.8031496062992126,"duration":0.2109375},{"name":"G4","midi":67,"time":227.0013020833306,"velocity":0.8031496062992126,"duration":0.2109375},{"name":"C5","midi":72,"time":227.0013020833306,"velocity":0.8031496062992126,"duration":0.4244791666666572},{"name":"A#4","midi":70,"time":227.0013020833306,"velocity":0.8031496062992126,"duration":0.4244791666666572},{"name":"E4","midi":64,"time":227.2161458333306,"velocity":0.8031496062992126,"duration":0.2109375},{"name":"F4","midi":65,"time":227.42968749999724,"velocity":0.8031496062992126,"duration":0.2109375},{"name":"C5","midi":72,"time":227.42968749999724,"velocity":0.8031496062992126,"duration":0.8515624999999716},{"name":"A4","midi":69,"time":227.42968749999724,"velocity":0.8031496062992126,"duration":0.421875},{"name":"G4","midi":67,"time":227.6432291666639,"velocity":0.8031496062992126,"duration":0.2109375},{"name":"F4","midi":65,"time":227.85677083333056,"velocity":0.8031496062992126,"duration":0.8515624999999716},{"name":"D#4","midi":63,"time":228.07031249999721,"velocity":0.8031496062992126,"duration":0.2109375},{"name":"D4","midi":62,"time":228.28385416666387,"velocity":0.8031496062992126,"duration":0.2109375},{"name":"A#4","midi":70,"time":228.28385416666387,"velocity":0.8031496062992126,"duration":0.4244791666666572},{"name":"C4","midi":60,"time":228.49869791666387,"velocity":0.8031496062992126,"duration":0.2109375},{"name":"A#3","midi":58,"time":228.71223958333053,"velocity":0.8031496062992126,"duration":0.2109375},{"name":"F4","midi":65,"time":228.71223958333053,"velocity":0.8031496062992126,"duration":0.4244791666666572},{"name":"D4","midi":62,"time":228.71223958333053,"velocity":0.8031496062992126,"duration":0.2083333333333428},{"name":"A#4","midi":70,"time":228.71223958333053,"velocity":0.8031496062992126,"duration":0.4244791666666572},{"name":"D4","midi":62,"time":228.9257812499972,"velocity":0.8031496062992126,"duration":0.2109375},{"name":"G3","midi":55,"time":229.13932291666384,"velocity":0.8031496062992126,"duration":0.2109375},{"name":"D4","midi":62,"time":229.13932291666384,"velocity":0.8031496062992126,"duration":0.4244791666666572},{"name":"A#4","midi":70,"time":229.13932291666384,"velocity":0.8031496062992126,"duration":0.4244791666666572},{"name":"G4","midi":67,"time":229.13932291666384,"velocity":0.8031496062992126,"duration":0.4244791666666572},{"name":"F4","midi":65,"time":229.3528645833305,"velocity":0.8031496062992126,"duration":0.2109375},{"name":"D#4","midi":63,"time":229.56640624999716,"velocity":0.8031496062992126,"duration":0.2109375},{"name":"A4","midi":69,"time":229.56640624999716,"velocity":0.8031496062992126,"duration":0.2109375},{"name":"D4","midi":62,"time":229.78124999999716,"velocity":0.8031496062992126,"duration":0.2109375},{"name":"A#4","midi":70,"time":229.78124999999716,"velocity":0.8031496062992126,"duration":0.2109375},{"name":"C4","midi":60,"time":229.99479166666382,"velocity":0.8031496062992126,"duration":0.2109375},{"name":"C5","midi":72,"time":229.99479166666382,"velocity":0.8031496062992126,"duration":0.4244791666666572},{"name":"A#3","midi":58,"time":230.20833333333047,"velocity":0.8031496062992126,"duration":0.2109375},{"name":"A3","midi":57,"time":230.42187499999713,"velocity":0.8031496062992126,"duration":0.2109375},{"name":"G4","midi":67,"time":230.42187499999713,"velocity":0.8031496062992126,"duration":0.4244791666666572},{"name":"C5","midi":72,"time":230.42187499999713,"velocity":0.8031496062992126,"duration":0.4244791666666572},{"name":"D#4","midi":63,"time":230.42187499999713,"velocity":0.8031496062992126,"duration":0.4244791666666572},{"name":"C4","midi":60,"time":230.6354166666638,"velocity":0.8031496062992126,"duration":0.2109375},{"name":"F3","midi":53,"time":230.84895833333044,"velocity":0.8031496062992126,"duration":0.2109375},{"name":"A4","midi":69,"time":230.84895833333044,"velocity":0.8031496062992126,"duration":0.4244791666666572},{"name":"C5","midi":72,"time":230.84895833333044,"velocity":0.8031496062992126,"duration":0.4244791666666572},{"name":"D#4","midi":63,"time":230.84895833333044,"velocity":0.8031496062992126,"duration":0.2083333333333428},{"name":"D#4","midi":63,"time":231.0624999999971,"velocity":0.8031496062992126,"duration":0.2109375},{"name":"D4","midi":62,"time":231.2773437499971,"velocity":0.8031496062992126,"duration":0.2109375},{"name":"A#4","midi":70,"time":231.2773437499971,"velocity":0.8031496062992126,"duration":0.2109375},{"name":"C4","midi":60,"time":231.49088541666376,"velocity":0.8031496062992126,"duration":0.2109375},{"name":"C5","midi":72,"time":231.49088541666376,"velocity":0.8031496062992126,"duration":0.2109375},{"name":"A#3","midi":58,"time":231.70442708333042,"velocity":0.8031496062992126,"duration":0.2109375},{"name":"D5","midi":74,"time":231.70442708333042,"velocity":0.8031496062992126,"duration":0.4244791666666572},{"name":"A3","midi":57,"time":231.91796874999707,"velocity":0.8031496062992126,"duration":0.2109375},{"name":"G3","midi":55,"time":232.13151041666373,"velocity":0.8031496062992126,"duration":0.2109375},{"name":"A#4","midi":70,"time":232.13151041666373,"velocity":0.8031496062992126,"duration":0.4244791666666572},{"name":"F4","midi":65,"time":232.13151041666373,"velocity":0.8031496062992126,"duration":0.4244791666666572},{"name":"D5","midi":74,"time":232.13151041666373,"velocity":0.8031496062992126,"duration":0.4244791666666572},{"name":"A#3","midi":58,"time":232.3450520833304,"velocity":0.8031496062992126,"duration":0.2109375},{"name":"D#3","midi":51,"time":232.5598958333304,"velocity":0.8031496062992126,"duration":0.2109375},{"name":"A#4","midi":70,"time":232.5598958333304,"velocity":0.8031496062992126,"duration":0.4244791666666572},{"name":"D5","midi":74,"time":232.5598958333304,"velocity":0.8031496062992126,"duration":0.4244791666666572},{"name":"G4","midi":67,"time":232.5598958333304,"velocity":0.8031496062992126,"duration":0.4244791666666572},{"name":"F3","midi":53,"time":232.77343749999704,"velocity":0.8031496062992126,"duration":0.2109375},{"name":"D#3","midi":51,"time":232.9869791666637,"velocity":0.8031496062992126,"duration":0.2109375},{"name":"C5","midi":72,"time":232.9869791666637,"velocity":0.8031496062992126,"duration":0.2109375},{"name":"D3","midi":50,"time":233.20052083333036,"velocity":0.8031496062992126,"duration":0.2109375},{"name":"D5","midi":74,"time":233.20052083333036,"velocity":0.8031496062992126,"duration":0.2109375},{"name":"C3","midi":48,"time":233.41406249999702,"velocity":0.8031496062992126,"duration":0.2109375},{"name":"D#5","midi":75,"time":233.41406249999702,"velocity":0.8031496062992126,"duration":0.4244791666666572},{"name":"A#2","midi":46,"time":233.62760416666367,"velocity":0.8031496062992126,"duration":0.2109375},{"name":"A2","midi":45,"time":233.84244791666367,"velocity":0.8031496062992126,"duration":0.2109375},{"name":"D#5","midi":75,"time":233.84244791666367,"velocity":0.8031496062992126,"duration":0.4244791666666572},{"name":"C5","midi":72,"time":233.84244791666367,"velocity":0.8031496062992126,"duration":0.4244791666666572},{"name":"G4","midi":67,"time":233.84244791666367,"velocity":0.8031496062992126,"duration":0.4244791666666572},{"name":"C3","midi":48,"time":234.05598958333033,"velocity":0.8031496062992126,"duration":0.2109375},{"name":"F2","midi":41,"time":234.269531249997,"velocity":0.8031496062992126,"duration":0.4244791666666572},{"name":"A4","midi":69,"time":234.269531249997,"velocity":0.8031496062992126,"duration":0.4244791666666572},{"name":"D#5","midi":75,"time":234.269531249997,"velocity":0.8031496062992126,"duration":0.4244791666666572},{"name":"C5","midi":72,"time":234.269531249997,"velocity":0.8031496062992126,"duration":0.4244791666666572},{"name":"A#2","midi":46,"time":234.6966145833303,"velocity":0.8031496062992126,"duration":0.4244791666666572},{"name":"D5","midi":74,"time":234.6966145833303,"velocity":0.8031496062992126,"duration":0.2109375},{"name":"A#4","midi":70,"time":234.6966145833303,"velocity":0.8031496062992126,"duration":0.2109375},{"name":"C5","midi":72,"time":234.91015624999696,"velocity":0.8031496062992126,"duration":0.2109375},{"name":"F3","midi":53,"time":235.12499999999696,"velocity":0.8031496062992126,"duration":0.42447916666660035},{"name":"A4","midi":69,"time":235.12499999999696,"velocity":0.8031496062992126,"duration":0.6223958333332291},{"name":"D5","midi":74,"time":235.12499999999696,"velocity":0.8031496062992126,"duration":0.10416666666665719},{"name":"C5","midi":72,"time":235.23177083333027,"velocity":0.8031496062992126,"duration":0.10416666666665719},{"name":"D5","midi":74,"time":235.3385416666636,"velocity":0.8031496062992126,"duration":0.10416666666665719},{"name":"C5","midi":72,"time":235.4453124999969,"velocity":0.8031496062992126,"duration":0.10416666666665719},{"name":"F2","midi":41,"time":235.55208333333022,"velocity":0.8031496062992126,"duration":0.42447916666662877},{"name":"D5","midi":74,"time":235.55208333333022,"velocity":0.8031496062992126,"duration":0.10416666666665719},{"name":"C5","midi":72,"time":235.65885416666353,"velocity":0.8031496062992126,"duration":0.10416666666665719},{"name":"A#4","midi":70,"time":235.76562499999685,"velocity":0.8031496062992126,"duration":0.2109375},{"name":"A#2","midi":46,"time":235.9791666666635,"velocity":0.8031496062992126,"duration":0.2109375},{"name":"A#4","midi":70,"time":235.9791666666635,"velocity":0.8031496062992126,"duration":0.2109375},{"name":"F3","midi":53,"time":236.19270833333016,"velocity":0.8031496062992126,"duration":0.2109375},{"name":"A4","midi":69,"time":236.19270833333016,"velocity":0.8031496062992126,"duration":0.2109375},{"name":"G3","midi":55,"time":236.40624999999682,"velocity":0.8031496062992126,"duration":0.2109375},{"name":"A#4","midi":70,"time":236.40624999999682,"velocity":0.8031496062992126,"duration":0.2109375},{"name":"A3","midi":57,"time":236.62109374999682,"velocity":0.8031496062992126,"duration":0.2109375},{"name":"C5","midi":72,"time":236.62109374999682,"velocity":0.8031496062992126,"duration":0.2109375},{"name":"A#3","midi":58,"time":236.83463541666347,"velocity":0.8031496062992126,"duration":0.2109375},{"name":"D5","midi":74,"time":236.83463541666347,"velocity":0.8031496062992126,"duration":0.6223958333333144},{"name":"C4","midi":60,"time":237.04817708333013,"velocity":0.8031496062992126,"duration":0.2109375},{"name":"D#5","midi":75,"time":237.04817708333013,"velocity":0.8031496062992126,"duration":0.2109375},{"name":"D4","midi":62,"time":237.2617187499968,"velocity":0.8031496062992126,"duration":0.2109375},{"name":"F5","midi":77,"time":237.2617187499968,"velocity":0.8031496062992126,"duration":0.2135416666666572},{"name":"A#3","midi":58,"time":237.47526041666345,"velocity":0.8031496062992126,"duration":0.2109375},{"name":"A#5","midi":82,"time":237.47526041666345,"velocity":0.8031496062992126,"duration":0.2109375},{"name":"D#4","midi":63,"time":237.6888020833301,"velocity":0.8031496062992126,"duration":0.2109375},{"name":"C5","midi":72,"time":237.6888020833301,"velocity":0.8031496062992126,"duration":0.2669270833333428},{"name":"F4","midi":65,"time":237.9036458333301,"velocity":0.8031496062992126,"duration":0.2109375},{"name":"D5","midi":74,"time":237.9036458333301,"velocity":0.8031496062992126,"duration":0.2109375},{"name":"D#4","midi":63,"time":238.11718749999676,"velocity":0.8031496062992126,"duration":0.2109375},{"name":"D#5","midi":75,"time":238.11718749999676,"velocity":0.8031496062992126,"duration":0.2109375},{"name":"D4","midi":62,"time":238.33072916666342,"velocity":0.8031496062992126,"duration":0.2109375},{"name":"A#5","midi":82,"time":238.33072916666342,"velocity":0.8031496062992126,"duration":0.2109375},{"name":"C4","midi":60,"time":238.54427083333007,"velocity":0.8031496062992126,"duration":0.2109375},{"name":"A4","midi":69,"time":238.54427083333007,"velocity":0.8031496062992126,"duration":0.6223958333333144},{"name":"F4","midi":65,"time":238.75781249999673,"velocity":0.8031496062992126,"duration":0.2109375},{"name":"A#4","midi":70,"time":238.75781249999673,"velocity":0.8031496062992126,"duration":0.2109375},{"name":"D#4","midi":63,"time":238.9713541666634,"velocity":0.8031496062992126,"duration":0.2109375},{"name":"C5","midi":72,"time":238.9713541666634,"velocity":0.8031496062992126,"duration":0.2109375},{"name":"F4","midi":65,"time":239.1861979166634,"velocity":0.8031496062992126,"duration":0.2109375},{"name":"A5","midi":81,"time":239.1861979166634,"velocity":0.8031496062992126,"duration":0.2109375},{"name":"D4","midi":62,"time":239.39973958333005,"velocity":0.8031496062992126,"duration":0.2109375},{"name":"A#4","midi":70,"time":239.39973958333005,"velocity":0.8031496062992126,"duration":0.2669270833333144},{"name":"D#4","midi":63,"time":239.6132812499967,"velocity":0.8031496062992126,"duration":0.2109375},{"name":"C5","midi":72,"time":239.6132812499967,"velocity":0.8031496062992126,"duration":0.2109375},{"name":"D4","midi":62,"time":239.82682291666336,"velocity":0.8031496062992126,"duration":0.2109375},{"name":"D5","midi":74,"time":239.82682291666336,"velocity":0.8031496062992126,"duration":0.2109375},{"name":"C4","midi":60,"time":240.04036458333002,"velocity":0.8031496062992126,"duration":0.2109375},{"name":"F5","midi":77,"time":240.04036458333002,"velocity":0.8031496062992126,"duration":0.2109375},{"name":"A#3","midi":58,"time":240.25390624999667,"velocity":0.8031496062992126,"duration":0.2109375},{"name":"G4","midi":67,"time":240.25390624999667,"velocity":0.8031496062992126,"duration":0.6223958333333144},{"name":"D#4","midi":63,"time":240.46874999999667,"velocity":0.8031496062992126,"duration":0.2109375},{"name":"A4","midi":69,"time":240.46874999999667,"velocity":0.8031496062992126,"duration":0.2109375},{"name":"D4","midi":62,"time":240.68229166666333,"velocity":0.8031496062992126,"duration":0.2109375},{"name":"A#4","midi":70,"time":240.68229166666333,"velocity":0.8031496062992126,"duration":0.2109375},{"name":"D#4","midi":63,"time":240.89583333333,"velocity":0.8031496062992126,"duration":0.2109375},{"name":"G5","midi":79,"time":240.89583333333,"velocity":0.8031496062992126,"duration":0.2109375},{"name":"C4","midi":60,"time":241.10937499999665,"velocity":0.8031496062992126,"duration":0.2109375},{"name":"A4","midi":69,"time":241.10937499999665,"velocity":0.8031496062992126,"duration":0.2669270833333144},{"name":"D4","midi":62,"time":241.3229166666633,"velocity":0.8031496062992126,"duration":0.2109375},{"name":"A#4","midi":70,"time":241.3229166666633,"velocity":0.8031496062992126,"duration":0.2109375},{"name":"C4","midi":60,"time":241.53645833332996,"velocity":0.8031496062992126,"duration":0.2109375},{"name":"C5","midi":72,"time":241.53645833332996,"velocity":0.8031496062992126,"duration":0.2109375},{"name":"A#3","midi":58,"time":241.74999999999662,"velocity":0.8031496062992126,"duration":0.2109375},{"name":"D#5","midi":75,"time":241.74999999999662,"velocity":0.8031496062992126,"duration":0.2109375},{"name":"A3","midi":57,"time":241.96484374999662,"velocity":0.8031496062992126,"duration":0.2109375},{"name":"F4","midi":65,"time":241.96484374999662,"velocity":0.8031496062992126,"duration":0.6223958333333144},{"name":"D4","midi":62,"time":242.17838541666328,"velocity":0.8031496062992126,"duration":0.2109375},{"name":"G4","midi":67,"time":242.17838541666328,"velocity":0.8031496062992126,"duration":0.2109375},{"name":"C4","midi":60,"time":242.39192708332993,"velocity":0.8031496062992126,"duration":0.2109375},{"name":"A4","midi":69,"time":242.39192708332993,"velocity":0.8031496062992126,"duration":0.2109375},{"name":"D4","midi":62,"time":242.6054687499966,"velocity":0.8031496062992126,"duration":0.2109375},{"name":"F5","midi":77,"time":242.6054687499966,"velocity":0.8031496062992126,"duration":0.2109375},{"name":"A#3","midi":58,"time":242.81901041666325,"velocity":0.8031496062992126,"duration":0.2109375},{"name":"G4","midi":67,"time":242.81901041666325,"velocity":0.8031496062992126,"duration":0.2669270833333144},{"name":"C4","midi":60,"time":243.0325520833299,"velocity":0.8031496062992126,"duration":0.2109375},{"name":"A4","midi":69,"time":243.0325520833299,"velocity":0.8031496062992126,"duration":0.2109375},{"name":"A#3","midi":58,"time":243.2473958333299,"velocity":0.8031496062992126,"duration":0.2109375},{"name":"A#4","midi":70,"time":243.2473958333299,"velocity":0.8031496062992126,"duration":0.2109375},{"name":"A3","midi":57,"time":243.46093749999656,"velocity":0.8031496062992126,"duration":0.2109375},{"name":"D5","midi":74,"time":243.46093749999656,"velocity":0.8031496062992126,"duration":0.2109375},{"name":"G3","midi":55,"time":243.67447916666322,"velocity":0.8031496062992126,"duration":0.2109375},{"name":"D#4","midi":63,"time":243.67447916666322,"velocity":0.8031496062992126,"duration":0.3997395833333144},{"name":"C4","midi":60,"time":243.88802083332988,"velocity":0.8031496062992126,"duration":0.2109375},{"name":"F4","midi":65,"time":243.88802083332988,"velocity":0.8031496062992126,"duration":0.2109375},{"name":"A#3","midi":58,"time":244.10156249999653,"velocity":0.8031496062992126,"duration":0.2109375},{"name":"G4","midi":67,"time":244.10156249999653,"velocity":0.8031496062992126,"duration":0.2109375},{"name":"C4","midi":60,"time":244.3151041666632,"velocity":0.8031496062992126,"duration":0.2109375},{"name":"D#5","midi":75,"time":244.3151041666632,"velocity":0.8031496062992126,"duration":0.2109375},{"name":"A3","midi":57,"time":244.5299479166632,"velocity":0.8031496062992126,"duration":0.2109375},{"name":"F4","midi":65,"time":244.5299479166632,"velocity":0.8031496062992126,"duration":0.2669270833333144},{"name":"A#3","midi":58,"time":244.74348958332985,"velocity":0.8031496062992126,"duration":0.2109375},{"name":"G4","midi":67,"time":244.74348958332985,"velocity":0.8031496062992126,"duration":0.2109375},{"name":"A3","midi":57,"time":244.9570312499965,"velocity":0.8031496062992126,"duration":0.2109375},{"name":"A4","midi":69,"time":244.9570312499965,"velocity":0.8031496062992126,"duration":0.2109375},{"name":"G3","midi":55,"time":245.17057291666316,"velocity":0.8031496062992126,"duration":0.2109375},{"name":"C5","midi":72,"time":245.17057291666316,"velocity":0.8031496062992126,"duration":0.2109375},{"name":"F3","midi":53,"time":245.38411458332982,"velocity":0.8031496062992126,"duration":0.2109375},{"name":"D4","midi":62,"time":245.38411458332982,"velocity":0.8031496062992126,"duration":0.3111979166666572},{"name":"A#3","midi":58,"time":245.59765624999648,"velocity":0.8031496062992126,"duration":0.2109375},{"name":"D#4","midi":63,"time":245.59765624999648,"velocity":0.8031496062992126,"duration":0.2109375},{"name":"A3","midi":57,"time":245.81249999999648,"velocity":0.8031496062992126,"duration":0.2109375},{"name":"F4","midi":65,"time":245.81249999999648,"velocity":0.8031496062992126,"duration":0.2109375},{"name":"A#3","midi":58,"time":246.02604166666313,"velocity":0.8031496062992126,"duration":0.2109375},{"name":"D5","midi":74,"time":246.02604166666313,"velocity":0.8031496062992126,"duration":0.2109375},{"name":"G3","midi":55,"time":246.2395833333298,"velocity":0.8031496062992126,"duration":0.4244791666666572},{"name":"D#4","midi":63,"time":246.2395833333298,"velocity":0.8031496062992126,"duration":0.35546875},{"name":"D5","midi":74,"time":246.45312499999645,"velocity":0.8031496062992126,"duration":0.2109375},{"name":"F3","midi":53,"time":246.6666666666631,"velocity":0.8031496062992126,"duration":0.4244791666666572},{"name":"D4","midi":62,"time":246.6666666666631,"velocity":0.8031496062992126,"duration":0.2447916666666572},{"name":"D5","midi":74,"time":246.88020833332976,"velocity":0.8031496062992126,"duration":0.2109375},{"name":"G3","midi":55,"time":247.09374999999642,"velocity":0.8031496062992126,"duration":0.4244791666666572},{"name":"D#4","midi":63,"time":247.09374999999642,"velocity":0.8031496062992126,"duration":0.2447916666666572},{"name":"C5","midi":72,"time":247.30859374999642,"velocity":0.8031496062992126,"duration":0.2109375},{"name":"A3","midi":57,"time":247.52213541666308,"velocity":0.8031496062992126,"duration":0.4244791666666572},{"name":"C4","midi":60,"time":247.52213541666308,"velocity":0.8031496062992126,"duration":0.2447916666666572},{"name":"C5","midi":72,"time":247.73567708332973,"velocity":0.8031496062992126,"duration":0.2109375},{"name":"A#3","midi":58,"time":247.9492187499964,"velocity":0.8031496062992126,"duration":0.4244791666666572},{"name":"D4","midi":62,"time":247.9492187499964,"velocity":0.8031496062992126,"duration":0.35546875},{"name":"C5","midi":72,"time":248.16276041666305,"velocity":0.8031496062992126,"duration":0.2109375},{"name":"C4","midi":60,"time":248.3763020833297,"velocity":0.8031496062992126,"duration":0.4244791666666572},{"name":"D#4","midi":63,"time":248.3763020833297,"velocity":0.8031496062992126,"duration":0.2109375},{"name":"C5","midi":72,"time":248.5911458333297,"velocity":0.8031496062992126,"duration":0.2109375},{"name":"D4","midi":62,"time":248.80468749999636,"velocity":0.8031496062992126,"duration":0.4244791666666572},{"name":"F4","midi":65,"time":248.80468749999636,"velocity":0.8031496062992126,"duration":0.2109375},{"name":"A#4","midi":70,"time":249.01822916666302,"velocity":0.8031496062992126,"duration":0.2109375},{"name":"A#2","midi":46,"time":249.23177083332968,"velocity":0.8031496062992126,"duration":0.4244791666666572},{"name":"D4","midi":62,"time":249.23177083332968,"velocity":0.8031496062992126,"duration":0.2109375},{"name":"A#4","midi":70,"time":249.44531249999633,"velocity":0.8031496062992126,"duration":0.2109375},{"name":"D#3","midi":51,"time":249.658854166663,"velocity":0.8031496062992126,"duration":0.4244791666666572},{"name":"G4","midi":67,"time":249.658854166663,"velocity":0.8031496062992126,"duration":0.3111979166666572},{"name":"A#4","midi":70,"time":249.873697916663,"velocity":0.8031496062992126,"duration":0.2109375},{"name":"D3","midi":50,"time":250.08723958332965,"velocity":0.8031496062992126,"duration":0.4244791666666572},{"name":"F4","midi":65,"time":250.08723958332965,"velocity":0.8031496062992126,"duration":0.3111979166666572},{"name":"A#4","midi":70,"time":250.3007812499963,"velocity":0.8031496062992126,"duration":0.2109375},{"name":"C3","midi":48,"time":250.51432291666296,"velocity":0.8031496062992126,"duration":0.4244791666666572},{"name":"D#4","midi":63,"time":250.51432291666296,"velocity":0.8031496062992126,"duration":0.3333333333333144},{"name":"A#4","midi":70,"time":250.72786458332962,"velocity":0.8031496062992126,"duration":0.2109375},{"name":"D#3","midi":51,"time":250.94140624999628,"velocity":0.8031496062992126,"duration":0.4244791666666572},{"name":"G4","midi":67,"time":250.94140624999628,"velocity":0.8031496062992126,"duration":0.2109375},{"name":"A#4","midi":70,"time":251.15624999999628,"velocity":0.8031496062992126,"duration":0.2109375},{"name":"D3","midi":50,"time":251.36979166666293,"velocity":0.8031496062992126,"duration":0.4244791666666572},{"name":"F4","midi":65,"time":251.36979166666293,"velocity":0.8031496062992126,"duration":0.3111979166666572},{"name":"A#4","midi":70,"time":251.5833333333296,"velocity":0.8031496062992126,"duration":0.2109375},{"name":"C3","midi":48,"time":251.79687499999625,"velocity":0.8031496062992126,"duration":0.4244791666666572},{"name":"D#4","midi":63,"time":251.79687499999625,"velocity":0.8031496062992126,"duration":0.3333333333333144},{"name":"A#4","midi":70,"time":252.0104166666629,"velocity":0.8031496062992126,"duration":0.2109375},{"name":"A#2","midi":46,"time":252.22395833332956,"velocity":0.8031496062992126,"duration":1.2799479166666288},{"name":"D4","midi":62,"time":252.22395833332956,"velocity":0.8031496062992126,"duration":0.35546875},{"name":"A#4","midi":70,"time":252.43749999999622,"velocity":0.8031496062992126,"duration":0.2109375},{"name":"C3","midi":48,"time":252.65234374999622,"velocity":0.8031496062992126,"duration":0.4244791666666572},{"name":"C4","midi":60,"time":252.65234374999622,"velocity":0.8031496062992126,"duration":0.2109375},{"name":"A#4","midi":70,"time":252.86588541666288,"velocity":0.8031496062992126,"duration":0.2109375},{"name":"D3","midi":50,"time":253.07942708332953,"velocity":0.8031496062992126,"duration":0.4244791666666572},{"name":"A#3","midi":58,"time":253.07942708332953,"velocity":0.8031496062992126,"duration":0.2109375},{"name":"A#4","midi":70,"time":253.2929687499962,"velocity":0.8031496062992126,"duration":0.2109375},{"name":"E3","midi":52,"time":253.50651041666285,"velocity":0.8031496062992126,"duration":0.4244791666666572},{"name":"A#2","midi":46,"time":253.50651041666285,"velocity":0.8031496062992126,"duration":0.4244791666666572},{"name":"C4","midi":60,"time":253.50651041666285,"velocity":0.8031496062992126,"duration":0.2109375},{"name":"A#4","midi":70,"time":253.7200520833295,"velocity":0.8031496062992126,"duration":0.2109375},{"name":"A2","midi":45,"time":253.9348958333295,"velocity":0.8031496062992126,"duration":0.4244791666666572},{"name":"F3","midi":53,"time":253.9348958333295,"velocity":0.8031496062992126,"duration":0.4244791666666572},{"name":"D4","midi":62,"time":253.9348958333295,"velocity":0.8031496062992126,"duration":0.2109375},{"name":"A#4","midi":70,"time":254.14843749999616,"velocity":0.8031496062992126,"duration":0.2109375},{"name":"G3","midi":55,"time":254.36197916666282,"velocity":0.8031496062992126,"duration":0.4244791666666572},{"name":"G2","midi":43,"time":254.36197916666282,"velocity":0.8031496062992126,"duration":0.4244791666666572},{"name":"E4","midi":64,"time":254.36197916666282,"velocity":0.8031496062992126,"duration":0.2109375},{"name":"A#4","midi":70,"time":254.57552083332948,"velocity":0.8031496062992126,"duration":0.2109375},{"name":"C3","midi":48,"time":254.78906249999613,"velocity":0.8031496062992126,"duration":1.0013020833333144},{"name":"F2","midi":41,"time":254.78906249999613,"velocity":0.8031496062992126,"duration":0.8450520833333144},{"name":"A4","midi":69,"time":254.78906249999613,"velocity":0.8031496062992126,"duration":0.6223958333333144},{"name":"F4","midi":65,"time":254.78906249999613,"velocity":0.8031496062992126,"duration":0.2109375},{"name":"C4","midi":60,"time":255.0026041666628,"velocity":0.8031496062992126,"duration":0.2109375},{"name":"D4","midi":62,"time":255.2174479166628,"velocity":0.8031496062992126,"duration":0.2109375},{"name":"E4","midi":64,"time":255.43098958332945,"velocity":0.8031496062992126,"duration":0.2109375},{"name":"F4","midi":65,"time":255.6445312499961,"velocity":0.8031496062992126,"duration":0.2109375},{"name":"F3","midi":53,"time":255.85807291666276,"velocity":0.8031496062992126,"duration":0.2109375},{"name":"G4","midi":67,"time":255.85807291666276,"velocity":0.8031496062992126,"duration":0.2109375},{"name":"E3","midi":52,"time":256.07161458332945,"velocity":0.8031496062992126,"duration":0.21093750000005684},{"name":"A4","midi":69,"time":256.07161458332945,"velocity":0.8031496062992126,"duration":0.10416666666668561},{"name":"G4","midi":67,"time":256.1783854166628,"velocity":0.8031496062992126,"duration":0.10416666666668561},{"name":"F3","midi":53,"time":256.2851562499962,"velocity":0.8031496062992126,"duration":0.21093750000005684},{"name":"F4","midi":65,"time":256.2851562499962,"velocity":0.8031496062992126,"duration":0.10416666666668561},{"name":"G4","midi":67,"time":256.39192708332956,"velocity":0.8031496062992126,"duration":0.10416666666668561},{"name":"C3","midi":48,"time":256.49999999999625,"velocity":0.8031496062992126,"duration":0.2109375},{"name":"A4","midi":69,"time":256.49999999999625,"velocity":0.8031496062992126,"duration":0.4244791666666856},{"name":"F3","midi":53,"time":256.71354166666293,"velocity":0.8031496062992126,"duration":0.2109375},{"name":"D3","midi":50,"time":256.9270833333296,"velocity":0.8031496062992126,"duration":0.2109375},{"name":"A#4","midi":70,"time":256.9270833333296,"velocity":0.8031496062992126,"duration":0.4244791666666856},{"name":"F3","midi":53,"time":257.1406249999963,"velocity":0.8031496062992126,"duration":0.2109375},{"name":"C3","midi":48,"time":257.354166666663,"velocity":0.8031496062992126,"duration":0.2109375},{"name":"A4","midi":69,"time":257.354166666663,"velocity":0.8031496062992126,"duration":0.4244791666666856},{"name":"F3","midi":53,"time":257.5677083333297,"velocity":0.8031496062992126,"duration":0.2109375},{"name":"A#2","midi":46,"time":257.78124999999636,"velocity":0.8031496062992126,"duration":0.2109375},{"name":"G4","midi":67,"time":257.78124999999636,"velocity":0.8031496062992126,"duration":0.4244791666666856},{"name":"F3","midi":53,"time":257.99609374999636,"velocity":0.8031496062992126,"duration":0.2109375},{"name":"A2","midi":45,"time":258.20963541666305,"velocity":0.8031496062992126,"duration":0.2109375},{"name":"F4","midi":65,"time":258.20963541666305,"velocity":0.8031496062992126,"duration":3.4062500000002274},{"name":"F3","midi":53,"time":258.42317708332973,"velocity":0.8031496062992126,"duration":0.2109375},{"name":"A#2","midi":46,"time":258.6367187499964,"velocity":0.8031496062992126,"duration":0.2109375},{"name":"D5","midi":74,"time":258.6367187499964,"velocity":0.8031496062992126,"duration":0.4244791666666856},{"name":"F3","midi":53,"time":258.8502604166631,"velocity":0.8031496062992126,"duration":0.2109375},{"name":"A2","midi":45,"time":259.0638020833298,"velocity":0.8031496062992126,"duration":0.2109375},{"name":"C5","midi":72,"time":259.0638020833298,"velocity":0.8031496062992126,"duration":0.4244791666666856},{"name":"F3","midi":53,"time":259.2786458333298,"velocity":0.8031496062992126,"duration":0.2109375},{"name":"G2","midi":43,"time":259.4921874999965,"velocity":0.8031496062992126,"duration":0.2109375},{"name":"A#4","midi":70,"time":259.4921874999965,"velocity":0.8031496062992126,"duration":0.4244791666666856},{"name":"F3","midi":53,"time":259.70572916666316,"velocity":0.8031496062992126,"duration":0.2109375},{"name":"F2","midi":41,"time":259.91927083332985,"velocity":0.8031496062992126,"duration":0.2109375},{"name":"A4","midi":69,"time":259.91927083332985,"velocity":0.8031496062992126,"duration":0.4244791666666856},{"name":"F3","midi":53,"time":260.13281249999653,"velocity":0.8031496062992126,"duration":0.2109375},{"name":"G2","midi":43,"time":260.3463541666632,"velocity":0.8031496062992126,"duration":0.2109375},{"name":"A#4","midi":70,"time":260.3463541666632,"velocity":0.8031496062992126,"duration":0.4244791666666856},{"name":"F3","midi":53,"time":260.5611979166632,"velocity":0.8031496062992126,"duration":0.2109375},{"name":"A2","midi":45,"time":260.7747395833299,"velocity":0.8031496062992126,"duration":0.2109375},{"name":"C5","midi":72,"time":260.7747395833299,"velocity":0.8031496062992126,"duration":0.4244791666666856},{"name":"F3","midi":53,"time":260.9882812499966,"velocity":0.8031496062992126,"duration":0.2109375},{"name":"A#2","midi":46,"time":261.2018229166633,"velocity":0.8031496062992126,"duration":0.2109375},{"name":"D5","midi":74,"time":261.2018229166633,"velocity":0.8031496062992126,"duration":0.4244791666666856},{"name":"F3","midi":53,"time":261.41536458332996,"velocity":0.8031496062992126,"duration":0.2109375},{"name":"C3","midi":48,"time":261.62890624999665,"velocity":0.8031496062992126,"duration":0.2109375},{"name":"G4","midi":67,"time":261.62890624999665,"velocity":0.8031496062992126,"duration":0.8450520833333712},{"name":"G2","midi":43,"time":261.84374999999665,"velocity":0.8031496062992126,"duration":0.2109375},{"name":"A2","midi":45,"time":262.05729166666333,"velocity":0.8031496062992126,"duration":0.2109375},{"name":"E4","midi":64,"time":262.05729166666333,"velocity":0.8031496062992126,"duration":0.2109375},{"name":"B2","midi":47,"time":262.27083333333,"velocity":0.8031496062992126,"duration":0.2109375},{"name":"D4","midi":62,"time":262.27083333333,"velocity":0.8031496062992126,"duration":0.2109375},{"name":"C3","midi":48,"time":262.4843749999967,"velocity":0.8031496062992126,"duration":0.2109375},{"name":"E4","midi":64,"time":262.4843749999967,"velocity":0.8031496062992126,"duration":0.4244791666666856},{"name":"D3","midi":50,"time":262.6979166666634,"velocity":0.8031496062992126,"duration":0.2109375},{"name":"E3","midi":52,"time":262.9114583333301,"velocity":0.8031496062992126,"duration":0.2109375},{"name":"E4","midi":64,"time":262.9114583333301,"velocity":0.8031496062992126,"duration":0.4244791666666856},{"name":"G4","midi":67,"time":262.9114583333301,"velocity":0.8031496062992126,"duration":0.4244791666666856},{"name":"C5","midi":72,"time":262.9114583333301,"velocity":0.8031496062992126,"duration":0.4244791666666856},{"name":"C3","midi":48,"time":263.12499999999676,"velocity":0.8031496062992126,"duration":0.2109375},{"name":"F3","midi":53,"time":263.33984374999676,"velocity":0.8031496062992126,"duration":0.2109375},{"name":"D4","midi":62,"time":263.33984374999676,"velocity":0.8031496062992126,"duration":0.8450520833333712},{"name":"C5","midi":72,"time":263.33984374999676,"velocity":0.8031496062992126,"duration":0.4244791666666856},{"name":"A4","midi":69,"time":263.33984374999676,"velocity":0.8031496062992126,"duration":0.8450520833333712},{"name":"G3","midi":55,"time":263.55338541666345,"velocity":0.8031496062992126,"duration":0.2109375},{"name":"F3","midi":53,"time":263.76692708333013,"velocity":0.8031496062992126,"duration":0.2109375},{"name":"D5","midi":74,"time":263.76692708333013,"velocity":0.8031496062992126,"duration":0.2109375},{"name":"E3","midi":52,"time":263.9804687499968,"velocity":0.8031496062992126,"duration":0.2109375},{"name":"C5","midi":72,"time":263.9804687499968,"velocity":0.8031496062992126,"duration":0.2109375},{"name":"D3","midi":50,"time":264.1940104166635,"velocity":0.8031496062992126,"duration":0.2109375},{"name":"A#4","midi":70,"time":264.1940104166635,"velocity":0.8031496062992126,"duration":0.4244791666666856},{"name":"G3","midi":55,"time":264.4075520833302,"velocity":0.8031496062992126,"duration":0.2109375},{"name":"F3","midi":53,"time":264.6223958333302,"velocity":0.8031496062992126,"duration":0.2109375},{"name":"G4","midi":67,"time":264.6223958333302,"velocity":0.8031496062992126,"duration":0.421875},{"name":"D4","midi":62,"time":264.6223958333302,"velocity":0.8031496062992126,"duration":0.421875},{"name":"A#4","midi":70,"time":264.6223958333302,"velocity":0.8031496062992126,"duration":0.421875},{"name":"G3","midi":55,"time":264.8359374999969,"velocity":0.8031496062992126,"duration":0.2109375},{"name":"E3","midi":52,"time":265.04947916666356,"velocity":0.8031496062992126,"duration":0.2109375},{"name":"A#4","midi":70,"time":265.04947916666356,"velocity":0.8031496062992126,"duration":0.4244791666666856},{"name":"G4","midi":67,"time":265.04947916666356,"velocity":0.8031496062992126,"duration":0.8450520833333712},{"name":"C4","midi":60,"time":265.04947916666356,"velocity":0.8031496062992126,"duration":0.8450520833333712},{"name":"C3","midi":48,"time":265.26302083333024,"velocity":0.8031496062992126,"duration":0.2109375},{"name":"D3","midi":50,"time":265.47656249999693,"velocity":0.8031496062992126,"duration":0.2109375},{"name":"C5","midi":72,"time":265.47656249999693,"velocity":0.8031496062992126,"duration":0.2109375},{"name":"E3","midi":52,"time":265.6901041666636,"velocity":0.8031496062992126,"duration":0.2109375},{"name":"A#4","midi":70,"time":265.6901041666636,"velocity":0.8031496062992126,"duration":0.2109375},{"name":"F3","midi":53,"time":265.9049479166636,"velocity":0.8031496062992126,"duration":0.2109375},{"name":"A4","midi":69,"time":265.9049479166636,"velocity":0.8031496062992126,"duration":0.4244791666666856},{"name":"G3","midi":55,"time":266.1184895833303,"velocity":0.8031496062992126,"duration":0.2109375},{"name":"A3","midi":57,"time":266.332031249997,"velocity":0.8031496062992126,"duration":0.2109375},{"name":"F5","midi":77,"time":266.332031249997,"velocity":0.8031496062992126,"duration":0.4244791666666856},{"name":"C5","midi":72,"time":266.332031249997,"velocity":0.8031496062992126,"duration":0.4244791666666856},{"name":"A4","midi":69,"time":266.332031249997,"velocity":0.8031496062992126,"duration":0.4244791666666856},{"name":"F3","midi":53,"time":266.5455729166637,"velocity":0.8031496062992126,"duration":0.2109375},{"name":"A#3","midi":58,"time":266.75911458333036,"velocity":0.8031496062992126,"duration":0.2109375},{"name":"G4","midi":67,"time":266.75911458333036,"velocity":0.8031496062992126,"duration":0.8450520833333712},{"name":"F5","midi":77,"time":266.75911458333036,"velocity":0.8031496062992126,"duration":0.4244791666666856},{"name":"D5","midi":74,"time":266.75911458333036,"velocity":0.8031496062992126,"duration":0.8450520833333712},{"name":"C4","midi":60,"time":266.97265624999704,"velocity":0.8031496062992126,"duration":0.2109375},{"name":"A#3","midi":58,"time":267.18749999999704,"velocity":0.8031496062992126,"duration":0.2109375},{"name":"G5","midi":79,"time":267.18749999999704,"velocity":0.8031496062992126,"duration":0.2109375},{"name":"A3","midi":57,"time":267.40104166666373,"velocity":0.8031496062992126,"duration":0.2109375},{"name":"F5","midi":77,"time":267.40104166666373,"velocity":0.8031496062992126,"duration":0.2109375},{"name":"G3","midi":55,"time":267.6145833333304,"velocity":0.8031496062992126,"duration":0.2109375},{"name":"D#5","midi":75,"time":267.6145833333304,"velocity":0.8031496062992126,"duration":0.4244791666666856},{"name":"C4","midi":60,"time":267.8281249999971,"velocity":0.8031496062992126,"duration":0.2109375},{"name":"A#3","midi":58,"time":268.0416666666638,"velocity":0.8031496062992126,"duration":0.2109375},{"name":"D#5","midi":75,"time":268.0416666666638,"velocity":0.8031496062992126,"duration":0.4244791666666856},{"name":"C5","midi":72,"time":268.0416666666638,"velocity":0.8031496062992126,"duration":0.4244791666666856},{"name":"G4","midi":67,"time":268.0416666666638,"velocity":0.8031496062992126,"duration":0.4244791666666856},{"name":"C4","midi":60,"time":268.2552083333305,"velocity":0.8031496062992126,"duration":0.2109375},{"name":"A3","midi":57,"time":268.46874999999716,"velocity":0.8031496062992126,"duration":0.2109375},{"name":"C5","midi":72,"time":268.46874999999716,"velocity":0.8031496062992126,"duration":0.8450520833333712},{"name":"F4","midi":65,"time":268.46874999999716,"velocity":0.8031496062992126,"duration":0.8450520833333712},{"name":"D#5","midi":75,"time":268.46874999999716,"velocity":0.8031496062992126,"duration":0.4244791666666856},{"name":"F3","midi":53,"time":268.68359374999716,"velocity":0.8031496062992126,"duration":0.2109375},{"name":"G3","midi":55,"time":268.89713541666384,"velocity":0.8031496062992126,"duration":0.2109375},{"name":"F5","midi":77,"time":268.89713541666384,"velocity":0.8031496062992126,"duration":0.2109375},{"name":"A3","midi":57,"time":269.11067708333053,"velocity":0.8031496062992126,"duration":0.2109375},{"name":"D#5","midi":75,"time":269.11067708333053,"velocity":0.8031496062992126,"duration":0.2109375},{"name":"A#3","midi":58,"time":269.3242187499972,"velocity":0.8031496062992126,"duration":0.2109375},{"name":"D5","midi":74,"time":269.3242187499972,"velocity":0.8031496062992126,"duration":0.4244791666666856},{"name":"C4","midi":60,"time":269.5377604166639,"velocity":0.8031496062992126,"duration":0.2109375},{"name":"D4","midi":62,"time":269.7513020833306,"velocity":0.8031496062992126,"duration":0.2109375},{"name":"F5","midi":77,"time":269.7513020833306,"velocity":0.8031496062992126,"duration":0.4244791666666856},{"name":"D5","midi":74,"time":269.7513020833306,"velocity":0.8031496062992126,"duration":0.4244791666666856},{"name":"A#5","midi":82,"time":269.7513020833306,"velocity":0.8031496062992126,"duration":0.4244791666666856},{"name":"A#3","midi":58,"time":269.9661458333306,"velocity":0.8031496062992126,"duration":0.2109375},{"name":"D#4","midi":63,"time":270.17968749999727,"velocity":0.8031496062992126,"duration":0.2109375},{"name":"A#5","midi":82,"time":270.17968749999727,"velocity":0.8031496062992126,"duration":0.4244791666666856},{"name":"C5","midi":72,"time":270.17968749999727,"velocity":0.8031496062992126,"duration":0.8450520833333712},{"name":"G5","midi":79,"time":270.17968749999727,"velocity":0.8031496062992126,"duration":0.8450520833333712},{"name":"F4","midi":65,"time":270.39322916666396,"velocity":0.8031496062992126,"duration":0.2109375},{"name":"D#4","midi":63,"time":270.60677083333064,"velocity":0.8031496062992126,"duration":0.2109375},{"name":"C6","midi":84,"time":270.60677083333064,"velocity":0.8031496062992126,"duration":0.2109375},{"name":"D4","midi":62,"time":270.8203124999973,"velocity":0.8031496062992126,"duration":0.2109375},{"name":"A#5","midi":82,"time":270.8203124999973,"velocity":0.8031496062992126,"duration":0.2109375},{"name":"C4","midi":60,"time":271.033854166664,"velocity":0.8031496062992126,"duration":0.2109375},{"name":"A5","midi":81,"time":271.033854166664,"velocity":0.8031496062992126,"duration":0.4244791666666856},{"name":"F4","midi":65,"time":271.248697916664,"velocity":0.8031496062992126,"duration":0.2109375},{"name":"D#4","midi":63,"time":271.4622395833307,"velocity":0.8031496062992126,"duration":0.2109375},{"name":"F5","midi":77,"time":271.4622395833307,"velocity":0.8031496062992126,"duration":0.4244791666666856},{"name":"C5","midi":72,"time":271.4622395833307,"velocity":0.8031496062992126,"duration":0.4244791666666856},{"name":"A5","midi":81,"time":271.4622395833307,"velocity":0.8031496062992126,"duration":0.4244791666666856},{"name":"F4","midi":65,"time":271.6757812499974,"velocity":0.8031496062992126,"duration":0.2109375},{"name":"D4","midi":62,"time":271.88932291666407,"velocity":0.8031496062992126,"duration":0.2109375},{"name":"A#4","midi":70,"time":271.88932291666407,"velocity":0.8031496062992126,"duration":0.8450520833333712},{"name":"A5","midi":81,"time":271.88932291666407,"velocity":0.8031496062992126,"duration":0.4244791666666856},{"name":"F5","midi":77,"time":271.88932291666407,"velocity":0.8031496062992126,"duration":0.8450520833333712},{"name":"D#4","midi":63,"time":272.10286458333076,"velocity":0.8031496062992126,"duration":0.2109375},{"name":"D4","midi":62,"time":272.31640624999744,"velocity":0.8031496062992126,"duration":0.2109375},{"name":"A#5","midi":82,"time":272.31640624999744,"velocity":0.8031496062992126,"duration":0.2109375},{"name":"C4","midi":60,"time":272.53124999999744,"velocity":0.8031496062992126,"duration":0.2109375},{"name":"A5","midi":81,"time":272.53124999999744,"velocity":0.8031496062992126,"duration":0.2109375},{"name":"A#3","midi":58,"time":272.7447916666641,"velocity":0.8031496062992126,"duration":0.2109375},{"name":"G5","midi":79,"time":272.7447916666641,"velocity":0.8031496062992126,"duration":0.4244791666666856},{"name":"A3","midi":57,"time":272.9583333333308,"velocity":0.8031496062992126,"duration":0.2109375},{"name":"G3","midi":55,"time":273.1718749999975,"velocity":0.8031496062992126,"duration":0.2109375},{"name":"D5","midi":74,"time":273.1718749999975,"velocity":0.8031496062992126,"duration":0.4244791666666856},{"name":"A#4","midi":70,"time":273.1718749999975,"velocity":0.8031496062992126,"duration":0.4244791666666856},{"name":"G5","midi":79,"time":273.1718749999975,"velocity":0.8031496062992126,"duration":0.4244791666666856},{"name":"F3","midi":53,"time":273.3854166666642,"velocity":0.8031496062992126,"duration":0.2109375},{"name":"E3","midi":52,"time":273.59895833333087,"velocity":0.8031496062992126,"duration":0.2109375},{"name":"C5","midi":72,"time":273.59895833333087,"velocity":0.8031496062992126,"duration":0.4244791666666856},{"name":"G5","midi":79,"time":273.59895833333087,"velocity":0.8031496062992126,"duration":0.4244791666666856},{"name":"D5","midi":74,"time":273.59895833333087,"velocity":0.8031496062992126,"duration":0.4244791666666856},{"name":"D3","midi":50,"time":273.81249999999756,"velocity":0.8031496062992126,"duration":0.2109375},{"name":"C3","midi":48,"time":274.02734374999756,"velocity":0.8031496062992126,"duration":0.2109375},{"name":"A5","midi":81,"time":274.02734374999756,"velocity":0.8031496062992126,"duration":0.2109375},{"name":"A#2","midi":46,"time":274.24088541666424,"velocity":0.8031496062992126,"duration":0.2109375},{"name":"G5","midi":79,"time":274.24088541666424,"velocity":0.8031496062992126,"duration":0.2109375},{"name":"A2","midi":45,"time":274.4544270833309,"velocity":0.8031496062992126,"duration":0.2109375},{"name":"F5","midi":77,"time":274.4544270833309,"velocity":0.8031496062992126,"duration":0.2109375},{"name":"G2","midi":43,"time":274.6679687499976,"velocity":0.8031496062992126,"duration":0.2109375},{"name":"A5","midi":81,"time":274.6679687499976,"velocity":0.8031496062992126,"duration":0.2109375},{"name":"A2","midi":45,"time":274.8815104166643,"velocity":0.8031496062992126,"duration":0.2109375},{"name":"G5","midi":79,"time":274.8815104166643,"velocity":0.8031496062992126,"duration":0.2109375},{"name":"F2","midi":41,"time":275.095052083331,"velocity":0.8031496062992126,"duration":0.2109375},{"name":"F5","midi":77,"time":275.095052083331,"velocity":0.8031496062992126,"duration":0.2109375},{"name":"C2","midi":36,"time":275.309895833331,"velocity":0.8031496062992126,"duration":0.35546875},{"name":"E5","midi":76,"time":275.309895833331,"velocity":0.8031496062992126,"duration":0.2109375},{"name":"D5","midi":74,"time":275.52343749999767,"velocity":0.8031496062992126,"duration":0.2109375},{"name":"G3","midi":55,"time":275.73697916666436,"velocity":0.8031496062992126,"duration":0.4244791666666856},{"name":"C5","midi":72,"time":275.73697916666436,"velocity":0.8031496062992126,"duration":0.2109375},{"name":"D5","midi":74,"time":275.95052083333104,"velocity":0.8031496062992126,"duration":0.2109375},{"name":"C4","midi":60,"time":276.1640624999977,"velocity":0.8031496062992126,"duration":0.4244791666666856},{"name":"E5","midi":76,"time":276.1640624999977,"velocity":0.8031496062992126,"duration":0.2109375},{"name":"D5","midi":74,"time":276.3776041666644,"velocity":0.8031496062992126,"duration":0.2109375},{"name":"C4","midi":60,"time":276.5924479166644,"velocity":0.8031496062992126,"duration":0.4244791666666856},{"name":"E5","midi":76,"time":276.5924479166644,"velocity":0.8031496062992126,"duration":0.2109375},{"name":"C5","midi":72,"time":276.8059895833311,"velocity":0.8031496062992126,"duration":0.2109375},{"name":"C4","midi":60,"time":277.0195312499978,"velocity":0.8031496062992126,"duration":0.4244791666666856},{"name":"D5","midi":74,"time":277.0195312499978,"velocity":0.8031496062992126,"duration":0.2109375},{"name":"E5","midi":76,"time":277.23307291666447,"velocity":0.8031496062992126,"duration":0.2109375},{"name":"D4","midi":62,"time":277.44661458333115,"velocity":0.8031496062992126,"duration":0.2109375},{"name":"F5","midi":77,"time":277.44661458333115,"velocity":0.8031496062992126,"duration":0.2109375},{"name":"C4","midi":60,"time":277.66015624999784,"velocity":0.8031496062992126,"duration":0.2109375},{"name":"A5","midi":81,"time":277.66015624999784,"velocity":0.8031496062992126,"duration":0.2109375},{"name":"A#3","midi":58,"time":277.87499999999784,"velocity":0.8031496062992126,"duration":0.4244791666666856},{"name":"G5","midi":79,"time":277.87499999999784,"velocity":0.8031496062992126,"duration":0.2109375},{"name":"A5","midi":81,"time":278.0885416666645,"velocity":0.8031496062992126,"duration":0.2109375},{"name":"A#3","midi":58,"time":278.3020833333312,"velocity":0.8031496062992126,"duration":0.4244791666666856},{"name":"A#5","midi":82,"time":278.3020833333312,"velocity":0.8031496062992126,"duration":0.2109375},{"name":"D5","midi":74,"time":278.5156249999979,"velocity":0.8031496062992126,"duration":0.2109375},{"name":"A#3","midi":58,"time":278.7291666666646,"velocity":0.8031496062992126,"duration":0.4244791666666856},{"name":"C5","midi":72,"time":278.7291666666646,"velocity":0.8031496062992126,"duration":0.2109375},{"name":"D5","midi":74,"time":278.94270833333127,"velocity":0.8031496062992126,"duration":0.2109375},{"name":"C4","midi":60,"time":279.15624999999795,"velocity":0.8031496062992126,"duration":0.2109375},{"name":"E5","midi":76,"time":279.15624999999795,"velocity":0.8031496062992126,"duration":0.2109375},{"name":"A#3","midi":58,"time":279.37109374999795,"velocity":0.8031496062992126,"duration":0.2109375},{"name":"G5","midi":79,"time":279.37109374999795,"velocity":0.8031496062992126,"duration":0.2109375},{"name":"A3","midi":57,"time":279.58463541666464,"velocity":0.8031496062992126,"duration":0.4244791666666856},{"name":"F5","midi":77,"time":279.58463541666464,"velocity":0.8031496062992126,"duration":0.2109375},{"name":"G5","midi":79,"time":279.7981770833313,"velocity":0.8031496062992126,"duration":0.2109375},{"name":"A3","midi":57,"time":280.011718749998,"velocity":0.8031496062992126,"duration":0.4244791666666856},{"name":"A5","midi":81,"time":280.011718749998,"velocity":0.8031496062992126,"duration":0.2109375},{"name":"C5","midi":72,"time":280.2252604166647,"velocity":0.8031496062992126,"duration":0.2109375},{"name":"A3","midi":57,"time":280.4388020833314,"velocity":0.8031496062992126,"duration":0.4244791666666856},{"name":"A#4","midi":70,"time":280.4388020833314,"velocity":0.8031496062992126,"duration":0.2109375},{"name":"C5","midi":72,"time":280.6536458333314,"velocity":0.8031496062992126,"duration":0.2109375},{"name":"A#3","midi":58,"time":280.86718749999807,"velocity":0.8031496062992126,"duration":0.2109375},{"name":"D5","midi":74,"time":280.86718749999807,"velocity":0.8031496062992126,"duration":0.2109375},{"name":"A3","midi":57,"time":281.08072916666475,"velocity":0.8031496062992126,"duration":0.2109375},{"name":"F5","midi":77,"time":281.08072916666475,"velocity":0.8031496062992126,"duration":0.2109375},{"name":"G3","midi":55,"time":281.29427083333144,"velocity":0.8031496062992126,"duration":0.2109375},{"name":"E5","midi":76,"time":281.29427083333144,"velocity":0.8031496062992126,"duration":0.2109375},{"name":"F3","midi":53,"time":281.5078124999981,"velocity":0.8031496062992126,"duration":0.2109375},{"name":"F5","midi":77,"time":281.5078124999981,"velocity":0.8031496062992126,"duration":0.2109375},{"name":"E3","midi":52,"time":281.7213541666648,"velocity":0.8031496062992126,"duration":0.2109375},{"name":"G5","midi":79,"time":281.7213541666648,"velocity":0.8031496062992126,"duration":0.24479166666668561},{"name":"G3","midi":55,"time":281.9361979166648,"velocity":0.8031496062992126,"duration":0.2109375},{"name":"A#4","midi":70,"time":281.9361979166648,"velocity":0.8031496062992126,"duration":0.2109375},{"name":"F3","midi":53,"time":282.1497395833315,"velocity":0.8031496062992126,"duration":0.2109375},{"name":"A4","midi":69,"time":282.1497395833315,"velocity":0.8031496062992126,"duration":0.3893229166666856},{"name":"A#3","midi":58,"time":282.3632812499982,"velocity":0.8031496062992126,"duration":0.2109375},{"name":"A3","midi":57,"time":282.57682291666487,"velocity":0.8031496062992126,"duration":0.2109375},{"name":"C5","midi":72,"time":282.57682291666487,"velocity":0.8031496062992126,"duration":0.3893229166666856},{"name":"G3","midi":55,"time":282.79036458333155,"velocity":0.8031496062992126,"duration":0.2109375},{"name":"F3","midi":53,"time":283.00390624999824,"velocity":0.8031496062992126,"duration":0.2109375},{"name":"F5","midi":77,"time":283.00390624999824,"velocity":0.8031496062992126,"duration":0.10677083333331439},{"name":"E5","midi":76,"time":283.11067708333155,"velocity":0.8031496062992126,"duration":0.10677083333337123},{"name":"E3","midi":52,"time":283.21874999999824,"velocity":0.8031496062992126,"duration":0.2109375},{"name":"F5","midi":77,"time":283.21874999999824,"velocity":0.8031496062992126,"duration":0.421875},{"name":"D3","midi":50,"time":283.4322916666649,"velocity":0.8031496062992126,"duration":0.2109375},{"name":"F3","midi":53,"time":283.6458333333316,"velocity":0.8031496062992126,"duration":0.2109375},{"name":"F5","midi":77,"time":283.6458333333316,"velocity":0.8031496062992126,"duration":0.2109375},{"name":"A#2","midi":46,"time":283.8593749999983,"velocity":0.8031496062992126,"duration":0.2109375},{"name":"F5","midi":77,"time":283.8593749999983,"velocity":0.8031496062992126,"duration":0.2109375},{"name":"D3","midi":50,"time":284.072916666665,"velocity":0.8031496062992126,"duration":0.2109375},{"name":"A#5","midi":82,"time":284.072916666665,"velocity":0.8031496062992126,"duration":0.2109375},{"name":"C3","midi":48,"time":284.28645833333167,"velocity":0.8031496062992126,"duration":0.2109375},{"name":"A5","midi":81,"time":284.28645833333167,"velocity":0.8031496062992126,"duration":0.2109375},{"name":"A#2","midi":46,"time":284.49999999999835,"velocity":0.8031496062992126,"duration":0.2109375},{"name":"G5","midi":79,"time":284.49999999999835,"velocity":0.8031496062992126,"duration":0.2109375},{"name":"C3","midi":48,"time":284.71484374999835,"velocity":0.8031496062992126,"duration":0.4244791666666856},{"name":"A5","midi":81,"time":284.71484374999835,"velocity":0.8031496062992126,"duration":0.10416666666668561},{"name":"G5","midi":79,"time":284.81249999999835,"velocity":0.8031496062992126,"duration":0.10416666666668561},{"name":"A5","midi":81,"time":284.89453124999835,"velocity":0.8031496062992126,"duration":0.10416666666668561},{"name":"G5","midi":79,"time":284.97656249999835,"velocity":0.8031496062992126,"duration":0.10416666666668561},{"name":"A5","midi":81,"time":285.0598958333317,"velocity":0.8031496062992126,"duration":0.10416666666668561},{"name":"C2","midi":36,"time":285.1419270833317,"velocity":0.8031496062992126,"duration":0.4244791666666856},{"name":"G5","midi":79,"time":285.1419270833317,"velocity":0.8031496062992126,"duration":0.2109375},{"name":"F5","midi":77,"time":285.3554687499984,"velocity":0.8031496062992126,"duration":0.2109375},{"name":"F2","midi":41,"time":285.5690104166651,"velocity":0.8031496062992126,"duration":0.2109375},{"name":"F5","midi":77,"time":285.5690104166651,"velocity":0.8031496062992126,"duration":1.0677083333333712},{"name":"C2","midi":36,"time":285.7825520833318,"velocity":0.8031496062992126,"duration":0.2109375},{"name":"D2","midi":38,"time":285.9973958333318,"velocity":0.8031496062992126,"duration":0.2109375},{"name":"E2","midi":40,"time":286.21093749999847,"velocity":0.8031496062992126,"duration":0.2109375},{"name":"F2","midi":41,"time":286.42447916666515,"velocity":0.8031496062992126,"duration":0.2109375},{"name":"G2","midi":43,"time":286.6380208333318,"velocity":0.8031496062992126,"duration":0.2109375},{"name":"A2","midi":45,"time":286.85156249999847,"velocity":0.8031496062992126,"duration":0.2109375},{"name":"F4","midi":65,"time":286.85156249999847,"velocity":0.8031496062992126,"duration":0.4244791666666856},{"name":"F2","midi":41,"time":287.06510416666515,"velocity":0.8031496062992126,"duration":0.2109375},{"name":"C3","midi":48,"time":287.27994791666515,"velocity":0.8031496062992126,"duration":1.2799479166667425},{"name":"E4","midi":64,"time":287.27994791666515,"velocity":0.8031496062992126,"duration":0.2109375},{"name":"F4","midi":65,"time":287.49348958333184,"velocity":0.8031496062992126,"duration":0.2109375},{"name":"C2","midi":36,"time":287.7070312499985,"velocity":0.8031496062992126,"duration":1.7070312500001137},{"name":"G4","midi":67,"time":287.7070312499985,"velocity":0.8031496062992126,"duration":0.2109375},{"name":"A#3","midi":58,"time":287.9205729166652,"velocity":0.8031496062992126,"duration":0.2109375},{"name":"A3","midi":57,"time":288.1341145833319,"velocity":0.8031496062992126,"duration":0.2109375},{"name":"A#3","midi":58,"time":288.3476562499986,"velocity":0.8031496062992126,"duration":0.2109375},{"name":"C3","midi":48,"time":288.5624999999986,"velocity":0.8031496062992126,"duration":0.4244791666666856},{"name":"C4","midi":60,"time":288.5624999999986,"velocity":0.8031496062992126,"duration":0.2109375},{"name":"F4","midi":65,"time":288.77604166666526,"velocity":0.8031496062992126,"duration":0.2109375},{"name":"C3","midi":48,"time":288.98958333333195,"velocity":0.8031496062992126,"duration":1.2799479166667425},{"name":"E4","midi":64,"time":288.98958333333195,"velocity":0.8031496062992126,"duration":0.2109375},{"name":"F4","midi":65,"time":289.20312499999864,"velocity":0.8031496062992126,"duration":0.2109375},{"name":"C2","midi":36,"time":289.4166666666653,"velocity":0.8031496062992126,"duration":1.7070312500001137},{"name":"G4","midi":67,"time":289.4166666666653,"velocity":0.8031496062992126,"duration":0.2109375},{"name":"A#3","midi":58,"time":289.630208333332,"velocity":0.8031496062992126,"duration":0.2109375},{"name":"A3","midi":57,"time":289.8437499999987,"velocity":0.8031496062992126,"duration":0.2109375},{"name":"A#3","midi":58,"time":290.0585937499987,"velocity":0.8031496062992126,"duration":0.2109375},{"name":"C3","midi":48,"time":290.2721354166654,"velocity":0.8031496062992126,"duration":0.4244791666666856},{"name":"C4","midi":60,"time":290.2721354166654,"velocity":0.8031496062992126,"duration":0.2109375},{"name":"E4","midi":64,"time":290.48567708333206,"velocity":0.8031496062992126,"duration":0.2109375},{"name":"C3","midi":48,"time":290.69921874999875,"velocity":0.8031496062992126,"duration":1.2799479166667425},{"name":"F4","midi":65,"time":290.69921874999875,"velocity":0.8031496062992126,"duration":0.2109375},{"name":"G4","midi":67,"time":290.91276041666544,"velocity":0.8031496062992126,"duration":0.2109375},{"name":"C2","midi":36,"time":291.1263020833321,"velocity":0.8031496062992126,"duration":1.7070312500001137},{"name":"G#4","midi":68,"time":291.1263020833321,"velocity":0.8031496062992126,"duration":0.2109375},{"name":"C4","midi":60,"time":291.3411458333321,"velocity":0.8031496062992126,"duration":0.2109375},{"name":"B3","midi":59,"time":291.5546874999988,"velocity":0.8031496062992126,"duration":0.2109375},{"name":"C4","midi":60,"time":291.7682291666655,"velocity":0.8031496062992126,"duration":0.2109375},{"name":"C3","midi":48,"time":291.9817708333322,"velocity":0.8031496062992126,"duration":0.4244791666666856},{"name":"D4","midi":62,"time":291.9817708333322,"velocity":0.8031496062992126,"duration":0.2109375},{"name":"E4","midi":64,"time":292.19531249999886,"velocity":0.8031496062992126,"duration":0.2109375},{"name":"C3","midi":48,"time":292.40885416666555,"velocity":0.8031496062992126,"duration":1.2799479166667425},{"name":"F4","midi":65,"time":292.40885416666555,"velocity":0.8031496062992126,"duration":0.2109375},{"name":"G4","midi":67,"time":292.62369791666555,"velocity":0.8031496062992126,"duration":0.2109375},{"name":"C2","midi":36,"time":292.83723958333223,"velocity":0.8031496062992126,"duration":1.7070312500001137},{"name":"G#4","midi":68,"time":292.83723958333223,"velocity":0.8031496062992126,"duration":0.2109375},{"name":"C4","midi":60,"time":293.0507812499989,"velocity":0.8031496062992126,"duration":0.2109375},{"name":"B3","midi":59,"time":293.2643229166656,"velocity":0.8031496062992126,"duration":0.2109375},{"name":"C4","midi":60,"time":293.4778645833323,"velocity":0.8031496062992126,"duration":0.2109375},{"name":"C3","midi":48,"time":293.691406249999,"velocity":0.8031496062992126,"duration":0.4244791666666856},{"name":"D4","midi":62,"time":293.691406249999,"velocity":0.8031496062992126,"duration":0.2109375},{"name":"F4","midi":65,"time":293.906249999999,"velocity":0.8031496062992126,"duration":0.2109375},{"name":"C3","midi":48,"time":294.11979166666566,"velocity":0.8031496062992126,"duration":0.8450520833333712},{"name":"E4","midi":64,"time":294.11979166666566,"velocity":0.8031496062992126,"duration":0.2109375},{"name":"F4","midi":65,"time":294.33333333333235,"velocity":0.8031496062992126,"duration":0.2109375},{"name":"C2","midi":36,"time":294.54687499999903,"velocity":0.8031496062992126,"duration":2.559895833333485},{"name":"G4","midi":67,"time":294.54687499999903,"velocity":0.8031496062992126,"duration":0.2109375},{"name":"C4","midi":60,"time":294.7604166666657,"velocity":0.8031496062992126,"duration":0.2109375},{"name":"A#3","midi":58,"time":294.9739583333324,"velocity":0.8031496062992126,"duration":0.2109375},{"name":"C4","midi":60,"time":295.1874999999991,"velocity":0.8031496062992126,"duration":0.2109375},{"name":"C#4","midi":61,"time":295.4023437499991,"velocity":0.8031496062992126,"duration":0.2109375},{"name":"G#3","midi":56,"time":295.6158854166658,"velocity":0.8031496062992126,"duration":0.2109375},{"name":"G3","midi":55,"time":295.82942708333246,"velocity":0.8031496062992126,"duration":0.2109375},{"name":"G#3","midi":56,"time":296.04296874999915,"velocity":0.8031496062992126,"duration":0.2109375},{"name":"A#3","midi":58,"time":296.25651041666583,"velocity":0.8031496062992126,"duration":0.2109375},{"name":"F3","midi":53,"time":296.4700520833325,"velocity":0.8031496062992126,"duration":0.2109375},{"name":"E3","midi":52,"time":296.6848958333325,"velocity":0.8031496062992126,"duration":0.2109375},{"name":"F3","midi":53,"time":296.8984374999992,"velocity":0.8031496062992126,"duration":0.2109375},{"name":"G3","midi":55,"time":297.1119791666659,"velocity":0.8031496062992126,"duration":0.2109375},{"name":"C3","midi":48,"time":297.3255208333326,"velocity":0.8031496062992126,"duration":0.2109375},{"name":"A#2","midi":46,"time":297.53906249999926,"velocity":0.8031496062992126,"duration":0.2109375},{"name":"C3","midi":48,"time":297.75260416666595,"velocity":0.8031496062992126,"duration":0.2109375},{"name":"C#3","midi":49,"time":297.96744791666595,"velocity":0.8031496062992126,"duration":0.2109375},{"name":"G#2","midi":44,"time":298.18098958333263,"velocity":0.8031496062992126,"duration":0.2109375},{"name":"G2","midi":43,"time":298.3945312499993,"velocity":0.8031496062992126,"duration":0.2109375},{"name":"G#2","midi":44,"time":298.608072916666,"velocity":0.8031496062992126,"duration":0.2109375},{"name":"A#2","midi":46,"time":298.8216145833327,"velocity":0.8031496062992126,"duration":0.2109375},{"name":"F2","midi":41,"time":299.0351562499994,"velocity":0.8031496062992126,"duration":0.2109375},{"name":"E2","midi":40,"time":299.2499999999994,"velocity":0.8031496062992126,"duration":0.4244791666666856},{"name":"A4","midi":69,"time":299.67708333333275,"velocity":0.8031496062992126,"duration":0.2109375},{"name":"F4","midi":65,"time":299.67708333333275,"velocity":0.8031496062992126,"duration":0.421875},{"name":"F2","midi":41,"time":299.67708333333275,"velocity":0.8031496062992126,"duration":0.4244791666666856},{"name":"A#4","midi":70,"time":299.89062499999943,"velocity":0.8031496062992126,"duration":0.11328125},{"name":"C5","midi":72,"time":299.99739583333275,"velocity":0.8031496062992126,"duration":0.10416666666668561},{"name":"F4","midi":65,"time":300.1041666666661,"velocity":0.8031496062992126,"duration":0.4244791666666856},{"name":"A4","midi":69,"time":300.1041666666661,"velocity":0.8031496062992126,"duration":0.4244791666666856},{"name":"C3","midi":48,"time":300.1041666666661,"velocity":0.8031496062992126,"duration":0.4244791666666856},{"name":"E4","midi":64,"time":300.5312499999995,"velocity":0.8031496062992126,"duration":0.2109375},{"name":"G4","midi":67,"time":300.5312499999995,"velocity":0.8031496062992126,"duration":0.2109375},{"name":"C2","midi":36,"time":300.5312499999995,"velocity":0.8031496062992126,"duration":0.4244791666666856},{"name":"F4","midi":65,"time":300.7460937499995,"velocity":0.8031496062992126,"duration":0.2109375},{"name":"F4","midi":65,"time":300.9596354166662,"velocity":0.8031496062992126,"duration":0.2109375},{"name":"F2","midi":41,"time":300.9596354166662,"velocity":0.8031496062992126,"duration":0.6223958333333712},{"name":"C4","midi":60,"time":301.17317708333286,"velocity":0.8031496062992126,"duration":0.2109375},{"name":"D4","midi":62,"time":301.38671874999955,"velocity":0.8031496062992126,"duration":0.2109375},{"name":"E4","midi":64,"time":301.60026041666623,"velocity":0.8031496062992126,"duration":0.2109375},{"name":"F4","midi":65,"time":301.8138020833329,"velocity":0.8031496062992126,"duration":0.2109375},{"name":"G4","midi":67,"time":302.0286458333329,"velocity":0.8031496062992126,"duration":0.2109375},{"name":"A4","midi":69,"time":302.2421874999996,"velocity":0.8031496062992126,"duration":0.2109375},{"name":"F4","midi":65,"time":302.4557291666663,"velocity":0.8031496062992126,"duration":0.2109375},{"name":"A#4","midi":70,"time":302.669270833333,"velocity":0.8031496062992126,"duration":0.2109375},{"name":"C5","midi":72,"time":302.88281249999966,"velocity":0.8031496062992126,"duration":0.2109375},{"name":"A#4","midi":70,"time":303.09635416666634,"velocity":0.8031496062992126,"duration":0.2109375},{"name":"A4","midi":69,"time":303.31119791666634,"velocity":0.8031496062992126,"duration":0.2109375},{"name":"G4","midi":67,"time":303.52473958333303,"velocity":0.8031496062992126,"duration":0.2109375},{"name":"C5","midi":72,"time":303.7382812499997,"velocity":0.8031496062992126,"duration":0.2109375},{"name":"A#4","midi":70,"time":303.9518229166664,"velocity":0.8031496062992126,"duration":0.2109375},{"name":"C5","midi":72,"time":304.1653645833331,"velocity":0.8031496062992126,"duration":0.2109375},{"name":"A4","midi":69,"time":304.3789062499998,"velocity":0.8031496062992126,"duration":0.10416666666668561},{"name":"G4","midi":67,"time":304.48567708333314,"velocity":0.8031496062992126,"duration":0.10416666666668561},{"name":"C3","midi":48,"time":304.59374999999983,"velocity":0.8031496062992126,"duration":0.2109375},{"name":"A4","midi":69,"time":304.59374999999983,"velocity":0.8031496062992126,"duration":0.2109375},{"name":"F4","midi":65,"time":304.8072916666665,"velocity":0.8031496062992126,"duration":0.4244791666666856},{"name":"D3","midi":50,"time":304.8072916666665,"velocity":0.8031496062992126,"duration":0.2109375},{"name":"E3","midi":52,"time":305.0208333333332,"velocity":0.8031496062992126,"duration":0.2109375},{"name":"F5","midi":77,"time":305.2343749999999,"velocity":0.8031496062992126,"duration":0.10416666666668561},{"name":"F3","midi":53,"time":305.2343749999999,"velocity":0.8031496062992126,"duration":0.21093750000005684},{"name":"E5","midi":76,"time":305.34114583333326,"velocity":0.8031496062992126,"duration":0.10416666666668561},{"name":"F5","midi":77,"time":305.44791666666663,"velocity":0.8031496062992126,"duration":0.4244791666666856},{"name":"G3","midi":55,"time":305.44791666666663,"velocity":0.8031496062992126,"duration":0.2109375},{"name":"A3","midi":57,"time":305.6614583333333,"velocity":0.8031496062992126,"duration":0.2109375},{"name":"F5","midi":77,"time":305.875,"velocity":0.8031496062992126,"duration":0.2109375},{"name":"F3","midi":53,"time":305.875,"velocity":0.8031496062992126,"duration":0.2109375},{"name":"F5","midi":77,"time":306.08984375,"velocity":0.8031496062992126,"duration":0.6380208333333712},{"name":"A#3","midi":58,"time":306.08984375,"velocity":0.8031496062992126,"duration":0.2109375},{"name":"C4","midi":60,"time":306.3033854166667,"velocity":0.8031496062992126,"duration":0.2109375},{"name":"A#3","midi":58,"time":306.51692708333337,"velocity":0.8031496062992126,"duration":0.2109375},{"name":"G5","midi":79,"time":306.73046875000006,"velocity":0.8031496062992126,"duration":0.2109375},{"name":"A3","midi":57,"time":306.73046875000006,"velocity":0.8031496062992126,"duration":0.2109375},{"name":"F5","midi":77,"time":306.94401041666674,"velocity":0.8031496062992126,"duration":0.10416666666662877},{"name":"G3","midi":55,"time":306.94401041666674,"velocity":0.8031496062992126,"duration":0.2109375},{"name":"E5","midi":76,"time":307.04296875000006,"velocity":0.8031496062992126,"duration":0.10416666666668561},{"name":"F5","midi":77,"time":307.12500000000006,"velocity":0.8031496062992126,"duration":0.10416666666674246},{"name":"C4","midi":60,"time":307.1575520833334,"velocity":0.8031496062992126,"duration":0.21093750000005684},{"name":"E5","midi":76,"time":307.2070312500001,"velocity":0.8031496062992126,"duration":0.10416666666668561},{"name":"F5","midi":77,"time":307.2890625000001,"velocity":0.8031496062992126,"duration":0.10416666666668561},{"name":"A#3","midi":58,"time":307.3723958333335,"velocity":0.8031496062992126,"duration":0.2109375},{"name":"E5","midi":76,"time":307.3723958333335,"velocity":0.8031496062992126,"duration":0.2109375},{"name":"F5","midi":77,"time":307.58593750000017,"velocity":0.8031496062992126,"duration":0.2109375},{"name":"C4","midi":60,"time":307.58593750000017,"velocity":0.8031496062992126,"duration":0.2109375},{"name":"F5","midi":77,"time":307.79947916666686,"velocity":0.8031496062992126,"duration":0.2109375},{"name":"A3","midi":57,"time":307.79947916666686,"velocity":0.8031496062992126,"duration":0.4244791666666856},{"name":"G5","midi":79,"time":308.01302083333354,"velocity":0.8031496062992126,"duration":0.2109375},{"name":"F5","midi":77,"time":308.2265625000002,"velocity":0.8031496062992126,"duration":0.2109375},{"name":"F3","midi":53,"time":308.2265625000002,"velocity":0.8031496062992126,"duration":0.4244791666666856},{"name":"E5","midi":76,"time":308.4401041666669,"velocity":0.8031496062992126,"duration":0.2109375},{"name":"D5","midi":74,"time":308.6549479166669,"velocity":0.8031496062992126,"duration":0.21093750000005684},{"name":"F4","midi":65,"time":308.6549479166669,"velocity":0.8031496062992126,"duration":0.10416666666668561},{"name":"E4","midi":64,"time":308.7617187500003,"velocity":0.8031496062992126,"duration":0.10416666666668561},{"name":"E5","midi":76,"time":308.86848958333366,"velocity":0.8031496062992126,"duration":0.2109375},{"name":"F4","midi":65,"time":308.86848958333366,"velocity":0.8031496062992126,"duration":0.4244791666666856},{"name":"F5","midi":77,"time":309.08203125000034,"velocity":0.8031496062992126,"duration":0.2109375},{"name":"A5","midi":81,"time":309.295572916667,"velocity":0.8031496062992126,"duration":0.2109375},{"name":"F4","midi":65,"time":309.295572916667,"velocity":0.8031496062992126,"duration":0.2109375},{"name":"B4","midi":71,"time":309.5091145833337,"velocity":0.8031496062992126,"duration":0.2109375},{"name":"F4","midi":65,"time":309.5091145833337,"velocity":0.8031496062992126,"duration":0.6380208333333712},{"name":"C5","midi":72,"time":309.7226562500004,"velocity":0.8031496062992126,"duration":0.2109375},{"name":"D5","midi":74,"time":309.9375000000004,"velocity":0.8031496062992126,"duration":0.2109375},{"name":"G5","midi":79,"time":310.1510416666671,"velocity":0.8031496062992126,"duration":0.2109375},{"name":"G4","midi":67,"time":310.1510416666671,"velocity":0.8031496062992126,"duration":0.2109375},{"name":"C5","midi":72,"time":310.36458333333377,"velocity":0.8031496062992126,"duration":0.2109375},{"name":"F4","midi":65,"time":310.36458333333377,"velocity":0.8031496062992126,"duration":0.2109375},{"name":"D5","midi":74,"time":310.57812500000045,"velocity":0.8031496062992126,"duration":0.21093750000005684},{"name":"E4","midi":64,"time":310.57812500000045,"velocity":0.8031496062992126,"duration":0.10416666666668561},{"name":"F4","midi":65,"time":310.6848958333338,"velocity":0.8031496062992126,"duration":0.10416666666668561},{"name":"E5","midi":76,"time":310.7916666666672,"velocity":0.8031496062992126,"duration":0.2109375},{"name":"E4","midi":64,"time":310.7916666666672,"velocity":0.8031496062992126,"duration":0.2109375},{"name":"G5","midi":79,"time":311.0052083333339,"velocity":0.8031496062992126,"duration":0.2109375},{"name":"E4","midi":64,"time":311.0052083333339,"velocity":0.8031496062992126,"duration":0.2109375},{"name":"A4","midi":69,"time":311.21875000000057,"velocity":0.8031496062992126,"duration":0.2109375},{"name":"E4","midi":64,"time":311.21875000000057,"velocity":0.8031496062992126,"duration":0.4244791666666856},{"name":"B4","midi":71,"time":311.43359375000057,"velocity":0.8031496062992126,"duration":0.2109375},{"name":"C5","midi":72,"time":311.64713541666725,"velocity":0.8031496062992126,"duration":0.2109375},{"name":"A3","midi":57,"time":311.64713541666725,"velocity":0.8031496062992126,"duration":0.4244791666666856},{"name":"F5","midi":77,"time":311.86067708333394,"velocity":0.8031496062992126,"duration":0.2109375},{"name":"B4","midi":71,"time":312.0742187500006,"velocity":0.8031496062992126,"duration":0.21093750000005684},{"name":"D4","midi":62,"time":312.0742187500006,"velocity":0.8031496062992126,"duration":0.10416666666668561},{"name":"C4","midi":60,"time":312.180989583334,"velocity":0.8031496062992126,"duration":0.10416666666668561},{"name":"C5","midi":72,"time":312.28776041666737,"velocity":0.8031496062992126,"duration":0.2109375},{"name":"D4","midi":62,"time":312.28776041666737,"velocity":0.8031496062992126,"duration":0.4244791666666856},{"name":"D5","midi":74,"time":312.50130208333405,"velocity":0.8031496062992126,"duration":0.2109375},{"name":"F5","midi":77,"time":312.71614583333405,"velocity":0.8031496062992126,"duration":0.2109375},{"name":"D4","midi":62,"time":312.71614583333405,"velocity":0.8031496062992126,"duration":0.2109375},{"name":"G4","midi":67,"time":312.92968750000074,"velocity":0.8031496062992126,"duration":0.2109375},{"name":"D4","midi":62,"time":312.92968750000074,"velocity":0.8031496062992126,"duration":0.6380208333333712},{"name":"A4","midi":69,"time":313.1432291666674,"velocity":0.8031496062992126,"duration":0.2109375},{"name":"B4","midi":71,"time":313.3567708333341,"velocity":0.8031496062992126,"duration":0.2109375},{"name":"E5","midi":76,"time":313.5703125000008,"velocity":0.8031496062992126,"duration":0.2109375},{"name":"E4","midi":64,"time":313.5703125000008,"velocity":0.8031496062992126,"duration":0.2109375},{"name":"A4","midi":69,"time":313.7838541666675,"velocity":0.8031496062992126,"duration":0.2109375},{"name":"D4","midi":62,"time":313.7838541666675,"velocity":0.8031496062992126,"duration":0.2109375},{"name":"B4","midi":71,"time":313.9986979166675,"velocity":0.8031496062992126,"duration":0.21093750000005684},{"name":"C4","midi":60,"time":313.9986979166675,"velocity":0.8031496062992126,"duration":0.10416666666668561},{"name":"D4","midi":62,"time":314.10546875000085,"velocity":0.8031496062992126,"duration":0.10416666666668561},{"name":"C5","midi":72,"time":314.2122395833342,"velocity":0.8031496062992126,"duration":0.2109375},{"name":"C4","midi":60,"time":314.2122395833342,"velocity":0.8031496062992126,"duration":0.2109375},{"name":"E5","midi":76,"time":314.4257812500009,"velocity":0.8031496062992126,"duration":0.2109375},{"name":"C4","midi":60,"time":314.4257812500009,"velocity":0.8031496062992126,"duration":0.2109375},{"name":"F4","midi":65,"time":314.6393229166676,"velocity":0.8031496062992126,"duration":0.4244791666666856},{"name":"C4","midi":60,"time":314.6393229166676,"velocity":0.8031496062992126,"duration":0.2109375},{"name":"E4","midi":64,"time":314.8528645833343,"velocity":0.8031496062992126,"duration":0.2109375},{"name":"A4","midi":69,"time":315.06640625000097,"velocity":0.8031496062992126,"duration":0.4244791666666856},{"name":"D4","midi":62,"time":315.06640625000097,"velocity":0.8031496062992126,"duration":0.2109375},{"name":"C4","midi":60,"time":315.28125000000097,"velocity":0.8031496062992126,"duration":0.2109375},{"name":"D5","midi":74,"time":315.49479166666765,"velocity":0.8031496062992126,"duration":0.10416666666668561},{"name":"B3","midi":59,"time":315.49479166666765,"velocity":0.8031496062992126,"duration":0.21093750000005684},{"name":"C5","midi":72,"time":315.601562500001,"velocity":0.8031496062992126,"duration":0.10416666666668561},{"name":"D5","midi":74,"time":315.7083333333344,"velocity":0.8031496062992126,"duration":0.4244791666666856},{"name":"A3","midi":57,"time":315.7083333333344,"velocity":0.8031496062992126,"duration":0.2109375},{"name":"G3","midi":55,"time":315.9218750000011,"velocity":0.8031496062992126,"duration":0.2109375},{"name":"D5","midi":74,"time":316.13541666666777,"velocity":0.8031496062992126,"duration":0.2109375},{"name":"F3","midi":53,"time":316.13541666666777,"velocity":0.8031496062992126,"duration":0.2109375},{"name":"D5","midi":74,"time":316.34895833333445,"velocity":0.8031496062992126,"duration":0.3111979166666856},{"name":"E3","midi":52,"time":316.34895833333445,"velocity":0.8031496062992126,"duration":1.0039062500000568},{"name":"G4","midi":67,"time":316.56250000000114,"velocity":0.8031496062992126,"duration":0.2109375},{"name":"A4","midi":69,"time":316.77734375000114,"velocity":0.8031496062992126,"duration":0.2109375},{"name":"B4","midi":71,"time":316.9908854166678,"velocity":0.8031496062992126,"duration":0.2109375},{"name":"C5","midi":72,"time":317.2044270833345,"velocity":0.8031496062992126,"duration":0.2109375},{"name":"D5","midi":74,"time":317.4179687500012,"velocity":0.8031496062992126,"duration":0.2109375},{"name":"D3","midi":50,"time":317.4179687500012,"velocity":0.8031496062992126,"duration":0.2109375},{"name":"E5","midi":76,"time":317.6315104166679,"velocity":0.8031496062992126,"duration":0.2109375},{"name":"C3","midi":48,"time":317.6315104166679,"velocity":0.8031496062992126,"duration":0.2109375},{"name":"C5","midi":72,"time":317.84505208333456,"velocity":0.8031496062992126,"duration":0.2109375},{"name":"B2","midi":47,"time":317.84505208333456,"velocity":0.8031496062992126,"duration":0.2109375},{"name":"F5","midi":77,"time":318.05989583333456,"velocity":0.8031496062992126,"duration":0.2109375},{"name":"A2","midi":45,"time":318.05989583333456,"velocity":0.8031496062992126,"duration":0.2109375},{"name":"G5","midi":79,"time":318.27343750000125,"velocity":0.8031496062992126,"duration":0.2109375},{"name":"G2","midi":43,"time":318.27343750000125,"velocity":0.8031496062992126,"duration":0.2109375},{"name":"F5","midi":77,"time":318.48697916666794,"velocity":0.8031496062992126,"duration":0.2109375},{"name":"A2","midi":45,"time":318.48697916666794,"velocity":0.8031496062992126,"duration":0.2109375},{"name":"E5","midi":76,"time":318.7005208333346,"velocity":0.8031496062992126,"duration":0.2109375},{"name":"F2","midi":41,"time":318.7005208333346,"velocity":0.8031496062992126,"duration":0.2109375},{"name":"D5","midi":74,"time":318.9140625000013,"velocity":0.8031496062992126,"duration":0.2109375},{"name":"G2","midi":43,"time":318.9140625000013,"velocity":0.8031496062992126,"duration":0.4244791666666856},{"name":"G5","midi":79,"time":319.127604166668,"velocity":0.8031496062992126,"duration":0.2109375},{"name":"F5","midi":77,"time":319.342447916668,"velocity":0.8031496062992126,"duration":0.2109375},{"name":"G3","midi":55,"time":319.342447916668,"velocity":0.8031496062992126,"duration":0.4244791666666856},{"name":"G5","midi":79,"time":319.5559895833347,"velocity":0.8031496062992126,"duration":0.2109375},{"name":"E5","midi":76,"time":319.76953125000136,"velocity":0.8031496062992126,"duration":0.4244791666666856},{"name":"C3","midi":48,"time":319.76953125000136,"velocity":0.8031496062992126,"duration":0.2109375},{"name":"G3","midi":55,"time":319.98307291666805,"velocity":0.8031496062992126,"duration":0.2109375},{"name":"C5","midi":72,"time":320.19661458333474,"velocity":0.8031496062992126,"duration":0.4244791666666856},{"name":"A3","midi":57,"time":320.19661458333474,"velocity":0.8031496062992126,"duration":0.2109375},{"name":"B3","midi":59,"time":320.4101562500014,"velocity":0.8031496062992126,"duration":0.2109375},{"name":"C6","midi":84,"time":320.6250000000014,"velocity":0.8031496062992126,"duration":0.10416666666668561},{"name":"C4","midi":60,"time":320.6250000000014,"velocity":0.8031496062992126,"duration":0.21093750000005684},{"name":"B5","midi":83,"time":320.7317708333348,"velocity":0.8031496062992126,"duration":0.10416666666668561},{"name":"C6","midi":84,"time":320.83854166666816,"velocity":0.8031496062992126,"duration":0.4244791666666856},{"name":"D4","midi":62,"time":320.83854166666816,"velocity":0.8031496062992126,"duration":0.2109375},{"name":"E4","midi":64,"time":321.05208333333485,"velocity":0.8031496062992126,"duration":0.2109375},{"name":"C6","midi":84,"time":321.26562500000153,"velocity":0.8031496062992126,"duration":0.2109375},{"name":"C4","midi":60,"time":321.26562500000153,"velocity":0.8031496062992126,"duration":0.2109375},{"name":"C6","midi":84,"time":321.4791666666682,"velocity":0.8031496062992126,"duration":0.5312500000000568},{"name":"F4","midi":65,"time":321.4791666666682,"velocity":0.8031496062992126,"duration":0.2109375},{"name":"G4","midi":67,"time":321.6927083333349,"velocity":0.8031496062992126,"duration":0.2109375},{"name":"F4","midi":65,"time":321.9062500000016,"velocity":0.8031496062992126,"duration":0.2109375},{"name":"B5","midi":83,"time":322.0143229166683,"velocity":0.8031496062992126,"duration":0.10416666666662877},{"name":"C6","midi":84,"time":322.1210937500016,"velocity":0.8031496062992126,"duration":0.10416666666668561},{"name":"E4","midi":64,"time":322.1210937500016,"velocity":0.8031496062992126,"duration":0.21093750000005684},{"name":"A5","midi":81,"time":322.22786458333496,"velocity":0.8031496062992126,"duration":0.10416666666668561},{"name":"C6","midi":84,"time":322.33463541666833,"velocity":0.8031496062992126,"duration":0.14192708333331439},{"name":"D4","midi":62,"time":322.33463541666833,"velocity":0.8031496062992126,"duration":0.2109375},{"name":"B5","midi":83,"time":322.46744791666833,"velocity":0.8031496062992126,"duration":0.10416666666668561},{"name":"G4","midi":67,"time":322.548177083335,"velocity":0.8031496062992126,"duration":0.21093750000005684},{"name":"C6","midi":84,"time":322.5664062500017,"velocity":0.8031496062992126,"duration":0.10416666666668561},{"name":"B5","midi":83,"time":322.6640625000017,"velocity":0.8031496062992126,"duration":0.10416666666674246},{"name":"F4","midi":65,"time":322.76171875000176,"velocity":0.8031496062992126,"duration":0.2109375},{"name":"C6","midi":84,"time":322.76171875000176,"velocity":0.8031496062992126,"duration":0.10416666666668561},{"name":"B5","midi":83,"time":322.85937500000176,"velocity":0.8031496062992126,"duration":0.1015625},{"name":"B5","midi":83,"time":322.97526041666845,"velocity":0.8031496062992126,"duration":0.2109375},{"name":"G4","midi":67,"time":322.97526041666845,"velocity":0.8031496062992126,"duration":0.2109375},{"name":"B5","midi":83,"time":323.18880208333513,"velocity":0.8031496062992126,"duration":0.4244791666666856},{"name":"C4","midi":60,"time":323.18880208333513,"velocity":0.8031496062992126,"duration":0.2109375},{"name":"D4","midi":62,"time":323.40364583333513,"velocity":0.8031496062992126,"duration":0.2109375},{"name":"E5","midi":76,"time":323.6171875000018,"velocity":0.8031496062992126,"duration":0.4244791666666856},{"name":"E4","midi":64,"time":323.6171875000018,"velocity":0.8031496062992126,"duration":0.2109375},{"name":"G4","midi":67,"time":323.8307291666685,"velocity":0.8031496062992126,"duration":0.2109375},{"name":"A5","midi":81,"time":324.0442708333352,"velocity":0.8031496062992126,"duration":0.10416666666668561},{"name":"F3","midi":53,"time":324.0442708333352,"velocity":0.8031496062992126,"duration":0.21093750000005684},{"name":"G5","midi":79,"time":324.15104166666856,"velocity":0.8031496062992126,"duration":0.10416666666668561},{"name":"A5","midi":81,"time":324.25781250000193,"velocity":0.8031496062992126,"duration":0.4244791666666856},{"name":"G3","midi":55,"time":324.25781250000193,"velocity":0.8031496062992126,"duration":0.2109375},{"name":"A3","midi":57,"time":324.4713541666686,"velocity":0.8031496062992126,"duration":0.2109375},{"name":"A5","midi":81,"time":324.6861979166686,"velocity":0.8031496062992126,"duration":0.2109375},{"name":"C4","midi":60,"time":324.6861979166686,"velocity":0.8031496062992126,"duration":0.2109375},{"name":"A5","midi":81,"time":324.8997395833353,"velocity":0.8031496062992126,"duration":0.6380208333333712},{"name":"B3","midi":59,"time":324.8997395833353,"velocity":0.8031496062992126,"duration":0.2109375},{"name":"C4","midi":60,"time":325.113281250002,"velocity":0.8031496062992126,"duration":0.2109375},{"name":"D4","midi":62,"time":325.3268229166687,"velocity":0.8031496062992126,"duration":0.2109375},{"name":"G5","midi":79,"time":325.54036458333536,"velocity":0.8031496062992126,"duration":0.10416666666668561},{"name":"F4","midi":65,"time":325.54036458333536,"velocity":0.8031496062992126,"duration":0.21093750000005684},{"name":"F5","midi":77,"time":325.64713541666873,"velocity":0.8031496062992126,"duration":0.10416666666668561},{"name":"E3","midi":52,"time":325.7539062500021,"velocity":0.8031496062992126,"duration":0.2109375},{"name":"E5","midi":76,"time":325.7539062500021,"velocity":0.8031496062992126,"duration":0.2109375},{"name":"F5","midi":77,"time":325.8606770833354,"velocity":0.8031496062992126,"duration":0.10677083333337123},{"name":"F3","midi":53,"time":325.9687500000021,"velocity":0.8031496062992126,"duration":0.2109375},{"name":"G5","midi":79,"time":325.9687500000021,"velocity":0.8031496062992126,"duration":0.421875},{"name":"G3","midi":55,"time":326.1822916666688,"velocity":0.8031496062992126,"duration":0.2109375},{"name":"G5","midi":79,"time":326.3958333333355,"velocity":0.8031496062992126,"duration":0.2109375},{"name":"B3","midi":59,"time":326.3958333333355,"velocity":0.8031496062992126,"duration":0.2109375},{"name":"G5","midi":79,"time":326.60937500000216,"velocity":0.8031496062992126,"duration":0.4244791666666856},{"name":"A3","midi":57,"time":326.60937500000216,"velocity":0.8031496062992126,"duration":0.2109375},{"name":"B3","midi":59,"time":326.82291666666885,"velocity":0.8031496062992126,"duration":0.2109375},{"name":"C5","midi":72,"time":327.03645833333553,"velocity":0.8031496062992126,"duration":0.4244791666666856},{"name":"C4","midi":60,"time":327.03645833333553,"velocity":0.8031496062992126,"duration":0.2109375},{"name":"E4","midi":64,"time":327.2500000000022,"velocity":0.8031496062992126,"duration":0.2109375},{"name":"F5","midi":77,"time":327.4648437500022,"velocity":0.8031496062992126,"duration":0.10416666666668561},{"name":"D3","midi":50,"time":327.4648437500022,"velocity":0.8031496062992126,"duration":0.21093750000005684},{"name":"E5","midi":76,"time":327.5716145833356,"velocity":0.8031496062992126,"duration":0.10416666666668561},{"name":"F5","midi":77,"time":327.67838541666896,"velocity":0.8031496062992126,"duration":0.4244791666666856},{"name":"E3","midi":52,"time":327.67838541666896,"velocity":0.8031496062992126,"duration":0.2109375},{"name":"F3","midi":53,"time":327.89192708333564,"velocity":0.8031496062992126,"duration":0.2109375},{"name":"F5","midi":77,"time":328.10546875000233,"velocity":0.8031496062992126,"duration":0.2109375},{"name":"A3","midi":57,"time":328.10546875000233,"velocity":0.8031496062992126,"duration":0.2109375},{"name":"F5","midi":77,"time":328.319010416669,"velocity":0.8031496062992126,"duration":0.2109375},{"name":"G3","midi":55,"time":328.319010416669,"velocity":0.8031496062992126,"duration":0.3776041666666856},{"name":"A5","midi":81,"time":328.5325520833357,"velocity":0.8031496062992126,"duration":0.2109375},{"name":"G5","midi":79,"time":328.7473958333357,"velocity":0.8031496062992126,"duration":0.2109375},{"name":"C3","midi":48,"time":328.7473958333357,"velocity":0.8031496062992126,"duration":0.3776041666666856},{"name":"F5","midi":77,"time":328.9609375000024,"velocity":0.8031496062992126,"duration":0.2109375},{"name":"E5","midi":76,"time":329.1744791666691,"velocity":0.8031496062992126,"duration":0.21093750000005684},{"name":"C4","midi":60,"time":329.1744791666691,"velocity":0.8031496062992126,"duration":0.10416666666668561},{"name":"B3","midi":59,"time":329.28125000000244,"velocity":0.8031496062992126,"duration":0.10416666666668561},{"name":"F5","midi":77,"time":329.3880208333358,"velocity":0.8031496062992126,"duration":0.2109375},{"name":"C4","midi":60,"time":329.3880208333358,"velocity":0.8031496062992126,"duration":0.4244791666666856},{"name":"G5","midi":79,"time":329.6015625000025,"velocity":0.8031496062992126,"duration":0.2109375},{"name":"E5","midi":76,"time":329.8151041666692,"velocity":0.8031496062992126,"duration":0.2109375},{"name":"C4","midi":60,"time":329.8151041666692,"velocity":0.8031496062992126,"duration":0.2109375},{"name":"F5","midi":77,"time":330.0299479166692,"velocity":0.8031496062992126,"duration":0.2109375},{"name":"C4","midi":60,"time":330.0299479166692,"velocity":0.8031496062992126,"duration":0.6380208333333712},{"name":"G5","midi":79,"time":330.2434895833359,"velocity":0.8031496062992126,"duration":0.2109375},{"name":"F5","midi":77,"time":330.45703125000256,"velocity":0.8031496062992126,"duration":0.2109375},{"name":"E5","midi":76,"time":330.67057291666924,"velocity":0.8031496062992126,"duration":0.2109375},{"name":"D4","midi":62,"time":330.67057291666924,"velocity":0.8031496062992126,"duration":0.2109375},{"name":"D5","midi":74,"time":330.88411458333593,"velocity":0.8031496062992126,"duration":0.2109375},{"name":"C4","midi":60,"time":330.88411458333593,"velocity":0.8031496062992126,"duration":0.2109375},{"name":"G5","midi":79,"time":331.0976562500026,"velocity":0.8031496062992126,"duration":0.21093750000005684},{"name":"A#3","midi":58,"time":331.0976562500026,"velocity":0.8031496062992126,"duration":0.10416666666668561},{"name":"C4","midi":60,"time":331.204427083336,"velocity":0.8031496062992126,"duration":0.10416666666668561},{"name":"F5","midi":77,"time":331.3125000000027,"velocity":0.8031496062992126,"duration":0.2109375},{"name":"A#3","midi":58,"time":331.3125000000027,"velocity":0.8031496062992126,"duration":0.2109375},{"name":"G5","midi":79,"time":331.52604166666936,"velocity":0.8031496062992126,"duration":0.2109375},{"name":"A#3","midi":58,"time":331.52604166666936,"velocity":0.8031496062992126,"duration":0.2109375},{"name":"E5","midi":76,"time":331.73958333333604,"velocity":0.8031496062992126,"duration":0.2109375},{"name":"A#3","midi":58,"time":331.73958333333604,"velocity":0.8031496062992126,"duration":0.4244791666666856},{"name":"C5","midi":72,"time":331.95312500000273,"velocity":0.8031496062992126,"duration":0.2109375},{"name":"D5","midi":74,"time":332.1666666666694,"velocity":0.8031496062992126,"duration":0.2109375},{"name":"C4","midi":60,"time":332.1666666666694,"velocity":0.8031496062992126,"duration":0.2109375},{"name":"E5","midi":76,"time":332.3802083333361,"velocity":0.8031496062992126,"duration":0.2109375},{"name":"A#3","midi":58,"time":332.3802083333361,"velocity":0.8031496062992126,"duration":0.2109375},{"name":"F5","midi":77,"time":332.5937500000028,"velocity":0.8031496062992126,"duration":0.2109375},{"name":"A3","midi":57,"time":332.5937500000028,"velocity":0.8031496062992126,"duration":0.2109375},{"name":"G5","midi":79,"time":332.8085937500028,"velocity":0.8031496062992126,"duration":0.2109375},{"name":"G3","midi":55,"time":332.8085937500028,"velocity":0.8031496062992126,"duration":0.2109375},{"name":"A5","midi":81,"time":333.02213541666947,"velocity":0.8031496062992126,"duration":0.2109375},{"name":"F3","midi":53,"time":333.02213541666947,"velocity":0.8031496062992126,"duration":0.2109375},{"name":"F5","midi":77,"time":333.23567708333616,"velocity":0.8031496062992126,"duration":0.2109375},{"name":"E3","midi":52,"time":333.23567708333616,"velocity":0.8031496062992126,"duration":0.2109375},{"name":"A#5","midi":82,"time":333.44921875000284,"velocity":0.8031496062992126,"duration":0.2109375},{"name":"D3","midi":50,"time":333.44921875000284,"velocity":0.8031496062992126,"duration":0.2109375},{"name":"C6","midi":84,"time":333.6627604166695,"velocity":0.8031496062992126,"duration":0.2109375},{"name":"C3","midi":48,"time":333.6627604166695,"velocity":0.8031496062992126,"duration":0.2109375},{"name":"A#5","midi":82,"time":333.8763020833362,"velocity":0.8031496062992126,"duration":0.2109375},{"name":"D3","midi":50,"time":333.8763020833362,"velocity":0.8031496062992126,"duration":0.2109375},{"name":"A5","midi":81,"time":334.0911458333362,"velocity":0.8031496062992126,"duration":0.2109375},{"name":"A#2","midi":46,"time":334.0911458333362,"velocity":0.8031496062992126,"duration":0.2109375},{"name":"G5","midi":79,"time":334.3046875000029,"velocity":0.8031496062992126,"duration":0.2109375},{"name":"C3","midi":48,"time":334.3046875000029,"velocity":0.8031496062992126,"duration":0.4244791666666856},{"name":"C6","midi":84,"time":334.5182291666696,"velocity":0.8031496062992126,"duration":0.2109375},{"name":"A#5","midi":82,"time":334.73177083333627,"velocity":0.8031496062992126,"duration":0.2109375},{"name":"C2","midi":36,"time":334.73177083333627,"velocity":0.8031496062992126,"duration":0.4244791666666856},{"name":"C6","midi":84,"time":334.94531250000296,"velocity":0.8031496062992126,"duration":0.2109375},{"name":"A5","midi":81,"time":335.15885416666964,"velocity":0.8031496062992126,"duration":0.2109375},{"name":"F2","midi":41,"time":335.15885416666964,"velocity":0.8031496062992126,"duration":1.0677083333333712},{"name":"A#5","midi":82,"time":335.37369791666964,"velocity":0.8031496062992126,"duration":0.2109375},{"name":"A5","midi":81,"time":335.5872395833363,"velocity":0.8031496062992126,"duration":0.2109375},{"name":"G5","midi":79,"time":335.800781250003,"velocity":0.8031496062992126,"duration":0.2109375},{"name":"F5","midi":77,"time":336.0143229166697,"velocity":0.8031496062992126,"duration":0.2109375},{"name":"E5","midi":76,"time":336.2278645833363,"velocity":0.8031496062992126,"duration":0.2109375},{"name":"D5","midi":74,"time":336.441406250003,"velocity":0.8031496062992126,"duration":0.2109375},{"name":"F3","midi":53,"time":336.441406250003,"velocity":0.8031496062992126,"duration":0.4244791666666856},{"name":"C5","midi":72,"time":336.656250000003,"velocity":0.8031496062992126,"duration":0.2109375},{"name":"B4","midi":71,"time":336.8697916666697,"velocity":0.8031496062992126,"duration":0.2109375},{"name":"G3","midi":55,"time":336.8697916666697,"velocity":0.8031496062992126,"duration":0.2109375},{"name":"G4","midi":67,"time":337.0833333333364,"velocity":0.8031496062992126,"duration":0.2109375},{"name":"C4","midi":60,"time":337.0833333333364,"velocity":0.8031496062992126,"duration":0.2109375},{"name":"A4","midi":69,"time":337.29687500000307,"velocity":0.8031496062992126,"duration":0.2109375},{"name":"B3","midi":59,"time":337.29687500000307,"velocity":0.8031496062992126,"duration":0.2109375},{"name":"B4","midi":71,"time":337.51041666666976,"velocity":0.8031496062992126,"duration":0.2109375},{"name":"A3","midi":57,"time":337.51041666666976,"velocity":0.8031496062992126,"duration":0.2109375},{"name":"C5","midi":72,"time":337.72395833333644,"velocity":0.8031496062992126,"duration":0.2109375},{"name":"G3","midi":55,"time":337.72395833333644,"velocity":0.8031496062992126,"duration":0.2109375},{"name":"D5","midi":74,"time":337.9375000000031,"velocity":0.8031496062992126,"duration":0.2109375},{"name":"F3","midi":53,"time":337.9375000000031,"velocity":0.8031496062992126,"duration":0.2109375},{"name":"E5","midi":76,"time":338.1523437500031,"velocity":0.8031496062992126,"duration":0.2109375},{"name":"E3","midi":52,"time":338.1523437500031,"velocity":0.8031496062992126,"duration":0.2109375},{"name":"F5","midi":77,"time":338.3658854166698,"velocity":0.8031496062992126,"duration":0.2109375},{"name":"D3","midi":50,"time":338.3658854166698,"velocity":0.8031496062992126,"duration":0.2109375},{"name":"G5","midi":79,"time":338.5794270833365,"velocity":0.8031496062992126,"duration":0.3177083333333144},{"name":"C3","midi":48,"time":338.5794270833365,"velocity":0.8031496062992126,"duration":0.4244791666666856},{"name":"A5","midi":81,"time":338.8997395833365,"velocity":0.8031496062992126,"duration":0.10416666666668561},{"name":"G5","midi":79,"time":339.00651041666987,"velocity":0.8031496062992126,"duration":0.10416666666668561},{"name":"F3","midi":53,"time":339.00651041666987,"velocity":0.8031496062992126,"duration":0.42447916666674246},{"name":"F5","midi":77,"time":339.11328125000324,"velocity":0.8031496062992126,"duration":0.10416666666668561},{"name":"G5","midi":79,"time":339.2200520833366,"velocity":0.8031496062992126,"duration":0.10416666666668561},{"name":"A5","midi":81,"time":339.3281250000033,"velocity":0.8031496062992126,"duration":0.10416666666662877},{"name":"E5","midi":76,"time":339.4348958333366,"velocity":0.8031496062992126,"duration":0.2109375},{"name":"G3","midi":55,"time":339.4348958333366,"velocity":0.8031496062992126,"duration":0.42447916666674246},{"name":"D5","midi":74,"time":339.6484375000033,"velocity":0.8031496062992126,"duration":0.10416666666668561},{"name":"E5","midi":76,"time":339.75520833333667,"velocity":0.8031496062992126,"duration":0.10416666666668561},{"name":"G2","midi":43,"time":339.86197916667004,"velocity":0.8031496062992126,"duration":0.4244791666666856},{"name":"D5","midi":74,"time":339.86197916667004,"velocity":0.8031496062992126,"duration":0.2109375},{"name":"C5","midi":72,"time":340.0755208333367,"velocity":0.8031496062992126,"duration":0.2109375},{"name":"C5","midi":72,"time":340.2890625000034,"velocity":0.8031496062992126,"duration":0.2109375},{"name":"C2","midi":36,"time":340.2890625000034,"velocity":0.8031496062992126,"duration":0.578125},{"name":"G4","midi":67,"time":340.5026041666701,"velocity":0.8031496062992126,"duration":0.2109375},{"name":"A4","midi":69,"time":340.7174479166701,"velocity":0.8031496062992126,"duration":0.2109375},{"name":"B4","midi":71,"time":340.9309895833368,"velocity":0.8031496062992126,"duration":0.2109375},{"name":"C5","midi":72,"time":341.14453125000347,"velocity":0.8031496062992126,"duration":0.21093750000005684},{"name":"C4","midi":60,"time":341.14453125000347,"velocity":0.8031496062992126,"duration":0.10416666666668561},{"name":"B3","midi":59,"time":341.25130208333684,"velocity":0.8031496062992126,"duration":0.10416666666668561},{"name":"D5","midi":74,"time":341.3580729166702,"velocity":0.8031496062992126,"duration":0.2109375},{"name":"C4","midi":60,"time":341.3580729166702,"velocity":0.8031496062992126,"duration":0.4244791666666856},{"name":"E5","midi":76,"time":341.5716145833369,"velocity":0.8031496062992126,"duration":0.2109375},{"name":"C5","midi":72,"time":341.7851562500036,"velocity":0.8031496062992126,"duration":0.2109375},{"name":"C4","midi":60,"time":341.7851562500036,"velocity":0.8031496062992126,"duration":0.2109375},{"name":"F5","midi":77,"time":342.0000000000036,"velocity":0.8031496062992126,"duration":0.2109375},{"name":"C4","midi":60,"time":342.0000000000036,"velocity":0.8031496062992126,"duration":0.6380208333333712},{"name":"G5","midi":79,"time":342.21354166667027,"velocity":0.8031496062992126,"duration":0.2109375},{"name":"F5","midi":77,"time":342.42708333333695,"velocity":0.8031496062992126,"duration":0.2109375},{"name":"E5","midi":76,"time":342.64062500000364,"velocity":0.8031496062992126,"duration":0.2109375},{"name":"D4","midi":62,"time":342.64062500000364,"velocity":0.8031496062992126,"duration":0.2109375},{"name":"D5","midi":74,"time":342.8541666666703,"velocity":0.8031496062992126,"duration":0.2109375},{"name":"C4","midi":60,"time":342.8541666666703,"velocity":0.8031496062992126,"duration":0.2109375},{"name":"G5","midi":79,"time":343.067708333337,"velocity":0.8031496062992126,"duration":0.21093750000005684},{"name":"A#3","midi":58,"time":343.067708333337,"velocity":0.8031496062992126,"duration":0.10416666666668561},{"name":"C4","midi":60,"time":343.1744791666704,"velocity":0.8031496062992126,"duration":0.10416666666668561},{"name":"F5","midi":77,"time":343.28125000000375,"velocity":0.8031496062992126,"duration":0.2109375},{"name":"A#3","midi":58,"time":343.28125000000375,"velocity":0.8031496062992126,"duration":0.2109375},{"name":"G5","midi":79,"time":343.49609375000375,"velocity":0.8031496062992126,"duration":0.2109375},{"name":"A#3","midi":58,"time":343.49609375000375,"velocity":0.8031496062992126,"duration":0.2109375},{"name":"E5","midi":76,"time":343.70963541667044,"velocity":0.8031496062992126,"duration":0.35546875},{"name":"A#3","midi":58,"time":343.70963541667044,"velocity":0.8031496062992126,"duration":0.2109375},{"name":"C3","midi":48,"time":343.9231770833371,"velocity":0.8031496062992126,"duration":0.2109375},{"name":"C5","midi":72,"time":344.1367187500038,"velocity":0.8031496062992126,"duration":0.35546875},{"name":"D3","midi":50,"time":344.1367187500038,"velocity":0.8031496062992126,"duration":0.2109375},{"name":"E3","midi":52,"time":344.3502604166705,"velocity":0.8031496062992126,"duration":0.2109375},{"name":"F5","midi":77,"time":344.5638020833372,"velocity":0.8031496062992126,"duration":0.10416666666668561},{"name":"F3","midi":53,"time":344.5638020833372,"velocity":0.8031496062992126,"duration":0.2109375},{"name":"E5","midi":76,"time":344.67187500000387,"velocity":0.8031496062992126,"duration":0.10416666666662877},{"name":"F5","midi":77,"time":344.7786458333372,"velocity":0.8031496062992126,"duration":0.4244791666666856},{"name":"G3","midi":55,"time":344.7786458333372,"velocity":0.8031496062992126,"duration":0.2109375},{"name":"A3","midi":57,"time":344.99218750000387,"velocity":0.8031496062992126,"duration":0.2109375},{"name":"F5","midi":77,"time":345.20572916667055,"velocity":0.8031496062992126,"duration":0.2109375},{"name":"F3","midi":53,"time":345.20572916667055,"velocity":0.8031496062992126,"duration":0.2109375},{"name":"F5","midi":77,"time":345.41927083333724,"velocity":0.8031496062992126,"duration":0.6380208333333712},{"name":"A#3","midi":58,"time":345.41927083333724,"velocity":0.8031496062992126,"duration":0.2109375},{"name":"C4","midi":60,"time":345.6328125000039,"velocity":0.8031496062992126,"duration":0.2109375},{"name":"A#3","midi":58,"time":345.8463541666706,"velocity":0.8031496062992126,"duration":0.2109375},{"name":"G5","midi":79,"time":346.0611979166706,"velocity":0.8031496062992126,"duration":0.2109375},{"name":"A3","midi":57,"time":346.0611979166706,"velocity":0.8031496062992126,"duration":0.2109375},{"name":"F5","midi":77,"time":346.2747395833373,"velocity":0.8031496062992126,"duration":0.2109375},{"name":"G3","midi":55,"time":346.2747395833373,"velocity":0.8031496062992126,"duration":0.2109375},{"name":"D#5","midi":75,"time":346.488281250004,"velocity":0.8031496062992126,"duration":0.10416666666668561},{"name":"C4","midi":60,"time":346.488281250004,"velocity":0.8031496062992126,"duration":0.21093750000005684},{"name":"F5","midi":77,"time":346.59505208333735,"velocity":0.8031496062992126,"duration":0.10416666666668561},{"name":"D#5","midi":75,"time":346.7018229166707,"velocity":0.8031496062992126,"duration":0.2109375},{"name":"A#3","midi":58,"time":346.7018229166707,"velocity":0.8031496062992126,"duration":0.2109375},{"name":"D#5","midi":75,"time":346.9153645833374,"velocity":0.8031496062992126,"duration":0.2109375},{"name":"C4","midi":60,"time":346.9153645833374,"velocity":0.8031496062992126,"duration":0.2109375},{"name":"D#5","midi":75,"time":347.1289062500041,"velocity":0.8031496062992126,"duration":0.2109375},{"name":"A3","midi":57,"time":347.1289062500041,"velocity":0.8031496062992126,"duration":0.3997395833333144},{"name":"F4","midi":65,"time":347.3437500000041,"velocity":0.8031496062992126,"duration":0.2109375},{"name":"G4","midi":67,"time":347.5572916666708,"velocity":0.8031496062992126,"duration":0.2109375},{"name":"F3","midi":53,"time":347.5572916666708,"velocity":0.8031496062992126,"duration":0.39973958333337123},{"name":"A4","midi":69,"time":347.77083333333746,"velocity":0.8031496062992126,"duration":0.2109375},{"name":"A#4","midi":70,"time":347.98437500000415,"velocity":0.8031496062992126,"duration":0.21093750000005684},{"name":"A#3","midi":58,"time":347.98437500000415,"velocity":0.8031496062992126,"duration":0.10416666666668561},{"name":"A3","midi":57,"time":348.0911458333375,"velocity":0.8031496062992126,"duration":0.10416666666668561},{"name":"C5","midi":72,"time":348.1979166666709,"velocity":0.8031496062992126,"duration":0.2109375},{"name":"A#3","midi":58,"time":348.1979166666709,"velocity":0.8031496062992126,"duration":0.4244791666666856},{"name":"D5","midi":74,"time":348.4114583333376,"velocity":0.8031496062992126,"duration":0.2109375},{"name":"A#4","midi":70,"time":348.62500000000426,"velocity":0.8031496062992126,"duration":0.2109375},{"name":"A#3","midi":58,"time":348.62500000000426,"velocity":0.8031496062992126,"duration":0.2109375},{"name":"D#5","midi":75,"time":348.83984375000426,"velocity":0.8031496062992126,"duration":0.2109375},{"name":"A#3","midi":58,"time":348.83984375000426,"velocity":0.8031496062992126,"duration":0.6380208333333712},{"name":"F5","midi":77,"time":349.05338541667095,"velocity":0.8031496062992126,"duration":0.2109375},{"name":"D#5","midi":75,"time":349.26692708333763,"velocity":0.8031496062992126,"duration":0.2109375},{"name":"D5","midi":74,"time":349.4804687500043,"velocity":0.8031496062992126,"duration":0.2109375},{"name":"C4","midi":60,"time":349.4804687500043,"velocity":0.8031496062992126,"duration":0.2109375},{"name":"C5","midi":72,"time":349.694010416671,"velocity":0.8031496062992126,"duration":0.2109375},{"name":"A#3","midi":58,"time":349.694010416671,"velocity":0.8031496062992126,"duration":0.2109375},{"name":"F5","midi":77,"time":349.9075520833377,"velocity":0.8031496062992126,"duration":0.2109375},{"name":"A3","midi":57,"time":349.9075520833377,"velocity":0.8031496062992126,"duration":0.10416666666668561},{"name":"A#3","midi":58,"time":350.0156250000044,"velocity":0.8031496062992126,"duration":0.10416666666662877},{"name":"D#5","midi":75,"time":350.1223958333377,"velocity":0.8031496062992126,"duration":0.2109375},{"name":"A3","midi":57,"time":350.1223958333377,"velocity":0.8031496062992126,"duration":0.2109375},{"name":"F5","midi":77,"time":350.3359375000044,"velocity":0.8031496062992126,"duration":0.2109375},{"name":"A#3","midi":58,"time":350.3359375000044,"velocity":0.8031496062992126,"duration":0.2109375},{"name":"D5","midi":74,"time":350.54947916667106,"velocity":0.8031496062992126,"duration":0.35546875},{"name":"A#3","midi":58,"time":350.54947916667106,"velocity":0.8031496062992126,"duration":0.2109375},{"name":"D3","midi":50,"time":350.76302083333775,"velocity":0.8031496062992126,"duration":0.2109375},{"name":"A#4","midi":70,"time":350.97656250000443,"velocity":0.8031496062992126,"duration":0.35546875},{"name":"E3","midi":52,"time":350.97656250000443,"velocity":0.8031496062992126,"duration":0.2109375},{"name":"F3","midi":53,"time":351.1901041666711,"velocity":0.8031496062992126,"duration":0.2109375},{"name":"D5","midi":74,"time":351.4049479166711,"velocity":0.8031496062992126,"duration":0.6380208333333712},{"name":"A#5","midi":82,"time":351.4049479166711,"velocity":0.8031496062992126,"duration":0.6380208333333712},{"name":"G5","midi":79,"time":351.4049479166711,"velocity":0.8031496062992126,"duration":0.6380208333333712},{"name":"G3","midi":55,"time":351.4049479166711,"velocity":0.8031496062992126,"duration":0.2109375},{"name":"A3","midi":57,"time":351.6184895833378,"velocity":0.8031496062992126,"duration":0.2109375},{"name":"A#3","midi":58,"time":351.8320312500045,"velocity":0.8031496062992126,"duration":0.2109375},{"name":"D5","midi":74,"time":352.0455729166712,"velocity":0.8031496062992126,"duration":0.2109375},{"name":"G5","midi":79,"time":352.0455729166712,"velocity":0.8031496062992126,"duration":0.2109375},{"name":"A#5","midi":82,"time":352.0455729166712,"velocity":0.8031496062992126,"duration":0.2109375},{"name":"G3","midi":55,"time":352.0455729166712,"velocity":0.8031496062992126,"duration":0.2109375},{"name":"A#5","midi":82,"time":352.25911458333786,"velocity":0.8031496062992126,"duration":0.6380208333333712},{"name":"E5","midi":76,"time":352.25911458333786,"velocity":0.8031496062992126,"duration":0.6380208333333712},{"name":"G5","midi":79,"time":352.25911458333786,"velocity":0.8031496062992126,"duration":0.6380208333333712},{"name":"C4","midi":60,"time":352.25911458333786,"velocity":0.8031496062992126,"duration":0.2109375},{"name":"C3","midi":48,"time":352.47265625000455,"velocity":0.8031496062992126,"duration":0.2109375},{"name":"D3","midi":50,"time":352.68750000000455,"velocity":0.8031496062992126,"duration":0.2109375},{"name":"C6","midi":84,"time":352.90104166667123,"velocity":0.8031496062992126,"duration":0.2109375},{"name":"E5","midi":76,"time":352.90104166667123,"velocity":0.8031496062992126,"duration":0.2109375},{"name":"G5","midi":79,"time":352.90104166667123,"velocity":0.8031496062992126,"duration":0.2109375},{"name":"E3","midi":52,"time":352.90104166667123,"velocity":0.8031496062992126,"duration":0.2109375},{"name":"E5","midi":76,"time":353.1145833333379,"velocity":0.8031496062992126,"duration":0.6380208333333712},{"name":"F5","midi":77,"time":353.1145833333379,"velocity":0.8031496062992126,"duration":0.6380208333333712},{"name":"A5","midi":81,"time":353.1145833333379,"velocity":0.8031496062992126,"duration":0.6380208333333712},{"name":"F3","midi":53,"time":353.1145833333379,"velocity":0.8031496062992126,"duration":0.2109375},{"name":"G3","midi":55,"time":353.3281250000046,"velocity":0.8031496062992126,"duration":0.2109375},{"name":"A3","midi":57,"time":353.5416666666713,"velocity":0.8031496062992126,"duration":0.2109375},{"name":"A5","midi":81,"time":353.755208333338,"velocity":0.8031496062992126,"duration":0.2109375},{"name":"E5","midi":76,"time":353.755208333338,"velocity":0.8031496062992126,"duration":0.2109375},{"name":"F5","midi":77,"time":353.755208333338,"velocity":0.8031496062992126,"duration":0.2109375},{"name":"F3","midi":53,"time":353.755208333338,"velocity":0.8031496062992126,"duration":0.2109375},{"name":"D5","midi":74,"time":353.96875000000466,"velocity":0.8031496062992126,"duration":0.4244791666666856},{"name":"A5","midi":81,"time":353.96875000000466,"velocity":0.8031496062992126,"duration":0.4244791666666856},{"name":"F5","midi":77,"time":353.96875000000466,"velocity":0.8031496062992126,"duration":0.8450520833333712},{"name":"A#3","midi":58,"time":353.96875000000466,"velocity":0.8031496062992126,"duration":0.2109375},{"name":"A3","midi":57,"time":354.18359375000466,"velocity":0.8031496062992126,"duration":0.2109375},{"name":"D5","midi":74,"time":354.39713541667135,"velocity":0.8031496062992126,"duration":0.4244791666666856},{"name":"G3","midi":55,"time":354.39713541667135,"velocity":0.8031496062992126,"duration":0.2109375},{"name":"F3","midi":53,"time":354.61067708333803,"velocity":0.8031496062992126,"duration":0.2109375},{"name":"G5","midi":79,"time":354.8242187500047,"velocity":0.8031496062992126,"duration":0.6380208333333712},{"name":"D5","midi":74,"time":354.8242187500047,"velocity":0.8031496062992126,"duration":0.6380208333333712},{"name":"E3","midi":52,"time":354.8242187500047,"velocity":0.8031496062992126,"duration":0.2109375},{"name":"D3","midi":50,"time":355.0377604166714,"velocity":0.8031496062992126,"duration":0.2109375},{"name":"C3","midi":48,"time":355.2513020833381,"velocity":0.8031496062992126,"duration":0.2109375},{"name":"D5","midi":74,"time":355.4661458333381,"velocity":0.8031496062992126,"duration":0.2109375},{"name":"G5","midi":79,"time":355.4661458333381,"velocity":0.8031496062992126,"duration":0.2109375},{"name":"A#2","midi":46,"time":355.4661458333381,"velocity":0.8031496062992126,"duration":0.2109375},{"name":"C5","midi":72,"time":355.6796875000048,"velocity":0.8031496062992126,"duration":0.6380208333333712},{"name":"G5","midi":79,"time":355.6796875000048,"velocity":0.8031496062992126,"duration":0.6380208333333712},{"name":"A2","midi":45,"time":355.6796875000048,"velocity":0.8031496062992126,"duration":0.2109375},{"name":"A#2","midi":46,"time":355.89322916667146,"velocity":0.8031496062992126,"duration":0.2109375},{"name":"C3","midi":48,"time":356.10677083333815,"velocity":0.8031496062992126,"duration":0.2109375},{"name":"C5","midi":72,"time":356.32031250000483,"velocity":0.8031496062992126,"duration":0.2109375},{"name":"A5","midi":81,"time":356.32031250000483,"velocity":0.8031496062992126,"duration":0.2109375},{"name":"E3","midi":52,"time":356.32031250000483,"velocity":0.8031496062992126,"duration":0.2109375},{"name":"C5","midi":72,"time":356.5338541666715,"velocity":0.8031496062992126,"duration":0.6380208333333712},{"name":"F5","midi":77,"time":356.5338541666715,"velocity":0.8031496062992126,"duration":0.10416666666668561},{"name":"D3","midi":50,"time":356.5338541666715,"velocity":0.8031496062992126,"duration":0.21093750000005684},{"name":"E5","midi":76,"time":356.6406250000049,"velocity":0.8031496062992126,"duration":0.10416666666668561},{"name":"E3","midi":52,"time":356.7486979166716,"velocity":0.8031496062992126,"duration":0.2109375},{"name":"F5","midi":77,"time":356.7486979166716,"velocity":0.8031496062992126,"duration":0.421875},{"name":"F3","midi":53,"time":356.96223958333826,"velocity":0.8031496062992126,"duration":0.21093749999994316},{"name":"F5","midi":77,"time":357.1757812500049,"velocity":0.8031496062992126,"duration":0.2109375},{"name":"C5","midi":72,"time":357.1757812500049,"velocity":0.8031496062992126,"duration":0.2109375},{"name":"A3","midi":57,"time":357.1757812500049,"velocity":0.8031496062992126,"duration":0.2109375},{"name":"F5","midi":77,"time":357.3893229166716,"velocity":0.8031496062992126,"duration":0.6380208333333712},{"name":"A#4","midi":70,"time":357.3893229166716,"velocity":0.8031496062992126,"duration":0.6380208333333712},{"name":"G3","midi":55,"time":357.3893229166716,"velocity":0.8031496062992126,"duration":0.2109375},{"name":"G2","midi":43,"time":357.60286458333826,"velocity":0.8031496062992126,"duration":0.2109375},{"name":"A2","midi":45,"time":357.81640625000495,"velocity":0.8031496062992126,"duration":0.2109375},{"name":"G5","midi":79,"time":358.03125000000495,"velocity":0.8031496062992126,"duration":0.2109375},{"name":"A#4","midi":70,"time":358.03125000000495,"velocity":0.8031496062992126,"duration":0.2109375},{"name":"A#2","midi":46,"time":358.03125000000495,"velocity":0.8031496062992126,"duration":0.2109375},{"name":"A#4","midi":70,"time":358.24479166667163,"velocity":0.8031496062992126,"duration":0.6380208333334281},{"name":"F5","midi":77,"time":358.24479166667163,"velocity":0.8031496062992126,"duration":0.2109375},{"name":"C3","midi":48,"time":358.24479166667163,"velocity":0.8031496062992126,"duration":0.2109375},{"name":"A2","midi":45,"time":358.4583333333383,"velocity":0.8031496062992126,"duration":0.21093750000005684},{"name":"E5","midi":76,"time":358.4583333333383,"velocity":0.8031496062992126,"duration":0.10416666666668561},{"name":"F5","midi":77,"time":358.5651041666717,"velocity":0.8031496062992126,"duration":0.10416666666668561},{"name":"A#2","midi":46,"time":358.67187500000506,"velocity":0.8031496062992126,"duration":0.2109375},{"name":"E5","midi":76,"time":358.67187500000506,"velocity":0.8031496062992126,"duration":0.2109375},{"name":"A#4","midi":70,"time":358.88541666667174,"velocity":0.8031496062992126,"duration":0.2109375},{"name":"F5","midi":77,"time":358.88541666667174,"velocity":0.8031496062992126,"duration":0.2109375},{"name":"C3","midi":48,"time":358.88541666667174,"velocity":0.8031496062992126,"duration":0.2109375},{"name":"F5","midi":77,"time":359.09895833333843,"velocity":0.8031496062992126,"duration":0.4244791666666856},{"name":"A4","midi":69,"time":359.09895833333843,"velocity":0.8031496062992126,"duration":0.4244791666666856},{"name":"D2","midi":38,"time":359.09895833333843,"velocity":0.8031496062992126,"duration":0.9791666666667425},{"name":"D4","midi":62,"time":359.5273437500051,"velocity":0.8031496062992126,"duration":0.2109375},{"name":"E4","midi":64,"time":359.7408854166718,"velocity":0.8031496062992126,"duration":0.2109375},{"name":"F4","midi":65,"time":359.9544270833385,"velocity":0.8031496062992126,"duration":0.2109375},{"name":"G4","midi":67,"time":360.1679687500052,"velocity":0.8031496062992126,"duration":0.2109375},{"name":"A4","midi":69,"time":360.38151041667186,"velocity":0.8031496062992126,"duration":0.2109375},{"name":"D3","midi":50,"time":360.38151041667186,"velocity":0.8031496062992126,"duration":0.4244791666666856},{"name":"F4","midi":65,"time":360.59505208333854,"velocity":0.8031496062992126,"duration":0.2109375},{"name":"A#4","midi":70,"time":360.80989583333854,"velocity":0.8031496062992126,"duration":0.2109375},{"name":"G3","midi":55,"time":360.80989583333854,"velocity":0.8031496062992126,"duration":0.2109375},{"name":"C5","midi":72,"time":361.02343750000523,"velocity":0.8031496062992126,"duration":0.2109375},{"name":"A3","midi":57,"time":361.02343750000523,"velocity":0.8031496062992126,"duration":0.2109375},{"name":"A#4","midi":70,"time":361.2369791666719,"velocity":0.8031496062992126,"duration":0.2109375},{"name":"G3","midi":55,"time":361.2369791666719,"velocity":0.8031496062992126,"duration":0.2109375},{"name":"A4","midi":69,"time":361.4505208333386,"velocity":0.8031496062992126,"duration":0.2109375},{"name":"F3","midi":53,"time":361.4505208333386,"velocity":0.8031496062992126,"duration":0.2109375},{"name":"G4","midi":67,"time":361.6640625000053,"velocity":0.8031496062992126,"duration":0.2109375},{"name":"E3","midi":52,"time":361.6640625000053,"velocity":0.8031496062992126,"duration":0.2109375},{"name":"C5","midi":72,"time":361.877604166672,"velocity":0.8031496062992126,"duration":0.2109375},{"name":"C3","midi":48,"time":361.877604166672,"velocity":0.8031496062992126,"duration":0.2109375},{"name":"A#4","midi":70,"time":362.092447916672,"velocity":0.8031496062992126,"duration":0.2109375},{"name":"D3","midi":50,"time":362.092447916672,"velocity":0.8031496062992126,"duration":0.2109375},{"name":"C5","midi":72,"time":362.30598958333866,"velocity":0.8031496062992126,"duration":0.2109375},{"name":"E3","midi":52,"time":362.30598958333866,"velocity":0.8031496062992126,"duration":0.2109375},{"name":"A4","midi":69,"time":362.51953125000534,"velocity":0.8031496062992126,"duration":0.36067708333337123},{"name":"F3","midi":53,"time":362.51953125000534,"velocity":0.8031496062992126,"duration":0.21354166666668561},{"name":"G3","midi":55,"time":362.7356770833387,"velocity":0.8031496062992126,"duration":0.21354166666668561},{"name":"C4","midi":60,"time":362.9518229166721,"velocity":0.8031496062992126,"duration":0.3606770833333144},{"name":"F3","midi":53,"time":362.9518229166721,"velocity":0.8031496062992126,"duration":0.21354166666668561},{"name":"E3","midi":52,"time":363.1666666666721,"velocity":0.8031496062992126,"duration":0.21354166666662877},{"name":"D3","midi":50,"time":363.3828125000054,"velocity":0.8031496062992126,"duration":0.22395833333331439},{"name":"D4","midi":62,"time":363.3828125000054,"velocity":0.8031496062992126,"duration":0.6783854166666288},{"name":"E4","midi":64,"time":363.4973958333387,"velocity":0.8031496062992126,"duration":0.11328125},{"name":"C3","midi":48,"time":363.6106770833387,"velocity":0.8031496062992126,"duration":0.22395833333331439},{"name":"F4","midi":65,"time":363.6106770833387,"velocity":0.8031496062992126,"duration":0.44921875},{"name":"A#2","midi":46,"time":363.8372395833387,"velocity":0.8031496062992126,"duration":0.22395833333331439},{"name":"C4","midi":60,"time":364.06510416667203,"velocity":0.8031496062992126,"duration":0.22395833333331439},{"name":"A3","midi":57,"time":364.06510416667203,"velocity":0.8031496062992126,"duration":0.22395833333331439},{"name":"F4","midi":65,"time":364.06510416667203,"velocity":0.8031496062992126,"duration":0.22395833333331439},{"name":"A2","midi":45,"time":364.06510416667203,"velocity":0.8031496062992126,"duration":0.22395833333331439},{"name":"G3","midi":55,"time":364.29166666667203,"velocity":0.8031496062992126,"duration":0.9518229166667425},{"name":"F4","midi":65,"time":364.29166666667203,"velocity":0.8031496062992126,"duration":0.9518229166667425},{"name":"D4","midi":62,"time":364.29166666667203,"velocity":0.8031496062992126,"duration":0.23697916666668561},{"name":"A#2","midi":46,"time":364.29166666667203,"velocity":0.8031496062992126,"duration":0.47786458333337123},{"name":"C4","midi":60,"time":364.5325520833387,"velocity":0.8031496062992126,"duration":0.23697916666668561},{"name":"A#3","midi":58,"time":364.7721354166721,"velocity":0.8031496062992126,"duration":0.23697916666668561},{"name":"G2","midi":43,"time":364.7721354166721,"velocity":0.8031496062992126,"duration":0.47786458333337123},{"name":"A3","midi":57,"time":365.01302083333877,"velocity":0.8031496062992126,"duration":0.23697916666668561},{"name":"E4","midi":64,"time":365.25390625000546,"velocity":0.8031496062992126,"duration":0.7786458333333712},{"name":"G3","midi":55,"time":365.25390625000546,"velocity":0.8031496062992126,"duration":1.0572916666667425},{"name":"C3","midi":48,"time":365.25390625000546,"velocity":0.8031496062992126,"duration":0.53125},{"name":"C4","midi":60,"time":365.52083333333877,"velocity":0.8031496062992126,"duration":0.2643229166666856},{"name":"A#3","midi":58,"time":365.78776041667214,"velocity":0.8031496062992126,"duration":0.2643229166666856},{"name":"C2","midi":36,"time":365.78776041667214,"velocity":0.8031496062992126,"duration":0.5312500000000568},{"name":"C4","midi":60,"time":366.0546875000055,"velocity":0.8031496062992126,"duration":0.2643229166666856},{"name":"E4","midi":64,"time":366.0546875000055,"velocity":0.8031496062992126,"duration":0.2643229166666856},{"name":"F4","midi":65,"time":366.3229166666722,"velocity":0.8031496062992126,"duration":3.171875},{"name":"A3","midi":57,"time":366.3229166666722,"velocity":0.8031496062992126,"duration":3.171875},{"name":"F2","midi":41,"time":366.3229166666722,"velocity":0.8031496062992126,"duration":3.171875},{"name":"F5","midi":77,"time":370.4934895833389,"velocity":0.8031496062992126,"duration":0.22395833333331439},{"name":"F3","midi":53,"time":370.7213541666722,"velocity":0.8031496062992126,"duration":0.4518229166666856},{"name":"C5","midi":72,"time":370.7213541666722,"velocity":0.8031496062992126,"duration":0.5651041666666856},{"name":"A4","midi":69,"time":370.7213541666722,"velocity":0.8031496062992126,"duration":0.5651041666666856},{"name":"F5","midi":77,"time":370.7213541666722,"velocity":0.8031496062992126,"duration":0.5651041666666856},{"name":"F2","midi":41,"time":371.17578125000557,"velocity":0.8031496062992126,"duration":0.5208333333333144},{"name":"F5","midi":77,"time":371.28906250000557,"velocity":0.8031496062992126,"duration":0.11067708333331439},{"name":"E5","midi":76,"time":371.40234375000557,"velocity":0.8031496062992126,"duration":0.11067708333331439},{"name":"D5","midi":74,"time":371.51562500000557,"velocity":0.8031496062992126,"duration":0.11067708333331439},{"name":"C5","midi":72,"time":371.62890625000557,"velocity":0.8031496062992126,"duration":0.22395833333331439},{"name":"F4","midi":65,"time":371.8567708333389,"velocity":0.8031496062992126,"duration":0.22395833333331439},{"name":"D5","midi":74,"time":371.8567708333389,"velocity":0.8031496062992126,"duration":0.22395833333331439},{"name":"E4","midi":64,"time":372.0833333333389,"velocity":0.8031496062992126,"duration":0.22395833333331439},{"name":"C5","midi":72,"time":372.0833333333389,"velocity":0.8031496062992126,"duration":0.22395833333331439},{"name":"D4","midi":62,"time":372.3111979166722,"velocity":0.8031496062992126,"duration":0.22395833333331439},{"name":"A#4","midi":70,"time":372.3111979166722,"velocity":0.8031496062992126,"duration":0.22395833333331439},{"name":"C4","midi":60,"time":372.5377604166722,"velocity":0.8031496062992126,"duration":0.4518229166666856},{"name":"A4","midi":69,"time":372.5377604166722,"velocity":0.8031496062992126,"duration":0.13932291666668561},{"name":"A#4","midi":70,"time":372.6888020833389,"velocity":0.8031496062992126,"duration":0.13932291666668561},{"name":"C5","midi":72,"time":372.8411458333389,"velocity":0.8031496062992126,"duration":0.13932291666668561},{"name":"F4","midi":65,"time":372.99218750000557,"velocity":0.8031496062992126,"duration":0.45182291666674246},{"name":"A4","midi":69,"time":372.99218750000557,"velocity":0.8031496062992126,"duration":0.13932291666668561},{"name":"A#4","midi":70,"time":373.14322916667226,"velocity":0.8031496062992126,"duration":0.13932291666668561},{"name":"C5","midi":72,"time":373.29427083333894,"velocity":0.8031496062992126,"duration":0.13932291666668561},{"name":"A3","midi":57,"time":373.446614583339,"velocity":0.8031496062992126,"duration":0.45182291666674246},{"name":"F4","midi":65,"time":373.446614583339,"velocity":0.8031496062992126,"duration":0.13932291666668561},{"name":"G4","midi":67,"time":373.5976562500057,"velocity":0.8031496062992126,"duration":0.13932291666668561},{"name":"A4","midi":69,"time":373.74869791667237,"velocity":0.8031496062992126,"duration":0.13932291666668561},{"name":"C4","midi":60,"time":373.9010416666724,"velocity":0.8031496062992126,"duration":0.45182291666674246},{"name":"F4","midi":65,"time":373.9010416666724,"velocity":0.8031496062992126,"duration":0.13932291666668561},{"name":"G4","midi":67,"time":374.0520833333391,"velocity":0.8031496062992126,"duration":0.13932291666668561},{"name":"A4","midi":69,"time":374.2031250000058,"velocity":0.8031496062992126,"duration":0.13932291666668561},{"name":"F3","midi":53,"time":374.3541666666725,"velocity":0.8031496062992126,"duration":0.13932291666668561},{"name":"C4","midi":60,"time":374.3541666666725,"velocity":0.8031496062992126,"duration":0.4518229166666856},{"name":"G3","midi":55,"time":374.5065104166725,"velocity":0.8031496062992126,"duration":0.13932291666668561},{"name":"A3","midi":57,"time":374.65755208333917,"velocity":0.8031496062992126,"duration":0.13932291666668561},{"name":"F3","midi":53,"time":374.80859375000585,"velocity":0.8031496062992126,"duration":0.13932291666668561},{"name":"F4","midi":65,"time":374.80859375000585,"velocity":0.8031496062992126,"duration":0.4518229166666856},{"name":"G3","midi":55,"time":374.96093750000585,"velocity":0.8031496062992126,"duration":0.13932291666668561},{"name":"A3","midi":57,"time":375.11197916667254,"velocity":0.8031496062992126,"duration":0.13932291666668561},{"name":"D3","midi":50,"time":375.2630208333392,"velocity":0.8031496062992126,"duration":0.13932291666668561},{"name":"G4","midi":67,"time":375.2630208333392,"velocity":0.8031496062992126,"duration":0.11067708333331439},{"name":"F4","midi":65,"time":375.3763020833392,"velocity":0.8031496062992126,"duration":0.11067708333337123},{"name":"E3","midi":52,"time":375.4140625000059,"velocity":0.8031496062992126,"duration":0.13932291666668561},{"name":"G4","midi":67,"time":375.4895833333393,"velocity":0.8031496062992126,"duration":0.11067708333331439},{"name":"F3","midi":53,"time":375.5664062500059,"velocity":0.8031496062992126,"duration":0.13932291666668561},{"name":"F4","midi":65,"time":375.6041666666726,"velocity":0.8031496062992126,"duration":0.11067708333331439},{"name":"D3","midi":50,"time":375.7174479166726,"velocity":0.8031496062992126,"duration":0.13932291666668561},{"name":"G4","midi":67,"time":375.7174479166726,"velocity":0.8031496062992126,"duration":0.11067708333331439},{"name":"F4","midi":65,"time":375.8307291666726,"velocity":0.8031496062992126,"duration":0.11067708333337123},{"name":"E3","midi":52,"time":375.8684895833393,"velocity":0.8031496062992126,"duration":0.13932291666668561},{"name":"E4","midi":64,"time":375.94401041667265,"velocity":0.8031496062992126,"duration":0.11067708333331439},{"name":"F3","midi":53,"time":376.01953125000597,"velocity":0.8031496062992126,"duration":0.13932291666668561},{"name":"F4","midi":65,"time":376.05859375000597,"velocity":0.8031496062992126,"duration":0.11067708333337123},{"name":"A#2","midi":46,"time":376.171875000006,"velocity":0.8031496062992126,"duration":0.13932291666668561},{"name":"G4","midi":67,"time":376.171875000006,"velocity":0.8031496062992126,"duration":0.45182291666674246},{"name":"C3","midi":48,"time":376.3229166666727,"velocity":0.8031496062992126,"duration":0.13932291666668561},{"name":"D3","midi":50,"time":376.4739583333394,"velocity":0.8031496062992126,"duration":0.13932291666668561},{"name":"A#2","midi":46,"time":376.62630208333945,"velocity":0.8031496062992126,"duration":0.13932291666668561},{"name":"F4","midi":65,"time":376.62630208333945,"velocity":0.8031496062992126,"duration":0.45182291666674246},{"name":"G4","midi":67,"time":376.62630208333945,"velocity":0.8031496062992126,"duration":0.45182291666674246},{"name":"C3","midi":48,"time":376.77734375000614,"velocity":0.8031496062992126,"duration":0.13932291666668561},{"name":"D3","midi":50,"time":376.9283854166728,"velocity":0.8031496062992126,"duration":0.13932291666668561},{"name":"G2","midi":43,"time":377.0794270833395,"velocity":0.8031496062992126,"duration":0.22395833333331439},{"name":"A4","midi":69,"time":377.0794270833395,"velocity":0.8031496062992126,"duration":0.11067708333331439},{"name":"E4","midi":64,"time":377.0794270833395,"velocity":0.8031496062992126,"duration":0.8984374999999432},{"name":"G4","midi":67,"time":377.1940104166728,"velocity":0.8031496062992126,"duration":0.11067708333331439},{"name":"C3","midi":48,"time":377.3072916666728,"velocity":0.8031496062992126,"duration":0.22395833333331439},{"name":"A4","midi":69,"time":377.3072916666728,"velocity":0.8031496062992126,"duration":0.11067708333331439},{"name":"G4","midi":67,"time":377.4205729166728,"velocity":0.8031496062992126,"duration":0.11067708333331439},{"name":"A#2","midi":46,"time":377.5338541666728,"velocity":0.8031496062992126,"duration":0.22395833333331439},{"name":"A4","midi":69,"time":377.5338541666728,"velocity":0.8031496062992126,"duration":0.11067708333331439},{"name":"G4","midi":67,"time":377.6471354166728,"velocity":0.8031496062992126,"duration":0.11067708333331439},{"name":"C3","midi":48,"time":377.76171875000614,"velocity":0.8031496062992126,"duration":0.22395833333331439},{"name":"F4","midi":65,"time":377.76171875000614,"velocity":0.8031496062992126,"duration":0.11067708333331439},{"name":"G4","midi":67,"time":377.87500000000614,"velocity":0.8031496062992126,"duration":0.11067708333331439},{"name":"F2","midi":41,"time":377.98828125000614,"velocity":0.8031496062992126,"duration":0.45182291666662877},{"name":"F4","midi":65,"time":377.98828125000614,"velocity":0.8031496062992126,"duration":0.8984375},{"name":"A4","midi":69,"time":377.98828125000614,"velocity":0.8031496062992126,"duration":0.22395833333331439},{"name":"C5","midi":72,"time":378.21614583333945,"velocity":0.8031496062992126,"duration":0.22395833333331439},{"name":"F3","midi":53,"time":378.44270833333945,"velocity":0.8031496062992126,"duration":0.4518229166666856},{"name":"D5","midi":74,"time":378.44270833333945,"velocity":0.8031496062992126,"duration":0.22395833333331439},{"name":"E5","midi":76,"time":378.66927083333945,"velocity":0.8031496062992126,"duration":0.22395833333337123},{"name":"G3","midi":55,"time":378.8971354166728,"velocity":0.8031496062992126,"duration":0.11067708333331439},{"name":"F5","midi":77,"time":378.8971354166728,"velocity":0.8031496062992126,"duration":1.1354166666666288},{"name":"F3","midi":53,"time":379.0104166666728,"velocity":0.8031496062992126,"duration":0.11067708333331439},{"name":"G3","midi":55,"time":379.1236979166728,"velocity":0.8031496062992126,"duration":0.11067708333331439},{"name":"C5","midi":72,"time":379.1236979166728,"velocity":0.8031496062992126,"duration":0.22395833333331439},{"name":"F3","midi":53,"time":379.2369791666728,"velocity":0.8031496062992126,"duration":0.11067708333331439},{"name":"G3","midi":55,"time":379.35156250000614,"velocity":0.8031496062992126,"duration":0.11067708333331439},{"name":"A#4","midi":70,"time":379.35156250000614,"velocity":0.8031496062992126,"duration":0.22395833333331439},{"name":"F3","midi":53,"time":379.46484375000614,"velocity":0.8031496062992126,"duration":0.11067708333331439},{"name":"E3","midi":52,"time":379.57812500000614,"velocity":0.8031496062992126,"duration":0.11067708333331439},{"name":"A4","midi":69,"time":379.57812500000614,"velocity":0.8031496062992126,"duration":0.22395833333331439},{"name":"F3","midi":53,"time":379.69140625000614,"velocity":0.8031496062992126,"duration":0.11067708333331439},{"name":"G3","midi":55,"time":379.80468750000614,"velocity":0.8031496062992126,"duration":0.45182291666662877},{"name":"A#4","midi":70,"time":379.80468750000614,"velocity":0.8031496062992126,"duration":2.033854166666572},{"name":"F5","midi":77,"time":380.03255208333945,"velocity":0.8031496062992126,"duration":0.22395833333331439},{"name":"G3","midi":55,"time":380.25911458333945,"velocity":0.8031496062992126,"duration":0.45182291666662877},{"name":"E5","midi":76,"time":380.25911458333945,"velocity":0.8031496062992126,"duration":0.22395833333331439},{"name":"F5","midi":77,"time":380.48697916667277,"velocity":0.8031496062992126,"duration":0.22395833333331439},{"name":"A3","midi":57,"time":380.71354166667277,"velocity":0.8031496062992126,"duration":0.11067708333331439},{"name":"G5","midi":79,"time":380.71354166667277,"velocity":0.8031496062992126,"duration":0.22395833333331439},{"name":"G3","midi":55,"time":380.82682291667277,"velocity":0.8031496062992126,"duration":0.11067708333331439},{"name":"A3","midi":57,"time":380.9414062500061,"velocity":0.8031496062992126,"duration":0.11067708333331439},{"name":"E5","midi":76,"time":380.9414062500061,"velocity":0.8031496062992126,"duration":0.22395833333331439},{"name":"G3","midi":55,"time":381.0546875000061,"velocity":0.8031496062992126,"duration":0.11067708333331439},{"name":"A3","midi":57,"time":381.1679687500061,"velocity":0.8031496062992126,"duration":0.11067708333331439},{"name":"F5","midi":77,"time":381.1679687500061,"velocity":0.8031496062992126,"duration":0.22395833333331439},{"name":"G3","midi":55,"time":381.2812500000061,"velocity":0.8031496062992126,"duration":0.11067708333331439},{"name":"F3","midi":53,"time":381.3945312500061,"velocity":0.8031496062992126,"duration":0.11067708333331439},{"name":"G5","midi":79,"time":381.3945312500061,"velocity":0.8031496062992126,"duration":0.22395833333331439},{"name":"G3","midi":55,"time":381.5091145833394,"velocity":0.8031496062992126,"duration":0.11067708333331439},{"name":"A3","midi":57,"time":381.6223958333394,"velocity":0.8031496062992126,"duration":0.8984375},{"name":"C5","midi":72,"time":381.6223958333394,"velocity":0.8031496062992126,"duration":2.0338541666666856},{"name":"A#4","midi":70,"time":381.8489583333394,"velocity":0.8031496062992126,"duration":0.22395833333331439},{"name":"A4","midi":69,"time":382.0768229166727,"velocity":0.8031496062992126,"duration":0.22395833333331439},{"name":"G4","midi":67,"time":382.3033854166727,"velocity":0.8031496062992126,"duration":0.22395833333337123},{"name":"A4","midi":69,"time":382.5312500000061,"velocity":0.8031496062992126,"duration":0.22395833333331439},{"name":"F4","midi":65,"time":382.7578125000061,"velocity":0.8031496062992126,"duration":0.22395833333331439},{"name":"A3","midi":57,"time":382.9843750000061,"velocity":0.8031496062992126,"duration":0.45182291666662877},{"name":"G4","midi":67,"time":382.9843750000061,"velocity":0.8031496062992126,"duration":0.22395833333331439},{"name":"A4","midi":69,"time":383.2122395833394,"velocity":0.8031496062992126,"duration":0.22395833333331439},{"name":"A#3","midi":58,"time":383.4388020833394,"velocity":0.8031496062992126,"duration":0.8984375000000568},{"name":"D4","midi":62,"time":383.4388020833394,"velocity":0.8031496062992126,"duration":0.8984375000000568},{"name":"C5","midi":72,"time":383.66666666667277,"velocity":0.8031496062992126,"duration":0.22395833333331439},{"name":"A#4","midi":70,"time":383.89322916667277,"velocity":0.8031496062992126,"duration":0.22395833333331439},{"name":"A4","midi":69,"time":384.11979166667277,"velocity":0.8031496062992126,"duration":0.22395833333337123},{"name":"A#4","midi":70,"time":384.34765625000614,"velocity":0.8031496062992126,"duration":0.22395833333331439},{"name":"G4","midi":67,"time":384.57421875000614,"velocity":0.8031496062992126,"duration":0.22395833333331439},{"name":"A#3","midi":58,"time":384.80208333333945,"velocity":0.8031496062992126,"duration":0.45182291666662877},{"name":"A4","midi":69,"time":384.80208333333945,"velocity":0.8031496062992126,"duration":0.22395833333331439},{"name":"D4","midi":62,"time":384.80208333333945,"velocity":0.8031496062992126,"duration":0.44921875},{"name":"A#4","midi":70,"time":385.02864583333945,"velocity":0.8031496062992126,"duration":0.22395833333331439},{"name":"A#3","midi":58,"time":385.25651041667277,"velocity":0.8031496062992126,"duration":1.8138020833333144},{"name":"E4","midi":64,"time":385.25651041667277,"velocity":0.8031496062992126,"duration":0.22395833333331439},{"name":"C4","midi":60,"time":385.25651041667277,"velocity":0.8031496062992126,"duration":0.8984375},{"name":"G4","midi":67,"time":385.48307291667277,"velocity":0.8031496062992126,"duration":0.22395833333331439},{"name":"A4","midi":69,"time":385.70963541667277,"velocity":0.8031496062992126,"duration":0.22395833333331439},{"name":"A#4","midi":70,"time":385.9375000000061,"velocity":0.8031496062992126,"duration":0.22395833333337123},{"name":"C5","midi":72,"time":386.16406250000614,"velocity":0.8031496062992126,"duration":1.1354166666666288},{"name":"C4","midi":60,"time":386.39192708333945,"velocity":0.8031496062992126,"duration":0.22395833333331439},{"name":"D4","midi":62,"time":386.61848958333945,"velocity":0.8031496062992126,"duration":0.22395833333331439},{"name":"E4","midi":64,"time":386.84505208333945,"velocity":0.8031496062992126,"duration":0.22395833333331439},{"name":"A3","midi":57,"time":387.07291666667277,"velocity":0.8031496062992126,"duration":0.45182291666662877},{"name":"F4","midi":65,"time":387.07291666667277,"velocity":0.8031496062992126,"duration":1.3593749999999432},{"name":"A#4","midi":70,"time":387.29947916667277,"velocity":0.8031496062992126,"duration":0.22395833333331439},{"name":"D4","midi":62,"time":387.5273437500061,"velocity":0.8031496062992126,"duration":0.45182291666662877},{"name":"A4","midi":69,"time":387.5273437500061,"velocity":0.8031496062992126,"duration":0.22395833333331439},{"name":"D5","midi":74,"time":387.7539062500061,"velocity":0.8031496062992126,"duration":0.22395833333331439},{"name":"G3","midi":55,"time":387.9817708333394,"velocity":0.8031496062992126,"duration":0.45182291666662877},{"name":"C5","midi":72,"time":387.9817708333394,"velocity":0.8031496062992126,"duration":0.11067708333331439},{"name":"A#4","midi":70,"time":388.0950520833394,"velocity":0.8031496062992126,"duration":0.11067708333331439},{"name":"C5","midi":72,"time":388.2083333333394,"velocity":0.8031496062992126,"duration":0.11067708333331439},{"name":"A#4","midi":70,"time":388.3216145833394,"velocity":0.8031496062992126,"duration":0.11067708333331439},{"name":"C4","midi":60,"time":388.43489583333934,"velocity":0.8031496062992126,"duration":0.4518229166666856},{"name":"C5","midi":72,"time":388.43489583333934,"velocity":0.8031496062992126,"duration":0.11067708333331439},{"name":"E4","midi":64,"time":388.43489583333934,"velocity":0.8031496062992126,"duration":0.44921875},{"name":"A#4","midi":70,"time":388.54947916667265,"velocity":0.8031496062992126,"duration":0.11067708333331439},{"name":"A4","midi":69,"time":388.66276041667265,"velocity":0.8031496062992126,"duration":0.11067708333331439},{"name":"A#4","midi":70,"time":388.77604166667265,"velocity":0.8031496062992126,"duration":0.11067708333337123},{"name":"F3","midi":53,"time":388.8893229166727,"velocity":0.8031496062992126,"duration":0.45182291666662877},{"name":"A4","midi":69,"time":388.8893229166727,"velocity":0.8031496062992126,"duration":0.22395833333331439},{"name":"F4","midi":65,"time":388.8893229166727,"velocity":0.8031496062992126,"duration":0.8984374999999432},{"name":"C5","midi":72,"time":389.117187500006,"velocity":0.8031496062992126,"duration":0.22395833333331439},{"name":"E3","midi":52,"time":389.343750000006,"velocity":0.8031496062992126,"duration":0.45182291666662877},{"name":"D5","midi":74,"time":389.343750000006,"velocity":0.8031496062992126,"duration":0.22395833333331439},{"name":"E5","midi":76,"time":389.57161458333934,"velocity":0.8031496062992126,"duration":0.22395833333331439},{"name":"D3","midi":50,"time":389.79817708333934,"velocity":0.8031496062992126,"duration":0.45182291666662877},{"name":"F5","midi":77,"time":389.79817708333934,"velocity":0.8031496062992126,"duration":1.3593749999999432},{"name":"A4","midi":69,"time":390.02473958333934,"velocity":0.8031496062992126,"duration":0.22395833333331439},{"name":"C3","midi":48,"time":390.25260416667265,"velocity":0.8031496062992126,"duration":0.45182291666662877},{"name":"B4","midi":71,"time":390.25260416667265,"velocity":0.8031496062992126,"duration":0.22395833333331439},{"name":"C5","midi":72,"time":390.47916666667265,"velocity":0.8031496062992126,"duration":0.22395833333331439},{"name":"B2","midi":47,"time":390.70703125000597,"velocity":0.8031496062992126,"duration":0.22395833333331439},{"name":"D5","midi":74,"time":390.70703125000597,"velocity":0.8031496062992126,"duration":0.45182291666662877},{"name":"D3","midi":50,"time":390.93359375000597,"velocity":0.8031496062992126,"duration":0.22395833333331439},{"name":"E3","midi":52,"time":391.1601562500059,"velocity":0.8031496062992126,"duration":0.22395833333331439},{"name":"E5","midi":76,"time":391.1601562500059,"velocity":0.8031496062992126,"duration":0.45182291666662877},{"name":"C5","midi":72,"time":391.1601562500059,"velocity":0.8031496062992126,"duration":0.45182291666662877},{"name":"F3","midi":53,"time":391.3880208333392,"velocity":0.8031496062992126,"duration":0.22395833333331439},{"name":"G3","midi":55,"time":391.6145833333392,"velocity":0.8031496062992126,"duration":0.45182291666662877},{"name":"D5","midi":74,"time":391.6145833333392,"velocity":0.8031496062992126,"duration":0.22395833333331439},{"name":"B4","midi":71,"time":391.6145833333392,"velocity":0.8031496062992126,"duration":0.8984374999999432},{"name":"G5","midi":79,"time":391.84244791667254,"velocity":0.8031496062992126,"duration":0.22395833333331439},{"name":"G2","midi":43,"time":392.06901041667254,"velocity":0.8031496062992126,"duration":0.45182291666662877},{"name":"F5","midi":77,"time":392.06901041667254,"velocity":0.8031496062992126,"duration":0.22395833333331439},{"name":"G5","midi":79,"time":392.29687500000585,"velocity":0.8031496062992126,"duration":0.22395833333331439},{"name":"C3","midi":48,"time":392.52343750000585,"velocity":0.8031496062992126,"duration":0.13932291666668561},{"name":"C5","midi":72,"time":392.52343750000585,"velocity":0.8031496062992126,"duration":0.2994791666666856},{"name":"E5","midi":76,"time":392.52343750000585,"velocity":0.8031496062992126,"duration":1.1354166666666856},{"name":"D3","midi":50,"time":392.67447916667254,"velocity":0.8031496062992126,"duration":0.13932291666668561},{"name":"G4","midi":67,"time":392.82421875000585,"velocity":0.8031496062992126,"duration":0.14843750000005684},{"name":"E3","midi":52,"time":392.82682291667254,"velocity":0.8031496062992126,"duration":0.13932291666668561},{"name":"C3","midi":48,"time":392.9778645833392,"velocity":0.8031496062992126,"duration":0.13932291666668561},{"name":"A4","midi":69,"time":392.9778645833392,"velocity":0.8031496062992126,"duration":0.2994791666666856},{"name":"D3","midi":50,"time":393.1289062500059,"velocity":0.8031496062992126,"duration":0.13932291666668561},{"name":"B4","midi":71,"time":393.2786458333392,"velocity":0.8031496062992126,"duration":0.1484375},{"name":"E3","midi":52,"time":393.27994791667254,"velocity":0.8031496062992126,"duration":0.13932291666668561},{"name":"A2","midi":45,"time":393.43229166667254,"velocity":0.8031496062992126,"duration":0.13932291666668561},{"name":"C5","midi":72,"time":393.43229166667254,"velocity":0.8031496062992126,"duration":2.7200520833335418},{"name":"B2","midi":47,"time":393.5833333333392,"velocity":0.8031496062992126,"duration":0.13932291666662877},{"name":"E5","midi":76,"time":393.73307291667254,"velocity":0.8031496062992126,"duration":0.1484375},{"name":"C3","midi":48,"time":393.73437500000585,"velocity":0.8031496062992126,"duration":0.13932291666668561},{"name":"A2","midi":45,"time":393.88671875000585,"velocity":0.8031496062992126,"duration":0.13932291666668561},{"name":"F5","midi":77,"time":393.88671875000585,"velocity":0.8031496062992126,"duration":0.2994791666666856},{"name":"B2","midi":47,"time":394.03776041667254,"velocity":0.8031496062992126,"duration":0.13932291666668561},{"name":"G5","midi":79,"time":394.18619791667254,"velocity":0.8031496062992126,"duration":0.14843750000005684},{"name":"C3","midi":48,"time":394.1888020833392,"velocity":0.8031496062992126,"duration":0.13932291666668561},{"name":"F2","midi":41,"time":394.3398437500059,"velocity":0.8031496062992126,"duration":0.4518229166666856},{"name":"A5","midi":81,"time":394.3398437500059,"velocity":0.8031496062992126,"duration":0.13932291666668561},{"name":"B5","midi":83,"time":394.4921875000059,"velocity":0.8031496062992126,"duration":0.13932291666668561},{"name":"C6","midi":84,"time":394.6432291666726,"velocity":0.8031496062992126,"duration":0.13932291666668561},{"name":"A3","midi":57,"time":394.7942708333393,"velocity":0.8031496062992126,"duration":0.4518229166666856},{"name":"A5","midi":81,"time":394.7942708333393,"velocity":0.8031496062992126,"duration":0.13932291666668561},{"name":"B5","midi":83,"time":394.94531250000597,"velocity":0.8031496062992126,"duration":0.13932291666668561},{"name":"C6","midi":84,"time":395.09765625000597,"velocity":0.8031496062992126,"duration":0.13932291666668561},{"name":"D3","midi":50,"time":395.24869791667265,"velocity":0.8031496062992126,"duration":0.4518229166666856},{"name":"F5","midi":77,"time":395.24869791667265,"velocity":0.8031496062992126,"duration":0.13932291666668561},{"name":"G5","midi":79,"time":395.39973958333934,"velocity":0.8031496062992126,"duration":0.13932291666668561},{"name":"A5","midi":81,"time":395.55208333333934,"velocity":0.8031496062992126,"duration":0.13932291666668561},{"name":"F3","midi":53,"time":395.703125000006,"velocity":0.8031496062992126,"duration":0.45182291666674246},{"name":"F5","midi":77,"time":395.703125000006,"velocity":0.8031496062992126,"duration":0.13932291666668561},{"name":"G5","midi":79,"time":395.8541666666727,"velocity":0.8031496062992126,"duration":0.13932291666668561},{"name":"A5","midi":81,"time":396.0052083333394,"velocity":0.8031496062992126,"duration":0.13932291666668561},{"name":"B2","midi":47,"time":396.15755208333945,"velocity":0.8031496062992126,"duration":0.13932291666668561},{"name":"D5","midi":74,"time":396.15755208333945,"velocity":0.8031496062992126,"duration":1.1354166666667425},{"name":"C3","midi":48,"time":396.30859375000614,"velocity":0.8031496062992126,"duration":0.13932291666668561},{"name":"C5","midi":72,"time":396.4583333333395,"velocity":0.8031496062992126,"duration":0.1484375},{"name":"D3","midi":50,"time":396.4596354166728,"velocity":0.8031496062992126,"duration":0.13932291666668561},{"name":"B2","midi":47,"time":396.6119791666728,"velocity":0.8031496062992126,"duration":0.13932291666668561},{"name":"B4","midi":71,"time":396.6119791666728,"velocity":0.8031496062992126,"duration":0.2994791666666856},{"name":"C3","midi":48,"time":396.7630208333395,"velocity":0.8031496062992126,"duration":0.13932291666668561},{"name":"A4","midi":69,"time":396.9114583333395,"velocity":0.8031496062992126,"duration":0.14843750000005684},{"name":"D3","midi":50,"time":396.9140625000062,"velocity":0.8031496062992126,"duration":0.13932291666668561},{"name":"G2","midi":43,"time":397.0651041666729,"velocity":0.8031496062992126,"duration":0.13932291666668561},{"name":"B4","midi":71,"time":397.0651041666729,"velocity":0.8031496062992126,"duration":2.7200520833336554},{"name":"A2","midi":45,"time":397.2174479166729,"velocity":0.8031496062992126,"duration":0.13932291666662877},{"name":"D5","midi":74,"time":397.3658854166728,"velocity":0.8031496062992126,"duration":0.14843750000005684},{"name":"B2","midi":47,"time":397.3684895833395,"velocity":0.8031496062992126,"duration":0.13932291666668561},{"name":"G2","midi":43,"time":397.5195312500062,"velocity":0.8031496062992126,"duration":0.13932291666668561},{"name":"E5","midi":76,"time":397.5195312500062,"velocity":0.8031496062992126,"duration":0.2994791666666856},{"name":"A2","midi":45,"time":397.6718750000062,"velocity":0.8031496062992126,"duration":0.13932291666668561},{"name":"F5","midi":77,"time":397.8203125000062,"velocity":0.8031496062992126,"duration":0.14843750000005684},{"name":"B2","midi":47,"time":397.8229166666729,"velocity":0.8031496062992126,"duration":0.13932291666668561},{"name":"E2","midi":40,"time":397.97395833333957,"velocity":0.8031496062992126,"duration":0.4518229166666856},{"name":"G5","midi":79,"time":397.97395833333957,"velocity":0.8031496062992126,"duration":0.13932291666668561},{"name":"A5","midi":81,"time":398.12500000000625,"velocity":0.8031496062992126,"duration":0.13932291666668561},{"name":"B5","midi":83,"time":398.27734375000625,"velocity":0.8031496062992126,"duration":0.13932291666668561},{"name":"G3","midi":55,"time":398.42838541667294,"velocity":0.8031496062992126,"duration":0.45182291666674246},{"name":"G5","midi":79,"time":398.42838541667294,"velocity":0.8031496062992126,"duration":0.13932291666668561},{"name":"A5","midi":81,"time":398.5794270833396,"velocity":0.8031496062992126,"duration":0.13932291666668561},{"name":"B5","midi":83,"time":398.7304687500063,"velocity":0.8031496062992126,"duration":0.13932291666668561},{"name":"C3","midi":48,"time":398.88281250000637,"velocity":0.8031496062992126,"duration":0.45182291666674246},{"name":"E5","midi":76,"time":398.88281250000637,"velocity":0.8031496062992126,"duration":0.13932291666668561},{"name":"F5","midi":77,"time":399.03385416667305,"velocity":0.8031496062992126,"duration":0.13932291666668561},{"name":"G5","midi":79,"time":399.18489583333974,"velocity":0.8031496062992126,"duration":0.13932291666668561},{"name":"E3","midi":52,"time":399.3372395833398,"velocity":0.8031496062992126,"duration":0.45182291666674246},{"name":"E5","midi":76,"time":399.3372395833398,"velocity":0.8031496062992126,"duration":0.13932291666668561},{"name":"F5","midi":77,"time":399.4882812500065,"velocity":0.8031496062992126,"duration":0.13932291666668561},{"name":"G5","midi":79,"time":399.63932291667317,"velocity":0.8031496062992126,"duration":0.13932291666668561},{"name":"A2","midi":45,"time":399.79036458333985,"velocity":0.8031496062992126,"duration":0.13932291666668561},{"name":"C5","midi":72,"time":399.79036458333985,"velocity":0.8031496062992126,"duration":1.1354166666667425},{"name":"B2","midi":47,"time":399.94270833333985,"velocity":0.8031496062992126,"duration":0.13932291666668561},{"name":"B4","midi":71,"time":400.09114583333985,"velocity":0.8031496062992126,"duration":0.14843750000005684},{"name":"C3","midi":48,"time":400.09375000000654,"velocity":0.8031496062992126,"duration":0.13932291666668561},{"name":"A2","midi":45,"time":400.2447916666732,"velocity":0.8031496062992126,"duration":0.13932291666668561},{"name":"A4","midi":69,"time":400.2447916666732,"velocity":0.8031496062992126,"duration":0.2994791666666856},{"name":"B2","midi":47,"time":400.3971354166732,"velocity":0.8031496062992126,"duration":0.13932291666668561},{"name":"G4","midi":67,"time":400.5455729166732,"velocity":0.8031496062992126,"duration":0.14843750000005684},{"name":"C3","midi":48,"time":400.5481770833399,"velocity":0.8031496062992126,"duration":0.13932291666668561},{"name":"F#2","midi":42,"time":400.6992187500066,"velocity":0.8031496062992126,"duration":0.13932291666668561},{"name":"A4","midi":69,"time":400.6992187500066,"velocity":0.8031496062992126,"duration":2.7200520833336554},{"name":"G2","midi":43,"time":400.8502604166733,"velocity":0.8031496062992126,"duration":0.13932291666662877},{"name":"D#5","midi":75,"time":401.0000000000066,"velocity":0.8031496062992126,"duration":0.14843750000005684},{"name":"A2","midi":45,"time":401.0026041666733,"velocity":0.8031496062992126,"duration":0.13932291666668561},{"name":"F#2","midi":42,"time":401.15364583333997,"velocity":0.8031496062992126,"duration":0.13932291666668561},{"name":"D5","midi":74,"time":401.15364583333997,"velocity":0.8031496062992126,"duration":0.2994791666666856},{"name":"G2","midi":43,"time":401.30468750000665,"velocity":0.8031496062992126,"duration":0.13932291666668561},{"name":"C5","midi":72,"time":401.45442708333997,"velocity":0.8031496062992126,"duration":0.14843750000005684},{"name":"A2","midi":45,"time":401.45703125000665,"velocity":0.8031496062992126,"duration":0.13932291666668561},{"name":"D2","midi":38,"time":401.60807291667334,"velocity":0.8031496062992126,"duration":0.45182291666674246},{"name":"F#5","midi":78,"time":401.60807291667334,"velocity":0.8031496062992126,"duration":0.13932291666668561},{"name":"G5","midi":79,"time":401.75911458334,"velocity":0.8031496062992126,"duration":0.13932291666668561},{"name":"A5","midi":81,"time":401.9101562500067,"velocity":0.8031496062992126,"duration":0.13932291666668561},{"name":"A2","midi":45,"time":402.06250000000676,"velocity":0.8031496062992126,"duration":0.45182291666674246},{"name":"F#5","midi":78,"time":402.06250000000676,"velocity":0.8031496062992126,"duration":0.13932291666668561},{"name":"G5","midi":79,"time":402.21354166667345,"velocity":0.8031496062992126,"duration":0.13932291666668561},{"name":"A5","midi":81,"time":402.36458333334014,"velocity":0.8031496062992126,"duration":0.13932291666668561},{"name":"F#2","midi":42,"time":402.5156250000068,"velocity":0.8031496062992126,"duration":0.4518229166666856},{"name":"C5","midi":72,"time":402.5156250000068,"velocity":0.8031496062992126,"duration":0.13932291666668561},{"name":"D5","midi":74,"time":402.6679687500068,"velocity":0.8031496062992126,"duration":0.13932291666668561},{"name":"D#5","midi":75,"time":402.8190104166735,"velocity":0.8031496062992126,"duration":0.13932291666668561},{"name":"D2","midi":38,"time":402.9700520833402,"velocity":0.8031496062992126,"duration":0.45182291666674246},{"name":"C5","midi":72,"time":402.9700520833402,"velocity":0.8031496062992126,"duration":0.13932291666668561},{"name":"D5","midi":74,"time":403.1223958333402,"velocity":0.8031496062992126,"duration":0.13932291666668561},{"name":"D#5","midi":75,"time":403.2734375000069,"velocity":0.8031496062992126,"duration":0.13932291666668561},{"name":"G2","midi":43,"time":403.4244791666736,"velocity":0.8031496062992126,"duration":1.1354166666667425},{"name":"G4","midi":67,"time":403.4244791666736,"velocity":0.8031496062992126,"duration":0.8984375000000568},{"name":"B4","midi":71,"time":403.4244791666736,"velocity":0.8031496062992126,"duration":0.13932291666668561},{"name":"C5","midi":72,"time":403.5755208333403,"velocity":0.8031496062992126,"duration":0.13932291666668561},{"name":"D5","midi":74,"time":403.7278645833403,"velocity":0.8031496062992126,"duration":0.13932291666668561},{"name":"B4","midi":71,"time":403.878906250007,"velocity":0.8031496062992126,"duration":0.13932291666668561},{"name":"C5","midi":72,"time":404.0299479166737,"velocity":0.8031496062992126,"duration":0.13932291666668561},{"name":"D5","midi":74,"time":404.1822916666737,"velocity":0.8031496062992126,"duration":0.13932291666668561},{"name":"G4","midi":67,"time":404.33333333334036,"velocity":0.8031496062992126,"duration":0.13932291666668561},{"name":"A4","midi":69,"time":404.48437500000705,"velocity":0.8031496062992126,"duration":0.13932291666662877},{"name":"B4","midi":71,"time":404.6354166666737,"velocity":0.8031496062992126,"duration":0.6028645833333712},{"name":"G3","midi":55,"time":404.7877604166737,"velocity":0.8031496062992126,"duration":0.4518229166666856},{"name":"F4","midi":65,"time":404.7877604166737,"velocity":0.8031496062992126,"duration":0.13932291666668561},{"name":"G4","midi":67,"time":404.93880208334036,"velocity":0.8031496062992126,"duration":0.13932291666668561},{"name":"G#4","midi":68,"time":405.08984375000705,"velocity":0.8031496062992126,"duration":0.13932291666668561},{"name":"G#3","midi":56,"time":405.24218750000705,"velocity":0.8031496062992126,"duration":0.22395833333331439},{"name":"D#4","midi":63,"time":405.24218750000705,"velocity":0.8031496062992126,"duration":0.45182291666662877},{"name":"C5","midi":72,"time":405.24218750000705,"velocity":0.8031496062992126,"duration":0.45182291666662877},{"name":"G3","midi":55,"time":405.46875000000705,"velocity":0.8031496062992126,"duration":0.22395833333331439},{"name":"F#3","midi":54,"time":405.695312500007,"velocity":0.8031496062992126,"duration":0.22395833333331439},{"name":"D#5","midi":75,"time":405.695312500007,"velocity":0.8031496062992126,"duration":0.8984374999999432},{"name":"G3","midi":55,"time":405.9231770833403,"velocity":0.8031496062992126,"duration":0.22395833333331439},{"name":"C3","midi":48,"time":406.1497395833403,"velocity":0.8031496062992126,"duration":0.22395833333331439},{"name":"G#4","midi":68,"time":406.1497395833403,"velocity":0.8031496062992126,"duration":0.8984375},{"name":"G3","midi":55,"time":406.3776041666736,"velocity":0.8031496062992126,"duration":0.22395833333331439},{"name":"F#3","midi":54,"time":406.6041666666736,"velocity":0.8031496062992126,"duration":0.22395833333331439},{"name":"C5","midi":72,"time":406.6041666666736,"velocity":0.8031496062992126,"duration":0.8984375000000568},{"name":"G3","midi":55,"time":406.8307291666736,"velocity":0.8031496062992126,"duration":0.22395833333337123},{"name":"A3","midi":57,"time":407.058593750007,"velocity":0.8031496062992126,"duration":0.22395833333331439},{"name":"F#4","midi":66,"time":407.058593750007,"velocity":0.8031496062992126,"duration":0.8984375000000568},{"name":"G3","midi":55,"time":407.285156250007,"velocity":0.8031496062992126,"duration":0.22395833333337123},{"name":"F#3","midi":54,"time":407.51302083334036,"velocity":0.8031496062992126,"duration":0.22395833333331439},{"name":"A4","midi":69,"time":407.51302083334036,"velocity":0.8031496062992126,"duration":0.8984375000000568},{"name":"G3","midi":55,"time":407.73958333334036,"velocity":0.8031496062992126,"duration":0.22395833333337123},{"name":"C3","midi":48,"time":407.96744791667373,"velocity":0.8031496062992126,"duration":0.22395833333331439},{"name":"D4","midi":62,"time":407.96744791667373,"velocity":0.8031496062992126,"duration":0.8984375000000568},{"name":"D#3","midi":51,"time":408.19401041667373,"velocity":0.8031496062992126,"duration":0.22395833333337123},{"name":"D3","midi":50,"time":408.4205729166738,"velocity":0.8031496062992126,"duration":0.22395833333331439},{"name":"F#4","midi":66,"time":408.4205729166738,"velocity":0.8031496062992126,"duration":0.4518229166666856},{"name":"C3","midi":48,"time":408.6484375000071,"velocity":0.8031496062992126,"duration":0.22395833333337123},{"name":"F3","midi":53,"time":408.87500000000716,"velocity":0.8031496062992126,"duration":1.1302083333333712},{"name":"B3","midi":59,"time":408.87500000000716,"velocity":0.8031496062992126,"duration":0.66015625},{"name":"D4","midi":62,"time":409.1028645833405,"velocity":0.8031496062992126,"duration":0.22395833333331439},{"name":"G4","midi":67,"time":409.3294270833405,"velocity":0.8031496062992126,"duration":0.44661458333337123},{"name":"B3","midi":59,"time":409.55468750000716,"velocity":0.8031496062992126,"duration":0.22395833333337123},{"name":"C4","midi":60,"time":409.7812500000072,"velocity":0.8031496062992126,"duration":0.22395833333331439},{"name":"F3","midi":53,"time":410.00911458334053,"velocity":0.8031496062992126,"duration":0.22395833333331439},{"name":"A4","midi":69,"time":410.00911458334053,"velocity":0.8031496062992126,"duration":0.22395833333331439},{"name":"E3","midi":52,"time":410.23567708334053,"velocity":0.8031496062992126,"duration":0.22395833333331439},{"name":"D4","midi":62,"time":410.23567708334053,"velocity":0.8031496062992126,"duration":0.22395833333331439},{"name":"D3","midi":50,"time":410.46223958334053,"velocity":0.8031496062992126,"duration":0.22395833333331439},{"name":"B4","midi":71,"time":410.46223958334053,"velocity":0.8031496062992126,"duration":0.22395833333331439},{"name":"C3","midi":48,"time":410.69010416667385,"velocity":0.8031496062992126,"duration":0.22395833333331439},{"name":"E4","midi":64,"time":410.69010416667385,"velocity":0.8031496062992126,"duration":0.66015625},{"name":"E3","midi":52,"time":410.91666666667385,"velocity":0.8031496062992126,"duration":0.22395833333331439},{"name":"G4","midi":67,"time":410.91666666667385,"velocity":0.8031496062992126,"duration":0.22395833333331439},{"name":"A3","midi":57,"time":411.14453125000716,"velocity":0.8031496062992126,"duration":0.22265625},{"name":"C5","midi":72,"time":411.14453125000716,"velocity":0.8031496062992126,"duration":0.6588541666666288},{"name":"F3","midi":53,"time":411.3684895833405,"velocity":0.8031496062992126,"duration":0.22395833333331439},{"name":"E4","midi":64,"time":411.3684895833405,"velocity":0.8031496062992126,"duration":0.22395833333331439},{"name":"G3","midi":55,"time":411.5963541666738,"velocity":0.8031496062992126,"duration":0.44921875000005684},{"name":"D4","midi":62,"time":411.5963541666738,"velocity":0.8031496062992126,"duration":0.44661458333337123},{"name":"C5","midi":72,"time":411.8216145833405,"velocity":0.8031496062992126,"duration":0.44921875000005684},{"name":"G2","midi":43,"time":412.04817708334053,"velocity":0.8031496062992126,"duration":0.45182291666662877},{"name":"F4","midi":65,"time":412.04817708334053,"velocity":0.8031496062992126,"duration":0.44921875},{"name":"B4","midi":71,"time":412.27473958334053,"velocity":0.8031496062992126,"duration":0.22395833333331439},{"name":"C3","midi":48,"time":412.50260416667385,"velocity":0.8031496062992126,"duration":0.8984375},{"name":"C5","midi":72,"time":412.50260416667385,"velocity":0.8031496062992126,"duration":1.5872395833333712},{"name":"G4","midi":67,"time":412.50260416667385,"velocity":0.8031496062992126,"duration":1.5872395833333712},{"name":"E4","midi":64,"time":412.50260416667385,"velocity":0.8031496062992126,"duration":1.5872395833333712},{"name":"C2","midi":36,"time":412.72916666667385,"velocity":0.8031496062992126,"duration":1.1354166666666856},{"name":"E2","midi":40,"time":412.95703125000716,"velocity":0.8031496062992126,"duration":0.22395833333331439},{"name":"G2","midi":43,"time":413.18359375000716,"velocity":0.8031496062992126,"duration":0.22395833333337123},{"name":"C3","midi":48,"time":413.4101562500072,"velocity":0.8031496062992126,"duration":0.9049479166666856},{"name":"G5","midi":79,"time":414.0924479166739,"velocity":0.8031496062992126,"duration":0.22395833333331439},{"name":"C3","midi":48,"time":414.3190104166739,"velocity":0.8031496062992126,"duration":0.5625},{"name":"E5","midi":76,"time":414.3190104166739,"velocity":0.8031496062992126,"duration":0.8971354166666856},{"name":"C5","midi":72,"time":414.3190104166739,"velocity":0.8031496062992126,"duration":0.8971354166666856},{"name":"G5","midi":79,"time":414.3190104166739,"velocity":0.8031496062992126,"duration":1.1302083333333712},{"name":"G2","midi":43,"time":414.8854166666739,"velocity":0.8031496062992126,"duration":0.11067708333331439},{"name":"A2","midi":45,"time":414.9986979166739,"velocity":0.8031496062992126,"duration":0.11067708333331439},{"name":"B2","midi":47,"time":415.1119791666739,"velocity":0.8031496062992126,"duration":0.11067708333337123},{"name":"C3","midi":48,"time":415.22526041667396,"velocity":0.8031496062992126,"duration":0.22395833333331439},{"name":"B2","midi":47,"time":415.4531250000073,"velocity":0.8031496062992126,"duration":0.22395833333331439},{"name":"G4","midi":67,"time":415.4531250000073,"velocity":0.8031496062992126,"duration":0.22395833333331439},{"name":"C3","midi":48,"time":415.6796875000073,"velocity":0.8031496062992126,"duration":0.22395833333331439},{"name":"A4","midi":69,"time":415.6796875000073,"velocity":0.8031496062992126,"duration":0.22395833333331439},{"name":"D3","midi":50,"time":415.9062500000073,"velocity":0.8031496062992126,"duration":0.22395833333331439},{"name":"B4","midi":71,"time":415.9062500000073,"velocity":0.8031496062992126,"duration":0.22395833333331439},{"name":"E3","midi":52,"time":416.1341145833406,"velocity":0.8031496062992126,"duration":0.13932291666668561},{"name":"C5","midi":72,"time":416.1341145833406,"velocity":0.8031496062992126,"duration":0.45182291666674246},{"name":"D3","midi":50,"time":416.2851562500073,"velocity":0.8031496062992126,"duration":0.13932291666668561},{"name":"C3","midi":48,"time":416.43619791667396,"velocity":0.8031496062992126,"duration":0.13932291666668561},{"name":"E3","midi":52,"time":416.588541666674,"velocity":0.8031496062992126,"duration":0.13932291666668561},{"name":"G4","midi":67,"time":416.588541666674,"velocity":0.8031496062992126,"duration":0.45182291666674246},{"name":"D3","midi":50,"time":416.7395833333407,"velocity":0.8031496062992126,"duration":0.13932291666668561},{"name":"C3","midi":48,"time":416.8906250000074,"velocity":0.8031496062992126,"duration":0.13932291666668561},{"name":"G3","midi":55,"time":417.04296875000745,"velocity":0.8031496062992126,"duration":0.13932291666668561},{"name":"E5","midi":76,"time":417.04296875000745,"velocity":0.8031496062992126,"duration":0.45182291666674246},{"name":"F3","midi":53,"time":417.19401041667413,"velocity":0.8031496062992126,"duration":0.13932291666668561},{"name":"E3","midi":52,"time":417.3450520833408,"velocity":0.8031496062992126,"duration":0.13932291666668561},{"name":"G3","midi":55,"time":417.4960937500075,"velocity":0.8031496062992126,"duration":0.13932291666668561},{"name":"C5","midi":72,"time":417.4960937500075,"velocity":0.8031496062992126,"duration":0.4518229166666856},{"name":"F3","midi":53,"time":417.6484375000075,"velocity":0.8031496062992126,"duration":0.13932291666668561},{"name":"E3","midi":52,"time":417.7994791666742,"velocity":0.8031496062992126,"duration":0.13932291666668561},{"name":"C4","midi":60,"time":417.9505208333409,"velocity":0.8031496062992126,"duration":0.4518229166666856},{"name":"G5","midi":79,"time":417.9505208333409,"velocity":0.8031496062992126,"duration":0.13932291666668561},{"name":"F5","midi":77,"time":418.10156250000756,"velocity":0.8031496062992126,"duration":0.13932291666668561},{"name":"E5","midi":76,"time":418.25390625000756,"velocity":0.8031496062992126,"duration":0.13932291666668561},{"name":"G3","midi":55,"time":418.40494791667425,"velocity":0.8031496062992126,"duration":0.4518229166666856},{"name":"G5","midi":79,"time":418.40494791667425,"velocity":0.8031496062992126,"duration":0.13932291666668561},{"name":"F5","midi":77,"time":418.55598958334093,"velocity":0.8031496062992126,"duration":0.13932291666668561},{"name":"E5","midi":76,"time":418.70833333334093,"velocity":0.8031496062992126,"duration":0.13932291666668561},{"name":"G3","midi":55,"time":418.8593750000076,"velocity":0.8031496062992126,"duration":0.5651041666666288},{"name":"C6","midi":84,"time":418.8593750000076,"velocity":0.8031496062992126,"duration":0.22395833333331439},{"name":"G5","midi":79,"time":419.0859375000076,"velocity":0.8031496062992126,"duration":0.22395833333331439},{"name":"G5","midi":79,"time":419.31380208334093,"velocity":0.8031496062992126,"duration":0.11067708333331439},{"name":"B3","midi":59,"time":419.42708333334093,"velocity":0.8031496062992126,"duration":0.11067708333331439},{"name":"F5","midi":77,"time":419.42708333334093,"velocity":0.8031496062992126,"duration":0.11067708333331439},{"name":"A3","midi":57,"time":419.54036458334093,"velocity":0.8031496062992126,"duration":0.11067708333331439},{"name":"E5","midi":76,"time":419.54036458334093,"velocity":0.8031496062992126,"duration":0.22395833333331439},{"name":"G3","midi":55,"time":419.65364583334093,"velocity":0.8031496062992126,"duration":0.11067708333331439},{"name":"F3","midi":53,"time":419.76822916667425,"velocity":0.8031496062992126,"duration":0.45182291666674246},{"name":"A5","midi":81,"time":419.76822916667425,"velocity":0.8031496062992126,"duration":0.13932291666668561},{"name":"G5","midi":79,"time":419.91927083334093,"velocity":0.8031496062992126,"duration":0.13932291666668561},{"name":"F5","midi":77,"time":420.0703125000076,"velocity":0.8031496062992126,"duration":0.13932291666668561},{"name":"F3","midi":53,"time":420.2213541666743,"velocity":0.8031496062992126,"duration":0.4518229166666856},{"name":"F5","midi":77,"time":420.2213541666743,"velocity":0.8031496062992126,"duration":0.13932291666668561},{"name":"E5","midi":76,"time":420.3736979166743,"velocity":0.8031496062992126,"duration":0.13932291666668561},{"name":"D5","midi":74,"time":420.524739583341,"velocity":0.8031496062992126,"duration":0.13932291666668561},{"name":"F3","midi":53,"time":420.6757812500077,"velocity":0.8031496062992126,"duration":0.5651041666666288},{"name":"B5","midi":83,"time":420.6757812500077,"velocity":0.8031496062992126,"duration":0.22395833333331439},{"name":"F5","midi":77,"time":420.903645833341,"velocity":0.8031496062992126,"duration":0.22395833333331439},{"name":"F5","midi":77,"time":421.130208333341,"velocity":0.8031496062992126,"duration":0.11067708333331439},{"name":"A3","midi":57,"time":421.243489583341,"velocity":0.8031496062992126,"duration":0.11067708333331439},{"name":"E5","midi":76,"time":421.243489583341,"velocity":0.8031496062992126,"duration":0.11067708333331439},{"name":"G3","midi":55,"time":421.356770833341,"velocity":0.8031496062992126,"duration":0.11067708333331439},{"name":"D5","midi":74,"time":421.356770833341,"velocity":0.8031496062992126,"duration":0.22395833333331439},{"name":"F3","midi":53,"time":421.4713541666743,"velocity":0.8031496062992126,"duration":0.11067708333331439},{"name":"E3","midi":52,"time":421.5846354166743,"velocity":0.8031496062992126,"duration":0.8984375},{"name":"C5","midi":72,"time":421.5846354166743,"velocity":0.8031496062992126,"duration":0.45182291666662877},{"name":"G3","midi":55,"time":421.8111979166743,"velocity":0.8031496062992126,"duration":0.22395833333331439},{"name":"A3","midi":57,"time":422.0390625000076,"velocity":0.8031496062992126,"duration":0.22395833333331439},{"name":"G5","midi":79,"time":422.0390625000076,"velocity":0.8031496062992126,"duration":0.4518229166666856},{"name":"B3","midi":59,"time":422.2656250000076,"velocity":0.8031496062992126,"duration":0.22395833333337123},{"name":"C4","midi":60,"time":422.493489583341,"velocity":0.8031496062992126,"duration":1.130208333333428},{"name":"A5","midi":81,"time":422.493489583341,"velocity":0.8031496062992126,"duration":0.11067708333337123},{"name":"G5","midi":79,"time":422.5976562500077,"velocity":0.8031496062992126,"duration":0.10807291666668561},{"name":"A5","midi":81,"time":422.70052083334105,"velocity":0.8031496062992126,"duration":0.10807291666668561},{"name":"G3","midi":55,"time":422.71744791667436,"velocity":0.8031496062992126,"duration":0.22265625000005684},{"name":"G5","midi":79,"time":422.80208333334105,"velocity":0.8031496062992126,"duration":0.24609375000005684},{"name":"F3","midi":53,"time":422.9427083333411,"velocity":0.8031496062992126,"duration":0.22395833333331439},{"name":"A#5","midi":82,"time":423.0559895833411,"velocity":0.8031496062992126,"duration":0.11067708333331439},{"name":"E3","midi":52,"time":423.1692708333411,"velocity":0.8031496062992126,"duration":0.22395833333331439},{"name":"A5","midi":81,"time":423.1692708333411,"velocity":0.8031496062992126,"duration":0.11067708333331439},{"name":"G5","midi":79,"time":423.2838541666744,"velocity":0.8031496062992126,"duration":0.11067708333331439},{"name":"D3","midi":50,"time":423.3971354166744,"velocity":0.8031496062992126,"duration":0.8984375},{"name":"F5","midi":77,"time":423.3971354166744,"velocity":0.8031496062992126,"duration":0.45182291666662877},{"name":"C4","midi":60,"time":423.6236979166744,"velocity":0.8031496062992126,"duration":0.22395833333331439},{"name":"B3","midi":59,"time":423.85156250000773,"velocity":0.8031496062992126,"duration":0.22395833333331439},{"name":"F5","midi":77,"time":423.85156250000773,"velocity":0.8031496062992126,"duration":0.4518229166666856},{"name":"A3","midi":57,"time":424.07812500000773,"velocity":0.8031496062992126,"duration":0.22395833333337123},{"name":"B3","midi":59,"time":424.3059895833411,"velocity":0.8031496062992126,"duration":0.8945312500001137},{"name":"G5","midi":79,"time":424.3059895833411,"velocity":0.8031496062992126,"duration":0.11067708333337123},{"name":"F5","midi":77,"time":424.4101562500078,"velocity":0.8031496062992126,"duration":0.10807291666668561},{"name":"G5","midi":79,"time":424.51302083334116,"velocity":0.8031496062992126,"duration":0.10807291666668561},{"name":"G3","midi":55,"time":424.5299479166745,"velocity":0.8031496062992126,"duration":0.22265625000005684},{"name":"F5","midi":77,"time":424.61458333334116,"velocity":0.8031496062992126,"duration":0.24609375000005684},{"name":"F3","midi":53,"time":424.7552083333412,"velocity":0.8031496062992126,"duration":0.22395833333331439},{"name":"A5","midi":81,"time":424.8684895833412,"velocity":0.8031496062992126,"duration":0.11067708333331439},{"name":"G3","midi":55,"time":424.9817708333412,"velocity":0.8031496062992126,"duration":0.22395833333331439},{"name":"G5","midi":79,"time":424.9817708333412,"velocity":0.8031496062992126,"duration":0.11067708333331439},{"name":"F5","midi":77,"time":425.09635416667453,"velocity":0.8031496062992126,"duration":0.11067708333331439},{"name":"C3","midi":48,"time":425.20963541667453,"velocity":0.8031496062992126,"duration":0.8984375},{"name":"E5","midi":76,"time":425.20963541667453,"velocity":0.8031496062992126,"duration":0.22395833333331439},{"name":"D5","midi":74,"time":425.43619791667453,"velocity":0.8031496062992126,"duration":0.22395833333331439},{"name":"G3","midi":55,"time":425.66406250000784,"velocity":0.8031496062992126,"duration":0.4518229166666856},{"name":"E5","midi":76,"time":425.66406250000784,"velocity":0.8031496062992126,"duration":0.22395833333331439},{"name":"F5","midi":77,"time":425.89062500000784,"velocity":0.8031496062992126,"duration":0.22395833333337123},{"name":"C4","midi":60,"time":426.11718750000784,"velocity":0.8031496062992126,"duration":0.11067708333331439},{"name":"E5","midi":76,"time":426.11718750000784,"velocity":0.8031496062992126,"duration":0.22395833333331439},{"name":"B3","midi":59,"time":426.23177083334116,"velocity":0.8031496062992126,"duration":0.11067708333331439},{"name":"G5","midi":79,"time":426.34505208334116,"velocity":0.8031496062992126,"duration":0.22395833333331439},{"name":"C4","midi":60,"time":426.34505208334116,"velocity":0.8031496062992126,"duration":0.11067708333331439},{"name":"B3","midi":59,"time":426.45833333334116,"velocity":0.8031496062992126,"duration":0.11067708333331439},{"name":"F#5","midi":78,"time":426.57161458334116,"velocity":0.8031496062992126,"duration":0.22395833333331439},{"name":"C4","midi":60,"time":426.57161458334116,"velocity":0.8031496062992126,"duration":0.66015625},{"name":"E5","midi":76,"time":426.7994791666745,"velocity":0.8031496062992126,"duration":0.22395833333331439},{"name":"F#5","midi":78,"time":427.0260416666745,"velocity":0.8031496062992126,"duration":0.44921875},{"name":"A3","midi":57,"time":427.25130208334116,"velocity":0.8031496062992126,"duration":0.22395833333331439},{"name":"B3","midi":59,"time":427.47786458334116,"velocity":0.8031496062992126,"duration":0.22395833333331439},{"name":"D5","midi":74,"time":427.47786458334116,"velocity":0.8031496062992126,"duration":0.45182291666662877},{"name":"C4","midi":60,"time":427.7057291666745,"velocity":0.8031496062992126,"duration":0.22395833333331439},{"name":"B3","midi":59,"time":427.9322916666745,"velocity":0.8031496062992126,"duration":0.22265625},{"name":"G5","midi":79,"time":427.9322916666745,"velocity":0.8031496062992126,"duration":0.11067708333331439},{"name":"F#5","midi":78,"time":428.0351562500078,"velocity":0.8031496062992126,"duration":0.10807291666668561},{"name":"G5","midi":79,"time":428.1354166666745,"velocity":0.8031496062992126,"duration":0.10807291666668561},{"name":"D4","midi":62,"time":428.15755208334116,"velocity":0.8031496062992126,"duration":0.22265625},{"name":"F#5","midi":78,"time":428.23567708334116,"velocity":0.8031496062992126,"duration":0.10807291666668561},{"name":"G5","midi":79,"time":428.33593750000784,"velocity":0.8031496062992126,"duration":0.70703125},{"name":"C#4","midi":61,"time":428.38281250000784,"velocity":0.8031496062992126,"duration":0.22395833333331439},{"name":"B3","midi":59,"time":428.60937500000784,"velocity":0.8031496062992126,"duration":0.22395833333331439},{"name":"C#4","midi":61,"time":428.83593750000784,"velocity":0.8031496062992126,"duration":0.9036458333333144},{"name":"G4","midi":67,"time":429.06119791667453,"velocity":0.8031496062992126,"duration":0.22395833333331439},{"name":"E5","midi":76,"time":429.06119791667453,"velocity":0.8031496062992126,"duration":0.22395833333331439},{"name":"A4","midi":69,"time":429.28906250000784,"velocity":0.8031496062992126,"duration":0.22395833333331439},{"name":"F5","midi":77,"time":429.28906250000784,"velocity":0.8031496062992126,"duration":0.22395833333331439},{"name":"G5","midi":79,"time":429.51562500000784,"velocity":0.8031496062992126,"duration":0.22395833333331439},{"name":"A#4","midi":70,"time":429.51562500000784,"velocity":0.8031496062992126,"duration":0.22395833333331439},{"name":"D4","midi":62,"time":429.74218750000784,"velocity":0.8031496062992126,"duration":1.8138020833332575},{"name":"A4","midi":69,"time":429.74218750000784,"velocity":0.8031496062992126,"duration":0.22395833333331439},{"name":"F5","midi":77,"time":429.74218750000784,"velocity":0.8031496062992126,"duration":0.22395833333331439},{"name":"A5","midi":81,"time":429.97005208334116,"velocity":0.8031496062992126,"duration":0.22395833333331439},{"name":"C5","midi":72,"time":429.97005208334116,"velocity":0.8031496062992126,"duration":0.22395833333331439},{"name":"A#4","midi":70,"time":430.19661458334116,"velocity":0.8031496062992126,"duration":0.22395833333331439},{"name":"G5","midi":79,"time":430.19661458334116,"velocity":0.8031496062992126,"duration":0.22395833333331439},{"name":"A4","midi":69,"time":430.4244791666745,"velocity":0.8031496062992126,"duration":0.22395833333331439},{"name":"F5","midi":77,"time":430.4244791666745,"velocity":0.8031496062992126,"duration":0.22395833333331439},{"name":"E5","midi":76,"time":430.6510416666745,"velocity":0.8031496062992126,"duration":0.22395833333331439},{"name":"G4","midi":67,"time":430.6510416666745,"velocity":0.8031496062992126,"duration":0.22395833333331439},{"name":"F4","midi":65,"time":430.8776041666745,"velocity":0.8031496062992126,"duration":0.22395833333331439},{"name":"D5","midi":74,"time":430.8776041666745,"velocity":0.8031496062992126,"duration":0.22395833333331439},{"name":"E5","midi":76,"time":431.1054687500078,"velocity":0.8031496062992126,"duration":0.22395833333331439},{"name":"G4","midi":67,"time":431.1054687500078,"velocity":0.8031496062992126,"duration":0.22395833333331439},{"name":"F5","midi":77,"time":431.3320312500078,"velocity":0.8031496062992126,"duration":0.22395833333331439},{"name":"A4","midi":69,"time":431.3320312500078,"velocity":0.8031496062992126,"duration":0.22395833333331439},{"name":"C#4","midi":61,"time":431.5598958333411,"velocity":0.8031496062992126,"duration":0.9049479166666288},{"name":"G4","midi":67,"time":431.5598958333411,"velocity":0.8031496062992126,"duration":0.22395833333331439},{"name":"E5","midi":76,"time":431.5598958333411,"velocity":0.8031496062992126,"duration":0.22395833333331439},{"name":"G5","midi":79,"time":431.7864583333411,"velocity":0.8031496062992126,"duration":0.22395833333331439},{"name":"A#4","midi":70,"time":431.7864583333411,"velocity":0.8031496062992126,"duration":0.22395833333331439},{"name":"F5","midi":77,"time":432.0143229166744,"velocity":0.8031496062992126,"duration":0.22395833333331439},{"name":"A4","midi":69,"time":432.0143229166744,"velocity":0.8031496062992126,"duration":0.22395833333331439},{"name":"G4","midi":67,"time":432.2408854166744,"velocity":0.8031496062992126,"duration":0.22395833333331439},{"name":"E5","midi":76,"time":432.2408854166744,"velocity":0.8031496062992126,"duration":0.22395833333331439},{"name":"D4","midi":62,"time":432.4674479166744,"velocity":0.8031496062992126,"duration":0.4518229166666856},{"name":"D5","midi":74,"time":432.4674479166744,"velocity":0.8031496062992126,"duration":0.6783854166666856},{"name":"F4","midi":65,"time":432.4674479166744,"velocity":0.8031496062992126,"duration":0.6783854166666856},{"name":"G3","midi":55,"time":432.9218750000078,"velocity":0.8031496062992126,"duration":0.45182291666662877},{"name":"E5","midi":76,"time":433.1497395833411,"velocity":0.8031496062992126,"duration":0.22395833333331439},{"name":"G4","midi":67,"time":433.1497395833411,"velocity":0.8031496062992126,"duration":0.22395833333331439},{"name":"A3","midi":57,"time":433.3763020833411,"velocity":0.8031496062992126,"duration":0.44921875},{"name":"E4","midi":64,"time":433.3763020833411,"velocity":0.8031496062992126,"duration":0.8971354166666856},{"name":"D5","midi":74,"time":433.3763020833411,"velocity":0.8031496062992126,"duration":0.20703125},{"name":"C#5","midi":73,"time":433.5833333333411,"velocity":0.8031496062992126,"duration":0.09114583333337123},{"name":"D5","midi":74,"time":433.6718750000078,"velocity":0.8031496062992126,"duration":0.09114583333331439},{"name":"C#5","midi":73,"time":433.7617187500078,"velocity":0.8031496062992126,"duration":0.09244791666662877},{"name":"A2","midi":45,"time":433.8281250000078,"velocity":0.8031496062992126,"duration":0.4518229166666856},{"name":"D5","midi":74,"time":433.8528645833411,"velocity":0.8031496062992126,"duration":0.09114583333331439},{"name":"C#5","midi":73,"time":433.94140625000773,"velocity":0.8031496062992126,"duration":0.11067708333337123},{"name":"D5","midi":74,"time":434.0559895833411,"velocity":0.8031496062992126,"duration":0.22395833333337123},{"name":"D2","midi":38,"time":434.28255208334116,"velocity":0.8031496062992126,"duration":0.4518229166666856},{"name":"D5","midi":74,"time":434.28255208334116,"velocity":0.8031496062992126,"duration":0.4518229166666856},{"name":"F4","midi":65,"time":434.28255208334116,"velocity":0.8031496062992126,"duration":3.619791666666572},{"name":"D3","midi":50,"time":434.73697916667453,"velocity":0.8031496062992126,"duration":0.6783854166666288},{"name":"A4","midi":69,"time":434.73697916667453,"velocity":0.8031496062992126,"duration":0.11067708333331439},{"name":"A#4","midi":70,"time":434.85026041667453,"velocity":0.8031496062992126,"duration":0.11067708333331439},{"name":"A4","midi":69,"time":434.96354166667453,"velocity":0.8031496062992126,"duration":0.11067708333331439},{"name":"A#4","midi":70,"time":435.07812500000784,"velocity":0.8031496062992126,"duration":0.11067708333331439},{"name":"C5","midi":72,"time":435.19140625000784,"velocity":0.8031496062992126,"duration":0.11067708333331439},{"name":"A#4","midi":70,"time":435.30468750000784,"velocity":0.8031496062992126,"duration":0.11067708333331439},{"name":"D3","midi":50,"time":435.41796875000784,"velocity":0.8031496062992126,"duration":0.22395833333331439},{"name":"C5","midi":72,"time":435.41796875000784,"velocity":0.8031496062992126,"duration":0.11067708333331439},{"name":"A#4","midi":70,"time":435.53125000000784,"velocity":0.8031496062992126,"duration":0.11067708333331439},{"name":"C3","midi":48,"time":435.64583333334116,"velocity":0.8031496062992126,"duration":0.22395833333331439},{"name":"C5","midi":72,"time":435.64583333334116,"velocity":0.8031496062992126,"duration":0.11067708333331439},{"name":"A#4","midi":70,"time":435.75911458334116,"velocity":0.8031496062992126,"duration":0.11067708333331439},{"name":"A#2","midi":46,"time":435.87239583334116,"velocity":0.8031496062992126,"duration":0.22395833333331439},{"name":"A4","midi":69,"time":435.87239583334116,"velocity":0.8031496062992126,"duration":0.11067708333331439},{"name":"A#4","midi":70,"time":435.98567708334116,"velocity":0.8031496062992126,"duration":0.11067708333331439},{"name":"A2","midi":45,"time":436.09895833334116,"velocity":0.8031496062992126,"duration":0.45182291666662877},{"name":"C5","midi":72,"time":436.09895833334116,"velocity":0.8031496062992126,"duration":0.22395833333331439},{"name":"D#5","midi":75,"time":436.3268229166745,"velocity":0.8031496062992126,"duration":0.22395833333331439},{"name":"A3","midi":57,"time":436.5533854166745,"velocity":0.8031496062992126,"duration":0.11067708333331439},{"name":"D5","midi":74,"time":436.5533854166745,"velocity":0.8031496062992126,"duration":0.22395833333331439},{"name":"A#3","midi":58,"time":436.6666666666745,"velocity":0.8031496062992126,"duration":0.11067708333331439},{"name":"A3","midi":57,"time":436.7812500000078,"velocity":0.8031496062992126,"duration":0.11067708333331439},{"name":"C5","midi":72,"time":436.7812500000078,"velocity":0.8031496062992126,"duration":0.22395833333331439},{"name":"A#3","midi":58,"time":436.8945312500078,"velocity":0.8031496062992126,"duration":0.11067708333331439},{"name":"C4","midi":60,"time":437.0078125000078,"velocity":0.8031496062992126,"duration":0.11067708333331439},{"name":"D5","midi":74,"time":437.0078125000078,"velocity":0.8031496062992126,"duration":0.22395833333331439},{"name":"A#3","midi":58,"time":437.1210937500078,"velocity":0.8031496062992126,"duration":0.11067708333331439},{"name":"C4","midi":60,"time":437.2343750000078,"velocity":0.8031496062992126,"duration":0.11067708333331439},{"name":"A#4","midi":70,"time":437.2343750000078,"velocity":0.8031496062992126,"duration":0.22395833333331439},{"name":"A#3","midi":58,"time":437.3489583333411,"velocity":0.8031496062992126,"duration":0.11067708333331439},{"name":"C4","midi":60,"time":437.4622395833411,"velocity":0.8031496062992126,"duration":0.11067708333331439},{"name":"C5","midi":72,"time":437.4622395833411,"velocity":0.8031496062992126,"duration":0.22395833333331439},{"name":"A#3","midi":58,"time":437.5755208333411,"velocity":0.8031496062992126,"duration":0.11067708333331439},{"name":"A3","midi":57,"time":437.6888020833411,"velocity":0.8031496062992126,"duration":0.11067708333331439},{"name":"D5","midi":74,"time":437.6888020833411,"velocity":0.8031496062992126,"duration":0.22395833333331439},{"name":"A#3","midi":58,"time":437.8033854166744,"velocity":0.8031496062992126,"duration":0.11067708333331439},{"name":"C4","midi":60,"time":437.9166666666744,"velocity":0.8031496062992126,"duration":0.4518229166666856},{"name":"G4","midi":67,"time":437.9166666666744,"velocity":0.8031496062992126,"duration":0.5651041666666856},{"name":"E4","midi":64,"time":437.9166666666744,"velocity":0.8031496062992126,"duration":1.8138020833333144},{"name":"C3","midi":48,"time":438.3710937500078,"velocity":0.8031496062992126,"duration":0.6783854166666288},{"name":"A4","midi":69,"time":438.4843750000078,"velocity":0.8031496062992126,"duration":0.11067708333331439},{"name":"G4","midi":67,"time":438.5976562500078,"velocity":0.8031496062992126,"duration":0.11067708333331439},{"name":"A4","midi":69,"time":438.7109375000078,"velocity":0.8031496062992126,"duration":0.11067708333331439},{"name":"A#4","midi":70,"time":438.8242187500078,"velocity":0.8031496062992126,"duration":0.11067708333331439},{"name":"A4","midi":69,"time":438.9388020833411,"velocity":0.8031496062992126,"duration":0.11067708333331439},{"name":"C3","midi":48,"time":439.0520833333411,"velocity":0.8031496062992126,"duration":0.22395833333331439},{"name":"A#4","midi":70,"time":439.0520833333411,"velocity":0.8031496062992126,"duration":0.11067708333331439},{"name":"A4","midi":69,"time":439.1653645833411,"velocity":0.8031496062992126,"duration":0.11067708333331439},{"name":"A#2","midi":46,"time":439.2786458333411,"velocity":0.8031496062992126,"duration":0.22395833333331439},{"name":"A#4","midi":70,"time":439.2786458333411,"velocity":0.8031496062992126,"duration":0.11067708333331439},{"name":"A4","midi":69,"time":439.3919270833411,"velocity":0.8031496062992126,"duration":0.11067708333331439},{"name":"A2","midi":45,"time":439.5065104166744,"velocity":0.8031496062992126,"duration":0.22395833333331439},{"name":"G4","midi":67,"time":439.5065104166744,"velocity":0.8031496062992126,"duration":0.11067708333331439},{"name":"A4","midi":69,"time":439.6197916666744,"velocity":0.8031496062992126,"duration":0.11067708333331439},{"name":"G2","midi":43,"time":439.7330729166744,"velocity":0.8031496062992126,"duration":0.45182291666662877},{"name":"A#4","midi":70,"time":439.7330729166744,"velocity":0.8031496062992126,"duration":0.22395833333331439},{"name":"D#4","midi":63,"time":439.7330729166744,"velocity":0.8031496062992126,"duration":1.8138020833332575},{"name":"D5","midi":74,"time":439.96093750000773,"velocity":0.8031496062992126,"duration":0.22395833333331439},{"name":"G3","midi":55,"time":440.18750000000773,"velocity":0.8031496062992126,"duration":0.11067708333331439},{"name":"C5","midi":72,"time":440.18750000000773,"velocity":0.8031496062992126,"duration":0.22395833333331439},{"name":"A3","midi":57,"time":440.30078125000773,"velocity":0.8031496062992126,"duration":0.11067708333331439},{"name":"G3","midi":55,"time":440.41406250000773,"velocity":0.8031496062992126,"duration":0.11067708333331439},{"name":"A#4","midi":70,"time":440.41406250000773,"velocity":0.8031496062992126,"duration":0.22395833333331439},{"name":"A3","midi":57,"time":440.52864583334105,"velocity":0.8031496062992126,"duration":0.11067708333331439},{"name":"A#3","midi":58,"time":440.64192708334105,"velocity":0.8031496062992126,"duration":0.11067708333331439},{"name":"C5","midi":72,"time":440.64192708334105,"velocity":0.8031496062992126,"duration":0.22395833333331439},{"name":"A3","midi":57,"time":440.75520833334105,"velocity":0.8031496062992126,"duration":0.11067708333331439},{"name":"A#3","midi":58,"time":440.86848958334105,"velocity":0.8031496062992126,"duration":0.11067708333331439},{"name":"A4","midi":69,"time":440.86848958334105,"velocity":0.8031496062992126,"duration":0.22395833333331439},{"name":"A3","midi":57,"time":440.98177083334105,"velocity":0.8031496062992126,"duration":0.11067708333331439},{"name":"A#3","midi":58,"time":441.09635416667436,"velocity":0.8031496062992126,"duration":0.11067708333331439},{"name":"A#4","midi":70,"time":441.09635416667436,"velocity":0.8031496062992126,"duration":0.22395833333331439},{"name":"A3","midi":57,"time":441.20963541667436,"velocity":0.8031496062992126,"duration":0.11067708333331439},{"name":"G3","midi":55,"time":441.32291666667436,"velocity":0.8031496062992126,"duration":0.11067708333331439},{"name":"C5","midi":72,"time":441.32291666667436,"velocity":0.8031496062992126,"duration":0.22395833333331439},{"name":"A3","midi":57,"time":441.43619791667436,"velocity":0.8031496062992126,"duration":0.11067708333331439},{"name":"A#3","midi":58,"time":441.54947916667436,"velocity":0.8031496062992126,"duration":0.4518229166666856},{"name":"D4","midi":62,"time":441.54947916667436,"velocity":0.8031496062992126,"duration":0.44921875},{"name":"F4","midi":65,"time":441.54947916667436,"velocity":0.8031496062992126,"duration":0.22395833333331439},{"name":"F4","midi":65,"time":441.7773437500077,"velocity":0.8031496062992126,"duration":0.11067708333331439},{"name":"G4","midi":67,"time":441.8906250000077,"velocity":0.8031496062992126,"duration":0.11067708333337123},{"name":"A#2","midi":46,"time":442.00390625000773,"velocity":0.8031496062992126,"duration":0.44921875},{"name":"A4","midi":69,"time":442.00390625000773,"velocity":0.8031496062992126,"duration":0.11067708333331439},{"name":"G4","midi":67,"time":442.11848958334105,"velocity":0.8031496062992126,"duration":0.11067708333331439},{"name":"F4","midi":65,"time":442.23177083334105,"velocity":0.8031496062992126,"duration":0.11067708333331439},{"name":"G4","midi":67,"time":442.34505208334105,"velocity":0.8031496062992126,"duration":0.11067708333337123},{"name":"A4","midi":69,"time":442.4583333333411,"velocity":0.8031496062992126,"duration":0.22395833333331439},{"name":"F3","midi":53,"time":442.6861979166744,"velocity":0.8031496062992126,"duration":0.11067708333331439},{"name":"A4","midi":69,"time":442.6861979166744,"velocity":0.8031496062992126,"duration":0.11067708333331439},{"name":"G3","midi":55,"time":442.7994791666744,"velocity":0.8031496062992126,"duration":0.11067708333331439},{"name":"A#4","midi":70,"time":442.7994791666744,"velocity":0.8031496062992126,"duration":0.11067708333331439},{"name":"A3","midi":57,"time":442.9127604166744,"velocity":0.8031496062992126,"duration":0.11067708333331439},{"name":"C5","midi":72,"time":442.9127604166744,"velocity":0.8031496062992126,"duration":0.11067708333331439},{"name":"G3","midi":55,"time":443.0260416666744,"velocity":0.8031496062992126,"duration":0.11067708333331439},{"name":"A#4","midi":70,"time":443.0260416666744,"velocity":0.8031496062992126,"duration":0.11067708333331439},{"name":"F3","midi":53,"time":443.1393229166744,"velocity":0.8031496062992126,"duration":0.11067708333331439},{"name":"A4","midi":69,"time":443.1393229166744,"velocity":0.8031496062992126,"duration":0.11067708333331439},{"name":"G3","midi":55,"time":443.25390625000773,"velocity":0.8031496062992126,"duration":0.11067708333331439},{"name":"A#4","midi":70,"time":443.25390625000773,"velocity":0.8031496062992126,"duration":0.11067708333331439},{"name":"A3","midi":57,"time":443.36718750000773,"velocity":0.8031496062992126,"duration":0.13932291666668561},{"name":"C5","midi":72,"time":443.36718750000773,"velocity":0.8031496062992126,"duration":0.13932291666668561},{"name":"G3","midi":55,"time":443.5182291666744,"velocity":0.8031496062992126,"duration":0.13932291666668561},{"name":"A#4","midi":70,"time":443.5182291666744,"velocity":0.8031496062992126,"duration":0.13932291666668561},{"name":"A3","midi":57,"time":443.6692708333411,"velocity":0.8031496062992126,"duration":0.13932291666668561},{"name":"C5","midi":72,"time":443.6692708333411,"velocity":0.8031496062992126,"duration":0.13932291666668561},{"name":"A#3","midi":58,"time":443.8216145833411,"velocity":0.8031496062992126,"duration":0.13932291666668561},{"name":"D5","midi":74,"time":443.8216145833411,"velocity":0.8031496062992126,"duration":0.13932291666668561},{"name":"A3","midi":57,"time":443.9726562500078,"velocity":0.8031496062992126,"duration":0.13932291666668561},{"name":"C5","midi":72,"time":443.9726562500078,"velocity":0.8031496062992126,"duration":0.13932291666668561},{"name":"A#3","midi":58,"time":444.1236979166745,"velocity":0.8031496062992126,"duration":0.13932291666668561},{"name":"D5","midi":74,"time":444.1236979166745,"velocity":0.8031496062992126,"duration":0.13932291666668561},{"name":"C4","midi":60,"time":444.2760416666745,"velocity":0.8031496062992126,"duration":0.13932291666668561},{"name":"E5","midi":76,"time":444.2760416666745,"velocity":0.8031496062992126,"duration":0.13932291666668561},{"name":"A#3","midi":58,"time":444.42708333334116,"velocity":0.8031496062992126,"duration":0.13932291666668561},{"name":"D5","midi":74,"time":444.42708333334116,"velocity":0.8031496062992126,"duration":0.13932291666668561},{"name":"C4","midi":60,"time":444.57812500000784,"velocity":0.8031496062992126,"duration":0.13932291666668561},{"name":"E5","midi":76,"time":444.57812500000784,"velocity":0.8031496062992126,"duration":0.13932291666668561},{"name":"D4","midi":62,"time":444.72916666667453,"velocity":0.8031496062992126,"duration":0.13932291666668561},{"name":"F5","midi":77,"time":444.72916666667453,"velocity":0.8031496062992126,"duration":0.13932291666668561},{"name":"C4","midi":60,"time":444.88151041667453,"velocity":0.8031496062992126,"duration":0.13932291666668561},{"name":"E5","midi":76,"time":444.88151041667453,"velocity":0.8031496062992126,"duration":0.13932291666668561},{"name":"D4","midi":62,"time":445.0325520833412,"velocity":0.8031496062992126,"duration":0.13932291666668561},{"name":"F5","midi":77,"time":445.0325520833412,"velocity":0.8031496062992126,"duration":0.13932291666668561},{"name":"E4","midi":64,"time":445.1835937500079,"velocity":0.8031496062992126,"duration":0.13932291666668561},{"name":"G5","midi":79,"time":445.1835937500079,"velocity":0.8031496062992126,"duration":0.13932291666668561},{"name":"D4","midi":62,"time":445.3346354166746,"velocity":0.8031496062992126,"duration":0.13932291666668561},{"name":"F5","midi":77,"time":445.3346354166746,"velocity":0.8031496062992126,"duration":0.13932291666668561},{"name":"E4","midi":64,"time":445.4869791666746,"velocity":0.8031496062992126,"duration":0.13932291666668561},{"name":"G5","midi":79,"time":445.4869791666746,"velocity":0.8031496062992126,"duration":0.13932291666668561},{"name":"F4","midi":65,"time":445.6380208333413,"velocity":0.8031496062992126,"duration":0.66015625},{"name":"A5","midi":81,"time":445.6380208333413,"velocity":0.8031496062992126,"duration":0.66015625},{"name":"A3","midi":57,"time":445.8645833333413,"velocity":0.8031496062992126,"duration":0.22395833333331439},{"name":"C5","midi":72,"time":445.8645833333413,"velocity":0.8031496062992126,"duration":0.22395833333331439},{"name":"A#3","midi":58,"time":446.0924479166746,"velocity":0.8031496062992126,"duration":0.8984375000000568},{"name":"D5","midi":74,"time":446.0924479166746,"velocity":0.8031496062992126,"duration":0.8919270833333712},{"name":"F4","midi":65,"time":446.3177083333413,"velocity":0.8031496062992126,"duration":0.22395833333331439},{"name":"A5","midi":81,"time":446.3177083333413,"velocity":0.8031496062992126,"duration":0.22395833333331439},{"name":"A#4","midi":70,"time":446.5442708333413,"velocity":0.8031496062992126,"duration":0.22265625},{"name":"G5","midi":79,"time":446.5442708333413,"velocity":0.8031496062992126,"duration":0.09765625},{"name":"A5","midi":81,"time":446.6380208333413,"velocity":0.8031496062992126,"duration":0.09765625},{"name":"G5","midi":79,"time":446.7317708333413,"velocity":0.8031496062992126,"duration":0.09765625},{"name":"A4","midi":69,"time":446.76953125000796,"velocity":0.8031496062992126,"duration":0.22265625},{"name":"F5","midi":77,"time":446.82421875000796,"velocity":0.8031496062992126,"duration":0.16015625},{"name":"C4","midi":60,"time":446.9934895833413,"velocity":0.8031496062992126,"duration":1.1328125},{"name":"G4","midi":67,"time":446.9934895833413,"velocity":0.8031496062992126,"duration":0.22395833333331439},{"name":"E5","midi":76,"time":446.9934895833413,"velocity":0.8031496062992126,"duration":0.22395833333331439},{"name":"C5","midi":72,"time":446.9934895833413,"velocity":0.8031496062992126,"duration":0.44921875},{"name":"A4","midi":69,"time":447.2213541666746,"velocity":0.8031496062992126,"duration":0.22395833333337123},{"name":"F5","midi":77,"time":447.2213541666746,"velocity":0.8031496062992126,"duration":0.22395833333337123},{"name":"E5","midi":76,"time":447.44791666667464,"velocity":0.8031496062992126,"duration":0.22395833333331439},{"name":"G4","midi":67,"time":447.44791666667464,"velocity":0.8031496062992126,"duration":0.22395833333331439},{"name":"D5","midi":74,"time":447.67578125000796,"velocity":0.8031496062992126,"duration":0.22395833333331439},{"name":"F4","midi":65,"time":447.67578125000796,"velocity":0.8031496062992126,"duration":0.22395833333331439},{"name":"C5","midi":72,"time":447.90234375000796,"velocity":0.8031496062992126,"duration":0.6783854166666856},{"name":"E4","midi":64,"time":447.90234375000796,"velocity":0.8031496062992126,"duration":0.44921875},{"name":"A#3","midi":58,"time":448.1302083333413,"velocity":0.8031496062992126,"duration":0.22395833333337123},{"name":"A3","midi":57,"time":448.35677083334133,"velocity":0.8031496062992126,"duration":0.22395833333331439},{"name":"G3","midi":55,"time":448.58333333334133,"velocity":0.8031496062992126,"duration":0.22395833333331439},{"name":"C5","midi":72,"time":448.58333333334133,"velocity":0.8031496062992126,"duration":0.22395833333331439},{"name":"F3","midi":53,"time":448.81119791667464,"velocity":0.8031496062992126,"duration":0.9075520833333712},{"name":"C#5","midi":73,"time":448.81119791667464,"velocity":0.8031496062992126,"duration":0.2265625},{"name":"C5","midi":72,"time":449.04036458334133,"velocity":0.8031496062992126,"duration":0.2265625},{"name":"G#3","midi":56,"time":449.269531250008,"velocity":0.8031496062992126,"duration":0.9075520833333144},{"name":"B4","midi":71,"time":449.269531250008,"velocity":0.8031496062992126,"duration":0.2265625},{"name":"C5","midi":72,"time":449.4986979166747,"velocity":0.8031496062992126,"duration":0.45312499999994316},{"name":"D3","midi":50,"time":449.72786458334133,"velocity":0.8031496062992126,"duration":0.9075520833333712},{"name":"F4","midi":65,"time":449.72786458334133,"velocity":0.8031496062992126,"duration":0.2265625},{"name":"C5","midi":72,"time":449.957031250008,"velocity":0.8031496062992126,"duration":0.2265625},{"name":"F3","midi":53,"time":450.187500000008,"velocity":0.8031496062992126,"duration":0.9075520833333712},{"name":"B4","midi":71,"time":450.187500000008,"velocity":0.8031496062992126,"duration":0.2265625},{"name":"C5","midi":72,"time":450.4166666666747,"velocity":0.8031496062992126,"duration":0.2265625},{"name":"B2","midi":47,"time":450.6458333333414,"velocity":0.8031496062992126,"duration":0.9075520833333712},{"name":"D5","midi":74,"time":450.6458333333414,"velocity":0.8031496062992126,"duration":0.2265625},{"name":"C5","midi":72,"time":450.8750000000081,"velocity":0.8031496062992126,"duration":0.2265625},{"name":"D3","midi":50,"time":451.10416666667476,"velocity":0.8031496062992126,"duration":0.9075520833333144},{"name":"B4","midi":71,"time":451.10416666667476,"velocity":0.8031496062992126,"duration":0.2265625},{"name":"C5","midi":72,"time":451.33333333334144,"velocity":0.8031496062992126,"duration":0.45312499999994316},{"name":"G2","midi":43,"time":451.5625000000081,"velocity":0.8031496062992126,"duration":0.9075520833333712},{"name":"F4","midi":65,"time":451.5625000000081,"velocity":0.8031496062992126,"duration":0.2265625},{"name":"G#4","midi":68,"time":451.79166666667476,"velocity":0.8031496062992126,"duration":0.2265625},{"name":"B2","midi":47,"time":452.02213541667476,"velocity":0.8031496062992126,"duration":0.4557291666666856},{"name":"G4","midi":67,"time":452.02213541667476,"velocity":0.8031496062992126,"duration":0.2265625},{"name":"F4","midi":65,"time":452.25130208334144,"velocity":0.8031496062992126,"duration":0.2265625},{"name":"E2","midi":40,"time":452.48046875000813,"velocity":0.8031496062992126,"duration":0.9075520833333712},{"name":"A#4","midi":70,"time":452.48046875000813,"velocity":0.8031496062992126,"duration":0.453125},{"name":"C#5","midi":73,"time":452.7096354166748,"velocity":0.8031496062992126,"duration":0.2265625},{"name":"A#4","midi":70,"time":452.9388020833415,"velocity":0.8031496062992126,"duration":0.6692708333333712},{"name":"G4","midi":67,"time":453.1679687500082,"velocity":0.8031496062992126,"duration":0.2265625},{"name":"E4","midi":64,"time":453.39713541667487,"velocity":0.8031496062992126,"duration":0.22916666666668561},{"name":"A#3","midi":58,"time":453.62890625000824,"velocity":0.8031496062992126,"duration":0.2265625},{"name":"G4","midi":67,"time":453.62890625000824,"velocity":0.8031496062992126,"duration":0.2265625},{"name":"A3","midi":57,"time":453.8580729166749,"velocity":0.8031496062992126,"duration":0.2265625},{"name":"C5","midi":72,"time":453.8580729166749,"velocity":0.8031496062992126,"duration":0.2265625},{"name":"G3","midi":55,"time":454.0872395833416,"velocity":0.8031496062992126,"duration":0.2265625},{"name":"A#4","midi":70,"time":454.0872395833416,"velocity":0.8031496062992126,"duration":0.2265625},{"name":"F3","midi":53,"time":454.3177083333416,"velocity":0.8031496062992126,"duration":0.23567708333331439},{"name":"A4","midi":69,"time":454.3177083333416,"velocity":0.8031496062992126,"duration":0.6940104166666856},{"name":"A3","midi":57,"time":454.5559895833416,"velocity":0.8031496062992126,"duration":0.23567708333331439},{"name":"C5","midi":72,"time":454.5559895833416,"velocity":0.8031496062992126,"duration":0.23567708333331439},{"name":"D4","midi":62,"time":454.7942708333416,"velocity":0.8031496062992126,"duration":0.23567708333337123},{"name":"F5","midi":77,"time":454.7942708333416,"velocity":0.8031496062992126,"duration":0.7057291666666856},{"name":"A#3","midi":58,"time":455.03255208334167,"velocity":0.8031496062992126,"duration":0.23567708333331439},{"name":"A4","midi":69,"time":455.03255208334167,"velocity":0.8031496062992126,"duration":0.23567708333331439},{"name":"C4","midi":60,"time":455.2695312500083,"velocity":0.8031496062992126,"duration":0.49609375},{"name":"G4","midi":67,"time":455.2695312500083,"velocity":0.8031496062992126,"duration":0.4934895833333144},{"name":"F5","midi":77,"time":455.5195312500083,"velocity":0.8031496062992126,"duration":0.4934895833333144},{"name":"C3","midi":48,"time":455.7695312500083,"velocity":0.8031496062992126,"duration":0.49609374999994316},{"name":"A#4","midi":70,"time":455.7695312500083,"velocity":0.8031496062992126,"duration":0.4934895833333144},{"name":"E5","midi":76,"time":456.0182291666749,"velocity":0.8031496062992126,"duration":0.24609375},{"name":"F3","midi":53,"time":456.2682291666749,"velocity":0.8031496062992126,"duration":1.4739583333332575},{"name":"F5","midi":77,"time":456.2682291666749,"velocity":0.8031496062992126,"duration":4.947916666666572},{"name":"C5","midi":72,"time":456.2682291666749,"velocity":0.8031496062992126,"duration":4.947916666666572},{"name":"A4","midi":69,"time":456.2682291666749,"velocity":0.8031496062992126,"duration":4.947916666666572},{"name":"F2","midi":41,"time":456.63671875000824,"velocity":0.8031496062992126,"duration":1.6757812499999432},{"name":"A2","midi":45,"time":457.0065104166749,"velocity":0.8031496062992126,"duration":0.3177083333333144},{"name":"C3","midi":48,"time":457.37630208334156,"velocity":0.8031496062992126,"duration":0.3177083333333144},{"name":"F3","midi":53,"time":457.74869791667487,"velocity":0.8031496062992126,"duration":2.6041666666666288},{"name":"F5","midi":77,"time":461.3398437500082,"velocity":0.8031496062992126,"duration":0.21744791666668561},{"name":"F3","midi":53,"time":461.56119791667487,"velocity":0.8031496062992126,"duration":0.21744791666668561},{"name":"F5","midi":77,"time":461.56119791667487,"velocity":0.8031496062992126,"duration":0.6184895833334281},{"name":"G3","midi":55,"time":461.78125000000824,"velocity":0.8031496062992126,"duration":0.21744791666668561},{"name":"A3","midi":57,"time":462.0013020833416,"velocity":0.8031496062992126,"duration":0.43750000000005684},{"name":"C5","midi":72,"time":462.221354166675,"velocity":0.8031496062992126,"duration":0.21744791666668561},{"name":"A#3","midi":58,"time":462.44270833334167,"velocity":0.8031496062992126,"duration":0.4375},{"name":"D5","midi":74,"time":462.44270833334167,"velocity":0.8031496062992126,"duration":0.6184895833333712},{"name":"C4","midi":60,"time":462.88281250000836,"velocity":0.8031496062992126,"duration":0.4375},{"name":"F5","midi":77,"time":463.10416666667504,"velocity":0.8031496062992126,"duration":0.21744791666662877},{"name":"D4","midi":62,"time":463.32421875000836,"velocity":0.8031496062992126,"duration":0.4375},{"name":"C5","midi":72,"time":463.32421875000836,"velocity":0.8031496062992126,"duration":0.4375},{"name":"E4","midi":64,"time":463.76432291667504,"velocity":0.8031496062992126,"duration":0.43359375},{"name":"C5","midi":72,"time":463.76432291667504,"velocity":0.8031496062992126,"duration":0.10677083333331439},{"name":"A#4","midi":70,"time":463.87369791667504,"velocity":0.8031496062992126,"duration":0.10677083333331439},{"name":"A4","midi":69,"time":463.98307291667504,"velocity":0.8031496062992126,"duration":0.10677083333331439},{"name":"A#4","midi":70,"time":464.09244791667504,"velocity":0.8031496062992126,"duration":0.10677083333331439},{"name":"F4","midi":65,"time":464.20182291667504,"velocity":0.8031496062992126,"duration":0.6184895833334281},{"name":"A4","midi":69,"time":464.20182291667504,"velocity":0.8031496062992126,"duration":0.21744791666668561},{"name":"C5","midi":72,"time":464.4218750000084,"velocity":0.8031496062992126,"duration":0.21744791666668561},{"name":"D5","midi":74,"time":464.6419270833418,"velocity":0.8031496062992126,"duration":0.21484375},{"name":"C4","midi":60,"time":464.8606770833418,"velocity":0.8031496062992126,"duration":0.21744791666668561},{"name":"E5","midi":76,"time":464.8606770833418,"velocity":0.8031496062992126,"duration":0.21744791666668561},{"name":"D4","midi":62,"time":465.08072916667516,"velocity":0.8031496062992126,"duration":0.6184895833333712},{"name":"F5","midi":77,"time":465.08072916667516,"velocity":0.8031496062992126,"duration":0.21744791666668561},{"name":"A5","midi":81,"time":465.3007812500085,"velocity":0.8031496062992126,"duration":0.21744791666668561},{"name":"G5","midi":79,"time":465.5221354166752,"velocity":0.8031496062992126,"duration":0.21484375},{"name":"F4","midi":65,"time":465.7395833333419,"velocity":0.8031496062992126,"duration":0.21744791666668561},{"name":"A5","midi":81,"time":465.7395833333419,"velocity":0.8031496062992126,"duration":0.21744791666668561},{"name":"C4","midi":60,"time":465.95963541667527,"velocity":0.8031496062992126,"duration":0.4375},{"name":"A#5","midi":82,"time":465.95963541667527,"velocity":0.8031496062992126,"duration":0.21744791666668561},{"name":"A5","midi":81,"time":466.18098958334195,"velocity":0.8031496062992126,"duration":0.21744791666662877},{"name":"C4","midi":60,"time":466.40104166667527,"velocity":0.8031496062992126,"duration":0.10677083333331439},{"name":"G5","midi":79,"time":466.40104166667527,"velocity":0.8031496062992126,"duration":0.21484375},{"name":"A#3","midi":58,"time":466.51041666667527,"velocity":0.8031496062992126,"duration":0.10677083333331439},{"name":"A3","midi":57,"time":466.61979166667527,"velocity":0.8031496062992126,"duration":0.10677083333331439},{"name":"F5","midi":77,"time":466.61979166667527,"velocity":0.8031496062992126,"duration":0.21484374999994316},{"name":"A#3","midi":58,"time":466.7278645833419,"velocity":0.8031496062992126,"duration":0.10677083333331439},{"name":"A3","midi":57,"time":466.8372395833419,"velocity":0.8031496062992126,"duration":0.21744791666668561},{"name":"C6","midi":84,"time":466.8372395833419,"velocity":0.8031496062992126,"duration":0.4375},{"name":"F3","midi":53,"time":467.0585937500086,"velocity":0.8031496062992126,"duration":0.21744791666662877},{"name":"G3","midi":55,"time":467.2786458333419,"velocity":0.8031496062992126,"duration":0.21744791666668561},{"name":"C5","midi":72,"time":467.2786458333419,"velocity":0.8031496062992126,"duration":0.43750000000005684},{"name":"A3","midi":57,"time":467.49869791667527,"velocity":0.8031496062992126,"duration":0.21744791666668561},{"name":"A#3","midi":58,"time":467.71875000000864,"velocity":0.8031496062992126,"duration":0.21744791666668561},{"name":"D5","midi":74,"time":467.71875000000864,"velocity":0.8031496062992126,"duration":0.6184895833333712},{"name":"C4","midi":60,"time":467.9401041666753,"velocity":0.8031496062992126,"duration":0.21744791666668561},{"name":"A3","midi":57,"time":468.1601562500087,"velocity":0.8031496062992126,"duration":0.21484375},{"name":"A#3","midi":58,"time":468.3789062500087,"velocity":0.8031496062992126,"duration":0.21744791666668561},{"name":"A#5","midi":82,"time":468.3789062500087,"velocity":0.8031496062992126,"duration":0.21744791666668561},{"name":"C4","midi":60,"time":468.59895833334207,"velocity":0.8031496062992126,"duration":0.21744791666668561},{"name":"A5","midi":81,"time":468.59895833334207,"velocity":0.8031496062992126,"duration":0.43750000000005684},{"name":"B3","midi":59,"time":468.81901041667544,"velocity":0.8031496062992126,"duration":0.21744791666668561},{"name":"A3","midi":57,"time":469.0390625000088,"velocity":0.8031496062992126,"duration":0.21484375},{"name":"A5","midi":81,"time":469.0390625000088,"velocity":0.8031496062992126,"duration":0.10677083333331439},{"name":"G5","midi":79,"time":469.1484375000088,"velocity":0.8031496062992126,"duration":0.10677083333331439},{"name":"G3","midi":55,"time":469.2578125000088,"velocity":0.8031496062992126,"duration":0.21744791666668561},{"name":"F5","midi":77,"time":469.2578125000088,"velocity":0.8031496062992126,"duration":0.21744791666668561},{"name":"C4","midi":60,"time":469.4778645833422,"velocity":0.8031496062992126,"duration":0.21484375},{"name":"F5","midi":77,"time":469.4778645833422,"velocity":0.8031496062992126,"duration":0.18229166666668561},{"name":"E5","midi":76,"time":469.66015625000887,"velocity":0.8031496062992126,"duration":0.09505208333331439},{"name":"B3","midi":59,"time":469.6966145833422,"velocity":0.8031496062992126,"duration":0.21744791666668561},{"name":"F5","midi":77,"time":469.7526041666755,"velocity":0.8031496062992126,"duration":0.09505208333337123},{"name":"E5","midi":76,"time":469.84375000000887,"velocity":0.8031496062992126,"duration":0.09505208333337123},{"name":"C4","midi":60,"time":469.91666666667555,"velocity":0.8031496062992126,"duration":0.21484375},{"name":"F5","midi":77,"time":469.93489583334224,"velocity":0.8031496062992126,"duration":0.09505208333331439},{"name":"E5","midi":76,"time":470.02604166667555,"velocity":0.8031496062992126,"duration":0.10677083333331439},{"name":"D4","midi":62,"time":470.13541666667555,"velocity":0.8031496062992126,"duration":0.21744791666668561},{"name":"F5","midi":77,"time":470.13541666667555,"velocity":0.8031496062992126,"duration":0.21744791666668561},{"name":"E4","midi":64,"time":470.3554687500089,"velocity":0.8031496062992126,"duration":0.21744791666668561},{"name":"G5","midi":79,"time":470.3554687500089,"velocity":0.8031496062992126,"duration":0.43750000000005684},{"name":"G4","midi":67,"time":470.5755208333423,"velocity":0.8031496062992126,"duration":0.21744791666668561},{"name":"F4","midi":65,"time":470.796875000009,"velocity":0.8031496062992126,"duration":0.21744791666668561},{"name":"A5","midi":81,"time":470.796875000009,"velocity":0.8031496062992126,"duration":0.21744791666668561},{"name":"G4","midi":67,"time":471.01692708334235,"velocity":0.8031496062992126,"duration":0.21744791666668561},{"name":"A#5","midi":82,"time":471.01692708334235,"velocity":0.8031496062992126,"duration":0.21744791666668561},{"name":"C#4","midi":61,"time":471.2369791666757,"velocity":0.8031496062992126,"duration":0.43750000000005684},{"name":"A5","midi":81,"time":471.2369791666757,"velocity":0.8031496062992126,"duration":0.21744791666668561},{"name":"G5","midi":79,"time":471.4570312500091,"velocity":0.8031496062992126,"duration":0.21744791666668561},{"name":"A3","midi":57,"time":471.6783854166758,"velocity":0.8031496062992126,"duration":0.43750000000005684},{"name":"F5","midi":77,"time":471.6783854166758,"velocity":0.8031496062992126,"duration":0.21744791666668561},{"name":"E5","midi":76,"time":471.89843750000915,"velocity":0.8031496062992126,"duration":0.21744791666668561},{"name":"D4","midi":62,"time":472.1184895833425,"velocity":0.8031496062992126,"duration":0.4361979166666856},{"name":"F5","midi":77,"time":472.1184895833425,"velocity":0.8031496062992126,"duration":0.10677083333331439},{"name":"E5","midi":76,"time":472.2278645833425,"velocity":0.8031496062992126,"duration":0.10677083333331439},{"name":"F5","midi":77,"time":472.3372395833425,"velocity":0.8031496062992126,"duration":0.43750000000005684},{"name":"D3","midi":50,"time":472.5572916666759,"velocity":0.8031496062992126,"duration":0.21744791666668561},{"name":"E3","midi":52,"time":472.77734375000927,"velocity":0.8031496062992126,"duration":0.21744791666668561},{"name":"E5","midi":76,"time":472.77734375000927,"velocity":0.8031496062992126,"duration":0.21744791666668561},{"name":"F3","midi":53,"time":472.99869791667595,"velocity":0.8031496062992126,"duration":0.21744791666668561},{"name":"D5","midi":74,"time":472.99869791667595,"velocity":0.8031496062992126,"duration":0.43750000000005684},{"name":"G3","midi":55,"time":473.2187500000093,"velocity":0.8031496062992126,"duration":0.21744791666668561},{"name":"E3","midi":52,"time":473.4388020833427,"velocity":0.8031496062992126,"duration":0.21744791666668561},{"name":"C5","midi":72,"time":473.4388020833427,"velocity":0.8031496062992126,"duration":0.21744791666668561},{"name":"F3","midi":53,"time":473.6601562500094,"velocity":0.8031496062992126,"duration":0.21744791666668561},{"name":"B4","midi":71,"time":473.6601562500094,"velocity":0.8031496062992126,"duration":0.21744791666668561},{"name":"G3","midi":55,"time":473.88020833334275,"velocity":0.8031496062992126,"duration":0.21484375},{"name":"C5","midi":72,"time":473.88020833334275,"velocity":0.8031496062992126,"duration":0.10677083333331439},{"name":"B4","midi":71,"time":473.98958333334275,"velocity":0.8031496062992126,"duration":0.10677083333331439},{"name":"F#3","midi":54,"time":474.09895833334275,"velocity":0.8031496062992126,"duration":0.21744791666668561},{"name":"C5","midi":72,"time":474.09895833334275,"velocity":0.8031496062992126,"duration":0.43750000000005684},{"name":"E3","midi":52,"time":474.3190104166761,"velocity":0.8031496062992126,"duration":0.21744791666668561},{"name":"D3","midi":50,"time":474.5390625000095,"velocity":0.8031496062992126,"duration":0.21744791666668561},{"name":"D5","midi":74,"time":474.5390625000095,"velocity":0.8031496062992126,"duration":0.21744791666668561},{"name":"G3","midi":55,"time":474.75911458334286,"velocity":0.8031496062992126,"duration":0.21484375},{"name":"C5","midi":72,"time":474.75911458334286,"velocity":0.8031496062992126,"duration":0.18229166666668561},{"name":"B4","midi":71,"time":474.94270833334286,"velocity":0.8031496062992126,"duration":0.10677083333331439},{"name":"A3","midi":57,"time":474.97786458334286,"velocity":0.8031496062992126,"duration":0.21744791666662877},{"name":"C5","midi":72,"time":475.0338541666762,"velocity":0.8031496062992126,"duration":0.10677083333331439},{"name":"B4","midi":71,"time":475.1250000000095,"velocity":0.8031496062992126,"duration":0.10677083333337123},{"name":"G3","midi":55,"time":475.1979166666762,"velocity":0.8031496062992126,"duration":0.21484375},{"name":"C5","midi":72,"time":475.21614583334286,"velocity":0.8031496062992126,"duration":0.10677083333331439},{"name":"B4","midi":71,"time":475.3072916666762,"velocity":0.8031496062992126,"duration":0.10677083333331439},{"name":"F3","midi":53,"time":475.4166666666762,"velocity":0.8031496062992126,"duration":0.21744791666668561},{"name":"A4","midi":69,"time":475.4166666666762,"velocity":0.8031496062992126,"duration":0.21744791666668561},{"name":"E3","midi":52,"time":475.63671875000955,"velocity":0.8031496062992126,"duration":0.21744791666668561},{"name":"G4","midi":67,"time":475.63671875000955,"velocity":0.8031496062992126,"duration":0.5742187500000568},{"name":"G3","midi":55,"time":475.8567708333429,"velocity":0.8031496062992126,"duration":0.21744791666668561},{"name":"F3","midi":53,"time":476.0781250000096,"velocity":0.8031496062992126,"duration":0.21744791666668561},{"name":"E3","midi":52,"time":476.298177083343,"velocity":0.8031496062992126,"duration":0.21744791666668561},{"name":"G5","midi":79,"time":476.298177083343,"velocity":0.8031496062992126,"duration":0.21744791666668561},{"name":"D3","midi":50,"time":476.51822916667635,"velocity":0.8031496062992126,"duration":0.21744791666668561},{"name":"F5","midi":77,"time":476.51822916667635,"velocity":0.8031496062992126,"duration":0.21744791666668561},{"name":"C3","midi":48,"time":476.73958333334303,"velocity":0.8031496062992126,"duration":0.21744791666668561},{"name":"E5","midi":76,"time":476.73958333334303,"velocity":0.8031496062992126,"duration":0.21744791666668561},{"name":"C4","midi":60,"time":476.9596354166764,"velocity":0.8031496062992126,"duration":0.43750000000005684},{"name":"D5","midi":74,"time":476.9596354166764,"velocity":0.8031496062992126,"duration":0.21744791666668561},{"name":"C5","midi":72,"time":477.1796875000098,"velocity":0.8031496062992126,"duration":0.21744791666668561},{"name":"F3","midi":53,"time":477.39973958334315,"velocity":0.8031496062992126,"duration":0.21744791666668561},{"name":"A5","midi":81,"time":477.39973958334315,"velocity":0.8031496062992126,"duration":0.6184895833333712},{"name":"E3","midi":52,"time":477.62109375000983,"velocity":0.8031496062992126,"duration":0.21744791666668561},{"name":"D3","midi":50,"time":477.8411458333432,"velocity":0.8031496062992126,"duration":0.21484375},{"name":"C3","midi":48,"time":478.0598958333432,"velocity":0.8031496062992126,"duration":0.21744791666668561},{"name":"E5","midi":76,"time":478.0598958333432,"velocity":0.8031496062992126,"duration":0.21744791666668561},{"name":"B2","midi":47,"time":478.2799479166766,"velocity":0.8031496062992126,"duration":0.21744791666668561},{"name":"F5","midi":77,"time":478.2799479166766,"velocity":0.8031496062992126,"duration":0.6184895833334281},{"name":"G2","midi":43,"time":478.50000000000995,"velocity":0.8031496062992126,"duration":0.21744791666668561},{"name":"C3","midi":48,"time":478.7200520833433,"velocity":0.8031496062992126,"duration":0.4375},{"name":"G5","midi":79,"time":478.94140625001,"velocity":0.8031496062992126,"duration":0.21744791666662877},{"name":"G3","midi":55,"time":479.1614583333433,"velocity":0.8031496062992126,"duration":0.43619791666674246},{"name":"E5","midi":76,"time":479.1614583333433,"velocity":0.8031496062992126,"duration":0.16015625},{"name":"D5","midi":74,"time":479.3177083333433,"velocity":0.8031496062992126,"duration":0.10677083333337123},{"name":"E5","midi":76,"time":479.41796875001,"velocity":0.8031496062992126,"duration":0.10677083333337123},{"name":"D5","midi":74,"time":479.5182291666767,"velocity":0.8031496062992126,"duration":0.10677083333342807},{"name":"G2","midi":43,"time":479.60026041667675,"velocity":0.8031496062992126,"duration":0.43619791666674246},{"name":"E5","midi":76,"time":479.61848958334343,"velocity":0.8031496062992126,"duration":0.10677083333337123},{"name":"D5","midi":74,"time":479.7187500000101,"velocity":0.8031496062992126,"duration":0.10677083333337123},{"name":"C5","midi":72,"time":479.8190104166768,"velocity":0.8031496062992126,"duration":0.21744791666668561},{"name":"C3","midi":48,"time":480.0390625000102,"velocity":0.8031496062992126,"duration":1.3203125},{"name":"C5","midi":72,"time":480.0390625000102,"velocity":0.8031496062992126,"duration":2.2018229166666856},{"name":"C2","midi":36,"time":480.47916666667686,"velocity":0.8031496062992126,"duration":2.2018229166666288},{"name":"G2","midi":43,"time":480.92057291667686,"velocity":0.8031496062992126,"duration":0.4375},{"name":"C3","midi":48,"time":481.36197916667686,"velocity":0.8031496062992126,"duration":1.3177083333333144},{"name":"E4","midi":64,"time":481.36197916667686,"velocity":0.8031496062992126,"duration":1.09765625},{"name":"G4","midi":67,"time":481.36197916667686,"velocity":0.8031496062992126,"duration":1.09765625},{"name":"G4","midi":67,"time":482.4609375000102,"velocity":0.8031496062992126,"duration":0.21744791666668561},{"name":"C3","midi":48,"time":482.6822916666768,"velocity":0.8031496062992126,"duration":2.6354166666666856},{"name":"G4","midi":67,"time":482.6822916666768,"velocity":0.8031496062992126,"duration":0.6588541666666856},{"name":"D3","midi":50,"time":483.1223958333435,"velocity":0.8031496062992126,"duration":0.4375},{"name":"C5","midi":72,"time":483.3424479166768,"velocity":0.8031496062992126,"duration":0.21744791666668561},{"name":"E3","midi":52,"time":483.5638020833435,"velocity":0.8031496062992126,"duration":0.4361979166666856},{"name":"C5","midi":72,"time":483.5638020833435,"velocity":0.8031496062992126,"duration":0.16666666666668561},{"name":"A#4","midi":70,"time":483.7304687500102,"velocity":0.8031496062992126,"duration":0.10677083333331439},{"name":"C5","midi":72,"time":483.8281250000102,"velocity":0.8031496062992126,"duration":0.10677083333331439},{"name":"A#4","midi":70,"time":483.9257812500102,"velocity":0.8031496062992126,"duration":0.10677083333337123},{"name":"F3","midi":53,"time":484.00260416667686,"velocity":0.8031496062992126,"duration":0.43619791666662877},{"name":"C5","midi":72,"time":484.02473958334355,"velocity":0.8031496062992126,"duration":0.10677083333331439},{"name":"A#4","midi":70,"time":484.12239583334355,"velocity":0.8031496062992126,"duration":0.10677083333331439},{"name":"A4","midi":69,"time":484.22005208334355,"velocity":0.8031496062992126,"duration":0.21744791666662877},{"name":"G3","midi":55,"time":484.4401041666768,"velocity":0.8031496062992126,"duration":0.4375},{"name":"A#4","midi":70,"time":484.4401041666768,"velocity":0.8031496062992126,"duration":0.21744791666668561},{"name":"D5","midi":74,"time":484.6614583333435,"velocity":0.8031496062992126,"duration":0.21744791666662877},{"name":"E3","midi":52,"time":484.8815104166768,"velocity":0.8031496062992126,"duration":0.4375},{"name":"C5","midi":72,"time":484.8815104166768,"velocity":0.8031496062992126,"duration":0.4375},{"name":"F3","midi":53,"time":485.3229166666768,"velocity":0.8031496062992126,"duration":2.6354166666670267},{"name":"A4","midi":69,"time":485.3229166666768,"velocity":0.8031496062992126,"duration":0.21744791666668561},{"name":"C5","midi":72,"time":485.5429687500102,"velocity":0.8031496062992126,"duration":0.21744791666668561},{"name":"D5","midi":74,"time":485.76302083334355,"velocity":0.8031496062992126,"duration":0.21744791666668561},{"name":"F4","midi":65,"time":485.98437500001023,"velocity":0.8031496062992126,"duration":0.21744791666668561},{"name":"D#5","midi":75,"time":485.98437500001023,"velocity":0.8031496062992126,"duration":0.21744791666668561},{"name":"F4","midi":65,"time":486.2044270833436,"velocity":0.8031496062992126,"duration":0.15755208333337123},{"name":"F5","midi":77,"time":486.2044270833436,"velocity":0.8031496062992126,"duration":0.21744791666668561},{"name":"D#4","midi":63,"time":486.3515625000103,"velocity":0.8031496062992126,"duration":0.10677083333337123},{"name":"A4","midi":69,"time":486.424479166677,"velocity":0.8031496062992126,"duration":0.21484375000005684},{"name":"F4","midi":65,"time":486.459635416677,"velocity":0.8031496062992126,"duration":0.10677083333337123},{"name":"D#4","midi":63,"time":486.55989583334366,"velocity":0.8031496062992126,"duration":0.10677083333337123},{"name":"A#4","midi":70,"time":486.64322916667703,"velocity":0.8031496062992126,"duration":0.21484375},{"name":"F4","midi":65,"time":486.66015625001035,"velocity":0.8031496062992126,"duration":0.10677083333337123},{"name":"D#4","midi":63,"time":486.76041666667703,"velocity":0.8031496062992126,"duration":0.10677083333337123},{"name":"D4","midi":62,"time":486.8606770833437,"velocity":0.8031496062992126,"duration":0.21744791666668561},{"name":"G5","midi":79,"time":486.8606770833437,"velocity":0.8031496062992126,"duration":0.21744791666668561},{"name":"D#4","midi":63,"time":487.0820312500104,"velocity":0.8031496062992126,"duration":0.21744791666668561},{"name":"C5","midi":72,"time":487.0820312500104,"velocity":0.8031496062992126,"duration":0.21744791666668561},{"name":"G4","midi":67,"time":487.3020833333438,"velocity":0.8031496062992126,"duration":0.21744791666668561},{"name":"D#5","midi":75,"time":487.3020833333438,"velocity":0.8031496062992126,"duration":0.21744791666668561},{"name":"F4","midi":65,"time":487.52213541667714,"velocity":0.8031496062992126,"duration":0.4375},{"name":"D5","midi":74,"time":487.52213541667714,"velocity":0.8031496062992126,"duration":0.21744791666668561},{"name":"D#5","midi":75,"time":487.7421875000105,"velocity":0.8031496062992126,"duration":0.43749999999994316},{"name":"A#3","midi":58,"time":487.96354166667714,"velocity":0.8031496062992126,"duration":0.21744791666662877},{"name":"F3","midi":53,"time":488.18359375001046,"velocity":0.8031496062992126,"duration":0.21744791666668561},{"name":"D#5","midi":75,"time":488.18359375001046,"velocity":0.8031496062992126,"duration":0.21744791666668561},{"name":"G3","midi":55,"time":488.40364583334383,"velocity":0.8031496062992126,"duration":0.21744791666668561},{"name":"D5","midi":74,"time":488.40364583334383,"velocity":0.8031496062992126,"duration":0.21744791666668561},{"name":"A3","midi":57,"time":488.6250000000105,"velocity":0.8031496062992126,"duration":0.21744791666668561},{"name":"C5","midi":72,"time":488.6250000000105,"velocity":0.8031496062992126,"duration":0.21744791666668561},{"name":"A#3","midi":58,"time":488.8450520833439,"velocity":0.8031496062992126,"duration":0.21484375},{"name":"A#4","midi":70,"time":488.8450520833439,"velocity":0.8031496062992126,"duration":0.8697916666666288},{"name":"C5","midi":72,"time":488.9544270833439,"velocity":0.8031496062992126,"duration":0.10677083333331439},{"name":"D3","midi":50,"time":489.0625000000105,"velocity":0.8031496062992126,"duration":0.21744791666668561},{"name":"D5","midi":74,"time":489.0625000000105,"velocity":0.8031496062992126,"duration":0.4375},{"name":"E3","midi":52,"time":489.2838541666772,"velocity":0.8031496062992126,"duration":0.21744791666662877},{"name":"C4","midi":60,"time":489.5039062500105,"velocity":0.8031496062992126,"duration":0.21744791666668561},{"name":"D#5","midi":75,"time":489.5039062500105,"velocity":0.8031496062992126,"duration":0.21744791666668561},{"name":"F#3","midi":54,"time":489.7239583333439,"velocity":0.8031496062992126,"duration":0.21484375},{"name":"A4","midi":69,"time":489.7239583333439,"velocity":0.8031496062992126,"duration":0.10677083333331439},{"name":"A#4","midi":70,"time":489.8333333333439,"velocity":0.8031496062992126,"duration":0.7786458333333712},{"name":"A3","midi":57,"time":489.9427083333439,"velocity":0.8031496062992126,"duration":0.21744791666668561},{"name":"C5","midi":72,"time":489.9427083333439,"velocity":0.8031496062992126,"duration":0.4361979166666856},{"name":"G3","midi":55,"time":490.16276041667726,"velocity":0.8031496062992126,"duration":0.21744791666662877},{"name":"A3","midi":57,"time":490.3828125000106,"velocity":0.8031496062992126,"duration":0.21744791666668561},{"name":"C5","midi":72,"time":490.3828125000106,"velocity":0.8031496062992126,"duration":0.21744791666668561},{"name":"F#3","midi":54,"time":490.60416666667726,"velocity":0.8031496062992126,"duration":0.43619791666662877},{"name":"C5","midi":72,"time":490.60416666667726,"velocity":0.8031496062992126,"duration":0.10677083333331439},{"name":"A4","midi":69,"time":490.60416666667726,"velocity":0.8031496062992126,"duration":0.8697916666666288},{"name":"A#4","midi":70,"time":490.71354166667726,"velocity":0.8031496062992126,"duration":0.10677083333331439},{"name":"C5","midi":72,"time":490.8216145833439,"velocity":0.8031496062992126,"duration":0.4375},{"name":"D3","midi":50,"time":491.0429687500106,"velocity":0.8031496062992126,"duration":0.4375},{"name":"D5","midi":74,"time":491.2630208333439,"velocity":0.8031496062992126,"duration":0.21744791666668561},{"name":"G3","midi":55,"time":491.48307291667726,"velocity":0.8031496062992126,"duration":0.4361979166666856},{"name":"G4","midi":67,"time":491.48307291667726,"velocity":0.8031496062992126,"duration":0.8671875000001137},{"name":"C5","midi":72,"time":491.48307291667726,"velocity":0.8031496062992126,"duration":0.1796875},{"name":"A#4","midi":70,"time":491.66145833334394,"velocity":0.8031496062992126,"duration":0.10677083333331439},{"name":"C5","midi":72,"time":491.7578125000106,"velocity":0.8031496062992126,"duration":0.10677083333337123},{"name":"A#4","midi":70,"time":491.85286458334394,"velocity":0.8031496062992126,"duration":0.10677083333337123},{"name":"C3","midi":48,"time":491.92187500001063,"velocity":0.8031496062992126,"duration":0.43619791666674246},{"name":"C5","midi":72,"time":491.94921875001063,"velocity":0.8031496062992126,"duration":0.10677083333337123},{"name":"A#4","midi":70,"time":492.044270833344,"velocity":0.8031496062992126,"duration":0.10677083333337123},{"name":"A4","midi":69,"time":492.1406250000107,"velocity":0.8031496062992126,"duration":0.21744791666668561},{"name":"D3","midi":50,"time":492.36067708334406,"velocity":0.8031496062992126,"duration":0.43619791666662877},{"name":"A#4","midi":70,"time":492.36067708334406,"velocity":0.8031496062992126,"duration":0.14453125},{"name":"F#4","midi":66,"time":492.36067708334406,"velocity":0.8031496062992126,"duration":0.6380208333332575},{"name":"A4","midi":69,"time":492.50520833334406,"velocity":0.8031496062992126,"duration":0.10677083333331439},{"name":"A#4","midi":70,"time":492.6080729166774,"velocity":0.8031496062992126,"duration":0.10677083333331439},{"name":"A4","midi":69,"time":492.7096354166774,"velocity":0.8031496062992126,"duration":0.10677083333331439},{"name":"D2","midi":38,"time":492.7994791666774,"velocity":0.8031496062992126,"duration":0.4361979166665719},{"name":"A#4","midi":70,"time":492.8125000000107,"velocity":0.8031496062992126,"duration":0.10677083333331439},{"name":"A4","midi":69,"time":492.915364583344,"velocity":0.8031496062992126,"duration":0.10677083333331439},{"name":"G4","midi":67,"time":493.016927083344,"velocity":0.8031496062992126,"duration":0.21744791666662877},{"name":"G2","midi":43,"time":493.23828125001063,"velocity":0.8031496062992126,"duration":0.21744791666668561},{"name":"G4","midi":67,"time":493.23828125001063,"velocity":0.8031496062992126,"duration":1.1015625000001705},{"name":"D3","midi":50,"time":493.458333333344,"velocity":0.8031496062992126,"duration":0.21744791666668561},{"name":"E3","midi":52,"time":493.6783854166774,"velocity":0.8031496062992126,"duration":0.21744791666668561},{"name":"F#3","midi":54,"time":493.89973958334406,"velocity":0.8031496062992126,"duration":0.21744791666668561},{"name":"G3","midi":55,"time":494.11979166667743,"velocity":0.8031496062992126,"duration":0.21744791666668561},{"name":"A#3","midi":58,"time":494.3398437500108,"velocity":0.8031496062992126,"duration":0.21744791666668561},{"name":"A3","midi":57,"time":494.55989583334417,"velocity":0.8031496062992126,"duration":0.21744791666668561},{"name":"G5","midi":79,"time":494.55989583334417,"velocity":0.8031496062992126,"duration":0.4375},{"name":"A#3","midi":58,"time":494.78125000001086,"velocity":0.8031496062992126,"duration":0.21744791666662877},{"name":"C4","midi":60,"time":495.00130208334417,"velocity":0.8031496062992126,"duration":0.21744791666668561},{"name":"E5","midi":76,"time":495.00130208334417,"velocity":0.8031496062992126,"duration":0.17057291666668561},{"name":"D5","midi":74,"time":495.16796875001086,"velocity":0.8031496062992126,"duration":0.10677083333337123},{"name":"A#3","midi":58,"time":495.22135416667754,"velocity":0.8031496062992126,"duration":0.21484375},{"name":"E5","midi":76,"time":495.2552083333442,"velocity":0.8031496062992126,"duration":0.10677083333331439},{"name":"D5","midi":74,"time":495.34244791667754,"velocity":0.8031496062992126,"duration":0.10677083333331439},{"name":"E5","midi":76,"time":495.42838541667754,"velocity":0.8031496062992126,"duration":0.10677083333331439},{"name":"A3","midi":57,"time":495.44010416667754,"velocity":0.8031496062992126,"duration":0.21744791666662877},{"name":"D5","midi":74,"time":495.51562500001086,"velocity":0.8031496062992126,"duration":0.15494791666668561},{"name":"G3","midi":55,"time":495.66015625001086,"velocity":0.8031496062992126,"duration":0.21484375},{"name":"E5","midi":76,"time":495.68229166667754,"velocity":0.8031496062992126,"duration":0.19270833333331439},{"name":"D4","midi":62,"time":495.87890625001086,"velocity":0.8031496062992126,"duration":0.43619791666662877},{"name":"F5","midi":77,"time":495.87890625001086,"velocity":0.8031496062992126,"duration":0.10677083333331439},{"name":"E5","midi":76,"time":495.98828125001086,"velocity":0.8031496062992126,"duration":0.10677083333331439},{"name":"F5","midi":77,"time":496.0963541666775,"velocity":0.8031496062992126,"duration":0.4375},{"name":"D3","midi":50,"time":496.31770833334417,"velocity":0.8031496062992126,"duration":0.6588541666666856},{"name":"E5","midi":76,"time":496.5377604166775,"velocity":0.8031496062992126,"duration":0.21744791666668561},{"name":"D5","midi":74,"time":496.75781250001086,"velocity":0.8031496062992126,"duration":0.421875},{"name":"F3","midi":53,"time":496.97786458334417,"velocity":0.8031496062992126,"duration":0.21744791666668561},{"name":"E3","midi":52,"time":497.19921875001086,"velocity":0.8031496062992126,"duration":0.21744791666668561},{"name":"C5","midi":72,"time":497.19921875001086,"velocity":0.8031496062992126,"duration":0.21744791666668561},{"name":"F3","midi":53,"time":497.4192708333442,"velocity":0.8031496062992126,"duration":0.21744791666668561},{"name":"A#4","midi":70,"time":497.4192708333442,"velocity":0.8031496062992126,"duration":0.21744791666668561},{"name":"G3","midi":55,"time":497.6393229166776,"velocity":0.8031496062992126,"duration":0.21484375},{"name":"A#4","midi":70,"time":497.6393229166776,"velocity":0.8031496062992126,"duration":0.17578125},{"name":"A4","midi":69,"time":497.8177083333443,"velocity":0.8031496062992126,"duration":0.10677083333331439},{"name":"F3","midi":53,"time":497.8580729166776,"velocity":0.8031496062992126,"duration":0.21744791666662877},{"name":"A#4","midi":70,"time":497.9049479166776,"velocity":0.8031496062992126,"duration":0.10677083333331439},{"name":"A4","midi":69,"time":497.9921875000109,"velocity":0.8031496062992126,"duration":0.10677083333331439},{"name":"E3","midi":52,"time":498.0781250000109,"velocity":0.8031496062992126,"duration":0.21484375},{"name":"A#4","midi":70,"time":498.0781250000109,"velocity":0.8031496062992126,"duration":0.10677083333331439},{"name":"A4","midi":69,"time":498.1653645833442,"velocity":0.8031496062992126,"duration":0.16666666666668561},{"name":"D3","midi":50,"time":498.2968750000109,"velocity":0.8031496062992126,"duration":0.21484375},{"name":"A#4","midi":70,"time":498.3190104166776,"velocity":0.8031496062992126,"duration":0.19270833333331439},{"name":"A3","midi":57,"time":498.5143229166776,"velocity":0.8031496062992126,"duration":0.21744791666668561},{"name":"C5","midi":72,"time":498.5143229166776,"velocity":0.8031496062992126,"duration":0.6184895833333712},{"name":"A#3","midi":58,"time":498.7356770833443,"velocity":0.8031496062992126,"duration":0.21744791666668561},{"name":"A3","midi":57,"time":498.95572916667766,"velocity":0.8031496062992126,"duration":0.21484375},{"name":"G3","midi":55,"time":499.17447916667766,"velocity":0.8031496062992126,"duration":0.21744791666668561},{"name":"A#4","midi":70,"time":499.17447916667766,"velocity":0.8031496062992126,"duration":0.21744791666668561},{"name":"F3","midi":53,"time":499.394531250011,"velocity":0.8031496062992126,"duration":0.21744791666668561},{"name":"A4","midi":69,"time":499.394531250011,"velocity":0.8031496062992126,"duration":0.43750000000005684},{"name":"A3","midi":57,"time":499.6145833333444,"velocity":0.8031496062992126,"duration":0.21744791666668561},{"name":"A#3","midi":58,"time":499.83463541667777,"velocity":0.8031496062992126,"duration":0.21744791666668561},{"name":"G4","midi":67,"time":499.83463541667777,"velocity":0.8031496062992126,"duration":0.21744791666668561},{"name":"C4","midi":60,"time":500.05598958334446,"velocity":0.8031496062992126,"duration":0.21744791666668561},{"name":"F4","midi":65,"time":500.05598958334446,"velocity":0.8031496062992126,"duration":0.21744791666668561},{"name":"D4","midi":62,"time":500.2760416666778,"velocity":0.8031496062992126,"duration":0.21484375},{"name":"A#4","midi":70,"time":500.2760416666778,"velocity":0.8031496062992126,"duration":0.10677083333331439},{"name":"A4","midi":69,"time":500.3854166666778,"velocity":0.8031496062992126,"duration":0.10677083333331439},{"name":"D#4","midi":63,"time":500.4947916666778,"velocity":0.8031496062992126,"duration":0.21744791666668561},{"name":"A#4","midi":70,"time":500.4947916666778,"velocity":0.8031496062992126,"duration":0.43750000000005684},{"name":"D4","midi":62,"time":500.7148437500112,"velocity":0.8031496062992126,"duration":0.21744791666668561},{"name":"C4","midi":60,"time":500.93489583334457,"velocity":0.8031496062992126,"duration":0.21744791666668561},{"name":"C5","midi":72,"time":500.93489583334457,"velocity":0.8031496062992126,"duration":0.21744791666668561},{"name":"A#3","midi":58,"time":501.15494791667794,"velocity":0.8031496062992126,"duration":0.21484375},{"name":"D5","midi":74,"time":501.15494791667794,"velocity":0.8031496062992126,"duration":0.10677083333331439},{"name":"C5","midi":72,"time":501.26432291667794,"velocity":0.8031496062992126,"duration":0.10677083333331439},{"name":"D4","midi":62,"time":501.37369791667794,"velocity":0.8031496062992126,"duration":0.21744791666668561},{"name":"D5","midi":74,"time":501.37369791667794,"velocity":0.8031496062992126,"duration":0.43750000000005684},{"name":"E4","midi":64,"time":501.5937500000113,"velocity":0.8031496062992126,"duration":0.21744791666668561},{"name":"F4","midi":65,"time":501.815104166678,"velocity":0.8031496062992126,"duration":0.21744791666668561},{"name":"C5","midi":72,"time":501.815104166678,"velocity":0.8031496062992126,"duration":0.21744791666668561},{"name":"G4","midi":67,"time":502.03515625001137,"velocity":0.8031496062992126,"duration":0.43750000000005684},{"name":"A#4","midi":70,"time":502.03515625001137,"velocity":0.8031496062992126,"duration":0.21744791666668561},{"name":"A4","midi":69,"time":502.25520833334474,"velocity":0.8031496062992126,"duration":0.21744791666668561},{"name":"D3","midi":50,"time":502.4752604166781,"velocity":0.8031496062992126,"duration":0.4375},{"name":"G4","midi":67,"time":502.4752604166781,"velocity":0.8031496062992126,"duration":0.21744791666668561},{"name":"A#4","midi":70,"time":502.6966145833448,"velocity":0.8031496062992126,"duration":0.21744791666662877},{"name":"E3","midi":52,"time":502.9166666666781,"velocity":0.8031496062992126,"duration":0.43750000000005684},{"name":"A4","midi":69,"time":502.9166666666781,"velocity":0.8031496062992126,"duration":0.21744791666668561},{"name":"G4","midi":67,"time":503.1367187500115,"velocity":0.8031496062992126,"duration":0.21744791666668561},{"name":"F3","midi":53,"time":503.35807291667817,"velocity":0.8031496062992126,"duration":0.43750000000005684},{"name":"A4","midi":69,"time":503.35807291667817,"velocity":0.8031496062992126,"duration":0.21744791666668561},{"name":"F4","midi":65,"time":503.57812500001154,"velocity":0.8031496062992126,"duration":0.21744791666668561},{"name":"C3","midi":48,"time":503.7981770833449,"velocity":0.8031496062992126,"duration":0.21484375000005684},{"name":"E4","midi":64,"time":503.7981770833449,"velocity":0.8031496062992126,"duration":0.10677083333337123},{"name":"D4","midi":62,"time":503.8984375000116,"velocity":0.8031496062992126,"duration":0.10677083333337123},{"name":"E4","midi":64,"time":503.9986979166783,"velocity":0.8031496062992126,"duration":0.38932291666674246},{"name":"E3","midi":52,"time":504.01692708334497,"velocity":0.8031496062992126,"duration":0.21744791666668561},{"name":"D3","midi":50,"time":504.23697916667834,"velocity":0.8031496062992126,"duration":0.21744791666668561},{"name":"E3","midi":52,"time":504.4570312500117,"velocity":0.8031496062992126,"duration":0.21744791666668561},{"name":"D4","midi":62,"time":504.4570312500117,"velocity":0.8031496062992126,"duration":0.21744791666668561},{"name":"F3","midi":53,"time":504.6783854166784,"velocity":0.8031496062992126,"duration":0.21744791666668561},{"name":"C4","midi":60,"time":504.6783854166784,"velocity":0.8031496062992126,"duration":0.3893229166666856},{"name":"E3","midi":52,"time":504.89843750001177,"velocity":0.8031496062992126,"duration":0.21744791666662877},{"name":"D3","midi":50,"time":505.1184895833451,"velocity":0.8031496062992126,"duration":0.21744791666668561},{"name":"C5","midi":72,"time":505.12109375001177,"velocity":0.8031496062992126,"duration":0.4375},{"name":"C3","midi":48,"time":505.33984375001177,"velocity":0.8031496062992126,"duration":0.21744791666668561},{"name":"A#2","midi":46,"time":505.5598958333451,"velocity":0.8031496062992126,"duration":0.21484375},{"name":"F5","midi":77,"time":505.5598958333451,"velocity":0.8031496062992126,"duration":0.10677083333331439},{"name":"E5","midi":76,"time":505.6692708333451,"velocity":0.8031496062992126,"duration":0.10677083333331439},{"name":"A2","midi":45,"time":505.7773437500117,"velocity":0.8031496062992126,"duration":0.21744791666668561},{"name":"F5","midi":77,"time":505.7773437500117,"velocity":0.8031496062992126,"duration":0.4375},{"name":"G2","midi":43,"time":505.9986979166784,"velocity":0.8031496062992126,"duration":0.21744791666662877},{"name":"F2","midi":41,"time":506.2187500000117,"velocity":0.8031496062992126,"duration":0.21484375},{"name":"G5","midi":79,"time":506.2187500000117,"velocity":0.8031496062992126,"duration":0.10677083333331439},{"name":"A5","midi":81,"time":506.3281250000117,"velocity":0.8031496062992126,"duration":0.10677083333331439},{"name":"A#2","midi":46,"time":506.4375000000117,"velocity":0.8031496062992126,"duration":1.098958333333428},{"name":"A5","midi":81,"time":506.4375000000117,"velocity":0.8031496062992126,"duration":0.4375},{"name":"G5","midi":79,"time":506.8776041666784,"velocity":0.8031496062992126,"duration":0.21744791666668561},{"name":"F5","midi":77,"time":507.09765625001177,"velocity":0.8031496062992126,"duration":0.21744791666668561},{"name":"E5","midi":76,"time":507.31901041667845,"velocity":0.8031496062992126,"duration":0.21744791666668561},{"name":"C3","midi":48,"time":507.5390625000118,"velocity":0.8031496062992126,"duration":0.21744791666668561},{"name":"D5","midi":74,"time":507.5390625000118,"velocity":0.8031496062992126,"duration":0.21744791666668561},{"name":"D3","midi":50,"time":507.7591145833452,"velocity":0.8031496062992126,"duration":0.21744791666668561},{"name":"A#5","midi":82,"time":507.7591145833452,"velocity":0.8031496062992126,"duration":0.4375},{"name":"C3","midi":48,"time":507.9804687500119,"velocity":0.8031496062992126,"duration":0.21744791666662877},{"name":"A#2","midi":46,"time":508.2005208333452,"velocity":0.8031496062992126,"duration":0.21484375},{"name":"F5","midi":77,"time":508.2005208333452,"velocity":0.8031496062992126,"duration":0.17578125},{"name":"E5","midi":76,"time":508.3789062500119,"velocity":0.8031496062992126,"duration":0.10677083333331439},{"name":"A2","midi":45,"time":508.4179687500119,"velocity":0.8031496062992126,"duration":0.21744791666662877},{"name":"F5","midi":77,"time":508.4648437500119,"velocity":0.8031496062992126,"duration":0.10677083333331439},{"name":"E5","midi":76,"time":508.5520833333452,"velocity":0.8031496062992126,"duration":0.10677083333331439},{"name":"G2","midi":43,"time":508.6393229166785,"velocity":0.8031496062992126,"duration":0.21484375},{"name":"F5","midi":77,"time":508.6393229166785,"velocity":0.8031496062992126,"duration":0.10677083333331439},{"name":"E5","midi":76,"time":508.7252604166785,"velocity":0.8031496062992126,"duration":0.16145833333337123},{"name":"F2","midi":41,"time":508.8567708333452,"velocity":0.8031496062992126,"duration":0.21484375},{"name":"F5","midi":77,"time":508.8789062500119,"velocity":0.8031496062992126,"duration":0.18880208333331439},{"name":"E2","midi":40,"time":509.0755208333452,"velocity":0.8031496062992126,"duration":0.22005208333337123},{"name":"G4","midi":67,"time":509.0755208333452,"velocity":0.8031496062992126,"duration":0.8815104166667425},{"name":"A#4","midi":70,"time":509.0755208333452,"velocity":0.8031496062992126,"duration":0.10807291666668561},{"name":"A4","midi":69,"time":509.18619791667857,"velocity":0.8031496062992126,"duration":0.10807291666668561},{"name":"C3","midi":48,"time":509.29817708334525,"velocity":0.8031496062992126,"duration":0.22005208333331439},{"name":"A#4","midi":70,"time":509.29817708334525,"velocity":0.8031496062992126,"duration":0.4427083333333144},{"name":"D3","midi":50,"time":509.52083333334525,"velocity":0.8031496062992126,"duration":0.22005208333331439},{"name":"E3","midi":52,"time":509.74348958334525,"velocity":0.8031496062992126,"duration":0.22005208333337123},{"name":"C5","midi":72,"time":509.74348958334525,"velocity":0.8031496062992126,"duration":0.22005208333337123},{"name":"F3","midi":53,"time":509.9661458333453,"velocity":0.8031496062992126,"duration":0.48046875000005684},{"name":"A#4","midi":70,"time":509.9661458333453,"velocity":0.8031496062992126,"duration":0.15104166666668561},{"name":"F4","midi":65,"time":509.9661458333453,"velocity":0.8031496062992126,"duration":0.9570312500001137},{"name":"A4","midi":69,"time":510.1106770833453,"velocity":0.8031496062992126,"duration":0.11718750000005684},{"name":"A#4","midi":70,"time":510.2174479166787,"velocity":0.8031496062992126,"duration":0.11979166666668561},{"name":"A4","midi":69,"time":510.3268229166787,"velocity":0.8031496062992126,"duration":0.11979166666668561},{"name":"A#4","midi":70,"time":510.4361979166787,"velocity":0.8031496062992126,"duration":0.11979166666674246},{"name":"A#2","midi":46,"time":510.44921875001205,"velocity":0.8031496062992126,"duration":0.48046875},{"name":"A4","midi":69,"time":510.54557291667874,"velocity":0.8031496062992126,"duration":0.14583333333337123},{"name":"G4","midi":67,"time":510.6914062500121,"velocity":0.8031496062992126,"duration":0.23697916666662877},{"name":"C3","midi":48,"time":510.93229166667874,"velocity":0.8031496062992126,"duration":0.47786458333337123},{"name":"A4","midi":69,"time":510.93229166667874,"velocity":0.8031496062992126,"duration":0.1171875},{"name":"E4","midi":64,"time":510.93229166667874,"velocity":0.8031496062992126,"duration":0.7005208333333712},{"name":"G4","midi":67,"time":511.0520833333454,"velocity":0.8031496062992126,"duration":0.1171875},{"name":"A4","midi":69,"time":511.1731770833454,"velocity":0.8031496062992126,"duration":0.1171875},{"name":"G4","midi":67,"time":511.2929687500121,"velocity":0.8031496062992126,"duration":0.1171875},{"name":"C2","midi":36,"time":511.4127604166788,"velocity":0.8031496062992126,"duration":0.47786458333337123},{"name":"A4","midi":69,"time":511.4127604166788,"velocity":0.8031496062992126,"duration":0.1171875},{"name":"G4","midi":67,"time":511.5338541666788,"velocity":0.8031496062992126,"duration":0.1171875},{"name":"F4","midi":65,"time":511.6536458333455,"velocity":0.8031496062992126,"duration":0.23697916666668561},{"name":"F2","midi":41,"time":511.89453125001216,"velocity":0.8031496062992126,"duration":4.5390625},{"name":"F4","midi":65,"time":511.89453125001216,"velocity":0.8031496062992126,"duration":4.5390625},{"name":"A2","midi":45,"time":512.4375000000122,"velocity":0.8031496062992126,"duration":0.5403645833333712},{"name":"C3","midi":48,"time":512.9804687500122,"velocity":0.8031496062992126,"duration":0.5403645833333712},{"name":"F3","midi":53,"time":513.5234375000122,"velocity":0.8031496062992126,"duration":2.9088541666666288},{"name":"C4","midi":60,"time":513.5234375000122,"velocity":0.8031496062992126,"duration":2.9088541666666288},{"name":"A3","midi":57,"time":513.5234375000122,"velocity":0.8031496062992126,"duration":2.9088541666666288},{"name":"F3","midi":53,"time":518.5286458333455,"velocity":0.8031496062992126,"duration":1.7070312499998863},{"name":"C4","midi":60,"time":518.5286458333455,"velocity":0.8031496062992126,"duration":1.7070312499998863},{"name":"C5","midi":72,"time":518.5286458333455,"velocity":0.8031496062992126,"duration":0.42578125},{"name":"F4","midi":65,"time":518.5286458333455,"velocity":0.8031496062992126,"duration":1.7070312499998863},{"name":"A4","midi":69,"time":518.5286458333455,"velocity":0.8031496062992126,"duration":1.7070312499998863},{"name":"D#5","midi":75,"time":518.9583333333455,"velocity":0.8031496062992126,"duration":0.20963541666662877},{"name":"D5","midi":74,"time":519.1718750000122,"velocity":0.8031496062992126,"duration":0.20963541666662877},{"name":"D#5","midi":75,"time":519.3841145833454,"velocity":0.8031496062992126,"duration":1.70703125},{"name":"F3","midi":53,"time":520.261718750012,"velocity":0.8031496062992126,"duration":0.84375},{"name":"A4","midi":69,"time":520.261718750012,"velocity":0.8031496062992126,"duration":0.84375},{"name":"F4","midi":65,"time":520.261718750012,"velocity":0.8031496062992126,"duration":0.84375},{"name":"C4","midi":60,"time":520.261718750012,"velocity":0.8031496062992126,"duration":0.84375},{"name":"A#2","midi":46,"time":521.1393229166787,"velocity":0.8031496062992126,"duration":1.7096354166666288},{"name":"A#3","midi":58,"time":521.1393229166787,"velocity":0.8031496062992126,"duration":1.7096354166666288},{"name":"A#4","midi":70,"time":521.1393229166787,"velocity":0.8031496062992126,"duration":0.42578125},{"name":"F4","midi":65,"time":521.1393229166787,"velocity":0.8031496062992126,"duration":0.42578125},{"name":"D5","midi":74,"time":521.1393229166787,"velocity":0.8031496062992126,"duration":0.42578125},{"name":"C5","midi":72,"time":521.5677083333453,"velocity":0.8031496062992126,"duration":0.42578125},{"name":"A4","midi":69,"time":521.5677083333453,"velocity":0.8031496062992126,"duration":0.42578125},{"name":"D#4","midi":63,"time":521.5677083333453,"velocity":0.8031496062992126,"duration":0.42578125},{"name":"D5","midi":74,"time":521.9960937500119,"velocity":0.8031496062992126,"duration":1.7070312500001137},{"name":"F4","midi":65,"time":521.9960937500119,"velocity":0.8031496062992126,"duration":1.7070312500001137},{"name":"A#4","midi":70,"time":521.9960937500119,"velocity":0.8031496062992126,"duration":1.7070312500001137},{"name":"A#3","midi":58,"time":522.8736979166787,"velocity":0.8031496062992126,"duration":0.84375},{"name":"A#2","midi":46,"time":522.8736979166787,"velocity":0.8031496062992126,"duration":0.84375},{"name":"A#3","midi":58,"time":523.750000000012,"velocity":0.8031496062992126,"duration":0.8541666666666288},{"name":"E4","midi":64,"time":523.750000000012,"velocity":0.8031496062992126,"duration":0.8463541666666288},{"name":"C4","midi":60,"time":523.750000000012,"velocity":0.8031496062992126,"duration":0.8463541666666288},{"name":"G4","midi":67,"time":523.750000000012,"velocity":0.8031496062992126,"duration":0.42578125},{"name":"A4","midi":69,"time":524.179687500012,"velocity":0.8031496062992126,"duration":0.42578125},{"name":"A3","midi":57,"time":524.6080729166787,"velocity":0.8031496062992126,"duration":0.8541666666666288},{"name":"C4","midi":60,"time":524.6080729166787,"velocity":0.8031496062992126,"duration":0.8463541666666288},{"name":"A4","midi":69,"time":524.6080729166787,"velocity":0.8031496062992126,"duration":0.42578125},{"name":"F4","midi":65,"time":524.6080729166787,"velocity":0.8031496062992126,"duration":0.8463541666666288},{"name":"A#4","midi":70,"time":525.0364583333453,"velocity":0.8031496062992126,"duration":0.42578125},{"name":"G3","midi":55,"time":525.4661458333453,"velocity":0.8031496062992126,"duration":0.8541666666666288},{"name":"E4","midi":64,"time":525.4661458333453,"velocity":0.8031496062992126,"duration":0.8463541666666288},{"name":"C4","midi":60,"time":525.4661458333453,"velocity":0.8031496062992126,"duration":0.8463541666666288},{"name":"A#4","midi":70,"time":525.4661458333453,"velocity":0.8031496062992126,"duration":0.42578125},{"name":"C5","midi":72,"time":525.8945312500119,"velocity":0.8031496062992126,"duration":0.42578125},{"name":"F3","midi":53,"time":526.3242187500119,"velocity":0.8031496062992126,"duration":0.8502604166665151},{"name":"C4","midi":60,"time":526.3242187500119,"velocity":0.8031496062992126,"duration":0.8424479166665151},{"name":"A#4","midi":70,"time":526.3242187500119,"velocity":0.8031496062992126,"duration":0.20963541666662877},{"name":"F4","midi":65,"time":526.3242187500119,"velocity":0.8031496062992126,"duration":0.8424479166665151},{"name":"A4","midi":69,"time":526.5364583333452,"velocity":0.8031496062992126,"duration":0.20963541666662877},{"name":"A#4","midi":70,"time":526.7500000000118,"velocity":0.8031496062992126,"duration":0.20963541666662877},{"name":"A4","midi":69,"time":526.9635416666785,"velocity":0.8031496062992126,"duration":0.20963541666662877},{"name":"C3","midi":48,"time":527.1770833333451,"velocity":0.8031496062992126,"duration":0.8541666666667425},{"name":"G4","midi":67,"time":527.1770833333451,"velocity":0.8031496062992126,"duration":0.42578125},{"name":"A#3","midi":58,"time":527.1770833333451,"velocity":0.8031496062992126,"duration":0.8463541666667425},{"name":"E4","midi":64,"time":527.1770833333451,"velocity":0.8031496062992126,"duration":0.8463541666667425},{"name":"A4","midi":69,"time":527.6041666666785,"velocity":0.8031496062992126,"duration":0.42578125},{"name":"F2","midi":41,"time":528.0338541666785,"velocity":0.8031496062992126,"duration":0.9388020833333712},{"name":"F4","midi":65,"time":528.0338541666785,"velocity":0.8031496062992126,"duration":0.9388020833333712},{"name":"C4","midi":60,"time":528.0338541666785,"velocity":0.8031496062992126,"duration":0.9388020833333712},{"name":"A3","midi":57,"time":528.0338541666785,"velocity":0.8031496062992126,"duration":0.9388020833333712},{"name":"A4","midi":69,"time":528.9973958333452,"velocity":0.8031496062992126,"duration":0.42578125},{"name":"C4","midi":60,"time":528.9973958333452,"velocity":0.8031496062992126,"duration":0.8437499999998863},{"name":"F4","midi":65,"time":528.9973958333452,"velocity":0.8031496062992126,"duration":0.8437499999998863},{"name":"F3","midi":53,"time":528.9973958333452,"velocity":0.8031496062992126,"duration":0.42578125},{"name":"C5","midi":72,"time":529.4257812500118,"velocity":0.8031496062992126,"duration":0.20963541666662877},{"name":"G#3","midi":56,"time":529.4257812500118,"velocity":0.8031496062992126,"duration":0.20963541666662877},{"name":"B4","midi":71,"time":529.6393229166785,"velocity":0.8031496062992126,"duration":0.20963541666662877},{"name":"G3","midi":55,"time":529.6393229166785,"velocity":0.8031496062992126,"duration":0.20963541666662877},{"name":"D4","midi":62,"time":529.8528645833451,"velocity":0.8031496062992126,"duration":1.7070312499997726},{"name":"C5","midi":72,"time":529.8528645833451,"velocity":0.8031496062992126,"duration":0.13932291666662877},{"name":"F4","midi":65,"time":529.8528645833451,"velocity":0.8031496062992126,"duration":1.7070312499997726},{"name":"G#3","midi":56,"time":529.8528645833451,"velocity":0.8031496062992126,"duration":1.7070312499997726},{"name":"B4","midi":71,"time":529.9947916666783,"velocity":0.8031496062992126,"duration":0.13932291666662877},{"name":"C5","midi":72,"time":530.1367187500116,"velocity":0.8031496062992126,"duration":0.13932291666662877},{"name":"B4","midi":71,"time":530.2786458333449,"velocity":0.8031496062992126,"duration":0.84375},{"name":"C5","midi":72,"time":531.1562500000115,"velocity":0.8031496062992126,"duration":0.42578125},{"name":"F4","midi":65,"time":531.6067708333449,"velocity":0.8031496062992126,"duration":0.8424479166665151},{"name":"D#5","midi":75,"time":531.6067708333449,"velocity":0.8031496062992126,"duration":0.20963541666662877},{"name":"G3","midi":55,"time":531.6067708333449,"velocity":0.8031496062992126,"duration":0.8424479166665151},{"name":"B2","midi":47,"time":531.6067708333449,"velocity":0.8031496062992126,"duration":0.42317708333325754},{"name":"D5","midi":74,"time":531.8203125000115,"velocity":0.8031496062992126,"duration":0.20963541666662877},{"name":"C5","midi":72,"time":532.0325520833447,"velocity":0.8031496062992126,"duration":0.20963541666662877},{"name":"A2","midi":45,"time":532.0325520833447,"velocity":0.8031496062992126,"duration":0.42317708333325754},{"name":"D5","midi":74,"time":532.2460937500114,"velocity":0.8031496062992126,"duration":0.20963541666662877},{"name":"B2","midi":47,"time":532.459635416678,"velocity":0.8031496062992126,"duration":1.2343749999998863},{"name":"G3","midi":55,"time":532.459635416678,"velocity":0.8031496062992126,"duration":1.70703125},{"name":"G4","midi":67,"time":532.459635416678,"velocity":0.8031496062992126,"duration":1.70703125},{"name":"D5","midi":74,"time":532.459635416678,"velocity":0.8031496062992126,"duration":1.70703125},{"name":"D#5","midi":75,"time":532.6731770833446,"velocity":0.8031496062992126,"duration":0.20963541666662877},{"name":"F5","midi":77,"time":532.8867187500113,"velocity":0.8031496062992126,"duration":1.2799479166667425},{"name":"C3","midi":48,"time":533.7187500000113,"velocity":0.8031496062992126,"duration":0.23046875},{"name":"D3","midi":50,"time":533.9544270833446,"velocity":0.8031496062992126,"duration":0.23046875},{"name":"E5","midi":76,"time":534.1914062500113,"velocity":0.8031496062992126,"duration":0.42578125},{"name":"G4","midi":67,"time":534.1914062500113,"velocity":0.8031496062992126,"duration":0.42578125},{"name":"G3","midi":55,"time":534.1914062500113,"velocity":0.8031496062992126,"duration":0.42578125},{"name":"E3","midi":52,"time":534.1914062500113,"velocity":0.8031496062992126,"duration":0.42578125},{"name":"F4","midi":65,"time":534.6197916666779,"velocity":0.8031496062992126,"duration":0.42578125},{"name":"D5","midi":74,"time":534.6197916666779,"velocity":0.8031496062992126,"duration":0.42578125},{"name":"A3","midi":57,"time":534.6197916666779,"velocity":0.8031496062992126,"duration":0.42578125},{"name":"F3","midi":53,"time":534.6197916666779,"velocity":0.8031496062992126,"duration":0.42578125},{"name":"F4","midi":65,"time":535.0494791666779,"velocity":0.8031496062992126,"duration":0.42578125},{"name":"D5","midi":74,"time":535.0494791666779,"velocity":0.8031496062992126,"duration":0.42578125},{"name":"A3","midi":57,"time":535.0494791666779,"velocity":0.8031496062992126,"duration":0.42578125},{"name":"F3","midi":53,"time":535.0494791666779,"velocity":0.8031496062992126,"duration":0.42578125},{"name":"C5","midi":72,"time":535.4778645833445,"velocity":0.8031496062992126,"duration":0.42578125},{"name":"E4","midi":64,"time":535.4778645833445,"velocity":0.8031496062992126,"duration":0.42578125},{"name":"G3","midi":55,"time":535.4778645833445,"velocity":0.8031496062992126,"duration":0.42578125},{"name":"C5","midi":72,"time":535.9062500000111,"velocity":0.8031496062992126,"duration":0.42578125},{"name":"E4","midi":64,"time":535.9062500000111,"velocity":0.8031496062992126,"duration":0.42578125},{"name":"G3","midi":55,"time":535.9062500000111,"velocity":0.8031496062992126,"duration":0.8463541666666288},{"name":"D4","midi":62,"time":536.3359375000111,"velocity":0.8031496062992126,"duration":0.42578125},{"name":"B4","midi":71,"time":536.3359375000111,"velocity":0.8031496062992126,"duration":0.42578125},{"name":"G2","midi":43,"time":536.3359375000111,"velocity":0.8031496062992126,"duration":0.42578125},{"name":"D4","midi":62,"time":536.7643229166778,"velocity":0.8031496062992126,"duration":0.42578125},{"name":"B4","midi":71,"time":536.7643229166778,"velocity":0.8031496062992126,"duration":0.42578125},{"name":"G3","midi":55,"time":536.7643229166778,"velocity":0.8031496062992126,"duration":0.8541666666666288},{"name":"C3","midi":48,"time":536.7643229166778,"velocity":0.8031496062992126,"duration":0.8541666666666288},{"name":"E4","midi":64,"time":537.1940104166778,"velocity":0.8031496062992126,"duration":0.42578125},{"name":"C5","midi":72,"time":537.1940104166778,"velocity":0.8031496062992126,"duration":0.42578125},{"name":"C5","midi":72,"time":537.6223958333444,"velocity":0.8031496062992126,"duration":1.7434895833333712},{"name":"E4","midi":64,"time":537.6223958333444,"velocity":0.8031496062992126,"duration":1.7434895833333712},{"name":"G4","midi":67,"time":537.6223958333444,"velocity":0.8031496062992126,"duration":1.7434895833333712},{"name":"C3","midi":48,"time":537.6223958333444,"velocity":0.8031496062992126,"duration":1.6927083333333712},{"name":"C2","midi":36,"time":537.6223958333444,"velocity":0.8031496062992126,"duration":1.6927083333333712},{"name":"C4","midi":60,"time":539.3997395833444,"velocity":0.8031496062992126,"duration":0.8528645833333712},{"name":"C5","midi":72,"time":539.3997395833444,"velocity":0.8031496062992126,"duration":0.84375},{"name":"G4","midi":67,"time":539.3997395833444,"velocity":0.8031496062992126,"duration":0.84375},{"name":"E5","midi":76,"time":539.3997395833444,"velocity":0.8031496062992126,"duration":0.42578125},{"name":"F5","midi":77,"time":539.8294270833444,"velocity":0.8031496062992126,"duration":0.20963541666662877},{"name":"G5","midi":79,"time":540.042968750011,"velocity":0.8031496062992126,"duration":0.20963541666674246},{"name":"A#3","midi":58,"time":540.2552083333444,"velocity":0.8031496062992126,"duration":1.7031249999995453},{"name":"F5","midi":77,"time":540.2552083333444,"velocity":0.8031496062992126,"duration":0.28125},{"name":"G4","midi":67,"time":540.2552083333444,"velocity":0.8031496062992126,"duration":1.7031249999995453},{"name":"C5","midi":72,"time":540.2552083333444,"velocity":0.8031496062992126,"duration":1.7031249999995453},{"name":"E5","midi":76,"time":540.5611979166778,"velocity":0.8031496062992126,"duration":0.13932291666662877},{"name":"F5","midi":77,"time":540.703125000011,"velocity":0.8031496062992126,"duration":0.13932291666662877},{"name":"E5","midi":76,"time":540.8463541666777,"velocity":0.8031496062992126,"duration":0.13932291666662877},{"name":"F5","midi":77,"time":540.9882812500109,"velocity":0.8031496062992126,"duration":0.13932291666662877},{"name":"E5","midi":76,"time":541.1302083333442,"velocity":0.8031496062992126,"duration":0.13932291666662877},{"name":"F5","midi":77,"time":541.2721354166774,"velocity":0.8031496062992126,"duration":0.13932291666662877},{"name":"E5","midi":76,"time":541.4140625000107,"velocity":0.8031496062992126,"duration":0.13932291666662877},{"name":"D5","midi":74,"time":541.555989583344,"velocity":0.8031496062992126,"duration":0.20963541666662877},{"name":"E5","midi":76,"time":541.7695312500106,"velocity":0.8031496062992126,"duration":0.20963541666674246},{"name":"C#4","midi":61,"time":542.0039062500107,"velocity":0.8031496062992126,"duration":0.8528645833333712},{"name":"A3","midi":57,"time":542.0039062500107,"velocity":0.8031496062992126,"duration":0.8528645833333712},{"name":"E4","midi":64,"time":542.0039062500107,"velocity":0.8031496062992126,"duration":0.8528645833333712},{"name":"A4","midi":69,"time":542.0039062500107,"velocity":0.8031496062992126,"duration":0.8528645833333712},{"name":"E5","midi":76,"time":542.0039062500107,"velocity":0.8031496062992126,"duration":0.8528645833333712},{"name":"G5","midi":79,"time":542.0039062500107,"velocity":0.8031496062992126,"duration":0.8528645833333712},{"name":"G3","midi":55,"time":542.8606770833441,"velocity":0.8031496062992126,"duration":2.61067708333303},{"name":"E4","midi":64,"time":542.8606770833441,"velocity":0.8031496062992126,"duration":2.62630208333303},{"name":"A4","midi":69,"time":542.8606770833441,"velocity":0.8031496062992126,"duration":1.7057291666664014},{"name":"D5","midi":74,"time":542.8606770833441,"velocity":0.8031496062992126,"duration":0.42317708333337123},{"name":"C#5","midi":73,"time":543.3111979166774,"velocity":0.8031496062992126,"duration":0.13932291666662877},{"name":"D5","midi":74,"time":543.4531250000107,"velocity":0.8031496062992126,"duration":0.13932291666662877},{"name":"C#5","midi":73,"time":543.595052083344,"velocity":0.8031496062992126,"duration":0.13932291666662877},{"name":"D5","midi":74,"time":543.7369791666772,"velocity":0.8031496062992126,"duration":0.20963541666662877},{"name":"C#5","midi":73,"time":543.9505208333438,"velocity":0.8031496062992126,"duration":0.20963541666662877},{"name":"B4","midi":71,"time":544.1640625000105,"velocity":0.8031496062992126,"duration":0.20963541666662877},{"name":"C#5","midi":73,"time":544.3776041666771,"velocity":0.8031496062992126,"duration":0.24088541666674246},{"name":"A#5","midi":82,"time":544.6263020833438,"velocity":0.8031496062992126,"duration":0.42578125},{"name":"C#5","midi":73,"time":544.6263020833438,"velocity":0.8031496062992126,"duration":0.8463541666666288},{"name":"A5","midi":81,"time":545.0625000000105,"velocity":0.8031496062992126,"duration":0.42578125},{"name":"A5","midi":81,"time":545.4895833333438,"velocity":0.8031496062992126,"duration":0.42578125},{"name":"D5","midi":74,"time":545.4895833333438,"velocity":0.8031496062992126,"duration":0.8463541666666288},{"name":"F4","midi":65,"time":545.4895833333438,"velocity":0.8031496062992126,"duration":0.8541666666666288},{"name":"F3","midi":53,"time":545.4895833333438,"velocity":0.8031496062992126,"duration":0.8541666666666288},{"name":"G5","midi":79,"time":545.9192708333438,"velocity":0.8031496062992126,"duration":0.42578125},{"name":"E5","midi":76,"time":546.3489583333438,"velocity":0.8031496062992126,"duration":0.6223958333332575},{"name":"G5","midi":79,"time":546.3489583333438,"velocity":0.8031496062992126,"duration":0.20963541666662877},{"name":"E3","midi":52,"time":546.3489583333438,"velocity":0.8031496062992126,"duration":0.8528645833332575},{"name":"C#4","midi":61,"time":546.3489583333438,"velocity":0.8031496062992126,"duration":0.8528645833332575},{"name":"F5","midi":77,"time":546.5611979166771,"velocity":0.8031496062992126,"duration":0.20963541666662877},{"name":"G5","midi":79,"time":546.7747395833437,"velocity":0.8031496062992126,"duration":0.42317708333337123},{"name":"E5","midi":76,"time":546.9908854166771,"velocity":0.8031496062992126,"duration":0.20963541666662877},{"name":"D3","midi":50,"time":547.2252604166771,"velocity":0.8031496062992126,"duration":0.8528645833332575},{"name":"D4","midi":62,"time":547.2252604166771,"velocity":0.8031496062992126,"duration":0.8528645833332575},{"name":"A4","midi":69,"time":547.2252604166771,"velocity":0.8031496062992126,"duration":0.8437499999998863},{"name":"G5","midi":79,"time":547.2252604166771,"velocity":0.8031496062992126,"duration":0.16536458333325754},{"name":"F5","midi":77,"time":547.3880208333437,"velocity":0.8031496062992126,"duration":0.16536458333325754},{"name":"G5","midi":79,"time":547.5507812500103,"velocity":0.8031496062992126,"duration":0.16536458333325754},{"name":"F5","midi":77,"time":547.7122395833436,"velocity":0.8031496062992126,"duration":0.3723958333334849},{"name":"A3","midi":57,"time":548.0794270833437,"velocity":0.8031496062992126,"duration":0.8541666666666288},{"name":"C#4","midi":61,"time":548.0794270833437,"velocity":0.8031496062992126,"duration":0.8541666666666288},{"name":"E5","midi":76,"time":548.0794270833437,"velocity":0.8031496062992126,"duration":0.42578125},{"name":"G4","midi":67,"time":548.0794270833437,"velocity":0.8031496062992126,"duration":0.8463541666666288},{"name":"F5","midi":77,"time":548.5091145833437,"velocity":0.8031496062992126,"duration":0.42578125},{"name":"D4","midi":62,"time":548.9388020833437,"velocity":0.8031496062992126,"duration":0.9244791666666288},{"name":"D5","midi":74,"time":548.9388020833437,"velocity":0.8031496062992126,"duration":0.9244791666666288},{"name":"F4","midi":65,"time":548.9388020833437,"velocity":0.8031496062992126,"duration":0.9244791666666288},{"name":"D5","midi":74,"time":549.901041666677,"velocity":0.8031496062992126,"duration":0.84375},{"name":"A4","midi":69,"time":549.901041666677,"velocity":0.8031496062992126,"duration":0.84375},{"name":"F#5","midi":78,"time":549.901041666677,"velocity":0.8031496062992126,"duration":0.42578125},{"name":"D4","midi":62,"time":549.901041666677,"velocity":0.8031496062992126,"duration":0.8528645833333712},{"name":"C4","midi":60,"time":549.901041666677,"velocity":0.8031496062992126,"duration":0.8528645833333712},{"name":"A5","midi":81,"time":550.3515625000103,"velocity":0.8031496062992126,"duration":0.20963541666662877},{"name":"G5","midi":79,"time":550.565104166677,"velocity":0.8031496062992126,"duration":0.20963541666674246},{"name":"D4","midi":62,"time":550.7786458333437,"velocity":0.8031496062992126,"duration":1.4244791666666288},{"name":"A#3","midi":58,"time":550.7786458333437,"velocity":0.8031496062992126,"duration":1.70703125},{"name":"D5","midi":74,"time":550.7786458333437,"velocity":0.8031496062992126,"duration":1.4244791666666288},{"name":"G4","midi":67,"time":550.7786458333437,"velocity":0.8031496062992126,"duration":1.4244791666666288},{"name":"G5","midi":79,"time":550.7786458333437,"velocity":0.8031496062992126,"duration":1.70703125},{"name":"F#3","midi":54,"time":552.4882812500103,"velocity":0.8031496062992126,"duration":0.8528645833332575},{"name":"C4","midi":60,"time":552.4882812500103,"velocity":0.8031496062992126,"duration":0.8528645833332575},{"name":"D#5","midi":75,"time":552.4882812500103,"velocity":0.8031496062992126,"duration":0.20963541666662877},{"name":"A4","midi":69,"time":552.4882812500103,"velocity":0.8031496062992126,"duration":0.8437499999998863},{"name":"C5","midi":72,"time":552.701822916677,"velocity":0.8031496062992126,"duration":0.20963541666662877},{"name":"D5","midi":74,"time":552.9153645833436,"velocity":0.8031496062992126,"duration":0.42578125},{"name":"B3","midi":59,"time":553.3437500000102,"velocity":0.8031496062992126,"duration":1.5143229166666288},{"name":"F3","midi":53,"time":553.3437500000102,"velocity":0.8031496062992126,"duration":1.7096354166666288},{"name":"D5","midi":74,"time":553.3437500000102,"velocity":0.8031496062992126,"duration":1.2799479166666288},{"name":"G#4","midi":68,"time":553.3437500000102,"velocity":0.8031496062992126,"duration":1.5143229166666288},{"name":"D5","midi":74,"time":554.6497395833435,"velocity":0.8031496062992126,"duration":0.42578125},{"name":"G4","midi":67,"time":555.0794270833435,"velocity":0.8031496062992126,"duration":0.6393229166666288},{"name":"G5","midi":79,"time":555.0794270833435,"velocity":0.8031496062992126,"duration":0.6393229166666288},{"name":"C4","midi":60,"time":555.0794270833435,"velocity":0.8031496062992126,"duration":0.8528645833332575},{"name":"D#3","midi":51,"time":555.0794270833435,"velocity":0.8031496062992126,"duration":0.8528645833332575},{"name":"A5","midi":81,"time":555.7200520833435,"velocity":0.8031496062992126,"duration":0.20963541666662877},{"name":"G5","midi":79,"time":555.9335937500101,"velocity":0.8031496062992126,"duration":0.8528645833333712},{"name":"A5","midi":81,"time":555.9335937500101,"velocity":0.8031496062992126,"duration":1.2799479166666288},{"name":"D#5","midi":75,"time":555.9335937500101,"velocity":0.8031496062992126,"duration":0.8528645833333712},{"name":"C4","midi":60,"time":555.9335937500101,"velocity":0.8031496062992126,"duration":2.140625},{"name":"C3","midi":48,"time":555.9335937500101,"velocity":0.8031496062992126,"duration":0.8528645833333712},{"name":"D5","midi":74,"time":556.7890625000101,"velocity":0.8031496062992126,"duration":0.8463541666666288},{"name":"F#5","midi":78,"time":556.7890625000101,"velocity":0.8031496062992126,"duration":0.42578125},{"name":"D3","midi":50,"time":556.7890625000101,"velocity":0.8031496062992126,"duration":0.8541666666666288},{"name":"G5","midi":79,"time":557.2187500000101,"velocity":0.8031496062992126,"duration":0.42578125},{"name":"G5","midi":79,"time":557.6471354166767,"velocity":0.8031496062992126,"duration":0.8841145833333712},{"name":"D5","midi":74,"time":557.6471354166767,"velocity":0.8031496062992126,"duration":0.9309895833333712},{"name":"G3","midi":55,"time":557.6471354166767,"velocity":0.8031496062992126,"duration":0.9140625},{"name":"A3","midi":57,"time":558.1302083333435,"velocity":0.8031496062992126,"duration":0.48177083333325754},{"name":"G5","midi":79,"time":558.5898437500101,"velocity":0.8031496062992126,"duration":1.70703125},{"name":"G4","midi":67,"time":558.5898437500101,"velocity":0.8031496062992126,"duration":1.3346354166666288},{"name":"D5","midi":74,"time":558.5898437500101,"velocity":0.8031496062992126,"duration":1.3346354166666288},{"name":"G3","midi":55,"time":558.5898437500101,"velocity":0.8031496062992126,"duration":1.70703125},{"name":"A#3","midi":58,"time":558.5898437500101,"velocity":0.8031496062992126,"duration":1.3346354166666288},{"name":"G4","midi":67,"time":560.3450520833435,"velocity":0.8031496062992126,"duration":0.8437499999998863},{"name":"B4","midi":71,"time":560.3450520833435,"velocity":0.8031496062992126,"duration":0.42578125},{"name":"D4","midi":62,"time":560.3450520833435,"velocity":0.8031496062992126,"duration":0.8437499999998863},{"name":"G3","midi":55,"time":560.3450520833435,"velocity":0.8031496062992126,"duration":0.8528645833332575},{"name":"F3","midi":53,"time":560.3450520833435,"velocity":0.8031496062992126,"duration":0.8528645833332575},{"name":"D5","midi":74,"time":560.7734375000101,"velocity":0.8031496062992126,"duration":0.20963541666662877},{"name":"C5","midi":72,"time":560.9869791666767,"velocity":0.8031496062992126,"duration":0.20963541666662877},{"name":"C4","midi":60,"time":561.2005208333434,"velocity":0.8031496062992126,"duration":1.4244791666666288},{"name":"C5","midi":72,"time":561.2005208333434,"velocity":0.8031496062992126,"duration":1.2799479166666288},{"name":"G4","midi":67,"time":561.2005208333434,"velocity":0.8031496062992126,"duration":1.4244791666666288},{"name":"E3","midi":52,"time":561.2005208333434,"velocity":0.8031496062992126,"duration":1.70703125},{"name":"G3","midi":55,"time":561.2005208333434,"velocity":0.8031496062992126,"duration":1.4244791666666288},{"name":"C5","midi":72,"time":562.52734375001,"velocity":0.8031496062992126,"duration":0.42317708333337123},{"name":"F4","midi":65,"time":562.95312500001,"velocity":0.8031496062992126,"duration":0.8463541666666288},{"name":"A4","midi":69,"time":562.95312500001,"velocity":0.8031496062992126,"duration":0.42578125},{"name":"F5","midi":77,"time":562.95312500001,"velocity":0.8031496062992126,"duration":0.42578125},{"name":"C4","midi":60,"time":562.95312500001,"velocity":0.8031496062992126,"duration":0.8541666666666288},{"name":"D#3","midi":51,"time":562.95312500001,"velocity":0.8031496062992126,"duration":0.8541666666666288},{"name":"A4","midi":69,"time":563.38281250001,"velocity":0.8031496062992126,"duration":0.42578125},{"name":"A#4","midi":70,"time":563.8111979166766,"velocity":0.8031496062992126,"duration":1.2799479166666288},{"name":"F4","midi":65,"time":563.8111979166766,"velocity":0.8031496062992126,"duration":1.4244791666666288},{"name":"A#3","midi":58,"time":563.8111979166766,"velocity":0.8031496062992126,"duration":1.4244791666666288},{"name":"D3","midi":50,"time":563.8111979166766,"velocity":0.8031496062992126,"duration":1.70703125},{"name":"C5","midi":72,"time":565.1393229166766,"velocity":0.8031496062992126,"duration":0.20963541666662877},{"name":"D5","midi":74,"time":565.3528645833433,"velocity":0.8031496062992126,"duration":0.20963541666674246},{"name":"D#5","midi":75,"time":565.56640625001,"velocity":0.8031496062992126,"duration":0.42578125},{"name":"G4","midi":67,"time":565.56640625001,"velocity":0.8031496062992126,"duration":0.8463541666667425},{"name":"C5","midi":72,"time":565.56640625001,"velocity":0.8031496062992126,"duration":0.8463541666667425},{"name":"A#3","midi":58,"time":565.56640625001,"velocity":0.8031496062992126,"duration":0.8541666666667425},{"name":"C3","midi":48,"time":565.56640625001,"velocity":0.8031496062992126,"duration":0.8541666666667425},{"name":"G5","midi":79,"time":565.9934895833434,"velocity":0.8031496062992126,"duration":0.42578125},{"name":"C5","midi":72,"time":566.4231770833434,"velocity":0.8031496062992126,"duration":0.8463541666666288},{"name":"F5","midi":77,"time":566.4231770833434,"velocity":0.8031496062992126,"duration":0.42578125},{"name":"C4","midi":60,"time":566.4231770833434,"velocity":0.8031496062992126,"duration":0.8541666666666288},{"name":"F3","midi":53,"time":566.4231770833434,"velocity":0.8031496062992126,"duration":0.8541666666666288},{"name":"A#3","midi":58,"time":566.4231770833434,"velocity":0.8031496062992126,"duration":0.8541666666666288},{"name":"D#5","midi":75,"time":566.85156250001,"velocity":0.8031496062992126,"duration":0.42578125},{"name":"C5","midi":72,"time":567.28125000001,"velocity":0.8031496062992126,"duration":0.8463541666666288},{"name":"D5","midi":74,"time":567.28125000001,"velocity":0.8031496062992126,"duration":0.42578125},{"name":"F4","midi":65,"time":567.28125000001,"velocity":0.8031496062992126,"duration":0.8463541666666288},{"name":"A3","midi":57,"time":567.28125000001,"velocity":0.8031496062992126,"duration":0.8541666666666288},{"name":"F3","midi":53,"time":567.28125000001,"velocity":0.8031496062992126,"duration":0.8541666666666288},{"name":"D#5","midi":75,"time":567.7526041666766,"velocity":0.8031496062992126,"duration":0.41276041666674246},{"name":"A#3","midi":58,"time":568.16015625001,"velocity":0.8031496062992126,"duration":0.8528645833333712},{"name":"F4","midi":65,"time":568.16015625001,"velocity":0.8031496062992126,"duration":0.8528645833333712},{"name":"A#4","midi":70,"time":568.16015625001,"velocity":0.8031496062992126,"duration":0.8528645833333712},{"name":"C5","midi":72,"time":568.3151041666767,"velocity":0.8031496062992126,"duration":0.1484375},{"name":"D5","midi":74,"time":568.4700520833434,"velocity":0.8031496062992126,"duration":0.5325520833333712},{"name":"F3","midi":53,"time":569.01562500001,"velocity":0.8031496062992126,"duration":0.8541666666666288},{"name":"A3","midi":57,"time":569.01562500001,"velocity":0.8031496062992126,"duration":0.8541666666666288},{"name":"C5","midi":72,"time":569.01562500001,"velocity":0.8031496062992126,"duration":0.42578125},{"name":"D#4","midi":63,"time":569.01562500001,"velocity":0.8031496062992126,"duration":0.8463541666666288},{"name":"D5","midi":74,"time":569.4440104166766,"velocity":0.8031496062992126,"duration":0.44010416666662877},{"name":"A#4","midi":70,"time":569.8945312500099,"velocity":0.8031496062992126,"duration":0.9388020833333712},{"name":"D4","midi":62,"time":569.8945312500099,"velocity":0.8031496062992126,"duration":0.9388020833333712},{"name":"A#3","midi":58,"time":569.8945312500099,"velocity":0.8031496062992126,"duration":0.9388020833333712},{"name":"A#2","midi":46,"time":569.8945312500099,"velocity":0.8031496062992126,"duration":0.9388020833333712},{"name":"B2","midi":47,"time":570.8567708333433,"velocity":0.8031496062992126,"duration":0.8528645833332575},{"name":"G4","midi":67,"time":570.8567708333433,"velocity":0.8031496062992126,"duration":0.42578125},{"name":"D4","midi":62,"time":570.8567708333433,"velocity":0.8031496062992126,"duration":0.8437499999998863},{"name":"F4","midi":65,"time":570.8567708333433,"velocity":0.8031496062992126,"duration":0.8437499999998863},{"name":"A4","midi":69,"time":571.2851562500099,"velocity":0.8031496062992126,"duration":0.20963541666662877},{"name":"G4","midi":67,"time":571.4986979166765,"velocity":0.8031496062992126,"duration":0.20963541666662877},{"name":"C3","midi":48,"time":571.7122395833431,"velocity":0.8031496062992126,"duration":1.7096354166667425},{"name":"G4","midi":67,"time":571.7122395833431,"velocity":0.8031496062992126,"duration":1.6041666666667425},{"name":"F4","midi":65,"time":571.7122395833431,"velocity":0.8031496062992126,"duration":0.8528645833333712},{"name":"D4","midi":62,"time":571.7122395833431,"velocity":0.8031496062992126,"duration":0.8528645833333712},{"name":"C4","midi":60,"time":572.5898437500099,"velocity":0.8031496062992126,"duration":0.8541666666666288},{"name":"E4","midi":64,"time":572.5898437500099,"velocity":0.8031496062992126,"duration":0.8541666666666288},{"name":"F4","midi":65,"time":573.4908854166765,"velocity":0.8031496062992126,"duration":0.84375},{"name":"G4","midi":67,"time":573.4908854166765,"velocity":0.8031496062992126,"duration":0.42578125},{"name":"A#3","midi":58,"time":573.4908854166765,"velocity":0.8031496062992126,"duration":0.8528645833332575},{"name":"C#3","midi":49,"time":573.4908854166765,"velocity":0.8031496062992126,"duration":0.8528645833332575},{"name":"G#4","midi":68,"time":573.9179687500099,"velocity":0.8031496062992126,"duration":0.20963541666662877},{"name":"G4","midi":67,"time":574.1315104166765,"velocity":0.8031496062992126,"duration":0.20963541666662877},{"name":"B4","midi":71,"time":574.3450520833431,"velocity":0.8031496062992126,"duration":1.3684895833333712},{"name":"F4","midi":65,"time":574.3450520833431,"velocity":0.8031496062992126,"duration":1.5143229166667425},{"name":"G#3","midi":56,"time":574.3450520833431,"velocity":0.8031496062992126,"duration":1.06640625},{"name":"D3","midi":50,"time":574.3450520833431,"velocity":0.8031496062992126,"duration":1.203125},{"name":"G#3","midi":56,"time":575.4166666666765,"velocity":0.8031496062992126,"duration":0.265625},{"name":"A4","midi":69,"time":575.6731770833431,"velocity":0.8031496062992126,"duration":0.20963541666674246},{"name":"G3","midi":55,"time":575.6731770833431,"velocity":0.8031496062992126,"duration":0.20963541666674246},{"name":"B4","midi":71,"time":575.8854166666765,"velocity":0.8031496062992126,"duration":0.21223958333337123},{"name":"F3","midi":53,"time":575.8854166666765,"velocity":0.8031496062992126,"duration":0.21223958333337123},{"name":"C5","midi":72,"time":576.1015625000099,"velocity":0.8031496062992126,"duration":0.45833333333337123},{"name":"G4","midi":67,"time":576.1015625000099,"velocity":0.8031496062992126,"duration":0.45833333333337123},{"name":"C4","midi":60,"time":576.1015625000099,"velocity":0.8031496062992126,"duration":0.45833333333337123},{"name":"G3","midi":55,"time":576.1015625000099,"velocity":0.8031496062992126,"duration":0.45833333333337123},{"name":"E3","midi":52,"time":576.1015625000099,"velocity":0.8031496062992126,"duration":0.45833333333337123},{"name":"C4","midi":60,"time":576.5638020833433,"velocity":0.8031496062992126,"duration":0.45833333333337123},{"name":"A3","midi":57,"time":576.5638020833433,"velocity":0.8031496062992126,"duration":0.45833333333337123},{"name":"F3","midi":53,"time":576.5638020833433,"velocity":0.8031496062992126,"duration":0.45833333333337123},{"name":"C4","midi":60,"time":577.02343750001,"velocity":0.8031496062992126,"duration":0.45833333333337123},{"name":"F4","midi":65,"time":577.02343750001,"velocity":0.8031496062992126,"duration":0.45833333333337123},{"name":"A3","midi":57,"time":577.02343750001,"velocity":0.8031496062992126,"duration":0.45833333333337123},{"name":"A2","midi":45,"time":577.02343750001,"velocity":0.8031496062992126,"duration":0.45833333333337123},{"name":"D4","midi":62,"time":577.48437500001,"velocity":0.8031496062992126,"duration":0.45833333333337123},{"name":"F4","midi":65,"time":577.48437500001,"velocity":0.8031496062992126,"duration":0.45833333333337123},{"name":"A#4","midi":70,"time":577.48437500001,"velocity":0.8031496062992126,"duration":0.45833333333337123},{"name":"F3","midi":53,"time":577.48437500001,"velocity":0.8031496062992126,"duration":0.45833333333337123},{"name":"A#2","midi":46,"time":577.48437500001,"velocity":0.8031496062992126,"duration":0.45833333333337123},{"name":"C4","midi":60,"time":577.94531250001,"velocity":0.8031496062992126,"duration":0.45833333333337123},{"name":"A4","midi":69,"time":577.94531250001,"velocity":0.8031496062992126,"duration":0.45833333333337123},{"name":"F4","midi":65,"time":577.94531250001,"velocity":0.8031496062992126,"duration":0.45833333333337123},{"name":"C3","midi":48,"time":577.94531250001,"velocity":0.8031496062992126,"duration":0.45833333333337123},{"name":"G4","midi":67,"time":578.40625000001,"velocity":0.8031496062992126,"duration":0.45833333333337123},{"name":"A#3","midi":58,"time":578.40625000001,"velocity":0.8031496062992126,"duration":0.45833333333337123},{"name":"E4","midi":64,"time":578.40625000001,"velocity":0.8031496062992126,"duration":0.45833333333337123},{"name":"C2","midi":36,"time":578.40625000001,"velocity":0.8031496062992126,"duration":0.45833333333337123},{"name":"A#3","midi":58,"time":578.86718750001,"velocity":0.8031496062992126,"duration":1.0885416666666288},{"name":"C4","midi":60,"time":578.86718750001,"velocity":0.8031496062992126,"duration":1.0885416666666288},{"name":"F4","midi":65,"time":578.86718750001,"velocity":0.8031496062992126,"duration":0.546875},{"name":"F2","midi":41,"time":578.86718750001,"velocity":0.8031496062992126,"duration":1.09765625},{"name":"C3","midi":48,"time":578.86718750001,"velocity":0.8031496062992126,"duration":1.09765625},{"name":"E4","midi":64,"time":579.41796875001,"velocity":0.8031496062992126,"duration":0.546875},{"name":"C4","midi":60,"time":579.96875000001,"velocity":0.8031496062992126,"duration":2.8294270833333712},{"name":"F4","midi":65,"time":579.96875000001,"velocity":0.8031496062992126,"duration":2.8294270833333712},{"name":"A3","midi":57,"time":579.96875000001,"velocity":0.8031496062992126,"duration":2.8294270833333712},{"name":"F3","midi":53,"time":579.96875000001,"velocity":0.8031496062992126,"duration":2.8294270833333712},{"name":"F2","midi":41,"time":579.96875000001,"velocity":0.8031496062992126,"duration":2.8294270833333712},{"name":"F3","midi":53,"time":584.1223958333434,"velocity":0.8031496062992126,"duration":0.5625},{"name":"F4","midi":65,"time":584.1223958333434,"velocity":0.8031496062992126,"duration":0.27604166666662877},{"name":"G4","midi":67,"time":584.41015625001,"velocity":0.8031496062992126,"duration":0.27604166666674246},{"name":"E3","midi":52,"time":584.6966145833434,"velocity":0.8031496062992126,"duration":0.27864583333325754},{"name":"A4","midi":69,"time":584.6966145833434,"velocity":0.8031496062992126,"duration":0.1328125},{"name":"G4","midi":67,"time":584.84375000001,"velocity":0.8031496062992126,"duration":0.1328125},{"name":"D3","midi":50,"time":584.98828125001,"velocity":0.8031496062992126,"duration":0.27864583333325754},{"name":"A4","midi":69,"time":584.98828125001,"velocity":0.8031496062992126,"duration":0.1328125},{"name":"G4","midi":67,"time":585.1315104166766,"velocity":0.8031496062992126,"duration":0.1328125},{"name":"E3","midi":52,"time":585.2773437500099,"velocity":0.8031496062992126,"duration":0.27864583333337123},{"name":"A4","midi":69,"time":585.2773437500099,"velocity":0.8031496062992126,"duration":0.1328125},{"name":"G4","midi":67,"time":585.4218750000099,"velocity":0.8031496062992126,"duration":0.1328125},{"name":"C3","midi":48,"time":585.5677083333433,"velocity":0.8031496062992126,"duration":0.27864583333337123},{"name":"F4","midi":65,"time":585.5677083333433,"velocity":0.8031496062992126,"duration":0.1328125},{"name":"G4","midi":67,"time":585.7122395833433,"velocity":0.8031496062992126,"duration":0.1328125},{"name":"F3","midi":53,"time":585.8567708333433,"velocity":0.8031496062992126,"duration":0.5625},{"name":"A4","midi":69,"time":585.8567708333433,"velocity":0.8031496062992126,"duration":0.27604166666662877},{"name":"A#4","midi":70,"time":586.1458333333433,"velocity":0.8031496062992126,"duration":0.27604166666662877},{"name":"F2","midi":41,"time":586.4322916666765,"velocity":0.8031496062992126,"duration":0.27604166666662877},{"name":"C5","midi":72,"time":586.4322916666765,"velocity":0.8031496062992126,"duration":0.41145833333337123},{"name":"G2","midi":43,"time":586.7213541666765,"velocity":0.8031496062992126,"duration":0.27864583333337123},{"name":"A2","midi":45,"time":587.0104166666765,"velocity":0.8031496062992126,"duration":0.27604166666662877},{"name":"F5","midi":77,"time":587.0104166666765,"velocity":0.8031496062992126,"duration":0.41145833333337123},{"name":"A#2","midi":46,"time":587.2994791666765,"velocity":0.8031496062992126,"duration":0.27864583333337123},{"name":"C3","midi":48,"time":587.5885416666765,"velocity":0.8031496062992126,"duration":0.27604166666662877},{"name":"A4","midi":69,"time":587.5885416666765,"velocity":0.8031496062992126,"duration":0.27604166666662877},{"name":"D3","midi":50,"time":587.8763020833431,"velocity":0.8031496062992126,"duration":0.27604166666662877},{"name":"A#4","midi":70,"time":587.8763020833431,"velocity":0.8031496062992126,"duration":0.27604166666662877},{"name":"E3","midi":52,"time":588.1627604166764,"velocity":0.8031496062992126,"duration":0.27604166666662877},{"name":"C5","midi":72,"time":588.1627604166764,"velocity":0.8031496062992126,"duration":0.41145833333337123},{"name":"G3","midi":55,"time":588.4518229166764,"velocity":0.8031496062992126,"duration":0.27864583333337123},{"name":"F#3","midi":54,"time":588.7408854166764,"velocity":0.8031496062992126,"duration":0.27604166666662877},{"name":"D5","midi":74,"time":588.7408854166764,"velocity":0.8031496062992126,"duration":0.41145833333325754},{"name":"A3","midi":57,"time":589.0273437500097,"velocity":0.8031496062992126,"duration":0.27864583333337123},{"name":"G3","midi":55,"time":589.317708333343,"velocity":0.8031496062992126,"duration":0.27604166666662877},{"name":"C5","midi":72,"time":589.317708333343,"velocity":0.8031496062992126,"duration":0.43229166666662877},{"name":"A3","midi":57,"time":589.6054687500097,"velocity":0.8031496062992126,"duration":0.27604166666674246},{"name":"A#4","midi":70,"time":589.763020833343,"velocity":0.8031496062992126,"duration":0.11848958333337123},{"name":"A#3","midi":58,"time":589.8932291666764,"velocity":0.8031496062992126,"duration":0.27864583333325754},{"name":"C5","midi":72,"time":589.8932291666764,"velocity":0.8031496062992126,"duration":0.12760416666662877},{"name":"A#4","midi":70,"time":590.0377604166764,"velocity":0.8031496062992126,"duration":0.12760416666662877},{"name":"A3","midi":57,"time":590.1822916666763,"velocity":0.8031496062992126,"duration":0.27864583333325754},{"name":"C5","midi":72,"time":590.1822916666763,"velocity":0.8031496062992126,"duration":0.12760416666662877},{"name":"A#4","midi":70,"time":590.3281250000095,"velocity":0.8031496062992126,"duration":0.12760416666662877},{"name":"G3","midi":55,"time":590.4726562500095,"velocity":0.8031496062992126,"duration":0.27864583333325754},{"name":"A4","midi":69,"time":590.4752604166762,"velocity":0.8031496062992126,"duration":0.27604166666662877},{"name":"F3","midi":53,"time":590.7617187500094,"velocity":0.8031496062992126,"duration":0.27604166666674246},{"name":"A#4","midi":70,"time":590.7617187500094,"velocity":0.8031496062992126,"duration":0.20052083333337123},{"name":"E3","midi":52,"time":591.0520833333428,"velocity":0.8031496062992126,"duration":0.27604166666662877},{"name":"G4","midi":67,"time":591.0520833333428,"velocity":0.8031496062992126,"duration":0.27604166666662877},{"name":"D3","midi":50,"time":591.3385416666761,"velocity":0.8031496062992126,"duration":0.27604166666662877},{"name":"A4","midi":69,"time":591.3385416666761,"velocity":0.8031496062992126,"duration":0.27604166666662877},{"name":"C3","midi":48,"time":591.6250000000093,"velocity":0.8031496062992126,"duration":0.27864583333325754},{"name":"A#4","midi":70,"time":591.6250000000093,"velocity":0.8031496062992126,"duration":0.1328125},{"name":"A4","midi":69,"time":591.772135416676,"velocity":0.8031496062992126,"duration":0.1328125},{"name":"D3","midi":50,"time":591.9153645833426,"velocity":0.8031496062992126,"duration":0.27864583333337123},{"name":"A#4","midi":70,"time":591.9153645833426,"velocity":0.8031496062992126,"duration":0.1328125},{"name":"A4","midi":69,"time":592.061197916676,"velocity":0.8031496062992126,"duration":0.1328125},{"name":"E3","midi":52,"time":592.205729166676,"velocity":0.8031496062992126,"duration":0.27864583333337123},{"name":"A#4","midi":70,"time":592.205729166676,"velocity":0.8031496062992126,"duration":0.1328125},{"name":"A4","midi":69,"time":592.350260416676,"velocity":0.8031496062992126,"duration":0.1328125},{"name":"F3","midi":53,"time":592.4960937500093,"velocity":0.8031496062992126,"duration":0.27864583333325754},{"name":"G4","midi":67,"time":592.4960937500093,"velocity":0.8031496062992126,"duration":0.1328125},{"name":"A4","midi":69,"time":592.639322916676,"velocity":0.8031496062992126,"duration":0.1328125},{"name":"G3","midi":55,"time":592.7851562500092,"velocity":0.8031496062992126,"duration":0.5625},{"name":"A#4","midi":70,"time":592.7851562500092,"velocity":0.8031496062992126,"duration":0.27604166666662877},{"name":"C5","midi":72,"time":593.0729166666758,"velocity":0.8031496062992126,"duration":0.27604166666674246},{"name":"G2","midi":43,"time":593.3606770833426,"velocity":0.8031496062992126,"duration":0.27604166666662877},{"name":"D5","midi":74,"time":593.3606770833426,"velocity":0.8031496062992126,"duration":0.41145833333337123},{"name":"A2","midi":45,"time":593.6497395833426,"velocity":0.8031496062992126,"duration":0.27864583333337123},{"name":"A#2","midi":46,"time":593.9388020833426,"velocity":0.8031496062992126,"duration":0.27604166666662877},{"name":"G5","midi":79,"time":593.9388020833426,"velocity":0.8031496062992126,"duration":0.41145833333325754},{"name":"G2","midi":43,"time":594.2265625000092,"velocity":0.8031496062992126,"duration":0.27864583333325754},{"name":"C3","midi":48,"time":594.5156250000091,"velocity":0.8031496062992126,"duration":0.5625},{"name":"F5","midi":77,"time":594.5156250000091,"velocity":0.8031496062992126,"duration":0.27604166666662877},{"name":"E5","midi":76,"time":594.8046875000091,"velocity":0.8031496062992126,"duration":0.26692708333337123},{"name":"D3","midi":50,"time":595.0924479166757,"velocity":0.8031496062992126,"duration":0.5625},{"name":"D5","midi":74,"time":595.0924479166757,"velocity":0.8031496062992126,"duration":0.27604166666662877},{"name":"C5","midi":72,"time":595.378906250009,"velocity":0.8031496062992126,"duration":0.26692708333337123},{"name":"E3","midi":52,"time":595.6679687500091,"velocity":0.8031496062992126,"duration":0.5625},{"name":"A#4","midi":70,"time":595.6679687500091,"velocity":0.8031496062992126,"duration":0.27604166666662877},{"name":"A4","midi":69,"time":595.9544270833424,"velocity":0.8031496062992126,"duration":0.26692708333337123},{"name":"F3","midi":53,"time":596.2434895833425,"velocity":0.8031496062992126,"duration":0.5625},{"name":"G4","midi":67,"time":596.2434895833425,"velocity":0.8031496062992126,"duration":0.27604166666662877},{"name":"A4","midi":69,"time":596.5299479166757,"velocity":0.8031496062992126,"duration":0.24348958333337123},{"name":"C3","midi":48,"time":596.8190104166758,"velocity":0.8031496062992126,"duration":0.5625},{"name":"A#4","midi":70,"time":596.8190104166758,"velocity":0.8031496062992126,"duration":0.27604166666662877},{"name":"A4","midi":69,"time":597.1067708333425,"velocity":0.8031496062992126,"duration":0.24348958333337123},{"name":"A2","midi":45,"time":597.3932291666758,"velocity":0.8031496062992126,"duration":0.5651041666666288},{"name":"G4","midi":67,"time":597.3932291666758,"velocity":0.8031496062992126,"duration":0.27604166666662877},{"name":"F4","midi":65,"time":597.6809895833425,"velocity":0.8031496062992126,"duration":0.20703125},{"name":"F2","midi":41,"time":597.9700520833425,"velocity":0.8031496062992126,"duration":0.5625},{"name":"A4","midi":69,"time":597.9700520833425,"velocity":0.8031496062992126,"duration":0.27604166666662877},{"name":"B4","midi":71,"time":598.2578125000091,"velocity":0.8031496062992126,"duration":0.27604166666674246},{"name":"F3","midi":53,"time":598.5455729166758,"velocity":0.8031496062992126,"duration":0.27864583333325754},{"name":"C5","midi":72,"time":598.5455729166758,"velocity":0.8031496062992126,"duration":0.1328125},{"name":"B4","midi":71,"time":598.6927083333425,"velocity":0.8031496062992126,"duration":0.1328125},{"name":"E3","midi":52,"time":598.8359375000091,"velocity":0.8031496062992126,"duration":0.27864583333337123},{"name":"C5","midi":72,"time":598.8359375000091,"velocity":0.8031496062992126,"duration":0.1328125},{"name":"B4","midi":71,"time":598.9817708333425,"velocity":0.8031496062992126,"duration":0.1328125},{"name":"F3","midi":53,"time":599.1263020833425,"velocity":0.8031496062992126,"duration":0.27864583333337123},{"name":"C5","midi":72,"time":599.1263020833425,"velocity":0.8031496062992126,"duration":0.1328125},{"name":"B4","midi":71,"time":599.2708333333425,"velocity":0.8031496062992126,"duration":0.1328125},{"name":"D3","midi":50,"time":599.4166666666758,"velocity":0.8031496062992126,"duration":0.27864583333337123},{"name":"A4","midi":69,"time":599.4166666666758,"velocity":0.8031496062992126,"duration":0.1328125},{"name":"B4","midi":71,"time":599.5611979166758,"velocity":0.8031496062992126,"duration":0.1328125},{"name":"E3","midi":52,"time":599.7057291666758,"velocity":0.8031496062992126,"duration":0.5625},{"name":"C5","midi":72,"time":599.7057291666758,"velocity":0.8031496062992126,"duration":0.27604166666662877},{"name":"D5","midi":74,"time":599.9934895833425,"velocity":0.8031496062992126,"duration":0.27604166666674246},{"name":"F3","midi":53,"time":600.2812500000092,"velocity":0.8031496062992126,"duration":0.5651041666665151},{"name":"E5","midi":76,"time":600.2812500000092,"velocity":0.8031496062992126,"duration":0.27604166666662877},{"name":"D5","midi":74,"time":600.5677083333425,"velocity":0.8031496062992126,"duration":0.26041666666662877},{"name":"G3","midi":55,"time":600.8580729166757,"velocity":0.8031496062992126,"duration":0.5624999999998863},{"name":"F5","midi":77,"time":600.8580729166757,"velocity":0.8031496062992126,"duration":0.27604166666662877},{"name":"E5","midi":76,"time":601.1458333333424,"velocity":0.8031496062992126,"duration":0.21354166666662877},{"name":"C3","midi":48,"time":601.4348958333422,"velocity":0.8031496062992126,"duration":0.27604166666662877},{"name":"E5","midi":76,"time":601.4348958333422,"velocity":0.8031496062992126,"duration":0.27604166666662877},{"name":"D3","midi":50,"time":601.7213541666755,"velocity":0.8031496062992126,"duration":0.27604166666662877},{"name":"F5","midi":77,"time":601.7213541666755,"velocity":0.8031496062992126,"duration":0.27604166666662877},{"name":"E3","midi":52,"time":602.0091145833421,"velocity":0.8031496062992126,"duration":0.27864583333337123},{"name":"G5","midi":79,"time":602.0091145833421,"velocity":0.8031496062992126,"duration":0.1328125},{"name":"F5","midi":77,"time":602.1536458333421,"velocity":0.8031496062992126,"duration":0.1328125},{"name":"D3","midi":50,"time":602.2981770833421,"velocity":0.8031496062992126,"duration":0.27864583333337123},{"name":"G5","midi":79,"time":602.2981770833421,"velocity":0.8031496062992126,"duration":0.1328125},{"name":"F5","midi":77,"time":602.4427083333421,"velocity":0.8031496062992126,"duration":0.1328125},{"name":"C3","midi":48,"time":602.5885416666755,"velocity":0.8031496062992126,"duration":0.27864583333337123},{"name":"G5","midi":79,"time":602.5885416666755,"velocity":0.8031496062992126,"duration":0.1328125},{"name":"F5","midi":77,"time":602.7330729166755,"velocity":0.8031496062992126,"duration":0.1328125},{"name":"D3","midi":50,"time":602.8789062500089,"velocity":0.8031496062992126,"duration":0.27864583333325754},{"name":"E5","midi":76,"time":602.8789062500089,"velocity":0.8031496062992126,"duration":0.1328125},{"name":"F5","midi":77,"time":603.0221354166755,"velocity":0.8031496062992126,"duration":0.1328125},{"name":"E3","midi":52,"time":603.1692708333421,"velocity":0.8031496062992126,"duration":0.27604166666662877},{"name":"G5","midi":79,"time":603.1692708333421,"velocity":0.8031496062992126,"duration":1.139322916666515},{"name":"D3","midi":50,"time":603.4570312500088,"velocity":0.8031496062992126,"duration":0.27604166666662877},{"name":"F3","midi":53,"time":603.7447916666754,"velocity":0.8031496062992126,"duration":0.27604166666662877},{"name":"E3","midi":52,"time":604.032552083342,"velocity":0.8031496062992126,"duration":0.27604166666662877},{"name":"D3","midi":50,"time":604.3190104166753,"velocity":0.8031496062992126,"duration":0.27604166666662877},{"name":"C3","midi":48,"time":604.6080729166753,"velocity":0.8031496062992126,"duration":0.27604166666662877},{"name":"F3","midi":53,"time":604.8945312500085,"velocity":0.8031496062992126,"duration":0.27604166666662877},{"name":"A5","midi":81,"time":604.8945312500085,"velocity":0.8031496062992126,"duration":0.5625},{"name":"E3","midi":52,"time":605.1835937500085,"velocity":0.8031496062992126,"duration":0.27604166666662877},{"name":"F3","midi":53,"time":605.4700520833418,"velocity":0.8031496062992126,"duration":1.4257812499998863},{"name":"D5","midi":74,"time":605.4700520833418,"velocity":0.8031496062992126,"duration":0.27604166666662877},{"name":"E5","midi":76,"time":605.7591145833418,"velocity":0.8031496062992126,"duration":0.27604166666662877},{"name":"F5","midi":77,"time":606.0468750000084,"velocity":0.8031496062992126,"duration":0.27604166666662877},{"name":"D5","midi":74,"time":606.3333333333417,"velocity":0.8031496062992126,"duration":0.27604166666662877},{"name":"G5","midi":79,"time":606.6223958333417,"velocity":0.8031496062992126,"duration":0.5013020833333712},{"name":"E3","midi":52,"time":606.908854166675,"velocity":0.8031496062992126,"duration":0.27864583333337123},{"name":"F3","midi":53,"time":607.1992187500084,"velocity":0.8031496062992126,"duration":0.27604166666662877},{"name":"B4","midi":71,"time":607.1992187500084,"velocity":0.8031496062992126,"duration":0.5013020833332575},{"name":"G3","midi":55,"time":607.4856770833417,"velocity":0.8031496062992126,"duration":0.27864583333337123},{"name":"A3","midi":57,"time":607.776041666675,"velocity":0.8031496062992126,"duration":0.27864583333337123},{"name":"C5","midi":72,"time":607.776041666675,"velocity":0.8031496062992126,"duration":0.1328125},{"name":"B4","midi":71,"time":607.9218750000084,"velocity":0.8031496062992126,"duration":0.1328125},{"name":"E3","midi":52,"time":608.065104166675,"velocity":0.8031496062992126,"duration":0.27604166666662877},{"name":"C5","midi":72,"time":608.065104166675,"velocity":0.8031496062992126,"duration":0.5143229166666288},{"name":"F3","midi":53,"time":608.354166666675,"velocity":0.8031496062992126,"duration":0.27864583333325754},{"name":"D3","midi":50,"time":608.6432291666749,"velocity":0.8031496062992126,"duration":0.27604166666662877},{"name":"F5","midi":77,"time":608.6432291666749,"velocity":0.8031496062992126,"duration":0.27604166666662877},{"name":"G3","midi":55,"time":608.9322916666749,"velocity":0.8031496062992126,"duration":0.5677083333334849},{"name":"E5","midi":76,"time":608.9322916666749,"velocity":0.8031496062992126,"duration":0.18229166666662877},{"name":"D5","midi":74,"time":609.1250000000082,"velocity":0.8031496062992126,"duration":0.08333333333337123},{"name":"E5","midi":76,"time":609.2213541666749,"velocity":0.8031496062992126,"duration":0.08333333333337123},{"name":"D5","midi":74,"time":609.3177083333417,"velocity":0.8031496062992126,"duration":0.08333333333337123},{"name":"E5","midi":76,"time":609.4140625000084,"velocity":0.8031496062992126,"duration":0.08333333333337123},{"name":"G2","midi":43,"time":609.5117187500084,"velocity":0.8031496062992126,"duration":0.5625},{"name":"D5","midi":74,"time":609.5117187500084,"velocity":0.8031496062992126,"duration":0.27604166666662877},{"name":"C5","midi":72,"time":609.799479166675,"velocity":0.8031496062992126,"duration":0.27604166666674246},{"name":"C3","midi":48,"time":610.0859375000084,"velocity":0.8031496062992126,"duration":0.5651041666666288},{"name":"C5","midi":72,"time":610.0859375000084,"velocity":0.8031496062992126,"duration":1.7200520833332575},{"name":"E3","midi":52,"time":610.662760416675,"velocity":0.8031496062992126,"duration":0.5651041666666288},{"name":"G3","midi":55,"time":611.2421875000083,"velocity":0.8031496062992126,"duration":0.5651041666667425},{"name":"C4","midi":60,"time":611.819010416675,"velocity":0.8031496062992126,"duration":0.27604166666662877},{"name":"E5","midi":76,"time":611.819010416675,"velocity":0.8031496062992126,"duration":0.27604166666662877},{"name":"A#3","midi":58,"time":612.108072916675,"velocity":0.8031496062992126,"duration":0.27604166666662877},{"name":"F5","midi":77,"time":612.108072916675,"velocity":0.8031496062992126,"duration":0.27604166666662877},{"name":"A3","midi":57,"time":612.3945312500083,"velocity":0.8031496062992126,"duration":0.27864583333337123},{"name":"G5","midi":79,"time":612.3945312500083,"velocity":0.8031496062992126,"duration":0.1328125},{"name":"F5","midi":77,"time":612.5390625000083,"velocity":0.8031496062992126,"duration":0.1328125},{"name":"G3","midi":55,"time":612.6848958333417,"velocity":0.8031496062992126,"duration":0.27864583333337123},{"name":"G5","midi":79,"time":612.6848958333417,"velocity":0.8031496062992126,"duration":0.1328125},{"name":"F5","midi":77,"time":612.8294270833417,"velocity":0.8031496062992126,"duration":0.1328125},{"name":"A3","midi":57,"time":612.9739583333417,"velocity":0.8031496062992126,"duration":0.27864583333337123},{"name":"G5","midi":79,"time":612.9739583333417,"velocity":0.8031496062992126,"duration":0.1328125},{"name":"F5","midi":77,"time":613.1184895833417,"velocity":0.8031496062992126,"duration":0.1328125},{"name":"F3","midi":53,"time":613.2630208333417,"velocity":0.8031496062992126,"duration":0.27864583333337123},{"name":"E5","midi":76,"time":613.2630208333417,"velocity":0.8031496062992126,"duration":0.1328125},{"name":"F5","midi":77,"time":613.408854166675,"velocity":0.8031496062992126,"duration":0.1328125},{"name":"C4","midi":60,"time":613.553385416675,"velocity":0.8031496062992126,"duration":0.5625},{"name":"G5","midi":79,"time":613.553385416675,"velocity":0.8031496062992126,"duration":0.27604166666662877},{"name":"F5","midi":77,"time":613.8411458333417,"velocity":0.8031496062992126,"duration":0.26692708333337123},{"name":"C3","midi":48,"time":614.1289062500084,"velocity":0.8031496062992126,"duration":0.5625},{"name":"E5","midi":76,"time":614.1289062500084,"velocity":0.8031496062992126,"duration":0.27604166666662877},{"name":"D5","midi":74,"time":614.416666666675,"velocity":0.8031496062992126,"duration":0.26692708333337123},{"name":"A#2","midi":46,"time":614.7044270833418,"velocity":0.8031496062992126,"duration":0.5625},{"name":"E5","midi":76,"time":614.7044270833418,"velocity":0.8031496062992126,"duration":0.27604166666662877},{"name":"C5","midi":72,"time":614.9921875000084,"velocity":0.8031496062992126,"duration":0.26692708333337123},{"name":"A2","midi":45,"time":615.2799479166752,"velocity":0.8031496062992126,"duration":0.27604166666662877},{"name":"F5","midi":77,"time":615.2799479166752,"velocity":0.8031496062992126,"duration":0.27604166666662877},{"name":"C3","midi":48,"time":615.5677083333418,"velocity":0.8031496062992126,"duration":0.27604166666662877},{"name":"G5","midi":79,"time":615.5677083333418,"velocity":0.8031496062992126,"duration":0.27604166666662877},{"name":"A#2","midi":46,"time":615.854166666675,"velocity":0.8031496062992126,"duration":0.27864583333337123},{"name":"A5","midi":81,"time":615.854166666675,"velocity":0.8031496062992126,"duration":0.1328125},{"name":"G5","midi":79,"time":616.0000000000084,"velocity":0.8031496062992126,"duration":0.1328125},{"name":"A2","midi":45,"time":616.1445312500084,"velocity":0.8031496062992126,"duration":0.27864583333337123},{"name":"A5","midi":81,"time":616.1445312500084,"velocity":0.8031496062992126,"duration":0.1328125},{"name":"G5","midi":79,"time":616.2903645833418,"velocity":0.8031496062992126,"duration":0.1328125},{"name":"A#2","midi":46,"time":616.4335937500084,"velocity":0.8031496062992126,"duration":0.27864583333325754},{"name":"A5","midi":81,"time":616.4335937500084,"velocity":0.8031496062992126,"duration":0.1328125},{"name":"G5","midi":79,"time":616.580729166675,"velocity":0.8031496062992126,"duration":0.1328125},{"name":"C3","midi":48,"time":616.7239583333417,"velocity":0.8031496062992126,"duration":0.27864583333337123},{"name":"F5","midi":77,"time":616.7239583333417,"velocity":0.8031496062992126,"duration":0.1328125},{"name":"G5","midi":79,"time":616.869791666675,"velocity":0.8031496062992126,"duration":0.1328125},{"name":"F2","midi":41,"time":617.014322916675,"velocity":0.8031496062992126,"duration":0.5651041666666288},{"name":"A5","midi":81,"time":617.014322916675,"velocity":0.8031496062992126,"duration":1.7161458333332575},{"name":"F3","midi":53,"time":617.592447916675,"velocity":0.8031496062992126,"duration":0.27604166666662877},{"name":"E3","midi":52,"time":617.8802083333417,"velocity":0.8031496062992126,"duration":0.27604166666662877},{"name":"F3","midi":53,"time":618.1679687500083,"velocity":0.8031496062992126,"duration":0.27604166666662877},{"name":"D3","midi":50,"time":618.4557291666749,"velocity":0.8031496062992126,"duration":0.27604166666674246},{"name":"C#3","midi":49,"time":618.7434895833417,"velocity":0.8031496062992126,"duration":0.27604166666662877},{"name":"A4","midi":69,"time":618.7434895833417,"velocity":0.8031496062992126,"duration":0.27604166666662877},{"name":"D3","midi":50,"time":619.0299479166749,"velocity":0.8031496062992126,"duration":0.27604166666662877},{"name":"B4","midi":71,"time":619.0299479166749,"velocity":0.8031496062992126,"duration":0.27604166666662877},{"name":"E3","midi":52,"time":619.3190104166749,"velocity":0.8031496062992126,"duration":0.27604166666662877},{"name":"C#5","midi":73,"time":619.3190104166749,"velocity":0.8031496062992126,"duration":0.41145833333325754},{"name":"G3","midi":55,"time":619.6054687500082,"velocity":0.8031496062992126,"duration":0.27864583333337123},{"name":"F3","midi":53,"time":619.8958333333416,"velocity":0.8031496062992126,"duration":0.27604166666662877},{"name":"D5","midi":74,"time":619.8958333333416,"velocity":0.8031496062992126,"duration":0.41145833333325754},{"name":"A3","midi":57,"time":620.1835937500082,"velocity":0.8031496062992126,"duration":0.27864583333325754},{"name":"A2","midi":45,"time":620.4752604166748,"velocity":0.8031496062992126,"duration":0.27604166666662877},{"name":"C#5","midi":73,"time":620.4752604166748,"velocity":0.8031496062992126,"duration":0.27604166666662877},{"name":"B2","midi":47,"time":620.7617187500081,"velocity":0.8031496062992126,"duration":0.27604166666662877},{"name":"D5","midi":74,"time":620.7617187500081,"velocity":0.8031496062992126,"duration":0.27604166666662877},{"name":"C#3","midi":49,"time":621.0494791666747,"velocity":0.8031496062992126,"duration":0.27604166666662877},{"name":"E5","midi":76,"time":621.0494791666747,"velocity":0.8031496062992126,"duration":0.41145833333325754},{"name":"E3","midi":52,"time":621.3372395833413,"velocity":0.8031496062992126,"duration":0.27864583333325754},{"name":"D3","midi":50,"time":621.628906250008,"velocity":0.8031496062992126,"duration":0.27604166666662877},{"name":"F5","midi":77,"time":621.628906250008,"velocity":0.8031496062992126,"duration":0.41145833333325754},{"name":"F3","midi":53,"time":621.9153645833412,"velocity":0.8031496062992126,"duration":0.27864583333337123},{"name":"A#2","midi":46,"time":622.2044270833412,"velocity":0.8031496062992126,"duration":0.5625},{"name":"F5","midi":77,"time":622.2044270833412,"velocity":0.8031496062992126,"duration":0.27604166666662877},{"name":"E5","midi":76,"time":622.4921875000078,"velocity":0.8031496062992126,"duration":0.27604166666674246},{"name":"G2","midi":43,"time":622.7799479166746,"velocity":0.8031496062992126,"duration":0.5625},{"name":"F5","midi":77,"time":622.7799479166746,"velocity":0.8031496062992126,"duration":0.27604166666662877},{"name":"E5","midi":76,"time":623.0677083333412,"velocity":0.8031496062992126,"duration":0.27604166666674246},{"name":"A2","midi":45,"time":623.3541666666746,"velocity":0.8031496062992126,"duration":0.5625},{"name":"D5","midi":74,"time":623.3541666666746,"velocity":0.8031496062992126,"duration":0.27604166666662877},{"name":"C#5","midi":73,"time":623.6432291666746,"velocity":0.8031496062992126,"duration":0.27604166666662877},{"name":"D2","midi":38,"time":623.9296875000078,"velocity":0.8031496062992126,"duration":0.27604166666662877},{"name":"D5","midi":74,"time":623.9296875000078,"velocity":0.8031496062992126,"duration":1.713541666666515},{"name":"A2","midi":45,"time":624.2187500000078,"velocity":0.8031496062992126,"duration":0.27604166666662877},{"name":"D3","midi":50,"time":624.5052083333411,"velocity":0.8031496062992126,"duration":0.27604166666662877},{"name":"E3","midi":52,"time":624.7929687500077,"velocity":0.8031496062992126,"duration":0.27604166666662877},{"name":"F3","midi":53,"time":625.0807291666744,"velocity":0.8031496062992126,"duration":0.27604166666662877},{"name":"G3","midi":55,"time":625.368489583341,"velocity":0.8031496062992126,"duration":0.27604166666674246},{"name":"A3","midi":57,"time":625.6562500000077,"velocity":0.8031496062992126,"duration":0.27604166666662877},{"name":"F5","midi":77,"time":625.6562500000077,"velocity":0.8031496062992126,"duration":0.5625},{"name":"G3","midi":55,"time":625.9440104166744,"velocity":0.8031496062992126,"duration":0.27604166666674246},{"name":"F3","midi":53,"time":626.2330729166745,"velocity":0.8031496062992126,"duration":0.27604166666662877},{"name":"D#5","midi":75,"time":626.2330729166745,"velocity":0.8031496062992126,"duration":0.27604166666662877},{"name":"G3","midi":55,"time":626.5195312500077,"velocity":0.8031496062992126,"duration":0.27604166666662877},{"name":"D5","midi":74,"time":626.5195312500077,"velocity":0.8031496062992126,"duration":0.27604166666662877},{"name":"A3","midi":57,"time":626.8072916666744,"velocity":0.8031496062992126,"duration":0.5625},{"name":"C5","midi":72,"time":626.8072916666744,"velocity":0.8031496062992126,"duration":0.27604166666662877},{"name":"D5","midi":74,"time":627.095052083341,"velocity":0.8031496062992126,"duration":0.27604166666674246},{"name":"A#3","midi":58,"time":627.3828125000077,"velocity":0.8031496062992126,"duration":0.5651041666666288},{"name":"D#5","midi":75,"time":627.3828125000077,"velocity":0.8031496062992126,"duration":0.27604166666662877},{"name":"D5","midi":74,"time":627.6705729166744,"velocity":0.8031496062992126,"duration":0.26041666666662877},{"name":"A#2","midi":46,"time":627.9609375000077,"velocity":0.8031496062992126,"duration":0.27604166666662877},{"name":"C5","midi":72,"time":627.9609375000077,"velocity":0.8031496062992126,"duration":0.27604166666662877},{"name":"F3","midi":53,"time":628.2486979166744,"velocity":0.8031496062992126,"duration":0.27864583333325754},{"name":"A#4","midi":70,"time":628.2486979166744,"velocity":0.8031496062992126,"duration":0.26041666666662877},{"name":"G3","midi":55,"time":628.5377604166742,"velocity":0.8031496062992126,"duration":0.27604166666662877},{"name":"D5","midi":74,"time":628.5377604166742,"velocity":0.8031496062992126,"duration":0.41145833333325754},{"name":"A3","midi":57,"time":628.8255208333409,"velocity":0.8031496062992126,"duration":0.27864583333325754},{"name":"A#3","midi":58,"time":629.1158854166741,"velocity":0.8031496062992126,"duration":0.27604166666662877},{"name":"G5","midi":79,"time":629.1158854166741,"velocity":0.8031496062992126,"duration":0.5625},{"name":"A3","midi":57,"time":629.4049479166741,"velocity":0.8031496062992126,"duration":0.27604166666662877},{"name":"G3","midi":55,"time":629.6914062500074,"velocity":0.8031496062992126,"duration":0.27604166666662877},{"name":"F5","midi":77,"time":629.6914062500074,"velocity":0.8031496062992126,"duration":0.27604166666662877},{"name":"A3","midi":57,"time":629.9778645833406,"velocity":0.8031496062992126,"duration":0.27604166666662877},{"name":"E5","midi":76,"time":629.9778645833406,"velocity":0.8031496062992126,"duration":0.27604166666662877},{"name":"B3","midi":59,"time":630.2669270833406,"velocity":0.8031496062992126,"duration":0.5625},{"name":"D5","midi":74,"time":630.2669270833406,"velocity":0.8031496062992126,"duration":0.27604166666662877},{"name":"E5","midi":76,"time":630.5546875000073,"velocity":0.8031496062992126,"duration":0.27604166666674246},{"name":"C4","midi":60,"time":630.842447916674,"velocity":0.8031496062992126,"duration":0.5651041666665151},{"name":"F5","midi":77,"time":630.842447916674,"velocity":0.8031496062992126,"duration":0.27604166666662877},{"name":"E5","midi":76,"time":631.1289062500073,"velocity":0.8031496062992126,"duration":0.26041666666662877},{"name":"C3","midi":48,"time":631.4205729166739,"velocity":0.8031496062992126,"duration":0.27604166666662877},{"name":"D5","midi":74,"time":631.4205729166739,"velocity":0.8031496062992126,"duration":0.27604166666662877},{"name":"D4","midi":62,"time":631.7083333333405,"velocity":0.8031496062992126,"duration":0.27864583333325754},{"name":"C5","midi":72,"time":631.7083333333405,"velocity":0.8031496062992126,"duration":0.26041666666662877},{"name":"C4","midi":60,"time":631.9973958333404,"velocity":0.8031496062992126,"duration":0.27604166666662877},{"name":"D5","midi":74,"time":631.9973958333404,"velocity":0.8031496062992126,"duration":0.27604166666662877},{"name":"A#3","midi":58,"time":632.285156250007,"velocity":0.8031496062992126,"duration":0.27604166666674246},{"name":"E5","midi":76,"time":632.285156250007,"velocity":0.8031496062992126,"duration":0.24348958333337123},{"name":"A3","midi":57,"time":632.5729166666738,"velocity":0.8031496062992126,"duration":0.27604166666662877},{"name":"F5","midi":77,"time":632.5729166666738,"velocity":0.8031496062992126,"duration":0.27604166666662877},{"name":"A#3","midi":58,"time":632.8606770833404,"velocity":0.8031496062992126,"duration":0.27604166666662877},{"name":"G5","midi":79,"time":632.8606770833404,"velocity":0.8031496062992126,"duration":0.27604166666662877},{"name":"A3","midi":57,"time":633.148437500007,"velocity":0.8031496062992126,"duration":0.27864583333337123},{"name":"A5","midi":81,"time":633.148437500007,"velocity":0.8031496062992126,"duration":0.1328125},{"name":"G5","midi":79,"time":633.2942708333404,"velocity":0.8031496062992126,"duration":0.1328125},{"name":"G3","midi":55,"time":633.4388020833404,"velocity":0.8031496062992126,"duration":0.27864583333337123},{"name":"A5","midi":81,"time":633.4388020833404,"velocity":0.8031496062992126,"duration":0.1328125},{"name":"G5","midi":79,"time":633.5833333333404,"velocity":0.8031496062992126,"duration":0.1328125},{"name":"F3","midi":53,"time":633.7291666666738,"velocity":0.8031496062992126,"duration":0.27864583333325754},{"name":"A5","midi":81,"time":633.7291666666738,"velocity":0.8031496062992126,"duration":0.1328125},{"name":"G5","midi":79,"time":633.8723958333404,"velocity":0.8031496062992126,"duration":0.1328125},{"name":"E3","midi":52,"time":634.019531250007,"velocity":0.8031496062992126,"duration":0.27864583333337123},{"name":"F5","midi":77,"time":634.019531250007,"velocity":0.8031496062992126,"duration":0.1328125},{"name":"G5","midi":79,"time":634.1614583333404,"velocity":0.8031496062992126,"duration":0.1328125},{"name":"F3","midi":53,"time":634.3072916666738,"velocity":0.8031496062992126,"duration":0.27604166666662877},{"name":"A5","midi":81,"time":634.3072916666738,"velocity":0.8031496062992126,"duration":0.27604166666662877},{"name":"G3","midi":55,"time":634.5950520833404,"velocity":0.8031496062992126,"duration":0.27604166666662877},{"name":"A#5","midi":82,"time":634.5950520833404,"velocity":0.8031496062992126,"duration":0.27604166666662877},{"name":"F3","midi":53,"time":634.882812500007,"velocity":0.8031496062992126,"duration":0.27604166666662877},{"name":"C6","midi":84,"time":634.882812500007,"velocity":0.8031496062992126,"duration":0.8580729166665151},{"name":"E3","midi":52,"time":635.1692708333403,"velocity":0.8031496062992126,"duration":0.27604166666662877},{"name":"D3","midi":50,"time":635.4583333333403,"velocity":0.8031496062992126,"duration":0.27604166666662877},{"name":"C5","midi":72,"time":635.4583333333403,"velocity":0.8031496062992126,"duration":0.41145833333325754},{"name":"C3","midi":48,"time":635.7447916666736,"velocity":0.8031496062992126,"duration":0.27864583333337123},{"name":"A#2","midi":46,"time":636.0364583333403,"velocity":0.8031496062992126,"duration":0.27604166666662877},{"name":"D5","midi":74,"time":636.0364583333403,"velocity":0.8031496062992126,"duration":0.5624999999998863},{"name":"A2","midi":45,"time":636.3229166666736,"velocity":0.8031496062992126,"duration":0.27604166666662877},{"name":"G2","midi":43,"time":636.6106770833402,"velocity":0.8031496062992126,"duration":0.5651041666666288},{"name":"E5","midi":76,"time":636.6106770833402,"velocity":0.8031496062992126,"duration":0.1328125},{"name":"F5","midi":77,"time":636.7565104166736,"velocity":0.8031496062992126,"duration":0.1328125},{"name":"G5","midi":79,"time":636.8997395833402,"velocity":0.8031496062992126,"duration":0.27604166666662877},{"name":"C3","midi":48,"time":637.1901041666734,"velocity":0.8031496062992126,"duration":0.5624999999998863},{"name":"F5","midi":77,"time":637.1901041666734,"velocity":0.8031496062992126,"duration":0.27604166666662877},{"name":"E5","midi":76,"time":637.4765625000067,"velocity":0.8031496062992126,"duration":0.27604166666662877},{"name":"F2","midi":41,"time":637.7643229166733,"velocity":0.8031496062992126,"duration":0.5651041666666288},{"name":"F5","midi":77,"time":637.7643229166733,"velocity":0.8031496062992126,"duration":1.1432291666666288},{"name":"C3","midi":48,"time":638.34114583334,"velocity":0.8031496062992126,"duration":0.5651041666666288},{"name":"F3","midi":53,"time":638.91927083334,"velocity":0.8031496062992126,"duration":0.5651041666666288},{"name":"D3","midi":50,"time":639.4960937500066,"velocity":0.8031496062992126,"duration":0.27604166666662877},{"name":"F5","midi":77,"time":639.4960937500066,"velocity":0.8031496062992126,"duration":0.5625},{"name":"A3","midi":57,"time":639.7851562500066,"velocity":0.8031496062992126,"duration":0.27604166666662877},{"name":"E3","midi":52,"time":640.0716145833399,"velocity":0.8031496062992126,"duration":0.27604166666662877},{"name":"E5","midi":76,"time":640.0716145833399,"velocity":0.8031496062992126,"duration":0.5625},{"name":"A3","midi":57,"time":640.3606770833399,"velocity":0.8031496062992126,"duration":0.27604166666662877},{"name":"F3","midi":53,"time":640.6484375000065,"velocity":0.8031496062992126,"duration":0.27604166666662877},{"name":"D5","midi":74,"time":640.6484375000065,"velocity":0.8031496062992126,"duration":0.5624999999998863},{"name":"A3","midi":57,"time":640.9348958333397,"velocity":0.8031496062992126,"duration":0.27604166666662877},{"name":"G3","midi":55,"time":641.2239583333397,"velocity":0.8031496062992126,"duration":0.27864583333325754},{"name":"D5","midi":74,"time":641.2239583333397,"velocity":0.8031496062992126,"duration":0.27604166666662877},{"name":"A3","midi":57,"time":641.5117187500064,"velocity":0.8031496062992126,"duration":0.2786458333334849},{"name":"C#5","midi":73,"time":641.5117187500064,"velocity":0.8031496062992126,"duration":0.08333333333337123},{"name":"D5","midi":74,"time":641.6106770833397,"velocity":0.8031496062992126,"duration":0.08333333333337123},{"name":"C#5","midi":73,"time":641.7070312500065,"velocity":0.8031496062992126,"duration":0.07942708333337123},{"name":"F3","midi":53,"time":641.8033854166732,"velocity":0.8031496062992126,"duration":0.27604166666662877},{"name":"C#5","midi":73,"time":641.8033854166732,"velocity":0.8031496062992126,"duration":0.5625},{"name":"A3","midi":57,"time":642.0911458333399,"velocity":0.8031496062992126,"duration":0.27604166666674246},{"name":"E3","midi":52,"time":642.3789062500066,"velocity":0.8031496062992126,"duration":0.27604166666662877},{"name":"D5","midi":74,"time":642.3789062500066,"velocity":0.8031496062992126,"duration":0.5624999999998863},{"name":"A3","midi":57,"time":642.6653645833399,"velocity":0.8031496062992126,"duration":0.27604166666662877},{"name":"F3","midi":53,"time":642.9557291666731,"velocity":0.8031496062992126,"duration":0.27604166666662877},{"name":"A4","midi":69,"time":642.9557291666731,"velocity":0.8031496062992126,"duration":0.5624999999998863},{"name":"A3","midi":57,"time":643.2421875000064,"velocity":0.8031496062992126,"duration":0.27604166666662877},{"name":"G3","midi":55,"time":643.5286458333396,"velocity":0.8031496062992126,"duration":0.27604166666662877},{"name":"A#4","midi":70,"time":643.5286458333396,"velocity":0.8031496062992126,"duration":0.27604166666662877},{"name":"F3","midi":53,"time":643.8164062500063,"velocity":0.8031496062992126,"duration":0.27604166666662877},{"name":"A4","midi":69,"time":643.8164062500063,"velocity":0.8031496062992126,"duration":0.27604166666662877},{"name":"E3","midi":52,"time":644.1054687500063,"velocity":0.8031496062992126,"duration":0.27604166666662877},{"name":"G4","midi":67,"time":644.1054687500063,"velocity":0.8031496062992126,"duration":0.27604166666662877},{"name":"D3","midi":50,"time":644.3932291666729,"velocity":0.8031496062992126,"duration":0.27604166666662877},{"name":"A#4","midi":70,"time":644.3932291666729,"velocity":0.8031496062992126,"duration":0.27604166666662877},{"name":"D3","midi":50,"time":644.6796875000061,"velocity":0.8031496062992126,"duration":0.1328125},{"name":"A4","midi":69,"time":644.6796875000061,"velocity":0.8031496062992126,"duration":0.5677083333333712},{"name":"C#3","midi":49,"time":644.8242187500061,"velocity":0.8031496062992126,"duration":0.1328125},{"name":"D3","midi":50,"time":644.9700520833395,"velocity":0.8031496062992126,"duration":0.1328125},{"name":"C#3","midi":49,"time":645.1145833333395,"velocity":0.8031496062992126,"duration":0.1328125},{"name":"D3","midi":50,"time":645.2604166666729,"velocity":0.8031496062992126,"duration":0.8528645833331439},{"name":"G4","midi":67,"time":645.2604166666729,"velocity":0.8031496062992126,"duration":0.27604166666662877},{"name":"F4","midi":65,"time":645.5481770833395,"velocity":0.8031496062992126,"duration":0.27604166666662877},{"name":"E4","midi":64,"time":645.8346354166728,"velocity":0.8031496062992126,"duration":0.27604166666662877},{"name":"D4","midi":62,"time":646.121093750006,"velocity":0.8031496062992126,"duration":0.27604166666662877},{"name":"D3","midi":50,"time":646.410156250006,"velocity":0.8031496062992126,"duration":0.27604166666662877},{"name":"F5","midi":77,"time":646.410156250006,"velocity":0.8031496062992126,"duration":0.5624999999998863},{"name":"D4","midi":62,"time":646.6966145833393,"velocity":0.8031496062992126,"duration":0.27604166666662877},{"name":"E3","midi":52,"time":646.9856770833393,"velocity":0.8031496062992126,"duration":0.27604166666662877},{"name":"E5","midi":76,"time":646.9856770833393,"velocity":0.8031496062992126,"duration":0.5625},{"name":"D4","midi":62,"time":647.2734375000059,"velocity":0.8031496062992126,"duration":0.27604166666674246},{"name":"F3","midi":53,"time":647.5611979166727,"velocity":0.8031496062992126,"duration":0.27604166666662877},{"name":"D5","midi":74,"time":647.5611979166727,"velocity":0.8031496062992126,"duration":0.5625},{"name":"D4","midi":62,"time":647.8489583333393,"velocity":0.8031496062992126,"duration":0.27604166666674246},{"name":"G3","midi":55,"time":648.136718750006,"velocity":0.8031496062992126,"duration":1.1393229166666288},{"name":"A#5","midi":82,"time":648.136718750006,"velocity":0.8031496062992126,"duration":0.5625},{"name":"D4","midi":62,"time":648.4244791666727,"velocity":0.8031496062992126,"duration":0.27604166666674246},{"name":"C#4","midi":61,"time":648.710937500006,"velocity":0.8031496062992126,"duration":0.27604166666662877},{"name":"A5","midi":81,"time":648.710937500006,"velocity":0.8031496062992126,"duration":1.7135416666666288},{"name":"A3","midi":57,"time":649.000000000006,"velocity":0.8031496062992126,"duration":0.27604166666662877},{"name":"D4","midi":62,"time":649.2864583333393,"velocity":0.8031496062992126,"duration":0.5598958333333712},{"name":"F3","midi":53,"time":649.5755208333393,"velocity":0.8031496062992126,"duration":0.27604166666674246},{"name":"A#3","midi":58,"time":649.8619791666727,"velocity":0.8031496062992126,"duration":1.713541666666515},{"name":"C#4","midi":61,"time":650.1510416666727,"velocity":0.8031496062992126,"duration":0.27604166666662877},{"name":"D4","midi":62,"time":650.4388020833393,"velocity":0.8031496062992126,"duration":0.27604166666662877},{"name":"G5","midi":79,"time":650.4388020833393,"velocity":0.8031496062992126,"duration":0.27604166666662877},{"name":"E4","midi":64,"time":650.7252604166725,"velocity":0.8031496062992126,"duration":0.27604166666662877},{"name":"F5","midi":77,"time":650.7252604166725,"velocity":0.8031496062992126,"duration":0.27604166666662877},{"name":"F4","midi":65,"time":651.0143229166725,"velocity":0.8031496062992126,"duration":0.27604166666662877},{"name":"E5","midi":76,"time":651.0143229166725,"velocity":0.8031496062992126,"duration":0.27604166666662877},{"name":"G4","midi":67,"time":651.3007812500058,"velocity":0.8031496062992126,"duration":0.27604166666674246},{"name":"D5","midi":74,"time":651.3007812500058,"velocity":0.8031496062992126,"duration":0.27864583333337123},{"name":"D5","midi":74,"time":651.5924479166725,"velocity":0.8031496062992126,"duration":0.5598958333333712},{"name":"A4","midi":69,"time":651.5924479166725,"velocity":0.8031496062992126,"duration":1.7187500000001137},{"name":"F4","midi":65,"time":651.8789062500059,"velocity":0.8031496062992126,"duration":0.27604166666662877},{"name":"E4","midi":64,"time":652.1666666666725,"velocity":0.8031496062992126,"duration":0.2786458333334849},{"name":"C#5","midi":73,"time":652.1666666666725,"velocity":0.8031496062992126,"duration":0.08333333333337123},{"name":"D5","midi":74,"time":652.2643229166725,"velocity":0.8031496062992126,"duration":0.08333333333337123},{"name":"C#5","midi":73,"time":652.3606770833393,"velocity":0.8031496062992126,"duration":0.08333333333337123},{"name":"D4","midi":62,"time":652.4557291666727,"velocity":0.8031496062992126,"duration":0.27864583333337123},{"name":"D5","midi":74,"time":652.4557291666727,"velocity":0.8031496062992126,"duration":0.08333333333337123},{"name":"C#5","midi":73,"time":652.5533854166727,"velocity":0.8031496062992126,"duration":0.08333333333337123},{"name":"D5","midi":74,"time":652.6510416666727,"velocity":0.8031496062992126,"duration":0.08333333333337123},{"name":"C#4","midi":61,"time":652.7473958333394,"velocity":0.8031496062992126,"duration":0.27604166666662877},{"name":"C#5","midi":73,"time":652.7473958333394,"velocity":0.8031496062992126,"duration":0.5013020833332575},{"name":"B3","midi":59,"time":653.035156250006,"velocity":0.8031496062992126,"duration":0.27864583333325754},{"name":"A3","midi":57,"time":653.3255208333393,"velocity":0.8031496062992126,"duration":0.27604166666662877},{"name":"E5","midi":76,"time":653.3255208333393,"velocity":0.8031496062992126,"duration":0.5624999999998863},{"name":"C#5","midi":73,"time":653.3255208333393,"velocity":0.8031496062992126,"duration":1.7135416666664014},{"name":"A#3","midi":58,"time":653.6119791666725,"velocity":0.8031496062992126,"duration":0.27604166666662877},{"name":"A3","midi":57,"time":653.8997395833392,"velocity":0.8031496062992126,"duration":0.27604166666662877},{"name":"F5","midi":77,"time":653.8997395833392,"velocity":0.8031496062992126,"duration":0.27604166666662877},{"name":"G3","midi":55,"time":654.1875000000058,"velocity":0.8031496062992126,"duration":0.27604166666662877},{"name":"E5","midi":76,"time":654.1875000000058,"velocity":0.8031496062992126,"duration":0.27604166666662877},{"name":"F3","midi":53,"time":654.4752604166724,"velocity":0.8031496062992126,"duration":0.27604166666662877},{"name":"D5","midi":74,"time":654.4752604166724,"velocity":0.8031496062992126,"duration":0.27604166666662877},{"name":"E3","midi":52,"time":654.763020833339,"velocity":0.8031496062992126,"duration":0.27864583333325754},{"name":"E5","midi":76,"time":654.763020833339,"velocity":0.8031496062992126,"duration":0.27864583333325754},{"name":"D3","midi":50,"time":655.0533854166723,"velocity":0.8031496062992126,"duration":0.27604166666662877},{"name":"F5","midi":77,"time":655.0533854166723,"velocity":0.8031496062992126,"duration":0.5625},{"name":"E3","midi":52,"time":655.3411458333389,"velocity":0.8031496062992126,"duration":0.27604166666674246},{"name":"F3","midi":53,"time":655.6276041666723,"velocity":0.8031496062992126,"duration":0.27604166666662877},{"name":"A#4","midi":70,"time":655.6276041666723,"velocity":0.8031496062992126,"duration":1.713541666666515},{"name":"G3","midi":55,"time":655.9166666666723,"velocity":0.8031496062992126,"duration":0.27604166666662877},{"name":"A3","midi":57,"time":656.2044270833389,"velocity":0.8031496062992126,"duration":0.27604166666662877},{"name":"A#3","midi":58,"time":656.4908854166722,"velocity":0.8031496062992126,"duration":0.27604166666662877},{"name":"C4","midi":60,"time":656.7786458333388,"velocity":0.8031496062992126,"duration":1.7135416666666288},{"name":"E3","midi":52,"time":657.0664062500055,"velocity":0.8031496062992126,"duration":0.27604166666674246},{"name":"F3","midi":53,"time":657.3554687500056,"velocity":0.8031496062992126,"duration":0.27604166666662877},{"name":"A4","midi":69,"time":657.3554687500056,"velocity":0.8031496062992126,"duration":0.27604166666662877},{"name":"E3","midi":52,"time":657.6419270833388,"velocity":0.8031496062992126,"duration":0.27604166666662877},{"name":"G4","midi":67,"time":657.6419270833388,"velocity":0.8031496062992126,"duration":0.27604166666662877},{"name":"F3","midi":53,"time":657.9309895833388,"velocity":0.8031496062992126,"duration":0.27604166666662877},{"name":"A4","midi":69,"time":657.9309895833388,"velocity":0.8031496062992126,"duration":0.27604166666662877},{"name":"D3","midi":50,"time":658.2187500000055,"velocity":0.8031496062992126,"duration":0.27864583333337123},{"name":"F4","midi":65,"time":658.2187500000055,"velocity":0.8031496062992126,"duration":0.27864583333337123},{"name":"E3","midi":52,"time":658.5091145833388,"velocity":0.8031496062992126,"duration":0.27604166666662877},{"name":"G4","midi":67,"time":658.5091145833388,"velocity":0.8031496062992126,"duration":0.5624999999998863},{"name":"F3","midi":53,"time":658.7955729166721,"velocity":0.8031496062992126,"duration":0.27604166666662877},{"name":"E3","midi":52,"time":659.0820312500053,"velocity":0.8031496062992126,"duration":0.27604166666662877},{"name":"C4","midi":60,"time":659.0820312500053,"velocity":0.8031496062992126,"duration":0.5624999999998863},{"name":"D3","midi":50,"time":659.3723958333386,"velocity":0.8031496062992126,"duration":0.27604166666662877},{"name":"C3","midi":48,"time":659.6588541666719,"velocity":0.8031496062992126,"duration":0.27604166666662877},{"name":"C5","midi":72,"time":659.6588541666719,"velocity":0.8031496062992126,"duration":1.1393229166666288},{"name":"A#2","midi":46,"time":659.9466145833385,"velocity":0.8031496062992126,"duration":0.27604166666662877},{"name":"A2","midi":45,"time":660.2330729166717,"velocity":0.8031496062992126,"duration":1.7135416666666288},{"name":"A#2","midi":46,"time":660.5234375000051,"velocity":0.8031496062992126,"duration":0.27604166666674246},{"name":"C3","midi":48,"time":660.8098958333385,"velocity":0.8031496062992126,"duration":0.5624999999998863},{"name":"A#4","midi":70,"time":660.8098958333385,"velocity":0.8031496062992126,"duration":0.27604166666662877},{"name":"A4","midi":69,"time":661.0963541666717,"velocity":0.8031496062992126,"duration":0.27604166666662877},{"name":"F3","midi":53,"time":661.3854166666717,"velocity":0.8031496062992126,"duration":0.8541666666666288},{"name":"G4","midi":67,"time":661.3854166666717,"velocity":0.8031496062992126,"duration":0.27604166666662877},{"name":"F4","midi":65,"time":661.6731770833384,"velocity":0.8031496062992126,"duration":0.27864583333337123},{"name":"A#2","midi":46,"time":661.9622395833384,"velocity":0.8031496062992126,"duration":1.7187500000002274},{"name":"D#5","midi":75,"time":661.9622395833384,"velocity":0.8031496062992126,"duration":0.5768229166667425},{"name":"G3","midi":55,"time":662.2486979166717,"velocity":0.8031496062992126,"duration":0.27604166666662877},{"name":"F3","midi":53,"time":662.5377604166717,"velocity":0.8031496062992126,"duration":0.2786458333334849},{"name":"D5","midi":74,"time":662.5377604166717,"velocity":0.8031496062992126,"duration":0.08333333333337123},{"name":"D#5","midi":75,"time":662.6341145833385,"velocity":0.8031496062992126,"duration":0.08333333333337123},{"name":"D5","midi":74,"time":662.7304687500052,"velocity":0.8031496062992126,"duration":0.08333333333337123},{"name":"D#3","midi":51,"time":662.8268229166719,"velocity":0.8031496062992126,"duration":0.2786458333334849},{"name":"D#5","midi":75,"time":662.8268229166719,"velocity":0.8031496062992126,"duration":0.08333333333337123},{"name":"D5","midi":74,"time":662.9231770833386,"velocity":0.8031496062992126,"duration":0.08333333333337123},{"name":"D#5","midi":75,"time":663.0195312500053,"velocity":0.8031496062992126,"duration":0.08333333333337123},{"name":"D3","midi":50,"time":663.1171875000053,"velocity":0.8031496062992126,"duration":0.27604166666662877},{"name":"D5","midi":74,"time":663.1171875000053,"velocity":0.8031496062992126,"duration":1.1419270833331439},{"name":"C3","midi":48,"time":663.404947916672,"velocity":0.8031496062992126,"duration":0.27864583333325754},{"name":"B2","midi":47,"time":663.6953125000052,"velocity":0.8031496062992126,"duration":1.7135416666666288},{"name":"C3","midi":48,"time":663.9830729166719,"velocity":0.8031496062992126,"duration":0.27604166666662877},{"name":"D3","midi":50,"time":664.2695312500051,"velocity":0.8031496062992126,"duration":0.5625},{"name":"C5","midi":72,"time":664.2695312500051,"velocity":0.8031496062992126,"duration":0.27604166666662877},{"name":"B4","midi":71,"time":664.5572916666717,"velocity":0.8031496062992126,"duration":0.27604166666674246},{"name":"G3","midi":55,"time":664.8450520833385,"velocity":0.8031496062992126,"duration":0.8541666666666288},{"name":"A4","midi":69,"time":664.8450520833385,"velocity":0.8031496062992126,"duration":0.27604166666662877},{"name":"G4","midi":67,"time":665.1341145833385,"velocity":0.8031496062992126,"duration":0.27864583333337123},{"name":"C3","midi":48,"time":665.4231770833385,"velocity":0.8031496062992126,"duration":1.7265625000001137},{"name":"F5","midi":77,"time":665.4231770833385,"velocity":0.8031496062992126,"duration":0.42057291666662877},{"name":"A3","midi":57,"time":665.7109375000051,"velocity":0.8031496062992126,"duration":0.27864583333337123},{"name":"E5","midi":76,"time":665.8567708333385,"velocity":0.8031496062992126,"duration":0.1328125},{"name":"G3","midi":55,"time":666.0000000000051,"velocity":0.8031496062992126,"duration":0.28255208333337123},{"name":"D5","midi":74,"time":666.0000000000051,"velocity":0.8031496062992126,"duration":0.07161458333337123},{"name":"E5","midi":76,"time":666.0833333333385,"velocity":0.8031496062992126,"duration":0.07161458333337123},{"name":"F5","midi":77,"time":666.1692708333385,"velocity":0.8031496062992126,"duration":0.07161458333337123},{"name":"E5","midi":76,"time":666.2526041666719,"velocity":0.8031496062992126,"duration":0.07161458333325754},{"name":"F3","midi":53,"time":666.2942708333385,"velocity":0.8031496062992126,"duration":0.27994791666674246},{"name":"F5","midi":77,"time":666.3372395833385,"velocity":0.8031496062992126,"duration":0.07161458333337123},{"name":"E5","midi":76,"time":666.4218750000052,"velocity":0.8031496062992126,"duration":0.07161458333337123},{"name":"F5","midi":77,"time":666.5039062500052,"velocity":0.8031496062992126,"duration":0.07161458333337123},{"name":"E3","midi":52,"time":666.5872395833386,"velocity":0.8031496062992126,"duration":0.27604166666662877},{"name":"E5","midi":76,"time":666.5872395833386,"velocity":0.8031496062992126,"duration":0.7135416666666288},{"name":"D3","midi":50,"time":666.8750000000052,"velocity":0.8031496062992126,"duration":0.27864583333337123},{"name":"C3","midi":48,"time":667.1640625000052,"velocity":0.8031496062992126,"duration":0.27864583333337123},{"name":"E3","midi":52,"time":667.4531250000052,"velocity":0.8031496062992126,"duration":0.27604166666662877},{"name":"G5","midi":79,"time":667.4531250000052,"velocity":0.8031496062992126,"duration":0.27604166666662877},{"name":"D3","midi":50,"time":667.7408854166719,"velocity":0.8031496062992126,"duration":0.27604166666662877},{"name":"F5","midi":77,"time":667.7408854166719,"velocity":0.8031496062992126,"duration":0.27604166666662877},{"name":"C3","midi":48,"time":668.0299479166719,"velocity":0.8031496062992126,"duration":0.27604166666662877},{"name":"E5","midi":76,"time":668.0299479166719,"velocity":0.8031496062992126,"duration":0.27604166666662877},{"name":"A#2","midi":46,"time":668.3164062500051,"velocity":0.8031496062992126,"duration":0.27604166666662877},{"name":"D5","midi":74,"time":668.3164062500051,"velocity":0.8031496062992126,"duration":0.27604166666662877},{"name":"A2","midi":45,"time":668.6028645833384,"velocity":0.8031496062992126,"duration":0.27604166666662877},{"name":"C5","midi":72,"time":668.6028645833384,"velocity":0.8031496062992126,"duration":0.27604166666662877},{"name":"G2","midi":43,"time":668.8932291666716,"velocity":0.8031496062992126,"duration":0.27604166666662877},{"name":"A#5","midi":82,"time":668.8932291666716,"velocity":0.8031496062992126,"duration":0.5624999999998863},{"name":"D3","midi":50,"time":669.1796875000049,"velocity":0.8031496062992126,"duration":0.27604166666662877},{"name":"E3","midi":52,"time":669.4674479166715,"velocity":0.8031496062992126,"duration":0.27604166666662877},{"name":"A5","midi":81,"time":669.4674479166715,"velocity":0.8031496062992126,"duration":0.27604166666662877},{"name":"C3","midi":48,"time":669.7552083333381,"velocity":0.8031496062992126,"duration":0.27604166666662877},{"name":"G5","midi":79,"time":669.7552083333381,"velocity":0.8031496062992126,"duration":0.27604166666662877},{"name":"F3","midi":53,"time":670.0442708333381,"velocity":0.8031496062992126,"duration":0.27604166666662877},{"name":"A5","midi":81,"time":670.0442708333381,"velocity":0.8031496062992126,"duration":0.27604166666662877},{"name":"A2","midi":45,"time":670.3307291666714,"velocity":0.8031496062992126,"duration":0.27604166666662877},{"name":"F5","midi":77,"time":670.3307291666714,"velocity":0.8031496062992126,"duration":0.27604166666662877},{"name":"A#2","midi":46,"time":670.6171875000047,"velocity":0.8031496062992126,"duration":0.27604166666662877},{"name":"D5","midi":74,"time":670.6171875000047,"velocity":0.8031496062992126,"duration":0.5625},{"name":"D3","midi":50,"time":670.9062500000047,"velocity":0.8031496062992126,"duration":0.27604166666662877},{"name":"G2","midi":43,"time":671.1940104166713,"velocity":0.8031496062992126,"duration":0.27604166666662877},{"name":"G5","midi":79,"time":671.1940104166713,"velocity":0.8031496062992126,"duration":0.5625},{"name":"A#4","midi":70,"time":671.1940104166713,"velocity":0.8031496062992126,"duration":0.5625},{"name":"A#2","midi":46,"time":671.4817708333379,"velocity":0.8031496062992126,"duration":0.27604166666674246},{"name":"C3","midi":48,"time":671.7682291666713,"velocity":0.8031496062992126,"duration":0.27604166666662877},{"name":"E5","midi":76,"time":671.7682291666713,"velocity":0.8031496062992126,"duration":0.5624999999998863},{"name":"G4","midi":67,"time":671.7682291666713,"velocity":0.8031496062992126,"duration":0.5624999999998863},{"name":"C2","midi":36,"time":672.0585937500045,"velocity":0.8031496062992126,"duration":0.27604166666662877},{"name":"F2","midi":41,"time":672.3450520833378,"velocity":0.8031496062992126,"duration":0.27604166666662877},{"name":"A4","midi":69,"time":672.3450520833378,"velocity":0.8031496062992126,"duration":1.139322916666515},{"name":"F5","midi":77,"time":672.3450520833378,"velocity":0.8031496062992126,"duration":1.7135416666664014},{"name":"A2","midi":45,"time":672.6315104166711,"velocity":0.8031496062992126,"duration":0.27604166666662877},{"name":"A#2","midi":46,"time":672.9205729166711,"velocity":0.8031496062992126,"duration":0.27604166666662877},{"name":"C3","midi":48,"time":673.2083333333377,"velocity":0.8031496062992126,"duration":0.27604166666662877},{"name":"D3","midi":50,"time":673.4960937500043,"velocity":0.8031496062992126,"duration":0.27604166666662877},{"name":"E3","midi":52,"time":673.7825520833376,"velocity":0.8031496062992126,"duration":0.27604166666662877},{"name":"F3","midi":53,"time":674.0716145833376,"velocity":0.8031496062992126,"duration":0.27604166666662877},{"name":"A4","midi":69,"time":674.0716145833376,"velocity":0.8031496062992126,"duration":0.5625},{"name":"A3","midi":57,"time":674.3593750000042,"velocity":0.8031496062992126,"duration":0.27604166666674246},{"name":"G3","midi":55,"time":674.647135416671,"velocity":0.8031496062992126,"duration":0.27864583333337123},{"name":"C5","midi":72,"time":674.647135416671,"velocity":0.8031496062992126,"duration":0.1328125},{"name":"B4","midi":71,"time":674.7929687500043,"velocity":0.8031496062992126,"duration":0.1328125},{"name":"F3","midi":53,"time":674.936197916671,"velocity":0.8031496062992126,"duration":0.27864583333337123},{"name":"A4","midi":69,"time":674.936197916671,"velocity":0.8031496062992126,"duration":0.1328125},{"name":"B4","midi":71,"time":675.0820312500043,"velocity":0.8031496062992126,"duration":0.1328125},{"name":"E3","midi":52,"time":675.225260416671,"velocity":0.8031496062992126,"duration":0.27604166666662877},{"name":"C5","midi":72,"time":675.225260416671,"velocity":0.8031496062992126,"duration":0.5013020833333712},{"name":"D3","midi":50,"time":675.514322916671,"velocity":0.8031496062992126,"duration":0.27864583333337123},{"name":"G3","midi":55,"time":675.803385416671,"velocity":0.8031496062992126,"duration":0.27604166666662877},{"name":"B4","midi":71,"time":675.803385416671,"velocity":0.8031496062992126,"duration":0.41145833333337123},{"name":"F3","midi":53,"time":676.092447916671,"velocity":0.8031496062992126,"duration":0.27864583333337123},{"name":"E3","midi":52,"time":676.381510416671,"velocity":0.8031496062992126,"duration":0.27604166666662877},{"name":"G5","midi":79,"time":676.381510416671,"velocity":0.8031496062992126,"duration":1.713541666666515},{"name":"D3","midi":50,"time":676.670572916671,"velocity":0.8031496062992126,"duration":0.27604166666662877},{"name":"C#3","midi":49,"time":676.9570312500042,"velocity":0.8031496062992126,"duration":0.27604166666662877},{"name":"B2","midi":47,"time":677.2447916666708,"velocity":0.8031496062992126,"duration":0.27604166666662877},{"name":"C#3","midi":49,"time":677.5325520833375,"velocity":0.8031496062992126,"duration":0.5598958333333712},{"name":"E3","midi":52,"time":677.8216145833375,"velocity":0.8031496062992126,"duration":0.27604166666662877},{"name":"D3","midi":50,"time":678.1080729166707,"velocity":0.8031496062992126,"duration":0.5625},{"name":"A3","midi":57,"time":678.1080729166707,"velocity":0.8031496062992126,"duration":0.5625},{"name":"F5","midi":77,"time":678.1080729166707,"velocity":0.8031496062992126,"duration":0.27604166666662877},{"name":"E5","midi":76,"time":678.3958333333374,"velocity":0.8031496062992126,"duration":0.27604166666674246},{"name":"G3","midi":55,"time":678.6848958333375,"velocity":0.8031496062992126,"duration":0.5624999999998863},{"name":"A#2","midi":46,"time":678.6848958333375,"velocity":0.8031496062992126,"duration":0.5624999999998863},{"name":"F5","midi":77,"time":678.6848958333375,"velocity":0.8031496062992126,"duration":0.27604166666662877},{"name":"D5","midi":74,"time":678.9713541666707,"velocity":0.8031496062992126,"duration":0.27604166666662877},{"name":"A2","midi":45,"time":679.2591145833374,"velocity":0.8031496062992126,"duration":0.5013020833332575},{"name":"E5","midi":76,"time":679.2591145833374,"velocity":0.8031496062992126,"duration":0.5651041666666288},{"name":"A3","midi":57,"time":679.546875000004,"velocity":0.8031496062992126,"duration":0.5611979166666288},{"name":"B2","midi":47,"time":679.8385416666706,"velocity":0.8031496062992126,"duration":0.27604166666662877},{"name":"D5","midi":74,"time":679.8385416666706,"velocity":0.8031496062992126,"duration":0.27604166666662877},{"name":"A3","midi":57,"time":680.1250000000039,"velocity":0.8031496062992126,"duration":0.41145833333325754},{"name":"C#5","midi":73,"time":680.1250000000039,"velocity":0.8031496062992126,"duration":0.27604166666662877},{"name":"C#3","midi":49,"time":680.4127604166705,"velocity":0.8031496062992126,"duration":0.26041666666662877},{"name":"B4","midi":71,"time":680.4127604166705,"velocity":0.8031496062992126,"duration":0.27864583333325754},{"name":"A3","midi":57,"time":680.7018229166704,"velocity":0.8031496062992126,"duration":0.3125},{"name":"A4","midi":69,"time":680.7018229166704,"velocity":0.8031496062992126,"duration":0.21354166666662877},{"name":"D3","midi":50,"time":680.989583333337,"velocity":0.8031496062992126,"duration":0.27604166666674246},{"name":"F5","midi":77,"time":680.989583333337,"velocity":0.8031496062992126,"duration":0.5625000000001137},{"name":"A3","midi":57,"time":681.2786458333371,"velocity":0.8031496062992126,"duration":0.27604166666662877},{"name":"E3","midi":52,"time":681.5651041666704,"velocity":0.8031496062992126,"duration":0.27604166666662877},{"name":"E5","midi":76,"time":681.5651041666704,"velocity":0.8031496062992126,"duration":0.5625},{"name":"A3","midi":57,"time":681.852864583337,"velocity":0.8031496062992126,"duration":0.27604166666674246},{"name":"F3","midi":53,"time":682.1406250000038,"velocity":0.8031496062992126,"duration":0.27604166666662877},{"name":"D5","midi":74,"time":682.1406250000038,"velocity":0.8031496062992126,"duration":0.5625},{"name":"A3","midi":57,"time":682.4296875000038,"velocity":0.8031496062992126,"duration":0.27604166666662877},{"name":"G3","midi":55,"time":682.716145833337,"velocity":0.8031496062992126,"duration":0.27864583333325754},{"name":"D5","midi":74,"time":682.716145833337,"velocity":0.8031496062992126,"duration":0.27604166666662877},{"name":"A3","midi":57,"time":683.0039062500036,"velocity":0.8031496062992126,"duration":0.2786458333334849},{"name":"C#5","midi":73,"time":683.0039062500036,"velocity":0.8031496062992126,"duration":0.08333333333337123},{"name":"D5","midi":74,"time":683.102864583337,"velocity":0.8031496062992126,"duration":0.08333333333337123},{"name":"C#5","midi":73,"time":683.1979166666704,"velocity":0.8031496062992126,"duration":0.07942708333337123},{"name":"F3","midi":53,"time":683.2955729166705,"velocity":0.8031496062992126,"duration":0.27604166666662877},{"name":"C#5","midi":73,"time":683.2955729166705,"velocity":0.8031496062992126,"duration":0.5624999999998863},{"name":"A3","midi":57,"time":683.5820312500038,"velocity":0.8031496062992126,"duration":0.27604166666662877},{"name":"E3","midi":52,"time":683.8697916666704,"velocity":0.8031496062992126,"duration":0.27604166666662877},{"name":"D5","midi":74,"time":683.8697916666704,"velocity":0.8031496062992126,"duration":0.5625},{"name":"A3","midi":57,"time":684.157552083337,"velocity":0.8031496062992126,"duration":0.27604166666674246},{"name":"F3","midi":53,"time":684.4466145833371,"velocity":0.8031496062992126,"duration":0.27604166666662877},{"name":"A4","midi":69,"time":684.4466145833371,"velocity":0.8031496062992126,"duration":0.5624999999998863},{"name":"A3","midi":57,"time":684.7330729166704,"velocity":0.8031496062992126,"duration":0.27604166666662877},{"name":"G3","midi":55,"time":685.0221354166704,"velocity":0.8031496062992126,"duration":0.27604166666662877},{"name":"A#4","midi":70,"time":685.0221354166704,"velocity":0.8031496062992126,"duration":0.27604166666662877},{"name":"F3","midi":53,"time":685.309895833337,"velocity":0.8031496062992126,"duration":0.27604166666662877},{"name":"A4","midi":69,"time":685.309895833337,"velocity":0.8031496062992126,"duration":0.27604166666662877},{"name":"E3","midi":52,"time":685.5963541666703,"velocity":0.8031496062992126,"duration":0.27604166666662877},{"name":"G4","midi":67,"time":685.5963541666703,"velocity":0.8031496062992126,"duration":0.27604166666662877},{"name":"D3","midi":50,"time":685.8841145833369,"velocity":0.8031496062992126,"duration":0.27604166666662877},{"name":"A#4","midi":70,"time":685.8841145833369,"velocity":0.8031496062992126,"duration":0.27604166666662877},{"name":"D3","midi":50,"time":686.1718750000035,"velocity":0.8031496062992126,"duration":0.1328125},{"name":"A4","midi":69,"time":686.1718750000035,"velocity":0.8031496062992126,"duration":0.5677083333332575},{"name":"C#3","midi":49,"time":686.3190104166702,"velocity":0.8031496062992126,"duration":0.1328125},{"name":"B2","midi":47,"time":686.4635416666702,"velocity":0.8031496062992126,"duration":0.1328125},{"name":"C#3","midi":49,"time":686.6080729166702,"velocity":0.8031496062992126,"duration":0.1328125},{"name":"D3","midi":50,"time":686.7526041666702,"velocity":0.8031496062992126,"duration":0.8528645833331439},{"name":"G4","midi":67,"time":686.7526041666702,"velocity":0.8031496062992126,"duration":0.27604166666662877},{"name":"F4","midi":65,"time":687.0403645833368,"velocity":0.8031496062992126,"duration":0.27604166666662877},{"name":"E4","midi":64,"time":687.32682291667,"velocity":0.8031496062992126,"duration":0.27604166666662877},{"name":"D4","midi":62,"time":687.6158854166699,"velocity":0.8031496062992126,"duration":0.27604166666662877},{"name":"G3","midi":55,"time":687.9036458333366,"velocity":0.8031496062992126,"duration":1.7369791666666288},{"name":"A#4","midi":70,"time":687.9036458333366,"velocity":0.8031496062992126,"duration":0.5703125},{"name":"D4","midi":62,"time":688.1953125000032,"velocity":0.8031496062992126,"duration":0.27994791666674246},{"name":"D#4","midi":63,"time":688.4869791666699,"velocity":0.8031496062992126,"duration":0.27994791666662877},{"name":"A4","midi":69,"time":688.4869791666699,"velocity":0.8031496062992126,"duration":0.5703125},{"name":"D4","midi":62,"time":688.7799479166699,"velocity":0.8031496062992126,"duration":0.27994791666662877},{"name":"C#4","midi":61,"time":689.0703125000032,"velocity":0.8031496062992126,"duration":0.27994791666662877},{"name":"G4","midi":67,"time":689.0703125000032,"velocity":0.8031496062992126,"duration":0.5703125},{"name":"D4","midi":62,"time":689.3619791666698,"velocity":0.8031496062992126,"duration":0.27994791666674246},{"name":"G3","midi":55,"time":689.6549479166699,"velocity":0.8031496062992126,"duration":0.27994791666662877},{"name":"D#5","midi":75,"time":689.6549479166699,"velocity":0.8031496062992126,"duration":0.5703125},{"name":"A#3","midi":58,"time":689.9479166666699,"velocity":0.8031496062992126,"duration":0.27994791666662877},{"name":"A3","midi":57,"time":690.2382812500032,"velocity":0.8031496062992126,"duration":0.27994791666662877},{"name":"D5","midi":74,"time":690.2382812500032,"velocity":0.8031496062992126,"duration":0.27994791666662877},{"name":"G3","midi":55,"time":690.5312500000032,"velocity":0.8031496062992126,"duration":0.27994791666662877},{"name":"C#5","midi":73,"time":690.5312500000032,"velocity":0.8031496062992126,"duration":0.27994791666662877},{"name":"F3","midi":53,"time":690.8229166666698,"velocity":0.8031496062992126,"duration":0.27994791666662877},{"name":"D5","midi":74,"time":690.8229166666698,"velocity":0.8031496062992126,"duration":0.8632812499998863},{"name":"E3","midi":52,"time":691.1145833333364,"velocity":0.8031496062992126,"duration":0.27994791666662877},{"name":"D3","midi":50,"time":691.4049479166697,"velocity":0.8031496062992126,"duration":0.27994791666662877},{"name":"G3","midi":55,"time":691.6979166666697,"velocity":0.8031496062992126,"duration":0.27994791666662877},{"name":"E5","midi":76,"time":691.6979166666697,"velocity":0.8031496062992126,"duration":0.27994791666662877},{"name":"A3","midi":57,"time":691.988281250003,"velocity":0.8031496062992126,"duration":0.5690104166668561},{"name":"C#5","midi":73,"time":691.988281250003,"velocity":0.8031496062992126,"duration":0.8606770833334849},{"name":"F5","midi":77,"time":691.988281250003,"velocity":0.8031496062992126,"duration":0.18489583333337123},{"name":"E5","midi":76,"time":692.1848958333363,"velocity":0.8031496062992126,"duration":0.08333333333337123},{"name":"F5","midi":77,"time":692.2825520833363,"velocity":0.8031496062992126,"duration":0.08333333333337123},{"name":"E5","midi":76,"time":692.3789062500031,"velocity":0.8031496062992126,"duration":0.08333333333337123},{"name":"F5","midi":77,"time":692.4739583333364,"velocity":0.8031496062992126,"duration":0.08333333333337123},{"name":"A2","midi":45,"time":692.5729166666698,"velocity":0.8031496062992126,"duration":0.5703125},{"name":"E5","midi":76,"time":692.5729166666698,"velocity":0.8031496062992126,"duration":0.27864583333325754},{"name":"D5","midi":74,"time":692.8645833333364,"velocity":0.8031496062992126,"duration":0.27864583333337123},{"name":"D3","midi":50,"time":693.1562500000032,"velocity":0.8031496062992126,"duration":0.66796875},{"name":"D5","midi":74,"time":693.1562500000032,"velocity":0.8031496062992126,"duration":3.9205729166667425},{"name":"A2","midi":45,"time":693.8606770833366,"velocity":0.8031496062992126,"duration":0.62890625},{"name":"D2","midi":38,"time":694.5664062500032,"velocity":0.8031496062992126,"duration":2.4466145833333712},{"name":"C4","midi":60,"time":698.3984375000033,"velocity":0.8031496062992126,"duration":0.16666666666662877},{"name":"F4","midi":65,"time":698.5963541666699,"velocity":0.8031496062992126,"duration":0.18880208333337123},{"name":"C4","midi":60,"time":698.7955729166699,"velocity":0.8031496062992126,"duration":0.1796875},{"name":"F4","midi":65,"time":698.9895833333366,"velocity":0.8031496062992126,"duration":0.16666666666662877},{"name":"A4","midi":69,"time":699.1901041666698,"velocity":0.8031496062992126,"duration":0.18880208333337123},{"name":"F4","midi":65,"time":699.3854166666698,"velocity":0.8031496062992126,"duration":0.1796875},{"name":"C3","midi":48,"time":699.5794270833364,"velocity":0.8031496062992126,"duration":0.16666666666662877},{"name":"A4","midi":69,"time":699.5794270833364,"velocity":0.8031496062992126,"duration":0.16666666666662877},{"name":"F3","midi":53,"time":699.7786458333364,"velocity":0.8031496062992126,"duration":0.18880208333337123},{"name":"C5","midi":72,"time":699.7786458333364,"velocity":0.8031496062992126,"duration":0.38671875},{"name":"C3","midi":48,"time":699.9778645833364,"velocity":0.8031496062992126,"duration":0.1796875},{"name":"F3","midi":53,"time":700.1744791666698,"velocity":0.8031496062992126,"duration":0.16666666666662877},{"name":"F4","midi":65,"time":700.1744791666698,"velocity":0.8031496062992126,"duration":0.16666666666662877},{"name":"A3","midi":57,"time":700.3736979166698,"velocity":0.8031496062992126,"duration":0.18880208333337123},{"name":"F5","midi":77,"time":700.3736979166698,"velocity":0.8031496062992126,"duration":0.7799479166666288},{"name":"F3","midi":53,"time":700.5690104166698,"velocity":0.8031496062992126,"duration":0.1796875},{"name":"A3","midi":57,"time":700.7656250000032,"velocity":0.8031496062992126,"duration":0.16666666666662877},{"name":"C4","midi":60,"time":700.9622395833364,"velocity":0.8031496062992126,"duration":0.5846354166666288},{"name":"E5","midi":76,"time":701.1627604166698,"velocity":0.8031496062992126,"duration":0.1796875},{"name":"D5","midi":74,"time":701.3567708333364,"velocity":0.8031496062992126,"duration":0.16666666666662877},{"name":"C3","midi":48,"time":701.5546875000031,"velocity":0.8031496062992126,"duration":0.5846354166667425},{"name":"C5","midi":72,"time":701.5546875000031,"velocity":0.8031496062992126,"duration":0.18880208333337123},{"name":"D5","midi":74,"time":701.7526041666698,"velocity":0.8031496062992126,"duration":0.1796875},{"name":"A#4","midi":70,"time":701.9453125000032,"velocity":0.8031496062992126,"duration":0.16666666666662877},{"name":"F3","midi":53,"time":702.1458333333364,"velocity":0.8031496062992126,"duration":0.38671875},{"name":"A4","midi":69,"time":702.1458333333364,"velocity":0.8031496062992126,"duration":0.18880208333337123},{"name":"C5","midi":72,"time":702.3424479166698,"velocity":0.8031496062992126,"duration":0.1796875},{"name":"E3","midi":52,"time":702.5416666666698,"velocity":0.8031496062992126,"duration":0.16666666666662877},{"name":"F5","midi":77,"time":702.5416666666698,"velocity":0.8031496062992126,"duration":0.16666666666662877},{"name":"D3","midi":50,"time":702.7382812500031,"velocity":0.8031496062992126,"duration":0.38671875},{"name":"B4","midi":71,"time":702.7382812500031,"velocity":0.8031496062992126,"duration":0.18880208333337123},{"name":"D5","midi":74,"time":702.9348958333364,"velocity":0.8031496062992126,"duration":0.1796875},{"name":"G3","midi":55,"time":703.1341145833364,"velocity":0.8031496062992126,"duration":0.16666666666662877},{"name":"F5","midi":77,"time":703.1341145833364,"velocity":0.8031496062992126,"duration":0.16666666666662877},{"name":"C4","midi":60,"time":703.3320312500031,"velocity":0.8031496062992126,"duration":0.18880208333337123},{"name":"E5","midi":76,"time":703.3320312500031,"velocity":0.8031496062992126,"duration":0.18880208333337123},{"name":"G3","midi":55,"time":703.5299479166698,"velocity":0.8031496062992126,"duration":0.1796875},{"name":"G5","midi":79,"time":703.5299479166698,"velocity":0.8031496062992126,"duration":0.1796875},{"name":"C4","midi":60,"time":703.7252604166698,"velocity":0.8031496062992126,"duration":0.16666666666662877},{"name":"E5","midi":76,"time":703.7252604166698,"velocity":0.8031496062992126,"duration":0.16666666666662877},{"name":"E4","midi":64,"time":703.9231770833364,"velocity":0.8031496062992126,"duration":0.18880208333337123},{"name":"C5","midi":72,"time":703.9231770833364,"velocity":0.8031496062992126,"duration":0.18880208333337123},{"name":"C4","midi":60,"time":704.1197916666698,"velocity":0.8031496062992126,"duration":0.1796875},{"name":"E5","midi":76,"time":704.1197916666698,"velocity":0.8031496062992126,"duration":0.1796875},{"name":"E4","midi":64,"time":704.3164062500032,"velocity":0.8031496062992126,"duration":0.16666666666662877},{"name":"C5","midi":72,"time":704.3164062500032,"velocity":0.8031496062992126,"duration":0.16666666666662877},{"name":"G4","midi":67,"time":704.5143229166698,"velocity":0.8031496062992126,"duration":0.3867187500001137},{"name":"B4","midi":71,"time":704.5143229166698,"velocity":0.8031496062992126,"duration":0.18880208333337123},{"name":"C5","midi":72,"time":704.7122395833366,"velocity":0.8031496062992126,"duration":0.1796875},{"name":"C4","midi":60,"time":704.9088541666699,"velocity":0.8031496062992126,"duration":0.16666666666662877},{"name":"D5","midi":74,"time":704.9088541666699,"velocity":0.8031496062992126,"duration":0.16666666666662877},{"name":"C5","midi":72,"time":705.1067708333366,"velocity":0.8031496062992126,"duration":0.7799479166667425},{"name":"E5","midi":76,"time":705.1067708333366,"velocity":0.8031496062992126,"duration":0.18880208333337123},{"name":"F5","midi":77,"time":705.3033854166699,"velocity":0.8031496062992126,"duration":0.1796875},{"name":"G5","midi":79,"time":705.5013020833366,"velocity":0.8031496062992126,"duration":0.16666666666662877},{"name":"A5","midi":81,"time":705.6966145833366,"velocity":0.8031496062992126,"duration":0.18880208333337123},{"name":"B4","midi":71,"time":705.8971354166699,"velocity":0.8031496062992126,"duration":0.1796875},{"name":"B5","midi":83,"time":705.8971354166699,"velocity":0.8031496062992126,"duration":0.1796875},{"name":"A4","midi":69,"time":706.0911458333366,"velocity":0.8031496062992126,"duration":0.16666666666662877},{"name":"C6","midi":84,"time":706.0911458333366,"velocity":0.8031496062992126,"duration":0.16666666666662877},{"name":"G4","midi":67,"time":706.2877604166698,"velocity":0.8031496062992126,"duration":0.18880208333337123},{"name":"D5","midi":74,"time":706.2877604166698,"velocity":0.8031496062992126,"duration":0.18880208333337123},{"name":"A4","midi":69,"time":706.4869791666698,"velocity":0.8031496062992126,"duration":0.1796875},{"name":"C6","midi":84,"time":706.4869791666698,"velocity":0.8031496062992126,"duration":0.1796875},{"name":"F4","midi":65,"time":706.6822916666698,"velocity":0.8031496062992126,"duration":0.16666666666662877},{"name":"B5","midi":83,"time":706.6822916666698,"velocity":0.8031496062992126,"duration":0.16666666666662877},{"name":"E4","midi":64,"time":706.8802083333364,"velocity":0.8031496062992126,"duration":0.18880208333337123},{"name":"C6","midi":84,"time":706.8802083333364,"velocity":0.8031496062992126,"duration":0.8802083333333712},{"name":"G4","midi":67,"time":707.0781250000032,"velocity":0.8031496062992126,"duration":0.1796875},{"name":"C5","midi":72,"time":707.2721354166698,"velocity":0.8031496062992126,"duration":0.16666666666662877},{"name":"F#4","midi":66,"time":707.4713541666698,"velocity":0.8031496062992126,"duration":0.18880208333337123},{"name":"A4","midi":69,"time":707.6679687500032,"velocity":0.8031496062992126,"duration":0.1796875},{"name":"C5","midi":72,"time":707.8658854166698,"velocity":0.8031496062992126,"duration":0.16666666666662877},{"name":"A5","midi":81,"time":707.8658854166698,"velocity":0.8031496062992126,"duration":0.16666666666662877},{"name":"G4","midi":67,"time":708.0611979166698,"velocity":0.8031496062992126,"duration":0.8802083333332575},{"name":"A#4","midi":70,"time":708.0611979166698,"velocity":0.8031496062992126,"duration":0.18880208333337123},{"name":"D5","midi":74,"time":708.2604166666698,"velocity":0.8031496062992126,"duration":0.1796875},{"name":"A5","midi":81,"time":708.4557291666698,"velocity":0.8031496062992126,"duration":0.16666666666662877},{"name":"G5","midi":79,"time":708.6523437500031,"velocity":0.8031496062992126,"duration":0.18880208333337123},{"name":"F#5","midi":78,"time":708.8515625000031,"velocity":0.8031496062992126,"duration":0.1796875},{"name":"G4","midi":67,"time":709.0468750000031,"velocity":0.8031496062992126,"duration":0.16666666666662877},{"name":"G5","midi":79,"time":709.0468750000031,"velocity":0.8031496062992126,"duration":0.16666666666662877},{"name":"D4","midi":62,"time":709.2434895833363,"velocity":0.8031496062992126,"duration":0.18880208333337123},{"name":"A#4","midi":70,"time":709.2434895833363,"velocity":0.8031496062992126,"duration":0.38411458333337123},{"name":"F4","midi":65,"time":709.4427083333363,"velocity":0.8031496062992126,"duration":0.1796875},{"name":"A#4","midi":70,"time":709.6367187500031,"velocity":0.8031496062992126,"duration":0.37630208333337123},{"name":"E4","midi":64,"time":709.8359375000031,"velocity":0.8031496062992126,"duration":0.18880208333337123},{"name":"G4","midi":67,"time":710.0325520833364,"velocity":0.8031496062992126,"duration":0.1796875},{"name":"A#4","midi":70,"time":710.2278645833364,"velocity":0.8031496062992126,"duration":0.16666666666662877},{"name":"C3","midi":48,"time":710.2278645833364,"velocity":0.8031496062992126,"duration":0.16666666666662877},{"name":"G5","midi":79,"time":710.2278645833364,"velocity":0.8031496062992126,"duration":0.16666666666662877},{"name":"F3","midi":53,"time":710.4257812500031,"velocity":0.8031496062992126,"duration":0.18880208333337123},{"name":"A4","midi":69,"time":710.4257812500031,"velocity":0.8031496062992126,"duration":0.5794270833332575},{"name":"C3","midi":48,"time":710.6250000000031,"velocity":0.8031496062992126,"duration":0.1796875},{"name":"C5","midi":72,"time":710.6250000000031,"velocity":0.8031496062992126,"duration":0.1796875},{"name":"F3","midi":53,"time":710.8190104166697,"velocity":0.8031496062992126,"duration":0.16666666666662877},{"name":"G5","midi":79,"time":710.8190104166697,"velocity":0.8031496062992126,"duration":0.16666666666662877},{"name":"A3","midi":57,"time":711.0169270833363,"velocity":0.8031496062992126,"duration":0.18880208333337123},{"name":"F5","midi":77,"time":711.0169270833363,"velocity":0.8031496062992126,"duration":0.18880208333337123},{"name":"F3","midi":53,"time":711.2148437500031,"velocity":0.8031496062992126,"duration":0.1796875},{"name":"E5","midi":76,"time":711.2148437500031,"velocity":0.8031496062992126,"duration":0.1796875},{"name":"A3","midi":57,"time":711.4101562500031,"velocity":0.8031496062992126,"duration":0.16666666666662877},{"name":"F5","midi":77,"time":711.4101562500031,"velocity":0.8031496062992126,"duration":0.16666666666662877},{"name":"C4","midi":60,"time":711.6080729166697,"velocity":0.8031496062992126,"duration":0.38671875},{"name":"G4","midi":67,"time":711.6080729166697,"velocity":0.8031496062992126,"duration":0.58203125},{"name":"C5","midi":72,"time":711.8072916666697,"velocity":0.8031496062992126,"duration":0.1796875},{"name":"F3","midi":53,"time":712.0026041666697,"velocity":0.8031496062992126,"duration":0.16666666666662877},{"name":"F5","midi":77,"time":712.0026041666697,"velocity":0.8031496062992126,"duration":0.16666666666662877},{"name":"F4","midi":65,"time":712.2018229166697,"velocity":0.8031496062992126,"duration":0.77734375},{"name":"D#5","midi":75,"time":712.2018229166697,"velocity":0.8031496062992126,"duration":0.18880208333337123},{"name":"D5","midi":74,"time":712.3997395833364,"velocity":0.8031496062992126,"duration":0.1796875},{"name":"A4","midi":69,"time":712.5937500000031,"velocity":0.8031496062992126,"duration":0.16666666666662877},{"name":"D#5","midi":75,"time":712.5937500000031,"velocity":0.8031496062992126,"duration":0.16666666666662877},{"name":"A#4","midi":70,"time":712.7929687500031,"velocity":0.8031496062992126,"duration":0.8802083333334849},{"name":"D5","midi":74,"time":712.7929687500031,"velocity":0.8031496062992126,"duration":0.38411458333337123},{"name":"E4","midi":64,"time":712.9882812500031,"velocity":0.8031496062992126,"duration":0.1796875},{"name":"D4","midi":62,"time":713.1848958333364,"velocity":0.8031496062992126,"duration":0.16666666666662877},{"name":"E5","midi":76,"time":713.1848958333364,"velocity":0.8031496062992126,"duration":0.16666666666662877},{"name":"C4","midi":60,"time":713.3841145833364,"velocity":0.8031496062992126,"duration":0.18880208333337123},{"name":"F5","midi":77,"time":713.3841145833364,"velocity":0.8031496062992126,"duration":0.09244791666662877},{"name":"E5","midi":76,"time":713.4817708333364,"velocity":0.8031496062992126,"duration":0.09244791666674246},{"name":"D4","midi":62,"time":713.5807291666698,"velocity":0.8031496062992126,"duration":0.1796875},{"name":"F5","midi":77,"time":713.5807291666698,"velocity":0.8031496062992126,"duration":0.08333333333337123},{"name":"E5","midi":76,"time":713.6796875000032,"velocity":0.8031496062992126,"duration":0.09244791666662877},{"name":"A#3","midi":58,"time":713.7799479166698,"velocity":0.8031496062992126,"duration":0.1640625},{"name":"D5","midi":74,"time":713.7799479166698,"velocity":0.8031496062992126,"duration":0.078125},{"name":"E5","midi":76,"time":713.8763020833364,"velocity":0.8031496062992126,"duration":0.09244791666674246},{"name":"A3","midi":57,"time":713.9739583333366,"velocity":0.8031496062992126,"duration":0.3867187500001137},{"name":"F5","midi":77,"time":713.9739583333366,"velocity":0.8031496062992126,"duration":0.18880208333337123},{"name":"E5","midi":76,"time":714.1718750000033,"velocity":0.8031496062992126,"duration":0.1796875},{"name":"A#3","midi":58,"time":714.3684895833367,"velocity":0.8031496062992126,"duration":0.16666666666662877},{"name":"A#4","midi":70,"time":714.3684895833367,"velocity":0.8031496062992126,"duration":0.16666666666662877},{"name":"D5","midi":74,"time":714.3684895833367,"velocity":0.8031496062992126,"duration":0.16666666666662877},{"name":"A4","midi":69,"time":714.5690104166699,"velocity":0.8031496062992126,"duration":0.38671875},{"name":"C4","midi":60,"time":714.5690104166699,"velocity":0.8031496062992126,"duration":0.38671875},{"name":"C5","midi":72,"time":714.5690104166699,"velocity":0.8031496062992126,"duration":0.18880208333337123},{"name":"D5","midi":74,"time":714.7643229166699,"velocity":0.8031496062992126,"duration":0.1796875},{"name":"C3","midi":48,"time":714.9635416666699,"velocity":0.8031496062992126,"duration":0.16666666666662877},{"name":"G4","midi":67,"time":714.9635416666699,"velocity":0.8031496062992126,"duration":0.16666666666662877},{"name":"A#4","midi":70,"time":714.9635416666699,"velocity":0.8031496062992126,"duration":0.16666666666662877},{"name":"F4","midi":65,"time":715.1601562500032,"velocity":0.8031496062992126,"duration":0.18880208333337123},{"name":"F3","midi":53,"time":715.1601562500032,"velocity":0.8031496062992126,"duration":0.18880208333337123},{"name":"A4","midi":69,"time":715.1601562500032,"velocity":0.8031496062992126,"duration":0.18880208333337123},{"name":"C3","midi":48,"time":715.3580729166699,"velocity":0.8031496062992126,"duration":0.1796875},{"name":"G4","midi":67,"time":715.3580729166699,"velocity":0.8031496062992126,"duration":0.1796875},{"name":"F3","midi":53,"time":715.5533854166699,"velocity":0.8031496062992126,"duration":0.16666666666662877},{"name":"F4","midi":65,"time":715.5533854166699,"velocity":0.8031496062992126,"duration":0.16666666666662877},{"name":"A3","midi":57,"time":715.7526041666699,"velocity":0.8031496062992126,"duration":0.18880208333337123},{"name":"C5","midi":72,"time":715.7526041666699,"velocity":0.8031496062992126,"duration":0.18880208333337123},{"name":"F3","midi":53,"time":715.9479166666699,"velocity":0.8031496062992126,"duration":0.1796875},{"name":"A4","midi":69,"time":715.9479166666699,"velocity":0.8031496062992126,"duration":0.1796875},{"name":"A3","midi":57,"time":716.1458333333366,"velocity":0.8031496062992126,"duration":0.16666666666662877},{"name":"F4","midi":65,"time":716.1458333333366,"velocity":0.8031496062992126,"duration":0.16666666666662877},{"name":"E3","midi":52,"time":716.3424479166698,"velocity":0.8031496062992126,"duration":0.18880208333325754},{"name":"C5","midi":72,"time":716.3424479166698,"velocity":0.8031496062992126,"duration":0.09244791666662877},{"name":"A#4","midi":70,"time":716.4414062500031,"velocity":0.8031496062992126,"duration":0.09244791666662877},{"name":"C3","midi":48,"time":716.5403645833363,"velocity":0.8031496062992126,"duration":0.1796875},{"name":"C5","midi":72,"time":716.5403645833363,"velocity":0.8031496062992126,"duration":0.38020833333325754},{"name":"E3","midi":52,"time":716.7356770833363,"velocity":0.8031496062992126,"duration":0.16666666666662877},{"name":"G3","midi":55,"time":716.933593750003,"velocity":0.8031496062992126,"duration":0.18880208333337123},{"name":"C5","midi":72,"time":716.933593750003,"velocity":0.8031496062992126,"duration":0.18880208333337123},{"name":"E3","midi":52,"time":717.1315104166697,"velocity":0.8031496062992126,"duration":0.1796875},{"name":"G4","midi":67,"time":717.1315104166697,"velocity":0.8031496062992126,"duration":0.1796875},{"name":"G3","midi":55,"time":717.3281250000031,"velocity":0.8031496062992126,"duration":0.16666666666662877},{"name":"E4","midi":64,"time":717.3281250000031,"velocity":0.8031496062992126,"duration":0.16666666666662877},{"name":"A3","midi":57,"time":717.5247395833363,"velocity":0.8031496062992126,"duration":0.18880208333337123},{"name":"C5","midi":72,"time":717.5247395833363,"velocity":0.8031496062992126,"duration":0.09244791666662877},{"name":"A#4","midi":70,"time":717.6223958333363,"velocity":0.8031496062992126,"duration":0.09244791666674246},{"name":"C3","midi":48,"time":717.7226562500031,"velocity":0.8031496062992126,"duration":0.1796875},{"name":"C5","midi":72,"time":717.7226562500031,"velocity":0.8031496062992126,"duration":0.38020833333325754},{"name":"F3","midi":53,"time":717.9166666666697,"velocity":0.8031496062992126,"duration":0.16666666666662877},{"name":"A3","midi":57,"time":718.1158854166697,"velocity":0.8031496062992126,"duration":0.18880208333337123},{"name":"C5","midi":72,"time":718.1158854166697,"velocity":0.8031496062992126,"duration":0.18880208333337123},{"name":"F3","midi":53,"time":718.3125000000031,"velocity":0.8031496062992126,"duration":0.1796875},{"name":"A4","midi":69,"time":718.3125000000031,"velocity":0.8031496062992126,"duration":0.1796875},{"name":"A3","midi":57,"time":718.5104166666697,"velocity":0.8031496062992126,"duration":0.16666666666662877},{"name":"F4","midi":65,"time":718.5104166666697,"velocity":0.8031496062992126,"duration":0.16666666666662877},{"name":"E3","midi":52,"time":718.7057291666697,"velocity":0.8031496062992126,"duration":0.18880208333325754},{"name":"C5","midi":72,"time":718.7057291666697,"velocity":0.8031496062992126,"duration":0.09244791666662877},{"name":"A#4","midi":70,"time":718.804687500003,"velocity":0.8031496062992126,"duration":0.09244791666662877},{"name":"C3","midi":48,"time":718.9049479166696,"velocity":0.8031496062992126,"duration":0.1796875},{"name":"C5","midi":72,"time":718.9049479166696,"velocity":0.8031496062992126,"duration":0.7265624999998863},{"name":"E3","midi":52,"time":719.1002604166696,"velocity":0.8031496062992126,"duration":0.16666666666662877},{"name":"F#3","midi":54,"time":719.2968750000028,"velocity":0.8031496062992126,"duration":0.18880208333337123},{"name":"D3","midi":50,"time":719.4960937500028,"velocity":0.8031496062992126,"duration":0.1796875},{"name":"F#3","midi":54,"time":719.6927083333362,"velocity":0.8031496062992126,"duration":0.16666666666662877},{"name":"A4","midi":69,"time":719.6927083333362,"velocity":0.8031496062992126,"duration":0.16666666666662877},{"name":"G3","midi":55,"time":719.8880208333362,"velocity":0.8031496062992126,"duration":0.5846354166666288},{"name":"A#4","midi":70,"time":719.8880208333362,"velocity":0.8031496062992126,"duration":0.18880208333337123},{"name":"D4","midi":62,"time":720.0872395833362,"velocity":0.8031496062992126,"duration":0.1796875},{"name":"G4","midi":67,"time":720.2812500000028,"velocity":0.8031496062992126,"duration":0.16666666666662877},{"name":"D3","midi":50,"time":720.4804687500028,"velocity":0.8031496062992126,"duration":0.18880208333337123},{"name":"A#4","midi":70,"time":720.4804687500028,"velocity":0.8031496062992126,"duration":0.18880208333337123},{"name":"A#2","midi":46,"time":720.6770833333362,"velocity":0.8031496062992126,"duration":0.1796875},{"name":"G4","midi":67,"time":720.6770833333362,"velocity":0.8031496062992126,"duration":0.1796875},{"name":"G2","midi":43,"time":720.8750000000028,"velocity":0.8031496062992126,"duration":0.16666666666662877},{"name":"A#4","midi":70,"time":720.8750000000028,"velocity":0.8031496062992126,"duration":0.16666666666662877},{"name":"D3","midi":50,"time":721.0703125000028,"velocity":0.8031496062992126,"duration":0.09244791666662877},{"name":"F#4","midi":66,"time":721.0703125000028,"velocity":0.8031496062992126,"duration":0.18880208333325754},{"name":"C3","midi":48,"time":721.1692708333361,"velocity":0.8031496062992126,"duration":0.09244791666662877},{"name":"D3","midi":50,"time":721.2682291666694,"velocity":0.8031496062992126,"duration":0.38020833333337123},{"name":"D4","midi":62,"time":721.2682291666694,"velocity":0.8031496062992126,"duration":0.1796875},{"name":"F#4","midi":66,"time":721.4648437500027,"velocity":0.8031496062992126,"duration":0.16666666666662877},{"name":"D3","midi":50,"time":721.6614583333361,"velocity":0.8031496062992126,"duration":0.18880208333337123},{"name":"A4","midi":69,"time":721.6614583333361,"velocity":0.8031496062992126,"duration":0.18880208333337123},{"name":"A2","midi":45,"time":721.8606770833361,"velocity":0.8031496062992126,"duration":0.1796875},{"name":"F#4","midi":66,"time":721.8606770833361,"velocity":0.8031496062992126,"duration":0.1796875},{"name":"F#2","midi":42,"time":722.0559895833361,"velocity":0.8031496062992126,"duration":0.16666666666662877},{"name":"A4","midi":69,"time":722.0559895833361,"velocity":0.8031496062992126,"duration":0.16666666666662877},{"name":"D3","midi":50,"time":722.2513020833361,"velocity":0.8031496062992126,"duration":0.09244791666662877},{"name":"A#4","midi":70,"time":722.2513020833361,"velocity":0.8031496062992126,"duration":0.18880208333325754},{"name":"C3","midi":48,"time":722.3515625000027,"velocity":0.8031496062992126,"duration":0.09244791666662877},{"name":"D3","midi":50,"time":722.450520833336,"velocity":0.8031496062992126,"duration":0.38020833333325754},{"name":"D4","midi":62,"time":722.450520833336,"velocity":0.8031496062992126,"duration":0.1796875},{"name":"G4","midi":67,"time":722.645833333336,"velocity":0.8031496062992126,"duration":0.16666666666662877},{"name":"D3","midi":50,"time":722.8450520833359,"velocity":0.8031496062992126,"duration":0.18880208333337123},{"name":"A#4","midi":70,"time":722.8450520833359,"velocity":0.8031496062992126,"duration":0.18880208333337123},{"name":"A#2","midi":46,"time":723.0416666666692,"velocity":0.8031496062992126,"duration":0.1796875},{"name":"G4","midi":67,"time":723.0416666666692,"velocity":0.8031496062992126,"duration":0.1796875},{"name":"G2","midi":43,"time":723.2369791666692,"velocity":0.8031496062992126,"duration":0.16666666666662877},{"name":"A#4","midi":70,"time":723.2369791666692,"velocity":0.8031496062992126,"duration":0.16666666666662877},{"name":"D3","midi":50,"time":723.4335937500025,"velocity":0.8031496062992126,"duration":0.09244791666662877},{"name":"F#4","midi":66,"time":723.4335937500025,"velocity":0.8031496062992126,"duration":0.18880208333325754},{"name":"C3","midi":48,"time":723.5325520833358,"velocity":0.8031496062992126,"duration":0.09244791666662877},{"name":"D3","midi":50,"time":723.6328125000024,"velocity":0.8031496062992126,"duration":0.7265625},{"name":"D4","midi":62,"time":723.6328125000024,"velocity":0.8031496062992126,"duration":0.1796875},{"name":"F#4","midi":66,"time":723.8281250000024,"velocity":0.8031496062992126,"duration":0.16666666666662877},{"name":"A4","midi":69,"time":724.026041666669,"velocity":0.8031496062992126,"duration":0.18880208333337123},{"name":"F#4","midi":66,"time":724.225260416669,"velocity":0.8031496062992126,"duration":0.1796875},{"name":"D3","midi":50,"time":724.4179687500024,"velocity":0.8031496062992126,"duration":0.16666666666662877},{"name":"A4","midi":69,"time":724.4179687500024,"velocity":0.8031496062992126,"duration":0.16666666666662877},{"name":"G3","midi":55,"time":724.615885416669,"velocity":0.8031496062992126,"duration":0.18880208333337123},{"name":"A#4","midi":70,"time":724.615885416669,"velocity":0.8031496062992126,"duration":0.18880208333337123},{"name":"D3","midi":50,"time":724.815104166669,"velocity":0.8031496062992126,"duration":0.1796875},{"name":"G4","midi":67,"time":724.815104166669,"velocity":0.8031496062992126,"duration":0.1796875},{"name":"G3","midi":55,"time":725.0091145833356,"velocity":0.8031496062992126,"duration":0.16666666666662877},{"name":"A#4","midi":70,"time":725.0091145833356,"velocity":0.8031496062992126,"duration":0.16666666666662877},{"name":"A#3","midi":58,"time":725.2096354166689,"velocity":0.8031496062992126,"duration":0.18880208333337123},{"name":"D5","midi":74,"time":725.2096354166689,"velocity":0.8031496062992126,"duration":0.18880208333337123},{"name":"G3","midi":55,"time":725.4062500000023,"velocity":0.8031496062992126,"duration":0.1796875},{"name":"A#4","midi":70,"time":725.4062500000023,"velocity":0.8031496062992126,"duration":0.1796875},{"name":"A#3","midi":58,"time":725.6002604166689,"velocity":0.8031496062992126,"duration":0.16666666666662877},{"name":"D5","midi":74,"time":725.6002604166689,"velocity":0.8031496062992126,"duration":0.16666666666662877},{"name":"A3","midi":57,"time":725.7981770833355,"velocity":0.8031496062992126,"duration":0.18880208333325754},{"name":"F5","midi":77,"time":725.7981770833355,"velocity":0.8031496062992126,"duration":0.09244791666662877},{"name":"E5","midi":76,"time":725.8971354166688,"velocity":0.8031496062992126,"duration":0.09244791666662877},{"name":"F3","midi":53,"time":725.9973958333354,"velocity":0.8031496062992126,"duration":0.1796875},{"name":"F5","midi":77,"time":725.9973958333354,"velocity":0.8031496062992126,"duration":0.38020833333325754},{"name":"A3","midi":57,"time":726.1927083333354,"velocity":0.8031496062992126,"duration":0.16666666666662877},{"name":"C4","midi":60,"time":726.3893229166687,"velocity":0.8031496062992126,"duration":0.18880208333337123},{"name":"F5","midi":77,"time":726.3893229166687,"velocity":0.8031496062992126,"duration":0.18880208333337123},{"name":"A3","midi":57,"time":726.5885416666687,"velocity":0.8031496062992126,"duration":0.1796875},{"name":"C5","midi":72,"time":726.5885416666687,"velocity":0.8031496062992126,"duration":0.1796875},{"name":"C4","midi":60,"time":726.7825520833353,"velocity":0.8031496062992126,"duration":0.16666666666662877},{"name":"A4","midi":69,"time":726.7825520833353,"velocity":0.8031496062992126,"duration":0.16666666666662877},{"name":"D4","midi":62,"time":726.9804687500019,"velocity":0.8031496062992126,"duration":0.18880208333337123},{"name":"F5","midi":77,"time":726.9804687500019,"velocity":0.8031496062992126,"duration":0.09244791666662877},{"name":"E5","midi":76,"time":727.0781250000019,"velocity":0.8031496062992126,"duration":0.09244791666674246},{"name":"F3","midi":53,"time":727.1783854166687,"velocity":0.8031496062992126,"duration":0.1796875},{"name":"F5","midi":77,"time":727.1783854166687,"velocity":0.8031496062992126,"duration":0.38020833333325754},{"name":"A#3","midi":58,"time":727.3736979166687,"velocity":0.8031496062992126,"duration":0.16666666666662877},{"name":"D4","midi":62,"time":727.5716145833353,"velocity":0.8031496062992126,"duration":0.18880208333337123},{"name":"F5","midi":77,"time":727.5716145833353,"velocity":0.8031496062992126,"duration":0.18880208333337123},{"name":"A#3","midi":58,"time":727.7708333333353,"velocity":0.8031496062992126,"duration":0.1796875},{"name":"D5","midi":74,"time":727.7708333333353,"velocity":0.8031496062992126,"duration":0.1796875},{"name":"D4","midi":62,"time":727.9635416666687,"velocity":0.8031496062992126,"duration":0.16666666666662877},{"name":"A#4","midi":70,"time":727.9635416666687,"velocity":0.8031496062992126,"duration":0.16666666666662877},{"name":"A3","midi":57,"time":728.1627604166687,"velocity":0.8031496062992126,"duration":0.18880208333325754},{"name":"F5","midi":77,"time":728.1627604166687,"velocity":0.8031496062992126,"duration":0.09244791666662877},{"name":"E5","midi":76,"time":728.2617187500019,"velocity":0.8031496062992126,"duration":0.09244791666662877},{"name":"F3","midi":53,"time":728.3606770833352,"velocity":0.8031496062992126,"duration":0.1796875},{"name":"F5","midi":77,"time":728.3606770833352,"velocity":0.8031496062992126,"duration":0.7265625},{"name":"A3","midi":57,"time":728.5559895833352,"velocity":0.8031496062992126,"duration":0.16666666666662877},{"name":"C4","midi":60,"time":728.7539062500018,"velocity":0.8031496062992126,"duration":0.18880208333337123},{"name":"A3","midi":57,"time":728.9505208333352,"velocity":0.8031496062992126,"duration":0.1796875},{"name":"C4","midi":60,"time":729.1458333333352,"velocity":0.8031496062992126,"duration":0.16666666666662877},{"name":"F4","midi":65,"time":729.3450520833352,"velocity":0.8031496062992126,"duration":0.18880208333337123},{"name":"C4","midi":60,"time":729.5403645833352,"velocity":0.8031496062992126,"duration":0.1796875},{"name":"F4","midi":65,"time":729.7382812500018,"velocity":0.8031496062992126,"duration":0.16666666666662877},{"name":"A4","midi":69,"time":729.9348958333351,"velocity":0.8031496062992126,"duration":0.18880208333337123},{"name":"F4","midi":65,"time":730.1341145833351,"velocity":0.8031496062992126,"duration":0.1796875},{"name":"C2","midi":36,"time":730.3281250000017,"velocity":0.8031496062992126,"duration":0.16666666666662877},{"name":"A4","midi":69,"time":730.3281250000017,"velocity":0.8031496062992126,"duration":0.16666666666662877},{"name":"F2","midi":41,"time":730.5273437500017,"velocity":0.8031496062992126,"duration":0.18880208333337123},{"name":"C5","midi":72,"time":730.5273437500017,"velocity":0.8031496062992126,"duration":0.38671875},{"name":"C2","midi":36,"time":730.7239583333351,"velocity":0.8031496062992126,"duration":0.1796875},{"name":"F2","midi":41,"time":730.9218750000017,"velocity":0.8031496062992126,"duration":0.16666666666662877},{"name":"F4","midi":65,"time":730.9218750000017,"velocity":0.8031496062992126,"duration":0.16666666666662877},{"name":"A2","midi":45,"time":731.1210937500017,"velocity":0.8031496062992126,"duration":0.18880208333325754},{"name":"F5","midi":77,"time":731.1210937500017,"velocity":0.8031496062992126,"duration":0.09244791666662877},{"name":"E5","midi":76,"time":731.220052083335,"velocity":0.8031496062992126,"duration":0.09244791666662877},{"name":"F2","midi":41,"time":731.3164062500016,"velocity":0.8031496062992126,"duration":0.1796875},{"name":"F5","midi":77,"time":731.3164062500016,"velocity":0.8031496062992126,"duration":0.57421875},{"name":"A2","midi":45,"time":731.513020833335,"velocity":0.8031496062992126,"duration":0.16666666666662877},{"name":"C3","midi":48,"time":731.7109375000016,"velocity":0.8031496062992126,"duration":0.18880208333337123},{"name":"A2","midi":45,"time":731.907552083335,"velocity":0.8031496062992126,"duration":0.1796875},{"name":"E5","midi":76,"time":731.907552083335,"velocity":0.8031496062992126,"duration":0.1796875},{"name":"C3","midi":48,"time":732.1054687500016,"velocity":0.8031496062992126,"duration":0.16666666666662877},{"name":"D5","midi":74,"time":732.1054687500016,"velocity":0.8031496062992126,"duration":0.16666666666662877},{"name":"E3","midi":52,"time":732.3020833333348,"velocity":0.8031496062992126,"duration":0.18880208333337123},{"name":"C5","midi":72,"time":732.3020833333348,"velocity":0.8031496062992126,"duration":0.18880208333337123},{"name":"C3","midi":48,"time":732.5000000000016,"velocity":0.8031496062992126,"duration":0.1796875},{"name":"D5","midi":74,"time":732.5000000000016,"velocity":0.8031496062992126,"duration":0.1796875},{"name":"E3","midi":52,"time":732.6940104166682,"velocity":0.8031496062992126,"duration":0.16666666666662877},{"name":"A#4","midi":70,"time":732.6940104166682,"velocity":0.8031496062992126,"duration":0.16666666666662877},{"name":"F3","midi":53,"time":732.8932291666682,"velocity":0.8031496062992126,"duration":0.18880208333337123},{"name":"A4","midi":69,"time":732.8932291666682,"velocity":0.8031496062992126,"duration":0.18880208333337123},{"name":"C3","midi":48,"time":733.0898437500016,"velocity":0.8031496062992126,"duration":0.1796875},{"name":"C5","midi":72,"time":733.0898437500016,"velocity":0.8031496062992126,"duration":0.1796875},{"name":"F3","midi":53,"time":733.286458333335,"velocity":0.8031496062992126,"duration":0.16666666666662877},{"name":"G5","midi":79,"time":733.286458333335,"velocity":0.8031496062992126,"duration":0.16666666666662877},{"name":"A3","midi":57,"time":733.4843750000016,"velocity":0.8031496062992126,"duration":0.18880208333337123},{"name":"F5","midi":77,"time":733.4843750000016,"velocity":0.8031496062992126,"duration":0.18880208333337123},{"name":"F3","midi":53,"time":733.680989583335,"velocity":0.8031496062992126,"duration":0.1796875},{"name":"E5","midi":76,"time":733.680989583335,"velocity":0.8031496062992126,"duration":0.1796875},{"name":"A3","midi":57,"time":733.876302083335,"velocity":0.8031496062992126,"duration":0.16666666666662877},{"name":"F5","midi":77,"time":733.876302083335,"velocity":0.8031496062992126,"duration":0.16666666666662877},{"name":"C4","midi":60,"time":734.0742187500016,"velocity":0.8031496062992126,"duration":0.8802083333334849},{"name":"G4","midi":67,"time":734.0742187500016,"velocity":0.8031496062992126,"duration":0.18880208333337123},{"name":"C5","midi":72,"time":734.2721354166683,"velocity":0.8031496062992126,"duration":0.1796875},{"name":"F5","midi":77,"time":734.470052083335,"velocity":0.8031496062992126,"duration":0.16666666666662877},{"name":"E5","midi":76,"time":734.665364583335,"velocity":0.8031496062992126,"duration":0.18880208333337123},{"name":"D5","midi":74,"time":734.8632812500017,"velocity":0.8031496062992126,"duration":0.1796875},{"name":"C#3","midi":49,"time":735.0585937500017,"velocity":0.8031496062992126,"duration":0.16666666666662877},{"name":"E5","midi":76,"time":735.0585937500017,"velocity":0.8031496062992126,"duration":0.16666666666662877},{"name":"D3","midi":50,"time":735.2565104166683,"velocity":0.8031496062992126,"duration":0.18880208333337123},{"name":"F4","midi":65,"time":735.2565104166683,"velocity":0.8031496062992126,"duration":0.18880208333337123},{"name":"A2","midi":45,"time":735.4544270833351,"velocity":0.8031496062992126,"duration":0.1796875},{"name":"A4","midi":69,"time":735.4544270833351,"velocity":0.8031496062992126,"duration":0.1796875},{"name":"D3","midi":50,"time":735.6510416666684,"velocity":0.8031496062992126,"duration":0.16666666666662877},{"name":"E5","midi":76,"time":735.6510416666684,"velocity":0.8031496062992126,"duration":0.16666666666662877},{"name":"F3","midi":53,"time":735.8476562500017,"velocity":0.8031496062992126,"duration":0.18880208333337123},{"name":"D5","midi":74,"time":735.8476562500017,"velocity":0.8031496062992126,"duration":0.18880208333337123},{"name":"D3","midi":50,"time":736.0455729166684,"velocity":0.8031496062992126,"duration":0.1796875},{"name":"C#5","midi":73,"time":736.0455729166684,"velocity":0.8031496062992126,"duration":0.1796875},{"name":"F3","midi":53,"time":736.2408854166684,"velocity":0.8031496062992126,"duration":0.16666666666662877},{"name":"D5","midi":74,"time":736.2408854166684,"velocity":0.8031496062992126,"duration":0.16666666666662877},{"name":"A3","midi":57,"time":736.4388020833351,"velocity":0.8031496062992126,"duration":0.8802083333333712},{"name":"E4","midi":64,"time":736.4388020833351,"velocity":0.8031496062992126,"duration":0.18880208333337123},{"name":"A4","midi":69,"time":736.6367187500018,"velocity":0.8031496062992126,"duration":0.1796875},{"name":"D5","midi":74,"time":736.8333333333352,"velocity":0.8031496062992126,"duration":0.16666666666662877},{"name":"C5","midi":72,"time":737.0299479166684,"velocity":0.8031496062992126,"duration":0.18880208333337123},{"name":"B4","midi":71,"time":737.2265625000018,"velocity":0.8031496062992126,"duration":0.1796875},{"name":"A2","midi":45,"time":737.4231770833352,"velocity":0.8031496062992126,"duration":0.16666666666662877},{"name":"C5","midi":72,"time":737.4231770833352,"velocity":0.8031496062992126,"duration":0.16666666666662877},{"name":"A#2","midi":46,"time":737.6210937500018,"velocity":0.8031496062992126,"duration":0.18880208333337123},{"name":"D4","midi":62,"time":737.6210937500018,"velocity":0.8031496062992126,"duration":0.18880208333337123},{"name":"F2","midi":41,"time":737.8190104166686,"velocity":0.8031496062992126,"duration":0.1796875},{"name":"F4","midi":65,"time":737.8190104166686,"velocity":0.8031496062992126,"duration":0.1796875},{"name":"A#2","midi":46,"time":738.0156250000019,"velocity":0.8031496062992126,"duration":0.16666666666662877},{"name":"C5","midi":72,"time":738.0156250000019,"velocity":0.8031496062992126,"duration":0.16666666666662877},{"name":"D3","midi":50,"time":738.2109375000019,"velocity":0.8031496062992126,"duration":0.18880208333337123},{"name":"A#4","midi":70,"time":738.2109375000019,"velocity":0.8031496062992126,"duration":0.18880208333337123},{"name":"A#2","midi":46,"time":738.4101562500019,"velocity":0.8031496062992126,"duration":0.1796875},{"name":"A4","midi":69,"time":738.4101562500019,"velocity":0.8031496062992126,"duration":0.1796875},{"name":"D3","midi":50,"time":738.6054687500019,"velocity":0.8031496062992126,"duration":0.16666666666662877},{"name":"A#4","midi":70,"time":738.6054687500019,"velocity":0.8031496062992126,"duration":0.16666666666662877},{"name":"F3","midi":53,"time":738.8033854166686,"velocity":0.8031496062992126,"duration":0.3867187500001137},{"name":"C4","midi":60,"time":738.8033854166686,"velocity":0.8031496062992126,"duration":0.18880208333337123},{"name":"F4","midi":65,"time":739.0013020833353,"velocity":0.8031496062992126,"duration":0.1796875},{"name":"F2","midi":41,"time":739.1979166666687,"velocity":0.8031496062992126,"duration":0.16666666666662877},{"name":"A#4","midi":70,"time":739.1979166666687,"velocity":0.8031496062992126,"duration":0.16666666666662877},{"name":"F3","midi":53,"time":739.3958333333353,"velocity":0.8031496062992126,"duration":0.09244791666662877},{"name":"A4","midi":69,"time":739.3958333333353,"velocity":0.8031496062992126,"duration":0.18880208333325754},{"name":"E3","midi":52,"time":739.4947916666686,"velocity":0.8031496062992126,"duration":0.09244791666662877},{"name":"F3","midi":53,"time":739.5937500000018,"velocity":0.8031496062992126,"duration":0.7747395833332575},{"name":"G4","midi":67,"time":739.5937500000018,"velocity":0.8031496062992126,"duration":0.1796875},{"name":"A4","midi":69,"time":739.7890625000018,"velocity":0.8031496062992126,"duration":0.16666666666662877},{"name":"B3","midi":59,"time":739.9869791666684,"velocity":0.8031496062992126,"duration":0.18880208333337123},{"name":"D4","midi":62,"time":740.1861979166684,"velocity":0.8031496062992126,"duration":0.1796875},{"name":"E2","midi":40,"time":740.3815104166684,"velocity":0.8031496062992126,"duration":0.16666666666662877},{"name":"G4","midi":67,"time":740.3815104166684,"velocity":0.8031496062992126,"duration":0.16666666666662877},{"name":"E3","midi":52,"time":740.5768229166684,"velocity":0.8031496062992126,"duration":0.9778645833333712},{"name":"C4","midi":60,"time":740.5768229166684,"velocity":0.8031496062992126,"duration":0.18880208333337123},{"name":"E4","midi":64,"time":740.7773437500018,"velocity":0.8031496062992126,"duration":0.1796875},{"name":"G4","midi":67,"time":740.9700520833352,"velocity":0.8031496062992126,"duration":0.16666666666662877},{"name":"A3","midi":57,"time":741.1705729166684,"velocity":0.8031496062992126,"duration":0.18880208333337123},{"name":"C4","midi":60,"time":741.3671875000018,"velocity":0.8031496062992126,"duration":0.1796875},{"name":"D2","midi":38,"time":741.5651041666684,"velocity":0.8031496062992126,"duration":0.16666666666662877},{"name":"F4","midi":65,"time":741.5651041666684,"velocity":0.8031496062992126,"duration":0.16666666666662877},{"name":"D3","midi":50,"time":741.7617187500017,"velocity":0.8031496062992126,"duration":0.3867187500001137},{"name":"B3","midi":59,"time":741.7617187500017,"velocity":0.8031496062992126,"duration":0.18880208333337123},{"name":"D4","midi":62,"time":741.9596354166684,"velocity":0.8031496062992126,"duration":0.1796875},{"name":"G2","midi":43,"time":742.1575520833352,"velocity":0.8031496062992126,"duration":0.16666666666662877},{"name":"F4","midi":65,"time":742.1575520833352,"velocity":0.8031496062992126,"duration":0.16666666666662877},{"name":"C3","midi":48,"time":742.3567708333352,"velocity":0.8031496062992126,"duration":0.38671875},{"name":"E4","midi":64,"time":742.3567708333352,"velocity":0.8031496062992126,"duration":0.18880208333337123},{"name":"G4","midi":67,"time":742.5533854166686,"velocity":0.8031496062992126,"duration":0.1796875},{"name":"E3","midi":52,"time":742.7513020833352,"velocity":0.8031496062992126,"duration":0.16666666666662877},{"name":"C5","midi":72,"time":742.7513020833352,"velocity":0.8031496062992126,"duration":0.16666666666662877},{"name":"A2","midi":45,"time":742.9492187500018,"velocity":0.8031496062992126,"duration":0.3867187500001137},{"name":"F#4","midi":66,"time":742.9492187500018,"velocity":0.8031496062992126,"duration":0.18880208333337123},{"name":"A4","midi":69,"time":743.1471354166686,"velocity":0.8031496062992126,"duration":0.1796875},{"name":"D3","midi":50,"time":743.3450520833353,"velocity":0.8031496062992126,"duration":0.16666666666662877},{"name":"C5","midi":72,"time":743.3450520833353,"velocity":0.8031496062992126,"duration":0.16666666666662877},{"name":"G2","midi":43,"time":743.5429687500019,"velocity":0.8031496062992126,"duration":0.7330729166666288},{"name":"B4","midi":71,"time":743.5429687500019,"velocity":0.8031496062992126,"duration":0.18880208333337123},{"name":"A4","midi":69,"time":743.7395833333353,"velocity":0.8031496062992126,"duration":0.1796875},{"name":"G4","midi":67,"time":743.9348958333353,"velocity":0.8031496062992126,"duration":0.16666666666662877},{"name":"G4","midi":67,"time":744.1328125000019,"velocity":0.8031496062992126,"duration":0.18880208333325754},{"name":"G3","midi":55,"time":744.3307291666686,"velocity":0.8031496062992126,"duration":0.1796875},{"name":"A4","midi":69,"time":744.3307291666686,"velocity":0.8031496062992126,"duration":0.1796875},{"name":"F3","midi":53,"time":744.5273437500019,"velocity":0.8031496062992126,"duration":0.16666666666662877},{"name":"B4","midi":71,"time":744.5273437500019,"velocity":0.8031496062992126,"duration":0.16666666666662877},{"name":"E3","midi":52,"time":744.7239583333352,"velocity":0.8031496062992126,"duration":0.18880208333337123},{"name":"C5","midi":72,"time":744.7239583333352,"velocity":0.8031496062992126,"duration":0.18880208333337123},{"name":"F3","midi":53,"time":744.9218750000019,"velocity":0.8031496062992126,"duration":0.1796875},{"name":"D5","midi":74,"time":744.9218750000019,"velocity":0.8031496062992126,"duration":0.1796875},{"name":"G3","midi":55,"time":745.1171875000019,"velocity":0.8031496062992126,"duration":0.16666666666662877},{"name":"E5","midi":76,"time":745.1171875000019,"velocity":0.8031496062992126,"duration":0.16666666666662877},{"name":"G3","midi":55,"time":745.3151041666686,"velocity":0.8031496062992126,"duration":0.18880208333337123},{"name":"E5","midi":76,"time":745.3151041666686,"velocity":0.8031496062992126,"duration":0.18880208333337123},{"name":"A3","midi":57,"time":745.5130208333353,"velocity":0.8031496062992126,"duration":0.1796875},{"name":"F5","midi":77,"time":745.5130208333353,"velocity":0.8031496062992126,"duration":0.1796875},{"name":"B3","midi":59,"time":745.7096354166687,"velocity":0.8031496062992126,"duration":0.16666666666662877},{"name":"G5","midi":79,"time":745.7096354166687,"velocity":0.8031496062992126,"duration":0.16666666666662877},{"name":"C4","midi":60,"time":745.9062500000019,"velocity":0.8031496062992126,"duration":0.18880208333325754},{"name":"G5","midi":79,"time":745.9062500000019,"velocity":0.8031496062992126,"duration":0.09244791666662877},{"name":"F5","midi":77,"time":746.0065104166686,"velocity":0.8031496062992126,"duration":0.09244791666662877},{"name":"G2","midi":43,"time":746.1041666666686,"velocity":0.8031496062992126,"duration":0.1796875},{"name":"G5","midi":79,"time":746.1041666666686,"velocity":0.8031496062992126,"duration":0.38020833333325754},{"name":"C3","midi":48,"time":746.2994791666686,"velocity":0.8031496062992126,"duration":0.16666666666662877},{"name":"E3","midi":52,"time":746.4973958333352,"velocity":0.8031496062992126,"duration":0.18880208333337123},{"name":"G5","midi":79,"time":746.4973958333352,"velocity":0.8031496062992126,"duration":0.18880208333337123},{"name":"C3","midi":48,"time":746.6953125000019,"velocity":0.8031496062992126,"duration":0.1796875},{"name":"E5","midi":76,"time":746.6953125000019,"velocity":0.8031496062992126,"duration":0.1796875},{"name":"E3","midi":52,"time":746.8906250000019,"velocity":0.8031496062992126,"duration":0.16666666666662877},{"name":"C5","midi":72,"time":746.8906250000019,"velocity":0.8031496062992126,"duration":0.16666666666662877},{"name":"B2","midi":47,"time":747.0885416666686,"velocity":0.8031496062992126,"duration":0.18880208333325754},{"name":"G5","midi":79,"time":747.0885416666686,"velocity":0.8031496062992126,"duration":0.09244791666662877},{"name":"F5","midi":77,"time":747.1875000000018,"velocity":0.8031496062992126,"duration":0.09244791666662877},{"name":"G2","midi":43,"time":747.2851562500018,"velocity":0.8031496062992126,"duration":0.1796875},{"name":"G5","midi":79,"time":747.2851562500018,"velocity":0.8031496062992126,"duration":0.38020833333337123},{"name":"B2","midi":47,"time":747.4817708333352,"velocity":0.8031496062992126,"duration":0.16666666666662877},{"name":"D3","midi":50,"time":747.6796875000018,"velocity":0.8031496062992126,"duration":0.18880208333337123},{"name":"G5","midi":79,"time":747.6796875000018,"velocity":0.8031496062992126,"duration":0.18880208333337123},{"name":"B2","midi":47,"time":747.8776041666686,"velocity":0.8031496062992126,"duration":0.1796875},{"name":"D5","midi":74,"time":747.8776041666686,"velocity":0.8031496062992126,"duration":0.1796875},{"name":"D3","midi":50,"time":748.0729166666686,"velocity":0.8031496062992126,"duration":0.16666666666662877},{"name":"B4","midi":71,"time":748.0729166666686,"velocity":0.8031496062992126,"duration":0.16666666666662877},{"name":"E3","midi":52,"time":748.2695312500018,"velocity":0.8031496062992126,"duration":0.18880208333325754},{"name":"G5","midi":79,"time":748.2695312500018,"velocity":0.8031496062992126,"duration":0.09244791666662877},{"name":"F5","midi":77,"time":748.3697916666684,"velocity":0.8031496062992126,"duration":0.09244791666662877},{"name":"G2","midi":43,"time":748.4687500000017,"velocity":0.8031496062992126,"duration":0.1796875},{"name":"G5","midi":79,"time":748.4687500000017,"velocity":0.8031496062992126,"duration":0.38020833333325754},{"name":"C3","midi":48,"time":748.6640625000017,"velocity":0.8031496062992126,"duration":0.16666666666662877},{"name":"E3","midi":52,"time":748.860677083335,"velocity":0.8031496062992126,"duration":0.18880208333337123},{"name":"G5","midi":79,"time":748.860677083335,"velocity":0.8031496062992126,"duration":0.18880208333337123},{"name":"C3","midi":48,"time":749.059895833335,"velocity":0.8031496062992126,"duration":0.1796875},{"name":"E5","midi":76,"time":749.059895833335,"velocity":0.8031496062992126,"duration":0.1796875},{"name":"E3","midi":52,"time":749.2539062500016,"velocity":0.8031496062992126,"duration":0.16666666666662877},{"name":"C5","midi":72,"time":749.2539062500016,"velocity":0.8031496062992126,"duration":0.16666666666662877},{"name":"B2","midi":47,"time":749.4531250000016,"velocity":0.8031496062992126,"duration":0.18880208333337123},{"name":"G5","midi":79,"time":749.4531250000016,"velocity":0.8031496062992126,"duration":0.09244791666662877},{"name":"F5","midi":77,"time":749.5507812500016,"velocity":0.8031496062992126,"duration":0.09244791666674246},{"name":"G2","midi":43,"time":749.6484375000017,"velocity":0.8031496062992126,"duration":0.1796875},{"name":"G5","midi":79,"time":749.6484375000017,"velocity":0.8031496062992126,"duration":0.38020833333325754},{"name":"B2","midi":47,"time":749.8463541666683,"velocity":0.8031496062992126,"duration":0.16666666666662877},{"name":"D3","midi":50,"time":750.0429687500016,"velocity":0.8031496062992126,"duration":0.18880208333337123},{"name":"G5","midi":79,"time":750.0429687500016,"velocity":0.8031496062992126,"duration":0.18880208333337123},{"name":"B2","midi":47,"time":750.2421875000016,"velocity":0.8031496062992126,"duration":0.1796875},{"name":"D5","midi":74,"time":750.2421875000016,"velocity":0.8031496062992126,"duration":0.1796875},{"name":"D3","midi":50,"time":750.4361979166682,"velocity":0.8031496062992126,"duration":0.16666666666662877},{"name":"B4","midi":71,"time":750.4361979166682,"velocity":0.8031496062992126,"duration":0.16666666666662877},{"name":"E3","midi":52,"time":750.6341145833348,"velocity":0.8031496062992126,"duration":0.18880208333337123},{"name":"C5","midi":72,"time":750.6341145833348,"velocity":0.8031496062992126,"duration":0.18880208333337123},{"name":"C3","midi":48,"time":750.8320312500016,"velocity":0.8031496062992126,"duration":0.1796875},{"name":"A4","midi":69,"time":750.8320312500016,"velocity":0.8031496062992126,"duration":0.1796875},{"name":"A2","midi":45,"time":751.0273437500016,"velocity":0.8031496062992126,"duration":0.16666666666662877},{"name":"F5","midi":77,"time":751.0273437500016,"velocity":0.8031496062992126,"duration":0.16666666666662877},{"name":"D3","midi":50,"time":751.2252604166682,"velocity":0.8031496062992126,"duration":0.18880208333337123},{"name":"B4","midi":71,"time":751.2252604166682,"velocity":0.8031496062992126,"duration":0.18880208333337123},{"name":"B2","midi":47,"time":751.423177083335,"velocity":0.8031496062992126,"duration":0.1796875},{"name":"G4","midi":67,"time":751.423177083335,"velocity":0.8031496062992126,"duration":0.1796875},{"name":"G2","midi":43,"time":751.6171875000016,"velocity":0.8031496062992126,"duration":0.16666666666662877},{"name":"E5","midi":76,"time":751.6171875000016,"velocity":0.8031496062992126,"duration":0.16666666666662877},{"name":"C3","midi":48,"time":751.8177083333348,"velocity":0.8031496062992126,"duration":0.18880208333337123},{"name":"A4","midi":69,"time":751.8177083333348,"velocity":0.8031496062992126,"duration":0.18880208333337123},{"name":"A2","midi":45,"time":752.0130208333348,"velocity":0.8031496062992126,"duration":0.1796875},{"name":"F4","midi":65,"time":752.0130208333348,"velocity":0.8031496062992126,"duration":0.1796875},{"name":"F2","midi":41,"time":752.2096354166682,"velocity":0.8031496062992126,"duration":0.16666666666662877},{"name":"D5","midi":74,"time":752.2096354166682,"velocity":0.8031496062992126,"duration":0.16666666666662877},{"name":"B2","midi":47,"time":752.4062500000015,"velocity":0.8031496062992126,"duration":0.18880208333337123},{"name":"G4","midi":67,"time":752.4062500000015,"velocity":0.8031496062992126,"duration":0.18880208333337123},{"name":"G2","midi":43,"time":752.6054687500015,"velocity":0.8031496062992126,"duration":0.1796875},{"name":"E4","midi":64,"time":752.6054687500015,"velocity":0.8031496062992126,"duration":0.1796875},{"name":"E2","midi":40,"time":752.8007812500015,"velocity":0.8031496062992126,"duration":0.16666666666662877},{"name":"C5","midi":72,"time":752.8007812500015,"velocity":0.8031496062992126,"duration":0.16666666666662877},{"name":"A2","midi":45,"time":752.9986979166681,"velocity":0.8031496062992126,"duration":0.18880208333337123},{"name":"F4","midi":65,"time":752.9986979166681,"velocity":0.8031496062992126,"duration":0.18880208333337123},{"name":"F2","midi":41,"time":753.1966145833348,"velocity":0.8031496062992126,"duration":0.1796875},{"name":"D4","midi":62,"time":753.1966145833348,"velocity":0.8031496062992126,"duration":0.1796875},{"name":"D2","midi":38,"time":753.3906250000015,"velocity":0.8031496062992126,"duration":0.16666666666662877},{"name":"C5","midi":72,"time":753.3906250000015,"velocity":0.8031496062992126,"duration":0.16666666666662877},{"name":"G2","midi":43,"time":753.5885416666681,"velocity":0.8031496062992126,"duration":0.18880208333337123},{"name":"F4","midi":65,"time":753.5885416666681,"velocity":0.8031496062992126,"duration":0.18880208333337123},{"name":"F2","midi":41,"time":753.7877604166681,"velocity":0.8031496062992126,"duration":0.1796875},{"name":"D4","midi":62,"time":753.7877604166681,"velocity":0.8031496062992126,"duration":0.1796875},{"name":"G2","midi":43,"time":753.9817708333347,"velocity":0.8031496062992126,"duration":0.16666666666662877},{"name":"B4","midi":71,"time":753.9817708333347,"velocity":0.8031496062992126,"duration":0.16666666666662877},{"name":"C2","midi":36,"time":754.1809895833347,"velocity":0.8031496062992126,"duration":0.9778645833333712},{"name":"C5","midi":72,"time":754.1809895833347,"velocity":0.8031496062992126,"duration":0.18880208333337123},{"name":"E4","midi":64,"time":754.3776041666681,"velocity":0.8031496062992126,"duration":0.1796875},{"name":"G4","midi":67,"time":754.5729166666681,"velocity":0.8031496062992126,"duration":0.16666666666662877},{"name":"C4","midi":60,"time":754.7708333333347,"velocity":0.8031496062992126,"duration":0.38671875},{"name":"G4","midi":67,"time":755.1666666666681,"velocity":0.8031496062992126,"duration":0.16666666666662877},{"name":"E4","midi":64,"time":755.3645833333347,"velocity":0.8031496062992126,"duration":0.18880208333337123},{"name":"G4","midi":67,"time":755.5598958333347,"velocity":0.8031496062992126,"duration":0.1796875},{"name":"E4","midi":64,"time":755.7578125000014,"velocity":0.8031496062992126,"duration":0.16666666666662877},{"name":"C4","midi":60,"time":755.955729166668,"velocity":0.8031496062992126,"duration":0.18880208333337123},{"name":"E4","midi":64,"time":756.1536458333347,"velocity":0.8031496062992126,"duration":0.1796875},{"name":"C4","midi":60,"time":756.3489583333347,"velocity":0.8031496062992126,"duration":0.16666666666662877},{"name":"G5","midi":79,"time":756.3489583333347,"velocity":0.8031496062992126,"duration":0.16666666666662877},{"name":"G3","midi":55,"time":756.5468750000014,"velocity":0.8031496062992126,"duration":0.38671875},{"name":"E5","midi":76,"time":756.5468750000014,"velocity":0.8031496062992126,"duration":0.18880208333337123},{"name":"G5","midi":79,"time":756.7434895833347,"velocity":0.8031496062992126,"duration":0.1796875},{"name":"C4","midi":60,"time":756.9414062500014,"velocity":0.8031496062992126,"duration":0.16666666666662877},{"name":"E5","midi":76,"time":756.9414062500014,"velocity":0.8031496062992126,"duration":0.16666666666662877},{"name":"C3","midi":48,"time":757.1406250000014,"velocity":0.8031496062992126,"duration":0.7799479166667425},{"name":"C5","midi":72,"time":757.1406250000014,"velocity":0.8031496062992126,"duration":0.18880208333337123},{"name":"E5","midi":76,"time":757.3372395833347,"velocity":0.8031496062992126,"duration":0.1796875},{"name":"C5","midi":72,"time":757.5338541666681,"velocity":0.8031496062992126,"duration":0.16666666666662877},{"name":"G4","midi":67,"time":757.7304687500014,"velocity":0.8031496062992126,"duration":0.18880208333337123},{"name":"D3","midi":50,"time":757.9270833333347,"velocity":0.8031496062992126,"duration":0.1796875},{"name":"C5","midi":72,"time":757.9270833333347,"velocity":0.8031496062992126,"duration":0.1796875},{"name":"E3","midi":52,"time":758.1250000000014,"velocity":0.8031496062992126,"duration":0.16666666666662877},{"name":"A#4","midi":70,"time":758.1250000000014,"velocity":0.8031496062992126,"duration":0.16666666666662877},{"name":"F3","midi":53,"time":758.3216145833346,"velocity":0.8031496062992126,"duration":0.18880208333337123},{"name":"A4","midi":69,"time":758.3216145833346,"velocity":0.8031496062992126,"duration":0.18880208333337123},{"name":"E3","midi":52,"time":758.5208333333346,"velocity":0.8031496062992126,"duration":0.1796875},{"name":"A#4","midi":70,"time":758.5208333333346,"velocity":0.8031496062992126,"duration":0.1796875},{"name":"G3","midi":55,"time":758.7148437500013,"velocity":0.8031496062992126,"duration":0.16666666666662877},{"name":"G4","midi":67,"time":758.7148437500013,"velocity":0.8031496062992126,"duration":0.16666666666662877},{"name":"A3","midi":57,"time":758.9114583333345,"velocity":0.8031496062992126,"duration":0.18880208333337123},{"name":"F4","midi":65,"time":758.9114583333345,"velocity":0.8031496062992126,"duration":0.18880208333337123},{"name":"G3","midi":55,"time":759.1093750000013,"velocity":0.8031496062992126,"duration":0.1796875},{"name":"E4","midi":64,"time":759.1093750000013,"velocity":0.8031496062992126,"duration":0.1796875},{"name":"A#3","midi":58,"time":759.3059895833346,"velocity":0.8031496062992126,"duration":0.16666666666662877},{"name":"G4","midi":67,"time":759.3059895833346,"velocity":0.8031496062992126,"duration":0.16666666666662877},{"name":"A3","midi":57,"time":759.5039062500013,"velocity":0.8031496062992126,"duration":0.18880208333337123},{"name":"F4","midi":65,"time":759.5039062500013,"velocity":0.8031496062992126,"duration":0.3867187500001137},{"name":"A#3","midi":58,"time":759.701822916668,"velocity":0.8031496062992126,"duration":0.1796875},{"name":"C4","midi":60,"time":759.8997395833347,"velocity":0.8031496062992126,"duration":0.16666666666662877},{"name":"C6","midi":84,"time":759.8997395833347,"velocity":0.8031496062992126,"duration":0.16666666666662877},{"name":"F3","midi":53,"time":760.096354166668,"velocity":0.8031496062992126,"duration":0.8802083333332575},{"name":"A5","midi":81,"time":760.096354166668,"velocity":0.8031496062992126,"duration":0.18880208333337123},{"name":"C6","midi":84,"time":760.295572916668,"velocity":0.8031496062992126,"duration":0.1796875},{"name":"A5","midi":81,"time":760.490885416668,"velocity":0.8031496062992126,"duration":0.16666666666662877},{"name":"F5","midi":77,"time":760.6875000000013,"velocity":0.8031496062992126,"duration":0.18880208333337123},{"name":"A5","midi":81,"time":760.8867187500013,"velocity":0.8031496062992126,"duration":0.1796875},{"name":"F3","midi":53,"time":761.0807291666679,"velocity":0.8031496062992126,"duration":0.16666666666662877},{"name":"F5","midi":77,"time":761.0807291666679,"velocity":0.8031496062992126,"duration":0.16666666666662877},{"name":"A3","midi":57,"time":761.2786458333345,"velocity":0.8031496062992126,"duration":0.18880208333337123},{"name":"C5","midi":72,"time":761.2786458333345,"velocity":0.8031496062992126,"duration":0.3867187500001137},{"name":"F3","midi":53,"time":761.4765625000013,"velocity":0.8031496062992126,"duration":0.1796875},{"name":"A3","midi":57,"time":761.674479166668,"velocity":0.8031496062992126,"duration":0.16666666666662877},{"name":"F5","midi":77,"time":761.674479166668,"velocity":0.8031496062992126,"duration":0.16666666666662877},{"name":"C4","midi":60,"time":761.873697916668,"velocity":0.8031496062992126,"duration":0.18880208333337123},{"name":"F4","midi":65,"time":761.873697916668,"velocity":0.8031496062992126,"duration":0.7799479166666288},{"name":"A3","midi":57,"time":762.069010416668,"velocity":0.8031496062992126,"duration":0.1796875},{"name":"C4","midi":60,"time":762.264322916668,"velocity":0.8031496062992126,"duration":0.16666666666662877},{"name":"D#4","midi":63,"time":762.463541666668,"velocity":0.8031496062992126,"duration":0.38671875},{"name":"G4","midi":67,"time":762.6614583333346,"velocity":0.8031496062992126,"duration":0.1796875},{"name":"D#3","midi":51,"time":762.8593750000014,"velocity":0.8031496062992126,"duration":0.16666666666662877},{"name":"A4","midi":69,"time":762.8593750000014,"velocity":0.8031496062992126,"duration":0.16666666666662877},{"name":"D3","midi":50,"time":763.057291666668,"velocity":0.8031496062992126,"duration":0.3867187500001137},{"name":"A#4","midi":70,"time":763.057291666668,"velocity":0.8031496062992126,"duration":0.18880208333337123},{"name":"A4","midi":69,"time":763.2552083333347,"velocity":0.8031496062992126,"duration":0.1796875},{"name":"C3","midi":48,"time":763.4518229166681,"velocity":0.8031496062992126,"duration":0.16666666666662877},{"name":"C5","midi":72,"time":763.4518229166681,"velocity":0.8031496062992126,"duration":0.16666666666662877},{"name":"A#2","midi":46,"time":763.6497395833347,"velocity":0.8031496062992126,"duration":0.3867187500001137},{"name":"D5","midi":74,"time":763.6497395833347,"velocity":0.8031496062992126,"duration":0.18880208333337123},{"name":"C5","midi":72,"time":763.8476562500015,"velocity":0.8031496062992126,"duration":0.1796875},{"name":"F3","midi":53,"time":764.0455729166682,"velocity":0.8031496062992126,"duration":0.16666666666662877},{"name":"D#5","midi":75,"time":764.0455729166682,"velocity":0.8031496062992126,"duration":0.16666666666662877},{"name":"A#3","midi":58,"time":764.2434895833348,"velocity":0.8031496062992126,"duration":0.18880208333337123},{"name":"D5","midi":74,"time":764.2434895833348,"velocity":0.8031496062992126,"duration":0.18880208333337123},{"name":"C4","midi":60,"time":764.4401041666682,"velocity":0.8031496062992126,"duration":0.1796875},{"name":"E5","midi":76,"time":764.4401041666682,"velocity":0.8031496062992126,"duration":0.1796875},{"name":"A3","midi":57,"time":764.6367187500016,"velocity":0.8031496062992126,"duration":0.16666666666662877},{"name":"F#5","midi":78,"time":764.6367187500016,"velocity":0.8031496062992126,"duration":0.16666666666662877},{"name":"A#3","midi":58,"time":764.8346354166682,"velocity":0.8031496062992126,"duration":0.18880208333337123},{"name":"G5","midi":79,"time":764.8346354166682,"velocity":0.8031496062992126,"duration":0.18880208333337123},{"name":"C4","midi":60,"time":765.0312500000016,"velocity":0.8031496062992126,"duration":0.1796875},{"name":"F#5","midi":78,"time":765.0312500000016,"velocity":0.8031496062992126,"duration":0.1796875},{"name":"A3","midi":57,"time":765.227864583335,"velocity":0.8031496062992126,"duration":0.16666666666662877},{"name":"A5","midi":81,"time":765.227864583335,"velocity":0.8031496062992126,"duration":0.16666666666662877},{"name":"B3","midi":59,"time":765.4244791666682,"velocity":0.8031496062992126,"duration":0.3867187500001137},{"name":"G5","midi":79,"time":765.4244791666682,"velocity":0.8031496062992126,"duration":0.18880208333337123},{"name":"F5","midi":77,"time":765.622395833335,"velocity":0.8031496062992126,"duration":0.1796875},{"name":"C#4","midi":61,"time":765.8203125000017,"velocity":0.8031496062992126,"duration":0.16666666666662877},{"name":"E5","midi":76,"time":765.8203125000017,"velocity":0.8031496062992126,"duration":0.16666666666662877},{"name":"D4","midi":62,"time":766.0182291666683,"velocity":0.8031496062992126,"duration":0.18880208333337123},{"name":"F5","midi":77,"time":766.0182291666683,"velocity":0.8031496062992126,"duration":0.18880208333337123},{"name":"C#4","midi":61,"time":766.2161458333351,"velocity":0.8031496062992126,"duration":0.1796875},{"name":"E5","midi":76,"time":766.2161458333351,"velocity":0.8031496062992126,"duration":0.1796875},{"name":"E4","midi":64,"time":766.4101562500017,"velocity":0.8031496062992126,"duration":0.16666666666662877},{"name":"G5","midi":79,"time":766.4101562500017,"velocity":0.8031496062992126,"duration":0.16666666666662877},{"name":"D4","midi":62,"time":766.610677083335,"velocity":0.8031496062992126,"duration":0.18880208333337123},{"name":"F5","midi":77,"time":766.610677083335,"velocity":0.8031496062992126,"duration":0.18880208333337123},{"name":"G3","midi":55,"time":766.805989583335,"velocity":0.8031496062992126,"duration":0.1796875},{"name":"E5","midi":76,"time":766.805989583335,"velocity":0.8031496062992126,"duration":0.1796875},{"name":"A#3","midi":58,"time":767.0026041666683,"velocity":0.8031496062992126,"duration":0.16666666666662877},{"name":"D5","midi":74,"time":767.0026041666683,"velocity":0.8031496062992126,"duration":0.16666666666662877},{"name":"A3","midi":57,"time":767.200520833335,"velocity":0.8031496062992126,"duration":0.3867187500001137},{"name":"C#5","midi":73,"time":767.200520833335,"velocity":0.8031496062992126,"duration":0.18880208333337123},{"name":"B4","midi":71,"time":767.3984375000017,"velocity":0.8031496062992126,"duration":0.1796875},{"name":"A2","midi":45,"time":767.5950520833351,"velocity":0.8031496062992126,"duration":0.16666666666662877},{"name":"D5","midi":74,"time":767.5950520833351,"velocity":0.8031496062992126,"duration":0.16666666666662877},{"name":"A3","midi":57,"time":767.7929687500017,"velocity":0.8031496062992126,"duration":0.09244791666662877},{"name":"C#5","midi":73,"time":767.7929687500017,"velocity":0.8031496062992126,"duration":0.18880208333325754},{"name":"G3","midi":55,"time":767.891927083335,"velocity":0.8031496062992126,"duration":0.09244791666662877},{"name":"A3","midi":57,"time":767.9908854166682,"velocity":0.8031496062992126,"duration":0.7747395833333712},{"name":"A4","midi":69,"time":767.9908854166682,"velocity":0.8031496062992126,"duration":0.1796875},{"name":"C#5","midi":73,"time":768.1875000000016,"velocity":0.8031496062992126,"duration":0.16666666666662877},{"name":"D5","midi":74,"time":768.3841145833348,"velocity":0.8031496062992126,"duration":0.18880208333337123},{"name":"C#5","midi":73,"time":768.5820312500016,"velocity":0.8031496062992126,"duration":0.1796875},{"name":"A2","midi":45,"time":768.7773437500016,"velocity":0.8031496062992126,"duration":0.16666666666662877},{"name":"E5","midi":76,"time":768.7773437500016,"velocity":0.8031496062992126,"duration":0.16666666666662877},{"name":"A3","midi":57,"time":768.9752604166682,"velocity":0.8031496062992126,"duration":0.09244791666662877},{"name":"D5","midi":74,"time":768.9752604166682,"velocity":0.8031496062992126,"duration":0.18880208333325754},{"name":"G3","midi":55,"time":769.0755208333348,"velocity":0.8031496062992126,"duration":0.09244791666662877},{"name":"A3","midi":57,"time":769.1731770833348,"velocity":0.8031496062992126,"duration":0.7747395833333712},{"name":"A4","midi":69,"time":769.1731770833348,"velocity":0.8031496062992126,"duration":0.1796875},{"name":"D5","midi":74,"time":769.3697916666682,"velocity":0.8031496062992126,"duration":0.16666666666662877},{"name":"E5","midi":76,"time":769.5664062500015,"velocity":0.8031496062992126,"duration":0.18880208333337123},{"name":"D5","midi":74,"time":769.7643229166682,"velocity":0.8031496062992126,"duration":0.1796875},{"name":"A2","midi":45,"time":769.9596354166682,"velocity":0.8031496062992126,"duration":0.16666666666662877},{"name":"F5","midi":77,"time":769.9596354166682,"velocity":0.8031496062992126,"duration":0.16666666666662877},{"name":"A3","midi":57,"time":770.1575520833348,"velocity":0.8031496062992126,"duration":0.09244791666662877},{"name":"E5","midi":76,"time":770.1575520833348,"velocity":0.8031496062992126,"duration":0.18880208333325754},{"name":"G3","midi":55,"time":770.2565104166681,"velocity":0.8031496062992126,"duration":0.09244791666662877},{"name":"A3","midi":57,"time":770.3541666666681,"velocity":0.8031496062992126,"duration":0.7747395833332575},{"name":"A4","midi":69,"time":770.3541666666681,"velocity":0.8031496062992126,"duration":0.1796875},{"name":"E5","midi":76,"time":770.5520833333347,"velocity":0.8031496062992126,"duration":0.16666666666662877},{"name":"F5","midi":77,"time":770.7473958333347,"velocity":0.8031496062992126,"duration":0.18880208333337123},{"name":"E5","midi":76,"time":770.9466145833347,"velocity":0.8031496062992126,"duration":0.1796875},{"name":"A2","midi":45,"time":771.1419270833347,"velocity":0.8031496062992126,"duration":0.16666666666662877},{"name":"G5","midi":79,"time":771.1419270833347,"velocity":0.8031496062992126,"duration":0.16666666666662877},{"name":"A3","midi":57,"time":771.338541666668,"velocity":0.8031496062992126,"duration":0.38671875},{"name":"F5","midi":77,"time":771.338541666668,"velocity":0.8031496062992126,"duration":0.18880208333337123},{"name":"E5","midi":76,"time":771.537760416668,"velocity":0.8031496062992126,"duration":0.1796875},{"name":"A2","midi":45,"time":771.7343750000014,"velocity":0.8031496062992126,"duration":0.16666666666662877},{"name":"D5","midi":74,"time":771.7343750000014,"velocity":0.8031496062992126,"duration":0.16666666666662877},{"name":"A3","midi":57,"time":771.9335937500014,"velocity":0.8031496062992126,"duration":0.18880208333337123},{"name":"C#5","midi":73,"time":771.9335937500014,"velocity":0.8031496062992126,"duration":0.18880208333337123},{"name":"G3","midi":55,"time":772.1302083333347,"velocity":0.8031496062992126,"duration":0.1796875},{"name":"E5","midi":76,"time":772.1302083333347,"velocity":0.8031496062992126,"duration":0.1796875},{"name":"A#3","midi":58,"time":772.3242187500014,"velocity":0.8031496062992126,"duration":0.16666666666662877},{"name":"D5","midi":74,"time":772.3242187500014,"velocity":0.8031496062992126,"duration":0.16666666666662877},{"name":"A3","midi":57,"time":772.5234375000014,"velocity":0.8031496062992126,"duration":0.18880208333337123},{"name":"C#5","midi":73,"time":772.5234375000014,"velocity":0.8031496062992126,"duration":0.18880208333337123},{"name":"G3","midi":55,"time":772.7213541666681,"velocity":0.8031496062992126,"duration":0.1796875},{"name":"E5","midi":76,"time":772.7213541666681,"velocity":0.8031496062992126,"duration":0.1796875},{"name":"A#3","midi":58,"time":772.9179687500015,"velocity":0.8031496062992126,"duration":0.16666666666662877},{"name":"D5","midi":74,"time":772.9179687500015,"velocity":0.8031496062992126,"duration":0.16666666666662877},{"name":"A3","midi":57,"time":773.1145833333347,"velocity":0.8031496062992126,"duration":0.18880208333337123},{"name":"C#5","midi":73,"time":773.1145833333347,"velocity":0.8031496062992126,"duration":0.18880208333337123},{"name":"G3","midi":55,"time":773.3138020833347,"velocity":0.8031496062992126,"duration":0.1796875},{"name":"E5","midi":76,"time":773.3138020833347,"velocity":0.8031496062992126,"duration":0.1796875},{"name":"A#3","midi":58,"time":773.5065104166681,"velocity":0.8031496062992126,"duration":0.16666666666662877},{"name":"D5","midi":74,"time":773.5065104166681,"velocity":0.8031496062992126,"duration":0.16666666666662877},{"name":"A3","midi":57,"time":773.7057291666681,"velocity":0.8031496062992126,"duration":0.18880208333325754},{"name":"D5","midi":74,"time":773.7057291666681,"velocity":0.8031496062992126,"duration":0.09244791666662877},{"name":"C#5","midi":73,"time":773.8046875000014,"velocity":0.8031496062992126,"duration":0.09244791666662877},{"name":"A#3","midi":58,"time":773.9036458333346,"velocity":0.8031496062992126,"duration":0.17708333333337123},{"name":"D5","midi":74,"time":773.9036458333346,"velocity":0.8031496062992126,"duration":0.08333333333337123},{"name":"C#5","midi":73,"time":774.0013020833346,"velocity":0.8031496062992126,"duration":0.09244791666674246},{"name":"G3","midi":55,"time":774.0989583333347,"velocity":0.8031496062992126,"duration":0.16666666666662877},{"name":"A4","midi":69,"time":774.0989583333347,"velocity":0.8031496062992126,"duration":0.16666666666662877},{"name":"F3","midi":53,"time":774.2981770833347,"velocity":0.8031496062992126,"duration":0.18880208333337123},{"name":"A5","midi":81,"time":774.2981770833347,"velocity":0.8031496062992126,"duration":0.38671875},{"name":"E3","midi":52,"time":774.4947916666681,"velocity":0.8031496062992126,"duration":0.1796875},{"name":"G3","midi":55,"time":774.6914062500014,"velocity":0.8031496062992126,"duration":0.16666666666662877},{"name":"A4","midi":69,"time":774.6914062500014,"velocity":0.8031496062992126,"duration":0.16666666666662877},{"name":"F3","midi":53,"time":774.8906250000014,"velocity":0.8031496062992126,"duration":0.18880208333337123},{"name":"A5","midi":81,"time":774.8906250000014,"velocity":0.8031496062992126,"duration":0.09244791666662877},{"name":"G5","midi":79,"time":774.9882812500014,"velocity":0.8031496062992126,"duration":0.09244791666674246},{"name":"A3","midi":57,"time":775.0859375000015,"velocity":0.8031496062992126,"duration":0.1796875},{"name":"A5","midi":81,"time":775.0859375000015,"velocity":0.8031496062992126,"duration":0.7747395833332575},{"name":"E3","midi":52,"time":775.2838541666681,"velocity":0.8031496062992126,"duration":0.16666666666662877},{"name":"F3","midi":53,"time":775.4804687500014,"velocity":0.8031496062992126,"duration":0.18880208333337123},{"name":"E3","midi":52,"time":775.6770833333347,"velocity":0.8031496062992126,"duration":0.1796875},{"name":"A3","midi":57,"time":775.8736979166681,"velocity":0.8031496062992126,"duration":0.16666666666662877},{"name":"A4","midi":69,"time":775.8736979166681,"velocity":0.8031496062992126,"duration":0.16666666666662877},{"name":"F3","midi":53,"time":776.0716145833347,"velocity":0.8031496062992126,"duration":0.18880208333325754},{"name":"A5","midi":81,"time":776.0716145833347,"velocity":0.8031496062992126,"duration":0.09244791666662877},{"name":"G5","midi":79,"time":776.1718750000014,"velocity":0.8031496062992126,"duration":0.09244791666662877},{"name":"E3","midi":52,"time":776.2695312500014,"velocity":0.8031496062992126,"duration":0.1796875},{"name":"A5","midi":81,"time":776.2695312500014,"velocity":0.8031496062992126,"duration":0.1796875},{"name":"D3","midi":50,"time":776.4661458333347,"velocity":0.8031496062992126,"duration":0.16666666666662877},{"name":"A4","midi":69,"time":776.4661458333347,"velocity":0.8031496062992126,"duration":0.16666666666662877},{"name":"C#3","midi":49,"time":776.662760416668,"velocity":0.8031496062992126,"duration":0.18880208333337123},{"name":"A5","midi":81,"time":776.662760416668,"velocity":0.8031496062992126,"duration":0.3867187500001137},{"name":"B2","midi":47,"time":776.8606770833347,"velocity":0.8031496062992126,"duration":0.1796875},{"name":"D3","midi":50,"time":777.0572916666681,"velocity":0.8031496062992126,"duration":0.16666666666662877},{"name":"A4","midi":69,"time":777.0572916666681,"velocity":0.8031496062992126,"duration":0.16666666666662877},{"name":"C#3","midi":49,"time":777.2578125000014,"velocity":0.8031496062992126,"duration":0.18880208333337123},{"name":"A5","midi":81,"time":777.2578125000014,"velocity":0.8031496062992126,"duration":0.09244791666662877},{"name":"G5","midi":79,"time":777.3554687500014,"velocity":0.8031496062992126,"duration":0.09244791666674246},{"name":"E3","midi":52,"time":777.4544270833347,"velocity":0.8031496062992126,"duration":0.1796875},{"name":"A5","midi":81,"time":777.4544270833347,"velocity":0.8031496062992126,"duration":0.7747395833334849},{"name":"B2","midi":47,"time":777.6510416666681,"velocity":0.8031496062992126,"duration":0.16666666666662877},{"name":"C#3","midi":49,"time":777.8463541666681,"velocity":0.8031496062992126,"duration":0.18880208333337123},{"name":"B2","midi":47,"time":778.0442708333348,"velocity":0.8031496062992126,"duration":0.1796875},{"name":"D3","midi":50,"time":778.2408854166682,"velocity":0.8031496062992126,"duration":0.16666666666662877},{"name":"A4","midi":69,"time":778.2408854166682,"velocity":0.8031496062992126,"duration":0.16666666666662877},{"name":"C#3","midi":49,"time":778.4388020833348,"velocity":0.8031496062992126,"duration":0.18880208333337123},{"name":"A5","midi":81,"time":778.4388020833348,"velocity":0.8031496062992126,"duration":0.38671875},{"name":"B2","midi":47,"time":778.6380208333348,"velocity":0.8031496062992126,"duration":0.1796875},{"name":"A2","midi":45,"time":778.8333333333348,"velocity":0.8031496062992126,"duration":0.16666666666662877},{"name":"E5","midi":76,"time":778.8333333333348,"velocity":0.8031496062992126,"duration":0.16666666666662877},{"name":"D3","midi":50,"time":779.0325520833348,"velocity":0.8031496062992126,"duration":0.3867187499998863},{"name":"F5","midi":77,"time":779.0325520833348,"velocity":0.8031496062992126,"duration":0.09244791666662877},{"name":"G5","midi":79,"time":779.1315104166681,"velocity":0.8031496062992126,"duration":0.09244791666662877},{"name":"A5","midi":81,"time":779.2291666666681,"velocity":0.8031496062992126,"duration":0.1796875},{"name":"F3","midi":53,"time":779.4283854166681,"velocity":0.8031496062992126,"duration":0.16666666666662877},{"name":"D5","midi":74,"time":779.4283854166681,"velocity":0.8031496062992126,"duration":0.16666666666662877},{"name":"A3","midi":57,"time":779.6250000000014,"velocity":0.8031496062992126,"duration":0.38671875},{"name":"A4","midi":69,"time":779.6250000000014,"velocity":0.8031496062992126,"duration":0.18880208333337123},{"name":"D5","midi":74,"time":779.8216145833347,"velocity":0.8031496062992126,"duration":0.1796875},{"name":"A2","midi":45,"time":780.0208333333347,"velocity":0.8031496062992126,"duration":0.16666666666662877},{"name":"C#5","midi":73,"time":780.0208333333347,"velocity":0.8031496062992126,"duration":0.16666666666662877},{"name":"D3","midi":50,"time":780.217447916668,"velocity":0.8031496062992126,"duration":0.18880208333337123},{"name":"D5","midi":74,"time":780.217447916668,"velocity":0.8031496062992126,"duration":0.8802083333333712},{"name":"A2","midi":45,"time":780.4153645833347,"velocity":0.8031496062992126,"duration":0.1796875},{"name":"D3","midi":50,"time":780.6119791666681,"velocity":0.8031496062992126,"duration":0.16666666666662877},{"name":"F3","midi":53,"time":780.8085937500014,"velocity":0.8031496062992126,"duration":0.18880208333337123},{"name":"D3","midi":50,"time":781.0078125000014,"velocity":0.8031496062992126,"duration":0.1796875},{"name":"F3","midi":53,"time":781.201822916668,"velocity":0.8031496062992126,"duration":0.16666666666662877},{"name":"D5","midi":74,"time":781.201822916668,"velocity":0.8031496062992126,"duration":0.16666666666662877},{"name":"A3","midi":57,"time":781.401041666668,"velocity":0.8031496062992126,"duration":0.8802083333333712},{"name":"C5","midi":72,"time":781.401041666668,"velocity":0.8031496062992126,"duration":0.18880208333337123},{"name":"F5","midi":77,"time":781.5976562500014,"velocity":0.8031496062992126,"duration":0.1796875},{"name":"C5","midi":72,"time":781.7929687500014,"velocity":0.8031496062992126,"duration":0.16666666666662877},{"name":"A4","midi":69,"time":781.9921875000014,"velocity":0.8031496062992126,"duration":0.18880208333337123},{"name":"C5","midi":72,"time":782.1888020833347,"velocity":0.8031496062992126,"duration":0.1796875},{"name":"C4","midi":60,"time":782.3828125000014,"velocity":0.8031496062992126,"duration":0.16666666666662877},{"name":"A4","midi":69,"time":782.3828125000014,"velocity":0.8031496062992126,"duration":0.16666666666662877},{"name":"A3","midi":57,"time":782.5820312500014,"velocity":0.8031496062992126,"duration":0.18880208333337123},{"name":"F4","midi":65,"time":782.5820312500014,"velocity":0.8031496062992126,"duration":0.3867187500001137},{"name":"C4","midi":60,"time":782.7799479166681,"velocity":0.8031496062992126,"duration":0.1796875},{"name":"A3","midi":57,"time":782.9778645833348,"velocity":0.8031496062992126,"duration":0.16666666666662877},{"name":"C5","midi":72,"time":782.9778645833348,"velocity":0.8031496062992126,"duration":0.16666666666662877},{"name":"F3","midi":53,"time":783.1744791666681,"velocity":0.8031496062992126,"duration":0.18880208333337123},{"name":"C4","midi":60,"time":783.1744791666681,"velocity":0.8031496062992126,"duration":0.7799479166666288},{"name":"A3","midi":57,"time":783.3736979166681,"velocity":0.8031496062992126,"duration":0.1796875},{"name":"F3","midi":53,"time":783.5677083333347,"velocity":0.8031496062992126,"duration":0.16666666666662877},{"name":"C3","midi":48,"time":783.7669270833347,"velocity":0.8031496062992126,"duration":0.18880208333337123},{"name":"F3","midi":53,"time":783.9648437500015,"velocity":0.8031496062992126,"duration":0.1796875},{"name":"D4","midi":62,"time":783.9648437500015,"velocity":0.8031496062992126,"duration":0.1796875},{"name":"C3","midi":48,"time":784.1601562500015,"velocity":0.8031496062992126,"duration":0.16666666666662877},{"name":"D#4","midi":63,"time":784.1601562500015,"velocity":0.8031496062992126,"duration":0.16666666666662877},{"name":"A2","midi":45,"time":784.3567708333347,"velocity":0.8031496062992126,"duration":0.18880208333337123},{"name":"F4","midi":65,"time":784.3567708333347,"velocity":0.8031496062992126,"duration":0.18880208333337123},{"name":"C3","midi":48,"time":784.5546875000015,"velocity":0.8031496062992126,"duration":0.1796875},{"name":"G4","midi":67,"time":784.5546875000015,"velocity":0.8031496062992126,"duration":0.1796875},{"name":"A2","midi":45,"time":784.7486979166681,"velocity":0.8031496062992126,"duration":0.16666666666662877},{"name":"D#4","midi":63,"time":784.7486979166681,"velocity":0.8031496062992126,"duration":0.16666666666662877},{"name":"A#2","midi":46,"time":784.9492187500014,"velocity":0.8031496062992126,"duration":0.18880208333337123},{"name":"D4","midi":62,"time":784.9492187500014,"velocity":0.8031496062992126,"duration":0.18880208333337123},{"name":"F2","midi":41,"time":785.1445312500014,"velocity":0.8031496062992126,"duration":0.1796875},{"name":"F4","midi":65,"time":785.1445312500014,"velocity":0.8031496062992126,"duration":0.1796875},{"name":"A#2","midi":46,"time":785.342447916668,"velocity":0.8031496062992126,"duration":0.16666666666662877},{"name":"C5","midi":72,"time":785.342447916668,"velocity":0.8031496062992126,"duration":0.16666666666662877},{"name":"D3","midi":50,"time":785.5390625000013,"velocity":0.8031496062992126,"duration":0.18880208333337123},{"name":"A#4","midi":70,"time":785.5390625000013,"velocity":0.8031496062992126,"duration":0.18880208333337123},{"name":"A#2","midi":46,"time":785.7356770833346,"velocity":0.8031496062992126,"duration":0.1796875},{"name":"A4","midi":69,"time":785.7356770833346,"velocity":0.8031496062992126,"duration":0.1796875},{"name":"D3","midi":50,"time":785.932291666668,"velocity":0.8031496062992126,"duration":0.16666666666662877},{"name":"A#4","midi":70,"time":785.932291666668,"velocity":0.8031496062992126,"duration":0.16666666666662877},{"name":"F3","midi":53,"time":786.1302083333346,"velocity":0.8031496062992126,"duration":0.8802083333334849},{"name":"C4","midi":60,"time":786.1302083333346,"velocity":0.8031496062992126,"duration":0.18880208333337123},{"name":"F4","midi":65,"time":786.3281250000014,"velocity":0.8031496062992126,"duration":0.1796875},{"name":"A#4","midi":70,"time":786.5247395833347,"velocity":0.8031496062992126,"duration":0.16666666666662877},{"name":"A4","midi":69,"time":786.721354166668,"velocity":0.8031496062992126,"duration":0.18880208333337123},{"name":"G4","midi":67,"time":786.9192708333347,"velocity":0.8031496062992126,"duration":0.1796875},{"name":"F#2","midi":42,"time":787.1132812500014,"velocity":0.8031496062992126,"duration":0.16666666666662877},{"name":"A4","midi":69,"time":787.1132812500014,"velocity":0.8031496062992126,"duration":0.16666666666662877},{"name":"G2","midi":43,"time":787.3138020833346,"velocity":0.8031496062992126,"duration":0.18880208333337123},{"name":"A#3","midi":58,"time":787.3138020833346,"velocity":0.8031496062992126,"duration":0.18880208333337123},{"name":"D2","midi":38,"time":787.5091145833346,"velocity":0.8031496062992126,"duration":0.1796875},{"name":"D4","midi":62,"time":787.5091145833346,"velocity":0.8031496062992126,"duration":0.1796875},{"name":"G2","midi":43,"time":787.7070312500013,"velocity":0.8031496062992126,"duration":0.16666666666662877},{"name":"A4","midi":69,"time":787.7070312500013,"velocity":0.8031496062992126,"duration":0.16666666666662877},{"name":"A#2","midi":46,"time":787.9036458333345,"velocity":0.8031496062992126,"duration":0.18880208333337123},{"name":"G4","midi":67,"time":787.9036458333345,"velocity":0.8031496062992126,"duration":0.18880208333337123},{"name":"G2","midi":43,"time":788.1002604166679,"velocity":0.8031496062992126,"duration":0.1796875},{"name":"F#4","midi":66,"time":788.1002604166679,"velocity":0.8031496062992126,"duration":0.1796875},{"name":"A#2","midi":46,"time":788.2968750000013,"velocity":0.8031496062992126,"duration":0.16666666666662877},{"name":"G4","midi":67,"time":788.2968750000013,"velocity":0.8031496062992126,"duration":0.16666666666662877},{"name":"D3","midi":50,"time":788.4947916666679,"velocity":0.8031496062992126,"duration":0.18880208333337123},{"name":"F#4","midi":66,"time":788.4947916666679,"velocity":0.8031496062992126,"duration":0.3867187500001137},{"name":"C3","midi":48,"time":788.6927083333346,"velocity":0.8031496062992126,"duration":0.1796875},{"name":"D#3","midi":51,"time":788.8906250000014,"velocity":0.8031496062992126,"duration":0.16666666666662877},{"name":"D4","midi":62,"time":788.8906250000014,"velocity":0.8031496062992126,"duration":0.16666666666662877},{"name":"D3","midi":50,"time":789.0872395833346,"velocity":0.8031496062992126,"duration":0.18880208333325754},{"name":"D5","midi":74,"time":789.0872395833346,"velocity":0.8031496062992126,"duration":0.09244791666662877},{"name":"C5","midi":72,"time":789.1861979166679,"velocity":0.8031496062992126,"duration":0.09244791666662877},{"name":"D#3","midi":51,"time":789.2851562500011,"velocity":0.8031496062992126,"duration":0.1796875},{"name":"D5","midi":74,"time":789.2851562500011,"velocity":0.8031496062992126,"duration":0.7747395833333712},{"name":"C3","midi":48,"time":789.4804687500011,"velocity":0.8031496062992126,"duration":0.16666666666662877},{"name":"A#2","midi":46,"time":789.6796875000011,"velocity":0.8031496062992126,"duration":0.18880208333337123},{"name":"A2","midi":45,"time":789.8763020833345,"velocity":0.8031496062992126,"duration":0.1796875},{"name":"C3","midi":48,"time":790.0716145833345,"velocity":0.8031496062992126,"duration":0.16666666666662877},{"name":"D4","midi":62,"time":790.0716145833345,"velocity":0.8031496062992126,"duration":0.16666666666662877},{"name":"A#2","midi":46,"time":790.2682291666678,"velocity":0.8031496062992126,"duration":0.18880208333325754},{"name":"D5","midi":74,"time":790.2682291666678,"velocity":0.8031496062992126,"duration":0.09244791666662877},{"name":"C5","midi":72,"time":790.367187500001,"velocity":0.8031496062992126,"duration":0.09244791666662877},{"name":"C3","midi":48,"time":790.4674479166677,"velocity":0.8031496062992126,"duration":0.1796875},{"name":"D5","midi":74,"time":790.4674479166677,"velocity":0.8031496062992126,"duration":0.1796875},{"name":"A2","midi":45,"time":790.664062500001,"velocity":0.8031496062992126,"duration":0.16666666666662877},{"name":"D4","midi":62,"time":790.664062500001,"velocity":0.8031496062992126,"duration":0.16666666666662877},{"name":"G2","midi":43,"time":790.8606770833343,"velocity":0.8031496062992126,"duration":0.18880208333337123},{"name":"D5","midi":74,"time":790.8606770833343,"velocity":0.8031496062992126,"duration":0.3867187500001137},{"name":"F#2","midi":42,"time":791.058593750001,"velocity":0.8031496062992126,"duration":0.1796875},{"name":"A2","midi":45,"time":791.2565104166678,"velocity":0.8031496062992126,"duration":0.16666666666662877},{"name":"D4","midi":62,"time":791.2565104166678,"velocity":0.8031496062992126,"duration":0.16666666666662877},{"name":"G2","midi":43,"time":791.4518229166678,"velocity":0.8031496062992126,"duration":0.18880208333325754},{"name":"D5","midi":74,"time":791.4518229166678,"velocity":0.8031496062992126,"duration":0.09244791666662877},{"name":"C5","midi":72,"time":791.554687500001,"velocity":0.8031496062992126,"duration":0.09244791666662877},{"name":"A#2","midi":46,"time":791.652343750001,"velocity":0.8031496062992126,"duration":0.1796875},{"name":"D5","midi":74,"time":791.652343750001,"velocity":0.8031496062992126,"duration":0.7747395833333712},{"name":"A2","midi":45,"time":791.847656250001,"velocity":0.8031496062992126,"duration":0.16666666666662877},{"name":"F#2","midi":42,"time":792.0455729166677,"velocity":0.8031496062992126,"duration":0.18880208333337123},{"name":"G2","midi":43,"time":792.2434895833344,"velocity":0.8031496062992126,"duration":0.1796875},{"name":"A2","midi":45,"time":792.437500000001,"velocity":0.8031496062992126,"duration":0.16666666666662877},{"name":"D4","midi":62,"time":792.437500000001,"velocity":0.8031496062992126,"duration":0.16666666666662877},{"name":"D2","midi":38,"time":792.6354166666677,"velocity":0.8031496062992126,"duration":0.9778645833334849},{"name":"D5","midi":74,"time":792.6354166666677,"velocity":0.8031496062992126,"duration":0.18880208333337123},{"name":"E5","midi":76,"time":792.8333333333344,"velocity":0.8031496062992126,"duration":0.1796875},{"name":"F#5","midi":78,"time":793.0299479166678,"velocity":0.8031496062992126,"duration":0.16666666666662877},{"name":"G5","midi":79,"time":793.2278645833344,"velocity":0.8031496062992126,"duration":0.18880208333337123},{"name":"F#5","midi":78,"time":793.4244791666678,"velocity":0.8031496062992126,"duration":0.1796875},{"name":"D2","midi":38,"time":793.6223958333345,"velocity":0.8031496062992126,"duration":0.16666666666662877},{"name":"A5","midi":81,"time":793.6223958333345,"velocity":0.8031496062992126,"duration":0.16666666666662877},{"name":"D3","midi":50,"time":793.8190104166678,"velocity":0.8031496062992126,"duration":0.09244791666662877},{"name":"G5","midi":79,"time":793.8190104166678,"velocity":0.8031496062992126,"duration":0.18880208333325754},{"name":"C3","midi":48,"time":793.9192708333344,"velocity":0.8031496062992126,"duration":0.09244791666662877},{"name":"D3","midi":50,"time":794.019531250001,"velocity":0.8031496062992126,"duration":0.7747395833332575},{"name":"D5","midi":74,"time":794.019531250001,"velocity":0.8031496062992126,"duration":0.1796875},{"name":"G5","midi":79,"time":794.2122395833344,"velocity":0.8031496062992126,"duration":0.16666666666662877},{"name":"A5","midi":81,"time":794.4127604166677,"velocity":0.8031496062992126,"duration":0.18880208333337123},{"name":"G5","midi":79,"time":794.6080729166677,"velocity":0.8031496062992126,"duration":0.1796875},{"name":"D2","midi":38,"time":794.8033854166677,"velocity":0.8031496062992126,"duration":0.16666666666662877},{"name":"A#5","midi":82,"time":794.8033854166677,"velocity":0.8031496062992126,"duration":0.16666666666662877},{"name":"D3","midi":50,"time":795.0026041666677,"velocity":0.8031496062992126,"duration":0.09244791666662877},{"name":"A5","midi":81,"time":795.0026041666677,"velocity":0.8031496062992126,"duration":0.18880208333325754},{"name":"C3","midi":48,"time":795.1015625000009,"velocity":0.8031496062992126,"duration":0.09244791666662877},{"name":"D3","midi":50,"time":795.2005208333342,"velocity":0.8031496062992126,"duration":0.1796875},{"name":"D5","midi":74,"time":795.2005208333342,"velocity":0.8031496062992126,"duration":0.1796875},{"name":"D2","midi":38,"time":795.3958333333342,"velocity":0.8031496062992126,"duration":0.16666666666662877},{"name":"A5","midi":81,"time":795.3958333333342,"velocity":0.8031496062992126,"duration":0.16666666666662877},{"name":"D3","midi":50,"time":795.5937500000008,"velocity":0.8031496062992126,"duration":0.38671875},{"name":"A#5","midi":82,"time":795.5937500000008,"velocity":0.8031496062992126,"duration":0.18880208333337123},{"name":"A5","midi":81,"time":795.7903645833342,"velocity":0.8031496062992126,"duration":0.1796875},{"name":"D2","midi":38,"time":795.9882812500008,"velocity":0.8031496062992126,"duration":0.16666666666662877},{"name":"C6","midi":84,"time":795.9882812500008,"velocity":0.8031496062992126,"duration":0.16666666666662877},{"name":"D3","midi":50,"time":796.1861979166674,"velocity":0.8031496062992126,"duration":0.09244791666662877},{"name":"A#5","midi":82,"time":796.1861979166674,"velocity":0.8031496062992126,"duration":0.18880208333325754},{"name":"C3","midi":48,"time":796.2851562500007,"velocity":0.8031496062992126,"duration":0.09244791666662877},{"name":"D3","midi":50,"time":796.3841145833339,"velocity":0.8031496062992126,"duration":0.57421875},{"name":"A5","midi":81,"time":796.3841145833339,"velocity":0.8031496062992126,"duration":0.1796875},{"name":"G5","midi":79,"time":796.5794270833339,"velocity":0.8031496062992126,"duration":0.16666666666662877},{"name":"F#5","midi":78,"time":796.7773437500006,"velocity":0.8031496062992126,"duration":0.18880208333337123},{"name":"D3","midi":50,"time":796.9739583333339,"velocity":0.8031496062992126,"duration":0.1796875},{"name":"E5","midi":76,"time":796.9739583333339,"velocity":0.8031496062992126,"duration":0.1796875},{"name":"E3","midi":52,"time":797.1705729166673,"velocity":0.8031496062992126,"duration":0.16666666666662877},{"name":"D5","midi":74,"time":797.1705729166673,"velocity":0.8031496062992126,"duration":0.16666666666662877},{"name":"F#3","midi":54,"time":797.3684895833339,"velocity":0.8031496062992126,"duration":0.18880208333337123},{"name":"A5","midi":81,"time":797.3684895833339,"velocity":0.8031496062992126,"duration":0.3867187500001137},{"name":"E3","midi":52,"time":797.5664062500007,"velocity":0.8031496062992126,"duration":0.1796875},{"name":"D3","midi":50,"time":797.7643229166674,"velocity":0.8031496062992126,"duration":0.16666666666662877},{"name":"C5","midi":72,"time":797.7643229166674,"velocity":0.8031496062992126,"duration":0.16666666666662877},{"name":"G3","midi":55,"time":797.962239583334,"velocity":0.8031496062992126,"duration":0.18880208333337123},{"name":"A#4","midi":70,"time":797.962239583334,"velocity":0.8031496062992126,"duration":0.09244791666662877},{"name":"C5","midi":72,"time":798.059895833334,"velocity":0.8031496062992126,"duration":0.09244791666674246},{"name":"A#2","midi":46,"time":798.1575520833342,"velocity":0.8031496062992126,"duration":0.1796875},{"name":"D5","midi":74,"time":798.1575520833342,"velocity":0.8031496062992126,"duration":0.1796875},{"name":"C3","midi":48,"time":798.3554687500008,"velocity":0.8031496062992126,"duration":0.16666666666662877},{"name":"G4","midi":67,"time":798.3554687500008,"velocity":0.8031496062992126,"duration":0.16666666666662877},{"name":"D3","midi":50,"time":798.552083333334,"velocity":0.8031496062992126,"duration":0.18880208333337123},{"name":"D4","midi":62,"time":798.552083333334,"velocity":0.8031496062992126,"duration":0.18880208333337123},{"name":"C3","midi":48,"time":798.751302083334,"velocity":0.8031496062992126,"duration":0.1796875},{"name":"G4","midi":67,"time":798.751302083334,"velocity":0.8031496062992126,"duration":0.1796875},{"name":"D3","midi":50,"time":798.946614583334,"velocity":0.8031496062992126,"duration":0.16666666666662877},{"name":"F#4","midi":66,"time":798.946614583334,"velocity":0.8031496062992126,"duration":0.16666666666662877},{"name":"G2","midi":43,"time":799.1432291666673,"velocity":0.8031496062992126,"duration":0.18880208333337123},{"name":"G4","midi":67,"time":799.1432291666673,"velocity":0.8031496062992126,"duration":0.8802083333334849},{"name":"D4","midi":62,"time":799.341145833334,"velocity":0.8031496062992126,"duration":0.1796875},{"name":"A#3","midi":58,"time":799.536458333334,"velocity":0.8031496062992126,"duration":0.16666666666662877},{"name":"G3","midi":55,"time":799.735677083334,"velocity":0.8031496062992126,"duration":0.18880208333337123},{"name":"A#3","midi":58,"time":799.9322916666674,"velocity":0.8031496062992126,"duration":0.1796875},{"name":"G3","midi":55,"time":800.1276041666674,"velocity":0.8031496062992126,"duration":0.16666666666662877},{"name":"A#4","midi":70,"time":800.1276041666674,"velocity":0.8031496062992126,"duration":0.16666666666662877},{"name":"E3","midi":52,"time":800.3268229166674,"velocity":0.8031496062992126,"duration":0.38671875},{"name":"C4","midi":60,"time":800.3268229166674,"velocity":0.8031496062992126,"duration":0.18880208333337123},{"name":"E4","midi":64,"time":800.5221354166674,"velocity":0.8031496062992126,"duration":0.1796875},{"name":"C4","midi":60,"time":800.7213541666674,"velocity":0.8031496062992126,"duration":0.16666666666662877},{"name":"G4","midi":67,"time":800.7213541666674,"velocity":0.8031496062992126,"duration":0.16666666666662877},{"name":"C3","midi":48,"time":800.9179687500007,"velocity":0.8031496062992126,"duration":0.7799479166666288},{"name":"A#4","midi":70,"time":800.9179687500007,"velocity":0.8031496062992126,"duration":0.18880208333337123},{"name":"G4","midi":67,"time":801.1171875000007,"velocity":0.8031496062992126,"duration":0.1796875},{"name":"A4","midi":69,"time":801.3125000000007,"velocity":0.8031496062992126,"duration":0.16666666666662877},{"name":"A4","midi":69,"time":801.5091145833339,"velocity":0.8031496062992126,"duration":0.18880208333337123},{"name":"C4","midi":60,"time":801.7070312500007,"velocity":0.8031496062992126,"duration":0.1796875},{"name":"E4","midi":64,"time":801.7070312500007,"velocity":0.8031496062992126,"duration":0.1796875},{"name":"A3","midi":57,"time":801.903645833334,"velocity":0.8031496062992126,"duration":0.16666666666662877},{"name":"F4","midi":65,"time":801.903645833334,"velocity":0.8031496062992126,"duration":0.16666666666662877},{"name":"F3","midi":53,"time":802.1002604166673,"velocity":0.8031496062992126,"duration":0.18880208333337123},{"name":"A4","midi":69,"time":802.1002604166673,"velocity":0.8031496062992126,"duration":0.18880208333337123},{"name":"A3","midi":57,"time":802.2994791666673,"velocity":0.8031496062992126,"duration":0.1796875},{"name":"E4","midi":64,"time":802.2994791666673,"velocity":0.8031496062992126,"duration":0.1796875},{"name":"F3","midi":53,"time":802.4934895833339,"velocity":0.8031496062992126,"duration":0.16666666666662877},{"name":"F4","midi":65,"time":802.4934895833339,"velocity":0.8031496062992126,"duration":0.16666666666662877},{"name":"D3","midi":50,"time":802.6914062500006,"velocity":0.8031496062992126,"duration":0.3867187500001137},{"name":"A#3","midi":58,"time":802.6914062500006,"velocity":0.8031496062992126,"duration":0.18880208333337123},{"name":"D4","midi":62,"time":802.8893229166673,"velocity":0.8031496062992126,"duration":0.1796875},{"name":"A#3","midi":58,"time":803.0885416666673,"velocity":0.8031496062992126,"duration":0.16666666666662877},{"name":"F4","midi":65,"time":803.0885416666673,"velocity":0.8031496062992126,"duration":0.16666666666662877},{"name":"A#2","midi":46,"time":803.2864583333339,"velocity":0.8031496062992126,"duration":0.7799479166666288},{"name":"A4","midi":69,"time":803.2864583333339,"velocity":0.8031496062992126,"duration":0.18880208333337123},{"name":"F4","midi":65,"time":803.4830729166673,"velocity":0.8031496062992126,"duration":0.1796875},{"name":"G4","midi":67,"time":803.6783854166673,"velocity":0.8031496062992126,"duration":0.16666666666662877},{"name":"G4","midi":67,"time":803.8750000000006,"velocity":0.8031496062992126,"duration":0.18880208333337123},{"name":"A#3","midi":58,"time":804.0755208333339,"velocity":0.8031496062992126,"duration":0.1796875},{"name":"D4","midi":62,"time":804.0755208333339,"velocity":0.8031496062992126,"duration":0.1796875},{"name":"G3","midi":55,"time":804.2695312500006,"velocity":0.8031496062992126,"duration":0.16666666666662877},{"name":"E4","midi":64,"time":804.2695312500006,"velocity":0.8031496062992126,"duration":0.16666666666662877},{"name":"E3","midi":52,"time":804.4661458333338,"velocity":0.8031496062992126,"duration":0.38671875},{"name":"G4","midi":67,"time":804.4661458333338,"velocity":0.8031496062992126,"duration":0.18880208333337123},{"name":"D4","midi":62,"time":804.6653645833338,"velocity":0.8031496062992126,"duration":0.1796875},{"name":"G3","midi":55,"time":804.8619791666672,"velocity":0.8031496062992126,"duration":0.16666666666662877},{"name":"E4","midi":64,"time":804.8619791666672,"velocity":0.8031496062992126,"duration":0.16666666666662877},{"name":"C#3","midi":49,"time":805.0598958333338,"velocity":0.8031496062992126,"duration":0.38671875},{"name":"A3","midi":57,"time":805.0598958333338,"velocity":0.8031496062992126,"duration":0.18880208333337123},{"name":"C#4","midi":61,"time":805.2591145833338,"velocity":0.8031496062992126,"duration":0.1796875},{"name":"A3","midi":57,"time":805.4557291666672,"velocity":0.8031496062992126,"duration":0.16666666666662877},{"name":"E4","midi":64,"time":805.4557291666672,"velocity":0.8031496062992126,"duration":0.16666666666662877},{"name":"A2","midi":45,"time":805.6549479166672,"velocity":0.8031496062992126,"duration":0.38671875},{"name":"G4","midi":67,"time":805.6549479166672,"velocity":0.8031496062992126,"duration":0.18880208333337123},{"name":"E4","midi":64,"time":805.8502604166672,"velocity":0.8031496062992126,"duration":0.1796875},{"name":"D3","midi":50,"time":806.0494791666672,"velocity":0.8031496062992126,"duration":0.16666666666662877},{"name":"F4","midi":65,"time":806.0494791666672,"velocity":0.8031496062992126,"duration":0.16666666666662877},{"name":"A#2","midi":46,"time":806.2460937500005,"velocity":0.8031496062992126,"duration":0.38671875},{"name":"G3","midi":55,"time":806.2460937500005,"velocity":0.8031496062992126,"duration":0.18880208333337123},{"name":"A#3","midi":58,"time":806.4453125000005,"velocity":0.8031496062992126,"duration":0.1796875},{"name":"G3","midi":55,"time":806.6419270833338,"velocity":0.8031496062992126,"duration":0.16666666666662877},{"name":"D4","midi":62,"time":806.6419270833338,"velocity":0.8031496062992126,"duration":0.16666666666662877},{"name":"G2","midi":43,"time":806.8411458333338,"velocity":0.8031496062992126,"duration":0.38671875},{"name":"F4","midi":65,"time":806.8411458333338,"velocity":0.8031496062992126,"duration":0.18880208333337123},{"name":"D4","midi":62,"time":807.0364583333338,"velocity":0.8031496062992126,"duration":0.1796875},{"name":"C3","midi":48,"time":807.2356770833338,"velocity":0.8031496062992126,"duration":0.16666666666662877},{"name":"E4","midi":64,"time":807.2356770833338,"velocity":0.8031496062992126,"duration":0.16666666666662877},{"name":"A2","midi":45,"time":807.4335937500005,"velocity":0.8031496062992126,"duration":0.3867187500001137},{"name":"F3","midi":53,"time":807.4335937500005,"velocity":0.8031496062992126,"duration":0.18880208333337123},{"name":"A3","midi":57,"time":807.6315104166672,"velocity":0.8031496062992126,"duration":0.1796875},{"name":"F3","midi":53,"time":807.8281250000006,"velocity":0.8031496062992126,"duration":0.16666666666662877},{"name":"C4","midi":60,"time":807.8281250000006,"velocity":0.8031496062992126,"duration":0.16666666666662877},{"name":"B2","midi":47,"time":808.0260416666672,"velocity":0.8031496062992126,"duration":0.38671875},{"name":"G4","midi":67,"time":808.0260416666672,"velocity":0.8031496062992126,"duration":0.18880208333337123},{"name":"E4","midi":64,"time":808.2252604166672,"velocity":0.8031496062992126,"duration":0.1796875},{"name":"G3","midi":55,"time":808.4231770833338,"velocity":0.8031496062992126,"duration":0.16666666666662877},{"name":"F4","midi":65,"time":808.4231770833338,"velocity":0.8031496062992126,"duration":0.16666666666662877},{"name":"C3","midi":48,"time":808.6197916666671,"velocity":0.8031496062992126,"duration":0.3867187500001137},{"name":"A4","midi":69,"time":808.6197916666671,"velocity":0.8031496062992126,"duration":0.18880208333337123},{"name":"E4","midi":64,"time":808.8177083333338,"velocity":0.8031496062992126,"duration":0.1796875},{"name":"A3","midi":57,"time":809.0156250000006,"velocity":0.8031496062992126,"duration":0.16666666666662877},{"name":"F4","midi":65,"time":809.0156250000006,"velocity":0.8031496062992126,"duration":0.16666666666662877},{"name":"D3","midi":50,"time":809.2135416666672,"velocity":0.8031496062992126,"duration":0.3867187500001137},{"name":"B4","midi":71,"time":809.2135416666672,"velocity":0.8031496062992126,"duration":0.18880208333337123},{"name":"E4","midi":64,"time":809.4114583333339,"velocity":0.8031496062992126,"duration":0.1796875},{"name":"B3","midi":59,"time":809.6080729166673,"velocity":0.8031496062992126,"duration":0.16666666666662877},{"name":"F4","midi":65,"time":809.6080729166673,"velocity":0.8031496062992126,"duration":0.16666666666662877},{"name":"C3","midi":48,"time":809.8059895833339,"velocity":0.8031496062992126,"duration":0.7799479166667425},{"name":"C5","midi":72,"time":809.8059895833339,"velocity":0.8031496062992126,"duration":0.18880208333337123},{"name":"E4","midi":64,"time":810.0026041666673,"velocity":0.8031496062992126,"duration":0.1796875},{"name":"G4","midi":67,"time":810.1992187500007,"velocity":0.8031496062992126,"duration":0.16666666666662877},{"name":"C5","midi":72,"time":810.3971354166673,"velocity":0.8031496062992126,"duration":0.18880208333337123},{"name":"C3","midi":48,"time":810.5963541666673,"velocity":0.8031496062992126,"duration":0.1796875},{"name":"D5","midi":74,"time":810.5963541666673,"velocity":0.8031496062992126,"duration":0.1796875},{"name":"A#2","midi":46,"time":810.7903645833339,"velocity":0.8031496062992126,"duration":0.16666666666662877},{"name":"E5","midi":76,"time":810.7903645833339,"velocity":0.8031496062992126,"duration":0.16666666666662877},{"name":"A2","midi":45,"time":810.9869791666672,"velocity":0.8031496062992126,"duration":0.18880208333337123},{"name":"F5","midi":77,"time":810.9869791666672,"velocity":0.8031496062992126,"duration":0.18880208333337123},{"name":"G2","midi":43,"time":811.1861979166672,"velocity":0.8031496062992126,"duration":0.1796875},{"name":"G5","midi":79,"time":811.1861979166672,"velocity":0.8031496062992126,"duration":0.1796875},{"name":"F2","midi":41,"time":811.3815104166672,"velocity":0.8031496062992126,"duration":0.16666666666662877},{"name":"A5","midi":81,"time":811.3815104166672,"velocity":0.8031496062992126,"duration":0.16666666666662877},{"name":"F2","midi":41,"time":811.5794270833338,"velocity":0.8031496062992126,"duration":0.18880208333337123},{"name":"A5","midi":81,"time":811.5794270833338,"velocity":0.8031496062992126,"duration":0.18880208333337123},{"name":"G2","midi":43,"time":811.7786458333338,"velocity":0.8031496062992126,"duration":0.1796875},{"name":"A#5","midi":82,"time":811.7786458333338,"velocity":0.8031496062992126,"duration":0.1796875},{"name":"A2","midi":45,"time":811.9713541666672,"velocity":0.8031496062992126,"duration":0.16666666666662877},{"name":"C6","midi":84,"time":811.9713541666672,"velocity":0.8031496062992126,"duration":0.16666666666662877},{"name":"A2","midi":45,"time":812.1705729166672,"velocity":0.8031496062992126,"duration":0.18880208333337123},{"name":"C6","midi":84,"time":812.1705729166672,"velocity":0.8031496062992126,"duration":0.09244791666662877},{"name":"A#5","midi":82,"time":812.2682291666672,"velocity":0.8031496062992126,"duration":0.09244791666674246},{"name":"C2","midi":36,"time":812.3671875000006,"velocity":0.8031496062992126,"duration":0.1796875},{"name":"C6","midi":84,"time":812.3671875000006,"velocity":0.8031496062992126,"duration":0.38020833333337123},{"name":"F2","midi":41,"time":812.5638020833339,"velocity":0.8031496062992126,"duration":0.16666666666662877},{"name":"A2","midi":45,"time":812.7617187500006,"velocity":0.8031496062992126,"duration":0.18880208333337123},{"name":"C6","midi":84,"time":812.7617187500006,"velocity":0.8031496062992126,"duration":0.18880208333337123},{"name":"F2","midi":41,"time":812.9596354166673,"velocity":0.8031496062992126,"duration":0.1796875},{"name":"A5","midi":81,"time":812.9596354166673,"velocity":0.8031496062992126,"duration":0.1796875},{"name":"A2","midi":45,"time":813.1549479166673,"velocity":0.8031496062992126,"duration":0.16666666666662877},{"name":"F5","midi":77,"time":813.1549479166673,"velocity":0.8031496062992126,"duration":0.16666666666662877},{"name":"C3","midi":48,"time":813.3515625000006,"velocity":0.8031496062992126,"duration":0.18880208333325754},{"name":"C6","midi":84,"time":813.3515625000006,"velocity":0.8031496062992126,"duration":0.09244791666662877},{"name":"A#5","midi":82,"time":813.4505208333338,"velocity":0.8031496062992126,"duration":0.09244791666662877},{"name":"G2","midi":43,"time":813.5507812500005,"velocity":0.8031496062992126,"duration":0.1796875},{"name":"C6","midi":84,"time":813.5507812500005,"velocity":0.8031496062992126,"duration":0.38020833333325754},{"name":"C3","midi":48,"time":813.7460937500005,"velocity":0.8031496062992126,"duration":0.16666666666662877},{"name":"E3","midi":52,"time":813.9427083333337,"velocity":0.8031496062992126,"duration":0.18880208333337123},{"name":"C6","midi":84,"time":813.9427083333337,"velocity":0.8031496062992126,"duration":0.18880208333337123},{"name":"C3","midi":48,"time":814.1419270833337,"velocity":0.8031496062992126,"duration":0.1796875},{"name":"G5","midi":79,"time":814.1419270833337,"velocity":0.8031496062992126,"duration":0.1796875},{"name":"E3","midi":52,"time":814.3359375000003,"velocity":0.8031496062992126,"duration":0.16666666666662877},{"name":"E5","midi":76,"time":814.3359375000003,"velocity":0.8031496062992126,"duration":0.16666666666662877},{"name":"F3","midi":53,"time":814.5351562500003,"velocity":0.8031496062992126,"duration":0.18880208333337123},{"name":"C6","midi":84,"time":814.5351562500003,"velocity":0.8031496062992126,"duration":0.09244791666662877},{"name":"A#5","midi":82,"time":814.6328125000003,"velocity":0.8031496062992126,"duration":0.09244791666674246},{"name":"C3","midi":48,"time":814.7304687500005,"velocity":0.8031496062992126,"duration":0.1796875},{"name":"C6","midi":84,"time":814.7304687500005,"velocity":0.8031496062992126,"duration":0.38020833333337123},{"name":"F3","midi":53,"time":814.9270833333338,"velocity":0.8031496062992126,"duration":0.16666666666662877},{"name":"A3","midi":57,"time":815.1263020833338,"velocity":0.8031496062992126,"duration":0.18880208333337123},{"name":"C6","midi":84,"time":815.1263020833338,"velocity":0.8031496062992126,"duration":0.18880208333337123},{"name":"F3","midi":53,"time":815.3229166666672,"velocity":0.8031496062992126,"duration":0.1796875},{"name":"A5","midi":81,"time":815.3229166666672,"velocity":0.8031496062992126,"duration":0.1796875},{"name":"A3","midi":57,"time":815.5195312500006,"velocity":0.8031496062992126,"duration":0.16666666666662877},{"name":"F5","midi":77,"time":815.5195312500006,"velocity":0.8031496062992126,"duration":0.16666666666662877},{"name":"C4","midi":60,"time":815.7161458333338,"velocity":0.8031496062992126,"duration":0.18880208333325754},{"name":"C6","midi":84,"time":815.7161458333338,"velocity":0.8031496062992126,"duration":0.09244791666662877},{"name":"A#5","midi":82,"time":815.8151041666671,"velocity":0.8031496062992126,"duration":0.09244791666662877},{"name":"G3","midi":55,"time":815.9140625000003,"velocity":0.8031496062992126,"duration":0.1796875},{"name":"C6","midi":84,"time":815.9140625000003,"velocity":0.8031496062992126,"duration":0.38020833333337123},{"name":"C4","midi":60,"time":816.1106770833337,"velocity":0.8031496062992126,"duration":0.16666666666662877},{"name":"E4","midi":64,"time":816.3072916666671,"velocity":0.8031496062992126,"duration":0.18880208333337123},{"name":"C6","midi":84,"time":816.3072916666671,"velocity":0.8031496062992126,"duration":0.18880208333337123},{"name":"C4","midi":60,"time":816.5065104166671,"velocity":0.8031496062992126,"duration":0.1796875},{"name":"G5","midi":79,"time":816.5065104166671,"velocity":0.8031496062992126,"duration":0.1796875},{"name":"E4","midi":64,"time":816.7005208333337,"velocity":0.8031496062992126,"duration":0.16666666666662877},{"name":"E5","midi":76,"time":816.7005208333337,"velocity":0.8031496062992126,"duration":0.16666666666662877},{"name":"A4","midi":69,"time":816.8997395833337,"velocity":0.8031496062992126,"duration":0.18880208333337123},{"name":"F5","midi":77,"time":816.8997395833337,"velocity":0.8031496062992126,"duration":0.18880208333337123},{"name":"F4","midi":65,"time":817.0950520833337,"velocity":0.8031496062992126,"duration":0.1796875},{"name":"D5","midi":74,"time":817.0950520833337,"velocity":0.8031496062992126,"duration":0.1796875},{"name":"D4","midi":62,"time":817.2916666666671,"velocity":0.8031496062992126,"duration":0.16666666666662877},{"name":"A#5","midi":82,"time":817.2916666666671,"velocity":0.8031496062992126,"duration":0.16666666666662877},{"name":"G4","midi":67,"time":817.4895833333337,"velocity":0.8031496062992126,"duration":0.18880208333337123},{"name":"E5","midi":76,"time":817.4895833333337,"velocity":0.8031496062992126,"duration":0.18880208333337123},{"name":"E4","midi":64,"time":817.6875000000005,"velocity":0.8031496062992126,"duration":0.1796875},{"name":"C5","midi":72,"time":817.6875000000005,"velocity":0.8031496062992126,"duration":0.1796875},{"name":"C4","midi":60,"time":817.8841145833338,"velocity":0.8031496062992126,"duration":0.16666666666662877},{"name":"A5","midi":81,"time":817.8841145833338,"velocity":0.8031496062992126,"duration":0.16666666666662877},{"name":"F4","midi":65,"time":818.0807291666671,"velocity":0.8031496062992126,"duration":0.18880208333337123},{"name":"D5","midi":74,"time":818.0807291666671,"velocity":0.8031496062992126,"duration":0.18880208333337123},{"name":"D4","midi":62,"time":818.2773437500005,"velocity":0.8031496062992126,"duration":0.1796875},{"name":"A#4","midi":70,"time":818.2773437500005,"velocity":0.8031496062992126,"duration":0.1796875},{"name":"A#3","midi":58,"time":818.4726562500005,"velocity":0.8031496062992126,"duration":0.16666666666662877},{"name":"G5","midi":79,"time":818.4726562500005,"velocity":0.8031496062992126,"duration":0.16666666666662877},{"name":"E4","midi":64,"time":818.6718750000005,"velocity":0.8031496062992126,"duration":0.18880208333337123},{"name":"C5","midi":72,"time":818.6718750000005,"velocity":0.8031496062992126,"duration":0.18880208333337123},{"name":"C4","midi":60,"time":818.8697916666672,"velocity":0.8031496062992126,"duration":0.1796875},{"name":"A4","midi":69,"time":818.8697916666672,"velocity":0.8031496062992126,"duration":0.1796875},{"name":"A3","midi":57,"time":819.0651041666672,"velocity":0.8031496062992126,"duration":0.16666666666662877},{"name":"F5","midi":77,"time":819.0651041666672,"velocity":0.8031496062992126,"duration":0.16666666666662877},{"name":"D4","midi":62,"time":819.2630208333338,"velocity":0.8031496062992126,"duration":0.1953125},{"name":"A#4","midi":70,"time":819.2630208333338,"velocity":0.8031496062992126,"duration":0.1953125},{"name":"A#3","midi":58,"time":819.4661458333338,"velocity":0.8031496062992126,"duration":0.18619791666662877},{"name":"G4","midi":67,"time":819.4661458333338,"velocity":0.8031496062992126,"duration":0.18619791666662877},{"name":"G3","midi":55,"time":819.6718750000005,"velocity":0.8031496062992126,"duration":0.171875},{"name":"F5","midi":77,"time":819.6718750000005,"velocity":0.8031496062992126,"duration":0.171875},{"name":"C4","midi":60,"time":819.8736979166671,"velocity":0.8031496062992126,"duration":0.42057291666662877},{"name":"A#4","midi":70,"time":819.8736979166671,"velocity":0.8031496062992126,"duration":0.20833333333337123},{"name":"G4","midi":67,"time":820.0898437500005,"velocity":0.8031496062992126,"duration":0.19401041666662877},{"name":"C3","midi":48,"time":820.3033854166671,"velocity":0.8031496062992126,"duration":0.18098958333337123},{"name":"E5","midi":76,"time":820.3033854166671,"velocity":0.8031496062992126,"duration":0.18098958333337123},{"name":"F2","midi":41,"time":820.5156250000005,"velocity":0.8031496062992126,"duration":3.46484375},{"name":"F5","midi":77,"time":820.5156250000005,"velocity":0.8031496062992126,"duration":0.24348958333337123},{"name":"A4","midi":69,"time":820.7669270833338,"velocity":0.8031496062992126,"duration":0.23046875},{"name":"C5","midi":72,"time":821.0455729166672,"velocity":0.8031496062992126,"duration":0.21354166666662877},{"name":"F4","midi":65,"time":821.3476562500005,"velocity":0.8031496062992126,"duration":2.7096354166666288}],"controlChanges":{"7":[{"number":7,"time":0,"value":0.7874015748031497}]},"id":1,"name":"Piano 1","instrumentNumber":6,"instrument":"harpsichord","instrumentFamily":"piano","channelNumber":0,"isPercussion":false}]}