{"header":{"PPQ":384,"timeSignature":[4,4],"bpm":120,"name":"--------"},"startTime":0,"duration":914.8749999999824,"tracks":[{"startTime":0,"duration":0,"length":0,"notes":[],"controlChanges":{},"id":0,"name":"--------"},{"startTime":0.14973958333333334,"duration":914.8749999999824,"length":6479,"notes":[{"name":"A2","midi":45,"time":0.14973958333333334,"velocity":0.8031496062992126,"duration":0.5924479166666666},{"name":"C#3","midi":49,"time":0.44921875,"velocity":0.8031496062992126,"duration":0.1484375},{"name":"E3","midi":52,"time":0.5989583333333334,"velocity":0.8031496062992126,"duration":0.1484375},{"name":"A3","midi":57,"time":0.7486979166666667,"velocity":0.8031496062992126,"duration":0.1484375},{"name":"G#3","midi":56,"time":0.8984375000000001,"velocity":0.8031496062992126,"duration":0.1484374999999999},{"name":"F#3","midi":54,"time":1.0481770833333333,"velocity":0.8031496062992126,"duration":0.1484375},{"name":"E3","midi":52,"time":1.1979166666666665,"velocity":0.8031496062992126,"duration":0.5924479166666665},{"name":"G#3","midi":56,"time":1.3723958333333333,"velocity":0.8031496062992126,"duration":0.1484375},{"name":"B3","midi":59,"time":1.5221354166666665,"velocity":0.8031496062992126,"duration":0.1484375},{"name":"D4","midi":62,"time":1.6718749999999998,"velocity":0.8031496062992126,"duration":0.1484375},{"name":"C#4","midi":61,"time":1.821614583333333,"velocity":0.8031496062992126,"duration":0.1484375},{"name":"B3","midi":59,"time":1.9713541666666663,"velocity":0.8031496062992126,"duration":0.14843749999999978},{"name":"A3","midi":57,"time":2.1210937499999996,"velocity":0.8031496062992126,"duration":0.592447916666667},{"name":"C#4","midi":61,"time":2.295572916666666,"velocity":0.8031496062992126,"duration":0.1484375},{"name":"E4","midi":64,"time":2.4453124999999996,"velocity":0.8031496062992126,"duration":0.1484375},{"name":"A4","midi":69,"time":2.595052083333333,"velocity":0.8031496062992126,"duration":0.1484375},{"name":"G#4","midi":68,"time":2.7447916666666665,"velocity":0.8031496062992126,"duration":0.1484375},{"name":"F#4","midi":66,"time":2.89453125,"velocity":0.8031496062992126,"duration":0.1484375},{"name":"E4","midi":64,"time":3.0442708333333335,"velocity":0.8031496062992126,"duration":0.592447916666667},{"name":"G#4","midi":68,"time":3.21875,"velocity":0.8031496062992126,"duration":0.1484375},{"name":"B4","midi":71,"time":3.3684895833333335,"velocity":0.8031496062992126,"duration":0.1484375},{"name":"D5","midi":74,"time":3.518229166666667,"velocity":0.8031496062992126,"duration":0.1484375},{"name":"C#5","midi":73,"time":3.6679687500000004,"velocity":0.8031496062992126,"duration":0.1484375},{"name":"B4","midi":71,"time":3.817708333333334,"velocity":0.8031496062992126,"duration":0.16536458333333348},{"name":"A4","midi":69,"time":3.9830729166666674,"velocity":0.8031496062992126,"duration":0.5091145833333335},{"name":"B4","midi":71,"time":4.441406250000001,"velocity":0.8031496062992126,"duration":0.13411458333333304},{"name":"C#5","midi":73,"time":4.576822916666667,"velocity":0.8031496062992126,"duration":0.13411458333333304},{"name":"D5","midi":74,"time":4.712239583333333,"velocity":0.8031496062992126,"duration":0.13411458333333304},{"name":"E5","midi":76,"time":4.847656249999999,"velocity":0.8031496062992126,"duration":0.13411458333333304},{"name":"F#5","midi":78,"time":4.983072916666665,"velocity":0.8031496062992126,"duration":0.13411458333333304},{"name":"G#5","midi":80,"time":5.118489583333331,"velocity":0.8031496062992126,"duration":0.13411458333333304},{"name":"A5","midi":81,"time":5.253906249999997,"velocity":0.8031496062992126,"duration":0.13411458333333304},{"name":"B5","midi":83,"time":5.389322916666663,"velocity":0.8031496062992126,"duration":0.13411458333333304},{"name":"G#5","midi":80,"time":5.5247395833333295,"velocity":0.8031496062992126,"duration":0.13411458333333304},{"name":"E5","midi":76,"time":5.660156249999996,"velocity":0.8031496062992126,"duration":0.15104166666666696},{"name":"G#5","midi":80,"time":5.8229166666666625,"velocity":0.8031496062992126,"duration":0.14583333333333304},{"name":"A5","midi":81,"time":5.977864583333329,"velocity":0.8031496062992126,"duration":3.2252604166666696},{"name":"G#5","midi":80,"time":6.626302083333329,"velocity":0.8031496062992126,"duration":0.17447916666666696},{"name":"F#5","midi":78,"time":6.805989583333329,"velocity":0.8031496062992126,"duration":0.17447916666666696},{"name":"E5","midi":76,"time":6.984374999999996,"velocity":0.8031496062992126,"duration":2.4791666666666687},{"name":"D5","midi":74,"time":7.164062499999996,"velocity":0.8031496062992126,"duration":0.17447916666666696},{"name":"C#5","midi":73,"time":7.343749999999996,"velocity":0.8031496062992126,"duration":2.1289062500000027},{"name":"B4","midi":71,"time":7.5221354166666625,"velocity":0.8031496062992126,"duration":0.17447916666666696},{"name":"A4","midi":69,"time":7.7018229166666625,"velocity":0.8031496062992126,"duration":0.17447916666666696},{"name":"G#4","midi":68,"time":7.8802083333333295,"velocity":0.8031496062992126,"duration":0.17447916666666696},{"name":"A4","midi":69,"time":8.05989583333333,"velocity":0.8031496062992126,"duration":2.3789062500000018},{"name":"E4","midi":64,"time":8.35286458333333,"velocity":0.8031496062992126,"duration":2.2083333333333357},{"name":"A3","midi":57,"time":8.768229166666664,"velocity":0.8031496062992126,"duration":3.561197916666668},{"name":"A5","midi":81,"time":12.751302083333332,"velocity":0.8031496062992126,"duration":0.2513020833333339},{"name":"G#5","midi":80,"time":13.00390625,"velocity":0.8031496062992126,"duration":0.2513020833333339},{"name":"F#5","midi":78,"time":13.256510416666668,"velocity":0.8031496062992126,"duration":0.2513020833333339},{"name":"E5","midi":76,"time":13.509114583333336,"velocity":0.8031496062992126,"duration":0.2513020833333339},{"name":"F#5","midi":78,"time":13.761718750000004,"velocity":0.8031496062992126,"duration":0.2513020833333339},{"name":"D5","midi":74,"time":14.014322916666671,"velocity":0.8031496062992126,"duration":0.2513020833333339},{"name":"C#5","midi":73,"time":14.26692708333334,"velocity":0.8031496062992126,"duration":0.09114583333333393},{"name":"A4","midi":69,"time":14.26692708333334,"velocity":0.8031496062992126,"duration":0.25},{"name":"B4","midi":71,"time":14.34895833333334,"velocity":0.8031496062992126,"duration":0.09114583333333393},{"name":"C#5","midi":73,"time":14.43098958333334,"velocity":0.8031496062992126,"duration":1.0911458333333375},{"name":"G#4","midi":68,"time":14.518229166666673,"velocity":0.8031496062992126,"duration":0.2513020833333339},{"name":"F#4","midi":66,"time":14.770833333333341,"velocity":0.8031496062992126,"duration":0.2513020833333339},{"name":"E4","midi":64,"time":15.023437500000009,"velocity":0.8031496062992126,"duration":0.2513020833333339},{"name":"F#4","midi":66,"time":15.276041666666677,"velocity":0.8031496062992126,"duration":0.2513020833333339},{"name":"D4","midi":62,"time":15.528645833333345,"velocity":0.8031496062992126,"duration":0.24739583333333393},{"name":"E5","midi":76,"time":15.528645833333345,"velocity":0.8031496062992126,"duration":0.061197916666666075},{"name":"D5","midi":74,"time":15.591145833333345,"velocity":0.8031496062992126,"duration":0.061197916666666075},{"name":"C#5","midi":73,"time":15.653645833333345,"velocity":0.8031496062992126,"duration":0.061197916666666075},{"name":"D5","midi":74,"time":15.716145833333345,"velocity":0.8031496062992126,"duration":0.06119791666666785},{"name":"C#4","midi":61,"time":15.778645833333346,"velocity":0.8031496062992126,"duration":0.8945312499999929},{"name":"E5","midi":76,"time":15.778645833333346,"velocity":0.8031496062992126,"duration":0.25130208333333215},{"name":"D5","midi":74,"time":16.03125000000001,"velocity":0.8031496062992126,"duration":0.25130208333333215},{"name":"C#5","midi":73,"time":16.283854166666675,"velocity":0.8031496062992126,"duration":0.25130208333333215},{"name":"B4","midi":71,"time":16.53645833333334,"velocity":0.8031496062992126,"duration":0.25130208333333215},{"name":"C#5","midi":73,"time":16.789062500000004,"velocity":0.8031496062992126,"duration":0.25130208333333215},{"name":"A4","midi":69,"time":17.041666666666668,"velocity":0.8031496062992126,"duration":0.25130208333333215},{"name":"D4","midi":62,"time":17.041666666666668,"velocity":0.8031496062992126,"duration":0.25130208333333215},{"name":"E4","midi":64,"time":17.294270833333332,"velocity":0.8031496062992126,"duration":2.0130208333333215},{"name":"G#4","midi":68,"time":17.294270833333332,"velocity":0.8031496062992126,"duration":1.261718749999993},{"name":"D4","midi":62,"time":17.546875,"velocity":0.8031496062992126,"duration":0.25130208333333215},{"name":"C#4","midi":61,"time":17.799479166666664,"velocity":0.8031496062992126,"duration":0.25130208333333215},{"name":"B3","midi":59,"time":18.05208333333333,"velocity":0.8031496062992126,"duration":0.25130208333333215},{"name":"C#4","midi":61,"time":18.304687499999993,"velocity":0.8031496062992126,"duration":0.25130208333333215},{"name":"A3","midi":57,"time":18.557291666666657,"velocity":0.8031496062992126,"duration":0.25130208333333215},{"name":"A4","midi":69,"time":18.557291666666657,"velocity":0.8031496062992126,"duration":0.25130208333333215},{"name":"G#3","midi":56,"time":18.80989583333332,"velocity":0.8031496062992126,"duration":1.261718749999993},{"name":"B4","midi":71,"time":18.80989583333332,"velocity":0.8031496062992126,"duration":0.25130208333333215},{"name":"C#5","midi":73,"time":19.062499999999986,"velocity":0.8031496062992126,"duration":0.2513020833333357},{"name":"B3","midi":59,"time":19.315104166666654,"velocity":0.8031496062992126,"duration":0.25130208333333215},{"name":"D5","midi":74,"time":19.315104166666654,"velocity":0.8031496062992126,"duration":0.25130208333333215},{"name":"E4","midi":64,"time":19.567708333333318,"velocity":0.8031496062992126,"duration":1.2604166666666572},{"name":"C#5","midi":73,"time":19.567708333333318,"velocity":0.8031496062992126,"duration":0.25130208333333215},{"name":"D5","midi":74,"time":19.820312499999982,"velocity":0.8031496062992126,"duration":0.25130208333333215},{"name":"E3","midi":52,"time":20.072916666666647,"velocity":0.8031496062992126,"duration":0.25130208333333215},{"name":"B4","midi":71,"time":20.072916666666647,"velocity":0.8031496062992126,"duration":0.25130208333333215},{"name":"A3","midi":57,"time":20.32552083333331,"velocity":0.8031496062992126,"duration":0.25},{"name":"A4","midi":69,"time":20.32552083333331,"velocity":0.8031496062992126,"duration":4.536458333333307},{"name":"B4","midi":71,"time":20.32552083333331,"velocity":0.8031496062992126,"duration":0.18880208333333215},{"name":"C#5","midi":73,"time":20.514322916666643,"velocity":0.8031496062992126,"duration":0.08333333333333215},{"name":"G#3","midi":56,"time":20.576822916666643,"velocity":0.8031496062992126,"duration":0.25},{"name":"B4","midi":71,"time":20.592447916666643,"velocity":0.8031496062992126,"duration":0.08333333333333215},{"name":"C#5","midi":73,"time":20.670572916666643,"velocity":0.8031496062992126,"duration":0.7291666666666607},{"name":"F#3","midi":54,"time":20.828124999999975,"velocity":0.8031496062992126,"duration":0.25130208333333215},{"name":"E3","midi":52,"time":21.08072916666664,"velocity":0.8031496062992126,"duration":0.25130208333333215},{"name":"F#3","midi":54,"time":21.333333333333304,"velocity":0.8031496062992126,"duration":0.25},{"name":"D3","midi":50,"time":21.584635416666636,"velocity":0.8031496062992126,"duration":0.25130208333333215},{"name":"D5","midi":74,"time":21.584635416666636,"velocity":0.8031496062992126,"duration":0.25130208333333215},{"name":"C#3","midi":49,"time":21.8372395833333,"velocity":0.8031496062992126,"duration":1.2630208333333215},{"name":"E5","midi":76,"time":21.8372395833333,"velocity":0.8031496062992126,"duration":0.25130208333333215},{"name":"F#5","midi":78,"time":22.089843749999964,"velocity":0.8031496062992126,"duration":0.25130208333333215},{"name":"E3","midi":52,"time":22.34244791666663,"velocity":0.8031496062992126,"duration":0.25130208333333215},{"name":"G5","midi":79,"time":22.34244791666663,"velocity":0.8031496062992126,"duration":0.25130208333333215},{"name":"A3","midi":57,"time":22.595052083333293,"velocity":0.8031496062992126,"duration":1.0104166666666643},{"name":"F#5","midi":78,"time":22.595052083333293,"velocity":0.8031496062992126,"duration":0.25130208333333215},{"name":"G5","midi":79,"time":22.847656249999957,"velocity":0.8031496062992126,"duration":0.25130208333333215},{"name":"A2","midi":45,"time":23.10026041666662,"velocity":0.8031496062992126,"duration":0.25130208333333215},{"name":"E5","midi":76,"time":23.10026041666662,"velocity":0.8031496062992126,"duration":0.25130208333333215},{"name":"D3","midi":50,"time":23.352864583333286,"velocity":0.8031496062992126,"duration":0.7578125000000036},{"name":"F#5","midi":78,"time":23.352864583333286,"velocity":0.8031496062992126,"duration":0.0833333333333357},{"name":"E5","midi":76,"time":23.433593749999954,"velocity":0.8031496062992126,"duration":0.0833333333333357},{"name":"F#5","midi":78,"time":23.51692708333329,"velocity":0.8031496062992126,"duration":0.33854166666666785},{"name":"A3","midi":57,"time":23.60677083333329,"velocity":0.8031496062992126,"duration":0.2513020833333357},{"name":"G3","midi":55,"time":23.859374999999957,"velocity":0.8031496062992126,"duration":0.25130208333333215},{"name":"E5","midi":76,"time":23.859374999999957,"velocity":0.8031496062992126,"duration":0.25130208333333215},{"name":"F#3","midi":54,"time":24.11197916666662,"velocity":0.8031496062992126,"duration":0.25130208333333215},{"name":"D5","midi":74,"time":24.11197916666662,"velocity":0.8031496062992126,"duration":0.5039062499999964},{"name":"G3","midi":55,"time":24.364583333333286,"velocity":0.8031496062992126,"duration":0.25130208333333215},{"name":"E3","midi":52,"time":24.61718749999995,"velocity":0.8031496062992126,"duration":0.2513020833333357},{"name":"E5","midi":76,"time":24.61718749999995,"velocity":0.8031496062992126,"duration":0.2513020833333357},{"name":"D#3","midi":51,"time":24.869791666666618,"velocity":0.8031496062992126,"duration":0.5039062499999964},{"name":"F#5","midi":78,"time":24.869791666666618,"velocity":0.8031496062992126,"duration":0.25130208333333215},{"name":"G#5","midi":80,"time":25.122395833333282,"velocity":0.8031496062992126,"duration":0.25130208333333215},{"name":"F#3","midi":54,"time":25.374999999999947,"velocity":0.8031496062992126,"duration":0.25130208333333215},{"name":"A5","midi":81,"time":25.374999999999947,"velocity":0.8031496062992126,"duration":0.25130208333333215},{"name":"D#3","midi":51,"time":25.62760416666661,"velocity":0.8031496062992126,"duration":0.5039062499999964},{"name":"B5","midi":83,"time":25.62760416666661,"velocity":0.8031496062992126,"duration":0.25130208333333215},{"name":"G#5","midi":80,"time":25.880208333333275,"velocity":0.8031496062992126,"duration":0.25130208333333215},{"name":"B2","midi":47,"time":26.13281249999994,"velocity":0.8031496062992126,"duration":0.25130208333333215},{"name":"A5","midi":81,"time":26.13281249999994,"velocity":0.8031496062992126,"duration":0.25130208333333215},{"name":"E3","midi":52,"time":26.385416666666604,"velocity":0.8031496062992126,"duration":0.25130208333333215},{"name":"E5","midi":76,"time":26.385416666666604,"velocity":0.8031496062992126,"duration":2.263020833333318},{"name":"A5","midi":81,"time":26.385416666666604,"velocity":0.8031496062992126,"duration":0.7565104166666607},{"name":"D#3","midi":51,"time":26.638020833333268,"velocity":0.8031496062992126,"duration":0.25130208333333215},{"name":"C#3","midi":49,"time":26.890624999999932,"velocity":0.8031496062992126,"duration":0.25130208333333215},{"name":"B2","midi":47,"time":27.143229166666597,"velocity":0.8031496062992126,"duration":0.25130208333333215},{"name":"G#5","midi":80,"time":27.143229166666597,"velocity":0.8031496062992126,"duration":0.37630208333333215},{"name":"C#3","midi":49,"time":27.39583333333326,"velocity":0.8031496062992126,"duration":0.2513020833333357},{"name":"B5","midi":83,"time":27.522135416666597,"velocity":0.8031496062992126,"duration":0.08333333333333215},{"name":"A5","midi":81,"time":27.611979166666597,"velocity":0.8031496062992126,"duration":0.08203125},{"name":"A2","midi":45,"time":27.64843749999993,"velocity":0.8031496062992126,"duration":0.25130208333333215},{"name":"G#5","midi":80,"time":27.700520833333265,"velocity":0.8031496062992126,"duration":0.08333333333333215},{"name":"A5","midi":81,"time":27.803385416666597,"velocity":0.8031496062992126,"duration":0.08333333333333215},{"name":"G#2","midi":44,"time":27.901041666666593,"velocity":0.8031496062992126,"duration":0.7565104166666607},{"name":"B5","midi":83,"time":27.901041666666593,"velocity":0.8031496062992126,"duration":0.25130208333333215},{"name":"B2","midi":47,"time":28.153645833333258,"velocity":0.8031496062992126,"duration":0.25130208333333215},{"name":"A5","midi":81,"time":28.153645833333258,"velocity":0.8031496062992126,"duration":0.25130208333333215},{"name":"E3","midi":52,"time":28.406249999999922,"velocity":0.8031496062992126,"duration":0.25130208333333215},{"name":"G#5","midi":80,"time":28.406249999999922,"velocity":0.8031496062992126,"duration":0.25130208333333215},{"name":"A2","midi":45,"time":28.658854166666586,"velocity":0.8031496062992126,"duration":0.7565104166666607},{"name":"F#5","midi":78,"time":28.658854166666586,"velocity":0.8031496062992126,"duration":0.25130208333333215},{"name":"C#3","midi":49,"time":28.91145833333325,"velocity":0.8031496062992126,"duration":0.25130208333333215},{"name":"G#5","midi":80,"time":28.91145833333325,"velocity":0.8031496062992126,"duration":0.25130208333333215},{"name":"F#3","midi":54,"time":29.164062499999915,"velocity":0.8031496062992126,"duration":0.25130208333333215},{"name":"E5","midi":76,"time":29.164062499999915,"velocity":0.8031496062992126,"duration":0.25130208333333215},{"name":"B2","midi":47,"time":29.41666666666658,"velocity":0.8031496062992126,"duration":0.49999999999999645},{"name":"D#5","midi":75,"time":29.41666666666658,"velocity":0.8031496062992126,"duration":0.25130208333333215},{"name":"B3","midi":59,"time":29.669270833333243,"velocity":0.8031496062992126,"duration":0.25130208333333215},{"name":"E5","midi":76,"time":29.669270833333243,"velocity":0.8031496062992126,"duration":0.25130208333333215},{"name":"C#4","midi":61,"time":29.921874999999908,"velocity":0.8031496062992126,"duration":0.25130208333333215},{"name":"F#5","midi":78,"time":29.921874999999908,"velocity":0.8031496062992126,"duration":1.2630208333333215},{"name":"D#4","midi":63,"time":30.174479166666572,"velocity":0.8031496062992126,"duration":0.25130208333333215},{"name":"B4","midi":71,"time":30.174479166666572,"velocity":0.8031496062992126,"duration":0.25130208333333215},{"name":"C#4","midi":61,"time":30.427083333333236,"velocity":0.8031496062992126,"duration":0.25130208333333215},{"name":"C#5","midi":73,"time":30.427083333333236,"velocity":0.8031496062992126,"duration":0.25130208333333215},{"name":"B3","midi":59,"time":30.6796874999999,"velocity":0.8031496062992126,"duration":0.25130208333333215},{"name":"A4","midi":69,"time":30.6796874999999,"velocity":0.8031496062992126,"duration":0.25130208333333215},{"name":"E4","midi":64,"time":30.932291666666565,"velocity":0.8031496062992126,"duration":0.25130208333333215},{"name":"G#4","midi":68,"time":30.932291666666565,"velocity":0.8031496062992126,"duration":0.7565104166666607},{"name":"G#3","midi":56,"time":31.18489583333323,"velocity":0.8031496062992126,"duration":0.25130208333333215},{"name":"B4","midi":71,"time":31.18489583333323,"velocity":0.8031496062992126,"duration":0.25130208333333215},{"name":"A3","midi":57,"time":31.437499999999893,"velocity":0.8031496062992126,"duration":0.25130208333333215},{"name":"E5","midi":76,"time":31.437499999999893,"velocity":0.8031496062992126,"duration":0.49999999999999645},{"name":"B3","midi":59,"time":31.690104166666558,"velocity":0.8031496062992126,"duration":0.25130208333333215},{"name":"F#4","midi":66,"time":31.690104166666558,"velocity":0.8031496062992126,"duration":0.7565104166666714},{"name":"A3","midi":57,"time":31.942708333333222,"velocity":0.8031496062992126,"duration":0.2513020833333357},{"name":"E5","midi":76,"time":31.942708333333222,"velocity":0.8031496062992126,"duration":0.2513020833333357},{"name":"B3","midi":59,"time":32.19531249999989,"velocity":0.8031496062992126,"duration":0.2513020833333357},{"name":"D#5","midi":75,"time":32.19531249999989,"velocity":0.8031496062992126,"duration":0.2513020833333357},{"name":"E3","midi":52,"time":32.447916666666565,"velocity":0.8031496062992126,"duration":3.2734375000000497},{"name":"E5","midi":76,"time":32.447916666666565,"velocity":0.8031496062992126,"duration":0.2513020833333357},{"name":"E4","midi":64,"time":32.447916666666565,"velocity":0.8031496062992126,"duration":1.7760416666666998},{"name":"D#5","midi":75,"time":32.700520833333236,"velocity":0.8031496062992126,"duration":0.2513020833333357},{"name":"F#3","midi":54,"time":32.95312499999991,"velocity":0.8031496062992126,"duration":0.2513020833333357},{"name":"C#5","midi":73,"time":32.95312499999991,"velocity":0.8031496062992126,"duration":0.2513020833333357},{"name":"G#3","midi":56,"time":33.20572916666658,"velocity":0.8031496062992126,"duration":0.5039062500000071},{"name":"B4","midi":71,"time":33.20572916666658,"velocity":0.8031496062992126,"duration":0.2513020833333357},{"name":"C#5","midi":73,"time":33.45833333333325,"velocity":0.8031496062992126,"duration":0.2513020833333357},{"name":"A3","midi":57,"time":33.71093749999992,"velocity":0.8031496062992126,"duration":0.2513020833333357},{"name":"A4","midi":69,"time":33.71093749999992,"velocity":0.8031496062992126,"duration":0.2513020833333357},{"name":"B3","midi":59,"time":33.96354166666659,"velocity":0.8031496062992126,"duration":0.2513020833333357},{"name":"G#4","midi":68,"time":33.96354166666659,"velocity":0.8031496062992126,"duration":0.5039062500000071},{"name":"D#4","midi":63,"time":34.216145833333265,"velocity":0.8031496062992126,"duration":0.2513020833333357},{"name":"C#4","midi":61,"time":34.468749999999936,"velocity":0.8031496062992126,"duration":0.2513020833333357},{"name":"A4","midi":69,"time":34.468749999999936,"velocity":0.8031496062992126,"duration":0.2513020833333357},{"name":"B3","midi":59,"time":34.72135416666661,"velocity":0.8031496062992126,"duration":0.25},{"name":"A4","midi":69,"time":34.72135416666661,"velocity":0.8031496062992126,"duration":0.125},{"name":"G#4","midi":68,"time":34.84765624999994,"velocity":0.8031496062992126,"duration":0.0611979166666643},{"name":"A4","midi":69,"time":34.91015624999994,"velocity":0.8031496062992126,"duration":0.0611979166666643},{"name":"C#4","midi":61,"time":34.97265624999994,"velocity":0.8031496062992126,"duration":0.25},{"name":"G#4","midi":68,"time":34.97265624999994,"velocity":0.8031496062992126,"duration":0.0611979166666643},{"name":"A4","midi":69,"time":35.03515624999994,"velocity":0.8031496062992126,"duration":0.0611979166666643},{"name":"G#4","midi":68,"time":35.09765624999994,"velocity":0.8031496062992126,"duration":0.125},{"name":"A3","midi":57,"time":35.22395833333328,"velocity":0.8031496062992126,"duration":0.2513020833333357},{"name":"F#4","midi":66,"time":35.22395833333328,"velocity":0.8031496062992126,"duration":0.2513020833333357},{"name":"G#3","midi":56,"time":35.47656249999995,"velocity":0.8031496062992126,"duration":0.5},{"name":"E4","midi":64,"time":35.47656249999995,"velocity":0.8031496062992126,"duration":1.766927083333357},{"name":"D#3","midi":51,"time":35.729166666666615,"velocity":0.8031496062992126,"duration":0.2513020833333357},{"name":"C#3","midi":49,"time":35.981770833333286,"velocity":0.8031496062992126,"duration":0.2513020833333357},{"name":"A3","midi":57,"time":35.981770833333286,"velocity":0.8031496062992126,"duration":0.2513020833333357},{"name":"B2","midi":47,"time":36.23437499999996,"velocity":0.8031496062992126,"duration":0.2513020833333357},{"name":"G#3","midi":56,"time":36.23437499999996,"velocity":0.8031496062992126,"duration":0.5000000000000071},{"name":"C#3","midi":49,"time":36.48697916666663,"velocity":0.8031496062992126,"duration":0.2513020833333357},{"name":"A2","midi":45,"time":36.7395833333333,"velocity":0.8031496062992126,"duration":0.2513020833333357},{"name":"F#3","midi":54,"time":36.7395833333333,"velocity":0.8031496062992126,"duration":0.2513020833333357},{"name":"E3","midi":52,"time":36.99218749999997,"velocity":0.8031496062992126,"duration":1.513020833333357},{"name":"G#2","midi":44,"time":36.99218749999997,"velocity":0.8031496062992126,"duration":0.5039062500000071},{"name":"D4","midi":62,"time":37.24479166666664,"velocity":0.8031496062992126,"duration":0.2513020833333357},{"name":"A2","midi":45,"time":37.497395833333314,"velocity":0.8031496062992126,"duration":0.2513020833333357},{"name":"C#4","midi":61,"time":37.497395833333314,"velocity":0.8031496062992126,"duration":0.2513020833333357},{"name":"G#2","midi":44,"time":37.749999999999986,"velocity":0.8031496062992126,"duration":0.2513020833333357},{"name":"B3","midi":59,"time":37.749999999999986,"velocity":0.8031496062992126,"duration":0.2513020833333357},{"name":"F#2","midi":42,"time":38.00260416666666,"velocity":0.8031496062992126,"duration":0.2513020833333357},{"name":"D4","midi":62,"time":38.00260416666666,"velocity":0.8031496062992126,"duration":0.2513020833333357},{"name":"E2","midi":40,"time":38.25520833333333,"velocity":0.8031496062992126,"duration":0.2513020833333357},{"name":"C#4","midi":61,"time":38.25520833333333,"velocity":0.8031496062992126,"duration":0.2513020833333357},{"name":"F#2","midi":42,"time":38.5078125,"velocity":0.8031496062992126,"duration":0.2513020833333357},{"name":"D4","midi":62,"time":38.5078125,"velocity":0.8031496062992126,"duration":0.2513020833333357},{"name":"G#2","midi":44,"time":38.76041666666667,"velocity":0.8031496062992126,"duration":0.2513020833333357},{"name":"E4","midi":64,"time":38.76041666666667,"velocity":0.8031496062992126,"duration":0.2513020833333357},{"name":"A2","midi":45,"time":39.01302083333334,"velocity":0.8031496062992126,"duration":0.2513020833333357},{"name":"F#4","midi":66,"time":39.01302083333334,"velocity":0.8031496062992126,"duration":0.2513020833333357},{"name":"G#2","midi":44,"time":39.265625000000014,"velocity":0.8031496062992126,"duration":0.2513020833333357},{"name":"E4","midi":64,"time":39.265625000000014,"velocity":0.8031496062992126,"duration":0.2513020833333357},{"name":"A2","midi":45,"time":39.518229166666686,"velocity":0.8031496062992126,"duration":0.2513020833333357},{"name":"F#4","midi":66,"time":39.518229166666686,"velocity":0.8031496062992126,"duration":0.2513020833333357},{"name":"B2","midi":47,"time":39.77083333333336,"velocity":0.8031496062992126,"duration":0.2513020833333357},{"name":"D4","midi":62,"time":39.77083333333336,"velocity":0.8031496062992126,"duration":0.2513020833333357},{"name":"A2","midi":45,"time":40.02343750000003,"velocity":0.8031496062992126,"duration":0.5039062500000071},{"name":"C#4","midi":61,"time":40.02343750000003,"velocity":0.8031496062992126,"duration":1.513020833333357},{"name":"A4","midi":69,"time":40.02343750000003,"velocity":0.8031496062992126,"duration":0.2513020833333357},{"name":"G#4","midi":68,"time":40.2760416666667,"velocity":0.8031496062992126,"duration":0.2513020833333357},{"name":"B2","midi":47,"time":40.52864583333337,"velocity":0.8031496062992126,"duration":0.2513020833333357},{"name":"F#4","midi":66,"time":40.52864583333337,"velocity":0.8031496062992126,"duration":0.2513020833333357},{"name":"C#3","midi":49,"time":40.78125000000004,"velocity":0.8031496062992126,"duration":0.2513020833333357},{"name":"E4","midi":64,"time":40.78125000000004,"velocity":0.8031496062992126,"duration":0.2513020833333357},{"name":"B2","midi":47,"time":41.033854166666714,"velocity":0.8031496062992126,"duration":0.2513020833333357},{"name":"G4","midi":67,"time":41.033854166666714,"velocity":0.8031496062992126,"duration":0.2513020833333357},{"name":"A2","midi":45,"time":41.286458333333385,"velocity":0.8031496062992126,"duration":0.2513020833333357},{"name":"F#4","midi":66,"time":41.286458333333385,"velocity":0.8031496062992126,"duration":0.2513020833333357},{"name":"B2","midi":47,"time":41.53906250000006,"velocity":0.8031496062992126,"duration":0.2513020833333357},{"name":"G4","midi":67,"time":41.53906250000006,"velocity":0.8031496062992126,"duration":0.2513020833333357},{"name":"D4","midi":62,"time":41.53906250000006,"velocity":0.8031496062992126,"duration":0.7565104166666785},{"name":"C#3","midi":49,"time":41.79166666666673,"velocity":0.8031496062992126,"duration":0.2513020833333357},{"name":"A4","midi":69,"time":41.79166666666673,"velocity":0.8031496062992126,"duration":0.2513020833333357},{"name":"D3","midi":50,"time":42.0442708333334,"velocity":0.8031496062992126,"duration":0.2513020833333357},{"name":"B4","midi":71,"time":42.0442708333334,"velocity":0.8031496062992126,"duration":0.2513020833333357},{"name":"C#3","midi":49,"time":42.29687500000007,"velocity":0.8031496062992126,"duration":0.2513020833333357},{"name":"E4","midi":64,"time":42.29687500000007,"velocity":0.8031496062992126,"duration":1.513020833333357},{"name":"A4","midi":69,"time":42.29687500000007,"velocity":0.8031496062992126,"duration":0.2513020833333357},{"name":"D3","midi":50,"time":42.54947916666674,"velocity":0.8031496062992126,"duration":0.2513020833333357},{"name":"B4","midi":71,"time":42.54947916666674,"velocity":0.8031496062992126,"duration":0.2513020833333357},{"name":"E3","midi":52,"time":42.802083333333414,"velocity":0.8031496062992126,"duration":0.2513020833333357},{"name":"G4","midi":67,"time":42.802083333333414,"velocity":0.8031496062992126,"duration":0.2513020833333357},{"name":"D3","midi":50,"time":43.054687500000085,"velocity":0.8031496062992126,"duration":0.2513020833333357},{"name":"F#4","midi":66,"time":43.054687500000085,"velocity":0.8031496062992126,"duration":0.2513020833333357},{"name":"E3","midi":52,"time":43.30729166666676,"velocity":0.8031496062992126,"duration":0.2513020833333357},{"name":"G#4","midi":68,"time":43.30729166666676,"velocity":0.8031496062992126,"duration":0.2513020833333357},{"name":"F#3","midi":54,"time":43.55989583333343,"velocity":0.8031496062992126,"duration":0.2513020833333357},{"name":"A4","midi":69,"time":43.55989583333343,"velocity":0.8031496062992126,"duration":0.2513020833333357},{"name":"G#2","midi":44,"time":43.8125000000001,"velocity":0.8031496062992126,"duration":0.2513020833333357},{"name":"D4","midi":62,"time":43.8125000000001,"velocity":0.8031496062992126,"duration":0.7565104166666785},{"name":"B4","midi":71,"time":43.8125000000001,"velocity":0.8031496062992126,"duration":1.0078125000000142},{"name":"A2","midi":45,"time":44.06510416666677,"velocity":0.8031496062992126,"duration":0.2513020833333357},{"name":"B2","midi":47,"time":44.31770833333344,"velocity":0.8031496062992126,"duration":0.2513020833333357},{"name":"F#2","midi":42,"time":44.570312500000114,"velocity":0.8031496062992126,"duration":0.07421875},{"name":"C#4","midi":61,"time":44.570312500000114,"velocity":0.8031496062992126,"duration":1.2617187500000142},{"name":"F2","midi":41,"time":44.66276041666678,"velocity":0.8031496062992126,"duration":0.0924479166666643},{"name":"D#2","midi":39,"time":44.75651041666678,"velocity":0.8031496062992126,"duration":0.0911458333333357},{"name":"A4","midi":69,"time":44.82161458333345,"velocity":0.8031496062992126,"duration":0.2513020833333357},{"name":"F2","midi":41,"time":44.84895833333345,"velocity":0.8031496062992126,"duration":0.0924479166666643},{"name":"F#2","midi":42,"time":44.94270833333345,"velocity":0.8031496062992126,"duration":0.0924479166666643},{"name":"F2","midi":41,"time":45.03645833333345,"velocity":0.8031496062992126,"duration":0.0911458333333357},{"name":"G#4","midi":68,"time":45.07421875000012,"velocity":0.8031496062992126,"duration":0.2513020833333286},{"name":"D#2","midi":39,"time":45.12890625000012,"velocity":0.8031496062992126,"duration":0.0924479166666643},{"name":"F2","midi":41,"time":45.225260416666785,"velocity":0.8031496062992126,"duration":0.0924479166666643},{"name":"F#2","midi":42,"time":45.326822916666785,"velocity":0.8031496062992126,"duration":0.2513020833333357},{"name":"A4","midi":69,"time":45.326822916666785,"velocity":0.8031496062992126,"duration":0.2513020833333357},{"name":"E2","midi":40,"time":45.57942708333346,"velocity":0.8031496062992126,"duration":0.2513020833333357},{"name":"F#4","midi":66,"time":45.57942708333346,"velocity":0.8031496062992126,"duration":0.2513020833333357},{"name":"D2","midi":38,"time":45.83203125000013,"velocity":0.8031496062992126,"duration":0.2513020833333357},{"name":"B3","midi":59,"time":45.83203125000013,"velocity":0.8031496062992126,"duration":0.2513020833333357},{"name":"G#4","midi":68,"time":45.83203125000013,"velocity":0.8031496062992126,"duration":0.2513020833333357},{"name":"C#2","midi":37,"time":46.0846354166668,"velocity":0.8031496062992126,"duration":2.7773437500000497},{"name":"F4","midi":65,"time":46.0846354166668,"velocity":0.8031496062992126,"duration":1.7630208333333641},{"name":"C#4","midi":61,"time":46.0846354166668,"velocity":0.8031496062992126,"duration":0.2513020833333357},{"name":"B3","midi":59,"time":46.33723958333347,"velocity":0.8031496062992126,"duration":0.2513020833333357},{"name":"A3","midi":57,"time":46.58984375000014,"velocity":0.8031496062992126,"duration":0.2513020833333357},{"name":"G#3","midi":56,"time":46.84244791666681,"velocity":0.8031496062992126,"duration":0.2513020833333357},{"name":"B3","midi":59,"time":47.095052083333485,"velocity":0.8031496062992126,"duration":0.2513020833333357},{"name":"A3","midi":57,"time":47.347656250000156,"velocity":0.8031496062992126,"duration":0.2513020833333357},{"name":"B3","midi":59,"time":47.60026041666683,"velocity":0.8031496062992126,"duration":1.513020833333357},{"name":"F#4","midi":66,"time":47.8528645833335,"velocity":0.8031496062992126,"duration":0.2513020833333357},{"name":"G#4","midi":68,"time":48.10546875000017,"velocity":0.8031496062992126,"duration":0.2513020833333357},{"name":"C#4","midi":61,"time":48.35807291666684,"velocity":0.8031496062992126,"duration":0.2513020833333357},{"name":"F#4","midi":66,"time":48.61067708333351,"velocity":0.8031496062992126,"duration":0.2513020833333357},{"name":"C#3","midi":49,"time":48.863281250000185,"velocity":0.8031496062992126,"duration":0.2513020833333357},{"name":"F4","midi":65,"time":48.863281250000185,"velocity":0.8031496062992126,"duration":0.2513020833333357},{"name":"D3","midi":50,"time":49.115885416666856,"velocity":0.8031496062992126,"duration":0.7565104166666785},{"name":"A3","midi":57,"time":49.115885416666856,"velocity":0.8031496062992126,"duration":1.00911458333335},{"name":"F#4","midi":66,"time":49.115885416666856,"velocity":0.8031496062992126,"duration":0.2513020833333357},{"name":"G#4","midi":68,"time":49.36848958333353,"velocity":0.8031496062992126,"duration":0.2513020833333357},{"name":"A4","midi":69,"time":49.6210937500002,"velocity":0.8031496062992126,"duration":0.2513020833333357},{"name":"D#3","midi":51,"time":49.87369791666687,"velocity":0.8031496062992126,"duration":0.7565104166666785},{"name":"B4","midi":71,"time":49.87369791666687,"velocity":0.8031496062992126,"duration":1.00911458333335},{"name":"G#3","midi":56,"time":50.12630208333354,"velocity":0.8031496062992126,"duration":0.2513020833333357},{"name":"F#3","midi":54,"time":50.37890625000021,"velocity":0.8031496062992126,"duration":0.2513020833333357},{"name":"G#3","midi":56,"time":50.631510416666885,"velocity":0.8031496062992126,"duration":1.00911458333335},{"name":"E3","midi":52,"time":50.631510416666885,"velocity":0.8031496062992126,"duration":0.7565104166666785},{"name":"C#5","midi":73,"time":50.884114583333556,"velocity":0.8031496062992126,"duration":0.2513020833333357},{"name":"D5","midi":74,"time":51.13671875000023,"velocity":0.8031496062992126,"duration":0.2513020833333357},{"name":"F3","midi":53,"time":51.3893229166669,"velocity":0.8031496062992126,"duration":0.7565104166666785},{"name":"C#5","midi":73,"time":51.3893229166669,"velocity":0.8031496062992126,"duration":0.2513020833333357},{"name":"G#3","midi":56,"time":51.64192708333357,"velocity":0.8031496062992126,"duration":0.2513020833333357},{"name":"D5","midi":74,"time":51.64192708333357,"velocity":0.8031496062992126,"duration":0.2513020833333357},{"name":"C#4","midi":61,"time":51.89453125000024,"velocity":0.8031496062992126,"duration":0.2513020833333357},{"name":"B4","midi":71,"time":51.89453125000024,"velocity":0.8031496062992126,"duration":0.2513020833333357},{"name":"F#3","midi":54,"time":52.14713541666691,"velocity":0.8031496062992126,"duration":1.0078125000000142},{"name":"A4","midi":69,"time":52.14713541666691,"velocity":0.8031496062992126,"duration":0.2513020833333357},{"name":"B4","midi":71,"time":52.399739583333584,"velocity":0.8031496062992126,"duration":0.2513020833333357},{"name":"B2","midi":47,"time":52.652343750000256,"velocity":0.8031496062992126,"duration":0.2513020833333357},{"name":"G#4","midi":68,"time":52.652343750000256,"velocity":0.8031496062992126,"duration":0.2513020833333357},{"name":"C#3","midi":49,"time":52.90494791666693,"velocity":0.8031496062992126,"duration":0.7539062500000142},{"name":"A4","midi":69,"time":52.90494791666693,"velocity":0.8031496062992126,"duration":0.125},{"name":"G#4","midi":68,"time":53.01822916666693,"velocity":0.8031496062992126,"duration":0.07421875},{"name":"A4","midi":69,"time":53.09375000000026,"velocity":0.8031496062992126,"duration":0.07421875},{"name":"F#3","midi":54,"time":53.15625000000026,"velocity":0.8031496062992126,"duration":0.2500000000000071},{"name":"G#4","midi":68,"time":53.1692708333336,"velocity":0.8031496062992126,"duration":0.07421875},{"name":"A4","midi":69,"time":53.244791666666934,"velocity":0.8031496062992126,"duration":0.07421875},{"name":"G#4","midi":68,"time":53.307291666666934,"velocity":0.8031496062992126,"duration":0.0989583333333357},{"name":"F3","midi":53,"time":53.407552083333606,"velocity":0.8031496062992126,"duration":0.2513020833333357},{"name":"F#4","midi":66,"time":53.407552083333606,"velocity":0.8031496062992126,"duration":0.2513020833333357},{"name":"F#2","midi":42,"time":53.66015625000028,"velocity":0.8031496062992126,"duration":0.7565104166666785},{"name":"F#3","midi":54,"time":53.66015625000028,"velocity":0.8031496062992126,"duration":4.532552083333421},{"name":"F#5","midi":78,"time":53.66015625000028,"velocity":0.8031496062992126,"duration":0.2513020833333357},{"name":"F#4","midi":66,"time":53.66015625000028,"velocity":0.8031496062992126,"duration":1.7630208333333641},{"name":"E5","midi":76,"time":53.91276041666695,"velocity":0.8031496062992126,"duration":0.2513020833333357},{"name":"G#3","midi":56,"time":54.16536458333362,"velocity":0.8031496062992126,"duration":0.2513020833333357},{"name":"D5","midi":74,"time":54.16536458333362,"velocity":0.8031496062992126,"duration":0.2513020833333357},{"name":"A#3","midi":58,"time":54.41796875000029,"velocity":0.8031496062992126,"duration":0.5039062500000071},{"name":"C#5","midi":73,"time":54.41796875000029,"velocity":0.8031496062992126,"duration":0.2513020833333357},{"name":"D5","midi":74,"time":54.67057291666696,"velocity":0.8031496062992126,"duration":0.2513020833333357},{"name":"B3","midi":59,"time":54.923177083333634,"velocity":0.8031496062992126,"duration":0.2513020833333357},{"name":"B4","midi":71,"time":54.923177083333634,"velocity":0.8031496062992126,"duration":0.2513020833333357},{"name":"C#4","midi":61,"time":55.175781250000306,"velocity":0.8031496062992126,"duration":0.2513020833333357},{"name":"A#4","midi":70,"time":55.175781250000306,"velocity":0.8031496062992126,"duration":0.5039062500000071},{"name":"E4","midi":64,"time":55.42838541666698,"velocity":0.8031496062992126,"duration":0.2513020833333357},{"name":"D4","midi":62,"time":55.68098958333365,"velocity":0.8031496062992126,"duration":0.2513020833333357},{"name":"B4","midi":71,"time":55.68098958333365,"velocity":0.8031496062992126,"duration":0.2513020833333357},{"name":"C#4","midi":61,"time":55.93359375000032,"velocity":0.8031496062992126,"duration":0.2500000000000071},{"name":"B4","midi":71,"time":55.93359375000032,"velocity":0.8031496062992126,"duration":0.125},{"name":"A#4","midi":70,"time":56.059895833333655,"velocity":0.8031496062992126,"duration":0.07421875},{"name":"B4","midi":71,"time":56.13541666666699,"velocity":0.8031496062992126,"duration":0.0742187500000071},{"name":"D4","midi":62,"time":56.18489583333366,"velocity":0.8031496062992126,"duration":0.2486979166666785},{"name":"A#4","midi":70,"time":56.210937500000334,"velocity":0.8031496062992126,"duration":0.07421875},{"name":"B4","midi":71,"time":56.28645833333367,"velocity":0.8031496062992126,"duration":0.07421875},{"name":"A#4","midi":70,"time":56.358072916667005,"velocity":0.8031496062992126,"duration":0.07421875},{"name":"B3","midi":59,"time":56.43489583333368,"velocity":0.8031496062992126,"duration":0.2513020833333357},{"name":"G#4","midi":68,"time":56.43489583333368,"velocity":0.8031496062992126,"duration":0.2513020833333357},{"name":"A#3","midi":58,"time":56.68750000000035,"velocity":0.8031496062992126,"duration":0.50390625},{"name":"F#4","midi":66,"time":56.68750000000035,"velocity":0.8031496062992126,"duration":1.763020833333357},{"name":"E4","midi":64,"time":56.94010416666701,"velocity":0.8031496062992126,"duration":0.2513020833333357},{"name":"B3","midi":59,"time":57.192708333333684,"velocity":0.8031496062992126,"duration":0.2513020833333357},{"name":"D4","midi":62,"time":57.192708333333684,"velocity":0.8031496062992126,"duration":0.2513020833333357},{"name":"A#3","midi":58,"time":57.445312500000355,"velocity":0.8031496062992126,"duration":0.5039062500000071},{"name":"C#4","midi":61,"time":57.445312500000355,"velocity":0.8031496062992126,"duration":0.2513020833333357},{"name":"D4","midi":62,"time":57.69791666666703,"velocity":0.8031496062992126,"duration":0.2513020833333357},{"name":"G#3","midi":56,"time":57.9505208333337,"velocity":0.8031496062992126,"duration":0.2513020833333357},{"name":"B3","midi":59,"time":57.9505208333337,"velocity":0.8031496062992126,"duration":0.2513020833333357},{"name":"F#3","midi":54,"time":58.20312500000037,"velocity":0.8031496062992126,"duration":0.5039062500000071},{"name":"A#3","midi":58,"time":58.20312500000037,"velocity":0.8031496062992126,"duration":0.5000000000000071},{"name":"G#4","midi":68,"time":58.45572916666704,"velocity":0.8031496062992126,"duration":0.2513020833333357},{"name":"E3","midi":52,"time":58.70833333333371,"velocity":0.8031496062992126,"duration":0.2513020833333357},{"name":"A#4","midi":70,"time":58.70833333333371,"velocity":0.8031496062992126,"duration":0.2513020833333357},{"name":"D3","midi":50,"time":58.960937500000384,"velocity":0.8031496062992126,"duration":0.5039062500000071},{"name":"B4","midi":71,"time":58.960937500000384,"velocity":0.8031496062992126,"duration":0.2513020833333357},{"name":"A#4","midi":70,"time":59.213541666667055,"velocity":0.8031496062992126,"duration":0.2513020833333357},{"name":"C#3","midi":49,"time":59.46614583333373,"velocity":0.8031496062992126,"duration":0.2513020833333357},{"name":"C#5","midi":73,"time":59.46614583333373,"velocity":0.8031496062992126,"duration":0.2513020833333357},{"name":"B2","midi":47,"time":59.7187500000004,"velocity":0.8031496062992126,"duration":0.5000000000000071},{"name":"D5","midi":74,"time":59.7187500000004,"velocity":0.8031496062992126,"duration":1.7630208333333641},{"name":"B3","midi":59,"time":59.7187500000004,"velocity":0.8031496062992126,"duration":0.2513020833333357},{"name":"C#4","midi":61,"time":59.97135416666707,"velocity":0.8031496062992126,"duration":0.2513020833333357},{"name":"D4","midi":62,"time":60.22395833333374,"velocity":0.8031496062992126,"duration":0.2513020833333357},{"name":"E4","midi":64,"time":60.47656250000041,"velocity":0.8031496062992126,"duration":0.2513020833333357},{"name":"D4","midi":62,"time":60.72916666666708,"velocity":0.8031496062992126,"duration":0.2513020833333357},{"name":"F#4","midi":66,"time":60.981770833333755,"velocity":0.8031496062992126,"duration":0.2513020833333357},{"name":"G4","midi":67,"time":61.234375000000426,"velocity":0.8031496062992126,"duration":1.00911458333335},{"name":"C#5","midi":73,"time":61.4869791666671,"velocity":0.8031496062992126,"duration":0.2513020833333357},{"name":"B4","midi":71,"time":61.73958333333377,"velocity":0.8031496062992126,"duration":0.2513020833333357},{"name":"E5","midi":76,"time":61.99218750000044,"velocity":0.8031496062992126,"duration":1.00911458333335},{"name":"F#4","midi":66,"time":62.24479166666711,"velocity":0.8031496062992126,"duration":0.2513020833333357},{"name":"E4","midi":64,"time":62.49739583333378,"velocity":0.8031496062992126,"duration":0.2513020833333357},{"name":"B4","midi":71,"time":62.750000000000455,"velocity":0.8031496062992126,"duration":1.5130208333333428},{"name":"D5","midi":74,"time":63.002604166667126,"velocity":0.8031496062992126,"duration":0.2513020833333357},{"name":"C#5","midi":73,"time":63.2552083333338,"velocity":0.8031496062992126,"duration":0.2513020833333357},{"name":"D5","midi":74,"time":63.50781250000047,"velocity":0.8031496062992126,"duration":0.2513020833333357},{"name":"F#5","midi":78,"time":63.76041666666714,"velocity":0.8031496062992126,"duration":0.2513020833333286},{"name":"E5","midi":76,"time":64.0130208333338,"velocity":0.8031496062992126,"duration":0.2513020833333286},{"name":"F#3","midi":54,"time":64.26562500000045,"velocity":0.8031496062992126,"duration":0.2513020833333286},{"name":"A#4","midi":70,"time":64.26562500000045,"velocity":0.8031496062992126,"duration":0.2513020833333286},{"name":"F#5","midi":78,"time":64.26562500000045,"velocity":0.8031496062992126,"duration":1.7630208333332718},{"name":"G#3","midi":56,"time":64.51822916666711,"velocity":0.8031496062992126,"duration":0.2513020833333286},{"name":"B4","midi":71,"time":64.51822916666711,"velocity":0.8031496062992126,"duration":0.2513020833333286},{"name":"A#3","midi":58,"time":64.77083333333377,"velocity":0.8031496062992126,"duration":0.2513020833333286},{"name":"C#5","midi":73,"time":64.77083333333377,"velocity":0.8031496062992126,"duration":0.2513020833333286},{"name":"B3","midi":59,"time":65.02343750000043,"velocity":0.8031496062992126,"duration":0.2513020833333286},{"name":"D5","midi":74,"time":65.02343750000043,"velocity":0.8031496062992126,"duration":0.2513020833333286},{"name":"A#3","midi":58,"time":65.27604166666708,"velocity":0.8031496062992126,"duration":0.2513020833333286},{"name":"E5","midi":76,"time":65.27604166666708,"velocity":0.8031496062992126,"duration":0.2513020833333286},{"name":"C#4","midi":61,"time":65.52864583333374,"velocity":0.8031496062992126,"duration":0.2513020833333286},{"name":"A#4","midi":70,"time":65.52864583333374,"velocity":0.8031496062992126,"duration":0.2513020833333286},{"name":"D4","midi":62,"time":65.7812500000004,"velocity":0.8031496062992126,"duration":1.2617187499999574},{"name":"B4","midi":71,"time":65.7812500000004,"velocity":0.8031496062992126,"duration":3.781249999999872},{"name":"G5","midi":79,"time":66.03385416666706,"velocity":0.8031496062992126,"duration":0.2513020833333286},{"name":"A5","midi":81,"time":66.28645833333371,"velocity":0.8031496062992126,"duration":0.2513020833333286},{"name":"B5","midi":83,"time":66.53906250000037,"velocity":0.8031496062992126,"duration":0.2513020833333286},{"name":"C6","midi":84,"time":66.79166666666703,"velocity":0.8031496062992126,"duration":0.2513020833333286},{"name":"D#4","midi":63,"time":67.04427083333368,"velocity":0.8031496062992126,"duration":0.2513020833333286},{"name":"A5","midi":81,"time":67.04427083333368,"velocity":0.8031496062992126,"duration":0.2513020833333286},{"name":"E4","midi":64,"time":67.29687500000034,"velocity":0.8031496062992126,"duration":0.2513020833333286},{"name":"G5","midi":79,"time":67.29687500000034,"velocity":0.8031496062992126,"duration":0.2513020833333286},{"name":"F#4","midi":66,"time":67.549479166667,"velocity":0.8031496062992126,"duration":0.2513020833333286},{"name":"F#5","midi":78,"time":67.549479166667,"velocity":0.8031496062992126,"duration":0.2513020833333286},{"name":"G4","midi":67,"time":67.80208333333366,"velocity":0.8031496062992126,"duration":0.2513020833333286},{"name":"E5","midi":76,"time":67.80208333333366,"velocity":0.8031496062992126,"duration":0.2513020833333286},{"name":"F#4","midi":66,"time":68.05468750000031,"velocity":0.8031496062992126,"duration":0.2513020833333286},{"name":"D5","midi":74,"time":68.05468750000031,"velocity":0.8031496062992126,"duration":0.2513020833333286},{"name":"G4","midi":67,"time":68.30729166666697,"velocity":0.8031496062992126,"duration":0.2513020833333286},{"name":"E5","midi":76,"time":68.30729166666697,"velocity":0.8031496062992126,"duration":0.2513020833333286},{"name":"E4","midi":64,"time":68.55989583333363,"velocity":0.8031496062992126,"duration":0.2513020833333286},{"name":"C#5","midi":73,"time":68.55989583333363,"velocity":0.8031496062992126,"duration":0.2513020833333286},{"name":"D4","midi":62,"time":68.81250000000028,"velocity":0.8031496062992126,"duration":0.2513020833333286},{"name":"F#5","midi":78,"time":68.81250000000028,"velocity":0.8031496062992126,"duration":0.5039062499999858},{"name":"F#4","midi":66,"time":69.06510416666694,"velocity":0.8031496062992126,"duration":0.2513020833333286},{"name":"E4","midi":64,"time":69.3177083333336,"velocity":0.8031496062992126,"duration":0.2513020833333428},{"name":"G5","midi":79,"time":69.3177083333336,"velocity":0.8031496062992126,"duration":0.2513020833333428},{"name":"F#4","midi":66,"time":69.57031250000027,"velocity":0.8031496062992126,"duration":0.25},{"name":"D5","midi":74,"time":69.57031250000027,"velocity":0.8031496062992126,"duration":0.125},{"name":"A#4","midi":70,"time":69.57031250000027,"velocity":0.8031496062992126,"duration":0.4960937499999858},{"name":"C#5","midi":73,"time":69.68359375000027,"velocity":0.8031496062992126,"duration":0.07421875},{"name":"D5","midi":74,"time":69.7591145833336,"velocity":0.8031496062992126,"duration":0.07421875},{"name":"C#4","midi":61,"time":69.8216145833336,"velocity":0.8031496062992126,"duration":0.2486979166666572},{"name":"C#5","midi":73,"time":69.83463541666693,"velocity":0.8031496062992126,"duration":0.07421875},{"name":"D5","midi":74,"time":69.91015625000026,"velocity":0.8031496062992126,"duration":0.07421875},{"name":"C#5","midi":73,"time":69.98567708333358,"velocity":0.8031496062992126,"duration":0.07421875},{"name":"E4","midi":64,"time":70.07161458333358,"velocity":0.8031496062992126,"duration":0.2513020833333286},{"name":"B4","midi":71,"time":70.07161458333358,"velocity":0.8031496062992126,"duration":0.2513020833333286},{"name":"E4","midi":64,"time":70.32421875000024,"velocity":0.8031496062992126,"duration":0.0911458333333286},{"name":"B4","midi":71,"time":70.32421875000024,"velocity":0.8031496062992126,"duration":2.2643229166666003},{"name":"B5","midi":83,"time":70.32421875000024,"velocity":0.8031496062992126,"duration":0.2526041666666572},{"name":"D#4","midi":63,"time":70.41536458333357,"velocity":0.8031496062992126,"duration":0.0911458333333286},{"name":"E4","midi":64,"time":70.50781250000023,"velocity":0.8031496062992126,"duration":0.0911458333333286},{"name":"A5","midi":81,"time":70.57812500000023,"velocity":0.8031496062992126,"duration":0.2513020833333286},{"name":"D#4","midi":63,"time":70.59895833333356,"velocity":0.8031496062992126,"duration":0.9960937499999716},{"name":"G#5","midi":80,"time":70.83072916666688,"velocity":0.8031496062992126,"duration":0.2513020833333286},{"name":"F#5","midi":78,"time":71.08333333333354,"velocity":0.8031496062992126,"duration":0.2513020833333286},{"name":"G#5","midi":80,"time":71.3359375000002,"velocity":0.8031496062992126,"duration":0.2513020833333286},{"name":"E4","midi":64,"time":71.58854166666686,"velocity":0.8031496062992126,"duration":0.2513020833333428},{"name":"E5","midi":76,"time":71.58854166666686,"velocity":0.8031496062992126,"duration":0.2513020833333428},{"name":"F#4","midi":66,"time":71.84114583333353,"velocity":0.8031496062992126,"duration":0.2513020833333286},{"name":"D#5","midi":75,"time":71.84114583333353,"velocity":0.8031496062992126,"duration":0.2513020833333286},{"name":"B3","midi":59,"time":72.09375000000018,"velocity":0.8031496062992126,"duration":0.2513020833333286},{"name":"E5","midi":76,"time":72.09375000000018,"velocity":0.8031496062992126,"duration":0.2513020833333286},{"name":"A3","midi":57,"time":72.34635416666684,"velocity":0.8031496062992126,"duration":0.2513020833333286},{"name":"F#5","midi":78,"time":72.34635416666684,"velocity":0.8031496062992126,"duration":0.2513020833333286},{"name":"G#3","midi":56,"time":72.5989583333335,"velocity":0.8031496062992126,"duration":0.2513020833333286},{"name":"B4","midi":71,"time":72.5989583333335,"velocity":0.8031496062992126,"duration":0.4999999999999858},{"name":"A3","midi":57,"time":72.85156250000016,"velocity":0.8031496062992126,"duration":0.2513020833333286},{"name":"C#5","midi":73,"time":72.85156250000016,"velocity":0.8031496062992126,"duration":0.2513020833333286},{"name":"F#3","midi":54,"time":73.10416666666681,"velocity":0.8031496062992126,"duration":0.2513020833333286},{"name":"D#5","midi":75,"time":73.10416666666681,"velocity":0.8031496062992126,"duration":0.2513020833333286},{"name":"A4","midi":69,"time":73.10416666666681,"velocity":0.8031496062992126,"duration":0.2513020833333286},{"name":"E3","midi":52,"time":73.35677083333347,"velocity":0.8031496062992126,"duration":0.2513020833333286},{"name":"G#4","midi":68,"time":73.35677083333347,"velocity":0.8031496062992126,"duration":0.756510416666643},{"name":"E5","midi":76,"time":73.35677083333347,"velocity":0.8031496062992126,"duration":0.2513020833333286},{"name":"F#3","midi":54,"time":73.60937500000013,"velocity":0.8031496062992126,"duration":0.2513020833333286},{"name":"B4","midi":71,"time":73.60937500000013,"velocity":0.8031496062992126,"duration":0.2513020833333286},{"name":"G#3","midi":56,"time":73.86197916666679,"velocity":0.8031496062992126,"duration":0.2513020833333286},{"name":"E5","midi":76,"time":73.86197916666679,"velocity":0.8031496062992126,"duration":0.4999999999999858},{"name":"A3","midi":57,"time":74.11458333333344,"velocity":0.8031496062992126,"duration":0.2513020833333286},{"name":"F#4","midi":66,"time":74.11458333333344,"velocity":0.8031496062992126,"duration":0.756510416666643},{"name":"F#3","midi":54,"time":74.3671875000001,"velocity":0.8031496062992126,"duration":0.2513020833333286},{"name":"E5","midi":76,"time":74.3671875000001,"velocity":0.8031496062992126,"duration":0.2513020833333286},{"name":"B3","midi":59,"time":74.61979166666676,"velocity":0.8031496062992126,"duration":0.2513020833333286},{"name":"D5","midi":74,"time":74.61979166666676,"velocity":0.8031496062992126,"duration":0.4999999999999858},{"name":"G#3","midi":56,"time":74.87239583333341,"velocity":0.8031496062992126,"duration":0.2513020833333286},{"name":"E4","midi":64,"time":74.87239583333341,"velocity":0.8031496062992126,"duration":0.756510416666643},{"name":"E3","midi":52,"time":75.12500000000007,"velocity":0.8031496062992126,"duration":0.2513020833333286},{"name":"D5","midi":74,"time":75.12500000000007,"velocity":0.8031496062992126,"duration":0.2513020833333286},{"name":"A3","midi":57,"time":75.37760416666673,"velocity":0.8031496062992126,"duration":0.2513020833333286},{"name":"C#5","midi":73,"time":75.37760416666673,"velocity":0.8031496062992126,"duration":0.4999999999999858},{"name":"D#3","midi":51,"time":75.63020833333339,"velocity":0.8031496062992126,"duration":0.756510416666643},{"name":"F#4","midi":66,"time":75.63020833333339,"velocity":0.8031496062992126,"duration":0.756510416666643},{"name":"F#3","midi":54,"time":75.88281250000004,"velocity":0.8031496062992126,"duration":0.2513020833333286},{"name":"B4","midi":71,"time":75.88281250000004,"velocity":0.8031496062992126,"duration":0.2513020833333286},{"name":"B3","midi":59,"time":76.1354166666667,"velocity":0.8031496062992126,"duration":0.4999999999999858},{"name":"A4","midi":69,"time":76.1354166666667,"velocity":0.8031496062992126,"duration":0.2513020833333286},{"name":"E3","midi":52,"time":76.38802083333336,"velocity":0.8031496062992126,"duration":1.7630208333332718},{"name":"G#4","midi":68,"time":76.38802083333336,"velocity":0.8031496062992126,"duration":1.7630208333332718},{"name":"C#4","midi":61,"time":76.64062500000001,"velocity":0.8031496062992126,"duration":0.2513020833333286},{"name":"B2","midi":47,"time":76.89322916666667,"velocity":0.8031496062992126,"duration":0.2513020833333286},{"name":"D#4","midi":63,"time":76.89322916666667,"velocity":0.8031496062992126,"duration":0.2513020833333286},{"name":"G#2","midi":44,"time":77.14583333333333,"velocity":0.8031496062992126,"duration":0.2513020833333286},{"name":"E4","midi":64,"time":77.14583333333333,"velocity":0.8031496062992126,"duration":0.2513020833333286},{"name":"A2","midi":45,"time":77.39843749999999,"velocity":0.8031496062992126,"duration":0.2513020833333286},{"name":"D#4","midi":63,"time":77.39843749999999,"velocity":0.8031496062992126,"duration":0.2513020833333286},{"name":"B2","midi":47,"time":77.65104166666664,"velocity":0.8031496062992126,"duration":0.2513020833333286},{"name":"F#4","midi":66,"time":77.65104166666664,"velocity":0.8031496062992126,"duration":0.2513020833333286},{"name":"E2","midi":40,"time":77.9036458333333,"velocity":0.8031496062992126,"duration":0.4999999999999858},{"name":"E4","midi":64,"time":77.9036458333333,"velocity":0.8031496062992126,"duration":1.7630208333332718},{"name":"F#3","midi":54,"time":78.15624999999996,"velocity":0.8031496062992126,"duration":0.2513020833333286},{"name":"A4","midi":69,"time":78.15624999999996,"velocity":0.8031496062992126,"duration":0.2513020833333286},{"name":"G#3","midi":56,"time":78.40885416666661,"velocity":0.8031496062992126,"duration":0.2513020833333286},{"name":"B4","midi":71,"time":78.40885416666661,"velocity":0.8031496062992126,"duration":0.2513020833333286},{"name":"A3","midi":57,"time":78.66145833333327,"velocity":0.8031496062992126,"duration":0.2513020833333286},{"name":"C#5","midi":73,"time":78.66145833333327,"velocity":0.8031496062992126,"duration":0.2513020833333286},{"name":"G#3","midi":56,"time":78.91406249999993,"velocity":0.8031496062992126,"duration":0.2513020833333286},{"name":"B4","midi":71,"time":78.91406249999993,"velocity":0.8031496062992126,"duration":0.2513020833333286},{"name":"B3","midi":59,"time":79.16666666666659,"velocity":0.8031496062992126,"duration":0.2513020833333286},{"name":"D5","midi":74,"time":79.16666666666659,"velocity":0.8031496062992126,"duration":0.2513020833333286},{"name":"A3","midi":57,"time":79.41927083333324,"velocity":0.8031496062992126,"duration":1.7630208333332718},{"name":"C#5","midi":73,"time":79.41927083333324,"velocity":0.8031496062992126,"duration":1.7630208333332718},{"name":"F#4","midi":66,"time":79.6718749999999,"velocity":0.8031496062992126,"duration":0.2513020833333286},{"name":"E3","midi":52,"time":79.92447916666656,"velocity":0.8031496062992126,"duration":0.2513020833333286},{"name":"G#4","midi":68,"time":79.92447916666656,"velocity":0.8031496062992126,"duration":0.2513020833333286},{"name":"C#3","midi":49,"time":80.17708333333321,"velocity":0.8031496062992126,"duration":0.2513020833333286},{"name":"A4","midi":69,"time":80.17708333333321,"velocity":0.8031496062992126,"duration":0.2513020833333286},{"name":"D3","midi":50,"time":80.42968749999987,"velocity":0.8031496062992126,"duration":0.2513020833333286},{"name":"G#4","midi":68,"time":80.42968749999987,"velocity":0.8031496062992126,"duration":0.2513020833333286},{"name":"E3","midi":52,"time":80.68229166666653,"velocity":0.8031496062992126,"duration":0.2513020833333286},{"name":"B4","midi":71,"time":80.68229166666653,"velocity":0.8031496062992126,"duration":0.2513020833333286},{"name":"A2","midi":45,"time":80.93489583333319,"velocity":0.8031496062992126,"duration":0.4999999999999858},{"name":"A4","midi":69,"time":80.93489583333319,"velocity":0.8031496062992126,"duration":1.7630208333332718},{"name":"B3","midi":59,"time":81.18749999999984,"velocity":0.8031496062992126,"duration":0.2513020833333286},{"name":"D5","midi":74,"time":81.18749999999984,"velocity":0.8031496062992126,"duration":0.2513020833333286},{"name":"C#4","midi":61,"time":81.4401041666665,"velocity":0.8031496062992126,"duration":0.2513020833333286},{"name":"E5","midi":76,"time":81.4401041666665,"velocity":0.8031496062992126,"duration":0.2513020833333286},{"name":"D4","midi":62,"time":81.69270833333316,"velocity":0.8031496062992126,"duration":0.2513020833333286},{"name":"F#5","midi":78,"time":81.69270833333316,"velocity":0.8031496062992126,"duration":0.2513020833333286},{"name":"C#4","midi":61,"time":81.94531249999982,"velocity":0.8031496062992126,"duration":0.2513020833333286},{"name":"E5","midi":76,"time":81.94531249999982,"velocity":0.8031496062992126,"duration":0.2513020833333286},{"name":"E4","midi":64,"time":82.19791666666647,"velocity":0.8031496062992126,"duration":0.2513020833333286},{"name":"G5","midi":79,"time":82.19791666666647,"velocity":0.8031496062992126,"duration":0.2513020833333286},{"name":"D4","midi":62,"time":82.45052083333313,"velocity":0.8031496062992126,"duration":1.513020833333286},{"name":"F#5","midi":78,"time":82.45052083333313,"velocity":0.8031496062992126,"duration":1.7630208333332718},{"name":"B4","midi":71,"time":82.70312499999979,"velocity":0.8031496062992126,"duration":0.2513020833333286},{"name":"A3","midi":57,"time":82.95572916666644,"velocity":0.8031496062992126,"duration":0.2513020833333286},{"name":"C#5","midi":73,"time":82.95572916666644,"velocity":0.8031496062992126,"duration":0.2513020833333286},{"name":"F#3","midi":54,"time":83.2083333333331,"velocity":0.8031496062992126,"duration":0.2513020833333286},{"name":"D5","midi":74,"time":83.2083333333331,"velocity":0.8031496062992126,"duration":0.2513020833333286},{"name":"G3","midi":55,"time":83.46093749999976,"velocity":0.8031496062992126,"duration":0.2513020833333286},{"name":"C#5","midi":73,"time":83.46093749999976,"velocity":0.8031496062992126,"duration":0.2513020833333286},{"name":"A3","midi":57,"time":83.71354166666642,"velocity":0.8031496062992126,"duration":0.2513020833333286},{"name":"E5","midi":76,"time":83.71354166666642,"velocity":0.8031496062992126,"duration":0.2513020833333286},{"name":"D3","midi":50,"time":83.96614583333307,"velocity":0.8031496062992126,"duration":0.2513020833333286},{"name":"D5","midi":74,"time":83.96614583333307,"velocity":0.8031496062992126,"duration":2.2630208333332575},{"name":"F#3","midi":54,"time":84.21874999999973,"velocity":0.8031496062992126,"duration":0.2513020833333286},{"name":"G#5","midi":80,"time":84.21874999999973,"velocity":0.8031496062992126,"duration":0.2513020833333286},{"name":"D3","midi":50,"time":84.47135416666639,"velocity":0.8031496062992126,"duration":0.2513020833333286},{"name":"A5","midi":81,"time":84.47135416666639,"velocity":0.8031496062992126,"duration":0.2513020833333286},{"name":"B2","midi":47,"time":84.72395833333304,"velocity":0.8031496062992126,"duration":0.2513020833333286},{"name":"B5","midi":83,"time":84.72395833333304,"velocity":0.8031496062992126,"duration":0.2513020833333286},{"name":"D3","midi":50,"time":84.9765624999997,"velocity":0.8031496062992126,"duration":0.2513020833333286},{"name":"F#5","midi":78,"time":84.9765624999997,"velocity":0.8031496062992126,"duration":0.2513020833333286},{"name":"B2","midi":47,"time":85.22916666666636,"velocity":0.8031496062992126,"duration":0.2513020833333286},{"name":"A5","midi":81,"time":85.22916666666636,"velocity":0.8031496062992126,"duration":0.2513020833333286},{"name":"E3","midi":52,"time":85.48177083333302,"velocity":0.8031496062992126,"duration":2.5247395833332433},{"name":"G#5","midi":80,"time":85.48177083333302,"velocity":0.8031496062992126,"duration":0.2513020833333286},{"name":"F#5","midi":78,"time":85.73437499999967,"velocity":0.8031496062992126,"duration":0.2513020833333286},{"name":"E5","midi":76,"time":85.98697916666633,"velocity":0.8031496062992126,"duration":0.2513020833333286},{"name":"A5","midi":81,"time":86.23958333333299,"velocity":0.8031496062992126,"duration":1.0091145833333002},{"name":"C#5","midi":73,"time":86.23958333333299,"velocity":0.8031496062992126,"duration":0.2513020833333286},{"name":"B4","midi":71,"time":86.49218749999964,"velocity":0.8031496062992126,"duration":0.2513020833333286},{"name":"A4","midi":69,"time":86.7447916666663,"velocity":0.8031496062992126,"duration":0.2513020833333286},{"name":"B4","midi":71,"time":86.99739583333296,"velocity":0.8031496062992126,"duration":1.0091145833333002},{"name":"G#5","midi":80,"time":87.24999999999962,"velocity":0.8031496062992126,"duration":0.2513020833333286},{"name":"F#5","midi":78,"time":87.50260416666627,"velocity":0.8031496062992126,"duration":0.2513020833333286},{"name":"G#5","midi":80,"time":87.75520833333293,"velocity":0.8031496062992126,"duration":0.2513020833333286},{"name":"E4","midi":64,"time":88.00781249999959,"velocity":0.8031496062992126,"duration":0.2513020833333286},{"name":"E5","midi":76,"time":88.00781249999959,"velocity":0.8031496062992126,"duration":0.2513020833333286},{"name":"C#5","midi":73,"time":88.00781249999959,"velocity":0.8031496062992126,"duration":0.2513020833333286},{"name":"D4","midi":62,"time":88.26041666666625,"velocity":0.8031496062992126,"duration":0.2513020833333286},{"name":"D5","midi":74,"time":88.26041666666625,"velocity":0.8031496062992126,"duration":0.2513020833333286},{"name":"F#5","midi":78,"time":88.26041666666625,"velocity":0.8031496062992126,"duration":0.2513020833333286},{"name":"C#4","midi":61,"time":88.5130208333329,"velocity":0.8031496062992126,"duration":0.2513020833333286},{"name":"E5","midi":76,"time":88.5130208333329,"velocity":0.8031496062992126,"duration":0.2513020833333286},{"name":"G5","midi":79,"time":88.5130208333329,"velocity":0.8031496062992126,"duration":1.513020833333286},{"name":"D4","midi":62,"time":88.76562499999956,"velocity":0.8031496062992126,"duration":0.2513020833333286},{"name":"D5","midi":74,"time":88.76562499999956,"velocity":0.8031496062992126,"duration":0.2513020833333286},{"name":"B3","midi":59,"time":89.01822916666622,"velocity":0.8031496062992126,"duration":0.2513020833333286},{"name":"F#5","midi":78,"time":89.01822916666622,"velocity":0.8031496062992126,"duration":0.2513020833333286},{"name":"C#4","midi":61,"time":89.27083333333287,"velocity":0.8031496062992126,"duration":0.2513020833333286},{"name":"E5","midi":76,"time":89.27083333333287,"velocity":0.8031496062992126,"duration":1.0091145833333002},{"name":"B3","midi":59,"time":89.52343749999953,"velocity":0.8031496062992126,"duration":0.2513020833333286},{"name":"A3","midi":57,"time":89.77604166666619,"velocity":0.8031496062992126,"duration":0.2513020833333286},{"name":"D4","midi":62,"time":90.02864583333285,"velocity":0.8031496062992126,"duration":1.0091145833333002},{"name":"F#5","midi":78,"time":90.02864583333285,"velocity":0.8031496062992126,"duration":1.513020833333286},{"name":"A4","midi":69,"time":90.2812499999995,"velocity":0.8031496062992126,"duration":0.2513020833333286},{"name":"C#5","midi":73,"time":90.53385416666616,"velocity":0.8031496062992126,"duration":0.2513020833333286},{"name":"D5","midi":74,"time":90.78645833333282,"velocity":0.8031496062992126,"duration":1.0091145833333002},{"name":"B3","midi":59,"time":91.03906249999947,"velocity":0.8031496062992126,"duration":0.2513020833333286},{"name":"D4","midi":62,"time":91.29166666666613,"velocity":0.8031496062992126,"duration":0.2513020833333286},{"name":"G#3","midi":56,"time":91.54427083333279,"velocity":0.8031496062992126,"duration":0.2513020833333286},{"name":"E5","midi":76,"time":91.54427083333279,"velocity":0.8031496062992126,"duration":1.513020833333286},{"name":"B3","midi":59,"time":91.79687499999945,"velocity":0.8031496062992126,"duration":0.2513020833333286},{"name":"G#4","midi":68,"time":91.79687499999945,"velocity":0.8031496062992126,"duration":0.2513020833333286},{"name":"E3","midi":52,"time":92.0494791666661,"velocity":0.8031496062992126,"duration":0.2513020833333286},{"name":"B4","midi":71,"time":92.0494791666661,"velocity":0.8031496062992126,"duration":0.2513020833333286},{"name":"A3","midi":57,"time":92.30208333333276,"velocity":0.8031496062992126,"duration":0.2513020833333286},{"name":"C#5","midi":73,"time":92.30208333333276,"velocity":0.8031496062992126,"duration":1.0091145833333002},{"name":"C#3","midi":49,"time":92.55468749999942,"velocity":0.8031496062992126,"duration":0.2513020833333286},{"name":"E3","midi":52,"time":92.80729166666607,"velocity":0.8031496062992126,"duration":0.2513020833333286},{"name":"F#2","midi":42,"time":93.05989583333273,"velocity":0.8031496062992126,"duration":0.756510416666643},{"name":"D5","midi":74,"time":93.05989583333273,"velocity":0.8031496062992126,"duration":1.0091145833333002},{"name":"B4","midi":71,"time":93.31249999999939,"velocity":0.8031496062992126,"duration":0.2513020833333286},{"name":"A4","midi":69,"time":93.56510416666605,"velocity":0.8031496062992126,"duration":0.2513020833333286},{"name":"F#2","midi":42,"time":93.8177083333327,"velocity":0.8031496062992126,"duration":0.0885416666666714},{"name":"B4","midi":71,"time":93.8177083333327,"velocity":0.8031496062992126,"duration":0.4999999999999858},{"name":"G#2","midi":44,"time":93.9075520833327,"velocity":0.8031496062992126,"duration":0.0885416666666714},{"name":"A2","midi":45,"time":93.9973958333327,"velocity":0.8031496062992126,"duration":0.0872395833333286},{"name":"C#5","midi":73,"time":94.07031249999936,"velocity":0.8031496062992126,"duration":0.2513020833333286},{"name":"G#2","midi":44,"time":94.08593749999936,"velocity":0.8031496062992126,"duration":0.0885416666666714},{"name":"A2","midi":45,"time":94.17578124999936,"velocity":0.8031496062992126,"duration":0.0885416666666714},{"name":"G#2","midi":44,"time":94.26562499999936,"velocity":0.8031496062992126,"duration":0.0872395833333286},{"name":"B4","midi":71,"time":94.32291666666602,"velocity":0.8031496062992126,"duration":0.2513020833333286},{"name":"F#2","midi":42,"time":94.35416666666602,"velocity":0.8031496062992126,"duration":0.0885416666666714},{"name":"G#2","midi":44,"time":94.44401041666602,"velocity":0.8031496062992126,"duration":0.1302083333333286},{"name":"A2","midi":45,"time":94.57552083333267,"velocity":0.8031496062992126,"duration":0.2513020833333286},{"name":"C#5","midi":73,"time":94.57552083333267,"velocity":0.8031496062992126,"duration":1.7630208333332718},{"name":"C#3","midi":49,"time":94.82812499999933,"velocity":0.8031496062992126,"duration":0.2513020833333286},{"name":"A4","midi":69,"time":94.82812499999933,"velocity":0.8031496062992126,"duration":0.2513020833333286},{"name":"E3","midi":52,"time":95.08072916666599,"velocity":0.8031496062992126,"duration":0.2513020833333286},{"name":"G4","midi":67,"time":95.08072916666599,"velocity":0.8031496062992126,"duration":0.2513020833333286},{"name":"A3","midi":57,"time":95.33333333333265,"velocity":0.8031496062992126,"duration":0.2513020833333286},{"name":"F#4","midi":66,"time":95.33333333333265,"velocity":0.8031496062992126,"duration":0.2513020833333286},{"name":"A2","midi":45,"time":95.5859374999993,"velocity":0.8031496062992126,"duration":0.2513020833333286},{"name":"G4","midi":67,"time":95.5859374999993,"velocity":0.8031496062992126,"duration":0.2513020833333286},{"name":"C#3","midi":49,"time":95.83854166666596,"velocity":0.8031496062992126,"duration":0.2513020833333286},{"name":"E4","midi":64,"time":95.83854166666596,"velocity":0.8031496062992126,"duration":0.2513020833333286},{"name":"D2","midi":38,"time":96.09114583333262,"velocity":0.8031496062992126,"duration":0.756510416666643},{"name":"F#4","midi":66,"time":96.09114583333262,"velocity":0.8031496062992126,"duration":1.513020833333286},{"name":"D5","midi":74,"time":96.34374999999928,"velocity":0.8031496062992126,"duration":0.2513020833333286},{"name":"C#5","midi":73,"time":96.59635416666593,"velocity":0.8031496062992126,"duration":0.2513020833333286},{"name":"C#2","midi":37,"time":96.84895833333259,"velocity":0.8031496062992126,"duration":0.0885416666666714},{"name":"B4","midi":71,"time":96.84895833333259,"velocity":0.8031496062992126,"duration":0.2513020833333286},{"name":"D#2","midi":39,"time":96.93880208333259,"velocity":0.8031496062992126,"duration":0.0885416666666714},{"name":"E2","midi":40,"time":97.02864583333259,"velocity":0.8031496062992126,"duration":0.0872395833333286},{"name":"C#5","midi":73,"time":97.10156249999925,"velocity":0.8031496062992126,"duration":0.2513020833333286},{"name":"D#2","midi":39,"time":97.11718749999925,"velocity":0.8031496062992126,"duration":0.0885416666666714},{"name":"E2","midi":40,"time":97.20703124999925,"velocity":0.8031496062992126,"duration":0.0885416666666714},{"name":"D#2","midi":39,"time":97.29687499999925,"velocity":0.8031496062992126,"duration":0.0872395833333286},{"name":"A4","midi":69,"time":97.3541666666659,"velocity":0.8031496062992126,"duration":0.2513020833333286},{"name":"C#2","midi":37,"time":97.3854166666659,"velocity":0.8031496062992126,"duration":0.0885416666666714},{"name":"D#2","midi":39,"time":97.4752604166659,"velocity":0.8031496062992126,"duration":0.1302083333333286},{"name":"E2","midi":40,"time":97.60677083333256,"velocity":0.8031496062992126,"duration":0.5000000000000142},{"name":"E4","midi":64,"time":97.60677083333256,"velocity":0.8031496062992126,"duration":0.25},{"name":"A4","midi":69,"time":97.60677083333256,"velocity":0.8031496062992126,"duration":0.125},{"name":"G#4","midi":68,"time":97.73046874999923,"velocity":0.8031496062992126,"duration":0.10546875},{"name":"A4","midi":69,"time":97.83593749999923,"velocity":0.8031496062992126,"duration":0.10546875},{"name":"D4","midi":62,"time":97.85937499999923,"velocity":0.8031496062992126,"duration":0.2500000000000142},{"name":"G#4","midi":68,"time":97.9401041666659,"velocity":0.8031496062992126,"duration":0.10546875},{"name":"A4","midi":69,"time":98.0416666666659,"velocity":0.8031496062992126,"duration":0.08854166666668561},{"name":"G#4","midi":68,"time":98.11197916666592,"velocity":0.8031496062992126,"duration":0.4986979166666714},{"name":"C#4","midi":61,"time":98.11197916666592,"velocity":0.8031496062992126,"duration":0.2486979166666714},{"name":"B3","midi":59,"time":98.36328124999926,"velocity":0.8031496062992126,"duration":0.2513020833333286},{"name":"C#4","midi":61,"time":98.61588541666592,"velocity":0.8031496062992126,"duration":0.2513020833333286},{"name":"A4","midi":69,"time":98.61588541666592,"velocity":0.8031496062992126,"duration":0.2513020833333286},{"name":"A3","midi":57,"time":98.86848958333258,"velocity":0.8031496062992126,"duration":0.2513020833333286},{"name":"B4","midi":71,"time":98.86848958333258,"velocity":0.8031496062992126,"duration":0.2513020833333286},{"name":"G#3","midi":56,"time":99.12109374999923,"velocity":0.8031496062992126,"duration":0.50390625},{"name":"E4","midi":64,"time":99.12109374999923,"velocity":0.8031496062992126,"duration":1.0091145833333144},{"name":"D4","midi":62,"time":99.3736979166659,"velocity":0.8031496062992126,"duration":0.2513020833333286},{"name":"A3","midi":57,"time":99.62630208333256,"velocity":0.8031496062992126,"duration":0.2513020833333286},{"name":"C#4","midi":61,"time":99.62630208333256,"velocity":0.8031496062992126,"duration":0.2513020833333286},{"name":"G#3","midi":56,"time":99.87890624999922,"velocity":0.8031496062992126,"duration":0.5039062499999858},{"name":"B3","midi":59,"time":99.87890624999922,"velocity":0.8031496062992126,"duration":0.2513020833333286},{"name":"C#4","midi":61,"time":100.13151041666588,"velocity":0.8031496062992126,"duration":0.2513020833333286},{"name":"F#3","midi":54,"time":100.38411458333253,"velocity":0.8031496062992126,"duration":0.2513020833333286},{"name":"A3","midi":57,"time":100.38411458333253,"velocity":0.8031496062992126,"duration":0.2513020833333286},{"name":"E3","midi":52,"time":100.63671874999919,"velocity":0.8031496062992126,"duration":0.5039062499999858},{"name":"E5","midi":76,"time":100.63671874999919,"velocity":0.8031496062992126,"duration":0.2513020833333286},{"name":"G#3","midi":56,"time":100.63671874999919,"velocity":0.8031496062992126,"duration":0.4999999999999858},{"name":"D5","midi":74,"time":100.88932291666585,"velocity":0.8031496062992126,"duration":0.2513020833333286},{"name":"F#3","midi":54,"time":101.1419270833325,"velocity":0.8031496062992126,"duration":0.2513020833333286},{"name":"A3","midi":57,"time":101.1419270833325,"velocity":0.8031496062992126,"duration":0.2513020833333286},{"name":"C#5","midi":73,"time":101.1419270833325,"velocity":0.8031496062992126,"duration":0.2513020833333286},{"name":"G#3","midi":56,"time":101.39453124999916,"velocity":0.8031496062992126,"duration":0.5039062499999858},{"name":"B3","midi":59,"time":101.39453124999916,"velocity":0.8031496062992126,"duration":0.2513020833333286},{"name":"B4","midi":71,"time":101.39453124999916,"velocity":0.8031496062992126,"duration":0.2513020833333286},{"name":"E4","midi":64,"time":101.64713541666582,"velocity":0.8031496062992126,"duration":0.2513020833333286},{"name":"D5","midi":74,"time":101.64713541666582,"velocity":0.8031496062992126,"duration":0.2513020833333286},{"name":"A3","midi":57,"time":101.89973958333248,"velocity":0.8031496062992126,"duration":0.2513020833333286},{"name":"C#5","midi":73,"time":101.89973958333248,"velocity":0.8031496062992126,"duration":0.2513020833333286},{"name":"F#4","midi":66,"time":101.89973958333248,"velocity":0.8031496062992126,"duration":0.2513020833333286},{"name":"B3","midi":59,"time":102.15234374999913,"velocity":0.8031496062992126,"duration":0.4999999999999858},{"name":"E3","midi":52,"time":102.15234374999913,"velocity":0.8031496062992126,"duration":0.2513020833333286},{"name":"G#4","midi":68,"time":102.15234374999913,"velocity":0.8031496062992126,"duration":1.2617187499999574},{"name":"D5","midi":74,"time":102.15234374999913,"velocity":0.8031496062992126,"duration":2.2630208333332575},{"name":"D3","midi":50,"time":102.40494791666579,"velocity":0.8031496062992126,"duration":0.2513020833333286},{"name":"C#3","midi":49,"time":102.65755208333245,"velocity":0.8031496062992126,"duration":0.2513020833333286},{"name":"B2","midi":47,"time":102.9101562499991,"velocity":0.8031496062992126,"duration":0.2513020833333286},{"name":"C#3","midi":49,"time":103.16276041666576,"velocity":0.8031496062992126,"duration":0.2513020833333286},{"name":"A2","midi":45,"time":103.41536458333242,"velocity":0.8031496062992126,"duration":0.2513020833333286},{"name":"A4","midi":69,"time":103.41536458333242,"velocity":0.8031496062992126,"duration":0.2513020833333286},{"name":"G#2","midi":44,"time":103.66796874999908,"velocity":0.8031496062992126,"duration":0.2513020833333286},{"name":"B4","midi":71,"time":103.66796874999908,"velocity":0.8031496062992126,"duration":1.0091145833333002},{"name":"F#2","midi":42,"time":103.92057291666573,"velocity":0.8031496062992126,"duration":0.2513020833333286},{"name":"E2","midi":40,"time":104.17317708333239,"velocity":0.8031496062992126,"duration":0.2513020833333286},{"name":"A2","midi":45,"time":104.42578124999905,"velocity":0.8031496062992126,"duration":0.2513020833333286},{"name":"C#5","midi":73,"time":104.42578124999905,"velocity":0.8031496062992126,"duration":1.0091145833333002},{"name":"B2","midi":47,"time":104.6783854166657,"velocity":0.8031496062992126,"duration":0.2513020833333286},{"name":"A4","midi":69,"time":104.6783854166657,"velocity":0.8031496062992126,"duration":0.2513020833333286},{"name":"C#3","midi":49,"time":104.93098958333236,"velocity":0.8031496062992126,"duration":0.2513020833333286},{"name":"G4","midi":67,"time":104.93098958333236,"velocity":0.8031496062992126,"duration":0.2513020833333286},{"name":"D3","midi":50,"time":105.18359374999902,"velocity":0.8031496062992126,"duration":0.2513020833333286},{"name":"F#4","midi":66,"time":105.18359374999902,"velocity":0.8031496062992126,"duration":0.756510416666643},{"name":"C#3","midi":49,"time":105.43619791666568,"velocity":0.8031496062992126,"duration":0.2513020833333286},{"name":"D5","midi":74,"time":105.43619791666568,"velocity":0.8031496062992126,"duration":0.2513020833333286},{"name":"E3","midi":52,"time":105.68880208333233,"velocity":0.8031496062992126,"duration":0.2513020833333286},{"name":"C#5","midi":73,"time":105.68880208333233,"velocity":0.8031496062992126,"duration":0.2513020833333286},{"name":"D3","midi":50,"time":105.94140624999899,"velocity":0.8031496062992126,"duration":0.2513020833333286},{"name":"B4","midi":71,"time":105.94140624999899,"velocity":0.8031496062992126,"duration":0.2513020833333286},{"name":"F4","midi":65,"time":105.94140624999899,"velocity":0.8031496062992126,"duration":1.0091145833333002},{"name":"E3","midi":52,"time":106.19401041666565,"velocity":0.8031496062992126,"duration":0.2513020833333286},{"name":"C5","midi":72,"time":106.19401041666565,"velocity":0.8031496062992126,"duration":0.2513020833333286},{"name":"F3","midi":53,"time":106.4466145833323,"velocity":0.8031496062992126,"duration":0.2513020833333286},{"name":"A4","midi":69,"time":106.4466145833323,"velocity":0.8031496062992126,"duration":0.2513020833333286},{"name":"E3","midi":52,"time":106.69921874999896,"velocity":0.8031496062992126,"duration":0.756510416666643},{"name":"G#4","midi":68,"time":106.69921874999896,"velocity":0.8031496062992126,"duration":1.0091145833333002},{"name":"E4","midi":64,"time":106.95182291666562,"velocity":0.8031496062992126,"duration":0.2513020833333286},{"name":"D4","midi":62,"time":107.20442708333228,"velocity":0.8031496062992126,"duration":0.25},{"name":"C#4","midi":61,"time":107.45703124999893,"velocity":0.8031496062992126,"duration":0.2513020833333286},{"name":"D4","midi":62,"time":107.70963541666559,"velocity":0.8031496062992126,"duration":0.2513020833333286},{"name":"B4","midi":71,"time":107.70963541666559,"velocity":0.8031496062992126,"duration":0.2513020833333286},{"name":"B3","midi":59,"time":107.96223958333225,"velocity":0.8031496062992126,"duration":0.2513020833333286},{"name":"G#4","midi":68,"time":107.96223958333225,"velocity":0.8031496062992126,"duration":0.2513020833333286},{"name":"C#4","midi":61,"time":108.2148437499989,"velocity":0.8031496062992126,"duration":0.756510416666643},{"name":"E4","midi":64,"time":108.2148437499989,"velocity":0.8031496062992126,"duration":0.2513020833333286},{"name":"E5","midi":76,"time":108.46744791666556,"velocity":0.8031496062992126,"duration":0.2513020833333286},{"name":"A4","midi":69,"time":108.72005208333222,"velocity":0.8031496062992126,"duration":0.5039062499999858},{"name":"B3","midi":59,"time":108.97265624999888,"velocity":0.8031496062992126,"duration":0.7773437499999858},{"name":"D4","midi":62,"time":108.97265624999888,"velocity":0.8031496062992126,"duration":0.7708333333333144},{"name":"B4","midi":71,"time":109.22526041666553,"velocity":0.8031496062992126,"duration":0.2513020833333286},{"name":"G#4","midi":68,"time":109.47786458333219,"velocity":0.8031496062992126,"duration":0.2526041666666714},{"name":"A4","midi":69,"time":109.75260416666553,"velocity":0.8031496062992126,"duration":1.7721354166666572},{"name":"A5","midi":81,"time":109.75260416666553,"velocity":0.8031496062992126,"duration":0.2526041666666714},{"name":"A3","midi":57,"time":109.75260416666553,"velocity":0.8031496062992126,"duration":1.5208333333333286},{"name":"C#4","midi":61,"time":109.75260416666553,"velocity":0.8031496062992126,"duration":0.5065104166666714},{"name":"G#5","midi":80,"time":110.00651041666553,"velocity":0.8031496062992126,"duration":0.2526041666666714},{"name":"F#5","midi":78,"time":110.26041666666553,"velocity":0.8031496062992126,"duration":0.2526041666666714},{"name":"D4","midi":62,"time":110.26041666666553,"velocity":0.8031496062992126,"duration":0.2526041666666714},{"name":"E5","midi":76,"time":110.51432291666553,"velocity":0.8031496062992126,"duration":0.2526041666666714},{"name":"C#4","midi":61,"time":110.51432291666553,"velocity":0.8031496062992126,"duration":0.5065104166666714},{"name":"F#5","midi":78,"time":110.76822916666553,"velocity":0.8031496062992126,"duration":0.2526041666666714},{"name":"D5","midi":74,"time":111.02213541666553,"velocity":0.8031496062992126,"duration":0.2526041666666572},{"name":"B3","midi":59,"time":111.02213541666553,"velocity":0.8031496062992126,"duration":0.2526041666666572},{"name":"C#5","midi":73,"time":111.27604166666552,"velocity":0.8031496062992126,"duration":0.5065104166666714},{"name":"A3","midi":57,"time":111.27604166666552,"velocity":0.8031496062992126,"duration":1.5234374999999574},{"name":"G#4","midi":68,"time":111.52994791666552,"velocity":0.8031496062992126,"duration":0.2526041666666714},{"name":"D5","midi":74,"time":111.78385416666552,"velocity":0.8031496062992126,"duration":0.2526041666666714},{"name":"F#4","midi":66,"time":111.78385416666552,"velocity":0.8031496062992126,"duration":0.2526041666666714},{"name":"D5","midi":74,"time":112.03776041666552,"velocity":0.8031496062992126,"duration":0.1263020833333286},{"name":"E4","midi":64,"time":112.03776041666552,"velocity":0.8031496062992126,"duration":0.2539062499999858},{"name":"C#5","midi":73,"time":112.16536458333218,"velocity":0.8031496062992126,"duration":0.0625},{"name":"D5","midi":74,"time":112.2291666666655,"velocity":0.8031496062992126,"duration":0.0625},{"name":"F#4","midi":66,"time":112.29296874999883,"velocity":0.8031496062992126,"duration":0.2539062499999858},{"name":"C#5","midi":73,"time":112.29296874999883,"velocity":0.8031496062992126,"duration":0.0625},{"name":"D5","midi":74,"time":112.35677083333216,"velocity":0.8031496062992126,"duration":0.0625},{"name":"C#5","midi":73,"time":112.42057291666549,"velocity":0.8031496062992126,"duration":0.1263020833333286},{"name":"B4","midi":71,"time":112.54817708333215,"velocity":0.8031496062992126,"duration":0.2565104166666572},{"name":"D4","midi":62,"time":112.54817708333215,"velocity":0.8031496062992126,"duration":0.2565104166666572},{"name":"A4","midi":69,"time":112.80598958333213,"velocity":0.8031496062992126,"duration":1.8164062499999716},{"name":"C#4","midi":61,"time":112.80598958333213,"velocity":0.8031496062992126,"duration":0.2578125},{"name":"A3","midi":57,"time":112.80598958333213,"velocity":0.8031496062992126,"duration":3.140624999999943},{"name":"B4","midi":71,"time":113.06510416666546,"velocity":0.8031496062992126,"duration":0.2578125},{"name":"D4","midi":62,"time":113.06510416666546,"velocity":0.8031496062992126,"duration":0.2578125},{"name":"C#5","midi":73,"time":113.32421874999879,"velocity":0.8031496062992126,"duration":0.2578125},{"name":"E4","midi":64,"time":113.32421874999879,"velocity":0.8031496062992126,"duration":0.2578125},{"name":"D5","midi":74,"time":113.58333333333212,"velocity":0.8031496062992126,"duration":0.2578125},{"name":"F#4","midi":66,"time":113.58333333333212,"velocity":0.8031496062992126,"duration":0.2578125},{"name":"F#5","midi":78,"time":113.84244791666545,"velocity":0.8031496062992126,"duration":0.2578125},{"name":"D4","midi":62,"time":113.84244791666545,"velocity":0.8031496062992126,"duration":0.2578125},{"name":"E5","midi":76,"time":114.10156249999878,"velocity":0.8031496062992126,"duration":0.26171875},{"name":"C#4","midi":61,"time":114.10156249999878,"velocity":0.8031496062992126,"duration":0.26171875},{"name":"F#5","midi":78,"time":114.3645833333321,"velocity":0.8031496062992126,"duration":0.26171875},{"name":"D4","midi":62,"time":114.3645833333321,"velocity":0.8031496062992126,"duration":0.26171875},{"name":"D5","midi":74,"time":114.62760416666544,"velocity":0.8031496062992126,"duration":2.489583333333286},{"name":"F#4","midi":66,"time":114.62760416666544,"velocity":0.8031496062992126,"duration":0.26171875},{"name":"E5","midi":76,"time":114.89062499999876,"velocity":0.8031496062992126,"duration":0.26171875},{"name":"E4","midi":64,"time":114.89062499999876,"velocity":0.8031496062992126,"duration":0.26171875},{"name":"F#5","midi":78,"time":115.15364583333209,"velocity":0.8031496062992126,"duration":1.9791666666666288},{"name":"D4","midi":62,"time":115.15364583333209,"velocity":0.8031496062992126,"duration":0.26171875},{"name":"A5","midi":81,"time":115.41666666666542,"velocity":0.8031496062992126,"duration":0.26171875},{"name":"F#4","midi":66,"time":115.41666666666542,"velocity":0.8031496062992126,"duration":0.26171875},{"name":"G#5","midi":80,"time":115.67968749999875,"velocity":0.8031496062992126,"duration":0.2786458333333286},{"name":"E4","midi":64,"time":115.67968749999875,"velocity":0.8031496062992126,"duration":0.2786458333333286},{"name":"A3","midi":57,"time":115.9596354166654,"velocity":0.8031496062992126,"duration":4.953124999999972},{"name":"A5","midi":81,"time":115.9596354166654,"velocity":0.8031496062992126,"duration":4.953124999999972},{"name":"F#4","midi":66,"time":115.9596354166654,"velocity":0.8031496062992126,"duration":0.2786458333333286},{"name":"A4","midi":69,"time":116.23958333333206,"velocity":0.8031496062992126,"duration":0.5546875},{"name":"G#4","midi":68,"time":116.51953124999874,"velocity":0.8031496062992126,"duration":0.2786458333333286},{"name":"A4","midi":69,"time":116.82291666666539,"velocity":0.8031496062992126,"duration":0.9765624999999858},{"name":"C#5","midi":73,"time":117.14973958333205,"velocity":0.8031496062992126,"duration":0.32421875},{"name":"E5","midi":76,"time":117.14973958333205,"velocity":0.8031496062992126,"duration":0.32421875},{"name":"B4","midi":71,"time":117.50260416666538,"velocity":0.8031496062992126,"duration":0.32421875},{"name":"D5","midi":74,"time":117.50260416666538,"velocity":0.8031496062992126,"duration":0.32421875},{"name":"A2","midi":45,"time":117.8554687499987,"velocity":0.8031496062992126,"duration":4.30078125},{"name":"C#5","midi":73,"time":117.8554687499987,"velocity":0.8031496062992126,"duration":4.296875},{"name":"A4","midi":69,"time":117.8554687499987,"velocity":0.8031496062992126,"duration":4.296875},{"name":"A5","midi":81,"time":124.5273437499987,"velocity":0.8031496062992126,"duration":0.2447916666666714},{"name":"A5","midi":81,"time":124.77473958333205,"velocity":0.8031496062992126,"duration":1.4817708333333144},{"name":"A3","midi":57,"time":125.02213541666538,"velocity":0.8031496062992126,"duration":7.734374999999886},{"name":"C#4","midi":61,"time":125.2695312499987,"velocity":0.8031496062992126,"duration":1.4817708333333428},{"name":"E4","midi":64,"time":125.51692708333204,"velocity":0.8031496062992126,"duration":1.2369791666666856},{"name":"A4","midi":69,"time":125.76432291666536,"velocity":0.8031496062992126,"duration":0.9791666666666856},{"name":"C#5","midi":73,"time":126.01171874999869,"velocity":0.8031496062992126,"duration":0.2447916666666714},{"name":"E5","midi":76,"time":126.25911458333204,"velocity":0.8031496062992126,"duration":0.2447916666666714},{"name":"A5","midi":81,"time":126.50651041666538,"velocity":0.8031496062992126,"duration":0.4895833333333428},{"name":"D4","midi":62,"time":126.75390624999872,"velocity":0.8031496062992126,"duration":1.9765625},{"name":"B4","midi":71,"time":126.75390624999872,"velocity":0.8031496062992126,"duration":1.9765625},{"name":"A5","midi":81,"time":127.00130208333205,"velocity":0.8031496062992126,"duration":0.2447916666666714},{"name":"G#5","midi":80,"time":127.24869791666539,"velocity":0.8031496062992126,"duration":0.2447916666666714},{"name":"F#5","midi":78,"time":127.49609374999874,"velocity":0.8031496062992126,"duration":0.2447916666666714},{"name":"G#5","midi":80,"time":127.74348958333208,"velocity":0.8031496062992126,"duration":0.2447916666666714},{"name":"B5","midi":83,"time":127.99088541666542,"velocity":0.8031496062992126,"duration":0.2447916666666714},{"name":"E5","midi":76,"time":128.23828124999875,"velocity":0.8031496062992126,"duration":0.2447916666666572},{"name":"F#5","midi":78,"time":128.48567708333206,"velocity":0.8031496062992126,"duration":0.2447916666666572},{"name":"G5","midi":79,"time":128.73307291666538,"velocity":0.8031496062992126,"duration":1.484375},{"name":"E4","midi":64,"time":128.73307291666538,"velocity":0.8031496062992126,"duration":0.12109375},{"name":"D4","midi":62,"time":128.82161458333204,"velocity":0.8031496062992126,"duration":0.12239583333334281},{"name":"E4","midi":64,"time":128.91145833333204,"velocity":0.8031496062992126,"duration":0.8059895833333428},{"name":"E5","midi":76,"time":128.98177083333204,"velocity":0.8031496062992126,"duration":1.23828125},{"name":"C#5","midi":73,"time":129.22916666666538,"velocity":0.8031496062992126,"duration":0.98046875},{"name":"A4","midi":69,"time":129.47656249999872,"velocity":0.8031496062992126,"duration":0.4908854166666572},{"name":"F#4","midi":66,"time":129.72526041666538,"velocity":0.8031496062992126,"duration":0.7473958333333428},{"name":"A4","midi":69,"time":129.97265624999872,"velocity":0.8031496062992126,"duration":0.4895833333333144},{"name":"F#5","midi":78,"time":130.22005208333204,"velocity":0.8031496062992126,"duration":0.4895833333333428},{"name":"D5","midi":74,"time":130.22005208333204,"velocity":0.8031496062992126,"duration":0.4895833333333428},{"name":"G#4","midi":68,"time":130.46744791666538,"velocity":0.8031496062992126,"duration":0.2447916666666572},{"name":"A4","midi":69,"time":130.7148437499987,"velocity":0.8031496062992126,"duration":1.2369791666666288},{"name":"E5","midi":76,"time":130.7148437499987,"velocity":0.8031496062992126,"duration":2.9661458333332575},{"name":"D5","midi":74,"time":130.96223958333204,"velocity":0.8031496062992126,"duration":0.2447916666666572},{"name":"C#5","midi":73,"time":131.20963541666535,"velocity":0.8031496062992126,"duration":0.2447916666666572},{"name":"B4","midi":71,"time":131.45703124999866,"velocity":0.8031496062992126,"duration":0.2447916666666572},{"name":"C#5","midi":73,"time":131.70442708333198,"velocity":0.8031496062992126,"duration":2.218749999999943},{"name":"B4","midi":71,"time":131.95182291666532,"velocity":0.8031496062992126,"duration":0.2447916666666572},{"name":"E4","midi":64,"time":132.19921874999864,"velocity":0.8031496062992126,"duration":0.2447916666666572},{"name":"F#4","midi":66,"time":132.44661458333195,"velocity":0.8031496062992126,"duration":0.2447916666666572},{"name":"G4","midi":67,"time":132.69401041666526,"velocity":0.8031496062992126,"duration":0.9817708333333428},{"name":"E4","midi":64,"time":132.94270833333192,"velocity":0.8031496062992126,"duration":0.7226562500000284},{"name":"C#4","midi":61,"time":133.19010416666526,"velocity":0.8031496062992126,"duration":0.4934895833333428},{"name":"A3","midi":57,"time":133.4374999999986,"velocity":0.8031496062992126,"duration":2.4752604166666003},{"name":"F#4","midi":66,"time":133.68619791666526,"velocity":0.8031496062992126,"duration":0.4895833333333144},{"name":"A4","midi":69,"time":133.93359374999858,"velocity":0.8031496062992126,"duration":0.4895833333333428},{"name":"F4","midi":65,"time":134.18098958333192,"velocity":0.8031496062992126,"duration":0.4895833333333428},{"name":"D5","midi":74,"time":134.18098958333192,"velocity":0.8031496062992126,"duration":0.72265625},{"name":"G#4","midi":68,"time":134.42838541666526,"velocity":0.8031496062992126,"duration":0.2447916666666572},{"name":"A4","midi":69,"time":134.67578124999858,"velocity":0.8031496062992126,"duration":0.9804687499999716},{"name":"E4","midi":64,"time":134.67578124999858,"velocity":0.8031496062992126,"duration":0.9804687499999716},{"name":"D5","midi":74,"time":134.92447916666526,"velocity":0.8031496062992126,"duration":0.2447916666666572},{"name":"C#5","midi":73,"time":135.17187499999858,"velocity":0.8031496062992126,"duration":0.2447916666666572},{"name":"B4","midi":71,"time":135.4192708333319,"velocity":0.8031496062992126,"duration":0.2447916666666572},{"name":"C#5","midi":73,"time":135.6666666666652,"velocity":0.8031496062992126,"duration":0.9804687499999432},{"name":"E4","midi":64,"time":135.6666666666652,"velocity":0.8031496062992126,"duration":0.9804687499999432},{"name":"A4","midi":69,"time":135.6666666666652,"velocity":0.8031496062992126,"duration":0.12109375},{"name":"G#4","midi":68,"time":135.7486979166652,"velocity":0.8031496062992126,"duration":0.12239583333334281},{"name":"A4","midi":69,"time":135.83203124999855,"velocity":0.8031496062992126,"duration":0.8124999999999432},{"name":"C#4","midi":61,"time":135.91536458333186,"velocity":0.8031496062992126,"duration":0.2447916666666572},{"name":"F#3","midi":54,"time":136.16276041666518,"velocity":0.8031496062992126,"duration":0.2447916666666572},{"name":"G#3","midi":56,"time":136.4101562499985,"velocity":0.8031496062992126,"duration":0.2447916666666572},{"name":"B4","midi":71,"time":136.6575520833318,"velocity":0.8031496062992126,"duration":1.73046875},{"name":"F#4","midi":66,"time":136.6575520833318,"velocity":0.8031496062992126,"duration":1.4830729166666856},{"name":"D#4","midi":63,"time":136.6575520833318,"velocity":0.8031496062992126,"duration":0.9804687500000284},{"name":"A3","midi":57,"time":136.6575520833318,"velocity":0.8031496062992126,"duration":0.9804687500000284},{"name":"F#3","midi":54,"time":136.90494791666515,"velocity":0.8031496062992126,"duration":0.7226562500000284},{"name":"D#3","midi":51,"time":137.1523437499985,"velocity":0.8031496062992126,"duration":0.4908854166666856},{"name":"B2","midi":47,"time":137.39973958333184,"velocity":0.8031496062992126,"duration":0.24609375},{"name":"G#3","midi":56,"time":137.6484374999985,"velocity":0.8031496062992126,"duration":0.9791666666666288},{"name":"B3","midi":59,"time":137.89583333333184,"velocity":0.8031496062992126,"duration":0.739583333333286},{"name":"E4","midi":64,"time":138.14322916666515,"velocity":0.8031496062992126,"duration":1.7265624999998863},{"name":"C#5","midi":73,"time":138.39062499999847,"velocity":0.8031496062992126,"duration":0.2447916666666572},{"name":"A4","midi":69,"time":138.63802083333178,"velocity":0.8031496062992126,"duration":0.2447916666666572},{"name":"F#3","midi":54,"time":138.63802083333178,"velocity":0.8031496062992126,"duration":1.9765624999998863},{"name":"C#4","midi":61,"time":138.63802083333178,"velocity":0.8031496062992126,"duration":1.4817708333332575},{"name":"C#5","midi":73,"time":138.8854166666651,"velocity":0.8031496062992126,"duration":0.2447916666666572},{"name":"F#4","midi":66,"time":139.1328124999984,"velocity":0.8031496062992126,"duration":0.2447916666666572},{"name":"G#4","midi":68,"time":139.38020833333172,"velocity":0.8031496062992126,"duration":0.2447916666666572},{"name":"A4","midi":69,"time":139.62760416666504,"velocity":0.8031496062992126,"duration":1.2369791666666288},{"name":"F#4","midi":66,"time":139.87499999999838,"velocity":0.8031496062992126,"duration":0.2447916666666572},{"name":"D#4","midi":63,"time":140.1223958333317,"velocity":0.8031496062992126,"duration":0.4921874999999716},{"name":"B3","midi":59,"time":140.1223958333317,"velocity":0.8031496062992126,"duration":0.2447916666666572},{"name":"A3","midi":57,"time":140.369791666665,"velocity":0.8031496062992126,"duration":0.2447916666666572},{"name":"E4","midi":64,"time":140.61718749999832,"velocity":0.8031496062992126,"duration":0.9791666666666288},{"name":"E3","midi":52,"time":140.61718749999832,"velocity":0.8031496062992126,"duration":1.235677083333286},{"name":"B3","midi":59,"time":140.61718749999832,"velocity":0.8031496062992126,"duration":0.9791666666666288},{"name":"A4","midi":69,"time":140.86458333333167,"velocity":0.8031496062992126,"duration":0.2447916666666572},{"name":"G#4","midi":68,"time":141.11197916666498,"velocity":0.8031496062992126,"duration":0.2447916666666572},{"name":"F#4","midi":66,"time":141.3593749999983,"velocity":0.8031496062992126,"duration":0.2447916666666572},{"name":"G#4","midi":68,"time":141.6067708333316,"velocity":0.8031496062992126,"duration":1.7187499999999716},{"name":"E4","midi":64,"time":141.6067708333316,"velocity":0.8031496062992126,"duration":0.1341145833333428},{"name":"B3","midi":59,"time":141.6067708333316,"velocity":0.8031496062992126,"duration":1.7187499999999716},{"name":"D#4","midi":63,"time":141.70182291666495,"velocity":0.8031496062992126,"duration":0.1354166666666572},{"name":"E4","midi":64,"time":141.7981770833316,"velocity":0.8031496062992126,"duration":1.4557291666666288},{"name":"F#3","midi":54,"time":141.85546874999827,"velocity":0.8031496062992126,"duration":0.2447916666666572},{"name":"B2","midi":47,"time":142.10286458333158,"velocity":0.8031496062992126,"duration":0.2447916666666572},{"name":"C#3","midi":49,"time":142.3502604166649,"velocity":0.8031496062992126,"duration":0.2447916666666572},{"name":"D3","midi":50,"time":142.5976562499982,"velocity":0.8031496062992126,"duration":0.9817708333333712},{"name":"B2","midi":47,"time":142.84505208333155,"velocity":0.8031496062992126,"duration":0.7239583333333712},{"name":"G#2","midi":44,"time":143.0924479166649,"velocity":0.8031496062992126,"duration":0.4921875000000284},{"name":"G#4","midi":68,"time":143.34114583333158,"velocity":0.8031496062992126,"duration":0.24609375},{"name":"E2","midi":40,"time":143.34114583333158,"velocity":0.8031496062992126,"duration":0.24609375},{"name":"E4","midi":64,"time":143.58984374999824,"velocity":0.8031496062992126,"duration":3.6080729166664867},{"name":"A4","midi":69,"time":143.58984374999824,"velocity":0.8031496062992126,"duration":0.2447916666666572},{"name":"C#3","midi":49,"time":143.58984374999824,"velocity":0.8031496062992126,"duration":0.4895833333333144},{"name":"B4","midi":71,"time":143.83723958333155,"velocity":0.8031496062992126,"duration":0.2447916666666572},{"name":"A3","midi":57,"time":143.83723958333155,"velocity":0.8031496062992126,"duration":0.4895833333333144},{"name":"C#5","midi":73,"time":144.08463541666487,"velocity":0.8031496062992126,"duration":0.12109375},{"name":"B2","midi":47,"time":144.08463541666487,"velocity":0.8031496062992126,"duration":0.4895833333333144},{"name":"B4","midi":71,"time":144.20833333333152,"velocity":0.8031496062992126,"duration":0.12109375},{"name":"A4","midi":69,"time":144.33203124999818,"velocity":0.8031496062992126,"duration":0.12109375},{"name":"G#3","midi":56,"time":144.33203124999818,"velocity":0.8031496062992126,"duration":0.2447916666666572},{"name":"B4","midi":71,"time":144.45572916666484,"velocity":0.8031496062992126,"duration":0.12109375},{"name":"C#5","midi":73,"time":144.5794270833315,"velocity":0.8031496062992126,"duration":2.705729166666572},{"name":"A2","midi":45,"time":144.5794270833315,"velocity":0.8031496062992126,"duration":0.9791666666666288},{"name":"B4","midi":71,"time":144.82682291666484,"velocity":0.8031496062992126,"duration":0.2447916666666572},{"name":"A4","midi":69,"time":145.07421874999815,"velocity":0.8031496062992126,"duration":0.2447916666666572},{"name":"G#4","midi":68,"time":145.32161458333147,"velocity":0.8031496062992126,"duration":0.2447916666666572},{"name":"E3","midi":52,"time":145.32161458333147,"velocity":0.8031496062992126,"duration":0.2447916666666572},{"name":"A4","midi":69,"time":145.56901041666478,"velocity":0.8031496062992126,"duration":1.7291666666666288},{"name":"A3","midi":57,"time":145.56901041666478,"velocity":0.8031496062992126,"duration":0.2447916666666572},{"name":"B3","midi":59,"time":145.8164062499981,"velocity":0.8031496062992126,"duration":0.2447916666666572},{"name":"E3","midi":52,"time":146.0638020833314,"velocity":0.8031496062992126,"duration":0.2447916666666572},{"name":"F#3","midi":54,"time":146.31119791666472,"velocity":0.8031496062992126,"duration":0.2447916666666572},{"name":"G3","midi":55,"time":146.55859374999804,"velocity":0.8031496062992126,"duration":0.9804687500000284},{"name":"E3","midi":52,"time":146.80598958333138,"velocity":0.8031496062992126,"duration":0.7226562500000284},{"name":"C#3","midi":49,"time":147.05338541666472,"velocity":0.8031496062992126,"duration":0.4908854166666856},{"name":"C#5","midi":73,"time":147.30078124999807,"velocity":0.8031496062992126,"duration":0.24609375},{"name":"A2","midi":45,"time":147.30078124999807,"velocity":0.8031496062992126,"duration":0.24609375},{"name":"A4","midi":69,"time":147.54947916666472,"velocity":0.8031496062992126,"duration":2.9635416666664867},{"name":"D5","midi":74,"time":147.54947916666472,"velocity":0.8031496062992126,"duration":0.2447916666666572},{"name":"F#3","midi":54,"time":147.54947916666472,"velocity":0.8031496062992126,"duration":0.4895833333333144},{"name":"C#5","midi":73,"time":147.79687499999804,"velocity":0.8031496062992126,"duration":0.12109375},{"name":"D4","midi":62,"time":147.79687499999804,"velocity":0.8031496062992126,"duration":0.4895833333333144},{"name":"D5","midi":74,"time":147.9205729166647,"velocity":0.8031496062992126,"duration":0.12109375},{"name":"E5","midi":76,"time":148.04427083333135,"velocity":0.8031496062992126,"duration":0.2447916666666572},{"name":"E3","midi":52,"time":148.04427083333135,"velocity":0.8031496062992126,"duration":0.4895833333333144},{"name":"D5","midi":74,"time":148.29166666666467,"velocity":0.8031496062992126,"duration":0.12109375},{"name":"C#4","midi":61,"time":148.29166666666467,"velocity":0.8031496062992126,"duration":0.2447916666666572},{"name":"E5","midi":76,"time":148.41536458333132,"velocity":0.8031496062992126,"duration":0.12109375},{"name":"F#5","midi":78,"time":148.53906249999798,"velocity":0.8031496062992126,"duration":1.7265624999999147},{"name":"D3","midi":50,"time":148.53906249999798,"velocity":0.8031496062992126,"duration":0.9791666666666288},{"name":"E5","midi":76,"time":148.78645833333132,"velocity":0.8031496062992126,"duration":0.2447916666666572},{"name":"D5","midi":74,"time":149.03385416666464,"velocity":0.8031496062992126,"duration":0.2447916666666572},{"name":"C#5","midi":73,"time":149.28124999999795,"velocity":0.8031496062992126,"duration":0.2447916666666572},{"name":"A3","midi":57,"time":149.28124999999795,"velocity":0.8031496062992126,"duration":0.2447916666666572},{"name":"D5","midi":74,"time":149.52864583333127,"velocity":0.8031496062992126,"duration":0.739583333333286},{"name":"D4","midi":62,"time":149.52864583333127,"velocity":0.8031496062992126,"duration":0.2447916666666572},{"name":"F#4","midi":66,"time":149.77604166666458,"velocity":0.8031496062992126,"duration":0.2447916666666572},{"name":"B3","midi":59,"time":150.0234374999979,"velocity":0.8031496062992126,"duration":0.2447916666666572},{"name":"F#5","midi":78,"time":150.2708333333312,"velocity":0.8031496062992126,"duration":0.2447916666666572},{"name":"C#4","midi":61,"time":150.2708333333312,"velocity":0.8031496062992126,"duration":0.2447916666666572},{"name":"E5","midi":76,"time":150.51822916666453,"velocity":0.8031496062992126,"duration":2.2174479166666003},{"name":"G#5","midi":80,"time":150.51822916666453,"velocity":0.8031496062992126,"duration":0.2447916666666572},{"name":"D4","midi":62,"time":150.51822916666453,"velocity":0.8031496062992126,"duration":0.9804687499999432},{"name":"A5","midi":81,"time":150.76562499999784,"velocity":0.8031496062992126,"duration":0.2447916666666572},{"name":"B3","midi":59,"time":150.76562499999784,"velocity":0.8031496062992126,"duration":0.7226562499999716},{"name":"G#5","midi":80,"time":151.01302083333115,"velocity":0.8031496062992126,"duration":0.2447916666666572},{"name":"G#3","midi":56,"time":151.01302083333115,"velocity":0.8031496062992126,"duration":0.4908854166666572},{"name":"A5","midi":81,"time":151.26041666666447,"velocity":0.8031496062992126,"duration":0.24609375},{"name":"E3","midi":52,"time":151.26041666666447,"velocity":0.8031496062992126,"duration":0.24609375},{"name":"B5","midi":83,"time":151.50911458333113,"velocity":0.8031496062992126,"duration":0.2916666666666856},{"name":"C#4","midi":61,"time":151.50911458333113,"velocity":0.8031496062992126,"duration":0.48958333333337123},{"name":"E4","midi":64,"time":151.75651041666447,"velocity":0.8031496062992126,"duration":2.223958333333229},{"name":"A5","midi":81,"time":151.79947916666447,"velocity":0.8031496062992126,"duration":0.09114583333334281},{"name":"B5","midi":83,"time":151.8945312499978,"velocity":0.8031496062992126,"duration":0.09375},{"name":"A5","midi":81,"time":151.98958333333115,"velocity":0.8031496062992126,"duration":0.09505208333334281},{"name":"B3","midi":59,"time":152.00390624999784,"velocity":0.8031496062992126,"duration":0.2447916666666572},{"name":"B5","midi":83,"time":152.08203124999784,"velocity":0.8031496062992126,"duration":0.09635416666665719},{"name":"A5","midi":81,"time":152.1822916666645,"velocity":0.8031496062992126,"duration":0.10546875},{"name":"A3","midi":57,"time":152.25130208333115,"velocity":0.8031496062992126,"duration":0.2447916666666572},{"name":"G#5","midi":80,"time":152.2994791666645,"velocity":0.8031496062992126,"duration":0.10416666666665719},{"name":"A5","midi":81,"time":152.4062499999978,"velocity":0.8031496062992126,"duration":0.08984375},{"name":"B5","midi":83,"time":152.49869791666447,"velocity":0.8031496062992126,"duration":2.2161458333331723},{"name":"G#3","midi":56,"time":152.49869791666447,"velocity":0.8031496062992126,"duration":1.976562499999858},{"name":"A5","midi":81,"time":152.74609374999778,"velocity":0.8031496062992126,"duration":0.2447916666666572},{"name":"G#5","midi":80,"time":152.9934895833311,"velocity":0.8031496062992126,"duration":0.2447916666666572},{"name":"F#5","midi":78,"time":153.2408854166644,"velocity":0.8031496062992126,"duration":0.2447916666666572},{"name":"A3","midi":57,"time":153.2408854166644,"velocity":0.8031496062992126,"duration":0.2447916666666572},{"name":"E5","midi":76,"time":153.48828124999773,"velocity":0.8031496062992126,"duration":0.2447916666666572},{"name":"B3","midi":59,"time":153.48828124999773,"velocity":0.8031496062992126,"duration":0.9791666666666003},{"name":"D5","midi":74,"time":153.73567708333104,"velocity":0.8031496062992126,"duration":0.2447916666666572},{"name":"C#5","midi":73,"time":153.98307291666436,"velocity":0.8031496062992126,"duration":0.2447916666666572},{"name":"E4","midi":64,"time":153.98307291666436,"velocity":0.8031496062992126,"duration":1.483072916666572},{"name":"B4","midi":71,"time":154.23046874999767,"velocity":0.8031496062992126,"duration":0.2447916666666572},{"name":"C#5","midi":73,"time":154.47786458333098,"velocity":0.8031496062992126,"duration":0.7226562499999716},{"name":"A3","midi":57,"time":154.47786458333098,"velocity":0.8031496062992126,"duration":0.4921874999999716},{"name":"E5","midi":76,"time":154.7252604166643,"velocity":0.8031496062992126,"duration":0.2447916666666572},{"name":"A5","midi":81,"time":154.9726562499976,"velocity":0.8031496062992126,"duration":0.4908854166666572},{"name":"C#4","midi":61,"time":154.9726562499976,"velocity":0.8031496062992126,"duration":0.24609375},{"name":"C#5","midi":73,"time":155.22135416666427,"velocity":0.8031496062992126,"duration":0.2447916666666572},{"name":"A3","midi":57,"time":155.22135416666427,"velocity":0.8031496062992126,"duration":0.2447916666666572},{"name":"B4","midi":71,"time":155.46874999999758,"velocity":0.8031496062992126,"duration":0.98046875},{"name":"E4","midi":64,"time":155.46874999999758,"velocity":0.8031496062992126,"duration":1.23828125},{"name":"D5","midi":74,"time":155.71614583333093,"velocity":0.8031496062992126,"duration":0.72265625},{"name":"A5","midi":81,"time":155.96354166666427,"velocity":0.8031496062992126,"duration":0.2447916666666572},{"name":"E3","midi":52,"time":155.96354166666427,"velocity":0.8031496062992126,"duration":0.4934895833333144},{"name":"G#5","midi":80,"time":156.21093749999758,"velocity":0.8031496062992126,"duration":0.4908854166666572},{"name":"C#5","midi":73,"time":156.45963541666424,"velocity":0.8031496062992126,"duration":1.4817708333332575},{"name":"A3","midi":57,"time":156.45963541666424,"velocity":0.8031496062992126,"duration":1.4817708333332575},{"name":"G#5","midi":80,"time":156.70703124999758,"velocity":0.8031496062992126,"duration":0.2447916666666572},{"name":"E4","midi":64,"time":156.70703124999758,"velocity":0.8031496062992126,"duration":0.2447916666666572},{"name":"F#5","midi":78,"time":156.9544270833309,"velocity":0.8031496062992126,"duration":0.2447916666666572},{"name":"F#4","midi":66,"time":156.9544270833309,"velocity":0.8031496062992126,"duration":0.2447916666666572},{"name":"E5","midi":76,"time":157.2018229166642,"velocity":0.8031496062992126,"duration":0.2447916666666572},{"name":"G#4","midi":68,"time":157.2018229166642,"velocity":0.8031496062992126,"duration":0.2447916666666572},{"name":"F#5","midi":78,"time":157.44921874999753,"velocity":0.8031496062992126,"duration":0.2447916666666572},{"name":"A4","midi":69,"time":157.44921874999753,"velocity":0.8031496062992126,"duration":0.7226562499999716},{"name":"A5","midi":81,"time":157.69661458333084,"velocity":0.8031496062992126,"duration":0.2447916666666572},{"name":"C#5","midi":73,"time":157.94401041666416,"velocity":0.8031496062992126,"duration":0.24609375},{"name":"A3","midi":57,"time":157.94401041666416,"velocity":0.8031496062992126,"duration":0.4908854166666572},{"name":"D#5","midi":75,"time":158.1927083333308,"velocity":0.8031496062992126,"duration":0.2447916666666572},{"name":"G#4","midi":68,"time":158.1927083333308,"velocity":0.8031496062992126,"duration":0.2447916666666572},{"name":"E5","midi":76,"time":158.44010416666413,"velocity":0.8031496062992126,"duration":0.9791666666666856},{"name":"A#3","midi":58,"time":158.44010416666413,"velocity":0.8031496062992126,"duration":1.234375},{"name":"C#5","midi":73,"time":158.68749999999747,"velocity":0.8031496062992126,"duration":1.7265624999999432},{"name":"A#4","midi":70,"time":158.9348958333308,"velocity":0.8031496062992126,"duration":1.4817708333332575},{"name":"F#4","midi":66,"time":159.18229166666416,"velocity":0.8031496062992126,"duration":4.123697916666487},{"name":"E5","midi":76,"time":159.42968749999747,"velocity":0.8031496062992126,"duration":0.739583333333286},{"name":"F#3","midi":54,"time":159.67708333333078,"velocity":0.8031496062992126,"duration":0.2447916666666572},{"name":"G#3","midi":56,"time":159.9244791666641,"velocity":0.8031496062992126,"duration":0.2447916666666572},{"name":"F#5","midi":78,"time":160.1718749999974,"velocity":0.8031496062992126,"duration":0.2447916666666572},{"name":"A#3","midi":58,"time":160.1718749999974,"velocity":0.8031496062992126,"duration":0.2447916666666572},{"name":"D#5","midi":75,"time":160.41927083333073,"velocity":0.8031496062992126,"duration":2.9648437499999147},{"name":"B3","midi":59,"time":160.41927083333073,"velocity":0.8031496062992126,"duration":1.2343749999999432},{"name":"C#5","midi":73,"time":160.66666666666407,"velocity":0.8031496062992126,"duration":0.2447916666666572},{"name":"B4","midi":71,"time":160.91406249999739,"velocity":0.8031496062992126,"duration":0.2447916666666572},{"name":"A#4","midi":70,"time":161.1614583333307,"velocity":0.8031496062992126,"duration":0.2447916666666572},{"name":"B4","midi":71,"time":161.408854166664,"velocity":0.8031496062992126,"duration":1.977864583333286},{"name":"C#4","midi":61,"time":161.65624999999733,"velocity":0.8031496062992126,"duration":0.2447916666666572},{"name":"F#3","midi":54,"time":161.90364583333064,"velocity":0.8031496062992126,"duration":0.2447916666666572},{"name":"G#3","midi":56,"time":162.15104166666396,"velocity":0.8031496062992126,"duration":0.2447916666666572},{"name":"A3","midi":57,"time":162.39843749999727,"velocity":0.8031496062992126,"duration":0.9804687500000284},{"name":"F#3","midi":54,"time":162.64583333333061,"velocity":0.8031496062992126,"duration":0.7226562500000284},{"name":"D#3","midi":51,"time":162.89322916666396,"velocity":0.8031496062992126,"duration":0.4908854166666856},{"name":"B2","midi":47,"time":163.1406249999973,"velocity":0.8031496062992126,"duration":0.24609375},{"name":"B4","midi":71,"time":163.38932291666396,"velocity":0.8031496062992126,"duration":1.2382812499999716},{"name":"D5","midi":74,"time":163.38932291666396,"velocity":0.8031496062992126,"duration":0.12109375},{"name":"G#3","midi":56,"time":163.38932291666396,"velocity":0.8031496062992126,"duration":0.9804687499999716},{"name":"C#5","midi":73,"time":163.51302083333061,"velocity":0.8031496062992126,"duration":0.12109375},{"name":"D5","midi":74,"time":163.63671874999727,"velocity":0.8031496062992126,"duration":0.4921875},{"name":"B3","midi":59,"time":163.63671874999727,"velocity":0.8031496062992126,"duration":0.72265625},{"name":"E4","midi":64,"time":163.88411458333061,"velocity":0.8031496062992126,"duration":1.4830729166666003},{"name":"E5","midi":76,"time":164.13151041666393,"velocity":0.8031496062992126,"duration":0.24609375},{"name":"C#5","midi":73,"time":164.3802083333306,"velocity":0.8031496062992126,"duration":0.9791666666666288},{"name":"A3","midi":57,"time":164.3802083333306,"velocity":0.8031496062992126,"duration":0.4921875},{"name":"B4","midi":71,"time":164.62760416666393,"velocity":0.8031496062992126,"duration":0.2447916666666572},{"name":"A4","midi":69,"time":164.87499999999724,"velocity":0.8031496062992126,"duration":0.2447916666666572},{"name":"G#3","midi":56,"time":164.87499999999724,"velocity":0.8031496062992126,"duration":0.4921874999999716},{"name":"G#4","midi":68,"time":165.12239583333056,"velocity":0.8031496062992126,"duration":0.2447916666666572},{"name":"A4","midi":69,"time":165.36979166666387,"velocity":0.8031496062992126,"duration":0.2447916666666572},{"name":"F#3","midi":54,"time":165.36979166666387,"velocity":0.8031496062992126,"duration":0.4921874999999716},{"name":"C#5","midi":73,"time":165.6171874999972,"velocity":0.8031496062992126,"duration":0.2447916666666572},{"name":"F#4","midi":66,"time":165.8645833333305,"velocity":0.8031496062992126,"duration":0.2447916666666572},{"name":"E3","midi":52,"time":165.8645833333305,"velocity":0.8031496062992126,"duration":0.4921874999999716},{"name":"G#4","midi":68,"time":166.11197916666382,"velocity":0.8031496062992126,"duration":0.2447916666666572},{"name":"A4","midi":69,"time":166.35937499999713,"velocity":0.8031496062992126,"duration":0.98046875},{"name":"D#3","midi":51,"time":166.35937499999713,"velocity":0.8031496062992126,"duration":0.4921875},{"name":"F#4","midi":66,"time":166.60677083333047,"velocity":0.8031496062992126,"duration":0.72265625},{"name":"D#4","midi":63,"time":166.8541666666638,"velocity":0.8031496062992126,"duration":0.4908854166666856},{"name":"B2","midi":47,"time":166.8541666666638,"velocity":0.8031496062992126,"duration":0.4934895833333428},{"name":"B3","midi":59,"time":167.10156249999713,"velocity":0.8031496062992126,"duration":0.24609375},{"name":"G#4","midi":68,"time":167.3502604166638,"velocity":0.8031496062992126,"duration":0.72265625},{"name":"E3","midi":52,"time":167.3502604166638,"velocity":0.8031496062992126,"duration":1.23828125},{"name":"B3","midi":59,"time":167.59765624999713,"velocity":0.8031496062992126,"duration":0.2447916666666572},{"name":"E4","midi":64,"time":167.84505208333044,"velocity":0.8031496062992126,"duration":0.4908854166666856},{"name":"E2","midi":40,"time":167.84505208333044,"velocity":0.8031496062992126,"duration":0.4934895833333428},{"name":"G#4","midi":68,"time":168.09374999999713,"velocity":0.8031496062992126,"duration":0.4895833333333144},{"name":"C#4","midi":61,"time":168.34114583333044,"velocity":0.8031496062992126,"duration":1.4817708333332575},{"name":"A2","midi":45,"time":168.34114583333044,"velocity":0.8031496062992126,"duration":1.4817708333332575},{"name":"G#4","midi":68,"time":168.5885416666638,"velocity":0.8031496062992126,"duration":0.2447916666666572},{"name":"E3","midi":52,"time":168.5885416666638,"velocity":0.8031496062992126,"duration":0.2447916666666572},{"name":"F#4","midi":66,"time":168.8359374999971,"velocity":0.8031496062992126,"duration":0.2447916666666572},{"name":"F#3","midi":54,"time":168.8359374999971,"velocity":0.8031496062992126,"duration":0.2447916666666572},{"name":"E4","midi":64,"time":169.08333333333042,"velocity":0.8031496062992126,"duration":0.2447916666666572},{"name":"G#3","midi":56,"time":169.08333333333042,"velocity":0.8031496062992126,"duration":0.2447916666666572},{"name":"F#4","midi":66,"time":169.33072916666373,"velocity":0.8031496062992126,"duration":0.2447916666666572},{"name":"A3","midi":57,"time":169.33072916666373,"velocity":0.8031496062992126,"duration":0.7226562499999716},{"name":"A4","midi":69,"time":169.57812499999704,"velocity":0.8031496062992126,"duration":0.2447916666666572},{"name":"C#4","midi":61,"time":169.82552083333036,"velocity":0.8031496062992126,"duration":0.24609375},{"name":"A2","midi":45,"time":169.82552083333036,"velocity":0.8031496062992126,"duration":0.4934895833333144},{"name":"B3","midi":59,"time":170.07421874999702,"velocity":0.8031496062992126,"duration":0.2447916666666572},{"name":"D#4","midi":63,"time":170.07421874999702,"velocity":0.8031496062992126,"duration":0.2447916666666572},{"name":"E4","midi":64,"time":170.32161458333033,"velocity":0.8031496062992126,"duration":0.9791666666666856},{"name":"A#2","midi":46,"time":170.32161458333033,"velocity":0.8031496062992126,"duration":1.234375},{"name":"C#4","midi":61,"time":170.56901041666367,"velocity":0.8031496062992126,"duration":1.7265624999999432},{"name":"A#3","midi":58,"time":170.81640624999702,"velocity":0.8031496062992126,"duration":1.4817708333332575},{"name":"F#3","midi":54,"time":171.06380208333036,"velocity":0.8031496062992126,"duration":1.236979166666572},{"name":"E4","midi":64,"time":171.31119791666367,"velocity":0.8031496062992126,"duration":0.739583333333286},{"name":"F#2","midi":42,"time":171.558593749997,"velocity":0.8031496062992126,"duration":0.2447916666666572},{"name":"G#2","midi":44,"time":171.8059895833303,"velocity":0.8031496062992126,"duration":0.2447916666666572},{"name":"F#4","midi":66,"time":172.05338541666362,"velocity":0.8031496062992126,"duration":0.2447916666666572},{"name":"A#2","midi":46,"time":172.05338541666362,"velocity":0.8031496062992126,"duration":0.2447916666666572},{"name":"E4","midi":64,"time":172.30078124999693,"velocity":0.8031496062992126,"duration":0.1653645833333428},{"name":"B1","midi":35,"time":172.30078124999693,"velocity":0.8031496062992126,"duration":0.24479166666668561},{"name":"D#4","midi":63,"time":172.46614583333027,"velocity":0.8031496062992126,"duration":0.07942708333334281},{"name":"E4","midi":64,"time":172.54817708333027,"velocity":0.8031496062992126,"duration":0.07942708333334281},{"name":"B2","midi":47,"time":172.54817708333027,"velocity":0.8031496062992126,"duration":8.247395833332973},{"name":"D#4","midi":63,"time":172.63020833333027,"velocity":0.8031496062992126,"duration":0.07942708333334281},{"name":"E4","midi":64,"time":172.71223958333027,"velocity":0.8031496062992126,"duration":0.07942708333334281},{"name":"D#4","midi":63,"time":172.79427083333027,"velocity":0.8031496062992126,"duration":0.4921875},{"name":"D#3","midi":51,"time":172.79427083333027,"velocity":0.8031496062992126,"duration":1.481770833333286},{"name":"F#3","midi":54,"time":173.04166666666362,"velocity":0.8031496062992126,"duration":1.2343749999999432},{"name":"B3","midi":59,"time":173.28906249999693,"velocity":0.8031496062992126,"duration":0.9791666666666288},{"name":"D#4","midi":63,"time":173.53645833333027,"velocity":0.8031496062992126,"duration":0.2447916666666572},{"name":"F#4","midi":66,"time":173.7838541666636,"velocity":0.8031496062992126,"duration":0.2447916666666572},{"name":"B4","midi":71,"time":174.0312499999969,"velocity":0.8031496062992126,"duration":0.4895833333333144},{"name":"C#4","midi":61,"time":174.27864583333022,"velocity":0.8031496062992126,"duration":1.9765624999998863},{"name":"E3","midi":52,"time":174.27864583333022,"velocity":0.8031496062992126,"duration":1.9765624999998863},{"name":"B4","midi":71,"time":174.52604166666356,"velocity":0.8031496062992126,"duration":0.2447916666666572},{"name":"A#4","midi":70,"time":174.77343749999687,"velocity":0.8031496062992126,"duration":0.2447916666666572},{"name":"G#4","midi":68,"time":175.0208333333302,"velocity":0.8031496062992126,"duration":0.2447916666666572},{"name":"A#4","midi":70,"time":175.2682291666635,"velocity":0.8031496062992126,"duration":0.2447916666666572},{"name":"C#5","midi":73,"time":175.51562499999682,"velocity":0.8031496062992126,"duration":0.2447916666666572},{"name":"F#4","midi":66,"time":175.76302083333013,"velocity":0.8031496062992126,"duration":0.2447916666666572},{"name":"G#4","midi":68,"time":176.01041666666345,"velocity":0.8031496062992126,"duration":0.2447916666666572},{"name":"A4","midi":69,"time":176.25781249999676,"velocity":0.8031496062992126,"duration":1.4817708333333144},{"name":"F#3","midi":54,"time":176.25781249999676,"velocity":0.8031496062992126,"duration":0.9869791666666856},{"name":"F#4","midi":66,"time":176.5052083333301,"velocity":0.8031496062992126,"duration":1.2369791666666288},{"name":"D#4","midi":63,"time":176.75260416666345,"velocity":0.8031496062992126,"duration":0.3606770833333428},{"name":"B3","midi":59,"time":176.9999999999968,"velocity":0.8031496062992126,"duration":0.4921874999999716},{"name":"G#3","midi":56,"time":177.2473958333301,"velocity":0.8031496062992126,"duration":0.739583333333286},{"name":"B3","midi":59,"time":177.49479166666342,"velocity":0.8031496062992126,"duration":0.7226562499999716},{"name":"G#4","midi":68,"time":177.74218749999673,"velocity":0.8031496062992126,"duration":0.4934895833333144},{"name":"E4","midi":64,"time":177.74218749999673,"velocity":0.8031496062992126,"duration":0.7239583333333144},{"name":"A#3","midi":58,"time":177.98958333333005,"velocity":0.8031496062992126,"duration":0.24609375},{"name":"F#4","midi":66,"time":178.2382812499967,"velocity":0.8031496062992126,"duration":3.4049479166665435},{"name":"B3","midi":59,"time":178.2382812499967,"velocity":0.8031496062992126,"duration":1.235677083333286},{"name":"E4","midi":64,"time":178.4869791666634,"velocity":0.8031496062992126,"duration":0.2447916666666572},{"name":"D#4","midi":63,"time":178.7343749999967,"velocity":0.8031496062992126,"duration":0.2447916666666572},{"name":"C#4","midi":61,"time":178.98177083333002,"velocity":0.8031496062992126,"duration":0.2447916666666572},{"name":"D#4","midi":63,"time":179.22916666666333,"velocity":0.8031496062992126,"duration":2.2252604166666003},{"name":"C#4","midi":61,"time":179.47656249999665,"velocity":0.8031496062992126,"duration":0.2447916666666572},{"name":"F#3","midi":54,"time":179.72395833332996,"velocity":0.8031496062992126,"duration":0.2447916666666572},{"name":"G#3","midi":56,"time":179.97135416666328,"velocity":0.8031496062992126,"duration":0.2447916666666572},{"name":"A3","midi":57,"time":180.2187499999966,"velocity":0.8031496062992126,"duration":0.2447916666666572},{"name":"F#3","midi":54,"time":180.4661458333299,"velocity":0.8031496062992126,"duration":0.7226562500000284},{"name":"D#3","midi":51,"time":180.71354166666325,"velocity":0.8031496062992126,"duration":0.4908854166666856},{"name":"B2","midi":47,"time":180.9609374999966,"velocity":0.8031496062992126,"duration":3.0937499999998863},{"name":"G#3","midi":56,"time":181.20963541666328,"velocity":0.8031496062992126,"duration":0.4934895833333144},{"name":"B3","midi":59,"time":181.4570312499966,"velocity":0.8031496062992126,"duration":0.4908854166666572},{"name":"E4","midi":64,"time":181.70572916666325,"velocity":0.8031496062992126,"duration":0.59765625},{"name":"G3","midi":55,"time":181.70572916666325,"velocity":0.8031496062992126,"duration":0.4921875},{"name":"A#3","midi":58,"time":181.9531249999966,"velocity":0.8031496062992126,"duration":0.2447916666666572},{"name":"B3","midi":59,"time":182.2005208333299,"velocity":0.8031496062992126,"duration":2.2148437499999147},{"name":"F#3","midi":54,"time":182.2005208333299,"velocity":0.8031496062992126,"duration":0.4921874999999716},{"name":"F#4","midi":66,"time":182.3450520833299,"velocity":0.8031496062992126,"duration":0.12109375},{"name":"G#4","midi":68,"time":182.46874999999656,"velocity":0.8031496062992126,"duration":0.12109375},{"name":"A4","midi":69,"time":182.59244791666322,"velocity":0.8031496062992126,"duration":0.12109375},{"name":"E3","midi":52,"time":182.71614583332988,"velocity":0.8031496062992126,"duration":0.4921874999999716},{"name":"G#4","midi":68,"time":182.71614583332988,"velocity":0.8031496062992126,"duration":0.12109375},{"name":"F#4","midi":66,"time":182.83984374999653,"velocity":0.8031496062992126,"duration":0.12109375},{"name":"G#4","midi":68,"time":182.9635416666632,"velocity":0.8031496062992126,"duration":0.12109375},{"name":"A4","midi":69,"time":183.08723958332985,"velocity":0.8031496062992126,"duration":0.12109375},{"name":"F#3","midi":54,"time":183.2109374999965,"velocity":0.8031496062992126,"duration":0.2447916666666572},{"name":"E4","midi":64,"time":183.2109374999965,"velocity":0.8031496062992126,"duration":0.1627604166666572},{"name":"D#4","midi":63,"time":183.37630208332982,"velocity":0.8031496062992126,"duration":0.07942708333334281},{"name":"G#3","midi":56,"time":183.45833333332982,"velocity":0.8031496062992126,"duration":0.2434895833333428},{"name":"E4","midi":64,"time":183.45833333332982,"velocity":0.8031496062992126,"duration":0.07942708333334281},{"name":"D#4","midi":63,"time":183.54036458332982,"velocity":0.8031496062992126,"duration":0.07942708333334281},{"name":"E4","midi":64,"time":183.62239583332982,"velocity":0.8031496062992126,"duration":0.07942708333334281},{"name":"A3","midi":57,"time":183.70442708332982,"velocity":0.8031496062992126,"duration":0.9791666666666572},{"name":"D#4","midi":63,"time":183.70442708332982,"velocity":0.8031496062992126,"duration":0.2447916666666572},{"name":"E4","midi":64,"time":183.95182291666313,"velocity":0.8031496062992126,"duration":0.24479166666668561},{"name":"E3","midi":52,"time":184.19921874999648,"velocity":0.8031496062992126,"duration":1.9765624999998863},{"name":"E4","midi":64,"time":184.19921874999648,"velocity":0.8031496062992126,"duration":1.7187499999999147},{"name":"B3","midi":59,"time":184.44661458332982,"velocity":0.8031496062992126,"duration":0.2447916666666572},{"name":"G#3","midi":56,"time":184.69401041666313,"velocity":0.8031496062992126,"duration":0.739583333333286},{"name":"C#4","midi":61,"time":184.69401041666313,"velocity":0.8031496062992126,"duration":0.2447916666666572},{"name":"D4","midi":62,"time":184.94140624999645,"velocity":0.8031496062992126,"duration":0.2447916666666572},{"name":"C#4","midi":61,"time":185.18880208332976,"velocity":0.8031496062992126,"duration":0.739583333333286},{"name":"A3","midi":57,"time":185.43619791666308,"velocity":0.8031496062992126,"duration":0.2447916666666572},{"name":"F#3","midi":54,"time":185.6835937499964,"velocity":0.8031496062992126,"duration":0.4921874999999716},{"name":"A3","midi":57,"time":185.9309895833297,"velocity":0.8031496062992126,"duration":0.2447916666666572},{"name":"D#4","midi":63,"time":185.9309895833297,"velocity":0.8031496062992126,"duration":0.2447916666666572},{"name":"C4","midi":60,"time":185.9309895833297,"velocity":0.8031496062992126,"duration":0.2447916666666572},{"name":"E3","midi":52,"time":186.17838541666302,"velocity":0.8031496062992126,"duration":0.9791666666666572},{"name":"G#3","midi":56,"time":186.17838541666302,"velocity":0.8031496062992126,"duration":1.7174479166666572},{"name":"B3","midi":59,"time":186.17838541666302,"velocity":0.8031496062992126,"duration":1.7174479166666572},{"name":"E4","midi":64,"time":186.17838541666302,"velocity":0.8031496062992126,"duration":1.7174479166666572},{"name":"E2","midi":40,"time":186.42578124999636,"velocity":0.8031496062992126,"duration":1.7291666666666572},{"name":"G#2","midi":44,"time":186.6731770833297,"velocity":0.8031496062992126,"duration":0.2447916666666572},{"name":"B2","midi":47,"time":186.92057291666302,"velocity":0.8031496062992126,"duration":1.21875},{"name":"E3","midi":52,"time":187.16796874999633,"velocity":0.8031496062992126,"duration":0.9817708333333428},{"name":"B4","midi":71,"time":187.91145833332968,"velocity":0.8031496062992126,"duration":0.24609375},{"name":"B4","midi":71,"time":188.16015624999633,"velocity":0.8031496062992126,"duration":1.4817708333333712},{"name":"E3","midi":52,"time":188.40755208332968,"velocity":0.8031496062992126,"duration":1.9778645833333428},{"name":"G#3","midi":56,"time":188.65494791666302,"velocity":0.8031496062992126,"duration":1.4830729166666856},{"name":"B3","midi":59,"time":188.90234374999636,"velocity":0.8031496062992126,"duration":1.23828125},{"name":"E4","midi":64,"time":189.1497395833297,"velocity":0.8031496062992126,"duration":0.98046875},{"name":"G#4","midi":68,"time":189.39713541666305,"velocity":0.8031496062992126,"duration":0.72265625},{"name":"B4","midi":71,"time":189.64453124999636,"velocity":0.8031496062992126,"duration":0.4908854166666856},{"name":"E5","midi":76,"time":189.8919270833297,"velocity":0.8031496062992126,"duration":0.24609375},{"name":"B4","midi":71,"time":190.14062499999636,"velocity":0.8031496062992126,"duration":0.1627604166666572},{"name":"F#4","midi":66,"time":190.14062499999636,"velocity":0.8031496062992126,"duration":2.7161458333332007},{"name":"C#4","midi":61,"time":190.14062499999636,"velocity":0.8031496062992126,"duration":2.9622395833332007},{"name":"A#4","midi":70,"time":190.30598958332968,"velocity":0.8031496062992126,"duration":0.07942708333334281},{"name":"G3","midi":55,"time":190.38802083332968,"velocity":0.8031496062992126,"duration":0.2434895833333428},{"name":"B4","midi":71,"time":190.38802083332968,"velocity":0.8031496062992126,"duration":0.07942708333334281},{"name":"A#4","midi":70,"time":190.47005208332968,"velocity":0.8031496062992126,"duration":0.07942708333334281},{"name":"B4","midi":71,"time":190.55208333332968,"velocity":0.8031496062992126,"duration":0.07942708333334281},{"name":"C#3","midi":49,"time":190.63411458332968,"velocity":0.8031496062992126,"duration":0.2434895833333428},{"name":"A#4","midi":70,"time":190.63411458332968,"velocity":0.8031496062992126,"duration":0.07942708333334281},{"name":"B4","midi":71,"time":190.71614583332968,"velocity":0.8031496062992126,"duration":0.07942708333334281},{"name":"A#4","midi":70,"time":190.79817708332968,"velocity":0.8031496062992126,"duration":1.4817708333332291},{"name":"E3","midi":52,"time":190.88020833332968,"velocity":0.8031496062992126,"duration":0.2447916666666572},{"name":"A#2","midi":46,"time":191.127604166663,"velocity":0.8031496062992126,"duration":0.2447916666666572},{"name":"C#3","midi":49,"time":191.3749999999963,"velocity":0.8031496062992126,"duration":0.2447916666666572},{"name":"F#2","midi":42,"time":191.62239583332962,"velocity":0.8031496062992126,"duration":0.2447916666666572},{"name":"E3","midi":52,"time":191.86979166666293,"velocity":0.8031496062992126,"duration":0.2447916666666572},{"name":"D3","midi":50,"time":192.11718749999625,"velocity":0.8031496062992126,"duration":1.4830729166666288},{"name":"F#3","midi":54,"time":192.36458333332956,"velocity":0.8031496062992126,"duration":0.72265625},{"name":"A#3","midi":58,"time":192.6119791666629,"velocity":0.8031496062992126,"duration":0.4908854166666572},{"name":"E4","midi":64,"time":192.85937499999622,"velocity":0.8031496062992126,"duration":0.24609375},{"name":"B3","midi":59,"time":193.10807291666288,"velocity":0.8031496062992126,"duration":1.4830729166666288},{"name":"D4","midi":62,"time":193.10807291666288,"velocity":0.8031496062992126,"duration":0.98046875},{"name":"F#4","midi":66,"time":193.35546874999622,"velocity":0.8031496062992126,"duration":0.72265625},{"name":"F#3","midi":54,"time":193.60286458332953,"velocity":0.8031496062992126,"duration":0.4934895833333428},{"name":"D3","midi":50,"time":193.60286458332953,"velocity":0.8031496062992126,"duration":0.4934895833333428},{"name":"B4","midi":71,"time":193.60286458332953,"velocity":0.8031496062992126,"duration":0.4908854166666856},{"name":"D5","midi":74,"time":193.85026041666288,"velocity":0.8031496062992126,"duration":0.24609375},{"name":"C#3","midi":49,"time":194.09895833332953,"velocity":0.8031496062992126,"duration":0.9791666666666003},{"name":"G3","midi":55,"time":194.09895833332953,"velocity":0.8031496062992126,"duration":0.4921874999999716},{"name":"E5","midi":76,"time":194.09895833332953,"velocity":0.8031496062992126,"duration":0.2447916666666572},{"name":"G5","midi":79,"time":194.34635416666285,"velocity":0.8031496062992126,"duration":0.2447916666666572},{"name":"E3","midi":52,"time":194.59374999999616,"velocity":0.8031496062992126,"duration":0.4921874999999716},{"name":"G3","midi":55,"time":194.59374999999616,"velocity":0.8031496062992126,"duration":0.4921874999999716},{"name":"C#5","midi":73,"time":194.59374999999616,"velocity":0.8031496062992126,"duration":0.2447916666666572},{"name":"E5","midi":76,"time":194.84114583332948,"velocity":0.8031496062992126,"duration":0.2447916666666572},{"name":"F#3","midi":54,"time":195.0885416666628,"velocity":0.8031496062992126,"duration":0.9791666666666288},{"name":"A#4","midi":70,"time":195.0885416666628,"velocity":0.8031496062992126,"duration":0.2447916666666572},{"name":"C#5","midi":73,"time":195.3359374999961,"velocity":0.8031496062992126,"duration":0.2447916666666572},{"name":"F#2","midi":42,"time":195.58333333332942,"velocity":0.8031496062992126,"duration":0.4921875},{"name":"F#4","midi":66,"time":195.58333333332942,"velocity":0.8031496062992126,"duration":0.72265625},{"name":"E5","midi":76,"time":195.83072916666276,"velocity":0.8031496062992126,"duration":0.2447916666666572},{"name":"B2","midi":47,"time":196.07812499999608,"velocity":0.8031496062992126,"duration":2.2252604166666003},{"name":"D5","midi":74,"time":196.07812499999608,"velocity":0.8031496062992126,"duration":0.9804687499999716},{"name":"F#4","midi":66,"time":196.32682291666276,"velocity":0.8031496062992126,"duration":0.2447916666666572},{"name":"G#4","midi":68,"time":196.57421874999608,"velocity":0.8031496062992126,"duration":0.2447916666666572},{"name":"A#4","midi":70,"time":196.8216145833294,"velocity":0.8031496062992126,"duration":0.2447916666666572},{"name":"B4","midi":71,"time":197.0690104166627,"velocity":0.8031496062992126,"duration":0.7408854166666572},{"name":"D5","midi":74,"time":197.31640624999605,"velocity":0.8031496062992126,"duration":0.2447916666666572},{"name":"G4","midi":67,"time":197.56380208332936,"velocity":0.8031496062992126,"duration":0.4895833333333428},{"name":"B4","midi":71,"time":197.8111979166627,"velocity":0.8031496062992126,"duration":0.2447916666666572},{"name":"F4","midi":65,"time":198.05859374999602,"velocity":0.8031496062992126,"duration":1.976562499999858},{"name":"C#5","midi":73,"time":198.05859374999602,"velocity":0.8031496062992126,"duration":2.9648437499998863},{"name":"G#4","midi":68,"time":198.05859374999602,"velocity":0.8031496062992126,"duration":1.976562499999858},{"name":"D3","midi":50,"time":198.30598958332934,"velocity":0.8031496062992126,"duration":0.2447916666666572},{"name":"G#2","midi":44,"time":198.55338541666265,"velocity":0.8031496062992126,"duration":0.2447916666666572},{"name":"B2","midi":47,"time":198.80078124999596,"velocity":0.8031496062992126,"duration":0.2447916666666572},{"name":"F2","midi":41,"time":199.04817708332928,"velocity":0.8031496062992126,"duration":0.2447916666666572},{"name":"G#2","midi":44,"time":199.2955729166626,"velocity":0.8031496062992126,"duration":0.2447916666666572},{"name":"C#2","midi":37,"time":199.5429687499959,"velocity":0.8031496062992126,"duration":0.2447916666666572},{"name":"B2","midi":47,"time":199.79036458332922,"velocity":0.8031496062992126,"duration":0.2447916666666572},{"name":"A2","midi":45,"time":200.03776041666254,"velocity":0.8031496062992126,"duration":1.4830729166666856},{"name":"A4","midi":69,"time":200.03776041666254,"velocity":0.8031496062992126,"duration":0.9882812500000284},{"name":"F#4","midi":66,"time":200.03776041666254,"velocity":0.8031496062992126,"duration":0.9882812500000284},{"name":"C#3","midi":49,"time":200.28515624999588,"velocity":0.8031496062992126,"duration":0.7226562500000284},{"name":"F#3","midi":54,"time":200.53255208332922,"velocity":0.8031496062992126,"duration":0.4908854166666856},{"name":"A3","midi":57,"time":200.77994791666256,"velocity":0.8031496062992126,"duration":0.24609375},{"name":"D#3","midi":51,"time":201.02864583332922,"velocity":0.8031496062992126,"duration":0.4921875},{"name":"B3","midi":59,"time":201.02864583332922,"velocity":0.8031496062992126,"duration":0.98046875},{"name":"D#4","midi":63,"time":201.27604166666256,"velocity":0.8031496062992126,"duration":0.72265625},{"name":"A2","midi":45,"time":201.52343749999588,"velocity":0.8031496062992126,"duration":0.4934895833333428},{"name":"F#4","midi":66,"time":201.52343749999588,"velocity":0.8031496062992126,"duration":0.4908854166666856},{"name":"B4","midi":71,"time":201.77083333332922,"velocity":0.8031496062992126,"duration":0.4908854166666572},{"name":"G#2","midi":44,"time":202.01953124999588,"velocity":0.8031496062992126,"duration":0.2447916666666572},{"name":"F4","midi":65,"time":202.01953124999588,"velocity":0.8031496062992126,"duration":0.4895833333333144},{"name":"C#3","midi":49,"time":202.2669270833292,"velocity":0.8031496062992126,"duration":0.2447916666666572},{"name":"G#4","midi":68,"time":202.2669270833292,"velocity":0.8031496062992126,"duration":0.2447916666666572},{"name":"D#3","midi":51,"time":202.5143229166625,"velocity":0.8031496062992126,"duration":0.2447916666666572},{"name":"C#5","midi":73,"time":202.5143229166625,"velocity":0.8031496062992126,"duration":0.2447916666666572},{"name":"F3","midi":53,"time":202.76171874999582,"velocity":0.8031496062992126,"duration":0.2447916666666572},{"name":"B4","midi":71,"time":202.76171874999582,"velocity":0.8031496062992126,"duration":0.2447916666666572},{"name":"F#3","midi":54,"time":203.00911458332914,"velocity":0.8031496062992126,"duration":0.2447916666666572},{"name":"A4","midi":69,"time":203.00911458332914,"velocity":0.8031496062992126,"duration":0.4895833333333144},{"name":"F3","midi":53,"time":203.25651041666245,"velocity":0.8031496062992126,"duration":0.2447916666666572},{"name":"F#4","midi":66,"time":203.25651041666245,"velocity":0.8031496062992126,"duration":0.4895833333333144},{"name":"F#3","midi":54,"time":203.50390624999577,"velocity":0.8031496062992126,"duration":0.2447916666666572},{"name":"D5","midi":74,"time":203.50390624999577,"velocity":0.8031496062992126,"duration":0.4895833333333144},{"name":"G#3","midi":56,"time":203.75130208332908,"velocity":0.8031496062992126,"duration":0.2447916666666572},{"name":"F4","midi":65,"time":203.75130208332908,"velocity":0.8031496062992126,"duration":0.2447916666666572},{"name":"A3","midi":57,"time":203.9986979166624,"velocity":0.8031496062992126,"duration":0.2447916666666572},{"name":"C#5","midi":73,"time":203.9986979166624,"velocity":0.8031496062992126,"duration":0.7226562499999716},{"name":"G#3","midi":56,"time":204.2460937499957,"velocity":0.8031496062992126,"duration":0.2447916666666572},{"name":"F4","midi":65,"time":204.2460937499957,"velocity":0.8031496062992126,"duration":0.2447916666666572},{"name":"A3","midi":57,"time":204.49348958332902,"velocity":0.8031496062992126,"duration":0.24609375},{"name":"F#4","midi":66,"time":204.49348958332902,"velocity":0.8031496062992126,"duration":0.7239583333333144},{"name":"B3","midi":59,"time":204.74218749999568,"velocity":0.8031496062992126,"duration":0.2447916666666572},{"name":"G#4","midi":68,"time":204.74218749999568,"velocity":0.8031496062992126,"duration":0.2447916666666572},{"name":"C#4","midi":61,"time":204.989583333329,"velocity":0.8031496062992126,"duration":0.4934895833333428},{"name":"A4","midi":69,"time":204.989583333329,"velocity":0.8031496062992126,"duration":0.4908854166666856},{"name":"F#4","midi":66,"time":205.23828124999568,"velocity":0.8031496062992126,"duration":0.4895833333333144},{"name":"C#3","midi":49,"time":205.485677083329,"velocity":0.8031496062992126,"duration":0.4921875},{"name":"G#4","midi":68,"time":205.485677083329,"velocity":0.8031496062992126,"duration":0.4895833333333428},{"name":"F4","midi":65,"time":205.73307291666234,"velocity":0.8031496062992126,"duration":0.2447916666666572},{"name":"F#3","midi":54,"time":205.98046874999565,"velocity":0.8031496062992126,"duration":0.9791666666666572},{"name":"F#4","midi":66,"time":205.98046874999565,"velocity":0.8031496062992126,"duration":0.296875},{"name":"A3","midi":57,"time":206.235677083329,"velocity":0.8031496062992126,"duration":0.2447916666666572},{"name":"C#5","midi":73,"time":206.235677083329,"velocity":0.8031496062992126,"duration":0.2447916666666572},{"name":"F#5","midi":78,"time":206.49609374999565,"velocity":0.8031496062992126,"duration":0.2447916666666572},{"name":"C#4","midi":61,"time":206.49609374999565,"velocity":0.8031496062992126,"duration":0.2447916666666572},{"name":"G#5","midi":80,"time":206.74348958332897,"velocity":0.8031496062992126,"duration":0.24479166666668561},{"name":"F4","midi":65,"time":206.74348958332897,"velocity":0.8031496062992126,"duration":0.24479166666668561},{"name":"A5","midi":81,"time":206.9908854166623,"velocity":0.8031496062992126,"duration":0.12109375},{"name":"F#4","midi":66,"time":206.9908854166623,"velocity":0.8031496062992126,"duration":0.2447916666666572},{"name":"G#5","midi":80,"time":207.11458333332897,"velocity":0.8031496062992126,"duration":0.12109375},{"name":"A5","midi":81,"time":207.23828124999562,"velocity":0.8031496062992126,"duration":0.4921874999999716},{"name":"A4","midi":69,"time":207.23828124999562,"velocity":0.8031496062992126,"duration":0.2447916666666572},{"name":"D4","midi":62,"time":207.48567708332894,"velocity":0.8031496062992126,"duration":0.2447916666666572},{"name":"F#3","midi":54,"time":207.48567708332894,"velocity":0.8031496062992126,"duration":0.4895833333333144},{"name":"A5","midi":81,"time":207.73307291666225,"velocity":0.8031496062992126,"duration":0.2447916666666572},{"name":"F#4","midi":66,"time":207.73307291666225,"velocity":0.8031496062992126,"duration":0.2447916666666572},{"name":"A5","midi":81,"time":207.98046874999557,"velocity":0.8031496062992126,"duration":0.2447916666666572},{"name":"G#3","midi":56,"time":207.98046874999557,"velocity":0.8031496062992126,"duration":1.2343749999999147},{"name":"C4","midi":60,"time":207.98046874999557,"velocity":0.8031496062992126,"duration":0.9791666666666003},{"name":"F#5","midi":78,"time":208.22786458332888,"velocity":0.8031496062992126,"duration":0.2447916666666572},{"name":"D#5","midi":75,"time":208.4752604166622,"velocity":0.8031496062992126,"duration":0.2447916666666572},{"name":"F#5","midi":78,"time":208.7226562499955,"velocity":0.8031496062992126,"duration":0.2447916666666572},{"name":"C5","midi":72,"time":208.97005208332882,"velocity":0.8031496062992126,"duration":0.2447916666666572},{"name":"D#5","midi":75,"time":209.21744791666214,"velocity":0.8031496062992126,"duration":0.2447916666666572},{"name":"G#3","midi":56,"time":209.21744791666214,"velocity":0.8031496062992126,"duration":0.2447916666666572},{"name":"G#4","midi":68,"time":209.46484374999545,"velocity":0.8031496062992126,"duration":0.2447916666666572},{"name":"A#3","midi":58,"time":209.46484374999545,"velocity":0.8031496062992126,"duration":0.2447916666666572},{"name":"F#5","midi":78,"time":209.71223958332877,"velocity":0.8031496062992126,"duration":0.2447916666666572},{"name":"C4","midi":60,"time":209.71223958332877,"velocity":0.8031496062992126,"duration":0.2447916666666572},{"name":"E5","midi":76,"time":209.95963541666208,"velocity":0.8031496062992126,"duration":1.236979166666572},{"name":"C#4","midi":61,"time":209.95963541666208,"velocity":0.8031496062992126,"duration":0.2447916666666572},{"name":"D#5","midi":75,"time":210.2070312499954,"velocity":0.8031496062992126,"duration":0.2447916666666572},{"name":"E4","midi":64,"time":210.2070312499954,"velocity":0.8031496062992126,"duration":0.2447916666666572},{"name":"C#5","midi":73,"time":210.4544270833287,"velocity":0.8031496062992126,"duration":0.2447916666666572},{"name":"A3","midi":57,"time":210.4544270833287,"velocity":0.8031496062992126,"duration":0.2447916666666572},{"name":"B4","midi":71,"time":210.70182291666202,"velocity":0.8031496062992126,"duration":0.2447916666666572},{"name":"C#4","midi":61,"time":210.70182291666202,"velocity":0.8031496062992126,"duration":0.2447916666666572},{"name":"A4","midi":69,"time":210.94921874999534,"velocity":0.8031496062992126,"duration":1.2369791666666003},{"name":"F#3","midi":54,"time":210.94921874999534,"velocity":0.8031496062992126,"duration":0.2447916666666572},{"name":"E5","midi":76,"time":211.19661458332865,"velocity":0.8031496062992126,"duration":0.2447916666666572},{"name":"A3","midi":57,"time":211.19661458332865,"velocity":0.8031496062992126,"duration":0.2447916666666572},{"name":"D#5","midi":75,"time":211.44401041666197,"velocity":0.8031496062992126,"duration":0.2447916666666572},{"name":"D#3","midi":51,"time":211.44401041666197,"velocity":0.8031496062992126,"duration":0.2447916666666572},{"name":"C#5","midi":73,"time":211.69140624999528,"velocity":0.8031496062992126,"duration":0.2447916666666572},{"name":"F#3","midi":54,"time":211.69140624999528,"velocity":0.8031496062992126,"duration":0.2447916666666572},{"name":"C5","midi":72,"time":211.9388020833286,"velocity":0.8031496062992126,"duration":0.4895833333333428},{"name":"G#2","midi":44,"time":211.9388020833286,"velocity":0.8031496062992126,"duration":0.9791666666666288},{"name":"G#4","midi":68,"time":212.18619791666194,"velocity":0.8031496062992126,"duration":1.7174479166665435},{"name":"D#3","midi":51,"time":212.18619791666194,"velocity":0.8031496062992126,"duration":0.2447916666666572},{"name":"A#4","midi":70,"time":212.43359374999525,"velocity":0.8031496062992126,"duration":0.2447916666666572},{"name":"G#3","midi":56,"time":212.43359374999525,"velocity":0.8031496062992126,"duration":0.2447916666666572},{"name":"C5","midi":72,"time":212.68098958332857,"velocity":0.8031496062992126,"duration":0.2447916666666572},{"name":"F#3","midi":54,"time":212.68098958332857,"velocity":0.8031496062992126,"duration":0.2447916666666572},{"name":"C#5","midi":73,"time":212.92838541666188,"velocity":0.8031496062992126,"duration":0.2447916666666572},{"name":"E3","midi":52,"time":212.92838541666188,"velocity":0.8031496062992126,"duration":0.4895833333333144},{"name":"C5","midi":72,"time":213.1757812499952,"velocity":0.8031496062992126,"duration":0.2447916666666572},{"name":"C#4","midi":61,"time":213.1757812499952,"velocity":0.8031496062992126,"duration":0.4895833333333144},{"name":"C#5","midi":73,"time":213.4231770833285,"velocity":0.8031496062992126,"duration":0.2447916666666572},{"name":"D#3","midi":51,"time":213.4231770833285,"velocity":0.8031496062992126,"duration":0.49088541666662877},{"name":"D#5","midi":75,"time":213.67057291666183,"velocity":0.8031496062992126,"duration":0.24609374999997158},{"name":"C4","midi":60,"time":213.67057291666183,"velocity":0.8031496062992126,"duration":0.24609374999997158},{"name":"E5","midi":76,"time":213.91927083332845,"velocity":0.8031496062992126,"duration":0.2447916666666572},{"name":"C#3","midi":49,"time":213.91927083332845,"velocity":0.8031496062992126,"duration":0.2447916666666572},{"name":"F#5","midi":78,"time":214.16666666666177,"velocity":0.8031496062992126,"duration":0.2447916666666572},{"name":"D#3","midi":51,"time":214.16666666666177,"velocity":0.8031496062992126,"duration":0.2447916666666572},{"name":"G#5","midi":80,"time":214.41406249999508,"velocity":0.8031496062992126,"duration":0.2447916666666572},{"name":"E3","midi":52,"time":214.41406249999508,"velocity":0.8031496062992126,"duration":0.2447916666666572},{"name":"A5","midi":81,"time":214.6614583333284,"velocity":0.8031496062992126,"duration":0.2447916666666572},{"name":"F#3","midi":54,"time":214.6614583333284,"velocity":0.8031496062992126,"duration":0.2447916666666572},{"name":"E5","midi":76,"time":214.9088541666617,"velocity":0.8031496062992126,"duration":0.1627604166666572},{"name":"C5","midi":72,"time":214.9088541666617,"velocity":0.8031496062992126,"duration":0.977864583333286},{"name":"G#3","midi":56,"time":214.9088541666617,"velocity":0.8031496062992126,"duration":1.7226562499999716},{"name":"D#5","midi":75,"time":215.07421874999503,"velocity":0.8031496062992126,"duration":0.07942708333334281},{"name":"E5","midi":76,"time":215.15624999999503,"velocity":0.8031496062992126,"duration":0.07942708333334281},{"name":"D#5","midi":75,"time":215.23828124999503,"velocity":0.8031496062992126,"duration":0.07942708333334281},{"name":"E5","midi":76,"time":215.32031249999503,"velocity":0.8031496062992126,"duration":0.07942708333334281},{"name":"D#5","midi":75,"time":215.40234374999503,"velocity":0.8031496062992126,"duration":0.2447916666666572},{"name":"G#2","midi":44,"time":215.40234374999503,"velocity":0.8031496062992126,"duration":0.4921874999999716},{"name":"C#5","midi":73,"time":215.64973958332834,"velocity":0.8031496062992126,"duration":0.2447916666666572},{"name":"C#5","midi":73,"time":215.89713541666165,"velocity":0.8031496062992126,"duration":1.2369791666666572},{"name":"C#3","midi":49,"time":215.89713541666165,"velocity":0.8031496062992126,"duration":0.9791666666666856},{"name":"G#4","midi":68,"time":216.144531249995,"velocity":0.8031496062992126,"duration":0.9791666666666572},{"name":"E4","midi":64,"time":216.39192708332834,"velocity":0.8031496062992126,"duration":0.7213541666666572},{"name":"G#3","midi":56,"time":216.64583333332834,"velocity":0.8031496062992126,"duration":0.2447916666666572},{"name":"C#4","midi":61,"time":216.89973958332834,"velocity":0.8031496062992126,"duration":0.12109375},{"name":"C4","midi":60,"time":217.01432291666168,"velocity":0.8031496062992126,"duration":0.12109374999997158},{"name":"D5","midi":74,"time":217.1341145833283,"velocity":0.8031496062992126,"duration":0.24479166666668561},{"name":"C#4","midi":61,"time":217.1341145833283,"velocity":0.8031496062992126,"duration":0.4921875},{"name":"C#5","midi":73,"time":217.38151041666165,"velocity":0.8031496062992126,"duration":0.2447916666666572},{"name":"D5","midi":74,"time":217.62890624999497,"velocity":0.8031496062992126,"duration":0.2447916666666572},{"name":"B3","midi":59,"time":217.62890624999497,"velocity":0.8031496062992126,"duration":0.2447916666666572},{"name":"E5","midi":76,"time":217.87630208332828,"velocity":0.8031496062992126,"duration":0.2447916666666572},{"name":"A#3","midi":58,"time":217.87630208332828,"velocity":0.8031496062992126,"duration":0.2447916666666572},{"name":"G5","midi":79,"time":218.1236979166616,"velocity":0.8031496062992126,"duration":0.2447916666666572},{"name":"B3","midi":59,"time":218.1236979166616,"velocity":0.8031496062992126,"duration":0.2447916666666572},{"name":"C#5","midi":73,"time":218.3710937499949,"velocity":0.8031496062992126,"duration":0.2447916666666572},{"name":"A#3","midi":58,"time":218.3710937499949,"velocity":0.8031496062992126,"duration":0.2447916666666572},{"name":"E5","midi":76,"time":218.61848958332823,"velocity":0.8031496062992126,"duration":0.2447916666666572},{"name":"G#3","midi":56,"time":218.61848958332823,"velocity":0.8031496062992126,"duration":0.2447916666666572},{"name":"A#4","midi":70,"time":218.86588541666154,"velocity":0.8031496062992126,"duration":0.2447916666666572},{"name":"F#3","midi":54,"time":218.86588541666154,"velocity":0.8031496062992126,"duration":0.2447916666666572},{"name":"C#5","midi":73,"time":219.11328124999486,"velocity":0.8031496062992126,"duration":0.2447916666666572},{"name":"E3","midi":52,"time":219.11328124999486,"velocity":0.8031496062992126,"duration":0.2447916666666572},{"name":"F#4","midi":66,"time":219.36067708332817,"velocity":0.8031496062992126,"duration":0.2447916666666572},{"name":"D3","midi":50,"time":219.36067708332817,"velocity":0.8031496062992126,"duration":0.2447916666666572},{"name":"E5","midi":76,"time":219.60807291666148,"velocity":0.8031496062992126,"duration":0.2447916666666572},{"name":"C#3","midi":49,"time":219.60807291666148,"velocity":0.8031496062992126,"duration":0.2447916666666572},{"name":"D5","midi":74,"time":219.8554687499948,"velocity":0.8031496062992126,"duration":1.2369791666666572},{"name":"B2","midi":47,"time":219.8554687499948,"velocity":0.8031496062992126,"duration":0.9791666666666856},{"name":"B4","midi":71,"time":220.10286458332814,"velocity":0.8031496062992126,"duration":0.9791666666666572},{"name":"F#4","midi":66,"time":220.35026041666148,"velocity":0.8031496062992126,"duration":0.7395833333333144},{"name":"F#3","midi":54,"time":220.59765624999483,"velocity":0.8031496062992126,"duration":0.2447916666666572},{"name":"B3","midi":59,"time":220.84505208332814,"velocity":0.8031496062992126,"duration":0.12109375},{"name":"A#3","midi":58,"time":220.9687499999948,"velocity":0.8031496062992126,"duration":0.12109375},{"name":"C#5","midi":73,"time":221.09244791666146,"velocity":0.8031496062992126,"duration":0.2447916666666572},{"name":"B3","midi":59,"time":221.09244791666146,"velocity":0.8031496062992126,"duration":0.4921874999999716},{"name":"B4","midi":71,"time":221.33984374999477,"velocity":0.8031496062992126,"duration":0.2447916666666572},{"name":"C#5","midi":73,"time":221.58723958332808,"velocity":0.8031496062992126,"duration":0.2447916666666572},{"name":"A3","midi":57,"time":221.58723958332808,"velocity":0.8031496062992126,"duration":0.2447916666666572},{"name":"D5","midi":74,"time":221.8346354166614,"velocity":0.8031496062992126,"duration":0.2447916666666572},{"name":"G#3","midi":56,"time":221.8346354166614,"velocity":0.8031496062992126,"duration":0.2447916666666572},{"name":"E5","midi":76,"time":222.0820312499947,"velocity":0.8031496062992126,"duration":0.12109375},{"name":"A3","midi":57,"time":222.0820312499947,"velocity":0.8031496062992126,"duration":0.2447916666666572},{"name":"F#5","midi":78,"time":222.20572916666137,"velocity":0.8031496062992126,"duration":0.12109375},{"name":"B4","midi":71,"time":222.32942708332803,"velocity":0.8031496062992126,"duration":0.2447916666666572},{"name":"G#3","midi":56,"time":222.32942708332803,"velocity":0.8031496062992126,"duration":0.2447916666666572},{"name":"C#5","midi":73,"time":222.57682291666134,"velocity":0.8031496062992126,"duration":0.12109375},{"name":"F#3","midi":54,"time":222.57682291666134,"velocity":0.8031496062992126,"duration":0.2447916666666572},{"name":"D5","midi":74,"time":222.700520833328,"velocity":0.8031496062992126,"duration":0.12109375},{"name":"G#4","midi":68,"time":222.82421874999466,"velocity":0.8031496062992126,"duration":0.2447916666666572},{"name":"E3","midi":52,"time":222.82421874999466,"velocity":0.8031496062992126,"duration":0.2447916666666572},{"name":"A4","midi":69,"time":223.07161458332797,"velocity":0.8031496062992126,"duration":0.12109375},{"name":"D3","midi":50,"time":223.07161458332797,"velocity":0.8031496062992126,"duration":0.2447916666666572},{"name":"B4","midi":71,"time":223.19531249999463,"velocity":0.8031496062992126,"duration":0.12109375},{"name":"E4","midi":64,"time":223.31901041666129,"velocity":0.8031496062992126,"duration":0.2447916666666572},{"name":"C#3","midi":49,"time":223.31901041666129,"velocity":0.8031496062992126,"duration":0.2447916666666572},{"name":"D5","midi":74,"time":223.5664062499946,"velocity":0.8031496062992126,"duration":0.2447916666666572},{"name":"B2","midi":47,"time":223.5664062499946,"velocity":0.8031496062992126,"duration":0.2447916666666572},{"name":"C#5","midi":73,"time":223.81380208332791,"velocity":0.8031496062992126,"duration":1.2369791666666572},{"name":"A2","midi":45,"time":223.81380208332791,"velocity":0.8031496062992126,"duration":0.9791666666666856},{"name":"A4","midi":69,"time":224.06119791666126,"velocity":0.8031496062992126,"duration":0.9791666666666572},{"name":"E4","midi":64,"time":224.3085937499946,"velocity":0.8031496062992126,"duration":0.7395833333333144},{"name":"E3","midi":52,"time":224.55598958332794,"velocity":0.8031496062992126,"duration":0.2447916666666572},{"name":"A3","midi":57,"time":224.80338541666126,"velocity":0.8031496062992126,"duration":0.12109375},{"name":"G#3","midi":56,"time":224.92708333332791,"velocity":0.8031496062992126,"duration":0.12109375},{"name":"A4","midi":69,"time":225.05078124999457,"velocity":0.8031496062992126,"duration":0.2447916666666572},{"name":"A3","midi":57,"time":225.05078124999457,"velocity":0.8031496062992126,"duration":0.4921874999999716},{"name":"B4","midi":71,"time":225.2981770833279,"velocity":0.8031496062992126,"duration":0.2447916666666572},{"name":"C#5","midi":73,"time":225.5455729166612,"velocity":0.8031496062992126,"duration":0.2447916666666572},{"name":"G3","midi":55,"time":225.5455729166612,"velocity":0.8031496062992126,"duration":0.2447916666666572},{"name":"D5","midi":74,"time":225.79296874999451,"velocity":0.8031496062992126,"duration":0.2447916666666572},{"name":"F#3","midi":54,"time":225.79296874999451,"velocity":0.8031496062992126,"duration":0.2447916666666572},{"name":"E5","midi":76,"time":226.04036458332783,"velocity":0.8031496062992126,"duration":0.2447916666666572},{"name":"G3","midi":55,"time":226.04036458332783,"velocity":0.8031496062992126,"duration":0.2447916666666572},{"name":"D5","midi":74,"time":226.28776041666114,"velocity":0.8031496062992126,"duration":0.2447916666666572},{"name":"F#3","midi":54,"time":226.28776041666114,"velocity":0.8031496062992126,"duration":0.2447916666666572},{"name":"C#5","midi":73,"time":226.53515624999446,"velocity":0.8031496062992126,"duration":0.2447916666666572},{"name":"E3","midi":52,"time":226.53515624999446,"velocity":0.8031496062992126,"duration":0.2447916666666572},{"name":"B4","midi":71,"time":226.78255208332777,"velocity":0.8031496062992126,"duration":0.2447916666666572},{"name":"D3","midi":50,"time":226.78255208332777,"velocity":0.8031496062992126,"duration":0.2447916666666572},{"name":"A4","midi":69,"time":227.0299479166611,"velocity":0.8031496062992126,"duration":0.2447916666666572},{"name":"C#3","midi":49,"time":227.0299479166611,"velocity":0.8031496062992126,"duration":0.2447916666666572},{"name":"G#4","midi":68,"time":227.2773437499944,"velocity":0.8031496062992126,"duration":0.2447916666666572},{"name":"B2","midi":47,"time":227.2773437499944,"velocity":0.8031496062992126,"duration":0.2447916666666572},{"name":"A4","midi":69,"time":227.52473958332772,"velocity":0.8031496062992126,"duration":0.2447916666666572},{"name":"A2","midi":45,"time":227.52473958332772,"velocity":0.8031496062992126,"duration":0.2447916666666572},{"name":"A4","midi":69,"time":227.77213541666103,"velocity":0.8031496062992126,"duration":0.07942708333334281},{"name":"E3","midi":52,"time":227.77213541666103,"velocity":0.8031496062992126,"duration":0.7382812499999716},{"name":"G#4","midi":68,"time":227.85416666666103,"velocity":0.8031496062992126,"duration":0.07942708333334281},{"name":"A4","midi":69,"time":227.93619791666103,"velocity":0.8031496062992126,"duration":0.07942708333334281},{"name":"G#4","midi":68,"time":228.01822916666103,"velocity":0.8031496062992126,"duration":0.2447916666666572},{"name":"E4","midi":64,"time":228.26562499999434,"velocity":0.8031496062992126,"duration":0.2447916666666572},{"name":"B4","midi":71,"time":228.51302083332766,"velocity":0.8031496062992126,"duration":0.2447916666666572},{"name":"D3","midi":50,"time":228.51302083332766,"velocity":0.8031496062992126,"duration":0.2447916666666572},{"name":"E5","midi":76,"time":228.76041666666097,"velocity":0.8031496062992126,"duration":0.739583333333286},{"name":"C#3","midi":49,"time":228.76041666666097,"velocity":0.8031496062992126,"duration":0.2447916666666572},{"name":"A2","midi":45,"time":229.0078124999943,"velocity":0.8031496062992126,"duration":0.2447916666666572},{"name":"C#3","midi":49,"time":229.2552083333276,"velocity":0.8031496062992126,"duration":0.2447916666666572},{"name":"D5","midi":74,"time":229.50260416666092,"velocity":0.8031496062992126,"duration":0.2447916666666572},{"name":"E3","midi":52,"time":229.50260416666092,"velocity":0.8031496062992126,"duration":0.2447916666666572},{"name":"C#5","midi":73,"time":229.74999999999423,"velocity":0.8031496062992126,"duration":0.2447916666666572},{"name":"A3","midi":57,"time":229.74999999999423,"velocity":0.8031496062992126,"duration":0.739583333333286},{"name":"A4","midi":69,"time":229.99739583332754,"velocity":0.8031496062992126,"duration":0.2447916666666572},{"name":"C#5","midi":73,"time":230.24479166666086,"velocity":0.8031496062992126,"duration":0.2447916666666572},{"name":"E5","midi":76,"time":230.49218749999417,"velocity":0.8031496062992126,"duration":0.2447916666666572},{"name":"G3","midi":55,"time":230.49218749999417,"velocity":0.8031496062992126,"duration":0.2447916666666572},{"name":"A5","midi":81,"time":230.7395833333275,"velocity":0.8031496062992126,"duration":0.739583333333286},{"name":"F#3","midi":54,"time":230.7395833333275,"velocity":0.8031496062992126,"duration":0.2447916666666572},{"name":"D3","midi":50,"time":230.9869791666608,"velocity":0.8031496062992126,"duration":0.2447916666666572},{"name":"F#3","midi":54,"time":231.23437499999412,"velocity":0.8031496062992126,"duration":0.2447916666666572},{"name":"G5","midi":79,"time":231.48177083332743,"velocity":0.8031496062992126,"duration":0.2447916666666572},{"name":"A3","midi":57,"time":231.48177083332743,"velocity":0.8031496062992126,"duration":0.2447916666666572},{"name":"F#5","midi":78,"time":231.72916666666075,"velocity":0.8031496062992126,"duration":0.2447916666666572},{"name":"D4","midi":62,"time":231.72916666666075,"velocity":0.8031496062992126,"duration":0.4921874999999716},{"name":"A5","midi":81,"time":231.97656249999406,"velocity":0.8031496062992126,"duration":0.2447916666666572},{"name":"D5","midi":74,"time":232.22395833332737,"velocity":0.8031496062992126,"duration":0.2447916666666572},{"name":"C#4","midi":61,"time":232.22395833332737,"velocity":0.8031496062992126,"duration":0.4921874999999716},{"name":"E5","midi":76,"time":232.4713541666607,"velocity":0.8031496062992126,"duration":0.2447916666666572},{"name":"F#5","midi":78,"time":232.718749999994,"velocity":0.8031496062992126,"duration":0.2447916666666572},{"name":"B3","midi":59,"time":232.718749999994,"velocity":0.8031496062992126,"duration":0.4921874999999716},{"name":"D5","midi":74,"time":232.96614583332732,"velocity":0.8031496062992126,"duration":0.2447916666666572},{"name":"B4","midi":71,"time":233.21354166666063,"velocity":0.8031496062992126,"duration":0.2447916666666572},{"name":"A3","midi":57,"time":233.21354166666063,"velocity":0.8031496062992126,"duration":0.4921874999999716},{"name":"C#5","midi":73,"time":233.46093749999395,"velocity":0.8031496062992126,"duration":0.2447916666666572},{"name":"D5","midi":74,"time":233.70833333332726,"velocity":0.8031496062992126,"duration":0.2447916666666572},{"name":"B3","midi":59,"time":233.70833333332726,"velocity":0.8031496062992126,"duration":0.4921874999999716},{"name":"F#5","midi":78,"time":233.95572916666057,"velocity":0.8031496062992126,"duration":0.2447916666666572},{"name":"B4","midi":71,"time":234.2031249999939,"velocity":0.8031496062992126,"duration":0.2447916666666572},{"name":"A3","midi":57,"time":234.2031249999939,"velocity":0.8031496062992126,"duration":0.4921874999999716},{"name":"C#5","midi":73,"time":234.4505208333272,"velocity":0.8031496062992126,"duration":0.2447916666666572},{"name":"D5","midi":74,"time":234.69791666666052,"velocity":0.8031496062992126,"duration":0.2447916666666572},{"name":"G#3","midi":56,"time":234.69791666666052,"velocity":0.8031496062992126,"duration":0.4921874999999716},{"name":"B4","midi":71,"time":234.94531249999383,"velocity":0.8031496062992126,"duration":0.2447916666666572},{"name":"G#4","midi":68,"time":235.19270833332715,"velocity":0.8031496062992126,"duration":0.2447916666666572},{"name":"F#3","midi":54,"time":235.19270833332715,"velocity":0.8031496062992126,"duration":0.4921874999999716},{"name":"A4","midi":69,"time":235.44010416666046,"velocity":0.8031496062992126,"duration":0.2447916666666572},{"name":"A4","midi":69,"time":235.68749999999378,"velocity":0.8031496062992126,"duration":0.07942708333334281},{"name":"E3","midi":52,"time":235.68749999999378,"velocity":0.8031496062992126,"duration":8.505208333332945},{"name":"G#4","midi":68,"time":235.76953124999378,"velocity":0.8031496062992126,"duration":0.07942708333334281},{"name":"A4","midi":69,"time":235.85156249999378,"velocity":0.8031496062992126,"duration":0.07942708333334281},{"name":"G#4","midi":68,"time":235.93359374999378,"velocity":0.8031496062992126,"duration":0.3710937499999716},{"name":"F#3","midi":54,"time":235.93359374999378,"velocity":0.8031496062992126,"duration":0.2447916666666572},{"name":"G#3","midi":56,"time":236.1809895833271,"velocity":0.8031496062992126,"duration":1.4817708333332575},{"name":"F#4","midi":66,"time":236.4283854166604,"velocity":0.8031496062992126,"duration":0.2447916666666572},{"name":"B3","midi":59,"time":236.4283854166604,"velocity":0.8031496062992126,"duration":1.2369791666666003},{"name":"E4","midi":64,"time":236.67578124999372,"velocity":0.8031496062992126,"duration":0.9791666666666288},{"name":"G#4","midi":68,"time":236.92317708332706,"velocity":0.8031496062992126,"duration":0.2447916666666572},{"name":"B4","midi":71,"time":237.17057291666038,"velocity":0.8031496062992126,"duration":0.2447916666666572},{"name":"E5","midi":76,"time":237.4179687499937,"velocity":0.8031496062992126,"duration":0.4895833333333144},{"name":"F#4","midi":66,"time":237.665364583327,"velocity":0.8031496062992126,"duration":1.9765624999998863},{"name":"A3","midi":57,"time":237.665364583327,"velocity":0.8031496062992126,"duration":1.9765624999998863},{"name":"E5","midi":76,"time":237.91276041666035,"velocity":0.8031496062992126,"duration":0.2447916666666572},{"name":"D#5","midi":75,"time":238.16015624999366,"velocity":0.8031496062992126,"duration":0.2447916666666572},{"name":"C#5","midi":73,"time":238.40755208332698,"velocity":0.8031496062992126,"duration":0.2447916666666572},{"name":"D#5","midi":75,"time":238.6549479166603,"velocity":0.8031496062992126,"duration":0.2447916666666572},{"name":"F#5","midi":78,"time":238.9023437499936,"velocity":0.8031496062992126,"duration":0.2447916666666572},{"name":"B4","midi":71,"time":239.14973958332692,"velocity":0.8031496062992126,"duration":0.2447916666666572},{"name":"C#5","midi":73,"time":239.39713541666023,"velocity":0.8031496062992126,"duration":0.2447916666666572},{"name":"D5","midi":74,"time":239.64453124999355,"velocity":0.8031496062992126,"duration":1.4817708333333144},{"name":"B3","midi":59,"time":239.64453124999355,"velocity":0.8031496062992126,"duration":0.9869791666666856},{"name":"B4","midi":71,"time":239.8919270833269,"velocity":0.8031496062992126,"duration":1.2369791666666288},{"name":"G#4","midi":68,"time":240.13932291666023,"velocity":0.8031496062992126,"duration":0.9791666666666288},{"name":"E4","midi":64,"time":240.38671874999358,"velocity":0.8031496062992126,"duration":0.4921874999999716},{"name":"C#4","midi":61,"time":240.6341145833269,"velocity":0.8031496062992126,"duration":0.739583333333286},{"name":"E4","midi":64,"time":240.8815104166602,"velocity":0.8031496062992126,"duration":0.7226562499999716},{"name":"A4","midi":69,"time":241.12890624999352,"velocity":0.8031496062992126,"duration":0.7239583333333144},{"name":"C#5","midi":73,"time":241.12890624999352,"velocity":0.8031496062992126,"duration":0.4934895833333144},{"name":"D#4","midi":63,"time":241.37630208332683,"velocity":0.8031496062992126,"duration":0.24609375},{"name":"B4","midi":71,"time":241.6249999999935,"velocity":0.8031496062992126,"duration":3.4049479166665435},{"name":"E4","midi":64,"time":241.6249999999935,"velocity":0.8031496062992126,"duration":1.235677083333286},{"name":"A4","midi":69,"time":241.87369791666018,"velocity":0.8031496062992126,"duration":0.2447916666666572},{"name":"G#4","midi":68,"time":242.1210937499935,"velocity":0.8031496062992126,"duration":0.2447916666666572},{"name":"F#4","midi":66,"time":242.3684895833268,"velocity":0.8031496062992126,"duration":0.2447916666666572},{"name":"G#4","midi":68,"time":242.61588541666012,"velocity":0.8031496062992126,"duration":2.2252604166666003},{"name":"F#4","midi":66,"time":242.86328124999343,"velocity":0.8031496062992126,"duration":0.2447916666666572},{"name":"B3","midi":59,"time":243.11067708332675,"velocity":0.8031496062992126,"duration":0.2447916666666572},{"name":"C#4","midi":61,"time":243.35807291666006,"velocity":0.8031496062992126,"duration":0.2447916666666572},{"name":"D4","midi":62,"time":243.60546874999338,"velocity":0.8031496062992126,"duration":0.98046875},{"name":"B3","midi":59,"time":243.85286458332672,"velocity":0.8031496062992126,"duration":0.72265625},{"name":"G#3","midi":56,"time":244.10026041666006,"velocity":0.8031496062992126,"duration":0.4908854166666572},{"name":"E3","midi":52,"time":244.34765624999338,"velocity":0.8031496062992126,"duration":2.9648437499999147},{"name":"C#4","midi":61,"time":244.59635416666006,"velocity":0.8031496062992126,"duration":0.4934895833333144},{"name":"E4","midi":64,"time":244.84374999999338,"velocity":0.8031496062992126,"duration":0.4908854166666572},{"name":"A4","midi":69,"time":245.09244791666003,"velocity":0.8031496062992126,"duration":0.59765625},{"name":"C4","midi":60,"time":245.09244791666003,"velocity":0.8031496062992126,"duration":0.4921875},{"name":"D#4","midi":63,"time":245.33984374999338,"velocity":0.8031496062992126,"duration":0.2447916666666572},{"name":"E4","midi":64,"time":245.5872395833267,"velocity":0.8031496062992126,"duration":2.2278645833332575},{"name":"B3","midi":59,"time":245.5872395833267,"velocity":0.8031496062992126,"duration":0.4921875},{"name":"B4","midi":71,"time":245.71093749999338,"velocity":0.8031496062992126,"duration":0.12109375},{"name":"C#5","midi":73,"time":245.83463541666003,"velocity":0.8031496062992126,"duration":0.12109375},{"name":"D5","midi":74,"time":245.9583333333267,"velocity":0.8031496062992126,"duration":0.12109375},{"name":"C#5","midi":73,"time":246.08203124999335,"velocity":0.8031496062992126,"duration":0.12109375},{"name":"A3","midi":57,"time":246.08203124999335,"velocity":0.8031496062992126,"duration":0.4921874999999716},{"name":"B4","midi":71,"time":246.20572916666,"velocity":0.8031496062992126,"duration":0.12109375},{"name":"C#5","midi":73,"time":246.32942708332666,"velocity":0.8031496062992126,"duration":0.12109375},{"name":"D5","midi":74,"time":246.45312499999332,"velocity":0.8031496062992126,"duration":0.12109375},{"name":"A4","midi":69,"time":246.57682291665998,"velocity":0.8031496062992126,"duration":0.1627604166666572},{"name":"B3","midi":59,"time":246.57682291665998,"velocity":0.8031496062992126,"duration":0.2447916666666572},{"name":"G#4","midi":68,"time":246.7421874999933,"velocity":0.8031496062992126,"duration":0.07942708333334281},{"name":"A4","midi":69,"time":246.8242187499933,"velocity":0.8031496062992126,"duration":0.07942708333334281},{"name":"C#4","midi":61,"time":246.8242187499933,"velocity":0.8031496062992126,"duration":0.2434895833333428},{"name":"G#4","midi":68,"time":246.9062499999933,"velocity":0.8031496062992126,"duration":0.07942708333334281},{"name":"A4","midi":69,"time":246.9882812499933,"velocity":0.8031496062992126,"duration":0.07942708333334281},{"name":"D4","midi":62,"time":247.0703124999933,"velocity":0.8031496062992126,"duration":0.9986979166666572},{"name":"G#4","midi":68,"time":247.0703124999933,"velocity":0.8031496062992126,"duration":0.2447916666666572},{"name":"A4","midi":69,"time":247.3177083333266,"velocity":0.8031496062992126,"duration":0.2513020833333428},{"name":"A4","midi":69,"time":247.5716145833266,"velocity":0.8031496062992126,"duration":1.8072916666666572},{"name":"A3","midi":57,"time":247.5716145833266,"velocity":0.8031496062992126,"duration":2.1158854166666288},{"name":"E4","midi":64,"time":247.8255208333266,"velocity":0.8031496062992126,"duration":0.2513020833333428},{"name":"F#4","midi":66,"time":248.0794270833266,"velocity":0.8031496062992126,"duration":0.2513020833333428},{"name":"C#4","midi":61,"time":248.0794270833266,"velocity":0.8031496062992126,"duration":0.7825520833333428},{"name":"G4","midi":67,"time":248.3333333333266,"velocity":0.8031496062992126,"duration":0.2630208333333428},{"name":"F#4","midi":66,"time":248.5989583333266,"velocity":0.8031496062992126,"duration":0.7942708333333144},{"name":"D4","midi":62,"time":248.8645833333266,"velocity":0.8031496062992126,"duration":0.2630208333333428},{"name":"B3","midi":59,"time":249.1302083333266,"velocity":0.8031496062992126,"duration":0.5572916666666288},{"name":"D4","midi":62,"time":249.39583333332658,"velocity":0.8031496062992126,"duration":0.2916666666666572},{"name":"G#4","midi":68,"time":249.39583333332658,"velocity":0.8031496062992126,"duration":0.2916666666666572},{"name":"F4","midi":65,"time":249.39583333332658,"velocity":0.8031496062992126,"duration":0.2916666666666572},{"name":"C#4","midi":61,"time":249.6901041666599,"velocity":0.8031496062992126,"duration":4.372395833333343},{"name":"E4","midi":64,"time":249.6901041666599,"velocity":0.8031496062992126,"duration":4.372395833333343},{"name":"A4","midi":69,"time":249.6901041666599,"velocity":0.8031496062992126,"duration":4.372395833333343},{"name":"A3","midi":57,"time":249.6901041666599,"velocity":0.8031496062992126,"duration":1.1640625000000284},{"name":"A2","midi":45,"time":249.98437499999324,"velocity":0.8031496062992126,"duration":4.078125},{"name":"C#3","midi":49,"time":250.27864583332658,"velocity":0.8031496062992126,"duration":0.58203125},{"name":"E3","midi":52,"time":250.57291666665992,"velocity":0.8031496062992126,"duration":3.4895833333333144},{"name":"A3","midi":57,"time":250.86718749999324,"velocity":0.8031496062992126,"duration":3.1953125},{"name":"A5","midi":81,"time":256.2252604166599,"velocity":0.8031496062992126,"duration":0.3072916666666856},{"name":"A3","midi":57,"time":256.5377604166599,"velocity":0.8031496062992126,"duration":1.5156250000000568},{"name":"C#5","midi":73,"time":256.5377604166599,"velocity":0.8031496062992126,"duration":0.7708333333333144},{"name":"E5","midi":76,"time":256.6510416666599,"velocity":0.8031496062992126,"duration":0.6731770833333144},{"name":"A5","midi":81,"time":256.76562499999324,"velocity":0.8031496062992126,"duration":0.5442708333333144},{"name":"A2","midi":45,"time":256.80078124999324,"velocity":0.8031496062992126,"duration":0.25390625},{"name":"B2","midi":47,"time":257.06380208332655,"velocity":0.8031496062992126,"duration":0.25390625},{"name":"G#5","midi":80,"time":257.32031249999324,"velocity":0.8031496062992126,"duration":0.24479166666668561},{"name":"C#3","midi":49,"time":257.32031249999324,"velocity":0.8031496062992126,"duration":0.24479166666668561},{"name":"F#5","midi":78,"time":257.5677083333266,"velocity":0.8031496062992126,"duration":0.24479166666668561},{"name":"D3","midi":50,"time":257.5677083333266,"velocity":0.8031496062992126,"duration":0.49218750000005684},{"name":"E5","midi":76,"time":257.81510416666,"velocity":0.8031496062992126,"duration":0.24479166666668561},{"name":"D5","midi":74,"time":258.06249999999335,"velocity":0.8031496062992126,"duration":0.24479166666668561},{"name":"E3","midi":52,"time":258.06249999999335,"velocity":0.8031496062992126,"duration":0.49218750000005684},{"name":"G#3","midi":56,"time":258.06249999999335,"velocity":0.8031496062992126,"duration":0.49218750000005684},{"name":"C#5","midi":73,"time":258.3098958333267,"velocity":0.8031496062992126,"duration":0.24479166666668561},{"name":"C#5","midi":73,"time":258.5572916666601,"velocity":0.8031496062992126,"duration":0.24479166666668561},{"name":"F#3","midi":54,"time":258.5572916666601,"velocity":0.8031496062992126,"duration":0.4908854166666856},{"name":"G#3","midi":56,"time":258.6653645833268,"velocity":0.8031496062992126,"duration":0.10546875},{"name":"A3","midi":57,"time":258.77343749999346,"velocity":0.8031496062992126,"duration":0.2747395833333144},{"name":"D5","midi":74,"time":258.80468749999346,"velocity":0.8031496062992126,"duration":0.07942708333331439},{"name":"C#5","midi":73,"time":258.88671874999346,"velocity":0.8031496062992126,"duration":0.07942708333331439},{"name":"D5","midi":74,"time":258.96874999999346,"velocity":0.8031496062992126,"duration":0.3268229166666856},{"name":"G#3","midi":56,"time":259.05078124999346,"velocity":0.8031496062992126,"duration":0.49218750000005684},{"name":"A3","midi":57,"time":259.15885416666015,"velocity":0.8031496062992126,"duration":0.10546875},{"name":"B3","midi":59,"time":259.26692708332683,"velocity":0.8031496062992126,"duration":0.2760416666666856},{"name":"E5","midi":76,"time":259.29817708332683,"velocity":0.8031496062992126,"duration":0.24479166666668561},{"name":"D5","midi":74,"time":259.5455729166602,"velocity":0.8031496062992126,"duration":0.07942708333331439},{"name":"A3","midi":57,"time":259.5455729166602,"velocity":0.8031496062992126,"duration":0.7213541666666288},{"name":"C#5","midi":73,"time":259.6276041666602,"velocity":0.8031496062992126,"duration":0.07942708333331439},{"name":"D5","midi":74,"time":259.7096354166602,"velocity":0.8031496062992126,"duration":0.07942708333331439},{"name":"C#5","midi":73,"time":259.7916666666602,"velocity":0.8031496062992126,"duration":0.4934895833333144},{"name":"C#4","midi":61,"time":259.7916666666602,"velocity":0.8031496062992126,"duration":0.7239583333333144},{"name":"E4","midi":64,"time":260.0390624999935,"velocity":0.8031496062992126,"duration":0.4921875},{"name":"B4","midi":71,"time":260.2877604166602,"velocity":0.8031496062992126,"duration":0.24609375},{"name":"G#3","midi":56,"time":260.2877604166602,"velocity":0.8031496062992126,"duration":0.24609375},{"name":"A4","midi":69,"time":260.5364583333269,"velocity":0.8031496062992126,"duration":0.24479166666668561},{"name":"F#3","midi":54,"time":260.5364583333269,"velocity":0.8031496062992126,"duration":0.24479166666668561},{"name":"G#4","midi":68,"time":260.78385416666026,"velocity":0.8031496062992126,"duration":0.24479166666668561},{"name":"E3","midi":52,"time":260.78385416666026,"velocity":0.8031496062992126,"duration":0.24479166666668561},{"name":"F#4","midi":66,"time":261.03124999999363,"velocity":0.8031496062992126,"duration":0.24479166666668561},{"name":"D3","midi":50,"time":261.03124999999363,"velocity":0.8031496062992126,"duration":0.24479166666668561},{"name":"D5","midi":74,"time":261.278645833327,"velocity":0.8031496062992126,"duration":0.24479166666668561},{"name":"C#3","midi":49,"time":261.278645833327,"velocity":0.8031496062992126,"duration":0.24479166666668561},{"name":"C#5","midi":73,"time":261.5260416666604,"velocity":0.8031496062992126,"duration":0.16276041666668561},{"name":"D3","midi":50,"time":261.5260416666604,"velocity":0.8031496062992126,"duration":0.48958333333337123},{"name":"B4","midi":71,"time":261.69140624999375,"velocity":0.8031496062992126,"duration":0.07942708333331439},{"name":"C#5","midi":73,"time":261.77343749999375,"velocity":0.8031496062992126,"duration":0.07942708333331439},{"name":"F#3","midi":54,"time":261.77343749999375,"velocity":0.8031496062992126,"duration":0.7226562500000568},{"name":"B4","midi":71,"time":261.85546874999375,"velocity":0.8031496062992126,"duration":0.07942708333331439},{"name":"C#5","midi":73,"time":261.93749999999375,"velocity":0.8031496062992126,"duration":0.08072916666668561},{"name":"B4","midi":71,"time":262.0208333333271,"velocity":0.8031496062992126,"duration":0.24479166666668561},{"name":"B2","midi":47,"time":262.0208333333271,"velocity":0.8031496062992126,"duration":0.49348958333337123},{"name":"A4","midi":69,"time":262.2682291666605,"velocity":0.8031496062992126,"duration":0.24609375},{"name":"A4","midi":69,"time":262.5169270833272,"velocity":0.8031496062992126,"duration":0.07942708333331439},{"name":"E3","midi":52,"time":262.5169270833272,"velocity":0.8031496062992126,"duration":0.9778645833333712},{"name":"G#4","midi":68,"time":262.5989583333272,"velocity":0.8031496062992126,"duration":0.07942708333331439},{"name":"A4","midi":69,"time":262.6809895833272,"velocity":0.8031496062992126,"duration":0.07942708333331439},{"name":"G#4","midi":68,"time":262.7630208333272,"velocity":0.8031496062992126,"duration":0.4921875},{"name":"G#3","midi":56,"time":262.7630208333272,"velocity":0.8031496062992126,"duration":1.2369791666667993},{"name":"B3","midi":59,"time":263.0104166666605,"velocity":0.8031496062992126,"duration":0.9791666666667993},{"name":"F#4","midi":66,"time":263.25781249999386,"velocity":0.8031496062992126,"duration":0.24479166666668561},{"name":"E4","midi":64,"time":263.50520833332723,"velocity":0.8031496062992126,"duration":0.24479166666668561},{"name":"D3","midi":50,"time":263.50520833332723,"velocity":0.8031496062992126,"duration":0.49218750000005684},{"name":"F#4","midi":66,"time":263.7526041666606,"velocity":0.8031496062992126,"duration":0.24479166666668561},{"name":"G#4","midi":68,"time":263.999999999994,"velocity":0.8031496062992126,"duration":0.24479166666668561},{"name":"A3","midi":57,"time":263.999999999994,"velocity":0.8031496062992126,"duration":0.49218750000005684},{"name":"E3","midi":52,"time":263.999999999994,"velocity":0.8031496062992126,"duration":0.49218750000005684},{"name":"C#3","midi":49,"time":263.999999999994,"velocity":0.8031496062992126,"duration":0.49218750000005684},{"name":"A4","midi":69,"time":264.24739583332735,"velocity":0.8031496062992126,"duration":0.24479166666668561},{"name":"A4","midi":69,"time":264.4947916666607,"velocity":0.8031496062992126,"duration":0.24479166666668561},{"name":"B2","midi":47,"time":264.4947916666607,"velocity":0.8031496062992126,"duration":0.48958333333337123},{"name":"D3","midi":50,"time":264.4947916666607,"velocity":0.8031496062992126,"duration":0.48958333333337123},{"name":"B4","midi":71,"time":264.7421874999941,"velocity":0.8031496062992126,"duration":0.07942708333331439},{"name":"G#3","midi":56,"time":264.7421874999941,"velocity":0.8031496062992126,"duration":0.24479166666668561},{"name":"A4","midi":69,"time":264.8242187499941,"velocity":0.8031496062992126,"duration":0.07942708333331439},{"name":"B4","midi":71,"time":264.9062499999941,"velocity":0.8031496062992126,"duration":0.32812500000005684},{"name":"A2","midi":45,"time":264.98958333332746,"velocity":0.8031496062992126,"duration":0.48958333333337123},{"name":"E3","midi":52,"time":264.98958333332746,"velocity":0.8031496062992126,"duration":0.48958333333337123},{"name":"C#5","midi":73,"time":265.23697916666083,"velocity":0.8031496062992126,"duration":0.24479166666668561},{"name":"A3","midi":57,"time":265.23697916666083,"velocity":0.8031496062992126,"duration":0.24479166666668561},{"name":"D5","midi":74,"time":265.4843749999942,"velocity":0.8031496062992126,"duration":0.72265625},{"name":"G#2","midi":44,"time":265.4843749999942,"velocity":0.8031496062992126,"duration":0.72265625},{"name":"B4","midi":71,"time":265.7317708333275,"velocity":0.8031496062992126,"duration":0.24479166666668561},{"name":"B2","midi":47,"time":265.7317708333275,"velocity":0.8031496062992126,"duration":0.24479166666668561},{"name":"G#4","midi":68,"time":265.9791666666609,"velocity":0.8031496062992126,"duration":0.49088541666662877},{"name":"E3","midi":52,"time":265.9791666666609,"velocity":0.8031496062992126,"duration":0.9791666666666856},{"name":"E5","midi":76,"time":266.2278645833275,"velocity":0.8031496062992126,"duration":0.24479166666668561},{"name":"E2","midi":40,"time":266.2278645833275,"velocity":0.8031496062992126,"duration":0.24479166666668561},{"name":"D5","midi":74,"time":266.4752604166609,"velocity":0.8031496062992126,"duration":0.07942708333331439},{"name":"A4","midi":69,"time":266.4752604166609,"velocity":0.8031496062992126,"duration":0.9778645833334281},{"name":"A2","midi":45,"time":266.4752604166609,"velocity":0.8031496062992126,"duration":0.4908854166666856},{"name":"C#5","midi":73,"time":266.5572916666609,"velocity":0.8031496062992126,"duration":0.07942708333331439},{"name":"D5","midi":74,"time":266.6393229166609,"velocity":0.8031496062992126,"duration":0.07942708333331439},{"name":"C#5","midi":73,"time":266.7213541666609,"velocity":0.8031496062992126,"duration":0.49218750000005684},{"name":"F#3","midi":54,"time":266.96874999999426,"velocity":0.8031496062992126,"duration":0.49218750000005684},{"name":"D3","midi":50,"time":266.96874999999426,"velocity":0.8031496062992126,"duration":0.49218750000005684},{"name":"B4","midi":71,"time":267.21614583332763,"velocity":0.8031496062992126,"duration":0.24479166666668561},{"name":"C#5","midi":73,"time":267.463541666661,"velocity":0.8031496062992126,"duration":0.16276041666668561},{"name":"G#4","midi":68,"time":267.463541666661,"velocity":0.8031496062992126,"duration":0.9778645833334281},{"name":"E3","midi":52,"time":267.463541666661,"velocity":0.8031496062992126,"duration":0.9778645833334281},{"name":"B4","midi":71,"time":267.6289062499944,"velocity":0.8031496062992126,"duration":0.07942708333331439},{"name":"C#5","midi":73,"time":267.7109374999944,"velocity":0.8031496062992126,"duration":0.07942708333331439},{"name":"B4","midi":71,"time":267.7929687499944,"velocity":0.8031496062992126,"duration":0.07942708333331439},{"name":"C#5","midi":73,"time":267.8749999999944,"velocity":0.8031496062992126,"duration":0.07942708333331439},{"name":"B4","midi":71,"time":267.9570312499944,"velocity":0.8031496062992126,"duration":0.24479166666668561},{"name":"E2","midi":40,"time":267.9570312499944,"velocity":0.8031496062992126,"duration":0.49218750000005684},{"name":"A4","midi":69,"time":268.20442708332774,"velocity":0.8031496062992126,"duration":0.24479166666668561},{"name":"C#4","midi":61,"time":268.4518229166611,"velocity":0.8031496062992126,"duration":0.9791666666667993},{"name":"A2","midi":45,"time":268.4518229166611,"velocity":0.8031496062992126,"duration":0.9791666666667993},{"name":"E4","midi":64,"time":268.5598958333278,"velocity":0.8031496062992126,"duration":0.8763020833334281},{"name":"A4","midi":69,"time":268.6679687499945,"velocity":0.8031496062992126,"duration":1.0182291666667993},{"name":"E3","midi":52,"time":268.6992187499945,"velocity":0.8031496062992126,"duration":0.24479166666668561},{"name":"F#3","midi":54,"time":268.94661458332786,"velocity":0.8031496062992126,"duration":0.24479166666668561},{"name":"G#3","midi":56,"time":269.19401041666123,"velocity":0.8031496062992126,"duration":0.24479166666668561},{"name":"A3","midi":57,"time":269.4414062499946,"velocity":0.8031496062992126,"duration":0.49218750000005684},{"name":"C#5","midi":73,"time":269.68880208332797,"velocity":0.8031496062992126,"duration":0.24479166666668561},{"name":"B4","midi":71,"time":269.93619791666134,"velocity":0.8031496062992126,"duration":0.24479166666668561},{"name":"G#3","midi":56,"time":269.93619791666134,"velocity":0.8031496062992126,"duration":0.24479166666668561},{"name":"A4","midi":69,"time":270.1835937499947,"velocity":0.8031496062992126,"duration":0.24479166666668561},{"name":"F#3","midi":54,"time":270.1835937499947,"velocity":0.8031496062992126,"duration":0.24479166666668561},{"name":"A4","midi":69,"time":270.4309895833281,"velocity":0.8031496062992126,"duration":0.16276041666668561},{"name":"F3","midi":53,"time":270.4309895833281,"velocity":0.8031496062992126,"duration":0.48958333333337123},{"name":"G#4","midi":68,"time":270.59635416666146,"velocity":0.8031496062992126,"duration":0.07942708333331439},{"name":"A4","midi":69,"time":270.67838541666146,"velocity":0.8031496062992126,"duration":0.07942708333331439},{"name":"G#3","midi":56,"time":270.67838541666146,"velocity":0.8031496062992126,"duration":0.7226562500000568},{"name":"G#4","midi":68,"time":270.76041666666146,"velocity":0.8031496062992126,"duration":0.07942708333331439},{"name":"A4","midi":69,"time":270.84244791666146,"velocity":0.8031496062992126,"duration":0.08072916666668561},{"name":"G#4","midi":68,"time":270.9257812499948,"velocity":0.8031496062992126,"duration":0.24479166666668561},{"name":"C#3","midi":49,"time":270.9257812499948,"velocity":0.8031496062992126,"duration":0.49348958333337123},{"name":"A4","midi":69,"time":271.1731770833282,"velocity":0.8031496062992126,"duration":0.24609375},{"name":"B4","midi":71,"time":271.4218749999949,"velocity":0.8031496062992126,"duration":0.24479166666668561},{"name":"F#3","midi":54,"time":271.4218749999949,"velocity":0.8031496062992126,"duration":0.7395833333334281},{"name":"A4","midi":69,"time":271.66927083332826,"velocity":0.8031496062992126,"duration":0.24479166666668561},{"name":"G#4","midi":68,"time":271.9166666666616,"velocity":0.8031496062992126,"duration":0.24479166666668561},{"name":"F#4","midi":66,"time":272.164062499995,"velocity":0.8031496062992126,"duration":0.24479166666668561},{"name":"G#3","midi":56,"time":272.164062499995,"velocity":0.8031496062992126,"duration":0.24479166666668561},{"name":"F#5","midi":78,"time":272.41145833332837,"velocity":0.8031496062992126,"duration":0.07942708333331439},{"name":"A3","midi":57,"time":272.41145833332837,"velocity":0.8031496062992126,"duration":0.24348958333331439},{"name":"E5","midi":76,"time":272.49348958332837,"velocity":0.8031496062992126,"duration":0.07942708333331439},{"name":"F#5","midi":78,"time":272.57552083332837,"velocity":0.8031496062992126,"duration":0.5742187500000568},{"name":"C#4","midi":61,"time":272.65755208332837,"velocity":0.8031496062992126,"duration":0.24479166666668561},{"name":"B3","midi":59,"time":272.90494791666174,"velocity":0.8031496062992126,"duration":0.24479166666668561},{"name":"D#5","midi":75,"time":273.1523437499951,"velocity":0.8031496062992126,"duration":0.24479166666668561},{"name":"A3","midi":57,"time":273.1523437499951,"velocity":0.8031496062992126,"duration":0.24479166666668561},{"name":"D#5","midi":75,"time":273.3997395833285,"velocity":0.8031496062992126,"duration":0.16276041666668561},{"name":"G#3","midi":56,"time":273.3997395833285,"velocity":0.8031496062992126,"duration":0.4934895833334281},{"name":"A3","midi":57,"time":273.50781249999517,"velocity":0.8031496062992126,"duration":0.10677083333337123},{"name":"E5","midi":76,"time":273.56510416666185,"velocity":0.8031496062992126,"duration":0.08072916666668561},{"name":"B3","midi":59,"time":273.6171874999952,"velocity":0.8031496062992126,"duration":0.2760416666666856},{"name":"D#5","midi":75,"time":273.6484374999952,"velocity":0.8031496062992126,"duration":0.07942708333331439},{"name":"E5","midi":76,"time":273.7304687499952,"velocity":0.8031496062992126,"duration":0.41015625000005684},{"name":"A#3","midi":58,"time":273.8958333333286,"velocity":0.8031496062992126,"duration":0.49218750000005684},{"name":"B3","midi":59,"time":274.0039062499953,"velocity":0.8031496062992126,"duration":0.10546875},{"name":"C#4","midi":61,"time":274.11197916666197,"velocity":0.8031496062992126,"duration":0.2760416666666856},{"name":"F#5","midi":78,"time":274.14322916666197,"velocity":0.8031496062992126,"duration":0.24479166666668561},{"name":"E5","midi":76,"time":274.39062499999534,"velocity":0.8031496062992126,"duration":0.07942708333331439},{"name":"B3","midi":59,"time":274.39062499999534,"velocity":0.8031496062992126,"duration":0.9778645833333712},{"name":"D#5","midi":75,"time":274.47265624999534,"velocity":0.8031496062992126,"duration":0.07942708333331439},{"name":"E5","midi":76,"time":274.55468749999534,"velocity":0.8031496062992126,"duration":0.07942708333331439},{"name":"D#5","midi":75,"time":274.63671874999534,"velocity":0.8031496062992126,"duration":0.4921875},{"name":"D#4","midi":63,"time":274.63671874999534,"velocity":0.8031496062992126,"duration":1.2369791666667993},{"name":"F#4","midi":66,"time":274.88411458332865,"velocity":0.8031496062992126,"duration":0.9791666666667993},{"name":"C#5","midi":73,"time":275.131510416662,"velocity":0.8031496062992126,"duration":0.24479166666668561},{"name":"B4","midi":71,"time":275.3789062499954,"velocity":0.8031496062992126,"duration":0.24479166666668561},{"name":"A3","midi":57,"time":275.3789062499954,"velocity":0.8031496062992126,"duration":0.49218750000005684},{"name":"C#5","midi":73,"time":275.62630208332877,"velocity":0.8031496062992126,"duration":0.24479166666668561},{"name":"D#5","midi":75,"time":275.87369791666214,"velocity":0.8031496062992126,"duration":0.24479166666668561},{"name":"B3","midi":59,"time":275.87369791666214,"velocity":0.8031496062992126,"duration":0.49218750000005684},{"name":"E4","midi":64,"time":275.87369791666214,"velocity":0.8031496062992126,"duration":0.49218750000005684},{"name":"G#3","midi":56,"time":275.87369791666214,"velocity":0.8031496062992126,"duration":0.49218750000005684},{"name":"E5","midi":76,"time":276.1210937499955,"velocity":0.8031496062992126,"duration":0.24479166666668561},{"name":"E5","midi":76,"time":276.3684895833289,"velocity":0.8031496062992126,"duration":0.24479166666668561},{"name":"F#3","midi":54,"time":276.3684895833289,"velocity":0.8031496062992126,"duration":0.48958333333337123},{"name":"A3","midi":57,"time":276.3684895833289,"velocity":0.8031496062992126,"duration":0.48958333333337123},{"name":"F#5","midi":78,"time":276.61588541666225,"velocity":0.8031496062992126,"duration":0.07942708333331439},{"name":"D#4","midi":63,"time":276.61588541666225,"velocity":0.8031496062992126,"duration":0.24479166666668561},{"name":"E5","midi":76,"time":276.69791666666225,"velocity":0.8031496062992126,"duration":0.07942708333331439},{"name":"F#5","midi":78,"time":276.77994791666225,"velocity":0.8031496062992126,"duration":0.32812500000005684},{"name":"E3","midi":52,"time":276.8632812499956,"velocity":0.8031496062992126,"duration":0.48958333333337123},{"name":"B3","midi":59,"time":276.8632812499956,"velocity":0.8031496062992126,"duration":0.48958333333337123},{"name":"G#5","midi":80,"time":277.110677083329,"velocity":0.8031496062992126,"duration":0.24479166666668561},{"name":"E4","midi":64,"time":277.110677083329,"velocity":0.8031496062992126,"duration":0.24479166666668561},{"name":"A5","midi":81,"time":277.35807291666237,"velocity":0.8031496062992126,"duration":0.72265625},{"name":"D#3","midi":51,"time":277.35807291666237,"velocity":0.8031496062992126,"duration":0.72265625},{"name":"F#5","midi":78,"time":277.6054687499957,"velocity":0.8031496062992126,"duration":0.24479166666668561},{"name":"F#3","midi":54,"time":277.6054687499957,"velocity":0.8031496062992126,"duration":0.24479166666668561},{"name":"D#5","midi":75,"time":277.85286458332905,"velocity":0.8031496062992126,"duration":0.49088541666662877},{"name":"B3","midi":59,"time":277.85286458332905,"velocity":0.8031496062992126,"duration":0.9791666666666856},{"name":"B5","midi":83,"time":278.1015624999957,"velocity":0.8031496062992126,"duration":0.24479166666668561},{"name":"B2","midi":47,"time":278.1015624999957,"velocity":0.8031496062992126,"duration":0.24479166666668561},{"name":"E5","midi":76,"time":278.34895833332905,"velocity":0.8031496062992126,"duration":0.9778645833334281},{"name":"A5","midi":81,"time":278.34895833332905,"velocity":0.8031496062992126,"duration":0.07942708333331439},{"name":"E3","midi":52,"time":278.34895833332905,"velocity":0.8031496062992126,"duration":0.4908854166666856},{"name":"G#5","midi":80,"time":278.43098958332905,"velocity":0.8031496062992126,"duration":0.07942708333331439},{"name":"A5","midi":81,"time":278.51302083332905,"velocity":0.8031496062992126,"duration":0.07942708333331439},{"name":"G#5","midi":80,"time":278.59505208332905,"velocity":0.8031496062992126,"duration":0.07942708333331439},{"name":"A5","midi":81,"time":278.67708333332905,"velocity":0.8031496062992126,"duration":0.07942708333331439},{"name":"G#5","midi":80,"time":278.75911458332905,"velocity":0.8031496062992126,"duration":0.32812500000005684},{"name":"A3","midi":57,"time":278.8424479166624,"velocity":0.8031496062992126,"duration":0.49218750000005684},{"name":"C#4","midi":61,"time":278.8424479166624,"velocity":0.8031496062992126,"duration":0.49218750000005684},{"name":"F#5","midi":78,"time":279.0898437499958,"velocity":0.8031496062992126,"duration":0.24479166666668561},{"name":"G#5","midi":80,"time":279.33723958332916,"velocity":0.8031496062992126,"duration":0.16276041666668561},{"name":"D#5","midi":75,"time":279.33723958332916,"velocity":0.8031496062992126,"duration":0.9778645833334281},{"name":"B3","midi":59,"time":279.33723958332916,"velocity":0.8031496062992126,"duration":0.9778645833334281},{"name":"F#5","midi":78,"time":279.50260416666254,"velocity":0.8031496062992126,"duration":0.07942708333331439},{"name":"G#5","midi":80,"time":279.58463541666254,"velocity":0.8031496062992126,"duration":0.07942708333331439},{"name":"F#5","midi":78,"time":279.66666666666254,"velocity":0.8031496062992126,"duration":0.07942708333331439},{"name":"G#5","midi":80,"time":279.74869791666254,"velocity":0.8031496062992126,"duration":0.07942708333331439},{"name":"F#5","midi":78,"time":279.83072916666254,"velocity":0.8031496062992126,"duration":0.24479166666668561},{"name":"G#3","midi":56,"time":279.83072916666254,"velocity":0.8031496062992126,"duration":0.49218750000005684},{"name":"E5","midi":76,"time":280.0781249999959,"velocity":0.8031496062992126,"duration":0.24479166666668561},{"name":"E5","midi":76,"time":280.3255208333293,"velocity":0.8031496062992126,"duration":1.9765625000002842},{"name":"C#4","midi":61,"time":280.3255208333293,"velocity":0.8031496062992126,"duration":0.24479166666668561},{"name":"D#4","midi":63,"time":280.57291666666265,"velocity":0.8031496062992126,"duration":0.24479166666668561},{"name":"C#4","midi":61,"time":280.820312499996,"velocity":0.8031496062992126,"duration":0.24479166666668561},{"name":"D#5","midi":75,"time":281.0677083333294,"velocity":0.8031496062992126,"duration":0.24479166666668561},{"name":"B3","midi":59,"time":281.0677083333294,"velocity":0.8031496062992126,"duration":0.24479166666668561},{"name":"C#5","midi":73,"time":281.31510416666276,"velocity":0.8031496062992126,"duration":0.24479166666668561},{"name":"A3","midi":57,"time":281.31510416666276,"velocity":0.8031496062992126,"duration":0.24479166666668561},{"name":"B4","midi":71,"time":281.56249999999613,"velocity":0.8031496062992126,"duration":0.24479166666668561},{"name":"G#3","midi":56,"time":281.56249999999613,"velocity":0.8031496062992126,"duration":0.24479166666668561},{"name":"A4","midi":69,"time":281.8098958333295,"velocity":0.8031496062992126,"duration":0.24479166666668561},{"name":"F#3","midi":54,"time":281.8098958333295,"velocity":0.8031496062992126,"duration":0.24479166666668561},{"name":"G#4","midi":68,"time":282.0572916666629,"velocity":0.8031496062992126,"duration":0.24479166666668561},{"name":"E3","midi":52,"time":282.0572916666629,"velocity":0.8031496062992126,"duration":0.24479166666668561},{"name":"F#4","midi":66,"time":282.30468749999625,"velocity":0.8031496062992126,"duration":0.98046875},{"name":"B3","midi":59,"time":282.30468749999625,"velocity":0.8031496062992126,"duration":0.98046875},{"name":"A4","midi":69,"time":282.55208333332956,"velocity":0.8031496062992126,"duration":0.72265625},{"name":"E5","midi":76,"time":282.7994791666629,"velocity":0.8031496062992126,"duration":0.24479166666668561},{"name":"B2","midi":47,"time":282.7994791666629,"velocity":0.8031496062992126,"duration":0.49348958333337123},{"name":"D#5","midi":75,"time":283.04687499999625,"velocity":0.8031496062992126,"duration":0.24609375},{"name":"E5","midi":76,"time":283.29557291666293,"velocity":0.8031496062992126,"duration":1.4830729166667425},{"name":"E3","midi":52,"time":283.29557291666293,"velocity":0.8031496062992126,"duration":0.98046875},{"name":"E2","midi":40,"time":283.79166666666293,"velocity":0.8031496062992126,"duration":2.235677083333485},{"name":"B4","midi":71,"time":284.03906249999625,"velocity":0.8031496062992126,"duration":0.24479166666668561},{"name":"C#5","midi":73,"time":284.2864583333296,"velocity":0.8031496062992126,"duration":0.24479166666668561},{"name":"B2","midi":47,"time":284.2864583333296,"velocity":0.8031496062992126,"duration":0.49218750000005684},{"name":"A4","midi":69,"time":284.533854166663,"velocity":0.8031496062992126,"duration":0.24479166666668561},{"name":"G#4","midi":68,"time":284.78124999999636,"velocity":0.8031496062992126,"duration":0.9804687500000568},{"name":"E3","midi":52,"time":284.78124999999636,"velocity":0.8031496062992126,"duration":1.2382812500000568},{"name":"B4","midi":71,"time":284.88932291666305,"velocity":0.8031496062992126,"duration":0.8776041666666856},{"name":"E5","midi":76,"time":284.99739583332973,"velocity":0.8031496062992126,"duration":1.01953125},{"name":"B4","midi":71,"time":286.0195312499964,"velocity":0.8031496062992126,"duration":0.24479166666668561},{"name":"E4","midi":64,"time":286.2669270833298,"velocity":0.8031496062992126,"duration":0.7226562500000568},{"name":"E2","midi":40,"time":286.2669270833298,"velocity":0.8031496062992126,"duration":0.9804687500000568},{"name":"G#4","midi":68,"time":286.3749999999965,"velocity":0.8031496062992126,"duration":0.6197916666666856},{"name":"B4","midi":71,"time":286.48307291666316,"velocity":0.8031496062992126,"duration":0.5247395833333144},{"name":"B2","midi":47,"time":286.51432291666316,"velocity":0.8031496062992126,"duration":0.24479166666668561},{"name":"C#3","midi":49,"time":286.76171874999653,"velocity":0.8031496062992126,"duration":0.24609374999994316},{"name":"A4","midi":69,"time":287.01041666666316,"velocity":0.8031496062992126,"duration":0.24479166666668561},{"name":"D#3","midi":51,"time":287.01041666666316,"velocity":0.8031496062992126,"duration":0.24479166666668561},{"name":"G#4","midi":68,"time":287.25781249999653,"velocity":0.8031496062992126,"duration":0.24479166666668561},{"name":"E3","midi":52,"time":287.25781249999653,"velocity":0.8031496062992126,"duration":0.9791666666667993},{"name":"A4","midi":69,"time":287.5052083333299,"velocity":0.8031496062992126,"duration":0.24479166666668561},{"name":"F#3","midi":54,"time":287.5052083333299,"velocity":0.8031496062992126,"duration":0.24479166666668561},{"name":"B4","midi":71,"time":287.7526041666633,"velocity":0.8031496062992126,"duration":0.24479166666668561},{"name":"G#3","midi":56,"time":287.7526041666633,"velocity":0.8031496062992126,"duration":0.49218750000005684},{"name":"C#5","midi":73,"time":287.99999999999665,"velocity":0.8031496062992126,"duration":0.24479166666668561},{"name":"C#5","midi":73,"time":288.24739583333,"velocity":0.8031496062992126,"duration":0.24479166666668561},{"name":"F#3","midi":54,"time":288.24739583333,"velocity":0.8031496062992126,"duration":0.4908854166666856},{"name":"G#3","midi":56,"time":288.3554687499967,"velocity":0.8031496062992126,"duration":0.10546875},{"name":"A3","midi":57,"time":288.4635416666634,"velocity":0.8031496062992126,"duration":0.2747395833333144},{"name":"D5","midi":74,"time":288.4947916666634,"velocity":0.8031496062992126,"duration":0.07942708333331439},{"name":"C#5","midi":73,"time":288.5768229166634,"velocity":0.8031496062992126,"duration":0.07942708333331439},{"name":"D5","midi":74,"time":288.6588541666634,"velocity":0.8031496062992126,"duration":0.3268229166666856},{"name":"G#3","midi":56,"time":288.7408854166634,"velocity":0.8031496062992126,"duration":0.49218750000005684},{"name":"A3","midi":57,"time":288.8489583333301,"velocity":0.8031496062992126,"duration":0.10546875},{"name":"B3","midi":59,"time":288.95703124999676,"velocity":0.8031496062992126,"duration":0.2760416666666856},{"name":"E5","midi":76,"time":288.98828124999676,"velocity":0.8031496062992126,"duration":0.24479166666668561},{"name":"D5","midi":74,"time":289.23567708333013,"velocity":0.8031496062992126,"duration":0.07942708333331439},{"name":"A3","midi":57,"time":289.23567708333013,"velocity":0.8031496062992126,"duration":0.7213541666666856},{"name":"C#5","midi":73,"time":289.31770833333013,"velocity":0.8031496062992126,"duration":0.07942708333331439},{"name":"D5","midi":74,"time":289.39973958333013,"velocity":0.8031496062992126,"duration":0.07942708333331439},{"name":"C#5","midi":73,"time":289.48177083333013,"velocity":0.8031496062992126,"duration":0.49348958333337123},{"name":"C#4","midi":61,"time":289.48177083333013,"velocity":0.8031496062992126,"duration":0.24479166666668561},{"name":"E4","midi":64,"time":289.7291666666635,"velocity":0.8031496062992126,"duration":0.9804687500001137},{"name":"B4","midi":71,"time":289.9778645833302,"velocity":0.8031496062992126,"duration":0.24479166666668561},{"name":"B3","midi":59,"time":289.9778645833302,"velocity":0.8031496062992126,"duration":0.24479166666668561},{"name":"A4","midi":69,"time":290.22526041666356,"velocity":0.8031496062992126,"duration":0.24479166666668561},{"name":"C#4","midi":61,"time":290.22526041666356,"velocity":0.8031496062992126,"duration":0.49218750000005684},{"name":"A5","midi":81,"time":290.47265624999693,"velocity":0.8031496062992126,"duration":0.24479166666668561},{"name":"G#5","midi":80,"time":290.7200520833303,"velocity":0.8031496062992126,"duration":0.24479166666668561},{"name":"A3","midi":57,"time":290.7200520833303,"velocity":0.8031496062992126,"duration":0.49218750000005684},{"name":"C#4","midi":61,"time":290.7200520833303,"velocity":0.8031496062992126,"duration":0.49218750000005684},{"name":"F#5","midi":78,"time":290.9674479166637,"velocity":0.8031496062992126,"duration":0.24479166666668561},{"name":"B5","midi":83,"time":291.21484374999704,"velocity":0.8031496062992126,"duration":0.24479166666668561},{"name":"F#4","midi":66,"time":291.21484374999704,"velocity":0.8031496062992126,"duration":0.49218750000005684},{"name":"D4","midi":62,"time":291.21484374999704,"velocity":0.8031496062992126,"duration":0.49218750000005684},{"name":"G#5","midi":80,"time":291.4622395833304,"velocity":0.8031496062992126,"duration":0.24479166666668561},{"name":"A5","midi":81,"time":291.7096354166638,"velocity":0.8031496062992126,"duration":0.24479166666668561},{"name":"B3","midi":59,"time":291.7096354166638,"velocity":0.8031496062992126,"duration":0.49218750000005684},{"name":"D4","midi":62,"time":291.7096354166638,"velocity":0.8031496062992126,"duration":0.49218750000005684},{"name":"F#5","midi":78,"time":291.95703124999716,"velocity":0.8031496062992126,"duration":0.24479166666668561},{"name":"F#5","midi":78,"time":292.20442708333053,"velocity":0.8031496062992126,"duration":0.16276041666668561},{"name":"C#4","midi":61,"time":292.20442708333053,"velocity":0.8031496062992126,"duration":0.7369791666666856},{"name":"F5","midi":77,"time":292.3697916666639,"velocity":0.8031496062992126,"duration":0.07942708333331439},{"name":"F#5","midi":78,"time":292.4518229166639,"velocity":0.8031496062992126,"duration":0.07942708333331439},{"name":"C#5","midi":73,"time":292.4518229166639,"velocity":0.8031496062992126,"duration":1.2343750000001137},{"name":"F5","midi":77,"time":292.5338541666639,"velocity":0.8031496062992126,"duration":0.07942708333331439},{"name":"F#5","midi":78,"time":292.6158854166639,"velocity":0.8031496062992126,"duration":0.07942708333331439},{"name":"F5","midi":77,"time":292.6979166666639,"velocity":0.8031496062992126,"duration":0.07942708333331439},{"name":"G#4","midi":68,"time":292.6979166666639,"velocity":0.8031496062992126,"duration":0.9778645833334281},{"name":"F#5","midi":78,"time":292.7799479166639,"velocity":0.8031496062992126,"duration":0.07942708333331439},{"name":"F5","midi":77,"time":292.8619791666639,"velocity":0.8031496062992126,"duration":0.8216145833334281},{"name":"B3","midi":59,"time":292.9440104166639,"velocity":0.8031496062992126,"duration":0.24479166666668561},{"name":"A3","midi":57,"time":293.19140624999727,"velocity":0.8031496062992126,"duration":0.24479166666668561},{"name":"G#3","midi":56,"time":293.43880208333064,"velocity":0.8031496062992126,"duration":0.24479166666668561},{"name":"A4","midi":69,"time":293.686197916664,"velocity":0.8031496062992126,"duration":0.48958333333337123},{"name":"F#3","midi":54,"time":293.686197916664,"velocity":0.8031496062992126,"duration":0.24479166666668561},{"name":"C#5","midi":73,"time":293.7942708333307,"velocity":0.8031496062992126,"duration":0.38671875000005684},{"name":"F#5","midi":78,"time":293.9023437499974,"velocity":0.8031496062992126,"duration":0.2760416666666856},{"name":"F3","midi":53,"time":293.9335937499974,"velocity":0.8031496062992126,"duration":0.24479166666668561},{"name":"E5","midi":76,"time":294.18098958333076,"velocity":0.8031496062992126,"duration":0.16276041666668561},{"name":"F#3","midi":54,"time":294.18098958333076,"velocity":0.8031496062992126,"duration":0.49218750000005684},{"name":"G#3","midi":56,"time":294.28906249999744,"velocity":0.8031496062992126,"duration":0.10677083333337123},{"name":"D#5","midi":75,"time":294.3463541666641,"velocity":0.8031496062992126,"duration":0.08072916666668561},{"name":"A3","midi":57,"time":294.3984374999975,"velocity":0.8031496062992126,"duration":0.2747395833333144},{"name":"E5","midi":76,"time":294.4296874999975,"velocity":0.8031496062992126,"duration":0.07942708333331439},{"name":"D#5","midi":75,"time":294.5117187499975,"velocity":0.8031496062992126,"duration":0.07942708333331439},{"name":"E5","midi":76,"time":294.5937499999975,"velocity":0.8031496062992126,"duration":0.07942708333331439},{"name":"D#5","midi":75,"time":294.6757812499975,"velocity":0.8031496062992126,"duration":0.24479166666668561},{"name":"G#3","midi":56,"time":294.6757812499975,"velocity":0.8031496062992126,"duration":0.49218750000005684},{"name":"A3","midi":57,"time":294.7838541666642,"velocity":0.8031496062992126,"duration":0.10546875},{"name":"B3","midi":59,"time":294.89192708333087,"velocity":0.8031496062992126,"duration":0.2760416666666856},{"name":"E5","midi":76,"time":294.92317708333087,"velocity":0.8031496062992126,"duration":0.24479166666668561},{"name":"C#5","midi":73,"time":295.17057291666424,"velocity":0.8031496062992126,"duration":0.07942708333331439},{"name":"A3","midi":57,"time":295.17057291666424,"velocity":0.8031496062992126,"duration":0.7382812500000568},{"name":"B4","midi":71,"time":295.25260416666424,"velocity":0.8031496062992126,"duration":0.07942708333331439},{"name":"C#5","midi":73,"time":295.33463541666424,"velocity":0.8031496062992126,"duration":0.5664062500000568},{"name":"C#4","midi":61,"time":295.41666666666424,"velocity":0.8031496062992126,"duration":0.24479166666668561},{"name":"F#4","midi":66,"time":295.6640624999976,"velocity":0.8031496062992126,"duration":0.48958333333337123},{"name":"D5","midi":74,"time":295.911458333331,"velocity":0.8031496062992126,"duration":0.24479166666668561},{"name":"B3","midi":59,"time":295.911458333331,"velocity":0.8031496062992126,"duration":0.24479166666668561},{"name":"F4","midi":65,"time":296.15885416666436,"velocity":0.8031496062992126,"duration":0.48958333333337123},{"name":"C#5","midi":73,"time":296.15885416666436,"velocity":0.8031496062992126,"duration":0.16276041666668561},{"name":"G#3","midi":56,"time":296.15885416666436,"velocity":0.8031496062992126,"duration":0.49218750000005684},{"name":"B4","midi":71,"time":296.3242187499977,"velocity":0.8031496062992126,"duration":0.07942708333331439},{"name":"C#5","midi":73,"time":296.4062499999977,"velocity":0.8031496062992126,"duration":0.07942708333331439},{"name":"B4","midi":71,"time":296.4882812499977,"velocity":0.8031496062992126,"duration":0.07942708333331439},{"name":"C#5","midi":73,"time":296.5703124999977,"velocity":0.8031496062992126,"duration":0.08072916666668561},{"name":"B4","midi":71,"time":296.6536458333311,"velocity":0.8031496062992126,"duration":0.24479166666668561},{"name":"F#4","midi":66,"time":296.6536458333311,"velocity":0.8031496062992126,"duration":0.48958333333337123},{"name":"F#3","midi":54,"time":296.6536458333311,"velocity":0.8031496062992126,"duration":0.49218750000005684},{"name":"A4","midi":69,"time":296.90104166666447,"velocity":0.8031496062992126,"duration":0.24479166666668561},{"name":"F4","midi":65,"time":297.14843749999784,"velocity":0.8031496062992126,"duration":0.9778645833334281},{"name":"A4","midi":69,"time":297.14843749999784,"velocity":0.8031496062992126,"duration":0.16276041666668561},{"name":"C#4","midi":61,"time":297.14843749999784,"velocity":0.8031496062992126,"duration":0.4908854166666856},{"name":"G#4","midi":68,"time":297.3138020833312,"velocity":0.8031496062992126,"duration":0.07942708333331439},{"name":"A4","midi":69,"time":297.3958333333312,"velocity":0.8031496062992126,"duration":0.07942708333331439},{"name":"G#4","midi":68,"time":297.4778645833312,"velocity":0.8031496062992126,"duration":0.07942708333331439},{"name":"A4","midi":69,"time":297.5598958333312,"velocity":0.8031496062992126,"duration":0.07942708333331439},{"name":"G#4","midi":68,"time":297.6419270833312,"velocity":0.8031496062992126,"duration":0.24479166666668561},{"name":"C#3","midi":49,"time":297.6419270833312,"velocity":0.8031496062992126,"duration":0.49218750000005684},{"name":"F#4","midi":66,"time":297.8893229166646,"velocity":0.8031496062992126,"duration":0.24479166666668561},{"name":"A3","midi":57,"time":298.13671874999795,"velocity":0.8031496062992126,"duration":0.9791666666667993},{"name":"F#2","midi":42,"time":298.13671874999795,"velocity":0.8031496062992126,"duration":0.9791666666667993},{"name":"C#4","midi":61,"time":298.24479166666464,"velocity":0.8031496062992126,"duration":0.8763020833334281},{"name":"F#4","midi":66,"time":298.3528645833313,"velocity":0.8031496062992126,"duration":1.0182291666667993},{"name":"C#3","midi":49,"time":298.3841145833313,"velocity":0.8031496062992126,"duration":0.24479166666668561},{"name":"D#3","midi":51,"time":298.6315104166647,"velocity":0.8031496062992126,"duration":0.24479166666668561},{"name":"F3","midi":53,"time":298.87890624999807,"velocity":0.8031496062992126,"duration":0.24479166666668561},{"name":"F#3","midi":54,"time":299.12630208333144,"velocity":0.8031496062992126,"duration":0.48958333333337123},{"name":"F#5","midi":78,"time":299.3736979166648,"velocity":0.8031496062992126,"duration":0.24479166666668561},{"name":"A3","midi":57,"time":299.3736979166648,"velocity":0.8031496062992126,"duration":0.24479166666668561},{"name":"E5","midi":76,"time":299.6210937499982,"velocity":0.8031496062992126,"duration":0.24479166666668561},{"name":"G#3","midi":56,"time":299.6210937499982,"velocity":0.8031496062992126,"duration":0.48958333333337123},{"name":"D5","midi":74,"time":299.86848958333155,"velocity":0.8031496062992126,"duration":0.24479166666668561},{"name":"B3","midi":59,"time":299.86848958333155,"velocity":0.8031496062992126,"duration":0.24479166666668561},{"name":"D5","midi":74,"time":300.1158854166649,"velocity":0.8031496062992126,"duration":0.16276041666668561},{"name":"A#3","midi":58,"time":300.1158854166649,"velocity":0.8031496062992126,"duration":0.48958333333337123},{"name":"C#5","midi":73,"time":300.2812499999983,"velocity":0.8031496062992126,"duration":0.07942708333331439},{"name":"D5","midi":74,"time":300.3632812499983,"velocity":0.8031496062992126,"duration":0.07942708333331439},{"name":"C#4","midi":61,"time":300.3632812499983,"velocity":0.8031496062992126,"duration":0.7226562500000568},{"name":"C#5","midi":73,"time":300.4453124999983,"velocity":0.8031496062992126,"duration":0.07942708333331439},{"name":"D5","midi":74,"time":300.5273437499983,"velocity":0.8031496062992126,"duration":0.08072916666668561},{"name":"C#5","midi":73,"time":300.61067708333167,"velocity":0.8031496062992126,"duration":0.24479166666668561},{"name":"F#3","midi":54,"time":300.61067708333167,"velocity":0.8031496062992126,"duration":0.49348958333337123},{"name":"D5","midi":74,"time":300.85807291666504,"velocity":0.8031496062992126,"duration":0.24609375},{"name":"E5","midi":76,"time":301.1067708333317,"velocity":0.8031496062992126,"duration":0.24479166666668561},{"name":"B3","midi":59,"time":301.1067708333317,"velocity":0.8031496062992126,"duration":0.7395833333334281},{"name":"D5","midi":74,"time":301.3541666666651,"velocity":0.8031496062992126,"duration":0.24479166666668561},{"name":"C#5","midi":73,"time":301.60156249999847,"velocity":0.8031496062992126,"duration":0.24479166666668561},{"name":"B4","midi":71,"time":301.84895833333184,"velocity":0.8031496062992126,"duration":0.24479166666668561},{"name":"C#4","midi":61,"time":301.84895833333184,"velocity":0.8031496062992126,"duration":0.24479166666668561},{"name":"B5","midi":83,"time":302.0963541666652,"velocity":0.8031496062992126,"duration":0.07942708333331439},{"name":"D4","midi":62,"time":302.0963541666652,"velocity":0.8031496062992126,"duration":0.24348958333331439},{"name":"A5","midi":81,"time":302.1783854166652,"velocity":0.8031496062992126,"duration":0.07942708333331439},{"name":"B5","midi":83,"time":302.2604166666652,"velocity":0.8031496062992126,"duration":0.5742187500000568},{"name":"F#4","midi":66,"time":302.3424479166652,"velocity":0.8031496062992126,"duration":0.24479166666668561},{"name":"E4","midi":64,"time":302.5898437499986,"velocity":0.8031496062992126,"duration":0.24479166666668561},{"name":"G#5","midi":80,"time":302.83723958333195,"velocity":0.8031496062992126,"duration":0.24479166666668561},{"name":"D4","midi":62,"time":302.83723958333195,"velocity":0.8031496062992126,"duration":0.24479166666668561},{"name":"G#5","midi":80,"time":303.0846354166653,"velocity":0.8031496062992126,"duration":0.24479166666668561},{"name":"C#4","midi":61,"time":303.0846354166653,"velocity":0.8031496062992126,"duration":0.4908854166666856},{"name":"D4","midi":62,"time":303.192708333332,"velocity":0.8031496062992126,"duration":0.10546875},{"name":"E4","midi":64,"time":303.3007812499987,"velocity":0.8031496062992126,"duration":0.2747395833333144},{"name":"A5","midi":81,"time":303.3320312499987,"velocity":0.8031496062992126,"duration":0.07942708333331439},{"name":"G#5","midi":80,"time":303.4140624999987,"velocity":0.8031496062992126,"duration":0.07942708333331439},{"name":"A5","midi":81,"time":303.4960937499987,"velocity":0.8031496062992126,"duration":0.3268229166666856},{"name":"D#4","midi":63,"time":303.5781249999987,"velocity":0.8031496062992126,"duration":0.49218750000005684},{"name":"E4","midi":64,"time":303.6861979166654,"velocity":0.8031496062992126,"duration":0.10546875},{"name":"F#4","midi":66,"time":303.79427083333206,"velocity":0.8031496062992126,"duration":0.2760416666666856},{"name":"B5","midi":83,"time":303.82552083333206,"velocity":0.8031496062992126,"duration":0.24479166666668561},{"name":"A5","midi":81,"time":304.07291666666544,"velocity":0.8031496062992126,"duration":0.16276041666668561},{"name":"E4","midi":64,"time":304.07291666666544,"velocity":0.8031496062992126,"duration":0.7213541666666856},{"name":"G#5","midi":80,"time":304.2382812499988,"velocity":0.8031496062992126,"duration":0.07942708333331439},{"name":"A5","midi":81,"time":304.3203124999988,"velocity":0.8031496062992126,"duration":0.07942708333331439},{"name":"G#4","midi":68,"time":304.3203124999988,"velocity":0.8031496062992126,"duration":0.4921875},{"name":"G#5","midi":80,"time":304.4023437499988,"velocity":0.8031496062992126,"duration":0.07942708333331439},{"name":"A5","midi":81,"time":304.4843749999988,"velocity":0.8031496062992126,"duration":0.07942708333331439},{"name":"G#5","midi":80,"time":304.5664062499988,"velocity":0.8031496062992126,"duration":0.24609375},{"name":"B4","midi":71,"time":304.5664062499988,"velocity":0.8031496062992126,"duration":0.4908854166666856},{"name":"F#5","midi":78,"time":304.8151041666655,"velocity":0.8031496062992126,"duration":0.24479166666668561},{"name":"D4","midi":62,"time":304.8151041666655,"velocity":0.8031496062992126,"duration":0.24479166666668561},{"name":"E5","midi":76,"time":305.06249999999886,"velocity":0.8031496062992126,"duration":0.24479166666668561},{"name":"C#4","midi":61,"time":305.06249999999886,"velocity":0.8031496062992126,"duration":0.24479166666668561},{"name":"D5","midi":74,"time":305.30989583333223,"velocity":0.8031496062992126,"duration":0.24479166666668561},{"name":"B3","midi":59,"time":305.30989583333223,"velocity":0.8031496062992126,"duration":0.24479166666668561},{"name":"C#5","midi":73,"time":305.5572916666656,"velocity":0.8031496062992126,"duration":0.24479166666668561},{"name":"A3","midi":57,"time":305.5572916666656,"velocity":0.8031496062992126,"duration":0.24479166666668561},{"name":"B4","midi":71,"time":305.804687499999,"velocity":0.8031496062992126,"duration":0.24479166666668561},{"name":"G#3","midi":56,"time":305.804687499999,"velocity":0.8031496062992126,"duration":0.24479166666668561},{"name":"A4","midi":69,"time":306.05208333333235,"velocity":0.8031496062992126,"duration":0.24479166666668561},{"name":"F#3","midi":54,"time":306.05208333333235,"velocity":0.8031496062992126,"duration":0.24479166666668561},{"name":"G#4","midi":68,"time":306.2994791666657,"velocity":0.8031496062992126,"duration":0.24479166666668561},{"name":"E3","midi":52,"time":306.2994791666657,"velocity":0.8031496062992126,"duration":0.24479166666668561},{"name":"A4","midi":69,"time":306.5468749999991,"velocity":0.8031496062992126,"duration":0.24479166666668561},{"name":"D3","midi":50,"time":306.5468749999991,"velocity":0.8031496062992126,"duration":0.24479166666668561},{"name":"F#4","midi":66,"time":306.79427083333246,"velocity":0.8031496062992126,"duration":0.24479166666668561},{"name":"C#3","midi":49,"time":306.79427083333246,"velocity":0.8031496062992126,"duration":0.24479166666668561},{"name":"D5","midi":74,"time":307.04166666666583,"velocity":0.8031496062992126,"duration":0.07942708333331439},{"name":"B2","midi":47,"time":307.04166666666583,"velocity":0.8031496062992126,"duration":0.24348958333331439},{"name":"C#5","midi":73,"time":307.12369791666583,"velocity":0.8031496062992126,"duration":0.07942708333331439},{"name":"D5","midi":74,"time":307.20572916666583,"velocity":0.8031496062992126,"duration":0.5742187500000568},{"name":"A2","midi":45,"time":307.28776041666583,"velocity":0.8031496062992126,"duration":0.24479166666668561},{"name":"B2","midi":47,"time":307.5351562499992,"velocity":0.8031496062992126,"duration":0.24479166666668561},{"name":"E5","midi":76,"time":307.7825520833326,"velocity":0.8031496062992126,"duration":0.24479166666668561},{"name":"G#2","midi":44,"time":307.7825520833326,"velocity":0.8031496062992126,"duration":0.24479166666668561},{"name":"D5","midi":74,"time":308.02994791666595,"velocity":0.8031496062992126,"duration":0.16276041666668561},{"name":"A2","midi":45,"time":308.02994791666595,"velocity":0.8031496062992126,"duration":0.4908854166666856},{"name":"C#5","midi":73,"time":308.1953124999993,"velocity":0.8031496062992126,"duration":0.07942708333331439},{"name":"D5","midi":74,"time":308.2773437499993,"velocity":0.8031496062992126,"duration":0.07942708333331439},{"name":"C#5","midi":73,"time":308.3593749999993,"velocity":0.8031496062992126,"duration":0.07942708333331439},{"name":"D5","midi":74,"time":308.4414062499993,"velocity":0.8031496062992126,"duration":0.07942708333331439},{"name":"C#5","midi":73,"time":308.5234374999993,"velocity":0.8031496062992126,"duration":0.24479166666668561},{"name":"A4","midi":69,"time":308.5234374999993,"velocity":0.8031496062992126,"duration":0.48958333333337123},{"name":"D3","midi":50,"time":308.5234374999993,"velocity":0.8031496062992126,"duration":0.49218750000005684},{"name":"B4","midi":71,"time":308.7708333333327,"velocity":0.8031496062992126,"duration":0.24479166666668561},{"name":"C#5","midi":73,"time":309.01822916666606,"velocity":0.8031496062992126,"duration":0.16276041666668561},{"name":"G#4","midi":68,"time":309.01822916666606,"velocity":0.8031496062992126,"duration":0.9778645833334281},{"name":"E3","midi":52,"time":309.01822916666606,"velocity":0.8031496062992126,"duration":0.9778645833334281},{"name":"B4","midi":71,"time":309.18359374999943,"velocity":0.8031496062992126,"duration":0.07942708333331439},{"name":"C#5","midi":73,"time":309.26562499999943,"velocity":0.8031496062992126,"duration":0.07942708333331439},{"name":"B4","midi":71,"time":309.34765624999943,"velocity":0.8031496062992126,"duration":0.07942708333331439},{"name":"C#5","midi":73,"time":309.42968749999943,"velocity":0.8031496062992126,"duration":0.07942708333331439},{"name":"B4","midi":71,"time":309.51171874999943,"velocity":0.8031496062992126,"duration":0.24479166666668561},{"name":"C#3","midi":49,"time":309.51171874999943,"velocity":0.8031496062992126,"duration":0.49218750000005684},{"name":"A4","midi":69,"time":309.7591145833328,"velocity":0.8031496062992126,"duration":0.24479166666668561},{"name":"A4","midi":69,"time":310.0065104166662,"velocity":0.8031496062992126,"duration":1.9765625000002842},{"name":"F#3","midi":54,"time":310.0065104166662,"velocity":0.8031496062992126,"duration":0.24479166666668561},{"name":"G#3","midi":56,"time":310.25390624999955,"velocity":0.8031496062992126,"duration":0.24479166666668561},{"name":"F#3","midi":54,"time":310.5013020833329,"velocity":0.8031496062992126,"duration":0.24479166666668561},{"name":"G#4","midi":68,"time":310.7486979166663,"velocity":0.8031496062992126,"duration":0.24479166666668561},{"name":"E3","midi":52,"time":310.7486979166663,"velocity":0.8031496062992126,"duration":0.24479166666668561},{"name":"F#4","midi":66,"time":310.99609374999966,"velocity":0.8031496062992126,"duration":0.24479166666668561},{"name":"D3","midi":50,"time":310.99609374999966,"velocity":0.8031496062992126,"duration":0.24479166666668561},{"name":"E4","midi":64,"time":311.24348958333303,"velocity":0.8031496062992126,"duration":0.24479166666668561},{"name":"C#3","midi":49,"time":311.24348958333303,"velocity":0.8031496062992126,"duration":0.24479166666668561},{"name":"D4","midi":62,"time":311.4908854166664,"velocity":0.8031496062992126,"duration":0.24479166666668561},{"name":"B2","midi":47,"time":311.4908854166664,"velocity":0.8031496062992126,"duration":0.24479166666668561},{"name":"C#4","midi":61,"time":311.7382812499998,"velocity":0.8031496062992126,"duration":0.24479166666668561},{"name":"A2","midi":45,"time":311.7382812499998,"velocity":0.8031496062992126,"duration":0.24479166666668561},{"name":"B3","midi":59,"time":311.98567708333314,"velocity":0.8031496062992126,"duration":0.98046875},{"name":"E3","midi":52,"time":311.98567708333314,"velocity":0.8031496062992126,"duration":0.98046875},{"name":"D4","midi":62,"time":312.23307291666646,"velocity":0.8031496062992126,"duration":0.72265625},{"name":"A4","midi":69,"time":312.4804687499998,"velocity":0.8031496062992126,"duration":0.24479166666668561},{"name":"E2","midi":40,"time":312.4804687499998,"velocity":0.8031496062992126,"duration":0.49348958333337123},{"name":"G#4","midi":68,"time":312.72786458333314,"velocity":0.8031496062992126,"duration":0.24609375},{"name":"A4","midi":69,"time":312.97656249999983,"velocity":0.8031496062992126,"duration":1.4830729166667425},{"name":"A2","midi":45,"time":312.97656249999983,"velocity":0.8031496062992126,"duration":0.98046875},{"name":"A1","midi":33,"time":313.47265624999983,"velocity":0.8031496062992126,"duration":1.977864583333485},{"name":"E4","midi":64,"time":313.72005208333314,"velocity":0.8031496062992126,"duration":0.24479166666668561},{"name":"F#4","midi":66,"time":313.9674479166665,"velocity":0.8031496062992126,"duration":0.24479166666668561},{"name":"E2","midi":40,"time":313.9674479166665,"velocity":0.8031496062992126,"duration":0.49218750000005684},{"name":"D4","midi":62,"time":314.2148437499999,"velocity":0.8031496062992126,"duration":0.24479166666668561},{"name":"C#4","midi":61,"time":314.46223958333326,"velocity":0.8031496062992126,"duration":1.2382812500000568},{"name":"A2","midi":45,"time":314.46223958333326,"velocity":0.8031496062992126,"duration":0.9804687500000568},{"name":"E4","midi":64,"time":314.57031249999994,"velocity":0.8031496062992126,"duration":1.1354166666666856},{"name":"A4","midi":69,"time":314.67838541666663,"velocity":0.8031496062992126,"duration":1.0065104166666856},{"name":"A4","midi":69,"time":315.7005208333333,"velocity":0.8031496062992126,"duration":0.24479166666662877},{"name":"A4","midi":69,"time":315.94791666666663,"velocity":0.8031496062992126,"duration":1.481770833333428},{"name":"A2","midi":45,"time":315.94791666666663,"velocity":0.8031496062992126,"duration":0.7395833333333144},{"name":"E4","midi":64,"time":316.19531249999994,"velocity":0.8031496062992126,"duration":1.2369791666667993},{"name":"C#4","midi":61,"time":316.44270833333326,"velocity":0.8031496062992126,"duration":0.9869791666667993},{"name":"B2","midi":47,"time":316.69010416666663,"velocity":0.8031496062992126,"duration":0.12109375},{"name":"C#3","midi":49,"time":316.8138020833333,"velocity":0.8031496062992126,"duration":0.12109375},{"name":"B2","midi":47,"time":316.9375,"velocity":0.8031496062992126,"duration":0.24479166666668561},{"name":"C#3","midi":49,"time":317.18489583333337,"velocity":0.8031496062992126,"duration":0.12109375},{"name":"D3","midi":50,"time":317.30859375000006,"velocity":0.8031496062992126,"duration":0.12109375},{"name":"E4","midi":64,"time":317.43229166666674,"velocity":0.8031496062992126,"duration":0.4934895833333144},{"name":"C#3","midi":49,"time":317.43229166666674,"velocity":0.8031496062992126,"duration":0.4934895833333144},{"name":"F#4","midi":66,"time":317.92838541666674,"velocity":0.8031496062992126,"duration":0.07942708333331439},{"name":"C#3","midi":49,"time":317.92838541666674,"velocity":0.8031496062992126,"duration":0.16145833333331439},{"name":"E4","midi":64,"time":318.01041666666674,"velocity":0.8031496062992126,"duration":0.07942708333331439},{"name":"F#4","midi":66,"time":318.09244791666674,"velocity":0.8031496062992126,"duration":0.5742187500000568},{"name":"B2","midi":47,"time":318.09244791666674,"velocity":0.8031496062992126,"duration":0.07942708333331439},{"name":"C#3","midi":49,"time":318.17447916666674,"velocity":0.8031496062992126,"duration":0.07942708333331439},{"name":"B2","midi":47,"time":318.25651041666674,"velocity":0.8031496062992126,"duration":0.16276041666668561},{"name":"A2","midi":45,"time":318.4218750000001,"velocity":0.8031496062992126,"duration":0.49218750000005684},{"name":"G4","midi":67,"time":318.6692708333335,"velocity":0.8031496062992126,"duration":0.24479166666668561},{"name":"G4","midi":67,"time":318.91666666666686,"velocity":0.8031496062992126,"duration":0.16276041666668561},{"name":"D3","midi":50,"time":318.91666666666686,"velocity":0.8031496062992126,"duration":0.4908854166666856},{"name":"F#4","midi":66,"time":319.0820312500002,"velocity":0.8031496062992126,"duration":0.07942708333331439},{"name":"G4","midi":67,"time":319.1640625000002,"velocity":0.8031496062992126,"duration":0.07942708333331439},{"name":"F#4","midi":66,"time":319.2460937500002,"velocity":0.8031496062992126,"duration":0.07942708333331439},{"name":"G4","midi":67,"time":319.3281250000002,"velocity":0.8031496062992126,"duration":0.07942708333331439},{"name":"F#4","midi":66,"time":319.4101562500002,"velocity":0.8031496062992126,"duration":0.24479166666668561},{"name":"D3","midi":50,"time":319.4101562500002,"velocity":0.8031496062992126,"duration":0.16276041666668561},{"name":"C#3","midi":49,"time":319.5755208333336,"velocity":0.8031496062992126,"duration":0.07942708333331439},{"name":"A4","midi":69,"time":319.6575520833336,"velocity":0.8031496062992126,"duration":0.24479166666668561},{"name":"D3","midi":50,"time":319.6575520833336,"velocity":0.8031496062992126,"duration":0.07942708333331439},{"name":"C#3","midi":49,"time":319.7395833333336,"velocity":0.8031496062992126,"duration":0.16276041666668561},{"name":"D5","midi":74,"time":319.90494791666697,"velocity":0.8031496062992126,"duration":0.12109375},{"name":"B2","midi":47,"time":319.90494791666697,"velocity":0.8031496062992126,"duration":0.49218750000005684},{"name":"C#5","midi":73,"time":320.02864583333366,"velocity":0.8031496062992126,"duration":0.12109375},{"name":"D5","midi":74,"time":320.15234375000034,"velocity":0.8031496062992126,"duration":0.49218750000005684},{"name":"G#3","midi":56,"time":320.3997395833337,"velocity":0.8031496062992126,"duration":0.49218750000005684},{"name":"E5","midi":76,"time":320.6471354166671,"velocity":0.8031496062992126,"duration":0.24479166666668561},{"name":"D5","midi":74,"time":320.89453125000045,"velocity":0.8031496062992126,"duration":0.16145833333331439},{"name":"A3","midi":57,"time":320.89453125000045,"velocity":0.8031496062992126,"duration":0.07942708333331439},{"name":"G#3","midi":56,"time":320.97656250000045,"velocity":0.8031496062992126,"duration":0.07942708333331439},{"name":"C#5","midi":73,"time":321.05859375000045,"velocity":0.8031496062992126,"duration":0.07942708333331439},{"name":"A3","midi":57,"time":321.05859375000045,"velocity":0.8031496062992126,"duration":0.3255208333333144},{"name":"D5","midi":74,"time":321.14062500000045,"velocity":0.8031496062992126,"duration":0.07942708333331439},{"name":"C#5","midi":73,"time":321.22265625000045,"velocity":0.8031496062992126,"duration":0.07942708333331439},{"name":"D5","midi":74,"time":321.30468750000045,"velocity":0.8031496062992126,"duration":0.07942708333331439},{"name":"C#5","midi":73,"time":321.38671875000045,"velocity":0.8031496062992126,"duration":0.24479166666668561},{"name":"A2","midi":45,"time":321.38671875000045,"velocity":0.8031496062992126,"duration":0.49218750000005684},{"name":"B4","midi":71,"time":321.6341145833338,"velocity":0.8031496062992126,"duration":0.24479166666668561},{"name":"B4","midi":71,"time":321.8815104166672,"velocity":0.8031496062992126,"duration":1.481770833333428},{"name":"E3","midi":52,"time":321.8815104166672,"velocity":0.8031496062992126,"duration":0.7395833333333144},{"name":"G#4","midi":68,"time":322.1289062500005,"velocity":0.8031496062992126,"duration":1.2369791666667993},{"name":"E4","midi":64,"time":322.3763020833338,"velocity":0.8031496062992126,"duration":0.9869791666667993},{"name":"F#3","midi":54,"time":322.6236979166672,"velocity":0.8031496062992126,"duration":0.12109375},{"name":"G#3","midi":56,"time":322.7473958333339,"velocity":0.8031496062992126,"duration":0.12109375},{"name":"F#3","midi":54,"time":322.87109375000057,"velocity":0.8031496062992126,"duration":0.24479166666668561},{"name":"G#3","midi":56,"time":323.11848958333394,"velocity":0.8031496062992126,"duration":0.12109375},{"name":"A3","midi":57,"time":323.2421875000006,"velocity":0.8031496062992126,"duration":0.12109375},{"name":"E5","midi":76,"time":323.3658854166673,"velocity":0.8031496062992126,"duration":0.07942708333331439},{"name":"G#3","midi":56,"time":323.3658854166673,"velocity":0.8031496062992126,"duration":0.4921875},{"name":"D5","midi":74,"time":323.4479166666673,"velocity":0.8031496062992126,"duration":0.07942708333331439},{"name":"E5","midi":76,"time":323.5299479166673,"velocity":0.8031496062992126,"duration":0.328125},{"name":"E5","midi":76,"time":323.860677083334,"velocity":0.8031496062992126,"duration":0.16276041666668561},{"name":"G#3","midi":56,"time":323.860677083334,"velocity":0.8031496062992126,"duration":0.16276041666668561},{"name":"D5","midi":74,"time":324.02604166666737,"velocity":0.8031496062992126,"duration":0.07942708333331439},{"name":"F#3","midi":54,"time":324.02604166666737,"velocity":0.8031496062992126,"duration":0.07942708333331439},{"name":"E5","midi":76,"time":324.10807291666737,"velocity":0.8031496062992126,"duration":0.07942708333331439},{"name":"G#3","midi":56,"time":324.10807291666737,"velocity":0.8031496062992126,"duration":0.07942708333331439},{"name":"D5","midi":74,"time":324.19010416666737,"velocity":0.8031496062992126,"duration":0.07942708333331439},{"name":"F#3","midi":54,"time":324.19010416666737,"velocity":0.8031496062992126,"duration":0.16145833333331439},{"name":"E5","midi":76,"time":324.27213541666737,"velocity":0.8031496062992126,"duration":0.07942708333331439},{"name":"D5","midi":74,"time":324.35416666666737,"velocity":0.8031496062992126,"duration":0.24479166666668561},{"name":"E3","midi":52,"time":324.35416666666737,"velocity":0.8031496062992126,"duration":0.49218750000005684},{"name":"E5","midi":76,"time":324.60156250000074,"velocity":0.8031496062992126,"duration":0.24479166666668561},{"name":"D5","midi":74,"time":324.8489583333341,"velocity":0.8031496062992126,"duration":0.07942708333331439},{"name":"A3","midi":57,"time":324.8489583333341,"velocity":0.8031496062992126,"duration":0.4908854166666856},{"name":"C#5","midi":73,"time":324.9309895833341,"velocity":0.8031496062992126,"duration":0.07942708333331439},{"name":"D5","midi":74,"time":325.0130208333341,"velocity":0.8031496062992126,"duration":0.07942708333331439},{"name":"C#5","midi":73,"time":325.0950520833341,"velocity":0.8031496062992126,"duration":0.49218750000005684},{"name":"B3","midi":59,"time":325.3424479166675,"velocity":0.8031496062992126,"duration":0.49218750000005684},{"name":"B4","midi":71,"time":325.58984375000085,"velocity":0.8031496062992126,"duration":0.24479166666668561},{"name":"A4","midi":69,"time":325.8372395833342,"velocity":0.8031496062992126,"duration":0.24479166666668561},{"name":"C#4","midi":61,"time":325.8372395833342,"velocity":0.8031496062992126,"duration":0.49218750000005684},{"name":"C#5","midi":73,"time":326.0846354166676,"velocity":0.8031496062992126,"duration":0.24479166666668561},{"name":"F#5","midi":78,"time":326.33203125000097,"velocity":0.8031496062992126,"duration":0.4934895833333144},{"name":"F#3","midi":54,"time":326.33203125000097,"velocity":0.8031496062992126,"duration":0.4934895833333144},{"name":"A3","midi":57,"time":326.33203125000097,"velocity":0.8031496062992126,"duration":0.4934895833333144},{"name":"F#5","midi":78,"time":326.82812500000097,"velocity":0.8031496062992126,"duration":0.16276041666668561},{"name":"B3","midi":59,"time":326.82812500000097,"velocity":0.8031496062992126,"duration":0.4908854166666856},{"name":"G#3","midi":56,"time":326.82812500000097,"velocity":0.8031496062992126,"duration":0.4908854166666856},{"name":"E5","midi":76,"time":326.99348958333434,"velocity":0.8031496062992126,"duration":0.07942708333331439},{"name":"F#5","midi":78,"time":327.07552083333434,"velocity":0.8031496062992126,"duration":0.07942708333331439},{"name":"E5","midi":76,"time":327.15755208333434,"velocity":0.8031496062992126,"duration":0.07942708333331439},{"name":"F#5","midi":78,"time":327.23958333333434,"velocity":0.8031496062992126,"duration":0.07942708333331439},{"name":"E5","midi":76,"time":327.32161458333434,"velocity":0.8031496062992126,"duration":0.24479166666668561},{"name":"C#4","midi":61,"time":327.32161458333434,"velocity":0.8031496062992126,"duration":0.49218750000005684},{"name":"A#3","midi":58,"time":327.32161458333434,"velocity":0.8031496062992126,"duration":0.49218750000005684},{"name":"F#5","midi":78,"time":327.5690104166677,"velocity":0.8031496062992126,"duration":0.24479166666668561},{"name":"E5","midi":76,"time":327.8164062500011,"velocity":0.8031496062992126,"duration":0.07942708333331439},{"name":"B3","midi":59,"time":327.8164062500011,"velocity":0.8031496062992126,"duration":0.4908854166666856},{"name":"D#5","midi":75,"time":327.8984375000011,"velocity":0.8031496062992126,"duration":0.07942708333331439},{"name":"E5","midi":76,"time":327.9804687500011,"velocity":0.8031496062992126,"duration":0.07942708333331439},{"name":"D#5","midi":75,"time":328.0625000000011,"velocity":0.8031496062992126,"duration":0.49218750000005684},{"name":"C#4","midi":61,"time":328.30989583333445,"velocity":0.8031496062992126,"duration":0.49218750000005684},{"name":"C#5","midi":73,"time":328.5572916666678,"velocity":0.8031496062992126,"duration":0.24479166666668561},{"name":"B4","midi":71,"time":328.8046875000012,"velocity":0.8031496062992126,"duration":0.98046875},{"name":"D#4","midi":63,"time":328.8046875000012,"velocity":0.8031496062992126,"duration":0.4921875},{"name":"F#5","midi":78,"time":329.0520833333345,"velocity":0.8031496062992126,"duration":0.24479166666668561},{"name":"B5","midi":83,"time":329.2994791666679,"velocity":0.8031496062992126,"duration":0.4934895833333144},{"name":"G#3","midi":56,"time":329.2994791666679,"velocity":0.8031496062992126,"duration":0.4934895833333144},{"name":"E5","midi":76,"time":329.7955729166679,"velocity":0.8031496062992126,"duration":0.48958333333337123},{"name":"B5","midi":83,"time":329.7955729166679,"velocity":0.8031496062992126,"duration":0.16276041666668561},{"name":"C#4","midi":61,"time":329.7955729166679,"velocity":0.8031496062992126,"duration":0.49218750000005684},{"name":"A5","midi":81,"time":329.96093750000125,"velocity":0.8031496062992126,"duration":0.07942708333331439},{"name":"B5","midi":83,"time":330.04296875000125,"velocity":0.8031496062992126,"duration":0.07942708333331439},{"name":"A5","midi":81,"time":330.12500000000125,"velocity":0.8031496062992126,"duration":0.07942708333331439},{"name":"B5","midi":83,"time":330.20703125000125,"velocity":0.8031496062992126,"duration":0.08072916666668561},{"name":"A5","midi":81,"time":330.2903645833346,"velocity":0.8031496062992126,"duration":0.24479166666668561},{"name":"F#5","midi":78,"time":330.2903645833346,"velocity":0.8031496062992126,"duration":0.48958333333337123},{"name":"D#4","midi":63,"time":330.2903645833346,"velocity":0.8031496062992126,"duration":0.49218750000005684},{"name":"B5","midi":83,"time":330.537760416668,"velocity":0.8031496062992126,"duration":0.24479166666668561},{"name":"B4","midi":71,"time":330.78515625000136,"velocity":0.8031496062992126,"duration":1.975260416666913},{"name":"A5","midi":81,"time":330.78515625000136,"velocity":0.8031496062992126,"duration":0.16276041666668561},{"name":"E4","midi":64,"time":330.78515625000136,"velocity":0.8031496062992126,"duration":0.4908854166666856},{"name":"G#5","midi":80,"time":330.95052083333474,"velocity":0.8031496062992126,"duration":0.07942708333331439},{"name":"A5","midi":81,"time":331.03255208333474,"velocity":0.8031496062992126,"duration":0.07942708333331439},{"name":"G#5","midi":80,"time":331.11458333333474,"velocity":0.8031496062992126,"duration":0.07942708333331439},{"name":"A5","midi":81,"time":331.19661458333474,"velocity":0.8031496062992126,"duration":0.07942708333331439},{"name":"G#5","midi":80,"time":331.27864583333474,"velocity":0.8031496062992126,"duration":0.24479166666668561},{"name":"E3","midi":52,"time":331.27864583333474,"velocity":0.8031496062992126,"duration":0.24479166666668561},{"name":"A5","midi":81,"time":331.5260416666681,"velocity":0.8031496062992126,"duration":0.24479166666668561},{"name":"F#3","midi":54,"time":331.5260416666681,"velocity":0.8031496062992126,"duration":0.24479166666668561},{"name":"B5","midi":83,"time":331.7734375000015,"velocity":0.8031496062992126,"duration":0.24479166666668561},{"name":"G#3","midi":56,"time":331.7734375000015,"velocity":0.8031496062992126,"duration":0.49218750000005684},{"name":"G#5","midi":80,"time":332.02083333333485,"velocity":0.8031496062992126,"duration":0.24479166666668561},{"name":"A5","midi":81,"time":332.2682291666682,"velocity":0.8031496062992126,"duration":0.24479166666668561},{"name":"E3","midi":52,"time":332.2682291666682,"velocity":0.8031496062992126,"duration":0.49218750000005684},{"name":"B5","midi":83,"time":332.5156250000016,"velocity":0.8031496062992126,"duration":0.24479166666668561},{"name":"D5","midi":74,"time":332.76302083333496,"velocity":0.8031496062992126,"duration":0.07942708333331439},{"name":"A3","midi":57,"time":332.76302083333496,"velocity":0.8031496062992126,"duration":0.4895833333333144},{"name":"C#5","midi":73,"time":332.84505208333496,"velocity":0.8031496062992126,"duration":0.07942708333331439},{"name":"D5","midi":74,"time":332.92708333333496,"velocity":0.8031496062992126,"duration":0.07942708333331439},{"name":"C#5","midi":73,"time":333.00911458333496,"velocity":0.8031496062992126,"duration":0.07942708333331439},{"name":"B4","midi":71,"time":333.00911458333496,"velocity":0.8031496062992126,"duration":0.24348958333331439},{"name":"D5","midi":74,"time":333.09114583333496,"velocity":0.8031496062992126,"duration":0.07942708333331439},{"name":"C#5","midi":73,"time":333.17317708333496,"velocity":0.8031496062992126,"duration":0.3098958333333144},{"name":"A4","midi":69,"time":333.25520833333496,"velocity":0.8031496062992126,"duration":1.481770833333428},{"name":"F#3","midi":54,"time":333.25520833333496,"velocity":0.8031496062992126,"duration":0.4934895833333144},{"name":"A5","midi":81,"time":333.5039062500016,"velocity":0.8031496062992126,"duration":0.24479166666668561},{"name":"E5","midi":76,"time":333.75130208333496,"velocity":0.8031496062992126,"duration":0.16276041666668561},{"name":"B3","midi":59,"time":333.75130208333496,"velocity":0.8031496062992126,"duration":0.24479166666668561},{"name":"D#5","midi":75,"time":333.91666666666833,"velocity":0.8031496062992126,"duration":0.07942708333331439},{"name":"E5","midi":76,"time":333.99869791666833,"velocity":0.8031496062992126,"duration":0.07942708333331439},{"name":"C#4","midi":61,"time":333.99869791666833,"velocity":0.8031496062992126,"duration":0.24348958333331439},{"name":"D#5","midi":75,"time":334.08072916666833,"velocity":0.8031496062992126,"duration":0.07942708333331439},{"name":"E5","midi":76,"time":334.16276041666833,"velocity":0.8031496062992126,"duration":0.07942708333331439},{"name":"D#5","midi":75,"time":334.24479166666833,"velocity":0.8031496062992126,"duration":0.24479166666668561},{"name":"B3","midi":59,"time":334.24479166666833,"velocity":0.8031496062992126,"duration":0.24479166666668561},{"name":"C#5","midi":73,"time":334.4921875000017,"velocity":0.8031496062992126,"duration":0.24479166666668561},{"name":"A3","midi":57,"time":334.4921875000017,"velocity":0.8031496062992126,"duration":0.24479166666668561},{"name":"B4","midi":71,"time":334.7395833333351,"velocity":0.8031496062992126,"duration":0.24479166666668561},{"name":"G#3","midi":56,"time":334.7395833333351,"velocity":0.8031496062992126,"duration":0.24479166666668561},{"name":"A4","midi":69,"time":334.98697916666845,"velocity":0.8031496062992126,"duration":0.24479166666668561},{"name":"F#3","midi":54,"time":334.98697916666845,"velocity":0.8031496062992126,"duration":0.24479166666668561},{"name":"G#4","midi":68,"time":335.2343750000018,"velocity":0.8031496062992126,"duration":0.24479166666668561},{"name":"E3","midi":52,"time":335.2343750000018,"velocity":0.8031496062992126,"duration":0.49218750000005684},{"name":"E5","midi":76,"time":335.4817708333352,"velocity":0.8031496062992126,"duration":0.24479166666668561},{"name":"G#4","midi":68,"time":335.72916666666856,"velocity":0.8031496062992126,"duration":0.16276041666668561},{"name":"D#4","midi":63,"time":335.72916666666856,"velocity":0.8031496062992126,"duration":0.9778645833334281},{"name":"B3","midi":59,"time":335.72916666666856,"velocity":0.8031496062992126,"duration":0.9778645833334281},{"name":"F#4","midi":66,"time":335.89453125000193,"velocity":0.8031496062992126,"duration":0.07942708333331439},{"name":"G#4","midi":68,"time":335.97656250000193,"velocity":0.8031496062992126,"duration":0.07942708333331439},{"name":"F#4","midi":66,"time":336.05859375000193,"velocity":0.8031496062992126,"duration":0.07942708333331439},{"name":"G#4","midi":68,"time":336.14062500000193,"velocity":0.8031496062992126,"duration":0.07942708333331439},{"name":"F#4","midi":66,"time":336.22265625000193,"velocity":0.8031496062992126,"duration":0.24479166666668561},{"name":"B2","midi":47,"time":336.22265625000193,"velocity":0.8031496062992126,"duration":0.49218750000005684},{"name":"E4","midi":64,"time":336.4700520833353,"velocity":0.8031496062992126,"duration":0.24479166666668561},{"name":"E4","midi":64,"time":336.7174479166687,"velocity":0.8031496062992126,"duration":2.48046875},{"name":"E3","midi":52,"time":336.7174479166687,"velocity":0.8031496062992126,"duration":0.9817708333333144},{"name":"E2","midi":40,"time":337.2135416666687,"velocity":0.8031496062992126,"duration":1.9817708333333144},{"name":"B2","midi":47,"time":337.7096354166687,"velocity":0.8031496062992126,"duration":0.4934895833333144},{"name":"G#3","midi":56,"time":338.2057291666687,"velocity":0.8031496062992126,"duration":1.2369791666666856},{"name":"B3","midi":59,"time":338.2057291666687,"velocity":0.8031496062992126,"duration":1.2369791666666856},{"name":"E3","midi":52,"time":338.2057291666687,"velocity":0.8031496062992126,"duration":0.9817708333333144},{"name":"B4","midi":71,"time":339.4322916666687,"velocity":0.8031496062992126,"duration":0.24479166666668561},{"name":"B4","midi":71,"time":339.69270833333536,"velocity":0.8031496062992126,"duration":1.481770833333428},{"name":"E2","midi":40,"time":339.69270833333536,"velocity":0.8031496062992126,"duration":0.6158854166666288},{"name":"G#4","midi":68,"time":339.9401041666687,"velocity":0.8031496062992126,"duration":1.2369791666667993},{"name":"E4","midi":64,"time":340.187500000002,"velocity":0.8031496062992126,"duration":0.9869791666667993},{"name":"B2","midi":47,"time":340.3111979166687,"velocity":0.8031496062992126,"duration":0.12109375},{"name":"C#3","midi":49,"time":340.43489583333536,"velocity":0.8031496062992126,"duration":0.12109375},{"name":"D3","midi":50,"time":340.55859375000205,"velocity":0.8031496062992126,"duration":0.12109375},{"name":"C#3","midi":49,"time":340.68229166666873,"velocity":0.8031496062992126,"duration":0.24479166666668561},{"name":"D3","midi":50,"time":340.9296875000021,"velocity":0.8031496062992126,"duration":0.12109375},{"name":"E3","midi":52,"time":341.0533854166688,"velocity":0.8031496062992126,"duration":0.12109375},{"name":"E4","midi":64,"time":341.1770833333355,"velocity":0.8031496062992126,"duration":0.4934895833333144},{"name":"G#4","midi":68,"time":341.1770833333355,"velocity":0.8031496062992126,"duration":0.4934895833333144},{"name":"D3","midi":50,"time":341.1770833333355,"velocity":0.8031496062992126,"duration":0.4934895833333144},{"name":"F#4","midi":66,"time":341.6731770833355,"velocity":0.8031496062992126,"duration":0.7213541666666856},{"name":"G#4","midi":68,"time":341.6731770833355,"velocity":0.8031496062992126,"duration":0.24479166666668561},{"name":"D3","midi":50,"time":341.6731770833355,"velocity":0.8031496062992126,"duration":0.16276041666668561},{"name":"C#3","midi":49,"time":341.83854166666885,"velocity":0.8031496062992126,"duration":0.07942708333331439},{"name":"A4","midi":69,"time":341.92057291666885,"velocity":0.8031496062992126,"duration":0.07942708333331439},{"name":"D3","midi":50,"time":341.92057291666885,"velocity":0.8031496062992126,"duration":0.07942708333331439},{"name":"G#4","midi":68,"time":342.00260416666885,"velocity":0.8031496062992126,"duration":0.07942708333331439},{"name":"C#3","midi":49,"time":342.00260416666885,"velocity":0.8031496062992126,"duration":0.16145833333331439},{"name":"A4","midi":69,"time":342.08463541666885,"velocity":0.8031496062992126,"duration":0.328125},{"name":"B2","midi":47,"time":342.16666666666885,"velocity":0.8031496062992126,"duration":0.49348958333337123},{"name":"B4","midi":71,"time":342.41536458333553,"velocity":0.8031496062992126,"duration":0.24479166666668561},{"name":"G#4","midi":68,"time":342.41536458333553,"velocity":0.8031496062992126,"duration":0.24479166666668561},{"name":"A4","midi":69,"time":342.6627604166689,"velocity":0.8031496062992126,"duration":0.7408854166666856},{"name":"C#5","midi":73,"time":342.6627604166689,"velocity":0.8031496062992126,"duration":0.7408854166666856},{"name":"A2","midi":45,"time":342.6627604166689,"velocity":0.8031496062992126,"duration":0.4934895833333144},{"name":"C#3","midi":49,"time":343.1588541666689,"velocity":0.8031496062992126,"duration":0.49218750000005684},{"name":"A4","midi":69,"time":343.4062500000023,"velocity":0.8031496062992126,"duration":0.7213541666666856},{"name":"F#5","midi":78,"time":343.65364583333564,"velocity":0.8031496062992126,"duration":0.07942708333331439},{"name":"D3","midi":50,"time":343.65364583333564,"velocity":0.8031496062992126,"duration":0.4921875},{"name":"E5","midi":76,"time":343.73567708333564,"velocity":0.8031496062992126,"duration":0.07942708333331439},{"name":"F#5","midi":78,"time":343.81770833333564,"velocity":0.8031496062992126,"duration":0.5677083333333712},{"name":"B4","midi":71,"time":344.14843750000233,"velocity":0.8031496062992126,"duration":0.9791666666667993},{"name":"G3","midi":55,"time":344.14843750000233,"velocity":0.8031496062992126,"duration":0.49218750000005684},{"name":"G5","midi":79,"time":344.3958333333357,"velocity":0.8031496062992126,"duration":0.24479166666668561},{"name":"F#5","midi":78,"time":344.6432291666691,"velocity":0.8031496062992126,"duration":0.24479166666668561},{"name":"C#3","midi":49,"time":344.6432291666691,"velocity":0.8031496062992126,"duration":0.49218750000005684},{"name":"E5","midi":76,"time":344.89062500000244,"velocity":0.8031496062992126,"duration":0.07942708333331439},{"name":"F#5","midi":78,"time":344.97265625000244,"velocity":0.8031496062992126,"duration":0.07942708333331439},{"name":"E5","midi":76,"time":345.05468750000244,"velocity":0.8031496062992126,"duration":0.08072916666668561},{"name":"F#5","midi":78,"time":345.1380208333358,"velocity":0.8031496062992126,"duration":0.07942708333331439},{"name":"A#4","midi":70,"time":345.1380208333358,"velocity":0.8031496062992126,"duration":0.48958333333337123},{"name":"F#3","midi":54,"time":345.1380208333358,"velocity":0.8031496062992126,"duration":0.49218750000005684},{"name":"E5","midi":76,"time":345.2200520833358,"velocity":0.8031496062992126,"duration":0.24479166666668561},{"name":"D5","midi":74,"time":345.4674479166692,"velocity":0.8031496062992126,"duration":0.07942708333331439},{"name":"C#5","midi":73,"time":345.5494791666692,"velocity":0.8031496062992126,"duration":0.08072916666668561},{"name":"B4","midi":71,"time":345.63281250000256,"velocity":0.8031496062992126,"duration":1.481770833333428},{"name":"D5","midi":74,"time":345.63281250000256,"velocity":0.8031496062992126,"duration":0.07942708333331439},{"name":"B2","midi":47,"time":345.63281250000256,"velocity":0.8031496062992126,"duration":0.7395833333333144},{"name":"C#5","midi":73,"time":345.71484375000256,"velocity":0.8031496062992126,"duration":0.07942708333331439},{"name":"D5","midi":74,"time":345.79687500000256,"velocity":0.8031496062992126,"duration":1.317708333333428},{"name":"C#3","midi":49,"time":346.37500000000256,"velocity":0.8031496062992126,"duration":0.12109375},{"name":"D3","midi":50,"time":346.49869791666924,"velocity":0.8031496062992126,"duration":0.12109375},{"name":"C#3","midi":49,"time":346.62239583333593,"velocity":0.8031496062992126,"duration":0.24479166666668561},{"name":"D3","midi":50,"time":346.8697916666693,"velocity":0.8031496062992126,"duration":0.12109375},{"name":"E3","midi":52,"time":346.993489583336,"velocity":0.8031496062992126,"duration":0.12109375},{"name":"B4","midi":71,"time":347.1171875000027,"velocity":0.8031496062992126,"duration":0.48958333333337123},{"name":"D3","midi":50,"time":347.1171875000027,"velocity":0.8031496062992126,"duration":0.49218750000005684},{"name":"F#5","midi":78,"time":347.22526041666936,"velocity":0.8031496062992126,"duration":0.38671875000005684},{"name":"B5","midi":83,"time":347.33333333333604,"velocity":0.8031496062992126,"duration":0.2760416666666856},{"name":"F#5","midi":78,"time":347.6119791666694,"velocity":0.8031496062992126,"duration":0.9765625000000568},{"name":"B5","midi":83,"time":347.6119791666694,"velocity":0.8031496062992126,"duration":0.16276041666668561},{"name":"E3","midi":52,"time":347.6119791666694,"velocity":0.8031496062992126,"duration":0.24479166666668561},{"name":"A5","midi":81,"time":347.7773437500028,"velocity":0.8031496062992126,"duration":0.07942708333331439},{"name":"B5","midi":83,"time":347.8593750000028,"velocity":0.8031496062992126,"duration":0.07942708333331439},{"name":"D#3","midi":51,"time":347.8593750000028,"velocity":0.8031496062992126,"duration":0.24348958333331439},{"name":"A5","midi":81,"time":347.9414062500028,"velocity":0.8031496062992126,"duration":0.07942708333331439},{"name":"B5","midi":83,"time":348.0234375000028,"velocity":0.8031496062992126,"duration":0.07942708333331439},{"name":"A5","midi":81,"time":348.1054687500028,"velocity":0.8031496062992126,"duration":0.24348958333331439},{"name":"C#3","midi":49,"time":348.1054687500028,"velocity":0.8031496062992126,"duration":0.07942708333331439},{"name":"D#3","midi":51,"time":348.1875000000028,"velocity":0.8031496062992126,"duration":0.07942708333331439},{"name":"C#3","midi":49,"time":348.2695312500028,"velocity":0.8031496062992126,"duration":0.07942708333331439},{"name":"B5","midi":83,"time":348.3515625000028,"velocity":0.8031496062992126,"duration":0.24479166666668561},{"name":"B2","midi":47,"time":348.3515625000028,"velocity":0.8031496062992126,"duration":0.24479166666668561},{"name":"E5","midi":76,"time":348.59895833333616,"velocity":0.8031496062992126,"duration":0.9778645833334281},{"name":"A5","midi":81,"time":348.59895833333616,"velocity":0.8031496062992126,"duration":0.07942708333331439},{"name":"E3","midi":52,"time":348.59895833333616,"velocity":0.8031496062992126,"duration":0.4908854166666856},{"name":"G5","midi":79,"time":348.68098958333616,"velocity":0.8031496062992126,"duration":0.07942708333331439},{"name":"A5","midi":81,"time":348.76302083333616,"velocity":0.8031496062992126,"duration":0.07942708333331439},{"name":"G5","midi":79,"time":348.84505208333616,"velocity":0.8031496062992126,"duration":0.49218750000005684},{"name":"F#3","midi":54,"time":349.0924479166695,"velocity":0.8031496062992126,"duration":0.49218750000005684},{"name":"F#5","midi":78,"time":349.3398437500029,"velocity":0.8031496062992126,"duration":0.24479166666668561},{"name":"E5","midi":76,"time":349.58723958333627,"velocity":0.8031496062992126,"duration":0.24479166666668561},{"name":"G3","midi":55,"time":349.58723958333627,"velocity":0.8031496062992126,"duration":0.49218750000005684},{"name":"G5","midi":79,"time":349.83463541666964,"velocity":0.8031496062992126,"duration":0.24479166666668561},{"name":"D4","midi":62,"time":350.082031250003,"velocity":0.8031496062992126,"duration":0.4934895833333144},{"name":"B4","midi":71,"time":350.082031250003,"velocity":0.8031496062992126,"duration":0.4934895833333144},{"name":"G4","midi":67,"time":350.082031250003,"velocity":0.8031496062992126,"duration":0.4934895833333144},{"name":"F#3","midi":54,"time":350.082031250003,"velocity":0.8031496062992126,"duration":0.4934895833333144},{"name":"E4","midi":64,"time":350.578125000003,"velocity":0.8031496062992126,"duration":0.48958333333337123},{"name":"F#3","midi":54,"time":350.578125000003,"velocity":0.8031496062992126,"duration":0.12109375},{"name":"G4","midi":67,"time":350.660156250003,"velocity":0.8031496062992126,"duration":0.41276041666674246},{"name":"E3","midi":52,"time":350.7018229166697,"velocity":0.8031496062992126,"duration":0.12109375},{"name":"A4","midi":69,"time":350.7434895833364,"velocity":0.8031496062992126,"duration":0.3346354166666856},{"name":"C#5","midi":73,"time":350.8255208333364,"velocity":0.8031496062992126,"duration":0.48958333333337123},{"name":"F#3","midi":54,"time":350.8255208333364,"velocity":0.8031496062992126,"duration":0.12109375},{"name":"E3","midi":52,"time":350.94921875000307,"velocity":0.8031496062992126,"duration":0.12109375},{"name":"F#4","midi":66,"time":351.07291666666976,"velocity":0.8031496062992126,"duration":0.4895833333333144},{"name":"D3","midi":50,"time":351.07291666666976,"velocity":0.8031496062992126,"duration":0.4921875},{"name":"D5","midi":74,"time":351.32031250000307,"velocity":0.8031496062992126,"duration":0.24479166666668561},{"name":"E4","midi":64,"time":351.56770833333644,"velocity":0.8031496062992126,"duration":1.4804687500001705},{"name":"D5","midi":74,"time":351.56770833333644,"velocity":0.8031496062992126,"duration":0.07942708333331439},{"name":"A3","midi":57,"time":351.56770833333644,"velocity":0.8031496062992126,"duration":0.4908854166666856},{"name":"C#5","midi":73,"time":351.64973958333644,"velocity":0.8031496062992126,"duration":0.07942708333331439},{"name":"D5","midi":74,"time":351.73177083333644,"velocity":0.8031496062992126,"duration":0.07942708333331439},{"name":"C#5","midi":73,"time":351.81380208333644,"velocity":0.8031496062992126,"duration":0.49218750000005684},{"name":"B3","midi":59,"time":352.0611979166698,"velocity":0.8031496062992126,"duration":0.49218750000005684},{"name":"B4","midi":71,"time":352.3085937500032,"velocity":0.8031496062992126,"duration":0.24479166666668561},{"name":"A4","midi":69,"time":352.55598958333655,"velocity":0.8031496062992126,"duration":0.24479166666668561},{"name":"C#4","midi":61,"time":352.55598958333655,"velocity":0.8031496062992126,"duration":0.49218750000005684},{"name":"E5","midi":76,"time":352.8033854166699,"velocity":0.8031496062992126,"duration":0.24479166666668561},{"name":"A5","midi":81,"time":353.0507812500033,"velocity":0.8031496062992126,"duration":0.4934895833333144},{"name":"C#4","midi":61,"time":353.0507812500033,"velocity":0.8031496062992126,"duration":0.4934895833333144},{"name":"A3","midi":57,"time":353.0507812500033,"velocity":0.8031496062992126,"duration":0.4934895833333144},{"name":"A5","midi":81,"time":353.5468750000033,"velocity":0.8031496062992126,"duration":0.16276041666668561},{"name":"D4","midi":62,"time":353.5468750000033,"velocity":0.8031496062992126,"duration":0.4908854166666856},{"name":"B3","midi":59,"time":353.5468750000033,"velocity":0.8031496062992126,"duration":0.4908854166666856},{"name":"G5","midi":79,"time":353.71223958333667,"velocity":0.8031496062992126,"duration":0.07942708333331439},{"name":"A5","midi":81,"time":353.79427083333667,"velocity":0.8031496062992126,"duration":0.07942708333331439},{"name":"G5","midi":79,"time":353.87630208333667,"velocity":0.8031496062992126,"duration":0.07942708333331439},{"name":"A5","midi":81,"time":353.95833333333667,"velocity":0.8031496062992126,"duration":0.07942708333331439},{"name":"G5","midi":79,"time":354.04036458333667,"velocity":0.8031496062992126,"duration":0.24479166666668561},{"name":"E4","midi":64,"time":354.04036458333667,"velocity":0.8031496062992126,"duration":0.49218750000005684},{"name":"C#4","midi":61,"time":354.04036458333667,"velocity":0.8031496062992126,"duration":0.49218750000005684},{"name":"A5","midi":81,"time":354.28776041667004,"velocity":0.8031496062992126,"duration":0.24479166666668561},{"name":"F#5","midi":78,"time":354.5351562500034,"velocity":0.8031496062992126,"duration":0.07942708333331439},{"name":"D4","midi":62,"time":354.5351562500034,"velocity":0.8031496062992126,"duration":1.481770833333485},{"name":"E5","midi":76,"time":354.6171875000034,"velocity":0.8031496062992126,"duration":0.07942708333331439},{"name":"F#5","midi":78,"time":354.6992187500034,"velocity":0.8031496062992126,"duration":0.5755208333333712},{"name":"D3","midi":50,"time":355.0299479166701,"velocity":0.8031496062992126,"duration":0.24479166666668561},{"name":"E5","midi":76,"time":355.27734375000347,"velocity":0.8031496062992126,"duration":0.24479166666668561},{"name":"E3","midi":52,"time":355.27734375000347,"velocity":0.8031496062992126,"duration":0.24479166666668561},{"name":"D5","midi":74,"time":355.52473958333684,"velocity":0.8031496062992126,"duration":0.24479166666668561},{"name":"F#3","midi":54,"time":355.52473958333684,"velocity":0.8031496062992126,"duration":0.49218750000005684},{"name":"C#5","midi":73,"time":355.7721354166702,"velocity":0.8031496062992126,"duration":0.24479166666668561},{"name":"B4","midi":71,"time":356.0195312500036,"velocity":0.8031496062992126,"duration":0.24479166666668561},{"name":"G3","midi":55,"time":356.0195312500036,"velocity":0.8031496062992126,"duration":0.49218750000005684},{"name":"E5","midi":76,"time":356.26692708333695,"velocity":0.8031496062992126,"duration":0.24479166666668561},{"name":"D5","midi":74,"time":356.5143229166703,"velocity":0.8031496062992126,"duration":0.16276041666668561},{"name":"A3","midi":57,"time":356.5143229166703,"velocity":0.8031496062992126,"duration":0.9778645833334281},{"name":"C#5","midi":73,"time":356.6796875000037,"velocity":0.8031496062992126,"duration":0.07942708333331439},{"name":"D5","midi":74,"time":356.7617187500037,"velocity":0.8031496062992126,"duration":0.07942708333331439},{"name":"C#5","midi":73,"time":356.8437500000037,"velocity":0.8031496062992126,"duration":0.07942708333331439},{"name":"D5","midi":74,"time":356.9257812500037,"velocity":0.8031496062992126,"duration":0.07942708333331439},{"name":"C#5","midi":73,"time":357.0078125000037,"velocity":0.8031496062992126,"duration":0.24479166666668561},{"name":"A2","midi":45,"time":357.0078125000037,"velocity":0.8031496062992126,"duration":0.49218750000005684},{"name":"D5","midi":74,"time":357.25520833333707,"velocity":0.8031496062992126,"duration":0.24479166666668561},{"name":"D5","midi":74,"time":357.50260416667044,"velocity":0.8031496062992126,"duration":1.481770833333428},{"name":"D3","midi":50,"time":357.50260416667044,"velocity":0.8031496062992126,"duration":0.7395833333333144},{"name":"A4","midi":69,"time":357.75000000000375,"velocity":0.8031496062992126,"duration":1.2369791666667993},{"name":"F#4","midi":66,"time":357.99739583333707,"velocity":0.8031496062992126,"duration":0.9869791666667993},{"name":"E3","midi":52,"time":358.24479166667044,"velocity":0.8031496062992126,"duration":0.12109375},{"name":"F#3","midi":54,"time":358.3684895833371,"velocity":0.8031496062992126,"duration":0.12109375},{"name":"E3","midi":52,"time":358.4921875000038,"velocity":0.8031496062992126,"duration":0.24479166666668561},{"name":"F#3","midi":54,"time":358.7395833333372,"velocity":0.8031496062992126,"duration":0.12109375},{"name":"G3","midi":55,"time":358.86328125000387,"velocity":0.8031496062992126,"duration":0.12109375},{"name":"A#2","midi":46,"time":359.00781250000387,"velocity":0.8031496062992126,"duration":0.4934895833333144},{"name":"C#5","midi":73,"time":359.00781250000387,"velocity":0.8031496062992126,"duration":0.4934895833333144},{"name":"F#5","midi":78,"time":359.00781250000387,"velocity":0.8031496062992126,"duration":0.4934895833333144},{"name":"B2","midi":47,"time":359.50390625000387,"velocity":0.8031496062992126,"duration":0.49218750000005684},{"name":"F#5","midi":78,"time":359.50390625000387,"velocity":0.8031496062992126,"duration":0.24479166666668561},{"name":"D5","midi":74,"time":359.50390625000387,"velocity":0.8031496062992126,"duration":0.48958333333337123},{"name":"G5","midi":79,"time":359.75130208333724,"velocity":0.8031496062992126,"duration":0.07942708333331439},{"name":"F#5","midi":78,"time":359.83333333333724,"velocity":0.8031496062992126,"duration":0.07942708333331439},{"name":"G5","midi":79,"time":359.91536458333724,"velocity":0.8031496062992126,"duration":0.3111979166666856},{"name":"A2","midi":45,"time":359.9986979166706,"velocity":0.8031496062992126,"duration":0.4934895833333144},{"name":"C5","midi":72,"time":359.9986979166706,"velocity":0.8031496062992126,"duration":0.49088541666662877},{"name":"F#5","midi":78,"time":360.24739583333724,"velocity":0.8031496062992126,"duration":0.24479166666668561},{"name":"G2","midi":43,"time":360.4947916666706,"velocity":0.8031496062992126,"duration":0.4908854166666856},{"name":"B4","midi":71,"time":360.4947916666706,"velocity":0.8031496062992126,"duration":0.48828125},{"name":"F#5","midi":78,"time":360.4947916666706,"velocity":0.8031496062992126,"duration":0.07942708333331439},{"name":"E5","midi":76,"time":360.5768229166706,"velocity":0.8031496062992126,"duration":0.07942708333331439},{"name":"F#5","midi":78,"time":360.6588541666706,"velocity":0.8031496062992126,"duration":0.07942708333331439},{"name":"E5","midi":76,"time":360.7408854166706,"velocity":0.8031496062992126,"duration":0.48958333333337123},{"name":"G2","midi":43,"time":360.988281250004,"velocity":0.8031496062992126,"duration":0.12109375},{"name":"A4","midi":69,"time":360.988281250004,"velocity":0.8031496062992126,"duration":0.48958333333337123},{"name":"F#2","midi":42,"time":361.11197916667066,"velocity":0.8031496062992126,"duration":0.12109375},{"name":"G2","midi":43,"time":361.23567708333735,"velocity":0.8031496062992126,"duration":0.12109375},{"name":"D5","midi":74,"time":361.23567708333735,"velocity":0.8031496062992126,"duration":0.24479166666668561},{"name":"F#2","midi":42,"time":361.35937500000404,"velocity":0.8031496062992126,"duration":0.12109375},{"name":"E2","midi":40,"time":361.4830729166707,"velocity":0.8031496062992126,"duration":0.49218750000005684},{"name":"D5","midi":74,"time":361.4830729166707,"velocity":0.8031496062992126,"duration":0.24479166666668561},{"name":"G4","midi":67,"time":361.4830729166707,"velocity":0.8031496062992126,"duration":0.9791666666667993},{"name":"C5","midi":72,"time":361.7304687500041,"velocity":0.8031496062992126,"duration":0.24479166666668561},{"name":"C#3","midi":49,"time":361.97786458333746,"velocity":0.8031496062992126,"duration":0.49218750000005684},{"name":"B4","midi":71,"time":361.97786458333746,"velocity":0.8031496062992126,"duration":0.24479166666668561},{"name":"A#4","midi":70,"time":362.22526041667084,"velocity":0.8031496062992126,"duration":0.24479166666668561},{"name":"D3","midi":50,"time":362.4726562500042,"velocity":0.8031496062992126,"duration":0.4921875},{"name":"B4","midi":71,"time":362.4726562500042,"velocity":0.8031496062992126,"duration":0.07942708333331439},{"name":"F#4","midi":66,"time":362.4726562500042,"velocity":0.8031496062992126,"duration":0.4895833333333144},{"name":"A#4","midi":70,"time":362.5546875000042,"velocity":0.8031496062992126,"duration":0.07942708333331439},{"name":"B4","midi":71,"time":362.6367187500042,"velocity":0.8031496062992126,"duration":0.5677083333333712},{"name":"E3","midi":52,"time":362.9674479166709,"velocity":0.8031496062992126,"duration":0.49218750000005684},{"name":"G4","midi":67,"time":362.9674479166709,"velocity":0.8031496062992126,"duration":0.48958333333337123},{"name":"C#5","midi":73,"time":363.21484375000426,"velocity":0.8031496062992126,"duration":0.24479166666668561},{"name":"F#3","midi":54,"time":363.46223958333763,"velocity":0.8031496062992126,"duration":0.4908854166666856},{"name":"B4","midi":71,"time":363.46223958333763,"velocity":0.8031496062992126,"duration":0.16276041666668561},{"name":"C#4","midi":61,"time":363.46223958333763,"velocity":0.8031496062992126,"duration":1.4804687500001705},{"name":"A#4","midi":70,"time":363.627604166671,"velocity":0.8031496062992126,"duration":0.07942708333331439},{"name":"B4","midi":71,"time":363.709635416671,"velocity":0.8031496062992126,"duration":0.07942708333331439},{"name":"A#4","midi":70,"time":363.791666666671,"velocity":0.8031496062992126,"duration":0.07942708333331439},{"name":"B4","midi":71,"time":363.873697916671,"velocity":0.8031496062992126,"duration":0.07942708333331439},{"name":"G#3","midi":56,"time":363.955729166671,"velocity":0.8031496062992126,"duration":0.49218750000005684},{"name":"A#4","midi":70,"time":363.955729166671,"velocity":0.8031496062992126,"duration":0.24479166666668561},{"name":"G#4","midi":68,"time":364.2031250000044,"velocity":0.8031496062992126,"duration":0.24479166666668561},{"name":"A#3","midi":58,"time":364.45052083333775,"velocity":0.8031496062992126,"duration":0.49218750000005684},{"name":"F#4","midi":66,"time":364.45052083333775,"velocity":0.8031496062992126,"duration":0.24479166666668561},{"name":"C#5","midi":73,"time":364.6979166666711,"velocity":0.8031496062992126,"duration":0.24479166666668561},{"name":"F#3","midi":54,"time":364.9453125000045,"velocity":0.8031496062992126,"duration":0.4934895833333144},{"name":"A#3","midi":58,"time":364.9453125000045,"velocity":0.8031496062992126,"duration":0.4934895833333144},{"name":"F#5","midi":78,"time":364.9453125000045,"velocity":0.8031496062992126,"duration":0.4934895833333144},{"name":"B3","midi":59,"time":365.4414062500045,"velocity":0.8031496062992126,"duration":0.4908854166666856},{"name":"G#3","midi":56,"time":365.4414062500045,"velocity":0.8031496062992126,"duration":0.4908854166666856},{"name":"F#5","midi":78,"time":365.4414062500045,"velocity":0.8031496062992126,"duration":0.16276041666668561},{"name":"E5","midi":76,"time":365.60677083333786,"velocity":0.8031496062992126,"duration":0.07942708333331439},{"name":"F#5","midi":78,"time":365.68880208333786,"velocity":0.8031496062992126,"duration":0.07942708333331439},{"name":"E5","midi":76,"time":365.77083333333786,"velocity":0.8031496062992126,"duration":0.07942708333331439},{"name":"F#5","midi":78,"time":365.85286458333786,"velocity":0.8031496062992126,"duration":0.07942708333331439},{"name":"A#3","midi":58,"time":365.93489583333786,"velocity":0.8031496062992126,"duration":0.49218750000005684},{"name":"C#4","midi":61,"time":365.93489583333786,"velocity":0.8031496062992126,"duration":0.49218750000005684},{"name":"E5","midi":76,"time":365.93489583333786,"velocity":0.8031496062992126,"duration":0.24479166666668561},{"name":"F#5","midi":78,"time":366.18229166667123,"velocity":0.8031496062992126,"duration":0.24479166666668561},{"name":"B3","midi":59,"time":366.4296875000046,"velocity":0.8031496062992126,"duration":0.24348958333331439},{"name":"E5","midi":76,"time":366.4296875000046,"velocity":0.8031496062992126,"duration":0.07942708333331439},{"name":"D5","midi":74,"time":366.5117187500046,"velocity":0.8031496062992126,"duration":0.07942708333331439},{"name":"E5","midi":76,"time":366.5937500000046,"velocity":0.8031496062992126,"duration":0.07942708333331439},{"name":"C#4","midi":61,"time":366.6757812500046,"velocity":0.8031496062992126,"duration":0.24479166666668561},{"name":"D5","midi":74,"time":366.6757812500046,"velocity":0.8031496062992126,"duration":0.49218750000005684},{"name":"B3","midi":59,"time":366.923177083338,"velocity":0.8031496062992126,"duration":0.24479166666668561},{"name":"A3","midi":57,"time":367.17057291667135,"velocity":0.8031496062992126,"duration":0.24479166666668561},{"name":"C#5","midi":73,"time":367.17057291667135,"velocity":0.8031496062992126,"duration":0.24479166666668561},{"name":"G3","midi":55,"time":367.4179687500047,"velocity":0.8031496062992126,"duration":0.24479166666668561},{"name":"B4","midi":71,"time":367.4179687500047,"velocity":0.8031496062992126,"duration":0.24479166666668561},{"name":"F#3","midi":54,"time":367.6653645833381,"velocity":0.8031496062992126,"duration":0.24479166666668561},{"name":"A#4","midi":70,"time":367.6653645833381,"velocity":0.8031496062992126,"duration":0.24479166666668561},{"name":"G3","midi":55,"time":367.91276041667146,"velocity":0.8031496062992126,"duration":0.24479166666668561},{"name":"B4","midi":71,"time":367.91276041667146,"velocity":0.8031496062992126,"duration":0.24479166666668561},{"name":"E3","midi":52,"time":368.16015625000483,"velocity":0.8031496062992126,"duration":0.24479166666668561},{"name":"C#5","midi":73,"time":368.16015625000483,"velocity":0.8031496062992126,"duration":0.24479166666668561},{"name":"F#3","midi":54,"time":368.4075520833382,"velocity":0.8031496062992126,"duration":0.9778645833334281},{"name":"A#4","midi":70,"time":368.4075520833382,"velocity":0.8031496062992126,"duration":0.9778645833334281},{"name":"D5","midi":74,"time":368.4075520833382,"velocity":0.8031496062992126,"duration":0.16276041666668561},{"name":"C#5","midi":73,"time":368.5729166666716,"velocity":0.8031496062992126,"duration":0.07942708333331439},{"name":"D5","midi":74,"time":368.6549479166716,"velocity":0.8031496062992126,"duration":0.07942708333331439},{"name":"C#5","midi":73,"time":368.7369791666716,"velocity":0.8031496062992126,"duration":0.07942708333331439},{"name":"D5","midi":74,"time":368.8190104166716,"velocity":0.8031496062992126,"duration":0.07942708333331439},{"name":"F#2","midi":42,"time":368.9010416666716,"velocity":0.8031496062992126,"duration":0.49218750000005684},{"name":"C#5","midi":73,"time":368.9010416666716,"velocity":0.8031496062992126,"duration":0.24479166666668561},{"name":"B4","midi":71,"time":369.14843750000495,"velocity":0.8031496062992126,"duration":0.24479166666668561},{"name":"B2","midi":47,"time":369.3958333333383,"velocity":0.8031496062992126,"duration":0.7395833333333144},{"name":"B4","midi":71,"time":369.3958333333383,"velocity":0.8031496062992126,"duration":1.481770833333428},{"name":"F#4","midi":66,"time":369.64322916667163,"velocity":0.8031496062992126,"duration":1.2369791666667993},{"name":"D4","midi":62,"time":369.89062500000495,"velocity":0.8031496062992126,"duration":0.9869791666667993},{"name":"D3","midi":50,"time":370.1380208333383,"velocity":0.8031496062992126,"duration":0.12109375},{"name":"C#3","midi":49,"time":370.261718750005,"velocity":0.8031496062992126,"duration":0.12109375},{"name":"B2","midi":47,"time":370.3854166666717,"velocity":0.8031496062992126,"duration":0.24479166666668561},{"name":"C#3","midi":49,"time":370.63281250000506,"velocity":0.8031496062992126,"duration":0.12109375},{"name":"D3","midi":50,"time":370.75651041667174,"velocity":0.8031496062992126,"duration":0.12109375},{"name":"G#2","midi":44,"time":370.88020833333843,"velocity":0.8031496062992126,"duration":0.4921875},{"name":"B4","midi":71,"time":370.88020833333843,"velocity":0.8031496062992126,"duration":0.07942708333331439},{"name":"A4","midi":69,"time":370.96223958333843,"velocity":0.8031496062992126,"duration":0.07942708333331439},{"name":"B4","midi":71,"time":371.04427083333843,"velocity":0.8031496062992126,"duration":0.328125},{"name":"G#2","midi":44,"time":371.3750000000051,"velocity":0.8031496062992126,"duration":0.16276041666668561},{"name":"E4","midi":64,"time":371.3750000000051,"velocity":0.8031496062992126,"duration":0.9804687500001137},{"name":"B4","midi":71,"time":371.4830729166718,"velocity":0.8031496062992126,"duration":0.8776041666667425},{"name":"F#2","midi":42,"time":371.5403645833385,"velocity":0.8031496062992126,"duration":0.08072916666662877},{"name":"E5","midi":76,"time":371.5924479166718,"velocity":0.8031496062992126,"duration":0.5234375000000568},{"name":"G#2","midi":44,"time":371.6236979166718,"velocity":0.8031496062992126,"duration":0.07942708333331439},{"name":"F#2","midi":42,"time":371.7057291666718,"velocity":0.8031496062992126,"duration":0.16276041666668561},{"name":"E2","midi":40,"time":371.8710937500052,"velocity":0.8031496062992126,"duration":0.49218750000005684},{"name":"D5","midi":74,"time":372.11848958333854,"velocity":0.8031496062992126,"duration":0.24479166666668561},{"name":"A2","midi":45,"time":372.3658854166719,"velocity":0.8031496062992126,"duration":0.4908854166666856},{"name":"E4","midi":64,"time":372.3658854166719,"velocity":0.8031496062992126,"duration":1.4804687500001705},{"name":"D5","midi":74,"time":372.3658854166719,"velocity":0.8031496062992126,"duration":0.07942708333331439},{"name":"C#5","midi":73,"time":372.4479166666719,"velocity":0.8031496062992126,"duration":0.07942708333331439},{"name":"D5","midi":74,"time":372.5299479166719,"velocity":0.8031496062992126,"duration":0.07942708333331439},{"name":"C#5","midi":73,"time":372.6119791666719,"velocity":0.8031496062992126,"duration":0.49218750000005684},{"name":"B2","midi":47,"time":372.8593750000053,"velocity":0.8031496062992126,"duration":0.49218750000005684},{"name":"B4","midi":71,"time":373.10677083333866,"velocity":0.8031496062992126,"duration":0.24479166666668561},{"name":"C#3","midi":49,"time":373.35416666667203,"velocity":0.8031496062992126,"duration":0.49218750000005684},{"name":"A4","midi":69,"time":373.35416666667203,"velocity":0.8031496062992126,"duration":0.24479166666668561},{"name":"C#5","midi":73,"time":373.6015625000054,"velocity":0.8031496062992126,"duration":0.24479166666668561},{"name":"D3","midi":50,"time":373.84895833333877,"velocity":0.8031496062992126,"duration":0.4934895833333144},{"name":"F#4","midi":66,"time":373.84895833333877,"velocity":0.8031496062992126,"duration":0.4934895833333144},{"name":"A3","midi":57,"time":373.84895833333877,"velocity":0.8031496062992126,"duration":0.4934895833333144},{"name":"C#3","midi":49,"time":374.34505208333877,"velocity":0.8031496062992126,"duration":0.16276041666668561},{"name":"D4","midi":62,"time":374.34505208333877,"velocity":0.8031496062992126,"duration":0.4908854166666856},{"name":"E4","midi":64,"time":374.45312500000546,"velocity":0.8031496062992126,"duration":0.38802083333337123},{"name":"B2","midi":47,"time":374.51041666667214,"velocity":0.8031496062992126,"duration":0.08072916666662877},{"name":"G#4","midi":68,"time":374.56250000000546,"velocity":0.8031496062992126,"duration":0.5156250000000568},{"name":"C#3","midi":49,"time":374.59375000000546,"velocity":0.8031496062992126,"duration":0.07942708333331439},{"name":"B2","midi":47,"time":374.67578125000546,"velocity":0.8031496062992126,"duration":0.16276041666668561},{"name":"A2","midi":45,"time":374.8411458333388,"velocity":0.8031496062992126,"duration":0.49218750000005684},{"name":"C#4","midi":61,"time":374.8411458333388,"velocity":0.8031496062992126,"duration":0.48958333333337123},{"name":"A4","midi":69,"time":375.0885416666722,"velocity":0.8031496062992126,"duration":0.24479166666668561},{"name":"E3","midi":52,"time":375.33593750000557,"velocity":0.8031496062992126,"duration":0.4908854166666856},{"name":"B3","midi":59,"time":375.33593750000557,"velocity":0.8031496062992126,"duration":1.481770833333428},{"name":"A4","midi":69,"time":375.33593750000557,"velocity":0.8031496062992126,"duration":0.07942708333331439},{"name":"G#4","midi":68,"time":375.41796875000557,"velocity":0.8031496062992126,"duration":0.07942708333331439},{"name":"A4","midi":69,"time":375.50000000000557,"velocity":0.8031496062992126,"duration":0.07942708333331439},{"name":"G#4","midi":68,"time":375.58203125000557,"velocity":0.8031496062992126,"duration":0.49218750000005684},{"name":"F#3","midi":54,"time":375.82942708333894,"velocity":0.8031496062992126,"duration":0.49218750000005684},{"name":"F#4","midi":66,"time":376.0768229166723,"velocity":0.8031496062992126,"duration":0.24479166666668561},{"name":"G#3","midi":56,"time":376.3242187500057,"velocity":0.8031496062992126,"duration":0.4934895833333144},{"name":"E4","midi":64,"time":376.3242187500057,"velocity":0.8031496062992126,"duration":0.4934895833333144},{"name":"E3","midi":52,"time":376.8203125000057,"velocity":0.8031496062992126,"duration":0.49218750000005684},{"name":"B4","midi":71,"time":376.8203125000057,"velocity":0.8031496062992126,"duration":0.24479166666668561},{"name":"C#5","midi":73,"time":377.06770833333906,"velocity":0.8031496062992126,"duration":0.12109375},{"name":"D5","midi":74,"time":377.19140625000574,"velocity":0.8031496062992126,"duration":0.12109375},{"name":"A3","midi":57,"time":377.3151041666724,"velocity":0.8031496062992126,"duration":0.4908854166666856},{"name":"D5","midi":74,"time":377.3151041666724,"velocity":0.8031496062992126,"duration":0.16276041666668561},{"name":"C#5","midi":73,"time":377.4804687500058,"velocity":0.8031496062992126,"duration":0.07942708333331439},{"name":"D5","midi":74,"time":377.5625000000058,"velocity":0.8031496062992126,"duration":0.07942708333331439},{"name":"C#5","midi":73,"time":377.6445312500058,"velocity":0.8031496062992126,"duration":0.07942708333331439},{"name":"D5","midi":74,"time":377.7265625000058,"velocity":0.8031496062992126,"duration":0.07942708333331439},{"name":"B3","midi":59,"time":377.8085937500058,"velocity":0.8031496062992126,"duration":0.49218750000005684},{"name":"C#5","midi":73,"time":377.8085937500058,"velocity":0.8031496062992126,"duration":0.24479166666668561},{"name":"B4","midi":71,"time":378.05598958333917,"velocity":0.8031496062992126,"duration":0.24479166666668561},{"name":"C#4","midi":61,"time":378.30338541667254,"velocity":0.8031496062992126,"duration":0.9791666666667425},{"name":"B4","midi":71,"time":378.30338541667254,"velocity":0.8031496062992126,"duration":0.24479166666668561},{"name":"E5","midi":76,"time":378.5507812500059,"velocity":0.8031496062992126,"duration":0.4921875},{"name":"B3","midi":59,"time":378.7981770833392,"velocity":0.8031496062992126,"duration":0.49218750000005684},{"name":"F#5","midi":78,"time":379.0455729166726,"velocity":0.8031496062992126,"duration":0.24479166666668561},{"name":"A3","midi":57,"time":379.29296875000597,"velocity":0.8031496062992126,"duration":0.49218750000005684},{"name":"G5","midi":79,"time":379.29296875000597,"velocity":0.8031496062992126,"duration":0.24479166666668561},{"name":"E5","midi":76,"time":379.54036458333934,"velocity":0.8031496062992126,"duration":0.24479166666668561},{"name":"A2","midi":45,"time":379.7877604166727,"velocity":0.8031496062992126,"duration":0.4934895833333144},{"name":"A5","midi":81,"time":379.7877604166727,"velocity":0.8031496062992126,"duration":0.4934895833333144},{"name":"C#5","midi":73,"time":379.7877604166727,"velocity":0.8031496062992126,"duration":0.4934895833333144},{"name":"B2","midi":47,"time":380.2838541666727,"velocity":0.8031496062992126,"duration":0.49218750000005684},{"name":"D5","midi":74,"time":380.2838541666727,"velocity":0.8031496062992126,"duration":0.48958333333337123},{"name":"A5","midi":81,"time":380.2838541666727,"velocity":0.8031496062992126,"duration":0.16276041666668561},{"name":"G5","midi":79,"time":380.4492187500061,"velocity":0.8031496062992126,"duration":0.07942708333331439},{"name":"A5","midi":81,"time":380.5312500000061,"velocity":0.8031496062992126,"duration":0.07942708333331439},{"name":"G5","midi":79,"time":380.6132812500061,"velocity":0.8031496062992126,"duration":0.07942708333331439},{"name":"A5","midi":81,"time":380.6953125000061,"velocity":0.8031496062992126,"duration":0.08072916666668561},{"name":"C#3","midi":49,"time":380.77864583333945,"velocity":0.8031496062992126,"duration":0.49218750000005684},{"name":"E5","midi":76,"time":380.77864583333945,"velocity":0.8031496062992126,"duration":0.7226562500000568},{"name":"G5","midi":79,"time":380.77864583333945,"velocity":0.8031496062992126,"duration":0.24479166666668561},{"name":"A5","midi":81,"time":381.0260416666728,"velocity":0.8031496062992126,"duration":0.24479166666668561},{"name":"D3","midi":50,"time":381.2734375000062,"velocity":0.8031496062992126,"duration":0.49348958333337123},{"name":"G5","midi":79,"time":381.2734375000062,"velocity":0.8031496062992126,"duration":0.24609375},{"name":"A4","midi":69,"time":381.2734375000062,"velocity":0.8031496062992126,"duration":0.4908854166666856},{"name":"F#5","midi":78,"time":381.5221354166729,"velocity":0.8031496062992126,"duration":0.46484375000005684},{"name":"B2","midi":47,"time":381.76953125000625,"velocity":0.8031496062992126,"duration":0.49348958333337123},{"name":"D5","midi":74,"time":381.76953125000625,"velocity":0.8031496062992126,"duration":0.4908854166666856},{"name":"G#5","midi":80,"time":382.01822916667294,"velocity":0.8031496062992126,"duration":0.24479166666668561},{"name":"C#3","midi":49,"time":382.2656250000063,"velocity":0.8031496062992126,"duration":0.49218750000005684},{"name":"C#5","midi":73,"time":382.2656250000063,"velocity":0.8031496062992126,"duration":0.24479166666668561},{"name":"A5","midi":81,"time":382.2656250000063,"velocity":0.8031496062992126,"duration":0.24479166666668561},{"name":"D5","midi":74,"time":382.5130208333397,"velocity":0.8031496062992126,"duration":0.24479166666668561},{"name":"B4","midi":71,"time":382.5130208333397,"velocity":0.8031496062992126,"duration":0.24479166666668561},{"name":"D3","midi":50,"time":382.76041666667305,"velocity":0.8031496062992126,"duration":0.49218750000005684},{"name":"A4","midi":69,"time":382.76041666667305,"velocity":0.8031496062992126,"duration":0.24479166666668561},{"name":"C#5","midi":73,"time":382.76041666667305,"velocity":0.8031496062992126,"duration":0.24479166666668561},{"name":"B4","midi":71,"time":383.0078125000064,"velocity":0.8031496062992126,"duration":0.24479166666668561},{"name":"E3","midi":52,"time":383.2552083333398,"velocity":0.8031496062992126,"duration":0.9778645833334281},{"name":"C#5","midi":73,"time":383.2552083333398,"velocity":0.8031496062992126,"duration":0.16276041666668561},{"name":"G#4","midi":68,"time":383.2552083333398,"velocity":0.8031496062992126,"duration":0.9778645833334281},{"name":"B4","midi":71,"time":383.42057291667317,"velocity":0.8031496062992126,"duration":0.07942708333331439},{"name":"C#5","midi":73,"time":383.50260416667317,"velocity":0.8031496062992126,"duration":0.07942708333331439},{"name":"B4","midi":71,"time":383.58463541667317,"velocity":0.8031496062992126,"duration":0.07942708333331439},{"name":"C#5","midi":73,"time":383.66666666667317,"velocity":0.8031496062992126,"duration":0.07942708333331439},{"name":"E2","midi":40,"time":383.74869791667317,"velocity":0.8031496062992126,"duration":0.49218750000005684},{"name":"B4","midi":71,"time":383.74869791667317,"velocity":0.8031496062992126,"duration":0.24479166666668561},{"name":"A4","midi":69,"time":383.99609375000654,"velocity":0.8031496062992126,"duration":0.24479166666668561},{"name":"A2","midi":45,"time":384.2434895833399,"velocity":0.8031496062992126,"duration":0.9817708333333144},{"name":"A4","midi":69,"time":384.2434895833399,"velocity":0.8031496062992126,"duration":2.6614583333333144},{"name":"A1","midi":33,"time":384.7395833333399,"velocity":0.8031496062992126,"duration":1.9817708333333144},{"name":"E2","midi":40,"time":385.2356770833399,"velocity":0.8031496062992126,"duration":0.4934895833333144},{"name":"A2","midi":45,"time":385.7317708333399,"velocity":0.8031496062992126,"duration":0.9817708333333144},{"name":"E4","midi":64,"time":385.7317708333399,"velocity":0.8031496062992126,"duration":1.2408854166666288},{"name":"C#4","midi":61,"time":385.7317708333399,"velocity":0.8031496062992126,"duration":1.2408854166666288},{"name":"A4","midi":69,"time":386.97265625000654,"velocity":0.8031496062992126,"duration":0.24479166666668561},{"name":"A2","midi":45,"time":387.2200520833399,"velocity":0.8031496062992126,"duration":0.6158854166666288},{"name":"A4","midi":69,"time":387.2200520833399,"velocity":0.8031496062992126,"duration":1.481770833333428},{"name":"E4","midi":64,"time":387.4674479166732,"velocity":0.8031496062992126,"duration":1.2369791666667993},{"name":"C#4","midi":61,"time":387.71484375000654,"velocity":0.8031496062992126,"duration":0.9869791666667993},{"name":"A3","midi":57,"time":387.8385416666732,"velocity":0.8031496062992126,"duration":0.12109375},{"name":"G#3","midi":56,"time":387.9622395833399,"velocity":0.8031496062992126,"duration":0.12109375},{"name":"F#3","midi":54,"time":388.0859375000066,"velocity":0.8031496062992126,"duration":0.12109375},{"name":"E3","midi":52,"time":388.2096354166733,"velocity":0.8031496062992126,"duration":0.24479166666668561},{"name":"F#3","midi":54,"time":388.45703125000665,"velocity":0.8031496062992126,"duration":0.12109375},{"name":"D3","midi":50,"time":388.58072916667334,"velocity":0.8031496062992126,"duration":0.12109375},{"name":"C#3","midi":49,"time":388.70442708334,"velocity":0.8031496062992126,"duration":0.24479166666668561},{"name":"E4","midi":64,"time":388.70442708334,"velocity":0.8031496062992126,"duration":0.49218750000005684},{"name":"D3","midi":50,"time":388.9518229166734,"velocity":0.8031496062992126,"duration":0.12109375},{"name":"E3","midi":52,"time":389.0755208333401,"velocity":0.8031496062992126,"duration":0.12109375},{"name":"D3","midi":50,"time":389.19921875000676,"velocity":0.8031496062992126,"duration":0.24479166666668561},{"name":"E4","midi":64,"time":389.19921875000676,"velocity":0.8031496062992126,"duration":0.24479166666668561},{"name":"E3","midi":52,"time":389.44661458334014,"velocity":0.8031496062992126,"duration":0.12109375},{"name":"F#4","midi":66,"time":389.44661458334014,"velocity":0.8031496062992126,"duration":0.07942708333331439},{"name":"E4","midi":64,"time":389.52864583334014,"velocity":0.8031496062992126,"duration":0.08072916666668561},{"name":"C#3","midi":49,"time":389.5703125000068,"velocity":0.8031496062992126,"duration":0.12109375},{"name":"F#4","midi":66,"time":389.6119791666735,"velocity":0.8031496062992126,"duration":0.3268229166666856},{"name":"B2","midi":47,"time":389.6940104166735,"velocity":0.8031496062992126,"duration":0.24479166666668561},{"name":"C#3","midi":49,"time":389.9414062500069,"velocity":0.8031496062992126,"duration":0.12109375},{"name":"G4","midi":67,"time":389.9414062500069,"velocity":0.8031496062992126,"duration":0.24479166666668561},{"name":"A2","midi":45,"time":390.06510416667356,"velocity":0.8031496062992126,"duration":0.12109375},{"name":"D3","midi":50,"time":390.18880208334025,"velocity":0.8031496062992126,"duration":0.49348958333337123},{"name":"G4","midi":67,"time":390.18880208334025,"velocity":0.8031496062992126,"duration":0.12109375},{"name":"F#4","midi":66,"time":390.31250000000693,"velocity":0.8031496062992126,"duration":0.059895833333314386},{"name":"G4","midi":67,"time":390.37500000000693,"velocity":0.8031496062992126,"duration":0.059895833333314386},{"name":"F#4","midi":66,"time":390.43750000000693,"velocity":0.8031496062992126,"duration":0.11328125},{"name":"D4","midi":62,"time":390.5533854166736,"velocity":0.8031496062992126,"duration":0.08723958333331439},{"name":"E4","midi":64,"time":390.6432291666736,"velocity":0.8031496062992126,"duration":0.08854166666668561},{"name":"C#3","midi":49,"time":390.6848958333403,"velocity":0.8031496062992126,"duration":0.4908854166666856},{"name":"F#4","midi":66,"time":390.734375000007,"velocity":0.8031496062992126,"duration":0.08723958333331439},{"name":"G#4","midi":68,"time":390.824218750007,"velocity":0.8031496062992126,"duration":0.08723958333331439},{"name":"A4","midi":69,"time":390.914062500007,"velocity":0.8031496062992126,"duration":0.08723958333331439},{"name":"B4","midi":71,"time":391.003906250007,"velocity":0.8031496062992126,"duration":0.08723958333331439},{"name":"C#5","midi":73,"time":391.093750000007,"velocity":0.8031496062992126,"duration":0.08203125},{"name":"B2","midi":47,"time":391.1783854166737,"velocity":0.8031496062992126,"duration":0.4921875},{"name":"D5","midi":74,"time":391.1783854166737,"velocity":0.8031496062992126,"duration":0.72265625},{"name":"B4","midi":71,"time":391.425781250007,"velocity":0.8031496062992126,"duration":0.24479166666668561},{"name":"E3","midi":52,"time":391.67317708334036,"velocity":0.8031496062992126,"duration":0.4934895833333144},{"name":"G#4","midi":68,"time":391.67317708334036,"velocity":0.8031496062992126,"duration":0.49088541666662877},{"name":"E5","midi":76,"time":391.921875000007,"velocity":0.8031496062992126,"duration":0.24479166666668561},{"name":"A2","midi":45,"time":392.16927083334036,"velocity":0.8031496062992126,"duration":0.4908854166666856},{"name":"D5","midi":74,"time":392.16927083334036,"velocity":0.8031496062992126,"duration":0.07942708333331439},{"name":"C#5","midi":73,"time":392.25130208334036,"velocity":0.8031496062992126,"duration":0.07942708333331439},{"name":"D5","midi":74,"time":392.33333333334036,"velocity":0.8031496062992126,"duration":0.07942708333331439},{"name":"C#5","midi":73,"time":392.41536458334036,"velocity":0.8031496062992126,"duration":0.48958333333337123},{"name":"B4","midi":71,"time":392.53906250000705,"velocity":0.8031496062992126,"duration":0.12109375},{"name":"D2","midi":38,"time":392.66276041667373,"velocity":0.8031496062992126,"duration":0.49218749999994316},{"name":"A4","midi":69,"time":392.66276041667373,"velocity":0.8031496062992126,"duration":0.33463541666662877},{"name":"B4","midi":71,"time":392.91015625000705,"velocity":0.8031496062992126,"duration":0.24479166666662877},{"name":"E2","midi":40,"time":393.15755208334036,"velocity":0.8031496062992126,"duration":0.6158854166666288},{"name":"B4","midi":71,"time":393.15755208334036,"velocity":0.8031496062992126,"duration":1.481770833333428},{"name":"G#4","midi":68,"time":393.4049479166737,"velocity":0.8031496062992126,"duration":1.2369791666667993},{"name":"E4","midi":64,"time":393.652343750007,"velocity":0.8031496062992126,"duration":0.9869791666667993},{"name":"E3","midi":52,"time":393.7760416666737,"velocity":0.8031496062992126,"duration":0.12109375},{"name":"D3","midi":50,"time":393.89973958334036,"velocity":0.8031496062992126,"duration":0.12109375},{"name":"C#3","midi":49,"time":394.02343750000705,"velocity":0.8031496062992126,"duration":0.12109375},{"name":"B2","midi":47,"time":394.14713541667373,"velocity":0.8031496062992126,"duration":0.24479166666668561},{"name":"C#3","midi":49,"time":394.3945312500071,"velocity":0.8031496062992126,"duration":0.12109375},{"name":"A2","midi":45,"time":394.5182291666738,"velocity":0.8031496062992126,"duration":0.12109375},{"name":"G#2","midi":44,"time":394.6419270833405,"velocity":0.8031496062992126,"duration":0.24479166666668561},{"name":"E4","midi":64,"time":394.6419270833405,"velocity":0.8031496062992126,"duration":0.48958333333337123},{"name":"B4","midi":71,"time":394.75000000000716,"velocity":0.8031496062992126,"duration":0.3658854166666856},{"name":"E5","midi":76,"time":394.85807291667385,"velocity":0.8031496062992126,"duration":0.2760416666666856},{"name":"A2","midi":45,"time":394.88932291667385,"velocity":0.8031496062992126,"duration":0.12109375},{"name":"B2","midi":47,"time":395.01302083334053,"velocity":0.8031496062992126,"duration":0.12109375},{"name":"A2","midi":45,"time":395.1367187500072,"velocity":0.8031496062992126,"duration":0.24348958333331439},{"name":"E5","midi":76,"time":395.1367187500072,"velocity":0.8031496062992126,"duration":0.07942708333331439},{"name":"B4","midi":71,"time":395.1367187500072,"velocity":0.8031496062992126,"duration":0.9765625000000568},{"name":"D5","midi":74,"time":395.2187500000072,"velocity":0.8031496062992126,"duration":0.07942708333331439},{"name":"C#5","midi":73,"time":395.3007812500072,"velocity":0.8031496062992126,"duration":0.07942708333331439},{"name":"B2","midi":47,"time":395.3828125000072,"velocity":0.8031496062992126,"duration":0.12109375},{"name":"D5","midi":74,"time":395.3828125000072,"velocity":0.8031496062992126,"duration":0.07942708333331439},{"name":"E5","midi":76,"time":395.4648437500072,"velocity":0.8031496062992126,"duration":0.08072916666668561},{"name":"G#2","midi":44,"time":395.5065104166739,"velocity":0.8031496062992126,"duration":0.12109375},{"name":"D5","midi":74,"time":395.5481770833406,"velocity":0.8031496062992126,"duration":0.07942708333331439},{"name":"F#2","midi":42,"time":395.6302083333406,"velocity":0.8031496062992126,"duration":0.24348958333331439},{"name":"E5","midi":76,"time":395.6302083333406,"velocity":0.8031496062992126,"duration":0.07942708333331439},{"name":"D5","midi":74,"time":395.7122395833406,"velocity":0.8031496062992126,"duration":0.07942708333331439},{"name":"C#5","midi":73,"time":395.7942708333406,"velocity":0.8031496062992126,"duration":0.07942708333331439},{"name":"G#2","midi":44,"time":395.8763020833406,"velocity":0.8031496062992126,"duration":0.12109375},{"name":"D5","midi":74,"time":395.8763020833406,"velocity":0.8031496062992126,"duration":0.07942708333331439},{"name":"E5","midi":76,"time":395.9583333333406,"velocity":0.8031496062992126,"duration":0.16276041666668561},{"name":"E2","midi":40,"time":396.0000000000073,"velocity":0.8031496062992126,"duration":0.12109375},{"name":"A2","midi":45,"time":396.12369791667396,"velocity":0.8031496062992126,"duration":0.49218750000005684},{"name":"D5","midi":74,"time":396.12369791667396,"velocity":0.8031496062992126,"duration":0.24479166666668561},{"name":"C#5","midi":73,"time":396.37109375000733,"velocity":0.8031496062992126,"duration":0.24479166666668561},{"name":"B2","midi":47,"time":396.6184895833407,"velocity":0.8031496062992126,"duration":0.49218750000005684},{"name":"B4","midi":71,"time":396.6184895833407,"velocity":0.8031496062992126,"duration":0.24479166666668561},{"name":"A4","midi":69,"time":396.8658854166741,"velocity":0.8031496062992126,"duration":0.24479166666668561},{"name":"C#3","midi":49,"time":397.11328125000745,"velocity":0.8031496062992126,"duration":0.49218750000005684},{"name":"G#4","midi":68,"time":397.11328125000745,"velocity":0.8031496062992126,"duration":0.24479166666668561},{"name":"F#4","midi":66,"time":397.3606770833408,"velocity":0.8031496062992126,"duration":0.24479166666668561},{"name":"F#2","midi":42,"time":397.6080729166742,"velocity":0.8031496062992126,"duration":0.4934895833333144},{"name":"F#5","midi":78,"time":397.6080729166742,"velocity":0.8031496062992126,"duration":0.4934895833333144},{"name":"G#2","midi":44,"time":398.1041666666742,"velocity":0.8031496062992126,"duration":0.4895833333333144},{"name":"F#5","midi":78,"time":398.1041666666742,"velocity":0.8031496062992126,"duration":0.07942708333331439},{"name":"E5","midi":76,"time":398.1861979166742,"velocity":0.8031496062992126,"duration":0.07942708333331439},{"name":"D#5","midi":75,"time":398.2682291666742,"velocity":0.8031496062992126,"duration":0.07942708333331439},{"name":"E5","midi":76,"time":398.3502604166742,"velocity":0.8031496062992126,"duration":0.07942708333331439},{"name":"F#5","midi":78,"time":398.4322916666742,"velocity":0.8031496062992126,"duration":0.07942708333331439},{"name":"E5","midi":76,"time":398.5143229166742,"velocity":0.8031496062992126,"duration":0.07942708333331439},{"name":"A#2","midi":46,"time":398.5963541666742,"velocity":0.8031496062992126,"duration":0.4908854166666856},{"name":"F#5","midi":78,"time":398.5963541666742,"velocity":0.8031496062992126,"duration":0.07942708333331439},{"name":"E5","midi":76,"time":398.6783854166742,"velocity":0.8031496062992126,"duration":0.07942708333331439},{"name":"D#5","midi":75,"time":398.7604166666742,"velocity":0.8031496062992126,"duration":0.07942708333331439},{"name":"E5","midi":76,"time":398.8424479166742,"velocity":0.8031496062992126,"duration":0.07942708333331439},{"name":"F#5","midi":78,"time":398.9244791666742,"velocity":0.8031496062992126,"duration":0.16276041666668561},{"name":"B2","midi":47,"time":399.08984375000756,"velocity":0.8031496062992126,"duration":0.49218750000005684},{"name":"E5","midi":76,"time":399.08984375000756,"velocity":0.8031496062992126,"duration":0.24479166666668561},{"name":"D#5","midi":75,"time":399.33723958334093,"velocity":0.8031496062992126,"duration":0.24479166666668561},{"name":"C#3","midi":49,"time":399.5846354166743,"velocity":0.8031496062992126,"duration":0.49218750000005684},{"name":"C#5","midi":73,"time":399.5846354166743,"velocity":0.8031496062992126,"duration":0.24479166666668561},{"name":"B4","midi":71,"time":399.8320312500077,"velocity":0.8031496062992126,"duration":0.24479166666668561},{"name":"D#3","midi":51,"time":400.07942708334105,"velocity":0.8031496062992126,"duration":0.49218750000005684},{"name":"A4","midi":69,"time":400.07942708334105,"velocity":0.8031496062992126,"duration":0.24479166666668561},{"name":"G#4","midi":68,"time":400.3268229166744,"velocity":0.8031496062992126,"duration":0.24479166666668561},{"name":"G#2","midi":44,"time":400.5742187500078,"velocity":0.8031496062992126,"duration":0.4934895833333144},{"name":"B5","midi":83,"time":400.5742187500078,"velocity":0.8031496062992126,"duration":0.4934895833333144},{"name":"C#3","midi":49,"time":401.0703125000078,"velocity":0.8031496062992126,"duration":0.4895833333333144},{"name":"B5","midi":83,"time":401.0703125000078,"velocity":0.8031496062992126,"duration":0.07942708333331439},{"name":"A5","midi":81,"time":401.1523437500078,"velocity":0.8031496062992126,"duration":0.07942708333331439},{"name":"G#5","midi":80,"time":401.2343750000078,"velocity":0.8031496062992126,"duration":0.07942708333331439},{"name":"A5","midi":81,"time":401.3164062500078,"velocity":0.8031496062992126,"duration":0.07942708333331439},{"name":"B5","midi":83,"time":401.3984375000078,"velocity":0.8031496062992126,"duration":0.07942708333331439},{"name":"A5","midi":81,"time":401.4804687500078,"velocity":0.8031496062992126,"duration":0.07942708333331439},{"name":"D#3","midi":51,"time":401.5625000000078,"velocity":0.8031496062992126,"duration":0.4908854166666856},{"name":"B5","midi":83,"time":401.5625000000078,"velocity":0.8031496062992126,"duration":0.07942708333331439},{"name":"A5","midi":81,"time":401.6445312500078,"velocity":0.8031496062992126,"duration":0.07942708333331439},{"name":"G#5","midi":80,"time":401.7265625000078,"velocity":0.8031496062992126,"duration":0.07942708333331439},{"name":"A5","midi":81,"time":401.8085937500078,"velocity":0.8031496062992126,"duration":0.07942708333331439},{"name":"B5","midi":83,"time":401.8906250000078,"velocity":0.8031496062992126,"duration":0.16276041666668561},{"name":"E3","midi":52,"time":402.05598958334116,"velocity":0.8031496062992126,"duration":0.4947916666666856},{"name":"A5","midi":81,"time":402.05598958334116,"velocity":0.8031496062992126,"duration":0.059895833333314386},{"name":"G#5","midi":80,"time":402.11848958334116,"velocity":0.8031496062992126,"duration":0.059895833333314386},{"name":"A5","midi":81,"time":402.18098958334116,"velocity":0.8031496062992126,"duration":0.059895833333314386},{"name":"G#5","midi":80,"time":402.24348958334116,"velocity":0.8031496062992126,"duration":0.059895833333314386},{"name":"F#5","midi":78,"time":402.30598958334116,"velocity":0.8031496062992126,"duration":0.24479166666668561},{"name":"F#3","midi":54,"time":402.55338541667453,"velocity":0.8031496062992126,"duration":0.49218750000005684},{"name":"G#5","midi":80,"time":402.55338541667453,"velocity":0.8031496062992126,"duration":0.24479166666668561},{"name":"A5","midi":81,"time":402.8007812500079,"velocity":0.8031496062992126,"duration":0.24479166666668561},{"name":"G#3","midi":56,"time":403.0481770833413,"velocity":0.8031496062992126,"duration":0.49218750000005684},{"name":"B5","midi":83,"time":403.0481770833413,"velocity":0.8031496062992126,"duration":0.24479166666668561},{"name":"G#5","midi":80,"time":403.29557291667464,"velocity":0.8031496062992126,"duration":0.24479166666668561},{"name":"E3","midi":52,"time":403.542968750008,"velocity":0.8031496062992126,"duration":0.49218750000005684},{"name":"A5","midi":81,"time":403.542968750008,"velocity":0.8031496062992126,"duration":0.24479166666668561},{"name":"B5","midi":83,"time":403.7903645833414,"velocity":0.8031496062992126,"duration":0.24479166666668561},{"name":"A3","midi":57,"time":404.03776041667476,"velocity":0.8031496062992126,"duration":0.49609374999994316},{"name":"D5","midi":74,"time":404.03776041667476,"velocity":0.8031496062992126,"duration":0.08463541666662877},{"name":"C#5","midi":73,"time":404.1132812500081,"velocity":0.8031496062992126,"duration":0.08463541666662877},{"name":"D5","midi":74,"time":404.1888020833414,"velocity":0.8031496062992126,"duration":0.08463541666662877},{"name":"C#5","midi":73,"time":404.2643229166747,"velocity":0.8031496062992126,"duration":0.07291666666662877},{"name":"B4","midi":71,"time":404.339843750008,"velocity":0.8031496062992126,"duration":0.19140625},{"name":"F#3","midi":54,"time":404.5364583333414,"velocity":0.8031496062992126,"duration":0.49218750000005684},{"name":"C#5","midi":73,"time":404.5364583333414,"velocity":0.8031496062992126,"duration":0.24479166666668561},{"name":"A5","midi":81,"time":404.78385416667476,"velocity":0.8031496062992126,"duration":0.24479166666668561},{"name":"B3","midi":59,"time":405.03125000000813,"velocity":0.8031496062992126,"duration":0.49609375},{"name":"E5","midi":76,"time":405.03125000000813,"velocity":0.8031496062992126,"duration":0.0859375},{"name":"D#5","midi":75,"time":405.10677083334144,"velocity":0.8031496062992126,"duration":0.08333333333337123},{"name":"E5","midi":76,"time":405.18359375000813,"velocity":0.8031496062992126,"duration":0.08723958333331439},{"name":"D#5","midi":75,"time":405.25781250000813,"velocity":0.8031496062992126,"duration":0.08333333333331439},{"name":"C#5","midi":73,"time":405.33203125000813,"velocity":0.8031496062992126,"duration":0.19140625},{"name":"C#4","midi":61,"time":405.5299479166748,"velocity":0.8031496062992126,"duration":0.49218750000005684},{"name":"D#5","midi":75,"time":405.5299479166748,"velocity":0.8031496062992126,"duration":0.24479166666668561},{"name":"E5","midi":76,"time":405.7773437500082,"velocity":0.8031496062992126,"duration":0.24479166666668561},{"name":"D#4","midi":63,"time":406.02473958334156,"velocity":0.8031496062992126,"duration":0.4921875},{"name":"F#5","midi":78,"time":406.02473958334156,"velocity":0.8031496062992126,"duration":0.72265625},{"name":"A4","midi":69,"time":406.27213541667487,"velocity":0.8031496062992126,"duration":0.24479166666668561},{"name":"E4","midi":64,"time":406.51953125000824,"velocity":0.8031496062992126,"duration":0.24609375},{"name":"G#4","midi":68,"time":406.51953125000824,"velocity":0.8031496062992126,"duration":0.4908854166666856},{"name":"A3","midi":57,"time":406.7682291666749,"velocity":0.8031496062992126,"duration":0.24479166666668561},{"name":"E5","midi":76,"time":406.7682291666749,"velocity":0.8031496062992126,"duration":0.48958333333337123},{"name":"B3","midi":59,"time":407.0156250000083,"velocity":0.8031496062992126,"duration":0.4921875},{"name":"F#4","midi":66,"time":407.0156250000083,"velocity":0.8031496062992126,"duration":0.9804687500000568},{"name":"A4","midi":69,"time":407.2630208333416,"velocity":0.8031496062992126,"duration":0.7226562500000568},{"name":"B2","midi":47,"time":407.510416666675,"velocity":0.8031496062992126,"duration":0.49348958333337123},{"name":"E5","midi":76,"time":407.510416666675,"velocity":0.8031496062992126,"duration":0.24479166666668561},{"name":"D#5","midi":75,"time":407.75781250000836,"velocity":0.8031496062992126,"duration":0.24609375},{"name":"E3","midi":52,"time":408.00651041667504,"velocity":0.8031496062992126,"duration":2.476562500000057},{"name":"E5","midi":76,"time":408.00651041667504,"velocity":0.8031496062992126,"duration":2.476562500000057},{"name":"B4","midi":71,"time":408.25390625000836,"velocity":0.8031496062992126,"duration":2.218750000000057},{"name":"G#4","midi":68,"time":408.50130208334167,"velocity":0.8031496062992126,"duration":1.9609375000000568},{"name":"D#4","midi":63,"time":408.748697916675,"velocity":0.8031496062992126,"duration":0.24479166666668561},{"name":"E4","midi":64,"time":408.99609375000836,"velocity":0.8031496062992126,"duration":1.731770833333428},{"name":"B2","midi":47,"time":409.24348958334167,"velocity":0.8031496062992126,"duration":0.24479166666668561},{"name":"E2","midi":40,"time":409.49088541667504,"velocity":0.8031496062992126,"duration":1.4843750000000568},{"name":"B4","midi":71,"time":410.5208333333418,"velocity":0.8031496062992126,"duration":0.4036458333333144},{"name":"E2","midi":40,"time":410.9778645833418,"velocity":0.8031496062992126,"duration":0.6158854166666288},{"name":"B4","midi":71,"time":410.9778645833418,"velocity":0.8031496062992126,"duration":1.481770833333428},{"name":"G#4","midi":68,"time":411.2252604166751,"velocity":0.8031496062992126,"duration":1.2369791666667993},{"name":"E4","midi":64,"time":411.4726562500084,"velocity":0.8031496062992126,"duration":0.9869791666667993},{"name":"G#3","midi":56,"time":411.5963541666751,"velocity":0.8031496062992126,"duration":0.12109375},{"name":"F#3","midi":54,"time":411.7200520833418,"velocity":0.8031496062992126,"duration":0.12109375},{"name":"E3","midi":52,"time":411.84375000000847,"velocity":0.8031496062992126,"duration":0.12109375},{"name":"D3","midi":50,"time":411.96744791667516,"velocity":0.8031496062992126,"duration":0.24479166666668561},{"name":"E3","midi":52,"time":412.2148437500085,"velocity":0.8031496062992126,"duration":0.12109375},{"name":"C#3","midi":49,"time":412.3385416666752,"velocity":0.8031496062992126,"duration":0.12109375},{"name":"D3","midi":50,"time":412.4622395833419,"velocity":0.8031496062992126,"duration":0.24479166666668561},{"name":"G#4","midi":68,"time":412.4622395833419,"velocity":0.8031496062992126,"duration":0.49218750000005684},{"name":"E4","midi":64,"time":412.4622395833419,"velocity":0.8031496062992126,"duration":0.49218750000005684},{"name":"E3","midi":52,"time":412.70963541667527,"velocity":0.8031496062992126,"duration":0.12109375},{"name":"F#3","midi":54,"time":412.83333333334195,"velocity":0.8031496062992126,"duration":0.12109375},{"name":"E3","midi":52,"time":412.95703125000864,"velocity":0.8031496062992126,"duration":0.24479166666668561},{"name":"G#4","midi":68,"time":412.95703125000864,"velocity":0.8031496062992126,"duration":0.24479166666668561},{"name":"F#4","midi":66,"time":412.95703125000864,"velocity":0.8031496062992126,"duration":0.7226562500000568},{"name":"F#3","midi":54,"time":413.204427083342,"velocity":0.8031496062992126,"duration":0.12109375},{"name":"A4","midi":69,"time":413.204427083342,"velocity":0.8031496062992126,"duration":0.07942708333331439},{"name":"G#4","midi":68,"time":413.286458333342,"velocity":0.8031496062992126,"duration":0.08072916666668561},{"name":"D3","midi":50,"time":413.3281250000087,"velocity":0.8031496062992126,"duration":0.12109375},{"name":"A4","midi":69,"time":413.3697916666754,"velocity":0.8031496062992126,"duration":0.328125},{"name":"C#3","midi":49,"time":413.4518229166754,"velocity":0.8031496062992126,"duration":0.24609375},{"name":"D3","midi":50,"time":413.70052083334207,"velocity":0.8031496062992126,"duration":0.12109375},{"name":"B4","midi":71,"time":413.70052083334207,"velocity":0.8031496062992126,"duration":0.24479166666668561},{"name":"G#4","midi":68,"time":413.70052083334207,"velocity":0.8031496062992126,"duration":0.24479166666668561},{"name":"B2","midi":47,"time":413.82421875000875,"velocity":0.8031496062992126,"duration":0.12109375},{"name":"A2","midi":45,"time":413.94791666667544,"velocity":0.8031496062992126,"duration":0.49218750000005684},{"name":"A4","midi":69,"time":413.94791666667544,"velocity":0.8031496062992126,"duration":0.23177083333337123},{"name":"B4","midi":71,"time":413.94791666667544,"velocity":0.8031496062992126,"duration":0.12109375},{"name":"C#5","midi":73,"time":414.0716145833421,"velocity":0.8031496062992126,"duration":0.12109375},{"name":"B4","midi":71,"time":414.1953125000088,"velocity":0.8031496062992126,"duration":0.12109375},{"name":"A4","midi":69,"time":414.3190104166755,"velocity":0.8031496062992126,"duration":0.12109375},{"name":"C#3","midi":49,"time":414.4427083333422,"velocity":0.8031496062992126,"duration":0.49218750000005684},{"name":"B4","midi":71,"time":414.4427083333422,"velocity":0.8031496062992126,"duration":0.12109375},{"name":"C#5","midi":73,"time":414.56640625000887,"velocity":0.8031496062992126,"duration":0.12109375},{"name":"D5","midi":74,"time":414.69010416667555,"velocity":0.8031496062992126,"duration":0.12109375},{"name":"E5","midi":76,"time":414.81380208334224,"velocity":0.8031496062992126,"duration":0.12109375},{"name":"D3","midi":50,"time":414.9375000000089,"velocity":0.8031496062992126,"duration":0.4921875},{"name":"F#5","midi":78,"time":414.9375000000089,"velocity":0.8031496062992126,"duration":0.72265625},{"name":"D5","midi":74,"time":415.18489583334224,"velocity":0.8031496062992126,"duration":0.24479166666668561},{"name":"G3","midi":55,"time":415.4322916666756,"velocity":0.8031496062992126,"duration":0.4934895833333144},{"name":"B4","midi":71,"time":415.4322916666756,"velocity":0.8031496062992126,"duration":0.9804687500000568},{"name":"G5","midi":79,"time":415.68098958334224,"velocity":0.8031496062992126,"duration":0.24479166666668561},{"name":"C#3","midi":49,"time":415.9283854166756,"velocity":0.8031496062992126,"duration":0.49218750000005684},{"name":"F#5","midi":78,"time":415.9283854166756,"velocity":0.8031496062992126,"duration":0.24479166666668561},{"name":"E5","midi":76,"time":416.175781250009,"velocity":0.8031496062992126,"duration":0.24479166666668561},{"name":"F#3","midi":54,"time":416.42317708334235,"velocity":0.8031496062992126,"duration":0.49218750000005684},{"name":"A#4","midi":70,"time":416.42317708334235,"velocity":0.8031496062992126,"duration":0.48958333333337123},{"name":"D5","midi":74,"time":416.42317708334235,"velocity":0.8031496062992126,"duration":0.24479166666668561},{"name":"C#5","midi":73,"time":416.6705729166757,"velocity":0.8031496062992126,"duration":0.24479166666668561},{"name":"B2","midi":47,"time":416.9179687500091,"velocity":0.8031496062992126,"duration":0.6158854166666288},{"name":"C#5","midi":73,"time":416.9179687500091,"velocity":0.8031496062992126,"duration":0.7213541666666288},{"name":"B4","midi":71,"time":417.1653645833424,"velocity":0.8031496062992126,"duration":1.2369791666667993},{"name":"F#4","midi":66,"time":417.4127604166757,"velocity":0.8031496062992126,"duration":0.9791666666667993},{"name":"B3","midi":59,"time":417.5364583333424,"velocity":0.8031496062992126,"duration":0.12109375},{"name":"A3","midi":57,"time":417.6601562500091,"velocity":0.8031496062992126,"duration":0.12109375},{"name":"D5","midi":74,"time":417.6601562500091,"velocity":0.8031496062992126,"duration":0.7395833333334281},{"name":"G3","midi":55,"time":417.7838541666758,"velocity":0.8031496062992126,"duration":0.12109375},{"name":"F#3","midi":54,"time":417.90755208334247,"velocity":0.8031496062992126,"duration":0.24479166666668561},{"name":"G3","midi":55,"time":418.15494791667584,"velocity":0.8031496062992126,"duration":0.12109375},{"name":"E3","midi":52,"time":418.2786458333425,"velocity":0.8031496062992126,"duration":0.12109375},{"name":"D3","midi":50,"time":418.4023437500092,"velocity":0.8031496062992126,"duration":0.24479166666668561},{"name":"B4","midi":71,"time":418.4023437500092,"velocity":0.8031496062992126,"duration":0.48958333333337123},{"name":"F#5","midi":78,"time":418.5104166666759,"velocity":0.8031496062992126,"duration":0.38671875000005684},{"name":"B5","midi":83,"time":418.6184895833426,"velocity":0.8031496062992126,"duration":0.2760416666666856},{"name":"E3","midi":52,"time":418.6497395833426,"velocity":0.8031496062992126,"duration":0.12109375},{"name":"F#3","midi":54,"time":418.77343750000927,"velocity":0.8031496062992126,"duration":0.12109375},{"name":"E3","midi":52,"time":418.89713541667595,"velocity":0.8031496062992126,"duration":0.24348958333331439},{"name":"B5","midi":83,"time":418.89713541667595,"velocity":0.8031496062992126,"duration":0.07942708333331439},{"name":"F#5","midi":78,"time":418.89713541667595,"velocity":0.8031496062992126,"duration":0.9765625000000568},{"name":"A5","midi":81,"time":418.97916666667595,"velocity":0.8031496062992126,"duration":0.07942708333331439},{"name":"G#5","midi":80,"time":419.06119791667595,"velocity":0.8031496062992126,"duration":0.07942708333331439},{"name":"F#3","midi":54,"time":419.14322916667595,"velocity":0.8031496062992126,"duration":0.12109375},{"name":"A5","midi":81,"time":419.14322916667595,"velocity":0.8031496062992126,"duration":0.07942708333331439},{"name":"B5","midi":83,"time":419.22526041667595,"velocity":0.8031496062992126,"duration":0.08072916666668561},{"name":"D#3","midi":51,"time":419.26692708334264,"velocity":0.8031496062992126,"duration":0.12109375},{"name":"A5","midi":81,"time":419.3085937500093,"velocity":0.8031496062992126,"duration":0.07942708333331439},{"name":"C#3","midi":49,"time":419.3906250000093,"velocity":0.8031496062992126,"duration":0.24348958333331439},{"name":"B5","midi":83,"time":419.3906250000093,"velocity":0.8031496062992126,"duration":0.07942708333331439},{"name":"A5","midi":81,"time":419.4726562500093,"velocity":0.8031496062992126,"duration":0.07942708333331439},{"name":"G#5","midi":80,"time":419.5546875000093,"velocity":0.8031496062992126,"duration":0.07942708333331439},{"name":"D#3","midi":51,"time":419.6367187500093,"velocity":0.8031496062992126,"duration":0.12109375},{"name":"A5","midi":81,"time":419.6367187500093,"velocity":0.8031496062992126,"duration":0.07942708333331439},{"name":"B5","midi":83,"time":419.7187500000093,"velocity":0.8031496062992126,"duration":0.16276041666668561},{"name":"B2","midi":47,"time":419.760416666676,"velocity":0.8031496062992126,"duration":0.12109375},{"name":"E3","midi":52,"time":419.8841145833427,"velocity":0.8031496062992126,"duration":0.49218750000005684},{"name":"A5","midi":81,"time":419.8841145833427,"velocity":0.8031496062992126,"duration":0.24479166666668561},{"name":"G5","midi":79,"time":420.13151041667606,"velocity":0.8031496062992126,"duration":0.24479166666668561},{"name":"F#3","midi":54,"time":420.37890625000944,"velocity":0.8031496062992126,"duration":0.49218750000005684},{"name":"F#5","midi":78,"time":420.37890625000944,"velocity":0.8031496062992126,"duration":0.24479166666668561},{"name":"E5","midi":76,"time":420.6263020833428,"velocity":0.8031496062992126,"duration":0.24479166666668561},{"name":"G3","midi":55,"time":420.8736979166762,"velocity":0.8031496062992126,"duration":0.49218750000005684},{"name":"D5","midi":74,"time":420.8736979166762,"velocity":0.8031496062992126,"duration":0.24479166666668561},{"name":"C#5","midi":73,"time":421.12109375000955,"velocity":0.8031496062992126,"duration":0.24479166666668561},{"name":"F#3","midi":54,"time":421.3684895833429,"velocity":0.8031496062992126,"duration":0.49218750000005684},{"name":"B4","midi":71,"time":421.3684895833429,"velocity":0.8031496062992126,"duration":0.24479166666668561},{"name":"C#5","midi":73,"time":421.6158854166763,"velocity":0.8031496062992126,"duration":0.24479166666668561},{"name":"E3","midi":52,"time":421.86328125000966,"velocity":0.8031496062992126,"duration":0.12109375},{"name":"D5","midi":74,"time":421.86328125000966,"velocity":0.8031496062992126,"duration":0.24479166666668561},{"name":"F#3","midi":54,"time":421.98697916667635,"velocity":0.8031496062992126,"duration":0.12109375},{"name":"E3","midi":52,"time":422.11067708334303,"velocity":0.8031496062992126,"duration":0.24479166666668561},{"name":"F#5","midi":78,"time":422.11067708334303,"velocity":0.8031496062992126,"duration":0.24479166666668561},{"name":"D3","midi":50,"time":422.3580729166764,"velocity":0.8031496062992126,"duration":0.49218750000005684},{"name":"E5","midi":76,"time":422.3580729166764,"velocity":0.8031496062992126,"duration":0.24479166666668561},{"name":"D5","midi":74,"time":422.6054687500098,"velocity":0.8031496062992126,"duration":0.24479166666668561},{"name":"A3","midi":57,"time":422.85286458334315,"velocity":0.8031496062992126,"duration":1.4856770833333712},{"name":"D5","midi":74,"time":422.85286458334315,"velocity":0.8031496062992126,"duration":0.08333333333331439},{"name":"C#5","midi":73,"time":422.92838541667646,"velocity":0.8031496062992126,"duration":0.07942708333331439},{"name":"D5","midi":74,"time":423.0039062500098,"velocity":0.8031496062992126,"duration":0.08463541666662877},{"name":"C#5","midi":73,"time":423.0794270833431,"velocity":0.8031496062992126,"duration":0.08463541666662877},{"name":"B4","midi":71,"time":423.1549479166764,"velocity":0.8031496062992126,"duration":0.19401041666662877},{"name":"C#4","midi":61,"time":423.3515625000097,"velocity":0.8031496062992126,"duration":0.49218750000005684},{"name":"A4","midi":69,"time":423.3515625000097,"velocity":0.8031496062992126,"duration":0.24479166666668561},{"name":"B4","midi":71,"time":423.5989583333431,"velocity":0.8031496062992126,"duration":0.24479166666668561},{"name":"E4","midi":64,"time":423.84635416667646,"velocity":0.8031496062992126,"duration":0.49218750000005684},{"name":"C#5","midi":73,"time":423.84635416667646,"velocity":0.8031496062992126,"duration":0.24479166666668561},{"name":"D5","midi":74,"time":424.09375000000983,"velocity":0.8031496062992126,"duration":0.24479166666668561},{"name":"A3","midi":57,"time":424.3411458333432,"velocity":0.8031496062992126,"duration":0.49218750000005684},{"name":"C#4","midi":61,"time":424.3411458333432,"velocity":0.8031496062992126,"duration":0.49218750000005684},{"name":"E5","midi":76,"time":424.3411458333432,"velocity":0.8031496062992126,"duration":0.24479166666668561},{"name":"F#5","midi":78,"time":424.5885416666766,"velocity":0.8031496062992126,"duration":0.24479166666668561},{"name":"B3","midi":59,"time":424.83593750000995,"velocity":0.8031496062992126,"duration":0.49218750000005684},{"name":"D4","midi":62,"time":424.83593750000995,"velocity":0.8031496062992126,"duration":0.49218750000005684},{"name":"G5","midi":79,"time":424.83593750000995,"velocity":0.8031496062992126,"duration":0.24479166666668561},{"name":"B5","midi":83,"time":425.0833333333433,"velocity":0.8031496062992126,"duration":0.24479166666668561},{"name":"C#4","midi":61,"time":425.3307291666767,"velocity":0.8031496062992126,"duration":0.49218750000005684},{"name":"E4","midi":64,"time":425.3307291666767,"velocity":0.8031496062992126,"duration":0.49218750000005684},{"name":"A5","midi":81,"time":425.3307291666767,"velocity":0.8031496062992126,"duration":0.24479166666668561},{"name":"G5","midi":79,"time":425.57812500001006,"velocity":0.8031496062992126,"duration":0.24479166666668561},{"name":"D4","midi":62,"time":425.82552083334343,"velocity":0.8031496062992126,"duration":0.49218750000005684},{"name":"F#5","midi":78,"time":425.82552083334343,"velocity":0.8031496062992126,"duration":0.24479166666668561},{"name":"G5","midi":79,"time":426.0729166666768,"velocity":0.8031496062992126,"duration":0.24479166666668561},{"name":"D3","midi":50,"time":426.3203125000102,"velocity":0.8031496062992126,"duration":0.24479166666668561},{"name":"F#5","midi":78,"time":426.3203125000102,"velocity":0.8031496062992126,"duration":0.24479166666668561},{"name":"E3","midi":52,"time":426.56770833334355,"velocity":0.8031496062992126,"duration":0.24479166666668561},{"name":"E5","midi":76,"time":426.56770833334355,"velocity":0.8031496062992126,"duration":0.24479166666668561},{"name":"F#3","midi":54,"time":426.8151041666769,"velocity":0.8031496062992126,"duration":0.49218750000005684},{"name":"D5","midi":74,"time":426.8151041666769,"velocity":0.8031496062992126,"duration":0.24479166666668561},{"name":"C#5","midi":73,"time":427.0625000000103,"velocity":0.8031496062992126,"duration":0.24479166666668561},{"name":"G3","midi":55,"time":427.30989583334366,"velocity":0.8031496062992126,"duration":0.49218750000005684},{"name":"B4","midi":71,"time":427.30989583334366,"velocity":0.8031496062992126,"duration":0.24479166666668561},{"name":"E5","midi":76,"time":427.55729166667703,"velocity":0.8031496062992126,"duration":0.24479166666668561},{"name":"A3","midi":57,"time":427.8046875000104,"velocity":0.8031496062992126,"duration":0.4908854166666856},{"name":"D5","midi":74,"time":427.8046875000104,"velocity":0.8031496062992126,"duration":0.16276041666668561},{"name":"C#5","midi":73,"time":427.9700520833438,"velocity":0.8031496062992126,"duration":0.07942708333331439},{"name":"D5","midi":74,"time":428.0520833333438,"velocity":0.8031496062992126,"duration":0.07942708333331439},{"name":"C#5","midi":73,"time":428.1341145833438,"velocity":0.8031496062992126,"duration":0.07942708333331439},{"name":"D5","midi":74,"time":428.2161458333438,"velocity":0.8031496062992126,"duration":0.07942708333331439},{"name":"A2","midi":45,"time":428.2981770833438,"velocity":0.8031496062992126,"duration":0.49218750000005684},{"name":"C#5","midi":73,"time":428.2981770833438,"velocity":0.8031496062992126,"duration":0.24479166666668561},{"name":"D5","midi":74,"time":428.54557291667714,"velocity":0.8031496062992126,"duration":0.24479166666668561},{"name":"D2","midi":38,"time":428.7929687500105,"velocity":0.8031496062992126,"duration":0.6158854166666288},{"name":"D5","midi":74,"time":428.7929687500105,"velocity":0.8031496062992126,"duration":1.481770833333428},{"name":"A4","midi":69,"time":429.04036458334383,"velocity":0.8031496062992126,"duration":1.2369791666667993},{"name":"F#4","midi":66,"time":429.28776041667714,"velocity":0.8031496062992126,"duration":0.9869791666667993},{"name":"F#3","midi":54,"time":429.41145833334383,"velocity":0.8031496062992126,"duration":0.12109375},{"name":"E3","midi":52,"time":429.5351562500105,"velocity":0.8031496062992126,"duration":0.12109375},{"name":"D3","midi":50,"time":429.6588541666772,"velocity":0.8031496062992126,"duration":0.12109375},{"name":"C#3","midi":49,"time":429.7825520833439,"velocity":0.8031496062992126,"duration":0.24479166666668561},{"name":"D3","midi":50,"time":430.02994791667726,"velocity":0.8031496062992126,"duration":0.12109375},{"name":"B2","midi":47,"time":430.15364583334394,"velocity":0.8031496062992126,"duration":0.12109375},{"name":"A#2","midi":46,"time":430.27734375001063,"velocity":0.8031496062992126,"duration":0.24479166666668561},{"name":"F#5","midi":78,"time":430.27734375001063,"velocity":0.8031496062992126,"duration":0.24479166666668561},{"name":"B2","midi":47,"time":430.524739583344,"velocity":0.8031496062992126,"duration":0.12109375},{"name":"G5","midi":79,"time":430.524739583344,"velocity":0.8031496062992126,"duration":0.12109375},{"name":"C#3","midi":49,"time":430.6484375000107,"velocity":0.8031496062992126,"duration":0.12109375},{"name":"A5","midi":81,"time":430.6484375000107,"velocity":0.8031496062992126,"duration":0.12109375},{"name":"B2","midi":47,"time":430.7721354166774,"velocity":0.8031496062992126,"duration":0.24479166666668561},{"name":"A5","midi":81,"time":430.7721354166774,"velocity":0.8031496062992126,"duration":0.16276041666668561},{"name":"G5","midi":79,"time":430.93750000001074,"velocity":0.8031496062992126,"duration":0.07942708333331439},{"name":"C#3","midi":49,"time":431.01953125001074,"velocity":0.8031496062992126,"duration":0.12109375},{"name":"A5","midi":81,"time":431.01953125001074,"velocity":0.8031496062992126,"duration":0.07942708333331439},{"name":"G5","midi":79,"time":431.10156250001074,"velocity":0.8031496062992126,"duration":0.08072916666668561},{"name":"A2","midi":45,"time":431.14322916667743,"velocity":0.8031496062992126,"duration":0.12109375},{"name":"A5","midi":81,"time":431.1848958333441,"velocity":0.8031496062992126,"duration":0.07942708333331439},{"name":"G2","midi":43,"time":431.2669270833441,"velocity":0.8031496062992126,"duration":0.24479166666668561},{"name":"G5","midi":79,"time":431.2669270833441,"velocity":0.8031496062992126,"duration":0.24479166666668561},{"name":"A2","midi":45,"time":431.5143229166775,"velocity":0.8031496062992126,"duration":0.12109375},{"name":"F#5","midi":78,"time":431.5143229166775,"velocity":0.8031496062992126,"duration":0.24479166666668561},{"name":"F#2","midi":42,"time":431.63802083334417,"velocity":0.8031496062992126,"duration":0.12109375},{"name":"G2","midi":43,"time":431.76171875001086,"velocity":0.8031496062992126,"duration":0.49218750000005684},{"name":"F#5","midi":78,"time":431.76171875001086,"velocity":0.8031496062992126,"duration":0.24479166666668561},{"name":"E5","midi":76,"time":432.0091145833442,"velocity":0.8031496062992126,"duration":0.24479166666668561},{"name":"F#2","midi":42,"time":432.2565104166776,"velocity":0.8031496062992126,"duration":0.12109375},{"name":"D5","midi":74,"time":432.2565104166776,"velocity":0.8031496062992126,"duration":0.24479166666668561},{"name":"G2","midi":43,"time":432.3802083333443,"velocity":0.8031496062992126,"duration":0.12109375},{"name":"F#2","midi":42,"time":432.50390625001097,"velocity":0.8031496062992126,"duration":0.24479166666668561},{"name":"C#5","midi":73,"time":432.50390625001097,"velocity":0.8031496062992126,"duration":0.24479166666668561},{"name":"E2","midi":40,"time":432.75130208334434,"velocity":0.8031496062992126,"duration":0.49218750000005684},{"name":"D5","midi":74,"time":432.75130208334434,"velocity":0.8031496062992126,"duration":0.24479166666668561},{"name":"C#5","midi":73,"time":432.9986979166777,"velocity":0.8031496062992126,"duration":0.24479166666668561},{"name":"C#3","midi":49,"time":433.2460937500111,"velocity":0.8031496062992126,"duration":0.49218750000005684},{"name":"B4","midi":71,"time":433.2460937500111,"velocity":0.8031496062992126,"duration":0.24479166666668561},{"name":"A#4","midi":70,"time":433.49348958334446,"velocity":0.8031496062992126,"duration":0.24479166666668561},{"name":"D3","midi":50,"time":433.7408854166778,"velocity":0.8031496062992126,"duration":0.49218750000005684},{"name":"B4","midi":71,"time":433.7408854166778,"velocity":0.8031496062992126,"duration":0.24479166666668561},{"name":"A#4","midi":70,"time":433.9882812500112,"velocity":0.8031496062992126,"duration":0.24479166666668561},{"name":"E3","midi":52,"time":434.23567708334457,"velocity":0.8031496062992126,"duration":0.49218750000005684},{"name":"B4","midi":71,"time":434.23567708334457,"velocity":0.8031496062992126,"duration":0.24479166666668561},{"name":"C#5","midi":73,"time":434.48307291667794,"velocity":0.8031496062992126,"duration":0.24479166666668561},{"name":"F#3","midi":54,"time":434.7304687500113,"velocity":0.8031496062992126,"duration":1.4817708333335418},{"name":"A#4","midi":70,"time":434.7304687500113,"velocity":0.8031496062992126,"duration":0.24479166666668561},{"name":"G#4","midi":68,"time":434.9778645833447,"velocity":0.8031496062992126,"duration":0.24479166666668561},{"name":"A#3","midi":58,"time":435.22526041667805,"velocity":0.8031496062992126,"duration":0.49218750000005684},{"name":"F#4","midi":66,"time":435.22526041667805,"velocity":0.8031496062992126,"duration":0.24479166666668561},{"name":"G#4","midi":68,"time":435.4726562500114,"velocity":0.8031496062992126,"duration":0.24479166666668561},{"name":"C#4","midi":61,"time":435.7200520833448,"velocity":0.8031496062992126,"duration":0.49218750000005684},{"name":"A#4","midi":70,"time":435.7200520833448,"velocity":0.8031496062992126,"duration":0.24479166666668561},{"name":"B4","midi":71,"time":435.96744791667817,"velocity":0.8031496062992126,"duration":0.24479166666668561},{"name":"A#3","midi":58,"time":436.21484375001154,"velocity":0.8031496062992126,"duration":0.49218750000005684},{"name":"F#3","midi":54,"time":436.21484375001154,"velocity":0.8031496062992126,"duration":0.49218750000005684},{"name":"C#5","midi":73,"time":436.21484375001154,"velocity":0.8031496062992126,"duration":0.24479166666668561},{"name":"D5","midi":74,"time":436.4622395833449,"velocity":0.8031496062992126,"duration":0.24479166666668561},{"name":"B3","midi":59,"time":436.7096354166783,"velocity":0.8031496062992126,"duration":0.49218750000005684},{"name":"G#3","midi":56,"time":436.7096354166783,"velocity":0.8031496062992126,"duration":0.49218750000005684},{"name":"E5","midi":76,"time":436.7096354166783,"velocity":0.8031496062992126,"duration":0.24479166666668561},{"name":"G5","midi":79,"time":436.95703125001165,"velocity":0.8031496062992126,"duration":0.24479166666668561},{"name":"C#4","midi":61,"time":437.204427083345,"velocity":0.8031496062992126,"duration":0.49218750000005684},{"name":"A#3","midi":58,"time":437.204427083345,"velocity":0.8031496062992126,"duration":0.49218750000005684},{"name":"F#5","midi":78,"time":437.204427083345,"velocity":0.8031496062992126,"duration":0.24479166666668561},{"name":"E5","midi":76,"time":437.4518229166784,"velocity":0.8031496062992126,"duration":0.24479166666668561},{"name":"B3","midi":59,"time":437.69921875001177,"velocity":0.8031496062992126,"duration":0.24479166666668561},{"name":"D5","midi":74,"time":437.69921875001177,"velocity":0.8031496062992126,"duration":0.24479166666668561},{"name":"C#4","midi":61,"time":437.94661458334514,"velocity":0.8031496062992126,"duration":0.24479166666668561},{"name":"E5","midi":76,"time":437.94661458334514,"velocity":0.8031496062992126,"duration":0.24479166666668561},{"name":"B3","midi":59,"time":438.1940104166785,"velocity":0.8031496062992126,"duration":0.24479166666668561},{"name":"D5","midi":74,"time":438.1940104166785,"velocity":0.8031496062992126,"duration":0.24479166666668561},{"name":"A3","midi":57,"time":438.4414062500119,"velocity":0.8031496062992126,"duration":0.24479166666668561},{"name":"C#5","midi":73,"time":438.4414062500119,"velocity":0.8031496062992126,"duration":0.24479166666668561},{"name":"G3","midi":55,"time":438.68880208334525,"velocity":0.8031496062992126,"duration":0.24479166666668561},{"name":"B4","midi":71,"time":438.68880208334525,"velocity":0.8031496062992126,"duration":0.24479166666668561},{"name":"F#3","midi":54,"time":438.9361979166786,"velocity":0.8031496062992126,"duration":0.24479166666668561},{"name":"A#4","midi":70,"time":438.9361979166786,"velocity":0.8031496062992126,"duration":0.24479166666668561},{"name":"G3","midi":55,"time":439.183593750012,"velocity":0.8031496062992126,"duration":0.24479166666668561},{"name":"B4","midi":71,"time":439.183593750012,"velocity":0.8031496062992126,"duration":0.24479166666668561},{"name":"E3","midi":52,"time":439.43098958334537,"velocity":0.8031496062992126,"duration":0.24479166666668561},{"name":"C#5","midi":73,"time":439.43098958334537,"velocity":0.8031496062992126,"duration":0.24479166666668561},{"name":"F#3","midi":54,"time":439.67838541667874,"velocity":0.8031496062992126,"duration":0.4895833333333144},{"name":"A#4","midi":70,"time":439.67838541667874,"velocity":0.8031496062992126,"duration":0.7200520833333144},{"name":"D5","midi":74,"time":439.67838541667874,"velocity":0.8031496062992126,"duration":0.07942708333331439},{"name":"C#5","midi":73,"time":439.76041666667874,"velocity":0.8031496062992126,"duration":0.07942708333331439},{"name":"D5","midi":74,"time":439.84244791667874,"velocity":0.8031496062992126,"duration":0.07942708333331439},{"name":"C#5","midi":73,"time":439.92447916667874,"velocity":0.8031496062992126,"duration":0.07942708333331439},{"name":"D5","midi":74,"time":440.00651041667874,"velocity":0.8031496062992126,"duration":0.07942708333331439},{"name":"C#5","midi":73,"time":440.08854166667874,"velocity":0.8031496062992126,"duration":0.328125},{"name":"F#2","midi":42,"time":440.17057291667874,"velocity":0.8031496062992126,"duration":0.49348958333337123},{"name":"B4","midi":71,"time":440.4192708333454,"velocity":0.8031496062992126,"duration":0.24479166666668561},{"name":"B1","midi":35,"time":440.6666666666788,"velocity":0.8031496062992126,"duration":0.6158854166666288},{"name":"B4","midi":71,"time":440.6666666666788,"velocity":0.8031496062992126,"duration":1.481770833333428},{"name":"F#4","midi":66,"time":440.9140625000121,"velocity":0.8031496062992126,"duration":1.2369791666667993},{"name":"D4","midi":62,"time":441.1614583333454,"velocity":0.8031496062992126,"duration":0.9869791666667993},{"name":"E3","midi":52,"time":441.2851562500121,"velocity":0.8031496062992126,"duration":0.12109375},{"name":"D3","midi":50,"time":441.4088541666788,"velocity":0.8031496062992126,"duration":0.12109375},{"name":"C#3","midi":49,"time":441.5325520833455,"velocity":0.8031496062992126,"duration":0.12109375},{"name":"B2","midi":47,"time":441.65625000001216,"velocity":0.8031496062992126,"duration":0.24479166666668561},{"name":"C#3","midi":49,"time":441.90364583334554,"velocity":0.8031496062992126,"duration":0.12109375},{"name":"A2","midi":45,"time":442.0273437500122,"velocity":0.8031496062992126,"duration":0.12109375},{"name":"G#2","midi":44,"time":442.1510416666789,"velocity":0.8031496062992126,"duration":0.24479166666668561},{"name":"B4","midi":71,"time":442.1510416666789,"velocity":0.8031496062992126,"duration":0.49218750000005684},{"name":"A2","midi":45,"time":442.3984375000123,"velocity":0.8031496062992126,"duration":0.12109375},{"name":"B2","midi":47,"time":442.52213541667896,"velocity":0.8031496062992126,"duration":0.12109375},{"name":"A2","midi":45,"time":442.64583333334565,"velocity":0.8031496062992126,"duration":0.24348958333331439},{"name":"C#5","midi":73,"time":442.64583333334565,"velocity":0.8031496062992126,"duration":0.07942708333331439},{"name":"D5","midi":74,"time":442.72786458334565,"velocity":0.8031496062992126,"duration":0.07942708333331439},{"name":"E5","midi":76,"time":442.80989583334565,"velocity":0.8031496062992126,"duration":0.5742187500000568},{"name":"B2","midi":47,"time":442.89192708334565,"velocity":0.8031496062992126,"duration":0.12109375},{"name":"G#2","midi":44,"time":443.01562500001234,"velocity":0.8031496062992126,"duration":0.12109375},{"name":"F#2","midi":42,"time":443.139322916679,"velocity":0.8031496062992126,"duration":0.24479166666668561},{"name":"G#2","midi":44,"time":443.3867187500124,"velocity":0.8031496062992126,"duration":0.12109375},{"name":"D5","midi":74,"time":443.3867187500124,"velocity":0.8031496062992126,"duration":0.24479166666668561},{"name":"E2","midi":40,"time":443.5104166666791,"velocity":0.8031496062992126,"duration":0.12109375},{"name":"A2","midi":45,"time":443.63411458334576,"velocity":0.8031496062992126,"duration":0.49218750000005684},{"name":"C#5","midi":73,"time":443.63411458334576,"velocity":0.8031496062992126,"duration":0.24479166666668561},{"name":"D5","midi":74,"time":443.88151041667913,"velocity":0.8031496062992126,"duration":0.24479166666668561},{"name":"B2","midi":47,"time":444.1289062500125,"velocity":0.8031496062992126,"duration":0.49218750000005684},{"name":"C#5","midi":73,"time":444.1289062500125,"velocity":0.8031496062992126,"duration":0.24479166666668561},{"name":"B4","midi":71,"time":444.3763020833459,"velocity":0.8031496062992126,"duration":0.24479166666668561},{"name":"C#3","midi":49,"time":444.62369791667925,"velocity":0.8031496062992126,"duration":0.49218750000005684},{"name":"A4","midi":69,"time":444.62369791667925,"velocity":0.8031496062992126,"duration":0.24479166666668561},{"name":"G#4","midi":68,"time":444.8710937500126,"velocity":0.8031496062992126,"duration":0.24479166666668561},{"name":"D3","midi":50,"time":445.118489583346,"velocity":0.8031496062992126,"duration":0.24479166666668561},{"name":"F#4","midi":66,"time":445.118489583346,"velocity":0.8031496062992126,"duration":0.24479166666668561},{"name":"C#3","midi":49,"time":445.36588541667936,"velocity":0.8031496062992126,"duration":0.24479166666668561},{"name":"G#4","midi":68,"time":445.36588541667936,"velocity":0.8031496062992126,"duration":0.24479166666668561},{"name":"B2","midi":47,"time":445.61328125001273,"velocity":0.8031496062992126,"duration":0.12109375},{"name":"A4","midi":69,"time":445.61328125001273,"velocity":0.8031496062992126,"duration":0.24479166666668561},{"name":"C#3","midi":49,"time":445.7369791666794,"velocity":0.8031496062992126,"duration":0.12109375},{"name":"B2","midi":47,"time":445.8606770833461,"velocity":0.8031496062992126,"duration":0.24479166666668561},{"name":"C#5","midi":73,"time":445.8606770833461,"velocity":0.8031496062992126,"duration":0.24479166666668561},{"name":"A2","midi":45,"time":446.1080729166795,"velocity":0.8031496062992126,"duration":0.49218750000005684},{"name":"B4","midi":71,"time":446.1080729166795,"velocity":0.8031496062992126,"duration":0.24479166666668561},{"name":"A4","midi":69,"time":446.35546875001285,"velocity":0.8031496062992126,"duration":0.24479166666668561},{"name":"E3","midi":52,"time":446.6028645833462,"velocity":0.8031496062992126,"duration":1.4817708333335418},{"name":"G#4","midi":68,"time":446.6028645833462,"velocity":0.8031496062992126,"duration":0.24479166666668561},{"name":"F#4","midi":66,"time":446.8502604166796,"velocity":0.8031496062992126,"duration":0.24479166666668561},{"name":"G#3","midi":56,"time":447.09765625001296,"velocity":0.8031496062992126,"duration":0.49218750000005684},{"name":"E4","midi":64,"time":447.09765625001296,"velocity":0.8031496062992126,"duration":0.24479166666668561},{"name":"F#4","midi":66,"time":447.34505208334633,"velocity":0.8031496062992126,"duration":0.24479166666668561},{"name":"B3","midi":59,"time":447.5924479166797,"velocity":0.8031496062992126,"duration":0.9791666666667993},{"name":"G#4","midi":68,"time":447.5924479166797,"velocity":0.8031496062992126,"duration":0.24479166666668561},{"name":"A4","midi":69,"time":447.8398437500131,"velocity":0.8031496062992126,"duration":0.24479166666668561},{"name":"E3","midi":52,"time":448.08723958334645,"velocity":0.8031496062992126,"duration":0.49218750000005684},{"name":"B4","midi":71,"time":448.08723958334645,"velocity":0.8031496062992126,"duration":0.24479166666668561},{"name":"C#5","midi":73,"time":448.3346354166798,"velocity":0.8031496062992126,"duration":0.24479166666668561},{"name":"A3","midi":57,"time":448.5820312500132,"velocity":0.8031496062992126,"duration":0.49218750000005684},{"name":"D5","midi":74,"time":448.5820312500132,"velocity":0.8031496062992126,"duration":0.24479166666668561},{"name":"C#5","midi":73,"time":448.82942708334656,"velocity":0.8031496062992126,"duration":0.24479166666668561},{"name":"B3","midi":59,"time":449.07682291667993,"velocity":0.8031496062992126,"duration":0.4908854166666856},{"name":"B4","midi":71,"time":449.07682291667993,"velocity":0.8031496062992126,"duration":0.07942708333331439},{"name":"C#5","midi":73,"time":449.15885416667993,"velocity":0.8031496062992126,"duration":0.07942708333331439},{"name":"B4","midi":71,"time":449.24088541667993,"velocity":0.8031496062992126,"duration":0.07942708333331439},{"name":"A4","midi":69,"time":449.32291666667993,"velocity":0.8031496062992126,"duration":0.24479166666668561},{"name":"C#4","midi":61,"time":449.5703125000133,"velocity":0.8031496062992126,"duration":1.4817708333335418},{"name":"E5","midi":76,"time":449.5703125000133,"velocity":0.8031496062992126,"duration":0.24479166666668561},{"name":"D5","midi":74,"time":449.8177083333467,"velocity":0.8031496062992126,"duration":0.24479166666668561},{"name":"E4","midi":64,"time":450.06510416668004,"velocity":0.8031496062992126,"duration":0.49218750000005684},{"name":"C#5","midi":73,"time":450.06510416668004,"velocity":0.8031496062992126,"duration":0.24479166666668561},{"name":"D5","midi":74,"time":450.3125000000134,"velocity":0.8031496062992126,"duration":0.24479166666668561},{"name":"A4","midi":69,"time":450.5598958333468,"velocity":0.8031496062992126,"duration":0.49218750000005684},{"name":"E5","midi":76,"time":450.5598958333468,"velocity":0.8031496062992126,"duration":0.24479166666668561},{"name":"F#5","midi":78,"time":450.80729166668016,"velocity":0.8031496062992126,"duration":0.24479166666668561},{"name":"C#4","midi":61,"time":451.05468750001353,"velocity":0.8031496062992126,"duration":0.49218750000005684},{"name":"A3","midi":57,"time":451.05468750001353,"velocity":0.8031496062992126,"duration":0.49218750000005684},{"name":"G5","midi":79,"time":451.05468750001353,"velocity":0.8031496062992126,"duration":0.24479166666668561},{"name":"F#5","midi":78,"time":451.3020833333469,"velocity":0.8031496062992126,"duration":0.24479166666668561},{"name":"B3","midi":59,"time":451.54947916668027,"velocity":0.8031496062992126,"duration":0.49218750000005684},{"name":"D4","midi":62,"time":451.54947916668027,"velocity":0.8031496062992126,"duration":0.49218750000005684},{"name":"G5","midi":79,"time":451.54947916668027,"velocity":0.8031496062992126,"duration":0.24479166666668561},{"name":"B5","midi":83,"time":451.79687500001364,"velocity":0.8031496062992126,"duration":0.24479166666668561},{"name":"C#4","midi":61,"time":452.044270833347,"velocity":0.8031496062992126,"duration":0.49218750000005684},{"name":"E4","midi":64,"time":452.044270833347,"velocity":0.8031496062992126,"duration":0.49218750000005684},{"name":"A5","midi":81,"time":452.044270833347,"velocity":0.8031496062992126,"duration":0.24479166666668561},{"name":"G5","midi":79,"time":452.2916666666804,"velocity":0.8031496062992126,"duration":0.24479166666668561},{"name":"D4","midi":62,"time":452.53906250001376,"velocity":0.8031496062992126,"duration":0.49218750000005684},{"name":"F#5","midi":78,"time":452.53906250001376,"velocity":0.8031496062992126,"duration":0.24479166666668561},{"name":"E5","midi":76,"time":452.7864583333471,"velocity":0.8031496062992126,"duration":0.24479166666668561},{"name":"C#4","midi":61,"time":453.0338541666805,"velocity":0.8031496062992126,"duration":0.24479166666668561},{"name":"F#5","midi":78,"time":453.0338541666805,"velocity":0.8031496062992126,"duration":0.24479166666668561},{"name":"B3","midi":59,"time":453.28125000001387,"velocity":0.8031496062992126,"duration":0.24479166666668561},{"name":"G#5","midi":80,"time":453.28125000001387,"velocity":0.8031496062992126,"duration":0.24479166666668561},{"name":"C#4","midi":61,"time":453.52864583334724,"velocity":0.8031496062992126,"duration":0.49218750000005684},{"name":"A5","midi":81,"time":453.52864583334724,"velocity":0.8031496062992126,"duration":0.24479166666668561},{"name":"D5","midi":74,"time":453.7760416666806,"velocity":0.8031496062992126,"duration":0.24479166666668561},{"name":"D4","midi":62,"time":454.023437500014,"velocity":0.8031496062992126,"duration":0.49218750000005684},{"name":"C#5","midi":73,"time":454.023437500014,"velocity":0.8031496062992126,"duration":0.24479166666668561},{"name":"B4","midi":71,"time":454.27083333334735,"velocity":0.8031496062992126,"duration":0.24479166666668561},{"name":"E4","midi":64,"time":454.5182291666807,"velocity":0.8031496062992126,"duration":0.4908854166666856},{"name":"G#4","midi":68,"time":454.5182291666807,"velocity":0.8031496062992126,"duration":0.7200520833333712},{"name":"C#5","midi":73,"time":454.5182291666807,"velocity":0.8031496062992126,"duration":0.16276041666668561},{"name":"B4","midi":71,"time":454.6835937500141,"velocity":0.8031496062992126,"duration":0.07942708333331439},{"name":"C#5","midi":73,"time":454.7656250000141,"velocity":0.8031496062992126,"duration":0.07942708333331439},{"name":"B4","midi":71,"time":454.8476562500141,"velocity":0.8031496062992126,"duration":0.07942708333331439},{"name":"C#5","midi":73,"time":454.9296875000141,"velocity":0.8031496062992126,"duration":0.07942708333331439},{"name":"E3","midi":52,"time":455.0117187500141,"velocity":0.8031496062992126,"duration":0.49218750000005684},{"name":"B4","midi":71,"time":455.0117187500141,"velocity":0.8031496062992126,"duration":0.07942708333331439},{"name":"C#5","midi":73,"time":455.0937500000141,"velocity":0.8031496062992126,"duration":0.07942708333331439},{"name":"B4","midi":71,"time":455.1757812500141,"velocity":0.8031496062992126,"duration":0.08072916666668561},{"name":"A4","midi":69,"time":455.25911458334747,"velocity":0.8031496062992126,"duration":0.24479166666668561},{"name":"A2","midi":45,"time":455.50651041668084,"velocity":0.8031496062992126,"duration":1.234375},{"name":"A4","midi":69,"time":455.50651041668084,"velocity":0.8031496062992126,"duration":2.4765625000001137},{"name":"E4","midi":64,"time":455.75390625001415,"velocity":0.8031496062992126,"duration":2.2187500000001137},{"name":"C#4","midi":61,"time":456.00130208334747,"velocity":0.8031496062992126,"duration":1.9609375000001137},{"name":"G#3","midi":56,"time":456.2486979166808,"velocity":0.8031496062992126,"duration":0.24479166666668561},{"name":"A3","midi":57,"time":456.49609375001415,"velocity":0.8031496062992126,"duration":1.731770833333485},{"name":"E2","midi":40,"time":456.7434895833475,"velocity":0.8031496062992126,"duration":0.24479166666668561},{"name":"A1","midi":33,"time":456.9908854166809,"velocity":0.8031496062992126,"duration":1.4843750000001137},{"name":"A4","midi":69,"time":458.2304687500143,"velocity":0.8031496062992126,"duration":0.24479166666668561},{"name":"A3","midi":57,"time":458.4778645833477,"velocity":0.8031496062992126,"duration":0.7395833333333144},{"name":"A4","midi":69,"time":458.4778645833477,"velocity":0.8031496062992126,"duration":1.481770833333428},{"name":"E4","midi":64,"time":458.725260416681,"velocity":0.8031496062992126,"duration":1.2369791666667993},{"name":"C#4","midi":61,"time":458.9726562500143,"velocity":0.8031496062992126,"duration":0.9869791666667993},{"name":"A2","midi":45,"time":459.2200520833477,"velocity":0.8031496062992126,"duration":0.24479166666668561},{"name":"B2","midi":47,"time":459.46744791668107,"velocity":0.8031496062992126,"duration":0.24479166666668561},{"name":"D3","midi":50,"time":459.71484375001444,"velocity":0.8031496062992126,"duration":0.24479166666668561},{"name":"C#3","midi":49,"time":459.9622395833478,"velocity":0.8031496062992126,"duration":0.24479166666668561},{"name":"E4","midi":64,"time":459.9622395833478,"velocity":0.8031496062992126,"duration":0.49218750000005684},{"name":"E3","midi":52,"time":460.2096354166812,"velocity":0.8031496062992126,"duration":0.24479166666668561},{"name":"D3","midi":50,"time":460.45703125001455,"velocity":0.8031496062992126,"duration":0.24479166666668561},{"name":"E4","midi":64,"time":460.45703125001455,"velocity":0.8031496062992126,"duration":0.16276041666668561},{"name":"F#4","midi":66,"time":460.6223958333479,"velocity":0.8031496062992126,"duration":0.07942708333331439},{"name":"C#3","midi":49,"time":460.7044270833479,"velocity":0.8031496062992126,"duration":0.24479166666668561},{"name":"E4","midi":64,"time":460.7044270833479,"velocity":0.8031496062992126,"duration":0.07942708333331439},{"name":"F#4","midi":66,"time":460.7864583333479,"velocity":0.8031496062992126,"duration":0.41015625000005684},{"name":"B2","midi":47,"time":460.9518229166813,"velocity":0.8031496062992126,"duration":0.24479166666668561},{"name":"A2","midi":45,"time":461.19921875001467,"velocity":0.8031496062992126,"duration":0.24479166666668561},{"name":"G4","midi":67,"time":461.19921875001467,"velocity":0.8031496062992126,"duration":0.24479166666668561},{"name":"D3","midi":50,"time":461.44661458334804,"velocity":0.8031496062992126,"duration":0.24479166666668561},{"name":"G4","midi":67,"time":461.44661458334804,"velocity":0.8031496062992126,"duration":0.16276041666668561},{"name":"F#4","midi":66,"time":461.6119791666814,"velocity":0.8031496062992126,"duration":0.07942708333331439},{"name":"E3","midi":52,"time":461.6940104166814,"velocity":0.8031496062992126,"duration":0.24348958333331439},{"name":"G4","midi":67,"time":461.6940104166814,"velocity":0.8031496062992126,"duration":0.07942708333331439},{"name":"F#4","midi":66,"time":461.7760416666814,"velocity":0.8031496062992126,"duration":0.07942708333331439},{"name":"G4","midi":67,"time":461.8580729166814,"velocity":0.8031496062992126,"duration":0.07942708333331439},{"name":"D3","midi":50,"time":461.9401041666814,"velocity":0.8031496062992126,"duration":0.24479166666668561},{"name":"F#4","midi":66,"time":461.9401041666814,"velocity":0.8031496062992126,"duration":0.24479166666668561},{"name":"C#3","midi":49,"time":462.1875000000148,"velocity":0.8031496062992126,"duration":0.24479166666668561},{"name":"A4","midi":69,"time":462.1875000000148,"velocity":0.8031496062992126,"duration":0.24479166666668561},{"name":"B2","midi":47,"time":462.43489583334815,"velocity":0.8031496062992126,"duration":0.24479166666668561},{"name":"D5","midi":74,"time":462.43489583334815,"velocity":0.8031496062992126,"duration":0.7226562500000568},{"name":"A2","midi":45,"time":462.6822916666815,"velocity":0.8031496062992126,"duration":0.24479166666668561},{"name":"C#5","midi":73,"time":462.6822916666815,"velocity":0.8031496062992126,"duration":0.24479166666668561},{"name":"G#2","midi":44,"time":462.9296875000149,"velocity":0.8031496062992126,"duration":0.24609375},{"name":"B4","midi":71,"time":462.9296875000149,"velocity":0.8031496062992126,"duration":0.9804687500001137},{"name":"E2","midi":40,"time":463.1783854166816,"velocity":0.8031496062992126,"duration":0.24479166666668561},{"name":"E5","midi":76,"time":463.1783854166816,"velocity":0.8031496062992126,"duration":0.24479166666668561},{"name":"A2","midi":45,"time":463.42578125001495,"velocity":0.8031496062992126,"duration":0.24479166666668561},{"name":"D5","midi":74,"time":463.42578125001495,"velocity":0.8031496062992126,"duration":0.16276041666668561},{"name":"C#5","midi":73,"time":463.5911458333483,"velocity":0.8031496062992126,"duration":0.07942708333331439},{"name":"E2","midi":40,"time":463.6731770833483,"velocity":0.8031496062992126,"duration":0.24479166666668561},{"name":"D5","midi":74,"time":463.6731770833483,"velocity":0.8031496062992126,"duration":0.07942708333331439},{"name":"C#5","midi":73,"time":463.7552083333483,"velocity":0.8031496062992126,"duration":0.07942708333331439},{"name":"D5","midi":74,"time":463.8372395833483,"velocity":0.8031496062992126,"duration":0.08072916666668561},{"name":"C#2","midi":37,"time":463.9205729166817,"velocity":0.8031496062992126,"duration":0.24479166666668561},{"name":"A4","midi":69,"time":463.9205729166817,"velocity":0.8031496062992126,"duration":0.24479166666668561},{"name":"C#5","midi":73,"time":463.9205729166817,"velocity":0.8031496062992126,"duration":0.24479166666668561},{"name":"A1","midi":33,"time":464.16796875001506,"velocity":0.8031496062992126,"duration":0.24479166666668561},{"name":"B4","midi":71,"time":464.16796875001506,"velocity":0.8031496062992126,"duration":0.24479166666668561},{"name":"E2","midi":40,"time":464.41536458334843,"velocity":0.8031496062992126,"duration":0.7395833333333144},{"name":"B4","midi":71,"time":464.41536458334843,"velocity":0.8031496062992126,"duration":1.481770833333428},{"name":"G#4","midi":68,"time":464.66276041668175,"velocity":0.8031496062992126,"duration":1.2369791666667993},{"name":"E4","midi":64,"time":464.91015625001506,"velocity":0.8031496062992126,"duration":0.9869791666667993},{"name":"E3","midi":52,"time":465.15755208334843,"velocity":0.8031496062992126,"duration":0.24479166666668561},{"name":"F#3","midi":54,"time":465.4049479166818,"velocity":0.8031496062992126,"duration":0.24479166666668561},{"name":"A3","midi":57,"time":465.6523437500152,"velocity":0.8031496062992126,"duration":0.24479166666668561},{"name":"G#3","midi":56,"time":465.89973958334855,"velocity":0.8031496062992126,"duration":0.24479166666668561},{"name":"E4","midi":64,"time":465.89973958334855,"velocity":0.8031496062992126,"duration":0.48958333333337123},{"name":"B4","midi":71,"time":466.00781250001523,"velocity":0.8031496062992126,"duration":0.37890625},{"name":"E5","midi":76,"time":466.1158854166819,"velocity":0.8031496062992126,"duration":0.2760416666666856},{"name":"B3","midi":59,"time":466.1471354166819,"velocity":0.8031496062992126,"duration":0.24479166666668561},{"name":"A3","midi":57,"time":466.3945312500153,"velocity":0.8031496062992126,"duration":0.24348958333331439},{"name":"B4","midi":71,"time":466.3945312500153,"velocity":0.8031496062992126,"duration":0.9752604166666856},{"name":"E5","midi":76,"time":466.3945312500153,"velocity":0.8031496062992126,"duration":0.07942708333331439},{"name":"D5","midi":74,"time":466.4765625000153,"velocity":0.8031496062992126,"duration":0.07942708333331439},{"name":"C#5","midi":73,"time":466.5585937500153,"velocity":0.8031496062992126,"duration":0.07942708333331439},{"name":"G#3","midi":56,"time":466.6406250000153,"velocity":0.8031496062992126,"duration":0.24348958333331439},{"name":"D5","midi":74,"time":466.6406250000153,"velocity":0.8031496062992126,"duration":0.07942708333331439},{"name":"E5","midi":76,"time":466.7226562500153,"velocity":0.8031496062992126,"duration":0.07942708333331439},{"name":"D5","midi":74,"time":466.8046875000153,"velocity":0.8031496062992126,"duration":0.07942708333331439},{"name":"F#3","midi":54,"time":466.8867187500153,"velocity":0.8031496062992126,"duration":0.24348958333331439},{"name":"E5","midi":76,"time":466.8867187500153,"velocity":0.8031496062992126,"duration":0.07942708333331439},{"name":"D5","midi":74,"time":466.9687500000153,"velocity":0.8031496062992126,"duration":0.07942708333331439},{"name":"C#5","midi":73,"time":467.0507812500153,"velocity":0.8031496062992126,"duration":0.07942708333331439},{"name":"E3","midi":52,"time":467.1328125000153,"velocity":0.8031496062992126,"duration":0.24479166666668561},{"name":"D5","midi":74,"time":467.1328125000153,"velocity":0.8031496062992126,"duration":0.07942708333331439},{"name":"E5","midi":76,"time":467.2148437500153,"velocity":0.8031496062992126,"duration":0.16276041666668561},{"name":"A3","midi":57,"time":467.38020833334866,"velocity":0.8031496062992126,"duration":0.24348958333331439},{"name":"A4","midi":69,"time":467.38020833334866,"velocity":0.8031496062992126,"duration":0.7213541666666856},{"name":"D5","midi":74,"time":467.38020833334866,"velocity":0.8031496062992126,"duration":0.07942708333331439},{"name":"C#5","midi":73,"time":467.46223958334866,"velocity":0.8031496062992126,"duration":0.07942708333331439},{"name":"D5","midi":74,"time":467.54427083334866,"velocity":0.8031496062992126,"duration":0.07942708333331439},{"name":"B3","midi":59,"time":467.62630208334866,"velocity":0.8031496062992126,"duration":0.24479166666668561},{"name":"C#5","midi":73,"time":467.62630208334866,"velocity":0.8031496062992126,"duration":0.49348958333337123},{"name":"A3","midi":57,"time":467.87369791668203,"velocity":0.8031496062992126,"duration":0.24609375},{"name":"G#3","midi":56,"time":468.1223958333487,"velocity":0.8031496062992126,"duration":0.24479166666668561},{"name":"B4","midi":71,"time":468.1223958333487,"velocity":0.8031496062992126,"duration":0.24479166666668561},{"name":"F#3","midi":54,"time":468.3697916666821,"velocity":0.8031496062992126,"duration":0.24479166666668561},{"name":"A4","midi":69,"time":468.3697916666821,"velocity":0.8031496062992126,"duration":0.24479166666668561},{"name":"G#3","midi":56,"time":468.61718750001546,"velocity":0.8031496062992126,"duration":0.24479166666668561},{"name":"C#5","midi":73,"time":468.61718750001546,"velocity":0.8031496062992126,"duration":0.24479166666668561},{"name":"A3","midi":57,"time":468.86458333334883,"velocity":0.8031496062992126,"duration":0.24479166666668561},{"name":"F#5","midi":78,"time":468.86458333334883,"velocity":0.8031496062992126,"duration":0.49218750000005684},{"name":"F#3","midi":54,"time":469.1119791666822,"velocity":0.8031496062992126,"duration":0.24479166666668561},{"name":"G#3","midi":56,"time":469.3593750000156,"velocity":0.8031496062992126,"duration":0.24348958333331439},{"name":"F#5","midi":78,"time":469.3593750000156,"velocity":0.8031496062992126,"duration":0.07942708333331439},{"name":"E5","midi":76,"time":469.4414062500156,"velocity":0.8031496062992126,"duration":0.07942708333331439},{"name":"D#5","midi":75,"time":469.5234375000156,"velocity":0.8031496062992126,"duration":0.07942708333331439},{"name":"B3","midi":59,"time":469.6054687500156,"velocity":0.8031496062992126,"duration":0.24348958333331439},{"name":"E5","midi":76,"time":469.6054687500156,"velocity":0.8031496062992126,"duration":0.07942708333331439},{"name":"F#5","midi":78,"time":469.6875000000156,"velocity":0.8031496062992126,"duration":0.07942708333331439},{"name":"E5","midi":76,"time":469.7695312500156,"velocity":0.8031496062992126,"duration":0.07942708333331439},{"name":"A#3","midi":58,"time":469.8515625000156,"velocity":0.8031496062992126,"duration":0.24348958333331439},{"name":"F#5","midi":78,"time":469.8515625000156,"velocity":0.8031496062992126,"duration":0.07942708333331439},{"name":"E5","midi":76,"time":469.9335937500156,"velocity":0.8031496062992126,"duration":0.07942708333331439},{"name":"D#5","midi":75,"time":470.0156250000156,"velocity":0.8031496062992126,"duration":0.07942708333331439},{"name":"C#4","midi":61,"time":470.0976562500156,"velocity":0.8031496062992126,"duration":0.24479166666668561},{"name":"E5","midi":76,"time":470.0976562500156,"velocity":0.8031496062992126,"duration":0.07942708333331439},{"name":"F#5","midi":78,"time":470.1796875000156,"velocity":0.8031496062992126,"duration":0.16276041666668561},{"name":"B3","midi":59,"time":470.34505208334895,"velocity":0.8031496062992126,"duration":0.24348958333331439},{"name":"E5","midi":76,"time":470.34505208334895,"velocity":0.8031496062992126,"duration":0.07942708333331439},{"name":"D#5","midi":75,"time":470.42708333334895,"velocity":0.8031496062992126,"duration":0.07942708333331439},{"name":"E5","midi":76,"time":470.50911458334895,"velocity":0.8031496062992126,"duration":0.07942708333331439},{"name":"C#4","midi":61,"time":470.59114583334895,"velocity":0.8031496062992126,"duration":0.24479166666668561},{"name":"D#5","midi":75,"time":470.59114583334895,"velocity":0.8031496062992126,"duration":0.49218750000005684},{"name":"B3","midi":59,"time":470.8385416666823,"velocity":0.8031496062992126,"duration":0.24479166666668561},{"name":"A3","midi":57,"time":471.0859375000157,"velocity":0.8031496062992126,"duration":0.24479166666668561},{"name":"C#5","midi":73,"time":471.0859375000157,"velocity":0.8031496062992126,"duration":0.24479166666668561},{"name":"G#3","midi":56,"time":471.33333333334906,"velocity":0.8031496062992126,"duration":0.24479166666668561},{"name":"B4","midi":71,"time":471.33333333334906,"velocity":0.8031496062992126,"duration":0.24479166666668561},{"name":"A3","midi":57,"time":471.58072916668243,"velocity":0.8031496062992126,"duration":0.24479166666668561},{"name":"F#5","midi":78,"time":471.58072916668243,"velocity":0.8031496062992126,"duration":0.24479166666668561},{"name":"B3","midi":59,"time":471.8281250000158,"velocity":0.8031496062992126,"duration":0.24479166666668561},{"name":"B5","midi":83,"time":471.8281250000158,"velocity":0.8031496062992126,"duration":0.49218750000005684},{"name":"G#3","midi":56,"time":472.0755208333492,"velocity":0.8031496062992126,"duration":0.24479166666668561},{"name":"C#4","midi":61,"time":472.32291666668254,"velocity":0.8031496062992126,"duration":0.24348958333331439},{"name":"B5","midi":83,"time":472.32291666668254,"velocity":0.8031496062992126,"duration":0.07942708333331439},{"name":"A5","midi":81,"time":472.40494791668254,"velocity":0.8031496062992126,"duration":0.07942708333331439},{"name":"G#5","midi":80,"time":472.48697916668254,"velocity":0.8031496062992126,"duration":0.07942708333331439},{"name":"E4","midi":64,"time":472.56901041668254,"velocity":0.8031496062992126,"duration":0.24348958333331439},{"name":"A5","midi":81,"time":472.56901041668254,"velocity":0.8031496062992126,"duration":0.07942708333331439},{"name":"B5","midi":83,"time":472.65104166668254,"velocity":0.8031496062992126,"duration":0.07942708333331439},{"name":"A5","midi":81,"time":472.73307291668254,"velocity":0.8031496062992126,"duration":0.07942708333331439},{"name":"D#4","midi":63,"time":472.81510416668254,"velocity":0.8031496062992126,"duration":0.24348958333331439},{"name":"B5","midi":83,"time":472.81510416668254,"velocity":0.8031496062992126,"duration":0.07942708333331439},{"name":"A5","midi":81,"time":472.89713541668254,"velocity":0.8031496062992126,"duration":0.07942708333331439},{"name":"G#5","midi":80,"time":472.97916666668254,"velocity":0.8031496062992126,"duration":0.07942708333331439},{"name":"F#4","midi":66,"time":473.06119791668254,"velocity":0.8031496062992126,"duration":0.24479166666668561},{"name":"A5","midi":81,"time":473.06119791668254,"velocity":0.8031496062992126,"duration":0.07942708333331439},{"name":"B5","midi":83,"time":473.14322916668254,"velocity":0.8031496062992126,"duration":0.16276041666668561},{"name":"E4","midi":64,"time":473.3085937500159,"velocity":0.8031496062992126,"duration":0.24348958333331439},{"name":"A5","midi":81,"time":473.3085937500159,"velocity":0.8031496062992126,"duration":0.07942708333331439},{"name":"G#5","midi":80,"time":473.3906250000159,"velocity":0.8031496062992126,"duration":0.07942708333331439},{"name":"A5","midi":81,"time":473.4726562500159,"velocity":0.8031496062992126,"duration":0.07942708333331439},{"name":"D#4","midi":63,"time":473.5546875000159,"velocity":0.8031496062992126,"duration":0.24479166666668561},{"name":"G#5","midi":80,"time":473.5546875000159,"velocity":0.8031496062992126,"duration":0.49218750000005684},{"name":"E4","midi":64,"time":473.8020833333493,"velocity":0.8031496062992126,"duration":0.24479166666668561},{"name":"F#4","midi":66,"time":474.04947916668266,"velocity":0.8031496062992126,"duration":0.24479166666668561},{"name":"A5","midi":81,"time":474.04947916668266,"velocity":0.8031496062992126,"duration":0.24479166666668561},{"name":"G#4","midi":68,"time":474.29687500001603,"velocity":0.8031496062992126,"duration":0.24479166666668561},{"name":"B5","midi":83,"time":474.29687500001603,"velocity":0.8031496062992126,"duration":0.24479166666668561},{"name":"E4","midi":64,"time":474.5442708333494,"velocity":0.8031496062992126,"duration":0.24479166666668561},{"name":"G#5","midi":80,"time":474.5442708333494,"velocity":0.8031496062992126,"duration":0.24479166666668561},{"name":"F#4","midi":66,"time":474.7916666666828,"velocity":0.8031496062992126,"duration":0.24479166666668561},{"name":"A5","midi":81,"time":474.7916666666828,"velocity":0.8031496062992126,"duration":0.24479166666668561},{"name":"G#4","midi":68,"time":475.03906250001614,"velocity":0.8031496062992126,"duration":0.24479166666668561},{"name":"B5","midi":83,"time":475.03906250001614,"velocity":0.8031496062992126,"duration":0.24479166666668561},{"name":"A4","midi":69,"time":475.2864583333495,"velocity":0.8031496062992126,"duration":0.24348958333331439},{"name":"D5","midi":74,"time":475.2864583333495,"velocity":0.8031496062992126,"duration":0.07942708333331439},{"name":"C#5","midi":73,"time":475.3684895833495,"velocity":0.8031496062992126,"duration":0.07942708333331439},{"name":"D5","midi":74,"time":475.4505208333495,"velocity":0.8031496062992126,"duration":0.07942708333331439},{"name":"G#4","midi":68,"time":475.5325520833495,"velocity":0.8031496062992126,"duration":0.24479166666668561},{"name":"C#5","midi":73,"time":475.5325520833495,"velocity":0.8031496062992126,"duration":0.49218750000005684},{"name":"A4","midi":69,"time":475.7799479166829,"velocity":0.8031496062992126,"duration":0.24479166666668561},{"name":"F#4","midi":66,"time":476.02734375001626,"velocity":0.8031496062992126,"duration":0.24479166666668561},{"name":"A5","midi":81,"time":476.02734375001626,"velocity":0.8031496062992126,"duration":0.24479166666668561},{"name":"B4","midi":71,"time":476.27473958334963,"velocity":0.8031496062992126,"duration":0.7213541666666856},{"name":"E5","midi":76,"time":476.27473958334963,"velocity":0.8031496062992126,"duration":0.07942708333331439},{"name":"D#5","midi":75,"time":476.35677083334963,"velocity":0.8031496062992126,"duration":0.07942708333331439},{"name":"E5","midi":76,"time":476.43880208334963,"velocity":0.8031496062992126,"duration":0.07942708333331439},{"name":"B2","midi":47,"time":476.52083333334963,"velocity":0.8031496062992126,"duration":0.24479166666668561},{"name":"D#5","midi":75,"time":476.52083333334963,"velocity":0.8031496062992126,"duration":0.49348958333337123},{"name":"C#3","midi":49,"time":476.768229166683,"velocity":0.8031496062992126,"duration":0.24609375},{"name":"D#3","midi":51,"time":477.0169270833497,"velocity":0.8031496062992126,"duration":0.24479166666668561},{"name":"C#5","midi":73,"time":477.0169270833497,"velocity":0.8031496062992126,"duration":0.24479166666668561},{"name":"E3","midi":52,"time":477.26432291668306,"velocity":0.8031496062992126,"duration":0.24479166666668561},{"name":"B4","midi":71,"time":477.26432291668306,"velocity":0.8031496062992126,"duration":0.24479166666668561},{"name":"F#3","midi":54,"time":477.5117187500164,"velocity":0.8031496062992126,"duration":0.24479166666668561},{"name":"A4","midi":69,"time":477.5117187500164,"velocity":0.8031496062992126,"duration":0.24479166666668561},{"name":"G#3","midi":56,"time":477.7591145833498,"velocity":0.8031496062992126,"duration":0.24479166666668561},{"name":"G#4","midi":68,"time":477.7591145833498,"velocity":0.8031496062992126,"duration":0.24479166666668561},{"name":"A3","midi":57,"time":478.00651041668317,"velocity":0.8031496062992126,"duration":0.24479166666668561},{"name":"E5","midi":76,"time":478.00651041668317,"velocity":0.8031496062992126,"duration":0.24479166666668561},{"name":"B3","midi":59,"time":478.25390625001654,"velocity":0.8031496062992126,"duration":0.24479166666668561},{"name":"D#4","midi":63,"time":478.25390625001654,"velocity":0.8031496062992126,"duration":0.7213541666666856},{"name":"G#4","midi":68,"time":478.25390625001654,"velocity":0.8031496062992126,"duration":0.16276041666668561},{"name":"F#4","midi":66,"time":478.4192708333499,"velocity":0.8031496062992126,"duration":0.07942708333331439},{"name":"A3","midi":57,"time":478.5013020833499,"velocity":0.8031496062992126,"duration":0.24348958333331439},{"name":"G#4","midi":68,"time":478.5013020833499,"velocity":0.8031496062992126,"duration":0.07942708333331439},{"name":"F#4","midi":66,"time":478.5833333333499,"velocity":0.8031496062992126,"duration":0.07942708333331439},{"name":"G#4","midi":68,"time":478.6653645833499,"velocity":0.8031496062992126,"duration":0.07942708333331439},{"name":"B3","midi":59,"time":478.7473958333499,"velocity":0.8031496062992126,"duration":0.24609375},{"name":"F#4","midi":66,"time":478.7473958333499,"velocity":0.8031496062992126,"duration":0.24609375},{"name":"B2","midi":47,"time":478.9960937500166,"velocity":0.8031496062992126,"duration":0.24479166666668561},{"name":"E4","midi":64,"time":478.9960937500166,"velocity":0.8031496062992126,"duration":0.24479166666668561},{"name":"E3","midi":52,"time":479.24348958334997,"velocity":0.8031496062992126,"duration":0.7395833333333144},{"name":"E4","midi":64,"time":479.24348958334997,"velocity":0.8031496062992126,"duration":2.4752604166666856},{"name":"B3","midi":59,"time":479.4908854166833,"velocity":0.8031496062992126,"duration":1.9778645833333712},{"name":"G#3","midi":56,"time":479.7382812500166,"velocity":0.8031496062992126,"duration":2.2252604166667425},{"name":"B2","midi":47,"time":479.98567708334997,"velocity":0.8031496062992126,"duration":0.24479166666668561},{"name":"E2","midi":40,"time":480.23307291668334,"velocity":0.8031496062992126,"duration":1.4830729166666288},{"name":"B2","midi":47,"time":480.48046875001666,"velocity":0.8031496062992126,"duration":1.23828125},{"name":"E3","midi":52,"time":480.72786458334997,"velocity":0.8031496062992126,"duration":1.2382812500000568},{"name":"B4","midi":71,"time":481.75390625001666,"velocity":0.8031496062992126,"duration":0.4166666666666856},{"name":"E2","midi":40,"time":482.21354166668334,"velocity":0.8031496062992126,"duration":0.7395833333333144},{"name":"B4","midi":71,"time":482.21354166668334,"velocity":0.8031496062992126,"duration":1.481770833333428},{"name":"G#4","midi":68,"time":482.46093750001666,"velocity":0.8031496062992126,"duration":1.2369791666667993},{"name":"E4","midi":64,"time":482.70833333334997,"velocity":0.8031496062992126,"duration":0.9869791666667993},{"name":"B2","midi":47,"time":482.95572916668334,"velocity":0.8031496062992126,"duration":0.24479166666668561},{"name":"C#3","midi":49,"time":483.2031250000167,"velocity":0.8031496062992126,"duration":0.24479166666668561},{"name":"E3","midi":52,"time":483.4505208333501,"velocity":0.8031496062992126,"duration":0.24479166666668561},{"name":"D3","midi":50,"time":483.69791666668345,"velocity":0.8031496062992126,"duration":0.24479166666668561},{"name":"G#4","midi":68,"time":483.69791666668345,"velocity":0.8031496062992126,"duration":0.49218750000005684},{"name":"E4","midi":64,"time":483.69791666668345,"velocity":0.8031496062992126,"duration":0.49218750000005684},{"name":"F#3","midi":54,"time":483.9453125000168,"velocity":0.8031496062992126,"duration":0.24479166666668561},{"name":"E3","midi":52,"time":484.1927083333502,"velocity":0.8031496062992126,"duration":0.24479166666668561},{"name":"F#4","midi":66,"time":484.1927083333502,"velocity":0.8031496062992126,"duration":0.7226562500000568},{"name":"G#4","midi":68,"time":484.1927083333502,"velocity":0.8031496062992126,"duration":0.16276041666668561},{"name":"A4","midi":69,"time":484.35807291668357,"velocity":0.8031496062992126,"duration":0.07942708333331439},{"name":"D3","midi":50,"time":484.44010416668357,"velocity":0.8031496062992126,"duration":0.24479166666668561},{"name":"G#4","midi":68,"time":484.44010416668357,"velocity":0.8031496062992126,"duration":0.07942708333331439},{"name":"A4","midi":69,"time":484.52213541668357,"velocity":0.8031496062992126,"duration":0.41145833333337123},{"name":"C#3","midi":49,"time":484.68750000001694,"velocity":0.8031496062992126,"duration":0.24609375},{"name":"B2","midi":47,"time":484.9361979166836,"velocity":0.8031496062992126,"duration":0.24479166666668561},{"name":"G#4","midi":68,"time":484.9361979166836,"velocity":0.8031496062992126,"duration":0.24479166666668561},{"name":"B4","midi":71,"time":484.9361979166836,"velocity":0.8031496062992126,"duration":0.24479166666668561},{"name":"A2","midi":45,"time":485.183593750017,"velocity":0.8031496062992126,"duration":0.24479166666668561},{"name":"A4","midi":69,"time":485.183593750017,"velocity":0.8031496062992126,"duration":0.7395833333334281},{"name":"C#5","midi":73,"time":485.183593750017,"velocity":0.8031496062992126,"duration":0.7395833333334281},{"name":"A3","midi":57,"time":485.43098958335037,"velocity":0.8031496062992126,"duration":0.24479166666668561},{"name":"B3","midi":59,"time":485.67838541668374,"velocity":0.8031496062992126,"duration":0.24479166666668561},{"name":"C#4","midi":61,"time":485.9257812500171,"velocity":0.8031496062992126,"duration":0.24479166666668561},{"name":"A4","midi":69,"time":485.9257812500171,"velocity":0.8031496062992126,"duration":0.7226562500000568},{"name":"D4","midi":62,"time":486.1731770833505,"velocity":0.8031496062992126,"duration":0.24479166666668561},{"name":"F#5","midi":78,"time":486.1731770833505,"velocity":0.8031496062992126,"duration":0.7239583333333712},{"name":"C#4","midi":61,"time":486.42057291668385,"velocity":0.8031496062992126,"duration":0.24609375},{"name":"B3","midi":59,"time":486.66927083335054,"velocity":0.8031496062992126,"duration":0.24609375},{"name":"D5","midi":74,"time":486.66927083335054,"velocity":0.8031496062992126,"duration":0.7239583333334281},{"name":"A3","midi":57,"time":486.9179687500172,"velocity":0.8031496062992126,"duration":0.24479166666668561},{"name":"G5","midi":79,"time":486.9179687500172,"velocity":0.8031496062992126,"duration":0.24479166666668561},{"name":"G#3","midi":56,"time":487.1653645833506,"velocity":0.8031496062992126,"duration":0.24609375000005684},{"name":"F#5","midi":78,"time":487.1653645833506,"velocity":0.8031496062992126,"duration":0.16276041666668561},{"name":"E5","midi":76,"time":487.33072916668397,"velocity":0.8031496062992126,"duration":0.08072916666668561},{"name":"B3","midi":59,"time":487.41406250001734,"velocity":0.8031496062992126,"duration":0.24348958333331439},{"name":"F#5","midi":78,"time":487.41406250001734,"velocity":0.8031496062992126,"duration":0.07942708333331439},{"name":"E5","midi":76,"time":487.49609375001734,"velocity":0.8031496062992126,"duration":0.07942708333331439},{"name":"F#5","midi":78,"time":487.57812500001734,"velocity":0.8031496062992126,"duration":0.07942708333331439},{"name":"A#3","midi":58,"time":487.66015625001734,"velocity":0.8031496062992126,"duration":0.24479166666668561},{"name":"C#5","midi":73,"time":487.66015625001734,"velocity":0.8031496062992126,"duration":0.24479166666668561},{"name":"E5","midi":76,"time":487.66015625001734,"velocity":0.8031496062992126,"duration":0.24479166666668561},{"name":"C#4","midi":61,"time":487.9075520833507,"velocity":0.8031496062992126,"duration":0.24479166666668561},{"name":"D5","midi":74,"time":487.9075520833507,"velocity":0.8031496062992126,"duration":0.12109375},{"name":"C#5","midi":73,"time":488.0312500000174,"velocity":0.8031496062992126,"duration":0.12109375},{"name":"B3","midi":59,"time":488.1549479166841,"velocity":0.8031496062992126,"duration":0.24479166666668561},{"name":"D5","midi":74,"time":488.1549479166841,"velocity":0.8031496062992126,"duration":1.4817708333335418},{"name":"A#3","midi":58,"time":488.40234375001745,"velocity":0.8031496062992126,"duration":0.24479166666668561},{"name":"B4","midi":71,"time":488.40234375001745,"velocity":0.8031496062992126,"duration":1.2369791666668561},{"name":"B3","midi":59,"time":488.6497395833508,"velocity":0.8031496062992126,"duration":0.24479166666668561},{"name":"F#4","midi":66,"time":488.6497395833508,"velocity":0.8031496062992126,"duration":0.9869791666667993},{"name":"D4","midi":62,"time":488.8971354166842,"velocity":0.8031496062992126,"duration":0.24479166666668561},{"name":"C#4","midi":61,"time":489.14453125001756,"velocity":0.8031496062992126,"duration":0.24479166666668561},{"name":"E4","midi":64,"time":489.39192708335094,"velocity":0.8031496062992126,"duration":0.24479166666668561},{"name":"D4","midi":62,"time":489.6393229166843,"velocity":0.8031496062992126,"duration":0.24479166666668561},{"name":"B4","midi":71,"time":489.6393229166843,"velocity":0.8031496062992126,"duration":0.4908854166666856},{"name":"F#5","midi":78,"time":489.747395833351,"velocity":0.8031496062992126,"duration":0.3619791666666856},{"name":"B5","midi":83,"time":489.8554687500177,"velocity":0.8031496062992126,"duration":0.27734375},{"name":"F#4","midi":66,"time":489.8867187500177,"velocity":0.8031496062992126,"duration":0.24609375},{"name":"E4","midi":64,"time":490.13541666668436,"velocity":0.8031496062992126,"duration":0.24348958333331439},{"name":"F#5","midi":78,"time":490.13541666668436,"velocity":0.8031496062992126,"duration":0.9752604166666856},{"name":"B5","midi":83,"time":490.13541666668436,"velocity":0.8031496062992126,"duration":0.07942708333331439},{"name":"A5","midi":81,"time":490.21744791668436,"velocity":0.8031496062992126,"duration":0.07942708333331439},{"name":"G#5","midi":80,"time":490.29947916668436,"velocity":0.8031496062992126,"duration":0.07942708333331439},{"name":"D#4","midi":63,"time":490.38151041668436,"velocity":0.8031496062992126,"duration":0.24348958333331439},{"name":"A5","midi":81,"time":490.38151041668436,"velocity":0.8031496062992126,"duration":0.07942708333331439},{"name":"B5","midi":83,"time":490.46354166668436,"velocity":0.8031496062992126,"duration":0.07942708333331439},{"name":"A5","midi":81,"time":490.54557291668436,"velocity":0.8031496062992126,"duration":0.07942708333331439},{"name":"C#4","midi":61,"time":490.62760416668436,"velocity":0.8031496062992126,"duration":0.24348958333331439},{"name":"B5","midi":83,"time":490.62760416668436,"velocity":0.8031496062992126,"duration":0.07942708333331439},{"name":"A5","midi":81,"time":490.70963541668436,"velocity":0.8031496062992126,"duration":0.07942708333331439},{"name":"G#5","midi":80,"time":490.79166666668436,"velocity":0.8031496062992126,"duration":0.07942708333331439},{"name":"B3","midi":59,"time":490.87369791668436,"velocity":0.8031496062992126,"duration":0.24479166666668561},{"name":"A5","midi":81,"time":490.87369791668436,"velocity":0.8031496062992126,"duration":0.07942708333331439},{"name":"B5","midi":83,"time":490.95572916668436,"velocity":0.8031496062992126,"duration":0.16276041666668561},{"name":"E4","midi":64,"time":491.12109375001774,"velocity":0.8031496062992126,"duration":0.24479166666668561},{"name":"A5","midi":81,"time":491.12109375001774,"velocity":0.8031496062992126,"duration":0.16276041666668561},{"name":"E5","midi":76,"time":491.12109375001774,"velocity":0.8031496062992126,"duration":0.7213541666666856},{"name":"G5","midi":79,"time":491.2864583333511,"velocity":0.8031496062992126,"duration":0.07942708333331439},{"name":"F#4","midi":66,"time":491.3684895833511,"velocity":0.8031496062992126,"duration":0.24348958333331439},{"name":"A5","midi":81,"time":491.3684895833511,"velocity":0.8031496062992126,"duration":0.07942708333331439},{"name":"G5","midi":79,"time":491.4505208333511,"velocity":0.8031496062992126,"duration":0.07942708333331439},{"name":"A5","midi":81,"time":491.5325520833511,"velocity":0.8031496062992126,"duration":0.07942708333331439},{"name":"E4","midi":64,"time":491.6145833333511,"velocity":0.8031496062992126,"duration":0.24609375},{"name":"G5","midi":79,"time":491.6145833333511,"velocity":0.8031496062992126,"duration":0.24609375},{"name":"D4","midi":62,"time":491.8632812500178,"velocity":0.8031496062992126,"duration":0.24479166666668561},{"name":"F#5","midi":78,"time":491.8632812500178,"velocity":0.8031496062992126,"duration":0.24479166666668561},{"name":"C#4","midi":61,"time":492.11067708335116,"velocity":0.8031496062992126,"duration":0.24479166666668561},{"name":"E5","midi":76,"time":492.11067708335116,"velocity":0.8031496062992126,"duration":0.24479166666668561},{"name":"B3","midi":59,"time":492.35807291668453,"velocity":0.8031496062992126,"duration":0.24479166666668561},{"name":"G5","midi":79,"time":492.35807291668453,"velocity":0.8031496062992126,"duration":0.24479166666668561},{"name":"A3","midi":57,"time":492.6054687500179,"velocity":0.8031496062992126,"duration":0.24479166666668561},{"name":"B4","midi":71,"time":492.6054687500179,"velocity":0.8031496062992126,"duration":0.49218750000005684},{"name":"D4","midi":62,"time":492.6054687500179,"velocity":0.8031496062992126,"duration":0.49218750000005684},{"name":"G3","midi":55,"time":492.8528645833513,"velocity":0.8031496062992126,"duration":0.24479166666668561},{"name":"F#3","midi":54,"time":493.10026041668465,"velocity":0.8031496062992126,"duration":0.24739583333331439},{"name":"E4","midi":64,"time":493.10026041668465,"velocity":0.8031496062992126,"duration":0.7252604166666856},{"name":"G4","midi":67,"time":493.16276041668465,"velocity":0.8031496062992126,"duration":0.66015625},{"name":"A4","midi":69,"time":493.22526041668465,"velocity":0.8031496062992126,"duration":0.5690104166666856},{"name":"C#5","midi":73,"time":493.28776041668465,"velocity":0.8031496062992126,"duration":0.5559895833333712},{"name":"E3","midi":52,"time":493.35026041668465,"velocity":0.8031496062992126,"duration":0.24479166666668561},{"name":"F#3","midi":54,"time":493.597656250018,"velocity":0.8031496062992126,"duration":0.24609375},{"name":"D3","midi":50,"time":493.8463541666847,"velocity":0.8031496062992126,"duration":0.24479166666668561},{"name":"F#4","midi":66,"time":493.8463541666847,"velocity":0.8031496062992126,"duration":0.24479166666668561},{"name":"D5","midi":74,"time":493.8463541666847,"velocity":0.8031496062992126,"duration":0.24479166666668561},{"name":"A3","midi":57,"time":494.0937500000181,"velocity":0.8031496062992126,"duration":0.24348958333331439},{"name":"E4","midi":64,"time":494.0937500000181,"velocity":0.8031496062992126,"duration":0.9765625000000568},{"name":"D5","midi":74,"time":494.0937500000181,"velocity":0.8031496062992126,"duration":0.07942708333331439},{"name":"C#5","midi":73,"time":494.1757812500181,"velocity":0.8031496062992126,"duration":0.07942708333331439},{"name":"D5","midi":74,"time":494.2578125000181,"velocity":0.8031496062992126,"duration":0.07942708333331439},{"name":"B3","midi":59,"time":494.3398437500181,"velocity":0.8031496062992126,"duration":0.24348958333331439},{"name":"C#5","midi":73,"time":494.3398437500181,"velocity":0.8031496062992126,"duration":0.07942708333331439},{"name":"D5","midi":74,"time":494.4218750000181,"velocity":0.8031496062992126,"duration":0.07942708333331439},{"name":"C#5","midi":73,"time":494.5039062500181,"velocity":0.8031496062992126,"duration":0.3268229166666856},{"name":"A3","midi":57,"time":494.5859375000181,"velocity":0.8031496062992126,"duration":0.24479166666668561},{"name":"G3","midi":55,"time":494.83333333335145,"velocity":0.8031496062992126,"duration":0.24479166666668561},{"name":"B4","midi":71,"time":494.83333333335145,"velocity":0.8031496062992126,"duration":0.24479166666668561},{"name":"F#3","midi":54,"time":495.0807291666848,"velocity":0.8031496062992126,"duration":0.24479166666668561},{"name":"A4","midi":69,"time":495.0807291666848,"velocity":0.8031496062992126,"duration":0.9804687500001137},{"name":"E3","midi":52,"time":495.3281250000182,"velocity":0.8031496062992126,"duration":0.24479166666668561},{"name":"E5","midi":76,"time":495.3281250000182,"velocity":0.8031496062992126,"duration":0.7226562500000568},{"name":"D3","midi":50,"time":495.57552083335156,"velocity":0.8031496062992126,"duration":0.24479166666668561},{"name":"A5","midi":81,"time":495.57552083335156,"velocity":0.8031496062992126,"duration":0.49348958333337123},{"name":"C#3","midi":49,"time":495.82291666668493,"velocity":0.8031496062992126,"duration":0.24609375},{"name":"B2","midi":47,"time":496.0716145833516,"velocity":0.8031496062992126,"duration":0.24348958333331439},{"name":"D5","midi":74,"time":496.0716145833516,"velocity":0.8031496062992126,"duration":0.48828125},{"name":"A5","midi":81,"time":496.0716145833516,"velocity":0.8031496062992126,"duration":0.07942708333331439},{"name":"G5","midi":79,"time":496.1536458333516,"velocity":0.8031496062992126,"duration":0.07942708333331439},{"name":"F#5","midi":78,"time":496.2356770833516,"velocity":0.8031496062992126,"duration":0.07942708333331439},{"name":"D3","midi":50,"time":496.3177083333516,"velocity":0.8031496062992126,"duration":0.24479166666668561},{"name":"G5","midi":79,"time":496.3177083333516,"velocity":0.8031496062992126,"duration":0.07942708333331439},{"name":"A5","midi":81,"time":496.3997395833516,"velocity":0.8031496062992126,"duration":0.07942708333331439},{"name":"G5","midi":79,"time":496.4817708333516,"velocity":0.8031496062992126,"duration":0.08072916666668561},{"name":"C#3","midi":49,"time":496.565104166685,"velocity":0.8031496062992126,"duration":0.24348958333331439},{"name":"E5","midi":76,"time":496.565104166685,"velocity":0.8031496062992126,"duration":0.48828125},{"name":"A5","midi":81,"time":496.565104166685,"velocity":0.8031496062992126,"duration":0.07942708333331439},{"name":"G5","midi":79,"time":496.647135416685,"velocity":0.8031496062992126,"duration":0.07942708333331439},{"name":"F#5","midi":78,"time":496.729166666685,"velocity":0.8031496062992126,"duration":0.07942708333331439},{"name":"E3","midi":52,"time":496.811197916685,"velocity":0.8031496062992126,"duration":0.24479166666668561},{"name":"G5","midi":79,"time":496.811197916685,"velocity":0.8031496062992126,"duration":0.07942708333331439},{"name":"A5","midi":81,"time":496.893229166685,"velocity":0.8031496062992126,"duration":0.16276041666668561},{"name":"D3","midi":50,"time":497.05859375001836,"velocity":0.8031496062992126,"duration":0.24479166666668561},{"name":"A4","midi":69,"time":497.05859375001836,"velocity":0.8031496062992126,"duration":1.4817708333335418},{"name":"G5","midi":79,"time":497.05859375001836,"velocity":0.8031496062992126,"duration":0.16276041666668561},{"name":"F#5","midi":78,"time":497.22395833335173,"velocity":0.8031496062992126,"duration":0.07942708333331439},{"name":"F#3","midi":54,"time":497.30598958335173,"velocity":0.8031496062992126,"duration":0.24479166666668561},{"name":"G5","midi":79,"time":497.30598958335173,"velocity":0.8031496062992126,"duration":0.07942708333331439},{"name":"F#5","midi":78,"time":497.38802083335173,"velocity":0.8031496062992126,"duration":0.41015625000005684},{"name":"E3","midi":52,"time":497.5533854166851,"velocity":0.8031496062992126,"duration":0.24479166666668561},{"name":"G3","midi":55,"time":497.8007812500185,"velocity":0.8031496062992126,"duration":0.24479166666668561},{"name":"E5","midi":76,"time":497.8007812500185,"velocity":0.8031496062992126,"duration":0.24479166666668561},{"name":"F#3","midi":54,"time":498.04817708335185,"velocity":0.8031496062992126,"duration":0.24479166666668561},{"name":"D5","midi":74,"time":498.04817708335185,"velocity":0.8031496062992126,"duration":0.24479166666668561},{"name":"A3","midi":57,"time":498.2955729166852,"velocity":0.8031496062992126,"duration":0.24479166666668561},{"name":"C#5","midi":73,"time":498.2955729166852,"velocity":0.8031496062992126,"duration":0.24479166666668561},{"name":"G3","midi":55,"time":498.5429687500186,"velocity":0.8031496062992126,"duration":0.24479166666668561},{"name":"B4","midi":71,"time":498.5429687500186,"velocity":0.8031496062992126,"duration":0.24479166666668561},{"name":"B3","midi":59,"time":498.79036458335196,"velocity":0.8031496062992126,"duration":0.24479166666668561},{"name":"E5","midi":76,"time":498.79036458335196,"velocity":0.8031496062992126,"duration":0.24479166666668561},{"name":"A3","midi":57,"time":499.03776041668533,"velocity":0.8031496062992126,"duration":0.24479166666668561},{"name":"D5","midi":74,"time":499.03776041668533,"velocity":0.8031496062992126,"duration":0.16276041666668561},{"name":"G4","midi":67,"time":499.03776041668533,"velocity":0.8031496062992126,"duration":0.9778645833334281},{"name":"C#5","midi":73,"time":499.2031250000187,"velocity":0.8031496062992126,"duration":0.07942708333331439},{"name":"G3","midi":55,"time":499.2851562500187,"velocity":0.8031496062992126,"duration":0.24348958333331439},{"name":"D5","midi":74,"time":499.2851562500187,"velocity":0.8031496062992126,"duration":0.07942708333331439},{"name":"C#5","midi":73,"time":499.3671875000187,"velocity":0.8031496062992126,"duration":0.07942708333331439},{"name":"D5","midi":74,"time":499.4492187500187,"velocity":0.8031496062992126,"duration":0.07942708333331439},{"name":"A3","midi":57,"time":499.5312500000187,"velocity":0.8031496062992126,"duration":0.24479166666668561},{"name":"C#5","midi":73,"time":499.5312500000187,"velocity":0.8031496062992126,"duration":0.24479166666668561},{"name":"A2","midi":45,"time":499.7786458333521,"velocity":0.8031496062992126,"duration":0.24479166666668561},{"name":"D5","midi":74,"time":499.7786458333521,"velocity":0.8031496062992126,"duration":0.24479166666668561},{"name":"D3","midi":50,"time":500.02604166668544,"velocity":0.8031496062992126,"duration":0.24479166666668561},{"name":"D5","midi":74,"time":500.02604166668544,"velocity":0.8031496062992126,"duration":1.522135416666913},{"name":"F#4","midi":66,"time":500.02604166668544,"velocity":0.8031496062992126,"duration":1.4817708333335418},{"name":"A4","midi":69,"time":500.02604166668544,"velocity":0.8031496062992126,"duration":1.518229166666913},{"name":"A3","midi":57,"time":500.2734375000188,"velocity":0.8031496062992126,"duration":0.24479166666668561},{"name":"B3","midi":59,"time":500.5208333333522,"velocity":0.8031496062992126,"duration":0.24479166666668561},{"name":"D4","midi":62,"time":500.76822916668556,"velocity":0.8031496062992126,"duration":0.24479166666668561},{"name":"C#4","midi":61,"time":501.01562500001893,"velocity":0.8031496062992126,"duration":0.24479166666668561},{"name":"E4","midi":64,"time":501.2630208333523,"velocity":0.8031496062992126,"duration":0.27083333333337123},{"name":"F#5","midi":78,"time":501.531250000019,"velocity":0.8031496062992126,"duration":0.07942708333337123},{"name":"D4","midi":62,"time":501.531250000019,"velocity":0.8031496062992126,"duration":0.24348958333337123},{"name":"E5","midi":76,"time":501.61328125001904,"velocity":0.8031496062992126,"duration":0.07942708333331439},{"name":"F#5","midi":78,"time":501.69531250001904,"velocity":0.8031496062992126,"duration":0.3268229166666856},{"name":"F#4","midi":66,"time":501.77734375001904,"velocity":0.8031496062992126,"duration":0.24479166666668561},{"name":"F#5","midi":78,"time":502.0247395833524,"velocity":0.8031496062992126,"duration":0.24479166666668561},{"name":"E4","midi":64,"time":502.0247395833524,"velocity":0.8031496062992126,"duration":0.24479166666668561},{"name":"G5","midi":79,"time":502.2721354166858,"velocity":0.8031496062992126,"duration":0.07942708333331439},{"name":"D4","midi":62,"time":502.2721354166858,"velocity":0.8031496062992126,"duration":0.24348958333331439},{"name":"F#5","midi":78,"time":502.3541666666858,"velocity":0.8031496062992126,"duration":0.07942708333331439},{"name":"G5","midi":79,"time":502.4361979166858,"velocity":0.8031496062992126,"duration":0.3268229166666856},{"name":"C#4","midi":61,"time":502.5182291666858,"velocity":0.8031496062992126,"duration":0.24479166666668561},{"name":"F#5","midi":78,"time":502.76562500001916,"velocity":0.8031496062992126,"duration":0.24479166666668561},{"name":"B3","midi":59,"time":502.76562500001916,"velocity":0.8031496062992126,"duration":0.24479166666668561},{"name":"F#5","midi":78,"time":503.0130208333525,"velocity":0.8031496062992126,"duration":0.16276041666668561},{"name":"A#3","midi":58,"time":503.0130208333525,"velocity":0.8031496062992126,"duration":0.24479166666668561},{"name":"E5","midi":76,"time":503.1783854166859,"velocity":0.8031496062992126,"duration":0.07942708333331439},{"name":"F#5","midi":78,"time":503.2604166666859,"velocity":0.8031496062992126,"duration":0.07942708333331439},{"name":"B3","midi":59,"time":503.2604166666859,"velocity":0.8031496062992126,"duration":0.24348958333331439},{"name":"E5","midi":76,"time":503.3424479166859,"velocity":0.8031496062992126,"duration":0.07942708333331439},{"name":"F#5","midi":78,"time":503.4244791666859,"velocity":0.8031496062992126,"duration":0.07942708333331439},{"name":"E5","midi":76,"time":503.5065104166859,"velocity":0.8031496062992126,"duration":0.24479166666668561},{"name":"C#4","midi":61,"time":503.5065104166859,"velocity":0.8031496062992126,"duration":0.24479166666668561},{"name":"D5","midi":74,"time":503.75390625001927,"velocity":0.8031496062992126,"duration":0.24479166666668561},{"name":"D4","midi":62,"time":503.75390625001927,"velocity":0.8031496062992126,"duration":0.24479166666668561},{"name":"D5","midi":74,"time":504.00130208335264,"velocity":0.8031496062992126,"duration":0.16276041666668561},{"name":"E4","midi":64,"time":504.00130208335264,"velocity":0.8031496062992126,"duration":0.24479166666668561},{"name":"C#5","midi":73,"time":504.166666666686,"velocity":0.8031496062992126,"duration":0.07942708333331439},{"name":"D5","midi":74,"time":504.248697916686,"velocity":0.8031496062992126,"duration":0.07942708333331439},{"name":"D4","midi":62,"time":504.248697916686,"velocity":0.8031496062992126,"duration":0.24479166666668561},{"name":"C#5","midi":73,"time":504.330729166686,"velocity":0.8031496062992126,"duration":0.16276041666668561},{"name":"B4","midi":71,"time":504.4960937500194,"velocity":0.8031496062992126,"duration":0.24479166666668561},{"name":"E4","midi":64,"time":504.4960937500194,"velocity":0.8031496062992126,"duration":0.24479166666668561},{"name":"A#4","midi":70,"time":504.74348958335275,"velocity":0.8031496062992126,"duration":0.24479166666668561},{"name":"F#4","midi":66,"time":504.74348958335275,"velocity":0.8031496062992126,"duration":0.24479166666668561},{"name":"A#4","midi":70,"time":504.9908854166861,"velocity":0.8031496062992126,"duration":0.16276041666668561},{"name":"G4","midi":67,"time":504.9908854166861,"velocity":0.8031496062992126,"duration":0.24479166666668561},{"name":"B4","midi":71,"time":505.1562500000195,"velocity":0.8031496062992126,"duration":0.07942708333331439},{"name":"A#4","midi":70,"time":505.2382812500195,"velocity":0.8031496062992126,"duration":0.07942708333331439},{"name":"F#4","midi":66,"time":505.2382812500195,"velocity":0.8031496062992126,"duration":0.24479166666668561},{"name":"B4","midi":71,"time":505.3203125000195,"velocity":0.8031496062992126,"duration":0.41015625000005684},{"name":"G4","midi":67,"time":505.48567708335287,"velocity":0.8031496062992126,"duration":0.24479166666668561},{"name":"C#5","midi":73,"time":505.73307291668624,"velocity":0.8031496062992126,"duration":0.24479166666668561},{"name":"E4","midi":64,"time":505.73307291668624,"velocity":0.8031496062992126,"duration":0.24479166666668561},{"name":"B4","midi":71,"time":505.9804687500196,"velocity":0.8031496062992126,"duration":0.07942708333331439},{"name":"F#4","midi":66,"time":505.9804687500196,"velocity":0.8031496062992126,"duration":0.24348958333331439},{"name":"A#4","midi":70,"time":506.0625000000196,"velocity":0.8031496062992126,"duration":0.07942708333331439},{"name":"B4","midi":71,"time":506.1445312500196,"velocity":0.8031496062992126,"duration":0.07942708333331439},{"name":"A#4","midi":70,"time":506.2265625000196,"velocity":0.8031496062992126,"duration":0.49218750000005684},{"name":"G4","midi":67,"time":506.2265625000196,"velocity":0.8031496062992126,"duration":0.24479166666668561},{"name":"F#4","midi":66,"time":506.473958333353,"velocity":0.8031496062992126,"duration":0.24479166666668561},{"name":"G#4","midi":68,"time":506.72135416668635,"velocity":0.8031496062992126,"duration":0.24479166666668561},{"name":"E4","midi":64,"time":506.72135416668635,"velocity":0.8031496062992126,"duration":0.24479166666668561},{"name":"F#4","midi":66,"time":506.9687500000197,"velocity":0.8031496062992126,"duration":0.9804687500001137},{"name":"D4","midi":62,"time":506.9687500000197,"velocity":0.8031496062992126,"duration":0.24479166666668561},{"name":"C#5","midi":73,"time":507.2161458333531,"velocity":0.8031496062992126,"duration":0.7226562500000568},{"name":"C#4","midi":61,"time":507.2161458333531,"velocity":0.8031496062992126,"duration":0.24479166666668561},{"name":"F#5","midi":78,"time":507.46354166668647,"velocity":0.8031496062992126,"duration":0.49348958333337123},{"name":"B3","midi":59,"time":507.46354166668647,"velocity":0.8031496062992126,"duration":0.24479166666668561},{"name":"A3","midi":57,"time":507.71093750001984,"velocity":0.8031496062992126,"duration":0.24609375},{"name":"F#5","midi":78,"time":507.9596354166865,"velocity":0.8031496062992126,"duration":0.16276041666668561},{"name":"B4","midi":71,"time":507.9596354166865,"velocity":0.8031496062992126,"duration":0.48958333333337123},{"name":"G#3","midi":56,"time":507.9596354166865,"velocity":0.8031496062992126,"duration":0.24479166666668561},{"name":"E5","midi":76,"time":508.1250000000199,"velocity":0.8031496062992126,"duration":0.07942708333331439},{"name":"F#5","midi":78,"time":508.2070312500199,"velocity":0.8031496062992126,"duration":0.07942708333331439},{"name":"B3","midi":59,"time":508.2070312500199,"velocity":0.8031496062992126,"duration":0.24479166666668561},{"name":"E5","midi":76,"time":508.2890625000199,"velocity":0.8031496062992126,"duration":0.07942708333331439},{"name":"F#5","midi":78,"time":508.3710937500199,"velocity":0.8031496062992126,"duration":0.08072916666668561},{"name":"E5","midi":76,"time":508.45442708335327,"velocity":0.8031496062992126,"duration":0.24479166666668561},{"name":"C#5","midi":73,"time":508.45442708335327,"velocity":0.8031496062992126,"duration":0.48958333333337123},{"name":"A#3","midi":58,"time":508.45442708335327,"velocity":0.8031496062992126,"duration":0.24479166666668561},{"name":"F#5","midi":78,"time":508.70182291668664,"velocity":0.8031496062992126,"duration":0.24479166666668561},{"name":"C#4","midi":61,"time":508.70182291668664,"velocity":0.8031496062992126,"duration":0.24479166666668561},{"name":"F#4","midi":66,"time":508.94921875002,"velocity":0.8031496062992126,"duration":0.9778645833334281},{"name":"E5","midi":76,"time":508.94921875002,"velocity":0.8031496062992126,"duration":0.07942708333331439},{"name":"B3","midi":59,"time":508.94921875002,"velocity":0.8031496062992126,"duration":0.24348958333331439},{"name":"D5","midi":74,"time":509.03125000002,"velocity":0.8031496062992126,"duration":0.07942708333331439},{"name":"E5","midi":76,"time":509.11328125002,"velocity":0.8031496062992126,"duration":0.07942708333331439},{"name":"D5","midi":74,"time":509.19531250002,"velocity":0.8031496062992126,"duration":0.49218750000005684},{"name":"C#4","midi":61,"time":509.19531250002,"velocity":0.8031496062992126,"duration":0.24479166666668561},{"name":"B3","midi":59,"time":509.4427083333534,"velocity":0.8031496062992126,"duration":0.24479166666668561},{"name":"C#5","midi":73,"time":509.69010416668675,"velocity":0.8031496062992126,"duration":0.24479166666668561},{"name":"A3","midi":57,"time":509.69010416668675,"velocity":0.8031496062992126,"duration":0.24479166666668561},{"name":"B4","midi":71,"time":509.9375000000201,"velocity":0.8031496062992126,"duration":0.24479166666668561},{"name":"G3","midi":55,"time":509.9375000000201,"velocity":0.8031496062992126,"duration":0.24479166666668561},{"name":"A#4","midi":70,"time":510.1848958333535,"velocity":0.8031496062992126,"duration":0.24479166666668561},{"name":"F#3","midi":54,"time":510.1848958333535,"velocity":0.8031496062992126,"duration":0.24479166666668561},{"name":"B4","midi":71,"time":510.43229166668687,"velocity":0.8031496062992126,"duration":0.24479166666668561},{"name":"G3","midi":55,"time":510.43229166668687,"velocity":0.8031496062992126,"duration":0.24479166666668561},{"name":"C#5","midi":73,"time":510.67968750002024,"velocity":0.8031496062992126,"duration":0.24479166666668561},{"name":"E3","midi":52,"time":510.67968750002024,"velocity":0.8031496062992126,"duration":0.24479166666668561},{"name":"D5","midi":74,"time":510.9270833333536,"velocity":0.8031496062992126,"duration":0.16276041666668561},{"name":"A#4","midi":70,"time":510.9270833333536,"velocity":0.8031496062992126,"duration":0.16276041666668561},{"name":"F#3","midi":54,"time":510.9270833333536,"velocity":0.8031496062992126,"duration":0.24479166666668561},{"name":"C#5","midi":73,"time":511.092447916687,"velocity":0.8031496062992126,"duration":0.07942708333331439},{"name":"D5","midi":74,"time":511.174479166687,"velocity":0.8031496062992126,"duration":0.07942708333331439},{"name":"E3","midi":52,"time":511.174479166687,"velocity":0.8031496062992126,"duration":0.24348958333331439},{"name":"C#5","midi":73,"time":511.256510416687,"velocity":0.8031496062992126,"duration":0.07942708333331439},{"name":"D5","midi":74,"time":511.338541666687,"velocity":0.8031496062992126,"duration":0.07942708333331439},{"name":"C#5","midi":73,"time":511.420572916687,"velocity":0.8031496062992126,"duration":0.07942708333331439},{"name":"F#3","midi":54,"time":511.420572916687,"velocity":0.8031496062992126,"duration":0.24348958333331439},{"name":"D5","midi":74,"time":511.502604166687,"velocity":0.8031496062992126,"duration":0.07942708333331439},{"name":"C#5","midi":73,"time":511.584635416687,"velocity":0.8031496062992126,"duration":0.07942708333331439},{"name":"B4","midi":71,"time":511.666666666687,"velocity":0.8031496062992126,"duration":0.24479166666668561},{"name":"F#2","midi":42,"time":511.666666666687,"velocity":0.8031496062992126,"duration":0.24479166666668561},{"name":"D4","midi":62,"time":511.91406250002035,"velocity":0.8031496062992126,"duration":1.4817708333329165},{"name":"B4","midi":71,"time":511.91406250002035,"velocity":0.8031496062992126,"duration":1.4817708333329165},{"name":"F#4","midi":66,"time":511.91406250002035,"velocity":0.8031496062992126,"duration":1.4817708333329165},{"name":"B2","midi":47,"time":511.91406250002035,"velocity":0.8031496062992126,"duration":0.24479166666662877},{"name":"C#3","midi":49,"time":512.1614583333536,"velocity":0.8031496062992126,"duration":0.24479166666662877},{"name":"D3","midi":50,"time":512.4088541666869,"velocity":0.8031496062992126,"duration":0.24479166666662877},{"name":"C#3","midi":49,"time":512.6562500000201,"velocity":0.8031496062992126,"duration":0.24479166666662877},{"name":"B2","midi":47,"time":512.9036458333534,"velocity":0.8031496062992126,"duration":0.24479166666662877},{"name":"A2","midi":45,"time":513.1510416666866,"velocity":0.8031496062992126,"duration":0.24479166666662877},{"name":"B4","midi":71,"time":513.3984375000199,"velocity":0.8031496062992126,"duration":0.4921874999998863},{"name":"G#2","midi":44,"time":513.3984375000199,"velocity":0.8031496062992126,"duration":0.24479166666662877},{"name":"B2","midi":47,"time":513.6458333333532,"velocity":0.8031496062992126,"duration":0.24479166666662877},{"name":"C#5","midi":73,"time":513.8932291666864,"velocity":0.8031496062992126,"duration":0.07942708333337123},{"name":"B4","midi":71,"time":513.8932291666864,"velocity":0.8031496062992126,"duration":0.9778645833331439},{"name":"A2","midi":45,"time":513.8932291666864,"velocity":0.8031496062992126,"duration":0.24348958333337123},{"name":"D5","midi":74,"time":513.9752604166864,"velocity":0.8031496062992126,"duration":0.07942708333337123},{"name":"E5","midi":76,"time":514.0572916666864,"velocity":0.8031496062992126,"duration":0.5742187499998863},{"name":"G#2","midi":44,"time":514.1393229166864,"velocity":0.8031496062992126,"duration":0.24479166666662877},{"name":"F#2","midi":42,"time":514.3867187500197,"velocity":0.8031496062992126,"duration":0.24479166666662877},{"name":"D5","midi":74,"time":514.6341145833529,"velocity":0.8031496062992126,"duration":0.24479166666662877},{"name":"E2","midi":40,"time":514.6341145833529,"velocity":0.8031496062992126,"duration":0.24479166666662877},{"name":"D5","midi":74,"time":514.8815104166862,"velocity":0.8031496062992126,"duration":0.16276041666662877},{"name":"A4","midi":69,"time":514.8815104166862,"velocity":0.8031496062992126,"duration":0.7213541666666288},{"name":"A2","midi":45,"time":514.8815104166862,"velocity":0.8031496062992126,"duration":0.24479166666662877},{"name":"C#5","midi":73,"time":515.0468750000194,"velocity":0.8031496062992126,"duration":0.07942708333337123},{"name":"D5","midi":74,"time":515.1289062500194,"velocity":0.8031496062992126,"duration":0.07942708333337123},{"name":"B2","midi":47,"time":515.1289062500194,"velocity":0.8031496062992126,"duration":0.24348958333337123},{"name":"C#5","midi":73,"time":515.2109375000194,"velocity":0.8031496062992126,"duration":0.07942708333337123},{"name":"D5","midi":74,"time":515.2929687500194,"velocity":0.8031496062992126,"duration":0.07942708333337123},{"name":"C#5","midi":73,"time":515.3750000000194,"velocity":0.8031496062992126,"duration":0.24609375},{"name":"A2","midi":45,"time":515.3750000000194,"velocity":0.8031496062992126,"duration":0.24609375},{"name":"B4","midi":71,"time":515.6236979166861,"velocity":0.8031496062992126,"duration":0.24479166666662877},{"name":"G#2","midi":44,"time":515.6236979166861,"velocity":0.8031496062992126,"duration":0.24479166666662877},{"name":"A4","midi":69,"time":515.8710937500193,"velocity":0.8031496062992126,"duration":0.24479166666662877},{"name":"F#2","midi":42,"time":515.8710937500193,"velocity":0.8031496062992126,"duration":0.24479166666662877},{"name":"C#5","midi":73,"time":516.1184895833526,"velocity":0.8031496062992126,"duration":0.24479166666662877},{"name":"E2","midi":40,"time":516.1184895833526,"velocity":0.8031496062992126,"duration":0.24479166666662877},{"name":"F#4","midi":66,"time":516.3658854166858,"velocity":0.8031496062992126,"duration":0.4921874999998863},{"name":"A3","midi":57,"time":516.3658854166858,"velocity":0.8031496062992126,"duration":0.4921874999998863},{"name":"D2","midi":38,"time":516.3658854166858,"velocity":0.8031496062992126,"duration":0.24479166666662877},{"name":"E2","midi":40,"time":516.6132812500191,"velocity":0.8031496062992126,"duration":0.24479166666662877},{"name":"B3","midi":59,"time":516.8606770833524,"velocity":0.8031496062992126,"duration":0.05989583333337123},{"name":"D2","midi":38,"time":516.8606770833524,"velocity":0.8031496062992126,"duration":0.24739583333337123},{"name":"D4","midi":62,"time":516.9231770833524,"velocity":0.8031496062992126,"duration":0.7239583333331439},{"name":"E4","midi":64,"time":516.9856770833524,"velocity":0.8031496062992126,"duration":0.6588541666665151},{"name":"G#4","midi":68,"time":517.0481770833524,"velocity":0.8031496062992126,"duration":0.5546874999998863},{"name":"C#2","midi":37,"time":517.1106770833524,"velocity":0.8031496062992126,"duration":0.24479166666662877},{"name":"B1","midi":35,"time":517.3580729166856,"velocity":0.8031496062992126,"duration":0.24479166666662877},{"name":"A4","midi":69,"time":517.6054687500189,"velocity":0.8031496062992126,"duration":0.24609375},{"name":"C#4","midi":61,"time":517.6054687500189,"velocity":0.8031496062992126,"duration":0.24609375},{"name":"A1","midi":33,"time":517.6054687500189,"velocity":0.8031496062992126,"duration":0.24609375},{"name":"A4","midi":69,"time":517.8541666666855,"velocity":0.8031496062992126,"duration":0.07942708333337123},{"name":"B3","midi":59,"time":517.8541666666855,"velocity":0.8031496062992126,"duration":0.9778645833331439},{"name":"E2","midi":40,"time":517.8541666666855,"velocity":0.8031496062992126,"duration":0.24348958333337123},{"name":"G#4","midi":68,"time":517.9361979166855,"velocity":0.8031496062992126,"duration":0.07942708333337123},{"name":"A4","midi":69,"time":518.0182291666855,"velocity":0.8031496062992126,"duration":0.07942708333337123},{"name":"G#4","midi":68,"time":518.1002604166855,"velocity":0.8031496062992126,"duration":0.4921874999998863},{"name":"D2","midi":38,"time":518.1002604166855,"velocity":0.8031496062992126,"duration":0.24479166666662877},{"name":"E2","midi":40,"time":518.3476562500188,"velocity":0.8031496062992126,"duration":0.24479166666662877},{"name":"F#4","midi":66,"time":518.595052083352,"velocity":0.8031496062992126,"duration":0.24479166666662877},{"name":"F#2","midi":42,"time":518.595052083352,"velocity":0.8031496062992126,"duration":0.24479166666662877},{"name":"E4","midi":64,"time":518.8424479166853,"velocity":0.8031496062992126,"duration":0.4921874999998863},{"name":"G#2","midi":44,"time":518.8424479166853,"velocity":0.8031496062992126,"duration":0.24479166666662877},{"name":"F#2","midi":42,"time":519.0898437500185,"velocity":0.8031496062992126,"duration":0.24479166666662877},{"name":"B4","midi":71,"time":519.3372395833518,"velocity":0.8031496062992126,"duration":0.24479166666662877},{"name":"G#2","midi":44,"time":519.3372395833518,"velocity":0.8031496062992126,"duration":0.24479166666662877},{"name":"C#5","midi":73,"time":519.584635416685,"velocity":0.8031496062992126,"duration":0.12109375},{"name":"E2","midi":40,"time":519.584635416685,"velocity":0.8031496062992126,"duration":0.24479166666662877},{"name":"D5","midi":74,"time":519.7083333333517,"velocity":0.8031496062992126,"duration":0.12109375},{"name":"D5","midi":74,"time":519.8320312500183,"velocity":0.8031496062992126,"duration":0.16276041666662877},{"name":"A2","midi":45,"time":519.8320312500183,"velocity":0.8031496062992126,"duration":0.24479166666662877},{"name":"C#5","midi":73,"time":519.9973958333516,"velocity":0.8031496062992126,"duration":0.07942708333337123},{"name":"D5","midi":74,"time":520.0794270833516,"velocity":0.8031496062992126,"duration":0.07942708333337123},{"name":"G#2","midi":44,"time":520.0794270833516,"velocity":0.8031496062992126,"duration":0.24348958333337123},{"name":"C#5","midi":73,"time":520.1614583333516,"velocity":0.8031496062992126,"duration":0.07942708333337123},{"name":"D5","midi":74,"time":520.2434895833516,"velocity":0.8031496062992126,"duration":0.07942708333337123},{"name":"C#5","midi":73,"time":520.3255208333516,"velocity":0.8031496062992126,"duration":0.24479166666662877},{"name":"A2","midi":45,"time":520.3255208333516,"velocity":0.8031496062992126,"duration":0.24479166666662877},{"name":"B4","midi":71,"time":520.5729166666848,"velocity":0.8031496062992126,"duration":0.24479166666662877},{"name":"B2","midi":47,"time":520.5729166666848,"velocity":0.8031496062992126,"duration":0.24479166666662877},{"name":"B4","midi":71,"time":520.8203125000181,"velocity":0.8031496062992126,"duration":0.48958333333325754},{"name":"C#3","midi":49,"time":520.8203125000181,"velocity":0.8031496062992126,"duration":0.24479166666662877},{"name":"E5","midi":76,"time":521.0677083333513,"velocity":0.8031496062992126,"duration":0.48958333333325754},{"name":"B2","midi":47,"time":521.0677083333513,"velocity":0.8031496062992126,"duration":0.24479166666662877},{"name":"A4","midi":69,"time":521.3151041666846,"velocity":0.8031496062992126,"duration":0.48958333333325754},{"name":"C#3","midi":49,"time":521.3151041666846,"velocity":0.8031496062992126,"duration":0.24479166666662877},{"name":"F#5","midi":78,"time":521.5625000000178,"velocity":0.8031496062992126,"duration":0.24479166666662877},{"name":"A2","midi":45,"time":521.5625000000178,"velocity":0.8031496062992126,"duration":0.24479166666662877},{"name":"G5","midi":79,"time":521.8098958333511,"velocity":0.8031496062992126,"duration":0.24479166666662877},{"name":"B2","midi":47,"time":521.8098958333511,"velocity":0.8031496062992126,"duration":0.24479166666662877},{"name":"E5","midi":76,"time":522.0572916666844,"velocity":0.8031496062992126,"duration":0.24479166666662877},{"name":"D3","midi":50,"time":522.0572916666844,"velocity":0.8031496062992126,"duration":0.24479166666662877},{"name":"A4","midi":69,"time":522.3046875000176,"velocity":0.8031496062992126,"duration":0.48828125},{"name":"C#3","midi":49,"time":522.3046875000176,"velocity":0.8031496062992126,"duration":0.24348958333337123},{"name":"E5","midi":76,"time":522.3867187500176,"velocity":0.8031496062992126,"duration":0.3984375},{"name":"A5","midi":81,"time":522.4687500000176,"velocity":0.8031496062992126,"duration":0.32682291666662877},{"name":"E3","midi":52,"time":522.5507812500176,"velocity":0.8031496062992126,"duration":0.24479166666662877},{"name":"A5","midi":81,"time":522.7981770833509,"velocity":0.8031496062992126,"duration":0.07942708333337123},{"name":"E5","midi":76,"time":522.7981770833509,"velocity":0.8031496062992126,"duration":0.9778645833333712},{"name":"D3","midi":50,"time":522.7981770833509,"velocity":0.8031496062992126,"duration":0.24348958333337123},{"name":"G5","midi":79,"time":522.8802083333509,"velocity":0.8031496062992126,"duration":0.07942708333337123},{"name":"F#5","midi":78,"time":522.9622395833509,"velocity":0.8031496062992126,"duration":0.07942708333337123},{"name":"G5","midi":79,"time":523.0442708333509,"velocity":0.8031496062992126,"duration":0.07942708333337123},{"name":"C#3","midi":49,"time":523.0442708333509,"velocity":0.8031496062992126,"duration":0.24348958333337123},{"name":"A5","midi":81,"time":523.1263020833509,"velocity":0.8031496062992126,"duration":0.07942708333337123},{"name":"G5","midi":79,"time":523.2083333333509,"velocity":0.8031496062992126,"duration":0.07942708333337123},{"name":"A5","midi":81,"time":523.2903645833509,"velocity":0.8031496062992126,"duration":0.07942708333337123},{"name":"B2","midi":47,"time":523.2903645833509,"velocity":0.8031496062992126,"duration":0.24348958333337123},{"name":"G5","midi":79,"time":523.3723958333509,"velocity":0.8031496062992126,"duration":0.07942708333337123},{"name":"F#5","midi":78,"time":523.4544270833509,"velocity":0.8031496062992126,"duration":0.07942708333337123},{"name":"G5","midi":79,"time":523.5364583333509,"velocity":0.8031496062992126,"duration":0.07942708333337123},{"name":"A2","midi":45,"time":523.5364583333509,"velocity":0.8031496062992126,"duration":0.24739583333337123},{"name":"A5","midi":81,"time":523.6184895833509,"velocity":0.8031496062992126,"duration":0.16536458333337123},{"name":"A4","midi":69,"time":523.7864583333509,"velocity":0.8031496062992126,"duration":0.7369791666665151},{"name":"G5","midi":79,"time":523.7864583333509,"velocity":0.8031496062992126,"duration":0.16536458333337123},{"name":"D3","midi":50,"time":523.7864583333509,"velocity":0.8031496062992126,"duration":0.25},{"name":"F#5","midi":78,"time":523.9544270833509,"velocity":0.8031496062992126,"duration":0.08203125},{"name":"G5","midi":79,"time":524.0390625000175,"velocity":0.8031496062992126,"duration":0.08203125},{"name":"F#3","midi":54,"time":524.0390625000175,"velocity":0.8031496062992126,"duration":0.25130208333325754},{"name":"F#5","midi":78,"time":524.1236979166841,"velocity":0.8031496062992126,"duration":0.08203125},{"name":"G5","midi":79,"time":524.2083333333508,"velocity":0.8031496062992126,"duration":0.08203125},{"name":"F#5","midi":78,"time":524.2929687500174,"velocity":0.8031496062992126,"duration":0.24869791666662877},{"name":"E3","midi":52,"time":524.2929687500174,"velocity":0.8031496062992126,"duration":0.24869791666662877},{"name":"G#5","midi":80,"time":524.5442708333507,"velocity":0.8031496062992126,"duration":0.25651041666662877},{"name":"B4","midi":71,"time":524.5442708333507,"velocity":0.8031496062992126,"duration":0.25651041666662877},{"name":"D3","midi":50,"time":524.5442708333507,"velocity":0.8031496062992126,"duration":0.25651041666662877},{"name":"C#5","midi":73,"time":524.8033854166839,"velocity":0.8031496062992126,"duration":0.25651041666662877},{"name":"A5","midi":81,"time":524.8033854166839,"velocity":0.8031496062992126,"duration":0.25651041666662877},{"name":"C#3","midi":49,"time":524.8033854166839,"velocity":0.8031496062992126,"duration":0.25651041666662877},{"name":"D5","midi":74,"time":525.0625000000172,"velocity":0.8031496062992126,"duration":0.25651041666662877},{"name":"B2","midi":47,"time":525.0625000000172,"velocity":0.8031496062992126,"duration":0.25651041666662877},{"name":"C#5","midi":73,"time":525.3216145833504,"velocity":0.8031496062992126,"duration":0.25651041666662877},{"name":"A2","midi":45,"time":525.3216145833504,"velocity":0.8031496062992126,"duration":0.25651041666662877},{"name":"B4","midi":71,"time":525.5807291666837,"velocity":0.8031496062992126,"duration":0.26953125},{"name":"D3","midi":50,"time":525.5807291666837,"velocity":0.8031496062992126,"duration":0.26953125},{"name":"C#5","midi":73,"time":525.8528645833503,"velocity":0.8031496062992126,"duration":0.17838541666662877},{"name":"G#4","midi":68,"time":525.8528645833503,"velocity":0.8031496062992126,"duration":0.795572916666174},{"name":"E3","midi":52,"time":525.8528645833503,"velocity":0.8031496062992126,"duration":0.2695312499998863},{"name":"B4","midi":71,"time":526.0338541666836,"velocity":0.8031496062992126,"duration":0.08854166666662877},{"name":"C#5","midi":73,"time":526.1250000000168,"velocity":0.8031496062992126,"duration":0.08854166666662877},{"name":"D3","midi":50,"time":526.1250000000168,"velocity":0.8031496062992126,"duration":0.27083333333314386},{"name":"B4","midi":71,"time":526.2161458333501,"velocity":0.8031496062992126,"duration":0.08854166666662877},{"name":"C#5","midi":73,"time":526.3072916666833,"velocity":0.8031496062992126,"duration":0.08854166666662877},{"name":"B4","midi":71,"time":526.3984375000166,"velocity":0.8031496062992126,"duration":0.08854166666662877},{"name":"E3","midi":52,"time":526.3984375000166,"velocity":0.8031496062992126,"duration":0.2695312499998863},{"name":"C#5","midi":73,"time":526.4895833333499,"velocity":0.8031496062992126,"duration":0.08854166666662877},{"name":"B4","midi":71,"time":526.5807291666831,"velocity":0.8031496062992126,"duration":0.08723958333337123},{"name":"A4","midi":69,"time":526.6705729166831,"velocity":0.8031496062992126,"duration":0.296875},{"name":"E2","midi":40,"time":526.6705729166831,"velocity":0.8031496062992126,"duration":0.296875},{"name":"A4","midi":69,"time":526.9700520833497,"velocity":0.8031496062992126,"duration":4.881510416666401},{"name":"A2","midi":45,"time":526.9700520833497,"velocity":0.8031496062992126,"duration":0.8958333333332575},{"name":"E4","midi":64,"time":527.2695312500164,"velocity":0.8031496062992126,"duration":4.588541666666401},{"name":"C#4","midi":61,"time":527.569010416683,"velocity":0.8031496062992126,"duration":4.29427083333303},{"name":"E2","midi":40,"time":527.8684895833496,"velocity":0.8031496062992126,"duration":0.296875},{"name":"A1","midi":33,"time":528.1679687500163,"velocity":0.8031496062992126,"duration":3.692708333333144},{"name":"E2","midi":40,"time":528.4674479166829,"velocity":0.8031496062992126,"duration":0.32291666666662877},{"name":"A2","midi":45,"time":528.7981770833495,"velocity":0.8031496062992126,"duration":3.0703124999998863},{"name":"A2","midi":45,"time":534.0729166666828,"velocity":0.8031496062992126,"duration":3.17708333333303},{"name":"E4","midi":64,"time":534.0729166666828,"velocity":0.8031496062992126,"duration":0.5091145833333712},{"name":"A4","midi":69,"time":534.1041666666828,"velocity":0.8031496062992126,"duration":0.47786458333337123},{"name":"E3","midi":52,"time":534.1471354166828,"velocity":0.8031496062992126,"duration":3.097656249999659},{"name":"A3","midi":57,"time":534.2226562500161,"velocity":0.8031496062992126,"duration":3.0299479166662877},{"name":"B4","midi":71,"time":534.2330729166828,"velocity":0.8031496062992126,"duration":0.10286458333337123},{"name":"C#5","midi":73,"time":534.3398437500161,"velocity":0.8031496062992126,"duration":0.5104166666666288},{"name":"D5","midi":74,"time":534.8528645833494,"velocity":0.8031496062992126,"duration":0.12109375},{"name":"E5","midi":76,"time":534.976562500016,"velocity":0.8031496062992126,"duration":0.12630208333337123},{"name":"D5","midi":74,"time":535.105468750016,"velocity":0.8031496062992126,"duration":0.5963541666666288},{"name":"C#5","midi":73,"time":535.7044270833493,"velocity":0.8031496062992126,"duration":0.5143229166666288},{"name":"C#5","midi":73,"time":536.2213541666825,"velocity":0.8031496062992126,"duration":0.08333333333337123},{"name":"B4","midi":71,"time":536.3072916666825,"velocity":0.8031496062992126,"duration":0.08333333333337123},{"name":"C#5","midi":73,"time":536.3932291666825,"velocity":0.8031496062992126,"duration":0.08333333333337123},{"name":"B4","midi":71,"time":536.4791666666825,"velocity":0.8031496062992126,"duration":0.25651041666662877},{"name":"A4","midi":69,"time":536.7382812500158,"velocity":0.8031496062992126,"duration":0.5143229166666288},{"name":"C#4","midi":61,"time":537.2552083333491,"velocity":0.8031496062992126,"duration":1.0312499999998863},{"name":"A3","midi":57,"time":537.2552083333491,"velocity":0.8031496062992126,"duration":3.096354166666515},{"name":"E4","midi":64,"time":537.2552083333491,"velocity":0.8031496062992126,"duration":1.0312499999998863},{"name":"E5","midi":76,"time":537.2552083333491,"velocity":0.8031496062992126,"duration":0.5143229166666288},{"name":"A4","midi":69,"time":537.2552083333491,"velocity":0.8031496062992126,"duration":1.0234374999998863},{"name":"G5","midi":79,"time":537.2552083333491,"velocity":0.8031496062992126,"duration":0.5143229166666288},{"name":"D5","midi":74,"time":537.7721354166823,"velocity":0.8031496062992126,"duration":0.5143229166666288},{"name":"F#5","midi":78,"time":537.7721354166823,"velocity":0.8031496062992126,"duration":0.5143229166666288},{"name":"D4","midi":62,"time":538.2890625000156,"velocity":0.8031496062992126,"duration":2.0651041666666288},{"name":"F#4","midi":66,"time":538.2890625000156,"velocity":0.8031496062992126,"duration":2.0651041666666288},{"name":"A4","midi":69,"time":538.2890625000156,"velocity":0.8031496062992126,"duration":2.0651041666666288},{"name":"E5","midi":76,"time":538.2890625000156,"velocity":0.8031496062992126,"duration":1.03125},{"name":"G5","midi":79,"time":538.2890625000156,"velocity":0.8031496062992126,"duration":1.03125},{"name":"D5","midi":74,"time":539.3229166666822,"velocity":0.8031496062992126,"duration":1.03125},{"name":"F#5","midi":78,"time":539.3229166666822,"velocity":0.8031496062992126,"duration":1.03125},{"name":"E5","midi":76,"time":540.3776041666822,"velocity":0.8031496062992126,"duration":1.0234374999998863},{"name":"A5","midi":81,"time":540.3776041666822,"velocity":0.8031496062992126,"duration":0.5143229166666288},{"name":"B4","midi":71,"time":540.3776041666822,"velocity":0.8031496062992126,"duration":1.0234374999998863},{"name":"D5","midi":74,"time":540.3776041666822,"velocity":0.8031496062992126,"duration":1.0234374999998863},{"name":"D4","midi":62,"time":540.3776041666822,"velocity":0.8031496062992126,"duration":1.0312499999998863},{"name":"B3","midi":59,"time":540.3776041666822,"velocity":0.8031496062992126,"duration":1.0312499999998863},{"name":"G#5","midi":80,"time":540.8945312500155,"velocity":0.8031496062992126,"duration":0.5143229166666288},{"name":"A4","midi":69,"time":541.4114583333487,"velocity":0.8031496062992126,"duration":1.0234374999998863},{"name":"G#5","midi":80,"time":541.4114583333487,"velocity":0.8031496062992126,"duration":0.5143229166666288},{"name":"C#5","midi":73,"time":541.4114583333487,"velocity":0.8031496062992126,"duration":1.0234374999998863},{"name":"E5","midi":76,"time":541.4114583333487,"velocity":0.8031496062992126,"duration":1.0234374999998863},{"name":"C#4","midi":61,"time":541.4114583333487,"velocity":0.8031496062992126,"duration":1.0312499999998863},{"name":"E4","midi":64,"time":541.4114583333487,"velocity":0.8031496062992126,"duration":1.0312499999998863},{"name":"A5","midi":81,"time":541.928385416682,"velocity":0.8031496062992126,"duration":0.5143229166666288},{"name":"B4","midi":71,"time":542.4453125000152,"velocity":0.8031496062992126,"duration":1.0221354166667425},{"name":"D4","midi":62,"time":542.4453125000152,"velocity":0.8031496062992126,"duration":1.0299479166667425},{"name":"F#4","midi":66,"time":542.4453125000152,"velocity":0.8031496062992126,"duration":1.0299479166667425},{"name":"B5","midi":83,"time":542.7044270833486,"velocity":0.8031496062992126,"duration":0.12630208333337123},{"name":"A5","midi":81,"time":542.8333333333486,"velocity":0.8031496062992126,"duration":0.12630208333337123},{"name":"G#5","midi":80,"time":542.9622395833486,"velocity":0.8031496062992126,"duration":0.12630208333337123},{"name":"A5","midi":81,"time":543.0911458333486,"velocity":0.8031496062992126,"duration":0.12630208333337123},{"name":"B5","midi":83,"time":543.2200520833486,"velocity":0.8031496062992126,"duration":0.25520833333337123},{"name":"B4","midi":71,"time":543.4778645833486,"velocity":0.8031496062992126,"duration":1.5455729166666288},{"name":"A5","midi":81,"time":543.4778645833486,"velocity":0.8031496062992126,"duration":0.16927083333337123},{"name":"E4","midi":64,"time":543.4778645833486,"velocity":0.8031496062992126,"duration":3.0937499999997726},{"name":"G#5","midi":80,"time":543.6497395833486,"velocity":0.8031496062992126,"duration":0.08333333333337123},{"name":"A5","midi":81,"time":543.7356770833486,"velocity":0.8031496062992126,"duration":0.08333333333337123},{"name":"G#5","midi":80,"time":543.8216145833486,"velocity":0.8031496062992126,"duration":0.08333333333337123},{"name":"A5","midi":81,"time":543.9075520833486,"velocity":0.8031496062992126,"duration":0.08333333333337123},{"name":"G#5","midi":80,"time":543.9934895833486,"velocity":0.8031496062992126,"duration":0.08333333333337123},{"name":"A5","midi":81,"time":544.0794270833486,"velocity":0.8031496062992126,"duration":0.08333333333337123},{"name":"G#5","midi":80,"time":544.1653645833486,"velocity":0.8031496062992126,"duration":0.08333333333337123},{"name":"A5","midi":81,"time":544.2513020833486,"velocity":0.8031496062992126,"duration":0.08333333333337123},{"name":"G#5","midi":80,"time":544.3372395833486,"velocity":0.8031496062992126,"duration":0.6861979166666288},{"name":"E3","midi":52,"time":544.5091145833486,"velocity":0.8031496062992126,"duration":1.5481770833331439},{"name":"A4","midi":69,"time":545.0260416666819,"velocity":0.8031496062992126,"duration":0.5143229166666288},{"name":"F#5","midi":78,"time":545.0260416666819,"velocity":0.8031496062992126,"duration":0.5143229166666288},{"name":"G#4","midi":68,"time":545.5429687500151,"velocity":0.8031496062992126,"duration":1.0234374999998863},{"name":"E5","midi":76,"time":545.5429687500151,"velocity":0.8031496062992126,"duration":0.5143229166666288},{"name":"D5","midi":74,"time":546.0598958333484,"velocity":0.8031496062992126,"duration":0.5143229166666288},{"name":"F#3","midi":54,"time":546.0598958333484,"velocity":0.8031496062992126,"duration":0.5143229166666288},{"name":"C#5","midi":73,"time":546.5768229166816,"velocity":0.8031496062992126,"duration":0.7734375},{"name":"A4","midi":69,"time":546.5768229166816,"velocity":0.8031496062992126,"duration":0.7734375},{"name":"E4","midi":64,"time":546.5768229166816,"velocity":0.8031496062992126,"duration":3.0963541666664014},{"name":"G3","midi":55,"time":546.5768229166816,"velocity":0.8031496062992126,"duration":3.09895833333303},{"name":"D5","midi":74,"time":547.3528645833483,"velocity":0.8031496062992126,"duration":0.12630208333337123},{"name":"E5","midi":76,"time":547.4817708333483,"velocity":0.8031496062992126,"duration":0.12630208333337123},{"name":"D5","midi":74,"time":547.6106770833483,"velocity":0.8031496062992126,"duration":0.5143229166666288},{"name":"C#5","midi":73,"time":548.1276041666815,"velocity":0.8031496062992126,"duration":0.5143229166666288},{"name":"C#5","midi":73,"time":548.6445312500148,"velocity":0.8031496062992126,"duration":0.08333333333337123},{"name":"B4","midi":71,"time":548.7304687500148,"velocity":0.8031496062992126,"duration":0.08333333333337123},{"name":"C#5","midi":73,"time":548.8164062500148,"velocity":0.8031496062992126,"duration":0.08333333333337123},{"name":"B4","midi":71,"time":548.9023437500148,"velocity":0.8031496062992126,"duration":0.25651041666662877},{"name":"A4","midi":69,"time":549.161458333348,"velocity":0.8031496062992126,"duration":0.5143229166666288},{"name":"C#5","midi":73,"time":549.6783854166813,"velocity":0.8031496062992126,"duration":2.0625},{"name":"E5","midi":76,"time":549.6783854166813,"velocity":0.8031496062992126,"duration":1.0234375},{"name":"B2","midi":47,"time":549.6783854166813,"velocity":0.8031496062992126,"duration":0.15364583333337123},{"name":"F#5","midi":78,"time":549.7643229166813,"velocity":0.8031496062992126,"duration":0.08333333333337123},{"name":"A#2","midi":46,"time":549.8346354166813,"velocity":0.8031496062992126,"duration":0.15364583333337123},{"name":"G5","midi":79,"time":549.8502604166813,"velocity":0.8031496062992126,"duration":0.34244791666674246},{"name":"B2","midi":47,"time":549.9908854166813,"velocity":0.8031496062992126,"duration":0.15364583333337123},{"name":"A#2","midi":46,"time":550.1484375000147,"velocity":0.8031496062992126,"duration":0.5651041666666288},{"name":"F#5","midi":78,"time":550.1953125000147,"velocity":0.8031496062992126,"duration":0.5143229166666288},{"name":"E5","midi":76,"time":550.7122395833479,"velocity":0.8031496062992126,"duration":0.16927083333337123},{"name":"B2","midi":47,"time":550.7122395833479,"velocity":0.8031496062992126,"duration":0.7708333333333712},{"name":"D5","midi":74,"time":550.8841145833479,"velocity":0.8031496062992126,"duration":0.08333333333337123},{"name":"E5","midi":76,"time":550.9700520833479,"velocity":0.8031496062992126,"duration":0.08333333333337123},{"name":"D5","midi":74,"time":551.0559895833479,"velocity":0.8031496062992126,"duration":0.08333333333337123},{"name":"E5","midi":76,"time":551.1419270833479,"velocity":0.8031496062992126,"duration":0.08333333333337123},{"name":"D5","midi":74,"time":551.2278645833479,"velocity":0.8031496062992126,"duration":0.08333333333337123},{"name":"E5","midi":76,"time":551.3138020833479,"velocity":0.8031496062992126,"duration":0.08333333333337123},{"name":"D5","midi":74,"time":551.3997395833479,"velocity":0.8031496062992126,"duration":0.8541666666666288},{"name":"C#3","midi":49,"time":551.4856770833479,"velocity":0.8031496062992126,"duration":0.12630208333337123},{"name":"D3","midi":50,"time":551.6145833333479,"velocity":0.8031496062992126,"duration":0.12630208333337123},{"name":"B4","midi":71,"time":551.7434895833479,"velocity":0.8031496062992126,"duration":2.5846354166664014},{"name":"A2","midi":45,"time":551.7434895833479,"velocity":0.8031496062992126,"duration":0.12630208333337123},{"name":"G#2","midi":44,"time":551.8723958333479,"velocity":0.8031496062992126,"duration":0.12630208333337123},{"name":"A2","midi":45,"time":552.0013020833479,"velocity":0.8031496062992126,"duration":0.12630208333337123},{"name":"G#2","midi":44,"time":552.1302083333479,"velocity":0.8031496062992126,"duration":0.6432291666666288},{"name":"E5","midi":76,"time":552.2591145833479,"velocity":0.8031496062992126,"duration":0.5143229166666288},{"name":"D5","midi":74,"time":552.7760416666812,"velocity":0.8031496062992126,"duration":0.25651041666662877},{"name":"A2","midi":45,"time":552.7760416666812,"velocity":0.8031496062992126,"duration":0.7747395833331439},{"name":"C#5","midi":73,"time":553.0351562500144,"velocity":0.8031496062992126,"duration":0.25651041666662877},{"name":"D5","midi":74,"time":553.2942708333477,"velocity":0.8031496062992126,"duration":0.25651041666662877},{"name":"E5","midi":76,"time":553.553385416681,"velocity":0.8031496062992126,"duration":0.25520833333337123},{"name":"B2","midi":47,"time":553.553385416681,"velocity":0.8031496062992126,"duration":0.12630208333337123},{"name":"C#3","midi":49,"time":553.682291666681,"velocity":0.8031496062992126,"duration":0.12630208333337123},{"name":"E5","midi":76,"time":553.811197916681,"velocity":0.8031496062992126,"duration":0.34375},{"name":"F#2","midi":42,"time":553.811197916681,"velocity":0.8031496062992126,"duration":1.0299479166666288},{"name":"D#5","midi":75,"time":554.1562500000143,"velocity":0.8031496062992126,"duration":0.08333333333337123},{"name":"E5","midi":76,"time":554.2421875000143,"velocity":0.8031496062992126,"duration":0.08333333333337123},{"name":"D#5","midi":75,"time":554.3281250000143,"velocity":0.8031496062992126,"duration":0.08333333333337123},{"name":"A4","midi":69,"time":554.3281250000143,"velocity":0.8031496062992126,"duration":0.5104166666666288},{"name":"E5","midi":76,"time":554.4140625000143,"velocity":0.8031496062992126,"duration":0.08333333333337123},{"name":"D#5","midi":75,"time":554.5000000000143,"velocity":0.8031496062992126,"duration":0.08333333333337123},{"name":"E5","midi":76,"time":554.5859375000143,"velocity":0.8031496062992126,"duration":0.08333333333337123},{"name":"D#5","midi":75,"time":554.6718750000143,"velocity":0.8031496062992126,"duration":0.08333333333337123},{"name":"E5","midi":76,"time":554.7578125000143,"velocity":0.8031496062992126,"duration":0.08333333333325754},{"name":"D#5","midi":75,"time":554.8437500000142,"velocity":0.8031496062992126,"duration":0.08333333333337123},{"name":"C#5","midi":73,"time":554.8437500000142,"velocity":0.8031496062992126,"duration":0.5143229166666288},{"name":"B2","midi":47,"time":554.8437500000142,"velocity":0.8031496062992126,"duration":1.0312499999997726},{"name":"E5","midi":76,"time":554.9296875000142,"velocity":0.8031496062992126,"duration":0.08333333333337123},{"name":"D#5","midi":75,"time":555.0156250000142,"velocity":0.8031496062992126,"duration":0.5520833333332575},{"name":"B4","midi":71,"time":555.3606770833475,"velocity":0.8031496062992126,"duration":0.5117187499998863},{"name":"C#5","midi":73,"time":555.5651041666808,"velocity":0.8031496062992126,"duration":0.15364583333325754},{"name":"D#5","midi":75,"time":555.7213541666807,"velocity":0.8031496062992126,"duration":0.15364583333325754},{"name":"A4","midi":69,"time":555.8776041666806,"velocity":0.8031496062992126,"duration":1.0234375},{"name":"E5","midi":76,"time":555.8776041666806,"velocity":0.8031496062992126,"duration":0.7734375},{"name":"E2","midi":40,"time":555.8776041666806,"velocity":0.8031496062992126,"duration":3.1249999999997726},{"name":"B2","midi":47,"time":556.394531250014,"velocity":0.8031496062992126,"duration":0.5143229166666288},{"name":"F#5","midi":78,"time":556.6536458333472,"velocity":0.8031496062992126,"duration":0.12630208333337123},{"name":"D#5","midi":75,"time":556.7825520833472,"velocity":0.8031496062992126,"duration":0.12630208333337123},{"name":"D#5","midi":75,"time":556.9114583333472,"velocity":0.8031496062992126,"duration":1.03125},{"name":"A4","midi":69,"time":556.9114583333472,"velocity":0.8031496062992126,"duration":1.03125},{"name":"E3","midi":52,"time":556.9114583333472,"velocity":0.8031496062992126,"duration":2.098958333333144},{"name":"G#4","midi":68,"time":557.9453125000139,"velocity":0.8031496062992126,"duration":0.10546875},{"name":"E5","midi":76,"time":557.9453125000139,"velocity":0.8031496062992126,"duration":1.076822916666515},{"name":"A4","midi":69,"time":558.0533854166805,"velocity":0.8031496062992126,"duration":0.10546875},{"name":"G#4","midi":68,"time":558.1614583333471,"velocity":0.8031496062992126,"duration":0.10546875},{"name":"A4","midi":69,"time":558.2695312500138,"velocity":0.8031496062992126,"duration":0.1171875},{"name":"G#4","midi":68,"time":558.3984375000138,"velocity":0.8031496062992126,"duration":0.61328125},{"name":"E4","midi":64,"time":559.0221354166804,"velocity":0.8031496062992126,"duration":2.5846354166664014},{"name":"G#4","midi":68,"time":559.0221354166804,"velocity":0.8031496062992126,"duration":0.7734375},{"name":"B3","midi":59,"time":559.0221354166804,"velocity":0.8031496062992126,"duration":3.09895833333303},{"name":"D3","midi":50,"time":559.0221354166804,"velocity":0.8031496062992126,"duration":3.09895833333303},{"name":"A4","midi":69,"time":559.798177083347,"velocity":0.8031496062992126,"duration":0.12630208333337123},{"name":"B4","midi":71,"time":559.927083333347,"velocity":0.8031496062992126,"duration":0.12630208333337123},{"name":"A4","midi":69,"time":560.055989583347,"velocity":0.8031496062992126,"duration":0.5143229166666288},{"name":"G#4","midi":68,"time":560.5729166666803,"velocity":0.8031496062992126,"duration":0.5143229166666288},{"name":"G#4","midi":68,"time":561.0898437500135,"velocity":0.8031496062992126,"duration":0.08333333333337123},{"name":"F#4","midi":66,"time":561.1757812500135,"velocity":0.8031496062992126,"duration":0.08333333333337123},{"name":"G#4","midi":68,"time":561.2617187500135,"velocity":0.8031496062992126,"duration":0.08333333333337123},{"name":"F#4","midi":66,"time":561.3476562500135,"velocity":0.8031496062992126,"duration":0.25651041666662877},{"name":"E4","midi":64,"time":561.6067708333468,"velocity":0.8031496062992126,"duration":0.5143229166666288},{"name":"G4","midi":67,"time":562.12369791668,"velocity":0.8031496062992126,"duration":0.5143229166666288},{"name":"E5","midi":76,"time":562.12369791668,"velocity":0.8031496062992126,"duration":0.5143229166666288},{"name":"A3","midi":57,"time":562.12369791668,"velocity":0.8031496062992126,"duration":1.2903645833331439},{"name":"C#3","midi":49,"time":562.12369791668,"velocity":0.8031496062992126,"duration":1.2903645833331439},{"name":"F#4","midi":66,"time":562.6406250000133,"velocity":0.8031496062992126,"duration":0.5143229166666288},{"name":"D5","midi":74,"time":562.6406250000133,"velocity":0.8031496062992126,"duration":0.5143229166666288},{"name":"D5","midi":74,"time":563.1575520833466,"velocity":0.8031496062992126,"duration":1.0338541666664014},{"name":"F#4","midi":66,"time":563.1575520833466,"velocity":0.8031496062992126,"duration":1.0338541666664014},{"name":"D3","midi":50,"time":563.4166666666798,"velocity":0.8031496062992126,"duration":0.25651041666662877},{"name":"E3","midi":52,"time":563.6757812500131,"velocity":0.8031496062992126,"duration":0.25651041666662877},{"name":"D3","midi":50,"time":563.9348958333463,"velocity":0.8031496062992126,"duration":0.25651041666662877},{"name":"E5","midi":76,"time":564.1940104166796,"velocity":0.8031496062992126,"duration":1.8072916666664014},{"name":"G4","midi":67,"time":564.1940104166796,"velocity":0.8031496062992126,"duration":1.0338541666664014},{"name":"C#3","midi":49,"time":564.1940104166796,"velocity":0.8031496062992126,"duration":0.25651041666662877},{"name":"B2","midi":47,"time":564.4531250000128,"velocity":0.8031496062992126,"duration":0.25651041666662877},{"name":"A#2","midi":46,"time":564.7122395833461,"velocity":0.8031496062992126,"duration":0.25651041666662877},{"name":"B2","midi":47,"time":564.9713541666794,"velocity":0.8031496062992126,"duration":0.25651041666662877},{"name":"F#4","midi":66,"time":565.2304687500126,"velocity":0.8031496062992126,"duration":3.6067708333329165},{"name":"A#2","midi":46,"time":565.2304687500126,"velocity":0.8031496062992126,"duration":3.09505208333303},{"name":"F#5","midi":78,"time":566.0065104166794,"velocity":0.8031496062992126,"duration":0.12630208333337123},{"name":"G5","midi":79,"time":566.1354166666794,"velocity":0.8031496062992126,"duration":0.12630208333337123},{"name":"F#5","midi":78,"time":566.2643229166794,"velocity":0.8031496062992126,"duration":0.5143229166666288},{"name":"C#3","midi":49,"time":566.2643229166794,"velocity":0.8031496062992126,"duration":1.0312499999998863},{"name":"E5","midi":76,"time":566.7812500000126,"velocity":0.8031496062992126,"duration":0.5143229166666288},{"name":"E5","midi":76,"time":567.2981770833459,"velocity":0.8031496062992126,"duration":0.09635416666662877},{"name":"F#3","midi":54,"time":567.2981770833459,"velocity":0.8031496062992126,"duration":2.0638020833329165},{"name":"D5","midi":74,"time":567.3971354166791,"velocity":0.8031496062992126,"duration":0.09635416666662877},{"name":"E5","midi":76,"time":567.4960937500124,"velocity":0.8031496062992126,"duration":0.09635416666662877},{"name":"D5","midi":74,"time":567.5950520833456,"velocity":0.8031496062992126,"duration":0.21614583333337123},{"name":"C#5","midi":73,"time":567.8138020833456,"velocity":0.8031496062992126,"duration":0.5143229166666288},{"name":"D5","midi":74,"time":568.3307291666789,"velocity":0.8031496062992126,"duration":0.5143229166666288},{"name":"B2","midi":47,"time":568.3307291666789,"velocity":0.8031496062992126,"duration":1.276041666666515},{"name":"E4","midi":64,"time":568.8476562500122,"velocity":0.8031496062992126,"duration":0.5143229166666288},{"name":"A#4","midi":70,"time":568.8476562500122,"velocity":0.8031496062992126,"duration":0.5143229166666288},{"name":"C#5","midi":73,"time":568.8476562500122,"velocity":0.8031496062992126,"duration":0.5143229166666288},{"name":"C#5","midi":73,"time":569.3645833333454,"velocity":0.8031496062992126,"duration":1.0312499999998863},{"name":"A#4","midi":70,"time":569.3645833333454,"velocity":0.8031496062992126,"duration":1.0312499999998863},{"name":"F#4","midi":66,"time":569.3645833333454,"velocity":0.8031496062992126,"duration":2.066406249999659},{"name":"B3","midi":59,"time":569.3645833333454,"velocity":0.8031496062992126,"duration":1.0234374999998863},{"name":"C#3","midi":49,"time":569.6223958333454,"velocity":0.8031496062992126,"duration":0.25651041666662877},{"name":"D3","midi":50,"time":569.8815104166787,"velocity":0.8031496062992126,"duration":0.25651041666662877},{"name":"C#3","midi":49,"time":570.1406250000119,"velocity":0.8031496062992126,"duration":0.25520833333337123},{"name":"D5","midi":74,"time":570.3984375000119,"velocity":0.8031496062992126,"duration":1.0325520833331439},{"name":"B4","midi":71,"time":570.3984375000119,"velocity":0.8031496062992126,"duration":1.0325520833331439},{"name":"B2","midi":47,"time":570.3984375000119,"velocity":0.8031496062992126,"duration":0.25651041666662877},{"name":"A2","midi":45,"time":570.6575520833452,"velocity":0.8031496062992126,"duration":0.25651041666662877},{"name":"G2","midi":43,"time":570.9166666666785,"velocity":0.8031496062992126,"duration":0.25651041666662877},{"name":"A2","midi":45,"time":571.1757812500117,"velocity":0.8031496062992126,"duration":0.12630208333337123},{"name":"B2","midi":47,"time":571.3046875000117,"velocity":0.8031496062992126,"duration":0.12630208333337123},{"name":"E2","midi":40,"time":571.4544270833451,"velocity":0.8031496062992126,"duration":1.03125},{"name":"G4","midi":67,"time":571.4544270833451,"velocity":0.8031496062992126,"duration":2.065104166666515},{"name":"C5","midi":72,"time":571.4544270833451,"velocity":0.8031496062992126,"duration":0.7734375},{"name":"D5","midi":74,"time":572.2304687500117,"velocity":0.8031496062992126,"duration":0.12630208333337123},{"name":"E5","midi":76,"time":572.3593750000117,"velocity":0.8031496062992126,"duration":0.12630208333337123},{"name":"E3","midi":52,"time":572.4882812500117,"velocity":0.8031496062992126,"duration":1.0312499999998863},{"name":"D5","midi":74,"time":572.4882812500117,"velocity":0.8031496062992126,"duration":0.5143229166666288},{"name":"C5","midi":72,"time":573.005208333345,"velocity":0.8031496062992126,"duration":0.5143229166666288},{"name":"G3","midi":55,"time":573.5221354166782,"velocity":0.8031496062992126,"duration":0.13020833333337123},{"name":"C5","midi":72,"time":573.5221354166782,"velocity":0.8031496062992126,"duration":0.2578125},{"name":"F#4","midi":66,"time":573.5221354166782,"velocity":0.8031496062992126,"duration":1.0260416666667425},{"name":"F#3","midi":54,"time":573.6523437500116,"velocity":0.8031496062992126,"duration":0.13020833333325754},{"name":"E3","midi":52,"time":573.7825520833449,"velocity":0.8031496062992126,"duration":0.13020833333337123},{"name":"B4","midi":71,"time":573.7825520833449,"velocity":0.8031496062992126,"duration":0.25651041666674246},{"name":"F#3","midi":54,"time":573.9127604166782,"velocity":0.8031496062992126,"duration":0.13020833333337123},{"name":"C#5","midi":73,"time":574.0416666666782,"velocity":0.8031496062992126,"duration":0.25651041666674246},{"name":"G3","midi":55,"time":574.0429687500116,"velocity":0.8031496062992126,"duration":0.13020833333337123},{"name":"F#3","midi":54,"time":574.173177083345,"velocity":0.8031496062992126,"duration":0.13020833333325754},{"name":"A#4","midi":70,"time":574.3007812500116,"velocity":0.8031496062992126,"duration":0.25520833333337123},{"name":"E3","midi":52,"time":574.3033854166782,"velocity":0.8031496062992126,"duration":0.13020833333337123},{"name":"F#3","midi":54,"time":574.4335937500116,"velocity":0.8031496062992126,"duration":0.13020833333337123},{"name":"G3","midi":55,"time":574.5585937500116,"velocity":0.8031496062992126,"duration":1.03125},{"name":"E4","midi":64,"time":574.5585937500116,"velocity":0.8031496062992126,"duration":0.7734375},{"name":"B4","midi":71,"time":574.5585937500116,"velocity":0.8031496062992126,"duration":3.8776041666662877},{"name":"F#4","midi":66,"time":575.3346354166782,"velocity":0.8031496062992126,"duration":0.12630208333337123},{"name":"G4","midi":67,"time":575.4635416666782,"velocity":0.8031496062992126,"duration":0.12630208333337123},{"name":"D3","midi":50,"time":575.5924479166782,"velocity":0.8031496062992126,"duration":1.0312499999998863},{"name":"F#4","midi":66,"time":575.5924479166782,"velocity":0.8031496062992126,"duration":0.5143229166666288},{"name":"E4","midi":64,"time":576.1093750000115,"velocity":0.8031496062992126,"duration":0.5143229166666288},{"name":"E3","midi":52,"time":576.6263020833447,"velocity":0.8031496062992126,"duration":1.0312499999998863},{"name":"D4","midi":62,"time":576.6263020833447,"velocity":0.8031496062992126,"duration":0.5143229166666288},{"name":"C#4","midi":61,"time":577.143229166678,"velocity":0.8031496062992126,"duration":0.5143229166666288},{"name":"F#3","midi":54,"time":577.6601562500113,"velocity":0.8031496062992126,"duration":3.0950520833329165},{"name":"D4","midi":62,"time":577.6601562500113,"velocity":0.8031496062992126,"duration":0.7734375},{"name":"E4","midi":64,"time":578.4361979166779,"velocity":0.8031496062992126,"duration":0.12630208333337123},{"name":"C#5","midi":73,"time":578.4361979166779,"velocity":0.8031496062992126,"duration":0.12630208333337123},{"name":"D5","midi":74,"time":578.5651041666779,"velocity":0.8031496062992126,"duration":0.12630208333337123},{"name":"F#4","midi":66,"time":578.5651041666779,"velocity":0.8031496062992126,"duration":0.12630208333337123},{"name":"F#4","midi":66,"time":578.6940104166779,"velocity":0.8031496062992126,"duration":0.7539062499998863},{"name":"C#4","midi":61,"time":578.6940104166779,"velocity":0.8031496062992126,"duration":0.5143229166666288},{"name":"E4","midi":64,"time":579.2109375000111,"velocity":0.8031496062992126,"duration":0.25520833333325754},{"name":"B4","midi":71,"time":579.468750000011,"velocity":0.8031496062992126,"duration":0.25651041666662877},{"name":"D4","midi":62,"time":579.468750000011,"velocity":0.8031496062992126,"duration":0.25651041666662877},{"name":"E4","midi":64,"time":579.7278645833443,"velocity":0.8031496062992126,"duration":1.5468749999997726},{"name":"B4","midi":71,"time":579.7278645833443,"velocity":0.8031496062992126,"duration":0.16927083333337123},{"name":"A#4","midi":70,"time":579.8997395833443,"velocity":0.8031496062992126,"duration":0.08333333333337123},{"name":"B4","midi":71,"time":579.9856770833443,"velocity":0.8031496062992126,"duration":0.08333333333337123},{"name":"A#4","midi":70,"time":580.0716145833443,"velocity":0.8031496062992126,"duration":0.08333333333337123},{"name":"B4","midi":71,"time":580.1575520833443,"velocity":0.8031496062992126,"duration":0.08333333333337123},{"name":"A#4","midi":70,"time":580.2434895833443,"velocity":0.8031496062992126,"duration":0.25651041666662877},{"name":"D5","midi":74,"time":580.5026041666775,"velocity":0.8031496062992126,"duration":0.25520833333325754},{"name":"C#5","midi":73,"time":580.7604166666774,"velocity":0.8031496062992126,"duration":0.5143229166666288},{"name":"B3","midi":59,"time":580.7604166666774,"velocity":0.8031496062992126,"duration":1.5494791666664014},{"name":"G4","midi":67,"time":581.2773437500107,"velocity":0.8031496062992126,"duration":0.25651041666662877},{"name":"B4","midi":71,"time":581.2773437500107,"velocity":0.8031496062992126,"duration":0.5117187499998863},{"name":"F#4","midi":66,"time":581.536458333344,"velocity":0.8031496062992126,"duration":0.25520833333325754},{"name":"B4","midi":71,"time":581.7942708333438,"velocity":0.8031496062992126,"duration":2.0690104166664014},{"name":"E4","midi":64,"time":581.7942708333438,"velocity":0.8031496062992126,"duration":1.033854166666515},{"name":"G3","midi":55,"time":582.0533854166772,"velocity":0.8031496062992126,"duration":0.25651041666662877},{"name":"F#3","midi":54,"time":582.3125000000105,"velocity":0.8031496062992126,"duration":0.25651041666662877},{"name":"E3","midi":52,"time":582.5716145833437,"velocity":0.8031496062992126,"duration":0.25651041666662877},{"name":"D3","midi":50,"time":582.830729166677,"velocity":0.8031496062992126,"duration":0.25651041666662877},{"name":"D4","midi":62,"time":582.830729166677,"velocity":0.8031496062992126,"duration":1.0325520833332575},{"name":"C#3","midi":49,"time":583.0898437500102,"velocity":0.8031496062992126,"duration":0.25651041666662877},{"name":"B2","midi":47,"time":583.3489583333435,"velocity":0.8031496062992126,"duration":0.28645833333337123},{"name":"C#3","midi":49,"time":583.6315104166769,"velocity":0.8031496062992126,"duration":0.15625},{"name":"D3","midi":50,"time":583.7838541666769,"velocity":0.8031496062992126,"duration":0.13932291666674246},{"name":"F2","midi":41,"time":583.9075520833436,"velocity":0.8031496062992126,"duration":1.03125},{"name":"C#4","midi":61,"time":583.9075520833436,"velocity":0.8031496062992126,"duration":0.7734375},{"name":"C#5","midi":73,"time":584.6835937500102,"velocity":0.8031496062992126,"duration":0.12630208333337123},{"name":"D5","midi":74,"time":584.8125000000102,"velocity":0.8031496062992126,"duration":0.12630208333337123},{"name":"F3","midi":53,"time":584.9414062500102,"velocity":0.8031496062992126,"duration":1.0312499999998863},{"name":"C#5","midi":73,"time":584.9414062500102,"velocity":0.8031496062992126,"duration":0.5143229166666288},{"name":"B4","midi":71,"time":585.4583333333435,"velocity":0.8031496062992126,"duration":0.5143229166666288},{"name":"C#3","midi":49,"time":585.9752604166767,"velocity":0.8031496062992126,"duration":1.0299479166666288},{"name":"B4","midi":71,"time":585.9752604166767,"velocity":0.8031496062992126,"duration":0.08333333333337123},{"name":"A4","midi":69,"time":586.0611979166767,"velocity":0.8031496062992126,"duration":0.08333333333337123},{"name":"B4","midi":71,"time":586.1471354166767,"velocity":0.8031496062992126,"duration":0.08333333333337123},{"name":"A4","midi":69,"time":586.2330729166767,"velocity":0.8031496062992126,"duration":0.08333333333337123},{"name":"B4","midi":71,"time":586.3190104166767,"velocity":0.8031496062992126,"duration":0.08333333333337123},{"name":"A4","midi":69,"time":586.4049479166767,"velocity":0.8031496062992126,"duration":0.171875},{"name":"G#4","midi":68,"time":586.5768229166767,"velocity":0.8031496062992126,"duration":0.42838541666662877},{"name":"F#3","midi":54,"time":587.00781250001,"velocity":0.8031496062992126,"duration":1.5520833333329165},{"name":"A4","midi":69,"time":587.00781250001,"velocity":0.8031496062992126,"duration":0.25651041666662877},{"name":"G#4","midi":68,"time":587.2669270833433,"velocity":0.8031496062992126,"duration":0.25651041666662877},{"name":"F#4","midi":66,"time":587.5260416666765,"velocity":0.8031496062992126,"duration":0.25651041666662877},{"name":"F4","midi":65,"time":587.7851562500098,"velocity":0.8031496062992126,"duration":0.25651041666662877},{"name":"F#4","midi":66,"time":588.044270833343,"velocity":0.8031496062992126,"duration":0.25651041666662877},{"name":"G#4","midi":68,"time":588.3033854166763,"velocity":0.8031496062992126,"duration":0.25651041666662877},{"name":"G3","midi":55,"time":588.5625000000095,"velocity":0.8031496062992126,"duration":0.25651041666662877},{"name":"A4","midi":69,"time":588.5625000000095,"velocity":0.8031496062992126,"duration":0.25651041666662877},{"name":"F#3","midi":54,"time":588.8216145833428,"velocity":0.8031496062992126,"duration":0.25651041666662877},{"name":"B4","midi":71,"time":588.8216145833428,"velocity":0.8031496062992126,"duration":0.25651041666662877},{"name":"E3","midi":52,"time":589.0807291666761,"velocity":0.8031496062992126,"duration":0.25651041666662877},{"name":"C#5","midi":73,"time":589.0807291666761,"velocity":0.8031496062992126,"duration":0.25651041666662877},{"name":"D3","midi":50,"time":589.3398437500093,"velocity":0.8031496062992126,"duration":0.25651041666662877},{"name":"D5","midi":74,"time":589.3398437500093,"velocity":0.8031496062992126,"duration":0.25651041666662877},{"name":"C#3","midi":49,"time":589.5989583333426,"velocity":0.8031496062992126,"duration":0.25651041666662877},{"name":"E5","midi":76,"time":589.5989583333426,"velocity":0.8031496062992126,"duration":0.25651041666662877},{"name":"D3","midi":50,"time":589.8580729166758,"velocity":0.8031496062992126,"duration":0.25651041666662877},{"name":"F#5","midi":78,"time":589.8580729166758,"velocity":0.8031496062992126,"duration":0.25651041666662877},{"name":"C#3","midi":49,"time":590.1171875000091,"velocity":0.8031496062992126,"duration":3.0963541666664014},{"name":"A5","midi":81,"time":590.1171875000091,"velocity":0.8031496062992126,"duration":0.47135416666662877},{"name":"G5","midi":79,"time":590.5911458333424,"velocity":0.8031496062992126,"duration":0.30338541666674246},{"name":"A5","midi":81,"time":590.8932291666757,"velocity":0.8031496062992126,"duration":0.12630208333337123},{"name":"B5","midi":83,"time":591.0221354166757,"velocity":0.8031496062992126,"duration":0.12630208333337123},{"name":"E3","midi":52,"time":591.1510416666757,"velocity":0.8031496062992126,"duration":1.0312499999998863},{"name":"A5","midi":81,"time":591.1510416666757,"velocity":0.8031496062992126,"duration":0.5143229166666288},{"name":"G5","midi":79,"time":591.667968750009,"velocity":0.8031496062992126,"duration":0.5143229166666288},{"name":"A3","midi":57,"time":592.1848958333422,"velocity":0.8031496062992126,"duration":2.0651041666664014},{"name":"G5","midi":79,"time":592.1848958333422,"velocity":0.8031496062992126,"duration":0.08333333333337123},{"name":"F#5","midi":78,"time":592.2708333333422,"velocity":0.8031496062992126,"duration":0.08333333333337123},{"name":"G5","midi":79,"time":592.3567708333422,"velocity":0.8031496062992126,"duration":0.08333333333337123},{"name":"F#5","midi":78,"time":592.4427083333422,"velocity":0.8031496062992126,"duration":0.25651041666662877},{"name":"G5","midi":79,"time":592.7018229166755,"velocity":0.8031496062992126,"duration":0.5143229166666288},{"name":"E5","midi":76,"time":592.7018229166755,"velocity":0.8031496062992126,"duration":0.5143229166666288},{"name":"D3","midi":50,"time":593.2187500000088,"velocity":0.8031496062992126,"duration":1.1601562499998863},{"name":"G5","midi":79,"time":593.2187500000088,"velocity":0.8031496062992126,"duration":0.5143229166666288},{"name":"E5","midi":76,"time":593.2187500000088,"velocity":0.8031496062992126,"duration":0.5143229166666288},{"name":"F#5","midi":78,"time":593.735677083342,"velocity":0.8031496062992126,"duration":0.5143229166666288},{"name":"D5","midi":74,"time":593.735677083342,"velocity":0.8031496062992126,"duration":0.5143229166666288},{"name":"D5","midi":74,"time":594.2526041666753,"velocity":0.8031496062992126,"duration":2.0598958333333712},{"name":"G5","midi":79,"time":594.2526041666753,"velocity":0.8031496062992126,"duration":0.16927083333337123},{"name":"A2","midi":45,"time":594.3815104166753,"velocity":0.8031496062992126,"duration":0.12630208333337123},{"name":"F#5","midi":78,"time":594.4244791666753,"velocity":0.8031496062992126,"duration":0.08333333333337123},{"name":"B2","midi":47,"time":594.5104166666753,"velocity":0.8031496062992126,"duration":0.12630208333337123},{"name":"G5","midi":79,"time":594.5104166666753,"velocity":0.8031496062992126,"duration":0.08333333333337123},{"name":"F#5","midi":78,"time":594.5963541666753,"velocity":0.8031496062992126,"duration":0.08333333333337123},{"name":"C#3","midi":49,"time":594.6393229166753,"velocity":0.8031496062992126,"duration":0.12630208333337123},{"name":"G5","midi":79,"time":594.6822916666753,"velocity":0.8031496062992126,"duration":0.08333333333337123},{"name":"D3","midi":50,"time":594.7682291666753,"velocity":0.8031496062992126,"duration":0.12630208333337123},{"name":"F#5","midi":78,"time":594.7682291666753,"velocity":0.8031496062992126,"duration":0.08333333333337123},{"name":"G5","midi":79,"time":594.8541666666753,"velocity":0.8031496062992126,"duration":0.08333333333337123},{"name":"E3","midi":52,"time":594.8971354166753,"velocity":0.8031496062992126,"duration":0.12630208333337123},{"name":"F#5","midi":78,"time":594.9401041666753,"velocity":0.8031496062992126,"duration":0.08333333333337123},{"name":"F#3","midi":54,"time":595.0260416666753,"velocity":0.8031496062992126,"duration":0.12630208333337123},{"name":"G5","midi":79,"time":595.0260416666753,"velocity":0.8031496062992126,"duration":0.08333333333337123},{"name":"F#5","midi":78,"time":595.1119791666753,"velocity":0.8031496062992126,"duration":1.2005208333333712},{"name":"G3","midi":55,"time":595.1549479166753,"velocity":0.8031496062992126,"duration":0.12630208333337123},{"name":"A3","midi":57,"time":595.2838541666753,"velocity":0.8031496062992126,"duration":0.12630208333337123},{"name":"B3","midi":59,"time":595.4127604166753,"velocity":0.8031496062992126,"duration":0.12630208333337123},{"name":"C#4","midi":61,"time":595.5416666666753,"velocity":0.8031496062992126,"duration":0.12630208333337123},{"name":"D4","midi":62,"time":595.6705729166753,"velocity":0.8031496062992126,"duration":0.12630208333337123},{"name":"C#4","midi":61,"time":595.7994791666753,"velocity":0.8031496062992126,"duration":0.12630208333337123},{"name":"B3","midi":59,"time":595.9283854166753,"velocity":0.8031496062992126,"duration":0.12630208333337123},{"name":"C#4","midi":61,"time":596.0572916666753,"velocity":0.8031496062992126,"duration":0.12630208333337123},{"name":"A3","midi":57,"time":596.1861979166753,"velocity":0.8031496062992126,"duration":0.12630208333337123},{"name":"D4","midi":62,"time":596.3151041666753,"velocity":0.8031496062992126,"duration":1.03125},{"name":"G#5","midi":80,"time":596.3151041666753,"velocity":0.8031496062992126,"duration":0.7734375},{"name":"E5","midi":76,"time":596.3151041666753,"velocity":0.8031496062992126,"duration":2.065104166666515},{"name":"B4","midi":71,"time":596.3151041666753,"velocity":0.8031496062992126,"duration":1.0234375},{"name":"A5","midi":81,"time":597.0911458333419,"velocity":0.8031496062992126,"duration":0.12630208333337123},{"name":"B5","midi":83,"time":597.2200520833419,"velocity":0.8031496062992126,"duration":0.12630208333337123},{"name":"E4","midi":64,"time":597.3489583333419,"velocity":0.8031496062992126,"duration":1.0312499999998863},{"name":"C#4","midi":61,"time":597.3489583333419,"velocity":0.8031496062992126,"duration":1.0312499999998863},{"name":"A5","midi":81,"time":597.3489583333419,"velocity":0.8031496062992126,"duration":0.5143229166666288},{"name":"G#5","midi":80,"time":597.8658854166752,"velocity":0.8031496062992126,"duration":0.5143229166666288},{"name":"A3","midi":57,"time":598.3828125000084,"velocity":0.8031496062992126,"duration":1.0312499999997726},{"name":"A4","midi":69,"time":598.3828125000084,"velocity":0.8031496062992126,"duration":0.5117187499998863},{"name":"C#5","midi":73,"time":598.3828125000084,"velocity":0.8031496062992126,"duration":1.0234374999997726},{"name":"G#5","midi":80,"time":598.3828125000084,"velocity":0.8031496062992126,"duration":0.25651041666662877},{"name":"F#5","midi":78,"time":598.6419270833417,"velocity":0.8031496062992126,"duration":0.25520833333325754},{"name":"E5","midi":76,"time":598.8997395833416,"velocity":0.8031496062992126,"duration":0.5143229166666288},{"name":"G#4","midi":68,"time":598.8997395833416,"velocity":0.8031496062992126,"duration":0.5143229166666288},{"name":"B3","midi":59,"time":599.4166666666748,"velocity":0.8031496062992126,"duration":1.032552083333485},{"name":"F#4","midi":66,"time":599.4166666666748,"velocity":0.8031496062992126,"duration":1.024739583333485},{"name":"B4","midi":71,"time":599.4166666666748,"velocity":0.8031496062992126,"duration":2.06640625},{"name":"D5","midi":74,"time":599.4166666666748,"velocity":0.8031496062992126,"duration":0.12109375},{"name":"C#5","midi":73,"time":599.5377604166748,"velocity":0.8031496062992126,"duration":0.12109375},{"name":"D5","midi":74,"time":599.6601562500082,"velocity":0.8031496062992126,"duration":0.5533854166667425},{"name":"E5","midi":76,"time":600.1927083333416,"velocity":0.8031496062992126,"duration":0.12760416666674246},{"name":"F#5","midi":78,"time":600.3229166666749,"velocity":0.8031496062992126,"duration":0.12630208333337123},{"name":"G#3","midi":56,"time":600.4518229166749,"velocity":0.8031496062992126,"duration":1.0312499999998863},{"name":"B3","midi":59,"time":600.4518229166749,"velocity":0.8031496062992126,"duration":1.0312499999998863},{"name":"E5","midi":76,"time":600.4518229166749,"velocity":0.8031496062992126,"duration":0.5143229166666288},{"name":"D5","midi":74,"time":600.9687500000082,"velocity":0.8031496062992126,"duration":0.51171875},{"name":"E3","midi":52,"time":601.4856770833414,"velocity":0.8031496062992126,"duration":1.029947916666515},{"name":"G#4","midi":68,"time":601.4856770833414,"velocity":0.8031496062992126,"duration":1.022135416666515},{"name":"E4","midi":64,"time":601.4856770833414,"velocity":0.8031496062992126,"duration":0.5104166666666288},{"name":"D5","midi":74,"time":601.4856770833414,"velocity":0.8031496062992126,"duration":0.08333333333337123},{"name":"C#5","midi":73,"time":601.5716145833414,"velocity":0.8031496062992126,"duration":0.08333333333337123},{"name":"D5","midi":74,"time":601.6575520833414,"velocity":0.8031496062992126,"duration":0.08333333333337123},{"name":"C#5","midi":73,"time":601.7434895833414,"velocity":0.8031496062992126,"duration":0.25520833333325754},{"name":"B4","midi":71,"time":602.0013020833413,"velocity":0.8031496062992126,"duration":0.5143229166666288},{"name":"D4","midi":62,"time":602.0013020833413,"velocity":0.8031496062992126,"duration":0.5143229166666288},{"name":"F#3","midi":54,"time":602.5182291666746,"velocity":0.8031496062992126,"duration":1.03125},{"name":"C#4","midi":61,"time":602.5182291666746,"velocity":0.8031496062992126,"duration":1.0234375},{"name":"A4","midi":69,"time":602.5182291666746,"velocity":0.8031496062992126,"duration":0.7734375},{"name":"F#4","midi":66,"time":602.5182291666746,"velocity":0.8031496062992126,"duration":2.065104166666515},{"name":"B4","midi":71,"time":603.2942708333412,"velocity":0.8031496062992126,"duration":0.12630208333337123},{"name":"C#5","midi":73,"time":603.4231770833412,"velocity":0.8031496062992126,"duration":0.12630208333337123},{"name":"D#3","midi":51,"time":603.5520833333412,"velocity":0.8031496062992126,"duration":1.0312499999998863},{"name":"F#3","midi":54,"time":603.5520833333412,"velocity":0.8031496062992126,"duration":1.0312499999998863},{"name":"B4","midi":71,"time":603.5520833333412,"velocity":0.8031496062992126,"duration":0.5143229166666288},{"name":"A4","midi":69,"time":604.0690104166745,"velocity":0.8031496062992126,"duration":0.5143229166666288},{"name":"B2","midi":47,"time":604.5859375000077,"velocity":0.8031496062992126,"duration":1.0325520833331439},{"name":"D#4","midi":63,"time":604.5859375000077,"velocity":0.8031496062992126,"duration":1.0247395833331439},{"name":"B3","midi":59,"time":604.5859375000077,"velocity":0.8031496062992126,"duration":1.0247395833331439},{"name":"G#4","midi":68,"time":604.5859375000077,"velocity":0.8031496062992126,"duration":0.25651041666662877},{"name":"A4","midi":69,"time":604.845052083341,"velocity":0.8031496062992126,"duration":0.25651041666662877},{"name":"G#4","midi":68,"time":605.1041666666742,"velocity":0.8031496062992126,"duration":0.25651041666662877},{"name":"A4","midi":69,"time":605.3632812500075,"velocity":0.8031496062992126,"duration":0.25520833333337123},{"name":"E3","midi":52,"time":605.6210937500075,"velocity":0.8031496062992126,"duration":0.12630208333337123},{"name":"E4","midi":64,"time":605.6210937500075,"velocity":0.8031496062992126,"duration":1.5455729166666288},{"name":"B3","midi":59,"time":605.6210937500075,"velocity":0.8031496062992126,"duration":1.5455729166666288},{"name":"A4","midi":69,"time":605.6210937500075,"velocity":0.8031496062992126,"duration":0.16927083333337123},{"name":"E2","midi":40,"time":605.7500000000075,"velocity":0.8031496062992126,"duration":0.12630208333337123},{"name":"G#4","midi":68,"time":605.7929687500075,"velocity":0.8031496062992126,"duration":0.12109375},{"name":"F#2","midi":42,"time":605.8789062500075,"velocity":0.8031496062992126,"duration":0.12630208333337123},{"name":"A4","midi":69,"time":605.9140625000075,"velocity":0.8031496062992126,"duration":0.12109375},{"name":"G#2","midi":44,"time":606.0078125000075,"velocity":0.8031496062992126,"duration":0.12760416666662877},{"name":"G#4","midi":68,"time":606.0351562500075,"velocity":0.8031496062992126,"duration":1.0755208333332575},{"name":"A2","midi":45,"time":606.1380208333408,"velocity":0.8031496062992126,"duration":0.12630208333337123},{"name":"B2","midi":47,"time":606.2669270833408,"velocity":0.8031496062992126,"duration":0.12630208333337123},{"name":"C#3","midi":49,"time":606.3958333333408,"velocity":0.8031496062992126,"duration":0.12630208333337123},{"name":"D3","midi":50,"time":606.5247395833408,"velocity":0.8031496062992126,"duration":0.12630208333337123},{"name":"E3","midi":52,"time":606.6536458333408,"velocity":0.8031496062992126,"duration":0.12630208333337123},{"name":"F#3","midi":54,"time":606.7825520833408,"velocity":0.8031496062992126,"duration":0.12630208333337123},{"name":"G#3","midi":56,"time":606.9114583333408,"velocity":0.8031496062992126,"duration":0.12630208333337123},{"name":"A3","midi":57,"time":607.0403645833408,"velocity":0.8031496062992126,"duration":0.12630208333337123},{"name":"B3","midi":59,"time":607.1692708333408,"velocity":0.8031496062992126,"duration":0.12630208333337123},{"name":"F#4","midi":66,"time":607.1692708333408,"velocity":0.8031496062992126,"duration":0.5130208333333712},{"name":"C#4","midi":61,"time":607.2981770833408,"velocity":0.8031496062992126,"duration":0.12630208333337123},{"name":"D4","midi":62,"time":607.4270833333408,"velocity":0.8031496062992126,"duration":0.12630208333337123},{"name":"C#4","midi":61,"time":607.5559895833408,"velocity":0.8031496062992126,"duration":0.12630208333337123},{"name":"B3","midi":59,"time":607.6848958333408,"velocity":0.8031496062992126,"duration":0.12630208333337123},{"name":"E4","midi":64,"time":607.6848958333408,"velocity":0.8031496062992126,"duration":1.0286458333333712},{"name":"A3","midi":57,"time":607.8138020833408,"velocity":0.8031496062992126,"duration":0.12630208333337123},{"name":"G#3","midi":56,"time":607.9427083333408,"velocity":0.8031496062992126,"duration":0.12630208333337123},{"name":"F#3","midi":54,"time":608.0716145833408,"velocity":0.8031496062992126,"duration":0.12630208333337123},{"name":"E3","midi":52,"time":608.2005208333408,"velocity":0.8031496062992126,"duration":0.12630208333337123},{"name":"D3","midi":50,"time":608.3294270833408,"velocity":0.8031496062992126,"duration":0.12630208333337123},{"name":"C#3","midi":49,"time":608.4583333333408,"velocity":0.8031496062992126,"duration":0.12630208333337123},{"name":"B2","midi":47,"time":608.5976562500075,"velocity":0.8031496062992126,"duration":0.12630208333325754},{"name":"C#5","midi":73,"time":608.7369791666741,"velocity":0.8031496062992126,"duration":0.10546875},{"name":"A2","midi":45,"time":608.7369791666741,"velocity":0.8031496062992126,"duration":2.0651041666664014},{"name":"B4","midi":71,"time":608.8450520833408,"velocity":0.8031496062992126,"duration":0.10546875},{"name":"C#5","midi":73,"time":608.9531250000074,"velocity":0.8031496062992126,"duration":0.5572916666666288},{"name":"D5","midi":74,"time":609.5130208333406,"velocity":0.8031496062992126,"duration":0.12630208333337123},{"name":"E5","midi":76,"time":609.6419270833406,"velocity":0.8031496062992126,"duration":0.12630208333337123},{"name":"D5","midi":74,"time":609.7708333333406,"velocity":0.8031496062992126,"duration":0.5143229166666288},{"name":"C#5","midi":73,"time":610.2877604166739,"velocity":0.8031496062992126,"duration":0.5143229166666288},{"name":"C#5","midi":73,"time":610.8046875000072,"velocity":0.8031496062992126,"duration":0.08333333333337123},{"name":"B4","midi":71,"time":610.8906250000072,"velocity":0.8031496062992126,"duration":0.08333333333337123},{"name":"C#5","midi":73,"time":610.9765625000072,"velocity":0.8031496062992126,"duration":0.08333333333337123},{"name":"B4","midi":71,"time":611.0625000000072,"velocity":0.8031496062992126,"duration":0.25651041666662877},{"name":"A4","midi":69,"time":611.3216145833404,"velocity":0.8031496062992126,"duration":0.5143229166666288},{"name":"G5","midi":79,"time":611.8385416666737,"velocity":0.8031496062992126,"duration":0.5143229166666288},{"name":"E5","midi":76,"time":611.8385416666737,"velocity":0.8031496062992126,"duration":0.5143229166666288},{"name":"A4","midi":69,"time":611.8385416666737,"velocity":0.8031496062992126,"duration":1.0234374999998863},{"name":"C#3","midi":49,"time":611.8385416666737,"velocity":0.8031496062992126,"duration":0.7734374999998863},{"name":"D5","midi":74,"time":612.3554687500069,"velocity":0.8031496062992126,"duration":0.5143229166666288},{"name":"F#5","midi":78,"time":612.3554687500069,"velocity":0.8031496062992126,"duration":0.5143229166666288},{"name":"D3","midi":50,"time":612.6145833333402,"velocity":0.8031496062992126,"duration":0.12630208333337123},{"name":"E3","midi":52,"time":612.7434895833402,"velocity":0.8031496062992126,"duration":0.12630208333337123},{"name":"F#5","midi":78,"time":612.8723958333402,"velocity":0.8031496062992126,"duration":1.0312499999998863},{"name":"A4","midi":69,"time":612.8723958333402,"velocity":0.8031496062992126,"duration":2.0833333333332575},{"name":"D5","midi":74,"time":612.8723958333402,"velocity":0.8031496062992126,"duration":1.0312499999998863},{"name":"D3","midi":50,"time":612.8723958333402,"velocity":0.8031496062992126,"duration":0.5143229166666288},{"name":"C#3","midi":49,"time":613.3893229166734,"velocity":0.8031496062992126,"duration":0.5143229166666288},{"name":"E5","midi":76,"time":613.9062500000067,"velocity":0.8031496062992126,"duration":1.0442708333333712},{"name":"G5","midi":79,"time":613.9062500000067,"velocity":0.8031496062992126,"duration":1.0442708333333712},{"name":"C#3","midi":49,"time":613.9062500000067,"velocity":0.8031496062992126,"duration":0.12630208333337123},{"name":"B2","midi":47,"time":614.0351562500067,"velocity":0.8031496062992126,"duration":0.12630208333337123},{"name":"C#3","midi":49,"time":614.1640625000067,"velocity":0.8031496062992126,"duration":0.12630208333337123},{"name":"B2","midi":47,"time":614.2929687500067,"velocity":0.8031496062992126,"duration":0.12630208333337123},{"name":"A2","midi":45,"time":614.4218750000067,"velocity":0.8031496062992126,"duration":0.5364583333333712},{"name":"A3","midi":57,"time":614.9596354166734,"velocity":0.8031496062992126,"duration":0.5143229166666288},{"name":"D5","midi":74,"time":614.9596354166734,"velocity":0.8031496062992126,"duration":1.0234374999998863},{"name":"F#5","midi":78,"time":614.9596354166734,"velocity":0.8031496062992126,"duration":0.7734374999998863},{"name":"G#3","midi":56,"time":615.4765625000067,"velocity":0.8031496062992126,"duration":0.5143229166666288},{"name":"G5","midi":79,"time":615.73567708334,"velocity":0.8031496062992126,"duration":0.12630208333337123},{"name":"A5","midi":81,"time":615.86458333334,"velocity":0.8031496062992126,"duration":0.12630208333337123},{"name":"A3","midi":57,"time":615.99348958334,"velocity":0.8031496062992126,"duration":2.0651041666664014},{"name":"G5","midi":79,"time":615.99348958334,"velocity":0.8031496062992126,"duration":0.5143229166666288},{"name":"F#5","midi":78,"time":616.5104166666732,"velocity":0.8031496062992126,"duration":0.5143229166666288},{"name":"F#5","midi":78,"time":617.0273437500065,"velocity":0.8031496062992126,"duration":0.08333333333337123},{"name":"E5","midi":76,"time":617.1132812500065,"velocity":0.8031496062992126,"duration":0.08333333333337123},{"name":"F#5","midi":78,"time":617.1992187500065,"velocity":0.8031496062992126,"duration":0.08333333333337123},{"name":"E5","midi":76,"time":617.2851562500065,"velocity":0.8031496062992126,"duration":0.25651041666662877},{"name":"D5","midi":74,"time":617.5442708333397,"velocity":0.8031496062992126,"duration":0.5143229166666288},{"name":"G#2","midi":44,"time":618.061197916673,"velocity":0.8031496062992126,"duration":0.7734374999998863},{"name":"E5","midi":76,"time":618.061197916673,"velocity":0.8031496062992126,"duration":3.1041666666664014},{"name":"D5","midi":74,"time":618.061197916673,"velocity":0.8031496062992126,"duration":0.5143229166666288},{"name":"B5","midi":83,"time":618.061197916673,"velocity":0.8031496062992126,"duration":0.5143229166666288},{"name":"A5","midi":81,"time":618.5781250000063,"velocity":0.8031496062992126,"duration":0.5143229166666288},{"name":"C#5","midi":73,"time":618.5781250000063,"velocity":0.8031496062992126,"duration":0.5143229166666288},{"name":"A2","midi":45,"time":618.8372395833395,"velocity":0.8031496062992126,"duration":0.12630208333337123},{"name":"B2","midi":47,"time":618.9661458333395,"velocity":0.8031496062992126,"duration":0.12630208333337123},{"name":"A2","midi":45,"time":619.0950520833395,"velocity":0.8031496062992126,"duration":0.5143229166666288},{"name":"A5","midi":81,"time":619.0950520833395,"velocity":0.8031496062992126,"duration":1.0312499999998863},{"name":"C#5","midi":73,"time":619.0950520833395,"velocity":0.8031496062992126,"duration":1.0312499999998863},{"name":"G#2","midi":44,"time":619.6119791666728,"velocity":0.8031496062992126,"duration":0.5143229166666288},{"name":"G#2","midi":44,"time":620.128906250006,"velocity":0.8031496062992126,"duration":0.12630208333337123},{"name":"B5","midi":83,"time":620.128906250006,"velocity":0.8031496062992126,"duration":1.5651041666666288},{"name":"D5","midi":74,"time":620.128906250006,"velocity":0.8031496062992126,"duration":1.8255208333333712},{"name":"F#2","midi":42,"time":620.257812500006,"velocity":0.8031496062992126,"duration":0.12630208333337123},{"name":"G#2","midi":44,"time":620.386718750006,"velocity":0.8031496062992126,"duration":0.12630208333337123},{"name":"F#2","midi":42,"time":620.515625000006,"velocity":0.8031496062992126,"duration":0.12630208333337123},{"name":"E2","midi":40,"time":620.644531250006,"velocity":0.8031496062992126,"duration":0.5234375},{"name":"C3","midi":48,"time":621.191406250006,"velocity":0.8031496062992126,"duration":0.5234375},{"name":"G#5","midi":80,"time":621.7174479166727,"velocity":0.8031496062992126,"duration":0.5208333333333712},{"name":"B2","midi":47,"time":621.7174479166727,"velocity":0.8031496062992126,"duration":0.5234375},{"name":"E5","midi":76,"time":621.953125000006,"velocity":0.8031496062992126,"duration":0.14583333333337123},{"name":"F5","midi":77,"time":622.0989583333394,"velocity":0.8031496062992126,"duration":0.14322916666662877},{"name":"A5","midi":81,"time":622.2434895833394,"velocity":0.8031496062992126,"duration":2.6289062499995453},{"name":"E5","midi":76,"time":622.2434895833394,"velocity":0.8031496062992126,"duration":0.5234375},{"name":"C3","midi":48,"time":622.2434895833394,"velocity":0.8031496062992126,"duration":1.0416666666666288},{"name":"D5","midi":74,"time":622.769531250006,"velocity":0.8031496062992126,"duration":0.5234375},{"name":"D5","midi":74,"time":623.2955729166727,"velocity":0.8031496062992126,"duration":0.08463541666662877},{"name":"C5","midi":72,"time":623.3828125000059,"velocity":0.8031496062992126,"duration":0.08463541666662877},{"name":"D5","midi":74,"time":623.4700520833392,"velocity":0.8031496062992126,"duration":0.08463541666662877},{"name":"C5","midi":72,"time":623.5572916666724,"velocity":0.8031496062992126,"duration":0.26041666666662877},{"name":"B4","midi":71,"time":623.8203125000057,"velocity":0.8031496062992126,"duration":0.5234375},{"name":"C5","midi":72,"time":624.3463541666723,"velocity":0.8031496062992126,"duration":0.7669270833332575},{"name":"F3","midi":53,"time":624.3463541666723,"velocity":0.8031496062992126,"duration":0.5234375},{"name":"G#5","midi":80,"time":624.8723958333389,"velocity":0.8031496062992126,"duration":0.51953125},{"name":"E3","midi":52,"time":624.8723958333389,"velocity":0.8031496062992126,"duration":0.5221354166666288},{"name":"D5","midi":74,"time":625.1210937500056,"velocity":0.8031496062992126,"duration":0.14192708333337123},{"name":"E5","midi":76,"time":625.2591145833389,"velocity":0.8031496062992126,"duration":0.14322916666662877},{"name":"G#5","midi":80,"time":625.3971354166722,"velocity":0.8031496062992126,"duration":1.0416666666666288},{"name":"D5","midi":74,"time":625.3971354166722,"velocity":0.8031496062992126,"duration":0.5234375},{"name":"F3","midi":53,"time":625.3971354166722,"velocity":0.8031496062992126,"duration":1.0494791666666288},{"name":"C5","midi":72,"time":625.9231770833388,"velocity":0.8031496062992126,"duration":0.5234375},{"name":"C5","midi":72,"time":626.4492187500055,"velocity":0.8031496062992126,"duration":0.08463541666662877},{"name":"A5","midi":81,"time":626.4492187500055,"velocity":0.8031496062992126,"duration":3.248697916666515},{"name":"E3","midi":52,"time":626.4492187500055,"velocity":0.8031496062992126,"duration":0.14973958333325754},{"name":"B4","midi":71,"time":626.5364583333387,"velocity":0.8031496062992126,"duration":0.08463541666662877},{"name":"D#3","midi":51,"time":626.5989583333387,"velocity":0.8031496062992126,"duration":0.14973958333314386},{"name":"C5","midi":72,"time":626.623697916672,"velocity":0.8031496062992126,"duration":0.08463541666662877},{"name":"B4","midi":71,"time":626.7109375000052,"velocity":0.8031496062992126,"duration":0.26041666666662877},{"name":"E3","midi":52,"time":626.7486979166719,"velocity":0.8031496062992126,"duration":0.15104166666662877},{"name":"D#3","midi":51,"time":626.9010416666719,"velocity":0.8031496062992126,"duration":0.5481770833333712},{"name":"A4","midi":69,"time":626.9947916666719,"velocity":0.8031496062992126,"duration":0.5260416666667425},{"name":"D5","midi":74,"time":627.5234375000052,"velocity":0.8031496062992126,"duration":0.08854166666662877},{"name":"E5","midi":76,"time":627.6145833333385,"velocity":0.8031496062992126,"duration":0.08854166666662877},{"name":"F5","midi":77,"time":627.7057291666717,"velocity":0.8031496062992126,"duration":0.36458333333337123},{"name":"E5","midi":76,"time":628.0729166666717,"velocity":0.8031496062992126,"duration":0.5481770833333712},{"name":"E3","midi":52,"time":628.6236979166717,"velocity":0.8031496062992126,"duration":0.15755208333337123},{"name":"D5","midi":74,"time":628.6236979166717,"velocity":0.8031496062992126,"duration":0.11458333333337123},{"name":"C5","midi":72,"time":628.7382812500051,"velocity":0.8031496062992126,"duration":0.11458333333337123},{"name":"D#3","midi":51,"time":628.7812500000051,"velocity":0.8031496062992126,"duration":0.15755208333337123},{"name":"B4","midi":71,"time":628.8528645833385,"velocity":0.8031496062992126,"duration":0.11458333333337123},{"name":"E3","midi":52,"time":628.9388020833385,"velocity":0.8031496062992126,"duration":0.8229166666667425},{"name":"C5","midi":72,"time":628.9674479166719,"velocity":0.8031496062992126,"duration":0.11458333333337123},{"name":"D5","midi":74,"time":629.0820312500052,"velocity":0.8031496062992126,"duration":0.11458333333337123},{"name":"C5","midi":72,"time":629.205729166672,"velocity":0.8031496062992126,"duration":0.12109375},{"name":"D5","midi":74,"time":629.3255208333386,"velocity":0.8031496062992126,"duration":0.12369791666674246},{"name":"C5","midi":72,"time":629.4492187500053,"velocity":0.8031496062992126,"duration":0.27213541666662877},{"name":"E2","midi":40,"time":629.7239583333386,"velocity":0.8031496062992126,"duration":1.1653645833332575},{"name":"B4","midi":71,"time":629.7239583333386,"velocity":0.8031496062992126,"duration":0.5481770833332575},{"name":"G#5","midi":80,"time":629.7239583333386,"velocity":0.8031496062992126,"duration":1.1562499999998863},{"name":"A4","midi":69,"time":630.2747395833385,"velocity":0.8031496062992126,"duration":0.6145833333333712},{"name":"A2","midi":45,"time":630.8919270833385,"velocity":0.8031496062992126,"duration":4.2174479166667425},{"name":"A4","midi":69,"time":630.8919270833385,"velocity":0.8031496062992126,"duration":1.2330729166667425},{"name":"A5","midi":81,"time":630.8919270833385,"velocity":0.8031496062992126,"duration":1.2330729166667425},{"name":"C#3","midi":49,"time":631.5104166666719,"velocity":0.8031496062992126,"duration":0.30598958333337123},{"name":"E3","midi":52,"time":631.8190104166719,"velocity":0.8031496062992126,"duration":0.30598958333337123},{"name":"A3","midi":57,"time":632.1276041666719,"velocity":0.8031496062992126,"duration":2.98828125},{"name":"A5","midi":81,"time":632.1276041666719,"velocity":0.8031496062992126,"duration":2.98828125},{"name":"E5","midi":76,"time":632.1276041666719,"velocity":0.8031496062992126,"duration":2.98828125},{"name":"C#5","midi":73,"time":632.1276041666719,"velocity":0.8031496062992126,"duration":2.98828125},{"name":"A4","midi":69,"time":632.1276041666719,"velocity":0.8031496062992126,"duration":2.98828125},{"name":"E4","midi":64,"time":637.9440104166719,"velocity":0.8031496062992126,"duration":0.44010416666662877},{"name":"A4","midi":69,"time":638.4127604166719,"velocity":0.8031496062992126,"duration":0.23177083333337123},{"name":"G#4","midi":68,"time":638.6471354166719,"velocity":0.8031496062992126,"duration":0.23177083333337123},{"name":"B4","midi":71,"time":638.8815104166719,"velocity":0.8031496062992126,"duration":0.23177083333337123},{"name":"A4","midi":69,"time":639.1158854166719,"velocity":0.8031496062992126,"duration":0.23177083333337123},{"name":"C#5","midi":73,"time":639.3502604166719,"velocity":0.8031496062992126,"duration":0.23177083333337123},{"name":"B4","midi":71,"time":639.5846354166719,"velocity":0.8031496062992126,"duration":0.23177083333337123},{"name":"A4","midi":69,"time":639.8190104166719,"velocity":0.8031496062992126,"duration":0.23177083333337123},{"name":"G#4","midi":68,"time":640.0533854166719,"velocity":0.8031496062992126,"duration":0.23177083333337123},{"name":"A4","midi":69,"time":640.2877604166719,"velocity":0.8031496062992126,"duration":0.45182291666662877},{"name":"E4","midi":64,"time":640.7565104166719,"velocity":0.8031496062992126,"duration":0.45182291666662877},{"name":"C#4","midi":61,"time":641.2252604166719,"velocity":0.8031496062992126,"duration":0.23177083333337123},{"name":"E4","midi":64,"time":641.4596354166719,"velocity":0.8031496062992126,"duration":0.23177083333337123},{"name":"A4","midi":69,"time":641.6940104166719,"velocity":0.8031496062992126,"duration":0.23177083333337123},{"name":"E3","midi":52,"time":641.6940104166719,"velocity":0.8031496062992126,"duration":0.46614583333337123},{"name":"B4","midi":71,"time":641.9283854166719,"velocity":0.8031496062992126,"duration":0.23177083333337123},{"name":"C#5","midi":73,"time":642.1627604166719,"velocity":0.8031496062992126,"duration":0.23177083333337123},{"name":"A3","midi":57,"time":642.1627604166719,"velocity":0.8031496062992126,"duration":0.23177083333337123},{"name":"B4","midi":71,"time":642.3971354166719,"velocity":0.8031496062992126,"duration":0.23177083333337123},{"name":"G#3","midi":56,"time":642.3971354166719,"velocity":0.8031496062992126,"duration":0.23177083333337123},{"name":"D5","midi":74,"time":642.6315104166719,"velocity":0.8031496062992126,"duration":0.23177083333337123},{"name":"B3","midi":59,"time":642.6315104166719,"velocity":0.8031496062992126,"duration":0.23177083333337123},{"name":"C#5","midi":73,"time":642.8658854166719,"velocity":0.8031496062992126,"duration":0.23177083333337123},{"name":"A3","midi":57,"time":642.8658854166719,"velocity":0.8031496062992126,"duration":0.23177083333337123},{"name":"E5","midi":76,"time":643.1002604166719,"velocity":0.8031496062992126,"duration":0.23177083333337123},{"name":"C#4","midi":61,"time":643.1002604166719,"velocity":0.8031496062992126,"duration":0.23177083333337123},{"name":"D5","midi":74,"time":643.3346354166719,"velocity":0.8031496062992126,"duration":0.23177083333337123},{"name":"B3","midi":59,"time":643.3346354166719,"velocity":0.8031496062992126,"duration":0.23177083333337123},{"name":"C#5","midi":73,"time":643.5690104166719,"velocity":0.8031496062992126,"duration":0.23177083333337123},{"name":"A3","midi":57,"time":643.5690104166719,"velocity":0.8031496062992126,"duration":0.23177083333337123},{"name":"B4","midi":71,"time":643.8033854166719,"velocity":0.8031496062992126,"duration":0.23177083333337123},{"name":"G#3","midi":56,"time":643.8033854166719,"velocity":0.8031496062992126,"duration":0.23177083333337123},{"name":"D5","midi":74,"time":644.0377604166719,"velocity":0.8031496062992126,"duration":0.23177083333337123},{"name":"A3","midi":57,"time":644.0377604166719,"velocity":0.8031496062992126,"duration":0.45182291666662877},{"name":"C#5","midi":73,"time":644.2721354166719,"velocity":0.8031496062992126,"duration":0.23177083333325754},{"name":"B4","midi":71,"time":644.5065104166717,"velocity":0.8031496062992126,"duration":0.23177083333337123},{"name":"E3","midi":52,"time":644.5065104166717,"velocity":0.8031496062992126,"duration":0.45182291666662877},{"name":"C#5","midi":73,"time":644.7408854166717,"velocity":0.8031496062992126,"duration":0.23177083333325754},{"name":"A4","midi":69,"time":644.9752604166716,"velocity":0.8031496062992126,"duration":0.23177083333337123},{"name":"C#3","midi":49,"time":644.9752604166716,"velocity":0.8031496062992126,"duration":0.23177083333337123},{"name":"B4","midi":71,"time":645.2096354166716,"velocity":0.8031496062992126,"duration":0.23177083333337123},{"name":"E3","midi":52,"time":645.2096354166716,"velocity":0.8031496062992126,"duration":0.23177083333337123},{"name":"C#5","midi":73,"time":645.4440104166716,"velocity":0.8031496062992126,"duration":0.23177083333337123},{"name":"A3","midi":57,"time":645.4440104166716,"velocity":0.8031496062992126,"duration":0.23177083333337123},{"name":"D5","midi":74,"time":645.6783854166716,"velocity":0.8031496062992126,"duration":0.23177083333337123},{"name":"B3","midi":59,"time":645.6783854166716,"velocity":0.8031496062992126,"duration":0.23177083333337123},{"name":"E5","midi":76,"time":645.9127604166716,"velocity":0.8031496062992126,"duration":0.42708333333337123},{"name":"C#4","midi":61,"time":645.9127604166716,"velocity":0.8031496062992126,"duration":0.23177083333337123},{"name":"B3","midi":59,"time":646.1471354166716,"velocity":0.8031496062992126,"duration":0.23177083333337123},{"name":"G5","midi":79,"time":646.3815104166716,"velocity":0.8031496062992126,"duration":0.23177083333337123},{"name":"D4","midi":62,"time":646.3815104166716,"velocity":0.8031496062992126,"duration":0.23177083333337123},{"name":"F5","midi":77,"time":646.6158854166716,"velocity":0.8031496062992126,"duration":0.23177083333337123},{"name":"C#4","midi":61,"time":646.6158854166716,"velocity":0.8031496062992126,"duration":0.23177083333337123},{"name":"G5","midi":79,"time":646.8502604166716,"velocity":0.8031496062992126,"duration":0.11458333333337123},{"name":"E4","midi":64,"time":646.8502604166716,"velocity":0.8031496062992126,"duration":0.23177083333337123},{"name":"F5","midi":77,"time":646.9674479166716,"velocity":0.8031496062992126,"duration":0.11458333333337123},{"name":"G5","midi":79,"time":647.0846354166716,"velocity":0.8031496062992126,"duration":0.44010416666662877},{"name":"D4","midi":62,"time":647.0846354166716,"velocity":0.8031496062992126,"duration":0.23177083333337123},{"name":"C#4","midi":61,"time":647.3190104166716,"velocity":0.8031496062992126,"duration":0.23307291666662877},{"name":"A5","midi":81,"time":647.5546875000049,"velocity":0.8031496062992126,"duration":0.23177083333337123},{"name":"A3","midi":57,"time":647.5546875000049,"velocity":0.8031496062992126,"duration":0.23177083333337123},{"name":"F#5","midi":78,"time":647.7890625000049,"velocity":0.8031496062992126,"duration":0.42708333333337123},{"name":"D4","midi":62,"time":647.7890625000049,"velocity":0.8031496062992126,"duration":0.23177083333337123},{"name":"C#4","midi":61,"time":648.0234375000049,"velocity":0.8031496062992126,"duration":0.23177083333337123},{"name":"A5","midi":81,"time":648.2578125000049,"velocity":0.8031496062992126,"duration":0.23177083333337123},{"name":"E4","midi":64,"time":648.2578125000049,"velocity":0.8031496062992126,"duration":0.23177083333337123},{"name":"G#5","midi":80,"time":648.4921875000049,"velocity":0.8031496062992126,"duration":0.23177083333337123},{"name":"D4","midi":62,"time":648.4921875000049,"velocity":0.8031496062992126,"duration":0.23177083333337123},{"name":"A5","midi":81,"time":648.7265625000049,"velocity":0.8031496062992126,"duration":0.11458333333337123},{"name":"F#4","midi":66,"time":648.7265625000049,"velocity":0.8031496062992126,"duration":0.23177083333337123},{"name":"G#5","midi":80,"time":648.8437500000049,"velocity":0.8031496062992126,"duration":0.11458333333337123},{"name":"A5","midi":81,"time":648.9609375000049,"velocity":0.8031496062992126,"duration":0.44010416666662877},{"name":"E4","midi":64,"time":648.9609375000049,"velocity":0.8031496062992126,"duration":0.23177083333337123},{"name":"D#4","midi":63,"time":649.1953125000049,"velocity":0.8031496062992126,"duration":0.23307291666662877},{"name":"B5","midi":83,"time":649.4309895833381,"velocity":0.8031496062992126,"duration":0.23177083333337123},{"name":"B3","midi":59,"time":649.4309895833381,"velocity":0.8031496062992126,"duration":0.23177083333337123},{"name":"G#5","midi":80,"time":649.6653645833381,"velocity":0.8031496062992126,"duration":0.23177083333337123},{"name":"E4","midi":64,"time":649.6653645833381,"velocity":0.8031496062992126,"duration":0.23177083333337123},{"name":"A5","midi":81,"time":649.8997395833381,"velocity":0.8031496062992126,"duration":0.23177083333337123},{"name":"F#4","midi":66,"time":649.8997395833381,"velocity":0.8031496062992126,"duration":0.23177083333337123},{"name":"G#5","midi":80,"time":650.1341145833381,"velocity":0.8031496062992126,"duration":0.23177083333337123},{"name":"E4","midi":64,"time":650.1341145833381,"velocity":0.8031496062992126,"duration":0.23177083333337123},{"name":"A5","midi":81,"time":650.3684895833381,"velocity":0.8031496062992126,"duration":0.23177083333337123},{"name":"D4","midi":62,"time":650.3684895833381,"velocity":0.8031496062992126,"duration":0.23177083333337123},{"name":"B5","midi":83,"time":650.6028645833381,"velocity":0.8031496062992126,"duration":0.1953125},{"name":"C#4","midi":61,"time":650.6028645833381,"velocity":0.8031496062992126,"duration":0.23177083333337123},{"name":"A5","midi":81,"time":650.7981770833381,"velocity":0.8031496062992126,"duration":0.11458333333337123},{"name":"B3","midi":59,"time":650.8372395833381,"velocity":0.8031496062992126,"duration":0.23177083333325754},{"name":"B5","midi":83,"time":650.9153645833381,"velocity":0.8031496062992126,"duration":0.11458333333325754},{"name":"A5","midi":81,"time":651.0195312500048,"velocity":0.8031496062992126,"duration":0.11458333333325754},{"name":"C#4","midi":61,"time":651.071614583338,"velocity":0.8031496062992126,"duration":0.23177083333325754},{"name":"B5","midi":83,"time":651.1236979166714,"velocity":0.8031496062992126,"duration":0.11458333333325754},{"name":"A5","midi":81,"time":651.227864583338,"velocity":0.8031496062992126,"duration":0.11458333333314386},{"name":"A3","midi":57,"time":651.3059895833379,"velocity":0.8031496062992126,"duration":0.23177083333325754},{"name":"G#5","midi":80,"time":651.3320312500045,"velocity":0.8031496062992126,"duration":0.11458333333325754},{"name":"A5","midi":81,"time":651.4361979166712,"velocity":0.8031496062992126,"duration":0.11458333333325754},{"name":"B5","midi":83,"time":651.5403645833378,"velocity":0.8031496062992126,"duration":0.7018229166666288},{"name":"E4","midi":64,"time":651.5403645833378,"velocity":0.8031496062992126,"duration":0.23177083333325754},{"name":"D#4","midi":63,"time":651.7747395833377,"velocity":0.8031496062992126,"duration":0.23177083333337123},{"name":"F#4","midi":66,"time":652.0091145833377,"velocity":0.8031496062992126,"duration":0.23177083333337123},{"name":"E4","midi":64,"time":652.2434895833378,"velocity":0.8031496062992126,"duration":0.23177083333337123},{"name":"G#4","midi":68,"time":652.4778645833378,"velocity":0.8031496062992126,"duration":0.23177083333337123},{"name":"F#4","midi":66,"time":652.7122395833378,"velocity":0.8031496062992126,"duration":0.23177083333337123},{"name":"E4","midi":64,"time":652.9466145833378,"velocity":0.8031496062992126,"duration":0.46354166666662877},{"name":"D4","midi":62,"time":653.1809895833378,"velocity":0.8031496062992126,"duration":0.23177083333325754},{"name":"A4","midi":69,"time":653.4153645833377,"velocity":0.8031496062992126,"duration":0.23177083333337123},{"name":"C#4","midi":61,"time":653.4153645833377,"velocity":0.8031496062992126,"duration":0.23177083333337123},{"name":"G#4","midi":68,"time":653.6497395833377,"velocity":0.8031496062992126,"duration":0.23177083333337123},{"name":"B3","midi":59,"time":653.6497395833377,"velocity":0.8031496062992126,"duration":0.23177083333337123},{"name":"B4","midi":71,"time":653.8841145833377,"velocity":0.8031496062992126,"duration":0.23177083333337123},{"name":"D4","midi":62,"time":653.8841145833377,"velocity":0.8031496062992126,"duration":0.23177083333337123},{"name":"A4","midi":69,"time":654.1184895833377,"velocity":0.8031496062992126,"duration":0.23177083333337123},{"name":"C#4","midi":61,"time":654.1184895833377,"velocity":0.8031496062992126,"duration":0.23177083333337123},{"name":"C#5","midi":73,"time":654.3528645833377,"velocity":0.8031496062992126,"duration":0.23177083333337123},{"name":"E4","midi":64,"time":654.3528645833377,"velocity":0.8031496062992126,"duration":0.23177083333337123},{"name":"B4","midi":71,"time":654.5872395833377,"velocity":0.8031496062992126,"duration":0.23177083333337123},{"name":"D4","midi":62,"time":654.5872395833377,"velocity":0.8031496062992126,"duration":0.23177083333337123},{"name":"A4","midi":69,"time":654.8216145833377,"velocity":0.8031496062992126,"duration":0.23177083333337123},{"name":"C#4","midi":61,"time":654.8216145833377,"velocity":0.8031496062992126,"duration":0.23177083333337123},{"name":"G#4","midi":68,"time":655.0559895833377,"velocity":0.8031496062992126,"duration":0.23177083333337123},{"name":"B3","midi":59,"time":655.0559895833377,"velocity":0.8031496062992126,"duration":0.23177083333337123},{"name":"A4","midi":69,"time":655.2903645833377,"velocity":0.8031496062992126,"duration":0.45182291666662877},{"name":"C#4","midi":61,"time":655.2903645833377,"velocity":0.8031496062992126,"duration":0.23177083333337123},{"name":"D4","midi":62,"time":655.5247395833377,"velocity":0.8031496062992126,"duration":0.23177083333325754},{"name":"E4","midi":64,"time":655.7591145833376,"velocity":0.8031496062992126,"duration":0.45182291666662877},{"name":"C#4","midi":61,"time":655.7591145833376,"velocity":0.8031496062992126,"duration":0.23177083333337123},{"name":"B3","midi":59,"time":655.9934895833376,"velocity":0.8031496062992126,"duration":0.23177083333325754},{"name":"C#4","midi":61,"time":656.2278645833375,"velocity":0.8031496062992126,"duration":0.23177083333337123},{"name":"A3","midi":57,"time":656.2278645833375,"velocity":0.8031496062992126,"duration":0.46614583333337123},{"name":"E4","midi":64,"time":656.4622395833375,"velocity":0.8031496062992126,"duration":0.23177083333337123},{"name":"A4","midi":69,"time":656.6966145833375,"velocity":0.8031496062992126,"duration":0.23177083333337123},{"name":"E3","midi":52,"time":656.6966145833375,"velocity":0.8031496062992126,"duration":0.46614583333337123},{"name":"B4","midi":71,"time":656.9309895833375,"velocity":0.8031496062992126,"duration":0.23177083333337123},{"name":"C#5","midi":73,"time":657.1653645833375,"velocity":0.8031496062992126,"duration":0.23177083333337123},{"name":"A3","midi":57,"time":657.1653645833375,"velocity":0.8031496062992126,"duration":0.23177083333337123},{"name":"B4","midi":71,"time":657.3997395833375,"velocity":0.8031496062992126,"duration":0.23177083333337123},{"name":"G#3","midi":56,"time":657.3997395833375,"velocity":0.8031496062992126,"duration":0.23177083333337123},{"name":"D5","midi":74,"time":657.6341145833375,"velocity":0.8031496062992126,"duration":0.23177083333337123},{"name":"B3","midi":59,"time":657.6341145833375,"velocity":0.8031496062992126,"duration":0.23177083333337123},{"name":"C#5","midi":73,"time":657.8684895833375,"velocity":0.8031496062992126,"duration":0.23177083333337123},{"name":"A3","midi":57,"time":657.8684895833375,"velocity":0.8031496062992126,"duration":0.23177083333337123},{"name":"E5","midi":76,"time":658.1028645833375,"velocity":0.8031496062992126,"duration":0.23177083333337123},{"name":"C#4","midi":61,"time":658.1028645833375,"velocity":0.8031496062992126,"duration":0.23177083333337123},{"name":"D5","midi":74,"time":658.3372395833375,"velocity":0.8031496062992126,"duration":0.23177083333337123},{"name":"B3","midi":59,"time":658.3372395833375,"velocity":0.8031496062992126,"duration":0.23177083333337123},{"name":"C#5","midi":73,"time":658.5716145833375,"velocity":0.8031496062992126,"duration":0.23177083333337123},{"name":"A3","midi":57,"time":658.5716145833375,"velocity":0.8031496062992126,"duration":0.23177083333337123},{"name":"B4","midi":71,"time":658.8059895833375,"velocity":0.8031496062992126,"duration":0.23177083333337123},{"name":"G#3","midi":56,"time":658.8059895833375,"velocity":0.8031496062992126,"duration":0.23177083333337123},{"name":"D5","midi":74,"time":659.0403645833375,"velocity":0.8031496062992126,"duration":0.23177083333337123},{"name":"A3","midi":57,"time":659.0403645833375,"velocity":0.8031496062992126,"duration":0.45182291666662877},{"name":"C#5","midi":73,"time":659.2747395833375,"velocity":0.8031496062992126,"duration":0.23177083333325754},{"name":"B4","midi":71,"time":659.5091145833374,"velocity":0.8031496062992126,"duration":0.23177083333337123},{"name":"E3","midi":52,"time":659.5091145833374,"velocity":0.8031496062992126,"duration":0.45182291666662877},{"name":"C#5","midi":73,"time":659.7434895833374,"velocity":0.8031496062992126,"duration":0.23177083333325754},{"name":"A4","midi":69,"time":659.9778645833372,"velocity":0.8031496062992126,"duration":0.23177083333337123},{"name":"C#3","midi":49,"time":659.9778645833372,"velocity":0.8031496062992126,"duration":0.46614583333337123},{"name":"G#4","midi":68,"time":660.2122395833372,"velocity":0.8031496062992126,"duration":0.23177083333337123},{"name":"B4","midi":71,"time":660.4466145833372,"velocity":0.8031496062992126,"duration":0.23177083333337123},{"name":"E3","midi":52,"time":660.4466145833372,"velocity":0.8031496062992126,"duration":0.46614583333337123},{"name":"A4","midi":69,"time":660.6809895833372,"velocity":0.8031496062992126,"duration":0.23177083333337123},{"name":"C#5","midi":73,"time":660.9153645833372,"velocity":0.8031496062992126,"duration":0.23177083333337123},{"name":"A2","midi":45,"time":660.9153645833372,"velocity":0.8031496062992126,"duration":0.46614583333337123},{"name":"B4","midi":71,"time":661.1497395833372,"velocity":0.8031496062992126,"duration":0.23177083333337123},{"name":"A4","midi":69,"time":661.3841145833372,"velocity":0.8031496062992126,"duration":0.23177083333337123},{"name":"E3","midi":52,"time":661.3841145833372,"velocity":0.8031496062992126,"duration":0.46614583333337123},{"name":"G#4","midi":68,"time":661.6184895833372,"velocity":0.8031496062992126,"duration":0.23177083333337123},{"name":"F#4","midi":66,"time":661.8528645833372,"velocity":0.8031496062992126,"duration":0.23177083333337123},{"name":"A3","midi":57,"time":661.8528645833372,"velocity":0.8031496062992126,"duration":0.23177083333337123},{"name":"E4","midi":64,"time":662.0872395833372,"velocity":0.8031496062992126,"duration":0.23177083333337123},{"name":"G#3","midi":56,"time":662.0872395833372,"velocity":0.8031496062992126,"duration":0.23177083333337123},{"name":"G#4","midi":68,"time":662.3216145833372,"velocity":0.8031496062992126,"duration":0.23177083333337123},{"name":"B3","midi":59,"time":662.3216145833372,"velocity":0.8031496062992126,"duration":0.23177083333337123},{"name":"F#4","midi":66,"time":662.5559895833372,"velocity":0.8031496062992126,"duration":0.23177083333337123},{"name":"A3","midi":57,"time":662.5559895833372,"velocity":0.8031496062992126,"duration":0.23177083333337123},{"name":"A4","midi":69,"time":662.7903645833372,"velocity":0.8031496062992126,"duration":0.23177083333337123},{"name":"C#4","midi":61,"time":662.7903645833372,"velocity":0.8031496062992126,"duration":0.23177083333337123},{"name":"G#4","midi":68,"time":663.0247395833372,"velocity":0.8031496062992126,"duration":0.23177083333337123},{"name":"B3","midi":59,"time":663.0247395833372,"velocity":0.8031496062992126,"duration":0.23177083333337123},{"name":"F#4","midi":66,"time":663.2591145833372,"velocity":0.8031496062992126,"duration":0.23177083333337123},{"name":"A3","midi":57,"time":663.2591145833372,"velocity":0.8031496062992126,"duration":0.23177083333337123},{"name":"E4","midi":64,"time":663.4934895833372,"velocity":0.8031496062992126,"duration":0.23177083333337123},{"name":"G#3","midi":56,"time":663.4934895833372,"velocity":0.8031496062992126,"duration":0.23177083333337123},{"name":"D#4","midi":63,"time":663.7278645833372,"velocity":0.8031496062992126,"duration":0.23177083333337123},{"name":"F#3","midi":54,"time":663.7278645833372,"velocity":0.8031496062992126,"duration":0.23177083333337123},{"name":"C#4","midi":61,"time":663.9622395833372,"velocity":0.8031496062992126,"duration":0.23177083333337123},{"name":"E3","midi":52,"time":663.9622395833372,"velocity":0.8031496062992126,"duration":0.23177083333337123},{"name":"E4","midi":64,"time":664.1966145833372,"velocity":0.8031496062992126,"duration":0.23177083333337123},{"name":"G#3","midi":56,"time":664.1966145833372,"velocity":0.8031496062992126,"duration":0.23177083333337123},{"name":"D#4","midi":63,"time":664.4309895833372,"velocity":0.8031496062992126,"duration":0.23177083333337123},{"name":"F#3","midi":54,"time":664.4309895833372,"velocity":0.8031496062992126,"duration":0.23177083333337123},{"name":"F#4","midi":66,"time":664.6653645833372,"velocity":0.8031496062992126,"duration":0.23177083333337123},{"name":"A3","midi":57,"time":664.6653645833372,"velocity":0.8031496062992126,"duration":0.23177083333337123},{"name":"B3","midi":59,"time":664.8997395833372,"velocity":0.8031496062992126,"duration":0.23177083333337123},{"name":"G#3","midi":56,"time":664.8997395833372,"velocity":0.8031496062992126,"duration":0.23177083333337123},{"name":"B4","midi":71,"time":665.1341145833372,"velocity":0.8031496062992126,"duration":0.46614583333337123},{"name":"F#3","midi":54,"time":665.1341145833372,"velocity":0.8031496062992126,"duration":0.23177083333337123},{"name":"E3","midi":52,"time":665.3684895833372,"velocity":0.8031496062992126,"duration":0.23177083333337123},{"name":"A4","midi":69,"time":665.6028645833372,"velocity":0.8031496062992126,"duration":0.11458333333337123},{"name":"B3","midi":59,"time":665.6028645833372,"velocity":0.8031496062992126,"duration":0.46614583333337123},{"name":"G#4","midi":68,"time":665.7200520833372,"velocity":0.8031496062992126,"duration":0.11458333333337123},{"name":"A4","midi":69,"time":665.8372395833372,"velocity":0.8031496062992126,"duration":0.11458333333337123},{"name":"G#4","midi":68,"time":665.9544270833372,"velocity":0.8031496062992126,"duration":0.11458333333337123},{"name":"F#4","midi":66,"time":666.0716145833372,"velocity":0.8031496062992126,"duration":0.23177083333337123},{"name":"B2","midi":47,"time":666.0716145833372,"velocity":0.8031496062992126,"duration":0.46614583333337123},{"name":"E4","midi":64,"time":666.3059895833372,"velocity":0.8031496062992126,"duration":0.23177083333337123},{"name":"E4","midi":64,"time":666.5403645833372,"velocity":0.8031496062992126,"duration":1.4036458333332575},{"name":"E3","midi":52,"time":666.5403645833372,"velocity":0.8031496062992126,"duration":1.4036458333332575},{"name":"B2","midi":47,"time":667.0091145833372,"velocity":0.8031496062992126,"duration":0.46614583333337123},{"name":"E2","midi":40,"time":667.4778645833372,"velocity":0.8031496062992126,"duration":0.46354166666662877},{"name":"E4","midi":64,"time":667.9466145833371,"velocity":0.8031496062992126,"duration":0.44010416666662877},{"name":"B4","midi":71,"time":668.4153645833371,"velocity":0.8031496062992126,"duration":0.23177083333337123},{"name":"A4","midi":69,"time":668.6497395833371,"velocity":0.8031496062992126,"duration":0.23177083333337123},{"name":"C#5","midi":73,"time":668.8841145833371,"velocity":0.8031496062992126,"duration":0.23177083333337123},{"name":"B4","midi":71,"time":669.1184895833371,"velocity":0.8031496062992126,"duration":0.23177083333337123},{"name":"D5","midi":74,"time":669.3528645833371,"velocity":0.8031496062992126,"duration":0.23177083333337123},{"name":"C#5","midi":73,"time":669.5872395833371,"velocity":0.8031496062992126,"duration":0.23177083333337123},{"name":"E5","midi":76,"time":669.8216145833371,"velocity":0.8031496062992126,"duration":0.45182291666662877},{"name":"E3","midi":52,"time":669.8216145833371,"velocity":0.8031496062992126,"duration":0.46614583333325754},{"name":"D5","midi":74,"time":670.290364583337,"velocity":0.8031496062992126,"duration":0.18229166666674246},{"name":"A3","midi":57,"time":670.290364583337,"velocity":0.8031496062992126,"duration":0.23177083333337123},{"name":"C#5","midi":73,"time":670.4596354166704,"velocity":0.8031496062992126,"duration":0.10156249999988631},{"name":"G#3","midi":56,"time":670.524739583337,"velocity":0.8031496062992126,"duration":0.23177083333314386},{"name":"D5","midi":74,"time":670.5507812500036,"velocity":0.8031496062992126,"duration":0.10156249999988631},{"name":"C#5","midi":73,"time":670.6419270833369,"velocity":0.8031496062992126,"duration":0.11458333333325754},{"name":"B4","midi":71,"time":670.7591145833368,"velocity":0.8031496062992126,"duration":0.23177083333337123},{"name":"B3","midi":59,"time":670.7591145833368,"velocity":0.8031496062992126,"duration":0.23177083333337123},{"name":"C#5","midi":73,"time":670.9934895833368,"velocity":0.8031496062992126,"duration":0.23177083333337123},{"name":"A3","midi":57,"time":670.9934895833368,"velocity":0.8031496062992126,"duration":0.23177083333337123},{"name":"A4","midi":69,"time":671.2278645833368,"velocity":0.8031496062992126,"duration":0.23177083333337123},{"name":"C#4","midi":61,"time":671.2278645833368,"velocity":0.8031496062992126,"duration":0.23177083333337123},{"name":"B4","midi":71,"time":671.4622395833368,"velocity":0.8031496062992126,"duration":0.23177083333337123},{"name":"B3","midi":59,"time":671.4622395833368,"velocity":0.8031496062992126,"duration":0.23177083333337123},{"name":"C#5","midi":73,"time":671.6966145833368,"velocity":0.8031496062992126,"duration":0.23177083333337123},{"name":"E4","midi":64,"time":671.6966145833368,"velocity":0.8031496062992126,"duration":0.45182291666662877},{"name":"D5","midi":74,"time":671.9309895833368,"velocity":0.8031496062992126,"duration":0.23177083333325754},{"name":"E5","midi":76,"time":672.1653645833367,"velocity":0.8031496062992126,"duration":0.23177083333325754},{"name":"D4","midi":62,"time":672.1653645833367,"velocity":0.8031496062992126,"duration":0.11458333333325754},{"name":"C#4","midi":61,"time":672.2695312500033,"velocity":0.8031496062992126,"duration":0.11458333333325754},{"name":"D4","midi":62,"time":672.3736979166699,"velocity":0.8031496062992126,"duration":0.11458333333325754},{"name":"D5","midi":74,"time":672.3997395833366,"velocity":0.8031496062992126,"duration":0.23177083333325754},{"name":"C#4","midi":61,"time":672.4778645833366,"velocity":0.8031496062992126,"duration":0.1562499999998863},{"name":"F#5","midi":78,"time":672.6341145833364,"velocity":0.8031496062992126,"duration":0.23177083333337123},{"name":"B3","midi":59,"time":672.6341145833364,"velocity":0.8031496062992126,"duration":0.23177083333337123},{"name":"E5","midi":76,"time":672.8684895833364,"velocity":0.8031496062992126,"duration":0.23177083333337123},{"name":"C#4","midi":61,"time":672.8684895833364,"velocity":0.8031496062992126,"duration":0.23177083333337123},{"name":"G5","midi":79,"time":673.1028645833364,"velocity":0.8031496062992126,"duration":0.23177083333337123},{"name":"A3","midi":57,"time":673.1028645833364,"velocity":0.8031496062992126,"duration":0.46614583333337123},{"name":"F#5","midi":78,"time":673.3372395833364,"velocity":0.8031496062992126,"duration":0.23177083333337123},{"name":"A5","midi":81,"time":673.5716145833364,"velocity":0.8031496062992126,"duration":0.46614583333337123},{"name":"A2","midi":45,"time":673.5716145833364,"velocity":0.8031496062992126,"duration":0.46614583333337123},{"name":"G5","midi":79,"time":674.0403645833364,"velocity":0.8031496062992126,"duration":0.11458333333337123},{"name":"D3","midi":50,"time":674.0403645833364,"velocity":0.8031496062992126,"duration":0.23177083333337123},{"name":"F#5","midi":78,"time":674.1315104166698,"velocity":0.8031496062992126,"duration":0.11458333333337123},{"name":"G5","midi":79,"time":674.2226562500032,"velocity":0.8031496062992126,"duration":0.11458333333325754},{"name":"C#3","midi":49,"time":674.2747395833364,"velocity":0.8031496062992126,"duration":0.23177083333325754},{"name":"F#5","midi":78,"time":674.3138020833364,"velocity":0.8031496062992126,"duration":0.18229166666662877},{"name":"E5","midi":76,"time":674.5091145833363,"velocity":0.8031496062992126,"duration":0.23177083333337123},{"name":"E3","midi":52,"time":674.5091145833363,"velocity":0.8031496062992126,"duration":0.23177083333337123},{"name":"F#5","midi":78,"time":674.7434895833363,"velocity":0.8031496062992126,"duration":0.23177083333337123},{"name":"D3","midi":50,"time":674.7434895833363,"velocity":0.8031496062992126,"duration":0.23177083333337123},{"name":"D5","midi":74,"time":674.9778645833363,"velocity":0.8031496062992126,"duration":0.46614583333337123},{"name":"F#3","midi":54,"time":674.9778645833363,"velocity":0.8031496062992126,"duration":0.23177083333337123},{"name":"D3","midi":50,"time":675.2122395833363,"velocity":0.8031496062992126,"duration":0.23177083333337123},{"name":"F#5","midi":78,"time":675.4466145833363,"velocity":0.8031496062992126,"duration":0.46614583333337123},{"name":"D4","midi":62,"time":675.4466145833363,"velocity":0.8031496062992126,"duration":0.46614583333337123},{"name":"F#5","midi":78,"time":675.9153645833363,"velocity":0.8031496062992126,"duration":0.23177083333337123},{"name":"G2","midi":43,"time":675.9153645833363,"velocity":0.8031496062992126,"duration":0.9270833333333712},{"name":"D5","midi":74,"time":676.1497395833363,"velocity":0.8031496062992126,"duration":0.23177083333337123},{"name":"C#5","midi":73,"time":676.3841145833363,"velocity":0.8031496062992126,"duration":0.23177083333337123},{"name":"B4","midi":71,"time":676.6184895833363,"velocity":0.8031496062992126,"duration":0.23177083333337123},{"name":"D5","midi":74,"time":676.8528645833363,"velocity":0.8031496062992126,"duration":0.23177083333337123},{"name":"C#5","midi":73,"time":677.0872395833363,"velocity":0.8031496062992126,"duration":0.23177083333337123},{"name":"E5","midi":76,"time":677.3216145833363,"velocity":0.8031496062992126,"duration":0.23177083333337123},{"name":"C#4","midi":61,"time":677.3216145833363,"velocity":0.8031496062992126,"duration":0.46614583333337123},{"name":"D5","midi":74,"time":677.5559895833363,"velocity":0.8031496062992126,"duration":0.23177083333337123},{"name":"E5","midi":76,"time":677.7903645833363,"velocity":0.8031496062992126,"duration":0.23177083333337123},{"name":"F#2","midi":42,"time":677.7903645833363,"velocity":0.8031496062992126,"duration":0.9270833333333712},{"name":"C#5","midi":73,"time":678.0247395833363,"velocity":0.8031496062992126,"duration":0.23177083333337123},{"name":"B4","midi":71,"time":678.2591145833363,"velocity":0.8031496062992126,"duration":0.23177083333337123},{"name":"A#4","midi":70,"time":678.4934895833363,"velocity":0.8031496062992126,"duration":0.23177083333337123},{"name":"C#5","midi":73,"time":678.7278645833363,"velocity":0.8031496062992126,"duration":0.23177083333337123},{"name":"B4","midi":71,"time":678.9622395833363,"velocity":0.8031496062992126,"duration":0.23177083333337123},{"name":"D5","midi":74,"time":679.1966145833363,"velocity":0.8031496062992126,"duration":0.23177083333337123},{"name":"B3","midi":59,"time":679.1966145833363,"velocity":0.8031496062992126,"duration":0.46614583333337123},{"name":"C#5","midi":73,"time":679.4309895833363,"velocity":0.8031496062992126,"duration":0.23177083333337123},{"name":"E5","midi":76,"time":679.6653645833363,"velocity":0.8031496062992126,"duration":0.23177083333337123},{"name":"G3","midi":55,"time":679.6653645833363,"velocity":0.8031496062992126,"duration":0.46614583333337123},{"name":"D5","midi":74,"time":679.8997395833363,"velocity":0.8031496062992126,"duration":0.23177083333337123},{"name":"C#5","midi":73,"time":680.1341145833363,"velocity":0.8031496062992126,"duration":0.23177083333337123},{"name":"D3","midi":50,"time":680.1341145833363,"velocity":0.8031496062992126,"duration":0.46614583333337123},{"name":"B4","midi":71,"time":680.3684895833363,"velocity":0.8031496062992126,"duration":0.23177083333337123},{"name":"D5","midi":74,"time":680.6028645833363,"velocity":0.8031496062992126,"duration":0.23177083333337123},{"name":"E3","midi":52,"time":680.6028645833363,"velocity":0.8031496062992126,"duration":0.46614583333337123},{"name":"C#5","midi":73,"time":680.8372395833363,"velocity":0.8031496062992126,"duration":0.23177083333337123},{"name":"B4","midi":71,"time":681.0716145833363,"velocity":0.8031496062992126,"duration":0.23177083333337123},{"name":"F#3","midi":54,"time":681.0716145833363,"velocity":0.8031496062992126,"duration":0.46614583333337123},{"name":"A#4","midi":70,"time":681.3059895833363,"velocity":0.8031496062992126,"duration":0.23177083333337123},{"name":"B4","midi":71,"time":681.5403645833363,"velocity":0.8031496062992126,"duration":1.4036458333333712},{"name":"B2","midi":47,"time":681.5403645833363,"velocity":0.8031496062992126,"duration":0.23177083333337123},{"name":"A#2","midi":46,"time":681.7747395833363,"velocity":0.8031496062992126,"duration":0.23177083333337123},{"name":"C#3","midi":49,"time":682.0091145833363,"velocity":0.8031496062992126,"duration":0.23177083333337123},{"name":"B2","midi":47,"time":682.2434895833363,"velocity":0.8031496062992126,"duration":0.23177083333337123},{"name":"D3","midi":50,"time":682.4778645833363,"velocity":0.8031496062992126,"duration":0.23177083333337123},{"name":"C#3","midi":49,"time":682.7122395833363,"velocity":0.8031496062992126,"duration":0.23177083333337123},{"name":"B4","midi":71,"time":682.9466145833363,"velocity":0.8031496062992126,"duration":0.46614583333337123},{"name":"E3","midi":52,"time":682.9466145833363,"velocity":0.8031496062992126,"duration":0.46614583333337123},{"name":"F#5","midi":78,"time":683.4153645833363,"velocity":0.8031496062992126,"duration":0.23307291666662877},{"name":"E3","midi":52,"time":683.4153645833363,"velocity":0.8031496062992126,"duration":0.11588541666662877},{"name":"D#3","midi":51,"time":683.507812500003,"velocity":0.8031496062992126,"duration":0.11588541666662877},{"name":"E3","midi":52,"time":683.6002604166696,"velocity":0.8031496062992126,"duration":0.11588541666662877},{"name":"E5","midi":76,"time":683.6510416666696,"velocity":0.8031496062992126,"duration":0.23307291666662877},{"name":"D#3","midi":51,"time":683.6927083333362,"velocity":0.8031496062992126,"duration":0.5872395833332575},{"name":"G#5","midi":80,"time":683.8867187500028,"velocity":0.8031496062992126,"duration":0.23177083333337123},{"name":"F#5","midi":78,"time":684.1210937500028,"velocity":0.8031496062992126,"duration":0.23177083333325754},{"name":"A5","midi":81,"time":684.3554687500027,"velocity":0.8031496062992126,"duration":0.23177083333337123},{"name":"G#5","midi":80,"time":684.5898437500027,"velocity":0.8031496062992126,"duration":0.23177083333337123},{"name":"B5","midi":83,"time":684.8242187500027,"velocity":0.8031496062992126,"duration":0.46614583333337123},{"name":"B2","midi":47,"time":684.8242187500027,"velocity":0.8031496062992126,"duration":0.46614583333337123},{"name":"A5","midi":81,"time":685.2929687500027,"velocity":0.8031496062992126,"duration":0.15625},{"name":"E3","midi":52,"time":685.2929687500027,"velocity":0.8031496062992126,"duration":0.23177083333337123},{"name":"G#5","midi":80,"time":685.4622395833361,"velocity":0.8031496062992126,"duration":0.10286458333325754},{"name":"D#3","midi":51,"time":685.5273437500027,"velocity":0.8031496062992126,"duration":0.23177083333337123},{"name":"A5","midi":81,"time":685.5533854166694,"velocity":0.8031496062992126,"duration":0.09895833333337123},{"name":"G#5","midi":80,"time":685.6445312500027,"velocity":0.8031496062992126,"duration":0.11458333333337123},{"name":"F#5","midi":78,"time":685.7617187500027,"velocity":0.8031496062992126,"duration":0.23177083333337123},{"name":"F#3","midi":54,"time":685.7617187500027,"velocity":0.8031496062992126,"duration":0.23177083333337123},{"name":"G#5","midi":80,"time":685.9960937500027,"velocity":0.8031496062992126,"duration":0.23177083333337123},{"name":"E3","midi":52,"time":685.9960937500027,"velocity":0.8031496062992126,"duration":0.23177083333337123},{"name":"E5","midi":76,"time":686.2304687500027,"velocity":0.8031496062992126,"duration":0.46614583333337123},{"name":"G#3","midi":56,"time":686.2304687500027,"velocity":0.8031496062992126,"duration":0.23177083333337123},{"name":"F#3","midi":54,"time":686.4648437500027,"velocity":0.8031496062992126,"duration":0.23177083333337123},{"name":"E4","midi":64,"time":686.6992187500027,"velocity":0.8031496062992126,"duration":0.46614583333337123},{"name":"A3","midi":57,"time":686.6992187500027,"velocity":0.8031496062992126,"duration":0.46614583333337123},{"name":"B4","midi":71,"time":687.1679687500027,"velocity":0.8031496062992126,"duration":0.23307291666674246},{"name":"A3","midi":57,"time":687.1679687500027,"velocity":0.8031496062992126,"duration":0.11588541666674246},{"name":"G#3","midi":56,"time":687.2669270833361,"velocity":0.8031496062992126,"duration":0.11588541666674246},{"name":"A3","midi":57,"time":687.3658854166695,"velocity":0.8031496062992126,"duration":0.11588541666662877},{"name":"A4","midi":69,"time":687.4036458333361,"velocity":0.8031496062992126,"duration":0.23307291666662877},{"name":"G#3","midi":56,"time":687.4648437500027,"velocity":0.8031496062992126,"duration":0.5872395833332575},{"name":"C#5","midi":73,"time":687.6393229166694,"velocity":0.8031496062992126,"duration":0.23177083333337123},{"name":"B4","midi":71,"time":687.8736979166694,"velocity":0.8031496062992126,"duration":0.23177083333325754},{"name":"D5","midi":74,"time":688.1080729166692,"velocity":0.8031496062992126,"duration":0.23177083333337123},{"name":"C#5","midi":73,"time":688.3424479166692,"velocity":0.8031496062992126,"duration":0.23177083333337123},{"name":"E5","midi":76,"time":688.5768229166692,"velocity":0.8031496062992126,"duration":0.46614583333337123},{"name":"E3","midi":52,"time":688.5768229166692,"velocity":0.8031496062992126,"duration":0.46614583333337123},{"name":"D5","midi":74,"time":689.0455729166692,"velocity":0.8031496062992126,"duration":0.1015625},{"name":"A3","midi":57,"time":689.0455729166692,"velocity":0.8031496062992126,"duration":0.23177083333325754},{"name":"C#5","midi":73,"time":689.1367187500026,"velocity":0.8031496062992126,"duration":0.10286458333325754},{"name":"D5","midi":74,"time":689.2278645833359,"velocity":0.8031496062992126,"duration":0.10026041666662877},{"name":"G#3","midi":56,"time":689.2799479166691,"velocity":0.8031496062992126,"duration":0.23177083333337123},{"name":"C#5","midi":73,"time":689.3190104166691,"velocity":0.8031496062992126,"duration":0.20963541666662877},{"name":"B4","midi":71,"time":689.5143229166691,"velocity":0.8031496062992126,"duration":0.23177083333325754},{"name":"B3","midi":59,"time":689.5143229166691,"velocity":0.8031496062992126,"duration":0.23177083333325754},{"name":"C#5","midi":73,"time":689.748697916669,"velocity":0.8031496062992126,"duration":0.23177083333337123},{"name":"A3","midi":57,"time":689.748697916669,"velocity":0.8031496062992126,"duration":0.23177083333337123},{"name":"A4","midi":69,"time":689.983072916669,"velocity":0.8031496062992126,"duration":0.23177083333337123},{"name":"C#4","midi":61,"time":689.983072916669,"velocity":0.8031496062992126,"duration":0.23177083333337123},{"name":"B4","midi":71,"time":690.217447916669,"velocity":0.8031496062992126,"duration":0.23177083333337123},{"name":"B3","midi":59,"time":690.217447916669,"velocity":0.8031496062992126,"duration":0.23177083333337123},{"name":"C#5","midi":73,"time":690.451822916669,"velocity":0.8031496062992126,"duration":0.23177083333337123},{"name":"E4","midi":64,"time":690.451822916669,"velocity":0.8031496062992126,"duration":0.46614583333337123},{"name":"D5","midi":74,"time":690.686197916669,"velocity":0.8031496062992126,"duration":0.23177083333337123},{"name":"E5","midi":76,"time":690.920572916669,"velocity":0.8031496062992126,"duration":0.23177083333325754},{"name":"D4","midi":62,"time":690.920572916669,"velocity":0.8031496062992126,"duration":0.11458333333325754},{"name":"C#4","midi":61,"time":691.0130208333356,"velocity":0.8031496062992126,"duration":0.11458333333325754},{"name":"D4","midi":62,"time":691.1054687500023,"velocity":0.8031496062992126,"duration":0.11588541666662877},{"name":"C#5","midi":73,"time":691.1549479166689,"velocity":0.8031496062992126,"duration":0.23307291666662877},{"name":"C#4","midi":61,"time":691.1992187500023,"velocity":0.8031496062992126,"duration":0.1953124999998863},{"name":"B4","midi":71,"time":691.3906250000022,"velocity":0.8031496062992126,"duration":0.23177083333337123},{"name":"D4","midi":62,"time":691.3906250000022,"velocity":0.8031496062992126,"duration":0.46614583333337123},{"name":"A4","midi":69,"time":691.6250000000022,"velocity":0.8031496062992126,"duration":0.23177083333337123},{"name":"E5","midi":76,"time":691.8593750000022,"velocity":0.8031496062992126,"duration":0.23177083333337123},{"name":"C#4","midi":61,"time":691.8593750000022,"velocity":0.8031496062992126,"duration":0.46614583333337123},{"name":"D5","midi":74,"time":692.0937500000022,"velocity":0.8031496062992126,"duration":0.23177083333337123},{"name":"F#5","midi":78,"time":692.3281250000022,"velocity":0.8031496062992126,"duration":0.23177083333337123},{"name":"B3","midi":59,"time":692.3281250000022,"velocity":0.8031496062992126,"duration":0.46614583333337123},{"name":"E5","midi":76,"time":692.5625000000022,"velocity":0.8031496062992126,"duration":0.23177083333337123},{"name":"G5","midi":79,"time":692.7968750000022,"velocity":0.8031496062992126,"duration":0.46354166666662877},{"name":"A3","midi":57,"time":692.7968750000022,"velocity":0.8031496062992126,"duration":0.46614583333325754},{"name":"C#5","midi":73,"time":693.0312500000022,"velocity":0.8031496062992126,"duration":0.23177083333325754},{"name":"B4","midi":71,"time":693.265625000002,"velocity":0.8031496062992126,"duration":0.23177083333337123},{"name":"A3","midi":57,"time":693.265625000002,"velocity":0.8031496062992126,"duration":0.46614583333337123},{"name":"A4","midi":69,"time":693.500000000002,"velocity":0.8031496062992126,"duration":0.23177083333337123},{"name":"D5","midi":74,"time":693.734375000002,"velocity":0.8031496062992126,"duration":0.23177083333337123},{"name":"A3","midi":57,"time":693.734375000002,"velocity":0.8031496062992126,"duration":0.46614583333337123},{"name":"C#5","midi":73,"time":693.968750000002,"velocity":0.8031496062992126,"duration":0.23177083333337123},{"name":"E5","midi":76,"time":694.203125000002,"velocity":0.8031496062992126,"duration":0.23177083333337123},{"name":"A3","midi":57,"time":694.203125000002,"velocity":0.8031496062992126,"duration":0.46614583333337123},{"name":"D5","midi":74,"time":694.437500000002,"velocity":0.8031496062992126,"duration":0.23177083333337123},{"name":"F#5","midi":78,"time":694.671875000002,"velocity":0.8031496062992126,"duration":0.46354166666662877},{"name":"A3","midi":57,"time":694.671875000002,"velocity":0.8031496062992126,"duration":0.46614583333325754},{"name":"C#5","midi":73,"time":694.906250000002,"velocity":0.8031496062992126,"duration":0.23177083333325754},{"name":"B4","midi":71,"time":695.1406250000019,"velocity":0.8031496062992126,"duration":0.23177083333337123},{"name":"A3","midi":57,"time":695.1406250000019,"velocity":0.8031496062992126,"duration":0.46614583333337123},{"name":"A4","midi":69,"time":695.3750000000019,"velocity":0.8031496062992126,"duration":0.23177083333337123},{"name":"E5","midi":76,"time":695.6093750000019,"velocity":0.8031496062992126,"duration":0.23177083333337123},{"name":"A3","midi":57,"time":695.6093750000019,"velocity":0.8031496062992126,"duration":0.46614583333337123},{"name":"D5","midi":74,"time":695.8437500000019,"velocity":0.8031496062992126,"duration":0.23177083333337123},{"name":"F#5","midi":78,"time":696.0781250000019,"velocity":0.8031496062992126,"duration":0.23177083333337123},{"name":"A3","midi":57,"time":696.0781250000019,"velocity":0.8031496062992126,"duration":0.46614583333337123},{"name":"E5","midi":76,"time":696.3125000000019,"velocity":0.8031496062992126,"duration":0.23177083333337123},{"name":"G5","midi":79,"time":696.5468750000019,"velocity":0.8031496062992126,"duration":0.46354166666662877},{"name":"A3","midi":57,"time":696.5468750000019,"velocity":0.8031496062992126,"duration":0.46614583333325754},{"name":"C#5","midi":73,"time":696.7812500000019,"velocity":0.8031496062992126,"duration":0.23177083333325754},{"name":"B4","midi":71,"time":697.0156250000018,"velocity":0.8031496062992126,"duration":0.23177083333337123},{"name":"G3","midi":55,"time":697.0156250000018,"velocity":0.8031496062992126,"duration":0.46614583333337123},{"name":"A4","midi":69,"time":697.2500000000018,"velocity":0.8031496062992126,"duration":0.23177083333337123},{"name":"D5","midi":74,"time":697.4843750000018,"velocity":0.8031496062992126,"duration":0.23177083333337123},{"name":"F#3","midi":54,"time":697.4843750000018,"velocity":0.8031496062992126,"duration":0.46614583333337123},{"name":"C#5","midi":73,"time":697.7187500000018,"velocity":0.8031496062992126,"duration":0.23177083333337123},{"name":"E5","midi":76,"time":697.9531250000018,"velocity":0.8031496062992126,"duration":0.23177083333337123},{"name":"E3","midi":52,"time":697.9531250000018,"velocity":0.8031496062992126,"duration":0.46614583333337123},{"name":"D5","midi":74,"time":698.1875000000018,"velocity":0.8031496062992126,"duration":0.23177083333337123},{"name":"F#5","midi":78,"time":698.4218750000018,"velocity":0.8031496062992126,"duration":0.23177083333337123},{"name":"D3","midi":50,"time":698.4218750000018,"velocity":0.8031496062992126,"duration":0.46614583333337123},{"name":"D5","midi":74,"time":698.6562500000018,"velocity":0.8031496062992126,"duration":0.23177083333337123},{"name":"C#5","midi":73,"time":698.8906250000018,"velocity":0.8031496062992126,"duration":0.23177083333337123},{"name":"E3","midi":52,"time":698.8906250000018,"velocity":0.8031496062992126,"duration":0.46614583333337123},{"name":"B4","midi":71,"time":699.1250000000018,"velocity":0.8031496062992126,"duration":0.23177083333337123},{"name":"F#5","midi":78,"time":699.3593750000018,"velocity":0.8031496062992126,"duration":0.23177083333337123},{"name":"D3","midi":50,"time":699.3593750000018,"velocity":0.8031496062992126,"duration":0.46614583333337123},{"name":"E5","midi":76,"time":699.5937500000018,"velocity":0.8031496062992126,"duration":0.23177083333337123},{"name":"G#5","midi":80,"time":699.8281250000018,"velocity":0.8031496062992126,"duration":0.23177083333337123},{"name":"C#3","midi":49,"time":699.8281250000018,"velocity":0.8031496062992126,"duration":0.46614583333337123},{"name":"F#5","midi":78,"time":700.0625000000018,"velocity":0.8031496062992126,"duration":0.23177083333337123},{"name":"A5","midi":81,"time":700.2968750000018,"velocity":0.8031496062992126,"duration":0.5208333333333712},{"name":"B2","midi":47,"time":700.2968750000018,"velocity":0.8031496062992126,"duration":0.46614583333337123},{"name":"D#5","midi":75,"time":700.5312500000018,"velocity":0.8031496062992126,"duration":0.23177083333337123},{"name":"C#5","midi":73,"time":700.7656250000018,"velocity":0.8031496062992126,"duration":0.23177083333337123},{"name":"B2","midi":47,"time":700.7656250000018,"velocity":0.8031496062992126,"duration":0.46614583333337123},{"name":"B4","midi":71,"time":701.0000000000018,"velocity":0.8031496062992126,"duration":0.23177083333337123},{"name":"E5","midi":76,"time":701.2343750000018,"velocity":0.8031496062992126,"duration":0.24739583333337123},{"name":"B2","midi":47,"time":701.2343750000018,"velocity":0.8031496062992126,"duration":0.46614583333337123},{"name":"D#5","midi":75,"time":701.4687500000018,"velocity":0.8031496062992126,"duration":0.23177083333337123},{"name":"F#5","midi":78,"time":701.7031250000018,"velocity":0.8031496062992126,"duration":0.24739583333337123},{"name":"B2","midi":47,"time":701.7031250000018,"velocity":0.8031496062992126,"duration":0.46614583333337123},{"name":"E5","midi":76,"time":701.9375000000018,"velocity":0.8031496062992126,"duration":0.23177083333337123},{"name":"G#5","midi":80,"time":702.1718750000018,"velocity":0.8031496062992126,"duration":0.5208333333333712},{"name":"B2","midi":47,"time":702.1718750000018,"velocity":0.8031496062992126,"duration":0.46614583333337123},{"name":"D#5","midi":75,"time":702.4062500000018,"velocity":0.8031496062992126,"duration":0.23177083333337123},{"name":"C#5","midi":73,"time":702.6406250000018,"velocity":0.8031496062992126,"duration":0.23177083333337123},{"name":"B2","midi":47,"time":702.6406250000018,"velocity":0.8031496062992126,"duration":0.46614583333337123},{"name":"B4","midi":71,"time":702.8750000000018,"velocity":0.8031496062992126,"duration":0.23177083333337123},{"name":"F#5","midi":78,"time":703.1093750000018,"velocity":0.8031496062992126,"duration":0.26041666666662877},{"name":"B2","midi":47,"time":703.1093750000018,"velocity":0.8031496062992126,"duration":0.46614583333325754},{"name":"E5","midi":76,"time":703.3437500000018,"velocity":0.8031496062992126,"duration":0.23177083333325754},{"name":"G#5","midi":80,"time":703.5781250000017,"velocity":0.8031496062992126,"duration":0.26041666666662877},{"name":"B2","midi":47,"time":703.5781250000017,"velocity":0.8031496062992126,"duration":0.46614583333325754},{"name":"F#5","midi":78,"time":703.8125000000017,"velocity":0.8031496062992126,"duration":0.23177083333325754},{"name":"A5","midi":81,"time":704.0468750000016,"velocity":0.8031496062992126,"duration":0.5208333333333712},{"name":"B2","midi":47,"time":704.0468750000016,"velocity":0.8031496062992126,"duration":0.46614583333337123},{"name":"D#5","midi":75,"time":704.2812500000016,"velocity":0.8031496062992126,"duration":0.23177083333337123},{"name":"C#5","midi":73,"time":704.5156250000016,"velocity":0.8031496062992126,"duration":0.23177083333337123},{"name":"A2","midi":45,"time":704.5156250000016,"velocity":0.8031496062992126,"duration":0.46614583333337123},{"name":"B4","midi":71,"time":704.7500000000016,"velocity":0.8031496062992126,"duration":0.23177083333337123},{"name":"E5","midi":76,"time":704.9843750000016,"velocity":0.8031496062992126,"duration":0.23177083333337123},{"name":"G#2","midi":44,"time":704.9843750000016,"velocity":0.8031496062992126,"duration":0.46614583333337123},{"name":"D#5","midi":75,"time":705.2187500000016,"velocity":0.8031496062992126,"duration":0.23177083333337123},{"name":"F#5","midi":78,"time":705.4531250000016,"velocity":0.8031496062992126,"duration":0.23177083333337123},{"name":"F#2","midi":42,"time":705.4531250000016,"velocity":0.8031496062992126,"duration":0.46614583333337123},{"name":"E5","midi":76,"time":705.6875000000016,"velocity":0.8031496062992126,"duration":0.23177083333337123},{"name":"G#5","midi":80,"time":705.9218750000016,"velocity":0.8031496062992126,"duration":0.23177083333337123},{"name":"E2","midi":40,"time":705.9218750000016,"velocity":0.8031496062992126,"duration":0.46614583333337123},{"name":"F#5","midi":78,"time":706.1562500000016,"velocity":0.8031496062992126,"duration":0.23177083333337123},{"name":"E5","midi":76,"time":706.3906250000016,"velocity":0.8031496062992126,"duration":0.23177083333337123},{"name":"E2","midi":40,"time":706.3906250000016,"velocity":0.8031496062992126,"duration":0.46614583333337123},{"name":"F#5","midi":78,"time":706.6250000000016,"velocity":0.8031496062992126,"duration":0.23177083333337123},{"name":"G#5","midi":80,"time":706.8593750000016,"velocity":0.8031496062992126,"duration":0.23177083333337123},{"name":"E2","midi":40,"time":706.8593750000016,"velocity":0.8031496062992126,"duration":0.46614583333337123},{"name":"F#5","midi":78,"time":707.0937500000016,"velocity":0.8031496062992126,"duration":0.23177083333337123},{"name":"A5","midi":81,"time":707.3281250000016,"velocity":0.8031496062992126,"duration":0.23177083333337123},{"name":"E2","midi":40,"time":707.3281250000016,"velocity":0.8031496062992126,"duration":0.46614583333337123},{"name":"G#5","midi":80,"time":707.5625000000016,"velocity":0.8031496062992126,"duration":0.23177083333337123},{"name":"B5","midi":83,"time":707.7968750000016,"velocity":0.8031496062992126,"duration":0.23177083333337123},{"name":"D2","midi":38,"time":707.7968750000016,"velocity":0.8031496062992126,"duration":0.46614583333337123},{"name":"A5","midi":81,"time":708.0312500000016,"velocity":0.8031496062992126,"duration":0.23177083333337123},{"name":"G#5","midi":80,"time":708.2656250000016,"velocity":0.8031496062992126,"duration":0.23177083333337123},{"name":"D2","midi":38,"time":708.2656250000016,"velocity":0.8031496062992126,"duration":0.46614583333337123},{"name":"F#5","midi":78,"time":708.5000000000016,"velocity":0.8031496062992126,"duration":0.23177083333337123},{"name":"A5","midi":81,"time":708.7343750000016,"velocity":0.8031496062992126,"duration":0.23177083333337123},{"name":"D2","midi":38,"time":708.7343750000016,"velocity":0.8031496062992126,"duration":0.46614583333337123},{"name":"G#5","midi":80,"time":708.9687500000016,"velocity":0.8031496062992126,"duration":0.23177083333337123},{"name":"F#5","midi":78,"time":709.2031250000016,"velocity":0.8031496062992126,"duration":0.23177083333337123},{"name":"D3","midi":50,"time":709.2031250000016,"velocity":0.8031496062992126,"duration":0.46614583333337123},{"name":"E5","midi":76,"time":709.4375000000016,"velocity":0.8031496062992126,"duration":0.23177083333337123},{"name":"A5","midi":81,"time":709.6718750000016,"velocity":0.8031496062992126,"duration":0.7005208333333712},{"name":"C#3","midi":49,"time":709.6718750000016,"velocity":0.8031496062992126,"duration":0.46614583333337123},{"name":"E3","midi":52,"time":710.1406250000016,"velocity":0.8031496062992126,"duration":0.11458333333337123},{"name":"D3","midi":50,"time":710.2578125000016,"velocity":0.8031496062992126,"duration":0.11458333333337123},{"name":"B5","midi":83,"time":710.3750000000016,"velocity":0.8031496062992126,"duration":0.23177083333337123},{"name":"C#3","midi":49,"time":710.3750000000016,"velocity":0.8031496062992126,"duration":0.11458333333337123},{"name":"D3","midi":50,"time":710.4921875000016,"velocity":0.8031496062992126,"duration":0.11458333333337123},{"name":"A5","midi":81,"time":710.6093750000016,"velocity":0.8031496062992126,"duration":0.11458333333325754},{"name":"E3","midi":52,"time":710.6093750000016,"velocity":0.8031496062992126,"duration":0.46614583333337123},{"name":"G#5","midi":80,"time":710.6940104166682,"velocity":0.8031496062992126,"duration":0.11458333333337123},{"name":"A5","midi":81,"time":710.7916666666682,"velocity":0.8031496062992126,"duration":0.11458333333337123},{"name":"G#5","midi":80,"time":710.8893229166682,"velocity":0.8031496062992126,"duration":0.11458333333337123},{"name":"A5","midi":81,"time":710.9869791666682,"velocity":0.8031496062992126,"duration":0.11458333333337123},{"name":"E2","midi":40,"time":711.0781250000016,"velocity":0.8031496062992126,"duration":0.46614583333337123},{"name":"G#5","midi":80,"time":711.0846354166682,"velocity":0.8031496062992126,"duration":0.11458333333337123},{"name":"A5","midi":81,"time":711.1822916666682,"velocity":0.8031496062992126,"duration":0.11458333333337123},{"name":"G#5","midi":80,"time":711.286458333335,"velocity":0.8031496062992126,"duration":0.11458333333337123},{"name":"F#5","midi":78,"time":711.364583333335,"velocity":0.8031496062992126,"duration":0.11458333333337123},{"name":"G#5","midi":80,"time":711.4557291666683,"velocity":0.8031496062992126,"duration":0.11458333333325754},{"name":"A5","midi":81,"time":711.5468750000016,"velocity":0.8031496062992126,"duration":0.9361979166667425},{"name":"A2","midi":45,"time":711.5468750000016,"velocity":0.8031496062992126,"duration":0.23177083333337123},{"name":"E3","midi":52,"time":711.7812500000016,"velocity":0.8031496062992126,"duration":0.23177083333337123},{"name":"F#3","midi":54,"time":712.0156250000016,"velocity":0.8031496062992126,"duration":0.23177083333337123},{"name":"G#3","midi":56,"time":712.2500000000016,"velocity":0.8031496062992126,"duration":0.23177083333337123},{"name":"A3","midi":57,"time":712.4843750000017,"velocity":0.8031496062992126,"duration":0.23177083333337123},{"name":"B3","midi":59,"time":712.7187500000017,"velocity":0.8031496062992126,"duration":0.23177083333337123},{"name":"E5","midi":76,"time":712.9531250000017,"velocity":0.8031496062992126,"duration":0.46614583333337123},{"name":"C#4","midi":61,"time":712.9531250000017,"velocity":0.8031496062992126,"duration":0.46614583333337123},{"name":"E5","midi":76,"time":713.4218750000017,"velocity":0.8031496062992126,"duration":0.23177083333337123},{"name":"F#2","midi":42,"time":713.4218750000017,"velocity":0.8031496062992126,"duration":0.9270833333333712},{"name":"C#5","midi":73,"time":713.6562500000017,"velocity":0.8031496062992126,"duration":0.23177083333337123},{"name":"B4","midi":71,"time":713.8906250000017,"velocity":0.8031496062992126,"duration":0.23177083333337123},{"name":"A4","midi":69,"time":714.1250000000017,"velocity":0.8031496062992126,"duration":0.23177083333337123},{"name":"C#5","midi":73,"time":714.3593750000017,"velocity":0.8031496062992126,"duration":0.23177083333337123},{"name":"B4","midi":71,"time":714.5937500000017,"velocity":0.8031496062992126,"duration":0.23177083333337123},{"name":"D5","midi":74,"time":714.8281250000017,"velocity":0.8031496062992126,"duration":0.23177083333337123},{"name":"B3","midi":59,"time":714.8281250000017,"velocity":0.8031496062992126,"duration":0.46614583333337123},{"name":"C#5","midi":73,"time":715.0625000000017,"velocity":0.8031496062992126,"duration":0.23177083333337123},{"name":"D5","midi":74,"time":715.2968750000017,"velocity":0.8031496062992126,"duration":0.23177083333337123},{"name":"E2","midi":40,"time":715.2968750000017,"velocity":0.8031496062992126,"duration":0.9270833333333712},{"name":"B4","midi":71,"time":715.5312500000017,"velocity":0.8031496062992126,"duration":0.23177083333337123},{"name":"A4","midi":69,"time":715.7656250000017,"velocity":0.8031496062992126,"duration":0.23177083333337123},{"name":"G#4","midi":68,"time":716.0000000000017,"velocity":0.8031496062992126,"duration":0.23177083333337123},{"name":"B4","midi":71,"time":716.2343750000017,"velocity":0.8031496062992126,"duration":0.23177083333337123},{"name":"A4","midi":69,"time":716.4687500000017,"velocity":0.8031496062992126,"duration":0.23177083333337123},{"name":"C#5","midi":73,"time":716.7031250000017,"velocity":0.8031496062992126,"duration":0.23177083333337123},{"name":"A3","midi":57,"time":716.7031250000017,"velocity":0.8031496062992126,"duration":0.46614583333337123},{"name":"B4","midi":71,"time":716.9375000000017,"velocity":0.8031496062992126,"duration":0.23177083333337123},{"name":"D5","midi":74,"time":717.1718750000017,"velocity":0.8031496062992126,"duration":0.23177083333337123},{"name":"F#3","midi":54,"time":717.1718750000017,"velocity":0.8031496062992126,"duration":0.46614583333337123},{"name":"C#5","midi":73,"time":717.4062500000017,"velocity":0.8031496062992126,"duration":0.23177083333337123},{"name":"B4","midi":71,"time":717.6406250000017,"velocity":0.8031496062992126,"duration":0.23177083333337123},{"name":"C#3","midi":49,"time":717.6406250000017,"velocity":0.8031496062992126,"duration":0.46614583333337123},{"name":"A4","midi":69,"time":717.8750000000017,"velocity":0.8031496062992126,"duration":0.23177083333337123},{"name":"C#5","midi":73,"time":718.1093750000017,"velocity":0.8031496062992126,"duration":0.23177083333337123},{"name":"D3","midi":50,"time":718.1093750000017,"velocity":0.8031496062992126,"duration":0.46614583333337123},{"name":"B4","midi":71,"time":718.3437500000017,"velocity":0.8031496062992126,"duration":0.23177083333337123},{"name":"A4","midi":69,"time":718.5781250000017,"velocity":0.8031496062992126,"duration":0.23177083333337123},{"name":"E3","midi":52,"time":718.5781250000017,"velocity":0.8031496062992126,"duration":0.46614583333337123},{"name":"G#4","midi":68,"time":718.8125000000017,"velocity":0.8031496062992126,"duration":0.23177083333337123},{"name":"A4","midi":69,"time":719.0468750000017,"velocity":0.8031496062992126,"duration":0.23177083333337123},{"name":"A2","midi":45,"time":719.0468750000017,"velocity":0.8031496062992126,"duration":0.23177083333337123},{"name":"E4","midi":64,"time":719.2812500000017,"velocity":0.8031496062992126,"duration":0.23177083333337123},{"name":"G#2","midi":44,"time":719.2812500000017,"velocity":0.8031496062992126,"duration":0.23177083333337123},{"name":"F#4","midi":66,"time":719.5156250000017,"velocity":0.8031496062992126,"duration":0.23177083333337123},{"name":"A2","midi":45,"time":719.5156250000017,"velocity":0.8031496062992126,"duration":0.23177083333337123},{"name":"G#4","midi":68,"time":719.7500000000017,"velocity":0.8031496062992126,"duration":0.23177083333337123},{"name":"B2","midi":47,"time":719.7500000000017,"velocity":0.8031496062992126,"duration":0.23177083333337123},{"name":"A4","midi":69,"time":719.9843750000017,"velocity":0.8031496062992126,"duration":0.23177083333337123},{"name":"C#3","midi":49,"time":719.9843750000017,"velocity":0.8031496062992126,"duration":0.23177083333337123},{"name":"B4","midi":71,"time":720.2187500000017,"velocity":0.8031496062992126,"duration":0.23177083333337123},{"name":"D3","midi":50,"time":720.2187500000017,"velocity":0.8031496062992126,"duration":0.23177083333337123},{"name":"C#5","midi":73,"time":720.4531250000017,"velocity":0.8031496062992126,"duration":0.23177083333337123},{"name":"E3","midi":52,"time":720.4531250000017,"velocity":0.8031496062992126,"duration":0.23177083333337123},{"name":"D5","midi":74,"time":720.6875000000017,"velocity":0.8031496062992126,"duration":0.23177083333337123},{"name":"C#3","midi":49,"time":720.6875000000017,"velocity":0.8031496062992126,"duration":0.23177083333337123},{"name":"E5","midi":76,"time":720.9218750000017,"velocity":0.8031496062992126,"duration":0.23177083333348492},{"name":"F#3","midi":54,"time":720.9218750000017,"velocity":0.8031496062992126,"duration":0.10416666666674246},{"name":"E3","midi":52,"time":721.0130208333351,"velocity":0.8031496062992126,"duration":0.10416666666674246},{"name":"F#3","midi":54,"time":721.1041666666684,"velocity":0.8031496062992126,"duration":0.8059895833333712},{"name":"C#5","midi":73,"time":721.1562500000018,"velocity":0.8031496062992126,"duration":0.23177083333337123},{"name":"B4","midi":71,"time":721.3906250000018,"velocity":0.8031496062992126,"duration":0.23177083333337123},{"name":"A4","midi":69,"time":721.6250000000018,"velocity":0.8031496062992126,"duration":0.23177083333337123},{"name":"C#5","midi":73,"time":721.8593750000018,"velocity":0.8031496062992126,"duration":0.23177083333337123},{"name":"B4","midi":71,"time":722.0937500000018,"velocity":0.8031496062992126,"duration":0.23177083333337123},{"name":"D5","midi":74,"time":722.3281250000018,"velocity":0.8031496062992126,"duration":0.23177083333337123},{"name":"B2","midi":47,"time":722.3281250000018,"velocity":0.8031496062992126,"duration":0.46614583333337123},{"name":"C#5","midi":73,"time":722.5625000000018,"velocity":0.8031496062992126,"duration":0.23177083333337123},{"name":"D5","midi":74,"time":722.7968750000018,"velocity":0.8031496062992126,"duration":0.23177083333325754},{"name":"E3","midi":52,"time":722.7968750000018,"velocity":0.8031496062992126,"duration":0.10416666666662877},{"name":"D3","midi":50,"time":722.9010416666684,"velocity":0.8031496062992126,"duration":0.10416666666662877},{"name":"E3","midi":52,"time":723.0052083333351,"velocity":0.8031496062992126,"duration":0.8059895833332575},{"name":"B4","midi":71,"time":723.0312500000017,"velocity":0.8031496062992126,"duration":0.23177083333337123},{"name":"A4","midi":69,"time":723.2656250000017,"velocity":0.8031496062992126,"duration":0.23177083333337123},{"name":"G#4","midi":68,"time":723.5000000000017,"velocity":0.8031496062992126,"duration":0.23177083333337123},{"name":"B4","midi":71,"time":723.7343750000017,"velocity":0.8031496062992126,"duration":0.23177083333325754},{"name":"A4","midi":69,"time":723.9687500000016,"velocity":0.8031496062992126,"duration":0.23177083333337123},{"name":"C#5","midi":73,"time":724.2031250000016,"velocity":0.8031496062992126,"duration":0.23177083333337123},{"name":"A2","midi":45,"time":724.2031250000016,"velocity":0.8031496062992126,"duration":0.46614583333337123},{"name":"B4","midi":71,"time":724.4375000000016,"velocity":0.8031496062992126,"duration":0.23177083333337123},{"name":"D5","midi":74,"time":724.6718750000016,"velocity":0.8031496062992126,"duration":0.23177083333337123},{"name":"F#2","midi":42,"time":724.6718750000016,"velocity":0.8031496062992126,"duration":0.46614583333337123},{"name":"C#5","midi":73,"time":724.9062500000016,"velocity":0.8031496062992126,"duration":0.23177083333337123},{"name":"B4","midi":71,"time":725.1406250000016,"velocity":0.8031496062992126,"duration":0.23177083333337123},{"name":"C#2","midi":37,"time":725.1406250000016,"velocity":0.8031496062992126,"duration":0.46614583333337123},{"name":"A4","midi":69,"time":725.3750000000016,"velocity":0.8031496062992126,"duration":0.23177083333337123},{"name":"C#5","midi":73,"time":725.6093750000016,"velocity":0.8031496062992126,"duration":0.23177083333337123},{"name":"D2","midi":38,"time":725.6093750000016,"velocity":0.8031496062992126,"duration":0.46614583333337123},{"name":"B4","midi":71,"time":725.8437500000016,"velocity":0.8031496062992126,"duration":0.23177083333337123},{"name":"A4","midi":69,"time":726.0781250000016,"velocity":0.8031496062992126,"duration":0.23177083333337123},{"name":"E2","midi":40,"time":726.0781250000016,"velocity":0.8031496062992126,"duration":0.46614583333337123},{"name":"G#4","midi":68,"time":726.3125000000016,"velocity":0.8031496062992126,"duration":0.23177083333337123},{"name":"A4","midi":69,"time":726.5468750000016,"velocity":0.8031496062992126,"duration":0.11458333333337123},{"name":"A1","midi":33,"time":726.5468750000016,"velocity":0.8031496062992126,"duration":1.4036458333332575},{"name":"G#4","midi":68,"time":726.6640625000016,"velocity":0.8031496062992126,"duration":0.11458333333337123},{"name":"A4","midi":69,"time":726.7812500000016,"velocity":0.8031496062992126,"duration":0.9361979166666288},{"name":"E2","midi":40,"time":727.0156250000016,"velocity":0.8031496062992126,"duration":0.46614583333337123},{"name":"A2","midi":45,"time":727.4843750000016,"velocity":0.8031496062992126,"duration":0.9361979166666288},{"name":"C4","midi":60,"time":727.9531250000015,"velocity":0.8031496062992126,"duration":0.23177083333337123},{"name":"E3","midi":52,"time":727.9531250000015,"velocity":0.8031496062992126,"duration":0.23177083333337123},{"name":"D4","midi":62,"time":728.1875000000015,"velocity":0.8031496062992126,"duration":0.23177083333337123},{"name":"D3","midi":50,"time":728.1875000000015,"velocity":0.8031496062992126,"duration":0.23177083333337123},{"name":"E4","midi":64,"time":728.4218750000016,"velocity":0.8031496062992126,"duration":0.46614583333337123},{"name":"C3","midi":48,"time":728.4218750000016,"velocity":0.8031496062992126,"duration":0.23177083333337123},{"name":"B2","midi":47,"time":728.6562500000016,"velocity":0.8031496062992126,"duration":0.23177083333337123},{"name":"F4","midi":65,"time":728.8906250000016,"velocity":0.8031496062992126,"duration":0.46614583333337123},{"name":"A2","midi":45,"time":728.8906250000016,"velocity":0.8031496062992126,"duration":0.23177083333337123},{"name":"B2","midi":47,"time":729.1250000000016,"velocity":0.8031496062992126,"duration":0.23177083333337123},{"name":"E4","midi":64,"time":729.3593750000016,"velocity":0.8031496062992126,"duration":0.46614583333337123},{"name":"C3","midi":48,"time":729.3593750000016,"velocity":0.8031496062992126,"duration":0.23177083333337123},{"name":"B2","midi":47,"time":729.5937500000016,"velocity":0.8031496062992126,"duration":0.23177083333337123},{"name":"D4","midi":62,"time":729.8281250000016,"velocity":0.8031496062992126,"duration":0.46614583333337123},{"name":"A2","midi":45,"time":729.8281250000016,"velocity":0.8031496062992126,"duration":0.23177083333337123},{"name":"B2","midi":47,"time":730.0625000000016,"velocity":0.8031496062992126,"duration":0.23177083333337123},{"name":"E4","midi":64,"time":730.2968750000016,"velocity":0.8031496062992126,"duration":0.10416666666674246},{"name":"C3","midi":48,"time":730.2968750000016,"velocity":0.8031496062992126,"duration":0.23177083333348492},{"name":"D4","midi":62,"time":730.388020833335,"velocity":0.8031496062992126,"duration":0.10416666666674246},{"name":"E4","midi":64,"time":730.4791666666683,"velocity":0.8031496062992126,"duration":0.3359375},{"name":"B2","midi":47,"time":730.5312500000017,"velocity":0.8031496062992126,"duration":0.23177083333337123},{"name":"A3","midi":57,"time":730.7656250000017,"velocity":0.8031496062992126,"duration":0.8059895833332575},{"name":"A2","midi":45,"time":730.7656250000017,"velocity":0.8031496062992126,"duration":0.23177083333325754},{"name":"B2","midi":47,"time":731.0000000000016,"velocity":0.8031496062992126,"duration":0.23177083333337123},{"name":"C3","midi":48,"time":731.2343750000016,"velocity":0.8031496062992126,"duration":0.23177083333337123},{"name":"D3","midi":50,"time":731.4687500000016,"velocity":0.8031496062992126,"duration":0.23177083333337123},{"name":"G#3","midi":56,"time":731.7031250000016,"velocity":0.8031496062992126,"duration":0.46614583333337123},{"name":"E3","midi":52,"time":731.7031250000016,"velocity":0.8031496062992126,"duration":0.23177083333337123},{"name":"D3","midi":50,"time":731.9375000000016,"velocity":0.8031496062992126,"duration":0.23177083333337123},{"name":"A3","midi":57,"time":732.1718750000016,"velocity":0.8031496062992126,"duration":0.46614583333337123},{"name":"C3","midi":48,"time":732.1718750000016,"velocity":0.8031496062992126,"duration":0.23177083333337123},{"name":"B2","midi":47,"time":732.4062500000016,"velocity":0.8031496062992126,"duration":0.23177083333337123},{"name":"F4","midi":65,"time":732.6406250000016,"velocity":0.8031496062992126,"duration":0.46614583333337123},{"name":"A2","midi":45,"time":732.6406250000016,"velocity":0.8031496062992126,"duration":0.23177083333337123},{"name":"B2","midi":47,"time":732.8750000000016,"velocity":0.8031496062992126,"duration":0.23177083333337123},{"name":"E4","midi":64,"time":733.1093750000016,"velocity":0.8031496062992126,"duration":0.46614583333337123},{"name":"C3","midi":48,"time":733.1093750000016,"velocity":0.8031496062992126,"duration":0.23177083333337123},{"name":"B2","midi":47,"time":733.3437500000016,"velocity":0.8031496062992126,"duration":0.23177083333337123},{"name":"D4","midi":62,"time":733.5781250000016,"velocity":0.8031496062992126,"duration":0.46614583333337123},{"name":"A2","midi":45,"time":733.5781250000016,"velocity":0.8031496062992126,"duration":0.23177083333337123},{"name":"B2","midi":47,"time":733.8125000000016,"velocity":0.8031496062992126,"duration":0.23177083333337123},{"name":"E4","midi":64,"time":734.0468750000016,"velocity":0.8031496062992126,"duration":0.10416666666674246},{"name":"C3","midi":48,"time":734.0468750000016,"velocity":0.8031496062992126,"duration":0.23177083333348492},{"name":"D4","midi":62,"time":734.138020833335,"velocity":0.8031496062992126,"duration":0.10416666666674246},{"name":"E4","midi":64,"time":734.2291666666683,"velocity":0.8031496062992126,"duration":0.32552083333337123},{"name":"B2","midi":47,"time":734.2812500000017,"velocity":0.8031496062992126,"duration":0.23177083333337123},{"name":"A3","midi":57,"time":734.5156250000017,"velocity":0.8031496062992126,"duration":0.8059895833333712},{"name":"A2","midi":45,"time":734.5156250000017,"velocity":0.8031496062992126,"duration":0.23177083333337123},{"name":"B2","midi":47,"time":734.7500000000017,"velocity":0.8031496062992126,"duration":0.23177083333337123},{"name":"C3","midi":48,"time":734.9843750000017,"velocity":0.8031496062992126,"duration":0.23177083333337123},{"name":"D3","midi":50,"time":735.2187500000017,"velocity":0.8031496062992126,"duration":0.23177083333337123},{"name":"G#3","midi":56,"time":735.4531250000017,"velocity":0.8031496062992126,"duration":0.46614583333337123},{"name":"E3","midi":52,"time":735.4531250000017,"velocity":0.8031496062992126,"duration":0.23177083333337123},{"name":"D3","midi":50,"time":735.6875000000017,"velocity":0.8031496062992126,"duration":0.23177083333337123},{"name":"A3","midi":57,"time":735.9218750000017,"velocity":0.8031496062992126,"duration":0.46614583333337123},{"name":"C3","midi":48,"time":735.9218750000017,"velocity":0.8031496062992126,"duration":0.23177083333337123},{"name":"B2","midi":47,"time":736.1562500000017,"velocity":0.8031496062992126,"duration":0.23177083333337123},{"name":"F4","midi":65,"time":736.3906250000017,"velocity":0.8031496062992126,"duration":0.46614583333337123},{"name":"A2","midi":45,"time":736.3906250000017,"velocity":0.8031496062992126,"duration":0.23177083333337123},{"name":"B2","midi":47,"time":736.6250000000017,"velocity":0.8031496062992126,"duration":0.23177083333337123},{"name":"E4","midi":64,"time":736.8593750000017,"velocity":0.8031496062992126,"duration":0.46614583333337123},{"name":"C3","midi":48,"time":736.8593750000017,"velocity":0.8031496062992126,"duration":0.23177083333337123},{"name":"B2","midi":47,"time":737.0937500000017,"velocity":0.8031496062992126,"duration":0.23177083333337123},{"name":"D4","midi":62,"time":737.3281250000017,"velocity":0.8031496062992126,"duration":0.46614583333337123},{"name":"A2","midi":45,"time":737.3281250000017,"velocity":0.8031496062992126,"duration":0.23177083333337123},{"name":"B2","midi":47,"time":737.5625000000017,"velocity":0.8031496062992126,"duration":0.23177083333337123},{"name":"A4","midi":69,"time":737.7968750000017,"velocity":0.8031496062992126,"duration":0.46614583333337123},{"name":"C3","midi":48,"time":737.7968750000017,"velocity":0.8031496062992126,"duration":0.23177083333337123},{"name":"B2","midi":47,"time":738.0312500000017,"velocity":0.8031496062992126,"duration":0.23177083333337123},{"name":"G4","midi":67,"time":738.2656250000017,"velocity":0.8031496062992126,"duration":0.23177083333337123},{"name":"A2","midi":45,"time":738.2656250000017,"velocity":0.8031496062992126,"duration":0.23177083333337123},{"name":"F4","midi":65,"time":738.5000000000017,"velocity":0.8031496062992126,"duration":0.23177083333337123},{"name":"B2","midi":47,"time":738.5000000000017,"velocity":0.8031496062992126,"duration":0.23177083333337123},{"name":"E4","midi":64,"time":738.7343750000017,"velocity":0.8031496062992126,"duration":0.46614583333337123},{"name":"C3","midi":48,"time":738.7343750000017,"velocity":0.8031496062992126,"duration":0.23177083333337123},{"name":"D3","midi":50,"time":738.9687500000017,"velocity":0.8031496062992126,"duration":0.23177083333337123},{"name":"D4","midi":62,"time":739.2031250000017,"velocity":0.8031496062992126,"duration":0.46614583333337123},{"name":"E3","midi":52,"time":739.2031250000017,"velocity":0.8031496062992126,"duration":0.23177083333337123},{"name":"F3","midi":53,"time":739.4375000000017,"velocity":0.8031496062992126,"duration":0.23177083333337123},{"name":"D4","midi":62,"time":739.6718750000017,"velocity":0.8031496062992126,"duration":0.19270833333337123},{"name":"E3","midi":52,"time":739.6718750000017,"velocity":0.8031496062992126,"duration":0.23177083333337123},{"name":"C4","midi":60,"time":739.8593750000017,"velocity":0.8031496062992126,"duration":0.09114583333337123},{"name":"D3","midi":50,"time":739.9062500000017,"velocity":0.8031496062992126,"duration":0.23177083333337123},{"name":"D4","midi":62,"time":739.9531250000017,"velocity":0.8031496062992126,"duration":0.09114583333337123},{"name":"C4","midi":60,"time":740.0468750000017,"velocity":0.8031496062992126,"duration":0.09114583333337123},{"name":"B3","midi":59,"time":740.1406250000017,"velocity":0.8031496062992126,"duration":0.23177083333337123},{"name":"C3","midi":48,"time":740.1406250000017,"velocity":0.8031496062992126,"duration":0.23177083333337123},{"name":"C4","midi":60,"time":740.3750000000017,"velocity":0.8031496062992126,"duration":0.23177083333337123},{"name":"B2","midi":47,"time":740.3750000000017,"velocity":0.8031496062992126,"duration":0.23177083333337123},{"name":"D4","midi":62,"time":740.6093750000017,"velocity":0.8031496062992126,"duration":0.23177083333337123},{"name":"A2","midi":45,"time":740.6093750000017,"velocity":0.8031496062992126,"duration":0.23177083333337123},{"name":"B3","midi":59,"time":740.8437500000017,"velocity":0.8031496062992126,"duration":0.23177083333337123},{"name":"G#2","midi":44,"time":740.8437500000017,"velocity":0.8031496062992126,"duration":0.23177083333337123},{"name":"C4","midi":60,"time":741.0781250000017,"velocity":0.8031496062992126,"duration":0.23177083333337123},{"name":"A2","midi":45,"time":741.0781250000017,"velocity":0.8031496062992126,"duration":0.46614583333337123},{"name":"A3","midi":57,"time":741.3125000000017,"velocity":0.8031496062992126,"duration":0.23177083333337123},{"name":"B3","midi":59,"time":741.5468750000017,"velocity":0.8031496062992126,"duration":0.23177083333337123},{"name":"E2","midi":40,"time":741.5468750000017,"velocity":0.8031496062992126,"duration":0.9361979166667425},{"name":"A3","midi":57,"time":741.7812500000017,"velocity":0.8031496062992126,"duration":0.23177083333337123},{"name":"G#3","midi":56,"time":742.0156250000017,"velocity":0.8031496062992126,"duration":0.23177083333337123},{"name":"A3","midi":57,"time":742.2500000000017,"velocity":0.8031496062992126,"duration":0.23177083333337123},{"name":"B3","midi":59,"time":742.4843750000018,"velocity":0.8031496062992126,"duration":0.23177083333337123},{"name":"C4","midi":60,"time":742.7187500000018,"velocity":0.8031496062992126,"duration":0.23177083333337123},{"name":"D4","midi":62,"time":742.9531250000018,"velocity":0.8031496062992126,"duration":0.23177083333337123},{"name":"E3","midi":52,"time":742.9531250000018,"velocity":0.8031496062992126,"duration":0.23177083333337123},{"name":"B3","midi":59,"time":743.1875000000018,"velocity":0.8031496062992126,"duration":0.23177083333337123},{"name":"F3","midi":53,"time":743.1875000000018,"velocity":0.8031496062992126,"duration":0.23177083333337123},{"name":"C4","midi":60,"time":743.4218750000018,"velocity":0.8031496062992126,"duration":0.23177083333337123},{"name":"E3","midi":52,"time":743.4218750000018,"velocity":0.8031496062992126,"duration":0.46614583333337123},{"name":"D4","midi":62,"time":743.6562500000018,"velocity":0.8031496062992126,"duration":0.23177083333337123},{"name":"E4","midi":64,"time":743.8906250000018,"velocity":0.8031496062992126,"duration":0.23177083333337123},{"name":"D3","midi":50,"time":743.8906250000018,"velocity":0.8031496062992126,"duration":0.46614583333337123},{"name":"F4","midi":65,"time":744.1250000000018,"velocity":0.8031496062992126,"duration":0.23177083333337123},{"name":"E4","midi":64,"time":744.3593750000018,"velocity":0.8031496062992126,"duration":0.23177083333337123},{"name":"C3","midi":48,"time":744.3593750000018,"velocity":0.8031496062992126,"duration":0.46614583333337123},{"name":"D4","midi":62,"time":744.5937500000018,"velocity":0.8031496062992126,"duration":0.23177083333337123},{"name":"C4","midi":60,"time":744.8281250000018,"velocity":0.8031496062992126,"duration":0.23177083333337123},{"name":"B2","midi":47,"time":744.8281250000018,"velocity":0.8031496062992126,"duration":0.46614583333337123},{"name":"D4","midi":62,"time":745.0625000000018,"velocity":0.8031496062992126,"duration":0.23177083333337123},{"name":"E4","midi":64,"time":745.2968750000018,"velocity":0.8031496062992126,"duration":0.23177083333337123},{"name":"C3","midi":48,"time":745.2968750000018,"velocity":0.8031496062992126,"duration":0.37760416666662877},{"name":"D4","midi":62,"time":745.5312500000018,"velocity":0.8031496062992126,"duration":0.23177083333325754},{"name":"C4","midi":60,"time":745.7656250000017,"velocity":0.8031496062992126,"duration":0.23177083333337123},{"name":"A2","midi":45,"time":745.7656250000017,"velocity":0.8031496062992126,"duration":0.23177083333337123},{"name":"B3","midi":59,"time":746.0000000000017,"velocity":0.8031496062992126,"duration":0.23177083333337123},{"name":"B2","midi":47,"time":746.0000000000017,"velocity":0.8031496062992126,"duration":0.23177083333337123},{"name":"A3","midi":57,"time":746.2343750000017,"velocity":0.8031496062992126,"duration":0.23177083333337123},{"name":"C3","midi":48,"time":746.2343750000017,"velocity":0.8031496062992126,"duration":0.23177083333337123},{"name":"B3","midi":59,"time":746.4687500000017,"velocity":0.8031496062992126,"duration":0.23177083333337123},{"name":"D3","midi":50,"time":746.4687500000017,"velocity":0.8031496062992126,"duration":0.23177083333337123},{"name":"C4","midi":60,"time":746.7031250000017,"velocity":0.8031496062992126,"duration":0.23177083333337123},{"name":"E3","midi":52,"time":746.7031250000017,"velocity":0.8031496062992126,"duration":0.23177083333337123},{"name":"D4","midi":62,"time":746.9375000000017,"velocity":0.8031496062992126,"duration":0.23177083333337123},{"name":"F3","midi":53,"time":746.9375000000017,"velocity":0.8031496062992126,"duration":0.23177083333337123},{"name":"E4","midi":64,"time":747.1718750000017,"velocity":0.8031496062992126,"duration":0.23177083333337123},{"name":"G3","midi":55,"time":747.1718750000017,"velocity":0.8031496062992126,"duration":0.46614583333337123},{"name":"F4","midi":65,"time":747.4062500000017,"velocity":0.8031496062992126,"duration":0.23177083333337123},{"name":"G4","midi":67,"time":747.6406250000017,"velocity":0.8031496062992126,"duration":0.23177083333337123},{"name":"F3","midi":53,"time":747.6406250000017,"velocity":0.8031496062992126,"duration":0.46614583333337123},{"name":"A4","midi":69,"time":747.8750000000017,"velocity":0.8031496062992126,"duration":0.23177083333337123},{"name":"G4","midi":67,"time":748.1093750000017,"velocity":0.8031496062992126,"duration":0.23177083333337123},{"name":"E3","midi":52,"time":748.1093750000017,"velocity":0.8031496062992126,"duration":0.46614583333337123},{"name":"F4","midi":65,"time":748.3437500000017,"velocity":0.8031496062992126,"duration":0.23177083333337123},{"name":"E4","midi":64,"time":748.5781250000017,"velocity":0.8031496062992126,"duration":0.23177083333337123},{"name":"D3","midi":50,"time":748.5781250000017,"velocity":0.8031496062992126,"duration":0.46614583333337123},{"name":"F4","midi":65,"time":748.8125000000017,"velocity":0.8031496062992126,"duration":0.23177083333337123},{"name":"G4","midi":67,"time":749.0468750000017,"velocity":0.8031496062992126,"duration":0.23177083333337123},{"name":"E3","midi":52,"time":749.0468750000017,"velocity":0.8031496062992126,"duration":0.40364583333337123},{"name":"F4","midi":65,"time":749.2812500000017,"velocity":0.8031496062992126,"duration":0.23177083333337123},{"name":"E4","midi":64,"time":749.5156250000017,"velocity":0.8031496062992126,"duration":0.23177083333337123},{"name":"C3","midi":48,"time":749.5156250000017,"velocity":0.8031496062992126,"duration":0.23177083333337123},{"name":"D4","midi":62,"time":749.7500000000017,"velocity":0.8031496062992126,"duration":0.23177083333337123},{"name":"D3","midi":50,"time":749.7500000000017,"velocity":0.8031496062992126,"duration":0.23177083333337123},{"name":"C4","midi":60,"time":749.9843750000017,"velocity":0.8031496062992126,"duration":0.23177083333337123},{"name":"E3","midi":52,"time":749.9843750000017,"velocity":0.8031496062992126,"duration":0.23177083333337123},{"name":"D4","midi":62,"time":750.2187500000017,"velocity":0.8031496062992126,"duration":0.23177083333337123},{"name":"F#3","midi":54,"time":750.2187500000017,"velocity":0.8031496062992126,"duration":0.23177083333337123},{"name":"E4","midi":64,"time":750.4531250000017,"velocity":0.8031496062992126,"duration":0.23177083333337123},{"name":"G3","midi":55,"time":750.4531250000017,"velocity":0.8031496062992126,"duration":0.23177083333337123},{"name":"F#4","midi":66,"time":750.6875000000017,"velocity":0.8031496062992126,"duration":0.23177083333337123},{"name":"A3","midi":57,"time":750.6875000000017,"velocity":0.8031496062992126,"duration":0.23177083333337123},{"name":"G4","midi":67,"time":750.9218750000017,"velocity":0.8031496062992126,"duration":0.23177083333337123},{"name":"B3","midi":59,"time":750.9218750000017,"velocity":0.8031496062992126,"duration":0.46614583333337123},{"name":"A4","midi":69,"time":751.1562500000017,"velocity":0.8031496062992126,"duration":0.23177083333337123},{"name":"B4","midi":71,"time":751.3906250000017,"velocity":0.8031496062992126,"duration":0.23177083333337123},{"name":"A3","midi":57,"time":751.3906250000017,"velocity":0.8031496062992126,"duration":0.46614583333337123},{"name":"C5","midi":72,"time":751.6250000000017,"velocity":0.8031496062992126,"duration":0.23177083333337123},{"name":"B4","midi":71,"time":751.8593750000017,"velocity":0.8031496062992126,"duration":0.23177083333337123},{"name":"G3","midi":55,"time":751.8593750000017,"velocity":0.8031496062992126,"duration":0.46614583333337123},{"name":"A4","midi":69,"time":752.0937500000017,"velocity":0.8031496062992126,"duration":0.23177083333337123},{"name":"G4","midi":67,"time":752.3281250000017,"velocity":0.8031496062992126,"duration":0.23177083333337123},{"name":"F#3","midi":54,"time":752.3281250000017,"velocity":0.8031496062992126,"duration":0.46614583333337123},{"name":"A4","midi":69,"time":752.5625000000017,"velocity":0.8031496062992126,"duration":0.23177083333337123},{"name":"B4","midi":71,"time":752.7968750000017,"velocity":0.8031496062992126,"duration":0.23177083333337123},{"name":"G3","midi":55,"time":752.7968750000017,"velocity":0.8031496062992126,"duration":0.42317708333337123},{"name":"A4","midi":69,"time":753.0312500000017,"velocity":0.8031496062992126,"duration":0.23177083333337123},{"name":"G4","midi":67,"time":753.2656250000017,"velocity":0.8031496062992126,"duration":0.23177083333337123},{"name":"E3","midi":52,"time":753.2656250000017,"velocity":0.8031496062992126,"duration":0.46614583333337123},{"name":"F#4","midi":66,"time":753.5000000000017,"velocity":0.8031496062992126,"duration":0.23177083333337123},{"name":"E4","midi":64,"time":753.7343750000017,"velocity":0.8031496062992126,"duration":0.23177083333337123},{"name":"C4","midi":60,"time":753.7343750000017,"velocity":0.8031496062992126,"duration":0.46614583333337123},{"name":"D#4","midi":63,"time":753.9687500000017,"velocity":0.8031496062992126,"duration":0.23177083333337123},{"name":"E4","midi":64,"time":754.2031250000017,"velocity":0.8031496062992126,"duration":0.23177083333337123},{"name":"A3","midi":57,"time":754.2031250000017,"velocity":0.8031496062992126,"duration":0.7005208333333712},{"name":"F#4","midi":66,"time":754.4375000000017,"velocity":0.8031496062992126,"duration":0.23177083333337123},{"name":"B3","midi":59,"time":754.6718750000017,"velocity":0.8031496062992126,"duration":0.46614583333337123},{"name":"G3","midi":55,"time":754.9062500000017,"velocity":0.8031496062992126,"duration":0.23177083333337123},{"name":"G4","midi":67,"time":755.1406250000017,"velocity":0.8031496062992126,"duration":0.7005208333333712},{"name":"F#3","midi":54,"time":755.1406250000017,"velocity":0.8031496062992126,"duration":0.23177083333337123},{"name":"E3","midi":52,"time":755.3750000000017,"velocity":0.8031496062992126,"duration":0.23177083333337123},{"name":"B3","midi":59,"time":755.6093750000017,"velocity":0.8031496062992126,"duration":0.46614583333337123},{"name":"F#4","midi":66,"time":755.8437500000017,"velocity":0.8031496062992126,"duration":0.23177083333337123},{"name":"E4","midi":64,"time":756.0781250000017,"velocity":0.8031496062992126,"duration":0.23177083333337123},{"name":"B2","midi":47,"time":756.0781250000017,"velocity":0.8031496062992126,"duration":0.46614583333337123},{"name":"D#4","midi":63,"time":756.3125000000017,"velocity":0.8031496062992126,"duration":0.23177083333337123},{"name":"E4","midi":64,"time":756.5468750000017,"velocity":0.8031496062992126,"duration":1.4036458333333712},{"name":"E3","midi":52,"time":756.5468750000017,"velocity":0.8031496062992126,"duration":0.46614583333337123},{"name":"B2","midi":47,"time":757.0156250000017,"velocity":0.8031496062992126,"duration":0.46614583333337123},{"name":"E2","midi":40,"time":757.4843750000017,"velocity":0.8031496062992126,"duration":0.46614583333337123},{"name":"E4","midi":64,"time":757.9531250000017,"velocity":0.8031496062992126,"duration":0.23177083333337123},{"name":"E3","midi":52,"time":757.9531250000017,"velocity":0.8031496062992126,"duration":0.23177083333337123},{"name":"D4","midi":62,"time":758.1875000000017,"velocity":0.8031496062992126,"duration":0.23177083333337123},{"name":"F3","midi":53,"time":758.1875000000017,"velocity":0.8031496062992126,"duration":0.23177083333337123},{"name":"C#4","midi":61,"time":758.4218750000017,"velocity":0.8031496062992126,"duration":0.46614583333337123},{"name":"G3","midi":55,"time":758.4218750000017,"velocity":0.8031496062992126,"duration":0.23177083333337123},{"name":"F3","midi":53,"time":758.6562500000017,"velocity":0.8031496062992126,"duration":0.23177083333337123},{"name":"B3","midi":59,"time":758.8906250000017,"velocity":0.8031496062992126,"duration":0.46614583333337123},{"name":"E3","midi":52,"time":758.8906250000017,"velocity":0.8031496062992126,"duration":0.23177083333337123},{"name":"F3","midi":53,"time":759.1250000000017,"velocity":0.8031496062992126,"duration":0.23177083333337123},{"name":"C#4","midi":61,"time":759.3593750000017,"velocity":0.8031496062992126,"duration":0.46614583333337123},{"name":"G3","midi":55,"time":759.3593750000017,"velocity":0.8031496062992126,"duration":0.23177083333337123},{"name":"F3","midi":53,"time":759.5937500000017,"velocity":0.8031496062992126,"duration":0.23177083333337123},{"name":"D4","midi":62,"time":759.8281250000017,"velocity":0.8031496062992126,"duration":0.46614583333337123},{"name":"E3","midi":52,"time":759.8281250000017,"velocity":0.8031496062992126,"duration":0.23177083333337123},{"name":"F3","midi":53,"time":760.0625000000017,"velocity":0.8031496062992126,"duration":0.23177083333337123},{"name":"E4","midi":64,"time":760.2968750000017,"velocity":0.8031496062992126,"duration":0.23177083333337123},{"name":"G3","midi":55,"time":760.2968750000017,"velocity":0.8031496062992126,"duration":0.23177083333337123},{"name":"G4","midi":67,"time":760.5312500000017,"velocity":0.8031496062992126,"duration":0.23177083333337123},{"name":"F3","midi":53,"time":760.5312500000017,"velocity":0.8031496062992126,"duration":0.23177083333337123},{"name":"A#4","midi":70,"time":760.7656250000017,"velocity":0.8031496062992126,"duration":0.9348958333333712},{"name":"E3","midi":52,"time":760.7656250000017,"velocity":0.8031496062992126,"duration":0.23177083333337123},{"name":"F3","midi":53,"time":761.0000000000017,"velocity":0.8031496062992126,"duration":0.23177083333337123},{"name":"G3","midi":55,"time":761.2343750000017,"velocity":0.8031496062992126,"duration":0.46614583333337123},{"name":"A4","midi":69,"time":761.7031250000017,"velocity":0.8031496062992126,"duration":0.23177083333337123},{"name":"C#3","midi":49,"time":761.7031250000017,"velocity":0.8031496062992126,"duration":0.46614583333337123},{"name":"G4","midi":67,"time":761.9375000000017,"velocity":0.8031496062992126,"duration":0.23177083333337123},{"name":"F4","midi":65,"time":762.1718750000017,"velocity":0.8031496062992126,"duration":0.23177083333337123},{"name":"D3","midi":50,"time":762.1718750000017,"velocity":0.8031496062992126,"duration":0.46614583333337123},{"name":"E4","midi":64,"time":762.4062500000017,"velocity":0.8031496062992126,"duration":0.23177083333337123},{"name":"F4","midi":65,"time":762.6406250000017,"velocity":0.8031496062992126,"duration":0.23177083333337123},{"name":"A#2","midi":46,"time":762.6406250000017,"velocity":0.8031496062992126,"duration":0.46614583333337123},{"name":"D5","midi":74,"time":762.8750000000017,"velocity":0.8031496062992126,"duration":0.23177083333337123},{"name":"C#5","midi":73,"time":763.1093750000017,"velocity":0.8031496062992126,"duration":0.23177083333337123},{"name":"G2","midi":43,"time":763.1093750000017,"velocity":0.8031496062992126,"duration":0.46614583333337123},{"name":"B4","midi":71,"time":763.3437500000017,"velocity":0.8031496062992126,"duration":0.23177083333337123},{"name":"A4","midi":69,"time":763.5781250000017,"velocity":0.8031496062992126,"duration":0.23177083333337123},{"name":"A2","midi":45,"time":763.5781250000017,"velocity":0.8031496062992126,"duration":0.46614583333337123},{"name":"G4","midi":67,"time":763.8125000000017,"velocity":0.8031496062992126,"duration":0.23177083333337123},{"name":"F4","midi":65,"time":764.0468750000017,"velocity":0.8031496062992126,"duration":0.23177083333337123},{"name":"D2","midi":38,"time":764.0468750000017,"velocity":0.8031496062992126,"duration":0.9361979166667425},{"name":"G4","midi":67,"time":764.2812500000017,"velocity":0.8031496062992126,"duration":0.23177083333337123},{"name":"A4","midi":69,"time":764.5156250000017,"velocity":0.8031496062992126,"duration":0.23177083333337123},{"name":"G4","midi":67,"time":764.7500000000017,"velocity":0.8031496062992126,"duration":0.23177083333337123},{"name":"F4","midi":65,"time":764.9843750000018,"velocity":0.8031496062992126,"duration":0.23177083333337123},{"name":"E4","midi":64,"time":765.2187500000018,"velocity":0.8031496062992126,"duration":0.23177083333337123},{"name":"D4","midi":62,"time":765.4531250000018,"velocity":0.8031496062992126,"duration":0.23177083333337123},{"name":"D3","midi":50,"time":765.4531250000018,"velocity":0.8031496062992126,"duration":0.23177083333337123},{"name":"C4","midi":60,"time":765.6875000000018,"velocity":0.8031496062992126,"duration":0.23177083333337123},{"name":"E3","midi":52,"time":765.6875000000018,"velocity":0.8031496062992126,"duration":0.23177083333337123},{"name":"B3","midi":59,"time":765.9218750000018,"velocity":0.8031496062992126,"duration":0.46614583333337123},{"name":"F3","midi":53,"time":765.9218750000018,"velocity":0.8031496062992126,"duration":0.23177083333337123},{"name":"E3","midi":52,"time":766.1562500000018,"velocity":0.8031496062992126,"duration":0.23177083333337123},{"name":"B3","midi":59,"time":766.3906250000018,"velocity":0.8031496062992126,"duration":0.23177083333337123},{"name":"D3","midi":50,"time":766.3906250000018,"velocity":0.8031496062992126,"duration":0.23177083333337123},{"name":"A3","midi":57,"time":766.6250000000018,"velocity":0.8031496062992126,"duration":0.23177083333337123},{"name":"E3","midi":52,"time":766.6250000000018,"velocity":0.8031496062992126,"duration":0.23177083333337123},{"name":"B3","midi":59,"time":766.8593750000018,"velocity":0.8031496062992126,"duration":0.46614583333337123},{"name":"F3","midi":53,"time":766.8593750000018,"velocity":0.8031496062992126,"duration":0.23177083333337123},{"name":"E3","midi":52,"time":767.0937500000018,"velocity":0.8031496062992126,"duration":0.23177083333337123},{"name":"B3","midi":59,"time":767.3281250000018,"velocity":0.8031496062992126,"duration":0.23177083333337123},{"name":"D3","midi":50,"time":767.3281250000018,"velocity":0.8031496062992126,"duration":0.23177083333337123},{"name":"C4","midi":60,"time":767.5625000000018,"velocity":0.8031496062992126,"duration":0.23177083333337123},{"name":"E3","midi":52,"time":767.5625000000018,"velocity":0.8031496062992126,"duration":0.23177083333337123},{"name":"D4","midi":62,"time":767.7968750000018,"velocity":0.8031496062992126,"duration":0.23177083333337123},{"name":"F3","midi":53,"time":767.7968750000018,"velocity":0.8031496062992126,"duration":0.23177083333337123},{"name":"F4","midi":65,"time":768.0312500000018,"velocity":0.8031496062992126,"duration":0.23177083333337123},{"name":"E3","midi":52,"time":768.0312500000018,"velocity":0.8031496062992126,"duration":0.23177083333337123},{"name":"A4","midi":69,"time":768.2656250000018,"velocity":0.8031496062992126,"duration":0.9348958333333712},{"name":"D3","midi":50,"time":768.2656250000018,"velocity":0.8031496062992126,"duration":0.23177083333337123},{"name":"E3","midi":52,"time":768.5000000000018,"velocity":0.8031496062992126,"duration":0.23177083333337123},{"name":"F3","midi":53,"time":768.7343750000018,"velocity":0.8031496062992126,"duration":0.23177083333337123},{"name":"G3","midi":55,"time":768.9687500000018,"velocity":0.8031496062992126,"duration":0.23177083333337123},{"name":"G4","midi":67,"time":769.2031250000018,"velocity":0.8031496062992126,"duration":0.23177083333337123},{"name":"A3","midi":57,"time":769.2031250000018,"velocity":0.8031496062992126,"duration":0.23177083333337123},{"name":"F4","midi":65,"time":769.4375000000018,"velocity":0.8031496062992126,"duration":0.23177083333337123},{"name":"B3","midi":59,"time":769.4375000000018,"velocity":0.8031496062992126,"duration":0.23177083333337123},{"name":"E4","midi":64,"time":769.6718750000018,"velocity":0.8031496062992126,"duration":0.23177083333337123},{"name":"C4","midi":60,"time":769.6718750000018,"velocity":0.8031496062992126,"duration":0.46614583333337123},{"name":"D4","midi":62,"time":769.9062500000018,"velocity":0.8031496062992126,"duration":0.23177083333337123},{"name":"E4","midi":64,"time":770.1406250000018,"velocity":0.8031496062992126,"duration":0.23177083333337123},{"name":"A3","midi":57,"time":770.1406250000018,"velocity":0.8031496062992126,"duration":0.46614583333337123},{"name":"C5","midi":72,"time":770.3750000000018,"velocity":0.8031496062992126,"duration":0.23177083333337123},{"name":"B4","midi":71,"time":770.6093750000018,"velocity":0.8031496062992126,"duration":0.23177083333337123},{"name":"F3","midi":53,"time":770.6093750000018,"velocity":0.8031496062992126,"duration":0.46614583333337123},{"name":"A4","midi":69,"time":770.8437500000018,"velocity":0.8031496062992126,"duration":0.23177083333337123},{"name":"G4","midi":67,"time":771.0781250000018,"velocity":0.8031496062992126,"duration":0.23177083333337123},{"name":"G3","midi":55,"time":771.0781250000018,"velocity":0.8031496062992126,"duration":0.46614583333337123},{"name":"F4","midi":65,"time":771.3125000000018,"velocity":0.8031496062992126,"duration":0.23177083333337123},{"name":"E4","midi":64,"time":771.5468750000018,"velocity":0.8031496062992126,"duration":0.23177083333337123},{"name":"C3","midi":48,"time":771.5468750000018,"velocity":0.8031496062992126,"duration":0.8059895833333712},{"name":"F4","midi":65,"time":771.7812500000018,"velocity":0.8031496062992126,"duration":0.23177083333337123},{"name":"G4","midi":67,"time":772.0156250000018,"velocity":0.8031496062992126,"duration":0.23177083333337123},{"name":"F4","midi":65,"time":772.2500000000018,"velocity":0.8031496062992126,"duration":0.23177083333337123},{"name":"E4","midi":64,"time":772.4843750000018,"velocity":0.8031496062992126,"duration":0.23177083333337123},{"name":"D4","midi":62,"time":772.7187500000018,"velocity":0.8031496062992126,"duration":0.23177083333337123},{"name":"F3","midi":53,"time":772.7187500000018,"velocity":0.8031496062992126,"duration":0.23177083333337123},{"name":"C4","midi":60,"time":772.9531250000018,"velocity":0.8031496062992126,"duration":0.23177083333337123},{"name":"E3","midi":52,"time":772.9531250000018,"velocity":0.8031496062992126,"duration":0.23177083333337123},{"name":"B3","midi":59,"time":773.1875000000018,"velocity":0.8031496062992126,"duration":0.23177083333337123},{"name":"D3","midi":50,"time":773.1875000000018,"velocity":0.8031496062992126,"duration":0.23177083333337123},{"name":"A3","midi":57,"time":773.4218750000018,"velocity":0.8031496062992126,"duration":0.23177083333337123},{"name":"C3","midi":48,"time":773.4218750000018,"velocity":0.8031496062992126,"duration":0.23177083333337123},{"name":"G4","midi":67,"time":773.6562500000018,"velocity":0.8031496062992126,"duration":0.23177083333337123},{"name":"B2","midi":47,"time":773.6562500000018,"velocity":0.8031496062992126,"duration":0.23177083333337123},{"name":"F4","midi":65,"time":773.8906250000018,"velocity":0.8031496062992126,"duration":0.23177083333337123},{"name":"C3","midi":48,"time":773.8906250000018,"velocity":0.8031496062992126,"duration":0.6588541666666288},{"name":"E4","midi":64,"time":774.1250000000018,"velocity":0.8031496062992126,"duration":0.23177083333337123},{"name":"F4","midi":65,"time":774.3593750000018,"velocity":0.8031496062992126,"duration":0.46614583333337123},{"name":"E3","midi":52,"time":774.5937500000018,"velocity":0.8031496062992126,"duration":0.23177083333337123},{"name":"A3","midi":57,"time":774.8281250000018,"velocity":0.8031496062992126,"duration":0.46614583333337123},{"name":"D3","midi":50,"time":774.8281250000018,"velocity":0.8031496062992126,"duration":0.23177083333337123},{"name":"C3","midi":48,"time":775.0625000000018,"velocity":0.8031496062992126,"duration":0.23177083333337123},{"name":"G#3","midi":56,"time":775.2968750000018,"velocity":0.8031496062992126,"duration":0.23177083333337123},{"name":"B2","midi":47,"time":775.2968750000018,"velocity":0.8031496062992126,"duration":0.23177083333337123},{"name":"F#3","midi":54,"time":775.5312500000018,"velocity":0.8031496062992126,"duration":0.23177083333337123},{"name":"A2","midi":45,"time":775.5312500000018,"velocity":0.8031496062992126,"duration":0.23177083333337123},{"name":"G#3","midi":56,"time":775.7656250000018,"velocity":0.8031496062992126,"duration":0.23177083333337123},{"name":"B2","midi":47,"time":775.7656250000018,"velocity":0.8031496062992126,"duration":0.6588541666666288},{"name":"F4","midi":65,"time":776.0000000000018,"velocity":0.8031496062992126,"duration":0.23177083333337123},{"name":"E4","midi":64,"time":776.2343750000018,"velocity":0.8031496062992126,"duration":0.46614583333337123},{"name":"D3","midi":50,"time":776.4687500000018,"velocity":0.8031496062992126,"duration":0.23177083333337123},{"name":"G3","midi":55,"time":776.7031250000018,"velocity":0.8031496062992126,"duration":0.46614583333337123},{"name":"C3","midi":48,"time":776.7031250000018,"velocity":0.8031496062992126,"duration":0.23177083333337123},{"name":"B2","midi":47,"time":776.9375000000018,"velocity":0.8031496062992126,"duration":0.23177083333337123},{"name":"F#3","midi":54,"time":777.1718750000018,"velocity":0.8031496062992126,"duration":0.23177083333337123},{"name":"A2","midi":45,"time":777.1718750000018,"velocity":0.8031496062992126,"duration":0.23177083333337123},{"name":"E3","midi":52,"time":777.4062500000018,"velocity":0.8031496062992126,"duration":0.23177083333337123},{"name":"G#2","midi":44,"time":777.4062500000018,"velocity":0.8031496062992126,"duration":0.23177083333337123},{"name":"F3","midi":53,"time":777.6406250000018,"velocity":0.8031496062992126,"duration":0.23177083333337123},{"name":"A2","midi":45,"time":777.6406250000018,"velocity":0.8031496062992126,"duration":0.6848958333333712},{"name":"E4","midi":64,"time":777.8750000000018,"velocity":0.8031496062992126,"duration":0.23177083333337123},{"name":"D4","midi":62,"time":778.1093750000018,"velocity":0.8031496062992126,"duration":0.23177083333337123},{"name":"C4","midi":60,"time":778.3437500000018,"velocity":0.8031496062992126,"duration":0.23177083333337123},{"name":"B2","midi":47,"time":778.3437500000018,"velocity":0.8031496062992126,"duration":0.23177083333337123},{"name":"B3","midi":59,"time":778.5781250000018,"velocity":0.8031496062992126,"duration":0.23177083333337123},{"name":"C3","midi":48,"time":778.5781250000018,"velocity":0.8031496062992126,"duration":0.23177083333337123},{"name":"A3","midi":57,"time":778.8125000000018,"velocity":0.8031496062992126,"duration":0.23177083333337123},{"name":"D3","midi":50,"time":778.8125000000018,"velocity":0.8031496062992126,"duration":0.23177083333337123},{"name":"A4","midi":69,"time":779.0468750000018,"velocity":0.8031496062992126,"duration":0.23177083333337123},{"name":"E3","midi":52,"time":779.0468750000018,"velocity":0.8031496062992126,"duration":0.23177083333337123},{"name":"G#4","midi":68,"time":779.2812500000018,"velocity":0.8031496062992126,"duration":0.23177083333337123},{"name":"D#3","midi":51,"time":779.2812500000018,"velocity":0.8031496062992126,"duration":0.23177083333337123},{"name":"F#4","midi":66,"time":779.5156250000018,"velocity":0.8031496062992126,"duration":0.23177083333337123},{"name":"E3","midi":52,"time":779.5156250000018,"velocity":0.8031496062992126,"duration":0.7005208333333712},{"name":"E4","midi":64,"time":779.7500000000018,"velocity":0.8031496062992126,"duration":0.23177083333337123},{"name":"B4","midi":71,"time":779.9843750000018,"velocity":0.8031496062992126,"duration":0.46614583333337123},{"name":"D3","midi":50,"time":780.2187500000018,"velocity":0.8031496062992126,"duration":0.23177083333337123},{"name":"E4","midi":64,"time":780.4531250000018,"velocity":0.8031496062992126,"duration":0.23177083333337123},{"name":"C3","midi":48,"time":780.4531250000018,"velocity":0.8031496062992126,"duration":0.23177083333337123},{"name":"D4","midi":62,"time":780.6875000000018,"velocity":0.8031496062992126,"duration":0.23177083333337123},{"name":"B2","midi":47,"time":780.6875000000018,"velocity":0.8031496062992126,"duration":0.23177083333337123},{"name":"E4","midi":64,"time":780.9218750000018,"velocity":0.8031496062992126,"duration":0.46614583333337123},{"name":"A2","midi":45,"time":780.9218750000018,"velocity":0.8031496062992126,"duration":0.23177083333337123},{"name":"G#2","midi":44,"time":781.1562500000018,"velocity":0.8031496062992126,"duration":0.23177083333337123},{"name":"D5","midi":74,"time":781.3906250000018,"velocity":0.8031496062992126,"duration":0.46614583333337123},{"name":"F#2","midi":42,"time":781.3906250000018,"velocity":0.8031496062992126,"duration":0.23177083333337123},{"name":"G#2","midi":44,"time":781.6250000000018,"velocity":0.8031496062992126,"duration":0.23177083333337123},{"name":"C5","midi":72,"time":781.8593750000018,"velocity":0.8031496062992126,"duration":0.46614583333337123},{"name":"A2","midi":45,"time":781.8593750000018,"velocity":0.8031496062992126,"duration":0.23177083333337123},{"name":"G#2","midi":44,"time":782.0937500000018,"velocity":0.8031496062992126,"duration":0.23177083333337123},{"name":"B4","midi":71,"time":782.3281250000018,"velocity":0.8031496062992126,"duration":0.46614583333337123},{"name":"F#2","midi":42,"time":782.3281250000018,"velocity":0.8031496062992126,"duration":0.23177083333337123},{"name":"G#2","midi":44,"time":782.5625000000018,"velocity":0.8031496062992126,"duration":0.23177083333337123},{"name":"C5","midi":72,"time":782.7968750000018,"velocity":0.8031496062992126,"duration":0.46614583333337123},{"name":"A2","midi":45,"time":782.7968750000018,"velocity":0.8031496062992126,"duration":0.23177083333337123},{"name":"B2","midi":47,"time":783.0312500000018,"velocity":0.8031496062992126,"duration":0.23177083333337123},{"name":"E4","midi":64,"time":783.2656250000018,"velocity":0.8031496062992126,"duration":0.8059895833333712},{"name":"C3","midi":48,"time":783.2656250000018,"velocity":0.8031496062992126,"duration":0.23177083333337123},{"name":"D3","midi":50,"time":783.5000000000018,"velocity":0.8031496062992126,"duration":0.23177083333337123},{"name":"E3","midi":52,"time":783.7343750000018,"velocity":0.8031496062992126,"duration":0.23177083333337123},{"name":"F#3","midi":54,"time":783.9687500000018,"velocity":0.8031496062992126,"duration":0.23177083333337123},{"name":"D4","midi":62,"time":784.2031250000018,"velocity":0.8031496062992126,"duration":0.23177083333337123},{"name":"G#3","midi":56,"time":784.2031250000018,"velocity":0.8031496062992126,"duration":0.23177083333337123},{"name":"C4","midi":60,"time":784.4375000000018,"velocity":0.8031496062992126,"duration":0.23177083333337123},{"name":"A3","midi":57,"time":784.4375000000018,"velocity":0.8031496062992126,"duration":0.23177083333337123},{"name":"D4","midi":62,"time":784.6718750000018,"velocity":0.8031496062992126,"duration":0.46614583333337123},{"name":"G#3","midi":56,"time":784.6718750000018,"velocity":0.8031496062992126,"duration":0.23177083333337123},{"name":"A3","midi":57,"time":784.9062500000018,"velocity":0.8031496062992126,"duration":0.23177083333337123},{"name":"C5","midi":72,"time":785.1406250000018,"velocity":0.8031496062992126,"duration":0.46614583333337123},{"name":"B3","midi":59,"time":785.1406250000018,"velocity":0.8031496062992126,"duration":0.23177083333337123},{"name":"A3","midi":57,"time":785.3750000000018,"velocity":0.8031496062992126,"duration":0.23177083333337123},{"name":"B4","midi":71,"time":785.6093750000018,"velocity":0.8031496062992126,"duration":0.23177083333337123},{"name":"G#3","midi":56,"time":785.6093750000018,"velocity":0.8031496062992126,"duration":0.23177083333337123},{"name":"A4","midi":69,"time":785.8437500000018,"velocity":0.8031496062992126,"duration":0.23177083333337123},{"name":"A3","midi":57,"time":785.8437500000018,"velocity":0.8031496062992126,"duration":0.23177083333337123},{"name":"G#4","midi":68,"time":786.0781250000018,"velocity":0.8031496062992126,"duration":0.23177083333337123},{"name":"B3","midi":59,"time":786.0781250000018,"velocity":0.8031496062992126,"duration":0.23177083333337123},{"name":"A4","midi":69,"time":786.3125000000018,"velocity":0.8031496062992126,"duration":0.23177083333337123},{"name":"A3","midi":57,"time":786.3125000000018,"velocity":0.8031496062992126,"duration":0.23177083333337123},{"name":"B4","midi":71,"time":786.5468750000018,"velocity":0.8031496062992126,"duration":0.41666666666662877},{"name":"G#3","midi":56,"time":786.5468750000018,"velocity":0.8031496062992126,"duration":0.23177083333337123},{"name":"F#3","midi":54,"time":786.7812500000018,"velocity":0.8031496062992126,"duration":0.23177083333325754},{"name":"D4","midi":62,"time":787.0156250000017,"velocity":0.8031496062992126,"duration":0.8059895833333712},{"name":"E3","midi":52,"time":787.0156250000017,"velocity":0.8031496062992126,"duration":0.23177083333337123},{"name":"D3","midi":50,"time":787.2500000000017,"velocity":0.8031496062992126,"duration":0.23177083333337123},{"name":"C3","midi":48,"time":787.4843750000017,"velocity":0.8031496062992126,"duration":0.23177083333337123},{"name":"B2","midi":47,"time":787.7187500000017,"velocity":0.8031496062992126,"duration":0.23177083333337123},{"name":"C4","midi":60,"time":787.9531250000017,"velocity":0.8031496062992126,"duration":0.23177083333337123},{"name":"A2","midi":45,"time":787.9531250000017,"velocity":0.8031496062992126,"duration":0.23177083333337123},{"name":"B3","midi":59,"time":788.1875000000017,"velocity":0.8031496062992126,"duration":0.234375},{"name":"G#2","midi":44,"time":788.1875000000017,"velocity":0.8031496062992126,"duration":0.234375},{"name":"C4","midi":60,"time":788.4244791666683,"velocity":0.8031496062992126,"duration":0.234375},{"name":"A2","midi":45,"time":788.4244791666683,"velocity":0.8031496062992126,"duration":0.47135416666662877},{"name":"A4","midi":69,"time":788.661458333335,"velocity":0.8031496062992126,"duration":0.234375},{"name":"G4","midi":67,"time":788.8984375000016,"velocity":0.8031496062992126,"duration":0.234375},{"name":"C3","midi":48,"time":788.8984375000016,"velocity":0.8031496062992126,"duration":0.47135416666662877},{"name":"E4","midi":64,"time":789.1354166666682,"velocity":0.8031496062992126,"duration":0.234375},{"name":"F4","midi":65,"time":789.3723958333348,"velocity":0.8031496062992126,"duration":0.234375},{"name":"B2","midi":47,"time":789.3723958333348,"velocity":0.8031496062992126,"duration":0.47135416666662877},{"name":"E4","midi":64,"time":789.6093750000015,"velocity":0.8031496062992126,"duration":0.234375},{"name":"D4","midi":62,"time":789.8463541666681,"velocity":0.8031496062992126,"duration":0.234375},{"name":"A2","midi":45,"time":789.8463541666681,"velocity":0.8031496062992126,"duration":0.47265625},{"name":"C4","midi":60,"time":790.0833333333347,"velocity":0.8031496062992126,"duration":0.23567708333337123},{"name":"B3","midi":59,"time":790.3216145833347,"velocity":0.8031496062992126,"duration":0.23567708333337123},{"name":"G#2","midi":44,"time":790.3216145833347,"velocity":0.8031496062992126,"duration":0.47395833333337123},{"name":"F4","midi":65,"time":790.5598958333347,"velocity":0.8031496062992126,"duration":0.23567708333337123},{"name":"E4","midi":64,"time":790.7981770833347,"velocity":0.8031496062992126,"duration":0.23567708333337123},{"name":"A2","midi":45,"time":790.7981770833347,"velocity":0.8031496062992126,"duration":0.47395833333337123},{"name":"C4","midi":60,"time":791.0364583333347,"velocity":0.8031496062992126,"duration":0.23567708333337123},{"name":"D4","midi":62,"time":791.2747395833347,"velocity":0.8031496062992126,"duration":0.23567708333337123},{"name":"F2","midi":41,"time":791.2747395833347,"velocity":0.8031496062992126,"duration":0.47395833333337123},{"name":"C4","midi":60,"time":791.5130208333347,"velocity":0.8031496062992126,"duration":0.23567708333337123},{"name":"B3","midi":59,"time":791.7513020833347,"velocity":0.8031496062992126,"duration":0.23567708333337123},{"name":"D2","midi":38,"time":791.7513020833347,"velocity":0.8031496062992126,"duration":0.47786458333337123},{"name":"A3","midi":57,"time":791.9895833333347,"velocity":0.8031496062992126,"duration":0.23958333333337123},{"name":"G#3","midi":56,"time":792.2317708333347,"velocity":0.8031496062992126,"duration":0.23958333333337123},{"name":"E2","midi":40,"time":792.2317708333347,"velocity":0.8031496062992126,"duration":0.48177083333337123},{"name":"D4","midi":62,"time":792.4739583333347,"velocity":0.8031496062992126,"duration":0.23958333333337123},{"name":"C4","midi":60,"time":792.7161458333347,"velocity":0.8031496062992126,"duration":0.23958333333337123},{"name":"A2","midi":45,"time":792.7161458333347,"velocity":0.8031496062992126,"duration":0.48567708333337123},{"name":"A3","midi":57,"time":792.9583333333347,"velocity":0.8031496062992126,"duration":0.24348958333337123},{"name":"C4","midi":60,"time":793.2044270833347,"velocity":0.8031496062992126,"duration":0.24348958333337123},{"name":"E3","midi":52,"time":793.2044270833347,"velocity":0.8031496062992126,"duration":0.48958333333337123},{"name":"B3","midi":59,"time":793.4505208333347,"velocity":0.8031496062992126,"duration":0.24348958333337123},{"name":"A3","midi":57,"time":793.6966145833347,"velocity":0.8031496062992126,"duration":0.24348958333337123},{"name":"E2","midi":40,"time":793.6966145833347,"velocity":0.8031496062992126,"duration":0.5286458333333712},{"name":"G#3","midi":56,"time":793.9427083333347,"velocity":0.8031496062992126,"duration":0.28255208333337123},{"name":"A3","midi":57,"time":794.2278645833347,"velocity":0.8031496062992126,"duration":3.90625},{"name":"A1","midi":33,"time":794.2278645833347,"velocity":0.8031496062992126,"duration":3.90625},{"name":"E2","midi":40,"time":794.8710937500014,"velocity":0.8031496062992126,"duration":0.625},{"name":"A2","midi":45,"time":795.5286458333347,"velocity":0.8031496062992126,"duration":2.6184895833333712},{"name":"E5","midi":76,"time":800.1184895833347,"velocity":0.8031496062992126,"duration":0.33723958333337123},{"name":"A5","midi":81,"time":800.5833333333347,"velocity":0.8031496062992126,"duration":0.45052083333337123},{"name":"G#5","midi":80,"time":801.0481770833347,"velocity":0.8031496062992126,"duration":0.21744791666662877},{"name":"F#5","midi":78,"time":801.279947916668,"velocity":0.8031496062992126,"duration":0.21744791666662877},{"name":"E4","midi":64,"time":801.5117187500013,"velocity":0.8031496062992126,"duration":0.39973958333325754},{"name":"E5","midi":76,"time":801.5117187500013,"velocity":0.8031496062992126,"duration":0.21744791666662877},{"name":"D5","midi":74,"time":801.7447916666679,"velocity":0.8031496062992126,"duration":0.21744791666662877},{"name":"A4","midi":69,"time":801.9765625000011,"velocity":0.8031496062992126,"duration":0.4492187499998863},{"name":"C#5","midi":73,"time":801.9765625000011,"velocity":0.8031496062992126,"duration":0.21744791666662877},{"name":"D5","midi":74,"time":802.2083333333344,"velocity":0.8031496062992126,"duration":0.20572916666662877},{"name":"G#4","midi":68,"time":802.4401041666677,"velocity":0.8031496062992126,"duration":0.21875},{"name":"E5","midi":76,"time":802.4401041666677,"velocity":0.8031496062992126,"duration":0.1015625},{"name":"D5","midi":74,"time":802.5572916666677,"velocity":0.8031496062992126,"duration":0.1015625},{"name":"F#4","midi":66,"time":802.6731770833343,"velocity":0.8031496062992126,"duration":0.21875},{"name":"E5","midi":76,"time":802.6731770833343,"velocity":0.8031496062992126,"duration":0.1015625},{"name":"D5","midi":74,"time":802.7903645833343,"velocity":0.8031496062992126,"duration":0.1015625},{"name":"E4","midi":64,"time":802.9075520833343,"velocity":0.8031496062992126,"duration":0.21875},{"name":"E5","midi":76,"time":802.9075520833343,"velocity":0.8031496062992126,"duration":0.1015625},{"name":"D5","midi":74,"time":803.0234375000009,"velocity":0.8031496062992126,"duration":0.1015625},{"name":"D4","midi":62,"time":803.1406250000009,"velocity":0.8031496062992126,"duration":0.21875},{"name":"C#5","midi":73,"time":803.1406250000009,"velocity":0.8031496062992126,"duration":0.1015625},{"name":"D5","midi":74,"time":803.2565104166675,"velocity":0.8031496062992126,"duration":0.1015625},{"name":"C#4","midi":61,"time":803.3723958333343,"velocity":0.8031496062992126,"duration":0.21744791666662877},{"name":"E5","midi":76,"time":803.3723958333343,"velocity":0.8031496062992126,"duration":0.4492187499998863},{"name":"D4","midi":62,"time":803.6054687500009,"velocity":0.8031496062992126,"duration":0.20572916666662877},{"name":"E4","midi":64,"time":803.8372395833342,"velocity":0.8031496062992126,"duration":0.1015625},{"name":"D5","midi":74,"time":803.8372395833342,"velocity":0.8031496062992126,"duration":0.21875},{"name":"D4","midi":62,"time":803.9544270833342,"velocity":0.8031496062992126,"duration":0.1015625},{"name":"E4","midi":64,"time":804.0716145833342,"velocity":0.8031496062992126,"duration":0.1015625},{"name":"C#5","midi":73,"time":804.0716145833342,"velocity":0.8031496062992126,"duration":0.21875},{"name":"D4","midi":62,"time":804.1875000000008,"velocity":0.8031496062992126,"duration":0.1015625},{"name":"E4","midi":64,"time":804.3033854166675,"velocity":0.8031496062992126,"duration":0.1015625},{"name":"B4","midi":71,"time":804.3033854166675,"velocity":0.8031496062992126,"duration":0.21875},{"name":"D4","midi":62,"time":804.4205729166675,"velocity":0.8031496062992126,"duration":0.1015625},{"name":"C#4","midi":61,"time":804.5364583333342,"velocity":0.8031496062992126,"duration":0.1015625},{"name":"A4","midi":69,"time":804.5364583333342,"velocity":0.8031496062992126,"duration":0.21875},{"name":"D4","midi":62,"time":804.6536458333342,"velocity":0.8031496062992126,"duration":0.1015625},{"name":"E4","midi":64,"time":804.7708333333342,"velocity":0.8031496062992126,"duration":0.4492187499998863},{"name":"G#4","midi":68,"time":804.7708333333342,"velocity":0.8031496062992126,"duration":0.21744791666662877},{"name":"A4","midi":69,"time":805.0026041666674,"velocity":0.8031496062992126,"duration":0.20572916666662877},{"name":"D4","midi":62,"time":805.2343750000007,"velocity":0.8031496062992126,"duration":0.21875},{"name":"B4","midi":71,"time":805.2343750000007,"velocity":0.8031496062992126,"duration":0.1015625},{"name":"A4","midi":69,"time":805.3502604166673,"velocity":0.8031496062992126,"duration":0.1015625},{"name":"C#4","midi":61,"time":805.4674479166673,"velocity":0.8031496062992126,"duration":0.21875},{"name":"B4","midi":71,"time":805.4674479166673,"velocity":0.8031496062992126,"duration":0.1015625},{"name":"A4","midi":69,"time":805.5833333333339,"velocity":0.8031496062992126,"duration":0.1015625},{"name":"B3","midi":59,"time":805.7005208333339,"velocity":0.8031496062992126,"duration":0.21875},{"name":"B4","midi":71,"time":805.7005208333339,"velocity":0.8031496062992126,"duration":0.1015625},{"name":"A4","midi":69,"time":805.8177083333339,"velocity":0.8031496062992126,"duration":0.1015625},{"name":"A3","midi":57,"time":805.9335937500006,"velocity":0.8031496062992126,"duration":0.21875},{"name":"G#4","midi":68,"time":805.9335937500006,"velocity":0.8031496062992126,"duration":0.1015625},{"name":"A4","midi":69,"time":806.0507812500006,"velocity":0.8031496062992126,"duration":0.1015625},{"name":"G#3","midi":56,"time":806.1679687500006,"velocity":0.8031496062992126,"duration":0.22916666666662877},{"name":"B4","midi":71,"time":806.1679687500006,"velocity":0.8031496062992126,"duration":0.22916666666662877},{"name":"A3","midi":57,"time":806.4114583333338,"velocity":0.8031496062992126,"duration":0.20703125},{"name":"C#5","midi":73,"time":806.4114583333338,"velocity":0.8031496062992126,"duration":0.20703125},{"name":"B3","midi":59,"time":806.6328125000005,"velocity":0.8031496062992126,"duration":0.1015625},{"name":"D5","midi":74,"time":806.6328125000005,"velocity":0.8031496062992126,"duration":0.1015625},{"name":"A3","midi":57,"time":806.7486979166671,"velocity":0.8031496062992126,"duration":0.1015625},{"name":"C#5","midi":73,"time":806.7486979166671,"velocity":0.8031496062992126,"duration":0.1015625},{"name":"B3","midi":59,"time":806.8658854166671,"velocity":0.8031496062992126,"duration":0.1015625},{"name":"D5","midi":74,"time":806.8658854166671,"velocity":0.8031496062992126,"duration":0.1015625},{"name":"A3","midi":57,"time":806.9830729166671,"velocity":0.8031496062992126,"duration":0.1015625},{"name":"C#5","midi":73,"time":806.9830729166671,"velocity":0.8031496062992126,"duration":0.1015625},{"name":"B3","midi":59,"time":807.0989583333337,"velocity":0.8031496062992126,"duration":0.1015625},{"name":"D5","midi":74,"time":807.0989583333337,"velocity":0.8031496062992126,"duration":0.1015625},{"name":"A3","midi":57,"time":807.2161458333337,"velocity":0.8031496062992126,"duration":0.1015625},{"name":"C#5","midi":73,"time":807.2161458333337,"velocity":0.8031496062992126,"duration":0.1015625},{"name":"G#3","midi":56,"time":807.3320312500003,"velocity":0.8031496062992126,"duration":0.1015625},{"name":"B4","midi":71,"time":807.3320312500003,"velocity":0.8031496062992126,"duration":0.1015625},{"name":"A3","midi":57,"time":807.447916666667,"velocity":0.8031496062992126,"duration":0.1015625},{"name":"C#5","midi":73,"time":807.447916666667,"velocity":0.8031496062992126,"duration":0.1015625},{"name":"B3","midi":59,"time":807.565104166667,"velocity":0.8031496062992126,"duration":0.21744791666662877},{"name":"D5","midi":74,"time":807.565104166667,"velocity":0.8031496062992126,"duration":0.6822916666665151},{"name":"A3","midi":57,"time":807.7968750000002,"velocity":0.8031496062992126,"duration":0.21744791666662877},{"name":"G#3","midi":56,"time":808.0299479166669,"velocity":0.8031496062992126,"duration":0.21744791666662877},{"name":"E3","midi":52,"time":808.2617187500001,"velocity":0.8031496062992126,"duration":0.21744791666662877},{"name":"E5","midi":76,"time":808.2617187500001,"velocity":0.8031496062992126,"duration":0.21744791666662877},{"name":"A3","midi":57,"time":808.4934895833334,"velocity":0.8031496062992126,"duration":0.21744791666662877},{"name":"D5","midi":74,"time":808.4934895833334,"velocity":0.8031496062992126,"duration":0.21744791666662877},{"name":"G#3","midi":56,"time":808.7252604166666,"velocity":0.8031496062992126,"duration":0.21744791666662877},{"name":"C#5","midi":73,"time":808.7252604166666,"velocity":0.8031496062992126,"duration":0.44791666666662877},{"name":"F#3","midi":54,"time":808.9583333333333,"velocity":0.8031496062992126,"duration":0.21744791666662877},{"name":"D3","midi":50,"time":809.1901041666665,"velocity":0.8031496062992126,"duration":0.21744791666662877},{"name":"D5","midi":74,"time":809.1901041666665,"velocity":0.8031496062992126,"duration":0.21744791666662877},{"name":"E3","midi":52,"time":809.4205729166665,"velocity":0.8031496062992126,"duration":0.4492187500001137},{"name":"C#5","midi":73,"time":809.4205729166665,"velocity":0.8031496062992126,"duration":0.23046875},{"name":"B4","midi":71,"time":809.6640624999999,"velocity":0.8031496062992126,"duration":0.07552083333337123},{"name":"C#5","midi":73,"time":809.7395833333333,"velocity":0.8031496062992126,"duration":0.07552083333337123},{"name":"B4","midi":71,"time":809.8138020833333,"velocity":0.8031496062992126,"duration":0.31510416666662877},{"name":"E2","midi":40,"time":809.8854166666666,"velocity":0.8031496062992126,"duration":0.21744791666662877},{"name":"E3","midi":52,"time":810.1184895833333,"velocity":0.8031496062992126,"duration":0.21744791666662877},{"name":"E5","midi":76,"time":810.1184895833333,"velocity":0.8031496062992126,"duration":0.21744791666662877},{"name":"A3","midi":57,"time":810.3489583333333,"velocity":0.8031496062992126,"duration":0.4492187499998863},{"name":"C#5","midi":73,"time":810.3489583333333,"velocity":0.8031496062992126,"duration":0.21744791666662877},{"name":"B4","midi":71,"time":810.5807291666665,"velocity":0.8031496062992126,"duration":0.21744791666662877},{"name":"G#3","midi":56,"time":810.8138020833331,"velocity":0.8031496062992126,"duration":0.21744791666662877},{"name":"A4","midi":69,"time":810.8138020833331,"velocity":0.8031496062992126,"duration":0.21744791666662877},{"name":"F#3","midi":54,"time":811.0455729166664,"velocity":0.8031496062992126,"duration":0.21744791666662877},{"name":"B4","midi":71,"time":811.0455729166664,"velocity":0.8031496062992126,"duration":0.21744791666662877},{"name":"E3","midi":52,"time":811.2773437499997,"velocity":0.8031496062992126,"duration":0.21744791666662877},{"name":"C#5","midi":73,"time":811.2773437499997,"velocity":0.8031496062992126,"duration":0.21744791666662877},{"name":"D3","midi":50,"time":811.5091145833329,"velocity":0.8031496062992126,"duration":0.21744791666662877},{"name":"D5","midi":74,"time":811.5091145833329,"velocity":0.8031496062992126,"duration":0.21744791666662877},{"name":"C#3","midi":49,"time":811.7421874999995,"velocity":0.8031496062992126,"duration":0.21744791666662877},{"name":"E5","midi":76,"time":811.7421874999995,"velocity":0.8031496062992126,"duration":0.21744791666662877},{"name":"D3","midi":50,"time":811.9739583333328,"velocity":0.8031496062992126,"duration":0.21744791666662877},{"name":"D5","midi":74,"time":811.9739583333328,"velocity":0.8031496062992126,"duration":0.21744791666662877},{"name":"E3","midi":52,"time":812.2057291666661,"velocity":0.8031496062992126,"duration":0.1015625},{"name":"C#5","midi":73,"time":812.2057291666661,"velocity":0.8031496062992126,"duration":0.21875},{"name":"D3","midi":50,"time":812.3216145833327,"velocity":0.8031496062992126,"duration":0.1015625},{"name":"E3","midi":52,"time":812.4388020833327,"velocity":0.8031496062992126,"duration":0.1015625},{"name":"D5","midi":74,"time":812.4388020833327,"velocity":0.8031496062992126,"duration":0.21875},{"name":"D3","midi":50,"time":812.5546874999993,"velocity":0.8031496062992126,"duration":0.1015625},{"name":"E3","midi":52,"time":812.6718749999993,"velocity":0.8031496062992126,"duration":0.1015625},{"name":"E5","midi":76,"time":812.6718749999993,"velocity":0.8031496062992126,"duration":0.21875},{"name":"D3","midi":50,"time":812.7890624999993,"velocity":0.8031496062992126,"duration":0.1015625},{"name":"C#3","midi":49,"time":812.904947916666,"velocity":0.8031496062992126,"duration":0.1015625},{"name":"F#5","midi":78,"time":812.904947916666,"velocity":0.8031496062992126,"duration":0.21875},{"name":"D3","midi":50,"time":813.022135416666,"velocity":0.8031496062992126,"duration":0.1015625},{"name":"E3","midi":52,"time":813.139322916666,"velocity":0.8031496062992126,"duration":0.21744791666662877},{"name":"G5","midi":79,"time":813.139322916666,"velocity":0.8031496062992126,"duration":0.21744791666662877},{"name":"A2","midi":45,"time":813.369791666666,"velocity":0.8031496062992126,"duration":0.21744791666662877},{"name":"F#5","midi":78,"time":813.369791666666,"velocity":0.8031496062992126,"duration":0.21744791666662877},{"name":"A3","midi":57,"time":813.6028645833326,"velocity":0.8031496062992126,"duration":0.21744791666662877},{"name":"E5","midi":76,"time":813.6028645833326,"velocity":0.8031496062992126,"duration":0.21744791666662877},{"name":"G3","midi":55,"time":813.8346354166658,"velocity":0.8031496062992126,"duration":0.21744791666662877},{"name":"F#5","midi":78,"time":813.8346354166658,"velocity":0.8031496062992126,"duration":0.21744791666662877},{"name":"F#3","midi":54,"time":814.0664062499991,"velocity":0.8031496062992126,"duration":0.21744791666662877},{"name":"G5","midi":79,"time":814.0664062499991,"velocity":0.8031496062992126,"duration":0.21744791666662877},{"name":"E3","midi":52,"time":814.2981770833323,"velocity":0.8031496062992126,"duration":0.20703125},{"name":"A5","midi":81,"time":814.2981770833323,"velocity":0.8031496062992126,"duration":0.20703125},{"name":"D3","midi":50,"time":814.5299479166657,"velocity":0.8031496062992126,"duration":0.21744791666662877},{"name":"F#5","midi":78,"time":814.5299479166657,"velocity":0.8031496062992126,"duration":0.21744791666662877},{"name":"E3","midi":52,"time":814.7630208333323,"velocity":0.8031496062992126,"duration":0.21744791666662877},{"name":"E5","midi":76,"time":814.7630208333323,"velocity":0.8031496062992126,"duration":0.21744791666662877},{"name":"F#3","midi":54,"time":814.9947916666656,"velocity":0.8031496062992126,"duration":0.1015625},{"name":"D5","midi":74,"time":814.9947916666656,"velocity":0.8031496062992126,"duration":0.21875},{"name":"E3","midi":52,"time":815.1119791666656,"velocity":0.8031496062992126,"duration":0.1015625},{"name":"F#3","midi":54,"time":815.2278645833322,"velocity":0.8031496062992126,"duration":0.1015625},{"name":"E5","midi":76,"time":815.2278645833322,"velocity":0.8031496062992126,"duration":0.21875},{"name":"E3","midi":52,"time":815.3437499999989,"velocity":0.8031496062992126,"duration":0.1015625},{"name":"F#3","midi":54,"time":815.4609374999989,"velocity":0.8031496062992126,"duration":0.1015625},{"name":"F#5","midi":78,"time":815.4609374999989,"velocity":0.8031496062992126,"duration":0.21875},{"name":"E3","midi":52,"time":815.5781249999989,"velocity":0.8031496062992126,"duration":0.1015625},{"name":"D3","midi":50,"time":815.6940104166655,"velocity":0.8031496062992126,"duration":0.1015625},{"name":"G#5","midi":80,"time":815.6940104166655,"velocity":0.8031496062992126,"duration":0.21875},{"name":"E3","midi":52,"time":815.8111979166655,"velocity":0.8031496062992126,"duration":0.1015625},{"name":"F#3","midi":54,"time":815.9283854166655,"velocity":0.8031496062992126,"duration":0.21744791666662877},{"name":"A5","midi":81,"time":815.9283854166655,"velocity":0.8031496062992126,"duration":0.21744791666662877},{"name":"B2","midi":47,"time":816.1601562499987,"velocity":0.8031496062992126,"duration":0.21744791666662877},{"name":"G#5","midi":80,"time":816.1601562499987,"velocity":0.8031496062992126,"duration":0.21744791666662877},{"name":"B3","midi":59,"time":816.3906249999987,"velocity":0.8031496062992126,"duration":0.21744791666662877},{"name":"F#5","midi":78,"time":816.3906249999987,"velocity":0.8031496062992126,"duration":0.21744791666662877},{"name":"A3","midi":57,"time":816.6236979166654,"velocity":0.8031496062992126,"duration":0.21744791666662877},{"name":"G#5","midi":80,"time":816.6236979166654,"velocity":0.8031496062992126,"duration":0.21744791666662877},{"name":"G#3","midi":56,"time":816.8554687499986,"velocity":0.8031496062992126,"duration":0.21744791666662877},{"name":"A5","midi":81,"time":816.8554687499986,"velocity":0.8031496062992126,"duration":0.21744791666662877},{"name":"F#3","midi":54,"time":817.0885416666653,"velocity":0.8031496062992126,"duration":0.20703125},{"name":"B5","midi":83,"time":817.0885416666653,"velocity":0.8031496062992126,"duration":0.20703125},{"name":"E3","midi":52,"time":817.3190104166653,"velocity":0.8031496062992126,"duration":0.21744791666662877},{"name":"G#5","midi":80,"time":817.3190104166653,"velocity":0.8031496062992126,"duration":0.21744791666662877},{"name":"F#3","midi":54,"time":817.5507812499985,"velocity":0.8031496062992126,"duration":0.21744791666662877},{"name":"F#5","midi":78,"time":817.5507812499985,"velocity":0.8031496062992126,"duration":0.21744791666662877},{"name":"G#3","midi":56,"time":817.7838541666652,"velocity":0.8031496062992126,"duration":0.1015625},{"name":"E5","midi":76,"time":817.7838541666652,"velocity":0.8031496062992126,"duration":0.21875},{"name":"F#3","midi":54,"time":817.9010416666652,"velocity":0.8031496062992126,"duration":0.1015625},{"name":"G#3","midi":56,"time":818.0169270833318,"velocity":0.8031496062992126,"duration":0.1015625},{"name":"F#5","midi":78,"time":818.0169270833318,"velocity":0.8031496062992126,"duration":0.21875},{"name":"F#3","midi":54,"time":818.1341145833318,"velocity":0.8031496062992126,"duration":0.1015625},{"name":"G#3","midi":56,"time":818.2499999999984,"velocity":0.8031496062992126,"duration":0.1015625},{"name":"G#5","midi":80,"time":818.2499999999984,"velocity":0.8031496062992126,"duration":0.21875},{"name":"F#3","midi":54,"time":818.365885416665,"velocity":0.8031496062992126,"duration":0.1015625},{"name":"E3","midi":52,"time":818.483072916665,"velocity":0.8031496062992126,"duration":0.1015625},{"name":"A5","midi":81,"time":818.483072916665,"velocity":0.8031496062992126,"duration":0.21875},{"name":"F#3","midi":54,"time":818.600260416665,"velocity":0.8031496062992126,"duration":0.1015625},{"name":"G#3","midi":56,"time":818.7161458333317,"velocity":0.8031496062992126,"duration":0.21744791666662877},{"name":"B5","midi":83,"time":818.7161458333317,"velocity":0.8031496062992126,"duration":0.21744791666662877},{"name":"F#3","midi":54,"time":818.9492187499983,"velocity":0.8031496062992126,"duration":0.21744791666662877},{"name":"A5","midi":81,"time":818.9492187499983,"velocity":0.8031496062992126,"duration":0.21744791666662877},{"name":"E3","midi":52,"time":819.1809895833316,"velocity":0.8031496062992126,"duration":0.21744791666662877},{"name":"G#5","midi":80,"time":819.1809895833316,"velocity":0.8031496062992126,"duration":0.21744791666662877},{"name":"F#3","midi":54,"time":819.4127604166648,"velocity":0.8031496062992126,"duration":0.21744791666662877},{"name":"F#5","midi":78,"time":819.4127604166648,"velocity":0.8031496062992126,"duration":0.21744791666662877},{"name":"G#3","midi":56,"time":819.6445312499981,"velocity":0.8031496062992126,"duration":0.21744791666662877},{"name":"E5","midi":76,"time":819.6445312499981,"velocity":0.8031496062992126,"duration":0.21744791666662877},{"name":"E3","midi":52,"time":819.8763020833313,"velocity":0.8031496062992126,"duration":0.2109375},{"name":"D5","midi":74,"time":819.8763020833313,"velocity":0.8031496062992126,"duration":0.2109375},{"name":"A3","midi":57,"time":820.109374999998,"velocity":0.8031496062992126,"duration":0.21744791666662877},{"name":"C#5","midi":73,"time":820.109374999998,"velocity":0.8031496062992126,"duration":0.21744791666662877},{"name":"B3","midi":59,"time":820.339843749998,"velocity":0.8031496062992126,"duration":0.21744791666662877},{"name":"D#5","midi":75,"time":820.339843749998,"velocity":0.8031496062992126,"duration":0.21744791666662877},{"name":"C#4","midi":61,"time":820.5729166666646,"velocity":0.8031496062992126,"duration":0.21744791666662877},{"name":"E5","midi":76,"time":820.5729166666646,"velocity":0.8031496062992126,"duration":0.21744791666662877},{"name":"B3","midi":59,"time":820.8046874999978,"velocity":0.8031496062992126,"duration":0.21744791666662877},{"name":"F#5","midi":78,"time":820.8046874999978,"velocity":0.8031496062992126,"duration":0.21744791666662877},{"name":"A3","midi":57,"time":821.0364583333311,"velocity":0.8031496062992126,"duration":0.21744791666662877},{"name":"G#5","midi":80,"time":821.0364583333311,"velocity":0.8031496062992126,"duration":0.21744791666662877},{"name":"G#3","midi":56,"time":821.2682291666644,"velocity":0.8031496062992126,"duration":0.21744791666662877},{"name":"E5","midi":76,"time":821.2682291666644,"velocity":0.8031496062992126,"duration":0.21744791666662877},{"name":"F#3","midi":54,"time":821.4999999999976,"velocity":0.8031496062992126,"duration":0.21744791666662877},{"name":"A5","midi":81,"time":821.4999999999976,"velocity":0.8031496062992126,"duration":0.21744791666662877},{"name":"G#3","midi":56,"time":821.7330729166642,"velocity":0.8031496062992126,"duration":0.21744791666662877},{"name":"G#5","midi":80,"time":821.7330729166642,"velocity":0.8031496062992126,"duration":0.21744791666662877},{"name":"A3","midi":57,"time":821.9648437499975,"velocity":0.8031496062992126,"duration":0.21744791666662877},{"name":"F#5","midi":78,"time":821.9648437499975,"velocity":0.8031496062992126,"duration":0.21744791666662877},{"name":"G#3","midi":56,"time":822.1979166666641,"velocity":0.8031496062992126,"duration":0.21744791666662877},{"name":"E5","midi":76,"time":822.1979166666641,"velocity":0.8031496062992126,"duration":0.21744791666662877},{"name":"A3","midi":57,"time":822.4283854166641,"velocity":0.8031496062992126,"duration":0.21744791666662877},{"name":"D#5","midi":75,"time":822.4283854166641,"velocity":0.8031496062992126,"duration":0.21744791666662877},{"name":"F#3","midi":54,"time":822.6601562499974,"velocity":0.8031496062992126,"duration":0.2109375},{"name":"C#5","midi":73,"time":822.6601562499974,"velocity":0.8031496062992126,"duration":0.2109375},{"name":"G#3","midi":56,"time":822.893229166664,"velocity":0.8031496062992126,"duration":0.21744791666662877},{"name":"B4","midi":71,"time":822.893229166664,"velocity":0.8031496062992126,"duration":0.21744791666662877},{"name":"A3","midi":57,"time":823.1249999999973,"velocity":0.8031496062992126,"duration":0.21744791666662877},{"name":"C#5","midi":73,"time":823.1249999999973,"velocity":0.8031496062992126,"duration":0.21744791666662877},{"name":"B3","midi":59,"time":823.3567708333305,"velocity":0.8031496062992126,"duration":0.21744791666662877},{"name":"D#5","midi":75,"time":823.3567708333305,"velocity":0.8031496062992126,"duration":0.21744791666662877},{"name":"A3","midi":57,"time":823.5885416666638,"velocity":0.8031496062992126,"duration":0.21744791666662877},{"name":"E5","midi":76,"time":823.5885416666638,"velocity":0.8031496062992126,"duration":0.21744791666662877},{"name":"G#3","midi":56,"time":823.820312499997,"velocity":0.8031496062992126,"duration":0.21744791666662877},{"name":"F#5","midi":78,"time":823.820312499997,"velocity":0.8031496062992126,"duration":0.21744791666662877},{"name":"F#3","midi":54,"time":824.0533854166637,"velocity":0.8031496062992126,"duration":0.21744791666662877},{"name":"D#5","midi":75,"time":824.0533854166637,"velocity":0.8031496062992126,"duration":0.21744791666662877},{"name":"E3","midi":52,"time":824.2838541666637,"velocity":0.8031496062992126,"duration":0.21744791666662877},{"name":"G#5","midi":80,"time":824.2838541666637,"velocity":0.8031496062992126,"duration":0.21744791666662877},{"name":"F#3","midi":54,"time":824.5169270833303,"velocity":0.8031496062992126,"duration":0.21744791666662877},{"name":"F#5","midi":78,"time":824.5169270833303,"velocity":0.8031496062992126,"duration":0.21744791666662877},{"name":"G#3","midi":56,"time":824.7486979166636,"velocity":0.8031496062992126,"duration":0.21744791666662877},{"name":"E5","midi":76,"time":824.7486979166636,"velocity":0.8031496062992126,"duration":0.21744791666662877},{"name":"F#3","midi":54,"time":824.9817708333302,"velocity":0.8031496062992126,"duration":0.21744791666662877},{"name":"D#5","midi":75,"time":824.9817708333302,"velocity":0.8031496062992126,"duration":0.21744791666662877},{"name":"G#3","midi":56,"time":825.2122395833302,"velocity":0.8031496062992126,"duration":0.21744791666662877},{"name":"C#5","midi":73,"time":825.2122395833302,"velocity":0.8031496062992126,"duration":0.21744791666662877},{"name":"E3","midi":52,"time":825.4440104166634,"velocity":0.8031496062992126,"duration":0.2109375},{"name":"B4","midi":71,"time":825.4440104166634,"velocity":0.8031496062992126,"duration":0.2109375},{"name":"F#3","midi":54,"time":825.6770833333301,"velocity":0.8031496062992126,"duration":0.21744791666662877},{"name":"A4","midi":69,"time":825.6770833333301,"velocity":0.8031496062992126,"duration":0.21744791666662877},{"name":"G#3","midi":56,"time":825.9088541666633,"velocity":0.8031496062992126,"duration":0.21744791666662877},{"name":"B4","midi":71,"time":825.9088541666633,"velocity":0.8031496062992126,"duration":0.21744791666662877},{"name":"A3","midi":57,"time":826.1406249999966,"velocity":0.8031496062992126,"duration":0.21744791666662877},{"name":"C#5","midi":73,"time":826.1406249999966,"velocity":0.8031496062992126,"duration":0.21744791666662877},{"name":"G#3","midi":56,"time":826.3723958333298,"velocity":0.8031496062992126,"duration":0.21744791666662877},{"name":"D#5","midi":75,"time":826.3723958333298,"velocity":0.8031496062992126,"duration":0.21744791666662877},{"name":"F#3","midi":54,"time":826.6041666666631,"velocity":0.8031496062992126,"duration":0.21744791666662877},{"name":"E5","midi":76,"time":826.6041666666631,"velocity":0.8031496062992126,"duration":0.21744791666662877},{"name":"E3","midi":52,"time":826.8372395833297,"velocity":0.8031496062992126,"duration":0.21744791666662877},{"name":"C#5","midi":73,"time":826.8372395833297,"velocity":0.8031496062992126,"duration":0.21744791666662877},{"name":"D#3","midi":51,"time":827.069010416663,"velocity":0.8031496062992126,"duration":0.21744791666662877},{"name":"F#5","midi":78,"time":827.069010416663,"velocity":0.8031496062992126,"duration":0.21744791666662877},{"name":"E3","midi":52,"time":827.3007812499962,"velocity":0.8031496062992126,"duration":0.21744791666662877},{"name":"E5","midi":76,"time":827.3007812499962,"velocity":0.8031496062992126,"duration":0.21744791666662877},{"name":"F#3","midi":54,"time":827.5325520833295,"velocity":0.8031496062992126,"duration":0.21744791666662877},{"name":"D#5","midi":75,"time":827.5325520833295,"velocity":0.8031496062992126,"duration":0.21744791666662877},{"name":"E3","midi":52,"time":827.7643229166628,"velocity":0.8031496062992126,"duration":0.21744791666662877},{"name":"C#5","midi":73,"time":827.7643229166628,"velocity":0.8031496062992126,"duration":0.21744791666662877},{"name":"F#3","midi":54,"time":827.9973958333294,"velocity":0.8031496062992126,"duration":0.21744791666662877},{"name":"B4","midi":71,"time":827.9973958333294,"velocity":0.8031496062992126,"duration":0.21744791666662877},{"name":"D#3","midi":51,"time":828.2278645833294,"velocity":0.8031496062992126,"duration":0.2109375},{"name":"A4","midi":69,"time":828.2278645833294,"velocity":0.8031496062992126,"duration":0.2109375},{"name":"E3","midi":52,"time":828.460937499996,"velocity":0.8031496062992126,"duration":0.21744791666662877},{"name":"G#4","midi":68,"time":828.460937499996,"velocity":0.8031496062992126,"duration":0.21744791666662877},{"name":"F#3","midi":54,"time":828.6927083333293,"velocity":0.8031496062992126,"duration":0.21744791666662877},{"name":"E5","midi":76,"time":828.6927083333293,"velocity":0.8031496062992126,"duration":0.21744791666662877},{"name":"G#3","midi":56,"time":828.9257812499959,"velocity":0.8031496062992126,"duration":0.1015625},{"name":"D#5","midi":75,"time":828.9257812499959,"velocity":0.8031496062992126,"duration":0.21875},{"name":"F#3","midi":54,"time":829.0416666666625,"velocity":0.8031496062992126,"duration":0.1015625},{"name":"E3","midi":52,"time":829.1575520833293,"velocity":0.8031496062992126,"duration":0.1015625},{"name":"C#5","midi":73,"time":829.1575520833293,"velocity":0.8031496062992126,"duration":0.21875},{"name":"F#3","midi":54,"time":829.2747395833293,"velocity":0.8031496062992126,"duration":0.1015625},{"name":"G#3","midi":56,"time":829.3906249999959,"velocity":0.8031496062992126,"duration":0.21744791666662877},{"name":"B4","midi":71,"time":829.3906249999959,"velocity":0.8031496062992126,"duration":0.21744791666662877},{"name":"A3","midi":57,"time":829.6236979166625,"velocity":0.8031496062992126,"duration":0.21744791666662877},{"name":"A4","midi":69,"time":829.6236979166625,"velocity":0.8031496062992126,"duration":0.21744791666662877},{"name":"B3","midi":59,"time":829.8554687499958,"velocity":0.8031496062992126,"duration":0.1015625},{"name":"G#4","midi":68,"time":829.8554687499958,"velocity":0.8031496062992126,"duration":0.21875},{"name":"A3","midi":57,"time":829.9726562499958,"velocity":0.8031496062992126,"duration":0.1015625},{"name":"G#3","midi":56,"time":830.0885416666624,"velocity":0.8031496062992126,"duration":0.1015625},{"name":"A4","midi":69,"time":830.0885416666624,"velocity":0.8031496062992126,"duration":0.1015625},{"name":"A3","midi":57,"time":830.204427083329,"velocity":0.8031496062992126,"duration":0.1015625},{"name":"B4","midi":71,"time":830.204427083329,"velocity":0.8031496062992126,"duration":0.1015625},{"name":"B3","midi":59,"time":830.321614583329,"velocity":0.8031496062992126,"duration":0.453125},{"name":"G#4","midi":68,"time":830.321614583329,"velocity":0.8031496062992126,"duration":0.07291666666662877},{"name":"F#4","midi":66,"time":830.3984374999957,"velocity":0.8031496062992126,"duration":0.07421875},{"name":"G#4","midi":68,"time":830.4765624999957,"velocity":0.8031496062992126,"duration":0.07421875},{"name":"F#4","midi":66,"time":830.5546874999957,"velocity":0.8031496062992126,"duration":0.07421875},{"name":"G#4","midi":68,"time":830.634114583329,"velocity":0.8031496062992126,"duration":0.07421875},{"name":"F#4","midi":66,"time":830.7109374999957,"velocity":0.8031496062992126,"duration":0.30338541666662877},{"name":"B2","midi":47,"time":830.7890624999957,"velocity":0.8031496062992126,"duration":0.44921875},{"name":"E4","midi":64,"time":831.0221354166623,"velocity":0.8031496062992126,"duration":0.21744791666674246},{"name":"E2","midi":40,"time":831.2526041666624,"velocity":0.8031496062992126,"duration":0.44921875},{"name":"E4","midi":64,"time":831.2526041666624,"velocity":0.8031496062992126,"duration":0.21744791666662877},{"name":"F#4","midi":66,"time":831.485677083329,"velocity":0.8031496062992126,"duration":0.21744791666674246},{"name":"E3","midi":52,"time":831.7174479166624,"velocity":0.8031496062992126,"duration":0.21744791666662877},{"name":"G#4","midi":68,"time":831.7174479166624,"velocity":0.8031496062992126,"duration":0.21744791666662877},{"name":"D3","midi":50,"time":831.950520833329,"velocity":0.8031496062992126,"duration":0.21744791666662877},{"name":"A4","midi":69,"time":831.950520833329,"velocity":0.8031496062992126,"duration":0.21744791666662877},{"name":"C#3","midi":49,"time":832.180989583329,"velocity":0.8031496062992126,"duration":0.21744791666662877},{"name":"B4","midi":71,"time":832.180989583329,"velocity":0.8031496062992126,"duration":0.21744791666662877},{"name":"B2","midi":47,"time":832.4127604166623,"velocity":0.8031496062992126,"duration":0.21744791666662877},{"name":"G#4","midi":68,"time":832.4127604166623,"velocity":0.8031496062992126,"duration":0.21744791666662877},{"name":"A2","midi":45,"time":832.6458333333289,"velocity":0.8031496062992126,"duration":0.43489583333325754},{"name":"C#5","midi":73,"time":832.6458333333289,"velocity":0.8031496062992126,"duration":0.21744791666662877},{"name":"B4","midi":71,"time":832.8776041666622,"velocity":0.8031496062992126,"duration":0.21744791666662877},{"name":"B2","midi":47,"time":833.1093749999955,"velocity":0.8031496062992126,"duration":0.1015625},{"name":"A4","midi":69,"time":833.1093749999955,"velocity":0.8031496062992126,"duration":0.21875},{"name":"A2","midi":45,"time":833.2252604166621,"velocity":0.8031496062992126,"duration":0.1015625},{"name":"B2","midi":47,"time":833.3424479166621,"velocity":0.8031496062992126,"duration":0.1015625},{"name":"G#4","midi":68,"time":833.3424479166621,"velocity":0.8031496062992126,"duration":0.21875},{"name":"A2","midi":45,"time":833.4596354166621,"velocity":0.8031496062992126,"duration":0.1015625},{"name":"B2","midi":47,"time":833.5755208333287,"velocity":0.8031496062992126,"duration":0.1015625},{"name":"F#4","midi":66,"time":833.5755208333287,"velocity":0.8031496062992126,"duration":0.21875},{"name":"A2","midi":45,"time":833.6927083333287,"velocity":0.8031496062992126,"duration":0.1015625},{"name":"G#2","midi":44,"time":833.8098958333287,"velocity":0.8031496062992126,"duration":0.1015625},{"name":"E4","midi":64,"time":833.8098958333287,"velocity":0.8031496062992126,"duration":0.21875},{"name":"A2","midi":45,"time":833.9257812499953,"velocity":0.8031496062992126,"duration":0.1015625},{"name":"B2","midi":47,"time":834.0429687499953,"velocity":0.8031496062992126,"duration":0.21744791666662877},{"name":"D#4","midi":63,"time":834.0429687499953,"velocity":0.8031496062992126,"duration":0.21744791666662877},{"name":"C#3","midi":49,"time":834.2734374999953,"velocity":0.8031496062992126,"duration":0.21744791666662877},{"name":"E4","midi":64,"time":834.2734374999953,"velocity":0.8031496062992126,"duration":0.21744791666662877},{"name":"D#3","midi":51,"time":834.506510416662,"velocity":0.8031496062992126,"duration":0.21744791666662877},{"name":"F#4","midi":66,"time":834.506510416662,"velocity":0.8031496062992126,"duration":0.21744791666662877},{"name":"C#3","midi":49,"time":834.7382812499952,"velocity":0.8031496062992126,"duration":0.21744791666662877},{"name":"G#4","midi":68,"time":834.7382812499952,"velocity":0.8031496062992126,"duration":0.21744791666662877},{"name":"B2","midi":47,"time":834.9713541666619,"velocity":0.8031496062992126,"duration":0.21744791666662877},{"name":"A4","midi":69,"time":834.9713541666619,"velocity":0.8031496062992126,"duration":0.21744791666662877},{"name":"A2","midi":45,"time":835.2018229166619,"velocity":0.8031496062992126,"duration":0.21744791666662877},{"name":"F#4","midi":66,"time":835.2018229166619,"velocity":0.8031496062992126,"duration":0.21744791666662877},{"name":"G#2","midi":44,"time":835.4348958333285,"velocity":0.8031496062992126,"duration":0.43489583333325754},{"name":"B4","midi":71,"time":835.4348958333285,"velocity":0.8031496062992126,"duration":0.21744791666662877},{"name":"A4","midi":69,"time":835.6666666666617,"velocity":0.8031496062992126,"duration":0.21744791666662877},{"name":"A2","midi":45,"time":835.898437499995,"velocity":0.8031496062992126,"duration":0.1015625},{"name":"G#4","midi":68,"time":835.898437499995,"velocity":0.8031496062992126,"duration":0.21875},{"name":"G#2","midi":44,"time":836.015624999995,"velocity":0.8031496062992126,"duration":0.1015625},{"name":"A2","midi":45,"time":836.1315104166616,"velocity":0.8031496062992126,"duration":0.1015625},{"name":"F#4","midi":66,"time":836.1315104166616,"velocity":0.8031496062992126,"duration":0.21875},{"name":"G#2","midi":44,"time":836.2473958333283,"velocity":0.8031496062992126,"duration":0.1015625},{"name":"A2","midi":45,"time":836.3645833333283,"velocity":0.8031496062992126,"duration":0.1015625},{"name":"E4","midi":64,"time":836.3645833333283,"velocity":0.8031496062992126,"duration":0.21875},{"name":"G#2","midi":44,"time":836.4817708333283,"velocity":0.8031496062992126,"duration":0.1015625},{"name":"F#2","midi":42,"time":836.5976562499949,"velocity":0.8031496062992126,"duration":0.1015625},{"name":"D#4","midi":63,"time":836.5976562499949,"velocity":0.8031496062992126,"duration":0.21875},{"name":"G#2","midi":44,"time":836.7148437499949,"velocity":0.8031496062992126,"duration":0.1015625},{"name":"A2","midi":45,"time":836.8320312499949,"velocity":0.8031496062992126,"duration":0.21744791666662877},{"name":"C#4","midi":61,"time":836.8320312499949,"velocity":0.8031496062992126,"duration":0.21744791666662877},{"name":"B2","midi":47,"time":837.0638020833281,"velocity":0.8031496062992126,"duration":0.21744791666662877},{"name":"D#4","midi":63,"time":837.0638020833281,"velocity":0.8031496062992126,"duration":0.21744791666662877},{"name":"C#3","midi":49,"time":837.2955729166614,"velocity":0.8031496062992126,"duration":0.21744791666662877},{"name":"E4","midi":64,"time":837.2955729166614,"velocity":0.8031496062992126,"duration":0.21744791666662877},{"name":"B2","midi":47,"time":837.5273437499947,"velocity":0.8031496062992126,"duration":0.21744791666662877},{"name":"F#4","midi":66,"time":837.5273437499947,"velocity":0.8031496062992126,"duration":0.21744791666662877},{"name":"A2","midi":45,"time":837.7591145833279,"velocity":0.8031496062992126,"duration":0.21744791666662877},{"name":"G#4","midi":68,"time":837.7591145833279,"velocity":0.8031496062992126,"duration":0.21744791666662877},{"name":"G#2","midi":44,"time":837.9921874999945,"velocity":0.8031496062992126,"duration":0.21744791666662877},{"name":"E4","midi":64,"time":837.9921874999945,"velocity":0.8031496062992126,"duration":0.21744791666662877},{"name":"F#2","midi":42,"time":838.2226562499945,"velocity":0.8031496062992126,"duration":0.21744791666662877},{"name":"A4","midi":69,"time":838.2226562499945,"velocity":0.8031496062992126,"duration":0.21744791666662877},{"name":"G#2","midi":44,"time":838.4557291666612,"velocity":0.8031496062992126,"duration":0.21744791666662877},{"name":"G#4","midi":68,"time":838.4557291666612,"velocity":0.8031496062992126,"duration":0.21744791666662877},{"name":"A2","midi":45,"time":838.6874999999944,"velocity":0.8031496062992126,"duration":0.21744791666662877},{"name":"F#4","midi":66,"time":838.6874999999944,"velocity":0.8031496062992126,"duration":0.21744791666662877},{"name":"G#2","midi":44,"time":838.9205729166611,"velocity":0.8031496062992126,"duration":0.21744791666662877},{"name":"E4","midi":64,"time":838.9205729166611,"velocity":0.8031496062992126,"duration":0.21744791666662877},{"name":"F#2","midi":42,"time":839.1510416666611,"velocity":0.8031496062992126,"duration":0.21744791666662877},{"name":"D#4","midi":63,"time":839.1510416666611,"velocity":0.8031496062992126,"duration":0.21744791666662877},{"name":"E2","midi":40,"time":839.3828124999943,"velocity":0.8031496062992126,"duration":0.21744791666662877},{"name":"C#4","midi":61,"time":839.3828124999943,"velocity":0.8031496062992126,"duration":0.21744791666662877},{"name":"D#2","midi":39,"time":839.615885416661,"velocity":0.8031496062992126,"duration":0.4492187499998863},{"name":"B3","midi":59,"time":839.615885416661,"velocity":0.8031496062992126,"duration":0.21744791666662877},{"name":"A4","midi":69,"time":839.8476562499942,"velocity":0.8031496062992126,"duration":0.21744791666662877},{"name":"B2","midi":47,"time":840.0794270833275,"velocity":0.8031496062992126,"duration":0.4492187499998863},{"name":"G#4","midi":68,"time":840.0794270833275,"velocity":0.8031496062992126,"duration":0.21744791666662877},{"name":"F#4","midi":66,"time":840.3111979166607,"velocity":0.8031496062992126,"duration":0.21744791666662877},{"name":"C#3","midi":49,"time":840.542968749994,"velocity":0.8031496062992126,"duration":0.44921875},{"name":"E4","midi":64,"time":840.542968749994,"velocity":0.8031496062992126,"duration":0.21744791666662877},{"name":"D#4","midi":63,"time":840.7760416666606,"velocity":0.8031496062992126,"duration":0.21744791666674246},{"name":"A2","midi":45,"time":841.007812499994,"velocity":0.8031496062992126,"duration":0.4492187499998863},{"name":"E4","midi":64,"time":841.007812499994,"velocity":0.8031496062992126,"duration":0.21744791666662877},{"name":"F#4","midi":66,"time":841.2395833333272,"velocity":0.8031496062992126,"duration":0.21744791666662877},{"name":"G#4","midi":68,"time":841.4713541666605,"velocity":0.8031496062992126,"duration":0.12369791666662877},{"name":"B2","midi":47,"time":841.4713541666605,"velocity":0.8031496062992126,"duration":0.4531249999998863},{"name":"F#4","midi":66,"time":841.5976562499937,"velocity":0.8031496062992126,"duration":0.07421875},{"name":"G#4","midi":68,"time":841.6770833333271,"velocity":0.8031496062992126,"duration":0.07421875},{"name":"F#4","midi":66,"time":841.7539062499937,"velocity":0.8031496062992126,"duration":0.07421875},{"name":"G#4","midi":68,"time":841.8333333333271,"velocity":0.8031496062992126,"duration":0.07421875},{"name":"F#4","midi":66,"time":841.9101562499937,"velocity":0.8031496062992126,"duration":0.24479166666662877},{"name":"B1","midi":35,"time":841.9401041666604,"velocity":0.8031496062992126,"duration":0.45052083333337123},{"name":"E4","midi":64,"time":842.1705729166604,"velocity":0.8031496062992126,"duration":0.21875},{"name":"E2","midi":40,"time":842.4049479166604,"velocity":0.8031496062992126,"duration":2.3125000000001137},{"name":"E4","midi":64,"time":842.4049479166604,"velocity":0.8031496062992126,"duration":2.3111979166667425},{"name":"G#2","midi":44,"time":842.8697916666604,"velocity":0.8031496062992126,"duration":0.45052083333337123},{"name":"B2","midi":47,"time":843.3346354166604,"velocity":0.8031496062992126,"duration":0.45052083333337123},{"name":"E3","midi":52,"time":843.8007812499937,"velocity":0.8031496062992126,"duration":0.9075520833333712},{"name":"B4","midi":71,"time":844.7291666666605,"velocity":0.8031496062992126,"duration":0.43229166666662877},{"name":"E4","midi":64,"time":845.1940104166605,"velocity":0.8031496062992126,"duration":0.45052083333337123},{"name":"F#4","midi":66,"time":845.6601562499939,"velocity":0.8031496062992126,"duration":0.21744791666662877},{"name":"G#4","midi":68,"time":845.8919270833271,"velocity":0.8031496062992126,"duration":0.21744791666662877},{"name":"A4","midi":69,"time":846.1236979166604,"velocity":0.8031496062992126,"duration":0.21744791666662877},{"name":"B4","midi":71,"time":846.3554687499936,"velocity":0.8031496062992126,"duration":0.21744791666662877},{"name":"A4","midi":69,"time":846.5885416666603,"velocity":0.8031496062992126,"duration":0.21744791666662877},{"name":"B4","midi":71,"time":846.8203124999935,"velocity":0.8031496062992126,"duration":0.21744791666662877},{"name":"C#5","midi":73,"time":847.0533854166601,"velocity":0.8031496062992126,"duration":0.1015625},{"name":"B4","midi":71,"time":847.1679687499935,"velocity":0.8031496062992126,"duration":0.1015625},{"name":"C#5","midi":73,"time":847.2851562499935,"velocity":0.8031496062992126,"duration":0.1015625},{"name":"B4","midi":71,"time":847.4023437499935,"velocity":0.8031496062992126,"duration":0.1015625},{"name":"E3","midi":52,"time":847.5182291666601,"velocity":0.8031496062992126,"duration":0.45182291666662877},{"name":"C#5","midi":73,"time":847.5182291666601,"velocity":0.8031496062992126,"duration":0.1015625},{"name":"B4","midi":71,"time":847.6354166666601,"velocity":0.8031496062992126,"duration":0.1015625},{"name":"A4","midi":69,"time":847.7526041666601,"velocity":0.8031496062992126,"duration":0.1015625},{"name":"B4","midi":71,"time":847.8684895833268,"velocity":0.8031496062992126,"duration":0.1015625},{"name":"A2","midi":45,"time":847.9856770833268,"velocity":0.8031496062992126,"duration":0.44921875},{"name":"C#5","midi":73,"time":847.9856770833268,"velocity":0.8031496062992126,"duration":0.21744791666662877},{"name":"D5","midi":74,"time":848.2161458333268,"velocity":0.8031496062992126,"duration":0.21744791666662877},{"name":"B2","midi":47,"time":848.4492187499934,"velocity":0.8031496062992126,"duration":0.21744791666662877},{"name":"C#5","midi":73,"time":848.4492187499934,"velocity":0.8031496062992126,"duration":0.21744791666662877},{"name":"C#3","midi":49,"time":848.6809895833267,"velocity":0.8031496062992126,"duration":0.21744791666662877},{"name":"B4","midi":71,"time":848.6809895833267,"velocity":0.8031496062992126,"duration":0.21744791666662877},{"name":"D3","midi":50,"time":848.9140624999933,"velocity":0.8031496062992126,"duration":0.21744791666662877},{"name":"A4","midi":69,"time":848.9140624999933,"velocity":0.8031496062992126,"duration":0.21744791666662877},{"name":"E3","midi":52,"time":849.1445312499933,"velocity":0.8031496062992126,"duration":0.21744791666662877},{"name":"G4","midi":67,"time":849.1445312499933,"velocity":0.8031496062992126,"duration":0.21744791666662877},{"name":"D3","midi":50,"time":849.3763020833266,"velocity":0.8031496062992126,"duration":0.21744791666662877},{"name":"F#4","midi":66,"time":849.3763020833266,"velocity":0.8031496062992126,"duration":0.21744791666662877},{"name":"E3","midi":52,"time":849.6093749999932,"velocity":0.8031496062992126,"duration":0.21744791666662877},{"name":"F#5","midi":78,"time":849.6093749999932,"velocity":0.8031496062992126,"duration":0.21744791666662877},{"name":"F#3","midi":54,"time":849.8411458333264,"velocity":0.8031496062992126,"duration":0.1015625},{"name":"E5","midi":76,"time":849.8411458333264,"velocity":0.8031496062992126,"duration":0.21875},{"name":"E3","midi":52,"time":849.9583333333264,"velocity":0.8031496062992126,"duration":0.1015625},{"name":"F#3","midi":54,"time":850.0742187499931,"velocity":0.8031496062992126,"duration":0.1015625},{"name":"D5","midi":74,"time":850.0742187499931,"velocity":0.8031496062992126,"duration":0.21875},{"name":"E3","midi":52,"time":850.1901041666597,"velocity":0.8031496062992126,"duration":0.1015625},{"name":"F#3","midi":54,"time":850.3072916666597,"velocity":0.8031496062992126,"duration":0.1015625},{"name":"C#5","midi":73,"time":850.3072916666597,"velocity":0.8031496062992126,"duration":0.21875},{"name":"E3","midi":52,"time":850.4244791666597,"velocity":0.8031496062992126,"duration":0.1015625},{"name":"D3","midi":50,"time":850.5403645833263,"velocity":0.8031496062992126,"duration":0.1015625},{"name":"B4","midi":71,"time":850.5403645833263,"velocity":0.8031496062992126,"duration":0.21875},{"name":"E3","midi":52,"time":850.6575520833263,"velocity":0.8031496062992126,"duration":0.1015625},{"name":"F#3","midi":54,"time":850.7747395833263,"velocity":0.8031496062992126,"duration":0.4492187499998863},{"name":"A#4","midi":70,"time":850.7747395833263,"velocity":0.8031496062992126,"duration":0.21744791666662877},{"name":"B4","midi":71,"time":851.0065104166596,"velocity":0.8031496062992126,"duration":0.21744791666662877},{"name":"E3","midi":52,"time":851.2382812499928,"velocity":0.8031496062992126,"duration":0.21875},{"name":"C#5","midi":73,"time":851.2382812499928,"velocity":0.8031496062992126,"duration":0.1015625},{"name":"B4","midi":71,"time":851.3541666666595,"velocity":0.8031496062992126,"duration":0.1015625},{"name":"D3","midi":50,"time":851.4713541666595,"velocity":0.8031496062992126,"duration":0.21875},{"name":"C#5","midi":73,"time":851.4713541666595,"velocity":0.8031496062992126,"duration":0.1015625},{"name":"B4","midi":71,"time":851.5885416666595,"velocity":0.8031496062992126,"duration":0.1015625},{"name":"C#3","midi":49,"time":851.7044270833261,"velocity":0.8031496062992126,"duration":0.21875},{"name":"C#5","midi":73,"time":851.7044270833261,"velocity":0.8031496062992126,"duration":0.1015625},{"name":"B4","midi":71,"time":851.8216145833261,"velocity":0.8031496062992126,"duration":0.1015625},{"name":"B2","midi":47,"time":851.9388020833261,"velocity":0.8031496062992126,"duration":0.21875},{"name":"A#4","midi":70,"time":851.9388020833261,"velocity":0.8031496062992126,"duration":0.1015625},{"name":"B4","midi":71,"time":852.0546874999927,"velocity":0.8031496062992126,"duration":0.1015625},{"name":"A#2","midi":46,"time":852.1705729166595,"velocity":0.8031496062992126,"duration":0.21744791666662877},{"name":"C#5","midi":73,"time":852.1705729166595,"velocity":0.8031496062992126,"duration":0.21744791666662877},{"name":"B2","midi":47,"time":852.4023437499927,"velocity":0.8031496062992126,"duration":0.21744791666662877},{"name":"D5","midi":74,"time":852.4023437499927,"velocity":0.8031496062992126,"duration":0.21744791666662877},{"name":"C#3","midi":49,"time":852.6354166666594,"velocity":0.8031496062992126,"duration":0.1015625},{"name":"E5","midi":76,"time":852.6354166666594,"velocity":0.8031496062992126,"duration":0.1015625},{"name":"B2","midi":47,"time":852.751302083326,"velocity":0.8031496062992126,"duration":0.1015625},{"name":"D5","midi":74,"time":852.751302083326,"velocity":0.8031496062992126,"duration":0.1015625},{"name":"C#3","midi":49,"time":852.868489583326,"velocity":0.8031496062992126,"duration":0.1015625},{"name":"E5","midi":76,"time":852.868489583326,"velocity":0.8031496062992126,"duration":0.1015625},{"name":"B2","midi":47,"time":852.985677083326,"velocity":0.8031496062992126,"duration":0.1015625},{"name":"D5","midi":74,"time":852.985677083326,"velocity":0.8031496062992126,"duration":0.1015625},{"name":"C#3","midi":49,"time":853.102864583326,"velocity":0.8031496062992126,"duration":0.1015625},{"name":"E5","midi":76,"time":853.102864583326,"velocity":0.8031496062992126,"duration":0.1015625},{"name":"B2","midi":47,"time":853.2174479166594,"velocity":0.8031496062992126,"duration":0.1015625},{"name":"D5","midi":74,"time":853.2174479166594,"velocity":0.8031496062992126,"duration":0.1015625},{"name":"A#2","midi":46,"time":853.3346354166594,"velocity":0.8031496062992126,"duration":0.1015625},{"name":"C#5","midi":73,"time":853.3346354166594,"velocity":0.8031496062992126,"duration":0.1015625},{"name":"B2","midi":47,"time":853.4518229166594,"velocity":0.8031496062992126,"duration":0.1015625},{"name":"D5","midi":74,"time":853.4518229166594,"velocity":0.8031496062992126,"duration":0.1015625},{"name":"C#3","midi":49,"time":853.567708333326,"velocity":0.8031496062992126,"duration":0.21744791666662877},{"name":"E5","midi":76,"time":853.567708333326,"velocity":0.8031496062992126,"duration":0.6822916666665151},{"name":"F#2","midi":42,"time":853.8007812499926,"velocity":0.8031496062992126,"duration":0.21744791666662877},{"name":"G#2","midi":44,"time":854.0325520833259,"velocity":0.8031496062992126,"duration":0.21744791666662877},{"name":"A#2","midi":46,"time":854.2630208333259,"velocity":0.8031496062992126,"duration":0.21744791666662877},{"name":"F#5","midi":78,"time":854.2630208333259,"velocity":0.8031496062992126,"duration":0.21744791666662877},{"name":"B2","midi":47,"time":854.4960937499925,"velocity":0.8031496062992126,"duration":0.21744791666662877},{"name":"E5","midi":76,"time":854.4960937499925,"velocity":0.8031496062992126,"duration":0.21744791666662877},{"name":"C#3","midi":49,"time":854.7278645833258,"velocity":0.8031496062992126,"duration":0.21744791666662877},{"name":"D5","midi":74,"time":854.7278645833258,"velocity":0.8031496062992126,"duration":0.44921875},{"name":"D3","midi":50,"time":854.9609374999924,"velocity":0.8031496062992126,"duration":0.21744791666674246},{"name":"B2","midi":47,"time":855.1914062499925,"velocity":0.8031496062992126,"duration":0.21744791666662877},{"name":"E5","midi":76,"time":855.1914062499925,"velocity":0.8031496062992126,"duration":0.21744791666662877},{"name":"F#3","midi":54,"time":855.4244791666591,"velocity":0.8031496062992126,"duration":0.453125},{"name":"D5","midi":74,"time":855.4244791666591,"velocity":0.8031496062992126,"duration":0.07291666666662877},{"name":"C#5","midi":73,"time":855.5013020833258,"velocity":0.8031496062992126,"duration":0.07421875},{"name":"D5","midi":74,"time":855.5781249999924,"velocity":0.8031496062992126,"duration":0.07421875},{"name":"C#5","midi":73,"time":855.6575520833258,"velocity":0.8031496062992126,"duration":0.07421875},{"name":"D5","midi":74,"time":855.7356770833258,"velocity":0.8031496062992126,"duration":0.07421875},{"name":"C#5","midi":73,"time":855.8138020833258,"velocity":0.8031496062992126,"duration":0.29296875},{"name":"F#2","midi":42,"time":855.8919270833258,"velocity":0.8031496062992126,"duration":0.44921875},{"name":"F#5","midi":78,"time":856.1236979166591,"velocity":0.8031496062992126,"duration":0.21744791666662877},{"name":"B2","midi":47,"time":856.3554687499924,"velocity":0.8031496062992126,"duration":0.9075520833331439},{"name":"D#5","midi":75,"time":856.3554687499924,"velocity":0.8031496062992126,"duration":0.21744791666662877},{"name":"B4","midi":71,"time":856.5872395833256,"velocity":0.8031496062992126,"duration":0.21744791666662877},{"name":"C#5","midi":73,"time":856.8203124999923,"velocity":0.8031496062992126,"duration":0.21744791666662877},{"name":"D#5","midi":75,"time":857.0520833333255,"velocity":0.8031496062992126,"duration":0.21875},{"name":"E5","midi":76,"time":857.2851562499922,"velocity":0.8031496062992126,"duration":0.21744791666662877},{"name":"F#5","midi":78,"time":857.5169270833254,"velocity":0.8031496062992126,"duration":0.21744791666662877},{"name":"E5","midi":76,"time":857.7486979166587,"velocity":0.8031496062992126,"duration":0.21744791666662877},{"name":"F#5","midi":78,"time":857.9817708333253,"velocity":0.8031496062992126,"duration":0.21744791666662877},{"name":"G5","midi":79,"time":858.2122395833253,"velocity":0.8031496062992126,"duration":0.1015625},{"name":"F#5","midi":78,"time":858.3294270833253,"velocity":0.8031496062992126,"duration":0.1015625},{"name":"G5","midi":79,"time":858.4466145833253,"velocity":0.8031496062992126,"duration":0.1015625},{"name":"F#5","midi":78,"time":858.5624999999919,"velocity":0.8031496062992126,"duration":0.1015625},{"name":"B3","midi":59,"time":858.6796874999919,"velocity":0.8031496062992126,"duration":0.45182291666662877},{"name":"G5","midi":79,"time":858.6796874999919,"velocity":0.8031496062992126,"duration":0.1015625},{"name":"F#5","midi":78,"time":858.7968749999919,"velocity":0.8031496062992126,"duration":0.1015625},{"name":"E5","midi":76,"time":858.9127604166586,"velocity":0.8031496062992126,"duration":0.1015625},{"name":"F#5","midi":78,"time":859.0299479166586,"velocity":0.8031496062992126,"duration":0.1015625},{"name":"E3","midi":52,"time":859.1458333333252,"velocity":0.8031496062992126,"duration":0.4492187499998863},{"name":"G5","midi":79,"time":859.1458333333252,"velocity":0.8031496062992126,"duration":0.21744791666662877},{"name":"A5","midi":81,"time":859.3776041666584,"velocity":0.8031496062992126,"duration":0.21744791666662877},{"name":"F#3","midi":54,"time":859.6106770833251,"velocity":0.8031496062992126,"duration":0.21744791666662877},{"name":"G5","midi":79,"time":859.6106770833251,"velocity":0.8031496062992126,"duration":0.21744791666662877},{"name":"G3","midi":55,"time":859.8424479166583,"velocity":0.8031496062992126,"duration":0.21744791666662877},{"name":"F#5","midi":78,"time":859.8424479166583,"velocity":0.8031496062992126,"duration":0.21744791666662877},{"name":"A3","midi":57,"time":860.0742187499916,"velocity":0.8031496062992126,"duration":0.21744791666662877},{"name":"E5","midi":76,"time":860.0742187499916,"velocity":0.8031496062992126,"duration":0.21744791666662877},{"name":"B3","midi":59,"time":860.3059895833248,"velocity":0.8031496062992126,"duration":0.21744791666662877},{"name":"D5","midi":74,"time":860.3059895833248,"velocity":0.8031496062992126,"duration":0.21744791666662877},{"name":"A3","midi":57,"time":860.5377604166581,"velocity":0.8031496062992126,"duration":0.21744791666662877},{"name":"C5","midi":72,"time":860.5377604166581,"velocity":0.8031496062992126,"duration":0.21744791666662877},{"name":"B3","midi":59,"time":860.7708333333247,"velocity":0.8031496062992126,"duration":0.21744791666662877},{"name":"B5","midi":83,"time":860.7708333333247,"velocity":0.8031496062992126,"duration":0.21744791666662877},{"name":"C4","midi":60,"time":861.002604166658,"velocity":0.8031496062992126,"duration":0.1015625},{"name":"A5","midi":81,"time":861.002604166658,"velocity":0.8031496062992126,"duration":0.21875},{"name":"B3","midi":59,"time":861.1184895833246,"velocity":0.8031496062992126,"duration":0.1015625},{"name":"C4","midi":60,"time":861.2343749999914,"velocity":0.8031496062992126,"duration":0.1015625},{"name":"G5","midi":79,"time":861.2343749999914,"velocity":0.8031496062992126,"duration":0.21875},{"name":"B3","midi":59,"time":861.3515624999914,"velocity":0.8031496062992126,"duration":0.1015625},{"name":"C4","midi":60,"time":861.4687499999914,"velocity":0.8031496062992126,"duration":0.1015625},{"name":"F#5","midi":78,"time":861.4687499999914,"velocity":0.8031496062992126,"duration":0.21875},{"name":"B3","midi":59,"time":861.584635416658,"velocity":0.8031496062992126,"duration":0.1015625},{"name":"A3","midi":57,"time":861.701822916658,"velocity":0.8031496062992126,"duration":0.1015625},{"name":"E5","midi":76,"time":861.701822916658,"velocity":0.8031496062992126,"duration":0.21875},{"name":"B3","midi":59,"time":861.819010416658,"velocity":0.8031496062992126,"duration":0.1015625},{"name":"C4","midi":60,"time":861.936197916658,"velocity":0.8031496062992126,"duration":0.21744791666662877},{"name":"D#5","midi":75,"time":861.936197916658,"velocity":0.8031496062992126,"duration":0.21744791666662877},{"name":"B3","midi":59,"time":862.166666666658,"velocity":0.8031496062992126,"duration":0.21744791666662877},{"name":"E5","midi":76,"time":862.166666666658,"velocity":0.8031496062992126,"duration":0.21744791666662877},{"name":"A3","midi":57,"time":862.3984374999912,"velocity":0.8031496062992126,"duration":0.21875},{"name":"F#5","midi":78,"time":862.3984374999912,"velocity":0.8031496062992126,"duration":0.1015625},{"name":"E5","midi":76,"time":862.5156249999912,"velocity":0.8031496062992126,"duration":0.1015625},{"name":"G3","midi":55,"time":862.6328124999912,"velocity":0.8031496062992126,"duration":0.21875},{"name":"F#5","midi":78,"time":862.6328124999912,"velocity":0.8031496062992126,"duration":0.1015625},{"name":"E5","midi":76,"time":862.7486979166579,"velocity":0.8031496062992126,"duration":0.1015625},{"name":"F#3","midi":54,"time":862.8658854166579,"velocity":0.8031496062992126,"duration":0.21875},{"name":"F#5","midi":78,"time":862.8658854166579,"velocity":0.8031496062992126,"duration":0.1015625},{"name":"E5","midi":76,"time":862.9830729166579,"velocity":0.8031496062992126,"duration":0.1015625},{"name":"E3","midi":52,"time":863.0989583333245,"velocity":0.8031496062992126,"duration":0.21875},{"name":"D#5","midi":75,"time":863.0989583333245,"velocity":0.8031496062992126,"duration":0.1015625},{"name":"E5","midi":76,"time":863.2148437499911,"velocity":0.8031496062992126,"duration":0.1015625},{"name":"D#3","midi":51,"time":863.3320312499911,"velocity":0.8031496062992126,"duration":0.22916666666662877},{"name":"F#5","midi":78,"time":863.3320312499911,"velocity":0.8031496062992126,"duration":0.22916666666662877},{"name":"G5","midi":79,"time":863.5781249999911,"velocity":0.8031496062992126,"duration":0.20703125},{"name":"E3","midi":52,"time":863.5781249999911,"velocity":0.8031496062992126,"duration":0.20703125},{"name":"F#3","midi":54,"time":863.7981770833245,"velocity":0.8031496062992126,"duration":0.1015625},{"name":"A5","midi":81,"time":863.7981770833245,"velocity":0.8031496062992126,"duration":0.1015625},{"name":"E3","midi":52,"time":863.9140624999911,"velocity":0.8031496062992126,"duration":0.1015625},{"name":"G5","midi":79,"time":863.9140624999911,"velocity":0.8031496062992126,"duration":0.1015625},{"name":"F#3","midi":54,"time":864.0312499999911,"velocity":0.8031496062992126,"duration":0.1015625},{"name":"A5","midi":81,"time":864.0312499999911,"velocity":0.8031496062992126,"duration":0.1015625},{"name":"E3","midi":52,"time":864.1471354166578,"velocity":0.8031496062992126,"duration":0.1015625},{"name":"G5","midi":79,"time":864.1471354166578,"velocity":0.8031496062992126,"duration":0.1015625},{"name":"F#3","midi":54,"time":864.2630208333244,"velocity":0.8031496062992126,"duration":0.1015625},{"name":"A5","midi":81,"time":864.2630208333244,"velocity":0.8031496062992126,"duration":0.1015625},{"name":"E3","midi":52,"time":864.3802083333244,"velocity":0.8031496062992126,"duration":0.1015625},{"name":"G5","midi":79,"time":864.3802083333244,"velocity":0.8031496062992126,"duration":0.1015625},{"name":"D#3","midi":51,"time":864.4973958333244,"velocity":0.8031496062992126,"duration":0.1015625},{"name":"F#5","midi":78,"time":864.4973958333244,"velocity":0.8031496062992126,"duration":0.1015625},{"name":"E3","midi":52,"time":864.613281249991,"velocity":0.8031496062992126,"duration":0.1015625},{"name":"G5","midi":79,"time":864.613281249991,"velocity":0.8031496062992126,"duration":0.1015625},{"name":"F#3","midi":54,"time":864.730468749991,"velocity":0.8031496062992126,"duration":0.21744791666662877},{"name":"A5","midi":81,"time":864.730468749991,"velocity":0.8031496062992126,"duration":0.6822916666665151},{"name":"B2","midi":47,"time":864.9622395833243,"velocity":0.8031496062992126,"duration":0.21744791666662877},{"name":"C#3","midi":49,"time":865.1940104166575,"velocity":0.8031496062992126,"duration":0.21744791666662877},{"name":"D#3","midi":51,"time":865.4257812499909,"velocity":0.8031496062992126,"duration":0.21744791666662877},{"name":"B5","midi":83,"time":865.4257812499909,"velocity":0.8031496062992126,"duration":0.21744791666662877},{"name":"E3","midi":52,"time":865.6588541666575,"velocity":0.8031496062992126,"duration":0.21744791666662877},{"name":"A5","midi":81,"time":865.6588541666575,"velocity":0.8031496062992126,"duration":0.21744791666662877},{"name":"F#3","midi":54,"time":865.8906249999908,"velocity":0.8031496062992126,"duration":0.21744791666662877},{"name":"G5","midi":79,"time":865.8906249999908,"velocity":0.8031496062992126,"duration":0.4492187499998863},{"name":"G3","midi":55,"time":866.122395833324,"velocity":0.8031496062992126,"duration":0.21744791666662877},{"name":"E3","midi":52,"time":866.3541666666573,"velocity":0.8031496062992126,"duration":0.21744791666662877},{"name":"A5","midi":81,"time":866.3541666666573,"velocity":0.8031496062992126,"duration":0.21744791666662877},{"name":"B3","midi":59,"time":866.5859374999906,"velocity":0.8031496062992126,"duration":0.45052083333337123},{"name":"G5","midi":79,"time":866.5859374999906,"velocity":0.8031496062992126,"duration":0.07291666666662877},{"name":"F#5","midi":78,"time":866.6640624999906,"velocity":0.8031496062992126,"duration":0.07421875},{"name":"G5","midi":79,"time":866.7408854166572,"velocity":0.8031496062992126,"duration":0.07421875},{"name":"F#5","midi":78,"time":866.8203124999906,"velocity":0.8031496062992126,"duration":0.07421875},{"name":"G5","midi":79,"time":866.8971354166572,"velocity":0.8031496062992126,"duration":0.07421875},{"name":"F#5","midi":78,"time":866.9765624999906,"velocity":0.8031496062992126,"duration":0.29166666666662877},{"name":"B2","midi":47,"time":867.0546874999906,"velocity":0.8031496062992126,"duration":0.44921875},{"name":"B5","midi":83,"time":867.2851562499906,"velocity":0.8031496062992126,"duration":0.21744791666662877},{"name":"E2","midi":40,"time":867.5182291666572,"velocity":0.8031496062992126,"duration":0.4492187499998863},{"name":"G#5","midi":80,"time":867.5182291666572,"velocity":0.8031496062992126,"duration":0.21744791666662877},{"name":"A5","midi":81,"time":867.7499999999905,"velocity":0.8031496062992126,"duration":0.21744791666662877},{"name":"F#2","midi":42,"time":867.9830729166571,"velocity":0.8031496062992126,"duration":0.21744791666662877},{"name":"G#5","midi":80,"time":867.9830729166571,"velocity":0.8031496062992126,"duration":0.21744791666662877},{"name":"G#2","midi":44,"time":868.2135416666571,"velocity":0.8031496062992126,"duration":0.21744791666662877},{"name":"F#5","midi":78,"time":868.2135416666571,"velocity":0.8031496062992126,"duration":0.21744791666662877},{"name":"A2","midi":45,"time":868.4453124999903,"velocity":0.8031496062992126,"duration":0.21744791666662877},{"name":"E5","midi":76,"time":868.4453124999903,"velocity":0.8031496062992126,"duration":0.21744791666662877},{"name":"B2","midi":47,"time":868.678385416657,"velocity":0.8031496062992126,"duration":0.21744791666662877},{"name":"D5","midi":74,"time":868.678385416657,"velocity":0.8031496062992126,"duration":0.21744791666662877},{"name":"A2","midi":45,"time":868.9101562499902,"velocity":0.8031496062992126,"duration":0.21744791666662877},{"name":"C#5","midi":73,"time":868.9101562499902,"velocity":0.8031496062992126,"duration":0.21744791666662877},{"name":"B2","midi":47,"time":869.1419270833235,"velocity":0.8031496062992126,"duration":0.21744791666662877},{"name":"B4","midi":71,"time":869.1419270833235,"velocity":0.8031496062992126,"duration":0.21744791666662877},{"name":"C#3","midi":49,"time":869.3736979166567,"velocity":0.8031496062992126,"duration":0.1015625},{"name":"A4","midi":69,"time":869.3736979166567,"velocity":0.8031496062992126,"duration":0.21875},{"name":"B2","midi":47,"time":869.4908854166567,"velocity":0.8031496062992126,"duration":0.1015625},{"name":"C#3","midi":49,"time":869.6067708333234,"velocity":0.8031496062992126,"duration":0.1015625},{"name":"B4","midi":71,"time":869.6067708333234,"velocity":0.8031496062992126,"duration":0.21875},{"name":"B2","midi":47,"time":869.7239583333234,"velocity":0.8031496062992126,"duration":0.1015625},{"name":"C#3","midi":49,"time":869.8411458333234,"velocity":0.8031496062992126,"duration":0.1015625},{"name":"C#5","midi":73,"time":869.8411458333234,"velocity":0.8031496062992126,"duration":0.21875},{"name":"B2","midi":47,"time":869.9583333333234,"velocity":0.8031496062992126,"duration":0.1015625},{"name":"A2","midi":45,"time":870.07421874999,"velocity":0.8031496062992126,"duration":0.1015625},{"name":"D5","midi":74,"time":870.07421874999,"velocity":0.8031496062992126,"duration":0.21875},{"name":"B2","midi":47,"time":870.1901041666566,"velocity":0.8031496062992126,"duration":0.1015625},{"name":"C#3","midi":49,"time":870.3072916666566,"velocity":0.8031496062992126,"duration":0.21744791666662877},{"name":"E5","midi":76,"time":870.3072916666566,"velocity":0.8031496062992126,"duration":0.21744791666662877},{"name":"A2","midi":45,"time":870.5390624999899,"velocity":0.8031496062992126,"duration":0.21744791666662877},{"name":"D5","midi":74,"time":870.5390624999899,"velocity":0.8031496062992126,"duration":0.21744791666662877},{"name":"B2","midi":47,"time":870.7708333333231,"velocity":0.8031496062992126,"duration":0.21744791666662877},{"name":"C#5","midi":73,"time":870.7708333333231,"velocity":0.8031496062992126,"duration":0.21744791666662877},{"name":"C#3","midi":49,"time":871.0039062499898,"velocity":0.8031496062992126,"duration":0.21744791666662877},{"name":"B4","midi":71,"time":871.0039062499898,"velocity":0.8031496062992126,"duration":0.21744791666662877},{"name":"D3","midi":50,"time":871.2343749999898,"velocity":0.8031496062992126,"duration":0.21744791666662877},{"name":"A4","midi":69,"time":871.2343749999898,"velocity":0.8031496062992126,"duration":0.21744791666662877},{"name":"E3","midi":52,"time":871.4674479166564,"velocity":0.8031496062992126,"duration":0.21744791666662877},{"name":"G4","midi":67,"time":871.4674479166564,"velocity":0.8031496062992126,"duration":0.21744791666662877},{"name":"D3","midi":50,"time":871.6992187499897,"velocity":0.8031496062992126,"duration":0.21744791666662877},{"name":"F#4","midi":66,"time":871.6992187499897,"velocity":0.8031496062992126,"duration":0.21744791666662877},{"name":"E3","midi":52,"time":871.9309895833229,"velocity":0.8031496062992126,"duration":0.21744791666662877},{"name":"E4","midi":64,"time":871.9309895833229,"velocity":0.8031496062992126,"duration":0.21744791666662877},{"name":"F#3","midi":54,"time":872.1627604166562,"velocity":0.8031496062992126,"duration":0.1015625},{"name":"D4","midi":62,"time":872.1627604166562,"velocity":0.8031496062992126,"duration":0.21875},{"name":"E3","midi":52,"time":872.2799479166562,"velocity":0.8031496062992126,"duration":0.1015625},{"name":"F#3","midi":54,"time":872.3958333333228,"velocity":0.8031496062992126,"duration":0.1015625},{"name":"E4","midi":64,"time":872.3958333333228,"velocity":0.8031496062992126,"duration":0.21875},{"name":"E3","midi":52,"time":872.5130208333228,"velocity":0.8031496062992126,"duration":0.1015625},{"name":"F#3","midi":54,"time":872.6302083333228,"velocity":0.8031496062992126,"duration":0.1015625},{"name":"F#4","midi":66,"time":872.6302083333228,"velocity":0.8031496062992126,"duration":0.21875},{"name":"E3","midi":52,"time":872.7460937499894,"velocity":0.8031496062992126,"duration":0.1015625},{"name":"D3","midi":50,"time":872.8632812499894,"velocity":0.8031496062992126,"duration":0.1015625},{"name":"G4","midi":67,"time":872.8632812499894,"velocity":0.8031496062992126,"duration":0.21875},{"name":"E3","midi":52,"time":872.9804687499894,"velocity":0.8031496062992126,"duration":0.1015625},{"name":"F#3","midi":54,"time":873.096354166656,"velocity":0.8031496062992126,"duration":0.5690104166665151},{"name":"A4","midi":69,"time":873.096354166656,"velocity":0.8031496062992126,"duration":0.21744791666662877},{"name":"D4","midi":62,"time":873.3281249999893,"velocity":0.8031496062992126,"duration":0.21744791666662877},{"name":"D5","midi":74,"time":873.5598958333226,"velocity":0.8031496062992126,"duration":1.147135416666515},{"name":"D3","midi":50,"time":873.7929687499892,"velocity":0.8031496062992126,"duration":0.21744791666662877},{"name":"B2","midi":47,"time":874.0260416666558,"velocity":0.8031496062992126,"duration":0.21744791666662877},{"name":"D3","midi":50,"time":874.2565104166558,"velocity":0.8031496062992126,"duration":0.21744791666662877},{"name":"G#2","midi":44,"time":874.4895833333225,"velocity":0.8031496062992126,"duration":0.5690104166665151},{"name":"B4","midi":71,"time":874.7213541666557,"velocity":0.8031496062992126,"duration":0.21744791666662877},{"name":"G#4","midi":68,"time":874.9544270833223,"velocity":0.8031496062992126,"duration":0.21875},{"name":"E3","midi":52,"time":875.1861979166557,"velocity":0.8031496062992126,"duration":0.21744791666662877},{"name":"B4","midi":71,"time":875.1861979166557,"velocity":0.8031496062992126,"duration":0.21744791666662877},{"name":"G#3","midi":56,"time":875.417968749989,"velocity":0.8031496062992126,"duration":0.21744791666662877},{"name":"E4","midi":64,"time":875.417968749989,"velocity":0.8031496062992126,"duration":0.6822916666665151},{"name":"E3","midi":52,"time":875.6510416666556,"velocity":0.8031496062992126,"duration":0.21744791666662877},{"name":"A3","midi":57,"time":875.8828124999889,"velocity":0.8031496062992126,"duration":0.5690104166665151},{"name":"A4","midi":69,"time":876.1145833333221,"velocity":0.8031496062992126,"duration":0.21744791666662877},{"name":"C#5","midi":73,"time":876.3463541666554,"velocity":0.8031496062992126,"duration":1.1471354166664014},{"name":"E3","midi":52,"time":876.579427083322,"velocity":0.8031496062992126,"duration":0.21744791666662877},{"name":"A2","midi":45,"time":876.8124999999886,"velocity":0.8031496062992126,"duration":0.21744791666662877},{"name":"C#3","midi":49,"time":877.0442708333219,"velocity":0.8031496062992126,"duration":0.21744791666662877},{"name":"D2","midi":38,"time":877.2760416666551,"velocity":0.8031496062992126,"duration":0.5690104166665151},{"name":"A4","midi":69,"time":877.5078124999884,"velocity":0.8031496062992126,"duration":0.21744791666662877},{"name":"F#4","midi":66,"time":877.7395833333217,"velocity":0.8031496062992126,"duration":0.21875},{"name":"F#2","midi":42,"time":877.9739583333217,"velocity":0.8031496062992126,"duration":0.21744791666662877},{"name":"A4","midi":69,"time":877.9739583333217,"velocity":0.8031496062992126,"duration":0.21744791666662877},{"name":"G#2","midi":44,"time":878.2044270833217,"velocity":0.8031496062992126,"duration":0.6458333333332575},{"name":"D4","midi":62,"time":878.2044270833217,"velocity":0.8031496062992126,"duration":0.21744791666662877},{"name":"C#5","midi":73,"time":878.4374999999883,"velocity":0.8031496062992126,"duration":0.21744791666662877},{"name":"B4","midi":71,"time":878.6692708333215,"velocity":0.8031496062992126,"duration":0.21744791666674246},{"name":"B2","midi":47,"time":878.9010416666549,"velocity":0.8031496062992126,"duration":0.21744791666662877},{"name":"G#4","midi":68,"time":878.9010416666549,"velocity":0.8031496062992126,"duration":0.21744791666662877},{"name":"C#3","midi":49,"time":879.1328124999882,"velocity":0.8031496062992126,"duration":0.5690104166665151},{"name":"E4","midi":64,"time":879.1328124999882,"velocity":0.8031496062992126,"duration":0.21744791666662877},{"name":"G#4","midi":68,"time":879.3645833333214,"velocity":0.8031496062992126,"duration":0.21744791666662877},{"name":"C#4","midi":61,"time":879.5976562499881,"velocity":0.8031496062992126,"duration":0.21875},{"name":"E3","midi":52,"time":879.8307291666547,"velocity":0.8031496062992126,"duration":0.21744791666662877},{"name":"B4","midi":71,"time":879.8307291666547,"velocity":0.8031496062992126,"duration":0.21744791666662877},{"name":"F#3","midi":54,"time":880.062499999988,"velocity":0.8031496062992126,"duration":0.21744791666662877},{"name":"A4","midi":69,"time":880.062499999988,"velocity":0.8031496062992126,"duration":0.21744791666662877},{"name":"A3","midi":57,"time":880.2942708333212,"velocity":0.8031496062992126,"duration":0.21744791666662877},{"name":"F#4","midi":66,"time":880.2942708333212,"velocity":0.8031496062992126,"duration":0.21744791666662877},{"name":"B3","midi":59,"time":880.5260416666545,"velocity":0.8031496062992126,"duration":0.21744791666662877},{"name":"D4","midi":62,"time":880.5260416666545,"velocity":0.8031496062992126,"duration":0.21744791666662877},{"name":"F#3","midi":54,"time":880.7591145833211,"velocity":0.8031496062992126,"duration":0.21744791666662877},{"name":"F#4","midi":66,"time":880.7591145833211,"velocity":0.8031496062992126,"duration":0.21744791666662877},{"name":"D3","midi":50,"time":880.9908854166544,"velocity":0.8031496062992126,"duration":0.21744791666662877},{"name":"B3","midi":59,"time":880.9908854166544,"velocity":0.8031496062992126,"duration":0.21744791666662877},{"name":"B2","midi":47,"time":881.2226562499876,"velocity":0.8031496062992126,"duration":0.21744791666662877},{"name":"A4","midi":69,"time":881.2226562499876,"velocity":0.8031496062992126,"duration":0.21744791666662877},{"name":"E3","midi":52,"time":881.4544270833209,"velocity":0.8031496062992126,"duration":0.21744791666662877},{"name":"G#4","midi":68,"time":881.4544270833209,"velocity":0.8031496062992126,"duration":0.21744791666662877},{"name":"A3","midi":57,"time":881.6861979166541,"velocity":0.8031496062992126,"duration":0.21744791666662877},{"name":"E4","midi":64,"time":881.6861979166541,"velocity":0.8031496062992126,"duration":0.21744791666662877},{"name":"G#3","midi":56,"time":881.9192708333208,"velocity":0.8031496062992126,"duration":0.21744791666662877},{"name":"F#4","midi":66,"time":881.9192708333208,"velocity":0.8031496062992126,"duration":0.21744791666662877},{"name":"F#3","midi":54,"time":882.1497395833208,"velocity":0.8031496062992126,"duration":0.21744791666662877},{"name":"G#4","midi":68,"time":882.1497395833208,"velocity":0.8031496062992126,"duration":0.21744791666662877},{"name":"E3","midi":52,"time":882.3828124999874,"velocity":0.8031496062992126,"duration":0.21744791666662877},{"name":"A4","midi":69,"time":882.3828124999874,"velocity":0.8031496062992126,"duration":0.21744791666662877},{"name":"D3","midi":50,"time":882.6145833333206,"velocity":0.8031496062992126,"duration":0.2109375},{"name":"B4","midi":71,"time":882.6145833333206,"velocity":0.8031496062992126,"duration":0.2109375},{"name":"C#3","midi":49,"time":882.846354166654,"velocity":0.8031496062992126,"duration":0.21744791666662877},{"name":"A4","midi":69,"time":882.846354166654,"velocity":0.8031496062992126,"duration":0.21744791666662877},{"name":"D3","midi":50,"time":883.0781249999873,"velocity":0.8031496062992126,"duration":0.21744791666662877},{"name":"B4","midi":71,"time":883.0781249999873,"velocity":0.8031496062992126,"duration":0.21744791666662877},{"name":"E3","midi":52,"time":883.3098958333205,"velocity":0.8031496062992126,"duration":0.21875},{"name":"C#5","midi":73,"time":883.3098958333205,"velocity":0.8031496062992126,"duration":0.1015625},{"name":"B4","midi":71,"time":883.4270833333205,"velocity":0.8031496062992126,"duration":0.1015625},{"name":"D3","midi":50,"time":883.5442708333205,"velocity":0.8031496062992126,"duration":0.21875},{"name":"C#5","midi":73,"time":883.5442708333205,"velocity":0.8031496062992126,"duration":0.1015625},{"name":"B4","midi":71,"time":883.6601562499872,"velocity":0.8031496062992126,"duration":0.1015625},{"name":"C#3","midi":49,"time":883.7773437499872,"velocity":0.8031496062992126,"duration":0.21875},{"name":"C#5","midi":73,"time":883.7773437499872,"velocity":0.8031496062992126,"duration":0.1015625},{"name":"B4","midi":71,"time":883.8945312499872,"velocity":0.8031496062992126,"duration":0.1015625},{"name":"B2","midi":47,"time":884.0104166666538,"velocity":0.8031496062992126,"duration":0.21875},{"name":"A4","midi":69,"time":884.0104166666538,"velocity":0.8031496062992126,"duration":0.1015625},{"name":"B4","midi":71,"time":884.1263020833204,"velocity":0.8031496062992126,"duration":0.1015625},{"name":"A2","midi":45,"time":884.2434895833204,"velocity":0.8031496062992126,"duration":0.21744791666662877},{"name":"C#5","midi":73,"time":884.2434895833204,"velocity":0.8031496062992126,"duration":0.21744791666662877},{"name":"D3","midi":50,"time":884.4752604166537,"velocity":0.8031496062992126,"duration":0.21744791666662877},{"name":"A4","midi":69,"time":884.4752604166537,"velocity":0.8031496062992126,"duration":0.21744791666662877},{"name":"C#3","midi":49,"time":884.7083333333203,"velocity":0.8031496062992126,"duration":0.21744791666662877},{"name":"B4","midi":71,"time":884.7083333333203,"velocity":0.8031496062992126,"duration":0.21744791666662877},{"name":"B2","midi":47,"time":884.9401041666536,"velocity":0.8031496062992126,"duration":0.21744791666662877},{"name":"C#5","midi":73,"time":884.9401041666536,"velocity":0.8031496062992126,"duration":0.21744791666662877},{"name":"A2","midi":45,"time":885.1705729166536,"velocity":0.8031496062992126,"duration":0.21744791666662877},{"name":"D5","midi":74,"time":885.1705729166536,"velocity":0.8031496062992126,"duration":0.21744791666662877},{"name":"G2","midi":43,"time":885.4036458333202,"velocity":0.8031496062992126,"duration":0.2109375},{"name":"E5","midi":76,"time":885.4036458333202,"velocity":0.8031496062992126,"duration":0.2109375},{"name":"F#2","midi":42,"time":885.6354166666536,"velocity":0.8031496062992126,"duration":0.21744791666662877},{"name":"D5","midi":74,"time":885.6354166666536,"velocity":0.8031496062992126,"duration":0.21744791666662877},{"name":"G2","midi":43,"time":885.8684895833202,"velocity":0.8031496062992126,"duration":0.21744791666662877},{"name":"E5","midi":76,"time":885.8684895833202,"velocity":0.8031496062992126,"duration":0.21744791666662877},{"name":"A2","midi":45,"time":886.0989583333202,"velocity":0.8031496062992126,"duration":0.21875},{"name":"F#5","midi":78,"time":886.0989583333202,"velocity":0.8031496062992126,"duration":0.1015625},{"name":"E5","midi":76,"time":886.2161458333202,"velocity":0.8031496062992126,"duration":0.1015625},{"name":"G2","midi":43,"time":886.3320312499868,"velocity":0.8031496062992126,"duration":0.21875},{"name":"F#5","midi":78,"time":886.3320312499868,"velocity":0.8031496062992126,"duration":0.1015625},{"name":"E5","midi":76,"time":886.4492187499868,"velocity":0.8031496062992126,"duration":0.1015625},{"name":"F#2","midi":42,"time":886.5664062499868,"velocity":0.8031496062992126,"duration":0.21875},{"name":"F#5","midi":78,"time":886.5664062499868,"velocity":0.8031496062992126,"duration":0.1015625},{"name":"E5","midi":76,"time":886.6822916666534,"velocity":0.8031496062992126,"duration":0.1015625},{"name":"E2","midi":40,"time":886.7994791666534,"velocity":0.8031496062992126,"duration":0.21875},{"name":"D5","midi":74,"time":886.7994791666534,"velocity":0.8031496062992126,"duration":0.1015625},{"name":"E5","midi":76,"time":886.9166666666534,"velocity":0.8031496062992126,"duration":0.1015625},{"name":"D2","midi":38,"time":887.0325520833201,"velocity":0.8031496062992126,"duration":0.21744791666662877},{"name":"F#5","midi":78,"time":887.0325520833201,"velocity":0.8031496062992126,"duration":0.21744791666662877},{"name":"F#2","midi":42,"time":887.2643229166533,"velocity":0.8031496062992126,"duration":0.21744791666662877},{"name":"D5","midi":74,"time":887.2643229166533,"velocity":0.8031496062992126,"duration":0.21744791666662877},{"name":"G2","midi":43,"time":887.4960937499866,"velocity":0.8031496062992126,"duration":0.21744791666662877},{"name":"E5","midi":76,"time":887.4960937499866,"velocity":0.8031496062992126,"duration":0.21744791666662877},{"name":"A2","midi":45,"time":887.7291666666532,"velocity":0.8031496062992126,"duration":0.21744791666662877},{"name":"F#5","midi":78,"time":887.7291666666532,"velocity":0.8031496062992126,"duration":0.21744791666662877},{"name":"B2","midi":47,"time":887.9609374999865,"velocity":0.8031496062992126,"duration":0.21744791666662877},{"name":"G5","midi":79,"time":887.9609374999865,"velocity":0.8031496062992126,"duration":0.21744791666662877},{"name":"C#3","midi":49,"time":888.1927083333197,"velocity":0.8031496062992126,"duration":0.2109375},{"name":"A5","midi":81,"time":888.1927083333197,"velocity":0.8031496062992126,"duration":0.20572916666662877},{"name":"D3","midi":50,"time":888.4257812499864,"velocity":0.8031496062992126,"duration":0.21744791666662877},{"name":"G#5","midi":80,"time":888.4257812499864,"velocity":0.8031496062992126,"duration":0.21744791666662877},{"name":"E3","midi":52,"time":888.6575520833196,"velocity":0.8031496062992126,"duration":0.21744791666662877},{"name":"A5","midi":81,"time":888.6575520833196,"velocity":0.8031496062992126,"duration":0.21744791666662877},{"name":"D3","midi":50,"time":888.8906249999862,"velocity":0.8031496062992126,"duration":0.21875},{"name":"B5","midi":83,"time":888.8906249999862,"velocity":0.8031496062992126,"duration":0.1015625},{"name":"A5","midi":81,"time":889.0065104166529,"velocity":0.8031496062992126,"duration":0.1015625},{"name":"C#3","midi":49,"time":889.1223958333196,"velocity":0.8031496062992126,"duration":0.21875},{"name":"B5","midi":83,"time":889.1223958333196,"velocity":0.8031496062992126,"duration":0.1015625},{"name":"A5","midi":81,"time":889.2395833333196,"velocity":0.8031496062992126,"duration":0.1015625},{"name":"B2","midi":47,"time":889.3554687499862,"velocity":0.8031496062992126,"duration":0.21875},{"name":"B5","midi":83,"time":889.3554687499862,"velocity":0.8031496062992126,"duration":0.1015625},{"name":"A5","midi":81,"time":889.4726562499862,"velocity":0.8031496062992126,"duration":0.1015625},{"name":"A2","midi":45,"time":889.5898437499862,"velocity":0.8031496062992126,"duration":0.21875},{"name":"G#5","midi":80,"time":889.5898437499862,"velocity":0.8031496062992126,"duration":0.1015625},{"name":"A5","midi":81,"time":889.7057291666529,"velocity":0.8031496062992126,"duration":0.1015625},{"name":"G#2","midi":44,"time":889.8229166666529,"velocity":0.8031496062992126,"duration":0.21744791666662877},{"name":"B5","midi":83,"time":889.8229166666529,"velocity":0.8031496062992126,"duration":0.21744791666662877},{"name":"E2","midi":40,"time":890.0546874999861,"velocity":0.8031496062992126,"duration":0.21744791666662877},{"name":"A5","midi":81,"time":890.0546874999861,"velocity":0.8031496062992126,"duration":0.21744791666662877},{"name":"F#2","midi":42,"time":890.2864583333194,"velocity":0.8031496062992126,"duration":0.21744791666662877},{"name":"G#5","midi":80,"time":890.2864583333194,"velocity":0.8031496062992126,"duration":0.21744791666662877},{"name":"G#2","midi":44,"time":890.5182291666526,"velocity":0.8031496062992126,"duration":0.21744791666662877},{"name":"F#5","midi":78,"time":890.5182291666526,"velocity":0.8031496062992126,"duration":0.21744791666662877},{"name":"A2","midi":45,"time":890.7513020833193,"velocity":0.8031496062992126,"duration":0.21744791666662877},{"name":"E5","midi":76,"time":890.7513020833193,"velocity":0.8031496062992126,"duration":0.21744791666662877},{"name":"B2","midi":47,"time":890.9830729166525,"velocity":0.8031496062992126,"duration":0.21744791666662877},{"name":"D5","midi":74,"time":890.9830729166525,"velocity":0.8031496062992126,"duration":0.21744791666662877},{"name":"A2","midi":45,"time":891.2148437499858,"velocity":0.8031496062992126,"duration":0.21744791666662877},{"name":"C#5","midi":73,"time":891.2148437499858,"velocity":0.8031496062992126,"duration":0.21744791666662877},{"name":"B2","midi":47,"time":891.446614583319,"velocity":0.8031496062992126,"duration":0.21744791666662877},{"name":"B4","midi":71,"time":891.446614583319,"velocity":0.8031496062992126,"duration":0.21744791666662877},{"name":"C#3","midi":49,"time":891.6783854166523,"velocity":0.8031496062992126,"duration":0.1015625},{"name":"A4","midi":69,"time":891.6783854166523,"velocity":0.8031496062992126,"duration":0.21875},{"name":"B2","midi":47,"time":891.7955729166523,"velocity":0.8031496062992126,"duration":0.1015625},{"name":"C#3","midi":49,"time":891.9127604166523,"velocity":0.8031496062992126,"duration":0.1015625},{"name":"B4","midi":71,"time":891.9127604166523,"velocity":0.8031496062992126,"duration":0.21875},{"name":"B2","midi":47,"time":892.0299479166523,"velocity":0.8031496062992126,"duration":0.1015625},{"name":"C#3","midi":49,"time":892.1445312499857,"velocity":0.8031496062992126,"duration":0.1015625},{"name":"C#5","midi":73,"time":892.1445312499857,"velocity":0.8031496062992126,"duration":0.21875},{"name":"B2","midi":47,"time":892.2617187499857,"velocity":0.8031496062992126,"duration":0.1015625},{"name":"A2","midi":45,"time":892.3789062499857,"velocity":0.8031496062992126,"duration":0.1015625},{"name":"D5","midi":74,"time":892.3789062499857,"velocity":0.8031496062992126,"duration":0.21875},{"name":"B2","midi":47,"time":892.4947916666523,"velocity":0.8031496062992126,"duration":0.1015625},{"name":"C#3","midi":49,"time":892.6119791666523,"velocity":0.8031496062992126,"duration":0.21744791666662877},{"name":"E5","midi":76,"time":892.6119791666523,"velocity":0.8031496062992126,"duration":0.21744791666662877},{"name":"B2","midi":47,"time":892.8437499999856,"velocity":0.8031496062992126,"duration":0.21744791666662877},{"name":"D5","midi":74,"time":892.8437499999856,"velocity":0.8031496062992126,"duration":0.21744791666662877},{"name":"A2","midi":45,"time":893.0755208333188,"velocity":0.8031496062992126,"duration":0.21744791666662877},{"name":"C#5","midi":73,"time":893.0755208333188,"velocity":0.8031496062992126,"duration":0.21744791666662877},{"name":"B2","midi":47,"time":893.3072916666521,"velocity":0.8031496062992126,"duration":0.21744791666662877},{"name":"B4","midi":71,"time":893.3072916666521,"velocity":0.8031496062992126,"duration":0.21744791666662877},{"name":"C#3","midi":49,"time":893.5403645833187,"velocity":0.8031496062992126,"duration":0.21744791666662877},{"name":"A4","midi":69,"time":893.5403645833187,"velocity":0.8031496062992126,"duration":0.21744791666662877},{"name":"A2","midi":45,"time":893.772135416652,"velocity":0.8031496062992126,"duration":0.21744791666662877},{"name":"G4","midi":67,"time":893.772135416652,"velocity":0.8031496062992126,"duration":0.21744791666662877},{"name":"D3","midi":50,"time":894.0039062499852,"velocity":0.8031496062992126,"duration":0.21744791666662877},{"name":"F#4","midi":66,"time":894.0039062499852,"velocity":0.8031496062992126,"duration":0.21744791666662877},{"name":"C#3","midi":49,"time":894.2356770833185,"velocity":0.8031496062992126,"duration":0.21744791666662877},{"name":"E5","midi":76,"time":894.2356770833185,"velocity":0.8031496062992126,"duration":0.21744791666662877},{"name":"B2","midi":47,"time":894.4674479166517,"velocity":0.8031496062992126,"duration":0.21744791666662877},{"name":"D5","midi":74,"time":894.4674479166517,"velocity":0.8031496062992126,"duration":0.21744791666662877},{"name":"C#3","midi":49,"time":894.7005208333184,"velocity":0.8031496062992126,"duration":0.21744791666662877},{"name":"C#5","midi":73,"time":894.7005208333184,"velocity":0.8031496062992126,"duration":0.21744791666662877},{"name":"D3","midi":50,"time":894.9322916666516,"velocity":0.8031496062992126,"duration":0.21744791666662877},{"name":"B4","midi":71,"time":894.9322916666516,"velocity":0.8031496062992126,"duration":0.21744791666662877},{"name":"B2","midi":47,"time":895.1627604166516,"velocity":0.8031496062992126,"duration":0.21744791666662877},{"name":"A4","midi":69,"time":895.1627604166516,"velocity":0.8031496062992126,"duration":0.21744791666662877},{"name":"E3","midi":52,"time":895.3958333333183,"velocity":0.8031496062992126,"duration":0.21744791666662877},{"name":"G#4","midi":68,"time":895.3958333333183,"velocity":0.8031496062992126,"duration":0.21744791666662877},{"name":"F#3","midi":54,"time":895.6276041666515,"velocity":0.8031496062992126,"duration":0.21744791666662877},{"name":"E4","midi":64,"time":895.6276041666515,"velocity":0.8031496062992126,"duration":0.21744791666662877},{"name":"E3","midi":52,"time":895.8606770833181,"velocity":0.8031496062992126,"duration":0.21744791666662877},{"name":"F#4","midi":66,"time":895.8606770833181,"velocity":0.8031496062992126,"duration":0.21744791666662877},{"name":"D3","midi":50,"time":896.0911458333181,"velocity":0.8031496062992126,"duration":0.21744791666662877},{"name":"G#4","midi":68,"time":896.0911458333181,"velocity":0.8031496062992126,"duration":0.21744791666662877},{"name":"C#3","midi":49,"time":896.3242187499848,"velocity":0.8031496062992126,"duration":0.21744791666662877},{"name":"A4","midi":69,"time":896.3242187499848,"velocity":0.8031496062992126,"duration":0.21744791666662877},{"name":"B2","midi":47,"time":896.555989583318,"velocity":0.8031496062992126,"duration":0.21744791666662877},{"name":"G#4","midi":68,"time":896.555989583318,"velocity":0.8031496062992126,"duration":0.21744791666662877},{"name":"C#3","midi":49,"time":896.7877604166513,"velocity":0.8031496062992126,"duration":0.21744791666662877},{"name":"A4","midi":69,"time":896.7877604166513,"velocity":0.8031496062992126,"duration":0.21744791666662877},{"name":"D3","midi":50,"time":897.0195312499845,"velocity":0.8031496062992126,"duration":0.21744791666662877},{"name":"B4","midi":71,"time":897.0195312499845,"velocity":0.8031496062992126,"duration":0.21744791666662877},{"name":"E3","midi":52,"time":897.2513020833178,"velocity":0.8031496062992126,"duration":0.453125},{"name":"A4","midi":69,"time":897.2513020833178,"velocity":0.8031496062992126,"duration":0.07291666666662877},{"name":"G#4","midi":68,"time":897.3294270833178,"velocity":0.8031496062992126,"duration":0.07421875},{"name":"A4","midi":69,"time":897.4062499999844,"velocity":0.8031496062992126,"duration":0.07421875},{"name":"G#4","midi":68,"time":897.4856770833178,"velocity":0.8031496062992126,"duration":0.07421875},{"name":"A4","midi":69,"time":897.5638020833178,"velocity":0.8031496062992126,"duration":0.07421875},{"name":"G#4","midi":68,"time":897.6406249999844,"velocity":0.8031496062992126,"duration":0.47265625},{"name":"E2","midi":40,"time":897.7200520833178,"velocity":0.8031496062992126,"duration":0.45052083333325754},{"name":"A2","midi":45,"time":898.1848958333177,"velocity":0.8031496062992126,"duration":0.4492187499998863},{"name":"A4","midi":69,"time":898.1848958333177,"velocity":0.8031496062992126,"duration":0.21744791666662877},{"name":"B4","midi":71,"time":898.4166666666509,"velocity":0.8031496062992126,"duration":0.21744791666662877},{"name":"A3","midi":57,"time":898.6484374999842,"velocity":0.8031496062992126,"duration":0.21744791666662877},{"name":"C#5","midi":73,"time":898.6484374999842,"velocity":0.8031496062992126,"duration":0.21744791666662877},{"name":"G#3","midi":56,"time":898.8815104166508,"velocity":0.8031496062992126,"duration":0.21744791666662877},{"name":"D5","midi":74,"time":898.8815104166508,"velocity":0.8031496062992126,"duration":0.21744791666662877},{"name":"F#3","midi":54,"time":899.1119791666508,"velocity":0.8031496062992126,"duration":0.21744791666662877},{"name":"E5","midi":76,"time":899.1119791666508,"velocity":0.8031496062992126,"duration":0.21744791666662877},{"name":"E3","midi":52,"time":899.3450520833175,"velocity":0.8031496062992126,"duration":0.21744791666662877},{"name":"C#5","midi":73,"time":899.3450520833175,"velocity":0.8031496062992126,"duration":0.21744791666662877},{"name":"D3","midi":50,"time":899.5768229166507,"velocity":0.8031496062992126,"duration":0.44921875},{"name":"F#5","midi":78,"time":899.5768229166507,"velocity":0.8031496062992126,"duration":0.21744791666662877},{"name":"E5","midi":76,"time":899.8098958333173,"velocity":0.8031496062992126,"duration":0.21744791666674246},{"name":"E3","midi":52,"time":900.0403645833175,"velocity":0.8031496062992126,"duration":0.1015625},{"name":"D5","midi":74,"time":900.0403645833175,"velocity":0.8031496062992126,"duration":0.21875},{"name":"D3","midi":50,"time":900.1575520833175,"velocity":0.8031496062992126,"duration":0.1015625},{"name":"E3","midi":52,"time":900.2734374999841,"velocity":0.8031496062992126,"duration":0.1015625},{"name":"C#5","midi":73,"time":900.2734374999841,"velocity":0.8031496062992126,"duration":0.21875},{"name":"D3","midi":50,"time":900.3906249999841,"velocity":0.8031496062992126,"duration":0.1015625},{"name":"E3","midi":52,"time":900.5078124999841,"velocity":0.8031496062992126,"duration":0.1015625},{"name":"B4","midi":71,"time":900.5078124999841,"velocity":0.8031496062992126,"duration":0.21875},{"name":"D3","midi":50,"time":900.6236979166507,"velocity":0.8031496062992126,"duration":0.1015625},{"name":"C#3","midi":49,"time":900.7408854166507,"velocity":0.8031496062992126,"duration":0.1015625},{"name":"A4","midi":69,"time":900.7408854166507,"velocity":0.8031496062992126,"duration":0.21875},{"name":"D3","midi":50,"time":900.8580729166507,"velocity":0.8031496062992126,"duration":0.1015625},{"name":"E3","midi":52,"time":900.9739583333173,"velocity":0.8031496062992126,"duration":0.21744791666662877},{"name":"G#4","midi":68,"time":900.9739583333173,"velocity":0.8031496062992126,"duration":0.21744791666662877},{"name":"F#3","midi":54,"time":901.2057291666506,"velocity":0.8031496062992126,"duration":0.21744791666662877},{"name":"A4","midi":69,"time":901.2057291666506,"velocity":0.8031496062992126,"duration":0.21744791666662877},{"name":"G#3","midi":56,"time":901.4374999999839,"velocity":0.8031496062992126,"duration":0.21744791666662877},{"name":"B4","midi":71,"time":901.4374999999839,"velocity":0.8031496062992126,"duration":0.21744791666662877},{"name":"F#3","midi":54,"time":901.6705729166505,"velocity":0.8031496062992126,"duration":0.21744791666662877},{"name":"C#5","midi":73,"time":901.6705729166505,"velocity":0.8031496062992126,"duration":0.21744791666662877},{"name":"E3","midi":52,"time":901.9023437499837,"velocity":0.8031496062992126,"duration":0.21744791666662877},{"name":"D5","midi":74,"time":901.9023437499837,"velocity":0.8031496062992126,"duration":0.21744791666662877},{"name":"D3","midi":50,"time":902.1328124999837,"velocity":0.8031496062992126,"duration":0.21744791666662877},{"name":"B4","midi":71,"time":902.1328124999837,"velocity":0.8031496062992126,"duration":0.21744791666662877},{"name":"C#3","midi":49,"time":902.3658854166504,"velocity":0.8031496062992126,"duration":0.4492187499998863},{"name":"E5","midi":76,"time":902.3658854166504,"velocity":0.8031496062992126,"duration":0.21744791666662877},{"name":"D5","midi":74,"time":902.5976562499836,"velocity":0.8031496062992126,"duration":0.21744791666662877},{"name":"D3","midi":50,"time":902.8307291666503,"velocity":0.8031496062992126,"duration":0.1015625},{"name":"C#5","midi":73,"time":902.8307291666503,"velocity":0.8031496062992126,"duration":0.21875},{"name":"C#3","midi":49,"time":902.9466145833169,"velocity":0.8031496062992126,"duration":0.1015625},{"name":"D3","midi":50,"time":903.0624999999836,"velocity":0.8031496062992126,"duration":0.1015625},{"name":"B4","midi":71,"time":903.0624999999836,"velocity":0.8031496062992126,"duration":0.21875},{"name":"C#3","midi":49,"time":903.1796874999836,"velocity":0.8031496062992126,"duration":0.1015625},{"name":"D3","midi":50,"time":903.2955729166503,"velocity":0.8031496062992126,"duration":0.1015625},{"name":"A4","midi":69,"time":903.2955729166503,"velocity":0.8031496062992126,"duration":0.21875},{"name":"C#3","midi":49,"time":903.4127604166503,"velocity":0.8031496062992126,"duration":0.1015625},{"name":"B2","midi":47,"time":903.5299479166503,"velocity":0.8031496062992126,"duration":0.1015625},{"name":"G#4","midi":68,"time":903.5299479166503,"velocity":0.8031496062992126,"duration":0.21875},{"name":"C#3","midi":49,"time":903.6458333333169,"velocity":0.8031496062992126,"duration":0.1015625},{"name":"D3","midi":50,"time":903.7630208333169,"velocity":0.8031496062992126,"duration":0.21744791666662877},{"name":"F#4","midi":66,"time":903.7630208333169,"velocity":0.8031496062992126,"duration":0.21744791666662877},{"name":"E3","midi":52,"time":903.9947916666501,"velocity":0.8031496062992126,"duration":0.21744791666662877},{"name":"G#4","midi":68,"time":903.9947916666501,"velocity":0.8031496062992126,"duration":0.21744791666662877},{"name":"F#3","midi":54,"time":904.2265624999834,"velocity":0.8031496062992126,"duration":0.21744791666662877},{"name":"A4","midi":69,"time":904.2265624999834,"velocity":0.8031496062992126,"duration":0.21744791666662877},{"name":"E3","midi":52,"time":904.4583333333167,"velocity":0.8031496062992126,"duration":0.21744791666662877},{"name":"B4","midi":71,"time":904.4583333333167,"velocity":0.8031496062992126,"duration":0.21744791666662877},{"name":"D3","midi":50,"time":904.6914062499833,"velocity":0.8031496062992126,"duration":0.21744791666662877},{"name":"C#5","midi":73,"time":904.6914062499833,"velocity":0.8031496062992126,"duration":0.21744791666662877},{"name":"C#3","midi":49,"time":904.9231770833165,"velocity":0.8031496062992126,"duration":0.21744791666662877},{"name":"A4","midi":69,"time":904.9231770833165,"velocity":0.8031496062992126,"duration":0.21744791666662877},{"name":"B2","midi":47,"time":905.1549479166498,"velocity":0.8031496062992126,"duration":0.21744791666662877},{"name":"D5","midi":74,"time":905.1549479166498,"velocity":0.8031496062992126,"duration":0.21744791666662877},{"name":"C#3","midi":49,"time":905.3867187499831,"velocity":0.8031496062992126,"duration":0.21744791666662877},{"name":"C#5","midi":73,"time":905.3867187499831,"velocity":0.8031496062992126,"duration":0.21744791666662877},{"name":"D3","midi":50,"time":905.6184895833163,"velocity":0.8031496062992126,"duration":0.21744791666662877},{"name":"B4","midi":71,"time":905.6184895833163,"velocity":0.8031496062992126,"duration":0.21744791666662877},{"name":"C#3","midi":49,"time":905.851562499983,"velocity":0.8031496062992126,"duration":0.21744791666662877},{"name":"A4","midi":69,"time":905.851562499983,"velocity":0.8031496062992126,"duration":0.21744791666662877},{"name":"B2","midi":47,"time":906.082031249983,"velocity":0.8031496062992126,"duration":0.21744791666662877},{"name":"G#4","midi":68,"time":906.082031249983,"velocity":0.8031496062992126,"duration":0.21744791666662877},{"name":"A2","midi":45,"time":906.3151041666496,"velocity":0.8031496062992126,"duration":0.21744791666662877},{"name":"F#4","midi":66,"time":906.3151041666496,"velocity":0.8031496062992126,"duration":0.21744791666662877},{"name":"G#2","midi":44,"time":906.5468749999828,"velocity":0.8031496062992126,"duration":0.4570312499998863},{"name":"E4","midi":64,"time":906.5468749999828,"velocity":0.8031496062992126,"duration":0.22135416666662877},{"name":"D5","midi":74,"time":906.7825520833161,"velocity":0.8031496062992126,"duration":0.22135416666662877},{"name":"E3","midi":52,"time":907.0182291666493,"velocity":0.8031496062992126,"duration":0.4570312499998863},{"name":"C#5","midi":73,"time":907.0182291666493,"velocity":0.8031496062992126,"duration":0.22135416666662877},{"name":"B4","midi":71,"time":907.2539062499826,"velocity":0.8031496062992126,"duration":0.22135416666662877},{"name":"F#3","midi":54,"time":907.4895833333159,"velocity":0.8031496062992126,"duration":0.4570312499998863},{"name":"A4","midi":69,"time":907.4895833333159,"velocity":0.8031496062992126,"duration":0.22135416666662877},{"name":"G#4","midi":68,"time":907.7252604166491,"velocity":0.8031496062992126,"duration":0.22135416666662877},{"name":"D3","midi":50,"time":907.9622395833157,"velocity":0.8031496062992126,"duration":0.45703125},{"name":"A4","midi":69,"time":907.9622395833157,"velocity":0.8031496062992126,"duration":0.22135416666662877},{"name":"B4","midi":71,"time":908.1966145833157,"velocity":0.8031496062992126,"duration":0.22135416666662877},{"name":"E3","midi":52,"time":908.4322916666491,"velocity":0.8031496062992126,"duration":0.46744791666674246},{"name":"C#5","midi":73,"time":908.4322916666491,"velocity":0.8031496062992126,"duration":0.09375},{"name":"B4","midi":71,"time":908.5338541666491,"velocity":0.8031496062992126,"duration":0.09375},{"name":"C#5","midi":73,"time":908.6367187499825,"velocity":0.8031496062992126,"duration":0.09375},{"name":"B4","midi":71,"time":908.7382812499825,"velocity":0.8031496062992126,"duration":0.09375},{"name":"C#5","midi":73,"time":908.8398437499825,"velocity":0.8031496062992126,"duration":0.09244791666662877},{"name":"E2","midi":40,"time":908.9140624999825,"velocity":0.8031496062992126,"duration":0.46614583333325754},{"name":"B4","midi":71,"time":908.9401041666491,"velocity":0.8031496062992126,"duration":0.19921875},{"name":"A4","midi":69,"time":909.1536458333157,"velocity":0.8031496062992126,"duration":0.2265625},{"name":"A1","midi":33,"time":909.3945312499824,"velocity":0.8031496062992126,"duration":5.48046875},{"name":"A4","midi":69,"time":909.3945312499824,"velocity":0.8031496062992126,"duration":5.48046875},{"name":"C#2","midi":37,"time":909.9388020833157,"velocity":0.8031496062992126,"duration":0.53125},{"name":"E2","midi":40,"time":910.4843749999824,"velocity":0.8031496062992126,"duration":0.53125},{"name":"A2","midi":45,"time":911.0286458333157,"velocity":0.8031496062992126,"duration":3.8463541666666288}],"controlChanges":{"7":[{"number":7,"time":0,"value":0.7874015748031497}]},"id":1,"name":"Piano 1","instrumentNumber":6,"instrument":"harpsichord","instrumentFamily":"piano","channelNumber":0,"isPercussion":false}]}