{"header":{"PPQ":240,"timeSignature":[12,8],"bpm":189.000189000189,"name":"--------"},"startTime":0,"duration":165.71412000000015,"tracks":[{"startTime":0,"duration":0,"length":0,"notes":[],"controlChanges":{},"id":0,"name":"--------"},{"startTime":1.5873,"duration":165.71412000000015,"length":1462,"notes":[{"name":"E4","midi":64,"time":1.5873,"velocity":0.5826771653543307,"duration":0.15873000000000004},{"name":"F#4","midi":66,"time":1.74603,"velocity":0.5826771653543307,"duration":0.15873000000000004},{"name":"G4","midi":67,"time":1.90476,"velocity":0.5826771653543307,"duration":0.14682525000000002},{"name":"F#4","midi":66,"time":1.989416,"velocity":0.5826771653543307,"duration":0.1468252499999998},{"name":"G4","midi":67,"time":2.052908,"velocity":0.5826771653543307,"duration":0.23148124999999986},{"name":"A4","midi":69,"time":2.38095,"velocity":0.5826771653543307,"duration":0.1190475000000002},{"name":"G4","midi":67,"time":2.4999975,"velocity":0.5826771653543307,"duration":0.1190475000000002},{"name":"F#4","midi":66,"time":2.6190450000000003,"velocity":0.5826771653543307,"duration":0.1190475000000002},{"name":"G4","midi":67,"time":2.7380925000000005,"velocity":0.5826771653543307,"duration":0.1190475000000002},{"name":"A4","midi":69,"time":2.8571400000000007,"velocity":0.5826771653543307,"duration":0.41137524999999986},{"name":"B4","midi":71,"time":3.3333300000000006,"velocity":0.5826771653543307,"duration":0.1190475000000002},{"name":"A4","midi":69,"time":3.4523775000000008,"velocity":0.5826771653543307,"duration":0.1190475000000002},{"name":"G4","midi":67,"time":3.571425000000001,"velocity":0.5826771653543307,"duration":0.1190475000000002},{"name":"A4","midi":69,"time":3.690472500000001,"velocity":0.5826771653543307,"duration":0.1190475000000002},{"name":"B4","midi":71,"time":3.8095200000000013,"velocity":0.5826771653543307,"duration":0.3267192499999996},{"name":"G4","midi":67,"time":4.285710000000001,"velocity":0.5826771653543307,"duration":0.32671925},{"name":"E4","midi":64,"time":4.761900000000001,"velocity":0.5826771653543307,"duration":0.34788324999999976},{"name":"C5","midi":72,"time":5.238090000000001,"velocity":0.5826771653543307,"duration":0.9523799999999998},{"name":"B4","midi":71,"time":6.19047,"velocity":0.5826771653543307,"duration":0.35714250000000014},{"name":"D#5","midi":75,"time":6.5476125000000005,"velocity":0.5826771653543307,"duration":0.11904749999999975},{"name":"E5","midi":76,"time":6.66666,"velocity":0.5826771653543307,"duration":0.17857125000000007},{"name":"A4","midi":69,"time":7.14285,"velocity":0.5826771653543307,"duration":0.9523800000000007},{"name":"G4","midi":67,"time":8.09523,"velocity":0.5826771653543307,"duration":0.35714250000000014},{"name":"D#5","midi":75,"time":8.452372500000001,"velocity":0.5826771653543307,"duration":0.11904750000000064},{"name":"E5","midi":76,"time":8.571420000000002,"velocity":0.5826771653543307,"duration":0.18915325000000038},{"name":"F#4","midi":66,"time":9.047610000000002,"velocity":0.5826771653543307,"duration":0.6349199999999993},{"name":"G4","midi":67,"time":9.682530000000002,"velocity":0.5826771653543307,"duration":0.15873000000000026},{"name":"A4","midi":69,"time":9.841260000000002,"velocity":0.5826771653543307,"duration":0.15873000000000026},{"name":"G4","midi":67,"time":9.999990000000002,"velocity":0.5826771653543307,"duration":0.15873000000000026},{"name":"F#4","midi":66,"time":10.158720000000002,"velocity":0.5826771653543307,"duration":0.15873000000000026},{"name":"E4","midi":64,"time":10.317450000000003,"velocity":0.5826771653543307,"duration":0.15873000000000026},{"name":"D#4","midi":63,"time":10.476180000000003,"velocity":0.5826771653543307,"duration":0.15873000000000026},{"name":"C5","midi":72,"time":10.634910000000003,"velocity":0.5826771653543307,"duration":0.15873000000000026},{"name":"B4","midi":71,"time":10.793640000000003,"velocity":0.5826771653543307,"duration":0.15873000000000026},{"name":"A4","midi":69,"time":10.952370000000004,"velocity":0.5826771653543307,"duration":0.15873000000000026},{"name":"G4","midi":67,"time":11.111100000000004,"velocity":0.5826771653543307,"duration":0.15873000000000026},{"name":"F#4","midi":66,"time":11.269830000000004,"velocity":0.5826771653543307,"duration":0.15873000000000026},{"name":"G4","midi":67,"time":11.428560000000004,"velocity":0.5826771653543307,"duration":0.15873000000000026},{"name":"A4","midi":69,"time":11.587290000000005,"velocity":0.5826771653543307,"duration":0.15873000000000026},{"name":"B4","midi":71,"time":11.746020000000005,"velocity":0.5826771653543307,"duration":0.15873000000000026},{"name":"A4","midi":69,"time":11.904750000000005,"velocity":0.5826771653543307,"duration":0.15873000000000026},{"name":"G4","midi":67,"time":12.063480000000006,"velocity":0.5826771653543307,"duration":0.15873000000000026},{"name":"F#4","midi":66,"time":12.222210000000006,"velocity":0.5826771653543307,"duration":0.15873000000000026},{"name":"E4","midi":64,"time":12.380940000000006,"velocity":0.5826771653543307,"duration":0.15873000000000026},{"name":"E5","midi":76,"time":12.539670000000006,"velocity":0.5826771653543307,"duration":0.15873000000000026},{"name":"D5","midi":74,"time":12.698400000000007,"velocity":0.5826771653543307,"duration":0.15873000000000026},{"name":"C#5","midi":73,"time":12.857130000000007,"velocity":0.5826771653543307,"duration":0.15873000000000026},{"name":"B4","midi":71,"time":13.015860000000007,"velocity":0.5826771653543307,"duration":0.15873000000000026},{"name":"B3","midi":59,"time":13.015860000000007,"velocity":0.5826771653543307,"duration":0.15873000000000026},{"name":"A#4","midi":70,"time":13.174590000000007,"velocity":0.5826771653543307,"duration":0.15873000000000026},{"name":"C#4","midi":61,"time":13.174590000000007,"velocity":0.5826771653543307,"duration":0.15873000000000026},{"name":"D4","midi":62,"time":13.333320000000008,"velocity":0.5826771653543307,"duration":0.13624325000000148},{"name":"B4","midi":71,"time":13.333320000000008,"velocity":0.5826771653543307,"duration":0.15873000000000204},{"name":"C#4","midi":61,"time":13.417976000000008,"velocity":0.5826771653543307,"duration":0.10449725000000143},{"name":"D4","midi":62,"time":13.470886000000009,"velocity":0.5826771653543307,"duration":0.22089925000000044},{"name":"D5","midi":74,"time":13.49205000000001,"velocity":0.5826771653543307,"duration":0.15873000000000026},{"name":"F#5","midi":78,"time":13.65078000000001,"velocity":0.5826771653543307,"duration":0.15873000000000026},{"name":"G#5","midi":80,"time":13.80951000000001,"velocity":0.5826771653543307,"duration":0.18915325000000038},{"name":"E4","midi":64,"time":13.80951000000001,"velocity":0.5826771653543307,"duration":0.11904750000000064},{"name":"D4","midi":62,"time":13.92855750000001,"velocity":0.5826771653543307,"duration":0.11904749999999886},{"name":"C#4","midi":61,"time":14.04760500000001,"velocity":0.5826771653543307,"duration":0.11904750000000064},{"name":"D4","midi":62,"time":14.16665250000001,"velocity":0.5826771653543307,"duration":0.11904750000000064},{"name":"C#5","midi":73,"time":14.285700000000011,"velocity":0.5826771653543307,"duration":0.15873000000000026},{"name":"E4","midi":64,"time":14.285700000000011,"velocity":0.5826771653543307,"duration":0.34788325000000064},{"name":"E5","midi":76,"time":14.444430000000011,"velocity":0.5826771653543307,"duration":0.15873000000000026},{"name":"G5","midi":79,"time":14.603160000000011,"velocity":0.5826771653543307,"duration":0.15873000000000026},{"name":"A#5","midi":82,"time":14.761890000000012,"velocity":0.5826771653543307,"duration":0.18915325000000038},{"name":"F#4","midi":66,"time":14.761890000000012,"velocity":0.5826771653543307,"duration":0.11904750000000064},{"name":"E4","midi":64,"time":14.880937500000012,"velocity":0.5826771653543307,"duration":0.11904749999999886},{"name":"D4","midi":62,"time":14.999985000000011,"velocity":0.5826771653543307,"duration":0.11904750000000064},{"name":"E4","midi":64,"time":15.119032500000012,"velocity":0.5826771653543307,"duration":0.11904750000000064},{"name":"D5","midi":74,"time":15.238080000000013,"velocity":0.5826771653543307,"duration":0.15873000000000026},{"name":"F#4","midi":66,"time":15.238080000000013,"velocity":0.5826771653543307,"duration":0.17857125000000096},{"name":"F#5","midi":78,"time":15.396810000000013,"velocity":0.5826771653543307,"duration":0.15873000000000026},{"name":"A#5","midi":82,"time":15.555540000000013,"velocity":0.5826771653543307,"duration":0.15873000000000026},{"name":"B5","midi":83,"time":15.714270000000013,"velocity":0.5826771653543307,"duration":0.6349199999999975},{"name":"D4","midi":62,"time":15.714270000000013,"velocity":0.5826771653543307,"duration":0.18915325000000038},{"name":"B3","midi":59,"time":16.190460000000012,"velocity":0.5826771653543307,"duration":0.18915324999999683},{"name":"A5","midi":81,"time":16.34919000000001,"velocity":0.5826771653543307,"duration":0.15872999999999848},{"name":"G5","midi":79,"time":16.50792000000001,"velocity":0.5826771653543307,"duration":0.15872999999999848},{"name":"G4","midi":67,"time":16.666650000000008,"velocity":0.5826771653543307,"duration":0.9523799999999945},{"name":"F#5","midi":78,"time":16.666650000000008,"velocity":0.5826771653543307,"duration":0.15872999999999848},{"name":"E5","midi":76,"time":16.825380000000006,"velocity":0.5826771653543307,"duration":0.15872999999999848},{"name":"D#5","midi":75,"time":16.984110000000005,"velocity":0.5826771653543307,"duration":0.15872999999999848},{"name":"E5","midi":76,"time":17.142840000000003,"velocity":0.5826771653543307,"duration":0.952379999999998},{"name":"F#4","midi":66,"time":17.619030000000002,"velocity":0.5826771653543307,"duration":0.35714249999999836},{"name":"A#4","midi":70,"time":17.9761725,"velocity":0.5826771653543307,"duration":0.11904750000000064},{"name":"D5","midi":74,"time":18.09522,"velocity":0.5826771653543307,"duration":0.952379999999998},{"name":"B4","midi":71,"time":18.09522,"velocity":0.5826771653543307,"duration":0.18915325000000038},{"name":"E4","midi":64,"time":18.57141,"velocity":0.5826771653543307,"duration":0.9523800000000016},{"name":"D5","midi":74,"time":19.0476,"velocity":0.5826771653543307,"duration":0.22089924999999866},{"name":"C#5","midi":73,"time":19.248658,"velocity":0.5826771653543307,"duration":0.093915250000002},{"name":"D5","midi":74,"time":19.301568,"velocity":0.5826771653543307,"duration":0.08333325000000258},{"name":"C#5","midi":73,"time":19.375642000000003,"velocity":0.5826771653543307,"duration":0.08333324999999903},{"name":"D5","midi":74,"time":19.439134000000003,"velocity":0.5826771653543307,"duration":0.09391524999999845},{"name":"C#5","midi":73,"time":19.513208000000002,"velocity":0.5826771653543307,"duration":0.4960312500000015},{"name":"D4","midi":62,"time":19.52379,"velocity":0.5826771653543307,"duration":0.18915325000000038},{"name":"A#4","midi":70,"time":19.880932500000004,"velocity":0.5826771653543307,"duration":0.11904750000000064},{"name":"B4","midi":71,"time":19.999980000000004,"velocity":0.5826771653543307,"duration":0.952379999999998},{"name":"C#4","midi":61,"time":20.476170000000003,"velocity":0.5826771653543307,"duration":0.6349199999999975},{"name":"A#4","midi":70,"time":20.952360000000002,"velocity":0.5826771653543307,"duration":0.47618999999999545},{"name":"D4","midi":62,"time":21.11109,"velocity":0.5826771653543307,"duration":0.15872999999999848},{"name":"E4","midi":64,"time":21.26982,"velocity":0.5826771653543307,"duration":0.15872999999999848},{"name":"B4","midi":71,"time":21.428549999999998,"velocity":0.5826771653543307,"duration":0.47618999999999545},{"name":"D4","midi":62,"time":21.428549999999998,"velocity":0.5826771653543307,"duration":0.15872999999999848},{"name":"C#4","midi":61,"time":21.587279999999996,"velocity":0.5826771653543307,"duration":0.15872999999999848},{"name":"B3","midi":59,"time":21.746009999999995,"velocity":0.5826771653543307,"duration":0.15872999999999848},{"name":"C#5","midi":73,"time":21.904739999999993,"velocity":0.5826771653543307,"duration":1.4285699999999864},{"name":"A#3","midi":58,"time":21.904739999999993,"velocity":0.5826771653543307,"duration":0.15872999999999848},{"name":"G4","midi":67,"time":22.06346999999999,"velocity":0.5826771653543307,"duration":0.15872999999999848},{"name":"F#4","midi":66,"time":22.22219999999999,"velocity":0.5826771653543307,"duration":0.15872999999999848},{"name":"E4","midi":64,"time":22.38092999999999,"velocity":0.5826771653543307,"duration":0.15872999999999848},{"name":"D4","midi":62,"time":22.539659999999987,"velocity":0.5826771653543307,"duration":0.15872999999999848},{"name":"C#4","midi":61,"time":22.698389999999986,"velocity":0.5826771653543307,"duration":0.15872999999999848},{"name":"D4","midi":62,"time":22.857119999999984,"velocity":0.5826771653543307,"duration":0.15872999999999848},{"name":"E4","midi":64,"time":23.015849999999983,"velocity":0.5826771653543307,"duration":0.15872999999999848},{"name":"F#4","midi":66,"time":23.17457999999998,"velocity":0.5826771653543307,"duration":0.15872999999999848},{"name":"F#5","midi":78,"time":23.33330999999998,"velocity":0.5826771653543307,"duration":0.31745999999999697},{"name":"E4","midi":64,"time":23.33330999999998,"velocity":0.5826771653543307,"duration":0.15872999999999848},{"name":"D4","midi":62,"time":23.492039999999978,"velocity":0.5826771653543307,"duration":0.15872999999999848},{"name":"A#4","midi":70,"time":23.650769999999977,"velocity":0.5826771653543307,"duration":0.15872999999999848},{"name":"C#4","midi":61,"time":23.650769999999977,"velocity":0.5826771653543307,"duration":0.15872999999999848},{"name":"B4","midi":71,"time":23.809499999999975,"velocity":0.5826771653543307,"duration":1.111109999999993},{"name":"B3","midi":59,"time":23.809499999999975,"velocity":0.5826771653543307,"duration":0.15872999999999848},{"name":"A4","midi":69,"time":23.968229999999974,"velocity":0.5826771653543307,"duration":0.15872999999999848},{"name":"G4","midi":67,"time":24.126959999999972,"velocity":0.5826771653543307,"duration":0.15872999999999848},{"name":"F#4","midi":66,"time":24.28568999999997,"velocity":0.5826771653543307,"duration":0.15872999999999848},{"name":"E4","midi":64,"time":24.44441999999997,"velocity":0.5826771653543307,"duration":0.15872999999999848},{"name":"E3","midi":52,"time":24.44441999999997,"velocity":0.5826771653543307,"duration":0.15872999999999848},{"name":"F#3","midi":54,"time":24.603149999999967,"velocity":0.5826771653543307,"duration":0.15872999999999848},{"name":"D#4","midi":63,"time":24.603149999999967,"velocity":0.5826771653543307,"duration":0.15872999999999848},{"name":"G3","midi":55,"time":24.761879999999966,"velocity":0.5826771653543307,"duration":0.10449725000000143},{"name":"E4","midi":64,"time":24.761879999999966,"velocity":0.5826771653543307,"duration":0.9523800000000016},{"name":"F#3","midi":54,"time":24.814789999999967,"velocity":0.5826771653543307,"duration":0.10449725000000143},{"name":"G3","midi":55,"time":24.867699999999967,"velocity":0.5826771653543307,"duration":0.12566125000000028},{"name":"G4","midi":67,"time":24.920609999999968,"velocity":0.5826771653543307,"duration":0.15872999999999848},{"name":"B4","midi":71,"time":25.079339999999966,"velocity":0.5826771653543307,"duration":0.15872999999999848},{"name":"C#5","midi":73,"time":25.238069999999965,"velocity":0.5826771653543307,"duration":0.16798925000000153},{"name":"A3","midi":57,"time":25.238069999999965,"velocity":0.5826771653543307,"duration":0.11904750000000064},{"name":"G3","midi":55,"time":25.357117499999966,"velocity":0.5826771653543307,"duration":0.11904750000000064},{"name":"F#3","midi":54,"time":25.476164999999966,"velocity":0.5826771653543307,"duration":0.11904750000000064},{"name":"G3","midi":55,"time":25.595212499999967,"velocity":0.5826771653543307,"duration":0.11904750000000064},{"name":"F#4","midi":66,"time":25.714259999999967,"velocity":0.5826771653543307,"duration":0.952379999999998},{"name":"A3","midi":57,"time":25.714259999999967,"velocity":0.5826771653543307,"duration":0.18915324999999683},{"name":"A4","midi":69,"time":25.872989999999966,"velocity":0.5826771653543307,"duration":0.15872999999999848},{"name":"C5","midi":72,"time":26.031719999999964,"velocity":0.5826771653543307,"duration":0.15872999999999848},{"name":"D#5","midi":75,"time":26.190449999999963,"velocity":0.5826771653543307,"duration":0.16798925000000153},{"name":"B3","midi":59,"time":26.190449999999963,"velocity":0.5826771653543307,"duration":0.11904750000000064},{"name":"A3","midi":57,"time":26.309497499999964,"velocity":0.5826771653543307,"duration":0.11904750000000064},{"name":"G3","midi":55,"time":26.428544999999964,"velocity":0.5826771653543307,"duration":0.11904750000000064},{"name":"A3","midi":57,"time":26.547592499999965,"velocity":0.5826771653543307,"duration":0.11904750000000064},{"name":"G4","midi":67,"time":26.666639999999965,"velocity":0.5826771653543307,"duration":0.9523799999999945},{"name":"B3","midi":59,"time":26.666639999999965,"velocity":0.5826771653543307,"duration":0.18915324999999683},{"name":"B4","midi":71,"time":26.825369999999964,"velocity":0.5826771653543307,"duration":0.15872999999999848},{"name":"D#5","midi":75,"time":26.984099999999962,"velocity":0.5826771653543307,"duration":0.15872999999999848},{"name":"E5","midi":76,"time":27.14282999999996,"velocity":0.5826771653543307,"duration":1.5872999999999884},{"name":"G3","midi":55,"time":27.14282999999996,"velocity":0.5826771653543307,"duration":0.18915325000000038},{"name":"G#4","midi":68,"time":27.61901999999996,"velocity":0.5826771653543307,"duration":0.15872999999999848},{"name":"E3","midi":52,"time":27.61901999999996,"velocity":0.5826771653543307,"duration":0.18915324999999683},{"name":"D5","midi":74,"time":27.77774999999996,"velocity":0.5826771653543307,"duration":0.15872999999999848},{"name":"C5","midi":72,"time":27.936479999999957,"velocity":0.5826771653543307,"duration":0.15872999999999848},{"name":"C4","midi":60,"time":28.095209999999955,"velocity":0.5826771653543307,"duration":0.9523799999999909},{"name":"B4","midi":71,"time":28.095209999999955,"velocity":0.5826771653543307,"duration":0.15872999999999848},{"name":"A4","midi":69,"time":28.253939999999954,"velocity":0.5826771653543307,"duration":0.15872999999999848},{"name":"G#4","midi":68,"time":28.412669999999952,"velocity":0.5826771653543307,"duration":0.15872999999999848},{"name":"A4","midi":69,"time":28.57139999999995,"velocity":0.5826771653543307,"duration":0.952379999999998},{"name":"D#5","midi":75,"time":28.73012999999995,"velocity":0.5826771653543307,"duration":0.15872999999999848},{"name":"E5","midi":76,"time":28.888859999999948,"velocity":0.5826771653543307,"duration":0.15872999999999848},{"name":"F#5","midi":78,"time":29.047589999999946,"velocity":0.5826771653543307,"duration":0.634920000000001},{"name":"B3","midi":59,"time":29.047589999999946,"velocity":0.5826771653543307,"duration":0.16798925000000153},{"name":"D#4","midi":63,"time":29.404732499999948,"velocity":0.5826771653543307,"duration":0.11904750000000064},{"name":"G4","midi":67,"time":29.52377999999995,"velocity":0.5826771653543307,"duration":0.9523799999999909},{"name":"E4","midi":64,"time":29.52377999999995,"velocity":0.5826771653543307,"duration":0.1785712499999974},{"name":"E5","midi":76,"time":29.682509999999947,"velocity":0.5826771653543307,"duration":0.15872999999999848},{"name":"D5","midi":74,"time":29.841239999999946,"velocity":0.5826771653543307,"duration":0.15872999999999848},{"name":"A3","midi":57,"time":29.999969999999944,"velocity":0.5826771653543307,"duration":0.9523799999999909},{"name":"C#5","midi":73,"time":29.999969999999944,"velocity":0.5826771653543307,"duration":0.15872999999999848},{"name":"D#5","midi":75,"time":30.158699999999943,"velocity":0.5826771653543307,"duration":0.15872999999999848},{"name":"E5","midi":76,"time":30.31742999999994,"velocity":0.5826771653543307,"duration":0.15872999999999848},{"name":"D#5","midi":75,"time":30.47615999999994,"velocity":0.5826771653543307,"duration":0.15872999999999848},{"name":"F#4","midi":66,"time":30.47615999999994,"velocity":0.5826771653543307,"duration":0.952379999999998},{"name":"E5","midi":76,"time":30.63488999999994,"velocity":0.5826771653543307,"duration":0.15872999999999848},{"name":"F#5","midi":78,"time":30.793619999999937,"velocity":0.5826771653543307,"duration":0.15872999999999848},{"name":"B4","midi":71,"time":30.952349999999935,"velocity":0.5826771653543307,"duration":0.634920000000001},{"name":"G3","midi":55,"time":30.952349999999935,"velocity":0.5826771653543307,"duration":0.18915325000000038},{"name":"D#4","midi":63,"time":31.309492499999937,"velocity":0.5826771653543307,"duration":0.11904750000000064},{"name":"E4","midi":64,"time":31.428539999999938,"velocity":0.5826771653543307,"duration":0.9523799999999945},{"name":"A4","midi":69,"time":31.587269999999936,"velocity":0.5826771653543307,"duration":0.15872999999999848},{"name":"G4","midi":67,"time":31.745999999999935,"velocity":0.5826771653543307,"duration":0.15872999999999848},{"name":"F#3","midi":54,"time":31.904729999999933,"velocity":0.5826771653543307,"duration":0.6349199999999975},{"name":"A4","midi":69,"time":31.904729999999933,"velocity":0.5826771653543307,"duration":0.15873000000000204},{"name":"B4","midi":71,"time":32.063459999999935,"velocity":0.5826771653543307,"duration":0.15872999999999848},{"name":"C5","midi":72,"time":32.222189999999934,"velocity":0.5826771653543307,"duration":0.6349199999999939},{"name":"D#4","midi":63,"time":32.38091999999993,"velocity":0.5826771653543307,"duration":0.47618999999999545},{"name":"G3","midi":55,"time":32.53964999999993,"velocity":0.5826771653543307,"duration":0.15872999999999848},{"name":"A3","midi":57,"time":32.69837999999993,"velocity":0.5826771653543307,"duration":0.15872999999999848},{"name":"B4","midi":71,"time":32.85710999999993,"velocity":0.5826771653543307,"duration":0.15872999999999848},{"name":"E4","midi":64,"time":32.85710999999993,"velocity":0.5826771653543307,"duration":0.47618999999999545},{"name":"G3","midi":55,"time":32.85710999999993,"velocity":0.5826771653543307,"duration":0.15872999999999848},{"name":"A4","midi":69,"time":33.015839999999926,"velocity":0.5826771653543307,"duration":0.15872999999999848},{"name":"F#3","midi":54,"time":33.015839999999926,"velocity":0.5826771653543307,"duration":0.15872999999999848},{"name":"G4","midi":67,"time":33.174569999999925,"velocity":0.5826771653543307,"duration":0.15872999999999848},{"name":"E3","midi":52,"time":33.174569999999925,"velocity":0.5826771653543307,"duration":0.15872999999999848},{"name":"F#4","midi":66,"time":33.33329999999992,"velocity":0.5826771653543307,"duration":1.2698399999999879},{"name":"A4","midi":69,"time":33.33329999999992,"velocity":0.5826771653543307,"duration":0.47618999999999545},{"name":"D#3","midi":51,"time":33.33329999999992,"velocity":0.5826771653543307,"duration":0.15872999999999848},{"name":"C4","midi":60,"time":33.49202999999992,"velocity":0.5826771653543307,"duration":0.15872999999999848},{"name":"B3","midi":59,"time":33.65075999999992,"velocity":0.5826771653543307,"duration":0.15872999999999848},{"name":"D#4","midi":63,"time":33.80948999999992,"velocity":0.5826771653543307,"duration":0.47618999999999545},{"name":"A3","midi":57,"time":33.80948999999992,"velocity":0.5826771653543307,"duration":0.15872999999999848},{"name":"G3","midi":55,"time":33.96821999999992,"velocity":0.5826771653543307,"duration":0.15872999999999848},{"name":"F#3","midi":54,"time":34.126949999999916,"velocity":0.5826771653543307,"duration":0.15872999999999848},{"name":"B4","midi":71,"time":34.285679999999914,"velocity":0.5826771653543307,"duration":1.2698399999999879},{"name":"G3","midi":55,"time":34.285679999999914,"velocity":0.5826771653543307,"duration":0.15872999999999848},{"name":"A3","midi":57,"time":34.44440999999991,"velocity":0.5826771653543307,"duration":0.15872999999999848},{"name":"D#4","midi":63,"time":34.60313999999991,"velocity":0.5826771653543307,"duration":0.15872999999999848},{"name":"B3","midi":59,"time":34.60313999999991,"velocity":0.5826771653543307,"duration":0.15872999999999848},{"name":"E4","midi":64,"time":34.76186999999991,"velocity":0.5826771653543307,"duration":0.31745999999999697},{"name":"A3","midi":57,"time":34.76186999999991,"velocity":0.5826771653543307,"duration":0.15872999999999848},{"name":"G3","midi":55,"time":34.92059999999991,"velocity":0.5826771653543307,"duration":0.15872999999999848},{"name":"F#4","midi":66,"time":35.079329999999906,"velocity":0.5826771653543307,"duration":0.15872999999999848},{"name":"F#3","midi":54,"time":35.079329999999906,"velocity":0.5826771653543307,"duration":0.15872999999999848},{"name":"G4","midi":67,"time":35.238059999999905,"velocity":0.5826771653543307,"duration":1.2698399999999879},{"name":"E3","midi":52,"time":35.238059999999905,"velocity":0.5826771653543307,"duration":0.15872999999999848},{"name":"D4","midi":62,"time":35.3967899999999,"velocity":0.5826771653543307,"duration":0.15872999999999848},{"name":"E4","midi":64,"time":35.5555199999999,"velocity":0.5826771653543307,"duration":0.15872999999999848},{"name":"C4","midi":60,"time":35.5555199999999,"velocity":0.5826771653543307,"duration":0.15872999999999848},{"name":"D#4","midi":63,"time":35.7142499999999,"velocity":0.5826771653543307,"duration":0.31745999999999697},{"name":"B3","midi":59,"time":35.7142499999999,"velocity":0.5826771653543307,"duration":0.15872999999999848},{"name":"A3","midi":57,"time":35.8729799999999,"velocity":0.5826771653543307,"duration":0.15872999999999848},{"name":"G3","midi":55,"time":36.0317099999999,"velocity":0.5826771653543307,"duration":0.15872999999999848},{"name":"E4","midi":64,"time":36.0317099999999,"velocity":0.5826771653543307,"duration":0.15872999999999848},{"name":"C5","midi":72,"time":36.190439999999896,"velocity":0.5826771653543307,"duration":1.2698399999999879},{"name":"A3","midi":57,"time":36.190439999999896,"velocity":0.5826771653543307,"duration":0.15872999999999848},{"name":"B3","midi":59,"time":36.349169999999894,"velocity":0.5826771653543307,"duration":0.15872999999999848},{"name":"E4","midi":64,"time":36.50789999999989,"velocity":0.5826771653543307,"duration":0.15872999999999848},{"name":"C4","midi":60,"time":36.50789999999989,"velocity":0.5826771653543307,"duration":0.15872999999999848},{"name":"F#4","midi":66,"time":36.66662999999989,"velocity":0.5826771653543307,"duration":0.31745999999999697},{"name":"B3","midi":59,"time":36.66662999999989,"velocity":0.5826771653543307,"duration":0.15872999999999848},{"name":"A3","midi":57,"time":36.82535999999989,"velocity":0.5826771653543307,"duration":0.15872999999999848},{"name":"G4","midi":67,"time":36.98408999999989,"velocity":0.5826771653543307,"duration":0.15872999999999848},{"name":"G3","midi":55,"time":36.98408999999989,"velocity":0.5826771653543307,"duration":0.15872999999999848},{"name":"A4","midi":69,"time":37.14281999999989,"velocity":0.5826771653543307,"duration":1.2698399999999879},{"name":"F#3","midi":54,"time":37.14281999999989,"velocity":0.5826771653543307,"duration":0.15872999999999848},{"name":"E4","midi":64,"time":37.301549999999885,"velocity":0.5826771653543307,"duration":0.15872999999999848},{"name":"F#4","midi":66,"time":37.460279999999884,"velocity":0.5826771653543307,"duration":0.15872999999999848},{"name":"D4","midi":62,"time":37.460279999999884,"velocity":0.5826771653543307,"duration":0.15872999999999848},{"name":"E4","midi":64,"time":37.61900999999988,"velocity":0.5826771653543307,"duration":0.31745999999999697},{"name":"C4","midi":60,"time":37.61900999999988,"velocity":0.5826771653543307,"duration":0.15872999999999848},{"name":"B3","midi":59,"time":37.77773999999988,"velocity":0.5826771653543307,"duration":0.15872999999999848},{"name":"A3","midi":57,"time":37.93646999999988,"velocity":0.5826771653543307,"duration":0.15872999999999848},{"name":"F#4","midi":66,"time":37.93646999999988,"velocity":0.5826771653543307,"duration":0.15872999999999848},{"name":"D5","midi":74,"time":38.09519999999988,"velocity":0.5826771653543307,"duration":1.1111099999999894},{"name":"B3","midi":59,"time":38.09519999999988,"velocity":0.5826771653543307,"duration":0.15872999999999848},{"name":"C4","midi":60,"time":38.253929999999876,"velocity":0.5826771653543307,"duration":0.15872999999999848},{"name":"F#4","midi":66,"time":38.412659999999875,"velocity":0.5826771653543307,"duration":0.15872999999999848},{"name":"D4","midi":62,"time":38.412659999999875,"velocity":0.5826771653543307,"duration":0.15872999999999848},{"name":"G4","midi":67,"time":38.57138999999987,"velocity":0.5826771653543307,"duration":0.31745999999999697},{"name":"C4","midi":60,"time":38.57138999999987,"velocity":0.5826771653543307,"duration":0.15872999999999848},{"name":"B3","midi":59,"time":38.73011999999987,"velocity":0.5826771653543307,"duration":0.15872999999999848},{"name":"A4","midi":69,"time":38.88884999999987,"velocity":0.5826771653543307,"duration":0.15872999999999848},{"name":"A3","midi":57,"time":38.88884999999987,"velocity":0.5826771653543307,"duration":0.15872999999999848},{"name":"B4","midi":71,"time":39.04757999999987,"velocity":0.5826771653543307,"duration":0.45370324999999667},{"name":"G3","midi":55,"time":39.04757999999987,"velocity":0.5826771653543307,"duration":0.15872999999999848},{"name":"G4","midi":67,"time":39.20630999999987,"velocity":0.5826771653543307,"duration":0.15872999999999848},{"name":"B3","midi":59,"time":39.20630999999987,"velocity":0.5826771653543307,"duration":0.15872999999999848},{"name":"A4","midi":69,"time":39.365039999999865,"velocity":0.5826771653543307,"duration":0.15872999999999848},{"name":"D4","midi":62,"time":39.365039999999865,"velocity":0.5826771653543307,"duration":0.15872999999999848},{"name":"G4","midi":67,"time":39.523769999999864,"velocity":0.5826771653543307,"duration":0.16798924999999798},{"name":"B4","midi":71,"time":39.523769999999864,"velocity":0.5826771653543307,"duration":0.16798924999999798},{"name":"C5","midi":72,"time":39.68249999999986,"velocity":0.5826771653543307,"duration":0.15872999999999848},{"name":"D5","midi":74,"time":39.84122999999986,"velocity":0.5826771653543307,"duration":0.15872999999999848},{"name":"E5","midi":76,"time":39.99995999999986,"velocity":0.5826771653543307,"duration":1.1111099999999894},{"name":"C4","midi":60,"time":39.99995999999986,"velocity":0.5826771653543307,"duration":0.3373012499999959},{"name":"D5","midi":74,"time":40.15868999999986,"velocity":0.5826771653543307,"duration":0.15872999999999848},{"name":"C5","midi":72,"time":40.317419999999856,"velocity":0.5826771653543307,"duration":0.15872999999999848},{"name":"B4","midi":71,"time":40.476149999999855,"velocity":0.5826771653543307,"duration":0.15872999999999848},{"name":"E4","midi":64,"time":40.476149999999855,"velocity":0.5826771653543307,"duration":0.32671924999999646},{"name":"A4","midi":69,"time":40.63487999999985,"velocity":0.5826771653543307,"duration":0.15872999999999848},{"name":"G4","midi":67,"time":40.79360999999985,"velocity":0.5826771653543307,"duration":0.15872999999999848},{"name":"A4","midi":69,"time":40.95233999999985,"velocity":0.5826771653543307,"duration":0.4775127499999954},{"name":"F#3","midi":54,"time":40.95233999999985,"velocity":0.5826771653543307,"duration":0.15872999999999848},{"name":"F#4","midi":66,"time":41.11106999999985,"velocity":0.5826771653543307,"duration":0.15872999999999848},{"name":"A3","midi":57,"time":41.11106999999985,"velocity":0.5826771653543307,"duration":0.15872999999999848},{"name":"G4","midi":67,"time":41.26979999999985,"velocity":0.5826771653543307,"duration":0.15872999999999848},{"name":"C4","midi":60,"time":41.26979999999985,"velocity":0.5826771653543307,"duration":0.15872999999999848},{"name":"F#4","midi":66,"time":41.428529999999846,"velocity":0.5826771653543307,"duration":0.16798924999999798},{"name":"A4","midi":69,"time":41.428529999999846,"velocity":0.5826771653543307,"duration":0.15872999999999848},{"name":"B4","midi":71,"time":41.587259999999844,"velocity":0.5826771653543307,"duration":0.15872999999999848},{"name":"C5","midi":72,"time":41.74598999999984,"velocity":0.5826771653543307,"duration":0.15872999999999848},{"name":"D5","midi":74,"time":41.90471999999984,"velocity":0.5826771653543307,"duration":1.1111099999999894},{"name":"B3","midi":59,"time":41.90471999999984,"velocity":0.5826771653543307,"duration":0.3373012499999959},{"name":"C5","midi":72,"time":42.06344999999984,"velocity":0.5826771653543307,"duration":0.15872999999999848},{"name":"B4","midi":71,"time":42.22217999999984,"velocity":0.5826771653543307,"duration":0.15872999999999848},{"name":"A4","midi":69,"time":42.38090999999984,"velocity":0.5826771653543307,"duration":0.15872999999999848},{"name":"D4","midi":62,"time":42.38090999999984,"velocity":0.5826771653543307,"duration":0.32671924999999646},{"name":"G4","midi":67,"time":42.539639999999835,"velocity":0.5826771653543307,"duration":0.15872999999999848},{"name":"F#4","midi":66,"time":42.698369999999834,"velocity":0.5826771653543307,"duration":0.15872999999999848},{"name":"G4","midi":67,"time":42.85709999999983,"velocity":0.5826771653543307,"duration":0.45370324999999667},{"name":"E3","midi":52,"time":42.85709999999983,"velocity":0.5826771653543307,"duration":0.15872999999999848},{"name":"E4","midi":64,"time":43.01582999999983,"velocity":0.5826771653543307,"duration":0.15872999999999848},{"name":"G3","midi":55,"time":43.01582999999983,"velocity":0.5826771653543307,"duration":0.15872999999999848},{"name":"F#4","midi":66,"time":43.17455999999983,"velocity":0.5826771653543307,"duration":0.15872999999999848},{"name":"B3","midi":59,"time":43.17455999999983,"velocity":0.5826771653543307,"duration":0.15872999999999848},{"name":"E4","midi":64,"time":43.33328999999983,"velocity":0.5826771653543307,"duration":0.18915324999999683},{"name":"G4","midi":67,"time":43.33328999999983,"velocity":0.5826771653543307,"duration":0.16798924999999798},{"name":"A4","midi":69,"time":43.492019999999826,"velocity":0.5826771653543307,"duration":0.15872999999999848},{"name":"B4","midi":71,"time":43.650749999999825,"velocity":0.5826771653543307,"duration":0.15872999999999848},{"name":"C5","midi":72,"time":43.80947999999982,"velocity":0.5826771653543307,"duration":1.1111099999999894},{"name":"A3","midi":57,"time":43.80947999999982,"velocity":0.5826771653543307,"duration":0.32671924999999646},{"name":"B4","midi":71,"time":43.96820999999982,"velocity":0.5826771653543307,"duration":0.15872999999999848},{"name":"A4","midi":69,"time":44.12693999999982,"velocity":0.5826771653543307,"duration":0.15872999999999848},{"name":"G4","midi":67,"time":44.28566999999982,"velocity":0.5826771653543307,"duration":0.15872999999999848},{"name":"C4","midi":60,"time":44.28566999999982,"velocity":0.5826771653543307,"duration":0.3373012499999959},{"name":"F#4","midi":66,"time":44.44439999999982,"velocity":0.5826771653543307,"duration":0.15872999999999848},{"name":"E4","midi":64,"time":44.603129999999815,"velocity":0.5826771653543307,"duration":0.15872999999999848},{"name":"F#4","midi":66,"time":44.761859999999814,"velocity":0.5826771653543307,"duration":0.41137524999999897},{"name":"D3","midi":50,"time":44.761859999999814,"velocity":0.5826771653543307,"duration":0.15872999999999848},{"name":"D4","midi":62,"time":44.92058999999981,"velocity":0.5826771653543307,"duration":0.15872999999999848},{"name":"F#3","midi":54,"time":44.92058999999981,"velocity":0.5826771653543307,"duration":0.15872999999999848},{"name":"E4","midi":64,"time":45.07931999999981,"velocity":0.5826771653543307,"duration":0.15872999999999848},{"name":"A3","midi":57,"time":45.07931999999981,"velocity":0.5826771653543307,"duration":0.15872999999999848},{"name":"F#4","midi":66,"time":45.23804999999981,"velocity":0.5826771653543307,"duration":0.16798924999999798},{"name":"D4","midi":62,"time":45.23804999999981,"velocity":0.5826771653543307,"duration":0.21031724999999568},{"name":"G4","midi":67,"time":45.39677999999981,"velocity":0.5826771653543307,"duration":0.15872999999999848},{"name":"A4","midi":69,"time":45.555509999999806,"velocity":0.5826771653543307,"duration":0.15872999999999848},{"name":"B4","midi":71,"time":45.714239999999805,"velocity":0.5826771653543307,"duration":0.47618999999999545},{"name":"G3","midi":55,"time":45.714239999999805,"velocity":0.5826771653543307,"duration":0.952379999999998},{"name":"B3","midi":59,"time":45.8729699999998,"velocity":0.5826771653543307,"duration":0.15872999999999848},{"name":"D4","midi":62,"time":46.0316999999998,"velocity":0.5826771653543307,"duration":0.15872999999999848},{"name":"C5","midi":72,"time":46.1904299999998,"velocity":0.5826771653543307,"duration":0.11904750000000064},{"name":"E4","midi":64,"time":46.1904299999998,"velocity":0.5826771653543307,"duration":0.634920000000001},{"name":"B4","midi":71,"time":46.3094774999998,"velocity":0.5826771653543307,"duration":0.11904750000000064},{"name":"A4","midi":69,"time":46.4285249999998,"velocity":0.5826771653543307,"duration":0.11904750000000064},{"name":"B4","midi":71,"time":46.5475724999998,"velocity":0.5826771653543307,"duration":0.11904750000000064},{"name":"A3","midi":57,"time":46.6666199999998,"velocity":0.5826771653543307,"duration":0.952379999999998},{"name":"C5","midi":72,"time":46.6666199999998,"velocity":0.5826771653543307,"duration":0.47618999999999545},{"name":"C4","midi":60,"time":46.8253499999998,"velocity":0.5826771653543307,"duration":0.15872999999999848},{"name":"E4","midi":64,"time":46.9840799999998,"velocity":0.5826771653543307,"duration":0.15872999999999848},{"name":"F#4","midi":66,"time":47.1428099999998,"velocity":0.5826771653543307,"duration":0.634920000000001},{"name":"D5","midi":74,"time":47.1428099999998,"velocity":0.5826771653543307,"duration":0.11904750000000064},{"name":"C5","midi":72,"time":47.2618574999998,"velocity":0.5826771653543307,"duration":0.11904750000000064},{"name":"B4","midi":71,"time":47.3809049999998,"velocity":0.5826771653543307,"duration":0.11904750000000064},{"name":"C5","midi":72,"time":47.4999524999998,"velocity":0.5826771653543307,"duration":0.11904750000000064},{"name":"D5","midi":74,"time":47.6189999999998,"velocity":0.5826771653543307,"duration":0.19973524999999626},{"name":"B3","midi":59,"time":47.6189999999998,"velocity":0.5826771653543307,"duration":0.47618999999999545},{"name":"D4","midi":62,"time":47.7777299999998,"velocity":0.5826771653543307,"duration":0.15872999999999848},{"name":"F#4","midi":66,"time":47.9364599999998,"velocity":0.5826771653543307,"duration":0.15872999999999848},{"name":"B4","midi":71,"time":48.095189999999796,"velocity":0.5826771653543307,"duration":0.19973524999999626},{"name":"G4","midi":67,"time":48.095189999999796,"velocity":0.5826771653543307,"duration":0.15872999999999848},{"name":"G3","midi":55,"time":48.253919999999795,"velocity":0.5826771653543307,"duration":0.15872999999999848},{"name":"B3","midi":59,"time":48.41264999999979,"velocity":0.5826771653543307,"duration":0.15872999999999848},{"name":"G4","midi":67,"time":48.57137999999979,"velocity":0.5826771653543307,"duration":0.2208992499999951},{"name":"E4","midi":64,"time":48.57137999999979,"velocity":0.5826771653543307,"duration":0.15872999999999848},{"name":"E3","midi":52,"time":48.73010999999979,"velocity":0.5826771653543307,"duration":0.15872999999999848},{"name":"F#3","midi":54,"time":48.88883999999979,"velocity":0.5826771653543307,"duration":0.15872999999999848},{"name":"E5","midi":76,"time":49.04756999999979,"velocity":0.5826771653543307,"duration":0.9523799999999909},{"name":"G3","midi":55,"time":49.04756999999979,"velocity":0.5826771653543307,"duration":0.15872999999999848},{"name":"A3","midi":57,"time":49.206299999999786,"velocity":0.5826771653543307,"duration":0.15872999999999848},{"name":"B3","midi":59,"time":49.365029999999784,"velocity":0.5826771653543307,"duration":0.15872999999999848},{"name":"C4","midi":60,"time":49.52375999999978,"velocity":0.5826771653543307,"duration":0.9523799999999909},{"name":"A3","midi":57,"time":49.68248999999978,"velocity":0.5826771653543307,"duration":0.15872999999999848},{"name":"G3","midi":55,"time":49.84121999999978,"velocity":0.5826771653543307,"duration":0.15872999999999848},{"name":"D5","midi":74,"time":49.99994999999978,"velocity":0.5826771653543307,"duration":0.1785712499999974},{"name":"F#3","midi":54,"time":49.99994999999978,"velocity":0.5826771653543307,"duration":0.15872999999999848},{"name":"G3","midi":55,"time":50.15867999999978,"velocity":0.5826771653543307,"duration":0.15872999999999848},{"name":"A3","midi":57,"time":50.317409999999775,"velocity":0.5826771653543307,"duration":0.15872999999999848},{"name":"F#5","midi":78,"time":50.35709249999977,"velocity":0.5826771653543307,"duration":0.11904750000000064},{"name":"B3","midi":59,"time":50.47613999999977,"velocity":0.5826771653543307,"duration":0.9523799999999909},{"name":"G5","midi":79,"time":50.47613999999977,"velocity":0.5826771653543307,"duration":0.19973524999999626},{"name":"G3","midi":55,"time":50.63486999999977,"velocity":0.5826771653543307,"duration":0.15872999999999848},{"name":"F#3","midi":54,"time":50.79359999999977,"velocity":0.5826771653543307,"duration":0.15872999999999848},{"name":"C5","midi":72,"time":50.95232999999977,"velocity":0.5826771653543307,"duration":0.9523799999999909},{"name":"E3","midi":52,"time":50.95232999999977,"velocity":0.5826771653543307,"duration":0.15872999999999848},{"name":"F#3","midi":54,"time":51.11105999999977,"velocity":0.5826771653543307,"duration":0.15872999999999848},{"name":"G3","midi":55,"time":51.269789999999766,"velocity":0.5826771653543307,"duration":0.15872999999999848},{"name":"A3","midi":57,"time":51.428519999999764,"velocity":0.5826771653543307,"duration":0.9523799999999909},{"name":"F#3","midi":54,"time":51.58724999999976,"velocity":0.5826771653543307,"duration":0.15872999999999848},{"name":"E3","midi":52,"time":51.74597999999976,"velocity":0.5826771653543307,"duration":0.15872999999999848},{"name":"B4","midi":71,"time":51.90470999999976,"velocity":0.5826771653543307,"duration":0.18915324999999683},{"name":"D3","midi":50,"time":51.90470999999976,"velocity":0.5826771653543307,"duration":0.15872999999999848},{"name":"E3","midi":52,"time":52.06343999999976,"velocity":0.5826771653543307,"duration":0.15872999999999848},{"name":"C3","midi":48,"time":52.22216999999976,"velocity":0.5826771653543307,"duration":0.15872999999999848},{"name":"F#5","midi":78,"time":52.261852499999755,"velocity":0.5826771653543307,"duration":0.11904750000000064},{"name":"G5","midi":79,"time":52.380899999999755,"velocity":0.5826771653543307,"duration":0.18915324999999683},{"name":"B2","midi":47,"time":52.380899999999755,"velocity":0.5826771653543307,"duration":0.47618999999999545},{"name":"D3","midi":50,"time":52.539629999999754,"velocity":0.5826771653543307,"duration":0.15872999999999848},{"name":"G3","midi":55,"time":52.69835999999975,"velocity":0.5826771653543307,"duration":0.31745999999999697},{"name":"A4","midi":69,"time":52.85708999999975,"velocity":0.5826771653543307,"duration":0.6349199999999939},{"name":"C#3","midi":49,"time":52.85708999999975,"velocity":0.5826771653543307,"duration":0.47618999999999545},{"name":"F#3","midi":54,"time":53.01581999999975,"velocity":0.5826771653543307,"duration":0.15872999999999848},{"name":"G3","midi":55,"time":53.17454999999975,"velocity":0.5826771653543307,"duration":0.15872999999999848},{"name":"F#3","midi":54,"time":53.333279999999746,"velocity":0.5826771653543307,"duration":0.47618999999999545},{"name":"D3","midi":50,"time":53.333279999999746,"velocity":0.5826771653543307,"duration":0.9523799999999909},{"name":"B4","midi":71,"time":53.492009999999745,"velocity":0.5826771653543307,"duration":0.15872999999999848},{"name":"C5","midi":72,"time":53.65073999999974,"velocity":0.5826771653543307,"duration":0.15872999999999848},{"name":"B4","midi":71,"time":53.80946999999974,"velocity":0.5826771653543307,"duration":0.15872999999999848},{"name":"G3","midi":55,"time":53.80946999999974,"velocity":0.5826771653543307,"duration":0.47618999999999545},{"name":"A4","midi":69,"time":53.96819999999974,"velocity":0.5826771653543307,"duration":0.15872999999999848},{"name":"G4","midi":67,"time":54.12692999999974,"velocity":0.5826771653543307,"duration":0.15872999999999848},{"name":"F#4","midi":66,"time":54.28565999999974,"velocity":0.5826771653543307,"duration":0.15872999999999848},{"name":"A3","midi":57,"time":54.28565999999974,"velocity":0.5826771653543307,"duration":0.47618999999999545},{"name":"E5","midi":76,"time":54.444389999999736,"velocity":0.5826771653543307,"duration":0.15872999999999848},{"name":"D5","midi":74,"time":54.603119999999734,"velocity":0.5826771653543307,"duration":0.15872999999999848},{"name":"D3","midi":50,"time":54.76184999999973,"velocity":0.5826771653543307,"duration":0.32671924999999646},{"name":"F#3","midi":54,"time":54.76184999999973,"velocity":0.5826771653543307,"duration":0.32671924999999646},{"name":"C5","midi":72,"time":54.76184999999973,"velocity":0.5826771653543307,"duration":0.15872999999999848},{"name":"B4","midi":71,"time":54.92057999999973,"velocity":0.5826771653543307,"duration":0.15872999999999848},{"name":"A4","midi":69,"time":55.07930999999973,"velocity":0.5826771653543307,"duration":0.15872999999999848},{"name":"B4","midi":71,"time":55.23803999999973,"velocity":0.5826771653543307,"duration":0.15872999999999848},{"name":"G3","midi":55,"time":55.23803999999973,"velocity":0.5826771653543307,"duration":0.7936499999999924},{"name":"C5","midi":72,"time":55.39676999999973,"velocity":0.5826771653543307,"duration":0.15872999999999848},{"name":"D5","midi":74,"time":55.555499999999725,"velocity":0.5826771653543307,"duration":0.15872999999999848},{"name":"B3","midi":59,"time":55.555499999999725,"velocity":0.5826771653543307,"duration":0.15872999999999848},{"name":"C5","midi":72,"time":55.71422999999972,"velocity":0.5826771653543307,"duration":0.15872999999999848},{"name":"D4","midi":62,"time":55.71422999999972,"velocity":0.5826771653543307,"duration":0.9523799999999909},{"name":"B4","midi":71,"time":55.87295999999972,"velocity":0.5826771653543307,"duration":0.15872999999999848},{"name":"A4","midi":69,"time":56.03168999999972,"velocity":0.5826771653543307,"duration":0.15872999999999848},{"name":"F#3","midi":54,"time":56.03168999999972,"velocity":0.5826771653543307,"duration":0.15872999999999848},{"name":"G4","midi":67,"time":56.19041999999972,"velocity":0.5826771653543307,"duration":0.15872999999999848},{"name":"E3","midi":52,"time":56.19041999999972,"velocity":0.5826771653543307,"duration":0.32671924999999646},{"name":"G5","midi":79,"time":56.34914999999972,"velocity":0.5826771653543307,"duration":0.15872999999999848},{"name":"F#5","midi":78,"time":56.507879999999716,"velocity":0.5826771653543307,"duration":0.15872999999999848},{"name":"A3","midi":57,"time":56.666609999999714,"velocity":0.5826771653543307,"duration":0.32671924999999646},{"name":"E5","midi":76,"time":56.666609999999714,"velocity":0.5826771653543307,"duration":0.15872999999999848},{"name":"C#4","midi":61,"time":56.666609999999714,"velocity":0.5826771653543307,"duration":0.15872999999999848},{"name":"D5","midi":74,"time":56.82533999999971,"velocity":0.5826771653543307,"duration":0.15872999999999848},{"name":"D4","midi":62,"time":56.82533999999971,"velocity":0.5826771653543307,"duration":0.15872999999999848},{"name":"E4","midi":64,"time":56.98406999999971,"velocity":0.5826771653543307,"duration":0.15872999999999848},{"name":"C#5","midi":73,"time":56.98406999999971,"velocity":0.5826771653543307,"duration":0.15872999999999848},{"name":"D5","midi":74,"time":57.14279999999971,"velocity":0.5826771653543307,"duration":0.3373012499999959},{"name":"F#4","midi":66,"time":57.14279999999971,"velocity":0.5826771653543307,"duration":0.18915324999999683},{"name":"D3","midi":50,"time":57.14279999999971,"velocity":0.5826771653543307,"duration":0.15872999999999848},{"name":"F#3","midi":54,"time":57.30152999999971,"velocity":0.5826771653543307,"duration":0.15872999999999848},{"name":"A3","midi":57,"time":57.46025999999971,"velocity":0.5826771653543307,"duration":0.15872999999999848},{"name":"G4","midi":67,"time":57.618989999999705,"velocity":0.5826771653543307,"duration":0.11904750000000064},{"name":"B3","midi":59,"time":57.618989999999705,"velocity":0.5826771653543307,"duration":0.18915325000000394},{"name":"F#4","midi":66,"time":57.738037499999706,"velocity":0.5826771653543307,"duration":0.11904750000000064},{"name":"E4","midi":64,"time":57.85708499999971,"velocity":0.5826771653543307,"duration":0.11904750000000064},{"name":"F#4","midi":66,"time":57.97613249999971,"velocity":0.5826771653543307,"duration":0.11904750000000064},{"name":"C#5","midi":73,"time":58.09517999999971,"velocity":0.5826771653543307,"duration":0.3478832499999953},{"name":"G4","midi":67,"time":58.09517999999971,"velocity":0.5826771653543307,"duration":0.16798924999999798},{"name":"E3","midi":52,"time":58.09517999999971,"velocity":0.5826771653543307,"duration":0.15872999999999848},{"name":"G3","midi":55,"time":58.253909999999706,"velocity":0.5826771653543307,"duration":0.15872999999999848},{"name":"A3","midi":57,"time":58.412639999999705,"velocity":0.5826771653543307,"duration":0.15872999999999848},{"name":"C#4","midi":61,"time":58.5713699999997,"velocity":0.5826771653543307,"duration":0.16798924999999798},{"name":"A4","midi":69,"time":58.5713699999997,"velocity":0.5826771653543307,"duration":0.11904750000000064},{"name":"G4","midi":67,"time":58.690417499999704,"velocity":0.5826771653543307,"duration":0.11904750000000064},{"name":"F#4","midi":66,"time":58.809464999999705,"velocity":0.5826771653543307,"duration":0.11904750000000064},{"name":"G4","midi":67,"time":58.928512499999705,"velocity":0.5826771653543307,"duration":0.11904750000000064},{"name":"C5","midi":72,"time":59.047559999999706,"velocity":0.5826771653543307,"duration":0.32671924999999646},{"name":"A4","midi":69,"time":59.047559999999706,"velocity":0.5826771653543307,"duration":0.1785712499999974},{"name":"F#3","midi":54,"time":59.047559999999706,"velocity":0.5826771653543307,"duration":0.15872999999999848},{"name":"G3","midi":55,"time":59.206289999999704,"velocity":0.5826771653543307,"duration":0.15872999999999848},{"name":"A3","midi":57,"time":59.3650199999997,"velocity":0.5826771653543307,"duration":0.15872999999999848},{"name":"F#4","midi":66,"time":59.5237499999997,"velocity":0.5826771653543307,"duration":0.19973525000000336},{"name":"D4","midi":62,"time":59.5237499999997,"velocity":0.5826771653543307,"duration":0.4113752500000061},{"name":"B4","midi":71,"time":59.999939999999704,"velocity":0.5826771653543307,"duration":0.35846524999999474},{"name":"D4","midi":62,"time":59.999939999999704,"velocity":0.5826771653543307,"duration":0.2208992499999951},{"name":"C4","midi":60,"time":60.1586699999997,"velocity":0.5826771653543307,"duration":0.15872999999999848},{"name":"B3","midi":59,"time":60.3173999999997,"velocity":0.5826771653543307,"duration":0.15872999999999848},{"name":"D5","midi":74,"time":60.4761299999997,"velocity":0.5826771653543307,"duration":0.16798924999999798},{"name":"B4","midi":71,"time":60.4761299999997,"velocity":0.5826771653543307,"duration":0.9523799999999909},{"name":"A3","midi":57,"time":60.4761299999997,"velocity":0.5826771653543307,"duration":0.15872999999999848},{"name":"G3","midi":55,"time":60.6348599999997,"velocity":0.5826771653543307,"duration":0.15872999999999848},{"name":"F#3","midi":54,"time":60.793589999999696,"velocity":0.5826771653543307,"duration":0.15872999999999848},{"name":"G5","midi":79,"time":60.952319999999695,"velocity":0.5826771653543307,"duration":0.9523799999999909},{"name":"E3","midi":52,"time":60.952319999999695,"velocity":0.5826771653543307,"duration":0.15872999999999848},{"name":"G3","midi":55,"time":61.11104999999969,"velocity":0.5826771653543307,"duration":0.15872999999999848},{"name":"B3","midi":59,"time":61.26977999999969,"velocity":0.5826771653543307,"duration":0.15872999999999848},{"name":"A4","midi":69,"time":61.42850999999969,"velocity":0.5826771653543307,"duration":0.3571424999999948},{"name":"C#4","midi":61,"time":61.42850999999969,"velocity":0.5826771653543307,"duration":0.15872999999999848},{"name":"E4","midi":64,"time":61.58723999999969,"velocity":0.5826771653543307,"duration":0.15872999999999848},{"name":"A3","midi":57,"time":61.74596999999969,"velocity":0.5826771653543307,"duration":0.15872999999999848},{"name":"C#5","midi":73,"time":61.785652499999685,"velocity":0.5826771653543307,"duration":0.11904750000000064},{"name":"F#5","midi":78,"time":61.904699999999686,"velocity":0.5826771653543307,"duration":0.9523799999999909},{"name":"D5","midi":74,"time":61.904699999999686,"velocity":0.5826771653543307,"duration":0.47618999999999545},{"name":"D3","midi":50,"time":61.904699999999686,"velocity":0.5826771653543307,"duration":0.15872999999999848},{"name":"D4","midi":62,"time":62.063429999999684,"velocity":0.5826771653543307,"duration":0.15872999999999848},{"name":"C#4","midi":61,"time":62.22215999999968,"velocity":0.5826771653543307,"duration":0.15872999999999848},{"name":"G4","midi":67,"time":62.38088999999968,"velocity":0.5826771653543307,"duration":0.9523799999999909},{"name":"B3","midi":59,"time":62.38088999999968,"velocity":0.5826771653543307,"duration":0.15872999999999848},{"name":"A3","midi":57,"time":62.53961999999968,"velocity":0.5826771653543307,"duration":0.15872999999999848},{"name":"G3","midi":55,"time":62.69834999999968,"velocity":0.5826771653543307,"duration":0.15872999999999848},{"name":"E5","midi":76,"time":62.85707999999968,"velocity":0.5826771653543307,"duration":0.9523799999999909},{"name":"C#3","midi":49,"time":62.85707999999968,"velocity":0.5826771653543307,"duration":0.15872999999999848},{"name":"E3","midi":52,"time":63.015809999999675,"velocity":0.5826771653543307,"duration":0.15872999999999848},{"name":"G3","midi":55,"time":63.17453999999967,"velocity":0.5826771653543307,"duration":0.15872999999999848},{"name":"F#4","midi":66,"time":63.33326999999967,"velocity":0.5826771653543307,"duration":0.3571424999999948},{"name":"A3","midi":57,"time":63.33326999999967,"velocity":0.5826771653543307,"duration":0.15872999999999848},{"name":"C#4","midi":61,"time":63.49199999999967,"velocity":0.5826771653543307,"duration":0.15872999999999848},{"name":"F#3","midi":54,"time":63.65072999999967,"velocity":0.5826771653543307,"duration":0.15872999999999848},{"name":"C#5","midi":73,"time":63.69041249999967,"velocity":0.5826771653543307,"duration":0.11904750000000064},{"name":"D5","midi":74,"time":63.80945999999967,"velocity":0.5826771653543307,"duration":0.9523800000000264},{"name":"B2","midi":47,"time":63.80945999999967,"velocity":0.5826771653543307,"duration":0.15872999999999848},{"name":"B3","midi":59,"time":63.968189999999666,"velocity":0.5826771653543307,"duration":0.1587300000000056},{"name":"A3","midi":57,"time":64.12691999999967,"velocity":0.5826771653543307,"duration":0.1587300000000056},{"name":"E4","midi":64,"time":64.28564999999968,"velocity":0.5826771653543307,"duration":0.6349200000000224},{"name":"G3","midi":55,"time":64.28564999999968,"velocity":0.5826771653543307,"duration":0.1587300000000056},{"name":"F#3","midi":54,"time":64.44437999999968,"velocity":0.5826771653543307,"duration":0.1587300000000056},{"name":"E3","midi":52,"time":64.60310999999969,"velocity":0.5826771653543307,"duration":0.1587300000000056},{"name":"C#5","midi":73,"time":64.7618399999997,"velocity":0.5826771653543307,"duration":0.47619000000001677},{"name":"A3","midi":57,"time":64.7618399999997,"velocity":0.5826771653543307,"duration":0.9523800000000335},{"name":"F#4","midi":66,"time":64.9205699999997,"velocity":0.5826771653543307,"duration":0.1587300000000056},{"name":"G4","midi":67,"time":65.0792999999997,"velocity":0.5826771653543307,"duration":0.1587300000000056},{"name":"D5","midi":74,"time":65.23802999999971,"velocity":0.5826771653543307,"duration":0.47619000000001677},{"name":"F#4","midi":66,"time":65.23802999999971,"velocity":0.5826771653543307,"duration":0.1587300000000056},{"name":"E4","midi":64,"time":65.39675999999972,"velocity":0.5826771653543307,"duration":0.1587300000000056},{"name":"D4","midi":62,"time":65.55548999999972,"velocity":0.5826771653543307,"duration":0.1587300000000056},{"name":"E5","midi":76,"time":65.71421999999973,"velocity":0.5826771653543307,"duration":1.2698400000000447},{"name":"C#4","midi":61,"time":65.71421999999973,"velocity":0.5826771653543307,"duration":0.1587300000000056},{"name":"B4","midi":71,"time":65.87294999999973,"velocity":0.5826771653543307,"duration":0.1587300000000056},{"name":"A4","midi":69,"time":66.03167999999974,"velocity":0.5826771653543307,"duration":0.1587300000000056},{"name":"C#4","midi":61,"time":66.19040999999974,"velocity":0.5826771653543307,"duration":0.31613725000001125},{"name":"G4","midi":67,"time":66.19040999999974,"velocity":0.5826771653543307,"duration":0.1587300000000056},{"name":"F#4","midi":66,"time":66.34913999999975,"velocity":0.5826771653543307,"duration":0.1587300000000056},{"name":"E4","midi":64,"time":66.50786999999976,"velocity":0.5826771653543307,"duration":0.1587300000000056},{"name":"F#4","midi":66,"time":66.66659999999976,"velocity":0.5826771653543307,"duration":0.1587300000000056},{"name":"D4","midi":62,"time":66.66659999999976,"velocity":0.5826771653543307,"duration":0.6441792500000219},{"name":"G4","midi":67,"time":66.82532999999977,"velocity":0.5826771653543307,"duration":0.1587300000000056},{"name":"C#5","midi":73,"time":66.98405999999977,"velocity":0.5826771653543307,"duration":0.1587300000000056},{"name":"A4","midi":69,"time":66.98405999999977,"velocity":0.5826771653543307,"duration":0.1587300000000056},{"name":"D5","midi":74,"time":67.14278999999978,"velocity":0.5826771653543307,"duration":0.3174600000000112},{"name":"G4","midi":67,"time":67.14278999999978,"velocity":0.5826771653543307,"duration":0.1587300000000056},{"name":"F#4","midi":66,"time":67.30151999999978,"velocity":0.5826771653543307,"duration":0.1587300000000056},{"name":"E5","midi":76,"time":67.46024999999979,"velocity":0.5826771653543307,"duration":0.1587300000000056},{"name":"E4","midi":64,"time":67.46024999999979,"velocity":0.5826771653543307,"duration":0.1587300000000056},{"name":"F#5","midi":78,"time":67.6189799999998,"velocity":0.5826771653543307,"duration":1.2698400000000305},{"name":"D4","midi":62,"time":67.6189799999998,"velocity":0.5826771653543307,"duration":0.2208992500000022},{"name":"C5","midi":72,"time":67.7777099999998,"velocity":0.5826771653543307,"duration":0.15872999999999138},{"name":"B4","midi":71,"time":67.93643999999979,"velocity":0.5826771653543307,"duration":0.1587300000000056},{"name":"D#4","midi":63,"time":68.0951699999998,"velocity":0.5826771653543307,"duration":0.3267192500000107},{"name":"A4","midi":69,"time":68.0951699999998,"velocity":0.5826771653543307,"duration":0.1587300000000056},{"name":"G4","midi":67,"time":68.2538999999998,"velocity":0.5826771653543307,"duration":0.1587300000000056},{"name":"F#4","midi":66,"time":68.41262999999981,"velocity":0.5826771653543307,"duration":0.1587300000000056},{"name":"G4","midi":67,"time":68.57135999999981,"velocity":0.5826771653543307,"duration":0.1587300000000056},{"name":"E4","midi":64,"time":68.57135999999981,"velocity":0.5826771653543307,"duration":0.792327250000028},{"name":"A4","midi":69,"time":68.73008999999982,"velocity":0.5826771653543307,"duration":0.1587300000000056},{"name":"D#5","midi":75,"time":68.88881999999982,"velocity":0.5826771653543307,"duration":0.1587300000000056},{"name":"B4","midi":71,"time":68.88881999999982,"velocity":0.5826771653543307,"duration":0.1587300000000056},{"name":"E5","midi":76,"time":69.04754999999983,"velocity":0.5826771653543307,"duration":0.3174600000000112},{"name":"A4","midi":69,"time":69.04754999999983,"velocity":0.5826771653543307,"duration":0.1587300000000056},{"name":"G4","midi":67,"time":69.20627999999984,"velocity":0.5826771653543307,"duration":0.1587300000000056},{"name":"F#5","midi":78,"time":69.36500999999984,"velocity":0.5826771653543307,"duration":0.1587300000000056},{"name":"F#4","midi":66,"time":69.36500999999984,"velocity":0.5826771653543307,"duration":0.1587300000000056},{"name":"E4","midi":64,"time":69.52373999999985,"velocity":0.5826771653543307,"duration":0.2208992500000022},{"name":"G5","midi":79,"time":69.52373999999985,"velocity":0.5826771653543307,"duration":0.31745999999999697},{"name":"D5","midi":74,"time":69.68246999999985,"velocity":0.5826771653543307,"duration":0.15872999999999138},{"name":"C#5","midi":73,"time":69.84119999999984,"velocity":0.5826771653543307,"duration":0.7936500000000137},{"name":"F4","midi":65,"time":69.99992999999985,"velocity":0.5826771653543307,"duration":0.3478832500000095},{"name":"B4","midi":71,"time":69.99992999999985,"velocity":0.5826771653543307,"duration":0.1587300000000056},{"name":"A#4","midi":70,"time":70.15865999999986,"velocity":0.5826771653543307,"duration":0.1587300000000056},{"name":"G#4","midi":68,"time":70.31738999999986,"velocity":0.5826771653543307,"duration":0.15872999999999138},{"name":"A#4","midi":70,"time":70.47611999999985,"velocity":0.5826771653543307,"duration":0.47619000000001677},{"name":"F#4","midi":66,"time":70.47611999999985,"velocity":0.5826771653543307,"duration":1.1111100000000391},{"name":"D5","midi":74,"time":70.63484999999986,"velocity":0.5826771653543307,"duration":0.1587300000000056},{"name":"E5","midi":76,"time":70.79357999999986,"velocity":0.5826771653543307,"duration":0.1587300000000056},{"name":"D5","midi":74,"time":70.95230999999987,"velocity":0.5826771653543307,"duration":0.1587300000000056},{"name":"B4","midi":71,"time":70.95230999999987,"velocity":0.5826771653543307,"duration":0.47619000000001677},{"name":"C#5","midi":73,"time":71.11103999999987,"velocity":0.5826771653543307,"duration":0.1587300000000056},{"name":"B4","midi":71,"time":71.26976999999988,"velocity":0.5826771653543307,"duration":0.1587300000000056},{"name":"A#5","midi":82,"time":71.42849999999989,"velocity":0.5826771653543307,"duration":0.47619000000001677},{"name":"C#5","midi":73,"time":71.42849999999989,"velocity":0.5826771653543307,"duration":0.47619000000001677},{"name":"G4","midi":67,"time":71.58722999999989,"velocity":0.5826771653543307,"duration":0.1587300000000056},{"name":"F#4","midi":66,"time":71.7459599999999,"velocity":0.5826771653543307,"duration":0.1587300000000056},{"name":"C#5","midi":73,"time":71.9046899999999,"velocity":0.5826771653543307,"duration":0.16798924999999088},{"name":"E4","midi":64,"time":71.9046899999999,"velocity":0.5826771653543307,"duration":0.15872999999999138},{"name":"D5","midi":74,"time":72.0210919999999,"velocity":0.5826771653543307,"duration":0.0939152499999949},{"name":"D4","midi":62,"time":72.0634199999999,"velocity":0.5826771653543307,"duration":0.15872999999999138},{"name":"C#5","midi":73,"time":72.0740019999999,"velocity":0.5826771653543307,"duration":0.0939152499999949},{"name":"B4","midi":71,"time":72.12691199999989,"velocity":0.5826771653543307,"duration":0.0939152499999949},{"name":"C#5","midi":73,"time":72.16923999999989,"velocity":0.5826771653543307,"duration":0.3796292500000078},{"name":"C#4","midi":61,"time":72.22214999999989,"velocity":0.5826771653543307,"duration":0.1587300000000056},{"name":"F#5","midi":78,"time":72.38087999999989,"velocity":0.5826771653543307,"duration":1.4285700000000503},{"name":"D4","midi":62,"time":72.38087999999989,"velocity":0.5826771653543307,"duration":1.1111100000000391},{"name":"E5","midi":76,"time":72.5396099999999,"velocity":0.5826771653543307,"duration":0.1587300000000056},{"name":"D5","midi":74,"time":72.6983399999999,"velocity":0.5826771653543307,"duration":0.1587300000000056},{"name":"C#5","midi":73,"time":72.85706999999991,"velocity":0.5826771653543307,"duration":0.1587300000000056},{"name":"B4","midi":71,"time":73.01579999999991,"velocity":0.5826771653543307,"duration":0.1587300000000056},{"name":"A#4","midi":70,"time":73.17452999999992,"velocity":0.5826771653543307,"duration":0.1587300000000056},{"name":"B4","midi":71,"time":73.33325999999992,"velocity":0.5826771653543307,"duration":0.16798925000000509},{"name":"E4","midi":64,"time":73.49198999999993,"velocity":0.5826771653543307,"duration":0.1587300000000056},{"name":"D4","midi":62,"time":73.65071999999994,"velocity":0.5826771653543307,"duration":0.1587300000000056},{"name":"C#5","midi":73,"time":73.80944999999994,"velocity":0.5826771653543307,"duration":0.47619000000001677},{"name":"E5","midi":76,"time":73.80944999999994,"velocity":0.5826771653543307,"duration":0.6349200000000224},{"name":"C#4","midi":61,"time":73.80944999999994,"velocity":0.5826771653543307,"duration":0.1587300000000056},{"name":"B3","midi":59,"time":73.96817999999995,"velocity":0.5826771653543307,"duration":0.1587300000000056},{"name":"A#3","midi":58,"time":74.12690999999995,"velocity":0.5826771653543307,"duration":0.1587300000000056},{"name":"F#4","midi":66,"time":74.28563999999996,"velocity":0.5826771653543307,"duration":0.9523800000000335},{"name":"B3","midi":59,"time":74.28563999999996,"velocity":0.5826771653543307,"duration":1.1111100000000391},{"name":"F#5","midi":78,"time":74.44436999999996,"velocity":0.5826771653543307,"duration":0.1587300000000056},{"name":"E5","midi":76,"time":74.60309999999997,"velocity":0.5826771653543307,"duration":0.1587300000000056},{"name":"D5","midi":74,"time":74.76182999999997,"velocity":0.5826771653543307,"duration":0.1587300000000056},{"name":"C#5","midi":73,"time":74.92055999999998,"velocity":0.5826771653543307,"duration":0.1587300000000056},{"name":"B4","midi":71,"time":75.07928999999999,"velocity":0.5826771653543307,"duration":0.1587300000000056},{"name":"F#5","midi":78,"time":75.23801999999999,"velocity":0.5826771653543307,"duration":1.1111100000000391},{"name":"C4","midi":60,"time":75.39675,"velocity":0.5826771653543307,"duration":0.1587300000000056},{"name":"B3","midi":59,"time":75.55548,"velocity":0.5826771653543307,"duration":0.1587300000000056},{"name":"F#4","midi":66,"time":75.71421000000001,"velocity":0.5826771653543307,"duration":0.16798925000000509},{"name":"A3","midi":57,"time":75.71421000000001,"velocity":0.5826771653543307,"duration":0.1587300000000056},{"name":"G3","midi":55,"time":75.87294000000001,"velocity":0.5826771653543307,"duration":0.1587300000000056},{"name":"F#3","midi":54,"time":76.03167000000002,"velocity":0.5826771653543307,"duration":0.1587300000000056},{"name":"B4","midi":71,"time":76.19040000000003,"velocity":0.5826771653543307,"duration":0.9523800000000335},{"name":"G3","midi":55,"time":76.19040000000003,"velocity":0.5826771653543307,"duration":1.1111100000000391},{"name":"G5","midi":79,"time":76.34913000000003,"velocity":0.5826771653543307,"duration":0.1587300000000056},{"name":"F#5","midi":78,"time":76.50786000000004,"velocity":0.5826771653543307,"duration":0.1587300000000056},{"name":"E5","midi":76,"time":76.66659000000004,"velocity":0.5826771653543307,"duration":0.1587300000000056},{"name":"D#5","midi":75,"time":76.82532000000005,"velocity":0.5826771653543307,"duration":0.1587300000000056},{"name":"C#5","midi":73,"time":76.98405000000005,"velocity":0.5826771653543307,"duration":0.623015250000023},{"name":"A5","midi":81,"time":77.14278000000006,"velocity":0.5826771653543307,"duration":1.4285700000000503},{"name":"A3","midi":57,"time":77.30151000000006,"velocity":0.5826771653543307,"duration":0.1587300000000056},{"name":"G3","midi":55,"time":77.46024000000007,"velocity":0.5826771653543307,"duration":0.1587300000000056},{"name":"D#5","midi":75,"time":77.61897000000008,"velocity":0.5826771653543307,"duration":0.1587300000000056},{"name":"F#3","midi":54,"time":77.61897000000008,"velocity":0.5826771653543307,"duration":0.1587300000000056},{"name":"E5","midi":76,"time":77.77770000000008,"velocity":0.5826771653543307,"duration":0.1587300000000056},{"name":"E3","midi":52,"time":77.77770000000008,"velocity":0.5826771653543307,"duration":0.1587300000000056},{"name":"D#3","midi":51,"time":77.93643000000009,"velocity":0.5826771653543307,"duration":0.1587300000000056},{"name":"F#5","midi":78,"time":77.93643000000009,"velocity":0.5826771653543307,"duration":0.1587300000000056},{"name":"B4","midi":71,"time":78.09516000000009,"velocity":0.5826771653543307,"duration":0.1785712500000045},{"name":"E3","midi":52,"time":78.09516000000009,"velocity":0.5826771653543307,"duration":0.1587300000000056},{"name":"F#3","midi":54,"time":78.2538900000001,"velocity":0.5826771653543307,"duration":0.1587300000000056},{"name":"E3","midi":52,"time":78.4126200000001,"velocity":0.5826771653543307,"duration":0.1587300000000056},{"name":"G5","midi":79,"time":78.57135000000011,"velocity":0.5826771653543307,"duration":0.47619000000001677},{"name":"E5","midi":76,"time":78.57135000000011,"velocity":0.5826771653543307,"duration":0.6349200000000224},{"name":"D3","midi":50,"time":78.57135000000011,"velocity":0.5826771653543307,"duration":0.1587300000000056},{"name":"C#3","midi":49,"time":78.73008000000011,"velocity":0.5826771653543307,"duration":0.1587300000000056},{"name":"B2","midi":47,"time":78.88881000000012,"velocity":0.5826771653543307,"duration":0.1587300000000056},{"name":"F#5","midi":78,"time":79.04754000000013,"velocity":0.5826771653543307,"duration":1.9047600000000244},{"name":"A#2","midi":46,"time":79.04754000000013,"velocity":0.5826771653543307,"duration":0.1587300000000056},{"name":"E5","midi":76,"time":79.20627000000013,"velocity":0.5826771653543307,"duration":0.1587300000000056},{"name":"F#2","midi":42,"time":79.20627000000013,"velocity":0.5826771653543307,"duration":0.1587300000000056},{"name":"D5","midi":74,"time":79.36500000000014,"velocity":0.5826771653543307,"duration":0.1587300000000056},{"name":"G#2","midi":44,"time":79.36500000000014,"velocity":0.5826771653543307,"duration":0.1587300000000056},{"name":"C#5","midi":73,"time":79.52373000000014,"velocity":0.5826771653543307,"duration":0.1587300000000056},{"name":"A#2","midi":46,"time":79.52373000000014,"velocity":0.5826771653543307,"duration":0.1587300000000056},{"name":"B4","midi":71,"time":79.68246000000015,"velocity":0.5826771653543307,"duration":0.1587300000000056},{"name":"B2","midi":47,"time":79.68246000000015,"velocity":0.5826771653543307,"duration":0.1587300000000056},{"name":"C#3","midi":49,"time":79.84119000000015,"velocity":0.5826771653543307,"duration":0.1587300000000056},{"name":"A#4","midi":70,"time":79.84119000000015,"velocity":0.5826771653543307,"duration":0.1587300000000056},{"name":"B4","midi":71,"time":79.99992000000016,"velocity":0.5826771653543307,"duration":0.1587300000000056},{"name":"D3","midi":50,"time":79.99992000000016,"velocity":0.5826771653543307,"duration":0.1785712500000045},{"name":"D5","midi":74,"time":80.15865000000016,"velocity":0.5826771653543307,"duration":0.1587300000000056},{"name":"B4","midi":71,"time":80.31738000000017,"velocity":0.5826771653543307,"duration":0.1587300000000056},{"name":"G#4","midi":68,"time":80.47611000000018,"velocity":0.5826771653543307,"duration":0.3373012499999817},{"name":"E3","midi":52,"time":80.47611000000018,"velocity":0.5826771653543307,"duration":0.11904749999999353},{"name":"D3","midi":50,"time":80.59515750000017,"velocity":0.5826771653543307,"duration":0.11904749999999353},{"name":"C#3","midi":49,"time":80.71420500000016,"velocity":0.5826771653543307,"duration":0.11904749999999353},{"name":"D3","midi":50,"time":80.83325250000016,"velocity":0.5826771653543307,"duration":0.11904749999999353},{"name":"C#5","midi":73,"time":80.95230000000015,"velocity":0.5826771653543307,"duration":1.4285699999999935},{"name":"E3","midi":52,"time":80.95230000000015,"velocity":0.5826771653543307,"duration":0.16798925000000509},{"name":"E5","midi":76,"time":81.11103000000016,"velocity":0.5826771653543307,"duration":0.1587300000000056},{"name":"G#4","midi":68,"time":81.26976000000016,"velocity":0.5826771653543307,"duration":0.1587300000000056},{"name":"A#4","midi":70,"time":81.42849000000017,"velocity":0.5826771653543307,"duration":0.3478832499999811},{"name":"F#3","midi":54,"time":81.42849000000017,"velocity":0.5826771653543307,"duration":0.11904749999999353},{"name":"E3","midi":52,"time":81.54753750000016,"velocity":0.5826771653543307,"duration":0.11904749999999353},{"name":"D3","midi":50,"time":81.66658500000015,"velocity":0.5826771653543307,"duration":0.11904749999999353},{"name":"E3","midi":52,"time":81.78563250000015,"velocity":0.5826771653543307,"duration":0.11904749999999353},{"name":"D5","midi":74,"time":81.90468000000014,"velocity":0.5826771653543307,"duration":0.1587300000000056},{"name":"F#3","midi":54,"time":81.90468000000014,"velocity":0.5826771653543307,"duration":0.18915325000000394},{"name":"F#5","midi":78,"time":82.06341000000015,"velocity":0.5826771653543307,"duration":0.15872999999999138},{"name":"A#4","midi":70,"time":82.22214000000014,"velocity":0.5826771653543307,"duration":0.1587300000000056},{"name":"B4","midi":71,"time":82.38087000000014,"velocity":0.5826771653543307,"duration":1.5873000000000133},{"name":"D3","midi":50,"time":82.38087000000014,"velocity":0.5826771653543307,"duration":0.18915325000000394},{"name":"B2","midi":47,"time":82.85706000000015,"velocity":0.5826771653543307,"duration":0.16798925000000509},{"name":"A4","midi":69,"time":83.01579000000015,"velocity":0.5826771653543307,"duration":0.1587300000000056},{"name":"G4","midi":67,"time":83.17452000000016,"velocity":0.5826771653543307,"duration":0.1587300000000056},{"name":"G3","midi":55,"time":83.33325000000016,"velocity":0.5826771653543307,"duration":0.1362432499999926},{"name":"F#4","midi":66,"time":83.33325000000016,"velocity":0.5826771653543307,"duration":0.15872999999999138},{"name":"F#3","midi":54,"time":83.41790600000016,"velocity":0.5826771653543307,"duration":0.1362432499999926},{"name":"G3","midi":55,"time":83.47081600000016,"velocity":0.5826771653543307,"duration":0.8240732500000121},{"name":"E4","midi":64,"time":83.49198000000015,"velocity":0.5826771653543307,"duration":0.15872999999999138},{"name":"D#4","midi":63,"time":83.65071000000015,"velocity":0.5826771653543307,"duration":0.1587300000000056},{"name":"E4","midi":64,"time":83.80944000000015,"velocity":0.5826771653543307,"duration":0.9523800000000051},{"name":"C#5","midi":73,"time":83.96817000000016,"velocity":0.5826771653543307,"duration":0.1587300000000056},{"name":"B4","midi":71,"time":84.12690000000016,"velocity":0.5826771653543307,"duration":0.1587300000000056},{"name":"A#4","midi":70,"time":84.28563000000017,"velocity":0.5826771653543307,"duration":0.1587300000000056},{"name":"F#3","midi":54,"time":84.28563000000017,"velocity":0.5826771653543307,"duration":0.19973525000000336},{"name":"G#4","midi":68,"time":84.44436000000017,"velocity":0.5826771653543307,"duration":0.15872999999999138},{"name":"F#4","midi":66,"time":84.60309000000017,"velocity":0.5826771653543307,"duration":0.15872999999999138},{"name":"A#3","midi":58,"time":84.64277250000016,"velocity":0.5826771653543307,"duration":0.11904749999999353},{"name":"D4","midi":62,"time":84.76182000000016,"velocity":0.5826771653543307,"duration":0.9523800000000193},{"name":"B3","midi":59,"time":84.76182000000016,"velocity":0.5826771653543307,"duration":0.18915325000000394},{"name":"B4","midi":71,"time":84.92055000000016,"velocity":0.5826771653543307,"duration":0.15872999999999138},{"name":"A4","midi":69,"time":85.07928000000015,"velocity":0.5826771653543307,"duration":0.1587300000000056},{"name":"E3","midi":52,"time":85.23801000000016,"velocity":0.5826771653543307,"duration":0.9523800000000335},{"name":"G4","midi":67,"time":85.23801000000016,"velocity":0.5826771653543307,"duration":0.1587300000000056},{"name":"F#4","midi":66,"time":85.39674000000016,"velocity":0.5826771653543307,"duration":0.1587300000000056},{"name":"E4","midi":64,"time":85.55547000000017,"velocity":0.5826771653543307,"duration":0.1587300000000056},{"name":"A#4","midi":70,"time":85.71420000000018,"velocity":0.5826771653543307,"duration":0.1587300000000056},{"name":"C#4","midi":61,"time":85.71420000000018,"velocity":0.5826771653543307,"duration":0.9523800000000051},{"name":"F#4","midi":66,"time":85.87293000000018,"velocity":0.5826771653543307,"duration":0.1587300000000056},{"name":"G#4","midi":68,"time":86.03166000000019,"velocity":0.5826771653543307,"duration":0.1587300000000056},{"name":"A#4","midi":70,"time":86.19039000000019,"velocity":0.5826771653543307,"duration":0.1587300000000056},{"name":"D3","midi":50,"time":86.19039000000019,"velocity":0.5826771653543307,"duration":0.19973525000000336},{"name":"B4","midi":71,"time":86.3491200000002,"velocity":0.5826771653543307,"duration":0.15872999999999138},{"name":"C#5","midi":73,"time":86.50785000000019,"velocity":0.5826771653543307,"duration":0.15872999999999138},{"name":"A#3","midi":58,"time":86.54753250000019,"velocity":0.5826771653543307,"duration":0.11904749999999353},{"name":"B3","midi":59,"time":86.66658000000018,"velocity":0.5826771653543307,"duration":0.9523800000000335},{"name":"D5","midi":74,"time":86.66658000000018,"velocity":0.5826771653543307,"duration":0.1587300000000056},{"name":"C#4","midi":61,"time":86.82531000000019,"velocity":0.5826771653543307,"duration":0.1587300000000056},{"name":"D4","midi":62,"time":86.98404000000019,"velocity":0.5826771653543307,"duration":0.1587300000000056},{"name":"C#3","midi":49,"time":87.1427700000002,"velocity":0.5826771653543307,"duration":0.6349200000000224},{"name":"E4","midi":64,"time":87.1427700000002,"velocity":0.5826771653543307,"duration":0.1587300000000056},{"name":"F#4","midi":66,"time":87.3015000000002,"velocity":0.5826771653543307,"duration":0.1587300000000056},{"name":"G4","midi":67,"time":87.46023000000021,"velocity":0.5826771653543307,"duration":0.6349200000000224},{"name":"A#3","midi":58,"time":87.61896000000021,"velocity":0.5826771653543307,"duration":0.47619000000001677},{"name":"D3","midi":50,"time":87.77769000000022,"velocity":0.5826771653543307,"duration":0.1587300000000056},{"name":"E3","midi":52,"time":87.93642000000023,"velocity":0.5826771653543307,"duration":0.1587300000000056},{"name":"F#4","midi":66,"time":88.09515000000023,"velocity":0.5826771653543307,"duration":0.1587300000000056},{"name":"B3","midi":59,"time":88.09515000000023,"velocity":0.5826771653543307,"duration":0.47619000000001677},{"name":"D3","midi":50,"time":88.09515000000023,"velocity":0.5826771653543307,"duration":0.1587300000000056},{"name":"E4","midi":64,"time":88.25388000000024,"velocity":0.5826771653543307,"duration":0.1587300000000056},{"name":"C#3","midi":49,"time":88.25388000000024,"velocity":0.5826771653543307,"duration":0.1587300000000056},{"name":"D4","midi":62,"time":88.41261000000024,"velocity":0.5826771653543307,"duration":0.1587300000000056},{"name":"B2","midi":47,"time":88.41261000000024,"velocity":0.5826771653543307,"duration":0.1587300000000056},{"name":"C#4","midi":61,"time":88.57134000000025,"velocity":0.5826771653543307,"duration":1.2698400000000447},{"name":"E4","midi":64,"time":88.57134000000025,"velocity":0.5826771653543307,"duration":0.47619000000001677},{"name":"A#2","midi":46,"time":88.57134000000025,"velocity":0.5826771653543307,"duration":0.1587300000000056},{"name":"G3","midi":55,"time":88.73007000000025,"velocity":0.5826771653543307,"duration":0.1587300000000056},{"name":"F#3","midi":54,"time":88.88880000000026,"velocity":0.5826771653543307,"duration":0.1587300000000056},{"name":"A#3","midi":58,"time":89.04753000000026,"velocity":0.5826771653543307,"duration":0.47619000000001677},{"name":"E3","midi":52,"time":89.04753000000026,"velocity":0.5826771653543307,"duration":0.1587300000000056},{"name":"D3","midi":50,"time":89.20626000000027,"velocity":0.5826771653543307,"duration":0.1587300000000056},{"name":"C#3","midi":49,"time":89.36499000000028,"velocity":0.5826771653543307,"duration":0.1587300000000056},{"name":"F#4","midi":66,"time":89.52372000000028,"velocity":0.5826771653543307,"duration":1.2698400000000447},{"name":"D3","midi":50,"time":89.52372000000028,"velocity":0.5826771653543307,"duration":0.1587300000000056},{"name":"E3","midi":52,"time":89.68245000000029,"velocity":0.5826771653543307,"duration":0.1587300000000056},{"name":"A#3","midi":58,"time":89.84118000000029,"velocity":0.5826771653543307,"duration":0.1587300000000056},{"name":"F#3","midi":54,"time":89.84118000000029,"velocity":0.5826771653543307,"duration":0.1587300000000056},{"name":"B3","midi":59,"time":89.9999100000003,"velocity":0.5826771653543307,"duration":0.16798925000000509},{"name":"E3","midi":52,"time":89.9999100000003,"velocity":0.5826771653543307,"duration":0.1587300000000056},{"name":"D3","midi":50,"time":90.1586400000003,"velocity":0.5826771653543307,"duration":0.1587300000000056},{"name":"C#4","midi":61,"time":90.31737000000031,"velocity":0.5826771653543307,"duration":0.1587300000000056},{"name":"C#3","midi":49,"time":90.31737000000031,"velocity":0.5826771653543307,"duration":0.1587300000000056},{"name":"D4","midi":62,"time":90.47610000000032,"velocity":0.5826771653543307,"duration":1.2698400000000447},{"name":"B2","midi":47,"time":90.47610000000032,"velocity":0.5826771653543307,"duration":0.1587300000000056},{"name":"A3","midi":57,"time":90.63483000000032,"velocity":0.5826771653543307,"duration":0.1587300000000056},{"name":"B3","midi":59,"time":90.79356000000033,"velocity":0.5826771653543307,"duration":0.1587300000000056},{"name":"G3","midi":55,"time":90.79356000000033,"velocity":0.5826771653543307,"duration":0.1587300000000056},{"name":"A#3","midi":58,"time":90.95229000000033,"velocity":0.5826771653543307,"duration":0.3174600000000112},{"name":"F#3","midi":54,"time":90.95229000000033,"velocity":0.5826771653543307,"duration":0.1587300000000056},{"name":"E3","midi":52,"time":91.11102000000034,"velocity":0.5826771653543307,"duration":0.1587300000000056},{"name":"D3","midi":50,"time":91.26975000000034,"velocity":0.5826771653543307,"duration":0.1587300000000056},{"name":"B3","midi":59,"time":91.26975000000034,"velocity":0.5826771653543307,"duration":0.1587300000000056},{"name":"G4","midi":67,"time":91.42848000000035,"velocity":0.5826771653543307,"duration":1.2698400000000447},{"name":"E3","midi":52,"time":91.42848000000035,"velocity":0.5826771653543307,"duration":0.1587300000000056},{"name":"F#3","midi":54,"time":91.58721000000035,"velocity":0.5826771653543307,"duration":0.1587300000000056},{"name":"B3","midi":59,"time":91.74594000000036,"velocity":0.5826771653543307,"duration":0.1587300000000056},{"name":"G3","midi":55,"time":91.74594000000036,"velocity":0.5826771653543307,"duration":0.1587300000000056},{"name":"C#4","midi":61,"time":91.90467000000037,"velocity":0.5826771653543307,"duration":0.16798925000000509},{"name":"F#3","midi":54,"time":91.90467000000037,"velocity":0.5826771653543307,"duration":0.1587300000000056},{"name":"E3","midi":52,"time":92.06340000000037,"velocity":0.5826771653543307,"duration":0.1587300000000056},{"name":"D4","midi":62,"time":92.22213000000038,"velocity":0.5826771653543307,"duration":0.1587300000000056},{"name":"D3","midi":50,"time":92.22213000000038,"velocity":0.5826771653543307,"duration":0.1587300000000056},{"name":"E4","midi":64,"time":92.38086000000038,"velocity":0.5826771653543307,"duration":1.2698400000000305},{"name":"C#3","midi":49,"time":92.38086000000038,"velocity":0.5826771653543307,"duration":0.1587300000000056},{"name":"B3","midi":59,"time":92.53959000000039,"velocity":0.5826771653543307,"duration":0.1587300000000056},{"name":"C#4","midi":61,"time":92.6983200000004,"velocity":0.5826771653543307,"duration":0.1587300000000056},{"name":"A3","midi":57,"time":92.6983200000004,"velocity":0.5826771653543307,"duration":0.1587300000000056},{"name":"B3","midi":59,"time":92.8570500000004,"velocity":0.5826771653543307,"duration":0.19973525000000336},{"name":"G3","midi":55,"time":92.8570500000004,"velocity":0.5826771653543307,"duration":0.1587300000000056},{"name":"F#3","midi":54,"time":93.0157800000004,"velocity":0.5826771653543307,"duration":0.15872999999999138},{"name":"E3","midi":52,"time":93.1745100000004,"velocity":0.5826771653543307,"duration":0.1587300000000056},{"name":"C#4","midi":61,"time":93.1745100000004,"velocity":0.5826771653543307,"duration":0.1587300000000056},{"name":"A4","midi":69,"time":93.3332400000004,"velocity":0.5826771653543307,"duration":1.2698400000000305},{"name":"F#3","midi":54,"time":93.3332400000004,"velocity":0.5826771653543307,"duration":0.1587300000000056},{"name":"G3","midi":55,"time":93.4919700000004,"velocity":0.5826771653543307,"duration":0.1587300000000056},{"name":"C#4","midi":61,"time":93.65070000000041,"velocity":0.5826771653543307,"duration":0.1587300000000056},{"name":"A3","midi":57,"time":93.65070000000041,"velocity":0.5826771653543307,"duration":0.1587300000000056},{"name":"D#4","midi":63,"time":93.80943000000042,"velocity":0.5826771653543307,"duration":0.2103172500000028},{"name":"G3","midi":55,"time":93.80943000000042,"velocity":0.5826771653543307,"duration":0.1587300000000056},{"name":"F#3","midi":54,"time":93.96816000000042,"velocity":0.5826771653543307,"duration":0.15872999999999138},{"name":"E4","midi":64,"time":94.12689000000042,"velocity":0.5826771653543307,"duration":0.1587300000000056},{"name":"E3","midi":52,"time":94.12689000000042,"velocity":0.5826771653543307,"duration":0.1587300000000056},{"name":"F#4","midi":66,"time":94.28562000000042,"velocity":0.5826771653543307,"duration":0.6349200000000224},{"name":"D#3","midi":51,"time":94.28562000000042,"velocity":0.5826771653543307,"duration":0.1587300000000056},{"name":"C4","midi":60,"time":94.44435000000043,"velocity":0.5826771653543307,"duration":0.1587300000000056},{"name":"E4","midi":64,"time":94.60308000000043,"velocity":0.5826771653543307,"duration":0.1587300000000056},{"name":"B3","midi":59,"time":94.60308000000043,"velocity":0.5826771653543307,"duration":0.1587300000000056},{"name":"D#4","midi":63,"time":94.76181000000044,"velocity":0.5826771653543307,"duration":0.47619000000001677},{"name":"A3","midi":57,"time":94.76181000000044,"velocity":0.5826771653543307,"duration":0.1587300000000056},{"name":"E4","midi":64,"time":94.92054000000044,"velocity":0.5826771653543307,"duration":0.1587300000000056},{"name":"G3","midi":55,"time":94.92054000000044,"velocity":0.5826771653543307,"duration":0.1587300000000056},{"name":"F#4","midi":66,"time":95.07927000000045,"velocity":0.5826771653543307,"duration":0.1587300000000056},{"name":"F#3","midi":54,"time":95.07927000000045,"velocity":0.5826771653543307,"duration":0.1587300000000056},{"name":"E4","midi":64,"time":95.23800000000045,"velocity":0.5826771653543307,"duration":0.47619000000000256},{"name":"G4","midi":67,"time":95.23800000000045,"velocity":0.5826771653543307,"duration":0.18915325000000394},{"name":"E3","midi":52,"time":95.23800000000045,"velocity":0.5826771653543307,"duration":0.1587300000000056},{"name":"G3","midi":55,"time":95.39673000000046,"velocity":0.5826771653543307,"duration":0.15872999999999138},{"name":"B3","midi":59,"time":95.55546000000045,"velocity":0.5826771653543307,"duration":0.1587300000000056},{"name":"A4","midi":69,"time":95.71419000000046,"velocity":0.5826771653543307,"duration":0.11904749999999353},{"name":"C#4","midi":61,"time":95.71419000000046,"velocity":0.5826771653543307,"duration":0.16798924999999088},{"name":"G4","midi":67,"time":95.83323750000045,"velocity":0.5826771653543307,"duration":0.11904749999999353},{"name":"F#4","midi":66,"time":95.95228500000044,"velocity":0.5826771653543307,"duration":0.11904749999999353},{"name":"G4","midi":67,"time":96.07133250000044,"velocity":0.5826771653543307,"duration":0.11904749999999353},{"name":"C5","midi":72,"time":96.19038000000043,"velocity":0.5826771653543307,"duration":0.3267192500000107},{"name":"A4","midi":69,"time":96.19038000000043,"velocity":0.5826771653543307,"duration":0.14682525000000624},{"name":"F#3","midi":54,"time":96.19038000000043,"velocity":0.5826771653543307,"duration":0.1587300000000056},{"name":"A3","midi":57,"time":96.34911000000044,"velocity":0.5826771653543307,"duration":0.1587300000000056},{"name":"C4","midi":60,"time":96.50784000000044,"velocity":0.5826771653543307,"duration":0.1587300000000056},{"name":"D#4","midi":63,"time":96.66657000000045,"velocity":0.5826771653543307,"duration":0.1785712499999903},{"name":"B4","midi":71,"time":96.66657000000045,"velocity":0.5826771653543307,"duration":0.11904749999999353},{"name":"A4","midi":69,"time":96.78561750000044,"velocity":0.5826771653543307,"duration":0.11904749999999353},{"name":"G4","midi":67,"time":96.90466500000043,"velocity":0.5826771653543307,"duration":0.11904749999999353},{"name":"A4","midi":69,"time":97.02371250000043,"velocity":0.5826771653543307,"duration":0.11904749999999353},{"name":"B4","midi":71,"time":97.14276000000042,"velocity":0.5826771653543307,"duration":0.47619000000001677},{"name":"G3","midi":55,"time":97.14276000000042,"velocity":0.5826771653543307,"duration":0.1587300000000056},{"name":"B3","midi":59,"time":97.30149000000043,"velocity":0.5826771653543307,"duration":0.1587300000000056},{"name":"D#4","midi":63,"time":97.46022000000043,"velocity":0.5826771653543307,"duration":0.1587300000000056},{"name":"E4","midi":64,"time":97.61895000000044,"velocity":0.5826771653543307,"duration":0.9523800000000335},{"name":"G4","midi":67,"time":97.61895000000044,"velocity":0.5826771653543307,"duration":0.47619000000001677},{"name":"E5","midi":76,"time":97.77768000000044,"velocity":0.5826771653543307,"duration":0.1587300000000056},{"name":"D5","midi":74,"time":97.93641000000045,"velocity":0.5826771653543307,"duration":0.1587300000000056},{"name":"C5","midi":72,"time":98.09514000000046,"velocity":0.5826771653543307,"duration":0.1587300000000056},{"name":"E3","midi":52,"time":98.09514000000046,"velocity":0.5826771653543307,"duration":0.1587300000000056},{"name":"B4","midi":71,"time":98.25387000000046,"velocity":0.5826771653543307,"duration":0.1587300000000056},{"name":"D4","midi":62,"time":98.25387000000046,"velocity":0.5826771653543307,"duration":0.1587300000000056},{"name":"A4","midi":69,"time":98.41260000000047,"velocity":0.5826771653543307,"duration":0.1587300000000056},{"name":"C4","midi":60,"time":98.41260000000047,"velocity":0.5826771653543307,"duration":0.1587300000000056},{"name":"C5","midi":72,"time":98.57133000000047,"velocity":0.5826771653543307,"duration":0.9523800000000335},{"name":"G#4","midi":68,"time":98.57133000000047,"velocity":0.5826771653543307,"duration":0.1587300000000056},{"name":"B3","midi":59,"time":98.57133000000047,"velocity":0.5826771653543307,"duration":0.1587300000000056},{"name":"A4","midi":69,"time":98.73006000000048,"velocity":0.5826771653543307,"duration":0.1587300000000056},{"name":"A3","midi":57,"time":98.73006000000048,"velocity":0.5826771653543307,"duration":0.1587300000000056},{"name":"B4","midi":71,"time":98.88879000000048,"velocity":0.5826771653543307,"duration":0.1587300000000056},{"name":"G#3","midi":56,"time":98.88879000000048,"velocity":0.5826771653543307,"duration":0.1587300000000056},{"name":"E4","midi":64,"time":99.04752000000049,"velocity":0.5826771653543307,"duration":0.1587300000000056},{"name":"A3","midi":57,"time":99.04752000000049,"velocity":0.5826771653543307,"duration":0.9523800000000193},{"name":"F#4","midi":66,"time":99.2062500000005,"velocity":0.5826771653543307,"duration":0.1587300000000056},{"name":"E4","midi":64,"time":99.3649800000005,"velocity":0.5826771653543307,"duration":0.1587300000000056},{"name":"B4","midi":71,"time":99.5237100000005,"velocity":0.5826771653543307,"duration":0.357142500000009},{"name":"D#4","midi":63,"time":99.5237100000005,"velocity":0.5826771653543307,"duration":0.1587300000000056},{"name":"E4","midi":64,"time":99.68244000000051,"velocity":0.5826771653543307,"duration":0.1587300000000056},{"name":"F#4","midi":66,"time":99.84117000000052,"velocity":0.5826771653543307,"duration":0.15872999999999138},{"name":"D#5","midi":75,"time":99.88085250000051,"velocity":0.5826771653543307,"duration":0.11904749999999353},{"name":"G3","midi":55,"time":99.99990000000051,"velocity":0.5826771653543307,"duration":0.9523800000000335},{"name":"B3","midi":59,"time":99.99990000000051,"velocity":0.5826771653543307,"duration":0.1587300000000056},{"name":"E5","midi":76,"time":99.99990000000051,"velocity":0.5826771653543307,"duration":0.1785712500000045},{"name":"E4","midi":64,"time":100.15863000000051,"velocity":0.5826771653543307,"duration":0.1587300000000056},{"name":"D4","midi":62,"time":100.31736000000052,"velocity":0.5826771653543307,"duration":0.1587300000000056},{"name":"C#4","midi":61,"time":100.47609000000053,"velocity":0.5826771653543307,"duration":0.1587300000000056},{"name":"A4","midi":69,"time":100.47609000000053,"velocity":0.5826771653543307,"duration":0.9523800000000335},{"name":"D#4","midi":63,"time":100.63482000000053,"velocity":0.5826771653543307,"duration":0.1587300000000056},{"name":"E4","midi":64,"time":100.79355000000054,"velocity":0.5826771653543307,"duration":0.1587300000000056},{"name":"D#4","midi":63,"time":100.95228000000054,"velocity":0.5826771653543307,"duration":0.1587300000000056},{"name":"F#3","midi":54,"time":100.95228000000054,"velocity":0.5826771653543307,"duration":0.9523800000000051},{"name":"E4","midi":64,"time":101.11101000000055,"velocity":0.5826771653543307,"duration":0.1587300000000056},{"name":"F#4","midi":66,"time":101.26974000000055,"velocity":0.5826771653543307,"duration":0.1587300000000056},{"name":"G4","midi":67,"time":101.42847000000056,"velocity":0.5826771653543307,"duration":0.18915325000000394},{"name":"B3","midi":59,"time":101.42847000000056,"velocity":0.5826771653543307,"duration":0.1587300000000056},{"name":"C4","midi":60,"time":101.58720000000056,"velocity":0.5826771653543307,"duration":0.15872999999999138},{"name":"A3","midi":57,"time":101.74593000000056,"velocity":0.5826771653543307,"duration":0.15872999999999138},{"name":"D#5","midi":75,"time":101.78561250000055,"velocity":0.5826771653543307,"duration":0.11904749999999353},{"name":"E3","midi":52,"time":101.90466000000055,"velocity":0.5826771653543307,"duration":0.9523800000000335},{"name":"G3","midi":55,"time":101.90466000000055,"velocity":0.5826771653543307,"duration":0.1587300000000056},{"name":"E5","midi":76,"time":101.90466000000055,"velocity":0.5826771653543307,"duration":0.16798925000000509},{"name":"A3","midi":57,"time":102.06339000000055,"velocity":0.5826771653543307,"duration":0.1587300000000056},{"name":"B3","midi":59,"time":102.22212000000056,"velocity":0.5826771653543307,"duration":0.1587300000000056},{"name":"F#4","midi":66,"time":102.38085000000056,"velocity":0.5826771653543307,"duration":0.6349200000000224},{"name":"C4","midi":60,"time":102.38085000000056,"velocity":0.5826771653543307,"duration":0.1587300000000056},{"name":"B3","midi":59,"time":102.53958000000057,"velocity":0.5826771653543307,"duration":0.1587300000000056},{"name":"A3","midi":57,"time":102.69831000000057,"velocity":0.5826771653543307,"duration":0.1587300000000056},{"name":"B3","midi":59,"time":102.85704000000058,"velocity":0.5826771653543307,"duration":0.9523800000000335},{"name":"D#3","midi":51,"time":102.85704000000058,"velocity":0.5826771653543307,"duration":0.31613725000001125},{"name":"G4","midi":67,"time":103.01577000000059,"velocity":0.5826771653543307,"duration":0.1587300000000056},{"name":"A4","midi":69,"time":103.17450000000059,"velocity":0.5826771653543307,"duration":0.1587300000000056},{"name":"G4","midi":67,"time":103.3332300000006,"velocity":0.5826771653543307,"duration":0.1587300000000056},{"name":"E3","midi":52,"time":103.3332300000006,"velocity":0.5826771653543307,"duration":0.3373012500000101},{"name":"F#4","midi":66,"time":103.4919600000006,"velocity":0.5826771653543307,"duration":0.1587300000000056},{"name":"E4","midi":64,"time":103.65069000000061,"velocity":0.5826771653543307,"duration":0.1587300000000056},{"name":"D#4","midi":63,"time":103.80942000000061,"velocity":0.5826771653543307,"duration":0.1587300000000056},{"name":"F#3","midi":54,"time":103.80942000000061,"velocity":0.5826771653543307,"duration":0.3267192500000107},{"name":"C5","midi":72,"time":103.96815000000062,"velocity":0.5826771653543307,"duration":0.1587300000000056},{"name":"B4","midi":71,"time":104.12688000000063,"velocity":0.5826771653543307,"duration":0.1587300000000056},{"name":"D#5","midi":75,"time":104.28561000000063,"velocity":0.5826771653543307,"duration":0.3478832499999953},{"name":"B2","midi":47,"time":104.28561000000063,"velocity":0.5826771653543307,"duration":0.19973525000000336},{"name":"A4","midi":69,"time":104.28561000000063,"velocity":0.5826771653543307,"duration":0.1587300000000056},{"name":"G4","midi":67,"time":104.44434000000064,"velocity":0.5826771653543307,"duration":0.15872999999999138},{"name":"F#4","midi":66,"time":104.60307000000063,"velocity":0.5826771653543307,"duration":0.15872999999999138},{"name":"E5","midi":76,"time":104.76180000000062,"velocity":0.5826771653543307,"duration":0.9523800000000051},{"name":"G4","midi":67,"time":104.76180000000062,"velocity":0.5826771653543307,"duration":0.1587300000000056},{"name":"E3","midi":52,"time":104.76180000000062,"velocity":0.5826771653543307,"duration":0.3478832500000095},{"name":"A4","midi":69,"time":104.92053000000062,"velocity":0.5826771653543307,"duration":0.1587300000000056},{"name":"B4","midi":71,"time":105.07926000000063,"velocity":0.5826771653543307,"duration":0.15872999999999138},{"name":"A4","midi":69,"time":105.23799000000062,"velocity":0.5826771653543307,"duration":0.1587300000000056},{"name":"F#3","midi":54,"time":105.23799000000062,"velocity":0.5826771653543307,"duration":0.3478832500000095},{"name":"G4","midi":67,"time":105.39672000000063,"velocity":0.5826771653543307,"duration":0.1587300000000056},{"name":"F#4","midi":66,"time":105.55545000000063,"velocity":0.5826771653543307,"duration":0.15872999999999138},{"name":"E4","midi":64,"time":105.71418000000062,"velocity":0.5826771653543307,"duration":1.2698400000000305},{"name":"G3","midi":55,"time":105.71418000000062,"velocity":0.5826771653543307,"duration":0.3373012500000101},{"name":"F5","midi":77,"time":105.87291000000063,"velocity":0.5826771653543307,"duration":0.1587300000000056},{"name":"E5","midi":76,"time":106.03164000000064,"velocity":0.5826771653543307,"duration":0.1587300000000056},{"name":"G#3","midi":56,"time":106.19037000000064,"velocity":0.5826771653543307,"duration":0.35846525000000895},{"name":"D5","midi":74,"time":106.19037000000064,"velocity":0.5826771653543307,"duration":0.1587300000000056},{"name":"C5","midi":72,"time":106.34910000000065,"velocity":0.5826771653543307,"duration":0.1587300000000056},{"name":"B4","midi":71,"time":106.50783000000065,"velocity":0.5826771653543307,"duration":0.15872999999999138},{"name":"C5","midi":72,"time":106.66656000000064,"velocity":0.5826771653543307,"duration":0.1587300000000056},{"name":"A3","midi":57,"time":106.66656000000064,"velocity":0.5826771653543307,"duration":0.3478832500000095},{"name":"D5","midi":74,"time":106.82529000000065,"velocity":0.5826771653543307,"duration":0.1587300000000056},{"name":"E5","midi":76,"time":106.98402000000065,"velocity":0.5826771653543307,"duration":0.15872999999999138},{"name":"F#4","midi":66,"time":106.98402000000065,"velocity":0.5826771653543307,"duration":0.47619000000000256},{"name":"D5","midi":74,"time":107.14275000000065,"velocity":0.5826771653543307,"duration":0.1587300000000056},{"name":"B3","midi":59,"time":107.14275000000065,"velocity":0.5826771653543307,"duration":0.3373012500000101},{"name":"C5","midi":72,"time":107.30148000000065,"velocity":0.5826771653543307,"duration":0.1587300000000056},{"name":"G#4","midi":68,"time":107.46021000000066,"velocity":0.5826771653543307,"duration":0.1587300000000056},{"name":"B4","midi":71,"time":107.46021000000066,"velocity":0.5826771653543307,"duration":0.1587300000000056},{"name":"A4","midi":69,"time":107.61894000000066,"velocity":0.5826771653543307,"duration":0.1587300000000056},{"name":"C4","midi":60,"time":107.61894000000066,"velocity":0.5826771653543307,"duration":0.3478832500000095},{"name":"B5","midi":83,"time":107.77767000000067,"velocity":0.5826771653543307,"duration":0.1587300000000056},{"name":"A5","midi":81,"time":107.93640000000067,"velocity":0.5826771653543307,"duration":0.15872999999999138},{"name":"E4","midi":64,"time":108.09513000000067,"velocity":0.5826771653543307,"duration":0.7936500000000137},{"name":"C#4","midi":61,"time":108.09513000000067,"velocity":0.5826771653543307,"duration":0.3478832500000095},{"name":"G5","midi":79,"time":108.09513000000067,"velocity":0.5826771653543307,"duration":0.1587300000000056},{"name":"F#5","midi":78,"time":108.25386000000067,"velocity":0.5826771653543307,"duration":0.1587300000000056},{"name":"E5","midi":76,"time":108.41259000000068,"velocity":0.5826771653543307,"duration":0.15872999999999138},{"name":"F#5","midi":78,"time":108.57132000000067,"velocity":0.5826771653543307,"duration":0.1587300000000056},{"name":"D3","midi":50,"time":108.57132000000067,"velocity":0.5826771653543307,"duration":0.3478832500000095},{"name":"G5","midi":79,"time":108.73005000000067,"velocity":0.5826771653543307,"duration":0.1587300000000056},{"name":"A5","midi":81,"time":108.88878000000068,"velocity":0.5826771653543307,"duration":0.15872999999999138},{"name":"D4","midi":62,"time":108.88878000000068,"velocity":0.5826771653543307,"duration":0.47619000000000256},{"name":"G5","midi":79,"time":109.04751000000067,"velocity":0.5826771653543307,"duration":0.1587300000000056},{"name":"E3","midi":52,"time":109.04751000000067,"velocity":0.5826771653543307,"duration":0.3478832500000095},{"name":"F#5","midi":78,"time":109.20624000000068,"velocity":0.5826771653543307,"duration":0.1587300000000056},{"name":"E5","midi":76,"time":109.36497000000068,"velocity":0.5826771653543307,"duration":0.15872999999999138},{"name":"C#4","midi":61,"time":109.36497000000068,"velocity":0.5826771653543307,"duration":0.15872999999999138},{"name":"D4","midi":62,"time":109.52370000000067,"velocity":0.5826771653543307,"duration":1.2698400000000447},{"name":"D5","midi":74,"time":109.52370000000067,"velocity":0.5826771653543307,"duration":0.1587300000000056},{"name":"F#3","midi":54,"time":109.52370000000067,"velocity":0.5826771653543307,"duration":0.3267192500000107},{"name":"E5","midi":76,"time":109.68243000000068,"velocity":0.5826771653543307,"duration":0.1587300000000056},{"name":"D5","midi":74,"time":109.84116000000068,"velocity":0.5826771653543307,"duration":0.1587300000000056},{"name":"D3","midi":50,"time":109.99989000000069,"velocity":0.5826771653543307,"duration":0.3267192500000107},{"name":"C5","midi":72,"time":109.99989000000069,"velocity":0.5826771653543307,"duration":0.1587300000000056},{"name":"B4","midi":71,"time":110.1586200000007,"velocity":0.5826771653543307,"duration":0.1587300000000056},{"name":"A4","midi":69,"time":110.3173500000007,"velocity":0.5826771653543307,"duration":0.1587300000000056},{"name":"B4","midi":71,"time":110.4760800000007,"velocity":0.5826771653543307,"duration":0.1587300000000056},{"name":"G3","midi":55,"time":110.4760800000007,"velocity":0.5826771653543307,"duration":0.3267192500000107},{"name":"C5","midi":72,"time":110.63481000000071,"velocity":0.5826771653543307,"duration":0.1587300000000056},{"name":"D5","midi":74,"time":110.79354000000072,"velocity":0.5826771653543307,"duration":0.1587300000000056},{"name":"E4","midi":64,"time":110.79354000000072,"velocity":0.5826771653543307,"duration":0.47619000000001677},{"name":"C5","midi":72,"time":110.95227000000072,"velocity":0.5826771653543307,"duration":0.1587300000000056},{"name":"A3","midi":57,"time":110.95227000000072,"velocity":0.5826771653543307,"duration":0.3373012500000101},{"name":"B4","midi":71,"time":111.11100000000073,"velocity":0.5826771653543307,"duration":0.1587300000000056},{"name":"A4","midi":69,"time":111.26973000000073,"velocity":0.5826771653543307,"duration":0.1587300000000056},{"name":"F#4","midi":66,"time":111.26973000000073,"velocity":0.5826771653543307,"duration":0.1587300000000056},{"name":"G4","midi":67,"time":111.42846000000074,"velocity":0.5826771653543307,"duration":0.1587300000000056},{"name":"B3","midi":59,"time":111.42846000000074,"velocity":0.5826771653543307,"duration":0.31613725000001125},{"name":"A4","midi":69,"time":111.58719000000075,"velocity":0.5826771653543307,"duration":0.1587300000000056},{"name":"G4","midi":67,"time":111.74592000000075,"velocity":0.5826771653543307,"duration":0.1587300000000056},{"name":"G3","midi":55,"time":111.90465000000076,"velocity":0.5826771653543307,"duration":0.3267192500000107},{"name":"F4","midi":65,"time":111.90465000000076,"velocity":0.5826771653543307,"duration":0.1587300000000056},{"name":"E4","midi":64,"time":112.06338000000076,"velocity":0.5826771653543307,"duration":0.1587300000000056},{"name":"D4","midi":62,"time":112.22211000000077,"velocity":0.5826771653543307,"duration":0.1587300000000056},{"name":"E4","midi":64,"time":112.38084000000077,"velocity":0.5826771653543307,"duration":0.1587300000000056},{"name":"C3","midi":48,"time":112.38084000000077,"velocity":0.5826771653543307,"duration":0.1587300000000056},{"name":"F4","midi":65,"time":112.53957000000078,"velocity":0.5826771653543307,"duration":0.1587300000000056},{"name":"D3","midi":50,"time":112.53957000000078,"velocity":0.5826771653543307,"duration":0.1587300000000056},{"name":"G4","midi":67,"time":112.69830000000078,"velocity":0.5826771653543307,"duration":0.1587300000000056},{"name":"E3","midi":52,"time":112.69830000000078,"velocity":0.5826771653543307,"duration":0.1587300000000056},{"name":"F4","midi":65,"time":112.85703000000079,"velocity":0.5826771653543307,"duration":0.1587300000000056},{"name":"D3","midi":50,"time":112.85703000000079,"velocity":0.5826771653543307,"duration":0.1587300000000056},{"name":"E4","midi":64,"time":113.0157600000008,"velocity":0.5826771653543307,"duration":0.1587300000000056},{"name":"E3","midi":52,"time":113.0157600000008,"velocity":0.5826771653543307,"duration":0.1587300000000056},{"name":"D4","midi":62,"time":113.1744900000008,"velocity":0.5826771653543307,"duration":0.1587300000000056},{"name":"F3","midi":53,"time":113.1744900000008,"velocity":0.5826771653543307,"duration":0.1587300000000056},{"name":"C4","midi":60,"time":113.33322000000081,"velocity":0.5826771653543307,"duration":0.1587300000000056},{"name":"E3","midi":52,"time":113.33322000000081,"velocity":0.5826771653543307,"duration":0.1587300000000056},{"name":"D4","midi":62,"time":113.49195000000081,"velocity":0.5826771653543307,"duration":0.1587300000000056},{"name":"G#3","midi":56,"time":113.49195000000081,"velocity":0.5826771653543307,"duration":0.1587300000000056},{"name":"C4","midi":60,"time":113.65068000000082,"velocity":0.5826771653543307,"duration":0.1587300000000056},{"name":"A3","midi":57,"time":113.65068000000082,"velocity":0.5826771653543307,"duration":0.1587300000000056},{"name":"D3","midi":50,"time":113.80941000000082,"velocity":0.5826771653543307,"duration":0.47619000000001677},{"name":"B3","midi":59,"time":113.80941000000082,"velocity":0.5826771653543307,"duration":0.1587300000000056},{"name":"A4","midi":69,"time":113.96814000000083,"velocity":0.5826771653543307,"duration":0.1587300000000056},{"name":"A3","midi":57,"time":113.96814000000083,"velocity":0.5826771653543307,"duration":0.1587300000000056},{"name":"B4","midi":71,"time":114.12687000000084,"velocity":0.5826771653543307,"duration":0.1587300000000056},{"name":"G#3","midi":56,"time":114.12687000000084,"velocity":0.5826771653543307,"duration":0.1587300000000056},{"name":"C5","midi":72,"time":114.28560000000084,"velocity":0.5826771653543307,"duration":0.18915325000000394},{"name":"A3","midi":57,"time":114.28560000000084,"velocity":0.5826771653543307,"duration":1.1111099999999823},{"name":"C3","midi":48,"time":114.28560000000084,"velocity":0.5826771653543307,"duration":0.1587300000000056},{"name":"D3","midi":50,"time":114.44433000000085,"velocity":0.5826771653543307,"duration":0.15872999999999138},{"name":"E3","midi":52,"time":114.60306000000084,"velocity":0.5826771653543307,"duration":0.1587300000000056},{"name":"D5","midi":74,"time":114.76179000000084,"velocity":0.5826771653543307,"duration":0.11904749999999353},{"name":"F3","midi":53,"time":114.76179000000084,"velocity":0.5826771653543307,"duration":0.47618999999997413},{"name":"C5","midi":72,"time":114.88083750000084,"velocity":0.5826771653543307,"duration":0.11904749999999353},{"name":"B4","midi":71,"time":114.99988500000083,"velocity":0.5826771653543307,"duration":0.11904749999999353},{"name":"C5","midi":72,"time":115.11893250000082,"velocity":0.5826771653543307,"duration":0.11904749999999353},{"name":"B2","midi":47,"time":115.23798000000082,"velocity":0.5826771653543307,"duration":0.9523799999999909},{"name":"D5","midi":74,"time":115.23798000000082,"velocity":0.5826771653543307,"duration":0.1785712500000045},{"name":"D3","midi":50,"time":115.39671000000082,"velocity":0.5826771653543307,"duration":0.1587300000000056},{"name":"F3","midi":53,"time":115.55544000000083,"velocity":0.5826771653543307,"duration":0.1587300000000056},{"name":"G#3","midi":56,"time":115.71417000000083,"velocity":0.5826771653543307,"duration":0.47618999999997413},{"name":"E5","midi":76,"time":115.71417000000083,"velocity":0.5826771653543307,"duration":0.11904749999999353},{"name":"D5","midi":74,"time":115.83321750000083,"velocity":0.5826771653543307,"duration":0.11904749999999353},{"name":"C5","midi":72,"time":115.95226500000082,"velocity":0.5826771653543307,"duration":0.11904749999999353},{"name":"D5","midi":74,"time":116.07131250000081,"velocity":0.5826771653543307,"duration":0.11904749999999353},{"name":"E5","midi":76,"time":116.19036000000081,"velocity":0.5826771653543307,"duration":0.1785712500000045},{"name":"A2","midi":45,"time":116.19036000000081,"velocity":0.5826771653543307,"duration":0.47619000000001677},{"name":"C3","midi":48,"time":116.34909000000081,"velocity":0.5826771653543307,"duration":0.1587300000000056},{"name":"D3","midi":50,"time":116.50782000000082,"velocity":0.5826771653543307,"duration":0.1587300000000056},{"name":"C5","midi":72,"time":116.66655000000083,"velocity":0.5826771653543307,"duration":0.1785712500000045},{"name":"E3","midi":52,"time":116.66655000000083,"velocity":0.5826771653543307,"duration":0.1587300000000056},{"name":"F#3","midi":54,"time":116.82528000000083,"velocity":0.5826771653543307,"duration":0.1587300000000056},{"name":"G#3","midi":56,"time":116.98401000000084,"velocity":0.5826771653543307,"duration":0.1587300000000056},{"name":"A4","midi":69,"time":117.14274000000084,"velocity":0.5826771653543307,"duration":0.19973525000000336},{"name":"A3","midi":57,"time":117.14274000000084,"velocity":0.5826771653543307,"duration":0.1587300000000056},{"name":"B3","midi":59,"time":117.30147000000085,"velocity":0.5826771653543307,"duration":0.15872999999999138},{"name":"C4","midi":60,"time":117.46020000000084,"velocity":0.5826771653543307,"duration":0.1587300000000056},{"name":"F5","midi":77,"time":117.61893000000084,"velocity":0.5826771653543307,"duration":0.9523800000000335},{"name":"D4","midi":62,"time":117.61893000000084,"velocity":0.5826771653543307,"duration":0.1587300000000056},{"name":"E4","midi":64,"time":117.77766000000085,"velocity":0.5826771653543307,"duration":0.1587300000000056},{"name":"F4","midi":65,"time":117.93639000000086,"velocity":0.5826771653543307,"duration":0.1587300000000056},{"name":"D5","midi":74,"time":118.09512000000086,"velocity":0.5826771653543307,"duration":0.9523800000000193},{"name":"G#3","midi":56,"time":118.09512000000086,"velocity":0.5826771653543307,"duration":0.1587300000000056},{"name":"A3","midi":57,"time":118.25385000000087,"velocity":0.5826771653543307,"duration":0.1587300000000056},{"name":"B3","midi":59,"time":118.41258000000087,"velocity":0.5826771653543307,"duration":0.1587300000000056},{"name":"E5","midi":76,"time":118.57131000000088,"velocity":0.5826771653543307,"duration":0.16798925000000509},{"name":"C4","midi":60,"time":118.57131000000088,"velocity":0.5826771653543307,"duration":0.1587300000000056},{"name":"D4","midi":62,"time":118.73004000000088,"velocity":0.5826771653543307,"duration":0.1587300000000056},{"name":"E4","midi":64,"time":118.88877000000089,"velocity":0.5826771653543307,"duration":0.15872999999999138},{"name":"G#5","midi":80,"time":118.92845250000089,"velocity":0.5826771653543307,"duration":0.11904749999999353},{"name":"C5","midi":72,"time":119.04750000000088,"velocity":0.5826771653543307,"duration":0.9523800000000335},{"name":"A5","midi":81,"time":119.04750000000088,"velocity":0.5826771653543307,"duration":0.15740725000000566},{"name":"F#3","midi":54,"time":119.04750000000088,"velocity":0.5826771653543307,"duration":0.1587300000000056},{"name":"G#3","midi":56,"time":119.20623000000089,"velocity":0.5826771653543307,"duration":0.1587300000000056},{"name":"A3","midi":57,"time":119.36496000000089,"velocity":0.5826771653543307,"duration":0.1587300000000056},{"name":"D5","midi":74,"time":119.5236900000009,"velocity":0.5826771653543307,"duration":0.9523800000000335},{"name":"B3","midi":59,"time":119.5236900000009,"velocity":0.5826771653543307,"duration":0.1587300000000056},{"name":"C4","midi":60,"time":119.6824200000009,"velocity":0.5826771653543307,"duration":0.1587300000000056},{"name":"A3","midi":57,"time":119.84115000000091,"velocity":0.5826771653543307,"duration":0.1587300000000056},{"name":"B4","midi":71,"time":119.99988000000091,"velocity":0.5826771653543307,"duration":0.9523800000000193},{"name":"G#3","midi":56,"time":119.99988000000091,"velocity":0.5826771653543307,"duration":0.1587300000000056},{"name":"F#3","midi":54,"time":120.15861000000092,"velocity":0.5826771653543307,"duration":0.1587300000000056},{"name":"E3","midi":52,"time":120.31734000000093,"velocity":0.5826771653543307,"duration":0.1587300000000056},{"name":"C5","midi":72,"time":120.47607000000093,"velocity":0.5826771653543307,"duration":0.357142500000009},{"name":"A3","midi":57,"time":120.47607000000093,"velocity":0.5826771653543307,"duration":0.1587300000000056},{"name":"B3","midi":59,"time":120.63480000000094,"velocity":0.5826771653543307,"duration":0.1587300000000056},{"name":"C4","midi":60,"time":120.79353000000094,"velocity":0.5826771653543307,"duration":0.15872999999999138},{"name":"G#5","midi":80,"time":120.83321250000094,"velocity":0.5826771653543307,"duration":0.11904749999999353},{"name":"A4","midi":69,"time":120.95226000000093,"velocity":0.5826771653543307,"duration":0.9523800000000193},{"name":"A5","midi":81,"time":120.95226000000093,"velocity":0.5826771653543307,"duration":0.18915325000000394},{"name":"F3","midi":53,"time":120.95226000000093,"velocity":0.5826771653543307,"duration":0.1587300000000056},{"name":"A3","midi":57,"time":121.11099000000094,"velocity":0.5826771653543307,"duration":0.15872999999999138},{"name":"G3","midi":55,"time":121.26972000000093,"velocity":0.5826771653543307,"duration":0.1587300000000056},{"name":"B4","midi":71,"time":121.42845000000094,"velocity":0.5826771653543307,"duration":0.6349200000000224},{"name":"F3","midi":53,"time":121.42845000000094,"velocity":0.5826771653543307,"duration":0.1587300000000056},{"name":"G3","midi":55,"time":121.58718000000094,"velocity":0.5826771653543307,"duration":0.1587300000000056},{"name":"E3","midi":52,"time":121.74591000000095,"velocity":0.5826771653543307,"duration":0.1587300000000056},{"name":"G#4","midi":68,"time":121.90464000000095,"velocity":0.5826771653543307,"duration":0.3174600000000112},{"name":"D3","midi":50,"time":121.90464000000095,"velocity":0.5826771653543307,"duration":0.3174600000000112},{"name":"C5","midi":72,"time":122.06337000000096,"velocity":0.5826771653543307,"duration":0.1587300000000056},{"name":"F3","midi":53,"time":122.22210000000096,"velocity":0.5826771653543307,"duration":0.1587300000000056},{"name":"D5","midi":74,"time":122.22210000000096,"velocity":0.5826771653543307,"duration":0.1587300000000056},{"name":"G#3","midi":56,"time":122.22210000000096,"velocity":0.5826771653543307,"duration":0.1587300000000056},{"name":"C5","midi":72,"time":122.38083000000097,"velocity":0.5826771653543307,"duration":0.1587300000000056},{"name":"A3","midi":57,"time":122.38083000000097,"velocity":0.5826771653543307,"duration":0.3174600000000112},{"name":"E3","midi":52,"time":122.38083000000097,"velocity":0.5826771653543307,"duration":0.3174600000000112},{"name":"B4","midi":71,"time":122.53956000000098,"velocity":0.5826771653543307,"duration":0.1587300000000056},{"name":"A4","midi":69,"time":122.69829000000098,"velocity":0.5826771653543307,"duration":0.1587300000000056},{"name":"C4","midi":60,"time":122.69829000000098,"velocity":0.5826771653543307,"duration":0.1587300000000056},{"name":"D#3","midi":51,"time":122.69829000000098,"velocity":0.5826771653543307,"duration":0.1587300000000056},{"name":"E3","midi":52,"time":122.85702000000099,"velocity":0.5826771653543307,"duration":0.9523800000000335},{"name":"G#4","midi":68,"time":122.85702000000099,"velocity":0.5826771653543307,"duration":0.1587300000000056},{"name":"B3","midi":59,"time":122.85702000000099,"velocity":0.5826771653543307,"duration":0.1587300000000056},{"name":"F5","midi":77,"time":123.01575000000099,"velocity":0.5826771653543307,"duration":0.1587300000000056},{"name":"D4","midi":62,"time":123.01575000000099,"velocity":0.5826771653543307,"duration":0.1587300000000056},{"name":"E5","midi":76,"time":123.174480000001,"velocity":0.5826771653543307,"duration":0.1587300000000056},{"name":"C4","midi":60,"time":123.174480000001,"velocity":0.5826771653543307,"duration":0.1587300000000056},{"name":"D5","midi":74,"time":123.333210000001,"velocity":0.5826771653543307,"duration":0.1587300000000056},{"name":"B3","midi":59,"time":123.333210000001,"velocity":0.5826771653543307,"duration":0.1587300000000056},{"name":"C5","midi":72,"time":123.49194000000101,"velocity":0.5826771653543307,"duration":0.1587300000000056},{"name":"A3","midi":57,"time":123.49194000000101,"velocity":0.5826771653543307,"duration":0.1587300000000056},{"name":"B4","midi":71,"time":123.65067000000101,"velocity":0.5826771653543307,"duration":0.1587300000000056},{"name":"G#3","midi":56,"time":123.65067000000101,"velocity":0.5826771653543307,"duration":0.1587300000000056},{"name":"C5","midi":72,"time":123.80940000000102,"velocity":0.5826771653543307,"duration":0.1587300000000056},{"name":"A3","midi":57,"time":123.80940000000102,"velocity":0.5826771653543307,"duration":0.1587300000000056},{"name":"A2","midi":45,"time":123.80940000000102,"velocity":0.5826771653543307,"duration":0.3174600000000112},{"name":"D5","midi":74,"time":123.96813000000103,"velocity":0.5826771653543307,"duration":0.1587300000000056},{"name":"E5","midi":76,"time":124.12686000000103,"velocity":0.5826771653543307,"duration":0.1587300000000056},{"name":"E3","midi":52,"time":124.12686000000103,"velocity":0.5826771653543307,"duration":0.1587300000000056},{"name":"D5","midi":74,"time":124.28559000000104,"velocity":0.5826771653543307,"duration":0.1587300000000056},{"name":"A3","midi":57,"time":124.28559000000104,"velocity":0.5826771653543307,"duration":0.3174600000000112},{"name":"C5","midi":72,"time":124.44432000000104,"velocity":0.5826771653543307,"duration":0.1587300000000056},{"name":"B4","midi":71,"time":124.60305000000105,"velocity":0.5826771653543307,"duration":0.1587300000000056},{"name":"B3","midi":59,"time":124.60305000000105,"velocity":0.5826771653543307,"duration":0.1587300000000056},{"name":"A4","midi":69,"time":124.76178000000105,"velocity":0.5826771653543307,"duration":2.0634900000000727},{"name":"C4","midi":60,"time":124.76178000000105,"velocity":0.5826771653543307,"duration":0.3174600000000112},{"name":"G4","midi":67,"time":124.92051000000106,"velocity":0.5826771653543307,"duration":0.1587300000000056},{"name":"F#4","midi":66,"time":125.07924000000106,"velocity":0.5826771653543307,"duration":0.1587300000000056},{"name":"A3","midi":57,"time":125.07924000000106,"velocity":0.5826771653543307,"duration":0.1587300000000056},{"name":"E4","midi":64,"time":125.23797000000107,"velocity":0.5826771653543307,"duration":0.1587300000000056},{"name":"F#3","midi":54,"time":125.23797000000107,"velocity":0.5826771653543307,"duration":0.3174600000000112},{"name":"D#4","midi":63,"time":125.39670000000108,"velocity":0.5826771653543307,"duration":0.1587300000000056},{"name":"C#4","midi":61,"time":125.55543000000108,"velocity":0.5826771653543307,"duration":0.1587300000000056},{"name":"A3","midi":57,"time":125.55543000000108,"velocity":0.5826771653543307,"duration":0.1587300000000056},{"name":"D#4","midi":63,"time":125.71416000000109,"velocity":0.5826771653543307,"duration":0.1587300000000056},{"name":"B2","midi":47,"time":125.71416000000109,"velocity":0.5826771653543307,"duration":0.1587300000000056},{"name":"E4","midi":64,"time":125.87289000000109,"velocity":0.5826771653543307,"duration":0.1587300000000056},{"name":"C#3","midi":49,"time":125.87289000000109,"velocity":0.5826771653543307,"duration":0.1587300000000056},{"name":"F#4","midi":66,"time":126.0316200000011,"velocity":0.5826771653543307,"duration":0.1587300000000056},{"name":"D#3","midi":51,"time":126.0316200000011,"velocity":0.5826771653543307,"duration":0.1587300000000056},{"name":"E4","midi":64,"time":126.1903500000011,"velocity":0.5826771653543307,"duration":0.1587300000000056},{"name":"C#3","midi":49,"time":126.1903500000011,"velocity":0.5826771653543307,"duration":0.1587300000000056},{"name":"D#4","midi":63,"time":126.34908000000111,"velocity":0.5826771653543307,"duration":0.1587300000000056},{"name":"F#3","midi":54,"time":126.34908000000111,"velocity":0.5826771653543307,"duration":0.1587300000000056},{"name":"C#4","midi":61,"time":126.50781000000111,"velocity":0.5826771653543307,"duration":0.1587300000000056},{"name":"E3","midi":52,"time":126.50781000000111,"velocity":0.5826771653543307,"duration":0.1587300000000056},{"name":"B3","midi":59,"time":126.66654000000112,"velocity":0.5826771653543307,"duration":1.2698400000000447},{"name":"D#3","midi":51,"time":126.66654000000112,"velocity":0.5826771653543307,"duration":0.1587300000000056},{"name":"D#4","midi":63,"time":126.82527000000113,"velocity":0.5826771653543307,"duration":0.1587300000000056},{"name":"A3","midi":57,"time":126.82527000000113,"velocity":0.5826771653543307,"duration":0.1587300000000056},{"name":"E4","midi":64,"time":126.98400000000113,"velocity":0.5826771653543307,"duration":0.1587300000000056},{"name":"G3","midi":55,"time":126.98400000000113,"velocity":0.5826771653543307,"duration":0.1587300000000056},{"name":"F#4","midi":66,"time":127.14273000000114,"velocity":0.5826771653543307,"duration":0.1587300000000056},{"name":"F#3","midi":54,"time":127.14273000000114,"velocity":0.5826771653543307,"duration":0.1587300000000056},{"name":"G4","midi":67,"time":127.30146000000114,"velocity":0.5826771653543307,"duration":0.1587300000000056},{"name":"E3","midi":52,"time":127.30146000000114,"velocity":0.5826771653543307,"duration":0.1587300000000056},{"name":"A4","midi":69,"time":127.46019000000115,"velocity":0.5826771653543307,"duration":0.1587300000000056},{"name":"D#3","midi":51,"time":127.46019000000115,"velocity":0.5826771653543307,"duration":0.1587300000000056},{"name":"G4","midi":67,"time":127.61892000000115,"velocity":0.5826771653543307,"duration":1.1111099999999823},{"name":"E3","midi":52,"time":127.61892000000115,"velocity":0.5826771653543307,"duration":0.1587300000000056},{"name":"F#3","midi":54,"time":127.77765000000116,"velocity":0.5826771653543307,"duration":0.1587300000000056},{"name":"B3","midi":59,"time":127.93638000000117,"velocity":0.5826771653543307,"duration":0.1587300000000056},{"name":"G3","midi":55,"time":127.93638000000117,"velocity":0.5826771653543307,"duration":0.1587300000000056},{"name":"C4","midi":60,"time":128.09511000000117,"velocity":0.5826771653543307,"duration":0.31745999999998276},{"name":"F#3","midi":54,"time":128.09511000000117,"velocity":0.5826771653543307,"duration":0.15872999999999138},{"name":"E3","midi":52,"time":128.25384000000116,"velocity":0.5826771653543307,"duration":0.15872999999999138},{"name":"B3","midi":59,"time":128.41257000000115,"velocity":0.5826771653543307,"duration":0.15872999999999138},{"name":"D3","midi":50,"time":128.41257000000115,"velocity":0.5826771653543307,"duration":0.15872999999999138},{"name":"A#3","midi":58,"time":128.57130000000114,"velocity":0.5826771653543307,"duration":0.47618999999997413},{"name":"C#3","midi":49,"time":128.57130000000114,"velocity":0.5826771653543307,"duration":0.47618999999997413},{"name":"D#4","midi":63,"time":128.73003000000114,"velocity":0.5826771653543307,"duration":0.15872999999999138},{"name":"E4","midi":64,"time":128.88876000000113,"velocity":0.5826771653543307,"duration":0.15872999999999138},{"name":"A3","midi":57,"time":129.04749000000112,"velocity":0.5826771653543307,"duration":0.6349199999999655},{"name":"C3","midi":48,"time":129.04749000000112,"velocity":0.5826771653543307,"duration":0.47618999999997413},{"name":"G4","midi":67,"time":129.04749000000112,"velocity":0.5826771653543307,"duration":0.15872999999999138},{"name":"F#4","midi":66,"time":129.2062200000011,"velocity":0.5826771653543307,"duration":0.15872999999999138},{"name":"A4","midi":69,"time":129.3649500000011,"velocity":0.5826771653543307,"duration":0.15872999999999138},{"name":"B2","midi":47,"time":129.5236800000011,"velocity":0.5826771653543307,"duration":2.063489999999888},{"name":"D#4","midi":63,"time":129.5236800000011,"velocity":0.5826771653543307,"duration":0.31745999999998276},{"name":"C4","midi":60,"time":129.68241000000108,"velocity":0.5826771653543307,"duration":0.15872999999999138},{"name":"E4","midi":64,"time":129.84114000000108,"velocity":0.5826771653543307,"duration":0.15872999999999138},{"name":"B3","midi":59,"time":129.84114000000108,"velocity":0.5826771653543307,"duration":0.15872999999999138},{"name":"F#4","midi":66,"time":129.99987000000107,"velocity":0.5826771653543307,"duration":0.6349199999999655},{"name":"A3","midi":57,"time":129.99987000000107,"velocity":0.5826771653543307,"duration":0.15872999999999138},{"name":"G3","midi":55,"time":130.15860000000106,"velocity":0.5826771653543307,"duration":0.15872999999999138},{"name":"F#3","midi":54,"time":130.31733000000105,"velocity":0.5826771653543307,"duration":0.15872999999999138},{"name":"G3","midi":55,"time":130.47606000000104,"velocity":0.5826771653543307,"duration":1.4285699999999224},{"name":"B3","midi":59,"time":130.63479000000103,"velocity":0.5826771653543307,"duration":0.15872999999999138},{"name":"D#4","midi":63,"time":130.79352000000102,"velocity":0.5826771653543307,"duration":0.15872999999999138},{"name":"F#4","midi":66,"time":130.95225000000102,"velocity":0.5826771653543307,"duration":0.15872999999999138},{"name":"B4","midi":71,"time":131.110980000001,"velocity":0.5826771653543307,"duration":0.15872999999999138},{"name":"D#4","midi":63,"time":131.269710000001,"velocity":0.5826771653543307,"duration":0.15872999999999138},{"name":"E4","midi":64,"time":131.428440000001,"velocity":0.5826771653543307,"duration":1.1111099999999396},{"name":"C#3","midi":49,"time":131.58717000000098,"velocity":0.5826771653543307,"duration":0.15872999999999138},{"name":"D#3","midi":51,"time":131.74590000000097,"velocity":0.5826771653543307,"duration":0.15872999999999138},{"name":"E3","midi":52,"time":131.90463000000096,"velocity":0.5826771653543307,"duration":0.15872999999999138},{"name":"F#3","midi":54,"time":132.06336000000096,"velocity":0.5826771653543307,"duration":0.15872999999999138},{"name":"G3","midi":55,"time":132.22209000000095,"velocity":0.5826771653543307,"duration":0.7936499999999569},{"name":"A#2","midi":46,"time":132.38082000000094,"velocity":0.5826771653543307,"duration":0.9523799999999483},{"name":"G4","midi":67,"time":132.53955000000093,"velocity":0.5826771653543307,"duration":0.15872999999999138},{"name":"A#4","midi":70,"time":132.69828000000092,"velocity":0.5826771653543307,"duration":0.15872999999999138},{"name":"C#5","midi":73,"time":132.8570100000009,"velocity":0.5826771653543307,"duration":0.15872999999999138},{"name":"D#5","midi":75,"time":133.0157400000009,"velocity":0.5826771653543307,"duration":0.15872999999999138},{"name":"F#3","midi":54,"time":133.0157400000009,"velocity":0.5826771653543307,"duration":0.15872999999999138},{"name":"G3","midi":55,"time":133.1744700000009,"velocity":0.5826771653543307,"duration":0.15872999999999138},{"name":"E5","midi":76,"time":133.1744700000009,"velocity":0.5826771653543307,"duration":0.15872999999999138},{"name":"E4","midi":64,"time":133.3332000000009,"velocity":0.5826771653543307,"duration":0.47619000000000256},{"name":"G3","midi":55,"time":133.3332000000009,"velocity":0.5826771653543307,"duration":0.47619000000000256},{"name":"B2","midi":47,"time":133.3332000000009,"velocity":0.5826771653543307,"duration":0.9523800000002041},{"name":"D#4","midi":63,"time":133.8093900000009,"velocity":0.5826771653543307,"duration":0.11507925000000796},{"name":"F#3","midi":54,"time":133.8093900000009,"velocity":0.5826771653543307,"duration":0.11507925000000796},{"name":"E4","midi":64,"time":133.87288200000089,"velocity":0.5826771653543307,"duration":0.09391525000003753},{"name":"G3","midi":55,"time":133.87288200000089,"velocity":0.5826771653543307,"duration":0.09391525000003753},{"name":"F#3","midi":54,"time":133.9257920000009,"velocity":0.5826771653543307,"duration":0.0833332500000381},{"name":"D#4","midi":63,"time":133.9257920000009,"velocity":0.5826771653543307,"duration":0.0833332500000381},{"name":"G3","midi":55,"time":133.96812000000094,"velocity":0.5826771653543307,"duration":0.0833332500000381},{"name":"E4","midi":64,"time":133.96812000000094,"velocity":0.5826771653543307,"duration":0.0833332500000381},{"name":"D#4","midi":63,"time":134.01044800000096,"velocity":0.5826771653543307,"duration":0.0833332500000381},{"name":"F#3","midi":54,"time":134.01044800000096,"velocity":0.5826771653543307,"duration":0.0833332500000381},{"name":"E4","midi":64,"time":134.052776000001,"velocity":0.5826771653543307,"duration":0.0833332500000381},{"name":"G3","midi":55,"time":134.052776000001,"velocity":0.5826771653543307,"duration":0.0833332500000381},{"name":"D#4","midi":63,"time":134.09510400000102,"velocity":0.5826771653543307,"duration":0.07275125000003868},{"name":"F#3","midi":54,"time":134.09510400000102,"velocity":0.5826771653543307,"duration":0.07275125000003868},{"name":"E3","midi":52,"time":134.14801400000104,"velocity":0.5826771653543307,"duration":0.0833332500000381},{"name":"C#4","midi":61,"time":134.14801400000104,"velocity":0.5826771653543307,"duration":0.0833332500000381},{"name":"F#3","midi":54,"time":134.19034200000107,"velocity":0.5826771653543307,"duration":0.10449725000003696},{"name":"D#4","midi":63,"time":134.19034200000107,"velocity":0.5826771653543307,"duration":0.10449725000003696},{"name":"C3","midi":48,"time":134.4443100000011,"velocity":0.5826771653543307,"duration":0.15872999999999138},{"name":"B2","midi":47,"time":134.6030400000011,"velocity":0.5826771653543307,"duration":0.15872999999999138},{"name":"A2","midi":45,"time":134.7617700000011,"velocity":0.5826771653543307,"duration":0.15872999999999138},{"name":"G2","midi":43,"time":134.92050000000108,"velocity":0.5826771653543307,"duration":0.15872999999999138},{"name":"F#2","midi":42,"time":135.07923000000108,"velocity":0.5826771653543307,"duration":0.15872999999999138},{"name":"G2","midi":43,"time":135.23796000000107,"velocity":0.5826771653543307,"duration":0.15872999999999138},{"name":"B3","midi":59,"time":135.39669000000106,"velocity":0.5826771653543307,"duration":0.15872999999999138},{"name":"A2","midi":45,"time":135.39669000000106,"velocity":0.5826771653543307,"duration":0.15872999999999138},{"name":"C#4","midi":61,"time":135.55542000000105,"velocity":0.5826771653543307,"duration":0.15872999999999138},{"name":"G2","midi":43,"time":135.55542000000105,"velocity":0.5826771653543307,"duration":0.15872999999999138},{"name":"D#4","midi":63,"time":135.71415000000104,"velocity":0.5826771653543307,"duration":0.15872999999999138},{"name":"F#2","midi":42,"time":135.71415000000104,"velocity":0.5826771653543307,"duration":0.15872999999999138},{"name":"E4","midi":64,"time":135.87288000000103,"velocity":0.5826771653543307,"duration":0.15872999999999138},{"name":"E2","midi":40,"time":135.87288000000103,"velocity":0.5826771653543307,"duration":0.15872999999999138},{"name":"F#4","midi":66,"time":136.03161000000102,"velocity":0.5826771653543307,"duration":0.15872999999999138},{"name":"D#2","midi":39,"time":136.03161000000102,"velocity":0.5826771653543307,"duration":0.15872999999999138},{"name":"G4","midi":67,"time":136.19034000000102,"velocity":0.5826771653543307,"duration":0.15872999999999138},{"name":"E2","midi":40,"time":136.19034000000102,"velocity":0.5826771653543307,"duration":0.47618999999997413},{"name":"C5","midi":72,"time":136.349070000001,"velocity":0.5826771653543307,"duration":0.15872999999999138},{"name":"B4","midi":71,"time":136.507800000001,"velocity":0.5826771653543307,"duration":0.15872999999999138},{"name":"A4","midi":69,"time":136.666530000001,"velocity":0.5826771653543307,"duration":0.15872999999999138},{"name":"G4","midi":67,"time":136.82526000000098,"velocity":0.5826771653543307,"duration":0.15872999999999138},{"name":"E2","midi":40,"time":136.82526000000098,"velocity":0.5826771653543307,"duration":0.15872999999999138},{"name":"F#2","midi":42,"time":136.98399000000097,"velocity":0.5826771653543307,"duration":0.15872999999999138},{"name":"F#4","midi":66,"time":136.98399000000097,"velocity":0.5826771653543307,"duration":0.15872999999999138},{"name":"E4","midi":64,"time":137.14272000000096,"velocity":0.5826771653543307,"duration":0.15872999999999138},{"name":"G2","midi":43,"time":137.14272000000096,"velocity":0.5826771653543307,"duration":0.18915325000000394},{"name":"G5","midi":79,"time":137.30145000000095,"velocity":0.5826771653543307,"duration":0.1587300000000198},{"name":"E5","midi":76,"time":137.46018000000097,"velocity":0.5826771653543307,"duration":0.15872999999999138},{"name":"C#5","midi":73,"time":137.61891000000097,"velocity":0.5826771653543307,"duration":0.32671924999999646},{"name":"A2","midi":45,"time":137.61891000000097,"velocity":0.5826771653543307,"duration":0.11904749999999353},{"name":"G2","midi":43,"time":137.73795750000096,"velocity":0.5826771653543307,"duration":0.11904749999999353},{"name":"F#2","midi":42,"time":137.85700500000095,"velocity":0.5826771653543307,"duration":0.11904750000002196},{"name":"G2","midi":43,"time":137.97605250000097,"velocity":0.5826771653543307,"duration":0.11904749999999353},{"name":"F#4","midi":66,"time":138.09510000000097,"velocity":0.5826771653543307,"duration":0.15872999999999138},{"name":"A2","midi":45,"time":138.09510000000097,"velocity":0.5826771653543307,"duration":0.1785712500000045},{"name":"A5","midi":81,"time":138.25383000000096,"velocity":0.5826771653543307,"duration":0.1587300000000198},{"name":"F#5","midi":78,"time":138.41256000000098,"velocity":0.5826771653543307,"duration":0.15872999999999138},{"name":"D#5","midi":75,"time":138.57129000000097,"velocity":0.5826771653543307,"duration":0.32671924999999646},{"name":"B2","midi":47,"time":138.57129000000097,"velocity":0.5826771653543307,"duration":0.11904749999999353},{"name":"A2","midi":45,"time":138.69033750000096,"velocity":0.5826771653543307,"duration":0.11904749999999353},{"name":"G2","midi":43,"time":138.80938500000096,"velocity":0.5826771653543307,"duration":0.11904750000002196},{"name":"A2","midi":45,"time":138.92843250000098,"velocity":0.5826771653543307,"duration":0.11904749999999353},{"name":"G4","midi":67,"time":139.04748000000097,"velocity":0.5826771653543307,"duration":0.1587300000000198},{"name":"B2","midi":47,"time":139.04748000000097,"velocity":0.5826771653543307,"duration":0.15740725000000566},{"name":"B5","midi":83,"time":139.206210000001,"velocity":0.5826771653543307,"duration":0.15872999999999138},{"name":"G5","midi":79,"time":139.36494000000098,"velocity":0.5826771653543307,"duration":0.15872999999999138},{"name":"E5","midi":76,"time":139.52367000000098,"velocity":0.5826771653543307,"duration":0.15872999999999138},{"name":"G2","midi":43,"time":139.52367000000098,"velocity":0.5826771653543307,"duration":0.16798925000000509},{"name":"D5","midi":74,"time":139.68240000000097,"velocity":0.5826771653543307,"duration":0.1587300000000198},{"name":"C#5","midi":73,"time":139.841130000001,"velocity":0.5826771653543307,"duration":0.15872999999999138},{"name":"D5","midi":74,"time":139.99986000000098,"velocity":0.5826771653543307,"duration":0.9523799999999767},{"name":"E2","midi":40,"time":139.99986000000098,"velocity":0.5826771653543307,"duration":0.16798925000000509},{"name":"B4","midi":71,"time":140.15859000000097,"velocity":0.5826771653543307,"duration":0.1587300000000198},{"name":"G#4","midi":68,"time":140.317320000001,"velocity":0.5826771653543307,"duration":0.15872999999999138},{"name":"C3","midi":48,"time":140.47605000000098,"velocity":0.5826771653543307,"duration":0.9523799999999483},{"name":"E4","midi":64,"time":140.47605000000098,"velocity":0.5826771653543307,"duration":0.15872999999999138},{"name":"F#4","midi":66,"time":140.63478000000097,"velocity":0.5826771653543307,"duration":0.15872999999999138},{"name":"G#4","midi":68,"time":140.79351000000096,"velocity":0.5826771653543307,"duration":0.15872999999999138},{"name":"C5","midi":72,"time":140.95224000000096,"velocity":0.5826771653543307,"duration":0.15872999999999138},{"name":"A4","midi":69,"time":140.95224000000096,"velocity":0.5826771653543307,"duration":0.9523799999999767},{"name":"F#4","midi":66,"time":141.11097000000095,"velocity":0.5826771653543307,"duration":0.15872999999999138},{"name":"E4","midi":64,"time":141.26970000000094,"velocity":0.5826771653543307,"duration":0.15872999999999138},{"name":"D#4","midi":63,"time":141.42843000000093,"velocity":0.5826771653543307,"duration":0.15872999999999138},{"name":"B2","midi":47,"time":141.42843000000093,"velocity":0.5826771653543307,"duration":0.16798925000000509},{"name":"E4","midi":64,"time":141.58716000000092,"velocity":0.5826771653543307,"duration":0.1587300000000198},{"name":"F#4","midi":66,"time":141.74589000000094,"velocity":0.5826771653543307,"duration":0.15872999999999138},{"name":"D#3","midi":51,"time":141.78557250000094,"velocity":0.5826771653543307,"duration":0.11904749999999353},{"name":"G4","midi":67,"time":141.90462000000093,"velocity":0.5826771653543307,"duration":0.15872999999999138},{"name":"G4","midi":67,"time":141.90462000000093,"velocity":0.5826771653543307,"duration":0.9523799999999767},{"name":"E3","midi":52,"time":141.90462000000093,"velocity":0.5826771653543307,"duration":0.1785712500000045},{"name":"A4","midi":69,"time":142.06335000000092,"velocity":0.5826771653543307,"duration":0.1587300000000198},{"name":"B4","midi":71,"time":142.22208000000094,"velocity":0.5826771653543307,"duration":0.15872999999999138},{"name":"A2","midi":45,"time":142.38081000000093,"velocity":0.5826771653543307,"duration":0.9523799999999483},{"name":"C5","midi":72,"time":142.38081000000093,"velocity":0.5826771653543307,"duration":0.15872999999999138},{"name":"B4","midi":71,"time":142.53954000000093,"velocity":0.5826771653543307,"duration":0.15872999999999138},{"name":"A4","midi":69,"time":142.69827000000092,"velocity":0.5826771653543307,"duration":0.15872999999999138},{"name":"D#5","midi":75,"time":142.8570000000009,"velocity":0.5826771653543307,"duration":0.15872999999999138},{"name":"F#4","midi":66,"time":142.8570000000009,"velocity":0.5826771653543307,"duration":0.9523799999999767},{"name":"E5","midi":76,"time":143.0157300000009,"velocity":0.5826771653543307,"duration":0.15872999999999138},{"name":"F#5","midi":78,"time":143.1744600000009,"velocity":0.5826771653543307,"duration":0.15872999999999138},{"name":"B4","midi":71,"time":143.33319000000088,"velocity":0.5826771653543307,"duration":0.1587300000000198},{"name":"G2","midi":43,"time":143.33319000000088,"velocity":0.5826771653543307,"duration":0.15740725000000566},{"name":"C5","midi":72,"time":143.4919200000009,"velocity":0.5826771653543307,"duration":0.15872999999999138},{"name":"A4","midi":69,"time":143.6506500000009,"velocity":0.5826771653543307,"duration":0.15872999999999138},{"name":"D#3","midi":51,"time":143.6903325000009,"velocity":0.5826771653543307,"duration":0.11904749999999353},{"name":"E4","midi":64,"time":143.80938000000089,"velocity":0.5826771653543307,"duration":0.9523799999999767},{"name":"G4","midi":67,"time":143.80938000000089,"velocity":0.5826771653543307,"duration":0.15872999999999138},{"name":"E3","midi":52,"time":143.80938000000089,"velocity":0.5826771653543307,"duration":0.1785712500000045},{"name":"F#4","midi":66,"time":143.96811000000088,"velocity":0.5826771653543307,"duration":0.1587300000000198},{"name":"G4","midi":67,"time":144.1268400000009,"velocity":0.5826771653543307,"duration":0.15872999999999138},{"name":"F#2","midi":42,"time":144.2855700000009,"velocity":0.5826771653543307,"duration":0.6349199999999655},{"name":"A4","midi":69,"time":144.2855700000009,"velocity":0.5826771653543307,"duration":0.15872999999999138},{"name":"B4","midi":71,"time":144.44430000000088,"velocity":0.5826771653543307,"duration":0.15872999999999138},{"name":"C5","midi":72,"time":144.60303000000087,"velocity":0.5826771653543307,"duration":0.6349199999999655},{"name":"D#4","midi":63,"time":144.76176000000086,"velocity":0.5826771653543307,"duration":0.47618999999997413},{"name":"G2","midi":43,"time":144.92049000000085,"velocity":0.5826771653543307,"duration":0.15872999999999138},{"name":"A2","midi":45,"time":145.07922000000084,"velocity":0.5826771653543307,"duration":0.15872999999999138},{"name":"B4","midi":71,"time":145.23795000000084,"velocity":0.5826771653543307,"duration":0.15872999999999138},{"name":"E4","midi":64,"time":145.23795000000084,"velocity":0.5826771653543307,"duration":0.47618999999997413},{"name":"G2","midi":43,"time":145.23795000000084,"velocity":0.5826771653543307,"duration":0.15872999999999138},{"name":"A4","midi":69,"time":145.39668000000083,"velocity":0.5826771653543307,"duration":0.15872999999999138},{"name":"F#2","midi":42,"time":145.39668000000083,"velocity":0.5826771653543307,"duration":0.15872999999999138},{"name":"G4","midi":67,"time":145.55541000000082,"velocity":0.5826771653543307,"duration":0.15872999999999138},{"name":"E2","midi":40,"time":145.55541000000082,"velocity":0.5826771653543307,"duration":0.15872999999999138},{"name":"A4","midi":69,"time":145.7141400000008,"velocity":0.5826771653543307,"duration":1.269839999999931},{"name":"F#4","midi":66,"time":145.7141400000008,"velocity":0.5826771653543307,"duration":1.269839999999931},{"name":"D#2","midi":39,"time":145.7141400000008,"velocity":0.5826771653543307,"duration":0.15872999999999138},{"name":"C3","midi":48,"time":145.8728700000008,"velocity":0.5826771653543307,"duration":0.15872999999999138},{"name":"B2","midi":47,"time":146.0316000000008,"velocity":0.5826771653543307,"duration":0.15872999999999138},{"name":"A2","midi":45,"time":146.19033000000078,"velocity":0.5826771653543307,"duration":0.15872999999999138},{"name":"G2","midi":43,"time":146.34906000000078,"velocity":0.5826771653543307,"duration":0.15872999999999138},{"name":"F#2","midi":42,"time":146.50779000000077,"velocity":0.5826771653543307,"duration":0.15872999999999138},{"name":"G2","midi":43,"time":146.66652000000076,"velocity":0.5826771653543307,"duration":0.15872999999999138},{"name":"A2","midi":45,"time":146.82525000000075,"velocity":0.5826771653543307,"duration":0.15872999999999138},{"name":"D#4","midi":63,"time":146.98398000000074,"velocity":0.5826771653543307,"duration":0.15872999999999138},{"name":"F#4","midi":66,"time":146.98398000000074,"velocity":0.5826771653543307,"duration":0.15872999999999138},{"name":"B2","midi":47,"time":146.98398000000074,"velocity":0.5826771653543307,"duration":0.15872999999999138},{"name":"B4","midi":71,"time":147.14271000000073,"velocity":0.5826771653543307,"duration":0.16798925000000509},{"name":"B3","midi":59,"time":147.14271000000073,"velocity":0.5826771653543307,"duration":0.16798925000000509},{"name":"A2","midi":45,"time":147.14271000000073,"velocity":0.5826771653543307,"duration":0.15872999999999138},{"name":"G2","midi":43,"time":147.30144000000072,"velocity":0.5826771653543307,"duration":0.1587300000000198},{"name":"A4","midi":69,"time":147.46017000000074,"velocity":0.5826771653543307,"duration":0.15872999999999138},{"name":"D#4","midi":63,"time":147.46017000000074,"velocity":0.5826771653543307,"duration":0.15872999999999138},{"name":"F#2","midi":42,"time":147.46017000000074,"velocity":0.5826771653543307,"duration":0.15872999999999138},{"name":"E4","midi":64,"time":147.61890000000074,"velocity":0.5826771653543307,"duration":1.9047599999998965},{"name":"G4","midi":67,"time":147.61890000000074,"velocity":0.5826771653543307,"duration":1.1111099999999396},{"name":"E2","midi":40,"time":147.61890000000074,"velocity":0.5826771653543307,"duration":0.15872999999999138},{"name":"E3","midi":52,"time":147.77763000000073,"velocity":0.5826771653543307,"duration":0.15872999999999138},{"name":"D3","midi":50,"time":147.93636000000072,"velocity":0.5826771653543307,"duration":0.15872999999999138},{"name":"C3","midi":48,"time":148.0950900000007,"velocity":0.5826771653543307,"duration":0.15872999999999138},{"name":"B2","midi":47,"time":148.2538200000007,"velocity":0.5826771653543307,"duration":0.15872999999999138},{"name":"A#2","midi":46,"time":148.4125500000007,"velocity":0.5826771653543307,"duration":0.15872999999999138},{"name":"B2","midi":47,"time":148.57128000000068,"velocity":0.5826771653543307,"duration":2.539679999999862},{"name":"B4","midi":71,"time":148.73001000000068,"velocity":0.5826771653543307,"duration":0.15872999999999138},{"name":"A4","midi":69,"time":148.88874000000067,"velocity":0.5826771653543307,"duration":0.15872999999999138},{"name":"G4","midi":67,"time":149.04747000000066,"velocity":0.5826771653543307,"duration":0.15872999999999138},{"name":"F#4","midi":66,"time":149.20620000000065,"velocity":0.5826771653543307,"duration":0.15872999999999138},{"name":"E4","midi":64,"time":149.36493000000064,"velocity":0.5826771653543307,"duration":0.15872999999999138},{"name":"D#4","midi":63,"time":149.52366000000063,"velocity":0.5826771653543307,"duration":0.15872999999999138},{"name":"C5","midi":72,"time":149.68239000000062,"velocity":0.5826771653543307,"duration":0.47618999999997413},{"name":"D#3","midi":51,"time":149.68239000000062,"velocity":0.5826771653543307,"duration":0.15872999999999138},{"name":"E3","midi":52,"time":149.84112000000061,"velocity":0.5826771653543307,"duration":0.15872999999999138},{"name":"F#3","midi":54,"time":149.9998500000006,"velocity":0.5826771653543307,"duration":0.15872999999999138},{"name":"E4","midi":64,"time":150.1585800000006,"velocity":0.5826771653543307,"duration":0.15872999999999138},{"name":"G3","midi":55,"time":150.1585800000006,"velocity":0.5826771653543307,"duration":0.15872999999999138},{"name":"A3","midi":57,"time":150.3173100000006,"velocity":0.5826771653543307,"duration":0.15872999999999138},{"name":"D#4","midi":63,"time":150.3173100000006,"velocity":0.5826771653543307,"duration":0.15872999999999138},{"name":"B4","midi":71,"time":150.47604000000058,"velocity":0.5826771653543307,"duration":0.15872999999999138},{"name":"G3","midi":55,"time":150.47604000000058,"velocity":0.5826771653543307,"duration":0.15872999999999138},{"name":"E4","midi":64,"time":150.63477000000057,"velocity":0.5826771653543307,"duration":0.9523799999999483},{"name":"G4","midi":67,"time":150.79350000000056,"velocity":0.5826771653543307,"duration":0.15872999999999138},{"name":"C#5","midi":73,"time":150.95223000000055,"velocity":0.5826771653543307,"duration":0.7936499999999569},{"name":"A#3","midi":58,"time":151.11096000000055,"velocity":0.5826771653543307,"duration":0.15872999999999138},{"name":"B3","midi":59,"time":151.26969000000054,"velocity":0.5826771653543307,"duration":0.15872999999999138},{"name":"B2","midi":47,"time":151.42842000000053,"velocity":0.5826771653543307,"duration":0.6349199999999655},{"name":"F#4","midi":66,"time":151.58715000000052,"velocity":0.5826771653543307,"duration":0.9523799999999483},{"name":"A4","midi":69,"time":151.7458800000005,"velocity":0.5826771653543307,"duration":0.15872999999999138},{"name":"D#5","midi":75,"time":151.9046100000005,"velocity":0.5826771653543307,"duration":0.7936499999999569},{"name":"A#3","midi":58,"time":152.0633400000005,"velocity":0.5826771653543307,"duration":0.15872999999999138},{"name":"B3","midi":59,"time":152.22207000000049,"velocity":0.5826771653543307,"duration":0.15872999999999138},{"name":"B2","midi":47,"time":152.38080000000048,"velocity":0.5826771653543307,"duration":0.6349199999999655},{"name":"G4","midi":67,"time":152.53953000000047,"velocity":0.5826771653543307,"duration":0.9523799999999483},{"name":"B4","midi":71,"time":152.69826000000046,"velocity":0.5826771653543307,"duration":0.15872999999999138},{"name":"E5","midi":76,"time":152.85699000000045,"velocity":0.5826771653543307,"duration":0.7936499999999569},{"name":"A#3","midi":58,"time":153.01572000000044,"velocity":0.5826771653543307,"duration":0.15872999999999138},{"name":"B3","midi":59,"time":153.17445000000043,"velocity":0.5826771653543307,"duration":0.15872999999999138},{"name":"B2","midi":47,"time":153.33318000000043,"velocity":0.5826771653543307,"duration":0.6349199999999655},{"name":"A4","midi":69,"time":153.49191000000042,"velocity":0.5826771653543307,"duration":0.9523799999999483},{"name":"D#5","midi":75,"time":153.6506400000004,"velocity":0.5826771653543307,"duration":0.15872999999999138},{"name":"F#5","midi":78,"time":153.8093700000004,"velocity":0.5826771653543307,"duration":0.7936499999999569},{"name":"A#3","midi":58,"time":153.9681000000004,"velocity":0.5826771653543307,"duration":0.15872999999999138},{"name":"B3","midi":59,"time":154.12683000000038,"velocity":0.5826771653543307,"duration":0.15872999999999138},{"name":"B2","midi":47,"time":154.28556000000037,"velocity":0.5826771653543307,"duration":0.6349199999999655},{"name":"B4","midi":71,"time":154.44429000000036,"velocity":0.5826771653543307,"duration":0.7936499999999569},{"name":"E5","midi":76,"time":154.60302000000036,"velocity":0.5826771653543307,"duration":0.15872999999999138},{"name":"G5","midi":79,"time":154.76175000000035,"velocity":0.5826771653543307,"duration":0.47618999999997413},{"name":"A#3","midi":58,"time":154.92048000000034,"velocity":0.5826771653543307,"duration":0.15872999999999138},{"name":"B3","midi":59,"time":155.07921000000033,"velocity":0.5826771653543307,"duration":0.15872999999999138},{"name":"F#3","midi":54,"time":155.23794000000032,"velocity":0.5826771653543307,"duration":0.15872999999999138},{"name":"G3","midi":55,"time":155.3966700000003,"velocity":0.5826771653543307,"duration":0.15872999999999138},{"name":"D#3","midi":51,"time":155.5554000000003,"velocity":0.5826771653543307,"duration":0.15872999999999138},{"name":"E3","midi":52,"time":155.7141300000003,"velocity":0.5826771653543307,"duration":0.15872999999999138},{"name":"B2","midi":47,"time":155.8728600000003,"velocity":0.5826771653543307,"duration":0.15872999999999138},{"name":"C3","midi":48,"time":156.03159000000028,"velocity":0.5826771653543307,"duration":0.15872999999999138},{"name":"D#2","midi":39,"time":156.19032000000027,"velocity":0.5826771653543307,"duration":0.47618999999997413},{"name":"C5","midi":72,"time":156.34905000000026,"velocity":0.5826771653543307,"duration":0.15872999999999138},{"name":"F#5","midi":78,"time":156.50778000000025,"velocity":0.5826771653543307,"duration":0.15872999999999138},{"name":"A5","midi":81,"time":156.66651000000024,"velocity":0.5826771653543307,"duration":0.15872999999999138},{"name":"D#5","midi":75,"time":156.82524000000024,"velocity":0.5826771653543307,"duration":0.15872999999999138},{"name":"F#5","midi":78,"time":156.98397000000023,"velocity":0.5826771653543307,"duration":0.15872999999999138},{"name":"C5","midi":72,"time":157.14270000000022,"velocity":0.5826771653543307,"duration":0.15872999999999138},{"name":"B4","midi":71,"time":157.3014300000002,"velocity":0.5826771653543307,"duration":0.15872999999999138},{"name":"D#5","midi":75,"time":157.4601600000002,"velocity":0.5826771653543307,"duration":0.15872999999999138},{"name":"F#5","midi":78,"time":157.6188900000002,"velocity":0.5826771653543307,"duration":0.15872999999999138},{"name":"A4","midi":69,"time":157.77762000000018,"velocity":0.5826771653543307,"duration":0.15872999999999138},{"name":"C5","midi":72,"time":157.93635000000017,"velocity":0.5826771653543307,"duration":0.15872999999999138},{"name":"G4","midi":67,"time":158.09508000000017,"velocity":0.5826771653543307,"duration":0.15872999999999138},{"name":"F#4","midi":66,"time":158.25381000000016,"velocity":0.5826771653543307,"duration":0.15872999999999138},{"name":"A4","midi":69,"time":158.41254000000015,"velocity":0.5826771653543307,"duration":0.15872999999999138},{"name":"C5","midi":72,"time":158.57127000000014,"velocity":0.5826771653543307,"duration":0.15872999999999138},{"name":"F#4","midi":66,"time":158.73000000000013,"velocity":0.5826771653543307,"duration":0.15872999999999138},{"name":"A4","midi":69,"time":158.88873000000012,"velocity":0.5826771653543307,"duration":0.15872999999999138},{"name":"E4","midi":64,"time":159.04746000000011,"velocity":0.5826771653543307,"duration":0.15872999999999138},{"name":"A2","midi":45,"time":159.04746000000011,"velocity":0.5826771653543307,"duration":0.4761900000002015},{"name":"F#3","midi":54,"time":159.04746000000011,"velocity":0.5826771653543307,"duration":0.4761900000002015},{"name":"B3","midi":59,"time":159.04746000000011,"velocity":0.5826771653543307,"duration":0.4761900000002015},{"name":"E4","midi":64,"time":159.2061900000001,"velocity":0.5826771653543307,"duration":0.05158725000001141},{"name":"D#4","midi":63,"time":159.2379360000001,"velocity":0.5826771653543307,"duration":0.041005250000040405},{"name":"E4","midi":64,"time":159.25910000000013,"velocity":0.5826771653543307,"duration":0.041005250000040405},{"name":"D#4","midi":63,"time":159.28026400000016,"velocity":0.5826771653543307,"duration":0.09391525000003753},{"name":"D#5","midi":75,"time":159.36492000000018,"velocity":0.5826771653543307,"duration":0.062169250000039256},{"name":"E5","midi":76,"time":159.4072480000002,"velocity":0.5826771653543307,"duration":0.05158725000003983},{"name":"D#5","midi":75,"time":159.43634850000024,"velocity":0.5826771653543307,"duration":0.05158725000003983},{"name":"C#5","midi":73,"time":159.46809450000026,"velocity":0.5826771653543307,"duration":0.05158725000003983},{"name":"D#5","midi":75,"time":159.4971950000003,"velocity":0.5826771653543307,"duration":0.026455000000026985},{"name":"E5","midi":76,"time":159.52365000000032,"velocity":0.5826771653543307,"duration":0.6349199999999939},{"name":"F#4","midi":66,"time":159.88079250000033,"velocity":0.5826771653543307,"duration":0.11904749999999353},{"name":"A#3","midi":58,"time":159.88079250000033,"velocity":0.5826771653543307,"duration":0.11904749999999353},{"name":"B3","midi":59,"time":159.99984000000032,"velocity":0.5826771653543307,"duration":2.063489999999888},{"name":"G4","midi":67,"time":159.99984000000032,"velocity":0.5826771653543307,"duration":0.6349199999999655},{"name":"D5","midi":74,"time":160.1585700000003,"velocity":0.5826771653543307,"duration":0.15872999999999138},{"name":"C5","midi":72,"time":160.3173000000003,"velocity":0.5826771653543307,"duration":0.15872999999999138},{"name":"B4","midi":71,"time":160.4760300000003,"velocity":0.5826771653543307,"duration":0.15872999999999138},{"name":"A4","midi":69,"time":160.63476000000028,"velocity":0.5826771653543307,"duration":0.15872999999999138},{"name":"F#4","midi":66,"time":160.63476000000028,"velocity":0.5826771653543307,"duration":0.15872999999999138},{"name":"G4","midi":67,"time":160.79349000000028,"velocity":0.5826771653543307,"duration":0.15872999999999138},{"name":"E4","midi":64,"time":160.79349000000028,"velocity":0.5826771653543307,"duration":0.15872999999999138},{"name":"A4","midi":69,"time":160.95222000000027,"velocity":0.5826771653543307,"duration":0.15872999999999138},{"name":"D#4","midi":63,"time":160.95222000000027,"velocity":0.5826771653543307,"duration":0.31745999999998276},{"name":"F#4","midi":66,"time":161.11095000000026,"velocity":0.5826771653543307,"duration":0.15872999999999138},{"name":"G4","midi":67,"time":161.26968000000025,"velocity":0.5826771653543307,"duration":0.15872999999999138},{"name":"E4","midi":64,"time":161.26968000000025,"velocity":0.5826771653543307,"duration":0.15872999999999138},{"name":"A4","midi":69,"time":161.42841000000024,"velocity":0.5826771653543307,"duration":0.15872999999999138},{"name":"F#4","midi":66,"time":161.42841000000024,"velocity":0.5826771653543307,"duration":0.31745999999998276},{"name":"B4","midi":71,"time":161.58714000000023,"velocity":0.5826771653543307,"duration":0.15872999999999138},{"name":"C5","midi":72,"time":161.74587000000022,"velocity":0.5826771653543307,"duration":0.31745999999998276},{"name":"E4","midi":64,"time":161.74587000000022,"velocity":0.5826771653543307,"duration":0.15872999999999138},{"name":"D#4","midi":63,"time":161.90460000000022,"velocity":0.5826771653543307,"duration":0.15872999999999138},{"name":"B4","midi":71,"time":162.0633300000002,"velocity":0.5826771653543307,"duration":0.15872999999999138},{"name":"C#4","midi":61,"time":162.0633300000002,"velocity":0.5826771653543307,"duration":0.15872999999999138},{"name":"A4","midi":69,"time":162.2220600000002,"velocity":0.5826771653543307,"duration":0.15872999999999138},{"name":"D#4","midi":63,"time":162.2220600000002,"velocity":0.5826771653543307,"duration":0.15872999999999138},{"name":"G4","midi":67,"time":162.3807900000002,"velocity":0.5826771653543307,"duration":0.15872999999999138},{"name":"E4","midi":64,"time":162.3807900000002,"velocity":0.5826771653543307,"duration":0.15872999999999138},{"name":"D#4","midi":63,"time":162.53952000000018,"velocity":0.5826771653543307,"duration":0.15872999999999138},{"name":"F#3","midi":54,"time":162.53952000000018,"velocity":0.5826771653543307,"duration":0.15872999999999138},{"name":"E4","midi":64,"time":162.69825000000017,"velocity":0.5826771653543307,"duration":0.31745999999998276},{"name":"G3","midi":55,"time":162.69825000000017,"velocity":0.5826771653543307,"duration":0.15872999999999138},{"name":"A#2","midi":46,"time":162.69825000000017,"velocity":0.5826771653543307,"duration":0.15872999999999138},{"name":"B2","midi":47,"time":162.85698000000016,"velocity":0.5826771653543307,"duration":0.952380000000062},{"name":"F#3","midi":54,"time":162.85698000000016,"velocity":0.5826771653543307,"duration":0.6349200000000508},{"name":"F#4","midi":66,"time":163.01571000000015,"velocity":0.5826771653543307,"duration":0.07936499999999569},{"name":"A4","midi":69,"time":163.09507500000015,"velocity":0.5826771653543307,"duration":0.07936499999999569},{"name":"C5","midi":72,"time":163.17444000000015,"velocity":0.5826771653543307,"duration":0.15872999999999138},{"name":"E4","midi":64,"time":163.33317000000014,"velocity":0.5826771653543307,"duration":0.07275125000001026},{"name":"D#4","midi":63,"time":163.38608000000013,"velocity":0.5826771653543307,"duration":0.07275125000003868},{"name":"E4","midi":64,"time":163.42840800000016,"velocity":0.5826771653543307,"duration":0.062169250000039256},{"name":"D#4","midi":63,"time":163.4707360000002,"velocity":0.5826771653543307,"duration":0.18915325000003236},{"name":"G3","midi":55,"time":163.49190000000021,"velocity":0.5826771653543307,"duration":0.15872999999999138},{"name":"A3","midi":57,"time":163.6506300000002,"velocity":0.5826771653543307,"duration":0.3174600000000112},{"name":"E4","midi":64,"time":163.6506300000002,"velocity":0.5826771653543307,"duration":0.1362432500000068},{"name":"E4","midi":64,"time":163.80936000000023,"velocity":0.5826771653543307,"duration":1.904759999999925},{"name":"E3","midi":52,"time":163.80936000000023,"velocity":0.5826771653543307,"duration":1.1111099999999396},{"name":"B3","midi":59,"time":163.96809000000022,"velocity":0.5826771653543307,"duration":0.15872999999999138},{"name":"G#3","midi":56,"time":163.96809000000022,"velocity":0.5826771653543307,"duration":0.47618999999997413},{"name":"D4","midi":62,"time":164.1268200000002,"velocity":0.5826771653543307,"duration":0.15872999999999138},{"name":"C4","midi":60,"time":164.2855500000002,"velocity":0.5826771653543307,"duration":0.31745999999998276},{"name":"G#3","midi":56,"time":164.4442800000002,"velocity":0.5826771653543307,"duration":0.15872999999999138},{"name":"A3","midi":57,"time":164.60301000000018,"velocity":0.5826771653543307,"duration":0.6349199999999655},{"name":"B3","midi":59,"time":164.76174000000017,"velocity":0.5826771653543307,"duration":0.9523799999999767},{"name":"D#3","midi":51,"time":164.92047000000017,"velocity":0.5826771653543307,"duration":0.15872999999999138},{"name":"E3","midi":52,"time":165.07920000000016,"velocity":0.5826771653543307,"duration":0.15872999999999138},{"name":"G#3","midi":56,"time":165.23793000000015,"velocity":0.5826771653543307,"duration":0.47619000000000256},{"name":"E2","midi":40,"time":165.23793000000015,"velocity":0.5826771653543307,"duration":0.47619000000000256}],"controlChanges":{"7":[{"number":7,"time":0,"value":0.7874015748031497}]},"id":1,"name":"BWV 879/2","instrumentNumber":6,"instrument":"harpsichord","instrumentFamily":"piano","channelNumber":0,"isPercussion":false}]}