{"header":{"PPQ":384,"timeSignature":[4,4],"bpm":120,"name":"--------"},"startTime":0,"duration":89.21354166666698,"tracks":[{"startTime":0,"duration":0,"length":0,"notes":[],"controlChanges":{},"id":0,"name":"--------"},{"startTime":0.0625,"duration":89.21354166666698,"length":624,"notes":[{"name":"G2","midi":43,"time":0.0625,"velocity":0.8031496062992126,"duration":0.8932291666666667},{"name":"G4","midi":67,"time":0.5104166666666667,"velocity":0.8031496062992126,"duration":0.6692708333333333},{"name":"B2","midi":47,"time":0.9583333333333334,"velocity":0.8031496062992126,"duration":0.8932291666666671},{"name":"F#4","midi":66,"time":1.1822916666666667,"velocity":0.8031496062992126,"duration":0.22135416666666674},{"name":"G4","midi":67,"time":1.4062500000000002,"velocity":0.8031496062992126,"duration":0.22135416666666674},{"name":"A4","midi":69,"time":1.6302083333333337,"velocity":0.8031496062992126,"duration":0.22135416666666674},{"name":"G2","midi":43,"time":1.8541666666666672,"velocity":0.8031496062992126,"duration":0.8932291666666659},{"name":"B4","midi":71,"time":1.8541666666666672,"velocity":0.8031496062992126,"duration":0.22135416666666674},{"name":"C5","midi":72,"time":2.0781250000000004,"velocity":0.8031496062992126,"duration":0.22135416666666652},{"name":"D5","midi":74,"time":2.3020833333333335,"velocity":0.8031496062992126,"duration":0.22135416666666652},{"name":"B4","midi":71,"time":2.5260416666666665,"velocity":0.8031496062992126,"duration":0.22135416666666652},{"name":"C3","midi":48,"time":2.7499999999999996,"velocity":0.8031496062992126,"duration":0.8932291666666656},{"name":"E5","midi":76,"time":2.7499999999999996,"velocity":0.8031496062992126,"duration":0.22135416666666652},{"name":"D5","midi":74,"time":2.9739583333333326,"velocity":0.8031496062992126,"duration":0.22135416666666652},{"name":"C5","midi":72,"time":3.1979166666666656,"velocity":0.8031496062992126,"duration":0.22135416666666652},{"name":"B4","midi":71,"time":3.4218749999999987,"velocity":0.8031496062992126,"duration":0.22135416666666652},{"name":"D3","midi":50,"time":3.6458333333333317,"velocity":0.8031496062992126,"duration":0.8932291666666674},{"name":"A4","midi":69,"time":3.6458333333333317,"velocity":0.8031496062992126,"duration":0.22135416666666652},{"name":"G4","midi":67,"time":3.8697916666666647,"velocity":0.8031496062992126,"duration":0.22135416666666652},{"name":"F#4","midi":66,"time":4.093749999999998,"velocity":0.8031496062992126,"duration":0.22135416666666696},{"name":"E4","midi":64,"time":4.317708333333332,"velocity":0.8031496062992126,"duration":0.22135416666666696},{"name":"D2","midi":38,"time":4.541666666666666,"velocity":0.8031496062992126,"duration":0.8932291666666687},{"name":"D4","midi":62,"time":4.541666666666666,"velocity":0.8031496062992126,"duration":0.22135416666666696},{"name":"C5","midi":72,"time":4.765625,"velocity":0.8031496062992126,"duration":0.22135416666666696},{"name":"B4","midi":71,"time":4.989583333333334,"velocity":0.8031496062992126,"duration":0.22135416666666696},{"name":"A4","midi":69,"time":5.213541666666668,"velocity":0.8031496062992126,"duration":0.22135416666666696},{"name":"G2","midi":43,"time":5.437500000000002,"velocity":0.8031496062992126,"duration":0.893229166666667},{"name":"B4","midi":71,"time":5.437500000000002,"velocity":0.8031496062992126,"duration":1.1171875000000009},{"name":"D4","midi":62,"time":5.885416666666669,"velocity":0.8031496062992126,"duration":0.6692708333333339},{"name":"G3","midi":55,"time":6.333333333333336,"velocity":0.8031496062992126,"duration":0.8932291666666687},{"name":"C#4","midi":61,"time":6.55729166666667,"velocity":0.8031496062992126,"duration":0.22135416666666696},{"name":"A4","midi":69,"time":6.55729166666667,"velocity":0.8031496062992126,"duration":0.22135416666666696},{"name":"D4","midi":62,"time":6.7812500000000036,"velocity":0.8031496062992126,"duration":0.22135416666666696},{"name":"B4","midi":71,"time":6.7812500000000036,"velocity":0.8031496062992126,"duration":0.22135416666666696},{"name":"E4","midi":64,"time":7.0052083333333375,"velocity":0.8031496062992126,"duration":0.22135416666666696},{"name":"C#5","midi":73,"time":7.0052083333333375,"velocity":0.8031496062992126,"duration":0.22135416666666696},{"name":"F#3","midi":54,"time":7.229166666666671,"velocity":0.8031496062992126,"duration":0.8932291666666679},{"name":"F#4","midi":66,"time":7.229166666666671,"velocity":0.8031496062992126,"duration":0.22135416666666696},{"name":"D5","midi":74,"time":7.229166666666671,"velocity":0.8031496062992126,"duration":2.684895833333325},{"name":"G4","midi":67,"time":7.453125000000005,"velocity":0.8031496062992126,"duration":0.22135416666666696},{"name":"A4","midi":69,"time":7.677083333333339,"velocity":0.8031496062992126,"duration":0.22135416666666696},{"name":"F#4","midi":66,"time":7.901041666666673,"velocity":0.8031496062992126,"duration":0.22135416666666607},{"name":"G3","midi":55,"time":8.125000000000005,"velocity":0.8031496062992126,"duration":0.8932291666666625},{"name":"B4","midi":71,"time":8.125000000000005,"velocity":0.8031496062992126,"duration":0.22135416666666607},{"name":"A4","midi":69,"time":8.348958333333337,"velocity":0.8031496062992126,"duration":0.22135416666666607},{"name":"G4","midi":67,"time":8.57291666666667,"velocity":0.8031496062992126,"duration":0.22135416666666607},{"name":"F#4","midi":66,"time":8.796875000000002,"velocity":0.8031496062992126,"duration":0.22135416666666607},{"name":"A3","midi":57,"time":9.020833333333334,"velocity":0.8031496062992126,"duration":0.8932291666666625},{"name":"E4","midi":64,"time":9.020833333333334,"velocity":0.8031496062992126,"duration":0.22135416666666607},{"name":"D4","midi":62,"time":9.244791666666666,"velocity":0.8031496062992126,"duration":0.22135416666666607},{"name":"C#4","midi":61,"time":9.468749999999998,"velocity":0.8031496062992126,"duration":0.22135416666666607},{"name":"B3","midi":59,"time":9.69270833333333,"velocity":0.8031496062992126,"duration":0.22135416666666607},{"name":"A2","midi":45,"time":9.916666666666663,"velocity":0.8031496062992126,"duration":0.8932291666666625},{"name":"A3","midi":57,"time":9.916666666666663,"velocity":0.8031496062992126,"duration":0.22135416666666607},{"name":"C#5","midi":73,"time":9.916666666666663,"velocity":0.8031496062992126,"duration":0.8932291666666625},{"name":"G4","midi":67,"time":10.140624999999995,"velocity":0.8031496062992126,"duration":0.22135416666666607},{"name":"F#4","midi":66,"time":10.364583333333327,"velocity":0.8031496062992126,"duration":0.22135416666666607},{"name":"E4","midi":64,"time":10.588541666666659,"velocity":0.8031496062992126,"duration":0.22135416666666607},{"name":"D3","midi":50,"time":10.812499999999991,"velocity":0.8031496062992126,"duration":0.8867187499999964},{"name":"F#4","midi":66,"time":10.812499999999991,"velocity":0.8031496062992126,"duration":0.22135416666666607},{"name":"D5","midi":74,"time":10.812499999999991,"velocity":0.8031496062992126,"duration":1.1171874999999947},{"name":"A3","midi":57,"time":11.036458333333323,"velocity":0.8031496062992126,"duration":0.22135416666666607},{"name":"B3","midi":59,"time":11.260416666666655,"velocity":0.8031496062992126,"duration":0.22135416666666607},{"name":"C#4","midi":61,"time":11.484374999999988,"velocity":0.8031496062992126,"duration":0.22135416666666607},{"name":"D4","midi":62,"time":11.70833333333332,"velocity":0.8031496062992126,"duration":0.22135416666666607},{"name":"E4","midi":64,"time":11.932291666666652,"velocity":0.8031496062992126,"duration":0.22135416666666607},{"name":"C#5","midi":73,"time":11.932291666666652,"velocity":0.8031496062992126,"duration":0.22135416666666607},{"name":"F#4","midi":66,"time":12.156249999999984,"velocity":0.8031496062992126,"duration":0.22135416666666607},{"name":"D5","midi":74,"time":12.156249999999984,"velocity":0.8031496062992126,"duration":0.22135416666666607},{"name":"G4","midi":67,"time":12.380208333333316,"velocity":0.8031496062992126,"duration":0.22135416666666607},{"name":"E5","midi":76,"time":12.380208333333316,"velocity":0.8031496062992126,"duration":0.22135416666666607},{"name":"A4","midi":69,"time":12.604166666666648,"velocity":0.8031496062992126,"duration":0.22135416666666607},{"name":"F#5","midi":78,"time":12.604166666666648,"velocity":0.8031496062992126,"duration":0.22135416666666607},{"name":"B4","midi":71,"time":12.82812499999998,"velocity":0.8031496062992126,"duration":0.22135416666666607},{"name":"G5","midi":79,"time":12.82812499999998,"velocity":0.8031496062992126,"duration":0.22135416666666607},{"name":"C5","midi":72,"time":13.052083333333313,"velocity":0.8031496062992126,"duration":0.22135416666666607},{"name":"A5","midi":81,"time":13.052083333333313,"velocity":0.8031496062992126,"duration":0.22135416666666607},{"name":"A4","midi":69,"time":13.276041666666645,"velocity":0.8031496062992126,"duration":0.22135416666666607},{"name":"F#5","midi":78,"time":13.276041666666645,"velocity":0.8031496062992126,"duration":0.22135416666666607},{"name":"D5","midi":74,"time":13.499999999999977,"velocity":0.8031496062992126,"duration":0.4453124999999982},{"name":"B5","midi":83,"time":13.499999999999977,"velocity":0.8031496062992126,"duration":0.22135416666666607},{"name":"A5","midi":81,"time":13.723958333333309,"velocity":0.8031496062992126,"duration":0.22135416666666607},{"name":"B4","midi":71,"time":13.947916666666641,"velocity":0.8031496062992126,"duration":0.4453124999999982},{"name":"G5","midi":79,"time":13.947916666666641,"velocity":0.8031496062992126,"duration":0.22135416666666607},{"name":"F#5","midi":78,"time":14.171874999999973,"velocity":0.8031496062992126,"duration":0.22135416666666607},{"name":"G4","midi":67,"time":14.395833333333306,"velocity":0.8031496062992126,"duration":0.4453124999999982},{"name":"E5","midi":76,"time":14.395833333333306,"velocity":0.8031496062992126,"duration":0.22135416666666607},{"name":"D5","midi":74,"time":14.619791666666638,"velocity":0.8031496062992126,"duration":0.22135416666666607},{"name":"E4","midi":64,"time":14.84374999999997,"velocity":0.8031496062992126,"duration":0.4453124999999982},{"name":"C5","midi":72,"time":14.84374999999997,"velocity":0.8031496062992126,"duration":0.22135416666666607},{"name":"B4","midi":71,"time":15.067708333333302,"velocity":0.8031496062992126,"duration":0.22135416666666607},{"name":"C5","midi":72,"time":15.291666666666634,"velocity":0.8031496062992126,"duration":1.1171874999999982},{"name":"A4","midi":69,"time":15.291666666666634,"velocity":0.8031496062992126,"duration":0.22135416666666607},{"name":"G5","midi":79,"time":15.515624999999966,"velocity":0.8031496062992126,"duration":0.22135416666666607},{"name":"F#5","midi":78,"time":15.739583333333298,"velocity":0.8031496062992126,"duration":0.22135416666666607},{"name":"E5","midi":76,"time":15.96354166666663,"velocity":0.8031496062992126,"duration":0.22135416666666607},{"name":"D5","midi":74,"time":16.187499999999964,"velocity":0.8031496062992126,"duration":1.1171875000000107},{"name":"C5","midi":72,"time":16.4114583333333,"velocity":0.8031496062992126,"duration":0.22135416666666785},{"name":"G3","midi":55,"time":16.635416666666636,"velocity":0.8031496062992126,"duration":0.6692708333333393},{"name":"B4","midi":71,"time":16.635416666666636,"velocity":0.8031496062992126,"duration":0.22135416666666785},{"name":"A4","midi":69,"time":16.85937499999997,"velocity":0.8031496062992126,"duration":0.22135416666666785},{"name":"B4","midi":71,"time":17.083333333333307,"velocity":0.8031496062992126,"duration":1.1171875000000107},{"name":"F#3","midi":54,"time":17.307291666666643,"velocity":0.8031496062992126,"duration":0.22135416666666785},{"name":"D5","midi":74,"time":17.307291666666643,"velocity":0.8031496062992126,"duration":0.22135416666666785},{"name":"G3","midi":55,"time":17.53124999999998,"velocity":0.8031496062992126,"duration":0.22135416666666785},{"name":"E5","midi":76,"time":17.53124999999998,"velocity":0.8031496062992126,"duration":0.22135416666666785},{"name":"A3","midi":57,"time":17.755208333333314,"velocity":0.8031496062992126,"duration":0.22135416666666785},{"name":"F#5","midi":78,"time":17.755208333333314,"velocity":0.8031496062992126,"duration":0.22135416666666785},{"name":"B3","midi":59,"time":17.97916666666665,"velocity":0.8031496062992126,"duration":0.22135416666666785},{"name":"G5","midi":79,"time":17.97916666666665,"velocity":0.8031496062992126,"duration":1.3411458333333464},{"name":"C4","midi":60,"time":18.203124999999986,"velocity":0.8031496062992126,"duration":0.22135416666666785},{"name":"A4","midi":69,"time":18.203124999999986,"velocity":0.8031496062992126,"duration":0.22135416666666785},{"name":"D4","midi":62,"time":18.42708333333332,"velocity":0.8031496062992126,"duration":0.22135416666666785},{"name":"B4","midi":71,"time":18.42708333333332,"velocity":0.8031496062992126,"duration":0.22135416666666785},{"name":"B3","midi":59,"time":18.651041666666657,"velocity":0.8031496062992126,"duration":0.22135416666666785},{"name":"G4","midi":67,"time":18.651041666666657,"velocity":0.8031496062992126,"duration":0.22135416666666785},{"name":"E4","midi":64,"time":18.874999999999993,"velocity":0.8031496062992126,"duration":0.22135416666666785},{"name":"C5","midi":72,"time":18.874999999999993,"velocity":0.8031496062992126,"duration":0.8867187500000071},{"name":"D4","midi":62,"time":19.09895833333333,"velocity":0.8031496062992126,"duration":0.22135416666666785},{"name":"C4","midi":60,"time":19.322916666666664,"velocity":0.8031496062992126,"duration":0.22135416666666785},{"name":"E5","midi":76,"time":19.322916666666664,"velocity":0.8031496062992126,"duration":0.44531250000000355},{"name":"B3","midi":59,"time":19.546875,"velocity":0.8031496062992126,"duration":0.22135416666666785},{"name":"A3","midi":57,"time":19.770833333333336,"velocity":0.8031496062992126,"duration":0.22135416666666785},{"name":"C5","midi":72,"time":19.770833333333336,"velocity":0.8031496062992126,"duration":1.096354166666675},{"name":"G3","midi":55,"time":19.99479166666667,"velocity":0.8031496062992126,"duration":0.22135416666666785},{"name":"F#3","midi":54,"time":20.218750000000007,"velocity":0.8031496062992126,"duration":0.22135416666666785},{"name":"A4","midi":69,"time":20.218750000000007,"velocity":0.8031496062992126,"duration":0.44531250000000355},{"name":"E3","midi":52,"time":20.442708333333343,"velocity":0.8031496062992126,"duration":0.22135416666666785},{"name":"D3","midi":50,"time":20.66666666666668,"velocity":0.8031496062992126,"duration":0.2213541666666643},{"name":"F#5","midi":78,"time":20.66666666666668,"velocity":0.8031496062992126,"duration":1.3411458333333428},{"name":"C4","midi":60,"time":20.89062500000001,"velocity":0.8031496062992126,"duration":0.22135416666666785},{"name":"E5","midi":76,"time":20.89062500000001,"velocity":0.8031496062992126,"duration":0.22135416666666785},{"name":"B3","midi":59,"time":21.114583333333346,"velocity":0.8031496062992126,"duration":0.22135416666666785},{"name":"D5","midi":74,"time":21.114583333333346,"velocity":0.8031496062992126,"duration":0.22135416666666785},{"name":"A3","midi":57,"time":21.338541666666682,"velocity":0.8031496062992126,"duration":0.22135416666666785},{"name":"C5","midi":72,"time":21.338541666666682,"velocity":0.8031496062992126,"duration":0.22135416666666785},{"name":"D4","midi":62,"time":21.562500000000018,"velocity":0.8031496062992126,"duration":0.22135416666666785},{"name":"B4","midi":71,"time":21.562500000000018,"velocity":0.8031496062992126,"duration":0.8867187500000071},{"name":"C4","midi":60,"time":21.786458333333353,"velocity":0.8031496062992126,"duration":0.22135416666666785},{"name":"B3","midi":59,"time":22.01041666666669,"velocity":0.8031496062992126,"duration":0.22135416666666785},{"name":"D5","midi":74,"time":22.01041666666669,"velocity":0.8031496062992126,"duration":0.44531250000000355},{"name":"A3","midi":57,"time":22.234375000000025,"velocity":0.8031496062992126,"duration":0.22135416666666785},{"name":"G3","midi":55,"time":22.45833333333336,"velocity":0.8031496062992126,"duration":0.22135416666666785},{"name":"B4","midi":71,"time":22.45833333333336,"velocity":0.8031496062992126,"duration":1.096354166666675},{"name":"F#3","midi":54,"time":22.682291666666696,"velocity":0.8031496062992126,"duration":0.22135416666666785},{"name":"E3","midi":52,"time":22.906250000000032,"velocity":0.8031496062992126,"duration":0.22135416666666785},{"name":"G4","midi":67,"time":22.906250000000032,"velocity":0.8031496062992126,"duration":0.44531250000000355},{"name":"D3","midi":50,"time":23.130208333333368,"velocity":0.8031496062992126,"duration":0.22135416666666785},{"name":"C3","midi":48,"time":23.354166666666703,"velocity":0.8031496062992126,"duration":0.2213541666666643},{"name":"E5","midi":76,"time":23.354166666666703,"velocity":0.8031496062992126,"duration":1.3411458333333428},{"name":"B3","midi":59,"time":23.578125000000036,"velocity":0.8031496062992126,"duration":0.22135416666666785},{"name":"D5","midi":74,"time":23.578125000000036,"velocity":0.8031496062992126,"duration":0.22135416666666785},{"name":"A3","midi":57,"time":23.80208333333337,"velocity":0.8031496062992126,"duration":0.22135416666666785},{"name":"C5","midi":72,"time":23.80208333333337,"velocity":0.8031496062992126,"duration":0.22135416666666785},{"name":"G3","midi":55,"time":24.026041666666707,"velocity":0.8031496062992126,"duration":0.22135416666666785},{"name":"B4","midi":71,"time":24.026041666666707,"velocity":0.8031496062992126,"duration":0.22135416666666785},{"name":"C4","midi":60,"time":24.250000000000043,"velocity":0.8031496062992126,"duration":0.22135416666666785},{"name":"A4","midi":69,"time":24.250000000000043,"velocity":0.8031496062992126,"duration":0.8867187500000071},{"name":"B3","midi":59,"time":24.47395833333338,"velocity":0.8031496062992126,"duration":0.22135416666666785},{"name":"A3","midi":57,"time":24.697916666666714,"velocity":0.8031496062992126,"duration":0.22135416666666785},{"name":"C5","midi":72,"time":24.697916666666714,"velocity":0.8031496062992126,"duration":0.44531250000000355},{"name":"G3","midi":55,"time":24.92187500000005,"velocity":0.8031496062992126,"duration":0.22135416666666785},{"name":"F#3","midi":54,"time":25.145833333333385,"velocity":0.8031496062992126,"duration":0.22135416666666785},{"name":"A4","midi":69,"time":25.145833333333385,"velocity":0.8031496062992126,"duration":1.096354166666675},{"name":"E3","midi":52,"time":25.36979166666672,"velocity":0.8031496062992126,"duration":0.22135416666666785},{"name":"D#3","midi":51,"time":25.593750000000057,"velocity":0.8031496062992126,"duration":0.22135416666666785},{"name":"F#4","midi":66,"time":25.593750000000057,"velocity":0.8031496062992126,"duration":0.44531250000000355},{"name":"C#3","midi":49,"time":25.817708333333393,"velocity":0.8031496062992126,"duration":0.22135416666666785},{"name":"B2","midi":47,"time":26.04166666666673,"velocity":0.8031496062992126,"duration":0.2213541666666643},{"name":"D#5","midi":75,"time":26.04166666666673,"velocity":0.8031496062992126,"duration":0.8932291666666714},{"name":"A3","midi":57,"time":26.26562500000006,"velocity":0.8031496062992126,"duration":0.22135416666666785},{"name":"C5","midi":72,"time":26.26562500000006,"velocity":0.8031496062992126,"duration":0.22135416666666785},{"name":"G3","midi":55,"time":26.489583333333396,"velocity":0.8031496062992126,"duration":0.22135416666666785},{"name":"B4","midi":71,"time":26.489583333333396,"velocity":0.8031496062992126,"duration":0.22135416666666785},{"name":"F#3","midi":54,"time":26.713541666666732,"velocity":0.8031496062992126,"duration":0.22135416666666785},{"name":"A4","midi":69,"time":26.713541666666732,"velocity":0.8031496062992126,"duration":0.22135416666666785},{"name":"E3","midi":52,"time":26.937500000000068,"velocity":0.8031496062992126,"duration":0.6692708333333393},{"name":"G4","midi":67,"time":26.937500000000068,"velocity":0.8031496062992126,"duration":0.22135416666666785},{"name":"E5","midi":76,"time":26.937500000000068,"velocity":0.8031496062992126,"duration":1.1197916666666785},{"name":"A4","midi":69,"time":27.161458333333403,"velocity":0.8031496062992126,"duration":0.22135416666666785},{"name":"G4","midi":67,"time":27.38541666666674,"velocity":0.8031496062992126,"duration":0.22135416666666785},{"name":"D#3","midi":51,"time":27.609375000000075,"velocity":0.8031496062992126,"duration":0.22135416666666785},{"name":"F#4","midi":66,"time":27.609375000000075,"velocity":0.8031496062992126,"duration":0.22135416666666785},{"name":"E3","midi":52,"time":27.83333333333341,"velocity":0.8031496062992126,"duration":0.22135416666666785},{"name":"E4","midi":64,"time":27.83333333333341,"velocity":0.8031496062992126,"duration":0.22135416666666785},{"name":"F#3","midi":54,"time":28.057291666666746,"velocity":0.8031496062992126,"duration":0.22135416666666785},{"name":"D#4","midi":63,"time":28.057291666666746,"velocity":0.8031496062992126,"duration":0.22135416666666785},{"name":"G3","midi":55,"time":28.28125000000008,"velocity":0.8031496062992126,"duration":0.22135416666666785},{"name":"E4","midi":64,"time":28.28125000000008,"velocity":0.8031496062992126,"duration":0.22135416666666785},{"name":"A3","midi":57,"time":28.505208333333417,"velocity":0.8031496062992126,"duration":0.22135416666666785},{"name":"F#4","midi":66,"time":28.505208333333417,"velocity":0.8031496062992126,"duration":0.22135416666666785},{"name":"B3","midi":59,"time":28.729166666666753,"velocity":0.8031496062992126,"duration":0.44531250000000355},{"name":"G4","midi":67,"time":28.729166666666753,"velocity":0.8031496062992126,"duration":0.22135416666666785},{"name":"E5","midi":76,"time":28.729166666666753,"velocity":0.8031496062992126,"duration":1.7890625000000178},{"name":"A4","midi":69,"time":28.95312500000009,"velocity":0.8031496062992126,"duration":0.22135416666666785},{"name":"E3","midi":52,"time":29.177083333333425,"velocity":0.8031496062992126,"duration":0.44531250000000355},{"name":"B4","midi":71,"time":29.177083333333425,"velocity":0.8031496062992126,"duration":0.22135416666666785},{"name":"G4","midi":67,"time":29.40104166666676,"velocity":0.8031496062992126,"duration":0.22135416666666785},{"name":"A3","midi":57,"time":29.625000000000096,"velocity":0.8031496062992126,"duration":0.44531250000000355},{"name":"C5","midi":72,"time":29.625000000000096,"velocity":0.8031496062992126,"duration":0.22135416666666785},{"name":"B4","midi":71,"time":29.84895833333343,"velocity":0.8031496062992126,"duration":0.22135416666666785},{"name":"F#3","midi":54,"time":30.072916666666767,"velocity":0.8031496062992126,"duration":0.44531250000000355},{"name":"A4","midi":69,"time":30.072916666666767,"velocity":0.8031496062992126,"duration":0.22135416666666785},{"name":"G4","midi":67,"time":30.296875000000103,"velocity":0.8031496062992126,"duration":0.22135416666666785},{"name":"B3","midi":59,"time":30.52083333333344,"velocity":0.8031496062992126,"duration":0.8867187500000071},{"name":"F#4","midi":66,"time":30.52083333333344,"velocity":0.8031496062992126,"duration":0.22135416666666785},{"name":"D5","midi":74,"time":30.52083333333344,"velocity":0.8031496062992126,"duration":0.44531250000000355},{"name":"E4","midi":64,"time":30.744791666666774,"velocity":0.8031496062992126,"duration":0.22135416666666785},{"name":"D4","midi":62,"time":30.96875000000011,"velocity":0.8031496062992126,"duration":0.22135416666666785},{"name":"C5","midi":72,"time":30.96875000000011,"velocity":0.8031496062992126,"duration":0.44531250000000355},{"name":"C4","midi":60,"time":31.192708333333446,"velocity":0.8031496062992126,"duration":0.22135416666666785},{"name":"B3","midi":59,"time":31.41666666666678,"velocity":0.8031496062992126,"duration":0.22135416666666785},{"name":"D5","midi":74,"time":31.41666666666678,"velocity":0.8031496062992126,"duration":1.1171874999999964},{"name":"A4","midi":69,"time":31.640625000000117,"velocity":0.8031496062992126,"duration":0.22135416666666785},{"name":"A3","midi":57,"time":31.864583333333453,"velocity":0.8031496062992126,"duration":0.44531249999999645},{"name":"G#4","midi":68,"time":31.864583333333453,"velocity":0.8031496062992126,"duration":0.22135416666666785},{"name":"F#4","midi":66,"time":32.088541666666785,"velocity":0.8031496062992126,"duration":0.2213541666666643},{"name":"G#3","midi":56,"time":32.312500000000114,"velocity":0.8031496062992126,"duration":0.4453124999999929},{"name":"E4","midi":64,"time":32.312500000000114,"velocity":0.8031496062992126,"duration":2.684895833333279},{"name":"D5","midi":74,"time":32.53645833333344,"velocity":0.8031496062992126,"duration":0.2213541666666643},{"name":"A3","midi":57,"time":32.76041666666677,"velocity":0.8031496062992126,"duration":0.2213541666666643},{"name":"C5","midi":72,"time":32.76041666666677,"velocity":0.8031496062992126,"duration":0.2213541666666643},{"name":"B3","midi":59,"time":32.9843750000001,"velocity":0.8031496062992126,"duration":0.2213541666666643},{"name":"B4","midi":71,"time":32.9843750000001,"velocity":0.8031496062992126,"duration":0.2213541666666643},{"name":"C4","midi":60,"time":33.20833333333343,"velocity":0.8031496062992126,"duration":0.4453124999999929},{"name":"A4","midi":69,"time":33.20833333333343,"velocity":0.8031496062992126,"duration":0.2213541666666643},{"name":"G#4","midi":68,"time":33.43229166666676,"velocity":0.8031496062992126,"duration":0.2213541666666643},{"name":"B3","midi":59,"time":33.656250000000085,"velocity":0.8031496062992126,"duration":0.4453124999999929},{"name":"A4","midi":69,"time":33.656250000000085,"velocity":0.8031496062992126,"duration":0.2213541666666643},{"name":"B4","midi":71,"time":33.880208333333414,"velocity":0.8031496062992126,"duration":0.2213541666666643},{"name":"A3","midi":57,"time":34.10416666666674,"velocity":0.8031496062992126,"duration":0.4453124999999929},{"name":"C5","midi":72,"time":34.10416666666674,"velocity":0.8031496062992126,"duration":0.2213541666666643},{"name":"D5","midi":74,"time":34.32812500000007,"velocity":0.8031496062992126,"duration":0.2213541666666643},{"name":"C4","midi":60,"time":34.5520833333334,"velocity":0.8031496062992126,"duration":0.8932291666666501},{"name":"E5","midi":76,"time":34.5520833333334,"velocity":0.8031496062992126,"duration":0.2213541666666643},{"name":"C5","midi":72,"time":34.77604166666673,"velocity":0.8031496062992126,"duration":0.2213541666666643},{"name":"D4","midi":62,"time":35.00000000000006,"velocity":0.8031496062992126,"duration":2.684895833333279},{"name":"F5","midi":77,"time":35.00000000000006,"velocity":0.8031496062992126,"duration":0.2213541666666643},{"name":"E5","midi":76,"time":35.223958333333385,"velocity":0.8031496062992126,"duration":0.2213541666666643},{"name":"B3","midi":59,"time":35.447916666666714,"velocity":0.8031496062992126,"duration":0.2213541666666643},{"name":"D5","midi":74,"time":35.447916666666714,"velocity":0.8031496062992126,"duration":0.2213541666666643},{"name":"A3","midi":57,"time":35.67187500000004,"velocity":0.8031496062992126,"duration":0.2213541666666643},{"name":"C5","midi":72,"time":35.67187500000004,"velocity":0.8031496062992126,"duration":0.2213541666666643},{"name":"G#3","midi":56,"time":35.89583333333337,"velocity":0.8031496062992126,"duration":0.4453124999999929},{"name":"B4","midi":71,"time":35.89583333333337,"velocity":0.8031496062992126,"duration":0.2213541666666643},{"name":"A4","midi":69,"time":36.1197916666667,"velocity":0.8031496062992126,"duration":0.2213541666666643},{"name":"B3","midi":59,"time":36.34375000000003,"velocity":0.8031496062992126,"duration":0.4453124999999929},{"name":"G#4","midi":68,"time":36.34375000000003,"velocity":0.8031496062992126,"duration":0.2213541666666643},{"name":"F#4","midi":66,"time":36.56770833333336,"velocity":0.8031496062992126,"duration":0.2213541666666643},{"name":"G#3","midi":56,"time":36.791666666666686,"velocity":0.8031496062992126,"duration":0.4453124999999929},{"name":"E4","midi":64,"time":36.791666666666686,"velocity":0.8031496062992126,"duration":0.2213541666666643},{"name":"D5","midi":74,"time":37.015625000000014,"velocity":0.8031496062992126,"duration":0.2213541666666643},{"name":"E3","midi":52,"time":37.23958333333334,"velocity":0.8031496062992126,"duration":0.4453124999999929},{"name":"C5","midi":72,"time":37.23958333333334,"velocity":0.8031496062992126,"duration":0.2213541666666643},{"name":"B4","midi":71,"time":37.46354166666667,"velocity":0.8031496062992126,"duration":0.2213541666666643},{"name":"F#3","midi":54,"time":37.6875,"velocity":0.8031496062992126,"duration":0.4453124999999929},{"name":"C4","midi":60,"time":37.6875,"velocity":0.8031496062992126,"duration":0.4453124999999929},{"name":"A4","midi":69,"time":37.6875,"velocity":0.8031496062992126,"duration":0.2213541666666643},{"name":"G#4","midi":68,"time":37.91145833333333,"velocity":0.8031496062992126,"duration":0.2213541666666643},{"name":"G#3","midi":56,"time":38.13541666666666,"velocity":0.8031496062992126,"duration":0.4453124999999929},{"name":"B3","midi":59,"time":38.13541666666666,"velocity":0.8031496062992126,"duration":0.4453124999999929},{"name":"A4","midi":69,"time":38.13541666666666,"velocity":0.8031496062992126,"duration":0.2213541666666643},{"name":"B4","midi":71,"time":38.359374999999986,"velocity":0.8031496062992126,"duration":0.2213541666666643},{"name":"A3","midi":57,"time":38.583333333333314,"velocity":0.8031496062992126,"duration":0.4453124999999929},{"name":"C5","midi":72,"time":38.583333333333314,"velocity":0.8031496062992126,"duration":0.2213541666666643},{"name":"D5","midi":74,"time":38.80729166666664,"velocity":0.8031496062992126,"duration":0.2213541666666643},{"name":"D#3","midi":51,"time":39.03124999999997,"velocity":0.8031496062992126,"duration":0.4453124999999929},{"name":"C4","midi":60,"time":39.03124999999997,"velocity":0.8031496062992126,"duration":0.4453124999999929},{"name":"E5","midi":76,"time":39.03124999999997,"velocity":0.8031496062992126,"duration":0.2213541666666643},{"name":"F#5","midi":78,"time":39.2552083333333,"velocity":0.8031496062992126,"duration":0.2213541666666643},{"name":"E3","midi":52,"time":39.47916666666663,"velocity":0.8031496062992126,"duration":0.4453124999999929},{"name":"B3","midi":59,"time":39.47916666666663,"velocity":0.8031496062992126,"duration":0.4453124999999929},{"name":"G5","midi":79,"time":39.47916666666663,"velocity":0.8031496062992126,"duration":0.2213541666666643},{"name":"A5","midi":81,"time":39.70312499999996,"velocity":0.8031496062992126,"duration":0.2213541666666643},{"name":"G3","midi":55,"time":39.927083333333286,"velocity":0.8031496062992126,"duration":0.4453124999999929},{"name":"E4","midi":64,"time":39.927083333333286,"velocity":0.8031496062992126,"duration":0.8932291666666501},{"name":"B5","midi":83,"time":39.927083333333286,"velocity":0.8031496062992126,"duration":0.2213541666666643},{"name":"G5","midi":79,"time":40.151041666666615,"velocity":0.8031496062992126,"duration":0.2213541666666643},{"name":"A3","midi":57,"time":40.37499999999994,"velocity":0.8031496062992126,"duration":0.8867187499999858},{"name":"C6","midi":84,"time":40.37499999999994,"velocity":0.8031496062992126,"duration":0.2213541666666643},{"name":"B5","midi":83,"time":40.59895833333327,"velocity":0.8031496062992126,"duration":0.2213541666666643},{"name":"C4","midi":60,"time":40.8229166666666,"velocity":0.8031496062992126,"duration":0.4453124999999929},{"name":"A5","midi":81,"time":40.8229166666666,"velocity":0.8031496062992126,"duration":0.2213541666666643},{"name":"G5","midi":79,"time":41.04687499999993,"velocity":0.8031496062992126,"duration":0.2213541666666643},{"name":"A3","midi":57,"time":41.27083333333326,"velocity":0.8031496062992126,"duration":1.09635416666665},{"name":"F#5","midi":78,"time":41.27083333333326,"velocity":0.8031496062992126,"duration":0.2213541666666643},{"name":"E5","midi":76,"time":41.494791666666586,"velocity":0.8031496062992126,"duration":0.2213541666666643},{"name":"F#3","midi":54,"time":41.718749999999915,"velocity":0.8031496062992126,"duration":0.4453124999999929},{"name":"D#5","midi":75,"time":41.718749999999915,"velocity":0.8031496062992126,"duration":0.2213541666666643},{"name":"C#5","midi":73,"time":41.94270833333324,"velocity":0.8031496062992126,"duration":0.2213541666666643},{"name":"D#4","midi":63,"time":42.16666666666657,"velocity":0.8031496062992126,"duration":1.3411458333333144},{"name":"B4","midi":71,"time":42.16666666666657,"velocity":0.8031496062992126,"duration":0.2213541666666714},{"name":"C4","midi":60,"time":42.39062499999991,"velocity":0.8031496062992126,"duration":0.2213541666666643},{"name":"A5","midi":81,"time":42.39062499999991,"velocity":0.8031496062992126,"duration":0.2213541666666643},{"name":"B3","midi":59,"time":42.614583333333236,"velocity":0.8031496062992126,"duration":0.2213541666666643},{"name":"G5","midi":79,"time":42.614583333333236,"velocity":0.8031496062992126,"duration":0.2213541666666643},{"name":"A3","midi":57,"time":42.838541666666565,"velocity":0.8031496062992126,"duration":0.2213541666666643},{"name":"F#5","midi":78,"time":42.838541666666565,"velocity":0.8031496062992126,"duration":0.2213541666666643},{"name":"G3","midi":55,"time":43.06249999999989,"velocity":0.8031496062992126,"duration":0.8867187499999858},{"name":"B5","midi":83,"time":43.06249999999989,"velocity":0.8031496062992126,"duration":0.2213541666666643},{"name":"A5","midi":81,"time":43.28645833333322,"velocity":0.8031496062992126,"duration":0.2213541666666643},{"name":"B3","midi":59,"time":43.51041666666655,"velocity":0.8031496062992126,"duration":0.4453124999999929},{"name":"G5","midi":79,"time":43.51041666666655,"velocity":0.8031496062992126,"duration":0.2213541666666643},{"name":"F#5","midi":78,"time":43.73437499999988,"velocity":0.8031496062992126,"duration":0.2213541666666643},{"name":"G3","midi":55,"time":43.95833333333321,"velocity":0.8031496062992126,"duration":1.09635416666665},{"name":"E5","midi":76,"time":43.95833333333321,"velocity":0.8031496062992126,"duration":0.2213541666666643},{"name":"D5","midi":74,"time":44.182291666666536,"velocity":0.8031496062992126,"duration":0.2213541666666643},{"name":"E3","midi":52,"time":44.406249999999865,"velocity":0.8031496062992126,"duration":0.4453124999999929},{"name":"C#5","midi":73,"time":44.406249999999865,"velocity":0.8031496062992126,"duration":0.2213541666666643},{"name":"B4","midi":71,"time":44.630208333333194,"velocity":0.8031496062992126,"duration":0.2213541666666643},{"name":"C#4","midi":61,"time":44.85416666666652,"velocity":0.8031496062992126,"duration":1.3411458333333144},{"name":"A4","midi":69,"time":44.85416666666652,"velocity":0.8031496062992126,"duration":0.2213541666666714},{"name":"B3","midi":59,"time":45.07812499999986,"velocity":0.8031496062992126,"duration":0.2213541666666643},{"name":"G5","midi":79,"time":45.07812499999986,"velocity":0.8031496062992126,"duration":0.2213541666666643},{"name":"A3","midi":57,"time":45.30208333333319,"velocity":0.8031496062992126,"duration":0.2213541666666643},{"name":"F#5","midi":78,"time":45.30208333333319,"velocity":0.8031496062992126,"duration":0.2213541666666643},{"name":"G3","midi":55,"time":45.526041666666515,"velocity":0.8031496062992126,"duration":0.2213541666666643},{"name":"E5","midi":76,"time":45.526041666666515,"velocity":0.8031496062992126,"duration":0.2213541666666643},{"name":"F#3","midi":54,"time":45.749999999999844,"velocity":0.8031496062992126,"duration":0.8867187499999858},{"name":"A5","midi":81,"time":45.749999999999844,"velocity":0.8031496062992126,"duration":0.2213541666666643},{"name":"G5","midi":79,"time":45.97395833333317,"velocity":0.8031496062992126,"duration":0.2213541666666643},{"name":"A3","midi":57,"time":46.1979166666665,"velocity":0.8031496062992126,"duration":0.4453124999999929},{"name":"F#5","midi":78,"time":46.1979166666665,"velocity":0.8031496062992126,"duration":0.2213541666666643},{"name":"E5","midi":76,"time":46.42187499999983,"velocity":0.8031496062992126,"duration":0.2213541666666643},{"name":"F#3","midi":54,"time":46.64583333333316,"velocity":0.8031496062992126,"duration":1.09635416666665},{"name":"D5","midi":74,"time":46.64583333333316,"velocity":0.8031496062992126,"duration":0.2213541666666643},{"name":"C#5","midi":73,"time":46.86979166666649,"velocity":0.8031496062992126,"duration":0.2213541666666643},{"name":"D3","midi":50,"time":47.093749999999815,"velocity":0.8031496062992126,"duration":0.4453124999999929},{"name":"B4","midi":71,"time":47.093749999999815,"velocity":0.8031496062992126,"duration":0.2213541666666643},{"name":"A4","midi":69,"time":47.317708333333144,"velocity":0.8031496062992126,"duration":0.2213541666666643},{"name":"B3","midi":59,"time":47.54166666666647,"velocity":0.8031496062992126,"duration":1.3411458333333144},{"name":"G4","midi":67,"time":47.54166666666647,"velocity":0.8031496062992126,"duration":0.2213541666666714},{"name":"A3","midi":57,"time":47.76562499999981,"velocity":0.8031496062992126,"duration":0.2213541666666643},{"name":"F#5","midi":78,"time":47.76562499999981,"velocity":0.8031496062992126,"duration":0.2213541666666643},{"name":"G3","midi":55,"time":47.98958333333314,"velocity":0.8031496062992126,"duration":0.2213541666666643},{"name":"E5","midi":76,"time":47.98958333333314,"velocity":0.8031496062992126,"duration":0.2213541666666643},{"name":"F#3","midi":54,"time":48.213541666666465,"velocity":0.8031496062992126,"duration":0.2213541666666643},{"name":"D5","midi":74,"time":48.213541666666465,"velocity":0.8031496062992126,"duration":0.2213541666666643},{"name":"E3","midi":52,"time":48.437499999999794,"velocity":0.8031496062992126,"duration":0.8867187499999858},{"name":"G5","midi":79,"time":48.437499999999794,"velocity":0.8031496062992126,"duration":0.2213541666666643},{"name":"F#5","midi":78,"time":48.66145833333312,"velocity":0.8031496062992126,"duration":0.2213541666666643},{"name":"G3","midi":55,"time":48.88541666666645,"velocity":0.8031496062992126,"duration":0.4453124999999929},{"name":"E5","midi":76,"time":48.88541666666645,"velocity":0.8031496062992126,"duration":0.2213541666666643},{"name":"D5","midi":74,"time":49.10937499999978,"velocity":0.8031496062992126,"duration":0.2213541666666643},{"name":"E3","midi":52,"time":49.33333333333311,"velocity":0.8031496062992126,"duration":1.09635416666665},{"name":"C#5","midi":73,"time":49.33333333333311,"velocity":0.8031496062992126,"duration":0.2213541666666643},{"name":"B4","midi":71,"time":49.55729166666644,"velocity":0.8031496062992126,"duration":0.2213541666666643},{"name":"C#3","midi":49,"time":49.781249999999766,"velocity":0.8031496062992126,"duration":0.4453124999999929},{"name":"A#4","midi":70,"time":49.781249999999766,"velocity":0.8031496062992126,"duration":0.2213541666666643},{"name":"G#4","midi":68,"time":50.005208333333094,"velocity":0.8031496062992126,"duration":0.2213541666666643},{"name":"A#3","midi":58,"time":50.22916666666642,"velocity":0.8031496062992126,"duration":0.8932291666666572},{"name":"F#4","midi":66,"time":50.22916666666642,"velocity":0.8031496062992126,"duration":0.2213541666666714},{"name":"G3","midi":55,"time":50.45312499999976,"velocity":0.8031496062992126,"duration":0.2213541666666643},{"name":"E5","midi":76,"time":50.45312499999976,"velocity":0.8031496062992126,"duration":0.2213541666666643},{"name":"F#3","midi":54,"time":50.67708333333309,"velocity":0.8031496062992126,"duration":0.2213541666666643},{"name":"D5","midi":74,"time":50.67708333333309,"velocity":0.8031496062992126,"duration":0.2213541666666643},{"name":"E3","midi":52,"time":50.901041666666416,"velocity":0.8031496062992126,"duration":0.2213541666666643},{"name":"C#5","midi":73,"time":50.901041666666416,"velocity":0.8031496062992126,"duration":0.2213541666666643},{"name":"D3","midi":50,"time":51.124999999999744,"velocity":0.8031496062992126,"duration":0.8932291666666501},{"name":"B3","midi":59,"time":51.124999999999744,"velocity":0.8031496062992126,"duration":1.1171874999999787},{"name":"F#5","midi":78,"time":51.124999999999744,"velocity":0.8031496062992126,"duration":0.2213541666666643},{"name":"E5","midi":76,"time":51.34895833333307,"velocity":0.8031496062992126,"duration":0.2213541666666643},{"name":"D5","midi":74,"time":51.5729166666664,"velocity":0.8031496062992126,"duration":0.2213541666666643},{"name":"C#5","midi":73,"time":51.79687499999973,"velocity":0.8031496062992126,"duration":0.2213541666666643},{"name":"G3","midi":55,"time":52.02083333333306,"velocity":0.8031496062992126,"duration":0.8932291666666501},{"name":"B4","midi":71,"time":52.02083333333306,"velocity":0.8031496062992126,"duration":3.5807291666665932},{"name":"A#3","midi":58,"time":52.24479166666639,"velocity":0.8031496062992126,"duration":0.2213541666666643},{"name":"B3","midi":59,"time":52.468749999999716,"velocity":0.8031496062992126,"duration":0.2213541666666643},{"name":"C#4","midi":61,"time":52.692708333333044,"velocity":0.8031496062992126,"duration":0.2213541666666643},{"name":"F#3","midi":54,"time":52.91666666666637,"velocity":0.8031496062992126,"duration":0.8932291666666501},{"name":"D4","midi":62,"time":52.91666666666637,"velocity":0.8031496062992126,"duration":0.2213541666666643},{"name":"E4","midi":64,"time":53.1406249999997,"velocity":0.8031496062992126,"duration":0.2213541666666643},{"name":"F#4","midi":66,"time":53.36458333333303,"velocity":0.8031496062992126,"duration":0.2213541666666643},{"name":"D4","midi":62,"time":53.58854166666636,"velocity":0.8031496062992126,"duration":0.2213541666666643},{"name":"E3","midi":52,"time":53.81249999999969,"velocity":0.8031496062992126,"duration":0.8932291666666501},{"name":"G4","midi":67,"time":53.81249999999969,"velocity":0.8031496062992126,"duration":0.2213541666666643},{"name":"F#4","midi":66,"time":54.036458333333016,"velocity":0.8031496062992126,"duration":0.2213541666666643},{"name":"E4","midi":64,"time":54.260416666666345,"velocity":0.8031496062992126,"duration":0.2213541666666643},{"name":"D4","midi":62,"time":54.48437499999967,"velocity":0.8031496062992126,"duration":0.2213541666666643},{"name":"F#3","midi":54,"time":54.708333333333,"velocity":0.8031496062992126,"duration":0.8932291666666501},{"name":"C#4","midi":61,"time":54.708333333333,"velocity":0.8031496062992126,"duration":0.2213541666666643},{"name":"B3","midi":59,"time":54.93229166666633,"velocity":0.8031496062992126,"duration":0.2213541666666643},{"name":"A#3","midi":58,"time":55.15624999999966,"velocity":0.8031496062992126,"duration":0.2213541666666643},{"name":"G#3","midi":56,"time":55.38020833333299,"velocity":0.8031496062992126,"duration":0.2213541666666643},{"name":"F#2","midi":42,"time":55.604166666666316,"velocity":0.8031496062992126,"duration":0.8932291666666501},{"name":"F#3","midi":54,"time":55.604166666666316,"velocity":0.8031496062992126,"duration":0.2213541666666643},{"name":"A#4","midi":70,"time":55.604166666666316,"velocity":0.8031496062992126,"duration":0.8932291666666501},{"name":"E4","midi":64,"time":55.828124999999645,"velocity":0.8031496062992126,"duration":0.2213541666666643},{"name":"D4","midi":62,"time":56.05208333333297,"velocity":0.8031496062992126,"duration":0.2213541666666643},{"name":"C#4","midi":61,"time":56.2760416666663,"velocity":0.8031496062992126,"duration":0.2213541666666643},{"name":"B2","midi":47,"time":56.49999999999963,"velocity":0.8031496062992126,"duration":1.1171874999999787},{"name":"D4","midi":62,"time":56.49999999999963,"velocity":0.8031496062992126,"duration":0.2213541666666643},{"name":"B4","midi":71,"time":56.49999999999963,"velocity":0.8031496062992126,"duration":0.8867187499999858},{"name":"F#4","midi":66,"time":56.72395833333296,"velocity":0.8031496062992126,"duration":0.2213541666666643},{"name":"G#4","midi":68,"time":56.94791666666629,"velocity":0.8031496062992126,"duration":0.2213541666666643},{"name":"A#4","midi":70,"time":57.171874999999616,"velocity":0.8031496062992126,"duration":0.2213541666666643},{"name":"B4","midi":71,"time":57.395833333332945,"velocity":0.8031496062992126,"duration":0.4453124999999929},{"name":"A2","midi":45,"time":57.61979166666627,"velocity":0.8031496062992126,"duration":0.2213541666666643},{"name":"B2","midi":47,"time":57.8437499999996,"velocity":0.8031496062992126,"duration":0.2213541666666643},{"name":"C5","midi":72,"time":57.8437499999996,"velocity":0.8031496062992126,"duration":0.4453124999999929},{"name":"E5","midi":76,"time":57.8437499999996,"velocity":0.8031496062992126,"duration":0.4453124999999929},{"name":"C3","midi":48,"time":58.06770833333293,"velocity":0.8031496062992126,"duration":0.2213541666666643},{"name":"D3","midi":50,"time":58.29166666666626,"velocity":0.8031496062992126,"duration":0.2213541666666643},{"name":"B4","midi":71,"time":58.29166666666626,"velocity":0.8031496062992126,"duration":0.4453124999999929},{"name":"D5","midi":74,"time":58.29166666666626,"velocity":0.8031496062992126,"duration":0.4453124999999929},{"name":"E3","midi":52,"time":58.51562499999959,"velocity":0.8031496062992126,"duration":0.2213541666666643},{"name":"F3","midi":53,"time":58.73958333333292,"velocity":0.8031496062992126,"duration":0.2213541666666643},{"name":"A4","midi":69,"time":58.73958333333292,"velocity":0.8031496062992126,"duration":0.4453124999999929},{"name":"C5","midi":72,"time":58.73958333333292,"velocity":0.8031496062992126,"duration":0.4453124999999929},{"name":"C3","midi":48,"time":58.963541666666245,"velocity":0.8031496062992126,"duration":0.2213541666666643},{"name":"D3","midi":50,"time":59.187499999999574,"velocity":0.8031496062992126,"duration":0.2213541666666643},{"name":"G#4","midi":68,"time":59.187499999999574,"velocity":0.8031496062992126,"duration":2.9088541666666075},{"name":"B4","midi":71,"time":59.187499999999574,"velocity":0.8031496062992126,"duration":0.4453124999999929},{"name":"E3","midi":52,"time":59.4114583333329,"velocity":0.8031496062992126,"duration":0.2213541666666643},{"name":"D3","midi":50,"time":59.63541666666623,"velocity":0.8031496062992126,"duration":0.2213541666666643},{"name":"F5","midi":77,"time":59.63541666666623,"velocity":0.8031496062992126,"duration":0.4453124999999929},{"name":"C3","midi":48,"time":59.85937499999956,"velocity":0.8031496062992126,"duration":0.2213541666666643},{"name":"B2","midi":47,"time":60.08333333333289,"velocity":0.8031496062992126,"duration":0.2213541666666643},{"name":"E5","midi":76,"time":60.08333333333289,"velocity":0.8031496062992126,"duration":0.4453124999999929},{"name":"A2","midi":45,"time":60.30729166666622,"velocity":0.8031496062992126,"duration":0.2213541666666643},{"name":"G#2","midi":44,"time":60.531249999999545,"velocity":0.8031496062992126,"duration":0.2213541666666643},{"name":"D5","midi":74,"time":60.531249999999545,"velocity":0.8031496062992126,"duration":0.4453124999999929},{"name":"F#2","midi":42,"time":60.755208333332874,"velocity":0.8031496062992126,"duration":0.2213541666666643},{"name":"E2","midi":40,"time":60.9791666666662,"velocity":0.8031496062992126,"duration":0.2213541666666643},{"name":"C5","midi":72,"time":60.9791666666662,"velocity":0.8031496062992126,"duration":0.4453124999999929},{"name":"D3","midi":50,"time":61.20312499999953,"velocity":0.8031496062992126,"duration":0.2213541666666643},{"name":"C3","midi":48,"time":61.42708333333286,"velocity":0.8031496062992126,"duration":0.2213541666666643},{"name":"B4","midi":71,"time":61.42708333333286,"velocity":0.8031496062992126,"duration":0.4453124999999929},{"name":"B2","midi":47,"time":61.65104166666619,"velocity":0.8031496062992126,"duration":0.2213541666666643},{"name":"A2","midi":45,"time":61.87499999999952,"velocity":0.8031496062992126,"duration":1.1171874999999787},{"name":"C5","midi":72,"time":61.87499999999952,"velocity":0.8031496062992126,"duration":1.3411458333333073},{"name":"E4","midi":64,"time":62.098958333332845,"velocity":0.8031496062992126,"duration":0.2213541666666643},{"name":"F#4","midi":66,"time":62.322916666666174,"velocity":0.8031496062992126,"duration":0.2213541666666643},{"name":"G#4","midi":68,"time":62.5468749999995,"velocity":0.8031496062992126,"duration":0.2213541666666643},{"name":"A4","midi":69,"time":62.77083333333283,"velocity":0.8031496062992126,"duration":0.4453124999999929},{"name":"G2","midi":43,"time":62.99479166666616,"velocity":0.8031496062992126,"duration":0.2213541666666643},{"name":"A2","midi":45,"time":63.21874999999949,"velocity":0.8031496062992126,"duration":0.2213541666666643},{"name":"B4","midi":71,"time":63.21874999999949,"velocity":0.8031496062992126,"duration":0.4453124999999929},{"name":"D5","midi":74,"time":63.21874999999949,"velocity":0.8031496062992126,"duration":0.4453124999999929},{"name":"B2","midi":47,"time":63.44270833333282,"velocity":0.8031496062992126,"duration":0.2213541666666643},{"name":"C3","midi":48,"time":63.666666666666146,"velocity":0.8031496062992126,"duration":0.2213541666666643},{"name":"A4","midi":69,"time":63.666666666666146,"velocity":0.8031496062992126,"duration":0.4453125},{"name":"C5","midi":72,"time":63.666666666666146,"velocity":0.8031496062992126,"duration":0.4453125},{"name":"D3","midi":50,"time":63.890624999999474,"velocity":0.8031496062992126,"duration":0.2213541666666714},{"name":"E3","midi":52,"time":64.11458333333282,"velocity":0.8031496062992126,"duration":0.2213541666666714},{"name":"G4","midi":67,"time":64.11458333333282,"velocity":0.8031496062992126,"duration":0.4453125000000142},{"name":"B4","midi":71,"time":64.11458333333282,"velocity":0.8031496062992126,"duration":0.4453125000000142},{"name":"B2","midi":47,"time":64.33854166666616,"velocity":0.8031496062992126,"duration":0.2213541666666714},{"name":"C3","midi":48,"time":64.5624999999995,"velocity":0.8031496062992126,"duration":0.2213541666666714},{"name":"F#4","midi":66,"time":64.5624999999995,"velocity":0.8031496062992126,"duration":2.908854166666785},{"name":"A4","midi":69,"time":64.5624999999995,"velocity":0.8031496062992126,"duration":0.4453125000000142},{"name":"D3","midi":50,"time":64.78645833333285,"velocity":0.8031496062992126,"duration":0.2213541666666714},{"name":"C3","midi":48,"time":65.01041666666619,"velocity":0.8031496062992126,"duration":0.2213541666666714},{"name":"E5","midi":76,"time":65.01041666666619,"velocity":0.8031496062992126,"duration":0.4453125000000142},{"name":"B2","midi":47,"time":65.23437499999953,"velocity":0.8031496062992126,"duration":0.2213541666666714},{"name":"A2","midi":45,"time":65.45833333333287,"velocity":0.8031496062992126,"duration":0.2213541666666714},{"name":"D5","midi":74,"time":65.45833333333287,"velocity":0.8031496062992126,"duration":0.4453125000000142},{"name":"G2","midi":43,"time":65.68229166666622,"velocity":0.8031496062992126,"duration":0.2213541666666714},{"name":"F#2","midi":42,"time":65.90624999999956,"velocity":0.8031496062992126,"duration":0.2213541666666714},{"name":"C5","midi":72,"time":65.90624999999956,"velocity":0.8031496062992126,"duration":0.4453125000000142},{"name":"E2","midi":40,"time":66.1302083333329,"velocity":0.8031496062992126,"duration":0.2213541666666714},{"name":"D2","midi":38,"time":66.35416666666625,"velocity":0.8031496062992126,"duration":0.2213541666666714},{"name":"B4","midi":71,"time":66.35416666666625,"velocity":0.8031496062992126,"duration":0.4453125000000142},{"name":"C3","midi":48,"time":66.57812499999959,"velocity":0.8031496062992126,"duration":0.2213541666666714},{"name":"B2","midi":47,"time":66.80208333333293,"velocity":0.8031496062992126,"duration":0.2213541666666714},{"name":"A4","midi":69,"time":66.80208333333293,"velocity":0.8031496062992126,"duration":0.4453125000000142},{"name":"A2","midi":45,"time":67.02604166666627,"velocity":0.8031496062992126,"duration":0.2213541666666714},{"name":"G2","midi":43,"time":67.24999999999962,"velocity":0.8031496062992126,"duration":0.4453125000000142},{"name":"B4","midi":71,"time":67.24999999999962,"velocity":0.8031496062992126,"duration":0.8867187500000284},{"name":"D4","midi":62,"time":67.47395833333296,"velocity":0.8031496062992126,"duration":0.2213541666666714},{"name":"B2","midi":47,"time":67.6979166666663,"velocity":0.8031496062992126,"duration":0.4453125000000142},{"name":"E4","midi":64,"time":67.6979166666663,"velocity":0.8031496062992126,"duration":0.2213541666666714},{"name":"F#4","midi":66,"time":67.92187499999964,"velocity":0.8031496062992126,"duration":0.2213541666666714},{"name":"D3","midi":50,"time":68.14583333333299,"velocity":0.8031496062992126,"duration":0.4453125000000142},{"name":"G4","midi":67,"time":68.14583333333299,"velocity":0.8031496062992126,"duration":0.2213541666666714},{"name":"F#4","midi":66,"time":68.36979166666633,"velocity":0.8031496062992126,"duration":0.2213541666666714},{"name":"F#3","midi":54,"time":68.59374999999967,"velocity":0.8031496062992126,"duration":0.4453125000000142},{"name":"G4","midi":67,"time":68.59374999999967,"velocity":0.8031496062992126,"duration":0.2213541666666714},{"name":"A4","midi":69,"time":68.81770833333302,"velocity":0.8031496062992126,"duration":0.2213541666666714},{"name":"G3","midi":55,"time":69.04166666666636,"velocity":0.8031496062992126,"duration":0.4453125000000142},{"name":"B4","midi":71,"time":69.04166666666636,"velocity":0.8031496062992126,"duration":0.2213541666666714},{"name":"G5","midi":79,"time":69.04166666666636,"velocity":0.8031496062992126,"duration":2.013020833333414},{"name":"C5","midi":72,"time":69.2656249999997,"velocity":0.8031496062992126,"duration":0.2213541666666714},{"name":"B3","midi":59,"time":69.48958333333304,"velocity":0.8031496062992126,"duration":0.4453125000000142},{"name":"D5","midi":74,"time":69.48958333333304,"velocity":0.8031496062992126,"duration":0.2213541666666714},{"name":"B4","midi":71,"time":69.71354166666639,"velocity":0.8031496062992126,"duration":0.2213541666666714},{"name":"C4","midi":60,"time":69.93749999999973,"velocity":0.8031496062992126,"duration":0.4453125000000142},{"name":"E5","midi":76,"time":69.93749999999973,"velocity":0.8031496062992126,"duration":0.2213541666666714},{"name":"D5","midi":74,"time":70.16145833333307,"velocity":0.8031496062992126,"duration":0.2213541666666714},{"name":"A3","midi":57,"time":70.38541666666642,"velocity":0.8031496062992126,"duration":0.4453125000000142},{"name":"C5","midi":72,"time":70.38541666666642,"velocity":0.8031496062992126,"duration":0.2213541666666714},{"name":"B4","midi":71,"time":70.60937499999976,"velocity":0.8031496062992126,"duration":0.2213541666666714},{"name":"D4","midi":62,"time":70.8333333333331,"velocity":0.8031496062992126,"duration":0.8867187500000284},{"name":"A4","midi":69,"time":70.8333333333331,"velocity":0.8031496062992126,"duration":0.2213541666666714},{"name":"G4","midi":67,"time":71.05729166666644,"velocity":0.8031496062992126,"duration":0.2213541666666714},{"name":"B5","midi":83,"time":71.05729166666644,"velocity":0.8031496062992126,"duration":0.2213541666666714},{"name":"F#4","midi":66,"time":71.28124999999979,"velocity":0.8031496062992126,"duration":0.2213541666666714},{"name":"A5","midi":81,"time":71.28124999999979,"velocity":0.8031496062992126,"duration":0.2213541666666714},{"name":"E4","midi":64,"time":71.50520833333313,"velocity":0.8031496062992126,"duration":0.2213541666666714},{"name":"G5","midi":79,"time":71.50520833333313,"velocity":0.8031496062992126,"duration":0.2213541666666714},{"name":"D4","midi":62,"time":71.72916666666647,"velocity":0.8031496062992126,"duration":0.2213541666666714},{"name":"F#5","midi":78,"time":71.72916666666647,"velocity":0.8031496062992126,"duration":0.8932291666666998},{"name":"E4","midi":64,"time":71.95312499999982,"velocity":0.8031496062992126,"duration":0.2213541666666714},{"name":"C5","midi":72,"time":71.95312499999982,"velocity":0.8031496062992126,"duration":0.2213541666666714},{"name":"D4","midi":62,"time":72.17708333333316,"velocity":0.8031496062992126,"duration":0.2213541666666714},{"name":"B4","midi":71,"time":72.17708333333316,"velocity":0.8031496062992126,"duration":0.2213541666666714},{"name":"C4","midi":60,"time":72.4010416666665,"velocity":0.8031496062992126,"duration":0.2213541666666714},{"name":"A4","midi":69,"time":72.4010416666665,"velocity":0.8031496062992126,"duration":0.2213541666666714},{"name":"B3","midi":59,"time":72.62499999999984,"velocity":0.8031496062992126,"duration":0.4453125000000142},{"name":"D5","midi":74,"time":72.62499999999984,"velocity":0.8031496062992126,"duration":0.2213541666666714},{"name":"F5","midi":77,"time":72.62499999999984,"velocity":0.8031496062992126,"duration":1.1171875000000426},{"name":"C5","midi":72,"time":72.84895833333319,"velocity":0.8031496062992126,"duration":0.2213541666666714},{"name":"G3","midi":55,"time":73.07291666666653,"velocity":0.8031496062992126,"duration":0.4453125000000142},{"name":"B4","midi":71,"time":73.07291666666653,"velocity":0.8031496062992126,"duration":0.2213541666666714},{"name":"A4","midi":69,"time":73.29687499999987,"velocity":0.8031496062992126,"duration":0.2213541666666714},{"name":"C4","midi":60,"time":73.52083333333321,"velocity":0.8031496062992126,"duration":0.8867187500000284},{"name":"G4","midi":67,"time":73.52083333333321,"velocity":0.8031496062992126,"duration":0.2213541666666714},{"name":"F4","midi":65,"time":73.74479166666656,"velocity":0.8031496062992126,"duration":0.2213541666666714},{"name":"A5","midi":81,"time":73.74479166666656,"velocity":0.8031496062992126,"duration":0.2213541666666714},{"name":"E4","midi":64,"time":73.9687499999999,"velocity":0.8031496062992126,"duration":0.2213541666666714},{"name":"G5","midi":79,"time":73.9687499999999,"velocity":0.8031496062992126,"duration":0.2213541666666714},{"name":"D4","midi":62,"time":74.19270833333324,"velocity":0.8031496062992126,"duration":0.2213541666666714},{"name":"F5","midi":77,"time":74.19270833333324,"velocity":0.8031496062992126,"duration":0.2213541666666714},{"name":"C4","midi":60,"time":74.41666666666659,"velocity":0.8031496062992126,"duration":0.2213541666666714},{"name":"E5","midi":76,"time":74.41666666666659,"velocity":0.8031496062992126,"duration":2.013020833333414},{"name":"D4","midi":62,"time":74.64062499999993,"velocity":0.8031496062992126,"duration":0.2213541666666714},{"name":"B4","midi":71,"time":74.64062499999993,"velocity":0.8031496062992126,"duration":0.2213541666666714},{"name":"C4","midi":60,"time":74.86458333333327,"velocity":0.8031496062992126,"duration":0.2213541666666714},{"name":"A4","midi":69,"time":74.86458333333327,"velocity":0.8031496062992126,"duration":0.2213541666666714},{"name":"B3","midi":59,"time":75.08854166666661,"velocity":0.8031496062992126,"duration":0.2213541666666714},{"name":"G4","midi":67,"time":75.08854166666661,"velocity":0.8031496062992126,"duration":0.2213541666666714},{"name":"A3","midi":57,"time":75.31249999999996,"velocity":0.8031496062992126,"duration":0.4453125000000142},{"name":"C5","midi":72,"time":75.31249999999996,"velocity":0.8031496062992126,"duration":0.2213541666666714},{"name":"B4","midi":71,"time":75.5364583333333,"velocity":0.8031496062992126,"duration":0.2213541666666714},{"name":"F#3","midi":54,"time":75.76041666666664,"velocity":0.8031496062992126,"duration":0.4453125000000142},{"name":"A4","midi":69,"time":75.76041666666664,"velocity":0.8031496062992126,"duration":0.2213541666666714},{"name":"G4","midi":67,"time":75.98437499999999,"velocity":0.8031496062992126,"duration":0.2213541666666714},{"name":"B3","midi":59,"time":76.20833333333333,"velocity":0.8031496062992126,"duration":0.8867187500000284},{"name":"F#4","midi":66,"time":76.20833333333333,"velocity":0.8031496062992126,"duration":0.2213541666666714},{"name":"E4","midi":64,"time":76.43229166666667,"velocity":0.8031496062992126,"duration":0.2213541666666714},{"name":"G5","midi":79,"time":76.43229166666667,"velocity":0.8031496062992126,"duration":0.2213541666666714},{"name":"D4","midi":62,"time":76.65625000000001,"velocity":0.8031496062992126,"duration":0.2213541666666714},{"name":"F#5","midi":78,"time":76.65625000000001,"velocity":0.8031496062992126,"duration":0.2213541666666714},{"name":"C4","midi":60,"time":76.88020833333336,"velocity":0.8031496062992126,"duration":0.2213541666666714},{"name":"E5","midi":76,"time":76.88020833333336,"velocity":0.8031496062992126,"duration":0.2213541666666714},{"name":"B3","midi":59,"time":77.1041666666667,"velocity":0.8031496062992126,"duration":0.2213541666666714},{"name":"D5","midi":74,"time":77.1041666666667,"velocity":0.8031496062992126,"duration":2.013020833333414},{"name":"C4","midi":60,"time":77.32812500000004,"velocity":0.8031496062992126,"duration":0.2213541666666714},{"name":"A4","midi":69,"time":77.32812500000004,"velocity":0.8031496062992126,"duration":0.2213541666666714},{"name":"B3","midi":59,"time":77.55208333333339,"velocity":0.8031496062992126,"duration":0.2213541666666714},{"name":"G4","midi":67,"time":77.55208333333339,"velocity":0.8031496062992126,"duration":0.2213541666666714},{"name":"A3","midi":57,"time":77.77604166666673,"velocity":0.8031496062992126,"duration":0.2213541666666714},{"name":"F#4","midi":66,"time":77.77604166666673,"velocity":0.8031496062992126,"duration":0.2213541666666714},{"name":"G3","midi":55,"time":78.00000000000007,"velocity":0.8031496062992126,"duration":0.4453125000000142},{"name":"B4","midi":71,"time":78.00000000000007,"velocity":0.8031496062992126,"duration":0.2213541666666714},{"name":"A4","midi":69,"time":78.22395833333341,"velocity":0.8031496062992126,"duration":0.2213541666666714},{"name":"E3","midi":52,"time":78.44791666666676,"velocity":0.8031496062992126,"duration":0.4453125000000142},{"name":"G4","midi":67,"time":78.44791666666676,"velocity":0.8031496062992126,"duration":0.2213541666666714},{"name":"F#4","midi":66,"time":78.6718750000001,"velocity":0.8031496062992126,"duration":0.2213541666666714},{"name":"A3","midi":57,"time":78.89583333333344,"velocity":0.8031496062992126,"duration":0.8867187500000284},{"name":"E4","midi":64,"time":78.89583333333344,"velocity":0.8031496062992126,"duration":0.2213541666666714},{"name":"D4","midi":62,"time":79.11979166666679,"velocity":0.8031496062992126,"duration":0.2213541666666714},{"name":"F5","midi":77,"time":79.11979166666679,"velocity":0.8031496062992126,"duration":0.2213541666666714},{"name":"C4","midi":60,"time":79.34375000000013,"velocity":0.8031496062992126,"duration":0.2213541666666714},{"name":"E5","midi":76,"time":79.34375000000013,"velocity":0.8031496062992126,"duration":0.2213541666666714},{"name":"B3","midi":59,"time":79.56770833333347,"velocity":0.8031496062992126,"duration":0.2213541666666714},{"name":"D5","midi":74,"time":79.56770833333347,"velocity":0.8031496062992126,"duration":0.2213541666666714},{"name":"A3","midi":57,"time":79.79166666666681,"velocity":0.8031496062992126,"duration":0.2213541666666714},{"name":"C5","midi":72,"time":79.79166666666681,"velocity":0.8031496062992126,"duration":1.1171875000000426},{"name":"B3","midi":59,"time":80.01562500000016,"velocity":0.8031496062992126,"duration":0.2213541666666714},{"name":"G4","midi":67,"time":80.01562500000016,"velocity":0.8031496062992126,"duration":0.2213541666666714},{"name":"A3","midi":57,"time":80.2395833333335,"velocity":0.8031496062992126,"duration":0.2213541666666714},{"name":"F#4","midi":66,"time":80.2395833333335,"velocity":0.8031496062992126,"duration":0.2213541666666714},{"name":"G3","midi":55,"time":80.46354166666684,"velocity":0.8031496062992126,"duration":0.2213541666666714},{"name":"E4","midi":64,"time":80.46354166666684,"velocity":0.8031496062992126,"duration":0.2213541666666714},{"name":"F#3","midi":54,"time":80.68750000000018,"velocity":0.8031496062992126,"duration":0.2213541666666714},{"name":"D4","midi":62,"time":80.68750000000018,"velocity":0.8031496062992126,"duration":0.8867187500000284},{"name":"E3","midi":52,"time":80.91145833333353,"velocity":0.8031496062992126,"duration":0.2213541666666714},{"name":"C5","midi":72,"time":80.91145833333353,"velocity":0.8031496062992126,"duration":0.2213541666666714},{"name":"D3","midi":50,"time":81.13541666666687,"velocity":0.8031496062992126,"duration":0.2213541666666714},{"name":"B4","midi":71,"time":81.13541666666687,"velocity":0.8031496062992126,"duration":0.2213541666666714},{"name":"C3","midi":48,"time":81.35937500000021,"velocity":0.8031496062992126,"duration":0.2213541666666714},{"name":"A4","midi":69,"time":81.35937500000021,"velocity":0.8031496062992126,"duration":0.2213541666666714},{"name":"B2","midi":47,"time":81.58333333333356,"velocity":0.8031496062992126,"duration":0.2213541666666714},{"name":"G4","midi":67,"time":81.58333333333356,"velocity":0.8031496062992126,"duration":0.2213541666666714},{"name":"A2","midi":45,"time":81.8072916666669,"velocity":0.8031496062992126,"duration":0.2213541666666714},{"name":"F#4","midi":66,"time":81.8072916666669,"velocity":0.8031496062992126,"duration":0.2213541666666714},{"name":"G2","midi":43,"time":82.03125000000024,"velocity":0.8031496062992126,"duration":0.2213541666666714},{"name":"G4","midi":67,"time":82.03125000000024,"velocity":0.8031496062992126,"duration":0.2213541666666714},{"name":"F#2","midi":42,"time":82.25520833333358,"velocity":0.8031496062992126,"duration":0.2213541666666714},{"name":"A4","midi":69,"time":82.25520833333358,"velocity":0.8031496062992126,"duration":0.2213541666666714},{"name":"G2","midi":43,"time":82.47916666666693,"velocity":0.8031496062992126,"duration":0.2213541666666714},{"name":"G4","midi":67,"time":82.47916666666693,"velocity":0.8031496062992126,"duration":1.789062500000071},{"name":"B4","midi":71,"time":82.47916666666693,"velocity":0.8031496062992126,"duration":0.2213541666666714},{"name":"A2","midi":45,"time":82.70312500000027,"velocity":0.8031496062992126,"duration":0.2213541666666714},{"name":"C5","midi":72,"time":82.70312500000027,"velocity":0.8031496062992126,"duration":0.2213541666666714},{"name":"B2","midi":47,"time":82.92708333333361,"velocity":0.8031496062992126,"duration":0.2213541666666714},{"name":"D5","midi":74,"time":82.92708333333361,"velocity":0.8031496062992126,"duration":0.2213541666666714},{"name":"G2","midi":43,"time":83.15104166666696,"velocity":0.8031496062992126,"duration":0.2213541666666714},{"name":"B4","midi":71,"time":83.15104166666696,"velocity":0.8031496062992126,"duration":0.2213541666666714},{"name":"C3","midi":48,"time":83.3750000000003,"velocity":0.8031496062992126,"duration":0.2213541666666714},{"name":"E5","midi":76,"time":83.3750000000003,"velocity":0.8031496062992126,"duration":0.2213541666666714},{"name":"A2","midi":45,"time":83.59895833333364,"velocity":0.8031496062992126,"duration":0.2213541666666714},{"name":"D5","midi":74,"time":83.59895833333364,"velocity":0.8031496062992126,"duration":0.2213541666666714},{"name":"B2","midi":47,"time":83.82291666666698,"velocity":0.8031496062992126,"duration":0.2213541666666714},{"name":"C5","midi":72,"time":83.82291666666698,"velocity":0.8031496062992126,"duration":0.2213541666666714},{"name":"C3","midi":48,"time":84.04687500000033,"velocity":0.8031496062992126,"duration":0.2213541666666714},{"name":"B4","midi":71,"time":84.04687500000033,"velocity":0.8031496062992126,"duration":0.2213541666666714},{"name":"D3","midi":50,"time":84.27083333333367,"velocity":0.8031496062992126,"duration":0.4583333333333286},{"name":"A4","midi":69,"time":84.27083333333367,"velocity":0.8031496062992126,"duration":0.9127604166666572},{"name":"G4","midi":67,"time":84.50130208333367,"velocity":0.8031496062992126,"duration":0.2278645833333286},{"name":"C3","midi":48,"time":84.73177083333367,"velocity":0.8031496062992126,"duration":0.4687499999999858},{"name":"F#4","midi":66,"time":84.73177083333367,"velocity":0.8031496062992126,"duration":0.2278645833333286},{"name":"E4","midi":64,"time":84.97265625000033,"velocity":0.8031496062992126,"duration":0.2291666666666572},{"name":"D4","midi":62,"time":85.21484375000031,"velocity":0.8031496062992126,"duration":0.26953125},{"name":"F#4","midi":66,"time":85.21484375000031,"velocity":0.8031496062992126,"duration":1.0872395833333428},{"name":"D3","midi":50,"time":85.21484375000031,"velocity":0.8031496062992126,"duration":1.0872395833333428},{"name":"C5","midi":72,"time":85.48697916666698,"velocity":0.8031496062992126,"duration":0.26953125},{"name":"B4","midi":71,"time":85.75911458333366,"velocity":0.8031496062992126,"duration":0.26953125},{"name":"D2","midi":38,"time":85.75911458333366,"velocity":0.8031496062992126,"duration":0.54296875},{"name":"A4","midi":69,"time":86.03125000000033,"velocity":0.8031496062992126,"duration":0.2708333333333286},{"name":"B4","midi":71,"time":86.34895833333366,"velocity":0.8031496062992126,"duration":2.8645833333333286},{"name":"G2","midi":43,"time":86.34895833333366,"velocity":0.8031496062992126,"duration":2.8645833333333286},{"name":"G4","midi":67,"time":86.34895833333366,"velocity":0.8031496062992126,"duration":2.8645833333333286}],"controlChanges":{"7":[{"number":7,"time":0,"value":0.7874015748031497}]},"id":1,"name":"Piano 1","instrumentNumber":6,"instrument":"harpsichord","instrumentFamily":"piano","channelNumber":0,"isPercussion":false}]}