{"header":{"PPQ":192,"timeSignature":[12,8],"bpm":100,"name":"--------"},"startTime":0,"duration":140.2499999999978,"tracks":[{"startTime":0,"duration":0,"length":0,"notes":[],"controlChanges":{},"id":0,"name":"--------"},{"startTime":0.8999999999999999,"duration":140.24999999999736,"length":731,"notes":[{"name":"G4","midi":67,"time":0.8999999999999999,"velocity":0.7480314960629921,"duration":0.14375000000000004},{"name":"F#4","midi":66,"time":1.05,"velocity":0.7480314960629921,"duration":0.14375000000000004},{"name":"E4","midi":64,"time":1.2000000000000002,"velocity":0.7480314960629921,"duration":0.14375000000000004},{"name":"D4","midi":62,"time":1.3500000000000003,"velocity":0.7480314960629921,"duration":0.14375000000000004},{"name":"B4","midi":71,"time":1.5000000000000004,"velocity":0.7480314960629921,"duration":0.10000000000000009},{"name":"A4","midi":69,"time":1.8000000000000005,"velocity":0.7480314960629921,"duration":0.10000000000000009},{"name":"G4","midi":67,"time":2.7000000000000006,"velocity":0.7480314960629921,"duration":0.14374999999999982},{"name":"F#4","midi":66,"time":2.8500000000000005,"velocity":0.7480314960629921,"duration":0.14374999999999982},{"name":"E4","midi":64,"time":3.0000000000000004,"velocity":0.7480314960629921,"duration":0.14374999999999982},{"name":"D4","midi":62,"time":3.1500000000000004,"velocity":0.7480314960629921,"duration":0.14374999999999982},{"name":"C5","midi":72,"time":3.3000000000000003,"velocity":0.7480314960629921,"duration":0.10000000000000009},{"name":"B4","midi":71,"time":3.6000000000000005,"velocity":0.7480314960629921,"duration":0.10000000000000009},{"name":"D5","midi":74,"time":4.500000000000001,"velocity":0.7480314960629921,"duration":0.14374999999999982},{"name":"B4","midi":71,"time":4.65,"velocity":0.7480314960629921,"duration":0.14374999999999982},{"name":"A4","midi":69,"time":4.8,"velocity":0.7480314960629921,"duration":0.14374999999999982},{"name":"G4","midi":67,"time":4.949999999999999,"velocity":0.7480314960629921,"duration":0.14374999999999982},{"name":"E5","midi":76,"time":5.099999999999999,"velocity":0.7480314960629921,"duration":0.14374999999999982},{"name":"C5","midi":72,"time":5.249999999999998,"velocity":0.7480314960629921,"duration":0.14374999999999982},{"name":"D5","midi":74,"time":5.399999999999998,"velocity":0.7480314960629921,"duration":0.14374999999999982},{"name":"B4","midi":71,"time":5.549999999999997,"velocity":0.7480314960629921,"duration":0.14374999999999982},{"name":"A4","midi":69,"time":5.699999999999997,"velocity":0.7480314960629921,"duration":0.14374999999999982},{"name":"G4","midi":67,"time":5.849999999999996,"velocity":0.7480314960629921,"duration":0.14374999999999982},{"name":"C5","midi":72,"time":5.999999999999996,"velocity":0.7480314960629921,"duration":0.14374999999999982},{"name":"A4","midi":69,"time":6.149999999999995,"velocity":0.7480314960629921,"duration":0.14374999999999982},{"name":"C5","midi":72,"time":6.2999999999999945,"velocity":0.7480314960629921,"duration":0.14374999999999982},{"name":"B4","midi":71,"time":6.449999999999994,"velocity":0.7480314960629921,"duration":0.14374999999999982},{"name":"A4","midi":69,"time":6.599999999999993,"velocity":0.7480314960629921,"duration":0.14374999999999982},{"name":"G4","midi":67,"time":6.749999999999993,"velocity":0.7480314960629921,"duration":0.14374999999999982},{"name":"A4","midi":69,"time":6.899999999999992,"velocity":0.7480314960629921,"duration":0.14374999999999982},{"name":"F#4","midi":66,"time":7.049999999999992,"velocity":0.7480314960629921,"duration":0.14374999999999982},{"name":"G4","midi":67,"time":7.199999999999991,"velocity":0.7480314960629921,"duration":0.14374999999999982},{"name":"D4","midi":62,"time":7.349999999999991,"velocity":0.7480314960629921,"duration":0.14374999999999982},{"name":"E4","midi":64,"time":7.49999999999999,"velocity":0.7480314960629921,"duration":0.14374999999999982},{"name":"F#4","midi":66,"time":7.64999999999999,"velocity":0.7480314960629921,"duration":0.14374999999999982},{"name":"G4","midi":67,"time":7.799999999999989,"velocity":0.7480314960629921,"duration":0.14374999999999982},{"name":"A4","midi":69,"time":7.949999999999989,"velocity":0.7480314960629921,"duration":0.1437500000000007},{"name":"B4","midi":71,"time":8.099999999999989,"velocity":0.7480314960629921,"duration":0.1437500000000007},{"name":"D5","midi":74,"time":8.24999999999999,"velocity":0.7480314960629921,"duration":0.1437500000000007},{"name":"C5","midi":72,"time":8.39999999999999,"velocity":0.7480314960629921,"duration":0.1437500000000007},{"name":"B4","midi":71,"time":8.54999999999999,"velocity":0.7480314960629921,"duration":0.1437500000000007},{"name":"C5","midi":72,"time":8.69999999999999,"velocity":0.7480314960629921,"duration":0.1437500000000007},{"name":"A4","midi":69,"time":8.84999999999999,"velocity":0.7480314960629921,"duration":0.1437500000000007},{"name":"B4","midi":71,"time":8.999999999999991,"velocity":0.7480314960629921,"duration":0.1437500000000007},{"name":"G4","midi":67,"time":9.149999999999991,"velocity":0.7480314960629921,"duration":0.1437500000000007},{"name":"A4","midi":69,"time":9.299999999999992,"velocity":0.7480314960629921,"duration":0.1437500000000007},{"name":"B4","midi":71,"time":9.449999999999992,"velocity":0.7480314960629921,"duration":0.1437500000000007},{"name":"C5","midi":72,"time":9.599999999999993,"velocity":0.7480314960629921,"duration":0.1437500000000007},{"name":"D5","midi":74,"time":9.749999999999993,"velocity":0.7480314960629921,"duration":0.1437500000000007},{"name":"E5","midi":76,"time":9.899999999999993,"velocity":0.7480314960629921,"duration":0.1437500000000007},{"name":"G5","midi":79,"time":10.049999999999994,"velocity":0.7480314960629921,"duration":0.1437500000000007},{"name":"F#5","midi":78,"time":10.199999999999994,"velocity":0.7480314960629921,"duration":0.1437500000000007},{"name":"E5","midi":76,"time":10.349999999999994,"velocity":0.7480314960629921,"duration":0.1437500000000007},{"name":"D5","midi":74,"time":10.499999999999995,"velocity":0.7480314960629921,"duration":0.1437500000000007},{"name":"C#5","midi":73,"time":10.649999999999995,"velocity":0.7480314960629921,"duration":0.1437500000000007},{"name":"A5","midi":81,"time":10.799999999999995,"velocity":0.7480314960629921,"duration":0.1437500000000007},{"name":"D5","midi":74,"time":10.949999999999996,"velocity":0.7480314960629921,"duration":0.1437500000000007},{"name":"E5","midi":76,"time":11.099999999999996,"velocity":0.7480314960629921,"duration":0.1437500000000007},{"name":"F#5","midi":78,"time":11.249999999999996,"velocity":0.7480314960629921,"duration":0.1437500000000007},{"name":"G5","midi":79,"time":11.399999999999997,"velocity":0.7480314960629921,"duration":0.1437500000000007},{"name":"A5","midi":81,"time":11.549999999999997,"velocity":0.7480314960629921,"duration":0.1437500000000007},{"name":"B5","midi":83,"time":11.699999999999998,"velocity":0.7480314960629921,"duration":0.1437500000000007},{"name":"A5","midi":81,"time":11.849999999999998,"velocity":0.7480314960629921,"duration":0.1437500000000007},{"name":"G5","midi":79,"time":11.999999999999998,"velocity":0.7480314960629921,"duration":0.1437500000000007},{"name":"F#5","midi":78,"time":12.149999999999999,"velocity":0.7480314960629921,"duration":0.1437500000000007},{"name":"G5","midi":79,"time":12.299999999999999,"velocity":0.7480314960629921,"duration":0.1437500000000007},{"name":"E5","midi":76,"time":12.45,"velocity":0.7480314960629921,"duration":0.1437500000000007},{"name":"F#5","midi":78,"time":12.6,"velocity":0.7480314960629921,"duration":0.1437500000000007},{"name":"A5","midi":81,"time":12.75,"velocity":0.7480314960629921,"duration":0.1437500000000007},{"name":"G5","midi":79,"time":12.9,"velocity":0.7480314960629921,"duration":0.1437500000000007},{"name":"F#5","midi":78,"time":13.05,"velocity":0.7480314960629921,"duration":0.1437500000000007},{"name":"E5","midi":76,"time":13.200000000000001,"velocity":0.7480314960629921,"duration":0.1437500000000007},{"name":"D5","midi":74,"time":13.350000000000001,"velocity":0.7480314960629921,"duration":0.1437500000000007},{"name":"C#5","midi":73,"time":13.500000000000002,"velocity":0.7480314960629921,"duration":0.1437500000000007},{"name":"D5","midi":74,"time":13.650000000000002,"velocity":0.7480314960629921,"duration":0.1437500000000007},{"name":"E5","midi":76,"time":13.800000000000002,"velocity":0.7480314960629921,"duration":0.1437500000000007},{"name":"F#5","midi":78,"time":13.950000000000003,"velocity":0.7480314960629921,"duration":0.1437500000000007},{"name":"G5","midi":79,"time":14.100000000000003,"velocity":0.7480314960629921,"duration":0.44374999999999964},{"name":"E5","midi":76,"time":14.550000000000002,"velocity":0.7480314960629921,"duration":0.1437500000000007},{"name":"F#5","midi":78,"time":14.700000000000003,"velocity":0.7480314960629921,"duration":0.1437500000000007},{"name":"D5","midi":74,"time":14.850000000000003,"velocity":0.7480314960629921,"duration":0.1437500000000007},{"name":"C#5","midi":73,"time":15.000000000000004,"velocity":0.7480314960629921,"duration":0.1437500000000007},{"name":"D5","midi":74,"time":15.150000000000004,"velocity":0.7480314960629921,"duration":0.1437500000000007},{"name":"G4","midi":67,"time":15.300000000000004,"velocity":0.7480314960629921,"duration":0.09999999999999964},{"name":"F5","midi":77,"time":15.600000000000003,"velocity":0.7480314960629921,"duration":0.7437500000000004},{"name":"D5","midi":74,"time":16.350000000000005,"velocity":0.7480314960629921,"duration":0.1437500000000007},{"name":"E5","midi":76,"time":16.500000000000007,"velocity":0.7480314960629921,"duration":0.1437500000000007},{"name":"C5","midi":72,"time":16.65000000000001,"velocity":0.7480314960629921,"duration":0.1437500000000007},{"name":"B4","midi":71,"time":16.80000000000001,"velocity":0.7480314960629921,"duration":0.1437500000000007},{"name":"C5","midi":72,"time":16.950000000000014,"velocity":0.7480314960629921,"duration":0.1437500000000007},{"name":"F#4","midi":66,"time":17.100000000000016,"velocity":0.7480314960629921,"duration":0.10000000000000142},{"name":"E5","midi":76,"time":17.400000000000016,"velocity":0.7480314960629921,"duration":0.7437499999999986},{"name":"C5","midi":72,"time":18.150000000000016,"velocity":0.7480314960629921,"duration":0.1437500000000007},{"name":"D5","midi":74,"time":18.30000000000002,"velocity":0.7480314960629921,"duration":0.1437500000000007},{"name":"B4","midi":71,"time":18.45000000000002,"velocity":0.7480314960629921,"duration":0.1437500000000007},{"name":"A4","midi":69,"time":18.600000000000023,"velocity":0.7480314960629921,"duration":0.1437500000000007},{"name":"B4","midi":71,"time":18.750000000000025,"velocity":0.7480314960629921,"duration":0.1437500000000007},{"name":"E4","midi":64,"time":18.900000000000027,"velocity":0.7480314960629921,"duration":0.1437500000000007},{"name":"B4","midi":71,"time":19.05000000000003,"velocity":0.7480314960629921,"duration":0.1437500000000007},{"name":"C5","midi":72,"time":19.20000000000003,"velocity":0.7480314960629921,"duration":0.1437500000000007},{"name":"A4","midi":69,"time":19.350000000000033,"velocity":0.7480314960629921,"duration":0.1437500000000007},{"name":"G4","midi":67,"time":19.500000000000036,"velocity":0.7480314960629921,"duration":0.1437500000000007},{"name":"A4","midi":69,"time":19.650000000000038,"velocity":0.7480314960629921,"duration":0.1437500000000007},{"name":"D4","midi":62,"time":19.80000000000004,"velocity":0.7480314960629921,"duration":0.1437500000000007},{"name":"A4","midi":69,"time":19.950000000000042,"velocity":0.7480314960629921,"duration":0.1437500000000007},{"name":"B4","midi":71,"time":20.100000000000044,"velocity":0.7480314960629921,"duration":0.1437500000000007},{"name":"G4","midi":67,"time":20.250000000000046,"velocity":0.7480314960629921,"duration":0.1437500000000007},{"name":"F#4","midi":66,"time":20.40000000000005,"velocity":0.7480314960629921,"duration":0.1437500000000007},{"name":"G4","midi":67,"time":20.55000000000005,"velocity":0.7480314960629921,"duration":0.1437500000000007},{"name":"C4","midi":60,"time":20.700000000000053,"velocity":0.7480314960629921,"duration":0.1437500000000007},{"name":"G4","midi":67,"time":20.850000000000055,"velocity":0.7480314960629921,"duration":0.1437500000000007},{"name":"A4","midi":69,"time":21.000000000000057,"velocity":0.7480314960629921,"duration":0.1437500000000007},{"name":"F#4","midi":66,"time":21.15000000000006,"velocity":0.7480314960629921,"duration":0.1437500000000007},{"name":"E4","midi":64,"time":21.30000000000006,"velocity":0.7480314960629921,"duration":0.1437500000000007},{"name":"F#4","midi":66,"time":21.450000000000063,"velocity":0.7480314960629921,"duration":0.1437500000000007},{"name":"B3","midi":59,"time":21.600000000000065,"velocity":0.7480314960629921,"duration":0.1437500000000007},{"name":"D4","midi":62,"time":21.750000000000068,"velocity":0.7480314960629921,"duration":0.1437500000000007},{"name":"E4","midi":64,"time":21.90000000000007,"velocity":0.7480314960629921,"duration":0.1437500000000007},{"name":"F#4","midi":66,"time":22.05000000000007,"velocity":0.7480314960629921,"duration":0.1437500000000007},{"name":"G4","midi":67,"time":22.200000000000074,"velocity":0.7480314960629921,"duration":0.1437500000000007},{"name":"A4","midi":69,"time":22.350000000000076,"velocity":0.7480314960629921,"duration":0.1437500000000007},{"name":"B4","midi":71,"time":22.500000000000078,"velocity":0.7480314960629921,"duration":0.1437500000000007},{"name":"D5","midi":74,"time":22.65000000000008,"velocity":0.7480314960629921,"duration":0.1437500000000007},{"name":"C5","midi":72,"time":22.800000000000082,"velocity":0.7480314960629921,"duration":0.1437500000000007},{"name":"B4","midi":71,"time":22.950000000000085,"velocity":0.7480314960629921,"duration":0.1437500000000007},{"name":"A4","midi":69,"time":23.100000000000087,"velocity":0.7480314960629921,"duration":0.1437500000000007},{"name":"G4","midi":67,"time":23.25000000000009,"velocity":0.7480314960629921,"duration":0.1437500000000007},{"name":"F#4","midi":66,"time":23.40000000000009,"velocity":0.7480314960629921,"duration":0.1437500000000007},{"name":"G4","midi":67,"time":23.550000000000093,"velocity":0.7480314960629921,"duration":0.1437500000000007},{"name":"A4","midi":69,"time":23.700000000000095,"velocity":0.7480314960629921,"duration":0.1437500000000007},{"name":"B4","midi":71,"time":23.850000000000097,"velocity":0.7480314960629921,"duration":0.1437500000000007},{"name":"C5","midi":72,"time":24.0000000000001,"velocity":0.7480314960629921,"duration":0.1437500000000007},{"name":"D5","midi":74,"time":24.1500000000001,"velocity":0.7480314960629921,"duration":0.1437500000000007},{"name":"E5","midi":76,"time":24.300000000000104,"velocity":0.7480314960629921,"duration":0.1437500000000007},{"name":"A5","midi":81,"time":24.450000000000106,"velocity":0.7480314960629921,"duration":0.1437500000000007},{"name":"G5","midi":79,"time":24.600000000000108,"velocity":0.7480314960629921,"duration":0.1437500000000007},{"name":"F#5","midi":78,"time":24.75000000000011,"velocity":0.7480314960629921,"duration":0.1437500000000007},{"name":"E5","midi":76,"time":24.900000000000112,"velocity":0.7480314960629921,"duration":0.1437500000000007},{"name":"D5","midi":74,"time":25.050000000000114,"velocity":0.7480314960629921,"duration":0.1437500000000007},{"name":"G5","midi":79,"time":25.200000000000117,"velocity":0.7480314960629921,"duration":0.1437500000000007},{"name":"D5","midi":74,"time":25.35000000000012,"velocity":0.7480314960629921,"duration":0.1437500000000007},{"name":"E5","midi":76,"time":25.50000000000012,"velocity":0.7480314960629921,"duration":0.1437500000000007},{"name":"F#5","midi":78,"time":25.650000000000123,"velocity":0.7480314960629921,"duration":0.1437500000000007},{"name":"G5","midi":79,"time":25.800000000000125,"velocity":0.7480314960629921,"duration":0.1437500000000007},{"name":"A5","midi":81,"time":25.950000000000127,"velocity":0.7480314960629921,"duration":0.1437500000000007},{"name":"B5","midi":83,"time":26.10000000000013,"velocity":0.7480314960629921,"duration":0.1437500000000007},{"name":"G5","midi":79,"time":26.25000000000013,"velocity":0.7480314960629921,"duration":0.1437500000000007},{"name":"F#5","midi":78,"time":26.400000000000134,"velocity":0.7480314960629921,"duration":0.1437500000000007},{"name":"G5","midi":79,"time":26.550000000000136,"velocity":0.7480314960629921,"duration":0.1437500000000007},{"name":"C5","midi":72,"time":26.700000000000138,"velocity":0.7480314960629921,"duration":0.1437500000000007},{"name":"A5","midi":81,"time":26.85000000000014,"velocity":0.7480314960629921,"duration":0.1437500000000007},{"name":"B4","midi":71,"time":27.000000000000142,"velocity":0.7480314960629921,"duration":0.1437500000000007},{"name":"G5","midi":79,"time":27.150000000000144,"velocity":0.7480314960629921,"duration":0.1437500000000007},{"name":"F#5","midi":78,"time":27.300000000000146,"velocity":0.7480314960629921,"duration":0.1437500000000007},{"name":"G5","midi":79,"time":27.45000000000015,"velocity":0.7480314960629921,"duration":0.1437500000000007},{"name":"A4","midi":69,"time":27.60000000000015,"velocity":0.7480314960629921,"duration":0.1437500000000007},{"name":"C5","midi":72,"time":27.750000000000153,"velocity":0.7480314960629921,"duration":0.1437500000000007},{"name":"F#4","midi":66,"time":27.900000000000155,"velocity":0.7480314960629921,"duration":0.1437500000000007},{"name":"G4","midi":67,"time":28.050000000000157,"velocity":0.7480314960629921,"duration":0.1437500000000007},{"name":"A4","midi":69,"time":28.20000000000016,"velocity":0.7480314960629921,"duration":0.1437500000000007},{"name":"B4","midi":71,"time":28.35000000000016,"velocity":0.7480314960629921,"duration":0.1437500000000007},{"name":"C5","midi":72,"time":28.500000000000163,"velocity":0.7480314960629921,"duration":0.59375},{"name":"B4","midi":71,"time":29.100000000000165,"velocity":0.7480314960629921,"duration":0.10000000000000142},{"name":"D5","midi":74,"time":29.700000000000166,"velocity":0.7480314960629921,"duration":0.1437500000000007},{"name":"B4","midi":71,"time":29.85000000000017,"velocity":0.7480314960629921,"duration":0.1437500000000007},{"name":"A4","midi":69,"time":30.00000000000017,"velocity":0.7480314960629921,"duration":0.1437500000000007},{"name":"G4","midi":67,"time":30.150000000000173,"velocity":0.7480314960629921,"duration":0.1437500000000007},{"name":"E5","midi":76,"time":30.300000000000175,"velocity":0.7480314960629921,"duration":0.10000000000000142},{"name":"D5","midi":74,"time":30.600000000000176,"velocity":0.7480314960629921,"duration":0.10000000000000142},{"name":"C5","midi":72,"time":31.500000000000178,"velocity":0.7480314960629921,"duration":0.1437500000000007},{"name":"B4","midi":71,"time":31.65000000000018,"velocity":0.7480314960629921,"duration":0.1437500000000007},{"name":"A4","midi":69,"time":31.800000000000182,"velocity":0.7480314960629921,"duration":0.1437500000000007},{"name":"G4","midi":67,"time":31.950000000000184,"velocity":0.7480314960629921,"duration":0.1437500000000007},{"name":"G5","midi":79,"time":32.100000000000186,"velocity":0.7480314960629921,"duration":0.10000000000000142},{"name":"F#5","midi":78,"time":32.40000000000019,"velocity":0.7480314960629921,"duration":0.10000000000000142},{"name":"G5","midi":79,"time":33.30000000000019,"velocity":0.7480314960629921,"duration":0.14374999999999716},{"name":"F#5","midi":78,"time":33.45000000000019,"velocity":0.7480314960629921,"duration":0.14374999999999716},{"name":"E5","midi":76,"time":33.600000000000186,"velocity":0.7480314960629921,"duration":0.14374999999999716},{"name":"D5","midi":74,"time":33.750000000000185,"velocity":0.7480314960629921,"duration":0.14374999999999716},{"name":"B5","midi":83,"time":33.90000000000018,"velocity":0.7480314960629921,"duration":0.14374999999999716},{"name":"G5","midi":79,"time":34.05000000000018,"velocity":0.7480314960629921,"duration":0.14374999999999716},{"name":"A5","midi":81,"time":34.20000000000018,"velocity":0.7480314960629921,"duration":0.14374999999999716},{"name":"F#5","midi":78,"time":34.35000000000018,"velocity":0.7480314960629921,"duration":0.14374999999999716},{"name":"E5","midi":76,"time":34.50000000000018,"velocity":0.7480314960629921,"duration":0.14374999999999716},{"name":"D5","midi":74,"time":34.650000000000176,"velocity":0.7480314960629921,"duration":0.14374999999999716},{"name":"G5","midi":79,"time":34.800000000000175,"velocity":0.7480314960629921,"duration":0.14374999999999716},{"name":"E5","midi":76,"time":34.95000000000017,"velocity":0.7480314960629921,"duration":0.14374999999999716},{"name":"G5","midi":79,"time":35.10000000000017,"velocity":0.7480314960629921,"duration":0.14374999999999716},{"name":"F#5","midi":78,"time":35.25000000000017,"velocity":0.7480314960629921,"duration":0.14374999999999716},{"name":"E5","midi":76,"time":35.40000000000017,"velocity":0.7480314960629921,"duration":0.14374999999999716},{"name":"D5","midi":74,"time":35.55000000000017,"velocity":0.7480314960629921,"duration":0.14374999999999716},{"name":"E5","midi":76,"time":35.700000000000166,"velocity":0.7480314960629921,"duration":0.14374999999999716},{"name":"C#5","midi":73,"time":35.850000000000165,"velocity":0.7480314960629921,"duration":0.14374999999999716},{"name":"D5","midi":74,"time":36.00000000000016,"velocity":0.7480314960629921,"duration":1.0437500000000028},{"name":"F#4","midi":66,"time":37.05000000000017,"velocity":0.7480314960629921,"duration":0.14374999999999716},{"name":"G4","midi":67,"time":37.200000000000166,"velocity":0.7480314960629921,"duration":0.14374999999999716},{"name":"E4","midi":64,"time":37.350000000000165,"velocity":0.7480314960629921,"duration":0.14374999999999716},{"name":"D4","midi":62,"time":37.50000000000016,"velocity":0.7480314960629921,"duration":0.14374999999999716},{"name":"E4","midi":64,"time":37.65000000000016,"velocity":0.7480314960629921,"duration":0.14374999999999716},{"name":"C5","midi":72,"time":37.80000000000016,"velocity":0.7480314960629921,"duration":1.0437500000000028},{"name":"E4","midi":64,"time":38.850000000000165,"velocity":0.7480314960629921,"duration":0.14374999999999716},{"name":"F#4","midi":66,"time":39.00000000000016,"velocity":0.7480314960629921,"duration":0.14374999999999716},{"name":"D4","midi":62,"time":39.15000000000016,"velocity":0.7480314960629921,"duration":0.14374999999999716},{"name":"C#4","midi":61,"time":39.30000000000016,"velocity":0.7480314960629921,"duration":0.14374999999999716},{"name":"D4","midi":62,"time":39.45000000000016,"velocity":0.7480314960629921,"duration":0.14374999999999716},{"name":"B4","midi":71,"time":39.60000000000016,"velocity":0.7480314960629921,"duration":1.0437500000000028},{"name":"E4","midi":64,"time":40.65000000000016,"velocity":0.7480314960629921,"duration":0.14374999999999716},{"name":"D#4","midi":63,"time":40.80000000000016,"velocity":0.7480314960629921,"duration":0.14374999999999716},{"name":"E4","midi":64,"time":40.95000000000016,"velocity":0.7480314960629921,"duration":0.14374999999999716},{"name":"F#4","midi":66,"time":41.10000000000016,"velocity":0.7480314960629921,"duration":0.14374999999999716},{"name":"G4","midi":67,"time":41.250000000000156,"velocity":0.7480314960629921,"duration":0.14374999999999716},{"name":"A4","midi":69,"time":41.400000000000155,"velocity":0.7480314960629921,"duration":0.10000000000000142},{"name":"B4","midi":71,"time":41.70000000000016,"velocity":0.7480314960629921,"duration":0.10000000000000142},{"name":"C5","midi":72,"time":42.00000000000016,"velocity":0.7480314960629921,"duration":0.4437500000000014},{"name":"B4","midi":71,"time":42.450000000000166,"velocity":0.7480314960629921,"duration":0.14374999999999716},{"name":"A4","midi":69,"time":42.600000000000165,"velocity":0.7480314960629921,"duration":0.14374999999999716},{"name":"G4","midi":67,"time":42.75000000000016,"velocity":0.7480314960629921,"duration":0.14374999999999716},{"name":"F#4","midi":66,"time":42.90000000000016,"velocity":0.7480314960629921,"duration":0.14374999999999716},{"name":"E4","midi":64,"time":43.05000000000016,"velocity":0.7480314960629921,"duration":0.14374999999999716},{"name":"D#4","midi":63,"time":43.20000000000016,"velocity":0.7480314960629921,"duration":0.14374999999999716},{"name":"E4","midi":64,"time":43.35000000000016,"velocity":0.7480314960629921,"duration":0.14374999999999716},{"name":"F#4","midi":66,"time":43.500000000000156,"velocity":0.7480314960629921,"duration":0.14374999999999716},{"name":"G4","midi":67,"time":43.650000000000155,"velocity":0.7480314960629921,"duration":0.14374999999999716},{"name":"A4","midi":69,"time":43.80000000000015,"velocity":0.7480314960629921,"duration":0.4437500000000014},{"name":"F#4","midi":66,"time":44.250000000000156,"velocity":0.7480314960629921,"duration":0.14374999999999716},{"name":"G4","midi":67,"time":44.400000000000155,"velocity":0.7480314960629921,"duration":0.14374999999999716},{"name":"E4","midi":64,"time":44.55000000000015,"velocity":0.7480314960629921,"duration":0.14374999999999716},{"name":"D#4","midi":63,"time":44.70000000000015,"velocity":0.7480314960629921,"duration":0.14374999999999716},{"name":"E4","midi":64,"time":44.85000000000015,"velocity":0.7480314960629921,"duration":0.14374999999999716},{"name":"B3","midi":59,"time":45.00000000000015,"velocity":0.7480314960629921,"duration":0.14374999999999716},{"name":"E4","midi":64,"time":45.15000000000015,"velocity":0.7480314960629921,"duration":0.14374999999999716},{"name":"G4","midi":67,"time":45.300000000000146,"velocity":0.7480314960629921,"duration":0.14374999999999716},{"name":"E4","midi":64,"time":45.450000000000145,"velocity":0.7480314960629921,"duration":0.14374999999999716},{"name":"D#4","midi":63,"time":45.60000000000014,"velocity":0.7480314960629921,"duration":0.14374999999999716},{"name":"E4","midi":64,"time":45.75000000000014,"velocity":0.7480314960629921,"duration":0.14374999999999716},{"name":"B3","midi":59,"time":45.90000000000014,"velocity":0.7480314960629921,"duration":0.14374999999999716},{"name":"E4","midi":64,"time":46.05000000000014,"velocity":0.7480314960629921,"duration":0.14374999999999716},{"name":"G4","midi":67,"time":46.20000000000014,"velocity":0.7480314960629921,"duration":0.14374999999999716},{"name":"E4","midi":64,"time":46.350000000000136,"velocity":0.7480314960629921,"duration":0.14374999999999716},{"name":"D4","midi":62,"time":46.500000000000135,"velocity":0.7480314960629921,"duration":0.14374999999999716},{"name":"E4","midi":64,"time":46.650000000000134,"velocity":0.7480314960629921,"duration":0.14374999999999716},{"name":"C#4","midi":61,"time":46.80000000000013,"velocity":0.7480314960629921,"duration":0.14374999999999716},{"name":"D4","midi":62,"time":46.95000000000013,"velocity":0.7480314960629921,"duration":0.14374999999999716},{"name":"E4","midi":64,"time":47.10000000000013,"velocity":0.7480314960629921,"duration":0.14374999999999716},{"name":"F#4","midi":66,"time":47.25000000000013,"velocity":0.7480314960629921,"duration":0.14374999999999716},{"name":"G4","midi":67,"time":47.40000000000013,"velocity":0.7480314960629921,"duration":0.4437500000000014},{"name":"E4","midi":64,"time":47.85000000000013,"velocity":0.7480314960629921,"duration":0.14374999999999716},{"name":"F#4","midi":66,"time":48.00000000000013,"velocity":0.7480314960629921,"duration":0.14374999999999716},{"name":"D4","midi":62,"time":48.15000000000013,"velocity":0.7480314960629921,"duration":0.14374999999999716},{"name":"C#4","midi":61,"time":48.300000000000125,"velocity":0.7480314960629921,"duration":0.14374999999999716},{"name":"D4","midi":62,"time":48.450000000000124,"velocity":0.7480314960629921,"duration":0.14374999999999716},{"name":"A3","midi":57,"time":48.60000000000012,"velocity":0.7480314960629921,"duration":0.14374999999999716},{"name":"D4","midi":62,"time":48.75000000000012,"velocity":0.7480314960629921,"duration":0.14374999999999716},{"name":"F#4","midi":66,"time":48.90000000000012,"velocity":0.7480314960629921,"duration":0.14374999999999716},{"name":"D4","midi":62,"time":49.05000000000012,"velocity":0.7480314960629921,"duration":0.14374999999999716},{"name":"C#4","midi":61,"time":49.20000000000012,"velocity":0.7480314960629921,"duration":0.14374999999999716},{"name":"D4","midi":62,"time":49.350000000000115,"velocity":0.7480314960629921,"duration":0.14374999999999716},{"name":"A3","midi":57,"time":49.500000000000114,"velocity":0.7480314960629921,"duration":0.14374999999999716},{"name":"D4","midi":62,"time":49.65000000000011,"velocity":0.7480314960629921,"duration":0.14374999999999716},{"name":"F#4","midi":66,"time":49.80000000000011,"velocity":0.7480314960629921,"duration":0.14374999999999716},{"name":"D4","midi":62,"time":49.95000000000011,"velocity":0.7480314960629921,"duration":0.14374999999999716},{"name":"C4","midi":60,"time":50.10000000000011,"velocity":0.7480314960629921,"duration":0.14374999999999716},{"name":"D4","midi":62,"time":50.25000000000011,"velocity":0.7480314960629921,"duration":0.14374999999999716},{"name":"B3","midi":59,"time":50.400000000000105,"velocity":0.7480314960629921,"duration":0.14374999999999716},{"name":"C4","midi":60,"time":50.550000000000104,"velocity":0.7480314960629921,"duration":0.14374999999999716},{"name":"D4","midi":62,"time":50.7000000000001,"velocity":0.7480314960629921,"duration":0.14374999999999716},{"name":"E4","midi":64,"time":50.8500000000001,"velocity":0.7480314960629921,"duration":0.14374999999999716},{"name":"F4","midi":65,"time":51.0000000000001,"velocity":0.7480314960629921,"duration":0.4437500000000014},{"name":"E4","midi":64,"time":51.4500000000001,"velocity":0.7480314960629921,"duration":0.14374999999999716},{"name":"D#4","midi":63,"time":51.6000000000001,"velocity":0.7480314960629921,"duration":0.14374999999999716},{"name":"E4","midi":64,"time":51.7500000000001,"velocity":0.7480314960629921,"duration":0.14374999999999716},{"name":"A4","midi":69,"time":51.9000000000001,"velocity":0.7480314960629921,"duration":0.14374999999999716},{"name":"E4","midi":64,"time":52.0500000000001,"velocity":0.7480314960629921,"duration":0.14374999999999716},{"name":"C5","midi":72,"time":52.200000000000095,"velocity":0.7480314960629921,"duration":0.14374999999999716},{"name":"A4","midi":69,"time":52.350000000000094,"velocity":0.7480314960629921,"duration":0.14374999999999716},{"name":"G#4","midi":68,"time":52.50000000000009,"velocity":0.7480314960629921,"duration":0.14374999999999716},{"name":"A4","midi":69,"time":52.65000000000009,"velocity":0.7480314960629921,"duration":0.14374999999999716},{"name":"D#5","midi":75,"time":52.80000000000009,"velocity":0.7480314960629921,"duration":0.14374999999999716},{"name":"A4","midi":69,"time":52.95000000000009,"velocity":0.7480314960629921,"duration":0.14374999999999716},{"name":"F#5","midi":78,"time":53.10000000000009,"velocity":0.7480314960629921,"duration":0.10000000000000142},{"name":"B4","midi":71,"time":53.40000000000009,"velocity":0.7480314960629921,"duration":0.10000000000000142},{"name":"A4","midi":69,"time":53.700000000000095,"velocity":0.7480314960629921,"duration":0.10000000000000142},{"name":"G4","midi":67,"time":54.0000000000001,"velocity":0.7480314960629921,"duration":0.14374999999999716},{"name":"B4","midi":71,"time":54.1500000000001,"velocity":0.7480314960629921,"duration":0.14374999999999716},{"name":"C#5","midi":73,"time":54.3000000000001,"velocity":0.7480314960629921,"duration":0.14374999999999716},{"name":"D#5","midi":75,"time":54.450000000000095,"velocity":0.7480314960629921,"duration":0.14374999999999716},{"name":"E5","midi":76,"time":54.600000000000094,"velocity":0.7480314960629921,"duration":0.14374999999999716},{"name":"F#5","midi":78,"time":54.75000000000009,"velocity":0.7480314960629921,"duration":0.14374999999999716},{"name":"G5","midi":79,"time":54.90000000000009,"velocity":0.7480314960629921,"duration":0.14374999999999716},{"name":"B5","midi":83,"time":55.05000000000009,"velocity":0.7480314960629921,"duration":0.14374999999999716},{"name":"A5","midi":81,"time":55.20000000000009,"velocity":0.7480314960629921,"duration":0.14374999999999716},{"name":"G5","midi":79,"time":55.35000000000009,"velocity":0.7480314960629921,"duration":0.14374999999999716},{"name":"F#5","midi":78,"time":55.500000000000085,"velocity":0.7480314960629921,"duration":0.14374999999999716},{"name":"E5","midi":76,"time":55.650000000000084,"velocity":0.7480314960629921,"duration":0.14374999999999716},{"name":"D#5","midi":75,"time":55.80000000000008,"velocity":0.7480314960629921,"duration":0.14374999999999716},{"name":"C#5","midi":73,"time":55.95000000000008,"velocity":0.7480314960629921,"duration":0.14374999999999716},{"name":"D#5","midi":75,"time":56.10000000000008,"velocity":0.7480314960629921,"duration":0.14374999999999716},{"name":"E5","midi":76,"time":56.25000000000008,"velocity":0.7480314960629921,"duration":0.14374999999999716},{"name":"F#5","midi":78,"time":56.40000000000008,"velocity":0.7480314960629921,"duration":0.14374999999999716},{"name":"G5","midi":79,"time":56.550000000000075,"velocity":0.7480314960629921,"duration":0.14374999999999716},{"name":"A5","midi":81,"time":56.700000000000074,"velocity":0.7480314960629921,"duration":0.14374999999999716},{"name":"F#5","midi":78,"time":56.85000000000007,"velocity":0.7480314960629921,"duration":0.14374999999999716},{"name":"E5","midi":76,"time":57.00000000000007,"velocity":0.7480314960629921,"duration":0.14374999999999716},{"name":"D#5","midi":75,"time":57.15000000000007,"velocity":0.7480314960629921,"duration":0.14374999999999716},{"name":"C#5","midi":73,"time":57.30000000000007,"velocity":0.7480314960629921,"duration":0.14374999999999716},{"name":"B4","midi":71,"time":57.45000000000007,"velocity":0.7480314960629921,"duration":0.14374999999999716},{"name":"E5","midi":76,"time":57.600000000000065,"velocity":0.7480314960629921,"duration":0.14374999999999716},{"name":"G5","midi":79,"time":57.750000000000064,"velocity":0.7480314960629921,"duration":0.14374999999999716},{"name":"F#5","midi":78,"time":57.90000000000006,"velocity":0.7480314960629921,"duration":0.14374999999999716},{"name":"E5","midi":76,"time":58.05000000000006,"velocity":0.7480314960629921,"duration":0.14374999999999716},{"name":"A5","midi":81,"time":58.20000000000006,"velocity":0.7480314960629921,"duration":0.14374999999999716},{"name":"F#5","midi":78,"time":58.35000000000006,"velocity":0.7480314960629921,"duration":0.14374999999999716},{"name":"G5","midi":79,"time":58.50000000000006,"velocity":0.7480314960629921,"duration":0.14374999999999716},{"name":"B5","midi":83,"time":58.650000000000055,"velocity":0.7480314960629921,"duration":0.14374999999999716},{"name":"A5","midi":81,"time":58.800000000000054,"velocity":0.7480314960629921,"duration":0.14374999999999716},{"name":"G5","midi":79,"time":58.95000000000005,"velocity":0.7480314960629921,"duration":0.14374999999999716},{"name":"A5","midi":81,"time":59.10000000000005,"velocity":0.7480314960629921,"duration":0.14374999999999716},{"name":"F#5","midi":78,"time":59.25000000000005,"velocity":0.7480314960629921,"duration":0.14374999999999716},{"name":"G5","midi":79,"time":59.40000000000005,"velocity":0.7480314960629921,"duration":0.14374999999999716},{"name":"B5","midi":83,"time":59.55000000000005,"velocity":0.7480314960629921,"duration":0.14374999999999716},{"name":"A5","midi":81,"time":59.700000000000045,"velocity":0.7480314960629921,"duration":0.14374999999999716},{"name":"G5","midi":79,"time":59.850000000000044,"velocity":0.7480314960629921,"duration":0.14374999999999716},{"name":"F#5","midi":78,"time":60.00000000000004,"velocity":0.7480314960629921,"duration":0.14374999999999716},{"name":"E5","midi":76,"time":60.15000000000004,"velocity":0.7480314960629921,"duration":0.14374999999999716},{"name":"D#5","midi":75,"time":60.30000000000004,"velocity":0.7480314960629921,"duration":0.14374999999999716},{"name":"E5","midi":76,"time":60.45000000000004,"velocity":0.7480314960629921,"duration":0.14374999999999716},{"name":"F#5","midi":78,"time":60.60000000000004,"velocity":0.7480314960629921,"duration":0.14374999999999716},{"name":"B4","midi":71,"time":60.750000000000036,"velocity":0.7480314960629921,"duration":0.14374999999999716},{"name":"A5","midi":81,"time":60.900000000000034,"velocity":0.7480314960629921,"duration":0.59375},{"name":"G5","midi":79,"time":61.500000000000036,"velocity":0.7480314960629921,"duration":0.10000000000000142},{"name":"B4","midi":71,"time":62.10000000000004,"velocity":0.7480314960629921,"duration":0.14374999999999716},{"name":"G4","midi":67,"time":62.250000000000036,"velocity":0.7480314960629921,"duration":0.14374999999999716},{"name":"F#4","midi":66,"time":62.400000000000034,"velocity":0.7480314960629921,"duration":0.14374999999999716},{"name":"E4","midi":64,"time":62.55000000000003,"velocity":0.7480314960629921,"duration":0.14374999999999716},{"name":"C5","midi":72,"time":62.70000000000003,"velocity":0.7480314960629921,"duration":0.10000000000000142},{"name":"B4","midi":71,"time":63.000000000000036,"velocity":0.7480314960629921,"duration":0.10000000000000142},{"name":"A4","midi":69,"time":63.900000000000034,"velocity":0.7480314960629921,"duration":0.14374999999999716},{"name":"G4","midi":67,"time":64.05000000000003,"velocity":0.7480314960629921,"duration":0.14374999999999716},{"name":"F#4","midi":66,"time":64.20000000000002,"velocity":0.7480314960629921,"duration":0.14374999999999716},{"name":"E4","midi":64,"time":64.35000000000001,"velocity":0.7480314960629921,"duration":0.14374999999999716},{"name":"E5","midi":76,"time":64.5,"velocity":0.7480314960629921,"duration":0.09999999999999432},{"name":"D#5","midi":75,"time":64.8,"velocity":0.7480314960629921,"duration":0.09999999999999432},{"name":"E5","midi":76,"time":65.69999999999999,"velocity":0.7480314960629921,"duration":0.14374999999999716},{"name":"D5","midi":74,"time":65.84999999999998,"velocity":0.7480314960629921,"duration":0.14374999999999716},{"name":"C#5","midi":73,"time":65.99999999999997,"velocity":0.7480314960629921,"duration":0.14374999999999716},{"name":"B4","midi":71,"time":66.14999999999996,"velocity":0.7480314960629921,"duration":0.14374999999999716},{"name":"G5","midi":79,"time":66.29999999999995,"velocity":0.7480314960629921,"duration":0.14374999999999716},{"name":"E5","midi":76,"time":66.44999999999995,"velocity":0.7480314960629921,"duration":0.14374999999999716},{"name":"F#5","midi":78,"time":66.59999999999994,"velocity":0.7480314960629921,"duration":0.14374999999999716},{"name":"D5","midi":74,"time":66.74999999999993,"velocity":0.7480314960629921,"duration":0.14374999999999716},{"name":"C#5","midi":73,"time":66.89999999999992,"velocity":0.7480314960629921,"duration":0.14374999999999716},{"name":"B4","midi":71,"time":67.04999999999991,"velocity":0.7480314960629921,"duration":0.14374999999999716},{"name":"E5","midi":76,"time":67.1999999999999,"velocity":0.7480314960629921,"duration":0.14374999999999716},{"name":"C#5","midi":73,"time":67.3499999999999,"velocity":0.7480314960629921,"duration":0.14374999999999716},{"name":"E5","midi":76,"time":67.49999999999989,"velocity":0.7480314960629921,"duration":0.14374999999999716},{"name":"D5","midi":74,"time":67.64999999999988,"velocity":0.7480314960629921,"duration":0.14374999999999716},{"name":"C#5","midi":73,"time":67.79999999999987,"velocity":0.7480314960629921,"duration":0.14374999999999716},{"name":"B4","midi":71,"time":67.94999999999986,"velocity":0.7480314960629921,"duration":0.14374999999999716},{"name":"C#5","midi":73,"time":68.09999999999985,"velocity":0.7480314960629921,"duration":0.14374999999999716},{"name":"A#4","midi":70,"time":68.24999999999984,"velocity":0.7480314960629921,"duration":0.14374999999999716},{"name":"B4","midi":71,"time":68.39999999999984,"velocity":0.7480314960629921,"duration":1.0437500000000028},{"name":"A#4","midi":70,"time":69.44999999999983,"velocity":0.7480314960629921,"duration":0.14374999999999716},{"name":"B4","midi":71,"time":69.59999999999982,"velocity":0.7480314960629921,"duration":0.14374999999999716},{"name":"D5","midi":74,"time":69.74999999999982,"velocity":0.7480314960629921,"duration":0.14374999999999716},{"name":"C#5","midi":73,"time":69.8999999999998,"velocity":0.7480314960629921,"duration":0.14374999999999716},{"name":"E5","midi":76,"time":70.0499999999998,"velocity":0.7480314960629921,"duration":0.14374999999999716},{"name":"D5","midi":74,"time":70.19999999999979,"velocity":0.7480314960629921,"duration":0.09999999999999432},{"name":"B4","midi":71,"time":70.49999999999979,"velocity":0.7480314960629921,"duration":0.09999999999999432},{"name":"D5","midi":74,"time":70.79999999999978,"velocity":0.7480314960629921,"duration":0.06874999999999432},{"name":"C#5","midi":73,"time":70.87499999999977,"velocity":0.7480314960629921,"duration":0.06874999999999432},{"name":"D5","midi":74,"time":70.94999999999976,"velocity":0.7480314960629921,"duration":0.06874999999999432},{"name":"C#5","midi":73,"time":71.02499999999975,"velocity":0.7480314960629921,"duration":0.06874999999999432},{"name":"D5","midi":74,"time":71.09999999999974,"velocity":0.7480314960629921,"duration":0.09999999999999432},{"name":"G#5","midi":80,"time":71.39999999999974,"velocity":0.7480314960629921,"duration":0.09999999999999432},{"name":"B5","midi":83,"time":71.69999999999973,"velocity":0.7480314960629921,"duration":0.09999999999999432},{"name":"D5","midi":74,"time":71.99999999999973,"velocity":0.7480314960629921,"duration":1.0437500000000028},{"name":"G#4","midi":68,"time":73.04999999999973,"velocity":0.7480314960629921,"duration":0.14374999999999716},{"name":"A4","midi":69,"time":73.19999999999972,"velocity":0.7480314960629921,"duration":0.14374999999999716},{"name":"C5","midi":72,"time":73.34999999999971,"velocity":0.7480314960629921,"duration":0.14374999999999716},{"name":"B4","midi":71,"time":73.4999999999997,"velocity":0.7480314960629921,"duration":0.14374999999999716},{"name":"D5","midi":74,"time":73.6499999999997,"velocity":0.7480314960629921,"duration":0.14374999999999716},{"name":"C5","midi":72,"time":73.79999999999968,"velocity":0.7480314960629921,"duration":0.09999999999999432},{"name":"A4","midi":69,"time":74.09999999999968,"velocity":0.7480314960629921,"duration":0.09999999999999432},{"name":"C5","midi":72,"time":74.39999999999968,"velocity":0.7480314960629921,"duration":0.06874999999999432},{"name":"B4","midi":71,"time":74.47499999999967,"velocity":0.7480314960629921,"duration":0.06874999999999432},{"name":"C5","midi":72,"time":74.54999999999966,"velocity":0.7480314960629921,"duration":0.06874999999999432},{"name":"B4","midi":71,"time":74.62499999999964,"velocity":0.7480314960629921,"duration":0.06874999999999432},{"name":"C5","midi":72,"time":74.69999999999963,"velocity":0.7480314960629921,"duration":0.09999999999999432},{"name":"F#5","midi":78,"time":74.99999999999963,"velocity":0.7480314960629921,"duration":0.09999999999999432},{"name":"A5","midi":81,"time":75.29999999999963,"velocity":0.7480314960629921,"duration":0.09999999999999432},{"name":"C5","midi":72,"time":75.59999999999962,"velocity":0.7480314960629921,"duration":1.0437500000000028},{"name":"A4","midi":69,"time":76.64999999999962,"velocity":0.7480314960629921,"duration":0.14374999999999716},{"name":"B4","midi":71,"time":76.79999999999961,"velocity":0.7480314960629921,"duration":0.14374999999999716},{"name":"G4","midi":67,"time":76.9499999999996,"velocity":0.7480314960629921,"duration":0.14374999999999716},{"name":"F#4","midi":66,"time":77.0999999999996,"velocity":0.7480314960629921,"duration":0.14374999999999716},{"name":"G4","midi":67,"time":77.24999999999959,"velocity":0.7480314960629921,"duration":0.14374999999999716},{"name":"E4","midi":64,"time":77.39999999999958,"velocity":0.7480314960629921,"duration":0.14374999999999716},{"name":"B4","midi":71,"time":77.54999999999957,"velocity":0.7480314960629921,"duration":0.14374999999999716},{"name":"C5","midi":72,"time":77.69999999999956,"velocity":0.7480314960629921,"duration":0.14374999999999716},{"name":"A4","midi":69,"time":77.84999999999955,"velocity":0.7480314960629921,"duration":0.14374999999999716},{"name":"G4","midi":67,"time":77.99999999999955,"velocity":0.7480314960629921,"duration":0.14374999999999716},{"name":"A4","midi":69,"time":78.14999999999954,"velocity":0.7480314960629921,"duration":0.14374999999999716},{"name":"F#4","midi":66,"time":78.29999999999953,"velocity":0.7480314960629921,"duration":0.14374999999999716},{"name":"C5","midi":72,"time":78.44999999999952,"velocity":0.7480314960629921,"duration":0.14374999999999716},{"name":"D5","midi":74,"time":78.59999999999951,"velocity":0.7480314960629921,"duration":0.14374999999999716},{"name":"B4","midi":71,"time":78.7499999999995,"velocity":0.7480314960629921,"duration":0.14374999999999716},{"name":"A4","midi":69,"time":78.8999999999995,"velocity":0.7480314960629921,"duration":0.14374999999999716},{"name":"B4","midi":71,"time":79.04999999999949,"velocity":0.7480314960629921,"duration":0.14374999999999716},{"name":"G4","midi":67,"time":79.19999999999948,"velocity":0.7480314960629921,"duration":0.14374999999999716},{"name":"D5","midi":74,"time":79.34999999999947,"velocity":0.7480314960629921,"duration":0.14374999999999716},{"name":"E5","midi":76,"time":79.49999999999946,"velocity":0.7480314960629921,"duration":0.14374999999999716},{"name":"C5","midi":72,"time":79.64999999999945,"velocity":0.7480314960629921,"duration":0.14374999999999716},{"name":"B4","midi":71,"time":79.79999999999944,"velocity":0.7480314960629921,"duration":0.14374999999999716},{"name":"C5","midi":72,"time":79.94999999999943,"velocity":0.7480314960629921,"duration":0.14374999999999716},{"name":"A4","midi":69,"time":80.09999999999943,"velocity":0.7480314960629921,"duration":0.14374999999999716},{"name":"E5","midi":76,"time":80.24999999999942,"velocity":0.7480314960629921,"duration":0.14374999999999716},{"name":"F5","midi":77,"time":80.39999999999941,"velocity":0.7480314960629921,"duration":0.14374999999999716},{"name":"D5","midi":74,"time":80.5499999999994,"velocity":0.7480314960629921,"duration":0.14374999999999716},{"name":"C5","midi":72,"time":80.69999999999939,"velocity":0.7480314960629921,"duration":0.14374999999999716},{"name":"D5","midi":74,"time":80.84999999999938,"velocity":0.7480314960629921,"duration":0.14374999999999716},{"name":"B4","midi":71,"time":80.99999999999937,"velocity":0.7480314960629921,"duration":0.09999999999999432},{"name":"G5","midi":79,"time":81.29999999999937,"velocity":0.7480314960629921,"duration":0.7437500000000057},{"name":"C5","midi":72,"time":82.04999999999937,"velocity":0.7480314960629921,"duration":0.14374999999999716},{"name":"F5","midi":77,"time":82.19999999999936,"velocity":0.7480314960629921,"duration":0.14374999999999716},{"name":"E5","midi":76,"time":82.34999999999935,"velocity":0.7480314960629921,"duration":0.14374999999999716},{"name":"D5","midi":74,"time":82.49999999999935,"velocity":0.7480314960629921,"duration":0.14374999999999716},{"name":"C5","midi":72,"time":82.64999999999934,"velocity":0.7480314960629921,"duration":0.14374999999999716},{"name":"B4","midi":71,"time":82.79999999999933,"velocity":0.7480314960629921,"duration":0.14374999999999716},{"name":"C5","midi":72,"time":82.94999999999932,"velocity":0.7480314960629921,"duration":0.14374999999999716},{"name":"B4","midi":71,"time":83.09999999999931,"velocity":0.7480314960629921,"duration":0.14374999999999716},{"name":"A4","midi":69,"time":83.2499999999993,"velocity":0.7480314960629921,"duration":0.14374999999999716},{"name":"G4","midi":67,"time":83.3999999999993,"velocity":0.7480314960629921,"duration":0.14374999999999716},{"name":"F4","midi":65,"time":83.54999999999929,"velocity":0.7480314960629921,"duration":0.14374999999999716},{"name":"E4","midi":64,"time":83.69999999999928,"velocity":0.7480314960629921,"duration":0.14374999999999716},{"name":"G4","midi":67,"time":83.84999999999927,"velocity":0.7480314960629921,"duration":0.14374999999999716},{"name":"F4","midi":65,"time":83.99999999999926,"velocity":0.7480314960629921,"duration":0.14374999999999716},{"name":"E4","midi":64,"time":84.14999999999925,"velocity":0.7480314960629921,"duration":0.14374999999999716},{"name":"D4","midi":62,"time":84.29999999999924,"velocity":0.7480314960629921,"duration":0.14374999999999716},{"name":"C4","midi":60,"time":84.44999999999924,"velocity":0.7480314960629921,"duration":0.14374999999999716},{"name":"B3","midi":59,"time":84.59999999999923,"velocity":0.7480314960629921,"duration":0.14374999999999716},{"name":"C4","midi":60,"time":84.74999999999922,"velocity":0.7480314960629921,"duration":0.14374999999999716},{"name":"D4","midi":62,"time":84.89999999999921,"velocity":0.7480314960629921,"duration":0.14374999999999716},{"name":"E4","midi":64,"time":85.0499999999992,"velocity":0.7480314960629921,"duration":0.14374999999999716},{"name":"F4","midi":65,"time":85.19999999999919,"velocity":0.7480314960629921,"duration":0.14374999999999716},{"name":"G4","midi":67,"time":85.34999999999918,"velocity":0.7480314960629921,"duration":0.14374999999999716},{"name":"A4","midi":69,"time":85.49999999999918,"velocity":0.7480314960629921,"duration":0.14374999999999716},{"name":"D5","midi":74,"time":85.64999999999917,"velocity":0.7480314960629921,"duration":0.14374999999999716},{"name":"C5","midi":72,"time":85.79999999999916,"velocity":0.7480314960629921,"duration":0.14374999999999716},{"name":"B4","midi":71,"time":85.94999999999915,"velocity":0.7480314960629921,"duration":0.14374999999999716},{"name":"A4","midi":69,"time":86.09999999999914,"velocity":0.7480314960629921,"duration":0.14374999999999716},{"name":"G4","midi":67,"time":86.24999999999913,"velocity":0.7480314960629921,"duration":0.14374999999999716},{"name":"C5","midi":72,"time":86.39999999999912,"velocity":0.7480314960629921,"duration":0.14374999999999716},{"name":"G4","midi":67,"time":86.54999999999912,"velocity":0.7480314960629921,"duration":0.14374999999999716},{"name":"A4","midi":69,"time":86.69999999999911,"velocity":0.7480314960629921,"duration":0.14374999999999716},{"name":"B4","midi":71,"time":86.8499999999991,"velocity":0.7480314960629921,"duration":0.14374999999999716},{"name":"C5","midi":72,"time":86.99999999999909,"velocity":0.7480314960629921,"duration":0.14374999999999716},{"name":"D5","midi":74,"time":87.14999999999908,"velocity":0.7480314960629921,"duration":0.14374999999999716},{"name":"E5","midi":76,"time":87.29999999999907,"velocity":0.7480314960629921,"duration":0.14374999999999716},{"name":"G5","midi":79,"time":87.44999999999906,"velocity":0.7480314960629921,"duration":0.14374999999999716},{"name":"F5","midi":77,"time":87.59999999999906,"velocity":0.7480314960629921,"duration":0.14374999999999716},{"name":"E5","midi":76,"time":87.74999999999905,"velocity":0.7480314960629921,"duration":0.14374999999999716},{"name":"F5","midi":77,"time":87.89999999999904,"velocity":0.7480314960629921,"duration":0.14374999999999716},{"name":"D5","midi":74,"time":88.04999999999903,"velocity":0.7480314960629921,"duration":0.14374999999999716},{"name":"E5","midi":76,"time":88.19999999999902,"velocity":0.7480314960629921,"duration":0.14374999999999716},{"name":"C6","midi":84,"time":88.34999999999901,"velocity":0.7480314960629921,"duration":0.14374999999999716},{"name":"B5","midi":83,"time":88.499999999999,"velocity":0.7480314960629921,"duration":0.14374999999999716},{"name":"C6","midi":84,"time":88.649999999999,"velocity":0.7480314960629921,"duration":0.14374999999999716},{"name":"A5","midi":81,"time":88.79999999999899,"velocity":0.7480314960629921,"duration":0.14374999999999716},{"name":"F5","midi":77,"time":88.94999999999898,"velocity":0.7480314960629921,"duration":0.14374999999999716},{"name":"G5","midi":79,"time":89.09999999999897,"velocity":0.7480314960629921,"duration":0.14374999999999716},{"name":"C5","midi":72,"time":89.24999999999896,"velocity":0.7480314960629921,"duration":0.14374999999999716},{"name":"B4","midi":71,"time":89.39999999999895,"velocity":0.7480314960629921,"duration":0.14374999999999716},{"name":"C5","midi":72,"time":89.54999999999895,"velocity":0.7480314960629921,"duration":0.14374999999999716},{"name":"F5","midi":77,"time":89.69999999999894,"velocity":0.7480314960629921,"duration":30.699999999998596},{"name":"F#5","midi":78,"time":90.14374999999893,"velocity":0.007874015748031496,"duration":0.856249999999946},{"name":"F#5","midi":78,"time":90.14374999999893,"velocity":0.007874015748031496,"duration":5.3999999999997925},{"name":"F#5","midi":78,"time":90.14374999999893,"velocity":0.007874015748031496,"duration":7.499999999999673},{"name":"F#5","midi":78,"time":90.14374999999893,"velocity":0.007874015748031496,"duration":32.35624999999855},{"name":"F#5","midi":78,"time":90.14374999999893,"velocity":0.007874015748031496,"duration":33.44999999999854},{"name":"F#5","midi":78,"time":90.14374999999893,"velocity":0.007874015748031496,"duration":35.24999999999845},{"name":"F#5","midi":78,"time":90.14374999999893,"velocity":0.007874015748031496,"duration":35.84999999999842},{"name":"F#5","midi":78,"time":90.14374999999893,"velocity":0.007874015748031496,"duration":0},{"name":"D5","midi":74,"time":90.14999999999893,"velocity":0.7480314960629921,"duration":0.14374999999999716},{"name":"E5","midi":76,"time":90.29999999999892,"velocity":0.7480314960629921,"duration":0.14374999999999716},{"name":"C5","midi":72,"time":90.44999999999891,"velocity":0.7480314960629921,"duration":0.14374999999999716},{"name":"B4","midi":71,"time":90.5999999999989,"velocity":0.7480314960629921,"duration":0.14374999999999716},{"name":"C5","midi":72,"time":90.74999999999889,"velocity":0.7480314960629921,"duration":0.14374999999999716},{"name":"F#5","midi":78,"time":90.89999999999888,"velocity":0.7480314960629921,"duration":0},{"name":"A5","midi":81,"time":91.19999999999888,"velocity":0.7480314960629921,"duration":0.09999999999999432},{"name":"C6","midi":84,"time":91.49999999999888,"velocity":0.7480314960629921,"duration":0.4437499999999943},{"name":"C5","midi":72,"time":91.94999999999887,"velocity":0.7480314960629921,"duration":0.14374999999999716},{"name":"D5","midi":74,"time":92.09999999999886,"velocity":0.7480314960629921,"duration":0.14374999999999716},{"name":"B4","midi":71,"time":92.24999999999885,"velocity":0.7480314960629921,"duration":0.14374999999999716},{"name":"A4","midi":69,"time":92.39999999999884,"velocity":0.7480314960629921,"duration":0.14374999999999716},{"name":"B4","midi":71,"time":92.54999999999883,"velocity":0.7480314960629921,"duration":0.14374999999999716},{"name":"E4","midi":64,"time":92.69999999999882,"velocity":0.7480314960629921,"duration":0.09999999999999432},{"name":"D5","midi":74,"time":92.99999999999882,"velocity":0.7480314960629921,"duration":0.7437500000000057},{"name":"B4","midi":71,"time":93.74999999999882,"velocity":0.7480314960629921,"duration":0.14374999999999716},{"name":"C5","midi":72,"time":93.89999999999881,"velocity":0.7480314960629921,"duration":0.14374999999999716},{"name":"A4","midi":69,"time":94.0499999999988,"velocity":0.7480314960629921,"duration":0.14374999999999716},{"name":"G#4","midi":68,"time":94.1999999999988,"velocity":0.7480314960629921,"duration":0.14374999999999716},{"name":"A4","midi":69,"time":94.34999999999879,"velocity":0.7480314960629921,"duration":0.14374999999999716},{"name":"E5","midi":76,"time":94.49999999999878,"velocity":0.7480314960629921,"duration":0.14374999999999716},{"name":"B4","midi":71,"time":94.64999999999877,"velocity":0.7480314960629921,"duration":0.14374999999999716},{"name":"C5","midi":72,"time":94.79999999999876,"velocity":0.7480314960629921,"duration":0.14374999999999716},{"name":"A4","midi":69,"time":94.94999999999875,"velocity":0.7480314960629921,"duration":0.14374999999999716},{"name":"G#4","midi":68,"time":95.09999999999874,"velocity":0.7480314960629921,"duration":0.14374999999999716},{"name":"A4","midi":69,"time":95.24999999999874,"velocity":0.7480314960629921,"duration":0.14374999999999716},{"name":"F#5","midi":78,"time":95.39999999999873,"velocity":0.7480314960629921,"duration":0},{"name":"C5","midi":72,"time":95.54999999999872,"velocity":0.7480314960629921,"duration":0.14374999999999716},{"name":"D5","midi":74,"time":95.69999999999871,"velocity":0.7480314960629921,"duration":0.14374999999999716},{"name":"B4","midi":71,"time":95.8499999999987,"velocity":0.7480314960629921,"duration":0.14374999999999716},{"name":"A4","midi":69,"time":95.99999999999869,"velocity":0.7480314960629921,"duration":0.14374999999999716},{"name":"B4","midi":71,"time":96.14999999999868,"velocity":0.7480314960629921,"duration":0.14374999999999716},{"name":"G5","midi":79,"time":96.29999999999868,"velocity":0.7480314960629921,"duration":0.14374999999999716},{"name":"D5","midi":74,"time":96.44999999999867,"velocity":0.7480314960629921,"duration":0.14374999999999716},{"name":"E5","midi":76,"time":96.59999999999866,"velocity":0.7480314960629921,"duration":0.14374999999999716},{"name":"C5","midi":72,"time":96.74999999999865,"velocity":0.7480314960629921,"duration":0.14374999999999716},{"name":"B4","midi":71,"time":96.89999999999864,"velocity":0.7480314960629921,"duration":0.14374999999999716},{"name":"C5","midi":72,"time":97.04999999999863,"velocity":0.7480314960629921,"duration":0.14374999999999716},{"name":"A5","midi":81,"time":97.19999999999862,"velocity":0.7480314960629921,"duration":0.14374999999999716},{"name":"G5","midi":79,"time":97.34999999999862,"velocity":0.7480314960629921,"duration":0.14374999999999716},{"name":"F#5","midi":78,"time":97.49999999999861,"velocity":0.7480314960629921,"duration":0},{"name":"E5","midi":76,"time":97.6499999999986,"velocity":0.7480314960629921,"duration":0.14374999999999716},{"name":"D5","midi":74,"time":97.79999999999859,"velocity":0.7480314960629921,"duration":0.14374999999999716},{"name":"C5","midi":72,"time":97.94999999999858,"velocity":0.7480314960629921,"duration":0.14374999999999716},{"name":"B4","midi":71,"time":98.09999999999857,"velocity":0.7480314960629921,"duration":0.14374999999999716},{"name":"D5","midi":74,"time":98.24999999999856,"velocity":0.7480314960629921,"duration":0.14374999999999716},{"name":"C5","midi":72,"time":98.39999999999856,"velocity":0.7480314960629921,"duration":0.14374999999999716},{"name":"B4","midi":71,"time":98.54999999999855,"velocity":0.7480314960629921,"duration":0.14374999999999716},{"name":"A4","midi":69,"time":98.69999999999854,"velocity":0.7480314960629921,"duration":0.14374999999999716},{"name":"G4","midi":67,"time":98.84999999999853,"velocity":0.7480314960629921,"duration":0.14374999999999716},{"name":"F#4","midi":66,"time":98.99999999999852,"velocity":0.7480314960629921,"duration":0.14374999999999716},{"name":"E5","midi":76,"time":99.14999999999851,"velocity":0.7480314960629921,"duration":0.14374999999999716},{"name":"D5","midi":74,"time":99.2999999999985,"velocity":0.7480314960629921,"duration":0.14374999999999716},{"name":"C5","midi":72,"time":99.4499999999985,"velocity":0.7480314960629921,"duration":0.14374999999999716},{"name":"B4","midi":71,"time":99.59999999999849,"velocity":0.7480314960629921,"duration":0.14374999999999716},{"name":"A4","midi":69,"time":99.74999999999848,"velocity":0.7480314960629921,"duration":0.14374999999999716},{"name":"G4","midi":67,"time":99.89999999999847,"velocity":0.7480314960629921,"duration":0.14374999999999716},{"name":"F#4","midi":66,"time":100.04999999999846,"velocity":0.7480314960629921,"duration":0.14374999999999716},{"name":"E4","midi":64,"time":100.19999999999845,"velocity":0.7480314960629921,"duration":0.14374999999999716},{"name":"D4","midi":62,"time":100.34999999999845,"velocity":0.7480314960629921,"duration":0.14374999999999716},{"name":"B4","midi":71,"time":100.49999999999844,"velocity":0.7480314960629921,"duration":0.09999999999999432},{"name":"A4","midi":69,"time":100.79999999999843,"velocity":0.7480314960629921,"duration":0.09999999999999432},{"name":"A3","midi":57,"time":101.84999999999843,"velocity":0.7480314960629921,"duration":0.14374999999999716},{"name":"B3","midi":59,"time":101.99999999999842,"velocity":0.7480314960629921,"duration":0.14374999999999716},{"name":"C4","midi":60,"time":102.14999999999841,"velocity":0.7480314960629921,"duration":0.14374999999999716},{"name":"D4","midi":62,"time":102.2999999999984,"velocity":0.7480314960629921,"duration":0.14374999999999716},{"name":"E4","midi":64,"time":102.4499999999984,"velocity":0.7480314960629921,"duration":0.14374999999999716},{"name":"F#4","midi":66,"time":102.59999999999839,"velocity":0.7480314960629921,"duration":0.14374999999999716},{"name":"G4","midi":67,"time":102.74999999999838,"velocity":0.7480314960629921,"duration":0.14374999999999716},{"name":"A4","midi":69,"time":102.89999999999837,"velocity":0.7480314960629921,"duration":0.14374999999999716},{"name":"B4","midi":71,"time":103.04999999999836,"velocity":0.7480314960629921,"duration":0.14374999999999716},{"name":"C5","midi":72,"time":103.19999999999835,"velocity":0.7480314960629921,"duration":0.14374999999999716},{"name":"D5","midi":74,"time":103.34999999999835,"velocity":0.7480314960629921,"duration":0.14374999999999716},{"name":"G4","midi":67,"time":103.49999999999834,"velocity":0.7480314960629921,"duration":0.14374999999999716},{"name":"F#4","midi":66,"time":103.64999999999833,"velocity":0.7480314960629921,"duration":0.14374999999999716},{"name":"E4","midi":64,"time":103.79999999999832,"velocity":0.7480314960629921,"duration":0.14374999999999716},{"name":"D4","midi":62,"time":103.94999999999831,"velocity":0.7480314960629921,"duration":0.14374999999999716},{"name":"C5","midi":72,"time":104.0999999999983,"velocity":0.7480314960629921,"duration":0.09999999999999432},{"name":"B4","midi":71,"time":104.3999999999983,"velocity":0.7480314960629921,"duration":0.09999999999999432},{"name":"D5","midi":74,"time":107.09999999999829,"velocity":0.7480314960629921,"duration":0.14374999999999716},{"name":"B4","midi":71,"time":107.24999999999828,"velocity":0.7480314960629921,"duration":0.14374999999999716},{"name":"A4","midi":69,"time":107.39999999999827,"velocity":0.7480314960629921,"duration":0.14374999999999716},{"name":"G4","midi":67,"time":107.54999999999826,"velocity":0.7480314960629921,"duration":0.14374999999999716},{"name":"E5","midi":76,"time":107.69999999999825,"velocity":0.7480314960629921,"duration":0.14374999999999716},{"name":"C5","midi":72,"time":107.84999999999825,"velocity":0.7480314960629921,"duration":0.14374999999999716},{"name":"D5","midi":74,"time":107.99999999999824,"velocity":0.7480314960629921,"duration":0.14374999999999716},{"name":"B4","midi":71,"time":108.14999999999823,"velocity":0.7480314960629921,"duration":0.14374999999999716},{"name":"A4","midi":69,"time":108.29999999999822,"velocity":0.7480314960629921,"duration":0.14374999999999716},{"name":"G4","midi":67,"time":108.44999999999821,"velocity":0.7480314960629921,"duration":0.14374999999999716},{"name":"C5","midi":72,"time":108.5999999999982,"velocity":0.7480314960629921,"duration":0.14374999999999716},{"name":"A4","midi":69,"time":108.7499999999982,"velocity":0.7480314960629921,"duration":0.14374999999999716},{"name":"B4","midi":71,"time":108.89999999999819,"velocity":0.7480314960629921,"duration":0.14374999999999716},{"name":"D5","midi":74,"time":109.04999999999818,"velocity":0.7480314960629921,"duration":0.14374999999999716},{"name":"C5","midi":72,"time":109.19999999999817,"velocity":0.7480314960629921,"duration":0.14374999999999716},{"name":"B4","midi":71,"time":109.34999999999816,"velocity":0.7480314960629921,"duration":0.14374999999999716},{"name":"C5","midi":72,"time":109.49999999999815,"velocity":0.7480314960629921,"duration":0.14374999999999716},{"name":"A4","midi":69,"time":109.64999999999814,"velocity":0.7480314960629921,"duration":0.14374999999999716},{"name":"B4","midi":71,"time":109.79999999999814,"velocity":0.7480314960629921,"duration":0.14374999999999716},{"name":"G4","midi":67,"time":109.94999999999813,"velocity":0.7480314960629921,"duration":0.14374999999999716},{"name":"F#4","midi":66,"time":110.09999999999812,"velocity":0.7480314960629921,"duration":0.14374999999999716},{"name":"E4","midi":64,"time":110.24999999999811,"velocity":0.7480314960629921,"duration":0.14374999999999716},{"name":"A4","midi":69,"time":110.3999999999981,"velocity":0.7480314960629921,"duration":0.14374999999999716},{"name":"F#4","midi":66,"time":110.5499999999981,"velocity":0.7480314960629921,"duration":0.14374999999999716},{"name":"G4","midi":67,"time":110.69999999999808,"velocity":0.7480314960629921,"duration":0.14374999999999716},{"name":"B4","midi":71,"time":110.84999999999808,"velocity":0.7480314960629921,"duration":0.14374999999999716},{"name":"A4","midi":69,"time":110.99999999999807,"velocity":0.7480314960629921,"duration":0.14374999999999716},{"name":"G4","midi":67,"time":111.14999999999806,"velocity":0.7480314960629921,"duration":0.14374999999999716},{"name":"A4","midi":69,"time":111.29999999999805,"velocity":0.7480314960629921,"duration":0.14374999999999716},{"name":"F#4","midi":66,"time":111.44999999999804,"velocity":0.7480314960629921,"duration":0.14374999999999716},{"name":"G4","midi":67,"time":111.59999999999803,"velocity":0.7480314960629921,"duration":0.14374999999999716},{"name":"E4","midi":64,"time":111.74999999999802,"velocity":0.7480314960629921,"duration":0.14374999999999716},{"name":"D4","midi":62,"time":111.89999999999802,"velocity":0.7480314960629921,"duration":0.14374999999999716},{"name":"C4","midi":60,"time":112.04999999999801,"velocity":0.7480314960629921,"duration":0.14374999999999716},{"name":"F4","midi":65,"time":112.199999999998,"velocity":0.7480314960629921,"duration":0.14374999999999716},{"name":"D4","midi":62,"time":112.34999999999799,"velocity":0.7480314960629921,"duration":0.14374999999999716},{"name":"E4","midi":64,"time":112.49999999999798,"velocity":0.7480314960629921,"duration":0.14374999999999716},{"name":"G4","midi":67,"time":112.64999999999797,"velocity":0.7480314960629921,"duration":0.14374999999999716},{"name":"F4","midi":65,"time":112.79999999999797,"velocity":0.7480314960629921,"duration":0.14374999999999716},{"name":"E4","midi":64,"time":112.94999999999796,"velocity":0.7480314960629921,"duration":0.14374999999999716},{"name":"F4","midi":65,"time":113.09999999999795,"velocity":0.7480314960629921,"duration":0.14374999999999716},{"name":"D4","midi":62,"time":113.24999999999794,"velocity":0.7480314960629921,"duration":0.14374999999999716},{"name":"E4","midi":64,"time":113.39999999999793,"velocity":0.7480314960629921,"duration":0.14374999999999716},{"name":"F4","midi":65,"time":113.54999999999792,"velocity":0.7480314960629921,"duration":0.14374999999999716},{"name":"G4","midi":67,"time":113.69999999999791,"velocity":0.7480314960629921,"duration":0.14374999999999716},{"name":"A4","midi":69,"time":113.8499999999979,"velocity":0.7480314960629921,"duration":0.14374999999999716},{"name":"D4","midi":62,"time":113.9999999999979,"velocity":0.7480314960629921,"duration":0.14374999999999716},{"name":"F4","midi":65,"time":114.14999999999789,"velocity":0.7480314960629921,"duration":0.14374999999999716},{"name":"E4","midi":64,"time":114.29999999999788,"velocity":0.7480314960629921,"duration":0.14374999999999716},{"name":"A4","midi":69,"time":114.44999999999787,"velocity":0.7480314960629921,"duration":0.14374999999999716},{"name":"B4","midi":71,"time":114.59999999999786,"velocity":0.7480314960629921,"duration":0.14374999999999716},{"name":"C5","midi":72,"time":114.74999999999785,"velocity":0.7480314960629921,"duration":0.14374999999999716},{"name":"E4","midi":64,"time":114.89999999999785,"velocity":0.7480314960629921,"duration":0.14374999999999716},{"name":"G4","midi":67,"time":115.04999999999784,"velocity":0.7480314960629921,"duration":0.14374999999999716},{"name":"F#4","midi":66,"time":115.19999999999783,"velocity":0.7480314960629921,"duration":0.14374999999999716},{"name":"G4","midi":67,"time":115.34999999999782,"velocity":0.7480314960629921,"duration":0.14374999999999716},{"name":"A4","midi":69,"time":115.49999999999781,"velocity":0.7480314960629921,"duration":0.14374999999999716},{"name":"B4","midi":71,"time":115.6499999999978,"velocity":0.7480314960629921,"duration":0.14374999999999716},{"name":"E4","midi":64,"time":115.7999999999978,"velocity":0.7480314960629921,"duration":0.14374999999999716},{"name":"G4","midi":67,"time":115.94999999999779,"velocity":0.7480314960629921,"duration":0.14374999999999716},{"name":"F#4","midi":66,"time":116.09999999999778,"velocity":0.7480314960629921,"duration":0.14374999999999716},{"name":"B4","midi":71,"time":116.24999999999777,"velocity":0.7480314960629921,"duration":0.14374999999999716},{"name":"C5","midi":72,"time":116.39999999999776,"velocity":0.7480314960629921,"duration":0.14374999999999716},{"name":"D5","midi":74,"time":116.54999999999775,"velocity":0.7480314960629921,"duration":0.14374999999999716},{"name":"F#4","midi":66,"time":116.69999999999774,"velocity":0.7480314960629921,"duration":0.14374999999999716},{"name":"A4","midi":69,"time":116.84999999999773,"velocity":0.7480314960629921,"duration":0.14374999999999716},{"name":"G4","midi":67,"time":116.99999999999773,"velocity":0.7480314960629921,"duration":0.14374999999999716},{"name":"A4","midi":69,"time":117.14999999999772,"velocity":0.7480314960629921,"duration":0.14374999999999716},{"name":"B4","midi":71,"time":117.29999999999771,"velocity":0.7480314960629921,"duration":0.14374999999999716},{"name":"C5","midi":72,"time":117.4499999999977,"velocity":0.7480314960629921,"duration":0.14374999999999716},{"name":"F#4","midi":66,"time":117.59999999999769,"velocity":0.7480314960629921,"duration":0.14374999999999716},{"name":"A4","midi":69,"time":117.74999999999768,"velocity":0.7480314960629921,"duration":0.14374999999999716},{"name":"G4","midi":67,"time":117.89999999999768,"velocity":0.7480314960629921,"duration":0.14374999999999716},{"name":"C5","midi":72,"time":118.04999999999767,"velocity":0.7480314960629921,"duration":0.14374999999999716},{"name":"D5","midi":74,"time":118.19999999999766,"velocity":0.7480314960629921,"duration":0.14374999999999716},{"name":"E5","midi":76,"time":118.34999999999765,"velocity":0.7480314960629921,"duration":0.14374999999999716},{"name":"G4","midi":67,"time":118.49999999999764,"velocity":0.7480314960629921,"duration":0.14374999999999716},{"name":"B4","midi":71,"time":118.64999999999763,"velocity":0.7480314960629921,"duration":0.14374999999999716},{"name":"A4","midi":69,"time":118.79999999999762,"velocity":0.7480314960629921,"duration":0.14374999999999716},{"name":"G4","midi":67,"time":118.94999999999762,"velocity":0.7480314960629921,"duration":0.14374999999999716},{"name":"A4","midi":69,"time":119.0999999999976,"velocity":0.7480314960629921,"duration":0.14374999999999716},{"name":"B4","midi":71,"time":119.2499999999976,"velocity":0.7480314960629921,"duration":0.14374999999999716},{"name":"C5","midi":72,"time":119.39999999999759,"velocity":0.7480314960629921,"duration":0.14374999999999716},{"name":"D5","midi":74,"time":119.54999999999758,"velocity":0.7480314960629921,"duration":0.14374999999999716},{"name":"C5","midi":72,"time":119.69999999999757,"velocity":0.7480314960629921,"duration":0.14374999999999716},{"name":"B4","midi":71,"time":119.84999999999756,"velocity":0.7480314960629921,"duration":0.14374999999999716},{"name":"A4","midi":69,"time":119.99999999999756,"velocity":0.7480314960629921,"duration":0.14374999999999716},{"name":"G4","midi":67,"time":120.14999999999755,"velocity":0.7480314960629921,"duration":0.14374999999999716},{"name":"F5","midi":77,"time":120.29999999999754,"velocity":0.7480314960629921,"duration":6.2937499999997755},{"name":"E5","midi":76,"time":120.59999999999754,"velocity":0.7480314960629921,"duration":0.09999999999999432},{"name":"D5","midi":74,"time":121.49999999999753,"velocity":0.7480314960629921,"duration":0.14374999999999716},{"name":"C#5","midi":73,"time":121.64999999999752,"velocity":0.7480314960629921,"duration":0.14374999999999716},{"name":"B4","midi":71,"time":121.79999999999751,"velocity":0.7480314960629921,"duration":0.14374999999999716},{"name":"A4","midi":69,"time":121.9499999999975,"velocity":0.7480314960629921,"duration":0.14374999999999716},{"name":"G5","midi":79,"time":122.0999999999975,"velocity":0.7480314960629921,"duration":0.09999999999999432},{"name":"F#5","midi":78,"time":122.39999999999749,"velocity":0.7480314960629921,"duration":0},{"name":"A5","midi":81,"time":123.29999999999748,"velocity":0.7480314960629921,"duration":0.14374999999999716},{"name":"F#5","midi":78,"time":123.44999999999747,"velocity":0.7480314960629921,"duration":0},{"name":"E5","midi":76,"time":123.59999999999746,"velocity":0.7480314960629921,"duration":0.14374999999999716},{"name":"D5","midi":74,"time":123.74999999999746,"velocity":0.7480314960629921,"duration":0.14374999999999716},{"name":"C6","midi":84,"time":123.89999999999745,"velocity":0.7480314960629921,"duration":0.09999999999999432},{"name":"B5","midi":83,"time":124.19999999999744,"velocity":0.7480314960629921,"duration":0.14374999999999716},{"name":"G5","midi":79,"time":124.34999999999744,"velocity":0.7480314960629921,"duration":0.14374999999999716},{"name":"A5","midi":81,"time":124.49999999999743,"velocity":0.7480314960629921,"duration":0.14374999999999716},{"name":"B5","midi":83,"time":124.64999999999742,"velocity":0.7480314960629921,"duration":0.14374999999999716},{"name":"E5","midi":76,"time":124.79999999999741,"velocity":0.7480314960629921,"duration":0.14374999999999716},{"name":"G5","midi":79,"time":124.9499999999974,"velocity":0.7480314960629921,"duration":0.14374999999999716},{"name":"C5","midi":72,"time":125.0999999999974,"velocity":0.7480314960629921,"duration":0.14374999999999716},{"name":"F#5","midi":78,"time":125.24999999999739,"velocity":0.7480314960629921,"duration":0},{"name":"G5","midi":79,"time":125.39999999999738,"velocity":0.7480314960629921,"duration":0.14374999999999716},{"name":"A5","midi":81,"time":125.54999999999737,"velocity":0.7480314960629921,"duration":0.14374999999999716},{"name":"D5","midi":74,"time":125.69999999999736,"velocity":0.7480314960629921,"duration":0.14374999999999716},{"name":"F#5","midi":78,"time":125.84999999999735,"velocity":0.7480314960629921,"duration":0},{"name":"B4","midi":71,"time":125.99999999999734,"velocity":0.7480314960629921,"duration":0.14374999999999716},{"name":"D5","midi":74,"time":126.14999999999733,"velocity":0.7480314960629921,"duration":0.14374999999999716},{"name":"E5","midi":76,"time":126.29999999999733,"velocity":0.7480314960629921,"duration":0.14374999999999716},{"name":"F5","midi":77,"time":126.44999999999732,"velocity":0.7480314960629921,"duration":13.80000000000004},{"name":"B4","midi":71,"time":126.59999999999731,"velocity":0.7480314960629921,"duration":0.14374999999999716},{"name":"D5","midi":74,"time":126.7499999999973,"velocity":0.7480314960629921,"duration":0.14374999999999716},{"name":"G4","midi":67,"time":126.89999999999729,"velocity":0.7480314960629921,"duration":0.14374999999999716},{"name":"B4","midi":71,"time":127.04999999999728,"velocity":0.7480314960629921,"duration":0.14374999999999716},{"name":"C5","midi":72,"time":127.19999999999727,"velocity":0.7480314960629921,"duration":0.14374999999999716},{"name":"D5","midi":74,"time":127.34999999999727,"velocity":0.7480314960629921,"duration":0.14374999999999716},{"name":"G4","midi":67,"time":127.49999999999726,"velocity":0.7480314960629921,"duration":0.14374999999999716},{"name":"B4","midi":71,"time":127.64999999999725,"velocity":0.7480314960629921,"duration":0.14374999999999716},{"name":"D4","midi":62,"time":127.79999999999724,"velocity":0.7480314960629921,"duration":0.14374999999999716},{"name":"G4","midi":67,"time":127.94999999999723,"velocity":0.7480314960629921,"duration":0.14375000000001137},{"name":"A4","midi":69,"time":128.09999999999724,"velocity":0.7480314960629921,"duration":0.14375000000001137},{"name":"B4","midi":71,"time":128.24999999999724,"velocity":0.7480314960629921,"duration":0.14375000000001137},{"name":"D4","midi":62,"time":128.39999999999725,"velocity":0.7480314960629921,"duration":0.14375000000001137},{"name":"G4","midi":67,"time":128.54999999999725,"velocity":0.7480314960629921,"duration":0.14375000000001137},{"name":"B3","midi":59,"time":128.69999999999726,"velocity":0.7480314960629921,"duration":0.14375000000001137},{"name":"D4","midi":62,"time":128.84999999999727,"velocity":0.7480314960629921,"duration":0.14375000000001137},{"name":"E4","midi":64,"time":128.99999999999727,"velocity":0.7480314960629921,"duration":0.14375000000001137},{"name":"F4","midi":65,"time":129.14999999999728,"velocity":0.7480314960629921,"duration":0.14375000000001137},{"name":"B3","midi":59,"time":129.29999999999728,"velocity":0.7480314960629921,"duration":0.14375000000001137},{"name":"D4","midi":62,"time":129.4499999999973,"velocity":0.7480314960629921,"duration":0.14375000000001137},{"name":"G3","midi":55,"time":129.5999999999973,"velocity":0.7480314960629921,"duration":0.29374999999998863},{"name":"E4","midi":64,"time":130.49999999999727,"velocity":0.7480314960629921,"duration":0.14375000000001137},{"name":"D4","midi":62,"time":130.64999999999728,"velocity":0.7480314960629921,"duration":0.14375000000001137},{"name":"C4","midi":60,"time":130.79999999999728,"velocity":0.7480314960629921,"duration":0.14375000000001137},{"name":"B3","midi":59,"time":130.9499999999973,"velocity":0.7480314960629921,"duration":0.14375000000001137},{"name":"F4","midi":65,"time":131.0999999999973,"velocity":0.7480314960629921,"duration":0.09999999999999432},{"name":"E4","midi":64,"time":131.39999999999728,"velocity":0.7480314960629921,"duration":0.09999999999999432},{"name":"G4","midi":67,"time":132.29999999999728,"velocity":0.7480314960629921,"duration":0.14375000000001137},{"name":"F#4","midi":66,"time":132.4499999999973,"velocity":0.7480314960629921,"duration":0.14375000000001137},{"name":"E4","midi":64,"time":132.5999999999973,"velocity":0.7480314960629921,"duration":0.14375000000001137},{"name":"D4","midi":62,"time":132.7499999999973,"velocity":0.7480314960629921,"duration":0.14375000000001137},{"name":"C5","midi":72,"time":132.8999999999973,"velocity":0.7480314960629921,"duration":0.09999999999999432},{"name":"C5","midi":72,"time":133.1999999999973,"velocity":0.7480314960629921,"duration":0.03125},{"name":"B4","midi":71,"time":133.23749999999728,"velocity":0.7480314960629921,"duration":0.03125},{"name":"C5","midi":72,"time":133.27499999999728,"velocity":0.7480314960629921,"duration":0.21875},{"name":"C5","midi":72,"time":134.09999999999727,"velocity":0.7480314960629921,"duration":0.14375000000001137},{"name":"B4","midi":71,"time":134.24999999999727,"velocity":0.7480314960629921,"duration":0.14375000000001137},{"name":"A4","midi":69,"time":134.39999999999728,"velocity":0.7480314960629921,"duration":0.14375000000001137},{"name":"G4","midi":67,"time":134.54999999999728,"velocity":0.7480314960629921,"duration":0.14375000000001137},{"name":"E5","midi":76,"time":134.6999999999973,"velocity":0.7480314960629921,"duration":0.14375000000001137},{"name":"C5","midi":72,"time":134.8499999999973,"velocity":0.7480314960629921,"duration":0.14375000000001137},{"name":"D5","midi":74,"time":134.9999999999973,"velocity":0.7480314960629921,"duration":0.14375000000001137},{"name":"B4","midi":71,"time":135.1499999999973,"velocity":0.7480314960629921,"duration":0.14375000000001137},{"name":"A4","midi":69,"time":135.2999999999973,"velocity":0.7480314960629921,"duration":0.14375000000001137},{"name":"G4","midi":67,"time":135.44999999999732,"velocity":0.7480314960629921,"duration":0.14375000000001137},{"name":"C5","midi":72,"time":135.59999999999732,"velocity":0.7480314960629921,"duration":0.14375000000001137},{"name":"A4","midi":69,"time":135.74999999999733,"velocity":0.7480314960629921,"duration":0.14375000000001137},{"name":"C5","midi":72,"time":135.89999999999733,"velocity":0.7480314960629921,"duration":0.14375000000001137},{"name":"B4","midi":71,"time":136.04999999999734,"velocity":0.7480314960629921,"duration":0.14375000000001137},{"name":"A4","midi":69,"time":136.19999999999735,"velocity":0.7480314960629921,"duration":0.14375000000001137},{"name":"G4","midi":67,"time":136.34999999999735,"velocity":0.7480314960629921,"duration":0.14375000000001137},{"name":"A4","midi":69,"time":136.49999999999736,"velocity":0.7480314960629921,"duration":0.14375000000001137},{"name":"F#4","midi":66,"time":136.64999999999736,"velocity":0.7480314960629921,"duration":0.14375000000001137},{"name":"G4","midi":67,"time":136.79999999999737,"velocity":0.7480314960629921,"duration":3.4499999999999886}],"controlChanges":{"7":[{"number":7,"time":0,"value":0.8661417322834646}],"10":[{"number":10,"time":0,"value":0.6220472440944882}]},"id":1,"name":"R.H.","instrumentNumber":6,"instrument":"harpsichord","instrumentFamily":"piano","channelNumber":0,"isPercussion":false},{"startTime":0,"duration":140.2499999999978,"length":649,"notes":[{"name":"G2","midi":43,"time":0,"velocity":0.7480314960629921,"duration":0.09999999999999999},{"name":"B2","midi":47,"time":0.3,"velocity":0.7480314960629921,"duration":0.09999999999999998},{"name":"D3","midi":50,"time":0.6,"velocity":0.7480314960629921,"duration":0.09999999999999998},{"name":"G3","midi":55,"time":0.8999999999999999,"velocity":0.7480314960629921,"duration":0.09999999999999998},{"name":"B3","midi":59,"time":1.2,"velocity":0.7480314960629921,"duration":0.10000000000000009},{"name":"G3","midi":55,"time":1.5,"velocity":0.7480314960629921,"duration":0.10000000000000009},{"name":"D3","midi":50,"time":1.8,"velocity":0.7480314960629921,"duration":0.10000000000000009},{"name":"F#3","midi":54,"time":2.1,"velocity":0.7480314960629921,"duration":0.10000000000000009},{"name":"A3","midi":57,"time":2.4000000000000004,"velocity":0.7480314960629921,"duration":0.10000000000000009},{"name":"D4","midi":62,"time":2.7000000000000006,"velocity":0.7480314960629921,"duration":0.10000000000000009},{"name":"F#3","midi":54,"time":3.000000000000001,"velocity":0.7480314960629921,"duration":0.10000000000000009},{"name":"D3","midi":50,"time":3.300000000000001,"velocity":0.7480314960629921,"duration":0.10000000000000009},{"name":"G3","midi":55,"time":3.6000000000000014,"velocity":0.7480314960629921,"duration":0.10000000000000009},{"name":"D3","midi":50,"time":3.9000000000000017,"velocity":0.7480314960629921,"duration":0.10000000000000009},{"name":"B2","midi":47,"time":4.200000000000002,"velocity":0.7480314960629921,"duration":0.09999999999999964},{"name":"G2","midi":43,"time":4.500000000000002,"velocity":0.7480314960629921,"duration":0.09999999999999964},{"name":"B2","midi":47,"time":4.800000000000002,"velocity":0.7480314960629921,"duration":0.09999999999999964},{"name":"C3","midi":48,"time":5.100000000000001,"velocity":0.7480314960629921,"duration":0.09999999999999964},{"name":"B2","midi":47,"time":5.400000000000001,"velocity":0.7480314960629921,"duration":0.09999999999999964},{"name":"E3","midi":52,"time":5.700000000000001,"velocity":0.7480314960629921,"duration":0.09999999999999964},{"name":"F#3","midi":54,"time":6.000000000000001,"velocity":0.7480314960629921,"duration":0.09999999999999964},{"name":"G3","midi":55,"time":6.300000000000001,"velocity":0.7480314960629921,"duration":0.09999999999999964},{"name":"D4","midi":62,"time":6.6000000000000005,"velocity":0.7480314960629921,"duration":0.09999999999999964},{"name":"D3","midi":50,"time":6.9,"velocity":0.7480314960629921,"duration":0.09999999999999964},{"name":"G3","midi":55,"time":7.2,"velocity":0.7480314960629921,"duration":0.2999999999999998},{"name":"D3","midi":50,"time":8.1,"velocity":0.7480314960629921,"duration":0.1437500000000007},{"name":"B2","midi":47,"time":8.25,"velocity":0.7480314960629921,"duration":0.1437500000000007},{"name":"A2","midi":45,"time":8.4,"velocity":0.7480314960629921,"duration":0.1437500000000007},{"name":"G2","midi":43,"time":8.55,"velocity":0.7480314960629921,"duration":0.1437500000000007},{"name":"E3","midi":52,"time":8.700000000000001,"velocity":0.7480314960629921,"duration":0.09999999999999964},{"name":"D3","midi":50,"time":9,"velocity":0.7480314960629921,"duration":0.09999999999999964},{"name":"C3","midi":48,"time":9.9,"velocity":0.7480314960629921,"duration":0.1437500000000007},{"name":"B2","midi":47,"time":10.05,"velocity":0.7480314960629921,"duration":0.1437500000000007},{"name":"A2","midi":45,"time":10.200000000000001,"velocity":0.7480314960629921,"duration":0.1437500000000007},{"name":"G2","midi":43,"time":10.350000000000001,"velocity":0.7480314960629921,"duration":0.1437500000000007},{"name":"G3","midi":55,"time":10.500000000000002,"velocity":0.7480314960629921,"duration":0.09999999999999964},{"name":"F#3","midi":54,"time":10.8,"velocity":0.7480314960629921,"duration":0.09999999999999964},{"name":"G3","midi":55,"time":11.700000000000001,"velocity":0.7480314960629921,"duration":0.1437500000000007},{"name":"F#3","midi":54,"time":11.850000000000001,"velocity":0.7480314960629921,"duration":0.1437500000000007},{"name":"E3","midi":52,"time":12.000000000000002,"velocity":0.7480314960629921,"duration":0.1437500000000007},{"name":"D3","midi":50,"time":12.150000000000002,"velocity":0.7480314960629921,"duration":0.1437500000000007},{"name":"B3","midi":59,"time":12.300000000000002,"velocity":0.7480314960629921,"duration":0.1437500000000007},{"name":"G3","midi":55,"time":12.450000000000003,"velocity":0.7480314960629921,"duration":0.1437500000000007},{"name":"A3","midi":57,"time":12.600000000000003,"velocity":0.7480314960629921,"duration":0.1437500000000007},{"name":"F#3","midi":54,"time":12.750000000000004,"velocity":0.7480314960629921,"duration":0.1437500000000007},{"name":"E3","midi":52,"time":12.900000000000004,"velocity":0.7480314960629921,"duration":0.1437500000000007},{"name":"D3","midi":50,"time":13.050000000000004,"velocity":0.7480314960629921,"duration":0.1437500000000007},{"name":"G3","midi":55,"time":13.200000000000005,"velocity":0.7480314960629921,"duration":0.1437500000000007},{"name":"E3","midi":52,"time":13.350000000000005,"velocity":0.7480314960629921,"duration":0.1437500000000007},{"name":"G3","midi":55,"time":13.500000000000005,"velocity":0.7480314960629921,"duration":0.1437500000000007},{"name":"F#3","midi":54,"time":13.650000000000006,"velocity":0.7480314960629921,"duration":0.1437500000000007},{"name":"E3","midi":52,"time":13.800000000000006,"velocity":0.7480314960629921,"duration":0.1437500000000007},{"name":"D3","midi":50,"time":13.950000000000006,"velocity":0.7480314960629921,"duration":0.1437500000000007},{"name":"E3","midi":52,"time":14.100000000000007,"velocity":0.7480314960629921,"duration":0.1437500000000007},{"name":"C#3","midi":49,"time":14.250000000000007,"velocity":0.7480314960629921,"duration":0.1437500000000007},{"name":"D3","midi":50,"time":14.400000000000007,"velocity":0.7480314960629921,"duration":0.09999999999999964},{"name":"D4","midi":62,"time":14.700000000000006,"velocity":0.7480314960629921,"duration":0.09999999999999964},{"name":"A3","midi":57,"time":15.000000000000005,"velocity":0.7480314960629921,"duration":0.09999999999999964},{"name":"B3","midi":59,"time":15.300000000000004,"velocity":0.7480314960629921,"duration":0.1437500000000007},{"name":"C4","midi":60,"time":15.450000000000005,"velocity":0.7480314960629921,"duration":0.1437500000000007},{"name":"D4","midi":62,"time":15.600000000000005,"velocity":0.7480314960629921,"duration":0.1437500000000007},{"name":"B3","midi":59,"time":15.750000000000005,"velocity":0.7480314960629921,"duration":0.1437500000000007},{"name":"G3","midi":55,"time":15.900000000000006,"velocity":0.7480314960629921,"duration":0.1437500000000007},{"name":"B3","midi":59,"time":16.050000000000008,"velocity":0.7480314960629921,"duration":0.1437500000000007},{"name":"C3","midi":48,"time":16.20000000000001,"velocity":0.7480314960629921,"duration":0.10000000000000142},{"name":"C4","midi":60,"time":16.50000000000001,"velocity":0.7480314960629921,"duration":0.10000000000000142},{"name":"G3","midi":55,"time":16.80000000000001,"velocity":0.7480314960629921,"duration":0.10000000000000142},{"name":"A3","midi":57,"time":17.100000000000012,"velocity":0.7480314960629921,"duration":0.1437500000000007},{"name":"B3","midi":59,"time":17.250000000000014,"velocity":0.7480314960629921,"duration":0.1437500000000007},{"name":"C4","midi":60,"time":17.400000000000016,"velocity":0.7480314960629921,"duration":0.1437500000000007},{"name":"A3","midi":57,"time":17.55000000000002,"velocity":0.7480314960629921,"duration":0.1437500000000007},{"name":"F#3","midi":54,"time":17.70000000000002,"velocity":0.7480314960629921,"duration":0.1437500000000007},{"name":"A3","midi":57,"time":17.850000000000023,"velocity":0.7480314960629921,"duration":0.1437500000000007},{"name":"B2","midi":47,"time":18.000000000000025,"velocity":0.7480314960629921,"duration":0.10000000000000142},{"name":"B3","midi":59,"time":18.300000000000026,"velocity":0.7480314960629921,"duration":0.10000000000000142},{"name":"F#3","midi":54,"time":18.600000000000026,"velocity":0.7480314960629921,"duration":0.10000000000000142},{"name":"G3","midi":55,"time":18.900000000000027,"velocity":0.7480314960629921,"duration":0.3000000000000007},{"name":"A3","midi":57,"time":19.200000000000028,"velocity":0.7480314960629921,"duration":0.10000000000000142},{"name":"E3","midi":52,"time":19.50000000000003,"velocity":0.7480314960629921,"duration":0.10000000000000142},{"name":"F#3","midi":54,"time":19.80000000000003,"velocity":0.7480314960629921,"duration":0.3000000000000007},{"name":"G3","midi":55,"time":20.10000000000003,"velocity":0.7480314960629921,"duration":0.10000000000000142},{"name":"D3","midi":50,"time":20.40000000000003,"velocity":0.7480314960629921,"duration":0.10000000000000142},{"name":"E3","midi":52,"time":20.70000000000003,"velocity":0.7480314960629921,"duration":0.3000000000000007},{"name":"F#3","midi":54,"time":21.000000000000032,"velocity":0.7480314960629921,"duration":0.10000000000000142},{"name":"D3","midi":50,"time":21.300000000000033,"velocity":0.7480314960629921,"duration":0.10000000000000142},{"name":"G3","midi":55,"time":21.600000000000033,"velocity":0.7480314960629921,"duration":0.2937499999999993},{"name":"G2","midi":43,"time":22.500000000000032,"velocity":0.7480314960629921,"duration":0.1437500000000007},{"name":"F#2","midi":42,"time":22.650000000000034,"velocity":0.7480314960629921,"duration":0.1437500000000007},{"name":"E2","midi":40,"time":22.800000000000036,"velocity":0.7480314960629921,"duration":0.1437500000000007},{"name":"D2","midi":38,"time":22.95000000000004,"velocity":0.7480314960629921,"duration":0.1437500000000007},{"name":"B2","midi":47,"time":23.10000000000004,"velocity":0.7480314960629921,"duration":0.10000000000000142},{"name":"A2","midi":45,"time":23.40000000000004,"velocity":0.7480314960629921,"duration":0.10000000000000142},{"name":"G2","midi":43,"time":24.300000000000043,"velocity":0.7480314960629921,"duration":0.1437500000000007},{"name":"F#2","midi":42,"time":24.450000000000045,"velocity":0.7480314960629921,"duration":0.1437500000000007},{"name":"E2","midi":40,"time":24.600000000000048,"velocity":0.7480314960629921,"duration":0.1437500000000007},{"name":"D2","midi":38,"time":24.75000000000005,"velocity":0.7480314960629921,"duration":0.1437500000000007},{"name":"C3","midi":48,"time":24.900000000000052,"velocity":0.7480314960629921,"duration":0.10000000000000142},{"name":"B2","midi":47,"time":25.200000000000053,"velocity":0.7480314960629921,"duration":0.10000000000000142},{"name":"D3","midi":50,"time":26.100000000000055,"velocity":0.7480314960629921,"duration":0.1437500000000007},{"name":"B2","midi":47,"time":26.250000000000057,"velocity":0.7480314960629921,"duration":0.1437500000000007},{"name":"A2","midi":45,"time":26.40000000000006,"velocity":0.7480314960629921,"duration":0.1437500000000007},{"name":"G2","midi":43,"time":26.55000000000006,"velocity":0.7480314960629921,"duration":0.1437500000000007},{"name":"E3","midi":52,"time":26.700000000000063,"velocity":0.7480314960629921,"duration":0.1437500000000007},{"name":"C3","midi":48,"time":26.850000000000065,"velocity":0.7480314960629921,"duration":0.1437500000000007},{"name":"D3","midi":50,"time":27.000000000000068,"velocity":0.7480314960629921,"duration":0.1437500000000007},{"name":"B2","midi":47,"time":27.15000000000007,"velocity":0.7480314960629921,"duration":0.1437500000000007},{"name":"A2","midi":45,"time":27.30000000000007,"velocity":0.7480314960629921,"duration":0.1437500000000007},{"name":"G2","midi":43,"time":27.450000000000074,"velocity":0.7480314960629921,"duration":0.1437500000000007},{"name":"C3","midi":48,"time":27.600000000000076,"velocity":0.7480314960629921,"duration":0.1437500000000007},{"name":"A2","midi":45,"time":27.750000000000078,"velocity":0.7480314960629921,"duration":0.1437500000000007},{"name":"C3","midi":48,"time":27.90000000000008,"velocity":0.7480314960629921,"duration":0.1437500000000007},{"name":"B2","midi":47,"time":28.050000000000082,"velocity":0.7480314960629921,"duration":0.1437500000000007},{"name":"A2","midi":45,"time":28.200000000000085,"velocity":0.7480314960629921,"duration":0.1437500000000007},{"name":"G2","midi":43,"time":28.350000000000087,"velocity":0.7480314960629921,"duration":0.1437500000000007},{"name":"A2","midi":45,"time":28.50000000000009,"velocity":0.7480314960629921,"duration":0.1437500000000007},{"name":"F#2","midi":42,"time":28.65000000000009,"velocity":0.7480314960629921,"duration":0.1437500000000007},{"name":"G2","midi":43,"time":28.800000000000093,"velocity":0.7480314960629921,"duration":0.1437500000000007},{"name":"D2","midi":38,"time":28.950000000000095,"velocity":0.7480314960629921,"duration":0.1437500000000007},{"name":"E2","midi":40,"time":29.100000000000097,"velocity":0.7480314960629921,"duration":0.1437500000000007},{"name":"F#2","midi":42,"time":29.2500000000001,"velocity":0.7480314960629921,"duration":0.1437500000000007},{"name":"G2","midi":43,"time":29.4000000000001,"velocity":0.7480314960629921,"duration":0.1437500000000007},{"name":"A2","midi":45,"time":29.550000000000104,"velocity":0.7480314960629921,"duration":0.1437500000000007},{"name":"B2","midi":47,"time":29.700000000000106,"velocity":0.7480314960629921,"duration":0.1437500000000007},{"name":"D3","midi":50,"time":29.850000000000108,"velocity":0.7480314960629921,"duration":0.1437500000000007},{"name":"C3","midi":48,"time":30.00000000000011,"velocity":0.7480314960629921,"duration":0.1437500000000007},{"name":"B2","midi":47,"time":30.150000000000112,"velocity":0.7480314960629921,"duration":0.1437500000000007},{"name":"C3","midi":48,"time":30.300000000000114,"velocity":0.7480314960629921,"duration":0.1437500000000007},{"name":"A2","midi":45,"time":30.450000000000117,"velocity":0.7480314960629921,"duration":0.1437500000000007},{"name":"B2","midi":47,"time":30.60000000000012,"velocity":0.7480314960629921,"duration":0.1437500000000007},{"name":"G2","midi":43,"time":30.75000000000012,"velocity":0.7480314960629921,"duration":0.1437500000000007},{"name":"A2","midi":45,"time":30.900000000000123,"velocity":0.7480314960629921,"duration":0.1437500000000007},{"name":"B2","midi":47,"time":31.050000000000125,"velocity":0.7480314960629921,"duration":0.1437500000000007},{"name":"C3","midi":48,"time":31.200000000000127,"velocity":0.7480314960629921,"duration":0.1437500000000007},{"name":"D3","midi":50,"time":31.35000000000013,"velocity":0.7480314960629921,"duration":0.1437500000000007},{"name":"E3","midi":52,"time":31.50000000000013,"velocity":0.7480314960629921,"duration":0.1437500000000007},{"name":"G3","midi":55,"time":31.650000000000134,"velocity":0.7480314960629921,"duration":0.1437500000000007},{"name":"F#3","midi":54,"time":31.800000000000136,"velocity":0.7480314960629921,"duration":0.1437500000000007},{"name":"E3","midi":52,"time":31.950000000000138,"velocity":0.7480314960629921,"duration":0.14374999999999716},{"name":"D3","midi":50,"time":32.100000000000136,"velocity":0.7480314960629921,"duration":0.14374999999999716},{"name":"C#3","midi":49,"time":32.250000000000135,"velocity":0.7480314960629921,"duration":0.14374999999999716},{"name":"A3","midi":57,"time":32.400000000000134,"velocity":0.7480314960629921,"duration":0.14374999999999716},{"name":"D3","midi":50,"time":32.55000000000013,"velocity":0.7480314960629921,"duration":0.14374999999999716},{"name":"E3","midi":52,"time":32.70000000000013,"velocity":0.7480314960629921,"duration":0.14374999999999716},{"name":"F#3","midi":54,"time":32.85000000000013,"velocity":0.7480314960629921,"duration":0.14374999999999716},{"name":"G3","midi":55,"time":33.00000000000013,"velocity":0.7480314960629921,"duration":0.14374999999999716},{"name":"A3","midi":57,"time":33.15000000000013,"velocity":0.7480314960629921,"duration":0.14374999999999716},{"name":"B3","midi":59,"time":33.300000000000125,"velocity":0.7480314960629921,"duration":0.14374999999999716},{"name":"A3","midi":57,"time":33.450000000000124,"velocity":0.7480314960629921,"duration":0.14374999999999716},{"name":"G3","midi":55,"time":33.60000000000012,"velocity":0.7480314960629921,"duration":0.14374999999999716},{"name":"F#3","midi":54,"time":33.75000000000012,"velocity":0.7480314960629921,"duration":0.14374999999999716},{"name":"G3","midi":55,"time":33.90000000000012,"velocity":0.7480314960629921,"duration":0.14374999999999716},{"name":"E3","midi":52,"time":34.05000000000012,"velocity":0.7480314960629921,"duration":0.14374999999999716},{"name":"F#3","midi":54,"time":34.20000000000012,"velocity":0.7480314960629921,"duration":0.14374999999999716},{"name":"A3","midi":57,"time":34.350000000000115,"velocity":0.7480314960629921,"duration":0.14374999999999716},{"name":"G3","midi":55,"time":34.500000000000114,"velocity":0.7480314960629921,"duration":0.14374999999999716},{"name":"F#3","midi":54,"time":34.65000000000011,"velocity":0.7480314960629921,"duration":0.14374999999999716},{"name":"E3","midi":52,"time":34.80000000000011,"velocity":0.7480314960629921,"duration":0.14374999999999716},{"name":"D3","midi":50,"time":34.95000000000011,"velocity":0.7480314960629921,"duration":0.14374999999999716},{"name":"C#3","midi":49,"time":35.10000000000011,"velocity":0.7480314960629921,"duration":0.14374999999999716},{"name":"D3","midi":50,"time":35.25000000000011,"velocity":0.7480314960629921,"duration":0.14374999999999716},{"name":"E3","midi":52,"time":35.400000000000105,"velocity":0.7480314960629921,"duration":0.14374999999999716},{"name":"F#3","midi":54,"time":35.550000000000104,"velocity":0.7480314960629921,"duration":0.14374999999999716},{"name":"G3","midi":55,"time":35.7000000000001,"velocity":0.7480314960629921,"duration":0.4437500000000014},{"name":"E3","midi":52,"time":36.150000000000105,"velocity":0.7480314960629921,"duration":0.14374999999999716},{"name":"F#3","midi":54,"time":36.300000000000104,"velocity":0.7480314960629921,"duration":0.14374999999999716},{"name":"D3","midi":50,"time":36.4500000000001,"velocity":0.7480314960629921,"duration":0.14374999999999716},{"name":"C#3","midi":49,"time":36.6000000000001,"velocity":0.7480314960629921,"duration":0.14374999999999716},{"name":"D3","midi":50,"time":36.7500000000001,"velocity":0.7480314960629921,"duration":0.14374999999999716},{"name":"B3","midi":59,"time":36.9000000000001,"velocity":0.7480314960629921,"duration":1.0437500000000028},{"name":"D3","midi":50,"time":37.9500000000001,"velocity":0.7480314960629921,"duration":0.14374999999999716},{"name":"E3","midi":52,"time":38.1000000000001,"velocity":0.7480314960629921,"duration":0.14374999999999716},{"name":"C3","midi":48,"time":38.2500000000001,"velocity":0.7480314960629921,"duration":0.14374999999999716},{"name":"B2","midi":47,"time":38.4000000000001,"velocity":0.7480314960629921,"duration":0.14374999999999716},{"name":"C3","midi":48,"time":38.5500000000001,"velocity":0.7480314960629921,"duration":0.14374999999999716},{"name":"A3","midi":57,"time":38.700000000000095,"velocity":0.7480314960629921,"duration":1.0437500000000028},{"name":"F#3","midi":54,"time":39.7500000000001,"velocity":0.7480314960629921,"duration":0.14374999999999716},{"name":"G3","midi":55,"time":39.9000000000001,"velocity":0.7480314960629921,"duration":0.14374999999999716},{"name":"E3","midi":52,"time":40.0500000000001,"velocity":0.7480314960629921,"duration":0.14374999999999716},{"name":"D#3","midi":51,"time":40.200000000000095,"velocity":0.7480314960629921,"duration":0.14374999999999716},{"name":"E3","midi":52,"time":40.350000000000094,"velocity":0.7480314960629921,"duration":0.14374999999999716},{"name":"C4","midi":60,"time":40.50000000000009,"velocity":0.7480314960629921,"duration":1.0437500000000028},{"name":"B3","midi":59,"time":41.5500000000001,"velocity":0.7480314960629921,"duration":0.14374999999999716},{"name":"A3","midi":57,"time":41.700000000000095,"velocity":0.7480314960629921,"duration":0.14374999999999716},{"name":"G3","midi":55,"time":41.850000000000094,"velocity":0.7480314960629921,"duration":0.14374999999999716},{"name":"F#3","midi":54,"time":42.00000000000009,"velocity":0.7480314960629921,"duration":0.14374999999999716},{"name":"E3","midi":52,"time":42.15000000000009,"velocity":0.7480314960629921,"duration":0.14374999999999716},{"name":"D#3","midi":51,"time":42.30000000000009,"velocity":0.7480314960629921,"duration":0.10000000000000142},{"name":"E3","midi":52,"time":42.600000000000094,"velocity":0.7480314960629921,"duration":0.10000000000000142},{"name":"C3","midi":48,"time":42.9000000000001,"velocity":0.7480314960629921,"duration":0.10000000000000142},{"name":"B2","midi":47,"time":43.2000000000001,"velocity":0.7480314960629921,"duration":0.10000000000000142},{"name":"B3","midi":59,"time":43.50000000000011,"velocity":0.7480314960629921,"duration":0.14374999999999716},{"name":"A3","midi":57,"time":43.650000000000105,"velocity":0.7480314960629921,"duration":0.14374999999999716},{"name":"G3","midi":55,"time":43.800000000000104,"velocity":0.7480314960629921,"duration":0.14374999999999716},{"name":"F#3","midi":54,"time":43.9500000000001,"velocity":0.7480314960629921,"duration":0.14374999999999716},{"name":"E3","midi":52,"time":44.1000000000001,"velocity":0.7480314960629921,"duration":0.10000000000000142},{"name":"E2","midi":40,"time":44.400000000000105,"velocity":0.7480314960629921,"duration":0.29999999999999716},{"name":"F#2","midi":42,"time":44.7000000000001,"velocity":0.7480314960629921,"duration":0.29999999999999716},{"name":"G2","midi":43,"time":45.0000000000001,"velocity":0.7480314960629921,"duration":0.10000000000000142},{"name":"B2","midi":47,"time":45.300000000000104,"velocity":0.7480314960629921,"duration":0.29999999999999716},{"name":"A2","midi":45,"time":45.6000000000001,"velocity":0.7480314960629921,"duration":0.29999999999999716},{"name":"G2","midi":43,"time":45.9000000000001,"velocity":0.7480314960629921,"duration":0.10000000000000142},{"name":"E2","midi":40,"time":46.2000000000001,"velocity":0.7480314960629921,"duration":0.10000000000000142},{"name":"E3","midi":52,"time":46.50000000000011,"velocity":0.7480314960629921,"duration":0.10000000000000142},{"name":"A2","midi":45,"time":46.80000000000011,"velocity":0.7480314960629921,"duration":0.14374999999999716},{"name":"B2","midi":47,"time":46.95000000000011,"velocity":0.7480314960629921,"duration":0.14374999999999716},{"name":"C#3","midi":49,"time":47.10000000000011,"velocity":0.7480314960629921,"duration":0.14374999999999716},{"name":"D3","midi":50,"time":47.25000000000011,"velocity":0.7480314960629921,"duration":0.14374999999999716},{"name":"E3","midi":52,"time":47.400000000000105,"velocity":0.7480314960629921,"duration":0.14374999999999716},{"name":"C#3","midi":49,"time":47.550000000000104,"velocity":0.7480314960629921,"duration":0.14374999999999716},{"name":"D3","midi":50,"time":47.7000000000001,"velocity":0.7480314960629921,"duration":0.10000000000000142},{"name":"D2","midi":38,"time":48.00000000000011,"velocity":0.7480314960629921,"duration":0.29999999999999716},{"name":"E2","midi":40,"time":48.300000000000104,"velocity":0.7480314960629921,"duration":0.29999999999999716},{"name":"F#2","midi":42,"time":48.6000000000001,"velocity":0.7480314960629921,"duration":0.10000000000000142},{"name":"A2","midi":45,"time":48.900000000000105,"velocity":0.7480314960629921,"duration":0.29999999999999716},{"name":"G2","midi":43,"time":49.2000000000001,"velocity":0.7480314960629921,"duration":0.29999999999999716},{"name":"F#2","midi":42,"time":49.5000000000001,"velocity":0.7480314960629921,"duration":0.10000000000000142},{"name":"D2","midi":38,"time":49.800000000000104,"velocity":0.7480314960629921,"duration":0.10000000000000142},{"name":"D3","midi":50,"time":50.10000000000011,"velocity":0.7480314960629921,"duration":0.10000000000000142},{"name":"G2","midi":43,"time":50.40000000000011,"velocity":0.7480314960629921,"duration":0.14374999999999716},{"name":"A2","midi":45,"time":50.55000000000011,"velocity":0.7480314960629921,"duration":0.14374999999999716},{"name":"B2","midi":47,"time":50.70000000000011,"velocity":0.7480314960629921,"duration":0.14374999999999716},{"name":"C3","midi":48,"time":50.85000000000011,"velocity":0.7480314960629921,"duration":0.14374999999999716},{"name":"D3","midi":50,"time":51.00000000000011,"velocity":0.7480314960629921,"duration":0.14374999999999716},{"name":"B2","midi":47,"time":51.150000000000105,"velocity":0.7480314960629921,"duration":0.14374999999999716},{"name":"C3","midi":48,"time":51.300000000000104,"velocity":0.7480314960629921,"duration":0.10000000000000142},{"name":"C4","midi":60,"time":51.60000000000011,"velocity":0.7480314960629921,"duration":0.10000000000000142},{"name":"F#3","midi":54,"time":51.90000000000011,"velocity":0.7480314960629921,"duration":0.10000000000000142},{"name":"A3","midi":57,"time":52.20000000000012,"velocity":0.7480314960629921,"duration":0.10000000000000142},{"name":"D#3","midi":51,"time":52.50000000000012,"velocity":0.7480314960629921,"duration":0.10000000000000142},{"name":"F#3","midi":54,"time":52.800000000000125,"velocity":0.7480314960629921,"duration":0.10000000000000142},{"name":"B2","midi":47,"time":53.10000000000013,"velocity":0.7480314960629921,"duration":0.14374999999999716},{"name":"C#3","midi":49,"time":53.25000000000013,"velocity":0.7480314960629921,"duration":0.14374999999999716},{"name":"D#3","midi":51,"time":53.40000000000013,"velocity":0.7480314960629921,"duration":0.14374999999999716},{"name":"E3","midi":52,"time":53.550000000000125,"velocity":0.7480314960629921,"duration":0.14374999999999716},{"name":"F#3","midi":54,"time":53.700000000000124,"velocity":0.7480314960629921,"duration":0.14374999999999716},{"name":"D#3","midi":51,"time":53.85000000000012,"velocity":0.7480314960629921,"duration":0.14374999999999716},{"name":"E3","midi":52,"time":54.00000000000012,"velocity":0.7480314960629921,"duration":0.10000000000000142},{"name":"E2","midi":40,"time":54.300000000000125,"velocity":0.7480314960629921,"duration":0.10000000000000142},{"name":"E3","midi":52,"time":54.90000000000013,"velocity":0.7480314960629921,"duration":0.14374999999999716},{"name":"D#3","midi":51,"time":55.050000000000125,"velocity":0.7480314960629921,"duration":0.14374999999999716},{"name":"C#3","midi":49,"time":55.200000000000124,"velocity":0.7480314960629921,"duration":0.14374999999999716},{"name":"B2","midi":47,"time":55.35000000000012,"velocity":0.7480314960629921,"duration":0.14374999999999716},{"name":"G3","midi":55,"time":55.50000000000012,"velocity":0.7480314960629921,"duration":0.10000000000000142},{"name":"F#3","midi":54,"time":55.800000000000125,"velocity":0.7480314960629921,"duration":0.10000000000000142},{"name":"E3","midi":52,"time":56.700000000000124,"velocity":0.7480314960629921,"duration":0.14374999999999716},{"name":"D#3","midi":51,"time":56.85000000000012,"velocity":0.7480314960629921,"duration":0.14374999999999716},{"name":"C#3","midi":49,"time":57.00000000000012,"velocity":0.7480314960629921,"duration":0.14374999999999716},{"name":"B2","midi":47,"time":57.15000000000012,"velocity":0.7480314960629921,"duration":0.14374999999999716},{"name":"A3","midi":57,"time":57.30000000000012,"velocity":0.7480314960629921,"duration":0.10000000000000142},{"name":"G3","midi":55,"time":57.60000000000012,"velocity":0.7480314960629921,"duration":0.10000000000000142},{"name":"B3","midi":59,"time":58.50000000000012,"velocity":0.7480314960629921,"duration":0.14374999999999716},{"name":"G3","midi":55,"time":58.65000000000012,"velocity":0.7480314960629921,"duration":0.14374999999999716},{"name":"F#3","midi":54,"time":58.80000000000012,"velocity":0.7480314960629921,"duration":0.14374999999999716},{"name":"E3","midi":52,"time":58.95000000000012,"velocity":0.7480314960629921,"duration":0.14374999999999716},{"name":"C4","midi":60,"time":59.100000000000115,"velocity":0.7480314960629921,"duration":0.14374999999999716},{"name":"A3","midi":57,"time":59.250000000000114,"velocity":0.7480314960629921,"duration":0.14374999999999716},{"name":"B3","midi":59,"time":59.40000000000011,"velocity":0.7480314960629921,"duration":0.14374999999999716},{"name":"G3","midi":55,"time":59.55000000000011,"velocity":0.7480314960629921,"duration":0.14374999999999716},{"name":"F#3","midi":54,"time":59.70000000000011,"velocity":0.7480314960629921,"duration":0.14374999999999716},{"name":"E3","midi":52,"time":59.85000000000011,"velocity":0.7480314960629921,"duration":0.14374999999999716},{"name":"A3","midi":57,"time":60.00000000000011,"velocity":0.7480314960629921,"duration":0.14374999999999716},{"name":"F#3","midi":54,"time":60.150000000000105,"velocity":0.7480314960629921,"duration":0.14374999999999716},{"name":"A3","midi":57,"time":60.300000000000104,"velocity":0.7480314960629921,"duration":0.14374999999999716},{"name":"G3","midi":55,"time":60.4500000000001,"velocity":0.7480314960629921,"duration":0.14374999999999716},{"name":"F#3","midi":54,"time":60.6000000000001,"velocity":0.7480314960629921,"duration":0.14374999999999716},{"name":"E3","midi":52,"time":60.7500000000001,"velocity":0.7480314960629921,"duration":0.14374999999999716},{"name":"F#3","midi":54,"time":60.9000000000001,"velocity":0.7480314960629921,"duration":0.14374999999999716},{"name":"D#3","midi":51,"time":61.0500000000001,"velocity":0.7480314960629921,"duration":0.14374999999999716},{"name":"E3","midi":52,"time":61.200000000000095,"velocity":0.7480314960629921,"duration":0.14374999999999716},{"name":"B2","midi":47,"time":61.350000000000094,"velocity":0.7480314960629921,"duration":0.14374999999999716},{"name":"C#3","midi":49,"time":61.50000000000009,"velocity":0.7480314960629921,"duration":0.14374999999999716},{"name":"D#3","midi":51,"time":61.65000000000009,"velocity":0.7480314960629921,"duration":0.14374999999999716},{"name":"E3","midi":52,"time":61.80000000000009,"velocity":0.7480314960629921,"duration":0.14374999999999716},{"name":"F#3","midi":54,"time":61.95000000000009,"velocity":0.7480314960629921,"duration":0.14374999999999716},{"name":"G3","midi":55,"time":62.10000000000009,"velocity":0.7480314960629921,"duration":0.14374999999999716},{"name":"B3","midi":59,"time":62.250000000000085,"velocity":0.7480314960629921,"duration":0.14374999999999716},{"name":"A3","midi":57,"time":62.400000000000084,"velocity":0.7480314960629921,"duration":0.14374999999999716},{"name":"G3","midi":55,"time":62.55000000000008,"velocity":0.7480314960629921,"duration":0.14374999999999716},{"name":"A3","midi":57,"time":62.70000000000008,"velocity":0.7480314960629921,"duration":0.14374999999999716},{"name":"F#3","midi":54,"time":62.85000000000008,"velocity":0.7480314960629921,"duration":0.14374999999999716},{"name":"G3","midi":55,"time":63.00000000000008,"velocity":0.7480314960629921,"duration":0.14374999999999716},{"name":"E3","midi":52,"time":63.15000000000008,"velocity":0.7480314960629921,"duration":0.14374999999999716},{"name":"F#3","midi":54,"time":63.300000000000075,"velocity":0.7480314960629921,"duration":0.14374999999999716},{"name":"G3","midi":55,"time":63.450000000000074,"velocity":0.7480314960629921,"duration":0.14374999999999716},{"name":"A3","midi":57,"time":63.60000000000007,"velocity":0.7480314960629921,"duration":0.14374999999999716},{"name":"B3","midi":59,"time":63.75000000000007,"velocity":0.7480314960629921,"duration":0.14374999999999716},{"name":"C#4","midi":61,"time":63.90000000000007,"velocity":0.7480314960629921,"duration":0.14375000000000426},{"name":"E4","midi":64,"time":64.05000000000007,"velocity":0.7480314960629921,"duration":0.14374999999999716},{"name":"D#4","midi":63,"time":64.20000000000006,"velocity":0.7480314960629921,"duration":0.14374999999999716},{"name":"C#4","midi":61,"time":64.35000000000005,"velocity":0.7480314960629921,"duration":0.14374999999999716},{"name":"B3","midi":59,"time":64.50000000000004,"velocity":0.7480314960629921,"duration":0.14374999999999716},{"name":"A#3","midi":58,"time":64.65000000000003,"velocity":0.7480314960629921,"duration":0.14374999999999716},{"name":"F#4","midi":66,"time":64.80000000000003,"velocity":0.7480314960629921,"duration":0.14374999999999716},{"name":"B3","midi":59,"time":64.95000000000002,"velocity":0.7480314960629921,"duration":0.14374999999999716},{"name":"C#4","midi":61,"time":65.10000000000001,"velocity":0.7480314960629921,"duration":0.14374999999999716},{"name":"D#4","midi":63,"time":65.25,"velocity":0.7480314960629921,"duration":0.14374999999999716},{"name":"E4","midi":64,"time":65.39999999999999,"velocity":0.7480314960629921,"duration":0.14374999999999716},{"name":"F#4","midi":66,"time":65.54999999999998,"velocity":0.7480314960629921,"duration":0.14374999999999716},{"name":"G4","midi":67,"time":65.69999999999997,"velocity":0.7480314960629921,"duration":0.14374999999999716},{"name":"F#4","midi":66,"time":65.84999999999997,"velocity":0.7480314960629921,"duration":0.14374999999999716},{"name":"E4","midi":64,"time":65.99999999999996,"velocity":0.7480314960629921,"duration":0.14374999999999716},{"name":"D4","midi":62,"time":66.14999999999995,"velocity":0.7480314960629921,"duration":0.14374999999999716},{"name":"E4","midi":64,"time":66.29999999999994,"velocity":0.7480314960629921,"duration":0.14374999999999716},{"name":"C#4","midi":61,"time":66.44999999999993,"velocity":0.7480314960629921,"duration":0.14374999999999716},{"name":"D4","midi":62,"time":66.59999999999992,"velocity":0.7480314960629921,"duration":0.09999999999999432},{"name":"D3","midi":50,"time":66.89999999999992,"velocity":0.7480314960629921,"duration":0.09999999999999432},{"name":"G3","midi":55,"time":67.19999999999992,"velocity":0.7480314960629921,"duration":0.09999999999999432},{"name":"E3","midi":52,"time":67.49999999999991,"velocity":0.7480314960629921,"duration":0.09999999999999432},{"name":"F#3","midi":54,"time":67.79999999999991,"velocity":0.7480314960629921,"duration":0.09999999999999432},{"name":"F#2","midi":42,"time":68.09999999999991,"velocity":0.7480314960629921,"duration":0.09999999999999432},{"name":"B2","midi":47,"time":68.3999999999999,"velocity":0.7480314960629921,"duration":0.14374999999999716},{"name":"F#3","midi":54,"time":68.5499999999999,"velocity":0.7480314960629921,"duration":0.14374999999999716},{"name":"G#3","midi":56,"time":68.69999999999989,"velocity":0.7480314960629921,"duration":0.14374999999999716},{"name":"A#3","midi":58,"time":68.84999999999988,"velocity":0.7480314960629921,"duration":0.14374999999999716},{"name":"B3","midi":59,"time":68.99999999999987,"velocity":0.7480314960629921,"duration":0.14374999999999716},{"name":"C#4","midi":61,"time":69.14999999999986,"velocity":0.7480314960629921,"duration":0.14374999999999716},{"name":"D4","midi":62,"time":69.29999999999986,"velocity":0.7480314960629921,"duration":0.14374999999999716},{"name":"C#4","midi":61,"time":69.44999999999985,"velocity":0.7480314960629921,"duration":0.14374999999999716},{"name":"D4","midi":62,"time":69.59999999999984,"velocity":0.7480314960629921,"duration":0.14374999999999716},{"name":"B3","midi":59,"time":69.74999999999983,"velocity":0.7480314960629921,"duration":0.14374999999999716},{"name":"A#3","midi":58,"time":69.89999999999982,"velocity":0.7480314960629921,"duration":0.14374999999999716},{"name":"B3","midi":59,"time":70.04999999999981,"velocity":0.7480314960629921,"duration":0.14374999999999716},{"name":"F#3","midi":54,"time":70.1999999999998,"velocity":0.7480314960629921,"duration":0.14374999999999716},{"name":"B3","midi":59,"time":70.3499999999998,"velocity":0.7480314960629921,"duration":0.14374999999999716},{"name":"D4","midi":62,"time":70.49999999999979,"velocity":0.7480314960629921,"duration":0.14374999999999716},{"name":"B3","midi":59,"time":70.64999999999978,"velocity":0.7480314960629921,"duration":0.14374999999999716},{"name":"A#3","midi":58,"time":70.79999999999977,"velocity":0.7480314960629921,"duration":0.14374999999999716},{"name":"B3","midi":59,"time":70.94999999999976,"velocity":0.7480314960629921,"duration":0.14374999999999716},{"name":"F3","midi":53,"time":71.09999999999975,"velocity":0.7480314960629921,"duration":0.14374999999999716},{"name":"B3","midi":59,"time":71.24999999999974,"velocity":0.7480314960629921,"duration":0.14374999999999716},{"name":"D4","midi":62,"time":71.39999999999974,"velocity":0.7480314960629921,"duration":0.14374999999999716},{"name":"B3","midi":59,"time":71.54999999999973,"velocity":0.7480314960629921,"duration":0.14374999999999716},{"name":"A3","midi":57,"time":71.69999999999972,"velocity":0.7480314960629921,"duration":0.14374999999999716},{"name":"B3","midi":59,"time":71.84999999999971,"velocity":0.7480314960629921,"duration":0.14374999999999716},{"name":"E3","midi":52,"time":71.9999999999997,"velocity":0.7480314960629921,"duration":0.14374999999999716},{"name":"B3","midi":59,"time":72.1499999999997,"velocity":0.7480314960629921,"duration":0.14374999999999716},{"name":"E4","midi":64,"time":72.29999999999968,"velocity":0.7480314960629921,"duration":0.14374999999999716},{"name":"D4","midi":62,"time":72.44999999999968,"velocity":0.7480314960629921,"duration":0.14374999999999716},{"name":"C4","midi":60,"time":72.59999999999967,"velocity":0.7480314960629921,"duration":0.14374999999999716},{"name":"B3","midi":59,"time":72.74999999999966,"velocity":0.7480314960629921,"duration":0.14374999999999716},{"name":"A3","midi":57,"time":72.89999999999965,"velocity":0.7480314960629921,"duration":0.14374999999999716},{"name":"B3","midi":59,"time":73.04999999999964,"velocity":0.7480314960629921,"duration":0.14374999999999716},{"name":"C4","midi":60,"time":73.19999999999963,"velocity":0.7480314960629921,"duration":0.14374999999999716},{"name":"A3","midi":57,"time":73.34999999999962,"velocity":0.7480314960629921,"duration":0.14374999999999716},{"name":"G#3","midi":56,"time":73.49999999999962,"velocity":0.7480314960629921,"duration":0.14374999999999716},{"name":"A3","midi":57,"time":73.64999999999961,"velocity":0.7480314960629921,"duration":0.14374999999999716},{"name":"E3","midi":52,"time":73.7999999999996,"velocity":0.7480314960629921,"duration":0.14374999999999716},{"name":"A3","midi":57,"time":73.94999999999959,"velocity":0.7480314960629921,"duration":0.14374999999999716},{"name":"C4","midi":60,"time":74.09999999999958,"velocity":0.7480314960629921,"duration":0.14374999999999716},{"name":"A3","midi":57,"time":74.24999999999957,"velocity":0.7480314960629921,"duration":0.14374999999999716},{"name":"G#3","midi":56,"time":74.39999999999957,"velocity":0.7480314960629921,"duration":0.14374999999999716},{"name":"A3","midi":57,"time":74.54999999999956,"velocity":0.7480314960629921,"duration":0.14374999999999716},{"name":"D#3","midi":51,"time":74.69999999999955,"velocity":0.7480314960629921,"duration":0.14374999999999716},{"name":"A3","midi":57,"time":74.84999999999954,"velocity":0.7480314960629921,"duration":0.14374999999999716},{"name":"C4","midi":60,"time":74.99999999999953,"velocity":0.7480314960629921,"duration":0.14374999999999716},{"name":"A3","midi":57,"time":75.14999999999952,"velocity":0.7480314960629921,"duration":0.14374999999999716},{"name":"G3","midi":55,"time":75.29999999999951,"velocity":0.7480314960629921,"duration":0.14374999999999716},{"name":"A3","midi":57,"time":75.4499999999995,"velocity":0.7480314960629921,"duration":0.14374999999999716},{"name":"D3","midi":50,"time":75.5999999999995,"velocity":0.7480314960629921,"duration":0.14374999999999716},{"name":"A3","midi":57,"time":75.74999999999949,"velocity":0.7480314960629921,"duration":0.14374999999999716},{"name":"D4","midi":62,"time":75.89999999999948,"velocity":0.7480314960629921,"duration":0.14374999999999716},{"name":"C4","midi":60,"time":76.04999999999947,"velocity":0.7480314960629921,"duration":0.14374999999999716},{"name":"B3","midi":59,"time":76.19999999999946,"velocity":0.7480314960629921,"duration":0.14374999999999716},{"name":"A3","midi":57,"time":76.34999999999945,"velocity":0.7480314960629921,"duration":0.14374999999999716},{"name":"G3","midi":55,"time":76.49999999999945,"velocity":0.7480314960629921,"duration":0.09999999999999432},{"name":"G2","midi":43,"time":76.79999999999944,"velocity":0.7480314960629921,"duration":0.29999999999999716},{"name":"B2","midi":47,"time":77.09999999999944,"velocity":0.7480314960629921,"duration":0.29999999999999716},{"name":"C3","midi":48,"time":77.39999999999944,"velocity":0.7480314960629921,"duration":0.09999999999999432},{"name":"A2","midi":45,"time":77.69999999999943,"velocity":0.7480314960629921,"duration":0.29999999999999716},{"name":"C3","midi":48,"time":77.99999999999943,"velocity":0.7480314960629921,"duration":0.29999999999999716},{"name":"D3","midi":50,"time":78.29999999999943,"velocity":0.7480314960629921,"duration":0.09999999999999432},{"name":"B2","midi":47,"time":78.59999999999943,"velocity":0.7480314960629921,"duration":0.29999999999999716},{"name":"D3","midi":50,"time":78.89999999999942,"velocity":0.7480314960629921,"duration":0.29999999999999716},{"name":"E3","midi":52,"time":79.19999999999942,"velocity":0.7480314960629921,"duration":0.09999999999999432},{"name":"C3","midi":48,"time":79.49999999999942,"velocity":0.7480314960629921,"duration":0.29999999999999716},{"name":"E3","midi":52,"time":79.79999999999941,"velocity":0.7480314960629921,"duration":0.29999999999999716},{"name":"F3","midi":53,"time":80.09999999999941,"velocity":0.7480314960629921,"duration":0.09999999999999432},{"name":"A2","midi":45,"time":80.39999999999941,"velocity":0.7480314960629921,"duration":0.09999999999999432},{"name":"F3","midi":53,"time":80.6999999999994,"velocity":0.7480314960629921,"duration":0.4437499999999943},{"name":"E3","midi":52,"time":81.1499999999994,"velocity":0.7480314960629921,"duration":0.14374999999999716},{"name":"F3","midi":53,"time":81.29999999999939,"velocity":0.7480314960629921,"duration":0.14374999999999716},{"name":"B2","midi":47,"time":81.44999999999938,"velocity":0.7480314960629921,"duration":0.14374999999999716},{"name":"A2","midi":45,"time":81.59999999999937,"velocity":0.7480314960629921,"duration":0.14374999999999716},{"name":"B2","midi":47,"time":81.74999999999936,"velocity":0.7480314960629921,"duration":0.14374999999999716},{"name":"E3","midi":52,"time":81.89999999999935,"velocity":0.7480314960629921,"duration":0.09999999999999432},{"name":"A3","midi":57,"time":82.19999999999935,"velocity":0.7480314960629921,"duration":0.09999999999999432},{"name":"F3","midi":53,"time":82.49999999999935,"velocity":0.7480314960629921,"duration":0.09999999999999432},{"name":"G3","midi":55,"time":82.79999999999934,"velocity":0.7480314960629921,"duration":0.09999999999999432},{"name":"G2","midi":43,"time":83.09999999999934,"velocity":0.7480314960629921,"duration":0.09999999999999432},{"name":"C3","midi":48,"time":83.69999999999933,"velocity":0.7480314960629921,"duration":0.14374999999999716},{"name":"B2","midi":47,"time":83.84999999999933,"velocity":0.7480314960629921,"duration":0.14374999999999716},{"name":"A2","midi":45,"time":83.99999999999932,"velocity":0.7480314960629921,"duration":0.14374999999999716},{"name":"G2","midi":43,"time":84.14999999999931,"velocity":0.7480314960629921,"duration":0.14374999999999716},{"name":"E3","midi":52,"time":84.2999999999993,"velocity":0.7480314960629921,"duration":0.09999999999999432},{"name":"D3","midi":50,"time":84.5999999999993,"velocity":0.7480314960629921,"duration":0.09999999999999432},{"name":"C3","midi":48,"time":85.49999999999929,"velocity":0.7480314960629921,"duration":0.14374999999999716},{"name":"B2","midi":47,"time":85.64999999999928,"velocity":0.7480314960629921,"duration":0.14374999999999716},{"name":"A2","midi":45,"time":85.79999999999927,"velocity":0.7480314960629921,"duration":0.14374999999999716},{"name":"G2","midi":43,"time":85.94999999999926,"velocity":0.7480314960629921,"duration":0.14374999999999716},{"name":"F3","midi":53,"time":86.09999999999926,"velocity":0.7480314960629921,"duration":0.09999999999999432},{"name":"E3","midi":52,"time":86.39999999999925,"velocity":0.7480314960629921,"duration":0.09999999999999432},{"name":"G3","midi":55,"time":87.29999999999924,"velocity":0.7480314960629921,"duration":0.14374999999999716},{"name":"E3","midi":52,"time":87.44999999999924,"velocity":0.7480314960629921,"duration":0.14374999999999716},{"name":"D3","midi":50,"time":87.59999999999923,"velocity":0.7480314960629921,"duration":0.14374999999999716},{"name":"C3","midi":48,"time":87.74999999999922,"velocity":0.7480314960629921,"duration":0.14374999999999716},{"name":"A3","midi":57,"time":87.89999999999921,"velocity":0.7480314960629921,"duration":0.14374999999999716},{"name":"F3","midi":53,"time":88.0499999999992,"velocity":0.7480314960629921,"duration":0.14374999999999716},{"name":"G3","midi":55,"time":88.19999999999919,"velocity":0.7480314960629921,"duration":0.14374999999999716},{"name":"E3","midi":52,"time":88.34999999999918,"velocity":0.7480314960629921,"duration":0.14374999999999716},{"name":"D3","midi":50,"time":88.49999999999918,"velocity":0.7480314960629921,"duration":0.14374999999999716},{"name":"C3","midi":48,"time":88.64999999999917,"velocity":0.7480314960629921,"duration":0.14374999999999716},{"name":"F3","midi":53,"time":88.79999999999916,"velocity":0.7480314960629921,"duration":0.14374999999999716},{"name":"D3","midi":50,"time":88.94999999999915,"velocity":0.7480314960629921,"duration":0.14374999999999716},{"name":"F3","midi":53,"time":89.09999999999914,"velocity":0.7480314960629921,"duration":0.14374999999999716},{"name":"E3","midi":52,"time":89.24999999999913,"velocity":0.7480314960629921,"duration":0.14374999999999716},{"name":"D3","midi":50,"time":89.39999999999912,"velocity":0.7480314960629921,"duration":0.14374999999999716},{"name":"C3","midi":48,"time":89.54999999999912,"velocity":0.7480314960629921,"duration":0.14374999999999716},{"name":"D3","midi":50,"time":89.69999999999911,"velocity":0.7480314960629921,"duration":0.14374999999999716},{"name":"B2","midi":47,"time":89.8499999999991,"velocity":0.7480314960629921,"duration":0.14374999999999716},{"name":"C3","midi":48,"time":89.99999999999909,"velocity":0.7480314960629921,"duration":0.09999999999999432},{"name":"C4","midi":60,"time":90.29999999999909,"velocity":0.7480314960629921,"duration":0.09999999999999432},{"name":"G3","midi":55,"time":90.59999999999908,"velocity":0.7480314960629921,"duration":0.09999999999999432},{"name":"A3","midi":57,"time":90.89999999999908,"velocity":0.7480314960629921,"duration":0.14374999999999716},{"name":"B3","midi":59,"time":91.04999999999907,"velocity":0.7480314960629921,"duration":0.14374999999999716},{"name":"C4","midi":60,"time":91.19999999999906,"velocity":0.7480314960629921,"duration":0.14374999999999716},{"name":"A3","midi":57,"time":91.34999999999906,"velocity":0.7480314960629921,"duration":0.14374999999999716},{"name":"G3","midi":55,"time":91.49999999999905,"velocity":0.7480314960629921,"duration":0.14374999999999716},{"name":"F#3","midi":54,"time":91.64999999999904,"velocity":0.7480314960629921,"duration":0.14374999999999716},{"name":"B3","midi":59,"time":91.79999999999903,"velocity":0.7480314960629921,"duration":0.09999999999999432},{"name":"B2","midi":47,"time":92.09999999999903,"velocity":0.7480314960629921,"duration":0.09999999999999432},{"name":"F#3","midi":54,"time":92.39999999999903,"velocity":0.7480314960629921,"duration":0.09999999999999432},{"name":"G#3","midi":56,"time":92.69999999999902,"velocity":0.7480314960629921,"duration":0.14374999999999716},{"name":"A3","midi":57,"time":92.84999999999901,"velocity":0.7480314960629921,"duration":0.14374999999999716},{"name":"B3","midi":59,"time":92.999999999999,"velocity":0.7480314960629921,"duration":0.14374999999999716},{"name":"G#3","midi":56,"time":93.149999999999,"velocity":0.7480314960629921,"duration":0.14374999999999716},{"name":"F#3","midi":54,"time":93.29999999999899,"velocity":0.7480314960629921,"duration":0.14374999999999716},{"name":"E3","midi":52,"time":93.44999999999898,"velocity":0.7480314960629921,"duration":0.14374999999999716},{"name":"A2","midi":45,"time":93.59999999999897,"velocity":0.7480314960629921,"duration":0.09999999999999432},{"name":"A3","midi":57,"time":93.89999999999897,"velocity":0.7480314960629921,"duration":0.29999999999999716},{"name":"B3","midi":59,"time":94.19999999999897,"velocity":0.7480314960629921,"duration":0.29999999999999716},{"name":"C4","midi":60,"time":94.49999999999896,"velocity":0.7480314960629921,"duration":0.09999999999999432},{"name":"A3","midi":57,"time":94.79999999999896,"velocity":0.7480314960629921,"duration":0.29999999999999716},{"name":"C4","midi":60,"time":95.09999999999896,"velocity":0.7480314960629921,"duration":0.29999999999999716},{"name":"D4","midi":62,"time":95.39999999999895,"velocity":0.7480314960629921,"duration":0.09999999999999432},{"name":"B3","midi":59,"time":95.69999999999895,"velocity":0.7480314960629921,"duration":0.29999999999999716},{"name":"D4","midi":62,"time":95.99999999999895,"velocity":0.7480314960629921,"duration":0.29999999999999716},{"name":"E4","midi":64,"time":96.29999999999895,"velocity":0.7480314960629921,"duration":0.09999999999999432},{"name":"C4","midi":60,"time":96.59999999999894,"velocity":0.7480314960629921,"duration":0.09999999999999432},{"name":"A3","midi":57,"time":96.89999999999894,"velocity":0.7480314960629921,"duration":0.09999999999999432},{"name":"F#3","midi":54,"time":97.19999999999894,"velocity":0.7480314960629921,"duration":0.09999999999999432},{"name":"D3","midi":50,"time":97.49999999999893,"velocity":0.7480314960629921,"duration":0.09999999999999432},{"name":"G3","midi":55,"time":98.09999999999893,"velocity":0.7480314960629921,"duration":0.14374999999999716},{"name":"F#3","midi":54,"time":98.24999999999892,"velocity":0.7480314960629921,"duration":0.14374999999999716},{"name":"E3","midi":52,"time":98.39999999999891,"velocity":0.7480314960629921,"duration":0.14374999999999716},{"name":"D3","midi":50,"time":98.5499999999989,"velocity":0.7480314960629921,"duration":0.14374999999999716},{"name":"B3","midi":59,"time":98.6999999999989,"velocity":0.7480314960629921,"duration":0.09999999999999432},{"name":"A3","midi":57,"time":98.99999999999889,"velocity":0.7480314960629921,"duration":0.09999999999999432},{"name":"B3","midi":59,"time":99.89999999999888,"velocity":0.7480314960629921,"duration":0.14374999999999716},{"name":"D4","midi":62,"time":100.04999999999887,"velocity":0.7480314960629921,"duration":0.14374999999999716},{"name":"C4","midi":60,"time":100.19999999999887,"velocity":0.7480314960629921,"duration":0.14374999999999716},{"name":"B3","midi":59,"time":100.34999999999886,"velocity":0.7480314960629921,"duration":0.14374999999999716},{"name":"A3","midi":57,"time":100.49999999999885,"velocity":0.7480314960629921,"duration":0.14374999999999716},{"name":"G3","midi":55,"time":100.64999999999884,"velocity":0.7480314960629921,"duration":0.14374999999999716},{"name":"F#3","midi":54,"time":100.79999999999883,"velocity":0.7480314960629921,"duration":0.14374999999999716},{"name":"E4","midi":64,"time":100.94999999999882,"velocity":0.7480314960629921,"duration":0.14374999999999716},{"name":"D4","midi":62,"time":101.09999999999881,"velocity":0.7480314960629921,"duration":0.14374999999999716},{"name":"C4","midi":60,"time":101.2499999999988,"velocity":0.7480314960629921,"duration":0.14374999999999716},{"name":"B3","midi":59,"time":101.3999999999988,"velocity":0.7480314960629921,"duration":0.14374999999999716},{"name":"A3","midi":57,"time":101.54999999999879,"velocity":0.7480314960629921,"duration":0.14374999999999716},{"name":"G3","midi":55,"time":101.69999999999878,"velocity":0.7480314960629921,"duration":0.14374999999999716},{"name":"F#3","midi":54,"time":101.84999999999877,"velocity":0.7480314960629921,"duration":0.14374999999999716},{"name":"E3","midi":52,"time":101.99999999999876,"velocity":0.7480314960629921,"duration":0.14374999999999716},{"name":"D3","midi":50,"time":102.14999999999876,"velocity":0.7480314960629921,"duration":0.14374999999999716},{"name":"C4","midi":60,"time":102.29999999999875,"velocity":0.7480314960629921,"duration":0.09999999999999432},{"name":"B3","midi":59,"time":102.59999999999874,"velocity":0.7480314960629921,"duration":0.09999999999999432},{"name":"B2","midi":47,"time":103.64999999999874,"velocity":0.7480314960629921,"duration":0.14374999999999716},{"name":"C3","midi":48,"time":103.79999999999873,"velocity":0.7480314960629921,"duration":0.14374999999999716},{"name":"D3","midi":50,"time":103.94999999999872,"velocity":0.7480314960629921,"duration":0.14374999999999716},{"name":"E3","midi":52,"time":104.09999999999872,"velocity":0.7480314960629921,"duration":0.14374999999999716},{"name":"F#3","midi":54,"time":104.2499999999987,"velocity":0.7480314960629921,"duration":0.14374999999999716},{"name":"G3","midi":55,"time":104.3999999999987,"velocity":0.7480314960629921,"duration":0.14374999999999716},{"name":"A3","midi":57,"time":104.54999999999869,"velocity":0.7480314960629921,"duration":0.14374999999999716},{"name":"B3","midi":59,"time":104.69999999999868,"velocity":0.7480314960629921,"duration":0.14374999999999716},{"name":"C4","midi":60,"time":104.84999999999867,"velocity":0.7480314960629921,"duration":0.14374999999999716},{"name":"D4","midi":62,"time":104.99999999999866,"velocity":0.7480314960629921,"duration":0.14374999999999716},{"name":"E4","midi":64,"time":105.14999999999866,"velocity":0.7480314960629921,"duration":0.14374999999999716},{"name":"D4","midi":62,"time":105.29999999999865,"velocity":0.7480314960629921,"duration":0.14374999999999716},{"name":"B3","midi":59,"time":105.44999999999864,"velocity":0.7480314960629921,"duration":0.14374999999999716},{"name":"A3","midi":57,"time":105.59999999999863,"velocity":0.7480314960629921,"duration":0.14374999999999716},{"name":"G3","midi":55,"time":105.74999999999862,"velocity":0.7480314960629921,"duration":0.14374999999999716},{"name":"E4","midi":64,"time":105.89999999999861,"velocity":0.7480314960629921,"duration":0.14374999999999716},{"name":"C4","midi":60,"time":106.0499999999986,"velocity":0.7480314960629921,"duration":0.14374999999999716},{"name":"D4","midi":62,"time":106.1999999999986,"velocity":0.7480314960629921,"duration":0.14374999999999716},{"name":"B3","midi":59,"time":106.34999999999859,"velocity":0.7480314960629921,"duration":0.14374999999999716},{"name":"A3","midi":57,"time":106.49999999999858,"velocity":0.7480314960629921,"duration":0.14374999999999716},{"name":"G3","midi":55,"time":106.64999999999857,"velocity":0.7480314960629921,"duration":0.14374999999999716},{"name":"C4","midi":60,"time":106.79999999999856,"velocity":0.7480314960629921,"duration":0.14374999999999716},{"name":"A3","midi":57,"time":106.94999999999855,"velocity":0.7480314960629921,"duration":0.14374999999999716},{"name":"B3","midi":59,"time":107.09999999999854,"velocity":0.7480314960629921,"duration":0.14374999999999716},{"name":"D4","midi":62,"time":107.24999999999854,"velocity":0.7480314960629921,"duration":0.14374999999999716},{"name":"C4","midi":60,"time":107.39999999999853,"velocity":0.7480314960629921,"duration":0.14374999999999716},{"name":"B3","midi":59,"time":107.54999999999852,"velocity":0.7480314960629921,"duration":0.14374999999999716},{"name":"C4","midi":60,"time":107.69999999999851,"velocity":0.7480314960629921,"duration":0.14374999999999716},{"name":"A3","midi":57,"time":107.8499999999985,"velocity":0.7480314960629921,"duration":0.14374999999999716},{"name":"B3","midi":59,"time":107.9999999999985,"velocity":0.7480314960629921,"duration":0.14374999999999716},{"name":"G3","midi":55,"time":108.14999999999849,"velocity":0.7480314960629921,"duration":0.14374999999999716},{"name":"F#3","midi":54,"time":108.29999999999848,"velocity":0.7480314960629921,"duration":0.14374999999999716},{"name":"E3","midi":52,"time":108.44999999999847,"velocity":0.7480314960629921,"duration":0.14374999999999716},{"name":"A3","midi":57,"time":108.59999999999846,"velocity":0.7480314960629921,"duration":0.14374999999999716},{"name":"F#3","midi":54,"time":108.74999999999845,"velocity":0.7480314960629921,"duration":0.14374999999999716},{"name":"G3","midi":55,"time":108.89999999999844,"velocity":0.7480314960629921,"duration":0.14374999999999716},{"name":"B3","midi":59,"time":109.04999999999843,"velocity":0.7480314960629921,"duration":0.14374999999999716},{"name":"A3","midi":57,"time":109.19999999999843,"velocity":0.7480314960629921,"duration":0.14374999999999716},{"name":"G3","midi":55,"time":109.34999999999842,"velocity":0.7480314960629921,"duration":0.14374999999999716},{"name":"A3","midi":57,"time":109.49999999999841,"velocity":0.7480314960629921,"duration":0.14374999999999716},{"name":"F#3","midi":54,"time":109.6499999999984,"velocity":0.7480314960629921,"duration":0.14374999999999716},{"name":"G3","midi":55,"time":109.79999999999839,"velocity":0.7480314960629921,"duration":0.14374999999999716},{"name":"B3","midi":59,"time":109.94999999999838,"velocity":0.7480314960629921,"duration":0.14374999999999716},{"name":"A3","midi":57,"time":110.09999999999837,"velocity":0.7480314960629921,"duration":0.14374999999999716},{"name":"G3","midi":55,"time":110.24999999999837,"velocity":0.7480314960629921,"duration":0.14374999999999716},{"name":"C4","midi":60,"time":110.39999999999836,"velocity":0.7480314960629921,"duration":0.14374999999999716},{"name":"A3","midi":57,"time":110.54999999999835,"velocity":0.7480314960629921,"duration":0.14374999999999716},{"name":"B3","midi":59,"time":110.69999999999834,"velocity":0.7480314960629921,"duration":0.14374999999999716},{"name":"G3","midi":55,"time":110.84999999999833,"velocity":0.7480314960629921,"duration":0.14374999999999716},{"name":"F#3","midi":54,"time":110.99999999999832,"velocity":0.7480314960629921,"duration":0.14374999999999716},{"name":"E3","midi":52,"time":111.14999999999831,"velocity":0.7480314960629921,"duration":0.14374999999999716},{"name":"F#3","midi":54,"time":111.2999999999983,"velocity":0.7480314960629921,"duration":0.14374999999999716},{"name":"D#3","midi":51,"time":111.4499999999983,"velocity":0.7480314960629921,"duration":0.14374999999999716},{"name":"E3","midi":52,"time":111.59999999999829,"velocity":0.7480314960629921,"duration":0.14374999999999716},{"name":"G3","midi":55,"time":111.74999999999828,"velocity":0.7480314960629921,"duration":0.14374999999999716},{"name":"F3","midi":53,"time":111.89999999999827,"velocity":0.7480314960629921,"duration":0.14374999999999716},{"name":"E3","midi":52,"time":112.04999999999826,"velocity":0.7480314960629921,"duration":0.14374999999999716},{"name":"A3","midi":57,"time":112.19999999999825,"velocity":0.7480314960629921,"duration":0.14374999999999716},{"name":"F3","midi":53,"time":112.34999999999825,"velocity":0.7480314960629921,"duration":0.14374999999999716},{"name":"G3","midi":55,"time":112.49999999999824,"velocity":0.7480314960629921,"duration":0.14374999999999716},{"name":"E3","midi":52,"time":112.64999999999823,"velocity":0.7480314960629921,"duration":0.14374999999999716},{"name":"D3","midi":50,"time":112.79999999999822,"velocity":0.7480314960629921,"duration":0.14374999999999716},{"name":"C3","midi":48,"time":112.94999999999821,"velocity":0.7480314960629921,"duration":0.14374999999999716},{"name":"D3","midi":50,"time":113.0999999999982,"velocity":0.7480314960629921,"duration":0.14374999999999716},{"name":"B2","midi":47,"time":113.2499999999982,"velocity":0.7480314960629921,"duration":0.14374999999999716},{"name":"C3","midi":48,"time":113.39999999999819,"velocity":0.7480314960629921,"duration":0.09999999999999432},{"name":"C4","midi":60,"time":113.69999999999818,"velocity":0.7480314960629921,"duration":0.29999999999999716},{"name":"B3","midi":59,"time":113.99999999999818,"velocity":0.7480314960629921,"duration":0.29999999999999716},{"name":"C4","midi":60,"time":114.29999999999818,"velocity":0.7480314960629921,"duration":0.09999999999999432},{"name":"A3","midi":57,"time":114.59999999999818,"velocity":0.7480314960629921,"duration":0.09999999999999432},{"name":"C4","midi":60,"time":114.89999999999817,"velocity":0.7480314960629921,"duration":0.09999999999999432},{"name":"D3","midi":50,"time":115.19999999999817,"velocity":0.7480314960629921,"duration":0.09999999999999432},{"name":"D4","midi":62,"time":115.49999999999817,"velocity":0.7480314960629921,"duration":0.29999999999999716},{"name":"C#4","midi":61,"time":115.79999999999816,"velocity":0.7480314960629921,"duration":0.29999999999999716},{"name":"D4","midi":62,"time":116.09999999999816,"velocity":0.7480314960629921,"duration":0.09999999999999432},{"name":"B3","midi":59,"time":116.39999999999816,"velocity":0.7480314960629921,"duration":0.09999999999999432},{"name":"D4","midi":62,"time":116.69999999999816,"velocity":0.7480314960629921,"duration":0.09999999999999432},{"name":"E3","midi":52,"time":116.99999999999815,"velocity":0.7480314960629921,"duration":0.09999999999999432},{"name":"E4","midi":64,"time":117.29999999999815,"velocity":0.7480314960629921,"duration":0.29999999999999716},{"name":"D#4","midi":63,"time":117.59999999999815,"velocity":0.7480314960629921,"duration":0.29999999999999716},{"name":"E4","midi":64,"time":117.89999999999814,"velocity":0.7480314960629921,"duration":0.09999999999999432},{"name":"C4","midi":60,"time":118.19999999999814,"velocity":0.7480314960629921,"duration":0.09999999999999432},{"name":"E4","midi":64,"time":118.49999999999814,"velocity":0.7480314960629921,"duration":0.09999999999999432},{"name":"F#3","midi":54,"time":118.79999999999814,"velocity":0.7480314960629921,"duration":0.09999999999999432},{"name":"E3","midi":52,"time":119.09999999999813,"velocity":0.7480314960629921,"duration":0.09999999999999432},{"name":"D3","midi":50,"time":119.39999999999813,"velocity":0.7480314960629921,"duration":0.09999999999999432},{"name":"G3","midi":55,"time":119.69999999999813,"velocity":0.7480314960629921,"duration":0.09999999999999432},{"name":"C3","midi":48,"time":119.99999999999812,"velocity":0.7480314960629921,"duration":0.14374999999999716},{"name":"B2","midi":47,"time":120.14999999999812,"velocity":0.7480314960629921,"duration":0.14374999999999716},{"name":"A2","midi":45,"time":120.29999999999811,"velocity":0.7480314960629921,"duration":0.14374999999999716},{"name":"G2","midi":43,"time":120.4499999999981,"velocity":0.7480314960629921,"duration":0.14374999999999716},{"name":"C3","midi":48,"time":120.59999999999809,"velocity":0.7480314960629921,"duration":0.14374999999999716},{"name":"G3","midi":55,"time":120.74999999999808,"velocity":0.7480314960629921,"duration":0.14374999999999716},{"name":"A3","midi":57,"time":120.89999999999807,"velocity":0.7480314960629921,"duration":0.14374999999999716},{"name":"B3","midi":59,"time":121.04999999999806,"velocity":0.7480314960629921,"duration":0.14374999999999716},{"name":"C4","midi":60,"time":121.19999999999806,"velocity":0.7480314960629921,"duration":0.14374999999999716},{"name":"D4","midi":62,"time":121.34999999999805,"velocity":0.7480314960629921,"duration":0.14374999999999716},{"name":"E4","midi":64,"time":121.49999999999804,"velocity":0.7480314960629921,"duration":0.09999999999999432},{"name":"D3","midi":50,"time":121.79999999999804,"velocity":0.7480314960629921,"duration":0.14374999999999716},{"name":"C#3","midi":49,"time":121.94999999999803,"velocity":0.7480314960629921,"duration":0.14374999999999716},{"name":"B2","midi":47,"time":122.09999999999802,"velocity":0.7480314960629921,"duration":0.14374999999999716},{"name":"A2","midi":45,"time":122.24999999999801,"velocity":0.7480314960629921,"duration":0.14374999999999716},{"name":"D3","midi":50,"time":122.399999999998,"velocity":0.7480314960629921,"duration":0.14374999999999716},{"name":"A3","midi":57,"time":122.549999999998,"velocity":0.7480314960629921,"duration":0.14374999999999716},{"name":"B3","midi":59,"time":122.69999999999798,"velocity":0.7480314960629921,"duration":0.14374999999999716},{"name":"C#4","midi":61,"time":122.84999999999798,"velocity":0.7480314960629921,"duration":0.14374999999999716},{"name":"D4","midi":62,"time":122.99999999999797,"velocity":0.7480314960629921,"duration":0.14374999999999716},{"name":"E4","midi":64,"time":123.14999999999796,"velocity":0.7480314960629921,"duration":0.14374999999999716},{"name":"F#4","midi":66,"time":123.29999999999795,"velocity":0.7480314960629921,"duration":0.09999999999999432},{"name":"G3","midi":55,"time":123.59999999999795,"velocity":0.7480314960629921,"duration":0.14374999999999716},{"name":"F#3","midi":54,"time":123.74999999999794,"velocity":0.7480314960629921,"duration":0.14374999999999716},{"name":"E3","midi":52,"time":123.89999999999793,"velocity":0.7480314960629921,"duration":0.14374999999999716},{"name":"D3","midi":50,"time":124.04999999999792,"velocity":0.7480314960629921,"duration":0.14374999999999716},{"name":"G3","midi":55,"time":124.19999999999791,"velocity":0.7480314960629921,"duration":0.09999999999999432},{"name":"E3","midi":52,"time":124.49999999999791,"velocity":0.7480314960629921,"duration":0.09999999999999432},{"name":"C3","midi":48,"time":124.79999999999791,"velocity":0.7480314960629921,"duration":0.09999999999999432},{"name":"A2","midi":45,"time":125.0999999999979,"velocity":0.7480314960629921,"duration":0.09999999999999432},{"name":"D3","midi":50,"time":125.3999999999979,"velocity":0.7480314960629921,"duration":0.09999999999999432},{"name":"D2","midi":38,"time":125.6999999999979,"velocity":0.7480314960629921,"duration":0.09999999999999432},{"name":"G2","midi":43,"time":125.9999999999979,"velocity":0.7480314960629921,"duration":0.29375000000000284},{"name":"D4","midi":62,"time":127.0499999999979,"velocity":0.7480314960629921,"duration":0.14374999999999716},{"name":"E4","midi":64,"time":127.19999999999789,"velocity":0.7480314960629921,"duration":0.14374999999999716},{"name":"F4","midi":65,"time":127.34999999999788,"velocity":0.7480314960629921,"duration":0.14374999999999716},{"name":"B3","midi":59,"time":127.49999999999787,"velocity":0.7480314960629921,"duration":0.14374999999999716},{"name":"D4","midi":62,"time":127.64999999999786,"velocity":0.7480314960629921,"duration":0.14374999999999716},{"name":"G3","midi":55,"time":127.79999999999785,"velocity":0.7480314960629921,"duration":0.14374999999999716},{"name":"B3","midi":59,"time":127.94999999999784,"velocity":0.7480314960629921,"duration":0.14374999999999716},{"name":"C4","midi":60,"time":128.09999999999783,"velocity":0.7480314960629921,"duration":0.14375000000001137},{"name":"D4","midi":62,"time":128.24999999999784,"velocity":0.7480314960629921,"duration":0.14375000000001137},{"name":"G3","midi":55,"time":128.39999999999785,"velocity":0.7480314960629921,"duration":0.14375000000001137},{"name":"B3","midi":59,"time":128.54999999999785,"velocity":0.7480314960629921,"duration":0.14375000000001137},{"name":"D3","midi":50,"time":128.69999999999786,"velocity":0.7480314960629921,"duration":0.14375000000001137},{"name":"F3","midi":53,"time":128.84999999999786,"velocity":0.7480314960629921,"duration":0.14375000000001137},{"name":"G3","midi":55,"time":128.99999999999787,"velocity":0.7480314960629921,"duration":0.14375000000001137},{"name":"A3","midi":57,"time":129.14999999999787,"velocity":0.7480314960629921,"duration":0.14375000000001137},{"name":"D3","midi":50,"time":129.29999999999788,"velocity":0.7480314960629921,"duration":0.14375000000001137},{"name":"F3","midi":53,"time":129.44999999999789,"velocity":0.7480314960629921,"duration":0.14375000000001137},{"name":"B2","midi":47,"time":129.5999999999979,"velocity":0.7480314960629921,"duration":0.14375000000001137},{"name":"D3","midi":50,"time":129.7499999999979,"velocity":0.7480314960629921,"duration":0.14375000000001137},{"name":"E3","midi":52,"time":129.8999999999979,"velocity":0.7480314960629921,"duration":0.14375000000001137},{"name":"F3","midi":53,"time":130.0499999999979,"velocity":0.7480314960629921,"duration":0.14375000000001137},{"name":"B2","midi":47,"time":130.1999999999979,"velocity":0.7480314960629921,"duration":0.14375000000001137},{"name":"D3","midi":50,"time":130.34999999999792,"velocity":0.7480314960629921,"duration":0.14375000000001137},{"name":"G2","midi":43,"time":130.49999999999793,"velocity":0.7480314960629921,"duration":0.09999999999999432},{"name":"A2","midi":45,"time":130.7999999999979,"velocity":0.7480314960629921,"duration":0.09999999999999432},{"name":"B2","midi":47,"time":131.0999999999979,"velocity":0.7480314960629921,"duration":0.09999999999999432},{"name":"C3","midi":48,"time":131.39999999999787,"velocity":0.7480314960629921,"duration":0.14375000000001137},{"name":"D3","midi":50,"time":131.54999999999788,"velocity":0.7480314960629921,"duration":0.14375000000001137},{"name":"E3","midi":52,"time":131.69999999999789,"velocity":0.7480314960629921,"duration":0.14375000000001137},{"name":"F#3","midi":54,"time":131.8499999999979,"velocity":0.7480314960629921,"duration":0.14375000000001137},{"name":"G3","midi":55,"time":131.9999999999979,"velocity":0.7480314960629921,"duration":0.14375000000001137},{"name":"A3","midi":57,"time":132.1499999999979,"velocity":0.7480314960629921,"duration":0.14375000000001137},{"name":"B3","midi":59,"time":132.2999999999979,"velocity":0.7480314960629921,"duration":0.14375000000001137},{"name":"D4","midi":62,"time":132.4499999999979,"velocity":0.7480314960629921,"duration":0.14375000000001137},{"name":"C4","midi":60,"time":132.59999999999792,"velocity":0.7480314960629921,"duration":0.14375000000001137},{"name":"B3","midi":59,"time":132.74999999999793,"velocity":0.7480314960629921,"duration":0.14375000000001137},{"name":"A3","midi":57,"time":132.89999999999793,"velocity":0.7480314960629921,"duration":0.14375000000001137},{"name":"G3","midi":55,"time":133.04999999999794,"velocity":0.7480314960629921,"duration":0.14375000000001137},{"name":"F#3","midi":54,"time":133.19999999999794,"velocity":0.7480314960629921,"duration":0.14375000000001137},{"name":"A3","midi":57,"time":133.34999999999795,"velocity":0.7480314960629921,"duration":0.14375000000001137},{"name":"G3","midi":55,"time":133.49999999999795,"velocity":0.7480314960629921,"duration":0.14375000000001137},{"name":"F#3","midi":54,"time":133.64999999999796,"velocity":0.7480314960629921,"duration":0.14375000000001137},{"name":"E3","midi":52,"time":133.79999999999797,"velocity":0.7480314960629921,"duration":0.14375000000001137},{"name":"D3","midi":50,"time":133.94999999999797,"velocity":0.7480314960629921,"duration":0.14375000000001137},{"name":"G3","midi":55,"time":134.09999999999798,"velocity":0.7480314960629921,"duration":0.09999999999999432},{"name":"E3","midi":52,"time":134.39999999999796,"velocity":0.7480314960629921,"duration":0.09999999999999432},{"name":"C3","midi":48,"time":134.69999999999794,"velocity":0.7480314960629921,"duration":0.09999999999999432},{"name":"G3","midi":55,"time":134.99999999999793,"velocity":0.7480314960629921,"duration":0.09999999999999432},{"name":"B2","midi":47,"time":135.2999999999979,"velocity":0.7480314960629921,"duration":0.09999999999999432},{"name":"E3","midi":52,"time":135.5999999999979,"velocity":0.7480314960629921,"duration":0.09999999999999432},{"name":"C3","midi":48,"time":135.89999999999787,"velocity":0.7480314960629921,"duration":0.09999999999999432},{"name":"D3","midi":50,"time":136.19999999999786,"velocity":0.7480314960629921,"duration":0.09999999999999432},{"name":"D2","midi":38,"time":136.49999999999784,"velocity":0.7480314960629921,"duration":0.09999999999999432},{"name":"G2","midi":43,"time":136.79999999999782,"velocity":0.7480314960629921,"duration":3.4499999999999886}],"controlChanges":{"7":[{"number":7,"time":0,"value":0.8661417322834646}],"10":[{"number":10,"time":0,"value":0.3779527559055118}]},"id":2,"name":"L.H.","instrumentNumber":6,"instrument":"harpsichord","instrumentFamily":"piano","channelNumber":0,"isPercussion":false}]}