{"header":{"PPQ":240,"timeSignature":[1,4],"bpm":120,"name":""},"startTime":5.16875,"duration":193.64375000000166,"tracks":[{"startTime":5.16875,"duration":193.64375000000166,"length":2042,"notes":[{"name":"E5","midi":76,"time":5.16875,"velocity":0.7007874015748031,"duration":2.5854166666666663},{"name":"G4","midi":67,"time":5.170833333333333,"velocity":0.7559055118110236,"duration":0.5458333333333334},{"name":"E3","midi":52,"time":5.177083333333333,"velocity":0.7559055118110236,"duration":0.27291666666666714},{"name":"B4","midi":71,"time":5.1812499999999995,"velocity":0.7480314960629921,"duration":0.5458333333333343},{"name":"G3","midi":55,"time":5.439583333333333,"velocity":0.7559055118110236,"duration":0.27500000000000036},{"name":"A3","midi":57,"time":5.716666666666667,"velocity":0.7559055118110236,"duration":0.2541666666666673},{"name":"B3","midi":59,"time":5.972916666666667,"velocity":0.7559055118110236,"duration":0.25624999999999964},{"name":"A3","midi":57,"time":6.229166666666667,"velocity":0.7559055118110236,"duration":0.2645833333333334},{"name":"B3","midi":59,"time":6.49375,"velocity":0.7559055118110236,"duration":0.2520833333333332},{"name":"A3","midi":57,"time":6.745833333333334,"velocity":0.7559055118110236,"duration":0.25},{"name":"G3","midi":55,"time":6.995833333333334,"velocity":0.7559055118110236,"duration":0.25624999999999964},{"name":"B4","midi":71,"time":7.254166666666666,"velocity":0.7637795275590551,"duration":0.5479166666666666},{"name":"E3","midi":52,"time":7.254166666666666,"velocity":0.7559055118110236,"duration":0.25},{"name":"G4","midi":67,"time":7.25625,"velocity":0.7559055118110236,"duration":0.4979166666666668},{"name":"G3","midi":55,"time":7.50625,"velocity":0.7559055118110236,"duration":0.24583333333333357},{"name":"F#5","midi":78,"time":7.75625,"velocity":0.7165354330708661,"duration":0.125},{"name":"A3","midi":57,"time":7.75625,"velocity":0.7559055118110236,"duration":0.25624999999999964},{"name":"E5","midi":76,"time":7.88125,"velocity":0.7165354330708661,"duration":0.12916666666666643},{"name":"D#5","midi":75,"time":8.0125,"velocity":0.7165354330708661,"duration":0.13333333333333286},{"name":"B3","midi":59,"time":8.014583333333333,"velocity":0.7559055118110236,"duration":0.2666666666666657},{"name":"E5","midi":76,"time":8.145833333333332,"velocity":0.7165354330708661,"duration":0.13541666666666607},{"name":"F#5","midi":78,"time":8.283333333333331,"velocity":0.7165354330708661,"duration":0.07499999999999929},{"name":"A3","midi":57,"time":8.283333333333331,"velocity":0.7559055118110236,"duration":0.2666666666666657},{"name":"E5","midi":76,"time":8.349999999999998,"velocity":0.7165354330708661,"duration":0.0770833333333325},{"name":"F#5","midi":78,"time":8.418749999999998,"velocity":0.7165354330708661,"duration":0.07499999999999929},{"name":"E5","midi":76,"time":8.485416666666664,"velocity":0.7165354330708661,"duration":0.07083333333333286},{"name":"F#5","midi":78,"time":8.549999999999997,"velocity":0.7165354330708661,"duration":0.07291666666666607},{"name":"B3","midi":59,"time":8.549999999999997,"velocity":0.7559055118110236,"duration":0.25624999999999964},{"name":"E5","midi":76,"time":8.612499999999997,"velocity":0.7165354330708661,"duration":0.45624999999999893},{"name":"A3","midi":57,"time":8.80833333333333,"velocity":0.7559055118110236,"duration":0.25833333333333286},{"name":"D#5","midi":75,"time":9.068749999999996,"velocity":0.7165354330708661,"duration":0.13124999999999964},{"name":"G3","midi":55,"time":9.07083333333333,"velocity":0.7559055118110236,"duration":0.2624999999999993},{"name":"E5","midi":76,"time":9.202083333333329,"velocity":0.7165354330708661,"duration":0.13124999999999964},{"name":"F#5","midi":78,"time":9.335416666666662,"velocity":0.7165354330708661,"duration":4.239583333333334},{"name":"E3","midi":52,"time":9.335416666666662,"velocity":0.7559055118110236,"duration":0.25624999999999964},{"name":"C5","midi":72,"time":9.341666666666661,"velocity":0.7637795275590551,"duration":0.5625},{"name":"A4","midi":69,"time":9.345833333333328,"velocity":0.7637795275590551,"duration":0.5625},{"name":"A3","midi":57,"time":9.591666666666661,"velocity":0.7559055118110236,"duration":0.25624999999999964},{"name":"B3","midi":59,"time":9.847916666666661,"velocity":0.7559055118110236,"duration":0.24583333333333357},{"name":"C4","midi":60,"time":10.095833333333328,"velocity":0.7559055118110236,"duration":0.24166666666666714},{"name":"B3","midi":59,"time":10.339583333333328,"velocity":0.7559055118110236,"duration":0.24583333333333357},{"name":"C4","midi":60,"time":10.587499999999995,"velocity":0.7559055118110236,"duration":0.25},{"name":"B3","midi":59,"time":10.839583333333328,"velocity":0.7559055118110236,"duration":0.2520833333333332},{"name":"A3","midi":57,"time":11.093749999999995,"velocity":0.7559055118110236,"duration":0.2520833333333332},{"name":"A4","midi":69,"time":11.347916666666661,"velocity":0.7637795275590551,"duration":0.5916666666666668},{"name":"C5","midi":72,"time":11.347916666666661,"velocity":0.7637795275590551,"duration":0.5916666666666668},{"name":"E3","midi":52,"time":11.349999999999994,"velocity":0.7559055118110236,"duration":0.24375000000000036},{"name":"A3","midi":57,"time":11.595833333333328,"velocity":0.7559055118110236,"duration":0.24166666666666714},{"name":"B3","midi":59,"time":11.839583333333328,"velocity":0.7559055118110236,"duration":0.24791666666666679},{"name":"C4","midi":60,"time":12.089583333333328,"velocity":0.7559055118110236,"duration":0.23958333333333393},{"name":"B3","midi":59,"time":12.331249999999995,"velocity":0.7559055118110236,"duration":0.24375000000000036},{"name":"C4","midi":60,"time":12.574999999999996,"velocity":0.7559055118110236,"duration":0.25},{"name":"B3","midi":59,"time":12.824999999999996,"velocity":0.7559055118110236,"duration":0.25},{"name":"A3","midi":57,"time":13.074999999999996,"velocity":0.7559055118110236,"duration":0.25},{"name":"D#3","midi":51,"time":13.324999999999996,"velocity":0.7559055118110236,"duration":0.25},{"name":"A4","midi":69,"time":13.331249999999995,"velocity":0.7480314960629921,"duration":0.4979166666666668},{"name":"C5","midi":72,"time":13.335416666666662,"velocity":0.7480314960629921,"duration":0.4979166666666668},{"name":"E5","midi":76,"time":13.574999999999996,"velocity":0.7007874015748031,"duration":0.27083333333333215},{"name":"A3","midi":57,"time":13.577083333333329,"velocity":0.7559055118110236,"duration":0.24583333333333357},{"name":"D#5","midi":75,"time":13.822916666666663,"velocity":0.7007874015748031,"duration":0.2645833333333325},{"name":"B3","midi":59,"time":13.824999999999996,"velocity":0.7559055118110236,"duration":0.23958333333333215},{"name":"E5","midi":76,"time":14.064583333333328,"velocity":0.7007874015748031,"duration":0.19374999999999964},{"name":"C4","midi":60,"time":14.066666666666661,"velocity":0.7559055118110236,"duration":0.23958333333333393},{"name":"F#5","midi":78,"time":14.306249999999995,"velocity":0.7007874015748031,"duration":0.28958333333333286},{"name":"B3","midi":59,"time":14.308333333333328,"velocity":0.7559055118110236,"duration":0.23958333333333393},{"name":"E5","midi":76,"time":14.549999999999995,"velocity":0.7007874015748031,"duration":0.19166666666666643},{"name":"C4","midi":60,"time":14.549999999999995,"velocity":0.7559055118110236,"duration":0.23958333333333393},{"name":"G5","midi":79,"time":14.78958333333333,"velocity":0.7007874015748031,"duration":0.2687500000000007},{"name":"B3","midi":59,"time":14.791666666666663,"velocity":0.7559055118110236,"duration":0.24166666666666714},{"name":"F#5","midi":78,"time":15.035416666666663,"velocity":0.7007874015748031,"duration":0.17916666666666714},{"name":"A3","midi":57,"time":15.037499999999996,"velocity":0.7559055118110236,"duration":0.24375000000000036},{"name":"A5","midi":81,"time":15.281249999999996,"velocity":0.7165354330708661,"duration":1.125},{"name":"F#5","midi":78,"time":15.281249999999996,"velocity":0.7165354330708661,"duration":0.5},{"name":"B4","midi":71,"time":15.28333333333333,"velocity":0.7637795275590551,"duration":0.49583333333333357},{"name":"D#3","midi":51,"time":15.28333333333333,"velocity":0.7559055118110236,"duration":0.24375000000000036},{"name":"A3","midi":57,"time":15.52708333333333,"velocity":0.7559055118110236,"duration":0.2520833333333332},{"name":"B3","midi":59,"time":15.781249999999996,"velocity":0.7559055118110236,"duration":0.252083333333335},{"name":"C4","midi":60,"time":16.03333333333333,"velocity":0.7559055118110236,"duration":0.25},{"name":"B3","midi":59,"time":16.28333333333333,"velocity":0.7559055118110236,"duration":0.25},{"name":"C6","midi":84,"time":16.40833333333333,"velocity":0.7165354330708661,"duration":0.125},{"name":"B5","midi":83,"time":16.535416666666666,"velocity":0.7165354330708661,"duration":0.12083333333333357},{"name":"C4","midi":60,"time":16.535416666666666,"velocity":0.7559055118110236,"duration":0.24791666666666856},{"name":"A5","midi":81,"time":16.658333333333335,"velocity":0.7165354330708661,"duration":0.125},{"name":"G5","midi":79,"time":16.78541666666667,"velocity":0.7165354330708661,"duration":0.247916666666665},{"name":"B3","midi":59,"time":16.78541666666667,"velocity":0.7559055118110236,"duration":0.247916666666665},{"name":"A5","midi":81,"time":17.03541666666667,"velocity":0.7165354330708661,"duration":0.12083333333333357},{"name":"A3","midi":57,"time":17.03541666666667,"velocity":0.7559055118110236,"duration":0.24791666666666856},{"name":"F#5","midi":78,"time":17.15833333333334,"velocity":0.7165354330708661,"duration":0.125},{"name":"G5","midi":79,"time":17.285416666666674,"velocity":0.6456692913385826,"duration":2.4625000000000057},{"name":"E3","midi":52,"time":17.28750000000001,"velocity":0.7559055118110236,"duration":0.25},{"name":"B4","midi":71,"time":17.291666666666675,"velocity":0.6929133858267716,"duration":0.5},{"name":"E5","midi":76,"time":17.29583333333334,"velocity":0.6456692913385826,"duration":0.5},{"name":"G3","midi":55,"time":17.533333333333342,"velocity":0.7559055118110236,"duration":0.25},{"name":"A3","midi":57,"time":17.783333333333342,"velocity":0.7559055118110236,"duration":0.247916666666665},{"name":"B3","midi":59,"time":18.033333333333342,"velocity":0.7559055118110236,"duration":0.24583333333333357},{"name":"A3","midi":57,"time":18.279166666666676,"velocity":0.7559055118110236,"duration":0.23958333333333215},{"name":"B3","midi":59,"time":18.520833333333343,"velocity":0.7559055118110236,"duration":0.23541666666666572},{"name":"A3","midi":57,"time":18.758333333333344,"velocity":0.7559055118110236,"duration":0.23958333333333215},{"name":"G3","midi":55,"time":18.997916666666676,"velocity":0.7559055118110236,"duration":0.24583333333333357},{"name":"E5","midi":76,"time":19.24375000000001,"velocity":0.7165354330708661,"duration":0.50416666666667},{"name":"B4","midi":71,"time":19.245833333333344,"velocity":0.7637795275590551,"duration":0.5},{"name":"E3","midi":52,"time":19.245833333333344,"velocity":0.7559055118110236,"duration":0.247916666666665},{"name":"G3","midi":55,"time":19.49375000000001,"velocity":0.7559055118110236,"duration":0.252083333333335},{"name":"C6","midi":84,"time":19.750000000000014,"velocity":0.7165354330708661,"duration":0.24583333333333357},{"name":"A3","midi":57,"time":19.750000000000014,"velocity":0.7559055118110236,"duration":0.24374999999999858},{"name":"B5","midi":83,"time":19.995833333333348,"velocity":0.7165354330708661,"duration":0.23958333333333215},{"name":"B3","midi":59,"time":19.995833333333348,"velocity":0.7559055118110236,"duration":0.23958333333333215},{"name":"C6","midi":84,"time":20.237500000000015,"velocity":0.7165354330708661,"duration":0.4979166666666721},{"name":"A3","midi":57,"time":20.23958333333335,"velocity":0.7559055118110236,"duration":0.23958333333333215},{"name":"B3","midi":59,"time":20.481250000000017,"velocity":0.7559055118110236,"duration":0.252083333333335},{"name":"E5","midi":76,"time":20.735416666666687,"velocity":0.7165354330708661,"duration":0.50833333333334},{"name":"A3","midi":57,"time":20.737500000000022,"velocity":0.7559055118110236,"duration":0.252083333333335},{"name":"G3","midi":55,"time":20.991666666666692,"velocity":0.7559055118110236,"duration":0.25},{"name":"F#5","midi":78,"time":21.243750000000027,"velocity":0.6692913385826772,"duration":2.4541666666666835},{"name":"E3","midi":52,"time":21.245833333333362,"velocity":0.7559055118110236,"duration":0.25000000000000355},{"name":"A4","midi":69,"time":21.252083333333363,"velocity":0.7165354330708661,"duration":0.4979166666666721},{"name":"C5","midi":72,"time":21.25625000000003,"velocity":0.7165354330708661,"duration":0.4979166666666721},{"name":"F#3","midi":54,"time":21.49375000000003,"velocity":0.7559055118110236,"duration":0.24791666666666856},{"name":"G3","midi":55,"time":21.743750000000034,"velocity":0.7559055118110236,"duration":0.24375000000000213},{"name":"A3","midi":57,"time":21.987500000000036,"velocity":0.7559055118110236,"duration":0.25},{"name":"G3","midi":55,"time":22.23958333333337,"velocity":0.7559055118110236,"duration":0.24374999999999858},{"name":"A3","midi":57,"time":22.485416666666705,"velocity":0.7559055118110236,"duration":0.23958333333333215},{"name":"G3","midi":55,"time":22.727083333333372,"velocity":0.7559055118110236,"duration":0.24166666666666714},{"name":"F#3","midi":54,"time":22.96875000000004,"velocity":0.7559055118110236,"duration":0.24166666666666714},{"name":"B4","midi":71,"time":23.210416666666706,"velocity":0.7401574803149606,"duration":0.48541666666666927},{"name":"D5","midi":74,"time":23.21250000000004,"velocity":0.6929133858267716,"duration":0.4833333333333343},{"name":"D3","midi":50,"time":23.21250000000004,"velocity":0.7559055118110236,"duration":0.23958333333333215},{"name":"F#3","midi":54,"time":23.452083333333373,"velocity":0.7559055118110236,"duration":0.24166666666666714},{"name":"B5","midi":83,"time":23.69791666666671,"velocity":0.7165354330708661,"duration":0.6187500000000021},{"name":"G3","midi":55,"time":23.700000000000045,"velocity":0.7559055118110236,"duration":0.23958333333333215},{"name":"A3","midi":57,"time":23.941666666666713,"velocity":0.7559055118110236,"duration":0.247916666666665},{"name":"G3","midi":55,"time":24.191666666666713,"velocity":0.7559055118110236,"duration":0.252083333333335},{"name":"C6","midi":84,"time":24.316666666666713,"velocity":0.7165354330708661,"duration":0.125},{"name":"B5","midi":83,"time":24.443750000000048,"velocity":0.7165354330708661,"duration":0.127083333333335},{"name":"A3","midi":57,"time":24.445833333333383,"velocity":0.7559055118110236,"duration":0.25416666666666643},{"name":"A5","midi":81,"time":24.570833333333383,"velocity":0.7165354330708661,"duration":0.12916666666666643},{"name":"B5","midi":83,"time":24.70000000000005,"velocity":0.7165354330708661,"duration":0.125},{"name":"G3","midi":55,"time":24.70000000000005,"velocity":0.7559055118110236,"duration":0.25416666666667},{"name":"G5","midi":79,"time":24.82500000000005,"velocity":0.7165354330708661,"duration":0.127083333333335},{"name":"A5","midi":81,"time":24.95416666666672,"velocity":0.7165354330708661,"duration":0.12291666666666856},{"name":"F#3","midi":54,"time":24.956250000000054,"velocity":0.7559055118110236,"duration":0.24791666666666856},{"name":"B5","midi":83,"time":25.077083333333388,"velocity":0.7165354330708661,"duration":0.125},{"name":"E5","midi":76,"time":25.204166666666723,"velocity":0.6929133858267716,"duration":2.2354166666666764},{"name":"D3","midi":50,"time":25.204166666666723,"velocity":0.7559055118110236,"duration":0.24583333333333357},{"name":"G4","midi":67,"time":25.206250000000058,"velocity":0.7559055118110236,"duration":0.48958333333333215},{"name":"B4","midi":71,"time":25.210416666666724,"velocity":0.7401574803149606,"duration":0.49375000000000213},{"name":"E3","midi":52,"time":25.450000000000056,"velocity":0.7559055118110236,"duration":0.24583333333333357},{"name":"F#3","midi":54,"time":25.697916666666725,"velocity":0.7559055118110236,"duration":0.24375000000000213},{"name":"G3","midi":55,"time":25.941666666666727,"velocity":0.7559055118110236,"duration":0.24166666666666714},{"name":"F#3","midi":54,"time":26.183333333333394,"velocity":0.7559055118110236,"duration":0.24374999999999858},{"name":"G3","midi":55,"time":26.427083333333393,"velocity":0.7559055118110236,"duration":0.25},{"name":"F#3","midi":54,"time":26.677083333333393,"velocity":0.7559055118110236,"duration":0.252083333333335},{"name":"E3","midi":52,"time":26.929166666666728,"velocity":0.7559055118110236,"duration":0.2562500000000014},{"name":"C5","midi":72,"time":27.18541666666673,"velocity":0.7401574803149606,"duration":0.4937500000000057},{"name":"A4","midi":69,"time":27.187500000000064,"velocity":0.7401574803149606,"duration":0.4937500000000057},{"name":"C3","midi":48,"time":27.187500000000064,"velocity":0.7559055118110236,"duration":0.252083333333335},{"name":"C5","midi":72,"time":27.441666666666734,"velocity":0.7637795275590551,"duration":0.2395833333333357},{"name":"E3","midi":52,"time":27.441666666666734,"velocity":0.7559055118110236,"duration":0.2375000000000007},{"name":"A4","midi":69,"time":27.683333333333405,"velocity":0.7637795275590551,"duration":0.23958333333333215},{"name":"F#3","midi":54,"time":27.683333333333405,"velocity":0.7559055118110236,"duration":0.23958333333333215},{"name":"B4","midi":71,"time":27.92500000000007,"velocity":0.7637795275590551,"duration":0.2395833333333357},{"name":"G3","midi":55,"time":27.92500000000007,"velocity":0.7559055118110236,"duration":0.2375000000000007},{"name":"C5","midi":72,"time":28.164583333333407,"velocity":0.7637795275590551,"duration":0.24583333333333712},{"name":"F#3","midi":54,"time":28.166666666666742,"velocity":0.7559055118110236,"duration":0.24166666666666714},{"name":"E5","midi":76,"time":28.410416666666745,"velocity":0.7165354330708661,"duration":0.24583333333333712},{"name":"G3","midi":55,"time":28.41250000000008,"velocity":0.7559055118110236,"duration":0.24166666666666714},{"name":"D5","midi":74,"time":28.65625000000008,"velocity":0.7165354330708661,"duration":0.24791666666666856},{"name":"F#3","midi":54,"time":28.658333333333417,"velocity":0.7559055118110236,"duration":0.24374999999999858},{"name":"E5","midi":76,"time":28.90416666666675,"velocity":0.7165354330708661,"duration":0.125},{"name":"E3","midi":52,"time":28.906250000000085,"velocity":0.7559055118110236,"duration":0.24374999999999858},{"name":"C5","midi":72,"time":29.02916666666675,"velocity":0.7637795275590551,"duration":0.12083333333333357},{"name":"D5","midi":74,"time":29.150000000000084,"velocity":0.6456692913385826,"duration":2.475000000000005},{"name":"F#4","midi":66,"time":29.15208333333342,"velocity":0.7559055118110236,"duration":0.5020833333333314},{"name":"C3","midi":48,"time":29.15208333333342,"velocity":0.7559055118110236,"duration":0.25208333333333144},{"name":"A4","midi":69,"time":29.156250000000085,"velocity":0.6929133858267716,"duration":0.7541666666666664},{"name":"F#3","midi":54,"time":29.40416666666675,"velocity":0.7559055118110236,"duration":0.25},{"name":"G3","midi":55,"time":29.65416666666675,"velocity":0.7559055118110236,"duration":0.247916666666665},{"name":"A3","midi":57,"time":29.90416666666675,"velocity":0.7559055118110236,"duration":0.25},{"name":"G3","midi":55,"time":30.15416666666675,"velocity":0.7559055118110236,"duration":0.247916666666665},{"name":"A3","midi":57,"time":30.402083333333415,"velocity":0.7559055118110236,"duration":0.24374999999999858},{"name":"G3","midi":55,"time":30.64791666666675,"velocity":0.7559055118110236,"duration":0.24374999999999858},{"name":"F#3","midi":54,"time":30.893750000000082,"velocity":0.7559055118110236,"duration":0.24374999999999858},{"name":"B4","midi":71,"time":31.139583333333416,"velocity":0.7637795275590551,"duration":0.4854166666666728},{"name":"G4","midi":67,"time":31.139583333333416,"velocity":0.7559055118110236,"duration":0.48333333333333783},{"name":"B2","midi":47,"time":31.14166666666675,"velocity":0.7559055118110236,"duration":0.2375000000000007},{"name":"G3","midi":55,"time":31.381250000000087,"velocity":0.7559055118110236,"duration":0.24166666666666714},{"name":"G5","midi":79,"time":31.62500000000009,"velocity":0.7165354330708661,"duration":0.6083333333333378},{"name":"A3","midi":57,"time":31.627083333333424,"velocity":0.7559055118110236,"duration":0.2375000000000007},{"name":"B3","midi":59,"time":31.864583333333425,"velocity":0.7559055118110236,"duration":0.24583333333333357},{"name":"A3","midi":57,"time":32.11041666666676,"velocity":0.7559055118110236,"duration":0.24583333333333002},{"name":"F5","midi":77,"time":32.23541666666676,"velocity":0.7165354330708661,"duration":0.12083333333333002},{"name":"E5","midi":76,"time":32.35833333333342,"velocity":0.7165354330708661,"duration":0.12083333333333002},{"name":"B3","midi":59,"time":32.35833333333342,"velocity":0.7559055118110236,"duration":0.24583333333333002},{"name":"D5","midi":74,"time":32.48125000000008,"velocity":0.7165354330708661,"duration":0.12291666666666856},{"name":"C5","midi":72,"time":32.60625000000008,"velocity":0.7637795275590551,"duration":0.24791666666666856},{"name":"A3","midi":57,"time":32.60625000000008,"velocity":0.7559055118110236,"duration":0.24791666666666856},{"name":"D5","midi":74,"time":32.85625000000008,"velocity":0.7165354330708661,"duration":0.12291666666666856},{"name":"G3","midi":55,"time":32.85625000000008,"velocity":0.7559055118110236,"duration":0.24583333333333002},{"name":"B4","midi":71,"time":32.98125000000008,"velocity":0.7637795275590551,"duration":0.12083333333333002},{"name":"C5","midi":72,"time":33.10416666666674,"velocity":0.6929133858267716,"duration":2.22083333333331},{"name":"E4","midi":64,"time":33.10416666666674,"velocity":0.7559055118110236,"duration":0.5062499999999943},{"name":"G4","midi":67,"time":33.106250000000074,"velocity":0.7559055118110236,"duration":0.5020833333333314},{"name":"B2","midi":47,"time":33.106250000000074,"velocity":0.7559055118110236,"duration":0.25},{"name":"E3","midi":52,"time":33.356250000000074,"velocity":0.7559055118110236,"duration":0.25208333333333144},{"name":"F#3","midi":54,"time":33.61041666666674,"velocity":0.7559055118110236,"duration":0.24374999999999858},{"name":"G3","midi":55,"time":33.85625000000007,"velocity":0.7559055118110236,"duration":0.2395833333333357},{"name":"F#3","midi":54,"time":34.097916666666734,"velocity":0.7559055118110236,"duration":0.24166666666666714},{"name":"G3","midi":55,"time":34.34166666666673,"velocity":0.7559055118110236,"duration":0.24583333333333002},{"name":"F#3","midi":54,"time":34.58750000000006,"velocity":0.7559055118110236,"duration":0.24583333333333002},{"name":"E3","midi":52,"time":34.83333333333339,"velocity":0.7559055118110236,"duration":0.24583333333333002},{"name":"A4","midi":69,"time":35.07916666666672,"velocity":0.7637795275590551,"duration":0.4937499999999915},{"name":"F#4","midi":66,"time":35.07916666666672,"velocity":0.7559055118110236,"duration":0.49166666666666003},{"name":"A2","midi":45,"time":35.081250000000054,"velocity":0.7559055118110236,"duration":0.24374999999999858},{"name":"D5","midi":74,"time":35.327083333333384,"velocity":0.7165354330708661,"duration":0.24374999999999858},{"name":"F#3","midi":54,"time":35.327083333333384,"velocity":0.7559055118110236,"duration":0.24166666666666714},{"name":"E5","midi":76,"time":35.572916666666714,"velocity":0.7165354330708661,"duration":0.2395833333333286},{"name":"G3","midi":55,"time":35.575000000000045,"velocity":0.7559055118110236,"duration":0.23541666666666572},{"name":"F#5","midi":78,"time":35.81250000000004,"velocity":0.7165354330708661,"duration":0.24166666666666003},{"name":"A3","midi":57,"time":35.814583333333374,"velocity":0.7559055118110236,"duration":0.23749999999999716},{"name":"G5","midi":79,"time":36.0541666666667,"velocity":0.7165354330708661,"duration":0.24166666666666714},{"name":"G3","midi":55,"time":36.056250000000034,"velocity":0.7559055118110236,"duration":0.2395833333333357},{"name":"F#5","midi":78,"time":36.2979166666667,"velocity":0.7165354330708661,"duration":0.24166666666666714},{"name":"A3","midi":57,"time":36.2979166666667,"velocity":0.7559055118110236,"duration":0.24166666666666714},{"name":"A5","midi":81,"time":36.5416666666667,"velocity":0.7165354330708661,"duration":0.24374999999999858},{"name":"G3","midi":55,"time":36.5416666666667,"velocity":0.7559055118110236,"duration":0.24374999999999858},{"name":"C5","midi":72,"time":36.78750000000003,"velocity":0.7637795275590551,"duration":0.20624999999999716},{"name":"F#3","midi":54,"time":36.78750000000003,"velocity":0.7559055118110236,"duration":0.24791666666666146},{"name":"C5","midi":72,"time":37.03541666666669,"velocity":0.6929133858267716,"duration":0.06458333333333144},{"name":"D4","midi":62,"time":37.03750000000002,"velocity":0.7559055118110236,"duration":0.4937499999999986},{"name":"G4","midi":67,"time":37.03750000000002,"velocity":0.7559055118110236,"duration":0.49583333333333},{"name":"G2","midi":43,"time":37.039583333333354,"velocity":0.7559055118110236,"duration":0.24166666666666714},{"name":"B4","midi":71,"time":37.10000000000002,"velocity":0.6929133858267716,"duration":2.32708333333332},{"name":"A3","midi":57,"time":37.28125000000002,"velocity":0.7559055118110236,"duration":0.25},{"name":"B3","midi":59,"time":37.53333333333335,"velocity":0.7559055118110236,"duration":0.25},{"name":"C4","midi":60,"time":37.78333333333335,"velocity":0.7559055118110236,"duration":0.24583333333333002},{"name":"B3","midi":59,"time":38.02916666666668,"velocity":0.7559055118110236,"duration":0.24166666666666714},{"name":"C4","midi":60,"time":38.27291666666668,"velocity":0.7559055118110236,"duration":0.23125000000000284},{"name":"B3","midi":59,"time":38.506250000000016,"velocity":0.7559055118110236,"duration":0.25},{"name":"A3","midi":57,"time":38.75833333333335,"velocity":0.7559055118110236,"duration":0.23749999999999716},{"name":"G3","midi":55,"time":38.995833333333344,"velocity":0.7559055118110236,"duration":0.2291666666666643},{"name":"G4","midi":67,"time":38.997916666666676,"velocity":0.7559055118110236,"duration":0.47083333333333144},{"name":"D4","midi":62,"time":38.997916666666676,"velocity":0.7559055118110236,"duration":0.47083333333333144},{"name":"B3","midi":59,"time":39.22500000000001,"velocity":0.7559055118110236,"duration":0.24374999999999858},{"name":"B4","midi":71,"time":39.47083333333334,"velocity":0.7637795275590551,"duration":0.4833333333333272},{"name":"C4","midi":60,"time":39.47083333333334,"velocity":0.7559055118110236,"duration":0.23749999999999716},{"name":"D4","midi":62,"time":39.71041666666667,"velocity":0.7559055118110236,"duration":0.24374999999999858},{"name":"A4","midi":69,"time":39.95625,"velocity":0.7637795275590551,"duration":0.12083333333333002},{"name":"C4","midi":60,"time":39.95625,"velocity":0.7559055118110236,"duration":0.24583333333333002},{"name":"G4","midi":67,"time":40.07916666666666,"velocity":0.7559055118110236,"duration":0.12291666666666856},{"name":"F#4","midi":66,"time":40.20416666666666,"velocity":0.7559055118110236,"duration":0.24374999999999858},{"name":"D4","midi":62,"time":40.20416666666666,"velocity":0.7559055118110236,"duration":0.24166666666666714},{"name":"G4","midi":67,"time":40.44791666666666,"velocity":0.7559055118110236,"duration":0.12083333333333002},{"name":"C4","midi":60,"time":40.44999999999999,"velocity":0.7559055118110236,"duration":0.24166666666666003},{"name":"F#4","midi":66,"time":40.56874999999999,"velocity":0.7559055118110236,"duration":0.12083333333333002},{"name":"E4","midi":64,"time":40.69166666666665,"velocity":0.7559055118110236,"duration":0.2395833333333286},{"name":"B3","midi":59,"time":40.69374999999998,"velocity":0.7559055118110236,"duration":0.23541666666666572},{"name":"E5","midi":76,"time":40.93124999999998,"velocity":0.6535433070866141,"duration":0.6145833333333357},{"name":"G3","midi":55,"time":40.93333333333331,"velocity":0.7559055118110236,"duration":0.23750000000000426},{"name":"A4","midi":69,"time":40.93749999999998,"velocity":0.7007874015748031,"duration":0.49166666666666714},{"name":"C#5","midi":73,"time":40.94166666666665,"velocity":0.7007874015748031,"duration":0.49166666666666714},{"name":"C#4","midi":61,"time":41.17083333333331,"velocity":0.7559055118110236,"duration":0.25208333333333144},{"name":"D4","midi":62,"time":41.422916666666644,"velocity":0.7559055118110236,"duration":0.25},{"name":"F#5","midi":78,"time":41.547916666666644,"velocity":0.7165354330708661,"duration":0.125},{"name":"E5","midi":76,"time":41.674999999999976,"velocity":0.7165354330708661,"duration":0.11874999999999858},{"name":"E4","midi":64,"time":41.674999999999976,"velocity":0.7559055118110236,"duration":0.24166666666666003},{"name":"D#5","midi":75,"time":41.795833333333306,"velocity":0.7165354330708661,"duration":0.12083333333333002},{"name":"E5","midi":76,"time":41.91874999999997,"velocity":0.6456692913385826,"duration":0.72291666666667},{"name":"D4","midi":62,"time":41.91874999999997,"velocity":0.7559055118110236,"duration":0.2395833333333357},{"name":"E4","midi":64,"time":42.1583333333333,"velocity":0.7559055118110236,"duration":0.2395833333333357},{"name":"D4","midi":62,"time":42.39999999999997,"velocity":0.7559055118110236,"duration":0.2395833333333357},{"name":"F#5","midi":78,"time":42.64166666666664,"velocity":0.6220472440944882,"duration":0.19999999999999574},{"name":"C#4","midi":61,"time":42.64374999999997,"velocity":0.7559055118110236,"duration":0.23749999999999716},{"name":"A4","midi":69,"time":42.8833333333333,"velocity":0.7322834645669292,"duration":0.5916666666666544},{"name":"G5","midi":79,"time":42.8833333333333,"velocity":0.5196850393700787,"duration":0.08541666666666003},{"name":"D#5","midi":75,"time":42.88541666666663,"velocity":0.6850393700787402,"duration":0.5895833333333229},{"name":"F#3","midi":54,"time":42.88541666666663,"velocity":0.7559055118110236,"duration":0.2958333333333272},{"name":"F#5","midi":78,"time":42.95833333333329,"velocity":0.5196850393700787,"duration":0.0833333333333286},{"name":"G5","midi":79,"time":43.03124999999996,"velocity":0.5196850393700787,"duration":0.08749999999999858},{"name":"F#5","midi":78,"time":43.10833333333329,"velocity":0.5196850393700787,"duration":0.0833333333333286},{"name":"G5","midi":79,"time":43.18333333333329,"velocity":0.5196850393700787,"duration":0.08541666666666714},{"name":"D#4","midi":63,"time":43.18333333333329,"velocity":0.7559055118110236,"duration":0.2916666666666643},{"name":"F#5","midi":78,"time":43.25833333333329,"velocity":0.5196850393700787,"duration":0.0833333333333286},{"name":"G5","midi":79,"time":43.331249999999955,"velocity":0.5196850393700787,"duration":0.08124999999999716},{"name":"F#5","midi":78,"time":43.40416666666662,"velocity":0.5196850393700787,"duration":0.07916666666666572},{"name":"G5","midi":79,"time":43.47708333333328,"velocity":0.5196850393700787,"duration":0.0729166666666643},{"name":"E4","midi":64,"time":43.47708333333328,"velocity":0.7559055118110236,"duration":0.2541666666666629},{"name":"F#5","midi":78,"time":43.541666666666615,"velocity":0.5196850393700787,"duration":0.0729166666666643},{"name":"G5","midi":79,"time":43.604166666666615,"velocity":0.5196850393700787,"duration":0.07083333333333286},{"name":"F#5","midi":78,"time":43.668749999999946,"velocity":0.5196850393700787,"duration":0.07083333333333286},{"name":"G5","midi":79,"time":43.73333333333328,"velocity":0.5196850393700787,"duration":0.06666666666666998},{"name":"F#4","midi":66,"time":43.73333333333328,"velocity":0.7559055118110236,"duration":0.2395833333333428},{"name":"F#5","midi":78,"time":43.791666666666615,"velocity":0.5196850393700787,"duration":0.06875000000000142},{"name":"G5","midi":79,"time":43.85208333333328,"velocity":0.5196850393700787,"duration":0.06875000000000142},{"name":"F#5","midi":78,"time":43.91249999999995,"velocity":0.5196850393700787,"duration":0.06458333333333144},{"name":"G5","midi":79,"time":43.97291666666662,"velocity":0.5196850393700787,"duration":0.06666666666666288},{"name":"E4","midi":64,"time":43.97499999999995,"velocity":0.7559055118110236,"duration":0.2645833333333343},{"name":"F#5","midi":78,"time":44.02916666666662,"velocity":0.5196850393700787,"duration":0.07916666666666572},{"name":"G5","midi":79,"time":44.09999999999995,"velocity":0.5196850393700787,"duration":0.07708333333333428},{"name":"F#5","midi":78,"time":44.16874999999995,"velocity":0.5196850393700787,"duration":0.07916666666666572},{"name":"G5","midi":79,"time":44.239583333333286,"velocity":0.5196850393700787,"duration":0.07708333333333428},{"name":"F#4","midi":66,"time":44.24166666666662,"velocity":0.7559055118110236,"duration":0.2708333333333357},{"name":"F#5","midi":78,"time":44.30833333333329,"velocity":0.5196850393700787,"duration":0.07708333333333428},{"name":"G5","midi":79,"time":44.37916666666662,"velocity":0.5196850393700787,"duration":0.07708333333333428},{"name":"F#5","midi":78,"time":44.44583333333329,"velocity":0.5196850393700787,"duration":0.23749999999999716},{"name":"E4","midi":64,"time":44.514583333333285,"velocity":0.7559055118110236,"duration":0.2395833333333357},{"name":"E5","midi":76,"time":44.75416666666662,"velocity":0.7165354330708661,"duration":0.12083333333333002},{"name":"D#4","midi":63,"time":44.75624999999995,"velocity":0.7559055118110236,"duration":0.24166666666666714},{"name":"F#5","midi":78,"time":44.87499999999995,"velocity":0.6220472440944882,"duration":0.12291666666666856},{"name":"G5","midi":79,"time":44.99999999999995,"velocity":0.5905511811023622,"duration":2.2437499999999844},{"name":"E3","midi":52,"time":44.99999999999995,"velocity":0.7559055118110236,"duration":0.2500000000000071},{"name":"B4","midi":71,"time":45.00416666666662,"velocity":0.7322834645669292,"duration":0.5083333333333329},{"name":"E5","midi":76,"time":45.00833333333329,"velocity":0.6850393700787402,"duration":0.5083333333333329},{"name":"F#3","midi":54,"time":45.25208333333329,"velocity":0.7559055118110236,"duration":0.25208333333333144},{"name":"G3","midi":55,"time":45.50624999999995,"velocity":0.7559055118110236,"duration":0.25208333333333854},{"name":"A3","midi":57,"time":45.76041666666662,"velocity":0.7559055118110236,"duration":0.25208333333333144},{"name":"G3","midi":55,"time":46.014583333333285,"velocity":0.7559055118110236,"duration":0.24374999999999858},{"name":"A3","midi":57,"time":46.260416666666615,"velocity":0.7559055118110236,"duration":0.24374999999999858},{"name":"G3","midi":55,"time":46.506249999999945,"velocity":0.7559055118110236,"duration":0.24374999999999858},{"name":"F#3","midi":54,"time":46.752083333333275,"velocity":0.7559055118110236,"duration":0.24583333333333002},{"name":"B4","midi":71,"time":46.997916666666605,"velocity":0.7637795275590551,"duration":0.49583333333333},{"name":"E3","midi":52,"time":46.999999999999936,"velocity":0.7559055118110236,"duration":0.24374999999999858},{"name":"G4","midi":67,"time":46.999999999999936,"velocity":0.7559055118110236,"duration":0.49583333333333},{"name":"B4","midi":71,"time":47.245833333333266,"velocity":0.7637795275590551,"duration":0.25},{"name":"G3","midi":55,"time":47.245833333333266,"velocity":0.7559055118110236,"duration":0.24791666666666856},{"name":"A4","midi":69,"time":47.4979166666666,"velocity":0.7637795275590551,"duration":0.24583333333333002},{"name":"A3","midi":57,"time":47.4979166666666,"velocity":0.7559055118110236,"duration":0.24583333333333002},{"name":"G4","midi":67,"time":47.74583333333326,"velocity":0.7559055118110236,"duration":0.4895833333333286},{"name":"B3","midi":59,"time":47.74583333333326,"velocity":0.7559055118110236,"duration":0.24374999999999858},{"name":"A3","midi":57,"time":47.98958333333326,"velocity":0.7559055118110236,"duration":0.24583333333333002},{"name":"F#4","midi":66,"time":48.23749999999992,"velocity":0.7559055118110236,"duration":0.11666666666666714},{"name":"B3","midi":59,"time":48.23749999999992,"velocity":0.7559055118110236,"duration":0.23749999999999716},{"name":"E4","midi":64,"time":48.35624999999992,"velocity":0.7559055118110236,"duration":0.11874999999999858},{"name":"A3","midi":57,"time":48.47708333333325,"velocity":0.7559055118110236,"duration":0.23541666666666572},{"name":"D#4","midi":63,"time":48.47708333333325,"velocity":0.7559055118110236,"duration":0.23749999999999716},{"name":"E4","midi":64,"time":48.714583333333245,"velocity":0.7559055118110236,"duration":0.24583333333333002},{"name":"G3","midi":55,"time":48.716666666666576,"velocity":0.7559055118110236,"duration":0.24374999999999858},{"name":"C5","midi":72,"time":48.960416666666575,"velocity":0.7637795275590551,"duration":0.625},{"name":"E3","midi":52,"time":48.962499999999906,"velocity":0.7559055118110236,"duration":0.24791666666666856},{"name":"A4","midi":69,"time":48.966666666666576,"velocity":0.7637795275590551,"duration":0.5020833333333314},{"name":"F4","midi":65,"time":48.96874999999991,"velocity":0.7559055118110236,"duration":0.49791666666666856},{"name":"A3","midi":57,"time":49.210416666666575,"velocity":0.7559055118110236,"duration":0.25},{"name":"B3","midi":59,"time":49.460416666666575,"velocity":0.7559055118110236,"duration":0.25},{"name":"B4","midi":71,"time":49.587499999999906,"velocity":0.7637795275590551,"duration":0.12291666666666856},{"name":"A4","midi":69,"time":49.712499999999906,"velocity":0.7637795275590551,"duration":0.1145833333333357},{"name":"C4","midi":60,"time":49.712499999999906,"velocity":0.7559055118110236,"duration":0.23749999999999716},{"name":"B4","midi":71,"time":49.82708333333324,"velocity":0.7637795275590551,"duration":0.12083333333333002},{"name":"C5","midi":72,"time":49.9499999999999,"velocity":0.7637795275590551,"duration":0.11666666666666714},{"name":"B3","midi":59,"time":49.9499999999999,"velocity":0.7559055118110236,"duration":0.23749999999999716},{"name":"D5","midi":74,"time":50.06666666666657,"velocity":0.7165354330708661,"duration":0.11874999999999858},{"name":"C5","midi":72,"time":50.1874999999999,"velocity":0.7637795275590551,"duration":0.11666666666666714},{"name":"C4","midi":60,"time":50.1874999999999,"velocity":0.7559055118110236,"duration":0.23541666666666572},{"name":"B4","midi":71,"time":50.30416666666657,"velocity":0.7637795275590551,"duration":0.11874999999999858},{"name":"C5","midi":72,"time":50.4249999999999,"velocity":0.7637795275590551,"duration":0.2395833333333357},{"name":"B3","midi":59,"time":50.4249999999999,"velocity":0.7559055118110236,"duration":0.2395833333333357},{"name":"D5","midi":74,"time":50.666666666666565,"velocity":0.7165354330708661,"duration":0.25208333333333144},{"name":"A3","midi":57,"time":50.666666666666565,"velocity":0.7559055118110236,"duration":0.25208333333333144},{"name":"B4","midi":71,"time":50.92083333333323,"velocity":0.7637795275590551,"duration":0.608333333333313},{"name":"E5","midi":76,"time":50.92083333333323,"velocity":0.6692913385826772,"duration":0.08958333333333002},{"name":"F4","midi":65,"time":50.92291666666656,"velocity":0.7559055118110236,"duration":0.6062499999999815},{"name":"D3","midi":50,"time":50.92291666666656,"velocity":0.7559055118110236,"duration":0.3270833333333272},{"name":"D5","midi":74,"time":50.99999999999989,"velocity":0.6850393700787402,"duration":0.09583333333333144},{"name":"E5","midi":76,"time":51.08333333333322,"velocity":0.6850393700787402,"duration":0.09375},{"name":"D5","midi":74,"time":51.16874999999989,"velocity":0.6850393700787402,"duration":0.0937499999999929},{"name":"E5","midi":76,"time":51.249999999999886,"velocity":0.6850393700787402,"duration":0.08958333333333002},{"name":"B3","midi":59,"time":51.25208333333322,"velocity":0.7559055118110236,"duration":0.2749999999999915},{"name":"D5","midi":74,"time":51.32916666666655,"velocity":0.6850393700787402,"duration":0.07708333333332718},{"name":"E5","midi":76,"time":51.395833333333215,"velocity":0.6850393700787402,"duration":0.07708333333332718},{"name":"D5","midi":74,"time":51.46249999999988,"velocity":0.6850393700787402,"duration":0.0729166666666643},{"name":"E5","midi":76,"time":51.53124999999987,"velocity":0.6850393700787402,"duration":0.07083333333333286},{"name":"C4","midi":60,"time":51.53124999999987,"velocity":0.7559055118110236,"duration":0.2562499999999943},{"name":"D5","midi":74,"time":51.59374999999987,"velocity":0.6850393700787402,"duration":0.07499999999999574},{"name":"E5","midi":76,"time":51.660416666666535,"velocity":0.6850393700787402,"duration":0.07083333333333286},{"name":"D5","midi":74,"time":51.724999999999866,"velocity":0.6850393700787402,"duration":0.0729166666666643},{"name":"E5","midi":76,"time":51.7895833333332,"velocity":0.6850393700787402,"duration":0.0729166666666643},{"name":"D4","midi":62,"time":51.7895833333332,"velocity":0.7559055118110236,"duration":0.25833333333332575},{"name":"D5","midi":74,"time":51.85416666666653,"velocity":0.6850393700787402,"duration":0.07083333333333286},{"name":"E5","midi":76,"time":51.91874999999986,"velocity":0.6850393700787402,"duration":0.0729166666666643},{"name":"D5","midi":74,"time":51.98124999999986,"velocity":0.6850393700787402,"duration":0.07499999999999574},{"name":"E5","midi":76,"time":52.049999999999855,"velocity":0.6850393700787402,"duration":0.07083333333333286},{"name":"C4","midi":60,"time":52.049999999999855,"velocity":0.7559055118110236,"duration":0.2666666666666586},{"name":"D5","midi":74,"time":52.112499999999855,"velocity":0.6850393700787402,"duration":0.07499999999999574},{"name":"E5","midi":76,"time":52.17916666666652,"velocity":0.6850393700787402,"duration":0.07916666666666572},{"name":"D5","midi":74,"time":52.24791666666652,"velocity":0.6850393700787402,"duration":0.07708333333332718},{"name":"E5","midi":76,"time":52.316666666666514,"velocity":0.6850393700787402,"duration":0.0729166666666643},{"name":"D4","midi":62,"time":52.318749999999845,"velocity":0.7559055118110236,"duration":0.2604166666666572},{"name":"D5","midi":74,"time":52.381249999999845,"velocity":0.6850393700787402,"duration":0.0937499999999929},{"name":"E5","midi":76,"time":52.44791666666651,"velocity":0.6850393700787402,"duration":0.07499999999999574},{"name":"D5","midi":74,"time":52.51458333333317,"velocity":0.7322834645669292,"duration":0.3166666666666629},{"name":"C4","midi":60,"time":52.581249999999834,"velocity":0.7559055118110236,"duration":0.25416666666667},{"name":"C5","midi":72,"time":52.837499999999835,"velocity":0.7637795275590551,"duration":0.13750000000000284},{"name":"B3","midi":59,"time":52.837499999999835,"velocity":0.7559055118110236,"duration":0.26875000000000426},{"name":"D5","midi":74,"time":52.97083333333317,"velocity":0.7165354330708661,"duration":0.13958333333333428},{"name":"E5","midi":76,"time":53.10624999999984,"velocity":0.7165354330708661,"duration":2.518749999999976},{"name":"C3","midi":48,"time":53.10833333333317,"velocity":0.7559055118110236,"duration":0.2562500000000014},{"name":"G4","midi":67,"time":53.116666666666504,"velocity":0.7559055118110236,"duration":0.5104166666666714},{"name":"C5","midi":72,"time":53.120833333333174,"velocity":0.7637795275590551,"duration":0.5104166666666714},{"name":"D3","midi":50,"time":53.36458333333317,"velocity":0.7559055118110236,"duration":0.2562500000000014},{"name":"E3","midi":52,"time":53.620833333333174,"velocity":0.7559055118110236,"duration":0.25416666666667},{"name":"F3","midi":53,"time":53.877083333333175,"velocity":0.7559055118110236,"duration":0.24583333333333002},{"name":"E3","midi":52,"time":54.122916666666505,"velocity":0.7559055118110236,"duration":0.24583333333333002},{"name":"F3","midi":53,"time":54.37083333333317,"velocity":0.7559055118110236,"duration":0.24791666666666856},{"name":"E3","midi":52,"time":54.62083333333317,"velocity":0.7559055118110236,"duration":0.25208333333333144},{"name":"D3","midi":50,"time":54.87499999999983,"velocity":0.7559055118110236,"duration":0.24374999999999858},{"name":"G4","midi":67,"time":55.12083333333316,"velocity":0.7559055118110236,"duration":0.5041666666666558},{"name":"E4","midi":64,"time":55.12083333333316,"velocity":0.7559055118110236,"duration":0.5041666666666558},{"name":"C3","midi":48,"time":55.12291666666649,"velocity":0.7559055118110236,"duration":0.24583333333333002},{"name":"D3","midi":50,"time":55.37083333333315,"velocity":0.7559055118110236,"duration":0.25208333333333144},{"name":"D5","midi":74,"time":55.62708333333315,"velocity":0.7322834645669292,"duration":0.24791666666666146},{"name":"E3","midi":52,"time":55.62708333333315,"velocity":0.7559055118110236,"duration":0.24583333333333002},{"name":"C5","midi":72,"time":55.87499999999981,"velocity":0.7637795275590551,"duration":0.24166666666666714},{"name":"F3","midi":53,"time":55.87499999999981,"velocity":0.7559055118110236,"duration":0.2395833333333357},{"name":"D5","midi":74,"time":56.116666666666475,"velocity":0.7322834645669292,"duration":0.23541666666666572},{"name":"E3","midi":52,"time":56.11874999999981,"velocity":0.7559055118110236,"duration":0.23125000000000284},{"name":"B4","midi":71,"time":56.35208333333314,"velocity":0.7637795275590551,"duration":0.23541666666666572},{"name":"F3","midi":53,"time":56.35416666666647,"velocity":0.7559055118110236,"duration":0.23333333333333428},{"name":"G#4","midi":68,"time":56.58958333333314,"velocity":0.7637795275590551,"duration":0.25416666666667},{"name":"E3","midi":52,"time":56.58958333333314,"velocity":0.7559055118110236,"duration":0.25416666666667},{"name":"A4","midi":69,"time":56.84583333333314,"velocity":0.7637795275590551,"duration":0.24583333333333002},{"name":"D3","midi":50,"time":56.84583333333314,"velocity":0.7559055118110236,"duration":0.24583333333333002},{"name":"D5","midi":74,"time":57.0937499999998,"velocity":0.7165354330708661,"duration":2.227083333333333},{"name":"C3","midi":48,"time":57.0937499999998,"velocity":0.7559055118110236,"duration":0.2500000000000071},{"name":"F#4","midi":66,"time":57.0999999999998,"velocity":0.7559055118110236,"duration":0.5041666666666771},{"name":"A4","midi":69,"time":57.10416666666647,"velocity":0.7637795275590551,"duration":0.5041666666666771},{"name":"F#3","midi":54,"time":57.34374999999981,"velocity":0.7559055118110236,"duration":0.25416666666667},{"name":"G3","midi":55,"time":57.59791666666648,"velocity":0.7559055118110236,"duration":0.24791666666666856},{"name":"A3","midi":57,"time":57.84583333333315,"velocity":0.7559055118110236,"duration":0.24583333333333002},{"name":"G3","midi":55,"time":58.09166666666648,"velocity":0.7559055118110236,"duration":0.25},{"name":"A3","midi":57,"time":58.34166666666648,"velocity":0.7559055118110236,"duration":0.25},{"name":"G3","midi":55,"time":58.59166666666648,"velocity":0.7559055118110236,"duration":0.24583333333333002},{"name":"F#3","midi":54,"time":58.83958333333314,"velocity":0.7559055118110236,"duration":0.24166666666666714},{"name":"G#4","midi":68,"time":59.08333333333314,"velocity":0.6929133858267716,"duration":0.4729166666666629},{"name":"B4","midi":71,"time":59.08333333333314,"velocity":0.6929133858267716,"duration":0.4729166666666629},{"name":"B2","midi":47,"time":59.08333333333314,"velocity":0.7559055118110236,"duration":0.23749999999999716},{"name":"F5","midi":77,"time":59.322916666666465,"velocity":0.7165354330708661,"duration":0.23125000000000284},{"name":"G#3","midi":56,"time":59.322916666666465,"velocity":0.7559055118110236,"duration":0.23125000000000284},{"name":"E5","midi":76,"time":59.5562499999998,"velocity":0.7165354330708661,"duration":0.24791666666666146},{"name":"A3","midi":57,"time":59.55833333333313,"velocity":0.7559055118110236,"duration":0.24583333333333002},{"name":"D5","midi":74,"time":59.80624999999979,"velocity":0.6771653543307087,"duration":0.24791666666666856},{"name":"B3","midi":59,"time":59.80624999999979,"velocity":0.7559055118110236,"duration":0.25833333333333286},{"name":"D5","midi":74,"time":60.064583333333125,"velocity":0.6771653543307087,"duration":0.07083333333333286},{"name":"A3","midi":57,"time":60.06666666666646,"velocity":0.7559055118110236,"duration":0.27708333333333},{"name":"C5","midi":72,"time":60.13541666666646,"velocity":0.7244094488188977,"duration":0.07916666666666572},{"name":"D5","midi":74,"time":60.20833333333312,"velocity":0.6771653543307087,"duration":0.07916666666666572},{"name":"C5","midi":72,"time":60.277083333333124,"velocity":0.7244094488188977,"duration":0.0729166666666643},{"name":"D5","midi":74,"time":60.34583333333312,"velocity":0.6771653543307087,"duration":0.0729166666666643},{"name":"B3","midi":59,"time":60.34583333333312,"velocity":0.7559055118110236,"duration":0.2562499999999943},{"name":"C5","midi":72,"time":60.40833333333312,"velocity":0.7244094488188977,"duration":0.0729166666666643},{"name":"D5","midi":74,"time":60.47499999999978,"velocity":0.6771653543307087,"duration":0.07083333333333286},{"name":"C5","midi":72,"time":60.53749999999978,"velocity":0.7480314960629921,"duration":0.07499999999999574},{"name":"D5","midi":74,"time":60.60208333333311,"velocity":0.7007874015748031,"duration":0.0729166666666643},{"name":"A3","midi":57,"time":60.604166666666444,"velocity":0.7559055118110236,"duration":0.25833333333332575},{"name":"C5","midi":72,"time":60.668749999999775,"velocity":0.7480314960629921,"duration":0.07083333333333286},{"name":"D5","midi":74,"time":60.731249999999775,"velocity":0.7007874015748031,"duration":0.07499999999999574},{"name":"C5","midi":72,"time":60.79583333333311,"velocity":0.7480314960629921,"duration":0.07499999999999574},{"name":"D5","midi":74,"time":60.86249999999977,"velocity":0.7007874015748031,"duration":0.12708333333333144},{"name":"G#3","midi":56,"time":60.8645833333331,"velocity":0.7559055118110236,"duration":0.2562500000000014},{"name":"B4","midi":71,"time":60.99166666666643,"velocity":0.7480314960629921,"duration":0.12916666666666998},{"name":"C5","midi":72,"time":61.122916666666434,"velocity":0.7637795275590551,"duration":5.0937499999999645},{"name":"A3","midi":57,"time":61.122916666666434,"velocity":0.7559055118110236,"duration":0.25208333333333854},{"name":"E4","midi":64,"time":61.127083333333104,"velocity":0.7559055118110236,"duration":0.5145833333333343},{"name":"A4","midi":69,"time":61.131249999999774,"velocity":0.7637795275590551,"duration":0.5145833333333343},{"name":"B3","midi":59,"time":61.37499999999977,"velocity":0.7559055118110236,"duration":0.25833333333333286},{"name":"C4","midi":60,"time":61.63541666666644,"velocity":0.7559055118110236,"duration":0.24583333333333712},{"name":"D4","midi":62,"time":61.883333333333105,"velocity":0.7559055118110236,"duration":0.23125000000000284},{"name":"C4","midi":60,"time":62.11458333333311,"velocity":0.7559055118110236,"duration":0.23749999999999716},{"name":"D4","midi":62,"time":62.352083333333105,"velocity":0.7559055118110236,"duration":0.24374999999999858},{"name":"C4","midi":60,"time":62.597916666666436,"velocity":0.7559055118110236,"duration":0.24583333333333002},{"name":"B3","midi":59,"time":62.8458333333331,"velocity":0.7559055118110236,"duration":0.24166666666666714},{"name":"A4","midi":69,"time":63.089583333333096,"velocity":0.7637795275590551,"duration":0.4854166666666586},{"name":"G3","midi":55,"time":63.089583333333096,"velocity":0.7559055118110236,"duration":0.23749999999999716},{"name":"E4","midi":64,"time":63.09166666666643,"velocity":0.7559055118110236,"duration":0.4833333333333272},{"name":"A3","midi":57,"time":63.329166666666424,"velocity":0.7559055118110236,"duration":0.24583333333333002},{"name":"B3","midi":59,"time":63.577083333333086,"velocity":0.7559055118110236,"duration":0.23749999999999716},{"name":"C4","midi":60,"time":63.81458333333308,"velocity":0.7559055118110236,"duration":0.2395833333333357},{"name":"B3","midi":59,"time":64.05416666666642,"velocity":0.7559055118110236,"duration":0.23125000000000284},{"name":"C4","midi":60,"time":64.28541666666642,"velocity":0.7559055118110236,"duration":0.23541666666666572},{"name":"B3","midi":59,"time":64.52291666666642,"velocity":0.7559055118110236,"duration":0.2395833333333286},{"name":"A3","midi":57,"time":64.76458333333308,"velocity":0.7559055118110236,"duration":0.24166666666666003},{"name":"A4","midi":69,"time":65.00833333333307,"velocity":0.6929133858267716,"duration":0.4895833333333286},{"name":"D#4","midi":63,"time":65.00833333333307,"velocity":0.7559055118110236,"duration":0.48749999999999716},{"name":"F#3","midi":54,"time":65.0104166666664,"velocity":0.7559055118110236,"duration":0.2395833333333286},{"name":"A3","midi":57,"time":65.24999999999973,"velocity":0.7559055118110236,"duration":0.24583333333333712},{"name":"B3","midi":59,"time":65.4979166666664,"velocity":0.7559055118110236,"duration":0.24583333333333712},{"name":"C4","midi":60,"time":65.74374999999974,"velocity":0.7559055118110236,"duration":0.23541666666666572},{"name":"B3","midi":59,"time":65.9791666666664,"velocity":0.7559055118110236,"duration":0.23541666666666572},{"name":"A4","midi":69,"time":66.2166666666664,"velocity":0.7637795275590551,"duration":0.24166666666666003},{"name":"C4","midi":60,"time":66.21874999999973,"velocity":0.7559055118110236,"duration":0.23749999999999716},{"name":"G#4","midi":68,"time":66.45833333333306,"velocity":0.7637795275590551,"duration":0.2458333333333229},{"name":"B3","midi":59,"time":66.46041666666639,"velocity":0.7559055118110236,"duration":0.24166666666666003},{"name":"A4","midi":69,"time":66.70416666666638,"velocity":0.7637795275590551,"duration":0.24583333333333712},{"name":"A3","midi":57,"time":66.70624999999971,"velocity":0.7559055118110236,"duration":0.24375000000000568},{"name":"C5","midi":72,"time":66.94999999999972,"velocity":0.7637795275590551,"duration":0.23541666666666572},{"name":"A4","midi":69,"time":66.95208333333305,"velocity":0.7637795275590551,"duration":0.46875},{"name":"E4","midi":64,"time":66.95208333333305,"velocity":0.7559055118110236,"duration":0.46875},{"name":"E3","midi":52,"time":66.95416666666638,"velocity":0.7559055118110236,"duration":0.23125000000000284},{"name":"A4","midi":69,"time":67.18749999999972,"velocity":0.7637795275590551,"duration":0.23541666666666572},{"name":"A3","midi":57,"time":67.18749999999972,"velocity":0.7559055118110236,"duration":0.23125000000000284},{"name":"G#4","midi":68,"time":67.42291666666638,"velocity":0.7637795275590551,"duration":0.23125000000000284},{"name":"B3","midi":59,"time":67.42499999999971,"velocity":0.7559055118110236,"duration":0.22708333333333997},{"name":"A4","midi":69,"time":67.65416666666638,"velocity":0.7637795275590551,"duration":0.23125000000000284},{"name":"C4","midi":60,"time":67.65624999999972,"velocity":0.7559055118110236,"duration":0.2291666666666714},{"name":"B3","midi":59,"time":67.88749999999972,"velocity":0.7559055118110236,"duration":0.22499999999999432},{"name":"E4","midi":64,"time":67.88749999999972,"velocity":0.7559055118110236,"duration":0.22708333333332575},{"name":"A4","midi":69,"time":68.11458333333304,"velocity":0.7637795275590551,"duration":0.23749999999999716},{"name":"C4","midi":60,"time":68.11666666666638,"velocity":0.7559055118110236,"duration":0.23541666666666572},{"name":"G4","midi":67,"time":68.35208333333304,"velocity":0.7559055118110236,"duration":0.24583333333333712},{"name":"B3","midi":59,"time":68.35416666666637,"velocity":0.7559055118110236,"duration":0.24375000000000568},{"name":"A4","midi":69,"time":68.59999999999971,"velocity":0.7637795275590551,"duration":0.23749999999999716},{"name":"A3","midi":57,"time":68.59999999999971,"velocity":0.7559055118110236,"duration":0.23749999999999716},{"name":"C5","midi":72,"time":68.83958333333304,"velocity":0.7086614173228346,"duration":2.4104166666666202},{"name":"F#4","midi":66,"time":68.83958333333304,"velocity":0.7559055118110236,"duration":0.4854166666666657},{"name":"D#3","midi":51,"time":68.84166666666637,"velocity":0.7559055118110236,"duration":0.23749999999999716},{"name":"A4","midi":69,"time":68.84583333333303,"velocity":0.7086614173228346,"duration":0.4854166666666657},{"name":"A3","midi":57,"time":69.0812499999997,"velocity":0.7559055118110236,"duration":0.24375000000000568},{"name":"B3","midi":59,"time":69.3249999999997,"velocity":0.7559055118110236,"duration":0.24791666666665435},{"name":"C4","midi":60,"time":69.57291666666636,"velocity":0.7559055118110236,"duration":0.23541666666666572},{"name":"B3","midi":59,"time":69.80833333333302,"velocity":0.7559055118110236,"duration":0.23125000000000284},{"name":"C4","midi":60,"time":70.04166666666636,"velocity":0.7559055118110236,"duration":0.23749999999999716},{"name":"B3","midi":59,"time":70.28124999999969,"velocity":0.7559055118110236,"duration":0.24166666666666003},{"name":"A3","midi":57,"time":70.52291666666635,"velocity":0.7559055118110236,"duration":0.24166666666666003},{"name":"A4","midi":69,"time":70.76458333333301,"velocity":0.7637795275590551,"duration":0.4854166666666515},{"name":"F#4","midi":66,"time":70.76666666666634,"velocity":0.7559055118110236,"duration":0.48333333333332007},{"name":"D#3","midi":51,"time":70.76666666666634,"velocity":0.7559055118110236,"duration":0.2395833333333286},{"name":"F#3","midi":54,"time":71.00624999999967,"velocity":0.7559055118110236,"duration":0.24166666666666003},{"name":"B4","midi":71,"time":71.25208333333299,"velocity":0.7637795275590551,"duration":0.4729166666666629},{"name":"G3","midi":55,"time":71.25208333333299,"velocity":0.7559055118110236,"duration":0.23333333333333428},{"name":"A3","midi":57,"time":71.48749999999966,"velocity":0.7559055118110236,"duration":0.23749999999999716},{"name":"C#5","midi":73,"time":71.72499999999965,"velocity":0.7637795275590551,"duration":0.48124999999998863},{"name":"G3","midi":55,"time":71.72708333333298,"velocity":0.7559055118110236,"duration":0.23749999999999716},{"name":"A3","midi":57,"time":71.96458333333298,"velocity":0.7559055118110236,"duration":0.24166666666666003},{"name":"E5","midi":76,"time":72.20833333333297,"velocity":0.7322834645669292,"duration":0.24166666666666003},{"name":"G3","midi":55,"time":72.20833333333297,"velocity":0.7559055118110236,"duration":0.2395833333333286},{"name":"D#5","midi":75,"time":72.44999999999963,"velocity":0.7322834645669292,"duration":0.23749999999999716},{"name":"F#3","midi":54,"time":72.44999999999963,"velocity":0.7559055118110236,"duration":0.23541666666666572},{"name":"E5","midi":76,"time":72.68749999999963,"velocity":0.7322834645669292,"duration":4.339583333333266},{"name":"G#4","midi":68,"time":72.68958333333296,"velocity":0.7637795275590551,"duration":0.49166666666666003},{"name":"D3","midi":50,"time":72.68958333333296,"velocity":0.7559055118110236,"duration":0.24166666666666003},{"name":"B4","midi":71,"time":72.69374999999962,"velocity":0.7637795275590551,"duration":0.49166666666666003},{"name":"G#3","midi":56,"time":72.93333333333295,"velocity":0.7559055118110236,"duration":0.24375000000000568},{"name":"A3","midi":57,"time":73.17916666666629,"velocity":0.7559055118110236,"duration":0.2458333333333229},{"name":"B3","midi":59,"time":73.42499999999961,"velocity":0.7559055118110236,"duration":0.2395833333333286},{"name":"A3","midi":57,"time":73.66458333333294,"velocity":0.7559055118110236,"duration":0.24166666666666003},{"name":"B3","midi":59,"time":73.90833333333293,"velocity":0.7559055118110236,"duration":0.23333333333333428},{"name":"A3","midi":57,"time":74.14166666666627,"velocity":0.7559055118110236,"duration":0.23541666666666572},{"name":"G#3","midi":56,"time":74.37708333333293,"velocity":0.7559055118110236,"duration":0.23333333333333428},{"name":"C#5","midi":73,"time":74.6124999999996,"velocity":0.7637795275590551,"duration":0.4625000000000057},{"name":"A#4","midi":70,"time":74.6124999999996,"velocity":0.7637795275590551,"duration":0.4645833333333371},{"name":"C#3","midi":49,"time":74.6124999999996,"velocity":0.7559055118110236,"duration":0.23125000000000284},{"name":"E3","midi":52,"time":74.8437499999996,"velocity":0.7559055118110236,"duration":0.23125000000000284},{"name":"F#3","midi":54,"time":75.07708333333294,"velocity":0.7559055118110236,"duration":0.2395833333333286},{"name":"G3","midi":55,"time":75.3187499999996,"velocity":0.7559055118110236,"duration":0.25},{"name":"F#3","midi":54,"time":75.57083333333293,"velocity":0.7559055118110236,"duration":0.24791666666666856},{"name":"G3","midi":55,"time":75.82083333333293,"velocity":0.7559055118110236,"duration":0.24166666666666003},{"name":"F#3","midi":54,"time":76.06458333333292,"velocity":0.7559055118110236,"duration":0.2395833333333286},{"name":"E3","midi":52,"time":76.30624999999958,"velocity":0.7559055118110236,"duration":0.23541666666666572},{"name":"F#4","midi":66,"time":76.54166666666625,"velocity":0.7559055118110236,"duration":0.48333333333332007},{"name":"C3","midi":48,"time":76.54374999999958,"velocity":0.7559055118110236,"duration":0.2395833333333286},{"name":"A4","midi":69,"time":76.54999999999957,"velocity":0.7637795275590551,"duration":0.48333333333332007},{"name":"F#3","midi":54,"time":76.7833333333329,"velocity":0.7559055118110236,"duration":0.24166666666666003},{"name":"D#5","midi":75,"time":77.0270833333329,"velocity":0.7480314960629921,"duration":0.2395833333333286},{"name":"G3","midi":55,"time":77.02916666666623,"velocity":0.7559055118110236,"duration":0.23541666666666572},{"name":"F#5","midi":78,"time":77.26666666666623,"velocity":0.7480314960629921,"duration":0.2395833333333286},{"name":"A3","midi":57,"time":77.26874999999956,"velocity":0.7559055118110236,"duration":0.23541666666666572},{"name":"A5","midi":81,"time":77.50624999999955,"velocity":0.7480314960629921,"duration":0.23749999999999716},{"name":"G3","midi":55,"time":77.50833333333289,"velocity":0.7559055118110236,"duration":0.23541666666666572},{"name":"C6","midi":84,"time":77.74583333333288,"velocity":0.7480314960629921,"duration":0.23125000000000284},{"name":"A3","midi":57,"time":77.74583333333288,"velocity":0.7559055118110236,"duration":0.2291666666666714},{"name":"B5","midi":83,"time":77.97708333333289,"velocity":0.7480314960629921,"duration":0.23749999999999716},{"name":"G3","midi":55,"time":77.97708333333289,"velocity":0.7559055118110236,"duration":0.23749999999999716},{"name":"D#5","midi":75,"time":78.21458333333288,"velocity":0.7480314960629921,"duration":0.24374999999999147},{"name":"F#3","midi":54,"time":78.21666666666621,"velocity":0.7559055118110236,"duration":0.2395833333333286},{"name":"E5","midi":76,"time":78.45833333333287,"velocity":0.7480314960629921,"duration":3.0312499999999716},{"name":"G4","midi":67,"time":78.4604166666662,"velocity":0.7559055118110236,"duration":0.4729166666666629},{"name":"B2","midi":47,"time":78.4604166666662,"velocity":0.7559055118110236,"duration":0.23749999999999716},{"name":"B4","midi":71,"time":78.46458333333287,"velocity":0.7637795275590551,"duration":0.47708333333332575},{"name":"E3","midi":52,"time":78.69999999999953,"velocity":0.7559055118110236,"duration":0.23333333333333428},{"name":"F#3","midi":54,"time":78.9354166666662,"velocity":0.7559055118110236,"duration":0.2395833333333286},{"name":"G3","midi":55,"time":79.17708333333286,"velocity":0.7559055118110236,"duration":0.24583333333333712},{"name":"F#3","midi":54,"time":79.4229166666662,"velocity":0.7559055118110236,"duration":0.25208333333333144},{"name":"G3","midi":55,"time":79.67499999999953,"velocity":0.7559055118110236,"duration":0.23333333333333428},{"name":"F#3","midi":54,"time":79.90833333333286,"velocity":0.7559055118110236,"duration":0.23333333333333428},{"name":"E3","midi":52,"time":80.14374999999953,"velocity":0.7559055118110236,"duration":0.25},{"name":"C#5","midi":73,"time":80.39583333333286,"velocity":0.7637795275590551,"duration":0.48333333333332007},{"name":"G4","midi":67,"time":80.39583333333286,"velocity":0.7559055118110236,"duration":0.48333333333332007},{"name":"A#2","midi":46,"time":80.39791666666619,"velocity":0.7559055118110236,"duration":0.23749999999999716},{"name":"E3","midi":52,"time":80.63749999999952,"velocity":0.7559055118110236,"duration":0.2395833333333286},{"name":"F#3","midi":54,"time":80.88124999999951,"velocity":0.7559055118110236,"duration":0.24166666666666003},{"name":"G3","midi":55,"time":81.12291666666617,"velocity":0.7559055118110236,"duration":0.24583333333333712},{"name":"F#3","midi":54,"time":81.36874999999951,"velocity":0.7559055118110236,"duration":0.24583333333333712},{"name":"F#5","midi":78,"time":81.49166666666618,"velocity":0.7322834645669292,"duration":0.12291666666666856},{"name":"E5","midi":76,"time":81.61666666666618,"velocity":0.7322834645669292,"duration":0.12291666666666856},{"name":"G3","midi":55,"time":81.61666666666618,"velocity":0.7559055118110236,"duration":0.24791666666666856},{"name":"D#5","midi":75,"time":81.74166666666618,"velocity":0.7322834645669292,"duration":0.12291666666666856},{"name":"E5","midi":76,"time":81.86666666666618,"velocity":0.7322834645669292,"duration":0.12291666666666856},{"name":"F#3","midi":54,"time":81.86666666666618,"velocity":0.7559055118110236,"duration":0.24375000000000568},{"name":"C#5","midi":73,"time":81.99166666666618,"velocity":0.7637795275590551,"duration":0.11875000000000568},{"name":"D#5","midi":75,"time":82.11249999999951,"velocity":0.6692913385826772,"duration":0.21041666666666003},{"name":"E3","midi":52,"time":82.11249999999951,"velocity":0.7559055118110236,"duration":0.2541666666666629},{"name":"E5","midi":76,"time":82.36666666666618,"velocity":0.6692913385826772,"duration":0.09999999999999432},{"name":"B4","midi":71,"time":82.36874999999951,"velocity":0.7637795275590551,"duration":0.6645833333333542},{"name":"F#4","midi":66,"time":82.36874999999951,"velocity":0.7559055118110236,"duration":0.6625000000000227},{"name":"B2","midi":47,"time":82.37083333333284,"velocity":0.7559055118110236,"duration":0.35208333333333997},{"name":"D#5","midi":75,"time":82.45416666666617,"velocity":0.6692913385826772,"duration":0.10208333333333997},{"name":"E5","midi":76,"time":82.5437499999995,"velocity":0.6692913385826772,"duration":0.10208333333333997},{"name":"D#5","midi":75,"time":82.63333333333284,"velocity":0.6692913385826772,"duration":0.10000000000000853},{"name":"E5","midi":76,"time":82.72291666666618,"velocity":0.6692913385826772,"duration":0.09166666666666856},{"name":"F#3","midi":54,"time":82.72499999999951,"velocity":0.7559055118110236,"duration":0.3062500000000199},{"name":"D#5","midi":75,"time":82.80208333333285,"velocity":0.6692913385826772,"duration":0.08958333333333712},{"name":"E5","midi":76,"time":82.88124999999951,"velocity":0.6692913385826772,"duration":0.09166666666668277},{"name":"D#5","midi":75,"time":82.96249999999952,"velocity":0.6692913385826772,"duration":0.07500000000000284},{"name":"E5","midi":76,"time":83.03333333333286,"velocity":0.6692913385826772,"duration":0.07083333333333997},{"name":"G3","midi":55,"time":83.03333333333286,"velocity":0.7559055118110236,"duration":0.2541666666666913},{"name":"D#5","midi":75,"time":83.09374999999953,"velocity":0.6692913385826772,"duration":0.07500000000001705},{"name":"E5","midi":76,"time":83.16041666666621,"velocity":0.6692913385826772,"duration":0.07083333333333997},{"name":"D#5","midi":75,"time":83.22499999999955,"velocity":0.6692913385826772,"duration":0.0729166666666714},{"name":"E5","midi":76,"time":83.28958333333289,"velocity":0.6692913385826772,"duration":0.07291666666668561},{"name":"A3","midi":57,"time":83.28958333333289,"velocity":0.7559055118110236,"duration":0.2604166666666998},{"name":"D#5","midi":75,"time":83.35416666666623,"velocity":0.6692913385826772,"duration":0.07083333333333997},{"name":"E5","midi":76,"time":83.41874999999958,"velocity":0.6692913385826772,"duration":0.07083333333333997},{"name":"D#5","midi":75,"time":83.48124999999958,"velocity":0.6692913385826772,"duration":0.07500000000000284},{"name":"E5","midi":76,"time":83.54999999999959,"velocity":0.6692913385826772,"duration":0.07083333333333997},{"name":"G3","midi":55,"time":83.54999999999959,"velocity":0.7559055118110236,"duration":0.25625000000002274},{"name":"D#5","midi":75,"time":83.61249999999959,"velocity":0.6692913385826772,"duration":0.07083333333333997},{"name":"E5","midi":76,"time":83.67708333333293,"velocity":0.6692913385826772,"duration":0.0729166666666714},{"name":"D#5","midi":75,"time":83.73958333333293,"velocity":0.6692913385826772,"duration":0.07500000000000284},{"name":"E5","midi":76,"time":83.80624999999961,"velocity":0.6692913385826772,"duration":0.07083333333332575},{"name":"A3","midi":57,"time":83.80833333333294,"velocity":0.7559055118110236,"duration":0.25833333333332575},{"name":"D#5","midi":75,"time":83.87083333333294,"velocity":0.6692913385826772,"duration":0.17291666666666572},{"name":"E5","midi":76,"time":84.0687499999996,"velocity":0.6692913385826772,"duration":0.46666666666666856},{"name":"G3","midi":55,"time":84.0687499999996,"velocity":0.7559055118110236,"duration":0.25833333333333997},{"name":"F#3","midi":54,"time":84.32708333333294,"velocity":0.7559055118110236,"duration":0.25},{"name":"E5","midi":76,"time":84.57708333333294,"velocity":0.7322834645669292,"duration":8.158333333333275},{"name":"G4","midi":67,"time":84.57916666666627,"velocity":0.7559055118110236,"duration":0.49166666666666003},{"name":"E3","midi":52,"time":84.57916666666627,"velocity":0.7559055118110236,"duration":0.24374999999999147},{"name":"B4","midi":71,"time":84.58333333333293,"velocity":0.7637795275590551,"duration":0.4937499999999915},{"name":"G3","midi":55,"time":84.82499999999959,"velocity":0.7559055118110236,"duration":0.24375000000000568},{"name":"A3","midi":57,"time":85.07083333333293,"velocity":0.7559055118110236,"duration":0.24791666666665435},{"name":"B3","midi":59,"time":85.32083333333291,"velocity":0.7559055118110236,"duration":0.24166666666666003},{"name":"A3","midi":57,"time":85.5645833333329,"velocity":0.7559055118110236,"duration":0.23541666666666572},{"name":"B3","midi":59,"time":85.8020833333329,"velocity":0.7559055118110236,"duration":0.23541666666666572},{"name":"A3","midi":57,"time":86.03749999999957,"velocity":0.7559055118110236,"duration":0.24375000000000568},{"name":"G3","midi":55,"time":86.28124999999957,"velocity":0.7559055118110236,"duration":0.24166666666666003},{"name":"G#4","midi":68,"time":86.52499999999957,"velocity":0.7322834645669292,"duration":0.4750000000000085},{"name":"B4","midi":71,"time":86.52499999999957,"velocity":0.7322834645669292,"duration":0.4750000000000085},{"name":"D3","midi":50,"time":86.52499999999957,"velocity":0.7559055118110236,"duration":0.24375000000000568},{"name":"G#3","midi":56,"time":86.76874999999957,"velocity":0.7559055118110236,"duration":0.23125000000000284},{"name":"A3","midi":57,"time":87.0020833333329,"velocity":0.7559055118110236,"duration":0.23541666666666572},{"name":"B3","midi":59,"time":87.23749999999957,"velocity":0.7559055118110236,"duration":0.23125000000000284},{"name":"A3","midi":57,"time":87.4708333333329,"velocity":0.7559055118110236,"duration":0.23125000000000284},{"name":"B3","midi":59,"time":87.70416666666624,"velocity":0.7559055118110236,"duration":0.2395833333333286},{"name":"A3","midi":57,"time":87.94374999999957,"velocity":0.7559055118110236,"duration":0.24583333333333712},{"name":"G#3","midi":56,"time":88.1895833333329,"velocity":0.7559055118110236,"duration":0.24583333333333712},{"name":"C5","midi":72,"time":88.43749999999957,"velocity":0.7322834645669292,"duration":0.48124999999998863},{"name":"A4","midi":69,"time":88.43749999999957,"velocity":0.7322834645669292,"duration":0.48124999999998863},{"name":"C3","midi":48,"time":88.43749999999957,"velocity":0.7559055118110236,"duration":0.2395833333333286},{"name":"A3","midi":57,"time":88.6770833333329,"velocity":0.7559055118110236,"duration":0.24166666666666003},{"name":"B3","midi":59,"time":88.9208333333329,"velocity":0.7559055118110236,"duration":0.23541666666666572},{"name":"C4","midi":60,"time":89.15624999999956,"velocity":0.7559055118110236,"duration":0.23749999999999716},{"name":"B3","midi":59,"time":89.39583333333289,"velocity":0.7559055118110236,"duration":0.2395833333333286},{"name":"C4","midi":60,"time":89.63749999999955,"velocity":0.7559055118110236,"duration":0.2395833333333286},{"name":"B3","midi":59,"time":89.87916666666621,"velocity":0.7559055118110236,"duration":0.23749999999999716},{"name":"A3","midi":57,"time":90.1166666666662,"velocity":0.7559055118110236,"duration":0.23749999999999716},{"name":"B4","midi":71,"time":90.3541666666662,"velocity":0.7637795275590551,"duration":0.5020833333333314},{"name":"D5","midi":74,"time":90.35624999999953,"velocity":0.7322834645669292,"duration":0.49791666666666856},{"name":"G#3","midi":56,"time":90.35624999999953,"velocity":0.7559055118110236,"duration":0.24791666666666856},{"name":"B3","midi":59,"time":90.6041666666662,"velocity":0.7559055118110236,"duration":0.25},{"name":"C4","midi":60,"time":90.85624999999953,"velocity":0.7559055118110236,"duration":0.24791666666666856},{"name":"D4","midi":62,"time":91.1041666666662,"velocity":0.7559055118110236,"duration":0.25},{"name":"C4","midi":60,"time":91.3541666666662,"velocity":0.7559055118110236,"duration":0.25833333333333997},{"name":"D4","midi":62,"time":91.61249999999954,"velocity":0.7559055118110236,"duration":0.2604166666666714},{"name":"C4","midi":60,"time":91.87291666666621,"velocity":0.7559055118110236,"duration":0.33124999999999716},{"name":"B3","midi":59,"time":92.20416666666621,"velocity":0.7559055118110236,"duration":0.375},{"name":"C5","midi":72,"time":92.58124999999954,"velocity":0.7637795275590551,"duration":0.2854166666666629},{"name":"A3","midi":57,"time":92.58124999999954,"velocity":0.7637795275590551,"duration":0.15208333333333712},{"name":"A5","midi":81,"time":92.73541666666621,"velocity":0.6850393700787402,"duration":0.13124999999999432},{"name":"C4","midi":60,"time":92.73749999999954,"velocity":0.7637795275590551,"duration":0.12708333333333144},{"name":"B5","midi":83,"time":92.86874999999954,"velocity":0.6850393700787402,"duration":0.13124999999999432},{"name":"D4","midi":62,"time":92.86874999999954,"velocity":0.7637795275590551,"duration":0.12916666666666288},{"name":"C6","midi":84,"time":92.99999999999953,"velocity":0.6850393700787402,"duration":0.13124999999999432},{"name":"E4","midi":64,"time":92.99999999999953,"velocity":0.7637795275590551,"duration":0.12916666666666288},{"name":"B5","midi":83,"time":93.13124999999953,"velocity":0.6850393700787402,"duration":0.13124999999999432},{"name":"D4","midi":62,"time":93.13333333333286,"velocity":0.7637795275590551,"duration":0.12916666666666288},{"name":"C6","midi":84,"time":93.26458333333285,"velocity":0.6850393700787402,"duration":0.12916666666666288},{"name":"E4","midi":64,"time":93.26458333333285,"velocity":0.7637795275590551,"duration":0.12708333333333144},{"name":"B5","midi":83,"time":93.39583333333285,"velocity":0.6850393700787402,"duration":0.12916666666666288},{"name":"D4","midi":62,"time":93.39583333333285,"velocity":0.7637795275590551,"duration":0.12916666666666288},{"name":"A5","midi":81,"time":93.52708333333284,"velocity":0.6850393700787402,"duration":0.13333333333332575},{"name":"C4","midi":60,"time":93.52708333333284,"velocity":0.7637795275590551,"duration":0.13124999999999432},{"name":"E5","midi":76,"time":93.66041666666617,"velocity":0.6850393700787402,"duration":0.13750000000000284},{"name":"A3","midi":57,"time":93.6624999999995,"velocity":0.7637795275590551,"duration":0.1354166666666714},{"name":"A5","midi":81,"time":93.79791666666617,"velocity":0.6850393700787402,"duration":0.13124999999999432},{"name":"C4","midi":60,"time":93.7999999999995,"velocity":0.7637795275590551,"duration":0.12916666666666288},{"name":"B5","midi":83,"time":93.9312499999995,"velocity":0.6850393700787402,"duration":0.12708333333333144},{"name":"D4","midi":62,"time":93.9312499999995,"velocity":0.7637795275590551,"duration":0.125},{"name":"C6","midi":84,"time":94.05833333333283,"velocity":0.6850393700787402,"duration":0.12708333333333144},{"name":"E4","midi":64,"time":94.05833333333283,"velocity":0.7637795275590551,"duration":0.12708333333333144},{"name":"B5","midi":83,"time":94.18749999999949,"velocity":0.6850393700787402,"duration":0.12708333333333144},{"name":"D4","midi":62,"time":94.18749999999949,"velocity":0.7637795275590551,"duration":0.125},{"name":"C6","midi":84,"time":94.31458333333282,"velocity":0.6850393700787402,"duration":0.12708333333333144},{"name":"E4","midi":64,"time":94.31666666666615,"velocity":0.7637795275590551,"duration":0.125},{"name":"B5","midi":83,"time":94.44374999999948,"velocity":0.6850393700787402,"duration":0.12916666666666288},{"name":"D4","midi":62,"time":94.44374999999948,"velocity":0.7637795275590551,"duration":0.12708333333333144},{"name":"A5","midi":81,"time":94.57291666666615,"velocity":0.6850393700787402,"duration":0.12916666666666288},{"name":"C4","midi":60,"time":94.57499999999948,"velocity":0.7637795275590551,"duration":0.125},{"name":"B5","midi":83,"time":94.70208333333281,"velocity":0.6850393700787402,"duration":0.125},{"name":"A3","midi":57,"time":94.70416666666614,"velocity":0.7637795275590551,"duration":0.12291666666666856},{"name":"A5","midi":81,"time":94.82916666666614,"velocity":0.6850393700787402,"duration":0.125},{"name":"D4","midi":62,"time":94.82916666666614,"velocity":0.7637795275590551,"duration":0.12291666666666856},{"name":"G#5","midi":80,"time":94.95416666666614,"velocity":0.6850393700787402,"duration":0.12916666666666288},{"name":"E4","midi":64,"time":94.95624999999947,"velocity":0.7637795275590551,"duration":0.12708333333333144},{"name":"A5","midi":81,"time":95.08541666666613,"velocity":0.6850393700787402,"duration":0.12708333333333144},{"name":"F4","midi":65,"time":95.08541666666613,"velocity":0.7637795275590551,"duration":0.125},{"name":"B5","midi":83,"time":95.21249999999947,"velocity":0.6850393700787402,"duration":0.12708333333333144},{"name":"E4","midi":64,"time":95.2145833333328,"velocity":0.7637795275590551,"duration":0.125},{"name":"A5","midi":81,"time":95.34166666666613,"velocity":0.6850393700787402,"duration":0.125},{"name":"F4","midi":65,"time":95.34166666666613,"velocity":0.7637795275590551,"duration":0.12291666666666856},{"name":"G#5","midi":80,"time":95.46666666666613,"velocity":0.6850393700787402,"duration":0.12708333333333144},{"name":"E4","midi":64,"time":95.46874999999946,"velocity":0.7637795275590551,"duration":0.125},{"name":"A5","midi":81,"time":95.59583333333279,"velocity":0.6850393700787402,"duration":0.12916666666666288},{"name":"D4","midi":62,"time":95.59583333333279,"velocity":0.7637795275590551,"duration":0.12708333333333144},{"name":"D5","midi":74,"time":95.72499999999945,"velocity":0.6850393700787402,"duration":0.2604166666666572},{"name":"A3","midi":57,"time":95.72499999999945,"velocity":0.7637795275590551,"duration":0.13124999999999432},{"name":"D4","midi":62,"time":95.85833333333278,"velocity":0.7637795275590551,"duration":0.12708333333333144},{"name":"B5","midi":83,"time":95.98749999999944,"velocity":0.6850393700787402,"duration":0.3812499999999943},{"name":"E4","midi":64,"time":95.98749999999944,"velocity":0.7637795275590551,"duration":0.125},{"name":"F4","midi":65,"time":96.11458333333277,"velocity":0.7637795275590551,"duration":0.125},{"name":"E4","midi":64,"time":96.23958333333277,"velocity":0.7637795275590551,"duration":0.12708333333333144},{"name":"A5","midi":81,"time":96.36874999999944,"velocity":0.6850393700787402,"duration":0.12291666666666856},{"name":"F4","midi":65,"time":96.37083333333277,"velocity":0.7637795275590551,"duration":0.12083333333333712},{"name":"G5","midi":79,"time":96.49374999999944,"velocity":0.6850393700787402,"duration":0.125},{"name":"E4","midi":64,"time":96.49374999999944,"velocity":0.7637795275590551,"duration":0.12291666666666856},{"name":"A5","midi":81,"time":96.61874999999944,"velocity":0.6850393700787402,"duration":0.125},{"name":"D4","midi":62,"time":96.62083333333277,"velocity":0.7637795275590551,"duration":0.12291666666666856},{"name":"F5","midi":77,"time":96.74583333333277,"velocity":0.6850393700787402,"duration":0.12708333333333144},{"name":"G#3","midi":56,"time":96.74583333333277,"velocity":0.7637795275590551,"duration":0.125},{"name":"B4","midi":71,"time":96.8729166666661,"velocity":0.7322834645669292,"duration":0.125},{"name":"D4","midi":62,"time":96.87499999999943,"velocity":0.7637795275590551,"duration":0.12291666666666856},{"name":"C5","midi":72,"time":96.99999999999943,"velocity":0.7322834645669292,"duration":0.12083333333333712},{"name":"E4","midi":64,"time":96.99999999999943,"velocity":0.7637795275590551,"duration":0.11875000000000568},{"name":"D5","midi":74,"time":97.12083333333277,"velocity":0.6850393700787402,"duration":0.125},{"name":"F4","midi":65,"time":97.1229166666661,"velocity":0.7637795275590551,"duration":0.12291666666666856},{"name":"C5","midi":72,"time":97.2479166666661,"velocity":0.7322834645669292,"duration":0.12291666666666856},{"name":"E4","midi":64,"time":97.2479166666661,"velocity":0.7637795275590551,"duration":0.12083333333333712},{"name":"D5","midi":74,"time":97.37083333333277,"velocity":0.6850393700787402,"duration":0.12083333333333712},{"name":"F4","midi":65,"time":97.3729166666661,"velocity":0.7637795275590551,"duration":0.11875000000000568},{"name":"C5","midi":72,"time":97.49374999999944,"velocity":0.7322834645669292,"duration":0.125},{"name":"E4","midi":64,"time":97.49374999999944,"velocity":0.7637795275590551,"duration":0.12291666666666856},{"name":"B4","midi":71,"time":97.61874999999944,"velocity":0.7322834645669292,"duration":0.12083333333333712},{"name":"D4","midi":62,"time":97.62083333333277,"velocity":0.7637795275590551,"duration":0.11875000000000568},{"name":"E5","midi":76,"time":97.7416666666661,"velocity":0.6850393700787402,"duration":0.13124999999999432},{"name":"G#3","midi":56,"time":97.7416666666661,"velocity":0.7637795275590551,"duration":0.12916666666666288},{"name":"D5","midi":74,"time":97.8729166666661,"velocity":0.6850393700787402,"duration":0.12708333333333144},{"name":"B3","midi":59,"time":97.87499999999943,"velocity":0.7637795275590551,"duration":0.125},{"name":"E5","midi":76,"time":97.99999999999943,"velocity":0.6850393700787402,"duration":0.125},{"name":"C4","midi":60,"time":98.00208333333276,"velocity":0.7637795275590551,"duration":0.12291666666666856},{"name":"F5","midi":77,"time":98.12708333333276,"velocity":0.6850393700787402,"duration":0.125},{"name":"D4","midi":62,"time":98.12708333333276,"velocity":0.7637795275590551,"duration":0.12291666666666856},{"name":"E5","midi":76,"time":98.25208333333276,"velocity":0.6850393700787402,"duration":0.125},{"name":"C4","midi":60,"time":98.2541666666661,"velocity":0.7637795275590551,"duration":0.12083333333333712},{"name":"F5","midi":77,"time":98.37708333333276,"velocity":0.6850393700787402,"duration":0.12291666666666856},{"name":"D4","midi":62,"time":98.37708333333276,"velocity":0.7637795275590551,"duration":0.12291666666666856},{"name":"E5","midi":76,"time":98.50208333333276,"velocity":0.6850393700787402,"duration":0.12291666666666856},{"name":"C4","midi":60,"time":98.50208333333276,"velocity":0.7637795275590551,"duration":0.12291666666666856},{"name":"D5","midi":74,"time":98.62499999999943,"velocity":0.6850393700787402,"duration":0.125},{"name":"B3","midi":59,"time":98.62708333333276,"velocity":0.7637795275590551,"duration":0.12291666666666856},{"name":"C5","midi":72,"time":98.75208333333276,"velocity":0.7322834645669292,"duration":0.12916666666666288},{"name":"A3","midi":57,"time":98.75208333333276,"velocity":0.7637795275590551,"duration":0.12708333333333144},{"name":"G#4","midi":68,"time":98.88124999999943,"velocity":0.7322834645669292,"duration":0.12291666666666856},{"name":"B3","midi":59,"time":98.88333333333276,"velocity":0.7637795275590551,"duration":0.12083333333333712},{"name":"A4","midi":69,"time":99.00624999999943,"velocity":0.7322834645669292,"duration":0.12083333333333712},{"name":"C4","midi":60,"time":99.00624999999943,"velocity":0.7637795275590551,"duration":0.11875000000000568},{"name":"B4","midi":71,"time":99.12708333333276,"velocity":0.7322834645669292,"duration":0.12291666666666856},{"name":"D4","midi":62,"time":99.12708333333276,"velocity":0.7637795275590551,"duration":0.12291666666666856},{"name":"A4","midi":69,"time":99.25208333333276,"velocity":0.7322834645669292,"duration":0.12291666666666856},{"name":"C4","midi":60,"time":99.25208333333276,"velocity":0.7637795275590551,"duration":0.12291666666666856},{"name":"G#4","midi":68,"time":99.37499999999943,"velocity":0.7322834645669292,"duration":0.125},{"name":"D4","midi":62,"time":99.37708333333276,"velocity":0.7637795275590551,"duration":0.12291666666666856},{"name":"A4","midi":69,"time":99.50208333333276,"velocity":0.7322834645669292,"duration":0.12291666666666856},{"name":"C4","midi":60,"time":99.50208333333276,"velocity":0.7637795275590551,"duration":0.12291666666666856},{"name":"B4","midi":71,"time":99.62499999999943,"velocity":0.7322834645669292,"duration":0.125},{"name":"B3","midi":59,"time":99.62708333333276,"velocity":0.7637795275590551,"duration":0.12083333333333712},{"name":"C5","midi":72,"time":99.74999999999943,"velocity":0.7322834645669292,"duration":0.12916666666666288},{"name":"A3","midi":57,"time":99.74999999999943,"velocity":0.7637795275590551,"duration":0.12708333333333144},{"name":"A5","midi":81,"time":99.8791666666661,"velocity":0.6850393700787402,"duration":0.125},{"name":"B3","midi":59,"time":99.88124999999943,"velocity":0.7637795275590551,"duration":0.12291666666666856},{"name":"G5","midi":79,"time":100.00624999999943,"velocity":0.6850393700787402,"duration":0.12291666666666856},{"name":"C4","midi":60,"time":100.00624999999943,"velocity":0.7637795275590551,"duration":0.12083333333333712},{"name":"F5","midi":77,"time":100.1291666666661,"velocity":0.6850393700787402,"duration":0.12291666666666856},{"name":"D4","midi":62,"time":100.13124999999943,"velocity":0.7637795275590551,"duration":0.12083333333333712},{"name":"E5","midi":76,"time":100.2541666666661,"velocity":0.6850393700787402,"duration":0.12083333333333712},{"name":"C4","midi":60,"time":100.2541666666661,"velocity":0.7637795275590551,"duration":0.12083333333333712},{"name":"F5","midi":77,"time":100.37499999999943,"velocity":0.6850393700787402,"duration":0.125},{"name":"D4","midi":62,"time":100.37708333333276,"velocity":0.7637795275590551,"duration":0.12083333333333712},{"name":"E5","midi":76,"time":100.49999999999943,"velocity":0.6850393700787402,"duration":0.125},{"name":"C4","midi":60,"time":100.49999999999943,"velocity":0.7637795275590551,"duration":0.125},{"name":"D5","midi":74,"time":100.62499999999943,"velocity":0.6850393700787402,"duration":0.125},{"name":"B3","midi":59,"time":100.62708333333276,"velocity":0.7637795275590551,"duration":0.12083333333333712},{"name":"C#5","midi":73,"time":100.74999999999943,"velocity":0.6850393700787402,"duration":0.12916666666666288},{"name":"G3","midi":55,"time":100.74999999999943,"velocity":0.7637795275590551,"duration":0.12708333333333144},{"name":"E5","midi":76,"time":100.8791666666661,"velocity":0.6377952755905512,"duration":0.125},{"name":"C#4","midi":61,"time":100.88124999999943,"velocity":0.7637795275590551,"duration":0.12291666666666856},{"name":"F#5","midi":78,"time":101.00624999999943,"velocity":0.6377952755905512,"duration":0.125},{"name":"D4","midi":62,"time":101.00624999999943,"velocity":0.7637795275590551,"duration":0.12291666666666856},{"name":"G5","midi":79,"time":101.13124999999943,"velocity":0.6377952755905512,"duration":0.12291666666666856},{"name":"E4","midi":64,"time":101.13333333333276,"velocity":0.7637795275590551,"duration":0.12083333333333712},{"name":"F#5","midi":78,"time":101.25624999999943,"velocity":0.6377952755905512,"duration":0.12083333333333712},{"name":"D4","midi":62,"time":101.25624999999943,"velocity":0.7637795275590551,"duration":0.11875000000000568},{"name":"G5","midi":79,"time":101.37708333333276,"velocity":0.6377952755905512,"duration":0.125},{"name":"E4","midi":64,"time":101.3791666666661,"velocity":0.7637795275590551,"duration":0.12291666666666856},{"name":"F#5","midi":78,"time":101.5041666666661,"velocity":0.6377952755905512,"duration":0.12708333333333144},{"name":"D4","midi":62,"time":101.5041666666661,"velocity":0.7637795275590551,"duration":0.125},{"name":"E5","midi":76,"time":101.63124999999943,"velocity":0.6377952755905512,"duration":0.12291666666666856},{"name":"C#4","midi":61,"time":101.63333333333276,"velocity":0.7637795275590551,"duration":0.12083333333333712},{"name":"D#5","midi":75,"time":101.75624999999943,"velocity":0.6377952755905512,"duration":0.12916666666666288},{"name":"F#3","midi":54,"time":101.75624999999943,"velocity":0.7637795275590551,"duration":0.12708333333333144},{"name":"F#5","midi":78,"time":101.88541666666609,"velocity":0.6377952755905512,"duration":0.125},{"name":"D#4","midi":63,"time":101.88749999999942,"velocity":0.7637795275590551,"duration":0.12291666666666856},{"name":"G5","midi":79,"time":102.01249999999942,"velocity":0.6377952755905512,"duration":0.12291666666666856},{"name":"E4","midi":64,"time":102.01249999999942,"velocity":0.7637795275590551,"duration":0.12083333333333712},{"name":"A5","midi":81,"time":102.13541666666609,"velocity":0.6377952755905512,"duration":0.12708333333333144},{"name":"F#4","midi":66,"time":102.13749999999942,"velocity":0.7637795275590551,"duration":0.125},{"name":"G5","midi":79,"time":102.26458333333275,"velocity":0.6377952755905512,"duration":0.12083333333333712},{"name":"E4","midi":64,"time":102.26458333333275,"velocity":0.7637795275590551,"duration":0.11875000000000568},{"name":"A5","midi":81,"time":102.38541666666609,"velocity":0.6377952755905512,"duration":0.12083333333333712},{"name":"F#4","midi":66,"time":102.38749999999942,"velocity":0.7637795275590551,"duration":0.11875000000000568},{"name":"G5","midi":79,"time":102.50833333333276,"velocity":0.6377952755905512,"duration":0.12291666666666856},{"name":"E4","midi":64,"time":102.50833333333276,"velocity":0.7637795275590551,"duration":0.12083333333333712},{"name":"F#5","midi":78,"time":102.63124999999943,"velocity":0.6377952755905512,"duration":0.12708333333333144},{"name":"D#4","midi":63,"time":102.63333333333276,"velocity":0.7637795275590551,"duration":0.12291666666666856},{"name":"G5","midi":79,"time":102.75833333333276,"velocity":0.6850393700787402,"duration":0.12708333333333144},{"name":"E4","midi":64,"time":102.76041666666609,"velocity":0.7637795275590551,"duration":0.12291666666666856},{"name":"G4","midi":67,"time":102.88541666666609,"velocity":0.7637795275590551,"duration":0.125},{"name":"E3","midi":52,"time":102.88749999999942,"velocity":0.7637795275590551,"duration":0.12291666666666856},{"name":"A4","midi":69,"time":103.01249999999942,"velocity":0.7322834645669292,"duration":0.125},{"name":"F#3","midi":54,"time":103.01249999999942,"velocity":0.7637795275590551,"duration":0.125},{"name":"B4","midi":71,"time":103.13749999999942,"velocity":0.7322834645669292,"duration":0.125},{"name":"G3","midi":55,"time":103.13958333333275,"velocity":0.7637795275590551,"duration":0.12291666666666856},{"name":"A4","midi":69,"time":103.26458333333275,"velocity":0.7322834645669292,"duration":0.12291666666666856},{"name":"F#3","midi":54,"time":103.26458333333275,"velocity":0.7637795275590551,"duration":0.12291666666666856},{"name":"B4","midi":71,"time":103.38958333333275,"velocity":0.7322834645669292,"duration":0.11666666666666003},{"name":"G3","midi":55,"time":103.38958333333275,"velocity":0.7637795275590551,"duration":0.1145833333333286},{"name":"A4","midi":69,"time":103.50624999999941,"velocity":0.7322834645669292,"duration":0.11875000000000568},{"name":"F#3","midi":54,"time":103.50624999999941,"velocity":0.7637795275590551,"duration":0.11875000000000568},{"name":"G4","midi":67,"time":103.62499999999942,"velocity":0.7637795275590551,"duration":0.125},{"name":"E3","midi":52,"time":103.62708333333275,"velocity":0.7637795275590551,"duration":0.12291666666666856},{"name":"F5","midi":77,"time":103.74999999999942,"velocity":0.6850393700787402,"duration":0.12708333333333144},{"name":"D3","midi":50,"time":103.75208333333275,"velocity":0.7637795275590551,"duration":0.125},{"name":"G#4","midi":68,"time":103.87916666666608,"velocity":0.7322834645669292,"duration":0.125},{"name":"E3","midi":52,"time":103.87916666666608,"velocity":0.7637795275590551,"duration":0.12291666666666856},{"name":"A4","midi":69,"time":104.00416666666608,"velocity":0.7322834645669292,"duration":0.12083333333333712},{"name":"F3","midi":53,"time":104.00416666666608,"velocity":0.7637795275590551,"duration":0.12083333333333712},{"name":"B4","midi":71,"time":104.12708333333275,"velocity":0.7322834645669292,"duration":0.12083333333333712},{"name":"G3","midi":55,"time":104.12708333333275,"velocity":0.7637795275590551,"duration":0.12083333333333712},{"name":"A4","midi":69,"time":104.24999999999942,"velocity":0.7322834645669292,"duration":0.125},{"name":"F3","midi":53,"time":104.24999999999942,"velocity":0.7637795275590551,"duration":0.12291666666666856},{"name":"B4","midi":71,"time":104.37499999999942,"velocity":0.7322834645669292,"duration":0.125},{"name":"G3","midi":55,"time":104.37499999999942,"velocity":0.7637795275590551,"duration":0.125},{"name":"A4","midi":69,"time":104.49999999999942,"velocity":0.7322834645669292,"duration":0.125},{"name":"F3","midi":53,"time":104.50208333333275,"velocity":0.7637795275590551,"duration":0.12083333333333712},{"name":"G#4","midi":68,"time":104.62499999999942,"velocity":0.7322834645669292,"duration":0.12083333333333712},{"name":"E3","midi":52,"time":104.62499999999942,"velocity":0.7637795275590551,"duration":0.12083333333333712},{"name":"E5","midi":76,"time":104.74791666666609,"velocity":0.6850393700787402,"duration":0.13124999999999432},{"name":"C3","midi":48,"time":104.74791666666609,"velocity":0.7637795275590551,"duration":0.13124999999999432},{"name":"A4","midi":69,"time":104.88124999999941,"velocity":0.7322834645669292,"duration":0.125},{"name":"F#3","midi":54,"time":104.88124999999941,"velocity":0.7637795275590551,"duration":0.12291666666666856},{"name":"B4","midi":71,"time":105.00624999999941,"velocity":0.7322834645669292,"duration":0.125},{"name":"G#3","midi":56,"time":105.00833333333274,"velocity":0.7637795275590551,"duration":0.12291666666666856},{"name":"C5","midi":72,"time":105.13333333333274,"velocity":0.7322834645669292,"duration":0.12291666666666856},{"name":"A3","midi":57,"time":105.13333333333274,"velocity":0.7637795275590551,"duration":0.12083333333333712},{"name":"B4","midi":71,"time":105.25624999999941,"velocity":0.7322834645669292,"duration":0.11874999999999147},{"name":"G#3","midi":56,"time":105.25833333333274,"velocity":0.7637795275590551,"duration":0.11666666666666003},{"name":"C5","midi":72,"time":105.37708333333273,"velocity":0.7322834645669292,"duration":0.1145833333333286},{"name":"A3","midi":57,"time":105.37708333333273,"velocity":0.7637795275590551,"duration":0.1145833333333286},{"name":"B4","midi":71,"time":105.4937499999994,"velocity":0.7322834645669292,"duration":0.12291666666666856},{"name":"G#3","midi":56,"time":105.4937499999994,"velocity":0.7637795275590551,"duration":0.12083333333333712},{"name":"A4","midi":69,"time":105.61666666666606,"velocity":0.7322834645669292,"duration":0.125},{"name":"F#3","midi":54,"time":105.6187499999994,"velocity":0.7637795275590551,"duration":0.12291666666666856},{"name":"D5","midi":74,"time":105.7437499999994,"velocity":0.6850393700787402,"duration":0.125},{"name":"B2","midi":47,"time":105.7437499999994,"velocity":0.7637795275590551,"duration":0.12291666666666856},{"name":"B4","midi":71,"time":105.8687499999994,"velocity":0.7322834645669292,"duration":0.12291666666666856},{"name":"G#3","midi":56,"time":105.87083333333273,"velocity":0.7637795275590551,"duration":0.12083333333333712},{"name":"C5","midi":72,"time":105.9937499999994,"velocity":0.7322834645669292,"duration":0.12291666666666856},{"name":"A3","midi":57,"time":105.9937499999994,"velocity":0.7637795275590551,"duration":0.12083333333333712},{"name":"D5","midi":74,"time":106.11666666666606,"velocity":0.6850393700787402,"duration":0.11874999999999147},{"name":"B3","midi":59,"time":106.1187499999994,"velocity":0.7637795275590551,"duration":0.11666666666666003},{"name":"C5","midi":72,"time":106.23749999999939,"velocity":0.7322834645669292,"duration":0.11874999999999147},{"name":"A3","midi":57,"time":106.23749999999939,"velocity":0.7637795275590551,"duration":0.11666666666666003},{"name":"D5","midi":74,"time":106.35624999999938,"velocity":0.6850393700787402,"duration":0.125},{"name":"B3","midi":59,"time":106.35833333333271,"velocity":0.7637795275590551,"duration":0.12291666666666856},{"name":"C5","midi":72,"time":106.48333333333271,"velocity":0.7322834645669292,"duration":0.12708333333333144},{"name":"A3","midi":57,"time":106.48333333333271,"velocity":0.7637795275590551,"duration":0.125},{"name":"B4","midi":71,"time":106.61041666666604,"velocity":0.7322834645669292,"duration":0.12708333333333144},{"name":"G#3","midi":56,"time":106.61249999999937,"velocity":0.7637795275590551,"duration":0.125},{"name":"C5","midi":72,"time":106.7395833333327,"velocity":0.7322834645669292,"duration":0.125},{"name":"A3","midi":57,"time":106.7395833333327,"velocity":0.7637795275590551,"duration":0.12291666666666856},{"name":"A4","midi":69,"time":106.8645833333327,"velocity":0.7322834645669292,"duration":0.125},{"name":"A2","midi":45,"time":106.86666666666603,"velocity":0.7637795275590551,"duration":0.12291666666666856},{"name":"G#4","midi":68,"time":106.99166666666603,"velocity":0.7322834645669292,"duration":0.12083333333333712},{"name":"B2","midi":47,"time":106.99166666666603,"velocity":0.7637795275590551,"duration":0.11875000000000568},{"name":"A4","midi":69,"time":107.11249999999937,"velocity":0.7322834645669292,"duration":0.11666666666666003},{"name":"C3","midi":48,"time":107.1145833333327,"velocity":0.7637795275590551,"duration":0.1145833333333286},{"name":"E4","midi":64,"time":107.23124999999936,"velocity":0.7637795275590551,"duration":0.12083333333333712},{"name":"B2","midi":47,"time":107.23124999999936,"velocity":0.7637795275590551,"duration":0.11875000000000568},{"name":"A4","midi":69,"time":107.3520833333327,"velocity":0.7322834645669292,"duration":0.12291666666666856},{"name":"C3","midi":48,"time":107.35416666666603,"velocity":0.7637795275590551,"duration":0.12083333333333712},{"name":"G#4","midi":68,"time":107.4770833333327,"velocity":0.7322834645669292,"duration":0.12291666666666856},{"name":"B2","midi":47,"time":107.4770833333327,"velocity":0.7637795275590551,"duration":0.12291666666666856},{"name":"A4","midi":69,"time":107.59999999999937,"velocity":0.7322834645669292,"duration":0.12291666666666856},{"name":"A2","midi":45,"time":107.6020833333327,"velocity":0.7637795275590551,"duration":0.12083333333333712},{"name":"C5","midi":72,"time":107.72291666666604,"velocity":0.7322834645669292,"duration":0.96875},{"name":"G2","midi":43,"time":107.72499999999937,"velocity":0.7637795275590551,"duration":0.11875000000000568},{"name":"A2","midi":45,"time":107.84374999999937,"velocity":0.7637795275590551,"duration":0.125},{"name":"B2","midi":47,"time":107.96874999999937,"velocity":0.7637795275590551,"duration":0.12083333333333712},{"name":"C3","midi":48,"time":108.08958333333271,"velocity":0.7637795275590551,"duration":0.12291666666666856},{"name":"B2","midi":47,"time":108.21249999999938,"velocity":0.7637795275590551,"duration":0.11666666666666003},{"name":"C3","midi":48,"time":108.33124999999937,"velocity":0.7637795275590551,"duration":0.11666666666666003},{"name":"B2","midi":47,"time":108.44999999999936,"velocity":0.7637795275590551,"duration":0.11875000000000568},{"name":"A2","midi":45,"time":108.56874999999937,"velocity":0.7637795275590551,"duration":0.12083333333333712},{"name":"F#2","midi":42,"time":108.69166666666604,"velocity":0.7637795275590551,"duration":0.12291666666666856},{"name":"A4","midi":69,"time":108.8145833333327,"velocity":0.7322834645669292,"duration":0.125},{"name":"A2","midi":45,"time":108.81666666666604,"velocity":0.7637795275590551,"duration":0.12083333333333712},{"name":"G#4","midi":68,"time":108.9395833333327,"velocity":0.7322834645669292,"duration":0.12291666666666856},{"name":"B2","midi":47,"time":108.94166666666604,"velocity":0.7637795275590551,"duration":0.12083333333333712},{"name":"A4","midi":69,"time":109.0645833333327,"velocity":0.7322834645669292,"duration":0.12291666666666856},{"name":"C3","midi":48,"time":109.0645833333327,"velocity":0.7637795275590551,"duration":0.12083333333333712},{"name":"D#4","midi":63,"time":109.18749999999937,"velocity":0.7637795275590551,"duration":0.12291666666666856},{"name":"B2","midi":47,"time":109.1895833333327,"velocity":0.7637795275590551,"duration":0.12083333333333712},{"name":"A4","midi":69,"time":109.31249999999937,"velocity":0.7322834645669292,"duration":0.12291666666666856},{"name":"C3","midi":48,"time":109.31249999999937,"velocity":0.7637795275590551,"duration":0.12083333333333712},{"name":"G#4","midi":68,"time":109.43541666666604,"velocity":0.7322834645669292,"duration":0.12291666666666856},{"name":"B2","midi":47,"time":109.43749999999937,"velocity":0.7637795275590551,"duration":0.12083333333333712},{"name":"A4","midi":69,"time":109.56041666666604,"velocity":0.7322834645669292,"duration":0.12083333333333712},{"name":"A2","midi":45,"time":109.56041666666604,"velocity":0.7637795275590551,"duration":0.11875000000000568},{"name":"C5","midi":72,"time":109.68124999999938,"velocity":0.7322834645669292,"duration":0.12291666666666856},{"name":"E2","midi":40,"time":109.68333333333271,"velocity":0.7637795275590551,"duration":0.12083333333333712},{"name":"A4","midi":69,"time":109.80624999999938,"velocity":0.7322834645669292,"duration":0.12291666666666856},{"name":"A2","midi":45,"time":109.80624999999938,"velocity":0.7637795275590551,"duration":0.12083333333333712},{"name":"G#4","midi":68,"time":109.92916666666605,"velocity":0.7322834645669292,"duration":0.12083333333332291},{"name":"B2","midi":47,"time":109.93124999999938,"velocity":0.7637795275590551,"duration":0.11666666666666003},{"name":"A4","midi":69,"time":110.04999999999937,"velocity":0.7322834645669292,"duration":0.11875000000000568},{"name":"C3","midi":48,"time":110.04999999999937,"velocity":0.7637795275590551,"duration":0.11875000000000568},{"name":"E4","midi":64,"time":110.17083333333271,"velocity":0.7637795275590551,"duration":0.12291666666666856},{"name":"B2","midi":47,"time":110.17083333333271,"velocity":0.7637795275590551,"duration":0.12083333333333712},{"name":"A4","midi":69,"time":110.29374999999938,"velocity":0.7322834645669292,"duration":0.12291666666666856},{"name":"C3","midi":48,"time":110.29583333333271,"velocity":0.7637795275590551,"duration":0.12083333333333712},{"name":"G#4","midi":68,"time":110.41874999999938,"velocity":0.7322834645669292,"duration":0.12291666666666856},{"name":"B2","midi":47,"time":110.41874999999938,"velocity":0.7637795275590551,"duration":0.12083333333333712},{"name":"A4","midi":69,"time":110.54166666666605,"velocity":0.7322834645669292,"duration":0.12291666666666856},{"name":"A2","midi":45,"time":110.54374999999938,"velocity":0.7637795275590551,"duration":0.12083333333333712},{"name":"C5","midi":72,"time":110.66666666666605,"velocity":0.7322834645669292,"duration":0.12291666666666856},{"name":"D#2","midi":39,"time":110.66666666666605,"velocity":0.7637795275590551,"duration":0.12083333333333712},{"name":"F#4","midi":66,"time":110.78958333333271,"velocity":0.7637795275590551,"duration":0.12083333333333712},{"name":"A2","midi":45,"time":110.79166666666605,"velocity":0.7637795275590551,"duration":0.11875000000000568},{"name":"G4","midi":67,"time":110.91249999999938,"velocity":0.7637795275590551,"duration":0.12083333333333712},{"name":"B2","midi":47,"time":110.91249999999938,"velocity":0.7637795275590551,"duration":0.11875000000000568},{"name":"A4","midi":69,"time":111.03333333333272,"velocity":0.7322834645669292,"duration":0.11874999999999147},{"name":"C3","midi":48,"time":111.03541666666605,"velocity":0.7637795275590551,"duration":0.11666666666666003},{"name":"G4","midi":67,"time":111.15416666666604,"velocity":0.7637795275590551,"duration":0.12083333333333712},{"name":"B2","midi":47,"time":111.15416666666604,"velocity":0.7637795275590551,"duration":0.12083333333333712},{"name":"F#4","midi":66,"time":111.27499999999938,"velocity":0.7637795275590551,"duration":0.12291666666666856},{"name":"C3","midi":48,"time":111.27708333333271,"velocity":0.7637795275590551,"duration":0.11875000000000568},{"name":"E4","midi":64,"time":111.39791666666605,"velocity":0.7637795275590551,"duration":0.12291666666666856},{"name":"B2","midi":47,"time":111.39999999999938,"velocity":0.7637795275590551,"duration":0.12083333333333712},{"name":"D#4","midi":63,"time":111.52291666666605,"velocity":0.7637795275590551,"duration":0.12083333333333712},{"name":"A2","midi":45,"time":111.52291666666605,"velocity":0.7637795275590551,"duration":0.11875000000000568},{"name":"B4","midi":71,"time":111.64374999999939,"velocity":0.7322834645669292,"duration":0.125},{"name":"E2","midi":40,"time":111.64583333333272,"velocity":0.7637795275590551,"duration":0.12083333333333712},{"name":"E4","midi":64,"time":111.76874999999939,"velocity":0.7637795275590551,"duration":0.12291666666666856},{"name":"G2","midi":43,"time":111.76874999999939,"velocity":0.7637795275590551,"duration":0.12083333333333712},{"name":"F#4","midi":66,"time":111.89166666666605,"velocity":0.7637795275590551,"duration":0.12291666666666856},{"name":"A2","midi":45,"time":111.89374999999939,"velocity":0.7637795275590551,"duration":0.12083333333333712},{"name":"G4","midi":67,"time":112.01666666666605,"velocity":0.7637795275590551,"duration":0.12291666666666856},{"name":"B2","midi":47,"time":112.01666666666605,"velocity":0.7637795275590551,"duration":0.12083333333333712},{"name":"F#4","midi":66,"time":112.13958333333272,"velocity":0.7637795275590551,"duration":0.12291666666666856},{"name":"A2","midi":45,"time":112.14166666666605,"velocity":0.7637795275590551,"duration":0.11875000000000568},{"name":"E4","midi":64,"time":112.26249999999939,"velocity":0.7637795275590551,"duration":0.11874999999999147},{"name":"B2","midi":47,"time":112.26249999999939,"velocity":0.7637795275590551,"duration":0.11666666666666003},{"name":"D#4","midi":63,"time":112.38124999999938,"velocity":0.7637795275590551,"duration":0.12291666666666856},{"name":"A2","midi":45,"time":112.38333333333271,"velocity":0.7637795275590551,"duration":0.12083333333333712},{"name":"E4","midi":64,"time":112.50624999999938,"velocity":0.7637795275590551,"duration":0.12291666666666856},{"name":"G2","midi":43,"time":112.50624999999938,"velocity":0.7637795275590551,"duration":0.12291666666666856},{"name":"A4","midi":69,"time":112.62916666666605,"velocity":0.6850393700787402,"duration":0.12083333333333712},{"name":"C2","midi":36,"time":112.63124999999938,"velocity":0.7637795275590551,"duration":0.2395833333333428},{"name":"G5","midi":79,"time":112.74999999999939,"velocity":0.6377952755905512,"duration":0.12083333333333712},{"name":"A5","midi":81,"time":112.87291666666606,"velocity":0.6377952755905512,"duration":0.11666666666666003},{"name":"B5","midi":83,"time":112.99166666666605,"velocity":0.6377952755905512,"duration":0.12083333333333712},{"name":"A5","midi":81,"time":113.11458333333272,"velocity":0.6377952755905512,"duration":0.11875000000000568},{"name":"B5","midi":83,"time":113.23541666666605,"velocity":0.6377952755905512,"duration":0.11875000000000568},{"name":"A5","midi":81,"time":113.35624999999939,"velocity":0.6377952755905512,"duration":0.12083333333333712},{"name":"G5","midi":79,"time":113.47708333333273,"velocity":0.6377952755905512,"duration":0.12291666666666856},{"name":"A4","midi":69,"time":113.5999999999994,"velocity":0.6850393700787402,"duration":0.12083333333333712},{"name":"F#5","midi":78,"time":113.72291666666607,"velocity":0.6377952755905512,"duration":0.12291666666666856},{"name":"A3","midi":57,"time":113.72291666666607,"velocity":0.7637795275590551,"duration":0.12291666666666856},{"name":"G5","midi":79,"time":113.84791666666607,"velocity":0.6377952755905512,"duration":0.12083333333333712},{"name":"B3","midi":59,"time":113.84791666666607,"velocity":0.7637795275590551,"duration":0.11875000000000568},{"name":"A5","midi":81,"time":113.9687499999994,"velocity":0.6377952755905512,"duration":0.12083333333333712},{"name":"C4","midi":60,"time":113.97083333333273,"velocity":0.7637795275590551,"duration":0.11875000000000568},{"name":"G5","midi":79,"time":114.09166666666607,"velocity":0.6377952755905512,"duration":0.12083333333333712},{"name":"B3","midi":59,"time":114.09166666666607,"velocity":0.7637795275590551,"duration":0.11875000000000568},{"name":"A5","midi":81,"time":114.21249999999941,"velocity":0.6377952755905512,"duration":0.12291666666666856},{"name":"C4","midi":60,"time":114.21458333333274,"velocity":0.7637795275590551,"duration":0.12083333333333712},{"name":"G5","midi":79,"time":114.33749999999941,"velocity":0.6377952755905512,"duration":0.12291666666666856},{"name":"B3","midi":59,"time":114.33749999999941,"velocity":0.7637795275590551,"duration":0.12083333333333712},{"name":"F#5","midi":78,"time":114.46249999999941,"velocity":0.6377952755905512,"duration":0.12083333333333712},{"name":"A3","midi":57,"time":114.46249999999941,"velocity":0.7637795275590551,"duration":0.12083333333333712},{"name":"A#4","midi":70,"time":114.58541666666608,"velocity":0.7322834645669292,"duration":0.11875000000000568},{"name":"C#3","midi":49,"time":114.58541666666608,"velocity":0.7637795275590551,"duration":0.2395833333333286},{"name":"E5","midi":76,"time":114.70624999999941,"velocity":0.6850393700787402,"duration":0.11666666666666003},{"name":"F#5","midi":78,"time":114.8249999999994,"velocity":0.6850393700787402,"duration":0.11875000000000568},{"name":"G5","midi":79,"time":114.94374999999941,"velocity":0.6850393700787402,"duration":0.11875000000000568},{"name":"F#5","midi":78,"time":115.06458333333275,"velocity":0.6850393700787402,"duration":0.12291666666666856},{"name":"G5","midi":79,"time":115.18749999999942,"velocity":0.6850393700787402,"duration":0.12291666666666856},{"name":"F#5","midi":78,"time":115.31249999999942,"velocity":0.6850393700787402,"duration":0.12083333333333712},{"name":"E5","midi":76,"time":115.43333333333275,"velocity":0.6850393700787402,"duration":0.11875000000000568},{"name":"D#5","midi":75,"time":115.55416666666609,"velocity":0.6850393700787402,"duration":0.9708333333333314},{"name":"B2","midi":47,"time":115.55416666666609,"velocity":0.7637795275590551,"duration":0.12083333333333712},{"name":"A4","midi":69,"time":115.67499999999943,"velocity":0.7322834645669292,"duration":0.12083333333333712},{"name":"F#3","midi":54,"time":115.67708333333276,"velocity":0.7637795275590551,"duration":0.11875000000000568},{"name":"B4","midi":71,"time":115.7979166666661,"velocity":0.7322834645669292,"duration":0.11666666666666003},{"name":"G3","midi":55,"time":115.7979166666661,"velocity":0.7637795275590551,"duration":0.1145833333333286},{"name":"C5","midi":72,"time":115.91458333333276,"velocity":0.7322834645669292,"duration":0.11874999999999147},{"name":"A3","midi":57,"time":115.91666666666609,"velocity":0.7637795275590551,"duration":0.11666666666666003},{"name":"B4","midi":71,"time":116.03541666666608,"velocity":0.7322834645669292,"duration":0.12083333333333712},{"name":"G3","midi":55,"time":116.03541666666608,"velocity":0.7637795275590551,"duration":0.11875000000000568},{"name":"C5","midi":72,"time":116.15624999999942,"velocity":0.7322834645669292,"duration":0.12291666666666856},{"name":"A3","midi":57,"time":116.15833333333275,"velocity":0.7637795275590551,"duration":0.12083333333333712},{"name":"B4","midi":71,"time":116.28124999999942,"velocity":0.7322834645669292,"duration":0.12083333333333712},{"name":"G3","midi":55,"time":116.28124999999942,"velocity":0.7637795275590551,"duration":0.11875000000000568},{"name":"A4","midi":69,"time":116.40208333333275,"velocity":0.7322834645669292,"duration":0.12291666666666856},{"name":"F#3","midi":54,"time":116.40416666666609,"velocity":0.7637795275590551,"duration":0.11875000000000568},{"name":"G4","midi":67,"time":116.52499999999942,"velocity":0.7637795275590551,"duration":0.9583333333332718},{"name":"B2","midi":47,"time":116.52708333333275,"velocity":0.7637795275590551,"duration":0.11666666666666003},{"name":"B4","midi":71,"time":116.64374999999941,"velocity":0.7322834645669292,"duration":0.12083333333332291},{"name":"G3","midi":55,"time":116.64583333333275,"velocity":0.7637795275590551,"duration":0.11666666666666003},{"name":"C5","midi":72,"time":116.76458333333274,"velocity":0.7322834645669292,"duration":0.11874999999999147},{"name":"A3","midi":57,"time":116.76666666666607,"velocity":0.7637795275590551,"duration":0.11666666666666003},{"name":"D5","midi":74,"time":116.88541666666606,"velocity":0.6850393700787402,"duration":0.11874999999999147},{"name":"B3","midi":59,"time":116.88541666666606,"velocity":0.7637795275590551,"duration":0.11666666666666003},{"name":"C5","midi":72,"time":117.00416666666605,"velocity":0.7322834645669292,"duration":0.11666666666666003},{"name":"A3","midi":57,"time":117.00624999999938,"velocity":0.7637795275590551,"duration":0.11249999999999716},{"name":"D5","midi":74,"time":117.12083333333271,"velocity":0.6850393700787402,"duration":0.11874999999999147},{"name":"B3","midi":59,"time":117.12291666666604,"velocity":0.7637795275590551,"duration":0.11666666666666003},{"name":"C5","midi":72,"time":117.24166666666603,"velocity":0.7322834645669292,"duration":0.12083333333333712},{"name":"A3","midi":57,"time":117.24166666666603,"velocity":0.7637795275590551,"duration":0.11875000000000568},{"name":"B4","midi":71,"time":117.36249999999937,"velocity":0.7322834645669292,"duration":0.12083333333332291},{"name":"G3","midi":55,"time":117.3645833333327,"velocity":0.7637795275590551,"duration":0.11666666666666003},{"name":"A4","midi":69,"time":117.48541666666603,"velocity":0.7322834645669292,"duration":0.4708333333333172},{"name":"B2","midi":47,"time":117.48541666666603,"velocity":0.7637795275590551,"duration":0.1145833333333286},{"name":"F#4","midi":66,"time":117.60208333333269,"velocity":0.7637795275590551,"duration":0.12083333333333712},{"name":"A3","midi":57,"time":117.60208333333269,"velocity":0.7637795275590551,"duration":0.11875000000000568},{"name":"G4","midi":67,"time":117.72291666666602,"velocity":0.7637795275590551,"duration":0.11666666666666003},{"name":"B3","midi":59,"time":117.72499999999935,"velocity":0.7637795275590551,"duration":0.1145833333333286},{"name":"A4","midi":69,"time":117.84166666666601,"velocity":0.7322834645669292,"duration":0.35625000000000284},{"name":"C4","midi":60,"time":117.84166666666601,"velocity":0.7637795275590551,"duration":0.1145833333333286},{"name":"B3","midi":59,"time":117.95833333333267,"velocity":0.7637795275590551,"duration":0.11875000000000568},{"name":"G4","midi":67,"time":117.95833333333267,"velocity":0.7637795275590551,"duration":0.11875000000000568},{"name":"A4","midi":69,"time":118.07916666666601,"velocity":0.7322834645669292,"duration":0.3604166666666657},{"name":"C4","midi":60,"time":118.07916666666601,"velocity":0.7637795275590551,"duration":0.11875000000000568},{"name":"G4","midi":67,"time":118.19999999999935,"velocity":0.7637795275590551,"duration":0.11875000000000568},{"name":"B3","midi":59,"time":118.19999999999935,"velocity":0.7637795275590551,"duration":0.11875000000000568},{"name":"F#4","midi":66,"time":118.32083333333269,"velocity":0.7637795275590551,"duration":0.11874999999999147},{"name":"A3","midi":57,"time":118.32083333333269,"velocity":0.7637795275590551,"duration":0.11666666666666003},{"name":"E4","midi":64,"time":118.44166666666601,"velocity":0.7637795275590551,"duration":0.9479166666666146},{"name":"B2","midi":47,"time":118.44166666666601,"velocity":0.7637795275590551,"duration":0.11666666666666003},{"name":"G4","midi":67,"time":118.55833333333267,"velocity":0.7637795275590551,"duration":0.11874999999999147},{"name":"B3","midi":59,"time":118.560416666666,"velocity":0.7637795275590551,"duration":0.1145833333333286},{"name":"A4","midi":69,"time":118.67708333333266,"velocity":0.7322834645669292,"duration":0.11666666666666003},{"name":"C4","midi":60,"time":118.67708333333266,"velocity":0.7637795275590551,"duration":0.1145833333333286},{"name":"B4","midi":71,"time":118.79374999999932,"velocity":0.7322834645669292,"duration":0.1145833333333286},{"name":"D4","midi":62,"time":118.79583333333265,"velocity":0.7637795275590551,"duration":0.11249999999999716},{"name":"A4","midi":69,"time":118.91041666666598,"velocity":0.7322834645669292,"duration":0.11874999999999147},{"name":"C4","midi":60,"time":118.91041666666598,"velocity":0.7637795275590551,"duration":0.11666666666666003},{"name":"B4","midi":71,"time":119.02916666666597,"velocity":0.7322834645669292,"duration":0.12083333333332291},{"name":"D4","midi":62,"time":119.0312499999993,"velocity":0.7637795275590551,"duration":0.11666666666666003},{"name":"A4","midi":69,"time":119.1499999999993,"velocity":0.7322834645669292,"duration":0.11875000000000568},{"name":"C4","midi":60,"time":119.1499999999993,"velocity":0.7637795275590551,"duration":0.11875000000000568},{"name":"G4","midi":67,"time":119.27083333333263,"velocity":0.7637795275590551,"duration":0.11874999999999147},{"name":"B3","midi":59,"time":119.27083333333263,"velocity":0.7637795275590551,"duration":0.11666666666666003},{"name":"D#4","midi":63,"time":119.39166666666596,"velocity":0.7637795275590551,"duration":0.941666666666606},{"name":"B2","midi":47,"time":119.39166666666596,"velocity":0.7637795275590551,"duration":0.11666666666666003},{"name":"F#4","midi":66,"time":119.50833333333262,"velocity":0.7637795275590551,"duration":0.11666666666666003},{"name":"A3","midi":57,"time":119.51041666666595,"velocity":0.7637795275590551,"duration":0.1145833333333286},{"name":"G4","midi":67,"time":119.62499999999928,"velocity":0.7637795275590551,"duration":0.11666666666666003},{"name":"B3","midi":59,"time":119.6270833333326,"velocity":0.7637795275590551,"duration":0.11249999999999716},{"name":"A4","midi":69,"time":119.74166666666594,"velocity":0.7322834645669292,"duration":0.11666666666666003},{"name":"C4","midi":60,"time":119.74374999999927,"velocity":0.7637795275590551,"duration":0.1145833333333286},{"name":"G4","midi":67,"time":119.86041666666593,"velocity":0.7637795275590551,"duration":0.11874999999999147},{"name":"B3","midi":59,"time":119.86041666666593,"velocity":0.7637795275590551,"duration":0.11666666666666003},{"name":"A4","midi":69,"time":119.97916666666592,"velocity":0.7322834645669292,"duration":0.11666666666666003},{"name":"C4","midi":60,"time":119.98124999999925,"velocity":0.7637795275590551,"duration":0.11249999999999716},{"name":"G4","midi":67,"time":120.09583333333258,"velocity":0.7637795275590551,"duration":0.11874999999999147},{"name":"B3","midi":59,"time":120.09791666666591,"velocity":0.7637795275590551,"duration":0.11666666666666003},{"name":"F#4","midi":66,"time":120.2166666666659,"velocity":0.7637795275590551,"duration":0.11666666666666003},{"name":"A3","midi":57,"time":120.2166666666659,"velocity":0.7637795275590551,"duration":0.1145833333333286},{"name":"C#4","midi":61,"time":120.33541666666589,"velocity":0.7637795275590551,"duration":0.9437499999999517},{"name":"B2","midi":47,"time":120.33541666666589,"velocity":0.7637795275590551,"duration":0.11666666666666003},{"name":"E4","midi":64,"time":120.45208333333255,"velocity":0.7637795275590551,"duration":0.12083333333333712},{"name":"G3","midi":55,"time":120.45416666666588,"velocity":0.7637795275590551,"duration":0.11875000000000568},{"name":"F#4","midi":66,"time":120.57499999999922,"velocity":0.7637795275590551,"duration":0.11874999999999147},{"name":"A3","midi":57,"time":120.57499999999922,"velocity":0.7637795275590551,"duration":0.11666666666666003},{"name":"G4","midi":67,"time":120.69374999999921,"velocity":0.7637795275590551,"duration":0.11666666666666003},{"name":"B3","midi":59,"time":120.69583333333254,"velocity":0.7637795275590551,"duration":0.1145833333333286},{"name":"F#4","midi":66,"time":120.8124999999992,"velocity":0.7637795275590551,"duration":0.11249999999999716},{"name":"A3","midi":57,"time":120.8124999999992,"velocity":0.7637795275590551,"duration":0.11249999999999716},{"name":"G4","midi":67,"time":120.9249999999992,"velocity":0.7637795275590551,"duration":0.12083333333332291},{"name":"B3","midi":59,"time":120.92708333333253,"velocity":0.7637795275590551,"duration":0.11666666666666003},{"name":"F#4","midi":66,"time":121.04583333333252,"velocity":0.7637795275590551,"duration":0.11666666666666003},{"name":"A3","midi":57,"time":121.04791666666586,"velocity":0.7637795275590551,"duration":0.1145833333333286},{"name":"E4","midi":64,"time":121.16458333333252,"velocity":0.7637795275590551,"duration":0.1145833333333286},{"name":"G3","midi":55,"time":121.16458333333252,"velocity":0.7637795275590551,"duration":0.11249999999999716},{"name":"D#4","midi":63,"time":121.28124999999918,"velocity":0.7637795275590551,"duration":0.9458333333332689},{"name":"B2","midi":47,"time":121.28124999999918,"velocity":0.7637795275590551,"duration":0.1145833333333286},{"name":"F#3","midi":54,"time":121.39791666666584,"velocity":0.7637795275590551,"duration":0.1145833333333286},{"name":"A3","midi":57,"time":121.39791666666584,"velocity":0.7637795275590551,"duration":0.1145833333333286},{"name":"B3","midi":59,"time":121.5145833333325,"velocity":0.7637795275590551,"duration":0.11666666666666003},{"name":"G3","midi":55,"time":121.5145833333325,"velocity":0.7637795275590551,"duration":0.1145833333333286},{"name":"C4","midi":60,"time":121.63124999999916,"velocity":0.7637795275590551,"duration":0.11874999999999147},{"name":"A3","midi":57,"time":121.63333333333249,"velocity":0.7637795275590551,"duration":0.11666666666666003},{"name":"B3","midi":59,"time":121.75208333333248,"velocity":0.7637795275590551,"duration":0.11666666666666003},{"name":"G3","midi":55,"time":121.75208333333248,"velocity":0.7637795275590551,"duration":0.11666666666666003},{"name":"C4","midi":60,"time":121.87083333333247,"velocity":0.7637795275590551,"duration":0.11666666666666003},{"name":"A3","midi":57,"time":121.87083333333247,"velocity":0.7637795275590551,"duration":0.11666666666666003},{"name":"B3","midi":59,"time":121.98749999999913,"velocity":0.7637795275590551,"duration":0.11874999999999147},{"name":"G3","midi":55,"time":121.98958333333246,"velocity":0.7637795275590551,"duration":0.11666666666666003},{"name":"A3","midi":57,"time":122.10833333333245,"velocity":0.7637795275590551,"duration":0.11874999999999147},{"name":"F#3","midi":54,"time":122.10833333333245,"velocity":0.7637795275590551,"duration":0.11666666666666003},{"name":"B3","midi":59,"time":122.22916666666578,"velocity":0.7637795275590551,"duration":0.12708333333333144},{"name":"G3","midi":55,"time":122.22916666666578,"velocity":0.7637795275590551,"duration":0.12708333333333144},{"name":"C#4","midi":61,"time":122.35833333333244,"velocity":0.7637795275590551,"duration":0.12916666666666288},{"name":"B3","midi":59,"time":122.35833333333244,"velocity":0.7637795275590551,"duration":0.12708333333333144},{"name":"D#4","midi":63,"time":122.4874999999991,"velocity":0.7637795275590551,"duration":0.12916666666666288},{"name":"A3","midi":57,"time":122.48958333333243,"velocity":0.7637795275590551,"duration":0.12708333333333144},{"name":"E4","midi":64,"time":122.6187499999991,"velocity":0.7637795275590551,"duration":0.13333333333332575},{"name":"G3","midi":55,"time":122.6187499999991,"velocity":0.7637795275590551,"duration":0.13124999999999432},{"name":"F#4","midi":66,"time":122.75208333333242,"velocity":0.7637795275590551,"duration":0.1354166666666714},{"name":"F#3","midi":54,"time":122.75208333333242,"velocity":0.7637795275590551,"duration":0.13333333333333997},{"name":"G4","midi":67,"time":122.8874999999991,"velocity":0.7637795275590551,"duration":0.13333333333332575},{"name":"E3","midi":52,"time":122.88958333333242,"velocity":0.7637795275590551,"duration":0.13124999999999432},{"name":"A4","midi":69,"time":123.02291666666575,"velocity":0.7322834645669292,"duration":0.12708333333333144},{"name":"D#3","midi":51,"time":123.02499999999908,"velocity":0.7637795275590551,"duration":0.125},{"name":"B4","midi":71,"time":123.15208333333241,"velocity":0.7322834645669292,"duration":0.125},{"name":"F#3","midi":54,"time":123.15416666666574,"velocity":0.7637795275590551,"duration":0.12291666666666856},{"name":"C5","midi":72,"time":123.27916666666574,"velocity":0.7322834645669292,"duration":0.9604166666666458},{"name":"B2","midi":47,"time":123.27916666666574,"velocity":0.7637795275590551,"duration":0.9604166666666458},{"name":"D#3","midi":51,"time":123.39999999999908,"velocity":0.7637795275590551,"duration":0.11875000000000568},{"name":"F#4","midi":66,"time":123.39999999999908,"velocity":0.7637795275590551,"duration":0.12083333333333712},{"name":"G4","midi":67,"time":123.52083333333242,"velocity":0.7637795275590551,"duration":0.11875000000000568},{"name":"E3","midi":52,"time":123.52083333333242,"velocity":0.7637795275590551,"duration":0.11875000000000568},{"name":"A4","midi":69,"time":123.64166666666576,"velocity":0.7322834645669292,"duration":0.11874999999999147},{"name":"F#3","midi":54,"time":123.64166666666576,"velocity":0.7637795275590551,"duration":0.11666666666666003},{"name":"G4","midi":67,"time":123.76041666666575,"velocity":0.7637795275590551,"duration":0.11666666666666003},{"name":"E3","midi":52,"time":123.76249999999908,"velocity":0.7637795275590551,"duration":0.1145833333333286},{"name":"A4","midi":69,"time":123.87916666666574,"velocity":0.7322834645669292,"duration":0.11875000000000568},{"name":"F#3","midi":54,"time":123.87916666666574,"velocity":0.7637795275590551,"duration":0.11875000000000568},{"name":"G4","midi":67,"time":123.99999999999908,"velocity":0.7637795275590551,"duration":0.11874999999999147},{"name":"E3","midi":52,"time":123.99999999999908,"velocity":0.7637795275590551,"duration":0.11666666666666003},{"name":"F#4","midi":66,"time":124.11874999999907,"velocity":0.7637795275590551,"duration":0.11874999999999147},{"name":"D#3","midi":51,"time":124.1208333333324,"velocity":0.7637795275590551,"duration":0.11666666666666003},{"name":"C#5","midi":73,"time":124.24166666666572,"velocity":0.7322834645669292,"duration":0.9458333333332831},{"name":"B2","midi":47,"time":124.24166666666572,"velocity":0.7637795275590551,"duration":0.9458333333332831},{"name":"G4","midi":67,"time":124.35624999999905,"velocity":0.7637795275590551,"duration":0.12083333333333712},{"name":"E3","midi":52,"time":124.35833333333238,"velocity":0.7637795275590551,"duration":0.11875000000000568},{"name":"A4","midi":69,"time":124.47916666666572,"velocity":0.7322834645669292,"duration":0.11666666666666003},{"name":"F#3","midi":54,"time":124.47916666666572,"velocity":0.7637795275590551,"duration":0.11666666666666003},{"name":"B4","midi":71,"time":124.59791666666571,"velocity":0.7322834645669292,"duration":0.11666666666666003},{"name":"G3","midi":55,"time":124.59791666666571,"velocity":0.7637795275590551,"duration":0.1145833333333286},{"name":"A4","midi":69,"time":124.71458333333237,"velocity":0.7322834645669292,"duration":0.11666666666666003},{"name":"F#3","midi":54,"time":124.7166666666657,"velocity":0.7637795275590551,"duration":0.1145833333333286},{"name":"B4","midi":71,"time":124.83333333333236,"velocity":0.7322834645669292,"duration":0.11666666666666003},{"name":"G3","midi":55,"time":124.83333333333236,"velocity":0.7637795275590551,"duration":0.11666666666666003},{"name":"A4","midi":69,"time":124.94999999999902,"velocity":0.7322834645669292,"duration":0.11874999999999147},{"name":"F#3","midi":54,"time":124.95208333333235,"velocity":0.7637795275590551,"duration":0.1145833333333286},{"name":"G4","midi":67,"time":125.06874999999901,"velocity":0.7637795275590551,"duration":0.11666666666666003},{"name":"E3","midi":52,"time":125.07083333333235,"velocity":0.7637795275590551,"duration":0.1145833333333286},{"name":"D#5","midi":75,"time":125.18958333333234,"velocity":0.6850393700787402,"duration":0.9395833333332746},{"name":"B2","midi":47,"time":125.18958333333234,"velocity":0.7637795275590551,"duration":0.9395833333332746},{"name":"A4","midi":69,"time":125.30208333333233,"velocity":0.7322834645669292,"duration":0.12083333333332291},{"name":"F#3","midi":54,"time":125.30416666666567,"velocity":0.7637795275590551,"duration":0.11666666666666003},{"name":"B4","midi":71,"time":125.42291666666566,"velocity":0.7322834645669292,"duration":0.1145833333333286},{"name":"G3","midi":55,"time":125.42499999999899,"velocity":0.7637795275590551,"duration":0.11249999999999716},{"name":"C5","midi":72,"time":125.53958333333232,"velocity":0.7322834645669292,"duration":0.11666666666666003},{"name":"A3","midi":57,"time":125.53958333333232,"velocity":0.7637795275590551,"duration":0.1145833333333286},{"name":"B4","midi":71,"time":125.65624999999898,"velocity":0.7322834645669292,"duration":0.11666666666666003},{"name":"G3","midi":55,"time":125.65833333333231,"velocity":0.7637795275590551,"duration":0.11249999999999716},{"name":"C5","midi":72,"time":125.77291666666564,"velocity":0.7322834645669292,"duration":0.11666666666666003},{"name":"A3","midi":57,"time":125.77499999999897,"velocity":0.7637795275590551,"duration":0.1145833333333286},{"name":"B4","midi":71,"time":125.89166666666563,"velocity":0.7322834645669292,"duration":0.11874999999999147},{"name":"G3","midi":55,"time":125.89166666666563,"velocity":0.7637795275590551,"duration":0.11666666666666003},{"name":"A4","midi":69,"time":126.01041666666562,"velocity":0.7322834645669292,"duration":0.11666666666666003},{"name":"F#3","midi":54,"time":126.01249999999895,"velocity":0.7637795275590551,"duration":0.1145833333333286},{"name":"E5","midi":76,"time":126.13124999999894,"velocity":0.6850393700787402,"duration":0.11666666666666003},{"name":"E3","midi":52,"time":126.13124999999894,"velocity":0.7637795275590551,"duration":0.2395833333333286},{"name":"G4","midi":67,"time":126.13333333333227,"velocity":0.7637795275590551,"duration":0.23541666666666572},{"name":"C3","midi":48,"time":126.13333333333227,"velocity":0.7637795275590551,"duration":0.23541666666666572},{"name":"D5","midi":74,"time":126.2479166666656,"velocity":0.6850393700787402,"duration":0.11875000000000568},{"name":"C5","midi":72,"time":126.37083333333227,"velocity":0.7322834645669292,"duration":0.1145833333333286},{"name":"B4","midi":71,"time":126.4854166666656,"velocity":0.7322834645669292,"duration":0.11666666666666003},{"name":"A4","midi":69,"time":126.60208333333226,"velocity":0.7322834645669292,"duration":0.11666666666666003},{"name":"G4","midi":67,"time":126.72083333333225,"velocity":0.7637795275590551,"duration":0.11666666666666003},{"name":"F#4","midi":66,"time":126.83749999999891,"velocity":0.7637795275590551,"duration":0.11666666666666003},{"name":"E4","midi":64,"time":126.9562499999989,"velocity":0.7637795275590551,"duration":0.11666666666666003},{"name":"C5","midi":72,"time":127.0749999999989,"velocity":0.7322834645669292,"duration":0.13750000000000284},{"name":"A2","midi":45,"time":127.0749999999989,"velocity":0.7637795275590551,"duration":0.1354166666666714},{"name":"B4","midi":71,"time":127.2124999999989,"velocity":0.7322834645669292,"duration":0.13750000000000284},{"name":"B2","midi":47,"time":127.21458333333223,"velocity":0.7637795275590551,"duration":0.1354166666666714},{"name":"A4","midi":69,"time":127.3499999999989,"velocity":0.7322834645669292,"duration":0.14166666666666572},{"name":"C3","midi":48,"time":127.35208333333223,"velocity":0.7637795275590551,"duration":0.13958333333333428},{"name":"D3","midi":50,"time":127.4937499999989,"velocity":0.7637795275590551,"duration":0.14166666666666572},{"name":"G4","midi":67,"time":127.4937499999989,"velocity":0.7637795275590551,"duration":0.14374999999999716},{"name":"F#4","midi":66,"time":127.6374999999989,"velocity":0.7637795275590551,"duration":0.1458333333333286},{"name":"E3","midi":52,"time":127.6374999999989,"velocity":0.7637795275590551,"duration":0.14374999999999716},{"name":"E4","midi":64,"time":127.78333333333222,"velocity":0.7637795275590551,"duration":0.1458333333333286},{"name":"F#3","midi":54,"time":127.78333333333222,"velocity":0.7637795275590551,"duration":0.1458333333333286},{"name":"D#4","midi":63,"time":127.93124999999888,"velocity":0.7637795275590551,"duration":0.15416666666665435},{"name":"G3","midi":55,"time":127.93333333333221,"velocity":0.7637795275590551,"duration":0.14999999999999147},{"name":"A3","midi":57,"time":128.08541666666554,"velocity":0.7637795275590551,"duration":0.2604166666666572},{"name":"C#4","midi":61,"time":128.08749999999887,"velocity":0.7637795275590551,"duration":0.15000000000000568},{"name":"D#4","midi":63,"time":128.2395833333322,"velocity":0.7637795275590551,"duration":0.39999999999997726},{"name":"B2","midi":47,"time":128.2395833333322,"velocity":0.7637795275590551,"duration":1.7062499999999545},{"name":"B3","midi":59,"time":128.39999999999887,"velocity":0.7637795275590551,"duration":0.408333333333303},{"name":"F#4","midi":66,"time":128.56874999999886,"velocity":0.7637795275590551,"duration":0.3645833333333144},{"name":"A3","midi":57,"time":128.74583333333217,"velocity":0.7637795275590551,"duration":0.18541666666666856},{"name":"G3","midi":55,"time":128.93333333333217,"velocity":0.7637795275590551,"duration":0.4104166666666629},{"name":"E4","midi":64,"time":129.13124999999883,"velocity":0.7637795275590551,"duration":0.46875},{"name":"F#3","midi":54,"time":129.34583333333217,"velocity":0.7637795275590551,"duration":0.5979166666666629},{"name":"A3","midi":57,"time":129.34583333333217,"velocity":0.7637795275590551,"duration":0.5979166666666629},{"name":"D#4","midi":63,"time":129.59999999999883,"velocity":0.7637795275590551,"duration":0.34166666666666856},{"name":"E4","midi":64,"time":129.94583333333216,"velocity":0.6299212598425197,"duration":2.679166666666646},{"name":"B3","midi":59,"time":129.9479166666655,"velocity":0.6299212598425197,"duration":2.674999999999983},{"name":"G#3","midi":56,"time":129.9479166666655,"velocity":0.6299212598425197,"duration":2.674999999999983},{"name":"E3","midi":52,"time":129.94999999999882,"velocity":0.6299212598425197,"duration":2.6729166666666515},{"name":"E2","midi":40,"time":129.94999999999882,"velocity":0.7637795275590551,"duration":2.67083333333332},{"name":"E4","midi":64,"time":133.6979166666655,"velocity":0.7322834645669292,"duration":0.12083333333333712},{"name":"G4","midi":67,"time":133.82083333333216,"velocity":0.7322834645669292,"duration":0.12291666666666856},{"name":"B4","midi":71,"time":133.94374999999883,"velocity":0.7322834645669292,"duration":0.11875000000000568},{"name":"E5","midi":76,"time":134.06458333333217,"velocity":0.6850393700787402,"duration":0.12083333333333712},{"name":"D#5","midi":75,"time":134.1854166666655,"velocity":0.6850393700787402,"duration":0.11875000000000568},{"name":"E5","midi":76,"time":134.30624999999884,"velocity":0.6850393700787402,"duration":0.11875000000000568},{"name":"D5","midi":74,"time":134.42499999999885,"velocity":0.6850393700787402,"duration":0.11875000000000568},{"name":"E5","midi":76,"time":134.54374999999885,"velocity":0.6850393700787402,"duration":0.11875000000000568},{"name":"C#5","midi":73,"time":134.6645833333322,"velocity":0.7322834645669292,"duration":0.11666666666667425},{"name":"E5","midi":76,"time":134.78124999999886,"velocity":0.6850393700787402,"duration":0.11875000000000568},{"name":"C5","midi":72,"time":134.89999999999887,"velocity":0.7322834645669292,"duration":0.12083333333333712},{"name":"E5","midi":76,"time":135.02291666666554,"velocity":0.6850393700787402,"duration":0.12083333333333712},{"name":"B4","midi":71,"time":135.14374999999887,"velocity":0.7322834645669292,"duration":0.11666666666667425},{"name":"E5","midi":76,"time":135.26249999999888,"velocity":0.6850393700787402,"duration":0.11666666666667425},{"name":"D#5","midi":75,"time":135.37916666666555,"velocity":0.6850393700787402,"duration":0.11875000000000568},{"name":"E5","midi":76,"time":135.49791666666556,"velocity":0.6850393700787402,"duration":0.11666666666667425},{"name":"A#4","midi":70,"time":135.61666666666557,"velocity":0.7322834645669292,"duration":0.11666666666667425},{"name":"C#5","midi":73,"time":135.73333333333224,"velocity":0.7322834645669292,"duration":0.11666666666667425},{"name":"G4","midi":67,"time":135.85208333333225,"velocity":0.7322834645669292,"duration":0.11666666666667425},{"name":"F#4","midi":66,"time":135.97083333333225,"velocity":0.7322834645669292,"duration":0.11875000000000568},{"name":"G4","midi":67,"time":136.08958333333226,"velocity":0.7322834645669292,"duration":0.11666666666667425},{"name":"A4","midi":69,"time":136.20833333333226,"velocity":0.7322834645669292,"duration":0.11875000000000568},{"name":"F#4","midi":66,"time":136.3291666666656,"velocity":0.7322834645669292,"duration":0.11666666666667425},{"name":"E4","midi":64,"time":136.44583333333227,"velocity":0.7322834645669292,"duration":0.11666666666667425},{"name":"D4","midi":62,"time":136.56458333333228,"velocity":0.7637795275590551,"duration":0.23750000000001137},{"name":"B2","midi":47,"time":136.56458333333228,"velocity":0.7637795275590551,"duration":0.11666666666667425},{"name":"D3","midi":50,"time":136.68124999999895,"velocity":0.7637795275590551,"duration":0.11875000000000568},{"name":"B4","midi":71,"time":136.8020833333323,"velocity":0.7322834645669292,"duration":0.23750000000001137},{"name":"F#3","midi":54,"time":136.80416666666562,"velocity":0.7637795275590551,"duration":0.11458333333334281},{"name":"B3","midi":59,"time":136.9208333333323,"velocity":0.7637795275590551,"duration":0.11875000000000568},{"name":"A#3","midi":58,"time":137.04166666666563,"velocity":0.7637795275590551,"duration":0.11666666666667425},{"name":"F#5","midi":78,"time":137.1583333333323,"velocity":0.6535433070866141,"duration":0.11666666666667425},{"name":"B3","midi":59,"time":137.1583333333323,"velocity":0.7637795275590551,"duration":0.11666666666667425},{"name":"G5","midi":79,"time":137.2770833333323,"velocity":0.6535433070866141,"duration":0.11666666666667425},{"name":"A3","midi":57,"time":137.2770833333323,"velocity":0.7637795275590551,"duration":0.11666666666667425},{"name":"F#5","midi":78,"time":137.39583333333232,"velocity":0.6535433070866141,"duration":0.11458333333334281},{"name":"B3","midi":59,"time":137.39583333333232,"velocity":0.7637795275590551,"duration":0.11250000000001137},{"name":"E5","midi":76,"time":137.512499999999,"velocity":0.6850393700787402,"duration":0.11666666666667425},{"name":"G#3","midi":56,"time":137.512499999999,"velocity":0.7637795275590551,"duration":0.11458333333334281},{"name":"D5","midi":74,"time":137.62916666666567,"velocity":0.6850393700787402,"duration":0.12083333333333712},{"name":"B3","midi":59,"time":137.62916666666567,"velocity":0.7637795275590551,"duration":0.11875000000000568},{"name":"C#5","midi":73,"time":137.749999999999,"velocity":0.7322834645669292,"duration":0.11666666666667425},{"name":"G3","midi":55,"time":137.749999999999,"velocity":0.7637795275590551,"duration":0.11666666666667425},{"name":"E5","midi":76,"time":137.868749999999,"velocity":0.6850393700787402,"duration":0.11875000000000568},{"name":"B3","midi":59,"time":137.868749999999,"velocity":0.7637795275590551,"duration":0.11666666666667425},{"name":"D5","midi":74,"time":137.98749999999902,"velocity":0.6850393700787402,"duration":0.5895833333333655},{"name":"F#3","midi":54,"time":137.98749999999902,"velocity":0.7637795275590551,"duration":0.11666666666667425},{"name":"B3","midi":59,"time":138.1041666666657,"velocity":0.7637795275590551,"duration":0.11875000000000568},{"name":"A#3","midi":58,"time":138.2229166666657,"velocity":0.7637795275590551,"duration":0.11666666666667425},{"name":"B3","midi":59,"time":138.3416666666657,"velocity":0.7637795275590551,"duration":0.11666666666667425},{"name":"F3","midi":53,"time":138.45833333333238,"velocity":0.7637795275590551,"duration":0.11666666666667425},{"name":"C#5","midi":73,"time":138.57708333333238,"velocity":0.7322834645669292,"duration":0.11875000000000568},{"name":"G#3","midi":56,"time":138.5791666666657,"velocity":0.7637795275590551,"duration":0.11458333333334281},{"name":"B4","midi":71,"time":138.6958333333324,"velocity":0.7322834645669292,"duration":0.11666666666667425},{"name":"D3","midi":50,"time":138.69791666666572,"velocity":0.7637795275590551,"duration":0.11458333333334281},{"name":"A#4","midi":70,"time":138.8145833333324,"velocity":0.7322834645669292,"duration":0.11666666666667425},{"name":"C#3","midi":49,"time":138.8145833333324,"velocity":0.7637795275590551,"duration":0.11458333333334281},{"name":"B4","midi":71,"time":138.93124999999907,"velocity":0.7322834645669292,"duration":0.11875000000000568},{"name":"D3","midi":50,"time":138.9333333333324,"velocity":0.7637795275590551,"duration":0.11458333333334281},{"name":"C#5","midi":73,"time":139.04999999999907,"velocity":0.7322834645669292,"duration":0.11875000000000568},{"name":"F3","midi":53,"time":139.04999999999907,"velocity":0.7637795275590551,"duration":0.11875000000000568},{"name":"A#4","midi":70,"time":139.1708333333324,"velocity":0.7322834645669292,"duration":0.11666666666667425},{"name":"C#3","midi":49,"time":139.1708333333324,"velocity":0.7637795275590551,"duration":0.11458333333334281},{"name":"B4","midi":71,"time":139.28749999999908,"velocity":0.7322834645669292,"duration":0.11875000000000568},{"name":"B2","midi":47,"time":139.28958333333242,"velocity":0.7637795275590551,"duration":0.11666666666667425},{"name":"C#5","midi":73,"time":139.40833333333242,"velocity":0.7322834645669292,"duration":0.11666666666667425},{"name":"A#2","midi":46,"time":139.40833333333242,"velocity":0.7637795275590551,"duration":0.23750000000001137},{"name":"F#4","midi":66,"time":139.5249999999991,"velocity":0.7637795275590551,"duration":0.11875000000000568},{"name":"A#4","midi":70,"time":139.64583333333243,"velocity":0.7322834645669292,"duration":0.11875000000000568},{"name":"F#3","midi":54,"time":139.64791666666576,"velocity":0.7637795275590551,"duration":0.23541666666667993},{"name":"C#5","midi":73,"time":139.76458333333244,"velocity":0.7322834645669292,"duration":0.11666666666667425},{"name":"E5","midi":76,"time":139.88333333333244,"velocity":0.6850393700787402,"duration":0.11875000000000568},{"name":"A#4","midi":70,"time":140.00208333333245,"velocity":0.7322834645669292,"duration":0.11875000000000568},{"name":"F#4","midi":66,"time":140.00416666666578,"velocity":0.7637795275590551,"duration":0.11666666666667425},{"name":"C#5","midi":73,"time":140.1229166666658,"velocity":0.7322834645669292,"duration":0.11875000000000568},{"name":"G4","midi":67,"time":140.1229166666658,"velocity":0.7637795275590551,"duration":0.11666666666667425},{"name":"E5","midi":76,"time":140.2416666666658,"velocity":0.6850393700787402,"duration":0.11666666666667425},{"name":"F#4","midi":66,"time":140.24374999999912,"velocity":0.7637795275590551,"duration":0.11458333333334281},{"name":"G5","midi":79,"time":140.3604166666658,"velocity":0.6535433070866141,"duration":0.11875000000000568},{"name":"E4","midi":64,"time":140.3604166666658,"velocity":0.7637795275590551,"duration":0.11666666666667425},{"name":"F#5","midi":78,"time":140.4791666666658,"velocity":0.6535433070866141,"duration":0.12083333333333712},{"name":"D4","midi":62,"time":140.48124999999914,"velocity":0.7637795275590551,"duration":0.11666666666667425},{"name":"E5","midi":76,"time":140.59999999999914,"velocity":0.6850393700787402,"duration":0.11875000000000568},{"name":"C#4","midi":61,"time":140.59999999999914,"velocity":0.7637795275590551,"duration":0.11875000000000568},{"name":"G5","midi":79,"time":140.72083333333248,"velocity":0.6535433070866141,"duration":0.11875000000000568},{"name":"E4","midi":64,"time":140.72083333333248,"velocity":0.7637795275590551,"duration":0.11666666666667425},{"name":"F#5","midi":78,"time":140.83958333333248,"velocity":0.6535433070866141,"duration":0.11666666666667425},{"name":"D4","midi":62,"time":140.84166666666582,"velocity":0.7637795275590551,"duration":0.5833333333333712},{"name":"E5","midi":76,"time":140.95624999999916,"velocity":0.6850393700787402,"duration":0.11875000000000568},{"name":"D5","midi":74,"time":141.07499999999916,"velocity":0.6850393700787402,"duration":0.11458333333334281},{"name":"C#5","midi":73,"time":141.19166666666584,"velocity":0.7322834645669292,"duration":0.11666666666667425},{"name":"B4","midi":71,"time":141.3083333333325,"velocity":0.7322834645669292,"duration":0.11666666666667425},{"name":"A#4","midi":70,"time":141.4249999999992,"velocity":0.7322834645669292,"duration":0.11875000000000568},{"name":"C#4","midi":61,"time":141.42708333333252,"velocity":0.7637795275590551,"duration":0.11458333333334281},{"name":"G#4","midi":68,"time":141.5437499999992,"velocity":0.7322834645669292,"duration":0.11666666666667425},{"name":"B3","midi":59,"time":141.54583333333252,"velocity":0.7637795275590551,"duration":0.11458333333334281},{"name":"F#4","midi":66,"time":141.6624999999992,"velocity":0.7637795275590551,"duration":0.11666666666667425},{"name":"A#3","midi":58,"time":141.6624999999992,"velocity":0.7637795275590551,"duration":0.11458333333334281},{"name":"D5","midi":74,"time":141.77916666666587,"velocity":0.6850393700787402,"duration":0.6000000000000227},{"name":"B3","midi":59,"time":141.7812499999992,"velocity":0.7637795275590551,"duration":0.11666666666667425},{"name":"C#4","midi":61,"time":141.8999999999992,"velocity":0.7637795275590551,"duration":0.11875000000000568},{"name":"A3","midi":57,"time":142.01874999999922,"velocity":0.7637795275590551,"duration":0.12083333333333712},{"name":"B3","midi":59,"time":142.14166666666588,"velocity":0.7637795275590551,"duration":0.11875000000000568},{"name":"G#2","midi":44,"time":142.26249999999922,"velocity":0.7637795275590551,"duration":0.23541666666667993},{"name":"E4","midi":64,"time":142.3791666666659,"velocity":0.7637795275590551,"duration":0.11666666666667425},{"name":"G#4","midi":68,"time":142.49999999999923,"velocity":0.7322834645669292,"duration":0.11458333333334281},{"name":"E3","midi":52,"time":142.49999999999923,"velocity":0.7637795275590551,"duration":0.23541666666667993},{"name":"B4","midi":71,"time":142.6166666666659,"velocity":0.7322834645669292,"duration":0.11875000000000568},{"name":"D5","midi":74,"time":142.7354166666659,"velocity":0.6850393700787402,"duration":0.11666666666667425},{"name":"G#4","midi":68,"time":142.8520833333326,"velocity":0.7322834645669292,"duration":0.12083333333333712},{"name":"E4","midi":64,"time":142.85416666666592,"velocity":0.7637795275590551,"duration":0.11666666666667425},{"name":"B4","midi":71,"time":142.97291666666592,"velocity":0.7322834645669292,"duration":0.11458333333334281},{"name":"F4","midi":65,"time":142.97499999999926,"velocity":0.7637795275590551,"duration":0.11250000000001137},{"name":"D5","midi":74,"time":143.0895833333326,"velocity":0.6850393700787402,"duration":0.11458333333334281},{"name":"E4","midi":64,"time":143.0895833333326,"velocity":0.7637795275590551,"duration":0.11250000000001137},{"name":"F5","midi":77,"time":143.20416666666594,"velocity":0.6535433070866141,"duration":0.11875000000000568},{"name":"D4","midi":62,"time":143.20624999999927,"velocity":0.7637795275590551,"duration":0.11458333333334281},{"name":"E5","midi":76,"time":143.32291666666595,"velocity":0.6850393700787402,"duration":0.11666666666667425},{"name":"C4","midi":60,"time":143.32499999999928,"velocity":0.7637795275590551,"duration":0.11458333333334281},{"name":"D5","midi":74,"time":143.44166666666595,"velocity":0.6850393700787402,"duration":0.11875000000000568},{"name":"B3","midi":59,"time":143.44166666666595,"velocity":0.7637795275590551,"duration":0.11666666666667425},{"name":"F5","midi":77,"time":143.56041666666596,"velocity":0.6535433070866141,"duration":0.11666666666667425},{"name":"D4","midi":62,"time":143.5624999999993,"velocity":0.7637795275590551,"duration":0.11458333333334281},{"name":"E5","midi":76,"time":143.67916666666596,"velocity":0.6850393700787402,"duration":0.11458333333334281},{"name":"C4","midi":60,"time":143.67916666666596,"velocity":0.7637795275590551,"duration":0.5937500000000284},{"name":"D5","midi":74,"time":143.7937499999993,"velocity":0.6850393700787402,"duration":0.11666666666667425},{"name":"C5","midi":72,"time":143.9124999999993,"velocity":0.7322834645669292,"duration":0.11666666666667425},{"name":"B4","midi":71,"time":144.029166666666,"velocity":0.7322834645669292,"duration":0.12083333333333712},{"name":"A4","midi":69,"time":144.14999999999932,"velocity":0.7322834645669292,"duration":0.12083333333333712},{"name":"G#4","midi":68,"time":144.272916666666,"velocity":0.7322834645669292,"duration":0.11666666666667425},{"name":"B3","midi":59,"time":144.27499999999932,"velocity":0.7637795275590551,"duration":0.11458333333334281},{"name":"A3","midi":57,"time":144.391666666666,"velocity":0.7637795275590551,"duration":0.11250000000001137},{"name":"F#4","midi":66,"time":144.391666666666,"velocity":0.7637795275590551,"duration":0.11458333333334281},{"name":"E4","midi":64,"time":144.50624999999934,"velocity":0.7637795275590551,"duration":0.11875000000000568},{"name":"G#3","midi":56,"time":144.50833333333267,"velocity":0.7637795275590551,"duration":0.11666666666667425},{"name":"C5","midi":72,"time":144.62499999999935,"velocity":0.7322834645669292,"duration":0.5875000000000341},{"name":"A3","midi":57,"time":144.62499999999935,"velocity":0.7637795275590551,"duration":0.11458333333334281},{"name":"B3","midi":59,"time":144.7395833333327,"velocity":0.7637795275590551,"duration":0.11666666666667425},{"name":"G3","midi":55,"time":144.8583333333327,"velocity":0.7637795275590551,"duration":0.11666666666667425},{"name":"A3","midi":57,"time":144.97499999999937,"velocity":0.7637795275590551,"duration":0.12083333333333712},{"name":"F#2","midi":42,"time":145.0958333333327,"velocity":0.7637795275590551,"duration":0.23541666666667993},{"name":"A4","midi":69,"time":145.2145833333327,"velocity":0.7322834645669292,"duration":0.11666666666667425},{"name":"D3","midi":50,"time":145.33333333333272,"velocity":0.7637795275590551,"duration":0.2395833333333428},{"name":"D4","midi":62,"time":145.33333333333272,"velocity":0.7637795275590551,"duration":0.11666666666667425},{"name":"E4","midi":64,"time":145.45208333333272,"velocity":0.7637795275590551,"duration":0.11875000000000568},{"name":"F#4","midi":66,"time":145.57291666666606,"velocity":0.7637795275590551,"duration":0.11875000000000568},{"name":"G4","midi":67,"time":145.69166666666607,"velocity":0.7637795275590551,"duration":0.11875000000000568},{"name":"E3","midi":52,"time":145.6937499999994,"velocity":0.7637795275590551,"duration":0.11458333333334281},{"name":"A4","midi":69,"time":145.81041666666607,"velocity":0.7322834645669292,"duration":0.11875000000000568},{"name":"F#3","midi":54,"time":145.8124999999994,"velocity":0.7637795275590551,"duration":0.11666666666667425},{"name":"B4","midi":71,"time":145.9312499999994,"velocity":0.7322834645669292,"duration":0.11458333333334281},{"name":"G3","midi":55,"time":145.9312499999994,"velocity":0.7637795275590551,"duration":0.11458333333334281},{"name":"C5","midi":72,"time":146.04791666666608,"velocity":0.7322834645669292,"duration":0.11666666666667425},{"name":"A3","midi":57,"time":146.04791666666608,"velocity":0.7637795275590551,"duration":0.11458333333334281},{"name":"D5","midi":74,"time":146.16458333333276,"velocity":0.6850393700787402,"duration":0.11666666666667425},{"name":"B3","midi":59,"time":146.1666666666661,"velocity":0.7637795275590551,"duration":0.11458333333334281},{"name":"E5","midi":76,"time":146.28333333333276,"velocity":0.6692913385826772,"duration":0.12083333333333712},{"name":"C4","midi":60,"time":146.28333333333276,"velocity":0.7637795275590551,"duration":0.11875000000000568},{"name":"F#5","midi":78,"time":146.4041666666661,"velocity":0.6377952755905512,"duration":0.12083333333333712},{"name":"A3","midi":57,"time":146.40624999999943,"velocity":0.7637795275590551,"duration":0.11666666666667425},{"name":"G5","midi":79,"time":146.52499999999944,"velocity":0.6377952755905512,"duration":0.11666666666667425},{"name":"B3","midi":59,"time":146.52499999999944,"velocity":0.7637795275590551,"duration":0.11666666666667425},{"name":"F#5","midi":78,"time":146.64374999999944,"velocity":0.6377952755905512,"duration":0.11875000000000568},{"name":"A3","midi":57,"time":146.64374999999944,"velocity":0.7637795275590551,"duration":0.11666666666667425},{"name":"A5","midi":81,"time":146.76249999999945,"velocity":0.6377952755905512,"duration":0.11666666666667425},{"name":"C4","midi":60,"time":146.76458333333278,"velocity":0.7637795275590551,"duration":0.11458333333334281},{"name":"G5","midi":79,"time":146.88124999999945,"velocity":0.6377952755905512,"duration":0.11875000000000568},{"name":"B3","midi":59,"time":146.88124999999945,"velocity":0.7637795275590551,"duration":0.11875000000000568},{"name":"F#5","midi":78,"time":146.99999999999946,"velocity":0.6377952755905512,"duration":0.11875000000000568},{"name":"A3","midi":57,"time":147.0020833333328,"velocity":0.7637795275590551,"duration":0.11666666666667425},{"name":"E5","midi":76,"time":147.11874999999947,"velocity":0.6692913385826772,"duration":0.11666666666667425},{"name":"G3","midi":55,"time":147.1208333333328,"velocity":0.7637795275590551,"duration":0.11458333333334281},{"name":"D5","midi":74,"time":147.23749999999947,"velocity":0.6850393700787402,"duration":0.11666666666667425},{"name":"F#3","midi":54,"time":147.23749999999947,"velocity":0.7637795275590551,"duration":0.11666666666667425},{"name":"C5","midi":72,"time":147.35416666666615,"velocity":0.7322834645669292,"duration":0.12083333333333712},{"name":"E3","midi":52,"time":147.35624999999948,"velocity":0.7637795275590551,"duration":0.11875000000000568},{"name":"B4","midi":71,"time":147.47499999999948,"velocity":0.7322834645669292,"duration":0.12083333333333712},{"name":"D3","midi":50,"time":147.4770833333328,"velocity":0.7637795275590551,"duration":0.11875000000000568},{"name":"G5","midi":79,"time":147.59791666666615,"velocity":0.6377952755905512,"duration":0.11875000000000568},{"name":"E3","midi":52,"time":147.59999999999948,"velocity":0.7637795275590551,"duration":0.11666666666667425},{"name":"A4","midi":69,"time":147.7187499999995,"velocity":0.7322834645669292,"duration":0.11666666666667425},{"name":"C3","midi":48,"time":147.7187499999995,"velocity":0.7637795275590551,"duration":0.11666666666667425},{"name":"F#5","midi":78,"time":147.8374999999995,"velocity":0.6377952755905512,"duration":0.11875000000000568},{"name":"D3","midi":50,"time":147.83958333333283,"velocity":0.7637795275590551,"duration":0.11666666666667425},{"name":"G4","midi":67,"time":147.9562499999995,"velocity":0.7637795275590551,"duration":0.11875000000000568},{"name":"B2","midi":47,"time":147.95833333333283,"velocity":0.7637795275590551,"duration":0.2395833333333428},{"name":"B4","midi":71,"time":148.07708333333284,"velocity":0.7322834645669292,"duration":0.11875000000000568},{"name":"D5","midi":74,"time":148.19791666666617,"velocity":0.6850393700787402,"duration":0.11875000000000568},{"name":"G3","midi":55,"time":148.1999999999995,"velocity":0.7637795275590551,"duration":0.23541666666667993},{"name":"G5","midi":79,"time":148.31666666666618,"velocity":0.6377952755905512,"duration":0.11666666666667425},{"name":"F#5","midi":78,"time":148.43541666666619,"velocity":0.6377952755905512,"duration":0.11666666666667425},{"name":"G5","midi":79,"time":148.55208333333286,"velocity":0.6377952755905512,"duration":0.12083333333333712},{"name":"D4","midi":62,"time":148.5541666666662,"velocity":0.7637795275590551,"duration":0.11875000000000568},{"name":"F5","midi":77,"time":148.67499999999953,"velocity":0.6377952755905512,"duration":0.11666666666667425},{"name":"E4","midi":64,"time":148.67499999999953,"velocity":0.7637795275590551,"duration":0.11458333333334281},{"name":"G5","midi":79,"time":148.7916666666662,"velocity":0.6377952755905512,"duration":0.12083333333333712},{"name":"D4","midi":62,"time":148.79374999999953,"velocity":0.7637795275590551,"duration":0.11875000000000568},{"name":"E5","midi":76,"time":148.91458333333287,"velocity":0.6692913385826772,"duration":0.11875000000000568},{"name":"C4","midi":60,"time":148.91458333333287,"velocity":0.7637795275590551,"duration":0.11666666666667425},{"name":"G5","midi":79,"time":149.03333333333288,"velocity":0.6377952755905512,"duration":0.11875000000000568},{"name":"B3","midi":59,"time":149.0354166666662,"velocity":0.7637795275590551,"duration":0.11666666666667425},{"name":"D#5","midi":75,"time":149.1541666666662,"velocity":0.6692913385826772,"duration":0.11875000000000568},{"name":"A3","midi":57,"time":149.1541666666662,"velocity":0.7637795275590551,"duration":0.11875000000000568},{"name":"G5","midi":79,"time":149.27499999999955,"velocity":0.6377952755905512,"duration":0.11875000000000568},{"name":"C4","midi":60,"time":149.27499999999955,"velocity":0.7637795275590551,"duration":0.11666666666667425},{"name":"D5","midi":74,"time":149.39374999999956,"velocity":0.6850393700787402,"duration":0.11875000000000568},{"name":"B3","midi":59,"time":149.3958333333329,"velocity":0.7637795275590551,"duration":0.5937500000000284},{"name":"G5","midi":79,"time":149.51249999999956,"velocity":0.6377952755905512,"duration":0.11250000000001137},{"name":"F#5","midi":78,"time":149.63124999999957,"velocity":0.6377952755905512,"duration":0.11458333333334281},{"name":"G5","midi":79,"time":149.7520833333329,"velocity":0.6377952755905512,"duration":0.11875000000000568},{"name":"C#5","midi":73,"time":149.8708333333329,"velocity":0.7322834645669292,"duration":0.11666666666667425},{"name":"E5","midi":76,"time":149.98958333333292,"velocity":0.6692913385826772,"duration":0.11875000000000568},{"name":"A3","midi":57,"time":149.99166666666625,"velocity":0.7637795275590551,"duration":0.11666666666667425},{"name":"A#4","midi":70,"time":150.11041666666625,"velocity":0.7322834645669292,"duration":0.11041666666667993},{"name":"G3","midi":55,"time":150.11041666666625,"velocity":0.7637795275590551,"duration":0.11041666666667993},{"name":"A4","midi":69,"time":150.2249999999996,"velocity":0.7322834645669292,"duration":0.11666666666667425},{"name":"F#3","midi":54,"time":150.22708333333293,"velocity":0.7637795275590551,"duration":0.11250000000001137},{"name":"A#4","midi":70,"time":150.34583333333293,"velocity":0.7322834645669292,"duration":0.11875000000000568},{"name":"G3","midi":55,"time":150.34791666666626,"velocity":0.7637795275590551,"duration":0.11041666666667993},{"name":"C#5","midi":73,"time":150.46458333333294,"velocity":0.7322834645669292,"duration":0.11875000000000568},{"name":"F#3","midi":54,"time":150.46666666666627,"velocity":0.7637795275590551,"duration":0.11041666666667993},{"name":"A4","midi":69,"time":150.58541666666628,"velocity":0.7322834645669292,"duration":0.11875000000000568},{"name":"G3","midi":55,"time":150.58541666666628,"velocity":0.7637795275590551,"duration":0.11875000000000568},{"name":"G4","midi":67,"time":150.7062499999996,"velocity":0.7637795275590551,"duration":0.11875000000000568},{"name":"A3","midi":57,"time":150.7062499999996,"velocity":0.7637795275590551,"duration":0.11875000000000568},{"name":"F#4","midi":66,"time":150.82499999999962,"velocity":0.7637795275590551,"duration":0.2395833333333428},{"name":"D3","midi":50,"time":150.82708333333295,"velocity":0.7637795275590551,"duration":0.11666666666667425},{"name":"F#3","midi":54,"time":150.94583333333296,"velocity":0.7637795275590551,"duration":0.11875000000000568},{"name":"D5","midi":74,"time":151.0666666666663,"velocity":0.6850393700787402,"duration":0.23750000000001137},{"name":"A3","midi":57,"time":151.0666666666663,"velocity":0.7637795275590551,"duration":0.11666666666667425},{"name":"D4","midi":62,"time":151.1854166666663,"velocity":0.7637795275590551,"duration":0.11875000000000568},{"name":"C#4","midi":61,"time":151.30624999999964,"velocity":0.7637795275590551,"duration":0.11875000000000568},{"name":"A5","midi":81,"time":151.42499999999964,"velocity":0.6377952755905512,"duration":0.12083333333333712},{"name":"D4","midi":62,"time":151.42499999999964,"velocity":0.7637795275590551,"duration":0.11875000000000568},{"name":"B5","midi":83,"time":151.54583333333298,"velocity":0.6377952755905512,"duration":0.11875000000000568},{"name":"C4","midi":60,"time":151.5479166666663,"velocity":0.7637795275590551,"duration":0.11666666666667425},{"name":"A5","midi":81,"time":151.66666666666632,"velocity":0.6377952755905512,"duration":0.11875000000000568},{"name":"D4","midi":62,"time":151.66666666666632,"velocity":0.7637795275590551,"duration":0.11666666666667425},{"name":"G5","midi":79,"time":151.78541666666632,"velocity":0.6377952755905512,"duration":0.11875000000000568},{"name":"B3","midi":59,"time":151.78749999999965,"velocity":0.7637795275590551,"duration":0.11666666666667425},{"name":"F#5","midi":78,"time":151.90624999999966,"velocity":0.6377952755905512,"duration":0.11875000000000568},{"name":"D4","midi":62,"time":151.90624999999966,"velocity":0.7637795275590551,"duration":0.11875000000000568},{"name":"E5","midi":76,"time":152.02499999999966,"velocity":0.6692913385826772,"duration":0.12083333333333712},{"name":"A#3","midi":58,"time":152.027083333333,"velocity":0.7637795275590551,"duration":0.11875000000000568},{"name":"G5","midi":79,"time":152.145833333333,"velocity":0.6377952755905512,"duration":0.12083333333333712},{"name":"D4","midi":62,"time":152.14791666666633,"velocity":0.7637795275590551,"duration":0.11666666666667425},{"name":"F#5","midi":78,"time":152.26666666666634,"velocity":0.6377952755905512,"duration":0.5812500000000114},{"name":"A3","midi":57,"time":152.26666666666634,"velocity":0.7637795275590551,"duration":0.11458333333334281},{"name":"D4","midi":62,"time":152.38124999999968,"velocity":0.7637795275590551,"duration":0.11666666666667425},{"name":"C#4","midi":61,"time":152.49791666666636,"velocity":0.7637795275590551,"duration":0.11458333333334281},{"name":"D4","midi":62,"time":152.6124999999997,"velocity":0.7637795275590551,"duration":0.11875000000000568},{"name":"G#3","midi":56,"time":152.7312499999997,"velocity":0.7637795275590551,"duration":0.11458333333331439},{"name":"E5","midi":76,"time":152.84791666666635,"velocity":0.6850393700787402,"duration":0.11666666666667425},{"name":"B3","midi":59,"time":152.84999999999968,"velocity":0.7637795275590551,"duration":0.11250000000001137},{"name":"D5","midi":74,"time":152.96458333333302,"velocity":0.6850393700787402,"duration":0.11875000000000568},{"name":"F3","midi":53,"time":152.96666666666636,"velocity":0.7637795275590551,"duration":0.11666666666667425},{"name":"C#5","midi":73,"time":153.08541666666636,"velocity":0.7322834645669292,"duration":0.11666666666667425},{"name":"E3","midi":52,"time":153.08541666666636,"velocity":0.7637795275590551,"duration":0.11458333333334281},{"name":"D5","midi":74,"time":153.20208333333304,"velocity":0.6850393700787402,"duration":0.11875000000000568},{"name":"F3","midi":53,"time":153.20416666666637,"velocity":0.7637795275590551,"duration":0.11458333333334281},{"name":"E5","midi":76,"time":153.32083333333304,"velocity":0.6850393700787402,"duration":0.11458333333334281},{"name":"G#3","midi":56,"time":153.32291666666637,"velocity":0.7637795275590551,"duration":0.11250000000001137},{"name":"C#5","midi":73,"time":153.43749999999972,"velocity":0.7322834645669292,"duration":0.11666666666667425},{"name":"E3","midi":52,"time":153.43749999999972,"velocity":0.7637795275590551,"duration":0.11458333333334281},{"name":"D5","midi":74,"time":153.5541666666664,"velocity":0.6850393700787402,"duration":0.12083333333333712},{"name":"D3","midi":50,"time":153.55624999999972,"velocity":0.7637795275590551,"duration":0.11666666666667425},{"name":"E5","midi":76,"time":153.67499999999973,"velocity":0.6850393700787402,"duration":0.11458333333334281},{"name":"C#3","midi":49,"time":153.67499999999973,"velocity":0.7637795275590551,"duration":0.2333333333333485},{"name":"D5","midi":74,"time":153.78958333333307,"velocity":0.6850393700787402,"duration":0.11666666666667425},{"name":"C#5","midi":73,"time":153.90833333333308,"velocity":0.7322834645669292,"duration":0.11666666666667425},{"name":"A2","midi":45,"time":153.9104166666664,"velocity":0.7637795275590551,"duration":0.2333333333333485},{"name":"B4","midi":71,"time":154.02499999999975,"velocity":0.7322834645669292,"duration":0.11875000000000568},{"name":"A4","midi":69,"time":154.1458333333331,"velocity":0.7322834645669292,"duration":0.11250000000001137},{"name":"C#3","midi":49,"time":154.1458333333331,"velocity":0.7637795275590551,"duration":0.22916666666668561},{"name":"G#4","midi":68,"time":154.26041666666643,"velocity":0.7322834645669292,"duration":0.11458333333334281},{"name":"E5","midi":76,"time":154.3770833333331,"velocity":0.7007874015748031,"duration":0.11458333333334281},{"name":"E3","midi":52,"time":154.3770833333331,"velocity":0.7637795275590551,"duration":0.2333333333333485},{"name":"D5","midi":74,"time":154.49166666666645,"velocity":0.7007874015748031,"duration":0.11666666666667425},{"name":"C#5","midi":73,"time":154.61041666666645,"velocity":0.7480314960629921,"duration":0.11666666666667425},{"name":"A3","midi":57,"time":154.61249999999978,"velocity":0.7637795275590551,"duration":0.23125000000001705},{"name":"B4","midi":71,"time":154.72708333333313,"velocity":0.7480314960629921,"duration":0.11666666666667425},{"name":"A4","midi":69,"time":154.84583333333313,"velocity":0.7480314960629921,"duration":0.11666666666667425},{"name":"C#3","midi":49,"time":154.84583333333313,"velocity":0.7637795275590551,"duration":0.23750000000001137},{"name":"G4","midi":67,"time":154.96458333333314,"velocity":0.7637795275590551,"duration":0.11875000000000568},{"name":"F#4","midi":66,"time":155.08541666666648,"velocity":0.7637795275590551,"duration":0.23541666666667993},{"name":"A3","midi":57,"time":155.08541666666648,"velocity":0.7637795275590551,"duration":0.11458333333334281},{"name":"G3","midi":55,"time":155.20208333333315,"velocity":0.7637795275590551,"duration":0.11666666666667425},{"name":"D4","midi":62,"time":155.32083333333316,"velocity":0.7637795275590551,"duration":0.2333333333333485},{"name":"F#3","midi":54,"time":155.3229166666665,"velocity":0.7637795275590551,"duration":0.11458333333334281},{"name":"E3","midi":52,"time":155.43749999999983,"velocity":0.7637795275590551,"duration":0.11458333333334281},{"name":"F#4","midi":66,"time":155.5541666666665,"velocity":0.7637795275590551,"duration":0.23125000000001705},{"name":"D3","midi":50,"time":155.55624999999984,"velocity":0.7637795275590551,"duration":0.11250000000001137},{"name":"C#3","midi":49,"time":155.67083333333318,"velocity":0.7637795275590551,"duration":0.11458333333334281},{"name":"A4","midi":69,"time":155.78749999999985,"velocity":0.7480314960629921,"duration":0.2333333333333485},{"name":"A3","midi":57,"time":155.78749999999985,"velocity":0.7637795275590551,"duration":0.11250000000001137},{"name":"G3","midi":55,"time":155.9020833333332,"velocity":0.7637795275590551,"duration":0.11666666666667425},{"name":"D5","midi":74,"time":156.0208333333332,"velocity":0.6850393700787402,"duration":0.23541666666667993},{"name":"F#3","midi":54,"time":156.02291666666653,"velocity":0.7637795275590551,"duration":0.11458333333334281},{"name":"E3","midi":52,"time":156.13749999999987,"velocity":0.7637795275590551,"duration":0.11666666666667425},{"name":"F#4","midi":66,"time":156.25624999999988,"velocity":0.7637795275590551,"duration":0.23750000000001137},{"name":"D3","midi":50,"time":156.2583333333332,"velocity":0.7637795275590551,"duration":0.11458333333334281},{"name":"C3","midi":48,"time":156.3749999999999,"velocity":0.7637795275590551,"duration":0.11666666666667425},{"name":"D5","midi":74,"time":156.4937499999999,"velocity":0.6850393700787402,"duration":0.11250000000001137},{"name":"B2","midi":47,"time":156.49583333333322,"velocity":0.7637795275590551,"duration":0.22500000000002274},{"name":"C5","midi":72,"time":156.60833333333323,"velocity":0.7322834645669292,"duration":0.11041666666667993},{"name":"B4","midi":71,"time":156.72083333333325,"velocity":0.7322834645669292,"duration":0.11250000000001137},{"name":"G2","midi":43,"time":156.72291666666658,"velocity":0.7637795275590551,"duration":0.22708333333335418},{"name":"A4","midi":69,"time":156.83333333333326,"velocity":0.7480314960629921,"duration":0.11666666666667425},{"name":"G4","midi":67,"time":156.94999999999993,"velocity":0.7637795275590551,"duration":0.11666666666667425},{"name":"B2","midi":47,"time":156.95208333333326,"velocity":0.7637795275590551,"duration":0.22916666666668561},{"name":"F#4","midi":66,"time":157.0666666666666,"velocity":0.7637795275590551,"duration":0.11250000000001137},{"name":"D5","midi":74,"time":157.18124999999995,"velocity":0.6850393700787402,"duration":0.11041666666667993},{"name":"D3","midi":50,"time":157.18124999999995,"velocity":0.7637795275590551,"duration":0.22916666666668561},{"name":"C5","midi":72,"time":157.29166666666663,"velocity":0.7322834645669292,"duration":0.11875000000000568},{"name":"B4","midi":71,"time":157.41041666666663,"velocity":0.7322834645669292,"duration":0.11666666666667425},{"name":"G3","midi":55,"time":157.41249999999997,"velocity":0.7637795275590551,"duration":0.2333333333333485},{"name":"A4","midi":69,"time":157.5270833333333,"velocity":0.7480314960629921,"duration":0.11666666666667425},{"name":"G4","midi":67,"time":157.64583333333331,"velocity":0.7637795275590551,"duration":0.11666666666667425},{"name":"B2","midi":47,"time":157.64791666666665,"velocity":0.7637795275590551,"duration":0.23125000000001705},{"name":"F4","midi":65,"time":157.7625,"velocity":0.7637795275590551,"duration":0.11458333333334281},{"name":"E4","midi":64,"time":157.87916666666666,"velocity":0.7637795275590551,"duration":0.23125000000001705},{"name":"G3","midi":55,"time":157.88125,"velocity":0.7637795275590551,"duration":0.11250000000001137},{"name":"F3","midi":53,"time":157.99583333333334,"velocity":0.7637795275590551,"duration":0.11458333333334281},{"name":"C4","midi":60,"time":158.1125,"velocity":0.7637795275590551,"duration":0.2333333333333485},{"name":"E3","midi":52,"time":158.1125,"velocity":0.7637795275590551,"duration":0.11458333333334281},{"name":"D3","midi":50,"time":158.22916666666669,"velocity":0.7637795275590551,"duration":0.11458333333334281},{"name":"E4","midi":64,"time":158.34583333333336,"velocity":0.7637795275590551,"duration":0.22916666666668561},{"name":"C3","midi":48,"time":158.3479166666667,"velocity":0.7637795275590551,"duration":0.11041666666667993},{"name":"B2","midi":47,"time":158.45833333333337,"velocity":0.7637795275590551,"duration":0.11666666666667425},{"name":"G4","midi":67,"time":158.57500000000005,"velocity":0.7637795275590551,"duration":0.23125000000001705},{"name":"G3","midi":55,"time":158.57708333333338,"velocity":0.7637795275590551,"duration":0.11250000000001137},{"name":"F3","midi":53,"time":158.69166666666672,"velocity":0.7637795275590551,"duration":0.11458333333334281},{"name":"C5","midi":72,"time":158.8083333333334,"velocity":0.7322834645669292,"duration":0.2333333333333485},{"name":"E3","midi":52,"time":158.8083333333334,"velocity":0.7637795275590551,"duration":0.11666666666667425},{"name":"D3","midi":50,"time":158.92500000000007,"velocity":0.7637795275590551,"duration":0.11458333333334281},{"name":"E4","midi":64,"time":159.04166666666674,"velocity":0.7637795275590551,"duration":0.23125000000001705},{"name":"C3","midi":48,"time":159.04375000000007,"velocity":0.7637795275590551,"duration":0.11250000000001137},{"name":"B2","midi":47,"time":159.15625000000009,"velocity":0.7637795275590551,"duration":0.11666666666667425},{"name":"E5","midi":76,"time":159.2750000000001,"velocity":0.6850393700787402,"duration":0.11458333333334281},{"name":"E3","midi":52,"time":159.2750000000001,"velocity":0.7637795275590551,"duration":0.11250000000001137},{"name":"D5","midi":74,"time":159.38958333333343,"velocity":0.6850393700787402,"duration":0.11458333333334281},{"name":"D3","midi":50,"time":159.39166666666677,"velocity":0.7637795275590551,"duration":0.11250000000001137},{"name":"C5","midi":72,"time":159.5062500000001,"velocity":0.7322834645669292,"duration":0.11666666666667425},{"name":"C3","midi":48,"time":159.5062500000001,"velocity":0.7637795275590551,"duration":0.11666666666667425},{"name":"B4","midi":71,"time":159.6250000000001,"velocity":0.7322834645669292,"duration":0.11458333333334281},{"name":"B2","midi":47,"time":159.6250000000001,"velocity":0.7637795275590551,"duration":0.11250000000001137},{"name":"A4","midi":69,"time":159.73958333333346,"velocity":0.7480314960629921,"duration":0.11458333333334281},{"name":"A2","midi":45,"time":159.7416666666668,"velocity":0.7637795275590551,"duration":0.11250000000001137},{"name":"G#4","midi":68,"time":159.85625000000013,"velocity":0.7480314960629921,"duration":0.11458333333334281},{"name":"G#2","midi":44,"time":159.85625000000013,"velocity":0.7637795275590551,"duration":0.11458333333334281},{"name":"E5","midi":76,"time":159.9729166666668,"velocity":0.6850393700787402,"duration":0.11458333333334281},{"name":"E3","midi":52,"time":159.9729166666668,"velocity":0.7637795275590551,"duration":0.11250000000001137},{"name":"D5","midi":74,"time":160.08750000000015,"velocity":0.6850393700787402,"duration":0.11666666666667425},{"name":"D3","midi":50,"time":160.08958333333348,"velocity":0.7637795275590551,"duration":0.11458333333334281},{"name":"C5","midi":72,"time":160.20625000000015,"velocity":0.7322834645669292,"duration":0.11458333333334281},{"name":"C3","midi":48,"time":160.20625000000015,"velocity":0.7637795275590551,"duration":0.11458333333334281},{"name":"B4","midi":71,"time":160.32291666666683,"velocity":0.7322834645669292,"duration":0.11458333333334281},{"name":"B2","midi":47,"time":160.32291666666683,"velocity":0.7637795275590551,"duration":0.11250000000001137},{"name":"A4","midi":69,"time":160.43750000000017,"velocity":0.7480314960629921,"duration":0.11458333333334281},{"name":"A2","midi":45,"time":160.4395833333335,"velocity":0.7637795275590551,"duration":0.11250000000001137},{"name":"G#4","midi":68,"time":160.55416666666684,"velocity":0.7480314960629921,"duration":0.11458333333334281},{"name":"G#2","midi":44,"time":160.55416666666684,"velocity":0.7637795275590551,"duration":0.11458333333334281},{"name":"A4","midi":69,"time":160.67083333333352,"velocity":0.7480314960629921,"duration":0.11666666666667425},{"name":"A2","midi":45,"time":160.67083333333352,"velocity":0.7637795275590551,"duration":0.11458333333334281},{"name":"C5","midi":72,"time":160.7875000000002,"velocity":0.7480314960629921,"duration":0.11458333333334281},{"name":"C3","midi":48,"time":160.78958333333352,"velocity":0.7637795275590551,"duration":0.11250000000001137},{"name":"E5","midi":76,"time":160.90416666666687,"velocity":0.7007874015748031,"duration":0.11666666666667425},{"name":"E3","midi":52,"time":160.90416666666687,"velocity":0.7637795275590551,"duration":0.11666666666667425},{"name":"A5","midi":81,"time":161.02291666666687,"velocity":0.6692913385826772,"duration":0.11666666666667425},{"name":"A3","midi":57,"time":161.02291666666687,"velocity":0.7637795275590551,"duration":0.11458333333334281},{"name":"G#3","midi":56,"time":161.13958333333355,"velocity":0.7637795275590551,"duration":0.11875000000000568},{"name":"E5","midi":76,"time":161.25833333333355,"velocity":0.7007874015748031,"duration":0.12083333333333712},{"name":"A3","midi":57,"time":161.26041666666688,"velocity":0.7637795275590551,"duration":0.11666666666667425},{"name":"F5","midi":77,"time":161.3791666666669,"velocity":0.6692913385826772,"duration":0.12083333333333712},{"name":"G3","midi":55,"time":161.38125000000022,"velocity":0.7637795275590551,"duration":0.11666666666667425},{"name":"E5","midi":76,"time":161.50000000000023,"velocity":0.7007874015748031,"duration":0.11666666666667425},{"name":"A3","midi":57,"time":161.50000000000023,"velocity":0.7637795275590551,"duration":0.11666666666667425},{"name":"D5","midi":74,"time":161.61875000000023,"velocity":0.7007874015748031,"duration":0.11666666666667425},{"name":"F#3","midi":54,"time":161.61875000000023,"velocity":0.7637795275590551,"duration":0.11458333333334281},{"name":"C5","midi":72,"time":161.7354166666669,"velocity":0.7480314960629921,"duration":0.11458333333334281},{"name":"A3","midi":57,"time":161.73750000000024,"velocity":0.7637795275590551,"duration":0.11250000000001137},{"name":"B4","midi":71,"time":161.85208333333358,"velocity":0.7480314960629921,"duration":0.11875000000000568},{"name":"F3","midi":53,"time":161.85208333333358,"velocity":0.7637795275590551,"duration":0.11875000000000568},{"name":"D5","midi":74,"time":161.97291666666692,"velocity":0.7007874015748031,"duration":0.11666666666667425},{"name":"A3","midi":57,"time":161.97291666666692,"velocity":0.7637795275590551,"duration":0.11666666666667425},{"name":"C5","midi":72,"time":162.09166666666692,"velocity":0.7480314960629921,"duration":0.5875000000000341},{"name":"E3","midi":52,"time":162.09166666666692,"velocity":0.7637795275590551,"duration":0.11458333333334281},{"name":"A3","midi":57,"time":162.2083333333336,"velocity":0.7637795275590551,"duration":0.11666666666667425},{"name":"G#3","midi":56,"time":162.32500000000027,"velocity":0.7637795275590551,"duration":0.11875000000000568},{"name":"A3","midi":57,"time":162.44375000000028,"velocity":0.7637795275590551,"duration":0.11666666666667425},{"name":"D#3","midi":51,"time":162.56250000000028,"velocity":0.7637795275590551,"duration":0.11666666666667425},{"name":"B4","midi":71,"time":162.6812500000003,"velocity":0.7480314960629921,"duration":0.11458333333334281},{"name":"F#3","midi":54,"time":162.6812500000003,"velocity":0.7637795275590551,"duration":0.11458333333334281},{"name":"A4","midi":69,"time":162.79791666666696,"velocity":0.7480314960629921,"duration":0.11458333333334281},{"name":"C3","midi":48,"time":162.79791666666696,"velocity":0.7637795275590551,"duration":0.11250000000001137},{"name":"G#4","midi":68,"time":162.9125000000003,"velocity":0.7480314960629921,"duration":0.11666666666667425},{"name":"B2","midi":47,"time":162.91458333333364,"velocity":0.7637795275590551,"duration":0.11458333333334281},{"name":"A4","midi":69,"time":163.0312500000003,"velocity":0.7480314960629921,"duration":0.11875000000000568},{"name":"C3","midi":48,"time":163.0312500000003,"velocity":0.7637795275590551,"duration":0.11875000000000568},{"name":"F#4","midi":66,"time":163.15000000000032,"velocity":0.7637795275590551,"duration":0.12083333333333712},{"name":"D3","midi":50,"time":163.15208333333365,"velocity":0.7637795275590551,"duration":0.11666666666667425},{"name":"D#4","midi":63,"time":163.27083333333366,"velocity":0.7637795275590551,"duration":0.11666666666667425},{"name":"B2","midi":47,"time":163.272916666667,"velocity":0.7637795275590551,"duration":0.11458333333334281},{"name":"B4","midi":71,"time":163.38958333333366,"velocity":0.7480314960629921,"duration":0.11666666666667425},{"name":"A2","midi":45,"time":163.38958333333366,"velocity":0.7637795275590551,"duration":0.11458333333334281},{"name":"E4","midi":64,"time":163.50625000000034,"velocity":0.7637795275590551,"duration":0.11875000000000568},{"name":"G2","midi":43,"time":163.50833333333367,"velocity":0.7637795275590551,"duration":0.23541666666667993},{"name":"G4","midi":67,"time":163.62500000000034,"velocity":0.7637795275590551,"duration":0.11875000000000568},{"name":"B4","midi":71,"time":163.74583333333368,"velocity":0.7480314960629921,"duration":0.11250000000001137},{"name":"E3","midi":52,"time":163.74583333333368,"velocity":0.7637795275590551,"duration":0.22916666666668561},{"name":"E5","midi":76,"time":163.86041666666702,"velocity":0.7007874015748031,"duration":0.11458333333334281},{"name":"D#5","midi":75,"time":163.9770833333337,"velocity":0.7007874015748031,"duration":0.11666666666667425},{"name":"E5","midi":76,"time":164.09375000000037,"velocity":0.7007874015748031,"duration":0.11875000000000568},{"name":"B3","midi":59,"time":164.0958333333337,"velocity":0.7637795275590551,"duration":0.11458333333334281},{"name":"D5","midi":74,"time":164.21250000000038,"velocity":0.7007874015748031,"duration":0.11666666666667425},{"name":"C4","midi":60,"time":164.2145833333337,"velocity":0.7637795275590551,"duration":0.11458333333334281},{"name":"E5","midi":76,"time":164.33125000000038,"velocity":0.7007874015748031,"duration":0.11666666666667425},{"name":"B3","midi":59,"time":164.33125000000038,"velocity":0.7637795275590551,"duration":0.11666666666667425},{"name":"C#5","midi":73,"time":164.4500000000004,"velocity":0.7480314960629921,"duration":0.11875000000000568},{"name":"A3","midi":57,"time":164.4500000000004,"velocity":0.7637795275590551,"duration":0.11666666666667425},{"name":"E5","midi":76,"time":164.5687500000004,"velocity":0.7007874015748031,"duration":0.11875000000000568},{"name":"G3","midi":55,"time":164.57083333333372,"velocity":0.7637795275590551,"duration":0.11666666666667425},{"name":"C5","midi":72,"time":164.68958333333373,"velocity":0.7480314960629921,"duration":0.11875000000000568},{"name":"F#3","midi":54,"time":164.68958333333373,"velocity":0.7637795275590551,"duration":0.11666666666667425},{"name":"E5","midi":76,"time":164.80833333333374,"velocity":0.7007874015748031,"duration":0.12083333333333712},{"name":"A3","midi":57,"time":164.81041666666707,"velocity":0.7637795275590551,"duration":0.11875000000000568},{"name":"B4","midi":71,"time":164.9312500000004,"velocity":0.7480314960629921,"duration":0.11875000000000568},{"name":"G3","midi":55,"time":164.9312500000004,"velocity":0.7637795275590551,"duration":0.5937500000000284},{"name":"E5","midi":76,"time":165.0500000000004,"velocity":0.7007874015748031,"duration":0.11875000000000568},{"name":"D#5","midi":75,"time":165.17083333333375,"velocity":0.7007874015748031,"duration":0.11666666666667425},{"name":"E5","midi":76,"time":165.28750000000042,"velocity":0.7007874015748031,"duration":0.11666666666667425},{"name":"A#4","midi":70,"time":165.40625000000043,"velocity":0.7480314960629921,"duration":0.11875000000000568},{"name":"C#5","midi":73,"time":165.52708333333376,"velocity":0.7480314960629921,"duration":0.11875000000000568},{"name":"F#3","midi":54,"time":165.52708333333376,"velocity":0.7637795275590551,"duration":0.11875000000000568},{"name":"G4","midi":67,"time":165.6479166666671,"velocity":0.7637795275590551,"duration":0.11875000000000568},{"name":"E3","midi":52,"time":165.6479166666671,"velocity":0.7637795275590551,"duration":0.11666666666667425},{"name":"F#4","midi":66,"time":165.7666666666671,"velocity":0.7637795275590551,"duration":0.11458333333334281},{"name":"D#3","midi":51,"time":165.76875000000044,"velocity":0.7637795275590551,"duration":0.11250000000001137},{"name":"E3","midi":52,"time":165.88333333333378,"velocity":0.7637795275590551,"duration":0.11666666666667425},{"name":"G4","midi":67,"time":165.88333333333378,"velocity":0.7637795275590551,"duration":0.11666666666667425},{"name":"A4","midi":69,"time":166.00000000000045,"velocity":0.7480314960629921,"duration":0.12083333333333712},{"name":"F#3","midi":54,"time":166.0020833333338,"velocity":0.7637795275590551,"duration":0.11666666666667425},{"name":"F#4","midi":66,"time":166.1208333333338,"velocity":0.7637795275590551,"duration":0.12083333333333712},{"name":"D#3","midi":51,"time":166.12291666666712,"velocity":0.7637795275590551,"duration":0.11875000000000568},{"name":"E4","midi":64,"time":166.24375000000046,"velocity":0.7637795275590551,"duration":0.11875000000000568},{"name":"E3","midi":52,"time":166.24375000000046,"velocity":0.7637795275590551,"duration":0.11666666666667425},{"name":"D#4","midi":63,"time":166.36250000000047,"velocity":0.7637795275590551,"duration":0.24583333333333712},{"name":"F#3","midi":54,"time":166.3645833333338,"velocity":0.7637795275590551,"duration":0.12083333333333712},{"name":"B2","midi":47,"time":166.48541666666713,"velocity":0.7637795275590551,"duration":0.12083333333333712},{"name":"B4","midi":71,"time":166.6083333333338,"velocity":0.7480314960629921,"duration":0.24166666666667425},{"name":"D#3","midi":51,"time":166.61041666666713,"velocity":0.7637795275590551,"duration":0.11875000000000568},{"name":"F#3","midi":54,"time":166.72916666666714,"velocity":0.7637795275590551,"duration":0.11875000000000568},{"name":"A3","midi":57,"time":166.85000000000048,"velocity":0.7637795275590551,"duration":0.11458333333334281},{"name":"B5","midi":83,"time":166.96666666666715,"velocity":0.6535433070866141,"duration":0.12291666666666856},{"name":"D#3","midi":51,"time":166.96875000000048,"velocity":0.7637795275590551,"duration":0.11875000000000568},{"name":"C6","midi":84,"time":167.08958333333382,"velocity":0.6535433070866141,"duration":0.11875000000000568},{"name":"F#3","midi":54,"time":167.08958333333382,"velocity":0.7637795275590551,"duration":0.11875000000000568},{"name":"B5","midi":83,"time":167.21041666666716,"velocity":0.6535433070866141,"duration":0.12083333333333712},{"name":"A3","midi":57,"time":167.21041666666716,"velocity":0.7637795275590551,"duration":0.11875000000000568},{"name":"A5","midi":81,"time":167.3312500000005,"velocity":0.6535433070866141,"duration":0.11875000000000568},{"name":"C4","midi":60,"time":167.33333333333383,"velocity":0.7637795275590551,"duration":0.11666666666667425},{"name":"G5","midi":79,"time":167.45208333333383,"velocity":0.6535433070866141,"duration":0.12083333333333712},{"name":"B3","midi":59,"time":167.45208333333383,"velocity":0.7637795275590551,"duration":0.12083333333333712},{"name":"F#5","midi":78,"time":167.57291666666717,"velocity":0.6535433070866141,"duration":0.12083333333333712},{"name":"A3","midi":57,"time":167.5750000000005,"velocity":0.7637795275590551,"duration":0.11666666666667425},{"name":"A5","midi":81,"time":167.6937500000005,"velocity":0.6535433070866141,"duration":0.12083333333333712},{"name":"C4","midi":60,"time":167.69583333333384,"velocity":0.7637795275590551,"duration":0.11875000000000568},{"name":"G5","midi":79,"time":167.81666666666717,"velocity":0.6535433070866141,"duration":0.5770833333333769},{"name":"B3","midi":59,"time":167.81666666666717,"velocity":0.7637795275590551,"duration":0.11250000000001137},{"name":"A3","midi":57,"time":167.93125000000052,"velocity":0.7637795275590551,"duration":0.11666666666667425},{"name":"G3","midi":55,"time":168.05000000000052,"velocity":0.7637795275590551,"duration":0.11666666666667425},{"name":"F#3","midi":54,"time":168.1666666666672,"velocity":0.7637795275590551,"duration":0.11041666666667993},{"name":"E3","midi":52,"time":168.2791666666672,"velocity":0.7637795275590551,"duration":0.11250000000001137},{"name":"F#5","midi":78,"time":168.39375000000055,"velocity":0.6535433070866141,"duration":0.11666666666667425},{"name":"D#3","midi":51,"time":168.39583333333388,"velocity":0.7637795275590551,"duration":0.11458333333334281},{"name":"E5","midi":76,"time":168.51250000000056,"velocity":0.6850393700787402,"duration":0.11666666666667425},{"name":"C#3","midi":49,"time":168.51250000000056,"velocity":0.7637795275590551,"duration":0.11458333333334281},{"name":"D#5","midi":75,"time":168.62916666666723,"velocity":0.6850393700787402,"duration":0.11875000000000568},{"name":"B2","midi":47,"time":168.63125000000056,"velocity":0.7637795275590551,"duration":0.11458333333334281},{"name":"E5","midi":76,"time":168.74791666666724,"velocity":0.6850393700787402,"duration":0.11875000000000568},{"name":"G3","midi":55,"time":168.75000000000057,"velocity":0.7637795275590551,"duration":0.5833333333333712},{"name":"F#5","midi":78,"time":168.86666666666724,"velocity":0.6535433070866141,"duration":0.11458333333334281},{"name":"D5","midi":74,"time":168.98333333333392,"velocity":0.6850393700787402,"duration":0.11666666666667425},{"name":"E5","midi":76,"time":169.1000000000006,"velocity":0.6850393700787402,"duration":0.11875000000000568},{"name":"C#5","midi":73,"time":169.2187500000006,"velocity":0.7322834645669292,"duration":0.2333333333333485},{"name":"A2","midi":45,"time":169.33541666666727,"velocity":0.7637795275590551,"duration":0.11666666666667425},{"name":"A5","midi":81,"time":169.45416666666728,"velocity":0.6535433070866141,"duration":0.23750000000001137},{"name":"C#3","midi":49,"time":169.45416666666728,"velocity":0.7637795275590551,"duration":0.11666666666667425},{"name":"E3","midi":52,"time":169.57083333333395,"velocity":0.7637795275590551,"duration":0.11875000000000568},{"name":"G3","midi":55,"time":169.6916666666673,"velocity":0.7637795275590551,"duration":0.12083333333333712},{"name":"A5","midi":81,"time":169.81250000000063,"velocity":0.6535433070866141,"duration":0.12083333333333712},{"name":"C#3","midi":49,"time":169.81458333333396,"velocity":0.7637795275590551,"duration":0.11666666666667425},{"name":"A#5","midi":82,"time":169.93333333333396,"velocity":0.6535433070866141,"duration":0.11875000000000568},{"name":"E3","midi":52,"time":169.9354166666673,"velocity":0.7637795275590551,"duration":0.11666666666667425},{"name":"A5","midi":81,"time":170.0541666666673,"velocity":0.6535433070866141,"duration":0.12083333333333712},{"name":"G3","midi":55,"time":170.0541666666673,"velocity":0.7637795275590551,"duration":0.11875000000000568},{"name":"G5","midi":79,"time":170.17500000000064,"velocity":0.6535433070866141,"duration":0.11875000000000568},{"name":"A#3","midi":58,"time":170.17500000000064,"velocity":0.7637795275590551,"duration":0.11666666666667425},{"name":"F5","midi":77,"time":170.29375000000064,"velocity":0.6535433070866141,"duration":0.11666666666667425},{"name":"A3","midi":57,"time":170.29583333333397,"velocity":0.7637795275590551,"duration":0.11458333333334281},{"name":"E5","midi":76,"time":170.41250000000065,"velocity":0.6850393700787402,"duration":0.11666666666667425},{"name":"G3","midi":55,"time":170.41250000000065,"velocity":0.7637795275590551,"duration":0.11458333333334281},{"name":"G5","midi":79,"time":170.52916666666732,"velocity":0.6535433070866141,"duration":0.12083333333333712},{"name":"A#3","midi":58,"time":170.53125000000065,"velocity":0.7637795275590551,"duration":0.11666666666667425},{"name":"F5","midi":77,"time":170.65000000000066,"velocity":0.6535433070866141,"duration":0.5875000000000341},{"name":"A3","midi":57,"time":170.65000000000066,"velocity":0.7637795275590551,"duration":0.11875000000000568},{"name":"G3","midi":55,"time":170.76875000000067,"velocity":0.7637795275590551,"duration":0.11458333333334281},{"name":"F3","midi":53,"time":170.88541666666734,"velocity":0.7637795275590551,"duration":0.11666666666667425},{"name":"E3","midi":52,"time":171.002083333334,"velocity":0.7637795275590551,"duration":0.11875000000000568},{"name":"D3","midi":50,"time":171.12083333333402,"velocity":0.7637795275590551,"duration":0.11458333333334281},{"name":"E5","midi":76,"time":171.2375000000007,"velocity":0.7007874015748031,"duration":0.11458333333334281},{"name":"C#3","midi":49,"time":171.23958333333402,"velocity":0.7637795275590551,"duration":0.11250000000001137},{"name":"D5","midi":74,"time":171.35416666666737,"velocity":0.7007874015748031,"duration":0.11875000000000568},{"name":"B2","midi":47,"time":171.35416666666737,"velocity":0.7637795275590551,"duration":0.11875000000000568},{"name":"C#5","midi":73,"time":171.4750000000007,"velocity":0.7480314960629921,"duration":0.11666666666667425},{"name":"A2","midi":45,"time":171.4750000000007,"velocity":0.7637795275590551,"duration":0.11666666666667425},{"name":"D5","midi":74,"time":171.59166666666738,"velocity":0.7007874015748031,"duration":0.11875000000000568},{"name":"F3","midi":53,"time":171.5937500000007,"velocity":0.7637795275590551,"duration":0.5895833333333655},{"name":"E5","midi":76,"time":171.71250000000072,"velocity":0.7007874015748031,"duration":0.11666666666667425},{"name":"C5","midi":72,"time":171.8291666666674,"velocity":0.7480314960629921,"duration":0.11666666666667425},{"name":"D5","midi":74,"time":171.9479166666674,"velocity":0.7007874015748031,"duration":0.11666666666667425},{"name":"B4","midi":71,"time":172.0666666666674,"velocity":0.7480314960629921,"duration":0.2333333333333485},{"name":"D3","midi":50,"time":172.18333333333408,"velocity":0.7637795275590551,"duration":0.11666666666667425},{"name":"G5","midi":79,"time":172.30208333333408,"velocity":0.6692913385826772,"duration":0.23541666666667993},{"name":"G2","midi":43,"time":172.3041666666674,"velocity":0.7637795275590551,"duration":0.11458333333334281},{"name":"A2","midi":45,"time":172.4208333333341,"velocity":0.7637795275590551,"duration":0.11666666666667425},{"name":"B2","midi":47,"time":172.5395833333341,"velocity":0.7637795275590551,"duration":0.11666666666667425},{"name":"A4","midi":69,"time":172.6583333333341,"velocity":0.7480314960629921,"duration":0.11875000000000568},{"name":"C3","midi":48,"time":172.6583333333341,"velocity":0.7637795275590551,"duration":0.11875000000000568},{"name":"B4","midi":71,"time":172.77916666666744,"velocity":0.7480314960629921,"duration":0.11875000000000568},{"name":"D3","midi":50,"time":172.77916666666744,"velocity":0.7637795275590551,"duration":0.11875000000000568},{"name":"C5","midi":72,"time":172.90000000000077,"velocity":0.7480314960629921,"duration":0.11666666666667425},{"name":"E3","midi":52,"time":172.90000000000077,"velocity":0.7637795275590551,"duration":0.11458333333334281},{"name":"D5","midi":74,"time":173.01666666666745,"velocity":0.7007874015748031,"duration":0.11666666666667425},{"name":"F3","midi":53,"time":173.01875000000078,"velocity":0.7637795275590551,"duration":0.11458333333334281},{"name":"E5","midi":76,"time":173.13541666666745,"velocity":0.7007874015748031,"duration":0.11666666666667425},{"name":"G3","midi":55,"time":173.13541666666745,"velocity":0.7637795275590551,"duration":0.11458333333334281},{"name":"F5","midi":77,"time":173.25208333333413,"velocity":0.6692913385826772,"duration":0.12083333333333712},{"name":"A3","midi":57,"time":173.25416666666746,"velocity":0.7637795275590551,"duration":0.11666666666667425},{"name":"D5","midi":74,"time":173.37291666666746,"velocity":0.7007874015748031,"duration":0.11666666666667425},{"name":"B3","midi":59,"time":173.3750000000008,"velocity":0.7637795275590551,"duration":0.11458333333334281},{"name":"E5","midi":76,"time":173.49166666666747,"velocity":0.7007874015748031,"duration":0.11875000000000568},{"name":"C4","midi":60,"time":173.49166666666747,"velocity":0.7637795275590551,"duration":0.11666666666667425},{"name":"D5","midi":74,"time":173.61041666666748,"velocity":0.7007874015748031,"duration":0.11458333333334281},{"name":"B3","midi":59,"time":173.6125000000008,"velocity":0.7637795275590551,"duration":0.11250000000001137},{"name":"G5","midi":79,"time":173.72708333333415,"velocity":0.6692913385826772,"duration":0.11666666666667425},{"name":"E4","midi":64,"time":173.72708333333415,"velocity":0.7637795275590551,"duration":0.11666666666667425},{"name":"F5","midi":77,"time":173.84583333333416,"velocity":0.6692913385826772,"duration":0.11666666666667425},{"name":"D4","midi":62,"time":173.84583333333416,"velocity":0.7637795275590551,"duration":0.11458333333334281},{"name":"E5","midi":76,"time":173.96250000000083,"velocity":0.7007874015748031,"duration":0.11666666666667425},{"name":"C#4","midi":61,"time":173.96458333333416,"velocity":0.7637795275590551,"duration":0.11458333333334281},{"name":"D5","midi":74,"time":174.08125000000084,"velocity":0.7007874015748031,"duration":0.11666666666667425},{"name":"A#3","midi":58,"time":174.08125000000084,"velocity":0.7637795275590551,"duration":0.11666666666667425},{"name":"C#5","midi":73,"time":174.20000000000084,"velocity":0.7480314960629921,"duration":0.11666666666667425},{"name":"A3","midi":57,"time":174.20000000000084,"velocity":0.7637795275590551,"duration":0.11458333333334281},{"name":"A#4","midi":70,"time":174.31666666666752,"velocity":0.7480314960629921,"duration":0.11666666666667425},{"name":"G3","midi":55,"time":174.31875000000085,"velocity":0.7637795275590551,"duration":0.11458333333334281},{"name":"A4","midi":69,"time":174.43541666666752,"velocity":0.7480314960629921,"duration":0.11458333333334281},{"name":"F3","midi":53,"time":174.43541666666752,"velocity":0.7637795275590551,"duration":0.11458333333334281},{"name":"A#4","midi":70,"time":174.55000000000086,"velocity":0.7480314960629921,"duration":0.11666666666667425},{"name":"D4","midi":62,"time":174.5520833333342,"velocity":0.7637795275590551,"duration":0.11250000000001137},{"name":"G4","midi":67,"time":174.66666666666754,"velocity":0.7637795275590551,"duration":0.11666666666667425},{"name":"E3","midi":52,"time":174.66875000000087,"velocity":0.7637795275590551,"duration":0.11458333333334281},{"name":"A4","midi":69,"time":174.78541666666754,"velocity":0.7480314960629921,"duration":0.11458333333334281},{"name":"C#4","midi":61,"time":174.78541666666754,"velocity":0.7637795275590551,"duration":0.11458333333334281},{"name":"F4","midi":65,"time":174.9000000000009,"velocity":0.7637795275590551,"duration":0.23125000000001705},{"name":"D3","midi":50,"time":174.90208333333422,"velocity":0.7637795275590551,"duration":0.11250000000001137},{"name":"F3","midi":53,"time":175.01666666666756,"velocity":0.7637795275590551,"duration":0.11458333333334281},{"name":"D5","midi":74,"time":175.13333333333424,"velocity":0.7007874015748031,"duration":0.23750000000001137},{"name":"A3","midi":57,"time":175.13333333333424,"velocity":0.7637795275590551,"duration":0.11666666666667425},{"name":"D4","midi":62,"time":175.2500000000009,"velocity":0.7637795275590551,"duration":0.11875000000000568},{"name":"C#4","midi":61,"time":175.37083333333425,"velocity":0.7637795275590551,"duration":0.11666666666667425},{"name":"A5","midi":81,"time":175.48750000000092,"velocity":0.6535433070866141,"duration":0.12083333333333712},{"name":"D4","midi":62,"time":175.48958333333425,"velocity":0.7637795275590551,"duration":0.11666666666667425},{"name":"A#5","midi":82,"time":175.60833333333426,"velocity":0.6535433070866141,"duration":0.11875000000000568},{"name":"C4","midi":60,"time":175.6104166666676,"velocity":0.7637795275590551,"duration":0.11666666666667425},{"name":"A5","midi":81,"time":175.7291666666676,"velocity":0.6535433070866141,"duration":0.11875000000000568},{"name":"D4","midi":62,"time":175.7291666666676,"velocity":0.7637795275590551,"duration":0.11875000000000568},{"name":"G5","midi":79,"time":175.85000000000093,"velocity":0.6692913385826772,"duration":0.11875000000000568},{"name":"B3","midi":59,"time":175.85000000000093,"velocity":0.7637795275590551,"duration":0.11666666666667425},{"name":"F5","midi":77,"time":175.96875000000094,"velocity":0.6692913385826772,"duration":0.11875000000000568},{"name":"D4","midi":62,"time":175.97083333333427,"velocity":0.7637795275590551,"duration":0.11666666666667425},{"name":"E5","midi":76,"time":176.08958333333428,"velocity":0.7007874015748031,"duration":0.11666666666667425},{"name":"A#3","midi":58,"time":176.08958333333428,"velocity":0.7637795275590551,"duration":0.11458333333334281},{"name":"G5","midi":79,"time":176.20625000000095,"velocity":0.6692913385826772,"duration":0.11875000000000568},{"name":"D4","midi":62,"time":176.20833333333428,"velocity":0.7637795275590551,"duration":0.11666666666667425},{"name":"F5","midi":77,"time":176.3270833333343,"velocity":0.6692913385826772,"duration":0.591666666666697},{"name":"A3","midi":57,"time":176.3270833333343,"velocity":0.7637795275590551,"duration":0.11875000000000568},{"name":"D4","midi":62,"time":176.4458333333343,"velocity":0.7637795275590551,"duration":0.11875000000000568},{"name":"C#4","midi":61,"time":176.5645833333343,"velocity":0.7637795275590551,"duration":0.11666666666667425},{"name":"D4","midi":62,"time":176.68125000000097,"velocity":0.7637795275590551,"duration":0.11875000000000568},{"name":"G#3","midi":56,"time":176.80000000000098,"velocity":0.7637795275590551,"duration":0.11875000000000568},{"name":"E5","midi":76,"time":176.91875000000098,"velocity":0.7007874015748031,"duration":0.11666666666667425},{"name":"B3","midi":59,"time":176.92083333333431,"velocity":0.7637795275590551,"duration":0.11458333333334281},{"name":"D5","midi":74,"time":177.037500000001,"velocity":0.7007874015748031,"duration":0.11666666666667425},{"name":"F3","midi":53,"time":177.03958333333432,"velocity":0.7637795275590551,"duration":0.11458333333334281},{"name":"C5","midi":72,"time":177.15416666666766,"velocity":0.7480314960629921,"duration":0.12083333333333712},{"name":"E3","midi":52,"time":177.156250000001,"velocity":0.7637795275590551,"duration":0.11875000000000568},{"name":"D5","midi":74,"time":177.275000000001,"velocity":0.7007874015748031,"duration":0.11875000000000568},{"name":"F3","midi":53,"time":177.275000000001,"velocity":0.7637795275590551,"duration":0.11666666666667425},{"name":"C5","midi":72,"time":177.393750000001,"velocity":0.7480314960629921,"duration":0.11875000000000568},{"name":"G#3","midi":56,"time":177.393750000001,"velocity":0.7637795275590551,"duration":0.11666666666667425},{"name":"D5","midi":74,"time":177.51458333333434,"velocity":0.7007874015748031,"duration":0.12083333333333712},{"name":"E3","midi":52,"time":177.51458333333434,"velocity":0.7637795275590551,"duration":0.11875000000000568},{"name":"E5","midi":76,"time":177.63541666666768,"velocity":0.7007874015748031,"duration":0.11875000000000568},{"name":"D3","midi":50,"time":177.637500000001,"velocity":0.7637795275590551,"duration":0.11666666666667425},{"name":"A4","midi":69,"time":177.75625000000102,"velocity":0.7480314960629921,"duration":0.11666666666667425},{"name":"C3","midi":48,"time":177.75625000000102,"velocity":0.7637795275590551,"duration":0.23541666666667993},{"name":"C5","midi":72,"time":177.8729166666677,"velocity":0.7480314960629921,"duration":0.11666666666667425},{"name":"E5","midi":76,"time":177.9916666666677,"velocity":0.7007874015748031,"duration":0.11875000000000568},{"name":"A3","midi":57,"time":177.99375000000103,"velocity":0.7637795275590551,"duration":0.23750000000001137},{"name":"A5","midi":81,"time":178.1104166666677,"velocity":0.6377952755905512,"duration":0.11875000000000568},{"name":"G#5","midi":80,"time":178.23125000000104,"velocity":0.6377952755905512,"duration":0.11875000000000568},{"name":"A5","midi":81,"time":178.35000000000105,"velocity":0.6377952755905512,"duration":0.11875000000000568},{"name":"E4","midi":64,"time":178.35208333333438,"velocity":0.7637795275590551,"duration":0.11666666666667425},{"name":"G5","midi":79,"time":178.47083333333438,"velocity":0.6692913385826772,"duration":0.11666666666667425},{"name":"F4","midi":65,"time":178.47083333333438,"velocity":0.7637795275590551,"duration":0.11458333333334281},{"name":"A5","midi":81,"time":178.58750000000106,"velocity":0.6377952755905512,"duration":0.11875000000000568},{"name":"E4","midi":64,"time":178.5895833333344,"velocity":0.7637795275590551,"duration":0.11666666666667425},{"name":"F#5","midi":78,"time":178.7083333333344,"velocity":0.6692913385826772,"duration":0.12083333333333712},{"name":"D4","midi":62,"time":178.7083333333344,"velocity":0.7637795275590551,"duration":0.11875000000000568},{"name":"A5","midi":81,"time":178.82916666666773,"velocity":0.6377952755905512,"duration":0.12083333333333712},{"name":"C4","midi":60,"time":178.83125000000106,"velocity":0.7637795275590551,"duration":0.11875000000000568},{"name":"F5","midi":77,"time":178.9520833333344,"velocity":0.6692913385826772,"duration":0.11875000000000568},{"name":"B3","midi":59,"time":178.9520833333344,"velocity":0.7637795275590551,"duration":0.11875000000000568},{"name":"A5","midi":81,"time":179.07291666666774,"velocity":0.6377952755905512,"duration":0.11875000000000568},{"name":"D4","midi":62,"time":179.07291666666774,"velocity":0.7637795275590551,"duration":0.11666666666667425},{"name":"E5","midi":76,"time":179.19166666666774,"velocity":0.7007874015748031,"duration":0.12083333333333712},{"name":"C4","midi":60,"time":179.19375000000107,"velocity":0.7637795275590551,"duration":0.6020833333333542},{"name":"A5","midi":81,"time":179.31250000000108,"velocity":0.6377952755905512,"duration":0.11875000000000568},{"name":"G#5","midi":80,"time":179.43333333333442,"velocity":0.6377952755905512,"duration":0.12083333333333712},{"name":"A5","midi":81,"time":179.55416666666775,"velocity":0.6377952755905512,"duration":0.12083333333333712},{"name":"D#5","midi":75,"time":179.6750000000011,"velocity":0.7007874015748031,"duration":0.11875000000000568},{"name":"F#5","midi":78,"time":179.79583333333443,"velocity":0.6692913385826772,"duration":0.11875000000000568},{"name":"B3","midi":59,"time":179.79791666666776,"velocity":0.7637795275590551,"duration":0.11666666666667425},{"name":"C5","midi":72,"time":179.91666666666777,"velocity":0.7480314960629921,"duration":0.11875000000000568},{"name":"A3","midi":57,"time":179.91666666666777,"velocity":0.7637795275590551,"duration":0.11666666666667425},{"name":"B4","midi":71,"time":180.03541666666777,"velocity":0.7480314960629921,"duration":0.11875000000000568},{"name":"G#3","midi":56,"time":180.0375000000011,"velocity":0.7637795275590551,"duration":0.11666666666667425},{"name":"C5","midi":72,"time":180.1562500000011,"velocity":0.7480314960629921,"duration":0.11875000000000568},{"name":"A3","midi":57,"time":180.1562500000011,"velocity":0.7637795275590551,"duration":0.11875000000000568},{"name":"D5","midi":74,"time":180.2750000000011,"velocity":0.7007874015748031,"duration":0.12291666666666856},{"name":"F#3","midi":54,"time":180.27708333333445,"velocity":0.7637795275590551,"duration":0.11875000000000568},{"name":"B4","midi":71,"time":180.39791666666778,"velocity":0.7480314960629921,"duration":0.11875000000000568},{"name":"D#3","midi":51,"time":180.4000000000011,"velocity":0.7637795275590551,"duration":0.11666666666667425},{"name":"A4","midi":69,"time":180.51875000000112,"velocity":0.7480314960629921,"duration":0.11666666666667425},{"name":"F#3","midi":54,"time":180.51875000000112,"velocity":0.7637795275590551,"duration":0.11458333333334281},{"name":"G#4","midi":68,"time":180.6354166666678,"velocity":0.7480314960629921,"duration":0.23541666666667993},{"name":"B3","midi":59,"time":180.63750000000113,"velocity":0.7637795275590551,"duration":0.11458333333334281},{"name":"A3","midi":57,"time":180.75208333333447,"velocity":0.7637795275590551,"duration":0.11875000000000568},{"name":"E4","midi":64,"time":180.8729166666678,"velocity":0.7637795275590551,"duration":0.23541666666667993},{"name":"G#3","midi":56,"time":180.8729166666678,"velocity":0.7637795275590551,"duration":0.11458333333334281},{"name":"F#3","midi":54,"time":180.98958333333448,"velocity":0.7637795275590551,"duration":0.11666666666667425},{"name":"G#4","midi":68,"time":181.10833333333449,"velocity":0.7480314960629921,"duration":0.23750000000001137},{"name":"E3","midi":52,"time":181.11041666666782,"velocity":0.7637795275590551,"duration":0.11458333333334281},{"name":"D#3","midi":51,"time":181.22500000000116,"velocity":0.7637795275590551,"duration":0.12083333333333712},{"name":"B4","midi":71,"time":181.3458333333345,"velocity":0.7480314960629921,"duration":0.23541666666667993},{"name":"B3","midi":59,"time":181.34791666666783,"velocity":0.7637795275590551,"duration":0.11458333333334281},{"name":"A3","midi":57,"time":181.46250000000117,"velocity":0.7637795275590551,"duration":0.11875000000000568},{"name":"E5","midi":76,"time":181.5833333333345,"velocity":0.7007874015748031,"duration":0.23541666666667993},{"name":"G#3","midi":56,"time":181.5833333333345,"velocity":0.7637795275590551,"duration":0.11458333333334281},{"name":"F#3","midi":54,"time":181.70000000000118,"velocity":0.7637795275590551,"duration":0.11666666666667425},{"name":"G#4","midi":68,"time":181.8187500000012,"velocity":0.7480314960629921,"duration":0.23541666666667993},{"name":"E3","midi":52,"time":181.8187500000012,"velocity":0.7637795275590551,"duration":0.11666666666667425},{"name":"D3","midi":50,"time":181.93541666666786,"velocity":0.7637795275590551,"duration":0.11666666666667425},{"name":"E5","midi":76,"time":182.05416666666787,"velocity":0.7165354330708661,"duration":0.11458333333334281},{"name":"C#3","midi":49,"time":182.05416666666787,"velocity":0.7637795275590551,"duration":0.2333333333333485},{"name":"D5","midi":74,"time":182.17083333333454,"velocity":0.7165354330708661,"duration":0.11666666666667425},{"name":"C#5","midi":73,"time":182.28750000000122,"velocity":0.7637795275590551,"duration":0.11666666666667425},{"name":"A2","midi":45,"time":182.28958333333455,"velocity":0.7637795275590551,"duration":0.23541666666667993},{"name":"B4","midi":71,"time":182.40625000000122,"velocity":0.7637795275590551,"duration":0.11666666666667425},{"name":"A4","midi":69,"time":182.52500000000123,"velocity":0.7637795275590551,"duration":0.11458333333334281},{"name":"C#3","midi":49,"time":182.52500000000123,"velocity":0.7637795275590551,"duration":0.23125000000001705},{"name":"G#4","midi":68,"time":182.63958333333457,"velocity":0.7637795275590551,"duration":0.11458333333334281},{"name":"E5","midi":76,"time":182.75625000000124,"velocity":0.7165354330708661,"duration":0.11875000000000568},{"name":"E3","midi":52,"time":182.75833333333458,"velocity":0.7637795275590551,"duration":0.23750000000001137},{"name":"D5","midi":74,"time":182.87500000000125,"velocity":0.7165354330708661,"duration":0.12083333333333712},{"name":"C#5","midi":73,"time":182.99791666666792,"velocity":0.7637795275590551,"duration":0.11666666666667425},{"name":"A3","midi":57,"time":182.99791666666792,"velocity":0.7637795275590551,"duration":0.2395833333333428},{"name":"B4","midi":71,"time":183.11666666666792,"velocity":0.7637795275590551,"duration":0.12083333333333712},{"name":"A4","midi":69,"time":183.2395833333346,"velocity":0.7637795275590551,"duration":0.11875000000000568},{"name":"C#3","midi":49,"time":183.2395833333346,"velocity":0.7637795275590551,"duration":0.2395833333333428},{"name":"G4","midi":67,"time":183.36041666666793,"velocity":0.7637795275590551,"duration":0.11875000000000568},{"name":"A3","midi":57,"time":183.48125000000127,"velocity":0.7637795275590551,"duration":0.11458333333334281},{"name":"F#4","midi":66,"time":183.48125000000127,"velocity":0.7637795275590551,"duration":0.22916666666668561},{"name":"G3","midi":55,"time":183.5958333333346,"velocity":0.7637795275590551,"duration":0.11250000000001137},{"name":"D4","midi":62,"time":183.71041666666795,"velocity":0.7637795275590551,"duration":0.23750000000001137},{"name":"F#3","midi":54,"time":183.71250000000128,"velocity":0.7637795275590551,"duration":0.11458333333334281},{"name":"E3","midi":52,"time":183.82708333333463,"velocity":0.7637795275590551,"duration":0.12083333333333712},{"name":"D3","midi":50,"time":183.9500000000013,"velocity":0.7637795275590551,"duration":0.11458333333334281},{"name":"F#4","midi":66,"time":183.9500000000013,"velocity":0.7637795275590551,"duration":0.23541666666667993},{"name":"C#3","midi":49,"time":184.06666666666797,"velocity":0.7637795275590551,"duration":0.11666666666667425},{"name":"A4","midi":69,"time":184.18541666666798,"velocity":0.7637795275590551,"duration":0.23125000000001705},{"name":"A3","midi":57,"time":184.1875000000013,"velocity":0.7637795275590551,"duration":0.11250000000001137},{"name":"G3","midi":55,"time":184.30000000000132,"velocity":0.7637795275590551,"duration":0.11458333333334281},{"name":"D5","midi":74,"time":184.416666666668,"velocity":0.7165354330708661,"duration":0.23125000000001705},{"name":"F#3","midi":54,"time":184.41875000000132,"velocity":0.7637795275590551,"duration":0.11250000000001137},{"name":"E3","midi":52,"time":184.53125000000134,"velocity":0.7637795275590551,"duration":0.11666666666667425},{"name":"F#4","midi":66,"time":184.65000000000134,"velocity":0.7637795275590551,"duration":0.22916666666668561},{"name":"D3","midi":50,"time":184.65000000000134,"velocity":0.7637795275590551,"duration":0.11250000000001137},{"name":"C3","midi":48,"time":184.76458333333468,"velocity":0.7637795275590551,"duration":0.11458333333334281},{"name":"D5","midi":74,"time":184.88125000000136,"velocity":0.7165354330708661,"duration":0.11666666666667425},{"name":"B2","midi":47,"time":184.88125000000136,"velocity":0.7637795275590551,"duration":0.23541666666667993},{"name":"C5","midi":72,"time":184.99791666666803,"velocity":0.7637795275590551,"duration":0.11666666666667425},{"name":"B4","midi":71,"time":185.11666666666804,"velocity":0.7637795275590551,"duration":0.11458333333334281},{"name":"G2","midi":43,"time":185.11875000000137,"velocity":0.7637795275590551,"duration":0.22708333333335418},{"name":"A4","midi":69,"time":185.23125000000138,"velocity":0.7637795275590551,"duration":0.11458333333334281},{"name":"G4","midi":67,"time":185.34791666666806,"velocity":0.7637795275590551,"duration":0.11041666666667993},{"name":"B2","midi":47,"time":185.34791666666806,"velocity":0.7637795275590551,"duration":0.22708333333335418},{"name":"F#4","midi":66,"time":185.46041666666807,"velocity":0.7637795275590551,"duration":0.11250000000001137},{"name":"D5","midi":74,"time":185.5750000000014,"velocity":0.7165354330708661,"duration":0.11458333333334281},{"name":"D3","midi":50,"time":185.5750000000014,"velocity":0.7637795275590551,"duration":0.23125000000001705},{"name":"C5","midi":72,"time":185.68958333333475,"velocity":0.7637795275590551,"duration":0.11458333333334281},{"name":"B4","midi":71,"time":185.80625000000143,"velocity":0.7637795275590551,"duration":0.11458333333334281},{"name":"G3","midi":55,"time":185.80833333333476,"velocity":0.7637795275590551,"duration":0.22916666666668561},{"name":"A4","midi":69,"time":185.9229166666681,"velocity":0.7637795275590551,"duration":0.11458333333334281},{"name":"G4","midi":67,"time":186.03958333333478,"velocity":0.7637795275590551,"duration":0.11458333333334281},{"name":"B2","midi":47,"time":186.03958333333478,"velocity":0.7637795275590551,"duration":0.2333333333333485},{"name":"F#4","midi":66,"time":186.15625000000145,"velocity":0.7637795275590551,"duration":0.11666666666667425},{"name":"B4","midi":71,"time":186.27500000000146,"velocity":0.7637795275590551,"duration":0.11666666666667425},{"name":"B3","midi":59,"time":186.27500000000146,"velocity":0.7637795275590551,"duration":0.11458333333334281},{"name":"A4","midi":69,"time":186.39166666666813,"velocity":0.7637795275590551,"duration":0.11875000000000568},{"name":"A3","midi":57,"time":186.39166666666813,"velocity":0.7637795275590551,"duration":0.11875000000000568},{"name":"G4","midi":67,"time":186.51041666666814,"velocity":0.7637795275590551,"duration":0.11875000000000568},{"name":"G3","midi":55,"time":186.51250000000147,"velocity":0.7637795275590551,"duration":0.11458333333334281},{"name":"F#4","midi":66,"time":186.62916666666814,"velocity":0.7637795275590551,"duration":0.11875000000000568},{"name":"F#3","midi":54,"time":186.62916666666814,"velocity":0.7637795275590551,"duration":0.11666666666667425},{"name":"E4","midi":64,"time":186.74791666666815,"velocity":0.7637795275590551,"duration":0.11666666666667425},{"name":"E3","midi":52,"time":186.75000000000148,"velocity":0.7637795275590551,"duration":0.11458333333334281},{"name":"D#4","midi":63,"time":186.86666666666815,"velocity":0.7637795275590551,"duration":0.11458333333334281},{"name":"D#3","midi":51,"time":186.86666666666815,"velocity":0.7637795275590551,"duration":0.11458333333334281},{"name":"B4","midi":71,"time":186.98333333333483,"velocity":0.7637795275590551,"duration":0.11666666666667425},{"name":"B3","midi":59,"time":186.98333333333483,"velocity":0.7637795275590551,"duration":0.11666666666667425},{"name":"A4","midi":69,"time":187.1000000000015,"velocity":0.7637795275590551,"duration":0.11875000000000568},{"name":"A3","midi":57,"time":187.10208333333483,"velocity":0.7637795275590551,"duration":0.11666666666667425},{"name":"G4","midi":67,"time":187.22083333333484,"velocity":0.7637795275590551,"duration":0.11666666666667425},{"name":"G3","midi":55,"time":187.22083333333484,"velocity":0.7637795275590551,"duration":0.11458333333334281},{"name":"F#4","midi":66,"time":187.3375000000015,"velocity":0.7637795275590551,"duration":0.11666666666667425},{"name":"F#3","midi":54,"time":187.33958333333484,"velocity":0.7637795275590551,"duration":0.11458333333334281},{"name":"E3","midi":52,"time":187.45625000000152,"velocity":0.7637795275590551,"duration":0.11666666666667425},{"name":"E4","midi":64,"time":187.45625000000152,"velocity":0.7637795275590551,"duration":0.11666666666667425},{"name":"D#4","midi":63,"time":187.57500000000152,"velocity":0.7637795275590551,"duration":0.11666666666667425},{"name":"D#3","midi":51,"time":187.57500000000152,"velocity":0.7637795275590551,"duration":0.11458333333334281},{"name":"E4","midi":64,"time":187.6916666666682,"velocity":0.7637795275590551,"duration":0.11666666666667425},{"name":"E3","midi":52,"time":187.69375000000153,"velocity":0.7637795275590551,"duration":0.11458333333334281},{"name":"G4","midi":67,"time":187.8104166666682,"velocity":0.7637795275590551,"duration":0.11666666666667425},{"name":"B2","midi":47,"time":187.8104166666682,"velocity":0.7637795275590551,"duration":0.11458333333334281},{"name":"B4","midi":71,"time":187.92708333333488,"velocity":0.7480314960629921,"duration":0.11875000000000568},{"name":"G2","midi":43,"time":187.9291666666682,"velocity":0.7637795275590551,"duration":0.11458333333334281},{"name":"E5","midi":76,"time":188.04583333333488,"velocity":0.7007874015748031,"duration":0.11666666666667425},{"name":"E2","midi":40,"time":188.04791666666821,"velocity":0.7637795275590551,"duration":0.11458333333334281},{"name":"D#5","midi":75,"time":188.1645833333349,"velocity":0.7007874015748031,"duration":0.11458333333334281},{"name":"E5","midi":76,"time":188.28125000000156,"velocity":0.7007874015748031,"duration":0.11875000000000568},{"name":"B3","midi":59,"time":188.28125000000156,"velocity":0.7637795275590551,"duration":0.11666666666667425},{"name":"D5","midi":74,"time":188.40000000000157,"velocity":0.7007874015748031,"duration":0.11458333333334281},{"name":"C4","midi":60,"time":188.40000000000157,"velocity":0.7637795275590551,"duration":0.11458333333334281},{"name":"E5","midi":76,"time":188.51666666666824,"velocity":0.7007874015748031,"duration":0.11666666666667425},{"name":"B3","midi":59,"time":188.51666666666824,"velocity":0.7637795275590551,"duration":0.11458333333334281},{"name":"C#5","midi":73,"time":188.63333333333492,"velocity":0.7480314960629921,"duration":0.11666666666667425},{"name":"A3","midi":57,"time":188.63541666666825,"velocity":0.7637795275590551,"duration":0.11458333333334281},{"name":"E5","midi":76,"time":188.75208333333492,"velocity":0.7007874015748031,"duration":0.11666666666667425},{"name":"G3","midi":55,"time":188.75208333333492,"velocity":0.7637795275590551,"duration":0.11666666666667425},{"name":"C5","midi":72,"time":188.87083333333493,"velocity":0.7480314960629921,"duration":0.11666666666667425},{"name":"A3","midi":57,"time":188.87083333333493,"velocity":0.7637795275590551,"duration":0.11458333333334281},{"name":"E5","midi":76,"time":188.9875000000016,"velocity":0.7007874015748031,"duration":0.11666666666667425},{"name":"F#3","midi":54,"time":188.98958333333493,"velocity":0.7637795275590551,"duration":0.11458333333334281},{"name":"B4","midi":71,"time":189.1062500000016,"velocity":0.7480314960629921,"duration":0.11041666666667993},{"name":"G3","midi":55,"time":189.1062500000016,"velocity":0.7637795275590551,"duration":0.11041666666667993},{"name":"A4","midi":69,"time":189.21875000000162,"velocity":0.7637795275590551,"duration":0.11666666666667425},{"name":"F#3","midi":54,"time":189.21875000000162,"velocity":0.7637795275590551,"duration":0.11458333333334281},{"name":"G4","midi":67,"time":189.3354166666683,"velocity":0.7637795275590551,"duration":0.11458333333334281},{"name":"E3","midi":52,"time":189.33750000000163,"velocity":0.7637795275590551,"duration":0.11250000000001137},{"name":"C5","midi":72,"time":189.45208333333497,"velocity":0.7480314960629921,"duration":0.11666666666667425},{"name":"E4","midi":64,"time":189.45208333333497,"velocity":0.7637795275590551,"duration":0.11666666666667425},{"name":"B4","midi":71,"time":189.57083333333497,"velocity":0.7480314960629921,"duration":0.11875000000000568},{"name":"D#4","midi":63,"time":189.57083333333497,"velocity":0.7637795275590551,"duration":0.11666666666667425},{"name":"A4","midi":69,"time":189.68958333333498,"velocity":0.7637795275590551,"duration":0.11875000000000568},{"name":"E4","midi":64,"time":189.6916666666683,"velocity":0.7637795275590551,"duration":0.11666666666667425},{"name":"B4","midi":71,"time":189.81041666666832,"velocity":0.7480314960629921,"duration":0.11875000000000568},{"name":"D4","midi":62,"time":189.81041666666832,"velocity":0.7637795275590551,"duration":0.11666666666667425},{"name":"G#4","midi":68,"time":189.92916666666832,"velocity":0.7637795275590551,"duration":0.12083333333333712},{"name":"E4","midi":64,"time":189.93125000000165,"velocity":0.7637795275590551,"duration":0.11875000000000568},{"name":"A4","midi":69,"time":190.052083333335,"velocity":0.7637795275590551,"duration":0.11875000000000568},{"name":"C#4","midi":61,"time":190.052083333335,"velocity":0.7637795275590551,"duration":0.11875000000000568},{"name":"G4","midi":67,"time":190.17291666666833,"velocity":0.7637795275590551,"duration":0.12083333333333712},{"name":"E4","midi":64,"time":190.17291666666833,"velocity":0.7637795275590551,"duration":0.11875000000000568},{"name":"A4","midi":69,"time":190.29375000000167,"velocity":0.7637795275590551,"duration":0.12083333333333712},{"name":"C4","midi":60,"time":190.295833333335,"velocity":0.7637795275590551,"duration":0.11875000000000568},{"name":"E4","midi":64,"time":190.41666666666833,"velocity":0.7637795275590551,"duration":0.11666666666667425},{"name":"F#4","midi":66,"time":190.41666666666833,"velocity":0.7637795275590551,"duration":0.11875000000000568},{"name":"G4","midi":67,"time":190.53541666666834,"velocity":0.7637795275590551,"duration":0.12291666666666856},{"name":"B3","midi":59,"time":190.53750000000167,"velocity":0.7637795275590551,"duration":0.24375000000000568},{"name":"F#4","midi":66,"time":190.658333333335,"velocity":0.7637795275590551,"duration":0.12083333333333712},{"name":"G4","midi":67,"time":190.78125000000168,"velocity":0.7637795275590551,"duration":0.12291666666666856},{"name":"A3","midi":57,"time":190.783333333335,"velocity":0.7637795275590551,"duration":0.24583333333333712},{"name":"A4","midi":69,"time":190.90416666666835,"velocity":0.7637795275590551,"duration":0.12291666666666856},{"name":"D#4","midi":63,"time":191.02916666666835,"velocity":0.7637795275590551,"duration":0.12708333333333144},{"name":"B3","midi":59,"time":191.03125000000168,"velocity":0.7637795275590551,"duration":0.2541666666666629},{"name":"F#4","midi":66,"time":191.15625000000168,"velocity":0.7637795275590551,"duration":0.12708333333333144},{"name":"C4","midi":60,"time":191.28541666666834,"velocity":0.7637795275590551,"duration":0.13958333333332007},{"name":"B3","midi":59,"time":191.42500000000166,"velocity":0.7637795275590551,"duration":0.13749999999998863},{"name":"C4","midi":60,"time":191.56250000000165,"velocity":0.7637795275590551,"duration":0.14791666666667425},{"name":"B2","midi":47,"time":191.56458333333498,"velocity":0.7637795275590551,"duration":0.31041666666666856},{"name":"D4","midi":62,"time":191.71250000000165,"velocity":0.7637795275590551,"duration":0.16249999999999432},{"name":"B3","midi":59,"time":191.87708333333498,"velocity":0.7637795275590551,"duration":0.18125000000000568},{"name":"A3","midi":57,"time":192.06041666666832,"velocity":0.7637795275590551,"duration":0.3166666666666629},{"name":"G#3","midi":56,"time":192.37708333333498,"velocity":0.7637795275590551,"duration":0.09791666666666288},{"name":"E2","midi":40,"time":192.3791666666683,"velocity":0.7637795275590551,"duration":1.1500000000000057},{"name":"B3","midi":59,"time":192.47500000000164,"velocity":0.7637795275590551,"duration":0.09583333333333144},{"name":"E4","midi":64,"time":192.5729166666683,"velocity":0.7637795275590551,"duration":1.0708333333333542}],"controlChanges":{"7":[{"number":7,"time":0,"value":0.7874015748031497},{"number":7,"time":0,"value":0.8661417322834646},{"number":7,"time":0,"value":0.8661417322834646}],"10":[{"number":10,"time":0,"value":0.49606299212598426},{"number":10,"time":0,"value":0.3779527559055118},{"number":10,"time":0,"value":0.3700787401574803},{"number":10,"time":4.641666666666667,"value":0.47244094488188976},{"number":10,"time":4.6625,"value":0.6220472440944882},{"number":10,"time":4.69375,"value":0.5275590551181102},{"number":10,"time":4.71875,"value":0.5905511811023622},{"number":10,"time":4.75,"value":0.4566929133858268},{"number":10,"time":4.76875,"value":0.5826771653543307},{"number":10,"time":4.76875,"value":0.5196850393700787},{"number":10,"time":4.79375,"value":0.4330708661417323},{"number":10,"time":4.829166666666667,"value":0.4645669291338583}],"64":[{"number":64,"time":199.29166666666833,"value":0},{"number":64,"time":199.29166666666833,"value":0},{"number":64,"time":199.295833333335,"value":0},{"number":64,"time":199.34375000000168,"value":0},{"number":64,"time":199.345833333335,"value":0},{"number":64,"time":199.34791666666834,"value":0}]},"id":0,"name":"--------","instrumentNumber":0,"instrument":"acoustic grand piano","instrumentFamily":"piano","channelNumber":0,"isPercussion":false}]}