{"header":{"PPQ":240,"timeSignature":[1,4],"bpm":120,"name":""},"startTime":5.1104166666666675,"duration":229.06250000000003,"tracks":[{"startTime":5.1104166666666675,"duration":229.06250000000003,"length":3021,"notes":[{"name":"A4","midi":69,"time":5.1104166666666675,"velocity":0.5669291338582677,"duration":0.11458333333333304},{"name":"A2","midi":45,"time":5.1104166666666675,"velocity":0.5669291338582677,"duration":0.6874999999999991},{"name":"B4","midi":71,"time":5.227083333333334,"velocity":0.5669291338582677,"duration":0.11249999999999982},{"name":"C5","midi":72,"time":5.341666666666667,"velocity":0.5669291338582677,"duration":0.22916666666666696},{"name":"E5","midi":76,"time":5.570833333333334,"velocity":0.5669291338582677,"duration":0.22499999999999964},{"name":"C5","midi":72,"time":5.797916666666667,"velocity":0.5669291338582677,"duration":0.22708333333333286},{"name":"A3","midi":57,"time":5.8,"velocity":0.5669291338582677,"duration":0.10833333333333339},{"name":"G#3","midi":56,"time":5.908333333333333,"velocity":0.5669291338582677,"duration":0.11666666666666625},{"name":"A4","midi":69,"time":6.0249999999999995,"velocity":0.5669291338582677,"duration":0.2312499999999993},{"name":"A3","midi":57,"time":6.027083333333333,"velocity":0.5669291338582677,"duration":0.11249999999999982},{"name":"G#3","midi":56,"time":6.141666666666666,"velocity":0.5669291338582677,"duration":0.11458333333333304},{"name":"E4","midi":64,"time":6.258333333333332,"velocity":0.5669291338582677,"duration":0.22916666666666607},{"name":"A3","midi":57,"time":6.258333333333332,"velocity":0.5669291338582677,"duration":0.11458333333333304},{"name":"G#3","midi":56,"time":6.372916666666665,"velocity":0.5669291338582677,"duration":0.11249999999999982},{"name":"A4","midi":69,"time":6.487499999999998,"velocity":0.5669291338582677,"duration":0.22916666666666696},{"name":"A3","midi":57,"time":6.489583333333331,"velocity":0.5669291338582677,"duration":0.22708333333333375},{"name":"C5","midi":72,"time":6.718749999999998,"velocity":0.5669291338582677,"duration":0.23125000000000018},{"name":"E3","midi":52,"time":6.718749999999998,"velocity":0.5669291338582677,"duration":0.22916666666666696},{"name":"E5","midi":76,"time":6.949999999999998,"velocity":0.5669291338582677,"duration":0.2333333333333334},{"name":"C3","midi":48,"time":6.949999999999998,"velocity":0.5669291338582677,"duration":0.2333333333333334},{"name":"B4","midi":71,"time":7.183333333333332,"velocity":0.5669291338582677,"duration":0.11249999999999982},{"name":"A2","midi":45,"time":7.185416666666665,"velocity":0.5669291338582677,"duration":0.6854166666666668},{"name":"C5","midi":72,"time":7.297916666666665,"velocity":0.5669291338582677,"duration":0.11249999999999982},{"name":"D5","midi":74,"time":7.412499999999998,"velocity":0.5669291338582677,"duration":0.22916666666666696},{"name":"F5","midi":77,"time":7.641666666666665,"velocity":0.5669291338582677,"duration":0.22708333333333375},{"name":"D5","midi":74,"time":7.870833333333332,"velocity":0.5669291338582677,"duration":0.22499999999999964},{"name":"A3","midi":57,"time":7.872916666666665,"velocity":0.5669291338582677,"duration":0.11041666666666661},{"name":"G#3","midi":56,"time":7.983333333333332,"velocity":0.5669291338582677,"duration":0.11249999999999982},{"name":"B4","midi":71,"time":8.097916666666665,"velocity":0.5669291338582677,"duration":0.22708333333333464},{"name":"A3","midi":57,"time":8.097916666666665,"velocity":0.5669291338582677,"duration":0.1104166666666675},{"name":"G#3","midi":56,"time":8.210416666666665,"velocity":0.5669291338582677,"duration":0.11250000000000071},{"name":"G#4","midi":68,"time":8.325,"velocity":0.5669291338582677,"duration":0.22708333333333464},{"name":"A3","midi":57,"time":8.325,"velocity":0.5669291338582677,"duration":0.11250000000000071},{"name":"G#3","midi":56,"time":8.4375,"velocity":0.5669291338582677,"duration":0.11250000000000071},{"name":"B4","midi":71,"time":8.552083333333334,"velocity":0.5669291338582677,"duration":0.22916666666666607},{"name":"A3","midi":57,"time":8.554166666666667,"velocity":0.5669291338582677,"duration":0.22708333333333286},{"name":"D5","midi":74,"time":8.783333333333333,"velocity":0.5669291338582677,"duration":0.22916666666666607},{"name":"F3","midi":53,"time":8.783333333333333,"velocity":0.5669291338582677,"duration":0.22708333333333286},{"name":"F5","midi":77,"time":9.0125,"velocity":0.5669291338582677,"duration":0.22916666666666607},{"name":"D3","midi":50,"time":9.014583333333333,"velocity":0.5669291338582677,"duration":0.22708333333333286},{"name":"D5","midi":74,"time":9.243749999999999,"velocity":0.5669291338582677,"duration":0.11250000000000071},{"name":"A2","midi":45,"time":9.243749999999999,"velocity":0.5669291338582677,"duration":0.6812500000000004},{"name":"E5","midi":76,"time":9.358333333333333,"velocity":0.5669291338582677,"duration":0.1104166666666675},{"name":"F5","midi":77,"time":9.470833333333333,"velocity":0.5669291338582677,"duration":0.22708333333333286},{"name":"G#5","midi":80,"time":9.697916666666666,"velocity":0.5669291338582677,"duration":0.22499999999999964},{"name":"F5","midi":77,"time":9.924999999999999,"velocity":0.5669291338582677,"duration":0.22500000000000142},{"name":"A3","midi":57,"time":9.924999999999999,"velocity":0.5669291338582677,"duration":0.11250000000000071},{"name":"G#3","midi":56,"time":10.0375,"velocity":0.5669291338582677,"duration":0.11250000000000071},{"name":"D5","midi":74,"time":10.15,"velocity":0.5669291338582677,"duration":0.22499999999999964},{"name":"A3","midi":57,"time":10.152083333333334,"velocity":0.5669291338582677,"duration":0.1083333333333325},{"name":"G#3","midi":56,"time":10.2625,"velocity":0.5669291338582677,"duration":0.11250000000000071},{"name":"B4","midi":71,"time":10.377083333333333,"velocity":0.5669291338582677,"duration":0.2229166666666682},{"name":"A3","midi":57,"time":10.377083333333333,"velocity":0.5669291338582677,"duration":0.1104166666666675},{"name":"G#3","midi":56,"time":10.4875,"velocity":0.5669291338582677,"duration":0.11250000000000071},{"name":"D5","midi":74,"time":10.600000000000001,"velocity":0.5669291338582677,"duration":0.22499999999999964},{"name":"A3","midi":57,"time":10.602083333333335,"velocity":0.5669291338582677,"duration":0.22291666666666643},{"name":"F5","midi":77,"time":10.827083333333334,"velocity":0.5669291338582677,"duration":0.22708333333333286},{"name":"F3","midi":53,"time":10.827083333333334,"velocity":0.5669291338582677,"duration":0.22499999999999964},{"name":"G#5","midi":80,"time":11.054166666666667,"velocity":0.5669291338582677,"duration":0.22708333333333286},{"name":"D3","midi":50,"time":11.05625,"velocity":0.5669291338582677,"duration":0.22499999999999964},{"name":"A5","midi":81,"time":11.283333333333333,"velocity":0.5669291338582677,"duration":0.21458333333333357},{"name":"A2","midi":45,"time":11.283333333333333,"velocity":0.5669291338582677,"duration":0.6499999999999968},{"name":"G5","midi":79,"time":11.497916666666667,"velocity":0.5669291338582677,"duration":0.10624999999999929},{"name":"F5","midi":77,"time":11.60625,"velocity":0.5669291338582677,"duration":0.1083333333333325},{"name":"E5","midi":76,"time":11.716666666666665,"velocity":0.5669291338582677,"duration":0.10624999999999929},{"name":"D5","midi":74,"time":11.824999999999998,"velocity":0.5669291338582677,"duration":0.1083333333333325},{"name":"C5","midi":72,"time":11.935416666666663,"velocity":0.5669291338582677,"duration":0.22083333333333321},{"name":"A4","midi":69,"time":12.156249999999996,"velocity":0.5826771653543307,"duration":0.22083333333333321},{"name":"E4","midi":64,"time":12.379166666666663,"velocity":0.5669291338582677,"duration":0.22083333333333321},{"name":"C4","midi":60,"time":12.599999999999996,"velocity":0.5669291338582677,"duration":0.22499999999999964},{"name":"A3","midi":57,"time":12.824999999999996,"velocity":0.5669291338582677,"duration":0.22083333333333321},{"name":"D#4","midi":63,"time":13.047916666666662,"velocity":0.5669291338582677,"duration":0.22083333333333321},{"name":"G5","midi":79,"time":13.268749999999995,"velocity":0.4409448818897638,"duration":0.6624999999999979},{"name":"E3","midi":52,"time":13.270833333333329,"velocity":0.5669291338582677,"duration":0.10624999999999929},{"name":"E5","midi":76,"time":13.272916666666662,"velocity":0.4409448818897638,"duration":0.6479166666666654},{"name":"B4","midi":71,"time":13.272916666666662,"velocity":0.4409448818897638,"duration":0.6604166666666647},{"name":"F#3","midi":54,"time":13.379166666666661,"velocity":0.5669291338582677,"duration":0.1083333333333325},{"name":"G3","midi":55,"time":13.489583333333327,"velocity":0.5669291338582677,"duration":0.21875},{"name":"B3","midi":59,"time":13.708333333333327,"velocity":0.5669291338582677,"duration":0.22083333333333321},{"name":"E5","midi":76,"time":13.931249999999993,"velocity":0.5826771653543307,"duration":0.1083333333333325},{"name":"G3","midi":55,"time":13.933333333333326,"velocity":0.5669291338582677,"duration":0.216666666666665},{"name":"D#5","midi":75,"time":14.041666666666659,"velocity":0.5826771653543307,"duration":0.1083333333333325},{"name":"E5","midi":76,"time":14.152083333333325,"velocity":0.5826771653543307,"duration":0.1083333333333325},{"name":"E3","midi":52,"time":14.152083333333325,"velocity":0.5669291338582677,"duration":0.22083333333333321},{"name":"D#5","midi":75,"time":14.260416666666657,"velocity":0.5826771653543307,"duration":0.11250000000000071},{"name":"E5","midi":76,"time":14.374999999999991,"velocity":0.5826771653543307,"duration":0.1083333333333325},{"name":"B2","midi":47,"time":14.374999999999991,"velocity":0.5669291338582677,"duration":0.22291666666666643},{"name":"D#5","midi":75,"time":14.485416666666657,"velocity":0.5826771653543307,"duration":0.1104166666666675},{"name":"E5","midi":76,"time":14.597916666666658,"velocity":0.5826771653543307,"duration":0.1083333333333325},{"name":"E3","midi":52,"time":14.59999999999999,"velocity":0.5669291338582677,"duration":0.21875},{"name":"B4","midi":71,"time":14.70624999999999,"velocity":0.5826771653543307,"duration":0.11250000000000071},{"name":"A4","midi":69,"time":14.820833333333324,"velocity":0.5826771653543307,"duration":0.1083333333333325},{"name":"G3","midi":55,"time":14.820833333333324,"velocity":0.5669291338582677,"duration":0.22499999999999964},{"name":"G4","midi":67,"time":14.93124999999999,"velocity":0.5669291338582677,"duration":0.11250000000000071},{"name":"F#4","midi":66,"time":15.045833333333324,"velocity":0.5669291338582677,"duration":0.11041666666666572},{"name":"B3","midi":59,"time":15.047916666666657,"velocity":0.5669291338582677,"duration":0.22291666666666643},{"name":"E4","midi":64,"time":15.15624999999999,"velocity":0.5669291338582677,"duration":0.7916666666666661},{"name":"C5","midi":72,"time":15.270833333333323,"velocity":0.5196850393700787,"duration":0.7874999999999996},{"name":"F#3","midi":54,"time":15.272916666666656,"velocity":0.5669291338582677,"duration":0.1083333333333325},{"name":"A4","midi":69,"time":15.27499999999999,"velocity":0.5196850393700787,"duration":0.6749999999999989},{"name":"G3","midi":55,"time":15.383333333333322,"velocity":0.5669291338582677,"duration":0.1104166666666675},{"name":"A3","midi":57,"time":15.495833333333323,"velocity":0.5669291338582677,"duration":0.22499999999999964},{"name":"C4","midi":60,"time":15.720833333333323,"velocity":0.5669291338582677,"duration":0.22499999999999964},{"name":"A3","midi":57,"time":15.947916666666655,"velocity":0.5669291338582677,"duration":0.22708333333333464},{"name":"B4","midi":71,"time":16.058333333333323,"velocity":0.5826771653543307,"duration":0.125},{"name":"C5","midi":72,"time":16.17499999999999,"velocity":0.5826771653543307,"duration":0.11874999999999858},{"name":"F#3","midi":54,"time":16.17499999999999,"velocity":0.5669291338582677,"duration":0.22499999999999787},{"name":"B4","midi":71,"time":16.285416666666656,"velocity":0.5826771653543307,"duration":0.12291666666666501},{"name":"C5","midi":72,"time":16.399999999999988,"velocity":0.5826771653543307,"duration":0.11041666666666572},{"name":"D#3","midi":51,"time":16.399999999999988,"velocity":0.5669291338582677,"duration":0.22499999999999787},{"name":"B4","midi":71,"time":16.510416666666654,"velocity":0.5826771653543307,"duration":0.11458333333333215},{"name":"C5","midi":72,"time":16.624999999999986,"velocity":0.5826771653543307,"duration":0.11250000000000071},{"name":"F#3","midi":54,"time":16.62708333333332,"velocity":0.5669291338582677,"duration":0.22500000000000142},{"name":"G5","midi":79,"time":16.73958333333332,"velocity":0.5590551181102362,"duration":0.11250000000000071},{"name":"F#5","midi":78,"time":16.854166666666657,"velocity":0.5590551181102362,"duration":0.11250000000000071},{"name":"A3","midi":57,"time":16.854166666666657,"velocity":0.5669291338582677,"duration":0.2270833333333364},{"name":"E5","midi":76,"time":16.966666666666658,"velocity":0.5590551181102362,"duration":0.11250000000000071},{"name":"D#5","midi":75,"time":17.081249999999994,"velocity":0.5826771653543307,"duration":0.11250000000000071},{"name":"C4","midi":60,"time":17.08333333333333,"velocity":0.5669291338582677,"duration":0.22500000000000142},{"name":"E5","midi":76,"time":17.193749999999994,"velocity":0.5590551181102362,"duration":0.11250000000000071},{"name":"A3","midi":57,"time":17.30833333333333,"velocity":0.5669291338582677,"duration":0.11041666666666927},{"name":"A4","midi":69,"time":17.310416666666665,"velocity":0.5118110236220472,"duration":0.6708333333333378},{"name":"F#4","midi":66,"time":17.310416666666665,"velocity":0.5669291338582677,"duration":0.6708333333333378},{"name":"C5","midi":72,"time":17.318749999999998,"velocity":0.5118110236220472,"duration":0.6708333333333378},{"name":"D#5","midi":75,"time":17.325,"velocity":0.5118110236220472,"duration":0.783333333333335},{"name":"B3","midi":59,"time":17.420833333333334,"velocity":0.5669291338582677,"duration":0.11041666666666572},{"name":"C4","midi":60,"time":17.53125,"velocity":0.5669291338582677,"duration":0.22291666666666643},{"name":"D#4","midi":63,"time":17.75625,"velocity":0.5669291338582677,"duration":0.22291666666666643},{"name":"C4","midi":60,"time":17.979166666666668,"velocity":0.5669291338582677,"duration":0.22500000000000142},{"name":"E5","midi":76,"time":18.09166666666667,"velocity":0.5354330708661418,"duration":0.11041666666666572},{"name":"F#5","midi":78,"time":18.20416666666667,"velocity":0.5354330708661418,"duration":0.11041666666666927},{"name":"A3","midi":57,"time":18.206250000000004,"velocity":0.5669291338582677,"duration":0.220833333333335},{"name":"E5","midi":76,"time":18.316666666666674,"velocity":0.5354330708661418,"duration":0.11041666666666572},{"name":"F#5","midi":78,"time":18.429166666666674,"velocity":0.5354330708661418,"duration":0.11041666666666572},{"name":"F#3","midi":54,"time":18.429166666666674,"velocity":0.5669291338582677,"duration":0.22291666666666643},{"name":"E5","midi":76,"time":18.53958333333334,"velocity":0.5354330708661418,"duration":0.11041666666666572},{"name":"F#5","midi":78,"time":18.65208333333334,"velocity":0.5354330708661418,"duration":0.11041666666666927},{"name":"A3","midi":57,"time":18.654166666666676,"velocity":0.5669291338582677,"duration":0.220833333333335},{"name":"E5","midi":76,"time":18.764583333333345,"velocity":0.5354330708661418,"duration":0.11041666666666572},{"name":"D#5","midi":75,"time":18.877083333333346,"velocity":0.5590551181102362,"duration":0.11041666666666572},{"name":"C4","midi":60,"time":18.877083333333346,"velocity":0.5669291338582677,"duration":0.22291666666666643},{"name":"F#5","midi":78,"time":18.98750000000001,"velocity":0.5354330708661418,"duration":0.11250000000000071},{"name":"B4","midi":71,"time":19.100000000000012,"velocity":0.5826771653543307,"duration":0.11041666666666927},{"name":"D#4","midi":63,"time":19.102083333333347,"velocity":0.5669291338582677,"duration":0.22291666666666998},{"name":"A4","midi":69,"time":19.212500000000016,"velocity":0.5826771653543307,"duration":0.11041666666666572},{"name":"E4","midi":64,"time":19.325000000000017,"velocity":0.5669291338582677,"duration":0.220833333333335},{"name":"G4","midi":67,"time":19.327083333333352,"velocity":0.5669291338582677,"duration":0.885416666666675},{"name":"E3","midi":52,"time":19.545833333333352,"velocity":0.5669291338582677,"duration":0.10833333333333428},{"name":"F#3","midi":54,"time":19.65625000000002,"velocity":0.5669291338582677,"duration":0.11041666666666572},{"name":"G3","midi":55,"time":19.768750000000022,"velocity":0.5669291338582677,"duration":0.10833333333333428},{"name":"A3","midi":57,"time":19.877083333333356,"velocity":0.5669291338582677,"duration":0.11250000000000071},{"name":"B3","midi":59,"time":19.989583333333357,"velocity":0.5669291338582677,"duration":0.220833333333335},{"name":"E4","midi":64,"time":20.212500000000027,"velocity":0.5669291338582677,"duration":0.220833333333335},{"name":"G4","midi":67,"time":20.433333333333362,"velocity":0.5669291338582677,"duration":0.220833333333335},{"name":"B4","midi":71,"time":20.656250000000032,"velocity":0.5826771653543307,"duration":0.220833333333335},{"name":"E5","midi":76,"time":20.877083333333367,"velocity":0.5826771653543307,"duration":0.22291666666666643},{"name":"A#4","midi":70,"time":21.10208333333337,"velocity":0.5826771653543307,"duration":0.220833333333335},{"name":"E4","midi":64,"time":21.32500000000004,"velocity":0.5669291338582677,"duration":0.11041666666666927},{"name":"B4","midi":71,"time":21.327083333333373,"velocity":0.4409448818897638,"duration":0.6687500000000028},{"name":"E5","midi":76,"time":21.335416666666706,"velocity":0.4409448818897638,"duration":0.6708333333333378},{"name":"G5","midi":79,"time":21.341666666666708,"velocity":0.4409448818897638,"duration":0.7687500000000043},{"name":"F#4","midi":66,"time":21.435416666666708,"velocity":0.5669291338582677,"duration":0.11250000000000071},{"name":"G4","midi":67,"time":21.54791666666671,"velocity":0.5669291338582677,"duration":0.22500000000000142},{"name":"B4","midi":71,"time":21.77291666666671,"velocity":0.5826771653543307,"duration":0.22500000000000142},{"name":"G4","midi":67,"time":21.99791666666671,"velocity":0.5669291338582677,"duration":0.220833333333335},{"name":"F#5","midi":78,"time":22.108333333333377,"velocity":0.5354330708661418,"duration":0.11041666666666927},{"name":"G5","midi":79,"time":22.22083333333338,"velocity":0.5354330708661418,"duration":0.11041666666666572},{"name":"E4","midi":64,"time":22.22083333333338,"velocity":0.5669291338582677,"duration":0.22500000000000142},{"name":"F#5","midi":78,"time":22.331250000000047,"velocity":0.5354330708661418,"duration":0.11250000000000071},{"name":"G5","midi":79,"time":22.445833333333383,"velocity":0.5354330708661418,"duration":0.11250000000000071},{"name":"B3","midi":59,"time":22.447916666666718,"velocity":0.5669291338582677,"duration":0.22291666666666643},{"name":"F#5","midi":78,"time":22.558333333333383,"velocity":0.5354330708661418,"duration":0.11250000000000071},{"name":"G5","midi":79,"time":22.67291666666672,"velocity":0.5354330708661418,"duration":0.10833333333333428},{"name":"C#4","midi":61,"time":22.67291666666672,"velocity":0.5669291338582677,"duration":0.22500000000000497},{"name":"F5","midi":77,"time":22.78333333333339,"velocity":0.5826771653543307,"duration":0.11250000000000071},{"name":"E5","midi":76,"time":22.897916666666724,"velocity":0.5826771653543307,"duration":0.11041666666666927},{"name":"E4","midi":64,"time":22.90000000000006,"velocity":0.5669291338582677,"duration":0.22291666666666643},{"name":"D5","midi":74,"time":23.008333333333393,"velocity":0.5826771653543307,"duration":0.11458333333333215},{"name":"A4","midi":69,"time":23.12500000000006,"velocity":0.5826771653543307,"duration":0.2104166666666707},{"name":"C#5","midi":73,"time":23.12500000000006,"velocity":0.5826771653543307,"duration":0.10833333333333428},{"name":"B4","midi":71,"time":23.23541666666673,"velocity":0.5826771653543307,"duration":0.11041666666666927},{"name":"A4","midi":69,"time":23.347916666666734,"velocity":0.5354330708661418,"duration":0.6708333333333378},{"name":"F5","midi":77,"time":23.347916666666734,"velocity":0.5354330708661418,"duration":0.7812500000000071},{"name":"D5","midi":74,"time":23.35000000000007,"velocity":0.5354330708661418,"duration":0.6687500000000028},{"name":"D4","midi":62,"time":23.35000000000007,"velocity":0.5669291338582677,"duration":0.10833333333333428},{"name":"E4","midi":64,"time":23.458333333333403,"velocity":0.5669291338582677,"duration":0.11250000000000071},{"name":"F4","midi":65,"time":23.570833333333404,"velocity":0.5669291338582677,"duration":0.22291666666666643},{"name":"A4","midi":69,"time":23.795833333333405,"velocity":0.5354330708661418,"duration":0.22500000000000142},{"name":"F4","midi":65,"time":24.020833333333407,"velocity":0.5669291338582677,"duration":0.22291666666666998},{"name":"E5","midi":76,"time":24.131250000000076,"velocity":0.5354330708661418,"duration":0.11041666666666572},{"name":"F5","midi":77,"time":24.243750000000077,"velocity":0.5354330708661418,"duration":0.11041666666666927},{"name":"D4","midi":62,"time":24.24583333333341,"velocity":0.5669291338582677,"duration":0.220833333333335},{"name":"E5","midi":76,"time":24.354166666666746,"velocity":0.5354330708661418,"duration":0.11250000000000071},{"name":"F5","midi":77,"time":24.46875000000008,"velocity":0.5354330708661418,"duration":0.10833333333333428},{"name":"A3","midi":57,"time":24.46875000000008,"velocity":0.5669291338582677,"duration":0.22291666666666998},{"name":"E5","midi":76,"time":24.57916666666675,"velocity":0.5354330708661418,"duration":0.11041666666666572},{"name":"F5","midi":77,"time":24.69166666666675,"velocity":0.5354330708661418,"duration":0.11041666666666927},{"name":"B3","midi":59,"time":24.693750000000087,"velocity":0.5669291338582677,"duration":0.220833333333335},{"name":"E5","midi":76,"time":24.80208333333342,"velocity":0.5826771653543307,"duration":0.11250000000000071},{"name":"D5","midi":74,"time":24.916666666666757,"velocity":0.5826771653543307,"duration":0.10833333333333428},{"name":"D4","midi":62,"time":24.916666666666757,"velocity":0.5669291338582677,"duration":0.22291666666666998},{"name":"C5","midi":72,"time":25.027083333333426,"velocity":0.5826771653543307,"duration":0.11041666666666572},{"name":"B4","midi":71,"time":25.139583333333427,"velocity":0.5826771653543307,"duration":0.11041666666666927},{"name":"G4","midi":67,"time":25.14166666666676,"velocity":0.5669291338582677,"duration":0.220833333333335},{"name":"A4","midi":69,"time":25.250000000000096,"velocity":0.5826771653543307,"duration":0.11250000000000071},{"name":"E5","midi":76,"time":25.36458333333343,"velocity":0.5354330708661418,"duration":0.7708333333333464},{"name":"C4","midi":60,"time":25.36458333333343,"velocity":0.5669291338582677,"duration":0.10833333333333783},{"name":"G4","midi":67,"time":25.366666666666767,"velocity":0.5669291338582677,"duration":0.6583333333333421},{"name":"C5","midi":72,"time":25.3687500000001,"velocity":0.5354330708661418,"duration":0.6604166666666771},{"name":"D4","midi":62,"time":25.47291666666677,"velocity":0.5669291338582677,"duration":0.10833333333333428},{"name":"E4","midi":64,"time":25.58333333333344,"velocity":0.5669291338582677,"duration":0.220833333333335},{"name":"G4","midi":67,"time":25.804166666666774,"velocity":0.5669291338582677,"duration":0.22291666666666998},{"name":"E4","midi":64,"time":26.027083333333444,"velocity":0.5669291338582677,"duration":0.22291666666666998},{"name":"D5","midi":74,"time":26.137500000000113,"velocity":0.5826771653543307,"duration":0.11041666666666572},{"name":"E5","midi":76,"time":26.250000000000114,"velocity":0.5826771653543307,"duration":0.10833333333333428},{"name":"C4","midi":60,"time":26.250000000000114,"velocity":0.5669291338582677,"duration":0.220833333333335},{"name":"D5","midi":74,"time":26.358333333333448,"velocity":0.5826771653543307,"duration":0.11250000000000071},{"name":"E5","midi":76,"time":26.472916666666784,"velocity":0.5826771653543307,"duration":0.10833333333333428},{"name":"G3","midi":55,"time":26.472916666666784,"velocity":0.5669291338582677,"duration":0.220833333333335},{"name":"D5","midi":74,"time":26.583333333333453,"velocity":0.5826771653543307,"duration":0.11041666666666572},{"name":"C5","midi":72,"time":26.69375000000012,"velocity":0.5826771653543307,"duration":0.10833333333333428},{"name":"A3","midi":57,"time":26.695833333333454,"velocity":0.5669291338582677,"duration":0.21875},{"name":"G5","midi":79,"time":26.802083333333453,"velocity":0.5826771653543307,"duration":0.11041666666666572},{"name":"F5","midi":77,"time":26.914583333333454,"velocity":0.5826771653543307,"duration":0.11041666666666572},{"name":"C4","midi":60,"time":26.914583333333454,"velocity":0.5669291338582677,"duration":0.22083333333333144},{"name":"E5","midi":76,"time":27.02500000000012,"velocity":0.5826771653543307,"duration":0.11041666666666572},{"name":"D5","midi":74,"time":27.13750000000012,"velocity":0.5826771653543307,"duration":0.10833333333333428},{"name":"F4","midi":65,"time":27.13750000000012,"velocity":0.5669291338582677,"duration":0.21666666666666856},{"name":"C5","midi":72,"time":27.245833333333454,"velocity":0.5826771653543307,"duration":0.10833333333333428},{"name":"B4","midi":71,"time":27.356250000000124,"velocity":0.5826771653543307,"duration":0.10625000000000284},{"name":"G3","midi":55,"time":27.35833333333346,"velocity":0.5669291338582677,"duration":0.21666666666667211},{"name":"E5","midi":76,"time":27.46458333333346,"velocity":0.5826771653543307,"duration":0.10833333333333428},{"name":"D5","midi":74,"time":27.57500000000013,"velocity":0.5826771653543307,"duration":0.10624999999999929},{"name":"B3","midi":59,"time":27.57500000000013,"velocity":0.5669291338582677,"duration":0.21458333333333357},{"name":"C5","midi":72,"time":27.68125000000013,"velocity":0.5826771653543307,"duration":0.10833333333333428},{"name":"B4","midi":71,"time":27.7916666666668,"velocity":0.5826771653543307,"duration":0.10833333333333428},{"name":"D4","midi":62,"time":27.7916666666668,"velocity":0.5669291338582677,"duration":0.21875000000000355},{"name":"A4","midi":69,"time":27.90208333333347,"velocity":0.5826771653543307,"duration":0.10624999999999929},{"name":"G4","midi":67,"time":28.010416666666803,"velocity":0.5669291338582677,"duration":0.10833333333333428},{"name":"F4","midi":65,"time":28.012500000000138,"velocity":0.5669291338582677,"duration":0.21458333333333357},{"name":"C5","midi":72,"time":28.120833333333472,"velocity":0.5826771653543307,"duration":0.10624999999999929},{"name":"B4","midi":71,"time":28.229166666666806,"velocity":0.5826771653543307,"duration":0.10624999999999929},{"name":"D4","midi":62,"time":28.229166666666806,"velocity":0.5669291338582677,"duration":0.21458333333333357},{"name":"A4","midi":69,"time":28.335416666666806,"velocity":0.5826771653543307,"duration":0.10833333333333428},{"name":"B3","midi":59,"time":28.445833333333475,"velocity":0.5669291338582677,"duration":0.21458333333333712},{"name":"G4","midi":67,"time":28.445833333333475,"velocity":0.5669291338582677,"duration":0.10416666666666785},{"name":"F4","midi":65,"time":28.552083333333478,"velocity":0.5669291338582677,"duration":0.10624999999999929},{"name":"E4","midi":64,"time":28.660416666666812,"velocity":0.5669291338582677,"duration":0.10625000000000284},{"name":"G3","midi":55,"time":28.662500000000147,"velocity":0.5669291338582677,"duration":0.21250000000000568},{"name":"A4","midi":69,"time":28.76875000000015,"velocity":0.5826771653543307,"duration":0.10416666666666785},{"name":"B3","midi":59,"time":28.875000000000153,"velocity":0.5669291338582677,"duration":0.21458333333333357},{"name":"G4","midi":67,"time":28.875000000000153,"velocity":0.5669291338582677,"duration":0.10624999999999929},{"name":"F4","midi":65,"time":28.981250000000152,"velocity":0.5669291338582677,"duration":0.10833333333333428},{"name":"E4","midi":64,"time":29.09166666666682,"velocity":0.5669291338582677,"duration":0.10624999999999929},{"name":"G3","midi":55,"time":29.09166666666682,"velocity":0.5669291338582677,"duration":0.21458333333333357},{"name":"D4","midi":62,"time":29.19791666666682,"velocity":0.5669291338582677,"duration":0.10624999999999929},{"name":"E4","midi":64,"time":29.306250000000155,"velocity":0.5669291338582677,"duration":0.10833333333333428},{"name":"C4","midi":60,"time":29.30833333333349,"velocity":0.5669291338582677,"duration":0.7604166666666679},{"name":"F4","midi":65,"time":29.416666666666824,"velocity":0.5669291338582677,"duration":0.10833333333333428},{"name":"G4","midi":67,"time":29.52500000000016,"velocity":0.5669291338582677,"duration":0.21875},{"name":"C5","midi":72,"time":29.74375000000016,"velocity":0.5826771653543307,"duration":0.216666666666665},{"name":"G4","midi":67,"time":29.96250000000016,"velocity":0.5669291338582677,"duration":0.21458333333333357},{"name":"A3","midi":57,"time":30.070833333333493,"velocity":0.5669291338582677,"duration":0.10624999999999929},{"name":"E4","midi":64,"time":30.179166666666827,"velocity":0.5669291338582677,"duration":0.21666666666666856},{"name":"G3","midi":55,"time":30.179166666666827,"velocity":0.5669291338582677,"duration":0.10833333333333428},{"name":"F3","midi":53,"time":30.28750000000016,"velocity":0.5669291338582677,"duration":0.10833333333333428},{"name":"E3","midi":52,"time":30.39791666666683,"velocity":0.5669291338582677,"duration":0.10416666666666785},{"name":"C4","midi":60,"time":30.39791666666683,"velocity":0.5669291338582677,"duration":0.21458333333333712},{"name":"D3","midi":50,"time":30.504166666666833,"velocity":0.5669291338582677,"duration":0.10624999999999929},{"name":"E4","midi":64,"time":30.612500000000168,"velocity":0.5669291338582677,"duration":0.21666666666666856},{"name":"C3","midi":48,"time":30.614583333333503,"velocity":0.5669291338582677,"duration":1.5354166666666735},{"name":"D3","midi":50,"time":30.71875000000017,"velocity":0.5669291338582677,"duration":0.11041666666666572},{"name":"G4","midi":67,"time":30.83125000000017,"velocity":0.5669291338582677,"duration":0.21458333333333357},{"name":"E3","midi":52,"time":30.83125000000017,"velocity":0.5669291338582677,"duration":0.10624999999999929},{"name":"F3","midi":53,"time":30.93750000000017,"velocity":0.5669291338582677,"duration":0.10833333333333428},{"name":"C5","midi":72,"time":31.04791666666684,"velocity":0.5826771653543307,"duration":0.220833333333335},{"name":"G3","midi":55,"time":31.04791666666684,"velocity":0.5669291338582677,"duration":0.10624999999999929},{"name":"E3","midi":52,"time":31.156250000000174,"velocity":0.5669291338582677,"duration":0.11041666666666572},{"name":"A3","midi":57,"time":31.268750000000175,"velocity":0.5669291338582677,"duration":0.7708333333333357},{"name":"F4","midi":65,"time":31.27083333333351,"velocity":0.5669291338582677,"duration":0.10624999999999929},{"name":"G4","midi":67,"time":31.37708333333351,"velocity":0.5669291338582677,"duration":0.11250000000000071},{"name":"A4","midi":69,"time":31.48958333333351,"velocity":0.5826771653543307,"duration":0.22291666666666643},{"name":"C5","midi":72,"time":31.712500000000176,"velocity":0.5826771653543307,"duration":0.21875},{"name":"A4","midi":69,"time":31.93333333333351,"velocity":0.5826771653543307,"duration":0.216666666666665},{"name":"C3","midi":48,"time":32.04166666666684,"velocity":0.5669291338582677,"duration":1.1937500000000014},{"name":"F4","midi":65,"time":32.15208333333351,"velocity":0.5669291338582677,"duration":0.21458333333333002},{"name":"D3","midi":50,"time":32.15208333333351,"velocity":0.5669291338582677,"duration":0.1041666666666643},{"name":"E3","midi":52,"time":32.2583333333335,"velocity":0.5669291338582677,"duration":0.10833333333333428},{"name":"C4","midi":60,"time":32.36875000000017,"velocity":0.5669291338582677,"duration":0.21458333333333712},{"name":"F3","midi":53,"time":32.36875000000017,"velocity":0.5669291338582677,"duration":0.10625000000000284},{"name":"G3","midi":55,"time":32.47500000000017,"velocity":0.5669291338582677,"duration":0.10625000000000284},{"name":"F4","midi":65,"time":32.583333333333506,"velocity":0.5669291338582677,"duration":0.21666666666666856},{"name":"A3","midi":57,"time":32.583333333333506,"velocity":0.5669291338582677,"duration":0.10625000000000284},{"name":"G3","midi":55,"time":32.69166666666684,"velocity":0.5669291338582677,"duration":0.10625000000000284},{"name":"A4","midi":69,"time":32.800000000000175,"velocity":0.5826771653543307,"duration":0.21458333333333712},{"name":"F3","midi":53,"time":32.800000000000175,"velocity":0.5669291338582677,"duration":0.10625000000000284},{"name":"E3","midi":52,"time":32.90625000000018,"velocity":0.5669291338582677,"duration":0.10833333333333428},{"name":"C5","midi":72,"time":33.01666666666684,"velocity":0.5826771653543307,"duration":0.22083333333333144},{"name":"D3","midi":50,"time":33.01666666666684,"velocity":0.5669291338582677,"duration":0.10833333333333428},{"name":"C3","midi":48,"time":33.12708333333351,"velocity":0.5669291338582677,"duration":0.7833333333333314},{"name":"B4","midi":71,"time":33.237500000000175,"velocity":0.5826771653543307,"duration":0.11041666666666572},{"name":"D3","midi":50,"time":33.239583333333506,"velocity":0.5669291338582677,"duration":0.7833333333333314},{"name":"C5","midi":72,"time":33.35000000000017,"velocity":0.5826771653543307,"duration":0.11249999999999716},{"name":"D5","midi":74,"time":33.46250000000017,"velocity":0.5826771653543307,"duration":0.22291666666666998},{"name":"F5","midi":77,"time":33.68750000000017,"velocity":0.5826771653543307,"duration":0.22291666666666998},{"name":"D5","midi":74,"time":33.91250000000017,"velocity":0.5826771653543307,"duration":0.22083333333333144},{"name":"B2","midi":47,"time":33.91250000000017,"velocity":0.5669291338582677,"duration":0.11041666666666572},{"name":"E3","midi":52,"time":34.02500000000017,"velocity":0.5669291338582677,"duration":0.10625000000000284},{"name":"B4","midi":71,"time":34.1333333333335,"velocity":0.5826771653543307,"duration":0.22083333333333144},{"name":"D3","midi":50,"time":34.135416666666835,"velocity":0.5669291338582677,"duration":0.10833333333333428},{"name":"C3","midi":48,"time":34.2458333333335,"velocity":0.5669291338582677,"duration":0.10833333333333428},{"name":"G4","midi":67,"time":34.356250000000166,"velocity":0.5669291338582677,"duration":0.21666666666666856},{"name":"B2","midi":47,"time":34.356250000000166,"velocity":0.5669291338582677,"duration":0.10833333333333428},{"name":"A2","midi":45,"time":34.4645833333335,"velocity":0.5669291338582677,"duration":0.10833333333333428},{"name":"B4","midi":71,"time":34.575000000000166,"velocity":0.5826771653543307,"duration":0.21666666666666856},{"name":"G2","midi":43,"time":34.575000000000166,"velocity":0.5669291338582677,"duration":0.10625000000000284},{"name":"A2","midi":45,"time":34.6833333333335,"velocity":0.5669291338582677,"duration":0.10625000000000284},{"name":"D5","midi":74,"time":34.791666666666835,"velocity":0.5826771653543307,"duration":0.21458333333333002},{"name":"G2","midi":43,"time":34.793750000000166,"velocity":0.5669291338582677,"duration":0.1041666666666643},{"name":"F2","midi":41,"time":34.90000000000016,"velocity":0.5669291338582677,"duration":0.10625000000000284},{"name":"F5","midi":77,"time":35.008333333333496,"velocity":0.5826771653543307,"duration":0.21458333333333712},{"name":"E2","midi":40,"time":35.008333333333496,"velocity":0.5669291338582677,"duration":0.10625000000000284},{"name":"D2","midi":38,"time":35.1145833333335,"velocity":0.5669291338582677,"duration":0.10833333333333428},{"name":"E5","midi":76,"time":35.225000000000165,"velocity":0.5826771653543307,"duration":1.9499999999999886},{"name":"C2","midi":36,"time":35.225000000000165,"velocity":0.5669291338582677,"duration":0.21249999999999858},{"name":"D5","midi":74,"time":35.3270833333335,"velocity":0.5826771653543307,"duration":0.10833333333333428},{"name":"C5","midi":72,"time":35.43750000000016,"velocity":0.5826771653543307,"duration":0.1041666666666643},{"name":"B4","midi":71,"time":35.54375000000016,"velocity":0.5826771653543307,"duration":0.1041666666666643},{"name":"C5","midi":72,"time":35.650000000000155,"velocity":0.5826771653543307,"duration":1.5229166666666671},{"name":"G4","midi":67,"time":35.75416666666682,"velocity":0.5669291338582677,"duration":1.4187500000000028},{"name":"E4","midi":64,"time":35.86250000000015,"velocity":0.5669291338582677,"duration":0.10833333333333428},{"name":"D4","midi":62,"time":35.97083333333349,"velocity":0.5669291338582677,"duration":0.10625000000000284},{"name":"C4","midi":60,"time":36.07916666666682,"velocity":0.5669291338582677,"duration":0.10625000000000284},{"name":"B3","midi":59,"time":36.187500000000156,"velocity":0.5669291338582677,"duration":0.10625000000000284},{"name":"C4","midi":60,"time":36.29583333333349,"velocity":0.5669291338582677,"duration":0.10625000000000284},{"name":"G3","midi":55,"time":36.40208333333349,"velocity":0.5669291338582677,"duration":0.11041666666666572},{"name":"E3","midi":52,"time":36.51458333333349,"velocity":0.5669291338582677,"duration":0.10625000000000284},{"name":"G3","midi":55,"time":36.62083333333349,"velocity":0.5669291338582677,"duration":0.10833333333333428},{"name":"F3","midi":53,"time":36.73125000000016,"velocity":0.5669291338582677,"duration":0.10625000000000284},{"name":"E3","midi":52,"time":36.83958333333349,"velocity":0.5669291338582677,"duration":0.11041666666666572},{"name":"D3","midi":50,"time":36.95000000000016,"velocity":0.5669291338582677,"duration":0.10833333333333428},{"name":"C3","midi":48,"time":37.060416666666825,"velocity":0.5669291338582677,"duration":0.11041666666666572},{"name":"D#5","midi":75,"time":37.17500000000015,"velocity":0.5826771653543307,"duration":0.6854166666666544},{"name":"F#3","midi":54,"time":37.17500000000015,"velocity":0.5669291338582677,"duration":0.22708333333333286},{"name":"A4","midi":69,"time":37.28541666666682,"velocity":0.5826771653543307,"duration":0.1145833333333357},{"name":"A#4","midi":70,"time":37.402083333333486,"velocity":0.5826771653543307,"duration":0.1145833333333357},{"name":"F#3","midi":54,"time":37.402083333333486,"velocity":0.5669291338582677,"duration":0.2291666666666643},{"name":"C5","midi":72,"time":37.51875000000015,"velocity":0.5826771653543307,"duration":0.11249999999999716},{"name":"A#4","midi":70,"time":37.63333333333348,"velocity":0.5826771653543307,"duration":0.11249999999999716},{"name":"F#3","midi":54,"time":37.63333333333348,"velocity":0.5669291338582677,"duration":0.22708333333332575},{"name":"A4","midi":69,"time":37.74583333333348,"velocity":0.5826771653543307,"duration":0.11249999999999716},{"name":"D5","midi":74,"time":37.86250000000014,"velocity":0.5826771653543307,"duration":0.6812499999999915},{"name":"F#3","midi":54,"time":37.86250000000014,"velocity":0.5669291338582677,"duration":0.22500000000000142},{"name":"A4","midi":69,"time":37.972916666666805,"velocity":0.5826771653543307,"duration":0.1145833333333357},{"name":"A#4","midi":70,"time":38.08958333333347,"velocity":0.5826771653543307,"duration":0.11041666666666572},{"name":"F#3","midi":54,"time":38.08958333333347,"velocity":0.5669291338582677,"duration":0.22708333333332575},{"name":"C5","midi":72,"time":38.20208333333347,"velocity":0.5826771653543307,"duration":0.11249999999999716},{"name":"A#4","midi":70,"time":38.3166666666668,"velocity":0.5826771653543307,"duration":0.11041666666666572},{"name":"F#3","midi":54,"time":38.31875000000013,"velocity":0.5669291338582677,"duration":0.22291666666666998},{"name":"A4","midi":69,"time":38.427083333333464,"velocity":0.5826771653543307,"duration":0.1145833333333357},{"name":"A5","midi":81,"time":38.54375000000013,"velocity":0.4881889763779528,"duration":0.22708333333333286},{"name":"F#3","midi":54,"time":38.54583333333346,"velocity":0.5669291338582677,"duration":0.22500000000000142},{"name":"A4","midi":69,"time":38.6541666666668,"velocity":0.5826771653543307,"duration":0.1145833333333357},{"name":"A#4","midi":70,"time":38.772916666666795,"velocity":0.5826771653543307,"duration":0.10833333333333428},{"name":"F#3","midi":54,"time":38.772916666666795,"velocity":0.5669291338582677,"duration":0.22291666666666998},{"name":"C5","midi":72,"time":38.88125000000013,"velocity":0.5826771653543307,"duration":0.1145833333333357},{"name":"A#4","midi":70,"time":38.9979166666668,"velocity":0.5826771653543307,"duration":0.10833333333333428},{"name":"F#3","midi":54,"time":38.9979166666668,"velocity":0.5669291338582677,"duration":0.22291666666666288},{"name":"A4","midi":69,"time":39.10833333333346,"velocity":0.5826771653543307,"duration":0.11041666666666572},{"name":"A#4","midi":70,"time":39.22083333333346,"velocity":0.5826771653543307,"duration":1.9749999999999943},{"name":"G3","midi":55,"time":39.22291666666679,"velocity":0.5669291338582677,"duration":0.21875},{"name":"A4","midi":69,"time":39.331250000000125,"velocity":0.5826771653543307,"duration":0.11041666666666572},{"name":"G4","midi":67,"time":39.44375000000012,"velocity":0.5669291338582677,"duration":0.10625000000000284},{"name":"F#4","midi":66,"time":39.55208333333346,"velocity":0.5669291338582677,"duration":0.10833333333333428},{"name":"G4","midi":67,"time":39.66250000000012,"velocity":0.5669291338582677,"duration":1.5333333333333314},{"name":"D4","midi":62,"time":39.768750000000125,"velocity":0.5669291338582677,"duration":1.4249999999999972},{"name":"A#3","midi":58,"time":39.87916666666679,"velocity":0.5669291338582677,"duration":0.11041666666666572},{"name":"A3","midi":57,"time":39.98958333333346,"velocity":0.5669291338582677,"duration":0.10833333333333428},{"name":"G3","midi":55,"time":40.09791666666679,"velocity":0.5669291338582677,"duration":0.10625000000000284},{"name":"F#3","midi":54,"time":40.206250000000125,"velocity":0.5669291338582677,"duration":0.10833333333333428},{"name":"G3","midi":55,"time":40.31666666666679,"velocity":0.5669291338582677,"duration":0.10625000000000284},{"name":"D3","midi":50,"time":40.425000000000125,"velocity":0.5669291338582677,"duration":0.10625000000000284},{"name":"A#2","midi":46,"time":40.53125000000013,"velocity":0.5669291338582677,"duration":0.11041666666666572},{"name":"D3","midi":50,"time":40.641666666666794,"velocity":0.5669291338582677,"duration":0.10833333333333428},{"name":"C3","midi":48,"time":40.75000000000013,"velocity":0.5669291338582677,"duration":0.10833333333333428},{"name":"A#2","midi":46,"time":40.860416666666794,"velocity":0.5669291338582677,"duration":0.11041666666666572},{"name":"A2","midi":45,"time":40.97291666666679,"velocity":0.5669291338582677,"duration":0.10833333333333428},{"name":"G2","midi":43,"time":41.081250000000125,"velocity":0.5669291338582677,"duration":0.11249999999999716},{"name":"A#4","midi":70,"time":41.197916666666785,"velocity":0.5984251968503937,"duration":0.6729166666666657},{"name":"C#3","midi":49,"time":41.197916666666785,"velocity":0.5669291338582677,"duration":0.21875},{"name":"E4","midi":64,"time":41.30416666666679,"velocity":0.5669291338582677,"duration":0.11249999999999716},{"name":"F4","midi":65,"time":41.416666666666785,"velocity":0.5669291338582677,"duration":0.11041666666666572},{"name":"C#3","midi":49,"time":41.41875000000012,"velocity":0.5669291338582677,"duration":0.22500000000000142},{"name":"G4","midi":67,"time":41.52708333333345,"velocity":0.5669291338582677,"duration":0.1145833333333357},{"name":"F4","midi":65,"time":41.64375000000012,"velocity":0.5669291338582677,"duration":0.11249999999999716},{"name":"C#3","midi":49,"time":41.64375000000012,"velocity":0.5669291338582677,"duration":0.22708333333333286},{"name":"E4","midi":64,"time":41.756250000000115,"velocity":0.5669291338582677,"duration":0.1145833333333357},{"name":"A4","midi":69,"time":41.87291666666678,"velocity":0.5984251968503937,"duration":0.6770833333333215},{"name":"C#3","midi":49,"time":41.87291666666678,"velocity":0.5669291338582677,"duration":0.22708333333333286},{"name":"E4","midi":64,"time":41.98333333333345,"velocity":0.5669291338582677,"duration":0.1145833333333357},{"name":"F4","midi":65,"time":42.100000000000115,"velocity":0.5669291338582677,"duration":0.11249999999999716},{"name":"C#3","midi":49,"time":42.100000000000115,"velocity":0.5669291338582677,"duration":0.22499999999999432},{"name":"G4","midi":67,"time":42.21250000000011,"velocity":0.5669291338582677,"duration":0.11249999999999716},{"name":"C#3","midi":49,"time":42.32500000000011,"velocity":0.5669291338582677,"duration":0.22499999999999432},{"name":"F4","midi":65,"time":42.32500000000011,"velocity":0.5669291338582677,"duration":0.11041666666666572},{"name":"E4","midi":64,"time":42.43750000000011,"velocity":0.5669291338582677,"duration":0.11041666666666572},{"name":"E5","midi":76,"time":42.550000000000104,"velocity":0.5984251968503937,"duration":0.22291666666666288},{"name":"C#3","midi":49,"time":42.552083333333435,"velocity":0.5669291338582677,"duration":0.21875},{"name":"E4","midi":64,"time":42.66041666666677,"velocity":0.5669291338582677,"duration":0.11041666666666572},{"name":"F4","midi":65,"time":42.77291666666677,"velocity":0.5669291338582677,"duration":0.10833333333333428},{"name":"C#3","midi":49,"time":42.7750000000001,"velocity":0.5669291338582677,"duration":0.22083333333333144},{"name":"G4","midi":67,"time":42.88333333333343,"velocity":0.5669291338582677,"duration":0.11041666666666572},{"name":"F4","midi":65,"time":42.99583333333343,"velocity":0.5669291338582677,"duration":0.11041666666666572},{"name":"C#3","midi":49,"time":42.99791666666676,"velocity":0.5669291338582677,"duration":0.22291666666666998},{"name":"E4","midi":64,"time":43.106250000000095,"velocity":0.5669291338582677,"duration":0.1145833333333357},{"name":"F4","midi":65,"time":43.22291666666676,"velocity":0.5669291338582677,"duration":0.77708333333333},{"name":"D3","midi":50,"time":43.22291666666676,"velocity":0.5669291338582677,"duration":0.10833333333333428},{"name":"E3","midi":52,"time":43.33333333333343,"velocity":0.5669291338582677,"duration":0.10833333333333428},{"name":"F3","midi":53,"time":43.443750000000094,"velocity":0.5669291338582677,"duration":0.22083333333333144},{"name":"A3","midi":57,"time":43.664583333333425,"velocity":0.5669291338582677,"duration":0.22291666666666998},{"name":"F3","midi":53,"time":43.88958333333343,"velocity":0.5669291338582677,"duration":0.22291666666666288},{"name":"E4","midi":64,"time":44.00000000000009,"velocity":0.5669291338582677,"duration":0.11249999999999716},{"name":"F4","midi":65,"time":44.11458333333342,"velocity":0.5669291338582677,"duration":0.11041666666666572},{"name":"D3","midi":50,"time":44.11458333333342,"velocity":0.5669291338582677,"duration":0.22291666666666288},{"name":"A4","midi":69,"time":44.22500000000009,"velocity":0.5826771653543307,"duration":0.11041666666666572},{"name":"D5","midi":74,"time":44.337500000000084,"velocity":0.5826771653543307,"duration":0.10833333333333428},{"name":"A2","midi":45,"time":44.339583333333415,"velocity":0.5669291338582677,"duration":0.21875},{"name":"A4","midi":69,"time":44.44791666666675,"velocity":0.5826771653543307,"duration":0.11041666666666572},{"name":"F5","midi":77,"time":44.56041666666675,"velocity":0.5826771653543307,"duration":0.11874999999999858},{"name":"D3","midi":50,"time":44.56041666666675,"velocity":0.5669291338582677,"duration":0.21875},{"name":"E5","midi":76,"time":44.66875000000008,"velocity":0.5826771653543307,"duration":0.11874999999999858},{"name":"D5","midi":74,"time":44.77916666666675,"velocity":0.5826771653543307,"duration":0.11874999999999858},{"name":"F3","midi":53,"time":44.78125000000008,"velocity":0.5669291338582677,"duration":0.21875},{"name":"C5","midi":72,"time":44.88958333333341,"velocity":0.5826771653543307,"duration":0.12083333333333002},{"name":"B4","midi":71,"time":45.00208333333341,"velocity":0.5826771653543307,"duration":0.11874999999999858},{"name":"A3","midi":57,"time":45.00208333333341,"velocity":0.5669291338582677,"duration":0.22083333333333144},{"name":"A4","midi":69,"time":45.110416666666744,"velocity":0.5826771653543307,"duration":0.12291666666666146},{"name":"G#5","midi":80,"time":45.22500000000007,"velocity":0.5826771653543307,"duration":0.7645833333333343},{"name":"D3","midi":50,"time":45.22500000000007,"velocity":0.5669291338582677,"duration":0.10625000000000284},{"name":"E3","midi":52,"time":45.33333333333341,"velocity":0.5669291338582677,"duration":0.10833333333333428},{"name":"F3","midi":53,"time":45.44375000000007,"velocity":0.5669291338582677,"duration":0.21875},{"name":"G#3","midi":56,"time":45.66250000000007,"velocity":0.5669291338582677,"duration":0.21666666666666856},{"name":"F3","midi":53,"time":45.88125000000007,"velocity":0.5669291338582677,"duration":0.21875},{"name":"A5","midi":81,"time":45.99166666666674,"velocity":0.5826771653543307,"duration":0.10833333333333428},{"name":"B5","midi":83,"time":46.102083333333404,"velocity":0.5826771653543307,"duration":0.10833333333333428},{"name":"D3","midi":50,"time":46.102083333333404,"velocity":0.5669291338582677,"duration":0.22083333333333144},{"name":"A5","midi":81,"time":46.21041666666674,"velocity":0.5826771653543307,"duration":0.11041666666666572},{"name":"G#5","midi":80,"time":46.322916666666735,"velocity":0.5826771653543307,"duration":0.10833333333333428},{"name":"B2","midi":47,"time":46.322916666666735,"velocity":0.5669291338582677,"duration":0.21875},{"name":"F#5","midi":78,"time":46.43125000000007,"velocity":0.5826771653543307,"duration":0.10833333333333428},{"name":"E5","midi":76,"time":46.541666666666735,"velocity":0.5826771653543307,"duration":0.10833333333333428},{"name":"D3","midi":50,"time":46.54375000000007,"velocity":0.5669291338582677,"duration":0.21666666666666856},{"name":"F5","midi":77,"time":46.65000000000007,"velocity":0.5826771653543307,"duration":0.11041666666666572},{"name":"E5","midi":76,"time":46.76250000000007,"velocity":0.5826771653543307,"duration":0.11041666666666572},{"name":"F3","midi":53,"time":46.7645833333334,"velocity":0.5669291338582677,"duration":0.22083333333333144},{"name":"D5","midi":74,"time":46.87291666666673,"velocity":0.5826771653543307,"duration":0.11249999999999716},{"name":"C5","midi":72,"time":46.98541666666673,"velocity":0.5826771653543307,"duration":0.11041666666666572},{"name":"G#3","midi":56,"time":46.98750000000006,"velocity":0.5669291338582677,"duration":0.22083333333333144},{"name":"B4","midi":71,"time":47.095833333333395,"velocity":0.5826771653543307,"duration":0.11041666666666572},{"name":"A4","midi":69,"time":47.20833333333339,"velocity":0.5826771653543307,"duration":0.11041666666666572},{"name":"C3","midi":48,"time":47.20833333333339,"velocity":0.5669291338582677,"duration":0.6687499999999957},{"name":"B4","midi":71,"time":47.32083333333339,"velocity":0.5826771653543307,"duration":0.11041666666666572},{"name":"C5","midi":72,"time":47.431250000000055,"velocity":0.5826771653543307,"duration":0.22291666666666998},{"name":"E5","midi":76,"time":47.65625000000006,"velocity":0.5826771653543307,"duration":0.22083333333333144},{"name":"C5","midi":72,"time":47.87916666666672,"velocity":0.5826771653543307,"duration":0.22291666666666288},{"name":"A3","midi":57,"time":47.87916666666672,"velocity":0.5669291338582677,"duration":0.10833333333333428},{"name":"G#3","midi":56,"time":47.987500000000054,"velocity":0.5669291338582677,"duration":0.11249999999999716},{"name":"A4","midi":69,"time":48.10208333333338,"velocity":0.5826771653543307,"duration":0.22083333333333144},{"name":"A3","midi":57,"time":48.104166666666714,"velocity":0.5669291338582677,"duration":0.10625000000000284},{"name":"G#3","midi":56,"time":48.21250000000005,"velocity":0.5669291338582677,"duration":0.10833333333333428},{"name":"E4","midi":64,"time":48.322916666666714,"velocity":0.5669291338582677,"duration":0.21875},{"name":"A3","midi":57,"time":48.325000000000045,"velocity":0.5669291338582677,"duration":0.10625000000000284},{"name":"G#3","midi":56,"time":48.43125000000005,"velocity":0.5669291338582677,"duration":0.11041666666666572},{"name":"E5","midi":76,"time":48.543750000000045,"velocity":0.5826771653543307,"duration":0.10625000000000284},{"name":"A3","midi":57,"time":48.543750000000045,"velocity":0.5669291338582677,"duration":0.21875},{"name":"D5","midi":74,"time":48.65208333333338,"velocity":0.5826771653543307,"duration":0.10833333333333428},{"name":"C5","midi":72,"time":48.762500000000045,"velocity":0.5826771653543307,"duration":0.10833333333333428},{"name":"E3","midi":52,"time":48.76458333333338,"velocity":0.5669291338582677,"duration":0.21458333333333712},{"name":"B4","midi":71,"time":48.87291666666671,"velocity":0.5826771653543307,"duration":0.10625000000000284},{"name":"A4","midi":69,"time":48.981250000000045,"velocity":0.5826771653543307,"duration":0.10833333333333428},{"name":"C3","midi":48,"time":48.981250000000045,"velocity":0.5669291338582677,"duration":0.21875},{"name":"G#4","midi":68,"time":49.08958333333338,"velocity":0.5826771653543307,"duration":0.11041666666666572},{"name":"A4","midi":69,"time":49.200000000000045,"velocity":0.5826771653543307,"duration":0.10833333333333428},{"name":"F2","midi":41,"time":49.20208333333338,"velocity":0.5669291338582677,"duration":0.6541666666666686},{"name":"B4","midi":71,"time":49.31041666666671,"velocity":0.5826771653543307,"duration":0.10625000000000284},{"name":"C5","midi":72,"time":49.418750000000045,"velocity":0.5826771653543307,"duration":0.21875},{"name":"A5","midi":81,"time":49.637500000000045,"velocity":0.5826771653543307,"duration":0.21875},{"name":"E5","midi":76,"time":49.856250000000045,"velocity":0.5826771653543307,"duration":0.21875},{"name":"A3","midi":57,"time":49.85833333333338,"velocity":0.5669291338582677,"duration":0.10625000000000284},{"name":"G#3","midi":56,"time":49.96666666666671,"velocity":0.5669291338582677,"duration":0.10833333333333428},{"name":"C5","midi":72,"time":50.07708333333338,"velocity":0.5826771653543307,"duration":0.21875},{"name":"A3","midi":57,"time":50.07708333333338,"velocity":0.5669291338582677,"duration":0.10833333333333428},{"name":"G#3","midi":56,"time":50.18541666666671,"velocity":0.5669291338582677,"duration":0.10833333333333428},{"name":"A4","midi":69,"time":50.29583333333338,"velocity":0.5826771653543307,"duration":0.21875},{"name":"A3","midi":57,"time":50.29791666666671,"velocity":0.5669291338582677,"duration":0.10625000000000284},{"name":"G#3","midi":56,"time":50.40416666666671,"velocity":0.5669291338582677,"duration":0.11041666666666572},{"name":"A5","midi":81,"time":50.51458333333338,"velocity":0.5826771653543307,"duration":0.11041666666666572},{"name":"A3","midi":57,"time":50.51666666666671,"velocity":0.5669291338582677,"duration":0.21875},{"name":"G5","midi":79,"time":50.62500000000004,"velocity":0.5826771653543307,"duration":0.10833333333333428},{"name":"F5","midi":77,"time":50.73541666666671,"velocity":0.5826771653543307,"duration":0.11041666666666572},{"name":"B3","midi":59,"time":50.73750000000004,"velocity":0.5669291338582677,"duration":0.21875},{"name":"E5","midi":76,"time":50.845833333333374,"velocity":0.5826771653543307,"duration":0.10833333333333428},{"name":"D5","midi":74,"time":50.95625000000004,"velocity":0.5826771653543307,"duration":0.11041666666666572},{"name":"C4","midi":60,"time":50.95833333333337,"velocity":0.5669291338582677,"duration":0.21875},{"name":"C5","midi":72,"time":51.06875000000004,"velocity":0.5826771653543307,"duration":0.10833333333333428},{"name":"F5","midi":77,"time":51.1791666666667,"velocity":0.5826771653543307,"duration":0.11041666666666572},{"name":"D3","midi":50,"time":51.1791666666667,"velocity":0.5669291338582677,"duration":0.22083333333333144},{"name":"E5","midi":76,"time":51.28958333333337,"velocity":0.5826771653543307,"duration":0.11041666666666572},{"name":"D5","midi":74,"time":51.402083333333366,"velocity":0.5826771653543307,"duration":0.11041666666666572},{"name":"E3","midi":52,"time":51.402083333333366,"velocity":0.5669291338582677,"duration":0.22291666666666288},{"name":"C5","midi":72,"time":51.51250000000003,"velocity":0.5826771653543307,"duration":0.11249999999999716},{"name":"B4","midi":71,"time":51.62500000000003,"velocity":0.5826771653543307,"duration":0.10833333333333428},{"name":"F3","midi":53,"time":51.62500000000003,"velocity":0.5669291338582677,"duration":0.21875},{"name":"A4","midi":69,"time":51.73333333333336,"velocity":0.5826771653543307,"duration":0.10833333333333428},{"name":"D5","midi":74,"time":51.84375000000003,"velocity":0.5826771653543307,"duration":0.10833333333333428},{"name":"B2","midi":47,"time":51.84583333333336,"velocity":0.5669291338582677,"duration":0.21666666666666856},{"name":"C5","midi":72,"time":51.95208333333336,"velocity":0.5826771653543307,"duration":0.11041666666666572},{"name":"B4","midi":71,"time":52.06458333333336,"velocity":0.5826771653543307,"duration":0.10625000000000284},{"name":"C3","midi":48,"time":52.06458333333336,"velocity":0.5669291338582677,"duration":0.21666666666666856},{"name":"A4","midi":69,"time":52.17083333333336,"velocity":0.5826771653543307,"duration":0.10833333333333428},{"name":"G#4","midi":68,"time":52.28125000000003,"velocity":0.5826771653543307,"duration":0.10624999999999574},{"name":"D3","midi":50,"time":52.28333333333336,"velocity":0.5669291338582677,"duration":0.21458333333333002},{"name":"F#4","midi":66,"time":52.389583333333356,"velocity":0.5669291338582677,"duration":0.10625000000000284},{"name":"B4","midi":71,"time":52.49791666666669,"velocity":0.5826771653543307,"duration":0.10833333333333428},{"name":"G#2","midi":44,"time":52.50000000000002,"velocity":0.5669291338582677,"duration":0.21458333333333712},{"name":"A4","midi":69,"time":52.606250000000024,"velocity":0.5826771653543307,"duration":0.10833333333333428},{"name":"G#4","midi":68,"time":52.71666666666669,"velocity":0.5826771653543307,"duration":0.10625000000000284},{"name":"A2","midi":45,"time":52.71666666666669,"velocity":0.5669291338582677,"duration":0.21666666666666856},{"name":"F#4","midi":66,"time":52.82291666666669,"velocity":0.5669291338582677,"duration":0.10833333333333428},{"name":"E4","midi":64,"time":52.93333333333336,"velocity":0.5669291338582677,"duration":0.10624999999999574},{"name":"B2","midi":47,"time":52.93541666666669,"velocity":0.5669291338582677,"duration":0.21458333333333002},{"name":"D4","midi":62,"time":53.041666666666686,"velocity":0.5669291338582677,"duration":0.10625000000000284},{"name":"E4","midi":64,"time":53.15000000000002,"velocity":0.5669291338582677,"duration":0.10625000000000284},{"name":"C2","midi":36,"time":53.15000000000002,"velocity":0.5669291338582677,"duration":0.8625000000000114},{"name":"A4","midi":69,"time":53.25625000000002,"velocity":0.5826771653543307,"duration":0.10625000000000284},{"name":"G4","midi":67,"time":53.362500000000026,"velocity":0.5669291338582677,"duration":0.10833333333333428},{"name":"F4","midi":65,"time":53.47083333333336,"velocity":0.5669291338582677,"duration":0.10625000000000284},{"name":"E4","midi":64,"time":53.579166666666694,"velocity":0.5669291338582677,"duration":0.10625000000000284},{"name":"D4","midi":62,"time":53.68750000000003,"velocity":0.5669291338582677,"duration":0.10625000000000284},{"name":"C4","midi":60,"time":53.79583333333336,"velocity":0.5669291338582677,"duration":0.10625000000000284},{"name":"F4","midi":65,"time":53.902083333333366,"velocity":0.5669291338582677,"duration":0.11041666666666572},{"name":"E4","midi":64,"time":54.01458333333336,"velocity":0.5669291338582677,"duration":0.10625000000000284},{"name":"C3","midi":48,"time":54.01458333333336,"velocity":0.5669291338582677,"duration":0.21666666666666856},{"name":"D4","midi":62,"time":54.120833333333366,"velocity":0.5669291338582677,"duration":0.10833333333333428},{"name":"C4","midi":60,"time":54.23125000000003,"velocity":0.5669291338582677,"duration":0.1041666666666643},{"name":"D3","midi":50,"time":54.23333333333336,"velocity":0.5669291338582677,"duration":0.21249999999999858},{"name":"B3","midi":59,"time":54.33750000000003,"velocity":0.5669291338582677,"duration":0.10625000000000284},{"name":"A3","midi":57,"time":54.44583333333336,"velocity":0.5669291338582677,"duration":0.1041666666666643},{"name":"E3","midi":52,"time":54.44791666666669,"velocity":0.5669291338582677,"duration":0.2083333333333357},{"name":"D4","midi":62,"time":54.550000000000026,"velocity":0.5669291338582677,"duration":0.10625000000000284},{"name":"C4","midi":60,"time":54.65833333333336,"velocity":0.5669291338582677,"duration":0.10625000000000284},{"name":"D3","midi":50,"time":54.65833333333336,"velocity":0.5669291338582677,"duration":0.21250000000000568},{"name":"B3","midi":59,"time":54.76458333333336,"velocity":0.5669291338582677,"duration":0.10625000000000284},{"name":"E3","midi":52,"time":54.8729166666667,"velocity":0.5669291338582677,"duration":0.20624999999999716},{"name":"A3","midi":57,"time":54.8729166666667,"velocity":0.5669291338582677,"duration":0.10208333333333286},{"name":"G#3","midi":56,"time":54.97500000000003,"velocity":0.5669291338582677,"duration":0.10208333333333286},{"name":"A3","midi":57,"time":55.079166666666694,"velocity":0.5669291338582677,"duration":0.10208333333333286},{"name":"A2","midi":45,"time":55.081250000000026,"velocity":0.5669291338582677,"duration":2.6083333333332916},{"name":"B3","midi":59,"time":55.18333333333336,"velocity":0.5669291338582677,"duration":0.10208333333333286},{"name":"C#4","midi":61,"time":55.28750000000002,"velocity":0.5669291338582677,"duration":0.10000000000000142},{"name":"D4","midi":62,"time":55.389583333333356,"velocity":0.5669291338582677,"duration":0.10208333333333286},{"name":"E4","midi":64,"time":55.49375000000002,"velocity":0.5669291338582677,"duration":0.10000000000000142},{"name":"F4","midi":65,"time":55.59583333333335,"velocity":0.5669291338582677,"duration":0.10000000000000142},{"name":"G4","midi":67,"time":55.697916666666686,"velocity":0.5669291338582677,"duration":0.20416666666666572},{"name":"B2","midi":47,"time":55.79791666666669,"velocity":0.5669291338582677,"duration":0.1041666666666643},{"name":"C#3","midi":49,"time":55.90416666666668,"velocity":0.5669291338582677,"duration":0.10000000000000142},{"name":"E4","midi":64,"time":55.90416666666668,"velocity":0.5669291338582677,"duration":0.20416666666666572},{"name":"D3","midi":50,"time":56.004166666666684,"velocity":0.5669291338582677,"duration":0.1041666666666643},{"name":"C#4","midi":61,"time":56.11041666666668,"velocity":0.5669291338582677,"duration":0.21041666666666003},{"name":"E3","midi":52,"time":56.11041666666668,"velocity":0.5669291338582677,"duration":0.1041666666666643},{"name":"F3","midi":53,"time":56.214583333333344,"velocity":0.5669291338582677,"duration":0.1041666666666643},{"name":"A#4","midi":70,"time":56.32083333333334,"velocity":0.5826771653543307,"duration":0.1041666666666643},{"name":"G3","midi":55,"time":56.32083333333334,"velocity":0.5669291338582677,"duration":0.21041666666666714},{"name":"C#4","midi":61,"time":56.425000000000004,"velocity":0.5669291338582677,"duration":0.10625000000000284},{"name":"A4","midi":69,"time":56.53333333333334,"velocity":0.5826771653543307,"duration":0.1041666666666643},{"name":"F3","midi":53,"time":56.53333333333334,"velocity":0.5669291338582677,"duration":0.2083333333333286},{"name":"C#4","midi":61,"time":56.6375,"velocity":0.5669291338582677,"duration":0.1041666666666643},{"name":"G4","midi":67,"time":56.74375,"velocity":0.5669291338582677,"duration":0.1041666666666643},{"name":"E3","midi":52,"time":56.74375,"velocity":0.5669291338582677,"duration":0.21249999999999858},{"name":"C#4","midi":61,"time":56.84791666666666,"velocity":0.5669291338582677,"duration":0.10625000000000284},{"name":"D3","midi":50,"time":56.95625,"velocity":0.5669291338582677,"duration":0.7333333333333201},{"name":"F4","midi":65,"time":56.95625,"velocity":0.5669291338582677,"duration":0.10208333333333286},{"name":"G4","midi":67,"time":57.06041666666666,"velocity":0.5669291338582677,"duration":0.1041666666666643},{"name":"A4","midi":69,"time":57.164583333333326,"velocity":0.5826771653543307,"duration":0.10208333333333286},{"name":"B4","midi":71,"time":57.26874999999999,"velocity":0.5826771653543307,"duration":0.11041666666666572},{"name":"C#5","midi":73,"time":57.372916666666654,"velocity":0.5826771653543307,"duration":0.11041666666666572},{"name":"D5","midi":74,"time":57.47499999999999,"velocity":0.5826771653543307,"duration":0.1145833333333286},{"name":"F5","midi":77,"time":57.57916666666665,"velocity":0.5826771653543307,"duration":0.21875},{"name":"A3","midi":57,"time":57.69166666666665,"velocity":0.5669291338582677,"duration":3.5666666666666487},{"name":"D5","midi":74,"time":57.79791666666665,"velocity":0.5826771653543307,"duration":0.2187499999999929},{"name":"B3","midi":59,"time":57.79999999999998,"velocity":0.5669291338582677,"duration":0.1041666666666643},{"name":"C#4","midi":61,"time":57.90624999999998,"velocity":0.5669291338582677,"duration":0.10833333333333428},{"name":"B4","midi":71,"time":58.016666666666644,"velocity":0.5826771653543307,"duration":0.8958333333333215},{"name":"D4","midi":62,"time":58.018749999999976,"velocity":0.5669291338582677,"duration":0.10208333333333286},{"name":"E4","midi":64,"time":58.12291666666664,"velocity":0.5669291338582677,"duration":0.10625000000000284},{"name":"A5","midi":81,"time":58.22916666666664,"velocity":0.5354330708661418,"duration":0.1041666666666643},{"name":"F4","midi":65,"time":58.231249999999974,"velocity":0.5669291338582677,"duration":0.20416666666666572},{"name":"G#5","midi":80,"time":58.33333333333331,"velocity":0.5354330708661418,"duration":0.10208333333333286},{"name":"A5","midi":81,"time":58.43749999999997,"velocity":0.5354330708661418,"duration":0.10625000000000284},{"name":"E4","midi":64,"time":58.43749999999997,"velocity":0.5669291338582677,"duration":0.21458333333333712},{"name":"G#5","midi":80,"time":58.543749999999974,"velocity":0.5354330708661418,"duration":0.10625000000000284},{"name":"A5","midi":81,"time":58.65208333333331,"velocity":0.5354330708661418,"duration":0.11249999999999716},{"name":"D4","midi":62,"time":58.65416666666664,"velocity":0.5669291338582677,"duration":0.2562499999999943},{"name":"G#5","midi":80,"time":58.76666666666664,"velocity":0.5354330708661418,"duration":0.1458333333333286},{"name":"A5","midi":81,"time":58.9020833333333,"velocity":0.3543307086614173,"duration":2.5479166666666586},{"name":"C#5","midi":73,"time":58.90416666666663,"velocity":0.4094488188976378,"duration":2.5437499999999957},{"name":"E5","midi":76,"time":58.90416666666663,"velocity":0.4094488188976378,"duration":2.545833333333327},{"name":"E4","midi":64,"time":58.906249999999964,"velocity":0.5118110236220472,"duration":2.5416666666666643},{"name":"A4","midi":69,"time":62.89374999999996,"velocity":0.5590551181102362,"duration":0.12083333333333002},{"name":"G#4","midi":68,"time":63.01458333333329,"velocity":0.5590551181102362,"duration":0.11666666666666714},{"name":"A4","midi":69,"time":63.13333333333329,"velocity":0.5590551181102362,"duration":0.23541666666666572},{"name":"B4","midi":71,"time":63.368749999999956,"velocity":0.5354330708661418,"duration":0.23541666666666572},{"name":"C5","midi":72,"time":63.60416666666662,"velocity":0.5354330708661418,"duration":0.23333333333333428},{"name":"C5","midi":72,"time":63.83958333333329,"velocity":0.5354330708661418,"duration":0.11666666666666714},{"name":"B4","midi":71,"time":63.956249999999955,"velocity":0.5354330708661418,"duration":0.11666666666666003},{"name":"C5","midi":72,"time":64.07291666666661,"velocity":0.5354330708661418,"duration":0.23333333333333428},{"name":"D5","midi":74,"time":64.30624999999995,"velocity":0.5354330708661418,"duration":0.23541666666666572},{"name":"E5","midi":76,"time":64.54374999999995,"velocity":0.5354330708661418,"duration":0.11666666666666003},{"name":"D5","midi":74,"time":64.6604166666666,"velocity":0.5354330708661418,"duration":0.11875000000000568},{"name":"C5","midi":72,"time":64.78124999999994,"velocity":0.5354330708661418,"duration":0.11666666666666003},{"name":"D5","midi":74,"time":64.89999999999993,"velocity":0.5354330708661418,"duration":0.11875000000000568},{"name":"E5","midi":76,"time":65.02083333333327,"velocity":0.5354330708661418,"duration":0.23541666666666572},{"name":"F5","midi":77,"time":65.25624999999994,"velocity":0.5354330708661418,"duration":0.23749999999999716},{"name":"G#4","midi":68,"time":65.49583333333327,"velocity":0.5590551181102362,"duration":0.23749999999999716},{"name":"E4","midi":64,"time":65.73333333333326,"velocity":0.5590551181102362,"duration":0.23749999999999716},{"name":"A4","midi":69,"time":66.20833333333326,"velocity":0.5590551181102362,"duration":0.2395833333333286},{"name":"B4","midi":71,"time":66.44791666666659,"velocity":0.5354330708661418,"duration":0.11666666666666003},{"name":"C5","midi":72,"time":66.56666666666658,"velocity":0.5354330708661418,"duration":0.11875000000000568},{"name":"A4","midi":69,"time":66.68541666666658,"velocity":0.5590551181102362,"duration":0.11875000000000568},{"name":"B4","midi":71,"time":66.80624999999992,"velocity":0.5354330708661418,"duration":0.11666666666666003},{"name":"C5","midi":72,"time":66.92499999999991,"velocity":0.5354330708661418,"duration":0.11875000000000568},{"name":"D5","midi":74,"time":67.04374999999992,"velocity":0.5354330708661418,"duration":0.11666666666666003},{"name":"B4","midi":71,"time":67.16249999999991,"velocity":0.5354330708661418,"duration":0.11875000000000568},{"name":"C5","midi":72,"time":67.28124999999991,"velocity":0.5354330708661418,"duration":0.11875000000000568},{"name":"D5","midi":74,"time":67.39999999999992,"velocity":0.5354330708661418,"duration":0.2395833333333286},{"name":"C5","midi":72,"time":67.63958333333325,"velocity":0.5354330708661418,"duration":0.23749999999999716},{"name":"B4","midi":71,"time":67.87708333333325,"velocity":0.5354330708661418,"duration":0.23749999999999716},{"name":"E5","midi":76,"time":68.11666666666657,"velocity":0.5354330708661418,"duration":0.23541666666666572},{"name":"A4","midi":69,"time":68.35416666666657,"velocity":0.5590551181102362,"duration":0.46666666666665435},{"name":"E4","midi":64,"time":68.5874999999999,"velocity":0.5590551181102362,"duration":0.11249999999999716},{"name":"D#4","midi":63,"time":68.70416666666657,"velocity":0.5590551181102362,"duration":0.1145833333333286},{"name":"E4","midi":64,"time":68.82291666666656,"velocity":0.5590551181102362,"duration":0.22291666666666288},{"name":"G4","midi":67,"time":68.82291666666656,"velocity":0.5590551181102362,"duration":0.23125000000000284},{"name":"F#4","midi":66,"time":69.05624999999989,"velocity":0.5590551181102362,"duration":0.23541666666666572},{"name":"E4","midi":64,"time":69.29166666666656,"velocity":0.5590551181102362,"duration":0.23333333333333428},{"name":"G4","midi":67,"time":69.29374999999989,"velocity":0.5590551181102362,"duration":0.21875},{"name":"C5","midi":72,"time":69.52708333333322,"velocity":0.5590551181102362,"duration":0.23333333333332007},{"name":"G4","midi":67,"time":69.52708333333322,"velocity":0.5590551181102362,"duration":0.11249999999999716},{"name":"F#4","midi":66,"time":69.64374999999988,"velocity":0.5590551181102362,"duration":0.1145833333333286},{"name":"B4","midi":71,"time":69.76041666666654,"velocity":0.5590551181102362,"duration":0.23333333333333428},{"name":"G4","midi":67,"time":69.76249999999987,"velocity":0.5590551181102362,"duration":0.25},{"name":"A4","midi":69,"time":69.99583333333321,"velocity":0.5590551181102362,"duration":0.2291666666666714},{"name":"G4","midi":67,"time":70.22708333333321,"velocity":0.5669291338582677,"duration":0.11874999999999147},{"name":"B4","midi":71,"time":70.22916666666654,"velocity":0.5590551181102362,"duration":0.11666666666666003},{"name":"A4","midi":69,"time":70.34791666666653,"velocity":0.5590551181102362,"duration":0.11249999999999716},{"name":"F#4","midi":66,"time":70.34791666666653,"velocity":0.5669291338582677,"duration":0.1145833333333286},{"name":"G4","midi":67,"time":70.46249999999986,"velocity":0.5669291338582677,"duration":0.1145833333333286},{"name":"E4","midi":64,"time":70.4645833333332,"velocity":0.5669291338582677,"duration":0.1145833333333286},{"name":"A4","midi":69,"time":70.57916666666652,"velocity":0.5590551181102362,"duration":0.11666666666666003},{"name":"F#4","midi":66,"time":70.58124999999986,"velocity":0.5669291338582677,"duration":0.11666666666666003},{"name":"B4","midi":71,"time":70.69999999999985,"velocity":0.5590551181102362,"duration":0.22708333333333997},{"name":"G4","midi":67,"time":70.69999999999985,"velocity":0.5669291338582677,"duration":0.23125000000000284},{"name":"C5","midi":72,"time":70.93124999999985,"velocity":0.5590551181102362,"duration":0.25833333333332575},{"name":"A4","midi":69,"time":70.93333333333318,"velocity":0.5590551181102362,"duration":0.23333333333333428},{"name":"B4","midi":71,"time":71.16666666666652,"velocity":0.5590551181102362,"duration":0.11666666666666003},{"name":"D#4","midi":63,"time":71.16874999999985,"velocity":0.5669291338582677,"duration":0.23124999999998863},{"name":"A4","midi":69,"time":71.2854166666665,"velocity":0.5590551181102362,"duration":0.1145833333333286},{"name":"G4","midi":67,"time":71.40208333333317,"velocity":0.5669291338582677,"duration":0.11666666666666003},{"name":"B3","midi":59,"time":71.40208333333317,"velocity":0.5669291338582677,"duration":0.23333333333332007},{"name":"A4","midi":69,"time":71.51874999999983,"velocity":0.5590551181102362,"duration":0.1145833333333286},{"name":"B4","midi":71,"time":71.63541666666649,"velocity":0.5590551181102362,"duration":0.23541666666666572},{"name":"C5","midi":72,"time":71.87083333333315,"velocity":0.5590551181102362,"duration":0.4687499999999858},{"name":"E4","midi":64,"time":71.87291666666648,"velocity":0.5669291338582677,"duration":0.23125000000000284},{"name":"F#4","midi":66,"time":72.10416666666649,"velocity":0.5669291338582677,"duration":0.11666666666666003},{"name":"G4","midi":67,"time":72.22083333333315,"velocity":0.5669291338582677,"duration":0.11666666666666003},{"name":"B4","midi":71,"time":72.33958333333314,"velocity":0.5590551181102362,"duration":0.11666666666666003},{"name":"E4","midi":64,"time":72.34166666666647,"velocity":0.5669291338582677,"duration":0.1145833333333286},{"name":"A4","midi":69,"time":72.45833333333313,"velocity":0.5590551181102362,"duration":0.1145833333333286},{"name":"F#4","midi":66,"time":72.45833333333313,"velocity":0.5669291338582677,"duration":0.1145833333333286},{"name":"B4","midi":71,"time":72.57499999999979,"velocity":0.5590551181102362,"duration":0.23124999999998863},{"name":"G4","midi":67,"time":72.57499999999979,"velocity":0.5669291338582677,"duration":0.1145833333333286},{"name":"A4","midi":69,"time":72.69166666666645,"velocity":0.5590551181102362,"duration":0.1145833333333286},{"name":"E5","midi":76,"time":72.80833333333311,"velocity":0.4881889763779528,"duration":0.4687499999999858},{"name":"F#4","midi":66,"time":72.80833333333311,"velocity":0.5669291338582677,"duration":0.11666666666666003},{"name":"G4","midi":67,"time":72.92499999999977,"velocity":0.5669291338582677,"duration":0.11666666666666003},{"name":"A4","midi":69,"time":73.04374999999976,"velocity":0.5590551181102362,"duration":0.23125000000000284},{"name":"D5","midi":74,"time":73.2770833333331,"velocity":0.5590551181102362,"duration":0.1145833333333286},{"name":"G4","midi":67,"time":73.27916666666643,"velocity":0.5669291338582677,"duration":0.23124999999998863},{"name":"C#5","midi":73,"time":73.39374999999976,"velocity":0.5590551181102362,"duration":0.11666666666666003},{"name":"D5","midi":74,"time":73.51249999999975,"velocity":0.5590551181102362,"duration":0.7020833333333343},{"name":"F#4","midi":66,"time":73.51249999999975,"velocity":0.5669291338582677,"duration":0.23125000000000284},{"name":"B4","midi":71,"time":73.74583333333308,"velocity":0.5590551181102362,"duration":0.23125000000000284},{"name":"E4","midi":64,"time":73.97916666666642,"velocity":0.5669291338582677,"duration":0.23541666666666572},{"name":"C5","midi":72,"time":74.21666666666641,"velocity":0.5590551181102362,"duration":0.11666666666666003},{"name":"F#4","midi":66,"time":74.21666666666641,"velocity":0.5669291338582677,"duration":0.1145833333333286},{"name":"G#4","midi":68,"time":74.33333333333307,"velocity":0.5590551181102362,"duration":0.11666666666666003},{"name":"B4","midi":71,"time":74.3354166666664,"velocity":0.5590551181102362,"duration":0.11249999999999716},{"name":"C5","midi":72,"time":74.44999999999973,"velocity":0.5590551181102362,"duration":0.3499999999999801},{"name":"A4","midi":69,"time":74.44999999999973,"velocity":0.5590551181102362,"duration":0.11666666666666003},{"name":"B4","midi":71,"time":74.56666666666639,"velocity":0.5590551181102362,"duration":0.1145833333333286},{"name":"C5","midi":72,"time":74.68333333333305,"velocity":0.5590551181102362,"duration":0.3499999999999943},{"name":"D5","midi":74,"time":74.79999999999971,"velocity":0.5590551181102362,"duration":0.11875000000000568},{"name":"E5","midi":76,"time":74.91874999999972,"velocity":0.4881889763779528,"duration":0.23333333333332007},{"name":"A5","midi":81,"time":75.03541666666638,"velocity":0.4409448818897638,"duration":0.11666666666666003},{"name":"A4","midi":69,"time":75.15416666666637,"velocity":0.5590551181102362,"duration":0.23333333333333428},{"name":"G5","midi":79,"time":75.15416666666637,"velocity":0.4409448818897638,"duration":0.1145833333333286},{"name":"F5","midi":77,"time":75.2687499999997,"velocity":0.4881889763779528,"duration":0.11875000000000568},{"name":"G#4","midi":68,"time":75.3874999999997,"velocity":0.5590551181102362,"duration":0.4687499999999858},{"name":"E5","midi":76,"time":75.38958333333304,"velocity":0.4881889763779528,"duration":0.1145833333333286},{"name":"D5","midi":74,"time":75.50416666666636,"velocity":0.5590551181102362,"duration":0.11666666666666003},{"name":"C5","midi":72,"time":75.62083333333302,"velocity":0.5590551181102362,"duration":0.11875000000000568},{"name":"B4","midi":71,"time":75.73958333333303,"velocity":0.5826771653543307,"duration":0.1145833333333286},{"name":"A4","midi":69,"time":75.85624999999969,"velocity":0.5826771653543307,"duration":0.2395833333333428},{"name":"C5","midi":72,"time":75.85624999999969,"velocity":0.5826771653543307,"duration":0.11875000000000568},{"name":"B4","midi":71,"time":75.9749999999997,"velocity":0.5826771653543307,"duration":0.11875000000000568},{"name":"C5","midi":72,"time":76.09791666666636,"velocity":0.5826771653543307,"duration":0.47708333333332575},{"name":"A4","midi":69,"time":76.09791666666636,"velocity":0.5826771653543307,"duration":0.23749999999999716},{"name":"A2","midi":45,"time":76.09791666666636,"velocity":0.5669291338582677,"duration":0.11666666666666003},{"name":"G#2","midi":44,"time":76.21666666666636,"velocity":0.5669291338582677,"duration":0.11875000000000568},{"name":"G4","midi":67,"time":76.3374999999997,"velocity":0.5669291338582677,"duration":0.23749999999999716},{"name":"A2","midi":45,"time":76.3374999999997,"velocity":0.5669291338582677,"duration":0.23541666666666572},{"name":"D5","midi":74,"time":76.57499999999969,"velocity":0.5826771653543307,"duration":0.23541666666666572},{"name":"F4","midi":65,"time":76.57708333333302,"velocity":0.5669291338582677,"duration":0.23333333333333428},{"name":"B2","midi":47,"time":76.57708333333302,"velocity":0.5669291338582677,"duration":0.23125000000000284},{"name":"E4","midi":64,"time":76.81249999999969,"velocity":0.5669291338582677,"duration":0.23541666666666572},{"name":"C3","midi":48,"time":76.81249999999969,"velocity":0.5669291338582677,"duration":0.23333333333333428},{"name":"D4","midi":62,"time":76.92708333333302,"velocity":0.5669291338582677,"duration":0.11875000000000568},{"name":"C5","midi":72,"time":77.04791666666635,"velocity":0.6062992125984252,"duration":0.23541666666666572},{"name":"E4","midi":64,"time":77.04999999999968,"velocity":0.5669291338582677,"duration":0.47083333333333144},{"name":"C3","midi":48,"time":77.04999999999968,"velocity":0.5669291338582677,"duration":0.11249999999999716},{"name":"B2","midi":47,"time":77.16458333333301,"velocity":0.5669291338582677,"duration":0.11875000000000568},{"name":"B4","midi":71,"time":77.28541666666635,"velocity":0.6062992125984252,"duration":0.23541666666666572},{"name":"C3","midi":48,"time":77.28541666666635,"velocity":0.5669291338582677,"duration":0.23333333333333428},{"name":"A4","midi":69,"time":77.52291666666635,"velocity":0.6062992125984252,"duration":0.23333333333333428},{"name":"F4","midi":65,"time":77.52291666666635,"velocity":0.5669291338582677,"duration":0.35208333333332575},{"name":"D3","midi":50,"time":77.52499999999968,"velocity":0.5669291338582677,"duration":0.2291666666666714},{"name":"G#4","midi":68,"time":77.75624999999968,"velocity":0.6062992125984252,"duration":0.23749999999998295},{"name":"E3","midi":52,"time":77.75833333333301,"velocity":0.5669291338582677,"duration":0.1145833333333286},{"name":"D3","midi":50,"time":77.87499999999967,"velocity":0.5669291338582677,"duration":0.11666666666666003},{"name":"F#4","midi":66,"time":77.87499999999967,"velocity":0.5669291338582677,"duration":0.11666666666666003},{"name":"E5","midi":76,"time":77.99374999999966,"velocity":0.5433070866141733,"duration":0.2354166666666515},{"name":"E4","midi":64,"time":77.995833333333,"velocity":0.5669291338582677,"duration":0.1145833333333286},{"name":"C3","midi":48,"time":77.995833333333,"velocity":0.5669291338582677,"duration":0.11249999999999716},{"name":"D3","midi":50,"time":78.11041666666632,"velocity":0.5669291338582677,"duration":0.11666666666666003},{"name":"F#4","midi":66,"time":78.11249999999966,"velocity":0.5669291338582677,"duration":0.1145833333333286},{"name":"D5","midi":74,"time":78.22916666666632,"velocity":0.6062992125984252,"duration":0.23541666666666572},{"name":"G#4","midi":68,"time":78.23124999999965,"velocity":0.6062992125984252,"duration":0.23333333333333428},{"name":"E3","midi":52,"time":78.23124999999965,"velocity":0.5669291338582677,"duration":0.23125000000000284},{"name":"A4","midi":69,"time":78.46666666666631,"velocity":0.6062992125984252,"duration":0.23333333333333428},{"name":"C5","midi":72,"time":78.46666666666631,"velocity":0.6062992125984252,"duration":0.23333333333333428},{"name":"F3","midi":53,"time":78.46874999999964,"velocity":0.5669291338582677,"duration":0.23125000000000284},{"name":"B4","midi":71,"time":78.70208333333298,"velocity":0.6062992125984252,"duration":0.4687499999999858},{"name":"G#2","midi":44,"time":78.70208333333298,"velocity":0.5669291338582677,"duration":0.23333333333333428},{"name":"C5","midi":72,"time":78.81666666666631,"velocity":0.6062992125984252,"duration":0.11875000000000568},{"name":"D5","midi":74,"time":78.93749999999964,"velocity":0.6062992125984252,"duration":0.1145833333333286},{"name":"E2","midi":40,"time":78.93749999999964,"velocity":0.5669291338582677,"duration":0.2354166666666515},{"name":"B4","midi":71,"time":79.0541666666663,"velocity":0.6062992125984252,"duration":0.11874999999999147},{"name":"C5","midi":72,"time":79.17499999999963,"velocity":0.6062992125984252,"duration":0.1145833333333286},{"name":"B4","midi":71,"time":79.28958333333296,"velocity":0.6062992125984252,"duration":0.11666666666666003},{"name":"A4","midi":69,"time":79.40833333333295,"velocity":0.6062992125984252,"duration":0.2395833333333428},{"name":"A2","midi":45,"time":79.40833333333295,"velocity":0.5669291338582677,"duration":0.23750000000001137},{"name":"C5","midi":72,"time":79.52708333333295,"velocity":0.6062992125984252,"duration":0.11875000000000568},{"name":"D5","midi":74,"time":79.64791666666629,"velocity":0.6062992125984252,"duration":0.11874999999999147},{"name":"G4","midi":67,"time":79.64999999999962,"velocity":0.5669291338582677,"duration":0.5999999999999801},{"name":"B2","midi":47,"time":79.64999999999962,"velocity":0.5669291338582677,"duration":0.1145833333333286},{"name":"E5","midi":76,"time":79.76666666666628,"velocity":0.5433070866141733,"duration":0.12083333333333712},{"name":"C3","midi":48,"time":79.76874999999961,"velocity":0.5669291338582677,"duration":0.11875000000000568},{"name":"F5","midi":77,"time":79.88958333333295,"velocity":0.5433070866141733,"duration":0.11874999999999147},{"name":"A2","midi":45,"time":79.88958333333295,"velocity":0.5669291338582677,"duration":0.11666666666666003},{"name":"D5","midi":74,"time":80.00833333333294,"velocity":0.6062992125984252,"duration":0.12291666666666856},{"name":"B2","midi":47,"time":80.01041666666627,"velocity":0.5669291338582677,"duration":0.11875000000000568},{"name":"E5","midi":76,"time":80.13124999999961,"velocity":0.5433070866141733,"duration":0.7291666666666572},{"name":"C#3","midi":49,"time":80.13333333333294,"velocity":0.5669291338582677,"duration":0.11666666666666003},{"name":"D3","midi":50,"time":80.2499999999996,"velocity":0.5669291338582677,"duration":0.12291666666666856},{"name":"F4","midi":65,"time":80.25208333333293,"velocity":0.5669291338582677,"duration":0.11875000000000568},{"name":"E4","midi":64,"time":80.37291666666627,"velocity":0.5669291338582677,"duration":0.12083333333332291},{"name":"B2","midi":47,"time":80.3749999999996,"velocity":0.5669291338582677,"duration":0.11666666666666003},{"name":"G4","midi":67,"time":80.4937499999996,"velocity":0.5669291338582677,"duration":0.12083333333333712},{"name":"C#3","midi":49,"time":80.4937499999996,"velocity":0.5669291338582677,"duration":0.12083333333333712},{"name":"D3","midi":50,"time":80.61458333333293,"velocity":0.5669291338582677,"duration":0.24583333333333712},{"name":"F#4","midi":66,"time":80.61666666666626,"velocity":0.5669291338582677,"duration":0.4854166666666657},{"name":"A4","midi":69,"time":80.86041666666627,"velocity":0.6062992125984252,"duration":0.24166666666666003},{"name":"C3","midi":48,"time":80.8624999999996,"velocity":0.5669291338582677,"duration":0.2395833333333286},{"name":"B4","midi":71,"time":81.10416666666626,"velocity":0.6062992125984252,"duration":0.12083333333333712},{"name":"G#4","midi":68,"time":81.10624999999959,"velocity":0.6062992125984252,"duration":0.4854166666666657},{"name":"B2","midi":47,"time":81.10624999999959,"velocity":0.5669291338582677,"duration":0.24166666666667425},{"name":"C5","midi":72,"time":81.2249999999996,"velocity":0.6062992125984252,"duration":0.12083333333333712},{"name":"D5","midi":74,"time":81.34791666666626,"velocity":0.6062992125984252,"duration":0.48749999999999716},{"name":"E3","midi":52,"time":81.3499999999996,"velocity":0.5669291338582677,"duration":0.2395833333333286},{"name":"A4","midi":69,"time":81.59166666666626,"velocity":0.6062992125984252,"duration":0.24375000000000568},{"name":"A2","midi":45,"time":81.59374999999959,"velocity":0.5669291338582677,"duration":0.2395833333333428},{"name":"A4","midi":69,"time":81.8374999999996,"velocity":0.6062992125984252,"duration":0.24166666666666003},{"name":"C5","midi":72,"time":81.8374999999996,"velocity":0.6062992125984252,"duration":0.24374999999999147},{"name":"E3","midi":52,"time":81.8374999999996,"velocity":0.5669291338582677,"duration":0.11874999999999147},{"name":"B2","midi":47,"time":81.83958333333293,"velocity":0.5669291338582677,"duration":0.2395833333333286},{"name":"D#3","midi":51,"time":81.95624999999959,"velocity":0.5669291338582677,"duration":0.12083333333333712},{"name":"B4","midi":71,"time":82.08124999999959,"velocity":0.6062992125984252,"duration":0.24374999999999147},{"name":"G4","midi":67,"time":82.08333333333292,"velocity":0.5669291338582677,"duration":0.24166666666666003},{"name":"E3","midi":52,"time":82.08333333333292,"velocity":0.5669291338582677,"duration":0.2395833333333286},{"name":"C#3","midi":49,"time":82.08541666666625,"velocity":0.5669291338582677,"duration":0.23749999999999716},{"name":"A4","midi":69,"time":82.32499999999958,"velocity":0.6062992125984252,"duration":0.2458333333333229},{"name":"D#3","midi":51,"time":82.32708333333291,"velocity":0.5669291338582677,"duration":0.24166666666666003},{"name":"F#3","midi":54,"time":82.32708333333291,"velocity":0.5669291338582677,"duration":0.24166666666666003},{"name":"F#4","midi":66,"time":82.32708333333291,"velocity":0.5669291338582677,"duration":0.24374999999999147},{"name":"G4","midi":67,"time":82.57291666666623,"velocity":0.5669291338582677,"duration":0.24374999999999147},{"name":"E4","midi":64,"time":82.57291666666623,"velocity":0.5669291338582677,"duration":0.24374999999999147},{"name":"G3","midi":55,"time":82.57499999999956,"velocity":0.5669291338582677,"duration":0.2395833333333286},{"name":"E3","midi":52,"time":82.57499999999956,"velocity":0.5669291338582677,"duration":0.2395833333333286},{"name":"C5","midi":72,"time":82.81874999999955,"velocity":0.6062992125984252,"duration":0.24374999999999147},{"name":"E5","midi":76,"time":82.81874999999955,"velocity":0.5433070866141733,"duration":0.24374999999999147},{"name":"G3","midi":55,"time":82.82083333333289,"velocity":0.5669291338582677,"duration":0.11874999999999147},{"name":"E3","midi":52,"time":82.82083333333289,"velocity":0.5669291338582677,"duration":0.11666666666666003},{"name":"D3","midi":50,"time":82.93958333333288,"velocity":0.5669291338582677,"duration":0.12083333333333712},{"name":"F#3","midi":54,"time":82.94166666666621,"velocity":0.5669291338582677,"duration":0.11875000000000568},{"name":"D5","midi":74,"time":83.06458333333288,"velocity":0.6062992125984252,"duration":0.2458333333333229},{"name":"B4","midi":71,"time":83.06458333333288,"velocity":0.6062992125984252,"duration":0.2458333333333229},{"name":"G3","midi":55,"time":83.06666666666621,"velocity":0.5669291338582677,"duration":0.24166666666666003},{"name":"E3","midi":52,"time":83.06666666666621,"velocity":0.5669291338582677,"duration":0.24166666666666003},{"name":"A4","midi":69,"time":83.31249999999953,"velocity":0.6062992125984252,"duration":0.2458333333333229},{"name":"C5","midi":72,"time":83.31249999999953,"velocity":0.6062992125984252,"duration":0.2458333333333229},{"name":"F#3","midi":54,"time":83.31458333333286,"velocity":0.5669291338582677,"duration":0.24166666666666003},{"name":"A3","midi":57,"time":83.31458333333286,"velocity":0.5669291338582677,"duration":0.24166666666666003},{"name":"B4","midi":71,"time":83.56041666666619,"velocity":0.6062992125984252,"duration":0.48749999999998295},{"name":"G4","midi":67,"time":83.56041666666619,"velocity":0.5669291338582677,"duration":0.12083333333332291},{"name":"G3","midi":55,"time":83.56249999999952,"velocity":0.5669291338582677,"duration":0.36249999999999716},{"name":"B3","midi":59,"time":83.56249999999952,"velocity":0.5669291338582677,"duration":0.11666666666666003},{"name":"A3","midi":57,"time":83.68124999999951,"velocity":0.5669291338582677,"duration":0.12083333333333712},{"name":"F#4","midi":66,"time":83.68333333333284,"velocity":0.5669291338582677,"duration":0.11875000000000568},{"name":"G3","midi":55,"time":83.80416666666618,"velocity":0.5669291338582677,"duration":0.24166666666666003},{"name":"E4","midi":64,"time":83.80416666666618,"velocity":0.5669291338582677,"duration":0.12083333333333712},{"name":"A3","midi":57,"time":83.92499999999951,"velocity":0.5669291338582677,"duration":0.12083333333332291},{"name":"F#4","midi":66,"time":83.92708333333285,"velocity":0.5669291338582677,"duration":0.11666666666666003},{"name":"B3","midi":59,"time":84.04791666666617,"velocity":0.5669291338582677,"duration":0.24166666666666003},{"name":"G4","midi":67,"time":84.0499999999995,"velocity":0.5669291338582677,"duration":0.23749999999999716},{"name":"A4","midi":69,"time":84.28958333333283,"velocity":0.6062992125984252,"duration":0.48749999999998295},{"name":"C4","midi":60,"time":84.29166666666616,"velocity":0.5669291338582677,"duration":0.2395833333333286},{"name":"F#4","midi":66,"time":84.29166666666616,"velocity":0.5669291338582677,"duration":0.48333333333332007},{"name":"A3","midi":57,"time":84.29374999999949,"velocity":0.5669291338582677,"duration":0.23541666666666572},{"name":"B3","midi":59,"time":84.53124999999949,"velocity":0.5669291338582677,"duration":0.24374999999999147},{"name":"D#3","midi":51,"time":84.53333333333282,"velocity":0.5669291338582677,"duration":0.24166666666666003},{"name":"G4","midi":67,"time":84.77708333333281,"velocity":0.5669291338582677,"duration":0.12083333333332291},{"name":"E4","midi":64,"time":84.77916666666614,"velocity":0.5669291338582677,"duration":0.11874999999999147},{"name":"B2","midi":47,"time":84.77916666666614,"velocity":0.5669291338582677,"duration":0.11666666666666003},{"name":"D#4","midi":63,"time":84.89999999999947,"velocity":0.5669291338582677,"duration":0.12083333333333712},{"name":"F#4","midi":66,"time":84.89999999999947,"velocity":0.5669291338582677,"duration":0.12083333333333712},{"name":"A2","midi":45,"time":84.89999999999947,"velocity":0.5669291338582677,"duration":0.11875000000000568},{"name":"E4","midi":64,"time":85.02291666666613,"velocity":0.5669291338582677,"duration":0.720833333333303},{"name":"G4","midi":67,"time":85.02291666666613,"velocity":0.5669291338582677,"duration":0.1145833333333286},{"name":"G2","midi":43,"time":85.02291666666613,"velocity":0.5669291338582677,"duration":0.23749999999999716},{"name":"A4","midi":69,"time":85.1395833333328,"velocity":0.6062992125984252,"duration":0.12083333333333712},{"name":"B4","midi":71,"time":85.26249999999946,"velocity":0.6062992125984252,"duration":0.11666666666666003},{"name":"E3","midi":52,"time":85.26249999999946,"velocity":0.5669291338582677,"duration":0.24166666666666003},{"name":"E2","midi":40,"time":85.2645833333328,"velocity":0.5669291338582677,"duration":0.2395833333333286},{"name":"G4","midi":67,"time":85.38124999999945,"velocity":0.5669291338582677,"duration":0.12083333333333712},{"name":"C5","midi":72,"time":85.50416666666612,"velocity":0.6062992125984252,"duration":0.47708333333329733},{"name":"F#3","midi":54,"time":85.50624999999945,"velocity":0.5669291338582677,"duration":0.11666666666666003},{"name":"A2","midi":45,"time":85.50624999999945,"velocity":0.5669291338582677,"duration":0.47291666666663446},{"name":"G3","midi":55,"time":85.62499999999945,"velocity":0.5669291338582677,"duration":0.11666666666666003},{"name":"A4","midi":69,"time":85.74374999999944,"velocity":0.6062992125984252,"duration":0.11666666666666003},{"name":"E3","midi":52,"time":85.74583333333277,"velocity":0.5669291338582677,"duration":0.1145833333333286},{"name":"F#3","midi":54,"time":85.86249999999943,"velocity":0.5669291338582677,"duration":0.11666666666666003},{"name":"D#4","midi":63,"time":85.86249999999943,"velocity":0.5669291338582677,"duration":0.11666666666666003},{"name":"E4","midi":64,"time":85.98333333333275,"velocity":0.5669291338582677,"duration":1.1895833333332746},{"name":"G3","midi":55,"time":85.98333333333275,"velocity":0.5669291338582677,"duration":0.1145833333333286},{"name":"B2","midi":47,"time":85.98333333333275,"velocity":0.5669291338582677,"duration":0.4708333333333172},{"name":"A3","midi":57,"time":86.09791666666608,"velocity":0.5669291338582677,"duration":0.11666666666666003},{"name":"B4","midi":71,"time":86.21666666666607,"velocity":0.6062992125984252,"duration":0.23749999999999716},{"name":"F#3","midi":54,"time":86.21666666666607,"velocity":0.5669291338582677,"duration":0.11875000000000568},{"name":"G3","midi":55,"time":86.33541666666608,"velocity":0.5669291338582677,"duration":0.11666666666666003},{"name":"A4","midi":69,"time":86.4562499999994,"velocity":0.6062992125984252,"duration":0.11666666666666003},{"name":"A3","midi":57,"time":86.4562499999994,"velocity":0.5669291338582677,"duration":0.23749999999998295},{"name":"C3","midi":48,"time":86.45833333333273,"velocity":0.5669291338582677,"duration":0.23333333333332007},{"name":"G4","midi":67,"time":86.57499999999939,"velocity":0.5669291338582677,"duration":0.11666666666666003},{"name":"A4","midi":69,"time":86.69374999999938,"velocity":0.6062992125984252,"duration":0.11666666666666003},{"name":"G3","midi":55,"time":86.69374999999938,"velocity":0.5669291338582677,"duration":0.23749999999998295},{"name":"B2","midi":47,"time":86.69583333333271,"velocity":0.5669291338582677,"duration":0.23333333333332007},{"name":"B4","midi":71,"time":86.81249999999937,"velocity":0.6062992125984252,"duration":0.11666666666666003},{"name":"C5","midi":72,"time":86.93124999999937,"velocity":0.6062992125984252,"duration":0.2395833333333286},{"name":"F#3","midi":54,"time":86.9333333333327,"velocity":0.5669291338582677,"duration":0.23749999999999716},{"name":"A2","midi":45,"time":86.9333333333327,"velocity":0.5669291338582677,"duration":0.23541666666666572},{"name":"F#4","midi":66,"time":87.17291666666603,"velocity":0.5669291338582677,"duration":0.24166666666666003},{"name":"D#4","midi":63,"time":87.17499999999936,"velocity":0.5669291338582677,"duration":0.23749999999999716},{"name":"B3","midi":59,"time":87.17499999999936,"velocity":0.5669291338582677,"duration":0.23749999999999716},{"name":"B2","midi":47,"time":87.17499999999936,"velocity":0.5669291338582677,"duration":0.1145833333333286},{"name":"A2","midi":45,"time":87.28958333333269,"velocity":0.5669291338582677,"duration":0.12083333333333712},{"name":"B4","midi":71,"time":87.41458333333269,"velocity":0.6062992125984252,"duration":0.11666666666666003},{"name":"E4","midi":64,"time":87.41666666666602,"velocity":0.5669291338582677,"duration":0.7208333333333172},{"name":"E3","midi":52,"time":87.41666666666602,"velocity":0.5669291338582677,"duration":0.48124999999998863},{"name":"G2","midi":43,"time":87.41874999999935,"velocity":0.5669291338582677,"duration":0.23541666666666572},{"name":"A4","midi":69,"time":87.53124999999935,"velocity":0.6062992125984252,"duration":0.12083333333333712},{"name":"C5","midi":72,"time":87.65416666666601,"velocity":0.6062992125984252,"duration":0.11874999999999147},{"name":"A2","midi":45,"time":87.65624999999935,"velocity":0.5669291338582677,"duration":0.2395833333333286},{"name":"B4","midi":71,"time":87.77499999999934,"velocity":0.6062992125984252,"duration":0.12083333333333712},{"name":"A4","midi":69,"time":87.897916666666,"velocity":0.6062992125984252,"duration":0.11666666666666003},{"name":"B3","midi":59,"time":87.89999999999934,"velocity":0.5669291338582677,"duration":0.23541666666666572},{"name":"B2","midi":47,"time":87.89999999999934,"velocity":0.5669291338582677,"duration":0.4791666666666572},{"name":"G4","midi":67,"time":88.016666666666,"velocity":0.5669291338582677,"duration":0.11875000000000568},{"name":"F#4","midi":66,"time":88.13749999999933,"velocity":0.5669291338582677,"duration":0.11874999999999147},{"name":"D#4","midi":63,"time":88.13958333333267,"velocity":0.5669291338582677,"duration":0.2395833333333286},{"name":"A3","midi":57,"time":88.13958333333267,"velocity":0.5669291338582677,"duration":0.23749999999999716},{"name":"G4","midi":67,"time":88.25833333333266,"velocity":0.5669291338582677,"duration":0.11875000000000568},{"name":"E4","midi":64,"time":88.38124999999933,"velocity":0.5669291338582677,"duration":0.2395833333333286},{"name":"E3","midi":52,"time":88.38124999999933,"velocity":0.5669291338582677,"duration":0.2395833333333286},{"name":"G#3","midi":56,"time":88.38333333333266,"velocity":0.5669291338582677,"duration":0.23541666666666572},{"name":"E5","midi":76,"time":88.62291666666599,"velocity":0.5748031496062992,"duration":0.11874999999999147},{"name":"E3","midi":52,"time":88.62291666666599,"velocity":0.5669291338582677,"duration":0.2395833333333286},{"name":"D3","midi":50,"time":88.62499999999932,"velocity":0.5669291338582677,"duration":0.23749999999999716},{"name":"F5","midi":77,"time":88.74166666666598,"velocity":0.5748031496062992,"duration":0.11875000000000568},{"name":"E5","midi":76,"time":88.86458333333265,"velocity":0.5748031496062992,"duration":0.2395833333333286},{"name":"F#3","midi":54,"time":88.86458333333265,"velocity":0.5669291338582677,"duration":0.2395833333333286},{"name":"C3","midi":48,"time":88.86666666666598,"velocity":0.5669291338582677,"duration":0.23541666666666572},{"name":"D5","midi":74,"time":89.1062499999993,"velocity":0.6062992125984252,"duration":0.24166666666666003},{"name":"G#3","midi":56,"time":89.1062499999993,"velocity":0.5669291338582677,"duration":0.2395833333333286},{"name":"B2","midi":47,"time":89.10833333333264,"velocity":0.5669291338582677,"duration":0.23749999999999716},{"name":"C5","midi":72,"time":89.34791666666597,"velocity":0.6062992125984252,"duration":0.24166666666666003},{"name":"A3","midi":57,"time":89.3499999999993,"velocity":0.5669291338582677,"duration":0.23749999999999716},{"name":"A2","midi":45,"time":89.3499999999993,"velocity":0.5669291338582677,"duration":0.23749999999999716},{"name":"C5","midi":72,"time":89.58958333333263,"velocity":0.6062992125984252,"duration":0.1145833333333286},{"name":"E4","midi":64,"time":89.59166666666596,"velocity":0.5669291338582677,"duration":0.23541666666666572},{"name":"B3","midi":59,"time":89.59166666666596,"velocity":0.5669291338582677,"duration":0.23333333333333428},{"name":"D5","midi":74,"time":89.70624999999929,"velocity":0.6062992125984252,"duration":0.11875000000000568},{"name":"C5","midi":72,"time":89.82708333333262,"velocity":0.6062992125984252,"duration":0.2395833333333286},{"name":"A3","midi":57,"time":89.82916666666596,"velocity":0.5669291338582677,"duration":0.23541666666666572},{"name":"F#4","midi":66,"time":89.82916666666596,"velocity":0.5669291338582677,"duration":0.23749999999999716},{"name":"B4","midi":71,"time":90.06874999999928,"velocity":0.6062992125984252,"duration":0.2395833333333286},{"name":"G4","midi":67,"time":90.06874999999928,"velocity":0.5669291338582677,"duration":0.2395833333333286},{"name":"G3","midi":55,"time":90.07083333333262,"velocity":0.5669291338582677,"duration":0.23541666666666572},{"name":"A4","midi":69,"time":90.31041666666594,"velocity":0.6062992125984252,"duration":0.2395833333333286},{"name":"F#3","midi":54,"time":90.31041666666594,"velocity":0.5669291338582677,"duration":0.23749999999999716},{"name":"B4","midi":71,"time":90.4270833333326,"velocity":0.6062992125984252,"duration":0.12083333333333712},{"name":"C5","midi":72,"time":90.54999999999927,"velocity":0.6062992125984252,"duration":0.11874999999999147},{"name":"A3","midi":57,"time":90.54999999999927,"velocity":0.5669291338582677,"duration":0.24166666666666003},{"name":"G3","midi":55,"time":90.5520833333326,"velocity":0.5669291338582677,"duration":0.23749999999999716},{"name":"B4","midi":71,"time":90.6708333333326,"velocity":0.6062992125984252,"duration":0.11875000000000568},{"name":"A4","midi":69,"time":90.79374999999926,"velocity":0.6062992125984252,"duration":0.2395833333333286},{"name":"F#3","midi":54,"time":90.79374999999926,"velocity":0.5669291338582677,"duration":0.23749999999999716},{"name":"B3","midi":59,"time":90.79374999999926,"velocity":0.5669291338582677,"duration":0.2395833333333286},{"name":"G4","midi":67,"time":91.03541666666592,"velocity":0.5669291338582677,"duration":0.2395833333333286},{"name":"C#4","midi":61,"time":91.03541666666592,"velocity":0.5669291338582677,"duration":0.2395833333333286},{"name":"E3","midi":52,"time":91.03541666666592,"velocity":0.5669291338582677,"duration":0.2395833333333286},{"name":"F#5","midi":78,"time":91.27708333333258,"velocity":0.5748031496062992,"duration":0.24166666666666003},{"name":"D4","midi":62,"time":91.27708333333258,"velocity":0.5669291338582677,"duration":0.2395833333333286},{"name":"D3","midi":50,"time":91.27916666666592,"velocity":0.5669291338582677,"duration":0.23749999999999716},{"name":"A5","midi":81,"time":91.51874999999924,"velocity":0.5275590551181102,"duration":0.24166666666666003},{"name":"D4","midi":62,"time":91.52083333333258,"velocity":0.5669291338582677,"duration":0.23749999999999716},{"name":"E3","midi":52,"time":91.52083333333258,"velocity":0.5669291338582677,"duration":0.23749999999999716},{"name":"D3","midi":50,"time":91.7604166666659,"velocity":0.5669291338582677,"duration":0.2395833333333286},{"name":"E4","midi":64,"time":91.76249999999924,"velocity":0.5669291338582677,"duration":0.23541666666666572},{"name":"E5","midi":76,"time":91.99999999999923,"velocity":0.5748031496062992,"duration":0.23749999999999716},{"name":"F#4","midi":66,"time":91.99999999999923,"velocity":0.5669291338582677,"duration":0.23749999999999716},{"name":"C3","midi":48,"time":92.00208333333256,"velocity":0.5669291338582677,"duration":0.23333333333333428},{"name":"D5","midi":74,"time":92.23958333333256,"velocity":0.6062992125984252,"duration":0.11666666666666003},{"name":"G4","midi":67,"time":92.23958333333256,"velocity":0.5669291338582677,"duration":0.23541666666666572},{"name":"B2","midi":47,"time":92.24166666666589,"velocity":0.5669291338582677,"duration":0.23333333333333428},{"name":"C5","midi":72,"time":92.35624999999922,"velocity":0.6062992125984252,"duration":0.11875000000000568},{"name":"E5","midi":76,"time":92.47708333333256,"velocity":0.5748031496062992,"duration":0.11874999999999147},{"name":"B3","midi":59,"time":92.47708333333256,"velocity":0.5669291338582677,"duration":0.2395833333333286},{"name":"G3","midi":55,"time":92.47916666666589,"velocity":0.5669291338582677,"duration":0.4791666666666572},{"name":"D5","midi":74,"time":92.59791666666588,"velocity":0.6062992125984252,"duration":0.11875000000000568},{"name":"C5","midi":72,"time":92.71874999999922,"velocity":0.6062992125984252,"duration":0.11666666666666003},{"name":"A3","midi":57,"time":92.71874999999922,"velocity":0.5669291338582677,"duration":0.48333333333332007},{"name":"B4","midi":71,"time":92.83749999999921,"velocity":0.6062992125984252,"duration":0.12083333333333712},{"name":"D5","midi":74,"time":92.96041666666588,"velocity":0.6062992125984252,"duration":0.11666666666666003},{"name":"F#3","midi":54,"time":92.96041666666588,"velocity":0.5669291338582677,"duration":0.2395833333333286},{"name":"C5","midi":72,"time":93.07916666666587,"velocity":0.6062992125984252,"duration":0.12083333333333712},{"name":"B4","midi":71,"time":93.20208333333254,"velocity":0.6062992125984252,"duration":0.24166666666666003},{"name":"G3","midi":55,"time":93.20416666666587,"velocity":0.5669291338582677,"duration":1.2083333333333286},{"name":"E3","midi":52,"time":93.32083333333253,"velocity":0.5669291338582677,"duration":0.12083333333333712},{"name":"C5","midi":72,"time":93.4437499999992,"velocity":0.6062992125984252,"duration":0.24166666666666003},{"name":"D3","midi":50,"time":93.44583333333253,"velocity":0.5669291338582677,"duration":0.11666666666666003},{"name":"C3","midi":48,"time":93.56249999999919,"velocity":0.5669291338582677,"duration":0.12083333333333712},{"name":"D5","midi":74,"time":93.68541666666586,"velocity":0.6062992125984252,"duration":0.11874999999999147},{"name":"B2","midi":47,"time":93.68749999999919,"velocity":0.5669291338582677,"duration":0.2395833333333286},{"name":"B4","midi":71,"time":93.80416666666585,"velocity":0.6062992125984252,"duration":0.12083333333333712},{"name":"A4","midi":69,"time":93.92708333333252,"velocity":0.6062992125984252,"duration":0.12083333333333712},{"name":"E3","midi":52,"time":93.92916666666585,"velocity":0.5669291338582677,"duration":0.2395833333333428},{"name":"G4","midi":67,"time":94.04999999999919,"velocity":0.5669291338582677,"duration":0.11875000000000568},{"name":"E5","midi":76,"time":94.17083333333252,"velocity":0.5590551181102362,"duration":0.05833333333333712},{"name":"C3","midi":48,"time":94.17083333333252,"velocity":0.5669291338582677,"duration":0.2395833333333428},{"name":"F#5","midi":78,"time":94.23124999999919,"velocity":0.5354330708661418,"duration":0.05833333333333712},{"name":"E5","midi":76,"time":94.29166666666586,"velocity":0.5590551181102362,"duration":0.11875000000000568},{"name":"F#5","midi":78,"time":94.4124999999992,"velocity":0.5354330708661418,"duration":0.12083333333332291},{"name":"D5","midi":74,"time":94.41458333333253,"velocity":0.6062992125984252,"duration":0.11666666666666003},{"name":"A3","midi":57,"time":94.41458333333253,"velocity":0.5669291338582677,"duration":0.4812499999999744},{"name":"A2","midi":45,"time":94.41666666666586,"velocity":0.5669291338582677,"duration":0.23749999999998295},{"name":"G5","midi":79,"time":94.53333333333252,"velocity":0.4881889763779528,"duration":0.11874999999999147},{"name":"E5","midi":76,"time":94.53541666666585,"velocity":0.5590551181102362,"duration":0.11666666666666003},{"name":"F#5","midi":78,"time":94.65416666666584,"velocity":0.5354330708661418,"duration":0.36249999999998295},{"name":"D5","midi":74,"time":94.65624999999918,"velocity":0.6062992125984252,"duration":0.2395833333333286},{"name":"D3","midi":50,"time":94.65624999999918,"velocity":0.5669291338582677,"duration":0.23749999999999716},{"name":"C5","midi":72,"time":94.89791666666584,"velocity":0.6062992125984252,"duration":0.23958333333331439},{"name":"D3","midi":50,"time":94.89791666666584,"velocity":0.5669291338582677,"duration":0.4812499999999744},{"name":"D2","midi":38,"time":94.89999999999917,"velocity":0.5669291338582677,"duration":0.23749999999998295},{"name":"G5","midi":79,"time":95.01666666666583,"velocity":0.4881889763779528,"duration":0.09999999999999432},{"name":"B4","midi":71,"time":95.13749999999915,"velocity":0.6062992125984252,"duration":0.24166666666666003},{"name":"G5","midi":79,"time":95.13958333333248,"velocity":0.4881889763779528,"duration":1.20208333333332},{"name":"G2","midi":43,"time":95.13958333333248,"velocity":0.5669291338582677,"duration":0.2395833333333286},{"name":"B4","midi":71,"time":95.38124999999914,"velocity":0.6062992125984252,"duration":0.12083333333333712},{"name":"G4","midi":67,"time":95.38124999999914,"velocity":0.5669291338582677,"duration":0.11875000000000568},{"name":"A4","midi":69,"time":95.50208333333248,"velocity":0.6062992125984252,"duration":0.12083333333333712},{"name":"C5","midi":72,"time":95.50208333333248,"velocity":0.6062992125984252,"duration":0.11875000000000568},{"name":"B4","midi":71,"time":95.62291666666582,"velocity":0.6062992125984252,"duration":0.23749999999999716},{"name":"G4","midi":67,"time":95.62291666666582,"velocity":0.5669291338582677,"duration":0.23749999999999716},{"name":"A4","midi":69,"time":95.86249999999914,"velocity":0.6062992125984252,"duration":0.2395833333333286},{"name":"F4","midi":65,"time":95.86249999999914,"velocity":0.5669291338582677,"duration":0.23749999999999716},{"name":"G4","midi":67,"time":96.10208333333247,"velocity":0.5669291338582677,"duration":0.4812499999999744},{"name":"E4","midi":64,"time":96.10208333333247,"velocity":0.5669291338582677,"duration":0.2395833333333286},{"name":"G5","midi":79,"time":96.34374999999913,"velocity":0.4645669291338583,"duration":0.11874999999999147},{"name":"E4","midi":64,"time":96.34374999999913,"velocity":0.5669291338582677,"duration":0.11666666666666003},{"name":"A5","midi":81,"time":96.46249999999912,"velocity":0.4645669291338583,"duration":0.11874999999999147},{"name":"F4","midi":65,"time":96.46458333333246,"velocity":0.5669291338582677,"duration":0.11666666666666003},{"name":"G5","midi":79,"time":96.58333333333245,"velocity":0.4645669291338583,"duration":0.24166666666666003},{"name":"A4","midi":69,"time":96.58541666666578,"velocity":0.6062992125984252,"duration":0.2395833333333286},{"name":"E4","midi":64,"time":96.58541666666578,"velocity":0.5669291338582677,"duration":0.23749999999999716},{"name":"F5","midi":77,"time":96.82499999999911,"velocity":0.5118110236220472,"duration":0.24374999999999147},{"name":"B4","midi":71,"time":96.82708333333244,"velocity":0.6062992125984252,"duration":0.24166666666666003},{"name":"D4","midi":62,"time":96.82708333333244,"velocity":0.5669291338582677,"duration":0.2395833333333286},{"name":"C5","midi":72,"time":97.07083333333243,"velocity":0.6062992125984252,"duration":0.3645833333333286},{"name":"E5","midi":76,"time":97.07083333333243,"velocity":0.5354330708661418,"duration":0.11874999999999147},{"name":"C4","midi":60,"time":97.07291666666576,"velocity":0.5669291338582677,"duration":0.11666666666666003},{"name":"D5","midi":74,"time":97.19166666666575,"velocity":0.6062992125984252,"duration":0.12291666666666856},{"name":"D4","midi":62,"time":97.19166666666575,"velocity":0.5669291338582677,"duration":0.12083333333333712},{"name":"C5","midi":72,"time":97.31458333333242,"velocity":0.6062992125984252,"duration":0.24166666666666003},{"name":"E4","midi":64,"time":97.31666666666575,"velocity":0.5669291338582677,"duration":0.11875000000000568},{"name":"D5","midi":74,"time":97.43749999999909,"velocity":0.6062992125984252,"duration":0.11874999999999147},{"name":"D4","midi":62,"time":97.43749999999909,"velocity":0.5669291338582677,"duration":0.11666666666666003},{"name":"E5","midi":76,"time":97.55833333333241,"velocity":0.5118110236220472,"duration":0.11875000000000568},{"name":"C4","midi":60,"time":97.55833333333241,"velocity":0.5669291338582677,"duration":0.2395833333333428},{"name":"F5","midi":77,"time":97.67708333333242,"velocity":0.5118110236220472,"duration":0.12083333333333712},{"name":"D5","midi":74,"time":97.79999999999909,"velocity":0.6062992125984252,"duration":0.2395833333333286},{"name":"G5","midi":79,"time":97.79999999999909,"velocity":0.4645669291338583,"duration":0.35833333333332007},{"name":"A#3","midi":58,"time":97.79999999999909,"velocity":0.5669291338582677,"duration":0.2395833333333286},{"name":"A4","midi":69,"time":98.04166666666575,"velocity":0.6062992125984252,"duration":0.23749999999999716},{"name":"C#5","midi":73,"time":98.04166666666575,"velocity":0.6062992125984252,"duration":0.3583333333333343},{"name":"F5","midi":77,"time":98.16041666666574,"velocity":0.5118110236220472,"duration":0.11875000000000568},{"name":"C#5","midi":73,"time":98.28124999999908,"velocity":0.6062992125984252,"duration":0.2395833333333286},{"name":"E5","midi":76,"time":98.28124999999908,"velocity":0.5118110236220472,"duration":0.11875000000000568},{"name":"F5","midi":77,"time":98.39999999999908,"velocity":0.5118110236220472,"duration":0.12083333333332291},{"name":"D5","midi":74,"time":98.40208333333241,"velocity":0.6062992125984252,"duration":0.11666666666666003},{"name":"E5","midi":76,"time":98.52291666666574,"velocity":0.5118110236220472,"duration":0.6041666666666856},{"name":"G5","midi":79,"time":98.52291666666574,"velocity":0.4645669291338583,"duration":0.11875000000000568},{"name":"A5","midi":81,"time":98.64166666666574,"velocity":0.4645669291338583,"duration":0.11875000000000568},{"name":"A#5","midi":82,"time":98.76249999999908,"velocity":0.4645669291338583,"duration":0.12083333333333712},{"name":"G4","midi":67,"time":98.76249999999908,"velocity":0.5669291338582677,"duration":0.24375000000000568},{"name":"G5","midi":79,"time":98.88333333333242,"velocity":0.4645669291338583,"duration":0.12083333333333712},{"name":"A5","midi":81,"time":99.00624999999908,"velocity":0.4645669291338583,"duration":0.3645833333333428},{"name":"F4","midi":65,"time":99.00833333333242,"velocity":0.5669291338582677,"duration":0.11875000000000568},{"name":"C#5","midi":73,"time":99.12916666666575,"velocity":0.6062992125984252,"duration":0.11875000000000568},{"name":"E4","midi":64,"time":99.12916666666575,"velocity":0.5669291338582677,"duration":0.11875000000000568},{"name":"D5","midi":74,"time":99.24999999999909,"velocity":0.6062992125984252,"duration":0.36249999999999716},{"name":"G4","midi":67,"time":99.24999999999909,"velocity":0.5669291338582677,"duration":0.11875000000000568},{"name":"A#5","midi":82,"time":99.37083333333243,"velocity":0.4645669291338583,"duration":0.11874999999999147},{"name":"F4","midi":65,"time":99.37291666666576,"velocity":0.5669291338582677,"duration":0.11666666666666003},{"name":"G5","midi":79,"time":99.49166666666575,"velocity":0.4645669291338583,"duration":0.3604166666666515},{"name":"E4","midi":64,"time":99.49166666666575,"velocity":0.5669291338582677,"duration":0.11875000000000568},{"name":"B4","midi":71,"time":99.61249999999909,"velocity":0.6062992125984252,"duration":0.11874999999999147},{"name":"D4","midi":62,"time":99.61458333333242,"velocity":0.5669291338582677,"duration":0.11666666666666003},{"name":"C#5","midi":73,"time":99.73333333333241,"velocity":0.6062992125984252,"duration":0.24166666666666003},{"name":"F4","midi":65,"time":99.73333333333241,"velocity":0.5669291338582677,"duration":0.11666666666666003},{"name":"A5","midi":81,"time":99.8520833333324,"velocity":0.4645669291338583,"duration":0.12291666666666856},{"name":"E4","midi":64,"time":99.85416666666573,"velocity":0.5669291338582677,"duration":0.12083333333333712},{"name":"F5","midi":77,"time":99.97499999999907,"velocity":0.5118110236220472,"duration":0.11874999999999147},{"name":"D5","midi":74,"time":99.9770833333324,"velocity":0.6062992125984252,"duration":0.4791666666666572},{"name":"D4","midi":62,"time":99.9770833333324,"velocity":0.5669291338582677,"duration":0.23749999999999716},{"name":"E5","midi":76,"time":100.09374999999906,"velocity":0.5118110236220472,"duration":0.12083333333333712},{"name":"F5","midi":77,"time":100.2145833333324,"velocity":0.5118110236220472,"duration":0.11874999999999147},{"name":"E4","midi":64,"time":100.21666666666573,"velocity":0.5669291338582677,"duration":0.23749999999999716},{"name":"G5","midi":79,"time":100.33541666666572,"velocity":0.4645669291338583,"duration":0.11875000000000568},{"name":"A5","midi":81,"time":100.45624999999906,"velocity":0.4645669291338583,"duration":0.24166666666666003},{"name":"F4","midi":65,"time":100.45624999999906,"velocity":0.5669291338582677,"duration":0.11666666666666003},{"name":"E4","midi":64,"time":100.57499999999905,"velocity":0.5669291338582677,"duration":0.12083333333333712},{"name":"A4","midi":69,"time":100.69791666666572,"velocity":0.6062992125984252,"duration":0.24166666666667425},{"name":"F4","midi":65,"time":100.69791666666572,"velocity":0.5669291338582677,"duration":0.24166666666667425},{"name":"D4","midi":62,"time":100.69999999999905,"velocity":0.5669291338582677,"duration":0.11875000000000568},{"name":"C4","midi":60,"time":100.81874999999906,"velocity":0.5669291338582677,"duration":0.11875000000000568},{"name":"D5","midi":74,"time":100.94166666666572,"velocity":0.6062992125984252,"duration":0.11874999999999147},{"name":"G4","midi":67,"time":100.94166666666572,"velocity":0.5669291338582677,"duration":0.11874999999999147},{"name":"A#3","midi":58,"time":100.94374999999906,"velocity":0.5669291338582677,"duration":0.24374999999999147},{"name":"G5","midi":79,"time":101.06249999999905,"velocity":0.4645669291338583,"duration":0.12083333333333712},{"name":"C#5","midi":73,"time":101.06249999999905,"velocity":0.6062992125984252,"duration":0.11875000000000568},{"name":"F5","midi":77,"time":101.18333333333238,"velocity":0.5118110236220472,"duration":0.125},{"name":"D5","midi":74,"time":101.18541666666572,"velocity":0.6062992125984252,"duration":0.12083333333333712},{"name":"A3","midi":57,"time":101.18541666666572,"velocity":0.5669291338582677,"duration":0.12083333333333712},{"name":"E5","midi":76,"time":101.30833333333238,"velocity":0.5118110236220472,"duration":0.12291666666666856},{"name":"A#3","midi":58,"time":101.30833333333238,"velocity":0.5669291338582677,"duration":0.12083333333333712},{"name":"A#3","midi":58,"time":101.31041666666572,"velocity":0.5669291338582677,"duration":0.12291666666666856},{"name":"F5","midi":77,"time":101.43124999999905,"velocity":0.5118110236220472,"duration":0.04583333333333428},{"name":"C#5","midi":73,"time":101.43333333333238,"velocity":0.6062992125984252,"duration":0.5270833333333229},{"name":"A3","midi":57,"time":101.43541666666572,"velocity":0.5669291338582677,"duration":0.737499999999983},{"name":"E5","midi":76,"time":101.47916666666572,"velocity":0.5118110236220472,"duration":0.04583333333333428},{"name":"F5","midi":77,"time":101.52708333333238,"velocity":0.5118110236220472,"duration":0.04791666666666572},{"name":"E5","midi":76,"time":101.57499999999905,"velocity":0.5118110236220472,"duration":0.04791666666666572},{"name":"F5","midi":77,"time":101.62291666666572,"velocity":0.5118110236220472,"duration":0.04791666666666572},{"name":"E5","midi":76,"time":101.67083333333238,"velocity":0.5118110236220472,"duration":0.16875000000000284},{"name":"G3","midi":55,"time":101.71874999999905,"velocity":0.5669291338582677,"duration":0.24166666666666003},{"name":"D5","midi":74,"time":101.84166666666572,"velocity":0.6062992125984252,"duration":0.09791666666666288},{"name":"D5","midi":74,"time":101.96249999999904,"velocity":0.6062992125984252,"duration":0.7166666666666544},{"name":"F3","midi":53,"time":101.96249999999904,"velocity":0.5669291338582677,"duration":0.23749999999999716},{"name":"A4","midi":69,"time":102.19999999999904,"velocity":0.6062992125984252,"duration":0.12083333333333712},{"name":"F3","midi":53,"time":102.20208333333237,"velocity":0.5669291338582677,"duration":0.11875000000000568},{"name":"A3","midi":57,"time":102.20208333333237,"velocity":0.5669291338582677,"duration":0.23749999999999716},{"name":"A#4","midi":70,"time":102.3229166666657,"velocity":0.6062992125984252,"duration":0.11666666666666003},{"name":"G3","midi":55,"time":102.3229166666657,"velocity":0.5669291338582677,"duration":0.1145833333333286},{"name":"A4","midi":69,"time":102.4416666666657,"velocity":0.6062992125984252,"duration":0.23541666666666572},{"name":"F3","midi":53,"time":102.4416666666657,"velocity":0.5669291338582677,"duration":0.23541666666666572},{"name":"B3","midi":59,"time":102.44374999999903,"velocity":0.5669291338582677,"duration":0.23125000000000284},{"name":"E5","midi":76,"time":102.6791666666657,"velocity":0.5354330708661418,"duration":0.23749999999999716},{"name":"G4","midi":67,"time":102.68124999999903,"velocity":0.5669291338582677,"duration":0.23541666666666572},{"name":"C#4","midi":61,"time":102.68124999999903,"velocity":0.5669291338582677,"duration":0.23333333333333428},{"name":"E3","midi":52,"time":102.68333333333236,"velocity":0.5669291338582677,"duration":0.23125000000000284},{"name":"F5","midi":77,"time":102.91874999999902,"velocity":0.5354330708661418,"duration":1.4312499999999488},{"name":"F4","midi":65,"time":102.91874999999902,"velocity":0.5669291338582677,"duration":0.23749999999999716},{"name":"D3","midi":50,"time":102.92083333333235,"velocity":0.5669291338582677,"duration":0.11249999999999716},{"name":"D4","midi":62,"time":102.92083333333235,"velocity":0.5669291338582677,"duration":0.23333333333333428},{"name":"E3","midi":52,"time":103.03541666666568,"velocity":0.5669291338582677,"duration":0.11875000000000568},{"name":"A4","midi":69,"time":103.15624999999902,"velocity":0.6062992125984252,"duration":0.2395833333333286},{"name":"F3","midi":53,"time":103.15833333333235,"velocity":0.5669291338582677,"duration":0.11666666666666003},{"name":"E3","midi":52,"time":103.27499999999901,"velocity":0.5669291338582677,"duration":0.11875000000000568},{"name":"B4","midi":71,"time":103.39583333333235,"velocity":0.6062992125984252,"duration":0.24166666666666003},{"name":"D3","midi":50,"time":103.39791666666568,"velocity":0.5669291338582677,"duration":0.23749999999999716},{"name":"C5","midi":72,"time":103.63749999999901,"velocity":0.6062992125984252,"duration":0.23749999999999716},{"name":"C3","midi":48,"time":103.63958333333234,"velocity":0.5669291338582677,"duration":0.23541666666666572},{"name":"D5","midi":74,"time":103.874999999999,"velocity":0.6062992125984252,"duration":0.11874999999999147},{"name":"B3","midi":59,"time":103.87708333333234,"velocity":0.5669291338582677,"duration":0.2354166666666515},{"name":"C5","midi":72,"time":103.99583333333233,"velocity":0.6062992125984252,"duration":0.11666666666666003},{"name":"B4","midi":71,"time":104.11458333333232,"velocity":0.6062992125984252,"duration":0.1145833333333286},{"name":"D4","midi":62,"time":104.11458333333232,"velocity":0.5669291338582677,"duration":0.2354166666666515},{"name":"A4","midi":69,"time":104.23124999999898,"velocity":0.6062992125984252,"duration":0.11666666666666003},{"name":"G4","midi":67,"time":104.34999999999897,"velocity":0.5669291338582677,"duration":0.2395833333333428},{"name":"E5","midi":76,"time":104.46874999999898,"velocity":0.5354330708661418,"duration":0.11875000000000568},{"name":"D5","midi":74,"time":104.58958333333231,"velocity":0.6062992125984252,"duration":0.12083333333333712},{"name":"F4","midi":65,"time":104.59166666666565,"velocity":0.5669291338582677,"duration":0.4833333333333343},{"name":"A3","midi":57,"time":104.59166666666565,"velocity":0.5669291338582677,"duration":0.24166666666667425},{"name":"C5","midi":72,"time":104.71041666666565,"velocity":0.6062992125984252,"duration":0.12291666666666856},{"name":"B4","midi":71,"time":104.83333333333232,"velocity":0.6062992125984252,"duration":0.24374999999999147},{"name":"G3","midi":55,"time":104.83541666666565,"velocity":0.5669291338582677,"duration":0.11666666666666003},{"name":"F3","midi":53,"time":104.95208333333231,"velocity":0.5669291338582677,"duration":0.12291666666666856},{"name":"C5","midi":72,"time":105.07708333333231,"velocity":0.6062992125984252,"duration":0.4791666666666572},{"name":"E4","midi":64,"time":105.07916666666564,"velocity":0.5669291338582677,"duration":0.23749999999999716},{"name":"A3","midi":57,"time":105.07916666666564,"velocity":0.5669291338582677,"duration":0.1145833333333286},{"name":"G3","midi":55,"time":105.1958333333323,"velocity":0.5669291338582677,"duration":0.12083333333333712},{"name":"D4","midi":62,"time":105.31874999999897,"velocity":0.5669291338582677,"duration":0.48124999999998863},{"name":"F3","midi":53,"time":105.31874999999897,"velocity":0.5669291338582677,"duration":0.11666666666666003},{"name":"E3","midi":52,"time":105.43749999999896,"velocity":0.5669291338582677,"duration":0.11875000000000568},{"name":"B4","midi":71,"time":105.5583333333323,"velocity":0.6062992125984252,"duration":0.2395833333333286},{"name":"G3","midi":55,"time":105.56041666666563,"velocity":0.5669291338582677,"duration":0.11666666666666003},{"name":"F3","midi":53,"time":105.67708333333229,"velocity":0.5669291338582677,"duration":0.12083333333333712},{"name":"C5","midi":72,"time":105.79999999999896,"velocity":0.6062992125984252,"duration":0.7145833333333229},{"name":"E3","midi":52,"time":105.79999999999896,"velocity":0.5669291338582677,"duration":0.23541666666666572},{"name":"A4","midi":69,"time":105.91666666666562,"velocity":0.6062992125984252,"duration":0.11875000000000568},{"name":"F3","midi":53,"time":106.03749999999896,"velocity":0.5669291338582677,"duration":0.23749999999998295},{"name":"G4","midi":67,"time":106.03749999999896,"velocity":0.5669291338582677,"duration":0.11666666666666003},{"name":"F4","midi":65,"time":106.15624999999895,"velocity":0.5669291338582677,"duration":0.11666666666666003},{"name":"E4","midi":64,"time":106.27499999999894,"velocity":0.5669291338582677,"duration":0.2395833333333428},{"name":"G3","midi":55,"time":106.27499999999894,"velocity":0.5669291338582677,"duration":0.11875000000000568},{"name":"E3","midi":52,"time":106.39374999999895,"velocity":0.5669291338582677,"duration":0.11875000000000568},{"name":"A#4","midi":70,"time":106.51666666666561,"velocity":0.6062992125984252,"duration":0.23541666666666572},{"name":"G4","midi":67,"time":106.51666666666561,"velocity":0.5669291338582677,"duration":0.4729166666666629},{"name":"D3","midi":50,"time":106.51666666666561,"velocity":0.5669291338582677,"duration":0.1145833333333286},{"name":"C3","midi":48,"time":106.63124999999894,"velocity":0.5669291338582677,"duration":0.11875000000000568},{"name":"A4","midi":69,"time":106.75208333333228,"velocity":0.6062992125984252,"duration":0.9583333333333144},{"name":"F3","midi":53,"time":106.75416666666561,"velocity":0.5669291338582677,"duration":0.1145833333333286},{"name":"E3","midi":52,"time":106.87083333333227,"velocity":0.5669291338582677,"duration":0.11875000000000568},{"name":"F4","midi":65,"time":106.99166666666561,"velocity":0.5669291338582677,"duration":0.11666666666666003},{"name":"D3","midi":50,"time":106.99166666666561,"velocity":0.5669291338582677,"duration":0.11874999999999147},{"name":"G4","midi":67,"time":107.1104166666656,"velocity":0.5669291338582677,"duration":0.11874999999999147},{"name":"C3","midi":48,"time":107.11249999999893,"velocity":0.5669291338582677,"duration":0.11666666666666003},{"name":"D3","midi":50,"time":107.23124999999892,"velocity":0.5669291338582677,"duration":0.11875000000000568},{"name":"F4","midi":65,"time":107.23124999999892,"velocity":0.5669291338582677,"duration":0.2395833333333428},{"name":"E3","midi":52,"time":107.34999999999893,"velocity":0.5669291338582677,"duration":0.11875000000000568},{"name":"F3","midi":53,"time":107.47083333333227,"velocity":0.5669291338582677,"duration":0.11874999999999147},{"name":"E4","midi":64,"time":107.4729166666656,"velocity":0.5669291338582677,"duration":0.23749999999999716},{"name":"D3","midi":50,"time":107.58958333333226,"velocity":0.5669291338582677,"duration":0.11875000000000568},{"name":"D4","midi":62,"time":107.71249999999893,"velocity":0.5669291338582677,"duration":0.23541666666666572},{"name":"B2","midi":47,"time":107.71249999999893,"velocity":0.5669291338582677,"duration":0.47708333333331154},{"name":"G#4","midi":68,"time":107.94791666666559,"velocity":0.6062992125984252,"duration":0.24166666666664582},{"name":"B3","midi":59,"time":107.94999999999892,"velocity":0.5669291338582677,"duration":0.11666666666666003},{"name":"D4","midi":62,"time":107.94999999999892,"velocity":0.5669291338582677,"duration":0.11874999999999147},{"name":"C4","midi":60,"time":108.06874999999891,"velocity":0.5669291338582677,"duration":0.11874999999999147},{"name":"E4","midi":64,"time":108.07083333333225,"velocity":0.5669291338582677,"duration":0.11666666666666003},{"name":"A4","midi":69,"time":108.19166666666557,"velocity":0.6062992125984252,"duration":0.23541666666666572},{"name":"D4","midi":62,"time":108.19166666666557,"velocity":0.5669291338582677,"duration":0.23541666666666572},{"name":"B3","midi":59,"time":108.1937499999989,"velocity":0.5669291338582677,"duration":0.23333333333333428},{"name":"C3","midi":48,"time":108.1937499999989,"velocity":0.5669291338582677,"duration":0.23125000000000284},{"name":"B4","midi":71,"time":108.42916666666557,"velocity":0.6062992125984252,"duration":0.24166666666666003},{"name":"D3","midi":50,"time":108.42916666666557,"velocity":0.5669291338582677,"duration":0.4791666666666572},{"name":"A3","midi":57,"time":108.4312499999989,"velocity":0.5669291338582677,"duration":0.23749999999999716},{"name":"C4","midi":60,"time":108.4312499999989,"velocity":0.5669291338582677,"duration":0.2395833333333286},{"name":"G#3","midi":56,"time":108.67291666666556,"velocity":0.5669291338582677,"duration":0.71041666666666},{"name":"B3","midi":59,"time":108.67291666666556,"velocity":0.5669291338582677,"duration":0.1145833333333286},{"name":"E4","midi":64,"time":108.67499999999889,"velocity":0.5669291338582677,"duration":0.4729166666666629},{"name":"C4","midi":60,"time":108.78749999999889,"velocity":0.5669291338582677,"duration":0.11875000000000568},{"name":"E3","midi":52,"time":108.90833333333222,"velocity":0.5669291338582677,"duration":0.23749999999999716},{"name":"D4","midi":62,"time":108.91041666666555,"velocity":0.5669291338582677,"duration":0.11666666666666003},{"name":"C4","midi":60,"time":109.02708333333221,"velocity":0.5669291338582677,"duration":0.11875000000000568},{"name":"D3","midi":50,"time":109.14791666666555,"velocity":0.5669291338582677,"duration":0.23541666666666572},{"name":"B3","midi":59,"time":109.14999999999888,"velocity":0.5669291338582677,"duration":0.23125000000000284},{"name":"F#4","midi":66,"time":109.26249999999888,"velocity":0.5669291338582677,"duration":0.11875000000000568},{"name":"G#4","midi":68,"time":109.38541666666555,"velocity":0.6062992125984252,"duration":0.1145833333333286},{"name":"A3","midi":57,"time":109.38541666666555,"velocity":0.5669291338582677,"duration":0.2354166666666515},{"name":"E3","midi":52,"time":109.38749999999888,"velocity":0.5669291338582677,"duration":0.23124999999998863},{"name":"C3","midi":48,"time":109.38749999999888,"velocity":0.5669291338582677,"duration":0.23124999999998863},{"name":"A4","midi":69,"time":109.49999999999888,"velocity":0.6062992125984252,"duration":0.11666666666666003},{"name":"B4","midi":71,"time":109.6208333333322,"velocity":0.6062992125984252,"duration":0.1145833333333286},{"name":"G#4","midi":68,"time":109.62291666666553,"velocity":0.6062992125984252,"duration":0.23333333333333428},{"name":"D3","midi":50,"time":109.62291666666553,"velocity":0.5669291338582677,"duration":0.23333333333333428},{"name":"B2","midi":47,"time":109.62499999999886,"velocity":0.5669291338582677,"duration":0.2291666666666714},{"name":"C5","midi":72,"time":109.73541666666553,"velocity":0.6062992125984252,"duration":0.11875000000000568},{"name":"B4","midi":71,"time":109.8583333333322,"velocity":0.6062992125984252,"duration":0.23333333333332007},{"name":"D3","midi":50,"time":109.8583333333322,"velocity":0.5669291338582677,"duration":0.1145833333333286},{"name":"F3","midi":53,"time":109.86041666666553,"velocity":0.5669291338582677,"duration":0.11249999999999716},{"name":"C5","midi":72,"time":109.97291666666553,"velocity":0.6062992125984252,"duration":0.11874999999999147},{"name":"E3","midi":52,"time":109.97499999999886,"velocity":0.5669291338582677,"duration":0.11666666666666003},{"name":"C3","midi":48,"time":109.97499999999886,"velocity":0.5669291338582677,"duration":0.1145833333333286},{"name":"D5","midi":74,"time":110.09374999999885,"velocity":0.6062992125984252,"duration":0.7166666666666544},{"name":"D3","midi":50,"time":110.09374999999885,"velocity":0.5669291338582677,"duration":0.23541666666666572},{"name":"B2","midi":47,"time":110.09583333333218,"velocity":0.5669291338582677,"duration":0.23125000000000284},{"name":"F4","midi":65,"time":110.32916666666551,"velocity":0.5669291338582677,"duration":0.24166666666666003},{"name":"A2","midi":45,"time":110.32916666666551,"velocity":0.5669291338582677,"duration":0.2395833333333286},{"name":"C3","midi":48,"time":110.33124999999885,"velocity":0.5669291338582677,"duration":0.23749999999999716},{"name":"E4","midi":64,"time":110.57083333333217,"velocity":0.5669291338582677,"duration":0.11666666666666003},{"name":"B2","midi":47,"time":110.5729166666655,"velocity":0.5669291338582677,"duration":0.23541666666666572},{"name":"G#2","midi":44,"time":110.5729166666655,"velocity":0.5669291338582677,"duration":0.23541666666666572},{"name":"D4","midi":62,"time":110.68958333333217,"velocity":0.5669291338582677,"duration":0.11875000000000568},{"name":"C5","midi":72,"time":110.81249999999883,"velocity":0.6062992125984252,"duration":0.48124999999998863},{"name":"F4","midi":65,"time":110.81249999999883,"velocity":0.5669291338582677,"duration":0.1145833333333286},{"name":"C3","midi":48,"time":110.81249999999883,"velocity":0.5669291338582677,"duration":0.23749999999999716},{"name":"A2","midi":45,"time":110.81458333333217,"velocity":0.5669291338582677,"duration":0.23541666666666572},{"name":"E4","midi":64,"time":110.9291666666655,"velocity":0.5669291338582677,"duration":0.11875000000000568},{"name":"D4","midi":62,"time":111.04999999999883,"velocity":0.5669291338582677,"duration":0.11874999999999147},{"name":"D3","midi":50,"time":111.05208333333216,"velocity":0.5669291338582677,"duration":0.2395833333333286},{"name":"B2","midi":47,"time":111.05208333333216,"velocity":0.5669291338582677,"duration":0.2395833333333286},{"name":"C4","midi":60,"time":111.16874999999882,"velocity":0.5669291338582677,"duration":0.12083333333333712},{"name":"B4","midi":71,"time":111.29374999999882,"velocity":0.6062992125984252,"duration":0.48124999999998863},{"name":"E4","midi":64,"time":111.29374999999882,"velocity":0.5669291338582677,"duration":0.11666666666666003},{"name":"B2","midi":47,"time":111.29583333333215,"velocity":0.5669291338582677,"duration":0.23749999999999716},{"name":"G#2","midi":44,"time":111.29791666666549,"velocity":0.5669291338582677,"duration":0.23541666666666572},{"name":"D4","midi":62,"time":111.41041666666548,"velocity":0.5669291338582677,"duration":0.12083333333333712},{"name":"E3","midi":52,"time":111.53541666666548,"velocity":0.5669291338582677,"duration":0.7187499999999858},{"name":"C4","midi":60,"time":111.53541666666548,"velocity":0.5669291338582677,"duration":0.23749999999999716},{"name":"A2","midi":45,"time":111.53749999999881,"velocity":0.5669291338582677,"duration":0.23541666666666572},{"name":"A4","midi":69,"time":111.77499999999881,"velocity":0.6062992125984252,"duration":0.11666666666666003},{"name":"D4","midi":62,"time":111.77499999999881,"velocity":0.5669291338582677,"duration":0.2395833333333286},{"name":"B2","midi":47,"time":111.77708333333214,"velocity":0.5669291338582677,"duration":0.23541666666666572},{"name":"G#4","midi":68,"time":111.8937499999988,"velocity":0.6062992125984252,"duration":0.11875000000000568},{"name":"A4","midi":69,"time":112.01458333333214,"velocity":0.6062992125984252,"duration":0.9541666666666373},{"name":"E4","midi":64,"time":112.01666666666547,"velocity":0.5669291338582677,"duration":0.1145833333333286},{"name":"C3","midi":48,"time":112.01666666666547,"velocity":0.5669291338582677,"duration":0.23541666666666572},{"name":"C4","midi":60,"time":112.13333333333213,"velocity":0.5669291338582677,"duration":0.11875000000000568},{"name":"F3","midi":53,"time":112.25416666666547,"velocity":0.5669291338582677,"duration":0.4749999999999943},{"name":"B3","midi":59,"time":112.2562499999988,"velocity":0.5669291338582677,"duration":0.1145833333333286},{"name":"A3","midi":57,"time":112.37083333333213,"velocity":0.5669291338582677,"duration":0.11875000000000568},{"name":"D3","midi":50,"time":112.49166666666547,"velocity":0.5669291338582677,"duration":0.23749999999999716},{"name":"F4","midi":65,"time":112.49166666666547,"velocity":0.5669291338582677,"duration":0.11666666666666003},{"name":"D4","midi":62,"time":112.60833333333213,"velocity":0.5669291338582677,"duration":0.11875000000000568},{"name":"E4","midi":64,"time":112.7312499999988,"velocity":0.5669291338582677,"duration":0.11666666666666003},{"name":"D3","midi":50,"time":112.7312499999988,"velocity":0.5669291338582677,"duration":0.23749999999998295},{"name":"B2","midi":47,"time":112.73333333333213,"velocity":0.5669291338582677,"duration":0.23333333333332007},{"name":"F4","midi":65,"time":112.84999999999879,"velocity":0.5669291338582677,"duration":0.11666666666666003},{"name":"G#4","midi":68,"time":112.97083333333211,"velocity":0.6062992125984252,"duration":0.4729166666666629},{"name":"B3","midi":59,"time":112.97083333333211,"velocity":0.5669291338582677,"duration":0.3541666666666714},{"name":"E3","midi":52,"time":112.97291666666544,"velocity":0.5669291338582677,"duration":0.23125000000000284},{"name":"D3","midi":50,"time":113.20416666666544,"velocity":0.5669291338582677,"duration":0.2395833333333286},{"name":"E2","midi":40,"time":113.20624999999878,"velocity":0.5669291338582677,"duration":0.23541666666666572},{"name":"A3","midi":57,"time":113.32499999999878,"velocity":0.5669291338582677,"duration":0.09791666666666288},{"name":"A4","midi":69,"time":113.4458333333321,"velocity":0.6062992125984252,"duration":0.23749999999999716},{"name":"A3","midi":57,"time":113.4458333333321,"velocity":0.5669291338582677,"duration":0.23541666666666572},{"name":"A2","midi":45,"time":113.44791666666544,"velocity":0.5669291338582677,"duration":0.23125000000000284},{"name":"C3","midi":48,"time":113.44791666666544,"velocity":0.5669291338582677,"duration":0.23333333333333428},{"name":"A4","midi":69,"time":113.6833333333321,"velocity":0.6062992125984252,"duration":0.11666666666666003},{"name":"A3","midi":57,"time":113.68541666666543,"velocity":0.5669291338582677,"duration":0.23749999999999716},{"name":"G#4","midi":68,"time":113.79999999999876,"velocity":0.6062992125984252,"duration":0.12083333333333712},{"name":"A4","midi":69,"time":113.92291666666543,"velocity":0.6062992125984252,"duration":0.23541666666666572},{"name":"C3","midi":48,"time":113.92499999999876,"velocity":0.5669291338582677,"duration":0.23333333333333428},{"name":"B4","midi":71,"time":114.16041666666543,"velocity":0.6062992125984252,"duration":0.23749999999999716},{"name":"E3","midi":52,"time":114.16041666666543,"velocity":0.5669291338582677,"duration":0.23541666666666572},{"name":"C5","midi":72,"time":114.39791666666542,"velocity":0.6062992125984252,"duration":0.23541666666666572},{"name":"A2","midi":45,"time":114.39999999999876,"velocity":0.5669291338582677,"duration":0.23125000000000284},{"name":"C5","midi":72,"time":114.63333333333209,"velocity":0.6062992125984252,"duration":0.11666666666666003},{"name":"A3","midi":57,"time":114.63541666666542,"velocity":0.5669291338582677,"duration":0.1145833333333286},{"name":"F3","midi":53,"time":114.63541666666542,"velocity":0.5669291338582677,"duration":0.2354166666666515},{"name":"B4","midi":71,"time":114.75208333333208,"velocity":0.6062992125984252,"duration":0.11874999999999147},{"name":"G#3","midi":56,"time":114.75208333333208,"velocity":0.5669291338582677,"duration":0.11666666666666003},{"name":"C5","midi":72,"time":114.87083333333207,"velocity":0.6062992125984252,"duration":0.23541666666666572},{"name":"E3","midi":52,"time":114.8729166666654,"velocity":0.5669291338582677,"duration":0.23125000000000284},{"name":"A3","midi":57,"time":114.8729166666654,"velocity":0.5669291338582677,"duration":0.23333333333333428},{"name":"D5","midi":74,"time":115.10624999999874,"velocity":0.6062992125984252,"duration":0.23749999999999716},{"name":"B3","midi":59,"time":115.10833333333207,"velocity":0.5669291338582677,"duration":0.23333333333333428},{"name":"D3","midi":50,"time":115.10833333333207,"velocity":0.5669291338582677,"duration":0.23333333333333428},{"name":"E5","midi":76,"time":115.34374999999874,"velocity":0.5748031496062992,"duration":0.1145833333333286},{"name":"C4","midi":60,"time":115.34583333333207,"velocity":0.5669291338582677,"duration":0.23333333333332007},{"name":"C3","midi":48,"time":115.34583333333207,"velocity":0.5669291338582677,"duration":0.23124999999998863},{"name":"D5","midi":74,"time":115.4604166666654,"velocity":0.6062992125984252,"duration":0.11666666666666003},{"name":"C5","midi":72,"time":115.57916666666539,"velocity":0.6062992125984252,"duration":0.11666666666666003},{"name":"C4","midi":60,"time":115.58124999999872,"velocity":0.5669291338582677,"duration":0.1145833333333286},{"name":"A3","midi":57,"time":115.58124999999872,"velocity":0.5669291338582677,"duration":0.2354166666666515},{"name":"D5","midi":74,"time":115.69583333333205,"velocity":0.6062992125984252,"duration":0.12083333333332291},{"name":"B3","midi":59,"time":115.69791666666538,"velocity":0.5669291338582677,"duration":0.11666666666666003},{"name":"E5","midi":76,"time":115.8187499999987,"velocity":0.5748031496062992,"duration":0.23333333333333428},{"name":"G3","midi":55,"time":115.8187499999987,"velocity":0.5669291338582677,"duration":0.23125000000000284},{"name":"C4","midi":60,"time":115.8187499999987,"velocity":0.5669291338582677,"duration":0.23333333333333428},{"name":"F5","midi":77,"time":116.05416666666537,"velocity":0.5748031496062992,"duration":0.23541666666666572},{"name":"D4","midi":62,"time":116.05416666666537,"velocity":0.5669291338582677,"duration":0.23333333333333428},{"name":"F3","midi":53,"time":116.0562499999987,"velocity":0.5669291338582677,"duration":0.23125000000000284},{"name":"G#4","midi":68,"time":116.28958333333203,"velocity":0.6062992125984252,"duration":0.2354166666666515},{"name":"E3","midi":52,"time":116.29166666666536,"velocity":0.5669291338582677,"duration":0.23333333333332007},{"name":"E4","midi":64,"time":116.29166666666536,"velocity":0.5669291338582677,"duration":0.11249999999999716},{"name":"D4","midi":62,"time":116.40624999999869,"velocity":0.5669291338582677,"duration":0.11666666666666003},{"name":"E4","midi":64,"time":116.52499999999868,"velocity":0.5669291338582677,"duration":0.23333333333332007},{"name":"C4","midi":60,"time":116.52708333333202,"velocity":0.5669291338582677,"duration":0.11249999999999716},{"name":"A3","midi":57,"time":116.52708333333202,"velocity":0.5669291338582677,"duration":0.11249999999999716},{"name":"G3","midi":55,"time":116.64166666666534,"velocity":0.5669291338582677,"duration":0.11666666666666003},{"name":"D4","midi":62,"time":116.64166666666534,"velocity":0.5669291338582677,"duration":0.1145833333333286},{"name":"F3","midi":53,"time":116.76041666666534,"velocity":0.5669291338582677,"duration":0.1145833333333286},{"name":"E4","midi":64,"time":116.76041666666534,"velocity":0.5669291338582677,"duration":0.23124999999998863},{"name":"E3","midi":52,"time":116.87499999999866,"velocity":0.5669291338582677,"duration":0.11666666666666003},{"name":"A4","midi":69,"time":116.99374999999866,"velocity":0.6062992125984252,"duration":0.23749999999998295},{"name":"F4","midi":65,"time":116.99374999999866,"velocity":0.5669291338582677,"duration":0.2354166666666515},{"name":"D3","midi":50,"time":116.99583333333199,"velocity":0.5669291338582677,"duration":0.1145833333333286},{"name":"C3","midi":48,"time":117.11249999999865,"velocity":0.5669291338582677,"duration":0.11666666666666003},{"name":"B4","midi":71,"time":117.23124999999864,"velocity":0.6062992125984252,"duration":0.11874999999999147},{"name":"G#3","midi":56,"time":117.23333333333197,"velocity":0.5669291338582677,"duration":0.2354166666666515},{"name":"B2","midi":47,"time":117.23333333333197,"velocity":0.5669291338582677,"duration":0.2354166666666515},{"name":"C5","midi":72,"time":117.34999999999863,"velocity":0.6062992125984252,"duration":0.11666666666666003},{"name":"A4","midi":69,"time":117.47083333333195,"velocity":0.6062992125984252,"duration":0.11666666666666003},{"name":"E3","midi":52,"time":117.47083333333195,"velocity":0.5669291338582677,"duration":0.2354166666666515},{"name":"C4","midi":60,"time":117.47291666666528,"velocity":0.5669291338582677,"duration":0.1145833333333286},{"name":"B4","midi":71,"time":117.58958333333194,"velocity":0.6062992125984252,"duration":0.11666666666666003},{"name":"B3","midi":59,"time":117.58958333333194,"velocity":0.5669291338582677,"duration":0.1145833333333286},{"name":"C5","midi":72,"time":117.70833333333194,"velocity":0.6062992125984252,"duration":0.11666666666666003},{"name":"A3","midi":57,"time":117.70833333333194,"velocity":0.5669291338582677,"duration":0.1145833333333286},{"name":"D5","midi":74,"time":117.8249999999986,"velocity":0.6062992125984252,"duration":0.11666666666666003},{"name":"G3","midi":55,"time":117.8249999999986,"velocity":0.5669291338582677,"duration":0.11666666666666003},{"name":"B4","midi":71,"time":117.94374999999859,"velocity":0.6062992125984252,"duration":0.11666666666666003},{"name":"A3","midi":57,"time":117.94374999999859,"velocity":0.5669291338582677,"duration":0.2354166666666515},{"name":"F3","midi":53,"time":117.94583333333192,"velocity":0.5669291338582677,"duration":0.11249999999999716},{"name":"C5","midi":72,"time":118.06041666666525,"velocity":0.6062992125984252,"duration":0.11666666666666003},{"name":"E3","midi":52,"time":118.06249999999858,"velocity":0.5669291338582677,"duration":0.1145833333333286},{"name":"D5","midi":74,"time":118.17916666666524,"velocity":0.6062992125984252,"duration":0.2291666666666572},{"name":"B3","midi":59,"time":118.18124999999857,"velocity":0.5669291338582677,"duration":0.11249999999999716},{"name":"D3","midi":50,"time":118.18124999999857,"velocity":0.5669291338582677,"duration":0.22708333333332575},{"name":"C4","midi":60,"time":118.29374999999857,"velocity":0.5669291338582677,"duration":0.11249999999999716},{"name":"C5","midi":72,"time":118.41041666666523,"velocity":0.6062992125984252,"duration":0.2291666666666572},{"name":"A3","midi":57,"time":118.41041666666523,"velocity":0.5669291338582677,"duration":0.11249999999999716},{"name":"B3","midi":59,"time":118.52499999999856,"velocity":0.5669291338582677,"duration":0.1145833333333286},{"name":"B4","midi":71,"time":118.64166666666522,"velocity":0.6062992125984252,"duration":0.2291666666666572},{"name":"C4","midi":60,"time":118.64166666666522,"velocity":0.5669291338582677,"duration":0.11041666666666572},{"name":"E3","midi":52,"time":118.64374999999855,"velocity":0.5669291338582677,"duration":0.22708333333332575},{"name":"D4","midi":62,"time":118.75416666666521,"velocity":0.5669291338582677,"duration":0.1145833333333286},{"name":"E5","midi":76,"time":118.8729166666652,"velocity":0.5748031496062992,"duration":0.2291666666666572},{"name":"B3","midi":59,"time":118.8729166666652,"velocity":0.5669291338582677,"duration":0.11249999999999716},{"name":"C4","midi":60,"time":118.9854166666652,"velocity":0.5669291338582677,"duration":0.1145833333333286},{"name":"A4","midi":69,"time":119.10208333333186,"velocity":0.6062992125984252,"duration":0.23125000000000284},{"name":"D4","midi":62,"time":119.1041666666652,"velocity":0.5669291338582677,"duration":0.22708333333333997},{"name":"F3","midi":53,"time":119.1041666666652,"velocity":0.5669291338582677,"duration":0.22708333333333997},{"name":"A5","midi":81,"time":119.33333333333186,"velocity":0.5275590551181102,"duration":0.46875},{"name":"E3","midi":52,"time":119.3354166666652,"velocity":0.5669291338582677,"duration":0.23125000000000284},{"name":"C4","midi":60,"time":119.3354166666652,"velocity":0.5669291338582677,"duration":0.23125000000000284},{"name":"D3","midi":50,"time":119.5666666666652,"velocity":0.5669291338582677,"duration":0.23333333333333428},{"name":"B3","midi":59,"time":119.56874999999853,"velocity":0.5669291338582677,"duration":0.23125000000000284},{"name":"G5","midi":79,"time":119.80208333333186,"velocity":0.5275590551181102,"duration":0.46875},{"name":"E3","midi":52,"time":119.8041666666652,"velocity":0.5669291338582677,"duration":0.2291666666666714},{"name":"E4","midi":64,"time":119.8041666666652,"velocity":0.5669291338582677,"duration":0.23125000000000284},{"name":"A3","midi":57,"time":120.0354166666652,"velocity":0.5669291338582677,"duration":1.1812499999999773},{"name":"C3","midi":48,"time":120.03749999999853,"velocity":0.5669291338582677,"duration":0.23333333333333428},{"name":"C6","midi":84,"time":120.2729166666652,"velocity":0.5275590551181102,"duration":0.1145833333333286},{"name":"B2","midi":47,"time":120.2729166666652,"velocity":0.5669291338582677,"duration":0.23333333333333428},{"name":"B5","midi":83,"time":120.38749999999852,"velocity":0.5275590551181102,"duration":0.11875000000000568},{"name":"A5","midi":81,"time":120.50833333333186,"velocity":0.5275590551181102,"duration":0.11666666666666003},{"name":"C3","midi":48,"time":120.50833333333186,"velocity":0.5669291338582677,"duration":0.23749999999999716},{"name":"G5","midi":79,"time":120.62499999999852,"velocity":0.5275590551181102,"duration":0.11875000000000568},{"name":"F#5","midi":78,"time":120.74583333333186,"velocity":0.5748031496062992,"duration":0.11666666666666003},{"name":"A2","midi":45,"time":120.74583333333186,"velocity":0.5669291338582677,"duration":0.2354166666666515},{"name":"E5","midi":76,"time":120.86249999999852,"velocity":0.5748031496062992,"duration":0.11666666666666003},{"name":"D#5","midi":75,"time":120.98124999999851,"velocity":0.6062992125984252,"duration":0.23541666666666572},{"name":"B2","midi":47,"time":120.98333333333184,"velocity":0.5669291338582677,"duration":0.7145833333333087},{"name":"B4","midi":71,"time":121.21874999999851,"velocity":0.6062992125984252,"duration":0.23749999999998295},{"name":"E4","midi":64,"time":121.21874999999851,"velocity":0.5669291338582677,"duration":0.11874999999999147},{"name":"G3","midi":55,"time":121.22083333333184,"velocity":0.5669291338582677,"duration":0.1145833333333286},{"name":"F#3","midi":54,"time":121.3374999999985,"velocity":0.5669291338582677,"duration":0.11666666666666003},{"name":"D#4","midi":63,"time":121.33958333333183,"velocity":0.5669291338582677,"duration":0.1145833333333286},{"name":"C#5","midi":73,"time":121.45624999999849,"velocity":0.6062992125984252,"duration":0.2395833333333286},{"name":"G3","midi":55,"time":121.45833333333182,"velocity":0.5669291338582677,"duration":0.23541666666666572},{"name":"E4","midi":64,"time":121.45833333333182,"velocity":0.5669291338582677,"duration":0.23749999999999716},{"name":"D#5","midi":75,"time":121.69791666666515,"velocity":0.6062992125984252,"duration":0.2395833333333286},{"name":"F#4","midi":66,"time":121.69999999999848,"velocity":0.5669291338582677,"duration":0.23541666666666572},{"name":"A3","midi":57,"time":121.69999999999848,"velocity":0.5669291338582677,"duration":0.23541666666666572},{"name":"A2","midi":45,"time":121.69999999999848,"velocity":0.5669291338582677,"duration":0.23333333333333428},{"name":"E5","midi":76,"time":121.93749999999848,"velocity":0.5748031496062992,"duration":0.1145833333333286},{"name":"B3","midi":59,"time":121.93958333333181,"velocity":0.5669291338582677,"duration":0.23541666666666572},{"name":"G4","midi":67,"time":121.93958333333181,"velocity":0.5669291338582677,"duration":0.23541666666666572},{"name":"G2","midi":43,"time":121.94166666666514,"velocity":0.5669291338582677,"duration":0.23125000000000284},{"name":"D5","midi":74,"time":122.05208333333181,"velocity":0.6062992125984252,"duration":0.12083333333333712},{"name":"C5","midi":72,"time":122.17499999999848,"velocity":0.6062992125984252,"duration":0.11874999999999147},{"name":"E4","midi":64,"time":122.17708333333181,"velocity":0.5669291338582677,"duration":0.47291666666664867},{"name":"G4","midi":67,"time":122.17708333333181,"velocity":0.5669291338582677,"duration":0.11666666666666003},{"name":"E3","midi":52,"time":122.17916666666514,"velocity":0.5669291338582677,"duration":0.11249999999999716},{"name":"B4","midi":71,"time":122.2958333333318,"velocity":0.6062992125984252,"duration":0.11666666666666003},{"name":"F#4","midi":66,"time":122.2958333333318,"velocity":0.5669291338582677,"duration":0.1145833333333286},{"name":"D#3","midi":51,"time":122.29791666666513,"velocity":0.5669291338582677,"duration":0.11249999999999716},{"name":"C5","midi":72,"time":122.41249999999846,"velocity":0.6062992125984252,"duration":0.4749999999999943},{"name":"E3","midi":52,"time":122.41458333333179,"velocity":0.5669291338582677,"duration":0.23333333333333428},{"name":"G4","midi":67,"time":122.41458333333179,"velocity":0.5669291338582677,"duration":0.23541666666666572},{"name":"A4","midi":69,"time":122.64999999999846,"velocity":0.6062992125984252,"duration":0.23541666666666572},{"name":"F#3","midi":54,"time":122.65208333333179,"velocity":0.5669291338582677,"duration":0.23333333333333428},{"name":"D#4","midi":63,"time":122.65208333333179,"velocity":0.5669291338582677,"duration":0.23125000000000284},{"name":"B4","midi":71,"time":122.88749999999845,"velocity":0.6062992125984252,"duration":0.23541666666666572},{"name":"G3","midi":55,"time":122.88958333333179,"velocity":0.5669291338582677,"duration":0.23125000000000284},{"name":"E4","midi":64,"time":122.88958333333179,"velocity":0.5669291338582677,"duration":0.23333333333333428},{"name":"A4","midi":69,"time":123.00208333333178,"velocity":0.6062992125984252,"duration":0.11875000000000568},{"name":"E5","midi":76,"time":123.12499999999845,"velocity":0.5748031496062992,"duration":0.1145833333333286},{"name":"G4","midi":67,"time":123.12499999999845,"velocity":0.5669291338582677,"duration":0.1145833333333286},{"name":"G3","midi":55,"time":123.12499999999845,"velocity":0.5669291338582677,"duration":0.11249999999999716},{"name":"D#5","midi":75,"time":123.24166666666511,"velocity":0.6062992125984252,"duration":0.11666666666666003},{"name":"A4","midi":69,"time":123.24166666666511,"velocity":0.6062992125984252,"duration":0.1145833333333286},{"name":"F#3","midi":54,"time":123.24374999999844,"velocity":0.5669291338582677,"duration":0.11249999999999716},{"name":"E5","midi":76,"time":123.35833333333177,"velocity":0.5748031496062992,"duration":0.23541666666666572},{"name":"B4","midi":71,"time":123.3604166666651,"velocity":0.6062992125984252,"duration":0.23333333333333428},{"name":"G3","midi":55,"time":123.3604166666651,"velocity":0.5669291338582677,"duration":0.23125000000000284},{"name":"F#5","midi":78,"time":123.59583333333177,"velocity":0.5748031496062992,"duration":0.23333333333333428},{"name":"C5","midi":72,"time":123.59583333333177,"velocity":0.6062992125984252,"duration":0.23333333333333428},{"name":"A3","midi":57,"time":123.5979166666651,"velocity":0.5669291338582677,"duration":0.2291666666666714},{"name":"G5","midi":79,"time":123.83124999999843,"velocity":0.5275590551181102,"duration":0.23333333333332007},{"name":"D#4","midi":63,"time":123.83124999999843,"velocity":0.5669291338582677,"duration":0.23124999999998863},{"name":"B3","midi":59,"time":123.83333333333177,"velocity":0.5669291338582677,"duration":0.11041666666666572},{"name":"A3","midi":57,"time":123.94583333333176,"velocity":0.5669291338582677,"duration":0.11666666666666003},{"name":"G5","midi":79,"time":124.06458333333175,"velocity":0.5275590551181102,"duration":0.1145833333333286},{"name":"B3","midi":59,"time":124.06666666666509,"velocity":0.5669291338582677,"duration":0.2291666666666572},{"name":"G3","midi":55,"time":124.06666666666509,"velocity":0.5669291338582677,"duration":0.11041666666666572},{"name":"F#5","midi":78,"time":124.17916666666508,"velocity":0.5748031496062992,"duration":0.11666666666666003},{"name":"A3","midi":57,"time":124.18124999999841,"velocity":0.5669291338582677,"duration":0.1145833333333286},{"name":"G5","midi":79,"time":124.29791666666507,"velocity":0.5275590551181102,"duration":0.23333333333333428},{"name":"B3","midi":59,"time":124.29791666666507,"velocity":0.5669291338582677,"duration":0.23125000000000284},{"name":"A5","midi":81,"time":124.53124999999841,"velocity":0.5275590551181102,"duration":0.24166666666666003},{"name":"E4","midi":64,"time":124.53333333333174,"velocity":0.5669291338582677,"duration":0.2395833333333286},{"name":"C4","midi":60,"time":124.53333333333174,"velocity":0.5669291338582677,"duration":0.23749999999999716},{"name":"B4","midi":71,"time":124.77291666666507,"velocity":0.6062992125984252,"duration":1.6395833333332348},{"name":"D#3","midi":51,"time":124.7749999999984,"velocity":0.5669291338582677,"duration":0.23124999999998863},{"name":"F#4","midi":66,"time":124.7749999999984,"velocity":0.5669291338582677,"duration":0.1145833333333286},{"name":"G4","midi":67,"time":124.88958333333173,"velocity":0.5669291338582677,"duration":0.11666666666666003},{"name":"E4","midi":64,"time":125.00833333333172,"velocity":0.5669291338582677,"duration":0.11666666666666003},{"name":"B2","midi":47,"time":125.00833333333172,"velocity":0.5669291338582677,"duration":0.23333333333332007},{"name":"F#4","midi":66,"time":125.12499999999838,"velocity":0.5669291338582677,"duration":0.11666666666666003},{"name":"G4","midi":67,"time":125.24166666666504,"velocity":0.5669291338582677,"duration":0.11249999999999716},{"name":"A4","midi":69,"time":125.35624999999837,"velocity":0.6062992125984252,"duration":0.1145833333333286},{"name":"F#4","midi":66,"time":125.47291666666503,"velocity":0.5669291338582677,"duration":0.11666666666666003},{"name":"E3","midi":52,"time":125.47291666666503,"velocity":0.5669291338582677,"duration":0.23333333333332007},{"name":"G4","midi":67,"time":125.58958333333169,"velocity":0.5669291338582677,"duration":0.1145833333333286},{"name":"A4","midi":69,"time":125.70624999999835,"velocity":0.6062992125984252,"duration":0.2354166666666515},{"name":"F#3","midi":54,"time":125.70833333333168,"velocity":0.5669291338582677,"duration":0.1145833333333286},{"name":"G3","midi":55,"time":125.82499999999834,"velocity":0.5669291338582677,"duration":0.11666666666666003},{"name":"G4","midi":67,"time":125.94374999999833,"velocity":0.5669291338582677,"duration":0.23333333333332007},{"name":"E3","midi":52,"time":125.94374999999833,"velocity":0.5669291338582677,"duration":0.1145833333333286},{"name":"F#3","midi":54,"time":126.06041666666499,"velocity":0.5669291338582677,"duration":0.11666666666666003},{"name":"G3","midi":55,"time":126.17916666666498,"velocity":0.5669291338582677,"duration":0.1145833333333286},{"name":"F#4","midi":66,"time":126.17916666666498,"velocity":0.5669291338582677,"duration":0.23333333333332007},{"name":"A3","midi":57,"time":126.29374999999831,"velocity":0.5669291338582677,"duration":0.11666666666666003},{"name":"B4","midi":71,"time":126.41458333333163,"velocity":0.6062992125984252,"duration":0.2354166666666515},{"name":"E5","midi":76,"time":126.41458333333163,"velocity":0.5748031496062992,"duration":0.1145833333333286},{"name":"F#3","midi":54,"time":126.41666666666497,"velocity":0.5669291338582677,"duration":0.11249999999999716},{"name":"D5","midi":74,"time":126.5312499999983,"velocity":0.6062992125984252,"duration":0.11666666666666003},{"name":"G3","midi":55,"time":126.5312499999983,"velocity":0.5669291338582677,"duration":0.11666666666666003},{"name":"C5","midi":72,"time":126.64999999999829,"velocity":0.6062992125984252,"duration":0.1145833333333286},{"name":"E4","midi":64,"time":126.64999999999829,"velocity":0.5669291338582677,"duration":0.7041666666666373},{"name":"A3","midi":57,"time":126.65208333333162,"velocity":0.5669291338582677,"duration":0.23124999999998863},{"name":"B4","midi":71,"time":126.76666666666495,"velocity":0.6062992125984252,"duration":0.11666666666666003},{"name":"A4","midi":69,"time":126.88541666666494,"velocity":0.6062992125984252,"duration":0.1145833333333286},{"name":"G3","midi":55,"time":126.88541666666494,"velocity":0.5669291338582677,"duration":0.2354166666666515},{"name":"B4","midi":71,"time":127.0020833333316,"velocity":0.6062992125984252,"duration":0.11666666666666003},{"name":"C5","midi":72,"time":127.12083333333159,"velocity":0.6062992125984252,"duration":0.23333333333333428},{"name":"F#3","midi":54,"time":127.12291666666492,"velocity":0.5669291338582677,"duration":0.2291666666666714},{"name":"B4","midi":71,"time":127.35624999999825,"velocity":0.6062992125984252,"duration":0.1145833333333286},{"name":"D#4","midi":63,"time":127.35624999999825,"velocity":0.5669291338582677,"duration":0.23333333333332007},{"name":"B3","midi":59,"time":127.35833333333159,"velocity":0.5669291338582677,"duration":0.2291666666666572},{"name":"A4","midi":69,"time":127.47291666666491,"velocity":0.6062992125984252,"duration":0.1145833333333286},{"name":"G4","midi":67,"time":127.58958333333157,"velocity":0.5669291338582677,"duration":0.46666666666666856},{"name":"E4","midi":64,"time":127.5916666666649,"velocity":0.5669291338582677,"duration":0.23125000000000284},{"name":"E3","midi":52,"time":127.5916666666649,"velocity":0.5669291338582677,"duration":0.23125000000000284},{"name":"C5","midi":72,"time":127.82291666666491,"velocity":0.6062992125984252,"duration":0.11666666666666003},{"name":"E3","midi":52,"time":127.82499999999824,"velocity":0.5669291338582677,"duration":0.1145833333333286},{"name":"B4","midi":71,"time":127.9416666666649,"velocity":0.6062992125984252,"duration":0.11458333333334281},{"name":"D#3","midi":51,"time":127.9416666666649,"velocity":0.5669291338582677,"duration":0.11250000000001137},{"name":"C5","midi":72,"time":128.05833333333157,"velocity":0.6062992125984252,"duration":0.6895833333333599},{"name":"A4","midi":69,"time":128.05833333333157,"velocity":0.6062992125984252,"duration":0.11250000000001137},{"name":"E3","midi":52,"time":128.0604166666649,"velocity":0.5669291338582677,"duration":0.22708333333335418},{"name":"G4","midi":67,"time":128.17291666666492,"velocity":0.5669291338582677,"duration":0.11458333333334281},{"name":"F#3","midi":54,"time":128.2895833333316,"velocity":0.5669291338582677,"duration":0.22916666666668561},{"name":"F#4","midi":66,"time":128.2895833333316,"velocity":0.5669291338582677,"duration":0.11041666666667993},{"name":"E4","midi":64,"time":128.4020833333316,"velocity":0.5669291338582677,"duration":0.11458333333334281},{"name":"G3","midi":55,"time":128.51874999999828,"velocity":0.5669291338582677,"duration":1.1604166666666913},{"name":"D4","midi":62,"time":128.5208333333316,"velocity":0.5669291338582677,"duration":0.22708333333332575},{"name":"B4","midi":71,"time":128.74999999999827,"velocity":0.6062992125984252,"duration":0.11458333333334281},{"name":"G4","midi":67,"time":128.74999999999827,"velocity":0.5669291338582677,"duration":0.11250000000001137},{"name":"A4","midi":69,"time":128.8645833333316,"velocity":0.6062992125984252,"duration":0.11458333333334281},{"name":"F4","midi":65,"time":128.86666666666494,"velocity":0.5669291338582677,"duration":0.11250000000001137},{"name":"B4","midi":71,"time":128.98124999999828,"velocity":0.6062992125984252,"duration":0.23125000000001705},{"name":"E4","midi":64,"time":128.98124999999828,"velocity":0.5669291338582677,"duration":0.11458333333334281},{"name":"D4","midi":62,"time":129.09583333333163,"velocity":0.5669291338582677,"duration":0.11458333333334281},{"name":"C#5","midi":73,"time":129.2124999999983,"velocity":0.6062992125984252,"duration":0.23541666666667993},{"name":"C#4","midi":61,"time":129.21458333333163,"velocity":0.5669291338582677,"duration":0.11458333333334281},{"name":"B3","midi":59,"time":129.32916666666497,"velocity":0.5669291338582677,"duration":0.11666666666667425},{"name":"D5","midi":74,"time":129.44791666666498,"velocity":0.6062992125984252,"duration":0.3499999999999943},{"name":"A3","midi":57,"time":129.44791666666498,"velocity":0.5669291338582677,"duration":0.2291666666666572},{"name":"D5","midi":74,"time":129.67916666666497,"velocity":0.6062992125984252,"duration":0.9395833333333599},{"name":"F#3","midi":54,"time":129.67916666666497,"velocity":0.5669291338582677,"duration":0.11666666666667425},{"name":"C5","midi":72,"time":129.79791666666497,"velocity":0.6062992125984252,"duration":0.11666666666667425},{"name":"E3","midi":52,"time":129.79791666666497,"velocity":0.5669291338582677,"duration":0.11666666666667425},{"name":"B4","midi":71,"time":129.91666666666498,"velocity":0.6062992125984252,"duration":0.11458333333334281},{"name":"F#3","midi":54,"time":129.91666666666498,"velocity":0.5669291338582677,"duration":0.2333333333333485},{"name":"A4","midi":69,"time":130.03124999999832,"velocity":0.6062992125984252,"duration":0.11666666666667425},{"name":"G#4","midi":68,"time":130.14999999999833,"velocity":0.6062992125984252,"duration":0.11458333333334281},{"name":"G#3","midi":56,"time":130.14999999999833,"velocity":0.5669291338582677,"duration":0.2333333333333485},{"name":"F#4","midi":66,"time":130.26458333333167,"velocity":0.5669291338582677,"duration":0.11666666666667425},{"name":"A3","midi":57,"time":130.38333333333168,"velocity":0.5669291338582677,"duration":0.2354166666666515},{"name":"E4","midi":64,"time":130.385416666665,"velocity":0.5669291338582677,"duration":0.4729166666666629},{"name":"C5","midi":72,"time":130.62083333333166,"velocity":0.6062992125984252,"duration":0.11875000000000568},{"name":"A3","midi":57,"time":130.62083333333166,"velocity":0.5669291338582677,"duration":0.11666666666667425},{"name":"B4","midi":71,"time":130.73958333333167,"velocity":0.6062992125984252,"duration":0.11666666666667425},{"name":"G#3","midi":56,"time":130.741666666665,"velocity":0.5669291338582677,"duration":0.11458333333334281},{"name":"C5","midi":72,"time":130.85833333333167,"velocity":0.6062992125984252,"duration":0.2354166666666515},{"name":"A4","midi":69,"time":130.860416666665,"velocity":0.6062992125984252,"duration":0.470833333333303},{"name":"A3","midi":57,"time":130.860416666665,"velocity":0.5669291338582677,"duration":0.23124999999998863},{"name":"D5","midi":74,"time":131.09374999999832,"velocity":0.6062992125984252,"duration":0.23749999999998295},{"name":"B3","midi":59,"time":131.09583333333165,"velocity":0.5669291338582677,"duration":0.23333333333332007},{"name":"E5","midi":76,"time":131.33333333333164,"velocity":0.5511811023622047,"duration":0.23541666666667993},{"name":"C4","midi":60,"time":131.33333333333164,"velocity":0.5669291338582677,"duration":0.23541666666667993},{"name":"A4","midi":69,"time":131.57083333333165,"velocity":0.6062992125984252,"duration":0.2395833333333428},{"name":"C4","midi":60,"time":131.57083333333165,"velocity":0.5669291338582677,"duration":0.11666666666667425},{"name":"A3","midi":57,"time":131.57291666666498,"velocity":0.5669291338582677,"duration":0.23750000000001137},{"name":"G#4","midi":68,"time":131.68958333333165,"velocity":0.6062992125984252,"duration":0.11875000000000568},{"name":"B3","midi":59,"time":131.68958333333165,"velocity":0.5669291338582677,"duration":0.11875000000000568},{"name":"A4","midi":69,"time":131.81249999999832,"velocity":0.6062992125984252,"duration":0.2354166666666515},{"name":"A5","midi":81,"time":131.81249999999832,"velocity":0.5039370078740157,"duration":0.59375},{"name":"G3","midi":55,"time":131.81458333333165,"velocity":0.5669291338582677,"duration":0.23124999999998863},{"name":"C4","midi":60,"time":131.81458333333165,"velocity":0.5669291338582677,"duration":0.23333333333332007},{"name":"B4","midi":71,"time":132.0499999999983,"velocity":0.6062992125984252,"duration":0.23750000000001137},{"name":"F3","midi":53,"time":132.0499999999983,"velocity":0.5669291338582677,"duration":0.23750000000001137},{"name":"D4","midi":62,"time":132.0499999999983,"velocity":0.5669291338582677,"duration":0.23541666666667993},{"name":"C5","midi":72,"time":132.28958333333165,"velocity":0.6062992125984252,"duration":0.23750000000001137},{"name":"E3","midi":52,"time":132.28958333333165,"velocity":0.5669291338582677,"duration":0.4791666666666856},{"name":"E4","midi":64,"time":132.29166666666498,"velocity":0.5669291338582677,"duration":0.11458333333334281},{"name":"G#5","midi":80,"time":132.40833333333165,"velocity":0.5039370078740157,"duration":0.11875000000000568},{"name":"D4","midi":62,"time":132.40833333333165,"velocity":0.5669291338582677,"duration":0.11666666666667425},{"name":"A5","midi":81,"time":132.529166666665,"velocity":0.5039370078740157,"duration":0.11875000000000568},{"name":"C5","midi":72,"time":132.529166666665,"velocity":0.6062992125984252,"duration":0.11875000000000568},{"name":"C4","midi":60,"time":132.53124999999832,"velocity":0.5669291338582677,"duration":0.11458333333334281},{"name":"G#5","midi":80,"time":132.64999999999833,"velocity":0.5039370078740157,"duration":0.11875000000000568},{"name":"B4","midi":71,"time":132.64999999999833,"velocity":0.6062992125984252,"duration":0.11875000000000568},{"name":"D4","midi":62,"time":132.64999999999833,"velocity":0.5669291338582677,"duration":0.11666666666667425},{"name":"C5","midi":72,"time":132.77083333333167,"velocity":0.6062992125984252,"duration":0.2354166666666515},{"name":"A5","midi":81,"time":132.77083333333167,"velocity":0.5039370078740157,"duration":0.23749999999998295},{"name":"E4","midi":64,"time":132.772916666665,"velocity":0.5669291338582677,"duration":0.23333333333332007},{"name":"B5","midi":83,"time":133.00833333333165,"velocity":0.5039370078740157,"duration":0.2395833333333428},{"name":"D5","midi":74,"time":133.01041666666498,"velocity":0.6062992125984252,"duration":0.23750000000001137},{"name":"F4","midi":65,"time":133.01041666666498,"velocity":0.5669291338582677,"duration":0.23541666666667993},{"name":"E5","midi":76,"time":133.24999999999832,"velocity":0.5511811023622047,"duration":0.7125000000000057},{"name":"G#3","midi":56,"time":133.24999999999832,"velocity":0.5669291338582677,"duration":0.23750000000001137},{"name":"D5","midi":74,"time":133.366666666665,"velocity":0.6062992125984252,"duration":0.11875000000000568},{"name":"C5","midi":72,"time":133.48749999999833,"velocity":0.6062992125984252,"duration":0.11875000000000568},{"name":"E3","midi":52,"time":133.48958333333167,"velocity":0.5669291338582677,"duration":0.23750000000001137},{"name":"A2","midi":45,"time":133.48958333333167,"velocity":0.5669291338582677,"duration":0.11666666666667425},{"name":"D5","midi":74,"time":133.60833333333167,"velocity":0.6062992125984252,"duration":0.11875000000000568},{"name":"B2","midi":47,"time":133.60833333333167,"velocity":0.5669291338582677,"duration":0.11666666666667425},{"name":"E5","midi":76,"time":133.729166666665,"velocity":0.5748031496062992,"duration":0.2354166666666515},{"name":"C3","midi":48,"time":133.729166666665,"velocity":0.5669291338582677,"duration":0.23333333333332007},{"name":"D5","midi":74,"time":133.96458333333166,"velocity":0.6062992125984252,"duration":0.11458333333334281},{"name":"F5","midi":77,"time":133.966666666665,"velocity":0.5748031496062992,"duration":0.23541666666667993},{"name":"A3","midi":57,"time":133.966666666665,"velocity":0.5669291338582677,"duration":0.2333333333333485},{"name":"D3","midi":50,"time":133.96874999999832,"velocity":0.5669291338582677,"duration":0.4729166666666913},{"name":"C5","midi":72,"time":134.08124999999833,"velocity":0.6062992125984252,"duration":0.11875000000000568},{"name":"B4","midi":71,"time":134.20208333333167,"velocity":0.6062992125984252,"duration":0.23750000000001137},{"name":"G#4","midi":68,"time":134.204166666665,"velocity":0.6062992125984252,"duration":0.23541666666667993},{"name":"B3","midi":59,"time":134.204166666665,"velocity":0.5669291338582677,"duration":0.11458333333334281},{"name":"C4","midi":60,"time":134.32083333333168,"velocity":0.5669291338582677,"duration":0.11875000000000568},{"name":"E5","midi":76,"time":134.44166666666501,"velocity":0.5748031496062992,"duration":0.11875000000000568},{"name":"A3","midi":57,"time":134.44374999999835,"velocity":0.5669291338582677,"duration":0.11458333333334281},{"name":"E4","midi":64,"time":134.44374999999835,"velocity":0.5669291338582677,"duration":0.23750000000001137},{"name":"C3","midi":48,"time":134.44583333333168,"velocity":0.5669291338582677,"duration":0.11250000000001137},{"name":"D5","midi":74,"time":134.56249999999835,"velocity":0.6062992125984252,"duration":0.11875000000000568},{"name":"B3","midi":59,"time":134.56249999999835,"velocity":0.5669291338582677,"duration":0.11666666666667425},{"name":"D3","midi":50,"time":134.56249999999835,"velocity":0.5669291338582677,"duration":0.11666666666667425},{"name":"C5","midi":72,"time":134.68124999999836,"velocity":0.6062992125984252,"duration":0.11875000000000568},{"name":"C4","midi":60,"time":134.6833333333317,"velocity":0.5669291338582677,"duration":0.11666666666667425},{"name":"E3","midi":52,"time":134.6833333333317,"velocity":0.5669291338582677,"duration":0.23750000000001137},{"name":"B4","midi":71,"time":134.79999999999836,"velocity":0.6062992125984252,"duration":0.11875000000000568},{"name":"D4","midi":62,"time":134.8020833333317,"velocity":0.5669291338582677,"duration":0.11666666666667425},{"name":"A4","midi":69,"time":134.92291666666503,"velocity":0.6062992125984252,"duration":0.2333333333333485},{"name":"B3","midi":59,"time":134.92291666666503,"velocity":0.5669291338582677,"duration":0.11458333333334281},{"name":"F3","midi":53,"time":134.92291666666503,"velocity":0.5669291338582677,"duration":0.47083333333335986},{"name":"G#4","midi":68,"time":135.03749999999837,"velocity":0.6062992125984252,"duration":0.11875000000000568},{"name":"C4","midi":60,"time":135.03749999999837,"velocity":0.5669291338582677,"duration":0.11666666666667425},{"name":"B4","midi":71,"time":135.1583333333317,"velocity":0.6062992125984252,"duration":0.11458333333334281},{"name":"A4","midi":69,"time":135.1583333333317,"velocity":0.6062992125984252,"duration":0.23541666666667993},{"name":"D4","midi":62,"time":135.16041666666504,"velocity":0.5669291338582677,"duration":0.23125000000001705},{"name":"C5","midi":72,"time":135.27499999999839,"velocity":0.6062992125984252,"duration":0.11666666666667425},{"name":"A4","midi":69,"time":135.39583333333172,"velocity":0.6062992125984252,"duration":0.11666666666667425},{"name":"C4","midi":60,"time":135.39583333333172,"velocity":0.5669291338582677,"duration":0.23541666666667993},{"name":"E3","midi":52,"time":135.39583333333172,"velocity":0.5669291338582677,"duration":0.11458333333334281},{"name":"B4","midi":71,"time":135.5124999999984,"velocity":0.6062992125984252,"duration":0.11666666666667425},{"name":"D3","midi":50,"time":135.51458333333173,"velocity":0.5669291338582677,"duration":0.11458333333334281},{"name":"G#4","midi":68,"time":135.6312499999984,"velocity":0.6062992125984252,"duration":0.23750000000001137},{"name":"C5","midi":72,"time":135.6312499999984,"velocity":0.6062992125984252,"duration":0.11666666666667425},{"name":"B3","midi":59,"time":135.63333333333173,"velocity":0.5669291338582677,"duration":0.2333333333333485},{"name":"E3","midi":52,"time":135.63333333333173,"velocity":0.5669291338582677,"duration":0.2333333333333485},{"name":"D5","midi":74,"time":135.74791666666508,"velocity":0.6062992125984252,"duration":0.11666666666667425},{"name":"B4","midi":71,"time":135.8687499999984,"velocity":0.6062992125984252,"duration":0.11250000000001137},{"name":"E4","midi":64,"time":135.87083333333175,"velocity":0.5669291338582677,"duration":0.22916666666668561},{"name":"C3","midi":48,"time":135.87083333333175,"velocity":0.5669291338582677,"duration":0.22916666666668561},{"name":"C5","midi":72,"time":135.98124999999843,"velocity":0.6062992125984252,"duration":0.11875000000000568},{"name":"A4","midi":69,"time":136.10208333333176,"velocity":0.6062992125984252,"duration":0.47083333333333144},{"name":"D5","midi":74,"time":136.10208333333176,"velocity":0.6062992125984252,"duration":0.23333333333332007},{"name":"A3","midi":57,"time":136.1041666666651,"velocity":0.5669291338582677,"duration":0.7041666666666799},{"name":"F3","midi":53,"time":136.1041666666651,"velocity":0.5669291338582677,"duration":0.23124999999998863},{"name":"C5","midi":72,"time":136.3374999999984,"velocity":0.6062992125984252,"duration":0.23541666666667993},{"name":"E3","midi":52,"time":136.3374999999984,"velocity":0.5669291338582677,"duration":0.11458333333334281},{"name":"D3","midi":50,"time":136.4541666666651,"velocity":0.5669291338582677,"duration":0.11666666666667425},{"name":"B4","midi":71,"time":136.57499999999843,"velocity":0.6062992125984252,"duration":0.2333333333333485},{"name":"E3","midi":52,"time":136.57499999999843,"velocity":0.5669291338582677,"duration":0.11458333333334281},{"name":"F3","midi":53,"time":136.68958333333177,"velocity":0.5669291338582677,"duration":0.11666666666667425},{"name":"E5","midi":76,"time":136.8104166666651,"velocity":0.5748031496062992,"duration":0.23125000000001705},{"name":"G3","midi":55,"time":136.8104166666651,"velocity":0.5669291338582677,"duration":0.4625000000000057},{"name":"E3","midi":52,"time":136.81249999999844,"velocity":0.5669291338582677,"duration":0.11041666666667993},{"name":"D3","midi":50,"time":136.92499999999845,"velocity":0.5669291338582677,"duration":0.11666666666667425},{"name":"A4","midi":69,"time":137.04374999999845,"velocity":0.6062992125984252,"duration":0.5770833333333485},{"name":"C#3","midi":49,"time":137.04374999999845,"velocity":0.5669291338582677,"duration":0.2291666666666572},{"name":"F3","midi":53,"time":137.27499999999844,"velocity":0.5669291338582677,"duration":0.11458333333334281},{"name":"A2","midi":45,"time":137.27499999999844,"velocity":0.5669291338582677,"duration":0.23125000000001705},{"name":"E3","midi":52,"time":137.38958333333179,"velocity":0.5669291338582677,"duration":0.11458333333334281},{"name":"D3","midi":50,"time":137.50624999999846,"velocity":0.5669291338582677,"duration":0.23125000000001705},{"name":"F3","midi":53,"time":137.5083333333318,"velocity":0.5669291338582677,"duration":0.6937500000000227},{"name":"F5","midi":77,"time":137.62291666666513,"velocity":0.5748031496062992,"duration":0.11458333333334281},{"name":"D5","midi":74,"time":137.7395833333318,"velocity":0.6062992125984252,"duration":0.11250000000001137},{"name":"C3","midi":48,"time":137.7395833333318,"velocity":0.5669291338582677,"duration":0.23125000000001705},{"name":"B4","midi":71,"time":137.85416666666515,"velocity":0.6062992125984252,"duration":0.11458333333334281},{"name":"G4","midi":67,"time":137.97083333333183,"velocity":0.5669291338582677,"duration":0.5770833333333485},{"name":"B2","midi":47,"time":137.97291666666516,"velocity":0.5669291338582677,"duration":0.22708333333332575},{"name":"E3","midi":52,"time":138.2020833333318,"velocity":0.5669291338582677,"duration":0.11458333333334281},{"name":"G2","midi":43,"time":138.20416666666515,"velocity":0.5669291338582677,"duration":0.22708333333335418},{"name":"D3","midi":50,"time":138.3187499999985,"velocity":0.5669291338582677,"duration":0.11250000000001137},{"name":"E3","midi":52,"time":138.43333333333183,"velocity":0.5669291338582677,"duration":0.9208333333333769},{"name":"C3","midi":48,"time":138.43333333333183,"velocity":0.5669291338582677,"duration":0.23125000000001705},{"name":"E5","midi":76,"time":138.54791666666517,"velocity":0.5748031496062992,"duration":0.11458333333334281},{"name":"C5","midi":72,"time":138.66458333333185,"velocity":0.6062992125984252,"duration":0.11250000000001137},{"name":"B2","midi":47,"time":138.66666666666518,"velocity":0.5669291338582677,"duration":0.22708333333335418},{"name":"A4","midi":69,"time":138.77708333333186,"velocity":0.6062992125984252,"duration":0.11666666666667425},{"name":"F4","midi":65,"time":138.89583333333186,"velocity":0.5669291338582677,"duration":0.2291666666666572},{"name":"A2","midi":45,"time":138.89583333333186,"velocity":0.5669291338582677,"duration":0.22708333333332575},{"name":"G4","midi":67,"time":139.12499999999852,"velocity":0.5669291338582677,"duration":0.11250000000001137},{"name":"B2","midi":47,"time":139.12499999999852,"velocity":0.5669291338582677,"duration":0.11250000000001137},{"name":"A4","midi":69,"time":139.23958333333186,"velocity":0.6062992125984252,"duration":0.11458333333334281},{"name":"C3","midi":48,"time":139.23958333333186,"velocity":0.5669291338582677,"duration":0.11458333333334281},{"name":"D3","midi":50,"time":139.35624999999854,"velocity":0.5669291338582677,"duration":0.5729166666666856},{"name":"G4","midi":67,"time":139.35624999999854,"velocity":0.5669291338582677,"duration":0.11041666666665151},{"name":"B2","midi":47,"time":139.35833333333187,"velocity":0.5669291338582677,"duration":0.22708333333332575},{"name":"F4","midi":65,"time":139.46874999999852,"velocity":0.5669291338582677,"duration":0.11458333333334281},{"name":"E4","midi":64,"time":139.5854166666652,"velocity":0.5669291338582677,"duration":0.11458333333334281},{"name":"G2","midi":43,"time":139.5854166666652,"velocity":0.5669291338582677,"duration":0.23125000000001705},{"name":"F4","midi":65,"time":139.69999999999854,"velocity":0.5669291338582677,"duration":0.11666666666667425},{"name":"E4","midi":64,"time":139.81874999999854,"velocity":0.5669291338582677,"duration":1.0354166666667481},{"name":"C3","midi":48,"time":139.81874999999854,"velocity":0.5669291338582677,"duration":0.22708333333335418},{"name":"C3","midi":48,"time":139.92916666666522,"velocity":0.5669291338582677,"duration":0.3479166666666913},{"name":"D3","midi":50,"time":140.04791666666523,"velocity":0.5669291338582677,"duration":0.11458333333334281},{"name":"E3","midi":52,"time":140.16249999999857,"velocity":0.5669291338582677,"duration":0.11250000000001137},{"name":"F3","midi":53,"time":140.27708333333192,"velocity":0.5669291338582677,"duration":0.11458333333334281},{"name":"G3","midi":55,"time":140.3937499999986,"velocity":0.5669291338582677,"duration":0.11458333333334281},{"name":"A3","midi":57,"time":140.50833333333193,"velocity":0.5669291338582677,"duration":0.11666666666667425},{"name":"B2","midi":47,"time":140.51041666666526,"velocity":0.5669291338582677,"duration":0.23125000000001705},{"name":"B3","midi":59,"time":140.6249999999986,"velocity":0.5669291338582677,"duration":0.11458333333334281},{"name":"C4","midi":60,"time":140.74166666666528,"velocity":0.5669291338582677,"duration":1.4791666666667425},{"name":"A2","midi":45,"time":140.7437499999986,"velocity":0.5669291338582677,"duration":0.4562500000000398},{"name":"D4","midi":62,"time":140.8541666666653,"velocity":0.5669291338582677,"duration":0.11666666666667425},{"name":"E4","midi":64,"time":140.97083333333197,"velocity":0.5669291338582677,"duration":0.11458333333334281},{"name":"F4","midi":65,"time":141.08749999999864,"velocity":0.5669291338582677,"duration":0.11250000000001137},{"name":"G4","midi":67,"time":141.20208333333198,"velocity":0.5669291338582677,"duration":0.11041666666667993},{"name":"A4","midi":69,"time":141.31249999999866,"velocity":0.6062992125984252,"duration":0.11250000000001137},{"name":"B4","midi":71,"time":141.427083333332,"velocity":0.6062992125984252,"duration":0.11250000000001137},{"name":"G2","midi":43,"time":141.427083333332,"velocity":0.5669291338582677,"duration":0.22708333333335418},{"name":"C5","midi":72,"time":141.54166666666535,"velocity":0.6062992125984252,"duration":0.11250000000001137},{"name":"D4","midi":62,"time":141.6562499999987,"velocity":0.5669291338582677,"duration":0.11250000000001137},{"name":"F2","midi":41,"time":141.6562499999987,"velocity":0.5669291338582677,"duration":0.11250000000001137},{"name":"G3","midi":55,"time":141.77083333333204,"velocity":0.5669291338582677,"duration":0.11041666666665151},{"name":"E4","midi":64,"time":141.77083333333204,"velocity":0.5669291338582677,"duration":0.10833333333332007},{"name":"F3","midi":53,"time":141.8812499999987,"velocity":0.5669291338582677,"duration":0.11249999999998295},{"name":"D4","midi":62,"time":141.88333333333202,"velocity":0.5669291338582677,"duration":0.10833333333332007},{"name":"E3","midi":52,"time":141.99374999999867,"velocity":0.5669291338582677,"duration":0.11250000000001137},{"name":"E4","midi":64,"time":141.995833333332,"velocity":0.5669291338582677,"duration":0.11041666666667993},{"name":"F4","midi":65,"time":142.108333333332,"velocity":0.5669291338582677,"duration":0.572916666666714},{"name":"D3","midi":50,"time":142.108333333332,"velocity":0.5669291338582677,"duration":0.11250000000001137},{"name":"E4","midi":64,"time":142.22291666666536,"velocity":0.5669291338582677,"duration":0.11458333333334281},{"name":"C3","midi":48,"time":142.22291666666536,"velocity":0.5669291338582677,"duration":0.11250000000001137},{"name":"D4","midi":62,"time":142.3374999999987,"velocity":0.5669291338582677,"duration":0.11250000000001137},{"name":"B2","midi":47,"time":142.33958333333203,"velocity":0.5669291338582677,"duration":0.11041666666667993},{"name":"C4","midi":60,"time":142.45208333333204,"velocity":0.5669291338582677,"duration":0.11458333333334281},{"name":"A2","midi":45,"time":142.45208333333204,"velocity":0.5669291338582677,"duration":0.11458333333334281},{"name":"B3","midi":59,"time":142.56874999999872,"velocity":0.5669291338582677,"duration":0.23125000000001705},{"name":"G2","midi":43,"time":142.56874999999872,"velocity":0.5669291338582677,"duration":0.23125000000001705},{"name":"A4","midi":69,"time":142.68333333333206,"velocity":0.6062992125984252,"duration":0.11458333333334281},{"name":"C5","midi":72,"time":142.79999999999873,"velocity":0.6062992125984252,"duration":0.11666666666667425},{"name":"G4","midi":67,"time":142.80208333333206,"velocity":0.5669291338582677,"duration":0.11250000000001137},{"name":"E4","midi":64,"time":142.80208333333206,"velocity":0.5669291338582677,"duration":0.11250000000001137},{"name":"G3","midi":55,"time":142.8041666666654,"velocity":0.5669291338582677,"duration":0.22916666666668561},{"name":"B4","midi":71,"time":142.9166666666654,"velocity":0.6062992125984252,"duration":0.11458333333334281},{"name":"D4","midi":62,"time":142.91874999999874,"velocity":0.5669291338582677,"duration":0.11041666666667993},{"name":"F4","midi":65,"time":142.91874999999874,"velocity":0.5669291338582677,"duration":0.11250000000001137},{"name":"C5","midi":72,"time":143.03333333333208,"velocity":0.6062992125984252,"duration":0.2333333333333485},{"name":"E4","midi":64,"time":143.0354166666654,"velocity":0.5669291338582677,"duration":0.23125000000001705},{"name":"C4","midi":60,"time":143.0354166666654,"velocity":0.5669291338582677,"duration":0.11250000000001137},{"name":"A3","midi":57,"time":143.03749999999874,"velocity":0.5669291338582677,"duration":0.22708333333335418},{"name":"B3","midi":59,"time":143.14999999999876,"velocity":0.5669291338582677,"duration":0.11458333333334281},{"name":"D5","midi":74,"time":143.26874999999876,"velocity":0.6062992125984252,"duration":0.2291666666666572},{"name":"A4","midi":69,"time":143.26874999999876,"velocity":0.6062992125984252,"duration":0.22708333333332575},{"name":"A3","midi":57,"time":143.2708333333321,"velocity":0.5669291338582677,"duration":0.10833333333332007},{"name":"F3","midi":53,"time":143.2708333333321,"velocity":0.5669291338582677,"duration":0.22499999999999432},{"name":"B3","midi":59,"time":143.38124999999874,"velocity":0.5669291338582677,"duration":0.11250000000001137},{"name":"E5","midi":76,"time":143.49791666666542,"velocity":0.5748031496062992,"duration":0.22499999999999432},{"name":"G4","midi":67,"time":143.49999999999875,"velocity":0.5669291338582677,"duration":1.1520833333333371},{"name":"C4","midi":60,"time":143.49999999999875,"velocity":0.5669291338582677,"duration":1.15625},{"name":"E5","midi":76,"time":143.7229166666654,"velocity":0.5748031496062992,"duration":0.11666666666667425},{"name":"C3","midi":48,"time":143.72499999999874,"velocity":0.5669291338582677,"duration":0.11458333333334281},{"name":"D5","midi":74,"time":143.8395833333321,"velocity":0.6062992125984252,"duration":0.11250000000001137},{"name":"B2","midi":47,"time":143.84166666666542,"velocity":0.5669291338582677,"duration":0.11041666666667993},{"name":"E5","midi":76,"time":143.95416666666543,"velocity":0.5748031496062992,"duration":0.23124999999998863},{"name":"C3","midi":48,"time":143.95416666666543,"velocity":0.5669291338582677,"duration":0.23124999999998863},{"name":"F5","midi":77,"time":144.18541666666542,"velocity":0.5748031496062992,"duration":0.23124999999998863},{"name":"D3","midi":50,"time":144.18749999999875,"velocity":0.5669291338582677,"duration":0.2291666666666572},{"name":"G5","midi":79,"time":144.41874999999874,"velocity":0.5275590551181102,"duration":0.11666666666667425},{"name":"E3","midi":52,"time":144.42083333333207,"velocity":0.5669291338582677,"duration":0.2333333333333485},{"name":"F5","midi":77,"time":144.5354166666654,"velocity":0.5748031496062992,"duration":0.11666666666667425},{"name":"E5","midi":76,"time":144.65624999999875,"velocity":0.5748031496062992,"duration":0.11666666666667425},{"name":"C5","midi":72,"time":144.65624999999875,"velocity":0.6062992125984252,"duration":0.23750000000001137},{"name":"G3","midi":55,"time":144.65833333333208,"velocity":0.5669291338582677,"duration":0.4729166666666629},{"name":"E3","midi":52,"time":144.65833333333208,"velocity":0.5669291338582677,"duration":0.11250000000001137},{"name":"F5","midi":77,"time":144.77291666666542,"velocity":0.5748031496062992,"duration":0.11875000000000568},{"name":"D3","midi":50,"time":144.77499999999876,"velocity":0.5669291338582677,"duration":0.11666666666667425},{"name":"B4","midi":71,"time":144.89374999999876,"velocity":0.6062992125984252,"duration":0.2354166666666515},{"name":"G5","midi":79,"time":144.89374999999876,"velocity":0.5275590551181102,"duration":0.23749999999998295},{"name":"E3","midi":52,"time":144.8958333333321,"velocity":0.5669291338582677,"duration":0.23333333333332007},{"name":"A5","midi":81,"time":145.13333333333208,"velocity":0.5275590551181102,"duration":0.2354166666666515},{"name":"A4","midi":69,"time":145.13333333333208,"velocity":0.6062992125984252,"duration":0.2354166666666515},{"name":"D4","midi":62,"time":145.1354166666654,"velocity":0.5669291338582677,"duration":0.47083333333333144},{"name":"F#3","midi":54,"time":145.1354166666654,"velocity":0.5669291338582677,"duration":0.23124999999998863},{"name":"B4","midi":71,"time":145.37083333333206,"velocity":0.6062992125984252,"duration":0.2333333333333485},{"name":"G4","midi":67,"time":145.37083333333206,"velocity":0.5669291338582677,"duration":0.2333333333333485},{"name":"G3","midi":55,"time":145.3729166666654,"velocity":0.5669291338582677,"duration":0.11250000000001137},{"name":"F3","midi":53,"time":145.4854166666654,"velocity":0.5669291338582677,"duration":0.11666666666667425},{"name":"G4","midi":67,"time":145.60624999999874,"velocity":0.5669291338582677,"duration":0.23541666666667993},{"name":"E4","midi":64,"time":145.60833333333207,"velocity":0.5669291338582677,"duration":0.23125000000001705},{"name":"E3","midi":52,"time":145.60833333333207,"velocity":0.5669291338582677,"duration":0.11250000000001137},{"name":"F3","midi":53,"time":145.7229166666654,"velocity":0.5669291338582677,"duration":0.11666666666667425},{"name":"G3","midi":55,"time":145.84166666666542,"velocity":0.5669291338582677,"duration":0.2354166666666515},{"name":"D4","midi":62,"time":145.84374999999875,"velocity":0.5669291338582677,"duration":0.23124999999998863},{"name":"F4","midi":65,"time":145.84374999999875,"velocity":0.5669291338582677,"duration":0.23124999999998863},{"name":"C5","midi":72,"time":146.07708333333207,"velocity":0.6062992125984252,"duration":0.23333333333332007},{"name":"E4","midi":64,"time":146.0791666666654,"velocity":0.5669291338582677,"duration":0.2291666666666572},{"name":"C4","midi":60,"time":146.0791666666654,"velocity":0.5669291338582677,"duration":0.2291666666666572},{"name":"A3","midi":57,"time":146.08124999999873,"velocity":0.5669291338582677,"duration":0.22499999999999432},{"name":"D5","midi":74,"time":146.3104166666654,"velocity":0.6062992125984252,"duration":0.11458333333331439},{"name":"G3","midi":55,"time":146.31249999999872,"velocity":0.5669291338582677,"duration":0.4625000000000057},{"name":"D4","midi":62,"time":146.31249999999872,"velocity":0.5669291338582677,"duration":0.11041666666665151},{"name":"B2","midi":47,"time":146.31458333333205,"velocity":0.5669291338582677,"duration":0.22708333333332575},{"name":"E5","midi":76,"time":146.4249999999987,"velocity":0.5748031496062992,"duration":0.11458333333334281},{"name":"G4","midi":67,"time":146.4249999999987,"velocity":0.5669291338582677,"duration":0.11458333333334281},{"name":"C5","midi":72,"time":146.54166666666538,"velocity":0.6062992125984252,"duration":0.11458333333334281},{"name":"A4","midi":69,"time":146.5437499999987,"velocity":0.6062992125984252,"duration":0.11041666666667993},{"name":"G2","midi":43,"time":146.5437499999987,"velocity":0.5669291338582677,"duration":0.23125000000001705},{"name":"D5","midi":74,"time":146.65624999999872,"velocity":0.6062992125984252,"duration":0.11875000000000568},{"name":"B4","midi":71,"time":146.65833333333205,"velocity":0.6062992125984252,"duration":0.11458333333334281},{"name":"C5","midi":72,"time":146.77708333333206,"velocity":0.6062992125984252,"duration":0.9375000000000568},{"name":"E5","midi":76,"time":146.77708333333206,"velocity":0.5748031496062992,"duration":0.11458333333334281},{"name":"F5","midi":77,"time":146.8916666666654,"velocity":0.5748031496062992,"duration":0.11666666666667425},{"name":"D5","midi":74,"time":147.0104166666654,"velocity":0.6062992125984252,"duration":0.11666666666667425},{"name":"C3","midi":48,"time":147.0104166666654,"velocity":0.5669291338582677,"duration":0.23750000000001137},{"name":"E5","midi":76,"time":147.12708333333208,"velocity":0.5748031496062992,"duration":0.12083333333333712},{"name":"F5","midi":77,"time":147.24999999999875,"velocity":0.5748031496062992,"duration":0.22916666666668561},{"name":"D3","midi":50,"time":147.24999999999875,"velocity":0.5669291338582677,"duration":0.11250000000001137},{"name":"E3","midi":52,"time":147.3645833333321,"velocity":0.5669291338582677,"duration":0.11458333333334281},{"name":"E5","midi":76,"time":147.48124999999877,"velocity":0.5748031496062992,"duration":0.23125000000001705},{"name":"C3","midi":48,"time":147.48124999999877,"velocity":0.5669291338582677,"duration":0.11666666666667425},{"name":"D3","midi":50,"time":147.59791666666544,"velocity":0.5669291338582677,"duration":0.11458333333334281},{"name":"D5","midi":74,"time":147.71458333333211,"velocity":0.6062992125984252,"duration":0.2333333333333485},{"name":"B4","midi":71,"time":147.71458333333211,"velocity":0.6062992125984252,"duration":0.23125000000001705},{"name":"E3","midi":52,"time":147.71666666666545,"velocity":0.5669291338582677,"duration":0.11250000000001137},{"name":"F3","midi":53,"time":147.82916666666546,"velocity":0.5669291338582677,"duration":0.11666666666667425},{"name":"G5","midi":79,"time":147.94791666666546,"velocity":0.5275590551181102,"duration":0.23125000000001705},{"name":"A#4","midi":70,"time":147.9499999999988,"velocity":0.6062992125984252,"duration":0.22916666666668561},{"name":"D3","midi":50,"time":147.9499999999988,"velocity":0.5669291338582677,"duration":0.11041666666667993},{"name":"G3","midi":55,"time":147.9499999999988,"velocity":0.5669291338582677,"duration":0.22708333333335418},{"name":"E3","midi":52,"time":148.0624999999988,"velocity":0.5669291338582677,"duration":0.11458333333334281},{"name":"A4","midi":69,"time":148.1812499999988,"velocity":0.6062992125984252,"duration":0.23125000000001705},{"name":"C5","midi":72,"time":148.1812499999988,"velocity":0.6062992125984252,"duration":0.11250000000001137},{"name":"F3","midi":53,"time":148.18333333333214,"velocity":0.5669291338582677,"duration":0.22708333333335418},{"name":"A3","midi":57,"time":148.18333333333214,"velocity":0.5669291338582677,"duration":0.11041666666667993},{"name":"B4","midi":71,"time":148.29583333333215,"velocity":0.6062992125984252,"duration":0.11458333333334281},{"name":"B3","midi":59,"time":148.29583333333215,"velocity":0.5669291338582677,"duration":0.11250000000001137},{"name":"D5","midi":74,"time":148.41249999999883,"velocity":0.6062992125984252,"duration":0.11250000000001137},{"name":"G3","midi":55,"time":148.41458333333216,"velocity":0.5669291338582677,"duration":0.11041666666667993},{"name":"E3","midi":52,"time":148.41458333333216,"velocity":0.5669291338582677,"duration":0.22916666666668561},{"name":"C5","midi":72,"time":148.52499999999884,"velocity":0.6062992125984252,"duration":0.11666666666667425},{"name":"A3","midi":57,"time":148.52499999999884,"velocity":0.5669291338582677,"duration":0.11666666666667425},{"name":"B4","midi":71,"time":148.64374999999885,"velocity":0.6062992125984252,"duration":0.11250000000001137},{"name":"D3","midi":50,"time":148.64583333333218,"velocity":0.5669291338582677,"duration":0.22916666666668561},{"name":"B3","midi":59,"time":148.64583333333218,"velocity":0.5669291338582677,"duration":0.11041666666667993},{"name":"A4","midi":69,"time":148.7583333333322,"velocity":0.6062992125984252,"duration":0.11666666666667425},{"name":"C4","midi":60,"time":148.7583333333322,"velocity":0.5669291338582677,"duration":0.11458333333334281},{"name":"G3","midi":55,"time":148.87499999999886,"velocity":0.5669291338582677,"duration":0.2333333333333485},{"name":"G4","midi":67,"time":148.8770833333322,"velocity":0.5669291338582677,"duration":0.11250000000001137},{"name":"A3","midi":57,"time":148.8770833333322,"velocity":0.5669291338582677,"duration":0.11250000000001137},{"name":"B3","midi":59,"time":148.99166666666554,"velocity":0.5669291338582677,"duration":0.11250000000001137},{"name":"F4","midi":65,"time":148.99166666666554,"velocity":0.5669291338582677,"duration":0.11458333333334281},{"name":"C4","midi":60,"time":149.1083333333322,"velocity":0.5669291338582677,"duration":0.2291666666666572},{"name":"E4","midi":64,"time":149.1083333333322,"velocity":0.5669291338582677,"duration":0.2291666666666572},{"name":"C3","midi":48,"time":149.11041666666554,"velocity":0.5669291338582677,"duration":0.22499999999999432},{"name":"B3","midi":59,"time":149.33749999999887,"velocity":0.5669291338582677,"duration":0.22708333333335418},{"name":"F4","midi":65,"time":149.3395833333322,"velocity":0.5669291338582677,"duration":0.11041666666667993},{"name":"D3","midi":50,"time":149.3395833333322,"velocity":0.5669291338582677,"duration":0.11041666666667993},{"name":"E3","midi":52,"time":149.4520833333322,"velocity":0.5669291338582677,"duration":0.11250000000001137},{"name":"G4","midi":67,"time":149.4520833333322,"velocity":0.5669291338582677,"duration":0.11250000000001137},{"name":"A4","midi":69,"time":149.56666666666555,"velocity":0.6062992125984252,"duration":0.11041666666665151},{"name":"F3","midi":53,"time":149.5687499999989,"velocity":0.5669291338582677,"duration":0.9145833333333826},{"name":"A3","midi":57,"time":149.5687499999989,"velocity":0.5669291338582677,"duration":0.22291666666666288},{"name":"B4","midi":71,"time":149.67916666666554,"velocity":0.6062992125984252,"duration":0.11250000000001137},{"name":"C5","midi":72,"time":149.79374999999888,"velocity":0.6062992125984252,"duration":0.11250000000001137},{"name":"D4","midi":62,"time":149.7958333333322,"velocity":0.5669291338582677,"duration":0.33958333333336554},{"name":"D5","midi":74,"time":149.9062499999989,"velocity":0.6062992125984252,"duration":0.11666666666667425},{"name":"B4","midi":71,"time":150.02291666666557,"velocity":0.6062992125984252,"duration":0.22708333333335418},{"name":"G3","midi":55,"time":150.0249999999989,"velocity":0.5669291338582677,"duration":0.6937500000000512},{"name":"E4","midi":64,"time":150.1374999999989,"velocity":0.5669291338582677,"duration":0.11250000000001137},{"name":"A4","midi":69,"time":150.25208333333225,"velocity":0.6062992125984252,"duration":0.11458333333334281},{"name":"C4","midi":60,"time":150.25208333333225,"velocity":0.5669291338582677,"duration":0.11458333333334281},{"name":"G4","midi":67,"time":150.36874999999893,"velocity":0.5669291338582677,"duration":0.11458333333334281},{"name":"D4","midi":62,"time":150.36874999999893,"velocity":0.5669291338582677,"duration":0.11250000000001137},{"name":"C5","midi":72,"time":150.4854166666656,"velocity":0.6062992125984252,"duration":0.9312500000000625},{"name":"E4","midi":64,"time":150.4854166666656,"velocity":0.5669291338582677,"duration":0.11250000000001137},{"name":"E3","midi":52,"time":150.48749999999893,"velocity":0.5669291338582677,"duration":0.22916666666668561},{"name":"F4","midi":65,"time":150.59999999999894,"velocity":0.5669291338582677,"duration":0.11666666666667425},{"name":"C4","midi":60,"time":150.71874999999895,"velocity":0.5669291338582677,"duration":0.23125000000001705},{"name":"A3","midi":57,"time":150.72083333333228,"velocity":0.5669291338582677,"duration":0.22916666666668561},{"name":"D4","midi":62,"time":150.72083333333228,"velocity":0.5669291338582677,"duration":0.11041666666667993},{"name":"E4","midi":64,"time":150.8333333333323,"velocity":0.5669291338582677,"duration":0.11458333333334281},{"name":"F4","midi":65,"time":150.94999999999897,"velocity":0.5669291338582677,"duration":0.2333333333333485},{"name":"D4","midi":62,"time":150.9520833333323,"velocity":0.5669291338582677,"duration":0.11458333333334281},{"name":"D3","midi":50,"time":150.9520833333323,"velocity":0.5669291338582677,"duration":0.23125000000001705},{"name":"F3","midi":53,"time":151.06666666666564,"velocity":0.5669291338582677,"duration":0.11458333333334281},{"name":"E3","midi":52,"time":151.18541666666565,"velocity":0.5669291338582677,"duration":0.11458333333334281},{"name":"E4","midi":64,"time":151.18541666666565,"velocity":0.5669291338582677,"duration":0.23125000000001705},{"name":"G3","midi":55,"time":151.18749999999898,"velocity":0.5669291338582677,"duration":0.11041666666667993},{"name":"F3","midi":53,"time":151.299999999999,"velocity":0.5669291338582677,"duration":0.11458333333334281},{"name":"A3","midi":57,"time":151.299999999999,"velocity":0.5669291338582677,"duration":0.11458333333334281},{"name":"B4","midi":71,"time":151.418749999999,"velocity":0.6062992125984252,"duration":0.45625000000001137},{"name":"D4","midi":62,"time":151.418749999999,"velocity":0.5669291338582677,"duration":0.22499999999999432},{"name":"G3","midi":55,"time":151.42083333333233,"velocity":0.5669291338582677,"duration":0.22291666666666288},{"name":"B3","midi":59,"time":151.42083333333233,"velocity":0.5669291338582677,"duration":0.10624999999998863},{"name":"C4","midi":60,"time":151.52916666666565,"velocity":0.5669291338582677,"duration":0.11250000000001137},{"name":"G4","midi":67,"time":151.64583333333232,"velocity":0.5669291338582677,"duration":0.22916666666668561},{"name":"D4","midi":62,"time":151.64583333333232,"velocity":0.5669291338582677,"duration":0.11250000000001137},{"name":"G2","midi":43,"time":151.64791666666565,"velocity":0.5669291338582677,"duration":0.22500000000002274},{"name":"B3","midi":59,"time":151.75833333333233,"velocity":0.5669291338582677,"duration":0.11458333333334281},{"name":"C5","midi":72,"time":151.874999999999,"velocity":0.6062992125984252,"duration":0.22499999999999432},{"name":"G3","midi":55,"time":151.87708333333234,"velocity":0.5669291338582677,"duration":0.45625000000001137},{"name":"E4","midi":64,"time":151.87708333333234,"velocity":0.5669291338582677,"duration":0.10833333333332007},{"name":"C3","midi":48,"time":151.87916666666567,"velocity":0.5669291338582677,"duration":0.4520833333333485},{"name":"F4","midi":65,"time":151.987499999999,"velocity":0.5669291338582677,"duration":0.11250000000001137},{"name":"E5","midi":76,"time":152.10208333333233,"velocity":0.5748031496062992,"duration":0.11458333333334281},{"name":"E4","midi":64,"time":152.10208333333233,"velocity":0.5669291338582677,"duration":0.11458333333334281},{"name":"F5","midi":77,"time":152.218749999999,"velocity":0.5748031496062992,"duration":0.11250000000001137},{"name":"D4","midi":62,"time":152.218749999999,"velocity":0.5669291338582677,"duration":0.11041666666667993},{"name":"E5","midi":76,"time":152.33333333333235,"velocity":0.5748031496062992,"duration":0.22708333333332575},{"name":"C4","midi":60,"time":152.33541666666568,"velocity":0.5669291338582677,"duration":0.10833333333332007},{"name":"B3","midi":59,"time":152.44583333333233,"velocity":0.5669291338582677,"duration":0.11458333333334281},{"name":"D5","midi":74,"time":152.562499999999,"velocity":0.6062992125984252,"duration":0.23125000000001705},{"name":"A3","midi":57,"time":152.562499999999,"velocity":0.5669291338582677,"duration":0.11250000000001137},{"name":"E3","midi":52,"time":152.56458333333234,"velocity":0.5669291338582677,"duration":0.22916666666668561},{"name":"G#3","midi":56,"time":152.67708333333235,"velocity":0.5669291338582677,"duration":0.11458333333334281},{"name":"C5","midi":72,"time":152.79583333333235,"velocity":0.6062992125984252,"duration":0.22916666666668561},{"name":"A3","midi":57,"time":152.79583333333235,"velocity":0.5669291338582677,"duration":0.22916666666668561},{"name":"A2","midi":45,"time":152.79791666666569,"velocity":0.5669291338582677,"duration":0.11041666666667993},{"name":"A#3","midi":58,"time":152.90833333333237,"velocity":0.5669291338582677,"duration":0.11666666666667425},{"name":"C#5","midi":73,"time":153.02708333333237,"velocity":0.6062992125984252,"duration":0.23541666666667993},{"name":"A4","midi":69,"time":153.02708333333237,"velocity":0.6062992125984252,"duration":0.11666666666667425},{"name":"A3","midi":57,"time":153.0291666666657,"velocity":0.5669291338582677,"duration":0.11250000000001137},{"name":"A#4","midi":70,"time":153.14374999999905,"velocity":0.6062992125984252,"duration":0.11875000000000568},{"name":"G3","midi":55,"time":153.14583333333238,"velocity":0.5669291338582677,"duration":0.11458333333334281},{"name":"D5","midi":74,"time":153.26458333333238,"velocity":0.6062992125984252,"duration":0.23124999999998863},{"name":"A4","midi":69,"time":153.26458333333238,"velocity":0.6062992125984252,"duration":0.23124999999998863},{"name":"F3","midi":53,"time":153.2666666666657,"velocity":0.5669291338582677,"duration":0.10833333333332007},{"name":"E3","midi":52,"time":153.37708333333237,"velocity":0.5669291338582677,"duration":0.11666666666667425},{"name":"E5","midi":76,"time":153.4979166666657,"velocity":0.5748031496062992,"duration":0.22916666666668561},{"name":"G4","midi":67,"time":153.4979166666657,"velocity":0.5669291338582677,"duration":0.22916666666668561},{"name":"D3","midi":50,"time":153.49999999999903,"velocity":0.5669291338582677,"duration":0.11041666666667993},{"name":"C#3","midi":49,"time":153.6104166666657,"velocity":0.5669291338582677,"duration":0.11666666666667425},{"name":"A4","midi":69,"time":153.72916666666572,"velocity":0.6062992125984252,"duration":0.22708333333332575},{"name":"F4","midi":65,"time":153.72916666666572,"velocity":0.5669291338582677,"duration":0.22708333333332575},{"name":"D3","midi":50,"time":153.73124999999905,"velocity":0.5669291338582677,"duration":1.3708333333333655},{"name":"D5","midi":74,"time":153.95833333333238,"velocity":0.6062992125984252,"duration":0.11458333333334281},{"name":"F4","midi":65,"time":153.95833333333238,"velocity":0.5669291338582677,"duration":0.11250000000001137},{"name":"A3","midi":57,"time":153.9604166666657,"velocity":0.5669291338582677,"duration":0.11041666666667993},{"name":"E5","midi":76,"time":154.07291666666572,"velocity":0.5748031496062992,"duration":0.11458333333334281},{"name":"G4","midi":67,"time":154.07499999999905,"velocity":0.5669291338582677,"duration":0.11041666666667993},{"name":"A#3","midi":58,"time":154.07499999999905,"velocity":0.5669291338582677,"duration":0.11041666666667993},{"name":"D5","midi":74,"time":154.18749999999906,"velocity":0.6062992125984252,"duration":0.2291666666666572},{"name":"F4","midi":65,"time":154.18749999999906,"velocity":0.5669291338582677,"duration":0.2291666666666572},{"name":"A3","midi":57,"time":154.1895833333324,"velocity":0.5669291338582677,"duration":0.22499999999999432},{"name":"C5","midi":72,"time":154.41874999999905,"velocity":0.6062992125984252,"duration":0.22708333333332575},{"name":"E4","midi":64,"time":154.41874999999905,"velocity":0.5669291338582677,"duration":0.22499999999999432},{"name":"G3","midi":55,"time":154.42083333333238,"velocity":0.5669291338582677,"duration":0.22291666666666288},{"name":"B4","midi":71,"time":154.64583333333238,"velocity":0.6062992125984252,"duration":0.11458333333334281},{"name":"D4","midi":62,"time":154.6479166666657,"velocity":0.5669291338582677,"duration":0.11041666666667993},{"name":"F3","midi":53,"time":154.6479166666657,"velocity":0.5669291338582677,"duration":0.22500000000002274},{"name":"C5","midi":72,"time":154.76041666666572,"velocity":0.6062992125984252,"duration":0.11250000000001137},{"name":"E4","midi":64,"time":154.76041666666572,"velocity":0.5669291338582677,"duration":0.11041666666667993},{"name":"D5","midi":74,"time":154.87291666666573,"velocity":0.6062992125984252,"duration":0.11458333333334281},{"name":"F4","midi":65,"time":154.87499999999906,"velocity":0.5669291338582677,"duration":0.11041666666667993},{"name":"F3","midi":53,"time":154.87499999999906,"velocity":0.5669291338582677,"duration":0.11041666666667993},{"name":"C5","midi":72,"time":154.98749999999907,"velocity":0.6062992125984252,"duration":0.11250000000001137},{"name":"G3","midi":55,"time":154.9895833333324,"velocity":0.5669291338582677,"duration":0.11041666666667993},{"name":"E4","midi":64,"time":154.9895833333324,"velocity":0.5669291338582677,"duration":0.11041666666667993},{"name":"B4","midi":71,"time":155.10208333333242,"velocity":0.6062992125984252,"duration":0.23124999999998863},{"name":"D4","midi":62,"time":155.10416666666575,"velocity":0.5669291338582677,"duration":0.22708333333332575},{"name":"F3","midi":53,"time":155.10416666666575,"velocity":0.5669291338582677,"duration":0.22708333333332575},{"name":"A4","midi":69,"time":155.3333333333324,"velocity":0.6062992125984252,"duration":0.23124999999998863},{"name":"E3","midi":52,"time":155.33541666666574,"velocity":0.5669291338582677,"duration":0.22708333333332575},{"name":"C4","midi":60,"time":155.33541666666574,"velocity":0.5669291338582677,"duration":0.2291666666666572},{"name":"B4","midi":71,"time":155.56666666666572,"velocity":0.6062992125984252,"duration":0.23124999999998863},{"name":"G4","midi":67,"time":155.56666666666572,"velocity":0.5669291338582677,"duration":0.7791666666666686},{"name":"F3","midi":53,"time":155.56874999999906,"velocity":0.5669291338582677,"duration":0.22083333333333144},{"name":"D3","midi":50,"time":155.56874999999906,"velocity":0.5669291338582677,"duration":0.11250000000001137},{"name":"E3","midi":52,"time":155.68124999999907,"velocity":0.5669291338582677,"duration":0.11666666666664582},{"name":"D5","midi":74,"time":155.79999999999905,"velocity":0.6062992125984252,"duration":0.22500000000002274},{"name":"F3","midi":53,"time":155.79999999999905,"velocity":0.5669291338582677,"duration":0.11041666666667993},{"name":"E3","midi":52,"time":155.91249999999906,"velocity":0.5669291338582677,"duration":0.11041666666667993},{"name":"D3","midi":50,"time":156.02499999999907,"velocity":0.5669291338582677,"duration":0.22291666666666288},{"name":"A4","midi":69,"time":156.24791666666573,"velocity":0.6062992125984252,"duration":0.22708333333332575},{"name":"C3","midi":48,"time":156.24999999999906,"velocity":0.5669291338582677,"duration":0.22291666666666288},{"name":"G4","midi":67,"time":156.47499999999906,"velocity":0.5669291338582677,"duration":0.11041666666667993},{"name":"B3","midi":59,"time":156.47499999999906,"velocity":0.5669291338582677,"duration":0.22500000000002274},{"name":"G3","midi":55,"time":156.58541666666574,"velocity":0.5669291338582677,"duration":0.11458333333334281},{"name":"F4","midi":65,"time":156.58749999999907,"velocity":0.5669291338582677,"duration":0.11250000000001137},{"name":"A4","midi":69,"time":156.7020833333324,"velocity":0.6062992125984252,"duration":0.11458333333334281},{"name":"F3","midi":53,"time":156.7020833333324,"velocity":0.5669291338582677,"duration":0.11250000000001137},{"name":"D4","midi":62,"time":156.70416666666574,"velocity":0.5669291338582677,"duration":0.22708333333335418},{"name":"E3","midi":52,"time":156.81666666666575,"velocity":0.5669291338582677,"duration":0.11250000000001137},{"name":"G4","midi":67,"time":156.81874999999908,"velocity":0.5669291338582677,"duration":0.11041666666667993},{"name":"D3","midi":50,"time":156.9312499999991,"velocity":0.5669291338582677,"duration":0.6895833333333883},{"name":"F4","midi":65,"time":156.93333333333243,"velocity":0.5669291338582677,"duration":0.11250000000001137},{"name":"E4","midi":64,"time":157.04583333333244,"velocity":0.5669291338582677,"duration":0.11458333333334281},{"name":"A3","midi":57,"time":157.1624999999991,"velocity":0.5669291338582677,"duration":0.22916666666668561},{"name":"G4","midi":67,"time":157.1624999999991,"velocity":0.5669291338582677,"duration":0.11250000000001137},{"name":"F4","midi":65,"time":157.27499999999912,"velocity":0.5669291338582677,"duration":0.11666666666667425},{"name":"G3","midi":55,"time":157.39374999999913,"velocity":0.5669291338582677,"duration":0.11041666666667993},{"name":"E4","midi":64,"time":157.39374999999913,"velocity":0.5669291338582677,"duration":0.22708333333335418},{"name":"F3","midi":53,"time":157.50624999999914,"velocity":0.5669291338582677,"duration":0.11250000000001137},{"name":"F4","midi":65,"time":157.62291666666582,"velocity":0.5669291338582677,"duration":0.22291666666666288},{"name":"A3","midi":57,"time":157.62291666666582,"velocity":0.5669291338582677,"duration":0.10833333333332007},{"name":"C3","midi":48,"time":157.62499999999915,"velocity":0.5669291338582677,"duration":0.4479166666666572},{"name":"G3","midi":55,"time":157.73124999999914,"velocity":0.5669291338582677,"duration":0.11458333333334281},{"name":"G4","midi":67,"time":157.8479166666658,"velocity":0.5669291338582677,"duration":0.22499999999999432},{"name":"F3","midi":53,"time":157.8479166666658,"velocity":0.5669291338582677,"duration":0.10833333333332007},{"name":"E3","midi":52,"time":157.95833333333246,"velocity":0.5669291338582677,"duration":0.11250000000001137},{"name":"D4","midi":62,"time":158.07499999999914,"velocity":0.5669291338582677,"duration":0.22500000000002274},{"name":"G3","midi":55,"time":158.07499999999914,"velocity":0.5669291338582677,"duration":0.11041666666667993},{"name":"B2","midi":47,"time":158.07499999999914,"velocity":0.5669291338582677,"duration":0.22500000000002274},{"name":"F3","midi":53,"time":158.18541666666582,"velocity":0.5669291338582677,"duration":0.11458333333334281},{"name":"A4","midi":69,"time":158.3020833333325,"velocity":0.6062992125984252,"duration":0.11041666666665151},{"name":"E3","midi":52,"time":158.3020833333325,"velocity":0.5669291338582677,"duration":0.22708333333332575},{"name":"C3","midi":48,"time":158.30416666666582,"velocity":0.5669291338582677,"duration":0.22291666666666288},{"name":"B4","midi":71,"time":158.41458333333247,"velocity":0.6062992125984252,"duration":0.11250000000001137},{"name":"A4","midi":69,"time":158.52916666666582,"velocity":0.6062992125984252,"duration":0.11250000000001137},{"name":"D3","midi":50,"time":158.53124999999915,"velocity":0.5669291338582677,"duration":0.22708333333335418},{"name":"F3","midi":53,"time":158.53124999999915,"velocity":0.5669291338582677,"duration":0.22500000000002274},{"name":"B4","midi":71,"time":158.64166666666583,"velocity":0.6062992125984252,"duration":0.11458333333334281},{"name":"C5","midi":72,"time":158.7583333333325,"velocity":0.6062992125984252,"duration":0.039583333333325754},{"name":"G3","midi":55,"time":158.7583333333325,"velocity":0.5669291338582677,"duration":0.2583333333332689},{"name":"G2","midi":43,"time":158.76041666666583,"velocity":0.5669291338582677,"duration":0.7145833333332519},{"name":"B4","midi":71,"time":158.79791666666583,"velocity":0.6062992125984252,"duration":0.04374999999998863},{"name":"C5","midi":72,"time":158.84166666666582,"velocity":0.6062992125984252,"duration":0.04374999999998863},{"name":"B4","midi":71,"time":158.8854166666658,"velocity":0.6062992125984252,"duration":0.04374999999998863},{"name":"C5","midi":72,"time":158.9291666666658,"velocity":0.6062992125984252,"duration":0.04166666666665719},{"name":"B4","midi":71,"time":158.97291666666578,"velocity":0.6062992125984252,"duration":0.04166666666665719},{"name":"C5","midi":72,"time":159.01666666666577,"velocity":0.6062992125984252,"duration":0.04374999999998863},{"name":"D3","midi":50,"time":159.0187499999991,"velocity":0.5669291338582677,"duration":0.23124999999998863},{"name":"B4","midi":71,"time":159.06041666666576,"velocity":0.6062992125984252,"duration":0.07499999999998863},{"name":"A4","midi":69,"time":159.13749999999908,"velocity":0.6062992125984252,"duration":0.056250000000005684},{"name":"B4","midi":71,"time":159.19583333333242,"velocity":0.6062992125984252,"duration":0.054166666666674246},{"name":"C5","midi":72,"time":159.25208333333242,"velocity":0.6062992125984252,"duration":0.11041666666667993},{"name":"A3","midi":57,"time":159.25208333333242,"velocity":0.5669291338582677,"duration":0.11041666666667993},{"name":"D5","midi":74,"time":159.36458333333243,"velocity":0.6062992125984252,"duration":0.11041666666665151},{"name":"B3","midi":59,"time":159.36458333333243,"velocity":0.5669291338582677,"duration":0.10833333333332007},{"name":"C5","midi":72,"time":159.47708333333242,"velocity":0.6062992125984252,"duration":0.10833333333332007},{"name":"A3","midi":57,"time":159.47708333333242,"velocity":0.5669291338582677,"duration":0.22291666666666288},{"name":"D5","midi":74,"time":159.58749999999907,"velocity":0.6062992125984252,"duration":0.11250000000001137},{"name":"B3","midi":59,"time":159.58749999999907,"velocity":0.5669291338582677,"duration":0.11041666666667993},{"name":"E5","midi":76,"time":159.69999999999908,"velocity":0.47244094488188976,"duration":0.04583333333332007},{"name":"G3","midi":55,"time":159.69999999999908,"velocity":0.5669291338582677,"duration":0.29791666666656624},{"name":"C4","midi":60,"time":159.7020833333324,"velocity":0.5669291338582677,"duration":0.04583333333332007},{"name":"D5","midi":74,"time":159.74999999999906,"velocity":0.5118110236220472,"duration":0.04583333333332007},{"name":"B3","midi":59,"time":159.74999999999906,"velocity":0.5669291338582677,"duration":0.04791666666665151},{"name":"E5","midi":76,"time":159.79999999999905,"velocity":0.47244094488188976,"duration":0.04583333333332007},{"name":"C4","midi":60,"time":159.79999999999905,"velocity":0.5669291338582677,"duration":0.04791666666665151},{"name":"D5","midi":74,"time":159.84999999999903,"velocity":0.5118110236220472,"duration":0.04583333333332007},{"name":"B3","midi":59,"time":159.84999999999903,"velocity":0.5669291338582677,"duration":0.04791666666665151},{"name":"E5","midi":76,"time":159.899999999999,"velocity":0.47244094488188976,"duration":0.04583333333332007},{"name":"C4","midi":60,"time":159.899999999999,"velocity":0.5669291338582677,"duration":0.04791666666665151},{"name":"D5","midi":74,"time":159.949999999999,"velocity":0.5118110236220472,"duration":0.04374999999998863},{"name":"B3","midi":59,"time":159.949999999999,"velocity":0.5669291338582677,"duration":0.04583333333332007},{"name":"E5","midi":76,"time":159.99791666666565,"velocity":0.47244094488188976,"duration":0.039583333333325754},{"name":"F3","midi":53,"time":159.99999999999898,"velocity":0.5669291338582677,"duration":0.2395833333333428},{"name":"C4","midi":60,"time":159.99999999999898,"velocity":0.5669291338582677,"duration":0.039583333333325754},{"name":"D5","midi":74,"time":160.04166666666563,"velocity":0.5118110236220472,"duration":0.08333333333334281},{"name":"B3","midi":59,"time":160.04166666666563,"velocity":0.5669291338582677,"duration":0.08125000000001137},{"name":"C5","midi":72,"time":160.12291666666565,"velocity":0.6062992125984252,"duration":0.05833333333333712},{"name":"A3","midi":57,"time":160.12499999999898,"velocity":0.5669291338582677,"duration":0.054166666666674246},{"name":"D5","midi":74,"time":160.18124999999898,"velocity":0.6062992125984252,"duration":0.05833333333333712},{"name":"B3","midi":59,"time":160.1833333333323,"velocity":0.5669291338582677,"duration":0.054166666666674246},{"name":"E5","midi":76,"time":160.24166666666565,"velocity":0.5748031496062992,"duration":0.11041666666667993},{"name":"C4","midi":60,"time":160.24166666666565,"velocity":0.5669291338582677,"duration":1.1375000000000455},{"name":"E3","midi":52,"time":160.24166666666565,"velocity":0.5669291338582677,"duration":0.2229166666666913},{"name":"D5","midi":74,"time":160.35208333333233,"velocity":0.6062992125984252,"duration":0.11250000000001137},{"name":"C5","midi":72,"time":160.46666666666567,"velocity":0.6062992125984252,"duration":0.10833333333332007},{"name":"D3","midi":50,"time":160.46666666666567,"velocity":0.5669291338582677,"duration":0.22291666666666288},{"name":"B4","midi":71,"time":160.57708333333233,"velocity":0.6062992125984252,"duration":0.11041666666667993},{"name":"A4","midi":69,"time":160.68958333333234,"velocity":0.6062992125984252,"duration":0.11250000000001137},{"name":"C3","midi":48,"time":160.69166666666567,"velocity":0.5669291338582677,"duration":0.22500000000002274},{"name":"G4","midi":67,"time":160.80208333333235,"velocity":0.5669291338582677,"duration":0.11458333333334281},{"name":"F#4","midi":66,"time":160.91874999999902,"velocity":0.5669291338582677,"duration":0.11041666666667993},{"name":"E3","midi":52,"time":160.91874999999902,"velocity":0.5669291338582677,"duration":0.22916666666668561},{"name":"E4","midi":64,"time":161.03124999999903,"velocity":0.5669291338582677,"duration":0.11458333333334281},{"name":"F#4","midi":66,"time":161.1479166666657,"velocity":0.5669291338582677,"duration":0.23124999999998863},{"name":"D3","midi":50,"time":161.14999999999904,"velocity":0.5669291338582677,"duration":0.22708333333332575},{"name":"D4","midi":62,"time":161.38124999999903,"velocity":0.5669291338582677,"duration":0.2333333333333485},{"name":"D3","midi":50,"time":161.38124999999903,"velocity":0.5669291338582677,"duration":0.11458333333334281},{"name":"F#3","midi":54,"time":161.38333333333236,"velocity":0.5669291338582677,"duration":0.22916666666668561},{"name":"E3","midi":52,"time":161.4979166666657,"velocity":0.5669291338582677,"duration":0.11458333333334281},{"name":"D3","midi":50,"time":161.61458333333238,"velocity":0.5669291338582677,"duration":0.2354166666666515},{"name":"E4","midi":64,"time":161.6166666666657,"velocity":0.5669291338582677,"duration":0.23333333333332007},{"name":"G3","midi":55,"time":161.6166666666657,"velocity":0.5669291338582677,"duration":0.23124999999998863},{"name":"F#4","midi":66,"time":161.84999999999903,"velocity":0.5669291338582677,"duration":0.2354166666666515},{"name":"A3","midi":57,"time":161.85208333333236,"velocity":0.5669291338582677,"duration":0.23333333333332007},{"name":"C3","midi":48,"time":161.85208333333236,"velocity":0.5669291338582677,"duration":0.23124999999998863},{"name":"G4","midi":67,"time":162.087499999999,"velocity":0.5669291338582677,"duration":0.2354166666666515},{"name":"B3","midi":59,"time":162.087499999999,"velocity":0.5669291338582677,"duration":0.23333333333332007},{"name":"B2","midi":47,"time":162.08958333333234,"velocity":0.5669291338582677,"duration":0.23124999999998863},{"name":"D5","midi":74,"time":162.32291666666566,"velocity":0.6062992125984252,"duration":0.11666666666667425},{"name":"D3","midi":50,"time":162.324999999999,"velocity":0.5669291338582677,"duration":0.2333333333333485},{"name":"F#4","midi":66,"time":162.324999999999,"velocity":0.5669291338582677,"duration":0.2333333333333485},{"name":"B2","midi":47,"time":162.324999999999,"velocity":0.5669291338582677,"duration":0.11250000000001137},{"name":"E5","midi":76,"time":162.43958333333234,"velocity":0.5748031496062992,"duration":0.11666666666667425},{"name":"C3","midi":48,"time":162.44166666666567,"velocity":0.5669291338582677,"duration":0.11458333333334281},{"name":"D5","midi":74,"time":162.56041666666567,"velocity":0.6062992125984252,"duration":0.2354166666666515},{"name":"G4","midi":67,"time":162.56041666666567,"velocity":0.5669291338582677,"duration":0.23333333333332007},{"name":"E3","midi":52,"time":162.562499999999,"velocity":0.5669291338582677,"duration":0.23124999999998863},{"name":"B2","midi":47,"time":162.562499999999,"velocity":0.5669291338582677,"duration":0.2291666666666572},{"name":"C5","midi":72,"time":162.79583333333233,"velocity":0.6062992125984252,"duration":0.2354166666666515},{"name":"A4","midi":69,"time":162.79791666666566,"velocity":0.6062992125984252,"duration":0.23124999999998863},{"name":"F#3","midi":54,"time":162.79791666666566,"velocity":0.5669291338582677,"duration":0.23124999999998863},{"name":"A2","midi":45,"time":162.799999999999,"velocity":0.5669291338582677,"duration":0.22708333333332575},{"name":"B4","midi":71,"time":163.03124999999898,"velocity":0.6062992125984252,"duration":0.23125000000001705},{"name":"G3","midi":55,"time":163.0333333333323,"velocity":0.5669291338582677,"duration":0.700000000000017},{"name":"D4","midi":62,"time":163.0333333333323,"velocity":0.5669291338582677,"duration":0.7020833333333485},{"name":"G2","midi":43,"time":163.03541666666564,"velocity":0.5669291338582677,"duration":0.11041666666667993},{"name":"A2","midi":45,"time":163.14791666666565,"velocity":0.5669291338582677,"duration":0.11458333333334281},{"name":"B4","midi":71,"time":163.26458333333233,"velocity":0.6062992125984252,"duration":0.11666666666667425},{"name":"B2","midi":47,"time":163.26458333333233,"velocity":0.5669291338582677,"duration":0.11458333333334281},{"name":"C5","midi":72,"time":163.381249999999,"velocity":0.6062992125984252,"duration":0.11666666666667425},{"name":"A2","midi":45,"time":163.38333333333233,"velocity":0.5669291338582677,"duration":0.11458333333334281},{"name":"B4","midi":71,"time":163.49791666666567,"velocity":0.6062992125984252,"duration":0.2354166666666515},{"name":"G2","midi":43,"time":163.499999999999,"velocity":0.5669291338582677,"duration":0.23333333333332007},{"name":"A4","midi":69,"time":163.73541666666566,"velocity":0.6062992125984252,"duration":0.2354166666666515},{"name":"D#4","midi":63,"time":163.737499999999,"velocity":0.5669291338582677,"duration":0.23124999999998863},{"name":"A3","midi":57,"time":163.737499999999,"velocity":0.5669291338582677,"duration":0.2291666666666572},{"name":"F#2","midi":42,"time":163.73958333333232,"velocity":0.5669291338582677,"duration":0.22708333333332575},{"name":"B3","midi":59,"time":163.9708333333323,"velocity":0.5669291338582677,"duration":1.1604166666666345},{"name":"E4","midi":64,"time":163.9708333333323,"velocity":0.5669291338582677,"duration":0.23124999999998863},{"name":"E3","midi":52,"time":163.97291666666564,"velocity":0.5669291338582677,"duration":0.22708333333332575},{"name":"G4","midi":67,"time":163.97291666666564,"velocity":0.5669291338582677,"duration":0.10833333333332007},{"name":"A4","midi":69,"time":164.0833333333323,"velocity":0.6062992125984252,"duration":0.11666666666667425},{"name":"B4","midi":71,"time":164.20416666666563,"velocity":0.6062992125984252,"duration":0.11666666666667425},{"name":"E4","midi":64,"time":164.20416666666563,"velocity":0.5669291338582677,"duration":0.11458333333334281},{"name":"G3","midi":55,"time":164.20416666666563,"velocity":0.5669291338582677,"duration":0.2333333333333485},{"name":"A4","midi":69,"time":164.3208333333323,"velocity":0.6062992125984252,"duration":0.11458333333334281},{"name":"D#4","midi":63,"time":164.32291666666563,"velocity":0.5669291338582677,"duration":0.11250000000001137},{"name":"G4","midi":67,"time":164.43749999999898,"velocity":0.5669291338582677,"duration":0.23333333333332007},{"name":"E4","midi":64,"time":164.4395833333323,"velocity":0.5669291338582677,"duration":0.2291666666666572},{"name":"F#4","midi":66,"time":164.6708333333323,"velocity":0.5669291338582677,"duration":0.2354166666666515},{"name":"D3","midi":50,"time":164.67291666666563,"velocity":0.5669291338582677,"duration":0.23124999999998863},{"name":"E5","midi":76,"time":164.90624999999895,"velocity":0.5748031496062992,"duration":0.22708333333332575},{"name":"C3","midi":48,"time":164.90833333333228,"velocity":0.5669291338582677,"duration":0.10833333333332007},{"name":"B2","midi":47,"time":165.01874999999893,"velocity":0.5669291338582677,"duration":0.11250000000001137},{"name":"G5","midi":79,"time":165.13333333333227,"velocity":0.5275590551181102,"duration":0.23125000000001705},{"name":"G4","midi":67,"time":165.1354166666656,"velocity":0.5669291338582677,"duration":0.22708333333335418},{"name":"E3","midi":52,"time":165.1354166666656,"velocity":0.5669291338582677,"duration":0.22708333333335418},{"name":"D3","midi":50,"time":165.1354166666656,"velocity":0.5669291338582677,"duration":0.11041666666667993},{"name":"C3","midi":48,"time":165.24583333333229,"velocity":0.5669291338582677,"duration":0.11458333333334281},{"name":"A4","midi":69,"time":165.3645833333323,"velocity":0.6062992125984252,"duration":0.22708333333332575},{"name":"F#3","midi":54,"time":165.36666666666562,"velocity":0.5669291338582677,"duration":0.22291666666666288},{"name":"B2","midi":47,"time":165.36666666666562,"velocity":0.5669291338582677,"duration":0.10833333333332007},{"name":"A2","midi":45,"time":165.47499999999894,"velocity":0.5669291338582677,"duration":0.11458333333334281},{"name":"D5","midi":74,"time":165.59166666666562,"velocity":0.6062992125984252,"duration":0.23124999999998863},{"name":"B4","midi":71,"time":165.59374999999895,"velocity":0.6062992125984252,"duration":0.22708333333332575},{"name":"G3","midi":55,"time":165.59374999999895,"velocity":0.5669291338582677,"duration":0.22708333333332575},{"name":"C3","midi":48,"time":165.59583333333228,"velocity":0.5669291338582677,"duration":0.10833333333332007},{"name":"B2","midi":47,"time":165.70624999999893,"velocity":0.5669291338582677,"duration":0.11250000000001137},{"name":"C5","midi":72,"time":165.8229166666656,"velocity":0.6062992125984252,"duration":0.23125000000001705},{"name":"A3","midi":57,"time":165.82499999999894,"velocity":0.5669291338582677,"duration":0.22708333333335418},{"name":"A2","midi":45,"time":165.82499999999894,"velocity":0.5669291338582677,"duration":0.22708333333335418},{"name":"B4","midi":71,"time":165.93541666666562,"velocity":0.6062992125984252,"duration":0.11458333333334281},{"name":"D5","midi":74,"time":166.05416666666562,"velocity":0.6062992125984252,"duration":0.11041666666665151},{"name":"G4","midi":67,"time":166.05624999999895,"velocity":0.5669291338582677,"duration":0.46041666666667425},{"name":"D3","midi":50,"time":166.05624999999895,"velocity":0.5669291338582677,"duration":0.22708333333332575},{"name":"B2","midi":47,"time":166.05833333333229,"velocity":0.5669291338582677,"duration":0.22291666666666288},{"name":"C5","midi":72,"time":166.1666666666656,"velocity":0.6062992125984252,"duration":0.11458333333334281},{"name":"B4","midi":71,"time":166.28333333333228,"velocity":0.6062992125984252,"duration":0.11458333333334281},{"name":"E3","midi":52,"time":166.2854166666656,"velocity":0.5669291338582677,"duration":0.22916666666668561},{"name":"C3","midi":48,"time":166.2854166666656,"velocity":0.5669291338582677,"duration":0.22916666666668561},{"name":"A4","midi":69,"time":166.39791666666562,"velocity":0.6062992125984252,"duration":0.11458333333334281},{"name":"C5","midi":72,"time":166.51666666666563,"velocity":0.6062992125984252,"duration":0.11249999999998295},{"name":"F#4","midi":66,"time":166.51874999999896,"velocity":0.5669291338582677,"duration":0.10833333333332007},{"name":"D3","midi":50,"time":166.51874999999896,"velocity":0.5669291338582677,"duration":0.10833333333332007},{"name":"G2","midi":43,"time":166.5208333333323,"velocity":0.5669291338582677,"duration":0.22499999999999432},{"name":"B4","midi":71,"time":166.6291666666656,"velocity":0.6062992125984252,"duration":0.11666666666667425},{"name":"G4","midi":67,"time":166.63124999999894,"velocity":0.5669291338582677,"duration":0.11250000000001137},{"name":"E3","midi":52,"time":166.63124999999894,"velocity":0.5669291338582677,"duration":0.11250000000001137},{"name":"A4","midi":69,"time":166.74791666666562,"velocity":0.6062992125984252,"duration":0.22499999999999432},{"name":"F#3","midi":54,"time":166.74791666666562,"velocity":0.5669291338582677,"duration":0.10833333333332007},{"name":"D3","midi":50,"time":166.74999999999895,"velocity":0.5669291338582677,"duration":0.4520833333333485},{"name":"G3","midi":55,"time":166.85833333333227,"velocity":0.5669291338582677,"duration":0.11250000000001137},{"name":"B4","midi":71,"time":166.9729166666656,"velocity":0.6062992125984252,"duration":0.22916666666668561},{"name":"E3","midi":52,"time":166.97499999999894,"velocity":0.5669291338582677,"duration":0.11041666666667993},{"name":"F#3","midi":54,"time":167.08541666666562,"velocity":0.5669291338582677,"duration":0.11458333333334281},{"name":"C5","midi":72,"time":167.20416666666563,"velocity":0.6062992125984252,"duration":0.22083333333333144},{"name":"G3","midi":55,"time":167.20416666666563,"velocity":0.5669291338582677,"duration":0.10833333333332007},{"name":"E3","midi":52,"time":167.20624999999896,"velocity":0.5669291338582677,"duration":0.44375000000002274},{"name":"A3","midi":57,"time":167.31458333333228,"velocity":0.5669291338582677,"duration":0.11041666666667993},{"name":"F#3","midi":54,"time":167.4270833333323,"velocity":0.5669291338582677,"duration":0.11041666666667993},{"name":"G4","midi":67,"time":167.4270833333323,"velocity":0.5669291338582677,"duration":0.2229166666666913},{"name":"G3","midi":55,"time":167.53749999999897,"velocity":0.5669291338582677,"duration":0.11250000000001137},{"name":"D5","midi":74,"time":167.6520833333323,"velocity":0.6062992125984252,"duration":0.11041666666665151},{"name":"A3","midi":57,"time":167.6520833333323,"velocity":0.5669291338582677,"duration":0.22499999999999432},{"name":"F#3","midi":54,"time":167.65416666666565,"velocity":0.5669291338582677,"duration":0.45000000000001705},{"name":"E5","midi":76,"time":167.7645833333323,"velocity":0.5748031496062992,"duration":0.11041666666667993},{"name":"D5","midi":74,"time":167.8770833333323,"velocity":0.6062992125984252,"duration":0.11250000000001137},{"name":"B3","midi":59,"time":167.8770833333323,"velocity":0.5669291338582677,"duration":0.11250000000001137},{"name":"E5","midi":76,"time":167.99166666666565,"velocity":0.5196850393700787,"duration":0.11250000000001137},{"name":"C4","midi":60,"time":167.99166666666565,"velocity":0.5669291338582677,"duration":0.11041666666667993},{"name":"F5","midi":77,"time":168.106249999999,"velocity":0.48031496062992124,"duration":0.04583333333332007},{"name":"B3","midi":59,"time":168.106249999999,"velocity":0.5669291338582677,"duration":0.14583333333331439},{"name":"G3","midi":55,"time":168.10833333333233,"velocity":0.5669291338582677,"duration":0.5312499999999716},{"name":"E5","midi":76,"time":168.1520833333323,"velocity":0.48031496062992124,"duration":0.05000000000001137},{"name":"F5","midi":77,"time":168.20416666666566,"velocity":0.48031496062992124,"duration":0.04583333333332007},{"name":"E5","midi":76,"time":168.2520833333323,"velocity":0.48031496062992124,"duration":0.04791666666665151},{"name":"C4","midi":60,"time":168.25416666666564,"velocity":0.5669291338582677,"duration":0.14791666666667425},{"name":"F5","midi":77,"time":168.3020833333323,"velocity":0.48031496062992124,"duration":0.04791666666667993},{"name":"E5","midi":76,"time":168.3520833333323,"velocity":0.48031496062992124,"duration":0.05000000000001137},{"name":"F5","midi":77,"time":168.4020833333323,"velocity":0.48031496062992124,"duration":0.039583333333325754},{"name":"A3","midi":57,"time":168.40416666666565,"velocity":0.5669291338582677,"duration":0.11666666666664582},{"name":"E5","midi":76,"time":168.44166666666564,"velocity":0.48031496062992124,"duration":0.07708333333332007},{"name":"D5","midi":74,"time":168.5208333333323,"velocity":0.5984251968503937,"duration":0.056250000000005684},{"name":"B3","midi":59,"time":168.52291666666562,"velocity":0.5669291338582677,"duration":0.11666666666667425},{"name":"E5","midi":76,"time":168.57916666666563,"velocity":0.5275590551181102,"duration":0.05833333333333712},{"name":"F5","midi":77,"time":168.6395833333323,"velocity":0.5275590551181102,"duration":1.170833333333377},{"name":"A3","midi":57,"time":168.64166666666563,"velocity":0.5669291338582677,"duration":0.4687500000000284},{"name":"C4","midi":60,"time":168.64166666666563,"velocity":0.5669291338582677,"duration":0.2333333333333485},{"name":"E5","midi":76,"time":168.75624999999897,"velocity":0.5748031496062992,"duration":0.11666666666667425},{"name":"D5","midi":74,"time":168.87499999999898,"velocity":0.6062992125984252,"duration":0.11875000000000568},{"name":"D4","midi":62,"time":168.87499999999898,"velocity":0.5669291338582677,"duration":0.11666666666667425},{"name":"C5","midi":72,"time":168.99374999999898,"velocity":0.6062992125984252,"duration":0.11458333333334281},{"name":"E4","midi":64,"time":168.99374999999898,"velocity":0.5669291338582677,"duration":0.11458333333334281},{"name":"B4","midi":71,"time":169.11041666666566,"velocity":0.6062992125984252,"duration":0.11458333333334281},{"name":"B3","midi":59,"time":169.112499999999,"velocity":0.5669291338582677,"duration":0.22916666666668561},{"name":"D4","midi":62,"time":169.112499999999,"velocity":0.5669291338582677,"duration":0.22916666666668561},{"name":"A4","midi":69,"time":169.224999999999,"velocity":0.6062992125984252,"duration":0.11458333333334281},{"name":"G#4","midi":68,"time":169.343749999999,"velocity":0.6062992125984252,"duration":0.11250000000001137},{"name":"C4","midi":60,"time":169.343749999999,"velocity":0.5669291338582677,"duration":0.23125000000001705},{"name":"A3","midi":57,"time":169.343749999999,"velocity":0.5669291338582677,"duration":0.23125000000001705},{"name":"A4","midi":69,"time":169.45624999999902,"velocity":0.6062992125984252,"duration":0.11875000000000568},{"name":"B4","midi":71,"time":169.57708333333235,"velocity":0.6062992125984252,"duration":1.177083333333286},{"name":"G#3","midi":56,"time":169.57708333333235,"velocity":0.5669291338582677,"duration":0.23124999999998863},{"name":"B3","midi":59,"time":169.57708333333235,"velocity":0.5669291338582677,"duration":0.23124999999998863},{"name":"E5","midi":76,"time":169.81041666666567,"velocity":0.5748031496062992,"duration":0.11458333333334281},{"name":"E3","midi":52,"time":169.812499999999,"velocity":0.5669291338582677,"duration":0.23541666666667993},{"name":"G#3","midi":56,"time":169.812499999999,"velocity":0.5669291338582677,"duration":0.23541666666667993},{"name":"F5","midi":77,"time":169.92708333333235,"velocity":0.5748031496062992,"duration":0.11875000000000568},{"name":"E5","midi":76,"time":170.04999999999902,"velocity":0.5748031496062992,"duration":0.23333333333332007},{"name":"A3","midi":57,"time":170.04999999999902,"velocity":0.5669291338582677,"duration":0.23333333333332007},{"name":"F#3","midi":54,"time":170.04999999999902,"velocity":0.5669291338582677,"duration":0.23124999999998863},{"name":"D5","midi":74,"time":170.28541666666567,"velocity":0.6062992125984252,"duration":0.2354166666666515},{"name":"B3","midi":59,"time":170.28541666666567,"velocity":0.5669291338582677,"duration":0.23333333333332007},{"name":"G#3","midi":56,"time":170.287499999999,"velocity":0.5669291338582677,"duration":0.23124999999998863},{"name":"C5","midi":72,"time":170.52083333333232,"velocity":0.6062992125984252,"duration":0.23333333333332007},{"name":"C4","midi":60,"time":170.52291666666565,"velocity":0.5669291338582677,"duration":0.2291666666666572},{"name":"A3","midi":57,"time":170.52291666666565,"velocity":0.5669291338582677,"duration":0.2291666666666572},{"name":"C5","midi":72,"time":170.75624999999897,"velocity":0.6062992125984252,"duration":0.11458333333334281},{"name":"E4","midi":64,"time":170.75624999999897,"velocity":0.5669291338582677,"duration":0.11458333333334281},{"name":"E3","midi":52,"time":170.7583333333323,"velocity":0.5669291338582677,"duration":0.23541666666667993},{"name":"C3","midi":48,"time":170.7583333333323,"velocity":0.5669291338582677,"duration":0.2333333333333485},{"name":"D5","midi":74,"time":170.87291666666565,"velocity":0.6062992125984252,"duration":0.11875000000000568},{"name":"F4","midi":65,"time":170.87291666666565,"velocity":0.5669291338582677,"duration":0.11666666666667425},{"name":"C5","midi":72,"time":170.99374999999898,"velocity":0.6062992125984252,"duration":0.23749999999998295},{"name":"F#3","midi":54,"time":170.9958333333323,"velocity":0.5669291338582677,"duration":0.23333333333332007},{"name":"E4","midi":64,"time":170.9958333333323,"velocity":0.5669291338582677,"duration":0.23333333333332007},{"name":"D3","midi":50,"time":170.99791666666565,"velocity":0.5669291338582677,"duration":0.2291666666666572},{"name":"B4","midi":71,"time":171.23124999999897,"velocity":0.6062992125984252,"duration":0.2354166666666515},{"name":"D4","midi":62,"time":171.2333333333323,"velocity":0.5669291338582677,"duration":0.23333333333332007},{"name":"G#3","midi":56,"time":171.2333333333323,"velocity":0.5669291338582677,"duration":0.23124999999998863},{"name":"E3","midi":52,"time":171.23541666666563,"velocity":0.5669291338582677,"duration":0.2291666666666572},{"name":"A4","midi":69,"time":171.46874999999895,"velocity":0.6062992125984252,"duration":0.11041666666665151},{"name":"C4","midi":60,"time":171.46874999999895,"velocity":0.5669291338582677,"duration":0.2291666666666572},{"name":"F3","midi":53,"time":171.47083333333228,"velocity":0.5669291338582677,"duration":0.4583333333333428},{"name":"A3","midi":57,"time":171.47083333333228,"velocity":0.5669291338582677,"duration":0.46041666666667425},{"name":"B4","midi":71,"time":171.58124999999893,"velocity":0.6062992125984252,"duration":0.11458333333334281},{"name":"C5","midi":72,"time":171.6979166666656,"velocity":0.6062992125984252,"duration":0.11458333333334281},{"name":"C4","midi":60,"time":171.69999999999894,"velocity":0.5669291338582677,"duration":0.11250000000001137},{"name":"B4","midi":71,"time":171.81458333333228,"velocity":0.6062992125984252,"duration":0.11458333333334281},{"name":"D4","midi":62,"time":171.81458333333228,"velocity":0.5669291338582677,"duration":0.11250000000001137},{"name":"A4","midi":69,"time":171.93124999999895,"velocity":0.6062992125984252,"duration":0.23333333333332007},{"name":"C4","midi":60,"time":171.93333333333229,"velocity":0.5669291338582677,"duration":0.2291666666666572},{"name":"G4","midi":67,"time":172.16458333333227,"velocity":0.5669291338582677,"duration":0.2354166666666515},{"name":"A#3","midi":58,"time":172.16458333333227,"velocity":0.5669291338582677,"duration":0.23333333333332007},{"name":"E3","midi":52,"time":172.1666666666656,"velocity":0.5669291338582677,"duration":0.23124999999998863},{"name":"C#3","midi":49,"time":172.1666666666656,"velocity":0.5669291338582677,"duration":0.2291666666666572},{"name":"F5","midi":77,"time":172.39999999999893,"velocity":0.5748031496062992,"duration":0.23125000000001705},{"name":"A3","midi":57,"time":172.39999999999893,"velocity":0.5669291338582677,"duration":0.11250000000001137},{"name":"D3","midi":50,"time":172.40208333333226,"velocity":0.5669291338582677,"duration":0.22708333333335418},{"name":"F3","midi":53,"time":172.40208333333226,"velocity":0.5669291338582677,"duration":0.22708333333335418},{"name":"B3","midi":59,"time":172.51249999999894,"velocity":0.5669291338582677,"duration":0.11458333333334281},{"name":"A5","midi":81,"time":172.63124999999894,"velocity":0.5275590551181102,"duration":0.23750000000001137},{"name":"C#4","midi":61,"time":172.63333333333227,"velocity":0.5669291338582677,"duration":0.11458333333334281},{"name":"G3","midi":55,"time":172.63333333333227,"velocity":0.5669291338582677,"duration":0.23541666666667993},{"name":"E3","midi":52,"time":172.6354166666656,"velocity":0.5669291338582677,"duration":0.23125000000001705},{"name":"B3","midi":59,"time":172.74999999999895,"velocity":0.5669291338582677,"duration":0.11666666666667425},{"name":"A3","midi":57,"time":172.87083333333229,"velocity":0.5669291338582677,"duration":0.23124999999998863},{"name":"F3","midi":53,"time":172.87083333333229,"velocity":0.5669291338582677,"duration":0.23124999999998863},{"name":"E5","midi":76,"time":173.1041666666656,"velocity":0.5748031496062992,"duration":0.23749999999998295},{"name":"G3","midi":55,"time":173.1041666666656,"velocity":0.5669291338582677,"duration":0.2354166666666515},{"name":"A#3","midi":58,"time":173.10624999999894,"velocity":0.5669291338582677,"duration":0.23333333333332007},{"name":"C#3","midi":49,"time":173.10624999999894,"velocity":0.5669291338582677,"duration":0.23333333333332007},{"name":"D5","midi":74,"time":173.3416666666656,"velocity":0.6062992125984252,"duration":0.11458333333334281},{"name":"A3","midi":57,"time":173.34374999999892,"velocity":0.5669291338582677,"duration":0.23125000000001705},{"name":"F#4","midi":66,"time":173.34374999999892,"velocity":0.5669291338582677,"duration":0.2333333333333485},{"name":"D3","midi":50,"time":173.34583333333225,"velocity":0.5669291338582677,"duration":0.47083333333335986},{"name":"C5","midi":72,"time":173.45624999999893,"velocity":0.6062992125984252,"duration":0.11875000000000568},{"name":"E5","midi":76,"time":173.57708333333227,"velocity":0.5748031496062992,"duration":0.11666666666667425},{"name":"B4","midi":71,"time":173.57708333333227,"velocity":0.6062992125984252,"duration":0.23750000000001137},{"name":"G#3","midi":56,"time":173.5791666666656,"velocity":0.5669291338582677,"duration":0.11458333333334281},{"name":"D5","midi":74,"time":173.69583333333227,"velocity":0.6062992125984252,"duration":0.11666666666667425},{"name":"F#3","midi":54,"time":173.69583333333227,"velocity":0.5669291338582677,"duration":0.11666666666667425},{"name":"C5","midi":72,"time":173.8166666666656,"velocity":0.6062992125984252,"duration":0.11458333333334281},{"name":"E3","midi":52,"time":173.8166666666656,"velocity":0.5669291338582677,"duration":0.23541666666667993},{"name":"A2","midi":45,"time":173.81874999999894,"velocity":0.5669291338582677,"duration":0.6979166666666856},{"name":"B4","midi":71,"time":173.93333333333229,"velocity":0.6062992125984252,"duration":0.11666666666667425},{"name":"D5","midi":74,"time":174.0520833333323,"velocity":0.6062992125984252,"duration":0.11666666666667425},{"name":"E4","midi":64,"time":174.05416666666562,"velocity":0.5669291338582677,"duration":0.23541666666667993},{"name":"A3","midi":57,"time":174.05416666666562,"velocity":0.5669291338582677,"duration":0.2333333333333485},{"name":"C5","midi":72,"time":174.1708333333323,"velocity":0.6062992125984252,"duration":0.11666666666667425},{"name":"B4","midi":71,"time":174.2895833333323,"velocity":0.6062992125984252,"duration":0.6833333333333371},{"name":"F3","midi":53,"time":174.29166666666563,"velocity":0.5669291338582677,"duration":0.22499999999999432},{"name":"D4","midi":62,"time":174.29166666666563,"velocity":0.5669291338582677,"duration":0.10833333333332007},{"name":"C4","midi":60,"time":174.40208333333229,"velocity":0.5669291338582677,"duration":0.11250000000001137},{"name":"E4","midi":64,"time":174.51874999999896,"velocity":0.5669291338582677,"duration":0.11041666666665151},{"name":"E3","midi":52,"time":174.51874999999896,"velocity":0.5669291338582677,"duration":0.45416666666667993},{"name":"G#2","midi":44,"time":174.5208333333323,"velocity":0.5669291338582677,"duration":0.22291666666666288},{"name":"D4","midi":62,"time":174.6291666666656,"velocity":0.5669291338582677,"duration":0.11458333333334281},{"name":"C4","midi":60,"time":174.74583333333229,"velocity":0.5669291338582677,"duration":0.11041666666667993},{"name":"A2","midi":45,"time":174.74583333333229,"velocity":0.5669291338582677,"duration":0.4562500000000398},{"name":"B3","midi":59,"time":174.85624999999897,"velocity":0.5669291338582677,"duration":0.11458333333334281},{"name":"A4","midi":69,"time":174.97499999999897,"velocity":0.6062992125984252,"duration":0.3395833333333371},{"name":"F3","midi":53,"time":174.97499999999897,"velocity":0.5669291338582677,"duration":0.11041666666667993},{"name":"D4","midi":62,"time":174.97499999999897,"velocity":0.5669291338582677,"duration":0.11041666666667993},{"name":"D#3","midi":51,"time":175.08749999999898,"velocity":0.5669291338582677,"duration":0.11458333333334281},{"name":"C4","midi":60,"time":175.08749999999898,"velocity":0.5669291338582677,"duration":0.11250000000001137},{"name":"E3","midi":52,"time":175.20416666666566,"velocity":0.5669291338582677,"duration":2.9291666666668448},{"name":"B3","midi":59,"time":175.20416666666566,"velocity":0.5669291338582677,"duration":0.22499999999999432},{"name":"E2","midi":40,"time":175.206249999999,"velocity":0.5669291338582677,"duration":2.925000000000182},{"name":"B4","midi":71,"time":175.31666666666564,"velocity":0.6062992125984252,"duration":0.11250000000001137},{"name":"G#4","midi":68,"time":175.43124999999898,"velocity":0.6062992125984252,"duration":0.11250000000001137},{"name":"C4","midi":60,"time":175.43124999999898,"velocity":0.5669291338582677,"duration":0.22500000000002274},{"name":"A4","midi":69,"time":175.543749999999,"velocity":0.6062992125984252,"duration":0.11041666666667993},{"name":"B4","midi":71,"time":175.656249999999,"velocity":0.6062992125984252,"duration":0.5645833333333599},{"name":"D4","midi":62,"time":175.65833333333234,"velocity":0.5669291338582677,"duration":0.11041666666667993},{"name":"C4","midi":60,"time":175.77083333333235,"velocity":0.5669291338582677,"duration":0.11250000000001137},{"name":"E4","midi":64,"time":175.88333333333236,"velocity":0.5669291338582677,"duration":0.11458333333334281},{"name":"D4","midi":62,"time":175.9979166666657,"velocity":0.5669291338582677,"duration":0.11250000000001137},{"name":"C4","midi":60,"time":176.11249999999905,"velocity":0.5669291338582677,"duration":0.22083333333333144},{"name":"C5","midi":72,"time":176.2229166666657,"velocity":0.6062992125984252,"duration":0.11041666666667993},{"name":"A4","midi":69,"time":176.3354166666657,"velocity":0.6062992125984252,"duration":0.11041666666667993},{"name":"D4","midi":62,"time":176.3354166666657,"velocity":0.5669291338582677,"duration":0.2229166666666913},{"name":"B4","midi":71,"time":176.4458333333324,"velocity":0.6062992125984252,"duration":0.11250000000001137},{"name":"C5","midi":72,"time":176.5583333333324,"velocity":0.6062992125984252,"duration":0.5583333333333655},{"name":"E4","midi":64,"time":176.56041666666573,"velocity":0.5669291338582677,"duration":0.10833333333332007},{"name":"D4","midi":62,"time":176.67083333333238,"velocity":0.5669291338582677,"duration":0.11041666666667993},{"name":"F4","midi":65,"time":176.78124999999906,"velocity":0.5669291338582677,"duration":0.11250000000001137},{"name":"E4","midi":64,"time":176.89374999999907,"velocity":0.5669291338582677,"duration":0.11041666666667993},{"name":"D4","midi":62,"time":177.00624999999908,"velocity":0.5669291338582677,"duration":0.2229166666666913},{"name":"D5","midi":74,"time":177.1187499999991,"velocity":0.6062992125984252,"duration":0.11041666666667993},{"name":"B4","midi":71,"time":177.2312499999991,"velocity":0.6062992125984252,"duration":0.11041666666667993},{"name":"E4","midi":64,"time":177.2312499999991,"velocity":0.5669291338582677,"duration":0.2229166666666913},{"name":"C5","midi":72,"time":177.3416666666658,"velocity":0.6062992125984252,"duration":0.11041666666667993},{"name":"D5","midi":74,"time":177.4541666666658,"velocity":0.6062992125984252,"duration":0.11041666666665151},{"name":"F4","midi":65,"time":177.45624999999913,"velocity":0.5669291338582677,"duration":0.6770833333333712},{"name":"C5","midi":72,"time":177.56666666666578,"velocity":0.6062992125984252,"duration":0.11041666666667993},{"name":"B4","midi":71,"time":177.67708333333246,"velocity":0.6062992125984252,"duration":0.11250000000001137},{"name":"A4","midi":69,"time":177.78958333333247,"velocity":0.6062992125984252,"duration":0.11041666666667993},{"name":"G#4","midi":68,"time":177.90208333333248,"velocity":0.6062992125984252,"duration":0.11458333333334281},{"name":"B4","midi":71,"time":178.01874999999916,"velocity":0.6062992125984252,"duration":0.11250000000001137},{"name":"C5","midi":72,"time":178.13541666666583,"velocity":0.6062992125984252,"duration":0.11041666666665151},{"name":"E4","midi":64,"time":178.13541666666583,"velocity":0.5669291338582677,"duration":0.22499999999999432},{"name":"E3","midi":52,"time":178.13749999999916,"velocity":0.5669291338582677,"duration":0.10833333333332007},{"name":"D5","midi":74,"time":178.24791666666582,"velocity":0.6062992125984252,"duration":0.11250000000001137},{"name":"F3","midi":53,"time":178.24791666666582,"velocity":0.5669291338582677,"duration":0.11250000000001137},{"name":"E5","midi":76,"time":178.36249999999916,"velocity":0.5748031496062992,"duration":0.11250000000001137},{"name":"E3","midi":52,"time":178.36249999999916,"velocity":0.5669291338582677,"duration":0.22916666666668561},{"name":"F5","midi":77,"time":178.4770833333325,"velocity":0.5748031496062992,"duration":0.11458333333334281},{"name":"G5","midi":79,"time":178.59374999999918,"velocity":0.5275590551181102,"duration":0.34166666666666856},{"name":"D3","midi":50,"time":178.5958333333325,"velocity":0.5669291338582677,"duration":0.22708333333332575},{"name":"A#4","midi":70,"time":178.70416666666583,"velocity":0.6062992125984252,"duration":0.11875000000000568},{"name":"A4","midi":69,"time":178.82499999999916,"velocity":0.6062992125984252,"duration":0.5687500000000227},{"name":"C#3","midi":49,"time":178.82499999999916,"velocity":0.5669291338582677,"duration":0.22708333333335418},{"name":"A5","midi":81,"time":178.93541666666584,"velocity":0.5275590551181102,"duration":0.11666666666667425},{"name":"G5","midi":79,"time":179.05208333333252,"velocity":0.5275590551181102,"duration":0.11666666666667425},{"name":"E3","midi":52,"time":179.05416666666585,"velocity":0.5669291338582677,"duration":0.11250000000001137},{"name":"C#3","midi":49,"time":179.05416666666585,"velocity":0.5669291338582677,"duration":0.11250000000001137},{"name":"F5","midi":77,"time":179.1687499999992,"velocity":0.5748031496062992,"duration":0.11249999999998295},{"name":"F3","midi":53,"time":179.17083333333252,"velocity":0.5669291338582677,"duration":0.11041666666665151},{"name":"D3","midi":50,"time":179.17083333333252,"velocity":0.5669291338582677,"duration":0.10833333333332007},{"name":"G5","midi":79,"time":179.2833333333325,"velocity":0.5275590551181102,"duration":0.572916666666714},{"name":"C#3","midi":49,"time":179.2833333333325,"velocity":0.5669291338582677,"duration":0.22708333333335418},{"name":"E3","midi":52,"time":179.2833333333325,"velocity":0.5669291338582677,"duration":0.22916666666668561},{"name":"C#5","midi":73,"time":179.39583333333252,"velocity":0.6062992125984252,"duration":0.11458333333334281},{"name":"E5","midi":76,"time":179.5124999999992,"velocity":0.5748031496062992,"duration":0.11250000000001137},{"name":"D3","midi":50,"time":179.51458333333252,"velocity":0.5669291338582677,"duration":0.22708333333335418},{"name":"B2","midi":47,"time":179.51458333333252,"velocity":0.5669291338582677,"duration":0.22708333333335418},{"name":"D5","midi":74,"time":179.6249999999992,"velocity":0.6062992125984252,"duration":0.11458333333334281},{"name":"E5","midi":76,"time":179.7437499999992,"velocity":0.5748031496062992,"duration":0.3437500000000284},{"name":"C#3","midi":49,"time":179.7437499999992,"velocity":0.5669291338582677,"duration":0.23125000000001705},{"name":"A2","midi":45,"time":179.74583333333254,"velocity":0.5669291338582677,"duration":0.11041666666667993},{"name":"F5","midi":77,"time":179.85833333333255,"velocity":0.5748031496062992,"duration":0.11458333333334281},{"name":"B2","midi":47,"time":179.85833333333255,"velocity":0.5669291338582677,"duration":0.11458333333334281},{"name":"E5","midi":76,"time":179.97499999999923,"velocity":0.5748031496062992,"duration":0.341666666666697},{"name":"C#3","midi":49,"time":179.97499999999923,"velocity":0.5669291338582677,"duration":0.11041666666667993},{"name":"F5","midi":77,"time":180.08749999999924,"velocity":0.5748031496062992,"duration":0.11666666666667425},{"name":"D3","midi":50,"time":180.08958333333257,"velocity":0.5669291338582677,"duration":0.11250000000001137},{"name":"B2","midi":47,"time":180.08958333333257,"velocity":0.5669291338582677,"duration":0.11250000000001137},{"name":"G5","midi":79,"time":180.2041666666659,"velocity":0.5275590551181102,"duration":0.5708333333333542},{"name":"C#3","midi":49,"time":180.20624999999924,"velocity":0.5669291338582677,"duration":0.22708333333335418},{"name":"A2","midi":45,"time":180.20624999999924,"velocity":0.5669291338582677,"duration":0.22708333333335418},{"name":"A4","midi":69,"time":180.31666666666592,"velocity":0.6062992125984252,"duration":0.11458333333334281},{"name":"C#5","midi":73,"time":180.43541666666593,"velocity":0.6062992125984252,"duration":0.11041666666665151},{"name":"G2","midi":43,"time":180.43541666666593,"velocity":0.5669291338582677,"duration":0.22708333333332575},{"name":"A#2","midi":46,"time":180.43749999999926,"velocity":0.5669291338582677,"duration":0.22291666666666288},{"name":"D5","midi":74,"time":180.5479166666659,"velocity":0.6062992125984252,"duration":0.11250000000001137},{"name":"E5","midi":76,"time":180.66249999999926,"velocity":0.5748031496062992,"duration":0.11250000000001137},{"name":"A2","midi":45,"time":180.6645833333326,"velocity":0.5669291338582677,"duration":0.45000000000001705},{"name":"F2","midi":41,"time":180.6645833333326,"velocity":0.5669291338582677,"duration":0.45000000000001705},{"name":"A#5","midi":82,"time":180.77499999999927,"velocity":0.5275590551181102,"duration":0.11458333333334281},{"name":"C#5","midi":73,"time":180.7770833333326,"velocity":0.6062992125984252,"duration":0.11041666666667993},{"name":"A5","midi":81,"time":180.8895833333326,"velocity":0.5275590551181102,"duration":0.11041666666665151},{"name":"D5","midi":74,"time":180.89166666666594,"velocity":0.6062992125984252,"duration":0.22083333333333144},{"name":"G5","midi":79,"time":180.99999999999926,"velocity":0.5275590551181102,"duration":0.11250000000001137},{"name":"F5","midi":77,"time":181.11666666666594,"velocity":0.5748031496062992,"duration":0.10833333333332007},{"name":"E5","midi":76,"time":181.2270833333326,"velocity":0.5748031496062992,"duration":0.11041666666667993},{"name":"D5","midi":74,"time":181.3395833333326,"velocity":0.6062992125984252,"duration":0.11458333333334281},{"name":"A4","midi":69,"time":181.3395833333326,"velocity":0.6062992125984252,"duration":0.11250000000001137},{"name":"F3","midi":53,"time":181.34166666666593,"velocity":0.5669291338582677,"duration":0.22916666666668561},{"name":"F4","midi":65,"time":181.34166666666593,"velocity":0.5669291338582677,"duration":0.11041666666667993},{"name":"C#5","midi":73,"time":181.45416666666594,"velocity":0.6062992125984252,"duration":0.11666666666667425},{"name":"E4","midi":64,"time":181.45624999999927,"velocity":0.5669291338582677,"duration":0.11250000000001137},{"name":"G4","midi":67,"time":181.45624999999927,"velocity":0.5669291338582677,"duration":0.11250000000001137},{"name":"D5","midi":74,"time":181.57291666666595,"velocity":0.6062992125984252,"duration":0.10833333333332007},{"name":"F4","midi":65,"time":181.57291666666595,"velocity":0.5669291338582677,"duration":0.22708333333332575},{"name":"D4","midi":62,"time":181.57499999999928,"velocity":0.5669291338582677,"duration":0.7645833333333201},{"name":"A#3","midi":58,"time":181.57499999999928,"velocity":0.5669291338582677,"duration":0.22499999999999432},{"name":"E5","midi":76,"time":181.6833333333326,"velocity":0.5748031496062992,"duration":0.11458333333334281},{"name":"D5","midi":74,"time":181.79999999999927,"velocity":0.6062992125984252,"duration":0.11458333333334281},{"name":"A#4","midi":70,"time":181.8020833333326,"velocity":0.6062992125984252,"duration":0.24583333333333712},{"name":"G3","midi":55,"time":181.8020833333326,"velocity":0.5669291338582677,"duration":0.24583333333333712},{"name":"E5","midi":76,"time":181.91458333333262,"velocity":0.5511811023622047,"duration":0.13124999999999432},{"name":"F5","midi":77,"time":182.04999999999927,"velocity":0.5511811023622047,"duration":0.04791666666667993},{"name":"A4","midi":69,"time":182.04999999999927,"velocity":0.6062992125984252,"duration":0.28958333333332575},{"name":"A3","midi":57,"time":182.04999999999927,"velocity":0.5669291338582677,"duration":0.53125},{"name":"E5","midi":76,"time":182.09999999999928,"velocity":0.5511811023622047,"duration":0.05000000000001137},{"name":"F5","midi":77,"time":182.1499999999993,"velocity":0.5511811023622047,"duration":0.04791666666667993},{"name":"E5","midi":76,"time":182.1999999999993,"velocity":0.5511811023622047,"duration":0.04583333333332007},{"name":"F5","midi":77,"time":182.24791666666596,"velocity":0.5511811023622047,"duration":0.04583333333332007},{"name":"E5","midi":76,"time":182.2958333333326,"velocity":0.5511811023622047,"duration":0.04166666666665719},{"name":"F5","midi":77,"time":182.34166666666593,"velocity":0.5511811023622047,"duration":0.037499999999994316},{"name":"G4","midi":67,"time":182.34166666666593,"velocity":0.5669291338582677,"duration":0.47083333333333144},{"name":"C#4","midi":61,"time":182.34374999999926,"velocity":0.5669291338582677,"duration":0.23750000000001137},{"name":"E5","midi":76,"time":182.38124999999926,"velocity":0.5511811023622047,"duration":0.08125000000001137},{"name":"D5","midi":74,"time":182.46249999999927,"velocity":0.6062992125984252,"duration":0.11666666666667425},{"name":"D5","midi":74,"time":182.5833333333326,"velocity":0.6062992125984252,"duration":1.389583333333377},{"name":"D4","midi":62,"time":182.5833333333326,"velocity":0.5669291338582677,"duration":0.22708333333332575},{"name":"D3","midi":50,"time":182.58541666666594,"velocity":0.5669291338582677,"duration":0.22499999999999432},{"name":"D3","midi":50,"time":182.81249999999926,"velocity":0.5669291338582677,"duration":0.11250000000001137},{"name":"A3","midi":57,"time":182.8145833333326,"velocity":0.5669291338582677,"duration":0.22500000000002274},{"name":"F4","midi":65,"time":182.8145833333326,"velocity":0.5669291338582677,"duration":0.11041666666667993},{"name":"C#3","midi":49,"time":182.92499999999927,"velocity":0.5669291338582677,"duration":0.11458333333334281},{"name":"E4","midi":64,"time":182.9270833333326,"velocity":0.5669291338582677,"duration":0.11250000000001137},{"name":"D3","midi":50,"time":183.04166666666595,"velocity":0.5669291338582677,"duration":0.22708333333335418},{"name":"F4","midi":65,"time":183.04166666666595,"velocity":0.5669291338582677,"duration":0.11041666666667993},{"name":"G4","midi":67,"time":183.15208333333263,"velocity":0.5669291338582677,"duration":0.11666666666667425},{"name":"A4","midi":69,"time":183.27083333333263,"velocity":0.6062992125984252,"duration":0.11458333333334281},{"name":"E3","midi":52,"time":183.27083333333263,"velocity":0.5669291338582677,"duration":0.2333333333333485},{"name":"F4","midi":65,"time":183.38541666666598,"velocity":0.5669291338582677,"duration":0.11666666666667425},{"name":"D4","midi":62,"time":183.50416666666598,"velocity":0.5669291338582677,"duration":0.46875},{"name":"F3","midi":53,"time":183.50416666666598,"velocity":0.5669291338582677,"duration":0.23124999999998863},{"name":"F3","midi":53,"time":183.7374999999993,"velocity":0.5669291338582677,"duration":0.11875000000000568},{"name":"A3","midi":57,"time":183.73958333333263,"velocity":0.5669291338582677,"duration":0.11458333333334281},{"name":"E3","midi":52,"time":183.8562499999993,"velocity":0.5669291338582677,"duration":0.11666666666667425},{"name":"G#3","midi":56,"time":183.85833333333264,"velocity":0.5669291338582677,"duration":0.11250000000001137},{"name":"A3","midi":57,"time":183.9749999999993,"velocity":0.5669291338582677,"duration":0.23124999999998863},{"name":"F#3","midi":54,"time":183.9749999999993,"velocity":0.5669291338582677,"duration":0.23333333333332007},{"name":"G#3","midi":56,"time":184.20833333333263,"velocity":0.5669291338582677,"duration":0.2354166666666515},{"name":"B3","midi":59,"time":184.21041666666596,"velocity":0.5669291338582677,"duration":0.23333333333332007},{"name":"C4","midi":60,"time":184.44583333333262,"velocity":0.5669291338582677,"duration":0.2333333333333485},{"name":"A3","midi":57,"time":184.44583333333262,"velocity":0.5669291338582677,"duration":0.11458333333334281},{"name":"G#3","midi":56,"time":184.5624999999993,"velocity":0.5669291338582677,"duration":0.11666666666667425},{"name":"F#3","midi":54,"time":184.6812499999993,"velocity":0.5669291338582677,"duration":0.11458333333334281},{"name":"C4","midi":60,"time":184.6812499999993,"velocity":0.5669291338582677,"duration":0.11458333333334281},{"name":"G#3","midi":56,"time":184.79791666666597,"velocity":0.5669291338582677,"duration":0.11458333333334281},{"name":"B3","midi":59,"time":184.79791666666597,"velocity":0.5669291338582677,"duration":0.11250000000001137},{"name":"A3","midi":57,"time":184.9124999999993,"velocity":0.5669291338582677,"duration":0.23124999999998863},{"name":"C4","midi":60,"time":184.91458333333264,"velocity":0.5669291338582677,"duration":0.2291666666666572},{"name":"D4","midi":62,"time":185.14583333333263,"velocity":0.5669291338582677,"duration":0.23333333333332007},{"name":"B3","midi":59,"time":185.14583333333263,"velocity":0.5669291338582677,"duration":0.23333333333332007},{"name":"E4","midi":64,"time":185.37083333333263,"velocity":0.5669291338582677,"duration":0.11874999999997726},{"name":"C3","midi":48,"time":185.37291666666596,"velocity":0.5669291338582677,"duration":0.22708333333332575},{"name":"D4","midi":62,"time":185.48541666666594,"velocity":0.5669291338582677,"duration":0.11875000000000568},{"name":"C4","midi":60,"time":185.60208333333262,"velocity":0.5669291338582677,"duration":0.11666666666667425},{"name":"A2","midi":45,"time":185.60208333333262,"velocity":0.5669291338582677,"duration":0.22708333333335418},{"name":"D4","midi":62,"time":185.71458333333263,"velocity":0.5669291338582677,"duration":0.11458333333334281},{"name":"E4","midi":64,"time":185.8312499999993,"velocity":0.5669291338582677,"duration":0.22708333333332575},{"name":"D3","midi":50,"time":186.06041666666596,"velocity":0.5669291338582677,"duration":0.2291666666666572},{"name":"F4","midi":65,"time":186.06041666666596,"velocity":0.5669291338582677,"duration":0.2291666666666572},{"name":"G#3","midi":56,"time":186.29166666666595,"velocity":0.5669291338582677,"duration":0.5604166666666401},{"name":"E3","midi":52,"time":186.29166666666595,"velocity":0.5669291338582677,"duration":0.09583333333333144},{"name":"F3","midi":53,"time":186.4020833333326,"velocity":0.5669291338582677,"duration":0.10624999999998863},{"name":"E3","midi":52,"time":186.5166666666659,"velocity":0.5669291338582677,"duration":0.08958333333333712},{"name":"D3","midi":50,"time":186.51874999999924,"velocity":0.5669291338582677,"duration":0.11250000000001137},{"name":"E3","midi":52,"time":186.63124999999926,"velocity":0.5669291338582677,"duration":0.09791666666666288},{"name":"F3","midi":53,"time":186.7458333333326,"velocity":0.5669291338582677,"duration":0.11458333333331439},{"name":"G3","midi":55,"time":186.86249999999924,"velocity":0.5669291338582677,"duration":0.11458333333334281},{"name":"A3","midi":57,"time":186.9770833333326,"velocity":0.5669291338582677,"duration":0.2333333333333485},{"name":"E3","midi":52,"time":186.97916666666592,"velocity":0.5669291338582677,"duration":0.11458333333334281},{"name":"F#3","midi":54,"time":187.09374999999926,"velocity":0.5669291338582677,"duration":0.11458333333334281},{"name":"G3","midi":55,"time":187.21041666666594,"velocity":0.5669291338582677,"duration":0.22916666666668561},{"name":"B3","midi":59,"time":187.21249999999927,"velocity":0.5669291338582677,"duration":0.11041666666667993},{"name":"C4","midi":60,"time":187.32499999999928,"velocity":0.5669291338582677,"duration":0.11250000000001137},{"name":"F3","midi":53,"time":187.43958333333262,"velocity":0.5669291338582677,"duration":0.22708333333332575},{"name":"A3","midi":57,"time":187.44166666666595,"velocity":0.5669291338582677,"duration":0.10833333333332007},{"name":"B3","midi":59,"time":187.5520833333326,"velocity":0.5669291338582677,"duration":0.11250000000001137},{"name":"E3","midi":52,"time":187.66666666666595,"velocity":0.5669291338582677,"duration":0.22500000000002274},{"name":"C4","midi":60,"time":187.66874999999928,"velocity":0.5669291338582677,"duration":0.11041666666667993},{"name":"D4","midi":62,"time":187.77916666666596,"velocity":0.5669291338582677,"duration":0.11250000000001137},{"name":"B3","midi":59,"time":187.8937499999993,"velocity":0.5669291338582677,"duration":0.11250000000001137},{"name":"A3","midi":57,"time":187.8937499999993,"velocity":0.5669291338582677,"duration":0.22708333333335418},{"name":"C#4","midi":61,"time":188.0062499999993,"velocity":0.5669291338582677,"duration":0.11250000000001137},{"name":"D3","midi":50,"time":188.12083333333266,"velocity":0.5669291338582677,"duration":0.22499999999999432},{"name":"D4","midi":62,"time":188.122916666666,"velocity":0.5669291338582677,"duration":0.22083333333333144},{"name":"E5","midi":76,"time":188.34583333333265,"velocity":0.5748031496062992,"duration":0.11250000000001137},{"name":"C4","midi":60,"time":188.34583333333265,"velocity":0.5669291338582677,"duration":0.22500000000002274},{"name":"A3","midi":57,"time":188.34791666666598,"velocity":0.5669291338582677,"duration":0.33541666666670267},{"name":"F5","midi":77,"time":188.45833333333266,"velocity":0.5748031496062992,"duration":0.11250000000001137},{"name":"E5","midi":76,"time":188.57083333333267,"velocity":0.5748031496062992,"duration":0.22708333333335418},{"name":"B3","midi":59,"time":188.572916666666,"velocity":0.5669291338582677,"duration":0.22500000000002274},{"name":"G#3","midi":56,"time":188.68333333333268,"velocity":0.5669291338582677,"duration":0.11250000000001137},{"name":"D5","midi":74,"time":188.79999999999936,"velocity":0.6062992125984252,"duration":0.22708333333335418},{"name":"E4","midi":64,"time":188.79999999999936,"velocity":0.5669291338582677,"duration":0.22708333333335418},{"name":"A3","midi":57,"time":188.79999999999936,"velocity":0.5669291338582677,"duration":0.11250000000001137},{"name":"G#3","midi":56,"time":188.91249999999937,"velocity":0.5669291338582677,"duration":0.11250000000001137},{"name":"C5","midi":72,"time":189.02916666666604,"velocity":0.6062992125984252,"duration":0.22499999999999432},{"name":"A3","midi":57,"time":189.02916666666604,"velocity":0.5669291338582677,"duration":0.5687500000000227},{"name":"C5","midi":72,"time":189.25416666666604,"velocity":0.6062992125984252,"duration":0.11458333333334281},{"name":"A4","midi":69,"time":189.25624999999937,"velocity":0.6062992125984252,"duration":0.11250000000001137},{"name":"D5","midi":74,"time":189.3708333333327,"velocity":0.6062992125984252,"duration":0.11458333333334281},{"name":"B4","midi":71,"time":189.3708333333327,"velocity":0.6062992125984252,"duration":0.11250000000001137},{"name":"C5","midi":72,"time":189.48541666666605,"velocity":0.6062992125984252,"duration":0.23125000000001705},{"name":"A4","midi":69,"time":189.4874999999994,"velocity":0.6062992125984252,"duration":0.22708333333335418},{"name":"G3","midi":55,"time":189.5999999999994,"velocity":0.5669291338582677,"duration":0.11458333333334281},{"name":"A#4","midi":70,"time":189.71666666666607,"velocity":0.6062992125984252,"duration":0.22916666666668561},{"name":"G4","midi":67,"time":189.7187499999994,"velocity":0.5669291338582677,"duration":0.22708333333335418},{"name":"F3","midi":53,"time":189.7187499999994,"velocity":0.5669291338582677,"duration":0.11041666666667993},{"name":"E3","midi":52,"time":189.83124999999941,"velocity":0.5669291338582677,"duration":0.11250000000001137},{"name":"A4","midi":69,"time":189.9479166666661,"velocity":0.6062992125984252,"duration":0.11041666666665151},{"name":"F4","midi":65,"time":189.9479166666661,"velocity":0.5669291338582677,"duration":0.22499999999999432},{"name":"F3","midi":53,"time":189.94999999999942,"velocity":0.5669291338582677,"duration":0.5645833333333314},{"name":"A#4","midi":70,"time":190.05833333333274,"velocity":0.6062992125984252,"duration":0.11458333333334281},{"name":"C5","midi":72,"time":190.17499999999941,"velocity":0.6062992125984252,"duration":0.11250000000001137},{"name":"F4","midi":65,"time":190.17499999999941,"velocity":0.5669291338582677,"duration":0.11250000000001137},{"name":"A3","midi":57,"time":190.17499999999941,"velocity":0.5669291338582677,"duration":0.11041666666667993},{"name":"A#4","midi":70,"time":190.28958333333276,"velocity":0.6062992125984252,"duration":0.11249999999998295},{"name":"G4","midi":67,"time":190.28958333333276,"velocity":0.5669291338582677,"duration":0.11041666666665151},{"name":"A#3","midi":58,"time":190.2916666666661,"velocity":0.5669291338582677,"duration":0.10833333333332007},{"name":"A4","midi":69,"time":190.40208333333274,"velocity":0.6062992125984252,"duration":0.22708333333335418},{"name":"C4","midi":60,"time":190.40416666666607,"velocity":0.5669291338582677,"duration":0.2229166666666913},{"name":"F4","midi":65,"time":190.40416666666607,"velocity":0.5669291338582677,"duration":0.2229166666666913},{"name":"E3","midi":52,"time":190.51458333333275,"velocity":0.5669291338582677,"duration":0.11041666666667993},{"name":"G4","midi":67,"time":190.6291666666661,"velocity":0.5669291338582677,"duration":0.2291666666666572},{"name":"E4","midi":64,"time":190.63124999999943,"velocity":0.5669291338582677,"duration":0.22708333333332575},{"name":"A#3","midi":58,"time":190.63124999999943,"velocity":0.5669291338582677,"duration":0.22499999999999432},{"name":"D3","midi":50,"time":190.63333333333276,"velocity":0.5669291338582677,"duration":0.10624999999998863},{"name":"C#3","midi":49,"time":190.74166666666608,"velocity":0.5669291338582677,"duration":0.11458333333334281},{"name":"F5","midi":77,"time":190.86041666666608,"velocity":0.5748031496062992,"duration":0.2333333333333485},{"name":"D4","midi":62,"time":190.86041666666608,"velocity":0.5669291338582677,"duration":0.11458333333334281},{"name":"D3","midi":50,"time":190.86249999999941,"velocity":0.5669291338582677,"duration":0.22916666666668561},{"name":"A3","midi":57,"time":190.86249999999941,"velocity":0.5669291338582677,"duration":0.22916666666668561},{"name":"E4","midi":64,"time":190.97499999999943,"velocity":0.5669291338582677,"duration":0.11458333333334281},{"name":"A5","midi":81,"time":191.09374999999943,"velocity":0.5275590551181102,"duration":0.23541666666667993},{"name":"F4","midi":65,"time":191.09583333333276,"velocity":0.5669291338582677,"duration":0.11250000000001137},{"name":"D4","midi":62,"time":191.09583333333276,"velocity":0.5669291338582677,"duration":0.11250000000001137},{"name":"E4","midi":64,"time":191.2104166666661,"velocity":0.5669291338582677,"duration":0.11666666666667425},{"name":"E4","midi":64,"time":191.2104166666661,"velocity":0.5669291338582677,"duration":0.11875000000000568},{"name":"D4","midi":62,"time":191.33124999999944,"velocity":0.5669291338582677,"duration":0.2333333333333485},{"name":"F4","midi":65,"time":191.33124999999944,"velocity":0.5669291338582677,"duration":0.11458333333334281},{"name":"G4","midi":67,"time":191.44791666666612,"velocity":0.5669291338582677,"duration":0.11666666666667425},{"name":"A4","midi":69,"time":191.56666666666612,"velocity":0.6062992125984252,"duration":0.4625000000000057},{"name":"E5","midi":76,"time":191.56666666666612,"velocity":0.5748031496062992,"duration":0.23124999999998863},{"name":"C#4","midi":61,"time":191.56874999999945,"velocity":0.5669291338582677,"duration":0.22708333333332575},{"name":"D5","midi":74,"time":191.7979166666661,"velocity":0.6062992125984252,"duration":0.11458333333334281},{"name":"A#4","midi":70,"time":191.79999999999944,"velocity":0.6062992125984252,"duration":0.22916666666668561},{"name":"C#5","midi":73,"time":191.91249999999945,"velocity":0.6062992125984252,"duration":0.11458333333334281},{"name":"E5","midi":76,"time":192.03124999999946,"velocity":0.5748031496062992,"duration":0.11250000000001137},{"name":"D5","midi":74,"time":192.03124999999946,"velocity":0.6062992125984252,"duration":0.22916666666668561},{"name":"G4","midi":67,"time":192.0333333333328,"velocity":0.5669291338582677,"duration":0.4562500000000398},{"name":"D5","midi":74,"time":192.1458333333328,"velocity":0.6062992125984252,"duration":0.11458333333334281},{"name":"C#5","midi":73,"time":192.26249999999948,"velocity":0.6062992125984252,"duration":0.11250000000001137},{"name":"B4","midi":71,"time":192.3749999999995,"velocity":0.6062992125984252,"duration":0.11250000000001137},{"name":"A4","midi":69,"time":192.48958333333283,"velocity":0.6062992125984252,"duration":0.23125000000001705},{"name":"D5","midi":74,"time":192.49166666666616,"velocity":0.6062992125984252,"duration":0.11250000000001137},{"name":"F4","midi":65,"time":192.49166666666616,"velocity":0.5669291338582677,"duration":0.45833333333337123},{"name":"C5","midi":72,"time":192.60416666666617,"velocity":0.6062992125984252,"duration":0.11666666666667425},{"name":"B4","midi":71,"time":192.72291666666618,"velocity":0.6062992125984252,"duration":0.22708333333335418},{"name":"G4","midi":67,"time":192.72291666666618,"velocity":0.5669291338582677,"duration":0.11250000000001137},{"name":"F4","midi":65,"time":192.8354166666662,"velocity":0.5669291338582677,"duration":0.11458333333334281},{"name":"C#5","midi":73,"time":192.94999999999953,"velocity":0.6062992125984252,"duration":0.22916666666668561},{"name":"A4","midi":69,"time":192.95208333333287,"velocity":0.6062992125984252,"duration":0.11041666666667993},{"name":"E4","midi":64,"time":192.95208333333287,"velocity":0.5669291338582677,"duration":0.22500000000002274},{"name":"G4","midi":67,"time":193.06249999999955,"velocity":0.5669291338582677,"duration":0.11250000000001137},{"name":"D5","midi":74,"time":193.17916666666622,"velocity":0.6062992125984252,"duration":0.22708333333335418},{"name":"D4","midi":62,"time":193.17916666666622,"velocity":0.5669291338582677,"duration":0.5666666666667197},{"name":"F4","midi":65,"time":193.18124999999955,"velocity":0.5669291338582677,"duration":0.11041666666667993},{"name":"E4","midi":64,"time":193.29166666666623,"velocity":0.5669291338582677,"duration":0.11250000000001137},{"name":"A4","midi":69,"time":193.40624999999957,"velocity":0.6062992125984252,"duration":0.22708333333335418},{"name":"G4","midi":67,"time":193.40624999999957,"velocity":0.5669291338582677,"duration":0.11250000000001137},{"name":"F4","midi":65,"time":193.52083333333292,"velocity":0.5669291338582677,"duration":0.11250000000001137},{"name":"E5","midi":76,"time":193.63541666666626,"velocity":0.5748031496062992,"duration":1.0208333333333712},{"name":"E4","midi":64,"time":193.63541666666626,"velocity":0.5669291338582677,"duration":0.21458333333333712},{"name":"C#4","midi":61,"time":193.74583333333294,"velocity":0.5669291338582677,"duration":0.11249999999998295},{"name":"F4","midi":65,"time":193.86041666666625,"velocity":0.5669291338582677,"duration":0.22708333333335418},{"name":"E4","midi":64,"time":193.86041666666625,"velocity":0.5669291338582677,"duration":0.11250000000001137},{"name":"D4","midi":62,"time":193.9749999999996,"velocity":0.5669291338582677,"duration":0.11250000000001137},{"name":"G4","midi":67,"time":194.08958333333294,"velocity":0.5669291338582677,"duration":0.4562500000000398},{"name":"C#4","midi":61,"time":194.08958333333294,"velocity":0.5669291338582677,"duration":0.11041666666667993},{"name":"B3","midi":59,"time":194.20208333333295,"velocity":0.5669291338582677,"duration":0.11250000000001137},{"name":"D4","midi":62,"time":194.3166666666663,"velocity":0.5669291338582677,"duration":0.11458333333334281},{"name":"C#4","midi":61,"time":194.43124999999964,"velocity":0.5669291338582677,"duration":0.11458333333334281},{"name":"D4","midi":62,"time":194.5479166666663,"velocity":0.5669291338582677,"duration":0.5562500000000057},{"name":"F4","midi":65,"time":194.5479166666663,"velocity":0.5669291338582677,"duration":0.4458333333333542},{"name":"C#5","midi":73,"time":194.65833333333296,"velocity":0.6062992125984252,"duration":0.11041666666667993},{"name":"D5","midi":74,"time":194.77083333333297,"velocity":0.6062992125984252,"duration":0.11041666666667993},{"name":"F5","midi":77,"time":194.88124999999965,"velocity":0.5748031496062992,"duration":0.11250000000001137},{"name":"G5","midi":79,"time":194.995833333333,"velocity":0.5275590551181102,"duration":0.560416666666697},{"name":"E4","midi":64,"time":194.995833333333,"velocity":0.5669291338582677,"duration":0.22291666666666288},{"name":"B3","midi":59,"time":195.10624999999965,"velocity":0.5669291338582677,"duration":0.11041666666667993},{"name":"A4","midi":69,"time":195.21874999999966,"velocity":0.6062992125984252,"duration":0.33541666666670267},{"name":"C#4","midi":61,"time":195.220833333333,"velocity":0.5669291338582677,"duration":0.11041666666667993},{"name":"E4","midi":64,"time":195.33124999999967,"velocity":0.5669291338582677,"duration":0.11250000000001137},{"name":"F4","midi":65,"time":195.44374999999968,"velocity":0.5669291338582677,"duration":0.5687500000000512},{"name":"E5","midi":76,"time":195.5562499999997,"velocity":0.5748031496062992,"duration":0.11458333333334281},{"name":"C#5","midi":73,"time":195.55833333333302,"velocity":0.6062992125984252,"duration":0.11041666666667993},{"name":"F5","midi":77,"time":195.67083333333304,"velocity":0.5748031496062992,"duration":0.11250000000001137},{"name":"D5","midi":74,"time":195.67291666666637,"velocity":0.6062992125984252,"duration":0.22500000000002274},{"name":"A5","midi":81,"time":195.78333333333305,"velocity":0.5275590551181102,"duration":0.11458333333334281},{"name":"A#5","midi":82,"time":195.89999999999972,"velocity":0.5275590551181102,"duration":0.5708333333333826},{"name":"G4","midi":67,"time":195.89999999999972,"velocity":0.5669291338582677,"duration":0.22708333333335418},{"name":"D4","midi":62,"time":196.01458333333306,"velocity":0.5669291338582677,"duration":0.11250000000001137},{"name":"C5","midi":72,"time":196.1291666666664,"velocity":0.6062992125984252,"duration":0.3437500000000284},{"name":"E4","midi":64,"time":196.1291666666664,"velocity":0.5669291338582677,"duration":0.11250000000001137},{"name":"G4","midi":67,"time":196.24166666666642,"velocity":0.5669291338582677,"duration":0.11250000000001137},{"name":"A4","midi":69,"time":196.35624999999976,"velocity":0.6062992125984252,"duration":0.5833333333333712},{"name":"G5","midi":79,"time":196.47291666666644,"velocity":0.5275590551181102,"duration":0.11666666666667425},{"name":"E5","midi":76,"time":196.47499999999977,"velocity":0.5748031496062992,"duration":0.11458333333334281},{"name":"A5","midi":81,"time":196.59166666666644,"velocity":0.5275590551181102,"duration":0.11250000000001137},{"name":"F5","midi":77,"time":196.59166666666644,"velocity":0.5748031496062992,"duration":0.23125000000001705},{"name":"C6","midi":84,"time":196.70624999999978,"velocity":0.5275590551181102,"duration":0.11458333333334281},{"name":"D5","midi":74,"time":196.82291666666646,"velocity":0.6062992125984252,"duration":0.23541666666667993},{"name":"A#4","midi":70,"time":196.8249999999998,"velocity":0.6062992125984252,"duration":0.466666666666697},{"name":"F4","midi":65,"time":196.93958333333313,"velocity":0.5669291338582677,"duration":0.11666666666667425},{"name":"E5","midi":76,"time":197.05833333333314,"velocity":0.5748031496062992,"duration":0.11666666666667425},{"name":"G4","midi":67,"time":197.06041666666647,"velocity":0.5669291338582677,"duration":0.11250000000001137},{"name":"G5","midi":79,"time":197.1749999999998,"velocity":0.5275590551181102,"duration":0.11666666666667425},{"name":"A#4","midi":70,"time":197.1749999999998,"velocity":0.6062992125984252,"duration":0.23125000000001705},{"name":"C5","midi":72,"time":197.29374999999982,"velocity":0.6062992125984252,"duration":0.466666666666697},{"name":"E4","midi":64,"time":197.29374999999982,"velocity":0.5669291338582677,"duration":0.23125000000001705},{"name":"G4","midi":67,"time":197.40833333333316,"velocity":0.5669291338582677,"duration":0.11666666666667425},{"name":"A4","midi":69,"time":197.52708333333317,"velocity":0.6062992125984252,"duration":0.11666666666667425},{"name":"F4","midi":65,"time":197.52708333333317,"velocity":0.5669291338582677,"duration":0.2333333333333485},{"name":"C5","midi":72,"time":197.64374999999984,"velocity":0.6062992125984252,"duration":0.2333333333333485},{"name":"A#3","midi":58,"time":197.76041666666652,"velocity":0.5669291338582677,"duration":0.46458333333336554},{"name":"D4","midi":62,"time":197.76249999999985,"velocity":0.5669291338582677,"duration":0.4625000000000341},{"name":"F4","midi":65,"time":197.8770833333332,"velocity":0.5669291338582677,"duration":0.11666666666667425},{"name":"G4","midi":67,"time":197.99374999999986,"velocity":0.5669291338582677,"duration":0.11666666666667425},{"name":"A#4","midi":70,"time":198.11041666666654,"velocity":0.6062992125984252,"duration":0.23125000000001705},{"name":"E4","midi":64,"time":198.2270833333332,"velocity":0.5669291338582677,"duration":0.23125000000001705},{"name":"C4","midi":60,"time":198.22916666666654,"velocity":0.5669291338582677,"duration":1.1583333333333599},{"name":"A#4","midi":70,"time":198.34166666666655,"velocity":0.6062992125984252,"duration":0.11666666666667425},{"name":"A4","midi":69,"time":198.45833333333323,"velocity":0.6062992125984252,"duration":0.11875000000000568},{"name":"F4","midi":65,"time":198.46041666666656,"velocity":0.5669291338582677,"duration":0.4645833333333371},{"name":"C3","midi":48,"time":198.46041666666656,"velocity":0.5669291338582677,"duration":0.11458333333334281},{"name":"G4","midi":67,"time":198.57708333333323,"velocity":0.5669291338582677,"duration":0.11666666666667425},{"name":"D3","midi":50,"time":198.57916666666657,"velocity":0.5669291338582677,"duration":0.11250000000001137},{"name":"G4","midi":67,"time":198.6937499999999,"velocity":0.5669291338582677,"duration":0.34583333333333144},{"name":"C3","midi":48,"time":198.6937499999999,"velocity":0.5669291338582677,"duration":0.23124999999998863},{"name":"E4","midi":64,"time":198.9249999999999,"velocity":0.5669291338582677,"duration":0.23125000000001705},{"name":"A#2","midi":46,"time":198.92708333333323,"velocity":0.5669291338582677,"duration":0.22916666666668561},{"name":"F4","midi":65,"time":199.04166666666657,"velocity":0.5669291338582677,"duration":0.09375},{"name":"F4","midi":65,"time":199.15833333333325,"velocity":0.5669291338582677,"duration":0.46041666666667425},{"name":"A2","midi":45,"time":199.15833333333325,"velocity":0.5669291338582677,"duration":0.22708333333332575},{"name":"C5","midi":72,"time":199.3874999999999,"velocity":0.6062992125984252,"duration":0.11458333333334281},{"name":"C3","midi":48,"time":199.38958333333323,"velocity":0.5669291338582677,"duration":0.22916666666668561},{"name":"A2","midi":45,"time":199.38958333333323,"velocity":0.5669291338582677,"duration":0.11250000000001137},{"name":"D5","midi":74,"time":199.50416666666658,"velocity":0.6062992125984252,"duration":0.11250000000001137},{"name":"A#2","midi":46,"time":199.50416666666658,"velocity":0.5669291338582677,"duration":0.11250000000001137},{"name":"C5","midi":72,"time":199.62083333333325,"velocity":0.6062992125984252,"duration":2.5166666666666515},{"name":"D3","midi":50,"time":199.62083333333325,"velocity":0.5669291338582677,"duration":0.22708333333332575},{"name":"A2","midi":45,"time":199.62291666666658,"velocity":0.5669291338582677,"duration":0.22291666666666288},{"name":"A#4","midi":70,"time":199.84791666666658,"velocity":0.6062992125984252,"duration":0.2291666666666572},{"name":"E3","midi":52,"time":199.8499999999999,"velocity":0.5669291338582677,"duration":0.22499999999999432},{"name":"G2","midi":43,"time":199.8499999999999,"velocity":0.5669291338582677,"duration":0.22499999999999432},{"name":"A4","midi":69,"time":200.07708333333323,"velocity":0.6062992125984252,"duration":0.22916666666668561},{"name":"F3","midi":53,"time":200.07708333333323,"velocity":0.5669291338582677,"duration":0.22708333333335418},{"name":"F2","midi":41,"time":200.07916666666657,"velocity":0.5669291338582677,"duration":0.11041666666667993},{"name":"G2","midi":43,"time":200.19166666666658,"velocity":0.5669291338582677,"duration":0.11250000000001137},{"name":"A4","midi":69,"time":200.30624999999992,"velocity":0.6062992125984252,"duration":0.11458333333334281},{"name":"E3","midi":52,"time":200.30833333333325,"velocity":0.5669291338582677,"duration":0.22708333333335418},{"name":"A2","midi":45,"time":200.30833333333325,"velocity":0.5669291338582677,"duration":0.11250000000001137},{"name":"A#4","midi":70,"time":200.4229166666666,"velocity":0.6062992125984252,"duration":0.11250000000001137},{"name":"G2","midi":43,"time":200.4229166666666,"velocity":0.5669291338582677,"duration":0.11041666666667993},{"name":"A4","midi":69,"time":200.53749999999994,"velocity":0.6062992125984252,"duration":0.22708333333332575},{"name":"F3","midi":53,"time":200.53749999999994,"velocity":0.5669291338582677,"duration":0.22499999999999432},{"name":"F2","midi":41,"time":200.53958333333327,"velocity":0.5669291338582677,"duration":0.22291666666666288},{"name":"G4","midi":67,"time":200.76458333333326,"velocity":0.5669291338582677,"duration":0.2291666666666572},{"name":"G3","midi":55,"time":200.7666666666666,"velocity":0.5669291338582677,"duration":0.22708333333332575},{"name":"D#2","midi":39,"time":200.7666666666666,"velocity":0.5669291338582677,"duration":0.22499999999999432},{"name":"D3","midi":50,"time":200.99583333333325,"velocity":0.5669291338582677,"duration":0.23958333333328596},{"name":"A3","midi":57,"time":200.99583333333325,"velocity":0.5669291338582677,"duration":0.10208333333332575},{"name":"F#4","midi":66,"time":200.99791666666658,"velocity":0.5669291338582677,"duration":0.10833333333332007},{"name":"G3","midi":55,"time":201.1062499999999,"velocity":0.5669291338582677,"duration":0.10833333333332007},{"name":"G4","midi":67,"time":201.10833333333323,"velocity":0.5669291338582677,"duration":0.11249999999998295},{"name":"A4","midi":69,"time":201.22083333333322,"velocity":0.6062992125984252,"duration":0.11458333333331439},{"name":"F#3","midi":54,"time":201.22291666666655,"velocity":0.5669291338582677,"duration":0.10416666666665719},{"name":"G3","midi":55,"time":201.33749999999986,"velocity":0.5669291338582677,"duration":0.11250000000001137},{"name":"G4","midi":67,"time":201.33749999999986,"velocity":0.5669291338582677,"duration":0.11250000000001137},{"name":"A3","midi":57,"time":201.44999999999987,"velocity":0.5669291338582677,"duration":0.11458333333334281},{"name":"F#4","midi":66,"time":201.4520833333332,"velocity":0.5669291338582677,"duration":0.22708333333335418},{"name":"A#3","midi":58,"time":201.56458333333322,"velocity":0.5669291338582677,"duration":0.11250000000001137},{"name":"D#4","midi":63,"time":201.67916666666656,"velocity":0.5669291338582677,"duration":0.23124999999998863},{"name":"C4","midi":60,"time":201.6812499999999,"velocity":0.5669291338582677,"duration":0.22708333333332575},{"name":"C3","midi":48,"time":201.6812499999999,"velocity":0.5669291338582677,"duration":0.22708333333332575},{"name":"C5","midi":72,"time":201.91041666666655,"velocity":0.6062992125984252,"duration":0.22916666666668561},{"name":"F#3","midi":54,"time":201.91249999999988,"velocity":0.5669291338582677,"duration":0.22500000000002274},{"name":"A#2","midi":46,"time":201.91249999999988,"velocity":0.5669291338582677,"duration":0.11041666666667993},{"name":"A2","midi":45,"time":202.02291666666656,"velocity":0.5669291338582677,"duration":0.11250000000001137},{"name":"A4","midi":69,"time":202.13958333333323,"velocity":0.6062992125984252,"duration":0.22499999999999432},{"name":"A4","midi":69,"time":202.14166666666657,"velocity":0.6062992125984252,"duration":0.22291666666666288},{"name":"A3","midi":57,"time":202.14166666666657,"velocity":0.5669291338582677,"duration":0.22083333333333144},{"name":"C3","midi":48,"time":202.1437499999999,"velocity":0.5669291338582677,"duration":0.10416666666665719},{"name":"A#2","midi":46,"time":202.2499999999999,"velocity":0.5669291338582677,"duration":0.11250000000001137},{"name":"D#5","midi":75,"time":202.36666666666656,"velocity":0.6062992125984252,"duration":0.6770833333333428},{"name":"G3","midi":55,"time":202.36666666666656,"velocity":0.5669291338582677,"duration":0.22499999999999432},{"name":"A2","midi":45,"time":202.3687499999999,"velocity":0.5669291338582677,"duration":0.10624999999998863},{"name":"G2","midi":43,"time":202.4770833333332,"velocity":0.5669291338582677,"duration":0.11250000000001137},{"name":"C5","midi":72,"time":202.59166666666655,"velocity":0.6062992125984252,"duration":0.22916666666668561},{"name":"F#3","midi":54,"time":202.5937499999999,"velocity":0.5669291338582677,"duration":0.22708333333335418},{"name":"A#2","midi":46,"time":202.5937499999999,"velocity":0.5669291338582677,"duration":0.11041666666667993},{"name":"A2","midi":45,"time":202.70416666666657,"velocity":0.5669291338582677,"duration":0.11458333333334281},{"name":"A#4","midi":70,"time":202.82083333333324,"velocity":0.6062992125984252,"duration":0.11041666666665151},{"name":"G3","midi":55,"time":202.82291666666657,"velocity":0.5669291338582677,"duration":0.22083333333333144},{"name":"G2","midi":43,"time":202.82291666666657,"velocity":0.5669291338582677,"duration":0.6770833333333144},{"name":"A4","midi":69,"time":202.9312499999999,"velocity":0.6062992125984252,"duration":0.11250000000001137},{"name":"D5","midi":74,"time":203.04583333333323,"velocity":0.6062992125984252,"duration":0.22708333333332575},{"name":"C5","midi":72,"time":203.04583333333323,"velocity":0.6062992125984252,"duration":0.11041666666665151},{"name":"F3","midi":53,"time":203.04791666666657,"velocity":0.5669291338582677,"duration":0.22499999999999432},{"name":"A#4","midi":70,"time":203.15833333333322,"velocity":0.6062992125984252,"duration":0.11250000000001137},{"name":"C5","midi":72,"time":203.2749999999999,"velocity":0.6062992125984252,"duration":0.10833333333332007},{"name":"A4","midi":69,"time":203.2749999999999,"velocity":0.6062992125984252,"duration":0.10833333333332007},{"name":"D#3","midi":51,"time":203.2749999999999,"velocity":0.5669291338582677,"duration":0.22499999999999432},{"name":"A#4","midi":70,"time":203.38541666666654,"velocity":0.6062992125984252,"duration":0.11250000000001137},{"name":"G4","midi":67,"time":203.38541666666654,"velocity":0.5669291338582677,"duration":0.11250000000001137},{"name":"A#4","midi":70,"time":203.4999999999999,"velocity":0.6062992125984252,"duration":0.11458333333334281},{"name":"D5","midi":74,"time":203.50208333333322,"velocity":0.6062992125984252,"duration":0.11041666666667993},{"name":"D3","midi":50,"time":203.50208333333322,"velocity":0.5669291338582677,"duration":0.4520833333333485},{"name":"F#2","midi":42,"time":203.50208333333322,"velocity":0.5669291338582677,"duration":0.22708333333335418},{"name":"C5","midi":72,"time":203.61458333333323,"velocity":0.6062992125984252,"duration":0.11250000000001137},{"name":"A4","midi":69,"time":203.61458333333323,"velocity":0.6062992125984252,"duration":0.11250000000001137},{"name":"A#4","midi":70,"time":203.72916666666657,"velocity":0.6062992125984252,"duration":0.11041666666665151},{"name":"G4","midi":67,"time":203.7312499999999,"velocity":0.5669291338582677,"duration":0.22291666666666288},{"name":"G2","midi":43,"time":203.7312499999999,"velocity":0.5669291338582677,"duration":2.945833333333411},{"name":"C5","midi":72,"time":203.83958333333322,"velocity":0.6062992125984252,"duration":0.11250000000001137},{"name":"D5","midi":74,"time":203.9562499999999,"velocity":0.6062992125984252,"duration":0.11250000000001137},{"name":"G3","midi":55,"time":203.9562499999999,"velocity":0.5669291338582677,"duration":0.11041666666667993},{"name":"C5","midi":72,"time":204.0687499999999,"velocity":0.6062992125984252,"duration":0.11250000000001137},{"name":"A3","midi":57,"time":204.07083333333324,"velocity":0.5669291338582677,"duration":0.11041666666667993},{"name":"A#4","midi":70,"time":204.18333333333325,"velocity":0.6062992125984252,"duration":0.11250000000001137},{"name":"G3","midi":55,"time":204.18333333333325,"velocity":0.5669291338582677,"duration":0.22708333333335418},{"name":"A4","midi":69,"time":204.29583333333326,"velocity":0.6062992125984252,"duration":0.11250000000001137},{"name":"G4","midi":67,"time":204.4104166666666,"velocity":0.5669291338582677,"duration":0.11041666666665151},{"name":"F3","midi":53,"time":204.41249999999994,"velocity":0.5669291338582677,"duration":0.22291666666666288},{"name":"F4","midi":65,"time":204.5229166666666,"velocity":0.5669291338582677,"duration":0.11250000000001137},{"name":"G4","midi":67,"time":204.63749999999993,"velocity":0.5669291338582677,"duration":0.11250000000001137},{"name":"E3","midi":52,"time":204.63749999999993,"velocity":0.5669291338582677,"duration":0.22708333333335418},{"name":"A4","midi":69,"time":204.74999999999994,"velocity":0.6062992125984252,"duration":0.11250000000001137},{"name":"A#4","midi":70,"time":204.8645833333333,"velocity":0.6062992125984252,"duration":0.11041666666665151},{"name":"E3","midi":52,"time":204.86666666666662,"velocity":0.5669291338582677,"duration":0.10833333333332007},{"name":"A4","midi":69,"time":204.97708333333327,"velocity":0.6062992125984252,"duration":0.11041666666667993},{"name":"F3","midi":53,"time":204.97708333333327,"velocity":0.5669291338582677,"duration":0.11041666666667993},{"name":"G4","midi":67,"time":205.08958333333328,"velocity":0.5669291338582677,"duration":0.11041666666667993},{"name":"E3","midi":52,"time":205.08958333333328,"velocity":0.5669291338582677,"duration":0.22500000000002274},{"name":"F4","midi":65,"time":205.2020833333333,"velocity":0.5669291338582677,"duration":0.11041666666667993},{"name":"E4","midi":64,"time":205.3145833333333,"velocity":0.5669291338582677,"duration":0.11041666666665151},{"name":"D3","midi":50,"time":205.31666666666663,"velocity":0.5669291338582677,"duration":0.22083333333333144},{"name":"D4","midi":62,"time":205.42499999999995,"velocity":0.5669291338582677,"duration":0.11250000000001137},{"name":"E5","midi":76,"time":205.5395833333333,"velocity":0.5748031496062992,"duration":0.9104166666666913},{"name":"C#3","midi":49,"time":205.5395833333333,"velocity":0.5669291338582677,"duration":0.11041666666667993},{"name":"D3","midi":50,"time":205.6520833333333,"velocity":0.5669291338582677,"duration":0.11250000000001137},{"name":"A4","midi":69,"time":205.76666666666665,"velocity":0.6062992125984252,"duration":0.11250000000001137},{"name":"E3","midi":52,"time":205.76666666666665,"velocity":0.5669291338582677,"duration":0.11250000000001137},{"name":"D3","midi":50,"time":205.88125,"velocity":0.5669291338582677,"duration":0.11250000000001137},{"name":"G4","midi":67,"time":205.88125,"velocity":0.5669291338582677,"duration":0.11250000000001137},{"name":"A4","midi":69,"time":205.99583333333334,"velocity":0.6062992125984252,"duration":0.22708333333332575},{"name":"C#3","midi":49,"time":205.99583333333334,"velocity":0.5669291338582677,"duration":0.22499999999999432},{"name":"B4","midi":71,"time":206.22291666666666,"velocity":0.6062992125984252,"duration":0.22708333333332575},{"name":"B2","midi":47,"time":206.225,"velocity":0.5669291338582677,"duration":0.22499999999999432},{"name":"C#5","midi":73,"time":206.45208333333332,"velocity":0.6062992125984252,"duration":0.22291666666666288},{"name":"A3","midi":57,"time":206.45208333333332,"velocity":0.5669291338582677,"duration":0.22291666666666288},{"name":"E5","midi":76,"time":206.67708333333331,"velocity":0.5748031496062992,"duration":0.11249999999998295},{"name":"C#5","midi":73,"time":206.67916666666665,"velocity":0.6062992125984252,"duration":0.10833333333332007},{"name":"C#4","midi":61,"time":206.67916666666665,"velocity":0.5669291338582677,"duration":0.2249999999999659},{"name":"E3","midi":52,"time":206.68124999999998,"velocity":0.5669291338582677,"duration":0.10624999999998863},{"name":"D5","midi":74,"time":206.7895833333333,"velocity":0.6062992125984252,"duration":0.11249999999998295},{"name":"B4","midi":71,"time":206.79166666666663,"velocity":0.6062992125984252,"duration":0.11041666666665151},{"name":"F3","midi":53,"time":206.79166666666663,"velocity":0.5669291338582677,"duration":0.10833333333332007},{"name":"E5","midi":76,"time":206.9041666666666,"velocity":0.5748031496062992,"duration":0.22499999999999432},{"name":"C#5","midi":73,"time":206.90624999999994,"velocity":0.6062992125984252,"duration":0.22083333333333144},{"name":"G3","midi":55,"time":206.90624999999994,"velocity":0.5669291338582677,"duration":0.10833333333332007},{"name":"F3","midi":53,"time":207.0166666666666,"velocity":0.5669291338582677,"duration":0.11041666666667993},{"name":"F5","midi":77,"time":207.1291666666666,"velocity":0.5748031496062992,"duration":0.2291666666666572},{"name":"D5","midi":74,"time":207.13124999999994,"velocity":0.6062992125984252,"duration":0.22499999999999432},{"name":"A4","midi":69,"time":207.13124999999994,"velocity":0.6062992125984252,"duration":0.22499999999999432},{"name":"E3","midi":52,"time":207.13333333333327,"velocity":0.5669291338582677,"duration":0.10833333333332007},{"name":"D3","midi":50,"time":207.2416666666666,"velocity":0.5669291338582677,"duration":0.11458333333334281},{"name":"G5","midi":79,"time":207.35833333333326,"velocity":0.5275590551181102,"duration":0.22499999999999432},{"name":"A#4","midi":70,"time":207.3604166666666,"velocity":0.6062992125984252,"duration":0.3375000000000057},{"name":"E5","midi":76,"time":207.3604166666666,"velocity":0.5748031496062992,"duration":0.10624999999998863},{"name":"C#3","midi":49,"time":207.36249999999993,"velocity":0.5669291338582677,"duration":0.21875},{"name":"D5","midi":74,"time":207.46874999999991,"velocity":0.6062992125984252,"duration":0.11250000000001137},{"name":"G5","midi":79,"time":207.58333333333326,"velocity":0.5275590551181102,"duration":0.11250000000001137},{"name":"C#5","midi":73,"time":207.5854166666666,"velocity":0.6062992125984252,"duration":0.11041666666667993},{"name":"F5","midi":77,"time":207.6979166666666,"velocity":0.5748031496062992,"duration":0.11458333333331439},{"name":"D5","midi":74,"time":207.69999999999993,"velocity":0.6062992125984252,"duration":0.11041666666665151},{"name":"A4","midi":69,"time":207.69999999999993,"velocity":0.6062992125984252,"duration":0.10833333333332007},{"name":"E5","midi":76,"time":207.81249999999991,"velocity":0.5748031496062992,"duration":0.22916666666668561},{"name":"G5","midi":79,"time":207.81249999999991,"velocity":0.5275590551181102,"duration":0.22916666666668561},{"name":"G4","midi":67,"time":207.81458333333325,"velocity":0.5669291338582677,"duration":0.11041666666667993},{"name":"F4","midi":65,"time":207.92499999999993,"velocity":0.5669291338582677,"duration":0.11458333333334281},{"name":"A5","midi":81,"time":208.04374999999993,"velocity":0.5275590551181102,"duration":0.22916666666668561},{"name":"F5","midi":77,"time":208.04374999999993,"velocity":0.5748031496062992,"duration":0.22708333333335418},{"name":"E4","midi":64,"time":208.04374999999993,"velocity":0.5669291338582677,"duration":0.11041666666667993},{"name":"D4","midi":62,"time":208.1541666666666,"velocity":0.5669291338582677,"duration":0.11666666666667425},{"name":"A#5","midi":82,"time":208.27291666666662,"velocity":0.5275590551181102,"duration":0.11041666666665151},{"name":"C#4","midi":61,"time":208.27499999999995,"velocity":0.5669291338582677,"duration":0.45625000000001137},{"name":"G4","midi":67,"time":208.27499999999995,"velocity":0.5669291338582677,"duration":0.22499999999999432},{"name":"A5","midi":81,"time":208.3854166666666,"velocity":0.5275590551181102,"duration":0.11250000000001137},{"name":"G5","midi":79,"time":208.49999999999994,"velocity":0.5275590551181102,"duration":0.11250000000001137},{"name":"E4","midi":64,"time":208.49999999999994,"velocity":0.5669291338582677,"duration":0.22916666666668561},{"name":"E4","midi":64,"time":208.50208333333327,"velocity":0.5669291338582677,"duration":0.22708333333335418},{"name":"A5","midi":81,"time":208.61249999999995,"velocity":0.5275590551181102,"duration":0.11458333333334281},{"name":"A#5","midi":82,"time":208.73124999999996,"velocity":0.5275590551181102,"duration":0.11250000000001137},{"name":"C#4","midi":61,"time":208.73124999999996,"velocity":0.5669291338582677,"duration":0.22916666666668561},{"name":"G5","midi":79,"time":208.8458333333333,"velocity":0.5275590551181102,"duration":0.11458333333334281},{"name":"A4","midi":69,"time":208.96249999999998,"velocity":0.6062992125984252,"duration":0.23541666666667993},{"name":"A5","midi":81,"time":208.96249999999998,"velocity":0.5275590551181102,"duration":0.11458333333334281},{"name":"A3","midi":57,"time":208.9645833333333,"velocity":0.5669291338582677,"duration":0.23125000000001705},{"name":"C#4","midi":61,"time":208.9645833333333,"velocity":0.5669291338582677,"duration":0.23125000000001705},{"name":"E5","midi":76,"time":209.07916666666665,"velocity":0.5748031496062992,"duration":0.11458333333334281},{"name":"F5","midi":77,"time":209.19791666666666,"velocity":0.5748031496062992,"duration":0.11250000000001137},{"name":"A4","midi":69,"time":209.2,"velocity":0.6062992125984252,"duration":0.22708333333335418},{"name":"D4","midi":62,"time":209.2,"velocity":0.5669291338582677,"duration":0.22500000000002274},{"name":"D3","midi":50,"time":209.2,"velocity":0.5669291338582677,"duration":0.22500000000002274},{"name":"E5","midi":76,"time":209.31041666666667,"velocity":0.5748031496062992,"duration":0.11458333333334281},{"name":"D5","midi":74,"time":209.42708333333334,"velocity":0.6062992125984252,"duration":0.22499999999999432},{"name":"F4","midi":65,"time":209.42916666666667,"velocity":0.5669291338582677,"duration":0.22083333333333144},{"name":"E5","midi":76,"time":209.53541666666666,"velocity":0.5748031496062992,"duration":0.11458333333334281},{"name":"F5","midi":77,"time":209.65208333333334,"velocity":0.5748031496062992,"duration":0.11458333333334281},{"name":"A4","midi":69,"time":209.65416666666667,"velocity":0.6062992125984252,"duration":0.23125000000001705},{"name":"D4","midi":62,"time":209.65416666666667,"velocity":0.5669291338582677,"duration":0.23125000000001705},{"name":"D5","midi":74,"time":209.76666666666668,"velocity":0.6062992125984252,"duration":0.11666666666667425},{"name":"E5","midi":76,"time":209.88750000000002,"velocity":0.5748031496062992,"duration":0.12291666666666856},{"name":"G4","midi":67,"time":209.88750000000002,"velocity":0.5669291338582677,"duration":0.23124999999998863},{"name":"A3","midi":57,"time":209.88958333333335,"velocity":0.5669291338582677,"duration":0.22708333333332575},{"name":"C#5","midi":73,"time":210.00000000000003,"velocity":0.6062992125984252,"duration":0.11666666666664582},{"name":"D5","midi":74,"time":210.11875,"velocity":0.6062992125984252,"duration":0.12291666666666856},{"name":"F4","midi":65,"time":210.12083333333334,"velocity":0.5669291338582677,"duration":0.2291666666666572},{"name":"A#3","midi":58,"time":210.12083333333334,"velocity":0.5669291338582677,"duration":0.2291666666666572},{"name":"D3","midi":50,"time":210.12291666666667,"velocity":0.5669291338582677,"duration":0.22708333333332575},{"name":"C5","midi":72,"time":210.23333333333335,"velocity":0.6062992125984252,"duration":0.11458333333331439},{"name":"A#4","midi":70,"time":210.35208333333333,"velocity":0.6062992125984252,"duration":0.11250000000001137},{"name":"D4","midi":62,"time":210.35208333333333,"velocity":0.5669291338582677,"duration":0.2333333333333485},{"name":"F3","midi":53,"time":210.35416666666666,"velocity":0.5669291338582677,"duration":0.23125000000001705},{"name":"C5","midi":72,"time":210.46458333333334,"velocity":0.6062992125984252,"duration":0.11875000000000568},{"name":"D5","midi":74,"time":210.5875,"velocity":0.6062992125984252,"duration":0.12708333333333144},{"name":"F4","midi":65,"time":210.5875,"velocity":0.5669291338582677,"duration":0.23750000000001137},{"name":"A#3","midi":58,"time":210.58958333333334,"velocity":0.5669291338582677,"duration":0.23541666666667993},{"name":"A#4","midi":70,"time":210.70416666666668,"velocity":0.6062992125984252,"duration":0.12083333333333712},{"name":"C5","midi":72,"time":210.82708333333335,"velocity":0.6062992125984252,"duration":0.11875000000000568},{"name":"F4","midi":65,"time":210.82708333333335,"velocity":0.5669291338582677,"duration":0.24791666666666856},{"name":"D4","midi":62,"time":210.82916666666668,"velocity":0.5669291338582677,"duration":0.24375000000000568},{"name":"A4","midi":69,"time":210.94791666666669,"velocity":0.6062992125984252,"duration":0.125},{"name":"G#5","midi":80,"time":211.07500000000002,"velocity":0.41732283464566927,"duration":1.0229166666666458},{"name":"E4","midi":64,"time":211.07500000000002,"velocity":0.47244094488188976,"duration":1.0208333333333144},{"name":"B3","midi":59,"time":211.07708333333335,"velocity":0.5039370078740157,"duration":1.0166666666666515},{"name":"D3","midi":50,"time":211.07708333333335,"velocity":0.5039370078740157,"duration":1.018749999999983},{"name":"B4","midi":71,"time":211.07916666666668,"velocity":0.5118110236220472,"duration":1.0229166666666458},{"name":"E5","midi":76,"time":211.08125,"velocity":0.44881889763779526,"duration":1.0208333333333144},{"name":"A5","midi":81,"time":212.09791666666666,"velocity":0.5275590551181102,"duration":1.158333333333303},{"name":"D#3","midi":51,"time":212.1,"velocity":0.5354330708661418,"duration":0.4270833333333144},{"name":"C4","midi":60,"time":212.1,"velocity":0.5354330708661418,"duration":0.4291666666666458},{"name":"A3","midi":57,"time":212.1,"velocity":0.5354330708661418,"duration":0.4291666666666458},{"name":"A4","midi":69,"time":212.3125,"velocity":0.6062992125984252,"duration":0.10833333333332007},{"name":"G#4","midi":68,"time":212.42083333333332,"velocity":0.6062992125984252,"duration":0.10416666666665719},{"name":"A4","midi":69,"time":212.52916666666664,"velocity":0.6062992125984252,"duration":0.24791666666666856},{"name":"B4","midi":71,"time":212.7770833333333,"velocity":0.6062992125984252,"duration":0.25},{"name":"C5","midi":72,"time":213.0270833333333,"velocity":0.6062992125984252,"duration":0.22708333333332575},{"name":"C4","midi":60,"time":213.02916666666664,"velocity":0.5039370078740157,"duration":0.45625000000001137},{"name":"E3","midi":52,"time":213.02916666666664,"velocity":0.5039370078740157,"duration":0.45625000000001137},{"name":"A3","midi":57,"time":213.02916666666664,"velocity":0.5039370078740157,"duration":0.45625000000001137},{"name":"E5","midi":76,"time":213.25624999999997,"velocity":0.5748031496062992,"duration":0.11458333333334281},{"name":"C5","midi":72,"time":213.2583333333333,"velocity":0.6062992125984252,"duration":0.11041666666667993},{"name":"D5","midi":74,"time":213.3708333333333,"velocity":0.6062992125984252,"duration":0.11250000000001137},{"name":"B4","midi":71,"time":213.3708333333333,"velocity":0.6062992125984252,"duration":0.11250000000001137},{"name":"E5","midi":76,"time":213.48749999999998,"velocity":0.5748031496062992,"duration":0.22499999999999432},{"name":"C5","midi":72,"time":213.48958333333331,"velocity":0.6062992125984252,"duration":0.22083333333333144},{"name":"F#5","midi":78,"time":213.71249999999998,"velocity":0.5748031496062992,"duration":0.22499999999999432},{"name":"D5","midi":74,"time":213.7145833333333,"velocity":0.6062992125984252,"duration":0.22291666666666288},{"name":"E5","midi":76,"time":213.9395833333333,"velocity":0.5748031496062992,"duration":0.11041666666665151},{"name":"G#5","midi":80,"time":213.9395833333333,"velocity":0.5275590551181102,"duration":0.22291666666666288},{"name":"E3","midi":52,"time":213.94166666666663,"velocity":0.5039370078740157,"duration":0.44583333333332575},{"name":"B3","midi":59,"time":213.94166666666663,"velocity":0.5039370078740157,"duration":0.4479166666666572},{"name":"D4","midi":62,"time":213.94374999999997,"velocity":0.5039370078740157,"duration":0.4437499999999943},{"name":"D5","midi":74,"time":214.04999999999995,"velocity":0.6062992125984252,"duration":0.11041666666667993},{"name":"G#5","midi":80,"time":214.16249999999997,"velocity":0.5275590551181102,"duration":0.11249999999998295},{"name":"C5","midi":72,"time":214.1645833333333,"velocity":0.6062992125984252,"duration":0.10833333333332007},{"name":"F#5","midi":78,"time":214.27499999999995,"velocity":0.5748031496062992,"duration":0.11041666666667993},{"name":"D5","midi":74,"time":214.27499999999995,"velocity":0.6062992125984252,"duration":0.11041666666667993},{"name":"G#5","midi":80,"time":214.3895833333333,"velocity":0.5275590551181102,"duration":0.22291666666666288},{"name":"E5","midi":76,"time":214.39166666666662,"velocity":0.5748031496062992,"duration":0.21875},{"name":"A5","midi":81,"time":214.61249999999995,"velocity":0.5275590551181102,"duration":0.22499999999999432},{"name":"F5","midi":77,"time":214.6145833333333,"velocity":0.5748031496062992,"duration":0.22291666666666288},{"name":"G#4","midi":68,"time":214.83958333333328,"velocity":0.6062992125984252,"duration":0.22916666666668561},{"name":"B5","midi":83,"time":214.83958333333328,"velocity":0.5275590551181102,"duration":0.11041666666667993},{"name":"A5","midi":81,"time":214.9520833333333,"velocity":0.5275590551181102,"duration":0.11458333333334281},{"name":"G#5","midi":80,"time":215.06874999999997,"velocity":0.5275590551181102,"duration":0.11458333333334281},{"name":"E4","midi":64,"time":215.0708333333333,"velocity":0.5669291338582677,"duration":0.23125000000001705},{"name":"B3","midi":59,"time":215.0708333333333,"velocity":0.5669291338582677,"duration":0.11250000000001137},{"name":"A5","midi":81,"time":215.18541666666664,"velocity":0.5275590551181102,"duration":0.11666666666667425},{"name":"C4","midi":60,"time":215.18541666666664,"velocity":0.5669291338582677,"duration":0.11458333333334281},{"name":"B5","midi":83,"time":215.30416666666665,"velocity":0.5275590551181102,"duration":0.2333333333333485},{"name":"D4","midi":62,"time":215.30416666666665,"velocity":0.5669291338582677,"duration":0.11458333333334281},{"name":"E4","midi":64,"time":215.42083333333332,"velocity":0.5669291338582677,"duration":0.11666666666667425},{"name":"C6","midi":84,"time":215.53958333333333,"velocity":0.5275590551181102,"duration":0.2395833333333428},{"name":"A4","midi":69,"time":215.53958333333333,"velocity":0.6062992125984252,"duration":0.23750000000001137},{"name":"F#4","midi":66,"time":215.54166666666666,"velocity":0.5669291338582677,"duration":0.11250000000001137},{"name":"G#4","midi":68,"time":215.65625,"velocity":0.6062992125984252,"duration":0.12083333333333712},{"name":"B4","midi":71,"time":215.77916666666667,"velocity":0.6062992125984252,"duration":0.5437499999999886},{"name":"D#5","midi":75,"time":215.78125,"velocity":0.6062992125984252,"duration":0.5395833333333258},{"name":"A4","midi":69,"time":215.78125,"velocity":0.6062992125984252,"duration":0.5395833333333258},{"name":"A3","midi":57,"time":215.78333333333333,"velocity":0.5669291338582677,"duration":0.5354166666666629},{"name":"F#4","midi":66,"time":215.78333333333333,"velocity":0.5669291338582677,"duration":0.5354166666666629},{"name":"F#3","midi":54,"time":215.78541666666666,"velocity":0.5669291338582677,"duration":0.53125},{"name":"E5","midi":76,"time":216.54999999999998,"velocity":0.5039370078740157,"duration":0.24375000000000568},{"name":"B4","midi":71,"time":216.55208333333331,"velocity":0.5748031496062992,"duration":0.2395833333333428},{"name":"E4","midi":64,"time":216.55208333333331,"velocity":0.5669291338582677,"duration":0.2395833333333428},{"name":"B3","midi":59,"time":216.55416666666665,"velocity":0.5669291338582677,"duration":0.23541666666667993},{"name":"G#3","midi":56,"time":216.55416666666665,"velocity":0.5669291338582677,"duration":0.23541666666667993},{"name":"A4","midi":69,"time":216.79375,"velocity":0.5748031496062992,"duration":0.47708333333332575},{"name":"C5","midi":72,"time":216.79583333333332,"velocity":0.5748031496062992,"duration":0.23333333333332007},{"name":"E4","midi":64,"time":216.79583333333332,"velocity":0.5669291338582677,"duration":0.23333333333332007},{"name":"A3","midi":57,"time":216.79791666666665,"velocity":0.5669291338582677,"duration":0.2291666666666572},{"name":"C4","midi":60,"time":216.79791666666665,"velocity":0.5669291338582677,"duration":0.2291666666666572},{"name":"B4","midi":71,"time":217.03124999999997,"velocity":0.6062992125984252,"duration":0.11666666666667425},{"name":"F4","midi":65,"time":217.03124999999997,"velocity":0.5669291338582677,"duration":0.24166666666667425},{"name":"D4","midi":62,"time":217.0333333333333,"velocity":0.5669291338582677,"duration":0.23750000000001137},{"name":"D3","midi":50,"time":217.0333333333333,"velocity":0.5669291338582677,"duration":0.23750000000001137},{"name":"A4","midi":69,"time":217.14791666666665,"velocity":0.6062992125984252,"duration":0.125},{"name":"A4","midi":69,"time":217.27499999999998,"velocity":0.6062992125984252,"duration":0.24791666666666856},{"name":"C5","midi":72,"time":217.27499999999998,"velocity":0.6062992125984252,"duration":0.11875000000000568},{"name":"E4","midi":64,"time":217.27499999999998,"velocity":0.5669291338582677,"duration":0.22708333333332575},{"name":"E3","midi":52,"time":217.2770833333333,"velocity":0.5669291338582677,"duration":0.49791666666666856},{"name":"C4","midi":60,"time":217.2770833333333,"velocity":0.5669291338582677,"duration":0.24583333333333712},{"name":"B4","midi":71,"time":217.39374999999998,"velocity":0.6062992125984252,"duration":0.12916666666666288},{"name":"A4","midi":69,"time":217.52499999999998,"velocity":0.6062992125984252,"duration":0.125},{"name":"E4","midi":64,"time":217.52499999999998,"velocity":0.5669291338582677,"duration":0.25},{"name":"D4","midi":62,"time":217.52499999999998,"velocity":0.5669291338582677,"duration":0.24791666666666856},{"name":"B3","midi":59,"time":217.5270833333333,"velocity":0.5669291338582677,"duration":0.24583333333333712},{"name":"G#4","midi":68,"time":217.64999999999998,"velocity":0.6062992125984252,"duration":0.12291666666666856},{"name":"A4","midi":69,"time":217.77499999999998,"velocity":0.6062992125984252,"duration":0.48125000000001705},{"name":"A3","midi":57,"time":217.7770833333333,"velocity":0.5669291338582677,"duration":0.23750000000001137},{"name":"C#4","midi":61,"time":217.7770833333333,"velocity":0.5669291338582677,"duration":0.4791666666666856},{"name":"E4","midi":64,"time":217.77916666666664,"velocity":0.5669291338582677,"duration":0.47500000000002274},{"name":"A2","midi":45,"time":217.77916666666664,"velocity":0.5669291338582677,"duration":11.283333333333388},{"name":"A3","midi":57,"time":218.01458333333332,"velocity":0.5669291338582677,"duration":0.11875000000000568},{"name":"A#3","midi":58,"time":218.13541666666666,"velocity":0.5669291338582677,"duration":0.11875000000000568},{"name":"A3","midi":57,"time":218.25833333333333,"velocity":0.5669291338582677,"duration":0.23541666666667993},{"name":"E4","midi":64,"time":218.49583333333334,"velocity":0.5669291338582677,"duration":0.23541666666667993},{"name":"G3","midi":55,"time":218.49583333333334,"velocity":0.5669291338582677,"duration":0.23750000000001137},{"name":"A3","midi":57,"time":218.73333333333335,"velocity":0.5669291338582677,"duration":0.23124999999998863},{"name":"F3","midi":53,"time":218.73541666666668,"velocity":0.5669291338582677,"duration":0.2291666666666572},{"name":"A4","midi":69,"time":218.96666666666667,"velocity":0.6062992125984252,"duration":0.11250000000001137},{"name":"F3","midi":53,"time":218.96666666666667,"velocity":0.5669291338582677,"duration":0.11041666666667993},{"name":"A#4","midi":70,"time":219.07916666666668,"velocity":0.6062992125984252,"duration":0.11458333333334281},{"name":"G3","midi":55,"time":219.08125,"velocity":0.5669291338582677,"duration":0.11041666666667993},{"name":"A4","midi":69,"time":219.19375000000002,"velocity":0.6062992125984252,"duration":0.22499999999999432},{"name":"F3","midi":53,"time":219.19583333333335,"velocity":0.5669291338582677,"duration":0.22291666666666288},{"name":"G4","midi":67,"time":219.42083333333335,"velocity":0.5669291338582677,"duration":0.22499999999999432},{"name":"E3","midi":52,"time":219.42083333333335,"velocity":0.5669291338582677,"duration":0.22708333333332575},{"name":"D3","midi":50,"time":219.64791666666667,"velocity":0.5669291338582677,"duration":0.11250000000001137},{"name":"F4","midi":65,"time":219.65,"velocity":0.5669291338582677,"duration":0.22500000000002274},{"name":"E3","midi":52,"time":219.76041666666669,"velocity":0.5669291338582677,"duration":0.11458333333334281},{"name":"D5","midi":74,"time":219.87500000000003,"velocity":0.6062992125984252,"duration":0.11458333333334281},{"name":"F4","midi":65,"time":219.87708333333336,"velocity":0.5669291338582677,"duration":0.11250000000001137},{"name":"F3","midi":53,"time":219.87708333333336,"velocity":0.5669291338582677,"duration":0.11041666666667993},{"name":"C#5","midi":73,"time":219.9916666666667,"velocity":0.6062992125984252,"duration":0.11458333333334281},{"name":"G4","midi":67,"time":219.9916666666667,"velocity":0.5669291338582677,"duration":0.11250000000001137},{"name":"E3","midi":52,"time":219.99375000000003,"velocity":0.5669291338582677,"duration":0.11041666666667993},{"name":"D5","midi":74,"time":220.10625000000005,"velocity":0.6062992125984252,"duration":0.2291666666666572},{"name":"F4","midi":65,"time":220.10833333333338,"velocity":0.5669291338582677,"duration":0.22708333333332575},{"name":"D3","midi":50,"time":220.10833333333338,"velocity":0.5669291338582677,"duration":0.22499999999999432},{"name":"E5","midi":76,"time":220.33750000000003,"velocity":0.5748031496062992,"duration":0.2291666666666572},{"name":"E4","midi":64,"time":220.33750000000003,"velocity":0.5669291338582677,"duration":0.22708333333332575},{"name":"C#3","midi":49,"time":220.33958333333337,"velocity":0.5669291338582677,"duration":0.22499999999999432},{"name":"F5","midi":77,"time":220.5666666666667,"velocity":0.5748031496062992,"duration":0.22708333333332575},{"name":"D4","midi":62,"time":220.56875000000002,"velocity":0.5669291338582677,"duration":0.22499999999999432},{"name":"D3","midi":50,"time":220.56875000000002,"velocity":0.5669291338582677,"duration":0.22291666666666288},{"name":"F5","midi":77,"time":220.79583333333335,"velocity":0.5748031496062992,"duration":0.11041666666665151},{"name":"A4","midi":69,"time":220.79583333333335,"velocity":0.6062992125984252,"duration":0.10833333333332007},{"name":"F3","midi":53,"time":220.79791666666668,"velocity":0.5669291338582677,"duration":0.22291666666666288},{"name":"A3","midi":57,"time":220.79791666666668,"velocity":0.5669291338582677,"duration":0.10624999999998863},{"name":"E5","midi":76,"time":220.90625,"velocity":0.5748031496062992,"duration":0.11458333333334281},{"name":"G4","midi":67,"time":220.90833333333333,"velocity":0.5669291338582677,"duration":0.11041666666667993},{"name":"B3","midi":59,"time":220.90833333333333,"velocity":0.5669291338582677,"duration":0.11041666666667993},{"name":"F5","midi":77,"time":221.02291666666667,"velocity":0.5748031496062992,"duration":0.22291666666666288},{"name":"A4","midi":69,"time":221.02291666666667,"velocity":0.6062992125984252,"duration":0.22083333333333144},{"name":"C#4","midi":61,"time":221.025,"velocity":0.5669291338582677,"duration":0.21875},{"name":"E3","midi":52,"time":221.025,"velocity":0.5669291338582677,"duration":0.21666666666666856},{"name":"G5","midi":79,"time":221.24583333333334,"velocity":0.5275590551181102,"duration":0.22708333333332575},{"name":"B4","midi":71,"time":221.24791666666667,"velocity":0.6062992125984252,"duration":0.22499999999999432},{"name":"D3","midi":50,"time":221.24791666666667,"velocity":0.5669291338582677,"duration":0.22291666666666288},{"name":"D4","midi":62,"time":221.25,"velocity":0.5669291338582677,"duration":0.22083333333333144},{"name":"C#5","midi":73,"time":221.475,"velocity":0.6062992125984252,"duration":0.23541666666667993},{"name":"A5","midi":81,"time":221.475,"velocity":0.5275590551181102,"duration":0.11458333333334281},{"name":"E4","midi":64,"time":221.475,"velocity":0.5669291338582677,"duration":0.4791666666666856},{"name":"G3","midi":55,"time":221.47708333333333,"velocity":0.5669291338582677,"duration":0.4770833333333542},{"name":"G5","midi":79,"time":221.59166666666667,"velocity":0.5275590551181102,"duration":0.11875000000000568},{"name":"F5","midi":77,"time":221.7125,"velocity":0.5748031496062992,"duration":0.12083333333333712},{"name":"C#5","midi":73,"time":221.7125,"velocity":0.6062992125984252,"duration":0.12083333333333712},{"name":"G5","midi":79,"time":221.83541666666667,"velocity":0.5275590551181102,"duration":0.11666666666667425},{"name":"B4","midi":71,"time":221.83541666666667,"velocity":0.6062992125984252,"duration":0.11666666666667425},{"name":"C#5","midi":73,"time":221.95625,"velocity":0.6062992125984252,"duration":0.24583333333333712},{"name":"A5","midi":81,"time":221.95625,"velocity":0.5275590551181102,"duration":0.24583333333333712},{"name":"A#5","midi":82,"time":222.20416666666668,"velocity":0.5275590551181102,"duration":0.24166666666667425},{"name":"D5","midi":74,"time":222.20416666666668,"velocity":0.6062992125984252,"duration":0.2395833333333428},{"name":"F3","midi":53,"time":222.20625,"velocity":0.5669291338582677,"duration":0.23750000000001137},{"name":"D4","midi":62,"time":222.20625,"velocity":0.5669291338582677,"duration":0.23750000000001137},{"name":"E5","midi":76,"time":222.44583333333335,"velocity":0.5748031496062992,"duration":0.10624999999998863},{"name":"C#5","midi":73,"time":222.44791666666669,"velocity":0.6062992125984252,"duration":0.21666666666666856},{"name":"G4","midi":67,"time":222.44791666666669,"velocity":0.5669291338582677,"duration":0.4437499999999943},{"name":"E3","midi":52,"time":222.45000000000002,"velocity":0.5669291338582677,"duration":0.4416666666666629},{"name":"D5","midi":74,"time":222.55208333333334,"velocity":0.6062992125984252,"duration":0.11250000000001137},{"name":"A4","midi":69,"time":222.66666666666669,"velocity":0.6062992125984252,"duration":0.22291666666666288},{"name":"C#5","midi":73,"time":222.66666666666669,"velocity":0.6062992125984252,"duration":0.10833333333332007},{"name":"D5","midi":74,"time":222.775,"velocity":0.6062992125984252,"duration":0.11458333333334281},{"name":"E5","midi":76,"time":222.89375,"velocity":0.5748031496062992,"duration":0.22083333333333144},{"name":"D5","midi":74,"time":223.11666666666667,"velocity":0.5984251968503937,"duration":0.3333333333333428},{"name":"F5","midi":77,"time":223.11666666666667,"velocity":0.5275590551181102,"duration":0.22500000000002274},{"name":"F4","midi":65,"time":223.11666666666667,"velocity":0.5669291338582677,"duration":0.11250000000001137},{"name":"D3","midi":50,"time":223.11875,"velocity":0.5669291338582677,"duration":0.22083333333335986},{"name":"E4","midi":64,"time":223.22916666666669,"velocity":0.5669291338582677,"duration":0.11041666666667993},{"name":"G#4","midi":68,"time":223.3416666666667,"velocity":0.5984251968503937,"duration":0.45000000000001705},{"name":"B3","midi":59,"time":223.34375000000003,"velocity":0.5669291338582677,"duration":0.9375000000000284},{"name":"D4","midi":62,"time":223.34375000000003,"velocity":0.5669291338582677,"duration":0.4458333333333542},{"name":"C5","midi":72,"time":223.45208333333335,"velocity":0.5984251968503937,"duration":0.11041666666667993},{"name":"B4","midi":71,"time":223.56458333333336,"velocity":0.5984251968503937,"duration":0.11041666666667993},{"name":"C5","midi":72,"time":223.67500000000004,"velocity":0.6062992125984252,"duration":0.11458333333334281},{"name":"D5","midi":74,"time":223.7916666666667,"velocity":0.6062992125984252,"duration":0.11666666666667425},{"name":"E5","midi":76,"time":223.91041666666672,"velocity":0.5748031496062992,"duration":0.11875000000000568},{"name":"D5","midi":74,"time":224.02916666666673,"velocity":0.6062992125984252,"duration":0.4937500000000057},{"name":"F#5","midi":78,"time":224.03125000000006,"velocity":0.5748031496062992,"duration":0.12083333333333712},{"name":"D4","midi":62,"time":224.03125000000006,"velocity":0.5669291338582677,"duration":0.11875000000000568},{"name":"G#5","midi":80,"time":224.1520833333334,"velocity":0.5275590551181102,"duration":0.12708333333333144},{"name":"E4","midi":64,"time":224.15416666666673,"velocity":0.5669291338582677,"duration":0.125},{"name":"A5","midi":81,"time":224.28125000000006,"velocity":0.48031496062992124,"duration":4.783333333333303},{"name":"A3","midi":57,"time":224.2833333333334,"velocity":0.5669291338582677,"duration":4.781249999999972},{"name":"F4","midi":65,"time":224.2833333333334,"velocity":0.5669291338582677,"duration":0.23750000000001137},{"name":"C#5","midi":73,"time":224.52291666666673,"velocity":0.5984251968503937,"duration":0.15208333333333712},{"name":"E5","midi":76,"time":224.52500000000006,"velocity":0.5275590551181102,"duration":0.14791666666667425},{"name":"C#4","midi":61,"time":224.52500000000006,"velocity":0.5669291338582677,"duration":0.14791666666667425},{"name":"E4","midi":64,"time":224.52500000000006,"velocity":0.5669291338582677,"duration":0.1458333333333428},{"name":"D5","midi":74,"time":224.67500000000007,"velocity":0.5984251968503937,"duration":0.15000000000000568},{"name":"F5","midi":77,"time":224.67500000000007,"velocity":0.5275590551181102,"duration":0.14791666666667425},{"name":"D4","midi":62,"time":224.6770833333334,"velocity":0.5669291338582677,"duration":0.1458333333333428},{"name":"B3","midi":59,"time":224.6770833333334,"velocity":0.5669291338582677,"duration":0.14375000000001137},{"name":"E5","midi":76,"time":224.82500000000007,"velocity":0.5275590551181102,"duration":0.3333333333333144},{"name":"C#5","midi":73,"time":224.82500000000007,"velocity":0.5984251968503937,"duration":0.3354166666666458},{"name":"C#4","midi":61,"time":224.8270833333334,"velocity":0.5669291338582677,"duration":0.3229166666666572},{"name":"E4","midi":64,"time":224.8270833333334,"velocity":0.5669291338582677,"duration":0.3229166666666572},{"name":"B4","midi":71,"time":225.16041666666672,"velocity":0.5984251968503937,"duration":0.38333333333329733},{"name":"D5","midi":74,"time":225.16250000000005,"velocity":0.5984251968503937,"duration":0.37916666666663446},{"name":"F4","midi":65,"time":225.16250000000005,"velocity":0.5669291338582677,"duration":0.3666666666666458},{"name":"D4","midi":62,"time":225.16458333333338,"velocity":0.5669291338582677,"duration":0.3645833333333144},{"name":"G#4","midi":68,"time":225.3041666666667,"velocity":0.6062992125984252,"duration":0.23749999999998295},{"name":"A4","midi":69,"time":225.54375000000002,"velocity":0.6062992125984252,"duration":3.5229166666666742},{"name":"C#5","midi":73,"time":225.54583333333335,"velocity":0.5984251968503937,"duration":3.520833333333343},{"name":"E4","midi":64,"time":225.54583333333335,"velocity":0.5669291338582677,"duration":3.51666666666668}],"controlChanges":{"7":[{"number":7,"time":0,"value":0.8267716535433071},{"number":7,"time":0,"value":0.7874015748031497},{"number":7,"time":0,"value":0.7874015748031497}],"10":[{"number":10,"time":0,"value":0.49606299212598426},{"number":10,"time":0,"value":0.3779527559055118},{"number":10,"time":0,"value":0.3779527559055118},{"number":10,"time":4.375,"value":0.5275590551181102},{"number":10,"time":4.414583333333334,"value":0.6220472440944882},{"number":10,"time":4.458333333333334,"value":0.47244094488188976},{"number":10,"time":4.468750000000001,"value":0.5905511811023622},{"number":10,"time":4.500000000000001,"value":0.5196850393700787},{"number":10,"time":4.520833333333334,"value":0.5826771653543307},{"number":10,"time":4.529166666666668,"value":0.4566929133858268},{"number":10,"time":4.552083333333334,"value":0.4330708661417323},{"number":10,"time":4.591666666666668,"value":0.4645669291338583}],"64":[{"number":64,"time":234.35208333333335,"value":0},{"number":64,"time":234.35208333333335,"value":0},{"number":64,"time":234.35416666666669,"value":0},{"number":64,"time":234.4041666666667,"value":0},{"number":64,"time":234.40625000000003,"value":0},{"number":64,"time":234.40833333333336,"value":0}]},"id":0,"name":"--------","instrumentNumber":0,"instrument":"acoustic grand piano","instrumentFamily":"piano","channelNumber":0,"isPercussion":false}]}