{"header":{"PPQ":384,"timeSignature":[2,4],"bpm":55.00000458333371,"name":"--------"},"startTime":0,"duration":484.00564148437536,"tracks":[{"startTime":0,"duration":0,"length":0,"notes":[],"controlChanges":{},"id":0,"name":"--------"},{"startTime":0.27272725000000003,"duration":484.00564148437536,"length":2451,"notes":[{"name":"G4","midi":67,"time":0.27272725000000003,"velocity":0.8031496062992126,"duration":0.2272727083333334},{"name":"G4","midi":67,"time":0.5454545000000001,"velocity":0.8031496062992126,"duration":0.2698863411458333},{"name":"D#4","midi":63,"time":0.5454545000000001,"velocity":0.8031496062992126,"duration":0.5397726822916667},{"name":"C4","midi":60,"time":0.5454545000000001,"velocity":0.8031496062992126,"duration":0.5426135911458335},{"name":"A4","midi":69,"time":0.81818175,"velocity":0.8031496062992126,"duration":0.13352271614583333},{"name":"B4","midi":71,"time":0.954545375,"velocity":0.8031496062992126,"duration":0.13352271614583355},{"name":"C5","midi":72,"time":1.0909090000000004,"velocity":0.8031496062992126,"duration":0.26988634114583343},{"name":"C3","midi":48,"time":1.0909090000000004,"velocity":0.8031496062992126,"duration":0.5397726822916669},{"name":"D5","midi":74,"time":1.3636362500000005,"velocity":0.8031496062992126,"duration":0.26988634114583343},{"name":"D#5","midi":75,"time":1.6363635000000007,"velocity":0.8031496062992126,"duration":0.5426135911458334},{"name":"G4","midi":67,"time":1.9090907500000007,"velocity":0.8031496062992126,"duration":0.5426135911458334},{"name":"D5","midi":74,"time":2.1818180000000007,"velocity":0.8031496062992126,"duration":0.40909087499999996},{"name":"B3","midi":59,"time":2.1818180000000007,"velocity":0.8031496062992126,"duration":0.5426135911458334},{"name":"G3","midi":55,"time":2.1818180000000007,"velocity":0.8031496062992126,"duration":0.5426135911458334},{"name":"F4","midi":65,"time":2.4545452500000007,"velocity":0.8031496062992126,"duration":0.26988634114583343},{"name":"F4","midi":65,"time":2.7272725000000007,"velocity":0.8031496062992126,"duration":0.13352271614583344},{"name":"G#3","midi":56,"time":2.7272725000000007,"velocity":0.8031496062992126,"duration":0.5426135911458334},{"name":"C4","midi":60,"time":2.7272725000000007,"velocity":0.8031496062992126,"duration":0.5426135911458334},{"name":"D#4","midi":63,"time":2.8636361250000006,"velocity":0.8031496062992126,"duration":0.13352271614583344},{"name":"D4","midi":62,"time":2.9999997500000006,"velocity":0.8031496062992126,"duration":0.26988634114583343},{"name":"D#4","midi":63,"time":3.2727270000000006,"velocity":0.8031496062992126,"duration":0.6818181249999999},{"name":"G#2","midi":44,"time":3.2727270000000006,"velocity":0.8031496062992126,"duration":0.5397726822916669},{"name":"G4","midi":67,"time":3.5454542500000006,"velocity":0.8031496062992126,"duration":0.26988634114583343},{"name":"C5","midi":72,"time":3.8181815000000006,"velocity":0.8031496062992126,"duration":0.8153408411458329},{"name":"F4","midi":65,"time":4.0909087500000005,"velocity":0.8031496062992126,"duration":0.269886341145833},{"name":"G4","midi":67,"time":4.3636360000000005,"velocity":0.8031496062992126,"duration":0.542613591145833},{"name":"C4","midi":60,"time":4.3636360000000005,"velocity":0.8031496062992126,"duration":2.1789770911458346},{"name":"D#3","midi":51,"time":4.3636360000000005,"velocity":0.8031496062992126,"duration":0.542613591145833},{"name":"C5","midi":72,"time":4.6363632500000005,"velocity":0.8031496062992126,"duration":0.542613591145833},{"name":"G#4","midi":68,"time":4.9090905000000005,"velocity":0.8031496062992126,"duration":0.5397726822916669},{"name":"F3","midi":53,"time":4.9090905000000005,"velocity":0.8031496062992126,"duration":0.5426135911458339},{"name":"D5","midi":74,"time":5.1818177500000004,"velocity":0.8031496062992126,"duration":0.13352271614583344},{"name":"D#5","midi":75,"time":5.318181375000001,"velocity":0.8031496062992126,"duration":0.13352271614583344},{"name":"F5","midi":77,"time":5.454545000000001,"velocity":0.8031496062992126,"duration":0.269886341145833},{"name":"D3","midi":50,"time":5.454545000000001,"velocity":0.8031496062992126,"duration":0.542613591145833},{"name":"G5","midi":79,"time":5.727272250000001,"velocity":0.8031496062992126,"duration":0.269886341145833},{"name":"G#5","midi":80,"time":5.999999500000001,"velocity":0.8031496062992126,"duration":0.269886341145833},{"name":"G3","midi":55,"time":5.999999500000001,"velocity":0.8031496062992126,"duration":1.0795453645833337},{"name":"G5","midi":79,"time":6.272726750000001,"velocity":0.8031496062992126,"duration":0.13352271614583344},{"name":"F5","midi":77,"time":6.409090375000002,"velocity":0.8031496062992126,"duration":0.13352271614583344},{"name":"G5","midi":79,"time":6.545454000000002,"velocity":0.8031496062992126,"duration":0.269886341145833},{"name":"B3","midi":59,"time":6.545454000000002,"velocity":0.8031496062992126,"duration":0.542613591145833},{"name":"D5","midi":74,"time":6.818181250000002,"velocity":0.8031496062992126,"duration":0.269886341145833},{"name":"D5","midi":74,"time":7.090908500000002,"velocity":0.8031496062992126,"duration":0.269886341145833},{"name":"C4","midi":60,"time":7.090908500000002,"velocity":0.8031496062992126,"duration":1.022727187500002},{"name":"D#5","midi":75,"time":7.363635750000002,"velocity":0.8031496062992126,"duration":0.13352271614583344},{"name":"F5","midi":77,"time":7.4999993750000025,"velocity":0.8031496062992126,"duration":0.13352271614583344},{"name":"D#5","midi":75,"time":7.636363000000003,"velocity":0.8031496062992126,"duration":0.13352271614583344},{"name":"C3","midi":48,"time":7.636363000000003,"velocity":0.8031496062992126,"duration":0.5113635937500014},{"name":"D5","midi":74,"time":7.772726625000003,"velocity":0.8031496062992126,"duration":0.13352271614583344},{"name":"C5","midi":72,"time":7.909090250000004,"velocity":0.8031496062992126,"duration":0.22727270833333435},{"name":"G5","midi":79,"time":8.181817500000005,"velocity":0.8031496062992126,"duration":0.5426135911458339},{"name":"C4","midi":60,"time":8.181817500000005,"velocity":0.8031496062992126,"duration":0.5426135911458339},{"name":"D#5","midi":75,"time":8.454544750000005,"velocity":0.8031496062992126,"duration":0.5426135911458321},{"name":"G5","midi":79,"time":8.727272000000005,"velocity":0.8031496062992126,"duration":0.8153408411458312},{"name":"A#3","midi":58,"time":8.727272000000005,"velocity":0.8031496062992126,"duration":0.5426135911458321},{"name":"D5","midi":74,"time":8.999999250000004,"velocity":0.8031496062992126,"duration":0.269886341145833},{"name":"C5","midi":72,"time":9.272726500000003,"velocity":0.8031496062992126,"duration":1.3607953411458293},{"name":"G#3","midi":56,"time":9.272726500000003,"velocity":0.8031496062992126,"duration":0.5426135911458321},{"name":"G#5","midi":80,"time":9.545453750000002,"velocity":0.8031496062992126,"duration":0.13352271614583344},{"name":"A#5","midi":82,"time":9.681817375000001,"velocity":0.8031496062992126,"duration":0.13352271614583344},{"name":"C6","midi":84,"time":9.818181000000001,"velocity":0.8031496062992126,"duration":0.269886341145833},{"name":"G3","midi":55,"time":9.818181000000001,"velocity":0.8031496062992126,"duration":0.5426135911458321},{"name":"D#5","midi":75,"time":10.09090825,"velocity":0.8031496062992126,"duration":0.269886341145833},{"name":"F5","midi":77,"time":10.3636355,"velocity":0.8031496062992126,"duration":0.5426135911458321},{"name":"G#3","midi":56,"time":10.3636355,"velocity":0.8031496062992126,"duration":0.5426135911458321},{"name":"C5","midi":72,"time":10.636362749999998,"velocity":0.8031496062992126,"duration":0.5426135911458321},{"name":"G#5","midi":80,"time":10.909089999999997,"velocity":0.8031496062992126,"duration":0.5426135911458339},{"name":"F3","midi":53,"time":10.909089999999997,"velocity":0.8031496062992126,"duration":0.5426135911458339},{"name":"C5","midi":72,"time":11.181817249999996,"velocity":0.8031496062992126,"duration":0.2556817968750007},{"name":"C5","midi":72,"time":11.454544499999997,"velocity":0.8031496062992126,"duration":0.269886341145833},{"name":"A#3","midi":58,"time":11.454544499999997,"velocity":0.8031496062992126,"duration":0.5426135911458321},{"name":"D5","midi":74,"time":11.727271749999996,"velocity":0.8031496062992126,"duration":0.13352271614583344},{"name":"D#5","midi":75,"time":11.863635374999996,"velocity":0.8031496062992126,"duration":0.13352271614583344},{"name":"D5","midi":74,"time":11.999998999999995,"velocity":0.8031496062992126,"duration":0.13352271614583344},{"name":"A#2","midi":46,"time":11.999998999999995,"velocity":0.8031496062992126,"duration":0.5113635937499978},{"name":"C5","midi":72,"time":12.136362624999995,"velocity":0.8031496062992126,"duration":0.13352271614583344},{"name":"A#4","midi":70,"time":12.272726249999995,"velocity":0.8031496062992126,"duration":0.22727270833333257},{"name":"F5","midi":77,"time":12.545453499999994,"velocity":0.8031496062992126,"duration":0.5426135911458339},{"name":"A#3","midi":58,"time":12.545453499999994,"velocity":0.8031496062992126,"duration":0.5426135911458339},{"name":"D5","midi":74,"time":12.818180749999994,"velocity":0.8031496062992126,"duration":0.5426135911458321},{"name":"F5","midi":77,"time":13.090907999999994,"velocity":0.8031496062992126,"duration":0.8153408411458312},{"name":"G#3","midi":56,"time":13.090907999999994,"velocity":0.8031496062992126,"duration":0.5426135911458321},{"name":"C5","midi":72,"time":13.363635249999993,"velocity":0.8031496062992126,"duration":0.269886341145833},{"name":"A#4","midi":70,"time":13.636362499999992,"velocity":0.8031496062992126,"duration":1.3607953411458293},{"name":"G3","midi":55,"time":13.636362499999992,"velocity":0.8031496062992126,"duration":0.5426135911458321},{"name":"G5","midi":79,"time":13.90908974999999,"velocity":0.8031496062992126,"duration":0.13352271614583344},{"name":"G#5","midi":80,"time":14.04545337499999,"velocity":0.8031496062992126,"duration":0.13352271614583344},{"name":"A#5","midi":82,"time":14.18181699999999,"velocity":0.8031496062992126,"duration":0.269886341145833},{"name":"F3","midi":53,"time":14.18181699999999,"velocity":0.8031496062992126,"duration":0.5426135911458321},{"name":"D5","midi":74,"time":14.454544249999989,"velocity":0.8031496062992126,"duration":0.269886341145833},{"name":"D#5","midi":75,"time":14.727271499999988,"velocity":0.8031496062992126,"duration":0.5426135911458321},{"name":"G3","midi":55,"time":14.727271499999988,"velocity":0.8031496062992126,"duration":0.5426135911458321},{"name":"A#4","midi":70,"time":14.999998749999987,"velocity":0.8031496062992126,"duration":0.5426135911458321},{"name":"G5","midi":79,"time":15.272725999999986,"velocity":0.8031496062992126,"duration":0.5426135911458339},{"name":"D#3","midi":51,"time":15.272725999999986,"velocity":0.8031496062992126,"duration":0.5426135911458339},{"name":"A#4","midi":70,"time":15.545453249999985,"velocity":0.8031496062992126,"duration":0.2556817968750007},{"name":"A#4","midi":70,"time":15.818180499999986,"velocity":0.8031496062992126,"duration":0.26988634114583476},{"name":"G#3","midi":56,"time":15.818180499999986,"velocity":0.8031496062992126,"duration":0.5426135911458374},{"name":"C5","midi":72,"time":16.09090774999999,"velocity":0.8031496062992126,"duration":0.13352271614583344},{"name":"C#5","midi":73,"time":16.22727137499999,"velocity":0.8031496062992126,"duration":0.13352271614583344},{"name":"C5","midi":72,"time":16.36363499999999,"velocity":0.8031496062992126,"duration":0.13352271614583344},{"name":"G#2","midi":44,"time":16.36363499999999,"velocity":0.8031496062992126,"duration":0.5113635937500014},{"name":"A#4","midi":70,"time":16.499998624999993,"velocity":0.8031496062992126,"duration":0.13352271614583344},{"name":"G#4","midi":68,"time":16.636362249999994,"velocity":0.8031496062992126,"duration":0.24147725260416664},{"name":"D#5","midi":75,"time":16.909089499999993,"velocity":0.8031496062992126,"duration":0.5426135911458339},{"name":"G#3","midi":56,"time":16.909089499999993,"velocity":0.8031496062992126,"duration":0.5426135911458339},{"name":"C5","midi":72,"time":17.181816749999992,"velocity":0.8031496062992126,"duration":0.5426135911458374},{"name":"D#5","midi":75,"time":17.454543999999995,"velocity":0.8031496062992126,"duration":0.7386363020833393},{"name":"G3","midi":55,"time":17.454543999999995,"velocity":0.8031496062992126,"duration":0.5426135911458374},{"name":"A#4","midi":70,"time":17.727271249999998,"velocity":0.8031496062992126,"duration":0.26988634114583476},{"name":"G#4","midi":68,"time":17.9999985,"velocity":0.8031496062992126,"duration":0.8153408411458365},{"name":"F3","midi":53,"time":17.9999985,"velocity":0.8031496062992126,"duration":0.5426135911458339},{"name":"F5","midi":77,"time":18.27272575,"velocity":0.8031496062992126,"duration":0.13352271614583344},{"name":"G5","midi":79,"time":18.409089375,"velocity":0.8031496062992126,"duration":0.13352271614583344},{"name":"G#5","midi":80,"time":18.545453000000002,"velocity":0.8031496062992126,"duration":0.5426135911458374},{"name":"F2","midi":41,"time":18.545453000000002,"velocity":0.8031496062992126,"duration":0.5255681380208372},{"name":"D#5","midi":75,"time":18.818180250000005,"velocity":0.8031496062992126,"duration":0.5426135911458374},{"name":"G#5","midi":80,"time":19.090907500000007,"velocity":0.8031496062992126,"duration":0.5426135911458374},{"name":"F3","midi":53,"time":19.090907500000007,"velocity":0.8031496062992126,"duration":0.5426135911458374},{"name":"D5","midi":74,"time":19.36363475000001,"velocity":0.8031496062992126,"duration":0.5426135911458374},{"name":"G#5","midi":80,"time":19.636362000000013,"velocity":0.8031496062992126,"duration":0.7386363020833393},{"name":"D#3","midi":51,"time":19.636362000000013,"velocity":0.8031496062992126,"duration":0.5426135911458374},{"name":"C5","midi":72,"time":19.909089250000015,"velocity":0.8031496062992126,"duration":0.26988634114583476},{"name":"A#4","midi":70,"time":20.181816500000018,"velocity":0.8031496062992126,"duration":0.8153408411458365},{"name":"D3","midi":50,"time":20.181816500000018,"velocity":0.8031496062992126,"duration":0.5426135911458339},{"name":"F5","midi":77,"time":20.454543750000017,"velocity":0.8031496062992126,"duration":0.13352271614583344},{"name":"G5","midi":79,"time":20.590907375000018,"velocity":0.8031496062992126,"duration":0.13352271614583344},{"name":"G#5","midi":80,"time":20.72727100000002,"velocity":0.8031496062992126,"duration":0.5426135911458374},{"name":"D2","midi":38,"time":20.72727100000002,"velocity":0.8031496062992126,"duration":0.5255681380208372},{"name":"A#4","midi":70,"time":20.999998250000022,"velocity":0.8031496062992126,"duration":0.5426135911458374},{"name":"G#5","midi":80,"time":21.272725500000025,"velocity":0.8031496062992126,"duration":0.5397726822916695},{"name":"D3","midi":50,"time":21.272725500000025,"velocity":0.8031496062992126,"duration":0.5426135911458374},{"name":"F5","midi":77,"time":21.545452750000027,"velocity":0.8031496062992126,"duration":0.5426135911458374},{"name":"G#5","midi":80,"time":21.81818000000003,"velocity":0.8031496062992126,"duration":0.7386363020833393},{"name":"A#2","midi":46,"time":21.81818000000003,"velocity":0.8031496062992126,"duration":0.5426135911458374},{"name":"D5","midi":74,"time":22.090907250000033,"velocity":0.8031496062992126,"duration":0.26988634114583476},{"name":"A#4","midi":70,"time":22.363634500000035,"velocity":0.8031496062992126,"duration":1.0795453645833355},{"name":"D#3","midi":51,"time":22.363634500000035,"velocity":0.8031496062992126,"duration":0.5426135911458339},{"name":"G5","midi":79,"time":22.636361750000034,"velocity":0.8031496062992126,"duration":0.13352271614583344},{"name":"F5","midi":77,"time":22.772725375000036,"velocity":0.8031496062992126,"duration":0.13352271614583344},{"name":"G5","midi":79,"time":22.909089000000037,"velocity":0.8031496062992126,"duration":0.39772723958333245},{"name":"G2","midi":43,"time":22.909089000000037,"velocity":0.8031496062992126,"duration":0.5426135911458339},{"name":"D#5","midi":75,"time":23.181816250000036,"velocity":0.8031496062992126,"duration":0.26988634114583476},{"name":"F5","midi":77,"time":23.45454350000004,"velocity":0.8031496062992126,"duration":0.681818125000003},{"name":"G#2","midi":44,"time":23.45454350000004,"velocity":0.8031496062992126,"duration":0.5426135911458339},{"name":"C5","midi":72,"time":23.727270750000038,"velocity":0.8031496062992126,"duration":0.5426135911458374},{"name":"D5","midi":74,"time":23.99999800000004,"velocity":0.8031496062992126,"duration":0.397727239583336},{"name":"A#2","midi":46,"time":23.99999800000004,"velocity":0.8031496062992126,"duration":0.5426135911458374},{"name":"G#4","midi":68,"time":24.272725250000043,"velocity":0.8031496062992126,"duration":0.26988634114583476},{"name":"G4","midi":67,"time":24.545452500000046,"velocity":0.8031496062992126,"duration":1.079545364583339},{"name":"D#3","midi":51,"time":24.545452500000046,"velocity":0.8031496062992126,"duration":0.5426135911458339},{"name":"D#5","midi":75,"time":24.818179750000045,"velocity":0.8031496062992126,"duration":0.13352271614583344},{"name":"F5","midi":77,"time":24.954543375000046,"velocity":0.8031496062992126,"duration":0.13352271614583344},{"name":"G5","midi":79,"time":25.090907000000048,"velocity":0.8031496062992126,"duration":0.26988634114583476},{"name":"D#2","midi":39,"time":25.090907000000048,"velocity":0.8031496062992126,"duration":0.5397726822916695},{"name":"D5","midi":74,"time":25.36363425000005,"velocity":0.8031496062992126,"duration":0.26988634114583476},{"name":"D#5","midi":75,"time":25.636361500000053,"velocity":0.8031496062992126,"duration":0.5426135911458303},{"name":"B4","midi":71,"time":25.909088750000052,"velocity":0.8031496062992126,"duration":0.2556817968749989},{"name":"C5","midi":72,"time":26.18181600000005,"velocity":0.8031496062992126,"duration":0.7386363020833357},{"name":"D#3","midi":51,"time":26.18181600000005,"velocity":0.8031496062992126,"duration":0.5426135911458339},{"name":"G4","midi":67,"time":26.45454325000005,"velocity":0.8031496062992126,"duration":0.26988634114583476},{"name":"F#4","midi":66,"time":26.727270500000053,"velocity":0.8031496062992126,"duration":0.539772682291666},{"name":"D3","midi":50,"time":26.727270500000053,"velocity":0.8031496062992126,"duration":0.5426135911458339},{"name":"F#5","midi":78,"time":26.999997750000052,"velocity":0.8031496062992126,"duration":0.13352271614583344},{"name":"G5","midi":79,"time":27.136361375000053,"velocity":0.8031496062992126,"duration":0.13352271614583344},{"name":"A5","midi":81,"time":27.272725000000055,"velocity":0.8031496062992126,"duration":0.26988634114583476},{"name":"D2","midi":38,"time":27.272725000000055,"velocity":0.8031496062992126,"duration":0.5397726822916695},{"name":"D5","midi":74,"time":27.545452250000057,"velocity":0.8031496062992126,"duration":0.26988634114583476},{"name":"D#5","midi":75,"time":27.81817950000006,"velocity":0.8031496062992126,"duration":0.5426135911458303},{"name":"C5","midi":72,"time":28.09090675000006,"velocity":0.8031496062992126,"duration":0.2556817968749989},{"name":"D5","midi":74,"time":28.363634000000058,"velocity":0.8031496062992126,"duration":0.5113635937499978},{"name":"F#3","midi":54,"time":28.363634000000058,"velocity":0.8031496062992126,"duration":0.5426135911458303},{"name":"A4","midi":69,"time":28.636361250000057,"velocity":0.8031496062992126,"duration":0.5426135911458339},{"name":"A#4","midi":70,"time":28.909088500000056,"velocity":0.8031496062992126,"duration":0.81534084114584},{"name":"G3","midi":55,"time":28.909088500000056,"velocity":0.8031496062992126,"duration":0.5426135911458374},{"name":"G4","midi":67,"time":29.18181575000006,"velocity":0.8031496062992126,"duration":0.13352271614583344},{"name":"F#4","midi":66,"time":29.31817937500006,"velocity":0.8031496062992126,"duration":0.13352271614583344},{"name":"G4","midi":67,"time":29.45454300000006,"velocity":0.8031496062992126,"duration":1.3607953411458453},{"name":"C3","midi":48,"time":29.45454300000006,"velocity":0.8031496062992126,"duration":0.5426135911458374},{"name":"D#5","midi":75,"time":29.727270250000064,"velocity":0.8031496062992126,"duration":0.26988634114583476},{"name":"A4","midi":69,"time":29.999997500000067,"velocity":0.8031496062992126,"duration":0.26988634114583476},{"name":"D3","midi":50,"time":29.999997500000067,"velocity":0.8031496062992126,"duration":0.5426135911458374},{"name":"C5","midi":72,"time":30.27272475000007,"velocity":0.8031496062992126,"duration":0.13352271614583344},{"name":"B4","midi":71,"time":30.40908837500007,"velocity":0.8031496062992126,"duration":0.13352271614583344},{"name":"C5","midi":72,"time":30.545452000000072,"velocity":0.8031496062992126,"duration":0.7102272135416712},{"name":"D2","midi":38,"time":30.545452000000072,"velocity":0.8031496062992126,"duration":0.5426135911458374},{"name":"F#4","midi":66,"time":30.818179250000075,"velocity":0.8031496062992126,"duration":0.26988634114583476},{"name":"G4","midi":67,"time":31.090906500000077,"velocity":0.8031496062992126,"duration":0.8153408411458365},{"name":"G2","midi":43,"time":31.090906500000077,"velocity":0.8031496062992126,"duration":3.2698860911458603},{"name":"B4","midi":71,"time":31.363633750000076,"velocity":0.8031496062992126,"duration":0.13352271614583344},{"name":"C5","midi":72,"time":31.499997375000078,"velocity":0.8031496062992126,"duration":0.13352271614583344},{"name":"D5","midi":74,"time":31.63636100000008,"velocity":0.8031496062992126,"duration":0.7670453906250074},{"name":"F4","midi":65,"time":31.90908825000008,"velocity":0.8031496062992126,"duration":0.26988634114583476},{"name":"D#4","midi":63,"time":32.181815500000084,"velocity":0.8031496062992126,"duration":1.3607953411458453},{"name":"C5","midi":72,"time":32.45454275000009,"velocity":0.8031496062992126,"duration":0.26988634114583476},{"name":"A4","midi":69,"time":32.72727000000009,"velocity":0.8031496062992126,"duration":0.26988634114583476},{"name":"F#4","midi":66,"time":32.99999725000009,"velocity":0.8031496062992126,"duration":0.26988634114583476},{"name":"G4","midi":67,"time":33.272724500000095,"velocity":0.8031496062992126,"duration":1.6335225911458409},{"name":"D4","midi":62,"time":33.5454517500001,"velocity":0.8031496062992126,"duration":0.13352271614583344},{"name":"C4","midi":60,"time":33.6818153750001,"velocity":0.8031496062992126,"duration":0.13352271614583344},{"name":"B3","midi":59,"time":33.8181790000001,"velocity":0.8031496062992126,"duration":0.13352271614583344},{"name":"C4","midi":60,"time":33.9545426250001,"velocity":0.8031496062992126,"duration":0.13352271614583344},{"name":"D4","midi":62,"time":34.0909062500001,"velocity":0.8031496062992126,"duration":0.2556817968750025},{"name":"G3","midi":55,"time":34.363633500000105,"velocity":0.8031496062992126,"duration":0.6818181249999995},{"name":"D5","midi":74,"time":35.181815250000106,"velocity":0.8031496062992126,"duration":0.26988634114583476},{"name":"D5","midi":74,"time":35.45454250000011,"velocity":0.8031496062992126,"duration":0.26988634114583476},{"name":"G3","midi":55,"time":35.45454250000011,"velocity":0.8031496062992126,"duration":0.5426135911458374},{"name":"B3","midi":59,"time":35.45454250000011,"velocity":0.8031496062992126,"duration":0.5426135911458374},{"name":"B4","midi":71,"time":35.72726975000011,"velocity":0.8031496062992126,"duration":0.13352271614583344},{"name":"C5","midi":72,"time":35.86363337500011,"velocity":0.8031496062992126,"duration":0.13352271614583344},{"name":"D5","midi":74,"time":35.999997000000114,"velocity":0.8031496062992126,"duration":0.26988634114583476},{"name":"G2","midi":43,"time":35.999997000000114,"velocity":0.8031496062992126,"duration":0.5397726822916695},{"name":"B4","midi":71,"time":36.27272425000012,"velocity":0.8031496062992126,"duration":0.2556817968750025},{"name":"G4","midi":67,"time":36.54545150000012,"velocity":0.8031496062992126,"duration":0.5426135911458374},{"name":"B4","midi":71,"time":36.81817875000012,"velocity":0.8031496062992126,"duration":0.5426135911458374},{"name":"F4","midi":65,"time":37.090906000000125,"velocity":0.8031496062992126,"duration":0.5426135911458374},{"name":"D4","midi":62,"time":37.090906000000125,"velocity":0.8031496062992126,"duration":0.5426135911458374},{"name":"G3","midi":55,"time":37.090906000000125,"velocity":0.8031496062992126,"duration":0.5426135911458374},{"name":"B4","midi":71,"time":37.36363325000013,"velocity":0.8031496062992126,"duration":0.2556817968750025},{"name":"D#4","midi":63,"time":37.63636050000013,"velocity":0.8031496062992126,"duration":1.079545364583339},{"name":"C4","midi":60,"time":37.63636050000013,"velocity":0.8031496062992126,"duration":1.079545364583339},{"name":"C5","midi":72,"time":37.90908775000013,"velocity":0.8031496062992126,"duration":0.13352271614583344},{"name":"B4","midi":71,"time":38.045451375000134,"velocity":0.8031496062992126,"duration":0.13352271614583344},{"name":"C5","midi":72,"time":38.181815000000135,"velocity":0.8031496062992126,"duration":0.26988634114583476},{"name":"C3","midi":48,"time":38.181815000000135,"velocity":0.8031496062992126,"duration":0.5397726822916695},{"name":"G4","midi":67,"time":38.45454225000014,"velocity":0.8031496062992126,"duration":0.26988634114583476},{"name":"D#4","midi":63,"time":38.72726950000014,"velocity":0.8031496062992126,"duration":0.26988634114583476},{"name":"G4","midi":67,"time":38.99999675000014,"velocity":0.8031496062992126,"duration":0.13352271614583344},{"name":"F4","midi":65,"time":39.136360375000145,"velocity":0.8031496062992126,"duration":0.13352271614583344},{"name":"D#4","midi":63,"time":39.272724000000146,"velocity":0.8031496062992126,"duration":0.13352271614583344},{"name":"C3","midi":48,"time":39.272724000000146,"velocity":0.8031496062992126,"duration":0.5426135911458374},{"name":"D4","midi":62,"time":39.40908762500015,"velocity":0.8031496062992126,"duration":0.13352271614583344},{"name":"C4","midi":60,"time":39.54545125000015,"velocity":0.8031496062992126,"duration":0.2556817968750025},{"name":"A#3","midi":58,"time":39.81817850000015,"velocity":0.8031496062992126,"duration":0.5426135911458374},{"name":"E5","midi":76,"time":40.090905750000154,"velocity":0.8031496062992126,"duration":0.13352271614583344},{"name":"F5","midi":77,"time":40.227269375000155,"velocity":0.8031496062992126,"duration":0.13352271614583344},{"name":"G5","midi":79,"time":40.363633000000156,"velocity":0.8031496062992126,"duration":0.26988634114583476},{"name":"A#2","midi":46,"time":40.363633000000156,"velocity":0.8031496062992126,"duration":0.5397726822916695},{"name":"E5","midi":76,"time":40.63636025000016,"velocity":0.8031496062992126,"duration":0.2556817968750025},{"name":"C5","midi":72,"time":40.90908750000016,"velocity":0.8031496062992126,"duration":0.5426135911458374},{"name":"E5","midi":76,"time":41.181814750000164,"velocity":0.8031496062992126,"duration":0.5426135911458374},{"name":"G4","midi":67,"time":41.45454200000017,"velocity":0.8031496062992126,"duration":0.5426135911458374},{"name":"A#3","midi":58,"time":41.45454200000017,"velocity":0.8031496062992126,"duration":0.5426135911458374},{"name":"E5","midi":76,"time":41.72726925000017,"velocity":0.8031496062992126,"duration":0.2556817968750025},{"name":"F4","midi":65,"time":41.99999650000017,"velocity":0.8031496062992126,"duration":0.5397726822916695},{"name":"G#3","midi":56,"time":41.99999650000017,"velocity":0.8031496062992126,"duration":0.5426135911458374},{"name":"F5","midi":77,"time":42.272723750000175,"velocity":0.8031496062992126,"duration":0.13352271614583344},{"name":"E5","midi":76,"time":42.409087375000176,"velocity":0.8031496062992126,"duration":0.13352271614583344},{"name":"F5","midi":77,"time":42.54545100000018,"velocity":0.8031496062992126,"duration":0.26988634114583476},{"name":"G3","midi":55,"time":42.54545100000018,"velocity":0.8031496062992126,"duration":0.5426135911458374},{"name":"C5","midi":72,"time":42.81817825000018,"velocity":0.8031496062992126,"duration":0.26988634114583476},{"name":"G#4","midi":68,"time":43.09090550000018,"velocity":0.8031496062992126,"duration":0.26988634114583476},{"name":"F3","midi":53,"time":43.09090550000018,"velocity":0.8031496062992126,"duration":0.5426135911458374},{"name":"C5","midi":72,"time":43.363632750000185,"velocity":0.8031496062992126,"duration":0.13352271614583344},{"name":"A#4","midi":70,"time":43.49999637500019,"velocity":0.8031496062992126,"duration":0.13352271614583344},{"name":"G#4","midi":68,"time":43.63636000000019,"velocity":0.8031496062992126,"duration":0.13352271614583344},{"name":"C4","midi":60,"time":43.63636000000019,"velocity":0.8031496062992126,"duration":0.511363593750005},{"name":"G4","midi":67,"time":43.77272362500019,"velocity":0.8031496062992126,"duration":0.13352271614583344},{"name":"F4","midi":65,"time":43.90908725000019,"velocity":0.8031496062992126,"duration":0.2414772526041702},{"name":"C#5","midi":73,"time":44.18181450000019,"velocity":0.8031496062992126,"duration":1.9034089322916827},{"name":"A#2","midi":46,"time":44.18181450000019,"velocity":0.8031496062992126,"duration":0.5426135911458374},{"name":"G4","midi":67,"time":44.454541750000196,"velocity":0.8031496062992126,"duration":0.13352271614583344},{"name":"G#4","midi":68,"time":44.5909053750002,"velocity":0.8031496062992126,"duration":0.13352271614583344},{"name":"A#4","midi":70,"time":44.7272690000002,"velocity":0.8031496062992126,"duration":0.26988634114583476},{"name":"A#3","midi":58,"time":44.7272690000002,"velocity":0.8031496062992126,"duration":0.5426135911458374},{"name":"F4","midi":65,"time":44.9999962500002,"velocity":0.8031496062992126,"duration":0.26988634114583476},{"name":"G4","midi":67,"time":45.272723500000204,"velocity":0.8031496062992126,"duration":0.26988634114583476},{"name":"D#3","midi":51,"time":45.272723500000204,"velocity":0.8031496062992126,"duration":0.5426135911458374},{"name":"A#4","midi":70,"time":45.54545075000021,"velocity":0.8031496062992126,"duration":0.26988634114583476},{"name":"D#4","midi":63,"time":45.81817800000021,"velocity":0.8031496062992126,"duration":0.7386363020833286},{"name":"G3","midi":55,"time":45.81817800000021,"velocity":0.8031496062992126,"duration":0.5426135911458303},{"name":"C#5","midi":73,"time":46.09090525000021,"velocity":0.8031496062992126,"duration":0.2272727083333308},{"name":"C5","midi":72,"time":46.36363250000021,"velocity":0.8031496062992126,"duration":1.2499998958333336},{"name":"G#2","midi":44,"time":46.36363250000021,"velocity":0.8031496062992126,"duration":0.5426135911458303},{"name":"F4","midi":65,"time":46.6363597500002,"velocity":0.8031496062992126,"duration":0.13352271614583344},{"name":"G4","midi":67,"time":46.772723375000204,"velocity":0.8031496062992126,"duration":0.13352271614583344},{"name":"G#4","midi":68,"time":46.909087000000206,"velocity":0.8031496062992126,"duration":0.26988634114583476},{"name":"G#3","midi":56,"time":46.909087000000206,"velocity":0.8031496062992126,"duration":1.5340907812500078},{"name":"E4","midi":64,"time":47.18181425000021,"velocity":0.8031496062992126,"duration":0.26988634114583476},{"name":"F4","midi":65,"time":47.45454150000021,"velocity":0.8031496062992126,"duration":0.5397726822916624},{"name":"C#3","midi":49,"time":47.45454150000021,"velocity":0.8031496062992126,"duration":0.5426135911458303},{"name":"F5","midi":77,"time":47.727268750000206,"velocity":0.8031496062992126,"duration":0.13352271614583344},{"name":"D#5","midi":75,"time":47.86363237500021,"velocity":0.8031496062992126,"duration":0.13352271614583344},{"name":"C#5","midi":73,"time":47.99999600000021,"velocity":0.8031496062992126,"duration":0.26988634114583476},{"name":"F3","midi":53,"time":47.99999600000021,"velocity":0.8031496062992126,"duration":0.5426135911458374},{"name":"C5","midi":72,"time":48.27272325000021,"velocity":0.8031496062992126,"duration":0.26988634114583476},{"name":"A#4","midi":70,"time":48.545450500000214,"velocity":0.8031496062992126,"duration":0.26988634114583476},{"name":"G2","midi":43,"time":48.545450500000214,"velocity":0.8031496062992126,"duration":0.5426135911458374},{"name":"C#5","midi":73,"time":48.81817775000022,"velocity":0.8031496062992126,"duration":0.13352271614583344},{"name":"C5","midi":72,"time":48.95454137500022,"velocity":0.8031496062992126,"duration":0.13352271614583344},{"name":"A#4","midi":70,"time":49.09090500000022,"velocity":0.8031496062992126,"duration":0.26988634114583476},{"name":"G3","midi":55,"time":49.09090500000022,"velocity":0.8031496062992126,"duration":0.5426135911458374},{"name":"G#4","midi":68,"time":49.36363225000022,"velocity":0.8031496062992126,"duration":0.26988634114583476},{"name":"G4","midi":67,"time":49.636359500000225,"velocity":0.8031496062992126,"duration":0.26988634114583476},{"name":"A#3","midi":58,"time":49.636359500000225,"velocity":0.8031496062992126,"duration":0.5426135911458374},{"name":"A#4","midi":70,"time":49.90908675000023,"velocity":0.8031496062992126,"duration":0.13352271614583344},{"name":"G#4","midi":68,"time":50.04545037500023,"velocity":0.8031496062992126,"duration":0.13352271614583344},{"name":"G4","midi":67,"time":50.18181400000023,"velocity":0.8031496062992126,"duration":0.26988634114583476},{"name":"C#4","midi":61,"time":50.18181400000023,"velocity":0.8031496062992126,"duration":0.5426135911458374},{"name":"F4","midi":65,"time":50.45454125000023,"velocity":0.8031496062992126,"duration":0.26988634114583476},{"name":"E4","midi":64,"time":50.727268500000235,"velocity":0.8031496062992126,"duration":0.13352271614583344},{"name":"C4","midi":60,"time":50.727268500000235,"velocity":0.8031496062992126,"duration":0.795454479166672},{"name":"F4","midi":65,"time":50.86363212500024,"velocity":0.8031496062992126,"duration":0.13352271614583344},{"name":"G4","midi":67,"time":50.99999575000024,"velocity":0.8031496062992126,"duration":0.13352271614583344},{"name":"G#4","midi":68,"time":51.13635937500024,"velocity":0.8031496062992126,"duration":0.13352271614583344},{"name":"A#4","midi":70,"time":51.27272300000024,"velocity":0.8031496062992126,"duration":0.81534084114584},{"name":"G3","midi":55,"time":51.27272300000024,"velocity":0.8031496062992126,"duration":0.5426135911458374},{"name":"C#4","midi":61,"time":51.54545025000024,"velocity":0.8031496062992126,"duration":0.26988634114583476},{"name":"C4","midi":60,"time":51.818177500000246,"velocity":0.8031496062992126,"duration":1.079545364583339},{"name":"E3","midi":52,"time":51.818177500000246,"velocity":0.8031496062992126,"duration":0.5426135911458374},{"name":"E5","midi":76,"time":52.09090475000025,"velocity":0.8031496062992126,"duration":0.13352271614583344},{"name":"F5","midi":77,"time":52.22726837500025,"velocity":0.8031496062992126,"duration":0.13352271614583344},{"name":"G5","midi":79,"time":52.36363200000025,"velocity":0.8031496062992126,"duration":0.13352271614583344},{"name":"C3","midi":48,"time":52.36363200000025,"velocity":0.8031496062992126,"duration":0.5426135911458303},{"name":"G#5","midi":80,"time":52.49999562500025,"velocity":0.8031496062992126,"duration":0.13352271614583344},{"name":"A#5","midi":82,"time":52.636359250000254,"velocity":0.8031496062992126,"duration":0.26988634114582766},{"name":"G#5","midi":80,"time":52.90908650000025,"velocity":0.8031496062992126,"duration":0.81534084114584},{"name":"F3","midi":53,"time":52.90908650000025,"velocity":0.8031496062992126,"duration":0.5426135911458374},{"name":"G5","midi":79,"time":53.04545012500025,"velocity":0.8031496062992126,"duration":0.13352271614583344},{"name":"F5","midi":77,"time":53.18181375000025,"velocity":0.8031496062992126,"duration":0.13352271614583344},{"name":"E5","midi":76,"time":53.31817737500025,"velocity":0.8031496062992126,"duration":0.13352271614583344},{"name":"F5","midi":77,"time":53.454541000000255,"velocity":0.8031496062992126,"duration":0.5426135911458374},{"name":"G#2","midi":44,"time":53.454541000000255,"velocity":0.8031496062992126,"duration":0.5426135911458374},{"name":"G#5","midi":80,"time":53.72726825000026,"velocity":0.8031496062992126,"duration":0.5426135911458374},{"name":"C#5","midi":73,"time":53.99999550000026,"velocity":0.8031496062992126,"duration":0.5426135911458374},{"name":"A#2","midi":46,"time":53.99999550000026,"velocity":0.8031496062992126,"duration":0.5426135911458374},{"name":"G5","midi":79,"time":54.27272275000026,"velocity":0.8031496062992126,"duration":0.5426135911458374},{"name":"A#4","midi":70,"time":54.545450000000265,"velocity":0.8031496062992126,"duration":0.81534084114584},{"name":"C3","midi":48,"time":54.545450000000265,"velocity":0.8031496062992126,"duration":0.5426135911458374},{"name":"G3","midi":55,"time":54.545450000000265,"velocity":0.8031496062992126,"duration":0.5426135911458374},{"name":"E5","midi":76,"time":54.81817725000027,"velocity":0.8031496062992126,"duration":0.26988634114583476},{"name":"F5","midi":77,"time":55.09090450000027,"velocity":0.8031496062992126,"duration":1.079545364583339},{"name":"F2","midi":41,"time":55.09090450000027,"velocity":0.8031496062992126,"duration":0.5426135911458374},{"name":"G#4","midi":68,"time":55.36363175000027,"velocity":0.8031496062992126,"duration":0.13352271614583344},{"name":"G4","midi":67,"time":55.499995375000275,"velocity":0.8031496062992126,"duration":0.13352271614583344},{"name":"G#4","midi":68,"time":55.636359000000276,"velocity":0.8031496062992126,"duration":0.13352271614583344},{"name":"F3","midi":53,"time":55.636359000000276,"velocity":0.8031496062992126,"duration":0.5426135911458303},{"name":"A#4","midi":70,"time":55.77272262500028,"velocity":0.8031496062992126,"duration":0.13352271614583344},{"name":"C5","midi":72,"time":55.90908625000028,"velocity":0.8031496062992126,"duration":0.26988634114582766},{"name":"F4","midi":65,"time":56.181813500000274,"velocity":0.8031496062992126,"duration":1.0511362760416745},{"name":"G#3","midi":56,"time":56.181813500000274,"velocity":0.8031496062992126,"duration":0.5426135911458374},{"name":"G#4","midi":68,"time":56.45454075000028,"velocity":0.8031496062992126,"duration":0.26988634114583476},{"name":"C5","midi":72,"time":56.72726800000028,"velocity":0.8031496062992126,"duration":0.26988634114583476},{"name":"F3","midi":53,"time":56.72726800000028,"velocity":0.8031496062992126,"duration":0.5426135911458374},{"name":"D#5","midi":75,"time":56.99999525000028,"velocity":0.8031496062992126,"duration":0.2272727083333308},{"name":"D5","midi":74,"time":57.272722500000285,"velocity":0.8031496062992126,"duration":0.13352271614583344},{"name":"A#3","midi":58,"time":57.272722500000285,"velocity":0.8031496062992126,"duration":0.5426135911458374},{"name":"D#5","midi":75,"time":57.409086125000286,"velocity":0.8031496062992126,"duration":0.13352271614583344},{"name":"F5","midi":77,"time":57.54544975000029,"velocity":0.8031496062992126,"duration":0.13352271614583344},{"name":"G5","midi":79,"time":57.68181337500029,"velocity":0.8031496062992126,"duration":0.13352271614583344},{"name":"G#5","midi":80,"time":57.81817700000029,"velocity":0.8031496062992126,"duration":0.81534084114584},{"name":"D3","midi":50,"time":57.81817700000029,"velocity":0.8031496062992126,"duration":0.5426135911458374},{"name":"F5","midi":77,"time":58.09090425000029,"velocity":0.8031496062992126,"duration":0.26988634114583476},{"name":"A#4","midi":70,"time":58.363631500000295,"velocity":0.8031496062992126,"duration":1.0511362760416745},{"name":"D#3","midi":51,"time":58.363631500000295,"velocity":0.8031496062992126,"duration":0.5426135911458374},{"name":"G5","midi":79,"time":58.6363587500003,"velocity":0.8031496062992126,"duration":0.13352271614583344},{"name":"F5","midi":77,"time":58.7727223750003,"velocity":0.8031496062992126,"duration":0.13352271614583344},{"name":"D#5","midi":75,"time":58.9090860000003,"velocity":0.8031496062992126,"duration":0.13352271614583344},{"name":"G3","midi":55,"time":58.9090860000003,"velocity":0.8031496062992126,"duration":0.5426135911458374},{"name":"F5","midi":77,"time":59.0454496250003,"velocity":0.8031496062992126,"duration":0.13352271614583344},{"name":"G5","midi":79,"time":59.1818132500003,"velocity":0.8031496062992126,"duration":0.2272727083333308},{"name":"C5","midi":72,"time":59.454540500000306,"velocity":0.8031496062992126,"duration":0.13352271614583344},{"name":"G#3","midi":56,"time":59.454540500000306,"velocity":0.8031496062992126,"duration":0.5426135911458374},{"name":"D5","midi":74,"time":59.59090412500031,"velocity":0.8031496062992126,"duration":0.13352271614583344},{"name":"D#5","midi":75,"time":59.72726775000031,"velocity":0.8031496062992126,"duration":0.13352271614583344},{"name":"F5","midi":77,"time":59.86363137500031,"velocity":0.8031496062992126,"duration":0.13352271614583344},{"name":"G5","midi":79,"time":59.99999500000031,"velocity":0.8031496062992126,"duration":0.81534084114584},{"name":"C3","midi":48,"time":59.99999500000031,"velocity":0.8031496062992126,"duration":0.5426135911458374},{"name":"D#5","midi":75,"time":60.272722250000314,"velocity":0.8031496062992126,"duration":0.26988634114583476},{"name":"G#4","midi":68,"time":60.545449500000316,"velocity":0.8031496062992126,"duration":1.0511362760416745},{"name":"D3","midi":50,"time":60.545449500000316,"velocity":0.8031496062992126,"duration":0.5426135911458374},{"name":"F5","midi":77,"time":60.81817675000032,"velocity":0.8031496062992126,"duration":0.13352271614583344},{"name":"D#5","midi":75,"time":60.95454037500032,"velocity":0.8031496062992126,"duration":0.13352271614583344},{"name":"D5","midi":74,"time":61.09090400000032,"velocity":0.8031496062992126,"duration":0.13352271614583344},{"name":"F3","midi":53,"time":61.09090400000032,"velocity":0.8031496062992126,"duration":0.5426135911458374},{"name":"D#5","midi":75,"time":61.22726762500032,"velocity":0.8031496062992126,"duration":0.13352271614583344},{"name":"F5","midi":77,"time":61.363631250000324,"velocity":0.8031496062992126,"duration":0.2272727083333308},{"name":"B4","midi":71,"time":61.63635850000033,"velocity":0.8031496062992126,"duration":0.13352271614583344},{"name":"G3","midi":55,"time":61.63635850000033,"velocity":0.8031496062992126,"duration":0.5426135911458374},{"name":"C5","midi":72,"time":61.77272212500033,"velocity":0.8031496062992126,"duration":0.13352271614583344},{"name":"D5","midi":74,"time":61.90908575000033,"velocity":0.8031496062992126,"duration":0.13352271614583344},{"name":"D#5","midi":75,"time":62.04544937500033,"velocity":0.8031496062992126,"duration":0.13352271614583344},{"name":"F5","midi":77,"time":62.18181300000033,"velocity":0.8031496062992126,"duration":0.81534084114584},{"name":"B2","midi":47,"time":62.18181300000033,"velocity":0.8031496062992126,"duration":0.5426135911458374},{"name":"D5","midi":74,"time":62.454540250000335,"velocity":0.8031496062992126,"duration":0.26988634114583476},{"name":"G4","midi":67,"time":62.72726750000034,"velocity":0.8031496062992126,"duration":1.0880680911458427},{"name":"C3","midi":48,"time":62.72726750000034,"velocity":0.8031496062992126,"duration":0.5426135911458374},{"name":"D#5","midi":75,"time":62.99999475000034,"velocity":0.8031496062992126,"duration":0.13352271614583344},{"name":"D5","midi":74,"time":63.13635837500034,"velocity":0.8031496062992126,"duration":0.13352271614583344},{"name":"C5","midi":72,"time":63.27272200000034,"velocity":0.8031496062992126,"duration":0.13352271614583344},{"name":"D#3","midi":51,"time":63.27272200000034,"velocity":0.8031496062992126,"duration":0.5426135911458374},{"name":"D5","midi":74,"time":63.409085625000344,"velocity":0.8031496062992126,"duration":0.13352271614583344},{"name":"D#5","midi":75,"time":63.545449250000345,"velocity":0.8031496062992126,"duration":0.5085226848958371},{"name":"G#4","midi":68,"time":63.81817650000035,"velocity":0.8031496062992126,"duration":1.0880680911458427},{"name":"F3","midi":53,"time":63.81817650000035,"velocity":0.8031496062992126,"duration":0.26988634114583476},{"name":"D5","midi":74,"time":64.09090375000035,"velocity":0.8031496062992126,"duration":0.13352271614583344},{"name":"G#3","midi":56,"time":64.09090375000035,"velocity":0.8031496062992126,"duration":0.13352271614583344},{"name":"C5","midi":72,"time":64.22726737500035,"velocity":0.8031496062992126,"duration":0.13352271614583344},{"name":"G3","midi":55,"time":64.22726737500035,"velocity":0.8031496062992126,"duration":0.13352271614583344},{"name":"B4","midi":71,"time":64.36363100000035,"velocity":0.8031496062992126,"duration":0.13352271614583344},{"name":"F3","midi":53,"time":64.36363100000035,"velocity":0.8031496062992126,"duration":0.26988634114583476},{"name":"C5","midi":72,"time":64.49999462500035,"velocity":0.8031496062992126,"duration":0.13352271614583344},{"name":"D5","midi":74,"time":64.63635825000036,"velocity":0.8031496062992126,"duration":0.26988634114583476},{"name":"D#3","midi":51,"time":64.63635825000036,"velocity":0.8031496062992126,"duration":0.26988634114583476},{"name":"G#4","midi":68,"time":64.90908550000036,"velocity":0.8031496062992126,"duration":0.13636362500000132},{"name":"F4","midi":65,"time":64.90908550000036,"velocity":0.8031496062992126,"duration":1.6335225911458338},{"name":"D3","midi":50,"time":64.90908550000036,"velocity":0.8031496062992126,"duration":0.26988634114583476},{"name":"G4","midi":67,"time":65.04544912500036,"velocity":0.8031496062992126,"duration":0.13636362500000132},{"name":"G#4","midi":68,"time":65.18181275000036,"velocity":0.8031496062992126,"duration":0.7954544791666649},{"name":"F3","midi":53,"time":65.18181275000036,"velocity":0.8031496062992126,"duration":0.13352271614583344},{"name":"D#3","midi":51,"time":65.31817637500036,"velocity":0.8031496062992126,"duration":0.13352271614583344},{"name":"D3","midi":50,"time":65.45454000000036,"velocity":0.8031496062992126,"duration":0.26988634114583476},{"name":"C3","midi":48,"time":65.72726725000037,"velocity":0.8031496062992126,"duration":0.26988634114582055},{"name":"B2","midi":47,"time":65.99999450000035,"velocity":0.8031496062992126,"duration":0.5426135911458374},{"name":"B4","midi":71,"time":66.27272175000036,"velocity":0.8031496062992126,"duration":0.13352271614583344},{"name":"C5","midi":72,"time":66.40908537500036,"velocity":0.8031496062992126,"duration":0.13352271614583344},{"name":"D5","midi":74,"time":66.54544900000036,"velocity":0.8031496062992126,"duration":0.81534084114584},{"name":"G2","midi":43,"time":66.54544900000036,"velocity":0.8031496062992126,"duration":0.5426135911458374},{"name":"F4","midi":65,"time":66.81817625000036,"velocity":0.8031496062992126,"duration":0.26988634114583476},{"name":"D#4","midi":63,"time":67.09090350000037,"velocity":0.8031496062992126,"duration":1.079545364583339},{"name":"C3","midi":48,"time":67.09090350000037,"velocity":0.8031496062992126,"duration":0.26988634114583476},{"name":"G4","midi":67,"time":67.36363075000037,"velocity":0.8031496062992126,"duration":0.26988634114583476},{"name":"D3","midi":50,"time":67.36363075000037,"velocity":0.8031496062992126,"duration":0.26988634114583476},{"name":"C5","midi":72,"time":67.63635800000037,"velocity":0.8031496062992126,"duration":0.6818181250000066},{"name":"D#3","midi":51,"time":67.63635800000037,"velocity":0.8031496062992126,"duration":0.26988634114583476},{"name":"A4","midi":69,"time":67.90908525000037,"velocity":0.8031496062992126,"duration":0.26988634114583476},{"name":"C3","midi":48,"time":67.90908525000037,"velocity":0.8031496062992126,"duration":0.26988634114583476},{"name":"F#4","midi":66,"time":68.18181250000038,"velocity":0.8031496062992126,"duration":0.39772723958333245},{"name":"D3","midi":50,"time":68.18181250000038,"velocity":0.8031496062992126,"duration":0.5426135911458374},{"name":"A4","midi":69,"time":68.45453975000038,"velocity":0.8031496062992126,"duration":0.13352271614583344},{"name":"A#4","midi":70,"time":68.59090337500038,"velocity":0.8031496062992126,"duration":0.13352271614583344},{"name":"C5","midi":72,"time":68.72726700000038,"velocity":0.8031496062992126,"duration":0.26988634114583476},{"name":"A2","midi":45,"time":68.72726700000038,"velocity":0.8031496062992126,"duration":0.5426135911458374},{"name":"F#4","midi":66,"time":68.99999425000038,"velocity":0.8031496062992126,"duration":0.26988634114583476},{"name":"G4","midi":67,"time":69.27272150000039,"velocity":0.8031496062992126,"duration":0.5426135911458374},{"name":"A#2","midi":46,"time":69.27272150000039,"velocity":0.8031496062992126,"duration":0.26988634114583476},{"name":"D4","midi":62,"time":69.54544875000039,"velocity":0.8031496062992126,"duration":0.5426135911458374},{"name":"D3","midi":50,"time":69.54544875000039,"velocity":0.8031496062992126,"duration":0.26988634114583476},{"name":"A#4","midi":70,"time":69.81817600000039,"velocity":0.8031496062992126,"duration":0.6818181250000066},{"name":"G3","midi":55,"time":69.81817600000039,"velocity":0.8031496062992126,"duration":0.26988634114583476},{"name":"C#4","midi":61,"time":70.0909032500004,"velocity":0.8031496062992126,"duration":0.26988634114583476},{"name":"F3","midi":53,"time":70.0909032500004,"velocity":0.8031496062992126,"duration":0.26988634114583476},{"name":"C4","midi":60,"time":70.3636305000004,"velocity":0.8031496062992126,"duration":1.079545364583339},{"name":"E3","midi":52,"time":70.3636305000004,"velocity":0.8031496062992126,"duration":0.5426135911458374},{"name":"G4","midi":67,"time":70.6363577500004,"velocity":0.8031496062992126,"duration":0.13352271614583344},{"name":"G#4","midi":68,"time":70.7727213750004,"velocity":0.8031496062992126,"duration":0.13352271614583344},{"name":"A#4","midi":70,"time":70.9090850000004,"velocity":0.8031496062992126,"duration":0.26988634114583476},{"name":"G2","midi":43,"time":70.9090850000004,"velocity":0.8031496062992126,"duration":0.5426135911458374},{"name":"E4","midi":64,"time":71.1818122500004,"velocity":0.8031496062992126,"duration":0.26988634114583476},{"name":"F4","midi":65,"time":71.45453950000041,"velocity":0.8031496062992126,"duration":0.5426135911458374},{"name":"G#2","midi":44,"time":71.45453950000041,"velocity":0.8031496062992126,"duration":0.26988634114583476},{"name":"C4","midi":60,"time":71.72726675000041,"velocity":0.8031496062992126,"duration":0.5426135911458374},{"name":"C3","midi":48,"time":71.72726675000041,"velocity":0.8031496062992126,"duration":0.26988634114583476},{"name":"F3","midi":53,"time":71.99999400000041,"velocity":0.8031496062992126,"duration":0.2755681588541705},{"name":"G#4","midi":68,"time":71.99999400000041,"velocity":0.8031496062992126,"duration":0.5568181354166768},{"name":"D#3","midi":51,"time":72.27840306770875,"velocity":0.8031496062992126,"duration":0.2755681588541705},{"name":"C4","midi":60,"time":72.27840306770875,"velocity":0.8031496062992126,"duration":0.2755681588541705},{"name":"D3","midi":50,"time":72.55965304427126,"velocity":0.8031496062992126,"duration":0.5568181354166768},{"name":"B3","midi":59,"time":72.55965304427126,"velocity":0.8031496062992126,"duration":0.13636362500000132},{"name":"C4","midi":60,"time":72.7016984869796,"velocity":0.8031496062992126,"duration":0.13636362500000132},{"name":"D4","midi":62,"time":72.84090302083376,"velocity":0.8031496062992126,"duration":0.13636362500000132},{"name":"D#4","midi":63,"time":72.9829484635421,"velocity":0.8031496062992126,"duration":0.13636362500000132},{"name":"C3","midi":48,"time":73.12215299739627,"velocity":0.8031496062992126,"duration":0.5539772265625089},{"name":"F4","midi":65,"time":73.12215299739627,"velocity":0.8031496062992126,"duration":0.8380681119791831},{"name":"G#3","midi":56,"time":73.40340297395878,"velocity":0.8031496062992126,"duration":0.2755681588541705},{"name":"B2","midi":47,"time":73.68465295052128,"velocity":0.8031496062992126,"duration":0.5568181354166768},{"name":"G3","midi":55,"time":73.68465295052128,"velocity":0.8031496062992126,"duration":1.1107953619791857},{"name":"B4","midi":71,"time":73.96590292708379,"velocity":0.8031496062992126,"duration":0.13636362500000132},{"name":"C5","midi":72,"time":74.10510746093796,"velocity":0.8031496062992126,"duration":0.13636362500000132},{"name":"D5","midi":74,"time":74.2471529036463,"velocity":0.8031496062992126,"duration":0.1392045338541692},{"name":"G2","midi":43,"time":74.2471529036463,"velocity":0.8031496062992126,"duration":0.571022679687502},{"name":"D#5","midi":75,"time":74.38919834635463,"velocity":0.8031496062992126,"duration":0.1392045338541692},{"name":"F5","midi":77,"time":74.53124378906297,"velocity":0.8031496062992126,"duration":0.4289772369791649},{"name":"D#5","midi":75,"time":74.82101649218797,"velocity":0.8031496062992126,"duration":0.8607953828125261},{"name":"C3","midi":48,"time":74.82101649218797,"velocity":0.8031496062992126,"duration":0.2812499765625063},{"name":"G#5","midi":80,"time":74.96874375260464,"velocity":0.8031496062992126,"duration":0.1392045338541692},{"name":"G5","midi":79,"time":75.11078919531298,"velocity":0.8031496062992126,"duration":0.1392045338541692},{"name":"D3","midi":50,"time":75.11078919531298,"velocity":0.8031496062992126,"duration":0.2812499765625063},{"name":"F5","midi":77,"time":75.25851645572965,"velocity":0.8031496062992126,"duration":0.1392045338541692},{"name":"D#3","midi":51,"time":75.40056189843799,"velocity":0.8031496062992126,"duration":0.28693179427084203},{"name":"G5","midi":79,"time":75.40056189843799,"velocity":0.8031496062992126,"duration":0.5880681328125092},{"name":"F3","midi":53,"time":75.69601641927133,"velocity":0.8031496062992126,"duration":0.2869317942708278},{"name":"D5","midi":74,"time":75.69601641927133,"velocity":0.8031496062992126,"duration":0.588068132812495},{"name":"G3","midi":55,"time":75.99431184895883,"velocity":0.8031496062992126,"duration":0.588068132812495},{"name":"D#5","midi":75,"time":75.99431184895883,"velocity":0.8031496062992126,"duration":0.8863635624999944},{"name":"C5","midi":72,"time":76.2954481875005,"velocity":0.8031496062992126,"duration":0.2869317942708278},{"name":"G2","midi":43,"time":76.593743617188,"velocity":0.8031496062992126,"duration":0.6221590390624954},{"name":"F4","midi":65,"time":76.593743617188,"velocity":0.8031496062992126,"duration":0.937499921875002},{"name":"B4","midi":71,"time":76.90340268229215,"velocity":0.8031496062992126,"duration":0.3039772473958351},{"name":"C2","midi":36,"time":77.21874356510466,"velocity":0.8031496062992126,"duration":1.8863634791667039},{"name":"C5","midi":72,"time":77.21874356510466,"velocity":0.8031496062992126,"duration":2.965908843750043},{"name":"G4","midi":67,"time":77.53408444791717,"velocity":0.8031496062992126,"duration":0.14772726041667283},{"name":"F4","midi":65,"time":77.69885716145883,"velocity":0.8031496062992126,"duration":0.14772726041667283},{"name":"E4","midi":64,"time":77.85226623958384,"velocity":0.8031496062992126,"duration":0.14772726041667283},{"name":"F4","midi":65,"time":78.01135713541719,"velocity":0.8031496062992126,"duration":0.14772726041667283},{"name":"G4","midi":67,"time":78.17044803125053,"velocity":0.8031496062992126,"duration":1.198863536458333},{"name":"C3","midi":48,"time":78.48578891406304,"velocity":0.8031496062992126,"duration":1.690340768229163},{"name":"G4","midi":67,"time":82.90908400000053,"velocity":0.8031496062992126,"duration":0.26988634114583476},{"name":"G#4","midi":68,"time":83.18181125000054,"velocity":0.8031496062992126,"duration":0.26988634114583476},{"name":"F4","midi":65,"time":83.45453850000054,"velocity":0.8031496062992126,"duration":0.26988634114583476},{"name":"G4","midi":67,"time":83.72726575000054,"velocity":0.8031496062992126,"duration":0.26988634114583476},{"name":"C3","midi":48,"time":83.72726575000054,"velocity":0.8031496062992126,"duration":0.5426135911458374},{"name":"C5","midi":72,"time":83.99999300000054,"velocity":0.8031496062992126,"duration":0.26988634114583476},{"name":"G4","midi":67,"time":84.27272025000055,"velocity":0.8031496062992126,"duration":0.26988634114583476},{"name":"D#3","midi":51,"time":84.27272025000055,"velocity":0.8031496062992126,"duration":0.5426135911458374},{"name":"F4","midi":65,"time":84.54544750000055,"velocity":0.8031496062992126,"duration":0.26988634114583476},{"name":"D#4","midi":63,"time":84.81817475000055,"velocity":0.8031496062992126,"duration":0.26988634114583476},{"name":"G3","midi":55,"time":84.81817475000055,"velocity":0.8031496062992126,"duration":0.5426135911458374},{"name":"D4","midi":62,"time":85.09090200000055,"velocity":0.8031496062992126,"duration":0.26988634114583476},{"name":"D#4","midi":63,"time":85.36362925000056,"velocity":0.8031496062992126,"duration":0.26988634114583476},{"name":"C4","midi":60,"time":85.36362925000056,"velocity":0.8031496062992126,"duration":0.5426135911458374},{"name":"D4","midi":62,"time":85.63635650000056,"velocity":0.8031496062992126,"duration":0.26988634114583476},{"name":"C4","midi":60,"time":85.90908375000056,"velocity":0.8031496062992126,"duration":0.26988634114583476},{"name":"C3","midi":48,"time":85.90908375000056,"velocity":0.8031496062992126,"duration":0.5426135911458374},{"name":"D#4","midi":63,"time":86.18181100000056,"velocity":0.8031496062992126,"duration":0.26988634114583476},{"name":"G4","midi":67,"time":86.45453825000057,"velocity":0.8031496062992126,"duration":0.26988634114583476},{"name":"C4","midi":60,"time":86.45453825000057,"velocity":0.8031496062992126,"duration":0.5426135911458374},{"name":"C5","midi":72,"time":86.72726550000057,"velocity":0.8031496062992126,"duration":0.26988634114583476},{"name":"G4","midi":67,"time":86.99999275000057,"velocity":0.8031496062992126,"duration":0.26988634114583476},{"name":"A#3","midi":58,"time":86.99999275000057,"velocity":0.8031496062992126,"duration":0.5426135911458374},{"name":"D5","midi":74,"time":87.27272000000058,"velocity":0.8031496062992126,"duration":0.26988634114583476},{"name":"D#5","midi":75,"time":87.54544725000058,"velocity":0.8031496062992126,"duration":0.26988634114583476},{"name":"A#3","midi":58,"time":87.54544725000058,"velocity":0.8031496062992126,"duration":0.13352271614583344},{"name":"G#3","midi":56,"time":87.68181087500058,"velocity":0.8031496062992126,"duration":0.13352271614583344},{"name":"C5","midi":72,"time":87.81817450000058,"velocity":0.8031496062992126,"duration":0.26988634114583476},{"name":"A#3","midi":58,"time":87.81817450000058,"velocity":0.8031496062992126,"duration":0.13352271614583344},{"name":"G#3","midi":56,"time":87.95453812500058,"velocity":0.8031496062992126,"duration":0.13352271614583344},{"name":"F5","midi":77,"time":88.09090175000058,"velocity":0.8031496062992126,"duration":0.26988634114583476},{"name":"A#3","midi":58,"time":88.09090175000058,"velocity":0.8031496062992126,"duration":0.13352271614583344},{"name":"G#3","midi":56,"time":88.22726537500058,"velocity":0.8031496062992126,"duration":0.13352271614583344},{"name":"C5","midi":72,"time":88.36362900000059,"velocity":0.8031496062992126,"duration":0.26988634114583476},{"name":"A#3","midi":58,"time":88.36362900000059,"velocity":0.8031496062992126,"duration":0.13352271614583344},{"name":"G#3","midi":56,"time":88.49999262500059,"velocity":0.8031496062992126,"duration":0.13352271614583344},{"name":"B4","midi":71,"time":88.63635625000059,"velocity":0.8031496062992126,"duration":0.26988634114583476},{"name":"G3","midi":55,"time":88.63635625000059,"velocity":0.8031496062992126,"duration":0.81534084114584},{"name":"D5","midi":74,"time":88.90908350000059,"velocity":0.8031496062992126,"duration":0.26988634114583476},{"name":"G4","midi":67,"time":89.1818107500006,"velocity":0.8031496062992126,"duration":1.079545364583339},{"name":"F4","midi":65,"time":89.4545380000006,"velocity":0.8031496062992126,"duration":0.26988634114583476},{"name":"D#4","midi":63,"time":89.7272652500006,"velocity":0.8031496062992126,"duration":0.26988634114583476},{"name":"D4","midi":62,"time":89.9999925000006,"velocity":0.8031496062992126,"duration":0.26988634114583476},{"name":"D#4","midi":63,"time":90.2727197500006,"velocity":0.8031496062992126,"duration":0.5426135911458374},{"name":"G5","midi":79,"time":90.5454470000006,"velocity":0.8031496062992126,"duration":0.26988634114583476},{"name":"D#5","midi":75,"time":90.81817425000061,"velocity":0.8031496062992126,"duration":0.26988634114583476},{"name":"C4","midi":60,"time":90.81817425000061,"velocity":0.8031496062992126,"duration":0.5426135911458374},{"name":"C5","midi":72,"time":91.09090150000061,"velocity":0.8031496062992126,"duration":0.26988634114583476},{"name":"G5","midi":79,"time":91.36362875000061,"velocity":0.8031496062992126,"duration":0.26988634114583476},{"name":"D#4","midi":63,"time":91.36362875000061,"velocity":0.8031496062992126,"duration":0.5426135911458374},{"name":"A#4","midi":70,"time":91.63635600000062,"velocity":0.8031496062992126,"duration":0.26988634114583476},{"name":"G#4","midi":68,"time":91.90908325000062,"velocity":0.8031496062992126,"duration":0.26988634114583476},{"name":"F3","midi":53,"time":91.90908325000062,"velocity":0.8031496062992126,"duration":0.81534084114584},{"name":"C5","midi":72,"time":92.18181050000062,"velocity":0.8031496062992126,"duration":0.26988634114583476},{"name":"F4","midi":65,"time":92.45453775000063,"velocity":0.8031496062992126,"duration":1.079545364583339},{"name":"D#4","midi":63,"time":92.72726500000063,"velocity":0.8031496062992126,"duration":0.26988634114583476},{"name":"D4","midi":62,"time":92.99999225000063,"velocity":0.8031496062992126,"duration":0.26988634114583476},{"name":"C4","midi":60,"time":93.27271950000063,"velocity":0.8031496062992126,"duration":0.26988634114583476},{"name":"D4","midi":62,"time":93.54544675000064,"velocity":0.8031496062992126,"duration":0.5426135911458374},{"name":"F5","midi":77,"time":93.81817400000064,"velocity":0.8031496062992126,"duration":0.26988634114583476},{"name":"D5","midi":74,"time":94.09090125000064,"velocity":0.8031496062992126,"duration":0.26988634114583476},{"name":"A#3","midi":58,"time":94.09090125000064,"velocity":0.8031496062992126,"duration":0.5426135911458374},{"name":"A#4","midi":70,"time":94.36362850000064,"velocity":0.8031496062992126,"duration":0.26988634114583476},{"name":"F5","midi":77,"time":94.63635575000065,"velocity":0.8031496062992126,"duration":0.26988634114583476},{"name":"D4","midi":62,"time":94.63635575000065,"velocity":0.8031496062992126,"duration":0.5426135911458374},{"name":"G#4","midi":68,"time":94.90908300000065,"velocity":0.8031496062992126,"duration":0.26988634114583476},{"name":"G4","midi":67,"time":95.18181025000065,"velocity":0.8031496062992126,"duration":0.26988634114583476},{"name":"D#3","midi":51,"time":95.18181025000065,"velocity":0.8031496062992126,"duration":0.81534084114584},{"name":"A#4","midi":70,"time":95.45453750000065,"velocity":0.8031496062992126,"duration":0.26988634114583476},{"name":"D#4","midi":63,"time":95.72726475000066,"velocity":0.8031496062992126,"duration":0.7954544791666649},{"name":"G3","midi":55,"time":95.99999200000066,"velocity":0.8031496062992126,"duration":0.26988634114583476},{"name":"F3","midi":53,"time":96.27271925000066,"velocity":0.8031496062992126,"duration":0.26988634114582055},{"name":"G#3","midi":56,"time":96.54544650000065,"velocity":0.8031496062992126,"duration":0.26988634114583476},{"name":"G3","midi":55,"time":96.81817375000065,"velocity":0.8031496062992126,"duration":0.5426135911458374},{"name":"A#4","midi":70,"time":97.09090100000066,"velocity":0.8031496062992126,"duration":0.26988634114583476},{"name":"G4","midi":67,"time":97.36362825000066,"velocity":0.8031496062992126,"duration":0.26988634114583476},{"name":"D#3","midi":51,"time":97.36362825000066,"velocity":0.8031496062992126,"duration":0.5426135911458374},{"name":"D#4","midi":63,"time":97.63635550000066,"velocity":0.8031496062992126,"duration":0.26988634114583476},{"name":"A#4","midi":70,"time":97.90908275000066,"velocity":0.8031496062992126,"duration":0.7954544791666649},{"name":"G3","midi":55,"time":97.90908275000066,"velocity":0.8031496062992126,"duration":0.5426135911458374},{"name":"C#4","midi":61,"time":98.18181000000067,"velocity":0.8031496062992126,"duration":0.26988634114583476},{"name":"C4","midi":60,"time":98.45453725000067,"velocity":0.8031496062992126,"duration":0.26988634114582055},{"name":"G#3","midi":56,"time":98.45453725000067,"velocity":0.8031496062992126,"duration":0.5426135911458232},{"name":"C5","midi":72,"time":98.72726450000066,"velocity":0.8031496062992126,"duration":0.26988634114583476},{"name":"G#4","midi":68,"time":98.99999175000066,"velocity":0.8031496062992126,"duration":0.26988634114583476},{"name":"F3","midi":53,"time":98.99999175000066,"velocity":0.8031496062992126,"duration":0.5426135911458374},{"name":"F4","midi":65,"time":99.27271900000066,"velocity":0.8031496062992126,"duration":0.26988634114583476},{"name":"C5","midi":72,"time":99.54544625000067,"velocity":0.8031496062992126,"duration":0.7954544791666649},{"name":"G#3","midi":56,"time":99.54544625000067,"velocity":0.8031496062992126,"duration":0.5426135911458374},{"name":"D#4","midi":63,"time":99.81817350000067,"velocity":0.8031496062992126,"duration":0.26988634114583476},{"name":"D4","midi":62,"time":100.09090075000067,"velocity":0.8031496062992126,"duration":0.26988634114582055},{"name":"A#3","midi":58,"time":100.09090075000067,"velocity":0.8031496062992126,"duration":0.5426135911458232},{"name":"D5","midi":74,"time":100.36362800000066,"velocity":0.8031496062992126,"duration":0.26988634114583476},{"name":"A#4","midi":70,"time":100.63635525000066,"velocity":0.8031496062992126,"duration":0.26988634114583476},{"name":"G3","midi":55,"time":100.63635525000066,"velocity":0.8031496062992126,"duration":0.5426135911458374},{"name":"G4","midi":67,"time":100.90908250000066,"velocity":0.8031496062992126,"duration":0.26988634114583476},{"name":"D5","midi":74,"time":101.18180975000067,"velocity":0.8031496062992126,"duration":0.7954544791666649},{"name":"A#3","midi":58,"time":101.18180975000067,"velocity":0.8031496062992126,"duration":0.5426135911458374},{"name":"F4","midi":65,"time":101.45453700000067,"velocity":0.8031496062992126,"duration":0.26988634114583476},{"name":"D#4","midi":63,"time":101.72726425000067,"velocity":0.8031496062992126,"duration":0.26988634114582055},{"name":"C4","midi":60,"time":101.72726425000067,"velocity":0.8031496062992126,"duration":0.5426135911458232},{"name":"D#5","midi":75,"time":101.99999150000066,"velocity":0.8031496062992126,"duration":0.26988634114583476},{"name":"C5","midi":72,"time":102.27271875000066,"velocity":0.8031496062992126,"duration":0.26988634114583476},{"name":"G#3","midi":56,"time":102.27271875000066,"velocity":0.8031496062992126,"duration":0.5426135911458374},{"name":"G#4","midi":68,"time":102.54544600000067,"velocity":0.8031496062992126,"duration":0.26988634114583476},{"name":"D#5","midi":75,"time":102.81817325000067,"velocity":0.8031496062992126,"duration":0.5397726822916695},{"name":"C4","midi":60,"time":102.81817325000067,"velocity":0.8031496062992126,"duration":0.5426135911458374},{"name":"G4","midi":67,"time":103.09090050000067,"velocity":0.8031496062992126,"duration":0.26988634114583476},{"name":"F4","midi":65,"time":103.36362775000067,"velocity":0.8031496062992126,"duration":0.26988634114583476},{"name":"D4","midi":62,"time":103.36362775000067,"velocity":0.8031496062992126,"duration":0.5426135911458374},{"name":"F5","midi":77,"time":103.63635500000068,"velocity":0.8031496062992126,"duration":0.26988634114583476},{"name":"D5","midi":74,"time":103.90908225000068,"velocity":0.8031496062992126,"duration":0.26988634114583476},{"name":"A#3","midi":58,"time":103.90908225000068,"velocity":0.8031496062992126,"duration":0.5426135911458374},{"name":"A#4","midi":70,"time":104.18180950000068,"velocity":0.8031496062992126,"duration":0.26988634114583476},{"name":"F5","midi":77,"time":104.45453675000068,"velocity":0.8031496062992126,"duration":0.5397726822916695},{"name":"D4","midi":62,"time":104.45453675000068,"velocity":0.8031496062992126,"duration":0.5426135911458374},{"name":"G#4","midi":68,"time":104.72726400000069,"velocity":0.8031496062992126,"duration":0.26988634114583476},{"name":"G4","midi":67,"time":104.99999125000069,"velocity":0.8031496062992126,"duration":0.26988634114583476},{"name":"D#4","midi":63,"time":104.99999125000069,"velocity":0.8031496062992126,"duration":0.5426135911458374},{"name":"A#4","midi":70,"time":105.27271850000069,"velocity":0.8031496062992126,"duration":0.26988634114583476},{"name":"C5","midi":72,"time":105.5454457500007,"velocity":0.8031496062992126,"duration":0.26988634114583476},{"name":"D#3","midi":51,"time":105.5454457500007,"velocity":0.8031496062992126,"duration":0.26988634114583476},{"name":"G#4","midi":68,"time":105.8181730000007,"velocity":0.8031496062992126,"duration":0.26988634114583476},{"name":"F3","midi":53,"time":105.8181730000007,"velocity":0.8031496062992126,"duration":0.26988634114583476},{"name":"A#4","midi":70,"time":106.0909002500007,"velocity":0.8031496062992126,"duration":0.26988634114583476},{"name":"G3","midi":55,"time":106.0909002500007,"velocity":0.8031496062992126,"duration":0.5426135911458374},{"name":"D#5","midi":75,"time":106.3636275000007,"velocity":0.8031496062992126,"duration":0.26988634114583476},{"name":"D5","midi":74,"time":106.6363547500007,"velocity":0.8031496062992126,"duration":0.26988634114583476},{"name":"G#3","midi":56,"time":106.6363547500007,"velocity":0.8031496062992126,"duration":0.5426135911458374},{"name":"D#5","midi":75,"time":106.90908200000071,"velocity":0.8031496062992126,"duration":0.26988634114583476},{"name":"F4","midi":65,"time":107.18180925000071,"velocity":0.8031496062992126,"duration":0.26988634114583476},{"name":"A#3","midi":58,"time":107.18180925000071,"velocity":0.8031496062992126,"duration":0.5426135911458374},{"name":"C5","midi":72,"time":107.45453650000071,"velocity":0.8031496062992126,"duration":0.26988634114583476},{"name":"A#4","midi":70,"time":107.72726375000072,"velocity":0.8031496062992126,"duration":0.26988634114583476},{"name":"A#2","midi":46,"time":107.72726375000072,"velocity":0.8031496062992126,"duration":0.5426135911458374},{"name":"G#4","midi":68,"time":107.99999100000072,"velocity":0.8031496062992126,"duration":0.26988634114583476},{"name":"G4","midi":67,"time":108.27271825000072,"velocity":0.8031496062992126,"duration":0.26988634114583476},{"name":"D#3","midi":51,"time":108.27271825000072,"velocity":0.8031496062992126,"duration":0.6818181250000066},{"name":"F4","midi":65,"time":108.54544550000072,"velocity":0.8031496062992126,"duration":0.26988634114583476},{"name":"D#4","midi":63,"time":108.81817275000073,"velocity":0.8031496062992126,"duration":0.26988634114583476},{"name":"D#5","midi":75,"time":109.09090000000073,"velocity":0.8031496062992126,"duration":0.26988634114583476},{"name":"G3","midi":55,"time":109.09090000000073,"velocity":0.8031496062992126,"duration":0.26988634114583476},{"name":"D5","midi":74,"time":109.36362725000073,"velocity":0.8031496062992126,"duration":0.26988634114583476},{"name":"F3","midi":53,"time":109.36362725000073,"velocity":0.8031496062992126,"duration":0.26988634114583476},{"name":"C5","midi":72,"time":109.63635450000073,"velocity":0.8031496062992126,"duration":0.26988634114583476},{"name":"D#3","midi":51,"time":109.63635450000073,"velocity":0.8031496062992126,"duration":0.26988634114583476},{"name":"B4","midi":71,"time":109.90908175000074,"velocity":0.8031496062992126,"duration":0.3409090625000033},{"name":"D3","midi":50,"time":109.90908175000074,"velocity":0.8031496062992126,"duration":0.5426135911458374},{"name":"G#5","midi":80,"time":110.18180900000074,"velocity":0.8031496062992126,"duration":0.26988634114583476},{"name":"F5","midi":77,"time":110.45453625000074,"velocity":0.8031496062992126,"duration":0.26988634114583476},{"name":"C3","midi":48,"time":110.45453625000074,"velocity":0.8031496062992126,"duration":0.5426135911458374},{"name":"D5","midi":74,"time":110.72726350000075,"velocity":0.8031496062992126,"duration":0.26988634114583476},{"name":"G5","midi":79,"time":110.99999075000075,"velocity":0.8031496062992126,"duration":0.26988634114583476},{"name":"B2","midi":47,"time":110.99999075000075,"velocity":0.8031496062992126,"duration":0.5426135911458374},{"name":"D5","midi":74,"time":111.27271800000075,"velocity":0.8031496062992126,"duration":0.26988634114583476},{"name":"D#5","midi":75,"time":111.54544525000075,"velocity":0.8031496062992126,"duration":0.26988634114583476},{"name":"C3","midi":48,"time":111.54544525000075,"velocity":0.8031496062992126,"duration":0.5397726822916695},{"name":"D5","midi":74,"time":111.81817250000076,"velocity":0.8031496062992126,"duration":0.26988634114583476},{"name":"C5","midi":72,"time":112.09089975000076,"velocity":0.8031496062992126,"duration":0.26988634114583476},{"name":"A#4","midi":70,"time":112.36362700000076,"velocity":0.8031496062992126,"duration":0.26988634114583476},{"name":"D4","midi":62,"time":112.36362700000076,"velocity":0.8031496062992126,"duration":0.26988634114583476},{"name":"A4","midi":69,"time":112.63635425000076,"velocity":0.8031496062992126,"duration":0.26988634114583476},{"name":"C4","midi":60,"time":112.63635425000076,"velocity":0.8031496062992126,"duration":0.26988634114583476},{"name":"G4","midi":67,"time":112.90908150000077,"velocity":0.8031496062992126,"duration":0.26988634114583476},{"name":"A#3","midi":58,"time":112.90908150000077,"velocity":0.8031496062992126,"duration":0.26988634114583476},{"name":"F#4","midi":66,"time":113.18180875000077,"velocity":0.8031496062992126,"duration":0.3409090625000033},{"name":"A3","midi":57,"time":113.18180875000077,"velocity":0.8031496062992126,"duration":0.5426135911458374},{"name":"D#5","midi":75,"time":113.45453600000077,"velocity":0.8031496062992126,"duration":0.26988634114583476},{"name":"C5","midi":72,"time":113.72726325000077,"velocity":0.8031496062992126,"duration":0.26988634114583476},{"name":"G3","midi":55,"time":113.72726325000077,"velocity":0.8031496062992126,"duration":0.5426135911458374},{"name":"A4","midi":69,"time":113.99999050000078,"velocity":0.8031496062992126,"duration":0.26988634114583476},{"name":"D5","midi":74,"time":114.27271775000078,"velocity":0.8031496062992126,"duration":0.26988634114583476},{"name":"F#3","midi":54,"time":114.27271775000078,"velocity":0.8031496062992126,"duration":0.5426135911458374},{"name":"A4","midi":69,"time":114.54544500000078,"velocity":0.8031496062992126,"duration":0.26988634114583476},{"name":"A#4","midi":70,"time":114.81817225000079,"velocity":0.8031496062992126,"duration":0.26988634114583476},{"name":"G3","midi":55,"time":114.81817225000079,"velocity":0.8031496062992126,"duration":0.5397726822916695},{"name":"A4","midi":69,"time":115.09089950000079,"velocity":0.8031496062992126,"duration":0.26988634114583476},{"name":"G4","midi":67,"time":115.36362675000079,"velocity":0.8031496062992126,"duration":0.26988634114583476},{"name":"F4","midi":65,"time":115.6363540000008,"velocity":0.8031496062992126,"duration":0.26988634114583476},{"name":"G3","midi":55,"time":115.6363540000008,"velocity":0.8031496062992126,"duration":0.26988634114583476},{"name":"E4","midi":64,"time":115.9090812500008,"velocity":0.8031496062992126,"duration":0.26988634114583476},{"name":"A3","midi":57,"time":115.9090812500008,"velocity":0.8031496062992126,"duration":0.26988634114583476},{"name":"D4","midi":62,"time":116.1818085000008,"velocity":0.8031496062992126,"duration":0.26988634114583476},{"name":"A#3","midi":58,"time":116.1818085000008,"velocity":0.8031496062992126,"duration":0.26988634114583476},{"name":"C#4","midi":61,"time":116.4545357500008,"velocity":0.8031496062992126,"duration":0.3409090625000033},{"name":"E3","midi":52,"time":116.4545357500008,"velocity":0.8031496062992126,"duration":0.5426135911458374},{"name":"A#4","midi":70,"time":116.7272630000008,"velocity":0.8031496062992126,"duration":0.26988634114583476},{"name":"G4","midi":67,"time":116.9999902500008,"velocity":0.8031496062992126,"duration":0.26988634114583476},{"name":"D3","midi":50,"time":116.9999902500008,"velocity":0.8031496062992126,"duration":0.5426135911458374},{"name":"E4","midi":64,"time":117.27271750000081,"velocity":0.8031496062992126,"duration":0.26988634114583476},{"name":"A4","midi":69,"time":117.54544475000081,"velocity":0.8031496062992126,"duration":0.7954544791666649},{"name":"C#3","midi":49,"time":117.54544475000081,"velocity":0.8031496062992126,"duration":0.5426135911458374},{"name":"E4","midi":64,"time":117.81817200000081,"velocity":0.8031496062992126,"duration":0.26988634114583476},{"name":"A#3","midi":58,"time":118.09089925000082,"velocity":0.8031496062992126,"duration":0.3409090624999891},{"name":"D3","midi":50,"time":118.09089925000082,"velocity":0.8031496062992126,"duration":0.5426135911458232},{"name":"A4","midi":69,"time":118.3636265000008,"velocity":0.8031496062992126,"duration":0.26988634114583476},{"name":"F#4","midi":66,"time":118.63635375000081,"velocity":0.8031496062992126,"duration":0.26988634114583476},{"name":"C3","midi":48,"time":118.63635375000081,"velocity":0.8031496062992126,"duration":0.5426135911458374},{"name":"D4","midi":62,"time":118.90908100000081,"velocity":0.8031496062992126,"duration":0.26988634114583476},{"name":"G4","midi":67,"time":119.18180825000081,"velocity":0.8031496062992126,"duration":0.7954544791666649},{"name":"A#2","midi":46,"time":119.18180825000081,"velocity":0.8031496062992126,"duration":0.5426135911458374},{"name":"D4","midi":62,"time":119.45453550000082,"velocity":0.8031496062992126,"duration":0.26988634114583476},{"name":"A3","midi":57,"time":119.72726275000082,"velocity":0.8031496062992126,"duration":0.3409090624999891},{"name":"C3","midi":48,"time":119.72726275000082,"velocity":0.8031496062992126,"duration":0.5426135911458232},{"name":"G4","midi":67,"time":119.9999900000008,"velocity":0.8031496062992126,"duration":0.26988634114583476},{"name":"D#4","midi":63,"time":120.27271725000081,"velocity":0.8031496062992126,"duration":0.26988634114583476},{"name":"D3","midi":50,"time":120.27271725000081,"velocity":0.8031496062992126,"duration":0.5426135911458374},{"name":"C4","midi":60,"time":120.54544450000081,"velocity":0.8031496062992126,"duration":0.26988634114583476},{"name":"F#4","midi":66,"time":120.81817175000081,"velocity":0.8031496062992126,"duration":0.5397726822916695},{"name":"D2","midi":38,"time":120.81817175000081,"velocity":0.8031496062992126,"duration":0.5426135911458374},{"name":"C4","midi":60,"time":121.09089900000082,"velocity":0.8031496062992126,"duration":0.26988634114583476},{"name":"G4","midi":67,"time":121.36362625000082,"velocity":0.8031496062992126,"duration":0.5397726822916695},{"name":"D4","midi":62,"time":121.36362625000082,"velocity":0.8031496062992126,"duration":0.6818181250000066},{"name":"B3","midi":59,"time":121.36362625000082,"velocity":0.8031496062992126,"duration":0.6818181250000066},{"name":"G2","midi":43,"time":121.36362625000082,"velocity":0.8031496062992126,"duration":0.7954544791666791},{"name":"D5","midi":74,"time":122.18180800000083,"velocity":0.8031496062992126,"duration":0.26988634114583476},{"name":"A4","midi":69,"time":122.45453525000083,"velocity":0.8031496062992126,"duration":0.26988634114583476},{"name":"C5","midi":72,"time":122.72726250000083,"velocity":0.8031496062992126,"duration":0.26988634114583476},{"name":"B4","midi":71,"time":122.99998975000084,"velocity":0.8031496062992126,"duration":0.3409090625000033},{"name":"G2","midi":43,"time":122.99998975000084,"velocity":0.8031496062992126,"duration":0.5426135911458374},{"name":"G4","midi":67,"time":123.27271700000084,"velocity":0.8031496062992126,"duration":0.26988634114583476},{"name":"D5","midi":74,"time":123.54544425000084,"velocity":0.8031496062992126,"duration":0.5397726822916695},{"name":"B2","midi":47,"time":123.54544425000084,"velocity":0.8031496062992126,"duration":0.5426135911458374},{"name":"G#4","midi":68,"time":123.81817150000084,"velocity":0.8031496062992126,"duration":0.26988634114583476},{"name":"G4","midi":67,"time":124.09089875000085,"velocity":0.8031496062992126,"duration":0.26988634114583476},{"name":"D3","midi":50,"time":124.09089875000085,"velocity":0.8031496062992126,"duration":0.5426135911458374},{"name":"F4","midi":65,"time":124.36362600000085,"velocity":0.8031496062992126,"duration":0.26988634114583476},{"name":"D#4","midi":63,"time":124.63635325000085,"velocity":0.8031496062992126,"duration":0.3409090625000033},{"name":"G3","midi":55,"time":124.63635325000085,"velocity":0.8031496062992126,"duration":0.5426135911458374},{"name":"G4","midi":67,"time":124.90908050000085,"velocity":0.8031496062992126,"duration":0.26988634114583476},{"name":"B4","midi":71,"time":125.18180775000086,"velocity":0.8031496062992126,"duration":0.26988634114583476},{"name":"F3","midi":53,"time":125.18180775000086,"velocity":0.8031496062992126,"duration":0.5426135911458374},{"name":"D5","midi":74,"time":125.45453500000086,"velocity":0.8031496062992126,"duration":0.26988634114583476},{"name":"C5","midi":72,"time":125.72726225000086,"velocity":0.8031496062992126,"duration":0.5397726822916695},{"name":"D#3","midi":51,"time":125.72726225000086,"velocity":0.8031496062992126,"duration":0.5426135911458374},{"name":"D#4","midi":63,"time":125.99998950000086,"velocity":0.8031496062992126,"duration":0.26988634114583476},{"name":"D4","midi":62,"time":126.27271675000087,"velocity":0.8031496062992126,"duration":0.26988634114583476},{"name":"F3","midi":53,"time":126.27271675000087,"velocity":0.8031496062992126,"duration":0.5426135911458374},{"name":"C5","midi":72,"time":126.54544400000087,"velocity":0.8031496062992126,"duration":0.26988634114583476},{"name":"B4","midi":71,"time":126.81817125000087,"velocity":0.8031496062992126,"duration":0.26988634114583476},{"name":"G3","midi":55,"time":126.81817125000087,"velocity":0.8031496062992126,"duration":0.5426135911458374},{"name":"D5","midi":74,"time":127.09089850000088,"velocity":0.8031496062992126,"duration":0.26988634114583476},{"name":"D#5","midi":75,"time":127.36362575000088,"velocity":0.8031496062992126,"duration":0.26988634114583476},{"name":"G2","midi":43,"time":127.36362575000088,"velocity":0.8031496062992126,"duration":0.5426135911458374},{"name":"F5","midi":77,"time":127.63635300000088,"velocity":0.8031496062992126,"duration":0.26988634114583476},{"name":"D#5","midi":75,"time":127.90908025000088,"velocity":0.8031496062992126,"duration":0.26988634114583476},{"name":"C3","midi":48,"time":127.90908025000088,"velocity":0.8031496062992126,"duration":0.542613591145809},{"name":"D5","midi":74,"time":128.18180750000087,"velocity":0.8031496062992126,"duration":0.26988634114582055},{"name":"C5","midi":72,"time":128.45453475000085,"velocity":0.8031496062992126,"duration":0.26988634114582055},{"name":"D#3","midi":51,"time":128.45453475000085,"velocity":0.8031496062992126,"duration":0.5426135911457948},{"name":"D#5","midi":75,"time":128.72726200000082,"velocity":0.8031496062992126,"duration":0.26988634114582055},{"name":"B4","midi":71,"time":128.9999892500008,"velocity":0.8031496062992126,"duration":0.5397726822916411},{"name":"D5","midi":74,"time":128.9999892500008,"velocity":0.8031496062992126,"duration":0.26988634114582055},{"name":"G3","midi":55,"time":128.9999892500008,"velocity":0.8031496062992126,"duration":0.5426135911457948},{"name":"F5","midi":77,"time":129.27271650000077,"velocity":0.8031496062992126,"duration":0.26988634114582055},{"name":"C5","midi":72,"time":129.54544375000074,"velocity":0.8031496062992126,"duration":1.633522591145578},{"name":"F5","midi":77,"time":129.54544375000074,"velocity":0.8031496062992126,"duration":0.13352271614581923},{"name":"C4","midi":60,"time":129.54544375000074,"velocity":0.8031496062992126,"duration":0.26988634114579213},{"name":"D#5","midi":75,"time":129.68180737500072,"velocity":0.8031496062992126,"duration":0.13352271614581923},{"name":"F5","midi":77,"time":129.8181710000007,"velocity":0.8031496062992126,"duration":0.13352271614581923},{"name":"G3","midi":55,"time":129.8181710000007,"velocity":0.8031496062992126,"duration":0.26988634114579213},{"name":"D#5","midi":75,"time":129.95453462500066,"velocity":0.8031496062992126,"duration":0.13352271614581923},{"name":"F5","midi":77,"time":130.09089825000063,"velocity":0.8031496062992126,"duration":0.13352271614581923},{"name":"D#3","midi":51,"time":130.09089825000063,"velocity":0.8031496062992126,"duration":0.26988634114579213},{"name":"D#5","midi":75,"time":130.2272618750006,"velocity":0.8031496062992126,"duration":0.13352271614581923},{"name":"F5","midi":77,"time":130.36362550000058,"velocity":0.8031496062992126,"duration":0.13352271614581923},{"name":"C3","midi":48,"time":130.36362550000058,"velocity":0.8031496062992126,"duration":0.26988634114579213},{"name":"D#5","midi":75,"time":130.49998912500055,"velocity":0.8031496062992126,"duration":0.8522726562499088},{"name":"G3","midi":55,"time":130.63635275000053,"velocity":0.8031496062992126,"duration":0.26988634114582055},{"name":"A#2","midi":46,"time":130.9090800000005,"velocity":0.8031496062992126,"duration":0.26988634114582055},{"name":"G#2","midi":44,"time":131.18180725000047,"velocity":0.8031496062992126,"duration":1.0795453645832538},{"name":"C5","midi":72,"time":131.45453450000045,"velocity":0.8031496062992126,"duration":0.26988634114582055},{"name":"F5","midi":77,"time":131.72726175000042,"velocity":0.8031496062992126,"duration":0.26988634114582055},{"name":"G#5","midi":80,"time":131.9999890000004,"velocity":0.8031496062992126,"duration":0.26988634114582055},{"name":"G5","midi":79,"time":132.27271625000037,"velocity":0.8031496062992126,"duration":0.26988634114582055},{"name":"E5","midi":76,"time":132.27271625000037,"velocity":0.8031496062992126,"duration":0.5397726822916411},{"name":"A#5","midi":82,"time":132.54544350000035,"velocity":0.8031496062992126,"duration":0.26988634114582055},{"name":"F5","midi":77,"time":132.81817075000032,"velocity":0.8031496062992126,"duration":1.6335225911456064},{"name":"A#5","midi":82,"time":132.81817075000032,"velocity":0.8031496062992126,"duration":0.13352271614581923},{"name":"G#5","midi":80,"time":132.9545343750003,"velocity":0.8031496062992126,"duration":0.13352271614581923},{"name":"A#5","midi":82,"time":133.09089800000027,"velocity":0.8031496062992126,"duration":0.13352271614581923},{"name":"C4","midi":60,"time":133.09089800000027,"velocity":0.8031496062992126,"duration":0.26988634114579213},{"name":"G#5","midi":80,"time":133.22726162500024,"velocity":0.8031496062992126,"duration":0.13352271614581923},{"name":"A#5","midi":82,"time":133.3636252500002,"velocity":0.8031496062992126,"duration":0.13352271614581923},{"name":"G#3","midi":56,"time":133.3636252500002,"velocity":0.8031496062992126,"duration":0.26988634114579213},{"name":"G#5","midi":80,"time":133.49998887500018,"velocity":0.8031496062992126,"duration":1.224431716145716},{"name":"F3","midi":53,"time":133.63635250000016,"velocity":0.8031496062992126,"duration":0.26988634114582055},{"name":"C4","midi":60,"time":133.90907975000013,"velocity":0.8031496062992126,"duration":0.26988634114582055},{"name":"D#3","midi":51,"time":134.1818070000001,"velocity":0.8031496062992126,"duration":0.26988634114582055},{"name":"C#3","midi":49,"time":134.45453425000008,"velocity":0.8031496062992126,"duration":1.0795453645832538},{"name":"G5","midi":79,"time":134.72726150000005,"velocity":0.8031496062992126,"duration":0.26988634114582055},{"name":"F5","midi":77,"time":134.99998875000003,"velocity":0.8031496062992126,"duration":0.26988634114582055},{"name":"D#5","midi":75,"time":135.272716,"velocity":0.8031496062992126,"duration":0.26988634114582055},{"name":"C#5","midi":73,"time":135.54544324999998,"velocity":0.8031496062992126,"duration":0.26988634114582055},{"name":"C5","midi":72,"time":135.81817049999995,"velocity":0.8031496062992126,"duration":0.26988634114582055},{"name":"A#4","midi":70,"time":136.09089774999993,"velocity":0.8031496062992126,"duration":3.26704518229144},{"name":"F4","midi":65,"time":136.36362499999993,"velocity":0.8031496062992126,"duration":0.26988634114582055},{"name":"G5","midi":79,"time":136.6363522499999,"velocity":0.8031496062992126,"duration":0.5426135911457948},{"name":"C#4","midi":61,"time":136.6363522499999,"velocity":0.8031496062992126,"duration":0.26988634114582055},{"name":"A#3","midi":58,"time":136.90907949999988,"velocity":0.8031496062992126,"duration":0.26988634114582055},{"name":"F5","midi":77,"time":137.18180674999985,"velocity":0.8031496062992126,"duration":0.9659090104165955},{"name":"C#4","midi":61,"time":137.18180674999985,"velocity":0.8031496062992126,"duration":0.26988634114582055},{"name":"G#3","midi":56,"time":137.45453399999982,"velocity":0.8031496062992126,"duration":0.26988634114582055},{"name":"G3","midi":55,"time":137.7272612499998,"velocity":0.8031496062992126,"duration":0.26988634114582055},{"name":"C#4","midi":61,"time":137.99998849999977,"velocity":0.8031496062992126,"duration":0.269886341145849},{"name":"E5","midi":76,"time":138.27271574999978,"velocity":0.8031496062992126,"duration":0.5426135911457948},{"name":"A#3","midi":58,"time":138.27271574999978,"velocity":0.8031496062992126,"duration":0.26988634114582055},{"name":"G3","midi":55,"time":138.54544299999975,"velocity":0.8031496062992126,"duration":0.26988634114582055},{"name":"C#5","midi":73,"time":138.81817024999972,"velocity":0.8031496062992126,"duration":0.9659090104165955},{"name":"A#3","midi":58,"time":138.81817024999972,"velocity":0.8031496062992126,"duration":0.26988634114582055},{"name":"F3","midi":53,"time":139.0908974999997,"velocity":0.8031496062992126,"duration":0.26988634114582055},{"name":"E3","midi":52,"time":139.36362474999967,"velocity":0.8031496062992126,"duration":0.26988634114582055},{"name":"A#3","midi":58,"time":139.63635199999965,"velocity":0.8031496062992126,"duration":0.269886341145849},{"name":"C5","midi":72,"time":139.90907924999965,"velocity":0.8031496062992126,"duration":0.5426135911457948},{"name":"E4","midi":64,"time":139.90907924999965,"velocity":0.8031496062992126,"duration":0.5426135911457948},{"name":"G3","midi":55,"time":139.90907924999965,"velocity":0.8031496062992126,"duration":0.26988634114582055},{"name":"E3","midi":52,"time":140.18180649999962,"velocity":0.8031496062992126,"duration":0.26988634114582055},{"name":"F4","midi":65,"time":140.4545337499996,"velocity":0.8031496062992126,"duration":0.5426135911457948},{"name":"A#4","midi":70,"time":140.4545337499996,"velocity":0.8031496062992126,"duration":0.7926135703124544},{"name":"G3","midi":55,"time":140.4545337499996,"velocity":0.8031496062992126,"duration":0.26988634114582055},{"name":"C#3","midi":49,"time":140.72726099999957,"velocity":0.8031496062992126,"duration":0.26988634114582055},{"name":"E4","midi":64,"time":140.99998824999955,"velocity":0.8031496062992126,"duration":1.0795453645832822},{"name":"C3","midi":48,"time":140.99998824999955,"velocity":0.8031496062992126,"duration":0.8153408411457974},{"name":"C#5","midi":73,"time":141.27271549999955,"velocity":0.8031496062992126,"duration":0.26988634114582055},{"name":"C5","midi":72,"time":141.54544274999952,"velocity":0.8031496062992126,"duration":0.26988634114582055},{"name":"A#4","midi":70,"time":141.8181699999995,"velocity":0.8031496062992126,"duration":0.26988634114582055},{"name":"C3","midi":48,"time":141.8181699999995,"velocity":0.8031496062992126,"duration":0.26988634114582055},{"name":"G#4","midi":68,"time":142.09089724999947,"velocity":0.8031496062992126,"duration":0.7954544791666365},{"name":"C#3","midi":49,"time":142.09089724999947,"velocity":0.8031496062992126,"duration":0.5426135911458232},{"name":"E4","midi":64,"time":142.36362449999947,"velocity":0.8031496062992126,"duration":0.26988634114582055},{"name":"F4","midi":65,"time":142.63635174999945,"velocity":0.8031496062992126,"duration":0.5397726822916695},{"name":"A#2","midi":46,"time":142.63635174999945,"velocity":0.8031496062992126,"duration":0.5426135911458232},{"name":"C#5","midi":73,"time":142.90907899999945,"velocity":0.8031496062992126,"duration":0.26988634114582055},{"name":"A#4","midi":70,"time":143.18180624999943,"velocity":0.8031496062992126,"duration":0.13352271614581923},{"name":"C3","midi":48,"time":143.18180624999943,"velocity":0.8031496062992126,"duration":0.5426135911457379},{"name":"G#4","midi":68,"time":143.3181698749994,"velocity":0.8031496062992126,"duration":0.13352271614581923},{"name":"A#4","midi":70,"time":143.45453349999937,"velocity":0.8031496062992126,"duration":0.13352271614581923},{"name":"G#4","midi":68,"time":143.59089712499934,"velocity":0.8031496062992126,"duration":0.13352271614581923},{"name":"G4","midi":67,"time":143.72726074999932,"velocity":0.8031496062992126,"duration":0.26988634114582055},{"name":"C2","midi":36,"time":143.72726074999932,"velocity":0.8031496062992126,"duration":0.5426135911457948},{"name":"F4","midi":65,"time":143.9999879999993,"velocity":0.8031496062992126,"duration":0.26988634114582055},{"name":"F4","midi":65,"time":144.27271524999927,"velocity":0.8031496062992126,"duration":0.3409090625000033},{"name":"F2","midi":41,"time":144.27271524999927,"velocity":0.8031496062992126,"duration":0.5426135911458232},{"name":"C5","midi":72,"time":144.54544249999927,"velocity":0.8031496062992126,"duration":0.26988634114582055},{"name":"G#4","midi":68,"time":144.81816974999924,"velocity":0.8031496062992126,"duration":0.26988634114582055},{"name":"F3","midi":53,"time":144.81816974999924,"velocity":0.8031496062992126,"duration":0.795454479166608},{"name":"F4","midi":65,"time":145.09089699999922,"velocity":0.8031496062992126,"duration":0.26988634114582055},{"name":"C5","midi":72,"time":145.3636242499992,"velocity":0.8031496062992126,"duration":0.26988634114582055},{"name":"D#4","midi":63,"time":145.63635149999917,"velocity":0.8031496062992126,"duration":0.26988634114582055},{"name":"D4","midi":62,"time":145.90907874999914,"velocity":0.8031496062992126,"duration":0.5426135911458232},{"name":"F3","midi":53,"time":146.18180599999914,"velocity":0.8031496062992126,"duration":0.26988634114582055},{"name":"A#4","midi":70,"time":146.45453324999912,"velocity":0.8031496062992126,"duration":0.795454479166608},{"name":"D3","midi":50,"time":146.45453324999912,"velocity":0.8031496062992126,"duration":0.26988634114582055},{"name":"A#2","midi":46,"time":146.7272604999991,"velocity":0.8031496062992126,"duration":0.26988634114582055},{"name":"F3","midi":53,"time":146.99998774999906,"velocity":0.8031496062992126,"duration":0.26988634114582055},{"name":"G#2","midi":44,"time":147.27271499999904,"velocity":0.8031496062992126,"duration":0.26988634114582055},{"name":"G2","midi":43,"time":147.545442249999,"velocity":0.8031496062992126,"duration":0.5426135911458232},{"name":"A#4","midi":70,"time":147.81816949999902,"velocity":0.8031496062992126,"duration":0.26988634114582055},{"name":"G4","midi":67,"time":148.090896749999,"velocity":0.8031496062992126,"duration":0.26988634114582055},{"name":"D#3","midi":51,"time":148.090896749999,"velocity":0.8031496062992126,"duration":0.795454479166608},{"name":"D#4","midi":63,"time":148.36362399999896,"velocity":0.8031496062992126,"duration":0.26988634114582055},{"name":"A#4","midi":70,"time":148.63635124999894,"velocity":0.8031496062992126,"duration":0.26988634114582055},{"name":"D4","midi":62,"time":148.9090784999989,"velocity":0.8031496062992126,"duration":0.26988634114582055},{"name":"C4","midi":60,"time":149.1818057499989,"velocity":0.8031496062992126,"duration":0.5426135911458232},{"name":"D#3","midi":51,"time":149.4545329999989,"velocity":0.8031496062992126,"duration":0.26988634114582055},{"name":"G#4","midi":68,"time":149.72726024999886,"velocity":0.8031496062992126,"duration":0.795454479166608},{"name":"C3","midi":48,"time":149.72726024999886,"velocity":0.8031496062992126,"duration":0.26988634114582055},{"name":"G#2","midi":44,"time":149.99998749999884,"velocity":0.8031496062992126,"duration":0.26988634114582055},{"name":"D#3","midi":51,"time":150.2727147499988,"velocity":0.8031496062992126,"duration":0.26988634114582055},{"name":"G2","midi":43,"time":150.5454419999988,"velocity":0.8031496062992126,"duration":0.26988634114582055},{"name":"F2","midi":41,"time":150.81816924999876,"velocity":0.8031496062992126,"duration":0.5426135911458232},{"name":"G#4","midi":68,"time":151.09089649999876,"velocity":0.8031496062992126,"duration":0.26988634114582055},{"name":"F4","midi":65,"time":151.36362374999874,"velocity":0.8031496062992126,"duration":0.26988634114582055},{"name":"D3","midi":50,"time":151.36362374999874,"velocity":0.8031496062992126,"duration":0.795454479166608},{"name":"D4","midi":62,"time":151.6363509999987,"velocity":0.8031496062992126,"duration":0.26988634114582055},{"name":"G#4","midi":68,"time":151.9090782499987,"velocity":0.8031496062992126,"duration":0.26988634114582055},{"name":"C4","midi":60,"time":152.18180549999866,"velocity":0.8031496062992126,"duration":0.26988634114582055},{"name":"B3","midi":59,"time":152.45453274999863,"velocity":0.8031496062992126,"duration":0.5426135911458232},{"name":"D3","midi":50,"time":152.72725999999864,"velocity":0.8031496062992126,"duration":0.26988634114582055},{"name":"G4","midi":67,"time":152.9999872499986,"velocity":0.8031496062992126,"duration":0.795454479166608},{"name":"B2","midi":47,"time":152.9999872499986,"velocity":0.8031496062992126,"duration":0.26988634114582055},{"name":"G2","midi":43,"time":153.27271449999859,"velocity":0.8031496062992126,"duration":0.26988634114582055},{"name":"D3","midi":50,"time":153.54544174999856,"velocity":0.8031496062992126,"duration":0.26988634114582055},{"name":"F2","midi":41,"time":153.81816899999853,"velocity":0.8031496062992126,"duration":0.26988634114582055},{"name":"D#2","midi":39,"time":154.0908962499985,"velocity":0.8031496062992126,"duration":0.5426135911458232},{"name":"G4","midi":67,"time":154.3636234999985,"velocity":0.8031496062992126,"duration":0.26988634114582055},{"name":"D#4","midi":63,"time":154.63635074999848,"velocity":0.8031496062992126,"duration":0.26988634114582055},{"name":"C3","midi":48,"time":154.63635074999848,"velocity":0.8031496062992126,"duration":0.5426135911457948},{"name":"C4","midi":60,"time":154.90907799999846,"velocity":0.8031496062992126,"duration":0.26988634114582055},{"name":"D#5","midi":75,"time":155.18180524999843,"velocity":0.8031496062992126,"duration":0.26988634114582055},{"name":"C2","midi":36,"time":155.18180524999843,"velocity":0.8031496062992126,"duration":0.5426135911457948},{"name":"C5","midi":72,"time":155.4545324999984,"velocity":0.8031496062992126,"duration":0.26988634114582055},{"name":"A4","midi":69,"time":155.72725974999838,"velocity":0.8031496062992126,"duration":0.3409090625000033},{"name":"F2","midi":41,"time":155.72725974999838,"velocity":0.8031496062992126,"duration":0.5426135911458232},{"name":"F5","midi":77,"time":155.99998699999838,"velocity":0.8031496062992126,"duration":0.26988634114582055},{"name":"D5","midi":74,"time":156.27271424999836,"velocity":0.8031496062992126,"duration":0.26988634114582055},{"name":"F3","midi":53,"time":156.27271424999836,"velocity":0.8031496062992126,"duration":0.5426135911457948},{"name":"B4","midi":71,"time":156.54544149999833,"velocity":0.8031496062992126,"duration":0.26988634114582055},{"name":"G5","midi":79,"time":156.8181687499983,"velocity":0.8031496062992126,"duration":0.26988634114582055},{"name":"D#3","midi":51,"time":156.8181687499983,"velocity":0.8031496062992126,"duration":0.5426135911457948},{"name":"D#5","midi":75,"time":157.09089599999828,"velocity":0.8031496062992126,"duration":0.26988634114582055},{"name":"C5","midi":72,"time":157.36362324999826,"velocity":0.8031496062992126,"duration":0.3409090625000033},{"name":"G#3","midi":56,"time":157.36362324999826,"velocity":0.8031496062992126,"duration":0.5426135911458232},{"name":"G#5","midi":80,"time":157.63635049999826,"velocity":0.8031496062992126,"duration":0.26988634114582055},{"name":"F5","midi":77,"time":157.90907774999823,"velocity":0.8031496062992126,"duration":0.26988634114582055},{"name":"G#2","midi":44,"time":157.90907774999823,"velocity":0.8031496062992126,"duration":0.5426135911457948},{"name":"D5","midi":74,"time":158.1818049999982,"velocity":0.8031496062992126,"duration":0.26988634114582055},{"name":"A#5","midi":82,"time":158.45453224999818,"velocity":0.8031496062992126,"duration":0.26988634114582055},{"name":"G2","midi":43,"time":158.45453224999818,"velocity":0.8031496062992126,"duration":0.5426135911457948},{"name":"G5","midi":79,"time":158.72725949999815,"velocity":0.8031496062992126,"duration":0.26988634114582055},{"name":"E5","midi":76,"time":158.99998674999813,"velocity":0.8031496062992126,"duration":0.26988634114582055},{"name":"C3","midi":48,"time":158.99998674999813,"velocity":0.8031496062992126,"duration":0.5426135911457948},{"name":"G5","midi":79,"time":159.2727139999981,"velocity":0.8031496062992126,"duration":0.26988634114582055},{"name":"C6","midi":84,"time":159.54544124999808,"velocity":0.8031496062992126,"duration":0.26988634114582055},{"name":"D3","midi":50,"time":159.54544124999808,"velocity":0.8031496062992126,"duration":0.5426135911457948},{"name":"A#5","midi":82,"time":159.81816849999805,"velocity":0.8031496062992126,"duration":0.26988634114582055},{"name":"G#5","midi":80,"time":160.09089574999803,"velocity":0.8031496062992126,"duration":0.26988634114582055},{"name":"E3","midi":52,"time":160.09089574999803,"velocity":0.8031496062992126,"duration":0.5426135911457948},{"name":"G5","midi":79,"time":160.363622999998,"velocity":0.8031496062992126,"duration":0.26988634114582055},{"name":"G#5","midi":80,"time":160.63635024999797,"velocity":0.8031496062992126,"duration":0.26988634114582055},{"name":"F3","midi":53,"time":160.63635024999797,"velocity":0.8031496062992126,"duration":0.5426135911457948},{"name":"G5","midi":79,"time":160.90907749999795,"velocity":0.8031496062992126,"duration":0.26988634114582055},{"name":"F5","midi":77,"time":161.18180474999792,"velocity":0.8031496062992126,"duration":0.26988634114582055},{"name":"G3","midi":55,"time":161.18180474999792,"velocity":0.8031496062992126,"duration":0.5426135911457948},{"name":"D#5","midi":75,"time":161.4545319999979,"velocity":0.8031496062992126,"duration":0.26988634114582055},{"name":"D5","midi":74,"time":161.72725924999787,"velocity":0.8031496062992126,"duration":0.26988634114582055},{"name":"G#3","midi":56,"time":161.72725924999787,"velocity":0.8031496062992126,"duration":0.5426135911457948},{"name":"C5","midi":72,"time":161.99998649999785,"velocity":0.8031496062992126,"duration":0.26988634114582055},{"name":"B4","midi":71,"time":162.27271374999782,"velocity":0.8031496062992126,"duration":0.3409090625000033},{"name":"G3","midi":55,"time":162.27271374999782,"velocity":0.8031496062992126,"duration":0.5426135911458232},{"name":"G#5","midi":80,"time":162.54544099999782,"velocity":0.8031496062992126,"duration":0.26988634114582055},{"name":"F5","midi":77,"time":162.8181682499978,"velocity":0.8031496062992126,"duration":0.26988634114582055},{"name":"A3","midi":57,"time":162.8181682499978,"velocity":0.8031496062992126,"duration":0.5426135911457948},{"name":"D5","midi":74,"time":163.09089549999777,"velocity":0.8031496062992126,"duration":0.26988634114582055},{"name":"G5","midi":79,"time":163.36362274999775,"velocity":0.8031496062992126,"duration":0.26988634114582055},{"name":"B3","midi":59,"time":163.36362274999775,"velocity":0.8031496062992126,"duration":0.5426135911457948},{"name":"D5","midi":74,"time":163.63634999999772,"velocity":0.8031496062992126,"duration":0.26988634114582055},{"name":"D#5","midi":75,"time":163.9090772499977,"velocity":0.8031496062992126,"duration":0.26988634114582055},{"name":"C4","midi":60,"time":163.9090772499977,"velocity":0.8031496062992126,"duration":0.5397726822916411},{"name":"D5","midi":74,"time":164.18180449999767,"velocity":0.8031496062992126,"duration":0.26988634114582055},{"name":"C5","midi":72,"time":164.45453174999764,"velocity":0.8031496062992126,"duration":0.26988634114582055},{"name":"A#4","midi":70,"time":164.72725899999762,"velocity":0.8031496062992126,"duration":0.26988634114582055},{"name":"C4","midi":60,"time":164.72725899999762,"velocity":0.8031496062992126,"duration":0.26988634114582055},{"name":"A4","midi":69,"time":164.9999862499976,"velocity":0.8031496062992126,"duration":0.26988634114582055},{"name":"D4","midi":62,"time":164.9999862499976,"velocity":0.8031496062992126,"duration":0.26988634114582055},{"name":"D#4","midi":63,"time":165.27271349999756,"velocity":0.8031496062992126,"duration":0.2755681588541563},{"name":"G4","midi":67,"time":165.27271349999756,"velocity":0.8031496062992126,"duration":0.2755681588541563},{"name":"A3","midi":57,"time":165.55112256770587,"velocity":0.8031496062992126,"duration":0.5568181354166484},{"name":"F#4","midi":66,"time":165.55112256770587,"velocity":0.8031496062992126,"duration":0.3494317890624927},{"name":"D#5","midi":75,"time":165.83237254426837,"velocity":0.8031496062992126,"duration":0.2755681588541563},{"name":"G3","midi":55,"time":166.11362252083086,"velocity":0.8031496062992126,"duration":0.5568181354166484},{"name":"C5","midi":72,"time":166.11362252083086,"velocity":0.8031496062992126,"duration":0.2755681588541563},{"name":"A4","midi":69,"time":166.39487249739335,"velocity":0.8031496062992126,"duration":0.2755681588541563},{"name":"F#3","midi":54,"time":166.67612247395584,"velocity":0.8031496062992126,"duration":0.5568181354166484},{"name":"D5","midi":74,"time":166.67612247395584,"velocity":0.8031496062992126,"duration":0.2755681588541563},{"name":"A4","midi":69,"time":166.95737245051833,"velocity":0.8031496062992126,"duration":0.28124997656249207},{"name":"D#4","midi":63,"time":167.24430424478916,"velocity":0.8031496062992126,"duration":0.35795451562501057},{"name":"G3","midi":55,"time":167.24430424478916,"velocity":0.8031496062992126,"duration":0.571022679687502},{"name":"D5","midi":74,"time":167.53407694791417,"velocity":0.8031496062992126,"duration":0.28124997656249207},{"name":"B4","midi":71,"time":167.82384965103915,"velocity":0.8031496062992126,"duration":0.28124997656249207},{"name":"F3","midi":53,"time":167.82384965103915,"velocity":0.8031496062992126,"duration":0.5710226796874736},{"name":"G4","midi":67,"time":168.11362235416414,"velocity":0.8031496062992126,"duration":0.28124997656249207},{"name":"C5","midi":72,"time":168.40339505728912,"velocity":0.8031496062992126,"duration":0.28124997656249207},{"name":"D#3","midi":51,"time":168.40339505728912,"velocity":0.8031496062992126,"duration":0.5710226796874736},{"name":"G4","midi":67,"time":168.6931677604141,"velocity":0.8031496062992126,"duration":0.2869317942708278},{"name":"F3","midi":53,"time":168.98862228124742,"velocity":0.8031496062992126,"duration":0.5880681328124808},{"name":"D4","midi":62,"time":168.98862228124742,"velocity":0.8031496062992126,"duration":0.3664772421875},{"name":"C5","midi":72,"time":169.28691771093492,"velocity":0.8031496062992126,"duration":0.2869317942708278},{"name":"G3","midi":55,"time":169.5852131406224,"velocity":0.8031496062992126,"duration":0.5880681328124808},{"name":"G#4","midi":68,"time":169.5852131406224,"velocity":0.8031496062992126,"duration":0.2869317942708278},{"name":"F4","midi":65,"time":169.88350857030989,"velocity":0.8031496062992126,"duration":0.2869317942708278},{"name":"G2","midi":43,"time":170.18180399999736,"velocity":0.8031496062992126,"duration":0.6619317630208172},{"name":"B4","midi":71,"time":170.18180399999736,"velocity":0.8031496062992126,"duration":0.36931815104165366},{"name":"F4","midi":65,"time":170.48009942968486,"velocity":0.8031496062992126,"duration":0.3380681536458212},{"name":"D#4","midi":63,"time":170.84089485416402,"velocity":0.8031496062992126,"duration":2.272727083333308},{"name":"G4","midi":67,"time":170.84089485416402,"velocity":0.8031496062992126,"duration":2.272727083333308},{"name":"C5","midi":72,"time":170.84089485416402,"velocity":0.8031496062992126,"duration":2.292613445312469},{"name":"C2","midi":36,"time":170.84089485416402,"velocity":0.8031496062992126,"duration":2.2784089010416437},{"name":"D#5","midi":75,"time":176.18180349999733,"velocity":0.8031496062992126,"duration":0.5397726822916695},{"name":"C4","midi":60,"time":176.18180349999733,"velocity":0.8031496062992126,"duration":2.1789770911457254},{"name":"F5","midi":77,"time":176.72725799999733,"velocity":0.8031496062992126,"duration":0.26988634114582055},{"name":"D#5","midi":75,"time":176.9999852499973,"velocity":0.8031496062992126,"duration":0.26988634114582055},{"name":"D#4","midi":63,"time":177.27271249999728,"velocity":0.8031496062992126,"duration":1.0880680911457716},{"name":"D5","midi":74,"time":177.27271249999728,"velocity":0.8031496062992126,"duration":0.26988634114582055},{"name":"D#5","midi":75,"time":177.54543974999726,"velocity":0.8031496062992126,"duration":0.26988634114582055},{"name":"C5","midi":72,"time":177.81816699999723,"velocity":0.8031496062992126,"duration":0.5426135911458232},{"name":"A#3","midi":58,"time":178.3636214999972,"velocity":0.8031496062992126,"duration":1.0880680911457716},{"name":"D4","midi":62,"time":178.3636214999972,"velocity":0.8031496062992126,"duration":1.0880680911457716},{"name":"G5","midi":79,"time":178.3636214999972,"velocity":0.8031496062992126,"duration":0.26988634114582055},{"name":"F5","midi":77,"time":178.63634874999718,"velocity":0.8031496062992126,"duration":0.26988634114582055},{"name":"G5","midi":79,"time":178.90907599999716,"velocity":0.8031496062992126,"duration":0.7386363020833073},{"name":"G#3","midi":56,"time":179.45453049999713,"velocity":0.8031496062992126,"duration":1.63352259114572},{"name":"C4","midi":60,"time":179.45453049999713,"velocity":0.8031496062992126,"duration":1.63352259114572},{"name":"C6","midi":84,"time":179.72725774999714,"velocity":0.8031496062992126,"duration":0.26988634114582055},{"name":"G#5","midi":80,"time":179.9999849999971,"velocity":0.8031496062992126,"duration":0.26988634114582055},{"name":"E5","midi":76,"time":180.27271224999708,"velocity":0.8031496062992126,"duration":0.26988634114582055},{"name":"F5","midi":77,"time":180.54543949999706,"velocity":0.8031496062992126,"duration":0.26988634114582055},{"name":"E5","midi":76,"time":180.81816674999703,"velocity":0.8031496062992126,"duration":0.26988634114582055},{"name":"B3","midi":59,"time":181.090893999997,"velocity":0.8031496062992126,"duration":0.5426135911458232},{"name":"G#3","midi":56,"time":181.090893999997,"velocity":0.8031496062992126,"duration":0.5426135911458232},{"name":"F5","midi":77,"time":181.090893999997,"velocity":0.8031496062992126,"duration":1.633522591145777},{"name":"G3","midi":55,"time":181.63634849999698,"velocity":0.8031496062992126,"duration":0.5426135911458232},{"name":"C4","midi":60,"time":181.63634849999698,"velocity":0.8031496062992126,"duration":0.5426135911458232},{"name":"F3","midi":53,"time":182.18180299999696,"velocity":0.8031496062992126,"duration":0.5426135911458232},{"name":"D4","midi":62,"time":182.18180299999696,"velocity":0.8031496062992126,"duration":0.5426135911458232},{"name":"G3","midi":55,"time":182.72725749999694,"velocity":0.8031496062992126,"duration":1.0880680911457716},{"name":"B3","midi":59,"time":182.72725749999694,"velocity":0.8031496062992126,"duration":1.0880680911457716},{"name":"G#5","midi":80,"time":182.99998474999694,"velocity":0.8031496062992126,"duration":0.26988634114582055},{"name":"G5","midi":79,"time":183.27271199999691,"velocity":0.8031496062992126,"duration":0.26988634114582055},{"name":"D5","midi":74,"time":183.5454392499969,"velocity":0.8031496062992126,"duration":0.26988634114582055},{"name":"C4","midi":60,"time":183.81816649999686,"velocity":0.8031496062992126,"duration":1.0795453645832538},{"name":"D#5","midi":75,"time":183.81816649999686,"velocity":0.8031496062992126,"duration":0.26988634114582055},{"name":"G5","midi":79,"time":184.09089374999684,"velocity":0.8031496062992126,"duration":0.26988634114582055},{"name":"G#3","midi":56,"time":184.3636209999968,"velocity":0.8031496062992126,"duration":0.5426135911457948},{"name":"F5","midi":77,"time":184.3636209999968,"velocity":0.8031496062992126,"duration":0.26988634114582055},{"name":"C5","midi":72,"time":184.6363482499968,"velocity":0.8031496062992126,"duration":0.26988634114582055},{"name":"G#3","midi":56,"time":184.90907549999676,"velocity":0.8031496062992126,"duration":1.0880680911457432},{"name":"F3","midi":53,"time":184.90907549999676,"velocity":0.8031496062992126,"duration":1.0880680911457432},{"name":"D5","midi":74,"time":184.90907549999676,"velocity":0.8031496062992126,"duration":0.26988634114582055},{"name":"F5","midi":77,"time":185.18180274999673,"velocity":0.8031496062992126,"duration":0.26988634114582055},{"name":"D#5","midi":75,"time":185.4545299999967,"velocity":0.8031496062992126,"duration":0.26988634114582055},{"name":"B4","midi":71,"time":185.72725724999668,"velocity":0.8031496062992126,"duration":0.26988634114582055},{"name":"A3","midi":57,"time":185.99998449999666,"velocity":0.8031496062992126,"duration":1.0880680911457432},{"name":"F#3","midi":54,"time":185.99998449999666,"velocity":0.8031496062992126,"duration":1.0880680911457432},{"name":"C5","midi":72,"time":185.99998449999666,"velocity":0.8031496062992126,"duration":0.26988634114582055},{"name":"D#5","midi":75,"time":186.27271174999663,"velocity":0.8031496062992126,"duration":0.26988634114582055},{"name":"D5","midi":74,"time":186.5454389999966,"velocity":0.8031496062992126,"duration":0.26988634114582055},{"name":"A4","midi":69,"time":186.81816624999658,"velocity":0.8031496062992126,"duration":0.26988634114582055},{"name":"G3","midi":55,"time":187.09089349999655,"velocity":0.8031496062992126,"duration":2.7272724999997706},{"name":"B4","midi":71,"time":187.09089349999655,"velocity":0.8031496062992126,"duration":0.13352271614581923},{"name":"A4","midi":69,"time":187.22725712499653,"velocity":0.8031496062992126,"duration":0.13352271614581923},{"name":"B4","midi":71,"time":187.3636207499965,"velocity":0.8031496062992126,"duration":0.5426135911458232},{"name":"G2","midi":43,"time":187.6363479999965,"velocity":0.8031496062992126,"duration":0.5426135911457663},{"name":"C5","midi":72,"time":187.90907524999648,"velocity":0.8031496062992126,"duration":0.13352271614581923},{"name":"D5","midi":74,"time":188.04543887499645,"velocity":0.8031496062992126,"duration":0.13352271614581923},{"name":"A2","midi":45,"time":188.18180249999642,"velocity":0.8031496062992126,"duration":0.5426135911457948},{"name":"C5","midi":72,"time":188.18180249999642,"velocity":0.8031496062992126,"duration":0.26988634114582055},{"name":"B4","midi":71,"time":188.4545297499964,"velocity":0.8031496062992126,"duration":0.26988634114582055},{"name":"B2","midi":47,"time":188.72725699999637,"velocity":0.8031496062992126,"duration":0.5426135911458232},{"name":"A4","midi":69,"time":188.72725699999637,"velocity":0.8031496062992126,"duration":0.26988634114582055},{"name":"G4","midi":67,"time":188.99998424999634,"velocity":0.8031496062992126,"duration":0.227272708333345},{"name":"C3","midi":48,"time":189.27271149999635,"velocity":0.8031496062992126,"duration":1.0795453645832822},{"name":"D#5","midi":75,"time":189.27271149999635,"velocity":0.8031496062992126,"duration":0.5426135911458232},{"name":"G3","midi":55,"time":189.81816599999632,"velocity":0.8031496062992126,"duration":0.5426135911457948},{"name":"F5","midi":77,"time":189.81816599999632,"velocity":0.8031496062992126,"duration":0.26988634114582055},{"name":"D#5","midi":75,"time":190.0908932499963,"velocity":0.8031496062992126,"duration":0.26988634114582055},{"name":"F3","midi":53,"time":190.36362049999627,"velocity":0.8031496062992126,"duration":0.5426135911457948},{"name":"D5","midi":74,"time":190.36362049999627,"velocity":0.8031496062992126,"duration":0.26988634114582055},{"name":"D#5","midi":75,"time":190.63634774999625,"velocity":0.8031496062992126,"duration":0.26988634114582055},{"name":"D#3","midi":51,"time":190.90907499999622,"velocity":0.8031496062992126,"duration":0.5426135911458232},{"name":"C3","midi":48,"time":190.90907499999622,"velocity":0.8031496062992126,"duration":0.5426135911458232},{"name":"C5","midi":72,"time":190.90907499999622,"velocity":0.8031496062992126,"duration":0.5426135911458232},{"name":"G5","midi":79,"time":191.4545294999962,"velocity":0.8031496062992126,"duration":0.17897725781250529},{"name":"F3","midi":53,"time":191.4545294999962,"velocity":0.8031496062992126,"duration":0.5426135911458232},{"name":"D3","midi":50,"time":191.4545294999962,"velocity":0.8031496062992126,"duration":0.5426135911458232},{"name":"G#5","midi":80,"time":191.63634766666286,"velocity":0.8031496062992126,"duration":0.17897725781250529},{"name":"A#5","midi":82,"time":191.81816583332952,"velocity":0.8031496062992126,"duration":0.9090908333332948},{"name":"E3","midi":52,"time":191.99998399999618,"velocity":0.8031496062992126,"duration":0.5426135911458232},{"name":"G3","midi":55,"time":191.99998399999618,"velocity":0.8031496062992126,"duration":0.5426135911458232},{"name":"F3","midi":53,"time":192.54543849999615,"velocity":0.8031496062992126,"duration":1.0795453645832822},{"name":"G5","midi":79,"time":192.81816574999615,"velocity":0.8031496062992126,"duration":0.26988634114582055},{"name":"F2","midi":41,"time":193.09089299999613,"velocity":0.8031496062992126,"duration":0.5426135911457948},{"name":"E5","midi":76,"time":193.09089299999613,"velocity":0.8031496062992126,"duration":0.26988634114582055},{"name":"C5","midi":72,"time":193.3636202499961,"velocity":0.8031496062992126,"duration":0.26988634114582055},{"name":"F3","midi":53,"time":193.63634749999608,"velocity":0.8031496062992126,"duration":1.633522591145777},{"name":"G#5","midi":80,"time":193.63634749999608,"velocity":0.8031496062992126,"duration":0.8153408411458258},{"name":"G3","midi":55,"time":194.18180199999608,"velocity":0.8031496062992126,"duration":0.5426135911457948},{"name":"C5","midi":72,"time":194.45452924999606,"velocity":0.8031496062992126,"duration":0.26988634114582055},{"name":"G#3","midi":56,"time":194.72725649999603,"velocity":0.8031496062992126,"duration":0.5426135911458232},{"name":"C#5","midi":73,"time":194.72725649999603,"velocity":0.8031496062992126,"duration":1.249999895833298},{"name":"A#3","midi":58,"time":195.272710999996,"velocity":0.8031496062992126,"duration":0.5426135911458232},{"name":"G3","midi":55,"time":195.272710999996,"velocity":0.8031496062992126,"duration":0.5426135911458232},{"name":"G#3","midi":56,"time":195.81816549999598,"velocity":0.8031496062992126,"duration":0.5426135911458232},{"name":"A#4","midi":70,"time":196.090892749996,"velocity":0.8031496062992126,"duration":0.26988634114582055},{"name":"F3","midi":53,"time":196.36361999999596,"velocity":0.8031496062992126,"duration":0.5426135911457948},{"name":"G#3","midi":56,"time":196.36361999999596,"velocity":0.8031496062992126,"duration":1.0795453645832538},{"name":"C5","midi":72,"time":196.36361999999596,"velocity":0.8031496062992126,"duration":0.26988634114582055},{"name":"F5","midi":77,"time":196.63634724999594,"velocity":0.8031496062992126,"duration":0.26988634114582055},{"name":"A#2","midi":46,"time":196.9090744999959,"velocity":0.8031496062992126,"duration":2.1789770911456117},{"name":"D5","midi":74,"time":196.9090744999959,"velocity":0.8031496062992126,"duration":0.26988634114582055},{"name":"G5","midi":79,"time":197.18180174999588,"velocity":0.8031496062992126,"duration":0.26988634114582055},{"name":"D3","midi":50,"time":197.45452899999586,"velocity":0.8031496062992126,"duration":0.5426135911457948},{"name":"F5","midi":77,"time":197.45452899999586,"velocity":0.8031496062992126,"duration":0.26988634114582055},{"name":"G#5","midi":80,"time":197.72725624999583,"velocity":0.8031496062992126,"duration":0.26988634114582055},{"name":"D#3","midi":51,"time":197.9999834999958,"velocity":0.8031496062992126,"duration":0.5426135911457663},{"name":"G5","midi":79,"time":197.9999834999958,"velocity":0.8031496062992126,"duration":0.26988634114582055},{"name":"C6","midi":84,"time":198.27271074999578,"velocity":0.8031496062992126,"duration":0.13352271614581923},{"name":"A#5","midi":82,"time":198.40907437499575,"velocity":0.8031496062992126,"duration":0.13352271614581923},{"name":"F3","midi":53,"time":198.54543799999573,"velocity":0.8031496062992126,"duration":0.5426135911457948},{"name":"G#5","midi":80,"time":198.54543799999573,"velocity":0.8031496062992126,"duration":0.26988634114582055},{"name":"G5","midi":79,"time":198.8181652499957,"velocity":0.8031496062992126,"duration":0.26988634114582055},{"name":"G3","midi":55,"time":199.09089249999568,"velocity":0.8031496062992126,"duration":0.5426135911457663},{"name":"D#3","midi":51,"time":199.09089249999568,"velocity":0.8031496062992126,"duration":1.6335225911456064},{"name":"F5","midi":77,"time":199.09089249999568,"velocity":0.8031496062992126,"duration":0.26988634114582055},{"name":"D#5","midi":75,"time":199.36361974999565,"velocity":0.8031496062992126,"duration":0.13352271614581923},{"name":"F5","midi":77,"time":199.49998337499562,"velocity":0.8031496062992126,"duration":0.13352271614581923},{"name":"G#3","midi":56,"time":199.6363469999956,"velocity":0.8031496062992126,"duration":0.26988634114579213},{"name":"D#5","midi":75,"time":199.6363469999956,"velocity":0.8031496062992126,"duration":0.13352271614581923},{"name":"F5","midi":77,"time":199.77271062499557,"velocity":0.8031496062992126,"duration":0.13352271614581923},{"name":"A#3","midi":58,"time":199.90907424999554,"velocity":0.8031496062992126,"duration":0.26988634114579213},{"name":"D#5","midi":75,"time":199.90907424999554,"velocity":0.8031496062992126,"duration":0.13352271614581923},{"name":"F5","midi":77,"time":200.0454378749955,"velocity":0.8031496062992126,"duration":0.13352271614581923},{"name":"G#3","midi":56,"time":200.1818014999955,"velocity":0.8031496062992126,"duration":0.26988634114582055},{"name":"D#5","midi":75,"time":200.1818014999955,"velocity":0.8031496062992126,"duration":1.63352259114572},{"name":"G3","midi":55,"time":200.45452874999546,"velocity":0.8031496062992126,"duration":0.26988634114582055},{"name":"G#3","midi":56,"time":200.72725599999544,"velocity":0.8031496062992126,"duration":0.26988634114582055},{"name":"F3","midi":53,"time":200.9999832499954,"velocity":0.8031496062992126,"duration":0.26988634114582055},{"name":"G3","midi":55,"time":201.27271049999538,"velocity":0.8031496062992126,"duration":0.9659090104166523},{"name":"G3","midi":55,"time":202.36361949999537,"velocity":0.8031496062992126,"duration":1.0880680911457716},{"name":"D#3","midi":51,"time":202.36361949999537,"velocity":0.8031496062992126,"duration":1.63352259114572},{"name":"A#4","midi":70,"time":202.36361949999537,"velocity":0.8031496062992126,"duration":0.5426135911458232},{"name":"C5","midi":72,"time":202.90907399999534,"velocity":0.8031496062992126,"duration":0.26988634114582055},{"name":"A#4","midi":70,"time":203.18180124999532,"velocity":0.8031496062992126,"duration":0.26988634114582055},{"name":"A#3","midi":58,"time":203.4545284999953,"velocity":0.8031496062992126,"duration":2.7272724999998275},{"name":"G#4","midi":68,"time":203.4545284999953,"velocity":0.8031496062992126,"duration":0.26988634114582055},{"name":"A#4","midi":70,"time":203.72725574999527,"velocity":0.8031496062992126,"duration":0.26988634114582055},{"name":"D#3","midi":51,"time":203.99998299999524,"velocity":0.8031496062992126,"duration":0.5426135911458232},{"name":"G4","midi":67,"time":203.99998299999524,"velocity":0.8031496062992126,"duration":0.5426135911458232},{"name":"F3","midi":53,"time":204.54543749999522,"velocity":0.8031496062992126,"duration":0.5426135911457948},{"name":"D#5","midi":75,"time":204.54543749999522,"velocity":0.8031496062992126,"duration":0.26988634114582055},{"name":"D5","midi":74,"time":204.8181647499952,"velocity":0.8031496062992126,"duration":0.26988634114582055},{"name":"D#5","midi":75,"time":205.09089199999516,"velocity":0.8031496062992126,"duration":0.7954544791666365},{"name":"G3","midi":55,"time":205.09089199999516,"velocity":0.8031496062992126,"duration":0.5426135911458232},{"name":"C3","midi":48,"time":205.63634649999514,"velocity":0.8031496062992126,"duration":1.0795453645832822},{"name":"D5","midi":74,"time":205.90907374999514,"velocity":0.8031496062992126,"duration":0.26988634114582055},{"name":"G3","midi":55,"time":206.18180099999512,"velocity":0.8031496062992126,"duration":0.5426135911457948},{"name":"D#5","midi":75,"time":206.18180099999512,"velocity":0.8031496062992126,"duration":0.26988634114582055},{"name":"G5","midi":79,"time":206.4545282499951,"velocity":0.8031496062992126,"duration":0.26988634114582055},{"name":"A3","midi":57,"time":206.72725549999507,"velocity":0.8031496062992126,"duration":2.1789770911456685},{"name":"F5","midi":77,"time":206.72725549999507,"velocity":0.8031496062992126,"duration":0.26988634114582055},{"name":"D#5","midi":75,"time":206.99998274999504,"velocity":0.8031496062992126,"duration":0.26988634114582055},{"name":"D3","midi":50,"time":207.27270999999502,"velocity":0.8031496062992126,"duration":0.5426135911457948},{"name":"D5","midi":74,"time":207.27270999999502,"velocity":0.8031496062992126,"duration":0.26988634114582055},{"name":"C5","midi":72,"time":207.545437249995,"velocity":0.8031496062992126,"duration":0.26988634114582055},{"name":"D#3","midi":51,"time":207.81816449999496,"velocity":0.8031496062992126,"duration":0.5426135911457948},{"name":"A#4","midi":70,"time":207.81816449999496,"velocity":0.8031496062992126,"duration":0.26988634114582055},{"name":"A4","midi":69,"time":208.09089174999494,"velocity":0.8031496062992126,"duration":0.26988634114582055},{"name":"F3","midi":53,"time":208.3636189999949,"velocity":0.8031496062992126,"duration":0.5426135911458232},{"name":"G4","midi":67,"time":208.3636189999949,"velocity":0.8031496062992126,"duration":0.26988634114582055},{"name":"F4","midi":65,"time":208.6363462499949,"velocity":0.8031496062992126,"duration":0.227272708333345},{"name":"A#2","midi":46,"time":208.9090734999949,"velocity":0.8031496062992126,"duration":1.0511362760416034},{"name":"D#5","midi":75,"time":208.9090734999949,"velocity":0.8031496062992126,"duration":0.26988634114582055},{"name":"C5","midi":72,"time":209.18180074999486,"velocity":0.8031496062992126,"duration":0.26988634114582055},{"name":"D3","midi":50,"time":209.45452799999484,"velocity":0.8031496062992126,"duration":0.5113635937499907},{"name":"D5","midi":74,"time":209.45452799999484,"velocity":0.8031496062992126,"duration":0.26988634114582055},{"name":"A#5","midi":82,"time":209.7272552499948,"velocity":0.8031496062992126,"duration":0.269886341145849},{"name":"E3","midi":52,"time":209.99998249999481,"velocity":0.8031496062992126,"duration":0.5113635937499623},{"name":"A2","midi":45,"time":209.99998249999481,"velocity":0.8031496062992126,"duration":1.0852271822915895},{"name":"D5","midi":74,"time":209.99998249999481,"velocity":0.8031496062992126,"duration":0.26988634114582055},{"name":"A#4","midi":70,"time":210.2727097499948,"velocity":0.8031496062992126,"duration":0.26988634114582055},{"name":"F#3","midi":54,"time":210.54543699999476,"velocity":0.8031496062992126,"duration":0.5142045026041444},{"name":"C5","midi":72,"time":210.54543699999476,"velocity":0.8031496062992126,"duration":0.26988634114582055},{"name":"A5","midi":81,"time":210.81816424999474,"velocity":0.8031496062992126,"duration":0.26988634114582055},{"name":"G3","midi":55,"time":211.0908914999947,"velocity":0.8031496062992126,"duration":2.17897709114564},{"name":"C5","midi":72,"time":211.0908914999947,"velocity":0.8031496062992126,"duration":0.26988634114582055},{"name":"A4","midi":69,"time":211.36361874999469,"velocity":0.8031496062992126,"duration":0.26988634114582055},{"name":"G2","midi":43,"time":211.63634599999466,"velocity":0.8031496062992126,"duration":0.5113635937499623},{"name":"A#4","midi":70,"time":211.63634599999466,"velocity":0.8031496062992126,"duration":0.26988634114582055},{"name":"G5","midi":79,"time":211.90907324999463,"velocity":0.8031496062992126,"duration":0.26988634114582055},{"name":"C3","midi":48,"time":212.1818004999946,"velocity":0.8031496062992126,"duration":0.5426135911457948},{"name":"A#4","midi":70,"time":212.1818004999946,"velocity":0.8031496062992126,"duration":0.26988634114582055},{"name":"G4","midi":67,"time":212.45452774999458,"velocity":0.8031496062992126,"duration":0.26988634114582055},{"name":"D#3","midi":51,"time":212.72725499999456,"velocity":0.8031496062992126,"duration":0.5426135911457948},{"name":"A4","midi":69,"time":212.72725499999456,"velocity":0.8031496062992126,"duration":0.26988634114582055},{"name":"G5","midi":79,"time":212.99998224999453,"velocity":0.8031496062992126,"duration":0.25568179687499537},{"name":"D3","midi":50,"time":213.2727094999945,"velocity":0.8031496062992126,"duration":1.6335225911456916},{"name":"A3","midi":57,"time":213.2727094999945,"velocity":0.8031496062992126,"duration":0.5426135911458232},{"name":"F#5","midi":78,"time":213.2727094999945,"velocity":0.8031496062992126,"duration":0.8153408411457974},{"name":"A#3","midi":58,"time":213.81816399999448,"velocity":0.8031496062992126,"duration":0.5426135911457663},{"name":"G5","midi":79,"time":214.09089124999446,"velocity":0.8031496062992126,"duration":0.13352271614581923},{"name":"A5","midi":81,"time":214.22725487499443,"velocity":0.8031496062992126,"duration":0.13352271614581923},{"name":"C4","midi":60,"time":214.3636184999944,"velocity":0.8031496062992126,"duration":2.178977091145697},{"name":"G5","midi":79,"time":214.3636184999944,"velocity":0.8031496062992126,"duration":0.26988634114582055},{"name":"F#5","midi":78,"time":214.63634574999438,"velocity":0.8031496062992126,"duration":0.26988634114582055},{"name":"F#3","midi":54,"time":214.90907299999435,"velocity":0.8031496062992126,"duration":0.5227272291666338},{"name":"E5","midi":76,"time":214.90907299999435,"velocity":0.8031496062992126,"duration":0.26988634114582055},{"name":"D5","midi":74,"time":215.18180024999432,"velocity":0.8031496062992126,"duration":0.17045453124998744},{"name":"G3","midi":55,"time":215.45452749999433,"velocity":0.8031496062992126,"duration":2.178977091145697},{"name":"D#5","midi":75,"time":215.45452749999433,"velocity":0.8031496062992126,"duration":0.5426135911458232},{"name":"F5","midi":77,"time":215.9999819999943,"velocity":0.8031496062992126,"duration":0.26988634114582055},{"name":"D#5","midi":75,"time":216.27270924999428,"velocity":0.8031496062992126,"duration":0.26988634114582055},{"name":"A#3","midi":58,"time":216.54543649999425,"velocity":0.8031496062992126,"duration":1.0880680911457716},{"name":"D5","midi":74,"time":216.54543649999425,"velocity":0.8031496062992126,"duration":0.26988634114582055},{"name":"D#5","midi":75,"time":216.81816374999423,"velocity":0.8031496062992126,"duration":0.26988634114582055},{"name":"C5","midi":72,"time":217.0908909999942,"velocity":0.8031496062992126,"duration":0.5113635937499907},{"name":"F3","midi":53,"time":217.63634549999418,"velocity":0.8031496062992126,"duration":1.0880680911458285},{"name":"A3","midi":57,"time":217.63634549999418,"velocity":0.8031496062992126,"duration":1.0880680911458285},{"name":"D5","midi":74,"time":217.63634549999418,"velocity":0.8031496062992126,"duration":0.17897725781250529},{"name":"C5","midi":72,"time":217.81816366666084,"velocity":0.8031496062992126,"duration":0.17897725781250529},{"name":"D5","midi":74,"time":217.9999818333275,"velocity":0.8031496062992126,"duration":0.937499921875002},{"name":"G3","midi":55,"time":218.72725449999416,"velocity":0.8031496062992126,"duration":1.534090781249887},{"name":"D#3","midi":51,"time":218.72725449999416,"velocity":0.8031496062992126,"duration":1.63352259114572},{"name":"G5","midi":79,"time":218.99998174999416,"velocity":0.8031496062992126,"duration":0.26988634114582055},{"name":"D#5","midi":75,"time":219.27270899999414,"velocity":0.8031496062992126,"duration":0.26988634114582055},{"name":"B4","midi":71,"time":219.5454362499941,"velocity":0.8031496062992126,"duration":0.26988634114582055},{"name":"C5","midi":72,"time":219.81816349999409,"velocity":0.8031496062992126,"duration":0.26988634114582055},{"name":"B4","midi":71,"time":220.09089074999406,"velocity":0.8031496062992126,"duration":0.26988634114582055},{"name":"D#3","midi":51,"time":220.36361799999403,"velocity":0.8031496062992126,"duration":0.5426135911458232},{"name":"F#3","midi":54,"time":220.36361799999403,"velocity":0.8031496062992126,"duration":0.5426135911458232},{"name":"C5","midi":72,"time":220.36361799999403,"velocity":0.8031496062992126,"duration":1.8181816666665895},{"name":"D3","midi":50,"time":220.909072499994,"velocity":0.8031496062992126,"duration":0.5426135911458232},{"name":"G3","midi":55,"time":220.909072499994,"velocity":0.8031496062992126,"duration":0.5426135911458232},{"name":"C3","midi":48,"time":221.454526999994,"velocity":0.8031496062992126,"duration":0.5426135911458232},{"name":"A3","midi":57,"time":221.454526999994,"velocity":0.8031496062992126,"duration":0.5426135911458232},{"name":"D3","midi":50,"time":221.99998149999396,"velocity":0.8031496062992126,"duration":0.5426135911458232},{"name":"A#2","midi":46,"time":221.99998149999396,"velocity":0.8031496062992126,"duration":0.5426135911458232},{"name":"D#5","midi":75,"time":222.27270874999397,"velocity":0.8031496062992126,"duration":0.26988634114582055},{"name":"G2","midi":43,"time":222.54543599999394,"velocity":0.8031496062992126,"duration":0.5426135911457948},{"name":"G3","midi":55,"time":222.54543599999394,"velocity":0.8031496062992126,"duration":1.0795453645832538},{"name":"D5","midi":74,"time":222.54543599999394,"velocity":0.8031496062992126,"duration":0.26988634114582055},{"name":"A4","midi":69,"time":222.81816324999392,"velocity":0.8031496062992126,"duration":0.26988634114582055},{"name":"D3","midi":50,"time":223.0908904999939,"velocity":0.8031496062992126,"duration":2.17897709114564},{"name":"A#4","midi":70,"time":223.0908904999939,"velocity":0.8031496062992126,"duration":0.26988634114582055},{"name":"D5","midi":74,"time":223.36361774999386,"velocity":0.8031496062992126,"duration":0.26988634114582055},{"name":"F#3","midi":54,"time":223.63634499999384,"velocity":0.8031496062992126,"duration":0.26988634114582055},{"name":"C5","midi":72,"time":223.63634499999384,"velocity":0.8031496062992126,"duration":0.26988634114582055},{"name":"E3","midi":52,"time":223.9090722499938,"velocity":0.8031496062992126,"duration":0.26988634114582055},{"name":"G4","midi":67,"time":223.9090722499938,"velocity":0.8031496062992126,"duration":0.26988634114582055},{"name":"F#3","midi":54,"time":224.1817994999938,"velocity":0.8031496062992126,"duration":0.5426135911457948},{"name":"A4","midi":69,"time":224.1817994999938,"velocity":0.8031496062992126,"duration":0.26988634114582055},{"name":"C5","midi":72,"time":224.45452674999376,"velocity":0.8031496062992126,"duration":0.26988634114582055},{"name":"C4","midi":60,"time":224.72725399999374,"velocity":0.8031496062992126,"duration":1.6335225911456916},{"name":"A#4","midi":70,"time":224.72725399999374,"velocity":0.8031496062992126,"duration":0.26988634114582055},{"name":"F#4","midi":66,"time":224.9999812499937,"velocity":0.8031496062992126,"duration":0.26988634114582055},{"name":"G3","midi":55,"time":225.27270849999368,"velocity":0.8031496062992126,"duration":1.63352259114572},{"name":"G4","midi":67,"time":225.27270849999368,"velocity":0.8031496062992126,"duration":0.26988634114582055},{"name":"F#4","midi":66,"time":225.54543574999366,"velocity":0.8031496062992126,"duration":0.26988634114582055},{"name":"A4","midi":69,"time":225.81816299999363,"velocity":0.8031496062992126,"duration":0.26988634114582055},{"name":"G4","midi":67,"time":226.0908902499936,"velocity":0.8031496062992126,"duration":0.26988634114582055},{"name":"B3","midi":59,"time":226.36361749999358,"velocity":0.8031496062992126,"duration":1.0795453645833106},{"name":"G4","midi":67,"time":226.36361749999358,"velocity":0.8031496062992126,"duration":1.633522591145777},{"name":"F3","midi":53,"time":226.90907199999356,"velocity":0.8031496062992126,"duration":0.5426135911458232},{"name":"D#3","midi":51,"time":227.45452649999353,"velocity":0.8031496062992126,"duration":0.5426135911458232},{"name":"D3","midi":50,"time":227.9999809999935,"velocity":0.8031496062992126,"duration":0.5426135911458232},{"name":"C3","midi":48,"time":228.5454354999935,"velocity":0.8031496062992126,"duration":0.5426135911458232},{"name":"D#5","midi":75,"time":228.5454354999935,"velocity":0.8031496062992126,"duration":0.5426135911458232},{"name":"G3","midi":55,"time":229.09088999999346,"velocity":0.8031496062992126,"duration":0.5426135911457948},{"name":"F5","midi":77,"time":229.09088999999346,"velocity":0.8031496062992126,"duration":0.26988634114582055},{"name":"D#5","midi":75,"time":229.36361724999344,"velocity":0.8031496062992126,"duration":0.26988634114582055},{"name":"F3","midi":53,"time":229.6363444999934,"velocity":0.8031496062992126,"duration":0.5426135911457948},{"name":"D5","midi":74,"time":229.6363444999934,"velocity":0.8031496062992126,"duration":0.26988634114582055},{"name":"D#5","midi":75,"time":229.9090717499934,"velocity":0.8031496062992126,"duration":0.26988634114582055},{"name":"D#3","midi":51,"time":230.18179899999336,"velocity":0.8031496062992126,"duration":0.5426135911458232},{"name":"C5","midi":72,"time":230.18179899999336,"velocity":0.8031496062992126,"duration":0.5426135911458232},{"name":"D3","midi":50,"time":230.72725349999334,"velocity":0.8031496062992126,"duration":0.5426135911458516},{"name":"G#5","midi":80,"time":230.72725349999334,"velocity":0.8031496062992126,"duration":0.227272708333345},{"name":"G5","midi":79,"time":230.95452620832668,"velocity":0.8031496062992126,"duration":0.227272708333345},{"name":"G#5","midi":80,"time":231.18179891666003,"velocity":0.8031496062992126,"duration":0.8522726562499656},{"name":"C3","midi":48,"time":231.27270799999334,"velocity":0.8031496062992126,"duration":0.5426135911458232},{"name":"A#2","midi":46,"time":231.81816249999332,"velocity":0.8031496062992126,"duration":3.2670451822914686},{"name":"F5","midi":77,"time":232.09088974999332,"velocity":0.8031496062992126,"duration":0.26988634114582055},{"name":"A#3","midi":58,"time":232.3636169999933,"velocity":0.8031496062992126,"duration":0.5426135911457948},{"name":"C#5","midi":73,"time":232.3636169999933,"velocity":0.8031496062992126,"duration":0.26988634114582055},{"name":"C5","midi":72,"time":232.63634424999327,"velocity":0.8031496062992126,"duration":0.26988634114582055},{"name":"G#3","midi":56,"time":232.90907149999325,"velocity":0.8031496062992126,"duration":0.5426135911457948},{"name":"C#5","midi":73,"time":232.90907149999325,"velocity":0.8031496062992126,"duration":0.26988634114582055},{"name":"F5","midi":77,"time":233.18179874999322,"velocity":0.8031496062992126,"duration":0.26988634114582055},{"name":"G3","midi":55,"time":233.4545259999932,"velocity":0.8031496062992126,"duration":0.5426135911457948},{"name":"G#5","midi":80,"time":233.4545259999932,"velocity":0.8031496062992126,"duration":0.26988634114582055},{"name":"G5","midi":79,"time":233.72725324999317,"velocity":0.8031496062992126,"duration":0.26988634114582055},{"name":"F3","midi":53,"time":233.99998049999314,"velocity":0.8031496062992126,"duration":0.5426135911458232},{"name":"G5","midi":79,"time":233.99998049999314,"velocity":0.8031496062992126,"duration":1.3607953411457743},{"name":"E3","midi":52,"time":234.54543499999312,"velocity":0.8031496062992126,"duration":0.5426135911458232},{"name":"G#2","midi":44,"time":235.0908894999931,"velocity":0.8031496062992126,"duration":2.178977091145697},{"name":"E5","midi":76,"time":235.36361674999307,"velocity":0.8031496062992126,"duration":0.26988634114582055},{"name":"C3","midi":48,"time":235.63634399999304,"velocity":0.8031496062992126,"duration":0.5426135911458232},{"name":"F5","midi":77,"time":235.63634399999304,"velocity":0.8031496062992126,"duration":0.26988634114582055},{"name":"G#5","midi":80,"time":235.90907124999302,"velocity":0.8031496062992126,"duration":0.2414772526041702},{"name":"D3","midi":50,"time":236.18179849999302,"velocity":0.8031496062992126,"duration":0.5426135911457948},{"name":"A#4","midi":70,"time":236.18179849999302,"velocity":0.8031496062992126,"duration":0.26988634114582055},{"name":"C5","midi":72,"time":236.454525749993,"velocity":0.8031496062992126,"duration":0.26988634114582055},{"name":"E3","midi":52,"time":236.72725299999297,"velocity":0.8031496062992126,"duration":0.5426135911458232},{"name":"C#5","midi":73,"time":236.72725299999297,"velocity":0.8031496062992126,"duration":0.8153408411457974},{"name":"G2","midi":43,"time":237.27270749999295,"velocity":0.8031496062992126,"duration":1.0795453645832538},{"name":"F3","midi":53,"time":237.27270749999295,"velocity":0.8031496062992126,"duration":0.5426135911457948},{"name":"C5","midi":72,"time":237.54543474999292,"velocity":0.8031496062992126,"duration":0.26988634114582055},{"name":"E3","midi":52,"time":237.8181619999929,"velocity":0.8031496062992126,"duration":0.5426135911457948},{"name":"A#4","midi":70,"time":237.8181619999929,"velocity":0.8031496062992126,"duration":0.26988634114582055},{"name":"G5","midi":79,"time":238.09088924999287,"velocity":0.8031496062992126,"duration":0.26988634114582055},{"name":"F3","midi":53,"time":238.36361649999284,"velocity":0.8031496062992126,"duration":1.0880680911457432},{"name":"F2","midi":41,"time":238.36361649999284,"velocity":0.8031496062992126,"duration":1.0880680911457432},{"name":"A#4","midi":70,"time":238.36361649999284,"velocity":0.8031496062992126,"duration":0.26988634114582055},{"name":"G#4","midi":68,"time":238.63634374999282,"velocity":0.8031496062992126,"duration":0.26988634114582055},{"name":"G4","midi":67,"time":238.9090709999928,"velocity":0.8031496062992126,"duration":0.26988634114582055},{"name":"G#4","midi":68,"time":239.18179824999277,"velocity":0.8031496062992126,"duration":0.26988634114582055},{"name":"C4","midi":60,"time":239.45452549999274,"velocity":0.8031496062992126,"duration":2.55681796874984},{"name":"A#4","midi":70,"time":239.45452549999274,"velocity":0.8031496062992126,"duration":0.26988634114582055},{"name":"G4","midi":67,"time":239.72725274999272,"velocity":0.8031496062992126,"duration":0.26988634114582055},{"name":"F3","midi":53,"time":239.9999799999927,"velocity":0.8031496062992126,"duration":0.5426135911458232},{"name":"G#4","midi":68,"time":239.9999799999927,"velocity":0.8031496062992126,"duration":0.26988634114582055},{"name":"F4","midi":65,"time":240.27270724999266,"velocity":0.8031496062992126,"duration":0.2414772526041702},{"name":"G3","midi":55,"time":240.54543449999267,"velocity":0.8031496062992126,"duration":0.5426135911458232},{"name":"D5","midi":74,"time":240.54543449999267,"velocity":0.8031496062992126,"duration":1.3607953411457743},{"name":"G#3","midi":56,"time":241.09088899999264,"velocity":0.8031496062992126,"duration":0.5426135911458232},{"name":"D3","midi":50,"time":241.63634349999262,"velocity":0.8031496062992126,"duration":1.0795453645832538},{"name":"C5","midi":72,"time":241.9090707499926,"velocity":0.8031496062992126,"duration":0.26988634114582055},{"name":"F3","midi":53,"time":242.18179799999257,"velocity":0.8031496062992126,"duration":0.5426135911457948},{"name":"B4","midi":71,"time":242.18179799999257,"velocity":0.8031496062992126,"duration":0.26988634114582055},{"name":"C5","midi":72,"time":242.45452524999254,"velocity":0.8031496062992126,"duration":0.26988634114582055},{"name":"G#3","midi":56,"time":242.72725249999252,"velocity":0.8031496062992126,"duration":2.55681796874984},{"name":"D5","midi":74,"time":242.72725249999252,"velocity":0.8031496062992126,"duration":0.26988634114582055},{"name":"B4","midi":71,"time":242.9999797499925,"velocity":0.8031496062992126,"duration":0.26988634114582055},{"name":"D3","midi":50,"time":243.27270699999247,"velocity":0.8031496062992126,"duration":0.5426135911458232},{"name":"C5","midi":72,"time":243.27270699999247,"velocity":0.8031496062992126,"duration":0.26988634114582055},{"name":"A4","midi":69,"time":243.54543424999244,"velocity":0.8031496062992126,"duration":0.2414772526041702},{"name":"D#3","midi":51,"time":243.81816149999244,"velocity":0.8031496062992126,"duration":0.5426135911458232},{"name":"F5","midi":77,"time":243.81816149999244,"velocity":0.8031496062992126,"duration":1.3607953411457743},{"name":"F3","midi":53,"time":244.36361599999242,"velocity":0.8031496062992126,"duration":0.5426135911458232},{"name":"B2","midi":47,"time":244.9090704999924,"velocity":0.8031496062992126,"duration":1.0795453645832538},{"name":"D#5","midi":75,"time":245.18179774999237,"velocity":0.8031496062992126,"duration":0.26988634114582055},{"name":"F3","midi":53,"time":245.45452499999234,"velocity":0.8031496062992126,"duration":0.5426135911457948},{"name":"D5","midi":74,"time":245.45452499999234,"velocity":0.8031496062992126,"duration":0.26988634114582055},{"name":"D#5","midi":75,"time":245.72725224999232,"velocity":0.8031496062992126,"duration":0.26988634114582055},{"name":"G3","midi":55,"time":245.9999794999923,"velocity":0.8031496062992126,"duration":1.6335225911457485},{"name":"F5","midi":77,"time":245.9999794999923,"velocity":0.8031496062992126,"duration":0.26988634114582055},{"name":"D5","midi":74,"time":246.27270674999227,"velocity":0.8031496062992126,"duration":0.26988634114582055},{"name":"B2","midi":47,"time":246.54543399999224,"velocity":0.8031496062992126,"duration":0.5426135911458232},{"name":"D#5","midi":75,"time":246.54543399999224,"velocity":0.8031496062992126,"duration":0.26988634114582055},{"name":"C5","midi":72,"time":246.81816124999222,"velocity":0.8031496062992126,"duration":0.2414772526041702},{"name":"C3","midi":48,"time":247.09088849999222,"velocity":0.8031496062992126,"duration":0.5426135911458232},{"name":"G#5","midi":80,"time":247.09088849999222,"velocity":0.8031496062992126,"duration":1.249999895833298},{"name":"F3","midi":53,"time":247.6363429999922,"velocity":0.8031496062992126,"duration":0.5426135911458232},{"name":"D3","midi":50,"time":247.6363429999922,"velocity":0.8031496062992126,"duration":0.5426135911458232},{"name":"D#3","midi":51,"time":248.18179749999217,"velocity":0.8031496062992126,"duration":0.571022679687502},{"name":"G3","midi":55,"time":248.18179749999217,"velocity":0.8031496062992126,"duration":0.571022679687502},{"name":"G5","midi":79,"time":248.46588838540885,"velocity":0.8031496062992126,"duration":0.28124997656249207},{"name":"D3","midi":50,"time":248.75566108853383,"velocity":0.8031496062992126,"duration":0.5710226796874736},{"name":"B3","midi":59,"time":248.75566108853383,"velocity":0.8031496062992126,"duration":0.5710226796874736},{"name":"F#5","midi":78,"time":248.75566108853383,"velocity":0.8031496062992126,"duration":0.28124997656249207},{"name":"G5","midi":79,"time":249.0454337916588,"velocity":0.8031496062992126,"duration":0.28124997656249207},{"name":"C4","midi":60,"time":249.3352064947838,"velocity":0.8031496062992126,"duration":1.7301134921873995},{"name":"D#3","midi":51,"time":249.3352064947838,"velocity":0.8031496062992126,"duration":0.5710226796874736},{"name":"C6","midi":84,"time":249.3352064947838,"velocity":0.8031496062992126,"duration":0.28124997656249207},{"name":"B5","midi":83,"time":249.62497919790877,"velocity":0.8031496062992126,"duration":0.139204533854155},{"name":"A5","midi":81,"time":249.76986554947126,"velocity":0.8031496062992126,"duration":0.139204533854155},{"name":"F3","midi":53,"time":249.91475190103375,"velocity":0.8031496062992126,"duration":0.5710226796874736},{"name":"G5","midi":79,"time":249.91475190103375,"velocity":0.8031496062992126,"duration":0.28124997656249207},{"name":"F5","midi":77,"time":250.20452460415873,"velocity":0.8031496062992126,"duration":0.28124997656249207},{"name":"G3","midi":55,"time":250.49429730728372,"velocity":0.8031496062992126,"duration":1.1420453593749471},{"name":"F5","midi":77,"time":250.49429730728372,"velocity":0.8031496062992126,"duration":0.28124997656249207},{"name":"D#5","midi":75,"time":250.78122910155454,"velocity":0.8031496062992126,"duration":0.28124997656249207},{"name":"B3","midi":59,"time":251.07100180467953,"velocity":0.8031496062992126,"duration":0.5710226796874736},{"name":"D5","midi":74,"time":251.07100180467953,"velocity":0.8031496062992126,"duration":0.28124997656249207},{"name":"C5","midi":72,"time":251.3607745078045,"velocity":0.8031496062992126,"duration":0.28124997656249207},{"name":"C4","midi":60,"time":251.6505472109295,"velocity":0.8031496062992126,"duration":3.6704542395832505},{"name":"C5","midi":72,"time":251.6505472109295,"velocity":0.8031496062992126,"duration":0.14488635156249074},{"name":"B4","midi":71,"time":251.80395628905447,"velocity":0.8031496062992126,"duration":0.14488635156249074},{"name":"C5","midi":72,"time":251.9516835494711,"velocity":0.8031496062992126,"duration":3.124999739583302},{"name":"G3","midi":55,"time":252.2585017057211,"velocity":0.8031496062992126,"duration":0.6051135859374881},{"name":"D#3","midi":51,"time":252.87497892707526,"velocity":0.8031496062992126,"duration":0.6221590390624954},{"name":"G3","midi":55,"time":253.48861523957527,"velocity":0.8031496062992126,"duration":0.6221590390624954},{"name":"C3","midi":48,"time":254.1420242760336,"velocity":0.8031496062992126,"duration":1.6676134973958199},{"name":"C4","midi":60,"time":260.7272509999919,"velocity":0.8031496062992126,"duration":0.539772682291698},{"name":"C5","midi":72,"time":260.7272509999919,"velocity":0.8031496062992126,"duration":0.26988634114582055},{"name":"B4","midi":71,"time":261.01134188540857,"velocity":0.8031496062992126,"duration":0.2698863411458774},{"name":"C5","midi":72,"time":261.28406913540863,"velocity":0.8031496062992126,"duration":0.26988634114582055},{"name":"C3","midi":48,"time":261.28406913540863,"velocity":0.8031496062992126,"duration":0.5397726822916411},{"name":"D5","midi":74,"time":261.55679638540863,"velocity":0.8031496062992126,"duration":0.26988634114582055},{"name":"C4","midi":60,"time":261.82952363540863,"velocity":0.8031496062992126,"duration":0.5255681380208443},{"name":"D#5","midi":75,"time":261.82952363540863,"velocity":0.8031496062992126,"duration":0.26988634114582055},{"name":"F5","midi":77,"time":262.10225088540864,"velocity":0.8031496062992126,"duration":0.26988634114582055},{"name":"G5","midi":79,"time":262.37497813540864,"velocity":0.8031496062992126,"duration":0.39772723958333245},{"name":"A#3","midi":58,"time":262.37497813540864,"velocity":0.8031496062992126,"duration":0.5255681380208443},{"name":"G5","midi":79,"time":262.92043263540864,"velocity":0.8031496062992126,"duration":0.5397726822916411},{"name":"G#3","midi":56,"time":262.92043263540864,"velocity":0.8031496062992126,"duration":0.26988634114582055},{"name":"A#3","midi":58,"time":263.19315988540865,"velocity":0.8031496062992126,"duration":0.26988634114582055},{"name":"C5","midi":72,"time":263.46588713540865,"velocity":0.8031496062992126,"duration":0.5397726822916411},{"name":"C4","midi":60,"time":263.46588713540865,"velocity":0.8031496062992126,"duration":0.26988634114582055},{"name":"A#3","midi":58,"time":263.73861438540865,"velocity":0.8031496062992126,"duration":0.26988634114582055},{"name":"C5","midi":72,"time":264.01134163540866,"velocity":0.8031496062992126,"duration":0.45454541666669},{"name":"G#3","midi":56,"time":264.01134163540866,"velocity":0.8031496062992126,"duration":0.26988634114582055},{"name":"G3","midi":55,"time":264.28406888540866,"velocity":0.8031496062992126,"duration":0.2698863411458774},{"name":"C6","midi":84,"time":264.5567961354087,"velocity":0.8031496062992126,"duration":0.26988634114582055},{"name":"F3","midi":53,"time":264.5567961354087,"velocity":0.8031496062992126,"duration":0.26988634114582055},{"name":"G5","midi":79,"time":264.8295233854087,"velocity":0.8031496062992126,"duration":0.26988634114582055},{"name":"D#3","midi":51,"time":264.8295233854087,"velocity":0.8031496062992126,"duration":0.26988634114582055},{"name":"G#5","midi":80,"time":265.1022506354087,"velocity":0.8031496062992126,"duration":0.26988634114582055},{"name":"F3","midi":53,"time":265.1022506354087,"velocity":0.8031496062992126,"duration":0.5397726822916411},{"name":"G5","midi":79,"time":265.3749778854087,"velocity":0.8031496062992126,"duration":0.26988634114582055},{"name":"G#5","midi":80,"time":265.6477051354087,"velocity":0.8031496062992126,"duration":0.26988634114582055},{"name":"G3","midi":55,"time":265.6477051354087,"velocity":0.8031496062992126,"duration":0.5397726822916411},{"name":"G5","midi":79,"time":265.92043238540873,"velocity":0.8031496062992126,"duration":0.26988634114582055},{"name":"F5","midi":77,"time":266.19315963540873,"velocity":0.8031496062992126,"duration":0.26988634114582055},{"name":"G#3","midi":56,"time":266.19315963540873,"velocity":0.8031496062992126,"duration":0.5255681380208443},{"name":"D#5","midi":75,"time":266.46588688540874,"velocity":0.8031496062992126,"duration":0.26988634114582055},{"name":"D5","midi":74,"time":266.73861413540874,"velocity":0.8031496062992126,"duration":0.26988634114582055},{"name":"F3","midi":53,"time":266.73861413540874,"velocity":0.8031496062992126,"duration":0.5255681380208443},{"name":"C5","midi":72,"time":267.01134138540874,"velocity":0.8031496062992126,"duration":0.26988634114582055},{"name":"B4","midi":71,"time":267.28406863540874,"velocity":0.8031496062992126,"duration":0.26988634114582055},{"name":"G3","midi":55,"time":267.28406863540874,"velocity":0.8031496062992126,"duration":0.5397726822916411},{"name":"A4","midi":69,"time":267.55679588540875,"velocity":0.8031496062992126,"duration":0.26988634114582055},{"name":"B4","midi":71,"time":267.82952313540875,"velocity":0.8031496062992126,"duration":0.26988634114582055},{"name":"A3","midi":57,"time":267.82952313540875,"velocity":0.8031496062992126,"duration":0.5397726822916411},{"name":"C5","midi":72,"time":268.10225038540875,"velocity":0.8031496062992126,"duration":0.26988634114582055},{"name":"D5","midi":74,"time":268.37497763540875,"velocity":0.8031496062992126,"duration":0.26988634114582055},{"name":"B3","midi":59,"time":268.37497763540875,"velocity":0.8031496062992126,"duration":0.5255681380208443},{"name":"D#5","midi":75,"time":268.64770488540876,"velocity":0.8031496062992126,"duration":0.26988634114582055},{"name":"F5","midi":77,"time":268.92043213540876,"velocity":0.8031496062992126,"duration":0.26988634114582055},{"name":"G3","midi":55,"time":268.92043213540876,"velocity":0.8031496062992126,"duration":0.5255681380208443},{"name":"D5","midi":74,"time":269.19315938540876,"velocity":0.8031496062992126,"duration":0.26988634114582055},{"name":"D#5","midi":75,"time":269.46588663540876,"velocity":0.8031496062992126,"duration":0.4829545052083404},{"name":"C3","midi":48,"time":269.46588663540876,"velocity":0.8031496062992126,"duration":0.26988634114582055},{"name":"B2","midi":47,"time":269.73861388540877,"velocity":0.8031496062992126,"duration":0.26988634114582055},{"name":"C5","midi":72,"time":270.01134113540877,"velocity":0.8031496062992126,"duration":0.4829545052083404},{"name":"C3","midi":48,"time":270.01134113540877,"velocity":0.8031496062992126,"duration":0.26988634114582055},{"name":"D3","midi":50,"time":270.2840683854088,"velocity":0.8031496062992126,"duration":0.26988634114582055},{"name":"G5","midi":79,"time":270.5567956354088,"velocity":0.8031496062992126,"duration":0.5397726822916411},{"name":"D#3","midi":51,"time":270.5567956354088,"velocity":0.8031496062992126,"duration":0.26988634114582055},{"name":"F3","midi":53,"time":270.8295228854088,"velocity":0.8031496062992126,"duration":0.26988634114582055},{"name":"A#4","midi":70,"time":271.1022501354088,"velocity":0.8031496062992126,"duration":0.5397726822916411},{"name":"G3","midi":55,"time":271.1022501354088,"velocity":0.8031496062992126,"duration":0.26988634114582055},{"name":"D#3","midi":51,"time":271.3749773854088,"velocity":0.8031496062992126,"duration":0.26988634114582055},{"name":"G#4","midi":68,"time":271.6477046354088,"velocity":0.8031496062992126,"duration":0.26988634114582055},{"name":"F3","midi":53,"time":271.6477046354088,"velocity":0.8031496062992126,"duration":0.497159049479194},{"name":"G4","midi":67,"time":271.9204318854088,"velocity":0.8031496062992126,"duration":0.2698863411458774},{"name":"G#4","midi":68,"time":272.19315913540885,"velocity":0.8031496062992126,"duration":0.26988634114582055},{"name":"G#3","midi":56,"time":272.19315913540885,"velocity":0.8031496062992126,"duration":0.497159049479194},{"name":"F5","midi":77,"time":272.46588638540885,"velocity":0.8031496062992126,"duration":0.2698863411458774},{"name":"D#5","midi":75,"time":272.7386136354089,"velocity":0.8031496062992126,"duration":0.26988634114582055},{"name":"A#3","midi":58,"time":272.7386136354089,"velocity":0.8031496062992126,"duration":0.5397726822916411},{"name":"D5","midi":74,"time":273.0113408854089,"velocity":0.8031496062992126,"duration":0.26988634114582055},{"name":"C5","midi":72,"time":273.2840681354089,"velocity":0.8031496062992126,"duration":0.26988634114582055},{"name":"D3","midi":50,"time":273.2840681354089,"velocity":0.8031496062992126,"duration":0.5397726822916411},{"name":"A#4","midi":70,"time":273.5567953854089,"velocity":0.8031496062992126,"duration":0.26988634114582055},{"name":"G#5","midi":80,"time":273.8295226354089,"velocity":0.8031496062992126,"duration":0.26988634114582055},{"name":"D#3","midi":51,"time":273.8295226354089,"velocity":0.8031496062992126,"duration":0.5113635937499907},{"name":"F5","midi":77,"time":274.1022498854089,"velocity":0.8031496062992126,"duration":0.26988634114582055},{"name":"G5","midi":79,"time":274.3749771354089,"velocity":0.8031496062992126,"duration":0.26988634114582055},{"name":"G#3","midi":56,"time":274.3749771354089,"velocity":0.8031496062992126,"duration":0.5113635937499907},{"name":"D#5","midi":75,"time":274.64770438540893,"velocity":0.8031496062992126,"duration":0.26988634114582055},{"name":"G5","midi":79,"time":274.92043163540893,"velocity":0.8031496062992126,"duration":0.26988634114582055},{"name":"A#3","midi":58,"time":274.92043163540893,"velocity":0.8031496062992126,"duration":0.5397726822916411},{"name":"F5","midi":77,"time":275.19315888540893,"velocity":0.8031496062992126,"duration":0.26988634114582055},{"name":"D#5","midi":75,"time":275.46588613540894,"velocity":0.8031496062992126,"duration":0.26988634114582055},{"name":"A#2","midi":46,"time":275.46588613540894,"velocity":0.8031496062992126,"duration":0.5397726822916411},{"name":"D5","midi":74,"time":275.73861338540894,"velocity":0.8031496062992126,"duration":0.26988634114582055},{"name":"D#5","midi":75,"time":276.01134063540894,"velocity":0.8031496062992126,"duration":0.26988634114582055},{"name":"D#3","midi":51,"time":276.01134063540894,"velocity":0.8031496062992126,"duration":0.5397726822916411},{"name":"D5","midi":74,"time":276.28406788540894,"velocity":0.8031496062992126,"duration":0.26988634114582055},{"name":"D#5","midi":75,"time":276.55679513540895,"velocity":0.8031496062992126,"duration":1.3636362499999564},{"name":"A#2","midi":46,"time":276.55679513540895,"velocity":0.8031496062992126,"duration":0.5397726822916411},{"name":"D#2","midi":39,"time":277.1022496354089,"velocity":0.8031496062992126,"duration":0.9659090104166808},{"name":"G5","midi":79,"time":278.1931586354089,"velocity":0.8031496062992126,"duration":0.26988634114582055},{"name":"D#3","midi":51,"time":278.1931586354089,"velocity":0.8031496062992126,"duration":0.5397726822916411},{"name":"G#5","midi":80,"time":278.4658858854089,"velocity":0.8031496062992126,"duration":0.26988634114582055},{"name":"F3","midi":53,"time":278.7386131354089,"velocity":0.8031496062992126,"duration":0.5397726822916411},{"name":"G5","midi":79,"time":278.7386131354089,"velocity":0.8031496062992126,"duration":0.26988634114582055},{"name":"F5","midi":77,"time":279.0113403854089,"velocity":0.8031496062992126,"duration":0.26988634114582055},{"name":"G3","midi":55,"time":279.2840676354089,"velocity":0.8031496062992126,"duration":0.5113635937499907},{"name":"D#5","midi":75,"time":279.2840676354089,"velocity":0.8031496062992126,"duration":0.26988634114582055},{"name":"D5","midi":74,"time":279.5567948854089,"velocity":0.8031496062992126,"duration":0.26988634114582055},{"name":"D#3","midi":51,"time":279.8295221354089,"velocity":0.8031496062992126,"duration":0.5113635937499907},{"name":"C5","midi":72,"time":279.8295221354089,"velocity":0.8031496062992126,"duration":0.26988634114582055},{"name":"A#4","midi":70,"time":280.1022493854089,"velocity":0.8031496062992126,"duration":0.26988634114582055},{"name":"A4","midi":69,"time":280.3749766354089,"velocity":0.8031496062992126,"duration":0.26988634114582055},{"name":"F3","midi":53,"time":280.3749766354089,"velocity":0.8031496062992126,"duration":0.26988634114582055},{"name":"A#4","midi":70,"time":280.64770388540893,"velocity":0.8031496062992126,"duration":0.26988634114582055},{"name":"G3","midi":55,"time":280.64770388540893,"velocity":0.8031496062992126,"duration":0.26988634114582055},{"name":"C5","midi":72,"time":280.92043113540893,"velocity":0.8031496062992126,"duration":0.26988634114582055},{"name":"A3","midi":57,"time":280.92043113540893,"velocity":0.8031496062992126,"duration":0.26988634114582055},{"name":"A4","midi":69,"time":281.19315838540894,"velocity":0.8031496062992126,"duration":0.26988634114582055},{"name":"A#3","midi":58,"time":281.19315838540894,"velocity":0.8031496062992126,"duration":0.26988634114582055},{"name":"F4","midi":65,"time":281.46588563540894,"velocity":0.8031496062992126,"duration":0.45454541666669},{"name":"C4","midi":60,"time":281.46588563540894,"velocity":0.8031496062992126,"duration":0.26988634114582055},{"name":"D4","midi":62,"time":281.73861288540894,"velocity":0.8031496062992126,"duration":0.2698863411458774},{"name":"F5","midi":77,"time":282.011340135409,"velocity":0.8031496062992126,"duration":1.079545364583339},{"name":"D#4","midi":63,"time":282.011340135409,"velocity":0.8031496062992126,"duration":0.26988634114582055},{"name":"C4","midi":60,"time":282.284067385409,"velocity":0.8031496062992126,"duration":0.26988634114582055},{"name":"D4","midi":62,"time":282.556794635409,"velocity":0.8031496062992126,"duration":0.5426135911458232},{"name":"D#5","midi":75,"time":283.102249135409,"velocity":0.8031496062992126,"duration":0.26988634114582055},{"name":"D#4","midi":63,"time":283.102249135409,"velocity":0.8031496062992126,"duration":0.5397726822916411},{"name":"D5","midi":74,"time":283.374976385409,"velocity":0.8031496062992126,"duration":0.26988634114582055},{"name":"F4","midi":65,"time":283.647703635409,"velocity":0.8031496062992126,"duration":0.5113635937499907},{"name":"C5","midi":72,"time":283.647703635409,"velocity":0.8031496062992126,"duration":0.26988634114582055},{"name":"D5","midi":74,"time":283.920430885409,"velocity":0.8031496062992126,"duration":0.26988634114582055},{"name":"D#5","midi":75,"time":284.193158135409,"velocity":0.8031496062992126,"duration":0.26988634114582055},{"name":"F3","midi":53,"time":284.193158135409,"velocity":0.8031496062992126,"duration":0.5113635937499907},{"name":"C5","midi":72,"time":284.465885385409,"velocity":0.8031496062992126,"duration":0.26988634114582055},{"name":"D#5","midi":75,"time":284.738612635409,"velocity":0.8031496062992126,"duration":0.26988634114582055},{"name":"A#3","midi":58,"time":284.738612635409,"velocity":0.8031496062992126,"duration":0.7954544791666649},{"name":"D5","midi":74,"time":285.01133988540903,"velocity":0.8031496062992126,"duration":0.26988634114582055},{"name":"C5","midi":72,"time":285.28406713540903,"velocity":0.8031496062992126,"duration":0.26988634114582055},{"name":"A#4","midi":70,"time":285.55679438540903,"velocity":0.8031496062992126,"duration":0.26988634114582055},{"name":"A3","midi":57,"time":285.55679438540903,"velocity":0.8031496062992126,"duration":0.26988634114582055},{"name":"A#5","midi":82,"time":285.82952163540904,"velocity":0.8031496062992126,"duration":1.6335225911458338},{"name":"G3","midi":55,"time":285.82952163540904,"velocity":0.8031496062992126,"duration":0.26988634114582055},{"name":"F3","midi":53,"time":286.10224888540904,"velocity":0.8031496062992126,"duration":0.26988634114582055},{"name":"D#3","midi":51,"time":286.37497613540904,"velocity":0.8031496062992126,"duration":0.26988634114582055},{"name":"D3","midi":50,"time":286.64770338540905,"velocity":0.8031496062992126,"duration":0.26988634114582055},{"name":"C3","midi":48,"time":286.92043063540905,"velocity":0.8031496062992126,"duration":0.5426135911458232},{"name":"D3","midi":50,"time":287.46588513540905,"velocity":0.8031496062992126,"duration":0.5397726822916411},{"name":"A5","midi":81,"time":287.46588513540905,"velocity":0.8031496062992126,"duration":0.26988634114582055},{"name":"A#5","midi":82,"time":287.73861238540906,"velocity":0.8031496062992126,"duration":0.26988634114582055},{"name":"C6","midi":84,"time":288.01133963540906,"velocity":0.8031496062992126,"duration":0.26988634114582055},{"name":"D#3","midi":51,"time":288.01133963540906,"velocity":0.8031496062992126,"duration":0.5113635937499907},{"name":"A#5","midi":82,"time":288.28406688540906,"velocity":0.8031496062992126,"duration":0.26988634114582055},{"name":"C3","midi":48,"time":288.55679413540906,"velocity":0.8031496062992126,"duration":0.5113635937499907},{"name":"A5","midi":81,"time":288.55679413540906,"velocity":0.8031496062992126,"duration":0.26988634114582055},{"name":"G5","midi":79,"time":288.82952138540907,"velocity":0.8031496062992126,"duration":0.26988634114582055},{"name":"F#5","midi":78,"time":289.10224863540907,"velocity":0.8031496062992126,"duration":0.26988634114582055},{"name":"D3","midi":50,"time":289.10224863540907,"velocity":0.8031496062992126,"duration":0.5397726822916411},{"name":"G5","midi":79,"time":289.37497588540907,"velocity":0.8031496062992126,"duration":0.26988634114582055},{"name":"A5","midi":81,"time":289.6477031354091,"velocity":0.8031496062992126,"duration":0.26988634114582055},{"name":"E3","midi":52,"time":289.6477031354091,"velocity":0.8031496062992126,"duration":0.5397726822916411},{"name":"F#5","midi":78,"time":289.9204303854091,"velocity":0.8031496062992126,"duration":0.26988634114582055},{"name":"F#3","midi":54,"time":290.1931576354091,"velocity":0.8031496062992126,"duration":0.5113635937499907},{"name":"D5","midi":74,"time":290.1931576354091,"velocity":0.8031496062992126,"duration":0.26988634114582055},{"name":"F#5","midi":78,"time":290.4658848854091,"velocity":0.8031496062992126,"duration":0.26988634114582055},{"name":"D3","midi":50,"time":290.7386121354091,"velocity":0.8031496062992126,"duration":0.5113635937499907},{"name":"A5","midi":81,"time":290.7386121354091,"velocity":0.8031496062992126,"duration":0.26988634114582055},{"name":"C6","midi":84,"time":291.0113393854091,"velocity":0.8031496062992126,"duration":0.26988634114582055},{"name":"G3","midi":55,"time":291.2840666354091,"velocity":0.8031496062992126,"duration":0.5113635937499907},{"name":"A#5","midi":82,"time":291.2840666354091,"velocity":0.8031496062992126,"duration":0.13352271614581923},{"name":"A5","midi":81,"time":291.4204302604091,"velocity":0.8031496062992126,"duration":0.13352271614581923},{"name":"A#5","midi":82,"time":291.5567938854091,"velocity":0.8031496062992126,"duration":0.5397726822916411},{"name":"C3","midi":48,"time":291.8295211354091,"velocity":0.8031496062992126,"duration":0.5113635937499339},{"name":"A5","midi":81,"time":292.10224838540904,"velocity":0.8031496062992126,"duration":0.26988634114582055},{"name":"A#5","midi":82,"time":292.37497563540904,"velocity":0.8031496062992126,"duration":0.13352271614581923},{"name":"D3","midi":50,"time":292.37497563540904,"velocity":0.8031496062992126,"duration":0.5113635937499907},{"name":"A5","midi":81,"time":292.51133926040904,"velocity":0.8031496062992126,"duration":0.13352271614581923},{"name":"A#5","midi":82,"time":292.64770288540905,"velocity":0.8031496062992126,"duration":0.13352271614581923},{"name":"A5","midi":81,"time":292.78406651040905,"velocity":0.8031496062992126,"duration":0.13352271614581923},{"name":"A#5","midi":82,"time":292.92043013540905,"velocity":0.8031496062992126,"duration":0.13352271614581923},{"name":"D2","midi":38,"time":292.92043013540905,"velocity":0.8031496062992126,"duration":0.5113635937499907},{"name":"A5","midi":81,"time":293.05679376040905,"velocity":0.8031496062992126,"duration":0.13352271614581923},{"name":"G5","midi":79,"time":293.19315738540905,"velocity":0.8031496062992126,"duration":0.26988634114582055},{"name":"G5","midi":79,"time":293.46588463540905,"velocity":0.8031496062992126,"duration":1.6335225911458338},{"name":"G2","midi":43,"time":293.46588463540905,"velocity":0.8031496062992126,"duration":0.5426135911458232},{"name":"G3","midi":55,"time":294.01133913540906,"velocity":0.8031496062992126,"duration":0.26988634114582055},{"name":"A3","midi":57,"time":294.28406638540906,"velocity":0.8031496062992126,"duration":0.26988634114582055},{"name":"B3","midi":59,"time":294.55679363540906,"velocity":0.8031496062992126,"duration":0.26988634114582055},{"name":"C4","midi":60,"time":294.82952088540907,"velocity":0.8031496062992126,"duration":0.26988634114582055},{"name":"D4","midi":62,"time":295.10224813540907,"velocity":0.8031496062992126,"duration":0.26988634114582055},{"name":"B3","midi":59,"time":295.3749753854091,"velocity":0.8031496062992126,"duration":0.26988634114582055},{"name":"E5","midi":76,"time":295.6477026354091,"velocity":0.8031496062992126,"duration":0.26988634114582055},{"name":"C4","midi":60,"time":295.6477026354091,"velocity":0.8031496062992126,"duration":0.5397726822916411},{"name":"D5","midi":74,"time":295.9204298854091,"velocity":0.8031496062992126,"duration":0.26988634114582055},{"name":"C3","midi":48,"time":296.1931571354091,"velocity":0.8031496062992126,"duration":0.5397726822916411},{"name":"E5","midi":76,"time":296.1931571354091,"velocity":0.8031496062992126,"duration":0.26988634114582055},{"name":"F5","midi":77,"time":296.4658843854091,"velocity":0.8031496062992126,"duration":0.26988634114582055},{"name":"C3","midi":48,"time":296.7386116354091,"velocity":0.8031496062992126,"duration":0.5113635937499907},{"name":"G5","midi":79,"time":296.7386116354091,"velocity":0.8031496062992126,"duration":0.26988634114582055},{"name":"G#5","midi":80,"time":297.0113388854091,"velocity":0.8031496062992126,"duration":0.26988634114582055},{"name":"A#5","midi":82,"time":297.2840661354091,"velocity":0.8031496062992126,"duration":0.26988634114582055},{"name":"C4","midi":60,"time":297.2840661354091,"velocity":0.8031496062992126,"duration":0.5113635937499907},{"name":"G5","midi":79,"time":297.5567933854091,"velocity":0.8031496062992126,"duration":0.26988634114582055},{"name":"G#5","midi":80,"time":297.8295206354091,"velocity":0.8031496062992126,"duration":0.45454541666669},{"name":"F3","midi":53,"time":297.8295206354091,"velocity":0.8031496062992126,"duration":0.26988634114582055},{"name":"E3","midi":52,"time":298.1022478854091,"velocity":0.8031496062992126,"duration":0.2698863411458774},{"name":"C5","midi":72,"time":298.37497513540916,"velocity":0.8031496062992126,"duration":0.7954544791666649},{"name":"F3","midi":53,"time":298.37497513540916,"velocity":0.8031496062992126,"duration":0.26988634114582055},{"name":"G3","midi":55,"time":298.64770238540916,"velocity":0.8031496062992126,"duration":0.26988634114582055},{"name":"G#3","midi":56,"time":298.92042963540916,"velocity":0.8031496062992126,"duration":0.26988634114582055},{"name":"D5","midi":74,"time":299.19315688540917,"velocity":0.8031496062992126,"duration":0.26988634114582055},{"name":"A#3","midi":58,"time":299.19315688540917,"velocity":0.8031496062992126,"duration":0.26988634114582055},{"name":"D#5","midi":75,"time":299.46588413540917,"velocity":0.8031496062992126,"duration":0.26988634114582055},{"name":"C4","midi":60,"time":299.46588413540917,"velocity":0.8031496062992126,"duration":0.26988634114582055},{"name":"G#3","midi":56,"time":299.7386113854092,"velocity":0.8031496062992126,"duration":0.26988634114582055},{"name":"C5","midi":72,"time":299.7386113854092,"velocity":0.8031496062992126,"duration":0.26988634114582055},{"name":"D5","midi":74,"time":300.0113386354092,"velocity":0.8031496062992126,"duration":0.26988634114582055},{"name":"A#3","midi":58,"time":300.0113386354092,"velocity":0.8031496062992126,"duration":0.5397726822916411},{"name":"C5","midi":72,"time":300.2840658854092,"velocity":0.8031496062992126,"duration":0.26988634114582055},{"name":"A#2","midi":46,"time":300.5567931354092,"velocity":0.8031496062992126,"duration":0.5397726822916411},{"name":"D5","midi":74,"time":300.5567931354092,"velocity":0.8031496062992126,"duration":0.26988634114582055},{"name":"D#5","midi":75,"time":300.8295203854092,"velocity":0.8031496062992126,"duration":0.26988634114582055},{"name":"A#2","midi":46,"time":301.1022476354092,"velocity":0.8031496062992126,"duration":0.5113635937499907},{"name":"F5","midi":77,"time":301.1022476354092,"velocity":0.8031496062992126,"duration":0.26988634114582055},{"name":"G5","midi":79,"time":301.3749748854092,"velocity":0.8031496062992126,"duration":0.26988634114582055},{"name":"A#3","midi":58,"time":301.6477021354092,"velocity":0.8031496062992126,"duration":0.5113635937499907},{"name":"G#5","midi":80,"time":301.6477021354092,"velocity":0.8031496062992126,"duration":0.26988634114582055},{"name":"F5","midi":77,"time":301.9204293854092,"velocity":0.8031496062992126,"duration":0.26988634114582055},{"name":"G5","midi":79,"time":302.1931566354092,"velocity":0.8031496062992126,"duration":0.45454541666669},{"name":"D#3","midi":51,"time":302.1931566354092,"velocity":0.8031496062992126,"duration":0.26988634114582055},{"name":"D3","midi":50,"time":302.4658838854092,"velocity":0.8031496062992126,"duration":0.2698863411458774},{"name":"B4","midi":71,"time":302.73861113540926,"velocity":0.8031496062992126,"duration":0.7954544791666649},{"name":"D#3","midi":51,"time":302.73861113540926,"velocity":0.8031496062992126,"duration":0.26988634114582055},{"name":"F3","midi":53,"time":303.01133838540926,"velocity":0.8031496062992126,"duration":0.26988634114582055},{"name":"G3","midi":55,"time":303.28406563540926,"velocity":0.8031496062992126,"duration":0.26988634114582055},{"name":"C5","midi":72,"time":303.55679288540927,"velocity":0.8031496062992126,"duration":0.26988634114582055},{"name":"G#3","midi":56,"time":303.55679288540927,"velocity":0.8031496062992126,"duration":0.26988634114582055},{"name":"D5","midi":74,"time":303.82952013540927,"velocity":0.8031496062992126,"duration":0.26988634114582055},{"name":"A#3","midi":58,"time":303.82952013540927,"velocity":0.8031496062992126,"duration":0.26988634114582055},{"name":"B4","midi":71,"time":304.10224738540927,"velocity":0.8031496062992126,"duration":0.26988634114582055},{"name":"G3","midi":55,"time":304.10224738540927,"velocity":0.8031496062992126,"duration":0.26988634114582055},{"name":"C5","midi":72,"time":304.3749746354093,"velocity":0.8031496062992126,"duration":0.5397726822916411},{"name":"G#3","midi":56,"time":304.3749746354093,"velocity":0.8031496062992126,"duration":0.5397726822916411},{"name":"G5","midi":79,"time":304.6477018854093,"velocity":0.8031496062992126,"duration":0.26988634114582055},{"name":"G3","midi":55,"time":304.9204291354093,"velocity":0.8031496062992126,"duration":0.5397726822916411},{"name":"F5","midi":77,"time":304.9204291354093,"velocity":0.8031496062992126,"duration":0.26988634114582055},{"name":"D#5","midi":75,"time":305.1931563854093,"velocity":0.8031496062992126,"duration":0.26988634114582055},{"name":"G#3","midi":56,"time":305.4658836354093,"velocity":0.8031496062992126,"duration":0.5113635937499907},{"name":"F5","midi":77,"time":305.4658836354093,"velocity":0.8031496062992126,"duration":0.3124999739583245},{"name":"D5","midi":74,"time":305.7386108854093,"velocity":0.8031496062992126,"duration":0.26988634114582055},{"name":"F3","midi":53,"time":306.0113381354093,"velocity":0.8031496062992126,"duration":0.5113635937499907},{"name":"D#5","midi":75,"time":306.0113381354093,"velocity":0.8031496062992126,"duration":0.3124999739583245},{"name":"C5","midi":72,"time":306.2840653854093,"velocity":0.8031496062992126,"duration":0.26988634114582055},{"name":"G3","midi":55,"time":306.5567926354093,"velocity":0.8031496062992126,"duration":0.5397726822916411},{"name":"B4","midi":71,"time":306.5567926354093,"velocity":0.8031496062992126,"duration":0.5397726822916411},{"name":"F5","midi":77,"time":306.8295198854093,"velocity":0.8031496062992126,"duration":0.26988634114582055},{"name":"F3","midi":53,"time":307.1022471354093,"velocity":0.8031496062992126,"duration":0.5397726822916411},{"name":"D#5","midi":75,"time":307.1022471354093,"velocity":0.8031496062992126,"duration":0.26988634114582055},{"name":"D5","midi":74,"time":307.3749743854093,"velocity":0.8031496062992126,"duration":0.26988634114582055},{"name":"D#5","midi":75,"time":307.6477016354093,"velocity":0.8031496062992126,"duration":0.3124999739583245},{"name":"G3","midi":55,"time":307.6477016354093,"velocity":0.8031496062992126,"duration":0.5113635937499907},{"name":"C5","midi":72,"time":307.9204288854093,"velocity":0.8031496062992126,"duration":0.26988634114582055},{"name":"D5","midi":74,"time":308.1931561354093,"velocity":0.8031496062992126,"duration":0.3124999739583245},{"name":"D#3","midi":51,"time":308.1931561354093,"velocity":0.8031496062992126,"duration":0.5113635937499907},{"name":"A#4","midi":70,"time":308.4658833854093,"velocity":0.8031496062992126,"duration":0.26988634114582055},{"name":"F3","midi":53,"time":308.7386106354093,"velocity":0.8031496062992126,"duration":0.5397726822916411},{"name":"G#4","midi":68,"time":308.7386106354093,"velocity":0.8031496062992126,"duration":0.5397726822916411},{"name":"D#5","midi":75,"time":309.0113378854093,"velocity":0.8031496062992126,"duration":0.26988634114582055},{"name":"D5","midi":74,"time":309.2840651354093,"velocity":0.8031496062992126,"duration":0.26988634114582055},{"name":"D#3","midi":51,"time":309.2840651354093,"velocity":0.8031496062992126,"duration":0.5397726822916411},{"name":"C5","midi":72,"time":309.5567923854093,"velocity":0.8031496062992126,"duration":0.26988634114582055},{"name":"D5","midi":74,"time":309.8295196354093,"velocity":0.8031496062992126,"duration":0.3124999739583245},{"name":"F3","midi":53,"time":309.8295196354093,"velocity":0.8031496062992126,"duration":0.5113635937499907},{"name":"B4","midi":71,"time":310.10224688540933,"velocity":0.8031496062992126,"duration":0.26988634114582055},{"name":"D3","midi":50,"time":310.37497413540933,"velocity":0.8031496062992126,"duration":0.5113635937499907},{"name":"C5","midi":72,"time":310.37497413540933,"velocity":0.8031496062992126,"duration":0.3124999739583245},{"name":"G#4","midi":68,"time":310.64770138540933,"velocity":0.8031496062992126,"duration":0.26988634114582055},{"name":"G3","midi":55,"time":310.92042863540934,"velocity":0.8031496062992126,"duration":0.5397726822916411},{"name":"F4","midi":65,"time":310.92042863540934,"velocity":0.8031496062992126,"duration":0.5397726822916411},{"name":"C5","midi":72,"time":311.19315588540934,"velocity":0.8031496062992126,"duration":0.26988634114582055},{"name":"F3","midi":53,"time":311.46588313540934,"velocity":0.8031496062992126,"duration":0.5397726822916411},{"name":"B4","midi":71,"time":311.46588313540934,"velocity":0.8031496062992126,"duration":0.26988634114582055},{"name":"A4","midi":69,"time":311.73861038540934,"velocity":0.8031496062992126,"duration":0.26988634114582055},{"name":"D#3","midi":51,"time":312.01133763540935,"velocity":0.8031496062992126,"duration":0.5113635937499907},{"name":"B4","midi":71,"time":312.01133763540935,"velocity":0.8031496062992126,"duration":0.3124999739583245},{"name":"G4","midi":67,"time":312.28406488540935,"velocity":0.8031496062992126,"duration":0.26988634114582055},{"name":"G#4","midi":68,"time":312.55679213540935,"velocity":0.8031496062992126,"duration":0.26988634114582055},{"name":"D3","midi":50,"time":312.55679213540935,"velocity":0.8031496062992126,"duration":0.5113635937499907},{"name":"F4","midi":65,"time":312.82951938540936,"velocity":0.8031496062992126,"duration":0.26988634114582055},{"name":"C3","midi":48,"time":313.10224663540936,"velocity":0.8031496062992126,"duration":0.26988634114582055},{"name":"D#4","midi":63,"time":313.10224663540936,"velocity":0.8031496062992126,"duration":0.26988634114582055},{"name":"B2","midi":47,"time":313.37497388540936,"velocity":0.8031496062992126,"duration":0.26988634114582055},{"name":"D4","midi":62,"time":313.37497388540936,"velocity":0.8031496062992126,"duration":0.26988634114582055},{"name":"C3","midi":48,"time":313.64770113540936,"velocity":0.8031496062992126,"duration":0.26988634114582055},{"name":"D#4","midi":63,"time":313.64770113540936,"velocity":0.8031496062992126,"duration":0.26988634114582055},{"name":"G4","midi":67,"time":313.92042838540937,"velocity":0.8031496062992126,"duration":0.26988634114582055},{"name":"D3","midi":50,"time":313.92042838540937,"velocity":0.8031496062992126,"duration":0.26988634114582055},{"name":"C5","midi":72,"time":314.19315563540937,"velocity":0.8031496062992126,"duration":0.45454541666669},{"name":"D#3","midi":51,"time":314.19315563540937,"velocity":0.8031496062992126,"duration":0.26988634114582055},{"name":"F3","midi":53,"time":314.46588288540937,"velocity":0.8031496062992126,"duration":0.2698863411458774},{"name":"D#4","midi":63,"time":314.73861013540943,"velocity":0.8031496062992126,"duration":0.5113635937499907},{"name":"G3","midi":55,"time":314.73861013540943,"velocity":0.8031496062992126,"duration":0.5426135911458232},{"name":"D4","midi":62,"time":315.28406463540944,"velocity":0.8031496062992126,"duration":0.26988634114582055},{"name":"G3","midi":55,"time":315.28406463540944,"velocity":0.8031496062992126,"duration":0.5397726822916411},{"name":"D#4","midi":63,"time":315.55679188540944,"velocity":0.8031496062992126,"duration":0.26988634114582055},{"name":"F4","midi":65,"time":315.82951913540944,"velocity":0.8031496062992126,"duration":0.26988634114582055},{"name":"G#2","midi":44,"time":315.82951913540944,"velocity":0.8031496062992126,"duration":0.5397726822916411},{"name":"D5","midi":74,"time":316.10224638540944,"velocity":0.8031496062992126,"duration":0.26988634114582055},{"name":"G#2","midi":44,"time":316.37497363540945,"velocity":0.8031496062992126,"duration":0.45454541666669},{"name":"C5","midi":72,"time":316.37497363540945,"velocity":0.8031496062992126,"duration":0.26988634114582055},{"name":"B4","midi":71,"time":316.64770088540945,"velocity":0.8031496062992126,"duration":0.2698863411458774},{"name":"A4","midi":69,"time":316.9204281354095,"velocity":0.8031496062992126,"duration":0.26988634114582055},{"name":"C4","midi":60,"time":316.9204281354095,"velocity":0.8031496062992126,"duration":0.26988634114582055},{"name":"G4","midi":67,"time":317.1931553854095,"velocity":0.8031496062992126,"duration":0.26988634114582055},{"name":"G3","midi":55,"time":317.1931553854095,"velocity":0.8031496062992126,"duration":0.26988634114582055},{"name":"C5","midi":72,"time":317.4658826354095,"velocity":0.8031496062992126,"duration":0.26988634114582055},{"name":"G#3","midi":56,"time":317.4658826354095,"velocity":0.8031496062992126,"duration":0.7954544791666649},{"name":"B4","midi":71,"time":317.7386098854095,"velocity":0.8031496062992126,"duration":0.26988634114582055},{"name":"C5","midi":72,"time":318.0113371354095,"velocity":0.8031496062992126,"duration":0.26988634114582055},{"name":"D5","midi":74,"time":318.2840643854095,"velocity":0.8031496062992126,"duration":0.26988634114582055},{"name":"G3","midi":55,"time":318.2840643854095,"velocity":0.8031496062992126,"duration":0.26988634114582055},{"name":"D#5","midi":75,"time":318.5567916354095,"velocity":0.8031496062992126,"duration":0.26988634114582055},{"name":"F3","midi":53,"time":318.5567916354095,"velocity":0.8031496062992126,"duration":0.26988634114582055},{"name":"F5","midi":77,"time":318.8295188854095,"velocity":0.8031496062992126,"duration":0.26988634114582055},{"name":"D#3","midi":51,"time":318.8295188854095,"velocity":0.8031496062992126,"duration":0.26988634114582055},{"name":"D3","midi":50,"time":319.10224613540953,"velocity":0.8031496062992126,"duration":0.26988634114582055},{"name":"G5","midi":79,"time":319.10224613540953,"velocity":0.8031496062992126,"duration":0.26988634114582055},{"name":"C3","midi":48,"time":319.37497338540953,"velocity":0.8031496062992126,"duration":0.26988634114582055},{"name":"G#5","midi":80,"time":319.37497338540953,"velocity":0.8031496062992126,"duration":0.26988634114582055},{"name":"B2","midi":47,"time":319.64770063540954,"velocity":0.8031496062992126,"duration":0.26988634114582055},{"name":"G5","midi":79,"time":319.64770063540954,"velocity":0.8031496062992126,"duration":0.26988634114582055},{"name":"F5","midi":77,"time":319.92042788540954,"velocity":0.8031496062992126,"duration":0.26988634114582055},{"name":"A2","midi":45,"time":319.92042788540954,"velocity":0.8031496062992126,"duration":0.26988634114582055},{"name":"D#5","midi":75,"time":320.19315513540954,"velocity":0.8031496062992126,"duration":0.26988634114582055},{"name":"B2","midi":47,"time":320.19315513540954,"velocity":0.8031496062992126,"duration":0.26988634114582055},{"name":"D5","midi":74,"time":320.46588238540954,"velocity":0.8031496062992126,"duration":0.26988634114582055},{"name":"C3","midi":48,"time":320.46588238540954,"velocity":0.8031496062992126,"duration":0.26988634114582055},{"name":"C5","midi":72,"time":320.73860963540955,"velocity":0.8031496062992126,"duration":0.26988634114582055},{"name":"D3","midi":50,"time":320.73860963540955,"velocity":0.8031496062992126,"duration":0.26988634114582055},{"name":"B4","midi":71,"time":321.01133688540955,"velocity":0.8031496062992126,"duration":0.26988634114582055},{"name":"D#3","midi":51,"time":321.01133688540955,"velocity":0.8031496062992126,"duration":0.26988634114582055},{"name":"A4","midi":69,"time":321.28406413540955,"velocity":0.8031496062992126,"duration":0.26988634114582055},{"name":"F3","midi":53,"time":321.28406413540955,"velocity":0.8031496062992126,"duration":0.26988634114582055},{"name":"G4","midi":67,"time":321.55679138540955,"velocity":0.8031496062992126,"duration":0.26988634114582055},{"name":"D3","midi":50,"time":321.55679138540955,"velocity":0.8031496062992126,"duration":0.26988634114582055},{"name":"A#4","midi":70,"time":321.82951863540956,"velocity":0.8031496062992126,"duration":0.26988634114582055},{"name":"E3","midi":52,"time":321.82951863540956,"velocity":0.8031496062992126,"duration":0.26988634114582055},{"name":"G3","midi":55,"time":322.10224588540956,"velocity":0.8031496062992126,"duration":0.26988634114582055},{"name":"G4","midi":67,"time":322.10224588540956,"velocity":0.8031496062992126,"duration":0.26988634114582055},{"name":"A4","midi":69,"time":322.37497313540956,"velocity":0.8031496062992126,"duration":0.6818181250000066},{"name":"F3","midi":53,"time":322.37497313540956,"velocity":0.8031496062992126,"duration":0.26988634114582055},{"name":"D#3","midi":51,"time":322.64770038540956,"velocity":0.8031496062992126,"duration":0.26988634114582055},{"name":"D3","midi":50,"time":322.92042763540957,"velocity":0.8031496062992126,"duration":0.26988634114582055},{"name":"C5","midi":72,"time":323.19315488540957,"velocity":0.8031496062992126,"duration":0.26988634114582055},{"name":"C3","midi":48,"time":323.19315488540957,"velocity":0.8031496062992126,"duration":0.26988634114582055},{"name":"D5","midi":74,"time":323.4658821354096,"velocity":0.8031496062992126,"duration":0.26988634114582055},{"name":"B2","midi":47,"time":323.4658821354096,"velocity":0.8031496062992126,"duration":0.26988634114582055},{"name":"D#5","midi":75,"time":323.7386093854096,"velocity":0.8031496062992126,"duration":0.26988634114582055},{"name":"A2","midi":45,"time":323.7386093854096,"velocity":0.8031496062992126,"duration":0.26988634114582055},{"name":"B2","midi":47,"time":324.0113366354096,"velocity":0.8031496062992126,"duration":0.26988634114582055},{"name":"F5","midi":77,"time":324.0113366354096,"velocity":0.8031496062992126,"duration":0.26988634114582055},{"name":"D3","midi":50,"time":324.2840638854096,"velocity":0.8031496062992126,"duration":0.26988634114582055},{"name":"D5","midi":74,"time":324.2840638854096,"velocity":0.8031496062992126,"duration":0.26988634114582055},{"name":"D#5","midi":75,"time":324.5567911354096,"velocity":0.8031496062992126,"duration":0.6818181250000066},{"name":"C3","midi":48,"time":324.5567911354096,"velocity":0.8031496062992126,"duration":0.26988634114582055},{"name":"A#2","midi":46,"time":324.8295183854096,"velocity":0.8031496062992126,"duration":0.26988634114582055},{"name":"G#2","midi":44,"time":325.1022456354096,"velocity":0.8031496062992126,"duration":0.27556815885418473},{"name":"G2","midi":43,"time":325.38065470311795,"velocity":0.8031496062992126,"duration":0.27556815885418473},{"name":"D#5","midi":75,"time":325.38065470311795,"velocity":0.8031496062992126,"duration":0.27556815885418473},{"name":"F2","midi":41,"time":325.66190467968045,"velocity":0.8031496062992126,"duration":0.27556815885418473},{"name":"F5","midi":77,"time":325.66190467968045,"velocity":0.8031496062992126,"duration":0.27556815885418473},{"name":"D#2","midi":39,"time":325.94315465624294,"velocity":0.8031496062992126,"duration":0.27556815885418473},{"name":"G5","midi":79,"time":325.94315465624294,"velocity":0.8031496062992126,"duration":0.27556815885418473},{"name":"G#5","midi":80,"time":326.22440463280543,"velocity":0.8031496062992126,"duration":0.28124997656249207},{"name":"F2","midi":41,"time":326.22440463280543,"velocity":0.8031496062992126,"duration":0.28124997656249207},{"name":"F5","midi":77,"time":326.51133642707623,"velocity":0.8031496062992126,"duration":0.28124997656249207},{"name":"D2","midi":38,"time":326.51133642707623,"velocity":0.8031496062992126,"duration":0.28124997656249207},{"name":"G5","midi":79,"time":326.8011091302012,"velocity":0.8031496062992126,"duration":0.28124997656249207},{"name":"D#2","midi":39,"time":326.8011091302012,"velocity":0.8031496062992126,"duration":0.28124997656249207},{"name":"C6","midi":84,"time":327.0908818333262,"velocity":0.8031496062992126,"duration":0.28124997656249207},{"name":"C2","midi":36,"time":327.0908818333262,"velocity":0.8031496062992126,"duration":0.28124997656249207},{"name":"F5","midi":77,"time":327.3806545364512,"velocity":0.8031496062992126,"duration":0.29545452083334567},{"name":"G2","midi":43,"time":327.3806545364512,"velocity":0.8031496062992126,"duration":0.5852272239583272},{"name":"D#5","midi":75,"time":327.6817908749928,"velocity":0.8031496062992126,"duration":0.29545452083334567},{"name":"D5","midi":74,"time":327.98860903124285,"velocity":0.8031496062992126,"duration":0.29545452083334567},{"name":"G2","midi":43,"time":327.98860903124285,"velocity":0.8031496062992126,"duration":0.6136363125000344},{"name":"C5","midi":72,"time":328.29542718749286,"velocity":0.8031496062992126,"duration":0.29545452083334567},{"name":"C5","midi":72,"time":328.6363362499929,"velocity":0.8031496062992126,"duration":2.4488634322916596},{"name":"C2","midi":36,"time":328.6363362499929,"velocity":0.8031496062992126,"duration":2.4488634322916596},{"name":"G4","midi":67,"time":334.92042663540957,"velocity":0.8031496062992126,"duration":0.26988634114582055},{"name":"C3","midi":48,"time":334.92042663540957,"velocity":0.8031496062992126,"duration":0.5426135911458232},{"name":"D#5","midi":75,"time":335.1931538854096,"velocity":0.8031496062992126,"duration":0.26988634114582055},{"name":"D5","midi":74,"time":335.4658811354096,"velocity":0.8031496062992126,"duration":0.26988634114582055},{"name":"D3","midi":50,"time":335.4658811354096,"velocity":0.8031496062992126,"duration":0.5426135911458232},{"name":"C5","midi":72,"time":335.7386083854096,"velocity":0.8031496062992126,"duration":0.26988634114582055},{"name":"B4","midi":71,"time":336.0113356354096,"velocity":0.8031496062992126,"duration":0.26988634114582055},{"name":"D#3","midi":51,"time":336.0113356354096,"velocity":0.8031496062992126,"duration":0.5255681380208443},{"name":"C5","midi":72,"time":336.2840628854096,"velocity":0.8031496062992126,"duration":0.2528408880208417},{"name":"G#5","midi":80,"time":336.5567901354096,"velocity":0.8031496062992126,"duration":0.5426135911458232},{"name":"F3","midi":53,"time":336.5567901354096,"velocity":0.8031496062992126,"duration":0.26988634114582055},{"name":"F4","midi":65,"time":336.8295173854096,"velocity":0.8031496062992126,"duration":0.26988634114582055},{"name":"G5","midi":79,"time":337.1022446354096,"velocity":0.8031496062992126,"duration":0.5426135911458232},{"name":"D#4","midi":63,"time":337.1022446354096,"velocity":0.8031496062992126,"duration":0.26988634114582055},{"name":"D4","midi":62,"time":337.3749718854096,"velocity":0.8031496062992126,"duration":0.26988634114582055},{"name":"F5","midi":77,"time":337.6476991354096,"velocity":0.8031496062992126,"duration":0.5255681380208443},{"name":"C4","midi":60,"time":337.6476991354096,"velocity":0.8031496062992126,"duration":0.26988634114582055},{"name":"B3","midi":59,"time":337.9204263854096,"velocity":0.8031496062992126,"duration":0.2528408880208417},{"name":"D#5","midi":75,"time":338.1931536354096,"velocity":0.8031496062992126,"duration":0.26988634114582055},{"name":"C4","midi":60,"time":338.1931536354096,"velocity":0.8031496062992126,"duration":0.5426135911458232},{"name":"D5","midi":74,"time":338.4658808854096,"velocity":0.8031496062992126,"duration":0.26988634114582055},{"name":"F5","midi":77,"time":338.7386081354096,"velocity":0.8031496062992126,"duration":0.26988634114582055},{"name":"G#3","midi":56,"time":338.7386081354096,"velocity":0.8031496062992126,"duration":0.5426135911458232},{"name":"D#5","midi":75,"time":339.0113353854096,"velocity":0.8031496062992126,"duration":0.26988634114582055},{"name":"D5","midi":74,"time":339.2840626354096,"velocity":0.8031496062992126,"duration":0.26988634114582055},{"name":"F3","midi":53,"time":339.2840626354096,"velocity":0.8031496062992126,"duration":0.5255681380208443},{"name":"C5","midi":72,"time":339.5567898854096,"velocity":0.8031496062992126,"duration":0.2528408880208417},{"name":"B4","midi":71,"time":339.8295171354096,"velocity":0.8031496062992126,"duration":0.26988634114582055},{"name":"G3","midi":55,"time":339.8295171354096,"velocity":0.8031496062992126,"duration":0.5426135911458232},{"name":"A4","midi":69,"time":340.1022443854096,"velocity":0.8031496062992126,"duration":0.26988634114582055},{"name":"C5","midi":72,"time":340.3749716354096,"velocity":0.8031496062992126,"duration":0.26988634114582055},{"name":"A3","midi":57,"time":340.3749716354096,"velocity":0.8031496062992126,"duration":0.5426135911458232},{"name":"B4","midi":71,"time":340.6476988854096,"velocity":0.8031496062992126,"duration":0.26988634114582055},{"name":"A4","midi":69,"time":340.9204261354096,"velocity":0.8031496062992126,"duration":0.26988634114582055},{"name":"B3","midi":59,"time":340.9204261354096,"velocity":0.8031496062992126,"duration":0.5255681380208443},{"name":"G4","midi":67,"time":341.19315338540963,"velocity":0.8031496062992126,"duration":0.2528408880208417},{"name":"D#5","midi":75,"time":341.46588063540963,"velocity":0.8031496062992126,"duration":0.26988634114582055},{"name":"C4","midi":60,"time":341.46588063540963,"velocity":0.8031496062992126,"duration":0.7954544791666649},{"name":"D5","midi":74,"time":341.73860788540964,"velocity":0.8031496062992126,"duration":0.26988634114582055},{"name":"C5","midi":72,"time":342.01133513540964,"velocity":0.8031496062992126,"duration":0.26988634114582055},{"name":"D#5","midi":75,"time":342.28406238540964,"velocity":0.8031496062992126,"duration":0.26988634114582055},{"name":"G#4","midi":68,"time":342.55678963540964,"velocity":0.8031496062992126,"duration":0.26988634114582055},{"name":"C3","midi":48,"time":342.55678963540964,"velocity":0.8031496062992126,"duration":0.5426135911458232},{"name":"G4","midi":67,"time":342.82951688540965,"velocity":0.8031496062992126,"duration":0.2528408880208417},{"name":"F4","midi":65,"time":343.10224413540965,"velocity":0.8031496062992126,"duration":0.26988634114582055},{"name":"D3","midi":50,"time":343.10224413540965,"velocity":0.8031496062992126,"duration":0.7954544791666649},{"name":"F5","midi":77,"time":343.37497138540965,"velocity":0.8031496062992126,"duration":0.26988634114582055},{"name":"D#5","midi":75,"time":343.64769863540965,"velocity":0.8031496062992126,"duration":0.26988634114582055},{"name":"D5","midi":74,"time":343.92042588540966,"velocity":0.8031496062992126,"duration":0.26988634114582055},{"name":"C5","midi":72,"time":344.19315313540966,"velocity":0.8031496062992126,"duration":0.26988634114582055},{"name":"D4","midi":62,"time":344.19315313540966,"velocity":0.8031496062992126,"duration":0.5426135911458232},{"name":"A#4","midi":70,"time":344.46588038540966,"velocity":0.8031496062992126,"duration":0.2528408880208417},{"name":"G5","midi":79,"time":344.73860763540966,"velocity":0.8031496062992126,"duration":0.5255681380208443},{"name":"D#4","midi":63,"time":344.73860763540966,"velocity":0.8031496062992126,"duration":0.5426135911458232},{"name":"D#5","midi":75,"time":345.28406213540967,"velocity":0.8031496062992126,"duration":0.5255681380208443},{"name":"G#3","midi":56,"time":345.28406213540967,"velocity":0.8031496062992126,"duration":0.5426135911458232},{"name":"D#5","midi":75,"time":345.8295166354097,"velocity":0.8031496062992126,"duration":0.13352271614581923},{"name":"A#3","midi":58,"time":345.8295166354097,"velocity":0.8031496062992126,"duration":0.5255681380208443},{"name":"D5","midi":74,"time":345.9658802604097,"velocity":0.8031496062992126,"duration":0.13352271614581923},{"name":"C5","midi":72,"time":346.1022438854097,"velocity":0.8031496062992126,"duration":0.13352271614581923},{"name":"D5","midi":74,"time":346.2386075104097,"velocity":0.8031496062992126,"duration":0.13352271614581923},{"name":"D#5","midi":75,"time":346.3749711354097,"velocity":0.8031496062992126,"duration":1.079545364583339},{"name":"D#3","midi":51,"time":346.3749711354097,"velocity":0.8031496062992126,"duration":0.5426135911458232},{"name":"A#2","midi":46,"time":346.9204256354097,"velocity":0.8031496062992126,"duration":0.5426135911458232},{"name":"D#2","midi":39,"time":347.4658801354097,"velocity":0.8031496062992126,"duration":0.5255681380208443},{"name":"A#4","midi":70,"time":348.0113346354097,"velocity":0.8031496062992126,"duration":0.26988634114582055},{"name":"D#3","midi":51,"time":348.0113346354097,"velocity":0.8031496062992126,"duration":0.5426135911458232},{"name":"G5","midi":79,"time":348.2840618854097,"velocity":0.8031496062992126,"duration":0.26988634114582055},{"name":"F5","midi":77,"time":348.5567891354097,"velocity":0.8031496062992126,"duration":0.26988634114582055},{"name":"F3","midi":53,"time":348.5567891354097,"velocity":0.8031496062992126,"duration":0.5426135911458232},{"name":"D#5","midi":75,"time":348.8295163854097,"velocity":0.8031496062992126,"duration":0.26988634114582055},{"name":"D5","midi":74,"time":349.1022436354097,"velocity":0.8031496062992126,"duration":0.26988634114582055},{"name":"G3","midi":55,"time":349.1022436354097,"velocity":0.8031496062992126,"duration":0.5255681380208443},{"name":"D#5","midi":75,"time":349.3749708854097,"velocity":0.8031496062992126,"duration":0.2528408880208417},{"name":"A#4","midi":70,"time":349.6476981354097,"velocity":0.8031496062992126,"duration":0.26988634114582055},{"name":"D3","midi":50,"time":349.6476981354097,"velocity":0.8031496062992126,"duration":1.079545364583339},{"name":"G#5","midi":80,"time":349.9204253854097,"velocity":0.8031496062992126,"duration":0.26988634114582055},{"name":"G5","midi":79,"time":350.1931526354097,"velocity":0.8031496062992126,"duration":0.26988634114582055},{"name":"F5","midi":77,"time":350.4658798854097,"velocity":0.8031496062992126,"duration":0.26988634114582055},{"name":"D#5","midi":75,"time":350.7386071354097,"velocity":0.8031496062992126,"duration":0.26988634114582055},{"name":"F5","midi":77,"time":351.0113343854097,"velocity":0.8031496062992126,"duration":0.2528408880208417},{"name":"A#4","midi":70,"time":351.2840616354097,"velocity":0.8031496062992126,"duration":0.26988634114582055},{"name":"D#3","midi":51,"time":351.2840616354097,"velocity":0.8031496062992126,"duration":0.5426135911458232},{"name":"A#5","midi":82,"time":351.55678888540973,"velocity":0.8031496062992126,"duration":0.26988634114582055},{"name":"G#5","midi":80,"time":351.82951613540973,"velocity":0.8031496062992126,"duration":0.26988634114582055},{"name":"C3","midi":48,"time":351.82951613540973,"velocity":0.8031496062992126,"duration":0.5426135911458232},{"name":"G5","midi":79,"time":352.10224338540974,"velocity":0.8031496062992126,"duration":0.26988634114582055},{"name":"F5","midi":77,"time":352.37497063540974,"velocity":0.8031496062992126,"duration":0.26988634114582055},{"name":"G#2","midi":44,"time":352.37497063540974,"velocity":0.8031496062992126,"duration":0.5255681380208443},{"name":"G5","midi":79,"time":352.64769788540974,"velocity":0.8031496062992126,"duration":0.2528408880208417},{"name":"D#5","midi":75,"time":352.92042513540974,"velocity":0.8031496062992126,"duration":0.26988634114582055},{"name":"A#2","midi":46,"time":352.92042513540974,"velocity":0.8031496062992126,"duration":0.26988634114582055},{"name":"D5","midi":74,"time":353.19315238540975,"velocity":0.8031496062992126,"duration":0.26988634114582055},{"name":"A#3","midi":58,"time":353.19315238540975,"velocity":0.8031496062992126,"duration":0.26988634114582055},{"name":"C5","midi":72,"time":353.46587963540975,"velocity":0.8031496062992126,"duration":0.26988634114582055},{"name":"G#3","midi":56,"time":353.46587963540975,"velocity":0.8031496062992126,"duration":0.26988634114582055},{"name":"D5","midi":74,"time":353.73860688540975,"velocity":0.8031496062992126,"duration":0.26988634114582055},{"name":"G3","midi":55,"time":353.73860688540975,"velocity":0.8031496062992126,"duration":0.26988634114582055},{"name":"A#4","midi":70,"time":354.01133413540975,"velocity":0.8031496062992126,"duration":0.4829545052083404},{"name":"F3","midi":53,"time":354.01133413540975,"velocity":0.8031496062992126,"duration":0.26988634114582055},{"name":"G3","midi":55,"time":354.28406138540976,"velocity":0.8031496062992126,"duration":0.26988634114582055},{"name":"G5","midi":79,"time":354.55678863540976,"velocity":0.8031496062992126,"duration":0.26988634114582055},{"name":"E3","midi":52,"time":354.55678863540976,"velocity":0.8031496062992126,"duration":1.079545364583339},{"name":"F5","midi":77,"time":354.82951588540976,"velocity":0.8031496062992126,"duration":0.26988634114582055},{"name":"E5","midi":76,"time":355.10224313540976,"velocity":0.8031496062992126,"duration":0.26988634114582055},{"name":"G5","midi":79,"time":355.37497038540977,"velocity":0.8031496062992126,"duration":0.26988634114582055},{"name":"C#5","midi":73,"time":355.64769763540977,"velocity":0.8031496062992126,"duration":0.26988634114582055},{"name":"C5","midi":72,"time":355.9204248854098,"velocity":0.8031496062992126,"duration":0.2528408880208417},{"name":"A#4","midi":70,"time":356.1931521354098,"velocity":0.8031496062992126,"duration":0.26988634114582055},{"name":"C3","midi":48,"time":356.1931521354098,"velocity":0.8031496062992126,"duration":0.5426135911458232},{"name":"G5","midi":79,"time":356.4658793854098,"velocity":0.8031496062992126,"duration":0.26988634114582055},{"name":"F5","midi":77,"time":356.7386066354098,"velocity":0.8031496062992126,"duration":0.26988634114582055},{"name":"D3","midi":50,"time":356.7386066354098,"velocity":0.8031496062992126,"duration":0.5426135911458232},{"name":"E5","midi":76,"time":357.0113338854098,"velocity":0.8031496062992126,"duration":0.26988634114582055},{"name":"D5","midi":74,"time":357.2840611354098,"velocity":0.8031496062992126,"duration":0.26988634114582055},{"name":"E3","midi":52,"time":357.2840611354098,"velocity":0.8031496062992126,"duration":0.5255681380208443},{"name":"C5","midi":72,"time":357.5567883854098,"velocity":0.8031496062992126,"duration":0.2528408880208417},{"name":"F5","midi":77,"time":357.8295156354098,"velocity":0.8031496062992126,"duration":0.13352271614581923},{"name":"F3","midi":53,"time":357.8295156354098,"velocity":0.8031496062992126,"duration":0.5426135911458232},{"name":"G5","midi":79,"time":357.9658792604098,"velocity":0.8031496062992126,"duration":0.13352271614581923},{"name":"G#5","midi":80,"time":358.1022428854098,"velocity":0.8031496062992126,"duration":0.26988634114582055},{"name":"G5","midi":79,"time":358.3749701354098,"velocity":0.8031496062992126,"duration":0.26988634114582055},{"name":"C4","midi":60,"time":358.3749701354098,"velocity":0.8031496062992126,"duration":0.5426135911458232},{"name":"F5","midi":77,"time":358.6476973854098,"velocity":0.8031496062992126,"duration":0.26988634114582055},{"name":"G5","midi":79,"time":358.9204246354098,"velocity":0.8031496062992126,"duration":0.26988634114582055},{"name":"C3","midi":48,"time":358.9204246354098,"velocity":0.8031496062992126,"duration":0.5255681380208443},{"name":"E5","midi":76,"time":359.1931518854098,"velocity":0.8031496062992126,"duration":0.2528408880208417},{"name":"F5","midi":77,"time":359.4658791354098,"velocity":0.8031496062992126,"duration":0.7954544791666649},{"name":"F3","midi":53,"time":359.4658791354098,"velocity":0.8031496062992126,"duration":0.26988634114582055},{"name":"C#4","midi":61,"time":359.7386063854098,"velocity":0.8031496062992126,"duration":0.26988634114582055},{"name":"C4","midi":60,"time":360.0113336354098,"velocity":0.8031496062992126,"duration":0.26988634114582055},{"name":"A#3","midi":58,"time":360.2840608854098,"velocity":0.8031496062992126,"duration":0.26988634114582055},{"name":"G#3","midi":56,"time":360.5567881354098,"velocity":0.8031496062992126,"duration":0.26988634114582055},{"name":"C4","midi":60,"time":360.8295153854098,"velocity":0.8031496062992126,"duration":0.2528408880208417},{"name":"G#5","midi":80,"time":361.1022426354098,"velocity":0.8031496062992126,"duration":0.26988634114582055},{"name":"F3","midi":53,"time":361.1022426354098,"velocity":0.8031496062992126,"duration":0.5426135911458232},{"name":"G5","midi":79,"time":361.3749698854098,"velocity":0.8031496062992126,"duration":0.26988634114582055},{"name":"F5","midi":77,"time":361.6476971354098,"velocity":0.8031496062992126,"duration":0.26988634114582055},{"name":"G#3","midi":56,"time":361.6476971354098,"velocity":0.8031496062992126,"duration":0.5426135911458232},{"name":"G#5","midi":80,"time":361.92042438540983,"velocity":0.8031496062992126,"duration":0.26988634114582055},{"name":"D5","midi":74,"time":362.19315163540983,"velocity":0.8031496062992126,"duration":0.26988634114582055},{"name":"F3","midi":53,"time":362.19315163540983,"velocity":0.8031496062992126,"duration":0.5255681380208443},{"name":"C5","midi":72,"time":362.46587888540984,"velocity":0.8031496062992126,"duration":0.2528408880208417},{"name":"A#4","midi":70,"time":362.73860613540984,"velocity":0.8031496062992126,"duration":0.26988634114582055},{"name":"D3","midi":50,"time":362.73860613540984,"velocity":0.8031496062992126,"duration":0.5426135911458232},{"name":"D5","midi":74,"time":363.01133338540984,"velocity":0.8031496062992126,"duration":0.26988634114582055},{"name":"F5","midi":77,"time":363.28406063540984,"velocity":0.8031496062992126,"duration":0.26988634114582055},{"name":"A#2","midi":46,"time":363.28406063540984,"velocity":0.8031496062992126,"duration":0.5426135911458232},{"name":"G#5","midi":80,"time":363.55678788540985,"velocity":0.8031496062992126,"duration":0.26988634114582055},{"name":"G5","midi":79,"time":363.82951513540985,"velocity":0.8031496062992126,"duration":0.26988634114582055},{"name":"D3","midi":50,"time":363.82951513540985,"velocity":0.8031496062992126,"duration":0.5255681380208443},{"name":"F5","midi":77,"time":364.10224238540985,"velocity":0.8031496062992126,"duration":0.2528408880208417},{"name":"G5","midi":79,"time":364.37496963540985,"velocity":0.8031496062992126,"duration":0.26988634114582055},{"name":"D#3","midi":51,"time":364.37496963540985,"velocity":0.8031496062992126,"duration":0.5426135911458232},{"name":"F5","midi":77,"time":364.64769688540986,"velocity":0.8031496062992126,"duration":0.26988634114582055},{"name":"D#5","midi":75,"time":364.92042413540986,"velocity":0.8031496062992126,"duration":0.26988634114582055},{"name":"G3","midi":55,"time":364.92042413540986,"velocity":0.8031496062992126,"duration":0.5426135911458232},{"name":"G5","midi":79,"time":365.19315138540986,"velocity":0.8031496062992126,"duration":0.26988634114582055},{"name":"C5","midi":72,"time":365.46587863540987,"velocity":0.8031496062992126,"duration":0.26988634114582055},{"name":"D#3","midi":51,"time":365.46587863540987,"velocity":0.8031496062992126,"duration":0.5255681380208443},{"name":"A#4","midi":70,"time":365.73860588540987,"velocity":0.8031496062992126,"duration":0.2528408880208417},{"name":"G#4","midi":68,"time":366.01133313540987,"velocity":0.8031496062992126,"duration":0.26988634114582055},{"name":"C3","midi":48,"time":366.01133313540987,"velocity":0.8031496062992126,"duration":0.5426135911458232},{"name":"C5","midi":72,"time":366.2840603854099,"velocity":0.8031496062992126,"duration":0.26988634114582055},{"name":"D#5","midi":75,"time":366.5567876354099,"velocity":0.8031496062992126,"duration":0.26988634114582055},{"name":"G#2","midi":44,"time":366.5567876354099,"velocity":0.8031496062992126,"duration":0.5426135911458232},{"name":"G5","midi":79,"time":366.8295148854099,"velocity":0.8031496062992126,"duration":0.26988634114582055},{"name":"F5","midi":77,"time":367.1022421354099,"velocity":0.8031496062992126,"duration":0.26988634114582055},{"name":"C3","midi":48,"time":367.1022421354099,"velocity":0.8031496062992126,"duration":0.5255681380208443},{"name":"D#5","midi":75,"time":367.3749693854099,"velocity":0.8031496062992126,"duration":0.2528408880208417},{"name":"F5","midi":77,"time":367.6476966354099,"velocity":0.8031496062992126,"duration":0.26988634114582055},{"name":"D3","midi":50,"time":367.6476966354099,"velocity":0.8031496062992126,"duration":0.5426135911458232},{"name":"D#5","midi":75,"time":367.9204238854099,"velocity":0.8031496062992126,"duration":0.26988634114582055},{"name":"D5","midi":74,"time":368.1931511354099,"velocity":0.8031496062992126,"duration":0.26988634114582055},{"name":"F3","midi":53,"time":368.1931511354099,"velocity":0.8031496062992126,"duration":0.5426135911458232},{"name":"F5","midi":77,"time":368.4658783854099,"velocity":0.8031496062992126,"duration":0.26988634114582055},{"name":"B4","midi":71,"time":368.7386056354099,"velocity":0.8031496062992126,"duration":0.26988634114582055},{"name":"D3","midi":50,"time":368.7386056354099,"velocity":0.8031496062992126,"duration":0.5255681380208443},{"name":"A4","midi":69,"time":369.0113328854099,"velocity":0.8031496062992126,"duration":0.2528408880208417},{"name":"G4","midi":67,"time":369.2840601354099,"velocity":0.8031496062992126,"duration":0.26988634114582055},{"name":"B2","midi":47,"time":369.2840601354099,"velocity":0.8031496062992126,"duration":0.5426135911458232},{"name":"B4","midi":71,"time":369.5567873854099,"velocity":0.8031496062992126,"duration":0.26988634114582055},{"name":"D5","midi":74,"time":369.8295146354099,"velocity":0.8031496062992126,"duration":0.26988634114582055},{"name":"G2","midi":43,"time":369.8295146354099,"velocity":0.8031496062992126,"duration":0.5426135911458232},{"name":"F5","midi":77,"time":370.1022418854099,"velocity":0.8031496062992126,"duration":0.26988634114582055},{"name":"D#5","midi":75,"time":370.3749691354099,"velocity":0.8031496062992126,"duration":0.26988634114582055},{"name":"B2","midi":47,"time":370.3749691354099,"velocity":0.8031496062992126,"duration":0.5255681380208443},{"name":"D5","midi":74,"time":370.6476963854099,"velocity":0.8031496062992126,"duration":0.2528408880208417},{"name":"D#5","midi":75,"time":370.9204236354099,"velocity":0.8031496062992126,"duration":0.26988634114582055},{"name":"C3","midi":48,"time":370.9204236354099,"velocity":0.8031496062992126,"duration":0.5426135911458232},{"name":"C5","midi":72,"time":371.1931508854099,"velocity":0.8031496062992126,"duration":0.26988634114582055},{"name":"F4","midi":65,"time":371.4658781354099,"velocity":0.8031496062992126,"duration":0.26988634114582055},{"name":"G#3","midi":56,"time":371.4658781354099,"velocity":0.8031496062992126,"duration":0.5426135911458232},{"name":"D#5","midi":75,"time":371.7386053854099,"velocity":0.8031496062992126,"duration":0.26988634114582055},{"name":"D5","midi":74,"time":372.01133263540993,"velocity":0.8031496062992126,"duration":0.26988634114582055},{"name":"F3","midi":53,"time":372.01133263540993,"velocity":0.8031496062992126,"duration":0.5255681380208443},{"name":"C5","midi":72,"time":372.28405988540993,"velocity":0.8031496062992126,"duration":0.2528408880208417},{"name":"B4","midi":71,"time":372.55678713540993,"velocity":0.8031496062992126,"duration":0.26988634114582055},{"name":"G3","midi":55,"time":372.55678713540993,"velocity":0.8031496062992126,"duration":1.079545364583339},{"name":"A4","midi":69,"time":372.82951438540994,"velocity":0.8031496062992126,"duration":0.26988634114582055},{"name":"C5","midi":72,"time":373.10224163540994,"velocity":0.8031496062992126,"duration":0.26988634114582055},{"name":"G2","midi":43,"time":373.10224163540994,"velocity":0.8031496062992126,"duration":0.5397726822916411},{"name":"B4","midi":71,"time":373.37496888540994,"velocity":0.8031496062992126,"duration":0.26988634114582055},{"name":"A4","midi":69,"time":373.64769613540994,"velocity":0.8031496062992126,"duration":0.26988634114582055},{"name":"G4","midi":67,"time":373.92042338540995,"velocity":0.8031496062992126,"duration":0.2528408880208417},{"name":"E5","midi":76,"time":374.19315063540995,"velocity":0.8031496062992126,"duration":0.14488635156249074},{"name":"D3","midi":50,"time":374.19315063540995,"velocity":0.8031496062992126,"duration":0.26988634114582055},{"name":"F5","midi":77,"time":374.3408778958266,"velocity":0.8031496062992126,"duration":0.14488635156249074},{"name":"G#3","midi":56,"time":374.46587788540995,"velocity":0.8031496062992126,"duration":0.2698863411458774},{"name":"G5","midi":79,"time":374.4886051562433,"velocity":0.8031496062992126,"duration":0.14488635156249074},{"name":"F5","midi":77,"time":374.63633241665997,"velocity":0.8031496062992126,"duration":0.1448863515625476},{"name":"G3","midi":55,"time":374.73860513541,"velocity":0.8031496062992126,"duration":0.26988634114582055},{"name":"G5","midi":79,"time":374.7869005859308,"velocity":0.8031496062992126,"duration":0.14488635156249074},{"name":"F5","midi":77,"time":374.9346278463475,"velocity":0.8031496062992126,"duration":0.14488635156249074},{"name":"F3","midi":53,"time":375.01133238541,"velocity":0.8031496062992126,"duration":0.2698863411457637},{"name":"G5","midi":79,"time":375.08235510676417,"velocity":0.8031496062992126,"duration":0.14488635156249074},{"name":"F5","midi":77,"time":375.23292327603497,"velocity":0.8031496062992126,"duration":0.14488635156249074},{"name":"E3","midi":52,"time":375.28405963540996,"velocity":0.8031496062992126,"duration":0.2698863411458774},{"name":"G5","midi":79,"time":375.38065053645164,"velocity":0.8031496062992126,"duration":0.14488635156249074},{"name":"F5","midi":77,"time":375.5283777968683,"velocity":0.8031496062992126,"duration":0.1448863515625476},{"name":"F3","midi":53,"time":375.55678688541,"velocity":0.8031496062992126,"duration":0.2528408880208417},{"name":"G5","midi":79,"time":375.67894596613917,"velocity":0.8031496062992126,"duration":0.1448863515625476},{"name":"F5","midi":77,"time":375.8266732265559,"velocity":0.8031496062992126,"duration":0.14488635156249074},{"name":"C3","midi":48,"time":375.8295141354101,"velocity":0.8031496062992126,"duration":0.26988634114582055},{"name":"G5","midi":79,"time":375.97440048697257,"velocity":0.8031496062992126,"duration":0.14488635156249074},{"name":"G#3","midi":56,"time":376.1022413854101,"velocity":0.8031496062992126,"duration":0.26988634114582055},{"name":"F5","midi":77,"time":376.12496865624337,"velocity":0.8031496062992126,"duration":0.14488635156249074},{"name":"G5","midi":79,"time":376.27269591666004,"velocity":0.8031496062992126,"duration":0.1448863515625476},{"name":"G3","midi":55,"time":376.3749686354101,"velocity":0.8031496062992126,"duration":0.26988634114582055},{"name":"F5","midi":77,"time":376.42042317707677,"velocity":0.8031496062992126,"duration":0.14488635156249074},{"name":"G5","midi":79,"time":376.57099134634757,"velocity":0.8031496062992126,"duration":0.14488635156249074},{"name":"F3","midi":53,"time":376.6476958854101,"velocity":0.8031496062992126,"duration":0.26988634114582055},{"name":"F5","midi":77,"time":376.71871860676424,"velocity":0.8031496062992126,"duration":0.14488635156249074},{"name":"G5","midi":79,"time":376.8664458671809,"velocity":0.8031496062992126,"duration":0.14488635156249074},{"name":"E3","midi":52,"time":376.9204231354101,"velocity":0.8031496062992126,"duration":0.26988634114582055},{"name":"F5","midi":77,"time":377.0170140364517,"velocity":0.8031496062992126,"duration":0.14488635156249074},{"name":"E5","midi":76,"time":377.1647412968684,"velocity":0.8031496062992126,"duration":0.1448863515625476},{"name":"F3","midi":53,"time":377.1931503854101,"velocity":0.8031496062992126,"duration":0.2528408880208417},{"name":"F5","midi":77,"time":377.3124685572851,"velocity":0.8031496062992126,"duration":0.4176136015624934},{"name":"B2","midi":47,"time":377.4658776354101,"velocity":0.8031496062992126,"duration":0.5426135911458232},{"name":"G#5","midi":80,"time":377.7386048854101,"velocity":0.8031496062992126,"duration":0.26988634114582055},{"name":"G5","midi":79,"time":378.0113321354101,"velocity":0.8031496062992126,"duration":0.26988634114582055},{"name":"C3","midi":48,"time":378.0113321354101,"velocity":0.8031496062992126,"duration":0.5426135911458232},{"name":"F5","midi":77,"time":378.2840593854101,"velocity":0.8031496062992126,"duration":0.26988634114582055},{"name":"E5","midi":76,"time":378.5567866354101,"velocity":0.8031496062992126,"duration":0.26988634114582055},{"name":"D3","midi":50,"time":378.5567866354101,"velocity":0.8031496062992126,"duration":0.5255681380208443},{"name":"F5","midi":77,"time":378.8295138854101,"velocity":0.8031496062992126,"duration":0.2528408880208417},{"name":"B5","midi":83,"time":379.1022411354101,"velocity":0.8031496062992126,"duration":0.26988634114582055},{"name":"G2","midi":43,"time":379.1022411354101,"velocity":0.8031496062992126,"duration":0.5426135911458232},{"name":"G#5","midi":80,"time":379.3749683854101,"velocity":0.8031496062992126,"duration":0.26988634114582055},{"name":"G5","midi":79,"time":379.6476956354101,"velocity":0.8031496062992126,"duration":0.26988634114582055},{"name":"A2","midi":45,"time":379.6476956354101,"velocity":0.8031496062992126,"duration":0.5426135911458232},{"name":"F5","midi":77,"time":379.9204228854101,"velocity":0.8031496062992126,"duration":0.26988634114582055},{"name":"D#5","midi":75,"time":380.1931501354101,"velocity":0.8031496062992126,"duration":0.26988634114582055},{"name":"B2","midi":47,"time":380.1931501354101,"velocity":0.8031496062992126,"duration":0.5255681380208443},{"name":"D5","midi":74,"time":380.4658773854101,"velocity":0.8031496062992126,"duration":0.2528408880208417},{"name":"C3","midi":48,"time":380.7386046354101,"velocity":0.8031496062992126,"duration":1.1107953619791715},{"name":"D#5","midi":75,"time":380.7386046354101,"velocity":0.8031496062992126,"duration":0.27556815885418473},{"name":"D5","midi":74,"time":381.0170137031185,"velocity":0.8031496062992126,"duration":0.27556815885418473},{"name":"C5","midi":72,"time":381.298263679681,"velocity":0.8031496062992126,"duration":0.27556815885418473},{"name":"D#5","midi":75,"time":381.5795136562435,"velocity":0.8031496062992126,"duration":0.2755681588541279},{"name":"G#4","midi":68,"time":381.8607636328059,"velocity":0.8031496062992126,"duration":0.27556815885418473},{"name":"G4","midi":67,"time":382.1420136093684,"velocity":0.8031496062992126,"duration":0.25852270572914904},{"name":"F4","midi":65,"time":382.4232635859309,"velocity":0.8031496062992126,"duration":0.28124997656249207},{"name":"D3","midi":50,"time":382.4232635859309,"velocity":0.8031496062992126,"duration":1.1420453593749471},{"name":"D#5","midi":75,"time":382.7101953802017,"velocity":0.8031496062992126,"duration":0.28124997656249207},{"name":"D5","midi":74,"time":382.9999680833267,"velocity":0.8031496062992126,"duration":0.28124997656249207},{"name":"C5","midi":72,"time":383.28974078645166,"velocity":0.8031496062992126,"duration":0.28124997656249207},{"name":"B4","midi":71,"time":383.57951348957664,"velocity":0.8031496062992126,"duration":0.28124997656249207},{"name":"G#5","midi":80,"time":383.8692861927016,"velocity":0.8031496062992126,"duration":0.2642045234375132},{"name":"G5","midi":79,"time":384.15905889582666,"velocity":0.8031496062992126,"duration":0.6051135859374881},{"name":"D#3","midi":51,"time":384.15905889582666,"velocity":0.8031496062992126,"duration":0.6051135859374881},{"name":"F5","midi":77,"time":384.76701339061833,"velocity":0.8031496062992126,"duration":0.29545452083334567},{"name":"F3","midi":53,"time":384.76701339061833,"velocity":0.8031496062992126,"duration":0.6051135859375449},{"name":"D#5","midi":75,"time":385.07383154686835,"velocity":0.8031496062992126,"duration":0.29545452083334567},{"name":"D5","midi":74,"time":385.38064970311837,"velocity":0.8031496062992126,"duration":0.29545452083334567},{"name":"G3","midi":55,"time":385.38064970311837,"velocity":0.8031496062992126,"duration":0.6136363125000344},{"name":"D#5","midi":75,"time":385.6874678593684,"velocity":0.8031496062992126,"duration":0.29545452083334567},{"name":"C5","midi":72,"time":386.01417237759756,"velocity":0.8031496062992126,"duration":1.8323862109375},{"name":"C3","midi":48,"time":386.01417237759756,"velocity":0.8031496062992126,"duration":1.8323862109375},{"name":"C5","midi":72,"time":390.54826290884756,"velocity":0.8031496062992126,"duration":0.11931817187502247},{"name":"G4","midi":67,"time":390.67042198957677,"velocity":0.8031496062992126,"duration":0.36079542447919266},{"name":"C5","midi":72,"time":391.03405832291014,"velocity":0.8031496062992126,"duration":0.602272677083306},{"name":"G3","midi":55,"time":391.63917190884763,"velocity":0.8031496062992126,"duration":0.11931817187502247},{"name":"D5","midi":74,"time":391.63917190884763,"velocity":0.8031496062992126,"duration":0.11931817187502247},{"name":"C3","midi":48,"time":391.76133098957683,"velocity":0.8031496062992126,"duration":0.36079542447919266},{"name":"D#5","midi":75,"time":391.76133098957683,"velocity":0.8031496062992126,"duration":0.36079542447919266},{"name":"F3","midi":53,"time":392.1249673229102,"velocity":0.8031496062992126,"duration":0.602272677083306},{"name":"D5","midi":74,"time":392.1249673229102,"velocity":0.8031496062992126,"duration":0.602272677083306},{"name":"G3","midi":55,"time":392.7300809088477,"velocity":0.8031496062992126,"duration":0.11931817187502247},{"name":"D#5","midi":75,"time":392.7300809088477,"velocity":0.8031496062992126,"duration":0.11931817187502247},{"name":"G#3","midi":56,"time":392.8522399895769,"velocity":0.8031496062992126,"duration":0.36079542447919266},{"name":"C5","midi":72,"time":392.8522399895769,"velocity":0.8031496062992126,"duration":0.36079542447919266},{"name":"G3","midi":55,"time":393.2158763229103,"velocity":0.8031496062992126,"duration":0.602272677083306},{"name":"B4","midi":71,"time":393.2158763229103,"velocity":0.8031496062992126,"duration":0.602272677083306},{"name":"G#3","midi":56,"time":393.82098990884776,"velocity":0.8031496062992126,"duration":0.11931817187502247},{"name":"C5","midi":72,"time":393.82098990884776,"velocity":0.8031496062992126,"duration":0.11931817187502247},{"name":"F3","midi":53,"time":393.94314898957697,"velocity":0.8031496062992126,"duration":0.36079542447919266},{"name":"D5","midi":74,"time":393.94314898957697,"velocity":0.8031496062992126,"duration":0.36079542447919266},{"name":"D#3","midi":51,"time":394.30678532291034,"velocity":0.8031496062992126,"duration":0.602272677083306},{"name":"G4","midi":67,"time":394.30678532291034,"velocity":0.8031496062992126,"duration":0.602272677083306},{"name":"F3","midi":53,"time":394.91189890884783,"velocity":0.8031496062992126,"duration":0.11931817187502247},{"name":"G5","midi":79,"time":394.91189890884783,"velocity":0.8031496062992126,"duration":0.11931817187502247},{"name":"G3","midi":55,"time":395.03405798957704,"velocity":0.8031496062992126,"duration":0.36079542447919266},{"name":"C5","midi":72,"time":395.03405798957704,"velocity":0.8031496062992126,"duration":0.36079542447919266},{"name":"G#3","midi":56,"time":395.3976943229104,"velocity":0.8031496062992126,"duration":0.602272677083306},{"name":"F5","midi":77,"time":395.3976943229104,"velocity":0.8031496062992126,"duration":0.602272677083306},{"name":"G3","midi":55,"time":396.0028079088479,"velocity":0.8031496062992126,"duration":0.11931817187502247},{"name":"G5","midi":79,"time":396.0028079088479,"velocity":0.8031496062992126,"duration":0.11931817187502247},{"name":"F3","midi":53,"time":396.1249669895771,"velocity":0.8031496062992126,"duration":0.36079542447919266},{"name":"G#5","midi":80,"time":396.1249669895771,"velocity":0.8031496062992126,"duration":0.36079542447919266},{"name":"G3","midi":55,"time":396.4886033229105,"velocity":0.8031496062992126,"duration":0.7244317578125106},{"name":"D5","midi":74,"time":396.4886033229105,"velocity":0.8031496062992126,"duration":0.602272677083306},{"name":"G5","midi":79,"time":397.09371690884797,"velocity":0.8031496062992126,"duration":0.11931817187502247},{"name":"G2","midi":43,"time":397.21587598957717,"velocity":0.8031496062992126,"duration":0.36079542447919266},{"name":"F5","midi":77,"time":397.21587598957717,"velocity":0.8031496062992126,"duration":0.36079542447919266},{"name":"C3","midi":48,"time":397.57951232291055,"velocity":0.8031496062992126,"duration":0.6818181250001203},{"name":"F5","midi":77,"time":397.57951232291055,"velocity":0.8031496062992126,"duration":0.11931817187502247},{"name":"D#5","midi":75,"time":397.69883049478557,"velocity":0.8031496062992126,"duration":0.11931817187502247},{"name":"F5","midi":77,"time":397.8209895755148,"velocity":0.8031496062992126,"duration":0.11931817187502247},{"name":"D#5","midi":75,"time":397.943148656244,"velocity":0.8031496062992126,"duration":0.17897725781250529},{"name":"D5","midi":74,"time":398.12496682291066,"velocity":0.8031496062992126,"duration":0.17897725781250529},{"name":"C4","midi":60,"time":398.30678498957735,"velocity":0.8031496062992126,"duration":0.36079542447919266},{"name":"C5","midi":72,"time":398.30678498957735,"velocity":0.8031496062992126,"duration":0.36079542447919266},{"name":"B3","midi":59,"time":398.6704213229107,"velocity":0.8031496062992126,"duration":0.602272677083306},{"name":"G5","midi":79,"time":398.6704213229107,"velocity":0.8031496062992126,"duration":1.534090781250086},{"name":"A3","midi":57,"time":399.2755349088482,"velocity":0.8031496062992126,"duration":0.11931817187502247},{"name":"G3","midi":55,"time":399.3976939895774,"velocity":0.8031496062992126,"duration":0.36079542447919266},{"name":"C4","midi":60,"time":399.7613303229108,"velocity":0.8031496062992126,"duration":0.7244317578125674},{"name":"G5","midi":79,"time":400.36644390884834,"velocity":0.8031496062992126,"duration":0.11931817187502247},{"name":"A#3","midi":58,"time":400.48860298957754,"velocity":0.8031496062992126,"duration":0.36079542447919266},{"name":"C5","midi":72,"time":400.48860298957754,"velocity":0.8031496062992126,"duration":0.36079542447919266},{"name":"G#3","midi":56,"time":400.8522393229109,"velocity":0.8031496062992126,"duration":0.602272677083306},{"name":"F5","midi":77,"time":400.8522393229109,"velocity":0.8031496062992126,"duration":0.602272677083306},{"name":"C4","midi":60,"time":401.4573529088484,"velocity":0.8031496062992126,"duration":0.11931817187502247},{"name":"G5","midi":79,"time":401.4573529088484,"velocity":0.8031496062992126,"duration":0.11931817187502247},{"name":"F3","midi":53,"time":401.5795119895776,"velocity":0.8031496062992126,"duration":0.36079542447919266},{"name":"G#5","midi":80,"time":401.5795119895776,"velocity":0.8031496062992126,"duration":0.36079542447919266},{"name":"A#3","midi":58,"time":401.943148322911,"velocity":0.8031496062992126,"duration":0.5426135911459369},{"name":"D#5","midi":75,"time":401.943148322911,"velocity":0.8031496062992126,"duration":0.11931817187502247},{"name":"D5","midi":74,"time":402.062466494786,"velocity":0.8031496062992126,"duration":0.11931817187502247},{"name":"D#5","midi":75,"time":402.1846255755152,"velocity":0.8031496062992126,"duration":0.11931817187502247},{"name":"D5","midi":74,"time":402.3067846562444,"velocity":0.8031496062992126,"duration":0.17897725781250529},{"name":"C4","midi":60,"time":402.4886028229111,"velocity":0.8031496062992126,"duration":0.17897725781250529},{"name":"C5","midi":72,"time":402.4886028229111,"velocity":0.8031496062992126,"duration":0.17897725781250529},{"name":"D4","midi":62,"time":402.6704209895778,"velocity":0.8031496062992126,"duration":0.36079542447919266},{"name":"A#4","midi":70,"time":402.6704209895778,"velocity":0.8031496062992126,"duration":0.36079542447919266},{"name":"A3","midi":57,"time":403.03405732291117,"velocity":0.8031496062992126,"duration":0.602272677083306},{"name":"F5","midi":77,"time":403.03405732291117,"velocity":0.8031496062992126,"duration":1.534090781250086},{"name":"G3","midi":55,"time":403.63917090884866,"velocity":0.8031496062992126,"duration":0.11931817187502247},{"name":"F3","midi":53,"time":403.76132998957786,"velocity":0.8031496062992126,"duration":0.36079542447919266},{"name":"A#3","midi":58,"time":404.12496632291123,"velocity":0.8031496062992126,"duration":0.6818181250000634},{"name":"F5","midi":77,"time":404.7300799088488,"velocity":0.8031496062992126,"duration":0.11931817187502247},{"name":"G#3","midi":56,"time":404.852238989578,"velocity":0.8031496062992126,"duration":0.36079542447919266},{"name":"A#4","midi":70,"time":404.852238989578,"velocity":0.8031496062992126,"duration":0.36079542447919266},{"name":"G3","midi":55,"time":405.21587532291136,"velocity":0.8031496062992126,"duration":0.602272677083306},{"name":"D#5","midi":75,"time":405.21587532291136,"velocity":0.8031496062992126,"duration":0.602272677083306},{"name":"G#3","midi":56,"time":405.82098890884885,"velocity":0.8031496062992126,"duration":0.11931817187502247},{"name":"F5","midi":77,"time":405.82098890884885,"velocity":0.8031496062992126,"duration":0.11931817187502247},{"name":"D#3","midi":51,"time":405.94314798957805,"velocity":0.8031496062992126,"duration":0.36079542447919266},{"name":"G5","midi":79,"time":405.94314798957805,"velocity":0.8031496062992126,"duration":0.36079542447919266},{"name":"G#3","midi":56,"time":406.3067843229114,"velocity":0.8031496062992126,"duration":0.602272677083306},{"name":"C5","midi":72,"time":406.3067843229114,"velocity":0.8031496062992126,"duration":0.602272677083306},{"name":"A#3","midi":58,"time":406.9118979088489,"velocity":0.8031496062992126,"duration":0.11931817187502247},{"name":"D5","midi":74,"time":406.9118979088489,"velocity":0.8031496062992126,"duration":0.11931817187502247},{"name":"C4","midi":60,"time":407.0340569895781,"velocity":0.8031496062992126,"duration":0.36079542447919266},{"name":"D#5","midi":75,"time":407.0340569895781,"velocity":0.8031496062992126,"duration":0.36079542447919266},{"name":"F3","midi":53,"time":407.3976933229115,"velocity":0.8031496062992126,"duration":0.602272677083306},{"name":"G#4","midi":68,"time":407.3976933229115,"velocity":0.8031496062992126,"duration":1.534090781250086},{"name":"G3","midi":55,"time":408.002806908849,"velocity":0.8031496062992126,"duration":0.11931817187502247},{"name":"G#3","midi":56,"time":408.1249659895782,"velocity":0.8031496062992126,"duration":0.36079542447919266},{"name":"D3","midi":50,"time":408.48860232291156,"velocity":0.8031496062992126,"duration":1.647727135416801},{"name":"G#4","midi":68,"time":409.0937159088491,"velocity":0.8031496062992126,"duration":0.11931817187502247},{"name":"D#4","midi":63,"time":409.2158749895783,"velocity":0.8031496062992126,"duration":0.36079542447919266},{"name":"F4","midi":65,"time":409.5795113229117,"velocity":0.8031496062992126,"duration":0.5795454062500198},{"name":"D#3","midi":51,"time":410.18462490884923,"velocity":0.8031496062992126,"duration":0.11931817187502247},{"name":"G4","midi":67,"time":410.18462490884923,"velocity":0.8031496062992126,"duration":0.11931817187502247},{"name":"F3","midi":53,"time":410.30678398957843,"velocity":0.8031496062992126,"duration":0.36079542447919266},{"name":"G#4","midi":68,"time":410.30678398957843,"velocity":0.8031496062992126,"duration":0.36079542447919266},{"name":"A#2","midi":46,"time":410.6704203229118,"velocity":0.8031496062992126,"duration":0.5426135911459369},{"name":"D#4","midi":63,"time":410.6704203229118,"velocity":0.8031496062992126,"duration":0.11931817187502247},{"name":"D4","midi":62,"time":410.78973849478683,"velocity":0.8031496062992126,"duration":0.11931817187502247},{"name":"D#4","midi":63,"time":410.91189757551604,"velocity":0.8031496062992126,"duration":0.11931817187502247},{"name":"D4","midi":62,"time":411.03405665624524,"velocity":0.8031496062992126,"duration":0.17897725781250529},{"name":"D3","midi":50,"time":411.2158748229119,"velocity":0.8031496062992126,"duration":0.17897725781250529},{"name":"C4","midi":60,"time":411.2158748229119,"velocity":0.8031496062992126,"duration":0.17897725781250529},{"name":"F3","midi":53,"time":411.3976929895786,"velocity":0.8031496062992126,"duration":0.36079542447919266},{"name":"A#3","midi":58,"time":411.3976929895786,"velocity":0.8031496062992126,"duration":0.36079542447919266},{"name":"G#3","midi":56,"time":411.761329322912,"velocity":0.8031496062992126,"duration":0.602272677083306},{"name":"A#4","midi":70,"time":411.761329322912,"velocity":0.8031496062992126,"duration":1.534090781250086},{"name":"G3","midi":55,"time":412.3664429088495,"velocity":0.8031496062992126,"duration":0.11931817187502247},{"name":"F3","midi":53,"time":412.4886019895787,"velocity":0.8031496062992126,"duration":0.36079542447919266},{"name":"G3","midi":55,"time":412.85223832291206,"velocity":0.8031496062992126,"duration":0.6022726770833629},{"name":"D#3","midi":51,"time":413.4573519088496,"velocity":0.8031496062992126,"duration":0.11931817187502247},{"name":"D#5","midi":75,"time":413.4573519088496,"velocity":0.8031496062992126,"duration":0.11931817187502247},{"name":"G3","midi":55,"time":413.5795109895788,"velocity":0.8031496062992126,"duration":0.36079542447919266},{"name":"A#4","midi":70,"time":413.5795109895788,"velocity":0.8031496062992126,"duration":0.36079542447919266},{"name":"A#3","midi":58,"time":413.9431473229122,"velocity":0.8031496062992126,"duration":0.7244317578125106},{"name":"G4","midi":67,"time":413.9431473229122,"velocity":0.8031496062992126,"duration":0.602272677083306},{"name":"G#4","midi":68,"time":414.54826090884967,"velocity":0.8031496062992126,"duration":0.11931817187502247},{"name":"A#2","midi":46,"time":414.6704199895789,"velocity":0.8031496062992126,"duration":0.36079542447919266},{"name":"F4","midi":65,"time":414.6704199895789,"velocity":0.8031496062992126,"duration":0.36079542447919266},{"name":"D#3","midi":51,"time":415.03405632291225,"velocity":0.8031496062992126,"duration":1.36363625000007},{"name":"D#4","midi":63,"time":415.03405632291225,"velocity":0.8031496062992126,"duration":0.690340851562496},{"name":"G4","midi":67,"time":415.7613289895789,"velocity":0.8031496062992126,"duration":0.36079542447919266},{"name":"C5","midi":72,"time":416.12496532291226,"velocity":0.8031496062992126,"duration":0.11931817187502247},{"name":"B4","midi":71,"time":416.2442834947873,"velocity":0.8031496062992126,"duration":0.11931817187502247},{"name":"C5","midi":72,"time":416.3664425755165,"velocity":0.8031496062992126,"duration":1.36363625000007},{"name":"G3","midi":55,"time":416.7300789088498,"velocity":0.8031496062992126,"duration":0.11931817187502247},{"name":"C3","midi":48,"time":416.852237989579,"velocity":0.8031496062992126,"duration":0.36079542447919266},{"name":"F#3","midi":54,"time":417.2158743229124,"velocity":0.8031496062992126,"duration":0.6022726770833629},{"name":"G3","midi":55,"time":417.82098790884993,"velocity":0.8031496062992126,"duration":0.11931817187502247},{"name":"A4","midi":69,"time":417.82098790884993,"velocity":0.8031496062992126,"duration":0.11931817187502247},{"name":"A3","midi":57,"time":417.94314698957913,"velocity":0.8031496062992126,"duration":0.36079542447919266},{"name":"C5","midi":72,"time":417.94314698957913,"velocity":0.8031496062992126,"duration":0.36079542447919266},{"name":"C3","midi":48,"time":418.3067833229125,"velocity":0.8031496062992126,"duration":0.6022726770834197},{"name":"D#5","midi":75,"time":418.3067833229125,"velocity":0.8031496062992126,"duration":0.11931817187502247},{"name":"D5","midi":74,"time":418.42610149478753,"velocity":0.8031496062992126,"duration":0.11931817187502247},{"name":"D#5","midi":75,"time":418.54826057551674,"velocity":0.8031496062992126,"duration":1.363636250000127},{"name":"D#3","midi":51,"time":418.9118969088501,"velocity":0.8031496062992126,"duration":0.11931817187502247},{"name":"G2","midi":43,"time":419.0340559895793,"velocity":0.8031496062992126,"duration":0.36079542447919266},{"name":"A2","midi":45,"time":419.3976923229127,"velocity":0.8031496062992126,"duration":0.6022726770833629},{"name":"A#2","midi":46,"time":420.00280590885023,"velocity":0.8031496062992126,"duration":0.11931817187502247},{"name":"C5","midi":72,"time":420.00280590885023,"velocity":0.8031496062992126,"duration":0.11931817187502247},{"name":"C3","midi":48,"time":420.12496498957944,"velocity":0.8031496062992126,"duration":0.36079542447919266},{"name":"D#5","midi":75,"time":420.12496498957944,"velocity":0.8031496062992126,"duration":0.36079542447919266},{"name":"D2","midi":38,"time":420.4886013229128,"velocity":0.8031496062992126,"duration":0.7244317578125106},{"name":"F#5","midi":78,"time":420.4886013229128,"velocity":0.8031496062992126,"duration":0.602272677083306},{"name":"A5","midi":81,"time":421.0937149088503,"velocity":0.8031496062992126,"duration":0.11931817187502247},{"name":"C3","midi":48,"time":421.2158739895795,"velocity":0.8031496062992126,"duration":0.36079542447919266},{"name":"D5","midi":74,"time":421.2158739895795,"velocity":0.8031496062992126,"duration":0.36079542447919266},{"name":"A#2","midi":46,"time":421.5795103229129,"velocity":0.8031496062992126,"duration":0.602272677083306},{"name":"G5","midi":79,"time":421.5795103229129,"velocity":0.8031496062992126,"duration":0.602272677083306},{"name":"A2","midi":45,"time":422.18462390885037,"velocity":0.8031496062992126,"duration":0.11931817187502247},{"name":"A5","midi":81,"time":422.18462390885037,"velocity":0.8031496062992126,"duration":0.11931817187502247},{"name":"G2","midi":43,"time":422.3067829895796,"velocity":0.8031496062992126,"duration":0.36079542447919266},{"name":"A#5","midi":82,"time":422.3067829895796,"velocity":0.8031496062992126,"duration":0.36079542447919266},{"name":"D3","midi":50,"time":422.67041932291295,"velocity":0.8031496062992126,"duration":0.7244317578125106},{"name":"D5","midi":74,"time":422.67041932291295,"velocity":0.8031496062992126,"duration":0.602272677083306},{"name":"G5","midi":79,"time":423.27553290885044,"velocity":0.8031496062992126,"duration":0.11931817187502247},{"name":"D2","midi":38,"time":423.39769198957964,"velocity":0.8031496062992126,"duration":0.36079542447919266},{"name":"F#5","midi":78,"time":423.39769198957964,"velocity":0.8031496062992126,"duration":0.36079542447919266},{"name":"G2","midi":43,"time":423.761328322913,"velocity":0.8031496062992126,"duration":0.602272677083306},{"name":"G5","midi":79,"time":423.761328322913,"velocity":0.8031496062992126,"duration":1.079545364583339},{"name":"B2","midi":47,"time":424.3664419088505,"velocity":0.8031496062992126,"duration":0.11931817187502247},{"name":"D3","midi":50,"time":424.4886009895797,"velocity":0.8031496062992126,"duration":0.3607954244791358},{"name":"G3","midi":55,"time":424.852237322913,"velocity":0.8031496062992126,"duration":1.079545364583339},{"name":"G4","midi":67,"time":425.4573509088505,"velocity":0.8031496062992126,"duration":0.11931817187502247},{"name":"D5","midi":74,"time":425.5795099895797,"velocity":0.8031496062992126,"duration":0.3607954244791358},{"name":"B4","midi":71,"time":425.94314632291304,"velocity":0.8031496062992126,"duration":0.602272677083306},{"name":"G3","midi":55,"time":426.5482599088505,"velocity":0.8031496062992126,"duration":0.11931817187502247},{"name":"A4","midi":69,"time":426.5482599088505,"velocity":0.8031496062992126,"duration":0.11931817187502247},{"name":"D4","midi":62,"time":426.67041898957973,"velocity":0.8031496062992126,"duration":0.36079542447919266},{"name":"G4","midi":67,"time":426.67041898957973,"velocity":0.8031496062992126,"duration":0.36079542447919266},{"name":"B3","midi":59,"time":427.0340553229131,"velocity":0.8031496062992126,"duration":0.602272677083306},{"name":"F5","midi":77,"time":427.0340553229131,"velocity":0.8031496062992126,"duration":1.534090781250086},{"name":"A3","midi":57,"time":427.6391689088506,"velocity":0.8031496062992126,"duration":0.11931817187502247},{"name":"G3","midi":55,"time":427.7613279895798,"velocity":0.8031496062992126,"duration":0.36079542447919266},{"name":"C4","midi":60,"time":428.1249643229132,"velocity":0.8031496062992126,"duration":1.6505680442709831},{"name":"G5","midi":79,"time":428.7300779088507,"velocity":0.8031496062992126,"duration":0.11931817187502247},{"name":"D5","midi":74,"time":428.8522369895799,"velocity":0.8031496062992126,"duration":0.36079542447919266},{"name":"D#5","midi":75,"time":429.2158733229133,"velocity":0.8031496062992126,"duration":0.6022726770833629},{"name":"C3","midi":48,"time":429.82098690885084,"velocity":0.8031496062992126,"duration":0.11931817187502247},{"name":"G5","midi":79,"time":429.82098690885084,"velocity":0.8031496062992126,"duration":0.11931817187502247},{"name":"G3","midi":55,"time":429.94314598958005,"velocity":0.8031496062992126,"duration":0.36079542447919266},{"name":"A#5","midi":82,"time":429.94314598958005,"velocity":0.8031496062992126,"duration":0.36079542447919266},{"name":"E3","midi":52,"time":430.3067823229134,"velocity":0.8031496062992126,"duration":0.602272677083306},{"name":"C#5","midi":73,"time":430.3067823229134,"velocity":0.8031496062992126,"duration":0.602272677083306},{"name":"D3","midi":50,"time":430.9118959088509,"velocity":0.8031496062992126,"duration":0.11931817187502247},{"name":"C5","midi":72,"time":430.9118959088509,"velocity":0.8031496062992126,"duration":0.11931817187502247},{"name":"C3","midi":48,"time":431.0340549895801,"velocity":0.8031496062992126,"duration":0.36079542447919266},{"name":"G5","midi":79,"time":431.0340549895801,"velocity":0.8031496062992126,"duration":0.36079542447919266},{"name":"A#3","midi":58,"time":431.3976913229135,"velocity":0.8031496062992126,"duration":1.6477271354167442},{"name":"E5","midi":76,"time":431.3976913229135,"velocity":0.8031496062992126,"duration":0.602272677083306},{"name":"D5","midi":74,"time":432.002804908851,"velocity":0.8031496062992126,"duration":0.11931817187502247},{"name":"C5","midi":72,"time":432.1249639895802,"velocity":0.8031496062992126,"duration":0.36079542447919266},{"name":"F5","midi":77,"time":432.48860032291356,"velocity":0.8031496062992126,"duration":1.6335225911459474},{"name":"C4","midi":60,"time":433.09371390885104,"velocity":0.8031496062992126,"duration":0.11931817187502247},{"name":"G3","midi":55,"time":433.21587298958025,"velocity":0.8031496062992126,"duration":0.36079542447919266},{"name":"G#3","midi":56,"time":433.5795093229136,"velocity":0.8031496062992126,"duration":0.36079542447919266},{"name":"F3","midi":53,"time":433.960191109372,"velocity":0.8031496062992126,"duration":0.3607954244792495},{"name":"C5","midi":72,"time":434.1249638229137,"velocity":0.8031496062992126,"duration":0.17897725781250529},{"name":"F5","midi":77,"time":434.3067819895804,"velocity":0.8031496062992126,"duration":0.36079542447919266},{"name":"D5","midi":74,"time":434.67041832291375,"velocity":0.8031496062992126,"duration":0.602272677083306},{"name":"F3","midi":53,"time":435.27553190885124,"velocity":0.8031496062992126,"duration":0.11931817187502247},{"name":"C5","midi":72,"time":435.27553190885124,"velocity":0.8031496062992126,"duration":0.11931817187502247},{"name":"A#3","midi":58,"time":435.39769098958044,"velocity":0.8031496062992126,"duration":0.36079542447919266},{"name":"A#4","midi":70,"time":435.39769098958044,"velocity":0.8031496062992126,"duration":0.36079542447919266},{"name":"G3","midi":55,"time":435.7613273229138,"velocity":0.8031496062992126,"duration":0.602272677083306},{"name":"D#5","midi":75,"time":435.7613273229138,"velocity":0.8031496062992126,"duration":1.534090781250086},{"name":"F3","midi":53,"time":436.3664409088513,"velocity":0.8031496062992126,"duration":0.11931817187502247},{"name":"D#3","midi":51,"time":436.4885999895805,"velocity":0.8031496062992126,"duration":0.36079542447919266},{"name":"G#3","midi":56,"time":436.8522363229139,"velocity":0.8031496062992126,"duration":1.647727135416801},{"name":"C5","midi":72,"time":437.4573499088514,"velocity":0.8031496062992126,"duration":0.11931817187502247},{"name":"E5","midi":76,"time":437.57950898958063,"velocity":0.8031496062992126,"duration":0.36079542447919266},{"name":"F5","midi":77,"time":437.943145322914,"velocity":0.8031496062992126,"duration":0.6022726770833629},{"name":"F3","midi":53,"time":438.54825890885155,"velocity":0.8031496062992126,"duration":0.11931817187502247},{"name":"D5","midi":74,"time":438.54825890885155,"velocity":0.8031496062992126,"duration":0.11931817187502247},{"name":"B3","midi":59,"time":438.67041798958076,"velocity":0.8031496062992126,"duration":0.36079542447919266},{"name":"G5","midi":79,"time":438.67041798958076,"velocity":0.8031496062992126,"duration":0.36079542447919266},{"name":"C4","midi":60,"time":439.03405432291413,"velocity":0.8031496062992126,"duration":0.602272677083306},{"name":"D#5","midi":75,"time":439.03405432291413,"velocity":0.8031496062992126,"duration":0.602272677083306},{"name":"G3","midi":55,"time":439.6391679088516,"velocity":0.8031496062992126,"duration":0.11931817187502247},{"name":"D5","midi":74,"time":439.6391679088516,"velocity":0.8031496062992126,"duration":0.11931817187502247},{"name":"C4","midi":60,"time":439.7613269895808,"velocity":0.8031496062992126,"duration":0.36079542447919266},{"name":"C5","midi":72,"time":439.7613269895808,"velocity":0.8031496062992126,"duration":0.36079542447919266},{"name":"G#3","midi":56,"time":440.1249633229142,"velocity":0.8031496062992126,"duration":0.602272677083306},{"name":"F5","midi":77,"time":440.1249633229142,"velocity":0.8031496062992126,"duration":1.534090781250086},{"name":"G3","midi":55,"time":440.7300769088517,"velocity":0.8031496062992126,"duration":0.11931817187502247},{"name":"F3","midi":53,"time":440.8522359895809,"velocity":0.8031496062992126,"duration":0.36079542447919266},{"name":"C4","midi":60,"time":441.21587232291427,"velocity":0.8031496062992126,"duration":1.647727135416801},{"name":"D5","midi":74,"time":441.8209859088518,"velocity":0.8031496062992126,"duration":0.11931817187502247},{"name":"G5","midi":79,"time":441.943144989581,"velocity":0.8031496062992126,"duration":0.36079542447919266},{"name":"G#5","midi":80,"time":442.3067813229144,"velocity":0.8031496062992126,"duration":0.6022726770833629},{"name":"G#3","midi":56,"time":442.91189490885193,"velocity":0.8031496062992126,"duration":0.11931817187502247},{"name":"F5","midi":77,"time":442.91189490885193,"velocity":0.8031496062992126,"duration":0.11931817187502247},{"name":"D4","midi":62,"time":443.03405398958114,"velocity":0.8031496062992126,"duration":0.36079542447919266},{"name":"A#5","midi":82,"time":443.03405398958114,"velocity":0.8031496062992126,"duration":0.36079542447919266},{"name":"D#4","midi":63,"time":443.3976903229145,"velocity":0.8031496062992126,"duration":0.602272677083306},{"name":"G5","midi":79,"time":443.3976903229145,"velocity":0.8031496062992126,"duration":0.602272677083306},{"name":"A#3","midi":58,"time":444.002803908852,"velocity":0.8031496062992126,"duration":0.11931817187502247},{"name":"F5","midi":77,"time":444.002803908852,"velocity":0.8031496062992126,"duration":0.11931817187502247},{"name":"D#4","midi":63,"time":444.1249629895812,"velocity":0.8031496062992126,"duration":0.36079542447919266},{"name":"D#5","midi":75,"time":444.1249629895812,"velocity":0.8031496062992126,"duration":0.36079542447919266},{"name":"C4","midi":60,"time":444.4885993229146,"velocity":0.8031496062992126,"duration":0.602272677083306},{"name":"G#5","midi":80,"time":444.4885993229146,"velocity":0.8031496062992126,"duration":1.534090781250086},{"name":"A#3","midi":58,"time":445.09371290885207,"velocity":0.8031496062992126,"duration":0.11931817187502247},{"name":"G#3","midi":56,"time":445.2158719895813,"velocity":0.8031496062992126,"duration":0.36079542447919266},{"name":"D#4","midi":63,"time":445.57950832291465,"velocity":0.8031496062992126,"duration":1.647727135416801},{"name":"F5","midi":77,"time":446.1846219088522,"velocity":0.8031496062992126,"duration":0.11931817187502247},{"name":"B5","midi":83,"time":446.3067809895814,"velocity":0.8031496062992126,"duration":0.36079542447919266},{"name":"C6","midi":84,"time":446.6704173229148,"velocity":0.8031496062992126,"duration":0.6022726770833629},{"name":"C4","midi":60,"time":447.2755309088523,"velocity":0.8031496062992126,"duration":0.11931817187502247},{"name":"G5","midi":79,"time":447.2755309088523,"velocity":0.8031496062992126,"duration":0.11931817187502247},{"name":"E4","midi":64,"time":447.3976899895815,"velocity":0.8031496062992126,"duration":0.36079542447919266},{"name":"C5","midi":72,"time":447.3976899895815,"velocity":0.8031496062992126,"duration":0.36079542447919266},{"name":"G#3","midi":56,"time":447.7613263229149,"velocity":0.8031496062992126,"duration":0.602272677083306},{"name":"F5","midi":77,"time":447.7613263229149,"velocity":0.8031496062992126,"duration":0.602272677083306},{"name":"C4","midi":60,"time":448.3664399088524,"velocity":0.8031496062992126,"duration":0.11931817187502247},{"name":"G5","midi":79,"time":448.3664399088524,"velocity":0.8031496062992126,"duration":0.11931817187502247},{"name":"D3","midi":50,"time":448.4885989895816,"velocity":0.8031496062992126,"duration":0.36079542447919266},{"name":"G#5","midi":80,"time":448.4885989895816,"velocity":0.8031496062992126,"duration":0.36079542447919266},{"name":"D#3","midi":51,"time":448.85223532291496,"velocity":0.8031496062992126,"duration":0.7244317578125674},{"name":"G5","midi":79,"time":448.85223532291496,"velocity":0.8031496062992126,"duration":0.36079542447919266},{"name":"F5","midi":77,"time":449.21587165624834,"velocity":0.8031496062992126,"duration":0.17897725781250529},{"name":"D#5","midi":75,"time":449.397689822915,"velocity":0.8031496062992126,"duration":0.17897725781250529},{"name":"F3","midi":53,"time":449.5795079895817,"velocity":0.8031496062992126,"duration":0.36079542447919266},{"name":"D5","midi":74,"time":449.5795079895817,"velocity":0.8031496062992126,"duration":0.17897725781250529},{"name":"C5","midi":72,"time":449.7613261562484,"velocity":0.8031496062992126,"duration":0.17897725781250529},{"name":"G3","midi":55,"time":449.9431443229151,"velocity":0.8031496062992126,"duration":0.602272677083306},{"name":"B4","midi":71,"time":449.9431443229151,"velocity":0.8031496062992126,"duration":1.079545364583339},{"name":"B2","midi":47,"time":450.5482579088526,"velocity":0.8031496062992126,"duration":0.11931817187502247},{"name":"D3","midi":50,"time":450.6704169895818,"velocity":0.8031496062992126,"duration":0.3607954244791358},{"name":"G2","midi":43,"time":451.0340533229151,"velocity":0.8031496062992126,"duration":0.7272726666666927},{"name":"D5","midi":74,"time":451.6391669088526,"velocity":0.8031496062992126,"duration":0.11931817187502247},{"name":"G5","midi":79,"time":451.7613259895818,"velocity":0.8031496062992126,"duration":0.36079542447919266},{"name":"F5","midi":77,"time":452.12496232291517,"velocity":0.8031496062992126,"duration":0.11931817187502247},{"name":"E5","midi":76,"time":452.2442804947902,"velocity":0.8031496062992126,"duration":0.11931817187502247},{"name":"F5","midi":77,"time":452.3664395755194,"velocity":0.8031496062992126,"duration":0.11931817187502247},{"name":"E5","midi":76,"time":452.4885986562486,"velocity":0.8031496062992126,"duration":0.17897725781250529},{"name":"C3","midi":48,"time":452.6704168229153,"velocity":0.8031496062992126,"duration":0.17897725781250529},{"name":"D5","midi":74,"time":452.6704168229153,"velocity":0.8031496062992126,"duration":0.17897725781250529},{"name":"G3","midi":55,"time":452.852234989582,"velocity":0.8031496062992126,"duration":0.36079542447919266},{"name":"C5","midi":72,"time":452.852234989582,"velocity":0.8031496062992126,"duration":0.36079542447919266},{"name":"E3","midi":52,"time":453.21587132291535,"velocity":0.8031496062992126,"duration":0.602272677083306},{"name":"A#5","midi":82,"time":453.21587132291535,"velocity":0.8031496062992126,"duration":1.5909089583333866},{"name":"D3","midi":50,"time":453.82098490885284,"velocity":0.8031496062992126,"duration":0.11931817187502247},{"name":"C3","midi":48,"time":453.94314398958204,"velocity":0.8031496062992126,"duration":0.36079542447919266},{"name":"F3","midi":53,"time":454.3067803229154,"velocity":0.8031496062992126,"duration":1.6477271354167442},{"name":"C6","midi":84,"time":454.9118939088529,"velocity":0.8031496062992126,"duration":0.11931817187502247},{"name":"G5","midi":79,"time":455.0340529895821,"velocity":0.8031496062992126,"duration":0.36079542447919266},{"name":"G#5","midi":80,"time":455.3976893229155,"velocity":0.8031496062992126,"duration":0.6022726770833629},{"name":"G3","midi":55,"time":456.002802908853,"velocity":0.8031496062992126,"duration":0.11931817187502247},{"name":"C5","midi":72,"time":456.002802908853,"velocity":0.8031496062992126,"duration":0.11931817187502247},{"name":"G#3","midi":56,"time":456.12496198958223,"velocity":0.8031496062992126,"duration":0.36079542447919266},{"name":"F5","midi":77,"time":456.12496198958223,"velocity":0.8031496062992126,"duration":0.36079542447919266},{"name":"A#3","midi":58,"time":456.4885983229156,"velocity":0.8031496062992126,"duration":0.5426135911459369},{"name":"D#5","midi":75,"time":456.4885983229156,"velocity":0.8031496062992126,"duration":0.11931817187502247},{"name":"D5","midi":74,"time":456.60791649479063,"velocity":0.8031496062992126,"duration":0.11931817187502247},{"name":"D#5","midi":75,"time":456.73007557551983,"velocity":0.8031496062992126,"duration":0.11931817187502247},{"name":"D5","midi":74,"time":456.85223465624904,"velocity":0.8031496062992126,"duration":0.17897725781250529},{"name":"A#2","midi":46,"time":457.0340528229157,"velocity":0.8031496062992126,"duration":0.17897725781250529},{"name":"C5","midi":72,"time":457.0340528229157,"velocity":0.8031496062992126,"duration":0.17897725781250529},{"name":"F3","midi":53,"time":457.2158709895824,"velocity":0.8031496062992126,"duration":0.36079542447919266},{"name":"A#4","midi":70,"time":457.2158709895824,"velocity":0.8031496062992126,"duration":0.36079542447919266},{"name":"D3","midi":50,"time":457.5795073229158,"velocity":0.8031496062992126,"duration":0.602272677083306},{"name":"G#5","midi":80,"time":457.5795073229158,"velocity":0.8031496062992126,"duration":1.5909089583333866},{"name":"C3","midi":48,"time":458.1846209088533,"velocity":0.8031496062992126,"duration":0.11931817187502247},{"name":"A#2","midi":46,"time":458.3067799895825,"velocity":0.8031496062992126,"duration":0.36079542447919266},{"name":"D#3","midi":51,"time":458.67041632291586,"velocity":0.8031496062992126,"duration":1.6477271354167442},{"name":"A#5","midi":82,"time":459.27552990885334,"velocity":0.8031496062992126,"duration":0.11931817187502247},{"name":"F5","midi":77,"time":459.39768898958255,"velocity":0.8031496062992126,"duration":0.36079542447919266},{"name":"G5","midi":79,"time":459.7613253229159,"velocity":0.8031496062992126,"duration":0.6022726770833629},{"name":"G3","midi":55,"time":460.36643890885347,"velocity":0.8031496062992126,"duration":0.11931817187502247},{"name":"D#5","midi":75,"time":460.36643890885347,"velocity":0.8031496062992126,"duration":0.11931817187502247},{"name":"C4","midi":60,"time":460.4885979895827,"velocity":0.8031496062992126,"duration":0.36079542447919266},{"name":"C5","midi":72,"time":460.4885979895827,"velocity":0.8031496062992126,"duration":0.36079542447919266},{"name":"D#4","midi":63,"time":460.85223432291605,"velocity":0.8031496062992126,"duration":0.602272677083306},{"name":"A4","midi":69,"time":460.85223432291605,"velocity":0.8031496062992126,"duration":1.5909089583333866},{"name":"C4","midi":60,"time":461.45734790885354,"velocity":0.8031496062992126,"duration":0.11931817187502247},{"name":"A3","midi":57,"time":461.57950698958274,"velocity":0.8031496062992126,"duration":0.36079542447919266},{"name":"F3","midi":53,"time":461.9431433229161,"velocity":0.8031496062992126,"duration":0.602272677083306},{"name":"A3","midi":57,"time":462.5482569088536,"velocity":0.8031496062992126,"duration":0.11931817187502247},{"name":"F5","midi":77,"time":462.5482569088536,"velocity":0.8031496062992126,"duration":0.11931817187502247},{"name":"D4","midi":62,"time":462.6704159895828,"velocity":0.8031496062992126,"duration":0.36079542447919266},{"name":"D5","midi":74,"time":462.6704159895828,"velocity":0.8031496062992126,"duration":0.36079542447919266},{"name":"F4","midi":65,"time":463.0340523229162,"velocity":0.8031496062992126,"duration":0.602272677083306},{"name":"B4","midi":71,"time":463.0340523229162,"velocity":0.8031496062992126,"duration":1.5909089583333866},{"name":"D4","midi":62,"time":463.63916590885367,"velocity":0.8031496062992126,"duration":0.11931817187502247},{"name":"B3","midi":59,"time":463.7613249895829,"velocity":0.8031496062992126,"duration":0.36079542447919266},{"name":"G3","midi":55,"time":464.12496132291625,"velocity":0.8031496062992126,"duration":1.45170442447926},{"name":"G5","midi":79,"time":464.73007490885374,"velocity":0.8031496062992126,"duration":0.11931817187502247},{"name":"D#5","midi":75,"time":464.85223398958294,"velocity":0.8031496062992126,"duration":0.36079542447919266},{"name":"C5","midi":72,"time":465.2158703229163,"velocity":0.8031496062992126,"duration":0.36079542447919266},{"name":"C4","midi":60,"time":465.5795066562497,"velocity":0.8031496062992126,"duration":0.17897725781250529},{"name":"G#5","midi":80,"time":465.5795066562497,"velocity":0.8031496062992126,"duration":0.17897725781250529},{"name":"A#3","midi":58,"time":465.7613248229164,"velocity":0.8031496062992126,"duration":0.17897725781250529},{"name":"G5","midi":79,"time":465.7613248229164,"velocity":0.8031496062992126,"duration":0.17897725781250529},{"name":"G#3","midi":56,"time":465.94314298958307,"velocity":0.8031496062992126,"duration":0.17897725781250529},{"name":"F5","midi":77,"time":465.94314298958307,"velocity":0.8031496062992126,"duration":0.17897725781250529},{"name":"G3","midi":55,"time":466.12496115624975,"velocity":0.8031496062992126,"duration":0.17897725781250529},{"name":"D#5","midi":75,"time":466.12496115624975,"velocity":0.8031496062992126,"duration":0.17897725781250529},{"name":"F3","midi":53,"time":466.30677932291644,"velocity":0.8031496062992126,"duration":0.54261359114588},{"name":"C#5","midi":73,"time":466.30677932291644,"velocity":0.8031496062992126,"duration":0.17897725781250529},{"name":"C5","midi":72,"time":466.4885974895831,"velocity":0.8031496062992126,"duration":0.17897725781250529},{"name":"C#5","midi":73,"time":466.6704156562498,"velocity":0.8031496062992126,"duration":0.17897725781250529},{"name":"C4","midi":60,"time":466.8522338229165,"velocity":0.8031496062992126,"duration":0.17897725781250529},{"name":"D#5","midi":75,"time":466.8522338229165,"velocity":0.8031496062992126,"duration":0.17897725781250529},{"name":"G#3","midi":56,"time":467.0340519895832,"velocity":0.8031496062992126,"duration":0.36079542447919266},{"name":"F5","midi":77,"time":467.0340519895832,"velocity":0.8031496062992126,"duration":0.17897725781250529},{"name":"C#5","midi":73,"time":467.2158701562499,"velocity":0.8031496062992126,"duration":0.17897725781250529},{"name":"F3","midi":53,"time":467.39768832291657,"velocity":0.8031496062992126,"duration":0.54261359114588},{"name":"B4","midi":71,"time":467.39768832291657,"velocity":0.8031496062992126,"duration":0.17897725781250529},{"name":"A4","midi":69,"time":467.57950648958325,"velocity":0.8031496062992126,"duration":0.17897725781250529},{"name":"B4","midi":71,"time":467.76132465624994,"velocity":0.8031496062992126,"duration":0.17897725781250529},{"name":"C4","midi":60,"time":467.9431428229166,"velocity":0.8031496062992126,"duration":0.17897725781250529},{"name":"C5","midi":72,"time":467.9431428229166,"velocity":0.8031496062992126,"duration":0.17897725781250529},{"name":"G#3","midi":56,"time":468.1249609895833,"velocity":0.8031496062992126,"duration":0.36079542447919266},{"name":"D5","midi":74,"time":468.1249609895833,"velocity":0.8031496062992126,"duration":0.17897725781250529},{"name":"B4","midi":71,"time":468.30677915625,"velocity":0.8031496062992126,"duration":0.17897725781250529},{"name":"F3","midi":53,"time":468.4885973229167,"velocity":0.8031496062992126,"duration":0.602272677083306},{"name":"G#4","midi":68,"time":468.4885973229167,"velocity":0.8031496062992126,"duration":0.5397726822916411},{"name":"B3","midi":59,"time":469.0937109088542,"velocity":0.8031496062992126,"duration":0.11931817187502247},{"name":"G4","midi":67,"time":469.0937109088542,"velocity":0.8031496062992126,"duration":0.11931817187502247},{"name":"G3","midi":55,"time":469.2158699895834,"velocity":0.8031496062992126,"duration":0.36079542447919266},{"name":"F5","midi":77,"time":469.2158699895834,"velocity":0.8031496062992126,"duration":0.36079542447919266},{"name":"C4","midi":60,"time":469.57950632291676,"velocity":0.8031496062992126,"duration":0.5426135911459369},{"name":"F5","midi":77,"time":469.57950632291676,"velocity":0.8031496062992126,"duration":0.11931817187502247},{"name":"D#5","midi":75,"time":469.6988244947918,"velocity":0.8031496062992126,"duration":0.11931817187502247},{"name":"F5","midi":77,"time":469.820983575521,"velocity":0.8031496062992126,"duration":0.11931817187502247},{"name":"D#5","midi":75,"time":469.9431426562502,"velocity":0.8031496062992126,"duration":0.17897725781250529},{"name":"G3","midi":55,"time":470.1249608229169,"velocity":0.8031496062992126,"duration":0.17897725781250529},{"name":"D5","midi":74,"time":470.1249608229169,"velocity":0.8031496062992126,"duration":0.17897725781250529},{"name":"G#3","midi":56,"time":470.30677898958356,"velocity":0.8031496062992126,"duration":0.36079542447919266},{"name":"C5","midi":72,"time":470.30677898958356,"velocity":0.8031496062992126,"duration":0.36079542447919266},{"name":"F3","midi":53,"time":470.67041532291694,"velocity":0.8031496062992126,"duration":0.36079542447919266},{"name":"C5","midi":72,"time":470.67041532291694,"velocity":0.8031496062992126,"duration":0.17897725781250529},{"name":"D#5","midi":75,"time":470.8522334895836,"velocity":0.8031496062992126,"duration":0.17897725781250529},{"name":"G3","midi":55,"time":471.0340516562503,"velocity":0.8031496062992126,"duration":0.36079542447919266},{"name":"D5","midi":74,"time":471.0340516562503,"velocity":0.8031496062992126,"duration":0.17897725781250529},{"name":"C5","midi":72,"time":471.215869822917,"velocity":0.8031496062992126,"duration":0.17897725781250529},{"name":"G2","midi":43,"time":471.3976879895837,"velocity":0.8031496062992126,"duration":0.36079542447919266},{"name":"B4","midi":71,"time":471.3976879895837,"velocity":0.8031496062992126,"duration":0.17897725781250529},{"name":"C5","midi":72,"time":471.5795061562504,"velocity":0.8031496062992126,"duration":0.17897725781250529},{"name":"G#2","midi":44,"time":471.76132432291706,"velocity":0.8031496062992126,"duration":0.17897725781250529},{"name":"C5","midi":72,"time":471.76132432291706,"velocity":0.8031496062992126,"duration":1.1363635416668103},{"name":"A#2","midi":46,"time":471.94314248958375,"velocity":0.8031496062992126,"duration":0.17897725781250529},{"name":"G#2","midi":44,"time":472.12496065625044,"velocity":0.8031496062992126,"duration":0.17897725781250529},{"name":"G2","midi":43,"time":472.3067788229171,"velocity":0.8031496062992126,"duration":0.17897725781250529},{"name":"G#2","midi":44,"time":472.4885969895838,"velocity":0.8031496062992126,"duration":0.17897725781250529},{"name":"F2","midi":41,"time":472.6704151562505,"velocity":0.8031496062992126,"duration":0.17897725781250529},{"name":"F3","midi":53,"time":472.8522333229172,"velocity":0.8031496062992126,"duration":1.6477271354166874},{"name":"A#4","midi":70,"time":473.0340514895839,"velocity":0.8031496062992126,"duration":0.17897725781250529},{"name":"G#4","midi":68,"time":473.21586965625056,"velocity":0.8031496062992126,"duration":0.17897725781250529},{"name":"G4","midi":67,"time":473.39768782291725,"velocity":0.8031496062992126,"duration":0.17897725781250529},{"name":"G#4","midi":68,"time":473.58234689843806,"velocity":0.8031496062992126,"duration":0.18181816666668738},{"name":"F4","midi":65,"time":473.76984688281306,"velocity":0.8031496062992126,"duration":0.18181816666668738},{"name":"D5","midi":74,"time":473.95734686718805,"velocity":0.8031496062992126,"duration":1.1704544479165975},{"name":"D3","midi":50,"time":474.5795059062505,"velocity":0.8031496062992126,"duration":0.12215908072914772},{"name":"F3","midi":53,"time":474.70450589583385,"velocity":0.8031496062992126,"duration":0.3693181510416821},{"name":"G#3","midi":56,"time":475.07950586458384,"velocity":0.8031496062992126,"duration":1.6363634999998453},{"name":"D#5","midi":75,"time":475.26700584895883,"velocity":0.8031496062992126,"duration":0.18181816666668738},{"name":"D5","midi":74,"time":475.4545058333338,"velocity":0.8031496062992126,"duration":0.18181816666668738},{"name":"C5","midi":72,"time":475.6420058177088,"velocity":0.8031496062992126,"duration":0.18181816666668738},{"name":"D5","midi":74,"time":475.832346710938,"velocity":0.8031496062992126,"duration":0.18465907552081262},{"name":"B4","midi":71,"time":476.0255285130213,"velocity":0.8031496062992126,"duration":0.18465907552081262},{"name":"F5","midi":77,"time":476.2187103151046,"velocity":0.8031496062992126,"duration":0.18465907552081262},{"name":"G5","midi":79,"time":476.4118921171879,"velocity":0.8031496062992126,"duration":0.18465907552081262},{"name":"F5","midi":77,"time":476.6050739192712,"velocity":0.8031496062992126,"duration":0.18465907552081262},{"name":"F3","midi":53,"time":476.7982557213545,"velocity":0.8031496062992126,"duration":0.18465907552081262},{"name":"D#5","midi":75,"time":476.7982557213545,"velocity":0.8031496062992126,"duration":0.18465907552081262},{"name":"G#3","midi":56,"time":476.9885966145836,"velocity":0.8031496062992126,"duration":0.37784087760411467},{"name":"F5","midi":77,"time":476.9885966145836,"velocity":0.8031496062992126,"duration":0.18465907552081262},{"name":"D5","midi":74,"time":477.18177841666693,"velocity":0.8031496062992126,"duration":0.18465907552081262},{"name":"B3","midi":59,"time":477.37496021875023,"velocity":0.8031496062992126,"duration":0.5909090416666913},{"name":"G#5","midi":80,"time":477.37496021875023,"velocity":0.8031496062992126,"duration":0.5937499505208734},{"name":"G5","midi":79,"time":478.0170056197919,"velocity":0.8031496062992126,"duration":0.1278408984375119},{"name":"D4","midi":62,"time":478.0170056197919,"velocity":0.8031496062992126,"duration":0.1278408984375119},{"name":"F5","midi":77,"time":478.15052833593774,"velocity":0.8031496062992126,"duration":0.38636360416666093},{"name":"G3","midi":55,"time":478.15052833593774,"velocity":0.8031496062992126,"duration":0.38636360416666093},{"name":"D#5","midi":75,"time":478.54825557552107,"velocity":0.8031496062992126,"duration":0.1874999843749947},{"name":"C4","midi":60,"time":478.54825557552107,"velocity":0.8031496062992126,"duration":0.5880681328125092},{"name":"D5","midi":74,"time":478.74711919531273,"velocity":0.8031496062992126,"duration":0.1874999843749947},{"name":"D#5","midi":75,"time":478.9459828151044,"velocity":0.8031496062992126,"duration":0.1874999843749947},{"name":"G5","midi":79,"time":479.14484643489607,"velocity":0.8031496062992126,"duration":0.1874999843749947},{"name":"C3","midi":48,"time":479.14484643489607,"velocity":0.8031496062992126,"duration":0.1874999843749947},{"name":"C6","midi":84,"time":479.34086914583355,"velocity":0.8031496062992126,"duration":0.1874999843749947},{"name":"D#3","midi":51,"time":479.34086914583355,"velocity":0.8031496062992126,"duration":0.38636360416666093},{"name":"G5","midi":79,"time":479.5397327656252,"velocity":0.8031496062992126,"duration":0.1874999843749947},{"name":"D#5","midi":75,"time":479.7385963854169,"velocity":0.8031496062992126,"duration":0.6534090364583562},{"name":"G3","midi":55,"time":479.7385963854169,"velocity":0.8031496062992126,"duration":0.7499999375000357},{"name":"F5","midi":77,"time":480.40052814843773,"velocity":0.8031496062992126,"duration":0.13352271614587607},{"name":"D5","midi":74,"time":480.5397326822919,"velocity":0.8031496062992126,"duration":0.40909087500000396},{"name":"G2","midi":43,"time":480.5397326822919,"velocity":0.8031496062992126,"duration":0.3693181510416821},{"name":"C5","midi":72,"time":480.96302810156277,"velocity":0.8031496062992126,"duration":0.13352271614587607},{"name":"C3","midi":48,"time":480.96302810156277,"velocity":0.8031496062992126,"duration":0.6903408515625529},{"name":"B4","midi":71,"time":481.09370990885446,"velocity":0.8031496062992126,"duration":0.1448863515625476},{"name":"C5","midi":72,"time":481.21586898958367,"velocity":0.8031496062992126,"duration":2.116477096354174},{"name":"D#2","midi":39,"time":481.73859621875033,"velocity":0.8031496062992126,"duration":0.15056816927085492},{"name":"G2","midi":43,"time":481.8976871145837,"velocity":0.8031496062992126,"duration":0.5937499505208166},{"name":"C2","midi":36,"time":482.5226870625003,"velocity":0.8031496062992126,"duration":1.4829544218750357}],"controlChanges":{"7":[{"number":7,"time":0,"value":0.7874015748031497}]},"id":1,"name":"Ger.8l","instrumentNumber":7,"instrument":"clavi","instrumentFamily":"piano","channelNumber":0,"isPercussion":false}]}